<?xml version="1.0" encoding="UTF-8"?>
<svg xmlns="http://www.w3.org/2000/svg" xmlns:xlink="http://www.w3.org/1999/xlink" viewBox="0 0 197.11 104.84">
  <defs>
    <style>
      .cls-1, .cls-2, .cls-3, .cls-4, .cls-5, .cls-6, .cls-7 {
        fill: #aa8335;
      }

      .cls-2, .cls-9 {
        clip-path: url(#clip-path);
      }

      .cls-21, .cls-3 {
        clip-path: url(#clip-path-2);
      }

      .cls-17, .cls-4 {
        clip-path: url(#clip-path-3);
      }

      .cls-18, .cls-5 {
        clip-path: url(#clip-path-4);
      }

      .cls-19, .cls-6 {
        clip-path: url(#clip-path-5);
      }

      .cls-20, .cls-7 {
        clip-path: url(#clip-path-6);
      }

      .cls-8 {
        fill: #f6ecc1;
      }

      .cls-10 {
        fill: #c39850;
      }

      .cls-11 {
        fill: #be9b4e;
      }

      .cls-12 {
        fill: #d9ba69;
      }

      .cls-13 {
        fill: #efe097;
      }

      .cls-14 {
        fill: #6e5930;
      }

      .cls-15 {
        fill: #ba8139;
      }

      .cls-16 {
        fill: #97692f;
      }
    </style>
    <clipPath id="clip-path">
      <path class="cls-1" d="M124.88,81.88c-6.33,16.33-24.28,16.61-45.2,7.58C59.69,80.84,50,67.91,50.76,55,51.09,49,54,42.58,58,40.58c8.86-4.39,23.05-1.85,38.54,5.24C116.37,54.88,129.55,69.83,124.88,81.88Z"></path>
    </clipPath>
    <clipPath id="clip-path-2">
      <path class="cls-1" d="M144.65,72.52c3.63,17.13-11.26,27.18-33.71,31.05-21.45,3.7-36.6-1.85-43-13-3-5.24-4.06-12.19-1.78-16.06,5-8.52,18.28-14.15,35.14-16.68C122.77,54.55,142,59.87,144.65,72.52Z"></path>
    </clipPath>
    <clipPath id="clip-path-3">
      <path class="cls-1" d="M142.22,11.62c6.18,16.38-7,28.57-28.61,35.81C93,54.34,77.15,51.15,69.08,41.05c-3.78-4.72-5.87-11.43-4.2-15.6,3.67-9.18,15.93-16.76,32.2-21.81C117.87-2.82,137.65-.47,142.22,11.62Z"></path>
    </clipPath>
    <clipPath id="clip-path-4">
      <path class="cls-1" d="M195.6,88.8c-7.32,15.91-25.26,15.08-45.58,4.77-19.42-9.84-28.25-23.34-26.74-36.17.71-6,4-12.21,8.16-13.95,9.11-3.84,23.12-.42,38.14,7.61C188.78,61.32,201,77.06,195.6,88.8Z"></path>
    </clipPath>
    <clipPath id="clip-path-5">
      <path class="cls-1" d="M79.83,71.73c3.5,17.16-11.47,27.1-33.95,30.8C24.41,106.06,9.3,100.4,2.94,89.15,0,83.89-1,76.93,1.27,73.07c5.09-8.48,18.4-14,35.27-16.4C58.09,53.6,77.25,59.07,79.83,71.73Z"></path>
    </clipPath>
    <clipPath id="clip-path-6">
      <path class="cls-1" d="M156.32,38.81c10.94,13.67,2.16,29.34-16.15,42.9-17.49,13-33.52,14.8-44.32,7.7-5-3.33-9.11-9.06-8.81-13.55C87.69,66,97,55,110.93,45.17,128.7,32.61,148.24,28.72,156.32,38.81Z"></path>
    </clipPath>
  </defs>
  <g id="Слой_2" data-name="Слой 2">
    <g id="Слой_1-2" data-name="Слой 1">
      <g>
        <g>
          <circle class="cls-8" cx="121.94" cy="82.35" r="0.44"></circle>
          <circle class="cls-8" cx="52.8" cy="56.05" r="0.44"></circle>
          <g>
            <g>
              <path class="cls-1" d="M124.88,81.88c-6.33,16.33-24.28,16.61-45.2,7.58C59.69,80.84,50,67.91,50.76,55,51.09,49,54,42.58,58,40.58c8.86-4.39,23.05-1.85,38.54,5.24C116.37,54.88,129.55,69.83,124.88,81.88Z"></path>
              <path class="cls-1" d="M124.88,81.88c-6.33,16.33-24.28,16.61-45.2,7.58C59.69,80.84,50,67.91,50.76,55,51.09,49,54,42.58,58,40.58c8.86-4.39,23.05-1.85,38.54,5.24C116.37,54.88,129.55,69.83,124.88,81.88Z"></path>
              <g class="cls-9">
                <path class="cls-10" d="M119.65,78.78C115.3,90,97.22,96.34,76.93,86.41c-16.35-8-26-27.47-21.65-38.7a10.5,10.5,0,0,1,6.82-6.62c8.44-2.14,19.2.27,30.57,4.68C109.65,52.34,124,67.56,119.65,78.78Z"></path>
                <path class="cls-11" d="M119.65,78.78C115.3,90,97.22,96.34,76.93,86.41c-16.35-8-26-27.47-21.65-38.7a10.5,10.5,0,0,1,6.82-6.62c8.44-2.14,19.2.27,30.57,4.68C109.65,52.34,124,67.56,119.65,78.78Z"></path>
                <path class="cls-12" d="M113.28,76.3C109,85.43,93.13,87,78,79.82S54.13,57,58.45,47.86s15.19-7,31.38-1.89C105.85,51.06,117.61,67.16,113.28,76.3Z"></path>
                <path class="cls-12" d="M113.28,76.3C109,85.43,93.13,87,78,79.82S54.13,57,58.45,47.86s15.19-7,31.38-1.89C105.85,51.06,117.61,67.16,113.28,76.3Z"></path>
                <ellipse class="cls-13" cx="80.56" cy="57.02" rx="9.46" ry="19.17" transform="translate(-1.71 111.55) rotate(-68.83)"></ellipse>
                <ellipse class="cls-13" cx="80.56" cy="57.02" rx="9.46" ry="19.17" transform="translate(-1.71 111.55) rotate(-68.83)"></ellipse>
              </g>
            </g>
            <circle class="cls-10" cx="71.21" cy="71.61" r="1.77"></circle>
            <circle class="cls-10" cx="102.25" cy="62.43" r="1.77"></circle>
            <circle class="cls-10" cx="121.29" cy="74.24" r="1.77"></circle>
            <circle class="cls-10" cx="89.31" cy="71.61" r="0.89"></circle>
            <circle class="cls-10" cx="97.59" cy="52.7" r="0.89"></circle>
            <circle class="cls-10" cx="65.9" cy="46.88" r="0.89"></circle>
            <circle class="cls-10" cx="95.62" cy="82.01" r="0.89"></circle>
            <circle class="cls-8" cx="83.42" cy="78.24" r="0.89"></circle>
            <circle class="cls-8" cx="89.58" cy="87.79" r="0.89"></circle>
            <circle class="cls-10" cx="117.11" cy="87.49" r="0.89"></circle>
            <circle class="cls-10" cx="80.04" cy="54.93" r="0.44"></circle>
            <circle class="cls-10" cx="108.03" cy="71.09" r="0.44"></circle>
            <circle class="cls-8" cx="106.9" cy="86.38" r="0.44"></circle>
            <circle class="cls-10" cx="64.55" cy="61.08" r="0.44"></circle>
            <path class="cls-14" d="M108.65,52.62a60,60,0,0,1,9.85,8.14,34.11,34.11,0,0,1,4,5,20,20,0,0,1,2.78,5.83,18,18,0,0,1-1,12.73,22.19,22.19,0,0,1-9,9.13,17,17,0,0,1-6.23,1.92,36.61,36.61,0,0,1-6.45.26,57.2,57.2,0,0,1-12.68-2,45.81,45.81,0,0,1-6-2.16c-2-.84-3.92-1.68-5.86-2.56A52.38,52.38,0,0,1,67,82.51a52.17,52.17,0,0,0,11.23,6l5.9,2.44a45.57,45.57,0,0,0,6,2,61.16,61.16,0,0,0,12.53,1.85,36.79,36.79,0,0,0,6.3-.29,16.3,16.3,0,0,0,5.89-1.85,21.26,21.26,0,0,0,8.74-8.71,15.85,15.85,0,0,0,1.63-6,20.32,20.32,0,0,0-.57-6.21,19.4,19.4,0,0,0-2.58-5.7,36,36,0,0,0-3.89-5A60.29,60.29,0,0,0,108.65,52.62Z"></path>
            <path class="cls-10" d="M88.46,47.86s-3.29,1.18-3.57,6"></path>
            <path class="cls-10" d="M84.57,64.6s-3.09,1.64-2.69,6.4"></path>
            <path class="cls-10" d="M70.48,58.7s-3.09,1.64-2.69,6.4"></path>
            <path class="cls-15" d="M114.88,66.25a4.06,4.06,0,0,0-2.12,4.57"></path>
            <path class="cls-15" d="M80.2,82.5a4.06,4.06,0,0,0,0,5"></path>
            <path class="cls-15" d="M101.38,81.47s-3.09,1.64-2.68,6.4"></path>
            <path class="cls-15" d="M60,56.69s-2,1.08-1.77,4.23"></path>
            <path class="cls-16" d="M63.35,75.85S75,87.94,96.24,92C96.24,92,73.87,91,63.35,75.85Z"></path>
          </g>
        </g>
        <g>
          <circle class="cls-8" cx="140.34" cy="13.93" r="0.44"></circle>
          <circle class="cls-8" cx="71.29" cy="40.46" r="0.44"></circle>
          <g>
            <g>
              <path class="cls-1" d="M142.22,11.62c6.18,16.38-7,28.57-28.61,35.81C93,54.34,77.15,51.15,69.08,41.05c-3.78-4.72-5.87-11.43-4.2-15.6,3.67-9.18,15.93-16.76,32.2-21.81C117.87-2.82,137.65-.47,142.22,11.62Z"></path>
              <path class="cls-1" d="M142.22,11.62c6.18,16.38-7,28.57-28.61,35.81C93,54.34,77.15,51.15,69.08,41.05c-3.78-4.72-5.87-11.43-4.2-15.6,3.67-9.18,15.93-16.76,32.2-21.81C117.87-2.82,137.65-.47,142.22,11.62Z"></path>
              <g class="cls-17">
                <path class="cls-10" d="M136.25,12.8c4.25,11.26-5,28-26.73,34.19C92,51.94,71.83,43.86,67.58,32.6a10.46,10.46,0,0,1,.66-9.48C73.1,15.89,82.72,10.51,94.13,6.21,111.16-.22,132,1.54,136.25,12.8Z"></path>
                <path class="cls-11" d="M136.25,12.8c4.25,11.26-5,28-26.73,34.19C92,51.94,71.83,43.86,67.58,32.6a10.46,10.46,0,0,1,.66-9.48C73.1,15.89,82.72,10.51,94.13,6.21,111.16-.22,132,1.54,136.25,12.8Z"></path>
                <path class="cls-12" d="M129.85,15.2c2.87,9.69-7.86,21.42-24,26.19s-33-1.1-35.84-10.8S76.66,15.23,92.15,8.25C107.48,1.36,127,5.5,129.85,15.2Z"></path>
                <path class="cls-12" d="M129.85,15.2c2.87,9.69-7.86,21.42-24,26.19s-33-1.1-35.84-10.8S76.66,15.23,92.15,8.25C107.48,1.36,127,5.5,129.85,15.2Z"></path>
                <ellipse class="cls-13" cx="92.62" cy="22.67" rx="19.17" ry="9.46" transform="translate(-2.04 34.16) rotate(-20.68)"></ellipse>
                <ellipse class="cls-13" cx="92.62" cy="22.67" rx="19.17" ry="9.46" transform="translate(-2.04 34.16) rotate(-20.68)"></ellipse>
              </g>
            </g>
            <circle class="cls-10" cx="95.38" cy="39.77" r="1.77"></circle>
            <circle class="cls-10" cx="112.39" cy="12.23" r="1.77"></circle>
            <circle class="cls-10" cx="134.44" cy="8.32" r="1.77"></circle>
            <circle class="cls-10" cx="108.87" cy="27.7" r="0.89"></circle>
            <circle class="cls-10" cx="102.42" cy="8.09" r="0.89"></circle>
            <circle class="cls-10" cx="74.93" cy="24.89" r="0.89"></circle>
            <circle class="cls-10" cx="120.51" cy="31.24" r="0.89"></circle>
            <circle class="cls-8" cx="108.91" cy="36.56" r="0.89"></circle>
            <circle class="cls-8" cx="119.87" cy="39.57" r="0.89"></circle>
            <circle class="cls-10" cx="140.17" cy="20.98" r="0.89"></circle>
            <circle class="cls-10" cx="90.84" cy="21.46" r="0.44"></circle>
            <circle class="cls-10" cx="122.47" cy="14.82" r="0.44"></circle>
            <circle class="cls-8" cx="131.83" cy="26.97" r="0.44"></circle>
            <circle class="cls-10" cx="83.4" cy="36.37" r="0.44"></circle>
            <path class="cls-14" d="M110.61.65A59.89,59.89,0,0,1,123.38.14a35,35,0,0,1,6.34,1,19.6,19.6,0,0,1,6,2.49,18,18,0,0,1,7.76,10.14,22.27,22.27,0,0,1-.64,12.83,16.78,16.78,0,0,1-3.36,5.58,37.12,37.12,0,0,1-4.63,4.5,57.25,57.25,0,0,1-10.78,7,47.28,47.28,0,0,1-6,2.43c-2,.67-4,1.36-6.07,2a52.49,52.49,0,0,1-12.5,2.61,52.22,52.22,0,0,0,12.36-3l6-2.12A44.78,44.78,0,0,0,123.71,43a61.19,61.19,0,0,0,10.57-7,36.15,36.15,0,0,0,4.5-4.42,16.25,16.25,0,0,0,3.15-5.31A21.35,21.35,0,0,0,142.64,14a15.93,15.93,0,0,0-2.78-5.53,20,20,0,0,0-4.57-4.24,18.85,18.85,0,0,0-5.72-2.53A35.39,35.39,0,0,0,123.34.58,60.19,60.19,0,0,0,110.61.65Z"></path>
            <path class="cls-10" d="M92.39,10.57s-1.66,3.08,1.32,6.82"></path>
            <path class="cls-10" d="M100.66,25.64s-1.21,3.28,2.27,6.56"></path>
            <path class="cls-10" d="M86.23,30.65S85,33.93,88.5,37.21"></path>
            <path class="cls-15" d="M124.34,6.65a4.06,4.06,0,0,0,1.48,4.82"></path>
            <path class="cls-15" d="M109.35,41.89a4.06,4.06,0,0,0,3.35,3.77"></path>
            <path class="cls-15" d="M124.44,27s-1.2,3.29,2.27,6.56"></path>
            <path class="cls-15" d="M77.11,36.11s-.79,2.17,1.5,4.33"></path>
            <path class="cls-16" d="M92.36,48.17s16.74,1.25,35.29-9.89C127.65,38.28,110.34,52.48,92.36,48.17Z"></path>
          </g>
        </g>
        <g>
          <circle class="cls-8" cx="192.63" cy="89.09" r="0.44"></circle>
          <circle class="cls-8" cx="125.26" cy="58.56" r="0.44"></circle>
          <g>
            <g>
              <path class="cls-1" d="M195.6,88.8c-7.32,15.91-25.26,15.08-45.58,4.77-19.42-9.84-28.25-23.34-26.74-36.17.71-6,4-12.21,8.16-13.95,9.11-3.84,23.12-.42,38.14,7.61C188.78,61.32,201,77.06,195.6,88.8Z"></path>
              <path class="cls-1" d="M195.6,88.8c-7.32,15.91-25.26,15.08-45.58,4.77-19.42-9.84-28.25-23.34-26.74-36.17.71-6,4-12.21,8.16-13.95,9.11-3.84,23.12-.42,38.14,7.61C188.78,61.32,201,77.06,195.6,88.8Z"></path>
              <g class="cls-18">
                <path class="cls-10" d="M190.57,85.38c-5,10.94-23.47,16.14-43.11,5-15.82-9-24.25-29-19.22-40a10.48,10.48,0,0,1,7.23-6.18c8.55-1.62,19.14,1.45,30.22,6.55C182.22,58.37,195.6,74.45,190.57,85.38Z"></path>
                <path class="cls-11" d="M190.57,85.38c-5,10.94-23.47,16.14-43.11,5-15.82-9-24.25-29-19.22-40a10.48,10.48,0,0,1,7.23-6.18c8.55-1.62,19.14,1.45,30.22,6.55C182.22,58.37,195.6,74.45,190.57,85.38Z"></path>
                <path class="cls-12" d="M184.37,82.51c-4.89,8.85-20.77,9.45-35.48,1.33s-22.37-24.25-17.49-33.1,15.6-6.08,31.44,0C178.51,56.86,189.25,73.66,184.37,82.51Z"></path>
                <path class="cls-12" d="M184.37,82.51c-4.89,8.85-20.77,9.45-35.48,1.33s-22.37-24.25-17.49-33.1,15.6-6.08,31.44,0C178.51,56.86,189.25,73.66,184.37,82.51Z"></path>
                <ellipse class="cls-13" cx="152.9" cy="61.25" rx="9.46" ry="19.17" transform="translate(33.33 174.53) rotate(-65.28)"></ellipse>
                <ellipse class="cls-13" cx="152.9" cy="61.25" rx="9.46" ry="19.17" transform="translate(33.33 174.53) rotate(-65.28)"></ellipse>
              </g>
            </g>
            <circle class="cls-10" cx="142.67" cy="75.23" r="1.77"></circle>
            <circle class="cls-10" cx="174.22" cy="67.99" r="1.77"></circle>
            <circle class="cls-10" cx="192.49" cy="80.95" r="1.77"></circle>
            <circle class="cls-10" cx="160.73" cy="76.35" r="0.89"></circle>
            <circle class="cls-10" cx="170.16" cy="57.98" r="0.89"></circle>
            <circle class="cls-10" cx="138.89" cy="50.22" r="0.89"></circle>
            <circle class="cls-10" cx="166.38" cy="87.12" r="0.89"></circle>
            <circle class="cls-8" cx="154.45" cy="82.6" r="0.89"></circle>
            <circle class="cls-8" cx="160" cy="92.52" r="0.89"></circle>
            <circle class="cls-10" cx="187.5" cy="93.91" r="0.89"></circle>
            <circle class="cls-10" cx="152.51" cy="59.13" r="0.44"></circle>
            <circle class="cls-10" cx="179.45" cy="76.99" r="0.44"></circle>
            <circle class="cls-8" cx="177.37" cy="92.18" r="0.44"></circle>
            <circle class="cls-10" cx="136.68" cy="64.3" r="0.44"></circle>
            <path class="cls-14" d="M181.21,58.59a60.24,60.24,0,0,1,9.33,8.73,35,35,0,0,1,3.73,5.23,19.83,19.83,0,0,1,2.41,6,18,18,0,0,1-1.77,12.64,22.23,22.23,0,0,1-9.58,8.56,17,17,0,0,1-6.33,1.53,36.66,36.66,0,0,1-6.46-.14A57.64,57.64,0,0,1,160,98.36a46.69,46.69,0,0,1-5.91-2.53c-1.9-1-3.8-1.92-5.69-2.92a52.66,52.66,0,0,1-10.63-7.06,52.19,52.19,0,0,0,10.84,6.66l5.74,2.8a46.52,46.52,0,0,0,5.87,2.38,61.25,61.25,0,0,0,12.4,2.62,36.85,36.85,0,0,0,6.3.1,16.35,16.35,0,0,0,6-1.48,21.42,21.42,0,0,0,9.26-8.15,16,16,0,0,0,2-5.86,20.12,20.12,0,0,0-.19-6.24,18.94,18.94,0,0,0-2.22-5.84,35,35,0,0,0-3.57-5.23A60.36,60.36,0,0,0,181.21,58.59Z"></path>
            <path class="cls-10" d="M161.35,52.59s-3.35,1-3.92,5.72"></path>
            <path class="cls-10" d="M156.43,69.06s-3.18,1.44-3.07,6.22"></path>
            <path class="cls-10" d="M142.73,62.3s-3.18,1.45-3.07,6.22"></path>
            <path class="cls-15" d="M186.58,72.58A4.06,4.06,0,0,0,184.19,77"></path>
            <path class="cls-15" d="M151,86.66a4.06,4.06,0,0,0-.34,5"></path>
            <path class="cls-15" d="M172.17,86.94s-3.18,1.45-3.07,6.22"></path>
            <path class="cls-15" d="M132.44,59.64s-2.1,1-2,4.12"></path>
            <path class="cls-16" d="M134.56,79s10.87,12.79,31.83,18.17C166.39,97.15,144.12,94.79,134.56,79Z"></path>
          </g>
        </g>
        <g>
          <circle class="cls-8" cx="77.61" cy="73.72" r="0.44"></circle>
          <circle class="cls-8" cx="5.22" cy="88.92" r="0.44"></circle>
          <g>
            <g>
              <path class="cls-1" d="M79.83,71.73c3.5,17.16-11.47,27.1-33.95,30.8C24.41,106.06,9.3,100.4,2.94,89.15,0,83.89-1,76.93,1.27,73.07c5.09-8.48,18.4-14,35.27-16.4C58.09,53.6,77.25,59.07,79.83,71.73Z"></path>
              <path class="cls-1" d="M79.83,71.73c3.5,17.16-11.47,27.1-33.95,30.8C24.41,106.06,9.3,100.4,2.94,89.15,0,83.89-1,76.93,1.27,73.07c5.09-8.48,18.4-14,35.27-16.4C58.09,53.6,77.25,59.07,79.83,71.73Z"></path>
              <g class="cls-19">
                <path class="cls-10" d="M73.75,72c2.41,11.8-9.39,26.89-31.83,29.49C23.84,103.54,5.2,92.36,2.8,80.56A10.48,10.48,0,0,1,5,71.31C10.91,65,21.27,61.17,33.22,58.73,51.06,55.1,71.35,60.16,73.75,72Z"></path>
                <path class="cls-11" d="M73.75,72c2.41,11.8-9.39,26.89-31.83,29.49C23.84,103.54,5.2,92.36,2.8,80.56A10.48,10.48,0,0,1,5,71.31C10.91,65,21.27,61.17,33.22,58.73,51.06,55.1,71.35,60.16,73.75,72Z"></path>
                <path class="cls-12" d="M67.05,73.3c1.3,10-11.17,19.89-27.83,22S6.85,89,5.55,79s9-14.12,25.39-18.54C47.17,56.07,65.76,63.27,67.05,73.3Z"></path>
                <path class="cls-12" d="M67.05,73.3c1.3,10-11.17,19.89-27.83,22S6.85,89,5.55,79s9-14.12,25.39-18.54C47.17,56.07,65.76,63.27,67.05,73.3Z"></path>
                <ellipse class="cls-13" cx="29.1" cy="74.75" rx="19.17" ry="9.46" transform="translate(-14.33 7.31) rotate(-11.51)"></ellipse>
                <ellipse class="cls-13" cx="29.1" cy="74.75" rx="19.17" ry="9.46" transform="translate(-14.33 7.31) rotate(-11.51)"></ellipse>
              </g>
            </g>
            <circle class="cls-10" cx="29.11" cy="92.07" r="1.77"></circle>
            <circle class="cls-10" cx="50.28" cy="67.59" r="1.77"></circle>
            <circle class="cls-10" cx="72.68" cy="67.24" r="1.77"></circle>
            <circle class="cls-10" cx="44.35" cy="82.3" r="0.89"></circle>
            <circle class="cls-10" cx="41.1" cy="61.91" r="0.89"></circle>
            <circle class="cls-10" cx="11.29" cy="74.13" r="0.89"></circle>
            <circle class="cls-10" cx="55.27" cy="87.65" r="0.89"></circle>
            <circle class="cls-8" cx="42.97" cy="91.06" r="0.89"></circle>
            <circle class="cls-8" cx="53.31" cy="95.77" r="0.89"></circle>
            <circle class="cls-10" cx="76.32" cy="80.65" r="0.89"></circle>
            <circle class="cls-10" cx="27.54" cy="73.27" r="0.44"></circle>
            <circle class="cls-10" cx="59.83" cy="71.75" r="0.44"></circle>
            <circle class="cls-8" cx="67.13" cy="85.23" r="0.44"></circle>
            <circle class="cls-10" cx="17.82" cy="86.8" r="0.44"></circle>
            <path class="cls-14" d="M50.37,55.87A60.39,60.39,0,0,1,63.06,57.4a34.89,34.89,0,0,1,6.1,2,19.43,19.43,0,0,1,5.48,3.41,17.93,17.93,0,0,1,6,11.24A22.19,22.19,0,0,1,78,86.63a17,17,0,0,1-4.2,5,37.57,37.57,0,0,1-5.29,3.71,57.53,57.53,0,0,1-11.76,5.16,44.74,44.74,0,0,1-6.26,1.45c-2.1.35-4.2.7-6.31,1a52.48,52.48,0,0,1-12.76.59,52.45,52.45,0,0,0,12.69-1l6.28-1.14a44.64,44.64,0,0,0,6.15-1.55A61.43,61.43,0,0,0,68.1,94.6,35.91,35.91,0,0,0,73.24,91a16.08,16.08,0,0,0,4-4.74,21.3,21.3,0,0,0,2.65-12A15.83,15.83,0,0,0,78,68.26a20.25,20.25,0,0,0-3.83-4.92,19.18,19.18,0,0,0-5.25-3.4,34.69,34.69,0,0,0-6-2.11A59.94,59.94,0,0,0,50.37,55.87Z"></path>
            <path class="cls-10" d="M30.8,62.77s-2.12,2.77.22,6.94"></path>
            <path class="cls-10" d="M36.57,79S34.86,82,37.77,85.8"></path>
            <path class="cls-10" d="M21.52,81.6s-1.71,3.05,1.2,6.84"></path>
            <path class="cls-15" d="M63,64a4.06,4.06,0,0,0,.69,5"></path>
            <path class="cls-15" d="M42.56,96.39a4.06,4.06,0,0,0,2.71,4.25"></path>
            <path class="cls-15" d="M59.83,84.08s-1.71,3,1.2,6.84"></path>
            <path class="cls-15" d="M11.66,85.54s-1.14,2,.79,4.52"></path>
            <path class="cls-16" d="M24.79,99.89s16.32,3.89,36.41-4.15C61.2,95.74,41.85,107,24.79,99.89Z"></path>
          </g>
        </g>
        <g>
          <circle class="cls-8" cx="155.25" cy="41.59" r="0.44"></circle>
          <circle class="cls-8" cx="97.78" cy="88.16" r="0.44"></circle>
          <g>
            <g>
              <path class="cls-1" d="M156.32,38.81c10.94,13.67,2.16,29.34-16.15,42.9-17.49,13-33.52,14.8-44.32,7.7-5-3.33-9.11-9.06-8.81-13.55C87.69,66,97,55,110.93,45.17,128.7,32.61,148.24,28.72,156.32,38.81Z"></path>
              <path class="cls-1" d="M156.32,38.81c10.94,13.67,2.16,29.34-16.15,42.9-17.49,13-33.52,14.8-44.32,7.7-5-3.33-9.11-9.06-8.81-13.55C87.69,66,97,55,110.93,45.17,128.7,32.61,148.24,28.72,156.32,38.81Z"></path>
              <g class="cls-20">
                <path class="cls-10" d="M151,41.78c7.52,9.4,3.92,28.21-14.86,40.77C121,92.67,99.33,91.23,91.81,81.83a10.5,10.5,0,0,1-2.29-9.23c2.38-8.37,9.87-16.46,19.4-24.08C123.13,37.15,143.49,32.38,151,41.78Z"></path>
                <path class="cls-11" d="M151,41.78c7.52,9.4,3.92,28.21-14.86,40.77C121,92.67,99.33,91.23,91.81,81.83a10.5,10.5,0,0,1-2.29-9.23c2.38-8.37,9.87-16.46,19.4-24.08C123.13,37.15,143.49,32.38,151,41.78Z"></path>
                <path class="cls-12" d="M145.67,46c5.72,8.33-.86,22.8-14.71,32.31s-31.69,9.14-37.42.81,1.55-16.66,14.13-28.08S139.94,37.7,145.67,46Z"></path>
                <path class="cls-12" d="M145.67,46c5.72,8.33-.86,22.8-14.71,32.31s-31.69,9.14-37.42.81,1.55-16.66,14.13-28.08S139.94,37.7,145.67,46Z"></path>
                <ellipse class="cls-13" cx="112.56" cy="64.65" rx="19.17" ry="9.46" transform="translate(-15.71 84.52) rotate(-38.67)"></ellipse>
                <ellipse class="cls-13" cx="112.56" cy="64.65" rx="19.17" ry="9.46" transform="translate(-15.71 84.52) rotate(-38.67)"></ellipse>
              </g>
            </g>
            <circle class="cls-10" cx="120.48" cy="80.06" r="1.77"></circle>
            <circle class="cls-10" cx="128.14" cy="48.61" r="1.77"></circle>
            <circle class="cls-10" cx="147.91" cy="38.08" r="1.77"></circle>
            <circle class="cls-10" cx="129.58" cy="64.41" r="0.89"></circle>
            <circle class="cls-10" cx="117.38" cy="47.75" r="0.89"></circle>
            <circle class="cls-10" cx="96.42" cy="72.23" r="0.89"></circle>
            <circle class="cls-10" cx="141.73" cy="64.18" r="0.89"></circle>
            <circle class="cls-8" cx="132.35" cy="72.83" r="0.89"></circle>
            <circle class="cls-8" cx="143.7" cy="72.31" r="0.89"></circle>
            <circle class="cls-10" cx="157.26" cy="48.35" r="0.89"></circle>
            <circle class="cls-10" cx="110.49" cy="64.05" r="0.44"></circle>
            <circle class="cls-10" cx="138.53" cy="47.96" r="0.44"></circle>
            <circle class="cls-8" cx="151.18" cy="56.62" r="0.44"></circle>
            <circle class="cls-10" cx="108.03" cy="80.52" r="0.44"></circle>
            <path class="cls-14" d="M122.87,38.15a60.47,60.47,0,0,1,12-4.44,35.72,35.72,0,0,1,6.35-1,20,20,0,0,1,6.44.53,17.94,17.94,0,0,1,10.51,7.25,22.25,22.25,0,0,1,3.36,12.39A17,17,0,0,1,160,59.25a36.47,36.47,0,0,1-3,5.7,57.52,57.52,0,0,1-8.11,10,45,45,0,0,1-4.9,4.15c-1.72,1.27-3.42,2.54-5.16,3.78a52.56,52.56,0,0,1-11.08,6.35,52.53,52.53,0,0,0,10.82-6.71l5.07-3.88a45.15,45.15,0,0,0,4.76-4.19,61.14,61.14,0,0,0,7.89-9.9,36.22,36.22,0,0,0,2.91-5.59,16.38,16.38,0,0,0,1.37-6A21.34,21.34,0,0,0,157.46,41a16,16,0,0,0-4.35-4.4,20,20,0,0,0-5.66-2.63,19.08,19.08,0,0,0-6.22-.63,35.12,35.12,0,0,0-6.28.85A59.43,59.43,0,0,0,122.87,38.15Z"></path>
            <path class="cls-10" d="M108.61,53.21S108,56.65,112,59.29"></path>
            <path class="cls-10" d="M121.13,65s-.14,3.49,4.18,5.53"></path>
            <path class="cls-10" d="M109,74.21s-.13,3.49,4.18,5.54"></path>
            <path class="cls-15" d="M137.78,39.61a4.06,4.06,0,0,0,2.89,4.13"></path>
            <path class="cls-15" d="M134.42,77.76a4,4,0,0,0,4.34,2.55"></path>
            <path class="cls-15" d="M144.16,58.93s-.13,3.49,4.19,5.53"></path>
            <path class="cls-15" d="M102,82.22s-.09,2.31,2.76,3.66"></path>
            <path class="cls-16" d="M120.2,89s16.3-4,30.5-20.31C150.7,68.67,138.62,87.52,120.2,89Z"></path>
          </g>
        </g>
        <g>
          <circle class="cls-8" cx="142.44" cy="74.52" r="0.44"></circle>
          <circle class="cls-8" cx="70.17" cy="90.27" r="0.44"></circle>
          <g>
            <g>
              <path class="cls-1" d="M144.65,72.52c3.63,17.13-11.26,27.18-33.71,31.05-21.45,3.7-36.6-1.85-43-13-3-5.24-4.06-12.19-1.78-16.06,5-8.52,18.28-14.15,35.14-16.68C122.77,54.55,142,59.87,144.65,72.52Z"></path>
              <path class="cls-1" d="M144.65,72.52c3.63,17.13-11.26,27.18-33.71,31.05-21.45,3.7-36.6-1.85-43-13-3-5.24-4.06-12.19-1.78-16.06,5-8.52,18.28-14.15,35.14-16.68C122.77,54.55,142,59.87,144.65,72.52Z"></path>
              <g class="cls-21">
                <path class="cls-10" d="M138.58,72.78c2.49,11.78-9.19,27-31.61,29.74-18.06,2.23-36.79-8.81-39.28-20.59a10.48,10.48,0,0,1,2.1-9.27C75.68,66.26,86,62.4,97.94,59.87,115.75,56.1,136.08,61,138.58,72.78Z"></path>
                <path class="cls-11" d="M138.58,72.78c2.49,11.78-9.19,27-31.61,29.74-18.06,2.23-36.79-8.81-39.28-20.59a10.48,10.48,0,0,1,2.1-9.27C75.68,66.26,86,62.4,97.94,59.87,115.75,56.1,136.08,61,138.58,72.78Z"></path>
                <path class="cls-12" d="M131.89,74.18c1.36,10-11,20-27.67,22.25S71.8,90.34,70.43,80.33,79.31,66.14,95.68,61.6C111.87,57.11,130.52,64.16,131.89,74.18Z"></path>
                <path class="cls-12" d="M131.89,74.18c1.36,10-11,20-27.67,22.25S71.8,90.34,70.43,80.33,79.31,66.14,95.68,61.6C111.87,57.11,130.52,64.16,131.89,74.18Z"></path>
                <ellipse class="cls-13" cx="93.95" cy="75.92" rx="19.17" ry="9.46" transform="translate(-13.68 21.1) rotate(-11.95)"></ellipse>
                <ellipse class="cls-13" cx="93.95" cy="75.92" rx="19.17" ry="9.46" transform="translate(-13.68 21.1) rotate(-11.95)"></ellipse>
              </g>
            </g>
            <circle class="cls-10" cx="94.09" cy="93.24" r="1.77"></circle>
            <circle class="cls-10" cx="115.07" cy="68.6" r="1.77"></circle>
            <circle class="cls-10" cx="137.47" cy="68.08" r="1.77"></circle>
            <circle class="cls-10" cx="109.25" cy="83.36" r="0.89"></circle>
            <circle class="cls-10" cx="105.85" cy="62.99" r="0.89"></circle>
            <circle class="cls-10" cx="76.13" cy="75.43" r="0.89"></circle>
            <circle class="cls-10" cx="120.21" cy="88.62" r="0.89"></circle>
            <circle class="cls-8" cx="107.94" cy="92.12" r="0.89"></circle>
            <circle class="cls-8" cx="118.32" cy="96.76" r="0.89"></circle>
            <circle class="cls-10" cx="141.2" cy="81.46" r="0.89"></circle>
            <circle class="cls-10" cx="92.37" cy="74.45" r="0.44"></circle>
            <circle class="cls-10" cx="124.65" cy="72.69" r="0.44"></circle>
            <circle class="cls-8" cx="132.05" cy="86.11" r="0.44"></circle>
            <circle class="cls-10" cx="82.76" cy="88.06" r="0.44"></circle>
            <path class="cls-14" d="M115.07,56.88a60.37,60.37,0,0,1,12.7,1.43,34.82,34.82,0,0,1,6.11,2,19.73,19.73,0,0,1,5.52,3.37,18,18,0,0,1,6.12,11.2A22.08,22.08,0,0,1,143,87.43a17.12,17.12,0,0,1-4.16,5,36.93,36.93,0,0,1-5.26,3.74,56.8,56.8,0,0,1-11.72,5.26,46.22,46.22,0,0,1-6.25,1.5c-2.1.36-4.2.73-6.3,1a52.45,52.45,0,0,1-12.75.69,51.86,51.86,0,0,0,12.67-1.13l6.28-1.18a44.53,44.53,0,0,0,6.13-1.6,61.23,61.23,0,0,0,11.51-5.3,35.12,35.12,0,0,0,5.11-3.69A16.14,16.14,0,0,0,142.14,87,21.36,21.36,0,0,0,144.7,75a16,16,0,0,0-1.9-5.89,20.56,20.56,0,0,0-3.87-4.89,19.13,19.13,0,0,0-5.28-3.36,34.76,34.76,0,0,0-6-2.07A60.66,60.66,0,0,0,115.07,56.88Z"></path>
            <path class="cls-10" d="M95.56,63.93s-2.11,2.79.27,6.93"></path>
            <path class="cls-10" d="M101.44,80.07s-1.69,3.06,1.25,6.83"></path>
            <path class="cls-10" d="M86.42,82.83s-1.69,3.06,1.25,6.83"></path>
            <path class="cls-15" d="M127.73,64.89a4.07,4.07,0,0,0,.73,5"></path>
            <path class="cls-15" d="M107.57,97.45a4.07,4.07,0,0,0,2.74,4.24"></path>
            <path class="cls-15" d="M124.75,85s-1.69,3.06,1.25,6.82"></path>
            <path class="cls-15" d="M76.58,86.85s-1.11,2,.83,4.51"></path>
            <path class="cls-16" d="M89.83,101.09s16.35,3.77,36.37-4.43C126.2,96.66,106.94,108.07,89.83,101.09Z"></path>
          </g>
        </g>
      </g>
    </g>
  </g>
</svg>
