<?xml version="1.0" encoding="UTF-8"?>
<svg xmlns="http://www.w3.org/2000/svg" viewBox="0 0 108.59 45.94">
  <defs>
    <style>
      .cls-1 {
        fill: #402d22;
      }

      .cls-2 {
        fill: #d2c9be;
      }
    </style>
  </defs>
  <g id="Слой_2" data-name="Слой 2">
    <g id="Слой_10" data-name="Слой 10">
      <g>
        <g>
          <path class="cls-1" d="M51.62,10.6C50.29,7.35,46.13,6,42.33,7.53s-7.66,5.75-6.32,9,7.35,4.33,11.14,2.78S53,13.85,51.62,10.6Z"></path>
          <path class="cls-2" d="M51,16.08a8.08,8.08,0,0,1-4.49,3.31,11.46,11.46,0,0,1-5.61.16c-1.81-.4-3.7-1.27-4.52-2.92s0-3.64,1.15-5.06a12.88,12.88,0,0,1,4.36-3.49,8.12,8.12,0,0,1,5.43-.83,6,6,0,0,1,4.32,3.36A6,6,0,0,1,51,16.08Zm-3.6-9.14a8.5,8.5,0,0,0-5.78.6A13.2,13.2,0,0,0,37,11.21c-1.16,1.51-2.1,3.7-1.11,5.63s3,2.7,4.86,3.1a11.82,11.82,0,0,0,5.79-.26,8.27,8.27,0,0,0,4.51-3.53,6.17,6.17,0,0,0,.59-5.56A6.21,6.21,0,0,0,47.35,6.94Z"></path>
        </g>
        <g>
          <path class="cls-1" d="M49.8,18.87c-1.34-3.25-5.5-4.62-9.29-3.07s-7.66,5.75-6.32,9,7.35,4.34,11.14,2.78S51.13,22.13,49.8,18.87Z"></path>
          <path class="cls-2" d="M49.13,24.36a8.06,8.06,0,0,1-4.49,3.3,11.5,11.5,0,0,1-5.62.17c-1.8-.41-3.69-1.28-4.51-2.92s0-3.64,1.15-5.06A12.82,12.82,0,0,1,40,16.36a8,8,0,0,1,5.44-.83,6,6,0,0,1,4.32,3.35A6.06,6.06,0,0,1,49.13,24.36Zm-3.6-9.15a8.56,8.56,0,0,0-5.78.6,13.47,13.47,0,0,0-4.57,3.67C34,21,33.09,23.19,34.07,25.12s3,2.7,4.87,3.1A11.83,11.83,0,0,0,44.73,28a8.29,8.29,0,0,0,4.51-3.52,6,6,0,0,0-3.71-9.22Z"></path>
        </g>
        <g>
          <path class="cls-1" d="M50.4,16.93c3.51,0,6.35-3.36,6.33-7.46S54.26.22,50.75.23,44,5.43,44,9.53,46.88,17,50.4,16.93Z"></path>
          <path class="cls-2" d="M45.56,14.26a8.11,8.11,0,0,1-1.38-5.4,11.53,11.53,0,0,1,2-5.27c1-1.52,2.57-2.95,4.4-3.09s3.37,1.38,4.26,3a12.85,12.85,0,0,1,1.6,5.34,8.06,8.06,0,0,1-1.26,5.36,5.6,5.6,0,0,1-9.57.1Zm9.83.08A8.45,8.45,0,0,0,57,8.76a13.32,13.32,0,0,0-1.69-5.6C54.34,1.51,52.66-.17,50.5,0s-3.63,1.78-4.7,3.36a11.88,11.88,0,0,0-1.93,5.46,8.39,8.39,0,0,0,1.59,5.51,6,6,0,0,0,9.93,0Z"></path>
        </g>
        <g>
          <path class="cls-1" d="M38.59,13.21c-1.94-2.07-5.48-1.91-7.9.36s-4.12,6.55-2.17,8.62,6.8,1.15,9.21-1.12S40.54,15.28,38.59,13.21Z"></path>
          <path class="cls-2" d="M39.67,17.54a6.53,6.53,0,0,1-2.43,3.79A9.25,9.25,0,0,1,33,23.08a5.16,5.16,0,0,1-4.24-.91c-1.11-1-1-2.75-.6-4.14a10.45,10.45,0,0,1,2.28-3.9,6.54,6.54,0,0,1,3.87-2.19,4.84,4.84,0,0,1,4.22,1.29A4.86,4.86,0,0,1,39.67,17.54Zm-5.36-5.86a6.86,6.86,0,0,0-4.19,2.12,10.67,10.67,0,0,0-2.38,4.09c-.44,1.47-.51,3.4.79,4.57a5.48,5.48,0,0,0,4.56.93,9.54,9.54,0,0,0,4.3-1.86,6.71,6.71,0,0,0,2.38-4,5,5,0,0,0-1.16-4.37A5,5,0,0,0,34.31,11.68Z"></path>
        </g>
        <g>
          <path class="cls-1" d="M52.77,24.3c-.8-3.23-4.63-5.36-8.55-4.77s-8.32,3.54-7.52,6.76,6.47,5.5,10.4,4.91S53.57,27.52,52.77,24.3Z"></path>
          <path class="cls-2" d="M51.28,29.1a7.48,7.48,0,0,1-4.87,2,12.36,12.36,0,0,1-5.47-1.05c-1.69-.76-3.4-1.95-3.94-3.61s.57-3.28,1.89-4.32a11.72,11.72,0,0,1,4.76-2.22,8.49,8.49,0,0,1,5.41.42,6.35,6.35,0,0,1,3.68,4A5.1,5.1,0,0,1,51.28,29.1Zm-2.1-9a9,9,0,0,0-5.7-.7,12.24,12.24,0,0,0-5,2.33c-1.35,1.12-2.59,2.9-1.94,4.85s2.51,3.09,4.26,3.85a12.77,12.77,0,0,0,5.66,1,7.68,7.68,0,0,0,4.92-2.22,5.21,5.21,0,0,0,1.42-4.9A6.49,6.49,0,0,0,49.18,20.07Z"></path>
        </g>
        <g>
          <path class="cls-1" d="M52.61,24.39c-.8-3.23-4.63-5.36-8.56-4.77s-8.31,3.54-7.51,6.76,6.47,5.5,10.4,4.91S53.4,27.61,52.61,24.39Z"></path>
          <path class="cls-2" d="M51.12,29.2a7.52,7.52,0,0,1-4.87,2,12.43,12.43,0,0,1-5.48-1.05c-1.68-.76-3.39-1.95-3.93-3.61s.57-3.28,1.89-4.32A11.72,11.72,0,0,1,43.49,20a8.49,8.49,0,0,1,5.41.42,6.35,6.35,0,0,1,3.68,4A5.13,5.13,0,0,1,51.12,29.2Zm-2.1-9a9,9,0,0,0-5.7-.7,12.24,12.24,0,0,0-5,2.33c-1.36,1.12-2.6,2.9-1.94,4.85s2.5,3.09,4.25,3.85a12.67,12.67,0,0,0,5.67,1,7.7,7.7,0,0,0,4.92-2.22,5.21,5.21,0,0,0,1.42-4.9A6.52,6.52,0,0,0,49,20.16Z"></path>
        </g>
        <g>
          <path class="cls-1" d="M36.2,27.17c.43-3.49-2.53-6.72-6.6-7.22s-9.49,1.28-9.92,4.77,4.3,7.37,8.38,7.87S35.78,30.66,36.2,27.17Z"></path>
          <path class="cls-2" d="M32.94,31.63a8,8,0,0,1-5.53.69,11.43,11.43,0,0,1-5-2.6c-1.37-1.23-2.6-2.91-2.51-4.75s1.79-3.17,3.47-3.85a12.64,12.64,0,0,1,5.5-.92A8,8,0,0,1,34,22.13a6,6,0,0,1,2.13,5A6.06,6.06,0,0,1,32.94,31.63Zm1.32-9.74a8.51,8.51,0,0,0-5.33-2.3,13.45,13.45,0,0,0-5.78,1c-1.75.76-3.63,2.22-3.72,4.38s1.31,3.82,2.74,5.08a11.83,11.83,0,0,0,5.18,2.6A8.3,8.3,0,0,0,33,31.74a6,6,0,0,0,1.25-9.85Z"></path>
        </g>
        <g>
          <path class="cls-1" d="M58.68,20.12c3-.92,4.56-4.5,3.49-8s-4.48-7.27-7.48-6.35-4.45,6.17-3.38,9.67S55.68,21,58.68,20.12Z"></path>
          <path class="cls-2" d="M53.86,19.08a7.3,7.3,0,0,1-2.57-4.27,10.22,10.22,0,0,1,.32-5,5.69,5.69,0,0,1,3-3.77c1.55-.59,3.23.31,4.39,1.44a11.3,11.3,0,0,1,2.75,4.15,7.24,7.24,0,0,1,.29,4.9,5.37,5.37,0,0,1-3.34,3.56A5.41,5.41,0,0,1,53.86,19.08Zm8.42-2.46a7.62,7.62,0,0,0-.05-5.18,12.06,12.06,0,0,0-2.89-4.36c-1.25-1.15-3.12-2.16-4.92-1.45A6.11,6.11,0,0,0,51.27,9.7,10.54,10.54,0,0,0,51,14.87a7.41,7.41,0,0,0,2.76,4.3,5.37,5.37,0,0,0,8.49-2.55Z"></path>
        </g>
        <g>
          <path class="cls-1" d="M74.75,23.89c2.08-2.83,1.07-7.1-2.24-9.52s-8.9-3.52-11-.69.15,8.54,3.46,11S72.67,26.73,74.75,23.89Z"></path>
          <path class="cls-2" d="M69.73,26.19a8.1,8.1,0,0,1-5.17-2.1,11.57,11.57,0,0,1-3.08-4.7c-.59-1.75-.84-3.82.14-5.37s3.11-1.89,4.91-1.67a12.73,12.73,0,0,1,5.25,1.89,8.05,8.05,0,0,1,3.55,4.2,6,6,0,0,1-.6,5.44A6.09,6.09,0,0,1,69.73,26.19Zm5.91-7.85a8.53,8.53,0,0,0-3.53-4.61,13.43,13.43,0,0,0-5.52-2c-1.89-.2-4.25.16-5.38,2s-.73,4-.1,5.77a11.82,11.82,0,0,0,3.25,4.8,8.25,8.25,0,0,0,5.37,2,6,6,0,0,0,5.91-8Z"></path>
        </g>
        <g>
          <path class="cls-1" d="M73.32,30.19c2.08-2.83,1.07-7.1-2.24-9.52s-8.9-3.52-11-.69.15,8.54,3.46,11S71.24,33,73.32,30.19Z"></path>
          <path class="cls-2" d="M68.3,32.49a8.1,8.1,0,0,1-5.17-2.1,11.57,11.57,0,0,1-3.08-4.7c-.59-1.75-.84-3.82.14-5.37s3.11-1.89,4.91-1.67a12.73,12.73,0,0,1,5.25,1.89,8.05,8.05,0,0,1,3.55,4.2,6,6,0,0,1-.6,5.44A6.09,6.09,0,0,1,68.3,32.49Zm5.91-7.85A8.53,8.53,0,0,0,70.68,20a13.43,13.43,0,0,0-5.52-2c-1.89-.2-4.25.16-5.38,2s-.73,4-.1,5.77a11.82,11.82,0,0,0,3.25,4.8,8.25,8.25,0,0,0,5.37,2,6,6,0,0,0,5.91-8Z"></path>
        </g>
        <g>
          <path class="cls-1" d="M80.06,31.34c2.12-2.8,1.19-7.08-2.08-9.55s-8.85-3.66-11-.86,0,8.53,3.29,11S77.94,34.15,80.06,31.34Z"></path>
          <path class="cls-2" d="M75,33.56a8.06,8.06,0,0,1-5.14-2.18,11.53,11.53,0,0,1-3-4.75c-.57-1.75-.78-3.83.22-5.37s3.14-1.84,4.94-1.58a12.68,12.68,0,0,1,5.22,2,8,8,0,0,1,3.48,4.25A6,6,0,0,1,80,31.33,6.05,6.05,0,0,1,75,33.56Zm6-7.75a8.49,8.49,0,0,0-3.46-4.67,13.34,13.34,0,0,0-5.48-2.06c-1.89-.23-4.25.09-5.42,1.91s-.79,4-.18,5.77a11.74,11.74,0,0,0,3.17,4.85A8.26,8.26,0,0,0,75,33.69a6,6,0,0,0,6-7.88Z"></path>
        </g>
        <g>
          <path class="cls-1" d="M61.64,26.77c2-1.89,1.93-5.37-.28-7.76S55,14.9,52.91,16.79s-1.19,6.66,1,9.06S59.59,28.66,61.64,26.77Z"></path>
          <path class="cls-2" d="M57.37,27.79a6.49,6.49,0,0,1-3.7-2.43A9.17,9.17,0,0,1,52,21.22a5.06,5.06,0,0,1,.93-4.16c1-1.08,2.71-1,4.08-.54a10,10,0,0,1,3.8,2.27,6.42,6.42,0,0,1,2.12,3.82,4.78,4.78,0,0,1-1.31,4.14A4.84,4.84,0,0,1,57.37,27.79Zm5.81-5.21a6.76,6.76,0,0,0-2-4.14,10.54,10.54,0,0,0-4-2.38c-1.44-.45-3.33-.53-4.5.73a5.38,5.38,0,0,0-1,4.48,9.46,9.46,0,0,0,1.79,4.24,6.59,6.59,0,0,0,3.87,2.37,4.84,4.84,0,0,0,4.3-1.1A4.9,4.9,0,0,0,63.18,22.58Z"></path>
        </g>
        <g>
          <path class="cls-1" d="M52.64,27.15c2.9-.91,4.4-4.39,3.35-7.78s-4.39-7-7.29-6.13-4.29,6-3.24,9.4S49.73,28.05,52.64,27.15Z"></path>
          <path class="cls-2" d="M48,26.16A7,7,0,0,1,45.44,22a10,10,0,0,1,.28-4.86,5.56,5.56,0,0,1,2.86-3.67c1.51-.58,3.14.29,4.28,1.37a11,11,0,0,1,2.68,4,6.94,6.94,0,0,1,.31,4.75A4.84,4.84,0,0,1,48,26.16Zm8.16-2.42a7.37,7.37,0,0,0-.09-5,11.45,11.45,0,0,0-2.82-4.21c-1.21-1.12-3-2.08-4.78-1.38a5.89,5.89,0,0,0-3,4,10.41,10.41,0,0,0-.21,5,7.23,7.23,0,0,0,2.71,4.15,5.31,5.31,0,0,0,4.75.92A5.38,5.38,0,0,0,56.12,23.74Z"></path>
        </g>
        <g>
          <path class="cls-1" d="M92.61,29.91c-.37-2.31-4-3.88-8-3.5s-9,2.44-8.59,4.76,5.84,4,9.92,3.63S93,32.23,92.61,29.91Z"></path>
          <path class="cls-2" d="M90.43,33.34a11,11,0,0,1-5.23,1.4,16.09,16.09,0,0,1-5.43-.82c-1.62-.56-3.19-1.43-3.51-2.63s1-2.34,2.52-3.07a17,17,0,0,1,5.15-1.54,11.74,11.74,0,0,1,5.45.36c1.65.55,3,1.6,3.2,2.88S91.87,32.48,90.43,33.34Zm-.89-6.49a12.07,12.07,0,0,0-5.71-.56,17.74,17.74,0,0,0-5.41,1.61c-1.53.79-3,2.05-2.64,3.46s2.12,2.23,3.8,2.8a16.79,16.79,0,0,0,5.63.78,11.09,11.09,0,0,0,5.31-1.54c1.44-.88,2.34-2.2,2.12-3.49S91.23,27.47,89.54,26.85Z"></path>
        </g>
        <g>
          <path class="cls-1" d="M65.79,34.24c.78-2.08-1.69-5.23-5.52-7s-9.19-2.67-10-.59,3.3,6.29,7.13,8.11S65,36.32,65.79,34.24Z"></path>
          <path class="cls-2" d="M62.19,35.9a12.36,12.36,0,0,1-5.36-1.59,18.18,18.18,0,0,1-4.47-3.49c-1.17-1.29-2.16-2.82-1.87-4s2-1.37,3.73-1.19a18.68,18.68,0,0,1,5.35,1.43,13,13,0,0,1,4.71,3.12c1.21,1.31,1.87,2.85,1.48,4S63.88,35.94,62.19,35.9Zm2.32-5.75a13.62,13.62,0,0,0-4.83-3.43,20.33,20.33,0,0,0-5.62-1.5c-1.76-.16-3.71.09-4,1.44s.82,2.92,2,4.26a18.79,18.79,0,0,0,4.66,3.56A12.36,12.36,0,0,0,62.24,36c1.71,0,3.15-.57,3.57-1.74S65.72,31.53,64.51,30.15Z"></path>
        </g>
        <g>
          <path class="cls-1" d="M56.7,31.8c-.37-2.32-4-3.89-8.05-3.51s-9,2.45-8.59,4.77,5.83,4,9.91,3.62S57.06,34.12,56.7,31.8Z"></path>
          <path class="cls-2" d="M54.52,35.23a11.06,11.06,0,0,1-5.23,1.39,15.7,15.7,0,0,1-5.44-.82c-1.61-.55-3.19-1.43-3.51-2.62s1-2.35,2.52-3.07A17.12,17.12,0,0,1,48,28.57a11.61,11.61,0,0,1,5.45.36c1.65.54,3,1.6,3.2,2.87S56,34.37,54.52,35.23Zm-.89-6.49a12.07,12.07,0,0,0-5.71-.57,18,18,0,0,0-5.41,1.62c-1.54.78-3,2.05-2.65,3.45S42,35.48,43.67,36a16.52,16.52,0,0,0,5.62.78,11.09,11.09,0,0,0,5.32-1.53c1.44-.89,2.34-2.21,2.12-3.49S55.31,29.36,53.63,28.74Z"></path>
        </g>
        <g>
          <path class="cls-1" d="M66.82,30.85c0,2,2.3,3.74,5.25,3.93s6.7-.94,6.75-2.92-3.61-4.07-6.56-4.26S66.87,28.86,66.82,30.85Z"></path>
          <path class="cls-2" d="M68.83,28.25a7,7,0,0,1,3.91-.52,10.16,10.16,0,0,1,3.75,1.36c1.08.67,2.08,1.59,2.14,2.63s-1,1.84-2.2,2.26a10.78,10.78,0,0,1-3.87.65,7.22,7.22,0,0,1-3.83-1,3.5,3.5,0,0,1-1.88-2.8A3.17,3.17,0,0,1,68.83,28.25Zm-.24,5.54a7.56,7.56,0,0,0,4,1.18,11.39,11.39,0,0,0,4.06-.68c1.2-.46,2.44-1.33,2.34-2.56s-1.2-2.13-2.32-2.81a10.42,10.42,0,0,0-3.9-1.36,7.07,7.07,0,0,0-4,.63,3.19,3.19,0,0,0-2,2.66A3.5,3.5,0,0,0,68.59,33.79Z"></path>
        </g>
        <g>
          <path class="cls-1" d="M96.42,35.14c0,2,2.3,3.74,5.26,3.93s6.69-.94,6.74-2.92-3.61-4.07-6.56-4.26S96.48,33.15,96.42,35.14Z"></path>
          <path class="cls-2" d="M98.43,32.54a7,7,0,0,1,3.91-.52,10,10,0,0,1,3.75,1.36c1.08.67,2.08,1.59,2.15,2.63s-1.06,1.84-2.21,2.26a10.78,10.78,0,0,1-3.87.65,7.22,7.22,0,0,1-3.83-1,3.5,3.5,0,0,1-1.88-2.8A3.17,3.17,0,0,1,98.43,32.54Zm-.24,5.54a7.56,7.56,0,0,0,4,1.18,11.39,11.39,0,0,0,4.06-.68c1.2-.46,2.44-1.33,2.35-2.56s-1.21-2.13-2.33-2.82a10.58,10.58,0,0,0-3.9-1.35,7,7,0,0,0-4,.63,3.19,3.19,0,0,0-2,2.66A3.53,3.53,0,0,0,98.19,38.08Z"></path>
        </g>
        <g>
          <path class="cls-1" d="M13.84,30.24c-.05,2,2.3,3.74,5.26,3.93s6.69-.94,6.74-2.92S22.23,27.18,19.28,27,13.9,28.25,13.84,30.24Z"></path>
          <path class="cls-2" d="M15.85,27.64a7,7,0,0,1,3.91-.52,10,10,0,0,1,3.75,1.36c1.08.67,2.08,1.59,2.15,2.63S24.6,33,23.45,33.37a10.78,10.78,0,0,1-3.87.65,7.22,7.22,0,0,1-3.83-1,3.5,3.5,0,0,1-1.88-2.8A3.17,3.17,0,0,1,15.85,27.64Zm-.24,5.54a7.56,7.56,0,0,0,4,1.18,11.39,11.39,0,0,0,4.06-.68c1.2-.46,2.44-1.34,2.35-2.56S24.8,29,23.68,28.3A10.58,10.58,0,0,0,19.78,27a7,7,0,0,0-4,.63,3.19,3.19,0,0,0-2,2.66A3.53,3.53,0,0,0,15.61,33.18Z"></path>
        </g>
        <g>
          <path class="cls-1" d="M13.84,41.82c-.05,2,2.3,3.74,5.26,3.93s6.69-.94,6.74-2.92-3.61-4.07-6.56-4.26S13.9,39.83,13.84,41.82Z"></path>
          <path class="cls-2" d="M15.85,39.22a7.05,7.05,0,0,1,3.91-.52,10.16,10.16,0,0,1,3.75,1.36c1.08.67,2.08,1.59,2.15,2.63S24.6,44.53,23.45,45a10.78,10.78,0,0,1-3.87.65,7.22,7.22,0,0,1-3.83-1,3.5,3.5,0,0,1-1.88-2.8A3.17,3.17,0,0,1,15.85,39.22Zm-.24,5.54a7.56,7.56,0,0,0,4,1.18,11.39,11.39,0,0,0,4.06-.68c1.2-.46,2.44-1.33,2.35-2.56s-1.21-2.13-2.33-2.81a10.42,10.42,0,0,0-3.9-1.36,7.07,7.07,0,0,0-4,.63,3.19,3.19,0,0,0-2,2.66A3.53,3.53,0,0,0,15.61,44.76Z"></path>
        </g>
        <g>
          <path class="cls-1" d="M22.39,32.44c.09,1.87,2.7,3.41,5.83,3.43s7-1.23,6.91-3.1S31,29.12,27.89,29.1,22.3,30.57,22.39,32.44Z"></path>
          <path class="cls-2" d="M24.32,29.89a8.14,8.14,0,0,1,4.09-.69,12,12,0,0,1,4.06,1.08c1.18.58,2.31,1.39,2.45,2.37s-1,1.78-2.16,2.24a12.62,12.62,0,0,1-4,.81A8.49,8.49,0,0,1,24.61,35a3.44,3.44,0,0,1-2.2-2.54A2.94,2.94,0,0,1,24.32,29.89Zm.15,5.23a8.9,8.9,0,0,0,4.29.91A13.27,13.27,0,0,0,33,35.17c1.23-.5,2.48-1.38,2.29-2.53s-1.43-1.95-2.66-2.53A12.2,12.2,0,0,0,28.42,29a8.21,8.21,0,0,0-4.16.8,3,3,0,0,0-1.9,2.6A3.4,3.4,0,0,0,24.47,35.12Z"></path>
        </g>
        <g>
          <path class="cls-1" d="M0,34.89c.09,1.87,2.7,3.41,5.83,3.43s7-1.23,6.91-3.1-4.11-3.65-7.24-3.67S-.06,33,0,34.89Z"></path>
          <path class="cls-2" d="M2,32.34a8.14,8.14,0,0,1,4.09-.69,11.55,11.55,0,0,1,4.06,1.08c1.18.57,2.31,1.39,2.45,2.37s-1,1.78-2.16,2.24a12.62,12.62,0,0,1-4,.81,8.51,8.51,0,0,1-4.11-.72,3.45,3.45,0,0,1-2.2-2.54A2.94,2.94,0,0,1,2,32.34Zm.15,5.23a8.9,8.9,0,0,0,4.29.9,13,13,0,0,0,4.24-.85c1.23-.5,2.48-1.39,2.29-2.54s-1.43-1.94-2.66-2.52a12,12,0,0,0-4.21-1.07,8.11,8.11,0,0,0-4.16.79A3,3,0,0,0,0,34.89,3.4,3.4,0,0,0,2.11,37.57Z"></path>
        </g>
        <g>
          <path class="cls-1" d="M32.82,34.11c1.34,1.91,4.53,2,7.14.31s5-5.24,3.63-7.15-5.85-1.51-8.46.22S31.49,32.19,32.82,34.11Z"></path>
          <path class="cls-2" d="M32.71,30.34a6.78,6.78,0,0,1,2.92-3,9.78,9.78,0,0,1,4.09-1.15,4.41,4.41,0,0,1,3.62,1.1c.79,1,.39,2.42-.28,3.57A10.83,10.83,0,0,1,40.26,34a7,7,0,0,1-3.89,1.56,4,4,0,0,1-3.53-1.43A3.81,3.81,0,0,1,32.71,30.34Zm3.64,5.4a7.23,7.23,0,0,0,4.16-1.47A11.19,11.19,0,0,0,43.45,31c.68-1.22,1.12-2.85.19-3.95s-2.5-1.23-3.91-1.15a10,10,0,0,0-4.2,1.24,7,7,0,0,0-2.91,3.18,3.9,3.9,0,0,0,.18,3.81A4.08,4.08,0,0,0,36.35,35.74Z"></path>
        </g>
        <g>
          <path class="cls-1" d="M37.69,14.06c-.1,2.35,2.76,4.63,6.39,5.09s8.28-.6,8.39-2.95-4.36-5.13-8-5.59S37.8,11.7,37.69,14.06Z"></path>
          <path class="cls-2" d="M40.23,11.12a8.81,8.81,0,0,1,4.83-.31,13.23,13.23,0,0,1,4.6,1.91c1.31.88,2.52,2.06,2.58,3.3s-1.34,2.1-2.77,2.51a13.51,13.51,0,0,1-4.79.47A9.52,9.52,0,0,1,40,17.54a4.4,4.4,0,0,1-2.27-3.48A3.59,3.59,0,0,1,40.23,11.12Zm-.42,6.58a10,10,0,0,0,4.89,1.71,14.34,14.34,0,0,0,5-.49c1.49-.46,3-1.4,3-2.87s-1.44-2.63-2.8-3.52a13.65,13.65,0,0,0-4.78-1.92,8.78,8.78,0,0,0-4.92.44,3.59,3.59,0,0,0-2.5,3A4.38,4.38,0,0,0,39.81,17.7Z"></path>
        </g>
      </g>
    </g>
  </g>
</svg>
