<?xml version="1.0" encoding="UTF-8"?>
<svg xmlns="http://www.w3.org/2000/svg" viewBox="0 0 106.81 108.32">
  <defs>
    <style>
      .cls-1 {
        fill: #a5a5a5;
      }

      .cls-2 {
        fill: #a29274;
      }

      .cls-3 {
        fill: #bda885;
      }

      .cls-4 {
        fill: #8f8267;
      }

      .cls-5 {
        fill: #ab967a;
        opacity: 0.25;
      }

      .cls-6 {
        fill: #9b8d71;
      }

      .cls-7 {
        fill: #7c705b;
      }

      .cls-8 {
        fill: #e3e0c9;
      }

      .cls-9 {
        fill: #fcedce;
      }

      .cls-10 {
        fill: #d0c5a6;
      }

      .cls-11 {
        fill: #817870;
      }
    </style>
  </defs>
  <g id="Слой_2" data-name="Слой 2">
    <g id="Слой_10" data-name="Слой 10">
      <g>
        <g>
          <polygon class="cls-1" points="92.25 95 92.31 94.9 92.22 94.9 92.25 95"></polygon>
          <polygon class="cls-2" points="53.48 38.05 106.81 15.35 98.81 76.75 53.48 108.32 53.48 38.05"></polygon>
          <polygon class="cls-3" points="8 76.75 0 15.35 53.48 38.05 53.48 108.32 8 76.75"></polygon>
          <polygon class="cls-4" points="53.48 38.05 106.81 15.35 98.81 76.75 53.48 108.32 53.48 38.05"></polygon>
          <polygon class="cls-5" points="8 76.75 0 15.35 53.48 38.05 53.48 108.32 8 76.75"></polygon>
          <polygon class="cls-6" points="53.48 108.32 8 76.75 53.69 59.49 98.81 76.75 53.48 108.32"></polygon>
          <path class="cls-7" d="M17.66,49.76a16.43,16.43,0,0,1-1.38-8.91,14.14,14.14,0,0,1,3.95-8.24,19.57,19.57,0,0,1,7.85-4.67A33.44,33.44,0,0,1,37,26.35c-.73.16-1.47.32-2.2.46s-1.45.37-2.17.55-1.43.41-2.15.61-1.4.49-2.09.76A21.22,21.22,0,0,0,21,33.37,14.48,14.48,0,0,0,17.11,41a17.41,17.41,0,0,0-.23,4.39A16.87,16.87,0,0,0,17.66,49.76Z"></path>
          <path class="cls-7" d="M67.36,48.91c.14.23.44.31.68.43s.5.22.76.31c.51.2,1,.38,1.55.54,1,.35,2.1.65,3.15,1,2.12.57,4.25,1.09,6.39,1.51,4.3.88,8.64,1.45,13,2a48.36,48.36,0,0,1-13.25-.89A48.91,48.91,0,0,1,73.25,52c-1-.37-2.08-.8-3.09-1.26-.51-.25-1-.5-1.49-.77A3.63,3.63,0,0,1,67.36,48.91Z"></path>
          <path class="cls-7" d="M38.71,45.71a39.08,39.08,0,0,1-3.53,11.78A33.84,33.84,0,0,1,32,62.8a20.25,20.25,0,0,1-4.43,4.29,36.25,36.25,0,0,0,3.74-4.78A55.49,55.49,0,0,0,34.19,57c.89-1.82,1.66-3.68,2.42-5.57S38.06,47.65,38.71,45.71Z"></path>
          <path class="cls-7" d="M55.25,94.58c2.18-1.07,4.43-1.91,6.63-2.87s4.37-1.92,6.48-3a42,42,0,0,0,6-3.76,17.16,17.16,0,0,0,4.75-5.24,13.82,13.82,0,0,1-4.21,5.9,31.5,31.5,0,0,1-6.06,4.07,53.55,53.55,0,0,1-6.68,2.84c-1.14.41-2.3.77-3.45,1.11Z"></path>
          <path class="cls-7" d="M30.24,87.84a15.54,15.54,0,0,1-3.46-2.19,8.47,8.47,0,0,1-2.5-3.37,4.77,4.77,0,0,1-.3-2.19A5.37,5.37,0,0,1,24.64,78a10.05,10.05,0,0,1,2.89-3.12,28.24,28.24,0,0,1,7.38-3.66,55.61,55.61,0,0,1,7.9-2.06c-2.56.92-5.11,1.83-7.6,2.85a33.8,33.8,0,0,0-7,3.75,9.29,9.29,0,0,0-2.64,2.74A4.3,4.3,0,0,0,25.09,82a8.24,8.24,0,0,0,2.06,3.25A18.32,18.32,0,0,0,30.24,87.84Z"></path>
          <path class="cls-7" d="M79.14,47.67l4-5.47c1.3-1.82,2.58-3.67,3.79-5.55a57.45,57.45,0,0,0,3.35-5.78,19,19,0,0,0,2.1-6.32A14.42,14.42,0,0,1,91,31.22a36.56,36.56,0,0,1-3.21,6A56.47,56.47,0,0,1,79.14,47.67Z"></path>
          <polygon class="cls-1" points="51.53 72.84 51.58 72.75 51.49 72.74 51.53 72.84"></polygon>
        </g>
        <g>
          <polygon class="cls-8" points="53.48 0 106.81 15.35 53.48 38.05 0 15.35 53.48 0"></polygon>
          <polygon class="cls-9" points="53.48 0 0 15.35 0.94 15.75 106.31 15.21 53.48 0"></polygon>
          <path class="cls-10" d="M33.61,16.1a30.52,30.52,0,0,1,2.53-2.69,23.32,23.32,0,0,1,2.94-2.28,29.57,29.57,0,0,1,6.69-3.25A34.83,34.83,0,0,1,53,6.36c1.22-.16,2.47-.13,3.69-.19s2.47.11,3.69.21c-1.23.15-2.45.19-3.66.32s-2.42.27-3.61.5-2.39.4-3.55.73-2.33.64-3.49,1a37.33,37.33,0,0,0-6.59,2.94A36.74,36.74,0,0,0,33.61,16.1Z"></path>
          <g>
            <polygon class="cls-9" points="0.94 15.75 53.48 38.05 106.81 15.35 106.31 15.21 0.94 15.75"></polygon>
            <ellipse class="cls-2" cx="55.17" cy="16.42" rx="12.32" ry="4.82"></ellipse>
            <ellipse class="cls-11" cx="55.48" cy="18.04" rx="10.15" ry="3.97"></ellipse>
          </g>
        </g>
      </g>
    </g>
  </g>
</svg>
