<?xml version="1.0" encoding="UTF-8"?>
<svg xmlns="http://www.w3.org/2000/svg" viewBox="0 0 106.81 110.31">
  <defs>
    <style>
      .cls-1 {
        fill: #a5a5a5;
      }

      .cls-2 {
        fill: #a29274;
      }

      .cls-3 {
        fill: #bda885;
      }

      .cls-4 {
        fill: #8f8267;
      }

      .cls-5 {
        fill: #ab967a;
        opacity: 0.25;
      }

      .cls-6 {
        fill: #9b8d71;
      }

      .cls-7 {
        fill: #7c705b;
      }

      .cls-8 {
        fill: #cacac9;
      }

      .cls-9 {
        fill: #e3e0c9;
      }

      .cls-10 {
        fill: #fcedce;
      }

      .cls-11 {
        fill: #d0c5a6;
      }

      .cls-12 {
        fill: #817870;
      }

      .cls-13 {
        fill: #769b57;
      }
    </style>
  </defs>
  <g id="Слой_2" data-name="Слой 2">
    <g id="Слой_10" data-name="Слой 10">
      <g>
        <g>
          <polygon class="cls-1" points="92.25 96.98 92.31 96.89 92.22 96.88 92.25 96.98"></polygon>
          <polygon class="cls-2" points="53.48 40.04 106.81 17.34 98.81 78.74 53.48 110.31 53.48 40.04"></polygon>
          <polygon class="cls-3" points="8 78.74 0 17.34 53.48 40.04 53.48 110.31 8 78.74"></polygon>
          <polygon class="cls-4" points="53.48 40.04 106.81 17.34 98.81 78.74 53.48 110.31 53.48 40.04"></polygon>
          <polygon class="cls-5" points="8 78.74 0 17.34 53.48 40.04 53.48 110.31 8 78.74"></polygon>
          <polygon class="cls-6" points="53.48 110.31 8 78.74 53.69 61.48 98.81 78.74 53.48 110.31"></polygon>
          <path class="cls-7" d="M17.66,51.74a16.38,16.38,0,0,1-1.38-8.9,14.14,14.14,0,0,1,3.95-8.24,19.46,19.46,0,0,1,7.85-4.67A33,33,0,0,1,37,28.34c-.73.16-1.47.32-2.2.46s-1.45.37-2.17.55-1.43.41-2.15.61-1.4.49-2.09.76A21.22,21.22,0,0,0,21,35.36,14.48,14.48,0,0,0,17.11,43a17.41,17.41,0,0,0-.23,4.39A16.8,16.8,0,0,0,17.66,51.74Z"></path>
          <path class="cls-7" d="M67.36,50.9c.14.23.44.31.68.43l.76.31c.51.2,1,.37,1.55.54,1,.34,2.1.65,3.15.94q3.18.87,6.39,1.52c4.3.88,8.64,1.44,13,2a47.94,47.94,0,0,1-13.25-.88,49,49,0,0,1-6.43-1.78q-1.57-.55-3.09-1.26c-.51-.24-1-.49-1.49-.77A3.61,3.61,0,0,1,67.36,50.9Z"></path>
          <path class="cls-7" d="M38.71,47.7a39.08,39.08,0,0,1-3.53,11.78A33.84,33.84,0,0,1,32,64.79a20.25,20.25,0,0,1-4.43,4.29,36.92,36.92,0,0,0,3.74-4.78A56.73,56.73,0,0,0,34.19,59c.88-1.82,1.66-3.69,2.42-5.57S38.06,49.64,38.71,47.7Z"></path>
          <path class="cls-7" d="M55.25,96.57c2.18-1.07,4.43-1.92,6.63-2.87s4.37-1.92,6.48-3a41.33,41.33,0,0,0,6-3.76,17.07,17.07,0,0,0,4.76-5.24,13.79,13.79,0,0,1-4.21,5.89,31.55,31.55,0,0,1-6.06,4.08,53.55,53.55,0,0,1-6.68,2.84c-1.14.41-2.3.77-3.45,1.11Z"></path>
          <path class="cls-7" d="M30.24,89.83a15.54,15.54,0,0,1-3.46-2.19,8.47,8.47,0,0,1-2.5-3.37,4.79,4.79,0,0,1-.3-2.19A5.32,5.32,0,0,1,24.64,80a9.94,9.94,0,0,1,2.89-3.12,28.59,28.59,0,0,1,7.38-3.67,58.43,58.43,0,0,1,7.9-2.06c-2.56.93-5.11,1.84-7.6,2.86a33.8,33.8,0,0,0-7,3.75,9.29,9.29,0,0,0-2.64,2.74A4.3,4.3,0,0,0,25.09,84a8.24,8.24,0,0,0,2.06,3.25A18.32,18.32,0,0,0,30.24,89.83Z"></path>
          <path class="cls-7" d="M79.14,49.66l4-5.47c1.3-1.83,2.58-3.67,3.79-5.55a57.45,57.45,0,0,0,3.35-5.78,19,19,0,0,0,2.1-6.32A14.42,14.42,0,0,1,91,33.21a36.56,36.56,0,0,1-3.21,6A56.47,56.47,0,0,1,79.14,49.66Z"></path>
          <polygon class="cls-1" points="51.53 74.83 51.58 74.74 51.49 74.73 51.53 74.83"></polygon>
        </g>
        <g>
          <path class="cls-8" d="M51.39,29.45a30.67,30.67,0,0,0,1,12.53,1.65,1.65,0,1,0,3.18-.88,28.47,28.47,0,0,1-.84-11.65c.12-.88-.84-1.65-1.65-1.65a1.7,1.7,0,0,0-1.65,1.65Z"></path>
          <path class="cls-8" d="M53.94,30.85A112.31,112.31,0,0,1,54.47,43c-.11,3.83-.46,8-2.24,11.43-.33.63.62,1.19,1,.56,1.8-3.5,2.23-7.63,2.37-11.5A109.13,109.13,0,0,0,55,30.85c-.06-.7-1.16-.7-1.1,0Z"></path>
        </g>
        <g>
          <polygon class="cls-9" points="53.48 1.99 106.81 17.34 53.48 40.04 0 17.34 53.48 1.99"></polygon>
          <polygon class="cls-10" points="53.48 1.99 0 17.34 0.94 17.74 106.31 17.2 53.48 1.99"></polygon>
          <path class="cls-11" d="M33.61,18.09a30.52,30.52,0,0,1,2.53-2.69,22.43,22.43,0,0,1,2.94-2.28,29.57,29.57,0,0,1,6.69-3.25A34.2,34.2,0,0,1,53,8.35c1.22-.17,2.47-.14,3.69-.19s2.47.11,3.69.21c-1.23.14-2.45.19-3.66.32s-2.42.27-3.61.5-2.39.4-3.55.73-2.33.63-3.49,1a38.85,38.85,0,0,0-6.59,2.94A36.8,36.8,0,0,0,33.61,18.09Z"></path>
          <g>
            <polygon class="cls-10" points="0.94 17.74 53.48 40.04 106.81 17.34 106.31 17.2 0.94 17.74"></polygon>
            <ellipse class="cls-2" cx="55.17" cy="18.41" rx="12.32" ry="4.82"></ellipse>
            <ellipse class="cls-12" cx="55.48" cy="20.03" rx="10.15" ry="3.97"></ellipse>
          </g>
        </g>
        <g>
          <path class="cls-13" d="M55.33,18.73C54.28,19,58.79,2.67,66,0,66,0,67.52,15.87,55.33,18.73Z"></path>
          <path class="cls-13" d="M55.62,18.48s-4.09-12.72-16-15.27C39.62,3.21,39.51,15.68,55.62,18.48Z"></path>
        </g>
      </g>
    </g>
  </g>
</svg>
