<?xml version="1.0" encoding="UTF-8"?>
<svg xmlns="http://www.w3.org/2000/svg" viewBox="0 0 106.81 137.36">
  <defs>
    <style>
      .cls-1 {
        fill: #a5a5a5;
      }

      .cls-2 {
        fill: #a29274;
      }

      .cls-3 {
        fill: #bda885;
      }

      .cls-4 {
        fill: #8f8267;
      }

      .cls-5 {
        fill: #ab967a;
        opacity: 0.25;
      }

      .cls-6 {
        fill: #9b8d71;
      }

      .cls-7 {
        fill: #7c705b;
      }

      .cls-8 {
        fill: #cacac9;
      }

      .cls-9 {
        fill: #e3e0c9;
      }

      .cls-10 {
        fill: #fcedce;
      }

      .cls-11 {
        fill: #d0c5a6;
      }

      .cls-12 {
        fill: #817870;
      }

      .cls-13 {
        fill: #769b57;
      }
    </style>
  </defs>
  <g id="Слой_2" data-name="Слой 2">
    <g id="Слой_10" data-name="Слой 10">
      <g>
        <g>
          <polygon class="cls-1" points="92.25 124.03 92.31 123.94 92.22 123.93 92.25 124.03"></polygon>
          <polygon class="cls-2" points="53.48 67.09 106.81 44.39 98.81 105.79 53.48 137.36 53.48 67.09"></polygon>
          <polygon class="cls-3" points="8 105.79 0 44.39 53.48 67.09 53.48 137.36 8 105.79"></polygon>
          <polygon class="cls-4" points="53.48 67.09 106.81 44.39 98.81 105.79 53.48 137.36 53.48 67.09"></polygon>
          <polygon class="cls-5" points="8 105.79 0 44.39 53.48 67.09 53.48 137.36 8 105.79"></polygon>
          <polygon class="cls-6" points="53.48 137.36 8 105.79 53.69 88.53 98.81 105.79 53.48 137.36"></polygon>
          <path class="cls-7" d="M17.66,78.79a16.38,16.38,0,0,1-1.38-8.9,14.14,14.14,0,0,1,3.95-8.24A19.46,19.46,0,0,1,28.08,57,33,33,0,0,1,37,55.39c-.73.16-1.47.32-2.2.46s-1.45.37-2.17.55-1.43.41-2.15.61-1.4.49-2.09.75A21.4,21.4,0,0,0,21,62.41,14.44,14.44,0,0,0,17.11,70a17.41,17.41,0,0,0-.23,4.39A16.8,16.8,0,0,0,17.66,78.79Z"></path>
          <path class="cls-7" d="M67.36,78c.14.23.44.3.68.43l.76.31c.51.2,1,.37,1.55.54,1,.34,2.1.65,3.15.94q3.18.87,6.39,1.52c4.3.88,8.64,1.44,13,2a48,48,0,0,1-13.25-.88A49,49,0,0,1,73.25,81q-1.57-.56-3.09-1.26c-.51-.24-1-.49-1.49-.77A3.61,3.61,0,0,1,67.36,78Z"></path>
          <path class="cls-7" d="M38.71,74.75a39.17,39.17,0,0,1-3.53,11.78A33.84,33.84,0,0,1,32,91.84a20.25,20.25,0,0,1-4.43,4.29,36.92,36.92,0,0,0,3.74-4.78,56.73,56.73,0,0,0,2.92-5.29c.89-1.82,1.66-3.69,2.42-5.57S38.06,76.69,38.71,74.75Z"></path>
          <path class="cls-7" d="M55.25,123.62c2.18-1.07,4.43-1.92,6.63-2.87s4.37-1.92,6.48-3a42,42,0,0,0,6-3.76,17.16,17.16,0,0,0,4.75-5.24,13.79,13.79,0,0,1-4.21,5.89,31.55,31.55,0,0,1-6.06,4.08,53.55,53.55,0,0,1-6.68,2.84c-1.14.41-2.3.77-3.45,1.11Z"></path>
          <path class="cls-7" d="M30.24,116.88a15.54,15.54,0,0,1-3.46-2.19,8.47,8.47,0,0,1-2.5-3.37,4.79,4.79,0,0,1-.3-2.19,5.32,5.32,0,0,1,.66-2.11,9.94,9.94,0,0,1,2.89-3.12,28.59,28.59,0,0,1,7.38-3.67,57,57,0,0,1,7.9-2.06c-2.56.93-5.11,1.84-7.6,2.86a33.8,33.8,0,0,0-7,3.75,9.29,9.29,0,0,0-2.64,2.74,4.3,4.3,0,0,0-.45,3.53,8.24,8.24,0,0,0,2.06,3.25A18.32,18.32,0,0,0,30.24,116.88Z"></path>
          <path class="cls-7" d="M79.14,76.71l4-5.47c1.3-1.83,2.58-3.67,3.79-5.55a57.45,57.45,0,0,0,3.35-5.78,19,19,0,0,0,2.1-6.32A14.42,14.42,0,0,1,91,60.26a36.56,36.56,0,0,1-3.21,6A56.8,56.8,0,0,1,79.14,76.71Z"></path>
          <polygon class="cls-1" points="51.53 101.88 51.58 101.79 51.49 101.78 51.53 101.88"></polygon>
        </g>
        <g>
          <path class="cls-8" d="M54.3,55.3C58.2,67.2,57,79.94,53.1,91.68c-.36,1.07,1.33,1.53,1.68.47,4-12,5.19-25.14,1.2-37.32-.35-1.06-2-.6-1.68.47Z"></path>
          <path class="cls-8" d="M56.12,65.92A62.12,62.12,0,0,1,52.48,75c-1.43,3-2.63,6.06-2.06,9.41.19,1.1,1.87.63,1.68-.46-.56-3.31,1.08-6.41,2.48-9.29a56.78,56.78,0,0,0,3.22-8.3c.33-1.07-1.35-1.53-1.68-.46Z"></path>
        </g>
        <g>
          <polygon class="cls-9" points="53.48 29.04 106.81 44.39 53.48 67.09 0 44.39 53.48 29.04"></polygon>
          <polygon class="cls-10" points="53.48 29.04 0 44.39 0.94 44.79 106.31 44.25 53.48 29.04"></polygon>
          <path class="cls-11" d="M33.61,45.14a30.52,30.52,0,0,1,2.53-2.69,22.43,22.43,0,0,1,2.94-2.28,29.57,29.57,0,0,1,6.69-3.25A34.2,34.2,0,0,1,53,35.4c1.22-.17,2.47-.14,3.69-.19s2.47.11,3.69.21c-1.23.14-2.45.19-3.66.32s-2.42.27-3.61.5-2.39.4-3.55.73-2.33.63-3.49,1a38.85,38.85,0,0,0-6.59,2.94A36.8,36.8,0,0,0,33.61,45.14Z"></path>
          <g>
            <polygon class="cls-10" points="0.94 44.79 53.48 67.09 106.81 44.39 106.31 44.25 0.94 44.79"></polygon>
            <ellipse class="cls-2" cx="55.17" cy="45.46" rx="12.32" ry="4.82"></ellipse>
            <ellipse class="cls-12" cx="55.48" cy="47.08" rx="10.15" ry="3.97"></ellipse>
          </g>
        </g>
        <g>
          <path class="cls-13" d="M54,29s6.56-2.53,3.37-12.63A6.23,6.23,0,0,1,54,17.85S52.46,3.24,47.66,0c0,0-3.57,14.14-1.39,19,0,0-4.88-.67-4.88.17V20S42.93,25.09,53,29.3Z"></path>
          <path class="cls-13" d="M54.31,38.53s3.33-5.62,9.14-4.94,15.65,5.47,16.92,8.33c0,0-5.81,0-7.83-1.26,0,0,.59,2.19-.09,2.86,0,0-9.26-4.29-11.53-4.38S54.31,38.53,54.31,38.53Z"></path>
          <path class="cls-13" d="M52.92,34.77s-.67-2.19-6.65,0-13.8,1.51-14.89,1.59-6.57,2.7-7.16,3.62A20.57,20.57,0,0,1,28,41.25c2.1.92,9,2.78,15.07-1.43s5.55-5.9,7.57-4.47,3,.34,3.28,4.8.43-3.36.43-3.36Z"></path>
          <path class="cls-13" d="M52.38,28.14a106.75,106.75,0,0,1,1.7,17.2.67.67,0,0,0,1.34,0,109,109,0,0,0-1.74-17.56c-.16-.85-1.45-.49-1.3.36Z"></path>
        </g>
      </g>
    </g>
  </g>
</svg>
