<?xml version="1.0" encoding="UTF-8"?>
<svg xmlns="http://www.w3.org/2000/svg" xmlns:xlink="http://www.w3.org/1999/xlink" viewBox="0 0 110.57 160.37">
  <defs>
    <style>
      .cls-1, .cls-13, .cls-16, .cls-17, .cls-18 {
        fill: none;
      }

      .cls-2 {
        fill: #8e6848;
      }

      .cls-3 {
        clip-path: url(#clip-path);
      }

      .cls-4 {
        fill: url(#Безымянный_градиент_2);
      }

      .cls-5 {
        fill: #713e21;
      }

      .cls-6 {
        fill: #3d271f;
      }

      .cls-7 {
        fill: #69391e;
      }

      .cls-8 {
        fill: #6b472f;
      }

      .cls-9 {
        fill: #5c3624;
      }

      .cls-10 {
        fill: #795135;
      }

      .cls-11 {
        fill: #9a734f;
      }

      .cls-12 {
        fill: #cacac9;
      }

      .cls-13 {
        stroke: #cacac9;
        stroke-linecap: round;
        stroke-linejoin: round;
        stroke-width: 0.92px;
      }

      .cls-14 {
        fill: #85563a;
      }

      .cls-15 {
        fill: #769b57;
      }

      .cls-16, .cls-17, .cls-18 {
        stroke: #79a05b;
        stroke-miterlimit: 10;
      }

      .cls-16 {
        stroke-width: 0.53px;
      }

      .cls-17 {
        stroke-width: 0.47px;
      }

      .cls-18 {
        stroke-width: 1.67px;
      }

      .cls-19 {
        fill: #6b482f;
      }
    </style>
    <clipPath id="clip-path">
      <polygon class="cls-1" points="7.92 131.69 57.88 155.21 104.11 131.8 56.05 111.44 7.92 131.69"></polygon>
    </clipPath>
    <linearGradient id="Безымянный_градиент_2" data-name="Безымянный градиент 2" x1="-770.85" y1="-647.87" x2="-768.05" y2="-647.87" gradientTransform="matrix(34.36, 0, 0, -34.36, 26479.39, -22125.08)" gradientUnits="userSpaceOnUse">
      <stop offset="0" stop-color="#9b714e"></stop>
      <stop offset="0.38" stop-color="#9b714e"></stop>
      <stop offset="0.89" stop-color="#764528"></stop>
      <stop offset="1" stop-color="#6e3c20"></stop>
    </linearGradient>
  </defs>
  <g id="Слой_2" data-name="Слой 2">
    <g id="Слой_10" data-name="Слой 10">
      <g>
        <g>
          <path class="cls-2" d="M57.88,89.05s9.63,11.3,17.06,11.77,32.81-7.57,32.81-7.57l2.56-26.43L57.88,48.33Z"></path>
          <path class="cls-2" d="M.19,65,5.42,99.42s18.58,2.79,21.83,1.86,18.12-6.5,22.3-6.5,8.33-5.73,8.33-5.73V48.33Z"></path>
          <g class="cls-3">
            <rect class="cls-4" x="31.58" y="84.13" width="48.87" height="98.4" transform="translate(-80.13 182.1) rotate(-86.92)"></rect>
          </g>
          <path class="cls-5" d="M7.92,131.69,5.42,99.42s23.69-.46,30.2-3.71,22.26-6.66,22.26-6.66l-1.83,22.39Z"></path>
          <path class="cls-6" d="M41.68,101.43a8.52,8.52,0,0,0-2.83-1.67v0s-3.78-1.13-5.85,1.41-1.7,5.29-.77,5.73a10.92,10.92,0,0,0,1.63.35l.1,0a28.09,28.09,0,0,0,3.5-.79,1.62,1.62,0,0,0,.61-.16c.17,0,.35-.09.65-.19,1.48-.46,1.66-.12,2.69-1a4,4,0,0,0,1.08-2.55l-.21-.5h0l0,0a1,1,0,0,0-.59-.5"></path>
          <path class="cls-6" d="M21.4,104.76a10.76,10.76,0,0,0-4,1.32v0s-4.3,2.7-3.59,6.84,3.66,6.14,4.88,5.61a13.86,13.86,0,0,0,1.71-1.29l0-.13c.92-1,1.6-3.16,2.21-4a2.27,2.27,0,0,0,.36-.72c.1-.2.21-.42.37-.79.81-1.81,1.28-1.71,1.29-3.46a5.08,5.08,0,0,0-1.54-3.2,3.4,3.4,0,0,0-.65-.23v0h-.07a1.26,1.26,0,0,0-1,.14"></path>
          <path class="cls-7" d="M57.88,89.05l-1.83,22.39,48.06,20.37,3.64-38.56s-15-1.72-21.48-.8S68.44,96.17,65,94.31a44.41,44.41,0,0,1-7.15-5.26"></path>
          <path class="cls-6" d="M39.58,112.06a3.29,3.29,0,0,0-1.25-.31h0a2.31,2.31,0,0,0-2,1.18c-.49,1.19,0,2.18.35,2.24l.65,0,0,0a10.59,10.59,0,0,0,1.23-.69l.21-.13.23-.14c.5-.34.61-.24.89-.68a1.52,1.52,0,0,0,.12-1.08l-.13-.16h0Z"></path>
          <path class="cls-6" d="M86.66,102.42a2.27,2.27,0,0,0-.11-.89h0s-.38-1-1.27-1-1.43.5-1.37.78l.2.4,0,0,.75.63.14.1.14.11c.35.24.31.34.67.41a1.06,1.06,0,0,0,.73-.18l.07-.13h0v-.22Z"></path>
          <path class="cls-6" d="M100.09,118.6a10.93,10.93,0,0,0-1.91-3.81l0,0s-3.31-3.9-7.35-2.59-5.6,4.54-4.89,5.68a14.54,14.54,0,0,0,1.53,1.53h.13c1.19.77,3.39,1.14,4.37,1.62a2.18,2.18,0,0,0,.77.25c.22.07.45.15.84.26,1.94.54,1.9,1,3.64.79a5.15,5.15,0,0,0,3-2,3.27,3.27,0,0,0,.13-.69h0v-.07a1.31,1.31,0,0,0-.28-1"></path>
          <path class="cls-6" d="M74,105.32A8.44,8.44,0,0,0,72.1,108h0s-1.4,3.66,1,5.89,5.11,2.09,5.62,1.19a11,11,0,0,0,.46-1.59l0-.09a27.32,27.32,0,0,0-.52-3.53,1.81,1.81,0,0,0-.11-.62c0-.16-.07-.35-.14-.65-.34-1.5,0-1.66-.81-2.74a3.92,3.92,0,0,0-2.44-1.26l-.51.16h0l0,0a.93.93,0,0,0-.54.54"></path>
          <path class="cls-8" d="M74.15,132.7a1.59,1.59,0,0,0,1.57-.42c.54-.7.43-1.43.17-1.55l-.44-.08c-.29-.05-.32.69-.33.7Z"></path>
          <path class="cls-9" d="M73.21,132.12s.88.79,1.24.54.8-.46.8-.46l0-.24-1-.32-.57.19Z"></path>
          <path class="cls-10" d="M73.15,132c0,.1.12.36.4.27a3.87,3.87,0,0,0,.53-.23l.32-1c.07-.15.15-.19-.25-.06s-.45,0-.72.29a1.07,1.07,0,0,0-.28.69"></path>
          <path class="cls-11" d="M74.08,132a4.37,4.37,0,0,0,.12-.69c0-.31,0-.4.29-.43s.83-.34,1.1-.23.26.09.26.44a1.23,1.23,0,0,1-.38.87.7.7,0,0,1-.76.32,1.79,1.79,0,0,1-.63-.28"></path>
          <path class="cls-8" d="M63.47,126.57s2.39.12,3.24-1.67.26-3.36-.36-3.49a7.46,7.46,0,0,0-1,0c-.65,0-.37,1.67-.39,1.7Z"></path>
          <path class="cls-9" d="M61.12,125.75s2.3,1.31,3,.61,1.53-1.4,1.53-1.4l-.16-.52a7.5,7.5,0,0,0-2.26-.25c-.37.2-1,.62-1.16.7Z"></path>
          <path class="cls-10" d="M60.93,125.47c.11.21.44.74,1,.4a8.38,8.38,0,0,0,1-.75s.19-1.93.26-2.28.23-.49-.58,0-1,.32-1.44,1a2.41,2.41,0,0,0-.28,1.66"></path>
          <path class="cls-11" d="M63,125.12a11.07,11.07,0,0,0,0-1.59c-.09-.69-.15-.87.42-1.08s1.68-1.13,2.33-1,.6.07.77.85a2.86,2.86,0,0,1-.42,2.09,1.58,1.58,0,0,1-1.51,1.07,4,4,0,0,1-1.54-.31"></path>
          <path class="cls-8" d="M53.51,134.34s1.87,1.41,3.54.43,2.05-2.58,1.62-3a6.4,6.4,0,0,0-.83-.53c-.56-.33-1.22,1.15-1.25,1.16Z"></path>
          <path class="cls-9" d="M52.06,132.38s1.14,2.33,2.08,2.14a18.88,18.88,0,0,1,2-.29l.15-.51s-1.29-1.4-1.69-1.44-1.15-.05-1.32-.08Z"></path>
          <path class="cls-10" d="M52.06,132.06c0,.23-.05.83.58.87a10.13,10.13,0,0,0,1.26,0l1.46-1.71c.25-.24.45-.27-.47-.32s-1-.28-1.7,0a2.36,2.36,0,0,0-1.13,1.19"></path>
          <path class="cls-11" d="M53.9,132.9a10.69,10.69,0,0,0,.83-1.32c.31-.61.35-.79.93-.64s2,0,2.44.44.45.38.17,1.1A2.78,2.78,0,0,1,56.78,134,1.54,1.54,0,0,1,55,134a4.06,4.06,0,0,1-1.07-1.09"></path>
          <path class="cls-8" d="M49.22,127.9a2.68,2.68,0,0,0,.09-2.73c-.86-1.21-2.1-1.39-2.41-1l-.35.67c-.21.44,1,.84,1,.88Z"></path>
          <path class="cls-9" d="M47.82,129.14s1.7-1,1.49-1.73A15.08,15.08,0,0,1,49,125.9l-.4-.09s-1,1.08-1,1.39,0,.87,0,1Z"></path>
          <path class="cls-10" d="M47.58,129.16c.18,0,.64,0,.62-.5a6,6,0,0,0-.11-1l-1.4-1c-.2-.18-.23-.33-.21.37s-.15.75.12,1.3a1.79,1.79,0,0,0,1,.79"></path>
          <path class="cls-11" d="M48.09,127.7a8.8,8.8,0,0,0-1.06-.55c-.48-.19-.62-.21-.55-.67s-.12-1.51.18-1.89.26-.37.83-.2a2.17,2.17,0,0,1,1.22,1,1.18,1.18,0,0,1,.14,1.38,3,3,0,0,1-.76.89"></path>
          <path class="cls-8" d="M40.75,129.91a1.15,1.15,0,0,0,.39-1.11c-.21-.62-.7-.85-.87-.74l-.23.23.29.49Z"></path>
          <path class="cls-9" d="M40,130.25s.84-.21.84-.53a5.52,5.52,0,0,1,0-.67l-.16-.09-.58.45-.12.43Z"></path>
          <path class="cls-10" d="M39.91,130.22l.32-.12.08-.41-.45-.6c-.06-.09-.06-.16-.14.13s-.15.29-.12.55a.76.76,0,0,0,.31.45"></path>
          <path class="cls-11" d="M40.31,129.69l-.37-.37-.15-.35.32-.75.37,0a.89.89,0,0,1,.37.58.5.5,0,0,1-.11.59Z"></path>
          <path class="cls-8" d="M38.15,134.59s1.64-2.64.14-4.73-3.66-2.39-4.19-1.77a8.24,8.24,0,0,0-.6,1.17c-.37.76,1.66,1.45,1.69,1.5Z"></path>
          <path class="cls-9" d="M35.75,136.74s2.94-1.8,2.57-3a26.06,26.06,0,0,1-.64-2.61L37,131s-1.69,1.88-1.69,2.42.08,1.52.06,1.75Z"></path>
          <path class="cls-10" d="M35.32,136.78c.31,0,1.1,0,1.08-.87a11.59,11.59,0,0,0-.2-1.67s-2.08-1.41-2.43-1.71-.41-.56-.37.65-.25,1.29.22,2.25a3.11,3.11,0,0,0,1.7,1.35"></path>
          <path class="cls-11" d="M36.2,134.24a14.53,14.53,0,0,0-1.83-.93c-.85-.33-1.09-.37-1-1.15s-.22-2.61.29-3.28.45-.64,1.44-.35a3.69,3.69,0,0,1,2.12,1.78,2.09,2.09,0,0,1,.28,2.39,5.2,5.2,0,0,1-1.32,1.54"></path>
        </g>
        <g>
          <path class="cls-12" d="M56.24,79.84A72.65,72.65,0,0,1,57.66,90a75,75,0,0,1-.21,10.27,98.06,98.06,0,0,1-1.1,10.26,56.23,56.23,0,0,1-2.65,9.94.14.14,0,0,1-.18.09.15.15,0,0,1-.08-.17,62.18,62.18,0,0,0,1.53-10,92.54,92.54,0,0,0,.26-10.13c0-3.38-.47-6.76-.35-10.16A54.9,54.9,0,0,1,56,79.84a.14.14,0,0,1,.28,0Z"></path>
          <path class="cls-13" d="M56.33,87.6c.76,1.9-2.51,4.54-4,5.9S48.9,96,48.06,97.85"></path>
          <path class="cls-13" d="M57.15,95.53a33.87,33.87,0,0,0,5.64,19.16"></path>
        </g>
        <polygon class="cls-14" points="0 65.25 57.93 90.77 110.57 67.24 57.93 47.66 0 65.25"></polygon>
        <g>
          <path class="cls-15" d="M68.58,12.76c5-7.07-.69-5.72-.69-5.72S67.43-.27,66.3,0s-1.58,7.05-1.58,7.05c-4.49-.6-3.81,4.28-3.2,5.88a2.91,2.91,0,0,1,.14,2.39,3.33,3.33,0,0,0-1.33.29,1.54,1.54,0,0,1-2.36.7c-.18.13-.52,0-.93-.64-.87-1.25-1.92-2.52-2.37-2.13s.44,1.52.17,2.76-1.08,1.06-3-2-5.8-3.37-5.88-1.23-1.49.8-1.49.8c-6.21-5.2-7-1.49-6.89-.53s0,0-4.11-.1-2.77,1.19-1.15,1.12,12,2,10.5,2.68S42,19.61,44.39,19.9s6.11.65,5.18,1.06-1.5,1.87-1.25,3.56,2.81-.11,5.21-.3,4.37,3.93,6,4.58c.62-1.38,2-5.89,2-5.89l1.69-1.2c4.29-2.51,6.32-6.07,5.46-7.45S68.58,12.76,68.58,12.76Z"></path>
          <path class="cls-15" d="M63,32.66c.36-.61.28-2.54,2.85-4.24s2-5.42,4.83-2.82c0,0,2.64-1.91,2.77-3s1.47-.43,1.07.87,1.07,2.32-2.33,5.94c0,0-.34.3.32.85s0,1.62-1.85,2-9.1,2.68-10.7,7.32Z"></path>
          <path class="cls-15" d="M59.42,32.8a8.91,8.91,0,0,0-7.75-2.55c-4.81.78-2.52,2.55-2.52,2.55s-6.94,2.88-2.79,11c0,0,1,1.16,1.38-.44s-.06-1.94.61-3.38S50,36.4,50.51,36.62s1.11,2.32,2.1.27S56.27,31.91,59.42,32.8Z"></path>
          <path class="cls-15" d="M53.58,65.31c0,3,2.3-6.45,5.05-4.74,0,0-.46-3.87-3.87-3.49a2.8,2.8,0,0,0-2.52,2.42C52.08,60.72,53.55,62.29,53.58,65.31Z"></path>
          <path class="cls-15" d="M67.73,47.06c.12-.08.08-.4.12-.54.43-1.22,1.84-6.49,3.2-7.65s1.7-2.53,2.27-.22c.08.33-.12.6-.27.9,0,0,.29-.17,1.39-.9,2.38-1.57,5.91-4.15,5.35-2.13s-1.28,1.85.06,1.85,3.83-.56,5.36-.34,3.15.9-.72,1.35c-3.16.36-1.83.62-1.24.7a.81.81,0,0,1,.47.21c.4.35.91,1.07-1.86,1-3.64-.1-2.63-.05-2.46.29s1.17,2.52-1.35,2.07a8.92,8.92,0,0,0-4.2.11c-.22.06,3.54,1.52.59,1.91s-4.23,1.52-5.85,1.4C67.86,47,67.63,47.13,67.73,47.06Z"></path>
          <path class="cls-15" d="M65.11,50.4C68.6,50.05,78.57,50,70,63.06a.16.16,0,0,1-.28-.05,30.33,30.33,0,0,1-.46-3.4c-.09-1.48-1.88,1.18-.7-3.71a.15.15,0,0,0-.12-.19c-.55-.05-2.21-.5-1.16-3.9a.16.16,0,0,0-.07-.18,9.41,9.41,0,0,0-2.13-.94A.15.15,0,0,1,65.11,50.4Z"></path>
          <path class="cls-15" d="M65.25,50.55s1.87-3.83,2-6.12a49.47,49.47,0,0,0-.48-7.18c-.12-.78-1.51,1.5-1.51,4.13s1,2.92,0,2.62-1.63-.69-2.11.74S65.25,50.55,65.25,50.55Z"></path>
          <path class="cls-16" d="M69.25,45.55C64.4,50.7,59.34,56.25,58,63.2"></path>
          <g>
            <path class="cls-15" d="M52.23,48.3S38.17,41.71,38.8,58.65c0,0,1.12,2.11,2.9-4.47,0,0-.55-.32,1.57-.47S48.09,46.73,52.23,48.3Z"></path>
            <path class="cls-17" d="M48.46,47.91c5.8-.47,7.37,4,10.06,4.05"></path>
          </g>
          <path class="cls-18" d="M59,19.89c.95,23.78.8,12.58-.5,36.36-.67,12.17.44.42-.22,12.59"></path>
        </g>
        <g>
          <g>
            <path class="cls-19" d="M59.25,76A1.3,1.3,0,0,0,58,75.57c-.69.21-1,.77-.85,1a1.58,1.58,0,0,0,.26.27c.17.17.54-.31.56-.32Z"></path>
            <path class="cls-9" d="M59.62,76.87s-.22-1-.58-1a7.38,7.38,0,0,1-.76-.07l-.1.18s.35.62.49.67l.48.14A3,3,0,0,0,59.62,76.87Z"></path>
            <path class="cls-10" d="M59.59,77a.25.25,0,0,0-.14-.37,4.26,4.26,0,0,0-.46-.09s-.57.43-.69.5-.18.06.15.15.32.19.62.15A.91.91,0,0,0,59.59,77Z"></path>
            <path class="cls-11" d="M59,76.53a3.28,3.28,0,0,0-.42.41c-.17.19-.2.25-.4.15s-.72-.17-.86-.37-.13-.18,0-.42a1,1,0,0,1,.67-.41.6.6,0,0,1,.67.14A1.55,1.55,0,0,1,59,76.53Z"></path>
          </g>
          <g>
            <path class="cls-19" d="M41.39,69.54a1.94,1.94,0,0,0-2-.28c-.94.52-1.17,1.4-.93,1.65a2.89,2.89,0,0,0,.45.3c.3.19.68-.62.7-.63Z"></path>
            <path class="cls-9" d="M42.16,70.64s-.6-1.3-1.12-1.21a10.69,10.69,0,0,1-1.11.14l-.09.28s.69.79.92.81.63,0,.72.06A4.9,4.9,0,0,0,42.16,70.64Z"></path>
            <path class="cls-10" d="M42.16,70.81c0-.12,0-.45-.31-.48a4.69,4.69,0,0,0-.7,0s-.68.8-.82.93-.25.14.25.18.52.16.94,0A1.32,1.32,0,0,0,42.16,70.81Z"></path>
            <path class="cls-11" d="M41.15,70.33a6.24,6.24,0,0,0-.47.72c-.18.33-.2.43-.52.34s-1.1,0-1.35-.27-.24-.22-.07-.61.4-.55.83-.8a.88.88,0,0,1,1,0A2.34,2.34,0,0,1,41.15,70.33Z"></path>
          </g>
          <g>
            <path class="cls-19" d="M54,67s-4-2-6.84.44-3,5.6-2,6.28a12.31,12.31,0,0,0,1.76.7c1.16.43,1.88-2.59,1.95-2.63S54,67,54,67Z"></path>
            <path class="cls-9" d="M57.44,70.13s-3-4-4.69-3.29-3.68,1.26-3.68,1.26l-.11,1s2.93,2.18,3.71,2.11,2.17-.32,2.51-.32A16.53,16.53,0,0,0,57.44,70.13Z"></path>
            <path class="cls-10" d="M57.56,70.74c0-.44-.21-1.59-1.41-1.43a17.58,17.58,0,0,0-2.37.51S52,73,51.63,73.56s-.75.67,1,.44,1.89.18,3.21-.61A4.57,4.57,0,0,0,57.56,70.74Z"></path>
            <path class="cls-11" d="M53.78,69.82a20.28,20.28,0,0,0-1.1,2.77c-.36,1.27-.38,1.62-1.53,1.56s-3.73.68-4.77,0-1-.55-.69-2,1-2.16,2.28-3.3a3,3,0,0,1,3.4-.72A7.7,7.7,0,0,1,53.78,69.82Z"></path>
          </g>
          <g>
            <path class="cls-19" d="M69.48,68.24S67.16,65.09,64,65.87s-4.5,3.16-4,4.07a10.34,10.34,0,0,0,1.09,1.24c.72.8,2.48-1.26,2.55-1.26S69.48,68.24,69.48,68.24Z"></path>
            <path class="cls-9" d="M70.88,72.07s-.73-4.28-2.32-4.42-3.36-.48-3.36-.48l-.49.74s1.41,2.85,2,3.11,1.81.62,2.07.75A15.94,15.94,0,0,0,70.88,72.07Z"></path>
            <path class="cls-10" d="M70.72,72.58c.15-.36.48-1.31-.52-1.66a14.34,14.34,0,0,0-2-.55s-2.63,1.77-3.15,2-.85.22.59.74S67,74,68.34,74A3.89,3.89,0,0,0,70.72,72.58Z"></path>
            <path class="cls-11" d="M68.17,70.37a17.7,17.7,0,0,0-2,1.71c-.78.83-.93,1.1-1.8.59s-3.16-1-3.7-1.87S60.17,70,61,69a4.61,4.61,0,0,1,3.07-1.64,2.62,2.62,0,0,1,2.93.8A6.75,6.75,0,0,1,68.17,70.37Z"></path>
          </g>
          <g>
            <path class="cls-19" d="M58.71,69.88s-3.33-2.57-6.35-.83-3.71,4.6-3,5.4a11.15,11.15,0,0,0,1.49,1c1,.6,2.19-2,2.26-2.07S58.71,69.88,58.71,69.88Z"></path>
            <path class="cls-9" d="M61.28,73.41s-2-4.2-3.7-3.87S54,70,54,70l-.28.91s2.3,2.53,3,2.61,2,.1,2.36.15A16,16,0,0,0,61.28,73.41Z"></path>
            <path class="cls-10" d="M61.28,74c0-.42.1-1.49-1-1.57a16.48,16.48,0,0,0-2.27,0s-2.19,2.61-2.64,3-.81.48.83.59,1.7.51,3.06,0A4.25,4.25,0,0,0,61.28,74Z"></path>
            <path class="cls-11" d="M58,72.46a20.15,20.15,0,0,0-1.51,2.35c-.56,1.09-.64,1.41-1.68,1.14s-3.55,0-4.38-.83-.8-.69-.27-2,1.27-1.8,2.69-2.61a2.81,2.81,0,0,1,3.25,0A7.19,7.19,0,0,1,58,72.46Z"></path>
          </g>
          <g>
            <path class="cls-19" d="M76,75.71a2,2,0,0,0,1.85-.91c.49-1,.17-1.9-.18-2a3.76,3.76,0,0,0-.57,0c-.37,0-.22.93-.23,1S76,75.71,76,75.71Z"></path>
            <path class="cls-9" d="M74.7,75.23s1.29.76,1.68.37.88-.78.88-.78l-.09-.29a4,4,0,0,0-1.27-.16c-.21.11-.57.34-.66.38A4.72,4.72,0,0,0,74.7,75.23Z"></path>
            <path class="cls-10" d="M74.6,75.07c.06.12.24.42.55.24a5.5,5.5,0,0,0,.6-.42s.12-1.09.17-1.29.13-.27-.33,0-.55.16-.82.54A1.32,1.32,0,0,0,74.6,75.07Z"></path>
            <path class="cls-11" d="M75.75,74.89a6.76,6.76,0,0,0,0-.9c0-.39-.08-.49.24-.6s1-.63,1.32-.56.34,0,.43.48a1.63,1.63,0,0,1-.25,1.18.9.9,0,0,1-.87.59A2.45,2.45,0,0,1,75.75,74.89Z"></path>
          </g>
          <g>
            <path class="cls-19" d="M31.68,78a2,2,0,0,0,1.85-.91c.49-1,.17-1.89-.18-2a3.76,3.76,0,0,0-.57,0c-.37,0-.22.93-.23.95S31.68,78,31.68,78Z"></path>
            <path class="cls-9" d="M30.36,77.54s1.29.76,1.68.37a10.88,10.88,0,0,1,.88-.77l-.09-.3a4,4,0,0,0-1.27-.16c-.21.11-.57.34-.66.38A4.72,4.72,0,0,0,30.36,77.54Z"></path>
            <path class="cls-10" d="M30.26,77.38c.06.12.24.42.55.24a4.27,4.27,0,0,0,.6-.42s.12-1.09.17-1.28.13-.28-.33,0-.55.17-.82.54A1.32,1.32,0,0,0,30.26,77.38Z"></path>
            <path class="cls-11" d="M31.41,77.2a6.62,6.62,0,0,0,0-.89c0-.4-.08-.5.24-.61s1-.62,1.32-.56.34,0,.43.48a1.63,1.63,0,0,1-.25,1.18.9.9,0,0,1-.86.59A2.25,2.25,0,0,1,31.41,77.2Z"></path>
          </g>
          <g>
            <path class="cls-19" d="M44.35,76.43a2.58,2.58,0,0,0,2.43-1c.72-1.24.38-2.4-.05-2.53a6.78,6.78,0,0,0-.73,0c-.47,0-.36,1.18-.38,1.2S44.35,76.43,44.35,76.43Z"></path>
            <path class="cls-9" d="M42.71,75.69s1.57,1.09,2.11.63A14.58,14.58,0,0,1,46,75.4L45.92,75a5.27,5.27,0,0,0-1.61-.31c-.28.12-.75.38-.88.42A8,8,0,0,0,42.71,75.69Z"></path>
            <path class="cls-10" d="M42.59,75.49c.07.15.27.55.69.34a6.13,6.13,0,0,0,.8-.47s.24-1.38.32-1.62.19-.34-.42,0-.71.16-1.09.62A1.75,1.75,0,0,0,42.59,75.49Z"></path>
            <path class="cls-11" d="M44.08,75.36a8.4,8.4,0,0,0,.06-1.14c0-.51-.06-.64.36-.76s1.28-.7,1.73-.59.43.08.5.65A2,2,0,0,1,46.31,75a1.16,1.16,0,0,1-1.15.68A3.13,3.13,0,0,1,44.08,75.36Z"></path>
          </g>
          <g>
            <path class="cls-19" d="M53.59,74.63a1.62,1.62,0,0,1,1.5-.23c.74.34.93.93.76,1.11a2.9,2.9,0,0,1-.35.21c-.22.14-.54-.41-.55-.41Z"></path>
            <path class="cls-9" d="M53,75.39s.44-.9.84-.84.87.07.87.07l.07.19s-.52.55-.69.57-.49,0-.56.06S53,75.39,53,75.39Z"></path>
            <path class="cls-10" d="M53,75.52a.25.25,0,0,1,.23-.34,3.35,3.35,0,0,1,.54,0s.54.52.66.61.2.09-.19.13-.4.12-.73,0A.94.94,0,0,1,53,75.52Z"></path>
            <path class="cls-11" d="M53.79,75.17a3.71,3.71,0,0,1,.38.47c.14.23.17.3.41.23s.85,0,1-.21.18-.16,0-.42a1.16,1.16,0,0,0-.67-.53.75.75,0,0,0-.77,0A1.57,1.57,0,0,0,53.79,75.17Z"></path>
          </g>
          <g>
            <path class="cls-19" d="M67.16,70.81S64,68.5,61.28,70.17s-3.35,4.33-2.63,5a10.26,10.26,0,0,0,1.39.86c.93.54,2-1.93,2.05-2S67.16,70.81,67.16,70.81Z"></path>
            <path class="cls-9" d="M69.61,74s-1.94-3.85-3.5-3.51-3.32.53-3.32.53l-.25.85s2.17,2.29,2.84,2.35,1.9,0,2.19.1A14.68,14.68,0,0,0,69.61,74Z"></path>
            <path class="cls-10" d="M69.62,74.56c0-.38.06-1.38-1-1.42a14.92,14.92,0,0,0-2.1.07s-2,2.46-2.39,2.87-.74.46.78.52,1.59.44,2.83,0A3.9,3.9,0,0,0,69.62,74.56Z"></path>
            <path class="cls-11" d="M66.54,73.21a18.49,18.49,0,0,0-1.35,2.2c-.5,1-.56,1.32-1.54,1.1s-3.28,0-4.06-.69-.75-.62-.29-1.83a4.59,4.59,0,0,1,2.44-2.47,2.59,2.59,0,0,1,3-.1A6.54,6.54,0,0,1,66.54,73.21Z"></path>
          </g>
          <g>
            <path class="cls-19" d="M50.48,74.43s-2.56-.47-3.72,1.35-.74,3.58-.09,3.8a8.43,8.43,0,0,0,1.09.11c.72,0,.63-1.74.66-1.78S50.48,74.43,50.48,74.43Z"></path>
            <path class="cls-9" d="M52.9,75.63s-2.3-1.73-3.13-1.07-1.85,1.3-1.85,1.3l.11.58a7.94,7.94,0,0,0,2.4.58c.42-.17,1.15-.53,1.34-.59A10.41,10.41,0,0,0,52.9,75.63Z"></path>
            <path class="cls-10" d="M53.06,76c-.09-.24-.37-.85-1-.56a10,10,0,0,0-1.23.66s-.46,2.06-.59,2.43-.31.49.62.08,1.08-.2,1.69-.86A2.65,2.65,0,0,0,53.06,76Z"></path>
            <path class="cls-11" d="M50.82,76.05a11.06,11.06,0,0,0-.16,1.72c0,.76.05,1-.6,1.11s-2,1-2.65.78-.63-.15-.71-1a3.08,3.08,0,0,1,.73-2.2,1.75,1.75,0,0,1,1.78-1A4.62,4.62,0,0,1,50.82,76.05Z"></path>
          </g>
        </g>
      </g>
    </g>
  </g>
</svg>
