<?xml version="1.0" encoding="UTF-8"?>
<svg xmlns="http://www.w3.org/2000/svg" xmlns:xlink="http://www.w3.org/1999/xlink" viewBox="0 0 132.43 243.64">
  <defs>
    <style>
      .cls-1, .cls-16, .cls-17 {
        fill: none;
      }

      .cls-2 {
        fill: #8e6848;
      }

      .cls-3 {
        clip-path: url(#clip-path);
      }

      .cls-4 {
        fill: url(#Безымянный_градиент_2);
      }

      .cls-5 {
        fill: #713e21;
      }

      .cls-6 {
        fill: #3d271f;
      }

      .cls-7 {
        fill: #69391e;
      }

      .cls-8 {
        fill: #6b472f;
      }

      .cls-9 {
        fill: #5c3624;
      }

      .cls-10 {
        fill: #795135;
      }

      .cls-11 {
        fill: #9a734f;
      }

      .cls-12 {
        fill: #cacac9;
      }

      .cls-13 {
        fill: #85563a;
      }

      .cls-14 {
        fill: #769b57;
      }

      .cls-15 {
        fill: #79a05b;
      }

      .cls-16, .cls-17 {
        stroke: #79a05b;
        stroke-miterlimit: 10;
      }

      .cls-16 {
        stroke-width: 0.57px;
      }

      .cls-17 {
        stroke-width: 0.43px;
      }

      .cls-18 {
        fill: #eaca57;
      }

      .cls-19 {
        fill: #6b482f;
      }
    </style>
    <clipPath id="clip-path">
      <polygon class="cls-1" points="25.68 214.96 75.65 238.48 121.87 215.07 73.81 194.72 25.68 214.96"></polygon>
    </clipPath>
    <linearGradient id="Безымянный_градиент_2" data-name="Безымянный градиент 2" x1="-1199.05" y1="-577.58" x2="-1196.26" y2="-577.58" gradientTransform="matrix(34.36, 0, 0, -34.36, 41208.81, -19626.89)" gradientUnits="userSpaceOnUse">
      <stop offset="0" stop-color="#9b714e"></stop>
      <stop offset="0.38" stop-color="#9b714e"></stop>
      <stop offset="0.89" stop-color="#764528"></stop>
      <stop offset="1" stop-color="#6e3c20"></stop>
    </linearGradient>
  </defs>
  <g id="Слой_2" data-name="Слой 2">
    <g id="Слой_10" data-name="Слой 10">
      <g>
        <g>
          <path class="cls-2" d="M75.65,172.32s9.62,11.3,17,11.77,32.82-7.57,32.82-7.57l2.55-26.43L75.65,131.6Z"></path>
          <path class="cls-2" d="M18,148.22l5.23,34.47s18.58,2.79,21.83,1.87,18.12-6.51,22.3-6.51,8.33-5.73,8.33-5.73V131.6Z"></path>
          <g class="cls-3">
            <rect class="cls-4" x="49.34" y="167.4" width="48.87" height="98.4" transform="translate(-146.47 278.64) rotate(-86.92)"></rect>
          </g>
          <path class="cls-5" d="M25.68,215l-2.5-32.26s23.69-.47,30.2-3.72,22.27-6.66,22.27-6.66l-1.84,22.4Z"></path>
          <path class="cls-6" d="M59.45,184.7A8.66,8.66,0,0,0,56.61,183v0s-3.78-1.13-5.85,1.42-1.7,5.28-.77,5.73a11.08,11.08,0,0,0,1.63.34l.1,0a29.92,29.92,0,0,0,3.5-.8,1.62,1.62,0,0,0,.61-.16c.17,0,.35-.09.65-.19,1.48-.46,1.66-.12,2.69-1a4,4,0,0,0,1.08-2.55l-.2-.5h0l0,0a1,1,0,0,0-.58-.5"></path>
          <path class="cls-6" d="M39.16,188a10.94,10.94,0,0,0-4,1.32v0s-4.3,2.7-3.58,6.85,3.65,6.13,4.87,5.6a15.58,15.58,0,0,0,1.72-1.28l0-.14c.92-1,1.6-3.16,2.21-4a2.27,2.27,0,0,0,.36-.72c.1-.2.21-.42.37-.79.81-1.81,1.28-1.71,1.29-3.45a5.09,5.09,0,0,0-1.54-3.21,4.27,4.27,0,0,0-.65-.23v0h-.07a1.26,1.26,0,0,0-1,.14"></path>
          <path class="cls-7" d="M75.65,172.32l-1.84,22.39,48.06,20.37,3.65-38.56s-15-1.72-21.49-.8-17.83,3.72-21.24,1.87a45.06,45.06,0,0,1-7.14-5.27"></path>
          <path class="cls-6" d="M57.34,195.33a3.29,3.29,0,0,0-1.25-.31h0a2.32,2.32,0,0,0-2,1.19c-.49,1.18,0,2.17.36,2.23l.65-.05,0,0a11.49,11.49,0,0,0,1.23-.69l.2-.13.23-.14c.5-.34.61-.23.89-.68a1.52,1.52,0,0,0,.12-1.08l-.13-.16h0Z"></path>
          <path class="cls-6" d="M104.43,185.69a2.48,2.48,0,0,0-.11-.89h0s-.38-1-1.27-1-1.43.5-1.37.78l.2.41h0l.75.63.14.1.15.11c.34.25.3.34.66.41a1.06,1.06,0,0,0,.73-.18l.08-.13h0Z"></path>
          <path class="cls-6" d="M117.85,201.87a10.93,10.93,0,0,0-1.91-3.81h0s-3.31-3.91-7.35-2.6-5.59,4.54-4.89,5.68a14.54,14.54,0,0,0,1.53,1.53h.13c1.19.77,3.39,1.14,4.37,1.62a2.24,2.24,0,0,0,.77.25c.22.08.45.15.84.26,1.94.54,1.9,1,3.64.79a5.14,5.14,0,0,0,3-2,3.35,3.35,0,0,0,.12-.69h0v-.07a1.31,1.31,0,0,0-.28-1"></path>
          <path class="cls-6" d="M91.73,188.59a8.19,8.19,0,0,0-1.86,2.69l0,0s-1.4,3.66,1,5.9,5.1,2.08,5.61,1.19a11.22,11.22,0,0,0,.46-1.6l0-.09a27.58,27.58,0,0,0-.52-3.53,1.7,1.7,0,0,0-.11-.61c0-.17-.07-.36-.14-.66-.34-1.5,0-1.66-.81-2.74a3.92,3.92,0,0,0-2.44-1.26l-.51.17v0l0,0a1,1,0,0,0-.54.54"></path>
          <path class="cls-8" d="M91.91,216a1.59,1.59,0,0,0,1.57-.42c.54-.7.43-1.43.18-1.54l-.44-.09c-.3,0-.32.69-.34.7Z"></path>
          <path class="cls-9" d="M91,215.39s.88.79,1.24.55.8-.47.8-.47l0-.24-1-.32-.57.2Z"></path>
          <path class="cls-10" d="M90.92,215.25c0,.1.12.36.39.27a3.87,3.87,0,0,0,.53-.23l.32-1c.07-.15.15-.19-.25-.06s-.45,0-.71.29a1,1,0,0,0-.28.69"></path>
          <path class="cls-11" d="M91.84,215.29a5.25,5.25,0,0,0,.13-.69c0-.31,0-.39.28-.43s.84-.33,1.1-.23.26.09.26.44a1.23,1.23,0,0,1-.38.87.73.73,0,0,1-.76.33,1.73,1.73,0,0,1-.63-.29"></path>
          <path class="cls-8" d="M81.23,209.84s2.39.13,3.25-1.67.25-3.36-.36-3.49a7.57,7.57,0,0,0-1,0c-.65,0-.37,1.67-.39,1.7Z"></path>
          <path class="cls-9" d="M78.88,209s2.3,1.32,3,.61,1.53-1.4,1.53-1.4l-.16-.52a7.22,7.22,0,0,0-2.26-.24c-.37.2-1,.62-1.16.69Z"></path>
          <path class="cls-10" d="M78.69,208.74c.12.21.44.74,1,.4a9.36,9.36,0,0,0,1-.75s.18-1.93.25-2.28.23-.49-.58,0-1,.31-1.44,1a2.45,2.45,0,0,0-.28,1.65"></path>
          <path class="cls-11" d="M80.73,208.39a9.53,9.53,0,0,0,0-1.58c-.09-.7-.15-.88.42-1.09s1.68-1.13,2.33-1,.6.06.77.84a2.89,2.89,0,0,1-.42,2.1,1.59,1.59,0,0,1-1.51,1.06,4,4,0,0,1-1.54-.31"></path>
          <path class="cls-8" d="M71.27,217.61s1.87,1.41,3.54.43,2-2.58,1.62-3a6.8,6.8,0,0,0-.83-.53c-.55-.33-1.22,1.15-1.25,1.16Z"></path>
          <path class="cls-9" d="M69.82,215.66S71,218,71.9,217.79s2-.29,2-.29l.15-.51s-1.29-1.4-1.69-1.44-1.15-.05-1.32-.07Z"></path>
          <path class="cls-10" d="M69.82,215.33c0,.23,0,.83.58.87a10.13,10.13,0,0,0,1.26,0l1.46-1.71c.25-.24.45-.27-.46-.32s-1-.27-1.71,0a2.4,2.4,0,0,0-1.13,1.19"></path>
          <path class="cls-11" d="M71.66,216.17a9.52,9.52,0,0,0,.83-1.32c.31-.61.35-.79.93-.64s2,0,2.44.44.46.38.17,1.11a2.77,2.77,0,0,1-1.49,1.46,1.54,1.54,0,0,1-1.81,0,3.92,3.92,0,0,1-1.07-1.09"></path>
          <path class="cls-8" d="M67,211.17a2.66,2.66,0,0,0,.09-2.73c-.86-1.2-2.1-1.39-2.41-1l-.35.67c-.21.44,1,.85,1,.88Z"></path>
          <path class="cls-9" d="M65.58,212.41s1.71-1,1.5-1.73-.36-1.51-.36-1.51l-.4-.09s-1,1.08-1,1.4,0,.87,0,1Z"></path>
          <path class="cls-10" d="M65.34,212.43c.18,0,.64,0,.62-.5a6.74,6.74,0,0,0-.1-1l-1.4-1c-.21-.17-.24-.32-.22.38s-.15.74.12,1.3a1.8,1.8,0,0,0,1,.78"></path>
          <path class="cls-11" d="M65.85,211a7.51,7.51,0,0,0-1-.54c-.49-.2-.63-.22-.56-.68s-.12-1.5.18-1.89.26-.36.83-.19a2.12,2.12,0,0,1,1.22,1,1.2,1.2,0,0,1,.15,1.38,3.12,3.12,0,0,1-.77.89"></path>
          <path class="cls-8" d="M58.51,213.18a1.15,1.15,0,0,0,.39-1.11c-.2-.61-.69-.85-.87-.74l-.23.23.29.49Z"></path>
          <path class="cls-9" d="M57.78,213.52s.83-.21.83-.53,0-.67,0-.67l-.15-.08-.59.44-.12.43Z"></path>
          <path class="cls-10" d="M57.67,213.5l.32-.13.08-.41-.45-.59c-.06-.1-.06-.17-.14.12s-.15.29-.11.56a.76.76,0,0,0,.3.45"></path>
          <path class="cls-11" d="M58.07,213l-.37-.36-.14-.35.31-.76.37,0a.91.91,0,0,1,.37.59.51.51,0,0,1-.11.59Z"></path>
          <path class="cls-8" d="M55.91,217.86s1.64-2.64.14-4.73-3.66-2.39-4.19-1.77a8.35,8.35,0,0,0-.59,1.17C50.9,213.3,52.93,214,53,214Z"></path>
          <path class="cls-9" d="M53.51,220s2.94-1.8,2.57-3-.64-2.61-.64-2.61l-.69-.15s-1.69,1.88-1.69,2.42.08,1.52.06,1.75Z"></path>
          <path class="cls-10" d="M53.09,220.05c.3,0,1.1,0,1.07-.87a12.17,12.17,0,0,0-.19-1.66s-2.09-1.42-2.44-1.72-.41-.56-.37.65-.24,1.29.22,2.25a3.12,3.12,0,0,0,1.71,1.35"></path>
          <path class="cls-11" d="M54,217.52a14,14,0,0,0-1.83-.94c-.85-.33-1.09-.36-1-1.15s-.23-2.61.28-3.28.45-.64,1.44-.35A3.69,3.69,0,0,1,55,213.58a2.09,2.09,0,0,1,.28,2.39A5.3,5.3,0,0,1,54,217.52"></path>
        </g>
        <g>
          <path class="cls-12" d="M71.86,167.24c-3.61,4.18-9.91,8.7-7.35,15,.31.77,1.57.43,1.25-.34-2.36-5.83,3.72-10,7-13.77.55-.63-.37-1.55-.91-.92Z"></path>
          <path class="cls-12" d="M73.92,170.84C70,173.17,65.4,173.68,61.54,176c-3.69,2.25-5.07,5.91-6.19,9.91a.65.65,0,0,0,1.25.35c1.49-5.3,3.7-8.74,9-10.71,3.06-1.14,6.16-1.93,9-3.62a.65.65,0,0,0-.66-1.12Z"></path>
          <path class="cls-12" d="M72.83,173.12c-1.74,3.9-3.53,7.79-5.23,11.71-1.16,2.69-2,5.15-1.61,8.1.12.83,1.37.48,1.25-.34-.55-4,1.68-7.54,3.23-11L74,173.77c.34-.75-.78-1.41-1.12-.65Z"></path>
          <path class="cls-12" d="M72.16,175.88c-.62,3-1.35,5.42-3.77,7.47-1.65,1.38-3.43,2.3-4.87,3.94a16,16,0,0,0-3.74,8.89c-.1.83,1.2.82,1.29,0,.69-5.79,4-8.43,8.21-11.81,2.65-2.1,3.46-4.94,4.14-8.15.17-.81-1.08-1.16-1.26-.34Z"></path>
          <path class="cls-12" d="M68.55,183.37c-4.54,2.63-9.11,5.21-13.61,7.9a13.49,13.49,0,0,0-6.19,6.8l1.28.17.08-1.1c.06-.83-1.24-.83-1.3,0l-.08,1.1c0,.79,1,.8,1.28.17,1.74-4.29,5.58-6,9.34-8.21l9.85-5.71a.65.65,0,0,0-.65-1.12Z"></path>
          <path class="cls-12" d="M73.37,174.29a7.62,7.62,0,0,1-1.46,6.83c-.84,1.06-2,1.76-2.8,2.87-1.52,2.17-1.36,4.92-1.16,7.43l.83-.62-1.09-.23c-.82-.18-1.16,1.07-.35,1.25l1.09.23a.65.65,0,0,0,.82-.63c-.17-2.06-.42-4.52.69-6.39.85-1.41,2.42-2.21,3.38-3.55a9.09,9.09,0,0,0,1.3-7.53c-.18-.81-1.44-.47-1.25.34Z"></path>
          <path class="cls-12" d="M73.88,182.09c0,3.62-.11,7.16-1.42,10.59-1,2.52-2.12,4.72-2.16,7.48a.65.65,0,0,0,1.29,0c.06-3.4,2-6.14,2.86-9.35a34.94,34.94,0,0,0,.73-8.72.65.65,0,0,0-1.3,0Z"></path>
          <path class="cls-12" d="M60.79,212.16c2.38-6.31,6.61-9.74,11.74-13.77A16.27,16.27,0,0,0,79,188.26c.15-.81-1.1-1.16-1.25-.34-1.26,6.55-6,9.06-10.74,13a25.74,25.74,0,0,0-7.5,10.88c-.29.78,1,1.12,1.25.34Z"></path>
          <path class="cls-12" d="M71.31,215.57c2.8-2.38,3.12-5.65,3.68-9.11a67.84,67.84,0,0,1,4.14-14.72c.31-.77-.95-1.11-1.25-.34a68.48,68.48,0,0,0-3.57,11.54c-.82,4-.58,8.88-3.91,11.72-.64.54.28,1.45.91.91Z"></path>
          <path class="cls-12" d="M68.68,211.47a68,68,0,0,1,6.7-8.15c.58-.6-.34-1.52-.92-.92a70.27,70.27,0,0,0-6.9,8.41c-.48.69.64,1.34,1.12.66Z"></path>
          <path class="cls-12" d="M68,225.41c1.35-3.81,4-6.3,5.68-9.8s1.81-7.3,3.4-10.76c.35-.76-.77-1.42-1.12-.66-2,4.27-2.27,9-4.92,12.88a34.57,34.57,0,0,0-4.29,8c-.28.79,1,1.13,1.25.35Z"></path>
          <path class="cls-12" d="M73.28,169a7.68,7.68,0,0,0,8.8,7.22c.82-.12.47-1.37-.35-1.25a6.37,6.37,0,0,1-7.15-6c0-.84-1.33-.84-1.3,0Z"></path>
          <path class="cls-12" d="M74.62,174.36a4,4,0,0,0,2.48,2,27,27,0,0,0,3.3.75c2.28.43,4.53,1.09,6.79,1.69a64,64,0,0,1,6.72,2.15,31.31,31.31,0,0,1,6.21,3.3l-.08.12c-4.05-2.33-8.58-3.48-13.12-4.41-2.27-.47-4.6-.76-6.86-1.41a15.1,15.1,0,0,1-3.39-1.24,5.58,5.58,0,0,1-1.48-1.18,3,3,0,0,1-.72-1.71Z"></path>
          <path class="cls-12" d="M76.55,176.34a21.51,21.51,0,0,1,4.9,5.25c1.37,1.9,2.6,3.87,3.93,5.76a18.37,18.37,0,0,0,4.77,4.86A9.66,9.66,0,0,0,96.66,194a9.86,9.86,0,0,1-6.74-1.43,18.24,18.24,0,0,1-5.21-4.73c-1.43-1.85-2.75-3.75-4.18-5.56a20.56,20.56,0,0,0-4.77-4.69Z"></path>
          <path class="cls-12" d="M76.73,183.42a30,30,0,0,0,2.08,8.46A38.66,38.66,0,0,1,81,203.17c0,.83,1.33.84,1.3,0a37.58,37.58,0,0,0-1.3-8.88c-1-3.66-2.74-7-2.94-10.87,0-.83-1.34-.84-1.29,0Z"></path>
          <path class="cls-12" d="M75.17,185.81c3.71,5.88,12.16,6.68,15.1,13.09.35.76,1.47.1,1.12-.65-3-6.53-11.4-7.22-15.1-13.09-.44-.71-1.56-.06-1.12.65Z"></path>
          <path class="cls-12" d="M77.24,196.46c1.64,3.24,5.13,3.52,8.43,4.06,5.37.86,13.39.15,17.68,3.68.64.53,1.56-.38.91-.91-2.25-1.86-4.63-2.36-7.51-2.68-4.33-.49-16-.05-18.39-4.8-.38-.75-1.5-.09-1.12.65Z"></path>
          <path class="cls-12" d="M89.29,201.18a31.16,31.16,0,0,1,5.85,11.91.65.65,0,0,0,1.25-.34,32.61,32.61,0,0,0-6.18-12.49c-.52-.65-1.44.27-.92.92Z"></path>
          <path class="cls-12" d="M76.07,197c2.42,3.36,4.8,6.75,6.15,10.71.26.78,1.52.44,1.25-.35-1.39-4.07-3.78-7.56-6.28-11-.49-.67-1.62,0-1.12.65Z"></path>
          <path class="cls-12" d="M76.36,196.48A276,276,0,0,1,74.8,231c-.09.83,1.2.82,1.29,0a276,276,0,0,0,1.57-34.49.65.65,0,0,0-1.3,0Z"></path>
          <path class="cls-12" d="M73,166l.15,8.7a.65.65,0,0,0,1.3,0l-.15-8.7a.65.65,0,0,0-1.3,0Z"></path>
          <path class="cls-12" d="M73.58,162.61c-3.34,5.3-.27,11.64-1.69,17.4-.2.81,1,1.16,1.25.35,1.37-5.55-1.61-12.06,1.56-17.09.45-.71-.67-1.36-1.12-.66Z"></path>
          <path class="cls-12" d="M74.4,176a23.92,23.92,0,0,1,1.45,9.14c0,.83,1.27.83,1.29,0a24.71,24.71,0,0,0-1.49-9.48c-.29-.78-1.54-.44-1.25.34Z"></path>
          <path class="cls-12" d="M73.58,177.4v8.36a.65.65,0,0,0,1.29,0V177.4a.65.65,0,0,0-1.29,0Z"></path>
          <path class="cls-12" d="M75.66,179.07l-.34,6.18c-.11,2,.06,4.33-1.18,6-.49.68.64,1.33,1.12.66a8.44,8.44,0,0,0,1.26-4.8q.23-4,.43-8.08c0-.83-1.25-.83-1.29,0Z"></path>
          <path class="cls-12" d="M74.9,184.92a29.26,29.26,0,0,1-3.18,9.92c-.39.74.73,1.39,1.12.66a30.38,30.38,0,0,0,3.31-10.24c.11-.81-1.14-1.17-1.25-.34Z"></path>
          <path class="cls-12" d="M74.19,178.92l1.21,8c.13.82,1.38.47,1.25-.35l-1.21-8c-.12-.82-1.37-.47-1.25.35Z"></path>
          <path class="cls-12" d="M74.17,175.73a58.38,58.38,0,0,0,1.26,9.11.65.65,0,0,0,1.25,0l.25-1.24c.15-.82-1.1-1.16-1.26-.34l-.24,1.24h1.25a56.41,56.41,0,0,1-1.21-8.77c0-.83-1.34-.84-1.3,0Z"></path>
          <path class="cls-12" d="M75.52,177.74a20.14,20.14,0,0,0,1.57,5.69.66.66,0,0,0,1,.14,4,4,0,0,0,1-3.52c-.1-.6-.91-.56-1.19-.15L77.18,181l1.19.16-1.3-4.47a.65.65,0,0,0-1.25,0,10.87,10.87,0,0,0-.08,4c.11.62.89.54,1.19.15A4.94,4.94,0,0,0,78,177.46l-1.27.18.47,2.55c.14.75,1.24.52,1.28-.18a8.67,8.67,0,0,0-2-6.15c-.53-.65-1.44.27-.92.91A7.28,7.28,0,0,1,77.17,180l1.28-.17L78,177.29c-.13-.72-1.31-.55-1.27.17a4,4,0,0,1-.89,2.77l1.18.15a8.68,8.68,0,0,1,.08-3.33H75.82l1.3,4.47a.65.65,0,0,0,1.18.16l.77-1.13-1.18-.15a2.35,2.35,0,0,1-.7,2.25l1,.13a17.65,17.65,0,0,1-1.39-5c-.1-.82-1.4-.83-1.3,0Z"></path>
          <path class="cls-12" d="M76.19,188.14a36.44,36.44,0,0,1-.53,10.05l1.28.17-.06-.88c0-.83-1.35-.84-1.3,0l.06.88c0,.69,1.13.93,1.27.17a37.32,37.32,0,0,0,.57-10.39c-.06-.83-1.36-.84-1.29,0Z"></path>
          <path class="cls-12" d="M75.18,186.78a178.77,178.77,0,0,1-.45,21c-.06.77,1,.83,1.28.18l2.12-6.28c.27-.79-1-1.13-1.25-.34l-2.12,6.27,1.27.17a181,181,0,0,0,.45-21c0-.83-1.33-.84-1.3,0Z"></path>
          <path class="cls-12" d="M75,190.81a6.77,6.77,0,0,1-.48,3.42c-.33.76.79,1.42,1.12.66a7.93,7.93,0,0,0,.65-4.08c-.08-.82-1.38-.83-1.29,0Z"></path>
          <path class="cls-12" d="M77.26,189.44a38.44,38.44,0,0,0,1.28,10.24.65.65,0,0,0,1.25-.35,37,37,0,0,1-1.23-9.89.65.65,0,0,0-1.3,0Z"></path>
          <path class="cls-12" d="M77,197.67a19.25,19.25,0,0,0-.89,6.35.66.66,0,0,0,1.28.17,27.57,27.57,0,0,0,.12-19.4c-.28-.78-1.54-.45-1.25.34a26.53,26.53,0,0,1-.12,18.72l1.27.17a18.15,18.15,0,0,1,.84-6c.25-.8-1-1.14-1.25-.35Z"></path>
          <path class="cls-12" d="M75.69,184.27l-.45,2.59a.65.65,0,0,0,1.25.35,8.25,8.25,0,0,0,.39-3.12c-.06-.83-1.35-.84-1.3,0a7,7,0,0,1-.34,2.77l1.25.35.45-2.6c.14-.82-1.11-1.17-1.25-.34Z"></path>
          <path class="cls-12" d="M73.29,172.21a25,25,0,0,0,2.31,5.08.65.65,0,0,0,1.21-.32,9.81,9.81,0,0,0-.51-4.2.66.66,0,0,0-1-.39,6.79,6.79,0,0,0-3.83,6.38.66.66,0,0,0,1,.56A3.57,3.57,0,0,0,74.4,177a.66.66,0,0,0-1-.74A5.78,5.78,0,0,0,71.59,178l1.19.5a33.84,33.84,0,0,0,.4-7.11c0-.83-1.33-.83-1.29,0a32.53,32.53,0,0,1-.36,6.76.65.65,0,0,0,1.18.5,4.38,4.38,0,0,1,1.39-1.25l-.95-.73a2.37,2.37,0,0,1-1.31,1.55l1,.56A5.51,5.51,0,0,1,76,173.5l-1-.39a8.88,8.88,0,0,1,.46,3.86l1.21-.33a23.43,23.43,0,0,1-2.18-4.78c-.26-.79-1.52-.45-1.25.35Z"></path>
        </g>
        <polygon class="cls-13" points="17.76 148.53 75.69 174.04 128.33 150.51 75.69 130.94 17.76 148.53"></polygon>
        <g>
          <path class="cls-14" d="M68,80.14a35,35,0,0,1-3.06-3.38c-.65-.79-7.66-4.57-9.07-6.27s-3.25-3.48-1-6.08c0,0,0-3.65-1.38-4.8s-2.24-3.38-1.64-4.28.93-2.1,1.5-2.14.56-1.32.88-1.49,0-3.08,1.15-2.07,1.86,4.08,1.86,4.08S60.36,52.06,60,58c0,0-.24,1.16,1.61.94s5.33.65,3.44,6.58c0,0,2.16,7.56.75,7.2s3.53,4.72,2.88,6.07S68.77,80.35,68,80.14Z"></path>
          <path class="cls-14" d="M73.84,29.24c-.24-.67-4.6-9.44-8.12-10.46,0,0-1.86-.13-.75-1.71s-6.55-4.1-6.74-4.4-1.4-1.6-.32-2.68S51.39,6.6,51.39,6.6s-1-.85-.32-1.67-7.35-2.87-7.35-2.87S42.46.54,46.21,1.37s7.22,1.57,7.22,1.57S52.66-.56,54.7.08c0,0,3,4.73,4.64,5.55,0,0,1.41-2.63,3-1.37l3.41,5.83s2-2.37,3.71.33,1.55,6.78,1.55,6.78a3.79,3.79,0,0,0,.72-2.06s.12-.69,1.81-.21c0,0-.64-9.67,3.12-5.82,0,0,3.27-7,4.73-6.22,0,0,1.07.08-.13,1.93a46.11,46.11,0,0,0-5.54,22.39s.46.61-.43,2.13a5.33,5.33,0,0,0,0,1.65c.18.59.29-.29,1.77-.33A2.35,2.35,0,0,0,77,28.73c-.48-1.27-1-5.19,2.57-4.71,0,0,.37-5.43,1.27-5.65S82.14,24,82.14,24s4.53-1.08.55,4.59c0,0-.53.11.16,1.21s-.94,4-4.38,6l-1.35,1S76,40.35,75.48,41.46c-1.35-.52-2.92-3.84-4.85-3.68s-4,1.6-4.18.24a2.65,2.65,0,0,1,1-2.85c.74-.33-2.21-.63-4.16-.85s-2.47-1.7-1.23-2.29-7.13-2.21-8.43-2.15-2.37-1,.92-.89,3.39.85,3.3.07.54-3.74,5.53.43c0,0,1.12,1.08,1.19-.64s3.21-1.46,4.72,1,2.17,2.59,2.38,1.6-.49-1.9-.14-2.22,1.2.71,1.9,1.71,1.11.56.76-.57Z"></path>
          <path class="cls-14" d="M75.21,54.22c-.47,1-5.51-3.34-6.77-3.14S66,50.92,66,49.67c0,0-6.36.53-7.1.19s-2.24-2.35.26-3.81c0,0-6.27-2.15-8-5.23s2.64.56,4.43.68,2.06.28,2.64.25.25-2.57,2.22-2a5.93,5.93,0,0,0,1.63,1.33A37.57,37.57,0,0,1,66.3,43a3.44,3.44,0,0,0,1.61.61c.22,0-.38-3.91,2.7-1.61s4.4,3.88,4.51,5.43S76.36,51.84,75.21,54.22Z"></path>
          <path class="cls-14" d="M78.33,43.61c.48-.82.37-3.42,3.83-5.7s2.65-7.29,6.5-3.79c0,0,3.55-2.56,3.72-4.06s2-.58,1.43,1.17,1.44,3.12-3.12,8c0,0-.46.41.42,1.15s0,2.18-2.48,2.73-12.24,3.6-14.38,9.84Z"></path>
          <path class="cls-14" d="M67.9,99.86a11.49,11.49,0,0,0-10-3.29c-6.23,1-3.27,3.29-3.27,3.29s-9,3.73-3.6,14.26c0,0,1.36,1.51,1.79-.57s-.08-2.51.78-4.37,2.15-4.66,2.8-4.37,1.43,3,2.72.35S63.82,98.71,67.9,99.86Z"></path>
          <path class="cls-14" d="M66,98.64c0,3.83,3-8.31,6.49-6.11,0,0-.58-5-5-4.49a3.62,3.62,0,0,0-3.25,3.11C64.09,92.72,66,94.75,66,98.64Z"></path>
          <path class="cls-14" d="M66.61,131s-17.13-8-16.37,12.61c0,0,1.37,2.57,3.54-5.45,0,0-.67-.38,1.91-.57S61.57,129,66.61,131Z"></path>
          <path class="cls-14" d="M79.2,136.47s6-6.49,8.54-1.14a13.82,13.82,0,0,0,4.06,3.34c2.3,1.15,9.28,5,1.54,4.87s-7.64-5.82-8.88-6.3S82,135.81,79.2,136.47Z"></path>
          <path class="cls-15" d="M74.25,20.52l.5,9.12c.09,1.52.18,3,.32,4.56l.06.56,0,.13V35h0c.09-.1-.33-.05-.26,0v-.22c0-.37,0-.75,0-1.13l0-2.29,0-2.28V27.54c-.06-.18.9.06.5,0v.23l0,.57.17,4.57.31,9.14c.42,12.17.75,24.37.55,36.57L76.1,96.91c-.17,6.11-.2,12.14,0,18.23.27,12.15,1,24.33.76,36.62l-3.44-.12c.54-12.08.15-24.27.2-36.48,0-6.09.21-12.24.5-18.31l.75-18.26c.47-12.16.42-24.33.27-36.52L75,32.94l-.07-4.57V27.6c-.4-.07.55.13.48,0V29l0,2.28,0,2.29c0,.38,0,.76-.05,1.15a1.31,1.31,0,0,1,0,.34c0,.09-.39.13-.32,0l0-.06V35l0-.15-.06-.58c-.1-1.52-.15-3-.21-4.57Z"></path>
          <g>
            <path class="cls-14" d="M86.38,117.41a1.16,1.16,0,0,0,.44-.54c.73-2.09,3.13-11.07,5.46-13.05s2.89-4.32,3.87-.37c.14.55-.2,1-.46,1.53,0,0,.49-.3,2.37-1.54,4.06-2.68,10.08-7.07,9.12-3.63s-2.18,3.15.1,3.15,6.55-1,9.15-.57,5.37,1.53-1.22,2.29c-5.39.62-3.12,1.06-2.12,1.19a1.67,1.67,0,0,1,.8.36c.68.6,1.55,1.83-3.17,1.69-6.21-.18-4.49-.09-4.21.48s2,4.3-2.29,3.54a15.2,15.2,0,0,0-7.16.19c-.39.1,6,2.58,1,3.25s-7.21,2.48-10,2.39C86.3,117.71,86.21,117.53,86.38,117.41Z"></path>
            <path class="cls-14" d="M82.57,121.56s17.77-3.34,6.26,13.85a40,40,0,0,1-.57-4.06c-.1-1.62-2.07,1.34-.7-4.2,0,0-2.83.14-1.4-4.35A8,8,0,0,0,82.57,121.56Z"></path>
            <path class="cls-14" d="M84,121.56s3-6.07,3.15-9.7a78.38,78.38,0,0,0-.76-11.36C86.16,99.25,84,102.88,84,107s1.63,4.63,0,4.16-2.58-1.1-3.34,1.17S84,121.56,84,121.56Z"></path>
            <path class="cls-15" d="M87.64,115.56c-5.27,5.59-10.82,11.65-12.36,19.44-.21,1.08,1.45,1.54,1.66.46,1.49-7.51,6.84-13.3,11.91-18.69.76-.8-.45-2-1.21-1.21Z"></path>
          </g>
          <path class="cls-16" d="M62,130.48c7.07-.57,9,4.88,12.26,4.93"></path>
          <path class="cls-15" d="M66,99.25a21.34,21.34,0,0,1,4.8,7.1c.94,2.16,1.62,4.43,2.71,6.53.52,1,2,.11,1.49-.87-1.12-2.15-1.82-4.49-2.79-6.71a22.63,22.63,0,0,0-5-7.26c-.8-.77-2,.44-1.22,1.21Z"></path>
          <path class="cls-15" d="M75.72,138.92l6-3a.87.87,0,0,0,.31-1.18.89.89,0,0,0-1.18-.31l-6,3a.87.87,0,0,0-.3,1.18.88.88,0,0,0,1.17.31Z"></path>
          <g>
            <path class="cls-15" d="M103.31,45.37c-2.93,2.77-5.85,5.56-8.65,8.46A79.88,79.88,0,0,0,86.88,63,52.08,52.08,0,0,0,81.12,73.5a88.18,88.18,0,0,0-3.67,11.41l-2-.54a89.27,89.27,0,0,1,4.23-11.48,52.57,52.57,0,0,1,6.34-10.46,81.32,81.32,0,0,1,8.23-9C97.23,50.68,100.26,48,103.31,45.37Z"></path>
            <path class="cls-14" d="M95.34,52.79c-.49.43,8.91-11.92,10.77-14.29s4.94-3.94,6.23,0c0,0-1.21,1.36,3.16-.29s9.1-5.87,10-1.71c0,0,3.15-2.3,3,.71s1.79,2.08,2.07,2.08,3.95,1.15,0,2.79c0,0-2.36.58-3.51-.07s-.71,1.36-.14,1.65,2.44,3.87-1.5,2.44A6.09,6.09,0,0,0,120.08,44c-3.65.27-5.18,0-3.63,1.41s4,4.74-.31,3.66S104.09,45.12,95.34,52.79Z"></path>
            <path class="cls-14" d="M103.25,58.92s4.44-2.51,10.31,1c0,0,4,2.22.51,3.37,0,0,8.38,7.31,3.93,7.17,0,0,1.72,5.66.29,6.44,0,0-1.86-4.72-2.79-5.51a2.46,2.46,0,0,1-2.87-1.94c-.79-2.43-1.15-3.58-1.65-3.51s-.07,1.07-.43,1.54-.93,1.33-2.79-1-3.8-4.58-4.51-5.73A1.35,1.35,0,0,1,103.25,58.92Z"></path>
            <path class="cls-14" d="M82.75,69.88s6.81-6,10.54-6.3,6.09-1.22,4.15,2.51c0,0-1.72,1,2.15,2.22a9.66,9.66,0,0,0,6.23.18c.56,0,4.8.39,2.87,2.9,0,0-1.36.43,1.15,1.29s5.59,2.29,6.52,7.09c0,0,2.15,1.86,1.29,2.44s-8.1-5.23-9.46-5.31c0,0,1.29,4.95-3.23,4.37a4,4,0,0,1-2.5-2.72c-.79-2.29-4.66-4.08-4.66-4.08s-1.09-.5-.72.71-.82,2.66-1.38,3-1.91,1.65-2.84-.5S85.48,69.45,82.75,69.88Z"></path>
            <path class="cls-16" d="M88.36,60.49c4.86-1.25,9.73-2.88,15.79-1"></path>
            <path class="cls-17" d="M97,49.8l-2,2.26a29.61,29.61,0,0,1-2.4,2.48A22.26,22.26,0,0,0,89,59.28"></path>
            <path class="cls-15" d="M88.54,47.83c-.1,1.38-.33,2.76-.48,4.15A14,14,0,0,0,88,56.07c.07.36.62.2.55-.16a14.12,14.12,0,0,1,.12-4c.15-1.34.37-2.68.46-4,0-.37-.55-.37-.57,0Z"></path>
            <path class="cls-15" d="M94.52,41.07A45.45,45.45,0,0,0,92.27,48c0,.18.24.26.28.08a45.09,45.09,0,0,1,2.25-6.89c.06-.17-.22-.25-.28-.08Z"></path>
            <path class="cls-15" d="M99,36.33a31.15,31.15,0,0,1-6.39,11.85l-.43-.37A30.9,30.9,0,0,0,99,36.33Z"></path>
            <path class="cls-15" d="M92.51,48.1c1.72-1.34,3.73-2.24,5.45-3.56s3.69-2.69,6.05-2.94c.18,0,.18-.3,0-.28A11.33,11.33,0,0,0,98.14,44c-1.83,1.46-4,2.42-5.83,3.86-.15.11.06.31.2.2Z"></path>
            <path class="cls-15" d="M88.49,60.23a14.21,14.21,0,0,1,.81-6.93,21.3,21.3,0,0,1,4.09-6c.24-.27-.16-.68-.41-.4A22.22,22.22,0,0,0,88.81,53a14.75,14.75,0,0,0-.9,7.24c0,.37.61.37.58,0Z"></path>
            <g>
              <path class="cls-18" d="M96.27,50.37l-.62,2.25,1.91-.91,2,2-.38-2.2L103,49.56l-3.66-1s.07-2.3-.5-2.63c0,0-1.43,2.05-1.48,2.24a9.13,9.13,0,0,1-3.3-.38C93.69,47.6,95.12,50,96.27,50.37Z"></path>
              <path class="cls-18" d="M103.53,43.93c-.38,0-1.43,1.29-1.43,1.29a6.78,6.78,0,0,0-.24-2.06,7.93,7.93,0,0,0-2.39,0s1.91-.81,2-1.14-.79-1.77-.69-2.11c0,0,1.57.72,1.91.58a21.93,21.93,0,0,0,2-1.67s-.58,1.67,0,2,2.53.1,2.86.38c0,0-3.34.72-2.39,1.87a3.74,3.74,0,0,1,1,1.81A4.35,4.35,0,0,0,103.53,43.93Z"></path>
              <path class="cls-18" d="M100,37.29a6.72,6.72,0,0,1,2.49-.34,8.87,8.87,0,0,0-1.91-.81c-.53,0,0-1.38.09-1.58s.57-1.38.57-1.38a16.08,16.08,0,0,0-1.81.91c-.19.19-.62.24-1-.67A2.39,2.39,0,0,0,97,32.22s1.15,2.39.24,2.92a2.44,2.44,0,0,1-1.91.14,3.33,3.33,0,0,0,1.2,1.1c.57.19.62.72.47,1.29s-.57,1.1-.38,1.53c0,0,.77-1.15,1.39-1s1.29,1.34,1.76,1.53C99.8,39.77,99.16,37.51,100,37.29Z"></path>
              <path class="cls-18" d="M95.93,41.49c.18-.08,1.29-.53,1.34-1.19,0,0-1.34.23-1.62-.53a3.09,3.09,0,0,1,0-1.72s-.72,0-.86,1-.86-1.2-1.43-1.15c0,0,.52,1.53.23,1.91s-1.91-.19-1.91-.38.34.86,1.1,1.1a.89.89,0,0,1,.67,1c0,.1-.81,1.1-.52,1.48,0,0,.57-1,1.29-.95s1.33,1,1.71.95C95.93,43,95.33,41.78,95.93,41.49Z"></path>
              <path class="cls-18" d="M90.68,47l.76-4.25S90.35,45.88,89.58,46s-2.86-3.25-2.86-3.25S88.34,45.45,88,46s-3.59.24-3.59.24-1.43.33.29.76,3.1.39,2.72,1.05-2.48,3.3-1.29,2.58,2.34-2.62,2.39-1.53-.52,5,.14,3.54S89.58,48,90.2,48.7s3.44,3.87,2.44,2.06S90.52,47.85,90.68,47Z"></path>
            </g>
          </g>
          <g>
            <path class="cls-14" d="M37,66.61a13.57,13.57,0,0,1-7.38-2.87C26.08,61,21.49,57.15,21,56.87s-3.15,1.72-1.29,6.37c0,0,1.44,1.87-1.22,1.08s-9-4.66-10.67-1.94,0,3.3,0,3.3A17.2,17.2,0,0,0,.86,69.12c-2.72,2.51,1.86,2.36,2.22,2.36S9,70,9.1,71,8,75,11.46,74.56s5.23-4.07,6-4,1.86.28,1.36,1.85-.57,4.45,3.3,3.52,7.38-5.16,7.59-4.52-.43,1.08-1.07,1.51a31,31,0,0,0-5.09,7c-.71,1.86-6.45,4.87-6.16,12.89,0,0,.07,2.51,1.58,2,0,0-1,6.16,2.93,8.09,0,0,1,8.89,3.08,9.1,0,0-.57-10.38.86-13.39,0,0,.36-9.68,1-13.69S27.53,71.67,37,67.33Z"></path>
            <path class="cls-14" d="M61.26,75.5s-6.38-2-11.9,4.15c0,0-1.27,1.72.66,2.22,0,0-5.6,4.52-5.67,7.17s-.07,1.86.57,2.43-.21,6.52,1.72,8,2.22-7.24,2.22-7.24,2.19,3.41,3.93-7.86c0,0,4.31,2.42,5.24-2.38s3.44-5.52,5-5.31S61.26,75.5,61.26,75.5Z"></path>
            <path class="cls-14" d="M51.59,70.56c.35,0-11.24.85-7.27,10.24,0,0,2.54,7.66-2.33,5.87a22.85,22.85,0,0,0-.86,5.66c.14,2-.22,3.8-2,3,0,0,.43,3.94-.72,3.94s-2.93-.43-4.58-6.73c0,0-4.23.79-2.73-4S34.18,71,51.59,70.56Z"></path>
            <path class="cls-15" d="M34.18,67.88A49.28,49.28,0,0,1,74.92,88.23c.48.67,1.6,0,1.12-.65A50.69,50.69,0,0,0,44.86,67.51a48.5,48.5,0,0,0-10.68-.92.65.65,0,0,0,0,1.29Z"></path>
            <path class="cls-17" d="M26.11,48.89C29.05,50,31.9,51.7,35,51.59"></path>
            <path class="cls-17" d="M38.73,51.27a36.3,36.3,0,0,1,3.5,6.34"></path>
            <path class="cls-17" d="M31.09,54.43a7.82,7.82,0,0,0,2.65.33,17.58,17.58,0,0,1,5.27.61"></path>
            <path class="cls-17" d="M39,60a8.7,8.7,0,0,0,3.89,2.74c1.86.81,4.29,1.88,6.23,2.51"></path>
            <path class="cls-17" d="M45.74,56.73a13.08,13.08,0,0,1,2.59,6.67"></path>
            <path class="cls-15" d="M32.81,46.43a22.81,22.81,0,0,0,2,5.28,11.12,11.12,0,0,0,4.09,3.91c.31.19.6-.3.29-.49a10.5,10.5,0,0,1-4-3.84,22.28,22.28,0,0,1-1.83-5,.29.29,0,0,0-.56.15Z"></path>
            <path class="cls-15" d="M38.64,55.44l4.3,3a18.65,18.65,0,0,1,3.86,3.09,14,14,0,0,1,2.13,4l1.83,4.73c.13.34.69.19.56-.15-.64-1.65-1.27-3.29-1.91-4.93a15.29,15.29,0,0,0-2.07-3.94,16.31,16.31,0,0,0-3.7-3.06L38.93,55c-.31-.21-.59.28-.29.49Z"></path>
            <path class="cls-18" d="M38.09,58.72a16.09,16.09,0,0,1-2-1.4v2l-3,2.27,3.86,1,.76,2.27.93-2.27,2.7-.29s-1.38-1-1.4-1.38a29.44,29.44,0,0,1,1-3.17Z"></path>
            <polygon class="cls-18" points="30.59 56.53 32.26 57.48 32.28 55.15 34.75 54.42 32.55 53.37 32.32 51.55 30.47 52.69 29.07 51.3 28.92 53.53 26.62 54.5 29.06 55.38 28.9 57.92 30.59 56.53"></polygon>
            <path class="cls-18" d="M26.13,49.77c-.44.17-1.73,1.9-2.22,1.94a6.51,6.51,0,0,0,.72-1.65c0-.45-.79-.57-1-.64s-1.17-.68-1.21-1a4.63,4.63,0,0,0,2.09-.09s-.6-1.89-.07-2.29c0,0,.7,1,1,1,0,0,.85-1.29,1.14-1.33a8.23,8.23,0,0,0,0,1.8s0,.29.16.3a8.2,8.2,0,0,0,1.8-.77c.12-.16-1.78,1.93-1.67,2.15s1.1,1.3,1,1.78C27.84,51,26.43,49.66,26.13,49.77Z"></path>
            <path class="cls-18" d="M31.77,46.14l-2.2.64,1.52-2.11S30,42.54,29.4,42.8a3.38,3.38,0,0,1,2.36.06s.62-2.32,1.15-2.63c0,0,.21,2.51.81,2.8a1.87,1.87,0,0,0,1.54-.12,3.14,3.14,0,0,1,.87-.25c-.06,0-2.27,2-1.67,2.47a5.06,5.06,0,0,1,1.33,1.68,6.87,6.87,0,0,0-1.94-.52,3.84,3.84,0,0,0-1.08,2.62c.22.65-.41-.41-.47-.86A19.5,19.5,0,0,0,31.77,46.14Z"></path>
            <path class="cls-18" d="M37.67,51.75c.1,0-.5,1.47-.08,2.34A10.4,10.4,0,0,1,38.85,52c.25,0,2,1.19,2.32,1,0,0-1.39-1.31-1.46-1.74s1.37-2,1.6-2.07a3.76,3.76,0,0,0-2,.57c-.36.43-.43-.64-.35-.73s.51-1.14.51-1.14-1.13.61-1.23,1-.34.27-.45,0a1.19,1.19,0,0,0-1.19-.38s1.26,1.46.63,2a2.89,2.89,0,0,1-1.91.31A2.63,2.63,0,0,0,37.67,51.75Z"></path>
            <path class="cls-18" d="M44.13,55.72S41.71,52.5,42,51.61c0,0,2.52,2.6,3.12,2.62a24.82,24.82,0,0,1,1.29-3.45c.28-.23,0,3.53,0,3.53S49.8,53,50,53.27s-2.54,2.58-2.54,2.58-.33,0,.27.57,2.22,1.29,2,1.35-2.69-1.21-2.87-.66a16.2,16.2,0,0,0,.29,3.4S45.4,58.69,45.26,57s-1.15,2.17-1.15,2.17-.27,1.13-.6.87S44.6,56.37,44.13,55.72Z"></path>
          </g>
          <g>
            <path class="cls-17" d="M83.28,78.09c.32,3.13.09,6.43,1.6,9.19"></path>
            <path class="cls-17" d="M86.82,90.43a36.12,36.12,0,0,1-4.09,6"></path>
            <path class="cls-17" d="M80.58,85a7.47,7.47,0,0,0,.89,2.51,17.39,17.39,0,0,1,1.81,5"></path>
            <path class="cls-17" d="M79.14,94.59a8.58,8.58,0,0,0-.7,4.71c.11,2,.24,4.68.55,6.69"></path>
            <path class="cls-17" d="M85.1,99.15a13.15,13.15,0,0,1-4.8,5.31"></path>
            <path class="cls-15" d="M88.48,83a23.2,23.2,0,0,0-3.79,4.07A11.13,11.13,0,0,0,83,92.53c0,.36.54.36.57,0a10.53,10.53,0,0,1,1.7-5.32,23.31,23.31,0,0,1,3.61-3.82c.28-.25-.13-.65-.4-.41Z"></path>
            <path class="cls-15" d="M83.06,92.17l-.74,5.19a18.69,18.69,0,0,1-1,4.87A14.36,14.36,0,0,1,78.62,106l-3.41,3.76c-.24.27.16.68.41.4,1.16-1.28,2.32-2.55,3.48-3.84a15.15,15.15,0,0,0,2.67-3.72,17.14,17.14,0,0,0,1-4.7l.8-5.56c0-.36-.51-.52-.56-.15Z"></path>
            <path class="cls-18" d="M79.88,93.21a16.51,16.51,0,0,1,.36-2.42l-1.79.88L75.06,90l.87,3.89-1.68,1.69,2.44-.18,1.47,2.29s.26-1.68.61-1.87A28,28,0,0,1,82,95.25Z"></path>
            <path class="cls-18" d="M82.51,78.5c-.35-.32-2.48-.69-2.73-1.11a6.65,6.65,0,0,0,1.79-.1c.42-.19.16-1,.15-1.15s.08-1.35.34-1.52c0,0,.47,1.49,1,1.83,0,0,1.41-1.39,2-1.1a4.25,4.25,0,0,0-.47,1.36s1.53.17,1.69.41a8.1,8.1,0,0,0-1.62.79s-.24.16-.19.28A8,8,0,0,0,86,79.44a11.47,11.47,0,0,0-2.67-.52c-.14.2-.66,1.57-1.16,1.67C82.16,80.59,82.74,78.72,82.51,78.5Z"></path>
            <path class="cls-18" d="M88.28,81.91l-1.56-1.68,2.57.41s1.39-2,.92-2.34a3.32,3.32,0,0,1,1,2.13s2.35-.49,2.86-.15c0,0-2.14,1.31-2.13,2a1.91,1.91,0,0,0,.79,1.32,3.41,3.41,0,0,1,.62.66c-.06,0-2.76-1.15-3-.38a5.3,5.3,0,0,1-.9,2,6.59,6.59,0,0,0-.41-2,3.82,3.82,0,0,0-2.82.21c-.49.49.17-.55.56-.81S88.28,81.91,88.28,81.91Z"></path>
            <path class="cls-18" d="M85.92,89.71c.06.07-1.54.21-2.13,1a10.52,10.52,0,0,1,2.43.19c.14.21-.19,2.3.11,2.54a7.64,7.64,0,0,1,.9-2.08c.35-.26,2.36.35,2.57.49a3.79,3.79,0,0,0-1.41-1.5c-.54-.14.38-.67.51-.64s1.24-.06,1.24-.06-1-.74-1.46-.65-.38-.18-.2-.4a1.2,1.2,0,0,0-.19-1.24s-.74,1.79-1.49,1.46-1.13-1.56-1.13-1.56A2.62,2.62,0,0,0,85.92,89.71Z"></path>
            <path class="cls-18" d="M85.27,97.26s1.8-3.61,2.73-3.73c0,0-1.2,3.42-1,4a24.41,24.41,0,0,1,3.67-.41c.33.15-3.17,1.57-3.17,1.57s2.72,2.43,2.54,2.73-3.44-1.1-3.44-1.1-.19-.28-.39.49-.16,2.56-.29,2.42-.13-2.94-.71-2.86a16.22,16.22,0,0,0-2.9,1.78s.83-2.4,2.25-3.26-2.47-.06-2.47-.06-1.13.27-1-.14S84.9,98,85.27,97.26Z"></path>
            <polygon class="cls-18" points="78.47 85.52 78.37 87.44 80.46 86.41 82.22 88.3 82.17 85.86 83.7 84.83 81.85 83.69 82.46 81.81 80.4 82.69 78.5 81.06 78.81 83.64 76.47 84.64 78.47 85.52"></polygon>
          </g>
        </g>
        <g>
          <g>
            <path class="cls-19" d="M78,154.57a1.32,1.32,0,0,0-1.26-.47c-.69.22-1,.77-.85,1a2.09,2.09,0,0,0,.26.26c.17.17.54-.31.56-.31Z"></path>
            <path class="cls-9" d="M78.41,155.41s-.22-1-.58-1-.76-.06-.76-.06l-.1.17s.35.63.49.67.42.12.48.15S78.41,155.41,78.41,155.41Z"></path>
            <path class="cls-10" d="M78.38,155.52c0-.08.09-.3-.14-.36a3.23,3.23,0,0,0-.46-.1s-.57.43-.69.5-.18.06.15.16.32.18.62.14A.91.91,0,0,0,78.38,155.52Z"></path>
            <path class="cls-11" d="M77.78,155.06a3.28,3.28,0,0,0-.42.41c-.17.2-.2.26-.4.16s-.72-.18-.86-.38-.13-.18,0-.42a1,1,0,0,1,.67-.41.6.6,0,0,1,.67.15A1.45,1.45,0,0,1,77.78,155.06Z"></path>
          </g>
          <g>
            <path class="cls-19" d="M60.18,148.07a1.94,1.94,0,0,0-2-.28c-.94.53-1.17,1.4-.93,1.65a2.89,2.89,0,0,0,.45.3c.3.19.68-.61.7-.62Z"></path>
            <path class="cls-9" d="M61,149.17s-.6-1.3-1.12-1.2-1.11.13-1.11.13l-.09.28s.69.79.92.82l.72.05A4.9,4.9,0,0,0,61,149.17Z"></path>
            <path class="cls-10" d="M61,149.35c0-.13,0-.46-.31-.49s-.7,0-.7,0-.68.8-.82.93-.26.14.25.18.52.17.94,0A1.32,1.32,0,0,0,61,149.35Z"></path>
            <path class="cls-11" d="M59.94,148.86a7.43,7.43,0,0,0-.47.72c-.18.34-.2.43-.52.35s-1.1,0-1.35-.28-.24-.21-.07-.61.4-.55.83-.79a.88.88,0,0,1,1,0A2.21,2.21,0,0,1,59.94,148.86Z"></path>
          </g>
          <g>
            <path class="cls-19" d="M72.8,145.49s-4-2-6.84.45-2.95,5.59-2,6.27a12.17,12.17,0,0,0,1.76.71c1.16.43,1.88-2.6,2-2.64S72.8,145.49,72.8,145.49Z"></path>
            <path class="cls-9" d="M76.23,148.67s-3-4-4.69-3.3-3.68,1.27-3.68,1.27l-.12,1s2.94,2.18,3.72,2.12,2.17-.32,2.51-.33A16.67,16.67,0,0,0,76.23,148.67Z"></path>
            <path class="cls-10" d="M76.35,149.27c0-.44-.21-1.58-1.41-1.42a16.7,16.7,0,0,0-2.37.5s-1.76,3.2-2.15,3.74-.75.67,1,.45,1.89.18,3.21-.62A4.57,4.57,0,0,0,76.35,149.27Z"></path>
            <path class="cls-11" d="M72.57,148.35a20.07,20.07,0,0,0-1.1,2.78c-.36,1.26-.38,1.61-1.53,1.55s-3.74.68-4.77,0-1-.56-.7-2,1-2.16,2.29-3.3a3,3,0,0,1,3.4-.71A7.74,7.74,0,0,1,72.57,148.35Z"></path>
          </g>
          <g>
            <path class="cls-19" d="M88.27,146.78S86,143.62,82.8,144.4s-4.5,3.16-4,4.07a12,12,0,0,0,1.08,1.25c.73.79,2.49-1.26,2.56-1.27S88.27,146.78,88.27,146.78Z"></path>
            <path class="cls-9" d="M89.67,150.6s-.73-4.28-2.32-4.41S84,145.7,84,145.7l-.49.74s1.41,2.86,2,3.11,1.81.62,2.07.75A14.36,14.36,0,0,0,89.67,150.6Z"></path>
            <path class="cls-10" d="M89.51,151.12c.15-.36.48-1.31-.52-1.67a14.34,14.34,0,0,0-2-.55s-2.63,1.77-3.15,2-.85.22.59.74,1.39.89,2.73.8A3.9,3.9,0,0,0,89.51,151.12Z"></path>
            <path class="cls-11" d="M87,148.9a19,19,0,0,0-2,1.71c-.78.84-.93,1.1-1.8.6s-3.16-1-3.7-1.88-.54-.82.27-1.84a4.62,4.62,0,0,1,3.07-1.65,2.62,2.62,0,0,1,2.93.8A6.75,6.75,0,0,1,87,148.9Z"></path>
          </g>
          <g>
            <path class="cls-19" d="M77.5,148.41s-3.33-2.56-6.35-.83-3.71,4.6-3,5.4a11.63,11.63,0,0,0,1.48,1c1,.61,2.2-2,2.27-2.06S77.5,148.41,77.5,148.41Z"></path>
            <path class="cls-9" d="M80.07,151.94s-2-4.2-3.7-3.86-3.61.49-3.61.49l-.28.91s2.3,2.53,3,2.61,2,.1,2.36.16A15.83,15.83,0,0,0,80.07,151.94Z"></path>
            <path class="cls-10" d="M80.07,152.52c0-.41.1-1.49-1-1.56a15.6,15.6,0,0,0-2.27,0s-2.19,2.61-2.64,3-.81.47.83.58,1.7.51,3.06,0A4.29,4.29,0,0,0,80.07,152.52Z"></path>
            <path class="cls-11" d="M76.77,151a20.15,20.15,0,0,0-1.51,2.35c-.56,1.09-.64,1.41-1.68,1.15s-3.55-.05-4.38-.84-.8-.69-.27-2,1.27-1.81,2.69-2.61a2.78,2.78,0,0,1,3.25,0A7.07,7.07,0,0,1,76.77,151Z"></path>
          </g>
          <g>
            <path class="cls-19" d="M94.81,154.24a2,2,0,0,0,1.85-.91c.49-1,.17-1.89-.18-2a3.76,3.76,0,0,0-.57,0c-.37,0-.22.94-.23,1S94.81,154.24,94.81,154.24Z"></path>
            <path class="cls-9" d="M93.49,153.76s1.29.76,1.68.37a10.88,10.88,0,0,1,.88-.77l-.09-.3a4.37,4.37,0,0,0-1.27-.16c-.21.11-.57.34-.66.38A4.72,4.72,0,0,0,93.49,153.76Z"></path>
            <path class="cls-10" d="M93.39,153.61c.06.11.24.41.55.23a4.74,4.74,0,0,0,.6-.41s.12-1.09.17-1.29.13-.27-.33,0-.55.17-.82.54A1.35,1.35,0,0,0,93.39,153.61Z"></path>
            <path class="cls-11" d="M94.54,153.43a6.78,6.78,0,0,0,0-.9c0-.4-.08-.49.24-.61s1-.62,1.32-.56.34,0,.43.48a1.63,1.63,0,0,1-.25,1.18.9.9,0,0,1-.87.59A2.3,2.3,0,0,1,94.54,153.43Z"></path>
          </g>
          <g>
            <path class="cls-19" d="M50.47,156.56a2,2,0,0,0,1.85-.91c.49-1,.17-1.9-.18-2a3.76,3.76,0,0,0-.57,0c-.37,0-.22.94-.23,1S50.47,156.56,50.47,156.56Z"></path>
            <path class="cls-9" d="M49.15,156.07s1.29.77,1.68.38.88-.78.88-.78l-.09-.3a4,4,0,0,0-1.27-.15c-.21.1-.57.34-.66.38A4.77,4.77,0,0,0,49.15,156.07Z"></path>
            <path class="cls-10" d="M49.05,155.92c.06.12.24.41.55.23a4.74,4.74,0,0,0,.6-.41s.12-1.09.17-1.29.13-.27-.33,0-.55.17-.82.55A1.32,1.32,0,0,0,49.05,155.92Z"></path>
            <path class="cls-11" d="M50.2,155.74a6.78,6.78,0,0,0,0-.9c0-.39-.08-.49.24-.61s1-.62,1.32-.56.34.05.43.49a1.63,1.63,0,0,1-.25,1.18.93.93,0,0,1-.86.59A2.46,2.46,0,0,1,50.2,155.74Z"></path>
          </g>
          <g>
            <path class="cls-19" d="M63.14,155a2.56,2.56,0,0,0,2.43-1c.72-1.23.38-2.4,0-2.52a3.84,3.84,0,0,0-.73,0c-.47,0-.36,1.17-.38,1.19S63.14,155,63.14,155Z"></path>
            <path class="cls-9" d="M61.5,154.23s1.57,1.08,2.11.62,1.18-.91,1.18-.91l-.08-.38a5.24,5.24,0,0,0-1.61-.32c-.28.12-.75.39-.88.43A6.53,6.53,0,0,0,61.5,154.23Z"></path>
            <path class="cls-10" d="M61.38,154c.07.16.27.55.69.35a6.92,6.92,0,0,0,.8-.48s.24-1.37.32-1.62.19-.34-.42,0-.71.17-1.09.62A1.75,1.75,0,0,0,61.38,154Z"></path>
            <path class="cls-11" d="M62.87,153.89a8.4,8.4,0,0,0,.06-1.14c0-.5-.06-.63.36-.75s1.28-.71,1.73-.6.43.08.5.65a2,2,0,0,1-.42,1.48,1.15,1.15,0,0,1-1.15.68A2.91,2.91,0,0,1,62.87,153.89Z"></path>
          </g>
          <g>
            <path class="cls-19" d="M72.38,153.16a1.65,1.65,0,0,1,1.5-.23c.74.34.93.94.76,1.11a2.76,2.76,0,0,1-.35.22c-.22.13-.54-.41-.56-.42S72.38,153.16,72.38,153.16Z"></path>
            <path class="cls-9" d="M71.8,153.93s.44-.9.84-.85.87.08.87.08l.07.18s-.52.56-.69.58l-.56.05A3.71,3.71,0,0,1,71.8,153.93Z"></path>
            <path class="cls-10" d="M71.81,154.05a.25.25,0,0,1,.23-.34c.27,0,.54,0,.54,0s.54.53.66.61.2.1-.19.13-.4.13-.73,0A1,1,0,0,1,71.81,154.05Z"></path>
            <path class="cls-11" d="M72.58,153.7a3.39,3.39,0,0,1,.38.48c.14.22.17.29.41.22s.85,0,1-.21.18-.15,0-.42a1.11,1.11,0,0,0-.67-.52.72.72,0,0,0-.77,0A1.59,1.59,0,0,0,72.58,153.7Z"></path>
          </g>
          <g>
            <path class="cls-19" d="M86,149.35s-3.13-2.32-5.88-.65-3.35,4.33-2.63,5.05a10.26,10.26,0,0,0,1.39.86c.92.54,2-1.92,2-2S86,149.35,86,149.35Z"></path>
            <path class="cls-9" d="M88.4,152.56s-1.94-3.85-3.5-3.5-3.32.52-3.32.52l-.25.85s2.17,2.3,2.84,2.36,1.9.05,2.19.1A16.13,16.13,0,0,0,88.4,152.56Z"></path>
            <path class="cls-10" d="M88.41,153.1c0-.39.06-1.38-1-1.43a14.1,14.1,0,0,0-2.1.08s-2,2.46-2.39,2.86-.74.46.78.53,1.59.44,2.83,0A3.9,3.9,0,0,0,88.41,153.1Z"></path>
            <path class="cls-11" d="M85.33,151.75A17.6,17.6,0,0,0,84,154c-.5,1-.56,1.31-1.54,1.09s-3.28,0-4.06-.69-.75-.62-.29-1.83a4.62,4.62,0,0,1,2.44-2.47,2.59,2.59,0,0,1,3-.1A6.67,6.67,0,0,1,85.33,151.75Z"></path>
          </g>
          <g>
            <path class="cls-19" d="M69.27,153s-2.56-.47-3.72,1.35-.74,3.59-.09,3.81a7.13,7.13,0,0,0,1.09.1c.72.05.63-1.74.66-1.78S69.27,153,69.27,153Z"></path>
            <path class="cls-9" d="M71.69,154.17s-2.3-1.74-3.13-1.08a21,21,0,0,1-1.85,1.3l.1.58a8,8,0,0,0,2.41.58c.42-.16,1.15-.53,1.34-.59A9.25,9.25,0,0,0,71.69,154.17Z"></path>
            <path class="cls-10" d="M71.85,154.49c-.09-.24-.37-.85-1-.57a10,10,0,0,0-1.23.66s-.46,2.06-.59,2.43-.31.49.62.08,1.08-.2,1.69-.86A2.61,2.61,0,0,0,71.85,154.49Z"></path>
            <path class="cls-11" d="M69.61,154.58a11.06,11.06,0,0,0-.16,1.72c0,.76,0,1-.6,1.11s-2,1-2.65.79-.63-.15-.71-1a3.05,3.05,0,0,1,.73-2.2A1.72,1.72,0,0,1,68,154,4.47,4.47,0,0,1,69.61,154.58Z"></path>
          </g>
        </g>
      </g>
    </g>
  </g>
</svg>
