<?xml version="1.0" encoding="UTF-8"?>
<svg xmlns="http://www.w3.org/2000/svg" xmlns:xlink="http://www.w3.org/1999/xlink" viewBox="0 0 172.54 330.67">
  <defs>
    <style>
      .cls-1 {
        fill: #769b57;
      }

      .cls-2 {
        fill: #85563a;
      }

      .cls-3 {
        fill: #8e6848;
      }

      .cls-4 {
        fill: #713e21;
      }

      .cls-5 {
        fill: #9b714f;
      }

      .cls-6 {
        fill: #3d271f;
      }

      .cls-7 {
        fill: #69391e;
      }

      .cls-8 {
        fill: #a6b69b;
      }

      .cls-9 {
        clip-path: url(#clip-path);
      }

      .cls-10 {
        fill: #4e731c;
      }

      .cls-11 {
        clip-path: url(#clip-path-2);
      }

      .cls-12 {
        clip-path: url(#clip-path-3);
      }

      .cls-13 {
        clip-path: url(#clip-path-4);
      }

      .cls-14 {
        clip-path: url(#clip-path-5);
      }

      .cls-15 {
        clip-path: url(#clip-path-6);
      }

      .cls-16 {
        clip-path: url(#clip-path-7);
      }

      .cls-17 {
        clip-path: url(#clip-path-8);
      }

      .cls-18 {
        clip-path: url(#clip-path-9);
      }

      .cls-19 {
        clip-path: url(#clip-path-10);
      }

      .cls-20 {
        clip-path: url(#clip-path-11);
      }

      .cls-21 {
        clip-path: url(#clip-path-12);
      }

      .cls-22 {
        clip-path: url(#clip-path-13);
      }

      .cls-23 {
        clip-path: url(#clip-path-14);
      }

      .cls-24 {
        clip-path: url(#clip-path-15);
      }

      .cls-25 {
        clip-path: url(#clip-path-16);
      }

      .cls-26 {
        clip-path: url(#clip-path-17);
      }

      .cls-27 {
        clip-path: url(#clip-path-18);
      }

      .cls-28 {
        clip-path: url(#clip-path-19);
      }

      .cls-29 {
        clip-path: url(#clip-path-20);
      }

      .cls-30 {
        clip-path: url(#clip-path-21);
      }

      .cls-31 {
        clip-path: url(#clip-path-22);
      }

      .cls-32 {
        clip-path: url(#clip-path-23);
      }

      .cls-33 {
        clip-path: url(#clip-path-24);
      }

      .cls-34 {
        clip-path: url(#clip-path-25);
      }

      .cls-35 {
        fill: #6b472f;
      }

      .cls-36 {
        fill: #5c3624;
      }

      .cls-37 {
        fill: #795135;
      }

      .cls-38 {
        fill: #9a734f;
      }
    </style>
    <clipPath id="clip-path">
      <path class="cls-1" d="M86.52,39.73a20.12,20.12,0,0,0,12,2.46s-.59-2.43-1.83-2.85c0,0,6.42,2.58,9.22,1.06a9.35,9.35,0,0,0-2.66-3.12s5.48,2.08,9.34-.43A20.38,20.38,0,0,1,121,34s-5.93-3.66-12.21-2.84c0,0-.15-2.2.62-2.63s-8.38,1.74-9.89,2.69l2-3.37s-6-.82-9.13,4.16A2.41,2.41,0,0,0,91,31.17,13.46,13.46,0,0,0,86.52,39.73Z"></path>
    </clipPath>
    <clipPath id="clip-path-2">
      <path class="cls-1" d="M52.82,155.26a16.71,16.71,0,0,1-10-1.14s1.09-1.77,2.17-1.78c0,0-5.72.38-7.54-1.54A7.69,7.69,0,0,1,40.3,149s-4.85.23-7.24-2.74a16.91,16.91,0,0,0-5.9-4.43s5.62-1.35,10.35.91c0,0,.68-1.69.19-2.23s6.15,3.53,7.1,4.67L44.1,142s5,.91,6.12,5.63a2,2,0,0,1,1.27-.31A11.17,11.17,0,0,1,52.82,155.26Z"></path>
    </clipPath>
    <clipPath id="clip-path-3">
      <path class="cls-1" d="M89,26.72a18.65,18.65,0,0,1-9.62-6s2-1.26,3-.75c0,0-6-2.37-6.89-5.17a8.48,8.48,0,0,1,3.78-.4s-5-2.1-6-6.25A18.94,18.94,0,0,0,69.43.87s6.33,1.33,10,5.89c0,0,1.5-1.39,1.26-2.18s4.53,6.53,4.94,8.13l.81-3.54s4.59,3.3,3.49,8.63a2.25,2.25,0,0,1,1.44.3A12.45,12.45,0,0,1,89,26.72Z"></path>
    </clipPath>
    <clipPath id="clip-path-4">
      <path class="cls-1" d="M40.18,73.74a23.35,23.35,0,0,1-12.42,6.82s-.18-2.91,1-3.79c0,0-6.24,5-9.87,4.33,0,0,.61-3.08,1.89-4.37,0,0-5.37,4.17-10.51,2.71A23.61,23.61,0,0,0,0,79.14s5.33-6.09,12.58-7.32c0,0-.59-2.49-1.59-2.71s9.89-.93,11.89-.39l-3.36-3.06s6.43-3,11.55,1.5a2.81,2.81,0,0,1,1.22-1.38A15.59,15.59,0,0,1,40.18,73.74Z"></path>
    </clipPath>
    <clipPath id="clip-path-5">
      <path class="cls-1" d="M84.67,52.85a23.41,23.41,0,0,1-13.42-4.57s2-2.09,3.51-1.78c0,0-7.94-1.2-9.86-4.36,0,0,2.68-1.63,4.5-1.55,0,0-6.7-1.15-9.09-5.93a23.6,23.6,0,0,0-6.74-7.82s8.09-.17,13.89,4.35c0,0,1.44-2.12.92-3s7.36,6.67,8.32,8.51V32.15s6.53,2.73,6.69,9.54a2.74,2.74,0,0,1,1.84,0A15.64,15.64,0,0,1,84.67,52.85Z"></path>
    </clipPath>
    <clipPath id="clip-path-6">
      <path class="cls-1" d="M104.52,182.1c.27-.13,2.81,3.23,4.55,4.29s8.19,1.17,8.19,1.17-.28-3.11-1.26-4c0,0,2.14,2.32,6.45.12,0,0-1.51-2.86-1.42-2.9s4.42-.14,5.39-1.84,6.62-8.27,7.57-8.39-7.6-1.12-9-1.45-7.93.27-8.55,2.7c0,0,.27-4,.73-4.5s-5.42,1.07-7,5.74c0,0,.08-3.52-.28-3.56s-4.55,4.45-4.81,7.61S104.52,182.1,104.52,182.1Z"></path>
    </clipPath>
    <clipPath id="clip-path-7">
      <path class="cls-1" d="M93.55,51.85c.23-.05,1.5,3.1,2.63,4.29s6.13,2.64,6.13,2.64.44-2.48-.15-3.37c0,0,1.18,2.26,5,1.45,0,0-.56-2.54-.48-2.55s3.46.83,4.57-.3,6.9-5,7.66-4.93-5.68-2.47-6.69-3-6.24-1.46-7.22.3c0,0,1.06-3.1,1.51-3.35s-4.44-.31-6.63,3c0,0,.81-2.72.54-2.83s-4.48,2.51-5.35,4.91S93.55,51.85,93.55,51.85Z"></path>
    </clipPath>
    <clipPath id="clip-path-8">
      <path class="cls-1" d="M124.24,121.33c.24,0,.29,3.44.92,5s4.77,4.66,4.77,4.66,1.3-2.16,1.08-3.2c0,0,.28,2.53,4.13,3.15,0,0,.39-2.58.47-2.56s2.93,2,4.37,1.37,8.25-2.23,8.92-1.86-4.41-4.35-5.16-5.23-5.3-3.59-6.85-2.3c0,0,2.1-2.51,2.61-2.59s-4-1.88-7.26.43c0,0,1.73-2.25,1.52-2.46s-5.08.74-6.75,2.66S124.24,121.33,124.24,121.33Z"></path>
    </clipPath>
    <clipPath id="clip-path-9">
      <path class="cls-1" d="M69.53,122.52c-.15.18,1.93,2.82,2.39,4.38s-.76,6.55-.76,6.55-2.34-.85-2.81-1.78c0,0,1.35,2.12-1.22,5,0,0-1.9-1.73-1.95-1.67s-1,3.38-2.5,3.78-7.72,3.43-8,4.14.68-6.09.71-7.23,1.82-6.07,3.81-6.05c0,0-3.18-.61-3.61-.35s1.92-4,5.83-4.2c0,0-2.73-.65-2.69-.94s4.36-2.61,6.84-2.17S69.53,122.52,69.53,122.52Z"></path>
    </clipPath>
    <clipPath id="clip-path-10">
      <path class="cls-1" d="M123.16,115.52c.26-.17,3.3,2.9,5.22,3.74s8.5.06,8.5.06-.72-3.13-1.84-3.88c0,0,2.5,2.07,6.58-.78,0,0-1.92-2.69-1.84-2.75s4.48-.75,5.23-2.61,5.6-9.33,6.55-9.59-7.9-.09-9.36-.23-8,1.37-8.33,3.93c0,0-.28-4.17.12-4.68s-5.37,1.83-6.29,6.8c0,0-.4-3.59-.78-3.59s-4,5.17-3.85,8.41S123.16,115.52,123.16,115.52Z"></path>
    </clipPath>
    <clipPath id="clip-path-11">
      <path class="cls-1" d="M109,84c.22.22-2.13,3.78-2.55,5.81S108.11,98,108.11,98s2.89-1.33,3.38-2.57c0,0-1.49,2.84,2.09,6.21,0,0,2.22-2.41,2.29-2.34s1.63,4.18,3.59,4.52,10.16,3.53,10.6,4.39-1.52-7.66-1.67-9.1-3-7.5-5.5-7.26c0,0,4-1.12,4.55-.84s-2.87-4.82-7.86-4.7c0,0,3.39-1.12,3.32-1.48s-5.82-2.84-8.92-2S109,84,109,84Z"></path>
    </clipPath>
    <clipPath id="clip-path-12">
      <path class="cls-1" d="M119.58,68.42s3.31-6.2,14.31-1.18c0,0-1.16,2-2.58,1.77,0,0,8.06.07,10.13,9.79,0,0,8.5,10.52,5,18l-4.84-10.34s.9,3.53-1.94,5.06c0,0-3.87-7.06-4-7.47s-.23,1.29-2,2.68a54.55,54.55,0,0,0-3.62-5.43C128.77,79.74,120.07,72.22,119.58,68.42Z"></path>
    </clipPath>
    <clipPath id="clip-path-13">
      <path class="cls-1" d="M108.89,134.55s2.45-4.59,10.58-.88c0,0-.86,1.45-1.91,1.31,0,0,6,.06,7.49,7.23,0,0,6.28,7.78,3.68,13.28l-3.57-7.64s.66,2.61-1.44,3.74c0,0-2.85-5.21-2.93-5.52s-.17,1-1.46,2a41.16,41.16,0,0,0-2.67-4C115.69,142.91,109.26,137.35,108.89,134.55Z"></path>
    </clipPath>
    <clipPath id="clip-path-14">
      <path class="cls-1" d="M61.37,166.26s-3-3.81-9.84.91c0,0,1,1.19,2,.89,0,0-5.45,1-5.69,7.84,0,0-4.5,8.15-1.23,12.78l2-7.58s-.19,2.5,1.92,3.19c0,0,1.78-5.24,1.8-5.53s.31.84,1.66,1.57a36.78,36.78,0,0,1,1.8-4.11C56.49,175,61.49,168.89,61.37,166.26Z"></path>
    </clipPath>
    <clipPath id="clip-path-15">
      <path class="cls-1" d="M65.12,164s-3.15-5.75-11.51-5.57c0,0,1.67-4.48,8.54-3,0,0,2.23-3.78,7.62-.77,0,0,5.75-2.47,9.28,1.85,0,0-1.3,2.37-2.42,2.23,0,0,5.76,2.09,2.42,7.28C79.05,166,75,158.23,65.12,164Z"></path>
    </clipPath>
    <clipPath id="clip-path-16">
      <path class="cls-1" d="M119.64,63.39s-6.85-5.7-17.31-1.31c0,0-.12-6.5,9.31-8,0,0,.94-5.87,9.23-4.75,0,0,6-6,12.65-2.28,0,0-.46,3.65-1.94,4,0,0,8.31-.22,6.67,8C138.25,59.05,129.21,51.23,119.64,63.39Z"></path>
    </clipPath>
    <clipPath id="clip-path-17">
      <path class="cls-1" d="M103.6,133.62s.08-6,6.91-9.43c0,0-3.28-2.91-8.18,1.25,0,0-3.42-2.09-6.47,2.65,0,0-5.71.47-6.7,5.47,0,0,2.06,1.36,2.9.77,0,0-3.75,4.15,1.18,6.92C93.24,141.25,93.19,133.2,103.6,133.62Z"></path>
    </clipPath>
    <clipPath id="clip-path-18">
      <path class="cls-1" d="M105,73s.08-6,6.9-9.44c0,0-3.27-2.9-8.17,1.26,0,0-3.42-2.09-6.48,2.65,0,0-5.7.47-6.7,5.47,0,0,2.07,1.36,2.91.77,0,0-3.75,4.15,1.17,6.91C94.66,80.64,94.62,72.6,105,73Z"></path>
    </clipPath>
    <clipPath id="clip-path-19">
      <path class="cls-1" d="M117.5,119.36s3.51-4.56,10.72-3.27c0,0-.84-4.11-7-3.74,0,0-1.42-3.56-6.49-1.69,0,0-4.65-2.91-8.28.35,0,0,.8,2.23,1.79,2.26,0,0-5.27,1-3.08,6C105.17,119.25,109.76,113.05,117.5,119.36Z"></path>
    </clipPath>
    <clipPath id="clip-path-20">
      <path class="cls-1" d="M71.7,114.91s3.51-4.55,10.71-3.27c0,0-.84-4.11-7-3.73,0,0-1.42-3.57-6.48-1.69,0,0-4.65-2.92-8.29.34,0,0,.81,2.23,1.79,2.26,0,0-5.26,1-3.07,6C59.37,114.8,64,108.6,71.7,114.91Z"></path>
    </clipPath>
    <clipPath id="clip-path-21">
      <path class="cls-1" d="M60.21,73.32s-3.84-7-14-6.77c0,0,2-5.46,10.38-3.63,0,0,2.71-4.59,9.26-.94,0,0,7-3,11.28,2.25,0,0-1.58,2.89-2.93,2.71,0,0,7,2.54,2.93,8.86C77.13,75.8,72.17,66.32,60.21,73.32Z"></path>
    </clipPath>
    <clipPath id="clip-path-22">
      <path class="cls-1" d="M57.46,77.17s-9.66-3.46-16.27,1.18a4.06,4.06,0,0,0,2.57,3.15s-8,2.37-9.08,8.29c0,0,2.86,1.77,4.64,1.18,0,0-3.45,2.67-2.86,6.51s1.38,5.62,1.38,7.69,2,6.12,2,6.12a27.85,27.85,0,0,1,1.87-5.52c.89-1.38,4.15-6.71,4.39-8.49s.74-3.67.74-3.67.5,4.66,1.38,5.84l3.06-3.84c1.18-1.48,3.55-6.22,3.55-8.09a16.76,16.76,0,0,0,2.66,1.68A19.45,19.45,0,0,0,57.46,77.17Z"></path>
    </clipPath>
    <clipPath id="clip-path-23">
      <path class="cls-1" d="M58.66,114s-9.61-7.42-18.74-4.62a4.8,4.8,0,0,0,1.73,4.48s-9.85-.26-13.23,6c0,0,2.57,3,4.78,3,0,0-4.86,1.73-5.6,6.27s-.5,6.83-1.26,9.16,0,7.6,0,7.6,2.63-4.3,4.13-5.53,7.11-6,8-7.93a43.49,43.49,0,0,1,2.17-3.87s-1.15,5.43-.58,7.08l4.84-3.2c1.88-1.23,6.27-5.69,6.95-7.8a18.83,18.83,0,0,0,2.39,2.86A23.06,23.06,0,0,0,58.66,114Z"></path>
    </clipPath>
    <clipPath id="clip-path-24">
      <path class="cls-1" d="M132.16,63s2-4.24,3.64-5.54a3.45,3.45,0,0,1,2.8-.26s2.28-5,5-5.66c0,0,1.45,1.37,1.23,2.8,0,0,3.93-4.33,9.1-3.74,0,0,.11,3.16-.69,4,0,0,6.46-1.65,10.91,1.65a20.09,20.09,0,0,0,8.35,3.83s-8.82,4.59-11.48,5.37-7.85,1-9.06.29c0,0,2.42,2.34,2.62,4.53,0,0-6.35-.92-9.44-2.85,0,0,1.53,3.22.35,4.74,0,0-2.06-2.28-3.34-2.7a8.27,8.27,0,0,1-2.76-2.22s-.13,2.4-.89,2.82A11,11,0,0,1,132.16,63Z"></path>
    </clipPath>
    <clipPath id="clip-path-25">
      <path class="cls-1" d="M89.88,24.09S84,18.66,92.69,8c0,0,1.83,1.84,1.21,3.36,0,0,2.4-8.88,13.72-8.38,0,0,14-6.36,21.28-.35L116.09,5s4.16,0,5,3.61c0,0-8.91,2.24-9.39,2.23s1.36.63,2.39,3a62,62,0,0,0-7,2.43C105,17.19,94.22,24.64,89.88,24.09Z"></path>
    </clipPath>
  </defs>
  <g id="Слой_2" data-name="Слой 2">
    <g id="Слой_10" data-name="Слой 10">
      <g>
        <g>
          <polygon class="cls-2" points="36.3 307.15 86.27 330.67 132.49 307.27 84.44 286.9 36.3 307.15"></polygon>
          <polygon class="cls-2" points="28.58 240.41 86.27 264.51 138.69 242.28 86.27 223.79 28.58 240.41"></polygon>
          <path class="cls-3" d="M86.27,264.51v30.28s15.94-11.76,22.42-12.35,19.1,24.24,23.8,24.83l6.2-65Z"></path>
          <path class="cls-4" d="M32.8,276.56l3.5,30.59,50,23.52V294.79S58.68,283,55.74,278.91s-22.94-2.35-22.94-2.35"></path>
          <path class="cls-5" d="M28.58,240.41l4.22,36.15s5.38.43,11.18.59c7.25.19,14.11,4.9,19.6,10.39,6.38,6.38,22.69,7.25,22.69,7.25V264.51Z"></path>
          <path class="cls-6" d="M67,298.63a2.48,2.48,0,0,0-.11-.89h0s-.39-1-1.28-1-1.43.5-1.37.77l.2.41,0,0,.75.62.14.11.15.11c.34.24.3.34.66.41a1.06,1.06,0,0,0,.73-.18l.08-.13h0v0Z"></path>
          <path class="cls-6" d="M45.23,294.46a4.37,4.37,0,0,0-1.49.82h0s-1.5,1.38-.91,3,1.89,2.16,2.33,1.86l.59-.63v-.06a17.11,17.11,0,0,0,.58-1.76l.08-.31.09-.34c.19-.78.39-.77.26-1.46a2,2,0,0,0-.84-1.15l-.28-.05h0Z"></path>
          <path class="cls-6" d="M80.45,314.81A10.81,10.81,0,0,0,78.54,311h0s-3.31-3.9-7.35-2.59-5.59,4.54-4.89,5.68a14.59,14.59,0,0,0,1.53,1.52l.14,0c1.18.77,3.38,1.13,4.36,1.62a2.28,2.28,0,0,0,.78.25l.83.26c1.94.54,1.9,1,3.65.79a5.19,5.19,0,0,0,3-2,3.35,3.35,0,0,0,.12-.69h0l0-.07a1.27,1.27,0,0,0-.28-1"></path>
          <path class="cls-6" d="M54.33,301.52a8.62,8.62,0,0,0-1.86,2.69h0s-1.4,3.66,1,5.89,5.11,2.09,5.61,1.19a11.82,11.82,0,0,0,.47-1.59l0-.09a29.07,29.07,0,0,0-.53-3.53,1.81,1.81,0,0,0-.11-.62c0-.17-.07-.35-.14-.66-.34-1.49,0-1.65-.8-2.73a4,4,0,0,0-2.45-1.27l-.51.17h0l0,0a1,1,0,0,0-.54.53"></path>
          <path class="cls-7" d="M86.27,294.79s11.24-15.88,24.18-16.27,25.69-9.81,25.69-9.81l-3.65,38.56-46.22,23.4Z"></path>
          <path class="cls-6" d="M102.75,300.84a11,11,0,0,0-4,1.33v0s-4.3,2.69-3.59,6.84,3.66,6.13,4.88,5.6a15.61,15.61,0,0,0,1.71-1.28l0-.13c.93-1.06,1.6-3.17,2.21-4.06a2,2,0,0,0,.36-.72c.11-.2.21-.42.37-.78.81-1.82,1.29-1.72,1.3-3.46a5.12,5.12,0,0,0-1.54-3.21,3.36,3.36,0,0,0-.66-.22v0h-.08a1.27,1.27,0,0,0-1,.14"></path>
          <path class="cls-6" d="M124,299.59a3.28,3.28,0,0,0-1.26-.3h0a2.31,2.31,0,0,0-2,1.18c-.49,1.18,0,2.18.35,2.24l.65-.05,0,0a12.3,12.3,0,0,0,1.23-.69l.21-.13.22-.14c.51-.34.61-.24.9-.69a1.56,1.56,0,0,0,.12-1.07l-.13-.17h0Z"></path>
          <path class="cls-6" d="M120.15,288.46a8.56,8.56,0,0,0-2.84-1.67l0,0s-3.79-1.13-5.85,1.41-1.71,5.29-.77,5.73a10.92,10.92,0,0,0,1.63.35l.09-.05a28.27,28.27,0,0,0,3.51-.79,1.51,1.51,0,0,0,.6-.16c.17,0,.36-.09.66-.19,1.48-.46,1.66-.12,2.68-1a4,4,0,0,0,1.09-2.55l-.21-.5h0l0,0a.94.94,0,0,0-.58-.5"></path>
        </g>
        <g>
          <path class="cls-8" d="M84.65,199.89c-2-4.15-4.13-8.25-6.42-12.26s-4.73-7.94-7.34-11.75a126.59,126.59,0,0,0-8.44-11,73.53,73.53,0,0,0-10-9.51h0a.5.5,0,0,1-.09-.7.48.48,0,0,1,.69-.09,73.59,73.59,0,0,1,10.3,9.5,125.57,125.57,0,0,1,8.71,10.95c2.7,3.81,5.2,7.74,7.59,11.74s4.63,8.08,6.69,12.3a.93.93,0,0,1-1.68.82h0Z"></path>
          <path class="cls-8" d="M84.13,241.09l-.14-.62-.07-.48c0-.33-.07-.59-.1-.89l-.14-1.69c-.08-1.11-.14-2.2-.19-3.29-.09-2.19-.17-4.36-.22-6.53q-.15-6.5-.2-13c0-8.66,0-17.31,0-25.95q.2-26,.58-51.88l1-51.86c.18-8.64.3-17.28.64-25.94q.24-6.48.68-13,.21-3.24.54-6.48c.24-2.17.44-4.29.9-6.49a.34.34,0,0,1,.4-.26.35.35,0,0,1,.27.37v.06c-.52,4.19-.47,8.57-.6,12.87S87.38,54.7,87.35,59l0,25.93.09,51.86q0,25.92.16,51.85l.22,25.91c0,4.31.08,8.63.17,12.93l.15,6.44c0,1.07.08,2.13.14,3.18l.11,1.55c0,.23,0,.51.07.71l0,.32a1.16,1.16,0,0,1,0,.18l0,.47a2.28,2.28,0,0,1-4.5.75Z"></path>
          <path class="cls-8" d="M85.49,109.17a42,42,0,0,1,1.75-8.8,45.82,45.82,0,0,1,3.39-8.23,41.08,41.08,0,0,1,5-7.37,35.92,35.92,0,0,1,3.08-3.21c1.11-1,2.2-1.93,3.3-2.9,2.19-1.91,4.37-3.84,6.63-5.7a42.84,42.84,0,0,1,7.3-5,57.29,57.29,0,0,1,8.12-3.38c1.39-.47,2.79-.9,4.2-1.28.71-.19,1.42-.36,2.14-.53a12.27,12.27,0,0,1,2.17-.35h0a.28.28,0,0,1,.28.27.29.29,0,0,1-.21.28,67.56,67.56,0,0,0-16.19,6c-5,2.76-9.14,6.93-13.47,10.8-1.06,1-2.18,2-3.19,2.93a35.83,35.83,0,0,0-2.89,3.15A38.58,38.58,0,0,0,92.32,93,43.74,43.74,0,0,0,89.25,101a40.38,40.38,0,0,0-1.47,8.32v.06a1.15,1.15,0,1,1-2.29-.13Z"></path>
          <path class="cls-8" d="M37.65,73.27a56,56,0,0,1,7.22.12,63.65,63.65,0,0,1,7.14.92,49.32,49.32,0,0,1,13.65,4.56,77.33,77.33,0,0,1,12.17,7.71,49.4,49.4,0,0,1,5.41,4.83,27,27,0,0,1,4.51,5.86A1,1,0,1,1,86,98.2l0,0v0a25.67,25.67,0,0,0-3.93-5.64A49.92,49.92,0,0,0,77,87.63a73.8,73.8,0,0,0-11.79-7.87,46.77,46.77,0,0,0-13.34-4.59,56.77,56.77,0,0,0-14.12-.91h0a.51.51,0,0,1-.54-.47.5.5,0,0,1,.47-.53Z"></path>
          <path class="cls-8" d="M117.67,121.26c-3.29,3.52-6.41,7.2-9.43,10.94s-5.92,7.59-8.61,11.57a114.91,114.91,0,0,0-7.42,12.29,58.92,58.92,0,0,0-5.09,13.21v0a1.16,1.16,0,1,1-2.26-.52v0a60.74,60.74,0,0,1,5.73-13.54A117.43,117.43,0,0,1,98.52,143c2.85-3.92,5.9-7.68,9-11.35s6.41-7.23,9.82-10.65a.21.21,0,0,1,.28,0A.2.2,0,0,1,117.67,121.26Z"></path>
          <path class="cls-8" d="M98.42,187.06a96,96,0,0,0-6.94,9.05A48.38,48.38,0,0,0,88.57,201a17.6,17.6,0,0,0-1.88,5.13h0a.81.81,0,0,1-.93.69.82.82,0,0,1-.69-.94.43.43,0,0,0,0-.05,19.32,19.32,0,0,1,2.33-5.48,48.06,48.06,0,0,1,3.23-4.81,94.78,94.78,0,0,1,7.49-8.74.2.2,0,0,1,.29,0,.22.22,0,0,1,0,.29Z"></path>
          <path class="cls-8" d="M89.57,26.59a24,24,0,0,1-.46,3.4,15.41,15.41,0,0,1-1.06,3.27.35.35,0,0,1-.64-.28h0a14,14,0,0,0,.86-3.14,21.25,21.25,0,0,0,.3-3.26v0a.5.5,0,0,1,.51-.49.5.5,0,0,1,.49.51Z"></path>
          <g>
            <g>
              <path class="cls-1" d="M86.52,39.73a20.12,20.12,0,0,0,12,2.46s-.59-2.43-1.83-2.85c0,0,6.42,2.58,9.22,1.06a9.35,9.35,0,0,0-2.66-3.12s5.48,2.08,9.34-.43A20.38,20.38,0,0,1,121,34s-5.93-3.66-12.21-2.84c0,0-.15-2.2.62-2.63s-8.38,1.74-9.89,2.69l2-3.37s-6-.82-9.13,4.16A2.41,2.41,0,0,0,91,31.17,13.46,13.46,0,0,0,86.52,39.73Z"></path>
              <g class="cls-9">
                <path class="cls-10" d="M87.46,41.16s-.1-1.75,2.52-1.1a69.78,69.78,0,0,0,7.31,1.13,49.1,49.1,0,0,1-4.45-2.93c-.34-.47,3.66-1.66,5.77-.47a14.94,14.94,0,0,0,4.93,1.51s-3.32-3-3.94-3.12S102,34.4,103.54,35s7.91,1,8.46,1.44l-4.87-1.9L121,34s-13.28-1.91-15.22-.84a9.94,9.94,0,0,0,.73-2.51,29.54,29.54,0,0,1-6,3.12A24.8,24.8,0,0,1,96,35s1.18-3.59,2.23-4.78c0,0-2.28.83-4.66,4.72,0,0-6.5,2.1-8.08,4S87.46,41.16,87.46,41.16Z"></path>
              </g>
            </g>
            <path class="cls-1" d="M86.54,39.54c.65-.37,1.31-.69,2-1s1.34-.59,2-.87c1.36-.54,2.74-1,4.13-1.47a57.21,57.21,0,0,1,8.55-2,55.52,55.52,0,0,1,8.74-.63,56.67,56.67,0,0,1,8.72.72,57,57,0,0,0-17.43.08,57.78,57.78,0,0,0-8.5,2c-1.38.45-2.75,1-4.09,1.51-.67.28-1.34.57-2,.89s-1.31.64-1.93,1Z"></path>
            <path class="cls-1" d="M90,38a26.21,26.21,0,0,0,2.75,1.51c.48.23,1,.44,1.45.63s1,.36,1.48.52c-.5-.14-1-.29-1.5-.48s-1-.37-1.46-.59a24,24,0,0,1-2.81-1.44Z"></path>
            <path class="cls-1" d="M95.67,36c1.07.38,2.14.77,3.21,1.18.53.21,1.06.41,1.58.64.27.11.53.22.78.34l.39.19.19.1.17.12-.18-.11-.19-.1c-.12-.07-.25-.12-.38-.18l-.79-.32c-.53-.21-1.07-.4-1.61-.6-1.07-.38-2.15-.74-3.23-1.09Z"></path>
            <path class="cls-1" d="M94.16,36.43,95.54,34l.7-1.23c.23-.4.46-.81.71-1.21-.23.41-.45.82-.67,1.24L95.62,34l-1.3,2.49Z"></path>
            <path class="cls-1" d="M101.19,34.58c.43-.18.85-.39,1.26-.61s.82-.45,1.21-.7a10.33,10.33,0,0,0,1.15-.81,6.55,6.55,0,0,0,1-1,7.12,7.12,0,0,1-1,1,13.23,13.23,0,0,1-1.13.84c-.39.27-.79.51-1.2.74s-.82.46-1.24.67Z"></path>
            <path class="cls-1" d="M103.84,34.14l3.57.87,1.77.45c.59.16,1.19.31,1.76.52-.57-.2-1.17-.33-1.77-.48l-1.78-.41-3.59-.78Z"></path>
          </g>
          <g>
            <g>
              <path class="cls-1" d="M52.82,155.26a16.71,16.71,0,0,1-10-1.14s1.09-1.77,2.17-1.78c0,0-5.72.38-7.54-1.54A7.69,7.69,0,0,1,40.3,149s-4.85.23-7.24-2.74a16.91,16.91,0,0,0-5.9-4.43s5.62-1.35,10.35.91c0,0,.68-1.69.19-2.23s6.15,3.53,7.1,4.67L44.1,142s5,.91,6.12,5.63a2,2,0,0,1,1.27-.31A11.17,11.17,0,0,1,52.82,155.26Z"></path>
              <g class="cls-11">
                <path class="cls-10" d="M51.72,156.15s.52-1.36-1.71-1.52a59.94,59.94,0,0,1-6-1,41.1,41.1,0,0,0,4.25-1.17c.39-.28-2.45-2.24-4.43-1.85a12.65,12.65,0,0,1-4.27-.08s3.4-1.54,3.91-1.45-1.46-2-2.78-2-6.49-1.27-7-1l4.33-.25-10.78-4s11,1.92,12.21,3.26a8.35,8.35,0,0,1,.07-2.17,24.93,24.93,0,0,0,3.92,4,20.8,20.8,0,0,0,3.18,2.13,16.18,16.18,0,0,0-.53-4.35s1.58,1.24,2.46,4.93c0,0,4.58,3.33,5.35,5.21S51.72,156.15,51.72,156.15Z"></path>
              </g>
            </g>
            <path class="cls-1" d="M52.86,155.1c-.42-.45-.86-.87-1.3-1.29s-.9-.81-1.37-1.2c-.93-.78-1.88-1.53-2.87-2.23a48.09,48.09,0,0,0-6.23-3.75,47.31,47.31,0,0,0-13.78-4.42,47.34,47.34,0,0,1,19.88,8.35c1,.7,1.92,1.46,2.84,2.24.46.39.9.8,1.34,1.21s.87.84,1.26,1.29Z"></path>
            <path class="cls-1" d="M50.55,153a20.25,20.25,0,0,1-2.56.48c-.43.06-.87.1-1.3.13s-.87,0-1.31,0c.44,0,.87,0,1.31,0s.87,0,1.31-.08a20.69,20.69,0,0,0,2.58-.42Z"></path>
            <path class="cls-1" d="M46.59,149.92c-.94,0-1.89.06-2.83.11l-1.41.09-.71.07-.35.05-.17,0-.17,0,.17,0a.86.86,0,0,1,.17,0l.35,0,.71-.05,1.41-.06,2.83,0Z"></path>
            <path class="cls-1" d="M47.66,150.69l-.46-2.29L47,147.26c-.08-.38-.15-.76-.24-1.14.08.38.14.76.21,1.15l.2,1.15.38,2.3Z"></path>
            <path class="cls-1" d="M42.59,147.42c-.29-.25-.56-.53-.83-.8s-.53-.57-.78-.87a10.66,10.66,0,0,1-.69-.93,5.53,5.53,0,0,1-.54-1,5.28,5.28,0,0,0,.51,1,9.15,9.15,0,0,0,.67,1c.23.31.49.6.75.89s.53.57.81.84Z"></path>
            <path class="cls-1" d="M40.62,146.39l-3-.23-1.52-.1c-.51,0-1-.07-1.52-.05.5,0,1,.05,1.52.09l1.51.13,3,.31Z"></path>
          </g>
          <g>
            <g>
              <path class="cls-1" d="M89,26.72a18.65,18.65,0,0,1-9.62-6s2-1.26,3-.75c0,0-6-2.37-6.89-5.17a8.48,8.48,0,0,1,3.78-.4s-5-2.1-6-6.25A18.94,18.94,0,0,0,69.43.87s6.33,1.33,10,5.89c0,0,1.5-1.39,1.26-2.18s4.53,6.53,4.94,8.13l.81-3.54s4.59,3.3,3.49,8.63a2.25,2.25,0,0,1,1.44.3A12.45,12.45,0,0,1,89,26.72Z"></path>
              <g class="cls-12">
                <path class="cls-10" d="M87.42,27.09s1.18-1.11-1-2.35a66,66,0,0,1-5.64-3.9,45.08,45.08,0,0,0,4.86.86c.53-.1-1.4-3.45-3.59-4a14,14,0,0,1-4.28-2.12s4.17.07,4.65.4-.51-2.75-1.87-3.33-6-4.39-6.62-4.43L78.43,10l-9-9.17S79.59,8.06,80.21,10a9.42,9.42,0,0,1,1.12-2.16,27.18,27.18,0,0,0,2,5.93,23.27,23.27,0,0,0,2.19,3.68,18.08,18.08,0,0,0,1.55-4.65s1,2,.13,6.16c0,0,3,5.57,2.91,7.83S87.42,27.09,87.42,27.09Z"></path>
              </g>
            </g>
            <path class="cls-1" d="M89.07,26.58c-.2-.66-.44-1.29-.69-1.93s-.52-1.25-.81-1.87c-.56-1.23-1.17-2.45-1.84-3.63a53.74,53.74,0,0,0-4.5-6.77,51.93,51.93,0,0,0-5.48-6,53.52,53.52,0,0,0-6.34-5.09,53.58,53.58,0,0,1,6.28,5.15,51.63,51.63,0,0,1,5.41,6,53.39,53.39,0,0,1,4.42,6.79c.65,1.18,1.24,2.4,1.79,3.63.28.61.54,1.24.78,1.87s.47,1.26.66,1.9Z"></path>
            <path class="cls-1" d="M87.73,23.37a25.44,25.44,0,0,1-2.82-.74c-.46-.15-.92-.31-1.37-.5s-.9-.38-1.33-.59c.43.22.86.44,1.31.63s.9.38,1.36.54a23.28,23.28,0,0,0,2.82.82Z"></path>
            <path class="cls-1" d="M85.22,18.34c-1-.43-1.94-.85-2.92-1.25l-1.47-.59-.75-.26c-.13,0-.25-.09-.38-.12l-.19-.05-.19,0,.19,0,.19.06.37.13.74.28c.49.2,1,.41,1.46.63,1,.42,1.92.87,2.88,1.32Z"></path>
            <path class="cls-1" d="M85.92,19.63l.64-2.54.31-1.26c.1-.43.21-.85.29-1.28-.1.43-.22.84-.33,1.26l-.35,1.26-.71,2.51Z"></path>
            <path class="cls-1" d="M82.37,13.89c-.17-.39-.32-.8-.46-1.21s-.26-.83-.37-1.25a11,11,0,0,1-.25-1.27,6.26,6.26,0,0,1-.06-1.3,6.28,6.28,0,0,0,0,1.3c.05.44.13.87.22,1.29s.21.85.33,1.27.27.83.42,1.24Z"></path>
            <path class="cls-1" d="M80.87,11.91c-1-.57-2-1.14-3-1.69l-1.49-.83c-.5-.27-1-.55-1.51-.78.51.24,1,.53,1.49.81l1.47.87,2.91,1.76Z"></path>
          </g>
          <g>
            <g>
              <path class="cls-1" d="M40.18,73.74a23.35,23.35,0,0,1-12.42,6.82s-.18-2.91,1-3.79c0,0-6.24,5-9.87,4.33,0,0,.61-3.08,1.89-4.37,0,0-5.37,4.17-10.51,2.71A23.61,23.61,0,0,0,0,79.14s5.33-6.09,12.58-7.32c0,0-.59-2.49-1.59-2.71s9.89-.93,11.89-.39l-3.36-3.06s6.43-3,11.55,1.5a2.81,2.81,0,0,1,1.22-1.38A15.59,15.59,0,0,1,40.18,73.74Z"></path>
              <g class="cls-13">
                <path class="cls-10" d="M39.63,75.65s-.48-2-3.17-.36A80.67,80.67,0,0,1,28.74,79a56.78,56.78,0,0,0,3.93-4.77c.22-.63-4.63-.59-6.56,1.45a17.45,17.45,0,0,1-5,3.36s2.65-4.5,3.3-4.81-3.31-1.14-4.78,0-8.44,3.79-8.9,4.49L15.53,75,0,79.14S14.09,72.48,16.6,73a11.77,11.77,0,0,1-1.66-2.54,34.71,34.71,0,0,0,7.71,1.42A29.11,29.11,0,0,0,28,71.76s-2.53-3.58-4.11-4.55c0,0,2.81.14,6.78,3.65,0,0,7.94.11,10.33,1.64S39.63,75.65,39.63,75.65Z"></path>
              </g>
            </g>
            <path class="cls-1" d="M40.09,73.54c-.84-.19-1.67-.32-2.52-.43s-1.69-.21-2.53-.28c-1.7-.14-3.4-.22-5.1-.23a67.69,67.69,0,0,0-10.15.75A65.6,65.6,0,0,0,.45,79.41a65.77,65.77,0,0,1,19.37-5.86,67.19,67.19,0,0,1,10.12-.64c1.69,0,3.38.12,5.06.28q1.26.12,2.52.3c.83.12,1.67.26,2.48.45Z"></path>
            <path class="cls-1" d="M35.77,73a28.53,28.53,0,0,1-2.54,2.62c-.44.41-.91.81-1.38,1.19s-1,.74-1.47,1.09c.51-.33,1-.68,1.5-1s1-.75,1.42-1.15a28.9,28.9,0,0,0,2.63-2.56Z"></path>
            <path class="cls-1" d="M28.74,72.67c-1.06.79-2.11,1.59-3.15,2.41-.52.41-1,.82-1.54,1.24l-.76.65-.36.34-.17.18-.16.19.17-.19.17-.17.37-.33.77-.63c.52-.41,1-.81,1.57-1.2,1.06-.79,2.14-1.56,3.21-2.32Z"></path>
            <path class="cls-1" d="M30.58,72.69l-2.37-2.25L27,69.32c-.4-.37-.79-.75-1.2-1.1.4.37.78.75,1.17,1.14l1.15,1.15,2.3,2.33Z"></path>
            <path class="cls-1" d="M22.15,73c-.54-.06-1.07-.15-1.61-.25s-1.06-.22-1.58-.36a14.77,14.77,0,0,1-1.55-.51A7.26,7.26,0,0,1,16,71.18a7.57,7.57,0,0,0,1.42.79,14.11,14.11,0,0,0,1.54.55c.52.17,1.05.3,1.58.42s1.07.22,1.61.31Z"></path>
            <path class="cls-1" d="M19.06,73.45,15.4,75.63c-.61.37-1.22.74-1.82,1.12s-1.21.74-1.78,1.17c.58-.42,1.2-.77,1.81-1.13s1.22-.72,1.84-1.07l3.71-2.09Z"></path>
          </g>
          <g>
            <g>
              <path class="cls-1" d="M84.67,52.85a23.41,23.41,0,0,1-13.42-4.57s2-2.09,3.51-1.78c0,0-7.94-1.2-9.86-4.36,0,0,2.68-1.63,4.5-1.55,0,0-6.7-1.15-9.09-5.93a23.6,23.6,0,0,0-6.74-7.82s8.09-.17,13.89,4.35c0,0,1.44-2.12.92-3s7.36,6.67,8.32,8.51V32.15s6.53,2.73,6.69,9.54a2.74,2.74,0,0,1,1.84,0A15.64,15.64,0,0,1,84.67,52.85Z"></path>
              <g class="cls-14">
                <path class="cls-10" d="M82.89,53.73S84,52,81,51.15A83.37,83.37,0,0,1,73,48a55.52,55.52,0,0,0,6.17-.32c.61-.27-2.69-3.81-5.5-3.86a17.57,17.57,0,0,1-5.83-1.39s5.11-1.08,5.79-.81-1.4-3.21-3.22-3.54-8.5-3.68-9.32-3.54l6,1L53.57,26.84S68,32.74,69.29,35A11.48,11.48,0,0,1,70.05,32a33.89,33.89,0,0,0,4.16,6.65,28.37,28.37,0,0,0,3.71,3.87s.93-4.28.58-6.1c0,0,1.79,2.17,1.88,7.46,0,0,5.28,5.94,5.76,8.74S82.89,53.73,82.89,53.73Z"></path>
              </g>
            </g>
            <path class="cls-8" d="M84.76,52.64c-.43-.74-.9-1.45-1.38-2.15s-1-1.38-1.51-2.06c-1-1.34-2.13-2.65-3.27-3.91a67.82,67.82,0,0,0-7.4-7,65.49,65.49,0,0,0-8.37-5.77,66.55,66.55,0,0,0-9.16-4.42,66.32,66.32,0,0,1,9.1,4.5,64.94,64.94,0,0,1,8.3,5.85,67.32,67.32,0,0,1,7.3,7c1.12,1.26,2.19,2.58,3.21,3.92.51.68,1,1.36,1.48,2.06s.93,1.41,1.34,2.14Z"></path>
            <path class="cls-8" d="M82.22,49.11A29.51,29.51,0,0,1,78.58,49c-.61,0-1.21-.12-1.82-.22s-1.2-.21-1.79-.35c.59.16,1.18.3,1.79.41s1.2.2,1.81.27a29.71,29.71,0,0,0,3.66.2Z"></path>
            <path class="cls-8" d="M77.74,43.68c-1.3-.25-2.6-.48-3.91-.7-.65-.11-1.3-.21-2-.3l-1-.11-.5,0h-.25l-.24,0h.49l.49.05c.33,0,.66.09,1,.15.66.1,1.31.22,2,.34,1.29.25,2.59.52,3.88.81Z"></path>
            <path class="cls-8" d="M79,45.05,79,41.79l0-1.64c0-.54,0-1.09,0-1.63,0,.54,0,1.09,0,1.63l-.08,1.63-.16,3.27Z"></path>
            <path class="cls-8" d="M73,39.07c-.31-.44-.61-.9-.89-1.36s-.56-.93-.8-1.41a13.2,13.2,0,0,1-.68-1.48,7.77,7.77,0,0,1-.43-1.57,8,8,0,0,0,.38,1.59c.18.51.4,1,.63,1.51s.49,1,.76,1.44.56.94.86,1.4Z"></path>
            <path class="cls-8" d="M70.62,37.07c-1.35-.42-2.71-.83-4.07-1.23l-2-.59c-.69-.19-1.37-.4-2.07-.52a20.74,20.74,0,0,1,2.05.57c.68.2,1.36.42,2,.64,1.36.43,2.7.88,4,1.33Z"></path>
          </g>
          <g>
            <g>
              <path class="cls-1" d="M104.52,182.1c.27-.13,2.81,3.23,4.55,4.29s8.19,1.17,8.19,1.17-.28-3.11-1.26-4c0,0,2.14,2.32,6.45.12,0,0-1.51-2.86-1.42-2.9s4.42-.14,5.39-1.84,6.62-8.27,7.57-8.39-7.6-1.12-9-1.45-7.93.27-8.55,2.7c0,0,.27-4,.73-4.5s-5.42,1.07-7,5.74c0,0,.08-3.52-.28-3.56s-4.55,4.45-4.81,7.61S104.52,182.1,104.52,182.1Z"></path>
              <g class="cls-15">
                <path class="cls-10" d="M110.86,187.76a25.57,25.57,0,0,0,6.4-.2s-2.32-4.3-6.28-5.41c-1.1-.3,1.88-.89,4.53.4a8.62,8.62,0,0,0,4.06,1,.49.49,0,0,0,.47-.5,5.08,5.08,0,0,0-2.61-4.55.28.28,0,0,1,0-.52c3.14-1.31,16.71-6.94,18.41-7,1.9,0-7.64-.52-22.07,5a.53.53,0,0,1-.69-.31,4.57,4.57,0,0,1-.13-3.3.16.16,0,0,0-.23-.2,12.6,12.6,0,0,0-4.07,4.42.3.3,0,0,1-.57-.12c0-.64,0-1.42-.07-2.12a.33.33,0,0,0-.48-.28c-3.24,1.72-3.61,4-4.34,5.29C101.75,181.9,107.77,187.38,110.86,187.76Z"></path>
              </g>
            </g>
            <path class="cls-8" d="M132.52,171.47l-4.62,1.25c-1.53.43-3.05.92-4.57,1.37s-3,1-4.53,1.53-3,1.1-4.45,1.73a71.36,71.36,0,0,0-8.58,4.15,28.76,28.76,0,0,0-7.5,5.71l-.34-.24a28.87,28.87,0,0,1,7.68-5.75,73.4,73.4,0,0,1,8.66-4.07c1.47-.61,3-1.11,4.48-1.68s3-1,4.55-1.48,3-.9,4.59-1.32Z"></path>
            <path class="cls-8" d="M105.25,181.4a20.26,20.26,0,0,1,3.17,1.74,17,17,0,0,1,2.77,2.29,16.51,16.51,0,0,0-2.88-2.11,20.4,20.4,0,0,0-3.2-1.53Z"></path>
            <path class="cls-8" d="M111.54,178.26a30.19,30.19,0,0,1,6.87,2.43,29.74,29.74,0,0,0-7-2Z"></path>
            <path class="cls-8" d="M105.31,181.28a17.34,17.34,0,0,1,.44-2.69,6.81,6.81,0,0,1,1-2.5,6.92,6.92,0,0,0-.84,2.54,18.37,18.37,0,0,0-.22,2.67Z"></path>
            <path class="cls-8" d="M109.72,179.17a7.08,7.08,0,0,1,.28-1.55,11.28,11.28,0,0,1,.55-1.44,12.85,12.85,0,0,1,1.63-2.59,12.48,12.48,0,0,0-1.43,2.67,10.4,10.4,0,0,0-.44,1.44,6.7,6.7,0,0,0-.18,1.46Z"></path>
          </g>
          <g>
            <g>
              <path class="cls-1" d="M93.55,51.85c.23-.05,1.5,3.1,2.63,4.29s6.13,2.64,6.13,2.64.44-2.48-.15-3.37c0,0,1.18,2.26,5,1.45,0,0-.56-2.54-.48-2.55s3.46.83,4.57-.3,6.9-5,7.66-4.93-5.68-2.47-6.69-3-6.24-1.46-7.22.3c0,0,1.06-3.1,1.51-3.35s-4.44-.31-6.63,3c0,0,.81-2.72.54-2.83s-4.48,2.51-5.35,4.91S93.55,51.85,93.55,51.85Z"></path>
              <g class="cls-16">
                <path class="cls-10" d="M97.29,57.58a20.29,20.29,0,0,0,5,1.2s-.9-3.84-3.75-5.53c-.79-.47,1.65-.3,3.44,1.26a7,7,0,0,0,3,1.61.39.39,0,0,0,.47-.29,4.08,4.08,0,0,0-1.07-4.09.23.23,0,0,1,.12-.4c2.72-.36,14.47-1.88,15.8-1.54,1.48.39-5.84-2-18.23-.73a.43.43,0,0,1-.47-.39,3.6,3.6,0,0,1,.59-2.59.13.13,0,0,0-.14-.21,10.19,10.19,0,0,0-4.1,2.59.24.24,0,0,1-.41-.22c.11-.5.26-1.12.39-1.66a.26.26,0,0,0-.32-.32c-2.88.65-3.66,2.38-4.49,3.2C91.43,51.11,95,56.64,97.29,57.58Z"></path>
              </g>
            </g>
            <path class="cls-8" d="M117.57,49.47h-3.86l-3.85.11c-1.28.06-2.56.15-3.84.23s-2.56.23-3.83.41a57,57,0,0,0-7.55,1.42,23.25,23.25,0,0,0-7,2.87l-.21-.26a23.37,23.37,0,0,1,7.19-2.86,59.41,59.41,0,0,1,7.59-1.34c1.28-.17,2.56-.24,3.84-.36s2.57-.15,3.85-.2l3.85-.06Z"></path>
            <path class="cls-8" d="M94.26,51.46A15.19,15.19,0,0,1,98,55.84a15.23,15.23,0,0,0-4-4.11Z"></path>
            <path class="cls-8" d="M99.81,50.33a24.52,24.52,0,0,1,4.84,3.34,24,24,0,0,0-5-3Z"></path>
            <path class="cls-8" d="M94.33,51.38a14,14,0,0,1,.91-2,5.48,5.48,0,0,1,1.34-1.72,5.33,5.33,0,0,0-1.19,1.8,13.28,13.28,0,0,0-.73,2Z"></path>
            <path class="cls-8" d="M98.2,50.66a7.26,7.26,0,0,1,1.28-2.15,10.74,10.74,0,0,1,1.82-1.68,10.47,10.47,0,0,0-1.68,1.78,6.94,6.94,0,0,0-1.09,2.13Z"></path>
          </g>
          <g>
            <g>
              <path class="cls-1" d="M124.24,121.33c.24,0,.29,3.44.92,5s4.77,4.66,4.77,4.66,1.3-2.16,1.08-3.2c0,0,.28,2.53,4.13,3.15,0,0,.39-2.58.47-2.56s2.93,2,4.37,1.37,8.25-2.23,8.92-1.86-4.41-4.35-5.16-5.23-5.3-3.59-6.85-2.3c0,0,2.1-2.51,2.61-2.59s-4-1.88-7.26.43c0,0,1.73-2.25,1.52-2.46s-5.08.74-6.75,2.66S124.24,121.33,124.24,121.33Z"></path>
              <g class="cls-17">
                <path class="cls-10" d="M125.68,128a20.3,20.3,0,0,0,4.25,2.92s.54-3.91-1.51-6.51c-.57-.72,1.65.31,2.76,2.41a6.89,6.89,0,0,0,2.18,2.56.39.39,0,0,0,.54-.1,4.1,4.1,0,0,0,.47-4.2.23.23,0,0,1,.26-.33c2.66.64,14.17,3.44,15.29,4.23s-4.73-4-16.75-7.22a.44.44,0,0,1-.31-.53,3.68,3.68,0,0,1,1.49-2.21.13.13,0,0,0-.06-.25,10.3,10.3,0,0,0-4.75,1,.25.25,0,0,1-.31-.36l1-1.4a.27.27,0,0,0-.18-.42c-2.92-.42-4.27.91-5.34,1.38C122.54,119.89,123.84,126.31,125.68,128Z"></path>
              </g>
            </g>
            <path class="cls-8" d="M147.14,127.54l-3.59-1.39-3.63-1.28c-1.22-.4-2.45-.77-3.68-1.16s-2.46-.71-3.71-1a59.1,59.1,0,0,0-7.56-1.39,23.32,23.32,0,0,0-7.6.15l-.11-.32a23.66,23.66,0,0,1,7.74-.08,57.49,57.49,0,0,1,7.57,1.47c1.25.3,2.47.7,3.71,1s2.45.78,3.66,1.2l3.62,1.32Z"></path>
            <path class="cls-8" d="M125.05,121.22a15.42,15.42,0,0,1,1.94,5.45,15,15,0,0,0-2.22-5.26Z"></path>
            <path class="cls-8" d="M130.64,122.17A24.19,24.19,0,0,1,134,127a23.9,23.9,0,0,0-3.56-4.62Z"></path>
            <path class="cls-8" d="M125.15,121.18a13.43,13.43,0,0,1,1.56-1.55,5.61,5.61,0,0,1,1.87-1.13,5.6,5.6,0,0,0-1.76,1.25,15.54,15.54,0,0,0-1.41,1.63Z"></path>
            <path class="cls-8" d="M129,121.89a7.07,7.07,0,0,1,2-1.54,10.63,10.63,0,0,1,2.3-.92,11,11,0,0,0-2.21,1.06,6.83,6.83,0,0,0-1.78,1.6Z"></path>
          </g>
          <g>
            <g>
              <path class="cls-1" d="M69.53,122.52c-.15.18,1.93,2.82,2.39,4.38s-.76,6.55-.76,6.55-2.34-.85-2.81-1.78c0,0,1.35,2.12-1.22,5,0,0-1.9-1.73-1.95-1.67s-1,3.38-2.5,3.78-7.72,3.43-8,4.14.68-6.09.71-7.23,1.82-6.07,3.81-6.05c0,0-3.18-.61-3.61-.35s1.92-4,5.83-4.2c0,0-2.73-.65-2.69-.94s4.36-2.61,6.84-2.17S69.53,122.52,69.53,122.52Z"></path>
              <g class="cls-18">
                <path class="cls-10" d="M72.61,128.56a20.29,20.29,0,0,1-1.45,4.89s-2.85-2.66-2.89-5.94c0-.91-1.07,1.27-.62,3.57a6.89,6.89,0,0,1-.07,3.33.39.39,0,0,1-.48.26,4,4,0,0,1-3-2.93.24.24,0,0,0-.41-.1c-1.64,2.16-8.73,11.49-9.09,12.79-.4,1.47,1.15-6,8.35-16a.43.43,0,0,0-.1-.6,3.57,3.57,0,0,0-2.52-.76.13.13,0,0,1-.11-.23,10.15,10.15,0,0,1,4.24-2.24.24.24,0,0,0,0-.46l-1.62-.48a.26.26,0,0,1-.12-.43c2-2.16,3.85-2,5-2.28C69.94,120.35,73,126.09,72.61,128.56Z"></path>
              </g>
            </g>
            <path class="cls-8" d="M55.83,141.57l1.86-3.33,2-3.27c.67-1.08,1.37-2.14,2.06-3.21s1.43-2.1,2.21-3.11a56.75,56.75,0,0,1,4.89-5.85,23.08,23.08,0,0,1,6-4.76l.12.31A22.88,22.88,0,0,0,69,123,59.09,59.09,0,0,0,64,128.75c-.78,1-1.49,2.06-2.23,3.08s-1.41,2.11-2.1,3.18l-2,3.25Z"></path>
            <path class="cls-8" d="M69.18,122.91a15,15,0,0,0,1.57,5.42,15,15,0,0,1-1.9-5.39Z"></path>
            <path class="cls-8" d="M65.48,127.17a23.72,23.72,0,0,0,.15,5.77,23.9,23.9,0,0,1-.48-5.79Z"></path>
            <path class="cls-8" d="M68.67,123.29a14.89,14.89,0,0,0-2.1-.37,5.28,5.28,0,0,0-2.13.14,5.54,5.54,0,0,1,2.14-.31,14.38,14.38,0,0,1,2.16.22Z"></path>
            <path class="cls-8" d="M66.13,126.25a6.65,6.65,0,0,0-2.36-.11,10.06,10.06,0,0,0-2.35.56,10.43,10.43,0,0,1,2.32-.73,6.88,6.88,0,0,1,2.48,0Z"></path>
          </g>
          <g>
            <g>
              <path class="cls-1" d="M123.16,115.52c.26-.17,3.3,2.9,5.22,3.74s8.5.06,8.5.06-.72-3.13-1.84-3.88c0,0,2.5,2.07,6.58-.78,0,0-1.92-2.69-1.84-2.75s4.48-.75,5.23-2.61,5.6-9.33,6.55-9.59-7.9-.09-9.36-.23-8,1.37-8.33,3.93c0,0-.28-4.17.12-4.68s-5.37,1.83-6.29,6.8c0,0-.4-3.59-.78-3.59s-4,5.17-3.85,8.41S123.16,115.52,123.16,115.52Z"></path>
              <g class="cls-19">
                <path class="cls-10" d="M130.39,120.4a25.85,25.85,0,0,0,6.49-1.08s-3-4.06-7.15-4.64c-1.15-.16,1.8-1.17,4.67-.22a8.79,8.79,0,0,0,4.27.42.49.49,0,0,0,.4-.57c-.17-1-.83-3.49-3.28-4.27a.29.29,0,0,1,0-.53c3-1.77,16-9.38,17.78-9.63,1.93-.29-7.85.52-21.77,8.17a.54.54,0,0,1-.74-.22,4.66,4.66,0,0,1-.59-3.34.17.17,0,0,0-.27-.18,13.14,13.14,0,0,0-3.53,5.07.31.31,0,0,1-.59,0c-.11-.65-.25-1.44-.36-2.14a.34.34,0,0,0-.54-.22c-3.06,2.2-3.12,4.61-3.68,6C120.31,115.7,127.19,120.45,130.39,120.4Z"></path>
              </g>
            </g>
            <path class="cls-8" d="M150.18,100.83l-4.52,1.9c-1.5.66-3,1.36-4.47,2s-2.93,1.45-4.39,2.18-2.9,1.53-4.3,2.37a73,73,0,0,0-8.16,5.41,29.49,29.49,0,0,0-6.84,6.86l-.38-.2a29.75,29.75,0,0,1,7-6.92,73.12,73.12,0,0,1,8.26-5.33c1.41-.83,2.88-1.55,4.32-2.33s2.94-1.45,4.43-2.14,3-1.34,4.49-2Z"></path>
            <path class="cls-8" d="M123.8,114.71a19.9,19.9,0,0,1,3.47,1.33A17.09,17.09,0,0,1,130.4,118a17.31,17.31,0,0,0-3.22-1.75,19.73,19.73,0,0,0-3.47-1.11Z"></path>
            <path class="cls-8" d="M129.76,110.64a30.83,30.83,0,0,1,7.33,1.52,30.52,30.52,0,0,0-7.35-1.09Z"></path>
            <path class="cls-8" d="M123.85,114.58a18.81,18.81,0,0,1,.07-2.81,6.94,6.94,0,0,1,.72-2.68,6.93,6.93,0,0,0-.51,2.7,19.2,19.2,0,0,0,.15,2.74Z"></path>
            <path class="cls-8" d="M128,111.82a6.68,6.68,0,0,1,.08-1.62,10.54,10.54,0,0,1,.36-1.55,13.66,13.66,0,0,1,1.3-2.86,13.57,13.57,0,0,0-1.1,2.92,11.57,11.57,0,0,0-.24,1.53,6.9,6.9,0,0,0,0,1.51Z"></path>
          </g>
          <g>
            <g>
              <path class="cls-1" d="M109,84c.22.22-2.13,3.78-2.55,5.81S108.11,98,108.11,98s2.89-1.33,3.38-2.57c0,0-1.49,2.84,2.09,6.21,0,0,2.22-2.41,2.29-2.34s1.63,4.18,3.59,4.52,10.16,3.53,10.6,4.39-1.52-7.66-1.67-9.1-3-7.5-5.5-7.26c0,0,4-1.12,4.55-.84s-2.87-4.82-7.86-4.7c0,0,3.39-1.12,3.32-1.48s-5.82-2.84-8.92-2S109,84,109,84Z"></path>
              <g class="cls-20">
                <path class="cls-10" d="M105.75,92A25.75,25.75,0,0,0,108.11,98s3.33-3.69,3-7.86c-.08-1.15,1.5,1.5,1.17,4.47a8.68,8.68,0,0,0,.46,4.22.48.48,0,0,0,.63.27,5.16,5.16,0,0,0,3.47-4,.28.28,0,0,1,.5-.16c2.32,2.56,12.33,13.62,12.93,15.24.67,1.81-2.11-7.49-12.33-19.39A.54.54,0,0,1,118,90a4.6,4.6,0,0,1,3.11-1.25.16.16,0,0,0,.12-.29,12.81,12.81,0,0,0-5.62-2.38.31.31,0,0,1-.07-.59l2-.79a.34.34,0,0,0,.1-.56c-2.75-2.51-5.1-2.08-6.54-2.35C108.24,81.27,105.05,88.88,105.75,92Z"></path>
              </g>
            </g>
            <path class="cls-8" d="M128.7,107.14l-2.76-4c-.94-1.32-1.92-2.61-2.88-3.91s-2-2.54-3-3.81-2.07-2.49-3.17-3.67A72.49,72.49,0,0,0,110,85a29.2,29.2,0,0,0-8-5.22l.11-.41a29.7,29.7,0,0,1,8.12,5.39,73,73,0,0,1,6.84,6.9c1.09,1.2,2.09,2.48,3.13,3.71s2,2.55,3,3.85,1.91,2.61,2.83,3.94Z"></path>
            <path class="cls-8" d="M109.91,84.44a19.8,19.8,0,0,1-.58,3.62,17.15,17.15,0,0,1-1.25,3.43,17.09,17.09,0,0,0,1-3.47,19.88,19.88,0,0,0,.37-3.59Z"></path>
            <path class="cls-8" d="M115.06,89.38a30.54,30.54,0,0,1,0,7.4,30.06,30.06,0,0,0-.44-7.34Z"></path>
            <path class="cls-8" d="M110.05,84.46a18.09,18.09,0,0,1,2.72-.51,6.83,6.83,0,0,1,2.74.16,6.87,6.87,0,0,0-2.71,0,19.44,19.44,0,0,0-2.62.7Z"></path>
            <path class="cls-8" d="M113.57,88a6.75,6.75,0,0,1,1.58-.25,10.29,10.29,0,0,1,1.57,0,13.56,13.56,0,0,1,3,.67,13.16,13.16,0,0,0-3-.46,9.62,9.62,0,0,0-1.52.08,6.22,6.22,0,0,0-1.46.33Z"></path>
          </g>
          <g>
            <g>
              <path class="cls-1" d="M119.58,68.42s3.31-6.2,14.31-1.18c0,0-1.16,2-2.58,1.77,0,0,8.06.07,10.13,9.79,0,0,8.5,10.52,5,18l-4.84-10.34s.9,3.53-1.94,5.06c0,0-3.87-7.06-4-7.47s-.23,1.29-2,2.68a54.55,54.55,0,0,0-3.62-5.43C128.77,79.74,120.07,72.22,119.58,68.42Z"></path>
              <g class="cls-21">
                <path class="cls-10" d="M119.8,64.1l12,1.23s-7.42.43-4.92,3,8.7,2.77,8.7,2.77-3,.66-1.44,2.12,2,1,7.28,5.6h0s-4.29-2.6-1.66,1.48c0,0-8.06-9.81-4.09.7,0,0-11.17-14-14.51-6.31C121.18,74.67,114,70,119.8,64.1Z"></path>
              </g>
            </g>
            <g>
              <path class="cls-8" d="M116.11,68.22a37.76,37.76,0,0,1,6.62,1.37,59.14,59.14,0,0,1,6.34,2.29,62.32,62.32,0,0,1,6,3c2,1.1,3.82,2.34,5.66,3.62A66.82,66.82,0,0,0,135,75a61.9,61.9,0,0,0-6-2.87A57.56,57.56,0,0,0,122.62,70a38,38,0,0,0-6.54-1.22Z"></path>
              <path class="cls-8" d="M130,72.28a16.54,16.54,0,0,0,4.49-.92A16.75,16.75,0,0,1,130,72.57Z"></path>
              <path class="cls-8" d="M135,74.74a35.91,35.91,0,0,1,3.75,4.34,23.18,23.18,0,0,1,2.84,5,23.25,23.25,0,0,0-2.95-4.87A36.45,36.45,0,0,0,134.79,75Z"></path>
              <path class="cls-8" d="M128.16,71.51a50.25,50.25,0,0,1,4.06,4.33,20.92,20.92,0,0,1,3.21,5,21.53,21.53,0,0,0-3.31-4.88,49.85,49.85,0,0,0-4.15-4.2Z"></path>
            </g>
          </g>
          <g>
            <g>
              <path class="cls-1" d="M108.89,134.55s2.45-4.59,10.58-.88c0,0-.86,1.45-1.91,1.31,0,0,6,.06,7.49,7.23,0,0,6.28,7.78,3.68,13.28l-3.57-7.64s.66,2.61-1.44,3.74c0,0-2.85-5.21-2.93-5.52s-.17,1-1.46,2a41.16,41.16,0,0,0-2.67-4C115.69,142.91,109.26,137.35,108.89,134.55Z"></path>
              <g class="cls-22">
                <path class="cls-10" d="M109.06,131.35l8.88.91s-5.48.32-3.63,2.21,6.42,2,6.42,2-2.24.48-1.06,1.56,1.44.76,5.38,4.14h0s-3.17-1.92-1.23,1.1c0,0-5.95-7.25-3,.52,0,0-8.25-10.32-10.72-4.66C110.08,139.17,104.76,135.72,109.06,131.35Z"></path>
              </g>
            </g>
            <g>
              <path class="cls-8" d="M106.33,134.4a27.74,27.74,0,0,1,4.89,1,42,42,0,0,1,4.68,1.69,42.91,42.91,0,0,1,4.45,2.22c1.44.81,2.82,1.73,4.18,2.67-1.38-.92-2.77-1.8-4.23-2.58a46.94,46.94,0,0,0-4.48-2.12,42.84,42.84,0,0,0-4.68-1.57,27,27,0,0,0-4.83-.9Z"></path>
              <path class="cls-8" d="M116.58,137.4a12.57,12.57,0,0,0,3.32-.68,12.5,12.5,0,0,1-3.3.89Z"></path>
              <path class="cls-8" d="M120.28,139.21a27.26,27.26,0,0,1,2.77,3.21,16.82,16.82,0,0,1,2.09,3.66,16.94,16.94,0,0,0-2.18-3.6,26.12,26.12,0,0,0-2.83-3.11Z"></path>
              <path class="cls-8" d="M115.24,136.83a36.28,36.28,0,0,1,3,3.2,15.47,15.47,0,0,1,2.37,3.67,15.79,15.79,0,0,0-2.45-3.6A37.45,37.45,0,0,0,115.1,137Z"></path>
            </g>
          </g>
          <g>
            <g>
              <path class="cls-1" d="M61.37,166.26s-3-3.81-9.84.91c0,0,1,1.19,2,.89,0,0-5.45,1-5.69,7.84,0,0-4.5,8.15-1.23,12.78l2-7.58s-.19,2.5,1.92,3.19c0,0,1.78-5.24,1.8-5.53s.31.84,1.66,1.57a36.78,36.78,0,0,1,1.8-4.11C56.49,175,61.49,168.89,61.37,166.26Z"></path>
              <g class="cls-23">
                <path class="cls-10" d="M60.7,163.36l-8,2.27s5.07-.6,3.68,1.43S50.83,170,50.83,170s2.13.09,1.23,1.27-1.2.92-4.26,4.66h0s2.6-2.27,1.3.81c0,0,4.29-7.61,2.86,0,0,0,5.89-10.8,9.07-6C61,170.69,65.35,166.66,60.7,163.36Z"></path>
              </g>
            </g>
            <g>
              <path class="cls-8" d="M63.79,166.09a25.28,25.28,0,0,0-4.29,1.61,39.49,39.49,0,0,0-4,2.2,42.67,42.67,0,0,0-3.76,2.67c-1.21,1-2.35,2-3.46,3.05,1.09-1.09,2.21-2.15,3.4-3.13a43.64,43.64,0,0,1,3.72-2.76,39.79,39.79,0,0,1,4-2.3,25.76,25.76,0,0,1,4.32-1.72Z"></path>
              <path class="cls-8" d="M54.8,170.32a12,12,0,0,1-3.17-.29,11.53,11.53,0,0,0,3.16.09Z"></path>
              <path class="cls-8" d="M51.85,172.5a24.26,24.26,0,0,0-2.09,3.31,15.52,15.52,0,0,0-1.42,3.66,15.73,15.73,0,0,1,1.33-3.7,24.25,24.25,0,0,1,2-3.39Z"></path>
              <path class="cls-8" d="M56.08,169.5a34.94,34.94,0,0,0-2.31,3.35,14.66,14.66,0,0,0-1.66,3.7,14.72,14.72,0,0,1,1.58-3.75,34.55,34.55,0,0,1,2.23-3.42Z"></path>
            </g>
          </g>
          <g>
            <g>
              <path class="cls-1" d="M65.12,164s-3.15-5.75-11.51-5.57c0,0,1.67-4.48,8.54-3,0,0,2.23-3.78,7.62-.77,0,0,5.75-2.47,9.28,1.85,0,0-1.3,2.37-2.42,2.23,0,0,5.76,2.09,2.42,7.28C79.05,166,75,158.23,65.12,164Z"></path>
              <g class="cls-24">
                <path class="cls-10" d="M52.18,159.31,55.34,155a4.24,4.24,0,0,0,3.41,3.28c2.86.43,6.08.06,5.41-3.35,0,0,1.49,1.4,2.69.92s1.21-2.92.6-3.23,8.75.88,8.75.88-3.77,1.07-4.37,2-.19,1.64,2.06,1.34c0,0-3.28.85-4.31,2.13s-.43,1.76.06,2.19,3.49-.33,4.75,1.05-6.85,2.84-7.54,2.6-8.34-2-8.34-2Z"></path>
              </g>
            </g>
            <g>
              <path class="cls-8" d="M64.5,166a18.33,18.33,0,0,1,.75-2.81c.3-.9.64-1.79,1-2.66a20.65,20.65,0,0,1,3-4.83,20.85,20.85,0,0,0-2.71,4.94c-.34.88-.63,1.77-.89,2.67a22.58,22.58,0,0,0-.59,2.69Z"></path>
              <path class="cls-8" d="M66.74,159.52a6.2,6.2,0,0,0-.75-2.08,7.79,7.79,0,0,0-1.41-1.77,7.71,7.71,0,0,1,1.53,1.69,6.42,6.42,0,0,1,.91,2.13Z"></path>
              <path class="cls-8" d="M66,161.12a6.26,6.26,0,0,1,1.31-1.31,11.27,11.27,0,0,1,1.54-1,14.55,14.55,0,0,1,1.67-.73,17.09,17.09,0,0,1,1.72-.53c-.57.17-1.14.37-1.7.6A14.18,14.18,0,0,0,69,159a10.73,10.73,0,0,0-1.48,1,6,6,0,0,0-1.19,1.28Z"></path>
            </g>
          </g>
          <g>
            <g>
              <path class="cls-1" d="M119.64,63.39s-6.85-5.7-17.31-1.31c0,0-.12-6.5,9.31-8,0,0,.94-5.87,9.23-4.75,0,0,6-6,12.65-2.28,0,0-.46,3.65-1.94,4,0,0,8.31-.22,6.67,8C138.25,59.05,129.21,51.23,119.64,63.39Z"></path>
              <g class="cls-25">
                <path class="cls-10" d="M101,63.93l1.85-7a5.75,5.75,0,0,0,5.93,2.46c3.83-.88,7.72-3,5.18-6.92,0,0,2.58,1,3.85-.18s.07-4.29-.85-4.37,11.5-3.25,11.5-3.25-4.23,3.23-4.52,4.76.59,2.17,3.28.67c0,0-3.72,2.7-4.4,4.83s.34,2.44,1.17,2.74,4.25-2.16,6.53-1-7.25,7-8.23,7-11.55,1.61-11.55,1.61Z"></path>
              </g>
            </g>
            <g>
              <path class="cls-8" d="M119.84,66.22a15.52,15.52,0,0,1-.3-2c-.07-.64-.12-1.29-.15-1.93a38.63,38.63,0,0,1,0-3.88,28.26,28.26,0,0,1,1.34-7.58,28.27,28.27,0,0,0-1,7.59c0,1.28.07,2.55.2,3.82.07.63.15,1.27.25,1.89a16,16,0,0,0,.35,1.8Z"></path>
              <path class="cls-8" d="M119.47,57a8.23,8.23,0,0,0-2-2.26,10.06,10.06,0,0,0-2.66-1.53,10.08,10.08,0,0,1,2.77,1.37,8.72,8.72,0,0,1,2.22,2.23Z"></path>
              <path class="cls-8" d="M119.37,59.33a8.19,8.19,0,0,1,1-2.3,14.4,14.4,0,0,1,1.47-2,17.86,17.86,0,0,1,1.74-1.74c.61-.55,1.26-1,1.92-1.54-.64.51-1.27,1-1.86,1.61A18.61,18.61,0,0,0,122,55.16a14.86,14.86,0,0,0-1.37,2,8,8,0,0,0-.87,2.22Z"></path>
            </g>
          </g>
          <g>
            <g>
              <path class="cls-1" d="M103.6,133.62s.08-6,6.91-9.43c0,0-3.28-2.91-8.18,1.25,0,0-3.42-2.09-6.47,2.65,0,0-5.71.47-6.7,5.47,0,0,2.06,1.36,2.9.77,0,0-3.75,4.15,1.18,6.92C93.24,141.25,93.19,133.2,103.6,133.62Z"></path>
              <g class="cls-26">
                <path class="cls-10" d="M112.05,124.3l-4.4-2.13a3.88,3.88,0,0,1-1.34,4.11c-2.13,1.57-4.89,2.66-5.81-.37,0,0-.6,1.76-1.78,1.89s-2.22-1.85-1.86-2.35-6.7,4.46-6.7,4.46,3.5-.75,4.41-.23.86,1.25-1.09,2c0,0,3-.72,4.4-.13s1.1,1.24.89,1.79-3,1.24-3.39,2.89,6.75-.65,7.2-1.14,5.88-5.2,5.88-5.2Z"></path>
              </g>
            </g>
            <g>
              <path class="cls-8" d="M104.61,135.5a19.71,19.71,0,0,0-1.64-2c-.6-.65-1.22-1.27-1.88-1.86a18.35,18.35,0,0,0-4.38-3,18.45,18.45,0,0,1,4.55,2.76c.69.56,1.35,1.16,2,1.79a19,19,0,0,1,1.82,2Z"></path>
              <path class="cls-8" d="M100.14,130.81a5.81,5.81,0,0,1-.17-2.11,7,7,0,0,1,.51-2,6.69,6.69,0,0,0-.38,2,5.45,5.45,0,0,0,.29,2Z"></path>
              <path class="cls-8" d="M101.51,131.92a5.46,5.46,0,0,0-1.52-.52,9.8,9.8,0,0,0-1.63-.18,14.44,14.44,0,0,0-3.27.31,15.06,15.06,0,0,1,3.28-.44,10.3,10.3,0,0,1,1.66.12,5.54,5.54,0,0,1,1.61.49Z"></path>
            </g>
          </g>
          <g>
            <g>
              <path class="cls-1" d="M105,73s.08-6,6.9-9.44c0,0-3.27-2.9-8.17,1.26,0,0-3.42-2.09-6.48,2.65,0,0-5.7.47-6.7,5.47,0,0,2.07,1.36,2.91.77,0,0-3.75,4.15,1.17,6.91C94.66,80.64,94.62,72.6,105,73Z"></path>
              <g class="cls-27">
                <path class="cls-10" d="M113.48,63.7l-4.41-2.13a3.88,3.88,0,0,1-1.34,4.11c-2.13,1.57-4.88,2.66-5.81-.38,0,0-.6,1.77-1.78,1.89s-2.22-1.84-1.86-2.34-6.7,4.46-6.7,4.46,3.51-.75,4.42-.23.85,1.25-1.1,2c0,0,3-.72,4.4-.13s1.1,1.24.89,1.79-3,1.23-3.39,2.89,6.76-.65,7.21-1.14,5.87-5.2,5.87-5.2Z"></path>
              </g>
            </g>
            <g>
              <path class="cls-8" d="M106,74.9a19.84,19.84,0,0,0-1.65-2A25.39,25.39,0,0,0,102.51,71a18.35,18.35,0,0,0-4.38-3,18.27,18.27,0,0,1,4.55,2.76,25.93,25.93,0,0,1,2,1.79,17.13,17.13,0,0,1,1.82,2Z"></path>
              <path class="cls-8" d="M101.57,70.21a5.83,5.83,0,0,1-.17-2.11,7.11,7.11,0,0,1,.5-2,7.5,7.5,0,0,0-.38,2,5.83,5.83,0,0,0,.29,2Z"></path>
              <path class="cls-8" d="M102.93,71.32a5.51,5.51,0,0,0-1.51-.52,9.92,9.92,0,0,0-1.63-.18,14.48,14.48,0,0,0-3.28.31,13.93,13.93,0,0,1,3.28-.44,10.3,10.3,0,0,1,1.66.12,5.39,5.39,0,0,1,1.62.49Z"></path>
            </g>
          </g>
          <g>
            <g>
              <path class="cls-1" d="M117.5,119.36s3.51-4.56,10.72-3.27c0,0-.84-4.11-7-3.74,0,0-1.42-3.56-6.49-1.69,0,0-4.65-2.91-8.28.35,0,0,.8,2.23,1.79,2.26,0,0-5.27,1-3.08,6C105.17,119.25,109.76,113.05,117.5,119.36Z"></path>
              <g class="cls-28">
                <path class="cls-10" d="M129.34,117.06l-2.16-4.16a3.71,3.71,0,0,1-3.39,2.38c-2.53,0-5.27-.76-4.24-3.62,0,0-1.47,1-2.45.42s-.64-2.68-.08-2.87-7.7-.42-7.7-.42,3.12,1.44,3.52,2.36-.06,1.45-2,.88c0,0,2.73,1.18,3.45,2.42s.13,1.59-.35,1.89-3-.75-4.26.27,5.56,3.38,6.18,3.27,7.49-.62,7.49-.62Z"></path>
              </g>
            </g>
            <g>
              <path class="cls-8" d="M117.29,121.09a18.44,18.44,0,0,0-.15-2.41c-.1-.81-.24-1.62-.41-2.43a17.91,17.91,0,0,0-1.68-4.64,18.08,18.08,0,0,1,1.92,4.58c.22.8.4,1.62.54,2.44a16.9,16.9,0,0,1,.27,2.54Z"></path>
              <path class="cls-8" d="M116.46,115.21a5.71,5.71,0,0,1,1.08-1.71,6.74,6.74,0,0,1,1.56-1.26,6.42,6.42,0,0,0-1.46,1.34,5.37,5.37,0,0,0-.94,1.7Z"></path>
              <path class="cls-8" d="M116.87,116.85a5.27,5.27,0,0,0-.86-1.27,9.72,9.72,0,0,0-1.15-1.07,13.67,13.67,0,0,0-2.69-1.65,13.45,13.45,0,0,1,2.77,1.55,9.22,9.22,0,0,1,1.21,1,5.5,5.5,0,0,1,.95,1.31Z"></path>
            </g>
          </g>
          <g>
            <g>
              <path class="cls-1" d="M71.7,114.91s3.51-4.55,10.71-3.27c0,0-.84-4.11-7-3.73,0,0-1.42-3.57-6.48-1.69,0,0-4.65-2.92-8.29.34,0,0,.81,2.23,1.79,2.26,0,0-5.26,1-3.07,6C59.37,114.8,64,108.6,71.7,114.91Z"></path>
              <g class="cls-29">
                <path class="cls-10" d="M83.53,112.62l-2.15-4.17A3.72,3.72,0,0,1,78,110.84c-2.54,0-5.28-.77-4.24-3.63,0,0-1.48,1-2.45.43s-.65-2.69-.08-2.87-7.7-.43-7.7-.43,3.12,1.44,3.51,2.36-.06,1.45-2,.88c0,0,2.73,1.18,3.46,2.43s.13,1.58-.35,1.88-3-.75-4.26.27,5.55,3.39,6.18,3.27,7.49-.61,7.49-.61Z"></path>
              </g>
            </g>
            <g>
              <path class="cls-8" d="M71.48,116.64a18.23,18.23,0,0,0-.14-2.4c-.1-.82-.24-1.63-.42-2.44a18,18,0,0,0-1.67-4.64,18.42,18.42,0,0,1,1.91,4.58c.22.81.4,1.62.54,2.44a15.69,15.69,0,0,1,.27,2.54Z"></path>
              <path class="cls-8" d="M70.66,110.76a5.52,5.52,0,0,1,1.08-1.71,6.69,6.69,0,0,1,1.55-1.26,6.63,6.63,0,0,0-1.46,1.34,5.55,5.55,0,0,0-.93,1.7Z"></path>
              <path class="cls-8" d="M71.07,112.4a5.31,5.31,0,0,0-.87-1.27,8.91,8.91,0,0,0-1.14-1.07,13.67,13.67,0,0,0-2.69-1.65A14.22,14.22,0,0,1,69.14,110a9.92,9.92,0,0,1,1.2,1.05,5.22,5.22,0,0,1,1,1.3Z"></path>
            </g>
          </g>
          <g>
            <g>
              <path class="cls-1" d="M60.21,73.32s-3.84-7-14-6.77c0,0,2-5.46,10.38-3.63,0,0,2.71-4.59,9.26-.94,0,0,7-3,11.28,2.25,0,0-1.58,2.89-2.93,2.71,0,0,7,2.54,2.93,8.86C77.13,75.8,72.17,66.32,60.21,73.32Z"></path>
              <g class="cls-30">
                <path class="cls-10" d="M44.47,67.64l3.84-5.25a5.17,5.17,0,0,0,4.14,4c3.48.51,7.4.07,6.59-4.07,0,0,1.8,1.7,3.27,1.11s1.46-3.55.72-3.92,10.65,1.06,10.65,1.06-4.59,1.3-5.33,2.49-.22,2,2.52,1.62c0,0-4,1-5.25,2.59s-.52,2.15.07,2.66,4.25-.4,5.79,1.28-8.34,3.46-9.17,3.16-10.15-2.44-10.15-2.44Z"></path>
              </g>
            </g>
            <g>
              <path class="cls-8" d="M59.19,76.5a18.06,18.06,0,0,1,.44-1.85c.16-.59.35-1.18.54-1.76.38-1.16.82-2.3,1.31-3.42a25.9,25.9,0,0,1,3.74-6.26,25.91,25.91,0,0,0-3.43,6.39c-.42,1.13-.8,2.28-1.13,3.44-.16.58-.31,1.17-.44,1.76s-.28,1.23-.34,1.7Z"></path>
              <path class="cls-8" d="M62.17,67.9a7.47,7.47,0,0,0-.92-2.54,8.85,8.85,0,0,0-1.71-2.15,9.36,9.36,0,0,1,1.86,2.06,7.54,7.54,0,0,1,1.11,2.58Z"></path>
              <path class="cls-8" d="M61.31,69.84a7.27,7.27,0,0,1,1.59-1.59,13.09,13.09,0,0,1,1.88-1.17,16.51,16.51,0,0,1,2-.89c.69-.25,1.39-.46,2.1-.65-.7.22-1.4.45-2.07.73a17.92,17.92,0,0,0-2,1,12.94,12.94,0,0,0-1.8,1.22A7.35,7.35,0,0,0,61.61,70Z"></path>
            </g>
          </g>
          <g>
            <g>
              <path class="cls-1" d="M57.46,77.17s-9.66-3.46-16.27,1.18a4.06,4.06,0,0,0,2.57,3.15s-8,2.37-9.08,8.29c0,0,2.86,1.77,4.64,1.18,0,0-3.45,2.67-2.86,6.51s1.38,5.62,1.38,7.69,2,6.12,2,6.12a27.85,27.85,0,0,1,1.87-5.52c.89-1.38,4.15-6.71,4.39-8.49s.74-3.67.74-3.67.5,4.66,1.38,5.84l3.06-3.84c1.18-1.48,3.55-6.22,3.55-8.09a16.76,16.76,0,0,0,2.66,1.68A19.45,19.45,0,0,0,57.46,77.17Z"></path>
              <g class="cls-31">
                <path class="cls-10" d="M57.18,75.21c-.2.07-3.48,2.25-5.35,2.25s-6.18-.32-8.37,2.13c0,0,3.67.13,3.73.71s-1.6,2.06-3.86,3-4.83,2.58-5,5a35.12,35.12,0,0,1,3.87-1.35c.64-.07-2.06,5.15-2.77,8.24s-1,14,.34,16.18h0s-.86-7.94.37-11,1.93.2,1.93.2-.26-7.15.83-9.28,2.58-4,4.64-3.79S49.06,94,49.06,94s.26-7.34,1.87-9.33,3.48-2.13,5,.25c0,0-.45-3.6.51-5.28a2.48,2.48,0,0,1,2.77-1.16Z"></path>
              </g>
            </g>
            <g>
              <path class="cls-8" d="M58.83,76.87A16.23,16.23,0,0,0,53.57,78a20.77,20.77,0,0,0-4.78,2.61,16.06,16.06,0,0,0-3.87,3.8,24.88,24.88,0,0,0-2.48,4.88A51.13,51.13,0,0,0,39.72,100a48.41,48.41,0,0,0-.5,5.51,19.1,19.1,0,0,0,.45,5.49,19.49,19.49,0,0,1-.55-5.49,48.65,48.65,0,0,1,.42-5.53,50.21,50.21,0,0,1,2.55-10.8,25.5,25.5,0,0,1,2.44-5,16.55,16.55,0,0,1,3.93-4,21,21,0,0,1,4.88-2.76,16.74,16.74,0,0,1,5.5-1.28Z"></path>
              <path class="cls-8" d="M52.54,78.11A24.77,24.77,0,0,0,48.23,78a14,14,0,0,0-4.22.9,13.94,13.94,0,0,1,4.2-1.15,24.62,24.62,0,0,1,4.38-.16Z"></path>
              <path class="cls-8" d="M45.88,83.17a20,20,0,0,0-3.94,1.6,12.88,12.88,0,0,0-3.4,2.56,13.09,13.09,0,0,1,3.28-2.78,19.62,19.62,0,0,1,3.93-1.85Z"></path>
              <path class="cls-8" d="M55.33,77.16A8.33,8.33,0,0,0,55,78.84a12.89,12.89,0,0,0,0,1.76,17.33,17.33,0,0,0,.53,3.49,17.73,17.73,0,0,1-.78-3.48,13.33,13.33,0,0,1-.07-1.79A8.19,8.19,0,0,1,54.87,77Z"></path>
              <path class="cls-8" d="M49.76,79.61a32.84,32.84,0,0,0-1,6,40.46,40.46,0,0,0,0,6.13,40.6,40.6,0,0,1-.27-6.14,34.42,34.42,0,0,1,.73-6.14Z"></path>
              <polygon class="cls-8" points="41.5 91.93 41.5 99.71 41.21 91.93 41.5 91.93"></polygon>
            </g>
          </g>
          <g>
            <g>
              <path class="cls-1" d="M58.66,114s-9.61-7.42-18.74-4.62a4.8,4.8,0,0,0,1.73,4.48s-9.85-.26-13.23,6c0,0,2.57,3,4.78,3,0,0-4.86,1.73-5.6,6.27s-.5,6.83-1.26,9.16,0,7.6,0,7.6,2.63-4.3,4.13-5.53,7.11-6,8-7.93a43.49,43.49,0,0,1,2.17-3.87s-1.15,5.43-.58,7.08l4.84-3.2c1.88-1.23,6.27-5.69,6.95-7.8a18.83,18.83,0,0,0,2.39,2.86A23.06,23.06,0,0,0,58.66,114Z"></path>
              <g class="cls-32">
                <path class="cls-10" d="M59.05,111.71c-.24,0-4.74,1.26-6.84.57s-6.83-2.62-10.19-.67c0,0,4.08,1.49,3.94,2.17s-2.56,1.72-5.43,1.91-6.37,1.13-7.38,3.76a41.48,41.48,0,0,1,4.83-.1c.75.16-4.2,5-6.12,8.25s-6.24,15.4-5.54,18.33h0s1.94-9.25,4.42-12.2,2.11.92,2.11.92,2.32-8.13,4.33-10.12,4.38-3.62,6.6-2.58-.73,7.93-.73,7.93,3-8.16,5.51-9.81,4.69-1.12,5.48,2.1c0,0,.82-4.22,2.51-5.75a2.93,2.93,0,0,1,3.54-.29Z"></path>
              </g>
            </g>
            <g>
              <path class="cls-8" d="M59.35,114.3a15.84,15.84,0,0,0-6.16-.69A23.54,23.54,0,0,0,47,114.94a26.92,26.92,0,0,0-2.92,1.24,14.15,14.15,0,0,0-2.63,1.75A30.41,30.41,0,0,0,37,122.51a60.76,60.76,0,0,0-6.78,10.88,57.07,57.07,0,0,0-2.53,5.91,23.14,23.14,0,0,0-1.46,6.24,22.9,22.9,0,0,1,1.36-6.27,57.4,57.4,0,0,1,2.43-6,60.86,60.86,0,0,1,6.64-11.06,30.91,30.91,0,0,1,4.42-4.73,14.32,14.32,0,0,1,2.69-1.86,26.24,26.24,0,0,1,3-1.32c4.05-1.5,8.57-2.2,12.9-.84Z"></path>
              <path class="cls-8" d="M53,113.51a30.94,30.94,0,0,0-4.9-1.82,16.05,16.05,0,0,0-5.21-.62,16.12,16.12,0,0,1,5.27.34A29.63,29.63,0,0,1,53.24,113Z"></path>
              <path class="cls-8" d="M43.43,116.53a22.89,22.89,0,0,0-5,.35,15.43,15.43,0,0,0-4.77,1.64,15.4,15.4,0,0,1,4.71-1.93,24.14,24.14,0,0,1,5.1-.65Z"></path>
              <path class="cls-8" d="M56.26,113.22a9.24,9.24,0,0,0-1,1.78,14.59,14.59,0,0,0-.7,2,19.07,19.07,0,0,0-.68,4.12,19.7,19.7,0,0,1,.39-4.19,16.45,16.45,0,0,1,.58-2,10.17,10.17,0,0,1,.92-2Z"></path>
              <path class="cls-8" d="M48.89,114.28a37,37,0,0,0-3.16,6.25,49.61,49.61,0,0,0-2.13,6.73,49.23,49.23,0,0,1,1.85-6.83A37.32,37.32,0,0,1,48.4,114Z"></path>
              <polygon class="cls-8" points="35.31 124.77 32.46 133.52 34.97 124.67 35.31 124.77"></polygon>
            </g>
          </g>
          <g>
            <g>
              <path class="cls-1" d="M132.16,63s2-4.24,3.64-5.54a3.45,3.45,0,0,1,2.8-.26s2.28-5,5-5.66c0,0,1.45,1.37,1.23,2.8,0,0,3.93-4.33,9.1-3.74,0,0,.11,3.16-.69,4,0,0,6.46-1.65,10.91,1.65a20.09,20.09,0,0,0,8.35,3.83s-8.82,4.59-11.48,5.37-7.85,1-9.06.29c0,0,2.42,2.34,2.62,4.53,0,0-6.35-.92-9.44-2.85,0,0,1.53,3.22.35,4.74,0,0-2.06-2.28-3.34-2.7a8.27,8.27,0,0,1-2.76-2.22s-.13,2.4-.89,2.82A11,11,0,0,1,132.16,63Z"></path>
              <g class="cls-33">
                <path class="cls-10" d="M130.92,59.07c.28.15,2,3,5.22,2.08S143.69,56,143.69,56s-1.56,1.28-1.33,2.76.57,2.42,2.49.22,2.7-4.22,5.48-4.65c0,0-3.47,4.46-2.57,4.65s9.65-2.56,12.65-2.48,2.5.3,2.5.3l-4,1.86s10,.59,12.64.17-1.36,2.6-7.54,1.57-8,1.44-8,1.44,2.83,3.27.73,4.34h0s-2.16-3.51-5.66-4.16l-2.87-.53s3.13,3.33,3,4.76c0,0-5.63-3.72-7-3.51s.51,2.69.51,2.69-4.63-2.4-5.8-1.68,0,2.65,0,2.65-4.92-2.64-7.44-1.22S130.92,59.07,130.92,59.07Z"></path>
              </g>
            </g>
            <g>
              <path class="cls-8" d="M131.64,62.57l10-1.48c3.34-.54,6.69-1,10-1.31,1.68-.17,3.37-.34,5.07-.35s3.37,0,5.06,0l5.06.13c1.69.08,3.38.11,5.06.34-1.68-.21-3.37-.21-5.06-.26l-5.06-.06c-1.69,0-3.37,0-5.06,0s-3.36.23-5,.42c-3.35.4-6.7.87-10,1.46l-10,1.63Z"></path>
              <path class="cls-8" d="M139.63,61.49c.54-1,1.11-1.94,1.73-2.86a16.72,16.72,0,0,1,1-1.35,6,6,0,0,1,1.18-1.17,6.06,6.06,0,0,0-1.06,1.26c-.31.46-.59.93-.85,1.41-.53,1-1,2-1.44,3Z"></path>
              <path class="cls-8" d="M144.74,60.63c.82-1.14,1.67-2.25,2.57-3.32.45-.53.91-1.05,1.39-1.56a12.81,12.81,0,0,1,1.55-1.4,11.92,11.92,0,0,0-1.43,1.5c-.45.54-.87,1.09-1.27,1.65-.81,1.12-1.58,2.28-2.31,3.46Z"></path>
              <path class="cls-8" d="M153.49,59.6a38.92,38.92,0,0,1,7-2.68,39.24,39.24,0,0,0-6.85,3,.16.16,0,0,1-.21-.06.15.15,0,0,1,.06-.21Z"></path>
              <path class="cls-8" d="M149.21,60.06a20.56,20.56,0,0,1,3.57,1.54,9.23,9.23,0,0,1,3,2.4,9.29,9.29,0,0,0-3.08-2.25,21.21,21.21,0,0,0-3.58-1.35Z"></path>
              <path class="cls-8" d="M145.9,60.44a32.65,32.65,0,0,1,2.61,2.23c.41.39.81.8,1.18,1.23a5,5,0,0,1,.93,1.44,4.65,4.65,0,0,0-1-1.33,16.81,16.81,0,0,0-1.27-1.11c-.89-.7-1.82-1.36-2.76-2Z"></path>
              <path class="cls-8" d="M140.78,61.23a14.68,14.68,0,0,1,2.14,1.68A8.24,8.24,0,0,1,144.57,65a8.1,8.1,0,0,0-1.85-1.89,14.67,14.67,0,0,0-2.23-1.37Z"></path>
              <path class="cls-8" d="M135.16,62.11A11.56,11.56,0,0,1,137,63.64a6.15,6.15,0,0,1,1.33,2,5.94,5.94,0,0,0-1.54-1.73,11,11,0,0,0-1.95-1.22Z"></path>
            </g>
          </g>
          <g>
            <g>
              <path class="cls-1" d="M89.88,24.09S84,18.66,92.69,8c0,0,1.83,1.84,1.21,3.36,0,0,2.4-8.88,13.72-8.38,0,0,14-6.36,21.28-.35L116.09,5s4.16,0,5,3.61c0,0-8.91,2.24-9.39,2.23s1.36.63,2.39,3a62,62,0,0,0-7,2.43C105,17.19,94.22,24.64,89.88,24.09Z"></path>
              <g class="cls-34">
                <path class="cls-10" d="M85.17,22.61,90,9.69S88.33,18,91.87,16s5.55-8.81,5.55-8.81-.15,3.54,1.93,2.2S101,7.5,107.62,2.93h0s-4.1,4,1.16,2.26c0,0-13.14,6.08-.4,4.72,0,0-18.63,8.32-11.13,14.2C97.25,24.11,90,30.73,85.17,22.61Z"></path>
              </g>
            </g>
            <g>
              <path class="cls-8" d="M88.67,27.86A43.92,43.92,0,0,1,92.08,21a65.71,65.71,0,0,1,4.34-6.34,69.4,69.4,0,0,1,5-5.78c.87-.94,1.83-1.79,2.74-2.68s1.92-1.69,2.87-2.53c-.93.86-1.9,1.7-2.81,2.59S102.43,8,101.59,8.94a70.64,70.64,0,0,0-4.91,5.87,62.39,62.39,0,0,0-4.17,6.38,42.15,42.15,0,0,0-3.22,6.88Z"></path>
              <path class="cls-8" d="M97.13,13.72a19.05,19.05,0,0,0,.28-5.22,19.37,19.37,0,0,1,0,5.27Z"></path>
              <path class="cls-8" d="M101.28,8.9A41.56,41.56,0,0,1,107.15,6a26.4,26.4,0,0,1,6.29-1.71,26.49,26.49,0,0,0-6.23,1.87,40.81,40.81,0,0,0-5.75,3Z"></path>
              <path class="cls-8" d="M95.76,15.5a54.36,54.36,0,0,1,5.95-3.24,23.82,23.82,0,0,1,6.4-2.11,23.46,23.46,0,0,0-6.33,2.26,57.33,57.33,0,0,0-5.84,3.36Z"></path>
            </g>
          </g>
          <path class="cls-8" d="M85.23,121.61l-13.86-4.07-7-2-3.48-1-1.74-.45c-.57-.14-1.19-.29-1.67-.36V113a16.53,16.53,0,0,1,1.86.37l1.76.45,3.49.93,7,1.93,13.9,4Z"></path>
        </g>
        <g>
          <path class="cls-35" d="M82.77,250.29a1.6,1.6,0,0,0-1.54-.56c-.85.26-1.18.93-1,1.18l.32.32.68-.39Z"></path>
          <path class="cls-36" d="M83.21,251.31s-.27-1.15-.71-1.17a9.16,9.16,0,0,1-.92-.08l-.12.21.6.82.58.17Z"></path>
          <path class="cls-37" d="M83.17,251.46A.31.31,0,0,0,83,251a4.37,4.37,0,0,0-.56-.12l-.83.61c-.14.08-.23.07.18.19s.39.23.75.18a1.08,1.08,0,0,0,.63-.41"></path>
          <path class="cls-38" d="M82.44,250.89l-.51.5-.48.19-1-.45c-.16-.24-.16-.22,0-.51a1.28,1.28,0,0,1,.82-.5.71.71,0,0,1,.81.17Z"></path>
          <path class="cls-35" d="M79.28,230.64a2.33,2.33,0,0,0-2.37-.34c-1.14.64-1.41,1.71-1.13,2l.55.37c.37.23.83-.76.86-.77Z"></path>
          <path class="cls-36" d="M80.23,232s-.74-1.59-1.37-1.47a13.4,13.4,0,0,1-1.35.17l-.11.34s.85,1,1.12,1,.76,0,.88.07Z"></path>
          <path class="cls-37" d="M80.22,232.19c0-.15,0-.56-.37-.59a6.88,6.88,0,0,0-.85,0l-1,1.13c-.17.16-.3.18.31.22s.64.2,1.15,0a1.57,1.57,0,0,0,.77-.78"></path>
          <path class="cls-38" d="M79,231.6a7.88,7.88,0,0,0-.58.88c-.21.4-.24.52-.63.42s-1.33,0-1.64-.34-.29-.26-.09-.74a1.87,1.87,0,0,1,1-1,1.08,1.08,0,0,1,1.22,0,2.82,2.82,0,0,1,.7.75"></path>
          <path class="cls-35" d="M74.58,237.85s-4.89-2.44-8.31.54-3.59,6.81-2.42,7.64a15.49,15.49,0,0,0,2.15.85c1.41.52,2.29-3.15,2.37-3.2Z"></path>
          <path class="cls-36" d="M78.76,241.71s-3.63-4.86-5.7-4-4.48,1.54-4.48,1.54l-.14,1.24S72,243.13,73,243.05s2.64-.39,3.06-.39a22.25,22.25,0,0,0,2.74-.95"></path>
          <path class="cls-37" d="M78.9,242.45c-.05-.54-.25-1.93-1.71-1.74a22.29,22.29,0,0,0-2.88.62s-2.14,3.89-2.61,4.55-.92.82,1.21.54,2.29.22,3.9-.75a5.51,5.51,0,0,0,2.09-3.22"></path>
          <path class="cls-38" d="M74.31,241.33A24.23,24.23,0,0,0,73,244.71c-.44,1.54-.46,2-1.86,1.89s-4.54.83-5.8,0-1.2-.68-.85-2.46,1.17-2.63,2.78-4a3.64,3.64,0,0,1,4.14-.87,9.3,9.3,0,0,1,2.93,2.05"></path>
          <path class="cls-35" d="M91.5,238.88s-4.1-2.42-7.25,0-3.52,5.7-2.56,6.49a13.53,13.53,0,0,0,1.81.87c1.2.54,2.18-2.6,2.25-2.64Z"></path>
          <path class="cls-36" d="M94.89,242.48S92,238,90.19,238.66s-4,1.07-4,1.07L86,240.79s2.94,2.52,3.76,2.5,2.32-.17,2.68-.15a18.62,18.62,0,0,0,2.44-.66"></path>
          <path class="cls-37" d="M95,243.13c0-.47-.1-1.69-1.38-1.61a18.82,18.82,0,0,0-2.54.36s-2.09,3.24-2.54,3.79-.85.66,1,.55,2,.32,3.43-.42a4.8,4.8,0,0,0,2-2.67"></path>
          <path class="cls-38" d="M91.05,241.88a22.65,22.65,0,0,0-1.36,2.85c-.48,1.31-.52,1.68-1.73,1.53s-4,.45-5-.32-1-.66-.59-2.19,1.18-2.21,2.65-3.32a3.19,3.19,0,0,1,3.65-.51,8.27,8.27,0,0,1,2.42,2"></path>
          <path class="cls-35" d="M102.37,234.54s-4.05-3.12-7.72-1-4.52,5.59-3.6,6.56a15.6,15.6,0,0,0,1.81,1.17c1.2.73,2.67-2.48,2.76-2.51Z"></path>
          <path class="cls-36" d="M105.5,238.84s-2.45-5.11-4.5-4.71-4.39.6-4.39.6l-.35,1.11s2.8,3.08,3.68,3.18,2.49.12,2.87.19a20.1,20.1,0,0,0,2.69-.37"></path>
          <path class="cls-37" d="M105.49,239.54c.06-.5.12-1.81-1.25-1.9a19.7,19.7,0,0,0-2.75,0s-2.67,3.18-3.22,3.7-1,.58,1,.71,2.07.62,3.72,0a5.13,5.13,0,0,0,2.49-2.57"></path>
          <path class="cls-38" d="M101.49,237.68a22.83,22.83,0,0,0-1.84,2.85c-.68,1.34-.78,1.72-2.05,1.4s-4.31-.06-5.32-1-1-.83-.33-2.41,1.54-2.19,3.27-3.18a3.39,3.39,0,0,1,4,0,8.72,8.72,0,0,1,2.32,2.4"></path>
          <path class="cls-35" d="M105.5,247.63a2.46,2.46,0,0,0,2.25-1.12c.6-1.22.21-2.3-.21-2.39h-.69c-.46,0-.28,1.14-.29,1.16Z"></path>
          <path class="cls-36" d="M103.9,247s1.57.93,2,.45,1.06-.94,1.06-.94l-.1-.36-1.55-.19c-.26.13-.69.41-.81.46Z"></path>
          <path class="cls-37" d="M103.78,246.85c.07.14.29.51.67.29a7.83,7.83,0,0,0,.73-.51l.2-1.57c.05-.23.16-.33-.4,0s-.66.2-1,.66a1.65,1.65,0,0,0-.2,1.13"></path>
          <path class="cls-38" d="M105.18,246.63a6.91,6.91,0,0,0,0-1.09c0-.48-.1-.6.3-.74s1.17-.76,1.61-.68.4,0,.51.59a2,2,0,0,1-.3,1.43,1.1,1.1,0,0,1-1,.72,2.81,2.81,0,0,1-1-.23"></path>
          <path class="cls-35" d="M67,248.5s2.07.28,3-1.22.47-2.91-.06-3.07a6.75,6.75,0,0,0-.88-.05c-.58,0-.45,1.43-.47,1.46Z"></path>
          <path class="cls-36" d="M65,247.61s1.91,1.32,2.56.75S69,247.25,69,247.25l-.1-.46a6.29,6.29,0,0,0-2-.38c-.33.14-.91.46-1.06.52Z"></path>
          <path class="cls-37" d="M64.84,247.36c.08.18.33.66.84.42a7.77,7.77,0,0,0,1-.58s.3-1.68.39-2,.23-.4-.5,0-.87.2-1.33.75a2.12,2.12,0,0,0-.37,1.43"></path>
          <path class="cls-38" d="M66.65,247.2a9.52,9.52,0,0,0,.07-1.39c0-.61-.07-.77.45-.92s1.54-.86,2.1-.72.52.1.61.79a2.49,2.49,0,0,1-.52,1.8,1.4,1.4,0,0,1-1.4.83,3.73,3.73,0,0,1-1.31-.39"></path>
          <path class="cls-35" d="M80.52,240.76a1.81,1.81,0,0,0,1.83.32c.9-.47,1.14-1.29.92-1.53l-.41-.29c-.28-.19-.66.56-.68.57Z"></path>
          <path class="cls-36" d="M79.82,239.71s.54,1.24,1,1.17a9.8,9.8,0,0,1,1.05-.1l.09-.26-.84-.8-.68-.07Z"></path>
          <path class="cls-37" d="M79.83,239.54c0,.12,0,.43.28.47a6.25,6.25,0,0,0,.66,0l.8-.85c.14-.12.24-.13-.23-.18s-.49-.17-.89,0a1.2,1.2,0,0,0-.62.58"></path>
          <path class="cls-38" d="M80.77,240a5.1,5.1,0,0,0,.46-.66c.18-.32.2-.41.51-.32s1,.06,1.25.3.22.21.05.58a1.39,1.39,0,0,1-.81.72.8.8,0,0,1-.94,0,2.07,2.07,0,0,1-.52-.59"></path>
          <path class="cls-35" d="M97,247.72s4.6,1.12,6.9-2.05,1.72-6.43.57-6.9a13.43,13.43,0,0,0-2-.31c-1.29-.17-1.32,3.1-1.38,3.16Z"></path>
          <path class="cls-36" d="M92.73,245.27s4,3.4,5.58,2.28,3.48-2.15,3.48-2.15l-.12-1.07s-3.52-1.55-4.3-1.3-2.15.83-2.5.92a18.06,18.06,0,0,0-2.14,1.32"></path>
          <path class="cls-37" d="M92.48,244.68c.14.44.58,1.58,1.77,1.13a17.68,17.68,0,0,0,2.31-1.07s1.06-3.69,1.33-4.34.61-.86-1.13-.22-2,.25-3.14,1.38a4.71,4.71,0,0,0-1.14,3.12"></path>
          <path class="cls-38" d="M96.56,244.74a20.64,20.64,0,0,0,.48-3.1c.07-1.39,0-1.75,1.21-2s3.67-1.57,4.88-1.14,1.14.34,1.19,1.91-.48,2.44-1.57,3.92a3.15,3.15,0,0,1-3.33,1.53,8.09,8.09,0,0,1-2.86-1.16"></path>
          <path class="cls-35" d="M75.8,245.07s2.76,1.55,4.82-.08,2.27-3.83,1.62-4.34a10.58,10.58,0,0,0-1.22-.56c-.8-.34-1.41,1.76-1.46,1.79Z"></path>
          <path class="cls-36" d="M73.5,242.72s2,2.91,3.18,2.48,2.63-.77,2.63-.77l.12-.71s-2-1.63-2.54-1.61-1.54.15-1.78.14Z"></path>
          <path class="cls-37" d="M73.44,242.29c0,.31.09,1.12.94,1.05a11.78,11.78,0,0,0,1.68-.28s1.35-2.18,1.64-2.55.56-.44-.68-.35-1.32-.19-2.28.33a3.17,3.17,0,0,0-1.3,1.8"></path>
          <path class="cls-38" d="M76.06,243.07a14.7,14.7,0,0,0,.87-1.92c.3-.87.33-1.12,1.13-1s2.65-.35,3.35.15.67.43.42,1.45A3.77,3.77,0,0,1,80.11,244a2.11,2.11,0,0,1-2.42.38,5.5,5.5,0,0,1-1.63-1.26"></path>
        </g>
      </g>
    </g>
  </g>
</svg>
