<?xml version="1.0" encoding="UTF-8"?>
<svg xmlns="http://www.w3.org/2000/svg" viewBox="0 0 110.12 106.88">
  <defs>
    <style>
      .cls-1 {
        fill: #85563a;
      }

      .cls-2 {
        fill: #8e6848;
      }

      .cls-3 {
        fill: #713e21;
      }

      .cls-4 {
        fill: #9b714f;
      }

      .cls-5 {
        fill: #3d271f;
      }

      .cls-6 {
        fill: #69391e;
      }

      .cls-7 {
        fill: #6b472f;
      }

      .cls-8 {
        fill: #5c3624;
      }

      .cls-9 {
        fill: #795135;
      }

      .cls-10 {
        fill: #9a734f;
      }
    </style>
  </defs>
  <g id="Слой_2" data-name="Слой 2">
    <g id="Слой_10" data-name="Слой 10">
      <g>
        <polygon class="cls-1" points="7.72 83.36 57.69 106.88 103.91 83.47 55.86 63.11 7.72 83.36"></polygon>
        <polygon class="cls-1" points="0 16.62 57.69 40.72 110.12 18.49 57.69 0 0 16.62"></polygon>
        <path class="cls-2" d="M57.69,40.72V71s16-11.76,22.42-12.35,19.1,24.24,23.81,24.83l6.2-65Z"></path>
        <path class="cls-3" d="M4.22,52.77l3.5,30.59,50,23.52V71S30.1,59.24,27.16,55.12,4.22,52.77,4.22,52.77"></path>
        <path class="cls-4" d="M0,16.62,4.22,52.77s5.39.43,11.18.59c7.25.19,14.12,4.9,19.61,10.39C41.39,70.13,57.69,71,57.69,71V40.72Z"></path>
        <path class="cls-5" d="M38.45,74.84a2.35,2.35,0,0,0-.11-.9h0a1.61,1.61,0,0,0-1.28-1c-.89,0-1.42.51-1.36.78l.19.41,0,0,.75.62.13.11L37,75c.35.24.3.34.66.41a1.08,1.08,0,0,0,.74-.18l.07-.13h0v0Z"></path>
        <path class="cls-5" d="M16.65,70.67a4.47,4.47,0,0,0-1.49.82v0s-1.5,1.38-.91,3,1.89,2.16,2.34,1.86l.58-.63v-.06a15,15,0,0,0,.58-1.76l.08-.31.09-.34c.19-.78.39-.77.26-1.46a2.05,2.05,0,0,0-.84-1.16l-.28,0h0Z"></path>
        <path class="cls-5" d="M51.87,91A11,11,0,0,0,50,87.2h0s-3.31-3.9-7.35-2.59-5.59,4.53-4.89,5.68a15.65,15.65,0,0,0,1.53,1.52l.14,0c1.19.77,3.39,1.13,4.37,1.61a2.24,2.24,0,0,0,.77.26c.21.07.45.15.84.26,1.93.54,1.89,1,3.64.79a5.19,5.19,0,0,0,3-2,3.74,3.74,0,0,0,.13-.68h0l0-.07a1.27,1.27,0,0,0-.28-1"></path>
        <path class="cls-5" d="M25.75,77.73a8.62,8.62,0,0,0-1.86,2.69l0,0s-1.4,3.67,1,5.9,5.11,2.09,5.62,1.19a14.4,14.4,0,0,0,.46-1.59l0-.09a31.5,31.5,0,0,0-.52-3.54,1.77,1.77,0,0,0-.12-.61c0-.17-.07-.35-.14-.66-.34-1.49,0-1.65-.8-2.73A4,4,0,0,0,26.86,77l-.52.17h0l-.05,0a.94.94,0,0,0-.54.53"></path>
        <path class="cls-6" d="M57.69,71S68.93,55.12,81.87,54.73s25.69-9.81,25.69-9.81l-3.64,38.56-46.23,23.4Z"></path>
        <path class="cls-5" d="M74.18,77.05a10.76,10.76,0,0,0-4,1.32v0s-4.3,2.69-3.59,6.84,3.66,6.13,4.88,5.6a14.71,14.71,0,0,0,1.71-1.28l0-.13c.92-1.06,1.6-3.17,2.21-4.06a2,2,0,0,0,.35-.72c.11-.2.21-.42.37-.79.82-1.81,1.29-1.71,1.3-3.45a5.09,5.09,0,0,0-1.54-3.21,3.4,3.4,0,0,0-.65-.23v0h-.07a1.26,1.26,0,0,0-1,.14"></path>
        <path class="cls-5" d="M95.41,75.8a3.28,3.28,0,0,0-1.25-.3h0a2.29,2.29,0,0,0-2,1.18c-.49,1.18-.05,2.18.35,2.24l.65-.06,0,0a12.3,12.3,0,0,0,1.23-.69l.21-.13.22-.14c.51-.34.62-.24.9-.69a1.56,1.56,0,0,0,.12-1.07l-.13-.17h0Z"></path>
        <path class="cls-5" d="M91.57,64.67A8.35,8.35,0,0,0,88.74,63v0S85,61.85,82.9,64.39s-1.7,5.29-.77,5.73a10.92,10.92,0,0,0,1.63.35l.1,0a28.09,28.09,0,0,0,3.5-.79,1.83,1.83,0,0,0,.61-.16c.16,0,.35-.09.65-.19,1.48-.46,1.66-.13,2.68-1a3.94,3.94,0,0,0,1.09-2.54l-.2-.5h0l0,0a.91.91,0,0,0-.58-.5"></path>
        <path class="cls-7" d="M54.19,26.5a1.6,1.6,0,0,0-1.54-.57c-.84.27-1.18.94-1,1.18l.31.33.68-.39Z"></path>
        <path class="cls-8" d="M54.63,27.52s-.27-1.16-.7-1.17a9.17,9.17,0,0,1-.93-.08l-.12.21.6.82.58.17Z"></path>
        <path class="cls-9" d="M54.6,27.67c0-.1.1-.37-.17-.45a4.73,4.73,0,0,0-.57-.12l-.83.61c-.13.08-.23.07.18.19s.39.22.76.18a1.12,1.12,0,0,0,.63-.41"></path>
        <path class="cls-10" d="M53.86,27.1l-.51.5-.48.19-1-.46c-.16-.24-.16-.21,0-.5a1.26,1.26,0,0,1,.82-.5.71.71,0,0,1,.81.17Z"></path>
        <path class="cls-7" d="M50.7,6.85a2.33,2.33,0,0,0-2.37-.34c-1.14.64-1.41,1.7-1.13,2l.55.37c.37.23.83-.76.86-.77Z"></path>
        <path class="cls-8" d="M51.65,8.18s-.74-1.58-1.37-1.46a13.4,13.4,0,0,1-1.35.17l-.11.33s.85,1,1.12,1,.76,0,.88.07Z"></path>
        <path class="cls-9" d="M51.65,8.4c0-.15,0-.56-.38-.59a6.88,6.88,0,0,0-.85,0l-1,1.13c-.17.16-.3.17.31.22s.64.2,1.15,0a1.56,1.56,0,0,0,.78-.78"></path>
        <path class="cls-10" d="M50.42,7.81a7.88,7.88,0,0,0-.58.88c-.21.4-.24.52-.63.42s-1.33,0-1.64-.34-.29-.26-.09-.74a1.91,1.91,0,0,1,1-1,1.06,1.06,0,0,1,1.22,0,2.82,2.82,0,0,1,.7.75"></path>
        <path class="cls-7" d="M46,14.06s-4.89-2.44-8.31.54-3.59,6.81-2.41,7.64a14.8,14.8,0,0,0,2.14.85c1.41.52,2.29-3.15,2.37-3.21Z"></path>
        <path class="cls-8" d="M50.18,17.92s-3.63-4.86-5.7-4S40,15.45,40,15.45l-.14,1.24s3.58,2.65,4.52,2.57,2.64-.39,3.06-.39a22.25,22.25,0,0,0,2.74-.95"></path>
        <path class="cls-9" d="M50.32,18.66c0-.54-.24-1.93-1.71-1.74a20.51,20.51,0,0,0-2.88.62s-2.14,3.89-2.61,4.55-.92.82,1.21.54,2.3.22,3.91-.75a5.47,5.47,0,0,0,2.08-3.22"></path>
        <path class="cls-10" d="M45.73,17.54a25.93,25.93,0,0,0-1.34,3.37c-.44,1.54-.46,2-1.86,1.89s-4.54.84-5.8,0-1.2-.68-.85-2.47,1.17-2.62,2.78-4a3.64,3.64,0,0,1,4.14-.87,9.3,9.3,0,0,1,2.93,2"></path>
        <path class="cls-7" d="M62.92,15.09s-4.1-2.42-7.25,0-3.52,5.7-2.56,6.49a16,16,0,0,0,1.82.87c1.19.54,2.17-2.6,2.24-2.64Z"></path>
        <path class="cls-8" d="M66.31,18.69s-2.85-4.44-4.7-3.83-4,1.07-4,1.07L57.43,17s2.94,2.52,3.77,2.51,2.31-.18,2.68-.16a17.13,17.13,0,0,0,2.43-.65"></path>
        <path class="cls-9" d="M66.39,19.34c0-.47-.1-1.69-1.38-1.61a18.82,18.82,0,0,0-2.54.36s-2.09,3.24-2.54,3.79-.84.65,1,.55,2,.32,3.44-.42a4.76,4.76,0,0,0,2-2.67"></path>
        <path class="cls-10" d="M62.47,18.09a22.65,22.65,0,0,0-1.36,2.85c-.48,1.31-.52,1.67-1.73,1.53s-4,.44-5-.33-1-.66-.59-2.18,1.18-2.21,2.66-3.32a3.18,3.18,0,0,1,3.65-.51,8.32,8.32,0,0,1,2.41,2"></path>
        <path class="cls-7" d="M73.79,10.75s-4.05-3.12-7.72-1-4.52,5.59-3.59,6.56a14.55,14.55,0,0,0,1.8,1.17C65.49,18.21,67,15,67,15Z"></path>
        <path class="cls-8" d="M76.92,15s-2.45-5.1-4.5-4.7-4.39.6-4.39.6l-.35,1.11s2.8,3.08,3.68,3.17,2.49.12,2.87.2A19.67,19.67,0,0,0,76.92,15"></path>
        <path class="cls-9" d="M76.91,15.75c.06-.5.13-1.81-1.25-1.9a19.77,19.77,0,0,0-2.75,0s-2.66,3.18-3.22,3.7-1,.58,1,.71,2.07.62,3.72,0a5.13,5.13,0,0,0,2.49-2.57"></path>
        <path class="cls-10" d="M72.91,13.89a24.16,24.16,0,0,0-1.84,2.85c-.68,1.34-.78,1.72-2,1.4s-4.31-.06-5.32-1-1-.84-.33-2.41,1.55-2.19,3.27-3.18a3.41,3.41,0,0,1,4,0,8.78,8.78,0,0,1,2.31,2.4"></path>
        <path class="cls-7" d="M76.93,23.83a2.42,2.42,0,0,0,2.24-1.11c.61-1.22.21-2.3-.21-2.39h-.69c-.46,0-.27,1.14-.29,1.16Z"></path>
        <path class="cls-8" d="M75.32,23.25s1.57.93,2.05.45a13.52,13.52,0,0,1,1.06-.95l-.1-.35-1.55-.19c-.26.13-.69.41-.81.46Z"></path>
        <path class="cls-9" d="M75.2,23.06c.07.14.29.51.67.28a5.76,5.76,0,0,0,.73-.5l.2-1.57c.06-.24.16-.33-.4,0s-.66.21-1,.66a1.68,1.68,0,0,0-.2,1.14"></path>
        <path class="cls-10" d="M76.6,22.84a7,7,0,0,0,0-1.1c0-.47-.1-.59.3-.73s1.17-.76,1.61-.68.41.05.52.59a2,2,0,0,1-.31,1.43,1.1,1.1,0,0,1-1,.72,2.81,2.81,0,0,1-1.05-.23"></path>
        <path class="cls-7" d="M38.4,24.7s2.08.29,3-1.21.47-2.92-.06-3.07a6.75,6.75,0,0,0-.88-.05c-.58,0-.44,1.43-.47,1.46Z"></path>
        <path class="cls-8" d="M36.41,23.82s1.91,1.32,2.56.75,1.44-1.11,1.44-1.11l-.1-.46a6.49,6.49,0,0,0-2-.39c-.33.15-.91.47-1.06.53Z"></path>
        <path class="cls-9" d="M36.27,23.56c.08.19.32.67.83.42a7.06,7.06,0,0,0,1-.57s.3-1.68.39-2,.24-.41-.5,0-.87.2-1.33.75a2.06,2.06,0,0,0-.36,1.42"></path>
        <path class="cls-10" d="M38.07,23.41A9.52,9.52,0,0,0,38.14,22c0-.62-.07-.77.45-.92s1.55-.86,2.1-.72.52.1.61.79a2.47,2.47,0,0,1-.51,1.8,1.39,1.39,0,0,1-1.4.82,3.59,3.59,0,0,1-1.32-.38"></path>
        <path class="cls-7" d="M52,17a1.79,1.79,0,0,0,1.82.32c.9-.47,1.14-1.29.93-1.53l-.42-.29c-.28-.19-.66.56-.68.57Z"></path>
        <path class="cls-8" d="M51.25,15.92s.53,1.24,1,1.16,1-.09,1-.09l.09-.26-.84-.8-.68-.07Z"></path>
        <path class="cls-9" d="M51.25,15.75c0,.12,0,.43.28.47a5,5,0,0,0,.66,0l.8-.84c.14-.12.24-.13-.23-.18s-.49-.17-.89-.05a1.24,1.24,0,0,0-.62.59"></path>
        <path class="cls-10" d="M52.19,16.23a5.49,5.49,0,0,0,.46-.65c.18-.32.21-.41.51-.32s1,.06,1.25.3.23.21.06.58a1.42,1.42,0,0,1-.81.72.82.82,0,0,1-.95,0,2.06,2.06,0,0,1-.52-.6"></path>
        <path class="cls-7" d="M68.42,23.93s4.6,1.12,6.9-2.05,1.72-6.43.57-6.9a13.21,13.21,0,0,0-2-.31c-1.29-.17-1.32,3.1-1.38,3.16Z"></path>
        <path class="cls-8" d="M64.16,21.48s4,3.4,5.57,2.28,3.48-2.16,3.48-2.16l-.12-1.07s-3.52-1.54-4.3-1.29-2.15.83-2.5.92a17.82,17.82,0,0,0-2.13,1.32"></path>
        <path class="cls-9" d="M63.9,20.88c.14.45.58,1.58,1.77,1.14A18.19,18.19,0,0,0,68,21s1.05-3.69,1.32-4.34.62-.87-1.12-.22-2,.25-3.15,1.38a4.75,4.75,0,0,0-1.14,3.11"></path>
        <path class="cls-10" d="M68,21a20.64,20.64,0,0,0,.48-3.1c.08-1.39,0-1.75,1.21-2s3.67-1.57,4.88-1.14,1.14.34,1.19,1.91-.48,2.44-1.57,3.92a3.14,3.14,0,0,1-3.32,1.53A8.29,8.29,0,0,1,68,21"></path>
        <path class="cls-7" d="M47.22,21.28s2.76,1.55,4.83-.08,2.26-3.83,1.61-4.34a9.19,9.19,0,0,0-1.22-.56C51.64,16,51,18.06,51,18.09Z"></path>
        <path class="cls-8" d="M44.93,18.92s2,2.92,3.17,2.48,2.63-.76,2.63-.76l.12-.71s-2-1.63-2.54-1.61-1.53.15-1.78.14Z"></path>
        <path class="cls-9" d="M44.86,18.49c0,.32.09,1.12.94,1.06a12.08,12.08,0,0,0,1.69-.28s1.34-2.18,1.64-2.55.55-.45-.69-.35-1.32-.19-2.28.32a3.2,3.2,0,0,0-1.3,1.8"></path>
        <path class="cls-10" d="M47.48,19.27a15.16,15.16,0,0,0,.88-1.91c.29-.87.32-1.12,1.12-1s2.65-.35,3.35.15.67.42.42,1.45a3.79,3.79,0,0,1-1.71,2.24,2.12,2.12,0,0,1-2.42.38,5.42,5.42,0,0,1-1.64-1.27"></path>
      </g>
    </g>
  </g>
</svg>
