<?xml version="1.0" encoding="UTF-8"?>
<svg xmlns="http://www.w3.org/2000/svg" xmlns:xlink="http://www.w3.org/1999/xlink" viewBox="0 0 84.4 58.6">
  <defs>
    <style>
      .cls-1 {
        fill: #772f46;
      }

      .cls-2 {
        clip-path: url(#clip-path);
      }

      .cls-3 {
        fill: #60273b;
      }

      .cls-4 {
        clip-path: url(#clip-path-2);
      }

      .cls-5 {
        clip-path: url(#clip-path-3);
      }

      .cls-6 {
        fill: #672a40;
      }

      .cls-7 {
        fill: #5a2537;
      }

      .cls-8 {
        clip-path: url(#clip-path-4);
      }
    </style>
    <clipPath id="clip-path">
      <path class="cls-1" d="M70.2,27c-.9-.6-5.2-3.7-4.7-1s-.2,5-2.1,4.3-1.2-.2-2,1.9-3.5.2-3.8,3-.3,3.2,1.3,4.3,1.6,3.9,2.6,4.9a4.9,4.9,0,0,0,4.8,1.8c2.3-.4,5.2,2.7,6.9,2.2s1.8-2.1,3.1-3.9A9.9,9.9,0,0,1,80,41.7s2.2-4.1,1.3-5.1-2.6-2.5-2-4.8-3.9-1.7-4.9-3.5S70.2,27,70.2,27Z"></path>
    </clipPath>
    <clipPath id="clip-path-2">
      <path class="cls-1" d="M34.2,18.2c-1.1-.2-6.2-.7-4.5,1.4s2.2,4.4.3,4.7-1.2.5-.9,2.7-3,1.9-1.9,4.5,1.4,2.9,3.3,3.1,3.3,2.6,4.7,3a4.8,4.8,0,0,0,5-.8c1.8-1.4,5.9-.2,7.1-1.4s.6-2.7.8-4.9A10,10,0,0,1,50,26.3s-.1-4.8-1.4-5.2-3.5-.9-4.1-3.2-4.2.4-6-.7S34.2,18.2,34.2,18.2Z"></path>
    </clipPath>
    <clipPath id="clip-path-3">
      <path class="cls-1" d="M66.9,34c-.6-.9-3.7-5.1-4.1-2.5s-1.7,4.7-3.3,3.5-1.1-.6-2.6,1.1-3.4-.9-4.6,1.7-1.2,2.9-.1,4.5.3,4.2.9,5.4a5,5,0,0,0,4,3.2c2.4.4,4.1,4.2,5.9,4.3s2.4-1.4,4.1-2.7a9.2,9.2,0,0,1,4.4-1.4s3.5-3.2,2.9-4.5-1.7-3.2-.4-5.2-3.1-2.8-3.5-4.9S66.9,34,66.9,34Z"></path>
    </clipPath>
    <clipPath id="clip-path-4">
      <path class="cls-1" d="M23.9,33.2c-1.1-.1-6.3-.7-4.5,1.5s2.2,4.4.3,4.7-1.2.4-.9,2.7-3,1.9-1.9,4.5,1.4,2.9,3.3,3.1,3.3,2.6,4.6,3a5.5,5.5,0,0,0,5.1-.8c1.8-1.5,5.8-.2,7.1-1.5s.6-2.7.8-4.9a8.8,8.8,0,0,1,1.9-4.2s-.1-4.7-1.4-5.1-3.5-1-4.1-3.2-4.2.3-6-.7S23.9,33.2,23.9,33.2Z"></path>
    </clipPath>
  </defs>
  <g id="Слой_2" data-name="Слой 2">
    <g id="Слой_1-2" data-name="Слой 1">
      <g>
        <g>
          <path class="cls-1" d="M70.2,27c-.9-.6-5.2-3.7-4.7-1s-.2,5-2.1,4.3-1.2-.2-2,1.9-3.5.2-3.8,3-.3,3.2,1.3,4.3,1.6,3.9,2.6,4.9a4.9,4.9,0,0,0,4.8,1.8c2.3-.4,5.2,2.7,6.9,2.2s1.8-2.1,3.1-3.9A9.9,9.9,0,0,1,80,41.7s2.2-4.1,1.3-5.1-2.6-2.5-2-4.8-3.9-1.7-4.9-3.5S70.2,27,70.2,27Z"></path>
          <g class="cls-2">
            <path class="cls-3" d="M53.4,34.8c-.2,1.1,5.5.1,8.1,1.9s7,5.8,9.6,5.8,7.1.4,8.9-.8,4.9.5,4.3,4.1-3.7,11.3-10,9.6S64,53.8,61.5,50.1a67.7,67.7,0,0,0-6-7.6Z"></path>
            <path class="cls-3" d="M59.1,46.8s2.8-4.1,6.2-5.8,7.5-6.7,7.3-7.4-2.8-4.3-2.4-6.6-5.5-4.7-5.5-4.7l-8.1,5.1-4.2,7.4Z"></path>
          </g>
        </g>
        <g>
          <path class="cls-1" d="M25.8,16.5c0,1.1,0,6.3,1.9,4.4s4.2-2.7,4.7-.8.6,1.1,2.8.5,2.2,2.8,4.6,1.4,2.8-1.6,2.8-3.6,2.2-3.5,2.5-4.9a5.7,5.7,0,0,0-1.4-5c-1.7-1.6-.8-5.7-2.2-6.8s-2.8-.3-5-.3A9.6,9.6,0,0,1,32.1,0s-4.7.6-4.9,1.9-.6,3.6-2.8,4.4.8,4.2,0,6.1S25.8,16.5,25.8,16.5Z"></path>
          <path class="cls-3" d="M43.7,8.5a4.8,4.8,0,0,1-1.1-2.8L41.5,7.2c-.7,1.1-1.5,4.6-3,6.4a12.8,12.8,0,0,1-3.6,2.9c-1.5.9-3.7,1-4.9,1.5l-1.7.9-2.3.8c.3,1.3.7,2.2,1.7,1.2s4.2-2.7,4.7-.8.6,1.1,2.8.5,2.2,2.8,4.6,1.4,2.8-1.6,2.8-3.6,2.2-3.5,2.5-4.9A5.7,5.7,0,0,0,43.7,8.5Z"></path>
        </g>
        <g>
          <path class="cls-1" d="M39,8.4c-.9.7-5.2,3.6-2.5,4.1s4.6,1.9,3.3,3.4-.6,1.1,1.1,2.6-1.1,3.4,1.4,4.6,3,1.4,4.6.3,4.1-.2,5.4-.7a5.5,5.5,0,0,0,3.4-3.9c.4-2.3,4.3-4,4.4-5.7s-1.3-2.4-2.5-4.3a9.2,9.2,0,0,1-1.4-4.4s-3-3.5-4.3-3-3.3,1.5-5.2.2-3,3-5,3.4S39,8.4,39,8.4Z"></path>
          <path class="cls-3" d="M55.7,18.8a4.2,4.2,0,0,1,1.7-2.5H55.5c-1.3,0-4.6,1.4-7,1.1A13.9,13.9,0,0,1,44.1,16c-1.6-.8-2.8-2.5-3.9-3.2l-1.7-.9-2-1.5c-.9.9-1.4,1.8,0,2.1s4.6,1.9,3.3,3.4-.6,1.1,1.1,2.6-1.1,3.4,1.4,4.6,3,1.4,4.6.3,4.1-.2,5.4-.7A5.5,5.5,0,0,0,55.7,18.8Z"></path>
        </g>
        <g>
          <path class="cls-1" d="M16.2,34c.6,1,3.3,5.5,3.9,2.8s2.2-4.5,3.6-3.1,1.1.7,2.7-.9,3.3,1.2,4.7-1.2,1.5-2.9.5-4.5.1-4.2-.4-5.5A5,5,0,0,0,27.5,18c-2.3-.6-3.7-4.5-5.4-4.8s-2.5,1.2-4.4,2.3a9,9,0,0,1-4.5,1.1s-3.7,2.9-3.3,4.2,1.4,3.3-.1,5.2,2.9,3.1,3.1,5.2S16.2,34,16.2,34Z"></path>
          <path class="cls-3" d="M27.5,18a4.7,4.7,0,0,1-2.4-1.9A12.1,12.1,0,0,1,25,18c-.1,1.3,1.1,4.7.6,7.1a13.8,13.8,0,0,1-1.5,4.3c-.9,1.5-2.7,2.7-3.5,3.7a8.6,8.6,0,0,1-1,1.6l-1.5,2c.8.9,1.7,1.5,2,.1s2.2-4.5,3.6-3.1,1.1.7,2.7-.9,3.3,1.2,4.7-1.2,1.5-2.9.5-4.5.1-4.2-.4-5.5A5,5,0,0,0,27.5,18Z"></path>
        </g>
        <g>
          <path class="cls-1" d="M34.2,18.2c-1.1-.2-6.2-.7-4.5,1.4s2.2,4.4.3,4.7-1.2.5-.9,2.7-3,1.9-1.9,4.5,1.4,2.9,3.3,3.1,3.3,2.6,4.7,3a4.8,4.8,0,0,0,5-.8c1.8-1.4,5.9-.2,7.1-1.4s.6-2.7.8-4.9A10,10,0,0,1,50,26.3s-.1-4.8-1.4-5.2-3.5-.9-4.1-3.2-4.2.4-6-.7S34.2,18.2,34.2,18.2Z"></path>
          <g class="cls-4">
            <path class="cls-3" d="M28,36.2c2.5-1.6.8-2.3,4.3-2.3s3.9.8,6.2,0,3.7.7,6.7-1.3L50,29s-.1,7-1.1,9-12.2,2.6-14.8,2.5S28,36.2,28,36.2Z"></path>
          </g>
        </g>
        <g>
          <path class="cls-1" d="M6.7,48.7c.6.9,3.2,5.4,3.9,2.8s2.1-4.5,3.6-3.1,1,.7,2.6-.9,3.3,1.2,4.8-1.2,1.5-2.9.5-4.5.1-4.2-.4-5.6A5.4,5.4,0,0,0,18,32.7c-2.3-.6-3.7-4.5-5.4-4.8s-2.5,1.2-4.4,2.3a10.4,10.4,0,0,1-4.5,1.1S0,34.1.4,35.5s1.4,3.3-.1,5.2,2.8,3.1,3.1,5.2S6.7,48.7,6.7,48.7Z"></path>
          <path class="cls-3" d="M18,32.7a4.7,4.7,0,0,1-2.4-1.9,13.7,13.7,0,0,1-.2,1.9c0,1.3,1.1,4.7.7,7.1A12.4,12.4,0,0,1,14.6,44c-.9,1.6-2.8,2.7-3.5,3.8s-.7,1.1-1,1.6a10,10,0,0,1-1.6,1.9c.9,1,1.8,1.6,2.1.2s2.1-4.5,3.6-3.1,1,.7,2.6-.9,3.3,1.2,4.8-1.2,1.5-2.9.5-4.5.1-4.2-.4-5.6A5.4,5.4,0,0,0,18,32.7Z"></path>
        </g>
        <g>
          <path class="cls-1" d="M66.9,34c-.6-.9-3.7-5.1-4.1-2.5s-1.7,4.7-3.3,3.5-1.1-.6-2.6,1.1-3.4-.9-4.6,1.7-1.2,2.9-.1,4.5.3,4.2.9,5.4a5,5,0,0,0,4,3.2c2.4.4,4.1,4.2,5.9,4.3s2.4-1.4,4.1-2.7a9.2,9.2,0,0,1,4.4-1.4s3.5-3.2,2.9-4.5-1.7-3.2-.4-5.2-3.1-2.8-3.5-4.9S66.9,34,66.9,34Z"></path>
          <g class="cls-5">
            <path class="cls-6" d="M54.5,34.8c.2.9,4.2,3.9,7,5.3s6.5,0,6.5,0l2.5-3.6s5-4.6.1-7.1,6.4-6-5-2.5L54.2,30.5Z"></path>
            <path class="cls-3" d="M49.4,41.5c2.8.8,2.2-1,4.6,1.7s2,3.3,4.1,4.5,2,3.3,5.5,4l5.9,1.2s-5.2,4.6-7.3,5.3S52,50.8,50.4,48.9,49.4,41.5,49.4,41.5Z"></path>
            <path class="cls-7" d="M57.9,58.6c-.4-.5-2.4-11.3.2-10.9s2.8.7,3.4-1.9a14,14,0,0,0,0-5.7l-2.9-7.2-9.2.7v7.9s-1.9-2.2,1,7.4,3,7.3,3,7.3Z"></path>
          </g>
        </g>
        <g>
          <path class="cls-1" d="M52,17.3c-1.1,0-6.3-.4-4.5,1.6s2.4,4.3.4,4.7-1.1.5-.7,2.8-2.9,1.9-1.7,4.5,1.4,2.9,3.3,3,3.4,2.5,4.8,2.9a5.4,5.4,0,0,0,5-1c1.8-1.5,5.8-.4,7-1.7s.5-2.7.7-4.9A9,9,0,0,1,68,24.9s-.2-4.7-1.6-5.1-3.5-.8-4.1-3.1-4.2.5-6.1-.4S52,17.3,52,17.3Z"></path>
          <path class="cls-3" d="M58.6,35.8a5.3,5.3,0,0,1,2.9-.9,8.1,8.1,0,0,1-1.4-1.2c-1-.8-4.5-1.8-6.2-3.5a14.2,14.2,0,0,1-2.6-3.8c-.8-1.6-.7-3.7-1.1-5a8.7,8.7,0,0,1-.7-1.7,21.7,21.7,0,0,1-.7-2.4c-1.3.1-2.2.6-1.3,1.6s2.4,4.3.4,4.7-1.1.5-.7,2.8-2.9,1.9-1.7,4.5,1.4,2.9,3.3,3,3.4,2.5,4.8,2.9A5.4,5.4,0,0,0,58.6,35.8Z"></path>
        </g>
        <g>
          <path class="cls-1" d="M41.9,34.8c-1.1-.1-6.3-.5-4.5,1.6s2.4,4.3.5,4.7-1.2.5-.8,2.7-2.9,2-1.7,4.6,1.4,2.9,3.3,3,3.4,2.5,4.8,2.9a5.4,5.4,0,0,0,5-1c1.8-1.6,5.8-.4,7-1.7s.5-2.7.7-4.9a10.2,10.2,0,0,1,1.7-4.3s-.2-4.7-1.5-5.1-3.6-.8-4.2-3.1-4.2.5-6.1-.4S41.9,34.8,41.9,34.8Z"></path>
          <path class="cls-3" d="M48.5,53.3a4.6,4.6,0,0,1,2.9-.9L50,51.2c-1-.8-4.5-1.8-6.2-3.5a14.2,14.2,0,0,1-2.6-3.8c-.8-1.6-.6-3.7-1.1-5s-.5-1.1-.7-1.7a21.7,21.7,0,0,1-.7-2.4c-1.3.1-2.2.5-1.3,1.6s2.4,4.3.5,4.7-1.2.5-.8,2.7-2.9,2-1.7,4.6,1.4,2.9,3.3,3,3.4,2.5,4.8,2.9A5.4,5.4,0,0,0,48.5,53.3Z"></path>
        </g>
        <g>
          <path class="cls-1" d="M23.9,33.2c-1.1-.1-6.3-.7-4.5,1.5s2.2,4.4.3,4.7-1.2.4-.9,2.7-3,1.9-1.9,4.5,1.4,2.9,3.3,3.1,3.3,2.6,4.6,3a5.5,5.5,0,0,0,5.1-.8c1.8-1.5,5.8-.2,7.1-1.5s.6-2.7.8-4.9a8.8,8.8,0,0,1,1.9-4.2s-.1-4.7-1.4-5.1-3.5-1-4.1-3.2-4.2.3-6-.7S23.9,33.2,23.9,33.2Z"></path>
          <g class="cls-8">
            <path class="cls-3" d="M17.7,51.2c2.5-1.5.7-2.2,4.3-2.2s3.9.7,6.2,0,3.7.7,6.7-1.4l4.8-3.5S39.6,51,38.6,53s-12.2,2.6-14.8,2.5S17.7,51.2,17.7,51.2Z"></path>
          </g>
        </g>
      </g>
    </g>
  </g>
</svg>
