<?xml version="1.0" encoding="UTF-8"?>
<svg xmlns="http://www.w3.org/2000/svg" xmlns:xlink="http://www.w3.org/1999/xlink" viewBox="0 0 261.2 170">
  <defs>
    <style>
      .cls-1 {
        fill: #e4a339;
      }

      .cls-2 {
        fill: #ecbd48;
      }

      .cls-3 {
        fill: #e19b30;
      }

      .cls-4 {
        fill: #f4d76d;
      }

      .cls-5 {
        fill: #f0c556;
      }

      .cls-6 {
        fill: #f2d15c;
      }

      .cls-7 {
        fill: #eab337;
      }

      .cls-8 {
        fill: #e0a133;
      }

      .cls-9 {
        clip-path: url(#clip-path);
      }

      .cls-10 {
        clip-path: url(#clip-path-2);
      }

      .cls-11 {
        fill: #f5df76;
      }

      .cls-12 {
        fill: #f6ebbc;
      }

      .cls-13 {
        clip-path: url(#clip-path-3);
      }

      .cls-14 {
        clip-path: url(#clip-path-4);
      }

      .cls-15 {
        fill: #e3a235;
      }

      .cls-16 {
        clip-path: url(#clip-path-5);
      }

      .cls-17 {
        clip-path: url(#clip-path-6);
      }

      .cls-18 {
        clip-path: url(#clip-path-7);
      }

      .cls-19 {
        clip-path: url(#clip-path-8);
      }

      .cls-20 {
        clip-path: url(#clip-path-9);
      }

      .cls-21 {
        fill: #c27320;
      }

      .cls-22 {
        clip-path: url(#clip-path-10);
      }

      .cls-23 {
        fill: #d47624;
      }

      .cls-24 {
        fill: #efc555;
      }

      .cls-25 {
        clip-path: url(#clip-path-11);
      }

      .cls-26 {
        clip-path: url(#clip-path-12);
      }

      .cls-27 {
        clip-path: url(#clip-path-13);
      }

      .cls-28 {
        clip-path: url(#clip-path-14);
      }

      .cls-29 {
        clip-path: url(#clip-path-15);
      }

      .cls-30 {
        clip-path: url(#clip-path-16);
      }

      .cls-31 {
        clip-path: url(#clip-path-17);
      }

      .cls-32 {
        clip-path: url(#clip-path-18);
      }

      .cls-33 {
        clip-path: url(#clip-path-19);
      }

      .cls-34 {
        clip-path: url(#clip-path-20);
      }

      .cls-35 {
        clip-path: url(#clip-path-21);
      }

      .cls-36 {
        clip-path: url(#clip-path-22);
      }

      .cls-37 {
        clip-path: url(#clip-path-23);
      }

      .cls-38 {
        clip-path: url(#clip-path-24);
      }

      .cls-39 {
        clip-path: url(#clip-path-25);
      }

      .cls-40 {
        fill: #df9933;
      }

      .cls-41 {
        clip-path: url(#clip-path-26);
      }

      .cls-42 {
        clip-path: url(#clip-path-27);
      }

      .cls-43 {
        fill: #f9f1a6;
      }

      .cls-44 {
        clip-path: url(#clip-path-28);
      }

      .cls-45 {
        clip-path: url(#clip-path-29);
      }
    </style>
    <clipPath id="clip-path" transform="translate(7.4)">
      <path class="cls-1" d="M123.7,73c1.2.2,3.2.2,3.6.3A5.1,5.1,0,0,0,129,73l1.5-.4a5.6,5.6,0,0,0,1.8-1.3,8.1,8.1,0,0,0,1.3-1.2,7,7,0,0,0,1.3-2.4c.4-2.1.2-2.9.5-4.7s1.2-5.3,1.4-7.2c1-9.1.2-14.9-1.2-19.6a46.5,46.5,0,0,0-3.7-8.7c-2.5-4.9-5.2-9.4-6.2-15a19,19,0,0,0-.9-3.2l-.3-.6c-.1-.2.1-.3,0-.4s-1.2.7-1.6,3.6a3.8,3.8,0,0,1-.1,1,19.5,19.5,0,0,1-.2,2.3c-2,7.2-4.3,15.5-5.8,24.1a82.5,82.5,0,0,0-1.3,13.8c0,6.5.4,11.1,3.2,15.2a30.7,30.7,0,0,0,2.8,3.5A15.5,15.5,0,0,0,123.7,73Z"></path>
    </clipPath>
    <clipPath id="clip-path-2" transform="translate(7.4)">
      <ellipse class="cls-2" cx="118.9" cy="43.9" rx="13.2" ry="36.2" transform="translate(-5.8 21.2) rotate(-10)"></ellipse>
    </clipPath>
    <clipPath id="clip-path-3" transform="translate(7.4)">
      <path class="cls-4" d="M139.3,104.6a2.1,2.1,0,0,1-.3-1.2,1.5,1.5,0,0,1-.1-.7,6,6,0,0,1,1.8-4.9,15.1,15.1,0,0,0,1.4-.9l1-1a4.1,4.1,0,0,1,1.9-.5l4,.4,5,1.1a41.8,41.8,0,0,1,16.8,8,54.6,54.6,0,0,1,7.1,7.4c3.9,4.6,7.3,9.4,13,13l2.9,2.5a1.7,1.7,0,0,1,.6.6l.4.5c.6,1.1-1.4.6-4.5-.5l-1.1-.4-2.6-.9A209.1,209.1,0,0,1,163,122a60.4,60.4,0,0,1-10.9-4.1c-4.7-2.3-8.5-5.2-10.8-8.9a13.6,13.6,0,0,1-1.3-2.4A11.8,11.8,0,0,1,139.3,104.6Z"></path>
    </clipPath>
    <clipPath id="clip-path-4" transform="translate(7.4)">
      <path class="cls-5" d="M161.5,102.7c-12-6.4-23.8-7.8-26.2-3.2s5.3,13.6,17.4,19.9,34.9,11.2,31.9,6.9C177.2,115.4,173.5,109.1,161.5,102.7Z"></path>
    </clipPath>
    <clipPath id="clip-path-5" transform="translate(7.4)">
      <path class="cls-6" d="M147.1,114.2c9.4,5.7,36.3,12.1,33.3,9.7-17.7-14.1-16.5-15.9-25.9-21.7S136,94.5,134,97.7,137.8,108.4,147.1,114.2Z"></path>
    </clipPath>
    <clipPath id="clip-path-6" transform="translate(7.4)">
      <path class="cls-4" d="M101.6,117.1a2.4,2.4,0,0,1-1.1-.6l-.5-.4c-1.4-1.4-2.3-2.5-2.4-4.7a14.6,14.6,0,0,0,.4-1.7,3.2,3.2,0,0,1,0-1.4,4,4,0,0,1,.9-1.7L102,104c1.4-1,2.8-2,4.2-2.8a40.4,40.4,0,0,1,17.5-6.5,49.7,49.7,0,0,1,10.2,0c6.1.4,11.9,1.2,18.4-.3l3.8-.4h1.5c1.2.3-.6,1.4-3.5,2.9l-1,.5-2.4,1.2c-6.7,4.8-13.5,9.7-20.1,13.4a62.9,62.9,0,0,1-10.6,5c-4.9,1.8-9.6,2.5-13.9,1.6a12.5,12.5,0,0,1-2.6-.7A16.3,16.3,0,0,1,101.6,117.1Z"></path>
    </clipPath>
    <clipPath id="clip-path-7" transform="translate(7.4)">
      <path class="cls-5" d="M115.6,99.8c-12.9,4.2-22.1,11.7-20.5,16.7s13.5,5.5,26.4,1.3,32.3-17.3,27.2-18.2C135.7,97.3,128.6,95.6,115.6,99.8Z"></path>
    </clipPath>
    <clipPath id="clip-path-8" transform="translate(7.4)">
      <path class="cls-6" d="M113.9,118.1c10.6-2.7,33.9-17.7,30.1-17.2-22.4,2.9-22.9.9-33.5,3.6S92,112.4,92.9,116.2,103.3,120.8,113.9,118.1Z"></path>
    </clipPath>
    <clipPath id="clip-path-9" transform="translate(7.4)">
      <path class="cls-3" d="M65.6,140.8c-1.3-.7-2.3-2.1-2.9-2.3a4.6,4.6,0,0,1-1.2-1.2,10.4,10.4,0,0,0-1-1.4,7.1,7.1,0,0,1-.8-1.9c-.2-.8-.4-3.4.1-4.3a26.6,26.6,0,0,1,3.8-6.2c1.6-1.8,3.2-3.4,4.7-4.9,7.4-7,13.3-10,18.6-11.7a53.9,53.9,0,0,1,10.3-2.1l6.1-.6,2.6-.4a30.6,30.6,0,0,0,7.8-2.4,24.4,24.4,0,0,1,3.1-1.1h.7c.2,0,.3.3.5.3s.1.9-1.9,2.8l-.8.9-1.7,1.6c-2.1,2.9-4.3,6.1-6.7,9.3l-2.3,3c-1.8,2.2-3.7,4.5-5.7,6.7a87.6,87.6,0,0,1-9.9,9.4c-5.1,4-10.8,6.9-16.6,7.5a21.7,21.7,0,0,1-3.6.1C67.8,141.7,66.6,141,65.6,140.8Z"></path>
    </clipPath>
    <clipPath id="clip-path-10" transform="translate(7.4)">
      <path class="cls-3" d="M162.6,126.9a34,34,0,0,0,1.5-3.3,5.3,5.3,0,0,0,.5-1.8c0-.8.3-1.1.3-1.7a9.5,9.5,0,0,0-.2-2.1c-.2-.8,0-1.1-.2-1.4a9.2,9.2,0,0,0-1.9-2.4,31.7,31.7,0,0,0-6.5-3.9c-2.4-.9-4.6-1.6-6.7-2.2-10.1-2.9-16.9-2.9-22.6-2a55.6,55.6,0,0,0-10.4,3l-5.9,2.2-2.5.8a26.5,26.5,0,0,1-8.4,1.5,19.4,19.4,0,0,0-3.3.5l-.6.2c-.2.1-.2.4-.3.5s.3.8,3,1.7l1.2.4,2.3.6c3.3,1.8,6.9,3.6,10.6,5.3l3.6,1.7c2.7,1.2,5.5,2.4,8.4,3.4a72.7,72.7,0,0,0,13.6,3.9c6.6,1.3,13.1,1.3,18.7-.9a20.1,20.1,0,0,0,3.3-1.6C161,128.8,161.8,127.5,162.6,126.9Z"></path>
    </clipPath>
    <clipPath id="clip-path-11" transform="translate(7.4)">
      <path class="cls-3" d="M204.4,134.8a22.4,22.4,0,0,1-1.2,3.5,5.5,5.5,0,0,1-.8,1.5c-.6.6-.6,1-1,1.4a4.6,4.6,0,0,1-1.6,1.4c-.6.4-3,1.4-4,1.2a27.8,27.8,0,0,1-7.1-1.6c-2.3-1-4.3-2-6.1-3-9-4.7-13.7-9.3-17-13.9a54.6,54.6,0,0,1-5.3-9.1l-2.5-5.5c-.4-.9-.8-1.6-1.2-2.4a28.4,28.4,0,0,0-4.8-6.7l-1.9-2.5a1.3,1.3,0,0,1-.3-.7c-.1-.1.1-.4,0-.5s.8-.4,3.3.9l1.1.5,2,1.1c3.5,1,7.2,2.1,11,3.4l3.6,1.3c2.7.9,5.4,2,8.1,3.2a77.7,77.7,0,0,1,12.1,6.4c5.4,3.6,9.9,8,12.4,13.3a24.2,24.2,0,0,1,1.2,3.5C204.6,132.4,204.3,133.8,204.4,134.8Z"></path>
    </clipPath>
    <clipPath id="clip-path-12" transform="translate(7.4)">
      <path class="cls-4" d="M76.7,138l-.9-.7-.5-.6a5.7,5.7,0,0,1-1.6-4.9c0-.3.5-1.1.6-1.7a3.9,3.9,0,0,1,.2-1.3,3.6,3.6,0,0,1,1.1-1.6l3.5-2.1,4.5-2.2a41.2,41.2,0,0,1,18.2-3.9,53.4,53.4,0,0,1,10.2,1.4c5.9,1.3,11.5,3,18.2,2.4l3.9.2h.8l.6.2c1.2.4-.7,1.3-3.9,2.3l-1.1.4-2.5.8a226.7,226.7,0,0,1-21.8,10.5A67.4,67.4,0,0,1,95,140.7c-5.1,1-9.9,1.1-14-.4l-2.5-1.1Z"></path>
    </clipPath>
    <clipPath id="clip-path-13" transform="translate(7.4)">
      <path class="cls-5" d="M93.2,122.9c-13.5,2.3-23.6,8.4-22.7,13.5s12.5,7.5,25.9,5.1,34.4-12.5,29.5-14.1C113.4,123.3,106.6,120.6,93.2,122.9Z"></path>
    </clipPath>
    <clipPath id="clip-path-14" transform="translate(7.4)">
      <path class="cls-6" d="M88.8,140.8c10.9-1.2,36.1-12.6,32.3-12.7-22.7-.4-22.8-2.4-33.7-1.3s-19.5,5.2-19.1,9S77.9,141.9,88.8,140.8Z"></path>
    </clipPath>
    <clipPath id="clip-path-15" transform="translate(7.4)">
      <path class="cls-4" d="M175,119.3l1,.8.4.5c1.2,1.6,1.9,2.8,1.6,5,0,.3-.5,1.1-.6,1.6a4.6,4.6,0,0,1-.2,1.4,4.2,4.2,0,0,1-1.1,1.6c-1.4.8-2.2,1.4-3.5,2a37.1,37.1,0,0,1-4.5,2.2c-7.2,3.2-13.1,4.1-18.3,3.9a53.4,53.4,0,0,1-10.1-1.5c-5.9-1.3-11.5-2.9-18.2-2.4l-3.9-.2h-1.4c-1.2-.5.7-1.4,3.9-2.4l1.1-.4,2.5-.8A239.7,239.7,0,0,1,145.6,120a77.3,77.3,0,0,1,11.1-3.4c5.2-1,9.9-1,14,.5a11.2,11.2,0,0,1,2.5,1.1Z"></path>
    </clipPath>
    <clipPath id="clip-path-16" transform="translate(7.4)">
      <path class="cls-5" d="M158.5,134.4c13.5-2.3,23.6-8.3,22.7-13.5s-12.4-7.4-25.9-5.1-34.4,12.4-29.5,14C138.3,133.9,145.1,136.7,158.5,134.4Z"></path>
    </clipPath>
    <clipPath id="clip-path-17" transform="translate(7.4)">
      <path class="cls-6" d="M162.9,116.6c-10.9,1.1-36.1,12.5-32.3,12.6,22.7.4,22.8,2.4,33.7,1.3s19.5-5.1,19.1-9S173.8,115.5,162.9,116.6Z"></path>
    </clipPath>
    <clipPath id="clip-path-18" transform="translate(7.4)">
      <path class="cls-1" d="M96.3,150.2c.3-1.2.3-3.2.4-3.6a5,5,0,0,0-.2-1.7c-.1-.6-.1-.6-.3-1.5a12.6,12.6,0,0,0-1.4-1.9,5.2,5.2,0,0,0-1.1-1.3,7.9,7.9,0,0,0-2.3-1.4c-2.1-.5-3-.3-4.7-.6s-5.3-1.4-7.2-1.7c-9.1-1.2-14.8-.6-19.6.7a41.4,41.4,0,0,0-8.8,3.4c-5,2.3-9.5,4.9-15.2,5.7l-3.2.8-.7.3c-.2.1-.2-.1-.3-.1s.7,1.3,3.5,1.8h1l2.3.3A233.2,233.2,0,0,0,62.4,156a82.9,82.9,0,0,0,13.8,1.8c6.5.2,11.1-.1,15.3-2.8a28.8,28.8,0,0,0,3.5-2.6A12.7,12.7,0,0,0,96.3,150.2Z"></path>
    </clipPath>
    <clipPath id="clip-path-19" transform="translate(7.4)">
      <ellipse class="cls-2" cx="67.1" cy="154.1" rx="36.2" ry="13.2" transform="translate(-21.2 11.1) rotate(-8.2)"></ellipse>
    </clipPath>
    <clipPath id="clip-path-20" transform="translate(7.4)">
      <path class="cls-1" d="M133.1,131.4c.5,1,1,2.9,1.3,3.3a9.9,9.9,0,0,1,.2,1.8V138a11.9,11.9,0,0,1-.8,2.1l-.8,1.6a6.9,6.9,0,0,1-1.9,1.9c-1.9,1-2.8,1-4.4,1.8s-4.7,2.6-6.5,3.3c-8.5,3.5-14.2,4.4-19.2,4.3a44.9,44.9,0,0,1-9.4-1.1c-5.3-1.1-10.4-2.5-16.1-1.8h-4c-.2,0-.2.2-.4.1s.4-1.4,3-2.5l1-.4,2.2-.9a243.6,243.6,0,0,1,21.4-12.2,77.7,77.7,0,0,1,13-5.1c6.2-1.8,10.8-2.7,15.5-1.1a34.7,34.7,0,0,1,4.1,1.6C131.9,130,132.5,130.9,133.1,131.4Z"></path>
    </clipPath>
    <clipPath id="clip-path-21" transform="translate(7.4)">
      <ellipse class="cls-2" cx="103.8" cy="134.8" rx="36.2" ry="13.2" transform="translate(-13.8 11.9) rotate(-6.1)"></ellipse>
    </clipPath>
    <clipPath id="clip-path-22" transform="translate(7.4)">
      <path class="cls-4" d="M161.8,144.4l.7-1a2.5,2.5,0,0,1,.2-.7,6,6,0,0,0-.2-5.2c-.1-.3-.9-.8-1.1-1.4a3.5,3.5,0,0,0-.7-1.1,4.8,4.8,0,0,0-1.6-1.2l-3.9-.7-5.1-.5a41.2,41.2,0,0,0-18.4,2.6,51.1,51.1,0,0,0-9,4.9c-5.2,3.2-9.9,6.7-16.3,8.5l-3.6,1.5-.8.4c-.2.1-.3.3-.5.3s1.2,1,4.5.9h3.9a228.5,228.5,0,0,0,24,2.3,72.9,72.9,0,0,0,11.7-.7c5.2-.8,9.6-2.4,13-5.2a17,17,0,0,0,1.9-1.9Z"></path>
    </clipPath>
    <clipPath id="clip-path-23" transform="translate(7.4)">
      <path class="cls-5" d="M141.2,135.9c13.4-2.5,25-.3,25.9,4.9S158,152,144.6,154.5s-36.7.2-32.6-3.1C122.3,143.3,127.8,138.3,141.2,135.9Z"></path>
    </clipPath>
    <clipPath id="clip-path-24" transform="translate(7.4)">
      <path class="cls-6" d="M151.4,151.1c-10.6,2.7-38.2.7-34.6-.7,21.1-8.1,20.5-10.2,31.2-12.9s20-1.8,20.9,1.9S162.1,148.4,151.4,151.1Z"></path>
    </clipPath>
    <clipPath id="clip-path-25" transform="translate(7.4)">
      <path class="cls-3" d="M151.6,144.9c-.4-1.4-.3-3.1-.6-3.6a5.4,5.4,0,0,1,0-1.8,10.9,10.9,0,0,0,.1-1.7,9.1,9.1,0,0,1,.8-2c.4-.7.3-1.1.6-1.4a8.1,8.1,0,0,1,2.4-1.7,30.4,30.4,0,0,1,7.2-2.1,60.8,60.8,0,0,1,7.1-.4c10.5-.2,17.1,1.5,22.4,3.9a58.5,58.5,0,0,1,9.3,5.5l5.1,3.7,2.2,1.4a27.1,27.1,0,0,0,7.7,3.6,25.6,25.6,0,0,1,3,1.3l.6.4c.2.1.1.4.2.5s-.5.8-3.4.9h-3.6c-3.6.8-7.6,1.7-11.7,2.4l-3.8.7c-2.9.4-6,.9-9,1.1a74,74,0,0,1-14.1.3c-6.7-.5-13-2.2-17.9-5.7a20.9,20.9,0,0,1-2.8-2.4C152.7,147.2,152.2,145.7,151.6,144.9Z"></path>
    </clipPath>
    <clipPath id="clip-path-26" transform="translate(7.4)">
      <path class="cls-3" d="M8.5,158.9l-1.2.2-1.6.4a3.4,3.4,0,0,0-1.7.8l-2.3,1.1-.5.3-.6.3-.3.2c-.2.3-.4.5-.3.7s.4.6.8.9a6.7,6.7,0,0,0,1.8.7l2.3.6a24,24,0,0,0,3.6,1.8,18,18,0,0,0,5.2.9c2.7.2,12.4,1.1,15,1.1h2.6c4.2-.2,8.7-.7,12.4-.9h2.8c.2,0,.8,0,.7-.1s-.1-.2-.4-.3l-1.2-.5-.5-.2-1.1-.5c-3.2-1-5.1-1.3-8.1-2.2l-2-.7c-1.8-.7-8.3-3.3-10.3-3.8a27.8,27.8,0,0,0-4.9-.8h-8Z"></path>
    </clipPath>
    <clipPath id="clip-path-27" transform="translate(7.4)">
      <path class="cls-7" d="M14.6,158.6c11.7,2.9,20.8,7.7,28.1,8.6,3.2.4-22.5,2.6-34.2-.3s-12.4-6-11.6-9.2S3,155.7,14.6,158.6Z"></path>
    </clipPath>
    <clipPath id="clip-path-28" transform="translate(7.4)">
      <path class="cls-3" d="M152.1,156.8a9.8,9.8,0,0,0,2.2-1.4l1.3-1.1a8.2,8.2,0,0,0,1.6-1.4,19.2,19.2,0,0,0,1.5-1.4l.5-.6.5-.6.2-.3a1.2,1.2,0,0,0,.1-1c-.7-.3-.7-.5-1.3-.7a5.5,5.5,0,0,0-2.3-.1,13.6,13.6,0,0,1-2.9,0,33.9,33.9,0,0,0-4.9-.7,21.9,21.9,0,0,0-6.2.8c-3.2.8-14.5,3.4-17.5,4.5l-2.8,1c-4.7,1.9-9.5,4.1-13.7,5.7l-2.3.8-.4.2-.5.2-.8.4a1.2,1.2,0,0,0,.7.2l1.5.2h2.2c4,0,6.3-.4,10.1-.4h2.5c2.3.1,10.9.8,13.3.7a29.1,29.1,0,0,0,5.9-1,34.7,34.7,0,0,0,4.6-1.3l2.4-.8,2-.8C150.4,157.9,151.3,157.2,152.1,156.8Z"></path>
    </clipPath>
    <clipPath id="clip-path-29" transform="translate(7.4)">
      <path class="cls-7" d="M141.3,151.7c13.2-6.6,21.3-6.1,19.9-.5s-12.5,21.5-24.9,18.5-31.8-4.2-27.5-8S129.1,157.7,141.3,151.7Z"></path>
    </clipPath>
  </defs>
  <g id="Слой_2" data-name="Слой 2">
    <g id="Слой_1-2" data-name="Слой 1">
      <g>
        <g>
          <path class="cls-8" d="M128.8,27.5c-2.8-6.4-7.5-26,3.6-27.5C117.5.7,121.3,28.2,128.8,27.5Z" transform="translate(7.4)"></path>
          <g>
            <g>
              <path class="cls-1" d="M123.7,73c1.2.2,3.2.2,3.6.3A5.1,5.1,0,0,0,129,73l1.5-.4a5.6,5.6,0,0,0,1.8-1.3,8.1,8.1,0,0,0,1.3-1.2,7,7,0,0,0,1.3-2.4c.4-2.1.2-2.9.5-4.7s1.2-5.3,1.4-7.2c1-9.1.2-14.9-1.2-19.6a46.5,46.5,0,0,0-3.7-8.7c-2.5-4.9-5.2-9.4-6.2-15a19,19,0,0,0-.9-3.2l-.3-.6c-.1-.2.1-.3,0-.4s-1.2.7-1.6,3.6a3.8,3.8,0,0,1-.1,1,19.5,19.5,0,0,1-.2,2.3c-2,7.2-4.3,15.5-5.8,24.1a82.5,82.5,0,0,0-1.3,13.8c0,6.5.4,11.1,3.2,15.2a30.7,30.7,0,0,0,2.8,3.5A15.5,15.5,0,0,0,123.7,73Z" transform="translate(7.4)"></path>
              <g class="cls-9">
                <g>
                  <ellipse class="cls-2" cx="118.9" cy="43.9" rx="13.2" ry="36.2" transform="translate(1.6 21.2) rotate(-10)"></ellipse>
                  <g class="cls-10">
                    <path class="cls-11" d="M127.1,13.6c-.8,2,9,34.7,8.2,39.3S125.9,24.8,119,44s-.5-31.8,1.7-36.3S127.1,13.6,127.1,13.6Z" transform="translate(7.4)"></path>
                    <path class="cls-1" d="M127.4,79.4S115.3,61.8,120.9,23h0S105.5,59.2,114,73s13.4,6.4,13.4,6.4" transform="translate(7.4)"></path>
                  </g>
                </g>
              </g>
            </g>
            <path class="cls-12" d="M121.1,20.6s-3,25.3-.1,36.8Z" transform="translate(7.4)"></path>
          </g>
        </g>
        <g>
          <g>
            <path class="cls-8" d="M181.3,115.6c4.4,5.4,19.5,18.7,26,9.6C199.8,138,177.2,121.9,181.3,115.6Z" transform="translate(7.4)"></path>
            <g>
              <g>
                <path class="cls-4" d="M139.3,104.6a2.1,2.1,0,0,1-.3-1.2,1.5,1.5,0,0,1-.1-.7,6,6,0,0,1,1.8-4.9,15.1,15.1,0,0,0,1.4-.9l1-1a4.1,4.1,0,0,1,1.9-.5l4,.4,5,1.1a41.8,41.8,0,0,1,16.8,8,54.6,54.6,0,0,1,7.1,7.4c3.9,4.6,7.3,9.4,13,13l2.9,2.5a1.7,1.7,0,0,1,.6.6l.4.5c.6,1.1-1.4.6-4.5-.5l-1.1-.4-2.6-.9A209.1,209.1,0,0,1,163,122a60.4,60.4,0,0,1-10.9-4.1c-4.7-2.3-8.5-5.2-10.8-8.9a13.6,13.6,0,0,1-1.3-2.4A11.8,11.8,0,0,1,139.3,104.6Z" transform="translate(7.4)"></path>
                <g class="cls-13">
                  <g>
                    <path class="cls-5" d="M161.5,102.7c-12-6.4-23.8-7.8-26.2-3.2s5.3,13.6,17.4,19.9,34.9,11.2,31.9,6.9C177.2,115.4,173.5,109.1,161.5,102.7Z" transform="translate(7.4)"></path>
                    <g class="cls-14">
                      <path class="cls-15" d="M149.2,129.1c11.3,7.6,34.4,6,38,.6-6.1-6.7-14.3-10-25.6-17.6s-22.8-12-26.4-6.7S137.8,121.4,149.2,129.1Z" transform="translate(7.4)"></path>
                      <path class="cls-1" d="M189.2,128a97.8,97.8,0,0,0-30.4-23.8c-9.1-4.6-21.3-4.3-32.4-7.9,0,0,40.9-4.2,51.6,11.7s11.2,20,11.2,20" transform="translate(7.4)"></path>
                    </g>
                  </g>
                  <g>
                    <path class="cls-6" d="M147.1,114.2c9.4,5.7,36.3,12.1,33.3,9.7-17.7-14.1-16.5-15.9-25.9-21.7S136,94.5,134,97.7,137.8,108.4,147.1,114.2Z" transform="translate(7.4)"></path>
                    <g class="cls-16">
                      <path class="cls-11" d="M162.4,115.5c5.1,3.4,18.3,11,20.1,8.4s-8.6-14.4-13.7-17.9-26.1-12.1-27.9-9.5S157.3,112,162.4,115.5Z" transform="translate(7.4)"></path>
                    </g>
                  </g>
                </g>
              </g>
              <path class="cls-12" d="M174.2,122.2a63,63,0,0,1-26.3-17.5Z" transform="translate(7.4)"></path>
            </g>
          </g>
          <g>
            <path class="cls-8" d="M138.7,94.5c6.9.6,27-1,25-12C167.6,96.8,140.3,101.9,138.7,94.5Z" transform="translate(7.4)"></path>
            <g>
              <g>
                <path class="cls-4" d="M101.6,117.1a2.4,2.4,0,0,1-1.1-.6l-.5-.4c-1.4-1.4-2.3-2.5-2.4-4.7a14.6,14.6,0,0,0,.4-1.7,3.2,3.2,0,0,1,0-1.4,4,4,0,0,1,.9-1.7L102,104c1.4-1,2.8-2,4.2-2.8a40.4,40.4,0,0,1,17.5-6.5,49.7,49.7,0,0,1,10.2,0c6.1.4,11.9,1.2,18.4-.3l3.8-.4h1.5c1.2.3-.6,1.4-3.5,2.9l-1,.5-2.4,1.2c-6.7,4.8-13.5,9.7-20.1,13.4a62.9,62.9,0,0,1-10.6,5c-4.9,1.8-9.6,2.5-13.9,1.6a12.5,12.5,0,0,1-2.6-.7A16.3,16.3,0,0,1,101.6,117.1Z" transform="translate(7.4)"></path>
                <g class="cls-17">
                  <g>
                    <path class="cls-5" d="M115.6,99.8c-12.9,4.2-22.1,11.7-20.5,16.7s13.5,5.5,26.4,1.3,32.3-17.3,27.2-18.2C135.7,97.3,128.6,95.6,115.6,99.8Z" transform="translate(7.4)"></path>
                    <g class="cls-18">
                      <path class="cls-15" d="M126,127c13.4-2.8,28.3-20.6,26.9-26.9-9-.3-17.1,3.3-30.5,6.2s-24.4,8-23.1,14.3S112.6,129.8,126,127Z" transform="translate(7.4)"></path>
                      <path class="cls-1" d="M153.1,97.5a98.6,98.6,0,0,0-38.3,5.3c-9.6,3.3-17.8,12.3-28.2,17.8,0,0,25.4-32.3,44.3-29s22.2,5.9,22.2,5.9" transform="translate(7.4)"></path>
                    </g>
                  </g>
                  <g>
                    <path class="cls-6" d="M113.9,118.1c10.6-2.7,33.9-17.7,30.1-17.2-22.4,2.9-22.9.9-33.5,3.6S92,112.4,92.9,116.2,103.3,120.8,113.9,118.1Z" transform="translate(7.4)"></path>
                    <g class="cls-19">
                      <path class="cls-11" d="M125.4,108c6.1-1.3,20.7-5.5,20.1-8.6s-16.3-3.8-22.4-2.5-26.9,10.3-26.3,13.4S119.4,109.3,125.4,108Z" transform="translate(7.4)"></path>
                    </g>
                  </g>
                </g>
              </g>
              <path class="cls-12" d="M138.4,104.2a62.6,62.6,0,0,1-30.8,6.8Z" transform="translate(7.4)"></path>
            </g>
          </g>
          <g>
            <g>
              <path class="cls-3" d="M65.6,140.8c-1.3-.7-2.3-2.1-2.9-2.3a4.6,4.6,0,0,1-1.2-1.2,10.4,10.4,0,0,0-1-1.4,7.1,7.1,0,0,1-.8-1.9c-.2-.8-.4-3.4.1-4.3a26.6,26.6,0,0,1,3.8-6.2c1.6-1.8,3.2-3.4,4.7-4.9,7.4-7,13.3-10,18.6-11.7a53.9,53.9,0,0,1,10.3-2.1l6.1-.6,2.6-.4a30.6,30.6,0,0,0,7.8-2.4,24.4,24.4,0,0,1,3.1-1.1h.7c.2,0,.3.3.5.3s.1.9-1.9,2.8l-.8.9-1.7,1.6c-2.1,2.9-4.3,6.1-6.7,9.3l-2.3,3c-1.8,2.2-3.7,4.5-5.7,6.7a87.6,87.6,0,0,1-9.9,9.4c-5.1,4-10.8,6.9-16.6,7.5a21.7,21.7,0,0,1-3.6.1C67.8,141.7,66.6,141,65.6,140.8Z" transform="translate(7.4)"></path>
              <g class="cls-20">
                <path class="cls-21" d="M72.9,116.1c-14.4,9.7-23.4,21.6-20.1,26.6s14.8,3.3,29.3-6.4,23-19.4,25.4-28a1.6,1.6,0,0,0-1-1.8C100.8,104.6,86.2,107.3,72.9,116.1Z" transform="translate(7.4)"></path>
                <path class="cls-7" d="M76,119.2c-13.3,8.2-24.3,21-20.1,21.2,11.2.4,15.3.8,28-8.3A75,75,0,0,0,104,111C106.3,107.5,89.3,111.1,76,119.2Z" transform="translate(7.4)"></path>
                <path class="cls-11" d="M70.2,119.1c-12.1,8.2-19.9,17.8-17.4,21.5s10.2-9.3,22.3-17.5,20.8-10.5,27.4-13.4C100.1,106,82.4,110.9,70.2,119.1Z" transform="translate(7.4)"></path>
              </g>
            </g>
            <path class="cls-12" d="M104,111s-10.1,19.7-31.6,27.9C72.4,138.9,91.8,127.4,104,111Z" transform="translate(7.4)"></path>
            <path class="cls-3" d="M99.7,110.9s-28.1,13.7-35.6,21.6C64.1,132.5,79.9,114.5,99.7,110.9Z" transform="translate(7.4)"></path>
          </g>
          <g>
            <g>
              <path class="cls-3" d="M162.6,126.9a34,34,0,0,0,1.5-3.3,5.3,5.3,0,0,0,.5-1.8c0-.8.3-1.1.3-1.7a9.5,9.5,0,0,0-.2-2.1c-.2-.8,0-1.1-.2-1.4a9.2,9.2,0,0,0-1.9-2.4,31.7,31.7,0,0,0-6.5-3.9c-2.4-.9-4.6-1.6-6.7-2.2-10.1-2.9-16.9-2.9-22.6-2a55.6,55.6,0,0,0-10.4,3l-5.9,2.2-2.5.8a26.5,26.5,0,0,1-8.4,1.5,19.4,19.4,0,0,0-3.3.5l-.6.2c-.2.1-.2.4-.3.5s.3.8,3,1.7l1.2.4,2.3.6c3.3,1.8,6.9,3.6,10.6,5.3l3.6,1.7c2.7,1.2,5.5,2.4,8.4,3.4a72.7,72.7,0,0,0,13.6,3.9c6.6,1.3,13.1,1.3,18.7-.9a20.1,20.1,0,0,0,3.3-1.6C161,128.8,161.8,127.5,162.6,126.9Z" transform="translate(7.4)"></path>
              <g class="cls-22">
                <path class="cls-23" d="M175.2,126.9s-32.3,10.4-73.3-9.4h0s52.5,8.6,73.2,1.6S175.2,126.9,175.2,126.9Z" transform="translate(7.4)"></path>
                <ellipse class="cls-7" cx="144.3" cy="111.5" rx="15.5" ry="37.8" transform="translate(20.3 238) rotate(-81.6)"></ellipse>
                <ellipse class="cls-24" cx="153.1" cy="118" rx="9.1" ry="33.6" transform="translate(21.5 252.3) rotate(-81.6)"></ellipse>
              </g>
            </g>
            <path class="cls-12" d="M117.6,121c-.6-.2,19.1,9.6,37.3,4.1C154.9,125.1,129.6,124.5,117.6,121Z" transform="translate(7.4)"></path>
            <path class="cls-12" d="M113.9,112.4s20.8-8,48.7,1.8C162.6,114.2,131.1,101.3,113.9,112.4Z" transform="translate(7.4)"></path>
          </g>
          <g>
            <g>
              <g>
                <path class="cls-3" d="M204.4,134.8a22.4,22.4,0,0,1-1.2,3.5,5.5,5.5,0,0,1-.8,1.5c-.6.6-.6,1-1,1.4a4.6,4.6,0,0,1-1.6,1.4c-.6.4-3,1.4-4,1.2a27.8,27.8,0,0,1-7.1-1.6c-2.3-1-4.3-2-6.1-3-9-4.7-13.7-9.3-17-13.9a54.6,54.6,0,0,1-5.3-9.1l-2.5-5.5c-.4-.9-.8-1.6-1.2-2.4a28.4,28.4,0,0,0-4.8-6.7l-1.9-2.5a1.3,1.3,0,0,1-.3-.7c-.1-.1.1-.4,0-.5s.8-.4,3.3.9l1.1.5,2,1.1c3.5,1,7.2,2.1,11,3.4l3.6,1.3c2.7.9,5.4,2,8.1,3.2a77.7,77.7,0,0,1,12.1,6.4c5.4,3.6,9.9,8,12.4,13.3a24.2,24.2,0,0,1,1.2,3.5C204.6,132.4,204.3,133.8,204.4,134.8Z" transform="translate(7.4)"></path>
                <g class="cls-25">
                  <path class="cls-21" d="M178.8,135.7c13.7,10.6,27.8,15.4,31.6,10.6s-1.7-15.1-15.4-25.7-25.7-15.6-34.6-15.2a1.5,1.5,0,0,0-1.4,1.5C159,112.9,166.1,125.8,178.8,135.7Z" transform="translate(7.4)"></path>
                  <path class="cls-7" d="M180.7,131.7c11.9,10.1,27.6,16.4,26.4,12.4-3.1-10.7-4-14.8-16.6-23.9a74.9,74.9,0,0,0-26.4-12.4C160,106.8,168.8,121.7,180.7,131.7Z" transform="translate(7.4)"></path>
                  <path class="cls-11" d="M182.4,137.3c11.7,8.9,23.2,13.2,25.9,9.7s-12-6.7-23.6-15.6-16.6-16.4-21.4-21.8C160.6,113.1,170.8,128.4,182.4,137.3Z" transform="translate(7.4)"></path>
                </g>
              </g>
              <path class="cls-12" d="M164.1,107.8s21.9,3.3,36.4,21.2C200.5,129,183.5,114.2,164.1,107.8Z" transform="translate(7.4)"></path>
            </g>
            <path class="cls-3" d="M165.3,111.9s21.9,22.3,31.8,27C197.1,138.9,175,129.6,165.3,111.9Z" transform="translate(7.4)"></path>
          </g>
          <g>
            <path class="cls-8" d="M116.7,121c6.8,1.6,26.9,2.8,26.5-8.3C145,127.4,117.3,128.5,116.7,121Z" transform="translate(7.4)"></path>
            <g>
              <g>
                <path class="cls-4" d="M76.7,138l-.9-.7-.5-.6a5.7,5.7,0,0,1-1.6-4.9c0-.3.5-1.1.6-1.7a3.9,3.9,0,0,1,.2-1.3,3.6,3.6,0,0,1,1.1-1.6l3.5-2.1,4.5-2.2a41.2,41.2,0,0,1,18.2-3.9,53.4,53.4,0,0,1,10.2,1.4c5.9,1.3,11.5,3,18.2,2.4l3.9.2h.8l.6.2c1.2.4-.7,1.3-3.9,2.3l-1.1.4-2.5.8a226.7,226.7,0,0,1-21.8,10.5A67.4,67.4,0,0,1,95,140.7c-5.1,1-9.9,1.1-14-.4l-2.5-1.1Z" transform="translate(7.4)"></path>
                <g class="cls-26">
                  <g>
                    <path class="cls-5" d="M93.2,122.9c-13.5,2.3-23.6,8.4-22.7,13.5s12.5,7.5,25.9,5.1,34.4-12.5,29.5-14.1C113.4,123.3,106.6,120.6,93.2,122.9Z" transform="translate(7.4)"></path>
                    <g class="cls-27">
                      <path class="cls-15" d="M99.5,151.3c13.7-.9,30.9-16.3,30.5-22.8-8.9-1.5-17.4.9-31.1,1.8S73.6,134.7,74,141.2,85.8,152.2,99.5,151.3Z" transform="translate(7.4)"></path>
                      <path class="cls-1" d="M130.5,126a98.3,98.3,0,0,0-38.6-.3c-10,2-19.4,9.7-30.5,13.6,0,0,29.8-28.3,48-22.3s21.1,9,21.1,9" transform="translate(7.4)"></path>
                    </g>
                  </g>
                  <g>
                    <path class="cls-6" d="M88.8,140.8c10.9-1.2,36.1-12.6,32.3-12.7-22.7-.4-22.8-2.4-33.7-1.3s-19.5,5.2-19.1,9S77.9,141.9,88.8,140.8Z" transform="translate(7.4)"></path>
                    <g class="cls-28">
                      <path class="cls-11" d="M101.7,132.5c6.2-.4,21.2-2.5,21-5.7s-15.6-6.1-21.7-5.7-28.2,6.3-28,9.5S95.5,132.9,101.7,132.5Z" transform="translate(7.4)"></path>
                    </g>
                  </g>
                </g>
              </g>
              <path class="cls-12" d="M115.1,130.6a63.4,63.4,0,0,1-31.5,2.2Z" transform="translate(7.4)"></path>
            </g>
          </g>
          <g>
            <path class="cls-8" d="M135,136.3c-6.8-1.6-26.9-2.9-26.5,8.2C106.7,129.8,134.4,128.8,135,136.3Z" transform="translate(7.4)"></path>
            <g>
              <g>
                <path class="cls-4" d="M175,119.3l1,.8.4.5c1.2,1.6,1.9,2.8,1.6,5,0,.3-.5,1.1-.6,1.6a4.6,4.6,0,0,1-.2,1.4,4.2,4.2,0,0,1-1.1,1.6c-1.4.8-2.2,1.4-3.5,2a37.1,37.1,0,0,1-4.5,2.2c-7.2,3.2-13.1,4.1-18.3,3.9a53.4,53.4,0,0,1-10.1-1.5c-5.9-1.3-11.5-2.9-18.2-2.4l-3.9-.2h-1.4c-1.2-.5.7-1.4,3.9-2.4l1.1-.4,2.5-.8A239.7,239.7,0,0,1,145.6,120a77.3,77.3,0,0,1,11.1-3.4c5.2-1,9.9-1,14,.5a11.2,11.2,0,0,1,2.5,1.1Z" transform="translate(7.4)"></path>
                <g class="cls-29">
                  <g>
                    <path class="cls-5" d="M158.5,134.4c13.5-2.3,23.6-8.3,22.7-13.5s-12.4-7.4-25.9-5.1-34.4,12.4-29.5,14C138.3,133.9,145.1,136.7,158.5,134.4Z" transform="translate(7.4)"></path>
                    <g class="cls-30">
                      <path class="cls-15" d="M152.2,106c-13.6.8-30.9,16.2-30.5,22.7,8.9,1.6,17.4-.8,31.1-1.7s25.3-4.3,24.9-10.8S165.9,105.2,152.2,106Z" transform="translate(7.4)"></path>
                      <path class="cls-1" d="M121.2,131.2a97.1,97.1,0,0,0,38.6.4c10-1.9,19.4-9.6,30.5-13.5,0,0-29.9,28.2-48.1,22.2s-21-9.1-21-9.1" transform="translate(7.4)"></path>
                    </g>
                  </g>
                  <g>
                    <path class="cls-6" d="M162.9,116.6c-10.9,1.1-36.1,12.5-32.3,12.6,22.7.4,22.8,2.4,33.7,1.3s19.5-5.1,19.1-9S173.8,115.5,162.9,116.6Z" transform="translate(7.4)"></path>
                    <g class="cls-31">
                      <path class="cls-11" d="M150,124.9c-6.2.3-21.2,2.4-21,5.5s15.5,6.2,21.7,5.8,28.2-6.3,28-9.4S156.2,124.5,150,124.9Z" transform="translate(7.4)"></path>
                    </g>
                  </g>
                </g>
              </g>
              <path class="cls-12" d="M136.6,126.7a63.7,63.7,0,0,1,31.6-2.2Z" transform="translate(7.4)"></path>
            </g>
          </g>
          <g>
            <path class="cls-8" d="M51,143.7c-6.5,2.5-26.2,6.7-27.4-4.4C23.9,154.1,51.5,151.2,51,143.7Z" transform="translate(7.4)"></path>
            <g>
              <g>
                <path class="cls-1" d="M96.3,150.2c.3-1.2.3-3.2.4-3.6a5,5,0,0,0-.2-1.7c-.1-.6-.1-.6-.3-1.5a12.6,12.6,0,0,0-1.4-1.9,5.2,5.2,0,0,0-1.1-1.3,7.9,7.9,0,0,0-2.3-1.4c-2.1-.5-3-.3-4.7-.6s-5.3-1.4-7.2-1.7c-9.1-1.2-14.8-.6-19.6.7a41.4,41.4,0,0,0-8.8,3.4c-5,2.3-9.5,4.9-15.2,5.7l-3.2.8-.7.3c-.2.1-.2-.1-.3-.1s.7,1.3,3.5,1.8h1l2.3.3A233.2,233.2,0,0,0,62.4,156a82.9,82.9,0,0,0,13.8,1.8c6.5.2,11.1-.1,15.3-2.8a28.8,28.8,0,0,0,3.5-2.6A12.7,12.7,0,0,0,96.3,150.2Z" transform="translate(7.4)"></path>
                <g class="cls-32">
                  <g>
                    <ellipse class="cls-2" cx="67.1" cy="154.1" rx="36.2" ry="13.2" transform="translate(-13.8 11.1) rotate(-8.2)"></ellipse>
                    <g class="cls-33">
                      <path class="cls-11" d="M37.1,144.9c1.9.9,34.9-7.9,39.5-6.9s-28.4,8.5-9.5,16-31.7-.5-36.1-2.9S37.1,144.9,37.1,144.9Z" transform="translate(7.4)"></path>
                      <path class="cls-1" d="M102.8,146.7s-17.9,11.6-56.6,4.7h0s35.7,16.5,49.8,8.5,6.8-13.2,6.8-13.2" transform="translate(7.4)"></path>
                    </g>
                  </g>
                </g>
              </g>
              <path class="cls-12" d="M43.9,151.2s25.2,3.8,36.7,1.3Z" transform="translate(7.4)"></path>
            </g>
          </g>
          <g>
            <path class="cls-8" d="M90.8,148.8c-6.9-.8-27,.1-25.5,11.1C61.9,145.5,89.4,141.4,90.8,148.8Z" transform="translate(7.4)"></path>
            <g>
              <g>
                <path class="cls-1" d="M133.1,131.4c.5,1,1,2.9,1.3,3.3a9.9,9.9,0,0,1,.2,1.8V138a11.9,11.9,0,0,1-.8,2.1l-.8,1.6a6.9,6.9,0,0,1-1.9,1.9c-1.9,1-2.8,1-4.4,1.8s-4.7,2.6-6.5,3.3c-8.5,3.5-14.2,4.4-19.2,4.3a44.9,44.9,0,0,1-9.4-1.1c-5.3-1.1-10.4-2.5-16.1-1.8h-4c-.2,0-.2.2-.4.1s.4-1.4,3-2.5l1-.4,2.2-.9a243.6,243.6,0,0,1,21.4-12.2,77.7,77.7,0,0,1,13-5.1c6.2-1.8,10.8-2.7,15.5-1.1a34.7,34.7,0,0,1,4.1,1.6C131.9,130,132.5,130.9,133.1,131.4Z" transform="translate(7.4)"></path>
                <g class="cls-34">
                  <g>
                    <ellipse class="cls-2" cx="103.8" cy="134.8" rx="36.2" ry="13.2" transform="translate(-6.5 11.9) rotate(-6.1)"></ellipse>
                    <g class="cls-35">
                      <path class="cls-11" d="M77,151.1c1.6-1.3,35.8-1,40-3s-29.6-1.2-13.1-13.2-30.7,8.3-34.4,11.7S77,151.1,77,151.1Z" transform="translate(7.4)"></path>
                      <path class="cls-1" d="M140.2,133.2s-20.2-6.8-56,9.4h0s30.6-24.9,46.2-20.6,9.8,11.2,9.8,11.2" transform="translate(7.4)"></path>
                    </g>
                  </g>
                </g>
              </g>
              <path class="cls-12" d="M82,143.4s23.5-9.9,35.3-10.4Z" transform="translate(7.4)"></path>
            </g>
          </g>
          <g>
            <path class="cls-8" d="M118.4,142.2c-5.8,3.8-24.2,12-27.7,1.4C94.1,158,120.5,149.5,118.4,142.2Z" transform="translate(7.4)"></path>
            <g>
              <g>
                <path class="cls-4" d="M161.8,144.4l.7-1a2.5,2.5,0,0,1,.2-.7,6,6,0,0,0-.2-5.2c-.1-.3-.9-.8-1.1-1.4a3.5,3.5,0,0,0-.7-1.1,4.8,4.8,0,0,0-1.6-1.2l-3.9-.7-5.1-.5a41.2,41.2,0,0,0-18.4,2.6,51.1,51.1,0,0,0-9,4.9c-5.2,3.2-9.9,6.7-16.3,8.5l-3.6,1.5-.8.4c-.2.1-.3.3-.5.3s1.2,1,4.5.9h3.9a228.5,228.5,0,0,0,24,2.3,72.9,72.9,0,0,0,11.7-.7c5.2-.8,9.6-2.4,13-5.2a17,17,0,0,0,1.9-1.9Z" transform="translate(7.4)"></path>
                <g class="cls-36">
                  <g>
                    <path class="cls-5" d="M141.2,135.9c13.4-2.5,25-.3,25.9,4.9S158,152,144.6,154.5s-36.7.2-32.6-3.1C122.3,143.3,127.8,138.3,141.2,135.9Z" transform="translate(7.4)"></path>
                    <g class="cls-37">
                      <path class="cls-15" d="M145,164.7c-13.1,3.9-34.6-4.6-36.5-10.8,7.9-4.6,16.7-5.2,29.8-9.1s25.3-4.6,27.1,1.6S158.1,160.8,145,164.7Z" transform="translate(7.4)"></path>
                      <path class="cls-1" d="M107.2,151.7a98.3,98.3,0,0,1,36.1-13.6c10.1-1.6,21.6,2.3,33.3,2.2,0,0-37.7-16.2-52.8-4.3s-16.6,15.7-16.6,15.7" transform="translate(7.4)"></path>
                    </g>
                  </g>
                  <g>
                    <path class="cls-6" d="M151.4,151.1c-10.6,2.7-38.2.7-34.6-.7,21.1-8.1,20.5-10.2,31.2-12.9s20-1.8,20.9,1.9S162.1,148.4,151.4,151.1Z" transform="translate(7.4)"></path>
                    <g class="cls-38">
                      <path class="cls-11" d="M136.5,147.8c-6,1.8-20.8,5-21.7,2s12.5-11.2,18.4-12.9,28.6-3.8,29.5-.8S142.4,146,136.5,147.8Z" transform="translate(7.4)"></path>
                    </g>
                  </g>
                </g>
              </g>
              <path class="cls-12" d="M123.2,150.7a63.9,63.9,0,0,0,30.4-8.8Z" transform="translate(7.4)"></path>
            </g>
          </g>
          <g>
            <g>
              <path class="cls-3" d="M151.6,144.9c-.4-1.4-.3-3.1-.6-3.6a5.4,5.4,0,0,1,0-1.8,10.9,10.9,0,0,0,.1-1.7,9.1,9.1,0,0,1,.8-2c.4-.7.3-1.1.6-1.4a8.1,8.1,0,0,1,2.4-1.7,30.4,30.4,0,0,1,7.2-2.1,60.8,60.8,0,0,1,7.1-.4c10.5-.2,17.1,1.5,22.4,3.9a58.5,58.5,0,0,1,9.3,5.5l5.1,3.7,2.2,1.4a27.1,27.1,0,0,0,7.7,3.6,25.6,25.6,0,0,1,3,1.3l.6.4c.2.1.1.4.2.5s-.5.8-3.4.9h-3.6c-3.6.8-7.6,1.7-11.7,2.4l-3.8.7c-2.9.4-6,.9-9,1.1a74,74,0,0,1-14.1.3c-6.7-.5-13-2.2-17.9-5.7a20.9,20.9,0,0,1-2.8-2.4C152.7,147.2,152.2,145.7,151.6,144.9Z" transform="translate(7.4)"></path>
              <g class="cls-39">
                <path class="cls-23" d="M139.5,141.6s28.5,18.4,73.2,9.9h0s-53-5.2-71.2-17.3S139.5,141.6,139.5,141.6Z" transform="translate(7.4)"></path>
                <ellipse class="cls-7" cx="173.3" cy="134.8" rx="15.5" ry="37.8" transform="translate(27 291.6) rotate(-83.4)"></ellipse>
                <ellipse class="cls-24" cx="163.1" cy="138.7" rx="9.1" ry="33.6" transform="translate(14.1 284.9) rotate(-83.4)"></ellipse>
              </g>
            </g>
            <path class="cls-40" d="M253.8,138.7a65.3,65.3,0,0,1-9.1,7.4,50,50,0,0,1-10.6,5.3,33.5,33.5,0,0,1-11.9,2.2,28.1,28.1,0,0,1-12-2.8l1.8-3.4a25.4,25.4,0,0,0,10.4,3.3,32.1,32.1,0,0,0,11.1-1.1,47.3,47.3,0,0,0,10.7-4.4A55.9,55.9,0,0,0,253.8,138.7Z" transform="translate(7.4)"></path>
            <path class="cls-12" d="M196.6,150.8c.7,0-20.9,4.3-37-5.6C159.6,145.2,184.1,151.1,196.6,150.8Z" transform="translate(7.4)"></path>
            <path class="cls-12" d="M202.4,143.5s-18-13.2-47.5-10.8C154.9,132.7,188.7,128.3,202.4,143.5Z" transform="translate(7.4)"></path>
          </g>
          <g>
            <g>
              <path class="cls-3" d="M8.5,158.9l-1.2.2-1.6.4a3.4,3.4,0,0,0-1.7.8l-2.3,1.1-.5.3-.6.3-.3.2c-.2.3-.4.5-.3.7s.4.6.8.9a6.7,6.7,0,0,0,1.8.7l2.3.6a24,24,0,0,0,3.6,1.8,18,18,0,0,0,5.2.9c2.7.2,12.4,1.1,15,1.1h2.6c4.2-.2,8.7-.7,12.4-.9h2.8c.2,0,.8,0,.7-.1s-.1-.2-.4-.3l-1.2-.5-.5-.2-1.1-.5c-3.2-1-5.1-1.3-8.1-2.2l-2-.7c-1.8-.7-8.3-3.3-10.3-3.8a27.8,27.8,0,0,0-4.9-.8h-8Z" transform="translate(7.4)"></path>
              <g class="cls-41">
                <g>
                  <path class="cls-7" d="M14.6,158.6c11.7,2.9,20.8,7.7,28.1,8.6,3.2.4-22.5,2.6-34.2-.3s-12.4-6-11.6-9.2S3,155.7,14.6,158.6Z" transform="translate(7.4)"></path>
                  <g class="cls-42">
                    <path class="cls-23" d="M36.8,163.2c4.8,5.1-10.7-1.1-22-2.3S-1.1,165-5.9,159.8s3.3-3.6,10-9.9S31.9,158,36.8,163.2Z" transform="translate(7.4)"></path>
                  </g>
                </g>
                <path class="cls-23" d="M16.4,166.8c10.9,1.5,5.6.5,24.1,1.3-.2,1.6-15.9,1.2-26.8-.3s-17.4-1.7-17.2-3.3S5.4,165.4,16.4,166.8Z" transform="translate(7.4)"></path>
              </g>
            </g>
            <path class="cls-43" d="M8.3,165.6s15.1,2.9,24.7,2.2C33,167.8,17.6,163.6,8.3,165.6Z" transform="translate(7.4)"></path>
          </g>
          <g>
            <g>
              <path class="cls-3" d="M152.1,156.8a9.8,9.8,0,0,0,2.2-1.4l1.3-1.1a8.2,8.2,0,0,0,1.6-1.4,19.2,19.2,0,0,0,1.5-1.4l.5-.6.5-.6.2-.3a1.2,1.2,0,0,0,.1-1c-.7-.3-.7-.5-1.3-.7a5.5,5.5,0,0,0-2.3-.1,13.6,13.6,0,0,1-2.9,0,33.9,33.9,0,0,0-4.9-.7,21.9,21.9,0,0,0-6.2.8c-3.2.8-14.5,3.4-17.5,4.5l-2.8,1c-4.7,1.9-9.5,4.1-13.7,5.7l-2.3.8-.4.2-.5.2-.8.4a1.2,1.2,0,0,0,.7.2l1.5.2h2.2c4,0,6.3-.4,10.1-.4h2.5c2.3.1,10.9.8,13.3.7a29.1,29.1,0,0,0,5.9-1,34.7,34.7,0,0,0,4.6-1.3l2.4-.8,2-.8C150.4,157.9,151.3,157.2,152.1,156.8Z" transform="translate(7.4)"></path>
              <g class="cls-44">
                <path class="cls-21" d="M139,150.4c13.2-6.6,23.8-7.3,22.5-1.7s-12.6,21.5-25,18.5-33.9,1-30.7-3.8S126.8,156.4,139,150.4Z" transform="translate(7.4)"></path>
                <g>
                  <path class="cls-7" d="M141.3,151.7c13.2-6.6,21.3-6.1,19.9-.5s-12.5,21.5-24.9,18.5-31.8-4.2-27.5-8S129.1,157.7,141.3,151.7Z" transform="translate(7.4)"></path>
                  <g class="cls-45">
                    <path class="cls-21" d="M112,161.6s37.8.8,49.5-12.9h0s-6.5,10.9-12.4,13.4-35.4-.6-37.1-.5" transform="translate(7.4)"></path>
                  </g>
                </g>
              </g>
            </g>
            <path class="cls-43" d="M117.7,158.6s15.1-3.2,19.4-5.1l10.2-4.4S142.5,156.5,117.7,158.6Z" transform="translate(7.4)"></path>
          </g>
        </g>
      </g>
    </g>
  </g>
</svg>
