<?xml version="1.0" encoding="UTF-8"?>
<svg xmlns="http://www.w3.org/2000/svg" viewBox="0 0 304 295">
  <defs>
    <style>
      .cls-1 {
        fill: #85563a;
      }

      .cls-2 {
        fill: #8e6848;
      }

      .cls-3 {
        fill: #713e21;
      }

      .cls-4 {
        fill: #9b714f;
      }

      .cls-5 {
        fill: #3d271f;
      }

      .cls-6 {
        fill: #69391e;
      }

      .cls-7 {
        fill: #6b472f;
      }

      .cls-8 {
        fill: #5c3624;
      }

      .cls-9 {
        fill: #795135;
      }

      .cls-10 {
        fill: #9a734f;
      }
    </style>
  </defs>
  <g id="Слой_2" data-name="Слой 2">
    <g id="Слой_1-2" data-name="Слой 1">
      <g>
        <polygon class="cls-1" points="21.3 230.1 159.2 295 286.8 230.4 154.2 174.2 21.3 230.1"></polygon>
        <polygon class="cls-1" points="0 45.9 159.2 112.4 304 51 159.2 0 0 45.9"></polygon>
        <path class="cls-2" d="M159.2,112.4V196s44.1-32.5,61.9-34.1,52.7,66.9,65.7,68.5L304,51Z"></path>
        <path class="cls-3" d="M11.7,145.7l9.6,84.4L159.2,295V196S83.1,163.5,75,152.1s-63.3-6.4-63.3-6.4"></path>
        <path class="cls-4" d="M0,45.9l11.7,99.8s14.8,1.1,30.8,1.6c20,.5,39,13.5,54.1,28.7,17.6,17.6,62.6,20,62.6,20V112.4Z"></path>
        <path class="cls-5" d="M106.1,206.6a5.4,5.4,0,0,0-.3-2.5h0s-1-2.8-3.5-2.8-3.9,1.3-3.7,2.1l.5,1.1h.1l2,1.7.4.3.4.3c1,.7.9.9,1.9,1.1a2.5,2.5,0,0,0,2-.5l.2-.3h0Z"></path>
        <path class="cls-5" d="M46,195.1a12.1,12.1,0,0,0-4.2,2.2h0s-4.1,3.8-2.5,8.2,5.2,5.9,6.5,5.1l1.6-1.7v-.2c.8-1.3,1.1-3.8,1.6-4.9l.2-.8.2-1c.6-2.1,1.1-2.1.8-4a6,6,0,0,0-2.4-3.2H47Z"></path>
        <path class="cls-5" d="M143.2,251.2c-1-3.1-2.8-7.8-5.3-10.5h.1s-9.1-10.8-20.3-7.2-15.4,12.5-13.5,15.7c.5.9,2.9,2.9,4.2,4.2h.4c3.3,2.2,9.4,3.2,12.1,4.5a8.5,8.5,0,0,0,2.1.7l2.3.7c5.3,1.5,5.2,2.9,10.1,2.2s8.2-5.5,8.2-5.5a9.5,9.5,0,0,0,.3-1.9h.1v-.2a3.4,3.4,0,0,0-.7-2.7"></path>
        <path class="cls-5" d="M71.1,214.6c-1.7,1.8-4.3,4.8-5.2,7.4h0s-3.9,10.2,2.7,16.3,14.1,5.8,15.5,3.3a37.2,37.2,0,0,0,1.2-4.4v-.3c.2-2.9-1.3-7.4-1.4-9.7a3.7,3.7,0,0,0-.3-1.7l-.4-1.8c-1-4.1,0-4.6-2.2-7.6s-6.8-3.5-6.8-3.5l-1.4.5h-.1a2.3,2.3,0,0,0-1.5,1.5"></path>
        <path class="cls-6" d="M159.2,196s31.1-43.9,66.8-44.9S296.9,124,296.9,124L286.8,230.4,159.2,295Z"></path>
        <path class="cls-5" d="M204.7,212.7c-3.1.5-8.1,1.6-11,3.6h-.1s-11.8,7.4-9.9,18.8,10.1,17,13.5,15.5a55.7,55.7,0,0,0,4.7-3.5v-.4c2.6-2.9,4.4-8.7,6.1-11.2a4.6,4.6,0,0,0,1-2,14.1,14.1,0,0,0,1-2.1c2.3-5.1,3.6-4.8,3.6-9.6s-4.2-8.8-4.2-8.8a6.9,6.9,0,0,0-1.9-.7h-.1a3.5,3.5,0,0,0-2.8.4"></path>
        <path class="cls-5" d="M263.4,209.2a10,10,0,0,0-3.5-.8h0s-4.3,0-5.6,3.2-.2,6,.9,6.2h1.9c1.2-.4,2.6-1.6,3.4-1.9l.6-.4.6-.4c1.4-.9,1.7-.6,2.5-1.9a3.9,3.9,0,0,0,.3-2.9l-.3-.5h-.1Z"></path>
        <path class="cls-5" d="M252.8,178.5c-2-1.6-5.2-3.9-7.9-4.6h.1s-10.5-3.1-16.2,3.9-4.7,14.6-2.1,15.9c.7.3,3.1.6,4.5.9h.3c3,0,7.3-1.9,9.6-2.2a5.3,5.3,0,0,0,1.7-.4l1.8-.6c4.1-1.2,4.6-.3,7.4-2.8s3-7,3-7l-.5-1.4h-.1a3.1,3.1,0,0,0-1.6-1.4"></path>
        <path class="cls-7" d="M149.6,73.1s-1.9-2.2-4.3-1.5-3.2,2.6-2.8,3.2l.8.9,1.9-1Z"></path>
        <path class="cls-8" d="M150.8,76s-.7-3.2-1.9-3.3a19.6,19.6,0,0,1-2.6-.2l-.3.6,1.6,2.3,1.6.4Z"></path>
        <path class="cls-9" d="M150.7,76.4a.9.9,0,0,0-.5-1.3l-1.5-.3-2.3,1.7c-.4.2-.7.2.5.5s1.1.6,2.1.5a2.8,2.8,0,0,0,1.7-1.1"></path>
        <path class="cls-10" d="M148.7,74.8l-1.4,1.4-1.4.5-2.8-1.2c-.5-.7-.5-.6.1-1.5s1.1-1,2.2-1.3a2,2,0,0,1,2.3.4Z"></path>
        <path class="cls-7" d="M140,18.9s-3.4-2.7-6.6-.9-3.9,4.7-3.1,5.5l1.5,1c1,.7,2.3-2.1,2.4-2.1Z"></path>
        <path class="cls-8" d="M142.6,22.6s-2.1-4.4-3.8-4a35.2,35.2,0,0,1-3.7.4l-.3.9s2.3,2.7,3.1,2.8l2.4.2Z"></path>
        <path class="cls-9" d="M142.6,23.2c0-.4.1-1.6-1.1-1.6a15,15,0,0,0-2.3,0l-2.8,3.1c-.5.4-.8.5.9.6s1.7.5,3.1,0a4.2,4.2,0,0,0,2.2-2.1"></path>
        <path class="cls-10" d="M139.2,21.6a14.7,14.7,0,0,0-1.6,2.4c-.6,1.1-.7,1.4-1.8,1.1s-3.6-.1-4.5-.9-.8-.7-.2-2,1.3-1.9,2.8-2.7a2.8,2.8,0,0,1,3.3,0,6.7,6.7,0,0,1,2,2.1"></path>
        <path class="cls-7" d="M127,38.8s-13.5-6.7-23,1.5-9.9,18.8-6.6,21.1a48.9,48.9,0,0,0,5.9,2.3c3.9,1.5,6.3-8.7,6.5-8.8Z"></path>
        <path class="cls-8" d="M138.5,49.5s-10-13.4-15.7-11.1-12.4,4.3-12.4,4.3l-.4,3.4s9.9,7.3,12.5,7.1,7.3-1.1,8.4-1.1,7.6-2.6,7.6-2.6"></path>
        <path class="cls-9" d="M138.9,51.5c-.1-1.5-.7-5.3-4.7-4.8a52.7,52.7,0,0,0-8,1.7S120.3,59.1,119,61s-2.5,2.2,3.4,1.5,6.3.6,10.7-2.1,5.8-8.9,5.8-8.9"></path>
        <path class="cls-10" d="M126.2,48.4a86.5,86.5,0,0,0-3.7,9.3c-1.2,4.3-1.2,5.4-5.1,5.2s-12.5,2.3-16,.1-3.3-1.8-2.4-6.8,3.3-7.2,7.7-11,7.5-3.8,11.4-2.4,8.1,5.6,8.1,5.6"></path>
        <path class="cls-7" d="M173.7,41.6s-11.3-6.6-20-.1-9.8,15.8-7.1,17.9a39.7,39.7,0,0,0,5,2.4c3.3,1.5,6-7.1,6.2-7.2Z"></path>
        <path class="cls-8" d="M183,51.6S175.2,39.3,170.1,41s-11,3-11,3l-.6,2.9s8.1,7,10.4,6.9,6.4-.5,7.4-.4,6.7-1.8,6.7-1.8"></path>
        <path class="cls-9" d="M183.3,53.4c-.1-1.3-.3-4.7-3.8-4.5a48.5,48.5,0,0,0-7.1,1s-5.7,9-7,10.5-2.3,1.8,2.8,1.5,5.5.9,9.5-1.2,5.6-7.3,5.6-7.3"></path>
        <path class="cls-10" d="M172.4,49.9a64.8,64.8,0,0,0-3.7,7.9c-1.3,3.6-1.5,4.6-4.8,4.2s-11,1.3-13.9-.9-2.8-1.8-1.6-6,3.2-6.1,7.3-9.2,6.8-2.8,10.1-1.4,6.6,5.4,6.6,5.4"></path>
        <path class="cls-7" d="M203.7,29.7s-11.2-8.6-21.3-2.8S169.9,42.3,172.5,45a27.7,27.7,0,0,0,4.9,3.2c3.4,2.1,7.4-6.8,7.6-6.9Z"></path>
        <path class="cls-8" d="M212.3,41.5s-6.7-14.1-12.4-13a110,110,0,0,1-12.1,1.7l-1,3.1s7.7,8.5,10.2,8.7,6.9.4,7.9.6a70.8,70.8,0,0,0,7.4-1.1"></path>
        <path class="cls-9" d="M212.3,43.5c.2-1.4.3-5-3.4-5.3a68.5,68.5,0,0,0-7.7.1s-7.3,8.8-8.8,10.3-2.8,1.6,2.8,1.9,5.7,1.7,10.2.1,6.9-7.1,6.9-7.1"></path>
        <path class="cls-10" d="M201.3,38.3a64.1,64.1,0,0,0-5.1,7.9c-1.9,3.7-2.2,4.8-5.7,3.9s-11.9-.2-14.7-2.8-2.7-2.4-.9-6.7,4.3-6.1,9-8.8,7.6-2,11-.1,6.4,6.6,6.4,6.6"></path>
        <path class="cls-7" d="M212.3,65.8s4.6.3,6.2-3.1.6-6.3-.5-6.6h-2c-1.2.1-.7,3.2-.8,3.3Z"></path>
        <path class="cls-8" d="M207.9,64.2s4.3,2.5,5.7,1.2,2.9-2.6,2.9-2.6l-.3-1-4.3-.5-2.2,1.3Z"></path>
        <path class="cls-9" d="M207.6,63.6c.2.4.8,1.4,1.8.8a12.2,12.2,0,0,0,2-1.4l.6-4.3c.1-.6.4-.9-1.1,0s-1.8.6-2.8,1.8a4.4,4.4,0,0,0-.5,3.1"></path>
        <path class="cls-10" d="M211.4,63a26.9,26.9,0,0,0,0-3c-.2-1.3-.3-1.6.8-2s3.2-2.1,4.4-1.9,1.2.2,1.5,1.6-.1,2.4-.9,4a3,3,0,0,1-2.9,2,7.3,7.3,0,0,1-2.9-.7"></path>
        <path class="cls-7" d="M106,68.2s5.7.8,8.2-3.4,1.2-8-.2-8.4a15.7,15.7,0,0,0-2.5-.2c-1.5,0-1.2,4-1.2,4.1Z"></path>
        <path class="cls-8" d="M100.5,65.7s5.3,3.7,7.1,2.1,3.9-3,3.9-3l-.2-1.3s-4.5-1.5-5.4-1.1-2.6,1.3-3,1.5Z"></path>
        <path class="cls-9" d="M100.1,65c.2.6.9,1.9,2.3,1.2a25.4,25.4,0,0,0,2.7-1.6s.8-4.6,1.1-5.4.6-1.2-1.4-.2-2.4.6-3.7,2.1a5.6,5.6,0,0,0-1,3.9"></path>
        <path class="cls-10" d="M105.1,64.6a22.7,22.7,0,0,0,.2-3.8c-.1-1.7-.2-2.2,1.2-2.6s4.3-2.3,5.8-1.9,1.4.2,1.7,2.1-.3,3.1-1.4,5-2.3,2.3-3.9,2.3a9.3,9.3,0,0,1-3.6-1.1"></path>
        <path class="cls-7" d="M143.4,46.8s2.6,2.2,5,.9,3.2-3.5,2.6-4.2l-1.2-.8c-.7-.5-1.8,1.5-1.9,1.6Z"></path>
        <path class="cls-8" d="M141.5,43.9s1.4,3.5,2.8,3.3a15.3,15.3,0,0,1,2.9-.3l.2-.7L145.1,44l-1.9-.2Z"></path>
        <path class="cls-9" d="M141.5,43.5c-.1.3-.2,1.2.7,1.3a10.5,10.5,0,0,0,1.9,0l2.2-2.3c.4-.4.6-.4-.7-.5s-1.3-.5-2.4-.1a3.2,3.2,0,0,0-1.7,1.6"></path>
        <path class="cls-10" d="M144.1,44.8a12.8,12.8,0,0,0,1.2-1.8c.5-.9.6-1.1,1.4-.9s2.9.2,3.5.8.6.6.1,1.6-1,1.4-2.2,2a2.2,2.2,0,0,1-2.6,0,5,5,0,0,1-1.4-1.7"></path>
        <path class="cls-7" d="M188.9,66.1s12.7,3,19-5.7,4.8-17.8,1.6-19.1a44.5,44.5,0,0,0-5.5-.8c-3.5-.5-3.6,8.5-3.8,8.7Z"></path>
        <path class="cls-8" d="M177.1,59.3s11,9.4,15.4,6.3a107.2,107.2,0,0,1,9.6-6l-.3-2.9s-9.8-4.3-11.9-3.6-6,2.3-6.9,2.5a57.7,57.7,0,0,0-5.9,3.7"></path>
        <path class="cls-9" d="M176.4,57.6c.4,1.3,1.6,4.4,4.9,3.2a45.8,45.8,0,0,0,6.4-3s2.9-10.2,3.6-12,1.7-2.3-3.1-.6-5.4.7-8.7,3.9-3.1,8.5-3.1,8.5"></path>
        <path class="cls-10" d="M187.7,57.8a58.4,58.4,0,0,0,1.3-8.5c.2-3.9,0-4.9,3.3-5.4s10.1-4.4,13.5-3.2,3.1,1,3.3,5.3-1.4,6.7-4.4,10.8-5.6,4.6-9.1,4.2-7.9-3.2-7.9-3.2"></path>
        <path class="cls-7" d="M130.4,58.7s7.6,4.3,13.3-.2,6.2-10.6,4.4-12-2.3-1-3.3-1.5-3.9,4.9-4.1,4.9Z"></path>
        <path class="cls-8" d="M124,52.2s5.4,8.1,8.8,6.9A72.2,72.2,0,0,1,140,57l.4-2s-5.5-4.5-7-4.4-4.3.4-4.9.3Z"></path>
        <path class="cls-9" d="M123.8,51.1c.1.8.3,3,2.6,2.9a31.7,31.7,0,0,0,4.7-.8s3.7-6,4.5-7.1,1.5-1.2-1.9-.9-3.6-.5-6.3.9-3.6,5-3.6,5"></path>
        <path class="cls-10" d="M131.1,53.2a47.2,47.2,0,0,0,2.4-5.3c.8-2.4.9-3.1,3.1-2.8s7.3-1,9.2.4,1.9,1.1,1.2,4-2.1,4.1-4.7,6.1-4.5,2-6.7,1.1a15.5,15.5,0,0,1-4.5-3.5"></path>
      </g>
    </g>
  </g>
</svg>
