<?xml version="1.0" encoding="UTF-8"?>
<svg xmlns="http://www.w3.org/2000/svg" xmlns:xlink="http://www.w3.org/1999/xlink" viewBox="0 0 304 309.3">
  <defs>
    <style>
      .cls-1 {
        fill: #4e7f2f;
      }

      .cls-2 {
        fill: #8e6848;
      }

      .cls-3 {
        clip-path: url(#clip-path);
      }

      .cls-4 {
        fill: url(#Безымянный_градиент_2);
      }

      .cls-5 {
        fill: #713e21;
      }

      .cls-6 {
        fill: #3d271f;
      }

      .cls-7 {
        fill: #69391e;
      }

      .cls-8 {
        fill: #6b472f;
      }

      .cls-9 {
        fill: #5c3624;
      }

      .cls-10 {
        fill: #795135;
      }

      .cls-11 {
        fill: #9a734f;
      }

      .cls-12 {
        fill: #faf8c3;
      }

      .cls-13 {
        fill: #85563a;
      }

      .cls-14 {
        fill: #95c52d;
      }

      .cls-15 {
        fill: #abcf34;
      }

      .cls-16 {
        fill: #6b482f;
      }
    </style>
    <clipPath id="clip-path">
      <polygon class="cls-1" points="21.3 230.1 159.2 295 286.8 230.4 154.2 174.2 21.3 230.1"></polygon>
    </clipPath>
    <linearGradient id="Безымянный_градиент_2" data-name="Безымянный градиент 2" x1="1946.37" y1="-892" x2="1954.1" y2="-892" gradientTransform="matrix(34.36, 0, 0, -34.36, -66882.66, -30411.56)" gradientUnits="userSpaceOnUse">
      <stop offset="0" stop-color="#9b714e"></stop>
      <stop offset="0.38" stop-color="#9b714e"></stop>
      <stop offset="0.89" stop-color="#764528"></stop>
      <stop offset="1" stop-color="#6e3c20"></stop>
    </linearGradient>
  </defs>
  <g id="Слой_2" data-name="Слой 2">
    <g id="Слой_1-2" data-name="Слой 1">
      <g>
        <g>
          <path class="cls-2" d="M159.2,112.4s26.6,31.2,47.1,32.5S296.9,124,296.9,124L304,51,159.2,0Z"></path>
          <path class="cls-2" d="M0,45.9,14.4,141s51.3,7.7,60.3,5.2,50-18,61.5-18,23-15.8,23-15.8V0Z"></path>
          <g>
            <polygon class="cls-1" points="21.3 230.1 159.2 295 286.8 230.4 154.2 174.2 21.3 230.1"></polygon>
            <g class="cls-3">
              <rect class="cls-4" x="86.6" y="98.8" width="134.9" height="271.62" transform="translate(-88.5 375.9) rotate(-86.9)"></rect>
            </g>
          </g>
          <path class="cls-5" d="M21.3,230.1,14.4,141s65.4-1.2,83.4-10.2,61.4-18.4,61.4-18.4l-5,61.8Z"></path>
          <path class="cls-6" d="M114.5,146.6c-1.9-1.6-5.1-4-7.8-4.6h0s-10.4-3.1-16.1,3.9-4.7,14.6-2.1,15.8a25.8,25.8,0,0,0,4.5,1h.2c3-.1,7.4-2,9.7-2.2a4.9,4.9,0,0,0,1.7-.5l1.8-.5c4.1-1.3,4.6-.3,7.4-2.8s3-7,3-7l-.6-1.4h-.1a2.3,2.3,0,0,0-1.6-1.4"></path>
          <path class="cls-6" d="M58.5,155.8c-3.2.5-8.1,1.6-11.1,3.6h0s-11.8,7.5-9.9,18.9S47.6,195.1,51,193.7a42.6,42.6,0,0,0,4.7-3.6v-.3c2.6-2.9,4.4-8.7,6.1-11.2a4.6,4.6,0,0,0,1-2c.3-.6.6-1.2,1-2.2,2.2-5,3.6-4.7,3.6-9.5s-4.3-8.9-4.3-8.9l-1.8-.6h-.2a3.3,3.3,0,0,0-2.7.4"></path>
          <path class="cls-7" d="M159.2,112.4l-5,61.8,132.6,56.2L296.9,124s-41.4-4.8-59.3-2.2-49.2,10.3-58.6,5.1-19.8-14.5-19.8-14.5"></path>
          <path class="cls-6" d="M108.7,175.9a7.7,7.7,0,0,0-3.4-.8h0s-4.3,0-5.7,3.3-.1,6,1,6.2l1.8-.2h.1c1.1-.4,2.5-1.6,3.4-2l.6-.3.6-.4c1.4-.9,1.7-.6,2.4-1.9a4.5,4.5,0,0,0,.4-3l-.4-.4h0Z"></path>
          <path class="cls-6" d="M238.7,149.3a7.2,7.2,0,0,0-.3-2.5h0s-1.1-2.7-3.5-2.8-4,1.4-3.8,2.1l.6,1.2h0l2.1,1.8.4.2.4.3c.9.7.8,1,1.8,1.2a3,3,0,0,0,2-.5l.2-.4h0Z"></path>
          <path class="cls-6" d="M275.7,194c-.9-3.1-2.8-7.9-5.2-10.6h.1s-9.2-10.8-20.3-7.2-15.5,12.6-13.5,15.7c.5.9,2.8,2.9,4.2,4.2h.4c3.2,2.1,9.3,3.1,12,4.4a4.6,4.6,0,0,0,2.1.7l2.4.8c5.3,1.5,5.2,2.8,10,2.1s8.2-5.5,8.2-5.5a6.9,6.9,0,0,0,.4-1.9h.1v-.2a3.5,3.5,0,0,0-.8-2.6"></path>
          <path class="cls-6" d="M203.6,157.3c-1.7,1.8-4.2,4.8-5.1,7.4h0s-3.9,10.1,2.6,16.2,14.1,5.8,15.5,3.3a30.5,30.5,0,0,0,1.3-4.4v-.2c.2-3-1.4-7.5-1.5-9.8a4.3,4.3,0,0,0-.3-1.7,13,13,0,0,1-.3-1.8c-1-4.1-.1-4.5-2.3-7.5s-6.7-3.5-6.7-3.5l-1.4.4h-.2a3.1,3.1,0,0,0-1.5,1.5"></path>
          <path class="cls-8" d="M204.1,232.9s2.9.8,4.4-1.2,1.2-3.9.5-4.2l-1.3-.3c-.8-.1-.8,1.9-.9,2Z"></path>
          <path class="cls-9" d="M201.5,231.3s2.5,2.2,3.5,1.5a20.2,20.2,0,0,1,2.2-1.3v-.6l-2.6-.9-1.6.5Z"></path>
          <path class="cls-10" d="M201.4,230.9c.1.3.3,1,1.1.7l1.4-.6.9-2.7c.2-.4.4-.5-.7-.1s-1.2.1-1.9.8a2.8,2.8,0,0,0-.8,1.9"></path>
          <path class="cls-11" d="M203.9,231a12.6,12.6,0,0,0,.4-1.9c.1-.9,0-1.1.8-1.2s2.3-.9,3-.6.7.2.7,1.2a3.4,3.4,0,0,1-1,2.4,2,2,0,0,1-2.1.9,5.1,5.1,0,0,1-1.8-.8"></path>
          <path class="cls-8" d="M174.7,216s6.6.3,8.9-4.6.7-9.3-1-9.7-1.9.1-2.8.1-1,4.6-1,4.7Z"></path>
          <path class="cls-9" d="M168.2,213.7s6.3,3.6,8.2,1.7,4.2-3.9,4.2-3.9l-.4-1.4s-5.2-1.2-6.2-.7l-3.2,1.9Z"></path>
          <path class="cls-10" d="M167.7,212.9c.3.6,1.2,2.1,2.7,1.1a32.2,32.2,0,0,0,2.9-2s.5-5.4.7-6.3.6-1.4-1.6,0-2.7.8-4,2.7-.7,4.5-.7,4.5"></path>
          <path class="cls-11" d="M173.3,212a27.1,27.1,0,0,0-.2-4.4c-.2-1.9-.4-2.4,1.2-3s4.6-3.1,6.4-2.8,1.7.1,2.1,2.3,0,3.5-1.1,5.8a4.3,4.3,0,0,1-4.2,2.9,10.5,10.5,0,0,1-4.2-.8"></path>
          <path class="cls-8" d="M147.2,237.4s5.1,3.9,9.7,1.2,5.7-7.1,4.5-8.3a9.1,9.1,0,0,0-2.3-1.5c-1.5-.9-3.3,3.2-3.4,3.2Z"></path>
          <path class="cls-9" d="M143.2,232s3.1,6.4,5.7,5.9,5.5-.8,5.5-.8l.5-1.4s-3.6-3.9-4.7-4l-3.6-.2Z"></path>
          <path class="cls-10" d="M143.2,231.1c-.1.7-.2,2.3,1.6,2.4a22.2,22.2,0,0,0,3.4-.1l4.1-4.7c.7-.6,1.2-.7-1.3-.9s-2.6-.7-4.7,0a6.4,6.4,0,0,0-3.1,3.3"></path>
          <path class="cls-11" d="M148.2,233.4a22.6,22.6,0,0,0,2.3-3.6c.9-1.7,1-2.2,2.6-1.8s5.5,0,6.7,1.2,1.3,1.1.5,3.1-1.9,2.8-4.1,4-3.5,1-5,.1a11.2,11.2,0,0,1-3-3"></path>
          <path class="cls-8" d="M135.3,219.6s2.7-4.1.3-7.5-5.8-3.8-6.7-2.8l-.9,1.8c-.6,1.2,2.6,2.3,2.6,2.4Z"></path>
          <path class="cls-9" d="M131.5,223.1s4.7-2.9,4.1-4.8a38.1,38.1,0,0,1-1-4.2l-1.1-.2s-2.7,3-2.7,3.8.1,2.4.1,2.8Z"></path>
          <path class="cls-10" d="M130.8,223.1c.5,0,1.8,0,1.7-1.4a13.3,13.3,0,0,0-.3-2.6l-3.8-2.8c-.6-.5-.7-.9-.6,1.1s-.4,2,.3,3.5a4.7,4.7,0,0,0,2.7,2.2"></path>
          <path class="cls-11" d="M132.2,219.1a20.9,20.9,0,0,0-2.9-1.5c-1.3-.6-1.7-.6-1.5-1.9s-.4-4.1.5-5.2.7-1,2.2-.5,2.3,1.3,3.4,2.8,1,2.6.4,3.8a7.2,7.2,0,0,1-2.1,2.5"></path>
          <path class="cls-8" d="M111.9,225.2s1.7-1.4,1.1-3.1-1.9-2.3-2.4-2l-.6.6.8,1.4Z"></path>
          <path class="cls-9" d="M109.9,226.1s2.3-.6,2.3-1.4a11.3,11.3,0,0,1,.2-1.9l-.5-.2-1.6,1.2L110,225Z"></path>
          <path class="cls-10" d="M109.6,226.1l.9-.4.2-1.1-1.2-1.7c-.2-.2-.2-.4-.4.4s-.4.8-.3,1.5a2.5,2.5,0,0,0,.8,1.3"></path>
          <path class="cls-11" d="M110.7,224.6l-1-1-.4-1,.9-2.1h1a2.3,2.3,0,0,1,1,1.6,1.3,1.3,0,0,1-.3,1.6Z"></path>
          <path class="cls-8" d="M104.8,238.1s4.5-7.3.3-13.1-10-6.5-11.5-4.8a17.9,17.9,0,0,0-1.7,3.2c-1,2.1,4.6,4,4.7,4.1Z"></path>
          <path class="cls-9" d="M98.1,244s8.2-4.9,7.1-8.3-1.7-7.2-1.7-7.2l-1.9-.4s-4.7,5.2-4.7,6.7.2,4.2.2,4.8Z"></path>
          <path class="cls-10" d="M97,244.1c.8.1,3-.1,2.9-2.4a37.8,37.8,0,0,0-.5-4.5s-5.8-4-6.7-4.8-1.2-1.5-1,1.8-.7,3.6.6,6.2,4.7,3.7,4.7,3.7"></path>
          <path class="cls-11" d="M99.4,237.1a38.5,38.5,0,0,0-5.1-2.5c-2.3-.9-3-1-2.7-3.2s-.6-7.2.8-9.1,1.3-1.7,4-.9,3.9,2.2,5.9,4.9,1.7,4.4.7,6.6a13.8,13.8,0,0,1-3.6,4.2"></path>
        </g>
        <g>
          <path class="cls-12" d="M157.8,97.5a27.1,27.1,0,0,0-8.1,16,15.4,15.4,0,0,1-1.1,4.6,8.1,8.1,0,0,1-3.1,3.5,32.2,32.2,0,0,1-3.9,2.5l-4,2.4,3.9-2.5,3.9-2.6a9.5,9.5,0,0,0,2.8-3.5,16.3,16.3,0,0,0,.9-4.5,27.7,27.7,0,0,1,7.8-16.8.6.6,0,1,1,.9.9Z"></path>
          <path class="cls-12" d="M158.4,96.9a17.7,17.7,0,0,0,1.1,6c.6,1.9,1.5,3.7,2.3,5.6a31.2,31.2,0,0,1,1.9,5.9c.4,2,.7,4,1.3,6,1.2,3.8,3.3,7.4,5,11.1a40,40,0,0,1,2.3,5.7,18.1,18.1,0,0,1,.6,6.1,17.4,17.4,0,0,0-.8-6,47.2,47.2,0,0,0-2.4-5.6c-1.9-3.7-4-7.2-5.4-11.1a47,47,0,0,1-1.4-6,38.5,38.5,0,0,0-2-5.7c-.8-1.9-1.7-3.7-2.4-5.7a15.5,15.5,0,0,1-.7-3.1,11.5,11.5,0,0,1-.1-3.2c0-.2.2-.3.4-.3A.3.3,0,0,1,158.4,96.9Z"></path>
          <path class="cls-12" d="M159.1,96.7c.2,3.4.8,6.9.1,10.5a12.5,12.5,0,0,1-.9,2.5,17.6,17.6,0,0,1-1.4,2.3c-.9,1.3-.8,3.1-.5,4.7a21.6,21.6,0,0,0,1.6,4.9c.6,1.6,1.3,3.3,1.8,5a18.1,18.1,0,0,1,.6,5.2,8.3,8.3,0,0,1-2,4.8,9.2,9.2,0,0,0,1.6-4.8,15.1,15.1,0,0,0-.8-5.1c-.6-1.6-1.3-3.1-2-4.7a23.2,23.2,0,0,1-1.6-5.1,24.5,24.5,0,0,1-.2-2.7,5.8,5.8,0,0,1,.9-2.6c.5-.8,1-1.4,1.4-2.2a11.3,11.3,0,0,0,.8-2.4c.7-3.3.1-6.8-.2-10.3-.1-.2.1-.4.3-.4s.5.1.5.4Z"></path>
          <path class="cls-12" d="M158.8,98.9a21.6,21.6,0,0,1-9.2,8,21.1,21.1,0,0,0,8.6-8.4h.1c0-.1.2-.2.4-.1a.2.2,0,0,1,.1.4Z"></path>
          <path class="cls-12" d="M160,96.7a3.3,3.3,0,0,1,0,1l-.3.7a5.8,5.8,0,0,1-.5,1.4l-1,2.7a38.6,38.6,0,0,0-1.7,5.5,18.5,18.5,0,0,0-.6,5.7,6.8,6.8,0,0,0,.2,1.4v.7a2.2,2.2,0,0,1,.1.8,5,5,0,0,1-1.4,2.9c-.7.7-1.9,1.1-2.1,1.7a1.7,1.7,0,0,0,.2,1.2,4.1,4.1,0,0,0,.9,1c1.5,1.1,3.5,1.7,4.8,3.3a5.6,5.6,0,0,1,1,2.8,9.3,9.3,0,0,1-.5,2.9c-.6,1.9-1.6,3.6-2.1,5.5.4-1.9,1.4-3.7,1.9-5.5a5.9,5.9,0,0,0-.6-5.5c-1.2-1.4-3.2-1.9-4.8-3.1a3.8,3.8,0,0,1-1.1-1.1,2,2,0,0,1-.3-1.7,2.6,2.6,0,0,1,1.1-1.2,4.3,4.3,0,0,0,1-.9,3.1,3.1,0,0,0,1.1-2.3,1.3,1.3,0,0,0-.1-.6v-.7c-.1-.5-.1-1-.2-1.5a24.3,24.3,0,0,1,.5-6c.5-1.9,1.1-3.8,1.7-5.6l1.1-2.8c.2-.4.3-.9.5-1.3a6.4,6.4,0,0,0,.2-.7,1,1,0,0,1,.1-.4c-.1-.3,0-.6.3-.6S160,96.4,160,96.7Z"></path>
          <path class="cls-12" d="M161,96.4c-.2,4.6-.3,9.3-.6,14a12.2,12.2,0,0,1-.5,3.7,9.7,9.7,0,0,1-2.2,3c-.9.9-1.8,1.6-2.5,2.4a27.5,27.5,0,0,0-1.9,2.8,25.2,25.2,0,0,0-2,6.6c-.4,2.2-.6,4.6-.8,6.9-.4,4.7-.8,9.3-1.4,14,0-4.7.2-9.4.4-14.1.1-2.3.3-4.7.6-7a24,24,0,0,1,2.1-6.9,32.8,32.8,0,0,1,2-3.1,30.7,30.7,0,0,1,2.6-2.5,7.9,7.9,0,0,0,1.9-2.6,11.3,11.3,0,0,0,.5-3.2c.2-4.7.5-9.4.8-14.1a.5.5,0,0,1,.5-.5A.6.6,0,0,1,161,96.4Z"></path>
          <path class="cls-12" d="M161.8,96.7a85.6,85.6,0,0,0,.6,11.3l1.3,11.2c.5,3.8.9,7.6,1.2,11.3.2,1.9.4,3.8.7,5.7a14.5,14.5,0,0,0,1.8,5.3,14.6,14.6,0,0,1-2.2-5.3c-.4-1.8-.6-3.7-.9-5.6-.6-3.7-1.2-7.5-1.7-11.2s-1.1-7.5-1.5-11.3a48.4,48.4,0,0,1-.3-11.4.5.5,0,1,1,1,0Z"></path>
          <path class="cls-12" d="M160.1,97.6a73.5,73.5,0,0,1-8.5,5.1l-4.6,2a34.3,34.3,0,0,0-4.4,1.9,9.4,9.4,0,0,0-1.9,1.4,9,9,0,0,0-1.4,2,35.2,35.2,0,0,0-1.8,4.5,32,32,0,0,0-1.3,9.7,28.7,28.7,0,0,1,1.1-9.7,26,26,0,0,1,1.6-4.7,15.3,15.3,0,0,1,1.4-2.1,15.6,15.6,0,0,1,2-1.6,36.2,36.2,0,0,1,4.5-2l4.4-2.1a64.3,64.3,0,0,0,8.3-5.2.5.5,0,0,1,.7.1.5.5,0,0,1-.1.7Z"></path>
        </g>
        <polygon class="cls-13" points="0 45.9 159.2 112.4 304 51 159.2 0 0 45.9"></polygon>
        <g>
          <path class="cls-14" d="M158.4,61.5c1.9-6.7,4.7-17.3,17.2-25.3,0,0-10,12.3-11.3,33.5h-3.1C158,69,157.5,64.7,158.4,61.5Z"></path>
          <path class="cls-14" d="M155.3,9.6c-3.8,1.3,2.8,52.8,8.7,59.5l-3.9,1C153.6,70.9,150.5,14.6,155.3,9.6Z"></path>
          <path class="cls-15" d="M169.2,19c-4,0-3.9,39.8-4.9,50.2l-4.7.8C153.2,68.7,163.1,22.2,169.2,19Z"></path>
        </g>
        <g>
          <g>
            <path class="cls-16" d="M168.2,71a1.7,1.7,0,0,0-1.7-.6c-1,.3-1.4,1-1.2,1.3l.4.4c.2.2.7-.5.7-.5Z"></path>
            <path class="cls-9" d="M168.8,72.2s-.4-1.4-.9-1.4h-1V71s.4.8.6.9l.7.2Z"></path>
            <path class="cls-10" d="M168.7,72.3a.3.3,0,0,0-.2-.5h-.6l-1,.7c-.1.1-.2.1.2.2s.5.3.9.2S168.7,72.3,168.7,72.3Z"></path>
            <path class="cls-11" d="M167.9,71.7a3.1,3.1,0,0,0-.6.6c-.2.2-.3.3-.6.2s-1-.3-1.1-.5-.2-.3,0-.6a1.1,1.1,0,0,1,.9-.6,1.1,1.1,0,0,1,1,.2A2.7,2.7,0,0,1,167.9,71.7Z"></path>
          </g>
          <g>
            <path class="cls-16" d="M143.4,62a2.7,2.7,0,0,0-2.7-.4c-1.3.7-1.6,1.9-1.3,2.3l.6.4c.5.3,1-.9,1-.9Z"></path>
            <path class="cls-9" d="M144.5,63.5s-.8-1.8-1.6-1.7a6.3,6.3,0,0,1-1.5.2v.4s.9,1.1,1.2,1.1h2Z"></path>
            <path class="cls-10" d="M144.5,63.8c0-.2,0-.7-.4-.7a2.9,2.9,0,0,0-1,0l-1.2,1.3c-.1.1-.3.2.4.2s.7.2,1.3,0A1.7,1.7,0,0,0,144.5,63.8Z"></path>
            <path class="cls-11" d="M143.1,63.1l-.7,1c-.2.4-.2.6-.7.5s-1.5-.1-1.9-.4-.3-.3-.1-.9a3.2,3.2,0,0,1,1.2-1.1,1.4,1.4,0,0,1,1.4,0A4.4,4.4,0,0,1,143.1,63.1Z"></path>
          </g>
          <g>
            <path class="cls-16" d="M161,58.4s-5.6-2.8-9.5.6-4.1,7.8-2.8,8.7a19.4,19.4,0,0,0,2.4,1c1.7.6,2.7-3.6,2.8-3.7Z"></path>
            <path class="cls-9" d="M165.7,62.8s-4.1-5.5-6.5-4.6a48.4,48.4,0,0,1-5.1,1.8l-.2,1.4s4.1,3,5.2,2.9l3.5-.4A21.4,21.4,0,0,0,165.7,62.8Z"></path>
            <path class="cls-10" d="M165.9,63.6c-.1-.6-.3-2.2-2-1.9a24.3,24.3,0,0,0-3.3.7l-2.9,5.2c-.6.7-1.1.9,1.3.6s2.7.2,4.5-.9A6.6,6.6,0,0,0,165.9,63.6Z"></path>
            <path class="cls-11" d="M160.6,62.4a31.3,31.3,0,0,0-1.5,3.8c-.5,1.8-.5,2.3-2.1,2.2s-5.2.9-6.6,0-1.4-.8-1-2.8,1.3-3,3.2-4.6a4.2,4.2,0,0,1,4.7-1A11.2,11.2,0,0,1,160.6,62.4Z"></path>
          </g>
          <g>
            <path class="cls-16" d="M182.5,60.2s-3.3-4.4-7.6-3.3-6.3,4.4-5.6,5.6,1,1.2,1.5,1.8,3.4-1.8,3.5-1.8Z"></path>
            <path class="cls-9" d="M184.4,65.5s-1-6-3.2-6.1-4.7-.7-4.7-.7l-.7,1s2,4,2.9,4.3l2.8,1.1A19.7,19.7,0,0,0,184.4,65.5Z"></path>
            <path class="cls-10" d="M184.2,66.2c.2-.5.6-1.8-.7-2.3a23.8,23.8,0,0,0-2.9-.8L176.3,66c-.8.3-1.2.3.8,1s1.9,1.2,3.8,1.1A5.5,5.5,0,0,0,184.2,66.2Z"></path>
            <path class="cls-11" d="M180.6,63.1a23.3,23.3,0,0,0-2.7,2.4c-1.1,1.2-1.3,1.5-2.5.8s-4.4-1.3-5.1-2.6-.8-1.1.3-2.5,2.3-1.8,4.3-2.3A3.6,3.6,0,0,1,179,60,9.6,9.6,0,0,1,180.6,63.1Z"></path>
          </g>
          <g>
            <path class="cls-16" d="M167.5,62.5s-4.6-3.6-8.8-1.2-5.2,6.4-4.1,7.5a23.6,23.6,0,0,0,2,1.3c1.4.9,3.1-2.8,3.2-2.8Z"></path>
            <path class="cls-9" d="M171.1,67.4s-2.8-5.9-5.2-5.4l-5,.7-.4,1.2s3.2,3.6,4.2,3.7l3.3.2A21.5,21.5,0,0,0,171.1,67.4Z"></path>
            <path class="cls-10" d="M171.1,68.2c0-.6.1-2.1-1.5-2.2h-3.1l-3.7,4.3c-.6.6-1.1.6,1.2.8s2.3.7,4.2,0A6.1,6.1,0,0,0,171.1,68.2Z"></path>
            <path class="cls-11" d="M166.5,66a35,35,0,0,0-2.1,3.3c-.8,1.5-.9,2-2.4,1.6s-4.9-.1-6-1.2-1.1-.9-.4-2.7,1.8-2.5,3.7-3.7a3.9,3.9,0,0,1,4.5,0A10.5,10.5,0,0,1,166.5,66Z"></path>
          </g>
          <g>
            <path class="cls-16" d="M191.5,70.6a2.9,2.9,0,0,0,2.6-1.3c.7-1.4.2-2.6-.2-2.8h-.8c-.5,0-.3,1.3-.4,1.3Z"></path>
            <path class="cls-9" d="M189.7,69.9s1.8,1,2.3.5l1.3-1.1-.2-.4s-1.4-.4-1.7-.2l-.9.5Z"></path>
            <path class="cls-10" d="M189.6,69.7c.1.1.3.5.7.3l.9-.6a16.2,16.2,0,0,1,.2-1.8c.1-.2.2-.4-.5,0s-.7.3-1.1.8A1.7,1.7,0,0,0,189.6,69.7Z"></path>
            <path class="cls-11" d="M191.2,69.4V68.2c-.1-.6-.2-.7.3-.9s1.3-.8,1.8-.8.5.1.6.7a2.7,2.7,0,0,1-.3,1.7,1.5,1.5,0,0,1-1.2.8A3.9,3.9,0,0,1,191.2,69.4Z"></path>
          </g>
          <g>
            <path class="cls-16" d="M129.9,73.8a2.9,2.9,0,0,0,2.6-1.3c.7-1.4.2-2.6-.2-2.7h-.8c-.5,0-.3,1.3-.4,1.3Z"></path>
            <path class="cls-9" d="M128.1,73.1s1.8,1.1,2.3.5l1.3-1.1-.2-.4a7.2,7.2,0,0,0-1.7-.2l-1,.5Z"></path>
            <path class="cls-10" d="M128,72.9c0,.1.3.6.7.3a3.1,3.1,0,0,0,.9-.6,16.2,16.2,0,0,1,.2-1.8c.1-.2.2-.3-.5,0s-.7.3-1.1.8A1.7,1.7,0,0,0,128,72.9Z"></path>
            <path class="cls-11" d="M129.6,72.6a7.5,7.5,0,0,0-.1-1.2c0-.6-.1-.7.4-.9s1.3-.8,1.8-.7.5,0,.6.6a2.7,2.7,0,0,1-.3,1.7c-.4.6-.7.8-1.2.8A3.1,3.1,0,0,1,129.6,72.6Z"></path>
          </g>
          <g>
            <path class="cls-16" d="M147.5,71.5s2.4.4,3.4-1.3.5-3.4-.1-3.5h-1c-.6,0-.5,1.6-.5,1.7Z"></path>
            <path class="cls-9" d="M145.3,70.5s2.1,1.5,2.9.9l1.6-1.3v-.5s-1.8-.6-2.2-.4a4.4,4.4,0,0,0-1.2.6C146.1,69.8,145.3,70.5,145.3,70.5Z"></path>
            <path class="cls-10" d="M145.1,70.2c.1.3.4.8,1,.5l1.1-.6s.3-1.9.4-2.3.3-.5-.6,0-1,.2-1.5.8A2.5,2.5,0,0,0,145.1,70.2Z"></path>
            <path class="cls-11" d="M147.2,70.1a7.6,7.6,0,0,0,0-1.6c0-.7,0-.9.6-1.1s1.7-.9,2.4-.8.5.1.7.9a3.4,3.4,0,0,1-.6,2.1,1.6,1.6,0,0,1-1.6.9A4,4,0,0,1,147.2,70.1Z"></path>
          </g>
          <g>
            <path class="cls-16" d="M160.4,69.1a2.4,2.4,0,0,1,2.1-.4c1,.5,1.3,1.3,1,1.6l-.5.3c-.3.2-.7-.6-.7-.6Z"></path>
            <path class="cls-9" d="M159.6,70.1s.6-1.2,1.1-1.2h1.2l.2.3s-.8.8-1,.8h-1.5Z"></path>
            <path class="cls-10" d="M159.6,70.3c0-.1-.1-.4.3-.5h.8l.9.9c.1.1.2.1-.3.1s-.6.2-1,.1A1.4,1.4,0,0,1,159.6,70.3Z"></path>
            <path class="cls-11" d="M160.7,69.8l.5.7c.2.3.2.4.6.3a7,7,0,0,0,1.4-.3c.3-.3.2-.2.1-.6s-.5-.5-1-.7a.9.9,0,0,0-1,0A1.5,1.5,0,0,0,160.7,69.8Z"></path>
          </g>
          <g>
            <path class="cls-16" d="M179.2,63.7s-4.3-3.2-8.1-.8-4.7,6-3.7,7l1.9,1.2c1.3.7,2.8-2.7,2.9-2.7Z"></path>
            <path class="cls-9" d="M182.6,68.2s-2.7-5.3-4.8-4.9-4.6.8-4.6.8l-.4,1.2s3,3.1,4,3.2l3,.2Z"></path>
            <path class="cls-10" d="M182.6,69c.1-.6.1-2-1.3-2a15.8,15.8,0,0,0-2.9.1l-3.3,4c-.6.5-1.1.6,1,.7s2.2.6,4-.1A5,5,0,0,0,182.6,69Z"></path>
            <path class="cls-11" d="M178.4,67.1a23.8,23.8,0,0,0-1.9,3c-.7,1.5-.8,1.9-2.1,1.6s-4.6,0-5.7-1-1-.9-.4-2.5,1.6-2.4,3.4-3.5a3.8,3.8,0,0,1,4.2-.1A9,9,0,0,1,178.4,67.1Z"></path>
          </g>
          <g>
            <path class="cls-16" d="M156.1,68.8s-3.6-.7-5.2,1.8-1,5-.1,5.3l1.5.2c1,.1.8-2.4.9-2.5Z"></path>
            <path class="cls-9" d="M159.4,70.4s-3.2-2.4-4.3-1.4l-2.6,1.8v.8s2.8,1,3.4.8a8.7,8.7,0,0,1,1.9-.8Z"></path>
            <path class="cls-10" d="M159.6,70.9c-.1-.3-.5-1.2-1.4-.8l-1.7.9s-.6,2.9-.8,3.4-.4.7.9.1,1.5-.3,2.3-1.2A3.2,3.2,0,0,0,159.6,70.9Z"></path>
            <path class="cls-11" d="M156.5,71a21.1,21.1,0,0,0-.2,2.4c0,1.1.1,1.3-.8,1.6s-2.8,1.3-3.7,1-.9-.2-1-1.4.3-1.8,1-3a2.3,2.3,0,0,1,2.5-1.3A5.4,5.4,0,0,1,156.5,71Z"></path>
          </g>
        </g>
      </g>
    </g>
  </g>
</svg>
