<?xml version="1.0" encoding="UTF-8"?>
<svg xmlns="http://www.w3.org/2000/svg" xmlns:xlink="http://www.w3.org/1999/xlink" viewBox="0 0 304 372.6">
  <defs>
    <style>
      .cls-1 {
        fill: #4e7f2f;
      }

      .cls-2 {
        fill: #8e6848;
      }

      .cls-3 {
        clip-path: url(#clip-path);
      }

      .cls-4 {
        fill: url(#Безымянный_градиент_2);
      }

      .cls-5 {
        fill: #713e21;
      }

      .cls-6 {
        fill: #3d271f;
      }

      .cls-7 {
        fill: #69391e;
      }

      .cls-8 {
        fill: #6b472f;
      }

      .cls-9 {
        fill: #5c3624;
      }

      .cls-10 {
        fill: #795135;
      }

      .cls-11 {
        fill: #9a734f;
      }

      .cls-12 {
        fill: #faf8c3;
      }

      .cls-13 {
        fill: #85563a;
      }

      .cls-14 {
        fill: #609534;
      }

      .cls-15 {
        fill: #a0ca30;
      }

      .cls-16 {
        fill: #78a731;
      }

      .cls-17 {
        fill: #abcf34;
      }

      .cls-18 {
        fill: #93b74a;
      }

      .cls-19 {
        fill: #78a830;
      }

      .cls-20 {
        fill: #6b482f;
      }
    </style>
    <clipPath id="clip-path">
      <polygon class="cls-1" points="21.3 293.4 159.2 358.3 286.8 293.7 154.2 237.5 21.3 293.4"></polygon>
    </clipPath>
    <linearGradient id="Безымянный_градиент_2" data-name="Безымянный градиент 2" x1="1510.25" y1="-841.4" x2="1517.98" y2="-841.4" gradientTransform="matrix(34.36, 0, 0, -34.36, -51899.07, -28609.51)" gradientUnits="userSpaceOnUse">
      <stop offset="0" stop-color="#9b714e"></stop>
      <stop offset="0.38" stop-color="#9b714e"></stop>
      <stop offset="0.89" stop-color="#764528"></stop>
      <stop offset="1" stop-color="#6e3c20"></stop>
    </linearGradient>
  </defs>
  <g id="Слой_2" data-name="Слой 2">
    <g id="Слой_1-2" data-name="Слой 1">
      <g>
        <g>
          <path class="cls-2" d="M159.2,175.7s26.6,31.2,47.1,32.5,90.6-20.9,90.6-20.9l7.1-72.9L159.2,63.3Z"></path>
          <path class="cls-2" d="M0,109.2l14.4,95.1s51.3,7.7,60.3,5.2,50-18,61.5-18,23-15.8,23-15.8V63.3Z"></path>
          <g>
            <polygon class="cls-1" points="21.3 293.4 159.2 358.3 286.8 293.7 154.2 237.5 21.3 293.4"></polygon>
            <g class="cls-3">
              <rect class="cls-4" x="86.6" y="162.1" width="134.9" height="271.62" transform="translate(-151.7 435.8) rotate(-86.9)"></rect>
            </g>
          </g>
          <path class="cls-5" d="M21.3,293.4l-6.9-89.1s65.4-1.2,83.4-10.2,61.4-18.4,61.4-18.4l-5,61.8Z"></path>
          <path class="cls-6" d="M114.5,209.9c-1.9-1.6-5.1-4-7.8-4.6h0s-10.4-3.1-16.1,3.9-4.7,14.6-2.1,15.8a25.8,25.8,0,0,0,4.5,1h.2c3-.1,7.4-1.9,9.7-2.2a4.9,4.9,0,0,0,1.7-.5l1.8-.5c4.1-1.3,4.6-.3,7.4-2.8s3-7,3-7l-.6-1.4h-.1a2.5,2.5,0,0,0-1.6-1.4"></path>
          <path class="cls-6" d="M58.5,219.1c-3.2.5-8.1,1.6-11.1,3.6h0s-11.8,7.5-9.9,18.9S47.6,258.4,51,257a42.6,42.6,0,0,0,4.7-3.6v-.3c2.6-2.9,4.4-8.7,6.1-11.2a4.6,4.6,0,0,0,1-2,16.4,16.4,0,0,0,1-2.2c2.2-5,3.6-4.7,3.6-9.5s-4.3-8.9-4.3-8.9l-1.8-.6h-.2a3.3,3.3,0,0,0-2.7.4"></path>
          <path class="cls-7" d="M159.2,175.7l-5,61.8,132.6,56.2,10.1-106.4s-41.4-4.8-59.3-2.2-49.2,10.3-58.6,5.1-19.8-14.5-19.8-14.5"></path>
          <path class="cls-6" d="M108.7,239.2a7.7,7.7,0,0,0-3.4-.8h0s-4.3,0-5.7,3.3-.1,6,1,6.2l1.8-.2h.1c1.1-.4,2.5-1.6,3.4-1.9l.6-.4.6-.4c1.4-.9,1.7-.6,2.4-1.9a4.5,4.5,0,0,0,.4-3l-.4-.4h0Z"></path>
          <path class="cls-6" d="M238.7,212.6a7.4,7.4,0,0,0-.3-2.5h0s-1.1-2.7-3.5-2.8-4,1.4-3.8,2.2l.6,1.1h0l2.1,1.8.4.2.4.3c.9.7.8,1,1.8,1.2a3,3,0,0,0,2-.5l.2-.4h0Z"></path>
          <path class="cls-6" d="M275.7,257.3c-.9-3.1-2.8-7.9-5.2-10.6h.1s-9.2-10.8-20.3-7.2-15.5,12.6-13.5,15.7c.5.9,2.8,2.9,4.2,4.2h.4c3.2,2.1,9.3,3.1,12,4.4a4.6,4.6,0,0,0,2.1.7l2.4.8c5.3,1.5,5.2,2.8,10,2.1s8.2-5.5,8.2-5.5a6.9,6.9,0,0,0,.4-1.9h.1v-.2a3.5,3.5,0,0,0-.8-2.6"></path>
          <path class="cls-6" d="M203.6,220.6c-1.7,1.8-4.2,4.8-5.1,7.4h0s-3.9,10.1,2.6,16.3,14.1,5.7,15.5,3.2a27,27,0,0,0,1.3-4.4v-.2c.2-3-1.4-7.4-1.5-9.8a4.3,4.3,0,0,0-.3-1.7,13,13,0,0,1-.3-1.8c-1-4.1-.1-4.5-2.3-7.5s-6.7-3.5-6.7-3.5l-1.4.5h-.2a3.1,3.1,0,0,0-1.5,1.5"></path>
          <path class="cls-8" d="M204.1,296.2s2.9.8,4.4-1.2,1.2-3.9.5-4.2l-1.3-.3c-.8-.1-.8,1.9-.9,2Z"></path>
          <path class="cls-9" d="M201.5,294.6s2.5,2.2,3.5,1.5a20.2,20.2,0,0,1,2.2-1.3v-.6l-2.6-.9-1.6.5Z"></path>
          <path class="cls-10" d="M201.4,294.2c.1.3.3,1,1.1.7l1.4-.6.9-2.6c.2-.4.4-.6-.7-.2s-1.2.1-1.9.8a2.8,2.8,0,0,0-.8,1.9"></path>
          <path class="cls-11" d="M203.9,294.3a12.6,12.6,0,0,0,.4-1.9c.1-.8,0-1.1.8-1.2s2.3-.9,3-.6.7.2.7,1.2a3.4,3.4,0,0,1-1,2.4,2,2,0,0,1-2.1.9,5.1,5.1,0,0,1-1.8-.8"></path>
          <path class="cls-8" d="M174.7,279.3s6.6.3,8.9-4.6.7-9.3-1-9.7-1.9.1-2.8.1-1,4.6-1,4.7Z"></path>
          <path class="cls-9" d="M168.2,277s6.3,3.6,8.2,1.7,4.2-3.9,4.2-3.9l-.4-1.4s-5.2-1.2-6.2-.7l-3.2,1.9Z"></path>
          <path class="cls-10" d="M167.7,276.2c.3.6,1.2,2.1,2.7,1.1a32.2,32.2,0,0,0,2.9-2s.5-5.4.7-6.3.6-1.4-1.6,0-2.7.8-4,2.7-.7,4.5-.7,4.5"></path>
          <path class="cls-11" d="M173.3,275.3a27.1,27.1,0,0,0-.2-4.4c-.2-1.9-.4-2.4,1.2-3s4.6-3.1,6.4-2.8,1.7.1,2.1,2.3,0,3.5-1.1,5.8a4.3,4.3,0,0,1-4.2,2.9,10.5,10.5,0,0,1-4.2-.8"></path>
          <path class="cls-8" d="M147.2,300.7s5.1,3.9,9.7,1.2,5.7-7.1,4.5-8.3a9.1,9.1,0,0,0-2.3-1.5c-1.5-.9-3.3,3.2-3.4,3.2Z"></path>
          <path class="cls-9" d="M143.2,295.3s3.1,6.5,5.7,5.9,5.5-.8,5.5-.8l.5-1.4s-3.6-3.9-4.7-4l-3.6-.2Z"></path>
          <path class="cls-10" d="M143.2,294.4c-.1.7-.2,2.3,1.6,2.4a22.2,22.2,0,0,0,3.4-.1l4.1-4.7c.7-.6,1.2-.7-1.3-.9s-2.6-.7-4.7,0a6.4,6.4,0,0,0-3.1,3.3"></path>
          <path class="cls-11" d="M148.2,296.7a22.6,22.6,0,0,0,2.3-3.6c.9-1.7,1-2.2,2.6-1.8s5.5,0,6.7,1.2,1.3,1.1.5,3.1-1.9,2.8-4.1,4-3.5,1-5,.2a12.6,12.6,0,0,1-3-3.1"></path>
          <path class="cls-8" d="M135.3,282.9s2.7-4.1.3-7.5-5.8-3.8-6.7-2.8l-.9,1.8c-.6,1.2,2.6,2.3,2.6,2.4Z"></path>
          <path class="cls-9" d="M131.5,286.4s4.7-2.9,4.1-4.8a38.1,38.1,0,0,1-1-4.2l-1.1-.2s-2.7,3-2.7,3.8.1,2.4.1,2.8Z"></path>
          <path class="cls-10" d="M130.8,286.4c.5,0,1.8,0,1.7-1.4a13.3,13.3,0,0,0-.3-2.6l-3.8-2.8c-.6-.5-.7-.9-.6,1.1s-.4,2,.3,3.6a4.8,4.8,0,0,0,2.7,2.1"></path>
          <path class="cls-11" d="M132.2,282.4a20.9,20.9,0,0,0-2.9-1.5c-1.3-.6-1.7-.6-1.5-1.9s-.4-4.1.5-5.2.7-1,2.2-.5,2.3,1.3,3.4,2.8,1,2.6.4,3.8a7.2,7.2,0,0,1-2.1,2.5"></path>
          <path class="cls-8" d="M111.9,288.5s1.7-1.4,1.1-3.1-1.9-2.3-2.4-2l-.6.6.8,1.4Z"></path>
          <path class="cls-9" d="M109.9,289.4s2.3-.6,2.3-1.4a11.3,11.3,0,0,1,.2-1.9l-.5-.2-1.6,1.2-.3,1.2Z"></path>
          <path class="cls-10" d="M109.6,289.4l.9-.4.2-1.1-1.2-1.7c-.2-.2-.2-.4-.4.4s-.4.8-.3,1.5a2.5,2.5,0,0,0,.8,1.3"></path>
          <path class="cls-11" d="M110.7,287.9l-1-1-.4-1,.9-2.1h1a2.3,2.3,0,0,1,1,1.6,1.3,1.3,0,0,1-.3,1.6Z"></path>
          <path class="cls-8" d="M104.8,301.4s4.5-7.3.3-13-10-6.6-11.5-4.9a17.9,17.9,0,0,0-1.7,3.2c-1,2.1,4.6,4,4.7,4.1Z"></path>
          <path class="cls-9" d="M98.1,307.3s8.2-4.9,7.1-8.3-1.7-7.2-1.7-7.2l-1.9-.4s-4.7,5.2-4.7,6.7.2,4.2.2,4.8Z"></path>
          <path class="cls-10" d="M97,307.4c.8.1,3-.1,2.9-2.4a37.8,37.8,0,0,0-.5-4.5s-5.8-3.9-6.7-4.8-1.2-1.5-1,1.8-.7,3.6.6,6.2,4.7,3.7,4.7,3.7"></path>
          <path class="cls-11" d="M99.4,300.5a33.7,33.7,0,0,0-5.1-2.6c-2.3-.9-3-1-2.7-3.2s-.6-7.2.8-9.1,1.3-1.7,4-.9,3.9,2.2,5.9,4.9,1.7,4.5.7,6.6a14.7,14.7,0,0,1-3.6,4.3"></path>
        </g>
        <g>
          <path class="cls-12" d="M165.8,149.4a18.3,18.3,0,0,1-1.1,9c-1,2.8-2.1,5.4-3,8.2s-1.6,5.5-2.4,8.3a61.8,61.8,0,0,1-2.7,8.3c-1.2,2.7-3.1,5-4.6,7.4a35.1,35.1,0,0,0-3.8,7.8,36.8,36.8,0,0,0-1.9,17.1,37.3,37.3,0,0,1,1.7-17.2,40.1,40.1,0,0,1,3.6-7.9c1.5-2.5,3.4-4.8,4.5-7.4a72.4,72.4,0,0,0,2.4-8.3l2.2-8.4c.8-2.9,1.9-5.6,2.6-8.3a15.3,15.3,0,0,0,.4-8.2,1,1,0,0,1,.7-1.3,1.1,1.1,0,0,1,1.4.8Z"></path>
          <path class="cls-12" d="M164.9,151.2a40.7,40.7,0,0,1,0,7.8,51.8,51.8,0,0,1-.9,7.8,13.7,13.7,0,0,1-1.5,3.8l-2.4,3.1c-1.6,2-3.4,3.9-5.2,5.8a58,58,0,0,1-5.8,5.2,73.1,73.1,0,0,1-6.6,4.1,55.7,55.7,0,0,0-6.7,3.9c-2,1.5-4,3.4-4.8,5.9a12.7,12.7,0,0,1,4.7-6,66.5,66.5,0,0,1,6.6-4.2,44.1,44.1,0,0,0,6.4-4.2,46.9,46.9,0,0,0,5.7-5.2c1.7-1.9,3.4-3.9,4.9-5.9l2.4-3.1a11.4,11.4,0,0,0,1.2-3.4,49,49,0,0,0,.8-7.6,47.9,47.9,0,0,0-.1-7.6h0a.6.6,0,0,1,.5-.7c.4-.1.7.2.8.6Z"></path>
          <path class="cls-12" d="M164.8,150.3a203.6,203.6,0,0,0-8.1,24.3c-1,4.1-1.9,8.3-2.7,12.5s-1.3,8.4-1.9,12.7c.5-4.3.9-8.5,1.6-12.8s1.4-8.4,2.4-12.6a178.7,178.7,0,0,1,7.5-24.6.8.8,0,0,1,.9-.4.7.7,0,0,1,.3.9Z"></path>
          <path class="cls-12" d="M164,150.4a80,80,0,0,1-.4,14.7c-.6,4.9-1.4,9.7-2,14.6s-1.4,9.7-2.2,14.5a65.2,65.2,0,0,1-1.2,7.3,18,18,0,0,1-2.8,6.7,18.5,18.5,0,0,0,2.4-6.8c.3-2.4.5-4.9.8-7.3l1.5-14.6,1.7-14.6a99.9,99.9,0,0,0,.8-14.5.7.7,0,0,1,.7-.6A.7.7,0,0,1,164,150.4Z"></path>
          <path class="cls-12" d="M165.1,152.3a18.9,18.9,0,0,0-.1,4.1,27,27,0,0,0,.6,4.1,46.9,46.9,0,0,0,2.9,7.9c2.5,5.1,5.6,9.8,8.4,14.9a62.9,62.9,0,0,1,3.5,7.9,30.3,30.3,0,0,1,1.5,8.5c.2,5.8-1,11.4-.5,17.1-.7-5.7.1-11.4-.2-17.1a25.5,25.5,0,0,0-1.7-8.2,44.9,44.9,0,0,0-3.6-7.7c-2.8-4.9-6.2-9.6-8.7-14.8a37.7,37.7,0,0,1-3.1-8.1,33.2,33.2,0,0,1-.6-4.4,32.5,32.5,0,0,1,.3-4.4.8.8,0,0,1,.8-.6.7.7,0,0,1,.5.8Z"></path>
          <path class="cls-12" d="M165.6,150.1c.5,2.1,1.1,4.3,1.7,6.5l1,3.1a28.3,28.3,0,0,0,1.1,3.1c1.6,4.1,3.8,8.1,5.1,12.5a31.1,31.1,0,0,1,1.1,6.8c.2,2.2.2,4.5.3,6.7a36.1,36.1,0,0,0,.8,6.6,20.7,20.7,0,0,0,2.7,6.1,18.2,18.2,0,0,1-3.2-6,36.5,36.5,0,0,1-1.2-6.6c-.5-4.5-.6-9-2-13.1s-3.6-8-5.5-12.2a30.5,30.5,0,0,1-1.3-3.2l-1.1-3.2c-.6-2.1-1.3-4.3-1.9-6.5a1.3,1.3,0,0,1,.9-1.5,1.2,1.2,0,0,1,1.5.9Z"></path>
          <path class="cls-12" d="M165.7,155a82.7,82.7,0,0,1-1.1,10,19.4,19.4,0,0,0-.2,2.4v2.5a8.4,8.4,0,0,1-1.6,4.9l-1.8,1.8-1.5,1.9a18.5,18.5,0,0,0-2.1,4.5,13.8,13.8,0,0,0,1,9.6,13.6,13.6,0,0,1-1.3-9.7,15.7,15.7,0,0,1,2-4.6,13.7,13.7,0,0,1,1.5-2.1l1.6-1.8a7.2,7.2,0,0,0,1.3-4.5v-2.5a20.9,20.9,0,0,1,.1-2.5c.3-3.3.8-6.6.8-9.9h0c0-.4.2-.7.6-.7a.7.7,0,0,1,.7.7Z"></path>
          <path class="cls-12" d="M166.2,154.4a30.1,30.1,0,0,1,4.6,6.6,19.1,19.1,0,0,1,2.3,7.6,19.9,19.9,0,0,0-2.6-7.4,29.8,29.8,0,0,0-4.9-6.2.4.4,0,1,1,.6-.6Z"></path>
          <g>
            <path class="cls-12" d="M164.2,150.7a25.1,25.1,0,0,0-2.3,7.5,34.8,34.8,0,0,0-.1,7.9,71.3,71.3,0,0,0,3.9,15.6,120.8,120.8,0,0,1,4.5,15.6c1.1,5.3,1.3,10.9-.5,16.1,1.6-5.2,1.2-10.8,0-16a137.8,137.8,0,0,0-4.9-15.4,71.7,71.7,0,0,1-4.3-15.7,32.9,32.9,0,0,1,0-8.3,25.1,25.1,0,0,1,2.5-7.9.8.8,0,0,1,.9-.3A.6.6,0,0,1,164.2,150.7Z"></path>
            <path class="cls-12" d="M161.6,158.9c2,9.4,5.8,18.4,10.2,27,1,2.1,2.2,4.2,3.3,6.4a18.8,18.8,0,0,1,2,7c.2,2.4.1,4.8.1,7.2a21.6,21.6,0,0,0,.9,7.2,24.6,24.6,0,0,1-1.1-7.2c-.1-2.4,0-4.8-.2-7.2a18,18,0,0,0-2.1-6.8c-1.2-2.1-2.4-4.2-3.5-6.4a112.4,112.4,0,0,1-10.6-27c-.1-.3.1-.5.4-.6s.5.1.6.4Z"></path>
            <path class="cls-12" d="M163.3,152a15.2,15.2,0,0,0,4.2,6.2,22,22,0,0,0,6.7,3.7c1.3.4,2.6.7,3.8,1.2a12.2,12.2,0,0,1,3.5,2,28.5,28.5,0,0,1,5,6,26.1,26.1,0,0,0-5.2-5.8,14.1,14.1,0,0,0-3.4-1.9l-3.8-1a19.3,19.3,0,0,1-7.1-3.7,15.9,15.9,0,0,1-4.7-6.4c-.1-.2.1-.5.3-.6a.5.5,0,0,1,.7.3Z"></path>
          </g>
        </g>
        <polygon class="cls-13" points="0 109.2 159.2 175.7 304 114.3 159.2 63.3 0 109.2"></polygon>
        <g>
          <path class="cls-14" d="M164.8,122.3S160.2,52.8,134.1,22c0,0,22.2,47.4,27.9,99.7Z"></path>
          <path class="cls-15" d="M164,120.4s1.5-58.8-2.4-94.7c0,0-1.2,90.9-.1,95.9Z"></path>
          <path class="cls-16" d="M163.8,120.6a.9.9,0,0,0,.9-.7c1-9.1,11.1-97.9,10.6-101.4,0,0-16,91.1-13.8,103.1Z"></path>
          <path class="cls-17" d="M163.7,118.5s-3.5-68.6-4.3-72.6c0,0,.2,72.4,1.8,77.2l2.5-2.1Z"></path>
          <path class="cls-18" d="M164,120.4S153.3,6.2,149.9.5c-1.3-2.2-.5,3.8-.5,3.8s8.5,92.8,12.1,117.7Z"></path>
          <path class="cls-19" d="M163.2,120.7s-4.1-54.8-40.4-106.6c0,0,29.6,61.5,38.7,107.9Z"></path>
        </g>
        <g>
          <g>
            <path class="cls-20" d="M169.7,128.8a1.8,1.8,0,0,0-1.7-.6c-1,.3-1.4,1.1-1.2,1.3l.3.4c.3.2.8-.4.8-.4Z"></path>
            <path class="cls-9" d="M170.2,130s-.3-1.3-.8-1.3h-1l-.2.2a4.6,4.6,0,0,0,.7,1h1.3Z"></path>
            <path class="cls-10" d="M170.2,130.2c0-.1.1-.4-.2-.5l-.7-.2-.9.7c-.2.1-.3.1.2.2s.4.3.9.2A1,1,0,0,0,170.2,130.2Z"></path>
            <path class="cls-11" d="M169.3,129.5l-.5.6c-.3.3-.3.4-.6.2s-1-.2-1.2-.5-.2-.3.1-.6a1.6,1.6,0,0,1,.9-.6.8.8,0,0,1,.9.2A1.7,1.7,0,0,1,169.3,129.5Z"></path>
          </g>
          <g>
            <path class="cls-20" d="M144.9,119.8a2.7,2.7,0,0,0-2.7-.4c-1.3.8-1.6,2-1.3,2.3l.6.4c.4.3,1-.8,1-.8Z"></path>
            <path class="cls-9" d="M146,121.3s-.9-1.8-1.6-1.6l-1.5.2-.2.3a7.9,7.9,0,0,0,1.3,1.2h1Z"></path>
            <path class="cls-10" d="M146,121.6c0-.2,0-.7-.5-.7h-.9l-1.2,1.3c-.2.2-.3.2.4.3s.7.2,1.3,0A1.8,1.8,0,0,0,146,121.6Z"></path>
            <path class="cls-11" d="M144.6,120.9l-.7,1c-.2.5-.3.6-.7.5a5.8,5.8,0,0,1-1.9-.4c-.3-.3-.3-.3-.1-.8s.6-.8,1.2-1.1a1.1,1.1,0,0,1,1.4,0A2.8,2.8,0,0,1,144.6,120.9Z"></path>
          </g>
          <g>
            <path class="cls-20" d="M162.4,116.2s-5.6-2.8-9.5.6-4.1,7.8-2.7,8.8l2.4.9c1.6.6,2.6-3.6,2.7-3.6Z"></path>
            <path class="cls-9" d="M167.2,120.6s-4.2-5.5-6.5-4.5-5.1,1.7-5.1,1.7l-.2,1.4s4.1,3.1,5.2,3l3.5-.5A26.8,26.8,0,0,0,167.2,120.6Z"></path>
            <path class="cls-10" d="M167.4,121.5c-.1-.6-.3-2.2-2-2a20.7,20.7,0,0,0-3.3.7s-2.4,4.4-3,5.2-1,.9,1.4.6,2.6.3,4.5-.8A6.9,6.9,0,0,0,167.4,121.5Z"></path>
            <path class="cls-11" d="M162.1,120.2a28.9,28.9,0,0,0-1.5,3.9c-.5,1.7-.5,2.2-2.1,2.1s-5.2,1-6.7.1-1.3-.8-.9-2.9,1.3-3,3.1-4.5,3.1-1.6,4.8-1A9.9,9.9,0,0,1,162.1,120.2Z"></path>
          </g>
          <g>
            <path class="cls-20" d="M183.9,118s-3.2-4.4-7.6-3.3-6.2,4.4-5.6,5.7l1.5,1.7c1,1.1,3.5-1.8,3.6-1.8Z"></path>
            <path class="cls-9" d="M185.9,123.3s-1-5.9-3.3-6.1-4.6-.7-4.6-.7l-.7,1s2,4,2.8,4.4l2.9,1A19.7,19.7,0,0,0,185.9,123.3Z"></path>
            <path class="cls-10" d="M185.7,124a1.6,1.6,0,0,0-.8-2.3,14.3,14.3,0,0,0-2.8-.7l-4.4,2.8c-.7.4-1.2.3.9,1s1.9,1.3,3.7,1.1A5.6,5.6,0,0,0,185.7,124Z"></path>
            <path class="cls-11" d="M182.1,121a30.2,30.2,0,0,0-2.7,2.3c-1.1,1.2-1.3,1.6-2.5.9s-4.4-1.4-5.2-2.6-.7-1.2.4-2.6,2.2-1.8,4.3-2.3a3.6,3.6,0,0,1,4,1.1A8.8,8.8,0,0,1,182.1,121Z"></path>
          </g>
          <g>
            <path class="cls-20" d="M169,120.3s-4.7-3.6-8.9-1.2-5.1,6.4-4.1,7.5a15.1,15.1,0,0,0,2.1,1.4c1.4.8,3-2.9,3.1-2.9Z"></path>
            <path class="cls-9" d="M172.5,125.2s-2.8-5.8-5.1-5.4a42.4,42.4,0,0,1-5,.7l-.4,1.3s3.2,3.5,4.2,3.6l3.3.2A19.9,19.9,0,0,0,172.5,125.2Z"></path>
            <path class="cls-10" d="M172.5,126c.1-.6.2-2.1-1.4-2.2a18,18,0,0,0-3.1.1l-3.7,4.2c-.7.6-1.2.7,1.1.8s2.4.7,4.3,0A5.6,5.6,0,0,0,172.5,126Z"></path>
            <path class="cls-11" d="M168,123.9a18.5,18.5,0,0,0-2.1,3.2c-.8,1.6-.9,2-2.4,1.6s-4.9,0-6.1-1.1-1.1-1-.3-2.8,1.7-2.5,3.7-3.6,3.1-.9,4.5-.1A10.3,10.3,0,0,1,168,123.9Z"></path>
          </g>
          <g>
            <path class="cls-20" d="M193,128.4a2.9,2.9,0,0,0,2.6-1.3c.7-1.4.2-2.6-.3-2.7h-.8c-.5,0-.3,1.3-.3,1.3Z"></path>
            <path class="cls-9" d="M191.2,127.7s1.8,1.1,2.3.5l1.2-1v-.5a8.2,8.2,0,0,0-1.8-.2l-.9.6Z"></path>
            <path class="cls-10" d="M191,127.5c.1.2.4.6.8.3l.8-.5a16.8,16.8,0,0,1,.3-1.8c0-.3.2-.4-.5,0s-.7.2-1.1.7A2,2,0,0,0,191,127.5Z"></path>
            <path class="cls-11" d="M192.6,127.3a5,5,0,0,0,0-1.3c0-.5-.1-.7.4-.8s1.3-.9,1.8-.8.5,0,.6.7a2,2,0,0,1-.4,1.6,1.2,1.2,0,0,1-1.2.8Z"></path>
          </g>
          <g>
            <path class="cls-20" d="M131.4,131.6a2.9,2.9,0,0,0,2.6-1.3c.7-1.4.2-2.6-.3-2.7h-.8c-.5,0-.3,1.3-.3,1.3Z"></path>
            <path class="cls-9" d="M129.6,130.9s1.8,1.1,2.3.5l1.2-1V130a7.4,7.4,0,0,0-1.8-.3l-.9.6Z"></path>
            <path class="cls-10" d="M129.4,130.7c.1.2.4.6.8.3l.8-.5a16.8,16.8,0,0,1,.3-1.8c0-.3.1-.4-.5,0s-.8.2-1.1.7A2,2,0,0,0,129.4,130.7Z"></path>
            <path class="cls-11" d="M131,130.5a5,5,0,0,0,0-1.3c-.1-.5-.1-.7.4-.8s1.3-.9,1.8-.8.5.1.6.7a2,2,0,0,1-.4,1.6,1.1,1.1,0,0,1-1.2.8A2.5,2.5,0,0,1,131,130.5Z"></path>
          </g>
          <g>
            <path class="cls-20" d="M149,129.4s2.4.3,3.4-1.4.5-3.3-.1-3.5h-1c-.7,0-.5,1.7-.5,1.7S149,129.4,149,129.4Z"></path>
            <path class="cls-9" d="M146.7,128.4s2.2,1.5,3,.8l1.6-1.2v-.6s-1.9-.6-2.3-.4l-1.2.6Z"></path>
            <path class="cls-10" d="M146.6,128.1c.1.2.3.7.9.5l1.1-.7.5-2.3c.1-.3.2-.4-.6,0s-1,.2-1.5.9A2,2,0,0,0,146.6,128.1Z"></path>
            <path class="cls-11" d="M148.6,127.9s.1-.9.1-1.6-.1-.9.5-1,1.8-1,2.4-.9.6.2.7.9a2.9,2.9,0,0,1-.6,2.1,1.5,1.5,0,0,1-1.6.9A4.8,4.8,0,0,1,148.6,127.9Z"></path>
          </g>
          <g>
            <path class="cls-20" d="M161.8,126.9a2.3,2.3,0,0,1,2.1-.3c1.1.4,1.3,1.3,1.1,1.5l-.5.3c-.3.2-.7-.6-.8-.6Z"></path>
            <path class="cls-9" d="M161,127.9s.7-1.2,1.2-1.1h1.2v.2s-.7.8-.9.8H161Z"></path>
            <path class="cls-10" d="M161.1,128.1c-.1-.1-.1-.4.3-.5h.7l.9.9c.2.1.3.1-.2.2s-.6.1-1,0A1,1,0,0,1,161.1,128.1Z"></path>
            <path class="cls-11" d="M162.1,127.6l.6.7c.2.3.2.4.5.3s1.2,0,1.5-.3.2-.2,0-.6a1.7,1.7,0,0,0-.9-.7,1.4,1.4,0,0,0-1.1,0Z"></path>
          </g>
          <g>
            <path class="cls-20" d="M180.7,121.6s-4.3-3.2-8.2-.9-4.6,6-3.6,7a12.8,12.8,0,0,0,1.9,1.2c1.3.8,2.8-2.7,2.9-2.7Z"></path>
            <path class="cls-9" d="M184.1,126.1s-2.7-5.4-4.9-4.9a35.6,35.6,0,0,1-4.6.7l-.3,1.2s3,3.2,3.9,3.3h3.1A17,17,0,0,0,184.1,126.1Z"></path>
            <path class="cls-10" d="M184.1,126.8c.1-.5.1-1.9-1.3-2a17.3,17.3,0,0,0-3,.1s-2.7,3.4-3.3,4-1,.6,1.1.7,2.2.6,3.9,0A5.3,5.3,0,0,0,184.1,126.8Z"></path>
            <path class="cls-11" d="M179.8,124.9s-1.1,1.7-1.8,3.1-.8,1.8-2.2,1.5-4.5,0-5.6-1-1.1-.8-.4-2.5,1.6-2.4,3.4-3.4,2.9-.9,4.1-.2A9,9,0,0,1,179.8,124.9Z"></path>
          </g>
          <g>
            <path class="cls-20" d="M157.5,126.6s-3.5-.6-5.1,1.9-1.1,5-.2,5.3h1.5c1,.1.9-2.4,1-2.5Z"></path>
            <path class="cls-9" d="M160.9,128.3s-3.2-2.4-4.4-1.5-2.5,1.8-2.5,1.8v.8s2.8,1,3.4.8l1.8-.8A14.2,14.2,0,0,0,160.9,128.3Z"></path>
            <path class="cls-10" d="M161.1,128.7c-.1-.3-.5-1.2-1.4-.8a10,10,0,0,0-1.7,1s-.6,2.8-.8,3.3-.5.7.8.1,1.5-.2,2.4-1.1A4.1,4.1,0,0,0,161.1,128.7Z"></path>
            <path class="cls-11" d="M158,128.9a18.4,18.4,0,0,0-.2,2.3c0,1.1,0,1.4-.9,1.6s-2.7,1.4-3.6,1.1-.9-.2-1-1.4a4.3,4.3,0,0,1,1-3.1,2.5,2.5,0,0,1,2.5-1.3A5.6,5.6,0,0,1,158,128.9Z"></path>
          </g>
        </g>
      </g>
    </g>
  </g>
</svg>
