<?xml version="1.0" encoding="UTF-8"?>
<svg xmlns="http://www.w3.org/2000/svg" xmlns:xlink="http://www.w3.org/1999/xlink" viewBox="0 0 304 737.3">
  <defs>
    <style>
      .cls-1 {
        fill: #4e7f2f;
      }

      .cls-2 {
        fill: #8e6848;
      }

      .cls-3 {
        clip-path: url(#clip-path);
      }

      .cls-4 {
        fill: url(#Безымянный_градиент_2);
      }

      .cls-5 {
        fill: #713e21;
      }

      .cls-6 {
        fill: #3d271f;
      }

      .cls-7 {
        fill: #69391e;
      }

      .cls-8 {
        fill: #6b472f;
      }

      .cls-9 {
        fill: #5c3624;
      }

      .cls-10 {
        fill: #795135;
      }

      .cls-11 {
        fill: #9a734f;
      }

      .cls-12 {
        fill: #faf8c3;
      }

      .cls-13 {
        fill: #85563a;
      }

      .cls-14 {
        fill: url(#Безымянный_градиент_58);
      }

      .cls-15 {
        fill: url(#Безымянный_градиент_55);
      }

      .cls-16 {
        fill: #517731;
      }

      .cls-17 {
        fill: #658933;
      }

      .cls-18 {
        fill: url(#Безымянный_градиент_49);
      }

      .cls-19 {
        fill: #6b482f;
      }
    </style>
    <clipPath id="clip-path">
      <polygon class="cls-1" points="21.3 658.2 159.2 723.1 286.8 658.5 154.2 602.3 21.3 658.2"></polygon>
    </clipPath>
    <linearGradient id="Безымянный_градиент_2" data-name="Безымянный градиент 2" x1="1074.13" y1="-489.31" x2="1081.86" y2="-489.31" gradientTransform="matrix(34.36, 0, 0, -34.36, -36915.48, -16148.41)" gradientUnits="userSpaceOnUse">
      <stop offset="0" stop-color="#9b714e"></stop>
      <stop offset="0.38" stop-color="#9b714e"></stop>
      <stop offset="0.89" stop-color="#764528"></stop>
      <stop offset="1" stop-color="#6e3c20"></stop>
    </linearGradient>
    <linearGradient id="Безымянный_градиент_58" data-name="Безымянный градиент 58" x1="5335.14" y1="958.18" x2="5416.57" y2="776.32" gradientTransform="matrix(-0.96, -0.27, -0.27, 0.96, 5569.34, 687.63)" gradientUnits="userSpaceOnUse">
      <stop offset="0.18" stop-color="#658933"></stop>
      <stop offset="0.79" stop-color="#517731"></stop>
    </linearGradient>
    <linearGradient id="Безымянный_градиент_55" data-name="Безымянный градиент 55" x1="5629.88" y1="276.05" x2="5677.62" y2="265.82" gradientTransform="matrix(-1, 0, 0, 1, 5812.1, 0)" gradientUnits="userSpaceOnUse">
      <stop offset="0.23" stop-color="#44682f"></stop>
      <stop offset="0.45" stop-color="#bee070"></stop>
      <stop offset="0.7" stop-color="#f9f2d7"></stop>
    </linearGradient>
    <linearGradient id="Безымянный_градиент_49" data-name="Безымянный градиент 49" x1="5640.93" y1="393.55" x2="5709.85" y2="394.96" gradientTransform="matrix(-1, 0, 0, 1, 5812.1, 0)" gradientUnits="userSpaceOnUse">
      <stop offset="0.18" stop-color="#44682f"></stop>
      <stop offset="0.43" stop-color="#bee070"></stop>
      <stop offset="0.7" stop-color="#f9f2d7"></stop>
    </linearGradient>
  </defs>
  <g id="Слой_2" data-name="Слой 2">
    <g id="Слой_1-2" data-name="Слой 1">
      <g>
        <g>
          <path class="cls-2" d="M159.2,540.5s26.6,31.2,47.1,32.5,90.6-20.9,90.6-20.9l7.1-73-144.8-51Z"></path>
          <path class="cls-2" d="M0,474l14.4,95.1s51.3,7.7,60.3,5.2,50-18,61.5-18,23-15.8,23-15.8V428.1Z"></path>
          <g>
            <polygon class="cls-1" points="21.3 658.2 159.2 723.1 286.8 658.5 154.2 602.3 21.3 658.2"></polygon>
            <g class="cls-3">
              <rect class="cls-4" x="86.6" y="526.9" width="134.9" height="271.62" transform="translate(-515.9 781) rotate(-86.9)"></rect>
            </g>
          </g>
          <path class="cls-5" d="M21.3,658.2l-6.9-89.1s65.4-1.3,83.4-10.2,61.4-18.4,61.4-18.4l-5,61.8Z"></path>
          <path class="cls-6" d="M114.5,574.7c-1.9-1.6-5.1-4-7.8-4.7h0s-10.4-3.1-16.1,3.9-4.7,14.6-2.1,15.8a25.8,25.8,0,0,0,4.5,1l.2-.2c3,0,7.4-1.9,9.7-2.2a3.5,3.5,0,0,0,1.7-.4l1.8-.5c4.1-1.3,4.6-.4,7.4-2.8s3-7.1,3-7.1l-.6-1.3h-.1a2.4,2.4,0,0,0-1.6-1.3"></path>
          <path class="cls-6" d="M58.5,583.8c-3.2.5-8.1,1.7-11.1,3.7h0s-11.8,7.5-9.9,18.9S47.6,623.2,51,621.8a42.6,42.6,0,0,0,4.7-3.6v-.3c2.6-2.9,4.4-8.8,6.1-11.2a5.2,5.2,0,0,0,1-2c.3-.6.6-1.2,1-2.2,2.2-5,3.6-4.7,3.6-9.5s-4.3-8.9-4.3-8.9l-1.8-.6h-.2a3.7,3.7,0,0,0-2.7.3"></path>
          <path class="cls-7" d="M159.2,540.5l-5,61.8,132.6,56.2,10.1-106.4s-41.4-4.8-59.3-2.2S188.4,560.1,179,555s-19.8-14.5-19.8-14.5"></path>
          <path class="cls-6" d="M108.7,604a9.5,9.5,0,0,0-3.4-.9h0s-4.3,0-5.7,3.3-.1,6,1,6.2l1.8-.2h.1c1.1-.3,2.5-1.5,3.4-1.9l.6-.3.6-.4c1.4-1,1.7-.7,2.4-1.9a4.5,4.5,0,0,0,.4-3l-.4-.4h0Z"></path>
          <path class="cls-6" d="M238.7,577.4a7.2,7.2,0,0,0-.3-2.5h0s-1.1-2.8-3.5-2.8-4,1.4-3.8,2.1l.6,1.2h0l2.1,1.7.4.3.4.3c.9.7.8,1,1.8,1.2a2.8,2.8,0,0,0,2-.6l.2-.3h0Z"></path>
          <path class="cls-6" d="M275.7,622.1c-.9-3.1-2.8-7.9-5.2-10.6h.1s-9.2-10.8-20.3-7.2-15.5,12.6-13.5,15.7c.5.9,2.8,2.9,4.2,4.2h.4c3.2,2.1,9.3,3.1,12,4.4a4.6,4.6,0,0,0,2.1.7l2.4.7c5.3,1.5,5.2,2.9,10,2.2s8.2-5.5,8.2-5.5a7.8,7.8,0,0,0,.4-1.9h.1v-.2a3.5,3.5,0,0,0-.8-2.6"></path>
          <path class="cls-6" d="M203.6,585.4c-1.7,1.8-4.2,4.8-5.1,7.4h0s-3.9,10.1,2.6,16.2,14.1,5.8,15.5,3.3a35,35,0,0,0,1.3-4.4v-.2c.2-3-1.4-7.5-1.5-9.8a4,4,0,0,0-.3-1.7,16.4,16.4,0,0,1-.3-1.8c-1-4.1-.1-4.6-2.3-7.5s-6.7-3.5-6.7-3.5l-1.4.4h-.2a2.8,2.8,0,0,0-1.5,1.5"></path>
          <path class="cls-8" d="M204.1,661s2.9.7,4.4-1.2,1.2-3.9.5-4.3l-1.3-.2c-.8-.1-.8,1.9-.9,2Z"></path>
          <path class="cls-9" d="M201.5,659.4s2.5,2.1,3.5,1.5a20.2,20.2,0,0,1,2.2-1.3v-.7l-2.6-.8-1.6.5Z"></path>
          <path class="cls-10" d="M201.4,659c.1.3.3,1,1.1.7l1.4-.6.9-2.7c.2-.4.4-.5-.7-.1s-1.2.1-1.9.8a2.6,2.6,0,0,0-.8,1.9"></path>
          <path class="cls-11" d="M203.9,659.1a17,17,0,0,0,.4-1.9c.1-.9,0-1.1.8-1.2s2.3-.9,3-.6.7.2.7,1.2a3.4,3.4,0,0,1-1,2.4,2,2,0,0,1-2.1.9,5.1,5.1,0,0,1-1.8-.8"></path>
          <path class="cls-8" d="M174.7,644s6.6.4,8.9-4.6.7-9.2-1-9.6a14.1,14.1,0,0,0-2.8.1c-1.8.1-1,4.6-1,4.7Z"></path>
          <path class="cls-9" d="M168.2,641.8s6.3,3.6,8.2,1.7a55.2,55.2,0,0,1,4.2-3.9l-.4-1.4s-5.2-1.2-6.2-.7l-3.2,1.9Z"></path>
          <path class="cls-10" d="M167.7,641c.3.6,1.2,2,2.7,1.1a32.2,32.2,0,0,0,2.9-2s.5-5.4.7-6.4.6-1.3-1.6,0-2.7.9-4,2.7a6.6,6.6,0,0,0-.7,4.6"></path>
          <path class="cls-11" d="M173.3,640.1a27.1,27.1,0,0,0-.2-4.4c-.2-2-.4-2.4,1.2-3s4.6-3.1,6.4-2.9,1.7.2,2.1,2.4,0,3.4-1.1,5.8a4.3,4.3,0,0,1-4.2,2.9,10.5,10.5,0,0,1-4.2-.8"></path>
          <path class="cls-8" d="M147.2,665.5s5.1,3.9,9.7,1.2,5.7-7.1,4.5-8.4a13.6,13.6,0,0,0-2.3-1.4c-1.5-.9-3.3,3.1-3.4,3.2Z"></path>
          <path class="cls-9" d="M143.2,660.1s3.1,6.4,5.7,5.9,5.5-.8,5.5-.8l.5-1.4s-3.6-3.9-4.7-4l-3.6-.2Z"></path>
          <path class="cls-10" d="M143.2,659.2c-.1.6-.2,2.3,1.6,2.4a22.2,22.2,0,0,0,3.4-.1l4.1-4.7c.7-.7,1.2-.7-1.3-.9s-2.6-.7-4.7,0a6.4,6.4,0,0,0-3.1,3.3"></path>
          <path class="cls-11" d="M148.2,661.5a22.6,22.6,0,0,0,2.3-3.6c.9-1.7,1-2.2,2.6-1.8s5.5,0,6.7,1.2,1.3,1.1.5,3.1-1.9,2.8-4.1,4-3.5,1-5,.1a11.2,11.2,0,0,1-3-3"></path>
          <path class="cls-8" d="M135.3,647.7s2.7-4.2.3-7.5-5.8-3.8-6.7-2.9l-.9,1.9c-.6,1.2,2.6,2.3,2.6,2.4Z"></path>
          <path class="cls-9" d="M131.5,651.1s4.7-2.8,4.1-4.7-1-4.2-1-4.2l-1.1-.2s-2.7,2.9-2.7,3.8.1,2.4.1,2.8Z"></path>
          <path class="cls-10" d="M130.8,651.2c.5,0,1.8-.1,1.7-1.4a13.3,13.3,0,0,0-.3-2.6l-3.8-2.8c-.6-.5-.7-.9-.6,1s-.4,2.1.3,3.6a4.7,4.7,0,0,0,2.7,2.2"></path>
          <path class="cls-11" d="M132.2,647.2a20.9,20.9,0,0,0-2.9-1.5c-1.3-.6-1.7-.6-1.5-1.9s-.4-4.2.5-5.2.7-1,2.2-.6,2.3,1.3,3.4,2.9,1,2.6.4,3.8a8.5,8.5,0,0,1-2.1,2.5"></path>
          <path class="cls-8" d="M111.9,653.3s1.7-1.4,1.1-3.1-1.9-2.3-2.4-2l-.6.6.8,1.3Z"></path>
          <path class="cls-9" d="M109.9,654.2s2.3-.6,2.3-1.4a11.3,11.3,0,0,1,.2-1.9l-.5-.2-1.6,1.2-.3,1.2Z"></path>
          <path class="cls-10" d="M109.6,654.1l.9-.3.2-1.1-1.2-1.7c-.2-.3-.2-.4-.4.4s-.4.8-.3,1.5a2.1,2.1,0,0,0,.8,1.2"></path>
          <path class="cls-11" d="M110.7,652.7l-1-1-.4-1,.9-2.1h1a2.3,2.3,0,0,1,1,1.6,1.3,1.3,0,0,1-.3,1.6Z"></path>
          <path class="cls-8" d="M104.8,666.2s4.5-7.3.3-13.1-10-6.6-11.5-4.9a24.4,24.4,0,0,0-1.7,3.3c-1,2.1,4.6,4,4.7,4.1Z"></path>
          <path class="cls-9" d="M98.1,672.1s8.2-4.9,7.1-8.3-1.7-7.2-1.7-7.2l-1.9-.4s-4.7,5.2-4.7,6.7.2,4.2.2,4.8Z"></path>
          <path class="cls-10" d="M97,672.2c.8,0,3-.1,2.9-2.4a41.3,41.3,0,0,0-.5-4.6s-5.8-3.9-6.7-4.7-1.2-1.6-1,1.8-.7,3.6.6,6.2,4.7,3.7,4.7,3.7"></path>
          <path class="cls-11" d="M99.4,665.2a38.5,38.5,0,0,0-5.1-2.5c-2.3-1-3-1.1-2.7-3.2s-.6-7.2.8-9.1,1.3-1.7,4-.9,3.9,2.2,5.9,4.9,1.7,4.4.7,6.6a13.8,13.8,0,0,1-3.6,4.2"></path>
        </g>
        <g>
          <path class="cls-12" d="M159.7,521.9a20.5,20.5,0,0,1-1.3,9.3c-1.1,2.9-2.3,5.6-3.3,8.3l-2.4,8.5a76.9,76.9,0,0,1-2.8,8.5c-1.3,2.8-3.2,5.1-4.8,7.6a38.7,38.7,0,0,0-3.9,7.9,36.8,36.8,0,0,0-2,17.4,38.6,38.6,0,0,1,1.7-17.5,37.3,37.3,0,0,1,3.8-8.1c1.5-2.6,3.3-4.9,4.4-7.6a76.1,76.1,0,0,0,2.5-8.5l2.1-8.6c.8-2.9,2-5.7,2.6-8.5a20.7,20.7,0,0,0,.7-4.1,13.3,13.3,0,0,0-.5-4,1.5,1.5,0,0,1,1.1-2,1.6,1.6,0,0,1,2,1v.3Z"></path>
          <path class="cls-12" d="M158.5,523.7a54.3,54.3,0,0,1-1,16.1,10.5,10.5,0,0,1-1.5,3.9l-2.5,3.2c-1.7,2-3.4,4-5.3,5.9a48.6,48.6,0,0,1-6,5.2,54.3,54.3,0,0,1-6.8,4.2,75.8,75.8,0,0,0-6.8,4,13.1,13.1,0,0,0-5,5.9c.8-2.5,2.8-4.5,4.8-6.1s4.5-2.9,6.7-4.3a57.4,57.4,0,0,0,6.6-4.3,57.9,57.9,0,0,0,5.7-5.4,72.2,72.2,0,0,0,5-6,37.1,37.1,0,0,0,2.3-3.2,8.6,8.6,0,0,0,1.2-3.4,39.5,39.5,0,0,0,.9-7.7,49.2,49.2,0,0,0-.2-7.7h0a.9.9,0,0,1,.8-1.1,1,1,0,0,1,1.1.8Z"></path>
          <path class="cls-12" d="M158.5,523a179.6,179.6,0,0,0-8.4,24.7c-1.1,4.2-2.1,8.5-2.9,12.7s-1.4,8.7-2,13c.4-4.4.8-8.7,1.5-13s1.5-8.7,2.4-12.9a197.4,197.4,0,0,1,7.5-25.2,1,1,0,0,1,1.3-.6.9.9,0,0,1,.6,1.2Z"></path>
          <path class="cls-12" d="M157.6,522.9a64.3,64.3,0,0,1-.3,15.2c-.6,5-1.4,9.9-2.1,14.8l-1.1,7.4-1.2,7.4c-.4,2.5-.8,5-1.3,7.4a18.6,18.6,0,0,1-3,6.9,19.7,19.7,0,0,0,2.2-7c.4-2.5.6-5,.8-7.4l.7-7.5.8-7.5c.5-4.9,1-9.9,1.6-14.8a122.5,122.5,0,0,0,.9-14.8,1,1,0,0,1,1-.9A.9.9,0,0,1,157.6,522.9Z"></path>
          <path class="cls-12" d="M158.8,525a18.6,18.6,0,0,0-.1,4.1,27,27,0,0,0,.6,4.1,38.6,38.6,0,0,0,3,8c2.4,5.1,5.6,10,8.4,15.2a58.7,58.7,0,0,1,3.6,8.1,29.4,29.4,0,0,1,1.4,8.8c.2,5.9-1,11.7-.6,17.5-.8-5.8,0-11.7-.4-17.5s-2.6-11.1-5.5-16.1-6.3-9.7-8.9-15a37.3,37.3,0,0,1-3.2-8.4,34,34,0,0,1-.6-4.6,22.7,22.7,0,0,1,.3-4.5,1,1,0,0,1,2,.2Z"></path>
          <path class="cls-12" d="M159.5,522.6c.5,2.1,1.1,4.3,1.7,6.5l.9,3.2,1.2,3.2c1.6,4.1,3.8,8.2,5.1,12.8a42.4,42.4,0,0,1,1.1,7c.1,2.3.1,4.6.2,6.9a38.1,38.1,0,0,0,.7,6.7,18,18,0,0,0,2.7,6.2,17,17,0,0,1-3.4-6,39.1,39.1,0,0,1-1.4-6.8c-.5-4.6-.7-9.2-2.1-13.3s-3.8-8.1-5.7-12.3c-.5-1.1-1-2.2-1.4-3.3s-.8-2.2-1.1-3.3-1.4-4.4-2-6.7a1.8,1.8,0,0,1,3.5-.9h0Z"></path>
          <path class="cls-12" d="M159.4,527.7c-.1,3.5-.8,6.9-1.2,10.2a21.1,21.1,0,0,0-.2,2.5,20.1,20.1,0,0,0-.1,2.5,25.1,25.1,0,0,1-.4,2.7,8,8,0,0,1-1.3,2.4l-1.8,1.9a14.6,14.6,0,0,0-1.6,1.9,16.9,16.9,0,0,0-2.1,4.5,13.9,13.9,0,0,0,.9,9.8,14.4,14.4,0,0,1-1.4-10,16.3,16.3,0,0,1,2-4.7,19.1,19.1,0,0,1,1.5-2.1l1.7-1.9c2-2.6.8-6.2,1.3-9.7s.8-6.8.7-10h0a.9.9,0,0,1,.9-1,1.1,1.1,0,0,1,1.1.9Z"></path>
          <path class="cls-12" d="M159.7,526.9a30.6,30.6,0,0,1,4.7,6.8,20.3,20.3,0,0,1,2.2,7.9,18.5,18.5,0,0,0-2.8-7.5,33.8,33.8,0,0,0-5-6.3.7.7,0,0,1,0-.9c.3-.2.7-.3.9,0Z"></path>
          <g>
            <path class="cls-12" d="M157.8,523.4a25.7,25.7,0,0,0-2.3,7.6,35.6,35.6,0,0,0-.1,8,83.5,83.5,0,0,0,3.8,15.9,111,111,0,0,1,4.6,15.9,31.8,31.8,0,0,1-.6,16.5A32.1,32.1,0,0,0,163,571a125,125,0,0,0-5.1-15.7,73.8,73.8,0,0,1-4.4-16.1,26.9,26.9,0,0,1,0-8.5,22.4,22.4,0,0,1,2.6-8.2,1.1,1.1,0,0,1,1.3-.4A.9.9,0,0,1,157.8,523.4Z"></path>
            <path class="cls-12" d="M155.2,531.6a111.3,111.3,0,0,0,10.2,27.5c1.1,2.2,2.3,4.3,3.4,6.6a19.8,19.8,0,0,1,2,7.2c.2,2.5,0,4.9,0,7.4a26.1,26.1,0,0,0,.9,7.3,25.4,25.4,0,0,1-1.2-7.3c-.1-2.5,0-5-.2-7.4a19.2,19.2,0,0,0-2.2-6.9c-.5-1.1-1.2-2.1-1.8-3.2l-1.8-3.3c-4.6-8.7-8.6-17.9-10.8-27.6h0a.7.7,0,0,1,.6-.9.8.8,0,0,1,.9.6Z"></path>
            <path class="cls-12" d="M156.9,524.5a14.6,14.6,0,0,0,4.2,6.2,18.8,18.8,0,0,0,6.7,3.9c1.3.4,2.6.7,3.9,1.2a12.5,12.5,0,0,1,3.5,2.1,27.2,27.2,0,0,1,5.1,6.2,27,27,0,0,0-5.3-5.9,17,17,0,0,0-3.5-1.9l-3.9-1a19.7,19.7,0,0,1-7.2-3.7,15.3,15.3,0,0,1-4.9-6.6h0a.7.7,0,0,1,.4-1,.9.9,0,0,1,1,.5Z"></path>
          </g>
        </g>
        <polygon class="cls-13" points="0 474 159.2 540.5 304 479.1 159.2 428.1 0 474"></polygon>
        <g>
          <path class="cls-14" d="M176.9,234.8s8.7-104-.3-123.6S152.9,43.2,131.9,0c0,0,33.6,100.9,37,111.8s6,95.9,6.7,121.6C175.8,237.3,177,233.9,176.9,234.8Z"></path>
          <path class="cls-15" d="M174.1,232.3a23.6,23.6,0,0,1,.4,2.8c-.1,1.1-.1,1.3-.3,2.7l-1.1,5.5c-.6,2.9-1.3,6-2.4,10.3s-3.6,14.5-4.6,19-1.6,7.5-2.4,11.1-1.6,7.6-2.1,10.5c-1.4,7.7-2.5,14.1-3.7,21.5a1.8,1.8,0,0,0,1.5,2.2c1.2.3,1.9-.5,2.3-1.5h0c1-7.4,1.8-13.8,3.1-21.5.4-2.9,1.1-6.8,1.9-10.4s1.3-6.5,2.3-11,3.6-14.7,4.7-19,1.8-7.5,2.5-10.4.7-3.5,1.1-5.5a20.8,20.8,0,0,1,.8-2.6,8.2,8.2,0,0,1,1.2-2.3v-.2c.8-1.5,1-3.2-.5-4.3s-3-.9-4.3.4A3,3,0,0,0,174.1,232.3Z"></path>
          <path class="cls-16" d="M205.3,208.1s29.4,89.8,32.4,94.2c0,0-39.9-85.6-40.9-91.5s3.6-4,3.6-4Z"></path>
          <path class="cls-17" d="M157,324.5s18-37.8,36.1-117.8c0,0,1.2-2.3,4-1s8,1.2,8.4,2.7-3.3-2-5.5,6.8S163.7,320.1,160.2,325Z"></path>
          <path class="cls-18" d="M155.8,320.8c.2,1.6.8,2.6.8,4.4a43.6,43.6,0,0,1-.2,4.8c-.4,3.4-.6,5.5-1.2,10s-1.5,12.1-2.1,17.4c-1.7,14.1-3.1,27.7-4,42.2-.3,5.4-.6,13.5-.8,19.1s-.1,13.2,0,17.7c.3,12.3.3,22.3.7,33.9a2.4,2.4,0,0,0,2.5,2.8c1.6.2,2.1-1.3,2.5-2.6v-.2h0c-.6-11.7-1.1-21.8-1.5-34-.1-4.6-.3-12-.2-17.6s.4-13.6.7-19c.9-14.4,2.3-28,4.1-42.1l2.3-17.3c.6-4.4.8-6.5,1.3-9.9a39.3,39.3,0,0,1,.8-4.6,26,26,0,0,1,1.5-4.2,1.9,1.9,0,0,0,.3-1c.1-1,.5-4.8-1.6-5.5s-4.1-.8-5.5,1.4S155.5,319.3,155.8,320.8Z"></path>
        </g>
        <g>
          <g>
            <path class="cls-19" d="M161.9,478.8a1.8,1.8,0,0,0-1.7-.6c-1,.3-1.4,1.1-1.2,1.3s.2.3.4.4.7-.4.7-.4Z"></path>
            <path class="cls-9" d="M162.4,480s-.3-1.3-.8-1.3h-1l-.2.2a4.6,4.6,0,0,0,.7,1l.7.2Z"></path>
            <path class="cls-10" d="M162.4,480.2c0-.1.1-.4-.2-.5l-.6-.2-1,.7c-.1.1-.3.1.2.2s.5.3.9.2A1,1,0,0,0,162.4,480.2Z"></path>
            <path class="cls-11" d="M161.6,479.5a3.1,3.1,0,0,0-.6.6c-.3.3-.3.4-.6.2s-1-.2-1.2-.5-.2-.3.1-.6a2,2,0,0,1,.9-.6.8.8,0,0,1,.9.2A3.1,3.1,0,0,1,161.6,479.5Z"></path>
          </g>
          <g>
            <path class="cls-19" d="M137.1,469.8a2.7,2.7,0,0,0-2.7-.4c-1.3.8-1.6,2-1.3,2.3l.6.4c.4.3,1-.8,1-.8Z"></path>
            <path class="cls-9" d="M138.2,471.3s-.9-1.8-1.6-1.6l-1.5.2-.2.3a7.9,7.9,0,0,0,1.3,1.2h1Z"></path>
            <path class="cls-10" d="M138.2,471.6a.6.6,0,0,0-.5-.7h-.9l-1.2,1.3c-.2.2-.3.2.4.3s.7.2,1.3,0A1.8,1.8,0,0,0,138.2,471.6Z"></path>
            <path class="cls-11" d="M136.8,470.9l-.7,1c-.2.5-.3.6-.7.5s-1.5,0-1.9-.4-.3-.3-.1-.8a2.2,2.2,0,0,1,1.2-1.1,1.1,1.1,0,0,1,1.4,0A2.8,2.8,0,0,1,136.8,470.9Z"></path>
          </g>
          <g>
            <path class="cls-19" d="M154.6,466.2s-5.6-2.8-9.5.6-4.1,7.8-2.7,8.8l2.4,1c1.6.5,2.6-3.7,2.7-3.7Z"></path>
            <path class="cls-9" d="M159.4,470.6s-4.1-5.5-6.5-4.5l-5.1,1.7-.2,1.4s4.1,3.1,5.2,3l3.5-.5A26.8,26.8,0,0,0,159.4,470.6Z"></path>
            <path class="cls-10" d="M159.6,471.5c-.1-.6-.3-2.2-2-2a20.7,20.7,0,0,0-3.3.7s-2.4,4.4-3,5.2-1,.9,1.4.6,2.6.3,4.5-.8A6.6,6.6,0,0,0,159.6,471.5Z"></path>
            <path class="cls-11" d="M154.3,470.2a28.9,28.9,0,0,0-1.5,3.9c-.5,1.7-.5,2.2-2.1,2.1s-5.2,1-6.7.1-1.3-.8-.9-2.9,1.3-3,3.1-4.5,3.2-1.6,4.8-1A9.9,9.9,0,0,1,154.3,470.2Z"></path>
          </g>
          <g>
            <path class="cls-19" d="M176.1,468s-3.2-4.4-7.6-3.3-6.2,4.4-5.6,5.7l1.5,1.7c1.1,1.1,3.5-1.7,3.6-1.8Z"></path>
            <path class="cls-9" d="M178.1,473.3s-1-5.9-3.2-6.1a46.4,46.4,0,0,1-4.7-.7l-.7,1.1s2,3.9,2.8,4.3l2.9,1A19.7,19.7,0,0,0,178.1,473.3Z"></path>
            <path class="cls-10" d="M177.9,474a1.6,1.6,0,0,0-.8-2.3,14.3,14.3,0,0,0-2.8-.7s-3.6,2.4-4.4,2.8-1.1.3.9,1,1.9,1.3,3.8,1.1A5.5,5.5,0,0,0,177.9,474Z"></path>
            <path class="cls-11" d="M174.3,471a30.2,30.2,0,0,0-2.7,2.3c-1.1,1.2-1.3,1.6-2.5.9s-4.4-1.4-5.1-2.6-.8-1.2.3-2.6,2.2-1.8,4.3-2.3a3.9,3.9,0,0,1,4.1,1.1A9.7,9.7,0,0,1,174.3,471Z"></path>
          </g>
          <g>
            <path class="cls-19" d="M161.2,470.3s-4.7-3.6-8.8-1.2-5.2,6.4-4.2,7.5l2.1,1.4c1.4.8,3.1-2.9,3.2-2.9Z"></path>
            <path class="cls-9" d="M164.7,475.2s-2.8-5.8-5.1-5.4a42.4,42.4,0,0,1-5,.7l-.4,1.3s3.2,3.5,4.2,3.6l3.3.2A19.9,19.9,0,0,0,164.7,475.2Z"></path>
            <path class="cls-10" d="M164.7,476c.1-.6.2-2.1-1.4-2.2a18,18,0,0,0-3.1.1l-3.7,4.2c-.6.6-1.1.7,1.1.8s2.4.7,4.3,0A5.3,5.3,0,0,0,164.7,476Z"></path>
            <path class="cls-11" d="M160.2,473.9a18.5,18.5,0,0,0-2.1,3.2c-.8,1.6-.9,2-2.4,1.6s-4.9,0-6.1-1.1-1.1-1-.3-2.8,1.7-2.5,3.7-3.6,3.1-.9,4.5-.1A10.3,10.3,0,0,1,160.2,473.9Z"></path>
          </g>
          <g>
            <path class="cls-19" d="M185.2,478.4a2.9,2.9,0,0,0,2.6-1.3c.7-1.4.2-2.6-.3-2.7h-.7c-.6,0-.4,1.3-.4,1.3S185.2,478.4,185.2,478.4Z"></path>
            <path class="cls-9" d="M183.4,477.7s1.8,1.1,2.3.5l1.2-1v-.4a7.4,7.4,0,0,0-1.7-.3l-1,.6Z"></path>
            <path class="cls-10" d="M183.2,477.5c.1.2.4.6.8.3l.9-.5a14.1,14.1,0,0,1,.2-1.8c0-.3.2-.4-.5,0s-.7.2-1.1.7A2,2,0,0,0,183.2,477.5Z"></path>
            <path class="cls-11" d="M184.9,477.3a9.3,9.3,0,0,0-.1-1.3c0-.5-.1-.7.4-.8s1.3-.9,1.8-.8.5,0,.6.7a2,2,0,0,1-.4,1.6,1.2,1.2,0,0,1-1.2.8A2,2,0,0,1,184.9,477.3Z"></path>
          </g>
          <g>
            <path class="cls-19" d="M123.6,481.6a2.9,2.9,0,0,0,2.6-1.3c.7-1.4.2-2.6-.3-2.7h-.8c-.5,0-.3,1.3-.3,1.3S123.6,481.6,123.6,481.6Z"></path>
            <path class="cls-9" d="M121.8,480.9s1.8,1.1,2.3.6l1.2-1.1V480a7.4,7.4,0,0,0-1.8-.3l-.9.6Z"></path>
            <path class="cls-10" d="M121.6,480.7c.1.2.4.6.8.3l.8-.5s.2-1.5.3-1.8.2-.4-.5,0-.7.2-1.1.7A2,2,0,0,0,121.6,480.7Z"></path>
            <path class="cls-11" d="M123.2,480.5a5,5,0,0,0,0-1.3c0-.5-.1-.7.4-.8s1.3-.9,1.8-.8.5.1.6.7a2,2,0,0,1-.4,1.6,1.1,1.1,0,0,1-1.2.8A2.5,2.5,0,0,1,123.2,480.5Z"></path>
          </g>
          <g>
            <path class="cls-19" d="M141.2,479.4s2.4.3,3.4-1.4.5-3.3-.1-3.5h-1c-.6,0-.5,1.7-.5,1.7S141.2,479.4,141.2,479.4Z"></path>
            <path class="cls-9" d="M138.9,478.4s2.2,1.5,3,.8l1.6-1.2v-.6s-1.9-.6-2.2-.4l-1.3.6Z"></path>
            <path class="cls-10" d="M138.8,478.1c.1.2.3.7.9.5l1.1-.7s.4-1.9.5-2.2.3-.5-.6-.1-1,.2-1.5.9A2.5,2.5,0,0,0,138.8,478.1Z"></path>
            <path class="cls-11" d="M140.8,477.9a5.4,5.4,0,0,0,.1-1.6c0-.7-.1-.9.5-1s1.8-1,2.4-.9.6.2.7,1a2.7,2.7,0,0,1-.6,2,1.5,1.5,0,0,1-1.6.9A4.8,4.8,0,0,1,140.8,477.9Z"></path>
          </g>
          <g>
            <path class="cls-19" d="M154.1,476.9a2,2,0,0,1,2-.3c1.1.4,1.3,1.3,1.1,1.5l-.5.3c-.3.2-.7-.6-.8-.6Z"></path>
            <path class="cls-9" d="M153.3,478s.6-1.3,1.1-1.2h1.2v.2s-.7.8-.9.8h-1.5Z"></path>
            <path class="cls-10" d="M153.3,478.1c-.1-.1-.1-.4.3-.4h.7l.9.9c.2.1.3.1-.2.2s-.6.1-1,0A1,1,0,0,1,153.3,478.1Z"></path>
            <path class="cls-11" d="M154.3,477.6l.6.7c.2.3.2.4.5.3s1.2,0,1.5-.3.2-.2,0-.6a1.7,1.7,0,0,0-.9-.7,1.4,1.4,0,0,0-1.1,0A3.1,3.1,0,0,0,154.3,477.6Z"></path>
          </g>
          <g>
            <path class="cls-19" d="M172.9,471.6s-4.3-3.2-8.2-.9-4.6,6-3.6,7a22,22,0,0,0,1.9,1.2c1.3.8,2.8-2.7,2.9-2.7Z"></path>
            <path class="cls-9" d="M176.3,476.1s-2.7-5.4-4.8-4.9a38.6,38.6,0,0,1-4.7.7l-.3,1.2s3,3.2,3.9,3.3h3.1A17,17,0,0,0,176.3,476.1Z"></path>
            <path class="cls-10" d="M176.3,476.8c.1-.5.1-1.9-1.3-2h-2.9s-2.8,3.4-3.4,4-1,.6,1.1.7,2.2.6,4,0A5.4,5.4,0,0,0,176.3,476.8Z"></path>
            <path class="cls-11" d="M172.1,474.9a29.3,29.3,0,0,0-1.9,3.1c-.7,1.4-.8,1.8-2.2,1.5s-4.5,0-5.6-1-1.1-.8-.4-2.5,1.6-2.4,3.4-3.4a3.6,3.6,0,0,1,4.2-.2A9,9,0,0,1,172.1,474.9Z"></path>
          </g>
          <g>
            <path class="cls-19" d="M149.7,476.6s-3.5-.6-5.1,1.9-1.1,5-.2,5.3H146c1,.1.8-2.4.9-2.4S149.7,476.6,149.7,476.6Z"></path>
            <path class="cls-9" d="M153.1,478.3s-3.2-2.4-4.4-1.5-2.5,1.8-2.5,1.8v.8s2.8,1,3.4.8l1.8-.8A14.2,14.2,0,0,0,153.1,478.3Z"></path>
            <path class="cls-10" d="M153.3,478.7a1.1,1.1,0,0,0-1.4-.8,10,10,0,0,0-1.7,1s-.6,2.8-.8,3.3-.4.7.9.2,1.5-.3,2.3-1.2A4.1,4.1,0,0,0,153.3,478.7Z"></path>
            <path class="cls-11" d="M150.2,478.9a18.7,18.7,0,0,0-.2,2.4c0,1,.1,1.3-.9,1.5s-2.7,1.4-3.6,1.1-.9-.2-1-1.4a4.3,4.3,0,0,1,1-3.1,2.5,2.5,0,0,1,2.5-1.3A6.7,6.7,0,0,1,150.2,478.9Z"></path>
          </g>
        </g>
      </g>
    </g>
  </g>
</svg>
