<?xml version="1.0" encoding="UTF-8"?>
<svg xmlns="http://www.w3.org/2000/svg" viewBox="0 0 78.86 45.85">
  <defs>
    <style>.cls-1{fill:#402d22;}.cls-2{fill:#d2c9be;}</style>
  </defs>
  <g id="Слой_2" data-name="Слой 2">
    <g id="Слой_1-2" data-name="Слой 1">
      <path class="cls-1" d="M37.8,15.86c-1.33-3.26-5.49-4.63-9.29-3.07s-7.65,5.74-6.32,9,7.35,4.33,11.15,2.77S39.13,19.11,37.8,15.86Z"></path>
      <path class="cls-2" d="M37.13,21.34a8.08,8.08,0,0,1-4.49,3.31,11.46,11.46,0,0,1-5.61.16c-1.8-.4-3.7-1.27-4.51-2.92s0-3.64,1.14-5.06A12.88,12.88,0,0,1,28,13.34a8.06,8.06,0,0,1,5.43-.83,6,6,0,0,1,4.32,3.36A6,6,0,0,1,37.13,21.34Zm-3.6-9.14a8.56,8.56,0,0,0-5.78.59,13.43,13.43,0,0,0-4.56,3.67C22,18,21.1,20.17,22.08,22.1s3,2.7,4.87,3.1a11.83,11.83,0,0,0,5.79-.26,8.33,8.33,0,0,0,4.5-3.53,6.15,6.15,0,0,0,.59-5.57A6.2,6.2,0,0,0,33.53,12.2Z"></path>
      <path class="cls-1" d="M36,24.13c-1.33-3.25-5.49-4.63-9.29-3.07s-7.66,5.75-6.32,9,7.35,4.33,11.15,2.78S37.31,27.38,36,24.13Z"></path>
      <path class="cls-2" d="M35.31,29.62a8.06,8.06,0,0,1-4.49,3.3,11.46,11.46,0,0,1-5.61.17c-1.8-.41-3.7-1.28-4.52-2.93s0-3.63,1.15-5.05a12.76,12.76,0,0,1,4.36-3.49,8,8,0,0,1,5.43-.83A6,6,0,0,1,36,24.14,6.06,6.06,0,0,1,35.31,29.62Zm-3.6-9.15a8.51,8.51,0,0,0-5.78.6,13.43,13.43,0,0,0-4.56,3.67c-1.16,1.51-2.09,3.71-1.11,5.64s3,2.69,4.87,3.1a11.79,11.79,0,0,0,5.78-.27,8.27,8.27,0,0,0,4.51-3.53A6.13,6.13,0,0,0,36,24.12,6.21,6.21,0,0,0,31.71,20.47Z"></path>
      <path class="cls-1" d="M33.65,16.93c3.51,0,6.35-3.36,6.33-7.46S37.51.22,34,.23s-6.77,5.2-6.75,9.3S30.13,17,33.65,16.93Z"></path>
      <path class="cls-2" d="M28.81,14.26a8.11,8.11,0,0,1-1.38-5.4,11.53,11.53,0,0,1,1.95-5.27C30.43,2.07,32,.64,33.78.5s3.37,1.38,4.26,3a12.85,12.85,0,0,1,1.6,5.34,8.12,8.12,0,0,1-1.26,5.36,6,6,0,0,1-4.73,2.74A6.05,6.05,0,0,1,28.81,14.26Zm9.83.08a8.51,8.51,0,0,0,1.61-5.58,13.32,13.32,0,0,0-1.69-5.6C37.59,1.51,35.9-.17,33.75,0s-3.63,1.78-4.7,3.36a11.88,11.88,0,0,0-1.93,5.46,8.39,8.39,0,0,0,1.59,5.51,6,6,0,0,0,9.93,0Z"></path>
      <path class="cls-1" d="M24.77,18.47c-1.94-2.07-5.48-1.91-7.9.36s-4.11,6.55-2.17,8.62,6.8,1.15,9.22-1.12S26.72,20.54,24.77,18.47Z"></path>
      <path class="cls-2" d="M25.85,22.8a6.53,6.53,0,0,1-2.43,3.79,9.26,9.26,0,0,1-4.19,1.75A5.18,5.18,0,0,1,15,27.43c-1.11-1-1-2.75-.59-4.15a10.39,10.39,0,0,1,2.27-3.89,6.54,6.54,0,0,1,3.87-2.19,4.84,4.84,0,0,1,4.22,1.29A4.86,4.86,0,0,1,25.85,22.8Zm-5.36-5.86a6.81,6.81,0,0,0-4.18,2.12,10.73,10.73,0,0,0-2.39,4.08c-.44,1.48-.51,3.41.79,4.58a5.5,5.5,0,0,0,4.57.93,9.46,9.46,0,0,0,4.29-1.87,6.66,6.66,0,0,0,2.38-4,4.85,4.85,0,0,0-5.46-5.88Z"></path>
      <path class="cls-1" d="M39,29.55c-.8-3.22-4.62-5.35-8.55-4.77s-8.32,3.55-7.52,6.77,6.47,5.49,10.4,4.91S39.75,32.78,39,29.55Z"></path>
      <path class="cls-2" d="M37.46,34.36a7.48,7.48,0,0,1-4.86,2,12.27,12.27,0,0,1-5.48-1.06c-1.69-.75-3.4-1.94-3.94-3.61s.58-3.28,1.89-4.31a11.7,11.7,0,0,1,4.77-2.22,8.46,8.46,0,0,1,5.4.42,6.33,6.33,0,0,1,3.68,4A5.08,5.08,0,0,1,37.46,34.36Zm-2.09-9a9,9,0,0,0-5.71-.7,12.14,12.14,0,0,0-5,2.33c-1.36,1.12-2.6,2.9-2,4.85s2.51,3.08,4.26,3.85a12.76,12.76,0,0,0,5.66,1,7.67,7.67,0,0,0,4.92-2.21A5.18,5.18,0,0,0,39,29.55,6.51,6.51,0,0,0,35.37,25.33Z"></path>
      <path class="cls-1" d="M38.79,29.65c-.8-3.23-4.63-5.36-8.55-4.77s-8.32,3.54-7.52,6.76,6.47,5.49,10.4,4.91S39.58,32.87,38.79,29.65Z"></path>
      <path class="cls-2" d="M37.3,34.45a7.48,7.48,0,0,1-4.87,2A12.3,12.3,0,0,1,27,35.41c-1.68-.75-3.39-1.94-3.93-3.6s.57-3.28,1.89-4.32a11.72,11.72,0,0,1,4.76-2.22,8.49,8.49,0,0,1,5.41.42,6.35,6.35,0,0,1,3.68,4A5.1,5.1,0,0,1,37.3,34.45Zm-2.1-9a9,9,0,0,0-5.7-.7,12.24,12.24,0,0,0-5,2.33c-1.35,1.12-2.59,2.9-1.94,4.85s2.51,3.08,4.26,3.85a12.62,12.62,0,0,0,5.66,1,7.62,7.62,0,0,0,4.92-2.21,5.21,5.21,0,0,0,1.42-4.9A6.49,6.49,0,0,0,35.2,25.42Z"></path>
      <path class="cls-1" d="M22.39,32.43c.42-3.49-2.54-6.72-6.61-7.22S6.29,26.49,5.87,30s4.29,7.37,8.37,7.87S22,35.92,22.39,32.43Z"></path>
      <path class="cls-2" d="M19.13,36.89a8.13,8.13,0,0,1-5.54.69,11.48,11.48,0,0,1-5-2.6C7.24,33.75,6,32.06,6.1,30.23s1.79-3.17,3.47-3.85a12.66,12.66,0,0,1,5.51-.92,8,8,0,0,1,5.15,1.93,6,6,0,0,1,2.12,5A6,6,0,0,1,19.13,36.89Zm1.32-9.74a8.51,8.51,0,0,0-5.34-2.3,13.24,13.24,0,0,0-5.77,1C7.59,26.57,5.7,28,5.61,30.2S6.92,34,8.35,35.28a11.88,11.88,0,0,0,5.18,2.6A8.36,8.36,0,0,0,19.19,37a6,6,0,0,0,1.26-9.85Z"></path>
      <path class="cls-1" d="M44.86,25.38c3-.92,4.57-4.5,3.49-8S43.88,10.1,40.88,11s-4.46,6.18-3.39,9.68S41.86,26.29,44.86,25.38Z"></path>
      <path class="cls-2" d="M40,24.33a7.24,7.24,0,0,1-2.57-4.26,10.22,10.22,0,0,1,.32-5,5.72,5.72,0,0,1,3-3.77c1.55-.6,3.23.31,4.4,1.43a11.52,11.52,0,0,1,2.74,4.16,7.18,7.18,0,0,1,.29,4.9A5,5,0,0,1,40,24.33Zm8.43-2.45a7.62,7.62,0,0,0-.06-5.18,11.93,11.93,0,0,0-2.89-4.36c-1.24-1.15-3.12-2.16-4.92-1.45A6.11,6.11,0,0,0,37.45,15a10.53,10.53,0,0,0-.24,5.17A7.4,7.4,0,0,0,40,24.42a5.48,5.48,0,0,0,4.9,1A5.54,5.54,0,0,0,48.47,21.88Z"></path>
      <path class="cls-1" d="M60.93,29.15c2.08-2.83,1.08-7.1-2.24-9.52s-8.9-3.52-11-.69.14,8.53,3.46,11S58.86,32,60.93,29.15Z"></path>
      <path class="cls-2" d="M55.91,31.45a8.1,8.1,0,0,1-5.17-2.1,11.45,11.45,0,0,1-3.07-4.7c-.6-1.75-.85-3.82.13-5.37s3.11-1.89,4.91-1.67A12.68,12.68,0,0,1,58,19.5a8.05,8.05,0,0,1,3.55,4.2,6,6,0,0,1-.6,5.43A6.06,6.06,0,0,1,55.91,31.45Zm5.91-7.85A8.53,8.53,0,0,0,58.29,19a13.3,13.3,0,0,0-5.51-2c-1.9-.2-4.26.16-5.39,2s-.73,4-.1,5.77a11.82,11.82,0,0,0,3.25,4.8,8.36,8.36,0,0,0,5.37,2A6.16,6.16,0,0,0,61,29.17,6.23,6.23,0,0,0,61.82,23.6Z"></path>
      <path class="cls-1" d="M59.5,35.45c2.08-2.83,1.08-7.1-2.24-9.52s-8.9-3.52-11-.69.14,8.53,3.46,11S57.43,38.29,59.5,35.45Z"></path>
      <path class="cls-2" d="M54.48,37.75a8.1,8.1,0,0,1-5.17-2.1A11.45,11.45,0,0,1,46.24,31c-.6-1.75-.85-3.82.13-5.37s3.11-1.89,4.91-1.67a12.68,12.68,0,0,1,5.25,1.89A8.05,8.05,0,0,1,60.08,30a6,6,0,0,1-.6,5.43A6.06,6.06,0,0,1,54.48,37.75Zm5.91-7.85a8.48,8.48,0,0,0-3.53-4.61,13.3,13.3,0,0,0-5.51-2c-1.9-.2-4.26.16-5.39,2s-.73,4-.1,5.77a11.82,11.82,0,0,0,3.25,4.8,8.38,8.38,0,0,0,5.37,2,6.16,6.16,0,0,0,5.05-2.41A6.23,6.23,0,0,0,60.39,29.9Z"></path>
      <path class="cls-1" d="M66.25,36.6c2.12-2.8,1.18-7.08-2.09-9.56s-8.85-3.66-11-.85,0,8.53,3.29,11S64.13,39.41,66.25,36.6Z"></path>
      <path class="cls-2" d="M61.19,38.82a8.08,8.08,0,0,1-5.14-2.18,11.53,11.53,0,0,1-3-4.75c-.56-1.75-.78-3.83.22-5.37s3.14-1.84,4.94-1.58a12.66,12.66,0,0,1,5.22,2,8.09,8.09,0,0,1,3.48,4.26,6,6,0,0,1-.69,5.42A6.06,6.06,0,0,1,61.19,38.82Zm6-7.76a8.53,8.53,0,0,0-3.45-4.66,13.29,13.29,0,0,0-5.49-2.06c-1.89-.23-4.25.08-5.42,1.91s-.79,4-.18,5.77a11.74,11.74,0,0,0,3.17,4.85A8.31,8.31,0,0,0,61.18,39a6,6,0,0,0,6-7.89Z"></path>
      <path class="cls-1" d="M47.82,32c2-1.89,1.93-5.36-.28-7.76S41.15,20.15,39.1,22s-1.2,6.67,1,9.07S45.77,33.91,47.82,32Z"></path>
      <path class="cls-2" d="M43.56,33a6.4,6.4,0,0,1-3.7-2.42,9.12,9.12,0,0,1-1.68-4.14,5.09,5.09,0,0,1,.93-4.16c1-1.08,2.71-1,4.08-.54A10,10,0,0,1,47,24.05a6.4,6.4,0,0,1,2.12,3.82A4.43,4.43,0,0,1,43.56,33Zm5.81-5.2a6.82,6.82,0,0,0-2-4.14,10.58,10.58,0,0,0-4-2.38c-1.44-.45-3.33-.53-4.5.73a5.42,5.42,0,0,0-1,4.48,9.49,9.49,0,0,0,1.79,4.23,6.55,6.55,0,0,0,3.88,2.38,4.86,4.86,0,0,0,4.3-1.1A4.93,4.93,0,0,0,49.37,27.84Z"></path>
      <path class="cls-1" d="M38.82,32.41c2.9-.91,4.4-4.39,3.35-7.79s-4.39-7-7.29-6.13-4.29,6-3.24,9.41S35.91,33.31,38.82,32.41Z"></path>
      <path class="cls-2" d="M34.14,31.42a7,7,0,0,1-2.52-4.12,10,10,0,0,1,.28-4.86,5.55,5.55,0,0,1,2.87-3.67c1.5-.59,3.13.29,4.27,1.37a10.93,10.93,0,0,1,2.68,4A6.94,6.94,0,0,1,42,28.91a5.19,5.19,0,0,1-3.22,3.47A5.21,5.21,0,0,1,34.14,31.42ZM42.3,29a7.43,7.43,0,0,0-.08-5,11.59,11.59,0,0,0-2.83-4.21c-1.21-1.12-3-2.09-4.78-1.39a5.92,5.92,0,0,0-3,4,10.13,10.13,0,0,0-.21,5,7.16,7.16,0,0,0,2.7,4.16A5.21,5.21,0,0,0,42.3,29Z"></path>
      <path class="cls-1" d="M78.79,35.17c-.36-2.32-4-3.89-8.05-3.51s-8.95,2.45-8.59,4.77,5.84,4,9.92,3.62S79.16,37.49,78.79,35.17Z"></path>
      <path class="cls-2" d="M76.62,38.6A11,11,0,0,1,71.38,40,15.84,15.84,0,0,1,66,39.18c-1.62-.56-3.19-1.43-3.51-2.63s1-2.34,2.52-3.07a17,17,0,0,1,5.15-1.54,11.73,11.73,0,0,1,5.45.36c1.65.55,3,1.6,3.2,2.87S78.05,37.74,76.62,38.6Zm-.9-6.49A12.19,12.19,0,0,0,70,31.54a18.12,18.12,0,0,0-5.41,1.62c-1.53.78-3,2.05-2.64,3.46s2.12,2.23,3.8,2.79a16.54,16.54,0,0,0,5.63.79,11.09,11.09,0,0,0,5.31-1.54c1.45-.89,2.35-2.2,2.12-3.49S77.41,32.73,75.72,32.11Z"></path>
      <path class="cls-1" d="M52,39.5c.79-2.08-1.68-5.23-5.52-7s-9.19-2.67-10-.59,3.3,6.29,7.13,8.11S51.18,41.57,52,39.5Z"></path>
      <path class="cls-2" d="M48.37,41.16A12.36,12.36,0,0,1,43,39.57a18.18,18.18,0,0,1-4.47-3.49c-1.17-1.3-2.16-2.82-1.87-4s2-1.36,3.73-1.19a19.51,19.51,0,0,1,5.36,1.43,13.23,13.23,0,0,1,4.7,3.13c1.21,1.3,1.88,2.84,1.48,4S50.07,41.2,48.37,41.16Zm2.33-5.75A13.75,13.75,0,0,0,45.86,32a19.9,19.9,0,0,0-5.62-1.5c-1.75-.16-3.71.09-4,1.44s.82,2.92,2,4.25a18.83,18.83,0,0,0,4.66,3.57,12.36,12.36,0,0,0,5.5,1.51c1.72,0,3.16-.58,3.58-1.74S51.9,36.79,50.7,35.41Z"></path>
      <path class="cls-1" d="M42.88,37.06c-.37-2.32-4-3.89-8.05-3.51s-9,2.45-8.59,4.77,5.84,4,9.92,3.62S43.25,39.37,42.88,37.06Z"></path>
      <path class="cls-2" d="M40.7,40.49a11.06,11.06,0,0,1-5.23,1.39A16.19,16.19,0,0,1,30,41.06c-1.61-.56-3.18-1.43-3.5-2.62s1-2.35,2.52-3.08a17.25,17.25,0,0,1,5.15-1.53,11.61,11.61,0,0,1,5.45.36c1.65.54,3,1.6,3.2,2.87S42.14,39.62,40.7,40.49ZM39.81,34a12.19,12.19,0,0,0-5.71-.56,18,18,0,0,0-5.41,1.62c-1.53.78-3,2-2.64,3.45s2.12,2.23,3.8,2.8a16.54,16.54,0,0,0,5.63.78,11.08,11.08,0,0,0,5.31-1.53c1.44-.89,2.34-2.21,2.12-3.5S41.5,34.62,39.81,34Z"></path>
      <path class="cls-1" d="M53,36.11c-.06,2,2.3,3.74,5.25,3.93S65,39.1,65,37.12,61.39,33,58.44,32.86,53.06,34.12,53,36.11Z"></path>
      <path class="cls-2" d="M55,33.51A7,7,0,0,1,58.92,33a10.1,10.1,0,0,1,3.76,1.36c1.07.67,2.07,1.59,2.14,2.63s-1,1.84-2.21,2.26a11,11,0,0,1-3.87.65,7.28,7.28,0,0,1-3.82-1A3.49,3.49,0,0,1,53,36.11,3.17,3.17,0,0,1,55,33.51Zm-.23,5.54a7.52,7.52,0,0,0,4,1.18,11.39,11.39,0,0,0,4.06-.68c1.2-.47,2.44-1.34,2.35-2.56S64,34.86,62.84,34.17A10.53,10.53,0,0,0,59,32.82a7,7,0,0,0-4,.63,3.21,3.21,0,0,0-2,2.66A3.51,3.51,0,0,0,54.78,39.05Z"></path>
      <path class="cls-1" d="M41.6,38.83c-1.47.94-1.17,3,.66,4.59s5.15,2.93,6.62,2,.54-3.83-1.3-5.42S43.07,37.88,41.6,38.83Z"></path>
      <path class="cls-2" d="M44.82,38.57a6.66,6.66,0,0,1,3,1.73,6.19,6.19,0,0,1,1.52,2.57,2.19,2.19,0,0,1-.47,2.38c-.73.55-2,.36-3.11,0a10.81,10.81,0,0,1-3-1.65,4.81,4.81,0,0,1-1.85-2.42,2,2,0,0,1,.76-2.33A4.19,4.19,0,0,1,44.82,38.57Zm-4.17,2.6a4.84,4.84,0,0,0,1.81,2.6,11.25,11.25,0,0,0,3.21,1.72c1.13.38,2.59.59,3.42-.06a2.33,2.33,0,0,0,.48-2.56A6.51,6.51,0,0,0,48,40.23a7,7,0,0,0-3.12-1.71,4.16,4.16,0,0,0-3.24.3A2.1,2.1,0,0,0,40.65,41.17Z"></path>
      <path class="cls-1" d="M0,35.5c-.06,2,2.3,3.74,5.25,3.93S12,38.49,12,36.51s-3.61-4.08-6.56-4.27S.08,33.51,0,35.5Z"></path>
      <path class="cls-2" d="M2,32.9a7,7,0,0,1,3.91-.52A10.1,10.1,0,0,1,9.7,33.74c1.07.67,2.07,1.59,2.14,2.63s-1.05,1.83-2.21,2.26a11,11,0,0,1-3.87.65,7.28,7.28,0,0,1-3.82-1A3.51,3.51,0,0,1,.05,35.5,3.17,3.17,0,0,1,2,32.9ZM1.8,38.44a7.52,7.52,0,0,0,4,1.18,11.39,11.39,0,0,0,4.06-.68c1.2-.47,2.44-1.34,2.35-2.56S11,34.24,9.86,33.56A10.53,10.53,0,0,0,6,32.21a7,7,0,0,0-4,.63,3.21,3.21,0,0,0-2,2.65A3.52,3.52,0,0,0,1.8,38.44Z"></path>
      <path class="cls-1" d="M8.57,37.7c.09,1.87,2.7,3.41,5.83,3.43s7-1.23,6.91-3.1-4.11-3.65-7.24-3.67S8.48,35.83,8.57,37.7Z"></path>
      <path class="cls-2" d="M10.5,35.15a8.16,8.16,0,0,1,4.09-.69,11.55,11.55,0,0,1,4.06,1.08c1.18.57,2.31,1.39,2.46,2.37s-1,1.78-2.17,2.24a12.57,12.57,0,0,1-4,.81,8.51,8.51,0,0,1-4.11-.72,3.44,3.44,0,0,1-2.2-2.54A3,3,0,0,1,10.5,35.15Zm.15,5.23a8.78,8.78,0,0,0,4.29.9,13.06,13.06,0,0,0,4.25-.85c1.23-.5,2.48-1.38,2.29-2.53S20,36,18.81,35.37A11.93,11.93,0,0,0,14.6,34.3a8.21,8.21,0,0,0-4.16.79A3,3,0,0,0,8.55,37.7,3.39,3.39,0,0,0,10.65,40.38Z"></path>
      <path class="cls-1" d="M19,39.36c1.33,1.92,4.52,2.06,7.13.32s5-5.24,3.63-7.15-5.85-1.52-8.46.22S17.67,37.45,19,39.36Z"></path>
      <path class="cls-2" d="M18.89,35.6a6.83,6.83,0,0,1,2.92-3,9.68,9.68,0,0,1,4.09-1.15,4.41,4.41,0,0,1,3.62,1.1c.79,1,.39,2.42-.28,3.57a10.83,10.83,0,0,1-2.8,3.13,7,7,0,0,1-3.89,1.56A4,4,0,0,1,19,39.35,3.81,3.81,0,0,1,18.89,35.6ZM22.53,41a7.3,7.3,0,0,0,4.16-1.47,11.19,11.19,0,0,0,2.94-3.28c.68-1.22,1.12-2.85.19-4a4.71,4.71,0,0,0-3.9-1.16,10.21,10.21,0,0,0-4.21,1.25,7,7,0,0,0-2.91,3.18A3.87,3.87,0,0,0,19,39.38,4.08,4.08,0,0,0,22.53,41Z"></path>
      <path class="cls-1" d="M23.88,19.32c-.11,2.35,2.75,4.63,6.38,5.08s8.28-.59,8.39-2.95-4.36-5.12-8-5.58S24,17,23.88,19.32Z"></path>
      <path class="cls-2" d="M26.41,16.38a8.81,8.81,0,0,1,4.83-.31A13.23,13.23,0,0,1,35.84,18c1.31.88,2.52,2.06,2.58,3.3s-1.33,2.1-2.77,2.51a13.49,13.49,0,0,1-4.79.47,9.52,9.52,0,0,1-4.69-1.46,4.43,4.43,0,0,1-2.27-3.48A3.59,3.59,0,0,1,26.41,16.38ZM26,23a10.08,10.08,0,0,0,4.89,1.71,14.42,14.42,0,0,0,5-.49c1.48-.46,3-1.4,3-2.87s-1.45-2.63-2.81-3.53a13.75,13.75,0,0,0-4.78-1.91,8.87,8.87,0,0,0-4.92.43,3.6,3.6,0,0,0-2.5,3A4.38,4.38,0,0,0,26,23Z"></path>
    </g>
  </g>
</svg>
