<?xml version="1.0" encoding="UTF-8"?>
<svg xmlns="http://www.w3.org/2000/svg" xmlns:xlink="http://www.w3.org/1999/xlink" viewBox="0 0 78.83 79.94">
  <defs>
    <style>.cls-1{fill:#a5a5a5;}.cls-2{fill:#a29274;}.cls-3{fill:#bda885;}.cls-4{fill:#8f8267;}.cls-5{fill:#ab967a;opacity:0.25;}.cls-6{fill:#9b8d71;}.cls-7{fill:#7c705b;}.cls-8{fill:#e3e0c9;}.cls-9{fill:#fcedce;}.cls-10{fill:#d0c5a6;}.cls-11{fill:#402d22;}.cls-12{fill:#d2c9be;}.cls-13{fill:#817870;}.cls-14{fill:url(#Безымянный_градиент_5);}</style>
    <linearGradient id="Безымянный_градиент_5" x1="49.04" y1="6.78" x2="69.34" y2="23.6" gradientTransform="translate(-0.45 37.91) rotate(-39.35)" gradientUnits="userSpaceOnUse">
      <stop offset="0" stop-color="#e6f5b2"></stop>
      <stop offset="1" stop-color="#559a3b"></stop>
    </linearGradient>
  </defs>
  <g id="Слой_2" data-name="Слой 2">
    <g id="Слой_1-2" data-name="Слой 1">
      <polygon class="cls-1" points="68.08 70.11 68.12 70.04 68.06 70.03 68.08 70.11"></polygon>
      <polygon class="cls-2" points="39.47 28.08 78.83 11.33 72.92 56.65 39.47 79.94 39.47 28.08"></polygon>
      <polygon class="cls-3" points="5.9 56.65 0 11.33 39.47 28.08 39.47 79.94 5.9 56.65"></polygon>
      <polygon class="cls-4" points="39.47 28.08 78.83 11.33 72.92 56.65 39.47 79.94 39.47 28.08"></polygon>
      <polygon class="cls-5" points="5.9 56.65 0 11.33 39.47 28.08 39.47 79.94 5.9 56.65"></polygon>
      <polygon class="cls-6" points="39.47 79.94 5.9 56.65 39.63 43.9 72.92 56.65 39.47 79.94"></polygon>
      <path class="cls-7" d="M13,36.72a12.18,12.18,0,0,1-1-6.57,10.85,10.85,0,0,1,2.91-6.07L16.22,23c.45-.35,1-.61,1.44-.92l.72-.44.78-.33,1.56-.64c1.08-.29,2.17-.58,3.25-.81s2.21-.27,3.32-.36c-1.08.27-2.16.5-3.23.75s-2.1.65-3.13,1a16.05,16.05,0,0,0-5.42,3.44,10.55,10.55,0,0,0-2.87,5.61c-.11.52-.14,1.07-.2,1.6s0,1.09,0,1.64A12.3,12.3,0,0,0,13,36.72Z"></path>
      <path class="cls-7" d="M49.71,36.1c.11.17.33.22.5.31l.56.24c.38.14.77.27,1.15.39.77.26,1.54.5,2.32.7,1.57.42,3.14.8,4.72,1.11s3.18.59,4.78.84,3.22.41,4.84.61a33.39,33.39,0,0,1-4.9,0,38.17,38.17,0,0,1-4.88-.67,34,34,0,0,1-4.74-1.31c-.77-.28-1.54-.58-2.28-.92-.37-.18-.74-.37-1.1-.57A2.85,2.85,0,0,1,49.71,36.1Z"></path>
      <path class="cls-7" d="M28.57,33.73a25.24,25.24,0,0,1-1,4.45A30.06,30.06,0,0,1,26,42.43a23.54,23.54,0,0,1-2.37,3.91,15,15,0,0,1-3.28,3.18A27.2,27.2,0,0,0,23.08,46c.78-1.27,1.51-2.57,2.16-3.91S26.46,39.36,27,38,28.08,35.17,28.57,33.73Z"></path>
      <path class="cls-7" d="M40.78,69.8c1.6-.8,3.27-1.4,4.89-2.11s3.23-1.42,4.78-2.24a30.37,30.37,0,0,0,4.45-2.77,12.72,12.72,0,0,0,3.51-3.86,10.32,10.32,0,0,1-3.11,4.34,22.75,22.75,0,0,1-4.47,3,39,39,0,0,1-4.94,2.1c-.84.29-1.69.56-2.54.81Z"></path>
      <path class="cls-7" d="M22.32,64.83a8.36,8.36,0,0,1-4.4-4.11,3.79,3.79,0,0,1,.26-3.17,7.37,7.37,0,0,1,2.14-2.3,20.38,20.38,0,0,1,5.45-2.7A41.88,41.88,0,0,1,31.59,51c-1.88.7-3.77,1.34-5.6,2.11A25,25,0,0,0,20.8,55.9a6.58,6.58,0,0,0-1.95,2,3.19,3.19,0,0,0-.34,2.61A5.9,5.9,0,0,0,20,62.92,13.12,13.12,0,0,0,22.32,64.83Z"></path>
      <path class="cls-7" d="M58.41,35.18c1-1.35,2-2.68,2.93-4s1.91-2.71,2.8-4.1a42.23,42.23,0,0,0,2.47-4.27,18.14,18.14,0,0,0,1-2.26L68,19.34c.07-.4.13-.81.21-1.22a10.61,10.61,0,0,1-1,4.92,26,26,0,0,1-2.37,4.45,42,42,0,0,1-3,4A38.07,38.07,0,0,1,58.41,35.18Z"></path>
      <polygon class="cls-1" points="38.03 53.76 38.07 53.69 38 53.69 38.03 53.76"></polygon>
      <polygon class="cls-8" points="39.47 0 78.83 11.33 39.47 28.08 0 11.33 39.47 0"></polygon>
      <polygon class="cls-9" points="39.47 0 0 11.33 0.69 11.62 78.46 11.22 39.47 0"></polygon>
      <path class="cls-10" d="M24.81,11.89a21.8,21.8,0,0,1,1.86-2,18.49,18.49,0,0,1,2.17-1.68,21.1,21.1,0,0,1,4.94-2.4A24.7,24.7,0,0,1,39.14,4.7c.91-.11,1.82-.1,2.73-.15s1.82.08,2.72.16c-.9.11-1.81.14-2.7.24s-1.79.18-2.67.36A36.72,36.72,0,0,0,34,6.58a28.16,28.16,0,0,0-4.86,2.17A26.44,26.44,0,0,0,24.81,11.89Z"></path>
      <path class="cls-11" d="M36.1,37c4.65.91,9.28-2.75,10.34-8.17S45.65,16,41,15.05,30.69,20.11,29.62,25.53,31.46,36.09,36.1,37Z"></path>
      <path class="cls-12" d="M36.11,37a7.5,7.5,0,0,0,3.79-.33,8.72,8.72,0,0,0,3.19-2,11.18,11.18,0,0,0,3.09-6.73,17.85,17.85,0,0,0-.7-7.48,10,10,0,0,0-1.75-3.27,4.9,4.9,0,0,0-3.08-1.77,6.24,6.24,0,0,0-3.57.69A12.31,12.31,0,0,0,34,18.25a15.49,15.49,0,0,0-4,6.44,10.89,10.89,0,0,0,.39,7.5,8.83,8.83,0,0,0,2.25,3.09A7.69,7.69,0,0,0,36.11,37Zm0,.08a8.46,8.46,0,0,1-5.83-4.79,11.16,11.16,0,0,1-.62-7.68,15.93,15.93,0,0,1,4-6.71,13,13,0,0,1,3.17-2.36,6.92,6.92,0,0,1,3.93-.81,5.59,5.59,0,0,1,3.54,1.93,10.7,10.7,0,0,1,2,3.49A17.48,17.48,0,0,1,47,28a11.18,11.18,0,0,1-3.61,6.94A8.58,8.58,0,0,1,36.1,37.05Z"></path>
      <polygon class="cls-9" points="0.69 11.62 39.47 28.08 78.83 11.33 78.46 11.22 0.69 11.62"></polygon>
      <ellipse class="cls-2" cx="40.71" cy="12.12" rx="9.09" ry="3.55"></ellipse>
      <ellipse class="cls-13" cx="40.95" cy="13.32" rx="7.49" ry="2.93"></ellipse>
      <path class="cls-14" d="M42.11,14.74s-3.67,2.48-3.51-1.37S49.7-2.36,59.8,15.62c0,0,3.57,7.42-4.42-2.48S43,14.27,42.11,14.74Z"></path>
    </g>
  </g>
</svg>
