<?xml version="1.0" encoding="UTF-8"?>
<svg xmlns="http://www.w3.org/2000/svg" viewBox="0 0 91.91 185.2">
  <defs>
    <style>.cls-1{fill:#85563a;}.cls-2{fill:#8e6848;}.cls-3{fill:#713e21;}.cls-4{fill:#9b714f;}.cls-5{fill:#3d271f;}.cls-6{fill:#69391e;}.cls-7{fill:#414040;}.cls-8{fill:#7db868;}.cls-9{fill:none;stroke:#7db868;stroke-linecap:round;stroke-linejoin:round;stroke-width:1.74px;}.cls-10{fill:#9bd674;}.cls-11{fill:#aee28c;}.cls-12{fill:#fff;}</style>
  </defs>
  <g id="Слой_2" data-name="Слой 2">
    <g id="Слой_1-2" data-name="Слой 1">
      <polygon class="cls-1" points="6.45 165.57 48.15 185.2 86.73 165.67 46.62 148.68 6.45 165.57"></polygon>
      <polygon class="cls-1" points="0 109.87 48.15 129.99 91.91 111.43 48.15 96 0 109.87"></polygon>
      <path class="cls-2" d="M48.15,130v25.27S61.46,145.44,66.86,145s15.94,20.23,19.87,20.72l5.18-54.24Z"></path>
      <path class="cls-3" d="M3.52,140l2.93,25.54,41.7,19.62V155.26s-23-9.82-25.48-13.26-19.15-2-19.15-2"></path>
      <path class="cls-4" d="M0,109.87,3.52,140s4.5.36,9.33.49c6.06.17,11.78,4.09,16.37,8.68,5.32,5.32,18.93,6,18.93,6V130Z"></path>
      <path class="cls-5" d="M32.09,158.46a1.88,1.88,0,0,0-.09-.74h0s-.32-.85-1.07-.86-1.19.41-1.14.65l.16.34h0l.63.52.11.09.13.09c.29.21.25.28.55.35a.91.91,0,0,0,.61-.16l.06-.1h0v-.19Z"></path>
      <path class="cls-5" d="M13.89,155a3.88,3.88,0,0,0-1.24.68h0a2.54,2.54,0,0,0-.77,2.48c.49,1.32,1.58,1.8,1.95,1.55l.49-.53v0a13.11,13.11,0,0,0,.48-1.47l.08-.27.07-.28c.16-.65.32-.64.22-1.22a1.75,1.75,0,0,0-.71-1l-.23,0h0Z"></path>
      <path class="cls-5" d="M43.29,172a9,9,0,0,0-1.59-3.19h0s-2.77-3.26-6.14-2.16-4.67,3.78-4.08,4.74a11.79,11.79,0,0,0,1.28,1.27h.11c1,.64,2.83,1,3.65,1.35a1.86,1.86,0,0,0,.64.22l.7.21c1.61.45,1.58.86,3,.66a4.31,4.31,0,0,0,2.49-1.67,3.11,3.11,0,0,0,.1-.58h0v-.06a1.08,1.08,0,0,0-.24-.8"></path>
      <path class="cls-5" d="M21.49,160.88a6.9,6.9,0,0,0-1.55,2.24h0s-1.17,3.06.8,4.92,4.26,1.74,4.69,1a11.46,11.46,0,0,0,.39-1.33l0-.07a22.89,22.89,0,0,0-.43-3,1.47,1.47,0,0,0-.1-.51l-.11-.55c-.29-1.25,0-1.38-.68-2.29a3.28,3.28,0,0,0-2-1l-.42.14h0l0,0a.8.8,0,0,0-.45.45"></path>
      <path class="cls-6" d="M48.15,155.26S57.53,142,68.33,141.68s21.44-8.19,21.44-8.19l-3,32.18L48.15,185.2Z"></path>
      <path class="cls-5" d="M61.91,160.31a9.22,9.22,0,0,0-3.36,1.1v0s-3.59,2.25-3,5.71,3.06,5.12,4.08,4.67a11.63,11.63,0,0,0,1.43-1.07l0-.1a29.92,29.92,0,0,0,1.85-3.39,1.75,1.75,0,0,0,.3-.6c.08-.17.17-.35.3-.66.68-1.51,1.08-1.43,1.09-2.88a4.29,4.29,0,0,0-1.29-2.68,3.41,3.41,0,0,0-.55-.19h-.05a1,1,0,0,0-.82.12"></path>
      <path class="cls-5" d="M79.63,159.27a2.8,2.8,0,0,0-1-.26h0a1.93,1.93,0,0,0-1.7,1c-.41,1,0,1.82.29,1.87l.54-.05,0,0a8.64,8.64,0,0,0,1-.57l.18-.11.18-.12c.42-.28.51-.2.75-.57a1.28,1.28,0,0,0,.1-.9l-.11-.14h0Z"></path>
      <path class="cls-5" d="M76.43,150a7.27,7.27,0,0,0-2.37-1.39h0s-3.16-.95-4.88,1.17-1.42,4.42-.64,4.79a9.93,9.93,0,0,0,1.36.28l.08,0a23.49,23.49,0,0,0,2.92-.67,1.33,1.33,0,0,0,.51-.13l.54-.16c1.24-.38,1.39-.1,2.24-.84a3.32,3.32,0,0,0,.91-2.13l-.17-.42h0l0,0a.84.84,0,0,0-.48-.42"></path>
      <ellipse class="cls-6" cx="46.47" cy="111.7" rx="23.55" ry="5.81"></ellipse>
      <ellipse class="cls-5" cx="46.47" cy="113.37" rx="19.64" ry="4.84"></ellipse>
      <path class="cls-7" d="M65.43,63.69a4,4,0,0,1-.45.92v0a4.05,4.05,0,0,0,.49-1.33l0,.46a2.1,2.1,0,0,0,.11-1.09c0-4.58-9.24-8.29-20.63-8.29S24.28,58,24.28,62.6a2.63,2.63,0,0,0,0,.49h0a2.2,2.2,0,0,0,.06.37v-.14A4,4,0,0,0,25,64.75a.25.25,0,0,1,0,.08,4.14,4.14,0,0,1-.62-1.37l3.87,32.33a2.56,2.56,0,0,0,.15,1c.79,2.81,4.84,5.15,10.35,6.19h0s.21.05.6.11h0l.37.06a35.06,35.06,0,0,0,5.45.41,29.51,29.51,0,0,0,11.89-2.24h0A9.92,9.92,0,0,0,61.41,98a5.48,5.48,0,0,0,.69-1ZM47,54.66h0Zm-.66,0c-.85,0-1.67,0-2.45,0l1.06,0C45.38,54.61,45.84,54.62,46.3,54.64Zm-21,6.68A5.84,5.84,0,0,0,25,62.63v0A3.37,3.37,0,0,1,25.28,61.32Z"></path>
      <path class="cls-8" d="M56.4,35.67a15.65,15.65,0,0,0-4.69-.24,6.79,6.79,0,0,0-4,1.61,5.15,5.15,0,0,0-1.26,4.05c0,.39.08.77.13,1.18l.17,1.28c.11.85.19,1.7.25,2.55a61,61,0,0,1-.28,10.21c-.16,1.68-.35,3.35-.41,5,0,.83,0,1.65,0,2.47l0,.61a4.16,4.16,0,0,0,.06.53l0-.05-.09-.13c0-.06-.45-.27-.72-.06s-.15.21-.18.25h0l0-.1,0-.29,0-.61c0-1.67,0-3.35,0-5s-.2-3.34-.25-5.06,0-3.42,0-5.06A15.67,15.67,0,0,0,44.36,44,11.64,11.64,0,0,0,42,40a12,12,0,0,0-3.81-2.75,17,17,0,0,0-4.6-1.33,19.56,19.56,0,0,0-4.76-.15h0a1.18,1.18,0,0,1-1.28-1,1.17,1.17,0,0,1,1.05-1.27h.09a25,25,0,0,1,5.3.5,19.1,19.1,0,0,1,5,1.74,14,14,0,0,1,4.22,3.28,13,13,0,0,1,2.51,4.69,18.74,18.74,0,0,1,.72,5.19c0,1.73-.08,3.36,0,5s.18,3.36.2,5,0,3.39,0,5.09l0,.65,0,.34a1,1,0,0,1,0,.22l0,.08c0,.07,0,.08-.22.32s-.79,0-.75-.07c-.13-.15-.08-.11-.11-.17a.78.78,0,0,1-.05-.12,4.7,4.7,0,0,1-.1-.72l-.05-.65c-.06-.86-.06-1.73,0-2.58,0-1.71.22-3.4.36-5.08a51.24,51.24,0,0,0,.11-10c-.08-.83-.18-1.65-.32-2.47l-.21-1.22c-.06-.42-.15-.88-.18-1.33a7.92,7.92,0,0,1,.18-2.77,6,6,0,0,1,1.37-2.57,8.53,8.53,0,0,1,5-2.41,19.45,19.45,0,0,1,5.39-.06,1.16,1.16,0,0,1-.28,2.31l-.09,0Z"></path>
      <path class="cls-9" d="M44.85,40.81c-1.53-4.62,9-12.78,9-12.78"></path>
      <path class="cls-8" d="M48.53,34.42s7.75-7.24,9.59-9.16a132.36,132.36,0,0,1,12.58-11c3.68-2.61,6.1-7.36,6.49-7.69s8.9-6.25,0-4.6S72.64-.77,65.76,1.65s-7.45,7.94-8.13,9.48S55,14.33,54.92,16s-.77,8.91-1.84,10.6S44.37,35.63,48.53,34.42Z"></path>
      <path class="cls-8" d="M54.73,33.5s1.84.68,4.45-2.91,9.39-9.51,13.75-4c.35.44,1.26,2.56-1.16,5s-1.65,4.26-1,5.13,4,4.67.77,8.13c-4.55,4.9-11-.16-13-5.22s-1.94-3.92-6-4.55S54.73,33.5,54.73,33.5Z"></path>
      <path class="cls-8" d="M34,34.27s-2.75-18-13.63-10.45c-1,.7-5.23,5.08-1.22,9,.53.51.65,1.1-.33,2.24C16,38.27,16.89,49.86,27.23,45.5,33.13,43,34,34.27,34,34.27Z"></path>
      <path class="cls-10" d="M42.67,33s-.7-2-4.24-3.27S35.85,27.6,35,26.58,32.84,25,32.46,24s0-1-2.61-2.35S28,19,27.43,17.72s-3.2-2.71-3.2-5.62.58-3.77,0-6.1-.39-4.59,2-5.1,1.36,1.28,3.39,0,2.13.61,3.2-.1,1.63-1.42,3.33.1.62,3.26,3,3.46,2.43,2,2.72,3.58,1.55,2.32,1.74,3.19-.6,5.89,1,5.37,1,.54.93,1.8-1.76,4.92-.93,5.7,2.19,2.33.54,4.46a8.66,8.66,0,0,0-1.63,5.87C43.59,36,42.67,33,42.67,33Z"></path>
      <path class="cls-8" d="M30.33,6.54a58.65,58.65,0,0,1,6,9.08,92.42,92.42,0,0,1,4.39,10c1.33,3.39,2.6,6.81,3.72,10.28.57,1.73,1.1,3.48,1.54,5.25a30,30,0,0,1,1,5.45.46.46,0,1,1-.92.07h0v0a30.14,30.14,0,0,0-.83-5.29c-.41-1.76-.9-3.51-1.42-5.25-1-3.47-2.24-6.9-3.49-10.31a90.24,90.24,0,0,0-4.17-10.06A57.91,57.91,0,0,0,30.33,6.54Z"></path>
      <path class="cls-8" d="M42.67,19.65a.72.72,0,0,1,.11.78,2.66,2.66,0,0,1-.4.72c-.33.45-.76.82-1.1,1.21a3.46,3.46,0,0,0-.7,1.36,2.47,2.47,0,0,0,.06,1.43v0a.29.29,0,0,1-.55.21v0a3.31,3.31,0,0,1,1-3.2c.41-.39.84-.69,1.2-1.1a2.46,2.46,0,0,0,.44-.66A.66.66,0,0,0,42.67,19.65Z"></path>
      <path class="cls-8" d="M35,22.46a2.91,2.91,0,0,0,1.24,1.46,2.71,2.71,0,0,0,1.86.23,2.4,2.4,0,0,1,2,.56,3.94,3.94,0,0,1,1.08,1.81.29.29,0,1,1-.56.16v0A3.38,3.38,0,0,0,39.77,25a2,2,0,0,0-1.66-.59,3,3,0,0,1-2-.39A3,3,0,0,1,35,22.46Z"></path>
      <path class="cls-8" d="M28.73,15.1A19.36,19.36,0,0,0,31,17a7.85,7.85,0,0,0,2.59,1.32,2,2,0,0,0,1.33-.1A2,2,0,0,1,36.49,18a4.17,4.17,0,0,1,2.2,2.17.29.29,0,1,1-.51.28v0a3.77,3.77,0,0,0-1.8-2,1.67,1.67,0,0,0-1.29.1,2.3,2.3,0,0,1-1.57.07,8.23,8.23,0,0,1-2.59-1.49A19.93,19.93,0,0,1,28.73,15.1Z"></path>
      <path class="cls-8" d="M39.62,11.13a3.7,3.7,0,0,1,.78,2.69,6.56,6.56,0,0,1-1,2.68l-.73,1.22a2,2,0,0,0-.37,1.22,12,12,0,0,0,.89,2.6h0a.29.29,0,1,1-.54.22v0A12.34,12.34,0,0,1,37.89,19a2.4,2.4,0,0,1,.5-1.43l.79-1.18a6.34,6.34,0,0,0,1.08-2.55A3.65,3.65,0,0,0,39.62,11.13Z"></path>
      <path class="cls-8" d="M36.14,6.54a3,3,0,0,1-.29,2,3.44,3.44,0,0,1-.58.83,2.61,2.61,0,0,0-.6.75,2.79,2.79,0,0,0,0,1.87,7.2,7.2,0,0,0,.79,1.77h0a.2.2,0,0,1-.07.29.21.21,0,0,1-.3-.07h0A7.42,7.42,0,0,1,34.32,12a3,3,0,0,1,.15-2,2.83,2.83,0,0,1,.68-.77,3.83,3.83,0,0,0,.61-.77A3,3,0,0,0,36.14,6.54Z"></path>
      <path class="cls-8" d="M28.73,10.18a2.19,2.19,0,0,0,2.14,1c.43,0,.81-.11,1.26-.12a2.26,2.26,0,0,1,1.24.35,5.9,5.9,0,0,1,1.8,1.82,12.82,12.82,0,0,1,1.22,2.25.22.22,0,0,1-.12.28.22.22,0,0,1-.29-.12h0a13,13,0,0,0-1.08-2.22,5.71,5.71,0,0,0-1.64-1.81,2.12,2.12,0,0,0-1.13-.38c-.4,0-.84.09-1.26.07A2.23,2.23,0,0,1,28.73,10.18Z"></path>
      <path class="cls-11" d="M73.41,11A15.86,15.86,0,0,1,72,12.44c-.49.46-1,.89-1.51,1.32-1,.86-2,1.73-3.09,2.56s-2.06,1.7-3.06,2.57-2,1.76-3,2.68c-1.89,1.87-3.72,3.83-5.6,5.73S52,31.07,50.11,33c-.92,1-1.83,1.94-2.67,3l-.12.14a5.09,5.09,0,0,0-1.58,1.32,0,0,0,0,0,0,0,.22.22,0,0,0,.35.25l0,0a3.59,3.59,0,0,1,.32-.38l-.18.26a5,5,0,0,0-.79,1.72c0,.15,0,.31-.06.47a3.78,3.78,0,0,0,0,.46c0,.32.06.65.1,1l.29,2c.2,1.33.41,2.65.59,4a46.86,46.86,0,0,1,.55,8c-.05,2.67-.27,5.37-.52,8v0a.22.22,0,0,1-.24.2.23.23,0,0,1-.19-.24c.24-2.7.45-5.33.49-8a47,47,0,0,0-.56-7.95c-.13-.86-.25-1.72-.39-2.57a12.57,12.57,0,0,1,.32,1.9v0a.22.22,0,0,0,.23.2.22.22,0,0,0,.2-.24,13.71,13.71,0,0,0-1.13-4.33L45,41.21c-.05-.33-.09-.66-.12-1a4.73,4.73,0,0,1,0-.54,4.88,4.88,0,0,1,.06-.52,5.54,5.54,0,0,1,.84-1.92c.38-.57.78-1.11,1.21-1.64.84-1,1.75-2,2.66-3,1.85-2,3.75-3.82,5.6-5.75,1.53-1.59,3-3.2,4.62-4.77q-.15.32-.33.63h0a.13.13,0,0,0,0,.18.15.15,0,0,0,.2,0,5.93,5.93,0,0,0,1-1.64s0-.08.05-.13l0,0c1-.93,2-1.83,3-2.69S66,16.69,67,15.88q.86-.68,1.74-1.32a.71.71,0,0,1-.1.14,2.94,2.94,0,0,1-1,.86h0a.16.16,0,0,0-.07.2.15.15,0,0,0,.19.07A3.7,3.7,0,0,0,69.59,14l.65-.47C71.3,12.68,72.4,11.91,73.41,11Z"></path>
      <path class="cls-11" d="M46.28,46.48a.22.22,0,0,1-.2.24.22.22,0,0,1-.23-.2v0a12.57,12.57,0,0,0-.32-1.9c-.07-.46-.14-.93-.22-1.39l-.16-1.06A13.71,13.71,0,0,1,46.28,46.48Z"></path>
      <path class="cls-11" d="M47.32,36.09c-.32.38-.61.77-.89,1.17a3.59,3.59,0,0,0-.32.38l0,0a.22.22,0,0,1-.35-.25,0,0,0,0,1,0,0A5.09,5.09,0,0,1,47.32,36.09Z"></path>
      <path class="cls-11" d="M60.85,21.08c0,.05,0,.09-.05.13a5.93,5.93,0,0,1-1,1.64.15.15,0,0,1-.2,0,.13.13,0,0,1,0-.18h0q.18-.32.33-.63C60.2,21.71,60.52,21.39,60.85,21.08Z"></path>
      <path class="cls-11" d="M69.59,14a3.7,3.7,0,0,1-1.85,1.89.15.15,0,0,1-.19-.07.16.16,0,0,1,.07-.2h0a2.94,2.94,0,0,0,1-.86.71.71,0,0,0,.1-.14Z"></path>
      <path class="cls-11" d="M71.57,5.23A17.65,17.65,0,0,0,70.84,8c-.17.94-.32,1.88-.42,2.83a9.09,9.09,0,0,1-.69,2.84,2.44,2.44,0,0,1-.14.28,3.7,3.7,0,0,1-1.85,1.89.15.15,0,0,1-.19-.07.16.16,0,0,1,.07-.2h0a2.94,2.94,0,0,0,1-.86.71.71,0,0,0,.1-.14,5.23,5.23,0,0,0,.61-1.05,10.38,10.38,0,0,0,.71-2.72A27.89,27.89,0,0,1,70.63,8,15.08,15.08,0,0,1,71.57,5.23Z"></path>
      <path class="cls-11" d="M63.59,10.46c0,.62,0,1.24-.05,1.88a8.6,8.6,0,0,1-.41,1.86,11.28,11.28,0,0,1-.81,1.72,8.26,8.26,0,0,0-.72,1.65,13.19,13.19,0,0,0-.26,1.8,7.78,7.78,0,0,1-.49,1.71c0,.05,0,.09-.05.13a5.93,5.93,0,0,1-1,1.64.15.15,0,0,1-.2,0,.13.13,0,0,1,0-.18h0q.18-.32.33-.63a9.65,9.65,0,0,0,.84-2.77c.06-.3.07-.58.12-.91a4,4,0,0,1,.21-1,8.1,8.1,0,0,1,.82-1.73,9.22,9.22,0,0,0,1.34-3.38c.09-.6.14-1.22.19-1.84l.07-.93,0-.46V8.82a.45.45,0,0,0,0-.11s0,0,0,0h0s0,0,0,.05a.35.35,0,0,1,0,.11c0,.08,0,.16,0,.24s0,.31,0,.47Z"></path>
      <path class="cls-11" d="M64.15,33.89c-.69,0-1.65-.12-2.3-.15l-2.32-.12c-.8,0-1.48,0-2.31,0s-1.68,0-2.57,0a13.06,13.06,0,0,0-5.28,1,6.36,6.36,0,0,0-1,.6,6.53,6.53,0,0,0-.91.74,7.77,7.77,0,0,0-1.1,1.41,4.58,4.58,0,0,0-.22.46c0,.1,0,0,0,.06a.24.24,0,0,1-.28.12c-.12,0-.14-.22-.12-.28s0,0,0,0c.55-.53.74-1.19,1.24-1.77a6.47,6.47,0,0,1,.52-.49,4.9,4.9,0,0,1,.74-.55,6.35,6.35,0,0,1,1.05-.57,13.56,13.56,0,0,1,5.39-.9c.9,0,1.76,0,2.6.07s1.5.05,2.31.11l2.31.16Z"></path>
      <path class="cls-11" d="M46.28,46.48a.22.22,0,0,1-.2.24.22.22,0,0,1-.23-.2v0a12.57,12.57,0,0,0-.32-1.9c-.11-.46-.25-.91-.4-1.35a13.3,13.3,0,0,0-1.46-3,13.64,13.64,0,0,0-4.86-4.54,11.84,11.84,0,0,0-3.15-1.17A15.67,15.67,0,0,0,34,34.27c-.56,0-1.13-.07-1.7-.15a25.93,25.93,0,0,1-6.51-2,27.26,27.26,0,0,0,6.54,1.8c.56.08,1.12.08,1.69.12a12.18,12.18,0,0,1,1.7.23A11.84,11.84,0,0,1,39,35.42,13.91,13.91,0,0,1,44,40a14.42,14.42,0,0,1,2.28,6.46Z"></path>
      <path class="cls-12" d="M47.08,78a2.84,2.84,0,0,0-.15-.94c-.09-.31-.21-.62-.33-.92v0a12,12,0,0,1-.88-2.27,12.16,12.16,0,0,1-.25-1.2,9.75,9.75,0,0,1-.14-1.25v-.09a25.67,25.67,0,0,0,.29-3.59A12.44,12.44,0,0,0,45.55,66a7.38,7.38,0,0,0-.12-.84,4,4,0,0,0-.2-.67l0-.05a.79.79,0,0,1,1.41-.71v0a4.71,4.71,0,0,1,.33,1.1,8.9,8.9,0,0,1,.14,1,15.86,15.86,0,0,1,0,1.95,24.61,24.61,0,0,1-.59,3.75v-.09a8.07,8.07,0,0,0,0,1.1,10.61,10.61,0,0,0,.11,1.12,13,13,0,0,0,.53,2.22v0a9.09,9.09,0,0,1,.18,1,3.15,3.15,0,0,1,0,1.06.12.12,0,0,1-.14.09.12.12,0,0,1-.09-.12Z"></path>
      <path class="cls-12" d="M45.61,64.68a.73.73,0,0,1-.36.48l-.45.36-.89.71a5.76,5.76,0,0,0-.77.79,2.24,2.24,0,0,0-.54.92v0a.1.1,0,0,1-.1.07.08.08,0,0,1-.06-.09,2.3,2.3,0,0,1,.44-1.12,6.48,6.48,0,0,1,.74-.92l.88-.77.42-.37a.74.74,0,0,1,.53-.27h0a.18.18,0,0,1,.17.18Z"></path>
      <path class="cls-12" d="M45.87,66.09a3.62,3.62,0,0,0-1.23.52,1.46,1.46,0,0,0-.44.41l-.26.62c-.18.43-.37.85-.58,1.27a5.5,5.5,0,0,1-.76,1.2.13.13,0,0,1-.18,0,.14.14,0,0,1,0-.18h0a3.76,3.76,0,0,0,.71-1.12c.19-.42.36-.84.52-1.27.09-.22.14-.41.24-.67a1.9,1.9,0,0,1,.53-.56c.38-.3.78-.54,1.18-.83a.33.33,0,0,1,.48.07.35.35,0,0,1-.21.55Z"></path>
      <path class="cls-12" d="M46,67.29c-.26.81-.66,1.55-1,2.34a13.81,13.81,0,0,0-.64,2.43,10.57,10.57,0,0,0-.17,2.51,10.11,10.11,0,0,0,.4,2.49h0a.11.11,0,0,1-.09.15.12.12,0,0,1-.15-.08,10.05,10.05,0,0,1-.57-2.54A12,12,0,0,1,44,72a14.45,14.45,0,0,1,.65-2.53,6.43,6.43,0,0,1,1.22-2.31.14.14,0,0,1,.18,0,.12.12,0,0,1,0,.14Z"></path>
      <path class="cls-12" d="M45.81,71.18a1.1,1.1,0,0,1-.41.51c-.16.15-.32.3-.47.46a8.79,8.79,0,0,0-.84,1,4.56,4.56,0,0,0-.94,2.35h0a.14.14,0,0,1-.14.12.14.14,0,0,1-.12-.12,4.31,4.31,0,0,1,.86-2.59,9.65,9.65,0,0,1,.84-1.07l.48-.49a1,1,0,0,1,.59-.36.15.15,0,0,1,.16.13v.06Z"></path>
      <path class="cls-12" d="M46.81,64.47c-.05-.07.06,0,.11.06l.24.11a3.35,3.35,0,0,0,.54.16c.36.1.76.12,1.17.27a3.19,3.19,0,0,1,1.77,1.67.13.13,0,0,1-.06.17.12.12,0,0,1-.16,0h0a2.85,2.85,0,0,0-1.66-1.41c-.34-.1-.74-.11-1.15-.19a4.34,4.34,0,0,1-.6-.14L46.69,65a.81.81,0,0,1-.35-.28.25.25,0,0,1,.11-.35A.27.27,0,0,1,46.81,64.47Z"></path>
      <path class="cls-12" d="M46.66,65.53a1,1,0,0,1,.84.12,2.69,2.69,0,0,1,.6.45,7.48,7.48,0,0,1,.9,1.12,6.8,6.8,0,0,0-1-1,2.46,2.46,0,0,0-.59-.33.76.76,0,0,0-.54,0h0a.19.19,0,0,1-.2-.32Z"></path>
      <path class="cls-12" d="M46.77,67a2.07,2.07,0,0,1,1.41,1,3.81,3.81,0,0,1,.51,1.58c.06.55.07,1.05.12,1.58,0,.26,0,.52.09.77s0,.26.07.38,0,.12.05.18l0,.08s.09,0,0,0a.13.13,0,0,1,0,.26c-.15,0-.1-.06-.14-.09s0,0,0-.06l0-.1a1.59,1.59,0,0,1-.07-.2l-.09-.4c0-.26-.09-.52-.12-.79-.08-.52-.11-1.06-.19-1.56a3.32,3.32,0,0,0-.5-1.39,1.63,1.63,0,0,0-1.08-.76h0a.24.24,0,0,1-.22-.28.25.25,0,0,1,.28-.21Z"></path>
      <path class="cls-12" d="M48.42,68.8a4.3,4.3,0,0,1,1.37,1.13,5.24,5.24,0,0,1,.86,1.53.13.13,0,0,1-.08.16.12.12,0,0,1-.16-.08,5.3,5.3,0,0,0-.83-1.44,4.25,4.25,0,0,0-1.28-1h0a.16.16,0,0,1-.07-.2.15.15,0,0,1,.2-.06Z"></path>
      <path class="cls-12" d="M46.63,74a4.68,4.68,0,0,1,1.61,1,3,3,0,0,1,.88,1.69.12.12,0,0,1-.1.15.14.14,0,0,1-.15-.1A2.85,2.85,0,0,0,48,75.31a4.13,4.13,0,0,0-1.51-.92h0a.18.18,0,0,1-.11-.24.17.17,0,0,1,.23-.11Z"></path>
    </g>
  </g>
</svg>
