<?xml version="1.0" encoding="UTF-8"?>
<svg xmlns="http://www.w3.org/2000/svg" xmlns:xlink="http://www.w3.org/1999/xlink" viewBox="0 0 101.86 121.53">
  <defs>
    <style>.cls-1{fill:#63411e;}.cls-2{fill:#956d4b;}.cls-3{fill:#44281c;}.cls-4{fill:#714d31;}.cls-5{fill:#613922;}.cls-6{fill:#7f5637;}.cls-7{fill:#a07850;}.cls-8{fill:url(#Безымянный_градиент_26);}.cls-9{fill:url(#Безымянный_градиент_7);}.cls-10{fill:#d7b389;}</style>
    <radialGradient id="Безымянный_градиент_26" cx="47.79" cy="103.44" r="54.35" gradientTransform="translate(96.49 160.17) rotate(179.09) scale(1 0.56)" gradientUnits="userSpaceOnUse">
      <stop offset="0.02" stop-color="#a07450"></stop>
      <stop offset="0.27" stop-color="#9a6d4a"></stop>
      <stop offset="0.62" stop-color="#8a5b39"></stop>
      <stop offset="1" stop-color="#72401f"></stop>
    </radialGradient>
    <linearGradient id="Безымянный_градиент_7" x1="33.91" y1="215.37" x2="55.06" y2="79.92" gradientUnits="userSpaceOnUse">
      <stop offset="0.38" stop-color="#a17551"></stop>
      <stop offset="0.91" stop-color="#794826"></stop>
      <stop offset="1" stop-color="#72401f"></stop>
    </linearGradient>
  </defs>
  <g id="Слой_2" data-name="Слой 2">
    <g id="Слой_1-2" data-name="Слой 1">
      <path class="cls-1" d="M3.09,36.55,100,38.12S102.31,20.84,101.4,18C100.08,13.76,91.3,1.7,54.64.8S3.2,11.76,1.15,17.59,3.09,36.55,3.09,36.55Z"></path>
      <polygon class="cls-2" points="8.29 76.71 3.09 41.73 98.7 41.73 95 76.46 8.29 76.71"></polygon>
      <path class="cls-3" d="M39.12,71.67a7.6,7.6,0,0,0-2.47-1.45h0s-3.28-1-5.07,1.22-1.48,4.6-.67,5a8.87,8.87,0,0,0,1.41.3s.05,0,.09,0a24.11,24.11,0,0,0,3-.69,1.37,1.37,0,0,0,.52-.14l.57-.16c1.28-.4,1.44-.11,2.33-.88a3.5,3.5,0,0,0,.95-2.22,2.68,2.68,0,0,0-.18-.43h0l0,0A.87.87,0,0,0,39.12,71.67Z"></path>
      <path class="cls-3" d="M21.5,74.56A9.4,9.4,0,0,0,18,75.71v0S14.28,78,14.89,81.63s3.18,5.32,4.24,4.86a13.38,13.38,0,0,0,1.49-1.11s0-.08,0-.11c.79-.92,1.38-2.75,1.91-3.53a1.77,1.77,0,0,0,.31-.62c.09-.17.18-.37.33-.68.7-1.58,1.11-1.49,1.12-3A4.41,4.41,0,0,0,23,74.65a3.63,3.63,0,0,0-.57-.2h-.06A1.11,1.11,0,0,0,21.5,74.56Z"></path>
      <path class="cls-3" d="M37.29,80.9a3,3,0,0,0-1.09-.27h0a2,2,0,0,0-1.77,1c-.43,1,0,1.89.3,1.95a4.42,4.42,0,0,0,.56,0s0,0,0,0a9.52,9.52,0,0,0,1.07-.59l.18-.11.19-.13c.44-.29.53-.2.78-.59a1.36,1.36,0,0,0,.11-.94L37.54,81h0A.36.36,0,0,0,37.29,80.9Z"></path>
      <path class="cls-3" d="M78.17,72.53a1.88,1.88,0,0,0-.1-.77h0s-.33-.88-1.1-.9-1.24.44-1.19.68a2.18,2.18,0,0,0,.17.36h0a7.12,7.12,0,0,0,.65.54.29.29,0,0,0,.12.09l.13.1c.3.21.26.29.57.36a1,1,0,0,0,.64-.16l.06-.11h0v0A.27.27,0,0,0,78.17,72.53Z"></path>
      <path class="cls-3" d="M89.82,86.58a9.53,9.53,0,0,0-1.65-3.31h0S85.32,79.87,81.81,81,77,85,77.57,85.94a12.48,12.48,0,0,0,1.32,1.32s.09,0,.12,0c1,.66,2.94,1,3.79,1.4a2,2,0,0,0,.67.22c.19.06.39.13.73.22,1.68.48,1.65.9,3.16.69A4.45,4.45,0,0,0,90,88.07a2.59,2.59,0,0,0,.11-.59h0l0-.07A1.09,1.09,0,0,0,89.82,86.58Z"></path>
      <path class="cls-3" d="M67.15,75.05a7.06,7.06,0,0,0-1.62,2.33h0s-1.21,3.18.84,5.12,4.44,1.81,4.88,1a10.62,10.62,0,0,0,.4-1.38s0,0,0-.08A24.68,24.68,0,0,0,71.14,79a1.38,1.38,0,0,0-.1-.53c0-.15-.06-.31-.12-.57-.3-1.3,0-1.44-.7-2.38a3.43,3.43,0,0,0-2.12-1.1,2.55,2.55,0,0,0-.44.15h0l0,0A.84.84,0,0,0,67.15,75.05Z"></path>
      <path class="cls-4" d="M67.31,98.82a1.36,1.36,0,0,0,1.36-.36c.47-.61.37-1.25.15-1.34a2.25,2.25,0,0,0-.38-.08c-.26,0-.28.6-.29.61Z"></path>
      <path class="cls-5" d="M66.49,98.32s.76.68,1.07.47.7-.4.7-.4l0-.21s-.68-.32-.83-.27-.43.15-.5.16A2.9,2.9,0,0,0,66.49,98.32Z"></path>
      <path class="cls-6" d="M66.44,98.2c0,.09.11.31.34.23a3.23,3.23,0,0,0,.46-.2s.23-.71.28-.84.13-.16-.21,0-.39,0-.63.26A1,1,0,0,0,66.44,98.2Z"></path>
      <path class="cls-7" d="M67.24,98.23a3.81,3.81,0,0,0,.11-.6c0-.27,0-.34.25-.37s.72-.29,1-.2.22.08.22.38a1.11,1.11,0,0,1-.33.76.63.63,0,0,1-.66.28A1.66,1.66,0,0,1,67.24,98.23Z"></path>
      <path class="cls-4" d="M58,93.5s2.08.11,2.82-1.45.22-2.92-.31-3a5.61,5.61,0,0,0-.88,0c-.57,0-.32,1.45-.34,1.48S58,93.5,58,93.5Z"></path>
      <path class="cls-5" d="M56,92.78s2,1.15,2.59.54,1.34-1.22,1.34-1.22l-.14-.45a6.4,6.4,0,0,0-2-.21c-.32.17-.86.54-1,.6A7.94,7.94,0,0,0,56,92.78Z"></path>
      <path class="cls-6" d="M55.83,92.55c.1.18.38.63.86.35a7.72,7.72,0,0,0,.91-.66s.16-1.68.22-2,.2-.42-.5,0-.84.27-1.25.85A2.06,2.06,0,0,0,55.83,92.55Z"></path>
      <path class="cls-7" d="M57.6,92.24a10.82,10.82,0,0,0,0-1.38c-.08-.6-.14-.75.36-.94s1.46-1,2-.89.52.06.67.73a2.46,2.46,0,0,1-.36,1.82,1.41,1.41,0,0,1-1.32.94A3.61,3.61,0,0,1,57.6,92.24Z"></path>
      <path class="cls-4" d="M49.38,100.25a3,3,0,0,0,3.08.37c1.45-.86,1.77-2.24,1.4-2.62a5.38,5.38,0,0,0-.72-.46c-.48-.29-1,1-1.09,1S49.38,100.25,49.38,100.25Z"></path>
      <path class="cls-5" d="M48.12,98.55s1,2,1.81,1.85,1.74-.25,1.74-.25l.14-.44s-1.13-1.22-1.48-1.25-1,0-1.14-.07A9.21,9.21,0,0,0,48.12,98.55Z"></path>
      <path class="cls-6" d="M48.12,98.27c0,.2,0,.72.51.75a7.54,7.54,0,0,0,1.09,0s1.05-1.27,1.27-1.48.39-.23-.41-.28-.82-.24-1.47,0A2,2,0,0,0,48.12,98.27Z"></path>
      <path class="cls-7" d="M49.72,99a7.89,7.89,0,0,0,.72-1.14c.27-.53.31-.68.81-.56s1.72,0,2.12.39.39.33.14,1a2.42,2.42,0,0,1-1.29,1.27,1.33,1.33,0,0,1-1.57,0A3.52,3.52,0,0,1,49.72,99Z"></path>
      <path class="cls-4" d="M45.66,94.66a2.32,2.32,0,0,0,.08-2.37c-.75-1.05-1.83-1.21-2.09-.9a3.31,3.31,0,0,0-.31.58c-.18.39.83.74.84.76S45.66,94.66,45.66,94.66Z"></path>
      <path class="cls-5" d="M44.45,95.73s1.48-.89,1.29-1.5-.31-1.31-.31-1.31l-.34-.08s-.85.94-.86,1.21,0,.76,0,.88A6.36,6.36,0,0,0,44.45,95.73Z"></path>
      <path class="cls-6" d="M44.23,95.75c.16,0,.56,0,.54-.44a5.88,5.88,0,0,0-.09-.83s-1-.71-1.21-.87-.21-.28-.19.33-.13.64.1,1.13A1.58,1.58,0,0,0,44.23,95.75Z"></path>
      <path class="cls-7" d="M44.68,94.48a7.15,7.15,0,0,0-.92-.47c-.42-.17-.54-.19-.48-.58s-.11-1.31.15-1.65.23-.32.73-.17a1.85,1.85,0,0,1,1.05.9,1,1,0,0,1,.13,1.2A2.53,2.53,0,0,1,44.68,94.48Z"></path>
      <path class="cls-4" d="M38.3,96.4a1,1,0,0,0,.34-1c-.17-.53-.6-.73-.75-.64a2.12,2.12,0,0,0-.2.21c-.13.13.25.41.25.42S38.3,96.4,38.3,96.4Z"></path>
      <path class="cls-5" d="M37.67,96.69s.72-.18.72-.45,0-.59,0-.59l-.13-.07s-.47.28-.51.39-.08.32-.1.37A2.3,2.3,0,0,0,37.67,96.69Z"></path>
      <path class="cls-6" d="M37.57,96.67c.07,0,.24.07.28-.11a2.34,2.34,0,0,0,.07-.35s-.34-.43-.39-.52-.05-.14-.12.11-.13.25-.1.48A.66.66,0,0,0,37.57,96.67Z"></path>
      <path class="cls-7" d="M37.92,96.21a2.85,2.85,0,0,0-.32-.32c-.15-.12-.2-.14-.12-.3s.12-.56.27-.66.13-.1.32,0a.8.8,0,0,1,.32.51.44.44,0,0,1-.1.51A1.14,1.14,0,0,1,37.92,96.21Z"></path>
      <path class="cls-4" d="M36.05,100.46s1.42-2.29.12-4.1S33,94.28,32.53,94.82a8.32,8.32,0,0,0-.52,1c-.32.67,1.45,1.27,1.47,1.31S36.05,100.46,36.05,100.46Z"></path>
      <path class="cls-5" d="M34,102.33s2.55-1.56,2.23-2.61-.55-2.27-.55-2.27l-.6-.13s-1.46,1.64-1.47,2.1.07,1.32.06,1.52A9.91,9.91,0,0,0,34,102.33Z"></path>
      <path class="cls-6" d="M33.59,102.37c.27,0,1,0,.94-.76a11.08,11.08,0,0,0-.17-1.45s-1.81-1.22-2.12-1.49-.35-.48-.32.57-.21,1.12.19,2A2.7,2.7,0,0,0,33.59,102.37Z"></path>
      <path class="cls-7" d="M34.36,100.16a12.66,12.66,0,0,0-1.6-.81c-.73-.28-.94-.31-.84-1s-.2-2.26.25-2.84.39-.56,1.25-.31a3.26,3.26,0,0,1,1.84,1.55,1.81,1.81,0,0,1,.24,2.07A4.62,4.62,0,0,1,34.36,100.16Z"></path>
      <path class="cls-8" d="M9.8,102.33,8.29,76.71s43-22.09,86.71-.25l-1.68,25.87Z"></path>
      <ellipse class="cls-9" cx="51.56" cy="102.33" rx="41.76" ry="19.2"></ellipse>
      <path class="cls-3" d="M23.64,62.61a7.55,7.55,0,0,0-2.46-1.45h0s-3.29-1-5.08,1.22-1.48,4.6-.67,5a10.68,10.68,0,0,0,1.42.3s.05,0,.08,0a25.53,25.53,0,0,0,3-.69,1.49,1.49,0,0,0,.53-.14l.56-.16c1.29-.4,1.45-.11,2.34-.89a3.43,3.43,0,0,0,.94-2.21,2,2,0,0,0-.18-.43h0l0,0A.84.84,0,0,0,23.64,62.61Z"></path>
      <path class="cls-3" d="M59.48,71.18a5,5,0,0,0-1.76.58h0s-1.88,1.18-1.57,3,1.6,2.68,2.13,2.45a6,6,0,0,0,.75-.56s0,0,0-.06a15.05,15.05,0,0,0,1-1.77.94.94,0,0,0,.16-.32c0-.09.09-.18.16-.34.36-.8.57-.75.57-1.52a2.26,2.26,0,0,0-.67-1.4l-.29-.1h0A.6.6,0,0,0,59.48,71.18Z"></path>
      <path class="cls-3" d="M32.06,76.35A3,3,0,0,0,31,76.08h0a2,2,0,0,0-1.77,1c-.43,1-.05,1.89.3,2a4.72,4.72,0,0,0,.57,0s0,0,0,0a10.24,10.24,0,0,0,1.07-.6.56.56,0,0,0,.18-.11l.2-.13c.43-.29.53-.2.77-.59a1.33,1.33,0,0,0,.11-.93.71.71,0,0,0-.12-.15h0A.34.34,0,0,0,32.06,76.35Z"></path>
      <path class="cls-3" d="M83.3,66a1.86,1.86,0,0,0-.1-.77h0s-.33-.88-1.11-.9-1.24.44-1.18.68a3.12,3.12,0,0,0,.16.35h0a5.14,5.14,0,0,0,.65.55.31.31,0,0,0,.12.09l.13.1c.29.21.26.29.57.35a.92.92,0,0,0,.64-.16.36.36,0,0,0,.06-.11h0A.28.28,0,0,0,83.3,66Z"></path>
      <path class="cls-3" d="M88.18,83.37a9.53,9.53,0,0,0-1.65-3.31h0s-2.87-3.39-6.38-2.25-4.86,3.94-4.24,4.93a11.6,11.6,0,0,0,1.32,1.32s.09,0,.12,0c1,.66,2.94,1,3.79,1.4a2,2,0,0,0,.67.22c.19.07.39.13.73.23,1.68.47,1.65.89,3.16.68a4.45,4.45,0,0,0,2.59-1.74,2.49,2.49,0,0,0,.11-.59h0l0-.07A1.09,1.09,0,0,0,88.18,83.37Z"></path>
      <path class="cls-3" d="M16.81,77.93a7.19,7.19,0,0,0-1.61,2.33h0S14,83.43,16,85.36s4.44,1.82,4.88,1A11.11,11.11,0,0,0,21.3,85s0,0,0-.08a24.77,24.77,0,0,0-.45-3.07,1.38,1.38,0,0,0-.1-.53c0-.15-.06-.31-.12-.57-.3-1.3,0-1.44-.7-2.38a3.43,3.43,0,0,0-2.12-1.1,2.29,2.29,0,0,0-.44.15h0l0,0A.9.9,0,0,0,16.81,77.93Z"></path>
      <ellipse class="cls-3" cx="52.7" cy="28.9" rx="47.8" ry="19.2"></ellipse>
      <path class="cls-4" d="M47.16,29.42a1.39,1.39,0,0,0-1.33-.49c-.74.23-1,.81-.9,1a1.71,1.71,0,0,0,.27.28c.18.18.57-.33.59-.33Z"></path>
      <path class="cls-5" d="M47.54,30.31s-.23-1-.61-1-.8-.07-.8-.07l-.11.19s.37.65.53.71l.5.15C47.11,30.29,47.54,30.31,47.54,30.31Z"></path>
      <path class="cls-6" d="M47.51,30.43c0-.08.1-.31-.14-.38a2.84,2.84,0,0,0-.49-.11s-.61.46-.73.53-.19.06.16.17.34.19.66.15A.94.94,0,0,0,47.51,30.43Z"></path>
      <path class="cls-7" d="M46.88,29.94a4.85,4.85,0,0,0-.45.44c-.17.2-.2.27-.42.16s-.76-.18-.9-.39-.14-.19,0-.45a1.14,1.14,0,0,1,.71-.43.63.63,0,0,1,.7.15A1.57,1.57,0,0,1,46.88,29.94Z"></path>
      <path class="cls-4" d="M44.13,12.36a2,2,0,0,0-2.06-.3c-1,.56-1.22,1.48-1,1.75a5.65,5.65,0,0,0,.48.32c.32.2.72-.66.74-.67S44.13,12.36,44.13,12.36Z"></path>
      <path class="cls-5" d="M45,13.52s-.63-1.38-1.18-1.27-1.18.14-1.18.14l-.09.3s.73.83,1,.86.66,0,.77.06A5.22,5.22,0,0,0,45,13.52Z"></path>
      <path class="cls-6" d="M45,13.71c0-.14,0-.49-.33-.52a6.16,6.16,0,0,0-.73,0s-.73.84-.88,1-.26.16.27.2.55.17,1,0A1.39,1.39,0,0,0,45,13.71Z"></path>
      <path class="cls-7" d="M43.89,13.2a5.47,5.47,0,0,0-.5.75c-.19.36-.22.46-.56.37s-1.15,0-1.41-.29-.26-.23-.08-.65.42-.58.88-.83a.89.89,0,0,1,1.06,0A2.35,2.35,0,0,1,43.89,13.2Z"></path>
      <path class="cls-4" d="M40.05,18.62s-4.25-2.12-7.21.47-3.12,5.91-2.1,6.63a13.24,13.24,0,0,0,1.86.74c1.22.45,2-2.74,2.06-2.78S40.05,18.62,40.05,18.62Z"></path>
      <path class="cls-5" d="M43.68,22s-3.15-4.22-5-3.48-3.89,1.34-3.89,1.34l-.12,1.07s3.1,2.3,3.92,2.23,2.3-.33,2.66-.34A17.85,17.85,0,0,0,43.68,22Z"></path>
      <path class="cls-6" d="M43.8,22.61c0-.46-.21-1.67-1.48-1.51a18.41,18.41,0,0,0-2.5.54S38,25,37.55,25.59s-.8.71,1.05.47,2,.19,3.39-.65A4.78,4.78,0,0,0,43.8,22.61Z"></path>
      <path class="cls-7" d="M39.82,21.64a22,22,0,0,0-1.17,2.93c-.38,1.34-.4,1.71-1.61,1.64s-3.95.72-5,0-1-.59-.73-2.14,1-2.28,2.41-3.48a3.14,3.14,0,0,1,3.59-.76A8.23,8.23,0,0,1,39.82,21.64Z"></path>
      <path class="cls-4" d="M54.74,19.51s-3.56-2.1-6.29,0-3.06,4.95-2.22,5.63a11.65,11.65,0,0,0,1.57.76c1,.47,1.89-2.26,2-2.3S54.74,19.51,54.74,19.51Z"></path>
      <path class="cls-5" d="M57.69,22.64s-2.49-3.85-4.09-3.32-3.46.93-3.46.93l-.17.92s2.56,2.19,3.27,2.17,2-.15,2.33-.13A16,16,0,0,0,57.69,22.64Z"></path>
      <path class="cls-6" d="M57.75,23.2c0-.4-.08-1.46-1.19-1.4a16,16,0,0,0-2.21.32s-1.81,2.81-2.21,3.29-.73.57.89.47,1.72.29,3-.36A4.13,4.13,0,0,0,57.75,23.2Z"></path>
      <path class="cls-7" d="M54.35,22.12a18.35,18.35,0,0,0-1.18,2.47c-.42,1.14-.45,1.46-1.51,1.33s-3.46.39-4.37-.28-.86-.57-.51-1.9a4.93,4.93,0,0,1,2.3-2.88,2.76,2.76,0,0,1,3.17-.44A7,7,0,0,1,54.35,22.12Z"></path>
      <path class="cls-4" d="M64.18,15.75s-3.52-2.71-6.71-.88-3.92,4.86-3.12,5.7a13.77,13.77,0,0,0,1.58,1c1,.64,2.31-2.15,2.38-2.18S64.18,15.75,64.18,15.75Z"></path>
      <path class="cls-5" d="M66.89,19.48S64.77,15,63,15.39s-3.81.52-3.81.52l-.31,1s2.43,2.68,3.2,2.76,2.16.11,2.49.17A17.51,17.51,0,0,0,66.89,19.48Z"></path>
      <path class="cls-6" d="M66.89,20.09c0-.44.11-1.58-1.09-1.66a18.26,18.26,0,0,0-2.39,0s-2.31,2.76-2.79,3.22-.86.5.88.61,1.79.54,3.23,0A4.46,4.46,0,0,0,66.89,20.09Z"></path>
      <path class="cls-7" d="M63.41,18.47A20,20,0,0,0,61.82,21c-.6,1.16-.68,1.49-1.78,1.21s-3.75-.05-4.62-.88-.85-.73-.29-2.1,1.34-1.9,2.84-2.75a3,3,0,0,1,3.43-.05A7.53,7.53,0,0,1,63.41,18.47Z"></path>
      <path class="cls-4" d="M66.9,27.11a2.11,2.11,0,0,0,1.95-1c.52-1.06.18-2-.18-2.08a4.31,4.31,0,0,0-.61,0c-.39,0-.23,1-.25,1S66.9,27.11,66.9,27.11Z"></path>
      <path class="cls-5" d="M65.51,26.6s1.36.8,1.77.39.93-.82.93-.82l-.09-.31a4.49,4.49,0,0,0-1.35-.17c-.22.12-.6.36-.7.4A6.23,6.23,0,0,0,65.51,26.6Z"></path>
      <path class="cls-6" d="M65.4,26.43a.41.41,0,0,0,.59.25,5.13,5.13,0,0,0,.63-.44s.12-1.15.17-1.36.14-.29-.34,0-.58.18-.87.58A1.42,1.42,0,0,0,65.4,26.43Z"></path>
      <path class="cls-7" d="M66.62,26.24a6.52,6.52,0,0,0,0-.95c0-.41-.08-.52.26-.64s1-.65,1.4-.59.35.05.45.51a1.73,1.73,0,0,1-.27,1.25,1,1,0,0,1-.91.62A2.35,2.35,0,0,1,66.62,26.24Z"></path>
      <path class="cls-4" d="M33.45,27.86A2.71,2.71,0,0,0,36,26.81c.77-1.31.41-2.53,0-2.67a5.26,5.26,0,0,0-.76,0c-.5,0-.39,1.24-.41,1.26S33.45,27.86,33.45,27.86Z"></path>
      <path class="cls-5" d="M31.72,27.09s1.66,1.15,2.23.66,1.25-1,1.25-1l-.09-.4a5.43,5.43,0,0,0-1.7-.33c-.29.13-.79.4-.92.45A5.82,5.82,0,0,0,31.72,27.09Z"></path>
      <path class="cls-6" d="M31.6,26.87c.07.17.28.58.72.37a8.35,8.35,0,0,0,.85-.5s.26-1.46.34-1.72.2-.35-.44,0-.75.18-1.16.65A1.85,1.85,0,0,0,31.6,26.87Z"></path>
      <path class="cls-7" d="M33.17,26.74a9.46,9.46,0,0,0,.06-1.21c0-.53-.07-.67.38-.8S35,24,35.44,24.11s.45.08.53.68a2.15,2.15,0,0,1-.45,1.56,1.21,1.21,0,0,1-1.21.72A3.1,3.1,0,0,1,33.17,26.74Z"></path>
      <path class="cls-4" d="M45.21,21.15a1.57,1.57,0,0,0,1.59.27c.78-.4,1-1.11.8-1.32a3.44,3.44,0,0,0-.36-.26c-.25-.16-.58.49-.59.5Z"></path>
      <path class="cls-5" d="M44.6,20.23s.47,1.08.89,1a8.91,8.91,0,0,1,.91-.09l.09-.23s-.55-.66-.74-.68-.51-.05-.59-.07A3.86,3.86,0,0,0,44.6,20.23Z"></path>
      <path class="cls-6" d="M44.61,20.09c0,.1,0,.37.24.4a4.68,4.68,0,0,0,.57,0s.58-.64.7-.74.21-.11-.2-.16-.43-.14-.77,0A1.06,1.06,0,0,0,44.61,20.09Z"></path>
      <path class="cls-7" d="M45.42,20.51a6,6,0,0,0,.41-.58c.15-.27.17-.34.43-.27s.89.05,1.09.26.2.18,0,.5a1.29,1.29,0,0,1-.7.63.71.71,0,0,1-.82,0A2,2,0,0,1,45.42,20.51Z"></path>
      <path class="cls-4" d="M59.52,27.19s4,1,6-1.78,1.49-5.59.49-6a10.61,10.61,0,0,0-1.71-.27c-1.12-.15-1.15,2.69-1.2,2.74S59.52,27.19,59.52,27.19Z"></path>
      <path class="cls-5" d="M55.81,25.06s3.47,3,4.85,2,3-1.87,3-1.87l-.11-.93s-3-1.34-3.73-1.13-1.87.73-2.18.8A15.85,15.85,0,0,0,55.81,25.06Z"></path>
      <path class="cls-6" d="M55.59,24.54c.12.39.5,1.38,1.54,1a15.34,15.34,0,0,0,2-.93s.91-3.2,1.15-3.77.53-.75-1-.19-1.72.22-2.73,1.2A4.1,4.1,0,0,0,55.59,24.54Z"></path>
      <path class="cls-7" d="M59.14,24.6a18.14,18.14,0,0,0,.41-2.69c.07-1.21,0-1.52,1.05-1.7s3.19-1.37,4.24-1,1,.3,1,1.66a4.9,4.9,0,0,1-1.36,3.4,2.74,2.74,0,0,1-2.89,1.33A7,7,0,0,1,59.14,24.6Z"></path>
      <path class="cls-4" d="M41.11,24.88s2.4,1.35,4.19-.06,2-3.33,1.4-3.77a8,8,0,0,0-1.06-.48c-.69-.3-1.22,1.52-1.26,1.55S41.11,24.88,41.11,24.88Z"></path>
      <path class="cls-5" d="M39.11,22.84s1.71,2.53,2.76,2.16,2.29-.67,2.29-.67l.1-.61s-1.73-1.42-2.2-1.4-1.34.13-1.55.12A10.85,10.85,0,0,0,39.11,22.84Z"></path>
      <path class="cls-6" d="M39.06,22.47c0,.27.08,1,.82.91a11.57,11.57,0,0,0,1.46-.23s1.17-1.9,1.42-2.22.48-.39-.59-.3-1.15-.17-2,.28A2.76,2.76,0,0,0,39.06,22.47Z"></path>
      <path class="cls-7" d="M41.34,23.15a13,13,0,0,0,.75-1.66c.26-.77.28-1,1-.91s2.3-.3,2.91.13.59.37.37,1.26a3.26,3.26,0,0,1-1.5,1.94,1.84,1.84,0,0,1-2.1.34A4.81,4.81,0,0,1,41.34,23.15Z"></path>
      <path class="cls-1" d="M.25,22.56,0,20.43A9.27,9.27,0,0,0,.25,22.56Z"></path>
      <path class="cls-1" d="M101.79,20.43l-.28,2.74A5.2,5.2,0,0,0,101.79,20.43Z"></path>
      <path class="cls-1" d="M.25,22.56,9.8,102.33S8.29,113.89,35.72,120.1c0,0,22.94,4.87,45.19-4.12,0,0,9.11-4.53,12.41-10.73l8.19-82.08C91.6,36.92,69.75,41.07,50.89,41,26.1,40.89,4.33,32.77.25,22.56Z"></path>
      <path class="cls-10" d="M50.89,0C22.79,0,0,9.18,0,20.5S22.79,41,50.89,41s50.9-9.17,50.9-20.49S79,0,50.89,0Zm0,40.1c-27.5,0-49.79-8.78-49.79-19.6S23.44.89,50.94.89s49.79,8.78,49.79,19.61S78.44,40.1,50.94,40.1Z"></path>
      <path class="cls-4" d="M70.56,25.69a1.36,1.36,0,0,0,1.36-.36c.47-.6.37-1.24.15-1.34a2.32,2.32,0,0,0-.39-.07c-.25,0-.27.59-.28.61S70.56,25.69,70.56,25.69Z"></path>
      <path class="cls-5" d="M69.74,25.19s.76.69,1.07.48a8,8,0,0,1,.7-.4l0-.21s-.68-.33-.83-.28-.43.15-.5.16A4.23,4.23,0,0,0,69.74,25.19Z"></path>
      <path class="cls-6" d="M69.69,25.07c0,.09.1.31.34.23a4,4,0,0,0,.46-.19s.23-.72.28-.84.13-.17-.22-.05-.38,0-.62.25A1,1,0,0,0,69.69,25.07Z"></path>
      <path class="cls-7" d="M70.49,25.11a4.06,4.06,0,0,0,.11-.61c0-.27,0-.34.25-.37s.72-.29,1-.19.22.07.22.38a1.1,1.1,0,0,1-.33.75.61.61,0,0,1-.66.28A1.52,1.52,0,0,1,70.49,25.11Z"></path>
      <path class="cls-4" d="M61.28,20.37s2.08.11,2.82-1.44.22-2.92-.32-3a6.77,6.77,0,0,0-.87,0c-.57,0-.32,1.45-.34,1.48S61.28,20.37,61.28,20.37Z"></path>
      <path class="cls-5" d="M59.24,19.66s2,1.14,2.59.53S63.16,19,63.16,19L63,18.53a6.36,6.36,0,0,0-2-.22c-.32.17-.86.54-1,.6A9.2,9.2,0,0,0,59.24,19.66Z"></path>
      <path class="cls-6" d="M59.08,19.42c.1.18.38.64.86.35a8.34,8.34,0,0,0,.91-.65s.16-1.68.22-2,.2-.42-.5,0-.84.27-1.25.85A2.06,2.06,0,0,0,59.08,19.42Z"></path>
      <path class="cls-7" d="M60.85,19.12a9.76,9.76,0,0,0-.05-1.38c-.07-.61-.13-.76.37-.94s1.46-1,2-.89.52.05.67.73a2.53,2.53,0,0,1-.37,1.82,1.39,1.39,0,0,1-1.31.93A3.68,3.68,0,0,1,60.85,19.12Z"></path>
      <path class="cls-4" d="M52.63,27.12s1.62,1.23,3.08.37,1.77-2.24,1.4-2.62a5.38,5.38,0,0,0-.72-.46c-.48-.29-1,1-1.09,1Z"></path>
      <path class="cls-5" d="M51.37,25.42s1,2,1.81,1.86S54.92,27,54.92,27l.14-.44s-1.13-1.21-1.48-1.25-1,0-1.14-.06A7.63,7.63,0,0,0,51.37,25.42Z"></path>
      <path class="cls-6" d="M51.37,25.14c0,.2,0,.72.51.75a6.86,6.86,0,0,0,1.09,0S54,24.6,54.24,24.38s.39-.23-.41-.28-.82-.23-1.48,0A2,2,0,0,0,51.37,25.14Z"></path>
      <path class="cls-7" d="M53,25.87a9.88,9.88,0,0,0,.72-1.14c.27-.54.31-.69.81-.57s1.72,0,2.12.39.39.33.14,1a2.39,2.39,0,0,1-1.29,1.27,1.35,1.35,0,0,1-1.57,0A3.67,3.67,0,0,1,53,25.87Z"></path>
      <path class="cls-4" d="M48.91,21.53A2.32,2.32,0,0,0,49,19.16c-.75-1.05-1.83-1.21-2.1-.9a6,6,0,0,0-.3.58c-.19.39.83.74.84.77Z"></path>
      <path class="cls-5" d="M47.7,22.6s1.47-.89,1.29-1.5-.31-1.31-.31-1.31l-.34-.07s-.86.93-.86,1.2,0,.76,0,.88A6,6,0,0,0,47.7,22.6Z"></path>
      <path class="cls-6" d="M47.48,22.62c.16,0,.56,0,.54-.43a5.9,5.9,0,0,0-.09-.84s-1-.71-1.22-.86-.2-.29-.18.32-.13.65.1,1.13A1.58,1.58,0,0,0,47.48,22.62Z"></path>
      <path class="cls-7" d="M47.93,21.35a7.15,7.15,0,0,0-.92-.47c-.42-.17-.54-.19-.48-.58s-.11-1.31.15-1.64.23-.32.73-.17a1.82,1.82,0,0,1,1.05.9,1,1,0,0,1,.13,1.19A2.53,2.53,0,0,1,47.93,21.35Z"></path>
      <path class="cls-4" d="M41.55,23.28a1,1,0,0,0,.34-1c-.18-.53-.6-.74-.75-.64a1.24,1.24,0,0,0-.2.2c-.13.13.25.41.25.42S41.55,23.28,41.55,23.28Z"></path>
      <path class="cls-5" d="M40.91,23.57s.73-.18.73-.46a5.34,5.34,0,0,1,0-.58l-.13-.08s-.47.28-.51.39-.08.32-.1.37A2.73,2.73,0,0,0,40.91,23.57Z"></path>
      <path class="cls-6" d="M40.82,23.55c.07,0,.23.06.28-.11a2.61,2.61,0,0,0,.07-.36s-.34-.43-.39-.52-.05-.14-.12.12-.14.25-.1.48A.66.66,0,0,0,40.82,23.55Z"></path>
      <path class="cls-7" d="M41.17,23.08a2.34,2.34,0,0,0-.32-.31c-.15-.13-.2-.15-.12-.31s.12-.55.27-.66.13-.1.32,0a.8.8,0,0,1,.32.51.43.43,0,0,1-.1.51A1.14,1.14,0,0,1,41.17,23.08Z"></path>
      <path class="cls-4" d="M39.3,27.33s1.42-2.29.12-4.1-3.18-2.07-3.64-1.54a7.85,7.85,0,0,0-.52,1c-.32.66,1.44,1.26,1.47,1.31S39.3,27.33,39.3,27.33Z"></path>
      <path class="cls-5" d="M37.21,29.2s2.55-1.55,2.23-2.61-.55-2.27-.55-2.27l-.6-.12s-1.46,1.63-1.47,2.1.07,1.31.06,1.51A9.91,9.91,0,0,0,37.21,29.2Z"></path>
      <path class="cls-6" d="M36.84,29.24c.27,0,1,0,.93-.76A9.9,9.9,0,0,0,37.61,27s-1.81-1.23-2.12-1.49-.36-.49-.32.57-.21,1.11.19,1.95A2.72,2.72,0,0,0,36.84,29.24Z"></path>
      <path class="cls-7" d="M37.61,27a11.34,11.34,0,0,0-1.6-.81c-.74-.29-.94-.32-.84-1s-.2-2.27.25-2.85.39-.56,1.25-.3a3.2,3.2,0,0,1,1.84,1.54,1.8,1.8,0,0,1,.23,2.08A4.64,4.64,0,0,1,37.61,27Z"></path>
    </g>
  </g>
</svg>
