<?xml version="1.0" encoding="UTF-8"?>
<svg xmlns="http://www.w3.org/2000/svg" viewBox="0 0 194.53 188.81">
  <defs>
    <style>
      .cls-1 {
        fill: #8a5b3b;
      }

      .cls-2 {
        fill: #946d4b;
      }

      .cls-3 {
        fill: #754120;
      }

      .cls-4 {
        fill: #a07551;
      }

      .cls-5 {
        fill: #44281b;
      }

      .cls-6 {
        fill: #6c3c1c;
      }
    </style>
  </defs>
  <g id="Слой_2" data-name="Слой 2">
    <g id="Слой_1-2" data-name="Слой 1">
      <g>
        <polygon class="cls-1" points="13.64 147.26 101.92 188.81 183.57 147.47 98.68 111.49 13.64 147.26"></polygon>
        <polygon class="cls-1" points="0 29.36 101.91 71.94 194.53 32.66 101.91 0 0 29.36"></polygon>
        <path class="cls-2" d="M101.92,71.94v53.49s28.16-20.78,39.6-21.82,33.74,42.82,42.06,43.86l10.95-114.8Z"></path>
        <path class="cls-3" d="M7.46,93.22l6.19,54.05,88.27,41.54V125.43S53.18,104.65,48,97.37,7.46,93.22,7.46,93.22"></path>
        <path class="cls-4" d="M0,29.36,7.46,93.22s9.51.76,19.74,1c12.82.34,24.94,8.66,34.64,18.36,11.27,11.26,40.07,12.81,40.07,12.81V71.94Z"></path>
        <path class="cls-5" d="M67.92,132.2a4.06,4.06,0,0,0-.19-1.57h0s-.67-1.78-2.25-1.82-2.52.89-2.41,1.38l.34.72,0,0L64.79,132l.24.19.27.19c.6.43.52.6,1.17.73a1.86,1.86,0,0,0,1.29-.33l.13-.22h0v0Z"></path>
        <path class="cls-5" d="M29.41,124.84a7.67,7.67,0,0,0-2.63,1.45v0s-2.65,2.44-1.62,5.24,3.35,3.8,4.13,3.28l1-1.12v-.09a27.23,27.23,0,0,0,1-3.12l.16-.55.16-.6c.33-1.37.67-1.36.45-2.58a3.62,3.62,0,0,0-1.49-2l-.48-.07v0l-.06,0Z"></path>
        <path class="cls-5" d="M91.64,160.79c-.63-2-1.79-5-3.37-6.74l0,0s-5.85-6.9-13-4.58-9.88,8-8.64,10a26.38,26.38,0,0,0,2.71,2.7l.24,0c2.09,1.35,6,2,7.71,2.85a4.21,4.21,0,0,0,1.37.45c.38.13.79.26,1.48.46,3.41,1,3.35,1.82,6.43,1.39s5.26-3.54,5.26-3.54a5.79,5.79,0,0,0,.23-1.21h0l0-.13a2.27,2.27,0,0,0-.49-1.69"></path>
        <path class="cls-5" d="M45.5,137.32a14.63,14.63,0,0,0-3.29,4.75l0,0s-2.48,6.48,1.7,10.42,9,3.68,9.92,2.1a20,20,0,0,0,.82-2.81l-.07-.17c.13-1.91-.86-4.76-.92-6.23a3.11,3.11,0,0,0-.2-1.09c-.06-.29-.13-.63-.25-1.16-.61-2.65,0-2.92-1.42-4.84A7,7,0,0,0,47.44,136l-.9.3,0,0-.07.07a1.68,1.68,0,0,0-1,.95"></path>
        <path class="cls-6" d="M101.92,125.43s19.85-28.06,42.72-28.74S190,79.36,190,79.36l-6.44,68.11-81.66,41.34Z"></path>
        <path class="cls-5" d="M131,136.12c-2,.32-5.21,1-7.1,2.34v-.05s-7.6,4.75-6.34,12.08,6.46,10.84,8.62,9.9a25.92,25.92,0,0,0,3-2.27l.06-.23c1.63-1.86,2.83-5.59,3.9-7.16a3.94,3.94,0,0,0,.64-1.27c.18-.36.36-.75.65-1.39,1.43-3.21,2.28-3,2.29-6.11s-2.72-5.67-2.72-5.67a6.36,6.36,0,0,0-1.16-.4v0h-.13a2.22,2.22,0,0,0-1.73.25"></path>
        <path class="cls-5" d="M168.55,133.91a6,6,0,0,0-2.21-.54v0s-2.73,0-3.6,2.1-.09,3.84.62,3.94l1.15-.09.05,0a19.32,19.32,0,0,0,2.17-1.22l.37-.23.4-.25c.89-.6,1.08-.42,1.58-1.21a2.74,2.74,0,0,0,.21-1.9l-.23-.29h0l0,0Z"></path>
        <path class="cls-5" d="M161.77,114.24a15.09,15.09,0,0,0-5-2.95l0,0s-6.69-2-10.33,2.5-3,9.34-1.37,10.12a19.81,19.81,0,0,0,2.88.61l.17-.08c1.92,0,4.71-1.22,6.19-1.41a2.94,2.94,0,0,0,1.07-.27c.3-.08.62-.17,1.15-.34,2.62-.81,2.94-.22,4.75-1.79a7.06,7.06,0,0,0,1.92-4.51l-.36-.88,0,0-.08-.06a1.7,1.7,0,0,0-1-.89"></path>
        <ellipse class="cls-6" cx="98.37" cy="33.23" rx="49.85" ry="12.3"></ellipse>
        <ellipse class="cls-5" cx="98.37" cy="36.76" rx="41.57" ry="10.25"></ellipse>
      </g>
    </g>
  </g>
</svg>
