<?xml version="1.0" encoding="UTF-8"?>
<svg xmlns="http://www.w3.org/2000/svg" xmlns:xlink="http://www.w3.org/1999/xlink" viewBox="0 0 296.35 718.89">
  <defs>
    <style>
      .cls-1 {
        fill: none;
      }

      .cls-2 {
        fill: #8e6848;
      }

      .cls-3 {
        clip-path: url(#clip-path);
      }

      .cls-4 {
        fill: url(#Безымянный_градиент_54);
      }

      .cls-5 {
        fill: #713e21;
      }

      .cls-6 {
        fill: #3d271f;
      }

      .cls-7 {
        fill: #69391e;
      }

      .cls-8 {
        fill: #6b472f;
      }

      .cls-9 {
        fill: #5c3624;
      }

      .cls-10 {
        fill: #795135;
      }

      .cls-11 {
        fill: #9a734f;
      }

      .cls-12 {
        fill: #f9dec0;
      }

      .cls-13 {
        fill: #85563a;
      }

      .cls-14 {
        fill: url(#Безымянный_градиент_55);
      }

      .cls-15 {
        fill: url(#Безымянный_градиент_56);
      }

      .cls-16 {
        fill: #517731;
      }

      .cls-17 {
        fill: #658933;
      }

      .cls-18 {
        fill: url(#Безымянный_градиент_57);
      }

      .cls-19 {
        fill: #6b482f;
      }
    </style>
    <clipPath id="clip-path">
      <polyline class="cls-1" points="20.79 641.72 155.26 705.01 279.65 642.02 150.33 587.22 20.79 641.72"></polyline>
    </clipPath>
    <linearGradient id="Безымянный_градиент_54" data-name="Безымянный градиент 54" x1="-335.47" y1="-2565.35" x2="-334.47" y2="-2565.35" gradientTransform="matrix(258.87, 0, 0, 258.87, 86830.16, 664740.91)" gradientUnits="userSpaceOnUse">
      <stop offset="0" stop-color="#9b714e"></stop>
      <stop offset="0.38" stop-color="#9b714e"></stop>
      <stop offset="0.8" stop-color="#7d4e2f"></stop>
      <stop offset="1" stop-color="#6e3c20"></stop>
    </linearGradient>
    <linearGradient id="Безымянный_градиент_55" data-name="Безымянный градиент 55" x1="-335.47" y1="-2565.35" x2="-334.47" y2="-2565.35" gradientTransform="translate(483347.34 -138235.81) rotate(-98.53) scale(194.27)" gradientUnits="userSpaceOnUse">
      <stop offset="0" stop-color="#648a33"></stop>
      <stop offset="0.18" stop-color="#648a33"></stop>
      <stop offset="0.79" stop-color="#517731"></stop>
      <stop offset="1" stop-color="#517731"></stop>
    </linearGradient>
    <linearGradient id="Безымянный_градиент_56" data-name="Безымянный градиент 56" x1="-335.47" y1="-2565.35" x2="-334.47" y2="-2565.35" gradientTransform="translate(10137.29 -122473.56) rotate(-167.91) scale(47.6)" gradientUnits="userSpaceOnUse">
      <stop offset="0" stop-color="#44682f"></stop>
      <stop offset="0.23" stop-color="#44682f"></stop>
      <stop offset="0.45" stop-color="#bee070"></stop>
      <stop offset="0.7" stop-color="#f9f2d7"></stop>
      <stop offset="1" stop-color="#f9f2d7"></stop>
    </linearGradient>
    <linearGradient id="Безымянный_градиент_57" data-name="Безымянный градиент 57" x1="-335.47" y1="-2565.35" x2="-334.47" y2="-2565.35" gradientTransform="translate(-25915.83 -171521.82) rotate(178.82) scale(67.21)" gradientUnits="userSpaceOnUse">
      <stop offset="0" stop-color="#44682f"></stop>
      <stop offset="0.18" stop-color="#44682f"></stop>
      <stop offset="0.43" stop-color="#bee070"></stop>
      <stop offset="0.7" stop-color="#f9f2d7"></stop>
      <stop offset="1" stop-color="#f9f2d7"></stop>
    </linearGradient>
  </defs>
  <g id="Слой_2" data-name="Слой 2">
    <g id="Слой_1-2" data-name="Слой 1">
      <g>
        <path class="cls-2" d="M155.26,527s25.9,30.41,45.9,31.66,88.31-20.36,88.31-20.36l6.88-71.13L155.26,417.37Z"></path>
        <path class="cls-2" d="M0,462.1l14.07,92.77s50,7.51,58.75,5,48.76-17.52,60-17.52S155.26,527,155.26,527V417.37Z"></path>
        <g class="cls-3">
          <rect class="cls-4" x="84.46" y="513.71" width="131.51" height="264.82" transform="translate(-503.03 761.43) rotate(-86.92)"></rect>
        </g>
        <path class="cls-5" d="M20.79,641.71l-6.72-86.83s63.76-1.25,81.26-10S155.26,527,155.26,527l-4.93,60.27Z"></path>
        <path class="cls-6" d="M111.66,560.27c-1.89-1.56-5-3.83-7.64-4.49l0,0s-10.18-3.05-15.73,3.8-4.6,14.24-2.08,15.43a29.61,29.61,0,0,0,4.39.92l.25-.12c2.94,0,7.18-1.86,9.44-2.14a4.59,4.59,0,0,0,1.63-.42c.45-.12,1-.25,1.75-.51,4-1.24,4.47-.34,7.23-2.74s2.92-6.85,2.92-6.85l-.56-1.35,0,0-.11-.1a2.63,2.63,0,0,0-1.57-1.36"></path>
        <path class="cls-7" d="M155.26,527l-4.93,60.25L279.66,642l9.81-103.76s-40.33-4.65-57.82-2.15-48,10-57.15,5S155.26,527,155.26,527"></path>
        <path class="cls-6" d="M106,588.87a9.23,9.23,0,0,0-3.37-.83v0s-4.16,0-5.49,3.19-.13,5.85.95,6l1.75-.14.08-.08a31.07,31.07,0,0,0,3.31-1.85l.56-.35.6-.38c1.35-.92,1.64-.64,2.4-1.84a4.11,4.11,0,0,0,.33-2.9l-.34-.44v0l-.05,0Z"></path>
        <path class="cls-6" d="M232.71,562.94a6.19,6.19,0,0,0-.29-2.4h0s-1-2.71-3.42-2.77-3.84,1.34-3.69,2.09l.54,1.1.06,0,2,1.69.36.28.4.3c.93.65.82.91,1.79,1.1a2.82,2.82,0,0,0,2-.49l.2-.34h0v0Z"></path>
        <path class="cls-6" d="M268.83,606.49c-.95-3-2.72-7.69-5.12-10.27l.08,0s-8.93-10.51-19.79-7-15.06,12.22-13.16,15.29A38.65,38.65,0,0,0,235,608.6l.36,0c3.19,2.07,9.12,3.06,11.76,4.35a6.2,6.2,0,0,0,2.07.69c.58.19,1.22.39,2.26.69,5.21,1.46,5.11,2.78,9.8,2.12s8-5.38,8-5.38a9.22,9.22,0,0,0,.35-1.86h.05l0-.19a3.44,3.44,0,0,0-.76-2.58"></path>
        <path class="cls-6" d="M198.55,570.74c-1.69,1.75-4.17,4.66-5,7.23l-.05-.05s-3.77,9.87,2.6,15.87,13.76,5.62,15.13,3.2a31.75,31.75,0,0,0,1.23-4.28l-.1-.25c.2-2.9-1.31-7.25-1.4-9.5a5.08,5.08,0,0,0-.31-1.65c-.09-.46-.19-1-.37-1.77-.93-4,0-4.46-2.18-7.37s-6.57-3.4-6.57-3.4l-1.37.45,0,0-.12.11a2.53,2.53,0,0,0-1.45,1.45"></path>
        <path class="cls-8" d="M199,644.42s2.76.76,4.22-1.12,1.15-3.86.47-4.16l-1.19-.23c-.78-.13-.85,1.86-.89,1.89Z"></path>
        <path class="cls-9" d="M196.5,642.86s2.36,2.13,3.33,1.48,2.16-1.25,2.16-1.25l-.06-.64-2.58-.86-1.53.51Z"></path>
        <path class="cls-10" d="M196.35,642.49c.09.27.33,1,1.07.73a12,12,0,0,0,1.41-.61l.89-2.6c.17-.4.38-.52-.68-.16s-1.21.12-1.93.78a2.91,2.91,0,0,0-.76,1.86"></path>
        <path class="cls-11" d="M198.84,642.6a13.19,13.19,0,0,0,.34-1.87c.07-.82,0-1.05.76-1.15s2.26-.89,3-.61.68.24.68,1.18a3.36,3.36,0,0,1-1,2.34,1.89,1.89,0,0,1-2,.87,4.66,4.66,0,0,1-1.71-.76"></path>
        <path class="cls-8" d="M170.29,627.93s6.44.34,8.74-4.49.68-9-1-9.39a19.11,19.11,0,0,0-2.72.08c-1.76.1-1,4.49-1.05,4.58Z"></path>
        <path class="cls-9" d="M164,625.72s6.21,3.55,8,1.65,4.13-3.76,4.13-3.76l-.43-1.4s-5.1-1.2-6.09-.67-2.68,1.67-3.12,1.86Z"></path>
        <path class="cls-10" d="M163.46,625c.31.56,1.17,2,2.67,1.08a26.06,26.06,0,0,0,2.83-2s.49-5.21.68-6.15.61-1.31-1.56,0-2.58.84-3.87,2.64a6.53,6.53,0,0,0-.75,4.46"></path>
        <path class="cls-11" d="M169,624a27.35,27.35,0,0,0-.14-4.27c-.24-1.88-.41-2.35,1.14-2.93s4.51-3,6.25-2.76,1.61.18,2.07,2.27,0,3.39-1.12,5.65-2.31,2.74-4.07,2.87A10.79,10.79,0,0,1,169,624"></path>
        <path class="cls-8" d="M143.49,648.84s5,3.81,9.52,1.16,5.51-7,4.36-8.13a16.09,16.09,0,0,0-2.24-1.43c-1.49-.89-3.26,3.09-3.36,3.13Z"></path>
        <path class="cls-9" d="M139.58,643.58s3.07,6.27,5.6,5.75a54.47,54.47,0,0,1,5.4-.79l.42-1.36s-3.48-3.77-4.56-3.88-3.08-.13-3.55-.2Z"></path>
        <path class="cls-10" d="M139.58,642.71c-.06.62-.14,2.24,1.57,2.34a25.44,25.44,0,0,0,3.39-.08l3.92-4.6c.69-.66,1.22-.73-1.25-.87s-2.55-.73-4.59,0a6.37,6.37,0,0,0-3,3.2"></path>
        <path class="cls-11" d="M144.54,645a28.08,28.08,0,0,0,2.23-3.54c.83-1.64.94-2.12,2.51-1.74s5.32,0,6.57,1.19,1.21,1,.44,3-1.88,2.72-4,3.95a4.18,4.18,0,0,1-4.87.1,10.87,10.87,0,0,1-2.88-2.94"></path>
        <path class="cls-8" d="M131.93,631.51s2.58-4.08.26-7.34-5.67-3.74-6.49-2.78l-.94,1.81c-.58,1.19,2.58,2.27,2.62,2.35Z"></path>
        <path class="cls-9" d="M128.18,634.84s4.58-2.76,4-4.65a41.64,41.64,0,0,1-1-4.06l-1.07-.24s-2.64,2.91-2.65,3.75.11,2.34.07,2.71Z"></path>
        <path class="cls-10" d="M127.53,634.9c.48,0,1.71,0,1.67-1.35a18.34,18.34,0,0,0-.29-2.58l-3.76-2.69c-.55-.47-.64-.87-.58,1s-.4,2,.32,3.5a4.79,4.79,0,0,0,2.64,2.11"></path>
        <path class="cls-11" d="M128.91,631a21.93,21.93,0,0,0-2.85-1.46c-1.31-.53-1.68-.58-1.49-1.81s-.33-4.06.47-5.09.7-1,2.24-.53,2.2,1.26,3.28,2.79a3.18,3.18,0,0,1,.4,3.71,8.18,8.18,0,0,1-2.05,2.39"></path>
        <path class="cls-8" d="M109.15,636.93s1.58-1.36,1-3-1.87-2.27-2.33-2l-.62.63.78,1.31Z"></path>
        <path class="cls-9" d="M107.17,637.83s2.24-.56,2.25-1.41.12-1.81.12-1.81l-.41-.23-1.57,1.2-.32,1.15Z"></path>
        <path class="cls-10" d="M106.88,637.77l.87-.35.21-1.1-1.22-1.59c-.16-.27-.15-.45-.37.34s-.41.78-.3,1.49a2,2,0,0,0,.81,1.21"></path>
        <path class="cls-11" d="M108,636.32l-1-1-.4-.94.86-2,1,.06a2.53,2.53,0,0,1,1,1.58,1.36,1.36,0,0,1-.31,1.59Z"></path>
        <path class="cls-8" d="M102.16,649.51s4.4-7.1.36-12.72-9.84-6.43-11.27-4.77a23.72,23.72,0,0,0-1.6,3.15c-1,2.06,4.47,3.91,4.53,4.05Z"></path>
        <path class="cls-9" d="M95.69,655.3s7.91-4.83,6.91-8.09-1.71-7-1.71-7L99,639.78s-4.54,5.06-4.55,6.51.21,4.08.16,4.71Z"></path>
        <path class="cls-10" d="M94.55,655.41c.82,0,3-.1,2.88-2.35a32.21,32.21,0,0,0-.52-4.47s-5.61-3.81-6.55-4.63-1.11-1.51-1,1.77-.66,3.47.58,6,4.6,3.64,4.6,3.64"></path>
        <path class="cls-11" d="M96.91,648.59A38.94,38.94,0,0,0,92,646.08c-2.29-.89-2.93-1-2.62-3.11s-.61-7,.78-8.82,1.2-1.73,3.87-.94,3.82,2.15,5.7,4.8,1.68,4.34.74,6.42a14.33,14.33,0,0,1-3.53,4.16"></path>
        <path class="cls-12" d="M155.66,508.8A19.75,19.75,0,0,1,154.4,518c-1,2.8-2.19,5.42-3.13,8.1s-1.62,5.52-2.44,8.28a65.06,65.06,0,0,1-2.71,8.28c-1.23,2.7-3.14,4.93-4.66,7.35a38.1,38.1,0,0,0-3.8,7.71,36.59,36.59,0,0,0-1.92,17,37.85,37.85,0,0,1,1.65-17.12,38.54,38.54,0,0,1,3.64-7.88c1.49-2.49,3.29-4.78,4.36-7.4a64.14,64.14,0,0,0,2.37-8.25l2.11-8.42c.77-2.84,1.89-5.53,2.55-8.27a20.52,20.52,0,0,0,.63-4.05,12.17,12.17,0,0,0-.48-3.87,1.58,1.58,0,1,1,3-.93l.06.25Z"></path>
        <path class="cls-12" d="M154.54,510.62a48.3,48.3,0,0,1,.06,7.88,49.21,49.21,0,0,1-1,7.78,10.94,10.94,0,0,1-1.52,3.86c-.79,1-1.59,2-2.41,3-1.63,2-3.35,4-5.17,5.79A47.24,47.24,0,0,1,132,548.15a63.62,63.62,0,0,0-6.63,3.9,12.59,12.59,0,0,0-4.87,5.78,12.74,12.74,0,0,1,4.71-6,61.87,61.87,0,0,1,6.52-4.15,49.29,49.29,0,0,0,6.37-4.24,50,50,0,0,0,5.58-5.21c1.73-1.88,3.35-3.85,4.89-5.89.77-1,1.52-2.05,2.28-3.09a10,10,0,0,0,1.18-3.31,55.88,55.88,0,0,0,.6-15.05v0a1,1,0,1,1,1.9-.25Z"></path>
        <path class="cls-12" d="M154.49,509.9A184.59,184.59,0,0,0,146.31,534c-1.08,4.1-2,8.25-2.81,12.43s-1.35,8.4-2,12.62c.47-4.24.85-8.48,1.51-12.7s1.42-8.41,2.35-12.58a186.83,186.83,0,0,1,7.33-24.57,1,1,0,0,1,1.23-.56,1,1,0,0,1,.56,1.23Z"></path>
        <path class="cls-12" d="M153.64,509.83a63.48,63.48,0,0,1-.29,14.78c-.58,4.86-1.36,9.65-2.06,14.47l-1.08,7.22-1.16,7.21c-.41,2.4-.71,4.81-1.29,7.21a18.12,18.12,0,0,1-2.91,6.72,18.82,18.82,0,0,0,2.22-6.85c.33-2.38.5-4.82.74-7.24l.67-7.27.75-7.26c.5-4.84,1-9.7,1.56-14.5a124.07,124.07,0,0,0,.94-14.36,1,1,0,0,1,1.91-.13Z"></path>
        <path class="cls-12" d="M154.78,511.83a22.73,22.73,0,0,0-.09,4,29,29,0,0,0,.64,4,41.83,41.83,0,0,0,2.87,7.75c2.42,5,5.53,9.8,8.23,14.86a50.67,50.67,0,0,1,3.46,7.91,29.69,29.69,0,0,1,1.44,8.54c.15,5.76-1.05,11.36-.61,17-.77-5.65,0-11.4-.35-17s-2.6-10.84-5.4-15.7-6.16-9.5-8.71-14.71a36.56,36.56,0,0,1-3.06-8.2,24.93,24.93,0,0,1-.61-4.4,21.4,21.4,0,0,1,.3-4.45,1,1,0,0,1,1.89.26Z"></path>
        <path class="cls-12" d="M155.55,509.49c.46,2.09,1,4.25,1.63,6.38l.9,3.15c.33,1,.7,2,1.11,3,1.62,4.05,3.72,8.08,5,12.55a32.53,32.53,0,0,1,1.08,6.8c.13,2.26.12,4.49.21,6.7a36.7,36.7,0,0,0,.73,6.55,17.26,17.26,0,0,0,2.57,6.06,16.51,16.51,0,0,1-3.28-5.86,32.32,32.32,0,0,1-1.34-6.64c-.52-4.47-.67-8.92-2.1-13s-3.68-7.88-5.58-12c-.48-1-.92-2.1-1.34-3.2s-.73-2.15-1.08-3.23c-.68-2.15-1.34-4.26-1.93-6.51a1.77,1.77,0,1,1,3.43-.9l0,.06Z"></path>
        <path class="cls-12" d="M155.36,514.47c-.06,3.47-.77,6.71-1.14,10-.1.81-.18,1.62-.22,2.43s0,1.62-.07,2.48a10.51,10.51,0,0,1-.41,2.58,6.63,6.63,0,0,1-1.25,2.36c-.56.67-1.17,1.24-1.74,1.83A18.54,18.54,0,0,0,149,538a14.58,14.58,0,0,0-2.05,4.37,13.62,13.62,0,0,0,.85,9.59,13.89,13.89,0,0,1-1.33-9.71,15.06,15.06,0,0,1,1.92-4.66,19,19,0,0,1,1.52-2c.55-.63,1.13-1.22,1.59-1.85,2-2.5.83-6,1.27-9.38.24-3.33.79-6.63.69-9.79v0a1,1,0,0,1,1.91-.05Z"></path>
        <path class="cls-12" d="M155.74,513.74a31.77,31.77,0,0,1,4.53,6.65,20.11,20.11,0,0,1,2.21,7.64,19.79,19.79,0,0,0-2.75-7.34,30.57,30.57,0,0,0-4.88-6.09.62.62,0,1,1,.86-.89Z"></path>
        <path class="cls-12" d="M153.87,510.34a23.92,23.92,0,0,0-2.26,7.36,32.81,32.81,0,0,0-.07,7.8A75.5,75.5,0,0,0,155.25,541a125.32,125.32,0,0,1,4.47,15.56,31.26,31.26,0,0,1-.62,16c1.49-5.21,1-10.7-.14-15.88a123.33,123.33,0,0,0-5-15.27,70.37,70.37,0,0,1-4.31-15.71,31.59,31.59,0,0,1,0-8.3,23.8,23.8,0,0,1,2.56-8,1,1,0,0,1,1.7.88Z"></path>
        <path class="cls-12" d="M151.3,518.28a111,111,0,0,0,9.93,26.82c1.07,2.16,2.25,4.24,3.34,6.41a18,18,0,0,1,1.93,7c.2,2.43,0,4.84,0,7.24a22.8,22.8,0,0,0,.86,7.12,22.88,22.88,0,0,1-1.15-7.12c-.07-2.41,0-4.82-.25-7.19a17.34,17.34,0,0,0-2.09-6.73c-.55-1.06-1.17-2.09-1.76-3.14s-1.16-2.11-1.73-3.18a112.13,112.13,0,0,1-10.58-26.92h0a.75.75,0,0,1,1.46-.34Z"></path>
        <path class="cls-12" d="M153,511.36a14.24,14.24,0,0,0,4.09,6.08,18.66,18.66,0,0,0,6.56,3.77c1.21.4,2.51.7,3.76,1.19a13,13,0,0,1,3.45,2,26.76,26.76,0,0,1,5,6.08,26.51,26.51,0,0,0-5.24-5.78,12.45,12.45,0,0,0-3.41-1.82c-1.22-.42-2.51-.65-3.78-1a19.62,19.62,0,0,1-7.06-3.63,15.5,15.5,0,0,1-4.77-6.43h0a.74.74,0,0,1,1.39-.52Z"></path>
        <polygon class="cls-13" points="0 462.1 155.26 526.97 296.35 467.14 155.26 417.37 0 462.1"></polygon>
        <path class="cls-14" d="M172.5,229s8.41-101.44-.28-120.58S149.08,42.08,128.56,0c0,0,32.81,98.35,36.07,109,2.82,9.22,5.88,93.51,6.62,118.55C171.37,231.34,172.57,228.05,172.5,229Z"></path>
        <path class="cls-15" d="M169.71,226.49a11,11,0,0,1,.38,2.71,13,13,0,0,1-.28,2.65c-.39,2-.46,2.55-1.06,5.36s-1.23,5.86-2.29,10.08-3.52,14.12-4.49,18.53-1.63,7.26-2.37,10.76-1.54,7.41-2,10.23c-1.34,7.53-2.44,13.77-3.64,21a1.79,1.79,0,0,0,1.52,2.17,2,2,0,0,0,2.21-1.51l0-.1h0c1-7.23,1.76-13.46,3-21,.46-2.82,1.15-6.7,1.86-10.19s1.33-6.3,2.29-10.71,3.47-14.33,4.54-18.55,1.79-7.31,2.42-10.11.74-3.39,1.14-5.34a22,22,0,0,1,.7-2.56,9.69,9.69,0,0,1,1.22-2.24c.3-.5.09-.12.12-.19.78-1.47.92-3.08-.49-4.22a2.91,2.91,0,0,0-4.17.41A3,3,0,0,0,169.71,226.49Z"></path>
        <path class="cls-16" d="M200.17,202.9s28.68,87.57,31.61,91.8c0,0-39-83.45-39.92-89.17s3.49-3.91,3.49-3.91Z"></path>
        <path class="cls-17" d="M153.06,316.42s17.6-36.89,35.18-114.93c0,0,1.2-2.18,3.95-.91s7.78,1.11,8.15,2.63-3.25-1.93-5.34,6.59-35.44,102.25-38.77,107.07Z"></path>
        <path class="cls-18" d="M151.88,312.8a25.66,25.66,0,0,1,.81,4.22,31.39,31.39,0,0,1-.22,4.73c-.35,3.3-.61,5.37-1.13,9.75s-1.46,11.77-2.09,16.93c-1.65,13.78-3,27.05-3.88,41.15-.33,5.29-.62,13.19-.75,18.62s-.1,12.85,0,17.32c.23,11.92.26,21.75.64,33a2.4,2.4,0,0,0,2.41,2.68c1.57.2,2.11-1.26,2.46-2.52v-.2c-.54-11.4-1-21.19-1.42-33.14-.14-4.48-.32-11.73-.22-17.13s.38-13.27.69-18.54c.82-14.07,2.22-27.31,4-41,.66-5.15,1.68-12.51,2.26-16.86s.8-6.38,1.23-9.64c.29-2.18.43-2.86.79-4.55a27.89,27.89,0,0,1,1.5-4.1s.17-.06.28-1,.51-4.61-1.58-5.33-4-.74-5.36,1.33C151.4,309.84,151.62,311.28,151.88,312.8Z"></path>
        <path class="cls-19" d="M157.88,466.86a1.8,1.8,0,0,0-1.71-.63c-.95.29-1.32,1-1.16,1.31.05.07.24.25.35.36s.74-.43.76-.43Z"></path>
        <path class="cls-9" d="M158.37,468s-.3-1.29-.79-1.31a9.85,9.85,0,0,1-1-.09l-.13.24s.48.84.67.91.56.16.65.19Z"></path>
        <path class="cls-10" d="M158.33,468.16c0-.11.12-.41-.19-.5a4.66,4.66,0,0,0-.63-.13s-.77.58-.92.67-.26.09.19.22.44.25.85.2A1.23,1.23,0,0,0,158.33,468.16Z"></path>
        <path class="cls-11" d="M157.51,467.53a4.76,4.76,0,0,0-.56.55c-.23.27-.27.35-.54.22s-1-.24-1.16-.51-.18-.24.05-.57a1.39,1.39,0,0,1,.91-.55.78.78,0,0,1,.9.19A2,2,0,0,1,157.51,467.53Z"></path>
        <path class="cls-19" d="M133.67,458.06a2.63,2.63,0,0,0-2.64-.38c-1.27.71-1.58,1.9-1.26,2.24a5.26,5.26,0,0,0,.61.41c.41.25.93-.84,1-.85Z"></path>
        <path class="cls-9" d="M134.72,459.55s-.81-1.76-1.52-1.63a14.6,14.6,0,0,1-1.5.18l-.13.38s1,1.07,1.25,1.11.85.05,1,.07A6.27,6.27,0,0,0,134.72,459.55Z"></path>
        <path class="cls-10" d="M134.72,459.79c0-.17.05-.62-.42-.66a7.43,7.43,0,0,0-1,0s-.92,1.07-1.12,1.25-.34.19.35.25.7.22,1.27,0A1.78,1.78,0,0,0,134.72,459.79Z"></path>
        <path class="cls-11" d="M133.35,459.14a7.56,7.56,0,0,0-.64,1c-.24.45-.27.58-.71.46s-1.48,0-1.82-.37-.33-.29-.1-.83a2.11,2.11,0,0,1,1.14-1.07,1.16,1.16,0,0,1,1.35,0A3.08,3.08,0,0,1,133.35,459.14Z"></path>
        <path class="cls-19" d="M150.77,454.57s-5.46-2.72-9.26.6-4,7.58-2.69,8.5a17.82,17.82,0,0,0,2.38,1c1.58.58,2.55-3.52,2.64-3.58S150.77,454.57,150.77,454.57Z"></path>
        <path class="cls-9" d="M155.42,458.87s-4-5.42-6.35-4.47-5,1.72-5,1.72l-.16,1.37s4,3,5,2.87,2.94-.44,3.4-.44A24.15,24.15,0,0,0,155.42,458.87Z"></path>
        <path class="cls-10" d="M155.58,459.69c-.06-.6-.28-2.15-1.91-1.94a24.27,24.27,0,0,0-3.21.69s-2.38,4.33-2.91,5.07-1,.91,1.35.6,2.56.25,4.35-.84A6.16,6.16,0,0,0,155.58,459.69Z"></path>
        <path class="cls-11" d="M150.46,458.44A27.32,27.32,0,0,0,149,462.2c-.49,1.72-.51,2.19-2.07,2.11s-5.06.92-6.46,0-1.33-.75-.95-2.74,1.31-2.93,3.1-4.47a4.05,4.05,0,0,1,4.61-1A10.46,10.46,0,0,1,150.46,458.44Z"></path>
        <path class="cls-19" d="M171.73,456.31s-3.14-4.28-7.41-3.22-6.1,4.28-5.46,5.52a15.32,15.32,0,0,0,1.47,1.68c1,1.08,3.37-1.7,3.46-1.71S171.73,456.31,171.73,456.31Z"></path>
        <path class="cls-9" d="M173.62,461.49s-1-5.8-3.14-6-4.54-.66-4.54-.66l-.67,1s1.91,3.87,2.76,4.22,2.45.83,2.81,1A20.53,20.53,0,0,0,173.62,461.49Z"></path>
        <path class="cls-10" d="M173.41,462.19c.2-.49.65-1.78-.7-2.26a21,21,0,0,0-2.76-.75s-3.56,2.41-4.27,2.77-1.15.3.81,1,1.88,1.21,3.7,1.09A5.34,5.34,0,0,0,173.41,462.19Z"></path>
        <path class="cls-11" d="M170,459.18a24.66,24.66,0,0,0-2.64,2.32c-1.07,1.14-1.27,1.49-2.45.81s-4.28-1.3-5-2.54-.73-1.12.36-2.5,2.17-1.75,4.17-2.23a3.53,3.53,0,0,1,4,1.08A9.23,9.23,0,0,1,170,459.18Z"></path>
        <path class="cls-19" d="M157.13,458.52s-4.5-3.47-8.59-1.12-5,6.23-4,7.31a16,16,0,0,0,2,1.31c1.34.81,3-2.76,3.07-2.8S157.13,458.52,157.13,458.52Z"></path>
        <path class="cls-9" d="M160.62,463.31s-2.73-5.7-5-5.24-4.89.67-4.89.67l-.39,1.23s3.12,3.43,4.1,3.53,2.78.14,3.2.22A21.84,21.84,0,0,0,160.62,463.31Z"></path>
        <path class="cls-10" d="M160.62,464.09c.06-.56.13-2-1.4-2.12a21.68,21.68,0,0,0-3.07,0s-3,3.54-3.58,4.12-1.1.65,1.13.79,2.3.69,4.14,0A5.7,5.7,0,0,0,160.62,464.09Z"></path>
        <path class="cls-11" d="M156.15,462a25.75,25.75,0,0,0-2,3.18c-.76,1.48-.87,1.91-2.28,1.55s-4.81-.06-5.93-1.13-1.08-.93-.37-2.69,1.72-2.44,3.64-3.54a3.8,3.8,0,0,1,4.41-.05A9.71,9.71,0,0,1,156.15,462Z"></path>
        <path class="cls-19" d="M180.59,466.42a2.72,2.72,0,0,0,2.5-1.23c.67-1.36.23-2.57-.24-2.67a5.08,5.08,0,0,0-.77,0c-.5,0-.3,1.27-.32,1.29Z"></path>
        <path class="cls-9" d="M178.8,465.77s1.75,1,2.28.5,1.19-1,1.19-1l-.12-.4a5.51,5.51,0,0,0-1.73-.21c-.28.14-.76.46-.89.51A7.57,7.57,0,0,0,178.8,465.77Z"></path>
        <path class="cls-10" d="M178.66,465.56c.09.16.33.56.75.31a6.41,6.41,0,0,0,.82-.56s.16-1.47.22-1.74.18-.37-.44,0-.74.23-1.12.73A1.87,1.87,0,0,0,178.66,465.56Z"></path>
        <path class="cls-11" d="M180.23,465.31a8.51,8.51,0,0,0,0-1.21c-.07-.54-.11-.67.33-.83s1.3-.84,1.79-.75.45.05.58.65a2.19,2.19,0,0,1-.35,1.6,1.22,1.22,0,0,1-1.17.8A3.12,3.12,0,0,1,180.23,465.31Z"></path>
        <path class="cls-19" d="M120.52,469.56a2.73,2.73,0,0,0,2.5-1.24c.68-1.36.24-2.57-.23-2.67a5.21,5.21,0,0,0-.78,0c-.5,0-.3,1.27-.32,1.3Z"></path>
        <path class="cls-9" d="M118.73,468.9s1.75,1,2.28.51,1.19-1.06,1.19-1.06l-.12-.4a5.44,5.44,0,0,0-1.72-.21c-.29.15-.77.46-.9.52A6.47,6.47,0,0,0,118.73,468.9Z"></path>
        <path class="cls-10" d="M118.6,468.69c.08.16.32.56.75.32a8.4,8.4,0,0,0,.81-.56s.16-1.48.22-1.75.18-.37-.44,0-.74.23-1.11.74A1.78,1.78,0,0,0,118.6,468.69Z"></path>
        <path class="cls-11" d="M120.16,468.45a8.65,8.65,0,0,0,0-1.22c-.06-.53-.11-.67.33-.82s1.3-.84,1.79-.76.46.06.58.65a2.22,2.22,0,0,1-.34,1.6,1.21,1.21,0,0,1-1.17.8A3.05,3.05,0,0,1,120.16,468.45Z"></path>
        <path class="cls-19" d="M137.68,467.39s2.31.32,3.29-1.35.52-3.25-.06-3.42a6.71,6.71,0,0,0-1-.06c-.64,0-.49,1.59-.52,1.63Z"></path>
        <path class="cls-9" d="M135.46,466.4s2.14,1.47,2.86.85,1.6-1.24,1.6-1.24l-.11-.52a6.89,6.89,0,0,0-2.18-.42c-.37.16-1,.52-1.19.57A10,10,0,0,0,135.46,466.4Z"></path>
        <path class="cls-10" d="M135.3,466.12c.1.21.37.75.93.47a9.71,9.71,0,0,0,1.09-.64s.33-1.87.43-2.2.26-.46-.56-.05-1,.22-1.48.83A2.37,2.37,0,0,0,135.3,466.12Z"></path>
        <path class="cls-11" d="M137.32,466a11,11,0,0,0,.08-1.55c0-.69-.09-.86.49-1s1.73-1,2.34-.81.58.12.68.89a2.74,2.74,0,0,1-.57,2,1.56,1.56,0,0,1-1.56.92A4.13,4.13,0,0,1,137.32,466Z"></path>
        <path class="cls-19" d="M150.2,465a2.22,2.22,0,0,1,2-.31c1,.46,1.26,1.26,1,1.5a4.29,4.29,0,0,1-.46.29c-.31.18-.74-.55-.76-.56Z"></path>
        <path class="cls-9" d="M149.42,466s.59-1.22,1.14-1.15,1.17.1,1.17.1l.1.25s-.7.75-.93.78-.66,0-.76.08A6.1,6.1,0,0,1,149.42,466Z"></path>
        <path class="cls-10" d="M149.43,466.16a.35.35,0,0,1,.31-.46,6.12,6.12,0,0,1,.73,0s.74.71.89.83.27.12-.26.18-.54.16-1,0A1.29,1.29,0,0,1,149.43,466.16Z"></path>
        <path class="cls-11" d="M150.47,465.69a6,6,0,0,1,.52.64c.19.31.22.4.56.31s1.14-.06,1.4-.29.25-.21.06-.57a1.58,1.58,0,0,0-.9-.71,1,1,0,0,0-1.05,0A2.13,2.13,0,0,0,150.47,465.69Z"></path>
        <path class="cls-19" d="M168.59,459.79s-4.24-3.13-8-.87-4.53,5.86-3.56,6.84a14.78,14.78,0,0,0,1.89,1.16c1.25.73,2.7-2.61,2.78-2.64S168.59,459.79,168.59,459.79Z"></path>
        <path class="cls-9" d="M171.91,464.15s-2.64-5.22-4.74-4.76-4.51.72-4.51.72l-.34,1.15s3,3.11,3.86,3.19,2.57.07,3,.13A20,20,0,0,0,171.91,464.15Z"></path>
        <path class="cls-10" d="M171.92,464.87c0-.52.08-1.87-1.33-1.93a19.34,19.34,0,0,0-2.84.1s-2.68,3.33-3.24,3.88-1,.62,1.06.72,2.14.59,3.83-.07A5.3,5.3,0,0,0,171.92,464.87Z"></path>
        <path class="cls-11" d="M167.75,463a23.27,23.27,0,0,0-1.83,3c-.68,1.39-.77,1.79-2.08,1.48s-4.45,0-5.51-.93-1-.84-.39-2.48,1.54-2.3,3.3-3.34a3.51,3.51,0,0,1,4.07-.14A9.06,9.06,0,0,1,167.75,463Z"></path>
        <path class="cls-19" d="M146,464.68s-3.47-.63-5,1.83-1,4.86-.12,5.16a10.19,10.19,0,0,0,1.48.14c1,.07.84-2.36.88-2.41Z"></path>
        <path class="cls-9" d="M149.27,466.32s-3.12-2.35-4.25-1.46-2.49,1.76-2.49,1.76l.13.79s2.69,1,3.26.78,1.57-.72,1.82-.79A13.69,13.69,0,0,0,149.27,466.32Z"></path>
        <path class="cls-10" d="M149.49,466.75c-.13-.32-.5-1.15-1.37-.77a13.21,13.21,0,0,0-1.67.9s-.63,2.79-.8,3.29-.42.67.85.11,1.46-.27,2.28-1.16A3.55,3.55,0,0,0,149.49,466.75Z"></path>
        <path class="cls-11" d="M146.45,466.88a15.28,15.28,0,0,0-.22,2.33c0,1,.07,1.3-.81,1.51s-2.66,1.33-3.58,1.06-.87-.2-1-1.37a4.17,4.17,0,0,1,1-3,2.37,2.37,0,0,1,2.41-1.29A6.21,6.21,0,0,1,146.45,466.88Z"></path>
      </g>
    </g>
  </g>
</svg>
