<?xml version="1.0" encoding="UTF-8"?>
<svg xmlns="http://www.w3.org/2000/svg" xmlns:xlink="http://www.w3.org/1999/xlink" viewBox="0 0 296.35 363.24">
  <defs>
    <style>
      .cls-1 {
        fill: none;
      }

      .cls-2 {
        fill: #8e6848;
      }

      .cls-3 {
        clip-path: url(#clip-path);
      }

      .cls-4 {
        fill: url(#Безымянный_градиент_53);
      }

      .cls-5 {
        fill: #713e21;
      }

      .cls-6 {
        fill: #3d271f;
      }

      .cls-7 {
        fill: #69391e;
      }

      .cls-8 {
        fill: #6b472f;
      }

      .cls-9 {
        fill: #5c3624;
      }

      .cls-10 {
        fill: #795135;
      }

      .cls-11 {
        fill: #9a734f;
      }

      .cls-12 {
        fill: #f9dec0;
      }

      .cls-13 {
        fill: #85563a;
      }

      .cls-14 {
        fill: #609534;
      }

      .cls-15 {
        fill: #a0ca30;
      }

      .cls-16 {
        fill: #78a731;
      }

      .cls-17 {
        fill: #abcf34;
      }

      .cls-18 {
        fill: #93b74a;
      }

      .cls-19 {
        fill: #78a830;
      }

      .cls-20 {
        fill: #6b482f;
      }
    </style>
    <clipPath id="clip-path">
      <polyline class="cls-1" points="20.79 286.07 155.26 349.36 279.65 286.37 150.33 231.57 20.79 286.07"></polyline>
    </clipPath>
    <linearGradient id="Безымянный_градиент_53" data-name="Безымянный градиент 53" x1="90.41" y1="-2921" x2="91.41" y2="-2921" gradientTransform="translate(-23416.51 756452.77) scale(258.87)" gradientUnits="userSpaceOnUse">
      <stop offset="0" stop-color="#9b714e"></stop>
      <stop offset="0.38" stop-color="#9b714e"></stop>
      <stop offset="0.8" stop-color="#7d4e2f"></stop>
      <stop offset="1" stop-color="#6e3c20"></stop>
    </linearGradient>
  </defs>
  <g id="Слой_2" data-name="Слой 2">
    <g id="Слой_1-2" data-name="Слой 1">
      <g>
        <path class="cls-2" d="M155.26,171.32s25.9,30.41,45.9,31.66,88.31-20.36,88.31-20.36l6.88-71.13L155.26,61.72Z"></path>
        <path class="cls-2" d="M0,106.45l14.07,92.77s50,7.51,58.75,5,48.76-17.51,60-17.51,22.44-15.41,22.44-15.41V61.72Z"></path>
        <g class="cls-3">
          <rect class="cls-4" x="84.46" y="158.06" width="131.51" height="264.82" transform="translate(-147.89 424.88) rotate(-86.92)"></rect>
        </g>
        <path class="cls-5" d="M20.79,286.06l-6.72-86.83s63.76-1.25,81.26-10,59.93-17.91,59.93-17.91l-4.93,60.27Z"></path>
        <path class="cls-6" d="M111.66,204.62c-1.89-1.56-5-3.83-7.64-4.49l0,0s-10.18-3.05-15.73,3.8-4.6,14.24-2.08,15.43a29.61,29.61,0,0,0,4.39.92l.25-.12c2.94,0,7.18-1.86,9.44-2.14a4.59,4.59,0,0,0,1.63-.42c.45-.12,1-.26,1.75-.51,4-1.24,4.47-.34,7.23-2.74s2.92-6.85,2.92-6.85l-.56-1.35,0,0-.11-.1a2.63,2.63,0,0,0-1.57-1.36"></path>
        <path class="cls-6" d="M57.06,213.58c-3.1.49-7.92,1.58-10.8,3.57l0-.08s-11.58,7.25-9.66,18.41S46.42,252,49.7,250.56a39.74,39.74,0,0,0,4.61-3.45l.1-.36c2.48-2.83,4.3-8.5,6-10.91a5.64,5.64,0,0,0,1-1.93c.28-.55.57-1.13,1-2.13,2.17-4.88,3.45-4.6,3.48-9.3s-4.15-8.63-4.15-8.63a8.88,8.88,0,0,0-1.76-.6v-.07l-.2,0a3.44,3.44,0,0,0-2.64.37"></path>
        <path class="cls-7" d="M155.26,171.32l-4.93,60.25,129.33,54.81,9.81-103.76s-40.33-4.65-57.82-2.15-48,10-57.15,5-19.24-14.16-19.24-14.16"></path>
        <path class="cls-6" d="M106,233.22a9.23,9.23,0,0,0-3.37-.83v0s-4.16,0-5.49,3.19-.13,5.85.95,6l1.75-.14.08-.08a31.07,31.07,0,0,0,3.31-1.85l.56-.35.6-.38c1.35-.92,1.64-.64,2.4-1.84a4.11,4.11,0,0,0,.33-2.9l-.34-.44v0l-.05,0Z"></path>
        <path class="cls-6" d="M232.71,207.28a6.16,6.16,0,0,0-.29-2.39h0s-1-2.71-3.42-2.77-3.84,1.34-3.69,2.09l.54,1.1.06,0,2,1.69.36.28.4.3c.93.65.82.91,1.79,1.1a2.82,2.82,0,0,0,2-.49l.2-.34h0v0Z"></path>
        <path class="cls-6" d="M268.83,250.84c-.95-3-2.72-7.69-5.12-10.27l.08,0s-8.93-10.51-19.79-7-15.06,12.22-13.16,15.29A39.61,39.61,0,0,0,235,253l.36,0c3.19,2.07,9.12,3.06,11.76,4.35a6.2,6.2,0,0,0,2.07.69c.58.19,1.22.39,2.26.69,5.21,1.46,5.11,2.78,9.8,2.12s8-5.38,8-5.38a9.22,9.22,0,0,0,.35-1.86h.05l0-.19a3.44,3.44,0,0,0-.76-2.58"></path>
        <path class="cls-6" d="M198.55,215.08c-1.69,1.76-4.17,4.67-5,7.24l-.05,0s-3.77,9.87,2.6,15.87,13.76,5.62,15.13,3.2a31.75,31.75,0,0,0,1.23-4.28l-.1-.25c.2-2.9-1.31-7.25-1.4-9.5a5.08,5.08,0,0,0-.31-1.65c-.09-.46-.19-1-.37-1.77-.93-4,0-4.46-2.18-7.37s-6.57-3.4-6.57-3.4l-1.37.45,0,0-.12.11a2.54,2.54,0,0,0-1.45,1.44"></path>
        <path class="cls-8" d="M199,288.77s2.76.76,4.22-1.12,1.15-3.86.47-4.16l-1.19-.23c-.78-.13-.85,1.86-.89,1.89Z"></path>
        <path class="cls-9" d="M196.5,287.21s2.36,2.13,3.33,1.48,2.16-1.25,2.16-1.25l-.06-.64-2.58-.86-1.53.51Z"></path>
        <path class="cls-10" d="M196.35,286.84c.09.27.33,1,1.07.73a12,12,0,0,0,1.41-.61l.89-2.6c.17-.4.38-.52-.68-.16s-1.21.12-1.93.78a2.91,2.91,0,0,0-.76,1.86"></path>
        <path class="cls-11" d="M198.84,287a13.19,13.19,0,0,0,.34-1.87c.07-.82,0-1.05.76-1.15s2.26-.9,3-.61.68.23.68,1.18a3.36,3.36,0,0,1-1,2.34,1.89,1.89,0,0,1-2,.87,4.66,4.66,0,0,1-1.71-.76"></path>
        <path class="cls-8" d="M170.29,272.28s6.44.34,8.74-4.49.68-9-1-9.39a19.11,19.11,0,0,0-2.72.08c-1.76.1-1,4.49-1.05,4.58Z"></path>
        <path class="cls-9" d="M164,270.07s6.21,3.54,8,1.65,4.13-3.76,4.13-3.76l-.43-1.41s-5.1-1.19-6.09-.66-2.68,1.67-3.12,1.86Z"></path>
        <path class="cls-10" d="M163.46,269.33c.31.56,1.17,2,2.67,1.08a26.06,26.06,0,0,0,2.83-2s.49-5.21.68-6.15.61-1.31-1.56,0-2.58.84-3.87,2.64a6.53,6.53,0,0,0-.75,4.46"></path>
        <path class="cls-11" d="M169,268.39a27.35,27.35,0,0,0-.14-4.27c-.24-1.88-.41-2.36,1.14-2.93s4.51-3,6.25-2.76,1.61.18,2.07,2.27,0,3.39-1.12,5.65-2.31,2.74-4.07,2.87a11,11,0,0,1-4.13-.83"></path>
        <path class="cls-8" d="M143.49,293.19s5,3.81,9.52,1.16,5.51-7,4.36-8.13a16.09,16.09,0,0,0-2.24-1.43c-1.49-.89-3.26,3.09-3.36,3.13Z"></path>
        <path class="cls-9" d="M139.58,287.93s3.07,6.27,5.6,5.75a54.47,54.47,0,0,1,5.4-.79l.42-1.36s-3.48-3.77-4.56-3.88-3.08-.13-3.55-.2Z"></path>
        <path class="cls-10" d="M139.58,287.06c-.06.62-.14,2.24,1.57,2.34a25.44,25.44,0,0,0,3.39-.08l3.92-4.6c.69-.66,1.22-.73-1.25-.87s-2.55-.74-4.59,0a6.37,6.37,0,0,0-3,3.2"></path>
        <path class="cls-11" d="M144.54,289.31a28.08,28.08,0,0,0,2.23-3.54c.83-1.64.94-2.12,2.51-1.74s5.32,0,6.57,1.19,1.21,1,.44,3-1.88,2.72-4,3.95a4.18,4.18,0,0,1-4.87.1,10.87,10.87,0,0,1-2.88-2.94"></path>
        <path class="cls-8" d="M131.93,275.86s2.58-4.08.26-7.34-5.67-3.74-6.49-2.78l-.94,1.81c-.58,1.19,2.58,2.27,2.62,2.35Z"></path>
        <path class="cls-9" d="M128.18,279.19s4.58-2.76,4-4.65a41.64,41.64,0,0,1-1-4.06l-1.07-.24s-2.64,2.91-2.65,3.75.11,2.34.07,2.71Z"></path>
        <path class="cls-10" d="M127.53,279.25c.48,0,1.71-.05,1.67-1.35a18.34,18.34,0,0,0-.29-2.58l-3.76-2.69c-.55-.47-.64-.87-.58,1s-.4,2,.32,3.5a4.79,4.79,0,0,0,2.64,2.11"></path>
        <path class="cls-11" d="M128.91,275.32a21.93,21.93,0,0,0-2.85-1.46c-1.31-.53-1.68-.58-1.49-1.81s-.33-4.06.47-5.09.7-1,2.24-.53,2.2,1.26,3.28,2.79a3.18,3.18,0,0,1,.4,3.71,8.18,8.18,0,0,1-2.05,2.39"></path>
        <path class="cls-8" d="M109.15,281.28s1.58-1.36,1-3-1.87-2.27-2.33-2l-.62.63.78,1.31Z"></path>
        <path class="cls-9" d="M107.17,282.18s2.24-.56,2.25-1.41.12-1.81.12-1.81l-.41-.23-1.57,1.2-.32,1.15Z"></path>
        <path class="cls-10" d="M106.88,282.12l.87-.35.21-1.1-1.22-1.6c-.16-.26-.15-.44-.37.35s-.41.78-.3,1.49a2,2,0,0,0,.81,1.21"></path>
        <path class="cls-11" d="M108,280.67l-1-1-.4-.94.86-2.05,1,.06a2.53,2.53,0,0,1,1,1.58,1.36,1.36,0,0,1-.31,1.59Z"></path>
        <path class="cls-8" d="M102.16,293.86s4.4-7.1.36-12.72-9.84-6.43-11.27-4.77a23.72,23.72,0,0,0-1.6,3.15c-1,2.06,4.47,3.91,4.53,4.05Z"></path>
        <path class="cls-9" d="M95.69,299.65s7.91-4.83,6.91-8.09-1.71-7-1.71-7L99,284.13s-4.54,5.06-4.55,6.51.21,4.08.16,4.71Z"></path>
        <path class="cls-10" d="M94.55,299.76c.82,0,3-.1,2.88-2.35a32.21,32.21,0,0,0-.52-4.47s-5.61-3.81-6.55-4.63-1.11-1.51-1,1.77-.66,3.47.58,6,4.6,3.64,4.6,3.64"></path>
        <path class="cls-11" d="M96.91,292.93a39.52,39.52,0,0,0-4.94-2.5c-2.29-.89-2.93-1-2.62-3.11s-.61-7,.78-8.82,1.2-1.73,3.87-.94,3.82,2.15,5.7,4.8,1.68,4.34.74,6.42a14.23,14.23,0,0,1-3.53,4.15"></path>
        <path class="cls-12" d="M161.65,145.67a18.57,18.57,0,0,1-1.06,8.77c-.94,2.73-2.09,5.31-3,8s-1.55,5.42-2.33,8.13a62.75,62.75,0,0,1-2.59,8.12c-1.18,2.64-3,4.84-4.52,7.22a38.19,38.19,0,0,0-3.72,7.56,35.83,35.83,0,0,0-1.84,16.68,37.22,37.22,0,0,1,1.64-16.75,38.82,38.82,0,0,1,3.58-7.71c1.46-2.43,3.24-4.66,4.32-7.24a63.3,63.3,0,0,0,2.39-8.08l2.13-8.22c.77-2.76,1.88-5.39,2.58-8.07a15.19,15.19,0,0,0,.32-7.95,1.06,1.06,0,1,1,2.05-.56l0,.11Z"></path>
        <path class="cls-12" d="M160.74,147.39a48,48,0,0,1,.08,7.67,46.52,46.52,0,0,1-1,7.58,10.47,10.47,0,0,1-1.44,3.7c-.77,1-1.54,2-2.34,3-1.58,2-3.25,3.88-5,5.69a46.52,46.52,0,0,1-12.13,9,61.08,61.08,0,0,0-6.48,3.85,12.33,12.33,0,0,0-4.74,5.7,12.45,12.45,0,0,1,4.64-5.85,60.75,60.75,0,0,1,6.4-4A48.94,48.94,0,0,0,145,179.6a50,50,0,0,0,5.51-5.09c1.7-1.84,3.3-3.76,4.83-5.76.76-1,1.51-2,2.25-3a10,10,0,0,0,1.21-3.33,46.94,46.94,0,0,0,.82-7.41,45.74,45.74,0,0,0-.18-7.42v0a.64.64,0,0,1,.56-.72.66.66,0,0,1,.72.56Z"></path>
        <path class="cls-12" d="M160.71,146.54a178.49,178.49,0,0,0-7.88,23.67c-1,4-2,8.1-2.69,12.2s-1.28,8.24-1.87,12.37c.48-4.14.88-8.3,1.55-12.42s1.44-8.23,2.38-12.31a180.23,180.23,0,0,1,7.31-24,.64.64,0,1,1,1.2.46Z"></path>
        <path class="cls-12" d="M159.85,146.6a66.09,66.09,0,0,1-.39,14.41c-.55,4.75-1.27,9.45-1.93,14.18s-1.35,9.44-2.07,14.15c-.38,2.35-.65,4.73-1.19,7.07a18,18,0,0,1-2.74,6.6,17.92,17.92,0,0,0,2.29-6.69c.35-2.33.54-4.71.8-7.08q.7-7.12,1.52-14.23l1.61-14.2a104.71,104.71,0,0,0,.81-14.13.65.65,0,0,1,1.29-.08Z"></path>
        <path class="cls-12" d="M161,148.49a21.7,21.7,0,0,0-.12,4,27.14,27.14,0,0,0,.63,4,40.33,40.33,0,0,0,2.83,7.66c2.4,5,5.47,9.61,8.12,14.54a50.92,50.92,0,0,1,3.41,7.7,28.63,28.63,0,0,1,1.47,8.3c.2,5.61-.92,11.13-.44,16.69-.69-5.54.13-11.15-.18-16.66a28,28,0,0,0-1.66-8.05,48.9,48.9,0,0,0-3.54-7.46c-2.72-4.81-6-9.34-8.49-14.42a36.74,36.74,0,0,1-3-8,26.54,26.54,0,0,1-.61-4.25,22.25,22.25,0,0,1,.27-4.31.63.63,0,0,1,.74-.53.64.64,0,0,1,.54.71Z"></path>
        <path class="cls-12" d="M161.48,146.37c.48,2.06,1.07,4.18,1.66,6.26l.9,3.11c.33,1,.7,2,1.11,3,1.62,4,3.7,7.89,5,12.2a31.75,31.75,0,0,1,1.11,6.59c.15,2.2.16,4.39.27,6.56a33,33,0,0,0,.82,6.43,16.84,16.84,0,0,0,2.63,5.9,16.06,16.06,0,0,1-3.1-5.77,33.44,33.44,0,0,1-1.21-6.49c-.47-4.37-.57-8.75-1.94-12.78s-3.55-7.82-5.38-11.85c-.46-1-.88-2-1.28-3.1s-.7-2.1-1-3.16c-.65-2.1-1.29-4.18-1.85-6.36a1.2,1.2,0,1,1,2.32-.59v.05Z"></path>
        <path class="cls-12" d="M161.54,151.13c0,3.35-.71,6.53-1,9.73-.09.8-.17,1.6-.2,2.39s0,1.6,0,2.43a7.67,7.67,0,0,1-1.56,4.75c-.53.66-1.12,1.22-1.67,1.8a16.7,16.7,0,0,0-1.51,1.85,14.09,14.09,0,0,0-2,4.33,13.35,13.35,0,0,0,.9,9.41,13.57,13.57,0,0,1-1.23-9.49,15,15,0,0,1,1.9-4.53,16.78,16.78,0,0,1,1.5-2c.54-.61,1.11-1.18,1.58-1.81a6.92,6.92,0,0,0,1.25-4.36c0-.79,0-1.6,0-2.43s.06-1.65.12-2.46c.26-3.25.82-6.48.75-9.62v0a.65.65,0,1,1,1.29,0Z"></path>
        <path class="cls-12" d="M162.07,150.54a30.79,30.79,0,0,1,4.49,6.43,19.58,19.58,0,0,1,2.24,7.44,19.45,19.45,0,0,0-2.61-7.24,29.87,29.87,0,0,0-4.73-6.06.42.42,0,0,1,.59-.59Z"></path>
        <path class="cls-12" d="M160.11,146.94a26.3,26.3,0,0,0-2.32,15,73.69,73.69,0,0,0,3.73,15.2,122.16,122.16,0,0,1,4.47,15.2,30.78,30.78,0,0,1-.49,15.69c1.5-5.09,1.11-10.49,0-15.58a119.59,119.59,0,0,0-4.83-15,68.93,68.93,0,0,1-4.12-15.37,31.89,31.89,0,0,1,0-8,22.88,22.88,0,0,1,2.46-7.71.64.64,0,1,1,1.14.6Z"></path>
        <path class="cls-12" d="M157.57,154.92a108.7,108.7,0,0,0,9.88,26.28c1.06,2.11,2.23,4.14,3.3,6.26a17.43,17.43,0,0,1,1.92,6.84c.4,4.71-.53,9.5,1,14.06a22.59,22.59,0,0,1-1-7c-.06-2.36,0-4.72-.23-7a17.12,17.12,0,0,0-2-6.65c-1.11-2.05-2.32-4.09-3.4-6.19a109.64,109.64,0,0,1-10.33-26.35.51.51,0,1,1,1-.23Z"></path>
        <path class="cls-12" d="M159.2,148.18a14.19,14.19,0,0,0,4.15,6,18.34,18.34,0,0,0,6.52,3.66c1.2.38,2.47.67,3.69,1.13a12.92,12.92,0,0,1,3.37,2,26.09,26.09,0,0,1,4.95,5.89,26.16,26.16,0,0,0-5.11-5.69,12.3,12.3,0,0,0-3.34-1.81c-1.2-.41-2.46-.65-3.7-1a18.93,18.93,0,0,1-6.86-3.57,15,15,0,0,1-4.61-6.26.51.51,0,0,1,.29-.64.5.5,0,0,1,.65.29Z"></path>
        <polygon class="cls-13" points="0 106.45 155.26 171.31 296.35 111.49 155.26 61.72 0 106.45"></polygon>
        <path class="cls-14" d="M160.71,119.22s-4.54-67.78-30-97.73c0,0,21.63,46.13,27.24,97.19Z"></path>
        <path class="cls-15" d="M159.85,117.4S161.32,60,157.55,25c0,0-1.15,88.63-.06,93.54Z"></path>
        <path class="cls-16" d="M159.73,117.59a.83.83,0,0,0,.84-.73c1-8.81,10.82-95.41,10.3-98.78,0,0-15.57,88.76-13.38,100.5Z"></path>
        <path class="cls-17" d="M159.57,115.54s-3.37-66.93-4.19-70.76c0,0,.18,70.58,1.82,75.23l2.37-2Z"></path>
        <path class="cls-18" d="M159.85,117.4S149.45,6,146.11.46c-1.27-2.11-.42,3.74-.42,3.74s8.3,90.49,11.75,114.7Z"></path>
        <path class="cls-19" d="M159.1,117.63s-4-53.35-39.41-103.93c0,0,28.91,60,37.75,105.2Z"></path>
        <path class="cls-20" d="M165.47,125.61a1.79,1.79,0,0,0-1.71-.63c-.94.3-1.32,1-1.15,1.31a2.28,2.28,0,0,0,.35.36c.23.23.73-.42.75-.43Z"></path>
        <path class="cls-9" d="M166,126.75s-.29-1.29-.78-1.3-1-.09-1-.09l-.14.23s.48.85.67.91.57.16.65.2Z"></path>
        <path class="cls-10" d="M165.92,126.91c0-.11.12-.41-.18-.5a4.66,4.66,0,0,0-.63-.13s-.77.59-.93.68-.25.08.2.21.44.25.84.2A1.18,1.18,0,0,0,165.92,126.91Z"></path>
        <path class="cls-11" d="M165.11,126.28a6,6,0,0,0-.57.56c-.22.26-.26.35-.54.21s-1-.24-1.16-.51-.18-.24,0-.57a1.44,1.44,0,0,1,.91-.55.8.8,0,0,1,.9.19A2.22,2.22,0,0,1,165.11,126.28Z"></path>
        <path class="cls-20" d="M141.26,116.82a2.6,2.6,0,0,0-2.64-.38c-1.27.71-1.57,1.89-1.26,2.23a5.11,5.11,0,0,0,.62.41c.4.26.92-.84,1-.85Z"></path>
        <path class="cls-9" d="M142.32,118.3s-.82-1.76-1.52-1.63-1.51.19-1.51.19l-.13.37s1,1.07,1.25,1.11.85,0,1,.08A7.68,7.68,0,0,0,142.32,118.3Z"></path>
        <path class="cls-10" d="M142.31,118.54c0-.17.05-.62-.42-.65a6.34,6.34,0,0,0-.94,0s-.93,1.08-1.12,1.25-.34.2.34.25.71.22,1.28,0A1.75,1.75,0,0,0,142.31,118.54Z"></path>
        <path class="cls-11" d="M141,117.89a7.56,7.56,0,0,0-.64,1c-.24.45-.28.58-.71.47s-1.48,0-1.82-.37-.33-.3-.11-.83a2.09,2.09,0,0,1,1.14-1.08,1.18,1.18,0,0,1,1.36,0A3.08,3.08,0,0,1,141,117.89Z"></path>
        <path class="cls-20" d="M158.36,113.32s-5.45-2.72-9.26.6-4,7.59-2.69,8.51a17.63,17.63,0,0,0,2.39.95c1.57.58,2.55-3.52,2.64-3.57S158.36,113.32,158.36,113.32Z"></path>
        <path class="cls-9" d="M163,117.62s-4-5.41-6.35-4.47-5,1.72-5,1.72l-.15,1.37s4,3,5,2.87,2.94-.43,3.41-.44A23,23,0,0,0,163,117.62Z"></path>
        <path class="cls-10" d="M163.17,118.44c0-.6-.28-2.15-1.9-1.93a23.35,23.35,0,0,0-3.21.68s-2.39,4.33-2.92,5.07-1,.91,1.35.6,2.56.25,4.36-.83A6.13,6.13,0,0,0,163.17,118.44Z"></path>
        <path class="cls-11" d="M158.06,117.19a27.93,27.93,0,0,0-1.49,3.76c-.5,1.72-.52,2.19-2.08,2.11s-5.06.92-6.46,0-1.33-.76-.94-2.75,1.3-2.92,3.09-4.47a4.07,4.07,0,0,1,4.62-1A10.59,10.59,0,0,1,158.06,117.19Z"></path>
        <path class="cls-20" d="M179.32,115.06s-3.13-4.27-7.4-3.22-6.11,4.29-5.47,5.52a15.32,15.32,0,0,0,1.47,1.68c1,1.08,3.37-1.7,3.47-1.71S179.32,115.06,179.32,115.06Z"></path>
        <path class="cls-9" d="M181.21,120.24s-1-5.8-3.13-6-4.55-.66-4.55-.66l-.67,1s1.91,3.87,2.76,4.22,2.45.84,2.81,1A20.53,20.53,0,0,0,181.21,120.24Z"></path>
        <path class="cls-10" d="M181,120.94c.2-.49.64-1.77-.71-2.26a20.2,20.2,0,0,0-2.75-.74s-3.57,2.4-4.27,2.76-1.15.3.8,1,1.89,1.21,3.71,1.09A5.37,5.37,0,0,0,181,120.94Z"></path>
        <path class="cls-11" d="M177.55,117.94a23.14,23.14,0,0,0-2.65,2.32c-1.06,1.13-1.27,1.48-2.44.8s-4.29-1.3-5-2.54-.73-1.11.36-2.5,2.17-1.74,4.17-2.23a3.54,3.54,0,0,1,4,1.09A9,9,0,0,1,177.55,117.94Z"></path>
        <path class="cls-20" d="M164.73,117.28s-4.51-3.48-8.6-1.13-5,6.24-4,7.32a16.78,16.78,0,0,0,2,1.3c1.33.82,3-2.76,3.06-2.8S164.73,117.28,164.73,117.28Z"></path>
        <path class="cls-9" d="M168.22,122.06s-2.73-5.69-5-5.24-4.88.67-4.88.67l-.39,1.23s3.11,3.43,4.09,3.54,2.78.13,3.2.21A22,22,0,0,0,168.22,122.06Z"></path>
        <path class="cls-10" d="M168.21,122.84c.06-.56.14-2-1.4-2.12a21.51,21.51,0,0,0-3.06,0s-3,3.54-3.59,4.12-1.09.65,1.13.8,2.3.68,4.14,0A5.74,5.74,0,0,0,168.21,122.84Z"></path>
        <path class="cls-11" d="M163.75,120.77A26.14,26.14,0,0,0,161.7,124c-.76,1.48-.86,1.91-2.28,1.56s-4.8-.07-5.93-1.14-1.08-.93-.37-2.69,1.73-2.44,3.65-3.53a3.79,3.79,0,0,1,4.4-.06A9.81,9.81,0,0,1,163.75,120.77Z"></path>
        <path class="cls-20" d="M188.18,125.18a2.73,2.73,0,0,0,2.5-1.24c.68-1.36.24-2.57-.23-2.67a5.07,5.07,0,0,0-.77,0c-.51,0-.31,1.27-.32,1.3Z"></path>
        <path class="cls-9" d="M186.39,124.52s1.75,1,2.28.51,1.19-1.06,1.19-1.06l-.12-.39a5.41,5.41,0,0,0-1.72-.22c-.28.15-.77.46-.9.52A6.47,6.47,0,0,0,186.39,124.52Z"></path>
        <path class="cls-10" d="M186.26,124.31c.08.16.32.56.75.32a7.14,7.14,0,0,0,.81-.56s.16-1.48.22-1.75.18-.37-.44,0-.74.23-1.11.74A1.78,1.78,0,0,0,186.26,124.31Z"></path>
        <path class="cls-11" d="M187.82,124.07a8.65,8.65,0,0,0,0-1.22c-.06-.53-.11-.67.33-.82s1.3-.84,1.79-.76.46.06.58.65a2.18,2.18,0,0,1-.34,1.6,1.21,1.21,0,0,1-1.17.8A3.05,3.05,0,0,1,187.82,124.07Z"></path>
        <path class="cls-20" d="M128.12,128.31a2.72,2.72,0,0,0,2.5-1.24c.67-1.36.23-2.56-.24-2.67a5.07,5.07,0,0,0-.77,0c-.51,0-.3,1.27-.32,1.3Z"></path>
        <path class="cls-9" d="M126.33,127.65s1.75,1,2.28.51,1.18-1,1.18-1l-.11-.4a5.78,5.78,0,0,0-1.73-.22c-.28.15-.77.46-.9.52A7.24,7.24,0,0,0,126.33,127.65Z"></path>
        <path class="cls-10" d="M126.19,127.44c.08.16.32.57.75.32a7.14,7.14,0,0,0,.81-.56s.16-1.48.23-1.74.17-.37-.45,0-.74.22-1.11.73A1.85,1.85,0,0,0,126.19,127.44Z"></path>
        <path class="cls-11" d="M127.75,127.2a8.64,8.64,0,0,0,0-1.22c-.06-.53-.11-.66.33-.82s1.3-.84,1.79-.76.46.06.58.66a2.12,2.12,0,0,1-.34,1.59,1.24,1.24,0,0,1-1.17.81A3.19,3.19,0,0,1,127.75,127.2Z"></path>
        <path class="cls-20" d="M145.27,126.15s2.32.32,3.29-1.36.53-3.24-.06-3.42a6.67,6.67,0,0,0-1-.05c-.65,0-.5,1.59-.53,1.62Z"></path>
        <path class="cls-9" d="M143.06,125.15s2.13,1.47,2.85.85,1.6-1.24,1.6-1.24l-.11-.52a7.19,7.19,0,0,0-2.18-.42c-.37.16-1,.52-1.18.58A7.91,7.91,0,0,0,143.06,125.15Z"></path>
        <path class="cls-10" d="M142.9,124.87c.09.22.36.75.93.47a8.53,8.53,0,0,0,1.08-.64s.33-1.86.44-2.2.26-.45-.57,0-1,.22-1.48.84A2.31,2.31,0,0,0,142.9,124.87Z"></path>
        <path class="cls-11" d="M144.91,124.7a10.92,10.92,0,0,0,.08-1.55c0-.68-.08-.86.5-1s1.72-.95,2.34-.8.58.11.68.88a2.79,2.79,0,0,1-.58,2,1.56,1.56,0,0,1-1.56.92A3.92,3.92,0,0,1,144.91,124.7Z"></path>
        <path class="cls-20" d="M157.79,123.71a2.22,2.22,0,0,1,2-.31c1,.46,1.26,1.26,1,1.5a4,4,0,0,1-.47.29c-.31.19-.73-.55-.76-.56Z"></path>
        <path class="cls-9" d="M157,124.75s.6-1.22,1.14-1.15,1.17.1,1.17.1l.11.26s-.71.74-.94.77-.66.06-.76.08A6.1,6.1,0,0,1,157,124.75Z"></path>
        <path class="cls-10" d="M157,124.91a.34.34,0,0,1,.31-.45,5.1,5.1,0,0,1,.73,0s.75.71.9.83.27.13-.26.18-.54.16-1,0A1.29,1.29,0,0,1,157,124.91Z"></path>
        <path class="cls-11" d="M158.06,124.44a4.57,4.57,0,0,1,.52.65c.2.3.23.39.56.3s1.14,0,1.4-.29.25-.2.06-.56a1.51,1.51,0,0,0-.9-.71,1,1,0,0,0-1,0A2.3,2.3,0,0,0,158.06,124.44Z"></path>
        <path class="cls-20" d="M176.18,118.54s-4.23-3.13-8-.87-4.54,5.86-3.56,6.84a15.11,15.11,0,0,0,1.89,1.17c1.25.73,2.69-2.61,2.78-2.65S176.18,118.54,176.18,118.54Z"></path>
        <path class="cls-9" d="M179.5,122.9s-2.63-5.22-4.74-4.75-4.51.71-4.51.71l-.33,1.15s3,3.11,3.85,3.19,2.58.07,3,.14A21.1,21.1,0,0,0,179.5,122.9Z"></path>
        <path class="cls-10" d="M179.51,123.62c.05-.52.09-1.87-1.33-1.93a21.09,21.09,0,0,0-2.84.1s-2.67,3.33-3.23,3.89-1,.62,1.06.71,2.14.59,3.83-.06A5.3,5.3,0,0,0,179.51,123.62Z"></path>
        <path class="cls-11" d="M175.34,121.79a24.58,24.58,0,0,0-1.83,3c-.67,1.39-.76,1.79-2.08,1.49s-4.45,0-5.5-.94-1-.84-.4-2.48,1.55-2.29,3.3-3.34a3.52,3.52,0,0,1,4.08-.14A9.12,9.12,0,0,1,175.34,121.79Z"></path>
        <path class="cls-20" d="M153.59,123.44s-3.47-.63-5.05,1.83-1,4.85-.12,5.15a10,10,0,0,0,1.48.15c1,.07.85-2.37.89-2.41Z"></path>
        <path class="cls-9" d="M156.86,125.07s-3.12-2.35-4.24-1.45-2.5,1.76-2.5,1.76l.14.79s2.69,1,3.26.77,1.56-.71,1.82-.79A14.43,14.43,0,0,0,156.86,125.07Z"></path>
        <path class="cls-10" d="M157.08,125.5c-.12-.32-.5-1.14-1.37-.76a13.21,13.21,0,0,0-1.67.9s-.62,2.79-.8,3.28-.42.67.85.12,1.46-.28,2.28-1.17A3.55,3.55,0,0,0,157.08,125.5Z"></path>
        <path class="cls-11" d="M154,125.64a16.61,16.61,0,0,0-.22,2.32c0,1,.07,1.3-.81,1.51s-2.66,1.33-3.58,1.06-.86-.2-1-1.37a4.15,4.15,0,0,1,1-3,2.32,2.32,0,0,1,2.4-1.28A5.92,5.92,0,0,1,154,125.64Z"></path>
      </g>
    </g>
  </g>
</svg>
