<?xml version="1.0" encoding="UTF-8"?>
<svg xmlns="http://www.w3.org/2000/svg" xmlns:xlink="http://www.w3.org/1999/xlink" viewBox="0 0 296.35 301.52">
  <defs>
    <style>
      .cls-1 {
        fill: none;
      }

      .cls-2 {
        fill: #8e6848;
      }

      .cls-3 {
        clip-path: url(#clip-path);
      }

      .cls-4 {
        fill: url(#Безымянный_градиент_52);
      }

      .cls-5 {
        fill: #713e21;
      }

      .cls-6 {
        fill: #3d271f;
      }

      .cls-7 {
        fill: #69391e;
      }

      .cls-8 {
        fill: #6b472f;
      }

      .cls-9 {
        fill: #5c3624;
      }

      .cls-10 {
        fill: #795135;
      }

      .cls-11 {
        fill: #9a734f;
      }

      .cls-12 {
        fill: #f9dec0;
      }

      .cls-13 {
        fill: #85563a;
      }

      .cls-14 {
        fill: #95c52d;
      }

      .cls-15 {
        fill: #abcf34;
      }

      .cls-16 {
        fill: #6b482f;
      }
    </style>
    <clipPath id="clip-path">
      <polyline class="cls-1" points="20.79 224.35 155.26 287.64 279.65 224.65 150.33 169.85 20.79 224.35"></polyline>
    </clipPath>
    <linearGradient id="Безымянный_градиент_52" data-name="Безымянный градиент 52" x1="516.28" y1="-2982.72" x2="517.28" y2="-2982.72" gradientTransform="translate(-133663.17 772368.57) scale(258.87)" gradientUnits="userSpaceOnUse">
      <stop offset="0" stop-color="#9b714e"></stop>
      <stop offset="0.38" stop-color="#9b714e"></stop>
      <stop offset="0.8" stop-color="#7d4e2f"></stop>
      <stop offset="1" stop-color="#6e3c20"></stop>
    </linearGradient>
  </defs>
  <g id="Слой_2" data-name="Слой 2">
    <g id="Слой_1-2" data-name="Слой 1">
      <g>
        <path class="cls-2" d="M155.26,109.6s25.9,30.41,45.9,31.66,88.31-20.36,88.31-20.36l6.88-71.13L155.26,0Z"></path>
        <path class="cls-2" d="M0,44.73,14.07,137.5s50,7.51,58.75,5,48.76-17.51,60-17.51,22.44-15.41,22.44-15.41V0Z"></path>
        <g class="cls-3">
          <rect class="cls-4" x="84.46" y="96.34" width="131.51" height="264.82" transform="translate(-86.26 366.47) rotate(-86.92)"></rect>
        </g>
        <path class="cls-5" d="M20.79,224.34l-6.72-86.83s63.76-1.25,81.26-10,59.93-17.91,59.93-17.91l-4.93,60.27Z"></path>
        <path class="cls-6" d="M111.66,142.9c-1.89-1.56-5-3.83-7.64-4.49l0,0s-10.18-3.05-15.73,3.8-4.6,14.24-2.08,15.43a29.61,29.61,0,0,0,4.39.92l.25-.12c2.94,0,7.18-1.86,9.44-2.14a4.59,4.59,0,0,0,1.63-.42c.45-.12,1-.26,1.75-.51,4-1.24,4.47-.34,7.23-2.74s2.92-6.85,2.92-6.85l-.56-1.35,0,0-.11-.1a2.63,2.63,0,0,0-1.57-1.36"></path>
        <path class="cls-6" d="M57.06,151.86c-3.1.49-7.92,1.58-10.8,3.57l0-.09s-11.58,7.26-9.66,18.42,9.84,16.5,13.12,15.08a39.74,39.74,0,0,0,4.61-3.45l.1-.36c2.48-2.83,4.3-8.5,6-10.91a5.64,5.64,0,0,0,1-1.93c.28-.55.57-1.14,1-2.13,2.17-4.88,3.45-4.6,3.48-9.3s-4.15-8.63-4.15-8.63a9.5,9.5,0,0,0-1.76-.61v-.06l-.2,0a3.44,3.44,0,0,0-2.64.37"></path>
        <path class="cls-7" d="M155.26,109.6l-4.93,60.25,129.33,54.81,9.81-103.76s-40.33-4.65-57.82-2.16-48,10-57.15,5-19.24-14.16-19.24-14.16"></path>
        <path class="cls-6" d="M106,171.5a9.23,9.23,0,0,0-3.37-.83v0s-4.16,0-5.49,3.19-.13,5.85.95,6l1.75-.14.08-.08a31.07,31.07,0,0,0,3.31-1.85l.56-.35.6-.38c1.35-.92,1.64-.64,2.4-1.84a4.11,4.11,0,0,0,.33-2.9l-.34-.44v0l-.05,0Z"></path>
        <path class="cls-6" d="M232.71,145.56a6.16,6.16,0,0,0-.29-2.39h0s-1-2.71-3.42-2.77-3.84,1.34-3.69,2.09l.54,1.1.06,0,2,1.69.36.28.4.3c.93.65.82.91,1.79,1.1a2.88,2.88,0,0,0,2-.49l.2-.34h0v0Z"></path>
        <path class="cls-6" d="M268.83,189.12c-.95-3-2.72-7.69-5.12-10.27l.08,0s-8.93-10.51-19.79-7-15.06,12.22-13.16,15.29a39.61,39.61,0,0,0,4.12,4.11l.36,0c3.19,2.07,9.12,3,11.76,4.35a6.2,6.2,0,0,0,2.07.69c.58.19,1.22.39,2.26.69,5.21,1.46,5.11,2.78,9.8,2.12s8-5.38,8-5.38a9.37,9.37,0,0,0,.35-1.86h.05l0-.19a3.44,3.44,0,0,0-.76-2.58"></path>
        <path class="cls-6" d="M198.55,153.36c-1.69,1.76-4.17,4.67-5,7.24l-.05,0s-3.77,9.87,2.6,15.87,13.76,5.61,15.13,3.2a31.75,31.75,0,0,0,1.23-4.28l-.1-.25c.2-2.9-1.31-7.25-1.4-9.5a5.08,5.08,0,0,0-.31-1.65c-.09-.46-.19-1-.37-1.77-.93-4,0-4.46-2.18-7.37s-6.57-3.4-6.57-3.4l-1.37.45,0,0-.12.11a2.54,2.54,0,0,0-1.45,1.44"></path>
        <path class="cls-8" d="M199,227.05s2.76.76,4.22-1.12,1.15-3.86.47-4.16l-1.19-.24c-.78-.12-.85,1.87-.89,1.9Z"></path>
        <path class="cls-9" d="M196.5,225.49s2.36,2.12,3.33,1.48,2.16-1.25,2.16-1.25l-.06-.64-2.58-.86-1.53.51Z"></path>
        <path class="cls-10" d="M196.35,225.12c.09.27.33,1,1.07.73a12,12,0,0,0,1.41-.61l.89-2.6c.17-.4.38-.52-.68-.16s-1.21.12-1.93.78a2.91,2.91,0,0,0-.76,1.86"></path>
        <path class="cls-11" d="M198.84,225.23a13.19,13.19,0,0,0,.34-1.87c.07-.82,0-1.05.76-1.15s2.26-.9,3-.61.68.23.68,1.18a3.36,3.36,0,0,1-1,2.34,1.89,1.89,0,0,1-2,.87,4.66,4.66,0,0,1-1.71-.76"></path>
        <path class="cls-8" d="M170.29,210.56s6.44.34,8.74-4.49.68-9-1-9.39a19.11,19.11,0,0,0-2.72.08c-1.76.1-1,4.49-1.05,4.58Z"></path>
        <path class="cls-9" d="M164,208.35s6.21,3.54,8,1.65,4.13-3.76,4.13-3.76l-.43-1.41s-5.1-1.19-6.09-.66-2.68,1.67-3.12,1.86Z"></path>
        <path class="cls-10" d="M163.46,207.61c.31.56,1.17,2,2.67,1.08a26.06,26.06,0,0,0,2.83-2s.49-5.21.68-6.15.61-1.31-1.56,0-2.58.84-3.87,2.64a6.53,6.53,0,0,0-.75,4.46"></path>
        <path class="cls-11" d="M169,206.67a27.35,27.35,0,0,0-.14-4.27c-.24-1.88-.41-2.36,1.14-2.93s4.51-3,6.25-2.76,1.61.18,2.07,2.27,0,3.39-1.12,5.65-2.31,2.74-4.07,2.87a11,11,0,0,1-4.13-.83"></path>
        <path class="cls-8" d="M143.49,231.46s5,3.82,9.52,1.17,5.51-6.95,4.36-8.13a16.09,16.09,0,0,0-2.24-1.43c-1.49-.89-3.26,3.09-3.36,3.13Z"></path>
        <path class="cls-9" d="M139.58,226.21s3.07,6.27,5.6,5.75a54.47,54.47,0,0,1,5.4-.79l.42-1.36s-3.48-3.77-4.56-3.88-3.08-.13-3.55-.2Z"></path>
        <path class="cls-10" d="M139.58,225.34c-.06.62-.14,2.24,1.57,2.34a25.44,25.44,0,0,0,3.39-.08l3.92-4.6c.69-.66,1.22-.73-1.25-.87s-2.55-.74-4.59,0a6.37,6.37,0,0,0-3,3.2"></path>
        <path class="cls-11" d="M144.54,227.59a28.08,28.08,0,0,0,2.23-3.54c.83-1.64.94-2.12,2.51-1.74s5.32,0,6.57,1.19,1.21,1,.44,3-1.88,2.72-4,4a4.18,4.18,0,0,1-4.87.1,10.87,10.87,0,0,1-2.88-2.94"></path>
        <path class="cls-8" d="M131.93,214.14s2.58-4.08.26-7.34-5.67-3.74-6.49-2.78l-.94,1.81c-.58,1.19,2.58,2.27,2.62,2.35Z"></path>
        <path class="cls-9" d="M128.18,217.47s4.58-2.76,4-4.65a41.64,41.64,0,0,1-1-4.06l-1.07-.24s-2.64,2.91-2.65,3.75.11,2.34.07,2.71Z"></path>
        <path class="cls-10" d="M127.53,217.53c.48,0,1.71-.05,1.67-1.35a18.34,18.34,0,0,0-.29-2.58l-3.76-2.69c-.55-.47-.64-.87-.58,1s-.4,2,.32,3.5a4.79,4.79,0,0,0,2.64,2.11"></path>
        <path class="cls-11" d="M128.91,213.6a21.93,21.93,0,0,0-2.85-1.46c-1.31-.53-1.68-.58-1.49-1.81s-.33-4.06.47-5.09.7-1,2.24-.53,2.2,1.26,3.28,2.79a3.18,3.18,0,0,1,.4,3.71,8.18,8.18,0,0,1-2.05,2.39"></path>
        <path class="cls-8" d="M109.15,219.56s1.58-1.36,1-3-1.87-2.27-2.33-2l-.62.63.78,1.31Z"></path>
        <path class="cls-9" d="M107.17,220.46s2.24-.56,2.25-1.41.12-1.81.12-1.81l-.41-.23-1.57,1.2-.32,1.15Z"></path>
        <path class="cls-10" d="M106.88,220.4l.87-.35L108,219l-1.22-1.6c-.16-.26-.15-.44-.37.35s-.41.78-.3,1.49a2,2,0,0,0,.81,1.21"></path>
        <path class="cls-11" d="M108,219l-1-1-.4-.95.86-2,1,.06a2.53,2.53,0,0,1,1,1.58,1.36,1.36,0,0,1-.31,1.59Z"></path>
        <path class="cls-8" d="M102.16,232.13s4.4-7.09.36-12.71-9.84-6.43-11.27-4.77a23.72,23.72,0,0,0-1.6,3.15c-1,2.06,4.47,3.91,4.53,4Z"></path>
        <path class="cls-9" d="M95.69,237.93s7.91-4.83,6.91-8.09-1.71-7-1.71-7L99,222.41s-4.54,5.06-4.55,6.51.21,4.08.16,4.71Z"></path>
        <path class="cls-10" d="M94.55,238c.82,0,3-.1,2.88-2.35a32.21,32.21,0,0,0-.52-4.47s-5.61-3.81-6.55-4.63-1.11-1.51-1,1.77-.66,3.47.58,6,4.6,3.64,4.6,3.64"></path>
        <path class="cls-11" d="M96.91,231.21a38.07,38.07,0,0,0-4.94-2.5c-2.29-.89-2.93-1-2.62-3.11s-.61-7,.78-8.82,1.2-1.73,3.87-.94,3.82,2.15,5.7,4.8,1.68,4.34.74,6.42a14.23,14.23,0,0,1-3.53,4.15"></path>
        <path class="cls-12" d="M153.88,95.06a26.16,26.16,0,0,0-7.9,15.6,16.29,16.29,0,0,1-1.07,4.47,8.71,8.71,0,0,1-3,3.47c-1.24.9-2.57,1.63-3.87,2.41l-3.91,2.3,3.83-2.44c1.27-.82,2.57-1.6,3.76-2.52a8.34,8.34,0,0,0,2.76-3.4,15.92,15.92,0,0,0,.87-4.37A27.2,27.2,0,0,1,153,94.14a.64.64,0,0,1,.91.9Z"></path>
        <path class="cls-12" d="M154.46,94.52a16,16,0,0,0,1,5.76c.65,1.87,1.51,3.67,2.28,5.51a30.37,30.37,0,0,1,1.84,5.73,48.56,48.56,0,0,0,1.28,5.82c1.19,3.79,3.2,7.27,4.9,10.87a36.05,36.05,0,0,1,2.18,5.58,16.24,16.24,0,0,1,.62,5.92,16.16,16.16,0,0,0-.82-5.86,40.48,40.48,0,0,0-2.33-5.47c-1.78-3.54-3.87-7-5.19-10.83a51,51,0,0,1-1.44-5.86,28.49,28.49,0,0,0-1.93-5.52c-.79-1.81-1.63-3.64-2.3-5.57a25.26,25.26,0,0,1-.74-3,14.79,14.79,0,0,1-.07-3.12.35.35,0,0,1,.39-.32A.36.36,0,0,1,154.46,94.52Z"></path>
        <path class="cls-12" d="M155.11,94.25c.23,3.35.82,6.8.09,10.24a11.65,11.65,0,0,1-.85,2.47,25.63,25.63,0,0,1-1.33,2.2c-.94,1.35-.78,3-.51,4.67a24.61,24.61,0,0,0,1.52,4.76c.59,1.58,1.25,3.15,1.73,4.81a14.24,14.24,0,0,1,.61,5.11,7.79,7.79,0,0,1-2,4.66,8.07,8.07,0,0,0,1.59-4.68,13.72,13.72,0,0,0-.81-4.91c-.54-1.58-1.26-3.12-1.93-4.68a25,25,0,0,1-1.53-4.93,11,11,0,0,1-.17-2.63,5.09,5.09,0,0,1,.87-2.54,19.06,19.06,0,0,0,1.32-2.14,10.39,10.39,0,0,0,.78-2.32c.66-3.26.1-6.64-.23-10a.42.42,0,0,1,.37-.45.43.43,0,0,1,.45.37h0Z"></path>
        <path class="cls-12" d="M154.85,96.39a22,22,0,0,1-9,7.88,21.65,21.65,0,0,0,8.41-8.22h0a.33.33,0,0,1,.45-.12.31.31,0,0,1,.12.44Z"></path>
        <path class="cls-12" d="M156,94.28a1.91,1.91,0,0,1-.06,1c-.07.25-.15.48-.23.71-.16.47-.33.91-.5,1.35l-1,2.65a41.23,41.23,0,0,0-1.66,5.38,19.84,19.84,0,0,0-.54,5.52c0,.46.08.91.15,1.37l.13.67a2.69,2.69,0,0,1,.08.81,4.25,4.25,0,0,1-1.36,2.75c-.67.76-1.8,1.13-2,1.74a1.44,1.44,0,0,0,.21,1.11,3.29,3.29,0,0,0,.86,1c1.43,1.13,3.41,1.67,4.68,3.25a4.83,4.83,0,0,1,1,2.74,7.76,7.76,0,0,1-.45,2.84c-.61,1.81-1.61,3.45-2.06,5.31.39-1.87,1.34-3.56,1.88-5.37a5.66,5.66,0,0,0-.61-5.29c-1.19-1.41-3.14-1.88-4.73-3a4.13,4.13,0,0,1-1.05-1.11,2.05,2.05,0,0,1-.3-1.61,2.49,2.49,0,0,1,1.08-1.19,5.92,5.92,0,0,0,1-.87,3.51,3.51,0,0,0,1.06-2.25,2.61,2.61,0,0,0-.08-.6l-.15-.72c-.08-.48-.14-1-.18-1.46a21.05,21.05,0,0,1,.53-5.77,41.17,41.17,0,0,1,1.65-5.51l1-2.67c.17-.44.34-.88.49-1.32.07-.21.14-.43.19-.64a1.55,1.55,0,0,0,.07-.43.5.5,0,0,1,.34-.63A.5.5,0,0,1,156,94.28Z"></path>
        <path class="cls-12" d="M157,94c-.17,4.57-.3,9.14-.52,13.71a11.84,11.84,0,0,1-.56,3.56,7.76,7.76,0,0,1-2.16,3,31.51,31.51,0,0,0-2.4,2.35,16.27,16.27,0,0,0-1.83,2.73,21.57,21.57,0,0,0-2,6.35c-.38,2.22-.54,4.49-.75,6.77-.37,4.55-.83,9.11-1.42,13.65,0-4.58.2-9.15.45-13.72a61.66,61.66,0,0,1,.61-6.88,22.93,22.93,0,0,1,2-6.71,17.17,17.17,0,0,1,2-3,27.49,27.49,0,0,1,2.48-2.47,6.68,6.68,0,0,0,1.86-2.5,10.51,10.51,0,0,0,.49-3.19c.21-4.57.5-9.13.75-13.7a.5.5,0,0,1,1,0Z"></path>
        <path class="cls-12" d="M157.75,94.31a82.14,82.14,0,0,0,.62,11l1.26,11c.41,3.66.81,7.34,1.17,11,.21,1.84.35,3.68.62,5.49a13.89,13.89,0,0,0,1.78,5.18,14.06,14.06,0,0,1-2.13-5.11c-.41-1.82-.63-3.65-.92-5.48q-.83-5.47-1.6-11c-.51-3.66-1.07-7.3-1.5-11a51.38,51.38,0,0,1-.3-11.16.5.5,0,0,1,1,.06Z"></path>
        <path class="cls-12" d="M156.09,95.19a60.86,60.86,0,0,1-8.31,4.91c-1.45.71-2.93,1.34-4.42,1.94a33.34,33.34,0,0,0-4.36,1.89,7.37,7.37,0,0,0-3.19,3.31,27.72,27.72,0,0,0-1.74,4.43,30.48,30.48,0,0,0-1.3,9.45,30.33,30.33,0,0,1,1.06-9.52,27.58,27.58,0,0,1,1.64-4.53,8.31,8.31,0,0,1,1.35-2,8.61,8.61,0,0,1,1.92-1.54,36.12,36.12,0,0,1,4.38-2c1.46-.63,2.91-1.29,4.32-2a61.25,61.25,0,0,0,8.07-5.05.5.5,0,0,1,.7.11.51.51,0,0,1-.11.7Z"></path>
        <polygon class="cls-13" points="0 44.73 155.26 109.59 296.35 49.77 155.26 0 0 44.73"></polygon>
        <path class="cls-14" d="M154.41,60c1.9-6.52,4.62-16.89,16.84-24.72,0,0-9.81,12.06-11.08,32.71l-3-.06C154.08,67.3,153.53,63,154.41,60Z"></path>
        <path class="cls-14" d="M151.37,9.34c-3.69,1.3,2.74,51.5,8.5,58l-3.82,1C149.73,69.12,146.72,14.24,151.37,9.34Z"></path>
        <path class="cls-15" d="M165,18.49c-3.92,0-3.88,38.88-4.79,48.93l-4.58.87C149.4,67,159,21.6,165,18.49Z"></path>
        <path class="cls-16" d="M164,69.22a1.77,1.77,0,0,0-1.71-.62c-.94.29-1.32,1-1.16,1.31.05.07.24.24.36.36s.73-.43.75-.43Z"></path>
        <path class="cls-9" d="M164.53,70.36s-.3-1.29-.78-1.3a9.54,9.54,0,0,1-1-.09l-.14.23s.48.85.67.92.57.15.65.19Z"></path>
        <path class="cls-10" d="M164.49,70.52a.33.33,0,0,0-.19-.49,3.7,3.7,0,0,0-.62-.14s-.78.59-.93.68-.25.08.2.22.43.24.84.19A1.18,1.18,0,0,0,164.49,70.52Z"></path>
        <path class="cls-11" d="M163.68,69.89a5,5,0,0,0-.57.56c-.22.27-.27.35-.54.21s-1-.23-1.16-.51-.18-.24.05-.56a1.45,1.45,0,0,1,.91-.56.79.79,0,0,1,.9.2A2.1,2.1,0,0,1,163.68,69.89Z"></path>
        <path class="cls-16" d="M139.83,60.43a2.6,2.6,0,0,0-2.64-.38c-1.27.71-1.57,1.9-1.26,2.23a4.15,4.15,0,0,0,.62.41c.4.26.92-.83.95-.85Z"></path>
        <path class="cls-9" d="M140.89,61.91s-.82-1.76-1.53-1.63-1.5.19-1.5.19l-.13.38s1,1.06,1.25,1.1.85,0,1,.08A6.26,6.26,0,0,0,140.89,61.91Z"></path>
        <path class="cls-10" d="M140.88,62.16c0-.18.05-.63-.42-.66a6.34,6.34,0,0,0-.94,0s-.93,1.08-1.12,1.26-.34.19.34.24.71.22,1.27,0A1.78,1.78,0,0,0,140.88,62.16Z"></path>
        <path class="cls-11" d="M139.52,61.5a8,8,0,0,0-.65,1c-.24.45-.27.59-.7.47s-1.48,0-1.82-.37-.33-.29-.11-.83a2,2,0,0,1,1.14-1.07,1.15,1.15,0,0,1,1.35,0A2.9,2.9,0,0,1,139.52,61.5Z"></path>
        <path class="cls-16" d="M156.93,56.93s-5.45-2.72-9.26.6-4,7.59-2.69,8.51a17.63,17.63,0,0,0,2.39.95c1.57.58,2.55-3.51,2.64-3.57S156.93,56.93,156.93,56.93Z"></path>
        <path class="cls-9" d="M161.58,61.23s-4-5.41-6.35-4.46-5,1.71-5,1.71l-.15,1.38s4,3,5,2.86,2.94-.43,3.41-.44A23,23,0,0,0,161.58,61.23Z"></path>
        <path class="cls-10" d="M161.74,62.06c-.05-.61-.28-2.15-1.91-1.94a23.76,23.76,0,0,0-3.21.68s-2.38,4.33-2.91,5.08-1,.9,1.35.6,2.56.24,4.35-.84A6.1,6.1,0,0,0,161.74,62.06Z"></path>
        <path class="cls-11" d="M156.62,60.8a29.23,29.23,0,0,0-1.49,3.77c-.49,1.71-.51,2.18-2.07,2.1s-5.06.93-6.46,0-1.33-.76-.94-2.75,1.3-2.92,3.09-4.47a4.06,4.06,0,0,1,4.61-1A10.46,10.46,0,0,1,156.62,60.8Z"></path>
        <path class="cls-16" d="M177.89,58.67s-3.14-4.27-7.4-3.21S164.38,59.74,165,61a16.26,16.26,0,0,0,1.47,1.69c1,1.07,3.37-1.71,3.47-1.72S177.89,58.67,177.89,58.67Z"></path>
        <path class="cls-9" d="M179.78,63.85s-1-5.8-3.13-6-4.55-.66-4.55-.66l-.67,1s1.91,3.87,2.76,4.22,2.45.83,2.81,1A20.53,20.53,0,0,0,179.78,63.85Z"></path>
        <path class="cls-10" d="M179.58,64.55c.2-.48.64-1.77-.71-2.25a19.42,19.42,0,0,0-2.75-.75s-3.57,2.4-4.27,2.77-1.15.29.8,1,1.89,1.21,3.7,1.08A5.33,5.33,0,0,0,179.58,64.55Z"></path>
        <path class="cls-11" d="M176.12,61.55a24.31,24.31,0,0,0-2.65,2.32c-1.06,1.13-1.27,1.49-2.44.8s-4.29-1.29-5-2.54-.73-1.11.36-2.5,2.17-1.74,4.17-2.23a3.54,3.54,0,0,1,4,1.09A9,9,0,0,1,176.12,61.55Z"></path>
        <path class="cls-16" d="M163.3,60.89s-4.51-3.48-8.6-1.12-5,6.23-4,7.31a16.14,16.14,0,0,0,2,1.3c1.34.82,3-2.76,3.07-2.8S163.3,60.89,163.3,60.89Z"></path>
        <path class="cls-9" d="M166.78,65.67s-2.73-5.69-5-5.24-4.88.67-4.88.67l-.39,1.23s3.11,3.43,4.09,3.54,2.78.13,3.2.21A21.84,21.84,0,0,0,166.78,65.67Z"></path>
        <path class="cls-10" d="M166.78,66.45c.06-.56.13-2-1.4-2.11a22.4,22.4,0,0,0-3.06,0s-3,3.54-3.59,4.13-1.1.64,1.13.79,2.3.69,4.14,0A5.74,5.74,0,0,0,166.78,66.45Z"></path>
        <path class="cls-11" d="M162.32,64.38a26.14,26.14,0,0,0-2,3.18c-.76,1.49-.86,1.92-2.28,1.56s-4.81-.07-5.93-1.14-1.08-.93-.37-2.68,1.73-2.45,3.64-3.54a3.82,3.82,0,0,1,4.41-.06A9.81,9.81,0,0,1,162.32,64.38Z"></path>
        <path class="cls-16" d="M186.75,68.79a2.71,2.71,0,0,0,2.5-1.24c.67-1.36.24-2.56-.23-2.67a5.21,5.21,0,0,0-.78,0c-.5,0-.3,1.27-.32,1.3Z"></path>
        <path class="cls-9" d="M185,68.13s1.75,1,2.28.51a15.72,15.72,0,0,1,1.19-1l-.12-.4a5.71,5.71,0,0,0-1.72-.22c-.29.15-.77.46-.9.52A6.47,6.47,0,0,0,185,68.13Z"></path>
        <path class="cls-10" d="M184.82,67.92c.09.16.33.57.76.32a8.4,8.4,0,0,0,.81-.56s.16-1.48.22-1.74.18-.37-.44,0-.74.22-1.11.73A1.82,1.82,0,0,0,184.82,67.92Z"></path>
        <path class="cls-11" d="M186.39,67.68a8.64,8.64,0,0,0,0-1.22c-.06-.53-.11-.66.33-.82s1.3-.84,1.79-.76.46.06.58.66a2.21,2.21,0,0,1-.34,1.59,1.24,1.24,0,0,1-1.17.81A3.19,3.19,0,0,1,186.39,67.68Z"></path>
        <path class="cls-16" d="M126.68,71.92a2.72,2.72,0,0,0,2.5-1.23c.68-1.36.24-2.57-.23-2.67a5.07,5.07,0,0,0-.77,0c-.51,0-.3,1.27-.32,1.29Z"></path>
        <path class="cls-9" d="M124.9,71.27s1.74,1,2.27.5a15.72,15.72,0,0,1,1.19-1l-.11-.4a5.51,5.51,0,0,0-1.73-.21c-.28.14-.77.46-.9.51A8.66,8.66,0,0,0,124.9,71.27Z"></path>
        <path class="cls-10" d="M124.76,71.06a.52.52,0,0,0,.75.31,5.92,5.92,0,0,0,.81-.56s.16-1.47.22-1.74.18-.37-.44,0-.74.23-1.11.73A1.87,1.87,0,0,0,124.76,71.06Z"></path>
        <path class="cls-11" d="M126.32,70.81a8.51,8.51,0,0,0,0-1.21c-.06-.54-.11-.67.33-.83s1.3-.84,1.79-.75.46,0,.58.65a2.19,2.19,0,0,1-.34,1.6,1.22,1.22,0,0,1-1.17.8A3.19,3.19,0,0,1,126.32,70.81Z"></path>
        <path class="cls-16" d="M143.84,69.76s2.32.32,3.29-1.36.53-3.24-.06-3.42a8.5,8.5,0,0,0-1,0c-.64,0-.49,1.59-.52,1.62Z"></path>
        <path class="cls-9" d="M141.62,68.77s2.14,1.47,2.86.84,1.6-1.24,1.6-1.24l-.11-.51a7.15,7.15,0,0,0-2.18-.43c-.37.16-1,.52-1.18.58A9.2,9.2,0,0,0,141.62,68.77Z"></path>
        <path class="cls-10" d="M141.47,68.49c.09.21.36.74.93.47a9.36,9.36,0,0,0,1.08-.65s.33-1.86.43-2.2.26-.45-.56,0-1,.23-1.48.84A2.33,2.33,0,0,0,141.47,68.49Z"></path>
        <path class="cls-11" d="M143.48,68.31a10.92,10.92,0,0,0,.08-1.55c0-.68-.08-.85.49-1s1.73-.95,2.35-.8.57.11.68.88a2.79,2.79,0,0,1-.58,2,1.55,1.55,0,0,1-1.56.92A3.92,3.92,0,0,1,143.48,68.31Z"></path>
        <path class="cls-16" d="M156.36,67.33a2.25,2.25,0,0,1,2-.32c1,.46,1.26,1.27,1,1.5a3,3,0,0,1-.47.29c-.31.19-.74-.55-.76-.56Z"></path>
        <path class="cls-9" d="M155.58,68.36s.59-1.22,1.14-1.14,1.17.09,1.17.09l.11.26s-.71.75-.94.78-.66.05-.76.07A6.1,6.1,0,0,1,155.58,68.36Z"></path>
        <path class="cls-10" d="M155.59,68.53c0-.12-.05-.43.31-.46a5.1,5.1,0,0,1,.73,0s.74.72.9.83.27.13-.26.18-.54.17-1,0A1.29,1.29,0,0,1,155.59,68.53Z"></path>
        <path class="cls-11" d="M156.63,68.05a6.63,6.63,0,0,1,.52.65c.2.3.23.39.56.31s1.14-.06,1.4-.29.25-.21.06-.57a1.55,1.55,0,0,0-.9-.71,1,1,0,0,0-1.05,0A2.17,2.17,0,0,0,156.63,68.05Z"></path>
        <path class="cls-16" d="M174.75,62.15s-4.24-3.13-8-.87-4.54,5.86-3.57,6.84a15.89,15.89,0,0,0,1.89,1.17c1.26.73,2.7-2.61,2.79-2.65S174.75,62.15,174.75,62.15Z"></path>
        <path class="cls-9" d="M178.07,66.51s-2.64-5.21-4.74-4.75-4.51.71-4.51.71l-.33,1.15s2.94,3.11,3.85,3.19,2.58.07,3,.14A19.77,19.77,0,0,0,178.07,66.51Z"></path>
        <path class="cls-10" d="M178.08,67.23c0-.51.09-1.87-1.33-1.93a20.19,20.19,0,0,0-2.84.11s-2.67,3.33-3.23,3.88-1,.62,1,.71,2.15.59,3.84-.06A5.31,5.31,0,0,0,178.08,67.23Z"></path>
        <path class="cls-11" d="M173.91,65.41a24.58,24.58,0,0,0-1.83,3c-.67,1.38-.76,1.78-2.08,1.48s-4.45,0-5.51-.94-1-.84-.39-2.47,1.55-2.3,3.3-3.35a3.52,3.52,0,0,1,4.08-.13A9,9,0,0,1,173.91,65.41Z"></path>
        <path class="cls-16" d="M152.15,67.05s-3.46-.63-5,1.83-1,4.86-.12,5.16a10.19,10.19,0,0,0,1.48.14c1,.07.85-2.36.89-2.41Z"></path>
        <path class="cls-9" d="M155.43,68.68s-3.12-2.35-4.24-1.45-2.5,1.76-2.5,1.76l.14.79s2.68,1,3.25.78,1.57-.72,1.82-.8A12.49,12.49,0,0,0,155.43,68.68Z"></path>
        <path class="cls-10" d="M155.65,69.12c-.12-.33-.5-1.15-1.37-.77a13.21,13.21,0,0,0-1.67.9s-.62,2.79-.8,3.28-.42.67.85.12,1.46-.28,2.28-1.17A3.53,3.53,0,0,0,155.65,69.12Z"></path>
        <path class="cls-11" d="M152.61,69.25a16.84,16.84,0,0,0-.22,2.33c0,1,.07,1.3-.81,1.5s-2.66,1.33-3.58,1.07-.86-.21-1-1.38a4.2,4.2,0,0,1,1-3,2.36,2.36,0,0,1,2.41-1.28A6,6,0,0,1,152.61,69.25Z"></path>
      </g>
    </g>
  </g>
</svg>
