<?xml version="1.0" encoding="UTF-8"?>
<svg xmlns="http://www.w3.org/2000/svg" viewBox="0 0 296.35 287.64">
  <defs>
    <style>
      .cls-1 {
        fill: #85563a;
      }

      .cls-2 {
        fill: #8e6848;
      }

      .cls-3 {
        fill: #713e21;
      }

      .cls-4 {
        fill: #9b714f;
      }

      .cls-5 {
        fill: #3d271f;
      }

      .cls-6 {
        fill: #69391e;
      }

      .cls-7 {
        fill: #6b472f;
      }

      .cls-8 {
        fill: #5c3624;
      }

      .cls-9 {
        fill: #795135;
      }

      .cls-10 {
        fill: #9a734f;
      }
    </style>
  </defs>
  <g id="Слой_2" data-name="Слой 2">
    <g id="Слой_1-2" data-name="Слой 1">
      <g>
        <polygon class="cls-1" points="20.79 224.34 155.26 287.63 279.65 224.65 150.33 169.85 20.79 224.34"></polygon>
        <polygon class="cls-1" points="0 44.73 155.26 109.59 296.35 49.76 155.26 0 0 44.73"></polygon>
        <path class="cls-2" d="M155.26,109.6v81.49s42.91-31.67,60.33-33.26,51.4,65.24,64.07,66.82L296.35,49.76Z"></path>
        <path class="cls-3" d="M11.36,142l9.43,82.33,134.47,63.3V191.08S81,159.42,73.1,148.34,11.36,142,11.36,142"></path>
        <path class="cls-4" d="M0,44.73,11.36,142s14.49,1.16,30.08,1.58c19.52.53,38,13.2,52.77,28,17.17,17.17,61.05,19.52,61.05,19.52V109.59Z"></path>
        <path class="cls-5" d="M103.47,201.4a6.61,6.61,0,0,0-.28-2.4h0s-1-2.71-3.43-2.77-3.84,1.35-3.67,2.09l.52,1.1.06,0,2,1.69.36.29.41.29c.93.66.81.91,1.79,1.11a2.85,2.85,0,0,0,2-.5l.2-.34h0v0Z"></path>
        <path class="cls-5" d="M44.8,190.18a11.94,11.94,0,0,0-4,2.2l0,0s-4,3.72-2.46,8,5.09,5.8,6.29,5l1.56-1.71,0-.14c.76-1.3,1.06-3.68,1.54-4.75l.24-.84.24-.91c.5-2.09,1-2.07.69-3.93a5.5,5.5,0,0,0-2.27-3.1l-.73-.11v0l-.09,0Z"></path>
        <path class="cls-5" d="M139.6,245c-.95-3-2.73-7.68-5.13-10.28l.07,0s-8.91-10.51-19.78-7S99.71,239.88,101.6,243a37.72,37.72,0,0,0,4.12,4.11l.36.05c3.2,2.06,9.12,3,11.76,4.34a6.24,6.24,0,0,0,2.08.69c.58.2,1.2.39,2.25.69,5.21,1.46,5.11,2.78,9.8,2.13s8-5.39,8-5.39a9.25,9.25,0,0,0,.35-1.85h.06l-.05-.19a3.4,3.4,0,0,0-.75-2.58"></path>
        <path class="cls-5" d="M69.31,209.2c-1.68,1.75-4.16,4.66-5,7.22l0,0s-3.77,9.86,2.59,15.86,13.75,5.62,15.13,3.21a33.58,33.58,0,0,0,1.24-4.28l-.11-.26c.21-2.91-1.31-7.25-1.41-9.5a4.62,4.62,0,0,0-.3-1.65c-.09-.45-.19-1-.37-1.77-.93-4,0-4.45-2.17-7.37s-6.57-3.4-6.57-3.4l-1.38.45,0,0-.11.1a2.58,2.58,0,0,0-1.45,1.45"></path>
        <path class="cls-6" d="M155.26,191.08s30.25-42.74,65.08-43.79,69.13-26.39,69.13-26.39l-9.81,103.75-124.4,63Z"></path>
        <path class="cls-5" d="M199.62,207.36c-3.1.5-7.93,1.57-10.81,3.56v-.07s-11.58,7.25-9.66,18.4,9.84,16.51,13.12,15.08a38.61,38.61,0,0,0,4.61-3.45l.09-.35c2.49-2.84,4.31-8.51,5.95-10.91a5.92,5.92,0,0,0,1-1.94c.28-.53.56-1.13,1-2.12,2.18-4.89,3.46-4.61,3.49-9.3s-4.15-8.63-4.15-8.63a8.82,8.82,0,0,0-1.76-.61V207l-.2,0a3.39,3.39,0,0,0-2.64.37"></path>
        <path class="cls-5" d="M256.77,204a9.23,9.23,0,0,0-3.37-.83v0s-4.16,0-5.48,3.19-.14,5.85.94,6l1.76-.13.07-.08a29.21,29.21,0,0,0,3.31-1.85l.57-.35.6-.38c1.35-.92,1.64-.64,2.4-1.84a4.17,4.17,0,0,0,.33-2.9l-.35-.44v0l-.06,0Z"></path>
        <path class="cls-5" d="M246.44,174c-1.88-1.56-5-3.83-7.63-4.49l0,0s-10.19-3.05-15.74,3.79-4.59,14.24-2.07,15.43a30.9,30.9,0,0,0,4.38.93l.26-.13c2.93,0,7.18-1.86,9.43-2.14a4.53,4.53,0,0,0,1.63-.42c.45-.12.95-.25,1.75-.51,4-1.24,4.48-.34,7.23-2.74s2.92-6.85,2.92-6.85l-.55-1.35,0,0-.12-.1a2.63,2.63,0,0,0-1.57-1.36"></path>
        <path class="cls-7" d="M145.83,71.32S144,69.09,141.7,69.8s-3.18,2.51-2.79,3.17l.85.87,1.82-1Z"></path>
        <path class="cls-8" d="M147,74.07s-.72-3.12-1.89-3.15-2.49-.22-2.49-.22l-.33.57,1.63,2.21,1.56.46Z"></path>
        <path class="cls-9" d="M146.93,74.45c.09-.26.29-1-.46-1.19a10.28,10.28,0,0,0-1.51-.33l-2.24,1.64c-.36.22-.62.2.47.52s1.06.6,2,.47a2.92,2.92,0,0,0,1.7-1.11"></path>
        <path class="cls-10" d="M145,72.93l-1.37,1.35-1.3.51-2.81-1.23c-.43-.64-.43-.58.12-1.37a3.44,3.44,0,0,1,2.2-1.33,1.9,1.9,0,0,1,2.18.46Z"></path>
        <path class="cls-7" d="M136.45,18.44s-3.31-2.63-6.38-.92-3.8,4.58-3,5.4l1.48,1c1,.62,2.24-2,2.31-2.05Z"></path>
        <path class="cls-8" d="M139,22s-2-4.26-3.67-3.94-3.65.45-3.65.45l-.3.9s2.29,2.59,3,2.68,2.06.12,2.37.19Z"></path>
        <path class="cls-9" d="M139,22.61c0-.42.12-1.5-1-1.59a15.54,15.54,0,0,0-2.27,0l-2.72,3c-.46.43-.82.48.84.61s1.7.53,3.08.05a4.27,4.27,0,0,0,2.09-2.1"></path>
        <path class="cls-10" d="M135.69,21a19.41,19.41,0,0,0-1.55,2.35c-.58,1.09-.66,1.41-1.71,1.13s-3.57-.1-4.4-.9-.79-.71-.25-2,1.3-1.81,2.74-2.6a2.82,2.82,0,0,1,3.28,0,7.3,7.3,0,0,1,1.89,2"></path>
        <path class="cls-7" d="M123.81,37.84s-13.17-6.57-22.37,1.45-9.66,18.33-6.5,20.55a41.49,41.49,0,0,0,5.77,2.31c3.79,1.4,6.15-8.49,6.37-8.64Z"></path>
        <path class="cls-8" d="M135.05,48.23s-9.77-13.08-15.34-10.79-12.06,4.14-12.06,4.14l-.38,3.33s9.62,7.14,12.16,6.92,7.12-1,8.24-1,7.38-2.55,7.38-2.55"></path>
        <path class="cls-9" d="M135.43,50.22c-.13-1.45-.66-5.2-4.6-4.68a57.25,57.25,0,0,0-7.76,1.66s-5.76,10.46-7,12.25-2.46,2.2,3.26,1.45,6.18.6,10.52-2,5.61-8.65,5.61-8.65"></path>
        <path class="cls-10" d="M123.07,47.2a66.83,66.83,0,0,0-3.6,9.09c-1.19,4.14-1.24,5.28-5,5.08s-12.22,2.24-15.6.09-3.22-1.83-2.28-6.63S99.72,47.76,104,44s7.34-3.64,11.15-2.34,7.88,5.51,7.88,5.51"></path>
        <path class="cls-7" d="M169.34,40.6s-11-6.5-19.51-.09S140.34,55.83,142.94,58a37.22,37.22,0,0,0,4.88,2.34c3.21,1.46,5.85-7,6.05-7.1Z"></path>
        <path class="cls-8" d="M178.47,50.3S170.77,38.35,165.8,40s-10.72,2.88-10.72,2.88l-.52,2.86s7.92,6.78,10.13,6.74,6.24-.47,7.21-.42,6.57-1.76,6.57-1.76"></path>
        <path class="cls-9" d="M178.67,52.05c0-1.27-.26-4.55-3.7-4.33a48.67,48.67,0,0,0-6.84,1s-5.63,8.73-6.85,10.21S159,60.65,164,60.35s5.33.88,9.25-1.12,5.39-7.18,5.39-7.18"></path>
        <path class="cls-10" d="M168.13,48.68a59.74,59.74,0,0,0-3.67,7.67c-1.28,3.53-1.4,4.51-4.66,4.11s-10.75,1.21-13.55-.86-2.69-1.78-1.59-5.9,3.17-5.94,7.14-8.92,6.59-2.73,9.83-1.36,6.5,5.26,6.5,5.26"></path>
        <path class="cls-7" d="M198.59,28.94s-10.9-8.41-20.78-2.71-12.16,15.05-9.67,17.65A39.37,39.37,0,0,0,173,47c3.24,2,7.19-6.67,7.42-6.76Z"></path>
        <path class="cls-8" d="M207,40.49s-6.6-13.75-12.11-12.66-11.81,1.62-11.81,1.62l-1,3s7.53,8.28,9.91,8.54,6.7.32,7.73.52,7.23-1,7.23-1"></path>
        <path class="cls-9" d="M207,42.39c.14-1.36.32-4.88-3.37-5.13a52.69,52.69,0,0,0-7.42.12s-7.16,8.56-8.65,10-2.66,1.56,2.72,1.92,5.56,1.66,10,.05S207,42.39,207,42.39"></path>
        <path class="cls-10" d="M196.21,37.38a62.87,62.87,0,0,0-4.94,7.68c-1.84,3.59-2.1,4.63-5.51,3.76s-11.61-.16-14.33-2.74-2.62-2.26-.89-6.5,4.16-5.9,8.8-8.54,7.39-2,10.65-.13,6.22,6.47,6.22,6.47"></path>
        <path class="cls-7" d="M207,64.14s4.42.31,6-3,.56-6.19-.57-6.45l-1.86,0c-1.23.05-.74,3.07-.78,3.14Z"></path>
        <path class="cls-8" d="M202.7,62.56s4.23,2.5,5.51,1.22,2.87-2.54,2.87-2.54l-.28-1-4.17-.51c-.69.35-1.85,1.11-2.17,1.24Z"></path>
        <path class="cls-9" d="M202.37,62.06c.2.38.79,1.36,1.82.76a18,18,0,0,0,2-1.35l.53-4.22c.15-.64.44-.89-1.06,0s-1.79.55-2.69,1.77a4.48,4.48,0,0,0-.56,3.06"></path>
        <path class="cls-10" d="M206.15,61.47a20.23,20.23,0,0,0-.05-2.95c-.15-1.29-.27-1.6.81-2s3.13-2,4.32-1.82,1.1.12,1.39,1.57-.06,2.32-.82,3.86A3,3,0,0,1,209,62.08a7.48,7.48,0,0,1-2.83-.61"></path>
        <path class="cls-7" d="M103.34,66.49s5.59.76,8-3.27,1.25-7.85-.17-8.27a16.85,16.85,0,0,0-2.37-.13c-1.56,0-1.2,3.84-1.26,3.93Z"></path>
        <path class="cls-8" d="M98,64.09s5.16,3.56,6.9,2,3.88-3,3.88-3l-.27-1.25s-4.37-1.42-5.28-1-2.46,1.26-2.85,1.4Z"></path>
        <path class="cls-9" d="M97.6,63.42c.22.5.87,1.8,2.24,1.13A21,21,0,0,0,102.47,63s.8-4.5,1-5.31.63-1.1-1.35-.13-2.33.55-3.58,2a5.69,5.69,0,0,0-1,3.85"></path>
        <path class="cls-10" d="M102.46,63a25.58,25.58,0,0,0,.19-3.75c-.07-1.65-.19-2.07,1.2-2.46s4.17-2.31,5.67-1.95,1.38.27,1.63,2.13-.28,3-1.39,4.84A3.77,3.77,0,0,1,106,64a9.74,9.74,0,0,1-3.54-1"></path>
        <path class="cls-7" d="M139.8,45.68s2.51,2.11,4.92.85,3.05-3.46,2.48-4.11l-1.12-.8c-.76-.5-1.78,1.52-1.83,1.54Z"></path>
        <path class="cls-8" d="M137.92,42.84s1.43,3.34,2.75,3.14a28.15,28.15,0,0,1,2.82-.27l.26-.7-2.27-2.13-1.83-.2Z"></path>
        <path class="cls-9" d="M137.94,42.39c-.06.32-.13,1.16.75,1.25a11.85,11.85,0,0,0,1.76,0l2.16-2.28c.38-.33.65-.35-.63-.49s-1.31-.45-2.38-.11a3.24,3.24,0,0,0-1.66,1.58"></path>
        <path class="cls-10" d="M140.45,43.69a14.29,14.29,0,0,0,1.26-1.77c.46-.85.54-1.09,1.35-.85s2.76.16,3.38.8.6.56.14,1.56a3.89,3.89,0,0,1-2.18,2,2.18,2.18,0,0,1-2.54-.09,5.67,5.67,0,0,1-1.41-1.6"></path>
        <path class="cls-7" d="M184.13,64.4s12.38,3,18.58-5.52,4.62-17.31,1.53-18.57a38,38,0,0,0-5.3-.84c-3.47-.45-3.56,8.35-3.72,8.51Z"></path>
        <path class="cls-8" d="M172.66,57.81s10.76,9.15,15,6.14S197,58.14,197,58.14l-.33-2.88s-9.48-4.16-11.58-3.49-5.79,2.25-6.73,2.47-5.74,3.57-5.74,3.57"></path>
        <path class="cls-9" d="M172,56.21c.39,1.19,1.56,4.25,4.78,3A48.64,48.64,0,0,0,183,56.37s2.84-9.92,3.58-11.67,1.65-2.33-3-.6-5.33.68-8.48,3.73S172,56.21,172,56.21"></path>
        <path class="cls-10" d="M183,56.37A56.28,56.28,0,0,0,184.24,48c.21-3.73,0-4.71,3.26-5.26s9.87-4.24,13.13-3.08,3.07.92,3.2,5.16-1.29,6.56-4.22,10.53-5.48,4.49-9,4.12-7.7-3.13-7.7-3.13"></path>
        <path class="cls-7" d="M127.09,57.26s7.42,4.17,13-.2,6.09-10.32,4.34-11.68a22.7,22.7,0,0,0-3.27-1.5c-2.16-.92-3.8,4.73-3.93,4.8Z"></path>
        <path class="cls-8" d="M120.9,50.93s5.27,7.84,8.56,6.68,7.08-2.06,7.08-2.06l.31-1.91s-5.35-4.4-6.83-4.35-4.14.41-4.78.38Z"></path>
        <path class="cls-9" d="M120.73,49.77c0,.84.24,3,2.53,2.84a31.58,31.58,0,0,0,4.53-.74S131.41,46,132.21,45s1.48-1.19-1.85-.93-3.55-.52-6.13.87-3.5,4.84-3.5,4.84"></path>
        <path class="cls-10" d="M127.79,51.87a39.43,39.43,0,0,0,2.34-5.14c.8-2.36.87-3,3-2.8s7.13-.94,9,.39,1.8,1.15,1.12,3.9-2,4-4.62,6-4.34,1.9-6.51,1a14.64,14.64,0,0,1-4.39-3.41"></path>
      </g>
    </g>
  </g>
</svg>
