<?xml version="1.0" encoding="UTF-8"?>
<svg xmlns="http://www.w3.org/2000/svg" viewBox="0 0 118.78 222.67">
  <defs>
    <style>.cls-1{fill:#84a63c;}.cls-2{fill:#708d34;}.cls-3{fill:#a38c48;}.cls-4{fill:#cfcecf;}.cls-5,.cls-6{fill:none;stroke:#cfcecf;stroke-width:1.15px;}.cls-5{stroke-miterlimit:10;}.cls-6{stroke-linecap:round;stroke-linejoin:round;}.cls-7{fill:#e9c671;}.cls-8{fill:#d9a458;}</style>
  </defs>
  <g id="Слой_2" data-name="Слой 2">
    <g id="Слой_1-2" data-name="Слой 1">
      <path class="cls-1" d="M56.18,0s-5,8.64,1.58,14.54a6.15,6.15,0,0,0,2.31-7.27C58.34,2.59,56,3,56.18,0Z"></path>
      <path class="cls-2" d="M56.75,16.27s1.16-4.9-6.19-4c0,0-1.87,1.15-5.61-1.3C45,10.94,48.55,22.46,56.75,16.27Z"></path>
      <path class="cls-1" d="M57.76,14.54s5.18-5.33,8.35-3.6,3.89,2.74,5.47,2.45S62.94,23.75,57.76,14.54Z"></path>
      <path class="cls-1" d="M57.42,21.16s-8.3-3.31-4.27,11.23c0,0,3.07,1.15,3.67-5Z"></path>
      <path class="cls-1" d="M70,19.15s-6.29,7.48,1.75,12.24c0,0,2.86-2.74,1.13-6.12S69.42,20.59,70,19.15Z"></path>
      <path class="cls-1" d="M75.47,25.27s-4.18-6.84,1.15-9.58,7.2,2.41,7.2,2.41a4,4,0,0,0-3.31,4.5C80.65,26.63,75.47,25.27,75.47,25.27Z"></path>
      <path class="cls-1" d="M75.76,26.66s5.76-2.76,9.79,4.73C85.55,31.39,77.57,33.83,75.76,26.66Z"></path>
      <path class="cls-1" d="M69.42,37.29s-.57-6.46,11.23-4.81C80.65,32.48,80.51,43.62,69.42,37.29Z"></path>
      <path class="cls-2" d="M45,48.23s-.63-7.63,7.1-7.49C52.05,40.74,53.15,46.5,45,48.23Z"></path>
      <path class="cls-1" d="M61.79,53.12a2.22,2.22,0,0,0-.48-1.92c-.67-.84-2.14-1.7-5.28-2-6.76-.58-6.19-2-6.19-2S51.43,61.62,61.79,53.12Z"></path>
      <path class="cls-2" d="M70.54,52s3.77-5.32-1.12-9.07C69.42,42.9,65.62,48.81,70.54,52Z"></path>
      <path class="cls-1" d="M65.39,54.29s6.34-3.9,7.34,5.74C72.73,60,66.4,61.51,65.39,54.29Z"></path>
      <path class="cls-1" d="M81.76,69.29S77,63.69,83.49,58.36C83.49,58.36,88.53,66.41,81.76,69.29Z"></path>
      <path class="cls-1" d="M91.7,52.56s1.87-4.15-4.75-5.44S81.33,44,81.33,44,80.76,58,91.7,52.56Z"></path>
      <path class="cls-1" d="M93.28,47.12s2.88-4.6-2.73-6.84a17.3,17.3,0,0,1-2.74-2.09C87.24,37.47,83.78,47,93.28,47.12Z"></path>
      <path class="cls-1" d="M94.48,64.54s-4.22-9.7,2.69-12a50.36,50.36,0,0,0,.43,5.32C97.89,59.21,100.15,63.39,94.48,64.54Z"></path>
      <path class="cls-2" d="M95.75,65.6s.41,6,6.6,6.35c0,0-1-4.56-2.15-6.35S95.19,63.44,95.75,65.6Z"></path>
      <path class="cls-1" d="M89.19,100.24s-3.44-12.48-13.9-5.37C75.29,94.87,79,104.7,89.19,100.24Z"></path>
      <path class="cls-1" d="M61.71,101.4s-5.81-3.51-7.4-4.13-2.92-4.18-4.55-2.93-.87,9.26,3.12,10.51S60.89,101.61,61.71,101.4Z"></path>
      <path class="cls-2" d="M57.6,14.41a2.48,2.48,0,0,1,.26,1.47c0,.47-.14.89-.21,1.31a14,14,0,0,0-.23,2.5,17.57,17.57,0,0,0,.91,4.94c.24.81.57,1.6.86,2.4s.67,1.57,1,2.34l1.15,2.3,1.24,2.24a24.31,24.31,0,0,1,2.19,4.87,18.81,18.81,0,0,1,.88,5.32,27.21,27.21,0,0,1-2.12,10.45c-1.27,3.29-2.83,6.4-4.2,9.53-.68,1.57-1.32,3.14-1.85,4.73a25.66,25.66,0,0,0-1.18,4.8,27.46,27.46,0,0,0,.85,9.83c.8,3.28,1.89,6.52,3,9.8s2.2,6.6,3,10a43.12,43.12,0,0,1,1.4,10.61c0,.91,0,1.82-.12,2.73L64.32,118l-.21,1.32c-.27,1.76-.65,3.48-1,5.19-.8,3.41-1.71,6.72-2.41,10a58.88,58.88,0,0,0-1,20L60,157l.39,2.56.8,5.12.79,5.12.4,2.57.19,1.28.09.64.05.33,0,.16V175c-1.79.15,4-.31-4,.62a2,2,0,1,1,4-.66c-8,1-2.19.43-4,.56v-.1l0-.16-.05-.31-.09-.64L58.39,173,58,170.42l-.71-5.13-.72-5.14-.35-2.57L56,154.94a62.38,62.38,0,0,1,1.39-21.16c.78-3.43,1.76-6.77,2.59-10.07.4-1.65.79-3.3,1.07-5l.22-1.24.16-1.21c.07-.82.15-1.63.15-2.45a40.41,40.41,0,0,0-1.16-9.91c-.74-3.3-1.77-6.56-2.8-9.86S55.46,87.47,54.68,84A29.88,29.88,0,0,1,54,73.29a39.24,39.24,0,0,1,3.37-10.12c1.44-3.18,3-6.23,4.3-9.38a26.41,26.41,0,0,0,2.26-9.67,17.66,17.66,0,0,0-.62-4.9,22.76,22.76,0,0,0-1.87-4.64l-1.19-2.33-1.09-2.38c-.35-.8-.65-1.62-1-2.43s-.59-1.66-.81-2.51a18.53,18.53,0,0,1-.78-5.25A14.65,14.65,0,0,1,56.87,17,3.56,3.56,0,0,0,57,14.75h0a.36.36,0,0,1,.15-.48.35.35,0,0,1,.48.15Z"></path>
      <path class="cls-2" d="M64.42,41.34a48,48,0,0,0,3.87-3.94A38.58,38.58,0,0,0,71.63,33a23.22,23.22,0,0,0,2.43-4.92,18.61,18.61,0,0,0,.71-2.66A17,17,0,0,0,75,22.64a11.84,11.84,0,0,1-.18,5.67,21.34,21.34,0,0,1-2.29,5.25,31.57,31.57,0,0,1-3.33,4.63,34.16,34.16,0,0,1-4,4.05.59.59,0,0,1-.78-.89Z"></path>
      <path class="cls-2" d="M61.3,55.78c1.19-.35,2.41-.79,3.59-1.26a37.76,37.76,0,0,0,3.49-1.59,24.76,24.76,0,0,0,3.26-2,13.75,13.75,0,0,0,2.78-2.66,14.24,14.24,0,0,1-2.5,3,25.84,25.84,0,0,1-3.11,2.41,35.91,35.91,0,0,1-3.38,2c-1.16.62-2.32,1.2-3.57,1.72a.86.86,0,1,1-.66-1.58l.09,0Z"></path>
      <path class="cls-2" d="M35.75,54.73a23,23,0,0,1,2.6,3.8,27.5,27.5,0,0,1,1.92,4.16c.27.72.49,1.47.71,2.18s.44,1.4.69,2.09a26,26,0,0,0,1.88,4,26.85,26.85,0,0,0,5.59,6.66,32,32,0,0,0,7.28,4.67l0,0a1.28,1.28,0,1,1-1.09,2.31l-.08,0A39.22,39.22,0,0,1,51.36,82a30.44,30.44,0,0,1-9.15-10.34,26.81,26.81,0,0,1-1.82-4.24c-.24-.73-.46-1.47-.64-2.21s-.37-1.43-.6-2.13a24.9,24.9,0,0,0-4.09-7.74l0,0a.46.46,0,0,1,.71-.59Z"></path>
      <path class="cls-2" d="M40.3,66a23.32,23.32,0,0,0,3.46-9.63,34.64,34.64,0,0,0,.15-5.2c0-.87-.1-1.74-.22-2.59a12.73,12.73,0,0,0-.57-2.47v0a.37.37,0,0,1,.22-.49.39.39,0,0,1,.49.22,13.26,13.26,0,0,1,.66,2.66,26.83,26.83,0,0,1,.27,2.67,35.31,35.31,0,0,1-.08,5.34,24.17,24.17,0,0,1-1.17,5.25,23.76,23.76,0,0,1-2.32,4.89.53.53,0,0,1-.74.16.54.54,0,0,1-.17-.74h0Z"></path>
      <path class="cls-2" d="M58.51,94.15a18.08,18.08,0,0,0,2.27-2.59,22.66,22.66,0,0,0,1.72-2.79c.63-1.19,1.19-2.51,2-4a51.64,51.64,0,0,0,2.59-5.38s0,0,0-.06a1,1,0,0,1,1-.69.69.69,0,0,1,.57.92C68,81.37,66.78,83.77,66,85.37s-1.29,3-1.91,4.29a23.39,23.39,0,0,1-1.74,3.11,15.72,15.72,0,0,1-2.4,3,1.07,1.07,0,0,1-1.49,0,1,1,0,0,1,0-1.48l0,0S58.5,94.16,58.51,94.15Z"></path>
      <path class="cls-2" d="M62.16,108.82a47,47,0,0,0,7.4-6.41,27,27,0,0,0,3-3.81,18.44,18.44,0,0,0,1.16-2.07l.46-1.08.44-1.19c2.4-6.33,5-12.55,7.59-18.76s5.4-12.34,8-18.57c1.27-3.11,2.55-6.23,3.6-9.38.14-.4.26-.79.36-1.18s.22-.79.32-1.21c.21-.83.45-1.66.74-2.47a24.58,24.58,0,0,1,1-2.4A14.38,14.38,0,0,1,97.45,38a.55.55,0,0,1,.77-.12.55.55,0,0,1,.13.76l0,0a12.85,12.85,0,0,0-1.15,2.11,22.61,22.61,0,0,0-.89,2.29,24.68,24.68,0,0,0-.66,2.38c-.09.4-.19.81-.3,1.24s-.23.84-.36,1.24c-1,3.26-2.25,6.39-3.47,9.54C89.06,63.75,86.43,70,83.89,76.19s-5,12.52-7.22,18.82l-.42,1.19-.51,1.26a20.37,20.37,0,0,1-1.26,2.35A29.1,29.1,0,0,1,71.32,104a48.45,48.45,0,0,1-7.72,6.93,1.27,1.27,0,0,1-1.78-.28,1.28,1.28,0,0,1,.28-1.79h0Z"></path>
      <path class="cls-2" d="M87.43,65a22.73,22.73,0,0,0,4.28,0A28.19,28.19,0,0,0,96,64.15c1.42-.34,2.77-.86,4.19-1.34.71-.23,1.42-.44,2.15-.62a8.45,8.45,0,0,1,1.12-.19,2.09,2.09,0,0,1,.61,0,.67.67,0,0,1,.34.12.4.4,0,0,1,.13.46,0,0,0,0,1-.06,0h0l-.25-.16s0,0,0,0a.56.56,0,0,0-.18,0,2.16,2.16,0,0,0-.5,0,9.92,9.92,0,0,0-1,.24c-.69.21-1.38.46-2.06.73-1.35.54-2.73,1.15-4.16,1.59a28.72,28.72,0,0,1-4.38,1,23.63,23.63,0,0,1-4.55.3.68.68,0,0,1,0-1.36h.08Z"></path>
      <path class="cls-2" d="M83.79,73.37a24.76,24.76,0,0,1-2.14-2.51,30.26,30.26,0,0,1-1.81-2.7,27.86,27.86,0,0,1-1.53-2.85,30.82,30.82,0,0,1-1.21-3,.37.37,0,0,1,.69-.27h0c.42,1,.85,1.92,1.36,2.83A30.57,30.57,0,0,0,82.72,70a23.56,23.56,0,0,0,2.13,2.21l0,0a.79.79,0,0,1-1,1.18S83.8,73.38,83.79,73.37Z"></path>
      <path class="cls-2" d="M57.81,133.26c-.26-1-.62-2.18-1-3.24s-.8-2.15-1.26-3.2a30.68,30.68,0,0,0-3.36-5.88,15.24,15.24,0,0,0-4.81-4.36,10.83,10.83,0,0,0-4.59-1.22c-.55,0-1.11,0-1.66,0a13.51,13.51,0,0,0-6.23,2,15.67,15.67,0,0,0-4.68,4.77,21.91,21.91,0,0,0-2.68,6.31,17.94,17.94,0,0,0-.53,3.4,9.51,9.51,0,0,0,0,1.69,3.72,3.72,0,0,0,.41,1.49l0,0a.48.48,0,0,1-.81.5,4.7,4.7,0,0,1-.65-1.88,10.76,10.76,0,0,1-.13-1.87,19.39,19.39,0,0,1,.37-3.65,22.17,22.17,0,0,1,2.56-6.88,17.33,17.33,0,0,1,5-5.53,15.23,15.23,0,0,1,3.37-1.76,16.43,16.43,0,0,1,3.71-.88c.63-.09,1.26-.09,1.89-.13a12.82,12.82,0,0,1,2,.13,13.4,13.4,0,0,1,3.76,1.14,17.94,17.94,0,0,1,5.89,4.88,31.68,31.68,0,0,1,3.87,6.38c.51,1.12,1,2.26,1.39,3.42s.76,2.31,1.06,3.57a1.5,1.5,0,0,1-2.91.72Z"></path>
      <path class="cls-2" d="M57.45,152.82a9,9,0,0,0,1-.34,10.32,10.32,0,0,0,1-.48,12.61,12.61,0,0,0,1.91-1.26,15.13,15.13,0,0,0,3.16-3.37,25.18,25.18,0,0,0,3.52-8.8,48.54,48.54,0,0,1,3-9.6,19.84,19.84,0,0,1,6.49-7.8l0,0a7.09,7.09,0,0,1,1-.64c.34-.19.69-.35,1-.51.7-.3,1.39-.58,2.1-.81a38.65,38.65,0,0,1,4.31-1.16c.72-.17,1.45-.29,2.17-.43l2.19-.34,2.19-.28,2.2-.22a.43.43,0,0,1,.1.86h0l-2.16.27-2.16.33-2.15.39c-.71.16-1.42.29-2.12.47A36.71,36.71,0,0,0,82,120.36c-.67.24-1.33.52-2,.82-.32.15-.64.31-.94.48a7.61,7.61,0,0,0-.81.53l0,0a18.37,18.37,0,0,0-5.84,7.4A47.56,47.56,0,0,0,69.79,139a42,42,0,0,1-1.31,4.88,20.79,20.79,0,0,1-2.27,4.67,17.57,17.57,0,0,1-3.49,3.92A14.43,14.43,0,0,1,60.53,154a12.34,12.34,0,0,1-1.2.62l-.64.26c-.23.08-.42.15-.72.23a1.16,1.16,0,0,1-.59-2.24h.07Z"></path>
      <path class="cls-3" d="M42.17,72s-8.49-1.58-7.77,9.51A7.45,7.45,0,0,0,39.15,88s-1.34-3,1.06-4.17S45.63,76.63,42.17,72Z"></path>
      <path class="cls-3" d="M78.07,85.51s8-7.73,14.68,1.77C92.75,87.28,81.05,93.48,78.07,85.51Z"></path>
      <path class="cls-3" d="M67.46,82.55s8.83,3.68,3.6,13.08C71.06,95.63,60.41,90.14,67.46,82.55Z"></path>
      <path class="cls-3" d="M44.33,102s-6.48,12.43,7.25,14.4c0,0,3.59-4.85-2.63-8.35C44.52,105.52,44.33,102,44.33,102Z"></path>
      <path class="cls-3" d="M62.86,123.13s2.4-10.75,7.39-11.51C70.25,111.62,71.64,126.83,62.86,123.13Z"></path>
      <path class="cls-3" d="M50.38,117.18s3.31,6.1-1.06,14.59c0,0-4.56-2.73-4.36-6.48S45.68,117.52,50.38,117.18Z"></path>
      <path class="cls-3" d="M36.89,115.45s-6.28,3.8-3,8.79,8,4.46,8,4.46-1.68-3.65-1.2-5.33S41.5,115.6,36.89,115.45Z"></path>
      <path class="cls-3" d="M39.87,114.49s3-3.55-2.64-5.66-7.29-3.5-7.77-4.37S23.89,118,39.87,114.49Z"></path>
      <path class="cls-3" d="M33.34,117.18s-3.5-4.08-8.68,0a7.15,7.15,0,0,0-2.31,9.17,30.91,30.91,0,0,1,7.54-4.56A5.08,5.08,0,0,0,33.34,117.18Z"></path>
      <path class="cls-3" d="M29.46,122.75s-.44,2.73,3.88,5.76,2.5,7,2.5,7-8.4-2-9-4.65S24.75,124.86,29.46,122.75Z"></path>
      <path class="cls-3" d="M26.11,129.37s-10.57,4-2.51,13c0,0,3.26-5.23,3.22-7.87A25.4,25.4,0,0,0,26.11,129.37Z"></path>
      <path class="cls-3" d="M27.45,133.83s-4,20.4,10.79,16.13c0,0,4.11-7.82-5.65-11.9C32.59,138.06,29.92,137.75,27.45,133.83Z"></path>
      <path class="cls-3" d="M57.34,151.49s.57-4.55-5.28-4.46c0,0-3.22,1-3.79-2.35C48.27,144.68,47.45,157.83,57.34,151.49Z"></path>
      <path class="cls-3" d="M91.94,117.18s1.92-7.44,6.24-7.68,8-.48,8.25,8.79c0,0-4.56-4.66-8.83-1.49S91.94,117.18,91.94,117.18Z"></path>
      <path class="cls-3" d="M96.31,116.65s-4.61,8.64,5.61,14.31C101.92,131,106.29,119.15,96.31,116.65Z"></path>
      <path class="cls-3" d="M94.19,132.35a15.72,15.72,0,0,1-2.78-8.55c-.27-4.31-3.17-5-4.8-5.09a5,5,0,0,0-1.1.06S79.8,133.69,94.19,132.35Z"></path>
      <path class="cls-3" d="M86.9,117.66s2.83-8.59-9-7.2c0,0-7.44,2.55-5.19,9.36,0,0,1.11-2.92,4.37-1.51A12.07,12.07,0,0,0,86.9,117.66Z"></path>
      <path class="cls-3" d="M76.63,122.56s8.3-1.22,6,9.87c0,0-2.16-3.41-3.79-3.71S77.64,123,76.63,122.56Z"></path>
      <path class="cls-3" d="M70.92,129.56s-4.51,11.42,10.6,9.79a8.53,8.53,0,0,1-4.17-5.52C76.34,129.8,72.65,129.47,70.92,129.56Z"></path>
      <path class="cls-3" d="M67,146.31s5.9-2.25,5.86,5.81,1.48,7.39,1.48,7.39S62.62,159.36,67,146.31Z"></path>
      <path class="cls-1" d="M67,80.52c.25-.24-2.69-4.66-4.07-6.24s-2.35-6-2.35-6-2.07.43-1.54,8.21S62.92,84.48,67,80.52Z"></path>
      <path class="cls-1" d="M82.69,76.77s1.43-5.18,9.25-2.15c0,0-.17,1.41,3.75-1C95.69,73.67,91.82,88.87,82.69,76.77Z"></path>
      <path class="cls-1" d="M68,78.79s5.59-2,3.67-7.63c-1.86-5.43,1.18-8.78,1.18-8.78s5.29,3.08,5.49,8.44c.18,4.72-.79,10.93-7.06,11a3.28,3.28,0,0,1-3.19-2.62Z"></path>
      <path class="cls-1" d="M97.17,63.82s9.07-12.67,13-.58a28.28,28.28,0,0,0-5.62,1.3C103.07,65.26,102.64,66.85,97.17,63.82Z"></path>
      <path class="cls-1" d="M94,48.88s10.35,5.74,12.36-5.35A55.09,55.09,0,0,1,98.9,44C96.54,43.76,93.89,46.76,94,48.88Z"></path>
      <path class="cls-1" d="M95,44S91,33.3,105.23,35.6c0,0-3,3.89-3.45,5.33S99.47,43.52,95,44Z"></path>
      <path class="cls-1" d="M74.71,51.82s-4.17,8,3.74,12.72C78.45,64.54,82.26,56.71,74.71,51.82Z"></path>
      <path class="cls-1" d="M57.33,38.78S65.45,46,63.58,49.35a15.63,15.63,0,0,1-4.75-1.58C57.39,46.76,54.4,42.6,57.33,38.78Z"></path>
      <path class="cls-1" d="M52,60.3s1.93,14.6-8,12.59c0,0-3-7.57,2.49-10.08S50.52,62.1,52,60.3Z"></path>
      <path id="_1" data-name="1" class="cls-1" d="M42.86,35.72s-7.49,7.33,1.44,13.52c0,0,3.59-4.32,0-10C42.26,36,42.86,35.72,42.86,35.72Z"></path>
      <path class="cls-1" d="M44.77,55.43s-6.9,1.15-7.47-9.36A33.23,33.23,0,0,0,41.91,50C43.63,51,45.34,53,44.77,55.43Z"></path>
      <path class="cls-1" d="M40,61.91s-.72-4-7.48-2.16-5-.27-6-.5S31.25,73.86,40,61.91Z"></path>
      <path class="cls-1" d="M36.58,55.91s-2.51-7.8-11-3C25.55,52.94,32.77,62.23,36.58,55.91Z"></path>
      <path class="cls-4" d="M45.34,175.93s.76-4.32,6.88-1.15c0,0,.43.64,1.9,0s4.9-2.4,8.39-1.43c0,0,1.87-3.39,5.72,0,0,0,4,.43,4,3.6l.54,1.87s0,4.57-5.9,3.35a3,3,0,0,1-3.71,2.38l-1.29.93a3.82,3.82,0,0,1-5.83.83,5.18,5.18,0,0,0-3.24-.9c-1.95.11-2.41-1-3.13-1.8A13.22,13.22,0,0,0,47.54,182a3.48,3.48,0,0,1-.72-2.7C47.07,178.27,44.91,177.37,45.34,175.93Z"></path>
      <path class="cls-5" d="M27.63,179.59s2.78-2.9,8.59-1.32,11.28-2,11.28-2"></path>
      <path class="cls-5" d="M20.57,195.12s4.62-9.5,20-9.22c8.67.17,7.68-7.05,7.68-7.05"></path>
      <path class="cls-4" d="M47.22,184a9.62,9.62,0,0,1-2.47,1,8.89,8.89,0,0,1-2.67.27,7.6,7.6,0,0,1-2.66-.58,9.7,9.7,0,0,1-2.35-1.37.58.58,0,0,1-.12-.8.58.58,0,0,1,.81-.12h0l0,0a8.54,8.54,0,0,0,2,1.3,6.6,6.6,0,0,0,2.31.62,8,8,0,0,0,2.43-.13,8.76,8.76,0,0,0,2.3-.82h0a.33.33,0,0,1,.32.58Z"></path>
      <path class="cls-5" d="M55.71,183.86a13.51,13.51,0,0,0-7.41,11.26"></path>
      <path class="cls-5" d="M47.5,199.72c-1.3,5.76-1.58,6.91-1.58,6.91"></path>
      <path class="cls-5" d="M53.74,210.23s-8.79-6.34-5.49-12.38"></path>
      <path class="cls-6" d="M58.44,185.62s-2.32,3.74-1.09,6,1.44,3,3.42,4.9a13.28,13.28,0,0,1,3.57,6.62,11.5,11.5,0,0,0,2.45,4.75"></path>
      <path class="cls-5" d="M63.73,201.14s1.69,3.48,9.07,5.49"></path>
      <path class="cls-5" d="M58.09,193.07s2.46,2.48,1.62,4.78-2.83,9.36-1.62,11.38"></path>
      <path class="cls-5" d="M61.89,182.88s.68,7.34,3.8,7.77"></path>
      <path class="cls-5" d="M65.69,182.88A8.93,8.93,0,0,0,72.8,187c5.08.36,7.67,12.74,7.67,12.74"></path>
      <path class="cls-5" d="M70.21,177.92a20.05,20.05,0,0,0,11.31.93c6.44-1.3,9.17,2,9.17,2"></path>
      <path class="cls-5" d="M79.82,179.12s4,2.42,3.18,4.74"></path>
      <ellipse class="cls-7" cx="12.29" cy="198.85" rx="13.68" ry="7.92" transform="translate(-105.44 38.13) rotate(-32.69)"></ellipse>
      <path class="cls-7" d="M23.2,186.47a16.14,16.14,0,0,0-2.64.82c-2.2.92-7.34,2.34-8.27-1.67-1.21-5.19,8.89-8,10-8.5,2-.86,11,.69,6,6.74C27.15,185.33,24.79,186.1,23.2,186.47Z"></path>
      <path class="cls-7" d="M36.22,192.53s-10.85,1.58-12.53,7.19-.11,8.64,2.42,10.51,7.14,3.75,12-1,11.38-9,12.48-11.38c.72-1.54,1.72-9.17-5.67-9.55S40.53,191.49,36.22,192.53Z"></path>
      <path class="cls-7" d="M51.72,216.72A5.73,5.73,0,0,1,50,213c-.07-1.64.58-3.72,3.75-5,5.85-2.45,14.22.72,16.59,3s7.32,6.63-.12,10.51C63.62,224.9,55.2,220.23,51.72,216.72Z"></path>
      <path class="cls-7" d="M62.86,193.07s-.47-9.61,7.35-6.09,8.1,15.19,4.93,16.2S64.54,205.12,62.86,193.07Z"></path>
      <path class="cls-7" d="M87.2,183.86s.9-5.74,5.65-7,13.82,2.42,14.83,3.48,8.21,7,10.36,13.44,0,16-12.66,8.35S87.88,192.19,87.2,183.86Z"></path>
      <path class="cls-7" d="M78.89,204s-3.29-6.48,4.11-8.2,7.69.93,7.69.93,11.09,4.68,13,11.16-6.34,13.07-15.41,6.9S78.89,204,78.89,204Z"></path>
      <path class="cls-7" d="M53.6,198.66A7.06,7.06,0,0,0,51.81,204c.16,1.66,1,3.25,3.9,2.27,5.32-1.79,6.61-5.3,6.36-6s-.67-7.55-6.36-3.48A12.68,12.68,0,0,0,53.6,198.66Z"></path>
      <path class="cls-7" d="M46.92,209.93c.77-1.16,3.19-5.32-1.85-5a2.08,2.08,0,0,0-1.78,3l0,.06c1,1.78,1.14,3.94,3.07,2.56A2.36,2.36,0,0,0,46.92,209.93Z"></path>
      <path class="cls-7" d="M75.84,206.27s2.81,4.68-1.47,4-2.64-5.8-1.29-5.35S74.94,203.47,75.84,206.27Z"></path>
      <path class="cls-7" d="M85.62,181a3.47,3.47,0,0,0-4.77,4c.64,2.81,2.22,6.95,5.38,2.37C88.46,184.1,87.42,181.83,85.62,181Z"></path>
      <path class="cls-7" d="M34.44,183.86c-.65-.63-.82-4.35,2.59-3.31S37.64,187,34.44,183.86Z"></path>
      <path class="cls-7" d="M55.71,195.25s1.37-5.32-3.71-2.87S53,201.29,55.71,195.25Z"></path>
      <circle class="cls-8" cx="6.66" cy="197.76" r="1.09"></circle>
      <circle class="cls-8" cx="28.18" cy="201.89" r="1.09"></circle>
      <circle class="cls-8" cx="33.02" cy="201.34" r="1.09"></circle>
      <circle class="cls-8" cx="63.73" cy="218.39" r="1.09"></circle>
      <circle class="cls-8" cx="90.52" cy="208.68" r="1.09"></circle>
      <circle class="cls-8" cx="97.03" cy="189.49" r="1.09"></circle>
      <circle class="cls-8" cx="94.06" cy="212.77" r="1.09"></circle>
      <circle class="cls-8" cx="101.89" cy="192.78" r="1.09"></circle>
      <circle class="cls-8" cx="71.62" cy="196.77" r="1.09"></circle>
      <circle class="cls-8" cx="66.79" cy="194.97" r="1.09"></circle>
      <circle class="cls-8" cx="19.48" cy="181.96" r="1.09"></circle>
      <circle class="cls-8" cx="34.44" cy="204.59" r="1.09"></circle>
      <circle class="cls-8" cx="4.96" cy="201.34" r="1.09"></circle>
      <circle class="cls-8" cx="31.48" cy="204.59" r="0.55"></circle>
      <circle class="cls-8" cx="62.85" cy="215.82" r="0.55"></circle>
      <circle class="cls-8" cx="59.89" cy="217.29" r="0.55"></circle>
      <circle class="cls-8" cx="90.52" cy="211.85" r="0.92"></circle>
      <circle class="cls-8" cx="98.12" cy="193.87" r="0.92"></circle>
      <circle class="cls-8" cx="68.27" cy="198.85" r="0.55"></circle>
      <circle class="cls-8" cx="86.65" cy="209.23" r="0.55"></circle>
      <circle class="cls-8" cx="101.89" cy="196.77" r="0.55"></circle>
      <circle class="cls-8" cx="83.98" cy="206.27" r="0.55"></circle>
      <circle class="cls-8" cx="16.98" cy="185.62" r="0.55"></circle>
      <circle class="cls-8" cx="16.43" cy="183.86" r="0.55"></circle>
      <circle class="cls-8" cx="29.84" cy="206.77" r="1.09"></circle>
      <circle class="cls-8" cx="55.71" cy="215.82" r="1.09"></circle>
      <circle class="cls-8" cx="9.1" cy="200.55" r="1.34"></circle>
    </g>
  </g>
</svg>
