<?xml version="1.0" encoding="UTF-8"?>
<svg xmlns="http://www.w3.org/2000/svg" viewBox="0 0 118.78 185.76">
  <defs>
    <style>.cls-1{fill:#a38c48;}.cls-2{fill:#cfcecf;}.cls-3,.cls-4{fill:none;stroke:#cfcecf;stroke-width:1.15px;}.cls-3{stroke-miterlimit:10;}.cls-4{stroke-linecap:round;stroke-linejoin:round;}.cls-5{fill:#e9c671;}.cls-6{fill:#d9a458;}</style>
  </defs>
  <g id="Слой_2" data-name="Слой 2">
    <g id="Слой_1-2" data-name="Слой 1">
      <path class="cls-1" d="M60.94.21a10.84,10.84,0,0,1,.66,2.15,17.9,17.9,0,0,1,.32,2.18,24,24,0,0,1,0,4.4,38.4,38.4,0,0,1-1.85,8.54,63.09,63.09,0,0,1-3.41,8,28.35,28.35,0,0,0-1.59,3.93,24.28,24.28,0,0,0-.84,4.12,25.27,25.27,0,0,0,.64,8.39,72.12,72.12,0,0,0,2.57,8.17c1,2.72,1.94,5.46,2.7,8.3.37,1.41.69,2.85.93,4.31a37.92,37.92,0,0,1,.46,4.4A84.82,84.82,0,0,1,59.8,84.53c-1,5.7-2.12,11.34-2.63,17A58.61,58.61,0,0,0,57,110a40.9,40.9,0,0,0,.47,4.17c.13.68.2,1.38.38,2l.54,2c.16.65.41,1.38.61,2.1s.37,1.45.53,2.18c.32,1.45.56,2.92.75,4.37s.36,2.91.47,4.38a23.92,23.92,0,0,1,0,4.64,1.44,1.44,0,0,1-2.86-.35v-.08a21.29,21.29,0,0,0,0-4c-.09-1.4-.23-2.82-.39-4.24s-.37-2.79-.64-4.16c-.14-.69-.3-1.37-.47-2s-.39-1.31-.56-2.07l-.55-2.18c-.18-.73-.25-1.47-.37-2.21a39,39,0,0,1-.43-4.44,60.25,60.25,0,0,1,.37-8.82c.61-5.82,1.84-11.5,2.92-17.15a83.92,83.92,0,0,0,2-17,39.71,39.71,0,0,0-.38-4.2c-.21-1.4-.49-2.79-.83-4.16-.69-2.76-1.61-5.48-2.54-8.21a77.15,77.15,0,0,1-2.48-8.38A26.86,26.86,0,0,1,53,33.42a24.53,24.53,0,0,1,1-4.34A28,28,0,0,1,55.66,25a60.16,60.16,0,0,0,3.48-7.84,36.64,36.64,0,0,0,1.94-8.31,22.36,22.36,0,0,0,.08-4.25A13.79,13.79,0,0,0,60.31.52v0a.35.35,0,0,1,.64-.27Z"></path>
      <path class="cls-1" d="M59.17,18.28a32,32,0,0,0,3.68-1,28.25,28.25,0,0,0,3.54-1.5,18.37,18.37,0,0,0,3.21-2.08,11.16,11.16,0,0,0,2.48-2.87h0a.17.17,0,0,1,.24-.06.18.18,0,0,1,.07.23A11.74,11.74,0,0,1,70,14.06a18.18,18.18,0,0,1-3.23,2.29,26.38,26.38,0,0,1-3.56,1.7,29.73,29.73,0,0,1-3.77,1.25.52.52,0,0,1-.63-.38.51.51,0,0,1,.37-.63h0Z"></path>
      <path class="cls-1" d="M35.38,17.44a25.42,25.42,0,0,1,2.12,3.65c.62,1.24,1.19,2.52,1.72,3.8l1.51,3.85a33.55,33.55,0,0,0,1.84,3.64,28.64,28.64,0,0,0,4.94,6.4,15.15,15.15,0,0,0,3.19,2.33,6.84,6.84,0,0,0,3.6.92.73.73,0,0,1,.09,1.45h0a8.28,8.28,0,0,1-4.32-1.17,16.6,16.6,0,0,1-3.42-2.62,29.77,29.77,0,0,1-5-6.77,35.71,35.71,0,0,1-1.81-3.8l-1.43-3.89c-.5-1.28-1-2.55-1.61-3.79a24.81,24.81,0,0,0-2-3.55l0,0a.36.36,0,0,1,.09-.5A.37.37,0,0,1,35.38,17.44Z"></path>
      <path class="cls-1" d="M64,29.08A17.19,17.19,0,0,1,66.41,36a18.28,18.28,0,0,1,.07,3.7c-.09.61-.12,1.23-.27,1.83l-.19.91c-.07.3-.17.59-.25.89A45.87,45.87,0,0,1,63,50.12c-.55,1.09-1.14,2.16-1.8,3.2a22.1,22.1,0,0,1-2.22,3,.61.61,0,0,1-.86,0,.6.6,0,0,1,0-.86h0l0,0a22.22,22.22,0,0,0,2.14-2.76c.65-1,1.26-2,1.81-3.07a43.91,43.91,0,0,0,2.85-6.57c.09-.28.19-.55.27-.84l.2-.86a14.69,14.69,0,0,0,.29-1.74,16.76,16.76,0,0,0,0-3.54,16.32,16.32,0,0,0-2.13-6.71v0a.28.28,0,0,1,.1-.37A.27.27,0,0,1,64,29.08Z"></path>
      <path class="cls-1" d="M36.23,57.28A79.72,79.72,0,0,0,37.84,68a17.42,17.42,0,0,0,.78,2.54,13.07,13.07,0,0,0,1.31,2.26,46.49,46.49,0,0,0,3.29,4.26A47.16,47.16,0,0,0,47,80.92c1.31,1.2,2.74,2.38,4.08,3.62A45.34,45.34,0,0,1,55,88.47a19.36,19.36,0,0,1,1.72,2.25,9.24,9.24,0,0,1,1.26,2.73.86.86,0,0,1-1.67.41v0h0a7.64,7.64,0,0,0-1-2.23,16.94,16.94,0,0,0-1.54-2.11A44.91,44.91,0,0,0,50,85.6c-1.3-1.26-2.65-2.42-4-3.71a52.91,52.91,0,0,1-3.73-4.06A45.92,45.92,0,0,1,39,73.38c-.25-.39-.49-.78-.73-1.18a5.33,5.33,0,0,1-.33-.63,5.43,5.43,0,0,1-.29-.67,20.45,20.45,0,0,1-.77-2.69,81.91,81.91,0,0,1-1.37-10.88.35.35,0,0,1,.69-.06Z"></path>
      <path class="cls-1" d="M69.41,87.06a2,2,0,0,1,0,.61l-.07.44-.15.88-.33,1.75c-.23,1.16-.48,2.31-.75,3.47s-.57,2.3-.91,3.44a19.93,19.93,0,0,1-1.28,3.41,35.5,35.5,0,0,1-3.62,6.22A10.26,10.26,0,0,1,55.83,111a.84.84,0,0,1-.95-.68.83.83,0,0,1,.67-.95h.05a9,9,0,0,0,3.07-1,9.13,9.13,0,0,0,2.52-2,34.29,34.29,0,0,0,3.66-5.87,19.4,19.4,0,0,0,1.31-3.16c.37-1.1.7-2.22,1-3.36s.6-2.27.86-3.41l.39-1.72.17-.85.08-.43c0-.13,0-.34.07-.27a.35.35,0,0,1,.23-.45A.35.35,0,0,1,69.41,87.06Z"></path>
      <path class="cls-2" d="M45.34,139s.76-4.32,6.88-1.15c0,0,.43.64,1.9,0s4.9-2.4,8.39-1.43c0,0,1.87-3.39,5.72,0,0,0,4,.43,4,3.6l.54,1.87s0,4.57-5.9,3.35a3,3,0,0,1-3.71,2.37l-1.29.94a3.82,3.82,0,0,1-5.83.83,5.18,5.18,0,0,0-3.24-.9c-1.95.11-2.41-1-3.13-1.8a13.22,13.22,0,0,0-2.16-1.58,3.48,3.48,0,0,1-.72-2.7C47.07,141.36,44.91,140.46,45.34,139Z"></path>
      <path class="cls-3" d="M27.63,142.68s2.78-2.9,8.59-1.32,11.28-2,11.28-2"></path>
      <path class="cls-3" d="M20.57,158.21s4.62-9.51,20-9.22c8.67.16,7.68-7.05,7.68-7.05"></path>
      <path class="cls-2" d="M47.22,147.07a9.62,9.62,0,0,1-2.47,1,8.89,8.89,0,0,1-2.67.27,7.6,7.6,0,0,1-2.66-.58,9.7,9.7,0,0,1-2.35-1.37.58.58,0,1,1,.69-.93l0,0,0,0a8.54,8.54,0,0,0,2,1.3,6.6,6.6,0,0,0,2.31.62,8,8,0,0,0,2.43-.13,8.76,8.76,0,0,0,2.3-.82h0a.33.33,0,0,1,.32.58Z"></path>
      <path class="cls-3" d="M55.71,147a13.51,13.51,0,0,0-7.41,11.26"></path>
      <path class="cls-3" d="M47.5,162.81c-1.3,5.76-1.58,6.91-1.58,6.91"></path>
      <path class="cls-3" d="M53.74,173.32S45,167,48.25,160.94"></path>
      <path class="cls-4" d="M58.44,148.7s-2.32,3.75-1.09,6.05,1.44,3,3.42,4.9a13.28,13.28,0,0,1,3.57,6.62A11.5,11.5,0,0,0,66.79,171"></path>
      <path class="cls-3" d="M63.73,164.23s1.69,3.48,9.07,5.49"></path>
      <path class="cls-3" d="M58.09,156.16s2.46,2.48,1.62,4.78-2.83,9.36-1.62,11.38"></path>
      <path class="cls-3" d="M61.89,146s.68,7.34,3.8,7.77"></path>
      <path class="cls-3" d="M65.69,146a8.93,8.93,0,0,0,7.11,4.1c5.08.36,7.67,12.74,7.67,12.74"></path>
      <path class="cls-3" d="M70.21,141a20.05,20.05,0,0,0,11.31.93c6.44-1.3,9.17,2,9.17,2"></path>
      <path class="cls-3" d="M79.82,142.21s4,2.42,3.18,4.74"></path>
      <ellipse class="cls-5" cx="12.29" cy="161.94" rx="13.68" ry="7.92" transform="translate(-85.51 32.28) rotate(-32.69)"></ellipse>
      <path class="cls-5" d="M23.2,149.56a16.14,16.14,0,0,0-2.64.82c-2.2.91-7.34,2.34-8.27-1.68-1.21-5.18,8.89-8,10-8.49,2-.86,11,.69,6,6.74C27.15,148.42,24.79,149.18,23.2,149.56Z"></path>
      <path class="cls-5" d="M36.22,155.62s-10.85,1.58-12.53,7.19-.11,8.64,2.42,10.51,7.14,3.75,12-1,11.38-9,12.48-11.38c.72-1.54,1.72-9.17-5.67-9.55S40.53,154.58,36.22,155.62Z"></path>
      <path class="cls-5" d="M51.72,179.81A5.73,5.73,0,0,1,50,176.07c-.07-1.64.58-3.72,3.75-5,5.85-2.45,14.22.72,16.59,3s7.32,6.63-.12,10.51C63.62,188,55.2,183.32,51.72,179.81Z"></path>
      <path class="cls-5" d="M62.86,156.16s-.47-9.61,7.35-6.09,8.1,15.19,4.93,16.2S64.54,168.21,62.86,156.16Z"></path>
      <path class="cls-5" d="M87.2,147s.9-5.74,5.65-7,13.82,2.42,14.83,3.48,8.21,7,10.36,13.44,0,16-12.66,8.35S87.88,155.28,87.2,147Z"></path>
      <path class="cls-5" d="M78.89,167.13s-3.29-6.48,4.11-8.2,7.69.93,7.69.93,11.09,4.68,13,11.16-6.34,13.07-15.41,6.89S78.89,167.13,78.89,167.13Z"></path>
      <path class="cls-5" d="M53.6,161.75a7,7,0,0,0-1.79,5.34c.16,1.66,1,3.25,3.9,2.27,5.32-1.8,6.61-5.3,6.36-6s-.67-7.55-6.36-3.48A12.68,12.68,0,0,0,53.6,161.75Z"></path>
      <path class="cls-5" d="M46.92,173c.77-1.16,3.19-5.32-1.85-5a2.08,2.08,0,0,0-1.78,3l0,.06c1,1.78,1.14,3.94,3.07,2.56A2.36,2.36,0,0,0,46.92,173Z"></path>
      <path class="cls-5" d="M75.84,169.36s2.81,4.68-1.47,4-2.64-5.8-1.29-5.35S74.94,166.56,75.84,169.36Z"></path>
      <path class="cls-5" d="M85.62,144a3.47,3.47,0,0,0-4.77,4c.64,2.81,2.22,6.95,5.38,2.37C88.46,147.19,87.42,144.92,85.62,144Z"></path>
      <path class="cls-5" d="M34.44,147c-.65-.63-.82-4.35,2.59-3.32S37.64,150.1,34.44,147Z"></path>
      <path class="cls-5" d="M55.71,158.34S57.08,153,52,155.47,53,164.38,55.71,158.34Z"></path>
      <circle class="cls-6" cx="6.66" cy="160.85" r="1.09"></circle>
      <circle class="cls-6" cx="28.18" cy="164.98" r="1.09"></circle>
      <circle class="cls-6" cx="33.02" cy="164.43" r="1.09"></circle>
      <circle class="cls-6" cx="63.73" cy="181.48" r="1.09"></circle>
      <circle class="cls-6" cx="90.52" cy="171.77" r="1.09"></circle>
      <circle class="cls-6" cx="97.03" cy="152.58" r="1.09"></circle>
      <circle class="cls-6" cx="94.06" cy="175.86" r="1.09"></circle>
      <circle class="cls-6" cx="101.89" cy="155.87" r="1.09"></circle>
      <circle class="cls-6" cx="71.62" cy="159.86" r="1.09"></circle>
      <circle class="cls-6" cx="66.79" cy="158.05" r="1.09"></circle>
      <circle class="cls-6" cx="19.48" cy="145.05" r="1.09"></circle>
      <circle class="cls-6" cx="34.44" cy="167.68" r="1.09"></circle>
      <circle class="cls-6" cx="4.96" cy="164.43" r="1.09"></circle>
      <circle class="cls-6" cx="31.48" cy="167.68" r="0.55"></circle>
      <circle class="cls-6" cx="62.85" cy="178.91" r="0.55"></circle>
      <circle class="cls-6" cx="59.89" cy="180.38" r="0.55"></circle>
      <circle class="cls-6" cx="90.52" cy="174.94" r="0.92"></circle>
      <circle class="cls-6" cx="98.12" cy="156.96" r="0.92"></circle>
      <circle class="cls-6" cx="68.27" cy="161.94" r="0.55"></circle>
      <circle class="cls-6" cx="86.65" cy="172.32" r="0.55"></circle>
      <circle class="cls-6" cx="101.89" cy="159.86" r="0.55"></circle>
      <circle class="cls-6" cx="83.98" cy="169.36" r="0.55"></circle>
      <circle class="cls-6" cx="16.98" cy="148.7" r="0.55"></circle>
      <circle class="cls-6" cx="16.43" cy="146.95" r="0.55"></circle>
      <circle class="cls-6" cx="29.84" cy="169.86" r="1.09"></circle>
      <circle class="cls-6" cx="55.71" cy="178.91" r="1.09"></circle>
      <circle class="cls-6" cx="9.1" cy="163.64" r="1.34"></circle>
      <path class="cls-1" d="M54.68,3.39c0,.86,7.34,5.32,4.89,11.08,0,0-5.61-3.31-6.77-5.54S54.68,3.39,54.68,3.39Z"></path>
      <path class="cls-1" d="M66.77,7.13s-3.74,3.31,0,8.49C66.77,15.62,70.22,13.61,66.77,7.13Z"></path>
      <path class="cls-1" d="M62.88,17.35c.2-.58,5.47-2.3,6.19,6.19C69.07,23.54,60.66,23.69,62.88,17.35Z"></path>
      <path class="cls-1" d="M58.42,19.22s-8.64,5.62-10.8-7.84a12.47,12.47,0,0,0,7.63,3.09C59.57,14.47,58.42,17.93,58.42,19.22Z"></path>
      <path class="cls-1" d="M65.79,33.76s-2.34-2.16-5.72,0-1.51,10.66-1.51,10.66,1.38,2.16,3.36-2.31S65.79,33.76,65.79,33.76Z"></path>
      <path class="cls-1" d="M35.38,16.81s-4.46-4.89-10.79,3.37C24.59,20.18,33.37,24,35.38,16.81Z"></path>
      <path class="cls-1" d="M38.12,23.54c0-.61-4.46-2.59-6.91-.86s-5.62.18-5.62.18,1,7.3,6.27,7S38,26.57,38.12,23.54Z"></path>
      <path class="cls-1" d="M43.3,34.77S41,45.57,49.06,49.89C49.06,49.89,51.8,41.39,43.3,34.77Z"></path>
      <path class="cls-1" d="M65.1,44s-4.47,6.48,3.2,12.53C68.3,56.51,73.66,47.58,65.1,44Z"></path>
      <path class="cls-1" d="M59.28,61.69s-4-2.73-6.74-4.32-3.77-4.89-4.92-.86,2.82,13.3,8.69,7.92Z"></path>
      <path class="cls-1" d="M38.12,66.07s-5.76-8.66,7.34-11.48C45.46,54.59,44.74,68.14,38.12,66.07Z"></path>
      <path class="cls-1" d="M31.86,72.49s-7.31-16,3.52-16C39.16,56.51,31.86,72.49,31.86,72.49Z"></path>
      <path class="cls-1" d="M42,77.24S37.09,69,49.48,66.07c0,0,.48,8.87-2.06,9.3A23.23,23.23,0,0,0,42,77.24Z"></path>
      <path class="cls-1" d="M41.16,78.11S36.25,80,40,87a40.82,40.82,0,0,0,1.17,4C41.53,91.83,47.22,83.58,41.16,78.11Z"></path>
      <path class="cls-1" d="M48.15,81.75s-3.1-3.07,1.33-6.14,5.2-5.18,5.2-6.14S61.11,83.1,48.15,81.75Z"></path>
      <path class="cls-1" d="M51.68,87.8S47.3,86,45.28,93.17,38.12,98,38.12,98,55.22,105.84,51.68,87.8Z"></path>
      <path class="cls-1" d="M60.63,81.84s4.31-9.44,7-10.19C67.63,71.65,69.65,84.71,60.63,81.84Z"></path>
      <path class="cls-1" d="M68.3,89.72c.07-.3,3.17-3.84,6.53,2.49S79,97.49,79,97.49,66,100,68.3,89.72Z"></path>
      <path class="cls-1" d="M66.88,91.11S59.76,95,60.63,101.62C60.63,101.62,67.65,101.33,66.88,91.11Z"></path>
      <path class="cls-1" d="M55,110.16c.31-.16,1.54-5.47-4.41-5.47,0,0-2.86.48-4.31-1.63C46.24,103.06,45.94,115,55,110.16Z"></path>
      <path class="cls-1" d="M64.23,104.21s4.84-3.45,6.47,5.57-.38,4.8,1.44,7.2-7.91-1.63-7.91-7.2S65,105.17,64.23,104.21Z"></path>
    </g>
  </g>
</svg>
