<?xml version="1.0" encoding="UTF-8"?>
<svg xmlns="http://www.w3.org/2000/svg" xmlns:xlink="http://www.w3.org/1999/xlink" viewBox="0 0 99.46 151.11">
  <defs>
    <style>.cls-1{fill:#605b53;}.cls-2{fill:#2b291d;}.cls-3{fill:#868175;}.cls-4{fill:#c5926f;}.cls-5{fill:#8b5b3c;}.cls-6{fill:#956d4b;}.cls-7{fill:#754120;}.cls-8{fill:#a17551;}.cls-9{fill:#44281c;}.cls-10{fill:#6c3c1d;}.cls-11{fill:#a38c48;}.cls-12{fill:#e9c671;}.cls-13{fill:#93c6ee;}.cls-14{fill:#c9e2f6;}.cls-15{fill:#aed4f2;}.cls-16{clip-path:url(#clip-path);}.cls-17{clip-path:url(#clip-path-2);}.cls-18{fill:#605c53;}.cls-19{clip-path:url(#clip-path-3);}.cls-20{fill:#d2cec7;}.cls-21{clip-path:url(#clip-path-4);}.cls-22{fill:#e2a571;}</style>
    <clipPath id="clip-path">
      <path class="cls-1" d="M73.71,60.75C69.31,66.46,62,68.11,62,68.11a21.32,21.32,0,0,1-.42-13.76c1.67-5.55,10.68-20.59,10.68-20.59a1,1,0,0,1,1.37-.42l3.65,1.92,1.15-2.18,3.41,1.8-1.15,2.18,3.47,1.84a1,1,0,0,1,.42,1.37S77.24,56.15,73.71,60.75Z"></path>
    </clipPath>
    <clipPath id="clip-path-2">
      <ellipse class="cls-2" cx="80.26" cy="33.52" rx="7.37" ry="1.22" transform="translate(13.14 88.84) rotate(-62.16)"></ellipse>
    </clipPath>
    <clipPath id="clip-path-3">
      <rect class="cls-3" x="78.37" y="31" width="4.97" height="3.09" rx="1.55" transform="translate(24.55 -33.99) rotate(27.84)"></rect>
    </clipPath>
    <clipPath id="clip-path-4">
      <path class="cls-4" d="M88.7,3.05h0A3.27,3.27,0,0,1,92,6.33v25.9a.86.86,0,0,1-.86.86H86.29a.86.86,0,0,1-.86-.86V6.33A3.27,3.27,0,0,1,88.7,3.05Z" transform="translate(18.7 -39.33) rotate(27.84)"></path>
    </clipPath>
  </defs>
  <g id="Слой_2" data-name="Слой 2">
    <g id="Слой_1-2" data-name="Слой 1">
      <polygon class="cls-5" points="6.5 131.3 48.58 151.1 87.5 131.4 47.04 114.25 6.5 131.3"></polygon>
      <polygon class="cls-5" points="0 75.1 48.58 95.4 92.72 76.68 48.58 61.11 0 75.1"></polygon>
      <path class="cls-6" d="M48.58,95.4v25.49S62,111,67.46,110.49s16.08,20.41,20,20.91l5.22-54.72Z"></path>
      <path class="cls-7" d="M3.55,105.54l3,25.76,42.08,19.81V120.89S25.35,111,22.87,107.52,3.55,105.54,3.55,105.54Z"></path>
      <path class="cls-8" d="M0,75.1l3.55,30.44s4.54.36,9.42.49c6.11.17,11.88,4.13,16.51,8.75,5.37,5.38,19.1,6.11,19.1,6.11V95.4Z"></path>
      <path class="cls-9" d="M32.38,124.12a1.94,1.94,0,0,0-.1-.75h0s-.32-.85-1.07-.87-1.2.43-1.15.66a1.65,1.65,0,0,0,.16.34s0,0,0,0a5.54,5.54,0,0,0,.63.53.29.29,0,0,0,.12.09l.12.09c.29.21.26.29.56.35a.89.89,0,0,0,.62-.15l.06-.11h0A.23.23,0,0,0,32.38,124.12Z"></path>
      <path class="cls-9" d="M14,120.61a3.9,3.9,0,0,0-1.26.69h0a2.56,2.56,0,0,0-.77,2.5c.49,1.34,1.59,1.81,2,1.56a5.51,5.51,0,0,0,.49-.53s0,0,0,0a11,11,0,0,0,.48-1.48A.68.68,0,0,0,15,123c0-.07,0-.15.07-.29.16-.65.33-.65.22-1.23a1.7,1.7,0,0,0-.71-1,1.17,1.17,0,0,0-.23,0h0A.46.46,0,0,0,14,120.61Z"></path>
      <path class="cls-9" d="M43.68,137.75a9.35,9.35,0,0,0-1.6-3.22h0s-2.79-3.28-6.19-2.18-4.71,3.82-4.12,4.79a13,13,0,0,0,1.29,1.28s.08,0,.11,0c1,.65,2.86,1,3.68,1.36a1.9,1.9,0,0,0,.65.22l.71.21c1.63.46,1.6.88,3.06.67a4.3,4.3,0,0,0,2.51-1.69,2.3,2.3,0,0,0,.11-.57h0l0-.07A1,1,0,0,0,43.68,137.75Z"></path>
      <path class="cls-9" d="M21.69,126.56a7,7,0,0,0-1.57,2.26h0s-1.18,3.09.82,5,4.3,1.76,4.73,1a10.65,10.65,0,0,0,.38-1.34s0-.05,0-.08a23.58,23.58,0,0,0-.44-3,1.51,1.51,0,0,0-.09-.51c0-.14-.06-.3-.12-.55-.29-1.27,0-1.4-.68-2.31A3.32,3.32,0,0,0,22.61,126a2.59,2.59,0,0,0-.43.14v0l0,0A.8.8,0,0,0,21.69,126.56Z"></path>
      <path class="cls-10" d="M48.58,120.89s9.46-13.37,20.36-13.7,21.63-8.26,21.63-8.26L87.5,131.4,48.58,151.11Z"></path>
      <path class="cls-9" d="M62.46,126a9.09,9.09,0,0,0-3.38,1.11v0s-3.62,2.27-3,5.76,3.08,5.16,4.11,4.72a14.43,14.43,0,0,0,1.44-1.08s0-.08,0-.11c.77-.89,1.34-2.67,1.86-3.42a1.94,1.94,0,0,0,.3-.6c.09-.17.17-.36.31-.67.68-1.53,1.08-1.44,1.09-2.91a4.28,4.28,0,0,0-1.29-2.7,2.77,2.77,0,0,0-.56-.19v0h-.07A1,1,0,0,0,62.46,126Z"></path>
      <path class="cls-9" d="M80.34,124.94a2.66,2.66,0,0,0-1-.26h0a2,2,0,0,0-1.72,1c-.41,1,0,1.83.3,1.88.09,0,.37,0,.55,0l0,0a8.8,8.8,0,0,0,1-.58.43.43,0,0,0,.18-.11l.19-.12c.42-.28.51-.19.75-.57a1.34,1.34,0,0,0,.11-.91l-.12-.14h0A.28.28,0,0,0,80.34,124.94Z"></path>
      <path class="cls-9" d="M77.11,115.56a7.13,7.13,0,0,0-2.39-1.41h0s-3.18-1-4.92,1.19-1.44,4.45-.65,4.82a8.63,8.63,0,0,0,1.37.29s0,0,.08,0a26,26,0,0,0,3-.67,1.31,1.31,0,0,0,.51-.14c.15,0,.3-.08.55-.15,1.25-.39,1.4-.11,2.27-.86a3.36,3.36,0,0,0,.91-2.15,2.83,2.83,0,0,0-.17-.42h0l0,0A.82.82,0,0,0,77.11,115.56Z"></path>
      <path class="cls-11" d="M49.76,69.56a47.83,47.83,0,0,0,5.88,3.1,12.67,12.67,0,0,0,1.53.54,7.48,7.48,0,0,0,1.6.17,26,26,0,0,0,3.3-.08,27.87,27.87,0,0,0,3.27-.43c1.06-.21,2.16-.49,3.26-.7a28.8,28.8,0,0,1,3.37-.5,11.19,11.19,0,0,1,1.74,0,5.62,5.62,0,0,1,1.8.37.51.51,0,0,1,.28.68.52.52,0,0,1-.68.29h0a4.52,4.52,0,0,0-1.46-.32,10.66,10.66,0,0,0-1.6,0,28.19,28.19,0,0,0-3.26.41c-1.1.18-2.16.43-3.29.62a30.88,30.88,0,0,1-6.75.37L57.88,74l-.43-.06L57,73.8a13.87,13.87,0,0,1-1.6-.6,50.1,50.1,0,0,1-5.87-3.28.21.21,0,0,1-.07-.29.21.21,0,0,1,.29-.07Z"></path>
      <path class="cls-11" d="M36.69,67.63c-.34.31-.71.58-1,.91l-1,1c-.34.34-.6.66-.89,1l-.91.91c-.63.59-1.28,1.14-2,1.68s-1.37,1.07-2.07,1.57a13.07,13.07,0,0,1-2.11,1.28l0,0h0a.88.88,0,0,0,.74,1.6,14.35,14.35,0,0,0,2.41-1.5c.74-.54,1.44-1.1,2.13-1.66s1.39-1.17,2-1.81c.33-.32.65-.64,1-1s.61-.71.9-1l.87-.93c.29-.31.63-.57,1-.86l.34-.31a14.19,14.19,0,0,1-1.15-1Z"></path>
      <path class="cls-11" d="M61.92,70.76c-.44.12-.88.27-1.33.35l-1.36.25c-.46.1-.87.14-1.29.22s-.84.16-1.26.25c-.83.2-1.65.44-2.48.71s-1.66.55-2.47.86a12.7,12.7,0,0,0-2.22,1l0,0h0A.88.88,0,0,1,48.54,73a15.13,15.13,0,0,1,2.59-1.18c.85-.31,1.71-.58,2.56-.85s1.74-.5,2.63-.69c.45-.1.9-.19,1.35-.26s.93-.12,1.33-.2l1.26-.21c.42-.07.83-.21,1.24-.31l.45-.11a13.63,13.63,0,0,0,.23,1.54Z"></path>
      <path class="cls-11" d="M57,77.21c-.41.21-.8.46-1.22.64l-1.27.54c-.44.19-.82.32-1.22.49s-.78.34-1.17.52c-.77.38-1.52.79-2.27,1.23s-1.5.9-2.22,1.38a12.88,12.88,0,0,0-1.94,1.5l0,0h0a.88.88,0,0,1-1.23-1.27,14.45,14.45,0,0,1,2.27-1.72c.76-.49,1.54-.94,2.32-1.38s1.59-.88,2.41-1.26c.42-.19.84-.37,1.27-.54s.87-.32,1.25-.48l1.18-.48c.39-.16.76-.39,1.14-.58a4.11,4.11,0,0,0,.42-.21,12.91,12.91,0,0,0,.56,1.46Z"></path>
      <path class="cls-11" d="M59,78.68c0,.53,4.5,3.27,3,6.8,0,0-3.44-2-4.15-3.4S59,78.68,59,78.68Z"></path>
      <path class="cls-11" d="M45.47,78.15s-2.3,2,0,5.21C45.47,83.36,47.58,82.12,45.47,78.15Z"></path>
      <path class="cls-11" d="M40.43,75.31s-5.3,3.44-6.62-4.82a7.64,7.64,0,0,0,4.68,1.9C41.13,72.39,40.43,74.51,40.43,75.31Z"></path>
      <path class="cls-11" d="M38.08,81c0-.28-2.74-1.2-4.24-.4a4.77,4.77,0,0,1-3.44.08S31,84,34.24,83.91,38,82.37,38.08,81Z"></path>
      <path class="cls-11" d="M43.62,77s-3.54-5.3,4.5-7C48.12,70,47.68,78.3,43.62,77Z"></path>
      <path class="cls-11" d="M55.09,82.7c.18-.1.94-3.35-2.71-3.35a2.83,2.83,0,0,1-2.64-1S49.55,85.65,55.09,82.7Z"></path>
      <path class="cls-12" d="M23.91,77.48s1.72,2.87-.9,2.43-1.61-3.56-.79-3.28S23.36,75.76,23.91,77.48Z"></path>
      <path class="cls-12" d="M45.07,76.72a2.13,2.13,0,0,0-2.93,2.46c.4,1.72,1.36,4.26,3.3,1.45C46.81,78.64,46.17,77.26,45.07,76.72Z"></path>
      <path class="cls-12" d="M38.9,78.08c-.4-.39-.5-2.67,1.59-2S40.86,80,38.9,78.08Z"></path>
      <path class="cls-12" d="M59.2,75.6s.84-3.26-2.27-1.76S57.52,79.31,59.2,75.6Z"></path>
      <path class="cls-13" d="M32.08,28.38s-6.76,6.84-3.45,10.52,8.33.32,6.48-4.57A21.76,21.76,0,0,0,32.08,28.38Z"></path>
      <path class="cls-14" d="M29.85,34.79c.23-.7.76-2.32,1-2.9A15.87,15.87,0,0,1,31.74,30s.64-1.24-1,.54-2.67,5.06-2.17,5.25S29.62,35.48,29.85,34.79Z"></path>
      <path class="cls-15" d="M33.63,37.15c-.2.67-.11,1.29.21,1.38a1.23,1.23,0,0,0,1.23-.91,1.26,1.26,0,0,0-.51-1.51C34.24,36,33.83,36.48,33.63,37.15Z"></path>
      <path class="cls-13" d="M43.36,28.38S36.6,35.22,39.91,38.9s8.33.32,6.48-4.57A21.76,21.76,0,0,0,43.36,28.38Z"></path>
      <path class="cls-14" d="M41.13,34.79c.23-.7.76-2.32,1-2.9A15.87,15.87,0,0,1,43,30s.64-1.24-1,.54-2.67,5.06-2.17,5.25S40.9,35.48,41.13,34.79Z"></path>
      <path class="cls-15" d="M44.91,37.15c-.2.67-.1,1.29.21,1.38a1.23,1.23,0,0,0,1.23-.91,1.26,1.26,0,0,0-.51-1.51C45.52,36,45.11,36.48,44.91,37.15Z"></path>
      <path class="cls-13" d="M54.64,28.38s-6.76,6.84-3.45,10.52,8.33.32,6.48-4.57A21.76,21.76,0,0,0,54.64,28.38Z"></path>
      <path class="cls-14" d="M52.41,34.79c.23-.7.76-2.32,1-2.9A15.87,15.87,0,0,1,54.3,30s.64-1.24-1,.54-2.67,5.06-2.17,5.25S52.18,35.48,52.41,34.79Z"></path>
      <path class="cls-15" d="M56.19,37.15c-.2.67-.1,1.29.21,1.38a1.23,1.23,0,0,0,1.23-.91,1.26,1.26,0,0,0-.51-1.51C56.8,36,56.39,36.48,56.19,37.15Z"></path>
      <path class="cls-13" d="M39,13.38s-6.76,6.84-3.45,10.52,8.33.32,6.47-4.56A21.83,21.83,0,0,0,39,13.38Z"></path>
      <path class="cls-14" d="M36.77,19.8c.23-.71.76-2.32,1-2.9A15.59,15.59,0,0,1,38.65,15s.65-1.24-1,.54S35,20.61,35.49,20.8,36.54,20.49,36.77,19.8Z"></path>
      <path class="cls-15" d="M40.55,22.16c-.2.67-.11,1.28.21,1.38a1.32,1.32,0,0,0,.71-2.42C41.15,21.05,40.75,21.49,40.55,22.16Z"></path>
      <path class="cls-13" d="M50.28,13.38s-6.76,6.84-3.45,10.52,8.33.32,6.48-4.56A22,22,0,0,0,50.28,13.38Z"></path>
      <path class="cls-14" d="M48.05,19.8c.23-.71.76-2.32,1-2.9A15.59,15.59,0,0,1,49.93,15s.65-1.24-1,.54-2.67,5.06-2.17,5.25S47.82,20.49,48.05,19.8Z"></path>
      <path class="cls-15" d="M51.83,22.16c-.2.67-.11,1.28.21,1.38a1.23,1.23,0,0,0,1.23-.92,1.25,1.25,0,0,0-.51-1.5C52.44,21.05,52,21.49,51.83,22.16Z"></path>
      <path class="cls-13" d="M45.24,0s-6.77,6.84-3.46,10.52,8.33.32,6.48-4.56A22.21,22.21,0,0,0,45.24,0Z"></path>
      <path class="cls-14" d="M43,6.41c.24-.7.76-2.31,1-2.89a15.07,15.07,0,0,1,.92-1.89s.64-1.24-1,.54-2.67,5.06-2.17,5.25S42.77,7.11,43,6.41Z"></path>
      <path class="cls-15" d="M46.78,8.78c-.2.67-.1,1.28.21,1.38a1.22,1.22,0,0,0,1.23-.92,1.25,1.25,0,0,0-.51-1.5C47.39,7.67,47,8.11,46.78,8.78Z"></path>
      <path class="cls-1" d="M73.71,60.75C69.31,66.46,62,68.11,62,68.11a21.32,21.32,0,0,1-.42-13.76c1.67-5.55,10.68-20.59,10.68-20.59a1,1,0,0,1,1.37-.42l3.65,1.92,1.15-2.18,3.41,1.8-1.15,2.18,3.47,1.84a1,1,0,0,1,.42,1.37S77.24,56.15,73.71,60.75Z"></path>
      <g class="cls-16">
        <rect class="cls-2" x="62.46" y="22.85" width="10.55" height="45.86" transform="translate(29.21 -26.33) rotate(27.84)"></rect>
      </g>
      <ellipse class="cls-2" cx="80.26" cy="33.52" rx="7.37" ry="1.22" transform="translate(13.14 88.84) rotate(-62.16)"></ellipse>
      <g class="cls-17">
        <rect class="cls-18" x="74.68" y="20.78" width="6.59" height="19.23" transform="translate(23.21 -32.89) rotate(27.84)"></rect>
      </g>
      <rect class="cls-3" x="78.37" y="31" width="4.97" height="3.09" rx="1.55" transform="translate(24.55 -33.99) rotate(27.84)"></rect>
      <g class="cls-19">
        <rect class="cls-20" x="81.04" y="30.57" width="1.32" height="4.45" transform="translate(24.77 -34.35) rotate(27.84)"></rect>
        <rect class="cls-2" x="77.94" y="29.74" width="9.89" height="2.59" transform="translate(24.08 -35.11) rotate(27.84)"></rect>
      </g>
      <path class="cls-4" d="M88.7,3.05h0A3.27,3.27,0,0,1,92,6.33v25.9a.86.86,0,0,1-.86.86H86.29a.86.86,0,0,1-.86-.86V6.33A3.27,3.27,0,0,1,88.7,3.05Z" transform="translate(18.7 -39.33) rotate(27.84)"></path>
      <g class="cls-21">
        <path class="cls-22" d="M90.2,3.49h0A3.91,3.91,0,0,1,94.11,7.4V30.32a3.91,3.91,0,0,1-3.91,3.91H87.78a1.49,1.49,0,0,1-1.49-1.49V7.4A3.91,3.91,0,0,1,90.2,3.49Z" transform="translate(19.24 -39.93) rotate(27.84)"></path>
      </g>
    </g>
  </g>
</svg>
