<?xml version="1.0" encoding="UTF-8"?>
<svg xmlns="http://www.w3.org/2000/svg" xmlns:xlink="http://www.w3.org/1999/xlink" viewBox="0 0 37.88 65.57">
  <defs>
    <style>.cls-1{fill:none;}.cls-2{clip-path:url(#clip-path);}.cls-3{fill:#57534a;}.cls-4{fill:#a29274;}.cls-5{fill:#fcedce;}.cls-6{fill:#bda885;}.cls-7{fill:#d0c5a6;}.cls-8{fill:#8f8267;}.cls-9{clip-path:url(#clip-path-2);}.cls-10{fill:#baa583;}.cls-11{fill:#7c705b;}.cls-12{fill:#928263;}.cls-13{fill:#d9b67b;}.cls-14{fill:#56524b;}.cls-15{clip-path:url(#clip-path-4);}.cls-16{fill:#22211a;}.cls-17{clip-path:url(#clip-path-6);}.cls-18{fill:#56534b;}.cls-19{fill:#7f7b70;}.cls-20{clip-path:url(#clip-path-8);}.cls-21{fill:#d1cdc5;}.cls-22{fill:#c69370;}.cls-23{clip-path:url(#clip-path-10);}.cls-24{fill:#ecac76;}</style>
    <clipPath id="clip-path" transform="translate(1.02 0)">
      <rect class="cls-1" width="36.86" height="65.56"></rect>
    </clipPath>
    <clipPath id="clip-path-2" transform="translate(1.02 0)">
      <polygon class="cls-1" points="5.29 55.48 19.83 65.56 19.83 43.12 2.74 35.86 5.29 55.48"></polygon>
    </clipPath>
    <clipPath id="clip-path-4" transform="translate(1.02 0)">
      <path class="cls-1" d="M7.93,18.58l.58,1.11-1.76.93a.52.52,0,0,0-.21.7s3.74,8.08,5.53,10.42A11.59,11.59,0,0,0,18,35.48a10.9,10.9,0,0,0,.21-7C17.38,25.66,12.8,18,12.8,18a.51.51,0,0,0-.7-.21l-1.85,1-.59-1.11Z"></path>
    </clipPath>
    <clipPath id="clip-path-6" transform="translate(1.02 0)">
      <path class="cls-1" d="M7,14.58c-.3.16.24,1.77,1.2,3.6s2,3.18,2.3,3-.23-1.77-1.2-3.6-1.89-3-2.24-3l-.06,0"></path>
    </clipPath>
    <clipPath id="clip-path-8" transform="translate(1.02 0)">
      <path class="cls-1" d="M8.49,16.48l-.84.44A.8.8,0,0,0,7.32,18a.78.78,0,0,0,1.06.32l.85-.44a.78.78,0,0,0-.37-1.48.72.72,0,0,0-.37.09"></path>
    </clipPath>
    <clipPath id="clip-path-10" transform="translate(1.02 0)">
      <path class="cls-1" d="M.89,3.28a1.67,1.67,0,0,0-.7,2.25L6.34,17.18a.44.44,0,0,0,.59.18L9.1,16.21a.44.44,0,0,0,.18-.59L3.13,4a1.66,1.66,0,0,0-1.47-.89,1.62,1.62,0,0,0-.77.19"></path>
    </clipPath>
  </defs>
  <g id="Слой_2" data-name="Слой 2">
    <g id="Слой_1-2" data-name="Слой 1">
      <g class="cls-2">
        <path class="cls-3" d="M16.33,1.08A1.08,1.08,0,1,1,15.26,0a1.07,1.07,0,0,1,1.07,1.08" transform="translate(1.02 0)"></path>
        <path class="cls-3" d="M15.85,6.5A.84.84,0,1,1,15,5.66a.84.84,0,0,1,.83.84" transform="translate(1.02 0)"></path>
        <path class="cls-3" d="M18.69,11.28A1.32,1.32,0,1,1,17.37,10a1.32,1.32,0,0,1,1.32,1.31" transform="translate(1.02 0)"></path>
        <path class="cls-3" d="M27.14,4.94A.92.92,0,1,1,26.22,4a.92.92,0,0,1,.92.91" transform="translate(1.02 0)"></path>
        <path class="cls-3" d="M30.69,6.86a1.2,1.2,0,1,1-1.2-1.2,1.19,1.19,0,0,1,1.2,1.2" transform="translate(1.02 0)"></path>
        <path class="cls-3" d="M36.27,5.26a.8.8,0,0,1-1.6,0,.8.8,0,0,1,1.6,0" transform="translate(1.02 0)"></path>
        <path class="cls-3" d="M33.92,12.32a.88.88,0,0,1-1.76,0,.88.88,0,0,1,1.76,0" transform="translate(1.02 0)"></path>
        <path class="cls-3" d="M27.9,19.7a.8.8,0,1,1-.8-.8.8.8,0,0,1,.8.8" transform="translate(1.02 0)"></path>
        <path class="cls-3" d="M32.12,23.92a.76.76,0,1,1-.76-.76.76.76,0,0,1,.76.76" transform="translate(1.02 0)"></path>
        <path class="cls-3" d="M23.39,23.84a.8.8,0,0,1-.8.8.8.8,0,0,1,0-1.6.8.8,0,0,1,.8.8" transform="translate(1.02 0)"></path>
        <path class="cls-3" d="M18.65,17.47A1.51,1.51,0,1,1,17.13,19a1.51,1.51,0,0,1,1.52-1.51m0-.72A2.23,2.23,0,1,0,20.88,19a2.23,2.23,0,0,0-2.23-2.23" transform="translate(1.02 0)"></path>
        <path class="cls-3" d="M26.7,12.8a1.4,1.4,0,1,1-1.39,1.39A1.39,1.39,0,0,1,26.7,12.8m0-.72a2.12,2.12,0,1,0,2.11,2.11,2.11,2.11,0,0,0-2.11-2.11" transform="translate(1.02 0)"></path>
        <path class="cls-3" d="M20.82,5.39A1.31,1.31,0,1,1,19.51,6.7a1.31,1.31,0,0,1,1.31-1.31m0-.73a2,2,0,1,0,2,2,2,2,0,0,0-2-2" transform="translate(1.02 0)"></path>
        <polygon class="cls-4" points="20.84 43.12 37.88 35.86 35.33 55.48 20.84 65.56 20.84 43.12"></polygon>
        <polygon class="cls-5" points="20.84 30.96 37.88 35.86 20.84 43.12 3.76 35.86 20.84 30.96"></polygon>
        <polygon class="cls-6" points="6.31 55.48 3.76 35.86 20.84 43.12 20.84 65.56 6.31 55.48"></polygon>
        <path class="cls-7" d="M13.48,36.1a7.34,7.34,0,0,1,1.75-1.58,9.55,9.55,0,0,1,2.13-1A11.69,11.69,0,0,1,19.68,33c.4-.05.79,0,1.19-.06s.78,0,1.17.07c-.78.07-1.56.12-2.32.26a13.43,13.43,0,0,0-2.25.55,10.92,10.92,0,0,0-2.1.93,11.9,11.9,0,0,0-1.89,1.36" transform="translate(1.02 0)"></path>
        <path class="cls-7" d="M10.57,36.79a2.11,2.11,0,0,0,.67.14,5.4,5.4,0,0,0,.7,0,9.18,9.18,0,0,0,1.38-.12c.93-.11,1.83-.37,2.76-.57a8.06,8.06,0,0,1-2.71.92,6.94,6.94,0,0,1-1.44,0,2.73,2.73,0,0,1-1.36-.43" transform="translate(1.02 0)"></path>
        <path class="cls-7" d="M22.32,41a13.12,13.12,0,0,1,1.62-2,12.94,12.94,0,0,1,2-1.71,9.67,9.67,0,0,1,2.34-1.17,5.86,5.86,0,0,1,2.59-.2,7.53,7.53,0,0,0-2.5.46,10.29,10.29,0,0,0-2.24,1.2,15.93,15.93,0,0,0-2,1.61c-.62.58-1.23,1.19-1.8,1.84" transform="translate(1.02 0)"></path>
        <polygon class="cls-8" points="20.84 43.12 37.88 35.86 35.33 55.48 20.84 65.56 20.84 43.12"></polygon>
      </g>
      <g class="cls-9">
        <rect class="cls-10" x="3.76" y="35.86" width="17.09" height="29.7"></rect>
      </g>
      <g class="cls-2">
        <path class="cls-11" d="M8.38,46.85A5.19,5.19,0,0,1,8,44,4.63,4.63,0,0,1,9.2,41.38a6.86,6.86,0,0,1,2.51-1.5c.47-.12.94-.25,1.41-.35l1.43-.15-1.4.32c-.45.13-.9.29-1.35.44a7.1,7.1,0,0,0-2.35,1.48,4.65,4.65,0,0,0-1.24,2.43c-.05.23-.06.46-.09.7s0,.47,0,.7a5.48,5.48,0,0,0,.24,1.4" transform="translate(1.02 0)"></path>
        <path class="cls-11" d="M24.26,46.58a3.17,3.17,0,0,0,1,.41c.33.12.66.22,1,.31.68.18,1.36.35,2.05.48,1.36.3,2.75.45,4.16.62a15.82,15.82,0,0,1-4.23-.28,17.91,17.91,0,0,1-2.06-.57,5.7,5.7,0,0,1-1.88-1" transform="translate(1.02 0)"></path>
        <path class="cls-11" d="M15.11,45.56a11.54,11.54,0,0,1-.42,1.92A16,16,0,0,1,14,49.33,11.74,11.74,0,0,1,13,51a6.36,6.36,0,0,1-1.42,1.37,12.1,12.1,0,0,0,2.13-3.22,18.63,18.63,0,0,0,.78-1.77c.23-.61.46-1.22.67-1.84" transform="translate(1.02 0)"></path>
        <path class="cls-11" d="M20.39,61.17c.7-.34,1.42-.6,2.12-.91s1.4-.61,2.07-1a12,12,0,0,0,1.93-1.2A5.38,5.38,0,0,0,28,56.42a4.32,4.32,0,0,1-1.34,1.88,10.44,10.44,0,0,1-1.94,1.3,18.18,18.18,0,0,1-2.13.91c-.73.26-1.48.46-2.22.66" transform="translate(1.02 0)"></path>
        <path class="cls-11" d="M12.4,59a3.58,3.58,0,0,1-1.9-1.78,1.61,1.61,0,0,1,.12-1.37,3.11,3.11,0,0,1,.92-1,8.9,8.9,0,0,1,2.35-1.17,17.11,17.11,0,0,1,2.53-.66c-.82.3-1.64.58-2.43.91a10.11,10.11,0,0,0-2.25,1.2,2.93,2.93,0,0,0-.85.87,1.44,1.44,0,0,0-.14,1.13,2.56,2.56,0,0,0,.66,1,6,6,0,0,0,1,.82" transform="translate(1.02 0)"></path>
        <path class="cls-11" d="M28,46.19c.85-1.17,1.72-2.31,2.48-3.52a15.64,15.64,0,0,0,1.08-1.85,6.25,6.25,0,0,0,.67-2,4.62,4.62,0,0,1-.43,2.13,12.7,12.7,0,0,1-1,1.93c-.41.6-.83,1.19-1.29,1.75A17.09,17.09,0,0,1,28,46.19" transform="translate(1.02 0)"></path>
        <polygon class="cls-12" points="10.66 35.86 20.85 40.03 31.05 35.83 20.84 32.54 10.66 35.86"></polygon>
        <polygon class="cls-13" points="12.65 36.68 20.82 34.07 29.04 36.66 20.85 40.03 12.65 36.68"></polygon>
        <path class="cls-14" d="M12.07,31.74A11.59,11.59,0,0,0,18,35.48a10.9,10.9,0,0,0,.21-7C17.38,25.66,12.8,18,12.8,18a.52.52,0,0,0-.7-.21l-1.85,1-.59-1.11-1.73.91.58,1.11-1.76.93a.52.52,0,0,0-.21.7s3.74,8.08,5.53,10.42" transform="translate(1.02 0)"></path>
      </g>
      <g class="cls-15">
        <rect class="cls-16" x="12.43" y="12.47" width="5.36" height="23.31" transform="translate(-8.5 9.85) rotate(-27.84)"></rect>
      </g>
      <g class="cls-2">
        <path class="cls-16" d="M8.19,18.18c-1-1.83-1.5-3.44-1.2-3.6s1.33,1.19,2.3,3,1.5,3.45,1.2,3.6-1.33-1.19-2.3-3" transform="translate(1.02 0)"></path>
      </g>
      <g class="cls-17">
        <rect class="cls-18" x="8.23" y="11.41" width="3.35" height="9.77" transform="translate(-5.45 6.51) rotate(-27.84)"></rect>
      </g>
      <g class="cls-2">
        <path class="cls-19" d="M7.65,16.92l.84-.44a.79.79,0,0,1,1.07.32.8.8,0,0,1-.33,1.07l-.85.44A.78.78,0,0,1,7.32,18a.8.8,0,0,1,.33-1.07" transform="translate(1.02 0)"></path>
      </g>
      <g class="cls-20">
        <rect class="cls-21" x="7.68" y="16.39" width="0.67" height="2.26" transform="translate(-6.24 5.77) rotate(-27.83)"></rect>
        <rect class="cls-16" x="4.89" y="15.97" width="5.03" height="1.32" transform="translate(-5.89 5.38) rotate(-27.83)"></rect>
      </g>
      <g class="cls-2">
        <path class="cls-22" d="M6.93,17.36,9.1,16.21a.44.44,0,0,0,.18-.59L3.13,4A1.66,1.66,0,1,0,.19,5.53L6.34,17.18a.44.44,0,0,0,.59.18" transform="translate(1.02 0)"></path>
      </g>
      <g class="cls-23">
        <path class="cls-24" d="M0,3.53H0A2,2,0,0,0-.79,6.21L4.65,16.52a2,2,0,0,0,2.69.83l1.09-.58a.75.75,0,0,0,.31-1l-6-11.39A2,2,0,0,0,0,3.53" transform="translate(1.02 0)"></path>
      </g>
    </g>
  </g>
</svg>
