<?xml version="1.0" encoding="UTF-8"?>
<svg xmlns="http://www.w3.org/2000/svg" viewBox="0 0 30.83 29.86">
  <defs>
    <style>.cls-1{isolation:isolate;}.cls-2,.cls-3,.cls-4{fill:#8ebcd6;}.cls-10,.cls-2,.cls-4{mix-blend-mode:multiply;}.cls-10,.cls-4,.cls-9{opacity:0.4;}.cls-10,.cls-5,.cls-8,.cls-9{fill:#9ecee8;}.cls-6{fill:#402d22;}.cls-7{fill:#d2c9be;}.cls-8{mix-blend-mode:screen;}</style>
  </defs>
  <g class="cls-1">
    <g id="Слой_2" data-name="Слой 2">
      <g id="Слой_1-2" data-name="Слой 1">
        <polygon class="cls-2" points="16.12 11.38 30.77 5.17 29.03 23.32 16.12 29.86 16.12 11.38"></polygon>
        <polygon class="cls-3" points="0.53 8.18 15.95 14.32 16.12 29.86 2.16 23.29 0.53 8.18"></polygon>
        <polygon class="cls-4" points="0.53 8.18 1.94 20.72 16.08 14.36 16.1 3.24 0.53 8.18"></polygon>
        <polygon class="cls-5" points="1.94 20.72 16.08 14.36 29.29 20.07 15.95 26.82 1.94 20.72"></polygon>
        <path class="cls-6" d="M14.13,16.57a1.27,1.27,0,0,0-1.5-1c-.74.1-1.61.67-1.53,1.3s1.1,1.1,1.85,1A1.26,1.26,0,0,0,14.13,16.57Z"></path>
        <path class="cls-7" d="M13.76,17.51a1.54,1.54,0,0,1-.94.38,2.16,2.16,0,0,1-1-.23,1.15,1.15,0,0,1-.66-.72.88.88,0,0,1,.43-.84,2.25,2.25,0,0,1,.93-.42,1.47,1.47,0,0,1,1,.1,1.07,1.07,0,0,1,.61.79A1.09,1.09,0,0,1,13.76,17.51Zm-.22-1.78a1.52,1.52,0,0,0-1-.16,2.37,2.37,0,0,0-1,.44,1,1,0,0,0-.45.95,1.23,1.23,0,0,0,.72.76,2.06,2.06,0,0,0,1,.22,1.48,1.48,0,0,0,1-.42,1.14,1.14,0,0,0,.36-.95A1.11,1.11,0,0,0,13.54,15.73Z"></path>
        <path class="cls-6" d="M12.72,19.35a1.26,1.26,0,0,0-1.78.18c-.52.54-.85,1.52-.38,2s1.54.18,2.06-.36A1.27,1.27,0,0,0,12.72,19.35Z"></path>
        <path class="cls-7" d="M13,20.31a1.46,1.46,0,0,1-.5.88,2,2,0,0,1-.92.45,1.21,1.21,0,0,1-1-.15.89.89,0,0,1-.18-.93,2.31,2.31,0,0,1,.46-.91,1.52,1.52,0,0,1,.84-.54,1.1,1.1,0,0,1,1,.24A1.07,1.07,0,0,1,13,20.31Zm-1.28-1.26a1.57,1.57,0,0,0-.91.53,2.46,2.46,0,0,0-.49,1,1,1,0,0,0,.23,1,1.24,1.24,0,0,0,1,.16,2.14,2.14,0,0,0,1-.48,1.57,1.57,0,0,0,.49-.92,1.13,1.13,0,0,0-.32-1A1.15,1.15,0,0,0,11.73,19.05Z"></path>
        <polygon class="cls-5" points="16.1 3.24 0.53 8.18 15.95 14.32 30.38 8.18 16.1 3.24"></polygon>
        <path class="cls-6" d="M9.82,16.92A1.27,1.27,0,0,0,8,17c-.55.51-.93,1.48-.49,1.95s1.53.26,2.08-.26A1.26,1.26,0,0,0,9.82,16.92Z"></path>
        <path class="cls-7" d="M10.07,17.9a1.53,1.53,0,0,1-.55.85,2.22,2.22,0,0,1-.95.4,1.2,1.2,0,0,1-1-.21A.89.89,0,0,1,7.48,18,2.29,2.29,0,0,1,8,17.13a1.51,1.51,0,0,1,.87-.5,1,1,0,0,1,1.21,1.27ZM8.86,16.57a1.58,1.58,0,0,0-.95.48,2.6,2.6,0,0,0-.54.92,1,1,0,0,0,.18,1,1.27,1.27,0,0,0,1,.21,2.17,2.17,0,0,0,1-.42,1.51,1.51,0,0,0,.54-.9,1.12,1.12,0,0,0-.26-1A1.14,1.14,0,0,0,8.86,16.57Z"></path>
        <path class="cls-6" d="M15.59,22.5a1.28,1.28,0,0,0-.1-1.78c-.52-.54-1.49-.91-2-.47s-.23,1.54.28,2.08A1.28,1.28,0,0,0,15.59,22.5Z"></path>
        <path class="cls-7" d="M14.62,22.76a1.51,1.51,0,0,1-.87-.54,2,2,0,0,1-.4-.94,1.11,1.11,0,0,1,.19-1,.87.87,0,0,1,.93-.15,2.38,2.38,0,0,1,.89.5,1.43,1.43,0,0,1,.5.87,1.08,1.08,0,0,1-.27.95A1.12,1.12,0,0,1,14.62,22.76Zm1.3-1.23a1.52,1.52,0,0,0-.49-.94,2.45,2.45,0,0,0-.93-.53,1,1,0,0,0-1,.2,1.22,1.22,0,0,0-.19,1,2.1,2.1,0,0,0,.43,1,1.5,1.5,0,0,0,.9.53,1.12,1.12,0,0,0,1-.28A1.1,1.1,0,0,0,15.92,21.53Z"></path>
        <path class="cls-6" d="M9.28,21.41a1.26,1.26,0,0,0-.41-1.73c-.61-.44-1.63-.64-2-.12s0,1.56.64,2A1.27,1.27,0,0,0,9.28,21.41Z"></path>
        <path class="cls-7" d="M8.37,21.84a1.51,1.51,0,0,1-.95-.38,2.07,2.07,0,0,1-.56-.86,1.16,1.16,0,0,1,0-1,.89.89,0,0,1,.89-.31,2.35,2.35,0,0,1,1,.34,1.44,1.44,0,0,1,.65.77,1.09,1.09,0,0,1-.1,1A1.15,1.15,0,0,1,8.37,21.84ZM9.44,20.4a1.54,1.54,0,0,0-.65-.84,2.56,2.56,0,0,0-1-.36,1,1,0,0,0-1,.37,1.23,1.23,0,0,0,0,1.06,2.27,2.27,0,0,0,.6.87,1.52,1.52,0,0,0,1,.36,1.14,1.14,0,0,0,.92-.44A1.15,1.15,0,0,0,9.44,20.4Z"></path>
        <polygon class="cls-8" points="3.64 13.43 4.23 20.18 5.59 20.76 5.01 14.34 3.64 13.43"></polygon>
        <polygon class="cls-8" points="6.17 20.96 7.39 21.5 7.15 12.33 5.59 11.68 6.17 20.96"></polygon>
        <polygon class="cls-9" points="16.12 0 16.1 3.24 26.68 6.88 30.77 5.17 16.12 0"></polygon>
        <path class="cls-6" d="M18,17.32a1.27,1.27,0,0,0,.71-1.63c-.22-.72-.91-1.49-1.52-1.3s-.92,1.26-.7,2A1.27,1.27,0,0,0,18,17.32Z"></path>
        <path class="cls-7" d="M17,17.11a1.54,1.54,0,0,1-.52-.87,2.12,2.12,0,0,1,.06-1,1.2,1.2,0,0,1,.61-.77.91.91,0,0,1,.9.3,2.21,2.21,0,0,1,.56.85,1.49,1.49,0,0,1,.06,1,1.12,1.12,0,0,1-.68.73A1.14,1.14,0,0,1,17,17.11Zm1.73-.5a1.55,1.55,0,0,0,0-1.06,2.21,2.21,0,0,0-.59-.89,1,1,0,0,0-1-.3,1.25,1.25,0,0,0-.64.83,2,2,0,0,0-.05,1.06,1.53,1.53,0,0,0,.56.88,1.16,1.16,0,0,0,1,.2A1.18,1.18,0,0,0,18.73,16.61Z"></path>
        <path class="cls-6" d="M22.27,22.44a1.26,1.26,0,0,0-.41-1.73c-.6-.45-1.62-.65-2-.13s0,1.56.63,2A1.27,1.27,0,0,0,22.27,22.44Z"></path>
        <path class="cls-7" d="M21.36,22.86a1.46,1.46,0,0,1-.95-.38,2.18,2.18,0,0,1-.56-.86,1.19,1.19,0,0,1,0-1,.91.91,0,0,1,.89-.3,2.35,2.35,0,0,1,1,.34,1.54,1.54,0,0,1,.65.77,1,1,0,0,1-1,1.41Zm1.08-1.43a1.64,1.64,0,0,0-.65-.84,2.41,2.41,0,0,0-1-.36,1,1,0,0,0-1,.36,1.27,1.27,0,0,0,0,1.06,2.08,2.08,0,0,0,.59.87,1.53,1.53,0,0,0,1,.37,1.14,1.14,0,0,0,.92-.44A1.15,1.15,0,0,0,22.44,21.43Z"></path>
        <path class="cls-6" d="M23.87,18.67a1.26,1.26,0,0,0-.38-1.74c-.6-.45-1.61-.67-2-.16s0,1.56.6,2A1.27,1.27,0,0,0,23.87,18.67Z"></path>
        <path class="cls-7" d="M23,19.08a1.54,1.54,0,0,1-.94-.4,2.15,2.15,0,0,1-.55-.87,1.19,1.19,0,0,1,0-1,.93.93,0,0,1,.9-.29,2.54,2.54,0,0,1,1,.36,1.47,1.47,0,0,1,.63.78,1,1,0,0,1-1,1.4Zm1.1-1.42a1.54,1.54,0,0,0-.63-.85,2.44,2.44,0,0,0-1-.38,1,1,0,0,0-1,.35,1.27,1.27,0,0,0,0,1.06,2.26,2.26,0,0,0,.58.88,1.54,1.54,0,0,0,1,.38,1.11,1.11,0,0,0,1.1-1.44Z"></path>
        <path class="cls-6" d="M19.06,20.2A1.28,1.28,0,0,0,19,18.41c-.51-.55-1.47-.94-1.94-.51s-.28,1.54.23,2.09A1.27,1.27,0,0,0,19.06,20.2Z"></path>
        <path class="cls-7" d="M18.08,20.43a1.45,1.45,0,0,1-.85-.56,2.14,2.14,0,0,1-.38-.95,1.13,1.13,0,0,1,.21-1,.91.91,0,0,1,.94-.13,2.49,2.49,0,0,1,.87.52,1.47,1.47,0,0,1,.49.88,1.11,1.11,0,0,1-.3,1A1.12,1.12,0,0,1,18.08,20.43Zm1.34-1.2a1.62,1.62,0,0,0-.47-.95,2.44,2.44,0,0,0-.92-.54,1,1,0,0,0-1,.16,1.24,1.24,0,0,0-.22,1,2.08,2.08,0,0,0,.41,1,1.46,1.46,0,0,0,.89.54,1.12,1.12,0,0,0,1-.25A1.15,1.15,0,0,0,19.42,19.23Z"></path>
        <path class="cls-6" d="M17,23.06a1.26,1.26,0,0,0-1.44-1c-.75.06-1.65.57-1.6,1.21s1,1.16,1.78,1.1A1.27,1.27,0,0,0,17,23.06Z"></path>
        <path class="cls-7" d="M16.53,24a1.47,1.47,0,0,1-1,.32,2.14,2.14,0,0,1-1-.29,1.17,1.17,0,0,1-.62-.76.91.91,0,0,1,.48-.81,2.29,2.29,0,0,1,1-.36,1.42,1.42,0,0,1,1,.16,1.07,1.07,0,0,1,.56.82A1.12,1.12,0,0,1,16.53,24Zm-.12-1.79a1.5,1.5,0,0,0-1-.22,2.39,2.39,0,0,0-1,.38,1,1,0,0,0-.51.91,1.24,1.24,0,0,0,.67.81,2.06,2.06,0,0,0,1,.28,1.47,1.47,0,0,0,1-.36,1.08,1.08,0,0,0-.13-1.8Z"></path>
        <polygon class="cls-10" points="30.83 5.1 16.18 11.31 16.11 14.44 30.44 8.11 30.83 5.1"></polygon>
        <polygon class="cls-4" points="16.09 14.25 16.09 26.75 29.43 20.01 30.51 8.11 16.09 14.25"></polygon>
        <polygon class="cls-9" points="0 4.64 16.12 0 16.1 3.24 0.53 8.18 0 4.64"></polygon>
        <polygon class="cls-10" points="0 4.64 0.53 8.18 16.11 14.44 16.18 11.31 0 4.64"></polygon>
      </g>
    </g>
  </g>
</svg>
