<?xml version="1.0" encoding="UTF-8"?>
<svg xmlns="http://www.w3.org/2000/svg" viewBox="0 0 25.43 65.76">
  <defs>
    <style>.cls-1{fill:#a0cae7;}.cls-2{fill:#d0e6f5;}.cls-3{fill:#b8d8ee;}.cls-4{fill:#a29274;}.cls-5{fill:#e3e0c9;}.cls-6{fill:#bda885;}.cls-7{fill:#7c705b;}.cls-8{fill:#d0c5a6;}.cls-9{fill:#a29277;}.cls-10{fill:#817870;}.cls-11{fill:#79a05b;}.cls-12{fill:#a0bfe2;}.cls-13{fill:#b3ceea;}.cls-14{fill:#334253;}.cls-15{fill:#9fbee2;}</style>
  </defs>
  <g id="Слой_2" data-name="Слой 2">
    <g id="Слой_1-2" data-name="Слой 1">
      <path class="cls-1" d="M9.35,13.13S6.22,16.3,7.75,18s3.86.15,3-2.11a10.09,10.09,0,0,0-1.4-2.76"></path>
      <path class="cls-2" d="M8.32,16.1c.11-.33.35-1.07.45-1.34a6.49,6.49,0,0,1,.42-.87s.3-.58-.46.25-1.24,2.34-1,2.42.48-.14.59-.46"></path>
      <path class="cls-3" d="M10.07,17.19c-.09.31-.05.6.1.64a.55.55,0,0,0,.56-.42.58.58,0,0,0-.23-.7c-.15,0-.34.18-.43.48"></path>
      <path class="cls-1" d="M14.57,13.13S11.44,16.3,13,18s3.85.15,3-2.11a10.09,10.09,0,0,0-1.4-2.76"></path>
      <path class="cls-2" d="M13.54,16.1c.11-.33.35-1.07.45-1.34a6.49,6.49,0,0,1,.42-.87s.3-.58-.46.25-1.23,2.34-1,2.42.48-.14.59-.46"></path>
      <path class="cls-3" d="M15.29,17.19c-.09.31,0,.6.1.64a.55.55,0,0,0,.56-.42.58.58,0,0,0-.23-.7c-.15,0-.34.18-.43.48"></path>
      <path class="cls-1" d="M19.79,13.13S16.66,16.3,18.2,18s3.85.15,3-2.11a10.09,10.09,0,0,0-1.4-2.76"></path>
      <path class="cls-2" d="M18.76,16.1c.11-.33.35-1.07.45-1.34a6.49,6.49,0,0,1,.42-.87s.3-.58-.46.25-1.23,2.34-1,2.42.48-.14.59-.46"></path>
      <path class="cls-3" d="M20.51,17.19c-.09.31-.05.6.1.64a.56.56,0,0,0,.57-.42.59.59,0,0,0-.24-.7c-.15,0-.34.18-.43.48"></path>
      <path class="cls-1" d="M12.55,6.19S9.42,9.36,11,11.06s3.85.15,3-2.11a10.09,10.09,0,0,0-1.4-2.76"></path>
      <path class="cls-2" d="M11.52,9.16c.11-.32.35-1.07.45-1.34A6.49,6.49,0,0,1,12.39,7s.3-.58-.46.25-1.23,2.34-1,2.42.48-.14.59-.46"></path>
      <path class="cls-3" d="M13.27,10.25c-.09.31,0,.6.1.64a.56.56,0,0,0,.57-.42.59.59,0,0,0-.24-.7c-.15,0-.34.18-.43.48"></path>
      <path class="cls-1" d="M17.78,6.19s-3.14,3.17-1.6,4.87,3.85.15,3-2.11a10.32,10.32,0,0,0-1.39-2.76"></path>
      <path class="cls-2" d="M16.74,9.16c.11-.32.35-1.07.45-1.34A6.49,6.49,0,0,1,17.61,7s.3-.58-.46.25-1.23,2.34-1,2.42.49-.14.59-.46"></path>
      <path class="cls-3" d="M18.49,10.25c-.09.31,0,.6.1.64a.56.56,0,0,0,.57-.42c.09-.37-.09-.67-.24-.7s-.34.18-.43.48"></path>
      <path class="cls-1" d="M15.44,0s-3.13,3.17-1.6,4.87,3.86.15,3-2.11A10.09,10.09,0,0,0,15.44,0"></path>
      <path class="cls-2" d="M14.41,3c.1-.33.35-1.07.44-1.34a8,8,0,0,1,.43-.88s.3-.57-.46.25-1.24,2.34-1,2.43.49-.14.6-.46"></path>
      <path class="cls-3" d="M16.15,4.06c-.09.31,0,.6.1.64a.57.57,0,0,0,.57-.42c.09-.37-.09-.67-.24-.7s-.33.17-.43.48"></path>
      <polygon class="cls-4" points="12.73 49.03 25.43 43.62 23.53 58.25 12.73 65.76 12.73 49.03"></polygon>
      <polygon class="cls-5" points="12.73 39.97 25.43 43.62 12.73 49.03 0 43.62 12.73 39.97"></polygon>
      <polygon class="cls-6" points="12.73 49.03 0 43.62 1.91 58.25 5.27 60.58 5.2 60.53 5.27 60.58 12.73 65.76 12.73 49.03"></polygon>
      <path class="cls-7" d="M12.43,65.32c.3-.42.56-.87.84-1.3s.53-.87.77-1.32a20.63,20.63,0,0,0,1.33-2.76A6.25,6.25,0,0,1,15,61.46a12.79,12.79,0,0,1-.65,1.41,14.62,14.62,0,0,1-.86,1.3,6.79,6.79,0,0,1-1.06,1.15"></path>
      <path class="cls-8" d="M8,43.8a5.51,5.51,0,0,1,1.29-1.21,7.37,7.37,0,0,1,1.59-.79,8.75,8.75,0,0,1,1.75-.35c.29,0,.59,0,.88,0s.59,0,.88.08c-.59.07-1.16.12-1.73.23a11.5,11.5,0,0,0-1.66.41A9,9,0,0,0,8,43.8"></path>
      <path class="cls-8" d="M5.83,44.32a3.22,3.22,0,0,0,1,.08,5.87,5.87,0,0,0,1-.1c.69-.08,1.35-.26,2.06-.38a5.53,5.53,0,0,1-2,.73,5.66,5.66,0,0,1-1.09,0,2,2,0,0,1-1-.35"></path>
      <path class="cls-7" d="M15,54.65a6.24,6.24,0,0,1-.1-2.24,3.68,3.68,0,0,1,1-2,4.45,4.45,0,0,1,2-1,10.78,10.78,0,0,1,1.12-.16c.38,0,.75,0,1.12,0l-1.1.14c-.36.09-.73.13-1.07.25a4.35,4.35,0,0,0-1.85,1,3.52,3.52,0,0,0-1,1.85A9.35,9.35,0,0,0,15,54.65"></path>
      <path class="cls-7" d="M19.37,51.2c.61-.9,1.25-1.75,1.82-2.65a12.55,12.55,0,0,0,.8-1.37,4.57,4.57,0,0,0,.53-1.49,3.37,3.37,0,0,1-.28,1.6,9.51,9.51,0,0,1-.76,1.45c-.31.44-.62.89-1,1.3a11.34,11.34,0,0,1-1.14,1.16"></path>
      <path class="cls-7" d="M16.43,55.84a2.63,2.63,0,0,0,.72.28l.75.22c.51.13,1,.26,1.53.35,1,.22,2.05.34,3.09.51A10.82,10.82,0,0,1,19.36,57a11.76,11.76,0,0,1-1.54-.44,4.08,4.08,0,0,1-1.39-.75"></path>
      <path class="cls-7" d="M19.5,57.69a3.84,3.84,0,0,1-.36-2.12,3.49,3.49,0,0,1,.94-2A5,5,0,0,1,22,52.46c.35-.09.7-.18,1.05-.25l1.08-.09-1,.26c-.34.1-.67.22-1,.33a5.29,5.29,0,0,0-1.73,1.11,3.37,3.37,0,0,0-.93,1.79,3.92,3.92,0,0,0-.06,1,3.77,3.77,0,0,0,.16,1"></path>
      <path class="cls-7" d="M24.1,51a8.58,8.58,0,0,1-.81,2.83,9,9,0,0,1-.77,1.26,4.49,4.49,0,0,1-1.09,1A10.11,10.11,0,0,0,23,53.67c.43-.86.76-1.77,1.12-2.68"></path>
      <path class="cls-8" d="M15.8,47.72l.26-.11a8.48,8.48,0,0,0-1.16-.42c.32.17.62.35.9.53"></path>
      <path class="cls-7" d="M15.71,47.93c-.18.45-.33.82-.54,1.25a9.28,9.28,0,0,1-1.59,2.4,5.17,5.17,0,0,0,1.06-1,8.43,8.43,0,0,0,.76-1.26A14.43,14.43,0,0,0,16,47.94a3.18,3.18,0,0,1,.08-.33l-.26.11Z"></path>
      <path class="cls-9" d="M1.45,54.91a3.86,3.86,0,0,1,1.15-1A7.44,7.44,0,0,1,4,53.35a8.19,8.19,0,0,1,1.48-.26c.25,0,.5,0,.75,0l.75.06a19.42,19.42,0,0,0-2.89.55,9.65,9.65,0,0,0-1.36.5,6.73,6.73,0,0,0-1.27.73"></path>
      <path class="cls-9" d="M2.23,52.88q.75-.48,1.47-1c.48-.34,1-.67,1.45-1s1-.69,1.42-1a7.06,7.06,0,0,0,1.32-1.18A4.76,4.76,0,0,1,6.75,50c-.45.41-.92.76-1.4,1.12s-1,.67-1.5,1a9.57,9.57,0,0,1-1.62.76"></path>
      <path class="cls-9" d="M2.17,57.58a1.46,1.46,0,0,1,.57-1.4,2.8,2.8,0,0,1,1.5-.45A6.5,6.5,0,0,1,5.77,56a8.06,8.06,0,0,1,1.42.52c-.5-.07-1-.19-1.48-.26a8.08,8.08,0,0,0-1.46-.13,2.73,2.73,0,0,0-1.36.32,1.56,1.56,0,0,0-.72,1.18"></path>
      <path class="cls-9" d="M.5,46.09a1.51,1.51,0,0,0,.58.62,3.79,3.79,0,0,0,.74.41,8.48,8.48,0,0,0,1.66.45c1.13.24,2.29.3,3.46.45a12.89,12.89,0,0,1-1.76.07,13.25,13.25,0,0,1-1.77-.17,7.37,7.37,0,0,1-1.7-.56A2.19,2.19,0,0,1,.5,46.09"></path>
      <path class="cls-9" d="M9.4,63.36A2.58,2.58,0,0,1,8,62a1.16,1.16,0,0,1-.08-.53A1.28,1.28,0,0,1,8.05,61a1.18,1.18,0,0,1,.31-.42,2,2,0,0,1,.37-.34,5,5,0,0,1,.87-.5,4.21,4.21,0,0,1,.91-.36,12.34,12.34,0,0,1,1.88-.48c-.59.27-1.21.45-1.79.72l-.44.19L9.74,60a4.08,4.08,0,0,0-.8.49c-.48.34-.92.87-.73,1.44a3.06,3.06,0,0,0,1.19,1.4"></path>
      <path class="cls-9" d="M7.25,47.63a1.22,1.22,0,0,0-.09,1A2.73,2.73,0,0,0,8.58,50a4.3,4.3,0,0,1-.73-.61,2,2,0,0,1-.5-.78,1.08,1.08,0,0,1,.11-.84,2.17,2.17,0,0,1,.63-.65l0,0L7.85,47a2.32,2.32,0,0,0-.6.68"></path>
      <path class="cls-8" d="M12.05,46.59a18.66,18.66,0,0,0-2.11,0,6.09,6.09,0,0,0-1.78.29L7.85,47l.27.12A8.57,8.57,0,0,1,10,46.74c.67-.07,1.36-.1,2-.15"></path>
      <path class="cls-9" d="M7,59.62a3.09,3.09,0,0,0-.79.09,1.82,1.82,0,0,0-.71.38,1,1,0,0,0-.27.48l.07,0a1,1,0,0,1,.33-.37A1.91,1.91,0,0,1,6.31,60a13.8,13.8,0,0,1,1.5-.25A3.46,3.46,0,0,0,7,59.62"></path>
      <path class="cls-9" d="M6.78,58.46c.51-.28,1-.48,1.57-.72s1-.45,1.53-.72a9.61,9.61,0,0,0,1.44-.89,4.19,4.19,0,0,0,1.15-1.22,3.2,3.2,0,0,1-1,1.43,8.13,8.13,0,0,1-1.44,1,12.93,12.93,0,0,1-1.6.67c-.55.19-1.11.33-1.67.47"></path>
      <path class="cls-7" d="M13.9,62.6c.51-.27,1-.47,1.57-.71A16.51,16.51,0,0,0,17,61.16a9.55,9.55,0,0,0,1.44-.88,4.19,4.19,0,0,0,1.15-1.22,3.2,3.2,0,0,1-1,1.43,8.13,8.13,0,0,1-1.44,1,12.93,12.93,0,0,1-1.6.67,16.54,16.54,0,0,1-1.67.46"></path>
      <path class="cls-8" d="M14.6,47.43a8.69,8.69,0,0,1,1.17-1.54,10.08,10.08,0,0,1,1.48-1.28A6.87,6.87,0,0,1,19,43.74,4.27,4.27,0,0,1,21,43.62a6.41,6.41,0,0,0-3.5,1.27A13.17,13.17,0,0,0,16,46.08c-.47.43-.92.88-1.36,1.35"></path>
      <path class="cls-7" d="M24.66,45.49a2.61,2.61,0,0,0-1.51.27,6.3,6.3,0,0,1,.75,0,4.29,4.29,0,0,1,.72,0,2.42,2.42,0,0,1,.53.13l0-.23a2.32,2.32,0,0,0-.51-.16"></path>
      <path class="cls-9" d="M1.45,52.54A5,5,0,0,1,3.53,53a2.83,2.83,0,0,1,.88.66,1.11,1.11,0,0,1,.26,1,1.25,1.25,0,0,0-.46-.86,3.13,3.13,0,0,0-.83-.54c-.61-.31-1.27-.52-1.93-.79"></path>
      <path class="cls-9" d="M6.75,57.22c.61-.92,1.26-1.78,1.81-2.71a11.44,11.44,0,0,0,.78-1.41,5.51,5.51,0,0,0,.51-1.53,3.8,3.8,0,0,1-.26,1.63,8.23,8.23,0,0,1-.73,1.49,14.27,14.27,0,0,1-1,1.34,10.69,10.69,0,0,1-1.14,1.19"></path>
      <path class="cls-4" d="M10.2,43.88c0,.63,1.32,1.15,2.94,1.15s2.93-.52,2.93-1.15-1.31-1.15-2.93-1.15-2.94.51-2.94,1.15"></path>
      <path class="cls-10" d="M10.79,44.27c0,.52,1.09.94,2.42.94s2.42-.42,2.42-.94-1.08-1-2.42-1-2.42.42-2.42,1"></path>
      <path class="cls-11" d="M12.64,44.57a1.1,1.1,0,0,0-.26-.14A3.84,3.84,0,0,1,9.59,42a7.83,7.83,0,0,1-.34-.92.62.62,0,0,1,.05-.45c.15-.18.36-.07.53,0a4.48,4.48,0,0,1,.6.35,8.43,8.43,0,0,1,1.94,1.78l.54.69a1.06,1.06,0,0,0-.17-1.08l-.54-.57a.54.54,0,0,1-.07-.7,7.76,7.76,0,0,0,.29-1.22c0-.11.14-.19.21-.28a1.5,1.5,0,0,1,.24.27c.08.18.12.37.19.56a.92.92,0,0,0,.18.34c.1.1.36.15.36.23a3.21,3.21,0,0,1-.08.87c-.06.28-.17.56-.25.84l.1.14.14-.07c.31-.69.57-1.4.9-2.07a8.37,8.37,0,0,1,.76-1.14.44.44,0,0,1,.34-.13.4.4,0,0,1,.21.29,5.19,5.19,0,0,1-.09,2A9.34,9.34,0,0,1,15,43.38a3.16,3.16,0,0,1-1.61,1.38l-.79-.19"></path>
      <path class="cls-12" d="M17.66,28.47a4.1,4.1,0,1,1-4.1-4.1,4.11,4.11,0,0,1,4.1,4.1"></path>
      <path class="cls-13" d="M10.82,29.46a4.08,4.08,0,0,0,1,2.67,4.09,4.09,0,0,0,4.79-6.4,4,4,0,0,0-1.69-.37,4.1,4.1,0,0,0-4.1,4.1"></path>
      <polyline class="cls-14" points="15.46 24.88 11.31 31.72 11.65 31.93 15.81 25.08"></polyline>
      <path class="cls-15" d="M13.25,31.93s-.13-.21,0-.81A16.69,16.69,0,0,1,15.72,27s.7-.58,1-.3a2.91,2.91,0,0,1,.67,1.54A3.63,3.63,0,0,1,17,30.43a3.27,3.27,0,0,1-2.21,1.64c-1.36.23-1.5-.14-1.5-.14"></path>
      <path class="cls-14" d="M13.56,32.77a4.3,4.3,0,1,1,4.3-4.3,4.31,4.31,0,0,1-4.3,4.3m0-8.2a3.9,3.9,0,1,0,3.9,3.9,3.91,3.91,0,0,0-3.9-3.9"></path>
    </g>
  </g>
</svg>
