<?xml version="1.0" encoding="UTF-8"?>
<svg xmlns="http://www.w3.org/2000/svg" viewBox="0 0 27.6 76.18">
  <defs>
    <style>.cls-1{fill:#a0bfe2;}.cls-2{fill:#b3ceea;}.cls-3{fill:none;stroke:#334253;stroke-miterlimit:10;stroke-width:0.43px;}.cls-4{fill:#9fbee2;}.cls-5{fill:#334253;}.cls-6{fill:#a0cae7;}.cls-7{fill:#d0e6f5;}.cls-8{fill:#b8d8ee;}.cls-9{fill:#a29274;}.cls-10{fill:#e3e0c9;}.cls-11{fill:#bda885;}.cls-12{fill:#7c705b;}.cls-13{fill:#d0c5a6;}.cls-14{fill:#a29277;}.cls-15{fill:#817870;}</style>
  </defs>
  <g id="Слой_2" data-name="Слой 2">
    <g id="Слой_1-2" data-name="Слой 1">
      <circle class="cls-1" cx="15.37" cy="35.71" r="4.45"></circle>
      <path class="cls-2" d="M12.41,36.79a4.4,4.4,0,0,0,1.07,2.89,4.34,4.34,0,0,0,1.84.4,4.44,4.44,0,0,0,3.37-7.34,4.5,4.5,0,0,0-1.84-.4A4.44,4.44,0,0,0,12.41,36.79Z"></path>
      <line class="cls-3" x1="17.63" y1="31.93" x2="13.12" y2="39.36"></line>
      <path class="cls-4" d="M15,39.47s-.15-.23,0-.87a18,18,0,0,1,2.68-4.44s.76-.63,1.14-.33a3.17,3.17,0,0,1,.73,1.67,4,4,0,0,1-.52,2.35,3.58,3.58,0,0,1-2.4,1.77C15.19,39.87,15,39.47,15,39.47Z"></path>
      <path class="cls-5" d="M15.37,40.38A4.67,4.67,0,1,1,20,35.71,4.67,4.67,0,0,1,15.37,40.38Zm0-8.9a4.23,4.23,0,1,0,4.23,4.23A4.24,4.24,0,0,0,15.37,31.48Z"></path>
      <path class="cls-6" d="M10.15,14.25s-3.4,3.43-1.74,5.28,4.19.16,3.26-2.29A11,11,0,0,0,10.15,14.25Z"></path>
      <path class="cls-7" d="M9,17.47c.11-.35.38-1.16.48-1.46a9.12,9.12,0,0,1,.46-.94s.33-.63-.5.27S8.13,17.88,8.38,18,8.91,17.82,9,17.47Z"></path>
      <path class="cls-8" d="M10.92,18.66c-.1.33-.05.64.11.69a.63.63,0,0,0,.62-.46.63.63,0,0,0-.26-.76C11.23,18.1,11,18.32,10.92,18.66Z"></path>
      <path class="cls-6" d="M15.81,14.25s-3.39,3.43-1.73,5.28,4.18.16,3.25-2.29A11,11,0,0,0,15.81,14.25Z"></path>
      <path class="cls-7" d="M14.69,17.47c.12-.35.38-1.16.49-1.46a7.35,7.35,0,0,1,.46-.94s.32-.63-.5.27S13.8,17.88,14.05,18,14.57,17.82,14.69,17.47Z"></path>
      <path class="cls-8" d="M16.59,18.66c-.1.33-.05.64.1.69a.63.63,0,0,0,.62-.46.63.63,0,0,0-.26-.76C16.89,18.1,16.69,18.32,16.59,18.66Z"></path>
      <path class="cls-6" d="M21.48,14.25s-3.4,3.43-1.74,5.28,4.19.16,3.25-2.29A10.91,10.91,0,0,0,21.48,14.25Z"></path>
      <path class="cls-7" d="M20.35,17.47,20.84,16a9.12,9.12,0,0,1,.46-.94s.33-.63-.5.27S19.46,17.88,19.71,18,20.24,17.82,20.35,17.47Z"></path>
      <path class="cls-8" d="M22.25,18.66c-.1.33-.05.64.11.69a.61.61,0,0,0,.61-.46.62.62,0,0,0-.25-.76C22.56,18.1,22.35,18.32,22.25,18.66Z"></path>
      <path class="cls-6" d="M13.62,6.72s-3.4,3.43-1.73,5.28,4.18.16,3.25-2.29A11,11,0,0,0,13.62,6.72Z"></path>
      <path class="cls-7" d="M12.5,9.94c.12-.35.38-1.16.49-1.46a7.35,7.35,0,0,1,.46-.94s.32-.63-.5.27-1.34,2.54-1.09,2.63S12.38,10.29,12.5,9.94Z"></path>
      <path class="cls-8" d="M14.4,11.13c-.1.33-.05.64.1.69a.61.61,0,0,0,.62-.46.63.63,0,0,0-.26-.76C14.7,10.57,14.5,10.79,14.4,11.13Z"></path>
      <path class="cls-6" d="M19.29,6.72s-3.4,3.43-1.74,5.28,4.19.16,3.25-2.29A10.91,10.91,0,0,0,19.29,6.72Z"></path>
      <path class="cls-7" d="M18.16,9.94l.49-1.46a9.12,9.12,0,0,1,.46-.94s.33-.63-.5.27-1.34,2.54-1.09,2.63S18.05,10.29,18.16,9.94Z"></path>
      <path class="cls-8" d="M20.06,11.13c-.1.33,0,.64.11.69a.6.6,0,0,0,.61-.46.62.62,0,0,0-.25-.76C20.37,10.57,20.16,10.79,20.06,11.13Z"></path>
      <path class="cls-6" d="M16.75,0S13.35,3.43,15,5.28,19.2,5.45,18.27,3A11,11,0,0,0,16.75,0Z"></path>
      <path class="cls-7" d="M15.63,3.22c.12-.35.38-1.16.49-1.45a7,7,0,0,1,.46-.95s.32-.63-.5.27S14.74,3.63,15,3.72,15.51,3.57,15.63,3.22Z"></path>
      <path class="cls-8" d="M17.53,4.41c-.1.33-.05.64.1.69a.61.61,0,0,0,.62-.46A.63.63,0,0,0,18,3.88C17.83,3.85,17.63,4.07,17.53,4.41Z"></path>
      <polygon class="cls-9" points="13.82 58.02 27.59 52.16 25.53 68.02 13.82 76.18 13.82 58.02"></polygon>
      <polygon class="cls-10" points="13.82 48.19 27.59 52.16 13.82 58.02 0 52.16 13.82 48.19"></polygon>
      <polygon class="cls-11" points="13.82 58.02 0 52.16 2.07 68.02 5.71 70.56 5.64 70.5 5.71 70.56 13.82 76.18 13.82 58.02"></polygon>
      <path class="cls-12" d="M13.49,75.69c.32-.45.61-.93.9-1.4s.59-1,.84-1.43a22.43,22.43,0,0,0,1.45-3A8.83,8.83,0,0,1,15.56,73a16.34,16.34,0,0,1-.93,1.41A7.46,7.46,0,0,1,13.49,75.69Z"></path>
      <path class="cls-13" d="M8.68,52.35A6,6,0,0,1,10.08,51a8,8,0,0,1,1.73-.86,9.45,9.45,0,0,1,1.89-.38c.32,0,.64,0,1,0s.63,0,.95.08a16.75,16.75,0,0,0-3.68.7A9.84,9.84,0,0,0,8.68,52.35Z"></path>
      <path class="cls-13" d="M6.33,52.91A3.43,3.43,0,0,0,7.44,53a8.32,8.32,0,0,0,1.11-.1c.74-.09,1.47-.29,2.24-.42a5.82,5.82,0,0,1-2.19.79,5.09,5.09,0,0,1-1.17,0A2,2,0,0,1,6.33,52.91Z"></path>
      <path class="cls-12" d="M16.3,64.12a6.83,6.83,0,0,1-.1-2.43,3.93,3.93,0,0,1,1.11-2.22,4.8,4.8,0,0,1,2.2-1.14c.4-.1.81-.12,1.21-.18s.82,0,1.22,0c-.4.07-.8.11-1.2.16a11.48,11.48,0,0,0-1.16.27,4.88,4.88,0,0,0-2,1.13,3.87,3.87,0,0,0-1.09,2A10.44,10.44,0,0,0,16.3,64.12Z"></path>
      <path class="cls-12" d="M21,60.37c.65-1,1.36-1.89,2-2.87A13,13,0,0,0,23.86,56a5.15,5.15,0,0,0,.58-1.62,3.61,3.61,0,0,1-.31,1.74,10.23,10.23,0,0,1-.83,1.57A13.16,13.16,0,0,1,21,60.37Z"></path>
      <path class="cls-12" d="M17.83,65.41a7.35,7.35,0,0,0,1.6.54c.55.14,1.09.29,1.65.38,1.1.24,2.22.37,3.36.55A11.35,11.35,0,0,1,21,66.7a13.64,13.64,0,0,1-1.66-.47A4.43,4.43,0,0,1,17.83,65.41Z"></path>
      <path class="cls-12" d="M21.15,67.42a4.21,4.21,0,0,1-.39-2.3,3.86,3.86,0,0,1,1-2.16,5.57,5.57,0,0,1,2-1.21c.38-.1.77-.2,1.15-.27s.78-.09,1.16-.11c-.37.11-.75.19-1.12.29s-.73.24-1.09.36a5.71,5.71,0,0,0-1.87,1.2,3.68,3.68,0,0,0-1,1.94A5.1,5.1,0,0,0,21.15,67.42Z"></path>
      <path class="cls-12" d="M26.14,60.15a9.22,9.22,0,0,1-.87,3.07,6,6,0,0,1-2,2.46,11.08,11.08,0,0,0,1.68-2.63C25.4,62.12,25.75,61.14,26.14,60.15Z"></path>
      <path class="cls-13" d="M17.15,56.6l.27-.11A9.26,9.26,0,0,0,16.17,56Z"></path>
      <path class="cls-12" d="M17.05,56.83c-.2.49-.36.89-.59,1.35a10,10,0,0,1-1.73,2.61,5.26,5.26,0,0,0,1.15-1.11,10.63,10.63,0,0,0,.83-1.37,11.75,11.75,0,0,0,.62-1.47c0-.1.07-.25.09-.35l-.27.11S17.06,56.79,17.05,56.83Z"></path>
      <path class="cls-14" d="M1.57,64.41a5.52,5.52,0,0,1,2.76-1.7,8.75,8.75,0,0,1,1.61-.28,8,8,0,0,1,1.62,0,22.78,22.78,0,0,0-3.13.6A10.89,10.89,0,0,0,3,63.61,7.38,7.38,0,0,0,1.57,64.41Z"></path>
      <path class="cls-14" d="M2.42,62.2c.55-.34,1.07-.71,1.6-1.07S5.07,60.4,5.59,60s1-.75,1.54-1.13a7.88,7.88,0,0,0,1.43-1.27,5.22,5.22,0,0,1-1.24,1.49c-.48.44-1,.83-1.51,1.22A15.15,15.15,0,0,1,2.42,62.2Z"></path>
      <path class="cls-14" d="M2.35,67.3A1.56,1.56,0,0,1,3,65.79,2.86,2.86,0,0,1,4.6,65.3a7.07,7.07,0,0,1,1.66.23,8.65,8.65,0,0,1,1.54.57c-.55-.08-1.07-.21-1.6-.28a8.54,8.54,0,0,0-1.59-.14A2.82,2.82,0,0,0,3.14,66,1.7,1.7,0,0,0,2.35,67.3Z"></path>
      <path class="cls-14" d="M.55,54.83A2.62,2.62,0,0,0,2,56a9.11,9.11,0,0,0,1.79.49c1.23.26,2.49.33,3.76.49A13.5,13.5,0,0,1,5.62,57a13.87,13.87,0,0,1-1.92-.19,8,8,0,0,1-1.84-.61A2.31,2.31,0,0,1,.55,54.83Z"></path>
      <path class="cls-14" d="M10.2,73.57a2.85,2.85,0,0,1-1.57-1.43A1.29,1.29,0,0,1,8.73,71a1.37,1.37,0,0,1,.34-.45,2.46,2.46,0,0,1,.41-.38,5.71,5.71,0,0,1,.93-.53,5.26,5.26,0,0,1,1-.4,12,12,0,0,1,2-.51c-.65.28-1.32.48-1.95.78-.31.14-.63.26-.93.43a5.51,5.51,0,0,0-.87.54c-.52.37-1,.94-.79,1.56A3.25,3.25,0,0,0,10.2,73.57Z"></path>
      <path class="cls-14" d="M7.87,56.5a1.31,1.31,0,0,0-.1,1.11,3,3,0,0,0,1.54,1.44,5.17,5.17,0,0,1-.8-.67A2.14,2.14,0,0,1,8,57.54a1.15,1.15,0,0,1,.11-.91,2.45,2.45,0,0,1,.69-.71l0,0-.3-.13A2.5,2.5,0,0,0,7.87,56.5Z"></path>
      <path class="cls-13" d="M13.08,55.38a17.72,17.72,0,0,0-2.3,0,6.45,6.45,0,0,0-1.93.31l-.34.12.3.13a9.33,9.33,0,0,1,2-.36C11.59,55.46,12.33,55.43,13.08,55.38Z"></path>
      <path class="cls-14" d="M7.63,69.51a3.53,3.53,0,0,0-.85.1A2,2,0,0,0,6,70a1,1,0,0,0-.29.52l.07,0a1.19,1.19,0,0,1,.36-.41,2.16,2.16,0,0,1,.71-.31,15.63,15.63,0,0,1,1.62-.27A3.94,3.94,0,0,0,7.63,69.51Z"></path>
      <path class="cls-14" d="M7.36,68.25c1.12-.57,2.29-1,3.36-1.56a10.37,10.37,0,0,0,1.56-1,4.64,4.64,0,0,0,1.25-1.32A3.51,3.51,0,0,1,12.47,66,8.65,8.65,0,0,1,10.9,67a13.92,13.92,0,0,1-1.74.73C8.57,68,8,68.1,7.36,68.25Z"></path>
      <path class="cls-12" d="M15.08,72.75c1.12-.57,2.29-1,3.37-1.56a9.79,9.79,0,0,0,1.55-1,4.54,4.54,0,0,0,1.26-1.32,3.53,3.53,0,0,1-1.07,1.55,8.32,8.32,0,0,1-1.57,1.06,13.78,13.78,0,0,1-1.73.73C16.3,72.45,15.69,72.6,15.08,72.75Z"></path>
      <path class="cls-13" d="M15.84,56.29a10.22,10.22,0,0,1,2.87-3.06,7.29,7.29,0,0,1,1.92-.94,4.54,4.54,0,0,1,2.1-.13,6.85,6.85,0,0,0-3.8,1.38,13.3,13.3,0,0,0-1.61,1.28C16.81,55.29,16.31,55.78,15.84,56.29Z"></path>
      <path class="cls-12" d="M26.76,54.19a2.79,2.79,0,0,0-1.64.28l.81,0a4.2,4.2,0,0,1,.79,0,2.17,2.17,0,0,1,.56.13l0-.24A2.19,2.19,0,0,0,26.76,54.19Z"></path>
      <path class="cls-14" d="M1.57,61.83a5.41,5.41,0,0,1,2.26.52,3.32,3.32,0,0,1,1,.72,1.18,1.18,0,0,1,.28,1.14c-.07-.8-.75-1.2-1.4-1.52S2.29,62.13,1.57,61.83Z"></path>
      <path class="cls-14" d="M7.32,66.91c.66-1,1.37-1.93,2-2.94a13.49,13.49,0,0,0,.85-1.53,6.35,6.35,0,0,0,.55-1.66,4.14,4.14,0,0,1-.28,1.77,10.06,10.06,0,0,1-.8,1.61A12.89,12.89,0,0,1,7.32,66.91Z"></path>
      <ellipse class="cls-9" cx="14.25" cy="52.43" rx="3.18" ry="1.24"></ellipse>
      <ellipse class="cls-15" cx="14.33" cy="52.85" rx="2.62" ry="1.03"></ellipse>
    </g>
  </g>
</svg>
