<?xml version="1.0" encoding="UTF-8"?>
<svg xmlns="http://www.w3.org/2000/svg" viewBox="0 0 92.72 152.07">
  <defs>
    <style>.cls-1{fill:#8b5b3c;}.cls-2{fill:#956d4b;}.cls-3{fill:#754120;}.cls-4{fill:#a17551;}.cls-5{fill:#44281c;}.cls-6{fill:#6c3c1d;}.cls-7{fill:#714d31;}.cls-8{fill:#613922;}.cls-9{fill:#7f5637;}.cls-10{fill:#a07850;}.cls-11{fill:#93c6ee;}.cls-12{fill:#c9e2f6;}.cls-13{fill:#aed4f2;}</style>
  </defs>
  <g id="Слой_2" data-name="Слой 2">
    <g id="Слой_1-2" data-name="Слой 1">
      <polygon class="cls-1" points="6.5 132.27 48.58 152.07 87.5 132.37 47.04 115.22 6.5 132.27"></polygon>
      <polygon class="cls-1" points="0 76.07 48.58 96.37 92.72 77.64 48.58 62.08 0 76.07"></polygon>
      <path class="cls-2" d="M48.58,96.37v25.49S62,112,67.46,111.46s16.08,20.41,20,20.91l5.22-54.73Z"></path>
      <path class="cls-3" d="M3.55,106.51l3,25.76,42.08,19.8V121.86S25.35,112,22.87,108.49,3.55,106.51,3.55,106.51Z"></path>
      <path class="cls-4" d="M0,76.07l3.55,30.44s4.54.36,9.42.49c6.11.17,11.88,4.13,16.51,8.75,5.37,5.38,19.1,6.11,19.1,6.11V96.37Z"></path>
      <path class="cls-5" d="M32.38,125.09a1.94,1.94,0,0,0-.1-.75h0s-.32-.85-1.07-.87-1.2.43-1.15.66a1.94,1.94,0,0,0,.16.34s0,0,0,0a6.83,6.83,0,0,0,.63.53.41.41,0,0,0,.12.09l.12.09c.29.21.26.29.56.35a.93.93,0,0,0,.62-.16.44.44,0,0,0,.06-.1h0A.23.23,0,0,0,32.38,125.09Z"></path>
      <path class="cls-5" d="M14,121.58a3.9,3.9,0,0,0-1.26.69h0a2.56,2.56,0,0,0-.77,2.5c.49,1.33,1.59,1.81,2,1.56a5.51,5.51,0,0,0,.49-.53s0,0,0-.05a11,11,0,0,0,.48-1.48A.68.68,0,0,0,15,124l.07-.29c.16-.65.33-.65.22-1.23a1.7,1.7,0,0,0-.71-1,1.17,1.17,0,0,0-.23,0h0A.38.38,0,0,0,14,121.58Z"></path>
      <path class="cls-5" d="M43.68,138.72a9.35,9.35,0,0,0-1.6-3.22h0s-2.79-3.28-6.19-2.18-4.71,3.82-4.12,4.78a11.93,11.93,0,0,0,1.29,1.29s.08,0,.11,0c1,.65,2.86,1,3.68,1.36a1.9,1.9,0,0,0,.65.22l.71.21c1.63.46,1.6.87,3.06.67a4.35,4.35,0,0,0,2.51-1.69,2.39,2.39,0,0,0,.11-.58h0l0-.06A1,1,0,0,0,43.68,138.72Z"></path>
      <path class="cls-5" d="M21.69,127.53a7,7,0,0,0-1.57,2.26h0s-1.18,3.09.82,5,4.3,1.76,4.73,1a10.65,10.65,0,0,0,.38-1.34s0,0,0-.08a23.58,23.58,0,0,0-.44-3,1.51,1.51,0,0,0-.09-.51c0-.14-.06-.3-.12-.56-.29-1.26,0-1.39-.68-2.3a3.32,3.32,0,0,0-2.06-1.06,2.59,2.59,0,0,0-.43.14v0l0,0A.8.8,0,0,0,21.69,127.53Z"></path>
      <path class="cls-6" d="M48.58,121.86s9.46-13.37,20.36-13.7S90.57,99.9,90.57,99.9L87.5,132.37l-38.92,19.7Z"></path>
      <path class="cls-5" d="M62.46,127a9.3,9.3,0,0,0-3.38,1.12v0s-3.62,2.26-3,5.76,3.08,5.16,4.11,4.72a13.3,13.3,0,0,0,1.44-1.09s0-.07,0-.1c.77-.89,1.34-2.67,1.86-3.42a1.87,1.87,0,0,0,.3-.61c.09-.16.17-.35.31-.66.68-1.53,1.08-1.44,1.09-2.91A4.28,4.28,0,0,0,63.9,127a2.77,2.77,0,0,0-.56-.19v0h-.07A1,1,0,0,0,62.46,127Z"></path>
      <path class="cls-5" d="M80.34,125.91a2.86,2.86,0,0,0-1-.27h0a2,2,0,0,0-1.72,1c-.41,1,0,1.84.3,1.89a4.61,4.61,0,0,0,.55-.05s0,0,0,0a8.8,8.8,0,0,0,1-.58.56.56,0,0,0,.18-.11l.19-.12c.42-.28.51-.19.75-.57a1.34,1.34,0,0,0,.11-.91l-.12-.14h0A.28.28,0,0,0,80.34,125.91Z"></path>
      <path class="cls-5" d="M77.11,116.53a7.13,7.13,0,0,0-2.39-1.41h0s-3.18-1-4.92,1.19-1.44,4.45-.65,4.82a8.63,8.63,0,0,0,1.37.29s0,0,.08,0a24.12,24.12,0,0,0,3-.66,1.51,1.51,0,0,0,.51-.14,5.34,5.34,0,0,0,.55-.16c1.25-.38,1.4-.1,2.27-.85a3.36,3.36,0,0,0,.91-2.15,2.83,2.83,0,0,0-.17-.42h0l0,0A.79.79,0,0,0,77.11,116.53Z"></path>
      <path class="cls-7" d="M45.63,84.39a1.35,1.35,0,0,0-1.29-.48c-.72.23-1,.79-.88,1a3.29,3.29,0,0,0,.27.28c.18.17.56-.33.57-.33Z"></path>
      <path class="cls-8" d="M46,85.25s-.22-1-.59-1-.78-.06-.78-.06l-.1.17s.36.64.51.69.42.12.48.15A3.18,3.18,0,0,0,46,85.25Z"></path>
      <path class="cls-9" d="M46,85.37c0-.08.09-.31-.14-.38s-.47-.1-.47-.1-.59.45-.7.52-.2.06.14.16.33.19.64.15A.9.9,0,0,0,46,85.37Z"></path>
      <path class="cls-10" d="M45.36,84.89a4.44,4.44,0,0,0-.43.42c-.17.21-.2.27-.41.17s-.74-.18-.88-.39-.13-.18,0-.43a1.12,1.12,0,0,1,.69-.42.6.6,0,0,1,.68.15A1.66,1.66,0,0,1,45.36,84.89Z"></path>
      <path class="cls-7" d="M42.7,67.84a2,2,0,0,0-2-.28c-1,.53-1.19,1.43-1,1.69a3.06,3.06,0,0,0,.46.3c.31.2.7-.63.72-.64Z"></path>
      <path class="cls-8" d="M43.49,69s-.62-1.34-1.15-1.24a11.13,11.13,0,0,1-1.14.14l-.09.29s.71.81.94.83.65,0,.75.06A5.28,5.28,0,0,0,43.49,69Z"></path>
      <path class="cls-9" d="M43.49,69.15c0-.13,0-.47-.32-.5a4.8,4.8,0,0,0-.71,0s-.7.82-.85.95-.26.15.26.19.53.17,1,0A1.35,1.35,0,0,0,43.49,69.15Z"></path>
      <path class="cls-10" d="M42.46,68.65a5.43,5.43,0,0,0-.49.74c-.18.34-.21.44-.53.35s-1.12,0-1.38-.28-.25-.22-.08-.63a1.6,1.6,0,0,1,.86-.81.9.9,0,0,1,1,0A2.36,2.36,0,0,1,42.46,68.65Z"></path>
      <path class="cls-7" d="M38.74,73.91s-4.12-2-7,.46-3,5.73-2,6.43a13.55,13.55,0,0,0,1.81.72c1.19.44,1.93-2.66,2-2.7S38.74,73.91,38.74,73.91Z"></path>
      <path class="cls-8" d="M42.26,77.16s-3.06-4.09-4.8-3.37-3.78,1.3-3.78,1.3l-.11,1s3,2.23,3.8,2.16S39.6,78,40,78A17.23,17.23,0,0,0,42.26,77.16Z"></path>
      <path class="cls-9" d="M42.37,77.79c0-.46-.2-1.63-1.43-1.47a17.18,17.18,0,0,0-2.43.52s-1.8,3.28-2.2,3.84-.77.68,1,.45,1.93.18,3.29-.63A4.64,4.64,0,0,0,42.37,77.79Z"></path>
      <path class="cls-10" d="M38.51,76.84a20.7,20.7,0,0,0-1.13,2.85C37,81,37,81.34,35.81,81.28s-3.82.7-4.88,0-1-.58-.71-2.08,1-2.21,2.33-3.38A3.06,3.06,0,0,1,36,75.12,7.93,7.93,0,0,1,38.51,76.84Z"></path>
      <path class="cls-7" d="M53,74.78s-3.45-2-6.1,0-3,4.8-2.15,5.46a11.58,11.58,0,0,0,1.52.73c1,.46,1.83-2.19,1.89-2.22S53,74.78,53,74.78Z"></path>
      <path class="cls-8" d="M55.84,77.81s-2.41-3.74-4-3.22-3.36.9-3.36.9l-.16.9s2.48,2.12,3.17,2.11,1.95-.15,2.26-.14A15.33,15.33,0,0,0,55.84,77.81Z"></path>
      <path class="cls-9" d="M55.91,78.36c0-.4-.09-1.42-1.16-1.36a15.69,15.69,0,0,0-2.14.31S50.85,80,50.47,80.5s-.72.55.85.46,1.67.27,2.9-.35A4.08,4.08,0,0,0,55.91,78.36Z"></path>
      <path class="cls-10" d="M52.61,77.31a17.71,17.71,0,0,0-1.15,2.4C51.06,80.81,51,81.12,50,81s-3.36.38-4.24-.27-.84-.55-.5-1.84a4.76,4.76,0,0,1,2.24-2.79,2.65,2.65,0,0,1,3.07-.43A7,7,0,0,1,52.61,77.31Z"></path>
      <path class="cls-7" d="M62.13,71.13s-3.4-2.63-6.49-.85-3.81,4.71-3,5.53a12.75,12.75,0,0,0,1.52,1c1,.62,2.25-2.08,2.32-2.11S62.13,71.13,62.13,71.13Z"></path>
      <path class="cls-8" d="M64.77,74.74s-2.06-4.3-3.79-4-3.69.51-3.69.51l-.3.93s2.36,2.59,3.1,2.67,2.1.11,2.42.17A16.5,16.5,0,0,0,64.77,74.74Z"></path>
      <path class="cls-9" d="M64.77,75.34c0-.43.1-1.53-1.06-1.61a17.17,17.17,0,0,0-2.32,0s-2.24,2.68-2.71,3.12-.83.49.86.6,1.74.52,3.13,0A4.31,4.31,0,0,0,64.77,75.34Z"></path>
      <path class="cls-10" d="M61.39,73.77a19.35,19.35,0,0,0-1.54,2.4c-.58,1.13-.66,1.45-1.73,1.18s-3.63,0-4.48-.86-.82-.7-.28-2,1.3-1.85,2.75-2.67a2.87,2.87,0,0,1,3.34-.05A7.32,7.32,0,0,1,61.39,73.77Z"></path>
      <path class="cls-7" d="M64.78,82.15a2.07,2.07,0,0,0,1.89-.94c.51-1,.17-1.94-.18-2a3.88,3.88,0,0,0-.58,0c-.39,0-.23,1-.25,1S64.78,82.15,64.78,82.15Z"></path>
      <path class="cls-8" d="M63.43,81.65s1.32.78,1.72.38a11.39,11.39,0,0,1,.9-.79L66,80.93a4.28,4.28,0,0,0-1.31-.16c-.21.11-.58.35-.68.39A5.7,5.7,0,0,0,63.43,81.65Z"></path>
      <path class="cls-9" d="M63.32,81.49c.06.12.25.43.57.24a6.29,6.29,0,0,0,.61-.42s.12-1.12.17-1.32.14-.28-.33,0-.56.17-.84.55A1.37,1.37,0,0,0,63.32,81.49Z"></path>
      <path class="cls-10" d="M64.5,81.31a7.08,7.08,0,0,0,0-.92c0-.41-.09-.51.25-.63s1-.63,1.35-.57.35,0,.44.5a1.64,1.64,0,0,1-.26,1.2.92.92,0,0,1-.88.61A2.56,2.56,0,0,1,64.5,81.31Z"></path>
      <path class="cls-7" d="M32.33,82.88a2.63,2.63,0,0,0,2.49-1c.74-1.26.4-2.45,0-2.58a3.9,3.9,0,0,0-.74,0c-.49,0-.38,1.2-.4,1.22Z"></path>
      <path class="cls-8" d="M30.66,82.13s1.61,1.11,2.16.64A14.35,14.35,0,0,1,34,81.83l-.09-.39a5.4,5.4,0,0,0-1.65-.32c-.28.12-.76.39-.89.44A6,6,0,0,0,30.66,82.13Z"></path>
      <path class="cls-9" d="M30.54,81.92c.07.16.27.56.7.35a7.18,7.18,0,0,0,.82-.48s.25-1.42.33-1.67.19-.34-.43,0-.72.17-1.12.64A1.77,1.77,0,0,0,30.54,81.92Z"></path>
      <path class="cls-10" d="M32.06,81.79a9,9,0,0,0,.06-1.18c0-.51-.06-.64.37-.77s1.31-.72,1.78-.61.43.09.51.67a2.1,2.1,0,0,1-.44,1.52,1.16,1.16,0,0,1-1.17.69A3,3,0,0,1,32.06,81.79Z"></path>
      <path class="cls-7" d="M43.74,76.37a1.52,1.52,0,0,0,1.54.26c.76-.39,1-1.08.78-1.28a2,2,0,0,0-.36-.25c-.23-.16-.55.47-.57.48Z"></path>
      <path class="cls-8" d="M43.15,75.48s.45,1,.86,1,.89-.08.89-.08l.08-.22s-.54-.64-.71-.67-.5,0-.58-.06A3.69,3.69,0,0,0,43.15,75.48Z"></path>
      <path class="cls-9" d="M43.16,75.34c0,.1,0,.36.23.39a3.6,3.6,0,0,0,.56,0s.56-.61.67-.71.21-.11-.19-.15-.41-.14-.75,0A1,1,0,0,0,43.16,75.34Z"></path>
      <path class="cls-10" d="M44,75.74a4.81,4.81,0,0,0,.39-.55c.15-.26.17-.34.42-.26s.87,0,1.06.24.19.18,0,.49a1.24,1.24,0,0,1-.69.61.68.68,0,0,1-.79,0A1.66,1.66,0,0,1,44,75.74Z"></path>
      <path class="cls-7" d="M57.61,82.23s3.88.94,5.82-1.73,1.44-5.42.48-5.81a11.48,11.48,0,0,0-1.66-.27c-1.09-.14-1.12,2.61-1.17,2.67S57.61,82.23,57.61,82.23Z"></path>
      <path class="cls-8" d="M54,80.16s3.36,2.86,4.69,1.92,2.93-1.81,2.93-1.81l-.1-.9s-3-1.31-3.62-1.1-1.82.71-2.11.78A15.7,15.7,0,0,0,54,80.16Z"></path>
      <path class="cls-9" d="M53.81,79.66c.12.38.48,1.33,1.49,1a16,16,0,0,0,2-.91s.89-3.1,1.11-3.65.52-.73-.94-.19-1.67.22-2.65,1.17A4,4,0,0,0,53.81,79.66Z"></path>
      <path class="cls-10" d="M57.25,79.71a19.17,19.17,0,0,0,.4-2.61c.06-1.17,0-1.47,1-1.64s3.1-1.33,4.12-1,1,.29,1,1.62a4.75,4.75,0,0,1-1.32,3.29,2.64,2.64,0,0,1-2.8,1.29A6.71,6.71,0,0,1,57.25,79.71Z"></path>
      <path class="cls-7" d="M39.77,80s2.32,1.31,4-.06,1.91-3.23,1.36-3.66a7.27,7.27,0,0,0-1-.47c-.67-.29-1.19,1.48-1.23,1.51S39.77,80,39.77,80Z"></path>
      <path class="cls-8" d="M37.83,78s1.65,2.45,2.67,2.09a22.18,22.18,0,0,1,2.22-.64l.1-.6s-1.68-1.38-2.14-1.36-1.29.13-1.49.12A9.79,9.79,0,0,0,37.83,78Z"></path>
      <path class="cls-9" d="M37.78,77.65c0,.26.07.94.79.88A9,9,0,0,0,40,78.3s1.14-1.84,1.38-2.15.47-.37-.57-.29-1.11-.16-1.92.27A2.67,2.67,0,0,0,37.78,77.65Z"></path>
      <path class="cls-10" d="M40,78.3a12.82,12.82,0,0,0,.74-1.61c.25-.73.27-.94,1-.87s2.23-.3,2.82.12.57.36.35,1.22a3.19,3.19,0,0,1-1.44,1.89,1.79,1.79,0,0,1-2,.32A4.59,4.59,0,0,1,40,78.3Z"></path>
      <path class="cls-11" d="M35.31,28.38s-6.76,6.84-3.45,10.52,8.33.32,6.47-4.57A21.62,21.62,0,0,0,35.31,28.38Z"></path>
      <path class="cls-12" d="M33.08,34.79c.23-.7.76-2.32,1-2.9A16.45,16.45,0,0,1,35,30s.65-1.24-1,.54S31.3,35.6,31.8,35.79,32.85,35.48,33.08,34.79Z"></path>
      <path class="cls-13" d="M36.86,37.15c-.2.67-.11,1.29.21,1.38a1.23,1.23,0,0,0,1.23-.91,1.25,1.25,0,0,0-.52-1.51C37.46,36,37.05,36.48,36.86,37.15Z"></path>
      <path class="cls-11" d="M46.59,28.38s-6.76,6.84-3.45,10.52,8.33.32,6.47-4.57A21.62,21.62,0,0,0,46.59,28.38Z"></path>
      <path class="cls-12" d="M44.36,34.79c.23-.7.76-2.32,1-2.9A16.45,16.45,0,0,1,46.24,30s.65-1.24-1,.54-2.67,5.06-2.17,5.25S44.13,35.48,44.36,34.79Z"></path>
      <path class="cls-13" d="M48.14,37.15c-.2.67-.11,1.29.21,1.38a1.23,1.23,0,0,0,1.23-.91,1.25,1.25,0,0,0-.52-1.51C48.74,36,48.33,36.48,48.14,37.15Z"></path>
      <path class="cls-11" d="M57.87,28.38s-6.76,6.84-3.45,10.52,8.33.32,6.47-4.57A21.62,21.62,0,0,0,57.87,28.38Z"></path>
      <path class="cls-12" d="M55.64,34.79c.23-.7.76-2.32,1-2.9A16.45,16.45,0,0,1,57.52,30s.65-1.24-1,.54-2.67,5.06-2.17,5.25S55.41,35.48,55.64,34.79Z"></path>
      <path class="cls-13" d="M59.42,37.15c-.2.67-.11,1.29.21,1.38a1.23,1.23,0,0,0,1.23-.91,1.25,1.25,0,0,0-.52-1.51C60,36,59.62,36.48,59.42,37.15Z"></path>
      <path class="cls-11" d="M42.23,13.38s-6.76,6.84-3.45,10.52,8.33.32,6.47-4.56A21.83,21.83,0,0,0,42.23,13.38Z"></path>
      <path class="cls-12" d="M40,19.8c.23-.71.76-2.32,1-2.9A15.07,15.07,0,0,1,41.88,15s.65-1.24-1,.54-2.66,5.06-2.17,5.25S39.77,20.49,40,19.8Z"></path>
      <path class="cls-13" d="M43.77,22.16c-.19.67-.1,1.28.22,1.38a1.22,1.22,0,0,0,1.22-.92c.2-.79-.19-1.43-.51-1.5S44,21.49,43.77,22.16Z"></path>
      <path class="cls-11" d="M53.51,13.38s-6.76,6.84-3.45,10.52,8.33.32,6.47-4.56A21.83,21.83,0,0,0,53.51,13.38Z"></path>
      <path class="cls-12" d="M51.28,19.8c.23-.71.76-2.32,1-2.9A15.07,15.07,0,0,1,53.16,15s.65-1.24-1,.54S49.5,20.61,50,20.8,51.05,20.49,51.28,19.8Z"></path>
      <path class="cls-13" d="M55.06,22.16c-.2.67-.11,1.28.21,1.38A1.32,1.32,0,0,0,56,21.12C55.66,21.05,55.25,21.49,55.06,22.16Z"></path>
      <path class="cls-11" d="M48.46,0S41.7,6.84,45,10.52s8.33.32,6.48-4.56A22,22,0,0,0,48.46,0Z"></path>
      <path class="cls-12" d="M46.23,6.41c.23-.7.76-2.31,1-2.89a15.59,15.59,0,0,1,.91-1.89s.65-1.24-1,.54S44.45,7.23,45,7.42,46,7.11,46.23,6.41Z"></path>
      <path class="cls-13" d="M50,8.78c-.2.67-.11,1.28.21,1.38a1.23,1.23,0,0,0,1.23-.92,1.25,1.25,0,0,0-.51-1.5C50.62,7.67,50.21,8.11,50,8.78Z"></path>
    </g>
  </g>
</svg>
