<?xml version="1.0" encoding="UTF-8"?>
<svg xmlns="http://www.w3.org/2000/svg" viewBox="0 0 27.6 74.8">
  <defs>
    <style>.cls-1{fill:#a0cae7;}.cls-2{fill:#d0e6f5;}.cls-3{fill:#b8d8ee;}.cls-4{fill:#a29274;}.cls-5{fill:#e3e0c9;}.cls-6{fill:#bda885;}.cls-7{fill:#7c705b;}.cls-8{fill:#d0c5a6;}.cls-9{fill:#a29277;}.cls-10{fill:#817870;}.cls-11{fill:#79a05b;}</style>
  </defs>
  <g id="Слой_2" data-name="Слой 2">
    <g id="Слой_1-2" data-name="Слой 1">
      <path class="cls-1" d="M10.15,14.25s-3.4,3.43-1.74,5.28,4.19.16,3.26-2.29A11,11,0,0,0,10.15,14.25Z"></path>
      <path class="cls-2" d="M9,17.47c.11-.35.38-1.16.48-1.46a9.12,9.12,0,0,1,.46-.94s.33-.63-.5.27S8.13,17.88,8.38,18,8.91,17.82,9,17.47Z"></path>
      <path class="cls-3" d="M10.92,18.66c-.1.33-.05.64.11.69a.63.63,0,0,0,.62-.46.63.63,0,0,0-.26-.76C11.23,18.1,11,18.32,10.92,18.66Z"></path>
      <path class="cls-1" d="M15.81,14.25s-3.39,3.43-1.73,5.28,4.18.16,3.25-2.29A11,11,0,0,0,15.81,14.25Z"></path>
      <path class="cls-2" d="M14.69,17.47c.12-.35.38-1.16.49-1.46a7.35,7.35,0,0,1,.46-.94s.32-.63-.5.27S13.8,17.88,14.05,18,14.57,17.82,14.69,17.47Z"></path>
      <path class="cls-3" d="M16.59,18.66c-.1.33-.05.64.1.69a.63.63,0,0,0,.62-.46.63.63,0,0,0-.26-.76C16.89,18.1,16.69,18.32,16.59,18.66Z"></path>
      <path class="cls-1" d="M21.48,14.25s-3.4,3.43-1.74,5.28,4.19.16,3.25-2.29A10.91,10.91,0,0,0,21.48,14.25Z"></path>
      <path class="cls-2" d="M20.35,17.47,20.84,16a9.12,9.12,0,0,1,.46-.94s.33-.63-.5.27S19.46,17.88,19.71,18,20.24,17.82,20.35,17.47Z"></path>
      <path class="cls-3" d="M22.25,18.66c-.1.33-.05.64.11.69a.61.61,0,0,0,.61-.46.62.62,0,0,0-.25-.76C22.56,18.1,22.35,18.32,22.25,18.66Z"></path>
      <path class="cls-1" d="M13.62,6.72s-3.4,3.43-1.73,5.28,4.18.16,3.25-2.29A11,11,0,0,0,13.62,6.72Z"></path>
      <path class="cls-2" d="M12.5,9.94c.12-.35.38-1.16.49-1.46a7.35,7.35,0,0,1,.46-.94s.32-.63-.5.27-1.34,2.54-1.09,2.63S12.38,10.29,12.5,9.94Z"></path>
      <path class="cls-3" d="M14.4,11.13c-.1.33-.05.64.1.69a.61.61,0,0,0,.62-.46.63.63,0,0,0-.26-.76C14.7,10.57,14.5,10.79,14.4,11.13Z"></path>
      <path class="cls-1" d="M19.29,6.72s-3.4,3.43-1.74,5.28,4.19.16,3.25-2.29A10.91,10.91,0,0,0,19.29,6.72Z"></path>
      <path class="cls-2" d="M18.16,9.94l.49-1.46a9.12,9.12,0,0,1,.46-.94s.33-.63-.5.27-1.34,2.54-1.09,2.63S18.05,10.29,18.16,9.94Z"></path>
      <path class="cls-3" d="M20.06,11.13c-.1.33,0,.64.11.69a.6.6,0,0,0,.61-.46.62.62,0,0,0-.25-.76C20.37,10.57,20.16,10.79,20.06,11.13Z"></path>
      <path class="cls-1" d="M16.75,0S13.35,3.43,15,5.28,19.2,5.45,18.27,3A11,11,0,0,0,16.75,0Z"></path>
      <path class="cls-2" d="M15.63,3.22c.12-.35.38-1.16.49-1.45a7,7,0,0,1,.46-.95s.32-.63-.5.27S14.74,3.63,15,3.72,15.51,3.57,15.63,3.22Z"></path>
      <path class="cls-3" d="M17.53,4.41c-.1.33-.05.64.1.69a.61.61,0,0,0,.62-.46A.63.63,0,0,0,18,3.88C17.83,3.85,17.63,4.07,17.53,4.41Z"></path>
      <polygon class="cls-4" points="13.82 56.64 27.59 50.78 25.53 66.64 13.82 74.8 13.82 56.64"></polygon>
      <polygon class="cls-5" points="13.82 46.81 27.59 50.78 13.82 56.64 0 50.78 13.82 46.81"></polygon>
      <polygon class="cls-6" points="13.82 56.64 0 50.78 2.07 66.64 5.71 69.17 5.64 69.12 5.71 69.17 13.82 74.8 13.82 56.64"></polygon>
      <path class="cls-7" d="M13.49,74.32c.32-.46.61-.94.9-1.41s.59-.94.84-1.43a22.43,22.43,0,0,0,1.45-3,8.83,8.83,0,0,1-1.12,3.18,13.74,13.74,0,0,1-.93,1.41A8,8,0,0,1,13.49,74.32Z"></path>
      <path class="cls-8" d="M8.68,51a6,6,0,0,1,1.4-1.31,8,8,0,0,1,1.73-.86,9.45,9.45,0,0,1,1.89-.38c.32,0,.64,0,1,0s.63,0,.95.08a16.64,16.64,0,0,0-3.68.7A9.84,9.84,0,0,0,8.68,51Z"></path>
      <path class="cls-8" d="M6.33,51.53a3.43,3.43,0,0,0,1.11.09,8.32,8.32,0,0,0,1.11-.1c.74-.09,1.47-.29,2.24-.42a5.82,5.82,0,0,1-2.19.79,5.09,5.09,0,0,1-1.17,0A2,2,0,0,1,6.33,51.53Z"></path>
      <path class="cls-7" d="M16.3,62.75a6.89,6.89,0,0,1-.1-2.44,3.93,3.93,0,0,1,1.11-2.22A4.8,4.8,0,0,1,19.51,57c.4-.1.81-.12,1.21-.18s.82,0,1.22,0c-.4.07-.8.11-1.2.16a11.48,11.48,0,0,0-1.16.27,4.88,4.88,0,0,0-2,1.13,3.87,3.87,0,0,0-1.09,2A10.48,10.48,0,0,0,16.3,62.75Z"></path>
      <path class="cls-7" d="M21,59c.65-1,1.36-1.89,2-2.87a12.2,12.2,0,0,0,.87-1.48A5.15,5.15,0,0,0,24.44,53a3.61,3.61,0,0,1-.31,1.74,10.23,10.23,0,0,1-.83,1.57A13.16,13.16,0,0,1,21,59Z"></path>
      <path class="cls-7" d="M17.83,64a7.35,7.35,0,0,0,1.6.54c.55.14,1.09.29,1.65.38,1.1.25,2.22.37,3.36.55A11.35,11.35,0,0,1,21,65.32a13.64,13.64,0,0,1-1.66-.47A4.43,4.43,0,0,1,17.83,64Z"></path>
      <path class="cls-7" d="M21.15,66a4.21,4.21,0,0,1-.39-2.3,3.86,3.86,0,0,1,1-2.16,5.57,5.57,0,0,1,2-1.21c.39-.1.77-.2,1.15-.27s.78-.09,1.16-.11c-.37.11-.75.19-1.12.29s-.73.24-1.09.36a5.71,5.71,0,0,0-1.87,1.2,3.68,3.68,0,0,0-1,1.94A5.09,5.09,0,0,0,21.15,66Z"></path>
      <path class="cls-7" d="M26.14,58.77a9.22,9.22,0,0,1-.87,3.07,6,6,0,0,1-2,2.46,11.08,11.08,0,0,0,1.68-2.63C25.4,60.74,25.75,59.76,26.14,58.77Z"></path>
      <path class="cls-8" d="M17.15,55.22l.27-.11a9.26,9.26,0,0,0-1.25-.46Z"></path>
      <path class="cls-7" d="M17.05,55.45c-.2.49-.36.89-.59,1.35a10,10,0,0,1-1.73,2.61,5.26,5.26,0,0,0,1.15-1.11,10.63,10.63,0,0,0,.83-1.37,11.75,11.75,0,0,0,.62-1.47c0-.1.07-.25.09-.35l-.27.11C17.13,55.27,17.06,55.41,17.05,55.45Z"></path>
      <path class="cls-9" d="M1.57,63a5.52,5.52,0,0,1,2.76-1.7,8.75,8.75,0,0,1,1.61-.28,8,8,0,0,1,1.62,0,22.78,22.78,0,0,0-3.13.6A10.89,10.89,0,0,0,3,62.23,7.38,7.38,0,0,0,1.57,63Z"></path>
      <path class="cls-9" d="M2.42,60.82c.55-.34,1.07-.71,1.6-1.07S5.07,59,5.59,58.64s1-.75,1.54-1.13a7.88,7.88,0,0,0,1.43-1.27,5.22,5.22,0,0,1-1.24,1.49c-.48.44-1,.83-1.51,1.22A15.15,15.15,0,0,1,2.42,60.82Z"></path>
      <path class="cls-9" d="M2.35,65.92A1.57,1.57,0,0,1,3,64.41a2.86,2.86,0,0,1,1.63-.49,7.07,7.07,0,0,1,1.66.23,8.65,8.65,0,0,1,1.54.57c-.55-.08-1.07-.21-1.6-.28a8.54,8.54,0,0,0-1.59-.14,2.82,2.82,0,0,0-1.47.34A1.7,1.7,0,0,0,2.35,65.92Z"></path>
      <path class="cls-9" d="M.55,53.45A2.58,2.58,0,0,0,2,54.57a9.11,9.11,0,0,0,1.79.49c1.23.26,2.49.33,3.76.49a13.5,13.5,0,0,1-1.91.08,13.87,13.87,0,0,1-1.92-.19,8,8,0,0,1-1.84-.61A2.31,2.31,0,0,1,.55,53.45Z"></path>
      <path class="cls-9" d="M10.2,72.19a2.85,2.85,0,0,1-1.57-1.43,1.29,1.29,0,0,1,.1-1.13,1.37,1.37,0,0,1,.34-.45,2.46,2.46,0,0,1,.41-.38,5.71,5.71,0,0,1,.93-.53,5.26,5.26,0,0,1,1-.4,12,12,0,0,1,2-.51c-.65.28-1.32.48-1.95.78a8.73,8.73,0,0,0-.93.44,4.81,4.81,0,0,0-.87.53c-.52.37-1,.94-.79,1.56A3.25,3.25,0,0,0,10.2,72.19Z"></path>
      <path class="cls-9" d="M7.87,55.12a1.31,1.31,0,0,0-.1,1.11,3,3,0,0,0,1.54,1.44,5.17,5.17,0,0,1-.8-.67A2.14,2.14,0,0,1,8,56.16a1.15,1.15,0,0,1,.11-.91,2.45,2.45,0,0,1,.69-.71l0,0-.3-.13A2.5,2.5,0,0,0,7.87,55.12Z"></path>
      <path class="cls-8" d="M13.08,54a17.72,17.72,0,0,0-2.3,0,6.45,6.45,0,0,0-1.93.31l-.34.12.3.13a9.33,9.33,0,0,1,2-.36C11.59,54.08,12.33,54.05,13.08,54Z"></path>
      <path class="cls-9" d="M7.63,68.13a3.53,3.53,0,0,0-.85.1,2,2,0,0,0-.78.42,1,1,0,0,0-.29.52l.07,0a1.19,1.19,0,0,1,.36-.41,2.16,2.16,0,0,1,.71-.31,15.63,15.63,0,0,1,1.62-.27A3.94,3.94,0,0,0,7.63,68.13Z"></path>
      <path class="cls-9" d="M7.36,66.87c1.12-.57,2.29-1,3.36-1.56a10.37,10.37,0,0,0,1.56-1A4.64,4.64,0,0,0,13.53,63a3.51,3.51,0,0,1-1.06,1.55,8.65,8.65,0,0,1-1.57,1.06,13.92,13.92,0,0,1-1.74.73C8.57,66.57,8,66.72,7.36,66.87Z"></path>
      <path class="cls-7" d="M15.08,71.37c1.12-.57,2.29-1,3.37-1.56a9.79,9.79,0,0,0,1.55-1,4.54,4.54,0,0,0,1.26-1.32,3.53,3.53,0,0,1-1.07,1.55,8.32,8.32,0,0,1-1.57,1.06,13.78,13.78,0,0,1-1.73.73C16.3,71.07,15.69,71.22,15.08,71.37Z"></path>
      <path class="cls-8" d="M15.84,54.91a10.34,10.34,0,0,1,2.87-3.06,7.29,7.29,0,0,1,1.92-.94,4.54,4.54,0,0,1,2.1-.13,6.85,6.85,0,0,0-3.8,1.38,13.3,13.3,0,0,0-1.61,1.28C16.81,53.91,16.31,54.4,15.84,54.91Z"></path>
      <path class="cls-7" d="M26.76,52.81a2.79,2.79,0,0,0-1.64.28l.81-.05a4.2,4.2,0,0,1,.79.05,2.68,2.68,0,0,1,.56.13l0-.24A2.19,2.19,0,0,0,26.76,52.81Z"></path>
      <path class="cls-9" d="M1.57,60.45A5.41,5.41,0,0,1,3.83,61a3.18,3.18,0,0,1,1,.73,1.16,1.16,0,0,1,.28,1.13c-.07-.8-.75-1.2-1.4-1.52S2.29,60.75,1.57,60.45Z"></path>
      <path class="cls-9" d="M7.32,65.53c.66-1,1.37-1.93,2-2.94a13.49,13.49,0,0,0,.85-1.53,6.35,6.35,0,0,0,.55-1.66,4.14,4.14,0,0,1-.28,1.77,10.6,10.6,0,0,1-.8,1.62A13.08,13.08,0,0,1,7.32,65.53Z"></path>
      <ellipse class="cls-4" cx="14.25" cy="51.06" rx="3.18" ry="1.24"></ellipse>
      <ellipse class="cls-10" cx="14.33" cy="51.48" rx="2.62" ry="1.03"></ellipse>
      <path class="cls-11" d="M13.71,51.8a1.08,1.08,0,0,0-.28-.15,4.13,4.13,0,0,1-3-2.59,6,6,0,0,1-.37-1,.6.6,0,0,1,.05-.48c.16-.2.39-.08.58,0a6,6,0,0,1,.65.37,9,9,0,0,1,2.1,1.94l.59.75a1.13,1.13,0,0,0-.19-1.17c-.19-.21-.38-.42-.58-.62a.59.59,0,0,1-.08-.76,9.56,9.56,0,0,0,.32-1.33c0-.11.15-.2.23-.3a1.37,1.37,0,0,1,.25.29c.09.2.13.41.21.61a1.08,1.08,0,0,0,.19.37c.12.11.39.16.4.25a3.33,3.33,0,0,1-.09.94c-.06.31-.19.61-.27.91a.18.18,0,0,0,.1.15s.14,0,.16-.08c.33-.74.62-1.51,1-2.24a9.07,9.07,0,0,1,.82-1.23.44.44,0,0,1,.37-.14.4.4,0,0,1,.23.3,5.58,5.58,0,0,1-.1,2.23,9.56,9.56,0,0,1-.65,1.68A3.35,3.35,0,0,1,14.57,52Z"></path>
    </g>
  </g>
</svg>
