<?xml version="1.0" encoding="UTF-8"?>
<svg xmlns="http://www.w3.org/2000/svg" xmlns:xlink="http://www.w3.org/1999/xlink" viewBox="0 0 28.36 66.93">
  <defs>
    <style>.cls-1{fill:none;}.cls-2{clip-path:url(#clip-path);}.cls-3{fill:#a0cae7;}.cls-4{fill:#d0e6f5;}.cls-5{fill:#b8d8ee;}.cls-6{fill:#85563a;}.cls-7{fill:#8e6848;}.cls-8{fill:#713e21;}.cls-9{fill:#9b714f;}.cls-10{fill:#3d271f;}.cls-11{fill:#69391e;}.cls-12{fill:#6b472f;}.cls-13{fill:#5c3624;}.cls-14{fill:#795135;}.cls-15{fill:#9a734f;}</style>
    <clipPath id="clip-path" transform="translate(0 0)">
      <rect class="cls-1" width="28.36" height="66.93"></rect>
    </clipPath>
  </defs>
  <g id="Слой_2" data-name="Слой 2">
    <g id="Слой_1-2" data-name="Слой 1">
      <g class="cls-2">
        <path class="cls-3" d="M9.87,13.13S6.74,16.3,8.27,18s3.86.15,3-2.11a10.09,10.09,0,0,0-1.4-2.76" transform="translate(0 0)"></path>
        <path class="cls-4" d="M8.84,16.1c.1-.32.35-1.07.44-1.34a7.48,7.48,0,0,1,.43-.87s.3-.58-.46.25-1.24,2.34-1,2.42.49-.14.6-.46" transform="translate(0 0)"></path>
        <path class="cls-5" d="M10.58,17.2c-.09.3,0,.59.1.63a.56.56,0,0,0,.57-.42.58.58,0,0,0-.24-.7c-.14,0-.33.18-.43.49" transform="translate(0 0)"></path>
        <path class="cls-3" d="M15.09,13.13S12,16.3,13.49,18s3.86.15,3-2.11a10.09,10.09,0,0,0-1.4-2.76" transform="translate(0 0)"></path>
        <path class="cls-4" d="M14.06,16.1c.1-.32.35-1.07.45-1.34a6.49,6.49,0,0,1,.42-.87s.3-.58-.46.25-1.24,2.34-1,2.42.49-.14.6-.46" transform="translate(0 0)"></path>
        <path class="cls-5" d="M15.81,17.2c-.1.3-.05.59.09.63a.56.56,0,0,0,.57-.42.6.6,0,0,0-.23-.7c-.15,0-.34.18-.43.49" transform="translate(0 0)"></path>
        <path class="cls-3" d="M20.31,13.13S17.18,16.3,18.71,18s3.86.15,3-2.11a10.09,10.09,0,0,0-1.4-2.76" transform="translate(0 0)"></path>
        <path class="cls-4" d="M19.28,16.1c.11-.32.35-1.07.45-1.34a6.49,6.49,0,0,1,.42-.87s.3-.58-.46.25-1.24,2.34-1,2.42.49-.14.6-.46" transform="translate(0 0)"></path>
        <path class="cls-5" d="M21,17.2c-.1.3-.05.59.09.63a.56.56,0,0,0,.57-.42.58.58,0,0,0-.23-.7c-.15,0-.34.18-.43.49" transform="translate(0 0)"></path>
        <path class="cls-3" d="M13.07,6.19s-3.13,3.17-1.6,4.87,3.86.15,3-2.11a10.09,10.09,0,0,0-1.4-2.76" transform="translate(0 0)"></path>
        <path class="cls-4" d="M12,9.16c.11-.32.35-1.07.45-1.34A6.49,6.49,0,0,1,12.91,7s.3-.58-.46.25-1.24,2.34-1,2.42.48-.14.59-.46" transform="translate(0 0)"></path>
        <path class="cls-5" d="M13.79,10.26c-.09.3,0,.59.09.63a.56.56,0,0,0,.57-.42.58.58,0,0,0-.23-.7c-.15,0-.34.18-.43.49" transform="translate(0 0)"></path>
        <path class="cls-3" d="M18.29,6.19s-3.13,3.17-1.6,4.87,3.86.15,3-2.11a10.09,10.09,0,0,0-1.4-2.76" transform="translate(0 0)"></path>
        <path class="cls-4" d="M17.26,9.16c.11-.32.35-1.07.45-1.34A6.49,6.49,0,0,1,18.13,7s.3-.58-.46.25-1.24,2.34-1,2.42.48-.14.59-.46" transform="translate(0 0)"></path>
        <path class="cls-5" d="M19,10.26c-.09.3-.05.59.09.63a.56.56,0,0,0,.57-.42.58.58,0,0,0-.23-.7c-.15,0-.34.18-.43.49" transform="translate(0 0)"></path>
        <path class="cls-3" d="M16,0s-3.13,3.17-1.6,4.87,3.85.15,3-2.11A10.47,10.47,0,0,0,16,0" transform="translate(0 0)"></path>
        <path class="cls-4" d="M14.92,3c.11-.33.35-1.07.45-1.34A8,8,0,0,1,15.8.75s.29-.57-.47.25-1.23,2.34-1,2.43.49-.14.59-.46" transform="translate(0 0)"></path>
        <path class="cls-5" d="M16.67,4.06c-.09.31-.05.6.1.64a.57.57,0,0,0,.57-.42c.09-.37-.09-.67-.24-.7s-.34.17-.43.48" transform="translate(0 0)"></path>
        <polygon class="cls-6" points="1.99 60.88 14.86 66.93 26.76 60.9 14.38 55.66 1.99 60.88"></polygon>
        <polygon class="cls-6" points="0 43.69 14.86 49.9 28.36 44.17 14.86 39.41 0 43.69"></polygon>
        <path class="cls-7" d="M14.86,49.9v7.79s4.1-3,5.77-3.18,4.92,6.24,6.13,6.39l1.6-16.73Z" transform="translate(0 0)"></path>
        <path class="cls-8" d="M1.09,53,2,60.87l12.87,6.06V57.69S7.75,54.66,7,53.6s-5.9-.6-5.9-.6" transform="translate(0 0)"></path>
        <path class="cls-9" d="M0,43.69,1.09,53s1.38.11,2.88.15a7.93,7.93,0,0,1,5,2.67c1.65,1.65,5.85,1.87,5.85,1.87V49.9Z" transform="translate(0 0)"></path>
        <path class="cls-10" d="M9.9,58.68a.61.61,0,0,0,0-.23h0s-.09-.26-.32-.27-.37.13-.36.21l.05.1h0l.19.17,0,0,0,0c.09.06.07.09.17.11a.28.28,0,0,0,.19,0l0,0h0Z" transform="translate(0 0)"></path>
        <path class="cls-10" d="M4.29,57.61a1.06,1.06,0,0,0-.39.21h0a.8.8,0,0,0-.23.77c.15.41.48.55.6.48l.15-.17h0c.07-.13.1-.35.15-.45l0-.09,0-.08c0-.2.1-.2.07-.38a.52.52,0,0,0-.22-.3H4.38Z" transform="translate(0 0)"></path>
        <path class="cls-10" d="M13.36,62.85a2.87,2.87,0,0,0-.49-1h0A2,2,0,0,0,11,61.19c-1,.34-1.44,1.17-1.26,1.47a3.78,3.78,0,0,0,.4.39h0a10,10,0,0,0,1.13.42.45.45,0,0,0,.19.06l.22.07c.5.14.49.27.94.2a1.28,1.28,0,0,0,.76-.51.69.69,0,0,0,0-.18h0v0a.36.36,0,0,0-.07-.24" transform="translate(0 0)"></path>
        <path class="cls-10" d="M6.63,59.43a2,2,0,0,0-.48.69h0a1.51,1.51,0,0,0,.25,1.52c.61.58,1.31.54,1.44.31A2.28,2.28,0,0,0,8,61.53v0a7.66,7.66,0,0,0-.13-.91,1.3,1.3,0,0,0,0-.15l0-.17c-.09-.39,0-.43-.21-.71a1,1,0,0,0-.62-.32l-.14,0h0a.27.27,0,0,0-.14.14" transform="translate(0 0)"></path>
        <path class="cls-11" d="M14.86,57.69s2.89-4.09,6.22-4.19S27.7,51,27.7,51l-.94,9.92-11.9,6Z" transform="translate(0 0)"></path>
        <path class="cls-10" d="M19.1,59.25a2.78,2.78,0,0,0-1,.34h0a2,2,0,0,0-.92,1.76c.18,1.07.94,1.58,1.26,1.45a5,5,0,0,0,.44-.33v0a9,9,0,0,0,.56-1,.58.58,0,0,0,.1-.19s0-.1.09-.2c.21-.47.33-.44.34-.89a1.3,1.3,0,0,0-.4-.82.56.56,0,0,0-.17-.06h0a.37.37,0,0,0-.25,0" transform="translate(0 0)"></path>
        <path class="cls-10" d="M24.57,58.93a.72.72,0,0,0-.32-.08h0a.61.61,0,0,0-.53.3c-.12.31,0,.56.09.58l.17,0h0a2.84,2.84,0,0,0,.31-.18l.06,0,.06,0c.13-.09.15-.06.23-.18a.4.4,0,0,0,0-.27l0,0h0Z" transform="translate(0 0)"></path>
        <path class="cls-10" d="M23.58,56.06a2.14,2.14,0,0,0-.73-.43h0a1.51,1.51,0,0,0-1.5.36c-.53.66-.44,1.36-.2,1.48a2.63,2.63,0,0,0,.42.08h0a6.86,6.86,0,0,0,.91-.2.39.39,0,0,0,.15,0l.17,0c.38-.12.43,0,.69-.26a1,1,0,0,0,.28-.66l-.05-.13h0a.24.24,0,0,0-.15-.13" transform="translate(0 0)"></path>
        <path class="cls-12" d="M14,46.23a.4.4,0,0,0-.39-.14c-.22.07-.31.24-.27.3l.08.08.18-.1Z" transform="translate(0 0)"></path>
        <path class="cls-13" d="M14.07,46.5s-.07-.3-.18-.31l-.24,0,0,.06.15.21.15,0Z" transform="translate(0 0)"></path>
        <path class="cls-14" d="M14.06,46.53a.07.07,0,0,0-.05-.11l-.14,0-.21.15s-.06,0,0,.05.1.06.2,0a.28.28,0,0,0,.16-.11" transform="translate(0 0)"></path>
        <path class="cls-15" d="M13.87,46.39l-.13.13-.13,0-.26-.12c0-.06,0-.06,0-.13a.31.31,0,0,1,.21-.13.19.19,0,0,1,.21,0Z" transform="translate(0 0)"></path>
        <path class="cls-12" d="M13.06,41.17a.59.59,0,0,0-.61-.08c-.3.16-.37.43-.3.51l.15.1c.09.06.21-.2.22-.2Z" transform="translate(0 0)"></path>
        <path class="cls-13" d="M13.3,41.52s-.19-.41-.35-.38a3.13,3.13,0,0,1-.35,0l0,.09s.22.25.29.26h.23Z" transform="translate(0 0)"></path>
        <path class="cls-14" d="M13.3,41.57s0-.14-.1-.15a1.39,1.39,0,0,0-.22,0l-.26.29s-.07,0,.08.06.17,0,.3,0a.39.39,0,0,0,.2-.2" transform="translate(0 0)"></path>
        <path class="cls-15" d="M13,41.42a1.49,1.49,0,0,0-.14.23c-.06.1-.07.13-.17.1s-.34,0-.42-.08-.08-.07,0-.19a.43.43,0,0,1,.26-.25.25.25,0,0,1,.31,0,.55.55,0,0,1,.18.19" transform="translate(0 0)"></path>
        <path class="cls-12" d="M11.85,43a2.09,2.09,0,0,0-2.14.14c-.88.77-.93,1.75-.63,2a4.85,4.85,0,0,0,.56.23c.36.13.59-.82.61-.83Z" transform="translate(0 0)"></path>
        <path class="cls-13" d="M12.92,44s-.93-1.25-1.47-1-1.15.4-1.15.4l0,.32s.92.68,1.17.66.68-.1.79-.1a5.43,5.43,0,0,0,.7-.25" transform="translate(0 0)"></path>
        <path class="cls-14" d="M13,44.21c0-.13-.07-.49-.44-.44a5.22,5.22,0,0,0-.74.16s-.55,1-.68,1.17-.23.21.31.14.6,0,1-.2a1.4,1.4,0,0,0,.54-.83" transform="translate(0 0)"></path>
        <path class="cls-15" d="M11.78,43.92a7.67,7.67,0,0,0-.35.87c-.11.4-.12.51-.48.49s-1.17.22-1.49,0-.31-.18-.22-.63a1.65,1.65,0,0,1,.72-1A.91.91,0,0,1,11,43.4a2.36,2.36,0,0,1,.76.52" transform="translate(0 0)"></path>
        <path class="cls-12" d="M16.2,43.29a1.82,1.82,0,0,0-1.86,0c-.81.62-.91,1.47-.66,1.67a3.25,3.25,0,0,0,.46.23c.31.14.56-.67.58-.68Z" transform="translate(0 0)"></path>
        <path class="cls-13" d="M17.08,44.22s-.74-1.14-1.22-1a9.46,9.46,0,0,1-1,.27l-.05.28s.76.64,1,.64.6,0,.69,0a4.25,4.25,0,0,0,.63-.17" transform="translate(0 0)"></path>
        <path class="cls-14" d="M17.1,44.39c0-.12,0-.44-.36-.42a4.08,4.08,0,0,0-.65.1s-.54.83-.66,1-.21.17.27.14.51.09.88-.1a1.25,1.25,0,0,0,.52-.69" transform="translate(0 0)"></path>
        <path class="cls-15" d="M16.09,44.07a5,5,0,0,0-.35.73c-.13.34-.14.43-.45.39s-1,.12-1.3-.08-.25-.17-.15-.56a1.48,1.48,0,0,1,.68-.86.83.83,0,0,1,.94-.13,2.14,2.14,0,0,1,.63.51" transform="translate(0 0)"></path>
        <path class="cls-12" d="M19,42.18a2,2,0,0,0-2-.26c-.94.54-1.16,1.44-.92,1.69a3.06,3.06,0,0,0,.46.3c.31.19.69-.64.71-.65Z" transform="translate(0 0)"></path>
        <path class="cls-13" d="M19.81,43.28s-.63-1.31-1.16-1.21a11,11,0,0,1-1.13.16l-.09.28s.72.79.95.82.64,0,.74.05a4.92,4.92,0,0,0,.69-.1" transform="translate(0 0)"></path>
        <path class="cls-14" d="M19.81,43.46c0-.13,0-.46-.33-.49a4.88,4.88,0,0,0-.71,0s-.68.81-.82.95-.26.15.26.18.53.16.95,0a1.36,1.36,0,0,0,.65-.67" transform="translate(0 0)"></path>
        <path class="cls-15" d="M18.77,43a6.85,6.85,0,0,0-.47.73c-.17.34-.2.44-.53.36s-1.11,0-1.37-.26-.25-.22-.08-.62a1.54,1.54,0,0,1,.84-.82.88.88,0,0,1,1,0,2.23,2.23,0,0,1,.59.62" transform="translate(0 0)"></path>
        <path class="cls-12" d="M19.81,45.55a.63.63,0,0,0,.58-.29c.15-.31.05-.59-.06-.62h-.18c-.11,0-.07.29-.07.3Z" transform="translate(0 0)"></path>
        <path class="cls-13" d="M19.4,45.4s.4.23.52.11a3.07,3.07,0,0,1,.28-.24l0-.09-.4,0-.21.12Z" transform="translate(0 0)"></path>
        <path class="cls-14" d="M19.36,45.35s.08.13.18.07l.19-.13.05-.4c0-.06,0-.09-.11,0s-.17.06-.25.17a.44.44,0,0,0-.06.3" transform="translate(0 0)"></path>
        <path class="cls-15" d="M19.73,45.29a1.5,1.5,0,0,0,0-.28c0-.13,0-.16.08-.19s.3-.2.41-.18.11,0,.13.15a.5.5,0,0,1-.07.37.3.3,0,0,1-.27.19.65.65,0,0,1-.27-.06" transform="translate(0 0)"></path>
        <path class="cls-12" d="M9.89,45.77a.82.82,0,0,0,.76-.31c.22-.39.12-.75,0-.79l-.22,0c-.15,0-.12.37-.12.38Z" transform="translate(0 0)"></path>
        <path class="cls-13" d="M9.38,45.54s.49.34.65.2a4.14,4.14,0,0,1,.38-.29l0-.12a1.57,1.57,0,0,0-.5-.1l-.28.14Z" transform="translate(0 0)"></path>
        <path class="cls-14" d="M9.34,45.48s.08.17.21.1a2.11,2.11,0,0,0,.25-.14s.08-.43.1-.51.06-.11-.13,0-.22,0-.34.19a.54.54,0,0,0-.09.37" transform="translate(0 0)"></path>
        <path class="cls-15" d="M9.8,45.44a2.05,2.05,0,0,0,0-.36c0-.16,0-.2.12-.24s.4-.22.54-.18.13,0,.16.2a.64.64,0,0,1-.14.46.36.36,0,0,1-.36.22.91.91,0,0,1-.34-.1" transform="translate(0 0)"></path>
        <path class="cls-12" d="M13.38,43.78a.47.47,0,0,0,.47.08c.23-.12.29-.33.23-.39l-.1-.08c-.07,0-.17.15-.18.15Z" transform="translate(0 0)"></path>
        <path class="cls-13" d="M13.2,43.51s.13.32.26.3l.27,0,0-.06-.21-.21-.18,0Z" transform="translate(0 0)"></path>
        <path class="cls-14" d="M13.2,43.47s0,.11.07.11h.17l.21-.22s.06,0-.06,0-.13,0-.23,0a.31.31,0,0,0-.16.16" transform="translate(0 0)"></path>
        <path class="cls-15" d="M13.44,43.59l.12-.17c0-.08,0-.1.13-.08s.26,0,.32.08.06,0,0,.14a.36.36,0,0,1-.21.19.21.21,0,0,1-.25,0,.46.46,0,0,1-.13-.15" transform="translate(0 0)"></path>
        <path class="cls-12" d="M17.62,45.57A1.81,1.81,0,0,0,19.4,45c.59-.81.44-1.65.14-1.77a2.61,2.61,0,0,0-.5-.08c-.34,0-.35.79-.36.81Z" transform="translate(0 0)"></path>
        <path class="cls-13" d="M16.52,44.94s1,.88,1.44.59a10,10,0,0,1,.89-.56l0-.27a3.75,3.75,0,0,0-1.11-.34c-.2.07-.55.22-.64.24a4.56,4.56,0,0,0-.55.34" transform="translate(0 0)"></path>
        <path class="cls-14" d="M16.45,44.79c0,.11.15.4.46.29a4,4,0,0,0,.6-.28s.27-.95.34-1.11.16-.23-.29-.06-.51.06-.81.35a1.29,1.29,0,0,0-.3.81" transform="translate(0 0)"></path>
        <path class="cls-15" d="M17.51,44.8a5.78,5.78,0,0,0,.12-.8c0-.35,0-.45.31-.5s.94-.4,1.26-.29.29.08.3.49a1.42,1.42,0,0,1-.4,1,.81.81,0,0,1-.86.39,2,2,0,0,1-.73-.3" transform="translate(0 0)"></path>
        <path class="cls-12" d="M12.16,44.89a1.21,1.21,0,0,0,1.24,0c.53-.42.59-1,.42-1.12a1.67,1.67,0,0,0-.32-.14c-.2-.09-.36.45-.37.46Z" transform="translate(0 0)"></path>
        <path class="cls-13" d="M11.57,44.28s.5.75.82.64.67-.2.67-.2l0-.18s-.51-.42-.65-.41l-.46,0Z" transform="translate(0 0)"></path>
        <path class="cls-14" d="M11.55,44.17c0,.08,0,.29.24.27a2.32,2.32,0,0,0,.44-.07s.34-.56.42-.66.14-.11-.18-.09-.34,0-.58.09a.81.81,0,0,0-.34.46" transform="translate(0 0)"></path>
        <path class="cls-15" d="M12.23,44.37a4,4,0,0,0,.22-.49c.08-.23.08-.29.29-.27s.68-.09.87,0,.17.11.1.37a1,1,0,0,1-.44.58.55.55,0,0,1-.62.1,1.31,1.31,0,0,1-.42-.33" transform="translate(0 0)"></path>
      </g>
    </g>
  </g>
</svg>
