<?xml version="1.0" encoding="UTF-8"?>
<svg xmlns="http://www.w3.org/2000/svg" viewBox="0 0 32.72 74.79">
  <defs>
    <style>.cls-1{fill:#a0cae7;}.cls-2{fill:#d0e6f5;}.cls-3{fill:#b8d8ee;}.cls-4{fill:#85563a;}.cls-5{fill:#8e6848;}.cls-6{fill:#713e21;}.cls-7{fill:#9b714f;}.cls-8{fill:#3d271f;}.cls-9{fill:#69391e;}.cls-10{fill:#6b482f;}.cls-11{fill:#5c3624;}.cls-12{fill:#795135;}.cls-13{fill:#9a734f;}</style>
  </defs>
  <g id="Слой_2" data-name="Слой 2">
    <g id="Слой_1-2" data-name="Слой 1">
      <path class="cls-1" d="M10.53,14s-3.34,3.38-1.7,5.2S12.94,19.37,12,17A10.81,10.81,0,0,0,10.53,14Z"></path>
      <path class="cls-2" d="M9.43,17.18c.11-.35.37-1.14.48-1.43a7.43,7.43,0,0,1,.45-.93s.32-.62-.49.26-1.32,2.5-1.07,2.59S9.31,17.52,9.43,17.18Z"></path>
      <path class="cls-3" d="M11.29,18.35c-.09.33,0,.63.11.68a.62.62,0,0,0,.61-.45.64.64,0,0,0-.26-.75C11.59,17.8,11.39,18,11.29,18.35Z"></path>
      <path class="cls-1" d="M16.1,14s-3.34,3.38-1.7,5.2,4.11.16,3.2-2.25A11,11,0,0,0,16.1,14Z"></path>
      <path class="cls-2" d="M15,17.18c.11-.35.37-1.14.48-1.43a7.43,7.43,0,0,1,.45-.93s.32-.62-.49.26-1.32,2.5-1.07,2.59S14.89,17.52,15,17.18Z"></path>
      <path class="cls-3" d="M16.87,18.35c-.1.33-.06.63.1.68a.65.65,0,0,0,.35-1.2C17.17,17.8,17,18,16.87,18.35Z"></path>
      <path class="cls-1" d="M21.67,14s-3.34,3.38-1.7,5.2,4.11.16,3.2-2.25A11,11,0,0,0,21.67,14Z"></path>
      <path class="cls-2" d="M20.57,17.18l.48-1.43a7.43,7.43,0,0,1,.45-.93s.32-.62-.49.26-1.32,2.5-1.07,2.59S20.46,17.52,20.57,17.18Z"></path>
      <path class="cls-3" d="M22.44,18.35c-.1.33-.06.63.1.68a.62.62,0,0,0,.61-.45.63.63,0,0,0-.26-.75C22.74,17.8,22.53,18,22.44,18.35Z"></path>
      <path class="cls-1" d="M14,6.61S10.61,10,12.24,11.8s4.12.16,3.2-2.25A10.82,10.82,0,0,0,14,6.61Z"></path>
      <path class="cls-2" d="M12.85,9.78c.11-.35.37-1.15.47-1.44a8.56,8.56,0,0,1,.46-.93s.32-.61-.5.27-1.31,2.5-1.07,2.59S12.73,10.12,12.85,9.78Z"></path>
      <path class="cls-3" d="M14.71,10.94c-.1.33-.05.64.11.68a.59.59,0,0,0,.6-.45c.1-.39-.1-.71-.25-.74S14.81,10.61,14.71,10.94Z"></path>
      <path class="cls-1" d="M19.52,6.61S16.18,10,17.81,11.8,21.93,12,21,9.55A10.82,10.82,0,0,0,19.52,6.61Z"></path>
      <path class="cls-2" d="M18.42,9.78c.11-.35.37-1.15.47-1.44a8.56,8.56,0,0,1,.46-.93s.32-.61-.5.27-1.31,2.5-1.07,2.59S18.3,10.12,18.42,9.78Z"></path>
      <path class="cls-3" d="M20.28,10.94c-.1.33-.05.64.11.68a.59.59,0,0,0,.6-.45c.1-.39-.09-.71-.25-.74S20.38,10.61,20.28,10.94Z"></path>
      <path class="cls-1" d="M17,0s-3.34,3.38-1.71,5.2,4.12.16,3.2-2.26A10.82,10.82,0,0,0,17,0Z"></path>
      <path class="cls-2" d="M15.92,3.17c.12-.35.38-1.15.48-1.43A7.1,7.1,0,0,1,16.85.8s.32-.61-.49.27S15,3.57,15.29,3.66,15.81,3.51,15.92,3.17Z"></path>
      <path class="cls-3" d="M17.79,4.33c-.1.33-.05.64.1.69a.61.61,0,0,0,.61-.46c.1-.39-.1-.71-.25-.74S17.89,4,17.79,4.33Z"></path>
      <polygon class="cls-4" points="2.29 67.8 17.14 74.79 30.88 67.83 16.6 61.78 2.29 67.8"></polygon>
      <polygon class="cls-4" points="0 47.97 17.14 55.13 32.72 48.52 17.14 43.03 0 47.97"></polygon>
      <path class="cls-5" d="M17.14,55.13v9s4.74-3.5,6.66-3.67,5.68,7.2,7.08,7.37l1.84-19.31Z"></path>
      <path class="cls-6" d="M1.25,58.71l1,9.09,14.85,7V64.13s-8.2-3.5-9.07-4.72S1.25,58.71,1.25,58.71Z"></path>
      <path class="cls-7" d="M0,48,1.25,58.71s1.6.13,3.33.17c2.15.06,4.19,1.46,5.82,3.09,1.9,1.9,6.74,2.16,6.74,2.16v-9Z"></path>
      <path class="cls-8" d="M11.42,65.27a.63.63,0,0,0,0-.27h0s-.11-.3-.37-.31-.43.15-.41.24a.66.66,0,0,0,.06.12h0c.06.07.18.14.23.19l0,0,0,0c.1.07.09.1.2.13a.33.33,0,0,0,.22-.06s0,0,0,0h0A.06.06,0,0,0,11.42,65.27Z"></path>
      <path class="cls-8" d="M5,64a1.23,1.23,0,0,0-.45.24h0a.91.91,0,0,0-.27.88c.17.47.56.64.69.55a1.73,1.73,0,0,0,.18-.19h0A5.31,5.31,0,0,0,5.27,65a.92.92,0,0,0,0-.09.58.58,0,0,1,0-.1c.06-.23.12-.23.08-.43A.63.63,0,0,0,5.15,64H5.06A.15.15,0,0,0,5,64Z"></path>
      <path class="cls-8" d="M15.41,70.07a3.32,3.32,0,0,0-.56-1.13h0a2.27,2.27,0,0,0-2.19-.77c-1.2.38-1.66,1.34-1.45,1.68a3.76,3.76,0,0,0,.45.46s0,0,0,0a10,10,0,0,0,1.3.48.79.79,0,0,0,.23.08l.25.07c.57.17.56.31,1.08.24a1.53,1.53,0,0,0,.89-.6.85.85,0,0,0,0-.2h0v0A.4.4,0,0,0,15.41,70.07Z"></path>
      <path class="cls-8" d="M7.65,66.13a2.42,2.42,0,0,0-.55.8h0a1.74,1.74,0,0,0,.29,1.75c.7.66,1.52.62,1.67.36a4.21,4.21,0,0,0,.14-.48s0,0,0,0a8.68,8.68,0,0,0-.16-1,.75.75,0,0,0,0-.19,1.37,1.37,0,0,0-.05-.19c-.1-.45,0-.49-.24-.81A1.11,1.11,0,0,0,8,65.91a.53.53,0,0,0-.15,0h0A.28.28,0,0,0,7.65,66.13Z"></path>
      <path class="cls-9" d="M17.14,64.13s3.34-4.72,7.19-4.84S32,56.38,32,56.38L30.88,67.83l-13.74,7Z"></path>
      <path class="cls-8" d="M22,65.92a3.29,3.29,0,0,0-1.19.4h0a2.24,2.24,0,0,0-1.06,2c.21,1.23,1.08,1.82,1.45,1.67.1-.05.35-.26.51-.38s0,0,0,0a11.29,11.29,0,0,0,.65-1.21.86.86,0,0,0,.11-.21l.11-.24c.24-.54.38-.51.38-1a1.51,1.51,0,0,0-.45-1l-.2-.06h0A.38.38,0,0,0,22,65.92Z"></path>
      <path class="cls-8" d="M28.35,65.55a1.18,1.18,0,0,0-.37-.09h0a.7.7,0,0,0-.61.35c-.14.35,0,.65.11.67l.19,0h0a3.87,3.87,0,0,0,.36-.2l.07,0,.06,0c.15-.1.18-.07.27-.21a.47.47,0,0,0,0-.32s0,0,0,0h0A.12.12,0,0,0,28.35,65.55Z"></path>
      <path class="cls-8" d="M27.21,62.24a2.51,2.51,0,0,0-.84-.49h0a1.77,1.77,0,0,0-1.74.42c-.61.76-.5,1.57-.23,1.71.08,0,.33.07.49.1l0,0a8.51,8.51,0,0,0,1-.23.56.56,0,0,0,.18,0l.19-.05c.44-.14.5,0,.8-.31a1.18,1.18,0,0,0,.32-.75.58.58,0,0,0-.06-.15h0l0,0A.36.36,0,0,0,27.21,62.24Z"></path>
      <path class="cls-10" d="M16.1,50.9a.46.46,0,0,0-.45-.16c-.26.07-.36.27-.31.35l.09.09c.06.06.2-.11.2-.11Z"></path>
      <path class="cls-11" d="M16.23,51.21s-.08-.35-.21-.35l-.27,0,0,.06s.13.22.18.24l.17,0Z"></path>
      <path class="cls-12" d="M16.22,51.25s0-.11,0-.13a.81.81,0,0,0-.17,0s-.2.16-.24.18-.07,0,.05.06.12.07.23,0A.31.31,0,0,0,16.22,51.25Z"></path>
      <path class="cls-13" d="M16,51.08l-.15.15c-.06.07-.07.09-.14.06s-.26-.07-.31-.14-.05-.06,0-.15.13-.11.25-.15a.23.23,0,0,1,.24,0A.56.56,0,0,1,16,51.08Z"></path>
      <path class="cls-10" d="M15.07,45.07a.72.72,0,0,0-.71-.11c-.34.19-.42.51-.34.6l.17.11c.11.07.25-.22.25-.23Z"></path>
      <path class="cls-11" d="M15.35,45.46s-.22-.47-.41-.43l-.4,0,0,.1s.25.28.33.29l.26,0A1.42,1.42,0,0,0,15.35,45.46Z"></path>
      <path class="cls-12" d="M15.35,45.53c0-.05,0-.17-.12-.18H15l-.3.34s-.09.05.09.06.19.06.34,0A.45.45,0,0,0,15.35,45.53Z"></path>
      <path class="cls-13" d="M15,45.35a1.87,1.87,0,0,0-.17.26c-.06.12-.07.16-.19.13s-.39,0-.48-.1-.09-.08,0-.22.14-.2.3-.29a.3.3,0,0,1,.36,0A.75.75,0,0,1,15,45.35Z"></path>
      <path class="cls-10" d="M13.67,47.21a2.41,2.41,0,0,0-2.47.16c-1,.88-1.07,2-.72,2.27a5.06,5.06,0,0,0,.64.25c.42.16.68-.94.7-1S13.67,47.21,13.67,47.21Z"></path>
      <path class="cls-11" d="M14.91,48.35s-1.08-1.44-1.69-1.19a13.38,13.38,0,0,1-1.33.46l-.05.37s1.07.79,1.35.76.78-.11.91-.11A7.87,7.87,0,0,0,14.91,48.35Z"></path>
      <path class="cls-12" d="M15,48.57c0-.16-.07-.57-.51-.51a5.41,5.41,0,0,0-.85.18s-.64,1.16-.78,1.35-.27.25.36.16.68.07,1.16-.22A1.63,1.63,0,0,0,15,48.57Z"></path>
      <path class="cls-13" d="M13.59,48.24a7.46,7.46,0,0,0-.4,1c-.13.46-.14.59-.55.57s-1.35.24-1.73,0-.35-.21-.25-.74a2,2,0,0,1,.83-1.19,1.09,1.09,0,0,1,1.23-.26A2.91,2.91,0,0,1,13.59,48.24Z"></path>
      <path class="cls-10" d="M18.7,47.51a2.11,2.11,0,0,0-2.16,0c-.93.71-1,1.69-.76,1.93a5.63,5.63,0,0,0,.54.26c.35.16.65-.77.67-.79S18.7,47.51,18.7,47.51Z"></path>
      <path class="cls-11" d="M19.7,48.58s-.85-1.32-1.39-1.13-1.19.31-1.19.31l-.06.32s.88.75,1.12.74.69,0,.8,0A6.26,6.26,0,0,0,19.7,48.58Z"></path>
      <path class="cls-12" d="M19.73,48.78c0-.14,0-.51-.41-.48a5.69,5.69,0,0,0-.76.1s-.62,1-.75,1.13-.25.2.3.16.59.1,1-.12A1.45,1.45,0,0,0,19.73,48.78Z"></path>
      <path class="cls-13" d="M18.56,48.4a6.67,6.67,0,0,0-.4.85c-.14.39-.16.5-.52.46s-1.18.13-1.49-.1-.3-.2-.18-.65a1.67,1.67,0,0,1,.79-1,1,1,0,0,1,1.08-.15A2.4,2.4,0,0,1,18.56,48.4Z"></path>
      <path class="cls-10" d="M21.92,46.22a2.26,2.26,0,0,0-2.29-.29c-1.09.62-1.34,1.66-1.07,2a4.33,4.33,0,0,0,.54.34c.36.22.79-.73.82-.74Z"></path>
      <path class="cls-11" d="M22.86,47.5s-.73-1.52-1.34-1.4-1.31.18-1.31.18l-.1.33s.83.91,1.09.94.74,0,.86.06A6.19,6.19,0,0,0,22.86,47.5Z"></path>
      <path class="cls-12" d="M22.85,47.71c0-.15,0-.54-.37-.57a6.44,6.44,0,0,0-.82,0s-.79.94-.95,1.1-.3.17.3.21.61.18,1.1,0A1.49,1.49,0,0,0,22.85,47.71Z"></path>
      <path class="cls-13" d="M21.66,47.16a7,7,0,0,0-.54.84c-.21.4-.23.52-.61.42s-1.28,0-1.58-.3-.29-.25-.1-.72a1.79,1.79,0,0,1,1-.94,1,1,0,0,1,1.18,0A2.55,2.55,0,0,1,21.66,47.16Z"></path>
      <path class="cls-10" d="M22.86,50.11a.7.7,0,0,0,.66-.33c.18-.36.07-.68-.06-.71h-.2c-.14,0-.08.34-.09.35S22.86,50.11,22.86,50.11Z"></path>
      <path class="cls-11" d="M22.38,49.94s.47.27.61.13.31-.28.31-.28l0-.11a1.46,1.46,0,0,0-.46,0,2,2,0,0,1-.24.13Z"></path>
      <path class="cls-12" d="M22.34,49.88s.09.15.2.09a2.05,2.05,0,0,0,.22-.15s0-.4.06-.47.05-.1-.12,0-.2.06-.29.19A.53.53,0,0,0,22.34,49.88Z"></path>
      <path class="cls-13" d="M22.76,49.82a3.26,3.26,0,0,0,0-.33c0-.14,0-.18.08-.22s.35-.22.48-.2.12,0,.16.17a.59.59,0,0,1-.1.43.3.3,0,0,1-.31.21A.88.88,0,0,1,22.76,49.82Z"></path>
      <path class="cls-10" d="M11.41,50.37a.92.92,0,0,0,.88-.36c.26-.45.14-.87,0-.91a1,1,0,0,0-.26,0c-.17,0-.13.43-.14.44Z"></path>
      <path class="cls-11" d="M10.82,50.11s.57.39.76.22A4.48,4.48,0,0,1,12,50l0-.14a2.06,2.06,0,0,0-.58-.11l-.32.15A2.32,2.32,0,0,0,10.82,50.11Z"></path>
      <path class="cls-12" d="M10.78,50c0,.06.09.2.24.13l.29-.17s.09-.5.12-.59.07-.12-.15,0-.26.06-.4.23A.64.64,0,0,0,10.78,50Z"></path>
      <path class="cls-13" d="M11.31,50a2.86,2.86,0,0,0,0-.42c0-.18,0-.23.14-.27s.46-.26.62-.22.15,0,.18.24a.71.71,0,0,1-.15.53.42.42,0,0,1-.42.25A1.09,1.09,0,0,1,11.31,50Z"></path>
      <path class="cls-10" d="M15.44,48.07a.52.52,0,0,0,.54.1c.26-.14.33-.38.27-.46l-.12-.08c-.09-.06-.2.16-.2.16Z"></path>
      <path class="cls-11" d="M15.23,47.76s.15.37.3.35a1.82,1.82,0,0,1,.31,0l0-.08s-.19-.23-.25-.24l-.2,0Z"></path>
      <path class="cls-12" d="M15.23,47.71s0,.13.08.14h.2s.19-.21.24-.25.07,0-.07-.05-.15,0-.27,0A.32.32,0,0,0,15.23,47.71Z"></path>
      <path class="cls-13" d="M15.51,47.85l.14-.19c0-.09.06-.12.14-.1s.31,0,.38.09.06.06,0,.17a.44.44,0,0,1-.24.22.26.26,0,0,1-.28,0A.58.58,0,0,1,15.51,47.85Z"></path>
      <path class="cls-10" d="M20.33,50.14a2.09,2.09,0,0,0,2.05-.61c.69-.94.51-1.91.17-2.05a3.36,3.36,0,0,0-.59-.09c-.38,0-.39.92-.41.94Z"></path>
      <path class="cls-11" d="M19.06,49.41s1.19,1,1.66.68,1-.64,1-.64l0-.32a4.16,4.16,0,0,0-1.28-.38c-.23.07-.64.24-.74.27A4.62,4.62,0,0,0,19.06,49.41Z"></path>
      <path class="cls-12" d="M19,49.24c0,.13.17.46.52.33a5,5,0,0,0,.69-.32s.31-1.09.39-1.29.19-.25-.33-.06-.59.07-.94.41A1.45,1.45,0,0,0,19,49.24Z"></path>
      <path class="cls-13" d="M20.2,49.25a6.15,6.15,0,0,0,.14-.92c0-.41,0-.52.36-.58s1.09-.47,1.45-.34.34.1.35.57A1.63,1.63,0,0,1,22,49.14a.94.94,0,0,1-1,.46A2.41,2.41,0,0,1,20.2,49.25Z"></path>
      <path class="cls-10" d="M14,49.35a1.4,1.4,0,0,0,1.43,0c.62-.48.68-1.14.48-1.29a2.5,2.5,0,0,0-.36-.17c-.24-.1-.42.53-.43.53Z"></path>
      <path class="cls-11" d="M13.35,48.65s.58.87.94.74.78-.23.78-.23l0-.21s-.59-.48-.75-.48-.46.05-.53,0A4.21,4.21,0,0,0,13.35,48.65Z"></path>
      <path class="cls-12" d="M13.33,48.53c0,.09,0,.33.28.31a3.74,3.74,0,0,0,.5-.08s.4-.65.49-.76.16-.13-.21-.11-.39,0-.67.1A.93.93,0,0,0,13.33,48.53Z"></path>
      <path class="cls-13" d="M14.11,48.76a4.49,4.49,0,0,0,.26-.57c.09-.26.09-.33.33-.31s.79-.1,1,0,.2.13.12.43a1.1,1.1,0,0,1-.51.67.62.62,0,0,1-.72.11A1.49,1.49,0,0,1,14.11,48.76Z"></path>
    </g>
  </g>
</svg>
