<?xml version="1.0" encoding="UTF-8"?>
<svg xmlns="http://www.w3.org/2000/svg" xmlns:xlink="http://www.w3.org/1999/xlink" viewBox="0 0 32.3 51.31">
  <defs>
    <style>.cls-1{fill:#8e6848;}.cls-2{fill:url(#Безымянный_градиент_7);}.cls-3{fill:#713e21;}.cls-4{fill:#3d271f;}.cls-5{fill:#69391e;}.cls-6{fill:#6b482f;}.cls-7{fill:#5c3624;}.cls-8{fill:#795135;}.cls-9{fill:#9a734f;}.cls-10{fill:#a5a5a5;}.cls-11{fill:#e7e6e3;}.cls-12{fill:#85563a;}.cls-13{fill:none;stroke:#8cb132;stroke-linecap:round;stroke-linejoin:round;stroke-width:0.3px;}.cls-14{fill:#8cb132;}.cls-15{fill:#7a9635;}</style>
    <linearGradient id="Безымянный_градиент_7" x1="15.4" y1="62.54" x2="16.92" y2="34.36" gradientUnits="userSpaceOnUse">
      <stop offset="0.38" stop-color="#9b714f"></stop>
      <stop offset="0.91" stop-color="#754427"></stop>
      <stop offset="1" stop-color="#6e3c20"></stop>
    </linearGradient>
  </defs>
  <g id="Слой_2" data-name="Слой 2">
    <g id="Слой_1-2" data-name="Слой 1">
      <path class="cls-1" d="M16.92,31.9s2.83,3.32,5,3.45,9.62-2.22,9.62-2.22l.75-7.75L16.92,20Z"></path>
      <path class="cls-1" d="M0,24.83,1.53,34.94s5.45.82,6.41.55,5.31-1.91,6.54-1.91,2.44-1.68,2.44-1.68V20Z"></path>
      <polygon class="cls-2" points="2.27 44.41 16.92 51.31 30.48 44.44 16.39 38.47 2.27 44.41"></polygon>
      <path class="cls-3" d="M2.27,44.41l-.74-9.47s7-.13,8.86-1.09a40.36,40.36,0,0,1,6.53-2l-.53,6.57Z"></path>
      <path class="cls-4" d="M12.17,35.53a2.37,2.37,0,0,0-.83-.49h0a1.7,1.7,0,0,0-1.71.41C9,36.2,9.13,37,9.4,37.13a2.35,2.35,0,0,0,.48.1s0,0,0,0a8.33,8.33,0,0,0,1-.23.49.49,0,0,0,.17-.05l.19,0c.44-.14.49,0,.79-.3a1.18,1.18,0,0,0,.32-.75.77.77,0,0,0-.06-.15h0A.28.28,0,0,0,12.17,35.53Z"></path>
      <path class="cls-4" d="M6.22,36.51A3.1,3.1,0,0,0,5,36.9H5a2.21,2.21,0,0,0-1,2c.2,1.21,1.07,1.79,1.43,1.64a3.67,3.67,0,0,0,.5-.38s0,0,0,0a9.48,9.48,0,0,0,.65-1.19.49.49,0,0,0,.1-.21l.11-.23c.24-.53.38-.5.38-1a1.51,1.51,0,0,0-.45-.94l-.19-.07h0A.37.37,0,0,0,6.22,36.51Z"></path>
      <path class="cls-5" d="M16.92,31.9l-.53,6.57,14.09,6,1.07-11.31a37.1,37.1,0,0,0-6.3-.23C23.34,33.17,20,34,19,33.44A13,13,0,0,1,16.92,31.9Z"></path>
      <path class="cls-4" d="M11.55,38.65a.87.87,0,0,0-.36-.09h0s-.46,0-.6.34,0,.64.1.66l.19,0h0a3.82,3.82,0,0,0,.36-.21l.06,0,.07,0c.15-.09.18-.06.26-.2a.41.41,0,0,0,0-.31l0-.05h0A.1.1,0,0,0,11.55,38.65Z"></path>
      <path class="cls-4" d="M25.37,35.82a.59.59,0,0,0,0-.26h0a.49.49,0,0,0-.38-.3c-.26,0-.42.15-.4.23l.06.12h0a1.86,1.86,0,0,0,.22.19l0,0,0,0c.1.07.09.1.19.12a.33.33,0,0,0,.22-.06s0,0,0,0h0A.07.07,0,0,0,25.37,35.82Z"></path>
      <path class="cls-4" d="M29.3,40.57a3.16,3.16,0,0,0-.55-1.12h0a2.21,2.21,0,0,0-2.15-.76c-1.19.38-1.64,1.33-1.44,1.66a6.29,6.29,0,0,0,.45.45s0,0,0,0a9.85,9.85,0,0,0,1.28.48.53.53,0,0,0,.23.07l.25.08c.56.16.55.3,1.06.23a1.53,1.53,0,0,0,.88-.59,1.73,1.73,0,0,0,0-.2h0v0A.37.37,0,0,0,29.3,40.57Z"></path>
      <path class="cls-4" d="M21.64,36.67a2.46,2.46,0,0,0-.54.79h0a1.72,1.72,0,0,0,.28,1.73c.7.65,1.5.61,1.65.34a3.27,3.27,0,0,0,.14-.46v0A9.15,9.15,0,0,0,23,38a.45.45,0,0,0,0-.18l0-.19c-.1-.44,0-.48-.24-.8a1.11,1.11,0,0,0-.71-.37.33.33,0,0,0-.15,0h0A.31.31,0,0,0,21.64,36.67Z"></path>
      <path class="cls-6" d="M21.7,44.7a.45.45,0,0,0,.46-.12c.15-.2.12-.42.05-.45l-.13,0c-.09,0-.1.21-.1.21S21.7,44.7,21.7,44.7Z"></path>
      <path class="cls-7" d="M21.42,44.53s.26.24.36.17l.24-.14v-.07s-.23-.11-.28-.09l-.17.05Z"></path>
      <path class="cls-8" d="M21.4,44.49s0,.11.12.08a.67.67,0,0,0,.15-.06l.1-.29s0,0-.07,0-.14,0-.21.08A.33.33,0,0,0,21.4,44.49Z"></path>
      <path class="cls-9" d="M21.67,44.51a2,2,0,0,0,0-.21c0-.09,0-.11.08-.12s.25-.1.33-.07.07,0,.07.13a.34.34,0,0,1-.11.25.2.2,0,0,1-.22.1A.6.6,0,0,1,21.67,44.51Z"></path>
      <path class="cls-6" d="M18.56,42.91a1.06,1.06,0,0,0,1-.49c.25-.53.08-1-.1-1s-.2,0-.3,0-.11.49-.11.5Z"></path>
      <path class="cls-7" d="M17.87,42.66s.68.39.88.19a5.26,5.26,0,0,1,.45-.41l-.05-.16a2,2,0,0,0-.66-.07l-.34.2A2.53,2.53,0,0,0,17.87,42.66Z"></path>
      <path class="cls-8" d="M17.82,42.59a.2.2,0,0,0,.29.11,2.19,2.19,0,0,0,.31-.22s0-.57.07-.67.07-.14-.17,0-.28.09-.42.29A.71.71,0,0,0,17.82,42.59Z"></path>
      <path class="cls-9" d="M18.42,42.48a3,3,0,0,0,0-.46c0-.21,0-.26.12-.32s.5-.33.69-.3.17,0,.22.24a.84.84,0,0,1-.12.62.45.45,0,0,1-.44.31A1.09,1.09,0,0,1,18.42,42.48Z"></path>
      <path class="cls-6" d="M15.64,45.19a1,1,0,0,0,1,.12c.49-.29.6-.76.47-.88a1.41,1.41,0,0,0-.24-.16c-.16-.1-.36.34-.37.34Z"></path>
      <path class="cls-7" d="M15.21,44.61s.34.69.62.63a5.62,5.62,0,0,1,.58-.09l.05-.15s-.38-.41-.5-.42l-.38,0A2.56,2.56,0,0,0,15.21,44.61Z"></path>
      <path class="cls-8" d="M15.21,44.52c0,.07,0,.24.18.25a2.67,2.67,0,0,0,.37,0s.35-.43.42-.5.14-.08-.13-.09-.28-.08-.5,0A.72.72,0,0,0,15.21,44.52Z"></path>
      <path class="cls-9" d="M15.76,44.76a3,3,0,0,0,.24-.38c.09-.18.1-.23.27-.19s.58,0,.72.13.13.11.05.32a.84.84,0,0,1-.44.43.43.43,0,0,1-.53,0A1.17,1.17,0,0,1,15.76,44.76Z"></path>
      <path class="cls-6" d="M14.38,43.3a.79.79,0,0,0,0-.8c-.25-.36-.62-.41-.71-.31l-.1.2c-.06.13.28.25.28.26Z"></path>
      <path class="cls-7" d="M14,43.66s.5-.3.44-.51a4.21,4.21,0,0,1-.1-.44l-.12,0s-.29.32-.29.41,0,.26,0,.3A1.37,1.37,0,0,0,14,43.66Z"></path>
      <path class="cls-8" d="M13.9,43.67s.19,0,.18-.15a1.53,1.53,0,0,0,0-.28s-.35-.24-.41-.3-.07-.09-.06.12,0,.21,0,.38A.56.56,0,0,0,13.9,43.67Z"></path>
      <path class="cls-9" d="M14.05,43.24a1.85,1.85,0,0,0-.31-.16c-.14-.06-.18-.06-.16-.2s0-.44.05-.55.08-.11.24-.06a.65.65,0,0,1,.36.3.36.36,0,0,1,0,.41A.9.9,0,0,1,14.05,43.24Z"></path>
      <path class="cls-6" d="M11.9,43.89a.34.34,0,0,0,.11-.33c-.06-.18-.2-.25-.25-.22l-.07.07c0,.05.08.14.08.14S11.9,43.89,11.9,43.89Z"></path>
      <path class="cls-7" d="M11.68,44s.25-.07.25-.16,0-.2,0-.2l0,0a.78.78,0,0,0-.18.13.68.68,0,0,1,0,.12A.66.66,0,0,0,11.68,44Z"></path>
      <path class="cls-8" d="M11.65,44a.06.06,0,0,0,.09,0,.9.9,0,0,0,0-.12,1.47,1.47,0,0,1-.13-.17s0,0,0,0,0,.09,0,.17A.25.25,0,0,0,11.65,44Z"></path>
      <path class="cls-9" d="M11.77,43.82l-.11-.11c-.05,0-.07,0,0-.1s0-.18.09-.22,0,0,.11,0a.27.27,0,0,1,.11.17.14.14,0,0,1,0,.17A.33.33,0,0,1,11.77,43.82Z"></path>
      <path class="cls-6" d="M11.14,45.26a1.35,1.35,0,0,0,0-1.39c-.44-.61-1.07-.7-1.22-.52a1.74,1.74,0,0,0-.18.34c-.11.23.49.43.5.45Z"></path>
      <path class="cls-7" d="M10.43,45.89s.86-.53.75-.88a7.24,7.24,0,0,1-.18-.77l-.2,0s-.5.55-.5.71,0,.44,0,.51A3,3,0,0,0,10.43,45.89Z"></path>
      <path class="cls-8" d="M10.31,45.9c.09,0,.32,0,.31-.25a3.41,3.41,0,0,0-.06-.49s-.61-.42-.71-.51-.12-.16-.11.2-.07.37.06.66A.92.92,0,0,0,10.31,45.9Z"></path>
      <path class="cls-9" d="M10.56,45.16a4.18,4.18,0,0,0-.54-.28c-.24-.09-.31-.1-.28-.33s-.07-.77.08-1,.14-.18.43-.1a1.14,1.14,0,0,1,.62.52.63.63,0,0,1,.08.71A1.59,1.59,0,0,1,10.56,45.16Z"></path>
      <polygon class="cls-10" points="23.86 38.17 23.86 38.16 23.85 38.16 23.86 38.17"></polygon>
      <path class="cls-11" d="M21.63,36.12c-.06-.21-.06-.43-.11-.64-.09-.4-.17-.45-.58-.49h-.06c-.23,0-.29-.17-.18-.37a.28.28,0,0,0-.22-.45.35.35,0,0,0-.3,0c-.16.13-.21,0-.25-.11a.26.26,0,0,0-.19-.22c-.21,0-.16-.12,0-.22a.33.33,0,0,0,.08-.48.42.42,0,0,1,0-.54c.12-.19.09-.31-.1-.42a2.69,2.69,0,0,0-.74-.25,8.42,8.42,0,0,1-1.24-.18c-.48-.19-.59-.14-.45-.73a1.21,1.21,0,0,0,.08-.73.28.28,0,0,1-.32.05c-.12-.07-.07-.19-.07-.3s0-.11,0-.17c0,.11-.1.19-.11.3a5,5,0,0,0-.09,1c0,.08,0,.15-.1.13-.37-.07-.64.2-1,.3a.28.28,0,0,0-.17.15.68.68,0,0,1-.73.4.83.83,0,0,0-.66.61s0,.11,0,.13.09,0,.11-.08a.62.62,0,0,1,.76-.47.47.47,0,0,0,.49-.26c.18-.36.56-.42.86-.58s.36,0,.35.27v.31a.13.13,0,0,1-.12.16.29.29,0,0,0-.27.32.37.37,0,0,1-.45.4,2,2,0,0,0-.64.06c-.16,0-.24.11-.2.27s0,.18-.16.16a.83.83,0,0,1-.15,0c-.24-.05-.38.06-.36.3s0,.18-.16.17a.62.62,0,0,0-.48.17l-.58.49s-.06,0,0,.08a.07.07,0,0,0,.11,0l.26-.2c.26-.17.48-.4.83-.36s.34-.07.28-.34,0-.15.11-.14a.86.86,0,0,1,.17,0c.23.06.37,0,.36-.29,0,0,0-.11,0-.12a1.24,1.24,0,0,1,.52-.11c.45.06.64-.1.73-.56,0-.06,0-.11.1-.11s.12,0,.14.1a1.24,1.24,0,0,0,.37.53s.12.06.08.13-.11,0-.16,0a.35.35,0,0,0-.38.08.75.75,0,0,1-.4.19A.34.34,0,0,0,16,34c.14-.45.64-.2.85-.52,0,0,.11,0,.16,0s.13,0,.19.06a.18.18,0,0,1,.09.32.6.6,0,0,1-.21.14c-.2.08-.37.31-.46.36s-1.68,1-.06.21a.62.62,0,0,0,.16-.1,1.72,1.72,0,0,1,.51-.33c.06,0,.12-.13.16-.06a.63.63,0,0,1,.09.31c0,.07-.06.09-.12.1a.35.35,0,0,0-.26.18.53.53,0,0,1-.52.31.4.4,0,0,0-.38.29c0,.15.29-.39.52-.09,0,0,.11,0,.14,0s.36-.18.42-.4a.16.16,0,0,1,.19-.08c.09,0,0,.13,0,.19a1,1,0,0,1-.41.48c-.27.14-.41.47-.76.53-.12,0-.24.16-.32.29a.15.15,0,0,0,0,.07c0,.08.08.06.07.11s0,0,0,0,.08-.07.1-.13a.39.39,0,0,1,.37-.28.38.38,0,0,0,.33-.18.56.56,0,0,1,.29-.25.69.69,0,0,0,.08.55.6.6,0,0,1-.1.72.51.51,0,0,0-.11.66c.14.19,0,.35,0,.53a.62.62,0,0,0-.05.14s0,.25,0,.26a2,2,0,0,0,.14-.35c.05-.13.23.69.33.76a7,7,0,0,0-.17-.73c0-.31.21-.21.32-.09a.36.36,0,0,0,.34.13c.07,0,.09,0,.15,0s.26.7.33.63-.11-.43-.17-.57S18,37.94,17.9,38s-.26.1-.33,0-.34-.11-.37-.47-.07-.39.08-.55a.68.68,0,0,0,.16-.78.08.08,0,0,1,0-.1s.09,0,.1,0c.1.24.42.09.54.3a.12.12,0,0,0,.19,0c.05-.08-.06-.09-.1-.13s-.47-.11-.59-.35l0,0c-.26-.07-.28-.13-.15-.38A1.41,1.41,0,0,0,17.59,34s-.06-.16,0-.2S18,34,18,34s.73.69.64.48l-.5-.53-.2-.19a1.05,1.05,0,0,1-.48-.66.41.41,0,0,0-.22-.28.38.38,0,0,1-.18-.42s0-.08,0-.09.07,0,.1,0,.14.15.23.1.19,0,.24.1a.39.39,0,0,0,.33.25,1.64,1.64,0,0,1,.59.13s.09,0,.11,0,0-.07,0-.08a.87.87,0,0,0-.53-.22c-.16,0-.28,0-.34-.2s-.07-.16-.17-.15a1.19,1.19,0,0,1-.41-.15c-.19-.07-.12-.19-.09-.28s.16,0,.21,0a2,2,0,0,0,1.05.24,2.43,2.43,0,0,1,1,.24c.17.07.22.19.11.35a.42.42,0,0,0,0,.49.32.32,0,0,1-.06.45c-.19.18-.14.37.1.44a.22.22,0,0,1,.19.22.24.24,0,0,0,.34.2l.13-.07c.08,0,.17-.08.25,0s0,.16,0,.24a.39.39,0,0,0,.37.57c.34,0,.37,0,.51.43a2.52,2.52,0,0,0,.14.54s0,.12.09.11S21.65,36.17,21.63,36.12Z"></path>
      <polygon class="cls-12" points="0 24.83 16.92 31.9 32.3 25.38 16.92 19.95 0 24.83"></polygon>
      <path class="cls-13" d="M21.53,8.05c-1.72,2.65-4.35,5.46-4.48,9.08"></path>
      <path class="cls-14" d="M18,13.89a2.19,2.19,0,0,1,3.4.18c.73.86.13,1.85.18,2.47s0,1.27-.62.16-.94-1.81-2.46-2.22S18,13.89,18,13.89Z"></path>
      <path class="cls-14" d="M15.17,16.15c-.23.09-2.37,1.13-2.43,2.38s-.26,1.54-.74,2c0,0,.08-.17-.69-1s-1-3.45,2.23-3.64S15.17,16.15,15.17,16.15Z"></path>
      <path class="cls-14" d="M20.06,10.17a7.75,7.75,0,0,1,1.29-.23c.49,0,.85,0,.93-.5s0-.64.37-.66a1.63,1.63,0,0,0,1.57-1.29c.24-1.12.31-.5.53-1s.34-.59-.18-1.58.27-1-.65-1.75c0,0,0,.1-.23-.32s-.23-.52-.46.09-.34.38-.53.78-.18.38-.12.62.35.23-.08.51-.89.26-.95.78.07.68-.24.79a1.12,1.12,0,0,0-1,.91A6,6,0,0,0,20.06,10.17Z"></path>
      <path class="cls-15" d="M23.63,4.07a2.62,2.62,0,0,1-.06,1.81,3.74,3.74,0,0,1-1.13,1.45c-.46.4-.93.8-1.35,1.23a3.16,3.16,0,0,0-.95,1.53A2.94,2.94,0,0,1,21,8.51c.42-.44.88-.85,1.34-1.25a3.61,3.61,0,0,0,1.12-1.4A2.82,2.82,0,0,0,23.63,4.07Z"></path>
      <path class="cls-14" d="M16,11c0-.1,0-.15-.47-.42A3.63,3.63,0,0,1,14.18,9c0-.09-.26-1.54-1-1.68S12.06,7.37,12,7s.44-1.24-.1-1.6-.89-.19-1.29-.23-.41-.12-.54-.66a13.4,13.4,0,0,0-.52-1.67c-.07-.09-.31-.81-.8.27s.48,3.66.05,4.69a1.06,1.06,0,0,0,.51,1.49,1.59,1.59,0,0,1,1,1.07,3.28,3.28,0,0,0,3.45,1.54C15.22,11.51,16,11.49,16,11Z"></path>
      <path class="cls-15" d="M9.38,5.16a18,18,0,0,0,1.11,2.08,11.21,11.21,0,0,0,1.42,1.85,7.52,7.52,0,0,0,1.8,1.48,5.8,5.8,0,0,0,2.23.65,4.81,4.81,0,0,1-2.28-.56,7.51,7.51,0,0,1-1.87-1.45A11.3,11.3,0,0,1,10.4,7.29,11,11,0,0,1,9.38,5.16Z"></path>
      <path class="cls-14" d="M23.22,18.45s.39.36.59.33a1.7,1.7,0,0,0,1.08-.14c.56-.3.7-.07.55.1s-1.67,1.63-1.81,1.8-.62.77-1.15.21-.43.27-1.06.3-.85-.41-1.7-.45a2.46,2.46,0,0,1-2.3-1.9c-.32-1.32-.61-1.42-.53-1.83s.17-1.12,1.2.65a4.71,4.71,0,0,0,.55.49,2.74,2.74,0,0,0,.51,0,.71.71,0,0,1,.5.27c.1.1.06.32.5.07a.82.82,0,0,1,1,.09c.09.17.27.56.63.44S22.42,18.1,23.22,18.45Z"></path>
      <path class="cls-15" d="M22.73,19.66a10.33,10.33,0,0,1-3.18-.3,4.29,4.29,0,0,1-1.45-.68,1.94,1.94,0,0,1-.86-1.31,2.14,2.14,0,0,0,.9,1.26,4.62,4.62,0,0,0,1.44.62A12.78,12.78,0,0,0,22.73,19.66Z"></path>
      <path class="cls-14" d="M19.41,11.06s-1.62-.5-2.05-3.55a11.32,11.32,0,0,1,1,.93C19.23,9.23,20.27,10,19.41,11.06Z"></path>
      <path class="cls-14" d="M7.64,12.53a13.49,13.49,0,0,0,4.92,2.76c.55.12,1.11.18,1.65.31a13.36,13.36,0,0,1,2.66.94c.13.05.24-.14.11-.2a14.6,14.6,0,0,0-2.57-.93c-.55-.13-1.12-.19-1.68-.31a13.23,13.23,0,0,1-5-2.76c-.11-.09-.22.11-.11.19Z"></path>
      <path class="cls-14" d="M15.16,0a12.55,12.55,0,0,1-1.32,4.26c-.92,2.07,1.48,3.85,1.48,3.85S20,7.35,15.16,0Z"></path>
      <path class="cls-15" d="M15.41,1.25A5.85,5.85,0,0,1,16,4.42,6.59,6.59,0,0,1,15.49,6a3.39,3.39,0,0,0-.26,1.54,2.8,2.8,0,0,1,0-1.62,7.82,7.82,0,0,0,.47-1.5,5.91,5.91,0,0,0,0-1.57A14.46,14.46,0,0,0,15.41,1.25Z"></path>
      <path class="cls-14" d="M11,15.07c-.12,0-2.38-.28-2.63-.83s0-.87-.53-.82-.83.39-1.11-.24,0-.44-.51-.67-.57,0-.71-.52-.16-.7-.35-.74,0-.31-.09-.42-.86-.92-.23-1,1.52.09,1.71.05.32-.45.66-.35.76.8.76.8a.48.48,0,0,0,.52.25c.36-.09.08.85.57.93s.72.11.75.28a3.66,3.66,0,0,0,1,1.71C11.47,14.12,12.08,14.93,11,15.07Z"></path>
      <path class="cls-15" d="M11.17,14.78c-.84-.56-1.62-1.19-2.44-1.77L7.54,12.1c-.41-.29-.8-.61-1.23-.87a19.85,19.85,0,0,1,2.52,1.65C9.61,13.51,10.42,14.1,11.17,14.78Z"></path>
      <path class="cls-15" d="M15.29,6.25a4.25,4.25,0,0,0,.22,2.27,15.84,15.84,0,0,1,.59,2.25c.34,1.51.61,3,.82,4.57a65.38,65.38,0,0,1,.51,9.28l-.54,0a63.22,63.22,0,0,0-.25-9.23c-.16-1.53-.39-3.06-.68-4.58a16.94,16.94,0,0,0-.52-2.24A4.28,4.28,0,0,1,15.29,6.25Z"></path>
      <path class="cls-6" d="M15.9,27.73a.48.48,0,0,0-.45-.17c-.25.08-.35.28-.31.35l.09.09c.07.06.2-.11.2-.11Z"></path>
      <path class="cls-7" d="M16,28s-.08-.34-.21-.34l-.27,0,0,.06s.13.23.18.24l.17.05Z"></path>
      <path class="cls-8" d="M16,28.07s0-.11,0-.13l-.17,0-.24.18s-.07,0,0,.06.11.06.22.05A.31.31,0,0,0,16,28.07Z"></path>
      <path class="cls-9" d="M15.8,27.9l-.15.15c-.06.07-.07.09-.14.06S15.25,28,15.2,28s0-.06,0-.15a.36.36,0,0,1,.24-.14.19.19,0,0,1,.23.05A.47.47,0,0,1,15.8,27.9Z"></path>
      <path class="cls-6" d="M14.87,22a.69.69,0,0,0-.69-.1c-.34.19-.42.5-.33.59a.74.74,0,0,0,.16.11c.11.07.24-.22.25-.22Z"></path>
      <path class="cls-7" d="M15.15,22.36s-.21-.47-.4-.43l-.4.05,0,.09s.25.29.33.3l.26,0Z"></path>
      <path class="cls-8" d="M15.15,22.42a.13.13,0,0,0-.11-.17,1.82,1.82,0,0,0-.25,0l-.29.33c-.05,0-.09.05.09.06s.18.06.33,0A.46.46,0,0,0,15.15,22.42Z"></path>
      <path class="cls-9" d="M14.79,22.25a2.8,2.8,0,0,0-.17.25c-.06.12-.07.16-.18.13s-.39,0-.48-.1-.09-.08,0-.22a.52.52,0,0,1,.3-.28.3.3,0,0,1,.36,0A.81.81,0,0,1,14.79,22.25Z"></path>
      <path class="cls-6" d="M13.5,24.08a2.38,2.38,0,0,0-2.44.16c-1,.87-1.06,2-.71,2.24.09.06.43.17.63.25.41.15.67-.93.69-.94S13.5,24.08,13.5,24.08Z"></path>
      <path class="cls-7" d="M14.72,25.21S13.66,23.79,13.05,24s-1.32.45-1.32.45l0,.36s1.05.78,1.33.75.77-.11.9-.11A6,6,0,0,0,14.72,25.21Z"></path>
      <path class="cls-8" d="M14.76,25.43c0-.16-.07-.57-.5-.51a5.14,5.14,0,0,0-.84.18s-.63,1.14-.77,1.33-.27.24.35.16.68.07,1.15-.22A1.6,1.6,0,0,0,14.76,25.43Z"></path>
      <path class="cls-9" d="M13.42,25.1a7.07,7.07,0,0,0-.4,1c-.13.45-.13.58-.54.55s-1.34.25-1.7,0-.36-.19-.25-.72a1.92,1.92,0,0,1,.81-1.18,1.09,1.09,0,0,1,1.22-.25A2.82,2.82,0,0,1,13.42,25.1Z"></path>
      <path class="cls-6" d="M18.46,24.38a2.08,2.08,0,0,0-2.13,0c-.92.7-1,1.67-.75,1.9a3.75,3.75,0,0,0,.53.26c.35.16.64-.76.66-.78S18.46,24.38,18.46,24.38Z"></path>
      <path class="cls-7" d="M19.45,25.44s-.83-1.3-1.38-1.12a12,12,0,0,1-1.17.31l0,.31s.86.74,1.1.74.68-.06.79-.05A5,5,0,0,0,19.45,25.44Z"></path>
      <path class="cls-8" d="M19.48,25.63c0-.14,0-.5-.41-.47a5.4,5.4,0,0,0-.74.1s-.62.95-.75,1.11-.25.2.3.16.58.1,1-.12A1.4,1.4,0,0,0,19.48,25.63Z"></path>
      <path class="cls-9" d="M18.33,25.26a6.23,6.23,0,0,0-.4.84c-.14.38-.16.49-.51.45s-1.17.13-1.48-.1-.29-.19-.17-.64a1.62,1.62,0,0,1,.78-1,.92.92,0,0,1,1.07-.15A2.48,2.48,0,0,1,18.33,25.26Z"></path>
      <path class="cls-6" d="M21.65,23.11a2.24,2.24,0,0,0-2.27-.3c-1.07.62-1.32,1.64-1.05,1.93a3.52,3.52,0,0,0,.53.34c.35.22.78-.72.81-.73Z"></path>
      <path class="cls-7" d="M22.56,24.37s-.71-1.5-1.32-1.38a12.17,12.17,0,0,1-1.28.17l-.11.33s.83.9,1.08.93.74,0,.85.06A5.83,5.83,0,0,0,22.56,24.37Z"></path>
      <path class="cls-8" d="M22.56,24.57c0-.14,0-.53-.36-.55a5.35,5.35,0,0,0-.81,0s-.78.93-.95,1.09-.29.17.3.2.61.19,1.09,0A1.49,1.49,0,0,0,22.56,24.57Z"></path>
      <path class="cls-9" d="M21.39,24a7,7,0,0,0-.54.84c-.2.39-.23.5-.6.41s-1.27,0-1.56-.3-.29-.25-.1-.71a1.79,1.79,0,0,1,1-.93,1,1,0,0,1,1.16,0A2.75,2.75,0,0,1,21.39,24Z"></path>
      <path class="cls-6" d="M22.57,27a.73.73,0,0,0,.66-.33c.17-.36.06-.67-.07-.7a1.32,1.32,0,0,0-.2,0c-.13,0-.08.34-.08.34S22.57,27,22.57,27Z"></path>
      <path class="cls-7" d="M22.1,26.77s.46.28.6.14.31-.28.31-.28l0-.11a1.46,1.46,0,0,0-.46-.05l-.23.13A1.81,1.81,0,0,0,22.1,26.77Z"></path>
      <path class="cls-8" d="M22.06,26.72s.09.15.2.08a1.28,1.28,0,0,0,.21-.15s0-.38.06-.45,0-.1-.12,0-.19.06-.29.2A.46.46,0,0,0,22.06,26.72Z"></path>
      <path class="cls-9" d="M22.47,26.65a3,3,0,0,0,0-.32c0-.14,0-.17.08-.21s.35-.22.47-.2.13,0,.16.17a.6.6,0,0,1-.09.42.33.33,0,0,1-.31.21A.81.81,0,0,1,22.47,26.65Z"></path>
      <path class="cls-6" d="M11.26,27.2a.91.91,0,0,0,.87-.35c.26-.45.14-.86,0-.91h-.26c-.16,0-.13.42-.13.43Z"></path>
      <path class="cls-7" d="M10.68,26.94s.56.39.75.22.42-.32.42-.32l0-.14a2,2,0,0,0-.58-.11l-.31.15A2.42,2.42,0,0,0,10.68,26.94Z"></path>
      <path class="cls-8" d="M10.64,26.87a.17.17,0,0,0,.24.12,2.11,2.11,0,0,0,.29-.17s.09-.49.11-.58.07-.12-.14,0-.26.06-.39.22A.61.61,0,0,0,10.64,26.87Z"></path>
      <path class="cls-9" d="M11.17,26.82a2.68,2.68,0,0,0,0-.41c0-.18,0-.22.13-.27s.45-.25.62-.21.15,0,.18.24a.71.71,0,0,1-.16.52.39.39,0,0,1-.41.24A1.08,1.08,0,0,1,11.17,26.82Z"></path>
      <path class="cls-6" d="M15.24,24.93a.55.55,0,0,0,.54.1c.26-.14.33-.38.27-.45l-.13-.09c-.08,0-.19.17-.2.17Z"></path>
      <path class="cls-7" d="M15,24.62s.16.37.3.35a1.82,1.82,0,0,1,.31,0l0-.08s-.19-.22-.25-.23l-.2,0A1.09,1.09,0,0,0,15,24.62Z"></path>
      <path class="cls-8" d="M15,24.58a.09.09,0,0,0,.08.13h.19s.2-.22.24-.25.07,0-.07,0-.15-.05-.26,0A.35.35,0,0,0,15,24.58Z"></path>
      <path class="cls-9" d="M15.31,24.72l.14-.2c.05-.09.06-.11.14-.09s.31,0,.37.09.07.06,0,.17a.42.42,0,0,1-.24.21.26.26,0,0,1-.28,0A.59.59,0,0,1,15.31,24.72Z"></path>
      <path class="cls-6" d="M20.07,27a2.07,2.07,0,0,0,2-.6c.67-.93.5-1.88.16-2a3.25,3.25,0,0,0-.57-.09c-.38-.05-.39.91-.41.92Z"></path>
      <path class="cls-7" d="M18.82,26.26s1.17,1,1.64.67,1-.64,1-.64l0-.31s-1-.46-1.26-.38-.63.24-.73.27A4.43,4.43,0,0,0,18.82,26.26Z"></path>
      <path class="cls-8" d="M18.74,26.08c.05.13.17.46.53.33a5.38,5.38,0,0,0,.67-.31s.31-1.08.39-1.27.18-.26-.33-.07-.58.08-.92.41A1.43,1.43,0,0,0,18.74,26.08Z"></path>
      <path class="cls-9" d="M19.94,26.1a5.91,5.91,0,0,0,.14-.91c0-.41,0-.51.36-.57s1.07-.47,1.43-.34.33.1.35.56A1.67,1.67,0,0,1,21.76,26a.92.92,0,0,1-1,.45A2.48,2.48,0,0,1,19.94,26.1Z"></path>
      <path class="cls-6" d="M13.85,26.2a1.39,1.39,0,0,0,1.42,0c.6-.47.66-1.12.47-1.27a2.64,2.64,0,0,0-.36-.16c-.23-.1-.41.51-.42.52Z"></path>
      <path class="cls-7" d="M13.18,25.51s.57.85.93.72.77-.22.77-.22l0-.21s-.59-.48-.75-.47-.45,0-.52,0A4,4,0,0,0,13.18,25.51Z"></path>
      <path class="cls-8" d="M13.16,25.38c0,.09,0,.33.28.31a3.43,3.43,0,0,0,.49-.08s.39-.64.48-.75.16-.13-.2-.1-.39-.06-.67.09A.94.94,0,0,0,13.16,25.38Z"></path>
      <path class="cls-9" d="M13.93,25.61a3.4,3.4,0,0,0,.25-.56c.09-.26.1-.33.34-.31s.77-.1,1,.05.2.12.12.42a1.1,1.1,0,0,1-.5.66.63.63,0,0,1-.71.11A1.49,1.49,0,0,1,13.93,25.61Z"></path>
    </g>
  </g>
</svg>
