<?xml version="1.0" encoding="UTF-8"?>
<svg xmlns="http://www.w3.org/2000/svg" xmlns:xlink="http://www.w3.org/1999/xlink" viewBox="0 0 28.36 36.51">
  <defs>
    <style>.cls-1{fill:none;}.cls-2{clip-path:url(#clip-path);}.cls-3{fill:#8e6848;}.cls-4{clip-path:url(#clip-path-2);}.cls-5{fill:url(#Безымянный_градиент_2);}.cls-6{fill:#713e21;}.cls-7{fill:#3d271f;}.cls-8{fill:#69391e;}.cls-9{fill:#6b472f;}.cls-10{fill:#5c3624;}.cls-11{fill:#795135;}.cls-12{fill:#9a734f;}.cls-13{fill:#d0c5a6;}.cls-14{fill:#85563a;}.cls-15{fill:#acd03d;}.cls-16{fill:#486f3a;}.cls-17{fill:#7fb943;}.cls-18{fill:#6d9633;}</style>
    <clipPath id="clip-path" transform="translate(0 0)">
      <rect class="cls-1" width="28.36" height="35.18"></rect>
    </clipPath>
    <clipPath id="clip-path-2" transform="translate(0 0)">
      <polygon class="cls-1" points="1.99 29.13 14.86 35.18 26.76 29.16 14.38 23.91 1.99 29.13"></polygon>
    </clipPath>
    <linearGradient id="Безымянный_градиент_2" x1="-2375.81" y1="-789.48" x2="-2375.09" y2="-789.48" gradientTransform="matrix(34.36, 0, 0, -34.36, 81623.39, -27094.11)" gradientUnits="userSpaceOnUse">
      <stop offset="0" stop-color="#9b714e"></stop>
      <stop offset="0.38" stop-color="#9b714e"></stop>
      <stop offset="0.89" stop-color="#764528"></stop>
      <stop offset="1" stop-color="#6e3c20"></stop>
    </linearGradient>
  </defs>
  <g id="Слой_2" data-name="Слой 2">
    <g id="Слой_1-2" data-name="Слой 1">
      <g class="cls-2">
        <path class="cls-3" d="M14.86,18.15s2.47,2.91,4.39,3,8.45-1.95,8.45-1.95l.66-6.81L14.86,7.66Z" transform="translate(0 0)"></path>
        <path class="cls-3" d="M0,11.94l1.35,8.88s4.78.71,5.62.48,4.66-1.68,5.74-1.68,2.14-1.47,2.14-1.47V7.66Z" transform="translate(0 0)"></path>
      </g>
      <g class="cls-4">
        <rect class="cls-5" x="8.08" y="16.88" width="12.58" height="25.34" transform="translate(-15.9 42.31) rotate(-86.92)"></rect>
      </g>
      <g class="cls-2">
        <path class="cls-6" d="M2,29.13l-.64-8.31s6.1-.12,7.77-1a34.84,34.84,0,0,1,5.74-1.71l-.48,5.76Z" transform="translate(0 0)"></path>
        <path class="cls-7" d="M10.68,21.33A2.2,2.2,0,0,0,10,20.9h0a1.53,1.53,0,0,0-1.51.36c-.53.66-.44,1.36-.2,1.48.07,0,.29.06.42.09h0a8.59,8.59,0,0,0,.9-.21.39.39,0,0,0,.15,0l.17-.05c.38-.12.43,0,.69-.26a1,1,0,0,0,.28-.66l-.05-.13h0a.25.25,0,0,0-.15-.13" transform="translate(0 0)"></path>
        <path class="cls-7" d="M5.46,22.19a2.78,2.78,0,0,0-1,.34h0a2,2,0,0,0-.92,1.77c.18,1.06.94,1.57,1.26,1.44a5,5,0,0,0,.44-.33v0a9,9,0,0,0,.56-1,.58.58,0,0,0,.1-.19c0-.05,0-.1.09-.2.21-.47.33-.44.33-.89a1.26,1.26,0,0,0-.39-.82.56.56,0,0,0-.17-.06h0a.37.37,0,0,0-.25,0" transform="translate(0 0)"></path>
        <path class="cls-8" d="M14.86,18.15l-.48,5.76,12.38,5.25.94-9.93A32.1,32.1,0,0,0,22.16,19c-1.67.24-4.59,1-5.46.48a11.64,11.64,0,0,1-1.84-1.35" transform="translate(0 0)"></path>
        <path class="cls-7" d="M10.14,24.07A.84.84,0,0,0,9.82,24h0s-.4,0-.52.3,0,.56.09.58h.17a3,3,0,0,0,.32-.18l0,0,.06,0c.13-.09.16-.06.23-.18a.4.4,0,0,0,0-.27l0,0h0Z" transform="translate(0 0)"></path>
        <path class="cls-7" d="M22.27,21.59a.58.58,0,0,0,0-.23h0s-.1-.26-.33-.27-.37.13-.35.2l.05.11h0l.19.16,0,0,0,0c.09.06.08.09.17.11a.26.26,0,0,0,.19-.05l0,0h0Z" transform="translate(0 0)"></path>
        <path class="cls-7" d="M25.72,25.75a2.91,2.91,0,0,0-.49-1h0a2,2,0,0,0-1.89-.67c-1,.34-1.44,1.17-1.26,1.46a3.5,3.5,0,0,0,.39.4h0a9.93,9.93,0,0,0,1.12.42.49.49,0,0,0,.2.06l.22.07c.49.14.48.27.93.2a1.32,1.32,0,0,0,.77-.51.74.74,0,0,0,0-.18h0v0a.31.31,0,0,0-.07-.25" transform="translate(0 0)"></path>
        <path class="cls-7" d="M19,22.33a2.18,2.18,0,0,0-.48.7h0a1.51,1.51,0,0,0,.25,1.52c.61.57,1.32.54,1.45.31,0-.07.08-.28.12-.41v0a7.28,7.28,0,0,0-.14-.91.28.28,0,0,0,0-.15,1.55,1.55,0,0,0,0-.17c-.09-.39,0-.43-.21-.71a1,1,0,0,0-.63-.32l-.13,0h0a.2.2,0,0,0-.14.13" transform="translate(0 0)"></path>
        <path class="cls-9" d="M19,29.38a.41.41,0,0,0,.41-.1c.14-.18.11-.37,0-.4l-.11,0c-.08,0-.08.17-.09.18Z" transform="translate(0 0)"></path>
        <path class="cls-10" d="M18.8,29.24s.23.2.32.14l.21-.12V29.2l-.25-.09-.14.05Z" transform="translate(0 0)"></path>
        <path class="cls-11" d="M18.79,29.2s0,.09.1.07l.13-.06.09-.25s0-.05-.07,0-.11,0-.18.07a.27.27,0,0,0-.07.18" transform="translate(0 0)"></path>
        <path class="cls-12" d="M19,29.21a1.34,1.34,0,0,0,0-.18c0-.08,0-.1.07-.11s.22-.08.29-.06.06,0,.06.12a.3.3,0,0,1-.1.22.18.18,0,0,1-.19.08.48.48,0,0,1-.17-.07" transform="translate(0 0)"></path>
        <path class="cls-9" d="M16.29,27.81a.93.93,0,0,0,.84-.43c.22-.46.06-.87-.09-.9a1.19,1.19,0,0,0-.26,0c-.17,0-.1.43-.11.43Z" transform="translate(0 0)"></path>
        <path class="cls-10" d="M15.69,27.59s.59.34.77.16a4.87,4.87,0,0,1,.39-.36l0-.13s-.49-.12-.58-.06l-.3.17Z" transform="translate(0 0)"></path>
        <path class="cls-11" d="M15.64,27.52a.18.18,0,0,0,.26.11,3,3,0,0,0,.27-.2s0-.49.06-.58.06-.13-.15,0-.25.08-.37.25a.62.62,0,0,0-.07.42" transform="translate(0 0)"></path>
        <path class="cls-12" d="M16.17,27.43a2.24,2.24,0,0,0,0-.4c0-.18,0-.23.11-.28s.43-.29.6-.27.15,0,.2.22a.78.78,0,0,1-.11.54.4.4,0,0,1-.39.27.9.9,0,0,1-.39-.08" transform="translate(0 0)"></path>
        <path class="cls-9" d="M13.73,29.81a.9.9,0,0,0,.91.11c.43-.26.53-.67.42-.78a1.72,1.72,0,0,0-.22-.14c-.14-.08-.31.3-.32.3Z" transform="translate(0 0)"></path>
        <path class="cls-10" d="M13.36,29.3s.29.6.53.55a4.6,4.6,0,0,1,.52-.07l0-.13s-.34-.36-.44-.37l-.34,0Z" transform="translate(0 0)"></path>
        <path class="cls-11" d="M13.35,29.22c0,.06,0,.22.15.22h.33s.31-.38.38-.44.11-.07-.12-.09-.25-.07-.44,0a.64.64,0,0,0-.3.31" transform="translate(0 0)"></path>
        <path class="cls-12" d="M13.83,29.44A3,3,0,0,0,14,29.1c.08-.16.09-.21.24-.17s.51,0,.63.11.12.1,0,.29-.18.26-.38.38a.41.41,0,0,1-.47,0,1,1,0,0,1-.27-.28" transform="translate(0 0)"></path>
        <path class="cls-9" d="M12.62,28.15a.68.68,0,0,0,0-.7c-.22-.31-.54-.36-.62-.27l-.09.17c-.06.12.24.22.25.23Z" transform="translate(0 0)"></path>
        <path class="cls-10" d="M12.26,28.47s.44-.27.39-.45-.09-.39-.09-.39l-.11,0s-.25.28-.25.36,0,.22,0,.26Z" transform="translate(0 0)"></path>
        <path class="cls-11" d="M12.2,28.47c.05,0,.17,0,.16-.13a1.14,1.14,0,0,0,0-.24L12,27.84c-.05-.05-.06-.08-.05.1s0,.19,0,.33a.48.48,0,0,0,.25.2" transform="translate(0 0)"></path>
        <path class="cls-12" d="M12.33,28.1a1.77,1.77,0,0,0-.27-.14c-.12-.05-.16-.06-.14-.18s0-.38,0-.48.07-.1.22-.05.21.12.31.26a.33.33,0,0,1,0,.36.83.83,0,0,1-.2.23" transform="translate(0 0)"></path>
        <path class="cls-9" d="M10.44,28.67a.3.3,0,0,0,.1-.29c0-.16-.18-.22-.22-.19l-.06.06.07.13Z" transform="translate(0 0)"></path>
        <path class="cls-10" d="M10.25,28.75s.22-.05.22-.13,0-.17,0-.17l0,0-.15.12,0,.11Z" transform="translate(0 0)"></path>
        <path class="cls-11" d="M10.23,28.75l.08,0,0-.1-.12-.15s0-.05,0,0,0,.07,0,.14a.21.21,0,0,0,.08.12" transform="translate(0 0)"></path>
        <path class="cls-12" d="M10.33,28.61l-.1-.09,0-.09.08-.2h.09c.06,0,.08.07.1.15a.13.13,0,0,1,0,.15Z" transform="translate(0 0)"></path>
        <path class="cls-9" d="M9.77,29.87a1.18,1.18,0,0,0,0-1.22c-.39-.53-.94-.61-1.08-.45a1.38,1.38,0,0,0-.15.3c-.1.2.43.37.43.39Z" transform="translate(0 0)"></path>
        <path class="cls-10" d="M9.16,30.43s.75-.47.66-.78A6.75,6.75,0,0,1,9.65,29l-.17,0s-.44.48-.44.62,0,.39,0,.45Z" transform="translate(0 0)"></path>
        <path class="cls-11" d="M9.05,30.44c.07,0,.28,0,.27-.23a3.79,3.79,0,0,0-.05-.43s-.53-.36-.62-.44-.11-.14-.1.17-.06.33.06.58a.8.8,0,0,0,.44.35" transform="translate(0 0)"></path>
        <path class="cls-12" d="M9.27,29.78a4.14,4.14,0,0,0-.47-.24c-.22-.08-.28-.09-.25-.29s-.06-.68.07-.85.12-.16.37-.09a1,1,0,0,1,.55.46.52.52,0,0,1,.07.61,1.25,1.25,0,0,1-.34.4" transform="translate(0 0)"></path>
        <path class="cls-13" d="M14.35,15.91c-.17.61-.17,1.23-.28,1.86s-.26,1.18-.4,1.77a6.22,6.22,0,0,0-.11,3A10.86,10.86,0,0,0,15,25a6.21,6.21,0,0,1,.7,3.67c0,.15.22.15.22,0a7.43,7.43,0,0,0-.33-3c-.37-.9-1.07-1.6-1.52-2.45a5.37,5.37,0,0,1-.14-3.83c.12-.51.26-1,.35-1.55A16.52,16.52,0,0,1,14.57,16a.11.11,0,0,0-.22-.06" transform="translate(0 0)"></path>
        <path class="cls-13" d="M15.37,25.6c0,.49.51.68.8,1a1.66,1.66,0,0,1,.42,1.2c0,.14.21.14.22,0a1.83,1.83,0,0,0-.35-1.2,2.18,2.18,0,0,0-.46-.45c-.18-.14-.39-.3-.4-.55s-.24-.14-.23,0" transform="translate(0 0)"></path>
        <path class="cls-13" d="M14.11,17.63A4.17,4.17,0,0,0,14.64,21a17.9,17.9,0,0,0,2.14,3c.09.11.25-.05.16-.16a17.82,17.82,0,0,1-2-2.8,4.13,4.13,0,0,1-.62-3.35c0-.14-.17-.2-.21-.06" transform="translate(0 0)"></path>
        <path class="cls-13" d="M14.74,21.23a7.25,7.25,0,0,1,.09.8,6.12,6.12,0,0,0,0,.74c.06.38.39.68.4,1.08,0,.14.23.14.22,0,0-.42-.33-.71-.4-1.11a1.7,1.7,0,0,1,0-.39,2.28,2.28,0,0,0,0-.37,7.43,7.43,0,0,0-.09-.81c0-.14-.24-.08-.22.06" transform="translate(0 0)"></path>
        <polygon class="cls-14" points="0 11.94 14.86 18.15 28.36 12.42 14.86 7.66 0 11.94"></polygon>
        <path class="cls-15" d="M12.75,3.33a1.65,1.65,0,0,0-2.28.3l.41.18s-.56.15-.63.49l.48.3s-.63.71-.26.78l.37.08s-.07.48.12.52a1.17,1.17,0,0,0,.54-.15s.31.3.31.41.49-.22.49-.45.63,0,.63,0,.11-.59,0-.71.37,0,.37,0,.19-1.2-.55-1.68" transform="translate(0 0)"></path>
        <path class="cls-16" d="M11.19,5.47a5.08,5.08,0,0,1,.71-1.34,2.15,2.15,0,0,1,1.2-.89h0a2.71,2.71,0,0,0-1.17.92,5.49,5.49,0,0,0-.73,1.32Z" transform="translate(0 0)"></path>
        <path class="cls-16" d="M12.43,3.67a2.15,2.15,0,0,0-.93-.19,1.92,1.92,0,0,1,.94.17Z" transform="translate(0 0)"></path>
        <path class="cls-16" d="M13.1,4.63a1.54,1.54,0,0,0-.67-1v0a1.53,1.53,0,0,1,.66,1" transform="translate(0 0)"></path>
        <path class="cls-16" d="M12,4a1,1,0,0,0-.46,0,3.27,3.27,0,0,0-.45.1A2.12,2.12,0,0,1,11.54,4,1,1,0,0,1,12,4Z" transform="translate(0 0)"></path>
        <path class="cls-16" d="M12.61,5.22A1.83,1.83,0,0,0,12,4l0,0a1.92,1.92,0,0,1,.6,1.2" transform="translate(0 0)"></path>
        <path class="cls-16" d="M11.75,4.34a.75.75,0,0,0-.66.38.75.75,0,0,1,.67-.4Z" transform="translate(0 0)"></path>
        <path class="cls-16" d="M12,5.22a1.52,1.52,0,0,0-.22-.88l0,0a1.58,1.58,0,0,1,.19.9" transform="translate(0 0)"></path>
        <path class="cls-15" d="M15.64,3.86a.83.83,0,0,0-.54.8l.21-.09a1.29,1.29,0,0,0,.14.77l.19-.16a1.78,1.78,0,0,0,.27.55l.19-.2s.45.09.44.24.15-.27.11-.36.54.2.54.2S17.15,5,17,5s.33-.24.33-.24-.14-.34-.33-.4.16-.29.28-.21a.88.88,0,0,0-.58-.25c-.28,0,0-.18.14-.11a1.51,1.51,0,0,0-1.23.1" transform="translate(0 0)"></path>
        <path class="cls-16" d="M16,4.08a1.06,1.06,0,0,0-.36.64,1,1,0,0,1,.35-.67Z" transform="translate(0 0)"></path>
        <path class="cls-16" d="M16.75,5a10.06,10.06,0,0,0-1-1.18,5.31,5.31,0,0,1,1,1.18" transform="translate(0 0)"></path>
        <path class="cls-16" d="M15.94,4.05a1.13,1.13,0,0,1,.9,0,1.1,1.1,0,0,0-.89,0Z" transform="translate(0 0)"></path>
        <path class="cls-16" d="M16.29,4.36a1.08,1.08,0,0,1,.78.21,1,1,0,0,0-.78-.18Z" transform="translate(0 0)"></path>
        <path class="cls-16" d="M16,5.2a1.05,1.05,0,0,1,.29-.84l0,0A1,1,0,0,0,16,5.2" transform="translate(0 0)"></path>
        <path class="cls-17" d="M14.55,3.81s.31,1.67-.16,1.73-.1-.68-.1-.72a4.79,4.79,0,0,0,.26-1" transform="translate(0 0)"></path>
        <path class="cls-15" d="M14.23,5.31l.18,2.92c0,.52.07,1,.07,1.57a7.38,7.38,0,0,1-.21,1.88l.22.06A8,8,0,0,0,14.7,9.8c0-.53,0-1.06-.06-1.59-.06-1-.13-1.94-.19-2.91Z" transform="translate(0 0)"></path>
        <path class="cls-15" d="M15.84,3.9A1.41,1.41,0,0,0,15,3.3a.5.5,0,0,0-.56.26,1.42,1.42,0,0,0-.12.76c0,.07.12.07.11,0a1.22,1.22,0,0,1,.14-.77.37.37,0,0,1,.28-.15c.37,0,.69.32.9.58Z" transform="translate(0 0)"></path>
        <path class="cls-15" d="M14.62,2.31a1.1,1.1,0,0,0-.37.72,1.89,1.89,0,0,0,.07,1.13c0,.07.12,0,.09,0a1.88,1.88,0,0,1-.06-1.05,1,1,0,0,1,.33-.66Z" transform="translate(0 0)"></path>
        <path class="cls-15" d="M12.75,3.44a1.08,1.08,0,0,1,.64-.09,1.28,1.28,0,0,1,.61.26,1.19,1.19,0,0,1,.29,1.06c0,.07.11.07.11,0A1.28,1.28,0,0,0,14,3.49a1.31,1.31,0,0,0-1.33-.14Z" transform="translate(0 0)"></path>
        <path class="cls-18" d="M14.16,5.45s-.47-1.21,0-1.76c0,0,.38.92.41,1.07s.05,1.12-.43.69" transform="translate(0 0)"></path>
        <path class="cls-15" d="M14.41,2.7S13.89,1,15,.39L15,.67s.24-.62.57-.64V.28s.44-.39.71-.25l-.13.18s.63-.18.7-.09,0,.14,0,.27.23,0,.23,0L16.89,1c-.05,0,.11,0,.23,0s-.18.72-.3.79.21,0,.21,0-.25.45-.46.55l.45,0a1.71,1.71,0,0,1-2.61.33" transform="translate(0 0)"></path>
        <path class="cls-16" d="M14.47,2.64a2.81,2.81,0,0,1,1.45-1.37h0a2,2,0,0,1,.67-.89,2.21,2.21,0,0,0-.62.9h0a3.24,3.24,0,0,0-1.46,1.33" transform="translate(0 0)"></path>
        <path class="cls-16" d="M15.22,1.76a2,2,0,0,1,.7-1.48h0a1.56,1.56,0,0,0-.49.67,4.4,4.4,0,0,0-.22.81Z" transform="translate(0 0)"></path>
        <path class="cls-16" d="M14.87,2A2.41,2.41,0,0,0,16.46,2a2.38,2.38,0,0,1-1.6.14Z" transform="translate(0 0)"></path>
        <path class="cls-16" d="M15.36.39a1.55,1.55,0,0,0-.39.79,3.75,3.75,0,0,0-.08.88h-.05a3.82,3.82,0,0,1,.1-.9,1.61,1.61,0,0,1,.42-.78" transform="translate(0 0)"></path>
        <path class="cls-16" d="M14.56,2.45a3.29,3.29,0,0,0,.88.25,1.51,1.51,0,0,0,.89-.12,1.54,1.54,0,0,1-.9.14,3.14,3.14,0,0,1-.89-.22Z" transform="translate(0 0)"></path>
        <path class="cls-16" d="M14.65,1.11a1.62,1.62,0,0,0-.11.69,5.54,5.54,0,0,0,0,.71h-.05a5.77,5.77,0,0,1,0-.72,1.64,1.64,0,0,1,.14-.69" transform="translate(0 0)"></path>
        <path class="cls-16" d="M15.56,1.5a7.58,7.58,0,0,0,1.26-.24h0a2.57,2.57,0,0,1-.62.16,4.48,4.48,0,0,1-.64.08Z" transform="translate(0 0)"></path>
        <path class="cls-18" d="M14.74,9.21c0,.2.27.3.76.3a.69.69,0,0,0,.73-.58c0-.2-.25-.16-.73-.16s-.76.23-.76.44" transform="translate(0 0)"></path>
        <path class="cls-18" d="M12.87,8.65c0-.18.41-.16.78-.11a1,1,0,0,1,.78.79c0,.18-.39.18-.71.18-.5,0-.85-.67-.85-.86" transform="translate(0 0)"></path>
        <path class="cls-18" d="M14.86,9.14s-.15,0-.21.37" transform="translate(0 0)"></path>
        <path class="cls-18" d="M14.29,9.33s.16-.11.23.18" transform="translate(0 0)"></path>
        <path class="cls-9" d="M14,14.48a.4.4,0,0,0-.39-.14c-.22.07-.31.24-.27.3l.08.08.18-.1Z" transform="translate(0 0)"></path>
        <path class="cls-10" d="M14.07,14.75s-.07-.3-.18-.3l-.24,0,0,.06.15.21.15,0Z" transform="translate(0 0)"></path>
        <path class="cls-11" d="M14.06,14.78a.07.07,0,0,0-.05-.11l-.14,0-.21.16s-.06,0,0,0,.1.06.2.05a.28.28,0,0,0,.16-.11" transform="translate(0 0)"></path>
        <path class="cls-12" d="M13.87,14.64l-.13.13-.13.05-.26-.12c0-.06,0-.06,0-.13a.29.29,0,0,1,.21-.13.19.19,0,0,1,.21,0Z" transform="translate(0 0)"></path>
        <path class="cls-9" d="M13.06,9.42a.59.59,0,0,0-.61-.08c-.3.16-.37.43-.3.51l.15.1c.09.06.21-.2.22-.2Z" transform="translate(0 0)"></path>
        <path class="cls-10" d="M13.3,9.77s-.19-.41-.35-.38a3.13,3.13,0,0,1-.35,0l0,.09s.22.25.29.26h.23Z" transform="translate(0 0)"></path>
        <path class="cls-11" d="M13.3,9.82s0-.14-.1-.15H13l-.26.29s-.07,0,.08.06.17.05.3,0a.39.39,0,0,0,.2-.2" transform="translate(0 0)"></path>
        <path class="cls-12" d="M13,9.67a1.49,1.49,0,0,0-.14.23c-.06.1-.07.13-.17.1s-.34,0-.42-.08-.08-.07,0-.19a.43.43,0,0,1,.26-.25.25.25,0,0,1,.31,0,.66.66,0,0,1,.18.19" transform="translate(0 0)"></path>
        <path class="cls-9" d="M11.85,11.28a2.09,2.09,0,0,0-2.14.14c-.88.77-.93,1.75-.63,2,.09,0,.38.15.56.22.36.13.58-.82.61-.83Z" transform="translate(0 0)"></path>
        <path class="cls-10" d="M12.92,12.27s-.93-1.25-1.47-1-1.15.4-1.15.4l0,.32s.92.68,1.17.66.68-.1.79-.1a5.43,5.43,0,0,0,.7-.25" transform="translate(0 0)"></path>
        <path class="cls-11" d="M13,12.46c0-.13-.07-.49-.44-.44a5.22,5.22,0,0,0-.74.16s-.55,1-.68,1.17-.23.21.31.14.6,0,1-.2a1.4,1.4,0,0,0,.54-.83" transform="translate(0 0)"></path>
        <path class="cls-12" d="M11.78,12.18a6.88,6.88,0,0,0-.35.87c-.11.39-.12.5-.48.48s-1.17.22-1.49,0-.31-.17-.22-.63a1.68,1.68,0,0,1,.72-1A.93.93,0,0,1,11,11.65a2.32,2.32,0,0,1,.76.53" transform="translate(0 0)"></path>
        <path class="cls-9" d="M16.2,11.54a1.8,1.8,0,0,0-1.86,0c-.81.61-.91,1.46-.66,1.67.07,0,.31.15.46.22.31.14.56-.67.58-.68Z" transform="translate(0 0)"></path>
        <path class="cls-10" d="M17.08,12.47s-.74-1.14-1.22-1a9.46,9.46,0,0,1-1,.27l-.05.28s.76.64,1,.64.6,0,.69,0a4.25,4.25,0,0,0,.63-.17" transform="translate(0 0)"></path>
        <path class="cls-11" d="M17.1,12.64c0-.12,0-.44-.36-.41a3.5,3.5,0,0,0-.65.09s-.54.83-.66,1-.21.17.26.14.52.09.89-.1a1.31,1.31,0,0,0,.52-.69" transform="translate(0 0)"></path>
        <path class="cls-12" d="M16.09,12.32a5,5,0,0,0-.35.73c-.13.34-.14.43-.45.39s-1,.12-1.3-.08-.25-.17-.15-.56a1.48,1.48,0,0,1,.68-.86.84.84,0,0,1,1-.13,2.2,2.2,0,0,1,.62.51" transform="translate(0 0)"></path>
        <path class="cls-9" d="M19,10.43a2,2,0,0,0-2-.26c-.94.54-1.16,1.44-.92,1.69a3.06,3.06,0,0,0,.46.3c.31.19.69-.64.71-.65Z" transform="translate(0 0)"></path>
        <path class="cls-10" d="M19.81,11.53s-.63-1.31-1.16-1.21a11,11,0,0,1-1.13.16l-.09.28s.72.8.94.82.65,0,.75.05a4.92,4.92,0,0,0,.69-.1" transform="translate(0 0)"></path>
        <path class="cls-11" d="M19.81,11.72c0-.13,0-.47-.33-.5a4.88,4.88,0,0,0-.71,0s-.68.81-.82.95-.26.15.26.18.53.16.95,0a1.35,1.35,0,0,0,.65-.66" transform="translate(0 0)"></path>
        <path class="cls-12" d="M18.77,11.24a6.85,6.85,0,0,0-.47.73c-.17.34-.2.44-.53.36s-1.11,0-1.37-.26-.25-.22-.08-.62a1.54,1.54,0,0,1,.84-.82.88.88,0,0,1,1,0,2.23,2.23,0,0,1,.59.62" transform="translate(0 0)"></path>
        <path class="cls-9" d="M19.81,13.8a.63.63,0,0,0,.58-.29c.15-.31.05-.59-.06-.62h-.18c-.11,0-.07.29-.07.3Z" transform="translate(0 0)"></path>
        <path class="cls-10" d="M19.4,13.65s.4.24.52.11a3.07,3.07,0,0,1,.28-.24l0-.09s-.33-.09-.4,0l-.21.12Z" transform="translate(0 0)"></path>
        <path class="cls-11" d="M19.36,13.6s.08.13.18.07l.19-.13.05-.4c0-.06,0-.09-.11,0s-.17.06-.25.18a.41.41,0,0,0-.06.29" transform="translate(0 0)"></path>
        <path class="cls-12" d="M19.73,13.54s0-.16,0-.28,0-.15.08-.19.3-.2.41-.18.11,0,.13.16a.48.48,0,0,1-.07.36.3.3,0,0,1-.28.19.64.64,0,0,1-.26-.06" transform="translate(0 0)"></path>
        <path class="cls-9" d="M9.89,14a.79.79,0,0,0,.76-.31c.22-.39.12-.75,0-.79l-.22,0c-.15,0-.12.37-.12.38Z" transform="translate(0 0)"></path>
        <path class="cls-10" d="M9.37,13.79s.5.34.66.2a4.14,4.14,0,0,1,.38-.29l0-.12a1.91,1.91,0,0,0-.5-.1l-.28.14Z" transform="translate(0 0)"></path>
        <path class="cls-11" d="M9.34,13.73s.08.17.21.11l.25-.15s.08-.43.1-.51.06-.11-.13,0-.22.05-.34.19a.54.54,0,0,0-.09.37" transform="translate(0 0)"></path>
        <path class="cls-12" d="M9.8,13.69a2.05,2.05,0,0,0,0-.36c0-.16,0-.2.12-.24s.4-.22.54-.18.13,0,.16.2a.64.64,0,0,1-.14.46.36.36,0,0,1-.36.22.91.91,0,0,1-.34-.1" transform="translate(0 0)"></path>
        <path class="cls-9" d="M13.38,12a.47.47,0,0,0,.47.08c.23-.12.29-.33.23-.39l-.1-.08c-.08-.05-.17.15-.18.15Z" transform="translate(0 0)"></path>
        <path class="cls-10" d="M13.2,11.76s.13.32.26.3l.27,0,0-.06-.21-.21-.18,0Z" transform="translate(0 0)"></path>
        <path class="cls-11" d="M13.2,11.72a.09.09,0,0,0,.07.12h.17l.21-.22s.06,0-.07,0-.12-.05-.22,0a.31.31,0,0,0-.16.16" transform="translate(0 0)"></path>
        <path class="cls-12" d="M13.44,11.84l.12-.17c0-.08,0-.1.13-.08s.26,0,.32.08.06.05,0,.14a.36.36,0,0,1-.21.19.21.21,0,0,1-.25,0,.46.46,0,0,1-.13-.15" transform="translate(0 0)"></path>
        <path class="cls-9" d="M17.62,13.82a1.81,1.81,0,0,0,1.78-.53c.59-.81.44-1.65.14-1.77a2.61,2.61,0,0,0-.5-.08c-.34,0-.35.79-.36.81Z" transform="translate(0 0)"></path>
        <path class="cls-10" d="M16.52,13.19s1,.88,1.44.59a10,10,0,0,1,.89-.56l0-.27a3.75,3.75,0,0,0-1.11-.34c-.2.07-.55.22-.64.24a4.56,4.56,0,0,0-.55.34" transform="translate(0 0)"></path>
        <path class="cls-11" d="M16.45,13c0,.11.15.4.46.29a4,4,0,0,0,.6-.28s.27-1,.34-1.11.16-.23-.29-.06-.51.06-.81.36a1.25,1.25,0,0,0-.3.8" transform="translate(0 0)"></path>
        <path class="cls-12" d="M17.51,13.05a5.78,5.78,0,0,0,.12-.8c0-.35,0-.44.31-.5s.94-.4,1.26-.29.29.09.3.49a1.41,1.41,0,0,1-.4,1,.81.81,0,0,1-.86.39,2,2,0,0,1-.73-.3" transform="translate(0 0)"></path>
        <path class="cls-9" d="M12.16,13.14a1.21,1.21,0,0,0,1.24,0c.53-.42.58-1,.42-1.12a2,2,0,0,0-.32-.14c-.2-.09-.36.45-.37.46Z" transform="translate(0 0)"></path>
        <path class="cls-10" d="M11.57,12.53s.5.75.82.64.67-.2.67-.2l0-.18s-.51-.42-.65-.41-.4,0-.46,0Z" transform="translate(0 0)"></path>
        <path class="cls-11" d="M11.55,12.42c0,.08,0,.29.24.27a2.32,2.32,0,0,0,.44-.07s.34-.56.42-.66.14-.11-.18-.08-.34-.05-.58.08a.81.81,0,0,0-.34.46" transform="translate(0 0)"></path>
        <path class="cls-12" d="M12.23,12.62a4,4,0,0,0,.22-.49c.08-.23.08-.29.29-.27s.68-.09.86,0,.18.11.11.37a.92.92,0,0,1-.44.58.55.55,0,0,1-.62.1,1.31,1.31,0,0,1-.42-.33" transform="translate(0 0)"></path>
      </g>
    </g>
  </g>
</svg>
