<?xml version="1.0" encoding="UTF-8"?>
<svg xmlns="http://www.w3.org/2000/svg" viewBox="0 0 92.72 224">
  <defs>
    <style>.cls-1{fill:#a0cae7;}.cls-2{fill:#d0e6f5;}.cls-3{fill:#b8d8ee;}.cls-4{fill:#85563a;}.cls-5{fill:#8e6848;}.cls-6{fill:#713e21;}.cls-7{fill:#9b714f;}.cls-8{fill:#3d271f;}.cls-9{fill:#69391e;}.cls-10{fill:#6b482f;}.cls-11{fill:#5c3624;}.cls-12{fill:#795135;}.cls-13{fill:#9a734f;}</style>
  </defs>
  <g id="Слой_2" data-name="Слой 2">
    <g id="Слой_1-2" data-name="Слой 1">
      <path class="cls-1" d="M32.26,41.32s-9.85,10-5,15.32,12.14.47,9.43-6.65C34.24,43.61,32.26,41.32,32.26,41.32Z"></path>
      <path class="cls-2" d="M29,50.66c.34-1,1.11-3.37,1.41-4.22a22.39,22.39,0,0,1,1.33-2.75s1-1.81-1.45.78-3.88,7.37-3.16,7.64S28.67,51.66,29,50.66Z"></path>
      <path class="cls-3" d="M34.51,54.1c-.29,1-.15,1.87.31,2a1.78,1.78,0,0,0,1.79-1.33,1.82,1.82,0,0,0-.75-2.19C35.4,52.48,34.8,53.12,34.51,54.1Z"></path>
      <path class="cls-1" d="M48.69,41.32s-9.85,10-5,15.32,12.13.47,9.43-6.65C50.66,43.61,48.69,41.32,48.69,41.32Z"></path>
      <path class="cls-2" d="M45.43,50.66c.34-1,1.11-3.37,1.41-4.22a23.46,23.46,0,0,1,1.34-2.75s.94-1.81-1.45.78-3.89,7.37-3.16,7.64S45.1,51.66,45.43,50.66Z"></path>
      <path class="cls-3" d="M50.94,54.1c-.29,1-.16,1.87.3,2A1.77,1.77,0,0,0,53,54.77a1.83,1.83,0,0,0-.74-2.19C51.82,52.48,51.22,53.12,50.94,54.1Z"></path>
      <path class="cls-1" d="M65.11,41.32s-9.85,10-5,15.32,12.14.47,9.43-6.65C67.09,43.61,65.11,41.32,65.11,41.32Z"></path>
      <path class="cls-2" d="M61.86,50.66c.34-1,1.11-3.37,1.41-4.22a22.39,22.39,0,0,1,1.33-2.75s1-1.81-1.45.78S59.27,51.84,60,52.11,61.52,51.66,61.86,50.66Z"></path>
      <path class="cls-3" d="M67.36,54.1c-.29,1-.15,1.87.31,2a1.78,1.78,0,0,0,1.79-1.33,1.82,1.82,0,0,0-.75-2.19C68.25,52.48,67.65,53.12,67.36,54.1Z"></path>
      <path class="cls-1" d="M42.33,19.48s-9.84,10-5,15.33,12.13.46,9.43-6.65C44.31,21.78,42.33,19.48,42.33,19.48Z"></path>
      <path class="cls-2" d="M39.08,28.82c.34-1,1.11-3.37,1.41-4.22a21.87,21.87,0,0,1,1.34-2.75s.94-1.8-1.46.79S36.49,30,37.22,30.28,38.75,29.83,39.08,28.82Z"></path>
      <path class="cls-3" d="M44.58,32.26c-.28,1-.15,1.87.31,2a1.77,1.77,0,0,0,1.79-1.33,1.83,1.83,0,0,0-.74-2.19C45.47,30.65,44.87,31.29,44.58,32.26Z"></path>
      <path class="cls-1" d="M58.76,19.48s-9.85,10-5,15.33,12.13.46,9.43-6.65C60.74,21.78,58.76,19.48,58.76,19.48Z"></path>
      <path class="cls-2" d="M55.51,28.82c.34-1,1.1-3.37,1.41-4.22a22.39,22.39,0,0,1,1.33-2.75s1-1.8-1.45.79S52.92,30,53.64,30.28,55.17,29.83,55.51,28.82Z"></path>
      <path class="cls-3" d="M61,32.26c-.29,1-.15,1.87.31,2a1.78,1.78,0,0,0,1.79-1.33,1.82,1.82,0,0,0-.75-2.19C61.89,30.65,61.3,31.29,61,32.26Z"></path>
      <path class="cls-1" d="M51.41,0s-9.85,10-5,15.32,12.14.47,9.43-6.64C53.39,2.3,51.41,0,51.41,0Z"></path>
      <path class="cls-2" d="M48.16,9.34c.34-1,1.11-3.37,1.41-4.22A22.39,22.39,0,0,1,50.9,2.37s1-1.81-1.45.79-3.88,7.36-3.16,7.64S47.82,10.35,48.16,9.34Z"></path>
      <path class="cls-3" d="M53.66,12.78c-.29,1-.15,1.87.31,2a1.79,1.79,0,0,0,1.79-1.33,1.83,1.83,0,0,0-.75-2.2C54.55,11.16,54,11.81,53.66,12.78Z"></path>
      <polygon class="cls-4" points="6.5 204.19 48.58 224 87.5 204.29 47.04 187.14 6.5 204.19"></polygon>
      <polygon class="cls-4" points="0 147.99 48.58 168.29 92.72 149.57 48.58 134 0 147.99"></polygon>
      <path class="cls-5" d="M48.58,168.29v25.5S62,183.88,67.46,183.38s16.08,20.41,20,20.91l5.22-54.72Z"></path>
      <path class="cls-6" d="M3.55,178.43l3,25.76L48.58,224V193.79s-23.23-9.91-25.71-13.38S3.55,178.43,3.55,178.43Z"></path>
      <path class="cls-7" d="M0,148l3.55,30.44s4.54.36,9.42.5c6.11.16,11.88,4.12,16.51,8.75,5.37,5.37,19.1,6.11,19.1,6.11v-25.5Z"></path>
      <path class="cls-8" d="M32.38,197a2,2,0,0,0-.1-.75h0s-.32-.84-1.07-.87-1.2.43-1.15.66a1.7,1.7,0,0,0,.16.35h0a6.83,6.83,0,0,0,.63.53A.35.35,0,0,0,31,197a.69.69,0,0,0,.12.1c.29.2.26.28.56.35a.93.93,0,0,0,.62-.16.54.54,0,0,0,.06-.11h0A.22.22,0,0,0,32.38,197Z"></path>
      <path class="cls-8" d="M14,193.51a3.69,3.69,0,0,0-1.26.68h0a2.57,2.57,0,0,0-.77,2.5c.49,1.34,1.59,1.82,2,1.57a4.74,4.74,0,0,0,.49-.54s0,0,0,0a11.07,11.07,0,0,0,.48-1.49.68.68,0,0,0,.08-.26c0-.07,0-.15.07-.28.16-.66.33-.65.22-1.23a1.74,1.74,0,0,0-.71-1,1.17,1.17,0,0,0-.23,0h0A.42.42,0,0,0,14,193.51Z"></path>
      <path class="cls-8" d="M43.68,210.64a9.22,9.22,0,0,0-1.6-3.21h0s-2.79-3.29-6.19-2.19-4.71,3.83-4.12,4.79a13,13,0,0,0,1.29,1.28s.08,0,.11,0c1,.64,2.86,1,3.68,1.36a2.08,2.08,0,0,0,.65.21l.71.22c1.63.45,1.6.87,3.06.66a4.31,4.31,0,0,0,2.51-1.68,2.49,2.49,0,0,0,.11-.58h0l0-.06A1.06,1.06,0,0,0,43.68,210.64Z"></path>
      <path class="cls-8" d="M21.69,199.45a6.93,6.93,0,0,0-1.57,2.27l0,0s-1.18,3.09.82,5,4.3,1.75,4.73,1a10.65,10.65,0,0,0,.38-1.34s0-.05,0-.08a23.14,23.14,0,0,0-.44-3,1.63,1.63,0,0,0-.09-.52c0-.14-.06-.3-.12-.55-.29-1.26,0-1.4-.68-2.31a3.32,3.32,0,0,0-2.06-1.06,2.59,2.59,0,0,0-.43.14h0l0,0A.83.83,0,0,0,21.69,199.45Z"></path>
      <path class="cls-9" d="M48.58,193.79S58,180.41,68.94,180.08s21.63-8.25,21.63-8.25L87.5,204.29,48.58,224Z"></path>
      <path class="cls-8" d="M62.46,198.88A9.09,9.09,0,0,0,59.08,200v0s-3.62,2.27-3,5.76,3.08,5.16,4.11,4.72a13,13,0,0,0,1.44-1.08s0-.08,0-.11c.77-.89,1.34-2.66,1.86-3.42a1.75,1.75,0,0,0,.3-.6c.09-.17.17-.36.31-.67.68-1.53,1.08-1.44,1.09-2.91A4.28,4.28,0,0,0,63.9,199a3.58,3.58,0,0,0-.56-.19h-.06A1,1,0,0,0,62.46,198.88Z"></path>
      <path class="cls-8" d="M80.34,197.83a2.66,2.66,0,0,0-1-.26h0a2,2,0,0,0-1.72,1c-.41,1,0,1.83.3,1.88a3,3,0,0,0,.55,0s0,0,0,0a8.8,8.8,0,0,0,1-.58.57.57,0,0,0,.18-.1l.19-.12c.42-.29.51-.2.75-.58a1.34,1.34,0,0,0,.11-.91l-.12-.13h0A.31.31,0,0,0,80.34,197.83Z"></path>
      <path class="cls-8" d="M77.11,188.45a7,7,0,0,0-2.39-1.4v0s-3.18-.95-4.92,1.19-1.44,4.45-.65,4.83a9.92,9.92,0,0,0,1.37.29s0,0,.08,0a24,24,0,0,0,3-.67,1.55,1.55,0,0,0,.51-.13l.55-.16c1.25-.39,1.4-.11,2.27-.86a3.34,3.34,0,0,0,.91-2.14,2.51,2.51,0,0,0-.17-.43h0l0,0A.86.86,0,0,0,77.11,188.45Z"></path>
      <path class="cls-10" d="M45.63,156.31a1.35,1.35,0,0,0-1.29-.47c-.72.22-1,.78-.88,1a3.4,3.4,0,0,0,.27.27c.18.17.56-.32.57-.33Z"></path>
      <path class="cls-11" d="M46,157.17s-.22-1-.59-1a7.74,7.74,0,0,1-.78-.07l-.1.18s.36.64.51.69l.48.14A3.18,3.18,0,0,0,46,157.17Z"></path>
      <path class="cls-12" d="M46,157.29a.25.25,0,0,0-.14-.37,3.22,3.22,0,0,0-.47-.1s-.59.44-.7.51-.2.06.14.16.33.19.64.15A.9.9,0,0,0,46,157.29Z"></path>
      <path class="cls-13" d="M45.36,156.82a4.44,4.44,0,0,0-.43.42c-.17.2-.2.26-.41.16s-.74-.18-.88-.38-.13-.19,0-.43a1,1,0,0,1,.69-.42.61.61,0,0,1,.68.14A1.66,1.66,0,0,1,45.36,156.82Z"></path>
      <path class="cls-10" d="M42.7,139.77a2,2,0,0,0-2-.29c-1,.54-1.19,1.43-1,1.69a4,4,0,0,0,.46.31c.31.19.7-.63.72-.64Z"></path>
      <path class="cls-11" d="M43.49,140.89s-.62-1.33-1.15-1.23-1.14.14-1.14.14l-.09.28s.71.81.94.84.65,0,.75.06A5.09,5.09,0,0,0,43.49,140.89Z"></path>
      <path class="cls-12" d="M43.49,141.07c0-.13,0-.47-.32-.5a5.74,5.74,0,0,0-.71,0s-.7.81-.85.95-.26.14.26.18.53.17,1,0A1.35,1.35,0,0,0,43.49,141.07Z"></path>
      <path class="cls-13" d="M42.46,140.58a5.76,5.76,0,0,0-.49.73c-.18.34-.21.44-.53.36s-1.12,0-1.38-.29-.25-.22-.08-.62a1.53,1.53,0,0,1,.86-.81.88.88,0,0,1,1,0A2.21,2.21,0,0,1,42.46,140.58Z"></path>
      <path class="cls-10" d="M38.74,145.84s-4.12-2.06-7,.45-3,5.74-2,6.43a13.55,13.55,0,0,0,1.81.72c1.19.44,1.93-2.65,2-2.7S38.74,145.84,38.74,145.84Z"></path>
      <path class="cls-11" d="M42.26,149.09s-3.06-4.09-4.8-3.38-3.78,1.3-3.78,1.3l-.11,1s3,2.23,3.8,2.17,2.23-.33,2.58-.34A17.38,17.38,0,0,0,42.26,149.09Z"></path>
      <path class="cls-12" d="M42.37,149.71c0-.45-.2-1.62-1.43-1.46a17.18,17.18,0,0,0-2.43.52s-1.8,3.27-2.2,3.83-.77.68,1,.45,1.93.19,3.29-.63A4.64,4.64,0,0,0,42.37,149.71Z"></path>
      <path class="cls-13" d="M38.51,148.77a20.31,20.31,0,0,0-1.13,2.84c-.37,1.3-.39,1.65-1.57,1.59s-3.82.7-4.88,0-1-.57-.71-2.08,1-2.21,2.33-3.38A3.08,3.08,0,0,1,36,147,7.89,7.89,0,0,1,38.51,148.77Z"></path>
      <path class="cls-10" d="M53,146.7s-3.45-2-6.1,0-3,4.8-2.15,5.46a10.33,10.33,0,0,0,1.52.74c1,.45,1.83-2.19,1.89-2.23S53,146.7,53,146.7Z"></path>
      <path class="cls-11" d="M55.84,149.74s-2.41-3.74-4-3.22-3.36.89-3.36.89l-.16.9s2.48,2.12,3.17,2.11,1.95-.15,2.26-.13A17,17,0,0,0,55.84,149.74Z"></path>
      <path class="cls-12" d="M55.91,150.28c0-.39-.09-1.42-1.16-1.35a14.81,14.81,0,0,0-2.14.3s-1.76,2.73-2.14,3.19-.72.55.85.46,1.67.28,2.9-.35A4.08,4.08,0,0,0,55.91,150.28Z"></path>
      <path class="cls-13" d="M52.61,149.23a18.41,18.41,0,0,0-1.15,2.4c-.4,1.1-.44,1.41-1.46,1.29s-3.36.37-4.24-.27-.84-.56-.5-1.85A4.76,4.76,0,0,1,47.5,148a2.68,2.68,0,0,1,3.07-.43A7,7,0,0,1,52.61,149.23Z"></path>
      <path class="cls-10" d="M62.13,143.05s-3.4-2.63-6.49-.85-3.81,4.71-3,5.53a11.52,11.52,0,0,0,1.52,1c1,.61,2.25-2.09,2.32-2.12S62.13,143.05,62.13,143.05Z"></path>
      <path class="cls-11" d="M64.77,146.67s-2.06-4.31-3.79-4-3.69.5-3.69.5l-.3.93s2.36,2.6,3.1,2.68,2.1.1,2.42.16A16.7,16.7,0,0,0,64.77,146.67Z"></path>
      <path class="cls-12" d="M64.77,147.26c0-.42.1-1.53-1.06-1.6a16.26,16.26,0,0,0-2.32,0s-2.24,2.68-2.71,3.12-.83.49.86.6,1.74.52,3.13,0A4.35,4.35,0,0,0,64.77,147.26Z"></path>
      <path class="cls-13" d="M61.39,145.69a19,19,0,0,0-1.54,2.41c-.58,1.12-.66,1.44-1.73,1.17s-3.63-.05-4.48-.85-.82-.71-.28-2,1.3-1.84,2.75-2.67a2.87,2.87,0,0,1,3.34,0A7.33,7.33,0,0,1,61.39,145.69Z"></path>
      <path class="cls-10" d="M64.78,154.07a2.07,2.07,0,0,0,1.89-.94c.51-1,.17-1.94-.18-2-.1,0-.4,0-.58,0-.39,0-.23,1-.25,1S64.78,154.07,64.78,154.07Z"></path>
      <path class="cls-11" d="M63.43,153.57s1.32.79,1.72.39.9-.8.9-.8l-.09-.3a4,4,0,0,0-1.31-.16c-.21.11-.58.34-.68.38S63.43,153.57,63.43,153.57Z"></path>
      <path class="cls-12" d="M63.32,153.41c.06.12.25.43.57.24a4.76,4.76,0,0,0,.61-.42s.12-1.12.17-1.32.14-.28-.33,0-.56.17-.84.56A1.34,1.34,0,0,0,63.32,153.41Z"></path>
      <path class="cls-13" d="M64.5,153.23a7.08,7.08,0,0,0,0-.92c0-.4-.09-.5.25-.62s1-.64,1.35-.57.35,0,.44.49a1.67,1.67,0,0,1-.26,1.21.91.91,0,0,1-.88.6A2.33,2.33,0,0,1,64.5,153.23Z"></path>
      <path class="cls-10" d="M32.33,154.8a2.64,2.64,0,0,0,2.49-1c.74-1.27.4-2.46,0-2.59a5,5,0,0,0-.74,0c-.49,0-.38,1.2-.4,1.23Z"></path>
      <path class="cls-11" d="M30.66,154.05s1.61,1.11,2.16.64,1.21-.94,1.21-.94l-.09-.39a5.4,5.4,0,0,0-1.65-.32c-.28.12-.76.39-.89.44A6,6,0,0,0,30.66,154.05Z"></path>
      <path class="cls-12" d="M30.54,153.84c.07.16.27.56.7.35a5.82,5.82,0,0,0,.82-.48s.25-1.41.33-1.66.19-.35-.43,0-.72.17-1.12.63A1.77,1.77,0,0,0,30.54,153.84Z"></path>
      <path class="cls-13" d="M32.06,153.71a8.89,8.89,0,0,0,.06-1.17c0-.52-.06-.65.37-.77s1.31-.73,1.78-.61.43.08.51.66a2.09,2.09,0,0,1-.44,1.52,1.15,1.15,0,0,1-1.17.69A3,3,0,0,1,32.06,153.71Z"></path>
      <path class="cls-10" d="M43.74,148.29a1.54,1.54,0,0,0,1.54.27c.76-.4,1-1.09.78-1.29a4.12,4.12,0,0,0-.36-.25c-.23-.16-.55.48-.57.48Z"></path>
      <path class="cls-11" d="M43.15,147.4s.45,1,.86,1,.89-.08.89-.08l.08-.22s-.54-.64-.71-.67-.5,0-.58-.06A3.69,3.69,0,0,0,43.15,147.4Z"></path>
      <path class="cls-12" d="M43.16,147.26c0,.1,0,.36.23.39a4.5,4.5,0,0,0,.56,0s.56-.62.67-.72.21-.1-.19-.15-.41-.14-.75,0A1,1,0,0,0,43.16,147.26Z"></path>
      <path class="cls-13" d="M44,147.67a5.44,5.44,0,0,0,.39-.56c.15-.26.17-.34.42-.26s.87.05,1.06.25.19.17,0,.49a1.22,1.22,0,0,1-.69.6.67.67,0,0,1-.79,0A1.67,1.67,0,0,1,44,147.67Z"></path>
      <path class="cls-10" d="M57.61,154.15s3.88.94,5.82-1.73,1.44-5.41.48-5.81a11.67,11.67,0,0,0-1.66-.26c-1.09-.14-1.12,2.61-1.17,2.66S57.61,154.15,57.61,154.15Z"></path>
      <path class="cls-11" d="M54,152.09S57.39,155,58.72,154s2.93-1.82,2.93-1.82l-.1-.9s-3-1.3-3.62-1.09-1.82.7-2.11.77A15.59,15.59,0,0,0,54,152.09Z"></path>
      <path class="cls-12" d="M53.81,151.58c.12.38.48,1.33,1.49,1a15.16,15.16,0,0,0,2-.9s.89-3.11,1.11-3.66.52-.72-.94-.18-1.67.21-2.65,1.16A4,4,0,0,0,53.81,151.58Z"></path>
      <path class="cls-13" d="M57.25,151.64a19.45,19.45,0,0,0,.4-2.62c.06-1.16,0-1.47,1-1.64s3.1-1.33,4.12-1,1,.29,1,1.61a4.79,4.79,0,0,1-1.32,3.3,2.67,2.67,0,0,1-2.8,1.29A6.91,6.91,0,0,1,57.25,151.64Z"></path>
      <path class="cls-10" d="M39.77,151.91s2.32,1.31,4-.06,1.91-3.23,1.36-3.66a8.83,8.83,0,0,0-1-.46c-.67-.29-1.19,1.48-1.23,1.5S39.77,151.91,39.77,151.91Z"></path>
      <path class="cls-11" d="M37.83,149.93s1.65,2.46,2.67,2.09,2.22-.64,2.22-.64l.1-.6s-1.68-1.37-2.14-1.36-1.29.13-1.49.12A9.79,9.79,0,0,0,37.83,149.93Z"></path>
      <path class="cls-12" d="M37.78,149.57c0,.26.07,1,.79.89a10.65,10.65,0,0,0,1.41-.23s1.14-1.84,1.38-2.15.47-.38-.57-.29-1.11-.17-1.92.27A2.63,2.63,0,0,0,37.78,149.57Z"></path>
      <path class="cls-13" d="M40,150.23a12.82,12.82,0,0,0,.74-1.61c.25-.74.27-1,1-.88s2.23-.29,2.82.13.57.36.35,1.22A3.17,3.17,0,0,1,43.4,151a1.77,1.77,0,0,1-2,.32A4.63,4.63,0,0,1,40,150.23Z"></path>
    </g>
  </g>
</svg>
