<?xml version="1.0" encoding="UTF-8"?>
<svg xmlns="http://www.w3.org/2000/svg" xmlns:xlink="http://www.w3.org/1999/xlink" viewBox="0 0 28.36 39.43">
  <defs>
    <style>.cls-1{fill:none;}.cls-2{clip-path:url(#clip-path);}.cls-3{fill:#8e6848;}.cls-4{clip-path:url(#clip-path-2);}.cls-5{fill:url(#Безымянный_градиент_2);}.cls-6{fill:#713e21;}.cls-7{fill:#3d271f;}.cls-8{fill:#69391e;}.cls-9{fill:#6b472f;}.cls-10{fill:#5c3624;}.cls-11{fill:#795135;}.cls-12{fill:#9a734f;}.cls-13{fill:#d0c5a6;}.cls-14{fill:#85563a;}.cls-15{fill:#7fb943;}.cls-16{fill:#92bf3a;}.cls-17{fill:#486f3a;}.cls-18{fill:#6d9633;}</style>
    <clipPath id="clip-path" transform="translate(0)">
      <rect class="cls-1" width="28.36" height="38.11"></rect>
    </clipPath>
    <clipPath id="clip-path-2" transform="translate(0)">
      <polygon class="cls-1" points="1.99 32.05 14.86 38.11 26.76 32.08 14.38 26.84 1.99 32.05"></polygon>
    </clipPath>
    <linearGradient id="Безымянный_градиент_2" x1="-2422.5" y1="-786.14" x2="-2421.78" y2="-786.14" gradientTransform="matrix(34.36, 0, 0, -34.36, 83227.34, -26976.47)" gradientUnits="userSpaceOnUse">
      <stop offset="0" stop-color="#9b714e"></stop>
      <stop offset="0.38" stop-color="#9b714e"></stop>
      <stop offset="0.89" stop-color="#764528"></stop>
      <stop offset="1" stop-color="#6e3c20"></stop>
    </linearGradient>
  </defs>
  <g id="Слой_2" data-name="Слой 2">
    <g id="Слой_1-2" data-name="Слой 1">
      <g class="cls-2">
        <path class="cls-3" d="M14.86,21.07s2.47,2.91,4.39,3,8.45-2,8.45-2l.66-6.8-13.5-4.77Z" transform="translate(0)"></path>
        <path class="cls-3" d="M0,14.86l1.35,8.88s4.78.72,5.62.48,4.66-1.68,5.74-1.68,2.14-1.47,2.14-1.47V10.58Z" transform="translate(0)"></path>
      </g>
      <g class="cls-4">
        <rect class="cls-5" x="8.08" y="19.8" width="12.58" height="25.34" transform="matrix(0.05, -1, 1, 0.05, -18.82, 45.08)"></rect>
      </g>
      <g class="cls-2">
        <path class="cls-6" d="M2,32.05l-.64-8.31s6.1-.12,7.77-1a35.9,35.9,0,0,1,5.74-1.71l-.48,5.77Z" transform="translate(0)"></path>
        <path class="cls-7" d="M10.68,24.26a2,2,0,0,0-.73-.43h0a1.52,1.52,0,0,0-1.51.37c-.53.65-.44,1.36-.2,1.47a2.73,2.73,0,0,0,.42.09h0a6.64,6.64,0,0,0,.9-.21.34.34,0,0,0,.16,0l.16,0c.38-.12.43,0,.69-.27a1,1,0,0,0,.28-.65l-.05-.13h0a.22.22,0,0,0-.15-.13" transform="translate(0)"></path>
        <path class="cls-7" d="M5.46,25.11a2.8,2.8,0,0,0-1,.35h0a1.94,1.94,0,0,0-.92,1.76c.18,1.07.94,1.58,1.26,1.44a3.54,3.54,0,0,0,.44-.33v0a9.11,9.11,0,0,0,.56-1.05.55.55,0,0,0,.1-.18l.09-.2c.21-.47.33-.44.34-.89a1.34,1.34,0,0,0-.4-.83l-.17-.06h0a.32.32,0,0,0-.25,0" transform="translate(0)"></path>
        <path class="cls-8" d="M14.86,21.07l-.48,5.77,12.38,5.24.94-9.93a32.42,32.42,0,0,0-5.54-.2c-1.67.24-4.59.95-5.46.48a11.42,11.42,0,0,1-1.84-1.36" transform="translate(0)"></path>
        <path class="cls-7" d="M10.14,27a1.07,1.07,0,0,0-.32-.08h0a.58.58,0,0,0-.52.31c-.13.3,0,.56.09.57h.17a3.1,3.1,0,0,0,.32-.17l0,0,.06,0c.13-.09.16-.07.23-.18a.43.43,0,0,0,0-.28l0,0h0Z" transform="translate(0)"></path>
        <path class="cls-7" d="M22.27,24.51a.63.63,0,0,0,0-.23h0s-.1-.26-.33-.26-.37.13-.35.2l.05.1h0l.19.16,0,0,0,0c.09.07.08.09.17.11a.26.26,0,0,0,.19,0l0,0h0Z" transform="translate(0)"></path>
        <path class="cls-7" d="M25.72,28.68a2.74,2.74,0,0,0-.49-1h0A2,2,0,0,0,23.35,27c-1,.33-1.44,1.16-1.26,1.46a3.54,3.54,0,0,0,.39.39h0a9.76,9.76,0,0,0,1.12.41.8.8,0,0,0,.2.07l.22.06c.49.14.48.27.93.21a1.37,1.37,0,0,0,.77-.52.74.74,0,0,0,0-.18h0a.29.29,0,0,0-.07-.25" transform="translate(0)"></path>
        <path class="cls-7" d="M19,25.26a2.14,2.14,0,0,0-.48.69h0a1.49,1.49,0,0,0,.25,1.51c.61.58,1.32.54,1.45.31,0-.06.08-.28.12-.41v0a7,7,0,0,0-.14-.91.35.35,0,0,0,0-.16s0-.09,0-.17c-.09-.39,0-.43-.21-.7a1,1,0,0,0-.63-.33l-.13,0h0a.24.24,0,0,0-.14.14" transform="translate(0)"></path>
        <path class="cls-9" d="M19,32.31a.42.42,0,0,0,.41-.11c.14-.18.11-.37,0-.4l-.11,0c-.08,0-.08.18-.09.18Z" transform="translate(0)"></path>
        <path class="cls-10" d="M18.8,32.16s.23.2.32.14l.21-.12v-.06L19.07,32l-.14.05Z" transform="translate(0)"></path>
        <path class="cls-11" d="M18.79,32.12s0,.1.1.07l.13,0,.09-.25s0-.05-.07,0-.11,0-.18.08a.25.25,0,0,0-.07.17" transform="translate(0)"></path>
        <path class="cls-12" d="M19,32.14a1.34,1.34,0,0,0,0-.18c0-.08,0-.1.07-.11s.22-.09.29-.06.06,0,.06.11a.3.3,0,0,1-.1.22.17.17,0,0,1-.19.09.48.48,0,0,1-.17-.07" transform="translate(0)"></path>
        <path class="cls-9" d="M16.29,30.73a.93.93,0,0,0,.84-.43c.22-.46.06-.86-.09-.9a2.54,2.54,0,0,0-.26,0c-.17,0-.1.43-.1.44Z" transform="translate(0)"></path>
        <path class="cls-10" d="M15.69,30.52s.59.34.77.16a4.87,4.87,0,0,1,.39-.36l0-.14a1.91,1.91,0,0,0-.58-.06c-.1.05-.26.16-.3.18Z" transform="translate(0)"></path>
        <path class="cls-11" d="M15.64,30.45c0,.05.11.19.26.1a2.08,2.08,0,0,0,.27-.19s0-.5.06-.59.06-.12-.15,0-.25.08-.37.25a.65.65,0,0,0-.07.43" transform="translate(0)"></path>
        <path class="cls-12" d="M16.17,30.36a2.36,2.36,0,0,0,0-.41c0-.18,0-.22.11-.28s.43-.29.6-.26.15,0,.2.21a.77.77,0,0,1-.11.54.4.4,0,0,1-.39.28,1.1,1.1,0,0,1-.39-.08" transform="translate(0)"></path>
        <path class="cls-9" d="M13.73,32.73a.88.88,0,0,0,.91.11c.43-.25.53-.66.42-.78a1.83,1.83,0,0,0-.22-.13c-.14-.09-.31.29-.32.3Z" transform="translate(0)"></path>
        <path class="cls-10" d="M13.35,32.23s.3.6.54.55.52-.08.52-.08l0-.13s-.34-.36-.44-.37l-.34,0Z" transform="translate(0)"></path>
        <path class="cls-11" d="M13.35,32.15c0,.05,0,.21.15.22a2,2,0,0,0,.33,0l.37-.44c.07-.06.12-.07-.11-.08s-.25-.07-.44,0a.6.6,0,0,0-.3.31" transform="translate(0)"></path>
        <path class="cls-12" d="M13.83,32.36A3,3,0,0,0,14,32c.08-.15.09-.2.24-.16s.51,0,.63.11.12.1,0,.28-.18.26-.38.38a.41.41,0,0,1-.47,0,1,1,0,0,1-.27-.28" transform="translate(0)"></path>
        <path class="cls-9" d="M12.62,31.07a.68.68,0,0,0,0-.7c-.22-.31-.54-.36-.62-.26l-.09.17c-.06.11.24.22.25.22Z" transform="translate(0)"></path>
        <path class="cls-10" d="M12.26,31.39s.44-.26.39-.44a2.6,2.6,0,0,1-.09-.39l-.11,0s-.25.27-.25.35,0,.23,0,.26Z" transform="translate(0)"></path>
        <path class="cls-11" d="M12.2,31.4c.05,0,.17,0,.16-.13a1.17,1.17,0,0,0,0-.25L12,30.76c-.05,0-.06-.08-.05.1s0,.19,0,.34a.48.48,0,0,0,.25.2" transform="translate(0)"></path>
        <path class="cls-12" d="M12.33,31a1.77,1.77,0,0,0-.27-.14c-.12-.05-.16-.05-.14-.17s0-.39,0-.49.07-.09.22,0a.54.54,0,0,1,.31.27.31.31,0,0,1,0,.35.69.69,0,0,1-.2.23" transform="translate(0)"></path>
        <path class="cls-9" d="M10.44,31.59a.3.3,0,0,0,.1-.29c0-.15-.18-.21-.22-.18l-.06.05.07.13Z" transform="translate(0)"></path>
        <path class="cls-10" d="M10.25,31.68s.22-.06.22-.14,0-.17,0-.17l0,0-.15.11,0,.11Z" transform="translate(0)"></path>
        <path class="cls-11" d="M10.23,31.67l.08,0,0-.11-.12-.15s0,0,0,0,0,.08,0,.15a.17.17,0,0,0,.08.11" transform="translate(0)"></path>
        <path class="cls-12" d="M10.33,31.53l-.1-.09,0-.09.08-.19h.09a.23.23,0,0,1,.1.15c0,.08,0,.11,0,.15Z" transform="translate(0)"></path>
        <path class="cls-9" d="M9.77,32.8a1.18,1.18,0,0,0,0-1.22c-.39-.54-.94-.62-1.08-.46a2.09,2.09,0,0,0-.15.3c-.1.2.42.38.43.39Z" transform="translate(0)"></path>
        <path class="cls-10" d="M9.16,33.35s.75-.46.66-.77-.17-.68-.17-.68l-.17,0s-.44.48-.44.62,0,.39,0,.45Z" transform="translate(0)"></path>
        <path class="cls-11" d="M9.05,33.36c.07,0,.28,0,.27-.22a3.46,3.46,0,0,0-.05-.43l-.62-.44c-.1-.08-.11-.15-.1.16s-.06.34.06.58a.8.8,0,0,0,.44.35" transform="translate(0)"></path>
        <path class="cls-12" d="M9.27,32.71a2.88,2.88,0,0,0-.47-.24c-.22-.09-.28-.1-.25-.3s-.06-.67.07-.84.12-.17.37-.09a.9.9,0,0,1,.55.46.52.52,0,0,1,.07.61,1.38,1.38,0,0,1-.34.4" transform="translate(0)"></path>
        <path class="cls-13" d="M14.59,18.37A12.07,12.07,0,0,0,11,28.31c0,.19.31.19.29,0a11.79,11.79,0,0,1,3.55-9.73c.14-.13-.07-.34-.21-.21" transform="translate(0)"></path>
        <path class="cls-13" d="M14.62,17.48c-.2,2-.35,4.07-.36,6.11a5.56,5.56,0,0,0,.38,2.32,18.88,18.88,0,0,1,1.26,2.5.14.14,0,0,0,.28-.07,9.78,9.78,0,0,0-1-2.1,5.47,5.47,0,0,1-.59-2.84c0-2,.17-3.95.36-5.92,0-.19-.27-.19-.29,0" transform="translate(0)"></path>
        <path class="cls-13" d="M14.77,17.49a16.17,16.17,0,0,0,.68,2.89A5.25,5.25,0,0,1,15,24.09c-1,2.1-2.31,4.12-3.46,6.16-.09.17.16.32.25.15l1.88-3.32a36.11,36.11,0,0,0,1.77-3.23A5.43,5.43,0,0,0,15.87,21c-.17-1.19-.73-2.28-.81-3.49,0-.19-.3-.19-.29,0" transform="translate(0)"></path>
        <path class="cls-13" d="M14.61,17.84A3.32,3.32,0,0,0,15,19.49a2.18,2.18,0,0,1-.34,2c-.85,1.21-1.8,2.35-2.69,3.52-.12.15.14.3.25.15l1.41-1.84c.45-.59.94-1.16,1.35-1.78a2.43,2.43,0,0,0,.43-1.69c-.1-.66-.61-1.27-.5-2,0-.19-.25-.27-.28-.08" transform="translate(0)"></path>
        <path class="cls-13" d="M14.81,18.88a7.11,7.11,0,0,1,.78,3.76,6.71,6.71,0,0,1-1.25,3A8.51,8.51,0,0,0,13.08,28a7.39,7.39,0,0,0,.07,3.24c0,.18.31.11.28-.08a6.19,6.19,0,0,1,.26-3.92c.46-.92,1.13-1.72,1.6-2.63a6.51,6.51,0,0,0-.22-5.89c-.09-.17-.34,0-.26.15" transform="translate(0)"></path>
        <path class="cls-13" d="M14.82,17.73a3.16,3.16,0,0,0,1.43,1.48,4.77,4.77,0,0,1,2.05,2.07,5.94,5.94,0,0,1-.05,3.21A5.42,5.42,0,0,1,17,27.19c-.12.14.08.34.21.2a5.24,5.24,0,0,0,1.21-2.45,8.57,8.57,0,0,0,.3-3.14,3.71,3.71,0,0,0-1.43-2.21c-.74-.6-1.86-1-2.21-1.94-.07-.18-.35-.1-.29.08" transform="translate(0)"></path>
        <polygon class="cls-14" points="0 14.86 14.86 21.07 28.36 15.35 14.86 10.58 0 14.86"></polygon>
        <path class="cls-15" d="M19.42,4.3c-3.51,1.68-5.17,6.62-5.17,10,0,.25,0,.48,0,.71h.14c0-.22,0-.46,0-.7,0-3.33,1.66-8.23,5.08-9.85Z" transform="translate(0)"></path>
        <path class="cls-15" d="M17.43,4.33A2,2,0,0,1,17.6,5a1.49,1.49,0,0,1-.35.89l.12.09a1.61,1.61,0,0,0,.37-1,2.16,2.16,0,0,0-.17-.76Z" transform="translate(0)"></path>
        <path class="cls-15" d="M18.33,5.72a1.2,1.2,0,0,0-.36,0,1.13,1.13,0,0,0-.7.25l.08.12A1,1,0,0,1,18,5.81a1.39,1.39,0,0,1,.33.05Z" transform="translate(0)"></path>
        <path class="cls-15" d="M10.63,5.34a7.17,7.17,0,0,1,1.84,1,6.16,6.16,0,0,1,1.76,3.8,23.89,23.89,0,0,1,.15,2.75,20.24,20.24,0,0,1-.1,2.12h.14a20.34,20.34,0,0,0,.11-2.13,24,24,0,0,0-.16-2.76,6.2,6.2,0,0,0-1.8-3.9,7.24,7.24,0,0,0-1.88-1Z" transform="translate(0)"></path>
        <path class="cls-15" d="M10.56,6.55l.16,0c.41,0,.84-.35,1.18-.34H12a2.8,2.8,0,0,1,.77.39l.08-.12A2.87,2.87,0,0,0,12,6.1l-.14,0c-.41,0-.85.35-1.18.34h-.13Z" transform="translate(0)"></path>
        <path class="cls-15" d="M12.39,4.48a2.63,2.63,0,0,0-.29,1,1.45,1.45,0,0,0,.67,1.15l.09-.12a1.3,1.3,0,0,1-.61-1,2.41,2.41,0,0,1,.28-.94Z" transform="translate(0)"></path>
        <path class="cls-16" d="M11.61,4.29a1.59,1.59,0,0,0,.46,1.23,1.2,1.2,0,0,0,.27.16,1,1,0,0,0,.8,0A2.9,2.9,0,0,0,14.25,5h-.31a2.48,2.48,0,0,0,.66-.83,3.82,3.82,0,0,1-.43,0s.5-.47.53-.7a3,3,0,0,1-.39,0,.93.93,0,0,0,.39-.54,1.29,1.29,0,0,1-.32.06,2.78,2.78,0,0,0,.15-.56l-.27.08,0-.32A1.8,1.8,0,0,1,14,2.4s-.13-.09-.1-.19-.28.07-.3.3c0,0-.25,0-.21-.24,0,0-.49.35-.49.68,0,0-.16,0-.24-.22a1.59,1.59,0,0,0-.28.8s-.28,0-.29-.17a1.92,1.92,0,0,0-.16,1.06.24.24,0,0,1-.28-.13" transform="translate(0)"></path>
        <path class="cls-17" d="M14.14,4.36a2.8,2.8,0,0,1-.82.43,1.52,1.52,0,0,1-.92,0l0-.06a2,2,0,0,0,1.71-.4" transform="translate(0)"></path>
        <path class="cls-17" d="M12.22,5.31a4.05,4.05,0,0,1,.7-1.41,10.69,10.69,0,0,1,1-1.2c-.34.4-.68.81-1,1.24a4.82,4.82,0,0,0-.75,1.37" transform="translate(0)"></path>
        <path class="cls-17" d="M13.74,5.11a1.55,1.55,0,0,1-.73.32,1.27,1.27,0,0,1-.79-.12h0a1.65,1.65,0,0,0,1.52-.2Z" transform="translate(0)"></path>
        <path class="cls-17" d="M11.84,4.66a2.36,2.36,0,0,0,.38.65,1.31,1.31,0,0,1-.38-.65" transform="translate(0)"></path>
        <path class="cls-17" d="M12.13,4a2.4,2.4,0,0,0,0,.46.51.51,0,0,0,.25.35l0,.06a.53.53,0,0,1-.25-.4,1.87,1.87,0,0,1,0-.47" transform="translate(0)"></path>
        <path class="cls-17" d="M12.82,4.08a1.33,1.33,0,0,0,1.29-.27,1.36,1.36,0,0,1-1.3.33Z" transform="translate(0)"></path>
        <path class="cls-17" d="M12.54,3.28a1.78,1.78,0,0,0,0,.46.43.43,0,0,0,.25.34v.06a.46.46,0,0,1-.27-.39,1.85,1.85,0,0,1,0-.47" transform="translate(0)"></path>
        <path class="cls-17" d="M13.07,3.71a2.15,2.15,0,0,1,.18-1.06,2.11,2.11,0,0,0-.12,1.05Z" transform="translate(0)"></path>
        <path class="cls-17" d="M14.24,3.26a.89.89,0,0,1-.5.39,2,2,0,0,1-.64.09V3.68a2.21,2.21,0,0,0,.63-.06.85.85,0,0,0,.51-.36" transform="translate(0)"></path>
        <path class="cls-17" d="M13.56,3.12a.74.74,0,0,0,.67-.31.75.75,0,0,1-.68.36Z" transform="translate(0)"></path>
        <path class="cls-17" d="M13.57,2.61a.53.53,0,0,0,0,.52l0,0a.54.54,0,0,1,0-.55" transform="translate(0)"></path>
        <path class="cls-16" d="M9.61,5.61s1.11.31,1.52-.12l.1-.16a3,3,0,0,0,.26-1.07s-.1.19-.19.21a2.09,2.09,0,0,0-.15-1.23s-.11.25-.24.28a1.27,1.27,0,0,0-.5-1.23s0,.36-.1.39a2.3,2.3,0,0,0-.81-.92,1.2,1.2,0,0,1,0,.41,5.85,5.85,0,0,0-.55-.45l-.22.39L8.32,2s0,.25,0,.32L8,2.24a3.36,3.36,0,0,0,.51,1H7.89a11.25,11.25,0,0,0,.77,1s-.57.05-.64,0,.21.85,1.59,1.3" transform="translate(0)"></path>
        <path class="cls-17" d="M8.64,2.46a9.24,9.24,0,0,0,1,1.72,4.33,4.33,0,0,0,1.48,1.31h0A3.38,3.38,0,0,1,9.61,4.21a9.35,9.35,0,0,1-1-1.75Z" transform="translate(0)"></path>
        <path class="cls-17" d="M10.53,3.05A2.47,2.47,0,0,1,10,4.35a1.05,1.05,0,0,1-.61.35,1.26,1.26,0,0,1-.69-.11,1.49,1.49,0,0,0,.69.07A.93.93,0,0,0,10,4.31a2.69,2.69,0,0,0,.54-1.26" transform="translate(0)"></path>
        <path class="cls-17" d="M11.07,3.85a2.41,2.41,0,0,1-.43,1.09,1,1,0,0,1-.46.37.89.89,0,0,1-.58,0,1,1,0,0,0,.57-.06,1,1,0,0,0,.42-.37,2.87,2.87,0,0,0,.48-1.05" transform="translate(0)"></path>
        <path class="cls-17" d="M9.89,2.8a1.77,1.77,0,0,1-.3,1,.56.56,0,0,1-.5.19,1.07,1.07,0,0,1-.48-.23A1.14,1.14,0,0,0,9.1,4a.5.5,0,0,0,.44-.19,2.07,2.07,0,0,0,.35-1" transform="translate(0)"></path>
        <path class="cls-17" d="M9.06,3.26s.06-.14.07-.22a.84.84,0,0,0,0-.27A1.07,1.07,0,0,0,9,2.25a1,1,0,0,1,.17.52,1.32,1.32,0,0,1,0,.28c0,.09,0,.17-.13.28Z" transform="translate(0)"></path>
        <path class="cls-17" d="M8.33,2.74a1,1,0,0,0,.73.52v.07a1,1,0,0,1-.72-.59" transform="translate(0)"></path>
        <path class="cls-16" d="M11.86,7.1s.33-1.16-1.28-1.18l.1.17a1.9,1.9,0,0,0-.87,0l.26.15s-.92.22-1.15.58L9.34,7a1.43,1.43,0,0,0-.72.89l.27,0s-.44.57-.3.89c0,0,.17-.19.29-.18s-.12.37-.07.47.16-.27.25-.26.07.18,0,.26.5-.16.64-.42c0,0,0,.23,0,.31a4.3,4.3,0,0,0,.86-.55l0,.24c-.05.07.73-.26.74-.64,0,0,.1.12,0,.21a5.86,5.86,0,0,0,.49-1.06" transform="translate(0)"></path>
        <path class="cls-17" d="M8.88,8.25a9.1,9.1,0,0,1,1.25-1.31,4.17,4.17,0,0,1,.79-.46,8.7,8.7,0,0,1,.87-.26,6.64,6.64,0,0,0-.86.28,3.82,3.82,0,0,0-.77.48A9,9,0,0,0,8.88,8.25" transform="translate(0)"></path>
        <path class="cls-17" d="M10.84,6.55a1.83,1.83,0,0,0-.7-.34,1.88,1.88,0,0,1,.74.29Z" transform="translate(0)"></path>
        <path class="cls-17" d="M10.8,8.1a5.34,5.34,0,0,0,.13-.8c0-.13,0-.27,0-.4a.56.56,0,0,0-.11-.35l0,0a.55.55,0,0,1,.11.4,1.89,1.89,0,0,1,0,.41,5.27,5.27,0,0,1-.16.79" transform="translate(0)"></path>
        <polygon class="cls-17" points="10.08 6.95 9.49 6.74 10.11 6.89 10.08 6.95"></polygon>
        <path class="cls-17" d="M9.89,8.6a6.62,6.62,0,0,0,.24-.84,3.34,3.34,0,0,0,0-.43.52.52,0,0,0-.11-.39l0,0a.53.53,0,0,1,.12.43,3,3,0,0,1-.07.43,5.88,5.88,0,0,1-.27.84" transform="translate(0)"></path>
        <path class="cls-17" d="M9.7,7.38a.5.5,0,0,0-.32,0,1.82,1.82,0,0,0-.31.16,1.53,1.53,0,0,1,.3-.19.55.55,0,0,1,.36,0Z" transform="translate(0)"></path>
        <path class="cls-17" d="M9.67,8.06a2.37,2.37,0,0,0,.09-.36c0-.12,0-.26-.06-.33l0,0a.43.43,0,0,1,0,.38,2.06,2.06,0,0,1-.12.35" transform="translate(0)"></path>
        <path class="cls-16" d="M16.89,4.79s1,.56,1.21-.55a8.51,8.51,0,0,0,.25-1.51c0-.08-.13.13-.25.18s0-.06-.05-.13A2,2,0,0,0,18,1.47s-.24.25-.31.23S17.53,1,17.15.64A1,1,0,0,1,16.8,1s-.25-.54-.56-.58a.68.68,0,0,1-.15.27s.18,0-.52-.08a1,1,0,0,1,0,.39s-.29-.06-.34-.14.06.41.1.49-.34.05-.34.05.18,1,.6,1.2a1.87,1.87,0,0,1-.44-.09c-.18-.08.33.6.45.69a1.13,1.13,0,0,1-.36.1,2.05,2.05,0,0,0,.9.79s-.18.14-.3.12.91.56,1.05.63" transform="translate(0)"></path>
        <path class="cls-17" d="M16,1.1a8.24,8.24,0,0,1,1.69,3.76,7.17,7.17,0,0,0-.65-2,10.4,10.4,0,0,0-1-1.8" transform="translate(0)"></path>
        <path class="cls-17" d="M17.49,3.91a.79.79,0,0,0,.33-.25,1.54,1.54,0,0,0,.25-.36,1.87,1.87,0,0,1-.22.39.88.88,0,0,1-.34.29Z" transform="translate(0)"></path>
        <path class="cls-17" d="M15.73,3.51a6.54,6.54,0,0,0,.87.34,1.42,1.42,0,0,0,.88.07l0,.06A.88.88,0,0,1,17,4a3,3,0,0,1-.45-.12,8.3,8.3,0,0,1-.86-.38" transform="translate(0)"></path>
        <path class="cls-17" d="M17.13,3a1.84,1.84,0,0,0,.65-.92,1.88,1.88,0,0,1-.61,1Z" transform="translate(0)"></path>
        <path class="cls-17" d="M15.52,2.75A1.8,1.8,0,0,0,17.13,3l0,.06a1.83,1.83,0,0,1-1.64-.31" transform="translate(0)"></path>
        <path class="cls-17" d="M16.78,2.24a1.23,1.23,0,0,0,.28-.79,1.24,1.24,0,0,1-.23.84Z" transform="translate(0)"></path>
        <path class="cls-17" d="M15.43,1.89a2.44,2.44,0,0,0,.65.36.87.87,0,0,0,.71,0l0,.06a1,1,0,0,1-.76,0,2.47,2.47,0,0,1-.64-.4" transform="translate(0)"></path>
        <path class="cls-17" d="M16.39,1.67a.76.76,0,0,0,.09-.59.75.75,0,0,1,0,.62Z" transform="translate(0)"></path>
        <path class="cls-17" d="M15.56,1.31c.22.22.55.45.85.34l0,.07a.65.65,0,0,1-.49-.09,1.7,1.7,0,0,1-.38-.32" transform="translate(0)"></path>
        <path class="cls-18" d="M19.09,4.58S18.56,1.77,20.65.65c0,0,.1.57.2.53s.34-.81.51-.84c0,0,.15.38.23.4s.24-.44.57-.62c0,0-.09.37.16.45A.71.71,0,0,1,22.9,0s-.26.5,0,.53.68-.29.82-.27-.54.82-.05.75.75-.4,1.06-.4c0,0-.57.59-.29.6s.76-.29.82-.26-.56,1.14.52.5c0,0-2.16,5-6.73,3.13" transform="translate(0)"></path>
        <path class="cls-17" d="M19.9,3.87A3.85,3.85,0,0,1,20.13,2,3.8,3.8,0,0,0,20,3.86Z" transform="translate(0)"></path>
        <path class="cls-17" d="M20.66,4.08a6.83,6.83,0,0,1,0-1.43,3.22,3.22,0,0,1,.47-1.33,3,3,0,0,0-.43,1.34,6.65,6.65,0,0,0,0,1.41Z" transform="translate(0)"></path>
        <path class="cls-17" d="M21.3,3.63a4.41,4.41,0,0,1,.79-2.49,4.41,4.41,0,0,0-.72,2.49Z" transform="translate(0)"></path>
        <path class="cls-17" d="M22,3.63A7.38,7.38,0,0,1,23.09.88a7.25,7.25,0,0,0-1,2.76Z" transform="translate(0)"></path>
        <path class="cls-17" d="M23,3.33a11.93,11.93,0,0,0,.7-1.74,10.41,10.41,0,0,1-.64,1.77Z" transform="translate(0)"></path>
        <path class="cls-16" d="M19.1,4.68a3.13,3.13,0,0,1,1.4-1.24s0,.49.13.46A6.4,6.4,0,0,1,22,3.07a1.19,1.19,0,0,0,0,.45c.06.08.68-.64,1.12-.78,0,0-.1.5.11.45s.4-.59.83-.77c0,0-.08.54.13.48s.65-.71.89-.87c0,0-.14.31,0,.35s.53-.6.53-.6S23.49,6.3,19.1,4.68" transform="translate(0)"></path>
        <path class="cls-17" d="M19.45,4.8a4.35,4.35,0,0,0,.79-.87,1.82,1.82,0,0,1-.32.51,1.51,1.51,0,0,1-.47.36" transform="translate(0)"></path>
        <path class="cls-17" d="M20.51,5a3.06,3.06,0,0,0,1.07-1.22,1.61,1.61,0,0,1-.4.72,2.5,2.5,0,0,1-.67.5" transform="translate(0)"></path>
        <path class="cls-17" d="M21.3,5a8.42,8.42,0,0,0,.83-.74,2.82,2.82,0,0,0,.63-.9,2.19,2.19,0,0,1-.58,1A5.35,5.35,0,0,1,21.3,5" transform="translate(0)"></path>
        <path class="cls-17" d="M22.7,4.67A4.44,4.44,0,0,0,23.85,3a2.5,2.5,0,0,1-.43.92,3.73,3.73,0,0,1-.72.71" transform="translate(0)"></path>
        <path class="cls-16" d="M19,5.14s-1.1.53-1.22,1.42a2.64,2.64,0,0,0,.68,1.78s-.06-.17.22-.39a2,2,0,0,0,1.1.79,1.51,1.51,0,0,1-.17-.45c0-.08.58.47,1,.36l-.13-.34c0-.06.44.27.88.24,0,0-.23-.36-.17-.45s.67,0,.67,0a1.69,1.69,0,0,0-.08-.41c0-.07.38.06.43.13A4.65,4.65,0,0,0,21.74,7c-.11-.08.31-.22.36-.14s-.23-.52-.57-.64.19-.12.29-.11a1.38,1.38,0,0,0-1-.51c-.63-.06.32-.24.32-.24A2.68,2.68,0,0,0,19,5.14" transform="translate(0)"></path>
        <path class="cls-17" d="M18.53,5.85a1.53,1.53,0,0,1,.86-.45,3.43,3.43,0,0,1,1-.06,3.44,3.44,0,0,0-1,.09,1.56,1.56,0,0,0-.8.47Z" transform="translate(0)"></path>
        <path class="cls-17" d="M18.35,7.59a1.89,1.89,0,0,1,.18-1.74l.06.05a1.81,1.81,0,0,0-.24,1.69" transform="translate(0)"></path>
        <path class="cls-17" d="M19.2,6.14a1.21,1.21,0,0,1,.94-.34,4.33,4.33,0,0,1,1,.15,4.29,4.29,0,0,0-1-.12,1.16,1.16,0,0,0-.89.36Z" transform="translate(0)"></path>
        <path class="cls-17" d="M19.29,8.16a3.39,3.39,0,0,1-.29-1,1.33,1.33,0,0,1,.2-1l.05.05a1.27,1.27,0,0,0-.22,1,3.51,3.51,0,0,0,.26,1" transform="translate(0)"></path>
        <path class="cls-17" d="M19.79,6.46a.9.9,0,0,1,.77-.21,4.43,4.43,0,0,1,.78.19,3.56,3.56,0,0,0-.79-.15.82.82,0,0,0-.71.21Z" transform="translate(0)"></path>
        <path class="cls-17" d="M19.92,8a3.07,3.07,0,0,1-.25-.74.89.89,0,0,1,.12-.76l.05,0a.9.9,0,0,0-.14.72,3.3,3.3,0,0,0,.22.74" transform="translate(0)"></path>
        <path class="cls-17" d="M20.53,7A.62.62,0,0,1,21,7l.44.17A3.81,3.81,0,0,0,21,7a.54.54,0,0,0-.42,0Z" transform="translate(0)"></path>
        <path class="cls-17" d="M20.71,7.92a2.62,2.62,0,0,1-.21-.45c-.05-.15-.12-.35,0-.5l0,0c-.12.09-.09.29,0,.44a2.58,2.58,0,0,0,.18.46" transform="translate(0)"></path>
        <path class="cls-17" d="M18.2,5.73a10.74,10.74,0,0,1,1.52.66,8.18,8.18,0,0,1,.69.45A6.53,6.53,0,0,1,21,7.4a6.31,6.31,0,0,0-.62-.54c-.23-.15-.47-.29-.71-.42a12,12,0,0,0-1.49-.71" transform="translate(0)"></path>
        <path class="cls-9" d="M14,17.41a.39.39,0,0,0-.39-.15c-.22.07-.31.24-.27.31l.08.08.18-.1Z" transform="translate(0)"></path>
        <path class="cls-10" d="M14.07,17.67s-.07-.3-.18-.3a1.67,1.67,0,0,1-.24,0l0,0,.15.21.15.05Z" transform="translate(0)"></path>
        <path class="cls-11" d="M14.06,17.71s0-.1-.05-.12l-.14,0-.21.16s-.06,0,0,.05.1.06.2,0a.28.28,0,0,0,.16-.1" transform="translate(0)"></path>
        <path class="cls-12" d="M13.87,17.56l-.13.13-.13,0-.26-.12c0-.06,0-.05,0-.13a.4.4,0,0,1,.21-.13.19.19,0,0,1,.21.05Z" transform="translate(0)"></path>
        <path class="cls-9" d="M13.06,12.35a.61.61,0,0,0-.61-.09c-.3.16-.37.44-.3.52l.15.09c.09.06.21-.19.22-.19Z" transform="translate(0)"></path>
        <path class="cls-10" d="M13.3,12.69s-.19-.41-.35-.38l-.35,0,0,.09s.22.24.29.25l.23,0Z" transform="translate(0)"></path>
        <path class="cls-11" d="M13.3,12.75s0-.15-.1-.15H13l-.26.29s-.07,0,.08,0,.17.05.3,0a.43.43,0,0,0,.2-.2" transform="translate(0)"></path>
        <path class="cls-12" d="M13,12.6s-.09.12-.15.22-.06.14-.16.11-.34,0-.42-.09-.08-.06,0-.19a.49.49,0,0,1,.26-.25.29.29,0,0,1,.31,0,.65.65,0,0,1,.18.2" transform="translate(0)"></path>
        <path class="cls-9" d="M11.85,14.2a2.12,2.12,0,0,0-2.14.14c-.88.77-.93,1.76-.63,2a5.06,5.06,0,0,0,.56.22c.36.13.58-.81.61-.83Z" transform="translate(0)"></path>
        <path class="cls-10" d="M12.92,15.2s-.93-1.25-1.47-1a11.29,11.29,0,0,1-1.15.39l0,.32s.92.68,1.17.66.68-.1.79-.1a5.58,5.58,0,0,0,.7-.24" transform="translate(0)"></path>
        <path class="cls-11" d="M13,15.39c0-.14-.07-.5-.44-.45a5.22,5.22,0,0,0-.74.16s-.55,1-.68,1.17-.23.21.31.14.6.06,1-.19a1.4,1.4,0,0,0,.54-.83" transform="translate(0)"></path>
        <path class="cls-12" d="M11.78,15.1a5.54,5.54,0,0,0-.35.87c-.11.4-.12.51-.48.49s-1.17.21-1.49,0-.31-.18-.22-.64a1.64,1.64,0,0,1,.72-1A.93.93,0,0,1,11,14.57a2.49,2.49,0,0,1,.76.53" transform="translate(0)"></path>
        <path class="cls-9" d="M16.2,14.47a1.82,1.82,0,0,0-1.86,0c-.81.61-.91,1.47-.66,1.67a2.49,2.49,0,0,0,.46.22c.31.14.56-.66.58-.68Z" transform="translate(0)"></path>
        <path class="cls-10" d="M17.08,15.4s-.74-1.15-1.22-1-1,.28-1,.28l-.05.27s.76.65,1,.65.6,0,.69,0a6,6,0,0,0,.63-.17" transform="translate(0)"></path>
        <path class="cls-11" d="M17.1,15.56c0-.12,0-.43-.36-.41a4.85,4.85,0,0,0-.65.09s-.54.84-.66,1-.21.17.26.14.52.08.89-.11a1.27,1.27,0,0,0,.52-.69" transform="translate(0)"></path>
        <path class="cls-12" d="M16.09,15.24a5.41,5.41,0,0,0-.35.74c-.13.33-.14.43-.45.39s-1,.11-1.3-.08-.25-.17-.15-.57a1.44,1.44,0,0,1,.69-.85.81.81,0,0,1,.94-.13,2.23,2.23,0,0,1,.62.5" transform="translate(0)"></path>
        <path class="cls-9" d="M19,13.35a2,2,0,0,0-2-.26c-.94.55-1.16,1.44-.92,1.69a4,4,0,0,0,.46.31c.31.18.69-.64.71-.65Z" transform="translate(0)"></path>
        <path class="cls-10" d="M19.81,14.46s-.63-1.32-1.16-1.21-1.13.15-1.13.15l-.09.29s.72.79.95.81.64,0,.74.05a5.09,5.09,0,0,0,.69-.09" transform="translate(0)"></path>
        <path class="cls-11" d="M19.81,14.64c0-.13,0-.47-.33-.49a5.83,5.83,0,0,0-.71,0s-.68.82-.82.95-.26.15.26.19.53.16.95,0a1.31,1.31,0,0,0,.65-.66" transform="translate(0)"></path>
        <path class="cls-12" d="M18.77,14.16a6.38,6.38,0,0,0-.47.74c-.17.34-.2.44-.53.36s-1.11,0-1.37-.27-.25-.21-.08-.62.4-.56.84-.82a.88.88,0,0,1,1,0,2.23,2.23,0,0,1,.59.62" transform="translate(0)"></path>
        <path class="cls-9" d="M19.81,16.72a.64.64,0,0,0,.58-.28c.15-.32.05-.6-.06-.62h-.18c-.11,0-.07.29-.07.3Z" transform="translate(0)"></path>
        <path class="cls-10" d="M19.4,16.57s.4.24.52.12a2.42,2.42,0,0,1,.28-.25l0-.09-.4-.05-.21.12Z" transform="translate(0)"></path>
        <path class="cls-11" d="M19.36,16.52a.13.13,0,0,0,.18.08l.19-.13.05-.41c0-.06,0-.08-.11,0s-.17.05-.25.17a.42.42,0,0,0-.06.29" transform="translate(0)"></path>
        <path class="cls-12" d="M19.73,16.47s0-.16,0-.29,0-.15.08-.19.3-.19.41-.17.11,0,.13.15a.51.51,0,0,1-.07.37.28.28,0,0,1-.28.18.7.7,0,0,1-.26-.05" transform="translate(0)"></path>
        <path class="cls-9" d="M9.89,17a.81.81,0,0,0,.76-.32c.22-.38.12-.75,0-.79h-.22c-.15,0-.12.37-.12.38Z" transform="translate(0)"></path>
        <path class="cls-10" d="M9.37,16.72s.5.34.66.19.38-.28.38-.28l0-.12a1.57,1.57,0,0,0-.5-.1l-.28.13Z" transform="translate(0)"></path>
        <path class="cls-11" d="M9.34,16.65c0,.05.08.17.21.11a1.59,1.59,0,0,0,.25-.15s.08-.43.1-.51.06-.1-.13,0-.22.05-.34.19a.54.54,0,0,0-.09.37" transform="translate(0)"></path>
        <path class="cls-12" d="M9.8,16.61a2.05,2.05,0,0,0,0-.36c0-.15,0-.19.12-.23s.39-.22.54-.19.13,0,.15.21a.6.6,0,0,1-.13.46.35.35,0,0,1-.36.21.91.91,0,0,1-.34-.1" transform="translate(0)"></path>
        <path class="cls-9" d="M13.38,15a.46.46,0,0,0,.47.09c.23-.12.29-.33.23-.4l-.1-.07c-.08-.05-.17.14-.18.14Z" transform="translate(0)"></path>
        <path class="cls-10" d="M13.2,14.68s.13.32.26.3a2.05,2.05,0,0,1,.27,0l0-.07-.21-.2-.18,0Z" transform="translate(0)"></path>
        <path class="cls-11" d="M13.2,14.64a.09.09,0,0,0,.07.12h.17l.21-.21s.06,0-.06-.05-.13,0-.23,0a.28.28,0,0,0-.16.15" transform="translate(0)"></path>
        <path class="cls-12" d="M13.44,14.76l.12-.16c0-.09,0-.11.13-.09s.26,0,.32.08.06.05,0,.15a.37.37,0,0,1-.2.19.24.24,0,0,1-.25,0,.57.57,0,0,1-.13-.16" transform="translate(0)"></path>
        <path class="cls-9" d="M17.62,16.75a1.84,1.84,0,0,0,1.78-.53c.59-.82.44-1.66.14-1.78a3.75,3.75,0,0,0-.5-.08c-.34,0-.35.8-.36.81Z" transform="translate(0)"></path>
        <path class="cls-10" d="M16.52,16.12s1,.87,1.44.58.89-.55.89-.55l0-.28a3.5,3.5,0,0,0-1.11-.33c-.2.06-.55.21-.64.23a6.09,6.09,0,0,0-.55.35" transform="translate(0)"></path>
        <path class="cls-11" d="M16.45,16c0,.12.15.41.46.29a4.62,4.62,0,0,0,.6-.27s.27-1,.34-1.12.16-.22-.29-.06-.51.07-.81.36a1.25,1.25,0,0,0-.3.8" transform="translate(0)"></path>
        <path class="cls-12" d="M17.51,16a5.78,5.78,0,0,0,.12-.8c0-.36,0-.45.31-.5s.94-.41,1.26-.3.29.09.3.5a1.4,1.4,0,0,1-.4,1,.83.83,0,0,1-.86.4,2.15,2.15,0,0,1-.73-.3" transform="translate(0)"></path>
        <path class="cls-9" d="M12.16,16.06a1.21,1.21,0,0,0,1.24,0c.53-.41.58-1,.42-1.11a2,2,0,0,0-.32-.15c-.2-.09-.36.46-.37.46Z" transform="translate(0)"></path>
        <path class="cls-10" d="M11.57,15.46s.5.75.82.64a5.42,5.42,0,0,1,.67-.2l0-.18s-.51-.42-.65-.42l-.46,0Z" transform="translate(0)"></path>
        <path class="cls-11" d="M11.55,15.35c0,.08,0,.29.24.27a3.86,3.86,0,0,0,.44-.07s.34-.57.42-.66.14-.11-.18-.09-.34-.05-.58.08a.85.85,0,0,0-.34.47" transform="translate(0)"></path>
        <path class="cls-12" d="M12.23,15.55a5,5,0,0,0,.22-.49c.08-.23.08-.29.29-.27s.68-.09.86,0,.18.1.11.37a.93.93,0,0,1-.44.57.52.52,0,0,1-.62.1,1.34,1.34,0,0,1-.42-.32" transform="translate(0)"></path>
      </g>
    </g>
  </g>
</svg>
