<?xml version="1.0" encoding="UTF-8"?>
<svg xmlns="http://www.w3.org/2000/svg" viewBox="0 0 32.34 44.28">
  <defs>
    <style>.cls-1{fill:#e9c671;}.cls-2{fill:#d9a458;}.cls-3{fill:#84a63c;}</style>
  </defs>
  <g id="Слой_2" data-name="Слой 2">
    <g id="Слой_1-2" data-name="Слой 1">
      <path class="cls-1" d="M12.43,28.78S8,27.2,6.09,26.48s-5.68.5-6,3.24,1.29,10.72,8,13.1S16.17,44,17.61,43.9s2.95-2.67,5.33-2.52,2.73.36,3.81.07,5.19-.86,5.55-4.75-1.53-11-10.59-9.58C17.4,27.82,16.53,30.65,12.43,28.78Z"></path>
      <ellipse class="cls-2" cx="23.55" cy="33.96" rx="1.19" ry="0.58"></ellipse>
      <ellipse class="cls-2" cx="16.28" cy="37.89" rx="1.48" ry="0.61"></ellipse>
      <ellipse class="cls-2" cx="7.82" cy="34.33" rx="1.51" ry="0.94"></ellipse>
      <path class="cls-3" d="M14.7,31.1a.54.54,0,0,1-.22-.05c-6.34-2.66-3.92-8.88-2.61-12.22L12,18.6a17.79,17.79,0,0,0,1.24-6.08.57.57,0,0,1,.56-.59h0a.58.58,0,0,1,.58.56A18.64,18.64,0,0,1,13,19l-.09.23c-1.75,4.49-2.92,8.69,2,10.74a.57.57,0,0,1,.31.75A.58.58,0,0,1,14.7,31.1Z"></path>
      <path class="cls-3" d="M13.45,14.2s-9,1-9.88-8.54C3.57,5.66,12.49,5.76,13.45,14.2Z"></path>
      <path class="cls-3" d="M13.45,14.2S9.61,3.55,13.45,0C13.45,0,18.73,1.34,13.45,14.2Z"></path>
      <path class="cls-3" d="M13.45,14.2s.39-8.06,9.41-7.58C22.86,6.62,19.59,16.51,13.45,14.2Z"></path>
    </g>
  </g>
</svg>
