<?xml version="1.0" encoding="UTF-8"?>
<svg xmlns="http://www.w3.org/2000/svg" xmlns:xlink="http://www.w3.org/1999/xlink" viewBox="0 0 93.67 172.86">
  <defs>
    <style>.cls-1{fill:#8e6848;}.cls-2{fill:url(#Безымянный_градиент_7);}.cls-3{fill:#713e21;}.cls-4{fill:#3d271f;}.cls-5{fill:#69391e;}.cls-6{fill:#6b482f;}.cls-7{fill:#5c3624;}.cls-8{fill:#795135;}.cls-9{fill:#9a734f;}.cls-10{fill:#a5a5a5;}.cls-11{fill:#e7e6e3;}.cls-12{fill:#85563a;}.cls-13{fill:#81a135;}.cls-14{fill:#91b33d;}</style>
    <linearGradient id="Безымянный_градиент_7" x1="44.66" y1="205.42" x2="49.05" y2="123.71" gradientUnits="userSpaceOnUse">
      <stop offset="0.38" stop-color="#9b714f"></stop>
      <stop offset="0.91" stop-color="#754427"></stop>
      <stop offset="1" stop-color="#6e3c20"></stop>
    </linearGradient>
  </defs>
  <g id="Слой_2" data-name="Слой 2">
    <g id="Слой_1-2" data-name="Слой 1">
      <path class="cls-1" d="M49.08,116.58s8.18,9.61,14.5,10,27.92-6.44,27.92-6.44l2.17-22.48L49.08,81.94Z"></path>
      <path class="cls-1" d="M0,96.07,4.45,125.4S20.25,127.77,23,127s15.41-5.53,19-5.53,7.1-4.87,7.1-4.87V81.94Z"></path>
      <polygon class="cls-2" points="6.57 152.85 49.08 172.86 88.39 152.95 47.52 135.63 6.57 152.85"></polygon>
      <path class="cls-3" d="M6.57,152.85,4.45,125.4s20.15-.39,25.68-3.16,19-5.66,19-5.66l-1.56,19Z"></path>
      <path class="cls-4" d="M35.29,127.11a7.09,7.09,0,0,0-2.41-1.42v0s-3.22-1-5,1.2-1.45,4.5-.66,4.88a10.3,10.3,0,0,0,1.39.29s.05,0,.08,0a24.59,24.59,0,0,0,3-.67,1.49,1.49,0,0,0,.52-.14l.55-.16c1.26-.39,1.41-.11,2.29-.86A3.39,3.39,0,0,0,36,128a2,2,0,0,0-.18-.43h0l0,0A.84.84,0,0,0,35.29,127.11Z"></path>
      <path class="cls-4" d="M18,129.94a9.49,9.49,0,0,0-3.42,1.12v0s-3.66,2.29-3.06,5.82,3.11,5.22,4.15,4.77a14.67,14.67,0,0,0,1.46-1.09s0-.08,0-.11c.78-.9,1.35-2.69,1.88-3.45a1.9,1.9,0,0,0,.3-.62c.09-.17.18-.35.32-.67.68-1.54,1.09-1.45,1.1-2.94A4.35,4.35,0,0,0,19.49,130a4,4,0,0,0-.56-.19h-.06A1.07,1.07,0,0,0,18,129.94Z"></path>
      <path class="cls-5" d="M49.08,116.58l-1.56,19L88.4,153l3.1-32.8s-12.75-1.47-18.28-.68-15.17,3.16-18.07,1.58A38.49,38.49,0,0,1,49.08,116.58Z"></path>
      <path class="cls-4" d="M33.5,136.15a2.86,2.86,0,0,0-1.06-.27h0a2,2,0,0,0-1.73,1c-.42,1,0,1.86.3,1.91a4.61,4.61,0,0,0,.55,0s0,0,0,0a9.89,9.89,0,0,0,1-.59.5.5,0,0,0,.18-.11l.19-.12c.43-.28.52-.2.76-.58a1.31,1.31,0,0,0,.1-.91.6.6,0,0,0-.11-.14h0A.33.33,0,0,0,33.5,136.15Z"></path>
      <path class="cls-4" d="M73.56,128a2,2,0,0,0-.1-.76h0s-.33-.86-1.08-.88-1.22.43-1.17.67a3.52,3.52,0,0,0,.17.35h0a5.78,5.78,0,0,0,.64.53.39.39,0,0,0,.11.09l.13.09c.29.21.26.29.56.36a1,1,0,0,0,.63-.16l.06-.11h0A.23.23,0,0,0,73.56,128Z"></path>
      <path class="cls-4" d="M85,141.71a9.31,9.31,0,0,0-1.62-3.24h0s-2.82-3.32-6.26-2.21-4.75,3.86-4.16,4.84a13.46,13.46,0,0,0,1.31,1.29s.08,0,.11,0c1,.65,2.88,1,3.72,1.37a1.9,1.9,0,0,0,.65.22l.72.22c1.64.46,1.61.88,3.09.67a4.39,4.39,0,0,0,2.54-1.7,3.29,3.29,0,0,0,.11-.59h0l0-.06A1.05,1.05,0,0,0,85,141.71Z"></path>
      <path class="cls-4" d="M62.76,130.42a7,7,0,0,0-1.59,2.28h0s-1.2,3.11.82,5,4.34,1.77,4.78,1a9.21,9.21,0,0,0,.39-1.35s0-.05,0-.08a25.49,25.49,0,0,0-.45-3,1.29,1.29,0,0,0-.1-.52,5.33,5.33,0,0,0-.11-.56c-.3-1.28,0-1.41-.69-2.33a3.36,3.36,0,0,0-2.08-1.08,2.11,2.11,0,0,0-.43.14h0l0,0A.77.77,0,0,0,62.76,130.42Z"></path>
      <path class="cls-6" d="M62.91,153.7a1.34,1.34,0,0,0,1.34-.35c.46-.59.36-1.22.14-1.32L64,152c-.25,0-.27.59-.28.6Z"></path>
      <path class="cls-7" d="M62.11,153.21s.75.67,1.06.47.67-.39.67-.39v-.21a2.91,2.91,0,0,0-.82-.27c-.15,0-.42.15-.48.16A3,3,0,0,0,62.11,153.21Z"></path>
      <path class="cls-8" d="M62.07,153.1c0,.08.1.3.33.22a2.76,2.76,0,0,0,.45-.19s.22-.7.28-.82.12-.16-.22-.05-.38,0-.61.25A.89.89,0,0,0,62.07,153.1Z"></path>
      <path class="cls-9" d="M62.85,153.13a5.91,5.91,0,0,0,.11-.59c0-.26,0-.33.24-.37s.71-.28.94-.19.22.08.22.38a1.08,1.08,0,0,1-.33.74.61.61,0,0,1-.64.27A1.44,1.44,0,0,1,62.85,153.13Z"></path>
      <path class="cls-6" d="M53.83,148.49a3,3,0,0,0,2.76-1.42c.72-1.52.21-2.86-.31-3a6.59,6.59,0,0,0-.86,0c-.56,0-.31,1.42-.33,1.45S53.83,148.49,53.83,148.49Z"></path>
      <path class="cls-7" d="M51.83,147.79s2,1.12,2.54.53,1.3-1.19,1.3-1.19l-.13-.45a6.48,6.48,0,0,0-1.93-.21c-.31.17-.85.53-1,.59A7.5,7.5,0,0,0,51.83,147.79Z"></path>
      <path class="cls-8" d="M51.67,147.56a.58.58,0,0,0,.84.34,7.34,7.34,0,0,0,.89-.64s.16-1.64.22-1.94.19-.42-.49,0-.82.27-1.23.84A2.07,2.07,0,0,0,51.67,147.56Z"></path>
      <path class="cls-9" d="M53.4,147.26a8.69,8.69,0,0,0,0-1.35c-.08-.59-.13-.74.36-.92s1.43-1,2-.87.51,0,.66.71a2.44,2.44,0,0,1-.36,1.79,1.36,1.36,0,0,1-1.28.91A3.59,3.59,0,0,1,53.4,147.26Z"></path>
      <path class="cls-6" d="M45.35,155.1a3,3,0,0,0,3,.37c1.43-.84,1.74-2.2,1.38-2.57a4.43,4.43,0,0,0-.71-.45c-.47-.28-1,1-1.06,1S45.35,155.1,45.35,155.1Z"></path>
      <path class="cls-7" d="M44.12,153.44s1,2,1.77,1.82A16.6,16.6,0,0,1,47.6,155l.13-.44s-1.1-1.18-1.45-1.22-1,0-1.12-.06A7.35,7.35,0,0,0,44.12,153.44Z"></path>
      <path class="cls-8" d="M44.12,153.17c0,.19,0,.7.49.73a8.37,8.37,0,0,0,1.08,0s1-1.25,1.24-1.46.38-.23-.4-.27-.81-.23-1.45,0A2,2,0,0,0,44.12,153.17Z"></path>
      <path class="cls-9" d="M45.69,153.88a9.42,9.42,0,0,0,.7-1.12c.26-.52.3-.67.79-.55s1.69,0,2.08.37.38.33.14.94a2.4,2.4,0,0,1-1.26,1.25,1.35,1.35,0,0,1-1.55,0A3.42,3.42,0,0,1,45.69,153.88Z"></path>
      <path class="cls-6" d="M41.7,149.63a2.25,2.25,0,0,0,.08-2.32c-.73-1-1.79-1.19-2.05-.89a3.88,3.88,0,0,0-.29.58c-.19.37.81.72.82.74Z"></path>
      <path class="cls-7" d="M40.52,150.68s1.44-.88,1.27-1.47-.31-1.29-.31-1.29l-.34-.07s-.83.92-.83,1.18,0,.75,0,.86A5.77,5.77,0,0,0,40.52,150.68Z"></path>
      <path class="cls-8" d="M40.31,150.7c.15,0,.54,0,.53-.43a7.87,7.87,0,0,0-.09-.82s-1-.7-1.19-.85-.21-.27-.19.32-.12.64.1,1.11A1.58,1.58,0,0,0,40.31,150.7Z"></path>
      <path class="cls-9" d="M40.75,149.45a6.91,6.91,0,0,0-.9-.46c-.42-.17-.54-.18-.48-.57s-.1-1.28.15-1.61.23-.31.71-.17a1.82,1.82,0,0,1,1,.89,1,1,0,0,1,.12,1.17A2.53,2.53,0,0,1,40.75,149.45Z"></path>
      <path class="cls-6" d="M34.5,151.34a1,1,0,0,0,.33-1c-.17-.52-.59-.72-.74-.63a1.25,1.25,0,0,0-.19.2c-.13.13.24.4.24.41S34.5,151.34,34.5,151.34Z"></path>
      <path class="cls-7" d="M33.87,151.62s.71-.18.72-.45,0-.57,0-.57l-.13-.07s-.46.27-.49.38a3.56,3.56,0,0,0-.1.36A2.6,2.6,0,0,0,33.87,151.62Z"></path>
      <path class="cls-8" d="M33.78,151.6c.07,0,.23.06.28-.11a3.4,3.4,0,0,0,.06-.35s-.33-.42-.38-.5-.05-.14-.12.11-.13.24-.1.47A.71.71,0,0,0,33.78,151.6Z"></path>
      <path class="cls-9" d="M34.12,151.14a3.06,3.06,0,0,0-.31-.3c-.15-.12-.2-.15-.12-.3s.12-.54.27-.65.13-.1.31,0a.84.84,0,0,1,.32.5.43.43,0,0,1-.1.5A1,1,0,0,1,34.12,151.14Z"></path>
      <path class="cls-6" d="M32.29,155.31s1.39-2.24.11-4-3.11-2-3.56-1.5a8.7,8.7,0,0,0-.51,1c-.31.65,1.42,1.24,1.44,1.28S32.29,155.31,32.29,155.31Z"></path>
      <path class="cls-7" d="M30.25,157.14s2.49-1.52,2.18-2.55-.54-2.23-.54-2.23l-.59-.12s-1.43,1.6-1.44,2.06.07,1.28.05,1.48A11.15,11.15,0,0,0,30.25,157.14Z"></path>
      <path class="cls-8" d="M29.88,157.18c.27,0,.94,0,.92-.74a10.5,10.5,0,0,0-.17-1.42s-1.77-1.2-2.07-1.46-.35-.48-.31.56-.21,1.09.18,1.91A2.67,2.67,0,0,0,29.88,157.18Z"></path>
      <path class="cls-9" d="M30.63,155a12.05,12.05,0,0,0-1.56-.79c-.72-.28-.93-.31-.83-1s-.19-2.22.25-2.79.38-.55,1.22-.3a3.13,3.13,0,0,1,1.8,1.52,1.76,1.76,0,0,1,.24,2A4.52,4.52,0,0,1,30.63,155Z"></path>
      <polygon class="cls-10" points="69.17 134.77 69.2 134.72 69.15 134.71 69.17 134.77"></polygon>
      <path class="cls-11" d="M62.73,128.81c-.19-.61-.17-1.26-.32-1.86-.28-1.14-.5-1.29-1.68-1.42a1.23,1.23,0,0,1-.19,0q-1-.2-.51-1.08a.82.82,0,0,0-.64-1.3,1.11,1.11,0,0,0-.86.1c-.48.39-.63.16-.73-.31a.75.75,0,0,0-.57-.62c-.6-.12-.45-.35-.14-.64s.63-.88.23-1.4a1.22,1.22,0,0,1,0-1.57c.34-.56.25-.9-.3-1.21a8.28,8.28,0,0,0-2.13-.74c-1.2-.3-2.47,0-3.62-.5-1.39-.57-1.7-.41-1.31-2.13a3.58,3.58,0,0,0,.25-2.1.82.82,0,0,1-.94.12c-.34-.19-.21-.55-.2-.85s0-.33,0-.5c-.06.31-.3.55-.33.88a16.28,16.28,0,0,0-.25,3c0,.2,0,.42-.3.37-1.07-.21-1.84.57-2.77.85a.83.83,0,0,0-.51.45,2,2,0,0,1-2.11,1.15,2.47,2.47,0,0,0-1.92,1.77c0,.14-.07.32.13.38s.26-.06.31-.22A1.81,1.81,0,0,1,43.51,118a1.36,1.36,0,0,0,1.41-.75c.53-1,1.62-1.21,2.49-1.67.61-.31,1,.08,1,.77,0,.3,0,.59,0,.89a.39.39,0,0,1-.37.47.88.88,0,0,0-.78.92A1.08,1.08,0,0,1,46,119.8a5.53,5.53,0,0,0-1.86.17c-.45.1-.7.31-.57.79s-.13.51-.47.46a3.45,3.45,0,0,1-.43-.12c-.69-.14-1.12.18-1.06.88,0,.38-.09.52-.44.48a1.77,1.77,0,0,0-1.39.48l-1.68,1.43c-.08.07-.2.13-.13.25a.2.2,0,0,0,.32,0c.26-.19.49-.41.76-.58.74-.49,1.37-1.18,2.41-1,.77.09,1-.2.79-1-.08-.36,0-.42.33-.4a3,3,0,0,1,.5.11c.67.15,1-.16,1-.85,0-.15-.08-.31.14-.36a4,4,0,0,1,1.5-.31c1.31.19,1.86-.29,2.12-1.61,0-.18.1-.32.31-.35s.32.11.4.31a3.63,3.63,0,0,0,1.05,1.54c.12.09.37.17.25.37s-.31.09-.46.05a1.09,1.09,0,0,0-1.13.23,1.88,1.88,0,0,1-1.13.56,1,1,0,0,0-.85,1.33c.4-1.29,1.86-.58,2.46-1.49,0-.07.32,0,.48,0s.35.14.54.18a.5.5,0,0,1,.26.91,1.89,1.89,0,0,1-.62.42c-.56.22-1.08.91-1.31,1s-4.87,2.74-.18.6a2.13,2.13,0,0,0,.47-.31,5.46,5.46,0,0,1,1.47-1c.16-.07.33-.37.47-.17a2.23,2.23,0,0,1,.25.9c0,.21-.17.26-.35.3a1,1,0,0,0-.76.51,1.57,1.57,0,0,1-1.5.92,1.12,1.12,0,0,0-1.1.83c-.08.44.84-1.13,1.52-.25.09.11.3,0,.41-.14.35-.43,1-.51,1.21-1.15a.45.45,0,0,1,.53-.24c.28.13.09.39,0,.55a2.64,2.64,0,0,1-1.19,1.39c-.78.42-1.18,1.38-2.21,1.55a1.72,1.72,0,0,0-.91.83c0,.07-.11.14-.09.21.1.23.22.16.2.32s0,.1.05.11c.28.1.23-.2.29-.36a1.14,1.14,0,0,1,1.08-.82,1.1,1.1,0,0,0,1-.52,1.74,1.74,0,0,1,.83-.74,2.2,2.2,0,0,0,.24,1.61,1.75,1.75,0,0,1-.28,2.09c-.47.54-.82,1.19-.32,1.89s0,1-.08,1.55a1.93,1.93,0,0,0-.15.41,3.55,3.55,0,0,0-.08.75,7,7,0,0,0,.39-1c.14-.37.67,2,1,2.19a18.22,18.22,0,0,0-.48-2.12c-.1-.89.6-.59.91-.24a1,1,0,0,0,1,.35c.2,0,.27,0,.42.09s.77,2.05,1,1.82-.33-1.24-.49-1.65-.34-.77-.66-.68c0,0-.78.28-1-.08-.31-.55-1-.34-1.06-1.36-.06-.62-.19-1.14.22-1.62a1.91,1.91,0,0,0,.49-2.25.23.23,0,0,1,0-.29c.1-.07.26-.07.29,0,.3.7,1.22.25,1.57.88a.36.36,0,0,0,.56,0c.15-.25-.16-.26-.28-.38-.48-.51-1.37-.32-1.73-1,0,0-.08,0-.12,0-.73-.22-.81-.39-.43-1.11.69-1.33,1.36-2.65.52-4.18-.09-.15-.18-.45,0-.57s1.13.44,1.23.59,2.11,2,1.84,1.4l-1.44-1.54-.59-.54a3,3,0,0,1-1.38-1.92,1.21,1.21,0,0,0-.65-.82,1.08,1.08,0,0,1-.5-1.2c0-.1,0-.23.09-.28s.23,0,.32.11.38.42.65.27.55.06.69.31a1.2,1.2,0,0,0,1,.72,4.57,4.57,0,0,1,1.72.37c.11,0,.25.12.32,0s-.07-.2-.15-.25a2.49,2.49,0,0,0-1.55-.63c-.47,0-.82-.06-1-.58-.06-.21-.23-.46-.49-.44-.48,0-.81-.29-1.2-.43-.55-.2-.34-.54-.26-.81.13-.43.45-.09.6,0a6.34,6.34,0,0,0,3,.68,7.05,7.05,0,0,1,3,.7.6.6,0,0,1,.32,1,1.17,1.17,0,0,0,0,1.41.92.92,0,0,1-.16,1.3c-.54.55-.42,1.08.29,1.29a.68.68,0,0,1,.56.65.67.67,0,0,0,1,.56c.14,0,.26-.13.4-.19s.49-.23.71,0,.07.46,0,.7a1.11,1.11,0,0,0,1.06,1.62c1,0,1.09.1,1.48,1.26a7.57,7.57,0,0,0,.42,1.57c.07.12,0,.35.25.31S62.77,128.94,62.73,128.81Z"></path>
      <polygon class="cls-12" points="0 96.08 49.08 116.58 93.67 97.67 49.08 81.94 0 96.08"></polygon>
      <path class="cls-6" d="M46.09,104.48a1.36,1.36,0,0,0-1.3-.48c-.72.22-1,.8-.88,1a2.23,2.23,0,0,0,.27.28c.18.17.56-.33.57-.33Z"></path>
      <path class="cls-7" d="M46.47,105.35s-.22-1-.6-1-.78-.06-.78-.06l-.11.18s.37.64.52.69l.49.15A3.08,3.08,0,0,0,46.47,105.35Z"></path>
      <path class="cls-8" d="M46.44,105.47c0-.08.09-.31-.14-.38a3.5,3.5,0,0,0-.48-.1s-.59.45-.71.52-.19.06.15.16.34.19.65.15A.9.9,0,0,0,46.44,105.47Z"></path>
      <path class="cls-9" d="M45.82,105a3.89,3.89,0,0,0-.43.43c-.18.2-.21.26-.42.16s-.74-.18-.88-.39-.14-.18,0-.43a1.09,1.09,0,0,1,.69-.43.61.61,0,0,1,.69.15A1.66,1.66,0,0,1,45.82,105Z"></path>
      <path class="cls-6" d="M43.13,87.77a2,2,0,0,0-2-.29c-1,.54-1.2,1.45-1,1.7a5.27,5.27,0,0,0,.47.32c.31.19.71-.64.73-.65Z"></path>
      <path class="cls-7" d="M43.94,88.9s-.63-1.35-1.17-1.25-1.15.15-1.15.15l-.09.29s.72.81.95.84.65,0,.75.06A5.22,5.22,0,0,0,43.94,88.9Z"></path>
      <path class="cls-8" d="M43.93,89.08c0-.13,0-.47-.32-.5a5,5,0,0,0-.72,0s-.71.83-.85,1-.26.15.26.19.54.17,1,0A1.31,1.31,0,0,0,43.93,89.08Z"></path>
      <path class="cls-9" d="M42.89,88.58a5.87,5.87,0,0,0-.49.75c-.18.34-.21.44-.54.35s-1.13,0-1.39-.28-.25-.22-.08-.63a1.56,1.56,0,0,1,.87-.82.88.88,0,0,1,1,0A2.15,2.15,0,0,1,42.89,88.58Z"></path>
      <path class="cls-6" d="M39.14,93.9s-4.17-2.08-7.08.46S29,100.15,30,100.85a12,12,0,0,0,1.82.73c1.2.45,2-2.68,2-2.73S39.14,93.9,39.14,93.9Z"></path>
      <path class="cls-7" d="M42.69,97.18s-3.09-4.13-4.85-3.41A40.11,40.11,0,0,1,34,95.08l-.12,1s3,2.26,3.84,2.19S40,98,40.35,98A18.69,18.69,0,0,0,42.69,97.18Z"></path>
      <path class="cls-8" d="M42.81,97.81c0-.46-.21-1.64-1.46-1.48a18.79,18.79,0,0,0-2.45.53s-1.82,3.3-2.22,3.87-.78.69,1,.46,1.95.19,3.32-.64A4.71,4.71,0,0,0,42.81,97.81Z"></path>
      <path class="cls-9" d="M38.9,96.86a21.75,21.75,0,0,0-1.14,2.87c-.37,1.31-.39,1.67-1.58,1.61s-3.87.7-4.93,0-1-.58-.73-2.1,1-2.24,2.37-3.41a3.1,3.1,0,0,1,3.52-.75A8,8,0,0,1,38.9,96.86Z"></path>
      <path class="cls-6" d="M53.53,94.77s-3.49-2-6.17,0-3,4.85-2.18,5.52a12.57,12.57,0,0,0,1.54.74c1,.46,1.85-2.21,1.92-2.25S53.53,94.77,53.53,94.77Z"></path>
      <path class="cls-7" d="M56.41,97.84s-2.43-3.78-4-3.26a34.3,34.3,0,0,1-3.39.91l-.17.91s2.51,2.14,3.21,2.13,2-.15,2.28-.14A15.73,15.73,0,0,0,56.41,97.84Z"></path>
      <path class="cls-8" d="M56.48,98.39c0-.4-.09-1.44-1.18-1.37a15.08,15.08,0,0,0-2.16.3s-1.78,2.77-2.16,3.23-.72.56.87.46,1.68.28,2.92-.35A4.1,4.1,0,0,0,56.48,98.39Z"></path>
      <path class="cls-9" d="M53.14,97.32A19.16,19.16,0,0,0,52,99.75c-.4,1.11-.44,1.43-1.47,1.3s-3.4.38-4.28-.27-.85-.57-.5-1.87A4.83,4.83,0,0,1,48,96.09a2.71,2.71,0,0,1,3.11-.43A6.92,6.92,0,0,1,53.14,97.32Z"></path>
      <path class="cls-6" d="M62.77,91.08s-3.44-2.65-6.57-.85S52.36,95,53.15,95.81a12.22,12.22,0,0,0,1.54,1c1,.62,2.26-2.11,2.34-2.14S62.77,91.08,62.77,91.08Z"></path>
      <path class="cls-7" d="M65.43,94.74s-2.08-4.35-3.83-4-3.73.52-3.73.52l-.3.94s2.38,2.62,3.13,2.7,2.12.1,2.45.16A17.05,17.05,0,0,0,65.43,94.74Z"></path>
      <path class="cls-8" d="M65.43,95.33c0-.42.1-1.54-1.07-1.61a16.54,16.54,0,0,0-2.34,0s-2.27,2.71-2.74,3.15-.84.5.86.61,1.76.52,3.17,0A4.39,4.39,0,0,0,65.43,95.33Z"></path>
      <path class="cls-9" d="M62,93.75a20.29,20.29,0,0,0-1.56,2.43c-.58,1.13-.66,1.46-1.74,1.19s-3.68-.05-4.53-.87-.83-.71-.28-2,1.31-1.87,2.78-2.7a2.89,2.89,0,0,1,3.36,0A7.44,7.44,0,0,1,62,93.75Z"></path>
      <path class="cls-6" d="M65.44,102.21a2.08,2.08,0,0,0,1.91-.94c.51-1,.18-2-.18-2a4,4,0,0,0-.59,0c-.39,0-.23,1-.25,1S65.44,102.21,65.44,102.21Z"></path>
      <path class="cls-7" d="M64.07,101.71s1.34.79,1.74.39.91-.8.91-.8l-.09-.31a4,4,0,0,0-1.32-.16c-.21.11-.58.35-.68.39A5.12,5.12,0,0,0,64.07,101.71Z"></path>
      <path class="cls-8" d="M64,101.55c.06.12.24.43.57.24a4.47,4.47,0,0,0,.62-.42s.12-1.13.17-1.34.14-.28-.34,0-.56.17-.85.56A1.4,1.4,0,0,0,64,101.55Z"></path>
      <path class="cls-9" d="M65.16,101.37a7.24,7.24,0,0,0,0-.93c-.05-.41-.09-.51.25-.63s1-.64,1.37-.58.34,0,.44.5A1.69,1.69,0,0,1,67,101a.94.94,0,0,1-.9.61A2.33,2.33,0,0,1,65.16,101.37Z"></path>
      <path class="cls-6" d="M32.66,103a2.66,2.66,0,0,0,2.52-1c.74-1.28.4-2.48,0-2.61a4.12,4.12,0,0,0-.75,0c-.49,0-.38,1.21-.4,1.24S32.66,103,32.66,103Z"></path>
      <path class="cls-7" d="M31,102.2s1.63,1.12,2.18.64a14.76,14.76,0,0,1,1.23-.94l-.09-.4a5.25,5.25,0,0,0-1.67-.32c-.28.12-.77.39-.9.44A6.2,6.2,0,0,0,31,102.2Z"></path>
      <path class="cls-8" d="M30.85,102c.07.16.28.57.71.36a7.08,7.08,0,0,0,.83-.49s.25-1.42.33-1.68.2-.35-.43,0-.73.17-1.13.64A1.77,1.77,0,0,0,30.85,102Z"></path>
      <path class="cls-9" d="M32.39,101.85a9,9,0,0,0,.06-1.18c0-.53-.06-.66.38-.78s1.31-.73,1.78-.62.45.09.52.68a2.08,2.08,0,0,1-.44,1.53,1.2,1.2,0,0,1-1.19.7A3,3,0,0,1,32.39,101.85Z"></path>
      <path class="cls-6" d="M44.19,96.38a1.55,1.55,0,0,0,1.55.27c.77-.4,1-1.1.79-1.3a2,2,0,0,0-.36-.25c-.24-.16-.56.47-.58.48Z"></path>
      <path class="cls-7" d="M43.59,95.48s.45,1.06.87,1,.9-.08.9-.08l.08-.22s-.54-.65-.72-.68-.5,0-.58-.06A3.71,3.71,0,0,0,43.59,95.48Z"></path>
      <path class="cls-8" d="M43.6,95.34a.29.29,0,0,0,.24.39,4.33,4.33,0,0,0,.55,0s.57-.62.69-.72.2-.11-.2-.16-.41-.14-.75,0A1,1,0,0,0,43.6,95.34Z"></path>
      <path class="cls-9" d="M44.39,95.75a4.86,4.86,0,0,0,.4-.56c.15-.27.17-.35.43-.27s.87,0,1.07.25.19.18,0,.49a1.19,1.19,0,0,1-.69.62.7.7,0,0,1-.8,0A1.9,1.9,0,0,1,44.39,95.75Z"></path>
      <path class="cls-6" d="M58.2,102.3s3.91,1,5.88-1.75,1.45-5.47.48-5.87a10.5,10.5,0,0,0-1.68-.26c-1.1-.15-1.12,2.63-1.17,2.68S58.2,102.3,58.2,102.3Z"></path>
      <path class="cls-7" d="M54.58,100.21s3.4,2.89,4.74,1.94,3-1.84,3-1.84l-.1-.9s-3-1.32-3.66-1.11-1.83.71-2.13.78A15.11,15.11,0,0,0,54.58,100.21Z"></path>
      <path class="cls-8" d="M54.35,99.7c.13.38.5,1.35,1.51,1a16.32,16.32,0,0,0,2-.91s.9-3.14,1.13-3.69.52-.74-1-.19-1.68.21-2.68,1.17A4.08,4.08,0,0,0,54.35,99.7Z"></path>
      <path class="cls-9" d="M57.83,99.76a19.27,19.27,0,0,0,.41-2.64c.06-1.18,0-1.49,1-1.66s3.13-1.34,4.16-1,1,.3,1,1.63a4.76,4.76,0,0,1-1.34,3.33,2.69,2.69,0,0,1-2.83,1.31A7,7,0,0,1,57.83,99.76Z"></path>
      <path class="cls-6" d="M40.17,100s2.35,1.32,4.1-.07,1.93-3.26,1.37-3.69a7.47,7.47,0,0,0-1-.47c-.68-.29-1.2,1.49-1.24,1.52S40.17,100,40.17,100Z"></path>
      <path class="cls-7" d="M38.21,98s1.67,2.47,2.71,2.11a23.29,23.29,0,0,1,2.24-.65l.1-.61s-1.7-1.39-2.16-1.37-1.31.13-1.51.12A10,10,0,0,0,38.21,98Z"></path>
      <path class="cls-8" d="M38.16,97.67c0,.27.08,1,.8.9a10.08,10.08,0,0,0,1.43-.24s1.15-1.85,1.4-2.17.47-.38-.58-.29-1.13-.17-1.94.27A2.71,2.71,0,0,0,38.16,97.67Z"></path>
      <path class="cls-9" d="M40.39,98.33a11.81,11.81,0,0,0,.74-1.62c.26-.75.28-1,1-.89s2.26-.29,2.85.13.58.36.36,1.23a3.17,3.17,0,0,1-1.46,1.9,1.79,1.79,0,0,1-2.06.33A4.65,4.65,0,0,1,40.39,98.33Z"></path>
      <path class="cls-13" d="M54,14.8a18.43,18.43,0,0,1-3.9,12.06c-1.21,1.55-2.16,3.31-3.22,5-.13.21-.2.56-.53.46s-.24-.45-.2-.68a9.3,9.3,0,0,1,2-4,24.64,24.64,0,0,0,4.5-8.66A15.64,15.64,0,0,0,53,11.2,16.84,16.84,0,0,0,51.27,6c-.14-.23-.17-.43,0-.58s.48.1.58.31a15.62,15.62,0,0,1,1.61,4.08A20.53,20.53,0,0,1,54,14.8Z"></path>
      <path class="cls-13" d="M70.88,38.77a3.19,3.19,0,0,1,1.74-2.24,11.49,11.49,0,0,1,4.2-1.38c3.35-.76,6.08-2.26,7.27-5.92a2.31,2.31,0,0,1-.21,2.38,9,9,0,0,1-6.48,4.44,11.75,11.75,0,0,0-5.84,2.52C71.4,38.72,71.27,38.93,70.88,38.77Z"></path>
      <path class="cls-13" d="M75.8,19.38a14.82,14.82,0,0,1-2.27,8,6.8,6.8,0,0,0-1.1,2.53c0,.19-.05.39-.3.41s-.35-.21-.36-.45a4.42,4.42,0,0,1,.49-2.36,23,23,0,0,0,2.47-6.76,18.5,18.5,0,0,0,.08-4.46c0-.31-.33-.75.14-.82s.64.38.61.78C75.48,17.35,76,18.39,75.8,19.38Z"></path>
      <path class="cls-13" d="M23.92,52.3c-1.38-2.26-3.21-4.28-4-6.81a14.09,14.09,0,0,1-.79-6.88c.05-.27-.07-.8.47-.71s.28.48.26.76c-.3,4,1.31,7.41,3.4,10.66A3.64,3.64,0,0,1,23.92,52.3Z"></path>
      <path class="cls-13" d="M17.3,70.19c.75-.42,1.46-.11,2.18,0a17.83,17.83,0,0,0,10.17-2,8.31,8.31,0,0,1,3.87-1.31c.25,0,.59-.07.64.28s-.29.34-.53.41c-2.43.74-4.58,2.15-7,2.86A14.62,14.62,0,0,1,17.3,70.19Z"></path>
      <path class="cls-13" d="M28.36,23.11c.1-.42-.16-1,.51-1s.41.54.41.88c-.05,2.26,1.07,4.1,2.06,6,1.14,2.2,2.45,4.33,2.85,6.84.05.31.27.84-.25.93-.32.05-.57-.34-.59-.71-.17-2.29-1.51-4.1-2.52-6A23.63,23.63,0,0,1,28.36,23.11Z"></path>
      <path class="cls-13" d="M57.56,78.07c.31.07.37.32.5.56a25.89,25.89,0,0,1,1.29,4.12A17.5,17.5,0,0,0,64.3,90.9c.2.18.68.32.39.66s-.49-.13-.7-.28a14.58,14.58,0,0,1-5.13-7.56,25,25,0,0,1-1.51-5C57.32,78.45,57,78.12,57.56,78.07Z"></path>
      <path class="cls-14" d="M47.91,92c0-3.18,0-6.36-.12-9.54,0-1.57-.13-3.14-.29-4.7A1.73,1.73,0,0,0,46,76.08a21.81,21.81,0,0,1-11.35-4.64c-.36-.28-.57-.23-.8.14-2.9,4.54-9.55,4.77-14,2.33a42.47,42.47,0,0,1-6.66-4.53c-.29-.23-.68-.44-.47-.89s.66-.32,1-.21c3.33,1.06,6.15,0,8.73-2.08a21.71,21.71,0,0,1,4.13-3.07c.45-.22.36-.5.18-.82a29.75,29.75,0,0,1-1.94-4,1.61,1.61,0,0,0-1.49-1c-3-.07-5.08-1.93-7.07-3.89-.17-.17-.45-.4-.26-.67s.54-.18.81,0a6.49,6.49,0,0,0,3.27.62,5.79,5.79,0,0,1,3.08,1.15c-.05-.72-.23-1.11-.84-1.29-3.16-.92-4.44-3.37-4.9-6.33s.26-5.87,1-8.74q.29-1.14.6-2.28c.05-.21.11-.47.39-.47a.46.46,0,0,1,.44.44c.34,2.61,2.15,4.37,3.65,6.31a15.84,15.84,0,0,1,2.43,4.39c.85,2.32.19,4.4-.75,6.48-.62,1.38-.6,1.39.08,2.89.07,0,.19,0,.2,0,.9-2.4,3.39-3.28,4.91-5.08a.5.5,0,0,1,.69-.18c.27.17.18.45.1.71-.8,2.56-1.71,5.06-4.39,6.3-.56.26-.55.62-.36,1.09A28.43,28.43,0,0,0,28.23,62c.26.45.63.44,1.05.47,2.33.2,4.28,1,5.36,3.28a.62.62,0,0,0,.59.43,15,15,0,0,1,10.85,5c.33-.46.12-.86,0-1.21C45,65.36,44.2,60.66,43.18,56c-.47-2.18-.76-4.44-1.85-6.39a46.11,46.11,0,0,0-3.21-4.46c-.68-.93-1.42-1.83-2-2.82a1.51,1.51,0,0,0-1.75-.84c-.7.13-1.41.17-2.11.27A7.43,7.43,0,0,1,28.34,41c-.48-.19-.3-.47,0-.63,1.84-1,3.65-2.28,5.94-.5-.33-1.1-.78-1.55-1.74-1.69-2-.29-3.31-1.66-4.4-3.21a10.35,10.35,0,0,1-1.68-8,57.74,57.74,0,0,1,1.4-7.14c.06-.2,0-.51.28-.54s.41.28.47.51c.49,2.16,2.06,3.47,3.68,4.78,2.41,1.95,4.27,4.26,4.76,7.47a6,6,0,0,1-1.4,5.11c-.8.87-.69,1.42.24,2.18.26-2.07,1.7-2.94,3.41-3.56.3-.11.61-.41.9-.08s0,.59-.13.84a22.36,22.36,0,0,1-2.64,4.14.76.76,0,0,0-.11,1.14,66.3,66.3,0,0,0,4.06,5.37c.11.13.19.35.42.26s.18-.29.2-.47a108.27,108.27,0,0,1,2.38-12,2,2,0,0,0-.65-2.19c-2.29-2.31-4.06-4.87-4-8.33A35.91,35.91,0,0,1,40.42,18c.07-.35.21-.75.72-.72s.44.45.49.76c.36,1.9,1.7,3.21,2.84,4.62.47.59.6,0,.69-.31.76-2.55,2.07-4.88,2.91-7.4A46.44,46.44,0,0,0,50.53,4.13c.08-1,0-2,0-3,0-.55.12-1,.69-1.09s.77.33.92.81c1.67,5.26,4,10.32,5.24,15.7,1,4.15,1.21,8.29-.89,12.24C54.7,32.2,51.68,33.81,48,34.24c-.94.11-1.33.38-1.52,1.33-.53,2.56-1.25,5.07-1.78,7.63a23.29,23.29,0,0,0-.28,3.46c0,.25,0,.55.39.52a3.1,3.1,0,0,0,1.51-2.09,6.73,6.73,0,0,1,1-4.49,5,5,0,0,1,3.77-2.48,14.6,14.6,0,0,0,8.05-3.84A7.6,7.6,0,0,0,60,33.21c.19-.27.27-.81.78-.62s.35.73.25,1.08a10.73,10.73,0,0,1-1.37,3.17A38.75,38.75,0,0,1,51,44.94c-1.47,1.11-3.29,1.58-4.65,2.85a5,5,0,0,0-1.62,5.09c.85,4.4,1.78,8.78,2.75,13.16.4,1.85.84,3.7,1.34,5.89a24.61,24.61,0,0,0,2.26-4.78,18.46,18.46,0,0,0,1.14-5.35.85.85,0,0,0-.53-.95,4.71,4.71,0,0,1-2.24-5.23c.1-.4.13-.82.23-1.21a2.18,2.18,0,0,1,3-1.53,3.15,3.15,0,0,1,2.18,1.35A7.15,7.15,0,0,1,56,57.8a3.14,3.14,0,0,1-1.59,2.78,1,1,0,0,0-.58,1A15.09,15.09,0,0,1,53,66.41c-.09.3-.33.73,0,.93s.54-.27.73-.51c3.32-4.18,6.42-8.53,9.37-13,.62-.93,1.27-1.84,1.91-2.76.42-.61.41-1-.47-1.1a8.2,8.2,0,0,1-1.08-.29c-1.37-.31-2.64-.34-3.72.81a6.36,6.36,0,0,1-4.71,2c-.49,0-1,0-1.15-.5s.32-.65.66-.85a4.31,4.31,0,0,0,1.74-2.53c1.36-4,4.82-4.33,7.12-3.23a2.57,2.57,0,0,1,1.57,2.81c-.06.33-.42.72.21.9a.75.75,0,0,0,1-.51c.46-1.29,1-2.57,1.4-3.88.54-1.75,1-3.53,1.46-5.29A1.2,1.2,0,0,0,69,38.25c-1.93-2.3-2-5.08-2-7.86a23.79,23.79,0,0,1,.41-3.05c.52-.08.51.27.57.48.45,1.51,1.6,2.6,2.32,3.94.06.13.11.3.3.25a.36.36,0,0,0,.28-.42,2,2,0,0,0-.23-.85c-2.62-4-1.27-7.64,1-11.15,1.28-1.95,2.63-3.83,2.85-6.24,0-.22.06-.47.34-.51s.41.15.48.38c1.22,3.59,2.81,7.08,2.62,11a7.25,7.25,0,0,1-4.75,6.9,3,3,0,0,0-.42.16,1.17,1.17,0,0,0-.49,1.38c.16.57.68.18,1,.07,1.86-.62,3.84-.49,5.72-1a9.06,9.06,0,0,0,5.66-4.42c.15-.26.25-.62.61-.58s.33.44.3.73c-.57,5.06-2.1,9.61-6.46,12.77a6.91,6.91,0,0,1-7.76.64c-.85-.45-1-.25-1.27.56-.56,2-1.21,3.92-1.81,5.89-.08.26-.29.55,0,.91.93-.62,2.07-.84,2.54-2.22s3.09-1.47,4-.43a1.57,1.57,0,0,1-.24,2.55,2.89,2.89,0,0,1-3.25.42,1.23,1.23,0,0,0-1.59.08c-.06.05-.14.07-.2.12-.52.41-1.44.6-1.46,1.27s.95.61,1.45.94a6,6,0,0,1,2.65,5.7c-.13,2.35-1.56,3.78-3.71,4.58-1.54.57-3.22.64-4.73,1.33a.51.51,0,0,1-.62-.13c-.21-.24-.1-.49,0-.73a10.93,10.93,0,0,1,1.73-2.48,8.18,8.18,0,0,0,2.09-6.94c0-.21,0-.49-.26-.53s-.28.2-.38.36c-3.17,5-6.69,9.81-10.17,14.62,0,0,0,.07,0,.11-.16.08-.36.19-.18.38s.32,0,.43-.13c3.89-.84,6.33.53,7.68,4.27.53,1.46.89,3,2.58,3.71.29.11.3.5.19.81s-.44.45-.81.44a7.73,7.73,0,0,1-5.68-2.23,6.11,6.11,0,0,0-7.79-.58A7.86,7.86,0,0,1,57.6,77.1c.41.59,1.14.51,1.72.7,3.29,1.06,4.85,2.85,4.79,6.28s.72,6.58,3.15,9.16c.19.2.49.45.23.77s-.54.14-.81,0c-2.5-1.48-5-2.92-7.5-4.45a11.91,11.91,0,0,1-5.08-5.79,4.45,4.45,0,0,1,1.78-5.67c.34-.22.75-.41.35-.82-1.31-1.3-2.49-2.84-4.66-2.72-.51,0-.66.25-.92.7-1.5,2.57-.38,5.24-.43,7.86-.06,3.69.35,7.39-.26,11.07a1.47,1.47,0,0,1-1.65.21c-.61-.33-.37-1-.36-1.51C48,92.58,47.92,92.29,47.91,92ZM45.45,74.11c.34,0,.82.13,1-.27s-.27-.64-.5-.91a14.38,14.38,0,0,0-9.71-5.38c-.41,0-1-.35-1.09.33s-.79,1.32,0,2A19.85,19.85,0,0,0,45.45,74.11ZM54,14.8a20.53,20.53,0,0,0-.49-5A15.62,15.62,0,0,0,51.9,5.7c-.1-.21-.23-.55-.58-.31s-.19.35,0,.58A16.84,16.84,0,0,1,53,11.2a15.64,15.64,0,0,1-.3,7.72,24.64,24.64,0,0,1-4.5,8.66,9.3,9.3,0,0,0-2,4c0,.23-.13.59.2.68s.4-.25.53-.46c1.06-1.66,2-3.42,3.22-5A18.43,18.43,0,0,0,54,14.8Zm16.88,24c.39.16.52-.05.68-.2a11.75,11.75,0,0,1,5.84-2.52,9,9,0,0,0,6.48-4.44,2.31,2.31,0,0,0,.21-2.38c-1.19,3.66-3.92,5.16-7.27,5.92a11.49,11.49,0,0,0-4.2,1.38A3.19,3.19,0,0,0,70.88,38.77ZM75.8,19.38c.16-1-.32-2-.24-3.12,0-.4-.22-.85-.61-.78s-.17.51-.14.82a18.5,18.5,0,0,1-.08,4.46,23,23,0,0,1-2.47,6.76,4.42,4.42,0,0,0-.49,2.36c0,.24,0,.47.36.45s.27-.22.3-.41a6.8,6.8,0,0,1,1.1-2.53A14.82,14.82,0,0,0,75.8,19.38ZM23.92,52.3a3.64,3.64,0,0,0-.68-3c-2.09-3.25-3.7-6.65-3.4-10.66,0-.28.13-.7-.26-.76s-.42.44-.47.71a14.09,14.09,0,0,0,.79,6.88C20.71,48,22.54,50,23.92,52.3ZM17.3,70.19a14.62,14.62,0,0,0,9.31.17c2.44-.71,4.59-2.12,7-2.86.24-.07.59,0,.53-.41s-.39-.28-.64-.28a8.31,8.31,0,0,0-3.87,1.31,17.83,17.83,0,0,1-10.17,2C18.76,70.08,18.05,69.77,17.3,70.19ZM28.36,23.11a23.63,23.63,0,0,0,2.47,6.94c1,1.93,2.35,3.74,2.52,6,0,.37.27.76.59.71.52-.09.3-.62.25-.93-.4-2.51-1.71-4.64-2.85-6.84-1-1.91-2.11-3.75-2.06-6,0-.34.16-.85-.41-.88S28.46,22.69,28.36,23.11Zm29.2,55c-.54.05-.24.38-.21.64a25,25,0,0,0,1.51,5A14.58,14.58,0,0,0,64,91.28c.21.15.41.61.7.28s-.19-.48-.39-.66a17.5,17.5,0,0,1-4.95-8.15,25.89,25.89,0,0,0-1.29-4.12C57.93,78.39,57.87,78.14,57.56,78.07ZM52,72.42c2.59-.48,2.59-.48,1.91-2.38A12.36,12.36,0,0,0,52,72.42Z"></path>
    </g>
  </g>
</svg>
