<?xml version="1.0" encoding="UTF-8"?>
<svg xmlns="http://www.w3.org/2000/svg" xmlns:xlink="http://www.w3.org/1999/xlink" viewBox="0 0 32.3 66.83">
  <defs>
    <style>.cls-1{fill:#8e6848;}.cls-2{fill:url(#Безымянный_градиент_7);}.cls-3{fill:#713e21;}.cls-4{fill:#3d271f;}.cls-5{fill:#69391e;}.cls-6{fill:#6b482f;}.cls-7{fill:#5c3624;}.cls-8{fill:#795135;}.cls-9{fill:#9a734f;}.cls-10{fill:#e7e6e3;}.cls-11{fill:#85563a;}.cls-12{fill:#9d54ba;}.cls-13{fill:#90b63c;}.cls-14{fill:#8cb132;}.cls-15{fill:#7a9635;}.cls-16,.cls-17{fill:none;stroke:#8cb132;stroke-miterlimit:10;}.cls-16{stroke-width:0.43px;}.cls-17{stroke-width:0.43px;}</style>
    <linearGradient id="Безымянный_градиент_7" x1="15.4" y1="78.06" x2="16.92" y2="49.88" gradientUnits="userSpaceOnUse">
      <stop offset="0.38" stop-color="#9b714f"></stop>
      <stop offset="0.91" stop-color="#754427"></stop>
      <stop offset="1" stop-color="#6e3c20"></stop>
    </linearGradient>
  </defs>
  <g id="Слой_2" data-name="Слой 2">
    <g id="Слой_1-2" data-name="Слой 1">
      <path class="cls-1" d="M16.92,47.42s2.83,3.31,5,3.45,9.62-2.22,9.62-2.22l.75-7.75L16.92,35.47Z"></path>
      <path class="cls-1" d="M0,40.35,1.53,50.46S7,51.28,7.94,51s5.31-1.91,6.54-1.91,2.44-1.68,2.44-1.68v-12Z"></path>
      <polygon class="cls-2" points="2.27 59.93 16.92 66.83 30.48 59.96 16.39 53.99 2.27 59.93"></polygon>
      <path class="cls-3" d="M2.27,59.93l-.74-9.47s7-.14,8.86-1.09a40.36,40.36,0,0,1,6.53-1.95L16.39,54Z"></path>
      <path class="cls-4" d="M12.17,51.05a2.37,2.37,0,0,0-.83-.49h0A1.71,1.71,0,0,0,9.63,51c-.61.74-.5,1.55-.23,1.68a3.3,3.3,0,0,0,.48.1h0a8.26,8.26,0,0,0,1-.24.53.53,0,0,0,.17,0l.19-.06c.44-.13.49,0,.79-.3a1.16,1.16,0,0,0,.32-.74.58.58,0,0,0-.06-.15h0A.28.28,0,0,0,12.17,51.05Z"></path>
      <path class="cls-4" d="M6.22,52A3.49,3.49,0,0,0,5,52.41H5a2.23,2.23,0,0,0-1,2c.2,1.22,1.07,1.8,1.43,1.65.1-.05.34-.26.5-.38,0,0,0,0,0,0a11.12,11.12,0,0,0,.65-1.19.49.49,0,0,0,.1-.21L6.79,54c.24-.53.38-.5.38-1a1.52,1.52,0,0,0-.45-1L6.53,52h0A.42.42,0,0,0,6.22,52Z"></path>
      <path class="cls-5" d="M16.92,47.42,16.39,54l14.09,6,1.07-11.31a36,36,0,0,0-6.3-.23C23.34,48.69,20,49.51,19,49A13,13,0,0,1,16.92,47.42Z"></path>
      <path class="cls-4" d="M11.55,54.17a.87.87,0,0,0-.36-.09h0a.68.68,0,0,0-.6.35c-.14.35,0,.64.1.66l.19,0a0,0,0,0,0,0,0,2.43,2.43,0,0,0,.36-.2.09.09,0,0,0,.06,0l.07,0c.15-.1.18-.07.26-.2a.41.41,0,0,0,0-.31.1.1,0,0,0,0,0h0A.1.1,0,0,0,11.55,54.17Z"></path>
      <path class="cls-4" d="M25.37,51.34a.59.59,0,0,0,0-.26h0s-.12-.3-.38-.31-.42.15-.4.23a.67.67,0,0,0,.06.12h0a1.74,1.74,0,0,0,.22.18s0,0,0,0l0,0c.1.08.09.1.19.13a.33.33,0,0,0,.22-.06s0,0,0,0h0A.07.07,0,0,0,25.37,51.34Z"></path>
      <path class="cls-4" d="M29.3,56.09A3.16,3.16,0,0,0,28.75,55h0a2.24,2.24,0,0,0-2.15-.76c-1.19.39-1.64,1.33-1.44,1.67a6.29,6.29,0,0,0,.45.45h0a11.56,11.56,0,0,0,1.28.48l.23.07.25.08c.56.15.55.3,1.06.23a1.53,1.53,0,0,0,.88-.59c0-.05,0-.12,0-.2h0v0A.37.37,0,0,0,29.3,56.09Z"></path>
      <path class="cls-4" d="M21.64,52.19a2.46,2.46,0,0,0-.54.79h0a1.72,1.72,0,0,0,.28,1.73c.7.66,1.5.61,1.65.35a3.74,3.74,0,0,0,.14-.46s0,0,0,0a9.15,9.15,0,0,0-.16-1,.42.42,0,0,0,0-.18l0-.19c-.1-.44,0-.49-.24-.8A1.15,1.15,0,0,0,22,52l-.15.05h0A.28.28,0,0,0,21.64,52.19Z"></path>
      <path class="cls-6" d="M21.7,60.22a.48.48,0,0,0,.46-.12c.15-.21.12-.42.05-.46l-.13,0c-.09,0-.1.2-.1.21S21.7,60.22,21.7,60.22Z"></path>
      <path class="cls-7" d="M21.42,60.05s.26.23.36.16a2.37,2.37,0,0,1,.24-.13V60a1.11,1.11,0,0,0-.28-.1l-.17.06A.87.87,0,0,0,21.42,60.05Z"></path>
      <path class="cls-8" d="M21.4,60s0,.11.12.08l.15-.07s.08-.24.1-.28,0-.06-.07,0-.14,0-.21.09A.33.33,0,0,0,21.4,60Z"></path>
      <path class="cls-9" d="M21.67,60a1.57,1.57,0,0,0,0-.2c0-.09,0-.12.08-.13s.25-.09.33-.06.07,0,.07.13a.34.34,0,0,1-.11.25.2.2,0,0,1-.22.1A.84.84,0,0,1,21.67,60Z"></path>
      <path class="cls-6" d="M18.56,58.42a1,1,0,0,0,1-.49c.25-.52.08-1-.1-1a1.62,1.62,0,0,0-.3,0c-.19,0-.11.49-.11.5S18.56,58.42,18.56,58.42Z"></path>
      <path class="cls-7" d="M17.87,58.18s.68.39.88.18.45-.41.45-.41l-.05-.15a2,2,0,0,0-.66-.07l-.34.2A2.53,2.53,0,0,0,17.87,58.18Z"></path>
      <path class="cls-8" d="M17.82,58.1c0,.06.13.22.29.12a3.76,3.76,0,0,0,.31-.22s0-.57.07-.67.07-.14-.17,0-.28.09-.42.29A.69.69,0,0,0,17.82,58.1Z"></path>
      <path class="cls-9" d="M18.42,58a3.11,3.11,0,0,0,0-.47c0-.2,0-.25.12-.32s.5-.33.69-.3.17,0,.22.25a.84.84,0,0,1-.12.62.46.46,0,0,1-.44.31A1.09,1.09,0,0,1,18.42,58Z"></path>
      <path class="cls-6" d="M15.64,60.7a1,1,0,0,0,1,.13c.49-.29.6-.76.47-.89a1.46,1.46,0,0,0-.24-.15c-.16-.1-.36.33-.37.34Z"></path>
      <path class="cls-7" d="M15.21,60.13s.34.68.62.63a5.62,5.62,0,0,1,.58-.09l.05-.15s-.38-.41-.5-.42l-.38,0A2.56,2.56,0,0,0,15.21,60.13Z"></path>
      <path class="cls-8" d="M15.21,60c0,.06,0,.24.18.25a2.67,2.67,0,0,0,.37,0s.35-.43.42-.5.14-.08-.13-.1-.28-.08-.5,0A.72.72,0,0,0,15.21,60Z"></path>
      <path class="cls-9" d="M15.76,60.28a3.53,3.53,0,0,0,.24-.39c.09-.18.1-.23.27-.19s.58,0,.72.13.13.12.05.33a.84.84,0,0,1-.44.43.47.47,0,0,1-.53,0A1.17,1.17,0,0,1,15.76,60.28Z"></path>
      <path class="cls-6" d="M14.38,58.81a.78.78,0,0,0,0-.8c-.25-.35-.62-.4-.71-.3l-.1.2c-.06.13.28.25.28.25Z"></path>
      <path class="cls-7" d="M14,59.18s.5-.3.44-.51-.1-.44-.1-.44l-.12,0s-.29.32-.29.41,0,.26,0,.3A1.37,1.37,0,0,0,14,59.18Z"></path>
      <path class="cls-8" d="M13.9,59.18s.19,0,.18-.14a1.57,1.57,0,0,0,0-.29l-.41-.29c-.06-.05-.07-.09-.06.11s0,.22,0,.38A.5.5,0,0,0,13.9,59.18Z"></path>
      <path class="cls-9" d="M14.05,58.75a3.33,3.33,0,0,0-.31-.16c-.14-.05-.18-.06-.16-.19s0-.44.05-.56.08-.1.24-.05a.61.61,0,0,1,.36.3.34.34,0,0,1,0,.4A.77.77,0,0,1,14.05,58.75Z"></path>
      <path class="cls-6" d="M11.9,59.4a.32.32,0,0,0,.11-.32c-.06-.18-.2-.25-.25-.22l-.07.07s.08.14.08.14Z"></path>
      <path class="cls-7" d="M11.68,59.5s.25-.06.25-.15,0-.2,0-.2l0,0a.78.78,0,0,0-.18.13.68.68,0,0,1,0,.12A.57.57,0,0,0,11.68,59.5Z"></path>
      <path class="cls-8" d="M11.65,59.5s.08,0,.09,0a.9.9,0,0,0,0-.12,1.72,1.72,0,0,1-.13-.18s0,0,0,0,0,.09,0,.16A.24.24,0,0,0,11.65,59.5Z"></path>
      <path class="cls-9" d="M11.77,59.34l-.11-.11c-.05,0-.07,0,0-.1s0-.19.09-.22,0,0,.11,0a.33.33,0,0,1,.11.18.15.15,0,0,1,0,.17A.33.33,0,0,1,11.77,59.34Z"></path>
      <path class="cls-6" d="M11.14,60.77a1.33,1.33,0,0,0,0-1.38c-.44-.61-1.07-.7-1.22-.52a1.74,1.74,0,0,0-.18.34c-.11.23.49.43.5.44Z"></path>
      <path class="cls-7" d="M10.43,61.41s.86-.53.75-.89a6.76,6.76,0,0,1-.18-.76l-.2,0s-.5.55-.5.7,0,.45,0,.52A3,3,0,0,0,10.43,61.41Z"></path>
      <path class="cls-8" d="M10.31,61.42c.09,0,.32,0,.31-.26a3.39,3.39,0,0,0-.06-.48s-.61-.42-.71-.51-.12-.16-.11.19-.07.38.06.66A.91.91,0,0,0,10.31,61.42Z"></path>
      <path class="cls-9" d="M10.56,60.68A4.18,4.18,0,0,0,10,60.4c-.24-.1-.31-.11-.28-.34s-.07-.76.08-1,.14-.19.43-.1.41.23.62.52a.62.62,0,0,1,.08.7A1.54,1.54,0,0,1,10.56,60.68Z"></path>
      <path class="cls-10" d="M15.71,44.15c0,.05,0,.11,0,.16s-.05.22.06.28a.29.29,0,0,0,.31,0,1.13,1.13,0,0,1-.08.68c-.13.56,0,.51.42.69a7.79,7.79,0,0,0,1.18.16,2.69,2.69,0,0,1,.69.24.24.24,0,0,1,.1.4.39.39,0,0,0,0,.51.31.31,0,0,1-.07.45c-.1.1-.15.17,0,.21a.25.25,0,0,1,.19.2c0,.15.08.23.23.1a.34.34,0,0,1,.28,0,.27.27,0,0,1,.21.42c-.11.19-.05.31.17.35h.06c.38,0,.45.09.54.46.05.2.05.41.11.6s0,.13,0,.14-.06-.06-.09-.1a2.72,2.72,0,0,1-.13-.51c-.13-.37-.15-.4-.48-.41a.36.36,0,0,1-.35-.52c0-.08.09-.16,0-.23s-.15,0-.23,0l-.13.06a.22.22,0,0,1-.31-.18.21.21,0,0,0-.18-.21c-.23-.07-.27-.25-.1-.42a.29.29,0,0,0,.05-.42.39.39,0,0,1,0-.46c.1-.16.05-.27-.1-.33a2.34,2.34,0,0,0-1-.23,2,2,0,0,1-1-.22c-.05,0-.16-.14-.2,0s-.09.19.08.26.24.14.39.14.14.07.16.14.17.2.32.19a.82.82,0,0,1,.5.2s.07.05.05.08-.07,0-.1,0a1.38,1.38,0,0,0-.56-.12.4.4,0,0,1-.32-.23c0-.09-.09-.18-.22-.1s-.15,0-.21-.09-.06-.07-.11,0,0,.06,0,.09a.36.36,0,0,0,.17.39.41.41,0,0,1,.21.27,1.1,1.1,0,0,0,.54.69,2.79,2.79,0,0,1,.91,1c.06.12.2.15.29.2a1.14,1.14,0,0,0,.53.21c.27,0,.43.25.61.44-.13.07-.17,0-.23-.07s-.31-.31-.57-.23c-.11,0-.19-.09-.28-.15s-.09-.06-.13,0,0,.09,0,.13A.8.8,0,0,1,18,50a1.14,1.14,0,0,0,.11.94.2.2,0,0,0,.18.11.86.86,0,0,1,.56.17.28.28,0,0,0,.2,0,.53.53,0,0,1,.18,0,.42.42,0,0,1,.27.18s0,.05,0,.06-.17-.07-.26-.09-.05,0-.07,0c-.3.07-.55-.16-.85-.16-.09,0-.12,0-.13.09a2,2,0,0,0,.05.64.31.31,0,0,1,0,.25.32.32,0,0,0,0,.35.33.33,0,0,1,0,.38q-.09.21.12.27a.72.72,0,0,1,.52.73.91.91,0,0,0,.11.3c.05.13,0,.23-.14.33.06-.34-.15-.59-.17-.88a.76.76,0,0,0-.5-.37c-.06,0-.07.06-.08.11a1.31,1.31,0,0,0,0,.28c.15.65.11,1.31.22,2a1.49,1.49,0,0,1-.07.55c0,.06,0,.07-.11.06s-.06-.06,0-.12a2.09,2.09,0,0,0,0-.93c-.05-.31,0-.64-.09-1s-.06-.33-.08-.5a1.91,1.91,0,0,1,.14-.85.35.35,0,0,0,0-.33.4.4,0,0,1,0-.37.39.39,0,0,0-.1-.4.25.25,0,0,1,0-.37.38.38,0,0,0,0-.47,1,1,0,0,1-.18-.64c0-.1,0-.1-.12-.08s-.21.14-.31.22-.09.15-.16.1,0-.14.06-.19.21-.29.42-.29.18-.12.2-.25a1.71,1.71,0,0,0-.26-.89,2.49,2.49,0,0,0-.93-1l-.1-.07c-.05,0-.09-.12-.15-.08s0,.14,0,.19a1.32,1.32,0,0,1-.17,1.35c-.12.24-.1.29.14.36l0,0c.12.23.4.17.56.33s.14.05.09.13a.13.13,0,0,1-.18,0c-.11-.21-.41-.06-.51-.29,0,0-.06,0-.09,0a.08.08,0,0,0,0,.09.62.62,0,0,1-.16.74c-.13.15-.09.32-.07.52s.29.31.45.43a.15.15,0,0,0,.16,0,.25.25,0,0,1,.26.09c0,.06.08.13,0,.19s-.11,0-.15-.05a.18.18,0,0,0-.17,0,.36.36,0,0,1-.33-.12c-.09-.11-.21,0-.29.08a.12.12,0,0,0,.05.21c.34.1.38.39.49.65,0,0,0,.1,0,.11a2.3,2.3,0,0,1,.57.27s.11,0,.16,0,.15.09.1.17-.11,0-.17-.05a.77.77,0,0,1-.44-.2s-.13,0-.1.08,0,.18,0,.26a.58.58,0,0,1-.54.67.4.4,0,0,0-.28.11c.11.06.22.12.34,0s.12-.06.17,0,.25.13.41.12a.26.26,0,0,1,.17,0c.07.06.19.11.14.2s-.12,0-.18,0l-.19,0c-.05,0-.13,0-.16,0-.18-.21-.43,0-.63-.12s-.15,0-.16,0a.34.34,0,0,0,.07.36c.13.13.33.15.46.28h.05c.13-.23.3,0,.45,0s.14.07.13.15-.09,0-.13,0a.2.2,0,0,1-.16,0c-.07-.06-.12,0-.18,0s-.15.13-.24,0-.27-.11-.37-.23-.1,0-.12.06a.52.52,0,0,0,.17.55c.06,0,.13.09.18.14s.14.21,0,.34a.45.45,0,0,0-.09.48,2.81,2.81,0,0,1,.06,1.32,2,2,0,0,0,.09.74c0,.08.07.18,0,.22s-.13-.06-.16-.14a1.76,1.76,0,0,1-.09-.91c0-.3,0-.6,0-.9s-.08-.17-.19-.09a.74.74,0,0,0-.32.53s0,.12-.08.11-.07-.08-.06-.14a.93.93,0,0,1,.36-.65c.09-.07.16-.14.13-.27a.37.37,0,0,1,.11-.28c.1-.14.08-.26-.08-.33a.4.4,0,0,1-.16-.13c-.05-.08-.1-.09-.19-.06a.15.15,0,0,1-.19,0c-.16-.17-.21,0-.21.1s-.11.19-.2.26-.22.12-.32,0-.1,0-.16,0-.16-.06-.2-.14,0-.14.07-.1.21,0,.3.08a.22.22,0,0,0,.36-.15c0-.25.15-.31.39-.2s.23,0,.22-.14c0-.33.12-.65.09-1s.2-.39.52-.42a.37.37,0,0,0,.31-.2s.06-.11,0-.16-.14-.1-.2,0-.23.17-.39.1-.12.06-.18.09-.15,0-.18-.07.06-.07.11-.1c.2-.12.47,0,.64-.2,0,0,0,0,0,0,.34.11.14-.12.11-.21s-.12-.35-.18-.52,0-.11-.11-.1-.05.06-.07.11a.4.4,0,0,1-.38.26.26.26,0,0,0-.24.13s-.06.08-.11.06a.09.09,0,0,1,0-.14.33.33,0,0,1,.3-.24.35.35,0,0,0,.32-.33c0-.11-.1-.12-.16-.09a.27.27,0,0,1-.34,0c-.09-.08-.17-.06-.24,0a.17.17,0,0,1-.18.07s-.08,0-.08-.08,0,0,.06-.06.09,0,.13-.09a.24.24,0,0,1,.39,0c.15.12.19.1.23-.09s0-.09.05-.14.16-.31,0-.5,0-.44.1-.61A.56.56,0,0,0,16,50a.73.73,0,0,1-.08-.53.6.6,0,0,0-.27.25.39.39,0,0,1-.3.17.35.35,0,0,0-.35.26s0,.15-.1.12-.1-.12,0-.21a.55.55,0,0,1,.3-.27c.33-.05.46-.37.71-.5a.89.89,0,0,0,.39-.45c0-.06.09-.14,0-.18a.15.15,0,0,0-.18.07c-.06.21-.27.24-.39.38a.11.11,0,0,1-.13,0,.49.49,0,0,0-.5.09.36.36,0,0,1,.36-.28.49.49,0,0,0,.49-.29.32.32,0,0,1,.25-.17c.05,0,.12,0,.11-.1a.7.7,0,0,0-.08-.29c-.05-.07-.1,0-.16.06a2.21,2.21,0,0,0-.78.61c-.13.16-.34.22-.5.35a.84.84,0,0,0-.27.94.88.88,0,0,1-.07.85.73.73,0,0,0,0,1,.35.35,0,0,1,.05.37s0,.07-.07.07a0,0,0,0,1-.05-.07.63.63,0,0,0-.2-.46.63.63,0,0,1,0-.73,3.07,3.07,0,0,1,.17-.31s0-.08,0-.11a.09.09,0,0,0-.13,0c-.11.09-.21.17-.37.09s-.09,0-.13.07a.16.16,0,0,1-.24,0c-.06,0,0-.1,0-.12l.14,0c.25,0,.48-.15.73-.17s.08-.08.07-.13-.11-.31-.13-.48a.9.9,0,0,1,.06-.43c0-.05.06-.1,0-.13s-.09,0-.13,0a.18.18,0,0,0-.11.16.17.17,0,0,1-.18.15c-.22,0-.26.1-.23.28a.84.84,0,0,1,0,.1.28.28,0,0,1-.13-.31c0-.11.1-.21.25-.21s.1,0,.11,0c0-.26.34-.28.47-.46l.07,0a1.24,1.24,0,0,0,.86-.5,1.76,1.76,0,0,1,.62-.46.56.56,0,0,0,.2-.14c.12-.12.07-.25-.09-.29a.85.85,0,0,0-.17-.06s-.14,0-.16,0c-.19.3-.66.07-.79.49a.33.33,0,0,1,.27-.44.59.59,0,0,0,.37-.18.36.36,0,0,1,.36-.07c.05,0,.13,0,.16,0s-.05-.09-.09-.12a1.09,1.09,0,0,1-.34-.5c0-.06-.05-.11-.13-.1a.12.12,0,0,0-.1.11c-.08.43-.26.59-.69.53-.19,0-.32.07-.48.1s-.05.07-.05.11c0,.23-.12.33-.34.28a.76.76,0,0,0-.16,0c-.09,0-.13,0-.1.13s0,.35-.26.32-.55.18-.79.34l-.24.19a.07.07,0,0,1-.11,0s0-.06.05-.08l.54-.46a.57.57,0,0,1,.45-.16c.12,0,.16,0,.15-.15s.12-.34.34-.29l.14,0c.11,0,.2,0,.15-.15s0-.22.19-.26a2,2,0,0,1,.6-.05.35.35,0,0,0,.42-.39.28.28,0,0,1,.26-.29c.1,0,.12-.07.12-.16a2.71,2.71,0,0,1,0-.29c0-.22-.13-.35-.33-.25s-.63.2-.8.55a.46.46,0,0,1-.47.24.59.59,0,0,0-.72.45c0,.05,0,.09-.1.07s0-.08,0-.12c0-.23.39-.6.63-.58a.63.63,0,0,0,.68-.37.25.25,0,0,1,.17-.15c.3-.09.55-.34.9-.27.08,0,.1-.06.09-.13a5.2,5.2,0,0,1,.09-1C15.62,44.33,15.69,44.25,15.71,44.15Zm.19,5.27h0Z"></path>
      <polygon class="cls-11" points="0 40.35 16.92 47.42 32.3 40.9 16.92 35.47 0 40.35"></polygon>
      <path class="cls-12" d="M8.66,17.87s0-1.43-1.3-1.61a.08.08,0,0,0-.1.09A3.92,3.92,0,0,0,8,18.25C8.73,19.28,8.66,17.87,8.66,17.87Z"></path>
      <path class="cls-12" d="M6.71,16.47a.12.12,0,0,0-.19-.07.78.78,0,0,0-.29.45,2.3,2.3,0,0,0,.39,1.81c.45.58,1-.17,1-.38S6.88,17,6.71,16.47Z"></path>
      <path class="cls-12" d="M6.66,16.61s.15-.75.61-.12.9,1.23.86,1.45-.55.92-.89.44A4.19,4.19,0,0,1,6.66,16.61Z"></path>
      <path class="cls-13" d="M8.18,19.23A1.4,1.4,0,0,0,8.85,18c0-.79-.43-.89-.5-.92s-.11.25-.21.25-.22-.2-.35,0,0,.46-.47.39-.33.1-.45.17-.57,0-.51.3a2.13,2.13,0,0,0,1,1.09l.12,0A.87.87,0,0,0,8.18,19.23Z"></path>
      <path class="cls-14" d="M20.28,27.13a2,2,0,0,1,2.32,2c0,1-.93,1.38-1.23,1.85s-.68.92-.53-.23a3.21,3.21,0,0,0-.53-2.93C19.45,26.69,20.28,27.13,20.28,27.13Z"></path>
      <path class="cls-14" d="M15.37,33.17c0,.09-.77.69-.86,1.06s-.38,1.2-.87,1.43a1.32,1.32,0,0,0-.78.62c-.36.44.39.87-1.33.91a12.15,12.15,0,0,0-2.73.41c-.26,0-1.13.34,0-.58s.95-1,1.08-1.46a1,1,0,0,1,.9-.59c.21,0,.43.16.51-.45s.05-.77.8-.75.68.09.88-.28.13-.45.38-.49A6.41,6.41,0,0,1,15,32.91C15.33,33,15.46,32.81,15.37,33.17Z"></path>
      <path class="cls-14" d="M19.58,27c-.15-.05-1.6-.36-2.11.23s-.72.65-1.12.68c0,0,.11-.06.07-.78s.85-2.07,2.49-.93S19.58,27,19.58,27Z"></path>
      <path class="cls-14" d="M10.41,16.54a4.5,4.5,0,0,1-3.49-1.87A2.6,2.6,0,0,1,10.41,16.54Z"></path>
      <path class="cls-14" d="M10.5,16.5A4.53,4.53,0,0,0,14,14.63,2.6,2.6,0,0,0,10.5,16.5Z"></path>
      <path class="cls-14" d="M10.28,15.48a10,10,0,0,1,1-1.22c.44-.41.74-.71.47-1.19s-.47-.6-.18-.89A2,2,0,0,0,12,9.77c-.67-1.2-.11-.69-.32-1.34s-.15-.81-1.4-1.31-.57-1.18-2-1.1c0,0,0,.12-.47-.11s-.61-.3-.34.44,0,.62.12,1.13.13.48.37.66.5-.06.34.53-.62.94-.27,1.46.6.58.4.91a1.36,1.36,0,0,0-.18,1.6A7.18,7.18,0,0,0,10.28,15.48Z"></path>
      <path class="cls-15" d="M8.78,7.1a3.2,3.2,0,0,1,1.36,1.71,4.47,4.47,0,0,1,.1,2.21c-.11.72-.23,1.45-.28,2.18a3.82,3.82,0,0,0,.32,2.14,3.52,3.52,0,0,1-.4-2.14c0-.74.14-1.47.24-2.2a4.39,4.39,0,0,0-.06-2.16A3.42,3.42,0,0,0,8.78,7.1Z"></path>
      <path class="cls-14" d="M15.72,14.07c-.1-.1-.18-.1,0-.83a4.7,4.7,0,0,0-.36-2.69c-.11-.05-1.27-1.61-.73-2.47s1-1,.67-1.39S13.71,6,13.84,5.19s.6-1,.9-1.44.26-.51-.16-1.1a17.36,17.36,0,0,1-1.15-2c0-.15-.53-1,1-.54s3.12,3.66,4.5,4.15a1.38,1.38,0,0,1,1,1.8A2.1,2.1,0,0,0,20,8c.6,1,.06,3.65-1.53,4.7S16.15,14.54,15.72,14.07Z"></path>
      <path class="cls-15" d="M15.85,2.55A16.09,16.09,0,0,1,17,5.39a15,15,0,0,1,.62,3,9.73,9.73,0,0,1-.21,3.09A6.79,6.79,0,0,1,16,14.21a7.14,7.14,0,0,0,1.3-2.74,9.63,9.63,0,0,0,.16-3,15.26,15.26,0,0,0-.56-3A21.13,21.13,0,0,0,15.85,2.55Z"></path>
      <path class="cls-14" d="M29.73,22.12s-.87,1-1.51,1.08-.71-.13-.85,0-.3.51-.74.29-.48-.58-.85-.22-.89-.28-1.66-.43c-1.1-.22-2.33,0-1.42-.46a12.11,12.11,0,0,0,1.4-.86c.35-.24,1-.72,1.23-.48.48.44.54.17.75,0a.7.7,0,0,1,.85-.12c.43.23.38.31.71.06s.95.14,1.13.22a5.81,5.81,0,0,1,1,.61C29.84,21.94,29.85,22,29.73,22.12Z"></path>
      <path class="cls-15" d="M23.45,22.43a12.43,12.43,0,0,1,1.6-.27,4.65,4.65,0,0,1,1.62.09A6.69,6.69,0,0,0,29.84,22a6.08,6.08,0,0,1-3.19.36,4.77,4.77,0,0,0-1.59-.14C24.52,22.28,24,22.37,23.45,22.43Z"></path>
      <path class="cls-14" d="M21.67,34s.32.3.5.28a1.44,1.44,0,0,0,.89-.12c.46-.25.57-.06.45.08s-1.38,1.35-1.5,1.49-.51.64-1,.18-.35.22-.88.25-.7-.35-1.4-.37a2,2,0,0,1-1.9-1.58c-.27-1.09-.5-1.17-.44-1.51s.14-.92,1,.54a3.22,3.22,0,0,0,.46.4,2.37,2.37,0,0,0,.42,0,.52.52,0,0,1,.41.22c.08.08.05.26.41.05A.69.69,0,0,1,20,34c.07.14.22.46.52.36S21,33.75,21.67,34Z"></path>
      <path class="cls-15" d="M21.26,35a8.94,8.94,0,0,1-2.62-.25,3.77,3.77,0,0,1-1.2-.56,1.6,1.6,0,0,1-.71-1.08,1.77,1.77,0,0,0,.74,1,3.72,3.72,0,0,0,1.19.52A10.91,10.91,0,0,0,21.26,35Z"></path>
      <path class="cls-14" d="M14.16,23.8c-.06.09-1.43,1.3-1.9,1.16s-.53-.45-.78-.11-.2.71-.74.55-.28-.22-.68,0-.31.33-.69.16-.51-.28-.63-.19-.17-.18-.3-.16-1,0-.72-.38.86-.87.94-1-.1-.43.14-.58a1.85,1.85,0,0,1,.89,0,.4.4,0,0,0,.43-.18c.14-.26.56.41.86.15s.45-.38.58-.31a2.92,2.92,0,0,0,1.57.3C13.85,23,14.67,23.06,14.16,23.8Z"></path>
      <path class="cls-15" d="M13.41,23.56c-.78.21-1.58.35-2.36.54l-1.19.24c-.4.1-.79.17-1.18.28A15.92,15.92,0,0,1,11,24C11.82,23.83,12.61,23.66,13.41,23.56Z"></path>
      <path class="cls-14" d="M22.45,22.82s-1.81.27-3.6-2.87a11.64,11.64,0,0,1,1.44.5C21.45,20.89,22.83,21.25,22.45,22.82Z"></path>
      <path class="cls-14" d="M4.82,27.44S3.5,28.72.22,27.2a13.73,13.73,0,0,1,1.46-.43C2.89,26.46,4.22,25.94,4.82,27.44Z"></path>
      <path class="cls-14" d="M5.33,27.67s1.78-.44,2.25-4a10.56,10.56,0,0,0-1.14,1C5.53,25.51,4.39,26.36,5.33,27.67Z"></path>
      <path class="cls-14" d="M17.46,10.82a18.74,18.74,0,0,0-2.83,6.61,19,19,0,0,0-.33,6.88c.51,2.68,1.17,5.3,1.5,8a59.58,59.58,0,0,1,.4,8.34.33.33,0,0,0,.65,0,60.27,60.27,0,0,0-1.53-14.78,16.07,16.07,0,0,1-.59-3.9A27.61,27.61,0,0,1,15.18,18a15,15,0,0,1,1-3.78A34.58,34.58,0,0,1,18,11.15c.22-.36-.34-.68-.56-.33Z"></path>
      <path class="cls-16" d="M23.47,18.13c.28,2.42-.24,2.85-1.37,5-.48.93-1.08,1.78-1.65,2.66a47.46,47.46,0,0,0-4,7.52"></path>
      <path class="cls-14" d="M9.49,13.87a20.32,20.32,0,0,1,.59,2.39,16,16,0,0,0,.74,2.15,8.94,8.94,0,0,0,1.34,2.05c.59.75,1.2,1.5,1.81,2.24.26.33.72-.13.46-.46-.57-.7-1.15-1.4-1.71-2.11A8.25,8.25,0,0,1,11.35,18a17.68,17.68,0,0,1-.66-2,18.26,18.26,0,0,0-.57-2.32c-.15-.38-.78-.22-.63.17Z"></path>
      <path class="cls-14" d="M3.05,25.53a16.77,16.77,0,0,0,13,7.53c.42,0,.42-.63,0-.65A16.1,16.1,0,0,1,3.61,25.2c-.21-.35-.78,0-.56.33Z"></path>
      <path class="cls-17" d="M22.68,25.39a2.92,2.92,0,0,0-1.87.51,5.26,5.26,0,0,0-1.35,1.43"></path>
      <path class="cls-14" d="M11.73,28.64A5.51,5.51,0,0,1,16,32.77c.06.25.45.14.39-.11a5.9,5.9,0,0,0-4.53-4.41c-.25,0-.36.34-.11.39Z"></path>
      <path class="cls-14" d="M7.48,18.84a6.37,6.37,0,0,0,2.13,1.94,4,4,0,0,0,1.46.12,2.24,2.24,0,0,0,1.49-.35c.27-.19,0-.63-.26-.44a1.94,1.94,0,0,1-1.33.27,2.76,2.76,0,0,1-1.25-.12,6.63,6.63,0,0,1-1.88-1.78c-.21-.25-.57.11-.36.36Z"></path>
      <path class="cls-14" d="M13.52,28.65c0-.06-.75-1.32-1.93-1.14s-.68-.06-1.16-.27-1.18.22-1.45.54-.69.76-1.15.58-.75-.24-1.46.48S6,29.6,5.06,30.57s-.13.54.23.36.65-.16,1.81.21a2.29,2.29,0,0,0,2.3-.24c.69-.41,0-.74,1.28-.56.76.11,1.2-1.17,1.66-1.21s.73.14,1,0A.4.4,0,0,0,13.52,28.65Z"></path>
      <path class="cls-15" d="M7.13,29.81a5.19,5.19,0,0,0,1.59-.46c.52-.2,1-.5,1.52-.73a4.5,4.5,0,0,1,1.67-.36,1.79,1.79,0,0,1,1.43.84,1.85,1.85,0,0,0-1.43-.67,4.7,4.7,0,0,0-1.59.39c-.51.2-1,.51-1.53.69A4.14,4.14,0,0,1,7.13,29.81Z"></path>
      <ellipse class="cls-14" cx="23.49" cy="25.22" rx="1.03" ry="0.69" transform="translate(-2.05 2.08) rotate(-4.86)"></ellipse>
      <path class="cls-14" d="M24.54,12.8a11.25,11.25,0,0,1-1.78,3.59c-1.12,1.69.44,3.57.44,3.57S27.8,20,24.54,12.8Z"></path>
      <path class="cls-15" d="M24.59,13.94a5.42,5.42,0,0,1,.09,2.91A5.64,5.64,0,0,1,24,18.13a3,3,0,0,0-.45,1.34A2.45,2.45,0,0,1,23.79,18a7.13,7.13,0,0,0,.63-1.27,5,5,0,0,0,.21-1.39A13.85,13.85,0,0,0,24.59,13.94Z"></path>
      <path class="cls-14" d="M2.74,19.24a11.25,11.25,0,0,0,1.78,3.59c1.12,1.7-.44,3.57-.44,3.57S-.52,26.46,2.74,19.24Z"></path>
      <path class="cls-15" d="M2.69,20.38a14,14,0,0,0,0,1.44,5.31,5.31,0,0,0,.21,1.39,7.13,7.13,0,0,0,.63,1.27,2.48,2.48,0,0,1,.27,1.43,3,3,0,0,0-.45-1.33,5.71,5.71,0,0,1-.71-1.29A5.42,5.42,0,0,1,2.69,20.38Z"></path>
      <path class="cls-14" d="M14.6,22.9s.44-1.11,1.07-1.34,4.37-2.63,5.27-4.74a.15.15,0,0,0-.23-.17,6.06,6.06,0,0,1-2.86,1.29,2.59,2.59,0,0,0-2.38,3.18,6.18,6.18,0,0,0-.87.94C14.4,22.39,14.3,22.49,14.6,22.9Z"></path>
      <path class="cls-6" d="M15.9,43.25a.46.46,0,0,0-.45-.17c-.25.08-.35.27-.31.34l.09.1c.07.06.2-.11.2-.11Z"></path>
      <path class="cls-7" d="M16,43.55s-.08-.34-.21-.35l-.27,0,0,.06s.13.22.18.24l.17.05Z"></path>
      <path class="cls-8" d="M16,43.59s0-.11,0-.13a.81.81,0,0,0-.17,0l-.24.18s-.07,0,0,.06.11.06.22.05A.36.36,0,0,0,16,43.59Z"></path>
      <path class="cls-9" d="M15.8,43.42l-.15.15c-.06.07-.07.09-.14,0s-.26-.06-.31-.13,0-.06,0-.15a.36.36,0,0,1,.24-.14.19.19,0,0,1,.23,0A.4.4,0,0,1,15.8,43.42Z"></path>
      <path class="cls-6" d="M14.87,37.48a.67.67,0,0,0-.69-.1c-.34.19-.42.5-.33.59l.16.11c.11.07.24-.22.25-.23Z"></path>
      <path class="cls-7" d="M15.15,37.87s-.21-.46-.4-.43a2.76,2.76,0,0,1-.4.05l0,.1s.25.28.33.29l.26,0A1.42,1.42,0,0,0,15.15,37.87Z"></path>
      <path class="cls-8" d="M15.15,37.94s0-.17-.11-.18h-.25s-.24.29-.29.33-.09.06.09.07.18.06.33,0A.5.5,0,0,0,15.15,37.94Z"></path>
      <path class="cls-9" d="M14.79,37.76s-.1.14-.17.26-.07.15-.18.12-.39,0-.48-.1-.09-.07,0-.21.14-.2.3-.29a.33.33,0,0,1,.36,0A1,1,0,0,1,14.79,37.76Z"></path>
      <path class="cls-6" d="M13.5,39.6a2.4,2.4,0,0,0-2.44.15c-1,.88-1.06,2-.71,2.24a4.67,4.67,0,0,0,.63.26c.41.15.67-.93.69-1S13.5,39.6,13.5,39.6Z"></path>
      <path class="cls-7" d="M14.72,40.73s-1.06-1.43-1.67-1.18-1.32.45-1.32.45l0,.37s1.05.78,1.33.75.77-.11.9-.11A7.85,7.85,0,0,0,14.72,40.73Z"></path>
      <path class="cls-8" d="M14.76,41c0-.16-.07-.57-.5-.51a5.14,5.14,0,0,0-.84.18s-.63,1.14-.77,1.33-.27.24.35.16.68.06,1.15-.22A1.63,1.63,0,0,0,14.76,41Z"></path>
      <path class="cls-9" d="M13.42,40.62a6.53,6.53,0,0,0-.4,1c-.13.45-.13.57-.54.55s-1.34.25-1.7,0-.36-.2-.25-.72a1.9,1.9,0,0,1,.81-1.18A1.05,1.05,0,0,1,12.56,40,2.82,2.82,0,0,1,13.42,40.62Z"></path>
      <path class="cls-6" d="M18.46,39.9a2.08,2.08,0,0,0-2.13,0c-.92.7-1,1.67-.75,1.9a5.29,5.29,0,0,0,.53.26c.35.15.64-.77.66-.78Z"></path>
      <path class="cls-7" d="M19.45,41s-.83-1.3-1.38-1.12-1.17.32-1.17.32l0,.31s.86.74,1.1.73.68,0,.79,0A6.63,6.63,0,0,0,19.45,41Z"></path>
      <path class="cls-8" d="M19.48,41.15c0-.14,0-.5-.41-.48a4.66,4.66,0,0,0-.74.11s-.62.95-.75,1.11-.25.19.3.16.58.1,1-.12A1.4,1.4,0,0,0,19.48,41.15Z"></path>
      <path class="cls-9" d="M18.33,40.78a6.51,6.51,0,0,0-.4.83c-.14.39-.16.5-.51.45s-1.17.13-1.48-.09-.29-.2-.17-.64a1.66,1.66,0,0,1,.78-1,1,1,0,0,1,1.07-.15A2.45,2.45,0,0,1,18.33,40.78Z"></path>
      <path class="cls-6" d="M21.65,38.63a2.24,2.24,0,0,0-2.27-.3c-1.07.62-1.32,1.64-1.05,1.93.07.07.36.23.53.34.35.21.78-.73.81-.74Z"></path>
      <path class="cls-7" d="M22.56,39.89s-.71-1.5-1.32-1.39-1.28.18-1.28.18l-.11.33s.83.9,1.08.93.74,0,.85.05A6,6,0,0,0,22.56,39.89Z"></path>
      <path class="cls-8" d="M22.56,40.09c0-.15,0-.53-.36-.56a6.23,6.23,0,0,0-.81,0s-.78.93-.95,1.08-.29.17.3.21.61.18,1.09,0A1.49,1.49,0,0,0,22.56,40.09Z"></path>
      <path class="cls-9" d="M21.39,39.55a6.48,6.48,0,0,0-.54.83c-.2.39-.23.51-.6.41s-1.27,0-1.56-.3-.29-.24-.1-.7a1.77,1.77,0,0,1,1-.94,1,1,0,0,1,1.16,0A2.75,2.75,0,0,1,21.39,39.55Z"></path>
      <path class="cls-6" d="M22.57,42.46a.71.71,0,0,0,.66-.32c.17-.36.06-.68-.07-.71H23c-.13,0-.08.33-.08.34S22.57,42.46,22.57,42.46Z"></path>
      <path class="cls-7" d="M22.1,42.29s.46.27.6.13l.31-.27L23,42a1.46,1.46,0,0,0-.46,0l-.23.13A1.81,1.81,0,0,0,22.1,42.29Z"></path>
      <path class="cls-8" d="M22.06,42.24a.14.14,0,0,0,.2.08l.21-.15s0-.39.06-.46,0-.1-.12,0-.19.06-.29.19A.49.49,0,0,0,22.06,42.24Z"></path>
      <path class="cls-9" d="M22.47,42.17a3,3,0,0,0,0-.32c0-.14,0-.17.08-.22s.35-.22.47-.2.13,0,.16.18a.61.61,0,0,1-.09.42.34.34,0,0,1-.31.21A.81.81,0,0,1,22.47,42.17Z"></path>
      <path class="cls-6" d="M11.26,42.72a.93.93,0,0,0,.87-.36c.26-.44.14-.85,0-.9h-.26c-.16,0-.13.42-.13.42Z"></path>
      <path class="cls-7" d="M10.68,42.46s.56.39.75.22a5.1,5.1,0,0,1,.42-.33l0-.13s-.48-.16-.58-.11l-.31.15A1.58,1.58,0,0,0,10.68,42.46Z"></path>
      <path class="cls-8" d="M10.64,42.38c0,.06.09.2.24.13l.29-.17s.09-.49.11-.58.07-.12-.14,0-.26,0-.39.22A.59.59,0,0,0,10.64,42.38Z"></path>
      <path class="cls-9" d="M11.17,42.34a2.68,2.68,0,0,0,0-.41c0-.18,0-.23.13-.27s.45-.25.62-.21.15,0,.18.23a.75.75,0,0,1-.16.53.41.41,0,0,1-.41.24A1.08,1.08,0,0,1,11.17,42.34Z"></path>
      <path class="cls-6" d="M15.24,40.45a.53.53,0,0,0,.54.09c.26-.13.33-.37.27-.44L15.92,40c-.08-.06-.19.16-.2.17Z"></path>
      <path class="cls-7" d="M15,40.14s.16.37.3.34l.31,0,0-.07s-.19-.23-.25-.23l-.2,0Z"></path>
      <path class="cls-8" d="M15,40.09s0,.13.08.14a1.05,1.05,0,0,0,.19,0l.24-.24s.07,0-.07-.06-.15,0-.26,0A.35.35,0,0,0,15,40.09Z"></path>
      <path class="cls-9" d="M15.31,40.23l.14-.19c.05-.09.06-.12.14-.09s.31,0,.37.09.07.06,0,.17a.5.5,0,0,1-.24.21.26.26,0,0,1-.28,0A.58.58,0,0,1,15.31,40.23Z"></path>
      <path class="cls-6" d="M20.07,42.49a2.07,2.07,0,0,0,2-.6c.67-.93.5-1.89.16-2-.09,0-.39-.06-.57-.09-.38-.05-.39.91-.41.93Z"></path>
      <path class="cls-7" d="M18.82,41.77s1.17,1,1.64.67,1-.63,1-.63l0-.31a4.27,4.27,0,0,0-1.26-.39c-.23.08-.63.25-.73.27A5.59,5.59,0,0,0,18.82,41.77Z"></path>
      <path class="cls-8" d="M18.74,41.6c.05.13.17.46.53.33a5.38,5.38,0,0,0,.67-.31s.31-1.09.39-1.28.18-.25-.33-.06-.58.07-.92.4A1.46,1.46,0,0,0,18.74,41.6Z"></path>
      <path class="cls-9" d="M19.94,41.62a6.17,6.17,0,0,0,.14-.91c0-.41,0-.52.36-.58s1.07-.46,1.43-.33.33.1.35.56a1.67,1.67,0,0,1-.46,1.15.94.94,0,0,1-1,.45A2.48,2.48,0,0,1,19.94,41.62Z"></path>
      <path class="cls-6" d="M13.85,41.71a1.38,1.38,0,0,0,1.42,0c.6-.48.66-1.12.47-1.27a2.5,2.5,0,0,0-.36-.17c-.23-.1-.41.52-.42.53Z"></path>
      <path class="cls-7" d="M13.18,41s.57.86.93.73a7.15,7.15,0,0,1,.77-.22l0-.21s-.59-.48-.75-.47-.45,0-.52,0A2.78,2.78,0,0,0,13.18,41Z"></path>
      <path class="cls-8" d="M13.16,40.9c0,.09,0,.33.28.31a3.43,3.43,0,0,0,.49-.08s.39-.65.48-.75.16-.13-.2-.11-.39-.05-.67.1A.94.94,0,0,0,13.16,40.9Z"></path>
      <path class="cls-9" d="M13.93,41.13a3.71,3.71,0,0,0,.25-.57c.09-.25.1-.32.34-.3s.77-.1,1,0,.2.13.12.43a1.08,1.08,0,0,1-.5.65.62.62,0,0,1-.71.12A1.66,1.66,0,0,1,13.93,41.13Z"></path>
    </g>
  </g>
</svg>
