<?xml version="1.0" encoding="UTF-8"?>
<svg xmlns="http://www.w3.org/2000/svg" xmlns:xlink="http://www.w3.org/1999/xlink" viewBox="0 0 30.37 43.53">
  <defs>
    <style>.cls-1{fill:none;}.cls-2{clip-path:url(#clip-path);}.cls-3{fill:#8e6848;}.cls-4{clip-path:url(#clip-path-2);}.cls-5{fill:url(#Безымянный_градиент_2);}.cls-6{fill:#713e21;}.cls-7{fill:#3d271f;}.cls-8{fill:#69391e;}.cls-9{fill:#6b472f;}.cls-10{fill:#5c3624;}.cls-11{fill:#795135;}.cls-12{fill:#9a734f;}.cls-13{fill:#d0c5a6;}.cls-14{fill:#85563a;}.cls-15{fill:#92bf3a;}.cls-16{fill:#486f3a;}.cls-17{fill:#acd03d;}.cls-18{fill:#7fb943;}.cls-19{fill:#6d9633;}.cls-20{fill:#bcd746;}.cls-21{fill:#c9cf62;}</style>
    <clipPath id="clip-path">
      <rect class="cls-1" width="30.37" height="42.21"></rect>
    </clipPath>
    <clipPath id="clip-path-2">
      <polygon class="cls-1" points="1.99 36.15 14.86 42.2 26.76 36.18 14.38 30.93 1.99 36.15"></polygon>
    </clipPath>
    <linearGradient id="Безымянный_градиент_2" x1="-2467.61" y1="-778.67" x2="-2466.89" y2="-778.67" gradientTransform="matrix(34.36, 0, 0, -34.36, 84777.18, -26715.82)" gradientUnits="userSpaceOnUse">
      <stop offset="0" stop-color="#9b714e"></stop>
      <stop offset="0.38" stop-color="#9b714e"></stop>
      <stop offset="0.89" stop-color="#764528"></stop>
      <stop offset="1" stop-color="#6e3c20"></stop>
    </linearGradient>
  </defs>
  <g id="Слой_2" data-name="Слой 2">
    <g id="Слой_1-2" data-name="Слой 1">
      <g class="cls-2">
        <path class="cls-3" d="M14.86,25.17s2.47,2.91,4.39,3,8.45-1.95,8.45-1.95l.66-6.8-13.5-4.77Z"></path>
        <path class="cls-3" d="M0,19l1.35,8.88s4.78.72,5.62.48,4.66-1.68,5.74-1.68,2.15-1.47,2.15-1.47V14.68Z"></path>
      </g>
      <g class="cls-4">
        <rect class="cls-5" x="8.08" y="23.9" width="12.58" height="25.34" transform="translate(-22.91 48.96) rotate(-86.92)"></rect>
      </g>
      <path class="cls-6" d="M2,36.15l-.64-8.31s6.1-.12,7.77-1a35.9,35.9,0,0,1,5.74-1.71l-.48,5.77Z"></path>
      <path class="cls-7" d="M10.68,28.36a2,2,0,0,0-.73-.43h0a1.52,1.52,0,0,0-1.51.37c-.53.65-.44,1.36-.2,1.47a2.73,2.73,0,0,0,.42.09h0a6.64,6.64,0,0,0,.9-.21.34.34,0,0,0,.16,0l.16-.05c.38-.11.43,0,.7-.26a1,1,0,0,0,.27-.65l-.05-.13h0a.22.22,0,0,0-.15-.13"></path>
      <path class="cls-7" d="M5.46,29.21a2.78,2.78,0,0,0-1,.34h0a1.94,1.94,0,0,0-.92,1.76c.18,1.07.94,1.58,1.26,1.44a5,5,0,0,0,.44-.33v0a11.2,11.2,0,0,0,.57-1.05.75.75,0,0,0,.09-.18L6,31c.21-.46.33-.44.34-.88a1.34,1.34,0,0,0-.4-.83l-.17-.06h0a.32.32,0,0,0-.25,0"></path>
      <path class="cls-8" d="M14.86,25.17l-.48,5.76,12.38,5.25.94-9.93A33.11,33.11,0,0,0,22.17,26c-1.68.24-4.6,1-5.47.48a11,11,0,0,1-1.84-1.35"></path>
      <path class="cls-7" d="M10.14,31.09A1.07,1.07,0,0,0,9.82,31h0a.58.58,0,0,0-.52.31c-.13.3,0,.56.09.57h.17a1.92,1.92,0,0,0,.32-.18l0,0,.06,0c.13-.08.16-.06.23-.17a.43.43,0,0,0,0-.28l0,0h0Z"></path>
      <path class="cls-7" d="M22.27,28.61a.63.63,0,0,0,0-.23h0s-.1-.26-.33-.26-.36.13-.35.2l.05.1h0l.19.16,0,0,0,0c.09.07.08.09.17.11a.26.26,0,0,0,.19-.05l0,0h0Z"></path>
      <path class="cls-7" d="M25.72,32.78a2.74,2.74,0,0,0-.49-1h0a2,2,0,0,0-1.89-.67c-1,.34-1.44,1.17-1.26,1.47a3.54,3.54,0,0,0,.39.39h0a8.31,8.31,0,0,0,1.12.42.8.8,0,0,0,.2.07l.22.06c.49.14.48.27.93.21a1.37,1.37,0,0,0,.77-.52.74.74,0,0,0,0-.18h0v0a.32.32,0,0,0-.08-.24"></path>
      <path class="cls-7" d="M19,29.36a2.14,2.14,0,0,0-.48.69h0a1.51,1.51,0,0,0,.25,1.52c.61.58,1.32.54,1.45.31a3.05,3.05,0,0,0,.12-.41v0a7,7,0,0,0-.14-.91.35.35,0,0,0,0-.16.75.75,0,0,0,0-.17c-.09-.39,0-.43-.21-.71a1.05,1.05,0,0,0-.63-.32l-.13,0h0a.24.24,0,0,0-.14.14"></path>
      <path class="cls-9" d="M19.05,36.41a.41.41,0,0,0,.4-.11c.14-.18.11-.37,0-.4l-.11,0c-.07,0-.08.18-.09.18Z"></path>
      <path class="cls-10" d="M18.8,36.26s.23.2.32.14l.21-.12v-.06l-.25-.08-.14,0Z"></path>
      <path class="cls-11" d="M18.79,36.22s0,.1.1.07a.53.53,0,0,0,.13-.06l.09-.24s0-.05-.07,0-.11,0-.18.08a.25.25,0,0,0-.07.17"></path>
      <path class="cls-12" d="M19,36.23s0-.1,0-.18,0-.1.07-.11.22-.08.29,0,.06,0,.06.11a.3.3,0,0,1-.1.22.17.17,0,0,1-.19.09.36.36,0,0,1-.16-.08"></path>
      <path class="cls-9" d="M16.29,34.83a.93.93,0,0,0,.84-.43c.22-.46.07-.86-.09-.9a1.19,1.19,0,0,0-.26,0c-.17,0-.1.43-.1.44Z"></path>
      <path class="cls-10" d="M15.69,34.62s.59.34.77.16a4.87,4.87,0,0,1,.39-.36l0-.14a1.91,1.91,0,0,0-.58-.06l-.3.18Z"></path>
      <path class="cls-11" d="M15.64,34.55c0,.05.11.19.26.1l.27-.19s0-.5.06-.59.06-.13-.15,0-.24.08-.37.25a.64.64,0,0,0-.07.43"></path>
      <path class="cls-12" d="M16.17,34.46a2.36,2.36,0,0,0,0-.41c0-.18,0-.23.11-.28s.43-.29.6-.26.15,0,.2.21a.72.72,0,0,1-.11.54.41.41,0,0,1-.39.28,1.1,1.1,0,0,1-.39-.08"></path>
      <path class="cls-9" d="M13.73,36.83a.9.9,0,0,0,.91.11c.43-.25.53-.66.42-.78a1.83,1.83,0,0,0-.22-.13c-.14-.09-.31.29-.32.3Z"></path>
      <path class="cls-10" d="M13.36,36.33s.29.6.53.55.52-.08.52-.08l0-.13s-.33-.36-.44-.37l-.34,0Z"></path>
      <path class="cls-11" d="M13.36,36.24c0,.06,0,.22.15.23a2,2,0,0,0,.32,0l.38-.44c.06-.06.11-.07-.12-.08s-.25-.07-.44,0a.56.56,0,0,0-.29.3"></path>
      <path class="cls-12" d="M13.83,36.46a3,3,0,0,0,.21-.34c.08-.16.09-.2.24-.17s.51,0,.63.12.12.1,0,.28-.18.26-.38.38a.39.39,0,0,1-.46,0,1,1,0,0,1-.28-.28"></path>
      <path class="cls-9" d="M12.62,35.17a.68.68,0,0,0,0-.7c-.22-.31-.54-.36-.62-.27l-.09.18c-.06.11.24.21.25.22Z"></path>
      <path class="cls-10" d="M12.27,35.49s.43-.26.38-.44-.09-.39-.09-.39l-.1,0s-.26.27-.26.35,0,.23,0,.26Z"></path>
      <path class="cls-11" d="M12.2,35.5c.05,0,.17,0,.16-.13a1.72,1.72,0,0,0,0-.25L12,34.86c-.05,0-.06-.08-.05.1s0,.19,0,.33a.46.46,0,0,0,.25.21"></path>
      <path class="cls-12" d="M12.33,35.12a1.77,1.77,0,0,0-.27-.14c-.12,0-.16,0-.14-.17s0-.39.05-.49.06-.09.21,0,.21.12.31.27a.29.29,0,0,1,0,.35.69.69,0,0,1-.2.23"></path>
      <path class="cls-9" d="M10.44,35.69a.28.28,0,0,0,.1-.29c0-.15-.17-.21-.22-.19l-.06.06.07.13Z"></path>
      <path class="cls-10" d="M10.25,35.78s.22-.06.22-.14,0-.17,0-.17l0,0-.15.11,0,.11Z"></path>
      <path class="cls-11" d="M10.23,35.77l.08,0,0-.11-.12-.15s0,0,0,0,0,.08,0,.15a.21.21,0,0,0,.08.11"></path>
      <path class="cls-12" d="M10.33,35.63l-.09-.09,0-.09.08-.2h.1a.26.26,0,0,1,.09.15.13.13,0,0,1,0,.15Z"></path>
      <path class="cls-9" d="M9.77,36.89a1.16,1.16,0,0,0,0-1.21c-.39-.54-.94-.62-1.08-.46a1.66,1.66,0,0,0-.15.3c-.1.2.43.38.43.39Z"></path>
      <path class="cls-10" d="M9.16,37.45s.75-.46.66-.78A6.75,6.75,0,0,1,9.65,36l-.17,0s-.44.49-.44.63,0,.39,0,.45Z"></path>
      <path class="cls-11" d="M9.05,37.46c.08,0,.28,0,.27-.23a2.08,2.08,0,0,0-.05-.42s-.53-.37-.62-.45-.11-.14-.1.17-.06.33.06.58a.8.8,0,0,0,.44.35"></path>
      <path class="cls-12" d="M9.27,36.81a2.88,2.88,0,0,0-.47-.24c-.22-.09-.28-.1-.25-.3s-.06-.67.07-.85.12-.16.37-.08a.92.92,0,0,1,.55.45.54.54,0,0,1,.07.62,1.38,1.38,0,0,1-.34.4"></path>
      <path class="cls-13" d="M14.69,23c0,.24,0,.49,0,.74A3.72,3.72,0,0,1,14.14,26c-.66.88-2,1.22-2.53,2.26a2.13,2.13,0,0,0-.24,1,2.77,2.77,0,0,0,.5,1.54c.28.41.65.73.9,1.13a1.61,1.61,0,0,1,.27.84.93.93,0,0,1-.12.46l0,.1.11,0a1.17,1.17,0,0,0,.14-.54,1.78,1.78,0,0,0-.29-.92c-.27-.42-.64-.75-.91-1.14a2.53,2.53,0,0,1-.47-1.45,2,2,0,0,1,.22-.92c.51-1,1.81-1.31,2.52-2.24a3.85,3.85,0,0,0,.6-2.36c0-.25,0-.5,0-.75l-.07-.07Z"></path>
      <path class="cls-13" d="M12.48,31.48a1.89,1.89,0,0,1,.08.53,1,1,0,0,1-.38.81c-.23.19-.53.32-.78.5v.1l.1,0c.23-.16.53-.3.78-.5a1.14,1.14,0,0,0,.44-.93,2.22,2.22,0,0,0-.09-.57l-.09-.05Z"></path>
      <path class="cls-13" d="M14.72,23.4c0,.29,0,.58,0,.88a4.29,4.29,0,0,1-.4,2,13.81,13.81,0,0,0-.84,1.41,2.16,2.16,0,0,0-.14.79,5.26,5.26,0,0,0,.55,2,5.84,5.84,0,0,1,.65,2.21,2.2,2.2,0,0,1-.06.5l.06.09.09-.06a2.46,2.46,0,0,0,.06-.53,6.06,6.06,0,0,0-.66-2.27,5.05,5.05,0,0,1-.54-2,2.1,2.1,0,0,1,.13-.74,14.54,14.54,0,0,1,.83-1.39,4.42,4.42,0,0,0,.42-2c0-.3,0-.6,0-.89l-.08-.07Z"></path>
      <path class="cls-13" d="M14.8,23c0,.36,0,.71,0,1.07a17.23,17.23,0,0,1-.26,3,9.77,9.77,0,0,0-.24,1.78v.07c.05,2.33,2.14,4.21,2.13,6.45v.06l.07.07.08-.07v-.06c0-2.33-2.1-4.21-2.13-6.45v-.07a10.66,10.66,0,0,1,.24-1.75,16.71,16.71,0,0,0,.27-3c0-.36,0-.72,0-1.08l-.08-.07Z"></path>
      <path class="cls-13" d="M15.65,32.6a1.25,1.25,0,0,1,0,.35,3.26,3.26,0,0,1-.33,1.38,4.9,4.9,0,0,0-.65,1.34l.06.09.08-.06a4.76,4.76,0,0,1,.64-1.3A3.6,3.6,0,0,0,15.84,33a1.6,1.6,0,0,0-.05-.39l-.09-.05Z"></path>
      <path class="cls-13" d="M15.52,32.32a2.85,2.85,0,0,1,.27,1.4v.19c0,.3,0,.62,0,.93a3,3,0,0,0,0,.42l.09.06.06-.08a2.69,2.69,0,0,1,0-.4c0-.3,0-.61.06-.93v-.19a3,3,0,0,0-.3-1.49h-.1Z"></path>
      <path class="cls-13" d="M14.8,23v.22A3.05,3.05,0,0,0,16.38,26a1.19,1.19,0,0,1,.33,1c0,.15,0,.3,0,.44a7.85,7.85,0,0,1-.5,1.51,2.92,2.92,0,0,0-.12.83A2.8,2.8,0,0,0,16.33,31l.1,0,0-.1a2.72,2.72,0,0,1-.26-1.15,2.66,2.66,0,0,1,.12-.79,7.64,7.64,0,0,0,.51-1.53c0-.14,0-.3,0-.46a1.34,1.34,0,0,0-.39-1.09A2.86,2.86,0,0,1,15,23.21V23l-.07-.08Z"></path>
      <path class="cls-13" d="M16.36,28.47a3.64,3.64,0,0,0-.89,2l0,.1.1,0a3.52,3.52,0,0,1,.86-1.94v-.11Z"></path>
      <path class="cls-13" d="M15.41,25.15a6.14,6.14,0,0,1,.37,1.68,1.14,1.14,0,0,1-.17.66,2.13,2.13,0,0,0-.42.82l.07.08.08-.06a1.81,1.81,0,0,1,.4-.76,1.3,1.3,0,0,0,.19-.74,6.25,6.25,0,0,0-.38-1.73l-.1-.05Z"></path>
      <path class="cls-13" d="M14.7,23c.18,1.58.75,2.17,1.32,2.47.29.16.57.25.8.36a1,1,0,0,1,.52.5,6.91,6.91,0,0,1,.4,1.77c.11.82.27,1.64.46,2.44a7.65,7.65,0,0,1,.3,1.74c0,.1,0,.2,0,.3-.07.77-.49,1.55-.49,2.34a1.85,1.85,0,0,0,.05.46l.09.05.05-.09a2,2,0,0,1,0-.42c0-.74.41-1.51.49-2.32,0-.11,0-.21,0-.32a7.63,7.63,0,0,0-.3-1.77c-.19-.8-.34-1.61-.46-2.43a6.67,6.67,0,0,0-.4-1.81,1.16,1.16,0,0,0-.59-.57A4.29,4.29,0,0,1,15.7,25a3.14,3.14,0,0,1-.86-2.08l-.08-.07Z"></path>
      <path class="cls-13" d="M17.74,28.05a9.93,9.93,0,0,1,.1,1.28,3.09,3.09,0,0,1-.34,1.59,1.77,1.77,0,0,0-.37.81v.1l.09.06.06-.08v-.08a1.72,1.72,0,0,1,.35-.74A3.22,3.22,0,0,0,18,29.33a8.64,8.64,0,0,0-.11-1.3L17.8,28Z"></path>
      <path class="cls-13" d="M18.49,32.36a2.36,2.36,0,0,1-.44,1.17c-.19.26-.57.47-.6.86l.07.08.08-.07c0-.29.34-.49.57-.77a2.56,2.56,0,0,0,.47-1.27l-.07-.07Z"></path>
      <path class="cls-13" d="M16.76,25.75a3.89,3.89,0,0,1,1.64,1,3,3,0,0,1,1,2.24,2.74,2.74,0,0,1-.08.7l.05.09.09-.06a3,3,0,0,0,.09-.73,3.14,3.14,0,0,0-1.07-2.36,4.19,4.19,0,0,0-1.69-1.05l-.1.05Z"></path>
      <polygon class="cls-14" points="0 18.96 14.86 25.17 28.36 19.45 14.86 14.68 0 18.96"></polygon>
      <path class="cls-15" d="M19.5,8.89a3.2,3.2,0,0,0-2.31,1.25,3.77,3.77,0,0,0,0,2.69s0-.27.49-.42a2.83,2.83,0,0,0,1,1.6,2.47,2.47,0,0,1,0-.67c.07-.11.54.9,1.15,1,0,0-.07-.47,0-.52s.45.58,1,.76c0,0-.12-.58,0-.67s.87.38.87.38a2.26,2.26,0,0,0,.09-.57c0-.13.47.27.5.38a6.64,6.64,0,0,0-.15-1.34c-.1-.15.52-.13.54,0a2,2,0,0,0-.42-1.13c-.37-.33.31-.06.43,0s-.28-.78-1.07-1.17.55-.15.55-.15a3.76,3.76,0,0,0-2.75-1.4"></path>
      <path class="cls-16" d="M18.59,9.61a2.24,2.24,0,0,1,1.35-.17,4.87,4.87,0,0,1,1.29.42,4.5,4.5,0,0,0-1.3-.37,2,2,0,0,0-1.29.21Z"></path>
      <path class="cls-16" d="M17.48,11.8a3.5,3.5,0,0,1,.28-1.23,2.09,2.09,0,0,1,.83-1l.05.09a2,2,0,0,0-.83.89,3.63,3.63,0,0,0-.33,1.21"></path>
      <path class="cls-16" d="M19.31,10.33a1.68,1.68,0,0,1,1.42,0,5.59,5.59,0,0,1,1.24.7,6,6,0,0,0-1.25-.66,1.69,1.69,0,0,0-1.36,0Z"></path>
      <path class="cls-16" d="M18.43,13a5.19,5.19,0,0,1,.11-1.47,1.89,1.89,0,0,1,.77-1.23l.05.08a1.84,1.84,0,0,0-.77,1.17A5,5,0,0,0,18.43,13"></path>
      <path class="cls-16" d="M19.93,11a1.3,1.3,0,0,1,1.12.12,5.07,5.07,0,0,1,.92.65,4.41,4.41,0,0,0-.94-.6A1.19,1.19,0,0,0,20,11.12Z"></path>
      <path class="cls-16" d="M19.36,13.08a4,4,0,0,1,0-1.1,1.33,1.33,0,0,1,.54-1l.05.09a1.23,1.23,0,0,0-.54.87,4,4,0,0,0-.08,1.09"></path>
      <path class="cls-16" d="M20.66,12.08a.82.82,0,0,1,.63.22,4.15,4.15,0,0,1,.49.44,5.12,5.12,0,0,0-.52-.4.73.73,0,0,0-.57-.16Z"></path>
      <path class="cls-16" d="M20.42,13.42a2.76,2.76,0,0,1-.06-.7,1,1,0,0,1,.05-.35.42.42,0,0,1,.25-.29l0,.09c-.2.06-.26.34-.29.55a3.28,3.28,0,0,0,0,.7"></path>
      <path class="cls-16" d="M17.81,8.92a18.69,18.69,0,0,1,1.87,1.8,6.34,6.34,0,0,1,1.39,2.18,7.35,7.35,0,0,0-1.44-2.13c-.57-.66-1.19-1.25-1.82-1.85"></path>
      <path class="cls-17" d="M13.83,13a1.45,1.45,0,0,0-2,.27l.36.16s-.49.13-.56.43l.43.26s-.55.63-.23.69l.33.07s-.07.43.1.46a1.12,1.12,0,0,0,.48-.13s.28.26.28.36.43-.2.43-.39.55,0,.55,0,.1-.52,0-.62.33,0,.33,0,.17-1.06-.49-1.49"></path>
      <path class="cls-16" d="M12.46,14.87a7,7,0,0,1,.46-1,1.41,1.41,0,0,1,.76-.72h0a.9.9,0,0,0-.41.31,3.32,3.32,0,0,0-.32.42,7.6,7.6,0,0,0-.49.94Z"></path>
      <path class="cls-16" d="M13.55,13.27a1.91,1.91,0,0,0-.82-.16,1.82,1.82,0,0,1,.83.14Z"></path>
      <path class="cls-16" d="M14.14,14.12a1.36,1.36,0,0,0-.59-.85v0a1.38,1.38,0,0,1,.58.87"></path>
      <path class="cls-16" d="M13.17,13.6a1.29,1.29,0,0,0-.8.06,1.32,1.32,0,0,1,.81-.08Z"></path>
      <path class="cls-16" d="M13.71,14.64a1.68,1.68,0,0,0-.54-1v0a1.64,1.64,0,0,1,.53,1.06"></path>
      <path class="cls-16" d="M13,13.87a.66.66,0,0,0-.58.33.67.67,0,0,1,.59-.36Z"></path>
      <path class="cls-16" d="M13.14,14.64a1.53,1.53,0,0,0-.19-.78h0a1.47,1.47,0,0,1,.17.79"></path>
      <path class="cls-17" d="M16.84,14a.74.74,0,0,0-.48.71l.18-.09a1.13,1.13,0,0,0,.13.68l.17-.13a1.63,1.63,0,0,0,.23.48l.18-.18s.39.08.38.21.13-.23.1-.32.48.18.48.18,0-.51-.15-.56.3-.21.3-.21-.13-.31-.3-.36.15-.25.25-.18A.72.72,0,0,0,17.8,14c-.25,0,0-.16.13-.1a1.34,1.34,0,0,0-1.09.09"></path>
      <path class="cls-16" d="M17.11,14.21a1,1,0,0,0-.32.57,1,1,0,0,1,.31-.59Z"></path>
      <path class="cls-16" d="M17.81,15a2.43,2.43,0,0,0-.71-.82v0a2.46,2.46,0,0,1,.7.84"></path>
      <path class="cls-16" d="M17.1,14.19a1,1,0,0,1,.8,0,1,1,0,0,0-.79,0Z"></path>
      <path class="cls-16" d="M17.41,14.46a1,1,0,0,1,.69.18.94.94,0,0,0-.69-.15Z"></path>
      <path class="cls-16" d="M17.15,15.2a.92.92,0,0,1,.25-.74l0,0a.89.89,0,0,0-.27.72"></path>
      <path class="cls-18" d="M17.65,7.16a2.3,2.3,0,0,1,.28,1.09,2.33,2.33,0,0,1-.11.7L18,9a2.17,2.17,0,0,0,.13-.76,2.48,2.48,0,0,0-.31-1.19Z"></path>
      <path class="cls-18" d="M20.39,8.29a3.31,3.31,0,0,0-.68-.08,3.06,3.06,0,0,0-2.34,1.14,6.14,6.14,0,0,0-.95,1.52,11.13,11.13,0,0,0-.81,2.8,15,15,0,0,0-.47,4.21h.19a15.05,15.05,0,0,1,.47-4.17A10.51,10.51,0,0,1,16.6,11a5.82,5.82,0,0,1,.92-1.47,2.87,2.87,0,0,1,2.19-1.07,2.91,2.91,0,0,1,.64.07Z"></path>
      <path class="cls-18" d="M9.55,6a19.45,19.45,0,0,1,2.24.77,3.81,3.81,0,0,1,.84.54A16.83,16.83,0,0,1,15,9.36a3.38,3.38,0,0,1,.83,1.39,2.88,2.88,0,0,1,.08.75,8.67,8.67,0,0,1-.1,1.19l.19,0a7.47,7.47,0,0,0,.11-1.22,3.38,3.38,0,0,0-.09-.8,3.62,3.62,0,0,0-.88-1.47,17.12,17.12,0,0,0-2.4-2.1,4.06,4.06,0,0,0-.88-.56,19.08,19.08,0,0,0-2.26-.78Z"></path>
      <path class="cls-18" d="M14.79,11.13a22.15,22.15,0,0,1,.28,4c0,1,0,2-.1,2.67h.15c.06-.64.1-1.63.1-2.68a22.66,22.66,0,0,0-.28-4.05Z"></path>
      <path class="cls-17" d="M13.7,13.24a1.67,1.67,0,0,1,.66-.14,1,1,0,0,1,.48.1,1.23,1.23,0,0,1,.42.92v.08c0,.59-.23,3.33-.26,3.62h.1c0-.3.26-3,.26-3.63v-.09a1.33,1.33,0,0,0-.47-1,1.28,1.28,0,0,0-.53-.1,1.82,1.82,0,0,0-.7.14Z"></path>
      <path class="cls-17" d="M17,14a.56.56,0,0,0-.46-.23c-.34,0-.75.29-1,1.21a8.65,8.65,0,0,0-.31,2.47v.43h.1v-.43a8.74,8.74,0,0,1,.3-2.44c.24-.91.62-1.14.9-1.14a.46.46,0,0,1,.38.19Z"></path>
      <path class="cls-19" d="M20,8.22s.74-4,4-4.38c0,0-.15.81,0,.81s.85-.9,1.1-.85c0,0,0,.57.1.63s.54-.45,1.05-.53c0,0-.3.45,0,.67a1,1,0,0,1,1.05-.45s-.6.53-.22.72,1,0,1.22,0-1.13.81-.45,1,1.19-.15,1.6,0c0,0-1.05.49-.68.65s1.13,0,1.21.06-1.32,1.22.42.92c0,0-5.34,5.47-10.42.73"></path>
      <path class="cls-16" d="M21.38,7.7a5.52,5.52,0,0,1,1.26-2.39,5.43,5.43,0,0,0-1.16,2.4Z"></path>
      <path class="cls-16" d="M22.28,8.35A8.54,8.54,0,0,1,23,6.5,4.6,4.6,0,0,1,24.31,5a4.4,4.4,0,0,0-1.23,1.54,8.28,8.28,0,0,0-.7,1.85Z"></path>
      <path class="cls-16" d="M23.34,8.09a6.19,6.19,0,0,1,2.29-2.88,6.08,6.08,0,0,0-2.19,2.91Z"></path>
      <path class="cls-16" d="M24.32,8.46a7.76,7.76,0,0,1,1.22-1.68,12.79,12.79,0,0,1,1.53-1.41,12.67,12.67,0,0,0-1.49,1.44,8,8,0,0,0-1.18,1.7Z"></path>
      <path class="cls-16" d="M25.75,8.55a15.79,15.79,0,0,0,1.8-1.94,14.51,14.51,0,0,1-1.74,2Z"></path>
      <path class="cls-15" d="M27.21,9.57a6.63,6.63,0,0,1-7.29-1.21,4.37,4.37,0,0,1,2.47-.93s-.22.66-.06.67a9.11,9.11,0,0,1,2.23-.39,1.66,1.66,0,0,0-.2.59c0,.15,1.21-.5,1.86-.46,0,0-.39.62-.09.64s.84-.57,1.48-.58c0,0-.37.66-.06.69s1.2-.61,1.59-.69c0,0-.33.33-.16.46s1-.52,1-.52a9.93,9.93,0,0,1-2.78,1.73"></path>
      <path class="cls-16" d="M20.32,8.69a3.69,3.69,0,0,0,.76-.32c.26-.12.48-.28.72-.42a2.72,2.72,0,0,1-.67.5,2.3,2.3,0,0,1-.81.24"></path>
      <path class="cls-16" d="M21.64,9.44A6.68,6.68,0,0,0,22.72,9a2.8,2.8,0,0,0,.93-.67,2.2,2.2,0,0,1-.89.76,4,4,0,0,1-1.12.32"></path>
      <path class="cls-16" d="M22.64,9.91a11.6,11.6,0,0,0,1.46-.56,3.64,3.64,0,0,0,1.28-.87,3,3,0,0,1-1.24,1,7.07,7.07,0,0,1-1.5.47"></path>
      <path class="cls-16" d="M24.66,10.15a7.1,7.1,0,0,0,1.25-.66A4.41,4.41,0,0,0,27,8.59a3.4,3.4,0,0,1-1,1,4.92,4.92,0,0,1-1.31.57"></path>
      <path class="cls-15" d="M17,7.38a1.08,1.08,0,0,0,1.87-.11,13.48,13.48,0,0,0,1.08-1.85c0-.12-.23.11-.42.12s0-.11,0-.2A2.8,2.8,0,0,0,20,3.57s-.45.2-.53.14.24-1-.11-1.64a1.36,1.36,0,0,1-.61.24s-.07-.84-.44-1a1,1,0,0,1-.33.29s.24,0-.65-.38a1.67,1.67,0,0,1-.19.52s-.35-.23-.38-.36-.13.57-.12.69-.47-.1-.47-.1-.27,1.43.19,1.88a2.46,2.46,0,0,1-.54-.35c-.2-.19.13,1,.25,1.14a1.85,1.85,0,0,1-.53,0A2.92,2.92,0,0,0,16.36,6a.75.75,0,0,1-.46,0s.92,1.2,1.07,1.35"></path>
      <path class="cls-16" d="M17.68,2.11a16.26,16.26,0,0,1,.49,3,10.47,10.47,0,0,1-.23,3.06,11.56,11.56,0,0,0,.15-3,20.62,20.62,0,0,0-.41-3"></path>
      <path class="cls-16" d="M18.2,6.54a1.19,1.19,0,0,0,.56-.16,2.81,2.81,0,0,0,.5-.35,2.56,2.56,0,0,1-.48.39,1.21,1.21,0,0,1-.6.22Z"></path>
      <path class="cls-16" d="M16.1,5.13a8.84,8.84,0,0,0,.95.88,3.17,3.17,0,0,0,.54.36,1,1,0,0,0,.6.17v.1a1.16,1.16,0,0,1-.64-.2A5.3,5.3,0,0,1,17,6.05a8,8,0,0,1-.92-.92"></path>
      <path class="cls-16" d="M18.18,5.16a2.52,2.52,0,0,0,1.32-.88,2.68,2.68,0,0,1-1.29,1Z"></path>
      <path class="cls-16" d="M16.2,4a3.57,3.57,0,0,0,.87.82,2,2,0,0,0,1.12.32v.1A2,2,0,0,1,17,4.88,3.43,3.43,0,0,1,16.2,4"></path>
      <path class="cls-16" d="M18.11,4a1.68,1.68,0,0,0,.76-.89,1.72,1.72,0,0,1-.72,1Z"></path>
      <path class="cls-16" d="M16.51,2.84a2.93,2.93,0,0,0,.67.81,1.23,1.23,0,0,0,.95.33v.1a1.33,1.33,0,0,1-1-.39,3.33,3.33,0,0,1-.64-.85"></path>
      <path class="cls-16" d="M17.88,3a1.1,1.1,0,0,0,.42-.73,1.12,1.12,0,0,1-.36.81Z"></path>
      <path class="cls-16" d="M17,2.15a2.49,2.49,0,0,0,.37.58.81.81,0,0,0,.57.3v.1a.91.91,0,0,1-.61-.37A2.25,2.25,0,0,1,17,2.15"></path>
      <path class="cls-15" d="M10.93,4.2a2.46,2.46,0,0,0,1.16,1.71,1.48,1.48,0,0,0,.45.13,1.64,1.64,0,0,0,1.24-.24,4.72,4.72,0,0,0,1.41-1.54l-.47.14a4,4,0,0,0,.7-1.5L14.77,3s.59-.91.54-1.27a4.73,4.73,0,0,1-.58.18,1.52,1.52,0,0,0,.4-1,2.21,2.21,0,0,1-.46.22,3.85,3.85,0,0,0,0-.91L14.3.49A1.92,1.92,0,0,0,14.25,0a3.5,3.5,0,0,1-.44.48s-.23-.1-.21-.27c0,0-.4.22-.35.58a.33.33,0,0,1-.41-.3s-.61.71-.5,1.22a.46.46,0,0,1-.44-.24,2.47,2.47,0,0,0-.13,1.31s-.43.08-.51-.15a3,3,0,0,0,.15,1.67.38.38,0,0,1-.48-.1"></path>
      <path class="cls-16" d="M14.8,3.39a4.67,4.67,0,0,1-1.08.95,2.33,2.33,0,0,1-1.39.37V4.62a2.23,2.23,0,0,0,1.35-.33,4.18,4.18,0,0,0,1.11-.9"></path>
      <path class="cls-16" d="M12.42,6.8a3.79,3.79,0,0,1-.21-1.53,7.14,7.14,0,0,1,.35-1.52,10.15,10.15,0,0,1,.6-1.44A11.33,11.33,0,0,1,13.91.94a24.7,24.7,0,0,0-1.27,2.83,6.61,6.61,0,0,0-.38,1.5,3.61,3.61,0,0,0,.16,1.53"></path>
      <path class="cls-16" d="M14.47,4.68a2.54,2.54,0,0,1-1,.74,2,2,0,0,1-1.24.11h0a2.72,2.72,0,0,0,1.23-.15,2.62,2.62,0,0,0,1-.71Z"></path>
      <path class="cls-16" d="M11.42,4.67a1.67,1.67,0,0,0,.37.46,2.79,2.79,0,0,0,.44.4,1.88,1.88,0,0,1-.81-.86"></path>
      <path class="cls-16" d="M11.6,3.49a3.06,3.06,0,0,0,.25.68.79.79,0,0,0,.5.45l0,.09a.83.83,0,0,1-.53-.52,2.81,2.81,0,0,1-.2-.7"></path>
      <path class="cls-16" d="M12.7,3.44a2.07,2.07,0,0,0,1.85-.87,2.13,2.13,0,0,1-1.85,1Z"></path>
      <path class="cls-16" d="M12,2.32a2.48,2.48,0,0,0,.22.7c.11.21.28.42.51.42v.1a.72.72,0,0,1-.55-.5A2.54,2.54,0,0,1,12,2.32"></path>
      <path class="cls-16" d="M12.94,2.79a3.39,3.39,0,0,1-.12-1.67A3.41,3.41,0,0,0,13,2.76Z"></path>
      <path class="cls-16" d="M14.55,1.68a1.35,1.35,0,0,1-.62.77,3,3,0,0,1-.93.37l0-.09a3.13,3.13,0,0,0,.93-.33,1.33,1.33,0,0,0,.64-.72"></path>
      <path class="cls-16" d="M13.47,1.72a1.17,1.17,0,0,0,.9-.72,1.19,1.19,0,0,1-.9.79Z"></path>
      <path class="cls-16" d="M13.3.94a.79.79,0,0,0,.19.79l-.05.05A.85.85,0,0,1,13.3.94"></path>
      <path class="cls-15" d="M8.38,6.93s1.8.07,2.26-.73a.91.91,0,0,0,.1-.29,4.47,4.47,0,0,0,0-1.71s-.09.32-.21.38a3.19,3.19,0,0,0-.67-1.81s-.08.43-.27.51A2,2,0,0,0,8.38,1.59s.16.55,0,.64A3.57,3.57,0,0,0,6.8,1.12a2.15,2.15,0,0,1,.13.63,9.14,9.14,0,0,0-1-.48L5.73,2l-.65-.1s.16.37.19.47l-.52.06S5.49,3.62,5.91,3.8L4.93,4h0s1.16,1,1.54,1.22c0,0-.85.27-1,.28s.63,1.22,2.89,1.4"></path>
      <path class="cls-16" d="M5.75,2.5A14.84,14.84,0,0,0,7.92,4.74a6.53,6.53,0,0,0,2.72,1.45h0a3.91,3.91,0,0,1-1.49-.49A7.24,7.24,0,0,1,7.87,4.8,14.43,14.43,0,0,1,5.74,2.51Z"></path>
      <path class="cls-16" d="M8.83,2.7a3.85,3.85,0,0,1-.26,2.17,1.58,1.58,0,0,1-.8.75,1.82,1.82,0,0,1-1.08.08,2.24,2.24,0,0,0,1.06-.14,1.54,1.54,0,0,0,.73-.74,3,3,0,0,0,.31-1,5.65,5.65,0,0,0,0-1.09"></path>
      <path class="cls-16" d="M10,3.73A4,4,0,0,1,9.7,5.54a1.77,1.77,0,0,1-.57.73,1.37,1.37,0,0,1-.88.24,1.7,1.7,0,0,0,.85-.29,1.61,1.61,0,0,0,.51-.72A4.62,4.62,0,0,0,10,3.73"></path>
      <path class="cls-16" d="M7.77,2.57a3.3,3.3,0,0,1,.09.83,2,2,0,0,1-.18.82A.83.83,0,0,1,7,4.69a1.62,1.62,0,0,1-.81-.17A2.06,2.06,0,0,0,7,4.63a.78.78,0,0,0,.6-.45,3.13,3.13,0,0,0,.17-1.61"></path>
      <path class="cls-16" d="M6.68,3.57V3.51l0-.1c0-.07,0-.14,0-.21a2,2,0,0,0,0-.42A1.63,1.63,0,0,0,6.27,2a1.58,1.58,0,0,1,.45.73,2,2,0,0,1,.07.43v.22l0,.11s0,.06-.08.14Z"></path>
      <path class="cls-16" d="M5.38,3a1.56,1.56,0,0,0,1.3.53v.1A1.62,1.62,0,0,1,5.38,3"></path>
      <path class="cls-15" d="M12.33,8.38S12.42,6.49,10,7.05l.22.22a3.11,3.11,0,0,0-1.32.35l.46.13S8,8.42,7.77,9.05l.69.06a2.19,2.19,0,0,0-.76,1.62s.29-.2.38-.16S7.62,11.6,8,12c0,0,.18-.35.37-.37,0,0,0,.6.07.73s.14-.46.29-.49c0,0,.16.25.09.4,0,0,.71-.43.83-.88,0,0,.16.34.1.48s1-.91,1.1-1.16c0,0,.16.26.12.37s1-.66.9-1.24c0,0,.19.14.14.29a7.51,7.51,0,0,0,.36-1.78"></path>
      <path class="cls-16" d="M8.23,11.21c.22-.47.45-.93.71-1.38a6.91,6.91,0,0,1,.89-1.27,5.21,5.21,0,0,1,1.18-1,4.25,4.25,0,0,1,1.41-.62A4.55,4.55,0,0,0,11,7.59a4.87,4.87,0,0,0-1.15,1,13.47,13.47,0,0,0-1.65,2.6"></path>
      <path class="cls-16" d="M10.58,7.91a2.83,2.83,0,0,0-1.19-.26,2.87,2.87,0,0,1,1.23.17Z"></path>
      <path class="cls-16" d="M11.1,10.28A10.69,10.69,0,0,0,11,9a4.42,4.42,0,0,0-.13-.61.84.84,0,0,0-.29-.5l0-.09a.93.93,0,0,1,.33.57,4.58,4.58,0,0,1,.1.63c0,.42,0,.84,0,1.26"></path>
      <path class="cls-16" d="M9.57,8.8a5.15,5.15,0,0,0-1-.11,6.54,6.54,0,0,1,1,0Z"></path>
      <path class="cls-16" d="M9.89,11.37a12.37,12.37,0,0,0,0-1.36,3.61,3.61,0,0,0-.08-.67.79.79,0,0,0-.3-.55l0-.09a.82.82,0,0,1,.33.62A4,4,0,0,1,10,10a10.37,10.37,0,0,1-.1,1.36"></path>
      <path class="cls-16" d="M9.16,9.58a.78.78,0,0,0-.49.15,2.3,2.3,0,0,0-.42.35,2.4,2.4,0,0,1,.39-.39.81.81,0,0,1,.55-.2Z"></path>
      <path class="cls-16" d="M9.36,10.63a2.71,2.71,0,0,0,0-.57.62.62,0,0,0-.21-.48l0-.09a.69.69,0,0,1,.21.56,3.68,3.68,0,0,1-.05.58"></path>
      <path class="cls-18" d="M14.67,11.71a1.25,1.25,0,0,1,.31.86h.1a1.31,1.31,0,0,0-.34-.93Z"></path>
      <path class="cls-20" d="M16.67,9l.62.13s-.09.38-.16.43.17.12.17.12-.42.71-.55.75.18.12.26.07a2.44,2.44,0,0,1-.62.53c-.18.05.17.09.17.09a2.57,2.57,0,0,1-1,.38C15,11.52,16.67,9,16.67,9"></path>
      <path class="cls-15" d="M15,11.61a2.71,2.71,0,0,1,1.86-3.09,1.37,1.37,0,0,0,0,.39l.2,0a1.54,1.54,0,0,1-.22.78c-.15.14.23.05.23.05a2.54,2.54,0,0,1-.64.85l.3,0a3.17,3.17,0,0,1-.78.6c-.23.07.18.11.18.11s-.79.45-1.17.31"></path>
      <path class="cls-18" d="M14.87,11.26s.19.16.7-1.07l-.17.05s.44-.94.27-1.19l-.15.06a1.31,1.31,0,0,0-.54-1c-.1-.08-.07.12-.07.12a3,3,0,0,1-.44-.29L14.4,8a1.31,1.31,0,0,0-.26-.18s0,.39.1.43l.1-.16a1,1,0,0,1,.16.72s.17.11.25.07.07.62,0,.74.28.28.28.28a3.23,3.23,0,0,1-.12,1.33"></path>
      <path class="cls-16" d="M15,10.77c0-.07.09,0,.13-.09l.12-.07a2,2,0,0,0,.19-.22,1,1,0,0,1-.18.23l-.11.09-.11.07Z"></path>
      <path class="cls-16" d="M14.87,10a1.34,1.34,0,0,0,.6-.64,1.27,1.27,0,0,1-.59.68Z"></path>
      <path class="cls-16" d="M14.65,9.33a1.33,1.33,0,0,0,.42-.87,1.35,1.35,0,0,1-.39.91Z"></path>
      <path class="cls-16" d="M14.37,8.66a2,2,0,0,0,.17-.49,2.47,2.47,0,0,1-.13.52Z"></path>
      <path class="cls-20" d="M14.87,11.26a2.86,2.86,0,0,1-.73-3.41,1,1,0,0,0,.1.43l.1-.16a.84.84,0,0,1,.16.72.42.42,0,0,0,.27.06,1.37,1.37,0,0,1-.07.82,1.38,1.38,0,0,0,.29.21,2.81,2.81,0,0,1-.12,1.33"></path>
      <path class="cls-18" d="M14.78,11.76s.27,0-.15-1.38l-.11.16s-.28-1.09-.6-1.18l-.08.15A1.37,1.37,0,0,0,12.7,9c-.15,0,0,.15,0,.15a3.54,3.54,0,0,1-.56.06v.12a1.33,1.33,0,0,0-.34,0s.25.33.38.29l0-.2a1,1,0,0,1,.63.49s.22,0,.26-.11.48.46.48.64.43,0,.43,0a3.48,3.48,0,0,1,.81,1.2"></path>
      <path class="cls-16" d="M14.52,11.29c0-.09,0-.11.05-.16l0-.15a1.08,1.08,0,0,0,0-.31.81.81,0,0,1,0,.31l0,.16,0,.13Z"></path>
      <path class="cls-16" d="M13.93,10.73a.93.93,0,0,0,.11-.47,1.57,1.57,0,0,0,0-.48,2.53,2.53,0,0,1,.08.48,1.09,1.09,0,0,1-.1.5Z"></path>
      <path class="cls-16" d="M13.27,10.3a1.49,1.49,0,0,0-.25-1,1.51,1.51,0,0,1,.3,1Z"></path>
      <path class="cls-16" d="M12.57,9.93a2.86,2.86,0,0,0-.2-.53,2.27,2.27,0,0,1,.25.52Z"></path>
      <path class="cls-15" d="M14.78,11.76a3.1,3.1,0,0,1-3-2.35,1.11,1.11,0,0,0,.38.29l0-.2c.11,0,.33,0,.63.49a.4.4,0,0,0,.26-.14,1.44,1.44,0,0,1,.51.74,1.62,1.62,0,0,0,.4,0,3.13,3.13,0,0,1,.81,1.2"></path>
      <path class="cls-13" d="M15.46,17.08s.29,1.47-.12,1.52-.1-.59-.1-.62a4.53,4.53,0,0,0,.22-.9"></path>
      <path class="cls-21" d="M15.12,18.62s-.58-1-.23-1.54c0,0,.46.74.51.87s.2,1-.28.67"></path>
      <path class="cls-9" d="M14,21.51a.39.39,0,0,0-.39-.15c-.22.07-.31.24-.27.3l.08.09.18-.1Z"></path>
      <path class="cls-10" d="M14.07,21.77s-.07-.3-.18-.3a1.67,1.67,0,0,1-.24,0l0,.05.15.21.15.05Z"></path>
      <path class="cls-11" d="M14.06,21.81s0-.1,0-.12l-.15,0-.21.16s-.06,0,0,.05.1.06.2,0a.28.28,0,0,0,.16-.1"></path>
      <path class="cls-12" d="M13.87,21.66l-.13.13-.12.05-.27-.12c0-.06,0,0,0-.13a.35.35,0,0,1,.21-.13.19.19,0,0,1,.21.05Z"></path>
      <path class="cls-9" d="M13.06,16.45a.61.61,0,0,0-.61-.09c-.3.16-.37.44-.3.52l.15.09c.09.06.21-.19.22-.2Z"></path>
      <path class="cls-10" d="M13.3,16.79s-.19-.41-.35-.38l-.35.05,0,.08s.22.25.29.26l.23,0Z"></path>
      <path class="cls-11" d="M13.3,16.85s0-.15-.1-.16H13l-.26.29c0,.05-.07.05.08.06s.17.05.3,0a.43.43,0,0,0,.2-.2"></path>
      <path class="cls-12" d="M13,16.69a1.49,1.49,0,0,0-.14.23c-.06.1-.07.13-.17.11s-.34,0-.42-.09-.07-.07,0-.19a.49.49,0,0,1,.26-.25.29.29,0,0,1,.31,0,.66.66,0,0,1,.18.19"></path>
      <path class="cls-9" d="M11.85,18.3a2.09,2.09,0,0,0-2.14.14c-.88.77-.93,1.76-.63,2a5.06,5.06,0,0,0,.56.22c.36.13.59-.81.61-.83Z"></path>
      <path class="cls-10" d="M12.92,19.3s-.93-1.25-1.47-1-1.15.39-1.15.39l0,.32s.93.68,1.17.66.68-.1.79-.1a5.58,5.58,0,0,0,.7-.24"></path>
      <path class="cls-11" d="M13,19.49c0-.14-.06-.5-.44-.45a5.22,5.22,0,0,0-.74.16s-.55,1-.68,1.17-.23.21.32.14.59.06,1-.19a1.4,1.4,0,0,0,.54-.83"></path>
      <path class="cls-12" d="M11.78,19.2a6.88,6.88,0,0,0-.35.87c-.11.39-.12.5-.48.49s-1.17.21-1.49,0-.31-.17-.22-.63a1.64,1.64,0,0,1,.72-1A.93.93,0,0,1,11,18.67a2.49,2.49,0,0,1,.76.53"></path>
      <path class="cls-9" d="M16.2,18.57a1.82,1.82,0,0,0-1.86,0c-.81.61-.91,1.47-.66,1.67a3.36,3.36,0,0,0,.46.22c.31.14.56-.67.58-.68Z"></path>
      <path class="cls-10" d="M17.08,19.5s-.74-1.15-1.22-1-1,.28-1,.28l-.05.27s.76.65,1,.64.6,0,.69,0a4.39,4.39,0,0,0,.63-.16"></path>
      <path class="cls-11" d="M17.1,19.66c0-.12,0-.43-.36-.41a4.85,4.85,0,0,0-.65.09s-.54.84-.66,1-.21.17.27.14.51.08.88-.11a1.22,1.22,0,0,0,.52-.69"></path>
      <path class="cls-12" d="M16.09,19.34a5.41,5.41,0,0,0-.35.74c-.13.33-.14.43-.45.39s-1,.11-1.3-.08-.25-.17-.15-.57a1.48,1.48,0,0,1,.69-.85.81.81,0,0,1,.94-.13,2.23,2.23,0,0,1,.62.5"></path>
      <path class="cls-9" d="M19,17.45a2,2,0,0,0-2-.26c-.94.55-1.16,1.44-.92,1.69a3.06,3.06,0,0,0,.46.3c.31.19.69-.63.71-.64Z"></path>
      <path class="cls-10" d="M19.81,18.56s-.63-1.32-1.16-1.21-1.13.15-1.13.15l-.09.29s.72.79.95.81.64,0,.74,0a5.09,5.09,0,0,0,.69-.09"></path>
      <path class="cls-11" d="M19.81,18.74c0-.13,0-.47-.33-.49a5.83,5.83,0,0,0-.71,0s-.68.82-.82.95-.26.15.26.19.53.16.95,0a1.31,1.31,0,0,0,.65-.66"></path>
      <path class="cls-12" d="M18.77,18.26a6.85,6.85,0,0,0-.47.73c-.17.35-.2.45-.53.36s-1.11,0-1.37-.26-.25-.21-.08-.62.4-.56.84-.82a.88.88,0,0,1,1,0,2.23,2.23,0,0,1,.59.62"></path>
      <path class="cls-9" d="M19.81,20.82a.64.64,0,0,0,.58-.28c.15-.32.05-.6-.06-.62h-.17c-.12,0-.07.29-.08.3Z"></path>
      <path class="cls-10" d="M19.4,20.67s.4.24.52.12a2.42,2.42,0,0,1,.28-.25l0-.09-.4-.05-.21.12Z"></path>
      <path class="cls-11" d="M19.36,20.62a.12.12,0,0,0,.18.07,1,1,0,0,0,.19-.13l.05-.4c0-.06,0-.08-.1,0s-.18.05-.26.17a.42.42,0,0,0-.06.29"></path>
      <path class="cls-12" d="M19.73,20.56a1.5,1.5,0,0,0,0-.28c0-.12,0-.15.08-.19s.3-.19.41-.17.11,0,.13.15a.51.51,0,0,1-.07.37.29.29,0,0,1-.27.18.65.65,0,0,1-.27-.06"></path>
      <path class="cls-9" d="M9.89,21a.79.79,0,0,0,.76-.31c.22-.39.12-.75,0-.79h-.22c-.15,0-.12.37-.12.37Z"></path>
      <path class="cls-10" d="M9.38,20.82s.49.34.66.19.37-.29.37-.29l0-.12a1.6,1.6,0,0,0-.5-.09c-.09,0-.24.12-.28.13Z"></path>
      <path class="cls-11" d="M9.34,20.75c0,.05.08.17.21.11a2,2,0,0,0,.25-.15s.08-.43.11-.51.05-.1-.13,0-.23,0-.35.19a.54.54,0,0,0-.09.37"></path>
      <path class="cls-12" d="M9.8,20.71a2.05,2.05,0,0,0,0-.36c0-.16,0-.2.12-.23s.4-.22.54-.19.13,0,.16.2a.66.66,0,0,1-.14.47.35.35,0,0,1-.36.21.91.91,0,0,1-.34-.1"></path>
      <path class="cls-9" d="M13.38,19.05a.46.46,0,0,0,.47.09c.23-.13.29-.34.23-.4l-.1-.07c-.07-.05-.17.14-.18.14Z"></path>
      <path class="cls-10" d="M13.2,18.78s.13.32.26.3a2.05,2.05,0,0,1,.27,0l0-.07-.21-.2-.18,0Z"></path>
      <path class="cls-11" d="M13.2,18.74a.09.09,0,0,0,.07.12.85.85,0,0,0,.17,0l.21-.22s.06,0-.06,0-.13,0-.23,0a.28.28,0,0,0-.16.15"></path>
      <path class="cls-12" d="M13.44,18.86l.12-.17c0-.08,0-.1.13-.08s.26,0,.32.08.06,0,0,.15a.38.38,0,0,1-.21.18.23.23,0,0,1-.25,0,.57.57,0,0,1-.13-.16"></path>
      <path class="cls-9" d="M17.62,20.85a1.84,1.84,0,0,0,1.78-.53c.59-.82.44-1.66.14-1.78a3.75,3.75,0,0,0-.5-.08c-.34,0-.34.8-.36.81Z"></path>
      <path class="cls-10" d="M16.52,20.21s1,.88,1.44.59a8.78,8.78,0,0,1,.89-.55l0-.28a3.5,3.5,0,0,0-1.11-.33c-.2.06-.55.21-.64.23a4.56,4.56,0,0,0-.55.34"></path>
      <path class="cls-11" d="M16.45,20.06c0,.12.15.41.46.29a4.62,4.62,0,0,0,.6-.27s.27-.95.34-1.12.16-.22-.29-.06-.51.07-.81.36a1.25,1.25,0,0,0-.3.8"></path>
      <path class="cls-12" d="M17.51,20.08a6.08,6.08,0,0,0,.12-.8c0-.36,0-.45.31-.51s.95-.4,1.26-.29.29.09.3.49a1.41,1.41,0,0,1-.4,1,.83.83,0,0,1-.86.4,2.15,2.15,0,0,1-.73-.3"></path>
      <path class="cls-9" d="M12.16,20.16a1.21,1.21,0,0,0,1.24,0c.53-.42.59-1,.42-1.12l-.32-.14c-.2-.09-.36.45-.37.46Z"></path>
      <path class="cls-10" d="M11.57,19.56s.5.75.82.63a6.66,6.66,0,0,1,.67-.19l0-.18s-.51-.43-.65-.42l-.46,0Z"></path>
      <path class="cls-11" d="M11.55,19.45c0,.08,0,.28.24.27a3.86,3.86,0,0,0,.44-.07s.35-.57.42-.66.14-.12-.18-.09-.34,0-.58.08a.82.82,0,0,0-.34.47"></path>
      <path class="cls-12" d="M12.23,19.65a4.56,4.56,0,0,0,.22-.5c.08-.22.08-.29.29-.26s.68-.09.87,0,.17.11.1.38a.93.93,0,0,1-.44.57.53.53,0,0,1-.62.1,1.34,1.34,0,0,1-.42-.32"></path>
      <rect class="cls-1" width="30.37" height="42.21"></rect>
    </g>
  </g>
</svg>
