<?xml version="1.0" encoding="UTF-8"?>
<svg xmlns="http://www.w3.org/2000/svg" viewBox="0 0 80.41 119.61">
  <defs>
    <style>.cls-1{fill:none;stroke:#d7d7d7;stroke-linecap:round;stroke-linejoin:round;stroke-width:1.15px;}.cls-2{fill:#e9c671;}.cls-3{fill:#d9a458;}.cls-4{fill:#84a63c;}</style>
  </defs>
  <g id="Слой_2" data-name="Слой 2">
    <g id="Слой_1-2" data-name="Слой 1">
      <path class="cls-1" d="M28.58,81.89s-3.17,3.45-6,3.31-7-.71-8.28,0"></path>
      <path class="cls-1" d="M29,87.81c-.14.41-1.08,5-8.28,6.17S3.24,95.85.58,102.47"></path>
      <path class="cls-1" d="M16.11,94.7S11,98,12.38,105.28"></path>
      <path class="cls-1" d="M37.79,94.7A11.8,11.8,0,0,1,33,102.47c-4.39,3.32-10.94,1.59-14.54,12"></path>
      <path class="cls-1" d="M30.25,104s2.9,3,0,7.43a10,10,0,0,0-.88,4.54"></path>
      <path class="cls-1" d="M43.05,95.56s-5.43,5.67-1.37,9.72C46.86,110.46,41,119,41,119"></path>
      <path class="cls-1" d="M42.89,106.87s7,2.08,5.63,11.73"></path>
      <path class="cls-1" d="M52,92.68s9.58,4.68,10.66,10.8,1.44,9.94,2.73,10.94"></path>
      <path class="cls-1" d="M57.29,96.1S67,99.7,69,104"></path>
      <path class="cls-1" d="M56.72,86.49s1,.87,7.63.58,11.16-1.73,15.48,3.35"></path>
      <path class="cls-1" d="M68.28,86.81s1,5.51,5.72,5.37"></path>
      <path class="cls-2" d="M38.58,81.31s-4.46-1.58-6.33-2.3-5.69.5-6.05,3.24,1.3,10.72,8,13.1,8.14,1.15,9.58,1.08,2.95-2.67,5.32-2.52,2.74.36,3.82.07,5.18-.86,5.54-4.75-1.53-11-10.58-9.57C43.55,80.35,42.69,83.18,38.58,81.31Z"></path>
      <ellipse class="cls-3" cx="49.71" cy="86.49" rx="1.19" ry="0.58"></ellipse>
      <ellipse class="cls-3" cx="42.43" cy="90.42" rx="1.48" ry="0.61"></ellipse>
      <ellipse class="cls-3" cx="33.98" cy="86.86" rx="1.51" ry="0.94"></ellipse>
      <path class="cls-4" d="M28.8,0c0,.58.77,14,8.45,14C37.25,14,38,3.26,28.8.58"></path>
      <path class="cls-4" d="M37.25,14s-1.73-7.1,6.52-9.4c0,0-1,3.45-1.72,6.14S37.25,14,37.25,14Z"></path>
      <path class="cls-4" d="M37.25,14s-6.15-1.34-8.45,7.3c0,0,5.38,1.92,6.91-2.69Z"></path>
      <path class="cls-4" d="M55.48,5.57s-5.56,1.34-7.1,9.4c0,0,2.3,1.39,4.8-1S54.91,7.68,55.48,5.57Z"></path>
      <path class="cls-4" d="M45.5,16.7s-1.34-4.8,1.34-8.64C46.84,8.06,49.92,15.93,45.5,16.7Z"></path>
      <path class="cls-4" d="M45.5,16.7S51.84,15,54,20.35C54,20.35,49,22.65,45.5,16.7Z"></path>
      <path class="cls-4" d="M32.33,26.54s-5,5.11,1.22,8.71C33.55,35.25,39.09,33.16,32.33,26.54Z"></path>
      <path class="cls-4" d="M30.1,34.89s-6.55-7.7-13.32.79c0,0,3.67,3.24,5.25,4.25S29.78,39.13,30.1,34.89Z"></path>
      <path class="cls-4" d="M33.55,35.94s-3.53.82-3.45,3.7-.22,3.53-.8,4.17S37.8,42.11,33.55,35.94Z"></path>
      <path class="cls-4" d="M47.59,26.54s-2.78,5.25,2.13,6.91C49.72,33.45,53.64,29.78,47.59,26.54Z"></path>
      <path class="cls-4" d="M53.56,33.45s-2.18-1.66.39-4.1,4.15-2.52,4.65-2.45S58.53,32.58,53.56,33.45Z"></path>
      <path class="cls-4" d="M55.48,33.45s8.16-3.05,7.8,6.75a11.59,11.59,0,0,1-3.89-.27C57.74,39.42,54.52,36.18,55.48,33.45Z"></path>
      <path class="cls-4" d="M53.28,34.53s3.16,1.37,0,6.91c0,0-3.34-1.44-1.35-5.11S53.28,34.53,53.28,34.53Z"></path>
      <path class="cls-4" d="M51.3,46.12c.07-.18-6.73,1.22-2.41,9.21a3.13,3.13,0,0,0,3-3.31C51.84,48.85,50.83,47.27,51.3,46.12Z"></path>
      <path class="cls-4" d="M51.3,55.33s10.33-8.92,11.41,2.81c0,0-2.38-1.51-4.18-.86C57.62,57.6,52.41,60.3,51.3,55.33Z"></path>
      <path class="cls-4" d="M49.69,56.34s-4.76,4.53,2.94,8.21a11.31,11.31,0,0,1,.72-4.11C54.15,58.35,50.35,55.52,49.69,56.34Z"></path>
      <path class="cls-4" d="M33.91,59.43s5-1.87,1.3-11.44A30.43,30.43,0,0,1,32,51.59C30.82,52.52,28.73,55.69,33.91,59.43Z"></path>
      <path class="cls-4" d="M30.89,58.3s-2-14-10.87-6.22c0,0,3.74,2,5,5.41S30.89,58.3,30.89,58.3Z"></path>
      <path class="cls-4" d="M32,59.43s-5.55-1.36-5,4.4a4.28,4.28,0,0,1-1.15,4.46S36.33,68,32,59.43Z"></path>
      <path class="cls-4" d="M36.81,12.26c1.6,2.53,3.07,5.1,4.54,7.72a35.7,35.7,0,0,1,3.31,8.44,36.13,36.13,0,0,1,1.07,9l-.09,2.28L45.42,42l-.35,2.25-.44,2.21c-.63,2.94-1.45,5.83-2.18,8.7a51.62,51.62,0,0,0-1.56,8.66A71.28,71.28,0,0,0,42,81.39h0a.87.87,0,0,1-1.71.28h0a71.91,71.91,0,0,1-1.11-18,54.29,54.29,0,0,1,1.68-8.91c.77-2.9,1.61-5.74,2.25-8.63L43.62,44,44,41.79l.25-2.18.12-2.19a35.4,35.4,0,0,0-.91-8.7,34.65,34.65,0,0,0-3.09-8.21c-1.38-2.62-2.74-5.3-4-8a.25.25,0,0,1,.12-.33.24.24,0,0,1,.32.09Z"></path>
      <path class="cls-4" d="M43.34,27A12.77,12.77,0,0,1,42.83,23a10.13,10.13,0,0,1,.9-3.95,8.62,8.62,0,0,1,2.47-3.19,11.1,11.1,0,0,1,1.66-1.14c.58-.32,1.21-.56,1.81-.84a.14.14,0,0,1,.2.07.15.15,0,0,1-.07.21h0c-.57.3-1.18.55-1.73.89a9.64,9.64,0,0,0-1.54,1.15,8.11,8.11,0,0,0-2.21,3.08A9.46,9.46,0,0,0,43.6,23a12,12,0,0,0,.61,3.73v0a.46.46,0,0,1-.29.58.45.45,0,0,1-.58-.29Z"></path>
      <path class="cls-4" d="M44.38,40.61A8.68,8.68,0,0,1,45.81,37a8.38,8.38,0,0,1,2.85-2.61,10.83,10.83,0,0,1,3.66-1.1c.63-.08,1.27-.07,1.9-.1l1.88.13a.17.17,0,0,1,.15.18.15.15,0,0,1-.17.15h0l-1.85-.06c-.61.06-1.23.08-1.83.17A10.31,10.31,0,0,0,49,34.9a7.66,7.66,0,0,0-2.51,2.49,7.87,7.87,0,0,0-1.15,3.29v0a.45.45,0,0,1-.51.41.46.46,0,0,1-.42-.51Z"></path>
      <path class="cls-4" d="M28,35a30,30,0,0,1,5.1.21,14.19,14.19,0,0,1,2.52.6,5.22,5.22,0,0,1,.61.25,3.46,3.46,0,0,1,.6.32,12.57,12.57,0,0,1,1.07.74,41.06,41.06,0,0,1,3.73,3.49c.58.62,1.15,1.26,1.68,1.94a7.71,7.71,0,0,1,1.34,2.34.48.48,0,0,1-.32.61.49.49,0,0,1-.61-.32h0v0a7.09,7.09,0,0,0-1.19-2c-.49-.65-1-1.27-1.6-1.88a43.42,43.42,0,0,0-3.59-3.46c-.31-.27-.61-.56-.92-.8a2.25,2.25,0,0,0-.5-.29,5.22,5.22,0,0,0-.54-.24A12.71,12.71,0,0,0,33,35.82a25,25,0,0,0-5-.29h0a.27.27,0,0,1-.29-.27A.29.29,0,0,1,28,35Z"></path>
      <path class="cls-4" d="M29.53,57l3.31,1.92c1.11.65,2.2,1.25,3.33,1.94a9.36,9.36,0,0,1,2.56,3.06,29.76,29.76,0,0,1,1.69,3.51.58.58,0,0,1-.32.77.59.59,0,0,1-.78-.31v0h0a30.07,30.07,0,0,0-1.45-3.46,8.56,8.56,0,0,0-2.16-2.88c-1-.7-2.11-1.41-3.16-2.12l-3.18-2.12a.16.16,0,0,1,0-.22A.16.16,0,0,1,29.53,57Z"></path>
      <path class="cls-4" d="M39.45,63a20.42,20.42,0,0,1,2.33-3.1,17.12,17.12,0,0,1,2.87-2.57,11.3,11.3,0,0,1,3.48-1.67A9.47,9.47,0,0,1,50,55.33,8.85,8.85,0,0,1,52,55.5a.12.12,0,0,1,.09.14.11.11,0,0,1-.13.1h0a8.2,8.2,0,0,0-1.85-.08,9.29,9.29,0,0,0-1.82.35A11,11,0,0,0,45,57.76a16.23,16.23,0,0,0-2.64,2.6,20,20,0,0,0-2.08,3h0a.47.47,0,0,1-.64.19.47.47,0,0,1-.19-.64Z"></path>
    </g>
  </g>
</svg>
