<?xml version="1.0" encoding="UTF-8"?>
<svg xmlns="http://www.w3.org/2000/svg" xmlns:xlink="http://www.w3.org/1999/xlink" viewBox="0 0 34.36 50.22">
  <defs>
    <style>.cls-1{fill:none;}.cls-2{clip-path:url(#clip-path);}.cls-3{fill:#8e6848;}.cls-4{clip-path:url(#clip-path-2);}.cls-5{fill:url(#Безымянный_градиент_2);}.cls-6{fill:#713e21;}.cls-7{fill:#3d271f;}.cls-8{fill:#69391e;}.cls-9{fill:#6b472f;}.cls-10{fill:#5c3624;}.cls-11{fill:#795135;}.cls-12{fill:#9a734f;}.cls-13{fill:#d0c5a6;}.cls-14{fill:#85563a;}.cls-15{fill:#7fb943;}.cls-16{fill:#486f3a;}.cls-17{fill:#92bf3a;}.cls-18{fill:#6d9633;}.cls-19{fill:#bcd746;}.cls-20{clip-path:url(#clip-path-4);}.cls-21{fill:url(#Безымянный_градиент_32);}.cls-22{clip-path:url(#clip-path-5);}.cls-23{fill:url(#Безымянный_градиент_32-2);}.cls-24{clip-path:url(#clip-path-6);}.cls-25{fill:url(#Безымянный_градиент_32-3);}.cls-26{clip-path:url(#clip-path-7);}.cls-27{fill:url(#Безымянный_градиент_32-4);}.cls-28{clip-path:url(#clip-path-8);}.cls-29{fill:url(#Безымянный_градиент_32-5);}.cls-30{fill:#f4ec76;}.cls-31{clip-path:url(#clip-path-11);}.cls-32{fill:url(#Безымянный_градиент_3);}.cls-33{clip-path:url(#clip-path-13);}.cls-34{fill:url(#Безымянный_градиент_3-2);}.cls-35{clip-path:url(#clip-path-16);}.cls-36{fill:url(#Безымянный_градиент_3-3);}.cls-37{clip-path:url(#clip-path-18);}.cls-38{fill:url(#Безымянный_градиент_23);}.cls-39{clip-path:url(#clip-path-19);}.cls-40{fill:url(#Безымянный_градиент_32-6);}.cls-41{clip-path:url(#clip-path-20);}.cls-42{fill:url(#Безымянный_градиент_32-7);}.cls-43{clip-path:url(#clip-path-21);}.cls-44{fill:url(#Безымянный_градиент_32-8);}.cls-45{clip-path:url(#clip-path-22);}.cls-46{fill:url(#Безымянный_градиент_32-9);}</style>
    <clipPath id="clip-path" transform="translate(0 0)">
      <rect class="cls-1" width="34.76" height="48.9"></rect>
    </clipPath>
    <clipPath id="clip-path-2" transform="translate(0 0)">
      <polygon class="cls-1" points="1.99 42.84 14.86 48.9 26.76 42.87 14.38 37.63 1.99 42.84"></polygon>
    </clipPath>
    <linearGradient id="Безымянный_градиент_2" x1="-2510.48" y1="-774.48" x2="-2509.76" y2="-774.48" gradientTransform="matrix(34.36, 0, 0, -34.36, 86250.15, -26565.03)" gradientUnits="userSpaceOnUse">
      <stop offset="0" stop-color="#9b714e"></stop>
      <stop offset="0.38" stop-color="#9b714e"></stop>
      <stop offset="0.89" stop-color="#764528"></stop>
      <stop offset="1" stop-color="#6e3c20"></stop>
    </linearGradient>
    <clipPath id="clip-path-4" transform="translate(0 0)">
      <path class="cls-1" d="M30.48,4.94a2.29,2.29,0,0,0,.06.52c.05.1.46.16.64.12a2.26,2.26,0,0,0,.59-.32c.05,0,0-.23-.12-.31a1,1,0,0,0-.38,0c-.34,0-.79,0-.79,0"></path>
    </clipPath>
    <radialGradient id="Безымянный_градиент_32" cx="-1755.19" cy="-1323.44" r="0.72" gradientTransform="matrix(2.28, 0, 0, -2.28, 4030.22, -3010.14)" gradientUnits="userSpaceOnUse">
      <stop offset="0" stop-color="#fff"></stop>
      <stop offset="1" stop-color="#cac9c9"></stop>
    </radialGradient>
    <clipPath id="clip-path-5" transform="translate(0 0)">
      <path class="cls-1" d="M29.77,3.59c-.2.62.44,1.06.46,1.09s.42.23.65-.32a.8.8,0,0,0-.11-.93,1,1,0,0,0-.54-.19.45.45,0,0,0-.46.35"></path>
    </clipPath>
    <radialGradient id="Безымянный_градиент_32-2" cx="-1927.92" cy="-1179.86" r="0.72" gradientTransform="matrix(2.99, 0, 0, -2.99, 5792.61, -3522.41)" xlink:href="#Безымянный_градиент_32"></radialGradient>
    <clipPath id="clip-path-6" transform="translate(0 0)">
      <path class="cls-1" d="M29.14,3.81a.74.74,0,0,0,.38.81c.44.26.57,0,.52-.15a1,1,0,0,0-.28-.82.43.43,0,0,0-.31-.14.31.31,0,0,0-.31.3"></path>
    </clipPath>
    <radialGradient id="Безымянный_градиент_32-3" cx="-1787.48" cy="-1296.61" r="0.72" gradientTransform="matrix(2.39, 0, 0, -2.39, 4292.87, -3088.37)" xlink:href="#Безымянный_градиент_32"></radialGradient>
    <clipPath id="clip-path-7" transform="translate(0 0)">
      <path class="cls-1" d="M31,4.05c-.26.06-.57.63-.57.63s.14.22.19.23a3.16,3.16,0,0,0,1.09,0,.79.79,0,0,0,0-.72A.38.38,0,0,0,31.4,4a2.35,2.35,0,0,0-.37,0"></path>
    </clipPath>
    <radialGradient id="Безымянный_градиент_32-4" cx="-1841.42" cy="-1251.83" r="0.72" gradientTransform="matrix(2.58, 0, 0, -2.58, 4791.09, -3231.4)" xlink:href="#Безымянный_градиент_32"></radialGradient>
    <clipPath id="clip-path-8" transform="translate(0 0)">
      <path class="cls-1" d="M29.38,4.59s-.15.06-.16.17a.62.62,0,0,0,.37.54,2.19,2.19,0,0,0,.82.22s.36,0,.16-.39c0,0-.05-.12-.37-.33a.91.91,0,0,0-.58-.25.67.67,0,0,0-.24,0"></path>
    </clipPath>
    <radialGradient id="Безымянный_градиент_32-5" cx="-1847.53" cy="-1246.54" r="0.72" gradientTransform="matrix(2.61, 0, 0, -2.61, 4853.08, -3249.2)" xlink:href="#Безымянный_градиент_32"></radialGradient>
    <clipPath id="clip-path-11" transform="translate(0 0)">
      <path class="cls-1" d="M8.28,18.08c0,.09.91.35,1.12-.08s.15-.71-.16-.85a.73.73,0,0,0-.3-.07c-.27,0-.55.21-.66,1"></path>
    </clipPath>
    <radialGradient id="Безымянный_градиент_3" cx="-4728.68" cy="-1669.04" r="0.72" gradientTransform="matrix(0, -0.89, -0.89, 0, -1468.87, -4168.98)" gradientUnits="userSpaceOnUse">
      <stop offset="0" stop-color="#cac9c9"></stop>
      <stop offset="1" stop-color="#fff"></stop>
    </radialGradient>
    <clipPath id="clip-path-13" transform="translate(0 0)">
      <path class="cls-1" d="M10.78,18.25c-.26.24-.47.69.49,1.24.08,0,.67-.71.35-1.07a.79.79,0,0,0-.53-.31.46.46,0,0,0-.31.14"></path>
    </clipPath>
    <radialGradient id="Безымянный_градиент_3-2" cx="-4203.7" cy="1009.96" r="0.72" gradientTransform="matrix(-0.86, 0.23, 0.23, 0.85, -3815.69, 103.53)" xlink:href="#Безымянный_градиент_3"></radialGradient>
    <clipPath id="clip-path-16" transform="translate(0 0)">
      <path class="cls-1" d="M7,16.23c0,.09.85.48,1.12.08s.26-.67,0-.86a.7.7,0,0,0-.35-.12c-.25,0-.53.2-.73.9"></path>
    </clipPath>
    <radialGradient id="Безымянный_градиент_3-3" cx="-4572.34" cy="-1977.74" r="0.72" gradientTransform="matrix(0, -0.89, -0.89, 0, -1743.42, -4032.29)" xlink:href="#Безымянный_градиент_3"></radialGradient>
    <clipPath id="clip-path-18" transform="translate(0 0)">
      <path class="cls-1" d="M9.07,17.67c-.38,0-.43.44-.15.74s.38.54.58.49a.63.63,0,0,0,.47-.37c.07-.11.25-.37.14-.61s-.51-.26-.81-.26H9.07"></path>
    </clipPath>
    <radialGradient id="Безымянный_градиент_23" cx="-1675.21" cy="-250.97" r="0.72" gradientTransform="matrix(0, 2.32, 2.32, 0, 590.53, 3896.58)" gradientUnits="userSpaceOnUse">
      <stop offset="0" stop-color="#fff"></stop>
      <stop offset="1" stop-color="#cac9c9"></stop>
    </radialGradient>
    <clipPath id="clip-path-19" transform="translate(0 0)">
      <path class="cls-1" d="M9.33,19.56h0m.22-.14-.21.14,0,0s-.59.55-.27.94a.8.8,0,0,0,.9.19c.12,0,.69-.21.59-.52a1.67,1.67,0,0,0-.29-.54.92.92,0,0,0-.53-.25.46.46,0,0,0-.22.06"></path>
    </clipPath>
    <radialGradient id="Безымянный_градиент_32-6" cx="-1832.58" cy="-386.27" r="0.72" gradientTransform="matrix(0, 2.96, 2.96, 0, 1152.48, 5441.86)" xlink:href="#Безымянный_градиент_32"></radialGradient>
    <clipPath id="clip-path-20" transform="translate(0 0)">
      <path class="cls-1" d="M10.23,19s-.93,0-.27.55.72.74,1,.53.29-.74.14-1.2a.24.24,0,0,0-.24-.17,1.24,1.24,0,0,0-.59.29"></path>
    </clipPath>
    <radialGradient id="Безымянный_градиент_32-7" cx="-1777.19" cy="-358.1" r="0.72" gradientTransform="matrix(0, 2.73, 2.73, 0, 986.86, 4864.48)" xlink:href="#Безымянный_градиент_32"></radialGradient>
    <clipPath id="clip-path-21" transform="translate(0 0)">
      <path class="cls-1" d="M8.62,18.47c-.28.23-.54.37-.21,1.21s1.16-.38,1.18-.51-.15-.34-.15-.34-.37-.41-.66-.41a.24.24,0,0,0-.16,0"></path>
    </clipPath>
    <radialGradient id="Безымянный_градиент_32-8" cx="-1914.58" cy="-428.28" r="0.72" gradientTransform="matrix(0, 3.39, 3.39, 0, 1459.57, 6503.49)" xlink:href="#Безымянный_градиент_32"></radialGradient>
    <clipPath id="clip-path-22" transform="translate(0 0)">
      <path class="cls-1" d="M9.91,19a1.33,1.33,0,0,0,.91-.24c.23-.15.2-.58-.4-.83l-.14,0c-.44,0-.37,1.1-.37,1.1"></path>
    </clipPath>
    <radialGradient id="Безымянный_градиент_32-9" cx="-1624.09" cy="-551.97" r="0.72" gradientTransform="matrix(0, 2.47, 2.47, 0, 1373.59, 4029.65)" xlink:href="#Безымянный_градиент_32"></radialGradient>
  </defs>
  <g id="Слой_2" data-name="Слой 2">
    <g id="Слой_1-2" data-name="Слой 1">
      <g class="cls-2">
        <path class="cls-3" d="M14.86,31.86s2.47,2.91,4.39,3,8.45-2,8.45-2l.66-6.8-13.5-4.76Z" transform="translate(0 0)"></path>
        <path class="cls-3" d="M0,25.65l1.35,8.88S6.13,35.25,7,35s4.66-1.67,5.74-1.67,2.15-1.48,2.15-1.48V21.37Z" transform="translate(0 0)"></path>
      </g>
      <g class="cls-4">
        <rect class="cls-5" x="8.08" y="30.59" width="12.58" height="25.34" transform="translate(-29.6 55.29) rotate(-86.92)"></rect>
      </g>
      <g class="cls-2">
        <path class="cls-6" d="M2,42.84l-.64-8.31s6.1-.12,7.77-1a35.2,35.2,0,0,1,5.74-1.72l-.48,5.77Z" transform="translate(0 0)"></path>
        <path class="cls-7" d="M10.68,35.05a2,2,0,0,0-.73-.43h0A1.52,1.52,0,0,0,8.45,35c-.53.65-.44,1.36-.2,1.47a1.9,1.9,0,0,0,.42.09h0a8.7,8.7,0,0,0,.9-.2l.16,0,.16,0c.38-.12.43,0,.69-.27a1,1,0,0,0,.28-.65l-.05-.13h0a.22.22,0,0,0-.15-.13" transform="translate(0 0)"></path>
        <path class="cls-7" d="M5.46,35.91a2.61,2.61,0,0,0-1,.34h0A1.94,1.94,0,0,0,3.5,38c.18,1.07.94,1.58,1.26,1.44a3.54,3.54,0,0,0,.44-.33v0a11.11,11.11,0,0,0,.57-1,1,1,0,0,0,.09-.19l.09-.2c.21-.47.33-.44.34-.89a1.34,1.34,0,0,0-.4-.83l-.17-.06h0a.28.28,0,0,0-.25,0" transform="translate(0 0)"></path>
        <path class="cls-8" d="M14.86,31.86l-.48,5.77,12.38,5.24.94-9.93a32.42,32.42,0,0,0-5.54-.2c-1.67.24-4.59.95-5.46.48a11.42,11.42,0,0,1-1.84-1.36" transform="translate(0 0)"></path>
        <path class="cls-7" d="M10.14,37.78a.83.83,0,0,0-.32-.07h0A.58.58,0,0,0,9.3,38c-.13.3,0,.56.09.57h.17a3.1,3.1,0,0,0,.32-.17l0,0,.06,0c.13-.09.16-.06.23-.18a.43.43,0,0,0,0-.28l0,0h0Z" transform="translate(0 0)"></path>
        <path class="cls-7" d="M22.27,35.3a.63.63,0,0,0,0-.23h0s-.1-.26-.33-.26-.37.13-.35.2l.05.1h0l.19.16,0,0,0,0c.09.07.08.09.17.11a.26.26,0,0,0,.19,0l0,0h0Z" transform="translate(0 0)"></path>
        <path class="cls-7" d="M25.72,39.47a2.74,2.74,0,0,0-.49-1h0a2,2,0,0,0-1.89-.66c-1,.33-1.44,1.17-1.26,1.46a3.54,3.54,0,0,0,.39.39h0a9.76,9.76,0,0,0,1.12.41.8.8,0,0,0,.2.07l.22.06c.49.14.48.27.93.21a1.32,1.32,0,0,0,.77-.52.65.65,0,0,0,0-.17h0v0a.29.29,0,0,0-.07-.25" transform="translate(0 0)"></path>
        <path class="cls-7" d="M19,36.05a2.25,2.25,0,0,0-.48.69h0a1.51,1.51,0,0,0,.25,1.52c.61.57,1.32.53,1.45.3,0-.06.08-.28.12-.41v0a7,7,0,0,0-.14-.91.35.35,0,0,0,0-.16.75.75,0,0,0,0-.17c-.09-.38,0-.42-.21-.7a1,1,0,0,0-.63-.33l-.13,0h0a.24.24,0,0,0-.14.14" transform="translate(0 0)"></path>
        <path class="cls-9" d="M19.05,43.1a.41.41,0,0,0,.4-.11c.14-.18.11-.37,0-.4l-.11,0c-.07,0-.08.18-.09.18Z" transform="translate(0 0)"></path>
        <path class="cls-10" d="M18.8,43s.23.2.32.14l.21-.12v-.06l-.25-.08-.14.05Z" transform="translate(0 0)"></path>
        <path class="cls-11" d="M18.79,42.92s0,.09.1.06l.13,0,.09-.25s0,0-.07,0-.11,0-.18.08a.27.27,0,0,0-.07.18" transform="translate(0 0)"></path>
        <path class="cls-12" d="M19,42.93a1.34,1.34,0,0,0,0-.18c0-.08,0-.1.07-.11s.22-.09.29-.06.06,0,.06.11a.34.34,0,0,1-.1.23.18.18,0,0,1-.19.08.48.48,0,0,1-.17-.07" transform="translate(0 0)"></path>
        <path class="cls-9" d="M16.29,41.52a.93.93,0,0,0,.84-.43c.22-.46.07-.86-.09-.9h-.26c-.17,0-.1.43-.11.44Z" transform="translate(0 0)"></path>
        <path class="cls-10" d="M15.69,41.31s.59.34.77.16a4.87,4.87,0,0,1,.39-.36l0-.14a1.91,1.91,0,0,0-.58-.06l-.3.18Z" transform="translate(0 0)"></path>
        <path class="cls-11" d="M15.64,41.24s.11.19.26.1a2.08,2.08,0,0,0,.27-.19s0-.5.06-.59.06-.12-.15,0-.24.08-.37.25a.65.65,0,0,0-.07.43" transform="translate(0 0)"></path>
        <path class="cls-12" d="M16.17,41.15a2.36,2.36,0,0,0,0-.41c0-.18,0-.22.11-.28s.43-.29.6-.26.15,0,.2.21A.77.77,0,0,1,17,41a.4.4,0,0,1-.39.28,1.1,1.1,0,0,1-.39-.08" transform="translate(0 0)"></path>
        <path class="cls-9" d="M13.73,43.52a.88.88,0,0,0,.91.11c.43-.25.53-.66.42-.77a1,1,0,0,0-.22-.14c-.14-.09-.31.29-.32.3Z" transform="translate(0 0)"></path>
        <path class="cls-10" d="M13.36,43s.29.6.53.55.52-.08.52-.08l0-.13S14.12,43,14,43l-.34,0Z" transform="translate(0 0)"></path>
        <path class="cls-11" d="M13.36,42.94c0,.06,0,.21.15.22a2,2,0,0,0,.32,0l.38-.44c.06-.06.11-.07-.12-.08s-.25-.07-.44,0a.57.57,0,0,0-.29.31" transform="translate(0 0)"></path>
        <path class="cls-12" d="M13.83,43.15a3,3,0,0,0,.21-.34c.08-.15.09-.2.24-.16s.51,0,.63.11.12.1,0,.29a.69.69,0,0,1-.38.37.39.39,0,0,1-.46,0,1,1,0,0,1-.28-.28" transform="translate(0 0)"></path>
        <path class="cls-9" d="M12.62,41.86a.68.68,0,0,0,0-.7c-.22-.31-.54-.36-.62-.26l-.09.17c-.06.11.24.22.25.22Z" transform="translate(0 0)"></path>
        <path class="cls-10" d="M12.26,42.18s.44-.26.39-.44-.09-.39-.09-.39l-.1,0s-.26.28-.26.36,0,.22,0,.26Z" transform="translate(0 0)"></path>
        <path class="cls-11" d="M12.2,42.19c.05,0,.17,0,.16-.13a1.3,1.3,0,0,0,0-.25L12,41.56c-.05-.05-.06-.09-.05.09s0,.19,0,.34a.48.48,0,0,0,.25.2" transform="translate(0 0)"></path>
        <path class="cls-12" d="M12.33,41.81a1.77,1.77,0,0,0-.27-.14c-.12-.05-.16-.05-.14-.17s0-.39,0-.49.07-.09.22,0a.54.54,0,0,1,.31.27.31.31,0,0,1,0,.35.69.69,0,0,1-.2.23" transform="translate(0 0)"></path>
        <path class="cls-9" d="M10.44,42.38a.29.29,0,0,0,.1-.28c0-.16-.18-.22-.22-.19l-.06.06.08.12Z" transform="translate(0 0)"></path>
        <path class="cls-10" d="M10.25,42.47s.22,0,.22-.14,0-.17,0-.17l0,0-.15.11,0,.11Z" transform="translate(0 0)"></path>
        <path class="cls-11" d="M10.23,42.46l.08,0,0-.1-.12-.16s0,0,0,0,0,.07,0,.14a.17.17,0,0,0,.08.11" transform="translate(0 0)"></path>
        <path class="cls-12" d="M10.33,42.32l-.1-.09,0-.09.08-.19h.09a.23.23,0,0,1,.1.15c0,.08,0,.11,0,.15Z" transform="translate(0 0)"></path>
        <path class="cls-9" d="M9.77,43.59a1.18,1.18,0,0,0,0-1.22c-.39-.54-.94-.62-1.08-.46a2.09,2.09,0,0,0-.15.3c-.1.2.43.38.43.39Z" transform="translate(0 0)"></path>
        <path class="cls-10" d="M9.16,44.14s.75-.46.66-.77-.17-.68-.17-.68l-.17,0s-.44.48-.44.62,0,.39,0,.45Z" transform="translate(0 0)"></path>
        <path class="cls-11" d="M9.05,44.15c.08,0,.28,0,.27-.22a3.46,3.46,0,0,0-.05-.43l-.62-.44c-.1-.08-.11-.15-.1.17s-.06.33.06.57a.8.8,0,0,0,.44.35" transform="translate(0 0)"></path>
        <path class="cls-12" d="M9.27,43.5a2.88,2.88,0,0,0-.47-.24c-.22-.09-.28-.1-.25-.3s-.06-.67.07-.84S8.74,42,9,42a.9.9,0,0,1,.55.46.52.52,0,0,1,.07.61,1.38,1.38,0,0,1-.34.4" transform="translate(0 0)"></path>
        <path class="cls-13" d="M14,27.62a7.32,7.32,0,0,1-1.36,2.25,5,5,0,0,0-.92,2.31c-.24,1.85.28,3.72-.22,5.55l.09,0c.48-1.78,0-3.61.2-5.42a5.29,5.29,0,0,1,1-2.58,6.52,6.52,0,0,0,1.24-2.11Z" transform="translate(0 0)"></path>
        <path class="cls-13" d="M13.74,28.43a4,4,0,0,1-2.28,4,3.37,3.37,0,0,0-2,2.81,4,4,0,0,0,.65,3.33,3.46,3.46,0,0,1,0,4.63c-.08.09,0,.22.13.13a3.6,3.6,0,0,0,.88-3.2,3.85,3.85,0,0,0-.76-1.51,3.08,3.08,0,0,1-.82-1.65,6.67,6.67,0,0,1,0-1.26A3.38,3.38,0,0,1,10.78,33c.54-.41,1.2-.63,1.72-1.07a4.17,4.17,0,0,0,1.43-3.52c0-.11-.2-.11-.19,0" transform="translate(0 0)"></path>
        <path class="cls-13" d="M13.77,28.31a7.54,7.54,0,0,1-.54,4c-.49.89-1.38,1.53-1.59,2.57a4.75,4.75,0,0,0,.5,2.79A8.21,8.21,0,0,1,13,42.25c0,.12.16.17.18,0a6.82,6.82,0,0,0-.37-3.55c-.48-1.27-1.35-2.64-.92-4,.33-1.12,1.41-1.83,1.8-3A9.28,9.28,0,0,0,14,28.31c0-.12-.19-.12-.18,0" transform="translate(0 0)"></path>
        <path class="cls-13" d="M13.69,28.36c-.82.86-1.79,1.92-1.6,3.22.06.42.29.78.38,1.2a4.85,4.85,0,0,1-.1,1.61,4,4,0,0,0,.17,1.84,1.94,1.94,0,0,1,0,1.53c-.15.28-.36.53-.54.8a1.77,1.77,0,0,0-.36,1.35c.29,1.4,2.06,1.81,2.41,3.19a.09.09,0,0,0,.18-.05c-.31-1.2-1.55-1.61-2.16-2.6-.9-1.46.93-2.15.83-3.54a16.6,16.6,0,0,1-.39-2A12.49,12.49,0,0,0,12.68,33c-.1-.85-.58-1.46-.33-2.36a5.31,5.31,0,0,1,1.47-2.13c.08-.08-.05-.21-.13-.13" transform="translate(0 0)"></path>
        <path class="cls-13" d="M13.89,28.31a4.19,4.19,0,0,0-1,1.33,3.72,3.72,0,0,0-.19,1.69c.13,1.31.7,2.56.53,3.9,0,.11.17.11.19,0A12.23,12.23,0,0,0,13,31.78,4.29,4.29,0,0,1,13,30a3.7,3.7,0,0,1,1-1.52c.08-.08,0-.21-.13-.13" transform="translate(0 0)"></path>
        <path class="cls-13" d="M14,28.22a13.68,13.68,0,0,1-.22,5.14A7.24,7.24,0,0,0,13.4,37a11.17,11.17,0,0,0,1.7,3.17,9.66,9.66,0,0,1,1.68,4.63c0,.12.19.12.18,0a9,9,0,0,0-1.22-4,19,19,0,0,1-2.09-3.66c-.51-1.61.25-3.09.51-4.67a14,14,0,0,0,0-4.33c0-.12-.19-.07-.17,0" transform="translate(0 0)"></path>
        <path class="cls-13" d="M14.48,28.79a5.55,5.55,0,0,0,1,3.18,7,7,0,0,1,1,4.35,40.15,40.15,0,0,1-1.14,4.57A30,30,0,0,0,15,45.33c0,.12.17.12.18,0a27.52,27.52,0,0,1,.49-5,28.51,28.51,0,0,0,1-4,6.23,6.23,0,0,0-.59-3.56c-.63-1.28-1.57-2.47-1.45-4,0-.12-.17-.12-.18,0" transform="translate(0 0)"></path>
        <path class="cls-13" d="M14.78,28.44c.2,1,.94,1.85,1.24,2.85a10.68,10.68,0,0,1,.32,3.38c-.05,1.58-.49,3.65.84,4.85.09.08.22-.05.13-.13-1.44-1.29-.76-3.77-.78-5.47a9.63,9.63,0,0,0-.36-2.77c-.3-1-1-1.77-1.22-2.75,0-.12-.19-.07-.17,0" transform="translate(0 0)"></path>
        <path class="cls-13" d="M15.46,29.79A4.92,4.92,0,0,1,16,32.34a7.39,7.39,0,0,1-1.5,3c-.06.1.09.19.16.1a7.33,7.33,0,0,0,1.53-3.22,5.21,5.21,0,0,0-.52-2.57c0-.11-.2,0-.16.09" transform="translate(0 0)"></path>
        <path class="cls-13" d="M15.71,33.25A3.58,3.58,0,0,1,15.64,35a.09.09,0,0,0,.17.05,3.58,3.58,0,0,0,.07-1.81c0-.12-.2-.07-.17,0" transform="translate(0 0)"></path>
        <path class="cls-13" d="M14.68,28.59c.68,1.05,1.39,2.09,2.06,3.15a6.75,6.75,0,0,1,1,3.54c.05,1.18,0,2.35-.06,3.53a3,3,0,0,0,.6,2.25c.08.09.21,0,.13-.12-.76-.87-.55-2.1-.5-3.15a22.11,22.11,0,0,0-.07-3.64,5.83,5.83,0,0,0-1-2.59c-.66-1-1.34-2-2-3.06-.07-.09-.23,0-.16.09" transform="translate(0 0)"></path>
        <path class="cls-13" d="M14.78,28.78a10.12,10.12,0,0,1,2.53,3,10,10,0,0,1,.79,3.66c.15,2.12.09,4.37,1.34,6.19.06.1.22,0,.15-.09-1.41-2.08-1.12-4.69-1.39-7.06a8.37,8.37,0,0,0-.82-3,10.77,10.77,0,0,0-2.47-2.83c-.09-.07-.22.05-.13.13" transform="translate(0 0)"></path>
        <path class="cls-13" d="M15,28.37a3.71,3.71,0,0,1,1.58,1.81,7.58,7.58,0,0,0,.61,1.51,14.51,14.51,0,0,0,2.2,2.3,5,5,0,0,1,1,1.38,4.43,4.43,0,0,1,.21,2.42c-.15,1.23-.38,2.54.41,3.61.06.09.22,0,.15-.09-1-1.38-.28-3.05-.3-4.59a4.09,4.09,0,0,0-1.38-2.86,10.82,10.82,0,0,1-2.38-2.63,12.35,12.35,0,0,0-.75-1.85,5.15,5.15,0,0,0-1.29-1.17c-.1-.07-.19.09-.1.16" transform="translate(0 0)"></path>
        <path class="cls-13" d="M14.26,28.31l1,1.9a4.86,4.86,0,0,0,1,1.44A6.14,6.14,0,0,0,19,32.74a4.58,4.58,0,0,1,3.1,1.73,6.47,6.47,0,0,1,.59,4.29c0,.12.17.12.18,0a7.36,7.36,0,0,0-.34-3.89,3.75,3.75,0,0,0-2.35-2,17.65,17.65,0,0,1-3.29-1,3.7,3.7,0,0,1-1.4-1.58l-1.07-2.07a.09.09,0,0,0-.16.1" transform="translate(0 0)"></path>
        <path class="cls-13" d="M14.79,28.47c.4.65,1.23.87,1.63,1.53.23.39.36.87.57,1.29a7.34,7.34,0,0,0,.75,1.18,9.15,9.15,0,0,0,.89,1,3,3,0,0,1,.5.51A2.07,2.07,0,0,1,19.39,35,10.69,10.69,0,0,1,19,38.45a.09.09,0,0,0,.18,0,11.09,11.09,0,0,0,.37-3.29,2.51,2.51,0,0,0-.3-1.35,7.58,7.58,0,0,0-.93-1,9.41,9.41,0,0,1-1.67-2.79c-.37-.81-1.29-1-1.73-1.75a.09.09,0,0,0-.16.1" transform="translate(0 0)"></path>
        <path class="cls-13" d="M19.28,34.09a3.65,3.65,0,0,1,.5.67,1.75,1.75,0,0,1,.22.84c0,.61.05,1.22.08,1.82,0,.12.19.12.18,0,0-.67,0-1.34-.09-2A2.63,2.63,0,0,0,19.41,34c-.08-.09-.21,0-.13.13" transform="translate(0 0)"></path>
        <polygon class="cls-14" points="0 25.66 14.86 31.86 28.36 26.14 14.86 21.38 0 25.66"></polygon>
        <path class="cls-15" d="M6.27,10.53c.75.32,1.8.63,2.47.92a6.35,6.35,0,0,1,2.56,2.24,18.26,18.26,0,0,1,1.64,3c.17.35.33.7.49,1.05.53,1.15,1.06,2.29,1.56,3.45l.17-.07c-.5-1.16-1-2.31-1.57-3.46l-.48-1a19.14,19.14,0,0,0-1.66-3.09,6.49,6.49,0,0,0-2.64-2.29c-.69-.31-1.74-.61-2.47-.93Z" transform="translate(0 0)"></path>
        <path class="cls-15" d="M15.36,13.13a2.45,2.45,0,0,1-.43,0,3,3,0,0,1-1.67-.6,4.38,4.38,0,0,1-1.7-3.15l.21.27.76.19,2.56,1.83.37,1.15Z" transform="translate(0 0)"></path>
        <path class="cls-16" d="M14.71,12.34c0,.14.07.27.11.4a2.85,2.85,0,0,0,.11.39,2,2,0,0,1-.22-.79" transform="translate(0 0)"></path>
        <path class="cls-16" d="M14.31,13a3.29,3.29,0,0,1-.42-1.13A5,5,0,0,0,14.31,13" transform="translate(0 0)"></path>
        <path class="cls-16" d="M13.53,12.74c-.15-.42-.29-.85-.42-1.28.15.42.29.85.42,1.28" transform="translate(0 0)"></path>
        <path class="cls-16" d="M12.81,12.11a2.47,2.47,0,0,1-.25-.88,3.85,3.85,0,0,0,.25.88" transform="translate(0 0)"></path>
        <path class="cls-16" d="M12.21,11.36a3.65,3.65,0,0,1-.1-.8c0,.26.07.53.1.8" transform="translate(0 0)"></path>
        <path class="cls-16" d="M15.36,13.13a3,3,0,0,0,0-3l-.07.43c0,.17-.6-.89-.6-1a1.41,1.41,0,0,0-.09.49,3.57,3.57,0,0,1-.53-.84L14,9.67c0,.06-.58-.34-.59-.53s-.05.27,0,.42-.49,0-.7-.42l-.11.41a.67.67,0,0,1-.41-.28c-.08-.18,0,.2,0,.29s-.49,0-.61-.18.15.5.32.68.17,0,.17,0a3.94,3.94,0,0,1,.47.7l0-.31a2.9,2.9,0,0,1,.46.68c0,.18.06-.28.06-.28a3.52,3.52,0,0,1,.46.7l.06-.42s.51.63.51.78l.11-.28s.38.62.35.79.14-.35.12-.41.82.76.67,1.13" transform="translate(0 0)"></path>
        <path class="cls-17" d="M15.56,13.64s0,.18.28.33a3.88,3.88,0,0,0,1.56.18,1.76,1.76,0,0,0-.18-.26,3.13,3.13,0,0,0,1.17-.38,1.7,1.7,0,0,0-.28-.15s.71-.37.87-.48l-.33-.14s.28-.54.42-.56-.19-.21-.26-.18.14-.44.19-.44l-.23-.1.19-.23-.54-.11.06-.28a1.61,1.61,0,0,0-.68.23,2,2,0,0,1-.09-.4c0-.08-.63.45-.72.69a.35.35,0,0,1-.22-.35,1.48,1.48,0,0,0-.4.89l-.18-.16a1.55,1.55,0,0,0-.11.6s-.15,0-.15-.11a4.12,4.12,0,0,0-.37,1.41" transform="translate(0 0)"></path>
        <path class="cls-16" d="M15.84,14a12.6,12.6,0,0,1,1-1.38,3,3,0,0,1,1.38-1,3,3,0,0,0-1.35,1A11.6,11.6,0,0,0,15.84,14" transform="translate(0 0)"></path>
        <path class="cls-16" d="M16.21,13.41a1.45,1.45,0,0,1-.12-.67,1.46,1.46,0,0,0,.2.62Z" transform="translate(0 0)"></path>
        <path class="cls-16" d="M17.89,13.57a5.19,5.19,0,0,1-1.66-.14l0-.09a5,5,0,0,0,1.63.23" transform="translate(0 0)"></path>
        <path class="cls-16" d="M16.72,12.76a1.89,1.89,0,0,1-.19-.76,1.91,1.91,0,0,0,.27.72Z" transform="translate(0 0)"></path>
        <path class="cls-16" d="M18.08,13a2.61,2.61,0,0,1-1.34-.25l0-.08a2.57,2.57,0,0,0,1.3.33" transform="translate(0 0)"></path>
        <path class="cls-16" d="M17.26,12.17a3.72,3.72,0,0,1,.18-.94,3.75,3.75,0,0,0-.09.94Z" transform="translate(0 0)"></path>
        <path class="cls-16" d="M18.63,12.25a5.92,5.92,0,0,1-1.33,0v-.09a5.9,5.9,0,0,0,1.32.12" transform="translate(0 0)"></path>
        <path class="cls-16" d="M15.46,14a2,2,0,0,0-.4-.49l0,.09a1.55,1.55,0,0,0-.66-.3l.06.11a2.09,2.09,0,0,0-.64-.11l.05.14a4.14,4.14,0,0,0-.7,0,.56.56,0,0,1,0,.2,1.61,1.61,0,0,0-.52.25l.15.13a1.34,1.34,0,0,0-.3.5l.25.07s0,.13-.05.16.34.25.46.27a.17.17,0,0,1-.15.07c-.1,0,.29.18.73.19,0,0,0,.13-.08.13a2.56,2.56,0,0,0,.88.11l0,.12a1.44,1.44,0,0,0,.85-.71c.16-.44.21-.54,0-.94" transform="translate(0 0)"></path>
        <path class="cls-18" d="M19.2,8.66s-.34-1.21-.57-1.33a.23.23,0,0,1-.18.2,2.52,2.52,0,0,0-1.14-1.14l.07.33a2.5,2.5,0,0,0-1.81-1s.29.46.27.57-1.2-.51-1.66-.16c0,0,.35.43.32.52a4.53,4.53,0,0,0-1.19.09c-.06.1.36.37.35.49s-.43.24-.69.42l.34.19L13,8s.45.58.69.55c0,0-.09.29-.25.33s.54.27,1.3.27a.74.74,0,0,1-.4.38c-.33.17,1.33.14,1.47.14s-.1.38-.22.38a3.27,3.27,0,0,0,1.75-.31.22.22,0,0,1-.13.26,2.42,2.42,0,0,0,1.06-.27,2.57,2.57,0,0,0,1-1" transform="translate(0 0)"></path>
        <path class="cls-16" d="M19.85,9.06c-.43-.25-.87-.48-1.31-.69a7,7,0,0,0-1.41-.45,10.1,10.1,0,0,0-1.46-.24,12.13,12.13,0,0,0-1.48,0,9.27,9.27,0,0,1,1.49,0,8.17,8.17,0,0,1,1.47.23,7.81,7.81,0,0,1,1.41.48,11,11,0,0,1,1.29.74" transform="translate(0 0)"></path>
        <path class="cls-16" d="M18.2,8.21a1.24,1.24,0,0,0-.35-1.06,1.29,1.29,0,0,1,.44,1.07Z" transform="translate(0 0)"></path>
        <path class="cls-16" d="M16.87,9.38a3,3,0,0,0,.72-.54c.22-.21.42-.43.62-.66l.07.06a7.82,7.82,0,0,1-.66.63,2.93,2.93,0,0,1-.75.51" transform="translate(0 0)"></path>
        <path class="cls-16" d="M17,7.84a2,2,0,0,1-.71.95,4.17,4.17,0,0,1-1,.59,4.84,4.84,0,0,0,1-.62,1.93,1.93,0,0,0,.65-.93Z" transform="translate(0 0)"></path>
        <path class="cls-16" d="M16.42,6.39A2,2,0,0,1,17,7.84h-.09a2,2,0,0,0-.49-1.44" transform="translate(0 0)"></path>
        <path class="cls-16" d="M15.8,7.66A1.3,1.3,0,0,0,15,6.52a1.35,1.35,0,0,1,.85,1.14Z" transform="translate(0 0)"></path>
        <path class="cls-16" d="M14.48,8.73A2.54,2.54,0,0,0,15.8,7.64l.08,0a2.57,2.57,0,0,1-1.4,1.05" transform="translate(0 0)"></path>
        <path class="cls-16" d="M14.89,7.62A1.08,1.08,0,0,0,14.48,7a1.1,1.1,0,0,1,.5.56Z" transform="translate(0 0)"></path>
        <path class="cls-16" d="M14.1,8.39a1.82,1.82,0,0,0,.8-.8l.07,0a1.86,1.86,0,0,1-.87.75" transform="translate(0 0)"></path>
        <path class="cls-18" d="M20.23,8.56S19.33,6,21.17,5l.14.44s.42-1,1-1v.38s.76-.59,1.22-.38l-.22.27s1.1-.27,1.22-.14.06.22,0,.42.39,0,.39,0a4.34,4.34,0,0,1-.39.87c-.09,0,.18,0,.39,0,0,0-.32,1.11-.52,1.21s.36,0,.36,0A2.77,2.77,0,0,1,24,8l.77.06a3.17,3.17,0,0,1-4.51.5" transform="translate(0 0)"></path>
        <path class="cls-16" d="M19.81,9a15,15,0,0,1,1.38-1.5,6.15,6.15,0,0,1,1.65-1.16h0a2.38,2.38,0,0,1,.48-.77A4.77,4.77,0,0,1,24,5a4.79,4.79,0,0,0-.65.62,2.43,2.43,0,0,0-.46.77h0a6,6,0,0,0-1.62,1.18,16,16,0,0,0-1.35,1.5Z" transform="translate(0 0)"></path>
        <path class="cls-16" d="M21.62,7.11A3.83,3.83,0,0,1,22,5.83a2.35,2.35,0,0,1,.87-1h0a2.3,2.3,0,0,0-.83,1,5.65,5.65,0,0,0-.39,1.27Z" transform="translate(0 0)"></path>
        <path class="cls-16" d="M21,7.64a5.14,5.14,0,0,0,2.75-.22A5.21,5.21,0,0,1,21,7.73Z" transform="translate(0 0)"></path>
        <path class="cls-16" d="M21.87,5a2.51,2.51,0,0,0-.65,1.26,6.17,6.17,0,0,0-.15,1.42H21a6.33,6.33,0,0,1,.21-1.43A2.58,2.58,0,0,1,21.87,5" transform="translate(0 0)"></path>
        <path class="cls-16" d="M20.47,8.23A6.36,6.36,0,0,0,22,8.58a3.05,3.05,0,0,0,1.55-.21A3,3,0,0,1,22,8.62a6.42,6.42,0,0,1-1.56-.3Z" transform="translate(0 0)"></path>
        <path class="cls-16" d="M20.64,6.11a2.46,2.46,0,0,0-.2,1.07,8,8,0,0,0,.06,1.09h-.09a8.08,8.08,0,0,1,0-1.1,2.44,2.44,0,0,1,.25-1.07" transform="translate(0 0)"></path>
        <path class="cls-16" d="M22.22,6.71l1.1-.15a5.05,5.05,0,0,0,1.08-.22h0a5,5,0,0,1-1.08.26,10,10,0,0,1-1.1.12Z" transform="translate(0 0)"></path>
        <path class="cls-17" d="M21.44,12.37a1,1,0,0,0,1.73-.11,11,11,0,0,0,1-1.71c0-.11-.21.11-.38.11s0-.1,0-.18a2.59,2.59,0,0,0,.49-1.64s-.42.2-.49.13.22-1-.1-1.51a1.3,1.3,0,0,1-.57.22s-.06-.77-.41-1a.92.92,0,0,1-.3.26s.23,0-.59-.35a1.47,1.47,0,0,1-.19.48s-.31-.21-.34-.33-.12.52-.11.64-.44-.09-.44-.09-.25,1.31.18,1.73a2.36,2.36,0,0,1-.5-.33c-.18-.17.12.89.23,1.06a1.58,1.58,0,0,1-.49,0,2.68,2.68,0,0,0,.73,1.38.71.71,0,0,1-.42,0s.84,1.11,1,1.25" transform="translate(0 0)"></path>
        <path class="cls-16" d="M22.1,7.5a14.62,14.62,0,0,1,.45,2.79,9.55,9.55,0,0,1-.21,2.82,11.11,11.11,0,0,0,.14-2.82A18.71,18.71,0,0,0,22.1,7.5" transform="translate(0 0)"></path>
        <path class="cls-16" d="M22.58,11.59a1,1,0,0,0,.51-.15,3,3,0,0,0,.47-.32,3,3,0,0,1-.44.36,1.18,1.18,0,0,1-.55.2Z" transform="translate(0 0)"></path>
        <path class="cls-16" d="M20.64,10.28a7.57,7.57,0,0,0,.88.82,3.32,3.32,0,0,0,.5.33,1,1,0,0,0,.55.16v.09a1,1,0,0,1-.6-.19,4,4,0,0,1-.49-.35,7.67,7.67,0,0,1-.85-.86" transform="translate(0 0)"></path>
        <path class="cls-16" d="M22.56,10.31a2.34,2.34,0,0,0,1.22-.81,2.42,2.42,0,0,1-1.19.9Z" transform="translate(0 0)"></path>
        <path class="cls-16" d="M20.73,9.26a3.08,3.08,0,0,0,.81.76,1.74,1.74,0,0,0,1,.29v.09a1.84,1.84,0,0,1-1.07-.34,3.29,3.29,0,0,1-.78-.8" transform="translate(0 0)"></path>
        <path class="cls-16" d="M22.5,9.23a1.6,1.6,0,0,0,.7-.83,1.63,1.63,0,0,1-.66.91Z" transform="translate(0 0)"></path>
        <path class="cls-16" d="M21,8.17a2.82,2.82,0,0,0,.62.75,1.11,1.11,0,0,0,.87.3v.1A1.22,1.22,0,0,1,21.61,9,3,3,0,0,1,21,8.17" transform="translate(0 0)"></path>
        <path class="cls-16" d="M22.29,8.36a1,1,0,0,0,.38-.68,1.06,1.06,0,0,1-.33.75Z" transform="translate(0 0)"></path>
        <path class="cls-16" d="M21.44,7.53a1.93,1.93,0,0,0,.35.54.74.74,0,0,0,.53.28v.09a.83.83,0,0,1-.56-.34,2.42,2.42,0,0,1-.31-.57" transform="translate(0 0)"></path>
        <path class="cls-17" d="M23.78,13.76a3,3,0,0,0-2.13,1.15,3.43,3.43,0,0,0,0,2.48s0-.24.45-.38a2.59,2.59,0,0,0,1,1.47,2.45,2.45,0,0,1,0-.61c.06-.11.5.83,1.07.9,0,0-.07-.43,0-.48s.41.54.95.7c0,0-.11-.54,0-.62s.8.36.8.36A1.9,1.9,0,0,0,26,18.2c0-.12.44.24.46.35a6.09,6.09,0,0,0-.14-1.23c-.09-.15.48-.13.5,0a1.85,1.85,0,0,0-.38-1.05c-.35-.31.28-.06.39,0s-.26-.72-1-1.08.51-.14.51-.14a3.47,3.47,0,0,0-2.54-1.29" transform="translate(0 0)"></path>
        <path class="cls-16" d="M22.94,14.43a2,2,0,0,1,1.25-.16,4.59,4.59,0,0,1,1.19.38,4.57,4.57,0,0,0-1.2-.34,1.87,1.87,0,0,0-1.19.2Z" transform="translate(0 0)"></path>
        <path class="cls-16" d="M21.91,16.44a3.17,3.17,0,0,1,.27-1.13,1.86,1.86,0,0,1,.76-.88l0,.08a1.78,1.78,0,0,0-.76.82,3.28,3.28,0,0,0-.31,1.11" transform="translate(0 0)"></path>
        <path class="cls-16" d="M23.61,15.08a1.62,1.62,0,0,1,1.31,0,5,5,0,0,1,1.14.66,4.59,4.59,0,0,0-1.16-.61,1.51,1.51,0,0,0-1.25,0Z" transform="translate(0 0)"></path>
        <path class="cls-16" d="M22.79,17.58a5.1,5.1,0,0,1,.1-1.35,1.78,1.78,0,0,1,.72-1.15l0,.08a1.7,1.7,0,0,0-.71,1.08,4.64,4.64,0,0,0-.15,1.34" transform="translate(0 0)"></path>
        <path class="cls-16" d="M24.18,15.74a1.17,1.17,0,0,1,1,.11,4.6,4.6,0,0,1,.85.59,4.4,4.4,0,0,0-.87-.55,1.08,1.08,0,0,0-1-.07Z" transform="translate(0 0)"></path>
        <path class="cls-16" d="M23.65,17.62a3.81,3.81,0,0,1,0-1,1.21,1.21,0,0,1,.5-.87l0,.08a1.16,1.16,0,0,0-.5.8,3.75,3.75,0,0,0-.07,1" transform="translate(0 0)"></path>
        <path class="cls-16" d="M24.85,16.7a.75.75,0,0,1,.58.21,2.92,2.92,0,0,1,.45.41,3.4,3.4,0,0,0-.47-.38.73.73,0,0,0-.53-.15Z" transform="translate(0 0)"></path>
        <path class="cls-16" d="M24.63,17.94a2.81,2.81,0,0,1-.06-.65,1.77,1.77,0,0,1,.05-.32.44.44,0,0,1,.23-.27l0,.09c-.19.06-.24.31-.26.51a2.75,2.75,0,0,0,0,.64" transform="translate(0 0)"></path>
        <path class="cls-16" d="M22.22,13.79A16,16,0,0,1,24,15.45a6,6,0,0,1,1.28,2,6.77,6.77,0,0,0-1.33-2c-.53-.6-1.1-1.15-1.68-1.7" transform="translate(0 0)"></path>
        <path class="cls-19" d="M28.57,6.34l.56.18s-.12.34-.19.38.15.13.15.13-.46.61-.58.63.15.13.23.1a2.36,2.36,0,0,1-.62.41c-.17,0,.15.11.15.11a2.4,2.4,0,0,1-1,.24c-.46,0,1.3-2.18,1.3-2.18" transform="translate(0 0)"></path>
        <path class="cls-17" d="M26.77,8.56a2.51,2.51,0,0,1,2-2.66,1.06,1.06,0,0,0,0,.37H29a1.47,1.47,0,0,1-.29.69c-.14.12.21.08.21.08a2.46,2.46,0,0,1-.67.72l.27,0a3,3,0,0,1-.77.48c-.22,0,.15.11.15.11s-.77.34-1.1.17" transform="translate(0 0)"></path>
        <path class="cls-15" d="M26.7,8.23s.16.16.75-.91l-.16,0s.5-.83.36-1.07l-.14,0a1.2,1.2,0,0,0-.39-1c-.09-.09-.08.1-.08.1a2.74,2.74,0,0,1-.38-.31l-.07.08A1.3,1.3,0,0,0,26.37,5s-.05.35,0,.4l.12-.13A.9.9,0,0,1,26.6,6s.15.12.22.09,0,.57-.11.68.23.28.23.28a2.84,2.84,0,0,1-.24,1.21" transform="translate(0 0)"></path>
        <path class="cls-16" d="M26.83,7.79,27,7.72l.11-.06a.86.86,0,0,0,.2-.18.86.86,0,0,1-.18.2L27,7.75l-.1,0Z" transform="translate(0 0)"></path>
        <path class="cls-16" d="M26.82,7.09a1.2,1.2,0,0,0,.62-.52,1.3,1.3,0,0,1-.61.57Z" transform="translate(0 0)"></path>
        <path class="cls-16" d="M26.69,6.44a1.27,1.27,0,0,0,.47-.76,1.25,1.25,0,0,1-.45.79Z" transform="translate(0 0)"></path>
        <path class="cls-16" d="M26.5,5.79a2.14,2.14,0,0,0,.21-.43,2,2,0,0,1-.18.46Z" transform="translate(0 0)"></path>
        <path class="cls-19" d="M26.7,8.23A2.63,2.63,0,0,1,26.37,5a1.08,1.08,0,0,0,0,.4l.12-.14A.79.79,0,0,1,26.6,6a.45.45,0,0,0,.24.08,1.27,1.27,0,0,1-.15.75,1.58,1.58,0,0,0,.25.22,2.59,2.59,0,0,1-.24,1.21" transform="translate(0 0)"></path>
        <path class="cls-15" d="M26.57,8.68s.25,0,0-1.28l-.12.13s-.15-1-.43-1.14l-.09.13a1.32,1.32,0,0,0-1-.55c-.13,0,0,.14,0,.14a3,3,0,0,1-.52,0v.12a1.08,1.08,0,0,0-.32,0s.2.32.32.3V6.34a.94.94,0,0,1,.52.52s.21,0,.25-.08.4.47.38.64.39.08.39.08a3.15,3.15,0,0,1,.63,1.18" transform="translate(0 0)"></path>
        <path class="cls-16" d="M26.37,8.22c0-.08.05-.09.06-.15l.06-.13a.86.86,0,0,0,0-.28,1,1,0,0,1,0,.29l0,.14-.06.11Z" transform="translate(0 0)"></path>
        <path class="cls-16" d="M25.89,7.64A1.26,1.26,0,0,0,26,6.78a1.29,1.29,0,0,1-.12.9Z" transform="translate(0 0)"></path>
        <path class="cls-16" d="M25.32,7.19a1.34,1.34,0,0,0-.12-1,1.41,1.41,0,0,1,.17,1Z" transform="translate(0 0)"></path>
        <path class="cls-16" d="M24.72,6.78a2.25,2.25,0,0,0-.13-.51,2.18,2.18,0,0,1,.17.51Z" transform="translate(0 0)"></path>
        <path class="cls-17" d="M26.57,8.68a2.87,2.87,0,0,1-2.49-2.45,1,1,0,0,0,.32.3V6.34c.1,0,.29.07.52.52a.45.45,0,0,0,.26-.1,1.35,1.35,0,0,1,.4.72,1.25,1.25,0,0,0,.36,0,2.83,2.83,0,0,1,.63,1.18" transform="translate(0 0)"></path>
        <path class="cls-18" d="M24.2,13.14s.67-3.65,3.72-4c0,0-.14.74,0,.74s.78-.82,1-.78c0,0,0,.52.09.58s.5-.42,1-.49c0,0-.28.42,0,.62a.93.93,0,0,1,1-.41s-.56.48-.21.66,1,0,1.12.05-1,.74-.4.89,1.09-.14,1.47,0c0,0-1,.45-.63.6s1,0,1.12.06-1.22,1.12.38.85c0,0-4.92,5-9.61.67" transform="translate(0 0)"></path>
        <path class="cls-16" d="M25.52,12.66a4.93,4.93,0,0,1,1.16-2.2,5.07,5.07,0,0,0-1.07,2.21Z" transform="translate(0 0)"></path>
        <path class="cls-16" d="M26.35,13.26A8,8,0,0,1,27,11.55a4.11,4.11,0,0,1,1.18-1.4,4.26,4.26,0,0,0-1.14,1.42,8,8,0,0,0-.64,1.71Z" transform="translate(0 0)"></path>
        <path class="cls-16" d="M27.33,13a5.6,5.6,0,0,1,2.11-2.66,5.69,5.69,0,0,0-2,2.69Z" transform="translate(0 0)"></path>
        <path class="cls-16" d="M28.23,13.36a9.5,9.5,0,0,1,2.54-2.85,9.59,9.59,0,0,0-2.46,2.89Z" transform="translate(0 0)"></path>
        <path class="cls-16" d="M29.55,13.45a14.79,14.79,0,0,0,1.66-1.79,14.06,14.06,0,0,1-1.6,1.85Z" transform="translate(0 0)"></path>
        <path class="cls-16" d="M30.92,13.23a4.65,4.65,0,0,0,1.32-1A4.64,4.64,0,0,1,31,13.31Z" transform="translate(0 0)"></path>
        <path class="cls-17" d="M24.17,13.27a4.05,4.05,0,0,1,2.28-.86s-.2.61-.06.62a8.31,8.31,0,0,1,2.06-.37,1.6,1.6,0,0,0-.18.55c0,.14,1.11-.46,1.71-.42,0,0-.35.57-.07.59s.76-.52,1.35-.54c0,0-.33.62-.05.64s1.11-.56,1.47-.64c0,0-.3.31-.14.43s.93-.48.93-.48-4.73,4.48-9.3.48" transform="translate(0 0)"></path>
        <path class="cls-16" d="M24.54,13.57a6,6,0,0,0,1.37-.68,2.62,2.62,0,0,1-.63.46,1.92,1.92,0,0,1-.74.22" transform="translate(0 0)"></path>
        <path class="cls-16" d="M25.75,14.26a5.41,5.41,0,0,0,1-.37,2.53,2.53,0,0,0,.86-.62,1.93,1.93,0,0,1-.82.7,3.43,3.43,0,0,1-1,.29" transform="translate(0 0)"></path>
        <path class="cls-16" d="M26.68,14.7A10.46,10.46,0,0,0,28,14.18a3.3,3.3,0,0,0,1.18-.8,2.67,2.67,0,0,1-1.14.88,6.24,6.24,0,0,1-1.39.44" transform="translate(0 0)"></path>
        <path class="cls-16" d="M28.55,14.93a7.89,7.89,0,0,0,1.15-.61,4.41,4.41,0,0,0,1-.84,3.14,3.14,0,0,1-.94.91,4.8,4.8,0,0,1-1.2.54" transform="translate(0 0)"></path>
        <path class="cls-15" d="M26.6,8.23c0,2.16-2.05,3.49-3.34,4.26a40.87,40.87,0,0,0-3.62,2.09,17.5,17.5,0,0,0-3,2.84C15.42,18.85,15,19.61,15,20.77a4.15,4.15,0,0,0,0,.49l.18,0a3.77,3.77,0,0,1,0-.47c0-1.1.39-1.8,1.58-3.23a17.47,17.47,0,0,1,3-2.82,40.83,40.83,0,0,1,3.61-2.07c1.28-.78,3.4-2.13,3.43-4.42Z" transform="translate(0 0)"></path>
        <path class="cls-15" d="M24.25,13.08c-.4.14-.87.16-1.31.32-4,1.46-7.55,5.08-7.93,7.84l.18,0c.34-2.64,3.89-6.27,7.81-7.69.41-.15.87-.16,1.32-.32Z" transform="translate(0 0)"></path>
        <path class="cls-15" d="M15.18,12.92a7.44,7.44,0,0,1,.51,2.72,6.06,6.06,0,0,1-.31,2,8.71,8.71,0,0,1-.48,1.13,2,2,0,0,0-.21.91A15.28,15.28,0,0,0,15,21.2v0l.18,0h0c0-.42-.3-.93-.3-1.53a1.8,1.8,0,0,1,.2-.83,11.61,11.61,0,0,0,.48-1.15,6.16,6.16,0,0,0,.32-2.05,7.86,7.86,0,0,0-.52-2.79Z" transform="translate(0 0)"></path>
        <path class="cls-15" d="M8.44,15.68a1.56,1.56,0,0,1,.67-.15,1.62,1.62,0,0,1,1.14.46c.14.14.26.32.42.47a4.23,4.23,0,0,0,.91.58,5.08,5.08,0,0,1,1.21.95A12.76,12.76,0,0,1,15,21.24l.17-.07a13.23,13.23,0,0,0-2.24-3.31,5.42,5.42,0,0,0-1.25-1,3.86,3.86,0,0,1-.88-.55c-.14-.14-.26-.31-.41-.47a1.79,1.79,0,0,0-1.27-.52,1.75,1.75,0,0,0-.75.17Z" transform="translate(0 0)"></path>
        <path class="cls-15" d="M8.8,17.74c.58-.3,1.21-.9,1.82-.9h0a1.94,1.94,0,0,1,.6.07,4.17,4.17,0,0,1,.58.27l.24.14.08,0,.06,0h0V17.3L12,17.17l0,.08.13.09,0,0h0l0,0h0v0l0,0h0l0,0,0,0h0l0,0,0,0v0h0l0,0v0h0v0s-.18-.1-.37-.2a5.68,5.68,0,0,0-.57-.27,1.91,1.91,0,0,0-.63-.07h0c-.67,0-1.29.63-1.86.91Z" transform="translate(0 0)"></path>
        <path class="cls-15" d="M10.93,17.91a1.07,1.07,0,0,1-.15-.52l0-.12a.44.44,0,0,1,.36-.19h0a3.6,3.6,0,0,1,1,.36l.07-.17a3.89,3.89,0,0,0-1.06-.38h-.06a.62.62,0,0,0-.49.28.36.36,0,0,0,0,.21,1.15,1.15,0,0,0,.19.63Z" transform="translate(0 0)"></path>
        <path class="cls-15" d="M10.91,16.77a1.47,1.47,0,0,0-.81.62,1.43,1.43,0,0,0-.21.72,4.11,4.11,0,0,0,.27,1h.1a3.59,3.59,0,0,1-.27-1,1.28,1.28,0,0,1,.19-.68,1.46,1.46,0,0,1,.75-.57Z" transform="translate(0 0)"></path>
        <path class="cls-15" d="M32.16,4.06a8.73,8.73,0,0,1-2.71,3,8.6,8.6,0,0,0-1.4,1.14c-1.2,1.12-2.56,2.93-3.93,3.75l.1.16c1.42-.85,2.77-2.68,4-3.77a7.57,7.57,0,0,1,1.36-1.12,9,9,0,0,0,2.78-3.06Z" transform="translate(0 0)"></path>
        <path class="cls-15" d="M31,6a.84.84,0,0,1,.53-.17c.26,0,.58.07,1,.07a3.32,3.32,0,0,0,.67-.06l0-.18a3,3,0,0,1-.64.06c-.4,0-.71-.07-1-.07a1.05,1.05,0,0,0-.64.2Z" transform="translate(0 0)"></path>
        <path class="cls-15" d="M29.15,7.47a7.36,7.36,0,0,0,.7-.55c.44-.42.55-1,.56-2.2h-.19c0,1.15-.12,1.71-.49,2.07-.09.09-.58.46-.68.53Z" transform="translate(0 0)"></path>
        <path class="cls-17" d="M6.94,8.71A2.31,2.31,0,0,0,8,10.29a1.29,1.29,0,0,0,.42.12,1.49,1.49,0,0,0,1.14-.22,4.36,4.36,0,0,0,1.31-1.42l-.44.12a3.61,3.61,0,0,0,.65-1.38s-.47.11-.61.12S11,6.8,11,6.46a4.19,4.19,0,0,1-.53.17,1.41,1.41,0,0,0,.37-.9,2.24,2.24,0,0,1-.43.2,3.74,3.74,0,0,0,0-.84l-.35.2A1.71,1.71,0,0,0,10,4.83a3.71,3.71,0,0,1-.41.45s-.21-.1-.2-.25-.36.2-.32.53a.3.3,0,0,1-.38-.27s-.56.65-.45,1.13a.43.43,0,0,1-.41-.23A2.34,2.34,0,0,0,7.71,7.4s-.39.08-.47-.13A2.74,2.74,0,0,0,7.38,8.8a.35.35,0,0,1-.44-.09" transform="translate(0 0)"></path>
        <path class="cls-16" d="M10.51,8a4.18,4.18,0,0,1-1,.87,2.18,2.18,0,0,1-1.27.35V9.1a2.21,2.21,0,0,0,1.25-.3,4.08,4.08,0,0,0,1-.83" transform="translate(0 0)"></path>
        <path class="cls-16" d="M8.31,11.12A3.59,3.59,0,0,1,8.12,9.7a6.88,6.88,0,0,1,.33-1.41A9.56,9.56,0,0,1,9,7,11.82,11.82,0,0,1,9.69,5.7,22.74,22.74,0,0,0,8.52,8.32,6.08,6.08,0,0,0,8.17,9.7a3.59,3.59,0,0,0,.14,1.42" transform="translate(0 0)"></path>
        <path class="cls-16" d="M10.21,9.15a2.3,2.3,0,0,1-.93.69A1.93,1.93,0,0,1,8.14,10h0A2.42,2.42,0,0,0,9.27,9.8a2.35,2.35,0,0,0,.94-.65Z" transform="translate(0 0)"></path>
        <path class="cls-16" d="M7.39,9.15a1.79,1.79,0,0,0,.35.43,2.77,2.77,0,0,0,.4.36,1.84,1.84,0,0,1-.75-.79" transform="translate(0 0)"></path>
        <path class="cls-16" d="M7.56,8.06a2.38,2.38,0,0,0,.23.63.69.69,0,0,0,.46.41l0,.09a.76.76,0,0,1-.48-.48,2.54,2.54,0,0,1-.19-.65" transform="translate(0 0)"></path>
        <path class="cls-16" d="M8.57,8a1.92,1.92,0,0,0,1.71-.8,2,2,0,0,1-1.71.89Z" transform="translate(0 0)"></path>
        <path class="cls-16" d="M7.9,7a2.4,2.4,0,0,0,.21.64A.58.58,0,0,0,8.58,8V8.1a.67.67,0,0,1-.5-.46A2.57,2.57,0,0,1,7.9,7" transform="translate(0 0)"></path>
        <path class="cls-16" d="M8.8,7.41a3,3,0,0,1-.11-1.54,3,3,0,0,0,.19,1.51Z" transform="translate(0 0)"></path>
        <path class="cls-16" d="M10.28,6.39a1.2,1.2,0,0,1-.57.7,2.69,2.69,0,0,1-.86.35l0-.09a2.38,2.38,0,0,0,.86-.3,1.19,1.19,0,0,0,.59-.66" transform="translate(0 0)"></path>
        <path class="cls-16" d="M9.28,6.42a1.09,1.09,0,0,0,.84-.66,1.12,1.12,0,0,1-.84.73Z" transform="translate(0 0)"></path>
        <path class="cls-16" d="M9.13,5.7a.78.78,0,0,0,.17.73l0,.05a.77.77,0,0,1-.13-.78" transform="translate(0 0)"></path>
        <path class="cls-17" d="M4.58,11.23s1.66.07,2.09-.67a.8.8,0,0,0,.09-.26,4.1,4.1,0,0,0,0-1.59s-.08.3-.19.35A2.91,2.91,0,0,0,6,7.4s-.08.39-.24.47A1.86,1.86,0,0,0,4.58,6.31s.15.5,0,.58a3.31,3.31,0,0,0-1.46-1,2.18,2.18,0,0,1,.13.58A8.63,8.63,0,0,0,2.31,6l-.17.63-.6-.09s.15.35.17.44L1.23,7S1.91,8.18,2.3,8.35l-.9.2h0A16.6,16.6,0,0,0,2.8,9.68s-.78.25-.89.26a3.15,3.15,0,0,0,2.67,1.29" transform="translate(0 0)"></path>
        <path class="cls-16" d="M2.16,7.15a13.92,13.92,0,0,0,2,2.06,6,6,0,0,0,2.51,1.34h0a3.69,3.69,0,0,1-1.37-.45,7.09,7.09,0,0,1-1.19-.84,13.58,13.58,0,0,1-2-2.12Z" transform="translate(0 0)"></path>
        <path class="cls-16" d="M5,7.33a3.44,3.44,0,0,1-.24,2A1.51,1.51,0,0,1,4,10a1.71,1.71,0,0,1-1,.08A2,2,0,0,0,4,10a1.45,1.45,0,0,0,.68-.68A2.84,2.84,0,0,0,5,8.34a5.69,5.69,0,0,0,0-1" transform="translate(0 0)"></path>
        <path class="cls-16" d="M6,8.28A3.67,3.67,0,0,1,5.81,10a1.68,1.68,0,0,1-.53.68,1.3,1.3,0,0,1-.81.21,1.54,1.54,0,0,0,.78-.26,1.52,1.52,0,0,0,.47-.67A4.27,4.27,0,0,0,6,8.28" transform="translate(0 0)"></path>
        <path class="cls-16" d="M4,7.21A2.77,2.77,0,0,1,4.1,8a1.82,1.82,0,0,1-.16.76.77.77,0,0,1-.62.44A1.65,1.65,0,0,1,2.56,9a2.16,2.16,0,0,0,.75.1.72.72,0,0,0,.55-.42A2.75,2.75,0,0,0,4,7.21" transform="translate(0 0)"></path>
        <path class="cls-16" d="M3,8.13c0-.05,0-.23,0-.34A1.72,1.72,0,0,0,3,7.4a1.4,1.4,0,0,0-.38-.68,1.39,1.39,0,0,1,.42.67,1.76,1.76,0,0,1,.07.4,1.41,1.41,0,0,1,0,.2v.1s0,.06-.07.13Z" transform="translate(0 0)"></path>
        <path class="cls-16" d="M1.81,7.64A1.45,1.45,0,0,0,3,8.13v.09a1.47,1.47,0,0,1-1.22-.58" transform="translate(0 0)"></path>
        <path class="cls-17" d="M8.24,12.58s.08-1.75-2.2-1.23l.21.2A2.8,2.8,0,0,0,5,11.87l.42.12s-1.22.62-1.43,1.2l.64.06A2,2,0,0,0,4,14.74s.27-.18.35-.15-.42.95-.11,1.35c0,0,.17-.32.34-.34,0,0,0,.56.07.67s.12-.42.26-.44.15.22.09.36.65-.4.76-.81c0,0,.15.31.09.45s1-.85,1-1.08c0,0,.15.24.11.35s.95-.62.83-1.16c0,0,.18.14.13.28a6.94,6.94,0,0,0,.34-1.64" transform="translate(0 0)"></path>
        <path class="cls-16" d="M4.45,15.19c.2-.44.41-.86.65-1.28a6.31,6.31,0,0,1,.82-1.17A4.63,4.63,0,0,1,7,11.81a4,4,0,0,1,1.3-.58A4.71,4.71,0,0,0,7,11.84,4.53,4.53,0,0,0,6,12.78a12.55,12.55,0,0,0-1.52,2.41" transform="translate(0 0)"></path>
        <path class="cls-16" d="M6.62,12.14a2.56,2.56,0,0,0-1.1-.24,2.63,2.63,0,0,1,1.14.16Z" transform="translate(0 0)"></path>
        <path class="cls-16" d="M7.09,14.33A11.11,11.11,0,0,0,7,13.17a3.61,3.61,0,0,0-.12-.57.81.81,0,0,0-.27-.46l0-.08a.87.87,0,0,1,.3.52,5.81,5.81,0,0,1,.09.58,9.15,9.15,0,0,1,0,1.17" transform="translate(0 0)"></path>
        <path class="cls-16" d="M5.69,13a5.51,5.51,0,0,0-.9-.1,5.53,5.53,0,0,1,.91,0Z" transform="translate(0 0)"></path>
        <path class="cls-16" d="M6,15.33a8.75,8.75,0,0,0,0-1.25A3.38,3.38,0,0,0,6,13.45a.73.73,0,0,0-.27-.5l0-.08a.79.79,0,0,1,.3.57,3.35,3.35,0,0,1,.05.63A10.38,10.38,0,0,1,6,15.33" transform="translate(0 0)"></path>
        <path class="cls-16" d="M5.31,13.68a.7.7,0,0,0-.45.14,1.75,1.75,0,0,0-.39.33,1.58,1.58,0,0,1,.36-.37.71.71,0,0,1,.5-.18Z" transform="translate(0 0)"></path>
        <path class="cls-16" d="M5.49,14.65a2.35,2.35,0,0,0,0-.53.56.56,0,0,0-.2-.44l0-.08a.62.62,0,0,1,.2.52,3.07,3.07,0,0,1,0,.53" transform="translate(0 0)"></path>
        <path class="cls-15" d="M19.28,6.14a10.2,10.2,0,0,1,.48,3.2c0,.28,0,.56,0,.82a6.62,6.62,0,0,1-1.08,3.42c-.11.16-1,1.32-1.8,2.6A13.92,13.92,0,0,0,15,19.55a4.42,4.42,0,0,0-.12.95,2.84,2.84,0,0,0,.1.73l.17,0a3,3,0,0,1-.09-.69,4.91,4.91,0,0,1,.11-.92A14.33,14.33,0,0,1,17,16.28c.84-1.28,1.69-2.43,1.8-2.59a7,7,0,0,0,1.12-3.52c0-.26,0-.54,0-.83a10.29,10.29,0,0,0-.49-3.26Z" transform="translate(0 0)"></path>
        <path class="cls-18" d="M19.63,6.45s.66-.12,1.26-1.39a.69.69,0,0,1-.33,0,1.91,1.91,0,0,0,.56-1.78,2.08,2.08,0,0,1-.29.27,5.19,5.19,0,0,0-.06-1.24s-.21.35-.37.41c0,0,0-1.24-.21-1.37,0,0-.29.45-.39.46S19.88.94,19.55.7a4.25,4.25,0,0,1-.35.61c-.09.08,0-.89-.4-1.13a2.26,2.26,0,0,1-.23.49s-.2-.62-.32-.67-.09.34-.2.41A1.5,1.5,0,0,0,17.56,0a2.52,2.52,0,0,1-.17.55,2.73,2.73,0,0,0-.7-.41,6.07,6.07,0,0,1,.09.62s.09.18-.16.14L16.11.84s.26.53.31.62l-.58-.05a4.32,4.32,0,0,0,.52.85c.28.26-.08.17-.11.17a2,2,0,0,1-.62-.23c0-.08.48.86.48.86a.87.87,0,0,1-.48,0c-.18-.09.24.53.29.6s.35.5.35.5.13.15.05.15-.52-.17-.48-.09.82.75.76.83-.57,0-.49.09a8.77,8.77,0,0,0,1.14,1,4.76,4.76,0,0,0,1.59.44c.82.05.79-.07.79-.07" transform="translate(0 0)"></path>
        <path class="cls-16" d="M17.35,1.31a14.91,14.91,0,0,1,1.24,2.5c.32.87.64,1.75.88,2.64-.32-.87-.61-1.75-1-2.61-.16-.43-.34-.86-.53-1.28a12.1,12.1,0,0,0-.62-1.25" transform="translate(0 0)"></path>
        <path class="cls-16" d="M19.36,6.15a10.78,10.78,0,0,1-2.19-.45,11,11,0,0,0,2.19.36Z" transform="translate(0 0)"></path>
        <path class="cls-16" d="M20.73,4.45a5.76,5.76,0,0,1-1.34,1.69l-.06-.07a5.71,5.71,0,0,0,1.4-1.62" transform="translate(0 0)"></path>
        <path class="cls-16" d="M19.08,5.32a5.35,5.35,0,0,1-2.39-.6,5.33,5.33,0,0,0,2.39.51Z" transform="translate(0 0)"></path>
        <path class="cls-16" d="M20.23,3.88a2.12,2.12,0,0,1-.48.78,6.55,6.55,0,0,1-.64.65l-.06-.07a6.47,6.47,0,0,0,.67-.61,2.27,2.27,0,0,0,.51-.75" transform="translate(0 0)"></path>
        <path class="cls-16" d="M18.83,4.63a5.52,5.52,0,0,1-1.29-.31,3.24,3.24,0,0,1-1.12-.69,4.07,4.07,0,0,0,2.42.9Z" transform="translate(0 0)"></path>
        <path class="cls-16" d="M19.77,3a3.07,3.07,0,0,1-.91,1.61l-.06-.07a3.06,3.06,0,0,0,1-1.54" transform="translate(0 0)"></path>
        <path class="cls-16" d="M18.57,3.93a3.16,3.16,0,0,1-2.15-1,3.13,3.13,0,0,0,2.15.92Z" transform="translate(0 0)"></path>
        <path class="cls-16" d="M19.47,2A1.88,1.88,0,0,1,19.23,3a4.18,4.18,0,0,1-.63.9l-.07-.07A3.88,3.88,0,0,0,19.19,3a1.91,1.91,0,0,0,.28-1" transform="translate(0 0)"></path>
        <path class="cls-16" d="M18.2,3.05a3.87,3.87,0,0,1-.93-.41A2,2,0,0,1,16.53,2a1.88,1.88,0,0,0,.76.64,4.4,4.4,0,0,0,.93.37Z" transform="translate(0 0)"></path>
        <path class="cls-16" d="M18.63,1.16a4.51,4.51,0,0,1,0,1,2.21,2.21,0,0,1-.35.91L18.17,3a2.14,2.14,0,0,0,.37-.86,4.4,4.4,0,0,0,.09-1" transform="translate(0 0)"></path>
        <path class="cls-16" d="M17.81,2.17a2,2,0,0,1-1.16-.86,2,2,0,0,0,1.17.77Z" transform="translate(0 0)"></path>
        <path class="cls-16" d="M18.24,1a3.62,3.62,0,0,1-.39,1.19l-.08,0A3.36,3.36,0,0,0,18.24,1" transform="translate(0 0)"></path>
        <path class="cls-13" d="M15.12,22.68c0-.54.14-.75-.32-1a1.7,1.7,0,0,1-.61-.94,6,6,0,0,0-.42-1.26s.5.54.83.84.41.89.48.92.23-.57.55-1.06a1.56,1.56,0,0,1,.69-.61s-.76.84-.73,1.3c.11,1.26.15,2.18.15,2.75a16.34,16.34,0,0,0,.45,1.6c0,.19-1.31.67-1.34-.07,0,0-.33-.11,0-.54a4.8,4.8,0,0,0,.24-1.9" transform="translate(0 0)"></path>
        <path class="cls-13" d="M15.12,22.68h0v-.13c0-.14,0-.26,0-.37a.57.57,0,0,0-.35-.57,1.59,1.59,0,0,1-.58-.91,6,6,0,0,0-.43-1.27l0,0,0,0s.5.53.83.84a1.32,1.32,0,0,1,.33.54c0,.09.06.17.08.24a.25.25,0,0,0,.08.14h0l.07,0c.09-.13.25-.62.52-1a1.62,1.62,0,0,1,.45-.48l.15-.09.06,0v-.05l0,0s-.73.8-.73,1.29v0c.11,1.27.14,2.19.15,2.75a3,3,0,0,0,.23.92,3.7,3.7,0,0,1,.22.66h0s-.11.11-.27.18a1.62,1.62,0,0,1-.54.11c-.25,0-.42-.08-.44-.35v0l0,0h0a.14.14,0,0,1-.09-.15.46.46,0,0,1,.15-.31,1.61,1.61,0,0,0,.17-.58A6.49,6.49,0,0,0,15.17,23a2.62,2.62,0,0,0,0-.28h-.09a2.72,2.72,0,0,1,0,.28A6.45,6.45,0,0,1,15,24a1.74,1.74,0,0,1-.15.53.64.64,0,0,0-.18.37.26.26,0,0,0,.17.24l0,0h0a.47.47,0,0,0,.53.45,1.59,1.59,0,0,0,.58-.13c.17-.08.29-.14.32-.24v0a3.85,3.85,0,0,0-.23-.69,3,3,0,0,1-.22-.89c0-.57,0-1.49-.15-2.76v0A1.63,1.63,0,0,1,16,20a5.15,5.15,0,0,1,.36-.46l.12-.13-.17.06a1.58,1.58,0,0,0-.71.63,4.89,4.89,0,0,0-.37.71l-.11.25,0,.07h0l0,0v0h0l0,0v0h0v0h0v0a2.12,2.12,0,0,0-.46-.88c-.33-.3-.83-.84-.83-.84l-.2-.21.13.26a6.4,6.4,0,0,1,.42,1.24,1.72,1.72,0,0,0,.62,1c.28.17.31.29.31.49s0,.22,0,.37v.13Z" transform="translate(0 0)"></path>
        <path class="cls-17" d="M30.41,5.3a1.2,1.2,0,0,0-1.35-.2s.7-.09.92.13a1.24,1.24,0,0,0-1,.61s1-.51,1.15-.34c0,0,.29.14,0,1,0,0,.26-.12.35-.89,0,0,.55.38.54.85a1.15,1.15,0,0,0-.27-1,.75.75,0,0,1,.63.59s.14-.79-.56-.85c0,0-.3.22-.44.11" transform="translate(0 0)"></path>
      </g>
      <g class="cls-20">
        <rect class="cls-21" x="30.43" y="4.81" width="1.44" height="0.92" transform="translate(-0.44 5.08) rotate(-9.25)"></rect>
      </g>
      <g class="cls-22">
        <rect class="cls-23" x="29.44" y="3.13" width="1.79" height="1.9" transform="translate(-0.26 4.93) rotate(-9.25)"></rect>
      </g>
      <g class="cls-24">
        <rect class="cls-25" x="28.96" y="3.43" width="1.25" height="1.53" transform="matrix(0.99, -0.16, 0.16, 0.99, -0.29, 4.81)"></rect>
      </g>
      <g class="cls-26">
        <rect class="cls-27" x="30.32" y="3.89" width="1.6" height="1.18" transform="translate(-0.32 5.06) rotate(-9.25)"></rect>
      </g>
      <g class="cls-28">
        <rect class="cls-29" x="29.15" y="4.43" width="1.68" height="1.21" transform="translate(-0.42 4.89) rotate(-9.25)"></rect>
      </g>
      <g class="cls-2">
        <path class="cls-30" d="M30,4.57c0-.06.21-.06.39,0s.27.28.24.34-.2,0-.38,0S30,4.63,30,4.57" transform="translate(0 0)"></path>
        <path class="cls-16" d="M34.15,4.83a.93.93,0,0,0-1,.86s.5.12,1-.86" transform="translate(0 0)"></path>
      </g>
      <g class="cls-2">
        <path class="cls-17" d="M34.36,6.15a9.53,9.53,0,0,0-1.15-.5c-.15,0,.18.89,1.15.5" transform="translate(0 0)"></path>
        <path class="cls-18" d="M33.17,5.72s0-.91.75-1.06c0,0-.08,1-.75,1.06" transform="translate(0 0)"></path>
        <path class="cls-16" d="M9.14,18.4a.93.93,0,0,0,.44-1.21s-.5.13-.44,1.21" transform="translate(0 0)"></path>
      </g>
      <g class="cls-31">
        <rect class="cls-32" x="8" y="16.81" width="1.88" height="1.88" transform="translate(-8.85 8.89) rotate(-36.79)"></rect>
      </g>
      <g class="cls-2">
        <path class="cls-17" d="M8.33,17.34a8.82,8.82,0,0,0,1.24-.11c.14-.07-.57-.69-1.24.11" transform="translate(0 0)"></path>
        <path class="cls-18" d="M9.58,17.16s.42.8-.16,1.28c0,0-.4-.91.16-1.28" transform="translate(0 0)"></path>
        <path class="cls-16" d="M11.89,18.81a.91.91,0,0,0-1-.85s-.07.51,1,.85" transform="translate(0 0)"></path>
      </g>
      <g class="cls-33">
        <polygon class="cls-34" points="12.29 19.44 10.42 19.93 9.96 18.2 11.84 17.71 12.29 19.44"></polygon>
      </g>
      <g class="cls-2">
        <path class="cls-17" d="M10.61,19.16A9.31,9.31,0,0,0,11,18c0-.16-.87.27-.37,1.18" transform="translate(0 0)"></path>
        <path class="cls-18" d="M10.91,17.94s.9-.09,1.13.63c0,0-1,0-1.13-.63" transform="translate(0 0)"></path>
        <path class="cls-16" d="M32.21,2.93a.93.93,0,0,0,0,1.29s.43-.28,0-1.29" transform="translate(0 0)"></path>
      </g>
      <g class="cls-2">
        <path class="cls-17" d="M33.32,3.68a9.13,9.13,0,0,0-1.15.5c-.11.1.77.48,1.15-.5" transform="translate(0 0)"></path>
        <path class="cls-18" d="M32.19,4.25s-.65-.63-.26-1.27c0,0,.67.74.26,1.27" transform="translate(0 0)"></path>
        <path class="cls-16" d="M7.83,16.67a.91.91,0,0,0,.6-1.13s-.51.06-.6,1.13" transform="translate(0 0)"></path>
      </g>
      <g class="cls-35">
        <rect class="cls-36" x="6.76" y="15.08" width="1.9" height="1.88" transform="translate(-6.74 5.66) rotate(-28.65)"></rect>
      </g>
      <g class="cls-2">
        <path class="cls-17" d="M7.18,15.51a8.9,8.9,0,0,0,1.25.07c.14-.05-.48-.77-1.25-.07" transform="translate(0 0)"></path>
        <path class="cls-18" d="M8.44,15.5s.3.86-.34,1.26c0,0-.27-1,.34-1.26" transform="translate(0 0)"></path>
      </g>
      <g class="cls-37">
        <rect class="cls-38" x="8.43" y="17.36" width="2.01" height="1.9" transform="translate(-7.82 7.06) rotate(-29.63)"></rect>
      </g>
      <g class="cls-39">
        <rect class="cls-40" x="8.53" y="18.96" width="2.42" height="2.3" transform="matrix(0.84, -0.54, 0.54, 0.84, -9.31, 8.43)"></rect>
      </g>
      <g class="cls-41">
        <rect class="cls-42" x="9.03" y="18.3" width="2.49" height="2.38" transform="translate(-8.89 8.62) rotate(-32.64)"></rect>
      </g>
      <g class="cls-43">
        <rect class="cls-44" x="7.64" y="18.17" width="2.41" height="2.58" transform="translate(-9.1 7.85) rotate(-32.64)"></rect>
      </g>
      <g class="cls-45">
        <rect class="cls-46" x="9.6" y="17.59" width="1.69" height="1.69" transform="translate(-10.31 14.13) rotate(-48.73)"></rect>
      </g>
      <g class="cls-2">
        <path class="cls-30" d="M9.5,18.72a.45.45,0,0,0-.13.63.44.44,0,0,0,.62.13.45.45,0,0,0,.14-.62.47.47,0,0,0-.63-.14" transform="translate(0 0)"></path>
        <path class="cls-9" d="M14,28.2a.42.42,0,0,0-.39-.15c-.22.07-.31.24-.27.31l.08.08.18-.1Z" transform="translate(0 0)"></path>
        <path class="cls-10" d="M14.07,28.46s-.07-.3-.18-.3a1.67,1.67,0,0,1-.24,0l0,.05.15.22.15,0Z" transform="translate(0 0)"></path>
        <path class="cls-11" d="M14.06,28.5a.08.08,0,0,0-.05-.12l-.14,0-.21.16s-.06,0,0,0,.1.06.2.05a.33.33,0,0,0,.16-.11" transform="translate(0 0)"></path>
        <path class="cls-12" d="M13.87,28.35l-.13.13-.12.05-.27-.12c0-.06,0-.05,0-.13a.4.4,0,0,1,.21-.13.19.19,0,0,1,.21.05Z" transform="translate(0 0)"></path>
        <path class="cls-9" d="M13.06,23.14a.61.61,0,0,0-.61-.09c-.3.17-.37.44-.3.52l.15.09c.09.06.21-.19.22-.19Z" transform="translate(0 0)"></path>
        <path class="cls-10" d="M13.3,23.48s-.19-.4-.35-.37a3.13,3.13,0,0,1-.35,0l0,.09s.22.24.29.25l.23,0Z" transform="translate(0 0)"></path>
        <path class="cls-11" d="M13.3,23.54s0-.15-.1-.15a1.39,1.39,0,0,0-.22,0l-.26.29s-.07,0,.08.05.17.06.3,0a.43.43,0,0,0,.2-.2" transform="translate(0 0)"></path>
        <path class="cls-12" d="M13,23.39a1.77,1.77,0,0,0-.14.22c-.06.11-.07.14-.17.11s-.34,0-.42-.09-.08-.06,0-.19a.49.49,0,0,1,.26-.25.29.29,0,0,1,.31,0,.65.65,0,0,1,.18.2" transform="translate(0 0)"></path>
        <path class="cls-9" d="M11.85,25a2.11,2.11,0,0,0-2.14.13c-.88.77-.93,1.76-.63,2a3.63,3.63,0,0,0,.56.22c.36.14.59-.81.61-.82Z" transform="translate(0 0)"></path>
        <path class="cls-10" d="M12.92,26s-.93-1.25-1.47-1a11.29,11.29,0,0,1-1.15.39l0,.32s.92.69,1.17.66.68-.1.79-.1a5.58,5.58,0,0,0,.7-.24" transform="translate(0 0)"></path>
        <path class="cls-11" d="M13,26.18c0-.14-.07-.5-.44-.45a5.22,5.22,0,0,0-.74.16s-.55,1-.68,1.17-.23.21.31.14.6.06,1-.19a1.4,1.4,0,0,0,.54-.83" transform="translate(0 0)"></path>
        <path class="cls-12" d="M11.78,25.89a6.88,6.88,0,0,0-.35.87c-.11.4-.12.51-.48.49s-1.17.21-1.49,0-.31-.18-.22-.64a1.66,1.66,0,0,1,.72-1A.93.93,0,0,1,11,25.36a2.49,2.49,0,0,1,.76.53" transform="translate(0 0)"></path>
        <path class="cls-9" d="M16.2,25.26a1.82,1.82,0,0,0-1.86,0c-.81.61-.91,1.47-.66,1.67a2.49,2.49,0,0,0,.46.22c.31.14.56-.66.58-.67Z" transform="translate(0 0)"></path>
        <path class="cls-10" d="M17.08,26.19s-.74-1.15-1.22-1-1,.28-1,.28l-.05.27s.76.65,1,.65.6,0,.69,0a6,6,0,0,0,.63-.17" transform="translate(0 0)"></path>
        <path class="cls-11" d="M17.1,26.36c0-.13,0-.44-.36-.42a4.85,4.85,0,0,0-.65.09s-.54.84-.66,1-.21.17.27.14.51.08.88-.11a1.21,1.21,0,0,0,.52-.68" transform="translate(0 0)"></path>
        <path class="cls-12" d="M16.09,26a5.41,5.41,0,0,0-.35.74c-.13.33-.14.43-.45.39s-1,.12-1.3-.08-.25-.17-.15-.57a1.5,1.5,0,0,1,.68-.85.84.84,0,0,1,1-.13,2.23,2.23,0,0,1,.62.5" transform="translate(0 0)"></path>
        <path class="cls-9" d="M19,24.14a2,2,0,0,0-2-.26c-.94.55-1.16,1.45-.92,1.69a4,4,0,0,0,.46.31c.31.19.69-.64.71-.65Z" transform="translate(0 0)"></path>
        <path class="cls-10" d="M19.81,25.25s-.63-1.32-1.16-1.21-1.13.15-1.13.15l-.09.29s.72.79.95.82l.74,0a5.09,5.09,0,0,0,.69-.09" transform="translate(0 0)"></path>
        <path class="cls-11" d="M19.81,25.43c0-.13,0-.47-.33-.49a5.83,5.83,0,0,0-.71,0s-.68.82-.82,1-.26.14.26.18.53.16.95,0a1.31,1.31,0,0,0,.65-.66" transform="translate(0 0)"></path>
        <path class="cls-12" d="M18.77,25a6.38,6.38,0,0,0-.47.74c-.17.34-.2.44-.53.36s-1.11,0-1.37-.27-.25-.21-.08-.62.4-.56.84-.82a.88.88,0,0,1,1,0,2.23,2.23,0,0,1,.59.62" transform="translate(0 0)"></path>
        <path class="cls-9" d="M19.81,27.51a.64.64,0,0,0,.58-.28c.15-.32.05-.6-.06-.62h-.18c-.11,0-.07.3-.07.3Z" transform="translate(0 0)"></path>
        <path class="cls-10" d="M19.4,27.36s.4.24.52.12.28-.25.28-.25l0-.09-.4-.05-.21.12Z" transform="translate(0 0)"></path>
        <path class="cls-11" d="M19.36,27.31a.13.13,0,0,0,.18.08l.19-.13.05-.41c0-.06,0-.08-.11,0s-.17,0-.25.17a.42.42,0,0,0-.06.29" transform="translate(0 0)"></path>
        <path class="cls-12" d="M19.73,27.26a1.61,1.61,0,0,0,0-.29c0-.12,0-.15.08-.19s.3-.19.41-.17.11,0,.13.15a.51.51,0,0,1-.07.37.3.3,0,0,1-.27.19.89.89,0,0,1-.27-.06" transform="translate(0 0)"></path>
        <path class="cls-9" d="M9.89,27.74a.81.81,0,0,0,.76-.32c.22-.38.12-.75,0-.79h-.22c-.15,0-.12.37-.12.38Z" transform="translate(0 0)"></path>
        <path class="cls-10" d="M9.38,27.51s.49.34.66.19a4.2,4.2,0,0,1,.37-.28l0-.12a1.57,1.57,0,0,0-.5-.1l-.28.13Z" transform="translate(0 0)"></path>
        <path class="cls-11" d="M9.34,27.44s.08.18.21.11a1.59,1.59,0,0,0,.25-.15s.08-.43.1-.51.06-.1-.13,0-.22.05-.34.2a.51.51,0,0,0-.09.36" transform="translate(0 0)"></path>
        <path class="cls-12" d="M9.8,27.4a2.05,2.05,0,0,0,0-.36c0-.15,0-.19.12-.23s.4-.22.54-.19.13,0,.16.21a.65.65,0,0,1-.14.46.35.35,0,0,1-.36.21.91.91,0,0,1-.34-.1" transform="translate(0 0)"></path>
        <path class="cls-9" d="M13.38,25.75a.47.47,0,0,0,.47.08c.23-.12.29-.33.23-.4l-.1-.07c-.07-.05-.17.14-.18.14Z" transform="translate(0 0)"></path>
        <path class="cls-10" d="M13.2,25.47s.13.32.26.3a2.05,2.05,0,0,1,.27,0l0-.07-.21-.2-.18,0Z" transform="translate(0 0)"></path>
        <path class="cls-11" d="M13.2,25.43a.09.09,0,0,0,.07.12h.17l.21-.22s.06,0-.06-.05-.13,0-.23,0a.28.28,0,0,0-.16.15" transform="translate(0 0)"></path>
        <path class="cls-12" d="M13.44,25.56l.12-.17c0-.08,0-.11.13-.08s.26,0,.32.07.06.05,0,.15a.39.39,0,0,1-.21.19.22.22,0,0,1-.25,0,.59.59,0,0,1-.13-.15" transform="translate(0 0)"></path>
        <path class="cls-9" d="M17.62,27.54A1.84,1.84,0,0,0,19.4,27c.59-.82.44-1.66.14-1.78a3.75,3.75,0,0,0-.5-.08c-.34,0-.35.8-.36.82Z" transform="translate(0 0)"></path>
        <path class="cls-10" d="M16.52,26.91s1,.87,1.44.58.89-.55.89-.55l0-.28a3.5,3.5,0,0,0-1.11-.33c-.2.06-.55.21-.64.24a4.56,4.56,0,0,0-.55.34" transform="translate(0 0)"></path>
        <path class="cls-11" d="M16.45,26.75c0,.12.15.41.46.29a4.62,4.62,0,0,0,.6-.27s.27-.95.34-1.12.16-.22-.29,0-.51.06-.81.35a1.25,1.25,0,0,0-.3.8" transform="translate(0 0)"></path>
        <path class="cls-12" d="M17.51,26.77a5.78,5.78,0,0,0,.12-.8c0-.36,0-.45.31-.5s.95-.41,1.26-.3.29.09.3.5a1.4,1.4,0,0,1-.4,1,.81.81,0,0,1-.86.4,2.15,2.15,0,0,1-.73-.3" transform="translate(0 0)"></path>
        <path class="cls-9" d="M12.16,26.85a1.21,1.21,0,0,0,1.24,0c.53-.41.59-1,.42-1.11a3.39,3.39,0,0,0-.32-.15c-.2-.08-.36.46-.37.46Z" transform="translate(0 0)"></path>
        <path class="cls-10" d="M11.57,26.25s.5.75.82.64.67-.2.67-.2l0-.18s-.51-.42-.65-.42l-.46,0Z" transform="translate(0 0)"></path>
        <path class="cls-11" d="M11.55,26.14c0,.08,0,.29.24.27a3.86,3.86,0,0,0,.44-.07s.34-.56.42-.66.14-.11-.18-.09-.34-.05-.58.08a.85.85,0,0,0-.34.47" transform="translate(0 0)"></path>
        <path class="cls-12" d="M12.23,26.34a5,5,0,0,0,.22-.49c.08-.23.08-.29.29-.27s.68-.09.86,0,.18.11.11.37a1,1,0,0,1-.44.58.53.53,0,0,1-.62.09,1.34,1.34,0,0,1-.42-.32" transform="translate(0 0)"></path>
      </g>
    </g>
  </g>
</svg>
