<?xml version="1.0" encoding="UTF-8"?>
<svg xmlns="http://www.w3.org/2000/svg" xmlns:xlink="http://www.w3.org/1999/xlink" viewBox="0 0 38.18 53.59">
  <defs>
    <style>.cls-1{fill:none;}.cls-2{clip-path:url(#clip-path);}.cls-3{fill:#8e6848;}.cls-4{clip-path:url(#clip-path-2);}.cls-5{fill:url(#Безымянный_градиент_2);}.cls-6{fill:#713e21;}.cls-7{fill:#3d271f;}.cls-8{fill:#69391e;}.cls-9{fill:#6b472f;}.cls-10{fill:#5c3624;}.cls-11{fill:#795135;}.cls-12{fill:#9a734f;}.cls-13{fill:#d0c5a6;}.cls-14{fill:#85563a;}.cls-15{fill:#eced8a;}.cls-16{fill:#676c6e;}.cls-17{fill:#7fb943;}.cls-18{clip-path:url(#clip-path-4);}.cls-19{fill:url(#Безымянный_градиент_22);}.cls-20{fill:#cbc255;}.cls-21{fill:#cacac9;}.cls-22{clip-path:url(#clip-path-6);}.cls-23{fill:url(#Безымянный_градиент_22-2);}.cls-24{fill:#92bf3a;}.cls-25{fill:#486f3a;}.cls-26{fill:#6d9633;}.cls-27{fill:#bcd746;}.cls-28{fill:#609034;}.cls-29{fill:#b3d549;}.cls-30{clip-path:url(#clip-path-8);}.cls-31{fill:url(#Безымянный_градиент_23);}.cls-32{clip-path:url(#clip-path-9);}.cls-33{fill:url(#Безымянный_градиент_32);}.cls-34{clip-path:url(#clip-path-10);}.cls-35{fill:url(#Безымянный_градиент_32-2);}.cls-36{clip-path:url(#clip-path-11);}.cls-37{fill:url(#Безымянный_градиент_32-3);}.cls-38{clip-path:url(#clip-path-12);}.cls-39{fill:url(#Безымянный_градиент_32-4);}.cls-40{fill:#f4ec76;}.cls-41{clip-path:url(#clip-path-14);}.cls-42{fill:url(#Безымянный_градиент_32-5);}.cls-43{clip-path:url(#clip-path-15);}.cls-44{fill:url(#Безымянный_градиент_32-6);}.cls-45{clip-path:url(#clip-path-16);}.cls-46{fill:url(#Безымянный_градиент_32-7);}.cls-47{clip-path:url(#clip-path-17);}.cls-48{fill:url(#Безымянный_градиент_32-8);}.cls-49{clip-path:url(#clip-path-18);}.cls-50{fill:url(#Безымянный_градиент_32-9);}</style>
    <clipPath id="clip-path" transform="translate(0 0)">
      <rect class="cls-1" width="38.18" height="52.26"></rect>
    </clipPath>
    <clipPath id="clip-path-2" transform="translate(0 0)">
      <polygon class="cls-1" points="3.64 46.2 16.51 52.26 28.41 46.23 16.03 40.99 3.64 46.2"></polygon>
    </clipPath>
    <linearGradient id="Безымянный_градиент_2" x1="-2557.71" y1="-772.99" x2="-2556.99" y2="-772.99" gradientTransform="matrix(34.36, 0, 0, -34.36, 87874.19, -26510.83)" gradientUnits="userSpaceOnUse">
      <stop offset="0" stop-color="#9b714e"></stop>
      <stop offset="0.38" stop-color="#9b714e"></stop>
      <stop offset="0.89" stop-color="#764528"></stop>
      <stop offset="1" stop-color="#6e3c20"></stop>
    </linearGradient>
    <clipPath id="clip-path-4" transform="translate(0 0)">
      <path class="cls-1" d="M7.4,19.88c-.27.21-.49,1.2.22,1.43s.87,0,1-.11.1-.83.1-.83l0-.21s.1,0-.32-.3a.72.72,0,0,0-.47-.18.94.94,0,0,0-.54.2"></path>
    </clipPath>
    <radialGradient id="Безымянный_градиент_22" cx="-1975.52" cy="-1044.13" r="0.72" gradientTransform="matrix(3.34, 0, 0, -3.34, 6610.46, -3469.09)" gradientUnits="userSpaceOnUse">
      <stop offset="0" stop-color="#ecec8a"></stop>
      <stop offset="1" stop-color="#80b943"></stop>
    </radialGradient>
    <clipPath id="clip-path-6" transform="translate(0 0)">
      <path class="cls-1" d="M10.26,21.73a.82.82,0,0,0-.52.17.87.87,0,0,0-1,1.42,1.54,1.54,0,0,0,1.38.65A1.66,1.66,0,0,0,11,22a1.72,1.72,0,0,0-.76-.28h0"></path>
    </clipPath>
    <radialGradient id="Безымянный_градиент_22-2" cx="-2553.83" cy="-66.78" r="0.72" gradientTransform="matrix(-3.3, 0, 0, 3.3, -8411.46, 243.1)" xlink:href="#Безымянный_градиент_22"></radialGradient>
    <clipPath id="clip-path-8" transform="translate(0 0)">
      <path class="cls-1" d="M31.21,5c-.23.37.16.68.62.61s.76,0,.83-.26a.69.69,0,0,0-.07-.68c-.07-.14-.19-.48-.5-.52h0c-.35,0-.69.61-.84.85"></path>
    </clipPath>
    <radialGradient id="Безымянный_градиент_23" cx="-1811.73" cy="-1095.57" r="0.72" gradientTransform="matrix(0, 2.64, 2.64, 0, 2927.6, 4793.73)" gradientUnits="userSpaceOnUse">
      <stop offset="0" stop-color="#fff"></stop>
      <stop offset="1" stop-color="#cac9c9"></stop>
    </radialGradient>
    <clipPath id="clip-path-9" transform="translate(0 0)">
      <path class="cls-1" d="M33.84,5s-.65.14-.65.6v.24s.17.91.74.84A.91.91,0,0,0,34.67,6c0-.13.23-.78-.14-.88A2,2,0,0,0,34.05,5a1,1,0,0,0-.21,0"></path>
    </clipPath>
    <radialGradient id="Безымянный_градиент_32" cx="-1984.34" cy="-1042.38" r="0.72" gradientTransform="matrix(3.38, 0, 0, -3.38, 6736.55, -3515.02)" gradientUnits="userSpaceOnUse">
      <stop offset="0" stop-color="#fff"></stop>
      <stop offset="1" stop-color="#cac9c9"></stop>
    </radialGradient>
    <clipPath id="clip-path-10" transform="translate(0 0)">
      <path class="cls-1" d="M33.19,4.7s-.6.87.37.6,1.15-.24,1.1-.6-.53-.73-1.07-.87H33.5c-.43,0-.31.88-.31.88"></path>
    </clipPath>
    <radialGradient id="Безымянный_градиент_32-2" cx="-1937.87" cy="-1070.22" r="0.72" gradientTransform="matrix(3.11, 0, 0, -3.11, 6065.33, -3326.4)" xlink:href="#Безымянный_градиент_32"></radialGradient>
    <clipPath id="clip-path-11" transform="translate(0 0)">
      <path class="cls-1" d="M32.56,5.36s-.9.15-.85.57,0,.75,1,.94.36-1.34.24-1.44a.44.44,0,0,0-.3-.08h-.11"></path>
    </clipPath>
    <radialGradient id="Безымянный_градиент_32-3" cx="-2053.11" cy="-1001.28" r="0.72" gradientTransform="matrix(3.87, 0, 0, -3.87, 7971.25, -3865.52)" xlink:href="#Безымянный_градиент_32"></radialGradient>
    <clipPath id="clip-path-12" transform="translate(0 0)">
      <path class="cls-1" d="M32.24,3.83C31.64,4.25,33,5,33,5a1.53,1.53,0,0,0,.33-1,.4.4,0,0,0-.44-.36,1.16,1.16,0,0,0-.61.23"></path>
    </clipPath>
    <radialGradient id="Безымянный_градиент_32-4" cx="-2009.77" cy="-1272.55" r="0.72" gradientTransform="matrix(2.82, 0, 0, -2.82, 5699.92, -3583.95)" xlink:href="#Безымянный_градиент_32"></radialGradient>
    <clipPath id="clip-path-14" transform="translate(0 0)">
      <path class="cls-1" d="M8,16.09a7,7,0,0,0,.32,1.31,2.85,2.85,0,0,0,.56-.22c.09-.08,0-.55,0-.74a2.63,2.63,0,0,0-.52-.56h0a.37.37,0,0,0-.28.22"></path>
    </clipPath>
    <radialGradient id="Безымянный_градиент_32-5" cx="-3194.34" cy="-1208" r="0.72" gradientTransform="matrix(0, -2.6, -2.6, 0, -3133.85, -8292.74)" xlink:href="#Безымянный_градиент_32"></radialGradient>
    <clipPath id="clip-path-15" transform="translate(0 0)">
      <path class="cls-1" d="M6.59,17.49c-.09.12-.3,1,.45,1.05s1-.77,1.08-.8.14-.53-.54-.63a.93.93,0,0,0-.23,0,.82.82,0,0,0-.76.4"></path>
    </clipPath>
    <radialGradient id="Безымянный_градиент_32-6" cx="-3036.21" cy="-1091.61" r="0.72" gradientTransform="matrix(0, -3.41, -3.41, 0, -3717.63, -10342.75)" xlink:href="#Безымянный_градиент_32"></radialGradient>
    <clipPath id="clip-path-16" transform="translate(0 0)">
      <path class="cls-1" d="M7.94,18a1.17,1.17,0,0,0-.85.53c-.24.47.13.7.36.64a.86.86,0,0,0,.8-.63c.12-.43,0-.58-.17-.58a.23.23,0,0,0-.14,0"></path>
    </clipPath>
    <radialGradient id="Безымянный_градиент_32-7" cx="-3164.38" cy="-1186.29" r="0.72" gradientTransform="matrix(0, -2.72, -2.72, 0, -3222.48, -8598.13)" xlink:href="#Безымянный_градиент_32"></radialGradient>
    <clipPath id="clip-path-17" transform="translate(0 0)">
      <path class="cls-1" d="M7.11,16.22c-.18.19,0,.53.09.8s.85.47.85.47c.16.05.21-.23.21-.28A4,4,0,0,0,7.9,16a.35.35,0,0,0-.16,0,1.08,1.08,0,0,0-.63.23"></path>
    </clipPath>
    <radialGradient id="Безымянный_градиент_32-8" cx="-3115.5" cy="-1149.95" r="0.72" gradientTransform="matrix(0, -2.95, -2.95, 0, -3386.07, -9177.73)" xlink:href="#Безымянный_градиент_32"></radialGradient>
    <clipPath id="clip-path-18" transform="translate(0 0)">
      <path class="cls-1" d="M8.52,17.25s-.12.08-.26.5a.93.93,0,0,0,0,1s.11.15.23.12A.66.66,0,0,0,9,18.28a2.55,2.55,0,0,0,0-1s-.08-.19-.24-.19a.36.36,0,0,0-.24.13"></path>
    </clipPath>
    <radialGradient id="Безымянный_градиент_32-9" cx="-3109.55" cy="-1145.66" r="0.72" gradientTransform="matrix(0, -2.98, -2.98, 0, -3406.11, -9250.02)" xlink:href="#Безымянный_градиент_32"></radialGradient>
  </defs>
  <g id="Слой_2" data-name="Слой 2">
    <g id="Слой_1-2" data-name="Слой 1">
      <g class="cls-2">
        <path class="cls-3" d="M16.51,35.22s2.48,2.91,4.39,3,8.45-2,8.45-2L30,29.5l-13.5-4.76Z" transform="translate(0 0)"></path>
        <path class="cls-3" d="M1.65,29,3,37.89s4.78.72,5.62.48,4.66-1.67,5.74-1.67,2.15-1.48,2.15-1.48V24.74Z" transform="translate(0 0)"></path>
      </g>
      <g class="cls-4">
        <rect class="cls-5" x="9.73" y="33.95" width="12.58" height="25.34" transform="translate(-31.39 60.12) rotate(-86.92)"></rect>
      </g>
      <g class="cls-2">
        <path class="cls-6" d="M3.64,46.2,3,37.89s6.1-.12,7.77-1a35.2,35.2,0,0,1,5.74-1.72L16,41Z" transform="translate(0 0)"></path>
        <path class="cls-7" d="M12.33,38.41A2,2,0,0,0,11.6,38h0a1.52,1.52,0,0,0-1.51.37c-.53.65-.44,1.36-.2,1.47a1.9,1.9,0,0,0,.42.09h0a8.7,8.7,0,0,0,.9-.2.53.53,0,0,0,.16,0l.16,0c.38-.12.43,0,.7-.26a1.06,1.06,0,0,0,.28-.66l-.06-.13h0a.22.22,0,0,0-.15-.13" transform="translate(0 0)"></path>
        <path class="cls-7" d="M7.11,39.27a2.61,2.61,0,0,0-1,.34h0a1.94,1.94,0,0,0-.93,1.76c.18,1.07.94,1.58,1.26,1.44a3.54,3.54,0,0,0,.44-.33v0a11.11,11.11,0,0,0,.57-1,.62.62,0,0,0,.09-.19l.09-.2c.21-.47.33-.44.34-.89a1.34,1.34,0,0,0-.4-.83l-.17-.06h0a.28.28,0,0,0-.25,0" transform="translate(0 0)"></path>
        <path class="cls-8" d="M16.51,35.22,16,41l12.38,5.24.94-9.93a32.34,32.34,0,0,0-5.53-.2c-1.68.24-4.6,1-5.47.48a11.42,11.42,0,0,1-1.84-1.36" transform="translate(0 0)"></path>
        <path class="cls-7" d="M11.79,41.15a.69.69,0,0,0-.32-.08h0a.58.58,0,0,0-.52.31c-.13.3,0,.56.09.58l.17,0h0a3.1,3.1,0,0,0,.32-.17l.05,0,.06,0c.13-.09.16-.06.23-.18a.43.43,0,0,0,0-.28l0,0h0Z" transform="translate(0 0)"></path>
        <path class="cls-7" d="M23.92,38.66a.63.63,0,0,0,0-.23h0a.42.42,0,0,0-.33-.26c-.23,0-.36.13-.35.2l.05.11h0l.19.16,0,0,0,0c.09.06.08.08.18.1a.25.25,0,0,0,.18,0l0,0h0Z" transform="translate(0 0)"></path>
        <path class="cls-7" d="M27.37,42.83a2.82,2.82,0,0,0-.49-1h0A2,2,0,0,0,25,41.18c-1,.33-1.44,1.17-1.26,1.46a3.54,3.54,0,0,0,.39.39h0a8.18,8.18,0,0,0,1.12.41l.2.07.22.07c.49.14.49.26.93.2a1.32,1.32,0,0,0,.77-.52,1.46,1.46,0,0,0,0-.17h0v0a.33.33,0,0,0-.08-.25" transform="translate(0 0)"></path>
        <path class="cls-7" d="M20.65,39.41a2.25,2.25,0,0,0-.48.69h0a1.51,1.51,0,0,0,.25,1.52c.61.57,1.32.53,1.45.3,0-.06.08-.28.12-.41v0a7.28,7.28,0,0,0-.14-.91.35.35,0,0,0,0-.16.75.75,0,0,0,0-.17c-.09-.38,0-.42-.21-.7a1,1,0,0,0-.63-.33l-.13.05h0a.24.24,0,0,0-.14.14" transform="translate(0 0)"></path>
        <path class="cls-9" d="M20.7,46.46a.41.41,0,0,0,.4-.11c.14-.18.11-.37,0-.39l-.11,0c-.07,0-.08.18-.08.18Z" transform="translate(0 0)"></path>
        <path class="cls-10" d="M20.45,46.31s.23.21.32.14l.21-.12v-.06l-.24-.08-.15.05Z" transform="translate(0 0)"></path>
        <path class="cls-11" d="M20.44,46.28s0,.09.1.07l.14-.06.08-.25s0,0-.06,0-.12,0-.19.08a.27.27,0,0,0-.07.18" transform="translate(0 0)"></path>
        <path class="cls-12" d="M20.68,46.29s0-.1,0-.18,0-.1.07-.11.22-.09.29-.06.06,0,.06.11a.34.34,0,0,1-.1.23.18.18,0,0,1-.19.08.5.5,0,0,1-.16-.07" transform="translate(0 0)"></path>
        <path class="cls-9" d="M17.94,44.88a.91.91,0,0,0,.84-.43c.22-.46.07-.86-.09-.89a2.24,2.24,0,0,0-.26,0c-.17,0-.1.43-.1.44Z" transform="translate(0 0)"></path>
        <path class="cls-10" d="M17.34,44.67s.59.34.77.16.39-.36.39-.36l0-.13a1.87,1.87,0,0,0-.58-.07l-.3.18Z" transform="translate(0 0)"></path>
        <path class="cls-11" d="M17.29,44.6s.11.19.26.1a2.08,2.08,0,0,0,.27-.19s0-.5.06-.59.06-.12-.15,0-.24.08-.37.25a.65.65,0,0,0-.07.43" transform="translate(0 0)"></path>
        <path class="cls-12" d="M17.82,44.51a2.36,2.36,0,0,0,0-.41c0-.18,0-.22.11-.28s.43-.29.6-.26.15,0,.2.22a.73.73,0,0,1-.11.54.4.4,0,0,1-.39.27.9.9,0,0,1-.39-.08" transform="translate(0 0)"></path>
        <path class="cls-9" d="M15.38,46.88a.88.88,0,0,0,.91.11c.43-.25.53-.66.42-.77a1,1,0,0,0-.22-.14c-.14-.08-.31.3-.32.3Z" transform="translate(0 0)"></path>
        <path class="cls-10" d="M15,46.38s.29.6.53.55a4.6,4.6,0,0,1,.52-.07l0-.14s-.33-.36-.44-.37l-.34,0Z" transform="translate(0 0)"></path>
        <path class="cls-11" d="M15,46.3c0,.06,0,.21.15.22a2,2,0,0,0,.32,0l.38-.44c.06-.06.11-.07-.12-.08s-.25-.07-.44,0a.57.57,0,0,0-.29.31" transform="translate(0 0)"></path>
        <path class="cls-12" d="M15.48,46.51a2,2,0,0,0,.21-.34c.08-.15.09-.2.24-.16s.51,0,.63.11.12.1.05.29a.71.71,0,0,1-.39.37.37.37,0,0,1-.46,0,1,1,0,0,1-.28-.28" transform="translate(0 0)"></path>
        <path class="cls-9" d="M14.28,45.23a.71.71,0,0,0,0-.71c-.22-.31-.54-.35-.62-.26l-.09.17c-.06.11.24.22.25.23Z" transform="translate(0 0)"></path>
        <path class="cls-10" d="M13.92,45.54s.43-.26.38-.44-.09-.39-.09-.39l-.1,0s-.26.28-.26.36,0,.22,0,.26Z" transform="translate(0 0)"></path>
        <path class="cls-11" d="M13.85,45.55c.05,0,.17,0,.16-.13a1.91,1.91,0,0,0,0-.25l-.36-.25c-.06-.05-.06-.09-.06.09s0,.19,0,.34a.48.48,0,0,0,.25.2" transform="translate(0 0)"></path>
        <path class="cls-12" d="M14,45.17a2.17,2.17,0,0,0-.28-.14c-.12-.05-.16-.05-.14-.17s0-.39,0-.49.06-.09.21,0a.54.54,0,0,1,.31.27.31.31,0,0,1,0,.36.76.76,0,0,1-.19.22" transform="translate(0 0)"></path>
        <path class="cls-9" d="M12.09,45.74s.16-.13.1-.28-.17-.22-.22-.19l-.06.06.08.12Z" transform="translate(0 0)"></path>
        <path class="cls-10" d="M11.9,45.83s.22,0,.22-.13,0-.18,0-.18l0,0-.15.12,0,.1Z" transform="translate(0 0)"></path>
        <path class="cls-11" d="M11.88,45.82l.08,0,0-.1-.12-.16s0,0,0,0,0,.07,0,.14a.17.17,0,0,0,.08.11" transform="translate(0 0)"></path>
        <path class="cls-12" d="M12,45.69l-.09-.1,0-.09.08-.19H12a.26.26,0,0,1,.09.15.14.14,0,0,1,0,.16Z" transform="translate(0 0)"></path>
        <path class="cls-9" d="M11.43,47a1.19,1.19,0,0,0,0-1.22c-.39-.54-.94-.61-1.08-.46a1.8,1.8,0,0,0-.15.31c-.1.19.43.37.43.38Z" transform="translate(0 0)"></path>
        <path class="cls-10" d="M10.81,47.5s.75-.46.66-.77a6.6,6.6,0,0,1-.17-.68l-.17,0s-.44.48-.44.62,0,.39,0,.45Z" transform="translate(0 0)"></path>
        <path class="cls-11" d="M10.7,47.51c.08,0,.28,0,.27-.22a2.11,2.11,0,0,0-.05-.43s-.53-.36-.62-.44-.11-.15-.1.17-.06.33.06.58a.82.82,0,0,0,.44.34" transform="translate(0 0)"></path>
        <path class="cls-12" d="M10.92,46.86a2.88,2.88,0,0,0-.47-.24c-.22-.09-.28-.1-.25-.3s-.06-.67.08-.84.11-.17.36-.09a.9.9,0,0,1,.55.46.52.52,0,0,1,.07.61,1.38,1.38,0,0,1-.34.4" transform="translate(0 0)"></path>
        <path class="cls-13" d="M15.82,30.49A7.94,7.94,0,0,1,14.32,33a5.79,5.79,0,0,0-1.08,2.61c-.3,2.14.31,4.31-.27,6.42l.1,0c.57-2.05,0-4.15.24-6.22a6,6,0,0,1,1.22-3,7.39,7.39,0,0,0,1.4-2.37Z" transform="translate(0 0)"></path>
        <path class="cls-13" d="M15.51,31.42A4.62,4.62,0,0,1,12.91,36a3.84,3.84,0,0,0-2.26,3.2A4.64,4.64,0,0,0,11.39,43a4,4,0,0,1,0,5.29c-.09.1.06.24.15.15a4.12,4.12,0,0,0,1-3.66A4.23,4.23,0,0,0,11.69,43a3.57,3.57,0,0,1-.93-1.88,7.6,7.6,0,0,1,.05-1.43,3.92,3.92,0,0,1,1.31-3.05c.63-.46,1.38-.71,2-1.22a4.74,4.74,0,0,0,1.62-4c0-.14-.22-.14-.21,0" transform="translate(0 0)"></path>
        <path class="cls-13" d="M15.54,31.27a8.54,8.54,0,0,1-.62,4.56c-.55,1-1.57,1.75-1.81,2.94A5.46,5.46,0,0,0,13.68,42a9.23,9.23,0,0,1,1,5.23c0,.14.18.19.2.06a7.76,7.76,0,0,0-.41-4c-.56-1.45-1.54-3-1.06-4.63.38-1.28,1.61-2.09,2.06-3.37a10.6,10.6,0,0,0,.32-3.93c0-.13-.22-.13-.21,0" transform="translate(0 0)"></path>
        <path class="cls-13" d="M15.45,31.34c-.94,1-2,2.19-1.83,3.67.07.48.33.89.43,1.37a5,5,0,0,1-.11,1.84,4.53,4.53,0,0,0,.2,2.1,2.24,2.24,0,0,1,0,1.74c-.17.33-.42.61-.62.92a2,2,0,0,0-.41,1.54c.33,1.6,2.35,2.07,2.75,3.64a.1.1,0,0,0,.2-.06c-.35-1.36-1.76-1.83-2.46-3-1-1.67,1.06-2.46.95-4a19.88,19.88,0,0,1-.45-2.3,13.56,13.56,0,0,0,.22-2.2c-.11-1-.66-1.66-.38-2.68a5.92,5.92,0,0,1,1.68-2.43c.09-.1-.06-.25-.15-.15" transform="translate(0 0)"></path>
        <path class="cls-13" d="M15.68,31.28a5,5,0,0,0-1.1,1.51,4.22,4.22,0,0,0-.21,1.93c.14,1.5.79,2.93.61,4.45,0,.14.19.14.2,0a13.46,13.46,0,0,0-.54-3.93,4.86,4.86,0,0,1,0-2.08,4.12,4.12,0,0,1,1.15-1.73c.09-.1-.06-.25-.15-.15" transform="translate(0 0)"></path>
        <path class="cls-13" d="M15.82,31.17a15.57,15.57,0,0,1-.25,5.89c-.35,1.46-.84,2.78-.4,4.27a13.66,13.66,0,0,0,2,3.57A10.88,10.88,0,0,1,19,50.08c0,.13.22.14.21,0a10.24,10.24,0,0,0-1.31-4.35,25.89,25.89,0,0,1-2.43-4.2c-.65-1.86.21-3.56.53-5.39a16.25,16.25,0,0,0,0-5c0-.13-.22-.08-.2.05" transform="translate(0 0)"></path>
        <path class="cls-13" d="M16.36,31.83a6.16,6.16,0,0,0,1.05,3.48,8.09,8.09,0,0,1,1.29,4.92,43.94,43.94,0,0,1-1.31,5.41A33,33,0,0,0,17,50.71c0,.14.19.14.2,0A31.78,31.78,0,0,1,17.75,45a30.63,30.63,0,0,0,1.16-4.81,7.18,7.18,0,0,0-.8-4.07c-.71-1.39-1.68-2.7-1.55-4.33,0-.14-.19-.14-.2,0" transform="translate(0 0)"></path>
        <path class="cls-13" d="M16.69,31.43c.23,1.16,1.08,2.1,1.42,3.25a12.54,12.54,0,0,1,.37,3.86c-.06,1.81-.56,4.17,1,5.54.1.09.25-.06.15-.15-1.65-1.48-.87-4.31-.89-6.25a11.25,11.25,0,0,0-.42-3.16c-.34-1.1-1.17-2-1.38-3.14,0-.14-.23-.08-.21.05" transform="translate(0 0)"></path>
        <path class="cls-13" d="M17.48,33A5.66,5.66,0,0,1,18,35.88a8.41,8.41,0,0,1-1.71,3.48c-.07.11.11.22.18.11a8.27,8.27,0,0,0,1.75-3.68,5.94,5.94,0,0,0-.59-2.92c-.06-.13-.23,0-.18.1" transform="translate(0 0)"></path>
        <path class="cls-13" d="M17.75,36.92a4.06,4.06,0,0,1-.07,2,.1.1,0,0,0,.2.06A4.27,4.27,0,0,0,18,36.87c0-.13-.22-.08-.2.05" transform="translate(0 0)"></path>
        <path class="cls-13" d="M16.58,31.6c.78,1.2,1.59,2.38,2.35,3.59a7.57,7.57,0,0,1,1.13,4.05c.06,1.35,0,2.68-.07,4a3.5,3.5,0,0,0,.69,2.57c.09.1.24-.05.15-.15-.87-1-.62-2.39-.57-3.59A25,25,0,0,0,20.18,38a6.83,6.83,0,0,0-1.13-3L16.76,31.5c-.07-.11-.25,0-.18.1" transform="translate(0 0)"></path>
        <path class="cls-13" d="M16.7,31.82a11.48,11.48,0,0,1,2.88,3.37,11.33,11.33,0,0,1,.91,4.18c.16,2.42.11,5,1.52,7.07.08.11.26,0,.18-.11C20.58,44,20.91,41,20.6,38.27a9.62,9.62,0,0,0-.93-3.37,12.62,12.62,0,0,0-2.82-3.23c-.1-.09-.25.06-.15.15" transform="translate(0 0)"></path>
        <path class="cls-13" d="M17,31.34a4.38,4.38,0,0,1,1.81,2.07,7.81,7.81,0,0,0,.69,1.73A16.48,16.48,0,0,0,22,37.77a5.68,5.68,0,0,1,1.18,1.57,5.08,5.08,0,0,1,.24,2.76c-.17,1.41-.43,2.9.46,4.12.08.11.26,0,.18-.1-1.15-1.57-.32-3.49-.34-5.24a4.65,4.65,0,0,0-1.58-3.26,12.57,12.57,0,0,1-2.72-3,13.29,13.29,0,0,0-.85-2.11,6.1,6.1,0,0,0-1.48-1.34c-.11-.08-.21.1-.11.18" transform="translate(0 0)"></path>
        <path class="cls-13" d="M16.1,31.27c.38.73.76,1.45,1.13,2.18a5.56,5.56,0,0,0,1.16,1.64,7.17,7.17,0,0,0,3.12,1.25,5.22,5.22,0,0,1,3.54,2,7.39,7.39,0,0,1,.68,4.9c0,.13.19.13.21,0a8.38,8.38,0,0,0-.4-4.44,4.28,4.28,0,0,0-2.68-2.29,19.47,19.47,0,0,1-3.76-1.15,4.27,4.27,0,0,1-1.59-1.8c-.42-.79-.82-1.58-1.23-2.36-.06-.12-.24,0-.18.1" transform="translate(0 0)"></path>
        <path class="cls-13" d="M16.7,31.46c.46.74,1.41,1,1.86,1.75.28.45.41,1,.66,1.47A9,9,0,0,0,20.07,36a9.8,9.8,0,0,0,1,1.11,3.53,3.53,0,0,1,.57.59,2.32,2.32,0,0,1,.3,1.21,12.26,12.26,0,0,1-.41,3.91.1.1,0,0,0,.2.06,12.57,12.57,0,0,0,.43-3.76,2.93,2.93,0,0,0-.34-1.54,10.81,10.81,0,0,0-1.06-1.08,10.82,10.82,0,0,1-1.92-3.19c-.42-.93-1.46-1.16-2-2-.08-.11-.26,0-.19.11" transform="translate(0 0)"></path>
        <path class="cls-13" d="M21.83,37.87a5.35,5.35,0,0,1,.58.77,2.14,2.14,0,0,1,.25,1l.09,2.08c0,.13.21.13.2,0,0-.76,0-1.54-.1-2.29A2.89,2.89,0,0,0,22,37.73c-.09-.1-.23,0-.15.14" transform="translate(0 0)"></path>
        <polygon class="cls-14" points="1.65 29.02 16.51 35.22 30.01 29.5 16.51 24.74 1.65 29.02"></polygon>
        <path class="cls-15" d="M11,20.62a.49.49,0,0,0-.35.05.47.47,0,0,0,0,.8.81.81,0,0,0,.78.15.9.9,0,0,0,.29-.95.32.32,0,0,0-.23-.19.62.62,0,0,0-.27,0,.4.4,0,0,0-.24.15" transform="translate(0 0)"></path>
        <polygon class="cls-16" points="11.18 21.21 11.22 21.24 11.21 21.19 11.18 21.16 11.18 21.21"></polygon>
        <polygon class="cls-16" points="10.64 21.32 10.69 21.34 10.67 21.29 10.62 21.27 10.64 21.32"></polygon>
        <polygon class="cls-16" points="10.92 21.29 10.96 21.32 10.95 21.27 10.9 21.25 10.92 21.29"></polygon>
        <polygon class="cls-16" points="11.4 21.09 11.44 21.13 11.44 21.07 11.4 21.04 11.4 21.09"></polygon>
        <polygon class="cls-16" points="11.6 20.87 11.63 20.91 11.63 20.86 11.6 20.82 11.6 20.87"></polygon>
        <polygon class="cls-16" points="10.91 21.45 10.96 21.46 10.93 21.42 10.88 21.41 10.91 21.45"></polygon>
        <polygon class="cls-16" points="11.17 21.44 11.22 21.47 11.2 21.42 11.15 21.39 11.17 21.44"></polygon>
        <polygon class="cls-16" points="11.35 21.37 11.38 21.41 11.39 21.36 11.35 21.32 11.35 21.37"></polygon>
        <polygon class="cls-16" points="11.55 21.19 11.58 21.23 11.59 21.18 11.55 21.14 11.55 21.19"></polygon>
        <path class="cls-17" d="M5.76,12c.85.37,2.05.72,2.81,1.06a7.27,7.27,0,0,1,2.93,2.55,21.15,21.15,0,0,1,1.87,3.48l.56,1.2c.6,1.31,1.21,2.62,1.78,3.94l.19-.08c-.57-1.33-1.18-2.64-1.78-4-.19-.4-.37-.8-.56-1.19a21.28,21.28,0,0,0-1.89-3.52,7.49,7.49,0,0,0-3-2.62c-.78-.35-2-.7-2.81-1.06Z" transform="translate(0 0)"></path>
      </g>
      <g class="cls-18">
        <rect class="cls-19" x="6.91" y="19.68" width="2.03" height="1.87"></rect>
      </g>
      <g class="cls-2">
        <polygon class="cls-20" points="7.76 20.45 7.72 20.5 7.78 20.49 7.82 20.44 7.76 20.45"></polygon>
        <polygon class="cls-20" points="8.06 20.27 8.03 20.32 8.09 20.31 8.12 20.26 8.06 20.27"></polygon>
        <polygon class="cls-20" points="7.62 20.21 7.58 20.26 7.64 20.24 7.67 20.19 7.62 20.21"></polygon>
        <polygon class="cls-20" points="7.89 20.01 7.86 20.06 7.92 20.04 7.95 19.99 7.89 20.01"></polygon>
        <polygon class="cls-20" points="7.58 20.44 7.54 20.49 7.6 20.47 7.63 20.42 7.58 20.44"></polygon>
        <polygon class="cls-20" points="7.82 20.23 7.79 20.28 7.85 20.27 7.88 20.22 7.82 20.23"></polygon>
        <polygon class="cls-20" points="7.77 20.68 7.73 20.73 7.79 20.71 7.83 20.66 7.77 20.68"></polygon>
        <polygon class="cls-20" points="8.01 20.5 7.98 20.55 8.04 20.54 8.07 20.48 8.01 20.5"></polygon>
        <polygon class="cls-20" points="7.97 20.73 7.94 20.78 8 20.76 8.03 20.71 7.97 20.73"></polygon>
        <polygon class="cls-20" points="8.28 20.55 8.25 20.61 8.31 20.59 8.34 20.54 8.28 20.55"></polygon>
        <polygon class="cls-20" points="7.89 20.91 7.86 20.96 7.92 20.95 7.95 20.9 7.89 20.91"></polygon>
        <polygon class="cls-20" points="8.12 20.91 8.09 20.96 8.14 20.95 8.18 20.9 8.12 20.91"></polygon>
        <polygon class="cls-20" points="8.43 20.8 8.39 20.84 8.45 20.84 8.49 20.8 8.43 20.8"></polygon>
        <polygon class="cls-20" points="8.09 21.11 8.04 21.14 8.1 21.16 8.15 21.13 8.09 21.11"></polygon>
        <polygon class="cls-20" points="8.29 21.01 8.23 21.04 8.29 21.06 8.35 21.02 8.29 21.01"></polygon>
        <polygon class="cls-20" points="8.59 21.01 8.54 21.04 8.6 21.06 8.65 21.02 8.59 21.01"></polygon>
        <polygon class="cls-20" points="7.41 20.19 7.4 20.25 7.44 20.21 7.45 20.15 7.41 20.19"></polygon>
        <polygon class="cls-20" points="7.65 19.98 7.64 20.03 7.69 20 7.7 19.94 7.65 19.98"></polygon>
        <polygon class="cls-20" points="7.44 19.93 7.43 19.99 7.48 19.95 7.49 19.89 7.44 19.93"></polygon>
        <polygon class="cls-20" points="7.77 19.76 7.73 19.8 7.79 19.8 7.83 19.75 7.77 19.76"></polygon>
        <polygon class="cls-20" points="8.21 21.23 8.15 21.26 8.21 21.27 8.27 21.24 8.21 21.23"></polygon>
        <polygon class="cls-20" points="8.41 21.21 8.36 21.24 8.42 21.25 8.47 21.22 8.41 21.21"></polygon>
        <polygon class="cls-21" points="7.81 19.89 7.95 19.87 8.08 19.85 7.94 19.79 7.81 19.89"></polygon>
      </g>
      <g class="cls-22">
        <rect class="cls-23" x="7.84" y="20.84" width="3.84" height="4.13" transform="translate(-14.8 18.75) rotate(-57.33)"></rect>
      </g>
      <g class="cls-2">
        <polygon class="cls-16" points="9.85 23.09 9.91 23.17 9.93 23.07 9.87 22.99 9.85 23.09"></polygon>
        <path class="cls-24" d="M9.8,21.72a1.38,1.38,0,0,0-1.56.09s.77-.27,1.06-.07a1.42,1.42,0,0,0-1,.91s1-.78,1.21-.64c0,0,.35.09.26,1.06,0,0,.26-.19.19-1.07,0,0,.71.29.8.82a1.32,1.32,0,0,0-.53-1,.88.88,0,0,1,.85.51s0-.9-.82-.82c0,0-.29.32-.47.22" transform="translate(0 0)"></path>
        <polygon class="cls-16" points="8.79 23.04 8.87 23.11 8.85 23.01 8.78 22.94 8.79 23.04"></polygon>
        <polygon class="cls-16" points="9.32 23.13 9.4 23.19 9.38 23.09 9.31 23.02 9.32 23.13"></polygon>
        <polygon class="cls-16" points="10.32 22.97 10.37 23.06 10.39 22.96 10.34 22.87 10.32 22.97"></polygon>
        <polygon class="cls-16" points="10.79 22.65 10.83 22.75 10.86 22.65 10.81 22.56 10.79 22.65"></polygon>
        <polygon class="cls-16" points="9.23 23.42 9.32 23.46 9.29 23.37 9.2 23.32 9.23 23.42"></polygon>
        <polygon class="cls-16" points="9.72 23.52 9.8 23.59 9.79 23.49 9.71 23.42 9.72 23.52"></polygon>
        <polygon class="cls-16" points="10.09 23.47 10.13 23.57 10.16 23.47 10.12 23.38 10.09 23.47"></polygon>
        <polygon class="cls-16" points="10.55 23.23 10.59 23.32 10.62 23.22 10.58 23.13 10.55 23.23"></polygon>
        <path class="cls-17" d="M16.13,15a4.38,4.38,0,0,1-.48,0,3.5,3.5,0,0,1-1.92-.68,5,5,0,0,1-1.94-3.6L12,11l.87.22,2.92,2.08.43,1.31Z" transform="translate(0 0)"></path>
        <path class="cls-25" d="M15.39,14.09c0,.16.08.31.13.45a1.78,1.78,0,0,0,.13.45,2.34,2.34,0,0,1-.26-.9" transform="translate(0 0)"></path>
        <path class="cls-25" d="M14.93,14.88a3.94,3.94,0,0,1-.48-1.29,6.68,6.68,0,0,0,.48,1.29" transform="translate(0 0)"></path>
        <path class="cls-25" d="M14.05,14.54c-.18-.48-.34-1-.49-1.45.18.48.34,1,.49,1.45" transform="translate(0 0)"></path>
        <path class="cls-25" d="M13.22,13.82a2.45,2.45,0,0,1-.28-1,4.3,4.3,0,0,0,.28,1" transform="translate(0 0)"></path>
        <path class="cls-25" d="M12.54,13a3.91,3.91,0,0,1-.12-.91,2.32,2.32,0,0,0,.06.46Z" transform="translate(0 0)"></path>
        <path class="cls-25" d="M16.13,15a3.39,3.39,0,0,0,0-3.44s-.05.29-.08.49-.68-1-.68-1.13a1.44,1.44,0,0,0-.1.55,3.49,3.49,0,0,1-.61-1,3.85,3.85,0,0,0-.11.52c0,.07-.66-.39-.67-.6s-.05.3,0,.48-.56,0-.8-.48L13,10.9a.74.74,0,0,1-.47-.31c-.09-.21,0,.22,0,.33s-.56,0-.7-.21.18.57.37.78.19,0,.19,0a4,4,0,0,1,.54.8l0-.35a3.25,3.25,0,0,1,.52.77c0,.21.07-.31.07-.31a3.84,3.84,0,0,1,.52.79l.07-.48s.59.72.59.9l.12-.33s.44.71.4.9.16-.39.14-.46.94.86.76,1.3" transform="translate(0 0)"></path>
        <path class="cls-24" d="M16.36,15.57s-.05.21.32.38a4.41,4.41,0,0,0,1.78.2,2,2,0,0,0-.21-.29,3.49,3.49,0,0,0,1.34-.43,1.79,1.79,0,0,0-.32-.17s.82-.43,1-.55l-.38-.17s.31-.61.48-.64c0,0-.22-.24-.3-.2s.16-.5.21-.5L20,13.09l.22-.26-.61-.14.07-.31a1.91,1.91,0,0,0-.79.26,2.38,2.38,0,0,1-.1-.45c0-.1-.72.5-.82.77a.37.37,0,0,1-.25-.38,1.66,1.66,0,0,0-.45,1l-.21-.18a1.88,1.88,0,0,0-.13.68s-.17,0-.17-.12a4.38,4.38,0,0,0-.42,1.6" transform="translate(0 0)"></path>
        <path class="cls-25" d="M16.68,16a14,14,0,0,1,1.16-1.58,6.4,6.4,0,0,1,.72-.66,2.22,2.22,0,0,1,.86-.45,3.49,3.49,0,0,0-1.54,1.15A14.08,14.08,0,0,0,16.68,16" transform="translate(0 0)"></path>
        <path class="cls-25" d="M17.1,15.31a1.88,1.88,0,0,1-.14-.77,1.7,1.7,0,0,0,.23.71Z" transform="translate(0 0)"></path>
        <path class="cls-25" d="M19,15.49a6,6,0,0,1-1.89-.16l0-.1a5.81,5.81,0,0,0,1.86.26" transform="translate(0 0)"></path>
        <path class="cls-25" d="M17.69,14.57a2.07,2.07,0,0,1-.22-.87,2.05,2.05,0,0,0,.31.82Z" transform="translate(0 0)"></path>
        <path class="cls-25" d="M19.24,14.88a3,3,0,0,1-1.54-.29l.06-.09a2.91,2.91,0,0,0,1.48.38" transform="translate(0 0)"></path>
        <path class="cls-25" d="M18.3,13.9a4.23,4.23,0,0,1,.21-1.07,4.27,4.27,0,0,0-.1,1.07Z" transform="translate(0 0)"></path>
        <path class="cls-25" d="M19.87,14a6.43,6.43,0,0,1-1.52,0v-.11a5.9,5.9,0,0,0,1.51.14" transform="translate(0 0)"></path>
        <path class="cls-25" d="M16.25,16a2.29,2.29,0,0,0-.46-.56l0,.11a1.77,1.77,0,0,0-.76-.35l.07.13a2.1,2.1,0,0,0-.74-.13l.06.16a5.26,5.26,0,0,0-.79,0,.73.73,0,0,1,0,.23,1.59,1.59,0,0,0-.59.29l.17.15a1.44,1.44,0,0,0-.34.56l.29.09s0,.14-.06.18.39.29.52.31a.2.2,0,0,1-.17.08c-.12,0,.33.2.83.21,0,0,0,.15-.09.15a2.85,2.85,0,0,0,1,.13l0,.13a1.64,1.64,0,0,0,1-.8c.18-.51.24-.62,0-1.08" transform="translate(0 0)"></path>
        <path class="cls-26" d="M20.52,9.89s-.39-1.39-.65-1.53a.27.27,0,0,1-.21.24,2.86,2.86,0,0,0-1.3-1.31l.07.38a2.82,2.82,0,0,0-2.06-1.16s.33.52.31.65S15.31,6.58,14.79,7c0,0,.39.49.36.6a5.42,5.42,0,0,0-1.36.1c-.07.11.42.43.4.56s-.49.27-.78.49l.38.21-.38.16c-.05,0,.51.67.78.63,0,0-.1.34-.29.39s.62.3,1.49.3a.87.87,0,0,1-.46.44c-.38.19,1.53.15,1.68.16s-.11.43-.25.43a3.74,3.74,0,0,0,2-.35.25.25,0,0,1-.15.3,2.86,2.86,0,0,0,1.21-.31,3,3,0,0,0,1.1-1.19" transform="translate(0 0)"></path>
        <path class="cls-25" d="M21.26,10.34c-.49-.29-1-.55-1.5-.79A8.87,8.87,0,0,0,18.15,9a11.49,11.49,0,0,0-1.66-.27,13.57,13.57,0,0,0-1.69,0,8.77,8.77,0,0,1,1.7,0A8.76,8.76,0,0,1,18.18,9a8.89,8.89,0,0,1,1.6.55,14.42,14.42,0,0,1,1.48.84" transform="translate(0 0)"></path>
        <path class="cls-25" d="M19.37,9.37A1.45,1.45,0,0,0,19,8.16a1.46,1.46,0,0,1,.49,1.22Z" transform="translate(0 0)"></path>
        <path class="cls-25" d="M17.86,10.71a3.28,3.28,0,0,0,.82-.62,9.87,9.87,0,0,0,.7-.75l.08.07a10.24,10.24,0,0,1-.75.72,3.55,3.55,0,0,1-.85.58" transform="translate(0 0)"></path>
        <path class="cls-25" d="M18,9A2.42,2.42,0,0,1,17.19,10a4.68,4.68,0,0,1-1.17.67A5,5,0,0,0,17.16,10a2.28,2.28,0,0,0,.74-1.06Z" transform="translate(0 0)"></path>
        <path class="cls-25" d="M17.34,7.29A2.34,2.34,0,0,1,18,9H17.9a2.25,2.25,0,0,0-.56-1.65" transform="translate(0 0)"></path>
        <path class="cls-25" d="M16.63,8.75a1.46,1.46,0,0,0-.86-1.3,1.52,1.52,0,0,1,1,1.29Z" transform="translate(0 0)"></path>
        <path class="cls-25" d="M15.13,10a3,3,0,0,0,1.51-1.25l.09,0a3,3,0,0,1-1.6,1.2" transform="translate(0 0)"></path>
        <path class="cls-25" d="M15.6,8.7A1.26,1.26,0,0,0,15.13,8a1.26,1.26,0,0,1,.57.65Z" transform="translate(0 0)"></path>
        <path class="cls-25" d="M14.69,9.58a2,2,0,0,0,.91-.92l.09.06a2.09,2.09,0,0,1-1,.86" transform="translate(0 0)"></path>
        <path class="cls-26" d="M21.69,9.77s-1-3,1.07-4.06l.16.5s.49-1.09,1.15-1.13v.44s.86-.68,1.38-.44l-.24.31s1.25-.31,1.39-.16.07.25,0,.48.45,0,.45,0a5.29,5.29,0,0,1-.45,1c-.1,0,.21,0,.45,0,0,0-.36,1.27-.6,1.38s.42,0,.42,0a3.33,3.33,0,0,1-.91,1l.88.06a3.61,3.61,0,0,1-5.15.57" transform="translate(0 0)"></path>
        <path class="cls-25" d="M21.22,10.31A14.94,14.94,0,0,1,22.79,8.6a6.8,6.8,0,0,1,1.89-1.33l0,0a2.52,2.52,0,0,1,.55-.88,5,5,0,0,1,.75-.7,5,5,0,0,0-.74.71,2.58,2.58,0,0,0-.52.87h0a6.78,6.78,0,0,0-1.86,1.34,17.74,17.74,0,0,0-1.53,1.72Z" transform="translate(0 0)"></path>
        <path class="cls-25" d="M23.28,8.12a4.29,4.29,0,0,1,.41-1.46,2.68,2.68,0,0,1,1-1.14h0a2.8,2.8,0,0,0-.95,1.15,6.57,6.57,0,0,0-.44,1.45Z" transform="translate(0 0)"></path>
        <path class="cls-25" d="M22.6,8.72a5.83,5.83,0,0,0,3.15-.25,4.65,4.65,0,0,1-1.55.39,6.76,6.76,0,0,1-1.62,0Z" transform="translate(0 0)"></path>
        <path class="cls-25" d="M23.56,5.71a2.8,2.8,0,0,0-.73,1.44,6.82,6.82,0,0,0-.18,1.62h-.11a7.06,7.06,0,0,1,.24-1.64,2.89,2.89,0,0,1,.78-1.42" transform="translate(0 0)"></path>
        <path class="cls-25" d="M22,9.4a6.94,6.94,0,0,0,1.75.39,3.44,3.44,0,0,0,1.77-.23,3.47,3.47,0,0,1-1.77.28,7.19,7.19,0,0,1-1.78-.34Z" transform="translate(0 0)"></path>
        <path class="cls-25" d="M22.16,7a2.73,2.73,0,0,0-.23,1.23A7.57,7.57,0,0,0,22,9.45H21.9a9,9,0,0,1,0-1.27A2.87,2.87,0,0,1,22.16,7" transform="translate(0 0)"></path>
        <path class="cls-25" d="M24,7.66l1.25-.17a6.49,6.49,0,0,0,1.24-.25h0a6.31,6.31,0,0,1-1.23.3A10.76,10.76,0,0,1,24,7.67Z" transform="translate(0 0)"></path>
        <path class="cls-24" d="M23.08,14.12a1.13,1.13,0,0,0,2-.12,12.87,12.87,0,0,0,1.13-1.95c0-.13-.24.12-.43.13s0-.12,0-.22a2.94,2.94,0,0,0,.56-1.87s-.48.23-.56.15.25-1.08-.12-1.72a1.45,1.45,0,0,1-.64.25s-.07-.88-.47-1.1a1.14,1.14,0,0,1-.35.3s.26,0-.68-.4a1.55,1.55,0,0,1-.21.55s-.36-.24-.4-.38-.13.6-.12.73-.5-.11-.5-.11-.28,1.5.21,2A2.61,2.61,0,0,1,21.9,10c-.21-.2.13,1,.26,1.2a2.07,2.07,0,0,1-.56-.05,3.1,3.1,0,0,0,.83,1.57.82.82,0,0,1-.48,0s1,1.27,1.13,1.43" transform="translate(0 0)"></path>
        <path class="cls-25" d="M23.82,8.56a16.33,16.33,0,0,1,.52,3.19A11.22,11.22,0,0,1,24.11,15a12.85,12.85,0,0,0,.15-3.22,20.23,20.23,0,0,0-.44-3.19" transform="translate(0 0)"></path>
        <path class="cls-25" d="M24.37,13.23a1.18,1.18,0,0,0,.59-.17,3.16,3.16,0,0,0,.53-.37,2.86,2.86,0,0,1-.5.42,1.22,1.22,0,0,1-.63.22Z" transform="translate(0 0)"></path>
        <path class="cls-25" d="M22.16,11.74a9.85,9.85,0,0,0,1,.94,4,4,0,0,0,.57.37,1.14,1.14,0,0,0,.63.18v.1a1.11,1.11,0,0,1-.67-.21,4.82,4.82,0,0,1-.57-.4,10,10,0,0,1-1-1" transform="translate(0 0)"></path>
        <path class="cls-25" d="M24.35,11.78a2.82,2.82,0,0,0,1.4-.93,2.83,2.83,0,0,1-1.37,1Z" transform="translate(0 0)"></path>
        <path class="cls-25" d="M22.26,10.58a4,4,0,0,0,.92.86,2,2,0,0,0,1.19.33v.11a2.09,2.09,0,0,1-1.21-.4,3.84,3.84,0,0,1-.9-.9" transform="translate(0 0)"></path>
        <path class="cls-25" d="M24.28,10.54a1.79,1.79,0,0,0,.8-.95,1.87,1.87,0,0,1-.76,1Z" transform="translate(0 0)"></path>
        <path class="cls-25" d="M22.59,9.33a3.47,3.47,0,0,0,.71.86,1.33,1.33,0,0,0,1,.34v.11a1.41,1.41,0,0,1-1-.41,3.5,3.5,0,0,1-.68-.9" transform="translate(0 0)"></path>
        <path class="cls-25" d="M24,9.54a1.12,1.12,0,0,0,.44-.77,1.18,1.18,0,0,1-.38.85Z" transform="translate(0 0)"></path>
        <path class="cls-25" d="M23.08,8.6a2.44,2.44,0,0,0,.39.61.84.84,0,0,0,.6.32v.1a.93.93,0,0,1-.64-.38,2.16,2.16,0,0,1-.35-.65" transform="translate(0 0)"></path>
        <path class="cls-24" d="M25.75,15.71A3.38,3.38,0,0,0,23.31,17a4,4,0,0,0,0,2.83s0-.28.51-.44a3,3,0,0,0,1.11,1.68,2.31,2.31,0,0,1,0-.7c.06-.12.56,1,1.21,1,0,0-.08-.49,0-.55s.47.61,1.09.8c0,0-.13-.61,0-.71s.91.41.91.41a2.82,2.82,0,0,0,.11-.6c0-.13.49.28.52.4a6.17,6.17,0,0,0-.16-1.41c-.1-.17.55-.14.58,0a2.32,2.32,0,0,0-.45-1.19c-.39-.36.33-.07.45,0s-.29-.83-1.12-1.24.57-.16.57-.16a3.94,3.94,0,0,0-2.89-1.47" transform="translate(0 0)"></path>
        <path class="cls-25" d="M24.79,16.47a2.25,2.25,0,0,1,1.42-.18,4.92,4.92,0,0,1,1.36.44,4.76,4.76,0,0,0-1.37-.39,2.18,2.18,0,0,0-1.36.22Z" transform="translate(0 0)"></path>
        <path class="cls-26" d="M26.22,15s.77-4.17,4.25-4.61c0,0-.16.84,0,.84s.9-.94,1.15-.89c0,0,0,.6.11.67s.57-.48,1.12-.56c0,0-.33.48,0,.7a1.09,1.09,0,0,1,1.12-.47s-.64.56-.24.76,1.1,0,1.29.05-1.19.86-.47,1,1.25-.16,1.68,0c0,0-1.1.52-.72.69s1.2,0,1.28.06-1.39,1.28.44,1c0,0-5.62,5.77-11,.77" transform="translate(0 0)"></path>
        <path class="cls-25" d="M23.62,18.77a3.63,3.63,0,0,1,.3-1.29,2.14,2.14,0,0,1,.87-1l.05.09a2.16,2.16,0,0,0-.88.94,3.52,3.52,0,0,0-.34,1.27" transform="translate(0 0)"></path>
        <path class="cls-25" d="M25.55,17.22a1.8,1.8,0,0,1,1.49,0,6.27,6.27,0,0,1,1.31.75,6,6,0,0,0-1.32-.7,1.74,1.74,0,0,0-1.43,0Z" transform="translate(0 0)"></path>
        <path class="cls-25" d="M24.61,20.07a5.66,5.66,0,0,1,.12-1.54,2,2,0,0,1,.82-1.31l.05.09a1.94,1.94,0,0,0-.82,1.23,5.57,5.57,0,0,0-.17,1.53" transform="translate(0 0)"></path>
        <path class="cls-25" d="M26.2,18a1.3,1.3,0,0,1,1.18.13,5.4,5.4,0,0,1,1,.67,5.44,5.44,0,0,0-1-.63,1.23,1.23,0,0,0-1.1-.08Z" transform="translate(0 0)"></path>
        <path class="cls-25" d="M25.59,20.12a4.44,4.44,0,0,1,0-1.15,1.38,1.38,0,0,1,.57-1l.05.09a1.32,1.32,0,0,0-.57.92,4.83,4.83,0,0,0-.09,1.14" transform="translate(0 0)"></path>
        <path class="cls-25" d="M27,19.07a.89.89,0,0,1,.66.23,3.27,3.27,0,0,1,.51.47,3.71,3.71,0,0,0-.54-.42.78.78,0,0,0-.6-.18Z" transform="translate(0 0)"></path>
        <path class="cls-25" d="M26.71,20.48a3.64,3.64,0,0,1-.06-.74,1.19,1.19,0,0,1,.06-.37.41.41,0,0,1,.26-.3l0,.1c-.21.06-.27.35-.3.58a3.56,3.56,0,0,0,0,.73" transform="translate(0 0)"></path>
        <path class="cls-25" d="M24,15.74a19.65,19.65,0,0,1,2,1.89,6.9,6.9,0,0,1,1.47,2.3,8,8,0,0,0-1.53-2.25c-.6-.68-1.26-1.31-1.92-1.94" transform="translate(0 0)"></path>
        <path class="cls-27" d="M31.22,7.24l.64.21a1,1,0,0,1-.22.43c-.08,0,.17.15.17.15s-.52.69-.66.72.17.14.25.1a2.11,2.11,0,0,1-.7.48c-.2,0,.17.12.17.12a2.69,2.69,0,0,1-1.15.27c-.51,0,1.5-2.48,1.5-2.48" transform="translate(0 0)"></path>
        <path class="cls-24" d="M29.15,9.77a2.87,2.87,0,0,1,2.3-3,1.34,1.34,0,0,0,0,.42h.22a1.76,1.76,0,0,1-.33.79c-.16.14.24.08.24.08a2.74,2.74,0,0,1-.77.82s.24.09.31.06a3.42,3.42,0,0,1-.88.54c-.25,0,.17.13.17.13s-.88.38-1.26.19" transform="translate(0 0)"></path>
        <path class="cls-17" d="M29.07,9.4s.19.18.86-1.05l-.18,0s.57-.94.42-1.22l-.17,0a1.34,1.34,0,0,0-.45-1.12c-.09-.11-.09.11-.09.11A2.75,2.75,0,0,1,29,5.86L29,6a1.47,1.47,0,0,0-.26-.21s-.06.4.05.46l.13-.15a1,1,0,0,1,.08.77s.17.13.26.1,0,.65-.12.77.26.32.26.32a3.44,3.44,0,0,1-.29,1.39" transform="translate(0 0)"></path>
        <path class="cls-25" d="M29.22,8.89c.06-.06.1,0,.15-.07l.14-.07a1.45,1.45,0,0,0,.22-.21,1.15,1.15,0,0,1-.21.23l-.13.08-.12.06Z" transform="translate(0 0)"></path>
        <path class="cls-25" d="M29.22,8.1a1,1,0,0,0,.4-.23,2.69,2.69,0,0,0,.3-.37,1.39,1.39,0,0,1-.7.65Z" transform="translate(0 0)"></path>
        <path class="cls-25" d="M29.07,7.35a1.46,1.46,0,0,0,.54-.86,1.44,1.44,0,0,1-.52.9Z" transform="translate(0 0)"></path>
        <path class="cls-25" d="M28.85,6.61a2.78,2.78,0,0,0,.24-.49,3.28,3.28,0,0,1-.2.52Z" transform="translate(0 0)"></path>
        <path class="cls-27" d="M29.07,9.39a3,3,0,0,1-.37-3.65,1.25,1.25,0,0,0,.05.46l.13-.15a.85.85,0,0,1,.08.77.5.5,0,0,0,.28.09,1.36,1.36,0,0,1-.17.85,1.37,1.37,0,0,0,.29.25,3,3,0,0,1-.29,1.38" transform="translate(0 0)"></path>
        <path class="cls-17" d="M28.93,9.91s.28,0,0-1.46l-.14.15s-.16-1.18-.49-1.31l-.1.16a1.51,1.51,0,0,0-1.15-.63c-.15,0,0,.16,0,.16a4,4,0,0,1-.6,0v.13a1.36,1.36,0,0,0-.36,0s.23.37.36.35V7.24a1.11,1.11,0,0,1,.6.59s.24,0,.29-.09.45.54.43.73.44.09.44.09a3.66,3.66,0,0,1,.72,1.35" transform="translate(0 0)"></path>
        <path class="cls-25" d="M28.7,9.39c0-.1.06-.11.08-.17l.06-.15a1.14,1.14,0,0,0,.05-.33,1.27,1.27,0,0,1,0,.34l-.05.16-.06.13Z" transform="translate(0 0)"></path>
        <path class="cls-25" d="M28.15,8.73a1,1,0,0,0,.17-.47,2.26,2.26,0,0,0,0-.52,3,3,0,0,1,0,.52,1,1,0,0,1-.16.5Z" transform="translate(0 0)"></path>
        <path class="cls-25" d="M27.51,8.2a1.54,1.54,0,0,0-.15-1.09,1.59,1.59,0,0,1,.2,1.11Z" transform="translate(0 0)"></path>
        <path class="cls-25" d="M26.82,7.74a2.36,2.36,0,0,0-.15-.58,2.21,2.21,0,0,1,.2.58Z" transform="translate(0 0)"></path>
        <path class="cls-24" d="M28.93,9.91a3.27,3.27,0,0,1-2.84-2.8s.2.29.36.35V7.24c.11,0,.34.07.6.59a.46.46,0,0,0,.3-.12,1.65,1.65,0,0,1,.45.83,1.61,1.61,0,0,0,.41,0,3.21,3.21,0,0,1,.72,1.35" transform="translate(0 0)"></path>
        <path class="cls-25" d="M27.73,14.45a5.79,5.79,0,0,1,1.32-2.51,5.79,5.79,0,0,0-1.22,2.53Z" transform="translate(0 0)"></path>
        <path class="cls-25" d="M28.68,15.14a9.24,9.24,0,0,1,.79-2,4.61,4.61,0,0,1,1.35-1.59,4.55,4.55,0,0,0-1.3,1.62,9.21,9.21,0,0,0-.74,1.95Z" transform="translate(0 0)"></path>
        <path class="cls-25" d="M29.8,14.86a6.46,6.46,0,0,1,2.4-3,6.45,6.45,0,0,0-2.3,3.07Z" transform="translate(0 0)"></path>
        <path class="cls-25" d="M30.82,15.26a8.43,8.43,0,0,1,1.29-1.78A13.35,13.35,0,0,1,33.73,12a14.1,14.1,0,0,0-1.58,1.51,8,8,0,0,0-1.23,1.79Z" transform="translate(0 0)"></path>
        <path class="cls-25" d="M32.33,15.35a15.94,15.94,0,0,0,1.9-2,16.77,16.77,0,0,1-1.83,2.12Z" transform="translate(0 0)"></path>
        <path class="cls-25" d="M33.89,15.1A5.27,5.27,0,0,0,35.41,14a5.69,5.69,0,0,1-1.47,1.2Z" transform="translate(0 0)"></path>
        <path class="cls-24" d="M26.19,15.15a4.6,4.6,0,0,1,2.6-1s-.23.7-.06.71a9,9,0,0,1,2.35-.42s-.25.47-.21.63,1.27-.53,2-.49c0,0-.41.65-.09.68s.88-.6,1.55-.62c0,0-.38.7-.06.73s1.27-.64,1.68-.73c0,0-.35.36-.17.49s1.06-.55,1.06-.55-5.39,5.11-10.61.55" transform="translate(0 0)"></path>
        <path class="cls-25" d="M26.61,15.5a4.41,4.41,0,0,0,.8-.35,4.83,4.83,0,0,0,.76-.44,2.9,2.9,0,0,1-.71.54,2.53,2.53,0,0,1-.85.25" transform="translate(0 0)"></path>
        <path class="cls-25" d="M28,16.28a6.52,6.52,0,0,0,1.14-.43,2.94,2.94,0,0,0,1-.7,2.29,2.29,0,0,1-.94.8,3.78,3.78,0,0,1-1.18.33" transform="translate(0 0)"></path>
        <path class="cls-25" d="M29.06,16.78a11.93,11.93,0,0,0,1.54-.59A3.88,3.88,0,0,0,32,15.28a3.26,3.26,0,0,1-1.31,1,7.24,7.24,0,0,1-1.58.49" transform="translate(0 0)"></path>
        <path class="cls-25" d="M31.19,17a7.78,7.78,0,0,0,1.31-.69,5,5,0,0,0,1.13-1,3.54,3.54,0,0,1-1.07,1,5,5,0,0,1-1.37.61" transform="translate(0 0)"></path>
        <path class="cls-17" d="M29,9.39a4.37,4.37,0,0,1-1.36,3,11.91,11.91,0,0,1-2.46,1.84c-1.45.88-2.74,1.36-4.14,2.38a20.6,20.6,0,0,0-3.45,3.25c-1.36,1.63-1.86,2.5-1.86,3.83a5.36,5.36,0,0,0,0,.55h.2c0-.2,0-.37,0-.54,0-1.27.45-2.06,1.81-3.69a19.44,19.44,0,0,1,3.42-3.22,46,46,0,0,1,4.12-2.37,12.76,12.76,0,0,0,2.5-1.87A4.6,4.6,0,0,0,29.18,9.4Z" transform="translate(0 0)"></path>
        <path class="cls-17" d="M26.29,14.93c-.47.17-1,.19-1.51.37a17.18,17.18,0,0,0-6.06,3.92,9.62,9.62,0,0,0-3,5l.2,0a9.58,9.58,0,0,1,2.93-4.92,17.32,17.32,0,0,1,6-3.87c.47-.17,1-.18,1.51-.36Z" transform="translate(0 0)"></path>
        <path class="cls-17" d="M15.93,14.75a8.75,8.75,0,0,1,.57,3.11,7.1,7.1,0,0,1-.34,2.27,12.19,12.19,0,0,1-.55,1.29,2.32,2.32,0,0,0-.25,1c0,.76.35,1.37.34,1.75v0l.21,0h0c0-.48-.34-1.05-.34-1.75a2,2,0,0,1,.23-.93,13.64,13.64,0,0,0,.55-1.32,7.28,7.28,0,0,0,.36-2.34,8.76,8.76,0,0,0-.59-3.18Z" transform="translate(0 0)"></path>
        <path class="cls-17" d="M8.23,17.9A1.7,1.7,0,0,1,9,17.73a1.81,1.81,0,0,1,1.29.52c.16.16.3.37.48.54a5.1,5.1,0,0,0,1,.67,5.83,5.83,0,0,1,1.39,1.08,14.67,14.67,0,0,1,2.51,3.72l.19-.09a15.08,15.08,0,0,0-2.55-3.77,6,6,0,0,0-1.43-1.12,5.17,5.17,0,0,1-1-.63c-.16-.16-.3-.36-.48-.54A2,2,0,0,0,9,17.52a2,2,0,0,0-.86.19Z" transform="translate(0 0)"></path>
        <path class="cls-17" d="M8.64,20.25c.67-.33,1.38-1,2.08-1h0a2,2,0,0,1,.69.08,3.44,3.44,0,0,1,.65.31l.28.15.09.05h.11v0l0,0-.2-.15-.06.09.15.1,0,0h0l0,0h0v0l0,0h0l0,0v0h0l0,0,0,0v-.05h0l0,0v-.05h0v0s-.2-.11-.42-.23a5.11,5.11,0,0,0-.64-.3,2.58,2.58,0,0,0-.72-.09h0c-.76,0-1.48.72-2.12,1Z" transform="translate(0 0)"></path>
        <path class="cls-17" d="M11.08,20.44a1.14,1.14,0,0,1-.18-.59.41.41,0,0,1,0-.14.55.55,0,0,1,.41-.21h0a1.6,1.6,0,0,1,.57.16l.56.25.08-.2L12,19.46a2,2,0,0,0-.65-.17H11.3a.74.74,0,0,0-.56.32.52.52,0,0,0-.05.24,1.37,1.37,0,0,0,.23.73Z" transform="translate(0 0)"></path>
        <path class="cls-17" d="M10.53,19.12a1.8,1.8,0,0,0-.93.72,1.53,1.53,0,0,0-.24.82,4.07,4.07,0,0,0,.31,1.15h.11a4.59,4.59,0,0,1-.31-1.15,1.45,1.45,0,0,1,.22-.77,1.66,1.66,0,0,1,.85-.66Z" transform="translate(0 0)"></path>
        <path class="cls-17" d="M35.31,4.64a10.15,10.15,0,0,1-3.09,3.41,8.8,8.8,0,0,0-1.6,1.31c-1.37,1.27-2.92,3.34-4.48,4.27l.11.18c1.61-1,3.16-3.05,4.51-4.3a8.92,8.92,0,0,1,1.56-1.28,10.2,10.2,0,0,0,3.18-3.5Z" transform="translate(0 0)"></path>
        <path class="cls-17" d="M30.4,9.85a2.72,2.72,0,0,1,1.4-.56.58.58,0,0,1,.4.13.71.71,0,0,1,.19.5l.21,0a.9.9,0,0,0-.26-.63.76.76,0,0,0-.54-.19,2.89,2.89,0,0,0-1.52.61Z" transform="translate(0 0)"></path>
        <path class="cls-17" d="M31.87,8.53a9.65,9.65,0,0,0,.81-.62c.5-.49.63-1.21.63-2.52H33.1c0,1.31-.13,2-.57,2.37-.1.09-.65.52-.77.6Z" transform="translate(0 0)"></path>
        <path class="cls-17" d="M15.93,24.28a3.74,3.74,0,0,1,3.07-3,8.8,8.8,0,0,1,1.53-.14,10,10,0,0,1,2.42.31,26.37,26.37,0,0,1,3.83,1.41,19.66,19.66,0,0,0,7.43,1.86,9.65,9.65,0,0,0,2.44-.3l0-.2a9.71,9.71,0,0,1-2.39.29,19.62,19.62,0,0,1-7.35-1.84A25.14,25.14,0,0,0,23,21.27,10.51,10.51,0,0,0,20.53,21,8.41,8.41,0,0,0,19,21.1a3.93,3.93,0,0,0-3.23,3.15Z" transform="translate(0 0)"></path>
        <path class="cls-24" d="M6.52,10a2.61,2.61,0,0,0,1.22,1.8,2.09,2.09,0,0,0,.48.14,1.76,1.76,0,0,0,1.3-.26A4.88,4.88,0,0,0,11,10l-.5.13a4.19,4.19,0,0,0,.75-1.58s-.54.13-.7.14c0,0,.63-1,.57-1.33,0,0-.41.15-.6.19a1.6,1.6,0,0,0,.41-1,2.15,2.15,0,0,1-.48.23,4.86,4.86,0,0,0,0-1s-.3.16-.4.23A1.83,1.83,0,0,0,10,5.52a3.83,3.83,0,0,1-.46.5s-.25-.1-.23-.27c0,0-.42.22-.36.6A.35.35,0,0,1,8.53,6S7.89,6.79,8,7.32a.47.47,0,0,1-.47-.26A2.71,2.71,0,0,0,7.4,8.45S7,8.54,6.86,8.3A3.19,3.19,0,0,0,7,10.05a.4.4,0,0,1-.5-.1" transform="translate(0 0)"></path>
        <path class="cls-25" d="M10.6,9.09a4.94,4.94,0,0,1-1.14,1,2.5,2.5,0,0,1-1.46.4v-.1a2.46,2.46,0,0,0,1.42-.34,4.69,4.69,0,0,0,1.17-1" transform="translate(0 0)"></path>
        <path class="cls-25" d="M8.09,12.69a3.86,3.86,0,0,1-.22-1.62,7.29,7.29,0,0,1,.37-1.6A11.86,11.86,0,0,1,8.87,8a13.43,13.43,0,0,1,.79-1.44,25,25,0,0,0-1.34,3,7.18,7.18,0,0,0-.4,1.58,4,4,0,0,0,.17,1.61" transform="translate(0 0)"></path>
        <path class="cls-25" d="M10.25,10.45a2.61,2.61,0,0,1-1.05.78,2.18,2.18,0,0,1-1.31.12h0a2.82,2.82,0,0,0,1.29-.16,2.65,2.65,0,0,0,1.07-.74Z" transform="translate(0 0)"></path>
        <path class="cls-25" d="M7,10.45a2,2,0,0,0,.39.48,2.61,2.61,0,0,0,.46.42,3.14,3.14,0,0,1-.5-.38A2,2,0,0,1,7,10.45" transform="translate(0 0)"></path>
        <path class="cls-25" d="M7.23,9.2a3.1,3.1,0,0,0,.26.72.8.8,0,0,0,.52.47l0,.1a.91.91,0,0,1-.55-.55,2.83,2.83,0,0,1-.21-.74" transform="translate(0 0)"></path>
        <path class="cls-25" d="M8.39,9.15A2.28,2.28,0,0,0,9.48,9a2.37,2.37,0,0,0,.86-.72A2.27,2.27,0,0,1,9.5,9a2.18,2.18,0,0,1-1.12.26Z" transform="translate(0 0)"></path>
        <path class="cls-25" d="M7.62,8a2.7,2.7,0,0,0,.23.73.72.72,0,0,0,.54.45v.1a.78.78,0,0,1-.58-.53A2.83,2.83,0,0,1,7.62,8" transform="translate(0 0)"></path>
        <path class="cls-25" d="M8.64,8.46A3.52,3.52,0,0,1,8.51,6.7a3.54,3.54,0,0,0,.23,1.73Z" transform="translate(0 0)"></path>
        <path class="cls-25" d="M10.34,7.29a1.45,1.45,0,0,1-.65.81,3.25,3.25,0,0,1-1,.39l0-.1a2.86,2.86,0,0,0,1-.34,1.37,1.37,0,0,0,.68-.76" transform="translate(0 0)"></path>
        <path class="cls-25" d="M9.19,7.33a1.2,1.2,0,0,0,1-.75,1.24,1.24,0,0,1-.94.83Z" transform="translate(0 0)"></path>
        <path class="cls-25" d="M9,6.51a.87.87,0,0,0,.21.83l-.05.06A.9.9,0,0,1,9,6.51" transform="translate(0 0)"></path>
        <path class="cls-24" d="M3.83,12.82s1.89.08,2.38-.77a.71.71,0,0,0,.1-.3,4.44,4.44,0,0,0,0-1.8s-.09.33-.22.4a3.38,3.38,0,0,0-.7-1.91s-.09.45-.28.54A2.12,2.12,0,0,0,3.83,7.2s.17.58,0,.67A3.84,3.84,0,0,0,2.16,6.7a2.35,2.35,0,0,1,.14.67,9,9,0,0,0-1.06-.51L1,7.57l-.69-.1s.17.39.2.5L0,8s.78,1.3,1.22,1.5l-1,.23h0A19.77,19.77,0,0,0,1.8,11.05s-.9.29-1,.3.66,1.29,3.05,1.47" transform="translate(0 0)"></path>
        <path class="cls-25" d="M1.06,8.16a15.49,15.49,0,0,0,2.29,2.36,6.92,6.92,0,0,0,2.86,1.53h0a4.41,4.41,0,0,1-1.57-.52,7.52,7.52,0,0,1-1.35-1A15,15,0,0,1,1.05,8.17Z" transform="translate(0 0)"></path>
        <path class="cls-25" d="M4.31,8.37A4.06,4.06,0,0,1,4,10.65a1.7,1.7,0,0,1-.84.79A2,2,0,0,1,2,11.53a2.33,2.33,0,0,0,1.12-.15,1.64,1.64,0,0,0,.78-.78,3.07,3.07,0,0,0,.32-1.08,6.33,6.33,0,0,0,0-1.15" transform="translate(0 0)"></path>
        <path class="cls-25" d="M5.49,9.45a4.17,4.17,0,0,1-.26,1.91,1.9,1.9,0,0,1-.6.77,1.49,1.49,0,0,1-.93.25,1.85,1.85,0,0,0,.89-.3,1.8,1.8,0,0,0,.54-.76,4.94,4.94,0,0,0,.36-1.87" transform="translate(0 0)"></path>
        <path class="cls-25" d="M3.19,8.23a3.18,3.18,0,0,1,.09.87A2.22,2.22,0,0,1,3.1,10a.92.92,0,0,1-.72.5,1.72,1.72,0,0,1-.86-.19,2.09,2.09,0,0,0,.85.12A.78.78,0,0,0,3,9.92a2,2,0,0,0,.21-.82,6.32,6.32,0,0,0,0-.87" transform="translate(0 0)"></path>
        <path class="cls-25" d="M2,9.28V9.22l0-.11c0-.07,0-.14,0-.22A2.12,2.12,0,0,0,2,8.45a1.72,1.72,0,0,0-.43-.78,1.71,1.71,0,0,1,.48.77,1.69,1.69,0,0,1,.07.45.88.88,0,0,1,0,.23l0,.12s0,.06-.08.14Z" transform="translate(0 0)"></path>
        <path class="cls-25" d="M.66,8.72A1.62,1.62,0,0,0,2,9.28v.11A1.71,1.71,0,0,1,.66,8.72" transform="translate(0 0)"></path>
        <path class="cls-24" d="M8,14.36s.09-2-2.5-1.41l.23.24a3.18,3.18,0,0,0-1.39.36l.48.14s-1.4.71-1.63,1.37l.73.07a2.29,2.29,0,0,0-.81,1.7s.31-.21.4-.17S3,17.74,3.39,18.2c0,0,.19-.37.39-.39,0,0,0,.64.07.77s.15-.48.3-.51c0,0,.17.26.11.42,0,0,.74-.46.87-.93,0,0,.17.35.1.51,0,0,1.1-1,1.16-1.22,0,0,.18.27.13.39s1.08-.71.94-1.32c0,0,.21.16.16.31A9,9,0,0,0,8,14.36" transform="translate(0 0)"></path>
        <path class="cls-25" d="M3.67,17.34c.23-.5.48-1,.75-1.45a6.59,6.59,0,0,1,.94-1.34A5.28,5.28,0,0,1,6.6,13.48a4.51,4.51,0,0,1,1.49-.65,5.07,5.07,0,0,0-1.47.69,5.14,5.14,0,0,0-1.21,1.07,15,15,0,0,0-1.74,2.75" transform="translate(0 0)"></path>
        <path class="cls-25" d="M6.15,13.86a3,3,0,0,0-1.25-.27,2.85,2.85,0,0,1,1.29.17Z" transform="translate(0 0)"></path>
        <path class="cls-25" d="M6.69,16.36A11.9,11.9,0,0,0,6.59,15a4.67,4.67,0,0,0-.13-.65.88.88,0,0,0-.31-.52l0-.1a1,1,0,0,1,.35.6c0,.22.08.44.11.67a11.82,11.82,0,0,1,0,1.33" transform="translate(0 0)"></path>
        <path class="cls-25" d="M5.09,14.79a7.05,7.05,0,0,0-1-.11,7.36,7.36,0,0,1,1.05,0Z" transform="translate(0 0)"></path>
        <path class="cls-25" d="M5.42,17.51a9.91,9.91,0,0,0,0-1.44,4.17,4.17,0,0,0-.08-.71.85.85,0,0,0-.31-.57l0-.1a.93.93,0,0,1,.35.66,4.36,4.36,0,0,1,0,.72,11.61,11.61,0,0,1-.1,1.44" transform="translate(0 0)"></path>
        <path class="cls-25" d="M4.65,15.62a.78.78,0,0,0-.51.15,2.67,2.67,0,0,0-.44.38,2.33,2.33,0,0,1,.41-.42.85.85,0,0,1,.57-.21Z" transform="translate(0 0)"></path>
        <path class="cls-25" d="M4.86,16.73a3.11,3.11,0,0,0,0-.61c0-.19-.08-.42-.23-.5l.05-.09a.72.72,0,0,1,.23.59,3.15,3.15,0,0,1-.06.61" transform="translate(0 0)"></path>
        <path class="cls-17" d="M20.6,7a11.37,11.37,0,0,1,.55,3.65c0,.33,0,.64,0,.95a7.59,7.59,0,0,1-1.24,3.9c-.12.18-1.08,1.5-2.05,3a16,16,0,0,0-2.1,3.84,5.28,5.28,0,0,0-.14,1.09,3.27,3.27,0,0,0,.12.84l.2,0a3.4,3.4,0,0,1-.11-.79,5.84,5.84,0,0,1,.13-1A16.51,16.51,0,0,1,18,18.59c1-1.46,1.93-2.78,2.05-3a7.86,7.86,0,0,0,1.28-4q0-.46,0-1a11.56,11.56,0,0,0-.56-3.72Z" transform="translate(0 0)"></path>
        <path class="cls-26" d="M21,7.37s.76-.14,1.43-1.59a.86.86,0,0,1-.37,0,2.18,2.18,0,0,0,.63-2,2,2,0,0,1-.32.3,6.22,6.22,0,0,0-.07-1.41s-.24.39-.42.47c0,0-.05-1.42-.24-1.57,0,0-.34.52-.44.53s.09-1-.29-1.28a5.09,5.09,0,0,1-.4.71c-.11.09,0-1-.46-1.29a2.61,2.61,0,0,1-.26.56S19.57.05,19.43,0s-.1.39-.22.47A1.82,1.82,0,0,0,18.64,0a3.73,3.73,0,0,1-.19.63,3,3,0,0,0-.8-.47s.12.62.11.71.1.2-.19.16L17,1l.35.71-.66-.06a4.41,4.41,0,0,0,.59,1c.32.3-.09.19-.13.19a2.31,2.31,0,0,1-.7-.26c0-.09.55,1,.55,1a1,1,0,0,1-.55,0c-.21-.11.27.6.33.67l.4.58s.14.16,0,.16-.58-.19-.54-.1.93.86.87,1-.65,0-.56.11a9.75,9.75,0,0,0,1.3,1.09,5.62,5.62,0,0,0,1.81.51c.94,0,.91-.08.91-.08" transform="translate(0 0)"></path>
        <path class="cls-25" d="M18.41,1.5a17.17,17.17,0,0,1,1.41,2.85c.37,1,.73,2,1,3-.37-1-.7-2-1.11-3-.19-.5-.39-1-.61-1.47s-.44-1-.7-1.42" transform="translate(0 0)"></path>
        <path class="cls-25" d="M20.7,7a12.34,12.34,0,0,1-2.5-.52,11.86,11.86,0,0,0,2.5.41Z" transform="translate(0 0)"></path>
        <path class="cls-25" d="M22.26,5.08A6.5,6.5,0,0,1,20.73,7l-.06-.08a6.43,6.43,0,0,0,1.59-1.85" transform="translate(0 0)"></path>
        <path class="cls-25" d="M20.38,6.08A9.38,9.38,0,0,1,19,5.89a4.39,4.39,0,0,1-1.32-.5A4.45,4.45,0,0,0,19,5.84a9.34,9.34,0,0,0,1.4.13Z" transform="translate(0 0)"></path>
        <path class="cls-25" d="M21.69,4.43a2.48,2.48,0,0,1-.54.89,10.46,10.46,0,0,1-.74.75L20.35,6a10.14,10.14,0,0,0,.76-.71,2.38,2.38,0,0,0,.58-.85" transform="translate(0 0)"></path>
        <path class="cls-25" d="M20.09,5.28a6.18,6.18,0,0,1-1.47-.35,3.61,3.61,0,0,1-1.28-.79,3.44,3.44,0,0,0,1.3.74,6,6,0,0,0,1.46.3Z" transform="translate(0 0)"></path>
        <path class="cls-25" d="M21.17,3.44a3.56,3.56,0,0,1-1,1.83l-.07-.08a3.5,3.5,0,0,0,1.11-1.75" transform="translate(0 0)"></path>
        <path class="cls-25" d="M19.79,4.49a3.65,3.65,0,0,1-2.45-1.15,3.57,3.57,0,0,0,2.45,1Z" transform="translate(0 0)"></path>
        <path class="cls-25" d="M20.83,2.24a2.19,2.19,0,0,1-.28,1.2,4.34,4.34,0,0,1-.72,1l-.07-.07a4.81,4.81,0,0,0,.75-1,2.23,2.23,0,0,0,.32-1.18" transform="translate(0 0)"></path>
        <path class="cls-25" d="M19.37,3.49A5.6,5.6,0,0,1,18.31,3a2.33,2.33,0,0,1-.84-.78,2.33,2.33,0,0,0,.86.73,5.17,5.17,0,0,0,1.07.42Z" transform="translate(0 0)"></path>
        <path class="cls-25" d="M19.87,1.33a5.11,5.11,0,0,1-.06,1.1,2.41,2.41,0,0,1-.39,1l-.08-.07a2.27,2.27,0,0,0,.42-1,5,5,0,0,0,.11-1.09" transform="translate(0 0)"></path>
        <path class="cls-25" d="M18.93,2.48a2.33,2.33,0,0,1-1.33-1,2.66,2.66,0,0,0,.6.56,1.61,1.61,0,0,0,.74.31Z" transform="translate(0 0)"></path>
        <path class="cls-25" d="M19.42,1.09A4.09,4.09,0,0,1,19,2.45l-.09-.05a4.15,4.15,0,0,0,.53-1.31" transform="translate(0 0)"></path>
        <path class="cls-13" d="M15.86,25.9c0-.62.16-.86-.37-1.18a1.89,1.89,0,0,1-.69-1.08,6.72,6.72,0,0,0-.48-1.43s.57.61.95,1,.46,1,.54,1,.26-.64.63-1.2a1.69,1.69,0,0,1,.78-.7s-.86,1-.82,1.48c.12,1.44.16,2.5.17,3.14a17.39,17.39,0,0,0,.51,1.83c0,.22-1.5.77-1.53-.08,0,0-.38-.13,0-.62a5.19,5.19,0,0,0,.28-2.16" transform="translate(0 0)"></path>
        <path class="cls-13" d="M15.86,25.9h.05v-.14c0-.17,0-.31,0-.43a.68.68,0,0,0-.4-.65,1.78,1.78,0,0,1-.67-1,6.46,6.46,0,0,0-.49-1.44l0,0,0,0s.57.61,1,1a1.51,1.51,0,0,1,.37.62c0,.1.07.2.1.27s0,.12.09.16h0l.08-.06A12.56,12.56,0,0,1,16.48,23,1.92,1.92,0,0,1,17,22.5a.77.77,0,0,1,.17-.11l.07,0,0-.05,0,0s-.83.9-.83,1.47v.05c.12,1.44.16,2.49.17,3.13A3.23,3.23,0,0,0,16.78,28a4.12,4.12,0,0,1,.25.75v0a.72.72,0,0,1-.31.2,1.86,1.86,0,0,1-.62.13c-.28,0-.49-.09-.5-.4v0h0a.18.18,0,0,1-.11-.16.63.63,0,0,1,.18-.37,1.73,1.73,0,0,0,.19-.65,7.17,7.17,0,0,0,.11-1.22c0-.11,0-.22,0-.33H15.8c0,.11,0,.21,0,.32a7,7,0,0,1-.1,1.2,1.76,1.76,0,0,1-.17.61.68.68,0,0,0-.2.43.29.29,0,0,0,.19.27l0-.05h-.06c0,.38.31.51.61.51a2.1,2.1,0,0,0,.66-.14,1.29,1.29,0,0,0,.24-.13l.13-.15v0a3.83,3.83,0,0,0-.25-.78,3.56,3.56,0,0,1-.26-1c0-.65-.05-1.7-.17-3.14v0a2,2,0,0,1,.4-.89c.21-.29.41-.51.41-.51l.14-.15-.19.06a1.85,1.85,0,0,0-.82.72,7.07,7.07,0,0,0-.42.81l-.12.29,0,.07v0l0,0v0h0l0,0v0l0,0h0v0l0,0v0l0,0h0v0l0,0h0c0-.05-.07-.23-.15-.43a1.69,1.69,0,0,0-.38-.6c-.38-.35-1-.95-1-.95l-.22-.25.14.3s.09.2.2.48a4.87,4.87,0,0,1,.28.94,1.94,1.94,0,0,0,.71,1.11c.31.2.35.33.35.56s0,.26,0,.43v.15Z" transform="translate(0 0)"></path>
        <path class="cls-28" d="M35.69,24.64s.67.72,2.49-.59a2.6,2.6,0,0,1-.79.09c-.67,0-1.53-.13-1.7.5" transform="translate(0 0)"></path>
        <path class="cls-29" d="M35.67,24.6s.21-1,2.45-.79a2.45,2.45,0,0,0-.73.34c-.55.37-1.24.9-1.72.45" transform="translate(0 0)"></path>
      </g>
      <g class="cls-30">
        <rect class="cls-31" x="31.07" y="3.97" width="1.62" height="1.9" transform="translate(25.3 36.5) rotate(-86.99)"></rect>
      </g>
      <g class="cls-32">
        <rect class="cls-33" x="33.19" y="5" width="1.7" height="1.77"></rect>
      </g>
      <g class="cls-34">
        <rect class="cls-35" x="32.59" y="3.82" width="2.12" height="1.74"></rect>
      </g>
      <g class="cls-36">
        <rect class="cls-37" x="31.66" y="5.35" width="2.07" height="1.72"></rect>
      </g>
      <g class="cls-38">
        <rect class="cls-39" x="31.48" y="3.4" width="1.97" height="1.78" transform="translate(0.08 9.16) rotate(-16.09)"></rect>
      </g>
      <g class="cls-2">
        <path class="cls-40" d="M32.49,5.23A.52.52,0,1,0,33,4.72a.52.52,0,0,0-.52.51" transform="translate(0 0)"></path>
        <path class="cls-15" d="M32.37,10a1,1,0,0,0-.67-.08.9.9,0,0,0-.34,1.5,1.54,1.54,0,0,0,1.38.65,1.66,1.66,0,0,0,.92-1.95,1.69,1.69,0,0,0-.77-.29.79.79,0,0,0-.52.17" transform="translate(0 0)"></path>
        <polygon class="cls-16" points="32.47 11.16 32.53 11.24 32.54 11.14 32.49 11.06 32.47 11.16"></polygon>
        <path class="cls-24" d="M32.42,9.79a1.39,1.39,0,0,0-1.56.08s.77-.26,1.07-.06a1.44,1.44,0,0,0-1,.91s1-.78,1.21-.64c0,0,.36.09.26,1.06,0,0,.26-.19.19-1.07,0,0,.71.29.8.82a1.33,1.33,0,0,0-.52-1,.87.87,0,0,1,.84.52s0-.91-.82-.83c0,0-.28.32-.47.22" transform="translate(0 0)"></path>
        <polygon class="cls-16" points="31.41 11.11 31.49 11.18 31.47 11.07 31.39 11.01 31.41 11.11"></polygon>
        <polygon class="cls-16" points="31.94 11.19 32.02 11.26 32 11.16 31.93 11.09 31.94 11.19"></polygon>
        <polygon class="cls-16" points="32.94 11.04 32.99 11.13 33.01 11.03 32.96 10.94 32.94 11.04"></polygon>
        <polygon class="cls-16" points="33.41 10.73 33.45 10.82 33.48 10.72 33.44 10.63 33.41 10.73"></polygon>
        <polygon class="cls-16" points="31.85 11.48 31.94 11.53 31.91 11.44 31.82 11.39 31.85 11.48"></polygon>
        <polygon class="cls-16" points="32.34 11.59 32.42 11.66 32.4 11.56 32.33 11.49 32.34 11.59"></polygon>
        <polygon class="cls-16" points="32.71 11.54 32.75 11.64 32.78 11.54 32.74 11.45 32.71 11.54"></polygon>
        <polygon class="cls-16" points="33.17 11.3 33.21 11.39 33.24 11.29 33.2 11.2 33.17 11.3"></polygon>
        <path class="cls-15" d="M35.53,4.62a.43.43,0,0,0,.21.22.41.41,0,0,0,.55-.43.72.72,0,0,0-.3-.63.78.78,0,0,0-.83.31.31.31,0,0,0,0,.25.55.55,0,0,0,.14.19.36.36,0,0,0,.24.09" transform="translate(0 0)"></path>
        <polygon class="cls-16" points="35.83 4.17 35.83 4.13 35.8 4.16 35.8 4.2 35.83 4.17"></polygon>
        <polygon class="cls-16" points="36.19 4.5 36.19 4.45 36.16 4.49 36.17 4.54 36.19 4.5"></polygon>
        <polygon class="cls-16" points="36.03 4.31 36.02 4.27 36 4.31 36.01 4.35 36.03 4.31"></polygon>
        <polygon class="cls-16" points="35.63 4.08 35.64 4.04 35.6 4.06 35.59 4.11 35.63 4.08"></polygon>
        <polygon class="cls-16" points="35.37 4.06 35.38 4.01 35.35 4.04 35.34 4.08 35.37 4.06"></polygon>
        <polygon class="cls-16" points="36.14 4.23 36.13 4.19 36.11 4.24 36.13 4.28 36.14 4.23"></polygon>
        <polygon class="cls-16" points="36 4.06 35.99 4.01 35.97 4.05 35.98 4.1 36 4.06"></polygon>
        <polygon class="cls-16" points="35.86 3.97 35.87 3.92 35.83 3.95 35.82 3.99 35.86 3.97"></polygon>
        <polygon class="cls-16" points="35.62 3.92 35.63 3.88 35.59 3.9 35.58 3.95 35.62 3.92"></polygon>
        <path class="cls-24" d="M35.45,4.74a1.38,1.38,0,0,0,1.32.84S36,5.35,35.86,5a1.43,1.43,0,0,0,1.34-.16s-1.24.08-1.35-.18c0,0-.24-.28.4-1,0,0-.32,0-.78.77a1.38,1.38,0,0,1-.17-1.14,1.32,1.32,0,0,0-.16,1.13.87.87,0,0,1-.39-.91s-.51.76.19,1.15c0,0,.41-.09.51.09" transform="translate(0 0)"></path>
        <path class="cls-24" d="M8.75,17.38a1.37,1.37,0,0,0,.15,1.55s-.3-.76-.11-1.06a1.44,1.44,0,0,0,1,.95s-.82-.93-.69-1.18c0,0,.08-.36,1-.31,0,0-.2-.25-1.08-.14,0,0,.26-.72.79-.83a1.29,1.29,0,0,0-1,.56.86.86,0,0,1,.48-.86s-.91.07-.79.85c0,0,.32.28.24.47" transform="translate(0 0)"></path>
        <path class="cls-24" d="M10.85,20.49a1.3,1.3,0,0,0-1.41.43s.64-.42,1-.3a1.35,1.35,0,0,0-.71,1.06s.71-.94,1-.87c0,0,.34,0,.48.92,0,0,.2-.24-.07-1,0,0,.71.1.92.57a1.25,1.25,0,0,0-.71-.81.82.82,0,0,1,.89.28s-.23-.83-.94-.57c0,0-.19.36-.38.32" transform="translate(0 0)"></path>
        <path class="cls-24" d="M8.75,20.07a2.49,2.49,0,0,0-1.17-.65l.43.26.41.24a1,1,0,0,0-.71,0,3,3,0,0,1,.43.07c.11,0,.44,0,.46.09l-.14.12a3.37,3.37,0,0,0-.41.52,2.71,2.71,0,0,0,.57-.25c.1-.06.13-.19.15-.17s0,.23,0,.42a1.84,1.84,0,0,1-.09.59,4.92,4.92,0,0,0,.22-.62l0,.18c0,.19,0,.59,0,.56a2.28,2.28,0,0,0-.17-1.36" transform="translate(0 0)"></path>
      </g>
      <g class="cls-41">
        <rect class="cls-42" x="7.71" y="15.73" width="1.54" height="1.8" transform="translate(-5.83 4.64) rotate(-23.03)"></rect>
      </g>
      <g class="cls-43">
        <rect class="cls-44" x="6.08" y="16.77" width="2.4" height="2.16" transform="translate(-6.4 4.27) rotate(-23.03)"></rect>
      </g>
      <g class="cls-45">
        <rect class="cls-46" x="6.66" y="17.72" width="1.9" height="1.77" transform="translate(-6.67 4.46) rotate(-23.03)"></rect>
      </g>
      <g class="cls-47">
        <rect class="cls-48" x="6.68" y="15.79" width="1.83" height="1.95" transform="translate(-5.95 4.31) rotate(-23.03)"></rect>
      </g>
      <g class="cls-49">
        <rect class="cls-50" x="7.66" y="16.97" width="1.71" height="2.04" transform="translate(-6.36 4.76) rotate(-23.03)"></rect>
      </g>
      <g class="cls-2">
        <path class="cls-40" d="M8.05,18C8,18,7.93,17.8,8,17.58s.24-.38.31-.37.1.22.06.44-.23.38-.3.36" transform="translate(0 0)"></path>
        <path class="cls-9" d="M15.6,31.56a.4.4,0,0,0-.39-.14c-.22.06-.3.24-.27.3l.08.08.18-.1Z" transform="translate(0 0)"></path>
        <path class="cls-10" d="M15.72,31.82s-.07-.29-.18-.3l-.24,0,0,.06.15.21.15,0Z" transform="translate(0 0)"></path>
        <path class="cls-11" d="M15.71,31.86s0-.09,0-.11a.43.43,0,0,0-.15,0l-.21.15s-.06,0,0,.05.1.06.2,0a.33.33,0,0,0,.16-.11" transform="translate(0 0)"></path>
        <path class="cls-12" d="M15.52,31.72l-.13.12-.12.05L15,31.77c0-.06,0-.05,0-.13a.34.34,0,0,1,.21-.12.19.19,0,0,1,.21,0Z" transform="translate(0 0)"></path>
        <path class="cls-9" d="M14.71,26.5a.61.61,0,0,0-.61-.09c-.3.17-.37.44-.29.52L14,27c.09.06.21-.19.22-.19Z" transform="translate(0 0)"></path>
        <path class="cls-10" d="M15,26.84s-.19-.4-.35-.37a3.13,3.13,0,0,1-.35,0l0,.09s.22.24.29.25l.23,0Z" transform="translate(0 0)"></path>
        <path class="cls-11" d="M15,26.9a.11.11,0,0,0-.1-.15,1.25,1.25,0,0,0-.21,0l-.26.29c-.05,0-.08,0,.08.06s.16,0,.29,0a.39.39,0,0,0,.2-.2" transform="translate(0 0)"></path>
        <path class="cls-12" d="M14.64,26.75a1.42,1.42,0,0,0-.15.22c-.06.11-.07.14-.17.11s-.34,0-.42-.08-.07-.07,0-.2a.49.49,0,0,1,.26-.25.29.29,0,0,1,.31,0,.74.74,0,0,1,.19.2" transform="translate(0 0)"></path>
        <path class="cls-9" d="M13.5,28.36a2.09,2.09,0,0,0-2.14.14c-.88.76-.93,1.75-.62,2a3.11,3.11,0,0,0,.55.22c.36.14.59-.81.61-.82Z" transform="translate(0 0)"></path>
        <path class="cls-10" d="M14.57,29.35s-.93-1.25-1.46-1a12,12,0,0,1-1.16.39l0,.32s.92.69,1.16.67l.79-.11a5.58,5.58,0,0,0,.7-.24" transform="translate(0 0)"></path>
        <path class="cls-11" d="M14.61,29.54c0-.14-.06-.5-.44-.45a5.22,5.22,0,0,0-.74.16s-.55,1-.68,1.17-.23.21.32.14.59.06,1-.19a1.4,1.4,0,0,0,.54-.83" transform="translate(0 0)"></path>
        <path class="cls-12" d="M13.43,29.25a6.88,6.88,0,0,0-.35.87c-.11.4-.12.51-.48.49s-1.17.21-1.49,0-.31-.18-.22-.64a1.66,1.66,0,0,1,.72-1,.91.91,0,0,1,1.06-.22,2.36,2.36,0,0,1,.76.52" transform="translate(0 0)"></path>
        <path class="cls-9" d="M17.85,28.62a1.82,1.82,0,0,0-1.86,0c-.81.62-.91,1.47-.66,1.67a3.25,3.25,0,0,0,.46.23c.31.14.57-.67.58-.68Z" transform="translate(0 0)"></path>
        <path class="cls-10" d="M18.73,29.55s-.74-1.14-1.21-1-1,.28-1,.28l0,.27s.76.65,1,.65.6-.05.69,0a6,6,0,0,0,.63-.17" transform="translate(0 0)"></path>
        <path class="cls-11" d="M18.75,29.72c0-.12,0-.44-.36-.42a4.85,4.85,0,0,0-.65.09s-.54.84-.66,1-.21.17.27.14.51.09.88-.11a1.21,1.21,0,0,0,.52-.68" transform="translate(0 0)"></path>
        <path class="cls-12" d="M17.74,29.39a5.41,5.41,0,0,0-.35.74c-.13.34-.14.43-.45.39s-1,.12-1.3-.08-.25-.17-.15-.57a1.51,1.51,0,0,1,.69-.85.83.83,0,0,1,.94-.13,2.23,2.23,0,0,1,.62.5" transform="translate(0 0)"></path>
        <path class="cls-9" d="M20.65,27.5a2,2,0,0,0-2-.25c-.94.54-1.16,1.44-.92,1.69a5.06,5.06,0,0,0,.47.3c.3.19.68-.64.7-.65Z" transform="translate(0 0)"></path>
        <path class="cls-10" d="M21.46,28.61s-.63-1.32-1.16-1.21-1.13.15-1.13.15l-.09.29s.72.79,1,.82.64,0,.74.05a6.62,6.62,0,0,0,.69-.1" transform="translate(0 0)"></path>
        <path class="cls-11" d="M21.46,28.79c0-.13,0-.46-.33-.49a5.83,5.83,0,0,0-.71,0s-.68.82-.82,1-.26.15.26.18.53.16.95,0a1.31,1.31,0,0,0,.65-.66" transform="translate(0 0)"></path>
        <path class="cls-12" d="M20.43,28.31a5.85,5.85,0,0,0-.48.74c-.17.34-.2.44-.52.36s-1.12,0-1.38-.26-.25-.22-.08-.63a1.55,1.55,0,0,1,.84-.81.87.87,0,0,1,1,0,2.34,2.34,0,0,1,.6.62" transform="translate(0 0)"></path>
        <path class="cls-9" d="M21.46,30.87a.64.64,0,0,0,.58-.28c.15-.32.05-.6-.06-.62h-.17c-.12,0-.07.3-.08.3Z" transform="translate(0 0)"></path>
        <path class="cls-10" d="M21.05,30.72s.4.24.52.12l.28-.24,0-.1-.4-.05-.21.12Z" transform="translate(0 0)"></path>
        <path class="cls-11" d="M21,30.67a.12.12,0,0,0,.17.08l.19-.13.05-.41c0-.06,0-.08-.1,0s-.18.05-.26.17a.39.39,0,0,0-.05.29" transform="translate(0 0)"></path>
        <path class="cls-12" d="M21.38,30.62a1.5,1.5,0,0,0,0-.28c0-.13,0-.16.08-.19s.3-.2.41-.18.11,0,.14.15a.57.57,0,0,1-.08.37.3.3,0,0,1-.27.19.89.89,0,0,1-.27-.06" transform="translate(0 0)"></path>
        <path class="cls-9" d="M11.54,31.1a.81.81,0,0,0,.76-.32c.23-.38.12-.75,0-.79h-.22c-.15,0-.12.37-.12.38Z" transform="translate(0 0)"></path>
        <path class="cls-10" d="M11,30.87s.49.34.66.19a4.2,4.2,0,0,1,.37-.28l0-.12a1.57,1.57,0,0,0-.5-.1l-.28.13Z" transform="translate(0 0)"></path>
        <path class="cls-11" d="M11,30.8c0,.05.08.18.21.11a1.44,1.44,0,0,0,.26-.15s.07-.43.1-.5.06-.11-.13,0-.23.06-.35.2a.51.51,0,0,0-.09.36" transform="translate(0 0)"></path>
        <path class="cls-12" d="M11.45,30.76a2,2,0,0,0,0-.35c0-.16,0-.2.12-.24s.4-.22.54-.19.13,0,.16.21a.64.64,0,0,1-.14.46.35.35,0,0,1-.36.21,1,1,0,0,1-.34-.1" transform="translate(0 0)"></path>
        <path class="cls-9" d="M15,29.11a.47.47,0,0,0,.47.08c.23-.12.29-.33.24-.39l-.11-.08c-.07,0-.17.14-.18.15Z" transform="translate(0 0)"></path>
        <path class="cls-10" d="M14.85,28.84s.13.31.26.3l.27,0,0-.07-.22-.2-.18,0Z" transform="translate(0 0)"></path>
        <path class="cls-11" d="M14.85,28.79a.09.09,0,0,0,.07.12h.17l.21-.22s.06,0-.06-.05-.13,0-.23,0a.32.32,0,0,0-.16.15" transform="translate(0 0)"></path>
        <path class="cls-12" d="M15.09,28.92l.12-.17c0-.08,0-.11.13-.08s.26,0,.32.07.06.06,0,.15a.39.39,0,0,1-.21.19.21.21,0,0,1-.24,0,.52.52,0,0,1-.14-.15" transform="translate(0 0)"></path>
        <path class="cls-9" d="M19.27,30.9a1.81,1.81,0,0,0,1.78-.53c.59-.82.44-1.66.14-1.78a3.75,3.75,0,0,0-.5-.08c-.34,0-.34.8-.36.82Z" transform="translate(0 0)"></path>
        <path class="cls-10" d="M18.17,30.27s1,.87,1.44.59.89-.56.89-.56l0-.28a3.8,3.8,0,0,0-1.1-.33c-.2.06-.56.21-.65.24a4.56,4.56,0,0,0-.55.34" transform="translate(0 0)"></path>
        <path class="cls-11" d="M18.11,30.11c0,.12.14.41.45.3a5.62,5.62,0,0,0,.6-.28s.27-.95.34-1.12.16-.22-.29-.05-.51.06-.81.35a1.22,1.22,0,0,0-.29.8" transform="translate(0 0)"></path>
        <path class="cls-12" d="M19.16,30.13a5.78,5.78,0,0,0,.12-.8c0-.36,0-.45.31-.5s.95-.41,1.26-.3.29.09.3.5a1.42,1.42,0,0,1-.4,1,.82.82,0,0,1-.86.39,2.15,2.15,0,0,1-.73-.3" transform="translate(0 0)"></path>
        <path class="cls-9" d="M13.81,30.21a1.22,1.22,0,0,0,1.24,0c.53-.42.59-1,.42-1.12a3.06,3.06,0,0,0-.31-.15c-.21-.08-.37.46-.38.46Z" transform="translate(0 0)"></path>
        <path class="cls-10" d="M13.22,29.61s.5.75.82.64.68-.2.68-.2l0-.18s-.52-.42-.66-.42l-.46,0Z" transform="translate(0 0)"></path>
        <path class="cls-11" d="M13.2,29.5c0,.08,0,.29.25.27a3.93,3.93,0,0,0,.43-.07L14.3,29c.08-.09.14-.11-.18-.09s-.34-.05-.58.09a.81.81,0,0,0-.34.46" transform="translate(0 0)"></path>
        <path class="cls-12" d="M13.88,29.7a3.29,3.29,0,0,0,.22-.49c.08-.23.09-.29.29-.27s.68-.09.87,0,.17.11.1.37a1,1,0,0,1-.44.58.55.55,0,0,1-.62.1,1.47,1.47,0,0,1-.42-.33" transform="translate(0 0)"></path>
      </g>
    </g>
  </g>
</svg>
