<?xml version="1.0" encoding="UTF-8"?>
<svg xmlns="http://www.w3.org/2000/svg" xmlns:xlink="http://www.w3.org/1999/xlink" viewBox="0 0 34.35 83.27">
  <defs>
    <style>.cls-1{fill:#8e6848;}.cls-2{fill:url(#Безымянный_градиент_7);}.cls-3{fill:#713e21;}.cls-4{fill:#3d271f;}.cls-5{fill:#69391e;}.cls-6{fill:#6b482f;}.cls-7{fill:#5c3624;}.cls-8{fill:#795135;}.cls-9{fill:#9a734f;}.cls-10{fill:#d2d1ca;}.cls-11{fill:#e7e6e3;}.cls-12{fill:#85563a;}.cls-13{fill:#8cb132;}.cls-14{fill:#7a9635;}.cls-15{fill:none;stroke:#8cb132;stroke-miterlimit:10;stroke-width:0.48px;}.cls-16{fill:#9349b6;}.cls-17{fill:#cd9d41;}.cls-18{fill:#9d54ba;}.cls-19{fill:#90b63c;}.cls-20{fill:#91b53b;}</style>
    <linearGradient id="Безымянный_градиент_7" x1="16.85" y1="94.5" x2="18.36" y2="66.33" gradientUnits="userSpaceOnUse">
      <stop offset="0.38" stop-color="#9b714f"></stop>
      <stop offset="0.91" stop-color="#754427"></stop>
      <stop offset="1" stop-color="#6e3c20"></stop>
    </linearGradient>
  </defs>
  <g id="Слой_2" data-name="Слой 2">
    <g id="Слой_1-2" data-name="Слой 1">
      <path class="cls-1" d="M18.37,63.87s2.82,3.31,5,3.45S33,65.1,33,65.1l.75-7.76L18.37,51.92Z"></path>
      <path class="cls-1" d="M1.45,56.8,3,66.91s5.45.82,6.4.54,5.32-1.9,6.54-1.9,2.45-1.68,2.45-1.68V51.92Z"></path>
      <polygon class="cls-2" points="3.71 76.37 18.37 83.27 31.93 76.41 17.83 70.44 3.71 76.37"></polygon>
      <path class="cls-3" d="M3.71,76.37,3,66.91s7-.14,8.86-1.09a40.06,40.06,0,0,1,6.53-1.95l-.54,6.57Z"></path>
      <path class="cls-4" d="M13.62,67.5a2.57,2.57,0,0,0-.83-.49h0a1.73,1.73,0,0,0-1.72.42c-.6.74-.5,1.55-.22,1.68a4.29,4.29,0,0,0,.48.1h0a9.89,9.89,0,0,0,1-.24.6.6,0,0,0,.18,0l.19-.06c.43-.13.49,0,.79-.3a1.18,1.18,0,0,0,.32-.75.73.73,0,0,0-.06-.14h0v0A.3.3,0,0,0,13.62,67.5Z"></path>
      <path class="cls-4" d="M7.67,68.47a3.42,3.42,0,0,0-1.18.39h0a2.21,2.21,0,0,0-1.06,2c.21,1.22,1.08,1.8,1.43,1.64a4.43,4.43,0,0,0,.51-.37s0,0,0,0A10.93,10.93,0,0,0,8,70.9a.86.86,0,0,0,.11-.21l.11-.23c.24-.54.38-.5.38-1a1.51,1.51,0,0,0-.45-.94L8,68.44H8A.35.35,0,0,0,7.67,68.47Z"></path>
      <path class="cls-5" d="M18.37,63.87l-.54,6.57,14.1,6L33,65.1a36.84,36.84,0,0,0-6.3-.24c-1.91.28-5.23,1.09-6.23.55A13.7,13.7,0,0,1,18.37,63.87Z"></path>
      <path class="cls-4" d="M13,70.61a1.12,1.12,0,0,0-.37-.09h0a.66.66,0,0,0-.59.35c-.15.35,0,.64.1.66l.19,0a0,0,0,0,1,0,0,2.43,2.43,0,0,0,.36-.2.15.15,0,0,0,.06,0l.07,0c.14-.1.17-.07.26-.2a.47.47,0,0,0,0-.32s0,0,0,0h0A.12.12,0,0,0,13,70.61Z"></path>
      <path class="cls-4" d="M26.81,67.79a.57.57,0,0,0,0-.26h0s-.11-.3-.37-.31-.42.15-.4.23,0,.08,0,.12h0c.06.06.18.13.22.18l0,0,.05,0c.1.07.08.1.19.12a.29.29,0,0,0,.22,0s0,0,0,0h0A.06.06,0,0,0,26.81,67.79Z"></path>
      <path class="cls-4" d="M30.75,72.53a3.28,3.28,0,0,0-.56-1.12h0A2.25,2.25,0,0,0,28,70.65C26.86,71,26.4,72,26.61,72.32a3.81,3.81,0,0,0,.45.44s0,0,0,0a11.38,11.38,0,0,0,1.28.47.66.66,0,0,0,.22.08l.25.07c.57.16.56.31,1.07.24a1.54,1.54,0,0,0,.87-.59.88.88,0,0,0,0-.2h0v0A.39.39,0,0,0,30.75,72.53Z"></path>
      <path class="cls-4" d="M23.09,68.64a2.49,2.49,0,0,0-.55.79h0a1.72,1.72,0,0,0,.28,1.73c.69.65,1.5.61,1.65.35A3.67,3.67,0,0,0,24.6,71s0,0,0,0a8.93,8.93,0,0,0-.15-1,1.64,1.64,0,0,0,0-.18,1.37,1.37,0,0,0-.05-.19c-.1-.44,0-.49-.23-.81a1.21,1.21,0,0,0-.72-.37l-.15,0h0A.28.28,0,0,0,23.09,68.64Z"></path>
      <path class="cls-6" d="M23.14,76.67a.48.48,0,0,0,.46-.12c.16-.21.13-.42,0-.46l-.13,0c-.08,0-.09.2-.09.2Z"></path>
      <path class="cls-7" d="M22.87,76.5s.25.23.36.16l.23-.13v-.08a1.15,1.15,0,0,0-.28-.09l-.17.06A.87.87,0,0,0,22.87,76.5Z"></path>
      <path class="cls-8" d="M22.85,76.46s0,.1.11.08l.16-.07s.08-.24.1-.28,0-.06-.08,0-.13,0-.21.09A.3.3,0,0,0,22.85,76.46Z"></path>
      <path class="cls-9" d="M23.12,76.47a1.57,1.57,0,0,0,0-.2c0-.09,0-.12.08-.13s.25-.1.33-.06.07,0,.07.12a.4.4,0,0,1-.11.26c-.08.1-.14.11-.22.09A.5.5,0,0,1,23.12,76.47Z"></path>
      <path class="cls-6" d="M20,74.87a1,1,0,0,0,.95-.49c.25-.52.08-1-.11-1a1.5,1.5,0,0,0-.29,0c-.19,0-.11.49-.12.5S20,74.87,20,74.87Z"></path>
      <path class="cls-7" d="M19.32,74.63s.68.39.88.18.45-.41.45-.41l0-.15a2.11,2.11,0,0,0-.67-.07l-.34.2A2.32,2.32,0,0,0,19.32,74.63Z"></path>
      <path class="cls-8" d="M19.26,74.55c0,.06.13.22.29.12a2.44,2.44,0,0,0,.31-.22s.06-.57.08-.67.06-.15-.17,0-.28.09-.42.28A.75.75,0,0,0,19.26,74.55Z"></path>
      <path class="cls-9" d="M19.86,74.45a4.21,4.21,0,0,0,0-.47c0-.2-.05-.25.12-.32s.49-.33.68-.3.18,0,.23.25a.86.86,0,0,1-.12.61.48.48,0,0,1-.45.32A1.37,1.37,0,0,1,19.86,74.45Z"></path>
      <path class="cls-6" d="M17.09,77.15a1,1,0,0,0,1,.13c.5-.29.61-.76.48-.89a2.08,2.08,0,0,0-.24-.15c-.17-.1-.36.33-.37.34S17.09,77.15,17.09,77.15Z"></path>
      <path class="cls-7" d="M16.66,76.58s.34.68.61.62.59-.08.59-.08l.05-.15s-.38-.41-.5-.42l-.39,0A2.6,2.6,0,0,0,16.66,76.58Z"></path>
      <path class="cls-8" d="M16.66,76.48c0,.07,0,.25.17.26a2.58,2.58,0,0,0,.37,0s.36-.43.43-.5.13-.08-.14-.1-.28-.08-.5,0A.72.72,0,0,0,16.66,76.48Z"></path>
      <path class="cls-9" d="M17.2,76.73a3.53,3.53,0,0,0,.24-.39c.09-.18.11-.23.28-.19s.58,0,.71.13.14.11.05.33-.2.29-.43.43a.48.48,0,0,1-.54,0A1.17,1.17,0,0,1,17.2,76.73Z"></path>
      <path class="cls-6" d="M15.83,75.26a.78.78,0,0,0,0-.8c-.26-.35-.62-.41-.71-.3a.92.92,0,0,0-.1.2c-.07.13.28.24.28.25Z"></path>
      <path class="cls-7" d="M15.42,75.63s.5-.31.44-.51a3.5,3.5,0,0,1-.11-.44l-.11,0s-.29.32-.29.41,0,.25,0,.29A2.83,2.83,0,0,0,15.42,75.63Z"></path>
      <path class="cls-8" d="M15.35,75.63c.05,0,.18,0,.18-.14s0-.29,0-.29l-.41-.29c-.06,0-.07-.1-.07.11s0,.22,0,.38A.56.56,0,0,0,15.35,75.63Z"></path>
      <path class="cls-9" d="M15.5,75.2a3.33,3.33,0,0,0-.31-.16C15,75,15,75,15,74.85s0-.45.06-.56.07-.11.24-.06a.63.63,0,0,1,.36.31.35.35,0,0,1,0,.4A.93.93,0,0,1,15.5,75.2Z"></path>
      <path class="cls-6" d="M13.34,75.85s.18-.15.12-.32-.21-.25-.26-.22l-.06.07c-.05,0,.08.14.08.14S13.34,75.85,13.34,75.85Z"></path>
      <path class="cls-7" d="M13.13,76s.24-.06.24-.15a1.17,1.17,0,0,1,0-.2l-.05,0s-.16.1-.17.14a.7.7,0,0,0,0,.12A.57.57,0,0,0,13.13,76Z"></path>
      <path class="cls-8" d="M13.1,75.94s.07,0,.09,0a.43.43,0,0,0,0-.12l-.13-.18s0,0,0,0,0,.08,0,.16A.21.21,0,0,0,13.1,75.94Z"></path>
      <path class="cls-9" d="M13.21,75.79a.66.66,0,0,0-.1-.11c-.06,0-.07-.05,0-.1s0-.19.1-.22,0,0,.1,0a.23.23,0,0,1,.11.17.16.16,0,0,1,0,.18A.55.55,0,0,1,13.21,75.79Z"></path>
      <path class="cls-6" d="M12.58,77.22a1.35,1.35,0,0,0,0-1.38c-.44-.62-1.07-.7-1.23-.52a2.66,2.66,0,0,0-.17.34c-.11.23.48.43.49.44Z"></path>
      <path class="cls-7" d="M11.88,77.86s.86-.53.75-.89-.19-.76-.19-.76l-.2,0a3.19,3.19,0,0,0-.5.71c0,.16,0,.45,0,.52A4.48,4.48,0,0,0,11.88,77.86Z"></path>
      <path class="cls-8" d="M11.75,77.87c.09,0,.33,0,.32-.26a3.67,3.67,0,0,0-.06-.49s-.61-.41-.71-.5-.13-.16-.11.19-.08.38.06.66A1,1,0,0,0,11.75,77.87Z"></path>
      <path class="cls-9" d="M12,77.12a4.84,4.84,0,0,0-.54-.27c-.25-.1-.32-.11-.28-.34s-.07-.76.08-1,.13-.19.42-.1a1,1,0,0,1,.62.52.59.59,0,0,1,.08.7A1.47,1.47,0,0,1,12,77.12Z"></path>
      <path class="cls-10" d="M21.16,72.17l.13,0a1,1,0,0,1,.23.71c0,.08-.05.17-.14.15s0-.1,0-.16C21.37,72.6,21.18,72.41,21.16,72.17Z"></path>
      <path class="cls-10" d="M21.24,71.8c-.06,0-.06-.06-.06-.12S21.32,71.72,21.24,71.8Z"></path>
      <path class="cls-11" d="M17.58,61.23a.37.37,0,0,0,.49,0,4.73,4.73,0,0,1-.12.92c-.05.19,0,.3.19.42a3.07,3.07,0,0,0,1.44.36,2.3,2.3,0,0,1,.93.29.36.36,0,0,1,.19.55.56.56,0,0,0,0,.62.42.42,0,0,1-.09.57c-.11.11-.13.23.05.28s.17.34.32.41.29-.15.49-.08.32.23.21.48-.05.45.31.49.41.11.61,0a.18.18,0,0,1,.16,0c.21.33.8,0,.9.65-.26-.39-.72-.11-.94-.46a.11.11,0,0,0-.16,0,.2.2,0,0,0-.07.21c0,.25.06.51.1.77a.5.5,0,0,1,0,.39c-.08-.31-.16-.57-.21-.84s-.12-.47-.48-.49-.52-.29-.41-.69c0-.09.12-.21,0-.29s-.22,0-.32.06c-.25.15-.36.1-.42-.19a.33.33,0,0,0-.21-.28c-.23-.1-.27-.25-.11-.45a.46.46,0,0,0,.05-.61.5.5,0,0,1,0-.55.27.27,0,0,0-.13-.4,2.61,2.61,0,0,0-1.28-.31,2.1,2.1,0,0,1-1-.34c-.15-.08-.2-.07-.2.11a1.93,1.93,0,0,1,0,.34c-.05.31.14.41.37.49.07,0,.18,0,.19.06.15.44.61.36.91.54a.35.35,0,0,1,.21.29c-.37-.34-.92-.05-1.17-.59-.05-.12-.36-.06-.51-.2s-.05.07,0,.11a.44.44,0,0,0,.18.32.56.56,0,0,1,.28.54.47.47,0,0,0,.23.43,4.35,4.35,0,0,1,1,.86,1.78,1.78,0,0,0,.81.68.52.52,0,0,0,.21.07c.36,0,.54.23.73.47-.32-.37-.82-.26-1.2-.45L20,66.72c-.05,0,0,.07,0,.1a1.12,1.12,0,0,1,0,.86.84.84,0,0,0,.14.76s.06.1.1.1c.35,0,.64.25,1,.25a.52.52,0,0,1,.47.28c-.29-.22-.66,0-1-.23-.15-.1-.37-.15-.48,0s-.29.37,0,.58a.13.13,0,0,1,0,.07,7.34,7.34,0,0,1,.06.92.39.39,0,0,0,.3.5c.2.08.4.15.49.37,0,0,0,.1.06.12l.05.35h-.13c0-.52-.46-.62-.8-.82-.14-.09-.12,0-.12.1a4.24,4.24,0,0,0,.05.71,8,8,0,0,1,.13,1.89c0,.09,0,.23-.14.19s-.05-.14,0-.22a.65.65,0,0,0,0-.45c-.16-.53-.12-1.08-.23-1.62a1.64,1.64,0,0,1,.09-1s0,0,0,0c-.08-.36.05-.75-.16-1.09A.29.29,0,0,1,20,69a.45.45,0,0,0,0-.54,3.12,3.12,0,0,1-.18-.42c-.07-.23-.17-.27-.36-.11l-.09.11c-.05,0-.09.12-.17.06s0-.12,0-.15.11-.2-.06-.28-.41-.23-.66-.15c0,0-.09,0-.13,0s-.23-.15-.31,0,0,.24.09.32.27.42.56.42a.12.12,0,0,1,.08,0c.07.1.29.14.23.24s-.2,0-.31-.07-.34-.06-.42-.32a2.45,2.45,0,0,1-.37.76c-.08.12-.08.2.07.26a.7.7,0,0,1,.4.47c.06.18.13.26.33.13s.38-.21.56,0,.12,0,.17,0,.21,0,.29.06.08.1,0,.15-.11,0-.15,0-.14,0-.2,0-.12.06-.13,0c-.25-.21-.49,0-.73,0s-.35-.12-.42-.32c0,0,0-.13-.08-.13s-.08.08-.11.14-.07.22-.11.33,0,.21.06.25c.41.16.47.55.58.89.06.18.18.22.33.3s.68.12.85.5c-.22-.18-.56,0-.75-.29a.16.16,0,0,0-.21,0c-.08,0,0,.12,0,.19a.68.68,0,0,1-.66.83c-.18,0-.31.09-.31.28s0,.41.25.43a.14.14,0,0,1,.12.06c.15.3.59.25.71.6,0,.1.16.06.23,0s.3-.19.45,0a.23.23,0,0,0,.23.09.17.17,0,0,1,.19.22c-.08.18-.12-.06-.17,0s-.26,0-.36-.15-.18,0-.26,0c-.27.23-.32.23-.5-.06,0-.07-.08-.14-.17-.14s-.23-.1-.31-.23a.3.3,0,0,0-.34-.15c-.17,0-.12.18-.14.28a.57.57,0,0,0,.25.67A.35.35,0,0,1,18,75a.54.54,0,0,0,0,.55,1.33,1.33,0,0,1,.1.62c0,.06,0,.13-.09.13s-.08-.06-.09-.12a3.68,3.68,0,0,0-.19-.81.45.45,0,0,1,.12-.43c.09-.12.11-.23,0-.31s-.24-.31-.46-.12a1.11,1.11,0,0,0-.4.71c0,.06,0,.16-.08.16s-.08-.12-.07-.19a1.21,1.21,0,0,1,.46-.84.43.43,0,0,0,.17-.36c0-.4.07-.8.08-1.21,0-.24.22-.35.45-.41.53-.14.61-.28.47-.81,0-.18-.09-.35-.14-.53s0-.12-.1-.13-.1.06-.11.11a.52.52,0,0,1-.46.38l-.14,0c-.08,0-.1.26-.21.09s0-.34.15-.32c.43.05.41-.39.65-.54.07,0,0-.11,0-.14a.42.42,0,0,0-.39-.14.39.39,0,0,1-.4-.07c-.13-.11-.2,0-.28.08s-.17.1-.22,0,.09-.06.1-.1c.16-.27.33-.32.58-.1.09.08.19,0,.2-.12a2.86,2.86,0,0,1,.1-.42c0-.13.14-.35-.18-.28,0,0-.13,0-.17-.1s-.25-.16-.37,0a.17.17,0,0,1-.15.07c-.17,0-.28,0-.32.18s-.18.11-.26,0,.06-.11.07-.17c.05-.29.24-.33.49-.31a.25.25,0,0,0,.16,0,.25.25,0,0,1,.38,0c.13.1.25.12.26-.11a.54.54,0,0,1,.17-.39c.28-.3.14-.62.05-.94,0-.15-.1-.14-.18,0a.83.83,0,0,1-.62.46c-.12,0-.21.15-.26.29s0,.18-.13.13a.16.16,0,0,1,0-.25,1.16,1.16,0,0,1,.41-.36,1.74,1.74,0,0,0,.82-.83,1,1,0,0,0,.07-.18s.06-.08,0-.12l-.07.08a.49.49,0,0,0-.27.15c-.1.12-.21.2-.37.08s-.16,0-.23.06-.06.09-.11,0,0-.09,0-.12a.25.25,0,0,1,.22-.11.64.64,0,0,0,.64-.41.36.36,0,0,1,.22-.18.39.39,0,0,0,.14-.57c0-.07-.07,0-.11,0a3.07,3.07,0,0,0-.88.77,1.4,1.4,0,0,1-.5.43,1.05,1.05,0,0,0-.47,1.15A1.73,1.73,0,0,1,16,69.59a.74.74,0,0,0,.05.89.6.6,0,0,1,.05.75.3.3,0,0,0-.05.3A3.36,3.36,0,0,1,16.26,73c0,.41,0,.83,0,1.24,0,.08,0,.17-.09.18s-.11-.1-.11-.19c0-.34,0-.69,0-1,0,0,0-.12,0-.16s-.12,0-.17.08a.72.72,0,0,0-.34.5.3.3,0,0,1,0-.36.41.41,0,0,1,.14-.15c.53-.34.46-.83.32-1.33a.9.9,0,0,1,0-.8,1.47,1.47,0,0,0-.29-.84.2.2,0,0,0-.26.08c-.3.42-.74.75-.81,1.32a2.69,2.69,0,0,0,0,.94.13.13,0,0,1-.06.18,1.78,1.78,0,0,1-.09-1.2A2.23,2.23,0,0,1,15.63,70c.06,0,.07-.11.1-.17s.11-.26.16-.4.2-.25.12-.36-.21.09-.32.1a.74.74,0,0,0-.5.11s-.11,0-.13-.08,0-.08.07-.1c.27-.11.56-.15.83-.26s.21-.12.15-.26a1.69,1.69,0,0,1-.06-1.15l0-.07-.07,0c-.07,0-.15,0-.17.09a.42.42,0,0,1-.4.34c-.2,0-.09.26-.13.4a.32.32,0,0,1,.12-.57c.07,0,.13,0,.17-.09a1.16,1.16,0,0,1,.81-.62,1.37,1.37,0,0,0,.72-.61,2,2,0,0,1,.67-.58,1.51,1.51,0,0,0,.17-.1A.31.31,0,0,0,18,65.2c-.08-.1-.52-.13-.57,0a.32.32,0,0,1-.36.18.31.31,0,0,0-.34.21s-.05.1-.1.08,0-.1,0-.15a.08.08,0,0,1,0,0,2,2,0,0,1,1.17-.57c.06,0,.12.06.15,0s0-.1-.07-.15a.6.6,0,0,1-.08-.08c-.18-.3-.38-.27-.6,0,0,0-.09.08-.12.06-.39-.16-.45.21-.63.39s0,.27-.19.18,0-.2.06-.3.19-.27.27-.4.12-.16.18-.13c.26.12.35-.15.52-.21a.22.22,0,0,0,.13-.24,10,10,0,0,1,0-1.1c0-.07,0-.2-.1-.18a.16.16,0,0,0-.15.2,1.38,1.38,0,0,0,0,.2.72.72,0,0,1-.62.85.68.68,0,0,0-.56.29c-.06.1-.1.14-.07.27.08.33,0,.47-.36.48s-.38,0-.21.35.06.41-.17.44a.93.93,0,0,0-.67.49c-.16.23-.3.47-.45.71,0,0-.08.11-.14.08s0-.1,0-.14c.13-.27.27-.55.42-.82a1,1,0,0,1,.59-.52c.15,0,.21-.1.11-.26s0-.5.28-.54h.23c.17,0,.23-.1.15-.26s-.16-.39.14-.48c0,0,.14-.08.11-.16a.13.13,0,0,0-.18,0c-.24.13-.55.13-.73.4s-.37.47-.77.33c-.24-.08-.41.15-.51.37,0,.06,0,.17-.12.13s0-.12,0-.18a.76.76,0,0,1,.73-.54A.55.55,0,0,0,15,64a1.09,1.09,0,0,1,1.29-.33.56.56,0,0,0,.69-.38.59.59,0,0,0,0-.23c-.11-.36-.05-.61.36-.68.13,0,.09-.16.12-.25C17.52,61.85,17.41,61.52,17.58,61.23Zm1.09,6.14a.78.78,0,0,1,.59.19.45.45,0,0,0,.58,0c.18-.13.13-.34.06-.56a3,3,0,0,0-1.37-1.61c-.05,0-.1-.12-.17-.07s0,.12,0,.18a4.15,4.15,0,0,1,.11.48,1.7,1.7,0,0,1-.28,1c0,.09-.13.22,0,.25S18.48,67.39,18.67,67.37Zm-.58-.82v0l0,0s0,0,0,0Zm-.06.1h0l0,0Zm0,2.74,0,0a0,0,0,0,1,0,0s0,0,0,0Z"></path>
      <polygon class="cls-12" points="1.45 56.8 18.37 63.87 33.75 57.34 18.37 51.92 1.45 56.8"></polygon>
      <path class="cls-13" d="M19,15.7c.11-.11.2-.11,0-.92a5.15,5.15,0,0,1,.41-3c.12-.06,1.41-1.8.8-2.76s-1.13-1.13-.74-1.55,1.77-.73,1.63-1.68-.67-1.14-1-1.61-.28-.56.18-1.23A17.79,17.79,0,0,0,21.56.76c0-.16.59-1.13-1.07-.61s-3.48,4.09-5,4.64a1.54,1.54,0,0,0-1.11,2A2.37,2.37,0,0,1,14.21,9c-.67,1.12-.06,4.06,1.71,5.23S18.52,16.23,19,15.7Z"></path>
      <path class="cls-13" d="M23.78,9.52a2.61,2.61,0,0,1,3.87,1.21c.57,1.21-.41,2.17-.53,2.9s-.34,1.47-.76,0-.55-2.36-2.18-3.28S23.78,9.52,23.78,9.52Z"></path>
      <path class="cls-13" d="M27.85,39.85s.79-.39.87-.73a2.86,2.86,0,0,0,.42-1.77c-.14-1.05.3-1.12.48-.8s1.56,3.58,1.74,3.9.85,1.42-.34,1.92.16.83-.16,1.84-1.15,1.08-1.7,2.38a4.12,4.12,0,0,1-4.33,2.48c-2.25-.27-2.57.12-3.17-.25S20,47.9,23.38,47.33a7.4,7.4,0,0,0,1.09-.58,5.1,5.1,0,0,0,.31-.8,1.13,1.13,0,0,1,.71-.62c.21-.09.53.09.39-.73a1.39,1.39,0,0,1,.76-1.54c.32,0,1-.09,1.05-.73S26.84,40.91,27.85,39.85Z"></path>
      <path class="cls-13" d="M17.14,48c0,.1-.85.77-1,1.18s-.41,1.34-1,1.6a1.46,1.46,0,0,0-.87.68c-.4.51.43,1-1.49,1a13.35,13.35,0,0,0-3,.46c-.29,0-1.25.37,0-.65s1.07-1.13,1.21-1.63A1.13,1.13,0,0,1,12,50c.23,0,.48.19.56-.5s.06-.86.9-.83.75.1,1-.32.15-.5.42-.54a8,8,0,0,1,1.86-.11C17.1,47.77,17.25,47.56,17.14,48Z"></path>
      <path class="cls-13" d="M8.25,44.75c-.26,0-2.74.3-3.22,1.51s-.78,1.43-1.4,1.68c0,0,.13-.14-.33-1.26s.23-3.74,3.45-2.84S8.25,44.75,8.25,44.75Z"></path>
      <path class="cls-13" d="M10.84,27a4.27,4.27,0,0,1-3.31-1.76A2.47,2.47,0,0,1,10.84,27Z"></path>
      <path class="cls-13" d="M10.56,26.71A14.79,14.79,0,0,1,12,24.93c.64-.59,1.08-1,.68-1.73s-.68-.88-.26-1.3a2.84,2.84,0,0,0,.64-3.51c-1-1.76-.16-1-.46-1.95s-.22-1.19-2-1.92-.83-1.71-2.85-1.6c0,0,.07.18-.68-.15s-.9-.44-.51.63,0,.91.18,1.65.2.7.55,1,.72-.09.48.77-.89,1.36-.39,2.13.87.83.59,1.31a2,2,0,0,0-.26,2.34A10.37,10.37,0,0,0,10.56,26.71Z"></path>
      <path class="cls-14" d="M8.38,14.5a4.66,4.66,0,0,1,2,2.49,6.51,6.51,0,0,1,.15,3.22c-.16,1.06-.34,2.12-.42,3.18a5.65,5.65,0,0,0,.48,3.12A5.18,5.18,0,0,1,10,23.39c.06-1.08.21-2.15.36-3.21A6.34,6.34,0,0,0,10.25,17,5,5,0,0,0,8.38,14.5Z"></path>
      <path class="cls-14" d="M18.85,2.84a25.3,25.3,0,0,0-1.14,3.23,16.77,16.77,0,0,0-.63,3.35,11.27,11.27,0,0,0,.17,3.38,8.24,8.24,0,0,0,1.46,3.06,7.45,7.45,0,0,1-1.64-3,10.83,10.83,0,0,1-.23-3.45A16.23,16.23,0,0,1,17.53,6,18.86,18.86,0,0,1,18.85,2.84Z"></path>
      <path class="cls-13" d="M16.6,37c.06,0,1.06-1.32,2.34-.9s.75,0,1.32-.08,1.26.46,1.49.86.63,1,1.17.85.87-.14,1.51.79.23.9,1.13,2.14.05.61-.32.35-.68-.29-2-.09a2.57,2.57,0,0,1-2.49-.69c-.68-.57.18-.8-1.3-.84-.86,0-1.12-1.51-1.61-1.65s-.83,0-1.1-.2A.47.47,0,0,1,16.6,37Z"></path>
      <path class="cls-14" d="M23.43,39.45a4.44,4.44,0,0,1-1.77-.64c-.57-.29-1-.73-1.57-1a5.26,5.26,0,0,0-1.67-.72,2,2,0,0,0-1.71.48,2,2,0,0,1,1.73-.67,5.3,5.3,0,0,1,1.78.7c.54.35,1,.76,1.53,1.08A5.65,5.65,0,0,0,23.43,39.45Z"></path>
      <path class="cls-13" d="M25.83,28.33c0-.08-1.34-2.44-.91-3.69s.77-1.25.66-1.61-.75-1,0-1.63c.55-.51,1.46-.48,1.06-1.45-.47-1.13,1.19-1.49,2.05-2.84,1.24-1.93,1.67-4.48,1.94-2.36a23.27,23.27,0,0,0,.6,3.3c.18.85.65,2.38,0,2.7-1.2.6-.75.91-.6,1.43a1.43,1.43,0,0,1-.41,1.69c-.76.66-.88.51-.64,1.31s-1,1.72-1.28,2a11.25,11.25,0,0,1-1.86,1.37C26.09,28.67,26,28.65,25.83,28.33Z"></path>
      <path class="cls-14" d="M29.94,16.13c-.2,1.09-.36,2.18-.66,3.25A10.19,10.19,0,0,1,28.71,21c-.23.52-.58,1-.84,1.43a15.53,15.53,0,0,0-1.32,3A11.37,11.37,0,0,0,26,28.62a9.66,9.66,0,0,1,.41-3.29,14.23,14.23,0,0,1,1.28-3.07,16,16,0,0,0,.85-1.41,11.13,11.13,0,0,0,.59-1.52C29.43,18.28,29.66,17.2,29.94,16.13Z"></path>
      <path class="cls-14" d="M29.46,41.34a17.63,17.63,0,0,1-2.35,4.79A7.38,7.38,0,0,1,25.2,48a3.32,3.32,0,0,1-2.55.57,3.57,3.57,0,0,0,2.49-.67A7.79,7.79,0,0,0,27,46,21.43,21.43,0,0,0,29.46,41.34Z"></path>
      <path class="cls-13" d="M15.8,37.5c-.06.1-1.6,1.46-2.13,1.3s-.59-.51-.86-.13-.23.8-.83.62-.31-.25-.76-.06-.35.37-.76.18-.58-.31-.71-.21S9.56,39,9.41,39s-1.13,0-.79-.43,1-1,1-1.13-.12-.48.16-.65a2,2,0,0,1,1,0,.44.44,0,0,0,.48-.21c.15-.29.62.46,1,.17s.51-.42.64-.34a3.41,3.41,0,0,0,1.76.33C15.45,36.61,16.36,36.68,15.8,37.5Z"></path>
      <path class="cls-14" d="M15,37.23c-.87.24-1.76.4-2.64.61L11,38.11c-.44.1-.89.18-1.32.31a18.4,18.4,0,0,1,2.61-.73C13.18,37.53,14.07,37.34,15,37.23Z"></path>
      <path class="cls-13" d="M2.35,37.3c-.15-.21-.27-1.17-.82-2.41S-.34,32.17.08,30.72s.52-.82.21-2.27,4-5,4.14-5,1.6-1,.79.51.35,2.66.25,3.44S4.07,28.91,4.58,30A7.66,7.66,0,0,0,5.91,31.9a1.31,1.31,0,0,1,0,1.75c-.63.84-1.08.42-.39,1.36s-.15,1.55-.36,2.07-.58.32-.46,1.58.67,2.15-.33,1.67S2.35,37.3,2.35,37.3Z"></path>
      <path class="cls-14" d="M3.47,26a11.85,11.85,0,0,0-1,3.38,14.22,14.22,0,0,0-.1,3.51,15.67,15.67,0,0,0,.71,3.45A22,22,0,0,0,4.43,39.6c-.28-.52-.59-1-.85-1.56A16.67,16.67,0,0,1,2.9,36.4a14.81,14.81,0,0,1-.77-3.49,13.71,13.71,0,0,1,.16-3.56A10.23,10.23,0,0,1,3.47,26Z"></path>
      <path class="cls-13" d="M22.41,32.45c-.2-.08-.72-.71-1.66-1.34s-2.55-1.08-2.9-2.3,0-.81-.87-1.7.52-5.35.65-5.43.67-1.44.79,0,1.44,1.72,1.73,2.32-.3,1.72.57,2.28A6,6,0,0,0,22.5,27a1.1,1.1,0,0,1,.79,1.24c-.07.88-.58.79.33,1.14s.6,1.16.68,1.63-.26.48.39,1.32,1.44,1.22.52,1.32S22.41,32.45,22.41,32.45Z"></path>
      <path class="cls-14" d="M18.12,24a9.68,9.68,0,0,0,.82,2.83,11.72,11.72,0,0,0,1.5,2.53,13.26,13.26,0,0,0,2,2.12,17.86,17.86,0,0,0,2.43,1.69c-.43-.24-.88-.46-1.3-.71a13.33,13.33,0,0,1-1.22-.86,12.88,12.88,0,0,1-2.12-2.12A10.18,10.18,0,0,1,18.12,24Z"></path>
      <path class="cls-13" d="M25.83,29s-2,.3-4-3.2a11.78,11.78,0,0,1,1.6.55C24.72,26.86,26.26,27.26,25.83,29Z"></path>
      <path class="cls-13" d="M23.37,8.45c-.52,4-1.05,8.12-2.59,11.91-.83,2.05-2.14,3.77-3.13,5.73a16.8,16.8,0,0,0-1.48,5.22,21.65,21.65,0,0,0-.4,5.62c.22,1.93.81,3.81,1.18,5.72a65.37,65.37,0,0,1,1.12,13.68.37.37,0,0,0,.73,0,66.49,66.49,0,0,0-.93-12.68c-.37-2.14-1-4.24-1.33-6.38A21.09,21.09,0,0,1,17,30.65a15.57,15.57,0,0,1,2.16-5.74,28.09,28.09,0,0,0,2.55-5A51.59,51.59,0,0,0,24.1,8.45c.06-.46-.67-.45-.73,0Z"></path>
      <path class="cls-13" d="M25.75,28.85a14.77,14.77,0,0,1-2.77,10,58.12,58.12,0,0,0-4.93,9.12c-.18.43.45.8.63.37A64.79,64.79,0,0,1,24,38.6a14.86,14.86,0,0,0,2.49-9.75c-.05-.46-.78-.46-.73,0Z"></path>
      <path class="cls-13" d="M18.39,15.49a14.63,14.63,0,0,0,2.48,4.84A.36.36,0,0,0,21.5,20a13.9,13.9,0,0,1-2.41-4.68.36.36,0,0,0-.7.2Z"></path>
      <path class="cls-13" d="M10.59,26.42a22.11,22.11,0,0,1,.65,2.67,18.92,18.92,0,0,0,.83,2.4,10.1,10.1,0,0,0,1.5,2.28c.66.84,1.34,1.67,2,2.51.3.36.81-.16.52-.52-.64-.78-1.28-1.56-1.91-2.35A9.07,9.07,0,0,1,12.67,31a19.67,19.67,0,0,1-.75-2.2,18.81,18.81,0,0,0-.63-2.59c-.17-.43-.87-.24-.7.19Z"></path>
      <path class="cls-13" d="M3.4,39.43a18.68,18.68,0,0,0,14.51,8.4c.47,0,.46-.7,0-.72A17.94,17.94,0,0,1,4,39.07c-.25-.4-.87,0-.63.36Z"></path>
      <path class="cls-13" d="M18.18,48.44a3.79,3.79,0,0,0,1.63.28,9.78,9.78,0,0,1,1.55.07.37.37,0,0,0,.45-.25.39.39,0,0,0-.26-.45A7.68,7.68,0,0,0,20,48c-.27,0-.54,0-.8,0l-.31-.06-.16,0-.14-.06a.39.39,0,0,0-.5.13.38.38,0,0,0,.13.5Z"></path>
      <path class="cls-15" d="M29.58,28.33a3.24,3.24,0,0,0-2.08.58A5.55,5.55,0,0,0,26,30.49"></path>
      <path class="cls-16" d="M30.51,26s-.3-1.91-3.1-.44c0,0,1.33,1.72,1.77,1.47S31.12,26.83,30.51,26Z"></path>
      <path class="cls-16" d="M28.69,29.62a4.81,4.81,0,0,0,0-1.86c-.2-1,1.28-1,1.37-.72s1.23,1.36,1,1.9S31.44,29.82,28.69,29.62Z"></path>
      <path class="cls-16" d="M33.6,30.9s.4-3.09-1.77-3.09c-1.2,0-.82,1.66-.71,1.87C31.42,30.24,33.4,30.26,33.6,30.9Z"></path>
      <path class="cls-16" d="M31.24,26.3c.05-.09.49-1.29,1.54-1s.78.88,1.57.8a8.52,8.52,0,0,1-.72,1.21,1.73,1.73,0,0,1-1.77.28C31.46,27.43,31,26.7,31.24,26.3Z"></path>
      <path class="cls-16" d="M30.08,23.07s-1.24,2.4.75,3.17c0,0,.09.14.35-.09s.69-.57.66-1a1.45,1.45,0,0,0-.94-1.61C29.87,23,30.21,22.75,30.08,23.07Z"></path>
      <path class="cls-17" d="M31.34,26.07a1,1,0,0,0-.71.06,1.1,1.1,0,0,0-.53,1c0,1,.58,1.07,1.19,1.17s.86-.87,1.23-1,.41-.84-.22-.67C31.91,26.76,31.92,26.23,31.34,26.07Z"></path>
      <path class="cls-18" d="M11.78,40.9A2.3,2.3,0,0,0,9,41.61a.12.12,0,0,0,.06.18,5.59,5.59,0,0,0,2.86.18C13.62,41.65,11.78,40.9,11.78,40.9Z"></path>
      <path class="cls-18" d="M8.83,42.55a.18.18,0,0,0-.2.21,1.17,1.17,0,0,0,.4.65,3.26,3.26,0,0,0,2.54.56c1-.22.4-1.43.09-1.47S9.63,42.66,8.83,42.55Z"></path>
      <path class="cls-18" d="M9,42.7s-.87-.64.22-.85a5.66,5.66,0,0,1,2.35-.23c.26.18.84,1.24,0,1.4A5.91,5.91,0,0,1,9,42.7Z"></path>
      <path class="cls-19" d="M13.23,42.32a2,2,0,0,0-1.14-1.57c-1-.41-1.39,0-1.46.1s.25.29.19.41-.39.16-.24.44.56.34.23.83-.08.48-.06.68-.36.72.07.83a3,3,0,0,0,2-.6l.13-.12A1.32,1.32,0,0,0,13.23,42.32Z"></path>
      <path class="cls-13" d="M13.07,43a6.07,6.07,0,0,1,4.68,4.56.3.3,0,0,0,.58-.16,6.69,6.69,0,0,0-5.1-5c-.38-.06-.54.52-.16.58Z"></path>
      <path class="cls-13" d="M8.34,32a7.23,7.23,0,0,0,2.38,2.16,4.44,4.44,0,0,0,1.63.13A2.48,2.48,0,0,0,14,33.87c.29-.21,0-.71-.29-.49a2.23,2.23,0,0,1-1.5.3,3.09,3.09,0,0,1-1.39-.13,7.47,7.47,0,0,1-2.09-2c-.24-.28-.64.13-.41.41Z"></path>
      <path class="cls-13" d="M16.45,33a8.79,8.79,0,0,1,2.05,0,3.39,3.39,0,0,1,1.64.53c.31.23.61-.29.3-.51a4,4,0,0,0-1.86-.61,9.23,9.23,0,0,0-2.29.05.29.29,0,0,0-.21.36.31.31,0,0,0,.37.21Z"></path>
      <path class="cls-13" d="M16,17.84a12.13,12.13,0,0,1,3.6.9.3.3,0,0,0,.36-.21.31.31,0,0,0-.21-.37A12.42,12.42,0,0,0,16,17.24a.3.3,0,0,0,0,.6Z"></path>
      <path class="cls-16" d="M14.56,18.16s-.21,2.12,3.19,1.33c0,0-.94-2.2-1.48-2.06S14.14,17.09,14.56,18.16Z"></path>
      <path class="cls-16" d="M17.52,14.78a5.17,5.17,0,0,0-.52,2c-.08,1.17-1.64.69-1.67.37s-.94-1.78-.58-2.31S14.63,13.8,17.52,14.78Z"></path>
      <path class="cls-16" d="M12.62,12s-1.28,3.19,1,3.81c1.29.34,1.35-1.55,1.29-1.81C14.78,13.36,12.66,12.78,12.62,12Z"></path>
      <path class="cls-16" d="M13.86,17.63c-.07.07-.88,1.24-1.91.59s-.59-1.16-1.46-1.29a10.93,10.93,0,0,1,1.11-1.1,1.94,1.94,0,0,1,2,.19C13.94,16.36,14.21,17.26,13.86,17.63Z"></path>
      <path class="cls-16" d="M14.21,21.4s2-2.22.08-3.59c0,0-.06-.19-.41,0s-.89.41-1,.93a1.62,1.62,0,0,0,.57,2C14.42,21.51,14,21.71,14.21,21.4Z"></path>
      <path class="cls-17" d="M13.7,17.84a1.15,1.15,0,0,0,.77.14,1.24,1.24,0,0,0,.84-.91c.31-1-.32-1.31-1-1.58s-1.16.69-1.58.69-.67.78.05.77C13.27,17,13.12,17.51,13.7,17.84Z"></path>
      <path class="cls-16" d="M23,36.45s-.19-.19-.91-.14a1.4,1.4,0,0,1-1.36-1.62,1.12,1.12,0,0,1,1.89-.33A2.58,2.58,0,0,1,23,36.45Z"></path>
      <path class="cls-16" d="M24.25,32.16s-.26.07-.85-.36a1.41,1.41,0,0,0-2,.67,1.13,1.13,0,0,0,1.44,1.28C23.43,33.65,24,32.75,24.25,32.16Z"></path>
      <path class="cls-18" d="M20.26,35.78c.14.64.5,1.72,1.42,2a5.12,5.12,0,0,1,0-1.94,1,1,0,0,0-.75-1.35c-.16-.05-.31.06-.43.21A1.3,1.3,0,0,0,20.26,35.78Z"></path>
      <path class="cls-18" d="M24.15,34.79a7,7,0,0,0-1.66.25,1.37,1.37,0,0,1-1.6-.5c-.32-.51-.78-1.41,0-1.87C21.07,32.55,24.07,32,24.15,34.79Z"></path>
      <path class="cls-18" d="M21.49,32s.19-1.12,1.87-1.16a3,3,0,0,0-.26,1c0,.53-.33,1.57-1.88.75Z"></path>
      <path class="cls-20" d="M21.21,31.8c-.4,0-1.33-.11-1.82.36a1.58,1.58,0,0,0-.32,1.67c.16.41,1.2,1,1.2,1.25s.58-.72,1-.73a1,1,0,0,0-.07-.62c-.16-.2.24-.13.24-.45s-.4-.39-.17-.75a2.07,2.07,0,0,0,.34-.76C21.59,31.69,21.57,31.79,21.21,31.8Z"></path>
      <path class="cls-16" d="M6.91,32.06s-2,.74.21,3.44c0,0,1.57-1.81,1.2-2.24S7.69,31.21,6.91,32.06Z"></path>
      <path class="cls-16" d="M11.25,33.22a5.46,5.46,0,0,0-2,.41c-1.09.45-1.35-1.16-1.08-1.33s1.2-1.63,1.83-1.53S10.86,30.2,11.25,33.22Z"></path>
      <path class="cls-16" d="M11.55,27.62s-3.43.26-3,2.6c.26,1.31,2,.53,2.19.36C11.31,30.14,10.9,28,11.55,27.62Z"></path>
      <path class="cls-16" d="M7.08,31.19c-.1,0-1.5-.25-1.37-1.45s.78-1,.52-1.88a10.76,10.76,0,0,1,1.47.51,1.94,1.94,0,0,1,.7,1.86C8.26,30.7,7.57,31.34,7.08,31.19Z"></path>
      <path class="cls-16" d="M3.84,33.17s2.88.81,3.27-1.51c0,0,.14-.14-.17-.37s-.77-.62-1.28-.49a1.61,1.61,0,0,0-1.53,1.38C3.84,33.4,3.47,33.09,3.84,33.17Z"></path>
      <path class="cls-17" d="M6.82,31.14a1.11,1.11,0,0,0,.22.75,1.2,1.2,0,0,0,1.18.36c1-.17,1-.86,1-1.55S8.09,30,7.91,29.58s-1-.26-.67.39C7.44,30.36,6.86,30.48,6.82,31.14Z"></path>
      <path class="cls-6" d="M17.34,59.69a.46.46,0,0,0-.45-.16c-.25.08-.34.27-.3.34l.09.1c.06.06.19-.11.2-.11Z"></path>
      <path class="cls-7" d="M17.47,60s-.08-.34-.2-.34l-.28,0,0,.06s.12.22.18.24l.17,0Z"></path>
      <path class="cls-8" d="M17.46,60s0-.11-.05-.13l-.16,0-.25.18s-.06,0,.05.06.12.06.23,0A.37.37,0,0,0,17.46,60Z"></path>
      <path class="cls-9" d="M17.25,59.87,17.1,60c-.06.07-.07.09-.14,0s-.26-.06-.31-.13,0-.06,0-.15a.4.4,0,0,1,.24-.15.24.24,0,0,1,.24,0A.69.69,0,0,1,17.25,59.87Z"></path>
      <path class="cls-6" d="M16.32,53.93a.68.68,0,0,0-.7-.1c-.33.19-.41.5-.33.59l.16.11c.11.06.25-.22.26-.23Z"></path>
      <path class="cls-7" d="M16.6,54.32s-.22-.46-.4-.43a2.93,2.93,0,0,1-.4,0l0,.1s.25.28.33.29l.26,0A1.42,1.42,0,0,0,16.6,54.32Z"></path>
      <path class="cls-8" d="M16.6,54.38s0-.16-.11-.17h-.25s-.25.29-.3.33-.09.05.09.07.19.06.34,0A.46.46,0,0,0,16.6,54.38Z"></path>
      <path class="cls-9" d="M16.24,54.21a1.87,1.87,0,0,0-.17.26c-.06.12-.07.15-.19.12s-.39,0-.48-.1-.08-.07,0-.22.14-.19.29-.28A.33.33,0,0,1,16,54,.9.9,0,0,1,16.24,54.21Z"></path>
      <path class="cls-6" d="M14.94,56a2.4,2.4,0,0,0-2.44.16c-1,.88-1.05,2-.71,2.24a4.11,4.11,0,0,0,.63.25c.42.16.67-.92.7-.94Z"></path>
      <path class="cls-7" d="M16.17,57.18S15.1,55.75,14.5,56s-1.32.45-1.32.45l0,.37s1,.77,1.33.75.77-.11.89-.12A6.35,6.35,0,0,0,16.17,57.18Z"></path>
      <path class="cls-8" d="M16.21,57.39c0-.15-.07-.56-.5-.51a7.13,7.13,0,0,0-.85.18s-.63,1.15-.76,1.34-.27.24.35.16.67.06,1.15-.22A1.64,1.64,0,0,0,16.21,57.39Z"></path>
      <path class="cls-9" d="M14.86,57.06a7.43,7.43,0,0,0-.39,1c-.13.45-.14.57-.55.55s-1.33.24-1.7,0-.35-.2-.25-.72a1.91,1.91,0,0,1,.82-1.18A1.06,1.06,0,0,1,14,56.46,2.86,2.86,0,0,1,14.86,57.06Z"></path>
      <path class="cls-6" d="M19.9,56.35a2.06,2.06,0,0,0-2.12,0c-.92.69-1,1.67-.75,1.9a3.86,3.86,0,0,0,.53.25c.35.16.64-.76.66-.77Z"></path>
      <path class="cls-7" d="M20.9,57.4s-.84-1.3-1.38-1.12a12,12,0,0,1-1.17.31l-.06.32s.87.73,1.11.73.68,0,.78,0A4.85,4.85,0,0,0,20.9,57.4Z"></path>
      <path class="cls-8" d="M20.92,57.59c0-.13,0-.49-.4-.47a4.66,4.66,0,0,0-.75.11s-.61,1-.74,1.11-.25.19.3.16.58.09,1-.12A1.41,1.41,0,0,0,20.92,57.59Z"></path>
      <path class="cls-9" d="M19.77,57.23a6.51,6.51,0,0,0-.4.83c-.14.39-.15.49-.5.45s-1.18.13-1.48-.09-.3-.2-.17-.65a1.66,1.66,0,0,1,.77-1,.94.94,0,0,1,1.07-.15A2.3,2.3,0,0,1,19.77,57.23Z"></path>
      <path class="cls-6" d="M23.09,55.07a2.23,2.23,0,0,0-2.26-.29c-1.08.62-1.33,1.64-1.06,1.92a5.42,5.42,0,0,0,.53.35c.36.21.79-.73.81-.74S23.09,55.07,23.09,55.07Z"></path>
      <path class="cls-7" d="M24,56.33s-.72-1.5-1.32-1.38-1.29.18-1.29.18l-.1.32s.82.91,1.08.94.73,0,.84,0A6,6,0,0,0,24,56.33Z"></path>
      <path class="cls-8" d="M24,56.54c0-.15,0-.53-.37-.56a7.58,7.58,0,0,0-.81,0s-.78.94-.94,1.09-.29.17.3.21.6.18,1.09,0A1.5,1.5,0,0,0,24,56.54Z"></path>
      <path class="cls-9" d="M22.83,56a7.53,7.53,0,0,0-.53.84c-.2.39-.23.51-.61.41s-1.26,0-1.56-.3-.28-.24-.09-.7.45-.65,1-.94a1,1,0,0,1,1.16,0A2.51,2.51,0,0,1,22.83,56Z"></path>
      <path class="cls-6" d="M24,58.91a.71.71,0,0,0,.66-.32c.18-.36.06-.68-.06-.71h-.2c-.14,0-.08.33-.09.34S24,58.91,24,58.91Z"></path>
      <path class="cls-7" d="M23.54,58.74s.46.27.6.13a3.6,3.6,0,0,1,.31-.27l0-.11a1.75,1.75,0,0,0-.45-.06,2.36,2.36,0,0,1-.24.14A1.72,1.72,0,0,0,23.54,58.74Z"></path>
      <path class="cls-8" d="M23.51,58.68s.08.15.19.09a2.05,2.05,0,0,0,.22-.15s0-.39.06-.46,0-.1-.12,0-.2.06-.29.19A.46.46,0,0,0,23.51,58.68Z"></path>
      <path class="cls-9" d="M23.92,58.62a2,2,0,0,0,0-.32c0-.14,0-.18.09-.22s.34-.22.47-.2.12,0,.15.18a.52.52,0,0,1-.09.42.32.32,0,0,1-.3.21A.76.76,0,0,1,23.92,58.62Z"></path>
      <path class="cls-6" d="M12.71,59.17a.93.93,0,0,0,.87-.36c.25-.44.13-.85,0-.9H13.3c-.17,0-.13.41-.14.42Z"></path>
      <path class="cls-7" d="M12.13,58.91s.56.38.75.22a5.1,5.1,0,0,1,.42-.33l0-.13a2,2,0,0,0-.57-.12l-.32.16A2,2,0,0,0,12.13,58.91Z"></path>
      <path class="cls-8" d="M12.08,58.83c0,.06.1.2.25.13a3.21,3.21,0,0,0,.28-.17s.09-.49.12-.58.07-.12-.15,0-.25.06-.39.22A.62.62,0,0,0,12.08,58.83Z"></path>
      <path class="cls-9" d="M12.61,58.79a3.83,3.83,0,0,0,0-.41c0-.18,0-.23.13-.27s.45-.25.61-.21.16,0,.18.23a.74.74,0,0,1-.15.53.41.41,0,0,1-.41.24A1.09,1.09,0,0,1,12.61,58.79Z"></path>
      <path class="cls-6" d="M16.69,56.9a.52.52,0,0,0,.53.09c.26-.13.33-.38.27-.45l-.12-.08c-.08-.06-.19.16-.2.16Z"></path>
      <path class="cls-7" d="M16.48,56.59s.16.36.3.34l.31,0,0-.07s-.19-.23-.25-.24l-.2,0Z"></path>
      <path class="cls-8" d="M16.48,56.54s0,.13.08.14h.2l.23-.25s.07,0-.07,0-.14-.05-.26,0A.4.4,0,0,0,16.48,56.54Z"></path>
      <path class="cls-9" d="M16.76,56.68a1.64,1.64,0,0,0,.13-.19c.05-.09.06-.12.15-.09s.3,0,.37.08.06.07,0,.17-.11.15-.23.22a.25.25,0,0,1-.28,0A.72.72,0,0,1,16.76,56.68Z"></path>
      <path class="cls-6" d="M21.52,58.94a2.05,2.05,0,0,0,2-.6c.68-.93.51-1.89.17-2-.09,0-.39-.06-.58-.09-.38,0-.39.91-.4.93S21.52,58.94,21.52,58.94Z"></path>
      <path class="cls-7" d="M20.27,58.22s1.17,1,1.63.67,1-.63,1-.63l0-.32a4.3,4.3,0,0,0-1.26-.38c-.23.08-.63.25-.74.27A6.36,6.36,0,0,0,20.27,58.22Z"></path>
      <path class="cls-8" d="M20.19,58.05c0,.13.17.46.52.33a6,6,0,0,0,.68-.31s.31-1.09.39-1.28.18-.25-.33-.06-.58.07-.92.4A1.39,1.39,0,0,0,20.19,58.05Z"></path>
      <path class="cls-9" d="M21.39,58.07a6.15,6.15,0,0,0,.14-.92c0-.4,0-.51.35-.57s1.08-.46,1.44-.33.33.1.34.56A1.64,1.64,0,0,1,23.2,58a.92.92,0,0,1-1,.45A2.38,2.38,0,0,1,21.39,58.07Z"></path>
      <path class="cls-6" d="M15.3,58.16a1.37,1.37,0,0,0,1.41,0c.61-.48.67-1.12.48-1.27a2,2,0,0,0-.36-.17c-.23-.1-.41.52-.43.53Z"></path>
      <path class="cls-7" d="M14.62,57.47s.58.86.94.73a6.52,6.52,0,0,1,.77-.22l0-.21s-.58-.48-.74-.48-.45.05-.52,0A4.21,4.21,0,0,0,14.62,57.47Z"></path>
      <path class="cls-8" d="M14.61,57.35c0,.09,0,.32.27.3a3.74,3.74,0,0,0,.5-.08s.39-.64.48-.75.16-.13-.2-.1-.39,0-.67.1A.94.94,0,0,0,14.61,57.35Z"></path>
      <path class="cls-9" d="M15.38,57.57a4.68,4.68,0,0,0,.25-.56c.09-.25.1-.33.33-.3s.78-.1,1,0,.19.13.12.43a1.1,1.1,0,0,1-.51.65.63.63,0,0,1-.71.12A1.67,1.67,0,0,1,15.38,57.57Z"></path>
    </g>
  </g>
</svg>
