<?xml version="1.0" encoding="UTF-8"?>
<svg xmlns="http://www.w3.org/2000/svg" xmlns:xlink="http://www.w3.org/1999/xlink" viewBox="0 0 103.74 210.63">
  <defs>
    <style>.cls-1{fill:#8e6848;}.cls-2{fill:url(#Безымянный_градиент_7);}.cls-3{fill:#713e21;}.cls-4{fill:#3d271f;}.cls-5{fill:#69391e;}.cls-6{fill:#6b482f;}.cls-7{fill:#5c3624;}.cls-8{fill:#795135;}.cls-9{fill:#9a734f;}.cls-10{fill:#d2d1ca;}.cls-11{fill:#e7e6e3;}.cls-12{fill:#85563a;}.cls-13{fill:#90b33b;}.cls-14{fill:#b2d44e;}.cls-15{fill:#c3de60;}.cls-16{fill:#81a135;}.cls-17{fill:#a2a2a2;}</style>
    <linearGradient id="Безымянный_градиент_7" x1="54.72" y1="243.19" x2="59.12" y2="161.48" gradientUnits="userSpaceOnUse">
      <stop offset="0.38" stop-color="#9b714f"></stop>
      <stop offset="0.91" stop-color="#754427"></stop>
      <stop offset="1" stop-color="#6e3c20"></stop>
    </linearGradient>
  </defs>
  <g id="Слой_2" data-name="Слой 2">
    <g id="Слой_1-2" data-name="Слой 1">
      <path class="cls-1" d="M59.14,154.35s8.19,9.61,14.51,10,27.91-6.44,27.91-6.44l2.18-22.48-44.6-15.73Z"></path>
      <path class="cls-1" d="M10.07,133.84l4.44,29.33s15.81,2.37,18.57,1.58,15.41-5.53,19-5.53,7.09-4.87,7.09-4.87V119.71Z"></path>
      <polygon class="cls-2" points="16.64 190.62 59.14 210.63 98.46 190.72 57.58 173.4 16.64 190.62"></polygon>
      <path class="cls-3" d="M16.64,190.62l-2.13-27.45s20.15-.39,25.69-3.16,18.94-5.66,18.94-5.66L57.58,173.4Z"></path>
      <path class="cls-4" d="M45.36,164.88A7.18,7.18,0,0,0,43,163.46v0s-3.22-1-5,1.2-1.45,4.5-.65,4.88a10.11,10.11,0,0,0,1.38.29s0,0,.08,0a25.21,25.21,0,0,0,3-.67,1.37,1.37,0,0,0,.51-.14l.56-.16c1.25-.39,1.41-.11,2.28-.86a3.39,3.39,0,0,0,.92-2.17,1.89,1.89,0,0,0-.17-.43h0l0,0A.8.8,0,0,0,45.36,164.88Z"></path>
      <path class="cls-4" d="M28.1,167.71a9.44,9.44,0,0,0-3.41,1.12v0s-3.66,2.29-3.05,5.82,3.11,5.22,4.15,4.77a14.71,14.71,0,0,0,1.45-1.09s0-.08,0-.11c.79-.9,1.36-2.69,1.88-3.45a2.21,2.21,0,0,0,.31-.62c.08-.17.17-.35.31-.67.69-1.54,1.09-1.45,1.1-2.94a4.35,4.35,0,0,0-1.31-2.73,3.25,3.25,0,0,0-.56-.19h-.06A1.07,1.07,0,0,0,28.1,167.71Z"></path>
      <path class="cls-5" d="M59.14,154.35,57.58,173.4l40.88,17.32,3.1-32.8s-12.74-1.47-18.28-.68-15.16,3.16-18.06,1.58A38.27,38.27,0,0,1,59.14,154.35Z"></path>
      <path class="cls-4" d="M43.57,173.92a2.91,2.91,0,0,0-1.07-.27h0a2,2,0,0,0-1.74,1c-.41,1,0,1.86.3,1.91a4.28,4.28,0,0,0,.55-.05s0,0,0,0a9.15,9.15,0,0,0,1.05-.59.45.45,0,0,0,.17-.11l.19-.12c.43-.28.52-.2.77-.58a1.31,1.31,0,0,0,.1-.91.6.6,0,0,0-.11-.14h0A.31.31,0,0,0,43.57,173.92Z"></path>
      <path class="cls-4" d="M83.62,165.72a2,2,0,0,0-.09-.76h0s-.32-.86-1.08-.88-1.21.43-1.16.67a3.12,3.12,0,0,0,.16.35s0,0,0,0c.16.2.51.39.64.53a.41.41,0,0,0,.12.09l.12.09c.3.21.26.29.57.36a.93.93,0,0,0,.62-.16l.06-.11h0A.23.23,0,0,0,83.62,165.72Z"></path>
      <path class="cls-4" d="M95,179.48a9.31,9.31,0,0,0-1.62-3.24h0s-2.82-3.32-6.25-2.21-4.76,3.86-4.16,4.84a14.4,14.4,0,0,0,1.3,1.29s.08,0,.12,0c1,.65,2.88,1,3.71,1.37a1.94,1.94,0,0,0,.66.22l.71.22c1.65.46,1.62.88,3.1.67a4.39,4.39,0,0,0,2.53-1.7,2.59,2.59,0,0,0,.11-.59h0v-.06A1.14,1.14,0,0,0,95,179.48Z"></path>
      <path class="cls-4" d="M72.82,168.19a7.16,7.16,0,0,0-1.58,2.28h0s-1.19,3.11.82,5,4.35,1.77,4.78,1a9.21,9.21,0,0,0,.39-1.35s0,0,0-.08a23.65,23.65,0,0,0-.44-3,1.48,1.48,0,0,0-.1-.52c0-.15-.06-.31-.12-.56-.29-1.28,0-1.41-.68-2.33a3.38,3.38,0,0,0-2.08-1.08,2.39,2.39,0,0,0-.44.14h0l0,0A.8.8,0,0,0,72.82,168.19Z"></path>
      <path class="cls-6" d="M73,191.47a1.32,1.32,0,0,0,1.33-.35c.46-.59.37-1.22.15-1.32l-.38-.07c-.24,0-.27.59-.28.6Z"></path>
      <path class="cls-7" d="M72.18,191s.74.67,1,.47.68-.39.68-.39l0-.21a2.83,2.83,0,0,0-.81-.27c-.15,0-.42.15-.49.16A3.45,3.45,0,0,0,72.18,191Z"></path>
      <path class="cls-8" d="M72.13,190.87c0,.08.1.3.33.22a2.76,2.76,0,0,0,.45-.19s.23-.7.28-.82.12-.16-.21-.05-.38,0-.61.25A.93.93,0,0,0,72.13,190.87Z"></path>
      <path class="cls-9" d="M72.91,190.9a3.85,3.85,0,0,0,.11-.59c0-.26,0-.33.24-.37s.72-.28.94-.19.22.08.22.38a1.11,1.11,0,0,1-.32.74.62.62,0,0,1-.65.27A1.53,1.53,0,0,1,72.91,190.9Z"></path>
      <path class="cls-6" d="M63.89,186.26s2,.11,2.76-1.42.22-2.86-.3-3a6.56,6.56,0,0,0-.86,0c-.56,0-.32,1.42-.34,1.45S63.89,186.26,63.89,186.26Z"></path>
      <path class="cls-7" d="M61.89,185.56s2,1.12,2.54.53a16.9,16.9,0,0,1,1.31-1.19l-.14-.45a6.41,6.41,0,0,0-1.92-.21c-.32.17-.85.53-1,.59A7.74,7.74,0,0,0,61.89,185.56Z"></path>
      <path class="cls-8" d="M61.73,185.33c.1.18.37.62.84.34a7,7,0,0,0,.9-.64s.15-1.64.22-1.94.19-.42-.5,0-.82.27-1.22.84A2,2,0,0,0,61.73,185.33Z"></path>
      <path class="cls-9" d="M63.47,185a10.34,10.34,0,0,0,0-1.35c-.08-.59-.14-.74.35-.92s1.43-1,2-.87.51.05.65.71a2.43,2.43,0,0,1-.35,1.79,1.36,1.36,0,0,1-1.29.91A3.58,3.58,0,0,1,63.47,185Z"></path>
      <path class="cls-6" d="M55.42,192.87a3,3,0,0,0,3,.37c1.42-.84,1.74-2.2,1.38-2.57a4.43,4.43,0,0,0-.71-.45c-.47-.28-1,1-1.07,1S55.42,192.87,55.42,192.87Z"></path>
      <path class="cls-7" d="M54.18,191.21s1,2,1.77,1.82a16.6,16.6,0,0,1,1.71-.25l.13-.44s-1.1-1.18-1.44-1.22-1,0-1.12-.06A7.3,7.3,0,0,0,54.18,191.21Z"></path>
      <path class="cls-8" d="M54.18,190.94c0,.19,0,.7.5.73a8.26,8.26,0,0,0,1.07,0s1-1.25,1.24-1.46.38-.23-.4-.27-.8-.23-1.44,0A2,2,0,0,0,54.18,190.94Z"></path>
      <path class="cls-9" d="M55.75,191.65a10.38,10.38,0,0,0,.71-1.12c.26-.52.29-.67.79-.55s1.68,0,2.08.37.38.33.13.94-.59.86-1.26,1.25a1.34,1.34,0,0,1-1.54,0A3.52,3.52,0,0,1,55.75,191.65Z"></path>
      <path class="cls-6" d="M51.77,187.4a2.28,2.28,0,0,0,.08-2.32c-.73-1-1.79-1.19-2.05-.89a3.8,3.8,0,0,0-.3.58c-.18.37.81.72.82.74Z"></path>
      <path class="cls-7" d="M50.58,188.45s1.45-.88,1.27-1.47a13,13,0,0,1-.3-1.29l-.34-.07s-.84.92-.84,1.18,0,.75,0,.86A6,6,0,0,0,50.58,188.45Z"></path>
      <path class="cls-8" d="M50.37,188.47c.15,0,.54,0,.53-.43a5.63,5.63,0,0,0-.09-.82s-1-.7-1.19-.85-.2-.27-.18.32-.13.64.1,1.11A1.54,1.54,0,0,0,50.37,188.47Z"></path>
      <path class="cls-9" d="M50.81,187.22a6.24,6.24,0,0,0-.9-.46c-.41-.17-.53-.18-.47-.57s-.11-1.28.15-1.61.22-.31.71-.17a1.83,1.83,0,0,1,1,.89,1,1,0,0,1,.13,1.17A2.51,2.51,0,0,1,50.81,187.22Z"></path>
      <path class="cls-6" d="M44.56,189.11a1,1,0,0,0,.33-1c-.17-.52-.59-.72-.73-.63a1.24,1.24,0,0,0-.2.2c-.12.13.24.4.25.41S44.56,189.11,44.56,189.11Z"></path>
      <path class="cls-7" d="M43.94,189.39s.71-.18.71-.45a5,5,0,0,1,0-.57l-.13-.07s-.46.27-.5.38S44,189,44,189A2.37,2.37,0,0,0,43.94,189.39Z"></path>
      <path class="cls-8" d="M43.85,189.37a.19.19,0,0,0,.27-.11,2.34,2.34,0,0,0,.07-.35l-.39-.5c0-.08,0-.14-.11.11s-.13.24-.1.47A.66.66,0,0,0,43.85,189.37Z"></path>
      <path class="cls-9" d="M44.19,188.91a3.06,3.06,0,0,0-.31-.3c-.16-.12-.2-.15-.13-.3s.12-.54.27-.65.13-.1.32,0a.83.83,0,0,1,.31.5.43.43,0,0,1-.1.5A1,1,0,0,1,44.19,188.91Z"></path>
      <path class="cls-6" d="M42.35,193.08s1.4-2.24.12-4-3.11-2-3.56-1.5a6.32,6.32,0,0,0-.51,1c-.31.65,1.41,1.24,1.44,1.28S42.35,193.08,42.35,193.08Z"></path>
      <path class="cls-7" d="M40.31,194.91s2.5-1.52,2.18-2.55-.53-2.23-.53-2.23l-.59-.12s-1.44,1.6-1.44,2.06.07,1.28,0,1.48A9.71,9.71,0,0,0,40.31,194.91Z"></path>
      <path class="cls-8" d="M40,195c.26,0,.94,0,.91-.74a9.63,9.63,0,0,0-.16-1.42s-1.78-1.2-2.08-1.46-.35-.48-.31.56-.21,1.09.19,1.91A2.63,2.63,0,0,0,40,195Z"></path>
      <path class="cls-9" d="M40.7,192.79a12.52,12.52,0,0,0-1.57-.79c-.72-.28-.92-.31-.82-1s-.2-2.22.24-2.79.38-.55,1.23-.3a3.13,3.13,0,0,1,1.8,1.52,1.76,1.76,0,0,1,.23,2A4.55,4.55,0,0,1,40.7,192.79Z"></path>
      <path class="cls-10" d="M67.24,178.42l.36,0a2.77,2.77,0,0,1,.67,2.06c0,.23-.13.47-.41.42s-.12-.29-.1-.46C67.83,179.68,67.3,179.11,67.24,178.42Z"></path>
      <path class="cls-10" d="M67.46,177.37c-.18-.06-.18-.2-.16-.35C67.46,177.09,67.7,177.11,67.46,177.37Z"></path>
      <path class="cls-11" d="M56.85,146.69a1.07,1.07,0,0,0,1.42,0,14.68,14.68,0,0,1-.34,2.64,1,1,0,0,0,.56,1.23,8.6,8.6,0,0,0,4.17,1,7.06,7.06,0,0,1,2.69.85c.7.38.93.9.53,1.58a1.62,1.62,0,0,0,0,1.79,1.24,1.24,0,0,1-.26,1.67c-.33.31-.39.66.15.8s.47,1,.91,1.2.86-.44,1.42-.24c.72.27.93.68.63,1.41-.39,1-.16,1.29.88,1.42.6.07,1.19.31,1.79,0a.48.48,0,0,1,.46.09c.59,1,2.31.06,2.59,1.89-.75-1.15-2.09-.31-2.72-1.34a.32.32,0,0,0-.46-.05.58.58,0,0,0-.21.59c.11.75.19,1.5.3,2.24a1.45,1.45,0,0,1-.1,1.13c-.22-.9-.45-1.65-.6-2.41s-.36-1.37-1.38-1.44-1.51-.83-1.2-2c.08-.28.35-.61,0-.84s-.62,0-.92.17c-.71.44-1,.28-1.21-.56a1,1,0,0,0-.62-.8c-.66-.3-.78-.74-.3-1.32a1.37,1.37,0,0,0,.14-1.76,1.48,1.48,0,0,1,.07-1.59.8.8,0,0,0-.37-1.18,7.48,7.48,0,0,0-3.7-.88,6.38,6.38,0,0,1-2.9-1c-.43-.26-.59-.21-.59.3a6.69,6.69,0,0,1,0,1c-.16.89.41,1.18,1.08,1.41.19.06.5.06.54.17.44,1.27,1.76,1,2.63,1.56a1,1,0,0,1,.61.85c-1.05-1-2.67-.15-3.37-1.71-.16-.36-1.06-.17-1.5-.58-.06,0-.15.2-.11.33a1.32,1.32,0,0,0,.52.92,1.63,1.63,0,0,1,.82,1.55,1.42,1.42,0,0,0,.67,1.26,12.79,12.79,0,0,1,3,2.48,5.27,5.27,0,0,0,2.36,2,1.37,1.37,0,0,0,.62.2c1,0,1.56.67,2.12,1.36-1-1.05-2.38-.74-3.51-1.29l-.18-.19c-.15.12,0,.21.05.31a3.19,3.19,0,0,1,0,2.48,2.45,2.45,0,0,0,.43,2.21c.06.12.17.29.27.29,1,.06,1.86.73,2.88.72a1.47,1.47,0,0,1,1.35.83c-.84-.64-1.92-.15-2.77-.69-.44-.28-1.08-.43-1.39,0s-.85,1.07-.12,1.68c.06.05.13.14.12.21,0,.9.28,1.82.17,2.66s.16,1.2.87,1.46a2.21,2.21,0,0,1,1.43,1.06c0,.15,0,.29.16.35l.14,1-.36.05c0-1.53-1.36-1.8-2.33-2.4-.4-.25-.34.11-.35.29a11.32,11.32,0,0,0,.16,2.09,25.6,25.6,0,0,1,.37,5.46c0,.27,0,.67-.41.56s-.15-.41-.05-.64a2,2,0,0,0,.1-1.32c-.46-1.53-.34-3.13-.67-4.67a5,5,0,0,1,.26-3c0-.05.08-.11.07-.15-.23-1,.16-2.18-.47-3.15a.83.83,0,0,1,0-1.07,1.37,1.37,0,0,0,0-1.57,7.88,7.88,0,0,1-.51-1.24c-.22-.65-.52-.76-1-.31-.1.09-.17.21-.27.31s-.28.36-.48.19,0-.34.11-.44c.47-.41.31-.59-.2-.81a2.59,2.59,0,0,0-1.89-.43.56.56,0,0,1-.39-.13c-.29-.19-.67-.42-.89-.12s0,.68.25.9c.5.47.79,1.24,1.65,1.23a.26.26,0,0,1,.21.11c.2.29.86.41.68.71s-.59-.12-.9-.2c-.5-.12-1-.19-1.23-.94a6.5,6.5,0,0,1-1.08,2.19c-.22.35-.23.59.22.77a2,2,0,0,1,1.15,1.37c.17.51.39.75,1,.37s1.12-.62,1.64.06c.21.27.34,0,.47-.09.36-.28.62-.11.86.17.11.13.22.29.12.45s-.3.12-.42,0-.39-.07-.59,0-.33.17-.38.12c-.72-.62-1.4-.11-2.11,0s-1-.33-1.2-.91c-.06-.15,0-.38-.24-.39s-.25.25-.31.41c-.12.31-.22.63-.32.95s-.14.63.17.75c1.18.46,1.35,1.57,1.67,2.55.17.54.54.64,1,.89.81.5,2,.33,2.46,1.43-.63-.51-1.6-.09-2.16-.83a.49.49,0,0,0-.62-.1c-.23.12-.07.34-.06.53a2,2,0,0,1-1.94,2.42c-.51.09-.87.26-.88.82s-.16,1.17.7,1.22a.51.51,0,0,1,.37.18c.44.87,1.7.75,2.06,1.75.1.29.47.16.67-.1.43-.55.87-.56,1.3,0a.7.7,0,0,0,.67.26.46.46,0,0,1,.53.64c-.22.52-.32-.17-.47-.12-.5.17-.75-.07-1-.43s-.54-.07-.78.14c-.78.67-.91.65-1.43-.18-.12-.2-.23-.41-.49-.41a1,1,0,0,1-.89-.65,1,1,0,0,0-1-.45c-.48.08-.34.52-.41.81a1.67,1.67,0,0,0,.74,2,1,1,0,0,1,.35,1.62,1.52,1.52,0,0,0-.12,1.59,3.93,3.93,0,0,1,.29,1.8c0,.18-.06.36-.26.38s-.24-.19-.26-.35a11.24,11.24,0,0,0-.55-2.36,1.31,1.31,0,0,1,.33-1.24c.26-.35.33-.66-.1-.91s-.7-.88-1.33-.35A3.22,3.22,0,0,0,55,187.29c0,.18.06.48-.21.47s-.24-.34-.22-.54a3.5,3.5,0,0,1,1.33-2.43,1.19,1.19,0,0,0,.49-1c0-1.17.21-2.33.24-3.5,0-.72.65-1,1.32-1.22,1.52-.4,1.76-.81,1.37-2.33-.14-.51-.28-1-.43-1.53,0-.16-.1-.34-.28-.38s-.3.17-.33.31c-.16.73-.71.95-1.34,1.1l-.39.12c-.23.08-.3.75-.61.26-.18-.28,0-1,.43-.93,1.25.15,1.19-1.13,1.89-1.56.2-.12.08-.31-.05-.42a1.25,1.25,0,0,0-1.14-.4,1.09,1.09,0,0,1-1.16-.2c-.37-.31-.58,0-.81.24s-.5.28-.65,0,.26-.18.31-.29c.44-.8.94-.92,1.66-.3.27.23.56,0,.58-.34a6.92,6.92,0,0,1,.31-1.21c.08-.38.41-1-.54-.83-.14,0-.37-.13-.5-.27-.38-.43-.7-.49-1.05,0a.51.51,0,0,1-.43.19c-.5-.11-.83-.1-.95.53-.05.28-.5.31-.73.14-.45-.33.17-.31.19-.48.14-.84.69-1,1.41-.89a.73.73,0,0,0,.46-.17.76.76,0,0,1,1.11,0c.37.3.75.34.75-.32a1.67,1.67,0,0,1,.5-1.13c.82-.88.41-1.8.15-2.73-.12-.41-.3-.41-.53-.06a2.39,2.39,0,0,1-1.79,1.35c-.36,0-.62.44-.75.83-.07.19-.09.54-.39.39a.48.48,0,0,1-.07-.74,3.65,3.65,0,0,1,1.19-1,4.9,4.9,0,0,0,2.36-2.39,3.18,3.18,0,0,0,.21-.54c.1-.1.17-.21,0-.34l-.18.22a1.4,1.4,0,0,0-.79.45c-.31.33-.61.57-1.08.23-.25-.18-.47,0-.66.18s-.19.26-.33.09,0-.26.08-.37a.77.77,0,0,1,.65-.32A1.79,1.79,0,0,0,57.51,162a1.13,1.13,0,0,1,.63-.51,1.16,1.16,0,0,0,.43-1.66c-.13-.18-.22-.09-.33,0a9.13,9.13,0,0,0-2.55,2.25,4.06,4.06,0,0,1-1.44,1.25,3,3,0,0,0-1.37,3.33,5,5,0,0,1-.5,4.25,2.12,2.12,0,0,0,.15,2.58,1.78,1.78,0,0,1,.14,2.18.92.92,0,0,0-.14.87c.69,1.41.46,2.9.48,4.37,0,1.2,0,2.41,0,3.61,0,.21,0,.5-.27.52s-.33-.3-.33-.55c0-1,0-2,0-3,0-.17.05-.37-.12-.46s-.33.11-.47.22a2.07,2.07,0,0,0-1,1.46.91.91,0,0,1,0-1.07,1.78,1.78,0,0,1,.4-.42c1.55-1,1.35-2.41.94-3.85a2.6,2.6,0,0,1,.09-2.32,4,4,0,0,0-.86-2.43.57.57,0,0,0-.74.22c-.86,1.22-2.16,2.19-2.34,3.82a7.17,7.17,0,0,0-.08,2.73.4.4,0,0,1-.19.51,5.05,5.05,0,0,1-.26-3.46,6.53,6.53,0,0,1,3.38-4.38c.2-.11.22-.31.29-.48.17-.39.35-.77.48-1.16s.59-.74.34-1.05-.59.26-.91.27a2.16,2.16,0,0,0-1.46.33c-.11.09-.32-.05-.38-.23s.07-.22.22-.28c.77-.34,1.61-.46,2.39-.78.48-.19.6-.33.43-.73a5,5,0,0,1-.17-3.35l.06-.2-.2.05c-.2,0-.43.06-.48.27a1.24,1.24,0,0,1-1.17,1c-.58.11-.25.76-.39,1.16a.93.93,0,0,1,.36-1.66c.19,0,.38,0,.49-.24a3.37,3.37,0,0,1,2.36-1.83,3.84,3.84,0,0,0,2.07-1.74,5.89,5.89,0,0,1,1.94-1.68,3.41,3.41,0,0,0,.49-.31.89.89,0,0,0,.2-1.21c-.21-.31-1.49-.38-1.64-.11a.94.94,0,0,1-1,.51.92.92,0,0,0-1,.61c-.06.13-.13.28-.3.22s-.12-.27-.09-.42a.44.44,0,0,1,.08-.15,5.64,5.64,0,0,1,3.39-1.64c.16,0,.34.18.44,0s-.12-.29-.22-.42-.17-.15-.23-.24c-.53-.86-1.1-.79-1.73-.11-.09.09-.28.21-.36.18-1.13-.47-1.29.59-1.81,1.1-.19.19-.13.8-.55.54s0-.59.17-.86l.79-1.19c.13-.2.32-.44.51-.35.75.35,1-.45,1.52-.61a.62.62,0,0,0,.36-.7,28.12,28.12,0,0,1,0-3.18c0-.22.12-.58-.29-.55a.49.49,0,0,0-.46.59c0,.19.07.38.1.58a2.11,2.11,0,0,1-1.8,2.47,2,2,0,0,0-1.63.85c-.17.27-.29.41-.2.76.25,1-.08,1.36-1,1.41s-1.09.07-.59,1c.34.63.17,1.18-.51,1.27A2.69,2.69,0,0,0,48,161.18c-.45.67-.86,1.37-1.3,2-.09.14-.23.33-.39.23s0-.27.06-.4c.4-.8.79-1.6,1.22-2.38a2.85,2.85,0,0,1,1.73-1.49c.42-.13.6-.3.31-.77-.5-.8-.14-1.46.81-1.55.22,0,.44,0,.67,0,.49,0,.66-.28.42-.73-.33-.62-.45-1.15.43-1.41.13,0,.38-.21.29-.45a.35.35,0,0,0-.5-.15c-.71.38-1.61.39-2.13,1.16s-1.07,1.37-2.22,1c-.71-.25-1.19.42-1.48,1.07-.07.16-.09.47-.34.37s-.07-.34,0-.52a2.22,2.22,0,0,1,2.13-1.57,1.53,1.53,0,0,0,1.58-.8,3.2,3.2,0,0,1,3.76-.93,1.67,1.67,0,0,0,2-1.12,1.62,1.62,0,0,0,0-.66c-.32-1-.15-1.76,1.06-2,.35-.07.25-.45.32-.7C56.67,148.5,56.37,147.54,56.85,146.69ZM60,164.5a2.22,2.22,0,0,1,1.7.56,1.33,1.33,0,0,0,1.68,0c.52-.38.39-1,.18-1.61a8.79,8.79,0,0,0-4-4.68c-.16-.1-.29-.35-.5-.22s-.08.36,0,.55c.08.46.23.91.3,1.38a5,5,0,0,1-.81,2.85c-.12.25-.37.63,0,.72S59.47,164.56,60,164.5Zm-1.68-2.36,0-.06s0,0,0,0,0,0,0,.06Zm-.18.29,0-.05,0,.05.07,0Zm0,7.93,0-.07-.06.06s0,0,.05.06Z"></path>
      <polygon class="cls-12" points="10.06 133.84 59.14 154.35 103.74 135.44 59.14 119.71 10.06 133.84"></polygon>
      <path class="cls-13" d="M58.29,136.21a10.65,10.65,0,0,1-.07-2.93c0-4.82,0-9.63-.33-14.44-.08-1.21-.52-1.83-1.88-1.81a34.78,34.78,0,0,1-16.08-3.12c-.92-.44-1,0-1.1.7a11.55,11.55,0,0,1-6.37,8.85,17.2,17.2,0,0,1-12.4,1.39A62.84,62.84,0,0,1,9.41,121c-.44-.19-.95-.36-.83-1s.65-.53,1.13-.52a12.87,12.87,0,0,0,11.08-5.75,46.31,46.31,0,0,1,4-5.35A11.17,11.17,0,0,1,29.17,106c-3-3.14-4.63-6.94-6.17-10.79-.5-1.25-.73-2.6-1.12-3.9-.1-.36-.17-1-.79-.42-4.21,3.67-9.71,1.61-12.86-1.78-2.38-2.56-4-5.62-5.84-8.54C1.67,79.38,1,78.2.31,77c-.21-.36-.53-.73-.09-1.12s.69-.09,1,.14a18.13,18.13,0,0,0,11,3.41,9.5,9.5,0,0,1,5.79,1.63c-.32-1.28-.55-2.2-.77-3.11-.14-.57-.56-.56-1-.47-3,.63-5.6-.41-8-2.14-.27-.2-.61-.35-.58-.72s.39-.38.66-.33c2.42.38,5-.48,7.32.68.1.07.24.22.3.2.24-.11.12-.29,0-.44-.14-1.37-1.16-2-2.24-2.41-4.1-1.77-5.27-5.28-5.48-9.29-.15-2.87.25-5.81-1.32-8.45a.39.39,0,0,1,0-.51.36.36,0,0,1,.5-.09c3.86,2.88,8.16,5.34,10,10.2a8.84,8.84,0,0,1,.09,5.5c-.14.21-.44.46-.18.68s.42-.1.54-.32c1.16-1.08,2.52-2,3.15-3.51.11-.25.25-.58.59-.47s.32.53.29.83c-.27,2.92-.85,5.72-3,7.94a3.48,3.48,0,0,0-.11,4c.31.35.48.07.66-.11,1.51-1.44,3.57-1.52,5.41-2.14.74-.25.84.22.52.75A15,15,0,0,1,24,79.39a6,6,0,0,0-1.44,4.55,38.58,38.58,0,0,0,3.85,14.2,22.38,22.38,0,0,0,2.89,4.78c1.24,1.49,2.25,3.14,4.52,3.39a4.87,4.87,0,0,1,3.38,2.08,1,1,0,0,0,1.3.45c6.68-2.14,12.37-.14,17.49,4.24.27.23.45.62,1,.62.23-.6-.15-1.14-.26-1.68-1.27-6-2.69-12-3.79-18.1a15.53,15.53,0,0,0-2.59-5.56C49,86.23,47.44,84.24,46,82.21c-.15-.2-.22-.74-.68-.32v0c.07-.1.22-.25.19-.29-1-1.73-2-3.45-3.07-5.17a.66.66,0,0,0-.85-.27c-.91.29-2.4,2.18-2.13,2.87.55,1.43,1.72.9,2.75.76-1,.53-1.83,1.86-3.16.35a1.69,1.69,0,0,0-2.07,0,2.14,2.14,0,0,1-2.62.1L33.79,80c-.07-.3-.41-.66-.09-.9s.44.25.64.43a1.7,1.7,0,0,0,2.39,0,5.44,5.44,0,0,0,1.35-1.94,6.39,6.39,0,0,1,2.47-2.42c-2.42-1.57-5.86-1.71-7.49.37a6.14,6.14,0,0,1-4.38,2.18c-.43.06-.87.18-1.07-.35s.18-.64.51-.86c1.27-.82,1.37-2.26,1.78-3.53a4.72,4.72,0,0,1,4.33-3.6c2.62-.25,3.94.89,4,3.52,0,.4.2.48.48.54.54.14,1.09.26,1.63.38.12,0,.29.11.35.06s0-.31-.08-.44q-1.66-3-3.32-6a1.85,1.85,0,0,0-.73-.83,1.55,1.55,0,0,1-.74-1.92c.11-.43.24-.88-.21-1.12s-.81.15-1.1.41c-1.13,1-2,2.32-3.23,3.3A11,11,0,0,1,28,68.71c.93-2.44,1.23-5,4.44-5.53-.74-.48-1.09-.73-1.73-.38a10.09,10.09,0,0,1-13.08-3.23,64.81,64.81,0,0,1-4.67-7.47c-.13-.26-.56-.5-.2-.84s.55,0,.76.13c2,1.56,4.35,1.35,6.71,1.23a12.52,12.52,0,0,1,8,1.84c2.2,1.53,3.63,3.51,3.43,6.32-.1,1.32.93,1.14,1.65,1.41.15.09.32.14.43,0s-.11-.18-.18-.27a4.31,4.31,0,0,1-.13-5,4.8,4.8,0,0,0,.44-3.63A75.6,75.6,0,0,1,33,43.64c0-1.07-.25-1.8-1.48-2.12-2.86-.73-4.1-3.19-5.5-5.46a.59.59,0,0,1,0-.77c.3-.31.62-.09.87.1,1.77,1.37,4.11,1.75,5.81,3.69.2-1.19.42-2.1-.22-2.89-3-3.74-2.2-7.58-.34-11.43,1.16-2.39,2.68-4.63,2.48-7.46,0-.25,0-.48.32-.55s.48.17.6.43c1.52,3.3,3.4,6.44,3.92,10.13a9.07,9.07,0,0,1-2.2,7.93,2,2,0,0,0-.32.45c0,.06,0,.17.09.38,1.5-.41,3.07-.58,4.38-1.56.27-.2.63-.59,1-.22s-.08.68-.26,1c-1.64,2.5-3.56,4.69-6.57,5.56-.8.23-.94.74-.9,1.49a96,96,0,0,0,2.57,19.41,41.75,41.75,0,0,0,4.22,9.62c.93,1.67,2,3.27,3,4.9.17.27.31.68.67.63s.37-.57.43-.91a17.77,17.77,0,0,0-2-11.65,13.53,13.53,0,0,1-1.64-4.73A8,8,0,0,1,44,53a7,7,0,0,0,2-4.43,6,6,0,0,1,5.25-5.87,5,5,0,0,0-6.53-.29,6.72,6.72,0,0,1-4.83,1.46c-.34,0-.67,0-.81-.42a.52.52,0,0,1,.27-.71c1.69-.66,2-2.35,2.81-3.69a4.72,4.72,0,0,1,5-2.48c2.42.36,3.37,1.62,3,4.06,0,.35,0,.51.34.64.68.28,1.35.6,2.31,1-.57-2,.07-4-1.7-5.6-3.78-3.37-3.71-7.69-2.59-12.16.08-.34.13-.83.63-.8s.43.43.48.75c.28,1.67,1.53,2.69,2.54,4.06,2.7-6.67,6-13,5.72-20.29,0-.49-.06-1,.53-1.15s.86.28,1,.72c1.57,4.34,3.23,8.66,4.66,13a16.68,16.68,0,0,1,.59,9.39,9.76,9.76,0,0,1-8.62,7.83c-2.25.35-2.27.35-1.89,2.55A125.4,125.4,0,0,0,58.11,56.1a3.57,3.57,0,0,0,.49.81c0,.21-.17.48-.09.65.89,1.94.84,4.08,1.3,6.11-2.32,3.65-2.79,7.87-3.68,12-.74,3.35-2,6.63-1.67,10.4a24.5,24.5,0,0,1,4.12-2.79c.33-.15.19-.45.06-.72-1.49-3-.09-5.41,1.76-7.65a7.82,7.82,0,0,1,5.37-2.72,46.24,46.24,0,0,0,10-2.42c1.29-.44,2.15-1,2-2.56a7.26,7.26,0,0,1,.11-1.54,7.64,7.64,0,0,0-1.45-6.19c-2.21-2.8-2.1-6.41-1.66-9.9,1,2.2,3.28,3.49,4.1,5.78.14.41.36.64.82.27,1.79-1.41,4-1.77,6.12-2.26a10.27,10.27,0,0,0,7.3-6c.11-.23,0-.64.46-.59s.39.46.38.77c-.08,5.37-1.07,10.37-5.34,14.21a7.54,7.54,0,0,1-8.53,1.46,2.34,2.34,0,0,0-.44-.06c-.13,1.36-.25,2.7-.37,4,0,.22-.11.48.15.62s.44-.06.63-.19a12.28,12.28,0,0,0,2.67-2.47c.3-.38.57-1,1.21-.64s.39,1,.24,1.49A10.14,10.14,0,0,1,81,71a7.28,7.28,0,0,0-2.8,5.48,58.16,58.16,0,0,1-1.46,7.84c-.08.36-.28.81,0,1.07s.72-.07,1-.25c2.18-1.33,3.81-3.28,5.61-5,.26-.26.16-.6.17-.92.12-3.9,1.32-7.21,5.25-8.77a15.56,15.56,0,0,0,7.77-5.93c.21-.33.44-.47.8-.32s.32.44.26.72c-.94,4-1.07,8.28-2.86,12.1s-5.22,6.2-9.72,4.28a.88.88,0,0,0-1.09.26,57.16,57.16,0,0,1-5.3,4.78c-.65.47-.12.64.17.88a8.26,8.26,0,0,1,3.3,5.64A5.35,5.35,0,0,1,79,98.42c-1.65.75-3.36,1.37-5,2.07-.23.09-.44.19-.65,0s-.19-.58-.08-.9a15.82,15.82,0,0,1,1.92-3.4c1.46-2.3,1.79-5.8.62-7.84C74.81,90.22,74,92.05,73,93.74c-1.85,3.05-2.48,6.64-4.44,9.63-.49.76-.29,2.14-1.85,1.78-.09,0-.29.33-.41.53-1.61,2.62-3.2,5.26-4.83,7.87-.56.89-.41,1.15.66,1.24a21.8,21.8,0,0,0,10-1.9,1.35,1.35,0,0,0,1-1.43c0-3,2.9-6.15,5.91-5.92,2.61.19,3.29-1.44,4.08-3.11A29.9,29.9,0,0,0,85.81,91.1a5.71,5.71,0,0,0-1.73-4.95A4.78,4.78,0,0,1,83.24,85c-.16-.28-.07-.67.31-.53,1.19.43,2.53.18,3.64.89.24.15.58.29.66.51.64,1.74,1.63,1.3,2.88.66,1.86-.95,4-.67,6-1.29a14.11,14.11,0,0,0,4.51-2.49c.27-.21.53-.43.85-.12s.12.48,0,.74c-1.74,3.19-3,6.65-5.29,9.52a7.7,7.7,0,0,1-6.26,3.17,5.23,5.23,0,0,1-2.76-.89c-.71-.45-1-.24-1.06.54a24.72,24.72,0,0,1-3.49,9.52c-.35.57-.13.77.45,1,3.75,1.19,7.27,1.09,10.39-1.63.27-.24.53-.6,1-.34a.51.51,0,0,1,.16.74c-2.13,4.26-4.11,8.67-8.42,11.27s-9.43,2.53-12.71-1.7c-.44-.57-.82-.53-1.43-.26A28.08,28.08,0,0,1,62,116.6c-1.43.05-1.77.4-1.65,1.92a129.77,129.77,0,0,1,.37,15.4,4.88,4.88,0,0,1-.34,2.33A1.68,1.68,0,0,1,58.29,136.21ZM84.54,80c5.2-2.22,11.69-9.91,11.24-13.43-1,1.24-1.12,2.78-2,4a26.28,26.28,0,0,1-6.25,6.11c-1.18.9-2.73,1.56-3,3.3l-.21.3.11.07ZM59.29,12.89c0-.47,0-1-.67-1-.16.3,0,.47.11.67a.59.59,0,0,0,.55.31A12.5,12.5,0,0,0,60,16.14a11.46,11.46,0,0,1,.61,4.67,20.72,20.72,0,0,1-2.28,7.42C57.41,30,56,31.43,55,33.15c-.55.93-1.63,1.81-1,3.39,1.14-1.58,2-3.12,3.13-4.46a17.21,17.21,0,0,0,4.14-13.75C61,16.46,60.71,14.42,59.29,12.89ZM69.1,85c-.31,0-.64,0-.85.27H67.7c-1.81.7-3.28-.47-4.9-.87.49-.66,1.13,0,1.68-.19.39-.11.73-.22.86-.62A1.3,1.3,0,0,0,65,82.45c-.3-.42-.65-.25-1-.07a13.35,13.35,0,0,1-2.71,1.12,10.06,10.06,0,0,0-5.36,3.62A5.41,5.41,0,0,0,54.72,91c.52,3.51,1.27,7,2,10.45.8,3.73,1.69,7.44,2.6,11.4,2.08-3,3.83-5.8,5.54-8.68a.69.69,0,0,0,0-.67.62.62,0,0,0,.58-.31c.82-1.66,2.11-3,2.81-4.77,1.22-2.43,2.8-4.67,3.67-7.27.64-.18.71-.83,1-1.28a26.25,26.25,0,0,0,3-9.08c.36-1.93.64-3.88,1-6.21a90.09,90.09,0,0,1-10.4,6.47c-.21.11-.51.24-.43.48a5.45,5.45,0,0,0,1.66,2.85c.74.57,1.33.16,1.87-.36.31.47,0,.67-.18.94ZM51.62,86.66l.29-.16a20.16,20.16,0,0,1,.19-2.21c.69-3.62,1.29-7.25,2.17-10.83a38.45,38.45,0,0,1,3.75-10,2.3,2.3,0,0,0,.27-2.19,134.87,134.87,0,0,1-4.75-15.64c-.43-1.91-1.62-2.37-3.37-1.45-2.55,1.34-3.32,3.62-3.49,6.27,0,.58.22.78.73.71,2.58-.31,4.69,2.26,5.31,4.73a15,15,0,0,1-.14,7.62c-1.33,5-4.18,9.34-6.45,13.92a1.18,1.18,0,0,0,0,1.42q1.55,2.26,3.1,4.5C50,84.43,50.82,85.54,51.62,86.66Zm4.14,28.13a19.35,19.35,0,0,0-4.83-3.56A14.2,14.2,0,0,0,39.47,110c-.33.11-.8.07-.83.59s.36.63.68.79c.75.38,1.5.75,2.27,1.06A28.39,28.39,0,0,0,55.76,114.79ZM15,120.58c1.39.65,2.38,0,3.37.08,2.88.08,5.45-1,8-2.09,4.1-1.76,6.74-5.55,10.62-7.6.2-.11.38-.33.16-.57s-.43-.08-.65,0a14.4,14.4,0,0,0-4.37,2.7c-3.79,3.33-8,5.86-13,6.74ZM79.65,61.24a11,11,0,0,1,4.9-3.12,14.24,14.24,0,0,0,5.66-2.82,7.66,7.66,0,0,0,2.71-5.45c-.45-.08-.56.12-.6.28-.73,3.52-3.25,5.21-6.38,6.31a24.17,24.17,0,0,0-3.79,1.66C80.94,58.78,79.54,59.41,79.65,61.24Zm-70.91-5c.16,1.4,1.37,2,2,3.14A26.37,26.37,0,0,1,13.55,69,3.65,3.65,0,0,0,15,71.41a15.3,15.3,0,0,0-.32-1.76c-.48-2.9-.41-5.92-1.95-8.59A15.88,15.88,0,0,0,8.74,56.21Zm-3.44,24c0,.34-.08.45,0,.51a3.25,3.25,0,0,0,.44.54,20.42,20.42,0,0,0,10.55,5.57c1.84.29,3.39,1.39,5.35,1.91a2.84,2.84,0,0,0-1.68-1.6c-1.54-.52-3.06-1.1-4.62-1.57a24,24,0,0,1-4.8-1.85C8.7,82.69,7.14,81.39,5.3,80.17ZM35.61,19.46l-.38.06c.16,1.17.41,2.33.47,3.51a21.6,21.6,0,0,1-1.8,9.48,5.13,5.13,0,0,0-.39,2.73c0,.28.18.57.53.5s.28-.35.26-.57a3.52,3.52,0,0,1,.45-2c1.85-3.26,2-6.81,1.76-10.4A16.92,16.92,0,0,0,35.61,19.46ZM45.93,51.87c.11,3.52,1.64,6.82,1.8,10.31s.47,6.92-.65,10.31C49.9,67.69,48,55.83,45.93,51.87ZM74,112.6c2,0,3.93-.16,5.88-.09a15.74,15.74,0,0,0,5.88-.93c1.76-.64,3.63-1.37,4.73-3.12-.77.31-1.44.78-2.17,1.14a20.16,20.16,0,0,1-9.7,2.1A8.83,8.83,0,0,0,74,112.6ZM30.23,61.26c-.9-1.6-2.51-2.2-4-2.94-2.79-1.35-5.91-1.9-8.57-3.63-.75-.49-1.28-1.31-2.26-1.48a7.34,7.34,0,0,0,3.17,2.85C22.26,58.13,26.71,58.62,30.23,61.26ZM87,93.25c4-2,8.89-2.56,11.35-7-2.25,2.59-5.38,3.71-8.38,5C88.82,91.73,87.5,91.92,87,93.25ZM36.9,36c-2.36.54-2.49.7-2,2.14Zm-20,37.13.74-2.59C16,71.4,15.89,71.69,16.86,73.09ZM91.35,108.2c0-.08.11-.18.08-.24a.24.24,0,0,0-.21-.09.23.23,0,0,0-.1.22C91.14,108.15,91.27,108.16,91.35,108.2Z"></path>
      <path class="cls-13" d="M61.36,49.07c-.19-.29-.6-.49-.36-1,1.52.9,2.47.67,3.15-.95.57-1.34,1.21-2.51,2.71-3,.59-.18.39-.56,0-.79-1.5-1-3-2-4.88-.77a4.57,4.57,0,0,1-3.28.24c-.24,0-.46-.13-.5-.4a.34.34,0,0,1,.27-.42c1.26-.32,1.78-1.45,2.54-2.31a3.28,3.28,0,0,1,4.53-.59,1.91,1.91,0,0,1,1,2.49c-.48,1.18.66,1.2,1.18,1.47.7.36.63-.47.73-.83a94.07,94.07,0,0,0,2.83-18.8,1.75,1.75,0,0,0-.8-1.51A12.82,12.82,0,0,1,67.91,5.54a10.26,10.26,0,0,1,5.64-4.37,21,21,0,0,1,9.93-1A8.7,8.7,0,0,1,84.54.5c-2.79,1.58-3.38,4-3.49,6.73a20.52,20.52,0,0,1-6,13.64c-.13.13-.23.28-.38.46.52.47,1.1.26,1.62.27,5.23.07,8,4.28,5.88,9-.5,1.16-1,2.33-1.41,3.5-.11.26-.12.57-.47.62s-.54-.29-.7-.56A16.83,16.83,0,0,1,78.22,30c-.64-2.49-2.55-3.82-4.45-5.18-.54-.39-.73-.07-.74.48A80.44,80.44,0,0,1,71.29,39c-.23,1.23-.54,2.44-.85,3.82,2.19-1,3.85-2.51,5.73-3.66a7.09,7.09,0,0,1,6.94-.62c3.23,1.44,6.49,2.36,10,1.68.32-.06.71-.12.86.26s-.21.64-.53.85a88.73,88.73,0,0,1-8.89,5.56c-2.78,1.35-5.61,1.77-8.46.28A5.89,5.89,0,0,1,73,42.54c-2.62,1.2-3.84,3.34-4.42,6-.36.05-.73.12-1.09.15-1.45.12-2.63,1.39-4.2,1C62.7,49.17,61.93,49.43,61.36,49.07Zm11.3-28.2c1.42-2.39.75-4.92.55-7.36a10.71,10.71,0,0,1,.69-4.88C75,5.79,77.2,4,79.69,2.41c.34-.21.89-.28.75-1-.54.28-1,.56-1.43.75C75.4,3.7,71.88,7.64,72.18,12.22a20.32,20.32,0,0,0,.28,3.89A12.49,12.49,0,0,1,72.66,20.87ZM74,42.05c2.11-.27,3.69,1,5.55,1.43a12.39,12.39,0,0,0,5.52-.13c2.78-.68,4.46-1.46,4.91-2.3l-1,.19a1.67,1.67,0,0,0-.4.09c-3.24,1.38-6.52,2.11-10,.76a16.17,16.17,0,0,0-2.82-.79C75.17,41.16,74.43,41.07,74,42.05Zm-6.27,2.88a3.51,3.51,0,0,0-2.12,2.29.74.74,0,0,0,.42.93c.5.22.63-.24.75-.56C67.1,46.79,67.37,46,67.74,44.93Z"></path>
      <path class="cls-14" d="M34.31,80.25a2.14,2.14,0,0,0,2.62-.1,1.69,1.69,0,0,1,2.07,0c1.33,1.51,2.16.18,3.16-.35,1.34.25,2,1.52,3.11,2.1v0a32.55,32.55,0,0,1,.49,5.92A28.82,28.82,0,0,1,44,97.25c-.87,2.32-2.2,4.38-5.18,4.29a.92.92,0,0,0-.92.71c-.19.48-.32,1-1,1s-.76-.57-1-1a2.57,2.57,0,0,0-.57-.57,10.22,10.22,0,0,0-.19-4.12,16.43,16.43,0,0,1-.32-2.2c-.29-2.4-.41-4.82-.66-7.22s-1.33-4.59.05-6.91C34.42,81,34.3,80.57,34.31,80.25Z"></path>
      <path class="cls-14" d="M63.24,49.64c1.57.41,2.75-.86,4.2-1,.36,0,.73-.1,1.09-.15,2.93,1,3.91,3.24,3.85,6.11a28.55,28.55,0,0,1-1,7.74c-.91,3-2.57,5.37-5.67,6.41-.78.26-1.32.86-2,1.16l-.81,0c-.35-.22-.28-.54-.23-.87a2.62,2.62,0,0,0,.89-2.22A25.19,25.19,0,0,0,62.41,61C61.47,57.1,61.22,53.28,63.24,49.64Z"></path>
      <path class="cls-15" d="M34.31,80.25c0,.32.11.72,0,1-1.38,2.32-.28,4.59-.05,6.91s.37,4.82.66,7.22a16.43,16.43,0,0,0,.32,2.2,10.22,10.22,0,0,1,.19,4.12,4.19,4.19,0,0,1-2.63-3.22c-.64-3.2-1.8-6.27-2.26-9.5a13.47,13.47,0,0,1,.41-6.49A3.33,3.33,0,0,1,33.79,80Z"></path>
      <path class="cls-15" d="M63.24,49.64c-2,3.64-1.77,7.46-.83,11.31a25.19,25.19,0,0,1,1.1,5.85A2.62,2.62,0,0,1,62.62,69l-2.81-5.35c-.46-2-.41-4.17-1.3-6.11-.08-.17.06-.44.09-.65.17-1.41-.13-2.84.19-4.26a5.41,5.41,0,0,1,2.57-3.58C61.93,49.43,62.7,49.17,63.24,49.64Z"></path>
      <path class="cls-15" d="M62.85,69.89l.81,0C63.37,70.3,63.1,70.36,62.85,69.89Z"></path>
      <path class="cls-14" d="M68.25,98.46c-.7,1.73-2,3.11-2.81,4.77a.62.62,0,0,1-.58.31,5.45,5.45,0,0,1-3.62-2.82C59.17,97.58,59,94,58.92,90.39c-.09-2.92.83-5.13,3.88-6,1.62.4,3.09,1.57,4.9.87a15.78,15.78,0,0,1,.5,11.9C68,97.61,67.79,98.05,68.25,98.46Z"></path>
      <path class="cls-15" d="M69.43,85c2.3,1.47,2.76,3.68,2.49,6.19-.87,2.6-2.45,4.84-3.67,7.27-.46-.41-.21-.85,0-1.28a15.78,15.78,0,0,0-.5-11.9h.55c.32,0,.65.08.85-.27Z"></path>
      <path class="cls-16" d="M15,120.58l4.12-.73c5.06-.88,9.24-3.41,13-6.74a14.4,14.4,0,0,1,4.37-2.7c.22-.09.46-.21.65,0s0,.46-.16.57c-3.88,2-6.52,5.84-10.62,7.6-2.57,1.1-5.14,2.17-8,2.09C17.41,120.63,16.42,121.23,15,120.58Z"></path>
      <path class="cls-16" d="M59.29,12.89c1.42,1.53,1.66,3.57,1.89,5.44A17.21,17.21,0,0,1,57,32.08c-1.14,1.34-2,2.88-3.13,4.46-.59-1.58.49-2.46,1-3.39,1-1.72,2.46-3.14,3.42-4.92a20.72,20.72,0,0,0,2.28-7.42A11.46,11.46,0,0,0,60,16.14a12.5,12.5,0,0,1-.76-3.25Z"></path>
      <path class="cls-16" d="M79.65,61.24c-.11-1.83,1.29-2.46,2.5-3.14a24.17,24.17,0,0,1,3.79-1.66c3.13-1.1,5.65-2.79,6.38-6.31,0-.16.15-.36.6-.28a7.66,7.66,0,0,1-2.71,5.45,14.24,14.24,0,0,1-5.66,2.82A11,11,0,0,0,79.65,61.24Z"></path>
      <path class="cls-16" d="M8.74,56.21a15.88,15.88,0,0,1,4,4.85c1.54,2.67,1.47,5.69,1.95,8.59A15.3,15.3,0,0,1,15,71.41,3.65,3.65,0,0,1,13.55,69a26.37,26.37,0,0,0-2.83-9.67C10.11,58.26,8.9,57.61,8.74,56.21Z"></path>
      <path class="cls-16" d="M5.3,80.17c1.84,1.22,3.4,2.52,5.2,3.51a24,24,0,0,0,4.8,1.85c1.56.47,3.08,1,4.62,1.57a2.84,2.84,0,0,1,1.68,1.6c-2-.52-3.51-1.62-5.35-1.91A20.42,20.42,0,0,1,5.7,81.22a3.25,3.25,0,0,1-.44-.54C5.22,80.62,5.27,80.51,5.3,80.17Z"></path>
      <path class="cls-16" d="M35.61,19.46a16.92,16.92,0,0,1,.9,3.29c.29,3.59.09,7.14-1.76,10.4a3.52,3.52,0,0,0-.45,2c0,.22,0,.52-.26.57s-.49-.22-.53-.5a5.13,5.13,0,0,1,.39-2.73A21.6,21.6,0,0,0,35.7,23c-.06-1.18-.31-2.34-.47-3.51Z"></path>
      <path class="cls-16" d="M45.93,51.87c2.09,4,4,15.82,1.15,20.62,1.12-3.39.8-6.88.65-10.31S46,55.39,45.93,51.87Z"></path>
      <path class="cls-16" d="M84.54,80c.31-1.74,1.86-2.4,3-3.3a26.28,26.28,0,0,0,6.25-6.11c.83-1.23,1-2.77,2-4,.45,3.52-6,11.21-11.24,13.43Z"></path>
      <path class="cls-16" d="M74,112.6a8.83,8.83,0,0,1,4.62-.9,20.16,20.16,0,0,0,9.7-2.1c.73-.36,1.4-.83,2.17-1.14-1.1,1.75-3,2.48-4.73,3.12a15.74,15.74,0,0,1-5.88.93C78,112.44,76,112.56,74,112.6Z"></path>
      <path class="cls-16" d="M30.23,61.26c-3.52-2.64-8-3.13-11.69-5.2a7.34,7.34,0,0,1-3.17-2.85c1,.17,1.51,1,2.26,1.48,2.66,1.73,5.78,2.28,8.57,3.63C27.72,59.06,29.33,59.66,30.23,61.26Z"></path>
      <path class="cls-16" d="M87,93.25c.54-1.33,1.86-1.52,3-2,3-1.32,6.13-2.44,8.38-5C95.85,90.69,91,91.23,87,93.25Z"></path>
      <path class="cls-16" d="M59.28,12.89a.59.59,0,0,1-.55-.31c-.1-.2-.27-.37-.11-.67.69,0,.65.51.67,1Z"></path>
      <path class="cls-16" d="M91.34,108.2c-.07,0-.2,0-.22-.11a.23.23,0,0,1,.1-.22.24.24,0,0,1,.21.09C91.46,108,91.38,108.12,91.34,108.2Z"></path>
      <path class="cls-14" d="M69.1,85c-.2.35-.53.28-.85.27C68.46,85,68.79,85,69.1,85Z"></path>
      <path class="cls-16" d="M84.54,80l-.1.36-.11-.07.21-.3Z"></path>
      <path class="cls-16" d="M72.66,20.87a12.49,12.49,0,0,0-.2-4.76,20.32,20.32,0,0,1-.28-3.89C71.88,7.64,75.4,3.7,79,2.16c.46-.19.89-.47,1.43-.75.14.72-.41.79-.75,1C77.2,4,75,5.79,73.9,8.63a10.71,10.71,0,0,0-.69,4.88C73.41,16,74.08,18.48,72.66,20.87Z"></path>
      <path class="cls-16" d="M74,42.05c.42-1,1.16-.89,1.82-.75a16.17,16.17,0,0,1,2.82.79c3.45,1.35,6.73.62,10-.76a1.67,1.67,0,0,1,.4-.09l1-.19c-.45.84-2.13,1.62-4.91,2.3a12.39,12.39,0,0,1-5.52.13C77.7,43.09,76.12,41.78,74,42.05Z"></path>
      <polygon class="cls-17" points="66.47 149.7 66.38 149.72 66.39 149.65 66.47 149.7"></polygon>
      <path class="cls-6" d="M56.16,142.25a1.36,1.36,0,0,0-1.3-.48c-.73.22-1,.8-.89,1a3.29,3.29,0,0,0,.27.28c.18.17.56-.33.58-.33Z"></path>
      <path class="cls-7" d="M56.54,143.12s-.23-1-.6-1-.79-.06-.79-.06l-.1.18s.36.64.51.69.43.12.49.15A3.29,3.29,0,0,0,56.54,143.12Z"></path>
      <path class="cls-8" d="M56.51,143.24a.26.26,0,0,0-.15-.38,3.21,3.21,0,0,0-.48-.1s-.59.45-.7.52-.2.06.15.16.33.19.64.15A.94.94,0,0,0,56.51,143.24Z"></path>
      <path class="cls-9" d="M55.88,142.76a3.89,3.89,0,0,0-.43.43c-.17.2-.2.26-.41.16s-.75-.18-.89-.39-.13-.18,0-.43a1.11,1.11,0,0,1,.7-.43.62.62,0,0,1,.69.15A1.55,1.55,0,0,1,55.88,142.76Z"></path>
      <path class="cls-6" d="M53.2,125.54a2,2,0,0,0-2-.29c-1,.54-1.2,1.45-1,1.7a3.37,3.37,0,0,0,.47.32c.31.19.7-.64.73-.65Z"></path>
      <path class="cls-7" d="M54,126.67s-.62-1.35-1.16-1.25-1.15.15-1.15.15l-.1.29s.73.81,1,.84.65,0,.75.06A5,5,0,0,0,54,126.67Z"></path>
      <path class="cls-8" d="M54,126.85c0-.13,0-.47-.32-.5a5,5,0,0,0-.72,0s-.71.83-.86,1-.26.15.26.19.54.17,1,0A1.36,1.36,0,0,0,54,126.85Z"></path>
      <path class="cls-9" d="M53,126.35a5.87,5.87,0,0,0-.49.75c-.19.34-.21.44-.55.35s-1.12,0-1.39-.28-.25-.22-.07-.63a1.58,1.58,0,0,1,.86-.82.9.9,0,0,1,1,0A2.32,2.32,0,0,1,53,126.35Z"></path>
      <path class="cls-6" d="M49.2,131.67s-4.16-2.08-7.07.46-3.05,5.79-2.06,6.49a12.13,12.13,0,0,0,1.83.73c1.2.45,1.94-2.68,2-2.73S49.2,131.67,49.2,131.67Z"></path>
      <path class="cls-7" d="M52.75,135s-3.09-4.13-4.85-3.41a39.09,39.09,0,0,1-3.81,1.31L44,133.9s3,2.26,3.85,2.19,2.25-.33,2.6-.33A19.05,19.05,0,0,0,52.75,135Z"></path>
      <path class="cls-8" d="M52.87,135.58c0-.46-.21-1.64-1.45-1.48a18.34,18.34,0,0,0-2.45.53s-1.82,3.3-2.23,3.87-.78.69,1,.46,2,.19,3.33-.64A4.67,4.67,0,0,0,52.87,135.58Z"></path>
      <path class="cls-9" d="M49,134.63a20.32,20.32,0,0,0-1.14,2.87c-.38,1.31-.39,1.67-1.59,1.61s-3.86.7-4.93,0-1-.58-.72-2.1,1-2.24,2.36-3.41a3.11,3.11,0,0,1,3.53-.75A8.18,8.18,0,0,1,49,134.63Z"></path>
      <path class="cls-6" d="M63.59,132.54s-3.49-2-6.17,0-3,4.85-2.17,5.52a11.89,11.89,0,0,0,1.54.74c1,.46,1.85-2.21,1.91-2.25S63.59,132.54,63.59,132.54Z"></path>
      <path class="cls-7" d="M66.48,135.61s-2.44-3.78-4-3.26a34.3,34.3,0,0,1-3.39.91l-.16.91s2.5,2.14,3.2,2.13,2-.15,2.28-.14A15.51,15.51,0,0,0,66.48,135.61Z"></path>
      <path class="cls-8" d="M66.54,136.16c0-.4-.08-1.44-1.17-1.37a15.08,15.08,0,0,0-2.16.3s-1.78,2.77-2.16,3.23-.72.56.86.46,1.69.28,2.93-.35A4.06,4.06,0,0,0,66.54,136.16Z"></path>
      <path class="cls-9" d="M63.21,135.09a17.76,17.76,0,0,0-1.16,2.43c-.41,1.11-.44,1.43-1.47,1.3s-3.4.38-4.29-.27-.85-.57-.5-1.87a4.81,4.81,0,0,1,2.26-2.82,2.69,2.69,0,0,1,3.1-.43A7,7,0,0,1,63.21,135.09Z"></path>
      <path class="cls-6" d="M72.83,128.85s-3.44-2.65-6.56-.85-3.85,4.76-3.06,5.58a13,13,0,0,0,1.54,1c1,.62,2.27-2.11,2.34-2.14S72.83,128.85,72.83,128.85Z"></path>
      <path class="cls-7" d="M75.5,132.51s-2.09-4.35-3.83-4-3.73.52-3.73.52l-.3.94s2.38,2.62,3.13,2.7,2.12.1,2.44.16A17,17,0,0,0,75.5,132.51Z"></path>
      <path class="cls-8" d="M75.49,133.1c.05-.42.11-1.54-1.06-1.61a16.54,16.54,0,0,0-2.34,0s-2.27,2.71-2.74,3.15-.84.5.86.61,1.76.52,3.16,0A4.34,4.34,0,0,0,75.49,133.1Z"></path>
      <path class="cls-9" d="M72.09,131.52A19.79,19.79,0,0,0,70.52,134c-.58,1.13-.66,1.46-1.74,1.19s-3.67,0-4.53-.87-.83-.71-.28-2.05,1.32-1.87,2.78-2.7a2.9,2.9,0,0,1,3.37,0A7.44,7.44,0,0,1,72.09,131.52Z"></path>
      <path class="cls-6" d="M75.5,140a2.07,2.07,0,0,0,1.91-.94c.52-1,.18-2-.18-2a4,4,0,0,0-.59,0c-.38,0-.23,1-.24,1S75.5,140,75.5,140Z"></path>
      <path class="cls-7" d="M74.14,139.48s1.33.79,1.74.39.9-.8.9-.8l-.08-.31a4.06,4.06,0,0,0-1.32-.16c-.22.11-.59.35-.69.39A6,6,0,0,0,74.14,139.48Z"></path>
      <path class="cls-8" d="M74,139.32c.07.12.25.43.58.24a5.32,5.32,0,0,0,.62-.42s.12-1.13.17-1.34.13-.28-.34,0-.57.17-.85.56A1.37,1.37,0,0,0,74,139.32Z"></path>
      <path class="cls-9" d="M75.23,139.14a6.25,6.25,0,0,0,0-.93c0-.41-.08-.51.25-.63s1-.64,1.37-.58.35,0,.44.5a1.65,1.65,0,0,1-.26,1.22.93.93,0,0,1-.89.61A2.33,2.33,0,0,1,75.23,139.14Z"></path>
      <path class="cls-6" d="M42.73,140.72a2.64,2.64,0,0,0,2.51-1c.75-1.28.4-2.48-.05-2.61a4,4,0,0,0-.75,0c-.49,0-.38,1.21-.4,1.24Z"></path>
      <path class="cls-7" d="M41,140s1.62,1.12,2.18.64,1.22-.94,1.22-.94l-.09-.4a5.24,5.24,0,0,0-1.66-.32c-.28.12-.78.39-.91.44A6.87,6.87,0,0,0,41,140Z"></path>
      <path class="cls-8" d="M40.91,139.75c.08.16.28.57.71.36a6.21,6.21,0,0,0,.83-.49s.26-1.42.33-1.68.2-.35-.43,0-.73.17-1.13.64A1.83,1.83,0,0,0,40.91,139.75Z"></path>
      <path class="cls-9" d="M42.45,139.62a7.38,7.38,0,0,0,.06-1.18c0-.53-.06-.66.38-.78s1.32-.73,1.79-.62.44.09.52.68a2.13,2.13,0,0,1-.44,1.53,1.2,1.2,0,0,1-1.19.7A3,3,0,0,1,42.45,139.62Z"></path>
      <path class="cls-6" d="M54.25,134.15a1.57,1.57,0,0,0,1.56.27c.76-.4,1-1.1.78-1.3a2.29,2.29,0,0,0-.35-.25c-.24-.16-.56.47-.58.48Z"></path>
      <path class="cls-7" d="M53.66,133.25s.45,1.06.87,1,.89-.08.89-.08l.08-.22s-.54-.65-.71-.68-.51,0-.59-.06A3.69,3.69,0,0,0,53.66,133.25Z"></path>
      <path class="cls-8" d="M53.66,133.11c0,.1,0,.36.24.39a4.5,4.5,0,0,0,.56,0s.57-.62.68-.72.21-.11-.2-.16-.41-.14-.75,0A1,1,0,0,0,53.66,133.11Z"></path>
      <path class="cls-9" d="M54.46,133.52a4.86,4.86,0,0,0,.4-.56c.15-.27.17-.35.42-.27s.88.05,1.07.25.19.18,0,.49a1.19,1.19,0,0,1-.69.62.7.7,0,0,1-.8,0A1.9,1.9,0,0,1,54.46,133.52Z"></path>
      <path class="cls-6" d="M68.27,140.07s3.91,1,5.87-1.75,1.46-5.47.48-5.87a10.54,10.54,0,0,0-1.67-.26c-1.1-.15-1.13,2.63-1.18,2.68S68.27,140.07,68.27,140.07Z"></path>
      <path class="cls-7" d="M64.64,138s3.4,2.89,4.74,1.94,3-1.84,3-1.84l-.11-.9s-3-1.32-3.66-1.11-1.83.71-2.13.78A16,16,0,0,0,64.64,138Z"></path>
      <path class="cls-8" d="M64.42,137.47c.12.38.49,1.35,1.51,1a16.32,16.32,0,0,0,2-.91s.89-3.14,1.13-3.69.52-.74-1-.19-1.68.21-2.68,1.17A4,4,0,0,0,64.42,137.47Z"></path>
      <path class="cls-9" d="M67.9,137.53a18.33,18.33,0,0,0,.4-2.64c.07-1.18,0-1.49,1-1.66s3.12-1.34,4.15-1,1,.3,1,1.63a4.75,4.75,0,0,1-1.33,3.33,2.7,2.7,0,0,1-2.83,1.31A6.92,6.92,0,0,1,67.9,137.53Z"></path>
      <path class="cls-6" d="M50.24,137.81s2.34,1.32,4.1-.07,1.93-3.26,1.37-3.69a7.47,7.47,0,0,0-1-.47c-.68-.29-1.2,1.49-1.25,1.52S50.24,137.81,50.24,137.81Z"></path>
      <path class="cls-7" d="M48.28,135.81s1.67,2.47,2.7,2.11,2.24-.65,2.24-.65l.1-.61s-1.69-1.39-2.16-1.37-1.3.13-1.51.12A10.25,10.25,0,0,0,48.28,135.81Z"></path>
      <path class="cls-8" d="M48.23,135.44c0,.27.07.95.8.9a10.08,10.08,0,0,0,1.43-.24s1.14-1.85,1.39-2.17.47-.38-.58-.29-1.12-.17-1.94.27A2.72,2.72,0,0,0,48.23,135.44Z"></path>
      <path class="cls-9" d="M50.46,136.1a13.3,13.3,0,0,0,.74-1.62c.25-.75.27-1,1-.89s2.25-.29,2.85.13.57.36.36,1.23a3.19,3.19,0,0,1-1.47,1.9,1.77,1.77,0,0,1-2,.33A4.51,4.51,0,0,1,50.46,136.1Z"></path>
    </g>
  </g>
</svg>
