<?xml version="1.0" encoding="UTF-8"?>
<svg xmlns="http://www.w3.org/2000/svg" xmlns:xlink="http://www.w3.org/1999/xlink" viewBox="0 0 34.7 74.97">
  <defs>
    <style>.cls-1{fill:#8e6848;}.cls-2{fill:url(#Безымянный_градиент_7);}.cls-3{fill:#713e21;}.cls-4{fill:#3d271f;}.cls-5{fill:#69391e;}.cls-6{fill:#6b482f;}.cls-7{fill:#5c3624;}.cls-8{fill:#795135;}.cls-9{fill:#9a734f;}.cls-10{fill:#e7e6e3;}.cls-11{fill:#85563a;}.cls-12{fill:#8cb132;}.cls-13{fill:#7a9635;}.cls-14{fill:#6c2c9d;}.cls-15{fill:#8642b5;}.cls-16{fill:none;stroke:#8cb132;stroke-miterlimit:10;stroke-width:0.47px;}.cls-17{fill:#9349b6;}.cls-18{fill:#cd9d41;}</style>
    <linearGradient id="Безымянный_градиент_7" x1="16.77" y1="86.2" x2="18.28" y2="58.02" gradientUnits="userSpaceOnUse">
      <stop offset="0.38" stop-color="#9b714f"></stop>
      <stop offset="0.91" stop-color="#754427"></stop>
      <stop offset="1" stop-color="#6e3c20"></stop>
    </linearGradient>
  </defs>
  <g id="Слой_2" data-name="Слой 2">
    <g id="Слой_1-2" data-name="Слой 1">
      <path class="cls-1" d="M18.29,55.56s2.83,3.32,5,3.45,9.62-2.22,9.62-2.22L33.67,49,18.29,43.61Z"></path>
      <path class="cls-1" d="M1.37,48.49,2.9,58.6s5.45.82,6.41.55,5.31-1.91,6.54-1.91,2.44-1.68,2.44-1.68v-12Z"></path>
      <polygon class="cls-2" points="3.63 68.07 18.29 74.97 31.85 68.1 17.75 62.13 3.63 68.07"></polygon>
      <path class="cls-3" d="M3.63,68.07,2.9,58.6s7-.13,8.86-1.09a40.36,40.36,0,0,1,6.53-1.95l-.54,6.57Z"></path>
      <path class="cls-4" d="M13.54,59.19a2.57,2.57,0,0,0-.83-.49h0a1.7,1.7,0,0,0-1.71.41c-.61.75-.5,1.55-.23,1.68a3.3,3.3,0,0,0,.48.1h0a7.77,7.77,0,0,0,1-.23.56.56,0,0,0,.18,0l.19-.05c.44-.14.49,0,.79-.3a1.18,1.18,0,0,0,.32-.75.77.77,0,0,0-.06-.15h0A.28.28,0,0,0,13.54,59.19Z"></path>
      <path class="cls-4" d="M7.59,60.17a3,3,0,0,0-1.18.39h0a2.23,2.23,0,0,0-1.06,2c.21,1.22,1.08,1.8,1.44,1.65a4.42,4.42,0,0,0,.5-.38s0,0,0,0A10.24,10.24,0,0,0,8,62.59a.49.49,0,0,0,.1-.21l.11-.23c.24-.53.38-.5.38-1a1.51,1.51,0,0,0-.45-.94l-.19-.07h0A.37.37,0,0,0,7.59,60.17Z"></path>
      <path class="cls-5" d="M18.29,55.56l-.54,6.57,14.1,6,1.07-11.31a37.1,37.1,0,0,0-6.3-.23c-1.91.27-5.23,1.09-6.23.54A13,13,0,0,1,18.29,55.56Z"></path>
      <path class="cls-4" d="M12.92,62.31a.87.87,0,0,0-.36-.09h0s-.46,0-.6.34,0,.64.1.66l.19,0h0a3.82,3.82,0,0,0,.36-.21l.06,0,.07-.05c.15-.09.18-.06.26-.2a.48.48,0,0,0,0-.31l0,0h0A.1.1,0,0,0,12.92,62.31Z"></path>
      <path class="cls-4" d="M26.73,59.48a.58.58,0,0,0,0-.26h0s-.11-.3-.37-.3-.42.15-.4.23a.66.66,0,0,0,.06.12h0a2.53,2.53,0,0,0,.22.18l0,0s0,0,.05,0,.09.1.19.12a.33.33,0,0,0,.22-.06l0,0h0A.06.06,0,0,0,26.73,59.48Z"></path>
      <path class="cls-4" d="M30.67,64.23a3,3,0,0,0-.56-1.12h0A2.23,2.23,0,0,0,28,62.34c-1.19.39-1.65,1.34-1.44,1.67a4.71,4.71,0,0,0,.45.45s0,0,0,0a9.85,9.85,0,0,0,1.28.48.71.71,0,0,0,.23.07l.24.08c.57.16.56.3,1.07.23a1.53,1.53,0,0,0,.88-.59.85.85,0,0,0,0-.2h0v0A.32.32,0,0,0,30.67,64.23Z"></path>
      <path class="cls-4" d="M23,60.33a2.66,2.66,0,0,0-.55.79h0a1.7,1.7,0,0,0,.28,1.72c.7.66,1.5.62,1.65.35a3.27,3.27,0,0,0,.14-.46l0,0a7.42,7.42,0,0,0-.15-1,.45.45,0,0,0,0-.18l0-.19c-.1-.44,0-.48-.24-.8a1.15,1.15,0,0,0-.72-.37l-.15.05h0A.31.31,0,0,0,23,60.33Z"></path>
      <path class="cls-6" d="M23.06,68.36s.31.09.46-.12.13-.42.06-.45l-.13,0c-.09,0-.1.21-.1.21S23.06,68.36,23.06,68.36Z"></path>
      <path class="cls-7" d="M22.79,68.19s.25.24.36.17a1.63,1.63,0,0,1,.24-.14v-.07a1.11,1.11,0,0,0-.28-.1l-.17.06Z"></path>
      <path class="cls-8" d="M22.77,68.15s0,.11.12.08a.67.67,0,0,0,.15-.06s.08-.25.1-.29,0,0-.08,0-.13,0-.21.08A.3.3,0,0,0,22.77,68.15Z"></path>
      <path class="cls-9" d="M23,68.17a2,2,0,0,0,0-.21c0-.09,0-.11.08-.12s.25-.1.33-.07.07,0,.07.13a.34.34,0,0,1-.11.25.2.2,0,0,1-.22.1A.5.5,0,0,1,23,68.17Z"></path>
      <path class="cls-6" d="M19.93,66.57a1.06,1.06,0,0,0,.95-.49c.25-.53.08-1-.1-1s-.21,0-.3,0-.11.49-.11.5Z"></path>
      <path class="cls-7" d="M19.24,66.32s.68.39.88.19.45-.42.45-.42l-.05-.15a2.08,2.08,0,0,0-.66-.07l-.34.2A2.53,2.53,0,0,0,19.24,66.32Z"></path>
      <path class="cls-8" d="M19.19,66.24a.19.19,0,0,0,.29.12,2.83,2.83,0,0,0,.3-.22s.06-.57.08-.67.07-.14-.17,0-.28.09-.42.29A.69.69,0,0,0,19.19,66.24Z"></path>
      <path class="cls-9" d="M19.78,66.14a2.46,2.46,0,0,0,0-.46c0-.21-.05-.26.12-.32s.5-.33.68-.3.18,0,.23.24a.84.84,0,0,1-.12.62.47.47,0,0,1-.45.31A1.14,1.14,0,0,1,19.78,66.14Z"></path>
      <path class="cls-6" d="M17,68.85a1,1,0,0,0,1,.12c.49-.29.6-.76.47-.88a1.41,1.41,0,0,0-.24-.16c-.16-.1-.36.34-.37.34Z"></path>
      <path class="cls-7" d="M16.58,68.27s.34.69.61.63.59-.09.59-.09l0-.15s-.38-.41-.5-.42l-.39,0A2.6,2.6,0,0,0,16.58,68.27Z"></path>
      <path class="cls-8" d="M16.58,68.18c0,.07,0,.24.17.25a2.58,2.58,0,0,0,.37,0s.36-.43.43-.5.13-.08-.14-.09-.27-.08-.5,0A.68.68,0,0,0,16.58,68.18Z"></path>
      <path class="cls-9" d="M17.12,68.42a2.59,2.59,0,0,0,.25-.38c.09-.18.1-.23.27-.19s.58,0,.72.13.13.11,0,.32a.79.79,0,0,1-.43.43.43.43,0,0,1-.53,0A1.11,1.11,0,0,1,17.12,68.42Z"></path>
      <path class="cls-6" d="M15.75,67a.79.79,0,0,0,0-.8c-.26-.36-.62-.41-.71-.31s-.07.14-.1.2.28.25.28.26Z"></path>
      <path class="cls-7" d="M15.34,67.32s.5-.3.44-.51-.11-.44-.11-.44l-.11,0s-.29.32-.29.41,0,.26,0,.3A1.37,1.37,0,0,0,15.34,67.32Z"></path>
      <path class="cls-8" d="M15.27,67.33c.05,0,.19,0,.18-.15a1.53,1.53,0,0,0,0-.28s-.35-.24-.41-.3-.07-.09-.06.12,0,.21,0,.38A.56.56,0,0,0,15.27,67.33Z"></path>
      <path class="cls-9" d="M15.42,66.9a1.85,1.85,0,0,0-.31-.16c-.14-.06-.18-.07-.16-.2s0-.44.05-.55.07-.11.24-.06a.65.65,0,0,1,.36.3.35.35,0,0,1,0,.41A.93.93,0,0,1,15.42,66.9Z"></path>
      <path class="cls-6" d="M13.27,67.55a.34.34,0,0,0,.11-.33c-.06-.18-.2-.25-.26-.22l-.06.07c-.05.05.08.14.08.14S13.27,67.55,13.27,67.55Z"></path>
      <path class="cls-7" d="M13.05,67.65s.24-.07.25-.16,0-.2,0-.2l-.05,0s-.16.09-.17.13l0,.12A.66.66,0,0,0,13.05,67.65Z"></path>
      <path class="cls-8" d="M13,67.64a.06.06,0,0,0,.09,0,.9.9,0,0,0,0-.12L13,67.31s0,0,0,0,0,.09,0,.17A.25.25,0,0,0,13,67.64Z"></path>
      <path class="cls-9" d="M13.14,67.48,13,67.37s-.07,0,0-.1,0-.19.09-.22,0,0,.11,0a.27.27,0,0,1,.11.17.17.17,0,0,1,0,.17A.33.33,0,0,1,13.14,67.48Z"></path>
      <path class="cls-6" d="M12.5,68.92a1.37,1.37,0,0,0,0-1.39c-.44-.61-1.07-.7-1.23-.52a2.66,2.66,0,0,0-.17.34c-.11.23.49.43.49.45Z"></path>
      <path class="cls-7" d="M11.8,69.55s.86-.53.75-.88a7.24,7.24,0,0,1-.18-.77l-.21,0s-.49.55-.49.71,0,.44,0,.51A4.48,4.48,0,0,0,11.8,69.55Z"></path>
      <path class="cls-8" d="M11.67,69.56c.09,0,.33,0,.32-.25a3.41,3.41,0,0,0-.06-.49s-.61-.42-.71-.51-.12-.16-.11.2-.07.37.06.66A.92.92,0,0,0,11.67,69.56Z"></path>
      <path class="cls-9" d="M11.93,68.82a4.18,4.18,0,0,0-.54-.28c-.25-.09-.32-.1-.28-.33s-.07-.77.08-1,.13-.18.42-.1a1.16,1.16,0,0,1,.63.52.62.62,0,0,1,.08.7A1.71,1.71,0,0,1,11.93,68.82Z"></path>
      <path class="cls-10" d="M18.07,52a.38.38,0,0,0,.47,0,2.28,2.28,0,0,1-.08.74.42.42,0,0,0,.22.46,1.5,1.5,0,0,0,.92.31,2.64,2.64,0,0,1,1.45.45A.77.77,0,0,0,22,54c.22-.16.41,0,.56.16a2,2,0,0,1,.19.31c.11.18.24.26.44.15a.31.31,0,0,1,.42.07.35.35,0,0,0,.45.09.39.39,0,0,1,.44,0,3.08,3.08,0,0,0,2.18.72,1.14,1.14,0,0,1-1,.08,3.2,3.2,0,0,1-1.19-.57c-.17-.13-.3-.2-.5-.07a.31.31,0,0,1-.4-.08.37.37,0,0,0-.42-.1.43.43,0,0,1-.59-.23,2.33,2.33,0,0,0-.17-.26c-.14-.22-.31-.29-.52-.07a.29.29,0,0,1-.44,0c-.11-.11-.29-.16-.39-.06s-.26.31-.15.5a.69.69,0,0,1,0,.8c-.15.22.23.19.27.38s.12,0,.19-.06a1.15,1.15,0,0,1,1.13-.17,1.18,1.18,0,0,1,.49.22.63.63,0,0,1-.52,0c-.32-.29-.6,0-.89,0,0,0,0,0,0,.06s.18.06.26.12.23.16.18.32-.2.37,0,.48a.86.86,0,0,0,.68.12c.2-.06.34-.07.46.1s.14.06.22.06c.24,0,.4.1.5.41a.73.73,0,0,0-.6-.22.56.56,0,0,1-.12,0c-.12,0-.14-.27-.32-.16s0,.26,0,.39a5.69,5.69,0,0,0,.07.71s0,.08,0,.16a.8.8,0,0,1-.15-.44,2,2,0,0,0-.14-.54.38.38,0,0,0-.34-.26c-.43,0-.56-.25-.42-.65,0-.08.08-.16,0-.23a.21.21,0,0,0-.26,0c-.16.08-.31.18-.47,0,0,0-.13,0-.21,0s-.23,0-.27,0c-.26-.35-.67-.16-1-.29h-.12c-.07,0-.16,0-.19.06s0,.11.1.15a3,3,0,0,1,.83,1,1,1,0,0,0,.69.46,1,1,0,0,1,.73.56c-.3-.39-.8-.32-1.16-.57,0,0,0-.09-.07-.05s0,.07,0,.1a2.82,2.82,0,0,1,0,1.26,1.43,1.43,0,0,0,.1.61.42.42,0,0,0,.39.3c.31,0,.57.26.9.27.08,0,.21.08.23.33-.29-.34-.69-.11-1-.4-.07-.08-.33-.11-.38,0s-.33.35-.14.58a.64.64,0,0,1,.12.58.49.49,0,0,0,0,.39.38.38,0,0,1,0,.36c-.14.27,0,.45.23.55a.91.91,0,0,1,.62.9,2.55,2.55,0,0,0,.17.56.5.5,0,0,1-.13.56c.12-.54-.25-.94-.25-1.43,0-.18-.23-.26-.37-.36s-.24-.15-.42-.26c0,1.13.23,2.2.18,3.31a.18.18,0,0,1-.14-.18c0-.92-.16-1.83-.25-2.74a.65.65,0,0,1,0-.34,2.57,2.57,0,0,0,.07-1.5,5.14,5.14,0,0,1,0-1.11c0-.32-.19-.64-.26-1,0-.15-.18-.07-.27,0a2.4,2.4,0,0,1-.28.27.54.54,0,0,1,.32-.5c.38-.2.47-.37.34-.77A3.14,3.14,0,0,0,19,56.18a1.24,1.24,0,0,1-.21-.19.3.3,0,0,0,0,.3,1.68,1.68,0,0,1,0,1.21c-.09.21.11.27.24.26a1.21,1.21,0,0,1,.81.3c-.05.1-.13.07-.18,0-.26-.23-.61-.15-.9-.26-.09,0-.18,0-.18.1s-.09.25.1.35a3.75,3.75,0,0,1,.86.51c-.06.1-.17.1-.19.06-.14-.22-.47-.11-.58-.36a.07.07,0,0,0-.11,0,.11.11,0,0,0,0,.11.62.62,0,0,1,0,.7.13.13,0,0,0,0,.19s.09.07.11.12c.12.33.29.52.66.27a.19.19,0,0,1,.23,0c.09.11.17.08.27,0s.23,0,.27.15,0,.07,0,.1c-.17-.21-.4.16-.57-.07s-.2,0-.3,0c-.31.16-.47.11-.61-.22,0-.11-.07-.32-.23-.25s-.05.25,0,.39a.67.67,0,0,0,.71.58c.16,0,.25.12.24.41-.19-.34-.55-.07-.71-.4,0-.06-.21,0-.28.13a.14.14,0,0,0,0,.23c.37.15.43.48.53.79,0,.1.06.18.18.19.28,0,.47.27.76.29a.23.23,0,0,1,.21.3c-.21-.23-.53-.11-.75-.33s-.24,0-.22.16a2,2,0,0,1,0,.24.66.66,0,0,1-.54.75.66.66,0,0,0-.36.17c.21,0,.37.16.57.06a.14.14,0,0,1,.19.05.51.51,0,0,0,.43.12.43.43,0,0,1,.46.34c-.28-.25-.66-.08-1-.31-.14-.11-.4,0-.62,0s-.07.11-.07.18-.06.24.09.33a3.3,3.3,0,0,1,.9.67c.09.1.15,0,.2-.06s.29-.16.42,0a.3.3,0,0,0,.25.1c.13,0,.17.09.15.22-.17-.1-.39,0-.53-.21s-.18,0-.26.09-.34.17-.44-.09c0-.07,0-.14-.14-.14s-.25-.1-.32-.23a.24.24,0,0,0-.29-.14c-.14,0-.1.17-.1.26a.51.51,0,0,0,.23.51.36.36,0,0,1,.13.55.68.68,0,0,0,0,.59,2.82,2.82,0,0,1,.05,1.26,3.36,3.36,0,0,0,.06,1.14c0,.08.08.21,0,.23s-.12-.12-.14-.2a2.53,2.53,0,0,1-.08-1.19,4.51,4.51,0,0,0,0-.9c0-.07,0-.16-.08-.19s-.13,0-.18.1a1,1,0,0,0-.28.57c0,.06,0,.15-.08.14s-.09-.1-.07-.18a1.33,1.33,0,0,1,.34-.68c.13-.12.23-.23.19-.42a.19.19,0,0,1,0-.15c.27-.31.07-.5-.16-.68s-.43,0-.6-.19c0,0-.1.11-.11.19a.41.41,0,0,1-.59.32,1.15,1.15,0,0,0-.31,0,.17.17,0,0,1-.12-.22c0-.12.11,0,.17,0a.73.73,0,0,1,.32.09.23.23,0,0,0,.36-.18c.1-.36.13-.38.47-.25.13,0,.23,0,.24-.13,0-.36.09-.72.11-1.08s.11-.52.47-.62a.64.64,0,0,0,.36-.17c.08-.08.14-.2.05-.3a.19.19,0,0,0-.28,0c-.17.17-.43,0-.59.18s-.12,0-.13-.08.05-.1.12-.12a3,3,0,0,0,.75-.23c.1-.06.14-.11.11-.21-.09-.27-.19-.54-.31-.89-.14.36-.31.57-.64.57,0,0-.06,0-.08,0s0,.23-.17.12,0-.2.06-.28a.27.27,0,0,1,.25-.1c.12,0,.18-.06.23-.17.15-.33.14-.33-.22-.37-.21,0-.41-.14-.59.07,0,0-.12,0-.1-.1a.4.4,0,0,1,.57-.18c.13.1.22.1.25-.09a1.67,1.67,0,0,0,0-1c-.08-.22-.29-.23-.4-.38s-.11,0-.15.07a.19.19,0,0,1-.21.1c-.14,0-.25,0-.3.17s-.17.09-.26,0c.09-.46.53-.42.83-.57,0,0,.12,0,.17,0,.38.15.63,0,.64-.44s-.21-.62-.18-1a1.27,1.27,0,0,1-.71.52c-.11,0-.2.16-.23.31s-.06.11-.14.07a.11.11,0,0,1,0-.16c.08-.16.2-.34.36-.37s.38-.28.54-.45.55-.37.59-.75a.22.22,0,0,0-.05-.2,1.19,1.19,0,0,1-1.19.64.26.26,0,0,1,.27-.19.57.57,0,0,0,.59-.38.33.33,0,0,1,.13-.13c.34-.11.25-.32.13-.55a.56.56,0,0,0-.28.16c-.46.43-.92.85-1.36,1.3a.82.82,0,0,0-.12.85,1.28,1.28,0,0,1-.11,1.16.83.83,0,0,0,0,1,.56.56,0,0,1,0,.64.58.58,0,0,0,0,.48,3.42,3.42,0,0,1,.12,1.62c0,.28,0,.56,0,.84,0,0,0,.17-.09.16s-.09-.1-.09-.17c0-.39.09-.78,0-1.21a1.18,1.18,0,0,0-.56.67.39.39,0,0,1,.15-.52c.56-.35.47-.84.31-1.34a.76.76,0,0,1,0-.59,1.11,1.11,0,0,0-.24-.88c-.1-.07-.19,0-.25.07a2.5,2.5,0,0,0-.79,1.41c0,.28,0,.57,0,.94a2,2,0,0,1-.19-.89,2.26,2.26,0,0,1,1.14-1.73c.05,0,.11-.06.12-.12a1.3,1.3,0,0,1,.23-.57c0-.06.08-.14,0-.2s-.14,0-.19,0-.41,0-.59.17c0,0-.1,0-.12-.07s0-.08.09-.1c.24-.09.5-.12.75-.22s.21-.18.15-.31a1.75,1.75,0,0,1,0-1.06c-.21,0-.2,0-.29.21s-.09.14-.14.14c-.27,0-.3.16-.25.4-.17,0-.18-.15-.17-.26a.19.19,0,0,1,.15-.21c.18,0,.22-.16.31-.28a1.11,1.11,0,0,1,.64-.45,1.26,1.26,0,0,0,.7-.52,2.35,2.35,0,0,1,.69-.61.37.37,0,0,0,.25-.38c0-.21-.21-.13-.31-.2s-.24,0-.32.12a.2.2,0,0,1-.21.11.44.44,0,0,0-.48.35.44.44,0,0,1,.38-.55.32.32,0,0,0,.27-.15c.14-.21.37-.12.6-.12L18.12,55c0-.06-.08-.05-.13,0s-.35.31-.65.24c-.12,0-.2.23-.3.36a2.55,2.55,0,0,0-.14.24c-.12-.06-.09-.16,0-.23a5.69,5.69,0,0,1,.33-.52.22.22,0,0,1,.18-.11c.45,0,.63-.22.55-.66a1.51,1.51,0,0,1,0-.37,2.39,2.39,0,0,0,0-.38c-.16.12-.21.29-.34.37a1.28,1.28,0,0,1-.69.12c-.3,0-.35.1-.24.38a.58.58,0,0,1-.34.79.68.68,0,0,0-.35.32c0,.07-.05.1,0,.15.22.28.05.43-.18.51s-.25.12-.08.28.17.29-.07.39-.35.49-.47.77,0,.32-.26.49c.14-.55.12-1.07.57-1.41.08-.06.06-.11,0-.19-.16-.26-.12-.4.17-.5s.24-.11.11-.29-.08-.14.17-.5a.76.76,0,0,0-.65.47c-.1.23-.21.37-.46.38s-.33.29-.42.52a.48.48,0,0,1,.34-.67.49.49,0,0,0,.4-.34.9.9,0,0,1,.87-.51.45.45,0,0,0,.44-.22c.11-.14,0-.28,0-.43-.1-.31-.25-.29-.49-.16s-.62.28-.93.42a.85.85,0,0,0-.35.24.52.52,0,0,1-.78.16,1.17,1.17,0,0,0-1-.15,4.19,4.19,0,0,0-1.54.72.6.6,0,0,1-.92.09c0-.07.08-.06.13,0a.56.56,0,0,0,.66-.19,1.37,1.37,0,0,1,.85-.47.41.41,0,0,0,.17-.07,1.64,1.64,0,0,1,1.59-.15c.17.08.4.25.55.07.38-.45.94-.53,1.42-.78a2.94,2.94,0,0,1,1.46-.35c.07,0,.17,0,.2-.07a4.39,4.39,0,0,0,.46-1A3.51,3.51,0,0,1,18.07,52Zm.25,2.34a.57.57,0,0,0,.19.66.69.69,0,0,1,.22.46c0,.17.11.34.28.34.33,0,.65.07,1,.07a.67.67,0,0,1,.46.14c.18.17.37.13.65.05L21,56c-.36-.21-.37-.22-.14-.58a.41.41,0,0,0,0-.46.47.47,0,0,1,0-.5c.13-.23,0-.38-.17-.48a1.81,1.81,0,0,0-.49-.18,3.07,3.07,0,0,1-1.75-.48c0,.21-.05.35-.08.49-.06.32.16.43.39.52.07,0,.18,0,.2,0a.62.62,0,0,0,.62.41.09.09,0,0,1,.08.11c0,.07-.08.07-.12,0-.22-.07-.52,0-.6-.34a.12.12,0,0,0-.17-.09C18.55,54.51,18.46,54.4,18.32,54.31Zm.57,8.17v0h0Z"></path>
      <polygon class="cls-11" points="1.37 48.49 18.29 55.56 33.67 49.04 18.29 43.62 1.37 48.49"></polygon>
      <path class="cls-12" d="M29.73,29.72s1-.51,1.12-.95a3.72,3.72,0,0,0,.54-2.27c-.18-1.36.38-1.45.62-1s2,4.61,2.24,5,1.09,1.83-.44,2.48S34,34,33.6,35.33s-1.47,1.38-2.18,3.07a5.33,5.33,0,0,1-5.58,3.19c-2.9-.36-3.31.14-4.08-.33S19.64,40.08,24,39.34a10.24,10.24,0,0,0,1.4-.74,6.86,6.86,0,0,0,.4-1,1.47,1.47,0,0,1,.91-.8c.27-.11.68.12.5-.94a1.81,1.81,0,0,1,1-2c.41-.06,1.33-.12,1.36-.94S28.43,31.08,29.73,29.72Z"></path>
      <path class="cls-12" d="M16.74,40c0,.15-1.21,1.09-1.36,1.67s-.59,1.91-1.35,2.26a2.16,2.16,0,0,0-1.25,1c-.56.71.62,1.39-2.09,1.45A18.82,18.82,0,0,0,6.38,47c-.42,0-1.77.53,0-.91s1.5-1.6,1.71-2.31a1.57,1.57,0,0,1,1.42-.94c.32,0,.68.26.79-.71s.09-1.21,1.27-1.18,1.07.15,1.39-.45.21-.7.59-.76a10.75,10.75,0,0,1,2.63-.15C16.68,39.7,16.89,39.4,16.74,40Z"></path>
      <path class="cls-12" d="M15.91,28.36c0,.11.14,2.11-.3,2.42s-.75.14-.62.58.47.66,0,1-.37.09-.5.55.08.49-.33.69-.58.26-.58.42-.28,0-.35.15-.66.89-.81.35-.16-1.32-.23-1.48-.44-.21-.41-.52.57-.78.57-.78a.43.43,0,0,0,.13-.5c-.13-.29.73-.2.71-.64s0-.64.13-.69a3.26,3.26,0,0,0,1.32-1.16C15,28.09,15.61,27.43,15.91,28.36Z"></path>
      <path class="cls-12" d="M8.06,36.69c-.25,0-2.67.29-3.15,1.47s-.76,1.4-1.37,1.65c0,0,.13-.14-.31-1.24s.22-3.66,3.37-2.77S8.06,36.69,8.06,36.69Z"></path>
      <path class="cls-12" d="M10.59,19.37a4.17,4.17,0,0,1-3.23-1.72A2.41,2.41,0,0,1,10.59,19.37Z"></path>
      <path class="cls-12" d="M10.58,19.06a17.54,17.54,0,0,1,1.95-2.39c.85-.8,1.44-1.39.91-2.34s-.91-1.18-.35-1.74a3.83,3.83,0,0,0,.85-4.72c-1.29-2.37-.2-1.36-.62-2.63S13,3.64,10.58,2.67,9.46.37,6.74.51c0,0,.09.24-.92-.2s-1.21-.59-.68.85,0,1.21.24,2.22.27.94.74,1.3,1-.12.65,1S5.56,7.54,6.24,8.57,7.42,9.7,7,10.35a2.65,2.65,0,0,0-.35,3.13A14.07,14.07,0,0,0,10.58,19.06Z"></path>
      <path class="cls-13" d="M7.65,2.64A6.26,6.26,0,0,1,10.3,6a8.78,8.78,0,0,1,.21,4.32c-.22,1.42-.46,2.85-.56,4.28a7.47,7.47,0,0,0,.64,4.2,5.64,5.64,0,0,1-.74-2,11.33,11.33,0,0,1-.06-2.18c.08-1.44.29-2.88.49-4.31A8.53,8.53,0,0,0,10.15,6,6.6,6.6,0,0,0,7.65,2.64Z"></path>
      <path class="cls-12" d="M25.25,20.63c-.05-.07-1.31-2.38-.9-3.6s.76-1.22.65-1.57-.73-.93,0-1.6c.54-.49,1.43-.46,1-1.42S27.2,11,28,9.67c1.21-1.89,1.63-4.37,1.89-2.3a22.73,22.73,0,0,0,.59,3.22c.18.83.64,2.33,0,2.64-1.18.59-.73.89-.59,1.4a1.4,1.4,0,0,1-.39,1.65c-.75.64-.86.5-.63,1.28s-1,1.68-1.26,2a10.7,10.7,0,0,1-1.81,1.34C25.5,21,25.43,21,25.25,20.63Z"></path>
      <path class="cls-13" d="M29.26,8.72a31.25,31.25,0,0,1-.65,3.17,9.76,9.76,0,0,1-.55,1.54c-.22.5-.57.93-.82,1.4A14.74,14.74,0,0,0,26,17.76a10.94,10.94,0,0,0-.57,3.16,9.44,9.44,0,0,1,.4-3.21,13.62,13.62,0,0,1,1.26-3c.27-.48.61-.9.83-1.38a12.07,12.07,0,0,0,.57-1.49C28.76,10.82,29,9.76,29.26,8.72Z"></path>
      <path class="cls-13" d="M31.8,31.64a22.06,22.06,0,0,1-3,6.16,9.92,9.92,0,0,1-2.44,2.44,4.35,4.35,0,0,1-3.31.7,4.49,4.49,0,0,0,3.2-.85,10.09,10.09,0,0,0,2.36-2.43,21.57,21.57,0,0,0,1.78-2.91A32.35,32.35,0,0,0,31.8,31.64Z"></path>
      <path class="cls-13" d="M15.19,28.84c-.35.81-.76,1.59-1.13,2.39l-.6,1.18c-.18.4-.39.79-.55,1.2a16.32,16.32,0,0,1,1-2.44C14.35,30.39,14.73,29.59,15.19,28.84Z"></path>
      <path class="cls-12" d="M2.29,29.41c-.14-.21-.26-1.15-.79-2.36S-.33,24.39.08,23s.5-.79.21-2.21,3.86-4.93,4-4.93,1.57-1,.77.5.34,2.6.24,3.36S4,21.2,4.48,22.29a6.72,6.72,0,0,0,1.3,1.83,1.3,1.3,0,0,1,0,1.72c-.62.82-1.06.41-.39,1.33s-.14,1.52-.35,2-.56.31-.44,1.55.65,2.09-.33,1.62S2.29,29.41,2.29,29.41Z"></path>
      <path class="cls-13" d="M3.39,18.37a11.6,11.6,0,0,0-1,3.3,14.06,14.06,0,0,0-.11,3.43A15.45,15.45,0,0,0,3,28.46a21,21,0,0,0,1.32,3.19c-.27-.5-.58-1-.83-1.52s-.5-1.05-.67-1.61a14.66,14.66,0,0,1-.75-3.4A11.84,11.84,0,0,1,3.39,18.37Z"></path>
      <path class="cls-12" d="M25.25,21.3s-2,.3-3.93-3.13a13.54,13.54,0,0,1,1.57.55C24.16,19.21,25.66,19.59,25.25,21.3Z"></path>
      <path class="cls-12" d="M22.84,1.21a46.73,46.73,0,0,1-2.53,11.64,48,48,0,0,1-2.86,5.21,16.16,16.16,0,0,0-1.63,5.41,20.77,20.77,0,0,0-.39,5.67c.23,1.93.82,3.81,1.18,5.72A64.39,64.39,0,0,1,17.66,48a.36.36,0,0,0,.71,0,64.28,64.28,0,0,0-.91-12.39c-.34-2-.87-3.87-1.22-5.82a20.08,20.08,0,0,1,.41-7A16.08,16.08,0,0,1,19,16.92a24.61,24.61,0,0,0,2.33-4.68,51.07,51.07,0,0,0,2.25-11c.06-.45-.65-.44-.71,0Z"></path>
      <path class="cls-12" d="M25.17,21.15a14.46,14.46,0,0,1-2.71,9.74,56.39,56.39,0,0,0-4.82,8.92c-.17.41.44.77.62.36a62.47,62.47,0,0,1,5.19-9.5,14.48,14.48,0,0,0,2.43-9.52c-.05-.45-.76-.45-.71,0Z"></path>
      <path class="cls-12" d="M10.35,18.77A21.14,21.14,0,0,1,11,21.38a16.18,16.18,0,0,0,.81,2.34A9.43,9.43,0,0,0,13.26,26c.64.83,1.31,1.64,2,2.46.29.35.79-.15.5-.51-.62-.76-1.25-1.53-1.86-2.3a9.06,9.06,0,0,1-1.49-2.33,17.69,17.69,0,0,1-.73-2.16A18.17,18.17,0,0,0,11,18.59c-.16-.43-.85-.24-.68.18Z"></path>
      <path class="cls-12" d="M3.32,31.49A18.29,18.29,0,0,0,17.5,39.7c.46,0,.46-.68,0-.71A17.57,17.57,0,0,1,3.93,31.13a.35.35,0,0,0-.61.36Z"></path>
      <path class="cls-12" d="M17.77,40.29a3.77,3.77,0,0,0,1.59.28,8.23,8.23,0,0,1,1.51.07.37.37,0,0,0,.44-.25.34.34,0,0,0-.25-.43,8.13,8.13,0,0,0-1.56-.1,6.78,6.78,0,0,1-.78,0l-.3,0-.16-.05-.13,0a.37.37,0,0,0-.49.13.36.36,0,0,0,.13.48Z"></path>
      <path class="cls-14" d="M23.4,29.15c.53,1,1.89,4.79-1.15,5-2.46.13-2.71-1.89-3-3.38-.25-1.1-.72-1.93-.56-2.8s1.87-1.37,3.2-.65A4.38,4.38,0,0,1,23.4,29.15Z"></path>
      <path class="cls-15" d="M21.39,27.32a1.72,1.72,0,0,0-1.16.34.7.7,0,0,0-.27.84,3.39,3.39,0,0,0,.68,1c.78.84.79,4,2.52,3.52a1.16,1.16,0,0,0,.82-.66,2.22,2.22,0,0,0,.1-.76,8.4,8.4,0,0,0-1.51-3.81A1.7,1.7,0,0,0,21.39,27.32Z"></path>
      <path class="cls-14" d="M16.52,17.64c-.29-.62-.86-1.9-.39-2.4s1.69-1.71,3.58.13a5.2,5.2,0,0,1,1,5.35,2.67,2.67,0,0,1-2.84,1.36A1.62,1.62,0,0,1,16.59,21a3,3,0,0,1-.07-.8C16.53,19.05,16.85,18.36,16.52,17.64Z"></path>
      <path class="cls-15" d="M19.29,22c-.15.06-1.43,0-1.47-.75s.95-1.68.28-3.22-1.5-3,.2-3.19,2.56,2.5,2.56,2.5S22.33,20.9,19.29,22Z"></path>
      <path class="cls-14" d="M7.23,29.47a5,5,0,0,1,.17-2.56l0-.16a1.51,1.51,0,0,1,1.37-1c.92,0,1.32.14,1.42.87s-.59,1.22-.2,1.79,2.62,3.11,1.14,4.5-3.45-.48-3.73-2.17C7.36,30.14,7.28,29.76,7.23,29.47Z"></path>
      <path class="cls-15" d="M10.16,26.28s-.58-1.09-1.66,0S8.32,30,8.76,31s1.39,2.91,2.42,1.95c1.28-1.19-.33-3.39-.55-3.69s-.86-.89-.68-1.39S10.42,26.58,10.16,26.28Z"></path>
      <path class="cls-12" d="M16,28.37s1.26-4.26,3-2.16c1.12,1.33-1.14,1.13-1.14,1.13a3,3,0,0,0,1.06.2,1.21,1.21,0,0,0-.2,1.21s.85-1.84.87.11c0,0,.22,1,.28-.34s.41-2.38,2.42-.65a2.16,2.16,0,0,0-.85-.94A.83.83,0,0,0,22,26a1,1,0,0,1-1.79.26c-1.14-1.13-3.12-2.32-4.47.72C15.1,28.37,16,28.37,16,28.37Z"></path>
      <path class="cls-12" d="M11.52,22.83a2.73,2.73,0,0,0-1.94.76c-.69.81-.56,1.6-1.45,1.84s-1.09,0-1.25-.52c0,0-.36.62.47.93,0,0-.64.54-.55,1.09,0,0,.67-.89,1-.82a3.36,3.36,0,0,1,.07.64c0,.1.19.15.3-.12s.45-1.2,1.26-.69.7,1,.7,1,.21.17.21-.18a2.71,2.71,0,0,0-.15-.84c0-.05,1.08.34,1.51-.24,0,0-2.35.43-1.89-.86s2.05-1.31,2.05-1.31S12,22.78,11.52,22.83Z"></path>
      <path class="cls-12" d="M19.58,11.57a2.22,2.22,0,0,0-1.95,1.77c-.42,1.69-1.77.88-1.85.51s-.28.77.76.87a1.72,1.72,0,0,0,0,1.61s.31-1.46,1.13-1.59,1.94,2.2,1.94,2.2A3.84,3.84,0,0,0,19,14.39s.88-.19,1-.42c0,0-1.43.7-1.61-.49s1.71-1.32,1.71-1.32S20.29,11.37,19.58,11.57Z"></path>
      <path class="cls-16" d="M28.91,20.64a3.18,3.18,0,0,0-2,.56,5.57,5.57,0,0,0-1.47,1.55"></path>
      <path class="cls-17" d="M29.27,19.21s-.23-1.52-2.48-.35c0,0,1.06,1.38,1.42,1.18S29.76,19.89,29.27,19.21Z"></path>
      <path class="cls-17" d="M27.81,22.13a3.68,3.68,0,0,0,0-1.5c-.16-.83,1-.79,1.11-.57s1,1.08.82,1.52S30,22.28,27.81,22.13Z"></path>
      <path class="cls-17" d="M31.75,23.15s.32-2.47-1.42-2.48c-1,0-.66,1.33-.57,1.5C30,22.62,31.59,22.64,31.75,23.15Z"></path>
      <path class="cls-17" d="M29.86,19.46c0-.07.4-1,1.23-.77s.63.71,1.26.64a7.48,7.48,0,0,1-.58,1,1.39,1.39,0,0,1-1.42.22C30,20.37,29.68,19.78,29.86,19.46Z"></path>
      <path class="cls-17" d="M28.93,16.87s-1,1.93.6,2.54c0,0,.07.12.28-.07s.55-.45.53-.84a1.16,1.16,0,0,0-.75-1.28C28.76,16.83,29,16.61,28.93,16.87Z"></path>
      <path class="cls-18" d="M29.94,19.28a.8.8,0,0,0-.57,0,.89.89,0,0,0-.42.8c0,.76.46.85.95.93s.69-.69,1-.77.32-.67-.18-.53C30.4,19.83,30.4,19.41,29.94,19.28Z"></path>
      <path class="cls-6" d="M17.26,51.39a.47.47,0,0,0-.44-.17c-.25.08-.35.28-.31.35a.75.75,0,0,0,.09.09c.06.06.2-.11.2-.11Z"></path>
      <path class="cls-7" d="M17.39,51.69s-.07-.34-.2-.35l-.27,0,0,.06s.13.23.18.24l.17.05Z"></path>
      <path class="cls-8" d="M17.38,51.73s0-.11-.05-.13l-.16,0-.24.18s-.07,0,.05.06.11.06.22.05A.27.27,0,0,0,17.38,51.73Z"></path>
      <path class="cls-9" d="M17.17,51.56a1.9,1.9,0,0,0-.15.15c-.06.07-.07.09-.14.06s-.26-.07-.31-.14,0-.06,0-.15a.36.36,0,0,1,.23-.14.2.2,0,0,1,.24,0A.47.47,0,0,1,17.17,51.56Z"></path>
      <path class="cls-6" d="M16.24,45.62a.69.69,0,0,0-.69-.1c-.34.19-.42.5-.34.59a.83.83,0,0,0,.17.11c.1.07.24-.22.25-.22Z"></path>
      <path class="cls-7" d="M16.52,46s-.22-.47-.4-.43-.4,0-.4,0l0,.1s.25.29.33.3l.26,0Z"></path>
      <path class="cls-8" d="M16.52,46.08s0-.16-.11-.17h-.25s-.24.28-.3.33-.09,0,.1.06.18.06.33,0A.46.46,0,0,0,16.52,46.08Z"></path>
      <path class="cls-9" d="M16.16,45.91a1.52,1.52,0,0,0-.17.25c-.06.12-.07.16-.19.13s-.39,0-.48-.1-.08-.08,0-.22a.52.52,0,0,1,.3-.28.28.28,0,0,1,.35,0A.75.75,0,0,1,16.16,45.91Z"></path>
      <path class="cls-6" d="M14.86,47.74a2.36,2.36,0,0,0-2.43.16c-1,.87-1.06,2-.71,2.24a5.87,5.87,0,0,0,.63.25c.41.15.67-.93.69-.94Z"></path>
      <path class="cls-7" d="M16.09,48.87S15,47.45,14.42,47.7s-1.32.45-1.32.45l0,.36s1,.78,1.33.75.77-.11.89-.11A5.71,5.71,0,0,0,16.09,48.87Z"></path>
      <path class="cls-8" d="M16.13,49.09c0-.16-.07-.57-.5-.51a5.41,5.41,0,0,0-.85.18s-.62,1.14-.76,1.33-.27.24.35.16.68.07,1.15-.22A1.6,1.6,0,0,0,16.13,49.09Z"></path>
      <path class="cls-9" d="M14.78,48.76a7.66,7.66,0,0,0-.39,1c-.13.45-.13.58-.54.55s-1.34.25-1.71,0-.35-.2-.25-.72a2,2,0,0,1,.82-1.18,1.09,1.09,0,0,1,1.22-.25A2.72,2.72,0,0,1,14.78,48.76Z"></path>
      <path class="cls-6" d="M19.83,48a2.08,2.08,0,0,0-2.13,0c-.92.7-1,1.67-.75,1.9a3.75,3.75,0,0,0,.53.26c.35.16.64-.76.66-.78S19.83,48,19.83,48Z"></path>
      <path class="cls-7" d="M20.82,49.1S20,47.8,19.44,48a12,12,0,0,1-1.17.31l-.05.31s.86.74,1.1.74.68-.06.79-.05A5,5,0,0,0,20.82,49.1Z"></path>
      <path class="cls-8" d="M20.84,49.29c0-.14,0-.5-.4-.47a5.12,5.12,0,0,0-.74.1s-.62.95-.75,1.11-.25.19.3.16.58.1,1-.12A1.41,1.41,0,0,0,20.84,49.29Z"></path>
      <path class="cls-9" d="M19.7,48.92a5.13,5.13,0,0,0-.4.84c-.14.38-.16.49-.51.45s-1.17.13-1.48-.1-.29-.19-.17-.64a1.62,1.62,0,0,1,.78-1A.92.92,0,0,1,19,48.35,2.48,2.48,0,0,1,19.7,48.92Z"></path>
      <path class="cls-6" d="M23,46.77a2.22,2.22,0,0,0-2.26-.3c-1.08.62-1.33,1.64-1.05,1.93a3.52,3.52,0,0,0,.53.34c.35.22.78-.72.8-.73Z"></path>
      <path class="cls-7" d="M23.93,48s-.72-1.5-1.32-1.38a12.17,12.17,0,0,1-1.28.17l-.11.33s.82.9,1.08.93.73,0,.85.06A5.83,5.83,0,0,0,23.93,48Z"></path>
      <path class="cls-8" d="M23.93,48.23c0-.14,0-.53-.37-.55a5.25,5.25,0,0,0-.8,0s-.78.93-1,1.08-.29.18.3.21.61.18,1.09,0A1.54,1.54,0,0,0,23.93,48.23Z"></path>
      <path class="cls-9" d="M22.76,47.69a7,7,0,0,0-.54.84c-.2.39-.23.5-.6.41s-1.27,0-1.56-.3-.29-.25-.1-.71a1.79,1.79,0,0,1,1-.93,1,1,0,0,1,1.16,0A2.75,2.75,0,0,1,22.76,47.69Z"></path>
      <path class="cls-6" d="M23.94,50.61a.71.71,0,0,0,.65-.33c.18-.36.07-.67-.06-.7h-.2c-.13,0-.08.33-.09.34Z"></path>
      <path class="cls-7" d="M23.46,50.43s.46.28.6.14a4,4,0,0,1,.32-.28l0-.11a1.46,1.46,0,0,0-.46,0l-.23.13A2.12,2.12,0,0,0,23.46,50.43Z"></path>
      <path class="cls-8" d="M23.43,50.38a.13.13,0,0,0,.2.08,1.28,1.28,0,0,0,.21-.15s0-.38.06-.45.05-.1-.12,0-.19.06-.29.2A.46.46,0,0,0,23.43,50.38Z"></path>
      <path class="cls-9" d="M23.84,50.31a2,2,0,0,0,0-.32c0-.14,0-.17.09-.21s.34-.22.47-.2.12,0,.16.17a.6.6,0,0,1-.09.42.33.33,0,0,1-.31.21A.81.81,0,0,1,23.84,50.31Z"></path>
      <path class="cls-6" d="M12.63,50.86a.91.91,0,0,0,.87-.35c.26-.45.14-.86,0-.91h-.26c-.17,0-.13.42-.13.43Z"></path>
      <path class="cls-7" d="M12.05,50.6s.56.39.75.22.42-.32.42-.32l0-.14a1.91,1.91,0,0,0-.57-.11l-.31.15A2.42,2.42,0,0,0,12.05,50.6Z"></path>
      <path class="cls-8" d="M12,50.53a.17.17,0,0,0,.24.12,2.11,2.11,0,0,0,.29-.17s.09-.49.11-.58.07-.12-.15,0-.25.06-.39.22A.64.64,0,0,0,12,50.53Z"></path>
      <path class="cls-9" d="M12.54,50.48a2.68,2.68,0,0,0,0-.41c0-.18,0-.22.13-.27s.45-.25.62-.21.15,0,.17.23a.71.71,0,0,1-.15.53.4.4,0,0,1-.41.24A1,1,0,0,1,12.54,50.48Z"></path>
      <path class="cls-6" d="M16.61,48.59a.53.53,0,0,0,.53.1c.27-.14.34-.38.27-.45a.74.74,0,0,0-.12-.09c-.08,0-.19.17-.2.17Z"></path>
      <path class="cls-7" d="M16.4,48.28s.16.37.3.35a1.82,1.82,0,0,1,.31,0l0-.08s-.19-.22-.25-.23l-.2,0A1,1,0,0,0,16.4,48.28Z"></path>
      <path class="cls-8" d="M16.4,48.24s0,.12.09.13h.19s.19-.22.23-.25.07,0-.06-.05-.15,0-.26,0A.39.39,0,0,0,16.4,48.24Z"></path>
      <path class="cls-9" d="M16.68,48.38s.08-.11.13-.2.06-.11.15-.09.3,0,.37.09.07.06,0,.17a.42.42,0,0,1-.24.21.26.26,0,0,1-.28,0A.59.59,0,0,1,16.68,48.38Z"></path>
      <path class="cls-6" d="M21.44,50.63a2.07,2.07,0,0,0,2-.6c.67-.93.5-1.88.16-2a3.23,3.23,0,0,0-.58-.09c-.37-.05-.38.91-.4.92S21.44,50.63,21.44,50.63Z"></path>
      <path class="cls-7" d="M20.19,49.92s1.17,1,1.63.67,1-.64,1-.64l0-.31s-1-.46-1.26-.38-.63.24-.74.27A4.88,4.88,0,0,0,20.19,49.92Z"></path>
      <path class="cls-8" d="M20.11,49.74c0,.13.17.46.52.33a6,6,0,0,0,.68-.31s.31-1.08.39-1.27.18-.26-.33-.07-.58.08-.92.41A1.37,1.37,0,0,0,20.11,49.74Z"></path>
      <path class="cls-9" d="M21.31,49.76a5.91,5.91,0,0,0,.14-.91c0-.41,0-.51.36-.57s1.07-.47,1.43-.34.33.1.35.56a1.67,1.67,0,0,1-.46,1.15.94.94,0,0,1-1,.45A2.38,2.38,0,0,1,21.31,49.76Z"></path>
      <path class="cls-6" d="M15.22,49.86a1.39,1.39,0,0,0,1.42,0c.6-.47.66-1.12.47-1.27a2.64,2.64,0,0,0-.36-.16c-.23-.1-.41.51-.43.52Z"></path>
      <path class="cls-7" d="M14.55,49.17s.57.85.93.72.77-.22.77-.22l0-.21S15.7,49,15.54,49s-.45,0-.52,0A4,4,0,0,0,14.55,49.17Z"></path>
      <path class="cls-8" d="M14.53,49c0,.09,0,.33.27.31a3.74,3.74,0,0,0,.5-.08s.39-.64.48-.75.16-.13-.2-.1-.39-.06-.67.09A.94.94,0,0,0,14.53,49Z"></path>
      <path class="cls-9" d="M15.3,49.27a3.4,3.4,0,0,0,.25-.56c.09-.26.1-.33.33-.31s.78-.1,1,.05.19.12.12.42a1.1,1.1,0,0,1-.5.66.63.63,0,0,1-.71.11A1.49,1.49,0,0,1,15.3,49.27Z"></path>
    </g>
  </g>
</svg>
