<?xml version="1.0" encoding="UTF-8"?>
<svg xmlns="http://www.w3.org/2000/svg" xmlns:xlink="http://www.w3.org/1999/xlink" viewBox="0 0 47.94 62.58">
  <defs>
    <style>.cls-1{fill:none;}.cls-2{clip-path:url(#clip-path);}.cls-3{fill:#8e6848;}.cls-4{clip-path:url(#clip-path-2);}.cls-5{fill:url(#Безымянный_градиент_2);}.cls-6{fill:#713e21;}.cls-7{fill:#3d271f;}.cls-8{fill:#69391e;}.cls-9{fill:#6b472f;}.cls-10{fill:#5c3624;}.cls-11{fill:#795135;}.cls-12{fill:#9a734f;}.cls-13{fill:#d0c5a6;}.cls-14{fill:#85563a;}.cls-15{fill:#eced8a;}.cls-16{fill:#676c6e;}.cls-17{fill:#92bf3a;}.cls-18{fill:#fff;}.cls-19{fill:#a22b23;}.cls-20{fill:#ac5d49;}.cls-21{fill:#939191;}.cls-22{fill:#858664;}.cls-23{fill:#6f3e35;}.cls-24{fill:#cbc255;}.cls-25{fill:#cacac9;}.cls-26{fill:#7fb943;}.cls-27{fill:#486f3a;}.cls-28{fill:#6d9633;}.cls-29{fill:#bcd746;}.cls-30{fill:#609034;}.cls-31{fill:#b3d549;}</style>
    <clipPath id="clip-path" transform="translate(0 0)">
      <rect class="cls-1" width="47.94" height="62.58"></rect>
    </clipPath>
    <clipPath id="clip-path-2" transform="translate(0 0)">
      <polygon class="cls-1" points="7.81 53.07 20.67 59.13 32.58 53.1 20.2 47.85 7.81 53.07"></polygon>
    </clipPath>
    <linearGradient id="Безымянный_градиент_2" x1="-2599.44" y1="-763.39" x2="-2598.72" y2="-763.39" gradientTransform="matrix(34.36, 0, 0, -34.36, 89312.21, -26174.25)" gradientUnits="userSpaceOnUse">
      <stop offset="0" stop-color="#9b714e"></stop>
      <stop offset="0.38" stop-color="#9b714e"></stop>
      <stop offset="0.89" stop-color="#764528"></stop>
      <stop offset="1" stop-color="#6e3c20"></stop>
    </linearGradient>
  </defs>
  <g id="Слой_2" data-name="Слой 2">
    <g id="Слой_1-2" data-name="Слой 1">
      <g class="cls-2">
        <path class="cls-3" d="M20.67,42.09s2.48,2.91,4.4,3,8.45-1.95,8.45-1.95l.65-6.81L20.67,31.6Z" transform="translate(0 0)"></path>
        <path class="cls-3" d="M5.82,35.88l1.34,8.88s4.79.72,5.63.48,4.66-1.68,5.74-1.68,2.14-1.47,2.14-1.47V31.6Z" transform="translate(0 0)"></path>
      </g>
      <g class="cls-4">
        <rect class="cls-5" x="13.9" y="40.82" width="12.58" height="25.34" transform="translate(-34.31 70.78) rotate(-86.92)"></rect>
      </g>
      <g class="cls-2">
        <path class="cls-6" d="M7.81,53.07l-.65-8.31s6.1-.12,7.78-1a35.58,35.58,0,0,1,5.73-1.71l-.47,5.77Z" transform="translate(0 0)"></path>
        <path class="cls-7" d="M16.5,45.28a2.14,2.14,0,0,0-.73-.43h0a1.5,1.5,0,0,0-1.5.37c-.53.65-.44,1.36-.2,1.47a2.73,2.73,0,0,0,.42.09h0a6.8,6.8,0,0,0,.91-.21.27.27,0,0,0,.15,0l.17,0c.38-.11.43,0,.69-.26a1,1,0,0,0,.28-.65l-.05-.13h0a.24.24,0,0,0-.15-.13" transform="translate(0 0)"></path>
        <path class="cls-7" d="M11.28,46.13a2.89,2.89,0,0,0-1,.34h0a1.92,1.92,0,0,0-.92,1.76c.18,1.07.94,1.58,1.25,1.44a3.13,3.13,0,0,0,.44-.33v0a9.28,9.28,0,0,0,.57-1.05.5.5,0,0,0,.09-.18,1.41,1.41,0,0,0,.1-.21c.21-.46.33-.44.33-.89a1.29,1.29,0,0,0-.39-.82l-.17-.06h0a.32.32,0,0,0-.25,0" transform="translate(0 0)"></path>
        <path class="cls-8" d="M20.67,42.09l-.47,5.76L32.58,53.1l.94-9.93A33.19,33.19,0,0,0,28,43c-1.67.24-4.59,1-5.47.48a11.5,11.5,0,0,1-1.84-1.35" transform="translate(0 0)"></path>
        <path class="cls-7" d="M16,48a1.07,1.07,0,0,0-.32-.08h0a.6.6,0,0,0-.53.31c-.12.3,0,.56.09.57h.18a2.43,2.43,0,0,0,.32-.18l.05,0,.06,0c.13-.08.15-.06.23-.17a.43.43,0,0,0,0-.28l0,0h0Z" transform="translate(0 0)"></path>
        <path class="cls-7" d="M28.08,45.53a.62.62,0,0,0,0-.23h0S28,45,27.73,45s-.37.13-.35.2l.05.1h0l.2.16,0,0,0,0c.09.07.08.09.17.11a.28.28,0,0,0,.19-.05l0,0h0Z" transform="translate(0 0)"></path>
        <path class="cls-7" d="M31.54,49.7a2.74,2.74,0,0,0-.49-1h0a2,2,0,0,0-1.9-.67c-1,.34-1.44,1.17-1.25,1.47a2.83,2.83,0,0,0,.39.39h0a8.94,8.94,0,0,0,1.13.42.69.69,0,0,0,.2.07l.21.06c.5.14.49.27.94.21a1.37,1.37,0,0,0,.77-.52.74.74,0,0,0,0-.18h0v0a.28.28,0,0,0-.07-.24" transform="translate(0 0)"></path>
        <path class="cls-7" d="M24.81,46.28a2,2,0,0,0-.47.69h0a1.51,1.51,0,0,0,.25,1.52c.61.58,1.31.54,1.45.31,0-.06.08-.28.12-.41l0,0a7.1,7.1,0,0,0-.13-.91.35.35,0,0,0,0-.16,1.39,1.39,0,0,1,0-.17c-.09-.39,0-.43-.21-.71a1.05,1.05,0,0,0-.63-.32l-.13,0h0a.27.27,0,0,0-.14.14" transform="translate(0 0)"></path>
        <path class="cls-9" d="M24.86,53.33a.42.42,0,0,0,.41-.11c.13-.18.11-.37,0-.4l-.11,0c-.08,0-.08.18-.09.18Z" transform="translate(0 0)"></path>
        <path class="cls-10" d="M24.62,53.18s.22.2.32.14l.2-.12v-.06l-.25-.08-.14,0Z" transform="translate(0 0)"></path>
        <path class="cls-11" d="M24.61,53.14s0,.1.1.07a.53.53,0,0,0,.13-.06l.09-.24s0,0-.07,0-.11,0-.18.07a.28.28,0,0,0-.07.18" transform="translate(0 0)"></path>
        <path class="cls-12" d="M24.84,53.15a1.34,1.34,0,0,0,0-.18c0-.07,0-.1.07-.11s.21-.08.28,0,.07,0,.07.11a.3.3,0,0,1-.1.22.17.17,0,0,1-.19.09.43.43,0,0,1-.17-.08" transform="translate(0 0)"></path>
        <path class="cls-9" d="M22.11,51.75a.93.93,0,0,0,.84-.43c.22-.46.06-.87-.1-.9a1.23,1.23,0,0,0-.26,0c-.17,0-.09.43-.1.44Z" transform="translate(0 0)"></path>
        <path class="cls-10" d="M21.51,51.54s.59.34.76.16.4-.36.4-.36l0-.14a1.91,1.91,0,0,0-.58-.06c-.1,0-.26.16-.3.18Z" transform="translate(0 0)"></path>
        <path class="cls-11" d="M21.46,51.47c0,.05.11.19.25.1a1.49,1.49,0,0,0,.27-.19s.05-.5.07-.59.06-.13-.15,0-.25.08-.37.25a.64.64,0,0,0-.07.43" transform="translate(0 0)"></path>
        <path class="cls-12" d="M22,51.38A3.21,3.21,0,0,0,22,51c0-.18,0-.23.11-.28s.43-.29.6-.27.15,0,.19.22a.72.72,0,0,1-.1.54.42.42,0,0,1-.39.28,1.18,1.18,0,0,1-.4-.08" transform="translate(0 0)"></path>
        <path class="cls-9" d="M19.55,53.75a.9.9,0,0,0,.91.11c.43-.25.52-.66.42-.78L20.66,53c-.14-.09-.31.29-.32.3Z" transform="translate(0 0)"></path>
        <path class="cls-10" d="M19.17,53.25s.3.6.54.55.52-.08.52-.08l0-.13s-.34-.36-.44-.37l-.34,0Z" transform="translate(0 0)"></path>
        <path class="cls-11" d="M19.17,53.16c0,.06,0,.22.15.23a2,2,0,0,0,.33,0l.37-.44c.07-.06.12-.07-.12-.08s-.24-.07-.44,0a.61.61,0,0,0-.29.3" transform="translate(0 0)"></path>
        <path class="cls-12" d="M19.65,53.38a3,3,0,0,0,.21-.34c.08-.16.09-.2.24-.17s.51,0,.63.12.12.1,0,.28-.18.26-.38.38a.41.41,0,0,1-.47,0,1,1,0,0,1-.27-.28" transform="translate(0 0)"></path>
        <path class="cls-9" d="M18.44,52.09a.68.68,0,0,0,0-.7c-.23-.31-.55-.36-.63-.27l-.08.18c-.06.11.24.21.24.22Z" transform="translate(0 0)"></path>
        <path class="cls-10" d="M18.08,52.41s.44-.26.39-.44a3.53,3.53,0,0,1-.1-.39l-.1,0s-.25.27-.25.35,0,.23,0,.26Z" transform="translate(0 0)"></path>
        <path class="cls-11" d="M18,52.42s.16,0,.16-.13a1.17,1.17,0,0,0,0-.25l-.36-.26c-.05,0-.06-.08-.05.1s0,.19,0,.33a.43.43,0,0,0,.25.21" transform="translate(0 0)"></path>
        <path class="cls-12" d="M18.15,52a1.77,1.77,0,0,0-.27-.14c-.13,0-.16-.06-.14-.17s0-.39,0-.49.07-.09.22-.05a.53.53,0,0,1,.31.27.31.31,0,0,1,0,.35.69.69,0,0,1-.2.23" transform="translate(0 0)"></path>
        <path class="cls-9" d="M16.26,52.61a.3.3,0,0,0,.1-.29c-.05-.15-.18-.21-.22-.19l-.06.06.07.13Z" transform="translate(0 0)"></path>
        <path class="cls-10" d="M16.07,52.7s.22-.06.22-.14,0-.17,0-.17l0,0-.15.11,0,.11Z" transform="translate(0 0)"></path>
        <path class="cls-11" d="M16,52.69l.09,0,0-.11L16,52.4s0,0,0,0,0,.08,0,.14a.22.22,0,0,0,.07.12" transform="translate(0 0)"></path>
        <path class="cls-12" d="M16.15,52.55l-.1-.09,0-.09.08-.2h.09c.06,0,.07.08.1.15a.15.15,0,0,1,0,.15Z" transform="translate(0 0)"></path>
        <path class="cls-9" d="M15.59,53.81a1.19,1.19,0,0,0,0-1.21c-.39-.54-1-.62-1.08-.46a2.59,2.59,0,0,0-.16.3c-.09.2.43.38.44.39Z" transform="translate(0 0)"></path>
        <path class="cls-10" d="M15,54.37s.76-.46.66-.78-.16-.67-.16-.67l-.18,0s-.43.49-.43.63,0,.39,0,.45Z" transform="translate(0 0)"></path>
        <path class="cls-11" d="M14.86,54.38c.08,0,.29,0,.28-.23a3.45,3.45,0,0,0-.05-.42s-.54-.37-.63-.45-.1-.14-.09.17-.07.33.05.58a.8.8,0,0,0,.44.35" transform="translate(0 0)"></path>
        <path class="cls-12" d="M15.09,53.73a2.88,2.88,0,0,0-.47-.24c-.22-.09-.28-.1-.25-.3s-.06-.67.07-.85.12-.16.37-.08a.92.92,0,0,1,.55.45.54.54,0,0,1,.07.62,1.38,1.38,0,0,1-.34.4" transform="translate(0 0)"></path>
        <path class="cls-13" d="M18.61,37.17a9.65,9.65,0,0,1-1.87,3.12,7.29,7.29,0,0,0-1.37,3.31c-.36,2.66.41,5.37-.32,8a.06.06,0,1,0,.12,0c.71-2.56,0-5.21.31-7.81A7.25,7.25,0,0,1,17,40.19a9.28,9.28,0,0,0,1.76-3c0-.09-.11-.12-.13,0" transform="translate(0 0)"></path>
        <path class="cls-13" d="M18.22,38.33A5.74,5.74,0,0,1,15.05,44a5.71,5.71,0,0,0-2,1.47,5.2,5.2,0,0,0-.89,2.48A11.37,11.37,0,0,0,12,50.63a5.43,5.43,0,0,0,1.35,2.53,4.83,4.83,0,0,1-.29,6.21c-.11.12.07.31.19.18a5.14,5.14,0,0,0,1.24-4.63,6.78,6.78,0,0,0-1.44-2.56,5,5,0,0,1-.74-3.74,5.06,5.06,0,0,1,1.39-3.55c.83-.73,1.93-1,2.76-1.76a5.89,5.89,0,0,0,2-5c0-.17-.27-.17-.26,0" transform="translate(0 0)"></path>
        <path class="cls-13" d="M18.26,38.15a11.24,11.24,0,0,1-.65,5.46c-.67,1.37-2,2.31-2.38,3.85a6.8,6.8,0,0,0,.73,4.1,11.32,11.32,0,0,1,1.17,6.49c0,.17.23.24.26.07A9.84,9.84,0,0,0,16.83,53c-.7-1.8-1.87-3.73-1.28-5.72.46-1.55,2-2.54,2.52-4.07a12.93,12.93,0,0,0,.45-5c0-.17-.27-.17-.26,0" transform="translate(0 0)"></path>
        <path class="cls-13" d="M18.14,38.23c-1.25,1.31-2.7,3-2.22,4.92.12.48.37.9.48,1.38a6,6,0,0,1-.14,2.27,5.93,5.93,0,0,0,.3,2.83c.39,1.33-.12,2.06-.82,3.11a2.64,2.64,0,0,0-.56,1.89c.33,2,2.95,2.65,3.46,4.63,0,.16.29.09.25-.07-.45-1.79-2.39-2.39-3.21-3.93-1-1.88,1.41-3,1.32-4.77-.05-1-.61-1.85-.57-2.88a18.08,18.08,0,0,0,.27-2.84,7.93,7.93,0,0,0-.44-1.41,3.36,3.36,0,0,1,0-2,7.84,7.84,0,0,1,2.07-2.93c.11-.12-.07-.31-.19-.19" transform="translate(0 0)"></path>
        <path class="cls-13" d="M18.43,38.16a6.07,6.07,0,0,0-1.37,1.89,5.06,5.06,0,0,0-.27,2.41c.18,1.88,1,3.66.76,5.57,0,.16.24.16.26,0,.21-1.69-.4-3.28-.67-4.93a6,6,0,0,1,0-2.59,5.12,5.12,0,0,1,1.44-2.17c.11-.12-.07-.31-.19-.18" transform="translate(0 0)"></path>
        <path class="cls-13" d="M18.61,38a19.17,19.17,0,0,1-.26,7.12c-.42,1.87-1.13,3.58-.58,5.51a17.85,17.85,0,0,0,2.51,4.59,13.33,13.33,0,0,1,2.28,6.41c0,.17.27.17.25,0A12.72,12.72,0,0,0,21,56c-1-1.68-2.31-3.23-2.92-5.11-.74-2.27.31-4.36.7-6.59A19.81,19.81,0,0,0,18.86,38c0-.17-.27-.1-.25.07" transform="translate(0 0)"></path>
        <path class="cls-13" d="M19.28,38.84a7.76,7.76,0,0,0,1.38,4.47,9.93,9.93,0,0,1,1.53,6.14,47.64,47.64,0,0,1-1.58,6.44,42.5,42.5,0,0,0-.56,6.56c0,.17.25.17.26,0,.21-2.37.07-4.64.68-7a39.24,39.24,0,0,0,1.46-6,8.83,8.83,0,0,0-1-5.17c-.88-1.73-2.13-3.4-1.94-5.44,0-.17-.25-.17-.26,0" transform="translate(0 0)"></path>
        <path class="cls-13" d="M19.7,38.35c.28,1.45,1.35,2.63,1.77,4a15.77,15.77,0,0,1,.46,4.84c-.07,2.25-.7,5.21,1.2,6.92.13.11.31-.07.19-.19-2.06-1.84-1.09-5.39-1.11-7.81a14.25,14.25,0,0,0-.53-3.95c-.42-1.38-1.46-2.53-1.73-3.93,0-.17-.28-.1-.25.07" transform="translate(0 0)"></path>
        <path class="cls-13" d="M20.68,40.27a7,7,0,0,1,.69,3.64,10.65,10.65,0,0,1-2.13,4.36c-.1.13.12.26.22.13a10.47,10.47,0,0,0,2.18-4.6,7.28,7.28,0,0,0-.74-3.66c-.06-.15-.29,0-.22.13" transform="translate(0 0)"></path>
        <path class="cls-13" d="M21,45.21a5,5,0,0,1-.09,2.45c-.05.16.2.23.25.07a5.28,5.28,0,0,0,.1-2.59c0-.16-.29-.09-.26.07" transform="translate(0 0)"></path>
        <path class="cls-13" d="M19.56,38.56c1,1.5,2,3,2.94,4.49a9.62,9.62,0,0,1,1.41,5.05c.07,1.69,0,3.36-.09,5a4.36,4.36,0,0,0,.87,3.21c.11.13.29-.06.18-.18-1.09-1.23-.78-3-.71-4.5a32,32,0,0,0-.1-5.18,8.43,8.43,0,0,0-1.42-3.71c-.94-1.46-1.91-2.91-2.86-4.36-.09-.14-.32,0-.22.13" transform="translate(0 0)"></path>
        <path class="cls-13" d="M19.7,38.83a14.38,14.38,0,0,1,3.67,4.33,14.63,14.63,0,0,1,1.07,5.15c.21,3,.14,6.2,1.91,8.8.09.14.32,0,.22-.13-2-2.95-1.61-6.65-2-10a12.06,12.06,0,0,0-1.11-4.16,14.93,14.93,0,0,0-3.58-4.14c-.13-.12-.31.07-.19.18" transform="translate(0 0)"></path>
        <path class="cls-13" d="M20.05,38.23A5.55,5.55,0,0,1,22.35,41a8.38,8.38,0,0,0,.93,2.18,24.5,24.5,0,0,0,3.1,3.18,6.84,6.84,0,0,1,1.42,1.92,6.43,6.43,0,0,1,.27,3.61c-.21,1.7-.48,3.51.6,5,.1.13.33,0,.23-.14-1.45-2-.4-4.35-.44-6.54a5.68,5.68,0,0,0-1.9-4c-1.17-1.2-2.63-2.21-3.41-3.73-.44-.84-.52-1.82-1-2.62A6.87,6.87,0,0,0,20.18,38c-.14-.1-.26.13-.13.22" transform="translate(0 0)"></path>
        <path class="cls-13" d="M19,38.15l1.42,2.72a6.68,6.68,0,0,0,1.44,2.05,8.78,8.78,0,0,0,3.9,1.56c1.72.4,3.42.9,4.43,2.47,1.17,1.81,1.07,4.06.84,6.12,0,.17.25.17.26,0a10.43,10.43,0,0,0-.49-5.54,5.32,5.32,0,0,0-3.35-2.87c-1.55-.51-3.26-.62-4.7-1.43a5.25,5.25,0,0,1-2-2.26c-.52-1-1-2-1.54-2.95-.08-.15-.3,0-.22.13" transform="translate(0 0)"></path>
        <path class="cls-13" d="M19.71,38.38c.58.93,1.76,1.25,2.33,2.18.34.57.51,1.26.81,1.84a11.19,11.19,0,0,0,2.35,3.09,4.09,4.09,0,0,1,.71.73,3,3,0,0,1,.37,1.52,15.43,15.43,0,0,1-.51,4.88.13.13,0,0,0,.25.07A15.77,15.77,0,0,0,26.56,48a3.68,3.68,0,0,0-.43-1.93,11.22,11.22,0,0,0-1.33-1.34,13.67,13.67,0,0,1-2.39-4c-.52-1.15-1.83-1.44-2.47-2.48a.13.13,0,0,0-.23.13" transform="translate(0 0)"></path>
        <path class="cls-13" d="M26.12,46.4a5.6,5.6,0,0,1,.72,1,2.53,2.53,0,0,1,.31,1.21c.05.86.08,1.72.11,2.59,0,.17.27.17.26,0,0-.95,0-1.92-.12-2.87a3.8,3.8,0,0,0-1.09-2.07c-.11-.13-.3.06-.19.18" transform="translate(0 0)"></path>
        <polygon class="cls-14" points="5.82 35.88 20.67 42.09 34.17 36.36 20.67 31.6 5.82 35.88"></polygon>
        <path class="cls-15" d="M13.55,25.83a1,1,0,0,0-.75,1.92,1.84,1.84,0,0,0,1.77.35,2,2,0,0,0,.49-2.51,2.1,2.1,0,0,0-1-.11,1,1,0,0,0-.56.35" transform="translate(0 0)"></path>
        <polygon class="cls-16" points="14.02 27.16 14.11 27.24 14.09 27.12 14 27.04 14.02 27.16"></polygon>
        <path class="cls-17" d="M13.56,25.61a1.63,1.63,0,0,0-1.76.54s.8-.52,1.2-.38a1.68,1.68,0,0,0-.88,1.33S13,25.92,13.32,26c0,0,.44,0,.61,1.14,0,0,.24-.29-.09-1.29,0,0,.89.14,1.15.72a1.56,1.56,0,0,0-.89-1,1,1,0,0,1,1.12.35s-.3-1-1.18-.71c0,0-.24.44-.48.39" transform="translate(0 0)"></path>
        <polygon class="cls-16" points="12.78 27.41 12.89 27.46 12.84 27.35 12.74 27.3 12.78 27.41"></polygon>
        <polygon class="cls-16" points="13.41 27.35 13.52 27.41 13.48 27.29 13.37 27.24 13.41 27.35"></polygon>
        <polygon class="cls-16" points="14.52 26.89 14.6 26.98 14.6 26.86 14.52 26.77 14.52 26.89"></polygon>
        <polygon class="cls-16" points="14.96 26.39 15.04 26.48 15.04 26.37 14.96 26.27 14.96 26.39"></polygon>
        <polygon class="cls-16" points="13.4 27.71 13.51 27.74 13.45 27.64 13.33 27.61 13.4 27.71"></polygon>
        <polygon class="cls-16" points="13.99 27.69 14.1 27.75 14.05 27.64 13.94 27.58 13.99 27.69"></polygon>
        <polygon class="cls-16" points="14.4 27.53 14.47 27.63 14.48 27.51 14.4 27.41 14.4 27.53"></polygon>
        <polygon class="cls-16" points="14.86 27.12 14.93 27.21 14.94 27.09 14.86 27 14.86 27.12"></polygon>
        <path class="cls-15" d="M42.39,11a1.09,1.09,0,0,0-.82-.09,1.11,1.11,0,0,0-.43,1.86,1.92,1.92,0,0,0,1.72.82A2.08,2.08,0,0,0,44,11.11a2.15,2.15,0,0,0-.95-.36,1.07,1.07,0,0,0-.67.21" transform="translate(0 0)"></path>
        <polygon class="cls-16" points="42.53 12.45 42.6 12.55 42.62 12.43 42.55 12.32 42.53 12.45"></polygon>
        <path class="cls-17" d="M42.46,10.74a1.71,1.71,0,0,0-1.94.1s1-.33,1.33-.08a1.78,1.78,0,0,0-1.25,1.13s1.21-1,1.51-.79c0,0,.45.11.33,1.33,0,0,.32-.24.24-1.35,0,0,.88.37,1,1A1.68,1.68,0,0,0,43,10.85a1.1,1.1,0,0,1,1.06.64s0-1.13-1-1c0,0-.36.39-.6.28" transform="translate(0 0)"></path>
        <polygon class="cls-16" points="41.2 12.38 41.3 12.46 41.28 12.34 41.18 12.26 41.2 12.38"></polygon>
        <polygon class="cls-16" points="41.86 12.49 41.96 12.57 41.94 12.44 41.85 12.36 41.86 12.49"></polygon>
        <polygon class="cls-16" points="43.11 12.3 43.17 12.41 43.2 12.29 43.14 12.18 43.11 12.3"></polygon>
        <polygon class="cls-16" points="43.7 11.9 43.75 12.02 43.78 11.9 43.73 11.79 43.7 11.9"></polygon>
        <polygon class="cls-18" points="41.75 12.85 41.86 12.91 41.82 12.79 41.71 12.73 41.75 12.85"></polygon>
        <polygon class="cls-16" points="42.36 12.99 42.46 13.07 42.44 12.94 42.35 12.86 42.36 12.99"></polygon>
        <polygon class="cls-16" points="42.82 12.93 42.88 13.04 42.91 12.92 42.86 12.81 42.82 12.93"></polygon>
        <path class="cls-16" d="M43.4,12.62l.05.12,0-.12c0-.07,0-.12-.05-.12Z" transform="translate(0 0)"></path>
        <path class="cls-19" d="M13,27.54s1.51.8,1.51,1.39.22,1.17-1.28,2.27-3.14-1.05-3.2-1.6a2,2,0,0,1,1.4-2.09c1.26-.38,1.08-.2,1.08-.2l.49.23" transform="translate(0 0)"></path>
        <path class="cls-20" d="M12.32,31.38h0a5.74,5.74,0,0,1-.75-.38c-2.33-1.56-.78-2.82-.78-2.82a.19.19,0,0,1,.12-.07c.08,0,.09.13,0,.34-.68,1.45,1.53,2.93,1.43,2.93" transform="translate(0 0)"></path>
        <path class="cls-21" d="M10.35,28.24l0,0,0,0h0" transform="translate(0 0)"></path>
        <path class="cls-22" d="M13.52,27.87c-.3-.2-.55-.33-.55-.33l-.36-.17a2.89,2.89,0,0,1,.91.5" transform="translate(0 0)"></path>
        <path class="cls-21" d="M11,27.68a3.07,3.07,0,0,1,.81-.34h0a2.08,2.08,0,0,1,.36-.07l.11,0-.56.13,0,0,0,0-.3.08a2.19,2.19,0,0,0-.41.17" transform="translate(0 0)"></path>
        <path class="cls-23" d="M12.4,27.31h0m-2,.92,0,0a2.39,2.39,0,0,1,.6-.51,3.17,3.17,0,0,1,.41-.17l.29-.08a5.13,5.13,0,0,1-.66.41,5.48,5.48,0,0,0-.67.39m3.21.25c-.19-.3-.47-.37-.64-.61a2.65,2.65,0,0,0-.53-.56l.21.06.36.17s.25.13.55.33.36.32.44.38h0l-.71-.44L13,27.68a7.48,7.48,0,0,1,.56.8m-1.22,0h0a4.39,4.39,0,0,1-.28-.76c0-.27,0-.34,0-.36h0c-.09,0-.37.46-.5.56a3.35,3.35,0,0,0-.46.47,2.34,2.34,0,0,1,.64-1l.56-.13.11,0h0s.16.29.14.47a1.87,1.87,0,0,1-.17.74" transform="translate(0 0)"></path>
        <path class="cls-24" d="M11.66,29.7c0,.07,0,.14.06.14s0-.07,0-.14,0-.14,0-.14-.06.06-.06.14" transform="translate(0 0)"></path>
        <path class="cls-24" d="M11.74,28.82c0,.08,0,.14.06.14s0-.06,0-.14,0-.14,0-.14-.06.07-.06.14" transform="translate(0 0)"></path>
        <path class="cls-24" d="M11,29.63c0,.08,0,.14,0,.14s.06-.06.06-.14,0-.14-.06-.14,0,.06,0,.14" transform="translate(0 0)"></path>
        <path class="cls-24" d="M11,28.78c0,.08,0,.14,0,.14s.06-.06.06-.14,0-.14-.06-.14,0,.07,0,.14" transform="translate(0 0)"></path>
        <path class="cls-24" d="M11.37,30c0,.08,0,.14.05.14s.05-.06.05-.14,0-.14-.05-.14-.05.07-.05.14" transform="translate(0 0)"></path>
        <path class="cls-24" d="M11.31,29.25c0,.08,0,.14.06.14s.05-.06.05-.14,0-.14-.05-.14-.06.06-.06.14" transform="translate(0 0)"></path>
        <path class="cls-24" d="M12.13,30c0,.07,0,.14,0,.14s.06-.07.06-.14,0-.15-.06-.15,0,.07,0,.15" transform="translate(0 0)"></path>
        <path class="cls-24" d="M12.13,29.25c0,.08,0,.14,0,.14s.06-.06.06-.14,0-.14-.06-.14,0,.06,0,.14" transform="translate(0 0)"></path>
        <path class="cls-24" d="M12.52,29.66c0,.08,0,.14.05.14s.06-.06.06-.14,0-.14-.06-.14-.05.07-.05.14" transform="translate(0 0)"></path>
        <path class="cls-24" d="M12.63,28.78c0,.08,0,.14,0,.14s.06-.06.06-.14,0-.14-.06-.14,0,.07,0,.14" transform="translate(0 0)"></path>
        <path class="cls-24" d="M12.78,30.08c0,.08,0,.14.06.14s.05-.06.05-.14,0-.14-.05-.14-.06.06-.06.14" transform="translate(0 0)"></path>
        <path class="cls-24" d="M13.12,29.63c0,.08,0,.14.05.14s.05-.06.05-.14,0-.14-.05-.14-.05.06-.05.14" transform="translate(0 0)"></path>
        <path class="cls-24" d="M13.34,28.84c0,.07,0,.14,0,.15s.06,0,.08-.13,0-.14,0-.15-.07.05-.08.13" transform="translate(0 0)"></path>
        <path class="cls-24" d="M13.47,30c0,.07,0,.14,0,.15s.08,0,.11-.1,0-.14,0-.15-.07,0-.11.1" transform="translate(0 0)"></path>
        <path class="cls-24" d="M13.55,29.44c0,.07,0,.14,0,.15s.08,0,.11-.1,0-.14,0-.15-.07,0-.11.1" transform="translate(0 0)"></path>
        <path class="cls-24" d="M14,28.83c0,.07,0,.13,0,.15s.07,0,.11-.11,0-.13,0-.15-.07,0-.11.11" transform="translate(0 0)"></path>
        <path class="cls-24" d="M10.62,30c0,.07.08.12.11.1s0-.08,0-.15-.08-.12-.1-.1,0,.08,0,.15" transform="translate(0 0)"></path>
        <path class="cls-24" d="M10.55,29.22c0,.07.07.12.1.11s0-.08,0-.15-.07-.13-.1-.12,0,.08,0,.16" transform="translate(0 0)"></path>
        <path class="cls-24" d="M10.16,29.58c0,.07.08.12.1.1s0-.08,0-.15-.08-.12-.11-.1,0,.08,0,.15" transform="translate(0 0)"></path>
        <path class="cls-24" d="M10.27,28.67c0,.08,0,.15,0,.15s.07-.05.08-.13,0-.14,0-.15-.06.06-.07.13" transform="translate(0 0)"></path>
        <path class="cls-24" d="M13.88,29.92c0,.07,0,.13,0,.15s.07,0,.11-.11,0-.13,0-.15-.07,0-.11.11" transform="translate(0 0)"></path>
        <path class="cls-24" d="M14.14,29.47c0,.07,0,.13,0,.15s.07,0,.11-.11,0-.13,0-.15-.07,0-.11.11" transform="translate(0 0)"></path>
        <path class="cls-17" d="M12.16,27.18a3.73,3.73,0,0,0-1.81.87l.68-.3c.23-.1.62-.25.66-.29a1.42,1.42,0,0,0-.62.87,3.68,3.68,0,0,1,.47-.47c.12-.1.42-.5.5-.47s0-.16,0,.27a6.14,6.14,0,0,0,.28.95,4,4,0,0,0,.18-.91c0-.18-.1-.33-.07-.34s.26.24.48.42a2.8,2.8,0,0,1,.64.61A6.92,6.92,0,0,0,13,27.6l.24.12c.24.16.76.47.71.44a3.36,3.36,0,0,0-1.8-1" transform="translate(0 0)"></path>
        <path class="cls-25" d="M10.6,28.78c.05,0,.09-.19.17-.3s.19-.27.13-.31-.22.09-.3.21a.38.38,0,0,0,0,.4" transform="translate(0 0)"></path>
        <path class="cls-19" d="M45,11.09s-1.11,1-1,1.53.09,1.05,1.61,1.64,2.35-1.6,2.35-2.11a1.53,1.53,0,0,0-1.67-1.44c-1.16,0-1,.08-1,.08l-.36.3" transform="translate(0 0)"></path>
        <path class="cls-21" d="M46.59,10.73l-.32,0h-.36l-.43,0,.09-.05.32,0h0a3.09,3.09,0,0,1,.68.08m-2,.77a2.61,2.61,0,0,1,.65-.63l-.26.22a4.32,4.32,0,0,0-.39.41" transform="translate(0 0)"></path>
        <path class="cls-23" d="M45.37,10.77h0m2,.31a4.85,4.85,0,0,0-.67-.18,6.14,6.14,0,0,1-.66-.2h.27l.32,0a2.07,2.07,0,0,1,.74.35m-1.63.7a1.63,1.63,0,0,1-.32-.58c-.06-.15,0-.43,0-.44l.09,0,.43,0H46a2.17,2.17,0,0,1,.78.7,3.23,3.23,0,0,0-.51-.29c-.13-.06-.46-.36-.55-.36h0s0,.08.06.31a3.76,3.76,0,0,1-.06.72h0M44.65,12a5,5,0,0,1,.3-.81l-.18.17c-.16.17-.5.54-.51.54h0c0-.06.14-.22.29-.42a4.32,4.32,0,0,1,.39-.41l.26-.22.16-.1a2.5,2.5,0,0,0-.31.59c-.1.25-.31.37-.41.67" transform="translate(0 0)"></path>
        <path class="cls-24" d="M46.55,12.62c0,.07,0,.13,0,.14s-.06,0-.08-.11,0-.13,0-.13.06,0,.07.1" transform="translate(0 0)"></path>
        <path class="cls-24" d="M46.28,11.9c0,.07,0,.12,0,.13s-.06,0-.08-.11,0-.12,0-.13.06,0,.07.11" transform="translate(0 0)"></path>
        <path class="cls-24" d="M47.14,12.4c0,.07,0,.13,0,.14s-.06,0-.07-.11,0-.13,0-.13.06,0,.08.1" transform="translate(0 0)"></path>
        <path class="cls-24" d="M46.94,11.68c0,.07,0,.13,0,.14s-.06,0-.08-.11,0-.13,0-.13.06,0,.08.1" transform="translate(0 0)"></path>
        <path class="cls-24" d="M46.89,12.85c0,.06,0,.12,0,.13s-.07,0-.08-.11,0-.12,0-.13.06,0,.08.11" transform="translate(0 0)"></path>
        <path class="cls-24" d="M46.75,12.16c0,.07,0,.13,0,.13s-.06,0-.08-.1,0-.13,0-.14.06,0,.08.11" transform="translate(0 0)"></path>
        <path class="cls-24" d="M46.23,13c0,.07,0,.13,0,.14s-.06-.05-.08-.11,0-.13,0-.13.06,0,.08.1" transform="translate(0 0)"></path>
        <path class="cls-24" d="M46.06,12.35c0,.07,0,.13,0,.13s-.06,0-.08-.1,0-.13,0-.14.06,0,.08.11" transform="translate(0 0)"></path>
        <path class="cls-24" d="M45.82,12.79c0,.07,0,.13,0,.14s-.06,0-.08-.11,0-.13,0-.13.06,0,.08.1" transform="translate(0 0)"></path>
        <path class="cls-24" d="M45.52,12.07c0,.07,0,.13,0,.13s-.06,0-.08-.1,0-.13,0-.14.07,0,.08.11" transform="translate(0 0)"></path>
        <path class="cls-24" d="M45.69,13.21c0,.07,0,.13,0,.13s-.06,0-.08-.1,0-.13,0-.14.06,0,.08.11" transform="translate(0 0)"></path>
        <path class="cls-24" d="M45.31,12.91c0,.06,0,.12,0,.13s-.06,0-.08-.11,0-.13,0-.13.06,0,.08.11" transform="translate(0 0)"></path>
        <polygon class="cls-24" points="44.93 12.28 44.95 12.41 44.85 12.33 44.83 12.2 44.93 12.28"></polygon>
        <polygon class="cls-24" points="45.08 13.29 45.13 13.41 45.01 13.35 44.96 13.22 45.08 13.29"></polygon>
        <polygon class="cls-24" points="44.89 12.84 44.94 12.97 44.82 12.91 44.77 12.78 44.89 12.84"></polygon>
        <polygon class="cls-24" points="44.37 12.42 44.42 12.55 44.3 12.49 44.26 12.36 44.37 12.42"></polygon>
        <path class="cls-24" d="M47.52,12.66c0,.07,0,.12-.07.12s0-.06,0-.13,0-.12.07-.12,0,.06,0,.13" transform="translate(0 0)"></path>
        <path class="cls-24" d="M47.39,12c0,.07,0,.13-.06.12s0-.05,0-.12,0-.13.05-.12,0,.06,0,.12" transform="translate(0 0)"></path>
        <path class="cls-24" d="M47.81,12.17c0,.07,0,.12-.07.12a.15.15,0,0,1,0-.13c0-.07,0-.12.07-.12s0,.06,0,.13" transform="translate(0 0)"></path>
        <polygon class="cls-24" points="47.5 11.43 47.51 11.56 47.41 11.47 47.41 11.34 47.5 11.43"></polygon>
        <polygon class="cls-24" points="44.72 13.32 44.77 13.45 44.65 13.39 44.6 13.26 44.72 13.32"></polygon>
        <polygon class="cls-24" points="44.4 13 44.44 13.13 44.33 13.07 44.28 12.94 44.4 13"></polygon>
        <path class="cls-17" d="M45.55,10.6a3.33,3.33,0,0,1,1.74.32l-.65-.09c-.22,0-.59-.08-.63-.1a1.22,1.22,0,0,1,.73.6,3.45,3.45,0,0,0-.5-.3c-.14,0-.48-.32-.54-.28s0-.14,0,.24a5.59,5.59,0,0,1,0,.86,2.63,2.63,0,0,1-.37-.73c-.06-.15,0-.29,0-.3a3,3,0,0,0-.3.47,2.31,2.31,0,0,0-.41.67,5,5,0,0,1,.3-.81l-.18.16-.5.54a3,3,0,0,1,1.3-1.25" transform="translate(0 0)"></path>
        <path class="cls-25" d="M47.25,11.6c0,.05-.12-.14-.22-.22s-.22-.18-.19-.23.21,0,.31.1a.37.37,0,0,1,.1.35" transform="translate(0 0)"></path>
        <path class="cls-19" d="M11.1,25.81s.34,1.25-.21,1.7c-.38.32-.69.72-2.17.24s-1-2.52-.46-2.95a1.59,1.59,0,0,1,2.09-.06c.87.67.66.63.66.63l.09.44" transform="translate(0 0)"></path>
        <path class="cls-21" d="M10.93,25.22a4.22,4.22,0,0,0-.37-.32h0l0,0-.21-.15a1.54,1.54,0,0,0-.28-.19,2.75,2.75,0,0,1,.59.37h0a1.85,1.85,0,0,1,.22.2l0,.09m.2.73,0-.14L11,25.49a2.86,2.86,0,0,1,.09.46" transform="translate(0 0)"></path>
        <path class="cls-23" d="M10.55,24.89a5.36,5.36,0,0,1-.6-.24,4.32,4.32,0,0,0-.6-.28,2.24,2.24,0,0,1,.72.18,1.54,1.54,0,0,1,.28.19,2.07,2.07,0,0,1,.2.15m.43.43v0m-.84.55s0,0,0,0,.19-.4.39-.56l.23-.19c0-.07-.5,0-.63-.07A3,3,0,0,0,9.58,25a1.27,1.27,0,0,1,.52-.09,3.88,3.88,0,0,1,.41,0h.05a4.22,4.22,0,0,1,.37.32.59.59,0,0,0,0,.08h0s-.12.26-.24.33a2,2,0,0,1-.58.24m1,1s0-.47,0-.7l0-.22a6.57,6.57,0,0,1-.27.77c.11-.28,0-.5.1-.74a2.26,2.26,0,0,0,.13-.62l.06.17.06.32,0,.14a4.83,4.83,0,0,1,0,.88h0" transform="translate(0 0)"></path>
        <polygon class="cls-24" points="9 25.97 8.93 26.08 9.05 26.05 9.12 25.94 9 25.97"></polygon>
        <polygon class="cls-24" points="9.63 25.6 9.56 25.71 9.68 25.68 9.75 25.57 9.63 25.6"></polygon>
        <polygon class="cls-24" points="8.7 25.46 8.63 25.57 8.75 25.54 8.82 25.43 8.7 25.46"></polygon>
        <polygon class="cls-24" points="9.28 25.05 9.21 25.16 9.33 25.13 9.4 25.02 9.28 25.05"></polygon>
        <polygon class="cls-24" points="8.62 25.94 8.55 26.05 8.67 26.01 8.74 25.91 8.62 25.94"></polygon>
        <polygon class="cls-24" points="9.13 25.52 9.06 25.62 9.18 25.59 9.25 25.49 9.13 25.52"></polygon>
        <polygon class="cls-24" points="9.01 26.44 8.94 26.54 9.07 26.51 9.14 26.41 9.01 26.44"></polygon>
        <polygon class="cls-24" points="9.53 26.07 9.46 26.18 9.58 26.15 9.65 26.04 9.53 26.07"></polygon>
        <polygon class="cls-24" points="9.44 26.54 9.37 26.64 9.49 26.61 9.56 26.51 9.44 26.54"></polygon>
        <polygon class="cls-24" points="10.09 26.18 10.02 26.29 10.14 26.26 10.21 26.15 10.09 26.18"></polygon>
        <polygon class="cls-24" points="9.28 26.92 9.21 27.03 9.33 27 9.4 26.89 9.28 26.92"></polygon>
        <polygon class="cls-24" points="9.75 26.93 9.68 27.03 9.8 27 9.87 26.9 9.75 26.93"></polygon>
        <path class="cls-26" d="M7.19,15c1.07.46,2.57.9,3.52,1.32a9.05,9.05,0,0,1,3.66,3.18,27.78,27.78,0,0,1,2.35,4.37l.69,1.49c.76,1.64,1.52,3.28,2.23,4.93l.24-.1c-.72-1.66-1.47-3.3-2.23-4.94L17,23.79a28.81,28.81,0,0,0-2.37-4.41,9.38,9.38,0,0,0-3.77-3.27c-1-.43-2.48-.86-3.52-1.32Z" transform="translate(0 0)"></path>
        <polygon class="cls-24" points="10.39 26.69 10.3 26.78 10.43 26.78 10.52 26.69 10.39 26.69"></polygon>
        <polygon class="cls-24" points="9.68 27.34 9.57 27.4 9.7 27.43 9.81 27.37 9.68 27.34"></polygon>
        <polygon class="cls-24" points="10.09 27.13 9.98 27.2 10.11 27.22 10.21 27.16 10.09 27.13"></polygon>
        <polygon class="cls-24" points="10.72 27.13 10.61 27.2 10.73 27.22 10.84 27.16 10.72 27.13"></polygon>
        <polygon class="cls-24" points="8.27 25.43 8.25 25.55 8.35 25.48 8.37 25.35 8.27 25.43"></polygon>
        <polygon class="cls-24" points="8.78 24.98 8.75 25.11 8.86 25.03 8.89 24.91 8.78 24.98"></polygon>
        <polygon class="cls-24" points="8.35 24.89 8.33 25.02 8.43 24.94 8.45 24.82 8.35 24.89"></polygon>
        <polygon class="cls-24" points="9.02 24.53 8.93 24.63 9.06 24.61 9.14 24.52 9.02 24.53"></polygon>
        <polygon class="cls-24" points="9.93 27.59 9.82 27.65 9.94 27.68 10.05 27.61 9.93 27.59"></polygon>
        <polygon class="cls-24" points="10.36 27.54 10.25 27.61 10.37 27.63 10.48 27.57 10.36 27.54"></polygon>
        <path class="cls-17" d="M10.94,25.09a3.13,3.13,0,0,0-1.46-.81l.53.33c.18.1.47.29.52.3a1.16,1.16,0,0,0-.9,0,3,3,0,0,1,.55.09c.13,0,.55,0,.57.11l-.18.15a5.68,5.68,0,0,0-.51.64,2.57,2.57,0,0,0,.71-.31c.14-.08.17-.23.19-.21s0,.29-.05.52a2.19,2.19,0,0,1-.1.74,5.73,5.73,0,0,0,.26-.77l0,.22c0,.24.05.75,0,.7a2.76,2.76,0,0,0-.21-1.7" transform="translate(0 0)"></path>
        <path class="cls-25" d="M9.1,24.81c0,.06.17,0,.29,0s.28,0,.28-.06-.17-.11-.29-.11-.28.14-.28.2" transform="translate(0 0)"></path>
        <path class="cls-15" d="M10.21,22.05A1.09,1.09,0,0,0,8,21.89a1.93,1.93,0,0,0,.19,1.89,2.09,2.09,0,0,0,2.69-.28,2.17,2.17,0,0,0-.19-1,1,1,0,0,0-.52-.45" transform="translate(0 0)"></path>
        <polygon class="cls-16" points="9.01 22.93 8.96 23.05 9.07 23 9.12 22.88 9.01 22.93"></polygon>
        <path class="cls-17" d="M10.43,22a1.71,1.71,0,0,0-1.09-1.61s.78.65.75,1.1A1.77,1.77,0,0,0,8.48,21s1.46.53,1.47.89c0,0,.13.44-1,1,0,0,.37.16,1.27-.49a1.71,1.71,0,0,1-.37,1.39,1.64,1.64,0,0,0,.75-1.21,1.08,1.08,0,0,1,0,1.23s1-.61.36-1.41c0,0-.52-.1-.55-.36" transform="translate(0 0)"></path>
        <polygon class="cls-16" points="8.37 21.76 8.35 21.88 8.45 21.8 8.47 21.68 8.37 21.76"></polygon>
        <polygon class="cls-16" points="8.63 22.38 8.61 22.5 8.71 22.43 8.73 22.3 8.63 22.38"></polygon>
        <polygon class="cls-16" points="9.44 23.35 9.37 23.46 9.49 23.42 9.56 23.31 9.44 23.35"></polygon>
        <polygon class="cls-16" points="10.07 23.65 10 23.75 10.13 23.72 10.2 23.61 10.07 23.65"></polygon>
        <polygon class="cls-16" points="8.26 22.48 8.26 22.6 8.34 22.5 8.34 22.38 8.26 22.48"></polygon>
        <polygon class="cls-16" points="8.46 23.07 8.44 23.19 8.54 23.11 8.56 22.99 8.46 23.07"></polygon>
        <polygon class="cls-16" points="8.75 23.43 8.68 23.54 8.8 23.5 8.87 23.4 8.75 23.43"></polygon>
        <polygon class="cls-16" points="9.31 23.77 9.24 23.87 9.36 23.84 9.43 23.73 9.31 23.77"></polygon>
        <path class="cls-26" d="M20.17,18.75a4.12,4.12,0,0,1-.61,0,4.3,4.3,0,0,1-2.39-.85c-1.19-1-2.54-2.86-2.43-4.5l.3.39,1.08.27,3.66,2.61.53,1.63Z" transform="translate(0 0)"></path>
        <path class="cls-27" d="M19.24,17.62c.12.37.19.75.32,1.12a1.81,1.81,0,0,1-.22-.54,3.7,3.7,0,0,1-.1-.58" transform="translate(0 0)"></path>
        <path class="cls-27" d="M18.67,18.6a4.68,4.68,0,0,1-.6-1.61,7.27,7.27,0,0,0,.6,1.61" transform="translate(0 0)"></path>
        <path class="cls-27" d="M17.56,18.18c-.22-.6-.42-1.21-.6-1.82.22.6.42,1.21.6,1.82" transform="translate(0 0)"></path>
        <path class="cls-27" d="M16.53,17.28A3,3,0,0,1,16.18,16a2.37,2.37,0,0,0,.14.64,6.26,6.26,0,0,0,.21.61" transform="translate(0 0)"></path>
        <path class="cls-27" d="M15.68,16.21a4.46,4.46,0,0,1-.15-1.14,3.7,3.7,0,0,0,.07.57Z" transform="translate(0 0)"></path>
        <path class="cls-27" d="M20.17,18.75a4.29,4.29,0,0,0,0-4.3s-.07.37-.11.62-.85-1.27-.85-1.42a2,2,0,0,0-.13.69,4.85,4.85,0,0,1-.75-1.19,3.23,3.23,0,0,0-.13.65c0,.09-.83-.48-.85-.75s-.07.38,0,.6-.7.06-1-.6l-.15.58a1,1,0,0,1-.59-.39c-.11-.26,0,.28,0,.41s-.69,0-.87-.26.22.72.46,1,.24,0,.24,0a5,5,0,0,1,.67,1l.07-.43a4.21,4.21,0,0,1,.65,1c0,.25.08-.39.08-.39a4.8,4.8,0,0,1,.66,1l.08-.6s.74.9.74,1.12l.15-.41s.54.89.5,1.13.2-.49.17-.58,1.18,1.08,1,1.62" transform="translate(0 0)"></path>
        <path class="cls-17" d="M20.46,19.47s-.07.26.4.47a5.6,5.6,0,0,0,2.22.25,2.52,2.52,0,0,0-.26-.36,4.43,4.43,0,0,0,1.67-.54,2.64,2.64,0,0,0-.4-.22s1-.53,1.25-.68l-.47-.21s.39-.77.6-.8c0,0-.28-.3-.37-.25s.19-.63.26-.63L25,16.36l.28-.33c.05,0-.7-.24-.77-.16s.08-.39.08-.39a2.36,2.36,0,0,0-1,.32,2.42,2.42,0,0,1-.13-.57c0-.11-.9.63-1,1a.47.47,0,0,1-.31-.49A2.09,2.09,0,0,0,21.61,17l-.26-.23a2.25,2.25,0,0,0-.16.86s-.21,0-.21-.16a5.66,5.66,0,0,0-.52,2" transform="translate(0 0)"></path>
        <path class="cls-27" d="M20.86,19.94a14.69,14.69,0,0,1,1.45-2,7.08,7.08,0,0,1,.89-.84,2.64,2.64,0,0,1,1.08-.55,2.67,2.67,0,0,0-1.05.59,6.91,6.91,0,0,0-.87.84,19.94,19.94,0,0,0-1.5,1.93" transform="translate(0 0)"></path>
        <path class="cls-27" d="M21.38,19.14a2.17,2.17,0,0,1-.17-1,2.07,2.07,0,0,0,.28.89Z" transform="translate(0 0)"></path>
        <path class="cls-27" d="M23.78,19.37a7.31,7.31,0,0,1-2.37-.21l0-.12a7.3,7.3,0,0,0,2.33.33" transform="translate(0 0)"></path>
        <path class="cls-27" d="M22.11,18.21a2.78,2.78,0,0,1-.27-1.08,2.68,2.68,0,0,0,.38,1Z" transform="translate(0 0)"></path>
        <path class="cls-27" d="M24.05,18.6a3.69,3.69,0,0,1-1.92-.36l.07-.12a3.5,3.5,0,0,0,1.85.48" transform="translate(0 0)"></path>
        <path class="cls-27" d="M22.88,17.37A5.13,5.13,0,0,1,23.14,16,5.08,5.08,0,0,0,23,17.37Z" transform="translate(0 0)"></path>
        <path class="cls-27" d="M24.84,17.48a8.06,8.06,0,0,1-1.9,0l0-.13a7.4,7.4,0,0,0,1.88.17" transform="translate(0 0)"></path>
        <path class="cls-27" d="M20.31,19.94a2.83,2.83,0,0,0-.57-.7l0,.14a2.23,2.23,0,0,0-.95-.44l.09.16a2.88,2.88,0,0,0-.92-.16l.08.2a6.47,6.47,0,0,0-1,0,1,1,0,0,1,.05.29,2,2,0,0,0-.74.36s.21.12.21.19a1.72,1.72,0,0,0-.42.7l.36.11s0,.18-.08.23.49.36.65.39a.22.22,0,0,1-.21.1c-.15,0,.42.24,1,.26,0,0,0,.19-.1.19a3.47,3.47,0,0,0,1.25.15l0,.18a2.13,2.13,0,0,0,1.22-1c.23-.63.29-.77,0-1.35" transform="translate(0 0)"></path>
        <path class="cls-28" d="M25.65,12.36s-.49-1.73-.81-1.9c0,0,0,.2-.27.29A3.51,3.51,0,0,0,23,9.11l.1.48a3.55,3.55,0,0,0-2.58-1.45,3.06,3.06,0,0,1,.39.81s-1.72-.72-2.37-.23c0,0,.49.61.45.75a6.77,6.77,0,0,0-1.7.12c-.09.14.52.53.49.7s-.61.34-1,.61l.48.26-.48.21c-.06,0,.64.84,1,.79,0,0-.12.42-.35.48s.78.37,1.85.38a1,1,0,0,1-.56.54c-.47.24,1.9.2,2.1.2s-.14.55-.32.55a4.87,4.87,0,0,0,2.5-.44.29.29,0,0,1-.18.36,3.24,3.24,0,0,0,1.51-.38,3.68,3.68,0,0,0,1.37-1.49" transform="translate(0 0)"></path>
        <path class="cls-27" d="M26.57,12.93c-.61-.36-1.23-.69-1.87-1a10.83,10.83,0,0,0-2-.64A16.39,16.39,0,0,0,20.62,11a18.7,18.7,0,0,0-2.12-.06,11.56,11.56,0,0,1,2.12,0,11.33,11.33,0,0,1,2.1.32,10.84,10.84,0,0,1,2,.69,15.89,15.89,0,0,1,1.84,1" transform="translate(0 0)"></path>
        <path class="cls-27" d="M24.22,11.72a1.84,1.84,0,0,0-.49-1.52,1.89,1.89,0,0,1,.62,1.53Z" transform="translate(0 0)"></path>
        <path class="cls-27" d="M22.33,13.39a4.28,4.28,0,0,0,1-.77,11.13,11.13,0,0,0,.88-.94l.1.09c-.3.31-.61.61-.93.89a4.32,4.32,0,0,1-1.07.73" transform="translate(0 0)"></path>
        <path class="cls-27" d="M22.51,11.19a2.14,2.14,0,0,1-.41.76,3.84,3.84,0,0,1-.61.6,6.23,6.23,0,0,1-1.46.84,6.29,6.29,0,0,0,1.42-.89,3.3,3.3,0,0,0,.57-.61,2.12,2.12,0,0,0,.36-.72Z" transform="translate(0 0)"></path>
        <path class="cls-27" d="M21.68,9.11a3,3,0,0,1,.83,2.08h-.13a2.89,2.89,0,0,0-.7-2.07" transform="translate(0 0)"></path>
        <path class="cls-27" d="M20.79,10.94a2.08,2.08,0,0,0-.3-1,1.68,1.68,0,0,0-.78-.66,1.62,1.62,0,0,1,.83.63,2.18,2.18,0,0,1,.38,1Z" transform="translate(0 0)"></path>
        <path class="cls-27" d="M18.91,12.46A3.6,3.6,0,0,0,20.8,10.9l.11.07a3.64,3.64,0,0,1-2,1.49" transform="translate(0 0)"></path>
        <path class="cls-27" d="M19.5,10.88a1.54,1.54,0,0,0-.59-.84,1.57,1.57,0,0,1,.71.81Z" transform="translate(0 0)"></path>
        <path class="cls-27" d="M18.37,12A1.84,1.84,0,0,0,19,11.5a3.85,3.85,0,0,0,.47-.67l.12.07a3.72,3.72,0,0,1-.55.64,1.67,1.67,0,0,1-.7.44" transform="translate(0 0)"></path>
        <path class="cls-28" d="M27.11,12.22S25.83,8.5,28.46,7.14l.19.63s.61-1.37,1.44-1.42V6.9s1.08-.85,1.73-.55l-.3.39s1.56-.39,1.73-.2.09.31,0,.6.57,0,.57,0a6.38,6.38,0,0,1-.57,1.24c-.13,0,.27,0,.57,0,0,0-.46,1.58-.75,1.72s.52,0,.52,0a4,4,0,0,1-1.14,1.22s1,.1,1.11.09a4.54,4.54,0,0,1-6.45.71" transform="translate(0 0)"></path>
        <path class="cls-27" d="M26.52,12.89a21,21,0,0,1,2-2.14,8.53,8.53,0,0,1,2.36-1.66v0A3.19,3.19,0,0,1,31.51,8a6.47,6.47,0,0,1,.94-.87,6.45,6.45,0,0,0-.92.89,3.19,3.19,0,0,0-.65,1.09h0a8.59,8.59,0,0,0-2.32,1.69A19.53,19.53,0,0,0,26.63,13Z" transform="translate(0 0)"></path>
        <path class="cls-27" d="M29.11,10.15a5.32,5.32,0,0,1,.51-1.83A3.35,3.35,0,0,1,30.86,6.9h0a3.47,3.47,0,0,0-1.19,1.44,8.25,8.25,0,0,0-.56,1.81Z" transform="translate(0 0)"></path>
        <path class="cls-27" d="M28.26,10.9a8.8,8.8,0,0,0,2,.11,5.62,5.62,0,0,0,1.94-.42,5.9,5.9,0,0,1-1.94.49,9,9,0,0,1-2-.05Z" transform="translate(0 0)"></path>
        <path class="cls-27" d="M29.46,7.14a3.5,3.5,0,0,0-.92,1.8,8.64,8.64,0,0,0-.23,2h-.13a8.82,8.82,0,0,1,.29-2.05,3.58,3.58,0,0,1,1-1.78" transform="translate(0 0)"></path>
        <path class="cls-27" d="M27.47,11.75a9,9,0,0,0,2.19.49A4.29,4.29,0,0,0,31.87,12a4.44,4.44,0,0,1-2.22.36,9.46,9.46,0,0,1-2.23-.43Z" transform="translate(0 0)"></path>
        <path class="cls-27" d="M27.7,8.72a3.47,3.47,0,0,0-.28,1.53,10.21,10.21,0,0,0,.09,1.56h-.13a11.87,11.87,0,0,1,0-1.58,3.6,3.6,0,0,1,.35-1.52" transform="translate(0 0)"></path>
        <path class="cls-27" d="M30,9.58l1.57-.21a8.21,8.21,0,0,0,1.55-.32h0a6.78,6.78,0,0,1-1.54.37A11.92,11.92,0,0,1,30,9.59Z" transform="translate(0 0)"></path>
        <path class="cls-17" d="M28.85,17.65s1.36,1.64,2.46-.14a16.19,16.19,0,0,0,1.42-2.45c0-.15-.3.15-.54.16s0-.15,0-.26a3.8,3.8,0,0,0,.7-2.34s-.6.28-.7.19.31-1.36-.15-2.16a1.76,1.76,0,0,1-.8.31s-.09-1.1-.59-1.37a1.2,1.2,0,0,1-.43.37s.32,0-.85-.49a2.14,2.14,0,0,1-.26.68s-.46-.3-.5-.47-.17.74-.15.91-.63-.13-.63-.13-.35,1.87.26,2.47a3.16,3.16,0,0,1-.71-.46c-.27-.25.17,1.26.32,1.5a2.46,2.46,0,0,1-.7-.07,3.88,3.88,0,0,0,1.05,2,1,1,0,0,1-.6,0s1.2,1.58,1.4,1.78" transform="translate(0 0)"></path>
        <path class="cls-27" d="M29.78,10.7a21.43,21.43,0,0,1,.65,4,13.92,13.92,0,0,1-.29,4,15.89,15.89,0,0,0,.19-4,25.7,25.7,0,0,0-.55-4" transform="translate(0 0)"></path>
        <path class="cls-27" d="M30.47,16.54a1.46,1.46,0,0,0,.74-.21,4.12,4.12,0,0,0,.66-.46,4,4,0,0,1-.63.52,2.58,2.58,0,0,1-.37.19,1.12,1.12,0,0,1-.42.09Z" transform="translate(0 0)"></path>
        <path class="cls-27" d="M27.7,14.68A11.64,11.64,0,0,0,29,15.85a6.71,6.71,0,0,0,.71.47,1.43,1.43,0,0,0,.78.22l0,.13a1.64,1.64,0,0,1-.85-.26,6,6,0,0,1-.7-.51,12.77,12.77,0,0,1-1.22-1.22" transform="translate(0 0)"></path>
        <path class="cls-27" d="M30.45,14.72a3.41,3.41,0,0,0,1.74-1.15,3.55,3.55,0,0,1-1.71,1.28Z" transform="translate(0 0)"></path>
        <path class="cls-27" d="M27.83,13.22A4.59,4.59,0,0,0,29,14.3a2.51,2.51,0,0,0,1.47.42v.13a2.56,2.56,0,0,1-1.52-.5,4.45,4.45,0,0,1-1.12-1.13" transform="translate(0 0)"></path>
        <path class="cls-27" d="M30.36,13.17a2.25,2.25,0,0,0,1-1.18,2.33,2.33,0,0,1-.95,1.3Z" transform="translate(0 0)"></path>
        <path class="cls-27" d="M28.25,11.67a4.11,4.11,0,0,0,.88,1.06,1.63,1.63,0,0,0,1.24.44l0,.13a1.73,1.73,0,0,1-1.3-.52,4,4,0,0,1-.84-1.11" transform="translate(0 0)"></path>
        <path class="cls-27" d="M30.05,11.93a1.44,1.44,0,0,0,.56-1A1.48,1.48,0,0,1,30.13,12Z" transform="translate(0 0)"></path>
        <path class="cls-27" d="M28.85,10.75a3.06,3.06,0,0,0,.49.77,1.07,1.07,0,0,0,.76.39V12a1.14,1.14,0,0,1-.8-.48,3,3,0,0,1-.44-.81" transform="translate(0 0)"></path>
        <path class="cls-17" d="M32.19,19.64s-2.25.18-3,1.65a4.9,4.9,0,0,0,0,3.54s0-.35.63-.55a3.71,3.71,0,0,0,1.38,2.1,3.19,3.19,0,0,1,0-.88c.09-.14.71,1.19,1.52,1.29,0,0-.1-.61,0-.68s.59.76,1.37,1c0,0-.17-.77,0-.89s1.14.52,1.14.52a3.44,3.44,0,0,0,.13-.76c0-.17.61.35.65.5a8.64,8.64,0,0,0-.2-1.76c-.13-.21.69-.18.72,0a2.82,2.82,0,0,0-.56-1.5c-.48-.44.41-.08.56,0s-.36-1-1.4-1.54.71-.2.71-.2a4.94,4.94,0,0,0-3.61-1.84" transform="translate(0 0)"></path>
        <path class="cls-27" d="M31,20.59a3,3,0,0,1,1.78-.23,6.38,6.38,0,0,1,1.7.55,6.41,6.41,0,0,0-1.71-.48,2.79,2.79,0,0,0-1.71.28Z" transform="translate(0 0)"></path>
        <path class="cls-28" d="M32.79,18.75s1-5.21,5.3-5.76c0,0-.2,1,0,1.06s.37-.28.66-.56.62-.59.78-.56c0,0,0,.75.14.83s.71-.6,1.39-.7c0,0-.4.6,0,.88a1.31,1.31,0,0,1,1.39-.58s-.8.69-.3.94a2,2,0,0,0,1,.07,1.25,1.25,0,0,1,.59,0c.23.13-1.49,1.07-.58,1.27a3.16,3.16,0,0,0,1.19,0,1.86,1.86,0,0,1,.91,0s-1.38.65-.9.86a2.86,2.86,0,0,0,1.11.08,1.46,1.46,0,0,1,.49,0c.1.09-1.74,1.6.55,1.21,0,0-7,7.22-13.72,1" transform="translate(0 0)"></path>
        <path class="cls-27" d="M29.52,23.47a4.57,4.57,0,0,1,.38-1.62A2.72,2.72,0,0,1,31,20.59l.06.12A2.58,2.58,0,0,0,30,21.88a4.59,4.59,0,0,0-.44,1.59" transform="translate(0 0)"></path>
        <path class="cls-27" d="M31.94,21.53a2.22,2.22,0,0,1,1.87,0,7.8,7.8,0,0,1,1.64.93,7.32,7.32,0,0,0-1.66-.87,2.13,2.13,0,0,0-1.78,0Z" transform="translate(0 0)"></path>
        <path class="cls-27" d="M30.77,25.09a7,7,0,0,1,.15-1.93,2.55,2.55,0,0,1,1-1.63l.07.12a2.41,2.41,0,0,0-1,1.53,7.22,7.22,0,0,0-.21,1.91" transform="translate(0 0)"></path>
        <path class="cls-27" d="M32.76,22.46a1.64,1.64,0,0,1,1.46.16,6.57,6.57,0,0,1,1.23.85,6.9,6.9,0,0,0-1.25-.79,1.54,1.54,0,0,0-1.38-.1Z" transform="translate(0 0)"></path>
        <path class="cls-27" d="M32,25.16a5.42,5.42,0,0,1,0-1.45,1.73,1.73,0,0,1,.72-1.25l.06.12a1.58,1.58,0,0,0-.71,1.15A4.89,4.89,0,0,0,32,25.16" transform="translate(0 0)"></path>
        <path class="cls-27" d="M33.71,23.84a.71.71,0,0,1,.46.06,3.48,3.48,0,0,1,.38.23,6,6,0,0,1,.64.59,5.66,5.66,0,0,0-.68-.53,1,1,0,0,0-.76-.22Z" transform="translate(0 0)"></path>
        <path class="cls-27" d="M33.4,25.6a4.7,4.7,0,0,1-.09-.92,1.85,1.85,0,0,1,.08-.46.6.6,0,0,1,.32-.38l0,.13c-.26.08-.34.43-.37.72a4,4,0,0,0,0,.91" transform="translate(0 0)"></path>
        <path class="cls-27" d="M30,19.68a24.13,24.13,0,0,1,2.48,2.37,13.87,13.87,0,0,1,1.06,1.34,5.5,5.5,0,0,1,.77,1.53,10,10,0,0,0-1.9-2.81c-.75-.86-1.58-1.65-2.41-2.43" transform="translate(0 0)"></path>
        <path class="cls-29" d="M39,9.05l.8.26a1.34,1.34,0,0,1-.27.54c-.1.06.2.19.2.19s-.64.86-.82.89c0,0,.21.19.32.14a3.3,3.3,0,0,1-.88.6c-.25.05.21.15.21.15a3.3,3.3,0,0,1-1.43.34C36.52,12.11,39,9.05,39,9.05" transform="translate(0 0)"></path>
        <path class="cls-17" d="M36.45,12.22a3.58,3.58,0,0,1,2.87-3.79,1.66,1.66,0,0,0,0,.52h.27a2.08,2.08,0,0,1-.41,1c-.2.17.3.1.3.1a3.38,3.38,0,0,1-1,1s.3.11.39.06a4.2,4.2,0,0,1-1.1.69c-.31,0,.21.16.21.16s-1.1.48-1.57.24" transform="translate(0 0)"></path>
        <path class="cls-26" d="M36.35,11.75s.23.23,1.07-1.31l-.23.05s.72-1.18.52-1.53l-.2.06A1.74,1.74,0,0,0,37,7.62c-.13-.13-.12.14-.12.14a4,4,0,0,1-.53-.44l-.1.12a2.3,2.3,0,0,0-.32-.27s-.07.51.07.58l.16-.19a1.26,1.26,0,0,1,.1,1s.21.17.32.13,0,.81-.15,1,.32.41.32.41a4.13,4.13,0,0,1-.35,1.73" transform="translate(0 0)"></path>
        <path class="cls-27" d="M36.53,11.12c.08-.08.13-.06.19-.1l.17-.09a1.1,1.1,0,0,0,.28-.25,1.43,1.43,0,0,1-.27.28l-.16.1-.15.08Z" transform="translate(0 0)"></path>
        <path class="cls-27" d="M36.53,10.13a1.06,1.06,0,0,0,.49-.3,2.38,2.38,0,0,0,.39-.45,3.34,3.34,0,0,1-.36.48,1.32,1.32,0,0,1-.51.33Z" transform="translate(0 0)"></path>
        <path class="cls-27" d="M36.34,9.19A1.76,1.76,0,0,0,37,8.11a1.78,1.78,0,0,1-.64,1.13Z" transform="translate(0 0)"></path>
        <path class="cls-27" d="M36.07,8.27a3.2,3.2,0,0,0,.29-.62,2.07,2.07,0,0,1-.1.33c0,.11-.09.21-.15.33Z" transform="translate(0 0)"></path>
        <path class="cls-29" d="M36.35,11.75a3.78,3.78,0,0,1-.47-4.58,1.38,1.38,0,0,0,.07.58l.16-.19a1.1,1.1,0,0,1,.1,1,.53.53,0,0,0,.35.11,1.84,1.84,0,0,1-.21,1.07,1.54,1.54,0,0,0,.35.32,3.57,3.57,0,0,1-.35,1.73" transform="translate(0 0)"></path>
        <path class="cls-26" d="M36.16,12.39s.36,0,0-1.83l-.16.19s-.21-1.47-.62-1.63l-.13.19a1.83,1.83,0,0,0-1.43-.78c-.19,0,0,.19,0,.19a4.64,4.64,0,0,1-.75,0v.17a2.22,2.22,0,0,0-.46,0s.29.47.46.44V9.05a1.4,1.4,0,0,1,.75.74s.29,0,.36-.11.57.67.53.91.56.11.56.11a4.48,4.48,0,0,1,.89,1.69" transform="translate(0 0)"></path>
        <path class="cls-27" d="M35.89,11.74c0-.12.06-.14.08-.21a.77.77,0,0,0,.08-.19,1.4,1.4,0,0,0,.06-.41,1.49,1.49,0,0,1,0,.42.76.76,0,0,1-.06.2l-.08.16Z" transform="translate(0 0)"></path>
        <path class="cls-27" d="M35.19,10.91a1.21,1.21,0,0,0,.22-.59,2.29,2.29,0,0,0,0-.64,2.35,2.35,0,0,1,0,.65,1.26,1.26,0,0,1-.2.63Z" transform="translate(0 0)"></path>
        <path class="cls-27" d="M34.39,10.26a1.93,1.93,0,0,0-.18-1.37,2,2,0,0,1,.24,1.39Z" transform="translate(0 0)"></path>
        <path class="cls-27" d="M33.53,9.68c0-.12-.05-.25-.07-.37A2.47,2.47,0,0,0,33.35,9a2.13,2.13,0,0,1,.14.35c0,.13.07.24.1.38Z" transform="translate(0 0)"></path>
        <path class="cls-17" d="M36.16,12.39a4.1,4.1,0,0,1-3.55-3.5s.26.36.46.43V9.05c.14.07.42.09.75.74a.58.58,0,0,0,.37-.15,2,2,0,0,1,.56,1,1.92,1.92,0,0,0,.52,0,4,4,0,0,1,.89,1.69" transform="translate(0 0)"></path>
        <path class="cls-27" d="M34.67,18.07a7.1,7.1,0,0,1,1.65-3.14,7.17,7.17,0,0,0-1.53,3.16Z" transform="translate(0 0)"></path>
        <path class="cls-27" d="M35.85,18.93a11.86,11.86,0,0,1,1-2.45,6,6,0,0,1,1.69-2,6,6,0,0,0-1.63,2A11.51,11.51,0,0,0,36,19Z" transform="translate(0 0)"></path>
        <path class="cls-27" d="M37.25,18.58a8.66,8.66,0,0,1,1.22-2.13,7.68,7.68,0,0,1,1.79-1.67,8.15,8.15,0,0,0-2.89,3.84Z" transform="translate(0 0)"></path>
        <path class="cls-27" d="M38.53,19.07a10.45,10.45,0,0,1,1.62-2.22,16.76,16.76,0,0,1,2-1.85,16.74,16.74,0,0,0-2,1.9,10,10,0,0,0-1.55,2.23l-.12-.06" transform="translate(0 0)"></path>
        <path class="cls-27" d="M40.42,19.19a19.1,19.1,0,0,0,2.37-2.55,21.26,21.26,0,0,1-2.28,2.65Z" transform="translate(0 0)"></path>
        <path class="cls-27" d="M42.37,18.88a6.54,6.54,0,0,0,1.89-1.37A6.8,6.8,0,0,1,42.43,19Z" transform="translate(0 0)"></path>
        <path class="cls-19" d="M39.81,12.66s-1.51.8-1.51,1.39-.22,1.17,1.28,2.27,3.17-1.39,3.2-1.6a1.93,1.93,0,0,0-1.4-2.09c-1.26-.38-1.08-.2-1.08-.2l-.49.23" transform="translate(0 0)"></path>
        <path class="cls-20" d="M40.47,16.5c-.11,0,2.1-1.48,1.42-2.93-.1-.21-.09-.34,0-.34a.19.19,0,0,1,.12.07s1.55,1.26-.78,2.82a5.16,5.16,0,0,1-.75.38h0" transform="translate(0 0)"></path>
        <polyline class="cls-22" points="42.43 13.36 42.43 13.36 42.43 13.35 42.43 13.36"></polyline>
        <path class="cls-21" d="M41,12.52a3.5,3.5,0,0,0-.47-.11l.11,0a2,2,0,0,1,.32.06l0,.07" transform="translate(0 0)"></path>
        <path class="cls-22" d="M41.72,12.77l-.34-.14-.29-.08-.05,0,0,0-.09,0,0-.07h0a3.7,3.7,0,0,1,.74.3h0" transform="translate(0 0)"></path>
        <path class="cls-21" d="M41.8,12.8l-.08,0h0l.08,0" transform="translate(0 0)"></path>
        <path class="cls-23" d="M42.43,13.36a4.7,4.7,0,0,0-.68-.4,5.13,5.13,0,0,1-.66-.41l.29.08a1.73,1.73,0,0,1,.34.14l.08,0a2.68,2.68,0,0,1,.63.55h0m-2,.28a2.11,2.11,0,0,1-.17-.74c0-.18.17-.46.14-.47l.11,0a3.5,3.5,0,0,1,.47.11l.09,0a2.34,2.34,0,0,1,.64,1,2.81,2.81,0,0,0-.46-.47c-.13-.1-.41-.56-.5-.56h0s0,.09,0,.36a4.39,4.39,0,0,1-.28.76h0" transform="translate(0 0)"></path>
        <path class="cls-21" d="M39.27,13a2.83,2.83,0,0,1,.9-.5l-.36.17a5.68,5.68,0,0,0-.54.33" transform="translate(0 0)"></path>
        <path class="cls-23" d="M40.38,12.43h0M39.21,13.6a7.48,7.48,0,0,1,.56-.8l-.24.13-.71.44h0c.08-.06.23-.21.45-.38a5.68,5.68,0,0,1,.54-.33l.36-.17.21-.06a2.94,2.94,0,0,0-.53.56c-.17.24-.44.31-.64.61" transform="translate(0 0)"></path>
        <path class="cls-24" d="M41.12,14.82c0,.07,0,.14-.06.14s-.05-.07-.05-.14,0-.14.05-.14.06.06.06.14" transform="translate(0 0)"></path>
        <path class="cls-24" d="M41,13.94c0,.08,0,.14-.06.14s0-.06,0-.14,0-.14,0-.14.06.07.06.14" transform="translate(0 0)"></path>
        <path class="cls-24" d="M41.82,14.75c0,.08,0,.14,0,.14s-.06-.06-.06-.14,0-.14.06-.14,0,.06,0,.14" transform="translate(0 0)"></path>
        <path class="cls-24" d="M41.82,13.9c0,.08,0,.15,0,.15s-.06-.07-.06-.15,0-.14.06-.14,0,.07,0,.14" transform="translate(0 0)"></path>
        <path class="cls-24" d="M41.42,15.16c0,.08,0,.14-.06.14s0-.06,0-.14,0-.14,0-.14.06.07.06.14" transform="translate(0 0)"></path>
        <path class="cls-24" d="M41.47,14.37c0,.08,0,.14,0,.14s-.06-.06-.06-.14,0-.14.06-.14,0,.06,0,.14" transform="translate(0 0)"></path>
        <path class="cls-24" d="M40.65,15.13c0,.07,0,.14,0,.14s-.06-.07-.06-.14,0-.14.06-.14,0,.06,0,.14" transform="translate(0 0)"></path>
        <path class="cls-24" d="M40.65,14.37c0,.08,0,.14,0,.14s-.06-.06-.06-.14,0-.14.06-.14,0,.06,0,.14" transform="translate(0 0)"></path>
        <path class="cls-24" d="M40.26,14.78c0,.08,0,.15,0,.15s-.06-.07-.06-.15,0-.14.06-.14,0,.07,0,.14" transform="translate(0 0)"></path>
        <path class="cls-24" d="M40.15,13.9c0,.08,0,.15,0,.15S40,14,40,13.9s0-.14.06-.14,0,.07,0,.14" transform="translate(0 0)"></path>
        <path class="cls-24" d="M40,15.2c0,.08,0,.14-.06.14s0-.06,0-.14,0-.14,0-.14.06.06.06.14" transform="translate(0 0)"></path>
        <path class="cls-24" d="M39.66,14.75c0,.08,0,.14,0,.14s0-.06,0-.14,0-.14,0-.14,0,.06,0,.14" transform="translate(0 0)"></path>
        <path class="cls-24" d="M39.44,14c0,.07,0,.14,0,.15s-.06,0-.08-.13,0-.14,0-.15.07.05.08.13" transform="translate(0 0)"></path>
        <path class="cls-24" d="M39.31,15.1c0,.07,0,.14,0,.15s-.08,0-.11-.1,0-.14,0-.15.07,0,.11.1" transform="translate(0 0)"></path>
        <path class="cls-24" d="M39.23,14.56c0,.07,0,.14,0,.15s-.07,0-.11-.1,0-.14,0-.15.07,0,.11.1" transform="translate(0 0)"></path>
        <path class="cls-24" d="M38.79,14c0,.07,0,.13,0,.15s-.08,0-.11-.11,0-.13,0-.15.07,0,.11.11" transform="translate(0 0)"></path>
        <path class="cls-24" d="M42.16,15.15c0,.07-.08.12-.11.1s0-.07,0-.15.08-.12.11-.1,0,.08,0,.15" transform="translate(0 0)"></path>
        <path class="cls-24" d="M42.23,14.34c0,.07-.07.12-.1.11s0-.08,0-.15.07-.13.1-.11,0,.07,0,.15" transform="translate(0 0)"></path>
        <path class="cls-24" d="M42.62,14.7c0,.07-.08.12-.1.1s0-.07,0-.15.08-.12.11-.1,0,.08,0,.15" transform="translate(0 0)"></path>
        <path class="cls-24" d="M42.51,13.79c0,.08,0,.15,0,.15s-.07,0-.08-.13,0-.14,0-.15.06.06.07.13" transform="translate(0 0)"></path>
        <path class="cls-24" d="M38.9,15c0,.07,0,.13,0,.15s-.07,0-.11-.11,0-.13,0-.15.08,0,.11.11" transform="translate(0 0)"></path>
        <path class="cls-24" d="M38.64,14.59c0,.07,0,.13,0,.15s-.07,0-.11-.11,0-.13,0-.15.08,0,.11.11" transform="translate(0 0)"></path>
        <path class="cls-17" d="M40.62,12.3a3.73,3.73,0,0,1,1.81.87l-.68-.3c-.23-.1-.62-.25-.66-.29a1.43,1.43,0,0,1,.62.88,3.79,3.79,0,0,0-.46-.48c-.13-.1-.43-.5-.51-.47s0-.16,0,.27a6.14,6.14,0,0,1-.28,1,4,4,0,0,1-.18-.91c0-.18.1-.33.07-.34s-.26.24-.48.42a2.86,2.86,0,0,0-.64.62,6.44,6.44,0,0,1,.56-.8l-.24.12c-.24.16-.76.47-.71.44a3.43,3.43,0,0,1,1.8-1" transform="translate(0 0)"></path>
        <path class="cls-25" d="M42.18,13.9s-.09-.18-.17-.3-.19-.27-.13-.31.22.09.3.21a.38.38,0,0,1,0,.4" transform="translate(0 0)"></path>
        <path class="cls-17" d="M32.74,18.94A5.84,5.84,0,0,1,36,17.71s-.29.87-.09.89a11.59,11.59,0,0,1,2.94-.52,2.26,2.26,0,0,0-.26.78c0,.19,1.59-.66,2.45-.6,0,0-.51.81-.11.84s1.09-.75,1.94-.77c0,0-.48.88-.08.91s1.59-.8,2.1-.91c0,0-.43.45-.2.61S46,18.25,46,18.25s-6.74,6.4-13.27.69" transform="translate(0 0)"></path>
        <path class="cls-27" d="M33.27,19.38a6.41,6.41,0,0,0,1-.43,9.09,9.09,0,0,0,.95-.56,3.65,3.65,0,0,1-.89.67,3.09,3.09,0,0,1-1.06.32" transform="translate(0 0)"></path>
        <path class="cls-27" d="M35,20.36a8.77,8.77,0,0,0,1.43-.54,3.57,3.57,0,0,0,1.23-.88,2.92,2.92,0,0,1-1.17,1,5.18,5.18,0,0,1-1.49.42" transform="translate(0 0)"></path>
        <path class="cls-27" d="M36.33,21a14.37,14.37,0,0,0,1.92-.74,6.07,6.07,0,0,0,.91-.48,4.08,4.08,0,0,0,.78-.66,4,4,0,0,1-1.63,1.26,8.75,8.75,0,0,1-2,.62" transform="translate(0 0)"></path>
        <path class="cls-27" d="M39,21.3a9.94,9.94,0,0,0,1.65-.86,6.19,6.19,0,0,0,1.41-1.2,4.49,4.49,0,0,1-1.34,1.3A6.59,6.59,0,0,1,39,21.3" transform="translate(0 0)"></path>
        <path class="cls-26" d="M36.22,11.75a5.48,5.48,0,0,1-1.71,3.78,14.6,14.6,0,0,1-3.07,2.3c-1.81,1.1-3.43,1.7-5.17,3A25.39,25.39,0,0,0,22,24.87c-1.7,2-2.32,3.12-2.32,4.78,0,.22,0,.45,0,.7l.26,0c0-.23,0-.46,0-.67,0-1.58.56-2.57,2.26-4.61a24.52,24.52,0,0,1,4.28-4,59,59,0,0,1,5.15-3,14.82,14.82,0,0,0,3.12-2.34,5.77,5.77,0,0,0,1.78-4Z" transform="translate(0 0)"></path>
        <path class="cls-26" d="M32.86,18.66c-.58.22-1.24.24-1.88.47A21.57,21.57,0,0,0,23.4,24c-2,2.05-3.47,4.32-3.74,6.3l.26,0c.25-1.88,1.64-4.12,3.66-6.14a21.4,21.4,0,0,1,7.49-4.84c.58-.21,1.25-.23,1.88-.46Z" transform="translate(0 0)"></path>
        <path class="cls-26" d="M19.91,18.44a10.81,10.81,0,0,1,.72,3.89,8.78,8.78,0,0,1-.43,2.83,14.54,14.54,0,0,1-.68,1.62,2.83,2.83,0,0,0-.31,1.29,21.09,21.09,0,0,0,.42,2.19v0l.26,0h0c0-.6-.43-1.32-.42-2.19a2.56,2.56,0,0,1,.28-1.17,14,14,0,0,0,.69-1.65,8.87,8.87,0,0,0,.45-2.92,11.08,11.08,0,0,0-.73-4Z" transform="translate(0 0)"></path>
        <path class="cls-26" d="M10.29,22.38a2.11,2.11,0,0,1,1-.22,2.28,2.28,0,0,1,1.62.66c.2.2.37.45.6.68a6.49,6.49,0,0,0,1.3.83,7.08,7.08,0,0,1,1.73,1.35,18.69,18.69,0,0,1,3.14,4.64l.24-.1a18.68,18.68,0,0,0-3.19-4.72,7.59,7.59,0,0,0-1.79-1.4,5.79,5.79,0,0,1-1.25-.79c-.2-.2-.37-.45-.6-.67a2.54,2.54,0,0,0-1.8-.74,2.46,2.46,0,0,0-1.07.24Z" transform="translate(0 0)"></path>
        <path class="cls-26" d="M10.8,25.32c.84-.42,1.73-1.29,2.6-1.28h0a2.71,2.71,0,0,1,.86.1,7.08,7.08,0,0,1,.82.38l.35.2.11.06,0,0h.05l0,0,0-.05,0,0-.25-.18-.07.1.18.14,0,0h0l0,0h-.06l0,0,0,0h0l0,0,0,0h.07l0,0,0,0v-.06h0l0,0v0l0-.05h0v.05l0-.05-.53-.29a7.14,7.14,0,0,0-.81-.38,2.74,2.74,0,0,0-.9-.1h0c-1,0-1.84.89-2.65,1.29Z" transform="translate(0 0)"></path>
        <path class="cls-26" d="M13.85,25.56a1.41,1.41,0,0,1-.22-.74.32.32,0,0,1,0-.17.67.67,0,0,1,.51-.27h.05a2.18,2.18,0,0,1,.7.21l.71.31.1-.25L15,24.33a2.48,2.48,0,0,0-.8-.22h-.09a.92.92,0,0,0-.7.4.6.6,0,0,0-.06.3,1.58,1.58,0,0,0,.28.9Z" transform="translate(0 0)"></path>
        <path class="cls-26" d="M13.16,23.91A2.18,2.18,0,0,0,12,24.8a1.89,1.89,0,0,0-.29,1,2.4,2.4,0,0,0,.19.91,2.48,2.48,0,0,1,.19.53h.13a2.86,2.86,0,0,0-.2-.58,2.43,2.43,0,0,1-.18-.86,1.93,1.93,0,0,1,.27-1A2.14,2.14,0,0,1,13.18,24Z" transform="translate(0 0)"></path>
        <path class="cls-26" d="M45.7,10.64c-.22-.76-1.11-1.13-1.79-1.31a3.31,3.31,0,0,0-.83-.1,6,6,0,0,0-2.8.84,10.88,10.88,0,0,0-2,1.63c-1.71,1.59-3.65,4.18-5.6,5.34l.13.23c2-1.22,4-3.82,5.65-5.38a10.07,10.07,0,0,1,1.95-1.59,5.66,5.66,0,0,1,2.67-.81,2.73,2.73,0,0,1,.76.1c.66.16,1.46.54,1.61,1.12Z" transform="translate(0 0)"></path>
        <path class="cls-26" d="M38,12.32a3.49,3.49,0,0,1,1.74-.71.72.72,0,0,1,.51.17.88.88,0,0,1,.23.62l.26,0a1.09,1.09,0,0,0-.32-.79,1,1,0,0,0-.68-.24,3.76,3.76,0,0,0-1.9.76Z" transform="translate(0 0)"></path>
        <path class="cls-26" d="M39.84,10.67a3.57,3.57,0,0,1,.8-.31,4.7,4.7,0,0,1,1-.15,1,1,0,0,1,.57.13.67.67,0,0,1,.32.51l.26,0a1,1,0,0,0-.44-.69,1.29,1.29,0,0,0-.71-.17,4.82,4.82,0,0,0-1,.15,4,4,0,0,0-.89.35Z" transform="translate(0 0)"></path>
        <path class="cls-26" d="M19.92,30.36a4.68,4.68,0,0,1,3.83-3.73,10.38,10.38,0,0,1,1.92-.17,13.08,13.08,0,0,1,3,.38,31.26,31.26,0,0,1,4.78,1.77,24.8,24.8,0,0,0,9.3,2.32,12.18,12.18,0,0,0,3-.37l-.07-.25a12,12,0,0,1-3,.36,24.51,24.51,0,0,1-9.2-2.3,31.26,31.26,0,0,0-4.82-1.78,13,13,0,0,0-3.08-.39,11,11,0,0,0-2,.18,4.93,4.93,0,0,0-4,3.93Z" transform="translate(0 0)"></path>
        <path class="cls-17" d="M8.15,12.43a3.25,3.25,0,0,0,1.52,2.26,2.21,2.21,0,0,0,.6.17,2.17,2.17,0,0,0,1.63-.32,6.12,6.12,0,0,0,1.87-2l-.63.17a5,5,0,0,0,.93-2s-.67.15-.87.17c0,0,.79-1.19.72-1.67a5.89,5.89,0,0,1-.76.24,2,2,0,0,0,.52-1.28,2.55,2.55,0,0,1-.61.28,5.61,5.61,0,0,0,0-1.19s-.37.19-.5.28a2.43,2.43,0,0,0-.07-.65,5,5,0,0,1-.58.63s-.31-.13-.29-.35c0,0-.52.28-.45.76a.42.42,0,0,1-.54-.39s-.81.94-.66,1.61a.61.61,0,0,1-.58-.33,3.27,3.27,0,0,0-.17,1.74s-.57.11-.68-.2a3.9,3.9,0,0,0,.2,2.19.5.5,0,0,1-.63-.13" transform="translate(0 0)"></path>
        <path class="cls-27" d="M13.25,11.37a5.9,5.9,0,0,1-1.43,1.25,3.14,3.14,0,0,1-1.82.49V13a3,3,0,0,0,1.78-.42,5.77,5.77,0,0,0,1.46-1.19" transform="translate(0 0)"></path>
        <path class="cls-27" d="M10.11,15.87a5.18,5.18,0,0,1-.28-2,9.86,9.86,0,0,1,.47-2,14.35,14.35,0,0,1,.79-1.9,15,15,0,0,1,1-1.8,31.09,31.09,0,0,0-1.68,3.73,9.13,9.13,0,0,0-.5,2,5.11,5.11,0,0,0,.21,2" transform="translate(0 0)"></path>
        <path class="cls-27" d="M12.82,13.06a3.36,3.36,0,0,1-1.32,1,2.85,2.85,0,0,1-.81.21,3.29,3.29,0,0,1-.83-.06h0a3.21,3.21,0,0,0,.82,0,3.19,3.19,0,0,0,.8-.18,3.37,3.37,0,0,0,1.33-.94Z" transform="translate(0 0)"></path>
        <path class="cls-27" d="M8.8,13.06a4.56,4.56,0,0,0,1.06,1.13,2.86,2.86,0,0,1-.62-.48,1.92,1.92,0,0,1-.44-.65" transform="translate(0 0)"></path>
        <path class="cls-27" d="M9,11.5a3.58,3.58,0,0,0,.32.9A1,1,0,0,0,10,13l0,.12a1.09,1.09,0,0,1-.69-.68A3.79,3.79,0,0,1,9,11.5" transform="translate(0 0)"></path>
        <path class="cls-27" d="M10.48,11.44a2.72,2.72,0,0,0,2.44-1.15,2.88,2.88,0,0,1-1,1,2.75,2.75,0,0,1-1.4.33Z" transform="translate(0 0)"></path>
        <path class="cls-27" d="M9.52,10a3.31,3.31,0,0,0,.3.92.86.86,0,0,0,.66.56v.13a1,1,0,0,1-.72-.66A3.58,3.58,0,0,1,9.52,10" transform="translate(0 0)"></path>
        <path class="cls-27" d="M10.8,10.58a4.34,4.34,0,0,1-.16-2.2,4.25,4.25,0,0,0,.28,2.15Z" transform="translate(0 0)"></path>
        <path class="cls-27" d="M12.92,9.11a1.7,1.7,0,0,1-.81,1,4,4,0,0,1-1.23.5l0-.13a3.92,3.92,0,0,0,1.22-.42,1.67,1.67,0,0,0,.85-1" transform="translate(0 0)"></path>
        <path class="cls-27" d="M11.49,9.16a1.22,1.22,0,0,0,.71-.3,1.69,1.69,0,0,0,.48-.64,1.56,1.56,0,0,1-1.18,1Z" transform="translate(0 0)"></path>
        <path class="cls-27" d="M11.27,8.14a1.07,1.07,0,0,0,.25,1l-.06.08a.75.75,0,0,1-.24-.54,1.56,1.56,0,0,1,0-.57" transform="translate(0 0)"></path>
        <path class="cls-17" d="M4.79,16s2.36.09,3-1a1,1,0,0,0,.13-.37,5.82,5.82,0,0,0,0-2.27s-.11.43-.27.51a4.19,4.19,0,0,0-.88-2.38s-.11.56-.35.67A2.65,2.65,0,0,0,4.79,9s.21.73,0,.84A4.81,4.81,0,0,0,2.7,8.38a2.87,2.87,0,0,1,.18.83,11.37,11.37,0,0,0-1.33-.64,4.76,4.76,0,0,1-.25.9S.52,9.33.44,9.34s.21.49.24.62L0,10s1,1.63,1.53,1.87L.24,12.2h0a25.72,25.72,0,0,0,2,1.61s-1.13.36-1.27.37S1.81,15.8,4.79,16" transform="translate(0 0)"></path>
        <path class="cls-27" d="M1.32,10.2a20.47,20.47,0,0,0,2.86,3,12.12,12.12,0,0,0,1.69,1.17,6.06,6.06,0,0,0,1.89.74v0a5.74,5.74,0,0,1-2-.65,9.5,9.5,0,0,1-1.68-1.2,18.71,18.71,0,0,1-2.81-3Z" transform="translate(0 0)"></path>
        <path class="cls-27" d="M5.39,10.46a5.87,5.87,0,0,1,0,1.45A4.05,4.05,0,0,1,5,13.31a2.17,2.17,0,0,1-1,1,2.5,2.5,0,0,1-1.43.11A3,3,0,0,0,4,14.23a2.05,2.05,0,0,0,1-1,3.72,3.72,0,0,0,.41-1.35,8.59,8.59,0,0,0,.06-1.44" transform="translate(0 0)"></path>
        <path class="cls-27" d="M6.87,11.82a5.18,5.18,0,0,1-.34,2.39,2.42,2.42,0,0,1-.75,1,1.92,1.92,0,0,1-1.16.31,2.27,2.27,0,0,0,1.11-.38,2.23,2.23,0,0,0,.68-.95A4.06,4.06,0,0,0,6.75,13a9.4,9.4,0,0,0,.12-1.19" transform="translate(0 0)"></path>
        <path class="cls-27" d="M4,10.29a4.39,4.39,0,0,1,.11,1.09,2.56,2.56,0,0,1-.23,1.08,1.09,1.09,0,0,1-.89.62,1.75,1.75,0,0,1-.56,0c-.18-.05-.34-.13-.52-.19A2.8,2.8,0,0,0,3,13a1,1,0,0,0,.8-.6,2.56,2.56,0,0,0,.25-1,7.79,7.79,0,0,0,0-1.08" transform="translate(0 0)"></path>
        <path class="cls-27" d="M2.55,11.6h0l0-.06,0-.14a1.23,1.23,0,0,0,0-.27,1.78,1.78,0,0,0-.06-.56,2.06,2.06,0,0,0-.53-1,2.1,2.1,0,0,1,.6,1,2.62,2.62,0,0,1,.09.56,1.5,1.5,0,0,1,0,.3l0,.14,0,.08s0,0-.09.1Z" transform="translate(0 0)"></path>
        <path class="cls-27" d="M.83,10.9a2,2,0,0,0,1.72.7v.13A2.08,2.08,0,0,1,.83,10.9" transform="translate(0 0)"></path>
        <path class="cls-17" d="M10,18s.11-2.49-3.13-1.76l.29.3a4.06,4.06,0,0,0-1.74.45l.6.18c0,.05-1.74.88-2,1.71l.91.08a2.92,2.92,0,0,0-1,2.13s.39-.26.5-.21-.6,1.35-.16,1.92c0,0,.25-.45.49-.49,0,0,0,.8.1,1,0,0,.18-.6.37-.63,0,0,.21.33.13.52,0,0,.93-.57,1.09-1.15,0,0,.21.43.13.63,0,0,1.38-1.2,1.45-1.53,0,0,.22.34.16.49s1.35-.88,1.18-1.65c0,0,.26.2.19.39A10.24,10.24,0,0,0,10,18" transform="translate(0 0)"></path>
        <path class="cls-27" d="M4.59,21.68c.29-.62.6-1.23.94-1.82A8.49,8.49,0,0,1,6.7,18.19a6.36,6.36,0,0,1,1.55-1.33A5.77,5.77,0,0,1,10.11,16a6.31,6.31,0,0,0-1.83.88,6.21,6.21,0,0,0-1.51,1.34A9.17,9.17,0,0,0,5.59,19.9c-.35.58-.67,1.18-1,1.78" transform="translate(0 0)"></path>
        <path class="cls-27" d="M7.69,17.33A3.63,3.63,0,0,0,6.12,17a3.6,3.6,0,0,1,1.62.22Z" transform="translate(0 0)"></path>
        <path class="cls-27" d="M8.37,20.46a13.27,13.27,0,0,0-.13-1.67A5.8,5.8,0,0,0,8.08,18a1.12,1.12,0,0,0-.39-.65l0-.12a1.18,1.18,0,0,1,.43.75,5.75,5.75,0,0,1,.14.83,15.44,15.44,0,0,1,.06,1.67" transform="translate(0 0)"></path>
        <path class="cls-27" d="M6.36,18.49a9.11,9.11,0,0,0-1.28-.14,8.06,8.06,0,0,1,1.3,0Z" transform="translate(0 0)"></path>
        <path class="cls-27" d="M6.77,21.89a13.55,13.55,0,0,0,.07-1.8,4.41,4.41,0,0,0-.1-.89,1,1,0,0,0-.39-.71l.05-.12a1.16,1.16,0,0,1,.44.82,6.82,6.82,0,0,1,.07.9,12.13,12.13,0,0,1-.14,1.8" transform="translate(0 0)"></path>
        <path class="cls-27" d="M5.82,19.53a.65.65,0,0,0-.33,0,1.33,1.33,0,0,0-.32.15,3.51,3.51,0,0,0-.55.47,2.84,2.84,0,0,1,.52-.52,1.13,1.13,0,0,1,.32-.19.72.72,0,0,1,.39-.07Z" transform="translate(0 0)"></path>
        <path class="cls-27" d="M6.07,20.91a3.22,3.22,0,0,0,0-.76c0-.24-.09-.52-.28-.62l.07-.12a.56.56,0,0,1,.22.35,1.76,1.76,0,0,1,.06.39,3.84,3.84,0,0,1-.08.76" transform="translate(0 0)"></path>
        <path class="cls-26" d="M25.76,8.76a14.37,14.37,0,0,1,.68,4.57c0,.4,0,.8,0,1.18a9.64,9.64,0,0,1-1.55,4.88c-.15.22-1.36,1.88-2.57,3.71a20.05,20.05,0,0,0-2.63,4.8,7.77,7.77,0,0,0-.17,1.35,4.43,4.43,0,0,0,.15,1.05l.25-.06a4.13,4.13,0,0,1-.14-1,6.66,6.66,0,0,1,.17-1.3,20.2,20.2,0,0,1,2.59-4.71c1.2-1.83,2.4-3.47,2.56-3.7a9.93,9.93,0,0,0,1.6-5c0-.38,0-.78,0-1.19A14.4,14.4,0,0,0,26,8.68Z" transform="translate(0 0)"></path>
        <path class="cls-28" d="M26.27,9.21s.94-.18,1.79-2a1.16,1.16,0,0,1-.47,0,2.72,2.72,0,0,0,.79-2.54,2.63,2.63,0,0,1-.4.37A8.25,8.25,0,0,0,27.9,3.3s-.31.49-.54.59c0,0-.05-1.77-.29-2,0,0-.43.65-.56.67s.12-1.26-.36-1.6a5.75,5.75,0,0,1-.5.88C25.52,2,25.6.6,25.08.26a3,3,0,0,1-.33.7s-.29-.89-.46-1c0,0-.13.49-.28.59a2.32,2.32,0,0,0-.7-.59,3.58,3.58,0,0,1-.25.78,3.8,3.8,0,0,0-1-.58s.15.78.14.89.13.24-.23.2l-.73-.09s.37.75.44.88L20.86,2a5,5,0,0,0,.74,1.2c.39.38-.12.25-.17.25a2.73,2.73,0,0,1-.87-.33c0-.11.68,1.22.68,1.22a1.18,1.18,0,0,1-.69,0c-.26-.13.35.74.41.84l.51.72s.18.21.06.21-.73-.24-.67-.13S22,7.06,21.94,7.18s-.81,0-.7.13a11.94,11.94,0,0,0,1.63,1.37,7.16,7.16,0,0,0,2.26.63c1.17.06,1.14-.1,1.14-.1" transform="translate(0 0)"></path>
        <path class="cls-27" d="M23,1.87a11.8,11.8,0,0,1,1,1.74c.29.6.55,1.21.8,1.83s.46,1.25.68,1.87.41,1.26.59,1.9c-.46-1.24-.88-2.5-1.39-3.72-.23-.62-.48-1.23-.75-1.84s-.56-1.2-.89-1.78" transform="translate(0 0)"></path>
        <path class="cls-27" d="M25.88,8.78a15.13,15.13,0,0,1-3.13-.64,15.25,15.25,0,0,0,3.13.51Z" transform="translate(0 0)"></path>
        <path class="cls-27" d="M27.83,6.35a8.28,8.28,0,0,1-1.91,2.42l-.08-.1a8.21,8.21,0,0,0,2-2.32" transform="translate(0 0)"></path>
        <path class="cls-27" d="M25.48,7.6a11.46,11.46,0,0,1-1.76-.24,5.46,5.46,0,0,1-1.66-.62,5.49,5.49,0,0,0,1.67.56,11.52,11.52,0,0,0,1.75.17Z" transform="translate(0 0)"></path>
        <path class="cls-27" d="M27.11,5.54a3,3,0,0,1-.67,1.11,10.09,10.09,0,0,1-.92.93l-.08-.1a11.13,11.13,0,0,0,.95-.87,3,3,0,0,0,.72-1.07" transform="translate(0 0)"></path>
        <path class="cls-27" d="M25.12,6.6a7.72,7.72,0,0,1-1.84-.44,4.33,4.33,0,0,1-1.6-1,4.43,4.43,0,0,0,1.62.92,7.62,7.62,0,0,0,1.83.37Z" transform="translate(0 0)"></path>
        <path class="cls-27" d="M26.46,4.3a4.31,4.31,0,0,1-1.3,2.29l-.08-.1A4.34,4.34,0,0,0,26.46,4.3" transform="translate(0 0)"></path>
        <path class="cls-27" d="M24.75,5.61a4.5,4.5,0,0,1-3.07-1.44,4.47,4.47,0,0,0,3.06,1.31Z" transform="translate(0 0)"></path>
        <path class="cls-27" d="M26,2.8a2.86,2.86,0,0,1-.34,1.51,6,6,0,0,1-.91,1.28L24.7,5.5a6.2,6.2,0,0,0,.94-1.22A2.86,2.86,0,0,0,26,2.8" transform="translate(0 0)"></path>
        <path class="cls-27" d="M24.22,4.36a6.34,6.34,0,0,1-1.33-.59,2.8,2.8,0,0,1-1.05-1,2.83,2.83,0,0,0,1.08.92,6.3,6.3,0,0,0,1.33.51Z" transform="translate(0 0)"></path>
        <path class="cls-27" d="M24.84,1.66A6.39,6.39,0,0,1,24.77,3a3,3,0,0,1-.49,1.3l-.1-.09A3,3,0,0,0,24.71,3a6.82,6.82,0,0,0,.13-1.36" transform="translate(0 0)"></path>
        <path class="cls-27" d="M23.66,3.1a2.49,2.49,0,0,1-.95-.47A3.43,3.43,0,0,1,22,1.87a3.6,3.6,0,0,0,.75.71,2.31,2.31,0,0,0,.93.39Z" transform="translate(0 0)"></path>
        <path class="cls-27" d="M24.28,1.37a5.4,5.4,0,0,1-.55,1.69L23.61,3a5.06,5.06,0,0,0,.67-1.63" transform="translate(0 0)"></path>
        <path class="cls-13" d="M19.82,32.37c0-.76.2-1.07-.45-1.47a2.38,2.38,0,0,1-.87-1.34,8.41,8.41,0,0,0-.6-1.79s.71.76,1.19,1.19.58,1.27.67,1.31.33-.81.79-1.5a2.19,2.19,0,0,1,1-.88s-1.08,1.2-1,1.85c.16,1.81.21,3.12.22,3.93s.69,2,.63,2.29-1.87,1-1.92-.11c0,0-.46-.16.05-.77a6.66,6.66,0,0,0,.34-2.71" transform="translate(0 0)"></path>
        <path class="cls-13" d="M19.82,32.37h.07a1.21,1.21,0,0,1,0-.19c0-.2,0-.37,0-.52a.83.83,0,0,0-.5-.81,2.34,2.34,0,0,1-.83-1.31,8.36,8.36,0,0,0-.61-1.8l-.06,0,0,0s.71.76,1.19,1.2a2,2,0,0,1,.47.78l.11.34.05.12.06.08h0l.1-.07c.06-.1.15-.31.27-.58a6.31,6.31,0,0,1,.46-.89,2.67,2.67,0,0,1,.65-.68l.22-.13.08,0,0-.07-.05,0a8,8,0,0,0-.52.66,2.4,2.4,0,0,0-.52,1.18v.06c.15,1.8.2,3.12.21,3.92A4.42,4.42,0,0,0,21,35a5.28,5.28,0,0,1,.31.94v0a.6.6,0,0,1-.11.1,2.17,2.17,0,0,1-1.05.31.74.74,0,0,1-.44-.11.48.48,0,0,1-.19-.4V35.8h-.07a.23.23,0,0,1-.13-.21.77.77,0,0,1,.23-.45.73.73,0,0,0,.12-.29,8.09,8.09,0,0,0,.25-2c0-.14,0-.27,0-.41h-.13c0,.13,0,.26,0,.4a9.21,9.21,0,0,1-.13,1.5c0,.21-.07.39-.11.52a.86.86,0,0,1-.1.24.88.88,0,0,0-.26.53.38.38,0,0,0,.24.34l0-.06h-.06a.6.6,0,0,0,.24.49.88.88,0,0,0,.52.14,2.28,2.28,0,0,0,.82-.18,1.49,1.49,0,0,0,.31-.16c.08,0,.14-.1.15-.18v0a4.39,4.39,0,0,0-.32-1,4.15,4.15,0,0,1-.32-1.27c0-.81-.06-2.13-.21-3.93v0a2.26,2.26,0,0,1,.5-1.1,6,6,0,0,1,.51-.65l.17-.19-.24.08a2.25,2.25,0,0,0-1,.9,6.69,6.69,0,0,0-.53,1l-.16.35,0,.1h0l0,0v0h0l0,0v0l0,0h0v0l0,0v0l0,0h0v0l0,0h0c0-.06-.09-.29-.19-.54a1.86,1.86,0,0,0-.47-.75c-.47-.44-1.18-1.19-1.19-1.2l-.28-.3.18.38s.12.25.25.59a5.75,5.75,0,0,1,.35,1.18A2.43,2.43,0,0,0,19.33,31a.71.71,0,0,1,.44.7c0,.14,0,.31,0,.52a1.34,1.34,0,0,0,0,.2Z" transform="translate(0 0)"></path>
        <path class="cls-30" d="M44.61,30.81s.85.89,3.13-.75a3.33,3.33,0,0,1-1,.12c-.83,0-1.9-.16-2.13.63" transform="translate(0 0)"></path>
        <path class="cls-31" d="M44.6,30.75s.26-1.2,3.06-1a3.38,3.38,0,0,0-.91.42c-.7.46-1.55,1.12-2.15.56" transform="translate(0 0)"></path>
        <path class="cls-9" d="M19.77,38.43a.39.39,0,0,0-.39-.15c-.22.07-.31.24-.27.3l.08.09.18-.1Z" transform="translate(0 0)"></path>
        <path class="cls-10" d="M19.89,38.69s-.07-.3-.19-.3l-.23,0,0,.05.16.21.15,0Z" transform="translate(0 0)"></path>
        <path class="cls-11" d="M19.88,38.73a.09.09,0,0,0-.05-.12l-.14,0-.22.16s-.06,0,.05,0,.1.05.19,0a.28.28,0,0,0,.17-.1" transform="translate(0 0)"></path>
        <path class="cls-12" d="M19.69,38.58l-.13.13-.13,0-.27-.12c0-.06,0,0,0-.13a.32.32,0,0,1,.21-.13.17.17,0,0,1,.2,0Z" transform="translate(0 0)"></path>
        <path class="cls-9" d="M18.87,33.37a.58.58,0,0,0-.61-.09c-.29.16-.36.44-.29.52l.14.09c.1.06.22-.19.22-.2Z" transform="translate(0 0)"></path>
        <path class="cls-10" d="M19.12,33.71s-.19-.41-.35-.38l-.35.05,0,.08s.22.25.29.26l.22,0Z" transform="translate(0 0)"></path>
        <path class="cls-11" d="M19.12,33.77s0-.15-.1-.16H18.8l-.26.29c0,.05-.08.05.08.06s.17,0,.3,0a.43.43,0,0,0,.2-.2" transform="translate(0 0)"></path>
        <path class="cls-12" d="M18.8,33.61a2.26,2.26,0,0,0-.15.23c0,.1-.06.13-.16.11s-.34,0-.42-.09-.08-.07,0-.19a.55.55,0,0,1,.27-.25.27.27,0,0,1,.31,0,.66.66,0,0,1,.18.19" transform="translate(0 0)"></path>
        <path class="cls-9" d="M17.66,35.22a2.09,2.09,0,0,0-2.14.14c-.88.77-.92,1.76-.62,2a4.79,4.79,0,0,0,.55.22c.37.13.59-.81.61-.83Z" transform="translate(0 0)"></path>
        <path class="cls-10" d="M18.74,36.22s-.94-1.25-1.47-1-1.15.4-1.15.4l0,.32s.92.68,1.17.66.68-.1.78-.1a5.26,5.26,0,0,0,.71-.24" transform="translate(0 0)"></path>
        <path class="cls-11" d="M18.78,36.41c0-.14-.07-.5-.44-.45a5.56,5.56,0,0,0-.75.16s-.55,1-.67,1.17-.24.21.31.14.59.06,1-.19a1.45,1.45,0,0,0,.54-.83" transform="translate(0 0)"></path>
        <path class="cls-12" d="M17.59,36.12a6,6,0,0,0-.34.87c-.11.39-.12.5-.48.49s-1.17.21-1.49,0-.31-.17-.22-.63a1.66,1.66,0,0,1,.71-1,1,1,0,0,1,1.07-.23,2.54,2.54,0,0,1,.75.53" transform="translate(0 0)"></path>
        <path class="cls-9" d="M22,35.49a1.84,1.84,0,0,0-1.87,0c-.81.61-.9,1.47-.66,1.67a3.57,3.57,0,0,0,.47.22c.31.14.56-.67.58-.68Z" transform="translate(0 0)"></path>
        <path class="cls-10" d="M22.89,36.42s-.73-1.15-1.21-1-1,.28-1,.28l-.05.27s.75.65,1,.64.59,0,.69,0a4.21,4.21,0,0,0,.62-.16" transform="translate(0 0)"></path>
        <path class="cls-11" d="M22.91,36.58c0-.12,0-.43-.35-.41a4.85,4.85,0,0,0-.65.09s-.54.84-.66,1-.22.17.26.14.51.08.89-.11a1.23,1.23,0,0,0,.51-.69" transform="translate(0 0)"></path>
        <path class="cls-12" d="M21.91,36.26a6.73,6.73,0,0,0-.36.73c-.12.34-.13.44-.44.4s-1,.11-1.3-.09-.26-.17-.15-.56a1.46,1.46,0,0,1,.68-.85.81.81,0,0,1,.94-.13,2.18,2.18,0,0,1,.63.5" transform="translate(0 0)"></path>
        <path class="cls-9" d="M24.82,34.37a2,2,0,0,0-2-.26c-.94.55-1.16,1.44-.92,1.69a3.06,3.06,0,0,0,.46.3c.31.19.69-.63.71-.64Z" transform="translate(0 0)"></path>
        <path class="cls-10" d="M25.62,35.48s-.63-1.32-1.15-1.21-1.13.15-1.13.15l-.09.29s.72.79.94.81.64,0,.74,0a4.88,4.88,0,0,0,.69-.09" transform="translate(0 0)"></path>
        <path class="cls-11" d="M25.62,35.66c0-.13,0-.47-.32-.49a5.83,5.83,0,0,0-.71,0s-.68.82-.83,1-.25.15.26.19.54.16,1,0a1.27,1.27,0,0,0,.64-.66" transform="translate(0 0)"></path>
        <path class="cls-12" d="M24.59,35.18a6.85,6.85,0,0,0-.47.73c-.18.35-.2.45-.53.36s-1.11,0-1.37-.26-.25-.21-.08-.62.39-.56.84-.82a.88.88,0,0,1,1,0,2.23,2.23,0,0,1,.59.62" transform="translate(0 0)"></path>
        <path class="cls-9" d="M25.63,37.74a.61.61,0,0,0,.57-.29c.16-.31.06-.59-.05-.61H26c-.11,0-.07.29-.07.3Z" transform="translate(0 0)"></path>
        <path class="cls-10" d="M25.21,37.59s.41.24.53.12a2.84,2.84,0,0,1,.27-.25l0-.09a1.45,1.45,0,0,0-.4,0l-.21.12Z" transform="translate(0 0)"></path>
        <path class="cls-11" d="M25.18,37.54s.08.13.17.07a1,1,0,0,0,.19-.13l.05-.4c0-.06.05-.08-.1,0s-.17.05-.26.17a.45.45,0,0,0-.05.29" transform="translate(0 0)"></path>
        <path class="cls-12" d="M25.54,37.48a2.3,2.3,0,0,0,0-.28c0-.12,0-.15.08-.19s.3-.19.41-.17.1,0,.13.15a.47.47,0,0,1-.08.37.27.27,0,0,1-.27.18.7.7,0,0,1-.27-.06" transform="translate(0 0)"></path>
        <path class="cls-9" d="M15.71,38a.79.79,0,0,0,.76-.31c.22-.39.12-.75,0-.79h-.23c-.14,0-.11.37-.12.37Z" transform="translate(0 0)"></path>
        <path class="cls-10" d="M15.19,37.74s.5.34.66.19l.37-.29,0-.12a1.61,1.61,0,0,0-.51-.09l-.27.13Z" transform="translate(0 0)"></path>
        <path class="cls-11" d="M15.16,37.67s.08.17.21.11l.25-.15s.08-.43.1-.51.06-.1-.13,0-.22,0-.34.19a.54.54,0,0,0-.09.37" transform="translate(0 0)"></path>
        <path class="cls-12" d="M15.62,37.63a2.05,2.05,0,0,0,0-.36c0-.16,0-.2.11-.23s.4-.22.55-.19.13,0,.15.2a.61.61,0,0,1-.13.47.36.36,0,0,1-.36.21.91.91,0,0,1-.34-.1" transform="translate(0 0)"></path>
        <path class="cls-9" d="M19.19,36a.49.49,0,0,0,.47.09c.24-.13.3-.34.24-.4l-.11-.07c-.07-.05-.17.14-.17.14Z" transform="translate(0 0)"></path>
        <path class="cls-10" d="M19,35.7s.14.32.27.3a2,2,0,0,1,.27,0l0-.07-.21-.2-.18,0Z" transform="translate(0 0)"></path>
        <path class="cls-11" d="M19,35.66a.08.08,0,0,0,.07.12h.17l.2-.22s.07,0-.06,0-.12,0-.22,0a.28.28,0,0,0-.16.15" transform="translate(0 0)"></path>
        <path class="cls-12" d="M19.26,35.78l.12-.17c0-.08.05-.1.13-.08s.26,0,.32.08.06,0,0,.15a.35.35,0,0,1-.21.18.21.21,0,0,1-.24,0,.57.57,0,0,1-.13-.16" transform="translate(0 0)"></path>
        <path class="cls-9" d="M23.44,37.76a1.8,1.8,0,0,0,1.77-.52c.6-.82.45-1.66.15-1.78a3.94,3.94,0,0,0-.51-.08c-.33,0-.34.8-.35.81Z" transform="translate(0 0)"></path>
        <path class="cls-10" d="M22.34,37.13s1,.88,1.43.59a9.63,9.63,0,0,1,.9-.55l0-.28a3.58,3.58,0,0,0-1.11-.33c-.2.06-.55.21-.64.23a4.56,4.56,0,0,0-.55.34" transform="translate(0 0)"></path>
        <path class="cls-11" d="M22.27,37c0,.12.15.41.46.29a4.16,4.16,0,0,0,.59-.27s.28-1,.35-1.12.15-.22-.29-.06-.51.07-.82.36a1.22,1.22,0,0,0-.29.8" transform="translate(0 0)"></path>
        <path class="cls-12" d="M23.32,37a5.4,5.4,0,0,0,.13-.8c0-.36,0-.45.31-.51s.94-.4,1.26-.29.29.09.3.49a1.45,1.45,0,0,1-.4,1,.83.83,0,0,1-.86.4,2.24,2.24,0,0,1-.74-.3" transform="translate(0 0)"></path>
        <path class="cls-9" d="M18,37.08a1.21,1.21,0,0,0,1.24,0c.53-.42.58-1,.41-1.12a2.44,2.44,0,0,0-.31-.14c-.2-.09-.36.45-.37.46Z" transform="translate(0 0)"></path>
        <path class="cls-10" d="M17.39,36.48s.5.75.81.63.68-.19.68-.19l0-.18s-.51-.43-.65-.42l-.46,0Z" transform="translate(0 0)"></path>
        <path class="cls-11" d="M17.37,36.37c0,.08,0,.28.24.27a3.47,3.47,0,0,0,.43-.07s.35-.57.43-.66.14-.12-.18-.09-.34,0-.59.08a.84.84,0,0,0-.33.47" transform="translate(0 0)"></path>
        <path class="cls-12" d="M18.05,36.57a4.56,4.56,0,0,0,.22-.5c.08-.22.08-.29.29-.26s.68-.09.86,0,.18.11.11.38a.93.93,0,0,1-.44.57.54.54,0,0,1-.62.1,1.34,1.34,0,0,1-.42-.32" transform="translate(0 0)"></path>
      </g>
    </g>
  </g>
</svg>
