<?xml version="1.0" encoding="UTF-8"?>
<svg xmlns="http://www.w3.org/2000/svg" xmlns:xlink="http://www.w3.org/1999/xlink" viewBox="0 0 51.18 79.33">
  <defs>
    <style>.cls-1{fill:#8e6848;}.cls-2{fill:url(#Безымянный_градиент_7);}.cls-3{fill:#713e21;}.cls-4{fill:#3d271f;}.cls-5{fill:#69391e;}.cls-6{fill:#6b482f;}.cls-7{fill:#5c3624;}.cls-8{fill:#795135;}.cls-9{fill:#9a734f;}.cls-10{fill:#e7e6e3;}.cls-11{fill:#85563a;}.cls-12{fill:#8cb132;}.cls-13{fill:#7a9635;}.cls-14{fill:#6c2c9d;}.cls-15{fill:#8642b5;}</style>
    <linearGradient id="Безымянный_градиент_7" x1="26.67" y1="90.56" x2="28.19" y2="62.39" gradientUnits="userSpaceOnUse">
      <stop offset="0.38" stop-color="#9b714f"></stop>
      <stop offset="0.91" stop-color="#754427"></stop>
      <stop offset="1" stop-color="#6e3c20"></stop>
    </linearGradient>
  </defs>
  <g id="Слой_2" data-name="Слой 2">
    <g id="Слой_1-2" data-name="Слой 1">
      <path class="cls-1" d="M28.19,59.93s2.83,3.31,5,3.45,9.62-2.22,9.62-2.22l.75-7.76L28.19,48Z"></path>
      <path class="cls-1" d="M11.27,52.85,12.8,63s5.45.82,6.41.54,5.31-1.9,6.54-1.9,2.44-1.68,2.44-1.68V48Z"></path>
      <polygon class="cls-2" points="13.54 72.43 28.19 79.33 41.75 72.47 27.66 66.49 13.54 72.43"></polygon>
      <path class="cls-3" d="M13.54,72.43,12.8,63s7-.14,8.86-1.09a39.32,39.32,0,0,1,6.53-2l-.53,6.56Z"></path>
      <path class="cls-4" d="M23.44,63.56a2.37,2.37,0,0,0-.83-.49h0a1.71,1.71,0,0,0-1.71.42c-.61.74-.5,1.55-.23,1.68.08,0,.33.07.48.1l0,0a8.33,8.33,0,0,0,1-.23.53.53,0,0,0,.17,0l.19-.06c.44-.14.49,0,.79-.3a1.18,1.18,0,0,0,.32-.75.73.73,0,0,0-.06-.14h0A.27.27,0,0,0,23.44,63.56Z"></path>
      <path class="cls-4" d="M17.49,64.53a3.28,3.28,0,0,0-1.18.39h0a2.21,2.21,0,0,0-1,2c.21,1.22,1.07,1.8,1.43,1.64a4.45,4.45,0,0,0,.5-.37s0,0,0,0A11.12,11.12,0,0,0,17.85,67a.55.55,0,0,0,.1-.21l.11-.23c.24-.54.38-.51.38-1a1.46,1.46,0,0,0-.45-.94.61.61,0,0,0-.19-.06h0A.37.37,0,0,0,17.49,64.53Z"></path>
      <path class="cls-5" d="M28.19,59.93l-.53,6.56,14.09,6,1.07-11.31a36.78,36.78,0,0,0-6.3-.24c-1.91.28-5.23,1.09-6.23.55A13.7,13.7,0,0,1,28.19,59.93Z"></path>
      <path class="cls-4" d="M22.82,66.67a1.06,1.06,0,0,0-.36-.09h0a.68.68,0,0,0-.6.35c-.14.35,0,.64.1.65a.64.64,0,0,0,.19,0h0a3.87,3.87,0,0,0,.36-.2.15.15,0,0,0,.06,0l.07,0c.15-.1.18-.07.26-.2a.44.44,0,0,0,0-.32l0-.05h0A.1.1,0,0,0,22.82,66.67Z"></path>
      <path class="cls-4" d="M36.64,63.85a.74.74,0,0,0,0-.26h0a.48.48,0,0,0-.38-.31c-.26,0-.42.15-.4.23l.06.12h0c.05.06.17.13.22.18s0,0,0,0l0,0c.1.07.09.1.2.12a.28.28,0,0,0,.21,0l0,0h0A.07.07,0,0,0,36.64,63.85Z"></path>
      <path class="cls-4" d="M40.57,68.59A3.25,3.25,0,0,0,40,67.47h0a2.24,2.24,0,0,0-2.15-.76c-1.19.38-1.64,1.33-1.44,1.67a4.79,4.79,0,0,0,.45.44h0a12.14,12.14,0,0,0,1.28.47.79.79,0,0,0,.23.08l.25.07c.56.16.55.31,1.06.24a1.58,1.58,0,0,0,.88-.59s0-.12,0-.2h0v0A.39.39,0,0,0,40.57,68.59Z"></path>
      <path class="cls-4" d="M32.91,64.7a2.53,2.53,0,0,0-.54.78h0a1.72,1.72,0,0,0,.28,1.73c.7.65,1.5.61,1.65.35a3.47,3.47,0,0,0,.14-.47s0,0,0,0a9,9,0,0,0-.16-1,.42.42,0,0,0,0-.18l0-.19c-.1-.44,0-.49-.24-.81a1.17,1.17,0,0,0-.71-.37l-.15,0h0A.28.28,0,0,0,32.91,64.7Z"></path>
      <path class="cls-6" d="M33,72.73a.48.48,0,0,0,.46-.12c.15-.21.12-.42,0-.46l-.13,0c-.09,0-.1.2-.1.2S33,72.73,33,72.73Z"></path>
      <path class="cls-7" d="M32.69,72.56s.26.23.36.16l.24-.14v-.07s-.23-.11-.28-.09l-.17.06A.87.87,0,0,0,32.69,72.56Z"></path>
      <path class="cls-8" d="M32.67,72.52a.1.1,0,0,0,.12.08l.15-.07s.08-.24.1-.28,0-.06-.07,0-.13,0-.21.09A.33.33,0,0,0,32.67,72.52Z"></path>
      <path class="cls-9" d="M32.94,72.53a1.57,1.57,0,0,0,0-.2c0-.09,0-.12.09-.13s.24-.1.32-.06.07,0,.07.12a.36.36,0,0,1-.11.26.21.21,0,0,1-.22.09A.6.6,0,0,1,32.94,72.53Z"></path>
      <path class="cls-6" d="M29.83,70.93a1,1,0,0,0,1-.49c.26-.52.08-1-.1-1a1.62,1.62,0,0,0-.3,0c-.19,0-.11.49-.11.5S29.83,70.93,29.83,70.93Z"></path>
      <path class="cls-7" d="M29.14,70.69s.68.39.88.18a5.26,5.26,0,0,1,.45-.41l0-.15a2,2,0,0,0-.66-.07c-.11.05-.29.18-.34.2A2.53,2.53,0,0,0,29.14,70.69Z"></path>
      <path class="cls-8" d="M29.09,70.61a.21.21,0,0,0,.29.12,3.76,3.76,0,0,0,.31-.22s0-.57.07-.67.07-.15-.17,0-.28.09-.42.28A.71.71,0,0,0,29.09,70.61Z"></path>
      <path class="cls-9" d="M29.69,70.51a3.09,3.09,0,0,0,0-.47c0-.2,0-.25.12-.32s.5-.33.69-.3.17,0,.22.25a.81.81,0,0,1-.12.61.47.47,0,0,1-.44.32A1.37,1.37,0,0,1,29.69,70.51Z"></path>
      <path class="cls-6" d="M26.91,73.21a1,1,0,0,0,1,.13c.49-.29.6-.76.47-.89a1,1,0,0,0-.24-.15c-.16-.1-.36.33-.37.34Z"></path>
      <path class="cls-7" d="M26.49,72.64s.33.68.61.62.58-.08.58-.08l.05-.15s-.38-.41-.5-.42-.33,0-.38,0S26.49,72.64,26.49,72.64Z"></path>
      <path class="cls-8" d="M26.49,72.54c0,.07,0,.25.17.26a2.67,2.67,0,0,0,.37,0s.35-.43.42-.5.14-.08-.13-.1-.28-.08-.5,0A.72.72,0,0,0,26.49,72.54Z"></path>
      <path class="cls-9" d="M27,72.79a3.53,3.53,0,0,0,.24-.39c.09-.18.1-.23.27-.19s.58,0,.72.13.13.11,0,.33a.88.88,0,0,1-.44.43.47.47,0,0,1-.53,0A1.17,1.17,0,0,1,27,72.79Z"></path>
      <path class="cls-6" d="M25.65,71.32a.78.78,0,0,0,0-.8c-.25-.35-.62-.41-.71-.3l-.1.19c-.06.13.28.25.28.26Z"></path>
      <path class="cls-7" d="M25.24,71.68s.5-.3.44-.5-.1-.45-.1-.45l-.12,0s-.29.32-.29.41,0,.25,0,.29S25.24,71.68,25.24,71.68Z"></path>
      <path class="cls-8" d="M25.17,71.69s.19,0,.18-.15a1.53,1.53,0,0,0,0-.28L24.91,71c-.06,0-.07-.1-.06.11s0,.22,0,.38A.56.56,0,0,0,25.17,71.69Z"></path>
      <path class="cls-9" d="M25.32,71.26A3.33,3.33,0,0,0,25,71.1c-.14,0-.18-.06-.16-.19s0-.45,0-.56.08-.11.24-.06a.63.63,0,0,1,.36.31.34.34,0,0,1,.05.4A.9.9,0,0,1,25.32,71.26Z"></path>
      <path class="cls-6" d="M23.17,71.91a.34.34,0,0,0,.11-.33c-.06-.17-.2-.24-.25-.21a.23.23,0,0,0-.07.07s.08.14.08.14S23.17,71.91,23.17,71.91Z"></path>
      <path class="cls-7" d="M23,72s.25-.06.25-.15,0-.2,0-.2l0,0a.89.89,0,0,0-.18.14s0,.1,0,.12A.57.57,0,0,0,23,72Z"></path>
      <path class="cls-8" d="M22.92,72s.08,0,.1,0l0-.12a1.72,1.72,0,0,1-.13-.18s0,0,0,0-.05.08,0,.16A.21.21,0,0,0,22.92,72Z"></path>
      <path class="cls-9" d="M23,71.85l-.11-.11c-.05,0-.07,0,0-.1s0-.19.09-.23.05,0,.11,0a.3.3,0,0,1,.11.17.16.16,0,0,1,0,.18A.58.58,0,0,1,23,71.85Z"></path>
      <path class="cls-6" d="M22.41,73.28a1.35,1.35,0,0,0,0-1.38c-.45-.62-1.08-.7-1.23-.52a1.74,1.74,0,0,0-.18.34c-.11.23.49.43.5.44Z"></path>
      <path class="cls-7" d="M21.7,73.91s.86-.52.75-.88a6.76,6.76,0,0,1-.18-.76l-.2,0s-.5.55-.5.71,0,.45,0,.52A3.13,3.13,0,0,0,21.7,73.91Z"></path>
      <path class="cls-8" d="M21.58,73.93c.09,0,.32,0,.31-.26a3.67,3.67,0,0,0-.06-.49s-.61-.41-.71-.5-.12-.17-.11.19-.07.38.07.66A.92.92,0,0,0,21.58,73.93Z"></path>
      <path class="cls-9" d="M21.83,73.18a4.84,4.84,0,0,0-.54-.27c-.24-.1-.31-.11-.28-.34s-.07-.76.08-1,.14-.19.43-.1.41.23.62.52a.62.62,0,0,1,.08.7A1.45,1.45,0,0,1,21.83,73.18Z"></path>
      <path class="cls-10" d="M28,56.07a.48.48,0,0,0,.58,0,2.71,2.71,0,0,1-.1.9.52.52,0,0,0,.27.57,1.87,1.87,0,0,0,1.14.39,3.12,3.12,0,0,1,1.78.55,1,1,0,0,0,1.18.14c.27-.2.51,0,.69.19a2.28,2.28,0,0,1,.24.39c.13.21.3.32.54.18a.4.4,0,0,1,.52.09.44.44,0,0,0,.56.11.49.49,0,0,1,.54.06,3.75,3.75,0,0,0,2.7.89,1.42,1.42,0,0,1-1.2.1A3.86,3.86,0,0,1,36,59.93c-.2-.15-.37-.24-.61-.08a.38.38,0,0,1-.49-.1.45.45,0,0,0-.52-.12.53.53,0,0,1-.73-.29L33.41,59c-.18-.28-.39-.36-.65-.09a.33.33,0,0,1-.53,0,.36.36,0,0,0-.49-.06.54.54,0,0,0-.18.62.86.86,0,0,1,0,1c-.18.27.29.23.34.45s.15,0,.23-.06a1.43,1.43,0,0,1,1.4-.21,1.34,1.34,0,0,1,.6.27.75.75,0,0,1-.64,0c-.39-.36-.74,0-1.11,0,0,0,0,0,0,.07s.22.08.32.15.28.2.23.4-.25.45,0,.59a1,1,0,0,0,.84.14c.24-.07.41-.08.56.14s.17.06.28.06c.3,0,.49.12.61.51a.91.91,0,0,0-.75-.27s-.09,0-.14-.05-.18-.33-.4-.2,0,.33,0,.49.06.58.09.87a1.36,1.36,0,0,1,0,.2,1.05,1.05,0,0,1-.18-.55,3.05,3.05,0,0,0-.17-.66.47.47,0,0,0-.43-.32c-.52-.05-.68-.31-.52-.81,0-.09.1-.19,0-.28s-.21-.07-.32,0-.37.22-.57,0c0,0-.17,0-.26,0s-.29,0-.33,0c-.33-.43-.83-.19-1.23-.35a.26.26,0,0,0-.15,0c-.08,0-.2,0-.23.07s.06.14.12.19a3.65,3.65,0,0,1,1,1.3,1.18,1.18,0,0,0,.85.56,1.23,1.23,0,0,1,.9.69c-.37-.48-1-.4-1.43-.7,0,0,0-.11-.09-.07s0,.09,0,.13a3.57,3.57,0,0,1,0,1.56,1.51,1.51,0,0,0,.13.75.49.49,0,0,0,.47.36c.39,0,.7.34,1.12.34.1,0,.25.1.28.41-.36-.42-.86-.13-1.18-.49-.09-.1-.41-.14-.47,0s-.41.43-.18.72a.78.78,0,0,1,.15.72.59.59,0,0,0,.06.48.46.46,0,0,1,0,.44.45.45,0,0,0,.29.67,1.14,1.14,0,0,1,.77,1.11,3.49,3.49,0,0,0,.2.7.59.59,0,0,1-.16.69c.15-.66-.3-1.16-.31-1.76,0-.23-.27-.32-.45-.44a5,5,0,0,0-.52-.32c0,1.38.29,2.71.23,4.08a.22.22,0,0,1-.18-.22c0-1.14-.2-2.26-.3-3.39a.8.8,0,0,1,0-.41A3.12,3.12,0,0,0,31,67.33,5.7,5.7,0,0,1,30.91,66c0-.4-.25-.79-.32-1.2,0-.19-.24-.09-.34,0s-.21.23-.34.33a.66.66,0,0,1,.38-.62c.47-.25.59-.46.43-1a3.9,3.9,0,0,0-1.52-2.26,1.86,1.86,0,0,1-.26-.23.38.38,0,0,0,0,.37,2,2,0,0,1-.05,1.49c-.11.26.14.33.3.32a1.47,1.47,0,0,1,1,.38c-.06.12-.16.08-.22,0-.32-.29-.75-.19-1.11-.33-.11,0-.22,0-.22.13s-.12.3.12.43a4.57,4.57,0,0,1,1.06.63c-.07.12-.21.12-.24.07-.17-.27-.57-.14-.72-.44a.07.07,0,0,0-.12,0,.14.14,0,0,0,0,.14.77.77,0,0,1,0,.86.16.16,0,0,0,0,.24.35.35,0,0,1,.13.14c.15.41.36.65.82.34a.23.23,0,0,1,.29,0c.11.13.2.09.33,0s.28,0,.34.18,0,.09-.05.13c-.2-.26-.49.2-.7-.09-.11-.14-.25,0-.38,0-.38.2-.57.13-.74-.27-.07-.14-.09-.4-.29-.32s-.06.31,0,.49a.81.81,0,0,0,.88.71c.2,0,.3.15.29.5-.23-.41-.68-.08-.88-.48,0-.08-.25,0-.35.16a.18.18,0,0,0,.06.29c.45.17.53.58.65,1,0,.12.07.22.22.23.34,0,.59.33.95.36a.28.28,0,0,1,.25.36c-.26-.28-.66-.13-.93-.39s-.29-.05-.26.18,0,.21,0,.31a.83.83,0,0,1-.68.92.85.85,0,0,0-.44.21c.26.06.46.2.7.07a.19.19,0,0,1,.24.06.61.61,0,0,0,.53.16.51.51,0,0,1,.56.41c-.34-.3-.81-.1-1.19-.38-.18-.14-.5,0-.76,0-.1,0-.1.13-.09.22s-.07.3.11.41a3.9,3.9,0,0,1,1.11.82c.11.13.18,0,.25-.07s.35-.2.52,0a.35.35,0,0,0,.3.13c.17,0,.21.1.19.27-.21-.12-.48,0-.66-.26s-.22,0-.31.11c-.24.23-.43.21-.55-.11,0-.09-.05-.18-.17-.17s-.31-.13-.4-.29a.3.3,0,0,0-.35-.17c-.18,0-.13.2-.13.32a.62.62,0,0,0,.28.62.45.45,0,0,1,.17.69.82.82,0,0,0,0,.73,3.53,3.53,0,0,1,.06,1.55,4.17,4.17,0,0,0,.07,1.41c0,.1.1.26,0,.29s-.14-.15-.17-.25a3.1,3.1,0,0,1-.09-1.48,5.88,5.88,0,0,0,0-1.11c0-.08,0-.19-.1-.22s-.16.06-.22.12a1.12,1.12,0,0,0-.35.7c0,.07,0,.19-.1.17s-.1-.12-.09-.22a1.58,1.58,0,0,1,.43-.83c.15-.16.28-.3.23-.53a.22.22,0,0,1,0-.18c.33-.38.09-.62-.2-.85s-.53,0-.74-.23c0,0-.12.14-.14.24a.5.5,0,0,1-.73.39c-.13-.06-.25,0-.37,0a.21.21,0,0,1-.16-.27c.05-.15.14,0,.22,0a1.09,1.09,0,0,1,.39.11.29.29,0,0,0,.45-.22c.12-.45.15-.47.57-.31.16.06.28,0,.3-.17.05-.44.11-.88.13-1.32s.15-.65.59-.76A.84.84,0,0,0,29,69.7c.1-.1.18-.24.06-.37a.24.24,0,0,0-.35,0c-.2.21-.52,0-.72.23,0,0-.15,0-.16-.11s.06-.12.14-.14a4,4,0,0,0,.93-.29c.12-.07.17-.13.13-.26-.11-.33-.22-.66-.38-1.1-.16.45-.37.71-.79.71,0,0-.06,0-.09.06s0,.28-.21.15,0-.24.08-.35a.31.31,0,0,1,.3-.12.26.26,0,0,0,.28-.21c.19-.41.18-.41-.27-.46-.26,0-.5-.17-.72.09,0,0-.16,0-.13-.12a.49.49,0,0,1,.7-.22c.17.11.28.12.32-.11a2.14,2.14,0,0,0,0-1.23c-.1-.27-.36-.29-.5-.48s-.14,0-.18.1a.25.25,0,0,1-.26.12c-.17,0-.31,0-.38.21s-.2.11-.31.06c.11-.57.65-.51,1-.7a.37.37,0,0,1,.22,0c.46.18.77,0,.78-.55s-.26-.76-.22-1.2a1.56,1.56,0,0,1-.87.63.46.46,0,0,0-.29.38c0,.08-.08.15-.17.1a.14.14,0,0,1,0-.2c.1-.2.25-.42.44-.46.35-.06.47-.35.67-.55s.68-.46.73-.93a.29.29,0,0,0-.07-.25A1.44,1.44,0,0,1,27.2,63a.31.31,0,0,1,.33-.23.72.72,0,0,0,.73-.47c0-.06.09-.14.15-.16.43-.14.31-.4.18-.68a.68.68,0,0,0-.36.2c-.56.52-1.13,1-1.67,1.6a1,1,0,0,0-.15,1,1.6,1.6,0,0,1-.14,1.43,1,1,0,0,0,0,1.21.69.69,0,0,1,0,.79.65.65,0,0,0,0,.59,4.28,4.28,0,0,1,.14,2c0,.34,0,.68,0,1,0,.07,0,.21-.12.2s-.1-.13-.11-.21c0-.49.12-1,0-1.49a1.45,1.45,0,0,0-.69.82.48.48,0,0,1,.19-.64c.68-.43.57-1,.37-1.65a1,1,0,0,1,0-.74,1.36,1.36,0,0,0-.3-1.08c-.12-.08-.23,0-.3.08a3.13,3.13,0,0,0-1,1.75c0,.35,0,.7,0,1.16a2.54,2.54,0,0,1-.24-1.09,2.8,2.8,0,0,1,1.41-2.14c.07,0,.14-.08.15-.16a1.66,1.66,0,0,1,.29-.7c0-.07.09-.17,0-.25s-.17,0-.23,0c-.21.2-.52,0-.73.2,0,0-.13,0-.15-.08s.05-.1.11-.12c.3-.12.62-.16.92-.28s.26-.22.19-.38a2.17,2.17,0,0,1,0-1.31c-.27,0-.26,0-.36.26,0,.07-.12.18-.18.18-.33,0-.37.19-.3.48-.22,0-.22-.18-.22-.31a.25.25,0,0,1,.18-.27c.23,0,.28-.19.4-.34a1.38,1.38,0,0,1,.77-.56,1.54,1.54,0,0,0,.88-.64,2.65,2.65,0,0,1,.85-.75.46.46,0,0,0,.31-.48c0-.25-.26-.14-.39-.24s-.3,0-.39.15a.26.26,0,0,1-.26.14.53.53,0,0,0-.59.43.55.55,0,0,1,.47-.68.41.41,0,0,0,.33-.19c.17-.26.45-.14.74-.15-.16-.2-.28-.37-.41-.54s-.1,0-.16,0c-.23.18-.43.39-.8.29-.15,0-.25.29-.37.45l-.18.3c-.14-.07-.11-.2-.06-.29s.27-.43.41-.64a.27.27,0,0,1,.22-.13c.56,0,.78-.28.69-.82a1.35,1.35,0,0,1,0-.45,3.81,3.81,0,0,0,0-.48c-.2.15-.26.36-.42.47a1.82,1.82,0,0,1-.86.15c-.36,0-.42.12-.29.46a.71.71,0,0,1-.42,1,.9.9,0,0,0-.44.4.14.14,0,0,0,0,.19c.27.34.06.53-.23.63s-.3.14-.09.33.2.37-.09.5-.43.6-.58.94c-.08.18-.05.4-.33.61.18-.68.15-1.33.71-1.75.09-.06.07-.13,0-.23-.19-.32-.14-.49.21-.61s.3-.14.14-.36-.1-.18.21-.62a.93.93,0,0,0-.8.57c-.12.29-.27.46-.57.48s-.4.36-.52.65a.6.6,0,0,1,.43-.84.64.64,0,0,0,.49-.41,1.12,1.12,0,0,1,1.07-.64A.54.54,0,0,0,26,59.6c.14-.17,0-.34,0-.53-.13-.38-.31-.35-.61-.19s-.76.34-1.15.51a1.28,1.28,0,0,0-.43.3.65.65,0,0,1-1,.2,1.47,1.47,0,0,0-1.22-.19,5.07,5.07,0,0,0-1.89.9.73.73,0,0,1-1.13.1c0-.09.09-.08.15-.05a.67.67,0,0,0,.82-.24,1.64,1.64,0,0,1,1.05-.57.72.72,0,0,0,.2-.09,2,2,0,0,1,2-.18c.21.09.49.3.68.08.46-.56,1.16-.66,1.75-1a3.76,3.76,0,0,1,1.8-.43c.09,0,.21,0,.25-.09a5.72,5.72,0,0,0,.57-1.2A4.59,4.59,0,0,1,28,56.07ZM28.31,59a.72.72,0,0,0,.23.82.84.84,0,0,1,.28.57c0,.2.14.41.34.41.41,0,.81.09,1.21.09a.79.79,0,0,1,.56.18c.23.21.47.15.81,0L31.57,61c-.45-.26-.46-.27-.18-.72a.51.51,0,0,0,0-.57.58.58,0,0,1,0-.62c.16-.28,0-.46-.21-.58a2,2,0,0,0-.61-.23,3.76,3.76,0,0,1-2.16-.59c0,.25-.06.43-.09.6-.08.4.19.53.48.64.08,0,.21,0,.25.07a.75.75,0,0,0,.76.5.11.11,0,0,1,.1.14c0,.09-.1.08-.15.06-.28-.09-.64,0-.74-.42a.17.17,0,0,0-.21-.12C28.6,59.21,28.48,59.08,28.31,59ZM29,69.05v0h0Z"></path>
      <polygon class="cls-11" points="11.27 52.85 28.19 59.93 43.57 53.4 28.19 47.98 11.27 52.85"></polygon>
      <path class="cls-12" d="M36.39,23.8c-.12-.11,0-2.48,3-2.85a2.38,2.38,0,0,0,.84,0c.34-.08.57-.68.81-1.05s.54-1.07,1.52-.75,1.16,1.07,1.63.45.69-1.46,2.12-.77a5,5,0,0,0,3.52-.13c.26-.06,2.27-.81.75.6a36.94,36.94,0,0,0-2.92,3c-.28.37-1.24,1.72-2.23,1.52-1.38-.27-1-.69-2.37-.13-1.81.73-3-.23-3.91-.3a2.91,2.91,0,0,0-1.92.41C36.41,24.38,36.64,24,36.39,23.8Z"></path>
      <path class="cls-12" d="M41.1,32.35s1.11-.54,1.21-1a3.91,3.91,0,0,0,.59-2.48c-.19-1.48.42-1.57.68-1.12s2.18,5,2.44,5.46,1.19,2-.48,2.7.22,1.16-.23,2.57-1.6,1.51-2.38,3.35a5.79,5.79,0,0,1-6.07,3.47c-3.15-.39-3.6.16-4.44-.35s-2.31-1.29,2.41-2.09A11.06,11.06,0,0,0,36.36,42a7.36,7.36,0,0,0,.43-1.12,1.61,1.61,0,0,1,1-.87c.29-.13.74.13.55-1a1.92,1.92,0,0,1,1.06-2.15c.45-.07,1.44-.13,1.48-1S39.69,33.84,41.1,32.35Z"></path>
      <path class="cls-12" d="M27,43.51c0,.16-1.32,1.19-1.48,1.82S24.83,47.4,24,47.79a2.27,2.27,0,0,0-1.35,1.06c-.61.77.67,1.51-2.28,1.57a20.9,20.9,0,0,0-4.7.71c-.45,0-1.93.58,0-1s1.64-1.73,1.87-2.5a1.7,1.7,0,0,1,1.54-1c.35,0,.74.29.87-.77s.09-1.32,1.38-1.29,1.16.16,1.51-.48.23-.77.64-.84a12.17,12.17,0,0,1,2.87-.16C26.89,43.22,27.12,42.9,27,43.51Z"></path>
      <path class="cls-12" d="M26,32.16c.06.19.26,3.7-.52,4.25s-1.31.25-1.09,1,.83,1.16-.05,1.77-.66.16-.88,1,.13.87-.58,1.22-1,.45-1,.74-.48,0-.61.26S20,44,19.79,43s-.29-2.33-.42-2.62-.77-.35-.71-.9,1-1.38,1-1.38a.74.74,0,0,0,.22-.87c-.22-.51,1.29-.35,1.26-1.12s0-1.13.22-1.23a5.62,5.62,0,0,0,2.32-2C24.38,31.68,25.44,30.52,26,32.16Z"></path>
      <path class="cls-12" d="M17.12,39.94c-.26,0-2.7.32-3.18,1.61s-.78,1.53-1.39,1.79c0,0,.13-.15-.32-1.34s.22-4,3.41-3S17.12,39.94,17.12,39.94Z"></path>
      <path class="cls-12" d="M13.55,36s-.64-.68-3.25-.42-2.51-.74-3.53-.84-1.58.84-2.51.23S1.69,31.49,1,30.84s-1.9-2.15.45-1.22,2.86.52,3.37.45,1.13-.35,1.58.42.29,1.17,1,.86,1.29-1.18,2.06-.28,0,1.44.8,1.57,1.45-.32,2.13.39S14,35,14,35.41,14,35.92,13.55,36Z"></path>
      <path class="cls-12" d="M20.26,21.09a4.51,4.51,0,0,1-3.51-1.87A2.61,2.61,0,0,1,20.26,21.09Z"></path>
      <path class="cls-12" d="M20.25,20.75a19.18,19.18,0,0,1,2.12-2.61c.93-.86,1.57-1.51,1-2.54s-1-1.28-.38-1.89a4.19,4.19,0,0,0,.93-5.15C22.5,6,23.69,7.09,23.24,5.7s-.33-1.73-3-2.79S19,.4,16.07.56c0,0,.09.26-1-.23s-1.32-.64-.74.94,0,1.31.26,2.41.29,1,.8,1.41,1.06-.13.71,1.13-1.31,2-.58,3.12,1.29,1.22.87,1.92A2.89,2.89,0,0,0,16,14.68,15.35,15.35,0,0,0,20.25,20.75Z"></path>
      <path class="cls-13" d="M17.05,2.87a6.76,6.76,0,0,1,2.89,3.65,9.52,9.52,0,0,1,.23,4.71c-.24,1.55-.5,3.1-.61,4.66a8.24,8.24,0,0,0,.7,4.57,6.25,6.25,0,0,1-.8-2.21,11.75,11.75,0,0,1-.07-2.37c.09-1.58.31-3.14.53-4.69a9.38,9.38,0,0,0-.14-4.62A7.3,7.3,0,0,0,17.05,2.87Z"></path>
      <path class="cls-12" d="M36.22,22.47c0-.09-1.43-2.6-1-3.93s.83-1.33.71-1.71-.8-1,0-1.74c.58-.53,1.55-.5,1.12-1.54-.49-1.2,1.27-1.59,2.19-3C40.58,8.47,41,5.77,41.32,8A23.93,23.93,0,0,0,42,11.53c.19.91.69,2.53,0,2.88-1.28.63-.79,1-.64,1.52a1.53,1.53,0,0,1-.43,1.8c-.82.7-.94.54-.69,1.39s-1.05,1.82-1.36,2.12a12.14,12.14,0,0,1-2,1.46C36.49,22.83,36.42,22.81,36.22,22.47Z"></path>
      <path class="cls-13" d="M40.59,9.49c-.21,1.15-.39,2.32-.71,3.46a10.09,10.09,0,0,1-.6,1.67c-.24.55-.62,1-.89,1.52A16.3,16.3,0,0,0,37,19.34a12.14,12.14,0,0,0-.62,3.44,10.62,10.62,0,0,1,.43-3.5A15.35,15.35,0,0,1,38.17,16c.29-.53.66-1,.9-1.5a13.34,13.34,0,0,0,.62-1.63C40,11.78,40.29,10.63,40.59,9.49Z"></path>
      <path class="cls-13" d="M36.82,23.19a3.35,3.35,0,0,1,2.56-1.32,12.27,12.27,0,0,1,1.48-.05,10,10,0,0,0,1.45-.11,20.2,20.2,0,0,0,2.85-.64c.94-.27,1.87-.57,2.79-.92A19.64,19.64,0,0,1,42.35,22a29.41,29.41,0,0,1-3,.11,4.85,4.85,0,0,0-1.41.29A2.39,2.39,0,0,0,36.82,23.19Z"></path>
      <path class="cls-13" d="M43.35,34.44a23.72,23.72,0,0,1-3.29,6.72,10.8,10.8,0,0,1-2.66,2.65,4.67,4.67,0,0,1-3.6.76,4.87,4.87,0,0,0,3.49-.92A11.11,11.11,0,0,0,39.86,41a25.13,25.13,0,0,0,1.94-3.17C42.37,36.73,42.89,35.6,43.35,34.44Z"></path>
      <path class="cls-13" d="M24.71,33c-.62,1.42-1.32,2.81-2,4.21l-1,2.08a22.37,22.37,0,0,0-1,2.1,13.08,13.08,0,0,1,.81-2.19c.31-.71.65-1.41,1-2.11C23.19,35.71,23.9,34.33,24.71,33Z"></path>
      <path class="cls-12" d="M11.23,32c-.16-.22-.29-1.25-.87-2.57s-2-2.89-1.55-4.44.55-.87.23-2.41,4.21-5.37,4.4-5.37,1.71-1.09.84.55.37,2.83.27,3.66-1.49,1.64-.94,2.83a7.69,7.69,0,0,0,1.41,2,1.41,1.41,0,0,1,0,1.86c-.68.9-1.16.45-.42,1.45s-.16,1.65-.38,2.21-.61.33-.49,1.68.71,2.28-.35,1.77S11.23,32,11.23,32Z"></path>
      <path class="cls-13" d="M12.42,20a12.92,12.92,0,0,0-1.07,3.59,14.63,14.63,0,0,0-.1,3.74A15.75,15.75,0,0,0,12,31a25.68,25.68,0,0,0,1.45,3.47c-.3-.55-.62-1.09-.91-1.65s-.53-1.15-.7-1.76a16.68,16.68,0,0,1-.84-3.7,15,15,0,0,1,.19-3.79A10.41,10.41,0,0,1,12.42,20Z"></path>
      <path class="cls-13" d="M2.68,31a12.88,12.88,0,0,0,2.61,1.52,13.13,13.13,0,0,0,2.87.91,10.49,10.49,0,0,0,1.48.18,6.11,6.11,0,0,1,1.53.15,4.5,4.5,0,0,1,2.51,1.68,4.8,4.8,0,0,0-2.55-1.49,6.76,6.76,0,0,0-1.5-.11,9.68,9.68,0,0,1-1.52-.16,12.24,12.24,0,0,1-2.9-1A10.59,10.59,0,0,1,2.68,31Z"></path>
      <path class="cls-12" d="M36.22,23.19s-2.16.33-4.28-3.4a14.21,14.21,0,0,1,1.71.59C35,20.91,36.67,21.33,36.22,23.19Z"></path>
      <path class="cls-14" d="M37.44,31.63a2.11,2.11,0,0,0,3-.28c1.25-1.57.3-4.12,0-4.56s-1.28-1.27-3,0c-1.23.94-1.26,3.1-.74,4.18C36.89,31.36,37.14,31.61,37.44,31.63Z"></path>
      <path class="cls-15" d="M38.47,26.12s1.07-.2.81,1.37.29,3.82-2.58,3.48a4.6,4.6,0,0,1-.28-2.16A3.2,3.2,0,0,1,38.47,26.12Z"></path>
      <path class="cls-12" d="M21.28,24.85a3,3,0,0,0-2.12.84c-.76.88-.61,1.74-1.59,2s-1.18,0-1.35-.55c0,0-.39.66.51,1,0,0-.69.59-.59,1.2,0,0,.72-1,1.06-.9a3.75,3.75,0,0,1,.08.69c0,.12.2.16.33-.12s.48-1.31,1.36-.76.77,1.09.77,1.09.23.17.22-.21a3.08,3.08,0,0,0-.16-.91c0-.05,1.18.37,1.64-.26,0,0-2.55.47-2.06-.93s2.24-1.43,2.24-1.43S21.82,24.81,21.28,24.85Z"></path>
      <path class="cls-12" d="M26.48,35s1.38-4.64,3.31-2.36c1.22,1.45-1.25,1.24-1.25,1.24a3.4,3.4,0,0,0,1.15.21,1.3,1.3,0,0,0-.2,1.32s.92-2,.94.12c0,0,.24,1.08.3-.37s.45-2.59,2.63-.72a2.29,2.29,0,0,0-.92-1A.9.9,0,0,0,33,32.35a1.11,1.11,0,0,1-1.95.29c-1.24-1.23-3.4-2.52-4.87.79C25.49,35,26.48,35,26.48,35Z"></path>
      <path class="cls-12" d="M30,12.59a2.42,2.42,0,0,0-2.12,1.93c-.45,1.85-1.93,1-2,.56s-.3.84.83.94a1.91,1.91,0,0,0,0,1.76S27,16.2,27.94,16,30,18.45,30,18.45a4.15,4.15,0,0,0-.64-2.79s1-.19,1.05-.45c0,0-1.56.77-1.76-.53s1.87-1.44,1.87-1.44S30.82,12.38,30,12.59Z"></path>
      <path class="cls-12" d="M36.6,25.69s.46.58.94.6a1.94,1.94,0,0,0-.47.69s1.69-1.55,2.24.27c0,0,.18.63.25,0s-.37-.55-.24-.75,1,.25,1.27,1-.08-.48-.08-.48a2.46,2.46,0,0,0-.3-.43c-.09-.09.91.22,1.08-.74a1,1,0,0,1-1.45.17c-.77-.62-.49-1.72-1.84-2.55s-1.31-.09-.52.49S39.28,26.89,36.6,25.69Z"></path>
      <path class="cls-12" d="M33.6,1.32c-.55,4.22-1.11,8.52-2.69,12.51a57.36,57.36,0,0,1-3.22,5.92A17.21,17.21,0,0,0,26,25.41a23.57,23.57,0,0,0-.46,6.21c.24,2.21.94,4.37,1.34,6.56A69.3,69.3,0,0,1,28,52.27a.39.39,0,0,0,.77,0,71.12,71.12,0,0,0-1-13.36c-.39-2.32-1.09-4.6-1.43-6.93a23.08,23.08,0,0,1,.53-7.26,16.74,16.74,0,0,1,2.37-6A28.22,28.22,0,0,0,32,13.23,56.7,56.7,0,0,0,34.37,1.32c.07-.49-.71-.49-.77,0Z"></path>
      <path class="cls-12" d="M36.13,23a15.73,15.73,0,0,1-2.94,10.6,60.28,60.28,0,0,0-5.25,9.71c-.19.45.47.85.66.39A67.67,67.67,0,0,1,34.26,33.4,15.78,15.78,0,0,0,36.9,23c0-.49-.82-.5-.77,0Z"></path>
      <path class="cls-12" d="M20,20.44a21.4,21.4,0,0,1,.7,2.84,18.36,18.36,0,0,0,.89,2.55,10.79,10.79,0,0,0,1.58,2.43c.71.9,1.43,1.78,2.15,2.67.31.38.86-.17.55-.55-.68-.83-1.36-1.66-2-2.51a9.65,9.65,0,0,1-1.62-2.53,20.33,20.33,0,0,1-.8-2.35,21.21,21.21,0,0,0-.67-2.75c-.18-.46-.93-.26-.75.2Z"></path>
      <path class="cls-12" d="M12.35,34.29a19.9,19.9,0,0,0,15.44,8.94c.49,0,.49-.75,0-.78A19.11,19.11,0,0,1,13,33.9a.38.38,0,0,0-.66.39Z"></path>
      <path class="cls-12" d="M28.08,43.87a4.08,4.08,0,0,0,1.73.3,8.91,8.91,0,0,1,1.65.08.39.39,0,0,0,.2-.75,8.05,8.05,0,0,0-1.7-.1q-.42,0-.84,0l-.34-.06-.17-.05-.14-.06a.41.41,0,0,0-.53.14.39.39,0,0,0,.14.53Z"></path>
      <path class="cls-14" d="M34.25,36.23a9.6,9.6,0,0,0,.29,1.05c.57,1.75,1.8,6.6-1.26,8.62-3.77,2.49-4.5-2.06-3.52-3.21a3.19,3.19,0,0,0,.65-2.88,12.37,12.37,0,0,1-1-4.65A2,2,0,0,1,32.85,34,4.09,4.09,0,0,1,34.25,36.23Z"></path>
      <path class="cls-15" d="M32.34,34.1a1.41,1.41,0,0,0-1.25.6,1.68,1.68,0,0,0-.31,1.45,6.77,6.77,0,0,0,.75,1.78c.85,1.45,1.79,2.78,1.41,3.77s-.55,3.23,1.33,2.35a1.61,1.61,0,0,0,.89-1.15,5.9,5.9,0,0,0,.11-1.33A20.33,20.33,0,0,0,33.63,35,1.61,1.61,0,0,0,32.34,34.1Z"></path>
      <path class="cls-14" d="M26.71,21.27c-.31-1.07-.93-3.28-.42-4.13s1.84-3,3.9.21,1.5,8.4,1.12,9.22-1.25,3-3.09,2.34a2.3,2.3,0,0,1-1.43-1.84,10.14,10.14,0,0,1-.08-1.38C26.72,23.7,27.08,22.52,26.71,21.27Z"></path>
      <path class="cls-15" d="M29.73,28.78a1.37,1.37,0,0,1-1.6-1.29c0-1.31,1-2.89.3-5.55s-1.62-5.17.22-5.5,2.79,4.31,2.79,4.31S33,26.88,29.73,28.78Z"></path>
      <path class="cls-14" d="M15.61,35a11.34,11.34,0,0,1,.27-4.78l.08-.3A2.46,2.46,0,0,1,18.06,28c1.42-.05,2,.25,2.2,1.62S19.35,31.93,20,33s4,5.81,1.75,8.39-5.31-.9-5.74-4C15.81,36.25,15.69,35.54,15.61,35Z"></path>
      <path class="cls-15" d="M20.13,29s-.9-2-2.56,0-.28,7,.41,8.73,2.13,5.42,3.72,3.63c2-2.22-.51-6.32-.84-6.89s-1.33-1.66-1.05-2.58S20.54,29.6,20.13,29Z"></path>
      <path class="cls-6" d="M27.17,55.75a.46.46,0,0,0-.45-.16c-.25.07-.35.27-.31.34l.09.1c.07.06.2-.11.2-.12Z"></path>
      <path class="cls-7" d="M27.3,56.05s-.08-.34-.21-.34l-.27,0,0,.06s.13.22.18.24l.17,0Z"></path>
      <path class="cls-8" d="M27.29,56.1a.1.1,0,0,0-.05-.14l-.17,0-.24.18s-.07,0,.05,0,.11.07.22.06A.36.36,0,0,0,27.29,56.1Z"></path>
      <path class="cls-9" d="M27.07,55.93l-.15.15c-.06.07-.07.09-.14.05s-.26-.06-.31-.13,0-.07,0-.15a.37.37,0,0,1,.24-.15.25.25,0,0,1,.24,0A.56.56,0,0,1,27.07,55.93Z"></path>
      <path class="cls-6" d="M26.14,50a.67.67,0,0,0-.69-.1c-.33.19-.42.5-.33.59l.16.11c.11.06.24-.23.25-.23Z"></path>
      <path class="cls-7" d="M26.42,50.38s-.21-.46-.4-.43l-.4,0,0,.1s.25.28.33.29l.26,0A1.42,1.42,0,0,0,26.42,50.38Z"></path>
      <path class="cls-8" d="M26.42,50.44a.13.13,0,0,0-.11-.17,1.82,1.82,0,0,0-.25,0l-.29.33c-.05,0-.09,0,.09.07s.18.06.33,0A.46.46,0,0,0,26.42,50.44Z"></path>
      <path class="cls-9" d="M26.06,50.27s-.1.14-.17.26-.07.15-.18.12-.39,0-.48-.1-.09-.07,0-.22.14-.19.3-.28a.31.31,0,0,1,.36,0A1,1,0,0,1,26.06,50.27Z"></path>
      <path class="cls-6" d="M24.77,52.1a2.41,2.41,0,0,0-2.44.16c-1,.88-1,2-.71,2.24a3.73,3.73,0,0,0,.63.25c.41.16.67-.92.69-.94S24.77,52.1,24.77,52.1Z"></path>
      <path class="cls-7" d="M26,53.24s-1.06-1.43-1.67-1.18-1.32.45-1.32.45l0,.36s1.05.78,1.33.76.77-.12.9-.12A6.14,6.14,0,0,0,26,53.24Z"></path>
      <path class="cls-8" d="M26,53.45c0-.15-.07-.56-.5-.51a6.72,6.72,0,0,0-.84.18s-.63,1.14-.77,1.34-.27.24.35.16.68.06,1.15-.22A1.64,1.64,0,0,0,26,53.45Z"></path>
      <path class="cls-9" d="M24.69,53.12a7.07,7.07,0,0,0-.4,1c-.13.46-.13.58-.54.56s-1.34.24-1.7,0-.36-.2-.25-.72a1.9,1.9,0,0,1,.81-1.18,1.07,1.07,0,0,1,1.22-.26A3,3,0,0,1,24.69,53.12Z"></path>
      <path class="cls-6" d="M29.73,52.4a2.11,2.11,0,0,0-2.13,0c-.92.7-1,1.68-.75,1.91a3.86,3.86,0,0,0,.53.25c.35.16.64-.76.66-.77Z"></path>
      <path class="cls-7" d="M30.72,53.46s-.83-1.3-1.38-1.12-1.16.31-1.16.31l-.06.31s.86.74,1.1.74.68-.05.79-.05A5,5,0,0,0,30.72,53.46Z"></path>
      <path class="cls-8" d="M30.75,53.65c0-.14,0-.49-.41-.47a4.66,4.66,0,0,0-.74.11s-.62,1-.75,1.11-.25.19.3.16.58.09,1-.12A1.41,1.41,0,0,0,30.75,53.65Z"></path>
      <path class="cls-9" d="M29.6,53.29a6.51,6.51,0,0,0-.4.83c-.14.39-.16.49-.51.45s-1.17.13-1.48-.09-.29-.2-.17-.65a1.65,1.65,0,0,1,.78-1,.93.93,0,0,1,1.07-.15A2.45,2.45,0,0,1,29.6,53.29Z"></path>
      <path class="cls-6" d="M32.92,51.13a2.25,2.25,0,0,0-2.27-.29c-1.07.62-1.32,1.64-1,1.92a4.41,4.41,0,0,0,.53.35c.35.21.78-.73.81-.74Z"></path>
      <path class="cls-7" d="M33.84,52.39s-.72-1.5-1.32-1.38-1.29.18-1.29.18l-.1.32s.82.91,1.07.94.74,0,.85,0A6,6,0,0,0,33.84,52.39Z"></path>
      <path class="cls-8" d="M33.83,52.6c0-.15,0-.53-.36-.56a7.48,7.48,0,0,0-.81,0s-.78.94-.95,1.09-.29.17.3.21.61.18,1.09,0A1.45,1.45,0,0,0,33.83,52.6Z"></path>
      <path class="cls-9" d="M32.66,52.05a7,7,0,0,0-.54.84c-.2.39-.23.5-.6.41s-1.27,0-1.56-.3-.29-.24-.1-.71a1.79,1.79,0,0,1,1-.93,1,1,0,0,1,1.16,0A2.45,2.45,0,0,1,32.66,52.05Z"></path>
      <path class="cls-6" d="M33.84,55a.73.73,0,0,0,.66-.32c.17-.36.06-.68-.07-.71a.73.73,0,0,0-.2,0c-.13,0-.08.33-.08.34S33.84,55,33.84,55Z"></path>
      <path class="cls-7" d="M33.37,54.8s.46.27.6.13.31-.28.31-.28l0-.1a1.42,1.42,0,0,0-.46-.06l-.23.14A1.12,1.12,0,0,0,33.37,54.8Z"></path>
      <path class="cls-8" d="M33.33,54.74a.14.14,0,0,0,.2.09l.21-.15s0-.39.06-.46.05-.1-.12,0-.19.06-.29.19A.46.46,0,0,0,33.33,54.74Z"></path>
      <path class="cls-9" d="M33.74,54.68a3,3,0,0,0,0-.32c0-.14,0-.18.08-.22s.35-.22.48-.2.12,0,.15.17a.63.63,0,0,1-.09.43.34.34,0,0,1-.31.21A.81.81,0,0,1,33.74,54.68Z"></path>
      <path class="cls-6" d="M22.53,55.23a.93.93,0,0,0,.87-.36c.26-.44.14-.85,0-.9l-.25,0c-.17,0-.14.42-.14.43Z"></path>
      <path class="cls-7" d="M22,55s.56.38.75.22a5.1,5.1,0,0,1,.42-.33l0-.13a2,2,0,0,0-.58-.12l-.31.16A2.17,2.17,0,0,0,22,55Z"></path>
      <path class="cls-8" d="M21.91,54.89c0,.06.09.2.24.13l.29-.17s.09-.5.11-.58.07-.12-.14,0-.26.06-.39.22A.61.61,0,0,0,21.91,54.89Z"></path>
      <path class="cls-9" d="M22.44,54.85a2.68,2.68,0,0,0,0-.41c0-.18,0-.23.13-.27s.46-.25.62-.21.15,0,.18.23a.79.79,0,0,1-.15.53.44.44,0,0,1-.42.24A1.08,1.08,0,0,1,22.44,54.85Z"></path>
      <path class="cls-6" d="M26.51,53a.53.53,0,0,0,.54.09c.26-.14.33-.38.27-.45l-.13-.08c-.08-.06-.19.16-.2.16Z"></path>
      <path class="cls-7" d="M26.3,52.65s.16.36.3.34l.31,0,0-.07s-.19-.23-.25-.24l-.2,0Z"></path>
      <path class="cls-8" d="M26.31,52.6s0,.13.08.14h.19l.24-.25s.07,0-.07-.05-.15,0-.26,0A.32.32,0,0,0,26.31,52.6Z"></path>
      <path class="cls-9" d="M26.58,52.74a1.27,1.27,0,0,0,.14-.19c.05-.09.06-.12.14-.09s.31,0,.37.08.07.06,0,.17a.42.42,0,0,1-.24.21.24.24,0,0,1-.28,0A.72.72,0,0,1,26.58,52.74Z"></path>
      <path class="cls-6" d="M31.34,55a2.07,2.07,0,0,0,2-.6c.67-.93.5-1.89.16-2a4.59,4.59,0,0,0-.57-.09c-.38-.05-.39.91-.41.93Z"></path>
      <path class="cls-7" d="M30.09,54.28s1.17,1,1.64.67a10.75,10.75,0,0,1,1-.63l0-.32a4.3,4.3,0,0,0-1.26-.38c-.23.08-.63.25-.73.27A5.59,5.59,0,0,0,30.09,54.28Z"></path>
      <path class="cls-8" d="M30,54.11c0,.13.17.46.52.33a4.71,4.71,0,0,0,.67-.32s.31-1.08.39-1.27.18-.25-.33-.06-.58.07-.92.4A1.41,1.41,0,0,0,30,54.11Z"></path>
      <path class="cls-9" d="M31.21,54.12a5.91,5.91,0,0,0,.14-.91c0-.4,0-.51.36-.57s1.07-.46,1.43-.33.33.1.35.56A1.68,1.68,0,0,1,33,54a.94.94,0,0,1-1,.45A2.42,2.42,0,0,1,31.21,54.12Z"></path>
      <path class="cls-6" d="M25.12,54.22a1.38,1.38,0,0,0,1.42,0c.6-.48.66-1.13.47-1.28a3.08,3.08,0,0,0-.35-.16c-.24-.1-.42.52-.43.53Z"></path>
      <path class="cls-7" d="M24.45,53.53s.57.86.93.73.77-.23.77-.23l0-.2s-.59-.48-.75-.48-.45,0-.52,0A4,4,0,0,0,24.45,53.53Z"></path>
      <path class="cls-8" d="M24.43,53.4c0,.1,0,.33.28.31a3.43,3.43,0,0,0,.49-.08s.4-.64.48-.75.16-.13-.2-.1-.39-.05-.67.1A.93.93,0,0,0,24.43,53.4Z"></path>
      <path class="cls-9" d="M25.2,53.63a4.06,4.06,0,0,0,.26-.56c.08-.25.09-.33.33-.3s.77-.11,1,0,.2.13.12.43a1.08,1.08,0,0,1-.5.65.61.61,0,0,1-.71.11A1.49,1.49,0,0,1,25.2,53.63Z"></path>
    </g>
  </g>
</svg>
