<?xml version="1.0" encoding="UTF-8"?>
<svg xmlns="http://www.w3.org/2000/svg" xmlns:xlink="http://www.w3.org/1999/xlink" viewBox="0 0 108.72 214.47">
  <defs>
    <style>.cls-1{fill:#8e6848;}.cls-2{fill:url(#Безымянный_градиент_7);}.cls-3{fill:#713e21;}.cls-4{fill:#3d271f;}.cls-5{fill:#69391e;}.cls-6{fill:#6b482f;}.cls-7{fill:#5c3624;}.cls-8{fill:#795135;}.cls-9{fill:#9a734f;}.cls-10{fill:#e7e6e3;}.cls-11{fill:#85563a;}.cls-12{fill:#90b339;}.cls-13{fill:#bf301f;}.cls-14{fill:#d25650;}.cls-15{fill:#81a135;}.cls-16{fill:#a63021;}</style>
    <linearGradient id="Безымянный_градиент_7" x1="59.44" y1="247.03" x2="63.83" y2="165.32" gradientUnits="userSpaceOnUse">
      <stop offset="0.38" stop-color="#9b714f"></stop>
      <stop offset="0.91" stop-color="#754427"></stop>
      <stop offset="1" stop-color="#6e3c20"></stop>
    </linearGradient>
  </defs>
  <g id="Слой_2" data-name="Слой 2">
    <g id="Слой_1-2" data-name="Слой 1">
      <path class="cls-1" d="M63.86,158.19s8.18,9.61,14.51,10,27.91-6.44,27.91-6.44l2.17-22.48L63.86,123.55Z"></path>
      <path class="cls-1" d="M14.78,137.69,19.23,167S35,169.38,37.8,168.59s15.41-5.53,19-5.53,7.09-4.87,7.09-4.87V123.55Z"></path>
      <polygon class="cls-2" points="21.35 194.46 63.86 214.47 103.18 194.56 62.3 177.24 21.35 194.46"></polygon>
      <path class="cls-3" d="M21.35,194.46,19.23,167s20.15-.39,25.68-3.16,19-5.66,19-5.66L62.3,177.24Z"></path>
      <path class="cls-4" d="M50.08,168.72a7.3,7.3,0,0,0-2.42-1.42v0s-3.22-1-5,1.21S41.25,173,42,173.36a10.3,10.3,0,0,0,1.39.29s0,0,.08,0a22.83,22.83,0,0,0,3-.67,1.37,1.37,0,0,0,.52-.14c.14,0,.3-.08.55-.16,1.26-.39,1.42-.11,2.29-.86a3.39,3.39,0,0,0,.92-2.17,2.17,2.17,0,0,0-.17-.42h0l0,0A.82.82,0,0,0,50.08,168.72Z"></path>
      <path class="cls-4" d="M32.82,171.55a9.32,9.32,0,0,0-3.42,1.13v0s-3.66,2.29-3.06,5.82,3.11,5.22,4.15,4.77A12.36,12.36,0,0,0,32,182.15s0-.08,0-.11c.78-.9,1.36-2.69,1.88-3.45a1.81,1.81,0,0,0,.3-.62c.09-.17.18-.35.32-.67.69-1.54,1.09-1.45,1.1-2.94a4.31,4.31,0,0,0-1.31-2.72,2.71,2.71,0,0,0-.56-.2h-.06A1.07,1.07,0,0,0,32.82,171.55Z"></path>
      <path class="cls-5" d="M63.86,158.19,62.3,177.24l40.88,17.32,3.1-32.8s-12.75-1.47-18.28-.68-15.16,3.17-18.06,1.59A38,38,0,0,1,63.86,158.19Z"></path>
      <path class="cls-4" d="M48.29,177.76a2.72,2.72,0,0,0-1.07-.26h0a2,2,0,0,0-1.73,1c-.42,1,0,1.85.3,1.9a4.44,4.44,0,0,0,.55-.05s0,0,0,0a7.14,7.14,0,0,0,1-.59.57.57,0,0,0,.18-.1l.19-.13c.43-.28.52-.19.76-.58a1.28,1.28,0,0,0,.11-.91l-.12-.14h0A.37.37,0,0,0,48.29,177.76Z"></path>
      <path class="cls-4" d="M88.34,169.56a2,2,0,0,0-.09-.76h0s-.32-.85-1.08-.88-1.22.43-1.17.67c0,.06.12.24.17.35h0c.16.2.51.39.64.53a.41.41,0,0,0,.12.09l.12.09c.29.21.26.29.57.36a.93.93,0,0,0,.62-.16l.06-.11h0A.28.28,0,0,0,88.34,169.56Z"></path>
      <path class="cls-4" d="M99.76,183.33a9.36,9.36,0,0,0-1.62-3.25h0s-2.82-3.32-6.25-2.21-4.76,3.86-4.16,4.84a13.18,13.18,0,0,0,1.3,1.29s.08,0,.11,0c1,.65,2.89,1,3.72,1.37a1.87,1.87,0,0,0,.66.22l.71.22c1.64.46,1.61.88,3.1.67a4.39,4.39,0,0,0,2.53-1.7,2.59,2.59,0,0,0,.11-.59h0l0-.06A1,1,0,0,0,99.76,183.33Z"></path>
      <path class="cls-4" d="M77.54,172A7.18,7.18,0,0,0,76,174.31h0s-1.19,3.11.82,5,4.35,1.78,4.78,1a9,9,0,0,0,.39-1.36s0-.05,0-.08a21.9,21.9,0,0,0-.45-3,1.52,1.52,0,0,0-.09-.52c0-.15-.06-.3-.12-.56-.29-1.28,0-1.41-.69-2.33a3.35,3.35,0,0,0-2.07-1.08,1.9,1.9,0,0,0-.44.15v0l0,0A.8.8,0,0,0,77.54,172Z"></path>
      <path class="cls-6" d="M77.7,195.32A1.34,1.34,0,0,0,79,195c.46-.59.36-1.22.15-1.31a1.62,1.62,0,0,0-.38-.07c-.24,0-.27.58-.28.59Z"></path>
      <path class="cls-7" d="M76.89,194.82s.75.68,1.06.47.68-.39.68-.39l0-.21a2.8,2.8,0,0,0-.82-.27c-.15,0-.41.15-.48.16A3,3,0,0,0,76.89,194.82Z"></path>
      <path class="cls-8" d="M76.85,194.71c0,.08.1.3.33.22a2.76,2.76,0,0,0,.45-.19s.22-.7.28-.82.12-.16-.21,0-.38,0-.62.25A.89.89,0,0,0,76.85,194.71Z"></path>
      <path class="cls-9" d="M77.63,194.74a3.58,3.58,0,0,0,.11-.59c0-.26,0-.33.24-.37s.71-.28.94-.19.22.08.22.38a1.11,1.11,0,0,1-.32.74.62.62,0,0,1-.65.27A1.53,1.53,0,0,1,77.63,194.74Z"></path>
      <path class="cls-6" d="M68.61,190.1s2,.11,2.76-1.41.22-2.86-.31-3a6.62,6.62,0,0,0-.86,0c-.56,0-.31,1.42-.33,1.45S68.61,190.1,68.61,190.1Z"></path>
      <path class="cls-7" d="M66.61,189.4s2,1.13,2.54.53,1.3-1.19,1.3-1.19l-.13-.45a6.48,6.48,0,0,0-1.93-.21c-.31.17-.84.53-1,.59A7.83,7.83,0,0,0,66.61,189.4Z"></path>
      <path class="cls-8" d="M66.45,189.17c.1.18.37.62.84.34a8,8,0,0,0,.9-.64s.15-1.64.21-1.94.2-.41-.49,0-.82.26-1.22.83A2,2,0,0,0,66.45,189.17Z"></path>
      <path class="cls-9" d="M68.19,188.87a9.35,9.35,0,0,0,0-1.35c-.07-.59-.13-.74.36-.92s1.43-1,2-.87.51.05.65.71a2.43,2.43,0,0,1-.35,1.79,1.37,1.37,0,0,1-1.29.91A3.52,3.52,0,0,1,68.19,188.87Z"></path>
      <path class="cls-6" d="M60.14,196.71a3,3,0,0,0,3,.37c1.42-.84,1.74-2.2,1.37-2.57a7.3,7.3,0,0,0-.7-.45c-.47-.28-1,1-1.07,1Z"></path>
      <path class="cls-7" d="M58.9,195.05s1,2,1.77,1.82a16.6,16.6,0,0,1,1.71-.25l.13-.43S61.41,195,61.07,195s-1,0-1.12-.06A7.3,7.3,0,0,0,58.9,195.05Z"></path>
      <path class="cls-8" d="M58.9,194.78c0,.19,0,.7.5.73a8.26,8.26,0,0,0,1.07,0s1-1.25,1.24-1.46.38-.23-.4-.27-.8-.23-1.45,0A2,2,0,0,0,58.9,194.78Z"></path>
      <path class="cls-9" d="M60.47,195.49a9.42,9.42,0,0,0,.7-1.12c.27-.52.3-.67.8-.55s1.68,0,2.07.38.39.32.14.93a2.3,2.3,0,0,1-1.26,1.25,1.34,1.34,0,0,1-1.54,0A3.35,3.35,0,0,1,60.47,195.49Z"></path>
      <path class="cls-6" d="M56.49,191.24a2.28,2.28,0,0,0,.08-2.32c-.74-1-1.79-1.19-2.06-.88a4.19,4.19,0,0,0-.29.57c-.19.37.81.72.82.74S56.49,191.24,56.49,191.24Z"></path>
      <path class="cls-7" d="M55.3,192.29s1.45-.87,1.27-1.47a13,13,0,0,1-.3-1.29l-.34-.07s-.84.92-.84,1.18,0,.75,0,.86A5.77,5.77,0,0,0,55.3,192.29Z"></path>
      <path class="cls-8" d="M55.09,192.31c.15,0,.54,0,.53-.43a5.63,5.63,0,0,0-.09-.82s-1-.7-1.19-.85-.2-.27-.18.33-.13.63.1,1.1A1.54,1.54,0,0,0,55.09,192.31Z"></path>
      <path class="cls-9" d="M55.53,191.06a8.63,8.63,0,0,0-.9-.46c-.42-.16-.53-.18-.47-.57s-.11-1.28.15-1.61.22-.31.7-.16a1.76,1.76,0,0,1,1,.88,1,1,0,0,1,.13,1.17A2.66,2.66,0,0,1,55.53,191.06Z"></path>
      <path class="cls-6" d="M49.28,193a1,1,0,0,0,.33-.95c-.17-.52-.59-.72-.74-.63a1.92,1.92,0,0,0-.19.2c-.13.13.24.4.24.41Z"></path>
      <path class="cls-7" d="M48.66,193.23s.71-.17.71-.44a5.34,5.34,0,0,1,0-.58l-.13-.07s-.47.27-.5.38-.08.32-.1.36A2.37,2.37,0,0,0,48.66,193.23Z"></path>
      <path class="cls-8" d="M48.57,193.21c.06,0,.22.07.27-.11a2.34,2.34,0,0,0,.07-.35s-.34-.42-.39-.5-.05-.14-.11.11-.14.25-.1.47A.66.66,0,0,0,48.57,193.21Z"></path>
      <path class="cls-9" d="M48.91,192.75a3.81,3.81,0,0,0-.32-.3c-.15-.12-.19-.15-.12-.3s.12-.54.27-.65.13-.1.31,0a.75.75,0,0,1,.32.49.45.45,0,0,1-.1.51A1.13,1.13,0,0,1,48.91,192.75Z"></path>
      <path class="cls-6" d="M47.07,196.92s1.4-2.24.12-4-3.11-2-3.56-1.5a6.32,6.32,0,0,0-.51,1c-.32.65,1.41,1.24,1.43,1.28S47.07,196.92,47.07,196.92Z"></path>
      <path class="cls-7" d="M45,198.76s2.5-1.53,2.18-2.56-.54-2.23-.54-2.23l-.58-.12s-1.44,1.6-1.44,2.06.06,1.28.05,1.48A9.9,9.9,0,0,0,45,198.76Z"></path>
      <path class="cls-8" d="M44.67,198.79c.26,0,.93,0,.91-.74a10.77,10.77,0,0,0-.17-1.42s-1.77-1.2-2.07-1.46-.35-.47-.31.56-.21,1.09.18,1.91A2.68,2.68,0,0,0,44.67,198.79Z"></path>
      <path class="cls-9" d="M45.41,196.63a12.05,12.05,0,0,0-1.56-.79c-.72-.28-.92-.31-.82-1s-.2-2.22.24-2.79.38-.54,1.22-.3a3.14,3.14,0,0,1,1.81,1.52,1.76,1.76,0,0,1,.23,2A4.52,4.52,0,0,1,45.41,196.63Z"></path>
      <path class="cls-10" d="M63.28,147A1.4,1.4,0,0,0,65,147a7.76,7.76,0,0,1-.27,2.63,1.5,1.5,0,0,0,.76,1.65,5.71,5.71,0,0,0,3.3,1.13A9,9,0,0,1,74,154c.86.58,2.11,1.34,3.41.39.79-.57,1.49-.09,2,.56a9.28,9.28,0,0,1,.7,1.13c.37.62.84.92,1.56.53a1.15,1.15,0,0,1,1.51.25,1.27,1.27,0,0,0,1.6.32,1.45,1.45,0,0,1,1.58.17A10.91,10.91,0,0,0,94.13,160a4.09,4.09,0,0,1-3.46.3,11.16,11.16,0,0,1-4.25-2.07c-.6-.44-1.09-.69-1.79-.24a1.09,1.09,0,0,1-1.41-.26,1.32,1.32,0,0,0-1.51-.37,1.56,1.56,0,0,1-2.13-.83,9.93,9.93,0,0,0-.59-.94c-.53-.79-1.13-1-1.89-.25a1,1,0,0,1-1.55.06c-.42-.38-1-.55-1.4-.18s-.92,1.08-.55,1.79a2.48,2.48,0,0,1-.07,2.87c-.53.78.83.66,1,1.33.08.37.43-.05.66-.2a4.22,4.22,0,0,1,4.07-.61,4.39,4.39,0,0,1,1.74.78,2.12,2.12,0,0,1-1.85,0c-1.14-1-2.15.08-3.21,0,0,0-.08.11-.14.19.21.36.66.24,1,.44s.82.57.65,1.15-.73,1.31-.11,1.73a3.05,3.05,0,0,0,2.43.4c.71-.2,1.19-.24,1.63.39.2.29.5.2.8.18.87,0,1.44.36,1.78,1.47a2.71,2.71,0,0,0-2.16-.78c-.13,0-.27-.1-.41-.14-.43-.11-.52-1-1.16-.56s-.09.94-.07,1.4c0,.84.17,1.68.25,2.53a3.63,3.63,0,0,1-.1.58,2.92,2.92,0,0,1-.53-1.59,8.33,8.33,0,0,0-.49-1.92,1.35,1.35,0,0,0-1.24-.92c-1.53-.16-2-.92-1.51-2.34.09-.28.29-.57,0-.83a.74.74,0,0,0-.93,0c-.56.3-1.09.65-1.67,0-.12-.14-.48-.07-.74-.09s-.84.09-1-.08c-1-1.25-2.42-.57-3.57-1a.93.93,0,0,0-.44,0c-.23.05-.57-.1-.66.23s.17.4.34.53a10.64,10.64,0,0,1,3,3.77,3.46,3.46,0,0,0,2.46,1.64,3.5,3.5,0,0,1,2.6,2c-1-1.39-2.86-1.14-4.14-2-.08-.08-.11-.31-.27-.2s0,.25.09.35c.53,1.52.18,3,0,4.54a4.69,4.69,0,0,0,.38,2.17,1.47,1.47,0,0,0,1.38,1.06c1.12.11,2,1,3.23,1,.29,0,.73.3.81,1.18-1-1.22-2.47-.36-3.41-1.41-.25-.28-1.19-.4-1.37.06-.25.65-1.18,1.25-.51,2.09a2.27,2.27,0,0,1,.44,2.08,1.78,1.78,0,0,0,.16,1.4,1.28,1.28,0,0,1,.07,1.27,1.33,1.33,0,0,0,.83,2,3.29,3.29,0,0,1,2.24,3.22,9,9,0,0,0,.58,2,1.74,1.74,0,0,1-.46,2c.44-1.93-.88-3.38-.9-5.12,0-.65-.8-.91-1.3-1.27s-.87-.54-1.52-.93c0,4,.85,7.88.66,11.83a.66.66,0,0,1-.53-.64c0-3.29-.57-6.54-.86-9.8a2.44,2.44,0,0,1,.06-1.21c.87-1.76.46-3.66.23-5.38a17,17,0,0,1-.15-4c.12-1.16-.7-2.29-.93-3.5-.1-.54-.67-.25-1,0a9.19,9.19,0,0,1-1,1,1.94,1.94,0,0,1,1.12-1.8c1.37-.73,1.71-1.32,1.24-2.76-.85-2.59-2-5-4.42-6.56a6.33,6.33,0,0,1-.75-.65,1.08,1.08,0,0,0-.07,1.08,5.87,5.87,0,0,1-.15,4.32c-.32.74.4,1,.86.92a4.44,4.44,0,0,1,2.92,1.09.39.39,0,0,1-.66.09c-.92-.83-2.17-.53-3.22-.93-.31-.12-.63,0-.62.38s-.34.86.33,1.22a14,14,0,0,1,3.08,1.84c-.2.36-.6.35-.69.21-.48-.79-1.67-.4-2.08-1.28a.22.22,0,0,0-.37,0,.45.45,0,0,0,0,.39,2.25,2.25,0,0,1-.13,2.51.47.47,0,0,0,.1.69c.14.12.32.24.38.39.43,1.21,1,1.9,2.38,1a.67.67,0,0,1,.83.14c.32.38.59.27,1,.08.55-.27.83.06,1,.54,0,.1-.08.25-.13.38-.58-.75-1.41.58-2-.26-.31-.43-.73-.13-1.09.06-1.11.56-1.65.35-2.17-.79-.18-.41-.26-1.18-.83-.93s-.16.9-.05,1.41A2.34,2.34,0,0,0,67,178c.57,0,.88.46.85,1.47-.67-1.2-2-.24-2.55-1.4-.12-.23-.74.15-1,.45a.5.5,0,0,0,.16.84c1.31.51,1.54,1.7,1.89,2.83.1.33.21.62.63.66,1,.09,1.72,1,2.76,1a.83.83,0,0,1,.72,1.06c-.76-.81-1.9-.39-2.68-1.16-.38-.37-.85-.12-.77.55,0,.3.09.59.11.88a2.39,2.39,0,0,1-2,2.68,2.26,2.26,0,0,0-1.3.62c.76.16,1.33.56,2,.19a.57.57,0,0,1,.71.17,1.69,1.69,0,0,0,1.52.46,1.52,1.52,0,0,1,1.64,1.2c-1-.89-2.37-.29-3.45-1.11-.52-.39-1.45.12-2.22-.05-.28-.06-.28.39-.26.63,0,.4-.2.87.33,1.18a11.82,11.82,0,0,1,3.22,2.4c.3.35.51,0,.71-.21.52-.49,1-.58,1.52,0a1,1,0,0,0,.87.37c.47,0,.62.31.54.8-.61-.36-1.38-.07-1.9-.77-.28-.38-.65.11-.91.34-.7.65-1.24.59-1.59-.33-.1-.26-.15-.52-.48-.5-.63,0-.92-.37-1.18-.85a.86.86,0,0,0-1-.47c-.51.13-.35.59-.36.93a1.74,1.74,0,0,0,.81,1.8,1.31,1.31,0,0,1,.49,2,2.27,2.27,0,0,0-.15,2.1,10,10,0,0,1,.17,4.51,11.82,11.82,0,0,0,.22,4.07c.08.31.28.75-.12.84s-.4-.43-.51-.72a9.12,9.12,0,0,1-.26-4.28,18.13,18.13,0,0,0,.08-3.21c0-.26,0-.56-.31-.66s-.46.17-.64.35a3.59,3.59,0,0,0-1,2c0,.2,0,.54-.27.49s-.31-.34-.25-.63a4.51,4.51,0,0,1,1.24-2.43,1.61,1.61,0,0,0,.66-1.53.7.7,0,0,1,.11-.53c1-1.09.25-1.77-.58-2.43-.62-.5-1.53,0-2.14-.68-.09-.09-.34.39-.4.69a1.47,1.47,0,0,1-2.13,1.13c-.37-.17-.73-.05-1.07-.15a.57.57,0,0,1-.45-.76c.14-.44.4,0,.62,0a3.08,3.08,0,0,1,1.13.34c.61.29,1.11.07,1.3-.66.35-1.29.45-1.34,1.67-.89.47.17.81.08.87-.47.14-1.29.31-2.57.38-3.86s.41-1.86,1.71-2.2a2.57,2.57,0,0,0,1.28-.62c.29-.3.5-.72.16-1.08a.7.7,0,0,0-1,0c-.58.62-1.51,0-2.09.67-.11.12-.44,0-.47-.32s.18-.35.42-.42a10.9,10.9,0,0,0,2.68-.82c.37-.22.51-.4.39-.75-.31-1-.66-1.93-1.1-3.2-.48,1.31-1.09,2.07-2.28,2-.09,0-.2.1-.27.18s-.16.82-.61.42,0-.69.21-1a1,1,0,0,1,.89-.34c.43,0,.65-.21.82-.6.53-1.21.5-1.2-.8-1.36-.74-.08-1.45-.49-2.09.28-.12.14-.44-.08-.38-.36a1.41,1.41,0,0,1,2-.64c.5.33.82.35.93-.32a6.28,6.28,0,0,0,.07-3.57c-.31-.77-1.06-.82-1.45-1.37-.12-.16-.41.06-.52.27a.71.71,0,0,1-.75.36c-.5,0-.91-.07-1.1.6-.12.41-.58.33-.91.17.33-1.65,1.89-1.48,3-2,.15-.07.43,0,.63.12,1.33.53,2.25-.11,2.26-1.59,0-1.19-.75-2.22-.65-3.5a4.38,4.38,0,0,1-2.52,1.84,1.4,1.4,0,0,0-.84,1.1c0,.24-.21.43-.48.29a.41.41,0,0,1-.12-.59c.29-.57.73-1.22,1.28-1.32,1-.18,1.36-1,1.95-1.61.81-.8,2-1.34,2.1-2.69a.74.74,0,0,0-.19-.72A4.2,4.2,0,0,1,61,167a.93.93,0,0,1,1-.68A2.12,2.12,0,0,0,64.06,165c.11-.19.26-.43.44-.49,1.22-.38.89-1.14.49-1.95a1.81,1.81,0,0,0-1,.56c-1.63,1.52-3.29,3-4.84,4.64a2.92,2.92,0,0,0-.43,3.06,4.65,4.65,0,0,1-.41,4.13,3,3,0,0,0,0,3.52,2,2,0,0,1,.13,2.3,2,2,0,0,0,0,1.72,12.51,12.51,0,0,1,.41,5.8c-.1,1-.07,2-.14,3,0,.2.07.61-.32.58s-.31-.36-.33-.61c-.11-1.4.34-2.79.1-4.31a4.06,4.06,0,0,0-2,2.39,1.37,1.37,0,0,1,.54-1.86c2-1.26,1.66-3,1.08-4.79a3,3,0,0,1,0-2.14,3.94,3.94,0,0,0-.86-3.15c-.35-.24-.68,0-.87.25-1.24,1.52-2.74,2.91-2.85,5.06-.06,1,0,2.05,0,3.36a7.08,7.08,0,0,1-.69-3.16,8.1,8.1,0,0,1,4.07-6.2c.2-.12.42-.21.43-.46a5.08,5.08,0,0,1,.84-2c.11-.23.27-.5.06-.72s-.48-.07-.67.12c-.59.59-1.49.08-2.11.6-.1.08-.37,0-.42-.25s.14-.28.31-.35c.87-.33,1.79-.46,2.67-.8s.75-.63.56-1.11a6.1,6.1,0,0,1-.1-3.8c-.77,0-.75.05-1,.75-.09.21-.33.53-.5.53-1,0-1.09.56-.9,1.41-.61-.14-.63-.53-.62-.93s.17-.72.53-.76c.66-.06.8-.55,1.14-1A4,4,0,0,1,59,166.27a4.63,4.63,0,0,0,2.54-1.85A7.62,7.62,0,0,1,64,162.23a1.31,1.31,0,0,0,.88-1.38c-.06-.73-.75-.43-1.11-.69-.52-.39-.87,0-1.14.43a.76.76,0,0,1-.75.39,1.55,1.55,0,0,0-1.72,1.26,1.59,1.59,0,0,1,1.36-2,1.15,1.15,0,0,0,1-.56c.48-.74,1.31-.41,2.14-.42l-1.17-1.58c-.14-.19-.3-.15-.47,0-.68.51-1.25,1.12-2.32.85-.44-.12-.72.83-1.07,1.3-.19.26-.34.55-.53.87-.41-.22-.31-.57-.17-.83.36-.65.77-1.26,1.18-1.87a.78.78,0,0,1,.64-.39c1.63-.05,2.28-.8,2-2.37a4.1,4.1,0,0,1,.07-1.31,12.27,12.27,0,0,0,0-1.38c-.59.45-.75,1-1.24,1.35a4.7,4.7,0,0,1-2.47.43c-1.06,0-1.24.36-.85,1.34A2.06,2.06,0,0,1,57,158.49a2.68,2.68,0,0,0-1.26,1.16c-.15.24-.17.36,0,.55.78,1,.18,1.54-.68,1.83s-.86.41-.26,1,.58,1.05-.26,1.42c-1.17.53-1.24,1.76-1.69,2.75-.22.5-.14,1.16-.93,1.76.52-2,.43-3.85,2.06-5.06.26-.19.2-.4,0-.67-.55-.94-.42-1.44.6-1.79.68-.23.88-.39.4-1-.35-.47-.29-.52.63-1.79a2.71,2.71,0,0,0-2.33,1.67c-.35.83-.77,1.32-1.64,1.37-1.12.07-1.18,1-1.51,1.88a1.71,1.71,0,0,1,1.22-2.42,1.77,1.77,0,0,0,1.42-1.2,3.23,3.23,0,0,1,3.1-1.85,1.6,1.6,0,0,0,1.59-.78c.39-.5.13-1-.06-1.55-.38-1.1-.91-1-1.76-.55-1.08.57-2.22,1-3.34,1.48a3.58,3.58,0,0,0-1.26.89c-.92,1-1.48,1.2-2.78.56-1.14-.56-2.43-1-3.53-.54-1.84.81-4,1-5.49,2.59-1.13,1.19-2.17,1.22-3.28.31.08-.26.27-.22.44-.15a2,2,0,0,0,2.38-.69,4.89,4.89,0,0,1,3-1.66,1.65,1.65,0,0,0,.59-.27,6,6,0,0,1,5.72-.51c.61.26,1.41.87,1.95.23,1.35-1.62,3.37-1.91,5.08-2.79a11,11,0,0,1,5.23-1.25c.26,0,.6,0,.71-.25.53-1.18,1.43-2.2,1.67-3.49A13.59,13.59,0,0,1,63.28,147Zm.92,8.37a2.11,2.11,0,0,0,.65,2.38,2.41,2.41,0,0,1,.82,1.66c.09.58.39,1.2,1,1.19,1.19,0,2.35.26,3.52.27a2.22,2.22,0,0,1,1.63.51c.65.61,1.35.45,2.34.16l-.48-.28c-1.32-.76-1.35-.79-.54-2.08a1.48,1.48,0,0,0,0-1.66,1.68,1.68,0,0,1-.05-1.79c.47-.82.11-1.35-.61-1.69a6,6,0,0,0-1.76-.65c-2.15-.25-4.36-.18-6.27-1.72-.11.73-.17,1.25-.27,1.75-.22,1.14.57,1.52,1.4,1.84.23.09.62,0,.71.21a2.18,2.18,0,0,0,2.21,1.46.33.33,0,0,1,.3.4c-.06.24-.29.23-.45.18-.79-.27-1.86-.05-2.14-1.22a.46.46,0,0,0-.6-.35C65,156.11,64.7,155.73,64.2,155.38Zm2,29.27,0,.08h.07Z"></path>
      <polygon class="cls-11" points="14.78 137.69 63.86 158.19 108.45 139.28 63.86 123.55 14.78 137.69"></polygon>
      <path class="cls-12" d="M82.2,104.92a7.9,7.9,0,0,1,2.19-.21c1.69.32,2.44-.58,3.16-1.9A29.76,29.76,0,0,0,91.2,88a4.57,4.57,0,0,0-1.41-3.45A8.61,8.61,0,0,1,88.59,83c-.25-.39-.24-.87.41-.68,1.92.53,4.25.3,5.23,2.68.23.57.58.36.93.12a10.91,10.91,0,0,1,5.19-1.46,12.73,12.73,0,0,0,6.85-2.83c.36-.29.73-1,1.33-.5.44.4,0,.91-.22,1.33-1.59,2.94-2.87,6-4.77,8.8-2.27,3.31-5.61,4.75-8.83,3.93-.8-.21-1.57-1.28-2.24-.71-.5.42-.35,1.57-.57,2.37a31.17,31.17,0,0,1-3.22,8c-.44.73-.57,1,.47,1.36,4,1.24,7.65,1,10.91-1.84.3-.26.6-.6,1-.34s.26.61.1.92c-2,3.75-3.68,7.67-7,10.47s-7,4.09-11.34,2.68a9.24,9.24,0,0,1-4.56-3.56,31.64,31.64,0,0,0-5,1.72,58.13,58.13,0,0,1-7.9.94c-1.14,0-1.34.85-1.26,1.87a142.15,142.15,0,0,1,.33,17.39c0,.54-.13,1.07-.19,1.61a1.86,1.86,0,0,1-2.25,0,14.19,14.19,0,0,1-.12-3.68c.24-5-.19-9.93-.41-14.89,0-1.2-.53-1.77-1.8-1.76a40.22,40.22,0,0,1-15.61-2.64c-.65-.26-1.12-.34-1.26.55-1,6.51-6.52,9.91-12,10.9-5,.91-9.64-.62-14.22-2.31-1.75-.65-3.47-1.4-5.18-2.14-.38-.17-.88-.39-.71-1s.55-.52,1-.51c6.52.25,10.56-3.42,13.79-8.53,1.28-2,2.7-4,5.05-5,.73,1.64,1.37,3.34,3.28,4a4.12,4.12,0,0,1,2,2.45c-.32.86-1.2,1.14-1.81,1.68a26,26,0,0,1-12.28,5.86c-1.22.25-2.57-.08-4,.75a22.36,22.36,0,0,0,15.41-4.29c1.49-1.06,3.13-2,4.1-3.71a2.92,2.92,0,0,0,.89-1.47,1.49,1.49,0,0,1,1.46-1.19,3.21,3.21,0,0,0,2.41-.23l.74-.1c0,1.14.59,1.68,1.65,2.09a30.87,30.87,0,0,0,14.51,2.41c.41,0,1,.06,1.14-.43s-.45-.57-.73-.8c-4.81-3.9-10.12-5.49-16.2-3.51.63-.88,1.73-1.3,2.27-2.27a1.27,1.27,0,0,0,.42.09,18.82,18.82,0,0,1,13.91,4.13c.18.14.38.31.7,0,0-.2-.05-.44-.1-.66-1.17-4.73-2.19-9.49-3-14.29-.75-4.52-2.08-8.78-5-12.43a78.37,78.37,0,0,1-7.13-10.64c-.56-1-1.31-.73-2-.35a5.8,5.8,0,0,0-1.35,1.13c-.88.91-2,1.84-1.48,3.27s2.12,1,3.37,1c.44,0,1.06-.54,1.34.29l-1.27.12a2.29,2.29,0,0,0-1.69.59c-.52.61-1,.33-1.48.1v0l-.38-.25a2.63,2.63,0,0,0-3.37-.51c-1.4.78-2.57,1.16-3.92.12l0,.09c.09-.32-.14-.26-.31-.27l-.37-.15c-.25-.56-.72-1.11,0-1.83a2.21,2.21,0,0,0,2.51,1.67,3.46,3.46,0,0,0,2.69-1.85c.58-.91,1.08-1.87,1.69-2.76a5.69,5.69,0,0,1,3.39-2.45c1.12-.27,1.15-.74.64-1.61-1.23-2.12-2.26-4.39-3.68-6.37-.79-1.1-1.73-1.86-1.34-3.42.16-.68-.53-.44-.93-.22-1.24.68-2,1.9-2.93,2.86a9.4,9.4,0,0,1-4.47,2.44c1-2.49,1.19-5.3,4.6-5.79-.67-.71-1.1-1-1.73-.52-2.88,2.17-5.91,1.56-9,.49-3.39-1.17-5.09-4.05-6.9-6.79-1.08-1.64-2-3.37-3-5.06-.17-.29-.51-.6-.13-.9s.62.1.89.29a7.74,7.74,0,0,0,5.19,1.25c3.27-.25,6.51-.26,9.48,1.41s4.78,3.85,4.51,7.44c-.1,1.38,1.27,1,2,1.42.08-.18.18-.3.15-.33a5.07,5.07,0,0,1-.08-5.8c1.1-1.91.16-4,0-5.92-.22-2.75-.58-5.48-.61-8.24,0-.94-.28-1.42-1.22-1.66-3.29-.84-4.77-3.57-6.34-6.19a.43.43,0,0,1,.12-.64.68.68,0,0,1,.83.07c1.93,1.58,4.69,1.82,6.37,4.25.24-1.22.53-2.2-.14-3-3.51-4.32-2.52-8.7-.24-13.09,1.21-2.32,2.46-4.61,2.4-7.34,0-.24,0-.54.34-.55a.63.63,0,0,1,.48.24c1.85,4,4.3,7.89,4.38,12.56a8.64,8.64,0,0,1-2.43,6.73c-.22.23-.56.43-.48,1,1.68-.42,3.42-.54,4.86-1.66.27-.21.57-.71,1-.27s0,.68-.14.94c-1.73,2.54-3.56,5-6.72,5.88-.86.24-1.24.62-1.22,1.53a89.32,89.32,0,0,0,3,22.17,34.31,34.31,0,0,0,3.81,8.31,67.28,67.28,0,0,0,4.41,7c.69-3.86.8-7.36-.53-10.79-.58-1.5-1.3-3-2-4.43-2-4.29-1.4-8.06,1.87-11.52a4.13,4.13,0,0,0,1.2-2.62,10.52,10.52,0,0,1,.6-3.17,6.63,6.63,0,0,1,5.26-4.38,5.54,5.54,0,0,0-7.16-.17,6.93,6.93,0,0,1-4.82,1.46c-.43,0-.93.08-1.11-.49s.29-.76.69-.94c1.5-.7,1.87-2.21,2.54-3.49a5.26,5.26,0,0,1,7.8-2A2.45,2.45,0,0,1,53.66,35c-.31,1-.08,1.32.78,1.6a14,14,0,0,1,1.82.94c-.72-2.31-.15-4.61-2.19-6.46-3.37-3.05-3.69-7.1-2.65-11.31.18-.71-.09-1.93.81-2s.47,1.16.84,1.76a17.73,17.73,0,0,0,2.48,3.14C57.91,17,60.62,11.5,61.39,5.37a22.74,22.74,0,0,0,.24-4.12c0-.52-.08-1,.52-1.21S63,.3,63.21.8c2,5.91,4.85,11.53,5.89,17.74.68,4.05,0,7.83-2.77,11.05-1.88,2.18-4.41,3-7.13,3.45-2.09.32-2.09.3-1.63,2.37A103.31,103.31,0,0,0,60,45.57a19.35,19.35,0,0,0-.67,3.77A60.87,60.87,0,0,1,57,41.26c-.5-2.3-2-2.91-4-1.69-2.47,1.49-3.23,3.81-3.33,6.5,0,.62.25.74.77.75,2.87.1,4.5,1.83,5.31,4.35,1.46,4.51.55,8.84-1.36,13a110.11,110.11,0,0,1-5.67,11,.53.53,0,0,0,0,.66q2.9,4.17,5.8,8.35a.72.72,0,0,0,.45.31c.32,0,.29-.33.3-.56A79.44,79.44,0,0,1,57.37,72c.8-3.49,1.57-7,3.44-10.14a10.24,10.24,0,0,1,.73,2.93c-1.48,6.39-3.41,12.69-3.73,19.35a13.57,13.57,0,0,1,4.1-2.9c.6-.27.74-.59.38-1.25a5.32,5.32,0,0,1,0-5,11.17,11.17,0,0,1,2.77-3.76l.38.55c0,.61-.17,1.3.57,1.62s1.27-.14,1.74-.65c.17-.17.3-.37.45-.55a.58.58,0,0,0,.5-.42h.08a10.69,10.69,0,0,0,4.52-2,9.11,9.11,0,0,0,2.07-1.65,28.17,28.17,0,0,0,6.14-1.9,1.53,1.53,0,0,0,1.09-1.53c.11-2,.26-4,.42-6a1.72,1.72,0,0,0-.57-1.44,11.79,11.79,0,0,1-2.32-3.37,37,37,0,0,0-.1-7.8c1.28,1.77,3.1,3.16,3.86,5.32.22.62.62.36.92.12,1.86-1.45,4.13-1.77,6.32-2.3A10.8,10.8,0,0,0,99,42.93c.13-.3.15-.75.63-.64s.33.54.33.86c0,5.51-1.12,10.64-5.3,14.66a9.27,9.27,0,0,1-5.09,2.73c-1.43-.26-3,.12-4.29-.77-.4-.28-.68,0-.68.41,0,1.48-.42,3-.18,4.56a9,9,0,0,0,3.56-3c.38-.53.71-1.1,1.52-.73.59,1.2-.15,2.21-.59,3.19a15.29,15.29,0,0,1-4.25,5.21,2.39,2.39,0,0,0-1,1.53c-.46,3.86-1.31,7.65-2,11.47-.06.31-.35.71,0,.94s.65-.07.94-.25c2.4-1.42,4.15-3.58,6.16-5.45.34-.33.19-.72.2-1.1.12-4.4,1.41-7.63,5.78-9.32a22.06,22.06,0,0,0,6.88-4.41,9.69,9.69,0,0,1-2.11,5.05c-1.82,2.72-4.49,4.59-7,6.61a6.56,6.56,0,0,0-2.69,3.39c3-2.47,6.51-4.39,9-7.49a21.94,21.94,0,0,0,3.4-6.59c.19-.58,0-.82-.52-1,.17-.74.78-1.22,1.15-1.85a.56.56,0,0,1,.74-.29.59.59,0,0,1,.31.75c-1.06,4.77-1.16,9.79-3.72,14.16-1.69,2.9-5.66,5.35-9.58,3.31-.65-.34-.95,0-1.37.38a43,43,0,0,1-5.33,4.85c-.63.45-.66.68,0,1.12a8.56,8.56,0,0,1,3,3.75,5.92,5.92,0,0,1-2.13,7.77c-.44.31-.91.58-1.36.87a12.72,12.72,0,0,0-4.72,1.86c-1.13,0-.87-.69-.63-1.3s.65-1.41,1-2.12c2.63-2.82,2.77-6.1,1.81-10-.88,2-2,3.4-2.48,5.13L70,105.78l-.52.92-2.75,4.43c-.56.86-1.1,1.72-1.68,2.56-.32.46-.23.79.3.8,1.59,0,3.21.45,4.76-.21a5.66,5.66,0,0,0,2.87-.52,6.38,6.38,0,0,0,3-1.09c1.24-.13,2-.66,1.75-2.07a3.27,3.27,0,0,1,.51-1.95A8.71,8.71,0,0,1,82.2,104.92ZM69.09,84.24c.73-.35,1.44.06,2.16,0,1.51-.08,2.16-1.08,1.43-2.38a11.69,11.69,0,0,0-1.62-2.09,1.45,1.45,0,0,0-2-.25,23,23,0,0,1-4.17,1.82,11,11,0,0,0-5.21,3.44,6.2,6.2,0,0,0-1.46,5c.57,3.94,1.36,7.84,2.29,11.71.77,3.25,1.45,6.52,2.18,9.77.07.36,0,.9.5.94.36,0,.5-.42.68-.71.53-.87,1-1.77,1.54-2.66a69.54,69.54,0,0,0,4.79-7.58c2.55-4.37,5.1-8.73,7.23-13.32.52-.65,1.24-1.41,1-2.14-.15-.41-1.29-.19-2,.12a4.22,4.22,0,0,1-4.24-.57c-1-.57-2.09-.4-3.09-.8l0-.3Zm2.65-6.07a8.05,8.05,0,0,1,3.33,4.39,3.75,3.75,0,0,0,1.39,1.85c1.31,1,2.62.61,3-1,.51-1.89,1-3.8,1.31-5.73a35.74,35.74,0,0,0,.86-5.84A99.15,99.15,0,0,1,71.74,78.17ZM62.47,5a2.35,2.35,0,0,0,.33,1.81A15.81,15.81,0,0,1,63,20.4,27.6,27.6,0,0,1,58.9,27c-.94,1.17-1.9,2.45-1.69,4.19,1.69-2,3.24-4.14,4.73-6.28,3.51-5,3.72-10.68,2.32-16.46A10.87,10.87,0,0,0,62.47,5ZM98.38,45.42c-.59,3.39-2.82,5.11-5.28,6.35-1.8.9-3.7,1.49-5.53,2.31a4.26,4.26,0,0,0-2.84,3.82c2.21-2.84,5.31-3.54,8.2-4.7a9.23,9.23,0,0,0,4.65-3.89C98.25,48.16,99,46.9,98.38,45.42Zm-49.6,2.35c1.12,7.44,3.92,14.81.89,22.41C53.13,65.79,51.41,52.94,48.78,47.77Zm-11.41-35c-.52,1.09.28,1.59.38,2.25a19.77,19.77,0,0,1-1.39,11c-.71,1.63-.87,3.17-.18,4.29.58-3.08,2.55-5.62,2.76-8.7S39,15.69,37.37,12.78ZM96.7,107.45c-3.72,2.27-7.55,3.87-12,3.74a37.53,37.53,0,0,0-3.93.25,2.48,2.48,0,0,0-2,1c2.57-.79,5.17-.17,7.76-.32a18.5,18.5,0,0,0,7.73-2.42C95.14,109.18,96.32,108.69,96.7,107.45ZM32.05,57.72a1.69,1.69,0,0,0-.94-1.5,16.8,16.8,0,0,0-4.58-2.29c-3.51-1.31-7.24-2.17-10-5,0,0-.16.07-.26.12a2.13,2.13,0,0,0,1,1.56,16.85,16.85,0,0,0,3.91,2.29C24.79,54.37,28.62,55.32,32.05,57.72Zm71.14,27.82a22.2,22.2,0,0,1-6.84,3.63A34.6,34.6,0,0,0,93,90.74c-.27.13-.59.34-.42.66s.51.18.76,0C95,90.33,96.81,90,98.51,89.22,100.37,88.42,102.23,87.55,103.19,85.54ZM37,33.1c.66-.81,1.4-1.18,1.65-2.13C37.35,31,36.55,31.36,37,33.1Z"></path>
      <path class="cls-12" d="M29.85,103.67a34,34,0,0,1-6.08-12.14c-.25-.85-.24-2-.81-2.46-.73-.54-1.29.69-2,1.05C17.46,92,12.82,91.14,9.54,88a19.56,19.56,0,0,1-2.95-3.48C4.45,81.2,2.39,77.8.28,74.42,0,74-.17,73.61.21,73.22s.82-.09,1.17.18a17.32,17.32,0,0,0,11,3.52A14.06,14.06,0,0,1,19,78.48a12.25,12.25,0,0,0-.64-3c-.11-.57-.49-.67-1-.57a10.37,10.37,0,0,1-8.57-2.23c-.31-.23-.79-.35-.65-.85s.66-.37,1-.3c2.39.47,4.93-.58,7.26.69.58.32.69-.14.5-.58-.3-.72-.56-1.46-1.42-1.77C10.49,68,8.88,64,8.8,59.12c-.05-2.9.14-5.82-1.35-8.49-.11-.21-.2-.5.06-.66a.6.6,0,0,1,.54,0c3.85,2.87,8.09,5.36,10.21,10a8.28,8.28,0,0,1,.32,6.6.71.71,0,0,0,.17.84c1.22-1.3,2.79-2.21,3.58-3.92.16-.33.31-.85.8-.69s.29.65.25,1C23,66.92,22.4,70,20,72.25c-1.57,1.5,0,2.88.13,4.86,1.66-2.58,4.24-2.28,6.3-3.21.22-.09.49-.18.68,0a.57.57,0,0,1,0,.69,11.79,11.79,0,0,1-1.15,1.7A8,8,0,0,0,24,83a52.3,52.3,0,0,0,3.07,11.8A14.83,14.83,0,0,0,28,96.52,38.39,38.39,0,0,1,29.85,103.67Zm-7-17A6.56,6.56,0,0,0,19,84.28C14.56,83,10.19,81.63,6.64,78.46c-.06-.06-.24,0-.56.09a18,18,0,0,0,5.8,4.5,30.92,30.92,0,0,0,6.27,2C19.75,85.5,21.2,86.29,22.86,86.67ZM9.37,52.37c-.26.4,0,.57.11.74a18.44,18.44,0,0,1,4.42,9.71c.27,1.57.14,3.24,1,4.67.18.28.28.75.69.62s.16-.56.08-.87a8,8,0,0,1-.36-1.71,17.06,17.06,0,0,0-3-9.94C11.51,54.42,10.76,53.08,9.37,52.37Zm9.14,15.29c-1.61,1-1.65,1.22-.53,2.4Zm0,0,.11-.1a.93.93,0,0,0-.2-.1s-.07.06-.1.1Z"></path>
      <path class="cls-13" d="M73.53,40.74l.59,0a7.48,7.48,0,0,1,5.6,4.61c.06.29,0,.63.33.81l0,0a37,37,0,0,1,.1,7.8C79.65,59,78.81,64,75.37,68.14a9.11,9.11,0,0,1-2.07,1.65c-1.46,0-1.39-1-1.13-2,.54-1.94,1.43-3.81,1.1-5.92-.09,0-.22,0-.27.06a1.29,1.29,0,0,0-.3.48,23,23,0,0,1-3.79,8.68c-.13.17-.09.47-.13.71H68.7a.47.47,0,0,0-.5.42c-.15.18-.28.38-.45.55-.47.51-1,1-1.74.65s-.57-1-.57-1.62A2.86,2.86,0,0,0,66.75,70c.65-2,.09-3.9-.45-5.78-1.3-4.52-2.43-9-2-13.83a20.9,20.9,0,0,1,2.18-8.44,3.78,3.78,0,0,0,4.09-.61,5.21,5.21,0,0,1,4,3.16C75.09,42.73,74.35,41.73,73.53,40.74Z"></path>
      <path class="cls-14" d="M29.85,103.67A38.39,38.39,0,0,0,28,96.52a34.2,34.2,0,0,1-1-10.18,12,12,0,0,1,1.29-4.78,4.35,4.35,0,0,1,3.87-2.5l.37.15.31.27,0-.09A5.74,5.74,0,0,1,32.58,81c-1.19,2.45-.77,5-.45,7.49.3,2.33.69,4.64.9,7,.34,3.95.75,7.88,1.41,11.79.18,1.08.45,2.27-.66,3.12-1.91-.67-2.55-2.37-3.28-4C30.28,105.45,30.06,104.56,29.85,103.67Z"></path>
      <path class="cls-14" d="M66.44,41.94a20.9,20.9,0,0,0-2.18,8.44c-.39,4.83.74,9.31,2,13.83.54,1.88,1.1,3.79.45,5.78a2.86,2.86,0,0,1-1.31,1.86l-.38-.55a41.48,41.48,0,0,0-3.52-6.49,10.24,10.24,0,0,0-.73-2.93,67.9,67.9,0,0,1-1.53-12.54A19.35,19.35,0,0,1,60,45.57a8.76,8.76,0,0,1,3.79-4.14C64.61,41.77,65.61,41.42,66.44,41.94Z"></path>
      <path class="cls-14" d="M82.2,104.92a8.71,8.71,0,0,0-4,3.73,3.27,3.27,0,0,0-.51,1.95c.21,1.41-.51,1.94-1.75,2.07-.23-2.52.66-4.82,1.29-7.19.52-2,1.37-3.88,1.3-6a12.72,12.72,0,0,1,4.72-1.86A49.73,49.73,0,0,1,82.2,104.92Z"></path>
      <path class="cls-13" d="M73.31,115.54a31.64,31.64,0,0,1,5-1.72,5.34,5.34,0,0,0-.85,2.59,1,1,0,0,1-.76,1.1,1.17,1.17,0,0,1-1.3-.44A5.57,5.57,0,0,0,73.31,115.54Z"></path>
      <path class="cls-13" d="M33.78,110.34c1.11-.85.84-2,.66-3.12-.66-3.91-1.07-7.84-1.41-11.79-.21-2.33-.6-4.64-.9-7-.32-2.52-.74-5,.45-7.49a5.74,5.74,0,0,0,.26-1.58c1.35,1,2.52.66,3.92-.12a2.63,2.63,0,0,1,3.37.51l.38.25v0a2.27,2.27,0,0,0-.05.73,22,22,0,0,1,.88,6.35,2.36,2.36,0,0,0,.29,1c.11.27.3.53.66.46s.45-.33.48-.64c.11-1.17.21-2.33.33-3.49.18-1.69.38-3.38.58-5.07L45,79.2c3.11,1.14,4.16,3.62,4.4,6.68a40.49,40.49,0,0,1-.06,7.22c-.53,5-1.19,10.06-4,14.48-.54,1-1.64,1.39-2.27,2.27l-.37.24-.74.1c0-.44.37-.67.55-1,.88-1.57,1.75-3.16,1.5-5.07,0-.36-.07-.74-.46-.83s-.5.37-.63.65c-.89,2-1.26,4.21-3.09,5.68-.19.15-.19.53-.28.8a1.49,1.49,0,0,0-1.46,1.19,2.92,2.92,0,0,1-.89,1.47,1.92,1.92,0,0,1-1.4-.29A4.12,4.12,0,0,0,33.78,110.34Z"></path>
      <path class="cls-13" d="M72.23,85.31a4.22,4.22,0,0,0,4.24.57l1,2c-2.13,4.59-4.68,8.95-7.23,13.32a69.54,69.54,0,0,1-4.79,7.58,6.55,6.55,0,0,1-.52-.88,35.3,35.3,0,0,1-2.07-17.25c.39-3.39,2.84-5.49,6.18-6a7.51,7.51,0,0,0-.93,4.25C69.17,86.93,70.21,85.5,72.23,85.31Z"></path>
      <path class="cls-13" d="M78.55,99.5c.07,2.1-.78,4-1.3,6-.63,2.37-1.52,4.67-1.29,7.19a6.38,6.38,0,0,1-3,1.09,32,32,0,0,1-3-8l8.27-14.57a5.42,5.42,0,0,1,.35,2.46c.08.8-.28,1.67.32,2.41-.34.71-.71,1.4-1,2.12S77.42,99.52,78.55,99.5Z"></path>
      <path class="cls-15" d="M35.77,112.79a1.92,1.92,0,0,0,1.4.29c-1,1.67-2.61,2.65-4.1,3.71a22.36,22.36,0,0,1-15.41,4.29c1.45-.83,2.8-.5,4-.75A26,26,0,0,0,34,114.47C34.57,113.93,35.45,113.65,35.77,112.79Z"></path>
      <path class="cls-14" d="M78.91,96.08c-.6-.74-.24-1.61-.32-2.41a5.42,5.42,0,0,0-.35-2.46c.5-1.73,1.6-3.15,2.48-5.13C81.68,90,81.54,93.26,78.91,96.08Z"></path>
      <path class="cls-16" d="M43.69,79.32c-.2,1.69-.4,3.38-.58,5.07-.12,1.16-.22,2.32-.33,3.49,0,.31-.15.58-.48.64s-.55-.19-.66-.46a2.36,2.36,0,0,1-.29-1,22,22,0,0,0-.88-6.35,2.27,2.27,0,0,1,.05-.73c.5.23,1,.51,1.48-.1A2.29,2.29,0,0,1,43.69,79.32Z"></path>
      <path class="cls-15" d="M48.78,47.77c2.63,5.17,4.35,18,.89,22.41C52.7,62.58,49.9,55.21,48.78,47.77Z"></path>
      <path class="cls-15" d="M101.56,62.82c.48.18.71.42.52,1a21.94,21.94,0,0,1-3.4,6.59c-2.45,3.1-5.93,5-9,7.49a6.56,6.56,0,0,1,2.69-3.39c2.53-2,5.2-3.89,7-6.61a9.69,9.69,0,0,0,2.11-5.05Z"></path>
      <path class="cls-15" d="M96.7,107.45c-.38,1.24-1.56,1.73-2.49,2.23a18.5,18.5,0,0,1-7.73,2.42c-2.59.15-5.19-.47-7.76.32a2.48,2.48,0,0,1,2-1,37.53,37.53,0,0,1,3.93-.25C89.15,111.32,93,109.72,96.7,107.45Z"></path>
      <path class="cls-13" d="M66.7,111.13l2.75-4.43a29.27,29.27,0,0,0,1.29,5.3,1.5,1.5,0,0,1-.78,2.06C68.58,113.41,67.74,112.15,66.7,111.13Z"></path>
      <path class="cls-16" d="M68.78,71.84c0-.24,0-.54.13-.71a23,23,0,0,0,3.79-8.68A1.29,1.29,0,0,1,73,62s.18,0,.27-.06c.33,2.11-.56,4-1.1,5.92-.26,1-.33,1.94,1.13,2A10.69,10.69,0,0,1,68.78,71.84Z"></path>
      <path class="cls-16" d="M39.52,110.42c.09-.27.09-.65.28-.8,1.83-1.47,2.2-3.71,3.09-5.68.13-.28.16-.75.63-.65s.42.47.46.83c.25,1.91-.62,3.5-1.5,5.07-.18.33-.55.56-.55,1A3.21,3.21,0,0,1,39.52,110.42Z"></path>
      <path class="cls-16" d="M70.08,114.28a.37.37,0,0,1-.12-.22,1.5,1.5,0,0,0,.78-2.06,29.27,29.27,0,0,1-1.29-5.3l.52-.92a32,32,0,0,0,3,8A5.66,5.66,0,0,1,70.08,114.28Z"></path>
      <path class="cls-15" d="M103.19,85.54c-1,2-2.82,2.88-4.68,3.68-1.7.74-3.56,1.11-5.13,2.18-.25.18-.59.32-.76,0s.15-.53.42-.66a34.6,34.6,0,0,1,3.31-1.57A22.2,22.2,0,0,0,103.19,85.54Z"></path>
      <path class="cls-16" d="M69,84.64a.12.12,0,0,1,.11-.13c1,.4,2.14.23,3.09.8-2,.19-3.06,1.62-4.13,3.58A7.51,7.51,0,0,1,69,84.64Z"></path>
      <path class="cls-14" d="M77.46,87.9l-1-2c.67-.31,1.81-.53,2-.12C78.7,86.49,78,87.25,77.46,87.9Z"></path>
      <path class="cls-16" d="M68.2,72.27a.47.47,0,0,1,.5-.42A.58.58,0,0,1,68.2,72.27Z"></path>
      <path class="cls-16" d="M40.51,80l-.38-.25Z"></path>
      <path class="cls-13" d="M32.8,79.48l-.31-.27C32.66,79.22,32.89,79.16,32.8,79.48Z"></path>
      <path class="cls-15" d="M22.86,86.67c-1.66-.38-3.11-1.17-4.71-1.62a30.92,30.92,0,0,1-6.27-2,18,18,0,0,1-5.8-4.5c.32-.06.5-.15.56-.09C10.19,81.63,14.56,83,19,84.28A6.56,6.56,0,0,1,22.86,86.67Z"></path>
      <path class="cls-15" d="M9.37,52.37c1.39.71,2.14,2.05,3,3.22a17.06,17.06,0,0,1,3,9.94,8,8,0,0,0,.36,1.71c.08.31.41.7-.08.87s-.51-.34-.69-.62c-.9-1.43-.77-3.1-1-4.67a18.44,18.44,0,0,0-4.42-9.71C9.33,52.94,9.11,52.77,9.37,52.37Z"></path>
      <path class="cls-12" d="M69.12,84.21c-.18,0-.36,0-.43-.2a.34.34,0,0,1,.2-.11c.22,0,.3.12.2.34Z"></path>
      <path class="cls-6" d="M60.88,146.09a1.37,1.37,0,0,0-1.31-.48c-.72.23-1,.8-.88,1a2.23,2.23,0,0,0,.27.28c.18.17.56-.33.58-.33Z"></path>
      <path class="cls-7" d="M61.25,147s-.22-1-.59-1a7.75,7.75,0,0,1-.79-.07l-.11.18s.37.64.52.69.43.12.49.15A3.18,3.18,0,0,0,61.25,147Z"></path>
      <path class="cls-8" d="M61.22,147.08c0-.08.1-.31-.14-.38a3.21,3.21,0,0,0-.48-.1s-.59.45-.7.52-.2.06.14.16.34.19.65.15A.9.9,0,0,0,61.22,147.08Z"></path>
      <path class="cls-9" d="M60.6,146.6a3.89,3.89,0,0,0-.43.43c-.17.2-.2.27-.41.16s-.75-.18-.89-.39-.13-.18,0-.43a1,1,0,0,1,.69-.42.59.59,0,0,1,.69.14A1.47,1.47,0,0,1,60.6,146.6Z"></path>
      <path class="cls-6" d="M57.91,129.38a2,2,0,0,0-2-.29c-1,.54-1.2,1.45-1,1.7a5.27,5.27,0,0,0,.47.32c.32.19.71-.64.73-.65Z"></path>
      <path class="cls-7" d="M58.72,130.51s-.62-1.34-1.16-1.25-1.15.15-1.15.15l-.1.29s.72.81.95.84.66,0,.76.06A5.26,5.26,0,0,0,58.72,130.51Z"></path>
      <path class="cls-8" d="M58.72,130.7c0-.14,0-.48-.33-.51a6,6,0,0,0-.72,0s-.7.82-.85,1-.26.15.26.19.54.17,1,0A1.34,1.34,0,0,0,58.72,130.7Z"></path>
      <path class="cls-9" d="M57.67,130.2a6.7,6.7,0,0,0-.49.74c-.18.34-.21.44-.54.36s-1.13,0-1.39-.29-.25-.22-.08-.63a1.63,1.63,0,0,1,.87-.82.9.9,0,0,1,1,0A2.34,2.34,0,0,1,57.67,130.2Z"></path>
      <path class="cls-6" d="M53.92,135.51s-4.17-2.08-7.07.46-3.06,5.79-2.06,6.49a12.39,12.39,0,0,0,1.82.73c1.2.45,2-2.68,2-2.73S53.92,135.51,53.92,135.51Z"></path>
      <path class="cls-7" d="M57.47,138.79s-3.09-4.13-4.85-3.41a40.11,40.11,0,0,1-3.81,1.31l-.12,1.05s3,2.26,3.84,2.19,2.25-.33,2.61-.33A19.05,19.05,0,0,0,57.47,138.79Z"></path>
      <path class="cls-8" d="M57.59,139.42c0-.46-.21-1.64-1.45-1.48a18.71,18.71,0,0,0-2.46.53s-1.82,3.3-2.22,3.87-.78.69,1,.46,2,.19,3.33-.64A4.67,4.67,0,0,0,57.59,139.42Z"></path>
      <path class="cls-9" d="M53.68,138.47a20.87,20.87,0,0,0-1.13,2.87c-.38,1.31-.4,1.67-1.59,1.61s-3.86.71-4.93,0-1-.58-.72-2.1,1-2.23,2.36-3.41a3.08,3.08,0,0,1,3.52-.74A7.91,7.91,0,0,1,53.68,138.47Z"></path>
      <path class="cls-6" d="M68.31,136.38s-3.49-2-6.17,0-3,4.85-2.17,5.52a11.67,11.67,0,0,0,1.53.74c1,.46,1.86-2.21,1.92-2.25S68.31,136.38,68.31,136.38Z"></path>
      <path class="cls-7" d="M71.19,139.45s-2.43-3.78-4-3.26a34.3,34.3,0,0,1-3.39.91l-.16.91s2.5,2.14,3.2,2.13,2-.15,2.28-.14A15.31,15.31,0,0,0,71.19,139.45Z"></path>
      <path class="cls-8" d="M71.26,140c0-.4-.08-1.44-1.17-1.37a16,16,0,0,0-2.16.31s-1.78,2.76-2.17,3.22-.72.56.87.46,1.69.28,2.92-.35A4.07,4.07,0,0,0,71.26,140Z"></path>
      <path class="cls-9" d="M67.93,138.94a18,18,0,0,0-1.16,2.42c-.41,1.12-.45,1.43-1.48,1.3s-3.39.38-4.28-.27-.85-.57-.5-1.87,1-1.87,2.26-2.82a2.69,2.69,0,0,1,3.1-.43A7,7,0,0,1,67.93,138.94Z"></path>
      <path class="cls-6" d="M77.55,132.7S74.11,130,71,131.84s-3.85,4.76-3.06,5.58a13,13,0,0,0,1.54,1c1,.62,2.27-2.11,2.34-2.14S77.55,132.7,77.55,132.7Z"></path>
      <path class="cls-7" d="M80.21,136.35s-2.08-4.35-3.82-4-3.74.51-3.74.51l-.29.94s2.38,2.62,3.12,2.7,2.13.1,2.45.16A17.05,17.05,0,0,0,80.21,136.35Z"></path>
      <path class="cls-8" d="M80.21,137c.05-.43.1-1.55-1.06-1.62a16.72,16.72,0,0,0-2.35,0s-2.26,2.71-2.73,3.15-.84.5.86.61,1.75.52,3.16,0A4.35,4.35,0,0,0,80.21,137Z"></path>
      <path class="cls-9" d="M76.8,135.36a20.29,20.29,0,0,0-1.56,2.43c-.58,1.14-.66,1.46-1.74,1.19s-3.67,0-4.53-.87-.83-.71-.28-2.05,1.31-1.87,2.78-2.7a2.9,2.9,0,0,1,3.37,0A7.33,7.33,0,0,1,76.8,135.36Z"></path>
      <path class="cls-6" d="M80.22,143.83a2.09,2.09,0,0,0,1.91-1c.51-1,.18-2-.18-2a4,4,0,0,0-.59,0c-.38,0-.23,1-.24,1S80.22,143.83,80.22,143.83Z"></path>
      <path class="cls-7" d="M78.86,143.32s1.33.79,1.74.39.9-.8.9-.8l-.09-.31a4.31,4.31,0,0,0-1.32-.16c-.21.11-.58.35-.68.39A4.89,4.89,0,0,0,78.86,143.32Z"></path>
      <path class="cls-8" d="M78.75,143.16c.06.13.25.43.57.25a5.1,5.1,0,0,0,.62-.43s.13-1.13.17-1.33.14-.29-.33,0-.57.17-.85.56A1.37,1.37,0,0,0,78.75,143.16Z"></path>
      <path class="cls-9" d="M79.94,143a5.64,5.64,0,0,0,0-.93c-.05-.41-.09-.51.25-.63s1-.64,1.37-.58.35,0,.44.5a1.68,1.68,0,0,1-.26,1.22.91.91,0,0,1-.89.61A2.35,2.35,0,0,1,79.94,143Z"></path>
      <path class="cls-6" d="M47.45,144.56a2.64,2.64,0,0,0,2.51-1c.75-1.28.4-2.48-.05-2.61a4,4,0,0,0-.75,0c-.49,0-.38,1.21-.4,1.24S47.45,144.56,47.45,144.56Z"></path>
      <path class="cls-7" d="M45.75,143.81s1.63,1.12,2.18.64a14.76,14.76,0,0,1,1.23-.94l-.09-.4a5.24,5.24,0,0,0-1.66-.32c-.29.12-.78.39-.91.44A6.2,6.2,0,0,0,45.75,143.81Z"></path>
      <path class="cls-8" d="M45.63,143.59c.07.17.28.57.71.36a7.08,7.08,0,0,0,.83-.49s.25-1.42.33-1.68.2-.35-.43,0-.73.17-1.13.64A1.83,1.83,0,0,0,45.63,143.59Z"></path>
      <path class="cls-9" d="M47.17,143.46a9,9,0,0,0,.06-1.18c0-.52-.06-.66.38-.78s1.32-.73,1.79-.62.44.09.52.68a2.13,2.13,0,0,1-.44,1.53,1.2,1.2,0,0,1-1.19.7A3,3,0,0,1,47.17,143.46Z"></path>
      <path class="cls-6" d="M59,138a1.57,1.57,0,0,0,1.56.27c.76-.4,1-1.1.78-1.3a2,2,0,0,0-.36-.25c-.23-.16-.56.48-.57.48Z"></path>
      <path class="cls-7" d="M58.38,137.09s.45,1.06.87,1,.89-.08.89-.08l.08-.22s-.54-.65-.72-.68-.5,0-.58-.06A3.69,3.69,0,0,0,58.38,137.09Z"></path>
      <path class="cls-8" d="M58.38,137c0,.1,0,.36.24.39a4.5,4.5,0,0,0,.56,0s.56-.62.68-.72.21-.11-.2-.16-.41-.14-.75,0A1.06,1.06,0,0,0,58.38,137Z"></path>
      <path class="cls-9" d="M59.18,137.36a5.44,5.44,0,0,0,.39-.56c.15-.27.18-.34.43-.27s.87.05,1.07.25.19.18,0,.5a1.27,1.27,0,0,1-.69.61.7.7,0,0,1-.8,0A1.9,1.9,0,0,1,59.18,137.36Z"></path>
      <path class="cls-6" d="M73,143.91s3.91,1,5.87-1.75,1.46-5.47.48-5.87a11.78,11.78,0,0,0-1.68-.26c-1.09-.15-1.12,2.63-1.17,2.68S73,143.91,73,143.91Z"></path>
      <path class="cls-7" d="M69.36,141.82s3.4,2.89,4.74,1.94,3-1.83,3-1.83L77,141s-3-1.32-3.66-1.11-1.83.71-2.13.79A16.08,16.08,0,0,0,69.36,141.82Z"></path>
      <path class="cls-8" d="M69.14,141.31c.12.38.49,1.35,1.51,1a16.63,16.63,0,0,0,2-.91s.9-3.14,1.13-3.69.53-.74-.95-.19-1.69.22-2.68,1.18A4,4,0,0,0,69.14,141.31Z"></path>
      <path class="cls-9" d="M72.61,141.37a17.44,17.44,0,0,0,.41-2.64c.06-1.18,0-1.49,1-1.66s3.12-1.34,4.15-1,1,.29,1,1.62a4.83,4.83,0,0,1-1.33,3.34,2.71,2.71,0,0,1-2.83,1.3A7,7,0,0,1,72.61,141.37Z"></path>
      <path class="cls-6" d="M55,141.65s2.34,1.32,4.09-.07,1.93-3.26,1.38-3.69a7.68,7.68,0,0,0-1-.47c-.68-.29-1.2,1.49-1.24,1.52S55,141.65,55,141.65Z"></path>
      <path class="cls-7" d="M53,139.65s1.66,2.47,2.7,2.11,2.24-.65,2.24-.65l.1-.6s-1.69-1.4-2.16-1.38-1.31.13-1.51.12A9.82,9.82,0,0,0,53,139.65Z"></path>
      <path class="cls-8" d="M53,139.28c0,.27.07,1,.79.9a10.91,10.91,0,0,0,1.44-.23s1.14-1.86,1.39-2.18.47-.38-.58-.29-1.13-.17-1.94.27A2.72,2.72,0,0,0,53,139.28Z"></path>
      <path class="cls-9" d="M55.18,140a12.8,12.8,0,0,0,.73-1.63c.26-.75.28-1,1-.89s2.25-.29,2.85.13.57.36.35,1.23a3.22,3.22,0,0,1-1.46,1.91,1.8,1.8,0,0,1-2.06.32A4.59,4.59,0,0,1,55.18,140Z"></path>
    </g>
  </g>
</svg>
