<?xml version="1.0" encoding="UTF-8"?>
<svg xmlns="http://www.w3.org/2000/svg" viewBox="0 0 89.48 207.69">
  <defs>
    <style>.cls-1{fill:#cfcecf;}.cls-2,.cls-3{fill:none;stroke:#cfcecf;stroke-width:0.88px;}.cls-2{stroke-miterlimit:10;}.cls-3{stroke-linecap:round;stroke-linejoin:round;}.cls-4{fill:#e9c671;}.cls-5{fill:#84a63c;}.cls-6{fill:#708d34;}.cls-7{fill:#d7d7d7;}</style>
  </defs>
  <g id="Слой_2" data-name="Слой 2">
    <g id="Слой_1-2" data-name="Слой 1">
      <path class="cls-1" d="M29.77,175.45s.58-3.31,5.28-.88c0,0,.33.49,1.47,0s3.76-1.84,6.44-1.1c0,0,1.44-2.6,4.39,0,0,0,3,.34,3.1,2.77l.41,1.44s0,3.51-4.53,2.57a2.33,2.33,0,0,1-2.85,1.82l-1,.72a2.93,2.93,0,0,1-4.48.64,4,4,0,0,0-2.49-.7c-1.49.09-1.85-.77-2.4-1.38a10.31,10.31,0,0,0-1.66-1.21,2.71,2.71,0,0,1-.55-2.08C31.1,177.25,29.44,176.56,29.77,175.45Z"></path>
      <path class="cls-2" d="M16.17,178.26s2.14-2.23,6.6-1,8.66-1.55,8.66-1.55"></path>
      <path class="cls-2" d="M10.75,190.19s3.54-7.3,15.37-7.08c6.66.13,5.9-5.42,5.9-5.42"></path>
      <path class="cls-1" d="M31.22,181.64a7.61,7.61,0,0,1-1.9.78,7.11,7.11,0,0,1-2.06.21,5.92,5.92,0,0,1-2-.45,7.44,7.44,0,0,1-1.81-1.05.45.45,0,0,1-.09-.62.44.44,0,0,1,.62-.09h0l0,0a6.52,6.52,0,0,0,1.55,1,5.17,5.17,0,0,0,1.77.48A6.59,6.59,0,0,0,31,181.2h0a.24.24,0,0,1,.34.11A.26.26,0,0,1,31.22,181.64Z"></path>
      <path class="cls-2" d="M37.73,181.55A10.36,10.36,0,0,0,32,190.19"></path>
      <path class="cls-2" d="M31.43,193.73c-1,4.42-1.21,5.3-1.21,5.3"></path>
      <path class="cls-2" d="M36.22,201.8s-6.75-4.88-4.21-9.51"></path>
      <path class="cls-3" d="M39.83,182.89s-1.78,2.87-.83,4.64a10.47,10.47,0,0,0,2.63,3.76,10.3,10.3,0,0,1,2.74,5.09A8.63,8.63,0,0,0,46.25,200"></path>
      <path class="cls-2" d="M43.9,194.81s1.3,2.67,7,4.22"></path>
      <path class="cls-2" d="M39.57,188.61s1.88,1.91,1.24,3.68-2.18,7.18-1.24,8.73"></path>
      <path class="cls-2" d="M42.48,180.79s.52,5.64,2.92,6"></path>
      <path class="cls-2" d="M45.4,180.79a6.87,6.87,0,0,0,5.46,3.15c3.9.28,5.89,9.79,5.89,9.79"></path>
      <path class="cls-2" d="M48.87,177a15.34,15.34,0,0,0,8.69.71c4.94-1,7,1.55,7,1.55"></path>
      <path class="cls-2" d="M56.25,177.9s3.06,1.86,2.44,3.65"></path>
      <ellipse class="cls-4" cx="6.83" cy="191.49" rx="7.6" ry="4.4" transform="translate(-102.33 34.01) rotate(-32.69)"></ellipse>
      <path class="cls-4" d="M12.77,183.54a12.25,12.25,0,0,0-2,.64c-1.68.7-5.63,1.79-6.35-1.29-.93-4,6.82-6.15,7.69-6.52,1.55-.67,8.48.53,4.65,5.18A7.6,7.6,0,0,1,12.77,183.54Z"></path>
      <path class="cls-4" d="M27,188.9s-4.77.69-5.5,3.16-.05,3.79,1.06,4.61a3.77,3.77,0,0,0,5.28-.44c2.15-2.09,5-3.94,5.49-5,.31-.68.75-4-2.5-4.2S28.92,188.44,27,188.9Z"></path>
      <path class="cls-4" d="M34.27,204.51a3,3,0,0,1-.93-2,2.72,2.72,0,0,1,2-2.7c3.13-1.31,7.6.39,8.87,1.62s3.91,3.53-.07,5.61C40.62,208.89,36.13,206.39,34.27,204.51Z"></path>
      <path class="cls-4" d="M43.22,187.14s-.25-5.32,4.07-3.37,4.49,8.42,2.74,9S44.15,193.82,43.22,187.14Z"></path>
      <path class="cls-4" d="M61.92,180.15s.52-3.3,3.24-4,7.94,1.39,8.52,2,4.71,4,5.95,7.72,0,9.17-7.27,4.79S62.31,184.93,61.92,180.15Z"></path>
      <path class="cls-4" d="M55.41,195.57s-2-3.89,2.47-4.93,4.62.56,4.62.56,6.65,2.81,7.78,6.7S66.47,205.75,61,202,55.41,195.57,55.41,195.57Z"></path>
      <path class="cls-4" d="M36.12,192.91a5.35,5.35,0,0,0-1.38,4.1c.13,1.27.78,2.49,3,1.74,4.09-1.38,5.08-4.07,4.89-4.62s-.52-5.8-4.89-2.67A9.85,9.85,0,0,0,36.12,192.91Z"></path>
      <path class="cls-4" d="M31,201.57c.6-.9,2.45-4.09-1.42-3.87A1.59,1.59,0,0,0,28.2,200l0,.05c.74,1.36.88,3,2.35,2A1.49,1.49,0,0,0,31,201.57Z"></path>
      <path class="cls-4" d="M53.19,198.75s2.16,3.6-1.12,3.05-2-4.46-1-4.11S52.5,196.6,53.19,198.75Z"></path>
      <path class="cls-4" d="M60.7,179.31A2.66,2.66,0,0,0,57,182.39c.5,2.15,1.71,5.34,4.13,1.82C62.89,181.72,62.09,180,60.7,179.31Z"></path>
      <path class="cls-4" d="M21.4,181.55c-.5-.49-.63-3.35,2-2.55S23.86,184,21.4,181.55Z"></path>
      <path class="cls-4" d="M37.73,190.29s1.06-4.08-2.84-2.2S35.63,194.93,37.73,190.29Z"></path>
      <path class="cls-5" d="M35.53,0s-5,8.64,1.59,14.54a6.14,6.14,0,0,0,2.3-7.27C37.69,2.59,35.39,3,35.53,0Z"></path>
      <path class="cls-6" d="M36.11,16.27s1.15-4.9-6.19-4c0,0-1.87,1.15-5.62-1.3C24.3,10.94,27.9,22.46,36.11,16.27Z"></path>
      <path class="cls-5" d="M37.12,14.54s5.18-5.33,8.35-3.6,3.88,2.74,5.47,2.45S42.3,23.75,37.12,14.54Z"></path>
      <path class="cls-5" d="M36.77,21.16s-8.29-3.31-4.26,11.23c0,0,3.06,1.15,3.66-5Z"></path>
      <path class="cls-5" d="M49.35,19.15s-6.29,7.48,1.75,12.24c0,0,2.86-2.74,1.13-6.12S48.78,20.59,49.35,19.15Z"></path>
      <path class="cls-5" d="M54.82,25.27S50.65,18.43,56,15.69s7.19,2.41,7.19,2.41a4.06,4.06,0,0,0-3.31,4.5C60,26.63,54.82,25.27,54.82,25.27Z"></path>
      <path class="cls-5" d="M55.11,26.66s5.76-2.76,9.79,4.73C64.9,31.39,56.92,33.83,55.11,26.66Z"></path>
      <path class="cls-5" d="M48.78,37.29S48.2,30.83,60,32.48C60,32.48,59.86,43.62,48.78,37.29Z"></path>
      <path class="cls-6" d="M24.3,48.23s-.62-7.63,7.1-7.49C31.4,40.74,32.51,46.5,24.3,48.23Z"></path>
      <path class="cls-5" d="M41.15,53.12a2.21,2.21,0,0,0-.49-1.92c-.67-.84-2.14-1.7-5.27-2-6.77-.58-6.19-2-6.19-2S30.78,61.62,41.15,53.12Z"></path>
      <path class="cls-6" d="M49.9,52s3.76-5.32-1.13-9.07C48.77,42.9,45,48.81,49.9,52Z"></path>
      <path class="cls-5" d="M44.75,54.29s6.33-3.9,7.34,5.74C52.09,60,45.75,61.51,44.75,54.29Z"></path>
      <path class="cls-5" d="M61.12,69.29s-4.75-5.6,1.73-10.93C62.85,58.36,67.88,66.41,61.12,69.29Z"></path>
      <path class="cls-5" d="M71.05,52.56s1.87-4.15-4.75-5.44S60.69,44,60.69,44,60.11,58,71.05,52.56Z"></path>
      <path class="cls-5" d="M72.64,47.12s2.88-4.6-2.74-6.84a16.88,16.88,0,0,1-2.73-2.09C66.59,37.47,63.13,47,72.64,47.12Z"></path>
      <path class="cls-5" d="M73.84,64.54s-4.23-9.7,2.68-12A53.28,53.28,0,0,0,77,57.88C77.24,59.21,79.5,63.39,73.84,64.54Z"></path>
      <path class="cls-6" d="M75.1,65.6s.42,6,6.61,6.35c0,0-1-4.56-2.16-6.35S74.54,63.44,75.1,65.6Z"></path>
      <path class="cls-5" d="M68.54,100.24s-3.44-12.48-13.9-5.37C54.64,94.87,58.31,104.7,68.54,100.24Z"></path>
      <path class="cls-6" d="M37,14.41a2.56,2.56,0,0,1,.27,1.47c0,.47-.14.89-.22,1.31a13.13,13.13,0,0,0-.22,2.5,17.22,17.22,0,0,0,.91,4.94c.23.81.57,1.6.85,2.4s.67,1.57,1,2.34l1.14,2.3L42,33.91a24.34,24.34,0,0,1,2.2,4.87A19.18,19.18,0,0,1,45,44.1a27.22,27.22,0,0,1-2.13,10.45c-1.27,3.29-2.83,6.4-4.19,9.53-.69,1.57-1.33,3.14-1.86,4.73a26.42,26.42,0,0,0-1.17,4.8,27.68,27.68,0,0,0,.84,9.83c.8,3.28,1.9,6.52,3,9.8s2.19,6.6,3,10A43.61,43.61,0,0,1,44,113.88c0,.91-.06,1.82-.13,2.73L43.67,118l-.21,1.32c-.27,1.76-.65,3.48-1,5.19-.79,3.41-1.71,6.72-2.41,10a61.82,61.82,0,0,0-1.36,10,63.62,63.62,0,0,0,.36,10l.34,2.5.39,2.56.79,5.12.8,5.12.39,2.57.19,1.28.1.64,0,.33,0,.16V175c-1.78.15,4-.31-4,.62a2,2,0,1,1,4-.66c-8,1-2.2.43-4,.56v-.1l0-.16,0-.31-.1-.64L37.74,173l-.35-2.57-.71-5.13L36,160.15l-.36-2.57-.3-2.64a62.72,62.72,0,0,1,1.38-21.16c.78-3.43,1.77-6.77,2.59-10.07.4-1.65.8-3.3,1.08-5l.22-1.24.15-1.21c.08-.82.15-1.63.15-2.45a40.39,40.39,0,0,0-1.15-9.91c-.75-3.3-1.78-6.56-2.81-9.86S34.82,87.47,34,84a30.11,30.11,0,0,1-.72-10.73,39.24,39.24,0,0,1,3.37-10.12c1.45-3.18,3-6.23,4.31-9.38a26.82,26.82,0,0,0,2.26-9.67,18.45,18.45,0,0,0-.62-4.9,23.39,23.39,0,0,0-1.88-4.64l-1.19-2.33-1.09-2.38c-.35-.8-.65-1.62-1-2.43s-.58-1.66-.8-2.51a18.54,18.54,0,0,1-.79-5.25A13.82,13.82,0,0,1,36.23,17a3.63,3.63,0,0,0,.11-2.28h0a.35.35,0,0,1,.14-.48.35.35,0,0,1,.48.15Z"></path>
      <path class="cls-6" d="M43.77,41.34a48,48,0,0,0,3.87-3.94A38.58,38.58,0,0,0,51,33a23.22,23.22,0,0,0,2.43-4.92,17.38,17.38,0,0,0,.71-2.66,16,16,0,0,0,.23-2.78,11.84,11.84,0,0,1-.18,5.67,21,21,0,0,1-2.29,5.25,31.51,31.51,0,0,1-3.32,4.63,35,35,0,0,1-4,4.05.59.59,0,0,1-.83-.07.59.59,0,0,1,0-.82Z"></path>
      <path class="cls-6" d="M40.66,55.78c1.19-.35,2.4-.79,3.58-1.26a36.59,36.59,0,0,0,3.49-1.59,25.55,25.55,0,0,0,3.27-2,14.29,14.29,0,0,0,2.78-2.66,14.29,14.29,0,0,1-2.51,3,25.74,25.74,0,0,1-3.1,2.41,38.66,38.66,0,0,1-3.38,2c-1.17.62-2.33,1.2-3.58,1.72a.86.86,0,1,1-.66-1.58l.09,0Z"></path>
      <path class="cls-6" d="M15.11,54.73a23,23,0,0,1,2.59,3.8,28.56,28.56,0,0,1,1.93,4.16c.26.72.49,1.47.7,2.18s.44,1.4.7,2.09a25.94,25.94,0,0,0,1.87,4,27.06,27.06,0,0,0,5.59,6.66,32,32,0,0,0,7.28,4.67l0,0a1.28,1.28,0,0,1-1.1,2.31l-.08,0A39.07,39.07,0,0,1,30.72,82a29.77,29.77,0,0,1-3.58-3,30.56,30.56,0,0,1-5.58-7.36,27.76,27.76,0,0,1-1.82-4.24c-.24-.73-.45-1.47-.64-2.21s-.37-1.43-.6-2.13a24.9,24.9,0,0,0-4.09-7.74l0,0a.46.46,0,0,1,.08-.65A.46.46,0,0,1,15.11,54.73Z"></path>
      <path class="cls-6" d="M19.65,66a22.67,22.67,0,0,0,2.26-4.61,22.83,22.83,0,0,0,1.21-5,36,36,0,0,0,.15-5.2c0-.87-.11-1.74-.23-2.59a12.72,12.72,0,0,0-.56-2.47l0,0a.39.39,0,0,1,.22-.49.39.39,0,0,1,.49.22,13.26,13.26,0,0,1,.66,2.66,26.83,26.83,0,0,1,.27,2.67A35.3,35.3,0,0,1,24,56.48a24.19,24.19,0,0,1-1.18,5.25,23.25,23.25,0,0,1-2.32,4.89.54.54,0,0,1-.9-.58h0Z"></path>
      <path class="cls-6" d="M37.86,94.15a18.15,18.15,0,0,0,2.28-2.59,22.65,22.65,0,0,0,1.71-2.79c.63-1.19,1.19-2.51,2-4a53.76,53.76,0,0,0,2.6-5.38s0,0,0-.06a1,1,0,0,1,1-.69.69.69,0,0,1,.57.92c-.63,1.79-1.87,4.19-2.63,5.79s-1.28,3-1.91,4.29a23.39,23.39,0,0,1-1.74,3.11,15.34,15.34,0,0,1-2.4,3,1.07,1.07,0,0,1-1.49,0,1.05,1.05,0,0,1,0-1.48l0,0Z"></path>
      <path class="cls-6" d="M41.51,108.82a46.52,46.52,0,0,0,7.4-6.41,27.08,27.08,0,0,0,3-3.81,20.16,20.16,0,0,0,1.16-2.07l.45-1.08L54,94.26c2.4-6.33,5-12.55,7.59-18.76s5.39-12.34,7.94-18.57c1.27-3.11,2.55-6.23,3.61-9.38.14-.4.26-.79.36-1.18s.21-.79.31-1.21c.22-.83.46-1.66.74-2.47s.61-1.61,1-2.4A15.11,15.11,0,0,1,76.8,38a.55.55,0,0,1,.77-.12.54.54,0,0,1,.13.76l0,0a12.85,12.85,0,0,0-1.15,2.11,22.61,22.61,0,0,0-.89,2.29c-.26.78-.47,1.58-.66,2.38-.09.4-.19.81-.3,1.24a11.89,11.89,0,0,1-.36,1.24c-1,3.26-2.25,6.39-3.46,9.54C68.42,63.75,65.79,70,63.24,76.19S58.28,88.71,56,95L55.6,96.2l-.51,1.26a20.37,20.37,0,0,1-1.26,2.35A29.1,29.1,0,0,1,50.67,104,47.6,47.6,0,0,1,43,110.93a1.27,1.27,0,0,1-1.78-.28,1.28,1.28,0,0,1,.28-1.79h0Z"></path>
      <path class="cls-6" d="M66.78,65a22.72,22.72,0,0,0,4.28,0,28.54,28.54,0,0,0,4.29-.75c1.41-.34,2.77-.86,4.19-1.34.7-.23,1.42-.44,2.15-.62A7.93,7.93,0,0,1,82.81,62a2,2,0,0,1,.6,0,.64.64,0,0,1,.34.12.38.38,0,0,1,.13.46,0,0,0,0,1-.06,0h0l-.26-.16s0,0,0,0a.44.44,0,0,0-.18,0,2.2,2.2,0,0,0-.5,0,9.75,9.75,0,0,0-1,.24c-.7.21-1.39.46-2.07.73-1.35.54-2.72,1.15-4.16,1.59a28.44,28.44,0,0,1-4.38,1,23.58,23.58,0,0,1-4.55.3.69.69,0,0,1-.65-.71.68.68,0,0,1,.7-.65h.08Z"></path>
      <path class="cls-6" d="M63.14,73.37A24.64,24.64,0,0,1,61,70.86a28.35,28.35,0,0,1-1.82-2.7,27.86,27.86,0,0,1-1.53-2.85c-.46-1-.85-2-1.21-3a.38.38,0,0,1,.23-.47.36.36,0,0,1,.46.2h0a29.5,29.5,0,0,0,1.37,2.83,30.23,30.23,0,0,0,1.65,2.66A28.38,28.38,0,0,0,62.07,70a23.56,23.56,0,0,0,2.13,2.21l0,0a.79.79,0,0,1,.06,1.11.78.78,0,0,1-1.11.07Z"></path>
      <path class="cls-6" d="M36.81,152.82a8.18,8.18,0,0,0,1-.34,10.48,10.48,0,0,0,1-.48,12.52,12.52,0,0,0,1.9-1.26,15.13,15.13,0,0,0,3.16-3.37,24.8,24.8,0,0,0,3.52-8.8,49.25,49.25,0,0,1,3-9.6,19.67,19.67,0,0,1,6.49-7.8l0,0a7.15,7.15,0,0,1,1-.64c.34-.19.68-.35,1-.51.69-.3,1.39-.58,2.1-.81a38.49,38.49,0,0,1,4.3-1.16c.72-.17,1.45-.29,2.18-.43l2.18-.34,2.2-.28L74,116.8a.43.43,0,0,1,.1.86h0l-2.17.27-2.16.33-2.14.39c-.71.16-1.43.29-2.13.47a36.55,36.55,0,0,0-4.14,1.24c-.68.24-1.34.52-2,.82q-.48.22-.93.48a7.83,7.83,0,0,0-.82.53l0,0a18.39,18.39,0,0,0-5.85,7.4A47.56,47.56,0,0,0,49.14,139a41.93,41.93,0,0,1-1.3,4.88,21.68,21.68,0,0,1-2.27,4.67,17.61,17.61,0,0,1-3.5,3.92A14.34,14.34,0,0,1,39.89,154a12.51,12.51,0,0,1-1.21.62l-.63.26c-.23.08-.42.15-.72.23a1.16,1.16,0,0,1-.59-2.24h.07Z"></path>
      <path class="cls-5" d="M21.53,72s-8.5-1.58-7.78,9.51A7.47,7.47,0,0,0,18.5,88s-1.34-3,1.06-4.17S25,76.63,21.53,72Z"></path>
      <path class="cls-5" d="M57.42,85.51s8-7.73,14.69,1.77C72.11,87.28,60.4,93.48,57.42,85.51Z"></path>
      <path class="cls-5" d="M46.82,82.55s8.83,3.68,3.6,13.08C50.42,95.63,39.76,90.14,46.82,82.55Z"></path>
      <path class="cls-5" d="M42.21,123.13s2.4-10.75,7.39-11.51C49.6,111.62,51,126.83,42.21,123.13Z"></path>
      <path class="cls-5" d="M36.69,151.49s.58-4.55-5.28-4.46c0,0-3.22,1-3.79-2.35C27.62,144.68,26.81,157.83,36.69,151.49Z"></path>
      <path class="cls-5" d="M71.29,117.18s1.92-7.44,6.24-7.68,8-.48,8.25,8.79c0,0-4.55-4.66-8.83-1.49S71.29,117.18,71.29,117.18Z"></path>
      <path class="cls-5" d="M75.66,116.65s-4.61,8.64,5.61,14.31C81.27,131,85.64,119.15,75.66,116.65Z"></path>
      <path class="cls-5" d="M73.55,132.35a15.67,15.67,0,0,1-2.79-8.55c-.27-4.31-3.16-5-4.79-5.09a5.06,5.06,0,0,0-1.11.06S59.15,133.69,73.55,132.35Z"></path>
      <path class="cls-5" d="M66.25,117.66s2.83-8.59-9-7.2c0,0-7.44,2.55-5.18,9.36,0,0,1.1-2.92,4.36-1.51A12.06,12.06,0,0,0,66.25,117.66Z"></path>
      <path class="cls-5" d="M56,122.56s8.31-1.22,6,9.87c0,0-2.16-3.41-3.79-3.71S57,123,56,122.56Z"></path>
      <path class="cls-5" d="M50.27,129.56S45.76,141,60.88,139.35a8.53,8.53,0,0,1-4.18-5.52C55.7,129.8,52,129.47,50.27,129.56Z"></path>
      <path class="cls-5" d="M46.39,146.31s5.9-2.25,5.85,5.81,1.49,7.39,1.49,7.39S42,159.36,46.39,146.31Z"></path>
      <path class="cls-5" d="M46.33,80.52c.24-.24-2.7-4.66-4.08-6.24s-2.34-6-2.34-6-2.08.43-1.54,8.21S42.28,84.48,46.33,80.52Z"></path>
      <path class="cls-5" d="M62,76.77s1.44-5.18,9.26-2.15c0,0-.18,1.41,3.74-1C75,73.67,71.18,88.87,62,76.77Z"></path>
      <path class="cls-5" d="M47.37,78.79s5.59-2,3.67-7.63c-1.86-5.43,1.18-8.78,1.18-8.78s5.29,3.08,5.49,8.44c.18,4.72-.79,10.93-7.06,11a3.28,3.28,0,0,1-3.18-2.62C47.44,79.05,47.41,78.92,47.37,78.79Z"></path>
      <path class="cls-5" d="M76.52,63.82s9.07-12.67,13-.58a28.23,28.23,0,0,0-5.61,1.3C82.43,65.26,82,66.85,76.52,63.82Z"></path>
      <path class="cls-5" d="M73.37,48.88s10.35,5.74,12.37-5.35a55.27,55.27,0,0,1-7.49.42C75.9,43.76,73.25,46.76,73.37,48.88Z"></path>
      <path class="cls-5" d="M74.36,44s-4-10.65,10.23-8.35c0,0-3,3.89-3.46,5.33S78.83,43.52,74.36,44Z"></path>
      <path class="cls-5" d="M54.06,51.82s-4.17,8,3.75,12.72C57.81,64.54,61.61,56.71,54.06,51.82Z"></path>
      <path class="cls-5" d="M36.69,38.78S44.8,46,42.93,49.35a15.63,15.63,0,0,1-4.75-1.58C36.74,46.76,33.75,42.6,36.69,38.78Z"></path>
      <path class="cls-5" d="M31.32,60.3s1.92,14.6-8,12.59c0,0-3-7.57,2.5-10.08S29.88,62.1,31.32,60.3Z"></path>
      <path id="_1" data-name="1" class="cls-5" d="M22.21,35.72s-7.49,7.33,1.44,13.52c0,0,3.6-4.32,0-10C21.62,36,22.21,35.72,22.21,35.72Z"></path>
      <path class="cls-5" d="M24.13,55.43s-6.9,1.15-7.48-9.36A33.23,33.23,0,0,0,21.26,50C23,51,24.69,53,24.13,55.43Z"></path>
      <path class="cls-5" d="M19.39,61.91s-.72-4-7.49-2.16-5-.27-6-.5S10.61,73.86,19.39,61.91Z"></path>
      <path class="cls-5" d="M15.93,55.91s-2.5-7.8-11-3C4.91,52.94,12.12,62.23,15.93,55.91Z"></path>
      <path class="cls-5" d="M4.91,84.76s-4,13.61,9.38,12.6c0,0,2.72-8-2.9-10C7.05,85.78,4.91,84.76,4.91,84.76Z"></path>
      <path class="cls-5" d="M26.08,94.34S13,95.78,17.53,106.05c0,0,5.84,1.25,6.76-3.84S24.45,95.11,26.08,94.34Z"></path>
      <path class="cls-5" d="M16.59,105.86s-8.46,5.85-14.51-3.27c0,0,5.55-.91,7.56-3.07S18,101.63,16.59,105.86Z"></path>
      <path class="cls-5" d="M22.54,116.8s-4.05-6.54,7.18-10.62c0,0-.88,5.91-.54,7.69S24.48,119.78,22.54,116.8Z"></path>
      <path class="cls-5" d="M19.54,115.84s-3.44,5.29-4.59,6.68-7,2.59-9.21.07c0,0,3.25-.87,5.08-5.49S17.43,113.15,19.54,115.84Z"></path>
      <path class="cls-5" d="M28.38,123.71s-3.36-4.61,2.21-7.77,5.29-6.51,5.29-6.51S42.87,122.85,28.38,123.71Z"></path>
      <path class="cls-5" d="M27,123.8a5.45,5.45,0,0,0-5.68,1.06c-3,2.4-4.53.71-4.53.71S23,133.5,27,123.8Z"></path>
      <path class="cls-5" d="M32.16,129.08a10.93,10.93,0,0,0-6.75,6.59C22.86,142,19.36,140.41,19,140s6.44,6,13.19-1.25C36.75,133.84,32.16,129.08,32.16,129.08Z"></path>
      <path class="cls-6" d="M12.64,94.9a2,2,0,0,1-.05-.81c0-.06.14-.08.17,0s.06,0,.09.08a1.77,1.77,0,0,1,.12.17l.19.35c.24.48.45,1,.66,1.45.39,1,.75,2,1.11,3,.72,2,1.33,4,2,6a36,36,0,0,0,5.29,11.12,31.15,31.15,0,0,0,4.22,4.45c1.55,1.37,3.22,2.61,4.87,4a23.45,23.45,0,0,1,4.47,4.74,20.14,20.14,0,0,1,2.64,6,.86.86,0,1,1-1.65.49l0-.07a18.49,18.49,0,0,0-2.4-5.47,23.85,23.85,0,0,0-4.12-4.42c-1.57-1.34-3.26-2.64-4.84-4.07A30.28,30.28,0,0,1,21.05,117a36.61,36.61,0,0,1-5.16-11.67l-1.61-6.08c-.27-1-.55-2-.84-3-.15-.5-.3-1-.47-1.49-.05-.12-.09-.24-.15-.36s-.16-.25-.13-.23A2.58,2.58,0,0,0,12.64,94.9Z"></path>
      <path class="cls-7" d="M62.11,60.52s1.27-2.45-.86-3.65C61.25,56.87,59.71,59.32,62.11,60.52Z"></path>
      <path class="cls-7" d="M62.11,60.52a2.3,2.3,0,0,0-3,2.63,6.51,6.51,0,0,1,1.78-1C61.56,62,61.83,61.31,62.11,60.52Z"></path>
      <path class="cls-7" d="M62.11,60.52s-.6,2.61,1.3,3.38c0,0,.6-1.9,0-2.5S62.47,60.57,62.11,60.52Z"></path>
      <path class="cls-7" d="M62.11,60.52s1.13-2.86,2.86-2.26C65,58.26,65.23,61.69,62.11,60.52Z"></path>
      <path class="cls-7" d="M57.29,56.44s1.85-4.32,5.06-2.52a26.3,26.3,0,0,0-1.74,2.35C60,57.25,57.29,56.44,57.29,56.44Z"></path>
      <path class="cls-7" d="M57.29,56.44s2-4.11-2.71-4.18c0,0-.91,2.52,1.41,3.26C56,55.52,57.07,56,57.29,56.44Z"></path>
      <path class="cls-7" d="M57.29,56.44a3,3,0,0,0-4.51,2.16A3.7,3.7,0,0,0,57.29,56.44Z"></path>
      <path class="cls-7" d="M57.29,56.44A3.13,3.13,0,0,0,58.78,61S60.86,57.3,57.29,56.44Z"></path>
      <path class="cls-7" d="M53.78,48.27s.4-2.7,2.72-2.45C56.5,45.82,56.93,48.76,53.78,48.27Z"></path>
      <path class="cls-7" d="M53.78,48.27s2.53.47,1.08,2.9C54.86,51.17,52.23,50.05,53.78,48.27Z"></path>
      <path class="cls-7" d="M53.78,48.27s-1,1.65-2.15,1.87-1.29,1-1.29,1S49.74,46.69,53.78,48.27Z"></path>
      <path class="cls-7" d="M53.78,48.27s-3.17-.76-1.19-3.94C52.59,44.33,55.2,46.29,53.78,48.27Z"></path>
      <path class="cls-7" d="M49,79.29s.1-2,3.22-2.21C52.19,77.08,51.46,81,49,79.29Z"></path>
      <path class="cls-7" d="M49,79.29s1.15-2.93-1.11-3.79C47.86,75.5,45.7,78.19,49,79.29Z"></path>
      <path class="cls-7" d="M49,79.29s-3.36-.67-3.46,2.64c0,0,1.44-1.54,2.31-1.35S49,79.29,49,79.29Z"></path>
      <path class="cls-7" d="M49,79.29s-1.39,1.63,1.1,3.36C50.07,82.65,51.27,79.34,49,79.29Z"></path>
      <path class="cls-7" d="M44.26,74.83s1.49-3.6,4.71-2.21C49,72.62,46.18,77.18,44.26,74.83Z"></path>
      <path class="cls-7" d="M44.26,74.83s2.69,2.09,1.25,4.88C45.51,79.71,41.72,77.52,44.26,74.83Z"></path>
      <path class="cls-7" d="M44.26,74.83s.87-4.51-3.35-3.84C40.91,71,41.19,75.06,44.26,74.83Z"></path>
      <path class="cls-7" d="M44.26,74.83s-3.79-.63-4.55,2.57C39.71,77.4,42.78,78.48,44.26,74.83Z"></path>
      <path class="cls-7" d="M11.15,60.52a3.07,3.07,0,0,1,4.36-1.83S13.4,63.06,11.15,60.52Z"></path>
      <path class="cls-7" d="M11.15,60.52s.72-3.16-3.46-3.77C7.69,56.75,6.83,60.8,11.15,60.52Z"></path>
      <path class="cls-7" d="M11.15,60.52s-3.6-.39-4.8,2.63C6.35,63.15,10.14,63.59,11.15,60.52Z"></path>
      <path class="cls-7" d="M11.15,60.52a4.68,4.68,0,0,1,.86,6S8.41,63.15,11.15,60.52Z"></path>
      <path class="cls-7" d="M11.19,52.26a3.24,3.24,0,0,0-3.83,2.86S9.37,57,11.19,52.26Z"></path>
      <path class="cls-7" d="M11.19,52.26S8.75,49.65,11,48C11,48,13.64,50.2,11.19,52.26Z"></path>
      <path class="cls-7" d="M11.19,52.26s1.49-3.41,4-2.64C15.18,49.62,12.68,54.18,11.19,52.26Z"></path>
      <path class="cls-7" d="M11.19,52.26s-.81,3.94,2.14,4.18C13.33,56.44,15.51,52.93,11.19,52.26Z"></path>
      <path class="cls-7" d="M16.14,55.72s1.1-2.74-1-3.75C15.18,52,13.31,54.71,16.14,55.72Z"></path>
      <path class="cls-7" d="M16.14,55.72S12.35,54.11,13,58.34C13,58.34,15.51,57.49,16.14,55.72Z"></path>
      <path class="cls-7" d="M16.14,55.72S15,57.59,17.39,59.17C17.39,59.17,19.16,56.58,16.14,55.72Z"></path>
      <path class="cls-7" d="M16.14,55.72s.91-2.36,2.73-1.88C18.87,53.84,18.43,56.42,16.14,55.72Z"></path>
      <path class="cls-7" d="M18.25,47.26s.14-2.7-2.74-2C15.51,45.29,15.27,47,18.25,47.26Z"></path>
      <path class="cls-7" d="M18.25,47.26s-2.73,0-2.37,2l1.63-1C18.15,47.85,17.77,47,18.25,47.26Z"></path>
      <path class="cls-7" d="M18.25,47.26s-.53,1.15.43,1.63.87.68,1,1S20.7,47.73,18.25,47.26Z"></path>
      <path class="cls-7" d="M18.25,47.26a2.53,2.53,0,0,0,2.26-2.73S17.63,45,18.25,47.26Z"></path>
      <path class="cls-7" d="M23.48,43.14s-4.17,2.34-.67,6.09c0,0-.29-2,.43-2.46S24.25,44.25,23.48,43.14Z"></path>
      <path class="cls-7" d="M23.48,43.14s-2.54,1.78-3-3.12C20.51,40,24.06,40.46,23.48,43.14Z"></path>
      <path class="cls-7" d="M23.48,43.14s0-3.26,2.3-3.55C25.78,39.59,27.32,41.94,23.48,43.14Z"></path>
      <path class="cls-7" d="M23.48,43.14s3.7-1.63,4,3.36A3.54,3.54,0,0,1,23.48,43.14Z"></path>
      <path class="cls-7" d="M17.9,40s.35-4.22-4.31-3.07C13.59,37,13.91,40.31,17.9,40Z"></path>
      <path class="cls-7" d="M17.9,40s-4.26.25-3.83,3.44C14.07,43.46,17,43.57,17.9,40Z"></path>
      <path class="cls-7" d="M17.9,40s-1.64,3.32,2.61,4.51C20.51,44.53,21.54,39.93,17.9,40Z"></path>
      <path class="cls-7" d="M17.9,40a2.11,2.11,0,0,0,3-1.62A6,6,0,0,1,22,36.23C22.28,35.85,18.13,35.7,17.9,40Z"></path>
      <path class="cls-7" d="M28.82,38.4s-.32-2.65,1.62-3.58C30.44,34.82,32.5,37,28.82,38.4Z"></path>
      <path class="cls-7" d="M28.82,38.4a4,4,0,0,0-3.53-3.19A3,3,0,0,0,28.82,38.4Z"></path>
      <path class="cls-7" d="M28.82,38.4A2.67,2.67,0,0,0,26.52,42,3.32,3.32,0,0,0,28.82,38.4Z"></path>
      <path class="cls-7" d="M28.82,38.4s0,3.46,3.27,3.34C32.09,41.74,31.59,37.69,28.82,38.4Z"></path>
      <path class="cls-7" d="M78.21,67s.44-3.23,4.47-2.59C82.68,64.44,80.73,69,78.21,67Z"></path>
      <path class="cls-7" d="M78.21,67a3.63,3.63,0,0,0-3.59-4.39S74.08,66.68,78.21,67Z"></path>
      <path class="cls-7" d="M78.21,67s-3.63-1.22-5,2.16C73.25,69.19,76.74,70.31,78.21,67Z"></path>
      <path class="cls-7" d="M78.21,67s3.6,2.67.54,5.15a24.39,24.39,0,0,1-1.54-2.57C76.83,68.75,78.21,67,78.21,67Z"></path>
      <path class="cls-7" d="M84.94,61.14s-4.36.15-1.82,5c0,0,.48-1.65,1.2-2.1S85.23,62.3,84.94,61.14Z"></path>
      <path class="cls-7" d="M84.94,61.14s.68,3.22,3.6,3.22c0,0-.24-1.2-.62-2.4S86.46,60.71,84.94,61.14Z"></path>
      <path class="cls-7" d="M84.94,61.14s4.66.1,2.5-4.15C87.44,57,83.94,58.36,84.94,61.14Z"></path>
      <path class="cls-7" d="M84.94,61.14s.44-3.64-3.07-3.74C81.87,57.4,81.39,62,84.94,61.14Z"></path>
      <path class="cls-7" d="M78.56,58.31s2.35.87,3.77-2.68A3.47,3.47,0,0,0,78.56,58.31Z"></path>
      <path class="cls-7" d="M78.56,58.31s2-2.83-.62-4.17C77.94,54.14,76.17,56.59,78.56,58.31Z"></path>
      <path class="cls-7" d="M78.56,58.31s-4.41-1.2-4.17,2.83C74.39,61.14,76.69,63.35,78.56,58.31Z"></path>
      <path class="cls-7" d="M78.56,58.31A3.38,3.38,0,0,0,80,62.64S82.45,59,78.56,58.31Z"></path>
      <path class="cls-7" d="M83,39.59c-.48-.1-.95,2.72,1.57,3.87C84.56,43.46,87.38,40.55,83,39.59Z"></path>
      <path class="cls-7" d="M83,39.59s1.81.77,3.57-1.75a2.1,2.1,0,0,1,.68-1.23C87.81,36.18,83.71,36.38,83,39.59Z"></path>
      <path class="cls-7" d="M83,39.59s2.34-3.05-.38-4.38C82.61,35.21,80.62,37.05,83,39.59Z"></path>
      <path class="cls-7" d="M83,39.59S79.32,38.27,79.1,42C79.1,42,81.76,43.29,83,39.59Z"></path>
      <path class="cls-7" d="M77.66,34.82S75.25,37,80.18,38.13C80.18,38.13,80.47,35.9,77.66,34.82Z"></path>
      <path class="cls-7" d="M77.66,34.82S80,39.14,83,33.88C83,33.88,79.53,33.16,77.66,34.82Z"></path>
      <path class="cls-7" d="M77.66,34.82s4.48-1.8,2.53-5.62C80.19,29.2,76.94,31.43,77.66,34.82Z"></path>
      <path class="cls-7" d="M77.66,34.82s.86-3-3.45-3.75C74.21,31.07,73.56,35.32,77.66,34.82Z"></path>
      <path class="cls-7" d="M73,38.42s3.65,0,2-4.34A3.83,3.83,0,0,0,73,38.42Z"></path>
      <path class="cls-7" d="M73,38.42a3,3,0,0,0-3.38-3.6S69.38,39.72,73,38.42Z"></path>
      <path class="cls-7" d="M73,38.42s-4.61.58-2.09,5C70.89,43.46,73.35,40.64,73,38.42Z"></path>
      <path class="cls-7" d="M73,38.42s.56,3.31,3.38,3.1C76.36,41.52,76.87,37.42,73,38.42Z"></path>
      <path class="cls-7" d="M61.32,28.41s-2.3,4.87,2.16,5.32c0,0-.72-1.94,0-2.66S63.19,28.12,61.32,28.41Z"></path>
      <path class="cls-7" d="M61.32,28.41s1.44.72,3.89-.5a3.54,3.54,0,0,1,1.37-.58C67.08,27.33,62.54,24.52,61.32,28.41Z"></path>
      <path class="cls-7" d="M61.32,28.41s1.48-2.23-.59-3.67a7.56,7.56,0,0,1-1.35-1.15C59.09,23.16,57.15,28,61.32,28.41Z"></path>
      <path class="cls-7" d="M61.32,28.41s-1.12-1.94-6,0C55.36,28.41,58.8,33.16,61.32,28.41Z"></path>
      <path class="cls-7" d="M60.25,21.86a3.72,3.72,0,0,0,4.17,3.53S64.87,21.57,60.25,21.86Z"></path>
      <path class="cls-7" d="M60.25,21.86s2.87.58,4.53-3.67a4.24,4.24,0,0,1,.79-1.59C66.07,16.1,60.7,15.6,60.25,21.86Z"></path>
      <path class="cls-7" d="M60.25,21.86s1-3.82-3.36-4.39C56.89,17.47,56.23,21.79,60.25,21.86Z"></path>
      <path class="cls-7" d="M54.4,21.07s-.76,5.36,1.39,4.33c0,0,.82,0,.94,0s-.45-1.67-.3-2.39S55.4,21.43,54.4,21.07Z"></path>
      <path class="cls-7" d="M54.4,21.07s3,1.4,3.32-2A3.18,3.18,0,0,0,54.4,21.07Z"></path>
      <path class="cls-7" d="M54.4,21.07s1.32-3.14-2.5-4.74C51.9,16.33,50.65,20.28,54.4,21.07Z"></path>
      <path class="cls-7" d="M54.4,21.07s-3.23-.79-4.6,3.6C49.8,24.67,53.31,25.82,54.4,21.07Z"></path>
      <path class="cls-7" d="M42.22,15c-.26,0-.07,2.52,1.3,3.38s1.37.72,1.51,1.3S46.54,14.74,42.22,15Z"></path>
      <path class="cls-7" d="M42.22,15s1.79.5,3.13-1.66.62-1.8,1.34-2.16S42,10.06,42.22,15Z"></path>
      <path class="cls-7" d="M42.22,15s1.66-3.89-3.67-3.53a1.9,1.9,0,0,0,1.3,2.81C42.22,15,42.31,14.37,42.22,15Z"></path>
      <path class="cls-7" d="M42.22,15s-4.46-.51-3.16,4C39.06,19,41.5,18.48,42.22,15Z"></path>
      <path class="cls-7" d="M35.31,12.29s3.31-.14,4.61-2.3.47-3.1.47-3.1a5.34,5.34,0,0,1-2.08,1.37C37,8.69,35,8.55,35.31,12.29Z"></path>
      <path class="cls-7" d="M35.31,12.29s-1-4.68-3-4a1.56,1.56,0,0,1-2.28-1.15S28.47,14.52,35.31,12.29Z"></path>
      <path class="cls-7" d="M35.31,12.29s-6.94,1.33-5.23,5.09C30.08,17.38,31.93,18,35.31,12.29Z"></path>
      <path class="cls-7" d="M35.31,12.29S30,18.73,37.4,17.4c0,0-2.09-1-.79-2.32S35.31,12.29,35.31,12.29Z"></path>
    </g>
  </g>
</svg>
