<?xml version="1.0" encoding="UTF-8"?>
<svg xmlns="http://www.w3.org/2000/svg" viewBox="0 0 190.53 217.01">
  <defs>
    <style>
      .cls-1 {
        fill: #90b339;
      }

      .cls-2 {
        fill: #e4a633;
      }

      .cls-3 {
        fill: #ebbc36;
      }

      .cls-4 {
        fill: #c1761a;
      }

      .cls-5 {
        fill: #d6881f;
      }

      .cls-6 {
        fill: #81a135;
      }

      .cls-7 {
        fill: #ad6719;
      }

      .cls-8 {
        fill: #a63021;
      }

      .cls-9 {
        fill: #bf301f;
      }

      .cls-10 {
        fill: none;
        stroke: #90b339;
        stroke-linecap: round;
        stroke-linejoin: round;
        stroke-width: 2.13px;
      }
    </style>
  </defs>
  <g id="Слой_2" data-name="Слой 2">
    <g id="Слой_1-2" data-name="Слой 1">
      <g>
        <path class="cls-1" d="M190.2,140.85c-1-.95-1.69.36-2.34.87a22.15,22.15,0,0,1-12,5c-3.19.3-6.34.73-9.09,2.57-.65.41-1.24.78-1.65-.22-1.71-4.17-5.79-3.76-9.15-4.7-1.14-.32-1.16.51-.71,1.2a14.19,14.19,0,0,0,2.09,2.6,8,8,0,0,1,2.47,6,52,52,0,0,1-6.4,26c-1.26,2.33-2.54,3.9-5.54,3.33-1.21-.23-2.55.23-3.82.37-.62.34-1.23.69-1.82,1.07l-.53.36a.51.51,0,0,0-.13.09c-.4.28-.79.57-1.16.88a13.61,13.61,0,0,0-1.64,1.58,12.69,12.69,0,0,0-1.82,2.6,5.89,5.89,0,0,0-.91,3.42c.27,1.77-.3,2.75-1.45,3.24a.9.9,0,0,1-.21.08,5.11,5.11,0,0,1-1.33.29H133a11.62,11.62,0,0,1-2.39,1.26c-.22.08-.44.16-.67.22s-.45.13-.68.18a8,8,0,0,1-1.46.25h-.06l-.5.22a8.14,8.14,0,0,1-.91.31,9.66,9.66,0,0,1-3.59.38c-2.73,1.16-5.56.42-8.34.37-.94,0-1.09-.6-.54-1.4,1.06-1.49,2-3,3-4.49l4.82-7.77.91-1.62,14.49-25.51c.88-3,2.81-5.54,4.34-9a0,0,0,0,0,0,0c1.3,5.31,1.44,10-.73,14.1-.2.37-.42.74-.65,1.11a5.77,5.77,0,0,1-.37.54l-.4.54q-.45.59-1,1.17s0,0,0,0c-.59,1.24-1.24,2.45-1.74,3.72-.41,1-.89,2.26,1.11,2.26l0,0h0c2.42-1.87,5.37-2.44,8.23-3.22h0c.79-.52,1.61-1,2.37-1.51,4.73-3.3,6.12-8.34,3.73-13.63a15,15,0,0,0-5.33-6.55c-1.15-.81-1.1-1.22,0-2A74.57,74.57,0,0,0,156,139c.72-.73,1.26-1.26,2.4-.67,6.87,3.58,13.78-.72,16.78-5.79,4.52-7.66,4.66-16.47,6.52-24.82a1,1,0,0,0,.08-.38,1.09,1.09,0,0,0-.08-.39,1,1,0,0,0-.21-.32,1.19,1.19,0,0,0-.33-.22,1,1,0,0,0-.75,0,1,1,0,0,0-.55.52c-.63,1.1-1.7,1.93-2,3.24l.07,0c.78.31,1.17.75.83,1.72a38.17,38.17,0,0,1-5.95,11.55c-4.26,5.38-10.28,8.74-15.55,13l-.15.12c.72-2.7,2.72-4.34,4.72-5.94,4.42-3.53,9.1-6.82,12.3-11.59,1.79-2.66,3.6-5.42,3.68-8.84a38.33,38.33,0,0,1-12,7.72c-7.66,3-9.93,8.63-10.14,16.34,0,.67.26,1.35-.35,1.92-3.51,3.29-6.58,7.07-10.79,9.57-.51.3-1,.86-1.65.44s-.1-1.11,0-1.66c1.24-6.69,2.73-13.33,3.54-20.1a4.28,4.28,0,0,1,.63-1.53,4.49,4.49,0,0,1,1.18-1.16c3-2.6,5.8-5.45,7.45-9.12.74-1.72,2-3.48,1-5.59-1.41-.65-2,.36-2.66,1.28a15.75,15.75,0,0,1-6.24,5.2c-.42-2.83.32-5.41.32-8,0-.72.48-1.21,1.2-.72,2.31,1.56,5,.9,7.5,1.35a16.15,16.15,0,0,0,8.92-4.79c7.3-7,9.25-16,9.3-25.68,0-.52.24-1.34-.59-1.52s-.87.61-1.1,1.14c-2.71,6.06-7.34,9.53-13.71,11.06-3.82.89-7.81,1.46-11.06,4-.53.42-1.22.88-1.61-.22-1.33-3.73-4.45-6.14-6.7-9.21h0l-.06-.09a65,65,0,0,1,.18,13.66l.05.11h0a20.72,20.72,0,0,0,3.95,5.79,3,3,0,0,1,.81,1.15,3,3,0,0,1,.19,1.38c-.28,3.52-.54,7-.73,10.52a2.69,2.69,0,0,1-.49,1.67,2.72,2.72,0,0,1-1.42,1,49.19,49.19,0,0,1-10.56,3.29h0l-.2,0c-1.21,1-2.12,2.29-3.62,2.9h0l-.07.06c-2.19,2-5,2.67-7.72,3.49h0l-.09,0h-.15v0a.14.14,0,0,1,0,.06.82.82,0,0,1-.29.42.9.9,0,0,1-.44.21l-.11,0c-.26.35-.5.69-.78,1-.78.88-1.69,1.69-3,1.13a1.91,1.91,0,0,1-.45-.27s0,0,0,0c-.77-.62-.54-1.63-.54-2.55-.23-.35-.46-.67-.68-1a19.86,19.86,0,0,0-4.85,6.6c-1.27,2.9-1.57,5.83,0,8.68.64,1.19.4,1.7-.66,2.19a24,24,0,0,0-7.18,5.07c.53-11.67,3.94-22.71,6.53-33.9.08-1.84-.84-3.42-1.28-5.13-3.25,5.49-4.61,11.64-6,17.76-1.56,6.87-3.19,13.74-3.7,20.81,0,.44,0,1-.53,1-.26,0-.61-.28-.78-.53q-5.1-7.32-10.17-14.64a.93.93,0,0,1-.2-.58,1,1,0,0,1,.2-.58,187.31,187.31,0,0,0,9.94-19.19c3.39-7.31,4.93-14.9,2.39-22.81-1.43-4.42-4.31-7.44-9.31-7.61-.92,0-1.36-.23-1.36-1.33C87.21,76,88.53,72,92.87,69.28c3.58-2.11,6.18-1,7.06,3a106.79,106.79,0,0,0,3.95,14.15,34.14,34.14,0,0,1,1.18-6.58h0C103.14,74,102.21,68,100.88,62c-.8-3.63-.8-3.59,2.86-4.15,4.78-.68,9.2-2.19,12.49-6,4.86-5.64,6-12.27,4.86-19.37-1.82-10.89-6.86-20.73-10.33-31.08C110.47.54,110-.23,108.92.07S108,1.29,108,2.2a39.18,39.18,0,0,1-.41,7.18c-1.36,10.73-6.1,20.35-10.25,30.35A30.4,30.4,0,0,1,93,34.22c-.66-1.08.1-3.24-1.48-3.08s-1.11,2.3-1.42,3.55c-1.82,7.37-1.25,14.47,4.64,19.82,3.58,3.25,2.58,7.32,3.84,11.32a25.2,25.2,0,0,0-3.18-1.65c-1.52-.49-1.92-1.13-1.38-2.81.63-2-.38-3.69-2.09-4.88A9.19,9.19,0,0,0,84.31,55a9,9,0,0,0-3.55,1.78,9.14,9.14,0,0,0-2.48,3.11c-1.17,2.26-1.83,4.91-4.45,6.12-.7.32-1.51.66-1.2,1.65s1.18.8,1.94.86A12.09,12.09,0,0,0,83,66c4.12-3,8.62-2.77,12.52.34A11.59,11.59,0,0,0,86.29,74a19.26,19.26,0,0,0-1,5.57,7.12,7.12,0,0,1-2.11,4.58c-5.71,6.06-6.77,12.67-3.27,20.18,1.2,2.58,2.48,5.14,3.48,7.78,2.33,6,2.13,12.14.91,18.9-3.23-4.21-5.33-8.3-7.73-12.3a60.89,60.89,0,0,1-6.66-14.56C66.37,91.55,65,78.46,64.69,65.31c0-1.6.63-2.27,2.13-2.68,5.54-1.54,8.78-5.85,11.78-10.3.32-.47.76-1.12.24-1.66-.73-.76-1.26.1-1.73.47-2.51,2-5.57,2.19-8.51,2.91-.16-1,.44-1.35.84-1.74C72.76,49,73.78,45,73.7,40.47c-.15-8.17-4.45-14.9-7.69-22a1,1,0,0,0-.36-.3,1,1,0,0,0-.47-.12c-.6.05-.6.57-.6,1,.1,4.78-2.08,8.79-4.2,12.86-4,7.7-5.75,15.37.41,22.93,1.17,1.43.67,3.13.24,5.28-2.93-4.25-7.78-4.68-11.16-7.45a1.21,1.21,0,0,0-.7-.31,1.24,1.24,0,0,0-.75.19,1,1,0,0,0-.24.21.73.73,0,0,0-.12.61.71.71,0,0,0,.14.29C51,58.25,53.55,63,59.31,64.5c1.66.43,2.14,1.26,2.14,2.92.08,4.83.69,9.62,1.08,14.43.28,3.44,1.92,7,0,10.38-2,3.51-2.11,6.8.14,10.16,0,.06-.12.27-.26.58-1.22-.78-3.61-.06-3.43-2.48.47-6.26-2.71-10.08-7.91-13S40.18,84.58,34.45,85a13.46,13.46,0,0,1-9.07-2.31c-.46-.32-.89-1.09-1.55-.51s-.07,1.08.23,1.58c1.74,3,3.38,6,5.27,8.87,3.18,4.81,6.16,9.84,12.09,11.91,5.39,1.87,10.73,2.94,15.73-.87,1.08-.85,1.83-.34,3,.91-6,.86-6.32,5.79-8.06,10.15a16.32,16.32,0,0,0,7.83-4.27c1.69-1.68,3-3.81,5.14-5,.7-.39,1.91-.8,1.62.39-.65,2.75,1,4.08,2.35,6,2.46,3.48,4.3,7.44,6.46,11.17.88,1.52.88,2.35-1.12,2.82a9.87,9.87,0,0,0-6,4.29c-1.1,1.56-1.89,3.1-3,4.84s-2.69,3.15-4.72,3.23-3.75-.62-4.39-2.92c-1.34,1.21-.52,2.21-.08,3.21l.65.25c.19,0,.41,0,.52.11a.23.23,0,0,1,.05,0,.54.54,0,0,1,0,.32l.08-.15h0c2.36,1.77,4.41,1.15,6.87-.23a4.59,4.59,0,0,1,3.11-.63,4.45,4.45,0,0,1,2.55,1.3c.08.07.15.15.23.23l.68.44.06,0a7.44,7.44,0,0,0,.72.31,4.27,4.27,0,0,0,.48.13,1.46,1.46,0,0,0,1.34-.64,4,4,0,0,1,1.4-.81,3.4,3.4,0,0,1,.63-.15h.06a4.62,4.62,0,0,1,.91,0h0l2.2-.22h0c-.49-1.44-1.56-.5-2.34-.5-2.18,0-4.82.9-5.9-1.81-1-2.49,1-4.12,2.59-5.72a10.52,10.52,0,0,1,2.36-2c1.24-.66,2.52-1.11,3.52.62a135,135,0,0,0,12.59,18.66c5.15,6.4,7.47,13.86,8.79,21.8,1.41,8.38,3.25,16.72,5.25,25a11.48,11.48,0,0,1,.19,1.15.81.81,0,0,1-.29.19,1,1,0,0,1-.35.05.79.79,0,0,1-.33-.1.93.93,0,0,1-.27-.22,33.06,33.06,0,0,0-24.37-7.23,2.74,2.74,0,0,1-.74-.17c-1,1.73-2.88,2.46-4,4,10.66-3.47,20-.68,28.4,6.14.49.41,1.53.56,1.27,1.41s-1.28.68-2,.75c-8.85.89-17.23-1-25.42-4.22-1.89-.73-2.89-1.66-2.89-3.66h-.08l-1.23.15a5.15,5.15,0,0,1-1.34.49l-.33.07a1,1,0,0,1-.25,0,5,5,0,0,1-1.09,0,4.07,4.07,0,0,1-.61-.08,3.9,3.9,0,0,1-.59-.14h-.06a2.69,2.69,0,0,0-.4,0l-.28.06a0,0,0,0,0,0,0,2.43,2.43,0,0,0-.87.46,2.58,2.58,0,0,0-.9,1.5,5.4,5.4,0,0,1-1.57,2.58c-1.71,2.92-4.58,4.63-7.19,6.49a38.88,38.88,0,0,1-14.11,6.59c-.43.11-.86.21-1.3.29l-.41.08q-.68.13-1.35.24c-.51.09-1,.16-1.54.22l-1.17.12-.87.07-.66,0-.66,0A37,37,0,0,1,31,212.2a7.39,7.39,0,0,1,1.72-.73l.56-.13a9,9,0,0,1,1.34-.18l.68,0c.65,0,1.28-.05,1.89-.12a6.86,6.86,0,0,0,.81-.12,52.91,52.91,0,0,0,8.65-2.54c.46-.18.92-.36,1.39-.56s.91-.39,1.36-.6c.9-.41,1.79-.86,2.66-1.34a.05.05,0,0,1,0,0l1.25-.72c.43-.26.86-.52,1.28-.8s.71-.46,1.06-.71,1-.69,1.46-1.06l1.2-1c.26-.2.51-.42.76-.64l.41-.37c1.06-.93,2.56-1.42,3.15-2.87h0a.14.14,0,0,1,0-.06,7.06,7.06,0,0,0-1.31-2.5,7,7,0,0,0-2.14-1.78,0,0,0,0,0,0,0h0c-3.35-1.15-4.48-4.14-5.76-7l-.05,0c-4.08,1.77-6.55,5.25-8.79,8.79-5.66,9-12.74,15.44-24.16,15-.69,0-1.46.08-1.69.88-.29,1,.58,1.39,1.24,1.68,3,1.33,6,2.61,9.08,3.75l1.59.58H63.89c5.61-3.14,10-8.22,11.16-15.55.22-1.59,1.08-1.46,2.22-1,8.77,3.57,18,4.68,27.34,4.62,2.23,0,3.08,1,3.17,3.09.13,3,.3,5.89.45,8.84H113q-.2-4.8-.59-9.6c-.13-1.78.22-3.28,2.22-3.28,4.69,0,9.24-1,13.84-1.65l1.11-.4.32-.12c1-.39,1.93-.8,2.9-1.17.54-.22,1.08-.42,1.63-.6.15-.06.31-.1.46-.15l.66-.19a5.54,5.54,0,0,1,.55-.14,4.88,4.88,0,0,1,.55-.12l.37-.07.2,0s0,0,0,0a16.11,16.11,0,0,0,8,6.21c7.58,2.49,14.08.21,19.88-4.69s8.83-11.78,12.25-18.34c.29-.56.56-1.21-.18-1.62s-1.28.14-1.8.59c-5.71,5-12.13,5.4-19.13,3.24-1.81-.56-1.59-1.11-.81-2.4a54.24,54.24,0,0,0,5.64-14.09c.39-1.41.13-3.42,1-4.16,1.18-1,2.53.88,3.94,1.24,5.64,1.44,11.47-1.08,15.47-6.88,3.35-4.85,5.57-10.28,8.35-15.42C190.2,142.44,191,141.55,190.2,140.85ZM153.46,94.73c3.2-1.38,6.54-2.42,9.69-4,4.32-2.12,8.26-5.18,9.26-11.12,1.14,2.59-.23,4.79-1.41,6.82a16.22,16.22,0,0,1-8.17,6.77c-5.06,2-10.49,3.22-14.37,8.22C148.64,98.22,150.46,96.07,153.46,94.73ZM103.23,47.26a48.85,48.85,0,0,0,7.24-11.51,27.64,27.64,0,0,0-.42-23.87,4.25,4.25,0,0,1-.57-3.19,19.1,19.1,0,0,1,3.11,6.07c2.45,10.13,2.09,20-4.07,28.84-2.61,3.74-5.29,7.47-8.29,11C99.89,51.55,101.58,49.26,103.23,47.26ZM87.05,123c.25-.62.47-1.24.67-1.85.09-.26.17-.51.25-.77.24-.77.44-1.55.61-2.31.09-.39.17-.79.24-1.19,0-.15.06-.3.08-.44q.16-.91.27-1.83c0-.38.09-.76.11-1.14.07-.67.11-1.33.13-2C89.73,103.26,87.54,95.12,86,87c-.2-1.09-.39-2.18-.55-3.27C90.1,92.78,93.1,115.3,87.05,123ZM37.19,92.63a30,30,0,0,1-6.85-4,3.84,3.84,0,0,1-1.17-1.17,3.89,3.89,0,0,1-.55-1.56l.45-.2c4.76,5,11.3,6.54,17.44,8.83a29.54,29.54,0,0,1,8,4,3,3,0,0,1,1.66,2.63C50.15,97,43.44,95.3,37.19,92.63ZM63.41,53.2c-1.21-2-.92-4.66.31-7.52a34.62,34.62,0,0,0,2.45-19.33c-.18-1.16-1.58-2-.68-3.94a0,0,0,0,1,0,0h0c2.88,5.11,3.1,10.32,2.75,15.54C67.88,43.34,64.41,47.81,63.41,53.2Zm4.27,1.07C67.24,55.93,66,56.58,64.79,58,64.05,55,65.46,54.4,67.68,54.27ZM143.12,126a63.22,63.22,0,0,1-1.5,10.24c-.61,3.33-1.4,6.68-2.3,10-.74,2.74-3,3.4-5.33,1.68a6.7,6.7,0,0,1-2.44-3.25,14.14,14.14,0,0,0-5.82-7.68A175.48,175.48,0,0,0,143.12,126Zm-31.18,69.25c-.3.5-.55,1.24-1.18,1.24-.89-.07-.75-1-.89-1.64-1.28-5.71-2.45-11.44-3.81-17.13-1.62-6.78-3-13.62-4-20.51a10.94,10.94,0,0,1,.33-4.62,11.06,11.06,0,0,1,2.23-4.06,19.27,19.27,0,0,1,9.13-6,40.26,40.26,0,0,0,7.31-3.19,2.53,2.53,0,0,1,3.45.43,20.17,20.17,0,0,1,2.83,3.67c1.29,2.29.14,4-2.49,4.17-1.25.11-2.46-.57-3.71,0h0V148c1.75.69,3.76.4,5.42,1.4,2.28,1.84,4.79,1.89,7.42,1,1-.46,2.66-.81,3.25-.42l.15.12a.31.31,0,0,1,0,.1c.47,1.27-.78,2.61-1.69,3.74h0c-3.73,8-8.2,15.68-12.67,23.32a123.86,123.86,0,0,1-8.38,13.3v0C113.75,192.18,112.87,193.74,111.94,195.27Zm55.18-5.57c.78-.43,1.56-.89,2.33-1.36,0,0,0,0,0,0h0l0,0c0,.15-.1.3-.16.44a3.44,3.44,0,0,1-.4.7,1.24,1.24,0,0,1-.17.23,3.33,3.33,0,0,1-.51.55,1.62,1.62,0,0,1-.28.25,1.54,1.54,0,0,1-.29.23,4.83,4.83,0,0,1-.62.42c-.62.4-1.28.73-1.87,1.06a32,32,0,0,1-10.93,3.9q-1.32.23-2.67.33c-3.36.21-6.73-.34-10.09-.07l-.7.07A15,15,0,0,0,138,197l0,0a4.51,4.51,0,0,1,1.55-1.26,5.89,5.89,0,0,1,.7-.26l.32-.08a4.19,4.19,0,0,1,.93-.09q3.43-.39,6.89-.44c.8,0,1.58,0,2.35,0a26.22,26.22,0,0,0,2.67-.25h0a34,34,0,0,0,8.87-2.52A46.26,46.26,0,0,0,167.12,189.7Zm13-38.56a7.82,7.82,0,0,1-.84,1.06h0a17.63,17.63,0,0,1-6.66,4.16c-3,1.29-6.24,1.94-9,3.81a1.29,1.29,0,0,1-1,.3l-.1,0a.33.33,0,0,1-.13-.11.37.37,0,0,1-.11-.15.61.61,0,0,1-.05-.12s0,0,0,0a.66.66,0,0,1,.24-.65l.19-.15.22-.13L163,159a59.17,59.17,0,0,1,5.8-2.76,38.48,38.48,0,0,0,12-6.36A10.37,10.37,0,0,1,180.14,151.14Z"></path>
        <path class="cls-1" d="M52,179.76c-.32-1.68-.7-3.36-1.17-5-.08-.32-.17-.64-.26-1-.15-.5-.3-1-.46-1.51-.33-1-.67-2-1-3.05a26.38,26.38,0,0,1-1.52-3,90.5,90.5,0,0,1-5.37-20.67c-.52-4.45.24-8.37,3.31-11.75a19.33,19.33,0,0,0,2-3,1,1,0,0,0,0-1.21c-.34-.4-.8-.24-1.19-.07-3.57,1.62-8.1,1.1-11,5.62-.23-3.52-3-5.88-.23-8.52,4.21-4,5.25-9.33,5.92-14.79.08-.66.42-1.54-.44-1.81s-1.13.63-1.4,1.22c-1.38,3-4.14,4.6-6.27,6.86a1.27,1.27,0,0,1-.3-1.47A14.54,14.54,0,0,0,32,105.08C28.25,97,20.82,92.61,14.08,87.61a1,1,0,0,0-.47-.12,1,1,0,0,0-.48.12c-.46.27-.31.78-.1,1.15,2.61,4.67,2.28,9.8,2.36,14.88.14,8.58,3,15.55,11.69,18.77,1.49.56,2,1.85,2.49,3.11.33.74.12,1.55-.88,1-4.09-2.23-8.53-.39-12.73-1.23-.61-.12-1.51-.34-1.76.54s.6,1.08,1.14,1.48c4.47,3.31,9.35,5.09,15,3.92.89-.18,1.55,0,1.74,1,.3,1.65,1.2,3.18,1.12,5.31a24.65,24.65,0,0,0-11.52-2.73,30.47,30.47,0,0,1-19.31-6.17c-.57-.47-1.33-1-2-.32s-.31,1.39.13,2.1c3.68,5.92,7.3,11.89,11.07,17.77a33.07,33.07,0,0,0,5.18,6.08c5.71,5.45,13.84,6.89,20,3.68,1.22-.64,2.21-2.79,3.49-1.85,1,.74,1,2.82,1.41,4.3,2.35,7.71,5.48,15,10.66,21.29C52.21,181.05,52.09,180.4,52,179.76ZM25.1,115.55c-.06-.25-.11-.5-.16-.75-.15-.87-.23-1.74-.32-2.62,0-.35-.07-.7-.11-1s-.09-.7-.15-1c-.15-.9-.33-1.78-.54-2.66-.11-.5-.24-1-.37-1.49-.2-.76-.43-1.5-.68-2.24q-.22-.69-.48-1.35c-.11-.28-.21-.55-.33-.82a30,30,0,0,0-1.3-2.75c-.16-.3-.33-.6-.5-.9s-.4-.67-.61-1h0l-.66-1c-.23-.32-.46-.64-.71-1s-.49-.63-.75-.94c0,0,0,0,0,0-.26-.31-.53-.62-.81-.92l-.14-.14-.14-.17a.58.58,0,0,1-.08-.18.8.8,0,0,1,.16-.81c2.43,1.23,3.76,3.59,5.23,5.64a26.59,26.59,0,0,1,1.84,3s0,0,0,.07c.18.33.35.66.49,1a10.55,10.55,0,0,1,.47,1,27.45,27.45,0,0,1,1.43,4.33c.05.2.1.41.14.61s.13.58.19.87l0,.14c.07.39.14.78.2,1.18s.12.85.17,1.29.07.62.09.94c.06.55.1,1.11.12,1.67s0,.89,0,1.33a14.59,14.59,0,0,0,.65,3c0,.07,0,.14.07.22l.06.16c.15.44.29.93-.27,1.11-.73.24-.9-.59-1.21-1.08a8.52,8.52,0,0,1-.89-2C25.22,116.06,25.16,115.81,25.1,115.55Zm6.39,7.23c-2-2.07-1.89-2.54.93-4.19h0C32.07,120.28,31.8,121.48,31.49,122.78Zm.86-4.25-.34-.18c.06-.06.13-.16.18-.16a1.06,1.06,0,0,1,.34.16ZM39,151.62q-.39-.1-.78-.24l-.78-.27c-1.54-.55-3-1.21-4.57-1.72l-1-.34-.37-.1c-2.43-.67-4.91-1.17-7.3-2-.28-.09-.56-.2-.85-.31l-.71-.28c-.32-.13-.63-.27-.95-.43s-.55-.26-.82-.41c-.46-.22-.91-.46-1.36-.71s-1.09-.61-1.62-1c-.33-.2-.65-.42-1-.64s-.89-.62-1.32-1l-.7-.55-.33-.27-.57-.48c-.36-.31-.71-.63-1.06-1,0,0,0,0,0,0a31.09,31.09,0,0,1-2.23-2.36h0c.55-.1.88-.25,1-.16.28.25.57.5.86.73s.42.35.63.51.63.5,1,.74.6.43.9.64l.45.3c.6.4,1.2.77,1.81,1.12.41.24.82.46,1.23.68.61.34,1.24.65,1.87.94l.56.27c.8.36,1.62.71,2.44,1l1.32.51,1.69.6c1.7.57,3.43,1.1,5.16,1.61l1.79.52c2.53.73,5.1,1.81,6.74,4.2C39.7,151.82,39.34,151.72,39,151.62Z"></path>
        <path class="cls-2" d="M128.86,71.41l1-.07a12.94,12.94,0,0,1,9.82,8.08c.1.51,0,1.1.58,1.41a65,65,0,0,1,.18,13.66c-.85,9-2.32,17.73-8.36,25-1.21,1-2.12,2.29-3.62,2.9-2.56,0-2.43-1.78-2-3.44.94-3.41,2.49-6.68,1.92-10.37-.16,0-.38,0-.47.1a2.45,2.45,0,0,0-.53.84c-1.34,5.45-3.17,10.68-6.63,15.21-.23.3-.16.83-.23,1.25h-.15a.77.77,0,0,0-.58.19.85.85,0,0,0-.29.54c-.26.33-.5.67-.78,1-.83.88-1.73,1.69-3,1.13s-1-1.76-1-2.83a5.09,5.09,0,0,0,2.29-3.26c1.13-3.49.15-6.84-.79-10.13-2.28-7.93-4.26-15.78-3.57-24.25.42-5.27,1.32-10.16,3.82-14.78,2.57.84,5,.92,7.17-1.08,3.17.48,5.33,2.4,6.93,5.54C131.59,74.89,130.29,73.13,128.86,71.41Z"></path>
        <path class="cls-3" d="M52.31,181.69A66.1,66.1,0,0,0,49,169.16c-1.23-5.88-2.32-11.78-1.79-17.85a21.11,21.11,0,0,1,2.27-8.38,7.65,7.65,0,0,1,2.76-3.15,7.55,7.55,0,0,1,4-1.22l.65.25.54.48.08-.15a10,10,0,0,1-.46,2.76c-2.08,4.29-1.35,8.71-.78,13.13.52,4.08,1.21,8.14,1.57,12.22.6,6.92,1.32,13.8,2.47,20.65.32,1.9.79,4-1.15,5.47-3.35-1.17-4.48-4.16-5.76-7C53.06,184.8,52.69,183.24,52.31,181.69Z"></path>
        <path class="cls-3" d="M116.44,73.51c-2.5,4.62-3.4,9.51-3.82,14.78-.69,8.47,1.29,16.32,3.57,24.25.94,3.29,1.92,6.64.79,10.13a5.09,5.09,0,0,1-2.29,3.26c-.23-.33-.46-.65-.68-1a72.1,72.1,0,0,0-6.17-11.36c.08-1.84-.84-3.42-1.28-5.13-1.34-7.28-2.7-14.55-2.68-22a35,35,0,0,1,1.18-6.59,15.31,15.31,0,0,1,6.64-7.26C113.23,73.21,115,72.6,116.44,73.51Z"></path>
        <path class="cls-3" d="M144.06,183.87c-2.9,1.57-5.47,3.48-7,6.54a5.89,5.89,0,0,0-.91,3.42c.38,2.47-.88,3.4-3.06,3.62-.4-4.41,1.16-8.45,2.26-12.59.92-3.45,2.41-6.8,2.28-10.49,2.43-1.89,5.39-2.47,8.27-3.25C145.84,175.45,144.77,179.63,144.06,183.87Z"></path>
        <path class="cls-4" d="M128.47,202.48c2.93-1,5.66-2.52,8.75-3a9.45,9.45,0,0,0-1.49,4.55,1.75,1.75,0,0,1-.31,1.21,1.83,1.83,0,0,1-1,.71,2,2,0,0,1-1.26,0,2.07,2.07,0,0,1-1-.76A9.84,9.84,0,0,0,128.47,202.48Z"></path>
        <path class="cls-2" d="M59.2,193.37c1.94-1.49,1.47-3.57,1.15-5.47-1.15-6.85-1.87-13.73-2.47-20.65-.36-4.08-1.05-8.14-1.57-12.22-.57-4.42-1.3-8.84.78-13.13a10,10,0,0,0,.46-2.76c2.36,1.81,4.42,1.16,6.88-.22a4.58,4.58,0,0,1,5.89.9l.68.44a4.48,4.48,0,0,0-.08,1.27,38.87,38.87,0,0,1,1.54,11.14,4.2,4.2,0,0,0,.51,1.69c.2.47.53.94,1.15.82A1.11,1.11,0,0,0,75,154c.19-2,.35-4.08.57-6.12.31-3,.67-5.91,1-8.87l2.22-.22c5.46,2,7.31,6.34,7.72,11.71a69.43,69.43,0,0,1-.11,12.65c-.92,8.84-2.09,17.62-7,25.37-.94,1.72-2.86,2.45-4,4l-.65.42-1.31.16c0-.76.66-1.16,1-1.74,1.54-2.76,3.07-5.54,2.63-8.89-.08-.62-.13-1.3-.81-1.45s-.89.64-1.11,1.15c-1.55,3.45-2.21,7.37-5.41,9.94-.33.26-.34.93-.49,1.41a2.56,2.56,0,0,0-1.65.58,2.63,2.63,0,0,0-.9,1.5,5.37,5.37,0,0,1-1.57,2.58,3.5,3.5,0,0,1-2.46-.51,7.1,7.1,0,0,0-3.47-4.31Z"></path>
        <path class="cls-2" d="M126.59,149.52c2.27,1.82,4.78,1.87,7.41,1,.58,1.18,1.16,2.37,1.75,3.55-3.74,8-8.21,15.69-12.68,23.33a124.86,124.86,0,0,1-8.38,13.3,11.56,11.56,0,0,1-.93-1.55,62,62,0,0,1-3.62-30.23c.69-5.95,5-9.61,10.83-10.56-.88,2.16-2.07,4.27-1.64,7.45C121.21,152.35,123,149.84,126.59,149.52Z"></path>
        <path class="cls-5" d="M137.65,174.37c.13,3.69-1.36,7-2.28,10.49-1.1,4.14-2.66,8.18-2.26,12.59a11,11,0,0,1-5.26,1.92c-2.53-4.37-3.95-9.16-5.23-14l14.49-25.51c.8,1.35.47,2.85.62,4.29s-.5,2.94.55,4.24c-.59,1.24-1.24,2.45-1.74,3.72C136.13,173.16,135.67,174.41,137.65,174.37Z"></path>
        <path class="cls-6" d="M62.68,197.67a3.55,3.55,0,0,0,2.46.51c-1.71,2.92-4.58,4.63-7.19,6.49a39.22,39.22,0,0,1-27,7.53c2.54-1.46,4.91-.88,7-1.33,8-1.69,15.35-4.76,21.52-10.26C60.58,199.66,62.12,199.18,62.68,197.67Z"></path>
        <path class="cls-3" d="M138.28,168.39c-1.05-1.3-.41-2.82-.55-4.24s.18-2.94-.62-4.29c.88-3,2.81-5.54,4.34-9C143.14,157.69,142.89,163.44,138.28,168.39Z"></path>
        <path class="cls-5" d="M76.56,139c-.34,3-.7,5.91-1,8.87-.22,2-.38,4.08-.57,6.12a1.08,1.08,0,0,1-.23.71,1.09,1.09,0,0,1-.63.42,1,1,0,0,1-1.15-.82,4.2,4.2,0,0,1-.51-1.69,38.87,38.87,0,0,0-1.54-11.14,4.48,4.48,0,0,1,.08-1.27c.89.41,1.7.9,2.6-.17a4.17,4.17,0,0,1,1.37-.82A3.88,3.88,0,0,1,76.56,139Z"></path>
        <path class="cls-6" d="M85.49,83.72C90.1,92.78,93.1,115.3,87.05,123,92.36,109.68,87.45,96.75,85.49,83.72Z"></path>
        <path class="cls-6" d="M178,110.1c.83.31,1.25.73.9,1.75a38.17,38.17,0,0,1-6,11.55c-4.3,5.43-10.39,8.8-15.7,13.12.68-2.7,2.71-4.34,4.72-5.94,4.42-3.53,9.1-6.82,12.3-11.59,1.79-2.66,3.6-5.42,3.68-8.84Z"></path>
        <path class="cls-6" d="M169.46,188.32c-.67,2.16-2.74,3-4.36,3.9a32.38,32.38,0,0,1-13.55,4.23c-4.53.28-9.09-.82-13.6.56a4.39,4.39,0,0,1,3.57-1.71,66.21,66.21,0,0,1,6.89-.44C156.24,195.1,163,192.29,169.46,188.32Z"></path>
        <path class="cls-4" d="M116.89,194.76l4.82-7.77a51.18,51.18,0,0,0,2.26,9.29,2.68,2.68,0,0,1,.28,1,2.63,2.63,0,0,1-1.65,2.57C120.18,198.75,118.72,196.55,116.89,194.76Z"></path>
        <path class="cls-5" d="M120.54,125.91c.07-.42,0-1,.23-1.25,3.46-4.53,5.29-9.76,6.63-15.21a2.45,2.45,0,0,1,.53-.84c.09-.1.31-.07.47-.1.57,3.69-1,7-1.92,10.37-.46,1.66-.59,3.39,2,3.44C126.22,124.4,123.34,125.07,120.54,125.91Z"></path>
        <path class="cls-5" d="M69.26,193.52c.15-.48.16-1.15.49-1.41,3.2-2.57,3.86-6.49,5.41-9.94.22-.51.29-1.33,1.11-1.15s.73.83.81,1.45c.44,3.35-1.09,6.13-2.63,8.89-.32.58-1,1-1,1.74A5.6,5.6,0,0,1,69.26,193.52Z"></path>
        <path class="cls-7" d="M122.82,200.28a.62.62,0,0,1-.22-.39,2.64,2.64,0,0,0,1.65-2.57,2.68,2.68,0,0,0-.28-1,51.18,51.18,0,0,1-2.26-9.29l.91-1.62c1.28,4.84,13.65,4.84,16.18,9.21C137.24,195.32,124.55,200.42,122.82,200.28Z"></path>
        <path class="cls-6" d="M180.84,149.91c-1.69,3.52-5,5-8.2,6.46-3,1.29-6.24,1.94-9,3.81-.45.31-1,.56-1.34,0s.27-.93.74-1.15a57,57,0,0,1,5.8-2.76A38.69,38.69,0,0,0,180.84,149.91Z"></path>
        <path class="cls-4" d="M121,148.34a.19.19,0,0,1,0-.08s0,0,0-.08,0,0,.06,0a.12.12,0,0,1,.08,0c1.75.69,3.76.39,5.43,1.4-3.56.32-5.38,2.83-7.26,6.27C118.9,152.61,120.09,150.5,121,148.34Z"></path>
        <path class="cls-3" d="M135.75,154c-.59-1.18-1.17-2.37-1.75-3.55,1.18-.53,3.18-.91,3.45-.2C137.92,151.57,136.66,152.92,135.75,154Z"></path>
        <path class="cls-8" d="M119.52,126.65a.81.81,0,0,1,.29-.54.77.77,0,0,1,.58-.19,1,1,0,0,1-.32.5A1,1,0,0,1,119.52,126.65Z"></path>
        <path class="cls-9" d="M57.47,139.29l-.54-.48C57.24,138.83,57.64,138.74,57.47,139.29Z"></path>
        <path class="cls-6" d="M40.06,151.9c-2.91-.66-5.45-2-8.25-2.85-3.69-1-7.53-1.65-11-3.51a31.5,31.5,0,0,1-10.16-7.88c.55-.1.88-.25,1-.16,6.22,5.56,13.88,8,21.67,10.2C35.85,148.43,38.42,149.51,40.06,151.9Z"></path>
        <path class="cls-6" d="M16.42,91.78c2.43,1.26,3.76,3.59,5.23,5.66,3.69,5.18,5.16,11.09,5.24,17.41a14.74,14.74,0,0,0,.65,3c.12.53.71,1.22-.14,1.51s-.9-.59-1.21-1.08c-1.58-2.51-1.36-5.44-1.83-8.18-1.1-6.38-3.31-12.19-7.74-17A.92.92,0,0,1,16.42,91.78Z"></path>
        <path class="cls-1" d="M121.14,147.59c-.32,0-.64,0-.76-.36a.53.53,0,0,1,.34-.19c.4,0,.54.22.36.59Z"></path>
        <path class="cls-10" d="M98.59,65.87s8.21-7.92,15.77-7.12a8.17,8.17,0,0,1,7.12,7.06,22,22,0,0,1,.23,3.54"></path>
        <path class="cls-1" d="M108.22,71.34a10.92,10.92,0,0,0,3.9,1.91,11,11,0,0,0,4.32.26s4.41,1.9,7.17-1.08c0,0,6,2.44,6.93,5.54s3-6.41-3.41-9.17-8.23,1.43-9.64,1.88A18.35,18.35,0,0,1,108.22,71.34Z"></path>
      </g>
    </g>
  </g>
</svg>
