<?xml version="1.0" encoding="UTF-8"?>
<svg xmlns="http://www.w3.org/2000/svg" viewBox="0 0 213.04 179">
  <defs>
    <style>
      .cls-1 {
        fill: #a37e4e;
      }

      .cls-2 {
        fill: #a2a732;
      }

      .cls-3 {
        fill: #d3712e;
      }

      .cls-4 {
        fill: #de982d;
      }
    </style>
  </defs>
  <g id="Слой_2" data-name="Слой 2">
    <g id="Слой_1-2" data-name="Слой 1">
      <g>
        <path class="cls-1" d="M213,96.5v1.22a28.1,28.1,0,0,0-4.19-2.5,12.39,12.39,0,0,0-2.35-.9,8.34,8.34,0,0,1-1.54-.41l-1.26.27c-2.51.52-5,1.12-7.42,1.88-1.17.37-2.35.76-3.5,1.19-.34.12-.77.35-1.23.51-1,1.5-1.86,3-2.75,4.55-.41.69-.81,1.38-1.2,2.08l-.54,1-.31.6-.2.39a54.91,54.91,0,0,1-9.64,16.36,46.67,46.67,0,0,1-14.3,11.61c-1.44.74-3,1.32-4.42,2a31.72,31.72,0,0,0-4.37,2.45,46.65,46.65,0,0,0-7.55,6.34,85.92,85.92,0,0,0-12,15.78c-1.26,2-2.42,4-3.51,6-.94,2.81-1.78,5.65-2.47,8.53-.27,1.17-.52,2.36-.73,3.54h-6.68q.26-1.42.54-2.85a148.08,148.08,0,0,1,7.64-21.66c.93-2.42,1.88-4.85,2.69-7.32a113.92,113.92,0,0,0-13.73-18.71A84.83,84.83,0,0,0,101.82,114a86.19,86.19,0,0,0-10-5.56c-3.38-1.66-6.68-3.5-9.91-5.44q-1.16-.25-2.31-.42a44.54,44.54,0,0,0-6.31-.55c-2.18,0-4.37.21-6.54.21H60.19a100.75,100.75,0,0,1-12.87-1,29.29,29.29,0,0,1-6-1.59c-2-.74-3.79-1.59-5.8-2.37s-4.07-1.5-6.12-2.22c-.83-.28-1.72-.53-2.58-.79-.19-.08-.72-.18-.68-.53s.68-.11.87-.11c.76.26,1.67.6,2.51.88,1,.32,2,.66,3.05,1,2.09.69,4.16,1.41,6.21,2.22a37.67,37.67,0,0,0,5.66,1.91,47.83,47.83,0,0,0,6.29.88,110.28,110.28,0,0,0,13,.35c4.29-.12,8.57-.69,12.86-.44.5,0,1,.11,1.49.11C72.48,96.88,67,93,61.66,89Q51.91,81.78,42.57,74L40.5,72.21a84,84,0,0,1-11,.81,39.16,39.16,0,0,1-10.73-1.1,68.65,68.65,0,0,1-9.91-4.23C7.23,67,5.6,66.21,3.84,65.48c-.65-.28-1.28-.56-1.94-.81a12.44,12.44,0,0,1-1.37-.51c-.18-.09-.72-.44-.46-.6s1,.21,1.2.21l4.17,1.76c1.7.71,3.49,1.45,5.12,2.18s3.13,1.51,4.89,2.2A28.94,28.94,0,0,0,26,72a73.42,73.42,0,0,0,11-.52c.84-.08,1.75-.17,2.59-.33h.21C38.33,67.05,36.85,63,35.22,59c-.8-2-1.78-4.07-2.56-6.16a57.84,57.84,0,0,1-1.75-6.31c-.23-1.06-.44-2.12-.61-3.2a2.65,2.65,0,0,1,0-1.37c.21-.52.35-.07.51.35A6.41,6.41,0,0,1,31,43.53c.09.55.21,1.08.34,1.62.26,1.11.54,2.21.87,3.3A112,112,0,0,0,37.1,60.58q1.44,3.51,2.84,7c.44,1.13.91,2.28,1.35,3.43v.19l.35.3c1.37,1.2,2.86,2.3,4.29,3.43q4.49,3.51,9,6.86c5.31,3.9,10.73,7.76,16.25,11.29-2.38-8.7-4.71-17.52-7.24-26.34-1.3-4.45-2.56-8.91-4.17-13.27a55.68,55.68,0,0,0-2.68-6.37,26.63,26.63,0,0,0-3.6-5.09c-1.52-1.76-3.12-3.47-4.75-5.13-.65-.67-1.56-1.48-2-2s-.28-.88.29-.48a12.27,12.27,0,0,1,1.16,1.12c.83.81,1.65,1.62,2.46,2.45,1.63,1.62,3.24,3.39,4.71,5.15a38.89,38.89,0,0,1,5.94,11.91c1.53,4.38,2.88,8.79,4.3,13.49s2.77,9.4,4.14,14.11c.66,2.38,1.35,4.73,2,7.06.35,1.17.67,2.37,1,3.53a10.83,10.83,0,0,1,.45,1.36,179.76,179.76,0,0,0,19.29,10.85c3.31,1.57,6.67,3,9.83,4.87,1.54.92,3,1.91,4.49,2.93-1.58-4.48-3.16-9-4.68-13.48-1-2.79-1.88-5.56-2.75-8.36-.41-1.29-.83-2.58-1.18-3.89a10.23,10.23,0,0,1-.19-3.86c.58-5.19,1.14-10.48,1.23-15.78a27,27,0,0,1-14.45-8.82A19.5,19.5,0,0,1,82.36,55c-.68-1.57-1.2-3.21-2-4.75a37.24,37.24,0,0,0-4.67-7.21c-.38-.48-.79-1-1.23-1.42a33.79,33.79,0,0,0-3.07-3A11,11,0,0,0,70,37.53c-.25-.18-.88-.3-.91-.87s.65-.12.81,0c.43.3.84.66,1.24,1a40,40,0,0,1,3.73,3.52A38.19,38.19,0,0,1,80.59,49c1.49,2.8,2.44,5.94,4.19,8.54a21.66,21.66,0,0,0,6.81,6,30.74,30.74,0,0,0,4.75,2.24c.77.3,1.54.55,2.33.78a3.35,3.35,0,0,0,.89.17v-.24a21.78,21.78,0,0,0-.28-3.87,33.3,33.3,0,0,0-1.19-3.79,41.27,41.27,0,0,1-1.35-8.26c-.26-2.86-.4-5.72-.56-8.58-.07-1.48-.16-3-.16-4.45V35.62c0-.14-.16-.47,0-.63a.24.24,0,0,1,.42.12,1.09,1.09,0,0,1,0,.44v3.32c.07,1.45.23,2.89.23,4.34.19,3,.42,5.91.79,8.83a27.94,27.94,0,0,0,1.61,7.6,14.26,14.26,0,0,1,1.05,3.74,35.51,35.51,0,0,1,.25,4.25c0,3-.14,6-.35,8.83s-.61,5.73-.74,8.61a11.52,11.52,0,0,0,.84,3.93c.46,1.36.88,2.7,1.34,4.06l.86,2.49c.1-.49.22-1,.36-1.48a29.53,29.53,0,0,1,2-5,80.92,80.92,0,0,1,5.47-8.82,54.13,54.13,0,0,0,7-17.88c.06-.28.11-.56.16-.84.29-1.33.53-2.71.75-4,.08-.47.15-.93.22-1.39s-.13-2.13.47-2.13,0,2,0,2.36c-.2,1.27-.38,2.54-.59,3.81-.08.49-.17,1-.27,1.46,0,0,0,0,0,0a56.82,56.82,0,0,1-7,19.31,83.26,83.26,0,0,0-5.26,8.93,24.16,24.16,0,0,0-1.75,5,14.87,14.87,0,0,0-.41,2.66,7.69,7.69,0,0,0,0,1l1,2.71q1.47,4.14,3,8.23c.5,1.3,1,2.61,1.51,3.9.26.63.51,1.27.72,1.92v.11l1.58,1.23a108.69,108.69,0,0,1,14.88,14.84c2.4,2.81,4.7,5.77,6.86,8.82.23.36.47.69.73,1.05.67-3,1.16-6.09,1.53-9.16.45-4,.88-8.14,1.4-12.13A115,115,0,0,1,138.85,108q1.6-6.54,3.7-13a92.79,92.79,0,0,0-2.49-17.55,37.47,37.47,0,0,0-1.31-4.46c-.58-1.43-1.18-2.82-1.76-4.22a50.79,50.79,0,0,1-2.59-9.07,179.28,179.28,0,0,1-2.46-19.06c-.26-3.24-.49-6.49-.66-9.74v-1.3a122.62,122.62,0,0,0-11.73-11.63c-2.16-1.91-4.54-3.39-6.52-5.44A36,36,0,0,1,108.1,6c-.75-1.27-1.47-2.59-2.1-3.93-.13-.3-1.18-1.75-.74-2.07S106.37,1.8,106.51,2c.63,1.29,1.33,2.56,2.06,3.78a36,36,0,0,0,5,6.56,80.42,80.42,0,0,0,6.41,5.3c2.53,2.1,4.9,4.37,7.21,6.68,1.16,1.22,2.35,2.46,3.51,3.69l.47.5V26.25a32,32,0,0,0-.25-4.69,41.64,41.64,0,0,0-2.89-9,43.52,43.52,0,0,0-1.75-4.1c-.09-.17-.46-1.23.14-.91.31.15.47.86.61,1.18.71,1.43,1.38,2.89,2,4.36.33.77.65,1.55,1,2.33a.61.61,0,0,1,0,.12,0,0,0,0,1,0,0c.21.53.42,1.07.62,1.61a27.59,27.59,0,0,1,1.3,4.62c.19,1.59.31,3.18.35,4.77q.65,9.82,2,19.57c.23,1.68.49,3.3.76,5.06,1.87-6.61,3.68-13.3,5.26-20a148.13,148.13,0,0,0,3.17-23.08c.14-2,.33-3.9.33-5.86,0-.33-.12-2.13.32-2.22s.26.92.26,1.09a22.78,22.78,0,0,0-.1,2.62c-.07,1.94-.16,3.86-.3,5.78A146.62,146.62,0,0,1,141,32.76c-.23,1-.45,2-.7,3.06a41.54,41.54,0,0,0,10-10.41,65.53,65.53,0,0,0,4-7.31c.08-.16.16-.32.25-.47a26.76,26.76,0,0,1,2-3.25c.17-.25.35-.5.54-.74,0,0,0,0,0,0h0l.28-.36c.49-.65,1-1.28,1.59-1.89a20,20,0,0,1,3.15-2.74,5.44,5.44,0,0,1,2.11-1c.24,0,.45,0,.24.33s-.81.46-1.16.62A12.07,12.07,0,0,0,160.06,11c-.57.59-1.11,1.2-1.62,1.84h0c-.32.4-.63.81-.93,1.22l-.18.25a28.25,28.25,0,0,0-2.11,3.56c-.09.17-.18.33-.26.5-1.25,2.4-2.3,4.9-3.76,7.19a2.14,2.14,0,0,1-.13.19.33.33,0,0,0-.06.1l-.1.14a44.46,44.46,0,0,1-5.46,6.63,47.15,47.15,0,0,1-3.5,3.28,21.72,21.72,0,0,1-1.76,1.41h-.12c-.56,2.35-1.14,4.71-1.75,7.06-.51,1.94-1,3.87-1.55,5.81-.24.93-.5,1.85-.77,2.79a9.82,9.82,0,0,1-.31,1.3c.1.53.19,1.06.3,1.59A74.09,74.09,0,0,0,138.2,65c.9,3,2.51,5.69,3.51,8.65a71.54,71.54,0,0,1,2.4,9.12q.52,2.58.89,5.14l1-2.74c1.37-3.74,2.79-7.48,3.84-11.33a69.69,69.69,0,0,0,2-11.57q.64-6.09.91-12.21v-2.6a4.17,4.17,0,0,1,.19-1.92,1.2,1.2,0,0,1,.65-.62,1.22,1.22,0,0,1,.9,0c.84.32.84,1.13.84,1.87-.06,2.23-.18,4.45-.18,6.69,1.61-1.87,3.18-3.81,4.61-5.8A46.43,46.43,0,0,0,165.32,38c.74-1.8,1.28-3.72,1.93-5.49s1.39-3.53,2.17-5.29c1.57-3.46,3.37-6.81,5.26-10.1q1.5-2.56,3.07-5.06c.23-.39.58-.92.72-1.16s.37-.75.67-.85c.68-.27-.07,1-.2,1.18a47.58,47.58,0,0,0-2.68,4.71c-1,1.77-1.84,3.53-2.72,5.3a86.5,86.5,0,0,0-4.34,10.43c-.6,1.81-1,3.68-1.65,5.45a37.67,37.67,0,0,1-2.12,5.29,65.44,65.44,0,0,1-5.7,9.39c-1.17,1.52-2.31,3-3.51,4.46A15,15,0,0,1,155,57.66a106.56,106.56,0,0,1-1.26,13.1c-1.31,7.83-4.38,15.23-6.69,22.8a152.62,152.62,0,0,0-5.47,23.31c-.57,4.13-1,8.24-1.25,12.35-.14,2-.24,4.06-.46,6.05s-.54,4-.91,5.93a85.54,85.54,0,0,1-2.38,9.59,70.31,70.31,0,0,1,10.08-10.89,43.59,43.59,0,0,1,7.38-5.12c2.59-1.41,5.38-2.36,8-3.72a42.51,42.51,0,0,0,8-5.49q2.64-8.92,5.12-17.74a.56.56,0,0,1-.16-.24,108.65,108.65,0,0,1-4.56-21.18,13.53,13.53,0,0,1,.28-5.15,12.3,12.3,0,0,0,.67-2.37,15,15,0,0,0,0-2.68,51.64,51.64,0,0,0-2-10.59c-.48-1.71-1-3.35-1.55-5.11-.08-.15-.85-2-.19-1.77.33.12.56.88.56,1.17.16.54.32,1.09.51,1.64q.84,2.52,1.58,5.08a43.84,43.84,0,0,1,2,10.59,10.88,10.88,0,0,1-.16,2.61c-.16.77-.49,1.5-.67,2.27a16.25,16.25,0,0,0,0,5.3A91.16,91.16,0,0,0,173.58,98c.46,1.76.93,3.53,1.44,5.29.21.69.42,1.38.61,2.07.88-3.64,1.7-7.27,2.44-10.93.3-1.37.57-2.75.83-4.13,0-.1,0-.2,0-.31s0-.06,0-.1a.51.51,0,0,0,0-.13q1-5.86,1.55-11.81a46.6,46.6,0,0,0-.21-8.35,69.85,69.85,0,0,1-.7-8.31A48.55,48.55,0,0,1,180,53a31,31,0,0,1,.6-3.14c.05-.23,0-.58.37-.76s.26.32.26.53a46.31,46.31,0,0,0-.53,15.88c.3,2.72.88,5.4,1,8.14a61.24,61.24,0,0,1-.31,8.35c-.2,1.94-.42,3.88-.7,5.8,2.94-4.43,6-8.94,9.2-13.25a78.84,78.84,0,0,0,5.26-7.06,35.55,35.55,0,0,0,2.94-6.79c.15-.46.28-.93.41-1.4l.07-.25c.09-.3.17-.61.26-.92.29-1.13.54-2.28.75-3.43,0-.26.11-.51.16-.76a6.18,6.18,0,0,0,.19-1.34,2.15,2.15,0,0,1,0-.62c.16-.3.5-.3.5,0a4.38,4.38,0,0,1-.2,1.48s0,.08,0,.12c-.11.77-.25,1.53-.4,2.28s-.27,1.35-.44,2c-.1.43-.21.86-.33,1.28s-.22.84-.35,1.25l-.12.41a33.21,33.21,0,0,1-3.39,7.69c-1.56,2.56-3.61,4.79-5.36,7.22-2.1,2.83-4.12,5.81-6.1,8.83-1,1.5-2,3-2.91,4.5-.21.33-.44.67-.63,1a1.7,1.7,0,0,1,0,.22.17.17,0,0,1,0,.07.09.09,0,0,1,0,0c-.24,1.52-.5,3-.78,4.55-.2,1.11-.42,2.21-.64,3.31-1.07,5.53-2.29,11-3.62,16.49-.64,2.59-1.28,5.17-2,7.74.76-.77,1.47-1.57,2.18-2.38a56.84,56.84,0,0,0,5.25-7.36c1.58-2.66,2.74-5.47,4.12-8.22A91.11,91.11,0,0,1,195.21,89a90.65,90.65,0,0,1,12.22-12.63c.2.34.37.65.58,1a87.59,87.59,0,0,0-9.48,10.34c-2,2.45-3.74,5-5.49,7.62a172.14,172.14,0,0,1,19.23-3.84,6.23,6.23,0,0,1,.23,1.14c-1.67.25-3.33.51-5,.81A23.67,23.67,0,0,1,213,96.5Z"></path>
        <path class="cls-2" d="M156.8,13.36a2.85,2.85,0,0,0,.53.51,1.58,1.58,0,0,0,.68.46v-.09l.4.26v-.12l.48.23a.21.21,0,0,1,0-.11,3.33,3.33,0,0,0,.61.27v-.09l.42.14a.24.24,0,0,1,0-.12l.44.12v-.09a1.86,1.86,0,0,0,.47.09v-.09s.35.11.41,0v-.09a1.62,1.62,0,0,0,.44,0,.24.24,0,0,1,0-.12h.38V14.4c.25,0,.42,0,.4-.11s.39,0,.41,0h-.09a1.23,1.23,0,0,0,.54,0,1.28,1.28,0,0,0,.39,0,.48.48,0,0,1-.2.07.39.39,0,0,1-.21,0,.35.35,0,0,1-.17-.12A.36.36,0,0,1,163,14h.33a1.21,1.21,0,0,0,.38,0h-.12a2,2,0,0,0,.39-.13h-.11c.52-.17,1-.32,1.58-.44l-.81-.18a2.78,2.78,0,0,1-.89-.19.57.57,0,0,1,.26,0h-.56V13h-.21l.12-.08a1.14,1.14,0,0,0-.45,0,1.15,1.15,0,0,0-.37,0l.12-.11a1.71,1.71,0,0,0-.45-.09,1.75,1.75,0,0,0-.56,0h.1a1.48,1.48,0,0,0-.42,0h.12a1.46,1.46,0,0,0-.51,0,1.94,1.94,0,0,0-.68,0h.11a2.81,2.81,0,0,0-.58,0,2.35,2.35,0,0,0-.53,0,1.21,1.21,0,0,0-.38,0,2.57,2.57,0,0,0-.48.11,1.2,1.2,0,0,0-.58.21s0,0,0-.06,0,0,0-.06c-.14.16-.42.19-.52.38a.17.17,0,0,1,0-.14c0,.2-.3.25-.3.52,0,0-.12,0-.12-.15s-.25.27-.2.48a.24.24,0,0,1,0-.12.55.55,0,0,0,.09-.51Z"></path>
        <path class="cls-2" d="M150.93,25.87a2.28,2.28,0,0,0-.18.63,1.71,1.71,0,0,0,0,.78v.79a2.8,2.8,0,0,0,.13.64.14.14,0,0,1,0-.09s0,.37.1.41v-.11l.16.43a1.75,1.75,0,0,0,.19.42v-.09a1.27,1.27,0,0,0,.18.37V30a1.36,1.36,0,0,0,.22.35v-.11a1.23,1.23,0,0,0,.2.32.24.24,0,0,1,0-.12c.12.21.21.33.3.24a1.1,1.1,0,0,0,.28.29v-.11a1.75,1.75,0,0,0,.33.39v-.28a1.07,1.07,0,0,0,.26.26V31s.18.21.23.21a1.42,1.42,0,0,0,.3.25v-.12s.23.19.31.19v-.09l1.28.8-.4-.64a2.55,2.55,0,0,1-.4-.72.52.52,0,0,1,.19.14l-.28-.44h.12v-.16h.12a1.25,1.25,0,0,0-.21-.35h.11a1.31,1.31,0,0,0-.19-.27h.14a1.33,1.33,0,0,0-.2-.37A1.81,1.81,0,0,0,154,29h.08a.91.91,0,0,0-.17-.34h.1a1,1,0,0,0-.21-.37,2.25,2.25,0,0,0-.31-.51h.1a1.31,1.31,0,0,0-.26-.4,1.93,1.93,0,0,0-.28-.36l-.21-.24s-.3-.32-.32-.3a1,1,0,0,0-.4-.32c-.19,0-.33-.25-.54-.23s0,0,0-.11-.32-.14-.51,0,0-.12,0-.14a.57.57,0,0,0-.46,0v-.12a.59.59,0,0,0,.13.19A.45.45,0,0,0,150.93,25.87Z"></path>
        <path class="cls-2" d="M179.07,90.33a3,3,0,0,0-.18.72,1.75,1.75,0,0,0,0,.85v.87a3.86,3.86,0,0,0,0,.68v.36a.29.29,0,0,1,0-.13l.12.46a3.66,3.66,0,0,0,.18.46,1.53,1.53,0,0,0,.14.41V94.9a1,1,0,0,0,.19.41V95.2a.59.59,0,0,0,.18.35v-.12s.17.39.31.3.21.34.25.35V96a1.55,1.55,0,0,0,.28.48V96c0,.09.16.25.23.32v-.18s.14.27.21.28.19.29.28.32v-.14c0,.09.21.27.3.28v-.1A16.54,16.54,0,0,1,182.75,98l-.27-.79a3.27,3.27,0,0,1-.28-.92s.16.14.18.21l-.21-.55h.14a.74.74,0,0,1,0-.21h.12a1.28,1.28,0,0,0-.17-.42h.12a1.17,1.17,0,0,0-.16-.36h.14a1.38,1.38,0,0,0-.16-.47h.11a2.44,2.44,0,0,0-.21-.53h.1a1.32,1.32,0,0,0-.15-.39.17.17,0,0,1,.1,0,1,1,0,0,0-.21-.46H182a2.91,2.91,0,0,0-.33-.63l.06,0,.06,0a2.61,2.61,0,0,0-.28-.52,4.48,4.48,0,0,0-.32-.44,1.83,1.83,0,0,0-.24-.31,2.47,2.47,0,0,0-.35-.37,1.15,1.15,0,0,0-.49-.39.15.15,0,0,1,0-.07l.07,0c-.21,0-.39-.28-.61-.26a.15.15,0,0,1,0-.13c-.2,0-.39-.14-.6,0s0-.16,0-.17a.71.71,0,0,0-.53,0v-.16a.7.7,0,0,0,0,.25.55.55,0,0,0,.12.24.6.6,0,0,0,.19.16A.55.55,0,0,0,179.07,90.33Z"></path>
        <path class="cls-2" d="M197.21,58.27a3.06,3.06,0,0,0,.58.44,1.86,1.86,0,0,0,.7.39V59l.4.23v-.12l.48.17a.14.14,0,0,1,0-.09,4.19,4.19,0,0,0,.59.22v-.09l.41.12v-.12l.44.09v-.09a1.69,1.69,0,0,0,.45,0s.35.1.4,0v-.11a1.09,1.09,0,0,0,.44,0v-.1a1.15,1.15,0,0,0,.37,0V59c.25,0,.4,0,.39-.1h.4a2.35,2.35,0,0,0,.53,0,1.09,1.09,0,0,0,.36,0h.44a1.25,1.25,0,0,0,.39-.11h-.11a12.39,12.39,0,0,1,1.58-.35l-.79-.21a5.5,5.5,0,0,1-.88-.25h.27l-.56-.12h0a1.12,1.12,0,0,0-.44-.09,1.15,1.15,0,0,0-.37,0h.12a2.47,2.47,0,0,0-.47-.11,2.8,2.8,0,0,0-.58-.09h.11a1.48,1.48,0,0,0-.42,0h.1a2.17,2.17,0,0,0-.51,0,2.89,2.89,0,0,0-.72,0h.11a3,3,0,0,0-.6,0,2.54,2.54,0,0,0-.54.09,1.38,1.38,0,0,0-.39.09,4.66,4.66,0,0,0-.49.16,1.31,1.31,0,0,0-.56.26.11.11,0,0,1,0-.06.14.14,0,0,1,0-.06c-.14.16-.42.25-.49.44a.24.24,0,0,1,0-.12c0,.19-.28.28-.23.53,0,0-.15,0-.14-.11s-.23.28-.14.5l-.1-.11a.68.68,0,0,0,.11-.31.53.53,0,0,0-.08-.32.57.57,0,0,0-.24-.22A.51.51,0,0,0,197.21,58.27Z"></path>
        <path class="cls-2" d="M111.68,82.23a1.77,1.77,0,0,0,0,.46.89.89,0,0,0,0,.51v.28l.08.32a2,2,0,0,0,.13.41,2.44,2.44,0,0,0,.1.24l.14.25a1.27,1.27,0,0,0,.18.27.79.79,0,0,0,.14.23l.17.21s0,.16.14.17.18.22.23.15.18.15.19.15.16.2.25.23l.19.16v-.1s.13.12.16.12l.21.12a.53.53,0,0,0,.21.11l.89.44-.31-.39a1.65,1.65,0,0,1-.32-.46h.14l-.21-.26v-.11a.8.8,0,0,0-.17-.21,1.07,1.07,0,0,0-.14-.16.78.78,0,0,0-.16-.24.66.66,0,0,0-.19-.27.52.52,0,0,0-.14-.19s-.11-.2-.18-.23a1.57,1.57,0,0,0-.24-.32,2.73,2.73,0,0,0-.23-.25,1.06,1.06,0,0,0-.23-.19s-.1-.13-.16-.14a1.12,1.12,0,0,0-.22-.16,1,1,0,0,0-.32-.18,1,1,0,0,0-.39-.1h-.35c-.12,0,0-.11,0-.11H111a.54.54,0,0,0,.36.14.53.53,0,0,0,.36-.17.47.47,0,0,0,.14-.37A.48.48,0,0,0,111.68,82.23Z"></path>
        <path class="cls-2" d="M86,61.34a1.8,1.8,0,0,0-.65-.09,1.49,1.49,0,0,0-.75.1h-.35a4.68,4.68,0,0,0-.48.18h.09a2.48,2.48,0,0,0-.58.25l-.37.21h.13l-.37.25h.09a1.43,1.43,0,0,0-.35.3h.1s-.3.19-.31.26h.1a1.22,1.22,0,0,0-.28.32h.35s-.23.18-.23.26,0,0,.13,0-.28.3-.16.37a1.14,1.14,0,0,0-.19.34H82a1.54,1.54,0,0,0-.26.42,1.37,1.37,0,0,0-.16.32h.14s-.16.23-.14.28a1.09,1.09,0,0,0-.12.36s-.11.26,0,.35l-.28,1.43.42-.58a2.46,2.46,0,0,1,.51-.6.74.74,0,0,1,0,.21l.29-.37V66l.13-.14V66a1.68,1.68,0,0,0,.24-.29.14.14,0,0,1,0,.09.92.92,0,0,0,.19-.25.29.29,0,0,1,0,.13,1.26,1.26,0,0,0,.29-.27,3.19,3.19,0,0,0,.33-.31,1.05,1.05,0,0,0,.24-.23,1.1,1.1,0,0,0,.28-.29,1.56,1.56,0,0,0,.37-.4v.1a1.18,1.18,0,0,0,.3-.33,1.35,1.35,0,0,0,.26-.32,1.14,1.14,0,0,0,.18-.25,2.41,2.41,0,0,0,.65.18,1.19,1.19,0,0,0,.21-.44c0-.18.16-.34.12-.53h.11V62.1c0-.18.14,0,.15,0a.77.77,0,0,0-.1-.45h.12a.41.41,0,0,0-.19-.24A.4.4,0,0,0,86,61.34Z"></path>
        <path class="cls-2" d="M75.67,42.79a5,5,0,0,0-.6-.69.14.14,0,0,0,0,.09,2.47,2.47,0,0,0-.77-.67v.12l-.46-.38v.16L73.3,41v.15c-.22-.16-.45-.31-.68-.45v.13l-.37-.25v.16l-.39-.26v.1a3.43,3.43,0,0,0-.52-.23v.13c-.09,0-.41-.23-.48-.22v.16a1.28,1.28,0,0,0-.51-.17.38.38,0,0,1,0,.15c-.1,0-.35-.19-.43-.15s0,.12,0,.17c-.28-.12-.48-.19-.51,0a2.3,2.3,0,0,0-.51-.1v.14a2.28,2.28,0,0,0-.63-.18v.11a2.37,2.37,0,0,0-.46-.11s.16.16.14.18-.35-.14-.4-.11v.09a2.18,2.18,0,0,0-.51,0l.12.11h-.38a10.3,10.3,0,0,1-2.07-.27l.86.62a5.1,5.1,0,0,1,1,.69,1,1,0,0,1-.35,0,4.8,4.8,0,0,0,.67.37.19.19,0,0,0-.16.09l.24.14h-.17a2.11,2.11,0,0,0,.52.26l-.12.09a2,2,0,0,0,.46.19.34.34,0,0,1-.2,0,1.78,1.78,0,0,0,.57.32.21.21,0,0,1,0,.11,2.47,2.47,0,0,0,.7.32h-.16a2,2,0,0,0,.52.22h-.15a1.69,1.69,0,0,0,.65.23v.09a3.54,3.54,0,0,0,.91.27.33.33,0,0,1-.14,0,2.87,2.87,0,0,0,.77.17.14.14,0,0,1,0,.09,3,3,0,0,0,.73,0,2.35,2.35,0,0,0,.53,0,3.86,3.86,0,0,0,.68,0v.09a1.49,1.49,0,0,0,.81-.19.19.19,0,0,1,0,.08.29.29,0,0,1,0,.09c.21-.17.61-.19.75-.44a.19.19,0,0,1,0,.18c.11-.23.44-.28.44-.62,0,0,.18.12.16.18,0-.22.35-.32.28-.6a.25.25,0,0,1,.12.16.77.77,0,0,0,.12-.36A.78.78,0,0,0,75.67,42.79Z"></path>
        <path class="cls-3" d="M94.74,38.71c0-.52.44-.9.49-1.39h-.1a3.22,3.22,0,0,0,.19-.74h-.14a.94.94,0,0,0,.17-.58h-.1a2.51,2.51,0,0,0,.1-.6s-.12.12-.14.1,0-.58,0-.7-.08.09-.1.12v-.46a.21.21,0,0,0,0,.11,1.51,1.51,0,0,0,0-.6l-.46.3s-.12-.46-.15-.53l-.11.17c0-.14,0-.35-.17-.44a.43.43,0,0,1,0,.16,1.86,1.86,0,0,0-.15-.51s0,.19-.14.18a1,1,0,0,0-.21-.48V33a.54.54,0,0,0-.06-.25.74.74,0,0,0-.16-.19.43.43,0,0,1,0,.16.61.61,0,0,0-.35-.5v.25A.83.83,0,0,0,92.9,32v.11a.86.86,0,0,0-.42-.44v.18a3.11,3.11,0,0,0-.37-.34s0,.19,0,.21-.28-.37-.31-.39v.14l-.41-.42a1.22,1.22,0,0,1,0,.27,4.11,4.11,0,0,0-.38-.45v.18s-.28-.33-.34-.35,0,.1,0,.16a1.79,1.79,0,0,1-.42-.53,3.76,3.76,0,0,0,0,1.06h-.1a2.67,2.67,0,0,0,0,.4.12.12,0,0,1-.12-.14,3.21,3.21,0,0,0,0,.62,3.21,3.21,0,0,0,0,.62v.12h-.11c0,.09,0,.3.09.37s-.11,0-.14,0a1.16,1.16,0,0,0-.48.14c0,.14.21.51,0,.55s.16.55.21.53-.17,0-.15,0a3.84,3.84,0,0,0,.4.7h-.16s.28.48.37.5h-.12c0,.17.17.25.3.39s0,0,.1.17-.12,0-.12,0l.38.32.14.09s0,.18-.12.12.39.18.39.2-.18.12-.2,0a1.23,1.23,0,0,0,.37.31,1.25,1.25,0,0,0,.46.15s-.16.15-.16,0,.58.26.67.26l-.16.09.61.16s-.17.19-.19.17a2.55,2.55,0,0,0,.49.09,1.49,1.49,0,0,1,.3,0c.07,0,0,.11,0,.11C93.16,38.86,94.5,38.52,94.74,38.71Z"></path>
        <path class="cls-3" d="M83,62.68c-.42-.16-.6-.58-1-.76a3,3,0,0,0-.49-.37.14.14,0,0,1,0,.06.19.19,0,0,1,0,.07c-.1-.11-.24-.29-.38-.32v.09l-.39-.27v.14l-.49-.23v.14l-.35-.1a1,1,0,0,0-.44-.16.33.33,0,0,1,0,.14h-.4l.09.14a.69.69,0,0,0-.35,0v.11a1.3,1.3,0,0,0-.37-.11s.09.16,0,.2a.75.75,0,0,0-.42,0l.1.1a.39.39,0,0,0-.38,0h.08a.69.69,0,0,0-.45,0l.16.11a.77.77,0,0,0-.37,0v.1a.68.68,0,0,0-.48.11l.09.11a3.47,3.47,0,0,0-.37.1s.11.11.11.14h-.4a.29.29,0,0,1,0,.13H75.7s.14.1.14.15h-.75s0,0,0,.13a1.32,1.32,0,0,1-.56,0,2.51,2.51,0,0,0,.7.55h-.09a1.11,1.11,0,0,0,.3.17h-.16a2.27,2.27,0,0,0,.46.3,3.41,3.41,0,0,0,.44.3.68.68,0,0,0,.31.11h-.1a.67.67,0,0,0,.36.14h-.14c.13,0,.49,0,.42.21a2.17,2.17,0,0,0,.51,0s0,.12-.1.09a4.2,4.2,0,0,1,.73,0c.13,0,0,0,0,.1a1.28,1.28,0,0,0,.55,0,.82.82,0,0,0,.44,0h.17c.18,0,0,.13,0,.13s.35-.16.42-.18h.12s.11,0,0,.13l.3-.23v.17a1,1,0,0,0,.39-.16,1.26,1.26,0,0,0,.3-.31v.14s.43-.36.45-.44a.48.48,0,0,1,0,.17l.34-.44s.1.2,0,.2.21-.29.22-.36,0-.19.11-.24S82.82,62.82,83,62.68Z"></path>
        <path class="cls-3" d="M73.74,41.64c-.48-.42-.48-1.13-.91-1.55v.14a3.62,3.62,0,0,0-.58-.77.19.19,0,0,1,0,.08.29.29,0,0,1,0,.09,1.5,1.5,0,0,0-.44-.62v.15a2.17,2.17,0,0,0-.54-.55v.21s-.6-.44-.74-.51,0,.16,0,.21L70,38.27v.14a1.88,1.88,0,0,0-.7-.33v.21c0,.07-.6-.19-.69-.19l.11.21a1.25,1.25,0,0,0-.6-.13.59.59,0,0,1,.12.16,2.72,2.72,0,0,0-.65-.19s.15.23.11.28a1.51,1.51,0,0,0-.7-.1,1.14,1.14,0,0,1,.16.15,1,1,0,0,0-.67,0,.16.16,0,0,1,.16.15,1,1,0,0,0-.77,0l.28.15a1.12,1.12,0,0,0-.63,0v.15a1,1,0,0,0-.76.19l.14.14a5.9,5.9,0,0,0-.59.2c-.06,0,.21.14.21.21a4.13,4.13,0,0,0-.63.12A.52.52,0,0,1,64,40l-.7.19s.23.14.25.21a3.88,3.88,0,0,0-.69.18l.25.07a2.41,2.41,0,0,0-.56.18c0,.05,0,.12.14.17a1.91,1.91,0,0,1-.81.18,5.48,5.48,0,0,0,1.14.56l0,0-.06,0a1.3,1.3,0,0,0,.46.18s-.16.11-.21,0,.63.35.67.34h-.13c.21,0,.41.28.65.35h0l-.09.09c.09,0,.32.16.42.12s-.1.09-.14.11a.94.94,0,0,0,.49.15.38.38,0,0,1-.15,0c.15,0,.63.09.56.29s.63.19.64.12-.1.18-.12.14.77,0,.93,0l-.1.14a2.06,2.06,0,0,0,.7,0l-.11.09a1.06,1.06,0,0,0,.56,0h.23c.23,0,0,.18,0,.18l.54-.2c.09,0,.16-.08.18,0l0,0A.19.19,0,0,1,69,44l0,0a3.14,3.14,0,0,1,.44-.25,1,1,0,0,1,0,.25,1.29,1.29,0,0,0,.54-.15,1.24,1.24,0,0,0,.44-.35v.22c0-.06.67-.39.72-.48s0,.25,0,.25l.58-.5v.32s.38-.3.45-.39.13-.26.23-.3,0,.14,0,.14C72.58,43.2,73.35,41.71,73.74,41.64Z"></path>
        <path class="cls-3" d="M154,15.17c.27.57,0,1.19.23,1.77l0-.14a2.94,2.94,0,0,0,.28.9.16.16,0,0,1,0-.09l.08,0a1.48,1.48,0,0,0,.22.71v-.11a2.55,2.55,0,0,0,.37.69v-.19a9,9,0,0,0,.61.7c.13.11,0-.14,0-.21l.51.41a.43.43,0,0,0,0-.16,1.89,1.89,0,0,0,.65.51v-.21c0-.07.58.33.69.35a.74.74,0,0,1,0-.21,1.81,1.81,0,0,0,.59.25l-.1-.2a2,2,0,0,0,.66.32s-.12-.23,0-.26a1.91,1.91,0,0,0,.74.21.62.62,0,0,1-.14-.18,1,1,0,0,0,.68.14A.7.7,0,0,1,160,20a1.24,1.24,0,0,0,.85,0l-.28-.18a1.16,1.16,0,0,0,.64,0v-.14a1.14,1.14,0,0,0,.79-.14.62.62,0,0,1-.14-.14,4.75,4.75,0,0,0,.62-.16s-.2-.14-.2-.19a4.64,4.64,0,0,0,.65-.11.42.42,0,0,1-.1-.17l.7-.18s-.23-.14-.25-.21a3.9,3.9,0,0,0,.67-.18s-.16,0-.18-.11.51-.12.55-.17a1,1,0,0,1-.13-.16,1.75,1.75,0,0,1,.74-.21,7.16,7.16,0,0,0-1.09-.5,1.4,1.4,0,0,0-.4-.16s.14-.1.19,0-.57-.4-.57-.37a.17.17,0,0,1,.1,0c-.19,0-.35-.28-.56-.35h-.11v-.09s-.26-.16-.36-.12.08,0,.12-.11-.3-.19-.42-.17H162c-.14,0-.55-.13-.46-.32s-.53-.23-.56-.16.12-.18.14-.12-.63-.16-.79-.13,0-.1.12-.14-.52-.1-.59,0h-.56c-.2,0,0-.16,0-.16h-.65l0,0a.09.09,0,0,1,0,0,.13.13,0,0,1,0-.06l0,0a3.45,3.45,0,0,1-.42.14s0-.23.12-.21a1.11,1.11,0,0,0-.54-.05v-.18a7.19,7.19,0,0,0-.74.25l.09-.25c0-.11-.63.28-.63.28a.39.39,0,0,1,0-.3,1.65,1.65,0,0,0-.49.21c-.09.06-.22.2-.3.22s0-.16,0-.15S154.4,15.26,154,15.17Z"></path>
        <path class="cls-3" d="M197.19,60.6c.63-.11,1.14.31,1.76.26v-.12a4.61,4.61,0,0,0,.91,0,.24.24,0,0,1,0-.08.19.19,0,0,1,0-.08,1.46,1.46,0,0,0,.72,0v-.12a2.89,2.89,0,0,0,.72,0s-.18-.11-.16-.13.68-.14.8-.19l-.15-.13.51-.21h-.15a1.86,1.86,0,0,0,.69-.26.24.24,0,0,1-.19-.11c-.07-.1.52-.28.57-.35H203c.14-.09.37-.18.46-.34h-.19a2.35,2.35,0,0,0,.56-.31s-.27,0-.27-.11a1.33,1.33,0,0,0,.53-.41h-.21a.72.72,0,0,0,.27-.15.92.92,0,0,0,.19-.25h-.2c-.05,0,.44-.34.48-.57h-.28a1,1,0,0,0,.4-.42h-.16a1.07,1.07,0,0,0,.39-.64h-.2s.27-.49.27-.52-.23,0-.27,0,.34-.46.36-.52a.34.34,0,0,1-.2,0l.35-.6H205a4.38,4.38,0,0,0,.37-.58h-.19s.3-.42.28-.48-.14,0-.19,0a1.34,1.34,0,0,1,.45-.65,3.86,3.86,0,0,0-1.19.34.13.13,0,0,1,0-.06.15.15,0,0,1,0-.07,2.18,2.18,0,0,0-.45.16s0-.16.12-.17a4.33,4.33,0,0,0-.7.21v-.11c0-.1-.48,0-.7.18V52.9h-.14v-.1s-.34.12-.39.21a.54.54,0,0,0,0-.18.73.73,0,0,0-.46.25v-.16c-.15,0-.5.39-.59.19s-.58.34-.56.39,0-.19,0-.19c-.21,0-.6.51-.69.67s0-.12,0-.2-.45.46-.45.57v-.14c-.2.1-.25.26-.37.42s0,0-.18.18-.12-.13-.1-.14-.21.46-.25.53a.39.39,0,0,0,0,.19h-.06a.06.06,0,0,1-.05,0,.08.08,0,0,1,0,0,.14.14,0,0,1,0-.06s0,.48-.11.5-.17-.18-.14-.21a1.29,1.29,0,0,0-.26.49,1.57,1.57,0,0,0,0,.57s-.22-.15-.14-.15c-.19,0-.15.75-.14.83a1.15,1.15,0,0,1-.14-.17c-.1,0,0,.76,0,.76s-.26-.16-.24-.2a5.85,5.85,0,0,1,0,.6,1.09,1.09,0,0,1,0,.36c0,.08-.14,0-.12,0C196.76,58.76,197.37,60.26,197.19,60.6Z"></path>
        <path class="cls-4" d="M97.27,34a2.69,2.69,0,0,0,.14.74,1.76,1.76,0,0,0,.29.8l.16.46v-.13l.26.48v-.11a4.42,4.42,0,0,0,.34.6v-.12l.26.39V37l.3.37v-.11a2.25,2.25,0,0,0,.31.37v-.12s.21.32.28.33v-.12a1.56,1.56,0,0,0,.34.3.33.33,0,0,1,0-.14s.19.26.28.26,0,0,0-.14.31.3.38.16a1.2,1.2,0,0,0,.37.23v-.12a1.75,1.75,0,0,0,.44.33v-.1a1.85,1.85,0,0,0,.33.21V38.5s.23.21.3.2a1,1,0,0,0,.37.17v-.1c.09,0,.28.16.39.14a14.78,14.78,0,0,1,1.54.65l-.55-.65c-.15-.18-.52-.51-.57-.73a.44.44,0,0,1,.24.13l-.4-.44h.14l-.16-.18h.14a1.47,1.47,0,0,0-.31-.35H103a2.37,2.37,0,0,0-.28-.27h.16a1.89,1.89,0,0,0-.32-.37h.09c-.11-.1-.28-.37-.41-.42h.13a1.83,1.83,0,0,0-.3-.32h.12a1.8,1.8,0,0,0-.38-.35,2.21,2.21,0,0,0-.55-.46h.13a1.83,1.83,0,0,0-.46-.37,1.72,1.72,0,0,0-.47-.28,1.37,1.37,0,0,0-.35-.2,3.86,3.86,0,0,0-.2-.74,1.65,1.65,0,0,0-.61-.18.13.13,0,0,1,0-.1c-.21,0-.47-.11-.68,0a.22.22,0,0,1,0-.16c-.16.11-.41,0-.55.23s0-.14,0-.18a.43.43,0,0,0-.45.28.2.2,0,0,1,0-.15.54.54,0,0,0-.31.28A.61.61,0,0,0,97.27,34Z"></path>
        <path class="cls-4" d="M96.41,37.09a4.09,4.09,0,0,0,1-.44h-.11a2.6,2.6,0,0,0,1-.67h-.12l.58-.39h-.18s.55-.46.58-.51H99a5.71,5.71,0,0,0,.72-.67h-.14L100,34h-.19l.42-.51h-.14c.14-.18.28-.37.4-.56h-.16s.37-.39.37-.5h-.17a1.84,1.84,0,0,0,.35-.55h-.2c0-.1.3-.35.28-.47h-.21c.21-.32.35-.51.14-.6a2,2,0,0,0,.23-.57H101a2.12,2.12,0,0,0,.36-.7h-.14a2.75,2.75,0,0,0,.21-.51.72.72,0,0,1-.21.12,1.84,1.84,0,0,0,.2-.46h-.11a2.46,2.46,0,0,0,.19-.58l-.15.14a1.94,1.94,0,0,0,.12-.58l-.12.1a20.81,20.81,0,0,1,.66-2.34l-.84.88c-.23.26-.63.86-.94,1a.89.89,0,0,1,.14-.37c-.2.21-.37.43-.55.66v-.18l-.21.25a.81.81,0,0,1,0-.22,2.65,2.65,0,0,0-.42.53.38.38,0,0,1,0-.15,2.13,2.13,0,0,0-.31.47.88.88,0,0,1,0-.23,2.29,2.29,0,0,0-.48.55.2.2,0,0,1,0-.11c-.12.16-.47.5-.51.69a.48.48,0,0,1,0-.17,2.17,2.17,0,0,0-.38.52.6.6,0,0,1,0-.19A2.13,2.13,0,0,0,97,30a.11.11,0,0,1,0-.08,3.24,3.24,0,0,0-.51.93.21.21,0,0,1,0-.18,2.62,2.62,0,0,0-.4.78H96a5.13,5.13,0,0,0-.27.78V32.1a3.62,3.62,0,0,0-.17.56,5.32,5.32,0,0,0-.14.78h-.11a2.13,2.13,0,0,0,0,.94l-.09,0-.1,0c.12.3,0,.72.25,1a.46.46,0,0,1-.18.13.49.49,0,0,1-.21,0,.46.46,0,0,1-.2-.05.58.58,0,0,1-.17-.14c.21.19.16.58.53.69,0,0-.19.16-.25.1.23.13.23.5.55.53a.37.37,0,0,1-.21,0,.67.67,0,0,0,.19.28.87.87,0,0,0,.28.19.78.78,0,0,0,.34.05A.8.8,0,0,0,96.41,37.09Z"></path>
        <path class="cls-4" d="M154.56,14.94a3,3,0,0,0,.45-.61h-.08a2.2,2.2,0,0,0,.38-.82l.21-.45h-.12l.16-.55h-.11a4.35,4.35,0,0,0,.18-.71h-.11v-.47l-.1.1v-.51h-.09a1.57,1.57,0,0,0,0-.53,1.77,1.77,0,0,0,0-.46,1.24,1.24,0,0,0,0-.47h-.11a.94.94,0,0,0,0-.41s-.08,0-.12.11c0-.29,0-.46-.17-.41a1.93,1.93,0,0,0-.34.11V9a1.78,1.78,0,0,0-.1-.56,1.49,1.49,0,0,0-.23-.27v.18s0-.32-.11-.35a1.44,1.44,0,0,0-.15-.41v.14a2.22,2.22,0,0,0-.21-.37v.11c-.28-.5-.55-1-.79-1.56v.89a3.94,3.94,0,0,1,0,1s-.13-.18-.11-.27v.62L152.77,8a.89.89,0,0,1,0,.23h-.26a1.29,1.29,0,0,0,0,.48h-.13a2.54,2.54,0,0,0,0,.39.37.37,0,0,1,0-.11.24.24,0,0,1,0-.12,1.46,1.46,0,0,0,0,.51,1.88,1.88,0,0,0,0,.58,1.09,1.09,0,0,0,0,.44v-.1a1.51,1.51,0,0,0,0,.52,1.81,1.81,0,0,0,.09.73.21.21,0,0,1-.11,0,3,3,0,0,0,0,.6,3.18,3.18,0,0,0,.14.53c0,.13.07.26.11.39a4.94,4.94,0,0,0,.19.49,1.31,1.31,0,0,0,.32.56.1.1,0,0,1-.07,0,.08.08,0,0,1-.07,0c.19.15.26.43.49.5a.34.34,0,0,1-.12.09c.19,0,.29.28.56.23,0,0,0,.16-.13.16s.3.22.53.14a.27.27,0,0,1-.11.1.55.55,0,0,0,.26-.14A.58.58,0,0,0,154.56,14.94Z"></path>
        <path class="cls-4" d="M177.82,87.7a2.79,2.79,0,0,0,.44-.69,1.93,1.93,0,0,0,.33-.86l.18-.51s-.11.08-.13,0a6,6,0,0,1,.11-.6h-.09a4.92,4.92,0,0,0,.09-.76h-.09a4.34,4.34,0,0,0,0-.51.24.24,0,0,1,0,.12v-.55l-.09.09a1.75,1.75,0,0,0,0-.56V83a1.35,1.35,0,0,0,0-.49v.1a1.41,1.41,0,0,0-.12-.49l-.1.1a.91.91,0,0,0-.11-.42.13.13,0,0,1-.1.12c0-.28-.13-.47-.27-.38s-.17-.41-.21-.43v.13a1.45,1.45,0,0,0-.24-.57v.11a2.38,2.38,0,0,0-.2-.39v.19s-.1-.31-.17-.33a2,2,0,0,0-.26-.39V80c0-.09-.21-.3-.3-.34v.13c-.4-.44-.81-.9-1.19-1.38l.22.87a2.73,2.73,0,0,1,.21,1,.66.66,0,0,1-.17-.23l.16.6h-.13c-.12,0,0,.16,0,.23h-.12a2.22,2.22,0,0,0,.12.46h-.12a1.27,1.27,0,0,0,.12.39h-.15a4.34,4.34,0,0,0,0,.51h-.11a2.71,2.71,0,0,0,.12.58h-.1a1.69,1.69,0,0,0,0,.45v-.09a1.78,1.78,0,0,0,.1.51,2.73,2.73,0,0,0,.2.69h-.11a2.38,2.38,0,0,0,.16.58,1.62,1.62,0,0,0,.21.51,1.73,1.73,0,0,0,.16.37s.23.46.24.46a1.16,1.16,0,0,0,.37.53.17.17,0,0,1-.14,0c.21.11.3.39.54.46h-.14c.21,0,.34.28.6.21,0,0,0,.16-.1.16s.31.21.54.11a.49.49,0,0,1-.11.14A.61.61,0,0,0,177.82,87.7Z"></path>
        <path class="cls-4" d="M163.94,67.3a3,3,0,0,0,.94-.44,2.41,2.41,0,0,0,1-.76h-.14l.54-.47h-.19s.49-.57.52-.64h-.15a4.08,4.08,0,0,0,.57-.85.17.17,0,0,1-.14,0s.32-.54.34-.6H167l.27-.65h-.13a3.56,3.56,0,0,0,.23-.72l-.14.08a2,2,0,0,0,.19-.63l-.15.09a2.7,2.7,0,0,0,.12-.69h-.18a1.44,1.44,0,0,0,.09-.58.77.77,0,0,1-.18.1c0-.39,0-.65-.12-.61a2.29,2.29,0,0,0,0-.64l-.12.12a2.21,2.21,0,0,0,0-.81v.13a2,2,0,0,0,0-.59.8.8,0,0,1-.11.25V58a2.91,2.91,0,0,0-.15-.58v.2a1.5,1.5,0,0,0-.23-.55v.16c-.32-.7-.65-1.4-1-2.12v1.15a3.65,3.65,0,0,1-.11,1.27.75.75,0,0,1-.1-.36v.78a.45.45,0,0,1-.14-.1v.28a.53.53,0,0,1-.12-.14,2,2,0,0,0,0,.6h-.14a1.35,1.35,0,0,0,0,.49l-.14-.16a2.58,2.58,0,0,0-.13.6h-.12a2.62,2.62,0,0,0-.14.73.38.38,0,0,1,0-.15,1.86,1.86,0,0,0-.11.52v-.15a1.65,1.65,0,0,0-.1.62,3.11,3.11,0,0,0-.16.85.33.33,0,0,1,0-.14,2,2,0,0,0-.14.69,2.22,2.22,0,0,0,0,.63h-.09a1.93,1.93,0,0,0,0,.48q0,.31,0,.63h-.1a1.63,1.63,0,0,0,0,.76.21.21,0,0,1-.18,0c.14.25,0,.6.27.83h-.2c.21.18.16.51.49.64,0,0-.17.1-.22,0,.21.12.17.46.49.51a.37.37,0,0,1-.21,0A.71.71,0,0,0,163.94,67.3Z"></path>
        <path class="cls-4" d="M175.14,142.33a6,6,0,0,0,1.23-.38h-.13a3.09,3.09,0,0,0,1.28-.64h-.17l.73-.35h-.21l.76-.48h-.18a6,6,0,0,0,1-.62h-.19l.59-.42h-.23l.6-.49H180a5.12,5.12,0,0,0,.59-.55h-.19s.51-.35.54-.46h-.21a2.33,2.33,0,0,0,.51-.53H181c.12-.09.42-.32.46-.46s-.18,0-.25,0c.32-.3.53-.48.3-.63a3.51,3.51,0,0,0,.42-.59h-.23a2.5,2.5,0,0,0,.62-.68h-.18a1.68,1.68,0,0,0,.4-.52h-.29s.37-.35.37-.46h-.15a1.78,1.78,0,0,0,.41-.6l-.21.11A2.46,2.46,0,0,0,183,133h-.17a14.94,14.94,0,0,1,1.59-2.43c-.44.23-.88.46-1.3.7a6.68,6.68,0,0,1-1.45.82,1,1,0,0,1,.3-.39c-.3.19-.6.39-.88.6V132l-.33.23a1,1,0,0,1,0-.25,3,3,0,0,0-.69.5.81.81,0,0,1,0-.22,2.38,2.38,0,0,0-.52.48,1.31,1.31,0,0,1,0-.28,3.23,3.23,0,0,0-.74.53.43.43,0,0,1,0-.16,3,3,0,0,0-.82.69.38.38,0,0,1,0-.21,2.37,2.37,0,0,0-.6.54.49.49,0,0,1,0-.24,2.79,2.79,0,0,0-.67.7.15.15,0,0,1,0-.07.17.17,0,0,1,0-.07,4.86,4.86,0,0,0-.87,1,.3.3,0,0,1,0-.23,4,4,0,0,0-.69.9,4.4,4.4,0,0,0-.5.9v-.1a2.38,2.38,0,0,0-.35.67,4.45,4.45,0,0,0-.32.93h-.12a2.29,2.29,0,0,0-.21,1.15.2.2,0,0,1-.11,0,.17.17,0,0,1-.1,0c0,.37-.11.9.12,1.23a.39.39,0,0,1-.26,0c.22.25.12.71.54.9,0,0-.23.16-.3.11.26.16.21.62.6.69a.61.61,0,0,1-.27,0,1,1,0,0,0,.63.19A1.07,1.07,0,0,0,175.14,142.33Z"></path>
        <path class="cls-4" d="M114.06,161.85a4,4,0,0,0,.09-1,2.64,2.64,0,0,0,0-1.12v-.51s0,.14-.13.13-.12-.64-.14-.69v.12a5.14,5.14,0,0,0-.21-.86.24.24,0,0,1,0,.12,5.12,5.12,0,0,0-.15-.56v.17s-.21-.53-.23-.56v.1a4.29,4.29,0,0,0-.26-.58v.14a2.19,2.19,0,0,0-.23-.51v.14a1.58,1.58,0,0,0-.28-.51.51.51,0,0,1-.09.16,1.1,1.1,0,0,0-.23-.44.23.23,0,0,1-.09.17c-.15-.31-.26-.51-.42-.37s-.3-.42-.33-.44v.16a2.38,2.38,0,0,0-.39-.6v.14a1.2,1.2,0,0,0-.31-.4.45.45,0,0,1,0,.23s-.19-.34-.28-.36a3.68,3.68,0,0,0-.39-.4v.19a1.55,1.55,0,0,0-.4-.37v.16a15.41,15.41,0,0,1-1.56-1.57c.1.35.21.7.33,1.06a4.92,4.92,0,0,1,.37,1.2.81.81,0,0,1-.25-.27l.29.74h-.16c-.06,0,0,.2.09.29h-.18a2.67,2.67,0,0,0,.25.58h-.16a1.68,1.68,0,0,0,.24.46h-.19a2.08,2.08,0,0,0,.23.63h-.12a2.47,2.47,0,0,0,.31.73.33.33,0,0,1-.14,0,1.89,1.89,0,0,0,.25.54.22.22,0,0,1-.16,0,2,2,0,0,0,.35.64h-.7a3,3,0,0,0,.51.85.43.43,0,0,1-.16,0,3.74,3.74,0,0,0,.45.67,3.85,3.85,0,0,0,.51.56h-.1a2.79,2.79,0,0,0,.38.39,3.93,3.93,0,0,0,.55.44h-.09a1.35,1.35,0,0,0,.73.44.12.12,0,0,1,0,.09l-.08.05c.3,0,.58.32.9.25a.54.54,0,0,1,0,.18c.24,0,.52.12.77-.11v.25a.85.85,0,0,0,.65-.21.61.61,0,0,1,0,.19.76.76,0,0,0,.4-.94Z"></path>
        <path class="cls-2" d="M126.47,6.21a3.38,3.38,0,0,0-.26-.69,1.79,1.79,0,0,0-.35-.72v.1l-.19-.42v.11l-.28-.43c-.12-.18-.24-.36-.37-.53v.11l-.3-.18a.33.33,0,0,1,0,.14s-.26-.33-.26-.35v.09c-.11-.11-.22-.22-.34-.32v.11S123.9,3,123.83,3v.1s-.23-.25-.34-.26a.24.24,0,0,1,0,.12s-.19-.23-.28-.23,0,.09,0,.12-.31-.26-.38-.14a1.7,1.7,0,0,0-.35-.19v.12a1.88,1.88,0,0,0-.43-.31v.1a1.23,1.23,0,0,0-.31-.19v.16s-.21-.2-.28-.18a1.27,1.27,0,0,0-.37-.18v.13a.73.73,0,0,0-.37-.14v.08a8.85,8.85,0,0,1-1.47-.67c.16.23.33.44.49.66a2.7,2.7,0,0,1,.58.72.52.52,0,0,1-.25-.14c.13.16.27.3.39.44h-.12l.14.16h-.14a1.87,1.87,0,0,0,.31.32h-.1s.17.21.26.24H121a1.89,1.89,0,0,0,.32.37,2.15,2.15,0,0,0,.42.43h-.13a1.52,1.52,0,0,0,.32.3h-.12a1.1,1.1,0,0,0,.38.33,2.93,2.93,0,0,0,.56.44h-.12a2,2,0,0,0,.49.34,2.26,2.26,0,0,0,.49.25,1.76,1.76,0,0,0,.37.17,2.81,2.81,0,0,0,.49.16,1.17,1.17,0,0,0,.61.11.1.1,0,0,1,0,.12h.67a.33.33,0,0,1,0,.14c.14-.12.39,0,.51-.28v.16a.51.51,0,0,0,.4-.3.33.33,0,0,1,0,.14.53.53,0,0,0,0-.25A.45.45,0,0,0,126.47,6.21Z"></path>
        <path class="cls-2" d="M130.5,15.49a4.34,4.34,0,0,0,.72-.56h-.1a2.43,2.43,0,0,0,.68-.78h-.12l.38-.48h-.15l.35-.58h-.13a4.13,4.13,0,0,0,.41-.7h-.12c.08-.18.16-.35.22-.53h-.14l.2-.57h-.13a2,2,0,0,0,.16-.6h-.1a2,2,0,0,0,.14-.51h-.14a2.13,2.13,0,0,0,.1-.56h-.16a1.08,1.08,0,0,0,.09-.5h-.16c0-.32,0-.53-.1-.53a1.57,1.57,0,0,0,0-.53l-.11.11a1.61,1.61,0,0,0,0-.69h-.1a1.93,1.93,0,0,0,0-.48.46.46,0,0,1-.13.18V6.76a2.18,2.18,0,0,0,0-.51V6.4a1.41,1.41,0,0,0-.12-.49V6c-.19-.63-.33-1.32-.47-2l-.23,1a3.9,3.9,0,0,1-.31,1.11.65.65,0,0,1,0-.34l-.16.71s-.09,0-.13-.12,0,.17,0,.26l-.45.44a2.07,2.07,0,0,0-.11.55.27.27,0,0,1-.1-.11A1.19,1.19,0,0,0,130,8a.26.26,0,0,1-.11-.16,2.36,2.36,0,0,0-.17.59h-.11a4,4,0,0,0-.16.68s0,0,0-.07,0,0,0-.07a2.36,2.36,0,0,0-.12.51.24.24,0,0,1,0-.12,1.38,1.38,0,0,0-.1.6,3.5,3.5,0,0,0-.13.85v-.13a2,2,0,0,0,0,.69,3.64,3.64,0,0,0,0,.66,3.68,3.68,0,0,0,0,.47,3.21,3.21,0,0,0,0,.62H129a1.6,1.6,0,0,0,.19.74l-.08,0-.08,0c.16.21.18.57.41.72h-.18c.21.11.25.43.56.45,0,0-.12.15-.17.14.21,0,.28.35.54.31a.23.23,0,0,1-.16.11A.69.69,0,0,0,130.5,15.49Z"></path>
        <path class="cls-2" d="M117.64,62a3.21,3.21,0,0,0,.26-.67,2,2,0,0,0,.19-.8l.11-.45h-.11v-.52a3.32,3.32,0,0,0,0-.63v-.43l-.1.11v-.44a3.53,3.53,0,0,0,0-.46,1.41,1.41,0,0,0,0-.41,1,1,0,0,0,0-.42h-.09v-.37c0-.05,0,0-.11.11,0-.25,0-.43-.19-.37s-.09-.36-.1-.39V56a1.79,1.79,0,0,0-.11-.51,3.57,3.57,0,0,0-.1-.35V55a3,3,0,0,0-.14-.39v.13s0-.3-.16-.36v.11a10.58,10.58,0,0,1-.58-1.54l-.11.81a3.82,3.82,0,0,1-.1,1,.61.61,0,0,1,0-.27V55h-.11v.21c0,.07,0,0-.08-.11a1,1,0,0,0,0,.48h-.11a1.28,1.28,0,0,0,0,.39l-1.16.54a4.17,4.17,0,0,0,0,.5h-.1a2,2,0,0,0,0,.6v-.09a1.62,1.62,0,0,0,0,.44,1.19,1.19,0,0,0,0,.53,2.39,2.39,0,0,0,.16.74.24.24,0,0,1-.11-.09,1.78,1.78,0,0,0,.16.6,2.44,2.44,0,0,0,.21.53,1.38,1.38,0,0,0,.18.39,3.14,3.14,0,0,0,.28.46,1.41,1.41,0,0,0,.42.49h-.11c.19,0,.35.36.58.37a.24.24,0,0,1-.11.13c.2,0,.36.19.6,0v.17a.57.57,0,0,0,.51,0,.17.17,0,0,1,0,.14.52.52,0,0,0,.16-.17A.88.88,0,0,0,117.64,62Z"></path>
        <path class="cls-2" d="M118.53,68.26a2.08,2.08,0,0,0,.6-.18,1.4,1.4,0,0,0,.63-.32l.35-.18H120l.37-.24a2.61,2.61,0,0,0,.46-.34h-.11l.3-.23h-.12l.28-.26a2,2,0,0,0,.28-.3H121s.25-.21.25-.27h-.09l.23-.28h-.13s.2-.18.2-.25,0,0-.11,0,.23-.28.11-.33a2.91,2.91,0,0,0,.17-.3h-.1a1.31,1.31,0,0,0,.24-.37,1,1,0,0,0,.18-.28h-.14s.15-.2.14-.25a1.1,1.1,0,0,0,.14-.32h-.11a1.24,1.24,0,0,0,.12-.32A8.51,8.51,0,0,1,122.6,62l-.55.44a4.07,4.07,0,0,1-.59.51.26.26,0,0,1,0-.21l-.35.33v-.1l-.14.12v-.12a1.46,1.46,0,0,0-.27.28,1,1,0,0,0-.21.25v-.15a2.65,2.65,0,0,0-.29.29,1.83,1.83,0,0,0-.34.37.21.21,0,0,1,0-.11,3.45,3.45,0,0,0-.26.28.17.17,0,0,1,0-.1c-.09,0-.25.21-.28.33a1.74,1.74,0,0,0-.35.5.21.21,0,0,1,0-.11,1.92,1.92,0,0,0-.28.42,1.9,1.9,0,0,0-.21.43,1.3,1.3,0,0,0-.14.32,2.07,2.07,0,0,0-.14.42,1,1,0,0,0,0,.53h-.11v.56H118c.1.13,0,.34.26.43s-.12,0-.16,0,.11.28.28.31a.13.13,0,0,1-.12,0A.47.47,0,0,0,118.53,68.26Z"></path>
        <path class="cls-4" d="M117.6,71.61a3.2,3.2,0,0,0,.69.19,1.71,1.71,0,0,0,.78,0h1.74l.42-.1a1.39,1.39,0,0,0,.44-.13h-.09a1.8,1.8,0,0,0,.39-.08h-.09a1.32,1.32,0,0,0,.39-.15.67.67,0,0,0,.33-.1l-.11-.09c-.1-.09.39-.12.3-.25a1.48,1.48,0,0,0,.35-.19H123a2.18,2.18,0,0,0,.47-.21h-.1a1.06,1.06,0,0,0,.33-.18h-.18s.27-.09.3-.16a1,1,0,0,0,.33-.21h-.12s.26-.16.3-.25h-.11a9.06,9.06,0,0,1,1.3-.93l-.81.1a2.82,2.82,0,0,1-.87.13.6.6,0,0,1,.21-.14l-.54.12v-.12h-.22v-.11a1.09,1.09,0,0,0-.43.11.2.2,0,0,1,0-.11,1,1,0,0,0-.35.11.29.29,0,0,1,0-.13,1.77,1.77,0,0,0-.46,0,1.59,1.59,0,0,0-.56.14l.09-.1a1.45,1.45,0,0,0-.42.12v-.1a1.19,1.19,0,0,0-.49.17v-.09a2.42,2.42,0,0,0-.64.27.21.21,0,0,1,0-.11,2.08,2.08,0,0,0-.52.25,2,2,0,0,0-.46.3,1.69,1.69,0,0,0-.31.21,3.17,3.17,0,0,0-.39.34,1.09,1.09,0,0,0-.38.47.07.07,0,0,1,0-.1c0,.21-.3.39-.29.6a.27.27,0,0,1-.12-.09c0,.19-.14.37,0,.58s-.16,0-.17,0a4,4,0,0,0,0,.5h-.14a.53.53,0,0,0,.22-.2A.47.47,0,0,0,117.6,71.61Z"></path>
        <path class="cls-4" d="M85,62.12a2.58,2.58,0,0,0-.54.6h.09a1.93,1.93,0,0,0-.43.84l-.24.5H84s-.19.54-.19.58h.1a4,4,0,0,0-.17.76v.51l.12-.11v.55H84a2.71,2.71,0,0,0,0,.57,1.22,1.22,0,0,0,.15.17V67a2.17,2.17,0,0,0,0,.51l.11-.11a.82.82,0,0,0,0,.44l.1-.12c0,.3,0,.49.23.42s.16.43.18.46v-.12a1.52,1.52,0,0,0,.19.58v-.11a1.5,1.5,0,0,0,.18.41v-.19s.1.31.15.33a.68.68,0,0,0,.25.39v-.16a1.44,1.44,0,0,0,.28.37V70L87,71.38l-.21-.88a2.69,2.69,0,0,1-.18-1,.39.39,0,0,1,.16.23l-.12-.6h.12a.88.88,0,0,0,0-.23h.12a1.19,1.19,0,0,0,0-.46H87a1.53,1.53,0,0,0-.08-.37H87a2.09,2.09,0,0,0,0-.5h.1a1.88,1.88,0,0,0,0-.58h.09a1,1,0,0,0,0-.42h.1a1.4,1.4,0,0,0,0-.5,2,2,0,0,0-.1-.68h.1a1.68,1.68,0,0,0-.1-.55,2.13,2.13,0,0,0-.14-.51A2.26,2.26,0,0,0,87,64a2,2,0,0,0-.19-.48A1.44,1.44,0,0,0,86.5,63h.12c-.17-.14-.22-.42-.45-.53h.16c-.21,0-.28-.31-.57-.3,0,0,.09-.14.14-.14s-.28-.26-.5-.19a.24.24,0,0,1,.13-.15.27.27,0,0,1,.35.12.28.28,0,0,1,0,.2.65.65,0,0,0-.22-.11.53.53,0,0,0-.25,0,.5.5,0,0,0-.23.09A.52.52,0,0,0,85,62.12Z"></path>
      </g>
    </g>
  </g>
</svg>
