<?xml version="1.0" encoding="UTF-8"?>
<svg xmlns="http://www.w3.org/2000/svg" viewBox="0 0 203.11 166.41">
  <defs>
    <style>
      .cls-1 {
        fill: #204e2d;
      }

      .cls-2 {
        fill: #59a34e;
      }

      .cls-3 {
        fill: #76ad46;
      }

      .cls-4 {
        fill: #5f8c39;
      }

      .cls-5 {
        fill: #6a3285;
      }

      .cls-6 {
        fill: #282245;
      }

      .cls-7 {
        fill: #a16ea8;
      }

      .cls-8 {
        fill: #5a287f;
      }

      .cls-9 {
        fill: #e1cde3;
      }

      .cls-10 {
        fill: #362772;
      }

      .cls-11 {
        fill: #f0e014;
      }

      .cls-12 {
        fill: #f9dd28;
      }

      .cls-13 {
        fill: #289548;
      }

      .cls-14 {
        fill: #cea7cb;
      }

      .cls-15 {
        fill: #7db366;
      }

      .cls-16 {
        fill: #68ab6a;
      }

      .cls-17 {
        fill: #6c2c7f;
      }

      .cls-18 {
        fill: #af85b6;
      }

      .cls-19 {
        fill: #4b2d63;
      }

      .cls-20 {
        fill: #733c89;
      }

      .cls-21 {
        fill: #8d5196;
      }

      .cls-22 {
        fill: #451837;
      }

      .cls-23 {
        fill: #140d14;
      }

      .cls-24 {
        fill: #ccaace;
      }

      .cls-25 {
        fill: #503b6f;
      }

      .cls-26 {
        fill: #6d5d8a;
      }

      .cls-27 {
        fill: #9e78ae;
      }

      .cls-28 {
        fill: #a1b280;
      }

      .cls-29 {
        fill: #81905e;
      }

      .cls-30 {
        fill: #7b5499;
      }

      .cls-31 {
        fill: #a981b5;
      }

      .cls-32 {
        fill: #9879b0;
      }

      .cls-33 {
        fill: #8b7bae;
      }

      .cls-34 {
        fill: #796a95;
      }

      .cls-35 {
        fill: #f8dc1d;
      }
    </style>
  </defs>
  <g id="Слой_2" data-name="Слой 2">
    <g id="Слой_1-2" data-name="Слой 1">
      <g>
        <path class="cls-1" d="M115.38,166h-2.26c-.09-1.17-.19-2.32-.29-3.45,0,0,0,0,0-.05l-.12-1.34a.86.86,0,0,1,0-.16c-.08-.73-.15-1.44-.22-2.15,0-.12,0-.24,0-.37-.05-.48-.1-1-.16-1.44a1.36,1.36,0,0,0,0-.2s0-.07,0-.11c0-.33-.07-.66-.11-1-.17-1.57-.35-3.1-.53-4.57-.25-1.92-.51-3.75-.76-5.48q-.15-1-.3-1.92l-.06-.39q-.12-.78-.24-1.53l-.18-1.13,0-.17,0-.19c0-.25-.09-.5-.13-.74-.11-.67-.23-1.32-.34-1.95,0,0,0-.05,0-.07-.1-.56-.19-1.1-.29-1.62s-.2-1.11-.3-1.64q-.25-1.4-.51-2.58a.8.8,0,0,0,0-.15c-.17-.83-.33-1.57-.48-2.23s-.32-1.38-.45-1.91a.36.36,0,0,0,0-.1h0c0-.1,0-.2-.07-.29-.21-.85-.34-1.33-.34-1.4l.39-.1.21,0,.84-.22.26-.06.47-.12c0,.05.06.21.12.48s.2.79.34,1.4c.24,1,.56,2.39.92,4.14.33,1.59.71,3.46,1.1,5.6,0,.2.08.41.12.63,0,0,0,0,0,0s0,.14,0,.22c.05.29.1.59.16.88l.21,1.24,0,.13c.08.51.17,1,.26,1.58.06.37.12.74.18,1.13.22,1.35.43,2.78.64,4.26.18,1.21.35,2.46.51,3.76.14,1.1.28,2.23.41,3.39,0,.23,0,.46.08.69v.05c.12,1.12.24,2.28.36,3.45v0c0,.14,0,.27,0,.41h0c0,.12,0,.25,0,.38a.08.08,0,0,0,0,0c.08.85.16,1.71.23,2.58a1.64,1.64,0,0,1,0,.22q.1,1.2.21,2.43c0,.46.08.92.11,1.38Z"></path>
        <path class="cls-2" d="M107.81,130.8a1.59,1.59,0,0,1,0-1.21,8.13,8.13,0,0,1,3-3.47c3.91-2.92,4.33-2.51,5.4-3.94a13.21,13.21,0,0,0,2.35-3.52,9.61,9.61,0,0,0-.38-7.39c-1.16-3.42-1.94-5.53-2.73-7.3a20.25,20.25,0,0,0-3.65-5.28c-3.57-4.33-3.57-3.56-5-2.78s-1.8,3-5.27,4.61c-1.79.81-3.74,4-5.24,7.55s-2.18,7.22-1.65,8.84c1,3.3,1.65,5.51,7.56,9a24.79,24.79,0,0,1,2.17,1.65,8.78,8.78,0,0,1,2.62,3.3C107.44,133,107.62,132.27,107.81,130.8Z"></path>
        <path class="cls-1" d="M107,131.87c-.22-2.77-.3-5.57-.28-8.26s.11-5.55.15-8.26.33-5.58.44-8.37l.13-2.25c0-.69.12-1.42.17-2.13l.18-4.26a63.74,63.74,0,0,1-.1,8.52c-.1,2.79-.31,5.6-.36,8.36s-.2,5.55,0,8.26,0,5.53.29,8.26a.26.26,0,0,1-.08.2.28.28,0,0,1-.2.08.27.27,0,0,1-.19-.08.27.27,0,0,1-.09-.2Z"></path>
        <path class="cls-1" d="M106.91,128.16a9.92,9.92,0,0,1,2.4-3.8,13.87,13.87,0,0,1,1.65-1.51c.31-.21.6-.44.91-.64l.92-.61.45-.3.4-.35a7.88,7.88,0,0,0,.77-.76,7.56,7.56,0,0,0,1.18-1.73,7.36,7.36,0,0,0,.77-4,8.1,8.1,0,0,1-1.91,5.82q-.37.41-.78.78l-.41.36-.45.31-.91.63c-.31.2-.59.43-.89.64a19.69,19.69,0,0,0-1.65,1.51,9.49,9.49,0,0,0-2.26,3.7l0,0a.08.08,0,0,1,0,0l-.06,0h-.06s0,0,0,0l0,0,0-.05a.06.06,0,0,1,0-.06Z"></path>
        <path class="cls-1" d="M106.87,122.24l2.92-3.4,1.49-1.66c.48-.56,1-1.1,1.4-1.65a9.06,9.06,0,0,0,1.4-4,16,16,0,0,0,0-4.26,16.22,16.22,0,0,1,0,4.29,9.14,9.14,0,0,1-1.38,4.05,18.9,18.9,0,0,1-1.39,1.65L109.84,119l-2.73,3.41a.15.15,0,0,1-.11,0,.16.16,0,0,1-.12,0l0,0a.09.09,0,0,1,0,0,.13.13,0,0,1,0-.06l0,0Z"></path>
        <path class="cls-1" d="M107.1,113.31a8.26,8.26,0,0,0,2-1.47,9,9,0,0,0,1.52-1.94,3.78,3.78,0,0,0,.28-.53,4.41,4.41,0,0,0,.24-.54l.22-.58.15-.58a9,9,0,0,0,.26-1.17,5,5,0,0,1,.1-1.22v1.24a10,10,0,0,1-.23,1.19l-.13.59-.22.58a4.12,4.12,0,0,1-.23.58,5.52,5.52,0,0,1-.28.54,9.39,9.39,0,0,1-1.52,2,8.74,8.74,0,0,1-2,1.65.17.17,0,0,1-.22,0,.18.18,0,0,1,0-.2Z"></path>
        <path class="cls-1" d="M107.53,106.3a20.42,20.42,0,0,0,1.8-1.55A16,16,0,0,0,111,103a13.47,13.47,0,0,1-1.52,1.85,21.41,21.41,0,0,1-1.65,1.65.28.28,0,0,1-.12,0,.21.21,0,0,1-.11,0l0,0a.19.19,0,0,1,0-.12l0,0Z"></path>
        <path class="cls-1" d="M106.9,129.1a19.16,19.16,0,0,0-2.22-3.72,15.39,15.39,0,0,0-1.38-1.73L101.78,122a14.12,14.12,0,0,1-2.5-3.75,10,10,0,0,1-.94-4.44,9.81,9.81,0,0,0,1,4.39,13.68,13.68,0,0,0,2.55,3.66,34.74,34.74,0,0,1,3,3.3,19,19,0,0,1,2.35,3.77.19.19,0,0,1,0,.07.24.24,0,0,1,0,.08s0,.05,0,.06l-.06.05-.08,0H107a.18.18,0,0,1-.07-.05s0,0,0-.06Z"></path>
        <path class="cls-1" d="M106.87,119.22c-1.41-1.32-2.88-2.7-4.23-4.15-.33-.36-.66-.74-1-1.14a5.86,5.86,0,0,1-.71-1.3c-.38-.93-.72-1.88-1-2.84.33.94.66,1.89,1.08,2.8a5.84,5.84,0,0,0,.74,1.28c.31.37.64.73,1,1.09,1.37,1.42,2.89,2.75,4.33,4,0,0,0,0,0,0a.1.1,0,0,1,0,.12s0,0,0,0a.21.21,0,0,1-.12,0,.21.21,0,0,1-.11,0Z"></path>
        <path class="cls-1" d="M106.88,114.74c-.38-.79-.77-1.57-1.22-2.33a14.92,14.92,0,0,0-1.52-2.18,24.46,24.46,0,0,1-1.9-1.91,6.3,6.3,0,0,1-1.26-2.4,6.36,6.36,0,0,0,1.29,2.35c.55.69,1.32,1.18,2,1.86a14,14,0,0,1,1.65,2.17c.48.76.88,1.53,1.31,2.33a.13.13,0,0,1,0,.1.15.15,0,0,1,0,.11h-.12l0,0,0,0Z"></path>
        <path class="cls-1" d="M107.33,108.78A31.44,31.44,0,0,1,105,106.4c-.36-.41-.73-.84-1.07-1.29a3.85,3.85,0,0,1-.48-.68,2.12,2.12,0,0,1-.33-.77,2,2,0,0,0,.36.74,8.27,8.27,0,0,0,.51.66c.18.22.74.83,1.12,1.22.78.8,1.66,1.54,2.47,2.27l0,0a.13.13,0,0,1,0,.06.07.07,0,0,1,0,0l0,.05,0,0h-.12l0,0Z"></path>
        <path class="cls-1" d="M107.44,104.25a17.64,17.64,0,0,1-1.17-1.42,8.43,8.43,0,0,1-.55-.78,3.2,3.2,0,0,1-.36-.85,2.64,2.64,0,0,0,.41.8q.28.38.6.72c.43.46.81.9,1.25,1.3a.1.1,0,0,1,0,0,.18.18,0,0,1,0,.12l0,0h-.21Z"></path>
        <path class="cls-3" d="M108.48,166H85.72a10.37,10.37,0,0,1,5.65-1.67A11.07,11.07,0,0,1,97,165.92l.12.07c.15-.1.3-.2.45-.28a11.44,11.44,0,0,1,7-1.68q.3,0,.6.06a2.63,2.63,0,0,1,.39.06,4.84,4.84,0,0,1,2.58,1.38A4.6,4.6,0,0,1,108.48,166Z"></path>
        <path class="cls-1" d="M97.67,165.94a.13.13,0,0,1,0,.06h-.79l.08-.08.17-.18a.35.35,0,0,1,.22-.08.35.35,0,0,1,.18.05l0,0a.22.22,0,0,1,.07.09A.23.23,0,0,1,97.67,165.94Z"></path>
        <path class="cls-2" d="M136.57,160.6a12.61,12.61,0,0,1-1.84,2.62c-.21.23-.44.46-.67.68-.55.72-1.14,1.42-1.75,2.1H110.84a.3.3,0,0,1,0,.1l-.17-.1h-1.69c0-.58,0-1,0-1s0-.07,0-.1a13,13,0,0,1,.39-4.31l.06-.24a12.74,12.74,0,0,1,.61-1.7c0-.09.07-.17.11-.25h0a11.9,11.9,0,0,1,1.3-1.91.39.39,0,0,1,.08-.1c.19-.23.39-.45.6-.67a13.42,13.42,0,0,1,1.31-1.18l0,0,0,0a4.4,4.4,0,0,1,.73-.49,19.55,19.55,0,0,1,8.44-1.95,21.7,21.7,0,0,1,2.44.11,19.14,19.14,0,0,1,2,.36c.28.06.54.14.8.21l.2.06a8.69,8.69,0,0,1,2.2,1,3.14,3.14,0,0,1,.86.84,8.93,8.93,0,0,0,1.72,1.88,8,8,0,0,0,.73.56l0,0,.24.16.13.09A5.26,5.26,0,0,1,136,159c0,.05,0,.1.08.14a1.48,1.48,0,0,0,.13.21C136.51,159.79,136.73,160.1,136.57,160.6Z"></path>
        <path class="cls-1" d="M134,160.14c-.68.14-1.37.26-2,.38l-1.57.29-.15,0-.32.06c-.83.15-1.65.32-2.45.52l-.06,0a.42.42,0,0,0-.16,0l-.11,0-.16,0-.05,0-.22.05q-.78.19-1.56.42h-.05c-.94.27-1.86.57-2.78.91-.28.09-.56.19-.83.3h0l-.09,0-.16.06c-.51.2-1,.4-1.51.62q-.39.17-.78.36a.09.09,0,0,0-.07,0,33.58,33.58,0,0,0-3.15,1.64h-1l.57-.32c.33-.2.68-.38,1-.57.11-.05.21-.11.32-.15.32-.18.65-.34,1-.5l.06,0c.62-.29,1.24-.57,1.87-.84l.21-.08h0l.45-.17c.22-.1.44-.19.67-.27l.24-.1c.43-.16.86-.32,1.3-.46l.67-.24h0c.64-.2,1.27-.39,1.91-.57l.33-.08c.33-.1.66-.18,1-.26l.29-.07.61-.13.17,0,.33-.08.71-.15.34-.06.29,0,.84-.14.36-.06,1.62-.2C132.64,160.28,133.33,160.2,134,160.14Z"></path>
        <path class="cls-1" d="M121.16,163.09a9.32,9.32,0,0,0,3.76,1.84h.5a2,2,0,0,0,.49,0h2a6.22,6.22,0,0,0,1-.17c-.32,0-.65.15-1,.18a8.17,8.17,0,0,1-1,0h-2a8.85,8.85,0,0,1-2-.66,8,8,0,0,1-1.9-1.15l0,0a.13.13,0,0,1,0-.06.11.11,0,0,1,0-.05l0,0a.19.19,0,0,1,.1,0,.17.17,0,0,1,.1,0Z"></path>
        <path class="cls-1" d="M127.1,161.34c.55.45,1.13.84,1.65,1.22a12.75,12.75,0,0,0,1.66,1.08,12.13,12.13,0,0,1-1.76-1,20.79,20.79,0,0,1-1.75-1.14.14.14,0,0,1,0-.09.15.15,0,0,1,0-.1l0,0h.11s0,0,0,0Z"></path>
        <path class="cls-1" d="M130.31,160.68c.39.46.82.94,1.25,1.36a4.12,4.12,0,0,0,.69.56,1.54,1.54,0,0,0,.8.3,1.52,1.52,0,0,1-.83-.27c-.25-.17-.48-.35-.71-.54-.46-.42-.89-.9-1.32-1.34v-.12h.1Z"></path>
        <path class="cls-1" d="M116.72,156.64a10.79,10.79,0,0,0-2,1.59c-.07.06-.13.14-.2.21a1.22,1.22,0,0,0-.15.17l0,0a3.58,3.58,0,0,0-.26.29l0,.06a13.26,13.26,0,0,0-1.3,2.17,11.26,11.26,0,0,0-.57,1.39,1.18,1.18,0,0,0-.07.2c-.36,1.07-.64,2.19-1,3.25h-.23c.16-.44.32-.89.46-1.35l.62-2a11.58,11.58,0,0,1,.77-1.68,12.43,12.43,0,0,1,1.28-2,.76.76,0,0,1,.08-.11l.24-.26v0l.16-.17.23-.23A10.64,10.64,0,0,1,116.72,156.64Z"></path>
        <path class="cls-1" d="M116.35,165.19a28.81,28.81,0,0,1,1.78-5.1,13.71,13.71,0,0,1,.64-1.27,5.6,5.6,0,0,1,.93-1.13,15.29,15.29,0,0,1,2.33-1.91,14,14,0,0,0-2.26,1.95,5.4,5.4,0,0,0-.9,1.12c-.23.43-.41.86-.61,1.27a30.78,30.78,0,0,0-1.65,5.14.22.22,0,0,1,0,.08.18.18,0,0,1-.1,0l0,0a.08.08,0,0,1,0,0l0-.05A.13.13,0,0,1,116.35,165.19Z"></path>
        <path class="cls-1" d="M119.92,163.44l1.51-1.86c.48-.67,1-1.33,1.39-2a18.72,18.72,0,0,1,1.14-2.23,5.9,5.9,0,0,1,1.94-1.81,5.94,5.94,0,0,0-1.87,1.83,23.9,23.9,0,0,0-1.16,2.25,21.8,21.8,0,0,1-1.34,2.09c-.46.7-1,1.28-1.48,1.92a.09.09,0,0,1,0,0l0,0-.06,0,0,0a.12.12,0,0,1,0-.18Z"></path>
        <path class="cls-1" d="M125,161.89a23.77,23.77,0,0,1,1.45-2.73c.28-.43.58-.87.91-1.29l.51-.62a2.33,2.33,0,0,1,.65-.48,2,2,0,0,0-.61.51,6,6,0,0,0-.5.63q-.45.65-.84,1.32a22,22,0,0,0-1.32,2.77.12.12,0,0,1-.09,0,.14.14,0,0,1-.13-.13.12.12,0,0,1,0-.09Z"></path>
        <path class="cls-1" d="M128.82,160.76a10.28,10.28,0,0,1,1-1.37,3.47,3.47,0,0,1,.59-.62,2.34,2.34,0,0,1,.73-.47,2.77,2.77,0,0,0-.66.51,6.75,6.75,0,0,0-.55.65,13.27,13.27,0,0,0-.89,1.44.15.15,0,0,1-.18,0,.14.14,0,0,1,0-.1.13.13,0,0,1,0-.1Z"></path>
        <path class="cls-2" d="M70.57,134.05a1.89,1.89,0,0,1-.94-.46A17.16,17.16,0,0,1,67,130.5c-1.32-1.77-2.11-2.66-2.62-3.3a4.12,4.12,0,0,0-1.82-1.29,10.78,10.78,0,0,0-5-1.11,11,11,0,0,0-8.26,4.58,22.29,22.29,0,0,0-4.09,7.28,15.73,15.73,0,0,0-.56,6.06c.43,5.17.89,4.53,2.18,4.74s2.51-1.35,5.38-.39c1.45.48,4.08-.35,6.23-.91l2.82-.79a2.51,2.51,0,0,0,1.41-.78A11.93,11.93,0,0,0,64,142.38c.43-1,.89-2.45,2-4.81a7.08,7.08,0,0,1,1.34-1.65,3.77,3.77,0,0,1,3-1.24C72.08,135.11,71.63,134.78,70.57,134.05Z"></path>
        <path class="cls-1" d="M71.1,135.06a13.41,13.41,0,0,0-6.6-1.25,17,17,0,0,0-6.61,1.65,23.57,23.57,0,0,0-5.77,4l-1.29,1.27c-.41.43-.82.89-1.2,1.35a29.39,29.39,0,0,0-2.18,2.94,21.63,21.63,0,0,1,4.47-5.81,24,24,0,0,1,5.8-4.16,17.74,17.74,0,0,1,6.81-1.79,13.81,13.81,0,0,1,6.87,1.34.25.25,0,0,1,.12.13.25.25,0,0,1,0,.17.28.28,0,0,1-.14.12.23.23,0,0,1-.18,0Z"></path>
        <path class="cls-1" d="M68.23,134a26.06,26.06,0,0,1-3.07-2.36c-.52-.43-1-.89-1.51-1.34l-.72-.71a10,10,0,0,0-.75-.71l-.38-.33-.44-.28a6.14,6.14,0,0,0-1-.48,7.14,7.14,0,0,0-2.23-.45,8.58,8.58,0,0,0-4.68,1.26,8.52,8.52,0,0,1,4.76-1.32,6.36,6.36,0,0,1,2.28.43,5,5,0,0,1,1,.47l.46.3.4.33a8.4,8.4,0,0,1,.76.7l.73.69,1.48,1.31a26.85,26.85,0,0,0,3,2.32.18.18,0,0,1,0,.1.18.18,0,0,1,0,.09l0,0h-.09l0,0Z"></path>
        <path class="cls-1" d="M63.27,133.8A17.72,17.72,0,0,0,59.84,132c-.61-.23-1.26-.46-1.92-.65a11.78,11.78,0,0,0-2.05-.39,7.37,7.37,0,0,0-4.18,1.17,12.61,12.61,0,0,0-3.3,2.92,13.81,13.81,0,0,1,3.3-3,7.79,7.79,0,0,1,4.3-1.22,13.35,13.35,0,0,1,2.08.38,18.23,18.23,0,0,1,1.93.65,17.37,17.37,0,0,1,3.47,1.75s0,0,0,0a.08.08,0,0,1,0,0s0,0,0,.05a.05.05,0,0,1,0,0,.05.05,0,0,1,0,0h-.09l0,0Z"></path>
        <path class="cls-1" d="M56.24,136.1a5.44,5.44,0,0,0-1.89-.65,5.87,5.87,0,0,0-2.13,0,5.26,5.26,0,0,0-.53.15,4.56,4.56,0,0,0-.52.18l-.52.24-.48.28a6.64,6.64,0,0,0-.94.66c-.28.25-.54.53-.84.77.28-.28.55-.56.84-.81a8,8,0,0,1,.93-.69l.49-.3.52-.24a3.16,3.16,0,0,1,.54-.2,4.68,4.68,0,0,1,.53-.17,6,6,0,0,1,2.2-.1,5.08,5.08,0,0,1,2,.71s0,0,0,0a.08.08,0,0,1,0,0s0,0,0,.06a.11.11,0,0,1,0,.05l0,0s0,0,0,0h0l0,0Z"></path>
        <path class="cls-1" d="M51.56,139.72a9.08,9.08,0,0,0-2,0,8.7,8.7,0,0,0-2,.31,8.33,8.33,0,0,1,2-.43,10.91,10.91,0,0,1,2,0,.15.15,0,0,1,.09.06.2.2,0,0,1,0,.11s0,0,0,0l0,0,0,0h-.05Z"></path>
        <path class="cls-1" d="M49.41,142.06a8.23,8.23,0,0,0-1.65-.13,4.86,4.86,0,0,0-.84.12,1.2,1.2,0,0,0-.73.43,1.22,1.22,0,0,1,.75-.48,3.89,3.89,0,0,1,.84-.15,9.09,9.09,0,0,1,1.65,0Z"></path>
        <path class="cls-1" d="M69,134.2a6.13,6.13,0,0,0-3.14,1.25,8.23,8.23,0,0,0-1.2,1.16,15.52,15.52,0,0,0-.94,1.35c-.6.95-1.11,1.87-1.66,2.65a7.12,7.12,0,0,1-1.9,1.85A7.5,7.5,0,0,0,62,140.54c.57-.79,1.06-1.65,1.66-2.68a8.7,8.7,0,0,1,2.11-2.61,6.27,6.27,0,0,1,3.3-1.38.13.13,0,0,1,.12,0,.16.16,0,0,1,0,.11.17.17,0,0,1-.17.17Z"></path>
        <path class="cls-1" d="M60.84,134.21a24.78,24.78,0,0,0-1.65,4.58l-.29,1.12a8.73,8.73,0,0,1-.43,1l-1,1.92.94-2a6.39,6.39,0,0,0,.39-1.06l.27-1.14a24.67,24.67,0,0,1,1.57-4.62l0,0h.09l0,0,0,0s0,0,0,0,0,0,0,0l0,0Z"></path>
        <path class="cls-1" d="M57.39,135.64a11.22,11.22,0,0,0-1.15,2,10.15,10.15,0,0,0-.65,2.14c-.1.75,0,1.51-.13,2.25A7,7,0,0,1,55,144.1a6.7,6.7,0,0,0,.41-2.12v-2.26a8.86,8.86,0,0,1,.6-2.2,10,10,0,0,1,1.18-2.06.13.13,0,0,1,.1,0,.12.12,0,0,1,.09,0,.15.15,0,0,1,0,.1.14.14,0,0,1,0,.09Z"></path>
        <path class="cls-1" d="M53.16,138.35a25.91,25.91,0,0,1-.11,2.94v2.18a4,4,0,0,1-.15.69,2.31,2.31,0,0,0,.11-.69v-5.12a.14.14,0,0,1,.14-.14h.05l0,0a.13.13,0,0,1,0,.05v0Z"></path>
        <path class="cls-1" d="M50.47,141.12v2.46a2.81,2.81,0,0,1-.18.8,2.73,2.73,0,0,0,.13-.8v-.82l-.11-1.65a.06.06,0,0,1,0-.06.08.08,0,0,1,0,0l0,0h.05a.13.13,0,0,1,.13.13Z"></path>
        <path class="cls-4" d="M111,143.88a4.72,4.72,0,0,1-.43,2.51,4.5,4.5,0,0,1-4.44,2.4,20,20,0,0,1-9.25-3.09A34.45,34.45,0,0,1,87,137.44a24.61,24.61,0,0,1,21.78-1.74,12.13,12.13,0,0,1,3.44,3.06C113.47,140.53,113.79,142.62,111,143.88Z"></path>
        <path class="cls-1" d="M111,144c-1.65-.75-3.31-1.43-5.06-2s-3.48-1.12-5.13-1.55-3.52-.87-5.31-1.25l-2.67-.55a23.52,23.52,0,0,1-2.63-.66,24.17,24.17,0,0,0,2.66.56l2.69.46c1.8.33,3.59.7,5.35,1.14s3.51,1,5.24,1.56a51.55,51.55,0,0,1,5,2l.07,0a.18.18,0,0,1,0,.07.19.19,0,0,1,0,.08.25.25,0,0,1,0,.08.25.25,0,0,1-.14.06A.23.23,0,0,1,111,144Z"></path>
        <path class="cls-1" d="M108.4,142.79a5.66,5.66,0,0,1-1.92,1.31,7.23,7.23,0,0,1-2.39.59h-1.92l-.62-.12a4.14,4.14,0,0,1-.63-.11l-.63-.17-1.21-.36,1.23.36.62.14a4.62,4.62,0,0,0,.63.11h2.5a7.12,7.12,0,0,0,2.31-.61,5.52,5.52,0,0,0,1.8-1.31.17.17,0,0,1,.1,0,.19.19,0,0,1,.1,0,.17.17,0,0,1,0,.1.16.16,0,0,1,0,.09Z"></path>
        <path class="cls-1" d="M102.29,140.66a5.57,5.57,0,0,1-1.65,1,7.74,7.74,0,0,1-1.89.49H96.26l-.38-.05h.5a2,2,0,0,0,.49,0h2a7.59,7.59,0,0,0,1.8-.53,5.08,5.08,0,0,0,1.47-.95.13.13,0,0,1,.1,0,.14.14,0,0,1,.1,0v.16Z"></path>
        <path class="cls-1" d="M96.06,139.19a9.12,9.12,0,0,1-1,.58,8.1,8.1,0,0,1-1.1.43,7.29,7.29,0,0,1-1.22.23,4.66,4.66,0,0,1-1.24-.1,5,5,0,0,0,1.22,0,6.62,6.62,0,0,0,1.17-.27,6.54,6.54,0,0,0,1-.48,5.52,5.52,0,0,0,.93-.57.17.17,0,0,1,.1,0,.19.19,0,0,1,.1,0l0,0s0,0,0,0,0,0,0,0,0,0,0,0Z"></path>
        <path class="cls-1" d="M109,142.87a2.89,2.89,0,0,0,.28-1.53,5.65,5.65,0,0,0-.43-1.66,9,9,0,0,0-.94-1.65l-.63-.76-.71-.69.74.69.66.73a9.59,9.59,0,0,1,1,1.65,5.36,5.36,0,0,1,.51,1.65,4,4,0,0,1,0,.85,2.4,2.4,0,0,1-.23.82.16.16,0,0,1-.09,0,.14.14,0,0,1-.09,0s-.12-.11,0-.16Z"></path>
        <path class="cls-1" d="M105.31,141.55a2.85,2.85,0,0,0,.13-1.42,4,4,0,0,0-.51-1.47,5.52,5.52,0,0,0-1.09-1.32c-.21-.2-.48-.38-.73-.58l-.79-.51.83.5c.25.19.51.36.74.56a5.66,5.66,0,0,1,1.17,1.32,4.34,4.34,0,0,1,.6,1.5,3.13,3.13,0,0,1-.08,1.52l-.09,0a.13.13,0,0,1-.08,0c-.08,0-.11-.1-.1-.15Z"></path>
        <path class="cls-1" d="M103,140.84a2.88,2.88,0,0,0-.41-1.55,5,5,0,0,0-1.24-1.36l-.42-.28-.44-.25-.23-.11-.25-.18-.48-.2-1-.35-1-.2,1.06.25,1,.33.49.2.25.1.23.11.47.25.43.28a4.69,4.69,0,0,1,1.33,1.37,3,3,0,0,1,.5,1.66l-.08,0-.07,0s-.15,0-.13-.12Z"></path>
        <path class="cls-1" d="M99.27,139.91a17.65,17.65,0,0,0-2.53-2,13.1,13.1,0,0,0-1.5-.85,4.66,4.66,0,0,0-1.76-.44,4.78,4.78,0,0,1,1.79.41,11.65,11.65,0,0,1,1.57.81,15.65,15.65,0,0,1,2.64,2l0,0v.08l0,0a.13.13,0,0,1-.1,0,.14.14,0,0,1-.1,0Z"></path>
        <path class="cls-5" d="M67.43,60.28a38.1,38.1,0,0,1,9.91,13.4,35.39,35.39,0,0,0,8.26,8.87s4.2-8.87-1.45-22.27c0,0-4.51-7.58-1.65-10.49a12.45,12.45,0,0,0,3.3-7S66.29,54.94,67.43,60.28Z"></path>
        <path class="cls-6" d="M81.33,50.28c-2.81,5.41-1.37,9.55,1.53,14.87.22.41.63,1.65,1,2.83a18.94,18.94,0,0,1,1,5.83c0,1.78.18,4.57.6,8.7,0,0,4.19-8.87-1.46-22.27,0,0-4.51-7.58-1.65-10.49a12.32,12.32,0,0,0,3.3-7S83.49,46.14,81.33,50.28Z"></path>
        <path class="cls-7" d="M52.42,54.83S42,49.74,38.06,50a2,2,0,0,1-.32-1.09,2,2,0,0,1,.32-1.09c.73-1.21.85-2.91,2.18-3.51s-2.31-3.63,5.69-4.13,7.63-2.16,9.91-4.23,4.95-6.6,7.27-7.63,4.34-.36,4.23,0a16.43,16.43,0,0,0,0,2.43c0,1.21,5.68,21.91,7.13,25.42A14.83,14.83,0,0,1,75.81,62S55.92,57.82,52.42,54.83Z"></path>
        <path class="cls-8" d="M52.39,54.88c-2.3-1.09-4.65-2.1-7-3-1.19-.45-2.4-.86-3.62-1.21a12.81,12.81,0,0,0-3.69-.58,2.16,2.16,0,0,1-.36-1.19,2.21,2.21,0,0,1,.36-1.19c.38-.66.57-1.43.93-2.16a2.7,2.7,0,0,1,.73-1,1.86,1.86,0,0,1,.52-.36c.12,0,.22-.15.22-.33V42.7a1.94,1.94,0,0,1,.46-1.22A4.35,4.35,0,0,1,43,40.36,13.72,13.72,0,0,1,45.4,40a40.47,40.47,0,0,0,4.67-.55,6.8,6.8,0,0,0,4-2,22.61,22.61,0,0,1,1.65-1.74A16.06,16.06,0,0,0,57.37,34c1-1.2,2-2.49,3-3.7a12.43,12.43,0,0,1,1.75-1.65,5.56,5.56,0,0,1,2.3-1,5.69,5.69,0,0,1,2.53,0,1.6,1.6,0,0,1,.71.33.64.64,0,0,1,.14.22.74.74,0,0,1,0,.26v.13a.88.88,0,0,0,0,.23v2.32l.25,1.12.59,2.29c.8,3.06,1.66,6.1,2.53,9.14s1.74,6.08,2.66,9.1a37.64,37.64,0,0,0,1.65,4.46,14.46,14.46,0,0,1,.86,4.83v.51l-.51-.12c-4-.89-8-2-11.89-3.1-1.95-.58-3.92-1.21-5.85-1.87A22.75,22.75,0,0,1,52.39,54.88Zm0,0A22.28,22.28,0,0,0,58,57.29c2,.64,3.93,1.14,5.9,1.65,4,1,8,1.85,12,2.69l-.53.4a14.94,14.94,0,0,0-.89-4.54c-.57-1.41-1.14-3-1.66-4.5-.94-3-1.81-6.08-2.67-9.12s-1.65-6.11-2.41-9.2l-.57-2.31-.24-1.19a8.28,8.28,0,0,1,0-1.22V28.74a1.09,1.09,0,0,1,0-.36v.07a1,1,0,0,0-.38-.15,5,5,0,0,0-2.18,0,4.89,4.89,0,0,0-2,.84,12.25,12.25,0,0,0-1.65,1.65c-1,1.16-2,2.43-3,3.65a17.07,17.07,0,0,1-1.65,1.75c-.6.52-1.08,1.11-1.65,1.66A7.47,7.47,0,0,1,50,40a37.73,37.73,0,0,1-4.74.51,15.23,15.23,0,0,0-2.32.32,4,4,0,0,0-2,.92,1.54,1.54,0,0,0-.38,1,5.9,5.9,0,0,1,0,1.19.89.89,0,0,1-.14.35.83.83,0,0,1-.29.24,2,2,0,0,0-.46.3,2.68,2.68,0,0,0-.68.89c-.35.68-.55,1.47-1,2.17A2,2,0,0,0,38,50h-.1a12.94,12.94,0,0,1,3.8.64c1.22.35,2.43.76,3.62,1.23a54.32,54.32,0,0,1,7.14,2.95Z"></path>
        <path class="cls-8" d="M53.26,54.83S46.52,47.74,42.52,48c0,0-3,1.65-2.24.38s2.11-3.8,3.53-3.49c6.94,1.49,1.19-.11,6.79-1.65,3.39-.89,14.64,4,9.07-5.93-1.5-2.69,2.79-6.18,5.09-7.15s1.45,1.9,1.34,2.26,1.29,4.44,1.29,5.65,6.45,14.59,7.89,18.11A14.74,14.74,0,0,1,76.62,62S56.76,57.82,53.26,54.83Z"></path>
        <path class="cls-7" d="M75.78,62S70.49,51.24,70,46.52s-4-7.39-4.36-8.72l-.36-1.33s2.66,1.1,2.66.6-3-2.18-2.66-2.91,1-3,1.93-3.3a44.73,44.73,0,0,0,5.2-2.78c.73-.49,6.18-1.09,7.39-1.81a3.32,3.32,0,0,1,1.53-.55,3.24,3.24,0,0,1,1.6.26,3.2,3.2,0,0,1,1.29,1,3.34,3.34,0,0,1,.66,1.49c.73,3.3,5,.11,6.07-.37s4.23-.36,3.86,1.57l-.36,1.94a23,23,0,0,1,4.48,1,4.09,4.09,0,0,1,1.59,1.2,4,4,0,0,1,.83,1.82l-3.15-.11s4.72,2.54,3.75,5a11.43,11.43,0,0,1-4.23,5.21c-.84.24-2.54-1.66-3.75-1.09a42.52,42.52,0,0,1-13,3.37,2.22,2.22,0,0,0-1.23.44A2.34,2.34,0,0,0,79,49.41C77.81,52.65,75.38,60,75.78,62Z"></path>
        <path class="cls-8" d="M75.79,62c-1.14-2.13-2-4.19-3-6.34a59.35,59.35,0,0,1-2.42-6.61,20.65,20.65,0,0,1-.67-3.4,11.23,11.23,0,0,0-1.18-3.22,19.79,19.79,0,0,0-1.93-2.79,11.76,11.76,0,0,1-1-1.44,13.77,13.77,0,0,1-.53-1.65l-.15-.42.43.17c.43.16.87.33,1.3.46l.67.18h.31c.11,0,.18-.08,0,.09s-.2-.22-.35-.33l-.48-.37-1.1-.91a2.77,2.77,0,0,1-.52-.56,1,1,0,0,1-.18-.43.55.55,0,0,1,0-.31V34l.51-1.3a6.1,6.1,0,0,1,.78-1.27,2.07,2.07,0,0,1,.56-.58c.32-.17.47-.2.68-.32,1.65-.82,3.3-1.78,5-2.79,1.91-.59,3.75-.79,5.56-1.24a7.54,7.54,0,0,0,1.31-.38c.18,0,.36-.18.61-.29a4.55,4.55,0,0,1,.73-.27,3.81,3.81,0,0,1,1.54-.12,3.92,3.92,0,0,1,1.48.49,4,4,0,0,1,1.65,2.57,1.61,1.61,0,0,0,.58.94,1.53,1.53,0,0,0,1.09.14,8.88,8.88,0,0,0,2.48-1,14,14,0,0,1,1.24-.71,3.64,3.64,0,0,1,1.53-.3,4.44,4.44,0,0,1,1.49.25,2,2,0,0,1,.72.36,1.82,1.82,0,0,1,.5.63,2.4,2.4,0,0,1,0,1.5l-.3,1.39-.11-.17a27.41,27.41,0,0,1,4.28.83,4.12,4.12,0,0,1,1.85,1.25,3.4,3.4,0,0,1,1,2v.22h-.23c-1,0-2.08-.3-3.14-.32a14.22,14.22,0,0,1,2.42,1.66,4.28,4.28,0,0,1,1.65,2.46,3,3,0,0,1-.33,1.5,13,13,0,0,1-.68,1.34,14.52,14.52,0,0,1-1.77,2.43,6,6,0,0,1-1.17,1,1.45,1.45,0,0,1-.45.22,1.47,1.47,0,0,1-.59,0,3.12,3.12,0,0,1-.79-.35c-.85-.46-1.75-1.08-2.28-.83a42.39,42.39,0,0,1-5.57,2A36.72,36.72,0,0,1,83,48.15c-.5,0-1,.12-1.48.15a2.84,2.84,0,0,0-1.28.27,2,2,0,0,0-.86.91l-.48,1.35q-1,2.74-1.84,5.55A21,21,0,0,0,75.79,62Zm0,0A8.16,8.16,0,0,1,76,59.14c.2-1,.42-1.92.67-2.86.47-1.9,1-3.77,1.65-5.62l.48-1.42A2.59,2.59,0,0,1,79.84,48a3.3,3.3,0,0,1,1.54-.37,9.93,9.93,0,0,0,1.43-.16,37.07,37.07,0,0,0,5.62-1.34,45,45,0,0,0,5.4-2,2,2,0,0,1,.91-.15,2,2,0,0,1,.89.25c.45.21.9.44,1.32.69a2.87,2.87,0,0,0,.55.22h0a.88.88,0,0,0,.22-.1,7.64,7.64,0,0,0,1-.84,15.92,15.92,0,0,0,1.88-2.14,5.19,5.19,0,0,0,1.19-2.47,4.07,4.07,0,0,0-1.37-2.42,11.3,11.3,0,0,0-2.35-1.65c1.06,0,2.12-.1,3.16-.08l-.22.2a3.32,3.32,0,0,0-.86-1.77,4.07,4.07,0,0,0-1.65-1.19,20.61,20.61,0,0,0-4.18-.89h-.15v-.13l.24-1.41a1.79,1.79,0,0,0,0-1.25c-.42-.66-1.46-.76-2.3-.71a2.82,2.82,0,0,0-1.21.28l-1.2.68A8.94,8.94,0,0,1,87,30.38a2.27,2.27,0,0,1-1.65-.25,2.32,2.32,0,0,1-.89-1.39,3.06,3.06,0,0,0-.35-1.28,3.1,3.1,0,0,0-.84-1,3.17,3.17,0,0,0-1.19-.4,3,3,0,0,0-1.26.12,4.82,4.82,0,0,0-.61.2,5.38,5.38,0,0,1-.64.31,9.92,9.92,0,0,1-1.41.42c-1.83.44-3.78.64-5.48,1.14-1.54.9-3.22,1.89-5,2.72a1.74,1.74,0,0,0-1,.68,7.06,7.06,0,0,0-.62,1.19l-.55,1.32c-.23.23.15.56.46.89a9.47,9.47,0,0,0,1.08.89l.54.47.28.26a.68.68,0,0,1,.17.21.54.54,0,0,1,.06.25.41.41,0,0,1-.1.21.53.53,0,0,1-.21.11h-.61l-.71-.2c-.45-.15-.9-.31-1.34-.5l.32-.38c.16.55.28,1.18.47,1.65a13.85,13.85,0,0,0,1,1.39,19,19,0,0,1,1.93,2.93A11.4,11.4,0,0,1,70,45.61a21.66,21.66,0,0,0,.63,3.4A56.93,56.93,0,0,0,73,55.62c.84,2.2,1.88,4.26,2.76,6.31Z"></path>
        <path class="cls-7" d="M70,57.4s-13.22-10.78-24-8.11c0,0-7,2.6-9.56,3.83s-1,2.47-1.66,4.28-2.54,3.5-2.06,6.05-.08,3.3-.08,3.3a1.88,1.88,0,0,1,2.36-.67c1.44.72,3.5-1.21,3.5-1.21v1.82c0,.36.61.84,3.63,1.45s5.21.73,6.18,0,1.21-.61,1.65-1.65-.47,2.21.48,2.2,5,1.65,6.43,1.43,2.3.73,2.66-1.2-1-5.93,7.63-4.36l.61-1.33a2.49,2.49,0,0,1,.7-.88,2.52,2.52,0,0,1,1-.5,2.69,2.69,0,0,1,1.13,0,2.57,2.57,0,0,1,1,.49c.78.63,3.67-.91,4.18-.35C77.12,63.42,70,57.4,70,57.4Z"></path>
        <path class="cls-8" d="M70,57.44a47.79,47.79,0,0,0-11.22-6.61,21.21,21.21,0,0,0-12.73-1.65c-2,.72-3.92,1.47-5.87,2.24-1,.4-1.93.8-2.89,1.23s-2.08.85-2.28,2a15.14,15.14,0,0,0,0,1.65,3.54,3.54,0,0,1-.26,1.57c-.46.94-1,1.83-1.42,2.79a4.41,4.41,0,0,0-.25,3,10.4,10.4,0,0,1,.23,1.65A3.25,3.25,0,0,1,33.06,67l-.63-.46a2.35,2.35,0,0,1,1.65-.84c.68,0,1.18.41,1.65.44a2.91,2.91,0,0,0,1.54-.31,3.39,3.39,0,0,0,1.29-1l.16-.23v2.11c0,.1.12.2.27.3a9.12,9.12,0,0,0,2.21.68,29.79,29.79,0,0,0,4.69.77,4.31,4.31,0,0,0,2.27-.31c.62-.46,1.52-.71,1.65-1.55l.08-.3v.74A4.1,4.1,0,0,0,50,68.24a.31.31,0,0,0,.27.31h.61a5.11,5.11,0,0,1,1.19.27,17.91,17.91,0,0,0,4.52.82c.8-.18,2,.15,2-.1a2.13,2.13,0,0,0,.28-.85,8.77,8.77,0,0,0,.1-1.14A4.24,4.24,0,0,1,59.77,65a3.76,3.76,0,0,1,2.38-1.21,14.72,14.72,0,0,1,4.95.33l-.36.2a8.85,8.85,0,0,1,1.17-2A2.81,2.81,0,0,1,69,61.64a2.75,2.75,0,0,1,1.24-.14,2.6,2.6,0,0,1,1.17.43l.25.18a.48.48,0,0,0,.18.08,1,1,0,0,0,.48,0,14.9,14.9,0,0,0,2.21-.44,1.85,1.85,0,0,1,1.23,0,.64.64,0,0,1,.21.25s.12.16,0,.23-.11,0-.18,0l-.13-.09-.46-.34-1.76-1.46Zm0-.09,3.52,2.89,1.78,1.41.45.33h.12c-.14,0,0,.18,0,.13s-.12-.16-.17-.16h-1a17.53,17.53,0,0,1-2.25.54,2.22,2.22,0,0,1-.63,0,1.12,1.12,0,0,1-.33-.16l-.21-.14a2.23,2.23,0,0,0-2-.16,2.35,2.35,0,0,0-.84.58,8.32,8.32,0,0,0-1,1.93l-.14.23h-.24a15.7,15.7,0,0,0-4.64-.16,2.86,2.86,0,0,0-1.81.92,3.43,3.43,0,0,0-.54,2,4.21,4.21,0,0,1-.64,2.61,1.29,1.29,0,0,1-.85.36,3.75,3.75,0,0,1-.67,0,4,4,0,0,0-1.09,0A6.78,6.78,0,0,1,54.38,70c-.76-.23-1.52-.53-2.26-.79L51,68.87a2.94,2.94,0,0,0-.58-.1.7.7,0,0,1-.32-.19.64.64,0,0,1-.14-.34A3.69,3.69,0,0,1,50,67l.08-.59v-.15l-.1.28a4,4,0,0,1-1.68,1.72,4.16,4.16,0,0,1-2.37.48,23.24,23.24,0,0,1-4.77-.67,7.91,7.91,0,0,1-2.31-.84.8.8,0,0,1-.29-.26,1,1,0,0,1-.13-.37V64.89l.2.08a6.11,6.11,0,0,1-3,1.45,2.53,2.53,0,0,1-.86-.21,1.7,1.7,0,0,0-.71,0,1.65,1.65,0,0,0-.62.27,1.82,1.82,0,0,0-.46.5l-.63-.46c.81-1.47-.52-4,.67-6,.44-1,1.1-1.8,1.55-2.74a3.12,3.12,0,0,0,.39-1.49,15.14,15.14,0,0,1,0-1.65,2,2,0,0,1,.32-.72,1.83,1.83,0,0,1,.59-.52,10.33,10.33,0,0,1,1.41-.71c1-.43,1.91-.83,2.89-1.22C42.08,50.73,44,50,46,49.24a17.08,17.08,0,0,1,6.49-.2,28,28,0,0,1,6.27,1.76,47.31,47.31,0,0,1,11.31,6.55Z"></path>
        <path class="cls-9" d="M70,57.4s-13.22-10.78-24-8.11c0,0-7,2.6-9.57,3.84s-1,2.46-1.65,4.27-2.54,3.51-2.06,6.05,4-4.77,5.5-4.05.48-1.95,3.47-2.69c4.69-1.17-1.66-2.63,4.36-4.53C55,49.38,70,57.4,70,57.4Z"></path>
        <path class="cls-10" d="M71.58,58.78s-9.53-8.89-12.44-11c0,0,10.18,2.91,2.91-2.89a7.89,7.89,0,0,1-.15-4.36l.65-1.95s4.19.5,4.67,1.14c0,0,.61-1.26.64-1.45a5.35,5.35,0,0,1,3.19.81A11.38,11.38,0,0,0,75,41.41a108,108,0,0,0,8-9.06s-4.32,9.79-4.84,10.82c0,0-.25.28,0,1.85a26.37,26.37,0,0,1,.28,2.82,21.93,21.93,0,0,0,.92-4.16c0-1.41,3.52-6.78,3.72-7.11s1.48-1.56,2.15-1.52a6.83,6.83,0,0,1,2.13,1.21c.19.12-2,2.54-2.07,3.11s.5,0,.7-.33a2.57,2.57,0,0,1,1.3-1c.74-.25,3.3-1.9,5.75-1.74a6.12,6.12,0,0,1,3.63,1.29s-9.2,4.36-9.43,4.59a2.37,2.37,0,0,0,.84,0c.32,0-1.45,1.06-1.48,1.22a23.09,23.09,0,0,1,6-1.81,8.67,8.67,0,0,1,4.67.84c.17.28-.68.56-1.77.69a15.3,15.3,0,0,0-3.63.4,3.6,3.6,0,0,1-2.46.64,15.2,15.2,0,0,0-3.62,2c-1.27,1.09-7.63,5.48-9.08,8.06S74,61.12,71.58,58.78Z"></path>
        <path class="cls-6" d="M72.47,59.47s-13.08-3.64-18.83-2.3c0,0,11.2-1.07,14.52-.3,0,0-9.91-5.08-11.25-5.51,0,0,8,2.9,8.48,3.14s-5.09-5.08-5.46-5.8l6.78,4.84s-2-4-2.48-4.45c0,0,7,5.57,7.63,6.3,0,0-2.72-5.88-3.15-6.61,0,0,4.06,3.5,5,5.75,0,0-6.11-14-6.84-14.87,0,0,2.84,1.65,7.75,10.77a60.73,60.73,0,0,0,0-6.61,13,13,0,0,1,2.05,2.07s1.65-5.34,2.36-5.81a14.38,14.38,0,0,0-.41,2.36c0,1-1,1.81-.73,3.68a33.18,33.18,0,0,1,.6,4.66C78.34,51.39,73.5,59.14,72.47,59.47Z"></path>
        <path class="cls-9" d="M51.81,59.47a9.06,9.06,0,0,0-3.31.78A4.92,4.92,0,0,0,46,62.61s3-1.85,3.75-1.65-.6,1.4-.84,1.65,4.06-3.14,5.43-3.14Z"></path>
        <path class="cls-11" d="M49.35,41c.49,0,4.95.48,4.29-1.82,0,0-.41-1.88-3.07-1.88s-2.36-1.16-3.3-1S46.32,40.59,49.35,41Z"></path>
        <path class="cls-11" d="M54.58,45.31c.4,0,4.1,0,3.39-1.9a2.38,2.38,0,0,0-1.14-1.12,2.42,2.42,0,0,0-1.59-.13c-2.19.23-2-.75-2.84-.5S52.12,45.28,54.58,45.31Z"></path>
        <path class="cls-11" d="M53.91,38.44c.41.26,4.19,2.58,4.65.25,0,0,.45-1.87-2-3S55,33.58,54,33.32,51.39,36.82,53.91,38.44Z"></path>
        <path class="cls-12" d="M74.41,57.12c.51-.15.24-.18.29-.26v-.2l-.1-.41a3,3,0,0,0-.23-.81c-.15-.55-.36-1.08-.56-1.66a24.24,24.24,0,0,0-1.5-3,22.79,22.79,0,0,0-4.23-5.25,25.48,25.48,0,0,0-5.55-3.82c-1-.56-2.07-.87-3.09-1.34a24.91,24.91,0,0,0-3.3-1l.26-.94c1.09.4,2.18.75,3.3,1.19a31.6,31.6,0,0,1,3.09,1.52,26.11,26.11,0,0,1,5.57,4,24.62,24.62,0,0,1,4.23,5.4,25.88,25.88,0,0,1,1.5,3.09c.18.54.4,1.07.55,1.65.09.28.17.56.23.84l.1.42v.21c.08,0-.17.17.36.17Z"></path>
        <path class="cls-12" d="M74.72,58a43.72,43.72,0,0,0-4.51-6.21,40.75,40.75,0,0,0-5.47-5.36,29.53,29.53,0,0,0-6.52-3.91A20.8,20.8,0,0,0,50.87,41V40a21.69,21.69,0,0,1,7.66,1.65,30.57,30.57,0,0,1,6.61,4.17,40.62,40.62,0,0,1,5.42,5.55A45.41,45.41,0,0,1,75,57.82Z"></path>
        <path class="cls-12" d="M74.69,58.51a32,32,0,0,0-3.59-5.06,31.44,31.44,0,0,0-4.57-4.21,21.92,21.92,0,0,0-5.45-3,20,20,0,0,0-6-1.12v-1a20.8,20.8,0,0,1,6.28,1.34,23.48,23.48,0,0,1,5.52,3.17,31.17,31.17,0,0,1,4.54,4.43A32.55,32.55,0,0,1,75,58.31Z"></path>
        <path class="cls-9" d="M58.86,61.12s-2.18,0-.86,1.09,7.85,5.2,14.75,2.3,6.61-6.53,7.17-8.1.23-3.4,2.3-4.95,8.13-5.62,8.13-5.62S82.09,47,79.89,47.28s-3.3,4.41-4.44,7.45S73.13,63,58.86,61.12Z"></path>
        <path class="cls-13" d="M91.73,93.57s-3.51-4.84-5.2-5.57S83,86.79,84.1,84.13c0,0-4.72-.72-6.77-.85s2.41-2.3,4.84-1.57c0,0-8.36-5.93-8.72-7.14a1.64,1.64,0,0,0-.65-.82,1.61,1.61,0,0,0-1-.27,3.73,3.73,0,0,1,4.24,0c1.82,1.65,8.36,6.82,9.45,8.84.23.44.48-5.21,1-5.93s2.43-.37,2.91-1.66,1.09-5.56,6.29-5.45a8.31,8.31,0,0,1-2.54,3.64A7.33,7.33,0,0,0,90.33,77c-.73,1.82-2.54,3.3-1.82,4.43S90.17,83,90,84.66,93.67,89.09,91.73,93.57Z"></path>
        <path class="cls-1" d="M91.73,93.56s-3.51-4.84-5.2-5.56S83,86.79,84.1,84.13c0,0-4.72-.72-6.77-.86s2.26-1.55,4.84-1.57c0,0-8.36-5.93-8.72-7.13a1.66,1.66,0,0,0-1.65-1.09,4.08,4.08,0,0,1,2-.14,4.15,4.15,0,0,1,1.86.9c1.82,1.65,8.15,6.27,9.78,8.08.33.36.48-5.21,1-5.93S88.53,76,89.55,75c1.54-1.45,1.38-4.06,6.1-5.75a8.31,8.31,0,0,1-2.54,3.64A7.33,7.33,0,0,0,90.33,77c-.73,1.82-2.54,3.3-1.82,4.43s1.66,1.5,1.46,3.2S93.67,89.09,91.73,93.56Z"></path>
        <path class="cls-1" d="M111.64,147c-1-5-2.15-10.08-3.68-15s-3.13-9.8-5-14.56-4-9.49-6.21-14.12a138.29,138.29,0,0,0-7.44-13.48,1.11,1.11,0,0,1-.16-.44,1,1,0,0,1,0-.46,1.18,1.18,0,0,1,.19-.43,1.26,1.26,0,0,1,.34-.31,1.12,1.12,0,0,1,.44-.17,1.19,1.19,0,0,1,.46,0,1.28,1.28,0,0,1,.43.19,1.3,1.3,0,0,1,.31.35,152.45,152.45,0,0,1,7.29,13.79q3.3,7,6,14.37a156.27,156.27,0,0,1,4.81,14.87q2.09,7.5,3.42,15.19a.64.64,0,0,1-.13.42.65.65,0,0,1-.36.22.64.64,0,0,1-.43-.07.63.63,0,0,1-.27-.33Z"></path>
        <path class="cls-1" d="M131.76,135.79l-.06.67q-.27,3.06-.53,6.22v0c0,.16,0,.33,0,.49s0,.15,0,.22c-.07.87-.14,1.75-.2,2.64-.19,2.54-.38,5.13-.54,7.75-.1,1.59-.2,3.19-.29,4.81l0,.43v.06a1.48,1.48,0,0,0,0,.21c0,.43,0,.86-.08,1.29,0,.09,0,.18,0,.27,0,.79-.09,1.59-.13,2.39v.06c0,.88-.09,1.76-.13,2.65H127.2l.06-1.05v0c0-.08,0-.15,0-.23,0-.94.1-1.89.14-2.82,0-.1,0-.19,0-.28v0s0-.08,0-.12v-.14a.13.13,0,0,0,0-.06v-.13q.1-1.8.21-3.57a.2.2,0,0,0,0-.07c0-.46,0-.92.08-1.37l.09-1.42c0-.65.09-1.3.13-1.94.08-1.12.16-2.23.25-3.33q.34-4.82.75-9.43.28-3.24.59-6.36a22.22,22.22,0,0,0,2.13,2.1Z"></path>
        <path class="cls-4" d="M131.35,106a9.23,9.23,0,0,1-3.75-.67c-1.87-.78-4-2.58-3.55-6.89a18.57,18.57,0,0,1,9.58-13.22,18,18,0,0,1,18.68.18s-.22,1-.66,2.37-1,3.3-1.77,5.5c-1.65,4.24-3.1,9-6.87,12.9a21.43,21.43,0,0,1-4.18,2.21,5.57,5.57,0,0,1-7.48-2.38Z"></path>
        <path class="cls-1" d="M131.18,106a37,37,0,0,1,3.21-6.06,47.36,47.36,0,0,1,4-5.47,32.43,32.43,0,0,1,5-4.55,23.07,23.07,0,0,1,2.74-1.85,10.32,10.32,0,0,1,3-1.28,11,11,0,0,0-2.87,1.42,28.08,28.08,0,0,0-2.64,2,34,34,0,0,0-4.71,4.66,55,55,0,0,0-3.9,5.44,42.7,42.7,0,0,0-3.17,6,.26.26,0,0,1-.16.13.23.23,0,0,1-.2,0,.22.22,0,0,1-.11,0,.2.2,0,0,1-.08-.08.28.28,0,0,1,0-.12A.25.25,0,0,1,131.18,106Z"></path>
        <path class="cls-1" d="M132.87,102.78a7.8,7.8,0,0,1-1.66-3,8.32,8.32,0,0,1-.26-3.61,5.26,5.26,0,0,1,.18-.93,1.83,1.83,0,0,1,.12-.46l.16-.45c.1-.3.22-.6.35-.89l.43-.86a6.87,6.87,0,0,1,.51-.81l.53-.78c.41-.49.89-.92,1.34-1.38-.43.46-.89.91-1.29,1.4l-.51.79a5.7,5.7,0,0,0-.5.81l-.41.85a9.44,9.44,0,0,0-.32.89l-.16.43c0,.15-.07.3-.1.46a6.91,6.91,0,0,0-.15.91,8,8,0,0,0,.33,3.5,7.49,7.49,0,0,0,1.65,2.83.2.2,0,0,1,0,.11.24.24,0,0,1-.16.16.2.2,0,0,1-.11,0Z"></path>
        <path class="cls-1" d="M137.36,96.06a6.33,6.33,0,0,1-.18-5.34l.26-.64a6.42,6.42,0,0,1,.33-.64c.12-.2.22-.42.35-.6l.43-.56a3.93,3.93,0,0,1,.44-.55l.48-.52,1-.91-1,.94-.47.53c-.14.18-.29.36-.43.56l-.39.56a5.15,5.15,0,0,0-.33.61,3.64,3.64,0,0,0-.3.63l-.25.64A6.52,6.52,0,0,0,137,93.4a6.16,6.16,0,0,0,.71,2.48.18.18,0,0,1,0,.12.21.21,0,0,1,0,.13.29.29,0,0,1-.13,0,.18.18,0,0,1-.1-.09Z"></path>
        <path class="cls-1" d="M142.81,90.39a9.09,9.09,0,0,1,0-1.65,7.19,7.19,0,0,1,.38-1.65,5,5,0,0,1,.78-1.46,4,4,0,0,1,1.25-1,4.3,4.3,0,0,0-1.17,1.08,4.84,4.84,0,0,0-.69,1.45,6.4,6.4,0,0,0-.28,1.55,8.13,8.13,0,0,0,0,1.56.25.25,0,0,1,0,.12.19.19,0,0,1-.11.07c-.1,0-.2,0-.2-.14Z"></path>
        <path class="cls-1" d="M132.7,103.44a5.54,5.54,0,0,0,2.26.78,9.8,9.8,0,0,0,2.42,0,16.94,16.94,0,0,0,2.34-.35l1.13-.28,1.09-.33-1.08.37-1.11.31a18.58,18.58,0,0,1-2.34.45,11.42,11.42,0,0,1-2.48,0,10.47,10.47,0,0,1-1.24-.25,4.62,4.62,0,0,1-1.19-.5.17.17,0,0,1,0-.12.2.2,0,0,1,0-.13l.06,0h.13a.15.15,0,0,1,.06,0Z"></path>
        <path class="cls-1" d="M135.15,99.3a5.86,5.86,0,0,0,2,.85,8.16,8.16,0,0,0,2.2.24,10.06,10.06,0,0,0,2.11-.32,3.91,3.91,0,0,0,1-.31l.94-.4-.92.43a12,12,0,0,1-3.13.78,10,10,0,0,1-2.19-.15,6.92,6.92,0,0,1-2.2-.84.2.2,0,0,1,0-.13.17.17,0,0,1,0-.12.18.18,0,0,1,.12,0,.21.21,0,0,1,.13,0Z"></path>
        <path class="cls-1" d="M136.83,96.8a5.39,5.39,0,0,0,2.33.55,7.38,7.38,0,0,0,2.33-.37l.54-.2.52-.24.26-.12.25-.13.49-.3c.33-.23.62-.43.95-.63l.9-.69-.89.73-.92.67-.48.3-.25.15-.26.13-.52.27-.56.21a7.4,7.4,0,0,1-2.38.46,6,6,0,0,1-2.51-.51.17.17,0,0,1,0-.12.2.2,0,0,1,0-.13.28.28,0,0,1,.12,0,.21.21,0,0,1,.11,0Z"></path>
        <path class="cls-1" d="M139.77,93.1c1.42-.21,2.86-.43,4.21-.68a15.83,15.83,0,0,0,2-.46,3.83,3.83,0,0,0,1.76-.89,3.68,3.68,0,0,1-1.65,1,19.8,19.8,0,0,1-2,.53c-1.37.31-2.78.58-4.22.86h-.07l-.06,0s0,0-.05,0a.11.11,0,0,1,0-.07.09.09,0,0,1,0-.07l0-.06a.12.12,0,0,1,.05,0l.07,0Z"></path>
        <path class="cls-4" d="M128.92,128.55a7.78,7.78,0,0,1-3.31,1.07A8.42,8.42,0,0,1,119.8,128c-1.87-1.35-2.68-3.3-3.47-6.8S115,112.91,113.52,106a14.46,14.46,0,0,1,9-.79,18.09,18.09,0,0,1,8.26,4.64,19.55,19.55,0,0,1,3.45,4.48,18.62,18.62,0,0,1,2.19,5.71,14.74,14.74,0,0,1-.9,6.21,4.94,4.94,0,0,1-2.55,2.9,5.09,5.09,0,0,1-2.09.14A4.91,4.91,0,0,1,128.92,128.55Z"></path>
        <path class="cls-1" d="M128.77,128.65a28.83,28.83,0,0,0-4-11.36,31.86,31.86,0,0,0-3.68-5c-.71-.76-1.42-1.52-2.18-2.21a29.73,29.73,0,0,1-2.22-2.27,27.4,27.4,0,0,0,2.35,2.22c.81.66,1.53,1.4,2.28,2.13a29.52,29.52,0,0,1,3.85,4.85,28.59,28.59,0,0,1,2.72,5.52,27.14,27.14,0,0,1,1.44,6,.31.31,0,0,1-.06.19.27.27,0,0,1-.17.1H129a.31.31,0,0,1-.1-.05.23.23,0,0,1-.07-.07A.29.29,0,0,1,128.77,128.65Z"></path>
        <path class="cls-1" d="M128.29,125.55a11.64,11.64,0,0,1-2.92-.58,10.66,10.66,0,0,1-2.48-1.18c-.18-.11-.33-.26-.51-.39l-.23-.18-.24-.22-.44-.41a5.81,5.81,0,0,0-.38-.46,2,2,0,0,1-.35-.47l-.33-.49-.58-1,.61,1,.34.48a2.17,2.17,0,0,0,.36.44,4.19,4.19,0,0,1,.39.45,4.28,4.28,0,0,0,.45.4l.23.21.25.18.51.37a10.81,10.81,0,0,0,5.27,1.55.17.17,0,0,1,.12,0,.16.16,0,0,1,0,.11.17.17,0,0,1-.17.17Z"></path>
        <path class="cls-1" d="M125.75,118.69a8.61,8.61,0,0,1-2.32-.1,9.21,9.21,0,0,1-2.06-.61l-.46-.23a2.46,2.46,0,0,1-.45-.25l-.41-.22-.42-.29a2.74,2.74,0,0,1-.36-.32l-.36-.31c-.25-.22-.46-.46-.7-.7l.71.66.38.3a3.79,3.79,0,0,0,.38.32l.42.26a3.7,3.7,0,0,1,.43.25l.44.23.47.2a9.57,9.57,0,0,0,2,.53,8.1,8.1,0,0,0,2.2,0h.06l.06,0a.1.1,0,0,1,0,0,.14.14,0,0,1,0,.06.06.06,0,0,1,0,.06.14.14,0,0,1,0,.06.1.1,0,0,1,0,0l-.06,0Z"></path>
        <path class="cls-1" d="M121.54,112.86a11.27,11.27,0,0,1-1.41.16,10.74,10.74,0,0,1-1.39,0,8.07,8.07,0,0,1-1.28-.26,3.47,3.47,0,0,1-1.08-.68,3.09,3.09,0,0,0,1.09.61,6.82,6.82,0,0,0,1.27.18,7.84,7.84,0,0,0,1.37,0,8.53,8.53,0,0,0,1.34-.23h.07l.06,0a.12.12,0,0,1,0,0,.16.16,0,0,1,0,.06s0,0,0,.06a.11.11,0,0,1,0,.06l0,0a.09.09,0,0,1-.06,0Z"></path>
        <path class="cls-1" d="M128.59,126a4.27,4.27,0,0,0,2-.87,6.62,6.62,0,0,0,1.55-1.66,8.76,8.76,0,0,0,1-2.24,8,8,0,0,0,.29-1.27l.17-1.36-.12,1.37a6.08,6.08,0,0,1-.26,1.31,9.12,9.12,0,0,1-1,2.28,8.49,8.49,0,0,1-1.53,1.8,5.37,5.37,0,0,1-1,.61,3.59,3.59,0,0,1-1.11.35h-.06s0,0-.05,0,0,0,0,0a.13.13,0,0,1,0-.06.11.11,0,0,1,0-.11A.14.14,0,0,1,128.59,126Z"></path>
        <path class="cls-1" d="M127.27,121.86a5,5,0,0,0,1.65-1.16,5.28,5.28,0,0,0,1.12-1.76,7.17,7.17,0,0,0,.42-2.25c0-.41,0-.81,0-1.22a11.08,11.08,0,0,0-.22-1.26c.12.42.18.85.26,1.26a5.72,5.72,0,0,1,.1,1.24,7.55,7.55,0,0,1-.33,2.31,5.57,5.57,0,0,1-1.1,1.9,4.91,4.91,0,0,1-1.66,1.27.11.11,0,0,1-.09,0,.12.12,0,0,1-.1,0,.15.15,0,0,1,0-.11.13.13,0,0,1,0-.1Z"></path>
        <path class="cls-1" d="M126.16,119.4a4.07,4.07,0,0,0,1.22-1.85,5.42,5.42,0,0,0,.22-2.43l-.1-.63-.17-.64-.06-.32-.14-.31-.26-.61c-.21-.4-.43-.81-.66-1.19l-.78-1.11.81,1.11c.25.36.47.78.7,1.17l.28.63.15.31.09.32.19.64.13.66a5.42,5.42,0,0,1-.17,2.53,4.23,4.23,0,0,1-1.27,2,.21.21,0,0,1-.11,0,.21.21,0,0,1-.12,0,.2.2,0,0,1,0-.24Z"></path>
        <path class="cls-1" d="M123.83,115.78a15.4,15.4,0,0,0-.51-4.16,17.75,17.75,0,0,0-.76-2.07,4.19,4.19,0,0,0-1.39-1.65,4.18,4.18,0,0,1,1.47,1.65,16.86,16.86,0,0,1,.83,2.07,14.91,14.91,0,0,1,.67,4.19.08.08,0,0,1,0,.07l0,.05,0,0H124a.19.19,0,0,1-.12,0,.22.22,0,0,1,0-.11Z"></path>
        <path class="cls-2" d="M131.59,143.4a1.71,1.71,0,0,1,1.13-.16,10.1,10.1,0,0,1,4,1.65c4,2.33,3.9,2.77,5.72,3.07a12.82,12.82,0,0,0,4.66.17,12,12,0,0,0,7.1-4.64,31,31,0,0,0,4.44-6.5,12.76,12.76,0,0,0,1.06-5.65c0-4.85-.59-4.22-2-4.62s-2.89.89-5.94-.51c-1.51-.68-4.54-.45-7.24,0s-5.28,1.2-6.13,2.14c-1.75,1.9-2.79,3.11-3.89,9a17.53,17.53,0,0,1-.9,2.31,6.13,6.13,0,0,1-2.24,3C129.56,143.55,130.19,143.52,131.59,143.4Z"></path>
        <path class="cls-1" d="M130.47,142.87a61.91,61.91,0,0,0,7.3-2.32,68,68,0,0,0,7.11-3.11,59.71,59.71,0,0,0,6.6-3.88l1.52-1.11,1.46-1.16a27.42,27.42,0,0,0,2.62-2.44,25.5,25.5,0,0,1-5.46,5,59.1,59.1,0,0,1-6.61,4,73.15,73.15,0,0,1-7.11,3.2,59.12,59.12,0,0,1-7.33,2.38h-.1l-.09,0a.23.23,0,0,1-.07-.07.36.36,0,0,1,0-.09.3.3,0,0,1,0-.19.31.31,0,0,1,.15-.13Z"></path>
        <path class="cls-1" d="M133.87,142.06a13.14,13.14,0,0,1,4.1.93c.66.25,1.31.56,1.95.86l.94.49.93.52.46.24.5.19a5.89,5.89,0,0,0,1,.28,8.46,8.46,0,0,0,2.19.1,9.71,9.71,0,0,0,4.22-1.54,9.65,9.65,0,0,1-4.25,1.65,8.55,8.55,0,0,1-2.26,0c-.35-.1-.71-.15-1.06-.28l-.5-.25-.47-.23-.95-.51-.92-.48c-.65-.3-1.27-.59-1.93-.83a13,13,0,0,0-4-.85.16.16,0,0,1-.08-.06.2.2,0,0,1,0-.09.13.13,0,0,1,0-.09A.14.14,0,0,1,133.87,142.06Z"></path>
        <path class="cls-1" d="M139.05,140.21c1.32.42,2.67.75,4.08,1.06l2.11.4a17.26,17.26,0,0,0,2.15.25,9.19,9.19,0,0,0,4.26-1.11,16.89,16.89,0,0,0,3.58-2.58,16.77,16.77,0,0,1-3.58,2.63,9.45,9.45,0,0,1-4.35,1.19,20.21,20.21,0,0,1-2.18-.25l-2.13-.38c-1.4-.28-2.76-.61-4.11-1l0,0v-.09l0,0a.12.12,0,0,1,.06-.08.14.14,0,0,1,.11,0Z"></path>
        <path class="cls-1" d="M146.5,136.73a6.81,6.81,0,0,0,2.16.73,8.27,8.27,0,0,0,2.33,0,1.19,1.19,0,0,0,.59-.1l.58-.15.56-.18.55-.23a8.88,8.88,0,0,0,1.06-.55l1-.66-1,.69a8.3,8.3,0,0,1-1.06.57l-.56.24-.57.2a3.1,3.1,0,0,1-.58.15,4.29,4.29,0,0,1-.6.13,8.84,8.84,0,0,1-2.41,0,7.19,7.19,0,0,1-2.26-.72.13.13,0,0,1,0-.1.12.12,0,0,1,0-.09.15.15,0,0,1,.1,0,.19.19,0,0,1,.1,0Z"></path>
        <path class="cls-1" d="M151.91,133.39a12.28,12.28,0,0,0,2.17.28,10.21,10.21,0,0,0,2.21,0,11.93,11.93,0,0,1-2.23.2,15.15,15.15,0,0,1-2.23-.2.11.11,0,0,1-.09-.06.17.17,0,0,1,0-.1.22.22,0,0,1,.07-.09.17.17,0,0,1,.1,0Z"></path>
        <path class="cls-1" d="M154.47,131.34a10.79,10.79,0,0,0,1.87.34,7.69,7.69,0,0,0,1,0,1.45,1.45,0,0,0,.86-.34,1.32,1.32,0,0,1-.88.37,5.13,5.13,0,0,1-1,0,13.6,13.6,0,0,1-1.9-.28.09.09,0,0,1,0-.05.07.07,0,0,1,0,0h.05Z"></path>
        <path class="cls-1" d="M133,142.25a13.13,13.13,0,0,0,2.66-2.86c.36-.55.73-1.11,1-1.65s.56-1.19.83-1.77a20,20,0,0,1,1.88-3.31,8.89,8.89,0,0,1,2.68-2.39,8.88,8.88,0,0,0-2.61,2.46,19.86,19.86,0,0,0-1.79,3.3,17.9,17.9,0,0,1-1.8,3.51,12.6,12.6,0,0,1-2.67,3,.21.21,0,0,1-.13.05.18.18,0,0,1-.12-.05.21.21,0,0,1,0-.06.19.19,0,0,1,0-.07.14.14,0,0,1,0-.07.09.09,0,0,1,0-.06Z"></path>
        <path class="cls-1" d="M141.57,139.12c.55-1.65,1-3.3,1.51-5l.38-1.22a5,5,0,0,1,.56-1.14c.43-.7.91-1.37,1.37-2-.45.66-.89,1.34-1.32,2.05a5.83,5.83,0,0,0-.51,1.14l-.35,1.22c-.43,1.65-.88,3.31-1.37,5.06,0,0,0,0,0,.05l0,0-.05,0h-.06l0,0a.08.08,0,0,1,0,0l0-.05s0,0,0-.06Z"></path>
        <path class="cls-1" d="M145.27,137.24a14.68,14.68,0,0,0,1.21-2,10.1,10.1,0,0,0,.77-2.18c.17-.75.14-1.54.32-2.3a6,6,0,0,1,.79-2.08,5.79,5.79,0,0,0-.74,2.1,18.93,18.93,0,0,1-.25,2.31,9.71,9.71,0,0,1-.73,2.23,15.59,15.59,0,0,1-1.2,2.1l-.05,0h-.11l0,0a.19.19,0,0,1,0-.1.17.17,0,0,1,0-.1Z"></path>
        <path class="cls-1" d="M150,134.58l.36-2.91.18-1.42a3.43,3.43,0,0,1,.14-.71,1.68,1.68,0,0,1,.18-.69,1.91,1.91,0,0,0-.22.66,1.66,1.66,0,0,1-.1.69l-.11,1.46c0,.94-.1,1.91-.15,2.91a.12.12,0,0,1-.05.09.18.18,0,0,1-.1,0,.16.16,0,0,1-.09,0,.13.13,0,0,1,0-.1Z"></path>
        <path class="cls-1" d="M153.22,132.15a11.5,11.5,0,0,1,.15-1.65,5.36,5.36,0,0,1,.15-.78,1.93,1.93,0,0,1,.28-.72,2.11,2.11,0,0,0-.22.74v2.43a.15.15,0,0,1,0,.09.18.18,0,0,1-.09,0,.13.13,0,0,1-.1,0,.11.11,0,0,1,0-.09Z"></path>
        <path class="cls-2" d="M81.74,140.78a1.7,1.7,0,0,1,.36-1.09,10.36,10.36,0,0,1,3.31-2.83c3.86-2.53,4.23-2.23,5.3-3.73A12.57,12.57,0,0,0,93,129.05a11.86,11.86,0,0,0-1-8.43,31.86,31.86,0,0,0-3.8-6.94,13.13,13.13,0,0,0-4.57-3.48c-4.36-2.15-4-1.37-5-.28s-.51,3-3.14,5.09c-1.27,1-2.42,3.85-3.2,6.49s-1.29,5.27-.83,6.44c.91,2.4,1.52,3.88,6.26,7.52a16.92,16.92,0,0,1,1.66,1.83,6,6,0,0,1,1.65,3.3C81,142.64,81.21,142.06,81.74,140.78Z"></path>
        <path class="cls-1" d="M80.76,141.54A65.14,65.14,0,0,0,82,134a66.49,66.49,0,0,0,.41-7.73,56.57,56.57,0,0,0-.53-7.58l-.29-1.85L81.18,115a31,31,0,0,0-1-3.53,25.73,25.73,0,0,1,2,7.13,55.82,55.82,0,0,1,.62,7.64,72.3,72.3,0,0,1-.33,7.78,58.14,58.14,0,0,1-1.21,7.66.36.36,0,0,1,0,.09.23.23,0,0,1-.07.07.25.25,0,0,1-.09,0,.17.17,0,0,1-.1,0,.28.28,0,0,1-.15-.11.26.26,0,0,1,0-.19Z"></path>
        <path class="cls-1" d="M81.52,138.2a13.42,13.42,0,0,1,2.7-3.3,18.35,18.35,0,0,1,1.65-1.36l.86-.61.87-.59L88,132l.4-.36a7.21,7.21,0,0,0,1.78-2.73,9.38,9.38,0,0,0,.53-4.42,9.24,9.24,0,0,1-.48,4.51,7.9,7.9,0,0,1-1.07,2,5.7,5.7,0,0,1-.73.82l-.34.33-.43.33-.86.62-.86.71c-.55.43-1.11.87-1.65,1.35a12.6,12.6,0,0,0-2.58,3.19.18.18,0,0,1-.2,0,.18.18,0,0,1,0-.09.13.13,0,0,1,0-.09Z"></path>
        <path class="cls-1" d="M82.23,132.7c1-1,1.89-2.08,2.8-3.19l1.28-1.65A16.9,16.9,0,0,0,87.52,126a8.93,8.93,0,0,0,.91-4.31,15.52,15.52,0,0,0-.68-4.44,15.81,15.81,0,0,1,.73,4.37,9,9,0,0,1-.86,4.43,15.72,15.72,0,0,1-1.19,1.85l-1.29,1.65c-.89,1.13-1.8,2.2-2.74,3.21a.1.1,0,0,1,0,0l-.06,0h-.07l-.06,0,0-.06s0-.05,0-.07,0,0,0-.07a.12.12,0,0,1,0,0Z"></path>
        <path class="cls-1" d="M82.48,124.45a6.63,6.63,0,0,0,1.65-1.65,8.11,8.11,0,0,0,1.08-2.06,4.18,4.18,0,0,0,.16-.58c.06-.19.1-.39.14-.58l.1-.59v-.6a11.41,11.41,0,0,0,0-1.17L85.46,116a10,10,0,0,0,.16,1.19,8.14,8.14,0,0,1,0,1.21V119l-.1.62a6.87,6.87,0,0,1-.28,1.17,8.21,8.21,0,0,1-.92,2.18,7.22,7.22,0,0,1-1.66,1.65s0,0,0,0l-.05,0-.06,0s0,0,0,0a.08.08,0,0,1,0,0,.43.43,0,0,1,0,0s0,0,0,0a.08.08,0,0,1,0,0Z"></path>
        <path class="cls-1" d="M81.92,118.13a14.23,14.23,0,0,0,1.24-1.82,11.4,11.4,0,0,0,.92-2,13.31,13.31,0,0,1-.84,2.08,14.25,14.25,0,0,1-1.17,1.9l0,0h-.1l0,0a.14.14,0,0,1,0-.2Z"></path>
        <path class="cls-1" d="M81.33,139a15,15,0,0,0-2.42-5.23c-.34-.55-.79-1-1.18-1.56a18.1,18.1,0,0,1-2.12-3.15,8.76,8.76,0,0,1-.94-3.47,9,9,0,0,0,1,3.43,20.19,20.19,0,0,0,2.17,3.09,18.62,18.62,0,0,1,2.33,3.19,12.92,12.92,0,0,1,1.5,3.74v.07s0,0,0,.06l0,0a.09.09,0,0,1-.07,0,.2.2,0,0,1-.13,0,.21.21,0,0,1-.08-.11Z"></path>
        <path class="cls-1" d="M82.4,129.94c-1.25-1.24-2.53-2.43-3.8-3.6l-.89-.89a6.21,6.21,0,0,1-.76-1c-.43-.71-.81-1.42-1.19-2.13.4.69.81,1.4,1.26,2.1a5.57,5.57,0,0,0,.77,1l.94.86c1.31,1.12,2.61,2.28,3.9,3.5a.1.1,0,0,1,0,0,.43.43,0,0,1,0,.05s0,0,0,.06,0,0,0,0,0,0,0,0h-.1l0,0Z"></path>
        <path class="cls-1" d="M82.38,125.79a12,12,0,0,0-1.25-2,9.54,9.54,0,0,0-1.65-1.65c-.58-.48-1.31-.81-1.9-1.31a6,6,0,0,1-1.52-1.65,6.24,6.24,0,0,0,1.55,1.65c.59.47,1.32.76,2,1.26a9.91,9.91,0,0,1,1.65,1.65,14.64,14.64,0,0,1,1.34,2,.21.21,0,0,1,0,.1.18.18,0,0,1,0,.1.09.09,0,0,1,0,0l0,0,0,0a.09.09,0,0,1-.05,0Z"></path>
        <path class="cls-1" d="M82.15,120.34l-2.46-1.57-1.21-.8-.56-.43a3,3,0,0,1-.48-.52,2.15,2.15,0,0,0,.52.48c.18.15.38.28.57.42l1.24.74,2.53,1.45a.18.18,0,0,1,0,.09.13.13,0,0,1,0,.09s0,0,0,0h-.11a.1.1,0,0,1-.05,0Z"></path>
        <path class="cls-1" d="M81.39,116.39c-.46-.26-.92-.54-1.35-.84l-.68-.48a2.7,2.7,0,0,1-.53-.59,2.56,2.56,0,0,0,.58.51,7.14,7.14,0,0,0,.64.43c.24.13.93.51,1.41.73a.12.12,0,0,1,0,.09.11.11,0,0,1-.12.12.12.12,0,0,1-.09,0Z"></path>
        <path class="cls-3" d="M98.15,155.26a5.49,5.49,0,0,1-.78,1.28c-1.53,1.92-4.41,3.43-7.5,5A17,17,0,0,0,84.71,166H77.65c0,.14,0,.27,0,.41,0-.13,0-.27,0-.41H72.53c-3.14-3.36-5.52-7.5-2.71-12.49,5-8.93,13.46-4.24,14.92-3.33l.22.14.22-.15a13.92,13.92,0,0,1,3.57-1.75,12.82,12.82,0,0,1,1.56-.41c3.4-.64,6.63.29,7.82,3.42A4.88,4.88,0,0,1,98.15,155.26Z"></path>
        <path class="cls-1" d="M85.18,150.6h.08c-.1.11-.2.22-.29.34s-.27.31-.4.47c-.41.49-.81,1-1.2,1.51l-.28.38-.57.8c-.49.72-1,1.45-1.41,2.2l-.24.4c-.22.39-.45.79-.66,1.2a25.13,25.13,0,0,0-1.33,2.95l-.11.27c-.11.3-.21.6-.31.9l-.3,1.09a10.12,10.12,0,0,0-.25,1.09c-.11.6-.2,1.2-.26,1.8,0,.14,0,.27,0,.41,0-.13,0-.27,0-.41a13.06,13.06,0,0,1,.13-1.87,15.92,15.92,0,0,1,.35-2.25,27.51,27.51,0,0,1,1-2.76l.18-.41c.15-.35.31-.7.48-1,.57-1.12,1.2-2.22,1.88-3.29l.4-.61s0,0,0,0c.38-.57.78-1.13,1.19-1.68l.31-.41c.2-.26.4-.51.61-.76l.06-.07c.17-.22.36-.44.54-.65h0a.32.32,0,0,1,.21-.08.35.35,0,0,1,.22.08.36.36,0,0,1,.07.1.5.5,0,0,1,0,.12.27.27,0,0,1-.09.21Z"></path>
        <path class="cls-1" d="M84.47,150.77a9.83,9.83,0,0,0,2.27.58c.78.11,1.66,0,2.42.14a10.26,10.26,0,0,1,2.39.43,3.57,3.57,0,0,1,1.09.58,1.83,1.83,0,0,1,.58,1.06,2,2,0,0,0-.66-1,3.46,3.46,0,0,0-1.06-.51,9.38,9.38,0,0,0-2.36-.31H86.71a14.78,14.78,0,0,1-2.39-.43l-.11,0-.08-.09a.23.23,0,0,1,0-.11.24.24,0,0,1,0-.12.54.54,0,0,1,.05-.11l.08-.08a.28.28,0,0,1,.12,0h.12Z"></path>
        <path class="cls-1" d="M83.19,152.7a7,7,0,0,0,1.34,1.37,6,6,0,0,0,1.65.94,6.22,6.22,0,0,1,1.8.86,3.63,3.63,0,0,1,1.19,1.65,3.55,3.55,0,0,0-1.25-1.47,5.81,5.81,0,0,0-1.79-.77,6.49,6.49,0,0,1-1.81-.89A7.23,7.23,0,0,1,82.83,153a.18.18,0,0,1,0-.07.19.19,0,0,1,0-.08.29.29,0,0,1,0-.09l0-.07a.18.18,0,0,1,.07,0l.09,0,.08,0a.18.18,0,0,1,.07,0Z"></path>
        <path class="cls-1" d="M81,156.1a6.79,6.79,0,0,0,.8,1.38,8.4,8.4,0,0,0,1.12,1.19,7.63,7.63,0,0,1,1.24,1.1,1.63,1.63,0,0,1,.45.77,1.55,1.55,0,0,1,0,.88,1.13,1.13,0,0,0,0-.77,2.46,2.46,0,0,0-.44-.66,7.87,7.87,0,0,0-1.29-1,8.91,8.91,0,0,1-1.22-1.16,7.16,7.16,0,0,1-1-1.43.28.28,0,0,1,0-.18.2.2,0,0,1,.12-.12s.05,0,.08,0H81l.07.05a.18.18,0,0,1,0,.07Z"></path>
        <path class="cls-1" d="M78.7,160.73a9.85,9.85,0,0,1,1.82,1.47,5.94,5.94,0,0,1,.71.94,3.32,3.32,0,0,1,.38,1.11,3.69,3.69,0,0,0-1.18-1.9,6.29,6.29,0,0,0-.89-.73,7.82,7.82,0,0,0-1-.61.16.16,0,0,1,0-.12.15.15,0,0,1,0-.11.2.2,0,0,1,.24,0Z"></path>
        <path class="cls-1" d="M79.54,159a13,13,0,0,0-1.83.58,5.37,5.37,0,0,0-1.65,1,2.07,2.07,0,0,0-.55.73l-.43.87a11.75,11.75,0,0,1-1,1.65,11.16,11.16,0,0,0,.94-1.65l.4-.87a2,2,0,0,1,.55-.83,5.64,5.64,0,0,1,1.65-1.07,11.68,11.68,0,0,1,1.81-.7h.08l.08,0,.06.06a.11.11,0,0,1,0,.07.22.22,0,0,1,0,.08.14.14,0,0,1,0,.07.1.1,0,0,1,0,.06l-.07,0Z"></path>
        <path class="cls-1" d="M82.33,154.12c-.87.33-1.75.6-2.64.84s-1.78.43-2.69.6a10,10,0,0,0-2.56.86,9.38,9.38,0,0,0-2.28,1.5,10.43,10.43,0,0,1,2.25-1.65,10.28,10.28,0,0,1,2.57-1c.91-.2,1.79-.42,2.66-.7s1.74-.56,2.56-.9a.2.2,0,0,1,.17,0,.3.3,0,0,1,.13.12.23.23,0,0,1,0,.18.23.23,0,0,1-.12.12Z"></path>
        <path class="cls-1" d="M83.67,152.12c-.89-.1-1.78-.18-2.66-.25a11.92,11.92,0,0,0-2.67,0,13.09,13.09,0,0,0-2.63.63,12.13,12.13,0,0,0-2.4,1.24,12.08,12.08,0,0,1,2.37-1.35,12.33,12.33,0,0,1,2.61-.73,11.27,11.27,0,0,1,2.72-.13,25.11,25.11,0,0,1,2.73.15l.09,0a.19.19,0,0,1,.07.06.25.25,0,0,1,0,.07.14.14,0,0,1,0,.09.24.24,0,0,1-.08.15.2.2,0,0,1-.16.05Z"></path>
        <path class="cls-14" d="M125,19.1s0-9.68-1.65-10.75-3.53-5.31.28-5.41S124.82-1.53,130,.58s6.26,10.49,4,18.36S125.19,23.68,125,19.1Z"></path>
        <path class="cls-8" d="M124.89,19.1a54.34,54.34,0,0,0-.7-7.53c-.26-1.19-.39-2.58-1.32-3.17A5.63,5.63,0,0,1,121,4.81a2,2,0,0,1,.23-1.16,1.9,1.9,0,0,1,.93-.79,5.35,5.35,0,0,1,2-.15,2,2,0,0,0,.86-.22,1.9,1.9,0,0,0,.67-.59,11,11,0,0,1,1-1.57,2.17,2.17,0,0,1,.89-.32,2.11,2.11,0,0,1,.93.11c.61.16,1.21.31,1.87.45a5.47,5.47,0,0,1,2,.69,5.35,5.35,0,0,1,1.44,1.52c2.4,5,1.9,10.36.53,15.21a17,17,0,0,1-1.4,3.49A4.65,4.65,0,0,1,131.72,23a4.43,4.43,0,0,1-1.74.82,4,4,0,0,1-1.95-.15,4.09,4.09,0,0,1-1.66-1.05A5.54,5.54,0,0,1,124.89,19.1Zm.21,0a5,5,0,0,0,1.54,3.3,3.72,3.72,0,0,0,1.51,1,3.76,3.76,0,0,0,1.79.2,4.24,4.24,0,0,0,2.86-2.11A10.45,10.45,0,0,0,134.1,18a26.26,26.26,0,0,0,.58-7.45,15.42,15.42,0,0,0-.62-3.63,11.79,11.79,0,0,0-1.66-3.16l-.49-.67a6.34,6.34,0,0,1-.51-.68A8.34,8.34,0,0,0,130.22,1a3.29,3.29,0,0,0-1.65-.81,1.93,1.93,0,0,0-.92-.13,2.13,2.13,0,0,0-.88.29A8.17,8.17,0,0,0,125.83,2a2.62,2.62,0,0,1-1.65,1.08,4.55,4.55,0,0,0-1.65.56A1.62,1.62,0,0,0,122,4.81a4.93,4.93,0,0,0,1.41,3,2.57,2.57,0,0,1,.69.81,5.52,5.52,0,0,1,.35,1,15.94,15.94,0,0,1,.36,2A67.54,67.54,0,0,1,125.1,19.1Z"></path>
        <path class="cls-15" d="M130,54.17S125.2,25,123.42,22.27s-.55-7.38,1.22-5.37,2.83,5.58,3.77,4.69.16-7.5-.13-8.26,2.7-2.74,3.73,5.29c0,0,1.49-2.35,1.9-2.92s2.29,1.37,1.3,4.09-3,10.28-2,15.88,0,12.77.14,18a69,69,0,0,1-1.5,14C131.27,70.89,130.57,57.36,130,54.17Z"></path>
        <path class="cls-16" d="M127.73,76.3a.37.37,0,0,1,0-.21c0-.86.36-6.61-.71-8.26s-2.07-2.08-.18-5.32,1-1.37,1-1.37-10.75-15.28-16.34-18.8-7.78-4.26-6.7-5.78,5.85-2.5,12.55,5.35c2.91,3.42,5,5.87,6.23,7.53a.61.61,0,0,0,.36.23.64.64,0,0,0,.43-.06.63.63,0,0,0,.28-.32.61.61,0,0,0,0-.42c-1.5-4.71-3.77-12.41-2.82-13.32,1.37-1.3,3.53-6.41,6.47-.59,2.08,4.11,3.31,16.33,3.73,23.12a.64.64,0,0,0,.18.4.62.62,0,0,0,.82.07.62.62,0,0,0,.24-.37c1.51-6.85,4.51-19.57,7.16-23.93,3.7-6.1,7.2-5.49,9-3.62s-3.08,6.11-4,7.5-9.14,14.68-9.33,17-.19,8.18-1.16,11a102.16,102.16,0,0,0-2.63,10.72C131.89,78.73,130,83.75,127.73,76.3Z"></path>
        <path class="cls-1" d="M127.73,76.31a.41.41,0,0,1,0-.22c0-.86.36-6.61-.71-8.26s-2.07-2.08-.18-5.32,1-1.37,1-1.37-10.75-15.28-16.34-18.8-6.6-1-5.55-2.49,4.84-1.57,12.26,5.32c2.86,2.64,4.66,4.34,5.78,5.42a.69.69,0,0,0,.37.16.6.6,0,0,0,.39-.1.59.59,0,0,0,.25-.31.61.61,0,0,0,0-.4c-1.47-4.49-4.2-13.41-3.18-14.39,1.38-1.3,2.12-1.4,4.63,5a196.47,196.47,0,0,1,5.4,20,.62.62,0,0,0,.23.32.58.58,0,0,0,.37.13.58.58,0,0,0,.38-.13.62.62,0,0,0,.23-.32,115.87,115.87,0,0,1,16.33-30c1.79,1.88-3.07,6.11-4,7.5s-9.14,14.69-9.34,17-.18,8.17-1.15,11a97.47,97.47,0,0,0-2.63,10.82C131.89,78.73,130,83.76,127.73,76.31Z"></path>
        <path class="cls-1" d="M131.36,77.64c0,13,.1,26.1.15,39.15,0,6.61,0,13,.18,19.56a143.91,143.91,0,0,0,1.19,19.57,2.65,2.65,0,0,1,0,1.05,2.54,2.54,0,0,1-.39,1,2.57,2.57,0,0,1-.74.73,2.51,2.51,0,0,1-1,.38,2.6,2.6,0,0,1-1,0,2.59,2.59,0,0,1-1.95-2.24,2.48,2.48,0,0,1,0-.86A147.4,147.4,0,0,0,129,136.33c.12-6.52.15-13.05.18-19.57,0-13.05.18-26.1.15-39.15a1,1,0,0,1,.07-.39,1.11,1.11,0,0,1,.22-.34,1.06,1.06,0,0,1,.33-.22,1,1,0,0,1,.39-.08,1,1,0,0,1,.39.08,1.06,1.06,0,0,1,.33.22,1,1,0,0,1,.22.33.92.92,0,0,1,.08.4Z"></path>
        <path class="cls-4" d="M131.76,159.46a7.84,7.84,0,0,1-2.76-1.65,6.14,6.14,0,0,1-1.73-5.84c.49-2.69,2.56-5.35,5.86-7.68a34.09,34.09,0,0,1,13.76-5.53s.3.73.71,2a20.2,20.2,0,0,1,.83,5.4,21.43,21.43,0,0,1-1.26,7.44,18.16,18.16,0,0,1-5,7.5,13.2,13.2,0,0,1-4.69,2.08,4.32,4.32,0,0,1-3.76-.49,4.41,4.41,0,0,1-1.34-1.41A4.32,4.32,0,0,1,131.76,159.46Z"></path>
        <path class="cls-1" d="M131.63,159.42q2-2.07,3.8-4.24t3.4-4.46c1.07-1.52,2.18-3.06,3.19-4.61.49-.74,1-1.5,1.55-2.35a16.93,16.93,0,0,1,1.65-2.21,17.84,17.84,0,0,0-1.65,2.3c-.49.84-1,1.65-1.45,2.39-1,1.65-2.07,3.16-3.07,4.71s-2.17,3.07-3.31,4.54a55.27,55.27,0,0,1-3.85,4.25.18.18,0,0,1-.07,0l-.09,0-.09,0-.08,0a.3.3,0,0,1,0-.08v-.09a.36.36,0,0,1,0-.09Z"></path>
        <path class="cls-1" d="M133.78,157.29a7.88,7.88,0,0,1-1.05-2.66,7.71,7.71,0,0,1-.09-2.75,3.78,3.78,0,0,1,.13-.67v-.31l.1-.31a1.77,1.77,0,0,1,.21-.61l.28-.58a2.8,2.8,0,0,1,.32-.56l.34-.55.8-1-.78,1-.33.54a4.18,4.18,0,0,0-.28.56l-.27.6a2.38,2.38,0,0,1-.19.61l-.1.31v.32a1.22,1.22,0,0,1-.12.64,8.05,8.05,0,0,0,.17,2.68A7.85,7.85,0,0,0,134,157.1s0,0,0,0a.11.11,0,0,1,0,.05.13.13,0,0,1,0,.06s0,0,0,0l0,0h-.11a.1.1,0,0,1-.05,0Z"></path>
        <path class="cls-1" d="M138,152.09a6.87,6.87,0,0,1-.76-2.07,6.49,6.49,0,0,1-.1-2.11v-.51a.83.83,0,0,1,.11-.5l.15-.49.18-.47c.06-.15.13-.31.2-.46l.23-.44.52-.88-.48.89-.22.45c0,.15-.13.31-.18.46l-.16.48-.12.5a2.66,2.66,0,0,0-.1.49v.5a5.73,5.73,0,0,0,.17,2.06,6.2,6.2,0,0,0,.8,2,.14.14,0,0,1,0,.1.13.13,0,0,1,0,.1.11.11,0,0,1-.09,0,.12.12,0,0,1-.1,0Z"></path>
        <path class="cls-1" d="M141.74,146.64a8.25,8.25,0,0,1-.43-1.27,7.17,7.17,0,0,1-.25-1.29,5.4,5.4,0,0,1,0-1.27,3.25,3.25,0,0,1,.5-1.16,2.86,2.86,0,0,0-.43,1.16,5.14,5.14,0,0,0,0,1.24,6.86,6.86,0,0,0,.29,1.25,8.07,8.07,0,0,0,.5,1.17.21.21,0,0,1,0,.1.18.18,0,0,1,0,.1s0,0,0,0h-.11a.1.1,0,0,1-.05,0Z"></path>
        <path class="cls-1" d="M133.51,157.79a4.58,4.58,0,0,0,1.65,1.06,6.86,6.86,0,0,0,2.1.36,11,11,0,0,0,2.21-.2l1.09-.28,1.09-.38-1.07.41-1.11.32a10.39,10.39,0,0,1-2.23.28,6.6,6.6,0,0,1-2.16-.3,5,5,0,0,1-1-.41,3.61,3.61,0,0,1-.89-.66l0-.05a.18.18,0,0,1,0-.12l0,0a.15.15,0,0,1,.1,0,.15.15,0,0,1,.09,0Z"></path>
        <path class="cls-1" d="M136.1,154.72a4.78,4.78,0,0,0,1.66.82,5.72,5.72,0,0,0,1.93.2,7.25,7.25,0,0,0,2-.46,6.75,6.75,0,0,0,1-.43l.89-.55-.88.58a10.13,10.13,0,0,1-.92.48,8.1,8.1,0,0,1-2,.55,6,6,0,0,1-2-.14,5,5,0,0,1-1.82-.8l0-.05a.18.18,0,0,1,0-.12l0-.05.05,0h.11l0,0Z"></path>
        <path class="cls-1" d="M137.62,152.72a4.31,4.31,0,0,0,2,.33,5,5,0,0,0,2.06-.6l.48-.26.45-.33.23-.17.2-.18.41-.36.76-.84.69-.9-.67.93-.73.86-.41.39-.2.2-.23.17-.45.34-.5.29a5.64,5.64,0,0,1-2.11.69,4.3,4.3,0,0,1-2.18-.33.18.18,0,0,1,0-.09.13.13,0,0,1,0-.09.14.14,0,0,1,.2,0Z"></path>
        <path class="cls-1" d="M139.8,149.43a19.76,19.76,0,0,0,3.44-1.49,12.81,12.81,0,0,0,1.65-1.05,3.54,3.54,0,0,0,1.19-1.46,3.64,3.64,0,0,1-1.14,1.52,14.19,14.19,0,0,1-1.55,1.12,23,23,0,0,1-3.42,1.66.17.17,0,0,1-.1,0,.19.19,0,0,1-.1,0,.16.16,0,0,1,0-.12.14.14,0,0,1,.09-.08Z"></path>
        <path class="cls-17" d="M10.92,111.92A36.73,36.73,0,0,1,4,110,6.24,6.24,0,0,0,1.28,109S.07,114.94.07,115.88a5.56,5.56,0,0,0,1.37,4.61,9.58,9.58,0,0,0,5.42,3c2.77.53,10.64-1,10.64-1s14.86-2.8,16.76-2.67a52.44,52.44,0,0,0,5.46-.2l-13.95-4.77Z"></path>
        <path class="cls-18" d="M11.73,112.59a40.55,40.55,0,0,1-6.92-1.91,6.81,6.81,0,0,0-2.74-.89s-1,5.18-1,6A4.53,4.53,0,0,0,1.28,118a4.71,4.71,0,0,0,1.25,1.86A10.32,10.32,0,0,0,8,122.62c2.78.55,10.56-.58,10.56-.58s14.73-2.08,16.62-1.93,3.61.09,5.41,0l-14-4.48Z"></path>
        <path class="cls-19" d="M6.86,122.57a17.54,17.54,0,0,0-3.07,4c-.17,1,1.52,9.81,1.65,10.59a2.3,2.3,0,0,0,1.06,1.33,1.35,1.35,0,0,0,.45.44,1.44,1.44,0,0,0,.61.18,1.36,1.36,0,0,0,1.13-.47c1.36-1.12,5.75-5.89,9.37-7s16.19-8.78,21-9.65c3.18-.6,3.39-2.56,3.39-2.56S14.16,117.61,6.86,122.57Z"></path>
        <path class="cls-20" d="M6.78,122.93S4,125.41,3.84,126.24s1.81,8.41,2,9.08,1.07,1.18,1.07,1.18a1.65,1.65,0,0,0,2.2.18c1.3-.91,5.53-4.86,9.1-5.68s15.82-7,20.58-7.62c3.14-.41,3.31-2.08,3.31-2.08S13.9,118.94,6.78,122.93Z"></path>
        <path class="cls-20" d="M16.79,129.3a3.39,3.39,0,0,0-1.06,2.39,3.47,3.47,0,0,0,.94,2.45,19.13,19.13,0,0,1,2.84,5.63l5.34-4.31a40,40,0,0,0,3.72-6.79c.85-2.56,5.71-4.66,5.71-4.66s9.4-1,10.08-1.55a2,2,0,0,0,.76-1S19.32,125.55,16.79,129.3Z"></path>
        <path class="cls-21" d="M14.8,116.92s-8.72-2.31-7.11-9.79S13,97.59,13,97.59s1.65-.41,2.61,1.94,3.48,8.54,9.25,11.15,5.86,3.95,11,4.66a16.7,16.7,0,0,1,3.31,1.1c1.33.66-5.06,2.36-5.06,2.36S19.46,119.43,14.8,116.92Z"></path>
        <path class="cls-22" d="M28,117.86s-4.8-4.24-8.11-7c-2.11-1.85-5-6.5-5.18-5.15s-1.66,2.43-1.26,6.21,4.49,5.93.61,6.39-5-.24-3.9.45,3.9,1.35,2.17,2.71-5,3.19-4.18,5S9.8,128.6,11,128.17s5.51-1.8,5.88-.56-1.26,4.23,1.32,5.12,2.62-.13,2.84.58,4.69-2.43,5.93-3.67S31,117.75,28,117.86Z"></path>
        <path class="cls-10" d="M29.09,118.84S25,114.94,22.9,115s-4.28,1.75-5.27,1.93-1.65.71-2.28,2.86-4.53,3.17-2.07,3.86,5.69.34,6,1.52-2.34,3.59-.94,4.15,5.32-2.61,5-.18,0,1.42,1.53,0a57.25,57.25,0,0,0,6.1-7.19A33.87,33.87,0,0,0,29.09,118.84Z"></path>
        <path class="cls-23" d="M29.69,119.68s-12.46-.64-16.35-3.3a45.92,45.92,0,0,0,15.21,3.71,61,61,0,0,0-14.16,0s8.69-.89,13.66.55a75.23,75.23,0,0,0-9.91,1.27s5-.2,5.65-.15-.68,1.16-.68,1.16l-3.79,2.29a53.51,53.51,0,0,1,6.6-1.65c.55.18-2.76,1.37-2.76,1.37l5.06-.41-7.76,2.68,8.8-2.13s-4.81,1.65-6.11,3.3l7.43-3.49L34,117.73Z"></path>
        <path class="cls-24" d="M43.57,117.45s-8.26-2-8.26-2.68a19.23,19.23,0,0,0-4.7-6.18,9.94,9.94,0,0,0-5.3-.31,13.31,13.31,0,0,1-4.44.41c-1.21-.31-.53.88-.61,1s.61.43.74.78,1.82,0,2.07.66-.73,1.42,1.76,2.1,6.61.44,6.38,1.4a7,7,0,0,1-.74,1.92Z"></path>
        <path class="cls-9" d="M25.59,112.87c.28-.16.61-.25.89-.43s.55-.53.88-.76a6.67,6.67,0,0,1,3.8-1.15c-.76-.55-1.24-1.47-2.13-1.87a2.3,2.3,0,0,0-1.42,0,13.09,13.09,0,0,1-4.45.41c-1.19-.33-.51.86-.59,1s.61.43.74.78,1.82,0,2.07.64S25.21,112.43,25.59,112.87Z"></path>
        <path class="cls-18" d="M12.69,99.12c.46,0-1.65.23.23,2.32s3.4,3.21,1.79,4.28-4.27,2.76-4.07,4.13-.51,3.8-1.14,3a7,7,0,0,1-1.65-2.48,9.93,9.93,0,0,1,.48-4.49C8.89,105.24,9.49,99.48,12.69,99.12Z"></path>
        <path class="cls-18" d="M17.45,130.81s-1.65.19-.94,2.2,3.3,4.3,3.3,5.42.66-1,.53-2.56S17.6,131.84,17.45,130.81Z"></path>
        <path class="cls-17" d="M25.1,113.3s3,.12,3.52-.72,1.1-1.66,2.67-.48,1.8,3,3.19,3.09S24.7,115.37,25.1,113.3Z"></path>
        <path class="cls-25" d="M48.52,119.78c.73-1.31-15.94-5.32-16.87-5.54v-.82c0-1.65-1.65-.5-3.12.2s-1.65,2.13-3.1,5a4.36,4.36,0,0,0-.3,2.71,4.43,4.43,0,0,0,1.37,2.36,2.51,2.51,0,0,1,1.12.17c-1,.59-.87,2.44-2.39,5a7.39,7.39,0,0,0,0,6.61c.84.08,3.73-6.42,4-7.47s2.22-2.16,3.47-3.12a26.8,26.8,0,0,1,6.23-2C43.65,123.53,47.79,121.08,48.52,119.78Z"></path>
        <path class="cls-11" d="M9.27,132c.2-.3,1.83-3.17.1-3.47,0,0-1.4-.28-2.23,1.52s-1.5,1.24-1.65,2S8.11,133.92,9.27,132Z"></path>
        <path class="cls-11" d="M13.85,129.82c.13-.28,1.22-2.79-.25-2.87,0,0-1.17-.12-1.65,1.45s-1.14,1.16-1.21,1.77S13.05,131.49,13.85,129.82Z"></path>
        <path class="cls-11" d="M9,128.17c.3-.2,3-2,1.65-3.07a2.1,2.1,0,0,0-1.45-.29,2,2,0,0,0-1.27.74c-1.52,1.25-1.89.44-2.37,1S7.11,129.38,9,128.17Z"></path>
        <path class="cls-12" d="M27.9,120.08v-.28H26.81a4.42,4.42,0,0,1-1.25-.12,17.52,17.52,0,0,0-2.51,0,17.08,17.08,0,0,0-4.86,1.26,18,18,0,0,0-4.28,2.59,24.34,24.34,0,0,0-1.86,1.65c-.58.6-1.11,1.26-1.66,1.87l-.56-.46c.61-.62,1.18-1.24,1.8-1.84a21,21,0,0,1,2-1.65A19,19,0,0,1,18,120.59a18.46,18.46,0,0,1,5-1.21,18.23,18.23,0,0,1,2.56,0,4.56,4.56,0,0,1,1.27.12l.63.11h.48s0,.17.21-.19Z"></path>
        <path class="cls-12" d="M28.6,120.08a33.3,33.3,0,0,0-5.6,1.14,31.81,31.81,0,0,0-5.32,2.06A22.2,22.2,0,0,0,13,126.49,15.6,15.6,0,0,0,9.73,131l-.66-.32a16.66,16.66,0,0,1,3.52-4.65,22.53,22.53,0,0,1,4.84-3.19,33.64,33.64,0,0,1,5.44-2,35,35,0,0,1,5.66-1Z"></path>
        <path class="cls-12" d="M29,120.28a23.07,23.07,0,0,0-8.8,2.7,16,16,0,0,0-3.57,2.76A14.6,14.6,0,0,0,14,129.46l-.7-.31a15.44,15.44,0,0,1,2.83-3.84,16.83,16.83,0,0,1,3.78-2.76,23.73,23.73,0,0,1,9-2.52Z"></path>
        <path class="cls-26" d="M44.32,118.09s-8.83-2.82-9.91-2.91-3.12-1.85-3.61-1-.12,3.31-.85,4.08-1.65,4.13-.43,3.49a14.87,14.87,0,0,1,3.87-2.21A80.59,80.59,0,0,1,44.32,118.09Z"></path>
        <path class="cls-18" d="M28.58,123.63s-1.65,1.78-2.34-.18-1.21-2-.73-2.91a33.12,33.12,0,0,0,1.42-3.3c.41-1.14,0-2.22,1.42-2.84s3-2.25,3-1-1.49,4.31-1.55,5.86S29.64,122.94,28.58,123.63Z"></path>
        <path class="cls-9" d="M28.45,122s-1.07,1.21-1.65-.13-.81-1.34-.5-2a20.4,20.4,0,0,0,1-2.25c.29-.78,0-1.5,1-1.93s2-1.56,2.08-.66-1,2.94-1.07,4S29.18,121.53,28.45,122Z"></path>
        <path class="cls-27" d="M25.39,134.65s-1.3-1.92-.44-3.39a48.37,48.37,0,0,0,2.23-5.43s2-3.13,2.11-1.66a20.83,20.83,0,0,1-2.54,8.26Z"></path>
        <path class="cls-9" d="M2.55,112.73s-1.06,3.12-.17,4.72A15.87,15.87,0,0,0,5,120.75a72.27,72.27,0,0,1-1.65-8.26C3.47,111.62,2.83,111.67,2.55,112.73Z"></path>
        <path class="cls-9" d="M28,126s-.17.25-1,1.9-2.38,3-1.19,2.51,2.08-2.86,2.34-3.19S28,126,28,126Z"></path>
        <path class="cls-9" d="M23.61,133.16a29.47,29.47,0,0,0-3,2.2,2.48,2.48,0,0,0-.66,1.1,2.64,2.64,0,0,0,0,1.28,29.56,29.56,0,0,1,4-3.77Z"></path>
        <path class="cls-1" d="M59.82,124.45s-5.58-4.26-6-4.84-3.44-3.2-3.57-3.3a7.24,7.24,0,0,1-2.45-3.3A8.33,8.33,0,0,0,49.54,118,17.42,17.42,0,0,1,45,115.63a23.63,23.63,0,0,0-6.44-3.48,11.2,11.2,0,0,0,4,4.06l2.3,1.07a11.11,11.11,0,0,0-4,.22,69.92,69.92,0,0,0-6.72,5.15,5.37,5.37,0,0,0,3.3,1.65c2.17.3,7.29-1.18,9.68-.67a5.91,5.91,0,0,0,4.07-.47,7.49,7.49,0,0,0-3.75,1.41c-1.13,1.12-3.39,5-2.76,5.5,0,0,4.38-3.47,5-3.9A17.91,17.91,0,0,1,54,124.52c0,.21,2.65-.71,3.31-.41a3.82,3.82,0,0,1,1.22,1l-3.3,1s-2.68,6.82-1.47,12.42,1.86,2.08,2,1.9,4.71-13.74,4.71-13.74S62.84,123.33,59.82,124.45Z"></path>
        <path class="cls-1" d="M59.88,125a294.12,294.12,0,0,1,24.29,17.84,204.14,204.14,0,0,1,22,20.69L105,164.58a203,203,0,0,0-21.63-20.77,288.33,288.33,0,0,0-24-18Z"></path>
        <path class="cls-1" d="M203,140.93v3.41c-.09.14-.19.27-.29.4l.28-.09h0v13.73c-.22-.17-.39-.29-.5-.36-1.05-.66-7-2.89-7-2.55s-4.22-1.12-5.3-.66a5.8,5.8,0,0,0-1.93,1.65l5.27,1.66a47.12,47.12,0,0,1,2.15,7.89h-8.19c-.31-.9-.6-1.77-.87-2.56l-1.52-4.53-.16-.26a12.26,12.26,0,0,1-.7-1.41c-.58-1.42-.78-3.06,2.12-2,0,0,8.89-6.79,9.58-7.71a20.21,20.21,0,0,1,1.55-1.58l.29-.27.57-.53c.33-.3.66-.61,1-.89,1.17-1.07,2.21-2,2.31-2.14a4.28,4.28,0,0,1,.41-.36l.58-.51.19-.17Z"></path>
        <path class="cls-1" d="M187,157.46c-.68.39-1.36.78-2,1.19a74.22,74.22,0,0,0-9.85,7.11l-.28.24h-2.57l1-.85.32-.26a73.63,73.63,0,0,1,10.71-7.65c.69-.42,1.39-.81,2.09-1.2Z"></path>
        <path class="cls-1" d="M199.09,140.73a16,16,0,0,0-1.17,2.25c0,.41-.64,4.26-.79,4.8s-.94,2-.4,2.45,1.37.44,2-.61-1-.6-.61-3.07S199.09,140.73,199.09,140.73Z"></path>
        <path class="cls-28" d="M202.71,151.74l.29.16v.92l-.42-.23a5.47,5.47,0,0,0-2.36-.45,16.36,16.36,0,0,0-3.19.32s-.63,1.75-.08-.08a.76.76,0,0,1,.06-.16,1.28,1.28,0,0,1,.11-.24,2.68,2.68,0,0,1,.18-.28,2.72,2.72,0,0,1,2.08-.74h.06a4.89,4.89,0,0,1,.54,0h0a10.49,10.49,0,0,1,1.6.26,4.45,4.45,0,0,1,1,.41Z"></path>
        <path class="cls-1" d="M203,150.75v.86l-.44,0c-.45.06-.91.14-1.35.23l-.39.09-.6.16a16.88,16.88,0,0,0-2.37.88c-3.07,1.42-3-.2-3-.84s1.17-1.49,1.46-2.3c.07-.1.13-.21.21-.31h0a8.75,8.75,0,0,1,.72-.89h0a5.66,5.66,0,0,1,.6-.6,1.71,1.71,0,0,1,.25-.22,6.25,6.25,0,0,1,.5-.4,6.9,6.9,0,0,0,.83-1.65,10.45,10.45,0,0,0,.06,2.25c0,.13,0,.26.07.39a2.56,2.56,0,0,0,.2.57,1.46,1.46,0,0,0,.17.3.27.27,0,0,0,.07.08.89.89,0,0,0,.65.34h.08a1.88,1.88,0,0,1,.34,0,2.42,2.42,0,0,1,.71.2A3.68,3.68,0,0,1,203,150.75Z"></path>
        <path class="cls-29" d="M196.89,150.62s.86-4.27,1-5.86a27.09,27.09,0,0,1,1.06-3.95.76.76,0,0,0,0-.3c-.09-.44,1.65,2.88-.88,7.07C198.08,147.58,197,150.19,196.89,150.62Z"></path>
        <path class="cls-29" d="M202.71,151.74H203v.59c-.92-.2-1.91-.31-2.18-.34h-.07l.46-.09A12.46,12.46,0,0,1,202.71,151.74Z"></path>
        <path class="cls-30" d="M203,146.83v.91a11.57,11.57,0,0,0-2.32,2,5.34,5.34,0,0,0-.48.61,6.16,6.16,0,0,1-.82.63,6.42,6.42,0,0,1-1.58.82c-.34.07-.48,0-.5-.08s.39-.6.5-.61l.06,0h0c.23-.18,1-.82,2.09-1.74.71-.59,1.57-1.3,2.54-2.07Z"></path>
        <path class="cls-31" d="M203,144.64V147q-1.5,1.16-3,2.34l-.92.75a7.14,7.14,0,0,1-1.24.91h0a1.32,1.32,0,0,1-.39.14c-.24,0-.2-.21,0-.4l.28-.32h0l1.09-1.22.72-.81,3.4-3.78Z"></path>
        <path class="cls-32" d="M203,146.93v2.37c-.5.28-.92.5-1.19.64l0,0c-.46.24-1.11.63-1.78,1h0a15.53,15.53,0,0,1-2.24,1.15h0a.91.91,0,0,1-.42.07h0c-.1,0-.15-.1-.13-.24a1.89,1.89,0,0,1,.35-.79h0a9,9,0,0,1,2.32-2.18c.8-.59,1.73-1.18,2.71-1.77Z"></path>
        <path class="cls-33" d="M202.76,145.8l.24-.25v1l-2.83,2.08Z"></path>
        <path class="cls-34" d="M203,144.23v1.09c-.14.21-.26.38-.24.48s.08.11.24.1v2.33c-.62.52-1.25,1-1.9,1.51s-1.1.83-1.66,1.22-1.13.8-1.7,1.18h0a2.93,2.93,0,0,1-.42.07H197c-.42,0-.7-.31.18-1.37l.28-.34,1.31-1.58c.24-.29.48-.59.74-.89A37.11,37.11,0,0,1,203,144.23Z"></path>
        <path class="cls-4" d="M164.6,102.07a12.54,12.54,0,0,1-4.54,1.65c-2.55.33-5.82-.21-8.13-4.61s-2.33-12,1.14-19.06a24.51,24.51,0,0,1,19-14s.47,1.1,1.1,2.89,1.47,4.28,2.31,7c1.66,5.62,3.21,12,1.81,18.72a21.7,21.7,0,0,1-3,5.19C172.31,102.24,169.27,104.5,164.6,102.07Z"></path>
        <path class="cls-1" d="M164.43,102.2a63.38,63.38,0,0,1,.22-16.51,53.7,53.7,0,0,1,1.75-8,36.36,36.36,0,0,1,1.42-3.9,14.58,14.58,0,0,1,2.05-3.57A14.9,14.9,0,0,0,168,73.82a36.05,36.05,0,0,0-1.25,3.94,56.81,56.81,0,0,0-1.52,8.09,69.14,69.14,0,0,0-.53,8.26c0,2.73.15,5.45.4,8.14a.38.38,0,0,1-.09.25.35.35,0,0,1-.23.12.44.44,0,0,1-.16,0,.38.38,0,0,1-.13-.09.29.29,0,0,1-.08-.14A.33.33,0,0,1,164.43,102.2Z"></path>
        <path class="cls-1" d="M164.27,97.86a9.59,9.59,0,0,1-3.8-1.9,9.9,9.9,0,0,1-3.07-4.48,3.25,3.25,0,0,1-.2-.53l-.12-.56c0-.36-.18-.72-.21-1.1l-.1-1.13a7.23,7.23,0,0,1,0-1.14V85.88l.36-2.24-.23,2.26V87a10.46,10.46,0,0,0,0,1.12l.12,1.13a5.15,5.15,0,0,0,.24,1.07l.12.53a5.38,5.38,0,0,0,.2.51c.15.35.26.69.43,1a9.38,9.38,0,0,0,6.32,5,.2.2,0,0,1,.08,0,.12.12,0,0,1,.06.06.13.13,0,0,1,0,.08.14.14,0,0,1,0,.09.26.26,0,0,1-.1.13.23.23,0,0,1-.16,0Z"></path>
        <path class="cls-1" d="M164.61,88a8.1,8.1,0,0,1-2.46-2.13,8.81,8.81,0,0,1-1.48-3l-.2-.83a5.74,5.74,0,0,1-.13-.83,6,6,0,0,1,0-.85v-.86a4,4,0,0,1,0-.85l.11-.85.4-1.66-.35,1.66-.08.84a5.89,5.89,0,0,0,0,.84v.86a2.31,2.31,0,0,0,.1.82,4.68,4.68,0,0,0,.16.83l.2.79a9.07,9.07,0,0,0,1.54,2.83,7.81,7.81,0,0,0,2.39,2,.24.24,0,0,1,.11.13.18.18,0,0,1,0,.16.23.23,0,0,1-.3.1Z"></path>
        <path class="cls-1" d="M166.25,78.45a11.75,11.75,0,0,1-1.17-1.65,9.12,9.12,0,0,1-.79-1.85,7,7,0,0,1-.29-2,6,6,0,0,1,.5-2,5.1,5.1,0,0,0-.4,2,6.87,6.87,0,0,0,.37,1.95,8.36,8.36,0,0,0,.86,1.75,10.21,10.21,0,0,0,1.19,1.52l0,.07a.22.22,0,0,1,0,.08.28.28,0,0,1,0,.09l0,.07a.25.25,0,0,1-.16.06.23.23,0,0,1-.16-.06Z"></path>
        <path class="cls-1" d="M164.52,98.64a7.73,7.73,0,0,0,2.92-.63,13,13,0,0,0,2.63-1.52,22.92,22.92,0,0,0,2.26-1.92l1-1,.95-1.08-.9,1.11-1,1.09a19.08,19.08,0,0,1-2.2,2,13.49,13.49,0,0,1-2.62,1.66,12.58,12.58,0,0,1-1.49.54,6.14,6.14,0,0,1-1.65.23h-.08l-.07,0a.18.18,0,0,1-.05-.07.24.24,0,0,1,0-.08.19.19,0,0,1,0-.08.26.26,0,0,1,.12-.12l.08,0Z"></path>
        <path class="cls-1" d="M164.4,92.82a8.25,8.25,0,0,0,2.74-.46,11.58,11.58,0,0,0,2.46-1.24,13.42,13.42,0,0,0,2-1.8c.31-.33.56-.7.84-1l.74-1.09-.69,1.11a11.87,11.87,0,0,1-.81,1.06,13.11,13.11,0,0,1-2,1.9,11.44,11.44,0,0,1-2.49,1.38,8.38,8.38,0,0,1-2.88.6.22.22,0,0,1-.15-.06.23.23,0,0,1-.06-.16.21.21,0,0,1,.21-.21Z"></path>
        <path class="cls-1" d="M164.55,89.2a6.65,6.65,0,0,0,2.82-1,9,9,0,0,0,2.22-2l.44-.59.38-.63.18-.31.17-.33.33-.65.53-1.33.43-1.39-.38,1.4c-.15.45-.32.88-.48,1.36l-.31.67-.15.33-.2.32-.35.66-.44.61a9.64,9.64,0,0,1-2.22,2.15,7.57,7.57,0,0,1-3,1.2.11.11,0,0,1-.08,0,.2.2,0,0,1-.08,0,.17.17,0,0,1-.06-.06l0-.08a.19.19,0,0,1,0-.08.19.19,0,0,1,0-.08l.07-.06.08,0Z"></path>
        <path class="cls-1" d="M165.13,83.34c1.3-1.22,2.61-2.46,3.81-3.73a21.92,21.92,0,0,0,1.66-2,4.81,4.81,0,0,0,1.12-2.27,4.87,4.87,0,0,1-1,2.32,20.13,20.13,0,0,1-1.66,2c-1.17,1.32-2.41,2.61-3.7,3.9a.22.22,0,0,1-.15.06.23.23,0,0,1-.16-.06.22.22,0,0,1-.06-.15.2.2,0,0,1,.06-.15Z"></path>
        <path class="cls-4" d="M173.52,164.89c0,.11-.05.22-.08.33-.07.26-.14.53-.21.78h-27a6.27,6.27,0,0,1,1.94-2c2.25-1.65,5.6-2.25,9.81-2.17a52.4,52.4,0,0,1,15.57,3.09Z"></path>
        <polygon class="cls-1" points="157.38 165.47 156.06 165.82 155.54 166 155.38 166 156.04 165.79 157.38 165.47"></polygon>
        <path class="cls-1" d="M162.65,165.14l-1,.47-.49.28L161,166h-.16l.32-.16.51-.27Z"></path>
        <path class="cls-1" d="M167,164.66a4.06,4.06,0,0,0-1.15.81,5.37,5.37,0,0,0-.44.53h-.15a4.78,4.78,0,0,1,.52-.58A3.79,3.79,0,0,1,167,164.66Z"></path>
        <path class="cls-3" d="M175.07,165.76l.57.24h-9.8c1.84-1.31,4.63-1.52,7.35-.85l.25.07A12,12,0,0,1,175.07,165.76Z"></path>
        <path class="cls-3" d="M190.24,166h-14l.09-.08.06,0h0c1.26-1.05,5.59-4.22,10.21-2.43A10,10,0,0,1,190.24,166Z"></path>
        <path class="cls-1" d="M176.41,166h-.18l-.2.18-.14-.06a.24.24,0,0,1,0-.12.37.37,0,0,1,.05-.11.25.25,0,0,1,.1-.08l.13,0a.27.27,0,0,1,.12,0,.13.13,0,0,1,.09.07h-.1l0,0Z"></path>
        <path class="cls-4" d="M129.22,158c0,.13,0,.27,0,.4s0,.25-.07.37a4.27,4.27,0,0,1-.59,1.41,3.86,3.86,0,0,1-.76.85,1.73,1.73,0,0,1-.3.25l0,0a1.49,1.49,0,0,1-.2.15l-.07,0h0a.28.28,0,0,1,0,.09.57.57,0,0,1,0,.13,7.43,7.43,0,0,1-.32,3,2.5,2.5,0,0,1-.09.25h0a6,6,0,0,1-.5,1.06H110.84a.3.3,0,0,1,0,.1l-.17-.1c-.57-.34-1.12-.69-1.66-1.06a34,34,0,0,1-7.24-6.67,20.61,20.61,0,0,1,1.47-1.75,20.88,20.88,0,0,1,4.48-3.57,18.41,18.41,0,0,1,3.92-1.77,15.61,15.61,0,0,1,2.24-.56,15.88,15.88,0,0,1,1.94-.27,18.92,18.92,0,0,1,8.42,1.24c.32.18.63.37.93.58a13.08,13.08,0,0,1,2,1.71,8.91,8.91,0,0,1,.7.8l.11.12.08.1a4.26,4.26,0,0,1,1,1.61A4,4,0,0,1,129.22,158Z"></path>
        <path class="cls-1" d="M127.27,161.62q-2.68-.83-5.41-1.42c-1.81-.4-3.65-.71-5.5-.94s-3.71-.43-5.6-.53l-2.87-.15a15,15,0,0,1-2.83-.36,16.78,16.78,0,0,0,2.83.21h2.82a50.55,50.55,0,0,1,5.64.38c1.86.22,3.71.5,5.55.89a51.57,51.57,0,0,1,5.45,1.47.28.28,0,0,1,.13.11.26.26,0,0,1,0,.17.25.25,0,0,1-.09.13A.18.18,0,0,1,127.27,161.62Z"></path>
        <path class="cls-1" d="M124.39,160.69a8.37,8.37,0,0,1-1.88,2.14,8.65,8.65,0,0,1-2.36,1.35,2.28,2.28,0,0,0-.63.18h-.65a4.22,4.22,0,0,1-.62.1h-.65a2.22,2.22,0,0,1-.63,0h-.62l-1.26-.18,1.24.15h1.88a4.35,4.35,0,0,0,.63-.1h.31l.32-.1a1.82,1.82,0,0,0,.61-.2,7.6,7.6,0,0,0,2.23-1.39,7.88,7.88,0,0,0,1.82-2.08l0,0h.11l0,0a.18.18,0,0,1,0,.2Z"></path>
        <path class="cls-1" d="M117.87,159.31A6.62,6.62,0,0,1,116.4,161a7.26,7.26,0,0,1-1.82,1.12l-.48.19a2.85,2.85,0,0,1-.5.14l-.49.14h-.51l.49-.12.48-.13.48-.17.48-.2a7.29,7.29,0,0,0,1.65-1.15,6.55,6.55,0,0,0,1.36-1.65.08.08,0,0,1,0,0h.11l0,0a.12.12,0,0,1,0,.1.11.11,0,0,1,0,.09Z"></path>
        <path class="cls-1" d="M111.31,158.7a9.56,9.56,0,0,1-.89,1,7.92,7.92,0,0,1-1,.89,6.38,6.38,0,0,1-1.15.62,3.71,3.71,0,0,1-1.28.14,3.06,3.06,0,0,0,1.24-.21,5.46,5.46,0,0,0,1.09-.66,6.89,6.89,0,0,0,1-.91,9,9,0,0,0,.83-1l0,0h.11l0,0,0,.05a.07.07,0,0,1,0,0,.13.13,0,0,1,0,.06l0,.05Z"></path>
        <path class="cls-1" d="M125,160.7a4.53,4.53,0,0,0,.19-2,6.47,6.47,0,0,0-.62-2,9.17,9.17,0,0,0-1.14-1.87l-.71-.84-.79-.81.83.77.74.85a8.85,8.85,0,0,1,1.22,1.85,5,5,0,0,1,.68,3.12,3.55,3.55,0,0,1-.2,1.07.17.17,0,0,1-.18.1.14.14,0,0,1-.09-.08.17.17,0,0,1,0-.12Z"></path>
        <path class="cls-1" d="M121.07,159.8a4.58,4.58,0,0,0,0-1.88,5.64,5.64,0,0,0-.69-1.8,7,7,0,0,0-1.31-1.55c-.24-.23-.54-.43-.81-.65l-.91-.54.91.53a7.31,7.31,0,0,1,.85.61,7.39,7.39,0,0,1,1.38,1.52,6,6,0,0,1,.8,1.85,4.9,4.9,0,0,1,.08,2,.15.15,0,0,1-.06.09.2.2,0,0,1-.11,0l-.06,0,0,0a.09.09,0,0,1,0-.06v-.08Z"></path>
        <path class="cls-1" d="M118.61,159.37a4,4,0,0,0-.61-2,5,5,0,0,0-1.49-1.65l-.46-.3-.5-.26-.24-.12L115,155l-.53-.2a10.25,10.25,0,0,0-1.09-.28l-1.14-.17,1.14.13,1.11.27.54.18h.27l.26.13.52.25.47.3a5.13,5.13,0,0,1,1.66,1.65,4.35,4.35,0,0,1,.71,2.1.16.16,0,0,1,0,.07.14.14,0,0,1,0,.06s0,0-.06,0h-.13l-.06,0a.14.14,0,0,1,0-.06.15.15,0,0,1,0-.07Z"></path>
        <path class="cls-1" d="M114.7,159a18.57,18.57,0,0,0-2.94-2.29,14.62,14.62,0,0,0-1.66-.88,3.71,3.71,0,0,0-1.86-.3,3.48,3.48,0,0,1,1.91.24,9.71,9.71,0,0,1,1.65.81,17.94,17.94,0,0,1,3.06,2.19.16.16,0,0,1,0,.11.14.14,0,0,1,0,.11.16.16,0,0,1-.11.05.15.15,0,0,1-.11,0Z"></path>
        <path class="cls-2" d="M108.48,143.16s.19-1.31,3.62-1.66,3.54.15,4.73-.29a6.61,6.61,0,0,0,5.36-5.9c1.23-5.17,1.52-6.2,1-10.26s-.84-3.65-2-3.77-2.16,1.18-4.82.78c-1.35-.2-3.77,1.06-6,2.74a13.34,13.34,0,0,0-4.41,5c-.57,2.41-1.15,4.08,1.11,8.26a15.22,15.22,0,0,1,.63,1.87,5.69,5.69,0,0,1,.26,2.92C107.44,144.35,107.81,144,108.48,143.16Z"></path>
        <path class="cls-1" d="M107.59,143.5c1-1.73,2-3.45,3.06-5.13s2.13-3.31,3.3-5l3.45-5,.88-1.25.89-1.28,1.75-2.56a55.16,55.16,0,0,1-3.3,5.26l-3.3,5c-1.13,1.65-2.2,3.31-3.21,5.06s-2.21,3.42-3.17,5.17a.21.21,0,0,1-.13.05.17.17,0,0,1-.19-.19.24.24,0,0,1,0-.13Z"></path>
        <path class="cls-1" d="M109,141.24a7.33,7.33,0,0,1,2.87-1.4,11.75,11.75,0,0,1,1.55-.29h2.33a6.58,6.58,0,0,0,.75-.14,5.83,5.83,0,0,0,1.37-.62,5.73,5.73,0,0,0,2-2.13,5.55,5.55,0,0,1-1.37,1.75,5.65,5.65,0,0,1-1.93,1.08,6.85,6.85,0,0,0-.76.16h-2.33a13.25,13.25,0,0,0-1.52.32,6.93,6.93,0,0,0-2.82,1.43l-.09,0a.11.11,0,0,1-.08-.19Z"></path>
        <path class="cls-1" d="M111.28,137.59l3-1,1.5-.44c.5-.17,1-.3,1.47-.48a6.38,6.38,0,0,0,2.36-1.88,16.22,16.22,0,0,0,1.66-2.61,14.82,14.82,0,0,1-1.66,2.64,6.4,6.4,0,0,1-2.28,2c-.47.2-1,.33-1.47.5l-1.5.48-3,1a.08.08,0,0,1-.07,0,.07.07,0,0,1-.06,0l0,0s0,0,0,0,0,0,0,0l0,0Z"></path>
        <path class="cls-1" d="M114.79,132.24a5.78,5.78,0,0,0,1.66-.15,6.56,6.56,0,0,0,1.65-.61l.38-.22a1.66,1.66,0,0,0,.34-.25l.35-.26.32-.3a5.93,5.93,0,0,0,.59-.63l.53-.69-.51.73c-.2.21-.37.44-.58.64l-.32.32-.34.26-.37.26-.38.24a6.78,6.78,0,0,1-1.65.66,6,6,0,0,1-1.8.18h0l-.06,0,0,0a.07.07,0,0,1,0-.1l0,0a.07.07,0,0,1,.06,0h0Z"></path>
        <path class="cls-1" d="M117.7,128.06a14.93,14.93,0,0,0,1.65-.27,10.46,10.46,0,0,0,1.66-.46,9.79,9.79,0,0,1-1.66.55,11.5,11.5,0,0,1-1.65.34.11.11,0,0,1-.08,0,.18.18,0,0,1-.05-.07s0-.13.1-.13Z"></path>
        <path class="cls-1" d="M119.2,125.81a12,12,0,0,0,1.47,0,4.61,4.61,0,0,0,.72-.15,1,1,0,0,0,.59-.38,1.16,1.16,0,0,1-.59.41,3.68,3.68,0,0,1-.73.17,9.08,9.08,0,0,1-1.47.1Z"></path>
        <path class="cls-1" d="M108.62,141.8a14,14,0,0,0,.13-3,13,13,0,0,0-.18-1.65l-.28-1.65a10.15,10.15,0,0,1,0-3.3,8.21,8.21,0,0,1,1.14-3.13,8.28,8.28,0,0,0-1.08,3.13,10.55,10.55,0,0,0,.13,3.22,25.41,25.41,0,0,1,.53,3.14,13.83,13.83,0,0,1,0,3.15.15.15,0,0,1-.06.09.19.19,0,0,1-.1,0l-.06,0,0,0s0,0,0,0v-.06Z"></path>
        <path class="cls-1" d="M112.4,135.79a39.19,39.19,0,0,1-.91-4.17l-.16-1.12a4,4,0,0,1,0-1.09,18,18,0,0,1,.47-2.18,16.43,16.43,0,0,0-.42,2.18,3.83,3.83,0,0,0,0,1.07l.18,1.08a38.46,38.46,0,0,0,1,4.11.09.09,0,0,1,0,.05v0l0,0,0,0-.06,0-.07,0Z"></path>
        <path class="cls-1" d="M114.05,133.05a15.56,15.56,0,0,0,.17-1.92,18.19,18.19,0,0,0-.1-1.95,18.56,18.56,0,0,1-.32-2,4.84,4.84,0,0,1,.17-2,4.91,4.91,0,0,0-.13,2,13.54,13.54,0,0,0,.43,1.92,13,13,0,0,1,.16,2,17.87,17.87,0,0,1-.13,1.93.06.06,0,0,1,0,0l0,0,0,0h0a.11.11,0,0,1-.1-.12Z"></path>
        <path class="cls-1" d="M116.63,129.51a24.52,24.52,0,0,1-.5-2.41c0-.4-.13-.81-.16-1.22a3.11,3.11,0,0,1,0-.63,1.57,1.57,0,0,1,0-.61,2.08,2.08,0,0,0,0,.61v.63a8.23,8.23,0,0,0,.2,1.2,22.13,22.13,0,0,0,.61,2.37.13.13,0,0,1,0,.14.13.13,0,0,1-.08,0,.11.11,0,0,1-.07,0Z"></path>
        <path class="cls-1" d="M118.4,126.74a12.32,12.32,0,0,1-.17-1.36,4,4,0,0,1,0-.69,2,2,0,0,1,.12-.68,2,2,0,0,0-.09.68v.67a9.28,9.28,0,0,0,.27,1.31.14.14,0,0,1,0,.07.14.14,0,0,1,0,.06.09.09,0,0,1-.07,0,.07.07,0,0,1-.06,0Z"></path>
        <path class="cls-1" d="M146.52,166.24l-1.45-.47c1-3,2-5.91,3-8.61v0l.09-.21a1.35,1.35,0,0,1,.1-.25,2.6,2.6,0,0,1,.1-.28c.77-2,1.61-4.07,2.49-6.11,1.28-3,2.68-6,4.18-9,.42-.84.84-1.66,1.26-2.47l1.26-2.34.38-.67v-.13l.16-.17c.08-.14.16-.28.25-.42s.19-.36.31-.56l.06-.11.92-1.6.72.26-.67-.35c1-1.65,1.82-3,2.63-4.32.36-.59.73-1.16,1.11-1.73l.06-.11c.12-.19.25-.37.37-.55s.2-.31.3-.45l.59-.9c1-1.5,2.06-3,3.21-4.54a.84.84,0,0,1,.13-.17c1.12-1.52,2.26-3,3.59-4.64l.14-.17c.91-1.11,1.79-2.13,2.69-3.14l.24-.26c1-1.07,1.52-1.61,1.54-1.64l1.07,1.09s-.63.62-1.7,1.81l-.24.25c-.79.9-1.59,1.84-2.4,2.83l-.18.2c-1.31,1.62-2.44,3.09-3.56,4.61l-.06.09c-1.15,1.55-2.2,3-3.2,4.52l-.62.93c-.1.14-.17.25-.24.36l-.34.52-.1.16c-.38.58-.75,1.15-1.12,1.74-.79,1.26-1.63,2.64-2.58,4.24a.72.72,0,0,1-.12.19l-.87,1.55c-.13.21-.26.44-.37.65s-.17.3-.23.41l-.09.15-.45.81-1.24,2.31c-.42.79-.83,1.61-1.25,2.44-1.48,2.94-2.88,5.92-4.14,8.87-.88,2-1.71,4.06-2.47,6.07a1.44,1.44,0,0,0-.09.24l-.1.24-.05.15C148.5,160.28,147.49,163.2,146.52,166.24Z"></path>
        <path class="cls-4" d="M172.76,137.49a10.9,10.9,0,0,1-4.11,2.81,13.51,13.51,0,0,1-8.92.19c-3.19-.94-5.21-3.08-7.87-6.79a122.86,122.86,0,0,0-12.25-15.61,23.11,23.11,0,0,1,2.67-2.26A25.67,25.67,0,0,1,151,112a27.57,27.57,0,0,1,14.06.23,25,25,0,0,1,13.89,9.91,16.85,16.85,0,0,1,1.28,2.88,17.35,17.35,0,0,1,1,6.31,7.23,7.23,0,0,1-.55,2.9,7.44,7.44,0,0,1-1.66,2.45C177.58,137.75,175.52,138,172.76,137.49Z"></path>
        <path class="cls-1" d="M172.64,137.67a31,31,0,0,0-4.77-7.17,34.93,34.93,0,0,0-6.61-5.57,37,37,0,0,0-7.78-3.88,38.54,38.54,0,0,0-4.23-1.35c-1.43-.47-2.92-.73-4.34-1.29,1.44.49,3,.68,4.41,1.07a38.65,38.65,0,0,1,4.33,1.21,35.81,35.81,0,0,1,8,3.73A33.6,33.6,0,0,1,168.4,130a29.05,29.05,0,0,1,4.95,7.37.32.32,0,0,1,0,.14.2.2,0,0,1,0,.13.75.75,0,0,1-.07.12.29.29,0,0,1-.12.07.35.35,0,0,1-.14.06.41.41,0,0,1-.16,0,.37.37,0,0,1-.14-.07A.6.6,0,0,1,172.64,137.67Z"></path>
        <path class="cls-1" d="M170.51,133.61a17.35,17.35,0,0,1-4.36.59,16.9,16.9,0,0,1-4-.4,4.32,4.32,0,0,1-.89-.24l-.43-.14-.42-.16c-.27-.09-.54-.19-.81-.31a5.17,5.17,0,0,0-.74-.38,4.07,4.07,0,0,1-.73-.42l-.71-.44-1.34-1,1.38.92.71.42a4,4,0,0,0,.74.38,6,6,0,0,1,.76.38c.25.11.54.18.81.29l.41.14.45.11a6.64,6.64,0,0,1,.87.23,17.43,17.43,0,0,0,4,.27,16.78,16.78,0,0,0,4.16-.71.15.15,0,0,1,.09,0h.09l.08.06a.2.2,0,0,1,0,.08.21.21,0,0,1,0,.18l-.06.06-.09,0Z"></path>
        <path class="cls-1" d="M163.46,126.12a13.41,13.41,0,0,1-3.16,1.08,15.28,15.28,0,0,1-3.17.31h-.76a4.33,4.33,0,0,1-.72,0,1.82,1.82,0,0,1-.73-.1l-.79-.21-.68-.18a4.07,4.07,0,0,0-.68-.2l-1.32-.46,1.34.41a5.73,5.73,0,0,1,.69.16,2.67,2.67,0,0,0,.68.15l.71.12h.73a4.33,4.33,0,0,0,.72,0h.76a15.31,15.31,0,0,0,3.09-.41,13.08,13.08,0,0,0,3-1.13l.07,0,.09,0,.08,0,.08,0a.27.27,0,0,1,.05.15.25.25,0,0,1-.05.15Z"></path>
        <path class="cls-1" d="M154.44,121.3a15.93,15.93,0,0,1-1.83,1,18.25,18.25,0,0,1-1.89.77,12.42,12.42,0,0,1-1.91.38,5.24,5.24,0,0,1-1.85-.2,5.37,5.37,0,0,0,1.83.1,11.69,11.69,0,0,0,1.85-.48,12.14,12.14,0,0,0,1.79-.84,14,14,0,0,0,1.65-1,.18.18,0,0,1,.07,0l.09,0,.09,0,.08,0a.18.18,0,0,1,.05.07.11.11,0,0,1,0,.08.15.15,0,0,1,0,.09l-.05.06Z"></path>
        <path class="cls-1" d="M171.17,134.17a6,6,0,0,0,2.35-2,8.21,8.21,0,0,0,1.26-3.09,13.14,13.14,0,0,0,.16-3.6,15.35,15.35,0,0,0-.31-1.9l-.56-1.9.62,1.9a13.87,13.87,0,0,1,.38,1.92,12.61,12.61,0,0,1,0,3.68,8.35,8.35,0,0,1-1.19,3.31,6.82,6.82,0,0,1-1,1.29,5.71,5.71,0,0,1-1.39,1,.2.2,0,0,1-.17,0,.23.23,0,0,1-.13-.11.25.25,0,0,1,0-.17.26.26,0,0,1,.11-.14Z"></path>
        <path class="cls-1" d="M167.29,129.38a6.63,6.63,0,0,0,1.65-2.37,7.1,7.1,0,0,0,.55-3,10.6,10.6,0,0,0-.74-3.18c-.22-.51-.53-1-.8-1.52a10.19,10.19,0,0,0-1-1.47,17.3,17.3,0,0,1,1.09,1.46,15,15,0,0,1,.84,1.52,10.75,10.75,0,0,1,.88,3.3,7.12,7.12,0,0,1-.47,3.07,6.65,6.65,0,0,1-1.65,2.55.23.23,0,0,1-.16.06.27.27,0,0,1-.17-.06.23.23,0,0,1-.06-.16.25.25,0,0,1,.06-.16Z"></path>
        <path class="cls-1" d="M164.42,126.79a5.1,5.1,0,0,0,.62-3,6.87,6.87,0,0,0-1.09-3.19l-.49-.73-.6-.71-.33-.33-.34-.29-.73-.61a14.61,14.61,0,0,0-1.65-1.08l-1.75-.86,1.78.84a12.81,12.81,0,0,1,1.65,1.05l.76.59.38.3.33.34.63.7.55.76a7,7,0,0,1,1.22,3.3,5.24,5.24,0,0,1-.63,3.31.21.21,0,0,1-.14.1.2.2,0,0,1-.17,0,.18.18,0,0,1,0-.07.11.11,0,0,1,0-.08.15.15,0,0,1,0-.09l0-.07Z"></path>
        <path class="cls-1" d="M159.21,123.54a17.41,17.41,0,0,0-3.08-4.74,18.22,18.22,0,0,0-2.3-2,6.24,6.24,0,0,0-3-1.15,6.36,6.36,0,0,1,3,1.07,17.28,17.28,0,0,1,2.41,1.93,18.39,18.39,0,0,1,3.31,4.71.25.25,0,0,1,0,.17.22.22,0,0,1-.12.13.33.33,0,0,1-.17,0,.26.26,0,0,1-.14-.11Z"></path>
        <path class="cls-2" d="M150,157a1.85,1.85,0,0,1,1.06-.4,9.46,9.46,0,0,1,4.16.81c4.26,1.51,4.26,2,6.06,1.94a10.69,10.69,0,0,0,4.5-.81,11.57,11.57,0,0,0,5.81-6.81,33.65,33.65,0,0,0,2.41-8.57,15.77,15.77,0,0,0-.76-6.61c-1.65-5.25-2.06-4.29-3.45-4.18s-2.28,2-5.58,1.65c-1.66-.13-4.25,1.21-6.61,2.61s-4.53,2.94-5,4.1c-1,2.36-1.65,3.8-1.12,9.73a19.78,19.78,0,0,1-.26,2.44,5.76,5.76,0,0,1-1.54,3.31C148.13,157.59,148.74,157.43,150,157Z"></path>
        <path class="cls-1" d="M148.86,156.77a44.6,44.6,0,0,0,6.49-3.92,47.93,47.93,0,0,0,5.88-5,46,46,0,0,0,5-6l1.09-1.65,1-1.65a27.15,27.15,0,0,0,1.65-3.6,26.38,26.38,0,0,1-3.39,7.08,46.82,46.82,0,0,1-4.95,6.12,50.15,50.15,0,0,1-5.9,5.08,41.69,41.69,0,0,1-6.61,4,.14.14,0,0,1-.09,0h-.1l-.08,0a.42.42,0,0,1-.06-.08l0-.1a.2.2,0,0,1,0-.1.14.14,0,0,1,0-.08l.08,0Z"></path>
        <path class="cls-1" d="M151.9,155.28a12.88,12.88,0,0,1,4.11,0,19.78,19.78,0,0,1,2,.43c.33.1.66.18,1,.3l1,.31.5.15.51.08a6.23,6.23,0,0,0,3.17-.35,8.52,8.52,0,0,0,3.7-2.67,8.82,8.82,0,0,1-3.73,2.76,7.75,7.75,0,0,1-2.18.44,6.25,6.25,0,0,1-1.06,0l-.54-.08-.5-.15-1-.3c-.33-.11-.66-.18-1-.28a19.7,19.7,0,0,0-2-.41,12.26,12.26,0,0,0-4,0,.12.12,0,0,1-.1,0,.18.18,0,0,1-.07-.08.17.17,0,0,1,0-.1.15.15,0,0,1,.09-.06Z"></path>
        <path class="cls-1" d="M156.47,152.22h4.13l2.08-.13a14.72,14.72,0,0,0,2.1-.28,7.86,7.86,0,0,0,3.78-2.31,15.9,15.9,0,0,0,2.65-3.85,16,16,0,0,1-2.65,4,8.28,8.28,0,0,1-3.78,2.45,16.81,16.81,0,0,1-2.13.31l-2.1.15h-4.2l0,0s0,0,0,0a.13.13,0,0,1,0-.06.16.16,0,0,1,0-.09.13.13,0,0,1,.1,0Z"></path>
        <path class="cls-1" d="M162.57,146.67a6,6,0,0,0,2.23.12,6.69,6.69,0,0,0,2.19-.66,5.21,5.21,0,0,0,.52-.28l.49-.33.48-.37.45-.41a10.17,10.17,0,0,0,.82-.92l.73-1-.71,1.06a8.21,8.21,0,0,1-.83.94l-.44.43-.48.4c-.17.13-.33.23-.5.34a2.5,2.5,0,0,1-.53.3,6.85,6.85,0,0,1-2.24.73,6,6,0,0,1-2.32-.09l-.05,0a.08.08,0,0,1,0,0,.14.14,0,0,1,0-.06.06.06,0,0,1,0-.06s0,0,0-.05l0,0,.05,0h0Z"></path>
        <path class="cls-1" d="M166.65,141.5a12.64,12.64,0,0,0,2.11-.39,10.37,10.37,0,0,0,2-.85,10.6,10.6,0,0,1-2,1,12.22,12.22,0,0,1-2.13.51h-.06l-.05,0,0,0a.09.09,0,0,1,0,0,.06.06,0,0,1,0-.06.14.14,0,0,1,0-.06s0,0,0,0l.05,0Z"></path>
        <path class="cls-1" d="M168.4,138.5a9.45,9.45,0,0,0,1.83-.3,4.52,4.52,0,0,0,.89-.33,1.33,1.33,0,0,0,.68-.66,1.37,1.37,0,0,1-.69.71,5,5,0,0,1-.9.36,8.74,8.74,0,0,1-1.83.37v-.1Z"></path>
        <path class="cls-1" d="M151.12,155.64a10.6,10.6,0,0,0,1.88-3.4,13.65,13.65,0,0,0,.55-1.92c.15-.62.23-1.28.33-1.93a20.08,20.08,0,0,1,.82-3.75,9.32,9.32,0,0,1,1.8-3.15,9.84,9.84,0,0,0-1.65,3.18,18.54,18.54,0,0,0-.72,3.75,19.73,19.73,0,0,1-.81,3.9,10.85,10.85,0,0,1-1.89,3.55.15.15,0,0,1-.12,0,.17.17,0,0,1-.13,0l0-.05a.25.25,0,0,1,0-.14l0-.05Z"></path>
        <path class="cls-1" d="M158.65,150.49c.1-1.87,0-3.67,0-5.48v-1.29a7.28,7.28,0,0,1,.2-1.31l.66-2.44-.59,2.47a6.94,6.94,0,0,0-.27,1.28v1.33c0,1.81.15,3.61.1,5.47a.14.14,0,0,1-.15.15.34.34,0,0,1,0-.1A.16.16,0,0,1,158.65,150.49Z"></path>
        <path class="cls-1" d="M161.56,147.55a18.54,18.54,0,0,0,.55-2.43,11.9,11.9,0,0,0,.11-2.46,24.54,24.54,0,0,0-.41-2.45,6.82,6.82,0,0,1,.15-2.38,6.74,6.74,0,0,0,0,2.37c.1.81.39,1.65.46,2.42a10.71,10.71,0,0,1,0,2.53,16,16,0,0,1-.5,2.48.18.18,0,0,1-.07.08.14.14,0,0,1-.11,0,.18.18,0,0,1,0-.2Z"></path>
        <path class="cls-1" d="M165.26,143.37c-.2-1.06-.4-2.1-.58-3.12l-.3-1.49-.09-.76.13.76.34,1.52c.24,1,.48,2,.71,3.07a.07.07,0,0,1,0,.06.13.13,0,0,1,0,.06.08.08,0,0,1,0,0l-.05,0h-.06l0,0a.08.08,0,0,1,0,0s0,0,0-.05Z"></path>
        <path class="cls-1" d="M167.49,139.77a16.23,16.23,0,0,1-.36-1.65,6.35,6.35,0,0,1-.12-.86,3.1,3.1,0,0,1,0-.86,4.12,4.12,0,0,0,0,.86l.18.84c.13.55.3,1.11.48,1.65,0,0,0,.17-.08.18h-.12l0,0a.14.14,0,0,1,0-.06Z"></path>
        <path class="cls-7" d="M203,79l.11.16L203,79v61.56a3.84,3.84,0,0,0-.2.6.85.85,0,0,0,0,.17h-.15a15.82,15.82,0,0,0-3.3.28,2.32,2.32,0,0,0-.38.06l-.29.07a.28.28,0,0,0-.13,0,16.62,16.62,0,0,0-4.89,2c-3.34,2.32-9.43-.35-11.19-3.24a3.16,3.16,0,0,1-.48-1.27c-.23-1.84-.64-2.56-1-2.85l-.14-.11-.13,0a.28.28,0,0,0-.18,0s1.35,4.93-6.44,5a23.43,23.43,0,0,1-2.76-.15s-.36-.2-1-.51l0,0-1-.49c-.38-.19-.8-.38-1.25-.59l-.25-.11a3.68,3.68,0,0,0-.35-.15l-.16-.07c-2.71-1.2-6.2-2.46-8.53-2.34a1.94,1.94,0,0,0,.08-.29l0-.15a2.84,2.84,0,0,0,0-.36v0c0-.11,0-.24,0-.37a6.89,6.89,0,0,0-.85-3.38h0a.67.67,0,0,0-.06-.12,5.06,5.06,0,0,0-.26-.44h0a0,0,0,0,0,0,0,10.43,10.43,0,0,0-1.2-1.57,2.26,2.26,0,0,1-.25-.29l-.05-.05a8.93,8.93,0,0,1-1.45-2.27,1,1,0,0,1-.09-.21,2,2,0,0,1-.14-.3,10,10,0,0,1-.68-3.6,7.86,7.86,0,0,1,.22-1.81.9.9,0,0,1,0-.16c0-.13.07-.26.11-.39h0s0-.08,0-.13,0,0,0,0a8.6,8.6,0,0,1,.59-1.36,7.67,7.67,0,0,1,.7-1.08.1.1,0,0,1,0,0,.47.47,0,0,1,.09-.12,8.13,8.13,0,0,1,1.82-1.69l.07,0a4,4,0,0,1-.45,0c-1.17,0-4.41-.39-6.57-4.38a17.08,17.08,0,0,1-1.76-5.75c-.53-3.71-.9-6-1.14-7.56a19.64,19.64,0,0,1-.51-3.54c0-.48,1.34-2.32,3.11-4.46l.61-.75c2.6-3.07,5.8-6.47,7.07-7.21a9.27,9.27,0,0,1,2.42-.87l.21,0a12.55,12.55,0,0,1,4.72-.15,4.59,4.59,0,0,1,.51.1,5.91,5.91,0,0,1,.69.19l.3.1a5.23,5.23,0,0,1,.84.37l.2.1.42.25a6.25,6.25,0,0,1,2,2.16c0-.07-.06-.15-.09-.24s0,0,0,0h0a12.92,12.92,0,0,1-.95-5.26,2.29,2.29,0,0,1,0-.25,6.09,6.09,0,0,1,1.56-3.63l.33-.33a7.91,7.91,0,0,1,.63-.52l.2-.14a8.45,8.45,0,0,1,1.83-.92l.1,0h0l.63-.2h0l2.88-.82.47-.14,10.37-2.94s2.61,2,5.51,4.36a10.66,10.66,0,0,0,3,1.39l.46.16C199.4,76.13,201.69,77,203,79Z"></path>
        <path class="cls-8" d="M181.67,137.63a7.54,7.54,0,0,1,.24,1.24,1.46,1.46,0,0,0,.05.2A7.82,7.82,0,0,0,181.67,137.63Z"></path>
        <path class="cls-8" d="M174,73.61h0l-.1,0a7.31,7.31,0,0,0-1.83.92l-.2.14a7.91,7.91,0,0,0-.63.52l-.33.33a6,6,0,0,0-1.47,3.3.57.57,0,0,0,0,.13,6.06,6.06,0,0,1,1.44-3.23A7.91,7.91,0,0,1,174,73.69l.71-.23,1.08-.34-1.09.31Z"></path>
        <path class="cls-8" d="M170.42,84.94a13,13,0,0,1-1-5.61s0,0,0,0a13.32,13.32,0,0,0,.91,5.41s0,0,0,0l.11.17h0a.54.54,0,0,1,.07.13.32.32,0,0,1,0-.09A.09.09,0,0,1,170.42,84.94Z"></path>
        <path class="cls-8" d="M159,135.9l-.08,0h.46a2.45,2.45,0,0,0,0-.27l-.25.14Z"></path>
        <path class="cls-8" d="M157.15,116.45a7.54,7.54,0,0,0-1.52,1.57l-.12.16a7.67,7.67,0,0,0-.82,1.52,8.35,8.35,0,0,1,.94-1.4.1.1,0,0,1,0,0l.1-.12a9.36,9.36,0,0,1,1.86-1.69h-.48Z"></path>
        <path class="cls-8" d="M202.91,140.68l-.52.39a2.72,2.72,0,0,1,.11-.38,19.31,19.31,0,0,0-3.31.4l-.17,0-.19,0h0a18.46,18.46,0,0,0-2.71.84,16.35,16.35,0,0,0-1.65.75c-.5.28-1,.64-1.44.9a5.88,5.88,0,0,1-3.22.62,11,11,0,0,1-6.13-2.6,4.6,4.6,0,0,1-1.65-2.39,4.11,4.11,0,0,0,.42,1.19,4.6,4.6,0,0,0,1.18,1.45,11.56,11.56,0,0,0,6.18,2.74,6,6,0,0,0,3.4-.51c.55-.26,1-.59,1.49-.84a11,11,0,0,1,1.54-.66,17.07,17.07,0,0,1,2.1-.55l.21,0a1.91,1.91,0,0,1,.33-.06l.51-.08a16.88,16.88,0,0,1,2.66-.14c.27,0,.53,0,.79,0H203v-2.21a3.87,3.87,0,0,0-.5,1.07Z"></path>
        <path class="cls-8" d="M199.59,76.33c-.73-.35-1.48-.63-2.23-.92l-.46-.16-.37-.14a8,8,0,0,1-2.76-1.52c-1.67-1.42-3.43-2.81-5.09-4.18l-.19-.15h-.24c-2.36.78-4.72,1.51-7.11,2.25q-1.56.48-3.12.93l-.47.14-1.78.54c1.8-.49,3.62-1,5.43-1.41,2.3-.57,4.61-1.17,6.93-1.71l-.11-.08h.43l-.32.08c1.72,1.27,3.49,2.56,5.11,3.87a6,6,0,0,0,1.46.93c.51.23,1,.41,1.55.59,1,.37,2.08.68,3.07,1.11A8.65,8.65,0,0,1,202,78.15a5.39,5.39,0,0,1,1,1.16V79a5.81,5.81,0,0,0-.65-.76A9.42,9.42,0,0,0,199.59,76.33Z"></path>
        <path class="cls-8" d="M181.56,137.25v0a3.15,3.15,0,0,0-.37-.76.89.89,0,0,0-.27-.31.73.73,0,0,0-.4-.13,3.53,3.53,0,0,1-.65,2.87,4.49,4.49,0,0,1-2.52,1.45,11.06,11.06,0,0,1-3,.25h-.29a22.17,22.17,0,0,1-2.7-.22h.18c-.48-.26-1-.52-1.44-.76s-1.13-.57-1.7-.83l-.21-.1c-.32-.15-.65-.3-1-.43l-.08,0c-.57-.25-1.14-.48-1.72-.71a27.85,27.85,0,0,0-3.31-1.09,10.63,10.63,0,0,0-2.79-.45,6.35,6.35,0,0,1-.13.76l-.28-.38,0,0-.2-.26v0l-.05-.07h.69a2.45,2.45,0,0,0,0-.27,6,6,0,0,0,0-.85v0a7.9,7.9,0,0,0-.15-1.19,7.07,7.07,0,0,0-.31-1,.88.88,0,0,0,0-.15,6.84,6.84,0,0,0-.92-1.65,12,12,0,0,0-.94-1.19c-.1-.1-.19-.21-.29-.32l0,0c-.2-.23-.39-.46-.58-.71a9.88,9.88,0,0,1-.68-1.05,2.28,2.28,0,0,1-.17-.3c-.07-.11-.12-.23-.18-.34s-.21-.46-.31-.69a8.72,8.72,0,0,1-.57-4.73.43.43,0,0,1,0-.11c0-.14.05-.27.08-.41l0-.14s0,0,0,0a7.47,7.47,0,0,1,.35-1,11.16,11.16,0,0,0-.54,1.16.14.14,0,0,1,0,.06s0,0,0,0-.07.21-.09.31-.07.22-.1.33a9,9,0,0,0,.2,5.16.49.49,0,0,0,0,.11,1.17,1.17,0,0,0,.09.24.47.47,0,0,0,.06.15,9.37,9.37,0,0,0,1.16,2.16c.15.2.29.4.45.59a.27.27,0,0,0,.07.08c.13.17.27.33.41.49a9.4,9.4,0,0,1,.69.87l.08.1.07.1a.08.08,0,0,1,0,0s0,0,0,0a7.67,7.67,0,0,1,1,2.37,5.15,5.15,0,0,1,.07,2.14,2.41,2.41,0,0,1-.07.37l-.09.28-.16.52h.81a11.8,11.8,0,0,1,3.12.43c.8.2,1.59.44,2.37.71h0l.75.27c.79.3,1.58.62,2.35,1,0,0,0,0,.05,0l.13,0,.15.07c.28.12.56.24.84.38s.7.32,1,.48l.06,0c.47.22.94.46,1.41.7h.18a15.1,15.1,0,0,0,2.77.08,15.29,15.29,0,0,0,3.42-.64,5,5,0,0,0,2.51-1.82,3.66,3.66,0,0,0,.57-1.42,3.71,3.71,0,0,0,0-1.52h.13l.13,0a1.43,1.43,0,0,1,.42.39,3.55,3.55,0,0,1,.28.63h0a.56.56,0,0,1,0,.12.74.74,0,0,0,0-.14Z"></path>
        <path class="cls-8" d="M170.3,84.78l.11.17h0a.54.54,0,0,1,.07.13.32.32,0,0,1,0-.09.09.09,0,0,1,0-.06,13,13,0,0,1-1-5.61.88.88,0,0,1,0-.23.45.45,0,0,1,0-.11.3.3,0,0,0,0,.13.06.06,0,0,0,0,0c0,.06,0,.13,0,.19a13.32,13.32,0,0,0,.91,5.41S170.3,84.77,170.3,84.78Z"></path>
        <path class="cls-8" d="M157.15,116.45s0,0,0,0l.33-.25a7.12,7.12,0,0,1-6.13-3.1c-.22-.34-.43-.7-.62-1.06a15.06,15.06,0,0,1-1.74-5.55c-.3-2.38-.56-4.76-.94-7.14l-.16-1.08-.37-2.47a2.67,2.67,0,0,1,0-.4V95a3.4,3.4,0,0,1,.38-.67c.31-.5.66-1,1-1.46s.89-1.17,1.36-1.74c.13-.18.26-.35.41-.52.89-1.11,1.81-2.2,2.8-3.27A34,34,0,0,1,156,84.76a9.16,9.16,0,0,1,2.69-2.18,12.37,12.37,0,0,1,1.78-.59l.21,0a12.13,12.13,0,0,1,4.69-.18l.22,0,.29,0a5.2,5.2,0,0,1,.68.17,1.6,1.6,0,0,1,.31.1,5.64,5.64,0,0,1,.85.35l.2.1.42.25a5,5,0,0,1,.56.38,6.65,6.65,0,0,1,1.38,1.52h0a6.29,6.29,0,0,0-1.17-1.36A7.4,7.4,0,0,0,166.92,82l-.29-.11q-.37-.12-.75-.21l-.09,0-.41-.08a11,11,0,0,0-3.24-.12,10.1,10.1,0,0,0-1.53.23.78.78,0,0,0-.21,0,11.64,11.64,0,0,0-1.83.54,5.25,5.25,0,0,0-1.65,1c-.46.4-.91.81-1.34,1.24-.84.85-1.68,1.72-2.49,2.61-.67.74-1.32,1.48-2,2.24l-.78.92c-.65.79-1.29,1.58-1.91,2.39-.37.48-.73,1-1.08,1.49a4.42,4.42,0,0,0-.46.89v.56a2.09,2.09,0,0,0,0,.5l.55,3.25.05.32,1.2,7.1a15.07,15.07,0,0,0,1.83,5.25,14.82,14.82,0,0,0,.86,1.36,7.31,7.31,0,0,0,5.77,3Z"></path>
        <path class="cls-9" d="M203,96.42v38.52a6.26,6.26,0,0,1-2.67.66c-.22,0-.44,0-.65,0-2.14,0-4.32-.7-5.94-.51-2.88.33-5.92.88-8.54-1.47l-.09-.13-1.85-2.64-.27-.39-.35-.5-1.59-2.28a1.91,1.91,0,0,1-.1.21c-.48,1-2.79,5.13-7.48,5.16a5.08,5.08,0,0,1-.67,0,7.22,7.22,0,0,1-1-.13l-.23,0-1-.23-.82-.2-.34-.08a26.1,26.1,0,0,1-4.36-1.46l-.56-.23a2.69,2.69,0,0,0-1.15-.23,8.88,8.88,0,0,0-1.08-3.21,4.53,4.53,0,0,0-.3-.46,2.63,2.63,0,0,0-.28-.4,8.16,8.16,0,0,0-1.64-1.68,4.3,4.3,0,0,1-.87-1,3.29,3.29,0,0,1-.4-.85,3.45,3.45,0,0,1-.12-.46,4.4,4.4,0,0,1-.08-.89,7,7,0,0,1,1.83-4.26s0,0,0,0a4.83,4.83,0,0,1,.8-.74c1.34-1-.42-3.5-2.15-5.22a12.89,12.89,0,0,0-1.16-1c-1.9-1.49-3.8-4.38-1.65-5.42a4.26,4.26,0,0,0,.54-.41,3.39,3.39,0,0,0,.45-.4c.09-.08.16-.16.24-.24a6.17,6.17,0,0,0,.81-1.09,6.54,6.54,0,0,0,.9-2.82,3.41,3.41,0,0,1,0-.54,9.44,9.44,0,0,1,1.18-3.32l.2-.31h0A5.43,5.43,0,0,1,164,93.2l.11,0,.07,0a4.28,4.28,0,0,0,.54-.12c.63-.14,1.2-.31,1.72-.47.24-.06.46-.13.67-.2a11.88,11.88,0,0,1,1.57-.41c1.21-.23,2.07,0,2.88,1.55a1.46,1.46,0,0,0,.92,0l.19-.06c1.13-.43,2.73-2.36,2.79-9.89a7.51,7.51,0,0,1,.94-4.2c1.88-2.78,6.24-.12,9.25,1.22.29.13.56.25.82.34.94.37,1.68.48,2,.08.87-1,8.07-4.76,9.71,4.34s1.93,6.31.56,8.95c0,0-1.33,1.64.37,2.1a1.91,1.91,0,0,0,.36.07,7.56,7.56,0,0,0,2.05,0A7.31,7.31,0,0,1,203,96.42Z"></path>
        <path class="cls-7" d="M203,103.19v11.68a19.78,19.78,0,0,1-4.7-.89,6.93,6.93,0,0,0-1.29-.25h0a3.86,3.86,0,0,0-1.4.12,2.89,2.89,0,0,0-.44.18,2.79,2.79,0,0,0-.57.37,3.37,3.37,0,0,0-.84,1.21,5.12,5.12,0,0,0-.31.91,11.7,11.7,0,0,0-.21,3.5,25.46,25.46,0,0,0,.48,3.35c0-.06-.06-.19-.12-.4a4.59,4.59,0,0,0-1.52-2.11c-1.4-1.16-3.28-1.82-4-1.48-.27.14-.36.42-.18.87a2.31,2.31,0,0,0,.22.45c1.61,2.68-1.12,11.2-3,12.79a1,1,0,0,1-.57.25c-.61,0-1.06-1-1.38-2.42-.06-.27-.11-.56-.17-.86-.08-.51-.16-1.06-.22-1.63h0a57.61,57.61,0,0,1-.3-7.34c.05-1.42-1.51-2.63-3.6-3.6-.54-.24-1.11-.48-1.7-.69s-1-.34-1.46-.49c-1-.29-1.91-.54-2.8-.74l-.65-.14c-.7-.15-1.35-.26-1.89-.34h-.09l-.57-.08c-2.59-.4-2.27-.66-2.8-2.3a1.82,1.82,0,0,0-.11-.33,5.71,5.71,0,0,0-.22-.6,3.88,3.88,0,0,0-1.41-1.68,5.52,5.52,0,0,0-.77-.48c-1.42-.77-3-1.24-3.7-2.38a10,10,0,0,1-1.42-3.13,4.74,4.74,0,0,1-.16-.65.07.07,0,0,1,0,0,9,9,0,0,1-.19-1.72,7.05,7.05,0,0,1,1.46-2.53c.27-.35.58-.71.9-1.06s.81-.84,1.24-1.24l.37-.32A12.79,12.79,0,0,1,164,96c.24-.16.49-.32.73-.45a5.53,5.53,0,0,1,1.2-.51c1.65-.45,3.81-.1,5.75.06l.2,0a9,9,0,0,0,2.74-.09,4.27,4.27,0,0,0,.54-.18,3.07,3.07,0,0,0,.31-.17,6.9,6.9,0,0,0,1.64-1.88l.06-.09.52-.77s0,0,0,0c1.46-2.24,3.16-4.85,5.47-4.52A3.33,3.33,0,0,1,185.29,89a10.49,10.49,0,0,1,1.13,2c.2.45.38.93.55,1.4a31.59,31.59,0,0,1,1.42,5.84,2,2,0,0,0,1.53,1.29,3.05,3.05,0,0,0,.54.14,8.85,8.85,0,0,0,2.9.06,5.06,5.06,0,0,0,.52-.08,4.79,4.79,0,0,0,.6-.11,15.7,15.7,0,0,0,2.33-.67c.39-.14.73-.29,1-.42a7.42,7.42,0,0,0,.92-.51c1.9-1.18.91-1.9,1.74-.72C201.11,98.16,201.84,100.84,203,103.19Z"></path>
        <path class="cls-8" d="M183.43,113.68s-9.91,8.69-11.43,11.91-1.65,6.61-5.09,2.84c0,0-5.53,0-2.69-7a33.35,33.35,0,0,1,1.85-4.3c.81-1.35-1.93-5.45-2.51-5.65a10.3,10.3,0,0,0,4.52,1.9c2.88.65,5.5-4,7.45-4.74a23.76,23.76,0,0,0,3-1.29s-4.63.45-6.23-2.13a64.33,64.33,0,0,0-4.21-5.76c-.73-1,10.47,5.07,11.43,5.33s-7.39-8.7.13-12.06c0,0,4.58,3.31,4.84,5s.68,3.78.68,3.78,3.3-.15,2-3.53-2.08-4.36-1.06-6.31A33.31,33.31,0,0,1,188.37,88s.54,8.26.73,8.63,2.14-1.18,3.15-3.13,3.77-5.61,4.2-1.65-1.66,6.3-2.22,8.56.73,4.41,3.14,2.16c0,0,2.48,4.18-.18,7.25s-5.75,5.7-8.76,4.4c0,0,.65,8.36-3.81,12,0,0,2.74-10.57,1.45-11.86a2.18,2.18,0,0,0-1.2-.79A2.23,2.23,0,0,0,183.43,113.68Z"></path>
        <path class="cls-10" d="M182.62,112s-1.65.88,4.1.6,8.8-1.21,9.41-3.83.17-2-1.45-2.66-3.67-2.76-5.12-3a7.12,7.12,0,0,0-3.47.61,7.33,7.33,0,0,0-2.78,2.18,5.67,5.67,0,0,0-.69,6.06Z"></path>
        <path class="cls-10" d="M198.31,107.49c1.57-.19,3.13-.42,4.69-.68v1.48a28.27,28.27,0,0,1-5,.21,14.64,14.64,0,0,1-1.6-.19l-.16,0-.28-.06c-1.5-.29-2.39-.49-2.85-.62-.71-.19-.44-.22.17-.19l.4,0h.06l1.25.09h.08a11.15,11.15,0,0,0,1.29.07,14.15,14.15,0,0,0,1.72-.08Z"></path>
        <path class="cls-10" d="M186.57,101.84a16.7,16.7,0,0,0-.23-2.74,62.7,62.7,0,0,1-1.08-12.38,89.94,89.94,0,0,1,1.28-12.47v3.16c0,1.93-.12,4.57,0,7.41,0,5.69,1.09,12,.74,15.71C186.63,105.9,186.57,103.61,186.57,101.84Z"></path>
        <path class="cls-10" d="M183.26,106a18.13,18.13,0,0,0-3.3-1.22l-30.53-8.09s24.39,3,32.65,7.93C188,108.12,185.3,106.93,183.26,106Z"></path>
        <path class="cls-10" d="M181.15,113.32a16.54,16.54,0,0,0-2.16,1.93c-3,3.19-6.07,6.3-9,9.53A76.53,76.53,0,0,0,162.17,135l.38-.78c.25-.51.59-1.24,1.07-2.11a55.64,55.64,0,0,1,4.22-6.61,67.09,67.09,0,0,1,6-7,34,34,0,0,1,5.82-5C184.52,110.68,182.62,112.18,181.15,113.32Z"></path>
        <path class="cls-10" d="M190.38,113.88a9.62,9.62,0,0,0,1,2.81c1,2,2.21,3.8,3.3,5.65a45.14,45.14,0,0,1,3.09,5.78c1.77,4.08,2.77,8.38,4.18,12.42,0,0-.56-1.1-1.37-2.95s-1.84-4.43-3.08-7.14a76.37,76.37,0,0,0-4.34-7.88A20.22,20.22,0,0,1,190,115.4c-.38-3,0-3.83,0-3.7S190.2,112.94,190.38,113.88Z"></path>
        <path class="cls-10" d="M185.08,116a12.62,12.62,0,0,0-.23,2.13,72.53,72.53,0,0,1-3.3,19.22l.41-2.44c.23-1.5.53-3.55.79-5.77a105.5,105.5,0,0,1,1.65-12.24C185.64,112.81,185.36,114.57,185.08,116Z"></path>
        <path class="cls-10" d="M180.13,109.22a11.92,11.92,0,0,0-2.07,0q-9.24,1.09-18.58,1.65s3.57-.69,7.78-1.33a47.65,47.65,0,0,1,11.92-.8C183.23,109.37,181.5,109.31,180.13,109.22Z"></path>
        <path class="cls-10" d="M185.33,103.46c-.26-.38-.51-.76-.79-1.14-.63-.86-1.19-1.8-1.82-2.68s-1.26-1.75-1.92-2.61a56.73,56.73,0,0,0-4.26-4.79,35.23,35.23,0,0,1,4.07,3.65,27.94,27.94,0,0,1,2.82,3.6,25.62,25.62,0,0,1,1.77,3.31c.54,1.2.86,1.47.76,1.47A3.53,3.53,0,0,1,185.33,103.46Z"></path>
        <path class="cls-10" d="M193,105.85c.27-.38.53-.74.8-1.15l7-10.91s-1.07,2.3-2.51,5a30.08,30.08,0,0,1-4.69,6.82c-.92.93-1,1.32-1.07,1.24A2.62,2.62,0,0,1,193,105.85Z"></path>
        <path class="cls-10" d="M191.18,111.44a8.7,8.7,0,0,0,.91.69l4.39,2.71a15.92,15.92,0,0,1,4.18,3.3,9.08,9.08,0,0,0-1.06-.89,20.85,20.85,0,0,0-2.67-1.55,23.26,23.26,0,0,1-5.51-3.68C189.9,110.3,190.63,110.94,191.18,111.44Z"></path>
        <path class="cls-10" d="M203,112v.43a56.94,56.94,0,0,1-7-1.17l-.1,0h-.07L195,111l-.36-.11a9.87,9.87,0,0,1-1.15-.45,2.53,2.53,0,0,1-.33-.16l-.2-.1c-2.25-1.12-1.22-.78-.32-.42.28.1.56.2.84.27a5.36,5.36,0,0,0,.54.14l.15,0,1.06.22,1.21.25.32.06Z"></path>
        <path class="cls-10" d="M194.22,107a7,7,0,0,0,.71-.62,72.33,72.33,0,0,1,6.26-5.87l-2.48,2.66a25.68,25.68,0,0,1-4,3.72C193.09,107.84,193.72,107.37,194.22,107Z"></path>
        <path class="cls-10" d="M187.41,105.5a5,5,0,0,0,.66-1.09,44.22,44.22,0,0,0,3.3-10.72,26.08,26.08,0,0,1-.62,4.73,16.82,16.82,0,0,1-2.84,6.75C186.29,107,186.91,106.15,187.41,105.5Z"></path>
        <path class="cls-10" d="M189.28,106.84a6.9,6.9,0,0,0,.82-1,37,37,0,0,0,4.74-10.29,23.41,23.41,0,0,1-1.14,4.67,15.93,15.93,0,0,1-3.81,6.36C187.91,108.18,188.68,107.37,189.28,106.84Z"></path>
        <path class="cls-10" d="M184,107.49a16,16,0,0,0-3-.73q-13.64-1.91-27.33-2.61a111.43,111.43,0,0,1,11.56-.36c6.31.1,13.66.87,17.51,2.62C188.39,108.92,185.86,108.15,184,107.49Z"></path>
        <path class="cls-10" d="M182.67,109.85a9.56,9.56,0,0,0-1.85.33,34.42,34.42,0,0,0-14.06,8.41l.35-.44c.21-.27.54-.67,1-1.14a26,26,0,0,1,3.64-3.31,23,23,0,0,1,5.1-3,13,13,0,0,1,4.86-1.14C185.45,109.67,183.86,109.82,182.67,109.85Z"></path>
        <path class="cls-10" d="M185.61,105.41a9,9,0,0,0-1.14-1.52A73.71,73.71,0,0,0,171.68,93a43.09,43.09,0,0,1,6.13,3.65,26,26,0,0,1,7.67,7.81C187.06,107.8,186.2,106.45,185.61,105.41Z"></path>
        <path class="cls-10" d="M201,116.38c.65.44,1.31.85,2,1.23v.65c-.43-.19-.86-.4-1.28-.63a45.16,45.16,0,0,1-5-3c-.39-.26-.78-.53-1.16-.81s-1-.71-1.42-1.08l-.2-.17-.9-.77-.17-.16-.4-.39-.61-.57h0c-.3-.3-.39-.39-.32-.4a4.82,4.82,0,0,1,.5.27,6.75,6.75,0,0,1,.65.44l.69.49c.19.13.37.25.57.36l.23.14.52.31c.77.44,1.53.92,2.28,1.42h0C198.35,114.6,199.67,115.52,201,116.38Z"></path>
        <path class="cls-10" d="M203,124.53v.35a46,46,0,0,1-4.12-2.94,25.65,25.65,0,0,1-5.44-5.42,24.78,24.78,0,0,1-1.57-2.36l-.36-.63c-.25-.6-.43-1-.56-1.39-.55-1.46-.14-.83.27,0l.21.39a8.48,8.48,0,0,0,.91,1.46l.16.2c.41.49.82,1,1.25,1.46A76.44,76.44,0,0,0,203,124.53Z"></path>
        <path class="cls-35" d="M192.32,112.41s-1.39-.41-.66-1.45a1.26,1.26,0,0,1,.63-.51,1.27,1.27,0,0,1,1.46.47,1.27,1.27,0,0,1,.22.78c0,1.41.15,2.45-.63,1.84S192.91,112.45,192.32,112.41Z"></path>
        <path class="cls-35" d="M194.88,111.05s-1.34.53-1.42-.72a1.24,1.24,0,0,1,.17-.8,1.28,1.28,0,0,1,1.45-.55,1.34,1.34,0,0,1,.66.49c.9,1.07,1.65,1.82.64,1.83S195.37,110.67,194.88,111.05Z"></path>
        <path class="cls-35" d="M194.48,109.17s-1.19.81-1.54-.43a1.28,1.28,0,0,1,0-.82,1.2,1.2,0,0,1,.51-.64,1.21,1.21,0,0,1,1.54.18c1.11.85,2,1.45,1,1.65S195,108.74,194.48,109.17Z"></path>
        <path class="cls-12" d="M188.38,107.46a14.61,14.61,0,0,0,2.53.54,19.26,19.26,0,0,0,2.63.18.21.21,0,0,1,.2.2.15.15,0,0,1,0,.07.16.16,0,0,1,0,.07l-.06,0-.08,0a20.12,20.12,0,0,1-2.69,0,16.32,16.32,0,0,1-2.69-.4.31.31,0,0,1-.13-.06.36.36,0,0,1-.1-.11.28.28,0,0,1,0-.13.22.22,0,0,1,0-.14.21.21,0,0,1,.05-.13.47.47,0,0,1,.1-.1l.13-.05h.19Z"></path>
        <path class="cls-12" d="M188.52,107.84a13,13,0,0,0,2.62,1.35A16.18,16.18,0,0,0,194,110l.06,0,0,0a.14.14,0,0,1,0,.07.06.06,0,0,1,0,.06.14.14,0,0,1,0,.06.1.1,0,0,1,0,.05l-.06,0H194a16.25,16.25,0,0,1-3-.62,13.45,13.45,0,0,1-2.86-1.24.45.45,0,0,1-.16-.24.4.4,0,0,1,.05-.28.28.28,0,0,1,.09-.1.38.38,0,0,1,.13-.06h.14a.19.19,0,0,1,.13,0Z"></path>
        <path class="cls-12" d="M188.38,107.54a46.93,46.93,0,0,0,4.09,3.63l0,0a.07.07,0,0,1,0,0,.13.13,0,0,1,0,.06l0,0a.17.17,0,0,1-.1,0,.16.16,0,0,1-.09,0,50.75,50.75,0,0,1-4.42-3.3.35.35,0,0,1-.14-.25.36.36,0,0,1,.08-.27.35.35,0,0,1,.25-.14.39.39,0,0,1,.27.08Z"></path>
      </g>
    </g>
  </g>
</svg>
