<?xml version="1.0" encoding="UTF-8"?>
<svg xmlns="http://www.w3.org/2000/svg" viewBox="0 0 182.27 138">
  <defs>
    <style>
      .cls-1 {
        fill: #eced8a;
      }

      .cls-2 {
        fill: #676c6e;
      }

      .cls-3 {
        fill: #92bf3a;
      }

      .cls-4 {
        fill: #fff;
      }

      .cls-5 {
        fill: #a22b23;
      }

      .cls-6 {
        fill: #939191;
      }

      .cls-7 {
        fill: #6f3e35;
      }

      .cls-8 {
        fill: #cbc255;
      }

      .cls-9 {
        fill: #cacac9;
      }

      .cls-10 {
        fill: #7fb943;
      }

      .cls-11 {
        fill: #486f3a;
      }

      .cls-12 {
        fill: #6d9633;
      }

      .cls-13 {
        fill: #bcd746;
      }

      .cls-14 {
        fill: #ac5d49;
      }

      .cls-15 {
        fill: #858664;
      }
    </style>
  </defs>
  <g id="Слой_2" data-name="Слой 2">
    <g id="Слой_1-2" data-name="Слой 1">
      <g>
        <path class="cls-1" d="M34.27,68.07a6.68,6.68,0,0,1,5-.55A6.86,6.86,0,0,1,42,79a11.86,11.86,0,0,1-4.62,3.93,11.73,11.73,0,0,1-6,1.12,12.82,12.82,0,0,1-7-15.29,13.16,13.16,0,0,1,5.84-2.22,6.58,6.58,0,0,1,4.13,1.3Z"></path>
        <path class="cls-2" d="M33.41,77l-.43.62-.12-.74.43-.68Z"></path>
        <path class="cls-3" d="M33.84,66.47a10.52,10.52,0,0,1,11.94.62s-6.15-2-8.18-.5a11,11,0,0,1,7.69,7S37.84,67.4,36,68.69c0,0-2.77.68-2,8.2,0,0-2-1.48-1.48-8.32,0,0-5.41,2.28-6.15,6.16a10.34,10.34,0,0,1,4.18-7.58A6.73,6.73,0,0,0,24,71.1s0-7,6.15-6.17c0,0,2.22,2.4,3.69,1.73Z"></path>
        <path class="cls-2" d="M41.6,76.58l-.62.5.12-.74.62-.5Z"></path>
        <path class="cls-2" d="M37.54,77.26l-.62.49L37,77l.56-.49Z"></path>
        <path class="cls-2" d="M29.85,76.09l-.37.68L29.29,76l.37-.68Z"></path>
        <path class="cls-2" d="M26.21,73.62l-.3.74-.19-.74L26,73Z"></path>
        <path class="cls-4" d="M38.21,79.48l-.67.37.24-.74.68-.37Z"></path>
        <path class="cls-2" d="M34.46,80.34l-.61.5L34,80l.55-.5Z"></path>
        <path class="cls-2" d="M31.63,80l-.37.68-.19-.74.31-.68Z"></path>
        <path class="cls-2" d="M28.06,78.06l-.31.74v-.74c0-.43,0-.74.31-.74Z"></path>
        <path class="cls-5" d="M18.21,68.63s6.83,6.16,6.16,9.43-.56,6.48-9.91,10.11S0,78.25,0,75.16a9.43,9.43,0,0,1,10.28-8.88c7.13,0,6.15.5,6.15.5l2.22,1.85Z"></path>
        <path class="cls-6" d="M8.43,66.41H15.2l-.55-.31a13,13,0,0,0-2,0,19.66,19.66,0,0,0-4.19.49ZM20.8,71.34a15.06,15.06,0,0,0-4-3.88l1.6,1.35A28.7,28.7,0,0,1,20.8,71.34Z"></path>
        <path class="cls-7" d="M3.63,68.57a29.48,29.48,0,0,1,4.12-1.11,37.34,37.34,0,0,0,4.06-1.24H8.18a12.73,12.73,0,0,0-4.55,2.16Zm10,4.13a10.07,10.07,0,0,0,2-3.64,6.08,6.08,0,0,0,0-2.65H12.06a13.34,13.34,0,0,0-4.8,4.31,19.07,19.07,0,0,1,3.14-1.78c.8-.37,2.83-2.22,3.38-2.22a9.26,9.26,0,0,1-.37,1.91,24.49,24.49,0,0,0,.37,4.44Zm6.71,1.54a30.61,30.61,0,0,0-1.85-5l1.11,1c1,1.11,3.08,3.39,3.14,3.39A9.87,9.87,0,0,0,21,71a26,26,0,0,0-2.4-2.53L17,67.15l-1-.62a16,16,0,0,1,1.91,3.64c.61,1.48,1.9,2.28,2.52,4.13Z"></path>
        <path class="cls-8" d="M8.68,78.06v.8s.37,0,.49-.61,0-.8,0-.8-.37,0-.43.61Z"></path>
        <path class="cls-8" d="M10.34,73.62v.8c0,.07.37,0,.49-.67s0-.74,0-.81-.37,0-.43.68Z"></path>
        <path class="cls-8" d="M5.05,76.71v.86c0,.06.36,0,.43-.68a2.14,2.14,0,0,0,0-.8s-.37,0-.5.62Z"></path>
        <path class="cls-8" d="M6.28,72.27v.86c0,.06.37-.31.49-.68a1.59,1.59,0,0,0,0-.8S6.4,71.65,6.28,72.27Z"></path>
        <path class="cls-8" d="M6.58,79.48v.8c0,.06.43,0,.5-.68a2.38,2.38,0,0,0,0-.8C7.08,78.74,6.71,78.8,6.58,79.48Z"></path>
        <path class="cls-8" d="M7.45,75.23V76s.37,0,.49-.62a1.6,1.6,0,0,0,0-.86C7.94,74.49,7.57,74.55,7.45,75.23Z"></path>
        <path class="cls-8" d="M10.65,80.41v.86c0,.06.36-.31.49-.68a1.59,1.59,0,0,0,0-.8S10.77,79.79,10.65,80.41Z"></path>
        <path class="cls-8" d="M11.69,76.4v.8s.37,0,.49-.62a1.5,1.5,0,0,0,0-.86C12.18,75.66,11.81,75.72,11.69,76.4Z"></path>
        <path class="cls-8" d="M13.17,79.11V80c0,.07.37,0,.49-.67s0-.81,0-.81S13.29,78.49,13.17,79.11Z"></path>
        <path class="cls-8" d="M15,74.67v.8s.37,0,.5-.61a1.65,1.65,0,0,0,0-.87C15.51,73.93,15.08,74,15,74.67Z"></path>
        <path class="cls-8" d="M14,81.7v.8s.37,0,.49-.61a1.65,1.65,0,0,0,0-.87C14.46,81,14.09,81,14,81.7Z"></path>
        <path class="cls-8" d="M16.31,79.79v.86c0,.06.37,0,.49-.68s0-.8,0-.8S16.43,79.17,16.31,79.79Z"></path>
        <path class="cls-8" d="M18.65,76l-.13.8.62-.5.12-.8Z"></path>
        <path class="cls-8" d="M17.72,82.19l-.31.74.74-.37.31-.8Z"></path>
        <path class="cls-8" d="M18.89,79.42l-.31.8.74-.37.31-.8Z"></path>
        <path class="cls-8" d="M22.09,76.83l-.31.8.74-.37.25-.8Z"></path>
        <path class="cls-8" d="M2.71,78.31c0,.43,0,.74.43.74s0-.43,0-.8,0-.74-.43-.74S2.71,77.88,2.71,78.31Z"></path>
        <path class="cls-8" d="M3.51,74.24c0,.43,0,.8.37.74s0-.37,0-.74,0-.8-.31-.74,0,.37,0,.74Z"></path>
        <path class="cls-8" d="M.92,75.29c0,.43,0,.74.43.74a1,1,0,0,0,.1-.4.91.91,0,0,0-.1-.4c0-.44,0-.74-.43-.74S.92,74.86.92,75.29Z"></path>
        <path class="cls-8" d="M2.83,70.72l-.06.81L3.38,71v-.8Z"></path>
        <path class="cls-8" d="M19.94,82.38l-.31.8.74-.37.31-.8Z"></path>
        <path class="cls-8" d="M21.91,80.41l-.25.8.68-.37.31-.81Z"></path>
        <path class="cls-3" d="M14.83,65.61a20.42,20.42,0,0,0-10.71,2l4-.55A38.85,38.85,0,0,0,12,66.35a8.13,8.13,0,0,0-4.49,3.76,21.75,21.75,0,0,1,3.07-1.85c.87,0,3-2,3.33-1.73s0-.86,0,1.48a33.62,33.62,0,0,0,0,5.31,16.34,16.34,0,0,0,2.27-4.51,2.8,2.8,0,0,0,0-1.85A18,18,0,0,1,18,69.86,14.23,14.23,0,0,1,20.55,74a31.77,31.77,0,0,0-1.84-5l1.1,1,3.08,3.34a18.39,18.39,0,0,0-8-7.71Z"></path>
        <path class="cls-9" d="M4.37,71.77c0,.31.74-.86,1.35-1.35S7.08,69.31,6.89,69,5.6,69,5,69.61a2.28,2.28,0,0,0-.61,2.16Z"></path>
        <path class="cls-10" d="M181,97.57v17.26a26.18,26.18,0,0,1-6.24,1,27.3,27.3,0,0,1-2.86,0l-.89,0-.27-.87-.15-.48-.44-1.43L173.41,103Z"></path>
        <path class="cls-11" d="M176.73,108.89c-.74,2.28-1.17,4.63-2,6.91a11,11,0,0,0,1.35-3.33A22.71,22.71,0,0,0,176.73,108.89Z"></path>
        <path class="cls-11" d="M181,113.38v.2c-.24.46-.49.91-.76,1.36C180.5,114.42,180.76,113.9,181,113.38Z"></path>
        <path class="cls-11" d="M170.69,115.28c.1.2.21.39.32.58l-.25.62A2.51,2.51,0,0,1,170.69,115.28Z"></path>
        <path class="cls-11" d="M181,84v19.2c-.37.62-3.27,5.52-3,6.9s-1.23-3-1.05-3.58-3.94,3.47-5.58,6.85a6.72,6.72,0,0,0-.59,1.65,1,1,0,0,0-.05.29c-.08-.14-.16-.28-.23-.42A26.45,26.45,0,0,1,171,89.35s.43,2.28.67,3.82c.22,1.38,4.26-6,5.08-8.22a1.82,1.82,0,0,0,.15-.53c.06.17.13.34.18.51a12.22,12.22,0,0,1,.62,3.74A29.37,29.37,0,0,0,181,84Z"></path>
        <path class="cls-3" d="M169.22,120.3s.43,1.6-2.46,2.84a32.82,32.82,0,0,1-13.66,1.6,15.26,15.26,0,0,1,1.6-2.22,27.14,27.14,0,0,1-10.28-3.33,16.87,16.87,0,0,1,2.46-1.36s-6.15-3.26-7.69-4.19l2.89-1.29s-2.4-4.75-3.69-4.94c0,0,1.72-1.85,2.28-1.54s-1.17-3.88-1.6-3.88l2.21-.87-1.72-2c-.31,0,4.31-1.48,4.74-1s-.49-2.4-.49-2.4a13.56,13.56,0,0,1,6.15,2,14.54,14.54,0,0,0,.8-3.51c0-.68,5.54,3.88,6.15,6.16a2.88,2.88,0,0,0,1.91-3,12.86,12.86,0,0,1,3.32,7.77l1.6-1.42a13.78,13.78,0,0,1,1,5.3s1.29,0,1.29-1A35,35,0,0,1,169.22,120.3Z"></path>
        <path class="cls-11" d="M166.76,123.2a90.14,90.14,0,0,0-8.92-12.33,42.59,42.59,0,0,0-5.48-5.18,15.59,15.59,0,0,0-6.64-3.4,17.2,17.2,0,0,1,6.46,3.58,48.15,48.15,0,0,1,5.35,5.24,123.25,123.25,0,0,1,9.23,11.9Z"></path>
        <path class="cls-11" d="M163.56,118.2a13.05,13.05,0,0,0,1.05-5.85,12.68,12.68,0,0,1-1.73,5.48Z"></path>
        <path class="cls-11" d="M148.79,119.68a44.83,44.83,0,0,0,14.59-1.29v-.74a44.68,44.68,0,0,1-14.34,2Z"></path>
        <path class="cls-11" d="M159.07,112.53a17.08,17.08,0,0,0,1.66-6.66,16.55,16.55,0,0,1-2.34,6.17Z"></path>
        <path class="cls-11" d="M147.13,114.94A22.75,22.75,0,0,0,159,112.72l-.43-.74A21.58,21.58,0,0,1,147.13,114.94Z"></path>
        <path class="cls-11" d="M154.33,107.35a32,32,0,0,0-1.6-8.45,31.25,31.25,0,0,1,.86,8.45Z"></path>
        <path class="cls-11" d="M142.27,108A49.69,49.69,0,0,0,154,108v-.8a45.86,45.86,0,0,1-11.57,1Z"></path>
        <path class="cls-11" d="M181,117.41v15a5.6,5.6,0,0,1-1.93,4.23l-.93,0v1.11l-.49-.17a13.11,13.11,0,0,1-7-6c-1.42-3.88-1.79-4.75,0-8.32h-.5a17.65,17.65,0,0,1,3.51-4.32v.86A13.83,13.83,0,0,1,179.5,117l-.56,1A16.75,16.75,0,0,1,181,117.41Z"></path>
        <path class="cls-12" d="M182.27,74.12l-.19.12a11.4,11.4,0,0,1-1.08-.6v6.58a38.2,38.2,0,0,1-4.52.31,6.24,6.24,0,0,0,1.39,2,6.06,6.06,0,0,0,2.06,1.32c1.14.58-.44.9-2.84,1.07l-.33,0c-3.69.23-9,.14-9.75.14-1.23,0,.86,3.33,2,3.33a29.44,29.44,0,0,1-15.39-2.65,1.76,1.76,0,0,0,.11,1.33,1.78,1.78,0,0,0,1,.89,19.94,19.94,0,0,1-9.29-2.34,22.71,22.71,0,0,1-8.22-8.79s0,0,0,0-.14-.26-.21-.39h.31s3-10.67,5-11.72c0,0,0,1.24,1.66,1.79a21.67,21.67,0,0,1,9.66-10.11l-.61,3a21.79,21.79,0,0,1,15.87-8.94,19,19,0,0,0-2.4,5S177,51,181,54l0,0,0,0c-.34.43-3,3.77-2.73,4.57.91,0,1.82-.07,2.73-.07v9.12l.28,0H181v5.91A9.35,9.35,0,0,0,182.27,74.12Z"></path>
        <path class="cls-11" d="M137.19,76.85c.49-.27,1-.53,1.48-.78l-1.48.79q-2.41,1.32-4.76,2.78l-.74.46-.05-.08,0,0,.15-.08a7.44,7.44,0,0,1,.66-.38h0Q134.79,78.13,137.19,76.85Z"></path>
        <path class="cls-11" d="M138.67,76.07c.76-.4,1.53-.79,2.3-1.17C140.2,75.29,139.43,75.67,138.67,76.07Z"></path>
        <path class="cls-11" d="M143.13,73.81c.8-.34,1.6-.67,2.41-1-.85.35-1.69.72-2.53,1.1l-2,1C141.69,74.54,142.4,74.16,143.13,73.81Z"></path>
        <path class="cls-11" d="M181.28,67.71H181c-1.76,0-3.53,0-5.29,0-.32,0-.64,0-1,0q-3.27.07-6.52.36l-.69.06-.88.07c-3.07.28-6.13.69-9.16,1.25l-.78.15-1.29.25a66.51,66.51,0,0,0-9.08,2.66q-.39.14-.78.3l.77-.31a66.7,66.7,0,0,1,9-2.83l1.33-.32.5-.11.26-.06h0a68.23,68.23,0,0,1,9.12-1.36l.77-.06.92-.06a63.71,63.71,0,0,1,6.47-.33h.82c1.83,0,3.65.12,5.47.3Z"></path>
        <path class="cls-11" d="M146.08,72.45a11.44,11.44,0,0,1,.45-5,11.29,11.29,0,0,1,2.57-4.31,11.56,11.56,0,0,0-3,4.28,11.81,11.81,0,0,0-.83,5.16Z"></path>
        <path class="cls-11" d="M157.71,82.81a26.49,26.49,0,0,1-6.15-4.75,68.88,68.88,0,0,1-5.41-5.79l-.62.55c1.85,1.91,3.75,3.76,5.72,5.49a26.72,26.72,0,0,0,6.59,4.5Z"></path>
        <path class="cls-11" d="M156.61,69.24a13.09,13.09,0,0,0,2.52,4.69,23.86,23.86,0,0,0,3.75,3.7,38.14,38.14,0,0,0,9,5.18,38.72,38.72,0,0,1-8.74-5.49,20.53,20.53,0,0,1-3.51-3.76,13.12,13.12,0,0,1-2.21-4.44Z"></path>
        <path class="cls-11" d="M161.71,56.42a18.47,18.47,0,0,0-5.1,12.82h.8a17.86,17.86,0,0,1,4.3-12.76Z"></path>
        <path class="cls-11" d="M167.19,67.7A12.8,12.8,0,0,1,169,61.54a10.3,10.3,0,0,1,4.8-4.07,10.15,10.15,0,0,0-5.11,3.82,14,14,0,0,0-2.34,6.17Z"></path>
        <path class="cls-11" d="M178.76,77.08a22.17,22.17,0,0,1-11.63-9.62l-.68.43A22.47,22.47,0,0,0,178.76,77.08Z"></path>
        <path class="cls-11" d="M175.13,67.33a9.46,9.46,0,0,1,3.63-5.18,9.48,9.48,0,0,0-4.37,5Z"></path>
        <path class="cls-11" d="M180.85,73.54A10.24,10.24,0,0,1,178,71.4a22.9,22.9,0,0,1-3.2-3.68l-.18-.26.13-.08.18-.1.32-.19.1-.06c.07.12.14.24.22.36a2.38,2.38,0,0,0,.18.3,25,25,0,0,0,2.5,3.47A11.29,11.29,0,0,0,180.85,73.54Z"></path>
        <path class="cls-11" d="M182.27,74.12l-.19.12a11.4,11.4,0,0,1-1.08-.6l-.15-.1.15.07A9.35,9.35,0,0,0,182.27,74.12Z"></path>
        <path class="cls-12" d="M128.3,75.6s7.88-22.94-8.31-31.39l-1.16,3.95s-3.76-8.45-8.87-8.76v3.39s-6.64-5.24-10.64-3.39l1.84,2.41s-9.59-2.41-10.64-1.24-.56,1.91,0,3.64-3.51,0-3.51,0a39.71,39.71,0,0,0,3.51,7.71H87s2.83,9.74,4.62,10.6-3.2,0-3.2,0a24.6,24.6,0,0,0,7,7.53s-6.15.61-6.83.55A27.91,27.91,0,0,0,128.3,75Z"></path>
        <path class="cls-11" d="M131.93,79.73a129.1,129.1,0,0,0-12.31-13.2A52.37,52.37,0,0,0,105.1,56.3a19.55,19.55,0,0,0-3.87-6.72,43.71,43.71,0,0,0-5.79-5.43,40.13,40.13,0,0,1,5.66,5.55,19.62,19.62,0,0,1,4,6.72,52.92,52.92,0,0,1,14.28,10.42,120.73,120.73,0,0,1,11.88,13.57Z"></path>
        <path class="cls-11" d="M116,62.83a32.83,32.83,0,0,0-3.13-11.28,20.76,20.76,0,0,0-7.63-8.76,21.12,21.12,0,0,1,7.32,8.88A50.77,50.77,0,0,1,116,62.83Z"></path>
        <path class="cls-11" d="M121.23,67.46a54.61,54.61,0,0,1-12.31.68A34.52,34.52,0,0,1,97,65.54a36.1,36.1,0,0,0,11.94,3,55.7,55.7,0,0,0,12.31-.31Z"></path>
        <path class="cls-11" d="M113.84,44.21a22,22,0,0,1,5.66,11.16,53.32,53.32,0,0,1,1.42,12.33h.8a54.15,54.15,0,0,0-1.79-12.33,22.52,22.52,0,0,0-6.15-11Z"></path>
        <path class="cls-11" d="M126.09,72.7a55.65,55.65,0,0,1-13.48,3A26.4,26.4,0,0,1,99,74.24a27.26,27.26,0,0,0,13.66,2.22,58.33,58.33,0,0,0,13.72-2.65Z"></path>
        <path class="cls-11" d="M124.67,54a21.32,21.32,0,0,1,1.72,9.43,63.21,63.21,0,0,1-.55,9.62h.8a72,72,0,0,0,0-9.74A22.36,22.36,0,0,0,124.49,54Z"></path>
        <path class="cls-11" d="M110.52,59.32,100.86,58a50.83,50.83,0,0,1-9.54-2,45.34,45.34,0,0,0,9.48,2.28,83.22,83.22,0,0,0,9.72,1.05Z"></path>
        <path class="cls-3" d="M117.59,109.08s-8.36,10.11-15.13-.87a99.11,99.11,0,0,1-8.74-15.1c0-.93,1.84.92,3.32,1s0-.92,0-1.6a23.51,23.51,0,0,1-4.31-14.43s3.69,1.73,4.31,1.17-1.91-8.38.92-13.32a10.77,10.77,0,0,0,4.93,1.92s.55-6.79,3.63-8.45a8.05,8.05,0,0,0,2.64,2.28s-2,0,5.23-3a13.32,13.32,0,0,0,1.6,4.19s2.83-1.85,3.08-3,1.05,4.63.92,5.61,3.88-.74,3.88-.74,2.15,11.53-1.6,15.17a18.47,18.47,0,0,0,4.37-2.77c1.66-1.55-1,7.77-2,9.25A15.27,15.27,0,0,0,129,86a24,24,0,0,1-6.46,12.34,6.11,6.11,0,0,0,3.69,0s-7.39,9.74-8.62,11Z"></path>
        <path class="cls-11" d="M111.87,66.22a132.08,132.08,0,0,0-4,24.67,85.85,85.85,0,0,0,1.79,24.66,98,98,0,0,1-1.17-24.66A158.92,158.92,0,0,1,111.87,66.22Z"></path>
        <path class="cls-11" d="M107.62,102.23a8.94,8.94,0,0,1-4.55-1.29A25.28,25.28,0,0,1,99,98.1a24.88,24.88,0,0,0,3.88,3.21,15.7,15.7,0,0,0,2.27,1.17,6.8,6.8,0,0,0,2.59.55Z"></path>
        <path class="cls-11" d="M124.67,90.76a71.05,71.05,0,0,1-8,7.22,41.37,41.37,0,0,1-4.37,2.9,9.2,9.2,0,0,1-4.8,1.35v.8a9.56,9.56,0,0,0,5.23-1.66A29.86,29.86,0,0,0,117,98.29a78.5,78.5,0,0,0,7.51-7.53Z"></path>
        <path class="cls-11" d="M107.75,91A21.11,21.11,0,0,1,97,83.86a21.64,21.64,0,0,0,10.52,8Z"></path>
        <path class="cls-11" d="M123.87,81.76a28,28,0,0,1-7.2,6.66,15.4,15.4,0,0,1-9,2.59v.8A15.76,15.76,0,0,0,117,88.73,27.5,27.5,0,0,0,123.87,81.76Z"></path>
        <path class="cls-11" d="M108.3,81.45a13.86,13.86,0,0,1-6.15-7.27,14.36,14.36,0,0,0,5.84,8Z"></path>
        <path class="cls-11" d="M121.29,72.21a25.58,25.58,0,0,1-5.42,6.53,10,10,0,0,1-7.63,2.71v.81a10.65,10.65,0,0,0,8-3.21,24.69,24.69,0,0,0,5.17-6.84Z"></path>
        <path class="cls-11" d="M110.21,73.81a8.72,8.72,0,0,1-2.36-2.73,9.06,9.06,0,0,1-1.09-3.44,9.28,9.28,0,0,0,3,6.6Z"></path>
        <path class="cls-11" d="M117.59,66.53a18.56,18.56,0,0,1-3,4.75A6.47,6.47,0,0,1,112.49,73a6.55,6.55,0,0,1-2.59.71v.56a7,7,0,0,0,4.93-3,18.46,18.46,0,0,0,2.7-5Z"></path>
        <path class="cls-3" d="M117.21,138H73.65a20,20,0,0,1,5.3-4.07c6.4-3.33-4.37-1.24-4.37-1.24a30.11,30.11,0,0,1,22.21-11.34H97a33.07,33.07,0,0,1,10.4,2.88l.2.09a16.87,16.87,0,0,1,7.86,7.2A29.51,29.51,0,0,1,117.21,138Z"></path>
        <path class="cls-11" d="M104.36,127.21a18.34,18.34,0,0,0-11-1.42A38.93,38.93,0,0,0,83,129.18a37.08,37.08,0,0,1,10.52-3A17.11,17.11,0,0,1,104,128Z"></path>
        <path class="cls-12" d="M93.35,115.86S87.2,83.73,60.74,80.28c0,0,1.23,6.54,0,6.6s-2.28-1.79-4.07-3.45-3.81-3.64-4.8-3.46c0,0,0,4.63-.86,5.12s-4.37-3.7-8.55-4.31c0,0,2.46,3.69,0,5.42a8.07,8.07,0,0,0-8.55-3.58s4.92,4.26,1.84,5.8a12.24,12.24,0,0,1-6.15.43,7.68,7.68,0,0,0-3.63,0c-1.42.8,9.17,6.54,3.57,7.83a19.23,19.23,0,0,1-7.33,0,11.53,11.53,0,0,0-5.6,0s8.5,4,5.54,5.31a17.68,17.68,0,0,1-6.83.49,7.27,7.27,0,0,0-3,0c-.62.55,10.7,9.86-3.39,7.46,0,0,43.08,44.52,84.43,6.17Z"></path>
        <path class="cls-11" d="M112.25,138h-.56a26.91,26.91,0,0,0-1.17-2.84A15.85,15.85,0,0,0,104,128l.09-.18.28-.56.18.11a16.72,16.72,0,0,1,6.59,7.66A26.65,26.65,0,0,1,112.25,138Z"></path>
        <path class="cls-11" d="M98.58,133l-.43.37L98,133.3a13.26,13.26,0,0,0-10.78.07A44.45,44.45,0,0,0,78.08,138H78a45,45,0,0,1,9.07-5,13.68,13.68,0,0,1,11.29-.1Z"></path>
        <path class="cls-11" d="M103.08,138h-.71a14.85,14.85,0,0,0-4.1-4.26l0-.07.39-.67.14.11A15.5,15.5,0,0,1,103.08,138Z"></path>
        <path class="cls-11" d="M110.52,121.6l-.36.34-2.52,2.38c-1,1-2.08,2-3.1,3-.16.14-.31.29-.46.45a1.06,1.06,0,0,0-.15.15q-2.61,2.54-5.09,5.19c-.18.18-.36.37-.53.56-.89,1-1.76,1.92-2.62,2.91-.45.47-.89.94-1.32,1.42h-.66c.51-.6,1-1.2,1.55-1.79.89-1,1.79-2,2.72-2.91a4.75,4.75,0,0,1,.38-.4c1.69-1.76,3.42-3.48,5.21-5.15l.64-.61q1.59-1.48,3.23-2.91c.89-.78,1.79-1.55,2.7-2.3C110.26,121.81,110.39,121.71,110.52,121.6Z"></path>
        <path class="cls-13" d="M55.13,56.05l-4.92,1.6A8.36,8.36,0,0,0,51.87,61c.62.37-1.23,1.17-1.23,1.17s3.94,5.31,5,5.49c0,0-1.29,1.17-2,.86a20.22,20.22,0,0,0,5.41,3.7c1.54.31-1.29.93-1.29.93a20.22,20.22,0,0,0,8.8,2.09C70.4,74.92,55.13,56.05,55.13,56.05Z"></path>
        <path class="cls-3" d="M70.83,75.6A22.06,22.06,0,0,0,53.17,52.23a10.1,10.1,0,0,1,0,3.2H51.51A13,13,0,0,0,54,61.6c1.23,1-1.85.62-1.85.62a20.91,20.91,0,0,0,6.16,6.16s-1.85.68-2.4.37A25.89,25.89,0,0,0,62.7,73c1.91,0-1.29,1-1.29,1s6.77,3,9.66,1.48Z"></path>
        <path class="cls-10" d="M71.44,72.7S70,74.12,64.86,64.62h1.41s-4.43-7.21-3.2-9.37l1.23.37a10.79,10.79,0,0,1,3.14-8.39c.8-.8.74.86.74.86a24,24,0,0,0,3.26-2.71l.62.74a13.63,13.63,0,0,1,2-1.66s.43,3.14-.43,3.57l-1-1.17A7.74,7.74,0,0,0,72,53s-1.3,1-2,.8,0,5,.92,6.17-2,2.52-2,2.52a25.59,25.59,0,0,0,2.15,10.67Z"></path>
        <path class="cls-11" d="M70.34,68.81c-.5-.49-.8-.37-1.17-.61l-1-.56A8.4,8.4,0,0,1,66.4,66.1a8.78,8.78,0,0,0,1.66,1.73l1,.61.93.43Z"></path>
        <path class="cls-11" d="M70.34,62.71a7.06,7.06,0,0,1-3-1.85,14.5,14.5,0,0,1-2.4-2.78A17,17,0,0,0,67.13,61a7.77,7.77,0,0,0,3.14,2.1Z"></path>
        <path class="cls-11" d="M71.5,56.91a11.06,11.06,0,0,1-4.06-6.66,11,11,0,0,0,3.94,7Z"></path>
        <path class="cls-11" d="M73.16,51.24a20.73,20.73,0,0,1-1.78-3.82,13.2,13.2,0,0,0,.62,2c0,.68.55,1.3.92,2Z"></path>
        <path class="cls-13" d="M71.44,72.64a23.26,23.26,0,0,0,2.89-28.18A8.31,8.31,0,0,1,73.9,48l-1-1.17A6.83,6.83,0,0,0,72.3,53a3.31,3.31,0,0,1-2.15.68,11.33,11.33,0,0,0,1.29,6.59,9.63,9.63,0,0,1-2.15,2,21.68,21.68,0,0,0,2.15,10.6Z"></path>
        <path class="cls-10" d="M72.61,76.65s-2.21,0,0-11.29l1,1.17s1.29-9.06,3.81-10.05l.8,1.17A11.27,11.27,0,0,1,87,52.84c1.17,0,0,1.18,0,1.18a29.69,29.69,0,0,0,4.62,0v1a10.32,10.32,0,0,1,2.83,0s-1.79,2.9-2.83,2.72V56.05A8.63,8.63,0,0,0,87,60.61s-1.78,0-2.21-.68-3.51,4.14-3.26,5.62-3.45.67-3.45.67A27.75,27.75,0,0,0,72.61,76.65Z"></path>
        <path class="cls-11" d="M74.27,72.64c0-.74-.37-.87-.49-1.3a4.83,4.83,0,0,1-.49-1.17,8.66,8.66,0,0,1-.37-2.53,9.36,9.36,0,0,0,0,2.59,5.37,5.37,0,0,0,.37,1.24l.49,1Z"></path>
        <path class="cls-11" d="M78.58,67.52a7.48,7.48,0,0,1-1.35-3.64,14.18,14.18,0,0,1,0-4,14.6,14.6,0,0,0,0,4.07,7.37,7.37,0,0,0,1.23,3.83Z"></path>
        <path class="cls-11" d="M83.5,63.51a11.94,11.94,0,0,1,1.11-8.45,12.4,12.4,0,0,0-1.48,8.57Z"></path>
        <path class="cls-11" d="M88.8,59.87a14.92,14.92,0,0,1,.43-2.22,16,16,0,0,1,.67-1.91A13.89,13.89,0,0,0,89,57.9a10.71,10.71,0,0,1-.61,2.28Z"></path>
        <path class="cls-3" d="M72.61,76.64A25.27,25.27,0,0,0,94.46,55.06s-1.6,2.22-2.83,2.65V56.05c-.86.43-2.59.55-4.62,4.56a3.59,3.59,0,0,1-2.28-.92,12.33,12.33,0,0,0-3.44,6.16,11.43,11.43,0,0,1-3.2,0,24.72,24.72,0,0,0-5.48,10.42Z"></path>
        <path class="cls-11" d="M81.78,111.61A44.52,44.52,0,0,0,71.63,92.24,44.85,44.85,0,0,1,81,111.79Z"></path>
        <path class="cls-11" d="M74.52,116.91a74.36,74.36,0,0,0-6.15-15A37.14,37.14,0,0,0,58,89.53a37,37,0,0,1,10,12.33,70.37,70.37,0,0,1,5.6,15.54Z"></path>
        <path class="cls-11" d="M65.9,114.81a52.3,52.3,0,0,0-7.5-13.13,47.32,47.32,0,0,0-11-10.3,50.23,50.23,0,0,1,17.79,23.68Z"></path>
        <path class="cls-11" d="M58,117.83a64.47,64.47,0,0,0-10-13.68A102.23,102.23,0,0,0,35.75,92.74a102.72,102.72,0,0,1,12.31,11.65A64,64,0,0,1,57.6,118.2l.74-.37Z"></path>
        <path class="cls-11" d="M46.4,118.57a121.28,121.28,0,0,1-14.59-15.72,132.45,132.45,0,0,0,14,16.34Z"></path>
        <path class="cls-11" d="M34.4,116.66a40,40,0,0,1-11.63-8.45A41.76,41.76,0,0,0,34,117.4Z"></path>
        <path class="cls-5" d="M50.15,78.31s9.29,4.93,9.29,8.57,1.36,7.21-7.87,14S32.06,92.24,31.88,91a11.9,11.9,0,0,1,8.61-12.89c7.75-2.34,6.65-1.23,6.65-1.23Z"></path>
        <path class="cls-14" d="M46.09,102c.68,0-12.92-9.13-8.74-18.07.62-1.29.56-2.1,0-2.1a1.19,1.19,0,0,0-.74.44S27.07,90,41.41,99.64A31.84,31.84,0,0,0,46,102Z"></path>
        <path class="cls-6" d="M42.83,77.45a20.55,20.55,0,0,1,2.89-.68H45a12.2,12.2,0,0,0-2,.37v.43Z"></path>
        <path class="cls-15" d="M38.4,79a11,11,0,0,1,2.09-.87l1.78-.49h.87V77.2a22.83,22.83,0,0,0-4.56,1.85Z"></path>
        <path class="cls-7" d="M34,82.63a28.33,28.33,0,0,1,4.18-2.47,30.29,30.29,0,0,0,4.06-2.53l-1.78.49A11,11,0,0,0,38.4,79h-.5A16.47,16.47,0,0,0,34,82.38ZM46.34,84.1a13,13,0,0,0,1-4.56c0-1.11-1-2.83-.86-2.89h-.68a20.85,20.85,0,0,0-2.89.67H42.4a14.48,14.48,0,0,0-3.94,6.17,17.27,17.27,0,0,1,2.83-2.9c.8-.62,2.52-3.45,3.08-3.45v2.22A26.78,26.78,0,0,0,46.09,84Z"></path>
        <path class="cls-6" d="M53.47,80.41a17.37,17.37,0,0,0-5.54-3.09l2.22,1.05A36.47,36.47,0,0,1,53.47,80.41Z"></path>
        <path class="cls-7" d="M53.84,84.1a47.79,47.79,0,0,0-3.44-4.93l1.47.8,4.37,2.72c-.49-.37-1.41-1.3-2.77-2.35a33.1,33.1,0,0,0-3.32-2l-2.21-1-1.3-.37a17.77,17.77,0,0,1,3.26,3.45C51,81.82,52.61,82.26,53.84,84.1Z"></path>
        <path class="cls-8" d="M42.09,91.63c0,.43,0,.86.37.86s.31-.43.31-.86,0-.87-.31-.87S42.09,91.13,42.09,91.63Z"></path>
        <path class="cls-8" d="M42.83,86.2c0,.49,0,.86.37.86s0-.37,0-.86v-.86A1.59,1.59,0,0,0,42.83,86.2Z"></path>
        <path class="cls-8" d="M37.78,91.2v.86a1.36,1.36,0,0,0,.37-.86c0-.5,0-.87-.37-.87S37.78,90.7,37.78,91.2Z"></path>
        <path class="cls-8" d="M37.78,86v.86a1.36,1.36,0,0,0,.37-.86c0-.5,0-.87-.37-.87S37.78,85.52,37.78,86Z"></path>
        <path class="cls-8" d="M40.24,93.72c0,.5,0,.87.37.87s0-.37,0-.87v-.86A1.59,1.59,0,0,0,40.24,93.72Z"></path>
        <path class="cls-8" d="M39.94,88.85v.87a1.37,1.37,0,0,0,.37-.87c0-.49,0-.86-.37-.86S39.94,88.36,39.94,88.85Z"></path>
        <path class="cls-8" d="M45,93.54v.86a1.59,1.59,0,0,0,.37-.86c0-.43,0-.93-.37-.93S45,93.05,45,93.54Z"></path>
        <path class="cls-8" d="M45,88.85v.87a1.37,1.37,0,0,0,.37-.87c0-.49,0-.86-.37-.86S45,88.36,45,88.85Z"></path>
        <path class="cls-8" d="M47.38,91.38v.93a1.67,1.67,0,0,0,.37-.93c0-.49,0-.86-.37-.86S47.38,91,47.38,91.38Z"></path>
        <path class="cls-8" d="M48.06,86v.86S49,86.57,49,86s0-.87-.37-.87,0,.43,0,.87Z"></path>
        <path class="cls-8" d="M49,94c0,.49,0,.86.37.86s0-.37,0-.86v-.86A1.36,1.36,0,0,0,49,94Z"></path>
        <path class="cls-8" d="M52.43,86.57v.93c0,.06.37,0,.49-.8s0-.87,0-.93A1.1,1.1,0,0,0,52.43,86.57Z"></path>
        <path class="cls-8" d="M53.23,93.35v.93c0,.06.49,0,.67-.62a1.24,1.24,0,0,0,0-.92C53.9,92.68,53.48,92.74,53.23,93.35Z"></path>
        <path class="cls-8" d="M53.72,90V91c0,.06.43,0,.68-.62a1,1,0,0,0,0-.92C54.4,89.35,54,89.41,53.72,90Z"></path>
        <path class="cls-8" d="M56.43,86.57v.93c0,.12.49,0,.67-.68a1.27,1.27,0,0,0,0-.93C57.1,85.77,56.67,85.89,56.43,86.57Z"></path>
        <path class="cls-8" d="M35.69,93.66c0,.43.49.74.68.62s0-.43,0-.93-.49-.74-.68-.61S35.69,93.23,35.69,93.66Z"></path>
        <path class="cls-8" d="M35.26,88.67c0,.43.43.74.62.68s0-.5,0-.93-.44-.8-.62-.74S35.26,88.18,35.26,88.67Z"></path>
        <path class="cls-8" d="M32.86,90.89c0,.43.49.74.62.61s0-.49,0-.92-.5-.74-.68-.62,0,.5,0,.93Z"></path>
        <path class="cls-8" d="M33.54,85.28v.92s.43,0,.49-.8a3.16,3.16,0,0,0,0-.93,1.36,1.36,0,0,0-.43.81Z"></path>
        <path class="cls-8" d="M55.75,92.74v.92c0,.13.43,0,.68-.68a1,1,0,0,0,0-.92C56.43,91.94,55.93,92.06,55.75,92.74Z"></path>
        <path class="cls-8" d="M57.35,90.21v.92c0,.13.43,0,.68-.67a1,1,0,0,0,0-.93C58,89.41,57.54,89.53,57.35,90.21Z"></path>
        <path class="cls-3" d="M45.17,76.09A22.89,22.89,0,0,0,34,81.45l4.18-1.85c1.42-.61,3.82-1.54,4.06-1.78a8.74,8.74,0,0,0-3.81,5.36,25,25,0,0,1,2.83-2.9c.8-.61,2.65-3.08,3.14-2.89s0-1,0,1.66a37.92,37.92,0,0,0,1.72,6.17,24.44,24.44,0,0,0,1.11-5.62c0-1.11-.62-2-.43-2.09s1.6,1.48,3,2.59a18.49,18.49,0,0,1,3.94,3.76A41.23,41.23,0,0,0,50.27,79l1.48.74c1.48,1,4.68,2.9,4.37,2.71A21.08,21.08,0,0,0,45,76.28Z"></path>
        <path class="cls-9" d="M35.57,86a14.46,14.46,0,0,1,1-1.86c.5-.67,1.17-1.66.8-1.91s-1.35.56-1.84,1.3a2.35,2.35,0,0,0,0,2.47Z"></path>
        <path class="cls-3" d="M93.66,117a35.92,35.92,0,0,0-20.06-7.58s1.78,5.36.55,5.49a70.93,70.93,0,0,0-18.09-3.21,14.08,14.08,0,0,1,1.6,4.81c0,1.17-9.79-4.07-15.08-3.7,0,0,3.14,5,.68,5.18s-6.71-4.63-11.94-4.75c0,0,3,5.43.49,5.61S22,114,18.89,113.27c0,0,2.65,2.77,1.23,3.76s-8.06-4.25-8.06-4.25S53.54,152.24,93.72,117Z"></path>
        <path class="cls-11" d="M90.4,119.68a33.62,33.62,0,0,1-6.16-2.59,55.25,55.25,0,0,1-5.84-3.45,22.5,22.5,0,0,0,5.47,4.13A17.4,17.4,0,0,0,90.4,119.68Z"></path>
        <path class="cls-11" d="M79.75,125.79a54.32,54.32,0,0,1-8.8-3.33A22.06,22.06,0,0,1,63.38,117a18.07,18.07,0,0,0,7.2,6.17A31.84,31.84,0,0,0,79.75,125.79Z"></path>
        <path class="cls-11" d="M71.57,129.73a87.17,87.17,0,0,1-11.82-4.56,36.1,36.1,0,0,1-5.6-3,24.89,24.89,0,0,1-4.8-4.07,24.61,24.61,0,0,0,10,7.77,56.65,56.65,0,0,0,12.31,3.82Z"></path>
        <path class="cls-11" d="M55.14,131.58A56.66,56.66,0,0,1,45,126.22a36.5,36.5,0,0,1-8.67-7.34,27.52,27.52,0,0,0,8.24,8A40.29,40.29,0,0,0,55.14,131.58Z"></path>
        <path class="cls-10" d="M133.47,128.69q5.85,4.38,11.28,9.31H142q-4.72-4.12-9.8-7.83a360.66,360.66,0,0,0-31.69-18.5,91.15,91.15,0,0,1-11-7.25,93.72,93.72,0,0,1-8.24-7.18c-.23-.22-.46-.45-.67-.68l-.13-.13a34.9,34.9,0,0,1-6.32-8.81,33.33,33.33,0,0,1-1.47-3.29,35.52,35.52,0,0,1-2.13-8.66c-.13-1-.2-2-.23-3.09l.28,0h.28l.43,0h.31l.6,0a31.79,31.79,0,0,0,.37,3.79.14.14,0,0,0,0,.11,0,0,0,0,0,0,.05A34,34,0,0,0,82.77,96c1.52,1.49,3.1,2.93,4.72,4.3,1.87,1.6,3.82,3.12,5.82,4.56l.7.49a87.9,87.9,0,0,0,7.65,4.83c2.66,1.62,5.26,3.07,7.81,4.43l0,0C117.63,119,125.33,122.6,133.47,128.69Z"></path>
        <path class="cls-10" d="M104.49,118.2A132.5,132.5,0,0,1,139.56,138h-2.33a131.2,131.2,0,0,0-27.07-16.06h0q-3.06-1.37-6.21-2.56c-3.22-1.16-6.88-1.37-10.41-2.44l-.79-.26-.37-.13.16-.36.4-.88.33.11C96.74,116.61,100.67,116.82,104.49,118.2Z"></path>
        <path class="cls-10" d="M171.33,113.34l1.28.61c-.25.65-.49,1.3-.71,2a66.17,66.17,0,0,0-3.72,22V138h-1.6v-.13a68,68,0,0,1,1.74-15.66c.24-1,.5-2,.79-3.06q.6-2.16,1.35-4.29c0-.12.09-.23.13-.35.15-.43.31-.87.48-1.3Z"></path>
        <path class="cls-10" d="M13.91,65.85c1.35-4.68,6.83-7,11-8.07A20,20,0,0,1,30,57.16a36,36,0,0,1,17.23,5.18,67.11,67.11,0,0,1,12.31,10C70.09,82.19,82,98.1,94,105.32l-.79,1.41C80.92,99.21,68.61,83.18,58.46,73.56a62,62,0,0,0-12-9.8,34.76,34.76,0,0,0-16.43-5,16.81,16.81,0,0,0-4.68.62c-4.06,1-9,3.33-9.9,6.9Z"></path>
        <path class="cls-10" d="M61.29,76.21a21.48,21.48,0,0,0-10.71-4.38,4.46,4.46,0,0,0-3.14,1A5.44,5.44,0,0,0,46,76.71h-1.6a6.62,6.62,0,0,1,.49-2.64,6.73,6.73,0,0,1,1.48-2.24,6.19,6.19,0,0,1,4.18-1.48A23.06,23.06,0,0,1,62.27,75Z"></path>
        <path class="cls-10" d="M50,66A22.19,22.19,0,0,0,45,64.13a29,29,0,0,0-6.15-.93,6.1,6.1,0,0,0-3.51.81,4.15,4.15,0,0,0-2,3.14h-1.6a6.39,6.39,0,0,1,.9-2.42,6.19,6.19,0,0,1,1.81-1.83,7.87,7.87,0,0,1,4.37-1,29.67,29.67,0,0,1,6.15.92,28.18,28.18,0,0,1,5.48,2.1Z"></path>
        <path class="cls-10" d="M142,119.81c.79,1.16,6.42,8.91,12.72,18.19h-1.9c-6-8.92-11.29-16.15-12.11-17.33a61.87,61.87,0,0,1-9.85-30.83V82.5c0-.89,0-1.78,0-2.66,0-.47,0-.94,0-1.4a88.5,88.5,0,0,1,3.18-21c.32-1.19.68-2.38,1.06-3.56l0-.09.47.15.21.08.06,0,.74.24a.09.09,0,0,0,0,.05c-.36,1.11-.69,2.23-1,3.35a88.66,88.66,0,0,0-3.17,21.85h0v.12c0,.93,0,1.87,0,2.8v7.28A59.6,59.6,0,0,0,142,119.81Z"></path>
        <path class="cls-12" d="M133.47,57s-5.78-1.11-11-12.34a7,7,0,0,0,2.89,0A16.79,16.79,0,0,1,120.49,29,15.62,15.62,0,0,0,123,31.32a50.71,50.71,0,0,1,.49-10.73s1.91,3,3.32,3.64c0,0,.31-10.91,1.79-12.33,0,0,2.64,4,3.44,4.13s-.73-7.77,2.22-9.86a34.54,34.54,0,0,0,3.08,5.42c.8,1,.3-7.64,3.5-9.74a18.73,18.73,0,0,0,2,4.32S144.61.62,145.65,0c0,0,.8,3,1.73,3.64A14.19,14.19,0,0,1,151.68,0a22.48,22.48,0,0,0,1.54,4.81,25,25,0,0,1,6.16-3.64s-.93,4.87-.86,5.55S157.71,8.2,159.93,8l4.49-.55s-2.27,4.62-2.71,5.43l5-.25a30.77,30.77,0,0,1-4.55,7.4c-2.4,2.34.74,1.54,1,1.54a16.7,16.7,0,0,0,5.36-2c0-.67-4.19,7.53-4.19,7.53a7.33,7.33,0,0,0,4.25,0c1.6-.87-2.15,4.56-2.52,5.18L163,36.63s-1.11,1.29-.37,1.29,4.49-1.48,4.12-.8-7,6.66-6.65,7.4,5,0,4.31.8a73,73,0,0,1-10,8.45,44,44,0,0,1-13.91,3.88C133.29,58,133.47,57,133.47,57Z"></path>
        <path class="cls-11" d="M153.59,11.78a72.12,72.12,0,0,0-6.15,10.73c-1.79,3.7-3.39,7.46-4.92,11.28s-2.84,7.71-4.19,11.53S135.81,53.09,134.7,57c2.83-7.65,5.42-15.42,8.55-22.94,1.42-3.82,3-7.65,4.62-11.35s3.45-7.4,5.48-11Z"></path>
        <path class="cls-11" d="M135.87,54.38a97.27,97.27,0,0,0,19.26-3.94,93.73,93.73,0,0,1-19.26,3.14Z"></path>
        <path class="cls-11" d="M123.87,39.4a51,51,0,0,0,11.75,14.92l.5-.61A50.58,50.58,0,0,1,123.81,39.4Z"></path>
        <path class="cls-11" d="M138.33,47.11a70.51,70.51,0,0,0,10.83-1.48,33.76,33.76,0,0,0,10.22-3.82,34,34,0,0,1-10.28,3.45,72.08,72.08,0,0,1-10.77,1.05Z"></path>
        <path class="cls-11" d="M128.3,34.41a18.58,18.58,0,0,0,4.12,6.84A62.48,62.48,0,0,0,138.08,47l.5-.61A69,69,0,0,1,132.73,41,18.56,18.56,0,0,1,128.3,34.41Z"></path>
        <path class="cls-11" d="M140.55,40.94a47,47,0,0,0,11.32-2.71,26.67,26.67,0,0,0,9.84-6.17,26.47,26.47,0,0,1-10,5.74,47.09,47.09,0,0,1-11.27,2.28Z"></path>
        <path class="cls-11" d="M132.3,26.76a26.56,26.56,0,0,0,8,14.12l.49-.61A27.09,27.09,0,0,1,132.3,26.76Z"></path>
        <path class="cls-11" d="M142.82,34.84A27.68,27.68,0,0,0,161.71,26,27.5,27.5,0,0,1,142.89,34Z"></path>
        <path class="cls-11" d="M135.13,17.51a17.63,17.63,0,0,0,2.09,9.31,37.45,37.45,0,0,0,5.6,7.9l.31-.56a38,38,0,0,1-5.78-7.52A17.65,17.65,0,0,1,135.13,17.51Z"></path>
        <path class="cls-11" d="M146.08,27.13a38.46,38.46,0,0,0,8.19-3.64,17.28,17.28,0,0,0,6.46-6.16A17.53,17.53,0,0,1,154.08,23a38.62,38.62,0,0,1-8.18,3.14Z"></path>
        <path class="cls-11" d="M142.27,10.48a39.37,39.37,0,0,0,.43,8.26,18.53,18.53,0,0,0,3,8l.61-.55a18.54,18.54,0,0,1-3.26-7.47,42.12,42.12,0,0,1-.8-8.38Z"></path>
        <path class="cls-11" d="M149.53,19.36a15.24,15.24,0,0,0,5.85-2.9,22.27,22.27,0,0,0,4.36-4.68,23.64,23.64,0,0,1-4.61,4.38,14.27,14.27,0,0,1-5.72,2.4Z"></path>
        <path class="cls-11" d="M145.71,8.69a33.27,33.27,0,0,0,3.39,10.42l.74-.37A31.72,31.72,0,0,1,145.71,8.69Z"></path>
      </g>
    </g>
  </g>
</svg>
