<?xml version="1.0" encoding="UTF-8"?>
<svg xmlns="http://www.w3.org/2000/svg" viewBox="0 0 203 154">
  <defs>
    <style>
      .cls-1 {
        fill: #649853;
      }

      .cls-2 {
        fill: #7db868;
      }

      .cls-3 {
        fill: #97d582;
      }

      .cls-4 {
        fill: #9bd674;
      }

      .cls-5 {
        fill: #83c271;
      }

      .cls-6 {
        fill: #8ccd64;
      }

      .cls-7 {
        fill: #aee28c;
      }
    </style>
  </defs>
  <g id="Слой_2" data-name="Слой 2">
    <g id="Слой_1-2" data-name="Слой 1">
      <g>
        <path class="cls-1" d="M203,84.7v63.68a5.62,5.62,0,0,1-5.62,5.62H17.92c-1.27-3.61-3-5.38-6.28-7.35-4.66-2.82-14.14-15.12-11-28S7.23,109.54,6,101.7A28.28,28.28,0,0,1,7.52,86.55c.39-.39,9.64-12.49,23.13-11.53a213.64,213.64,0,0,1,25.24,4.46l.37.09,1.05.26.17,0q3.57.88,7.11,1.89s7.91,1.7,20.2,3.71l4.59.73,1.22.19c7.62,1.16,16.47,2.35,25.91,3.33h0l.76.07c7.66.79,15.7,1.42,23.78,1.76h.13c4,.17,8,.27,12,.29,0,0,0,0,0,0h.69c1.59,0,3.17,0,4.73,0h.65C175.79,91.47,191.35,89.5,203,84.7Z"></path>
        <path class="cls-2" d="M83.08,135c-4.66-.74-9.64-1.27-14.51-1.61a143.65,143.65,0,0,0-14.82-.23,66.9,66.9,0,0,0-14.42,2,27.43,27.43,0,0,0-6.65,2.82,14,14,0,0,0-5.17,4.76.55.55,0,0,1-.13.17.69.69,0,0,1-.19.1.55.55,0,0,1-.22,0,.5.5,0,0,1-.2-.08.57.57,0,0,1-.24-.29.58.58,0,0,1,0-.39,15.93,15.93,0,0,1,4.92-6.12,30.64,30.64,0,0,1,6.76-3.94A70.93,70.93,0,0,1,53.1,127.7a148.1,148.1,0,0,1,15.28-2.12c5.17-.45,10.21-.7,15.52-.67a5.13,5.13,0,1,1,0,10.26h-.76Z"></path>
        <path class="cls-2" d="M21.74,99.1a18.66,18.66,0,0,1,6.05,3.25,13.17,13.17,0,0,1,2.38,2.51,9.66,9.66,0,0,1,.87,1.49,7.47,7.47,0,0,1,.65,1.64,14.22,14.22,0,0,1,.37,1.72l.23,1.63c.17,1.07.37,2.15.62,3.19a14.89,14.89,0,0,0,7.66,9.56,19.87,19.87,0,0,0,3,1.16l1.53.48,1.59.31a52.47,52.47,0,0,0,13,.59,1.8,1.8,0,0,1,1.17.54,1.81,1.81,0,0,1-1,3,60.72,60.72,0,0,1-13.63-1.72L44.48,128l-1.64-.62a23.84,23.84,0,0,1-3.23-1.53,17,17,0,0,1-5.29-4.62,16.11,16.11,0,0,1-2.82-6.37,33,33,0,0,1-.51-3.39,6.54,6.54,0,0,0-.14-1.66,8.84,8.84,0,0,0-.29-1.55,9.87,9.87,0,0,0-3.48-5.22,15,15,0,0,0-5.65-2.82.67.67,0,0,1-.24-.07A.69.69,0,0,1,21,100a.67.67,0,0,1-.1-.23.7.7,0,0,1,0-.25.65.65,0,0,1,.11-.22.75.75,0,0,1,.2-.15.69.69,0,0,1,.24-.05.5.5,0,0,1,.24.06Z"></path>
        <path class="cls-2" d="M43.91,83.73a18.25,18.25,0,0,1,8.2,12.92c0,.65.17,1.3.17,1.95v1.94c0,1.3-.22,2.62-.28,3.81a13.09,13.09,0,0,0,2,6.94,29.11,29.11,0,0,0,10.92,10,51.69,51.69,0,0,0,13.83,5.44,1.9,1.9,0,0,1-.85,3.7h-.2a62.62,62.62,0,0,1-14.14-7,45,45,0,0,1-6.11-5,24.65,24.65,0,0,1-4.83-6.29,14.61,14.61,0,0,1-1.64-7.81l.45-3.84v-1.8a8.33,8.33,0,0,0-.14-1.86,16.56,16.56,0,0,0-2.46-7,15,15,0,0,0-5.38-5.24.57.57,0,0,1-.25-.32.51.51,0,0,1,0-.42.55.55,0,0,1,.76-.22Z"></path>
        <path class="cls-2" d="M59.36,131.23a1.74,1.74,0,0,1-.68,1.12l-.29.14c-.33.16-.65.35-1,.54s-.58.4-.86.62a22.54,22.54,0,0,0-1.79,1.44,21.15,21.15,0,0,0-3,3.55,22.57,22.57,0,0,0-3.37,8.8,18.92,18.92,0,0,1-.68,2.45,8.36,8.36,0,0,1-.51,1.19l-.62,1.13A13.32,13.32,0,0,1,45.22,154H43.9a11,11,0,0,0,1.8-2.39l.53-1c.17-.37.26-.73.4-1.1a12.71,12.71,0,0,0,.54-2.29A25.74,25.74,0,0,1,50,137.57a23.88,23.88,0,0,1,2.82-4.29,1.42,1.42,0,0,1,.12-.13,20,20,0,0,1,1.67-1.78,15.49,15.49,0,0,1,1.48-1.32l.61-.46a1.52,1.52,0,0,1,.6-.29,1.48,1.48,0,0,1,.66,0,1.54,1.54,0,0,1,.63.23,1.62,1.62,0,0,1,.48.46,1.71,1.71,0,0,1,.13.23A1.64,1.64,0,0,1,59.36,131.23Z"></path>
        <path class="cls-2" d="M81.06,132.75a1.52,1.52,0,0,1-.12.59,1.46,1.46,0,0,1-.33.49,1.56,1.56,0,0,1-.5.33l-.11-.37a4.14,4.14,0,0,0-.59.31,3.51,3.51,0,0,0-.4.27l-.22.14a0,0,0,0,1,0,0,6.54,6.54,0,0,0-1.1,1.13,7.85,7.85,0,0,0-1.36,2.82,13,13,0,0,0-.22,3.47l.28,1.89.4,1.78a17.85,17.85,0,0,1,1,5.33,14.27,14.27,0,0,1-.26,3.06H75.89a12.52,12.52,0,0,0,0-2.87,15.35,15.35,0,0,0-1.19-4.56l-.56-1.95c-.14-.65-.26-1.33-.37-2a14.08,14.08,0,0,1,0-4.2,9.88,9.88,0,0,1,1.61-4.12l.24-.33a7.8,7.8,0,0,1,1.29-1.34l.06,0a7.45,7.45,0,0,1,2-1.24,1.52,1.52,0,0,1,.59-.12,1.43,1.43,0,0,1,.58.12,1.56,1.56,0,0,1,.5.33,1.67,1.67,0,0,1,.33.5A1.62,1.62,0,0,1,81.06,132.75Z"></path>
        <path class="cls-2" d="M203,130.58v3.61l-2,1.61c-2,1.6-4,3.21-6,4.83l-2.24,1.82Q190.9,144,189,145.52a1.68,1.68,0,0,1-.58.33,1.64,1.64,0,0,1-.66.07,1.55,1.55,0,0,1-.63-.2,1.6,1.6,0,0,1-.51-.42,1.67,1.67,0,0,1-.4-1.25,1.6,1.6,0,0,1,.2-.64,1.5,1.5,0,0,1,.43-.51l0-.06Q194.91,136.67,203,130.58Z"></path>
        <path class="cls-2" d="M203,131.28v2.06a1,1,0,0,1-.24,0,.64.64,0,0,1-.18-.06,1,1,0,0,1-.43-.39.77.77,0,0,1-.12-.36,1,1,0,0,1,0-.38,1.11,1.11,0,0,1,.18-.34,1,1,0,0,1,.29-.25Z"></path>
        <path class="cls-2" d="M199.15,143.18a51.08,51.08,0,0,1,3.85,3.65v1.49a43.3,43.3,0,0,0-4.87-3.87,13.43,13.43,0,0,0-2.39-1.29c-.32-.14-.64-.26-1-.37a5.6,5.6,0,0,0-1.67-.31l-.33,0a2.07,2.07,0,0,0-.35,0,.28.28,0,0,0-.25,0,1.45,1.45,0,0,1-1,.29,1.39,1.39,0,0,1-.7-2.47l.31-.16h.6a2.24,2.24,0,0,1,.73,0,5.65,5.65,0,0,1,1.3,0,8.49,8.49,0,0,1,1.63.49,5.89,5.89,0,0,1,.58.24c.46.23.92.48,1.36.75A19,19,0,0,1,199.15,143.18Z"></path>
        <path class="cls-2" d="M203,7.06V108.42a65.54,65.54,0,0,1-22.55,1.33c-.73-.09-1.44-.2-2.15-.34a32,32,0,0,1-11.87-4.47,40.66,40.66,0,0,1-8.22-7.66l-.68-.81c-1.2-1.44-2.4-3-3.6-4.63a.24.24,0,0,0-.06-.09l-.32-.45a166.23,166.23,0,0,1-12.1-20c-.14-.26-.28-.52-.41-.78l-1-1.94c0-.09-.08-.18-.13-.27-.45-.89-.89-1.79-1.32-2.69A167.78,167.78,0,0,1,129,41.54c-2.42-8.15-3-14.2-.82-15.76a60.41,60.41,0,0,1,4.38-7.57c2.9-4.26,7-9.06,11.69-10.76,9.08-3.3,24.74-9.17,30.26-7C179.89,2.63,186.35-2.55,203,7.06Z"></path>
        <path class="cls-3" d="M203,31v3.49l-.29.24c-1.78,1.39-3.42,3-5.11,4.46a39.65,39.65,0,0,0-3.43,3.43l-1.24,1.39c-2.53,2.6-5,5.31-7.26,8.12-.39.47-.78.94-1.14,1.42-.18.2-.35.41-.51.62l-.21.28a121.59,121.59,0,0,1-8.27,10.12,2.12,2.12,0,0,1-1.45.75,2.33,2.33,0,0,1-.83-.09,2.22,2.22,0,0,1-.72-.4,2.19,2.19,0,0,1-.67-1.13,2.22,2.22,0,0,1,.1-1.3,39.59,39.59,0,0,1,4.94-8.18,37.81,37.81,0,0,1,2.62-3.06l.42-.44.57-.63a110.55,110.55,0,0,1,9.41-9.21c.35-.33.71-.66,1.08-1,1.06-.93,2.18-1.79,3.28-2.66.35-.27.7-.54,1-.82A60.29,60.29,0,0,1,201,32.41C201.69,32,202.35,31.48,203,31Z"></path>
        <path class="cls-3" d="M183.68,9.08A10.36,10.36,0,0,0,181,16.92,13.64,13.64,0,0,0,185,24.26l.71.79.82.7,1.67,1.41a25.8,25.8,0,0,1,3.28,3.33,13.77,13.77,0,0,1,2.46,4.2,7.23,7.23,0,0,1,.39,2.65,7.09,7.09,0,0,1-.22,1.38c-.17.45-.37.91-.57,1.33a1.28,1.28,0,0,1-.3.43,1.34,1.34,0,0,1-.45.29,1.29,1.29,0,0,1-.52.08,1.46,1.46,0,0,1-.51-.12,1.38,1.38,0,0,1-.43-.32A1.33,1.33,0,0,1,191,40a1.38,1.38,0,0,1,.08-1v-.14c1.16-1.8,0-4.57-1.64-6.77a24.21,24.21,0,0,0-2.83-3.16c-.51-.45-1.07-1.07-1.61-1.58l-.82-.81-.74-.91a14.84,14.84,0,0,1-3.73-8.46,10.92,10.92,0,0,1,3.39-8.46l.08-.05a.15.15,0,0,1,.09,0,.16.16,0,0,1,.1,0,.18.18,0,0,1,.07.05.24.24,0,0,1,0,.34Z"></path>
        <path class="cls-3" d="M203,40.33v2.34a23.39,23.39,0,0,0-5.32-.76,10.76,10.76,0,0,0-2.52.39,3.46,3.46,0,0,0-1,.36,3.75,3.75,0,0,0-1,.69A1.7,1.7,0,0,1,192,44a1.72,1.72,0,0,1-1.25-.39,1.66,1.66,0,0,1-.61-1.15,1.72,1.72,0,0,1,.38-1.24,5.88,5.88,0,0,1,.82-.69,6.48,6.48,0,0,1,2.42-1.1h0c.21-.05.43-.09.64-.12a14,14,0,0,1,3.17,0l.28,0A26.34,26.34,0,0,1,203,40.33Z"></path>
        <path class="cls-3" d="M203,62.59v3.34a12.91,12.91,0,0,1-1.3-1.46l-.88-1.21a22.33,22.33,0,0,0-2-2.2,25.27,25.27,0,0,0-4.92-3.41,26.16,26.16,0,0,0-5.65-2.23c-.83-.25-1.66-.45-2.5-.62-.63-.12-1.26-.23-1.9-.31s-1-.11-1.54-.14a1.29,1.29,0,0,1-1.11-1.29,1.28,1.28,0,0,1,.31-.84,1.33,1.33,0,0,1,.8-.44l.31,0a29,29,0,0,1,3.09.37,27.9,27.9,0,0,1,3.22.77A30.27,30.27,0,0,1,195,55.45a26.81,26.81,0,0,1,5.32,4,25.3,25.3,0,0,1,2.15,2.48Z"></path>
        <path class="cls-3" d="M162.89,12.64a34.34,34.34,0,0,0-3.36,8.46,22.31,22.31,0,0,0-.48,8.91,15,15,0,0,0,3.76,7.84,21.52,21.52,0,0,0,7.29,4.91h-.17a13.87,13.87,0,0,1,3.79,1.52A13.38,13.38,0,0,1,177,46.82a16.11,16.11,0,0,1,1.3,1.66,12.29,12.29,0,0,1,1,1.92,13.71,13.71,0,0,1,1,4.15,1.73,1.73,0,0,1,0,.64,1.56,1.56,0,0,1-.3.57,1.52,1.52,0,0,1-.49.42,1.68,1.68,0,0,1-2.48-1.24v-.39a9.62,9.62,0,0,0-.28-3.25,10.3,10.3,0,0,0-.57-1.52,8.39,8.39,0,0,0-.9-1.38,9.71,9.71,0,0,0-2.6-2.43,11.72,11.72,0,0,0-3.11-1.49h-.17a23.3,23.3,0,0,1-7.72-5.64,16.87,16.87,0,0,1-3.88-8.69,23.82,23.82,0,0,1,.74-9.39,33.4,33.4,0,0,1,3.5-8.69.54.54,0,0,1,.14-.16.4.4,0,0,1,.18-.1.5.5,0,0,1,.21,0,.37.37,0,0,1,.21.06.55.55,0,0,1,.17.14.46.46,0,0,1,.09.2.38.38,0,0,1,0,.21.48.48,0,0,1-.07.21Z"></path>
        <path class="cls-4" d="M62.41,85.51s-21.69-21.26-7.72-30.8c0,0-13.61-16.46,4.78-22.33,0,0-6.25-15,10.29-16.92a11.28,11.28,0,0,1,9.39-9,11.05,11.05,0,0,1,4.58.24c12.11,1.74,7.69-5.14,15-3.9s4.41,4.4,11,5.14,13.23-2.82,18,11c0,0,4.05-4.77,14.34,6.23,0,0,9.19-1.47,13.24,9.9,0,0,9.56.73,14.7,7s26.81,13.17,21.67,36.27S79,87.71,62.41,85.51Z"></path>
        <path class="cls-5" d="M85.09,79.28c0-1.1,1.67-23.1,1.39-32.15s-.68-18.42-.68-18.42.28-7.87,6.56-6.29a8.48,8.48,0,0,1,5.82,5.42c1,2.56,2.66,6,4.84,6.63,3.59,1.1,7.72-3.39,16.26,2.31s8.26,4.85,15.16,4.57,12.42-.28,17.65,5.21,4.13,7.17,10.18,10.47,3.59,5,7.44,9.61,7.69,3.3,9.36,9.34-.28,12.91-17.93,14.86-71.67,11.28-74.69,1.92S85.09,79.28,85.09,79.28Z"></path>
        <path class="cls-3" d="M102.77,81.62C101.44,78,100.36,74.54,99.32,71s-1.9-7.17-2.63-10.78S95.33,53,94.88,49.33a87.89,87.89,0,0,1-.65-11c0-.14,0-.25.25-.25a.29.29,0,0,1,.25.22,96.67,96.67,0,0,0,2,10.69c.91,3.5,1.9,7,3.09,10.38s2.49,6.77,3.87,10.09a94.23,94.23,0,0,0,4.55,9.68,2.8,2.8,0,0,1,.34,1.12,3,3,0,0,1-.11,1.16,3.18,3.18,0,0,1-.56,1,3.12,3.12,0,0,1-.91.74,3.16,3.16,0,0,1-1.12.34,3.27,3.27,0,0,1-1.17-.12,3,3,0,0,1-1-.56,2.93,2.93,0,0,1-.74-.9Z"></path>
        <path class="cls-3" d="M121.83,47.38a17.33,17.33,0,0,1-.43,8.46,15.75,15.75,0,0,1-4.75,7.34l-1.55,1.41c-.51.47-1,.94-1.45,1.43a15.21,15.21,0,0,0-2.34,3.13,7.9,7.9,0,0,0-1,3.44,39.47,39.47,0,0,0,0,4.07,2,2,0,0,1-2,1.73,2,2,0,0,1-2-1.73.71.71,0,0,1,0-.29A40.57,40.57,0,0,1,107,72a11.86,11.86,0,0,1,2-4.37,26.41,26.41,0,0,1,6.62-5.89,14.66,14.66,0,0,0,5-6.21,16.21,16.21,0,0,0,1-8.12S121.83,47.35,121.83,47.38Z"></path>
        <path class="cls-3" d="M142.33,55.76a39.61,39.61,0,0,1-.56,5.64A35.46,35.46,0,0,1,140.38,67,31,31,0,0,1,138,72.42,22.22,22.22,0,0,1,134,77.13a1.91,1.91,0,0,1-3.18-1.51,1.94,1.94,0,0,1,.63-1.31.56.56,0,0,1,.2-.14,18.77,18.77,0,0,0,3.79-3.44,27.49,27.49,0,0,0,2.83-4.48,37.25,37.25,0,0,0,2.06-5.08,35.82,35.82,0,0,0,1.33-5.38.3.3,0,0,1,.12-.17.31.31,0,0,1,.19-.06.26.26,0,0,1,.21,0A.27.27,0,0,1,142.33,55.76Z"></path>
        <path class="cls-6" d="M203,71.29v61.26l-.42.7c-.51.85-1,1.7-1.58,2.55q-1.89,2.94-4.05,5.82c-.4.51-.79,1-1.21,1.54a85.71,85.71,0,0,1-7.84,8.68c-.73.71-1.5,1.43-2.3,2.16H101.08a174,174,0,0,1-22.29-19.49l-.19-.19c-.54-.58-1.09-1.15-1.62-1.74q-1.68-1.82-3.27-3.68h0c-1-1.16-2-2.33-2.9-3.51-.48-.6-.94-1.2-1.4-1.81h0c-6.09-8-10.7-16.4-12.82-24.68A42.87,42.87,0,0,1,55,85.65a20.83,20.83,0,0,1,1.24-6.08c.11-.29.23-.58.35-.85,5.47-12.34,22.85-9.63,26.5-9.51a21.24,21.24,0,0,0,2.6,0c2.66-.26,3.55-1.32,7.16-3.63,2.26-1.45,3.45-1.55,4.81-.78s2.91,2.44,5.92,4.52l.1.07A12.45,12.45,0,0,0,107.26,71a17.9,17.9,0,0,0,3.18.62c5.47.63,12-.53,17.89-.78,2.42-.13,4.83-.22,7.25-.28h0L139,70.5H141a238.37,238.37,0,0,1,26.44,1.45,82,82,0,0,0,9.82.51h0A33.5,33.5,0,0,0,187.7,71a20.84,20.84,0,0,1,3.6-1c.4-.07.81-.13,1.21-.18a21.45,21.45,0,0,1,8.62.76A19.6,19.6,0,0,1,203,71.29Z"></path>
        <path class="cls-7" d="M145.5,154h-8c-.11-1.31-.22-2.63-.31-3.94q-.33-4.2-.51-8.4c-.15-3.19-.07-6.37,0-9.52h0c0-1,0-2.06,0-3.08s0-2.16-.07-3.24a85.61,85.61,0,0,0-.84-9c-.14-.89-.29-1.77-.46-2.65h0q-.51-2.73-1.22-5.42c-.35-1.33-.73-2.65-1.15-4a52.35,52.35,0,0,0-4.3-9.75q-.44-.78-.9-1.53a.5.5,0,0,1-.08-.2.41.41,0,0,1,0-.22.66.66,0,0,1,.09-.19.57.57,0,0,1,.16-.15.56.56,0,0,1,.36,0,.51.51,0,0,1,.29.23c.45.64.89,1.3,1.3,2a52.41,52.41,0,0,1,4.75,9.32,83,83,0,0,1,3.36,9.7c.22.78.43,1.58.63,2.37,0,0,0,0,0,.07A118.69,118.69,0,0,1,141,128.57c0,.11,0,.23.05.34l.4,3.2v0l.31,3.11a21.82,21.82,0,0,0,.31,3c.14,1,.23,2,.43,3q1.07,5.43,2.49,10.78C145.14,152.69,145.31,153.35,145.5,154Z"></path>
        <path class="cls-7" d="M137.07,135.62a18,18,0,0,1,2.07-4.42,25,25,0,0,1,2.82-3.81,30.77,30.77,0,0,1,7.36-5.89,36.63,36.63,0,0,1,8.48-3.59c3.06-.84,5.91-1.41,8.77-2.37a44.21,44.21,0,0,0,8.17-3.63,29.85,29.85,0,0,0,6.87-5.64,25.78,25.78,0,0,0,4.67-7.51,34,34,0,0,0,2.29-8.51.66.66,0,0,1,.06-.2.58.58,0,0,1,.14-.17.56.56,0,0,1,.19-.09.49.49,0,0,1,.21,0,.54.54,0,0,1,.37.19.65.65,0,0,1,.14.4,34.38,34.38,0,0,1-2.1,9,26.94,26.94,0,0,1-4.75,8,31.48,31.48,0,0,1-7.13,6,47.94,47.94,0,0,1-8.48,3.92c-2.83,1-6,1.72-8.8,2.53a35.54,35.54,0,0,0-8.08,3.56A28.29,28.29,0,0,0,143.6,129a24.24,24.24,0,0,0-2.43,3.58,17.54,17.54,0,0,0-1.75,3.81,1.38,1.38,0,0,1-.21.42,1.19,1.19,0,0,1-.37.3,1,1,0,0,1-.45.14,1.23,1.23,0,0,1-.47,0,1.32,1.32,0,0,1-.42-.23,1.12,1.12,0,0,1-.31-.37,1.18,1.18,0,0,1-.14-.45,1.31,1.31,0,0,1,0-.48Z"></path>
        <path class="cls-7" d="M186.09,129.49a.54.54,0,0,1-.15.38,50.41,50.41,0,0,1-4.83,6.26A28.51,28.51,0,0,1,175,141a42,42,0,0,1-7.35,3.27c-2.49.87-5,1.61-7.47,2.43L156.5,148c-.62.19-1.13.45-1.69.67a8.3,8.3,0,0,0-1.59.76,14.66,14.66,0,0,0-5.09,4.62h-4.41a18.51,18.51,0,0,1,1.25-2l.08-.12a17.85,17.85,0,0,1,6.5-5.64,10.92,10.92,0,0,1,2-.84,14.63,14.63,0,0,1,2-.71l3.87-.9A73.26,73.26,0,0,0,174,139.15a28.25,28.25,0,0,0,6.11-4.4,49.47,49.47,0,0,0,5.09-5.64.46.46,0,0,1,.18-.13.54.54,0,0,1,.22,0,.5.5,0,0,1,.21,0,.46.46,0,0,1,.18.13A.54.54,0,0,1,186.09,129.49Z"></path>
        <path class="cls-7" d="M141.65,154h-6.39a36.24,36.24,0,0,0-6.84-4.73,26.94,26.94,0,0,0-3-1.35l-1.5-.48-1.67-.45c-1.18-.34-2.34-.59-3.5-1l-3.4-1.21a39,39,0,0,1-12.24-7.67l-1.27-1.33-1.16-1.38A17.57,17.57,0,0,1,99.54,133c-.33-.48-.7-1-1-1.49a21,21,0,0,1-2.83-6.66.57.57,0,0,1,.09-.4.63.63,0,0,1,.33-.25.61.61,0,0,1,.4.07.59.59,0,0,1,.25.33l-.11.05a20.54,20.54,0,0,0,3.11,6,15,15,0,0,0,1,1.36c.36.42.7.87,1.1,1.27l1.19,1.21,1.3,1.1a36.25,36.25,0,0,0,11.91,6.4l3.28.93c1.07.31,2.23.48,3.33.73l1.73.34c.68.14,1.27.31,1.87.48a33.77,33.77,0,0,1,3.5,1.36,37.58,37.58,0,0,1,7.16,4.28A35.42,35.42,0,0,1,141.65,154Z"></path>
        <path class="cls-7" d="M90.24,84.86a36,36,0,0,0,7.46,15.57A39.28,39.28,0,0,0,111.34,111a48.34,48.34,0,0,0,8.17,3,39,39,0,0,1,8.48,3.89,31.2,31.2,0,0,1,7.1,6,23.6,23.6,0,0,1,4.7,8.15,1.42,1.42,0,0,1,.06.58,1.34,1.34,0,0,1-.16.55,1.33,1.33,0,0,1-.36.45,1.49,1.49,0,0,1-1.08.35,1.63,1.63,0,0,1-.56-.16,1.55,1.55,0,0,1-.45-.36,1.46,1.46,0,0,1-.28-.5,24,24,0,0,0-10.35-12.81,35.6,35.6,0,0,0-7.81-3.83,55,55,0,0,1-8.48-3.5,41.53,41.53,0,0,1-13.89-11.28,36.84,36.84,0,0,1-7.27-16.44.6.6,0,0,1,.1-.41.56.56,0,0,1,.36-.21.52.52,0,0,1,.4.09.55.55,0,0,1,.22.36Z"></path>
        <path class="cls-7" d="M137.16,120.08a8.41,8.41,0,0,0-.2-2.5c-.08-.42-.19-.84-.31-1.25-.46-.28-.51-.7-.74-1.07a28.24,28.24,0,0,0-2.6-4.23,16.13,16.13,0,0,0-3.51-3.44,20.72,20.72,0,0,0-2.12-1.3,14.69,14.69,0,0,1-2.37-1.52,23.29,23.29,0,0,1-6.51-8.71,46.77,46.77,0,0,1-3.19-10.13.26.26,0,0,1,.07-.18.27.27,0,0,1,.36,0,.26.26,0,0,1,.07.18,45.87,45.87,0,0,0,3.71,9.76,21.7,21.7,0,0,0,6.39,7.84,12.07,12.07,0,0,0,2.12,1.21,17,17,0,0,1,2.46,1.3,14.64,14.64,0,0,1,4.19,3.72,15.62,15.62,0,0,1,2.6,4.88,2.28,2.28,0,0,1,.23,1.38l.45,1.27c.31.88.59,1.72.88,2.82a1.34,1.34,0,0,1,.1.45,1.13,1.13,0,0,1-.1.44,1,1,0,0,1-.27.37,1.11,1.11,0,0,1-.4.22,1,1,0,0,1-.88-.12,1.05,1.05,0,0,1-.32-.31,1,1,0,0,1-.17-.43A1,1,0,0,1,137.16,120.08Z"></path>
        <path class="cls-7" d="M196.85,69.83a26.26,26.26,0,0,1,6.15,1V72.6a24.69,24.69,0,0,0-9-.85l-1.47.14a72.93,72.93,0,0,0-9.84,1.75l-1.47.31h-4.64c-2,0-3.93-.23-5.88-.37L159,72.65l-11.9-1-2.83-.25c-1,0-1.92-.17-2.81-.14h0c-1,0-2,.07-3,.16l-2.71.26-1.34.16a149.1,149.1,0,0,1-22.36,1c-.59,0-1.17-.08-1.75-.16a29.4,29.4,0,0,1-3.36-.55c-.33-.06-.65-.14-1-.22a12.27,12.27,0,0,1-1.46-.44,14.81,14.81,0,0,1-4.36-2.38c-.69-.58-1.31-1.21-1.85-1.76L98,67a3.07,3.07,0,0,0-1.58-1,4.35,4.35,0,0,0-2,.45,15.57,15.57,0,0,0-2.4,1.24c-.43.22-.82.48-1.22.73a13.77,13.77,0,0,1-1.39.79,16.86,16.86,0,0,1-3,1.21l-.72.19a21.28,21.28,0,0,1-5.56.63A26.4,26.4,0,0,1,77,71c-.94,0-1.87-.17-2.83-.17a23.79,23.79,0,0,0-5.52.43,15.12,15.12,0,0,0-9.22,5.21,21.06,21.06,0,0,0-2,3.24.37.37,0,0,0,0,.11,21,21,0,0,0-2.14,7h-.08c0-.4-.06-.81-.07-1.21a17.8,17.8,0,0,1,.49-4.71c.11-.49.23-1,.38-1.46s.26-.78.42-1.16a16.25,16.25,0,0,1,1.55-3,15.58,15.58,0,0,1,4.38-4.48A18.05,18.05,0,0,1,68,68.31a23.66,23.66,0,0,1,6.16-.62,22.39,22.39,0,0,1,3.06.14,26.7,26.7,0,0,0,2.83.17,17.87,17.87,0,0,0,5.34-.71l.4-.13a14.4,14.4,0,0,0,2-.83A11.05,11.05,0,0,0,89,65.65l1.3-.78a24.94,24.94,0,0,1,2.82-1.44,7.28,7.28,0,0,1,3.65-.65,4,4,0,0,1,.48.09,4.94,4.94,0,0,1,1.56.64,9.53,9.53,0,0,1,1.38,1.16c.74.73,1.36,1.38,2,1.94l.42.29A17.41,17.41,0,0,0,108,69.21a16.54,16.54,0,0,0,3.05.47c.42,0,.84,0,1.26,0a149.73,149.73,0,0,0,23.19-.85l1.37-.12c1-.08,1.95-.15,2.95-.19a1,1,0,0,1,.24,0c.46,0,.93,0,1.41,0a26.4,26.4,0,0,1,3.08.2l2.83.28,11.68,1.24,11.65,1.19,5.83.48h2.82a12.18,12.18,0,0,0,2.83-.34,70.71,70.71,0,0,1,9.12-1.48l1.21-.11,1.44-.1A28.06,28.06,0,0,1,196.85,69.83Z"></path>
        <path class="cls-7" d="M159.58,86.83a38.71,38.71,0,0,1-1.18,9.82,22.07,22.07,0,0,1-1.87,4.65,12,12,0,0,1-3.42,3.81l-1.16.65-1.11.51c-.73.33-1.41.76-2.12,1.15a37.52,37.52,0,0,0-3.93,2.82A47,47,0,0,0,138,117a1,1,0,0,1-.73.3,1.07,1.07,0,0,1-.74-.3.93.93,0,0,1-.26-.3.89.89,0,0,1-.12-.39.91.91,0,0,1,0-.4.94.94,0,0,1,.2-.35,45.24,45.24,0,0,1,7.38-6.79A36,36,0,0,1,148,106c.76-.4,1.5-.79,2.26-1.1l1.16-.51,1-.51a10.77,10.77,0,0,0,3.25-3.3,23.14,23.14,0,0,0,1.95-4.34,38.06,38.06,0,0,0,1.56-9.59.17.17,0,0,1,.17-.17.2.2,0,0,1,.17,0,.21.21,0,0,1,.14.1.23.23,0,0,1,0,.18A.2.2,0,0,1,159.58,86.83Z"></path>
      </g>
    </g>
  </g>
</svg>
