<?xml version="1.0" encoding="UTF-8"?>
<svg xmlns="http://www.w3.org/2000/svg" xmlns:xlink="http://www.w3.org/1999/xlink" viewBox="0 0 182 155.21">
  <defs>
    <style>
      .cls-1 {
        fill: #fff;
      }

      .cls-2 {
        fill: #486f3a;
      }

      .cls-24, .cls-29, .cls-3, .cls-35 {
        fill: #a6b69b;
      }

      .cls-4 {
        fill: #769b57;
      }

      .cls-5 {
        mask: url(#mask);
      }

      .cls-6 {
        fill: #4e731c;
      }

      .cls-7 {
        mask: url(#mask-2);
      }

      .cls-8 {
        mask: url(#mask-3);
      }

      .cls-9 {
        mask: url(#mask-4);
      }

      .cls-10 {
        mask: url(#mask-5);
      }

      .cls-11 {
        mask: url(#mask-6);
      }

      .cls-12 {
        mask: url(#mask-7);
      }

      .cls-13 {
        mask: url(#mask-8);
      }

      .cls-14 {
        mask: url(#mask-9);
      }

      .cls-15 {
        mask: url(#mask-10);
      }

      .cls-16 {
        mask: url(#mask-11);
      }

      .cls-17 {
        mask: url(#mask-12);
      }

      .cls-18 {
        mask: url(#mask-13);
      }

      .cls-19 {
        mask: url(#mask-14);
      }

      .cls-20 {
        mask: url(#mask-15);
      }

      .cls-21 {
        mask: url(#mask-16);
      }

      .cls-22 {
        mask: url(#mask-17);
      }

      .cls-23 {
        mask: url(#mask-18);
      }

      .cls-24, .cls-28, .cls-29, .cls-32, .cls-34, .cls-35 {
        stroke: #a6b69b;
        stroke-linecap: round;
        stroke-linejoin: round;
      }

      .cls-24 {
        stroke-width: 0.33px;
      }

      .cls-25 {
        fill: #b72b20;
      }

      .cls-26 {
        fill: #d15b57;
      }

      .cls-27 {
        fill: #e6a9a6;
      }

      .cls-28, .cls-32, .cls-34 {
        fill: none;
      }

      .cls-28, .cls-29 {
        stroke-width: 0.4px;
      }

      .cls-30 {
        mask: url(#mask-19);
      }

      .cls-31 {
        fill: #93261e;
      }

      .cls-32 {
        stroke-width: 0.62px;
      }

      .cls-33 {
        mask: url(#mask-20);
      }

      .cls-34, .cls-35 {
        stroke-width: 0.37px;
      }

      .cls-36 {
        mask: url(#mask-21);
      }
    </style>
    <mask id="mask" x="73.26" y="0.82" width="23.21" height="28.54" maskUnits="userSpaceOnUse">
      <g id="mask2_3453_2325" data-name="mask2 3453 2325">
        <path class="cls-1" d="M93.9,28.14a19.78,19.78,0,0,1-10.15-6.33s2.11-1.33,3.17-.8c0,0-6.33-2.5-7.27-5.45a8.85,8.85,0,0,1,4-.42s-5.28-2.22-6.33-6.6a20.16,20.16,0,0,0-4-7.68s6.67,1.41,10.55,6.22c0,0,1.58-1.47,1.33-2.3s4.77,6.89,5.21,8.57l.85-3.73S96,13.1,94.88,18.73A2.36,2.36,0,0,1,96.4,19,13.11,13.11,0,0,1,93.9,28.14Z"></path>
      </g>
    </mask>
    <mask id="mask-2" x="0" y="68.2" width="44.1" height="17.39" maskUnits="userSpaceOnUse">
      <g id="mask3_3453_2325" data-name="mask3 3453 2325">
        <path class="cls-1" d="M42.39,77.75A24.56,24.56,0,0,1,29.29,85s-.19-3.07,1.05-4c0,0-6.58,5.28-10.41,4.57,0,0,.64-3.25,2-4.61,0,0-5.66,4.4-11.08,2.86A25,25,0,0,0,0,83.45S5.62,77,13.27,75.73c0,0-.62-2.63-1.67-2.86s10.43-1,12.54-.41L20.6,69.23s6.78-3.17,12.18,1.58a3,3,0,0,1,1.29-1.46A16.46,16.46,0,0,1,42.39,77.75Z"></path>
      </g>
    </mask>
    <mask id="mask-3" x="56.52" y="28.27" width="34.41" height="28.9" maskUnits="userSpaceOnUse">
      <g id="mask4_3453_2325" data-name="mask4 3453 2325">
        <path class="cls-1" d="M89.33,55.71a24.77,24.77,0,0,1-14.16-4.82s2.11-2.21,3.71-1.88c0,0-8.38-1.27-10.41-4.6,0,0,2.83-1.72,4.75-1.64,0,0-7.07-1.21-9.59-6.25a24.87,24.87,0,0,0-7.11-8.25s8.54-.18,14.66,4.59c0,0,1.52-2.24,1-3.17s7.76,7,8.77,9v-4.8S87.81,36.75,88,43.93a2.93,2.93,0,0,1,1.94,0A16.51,16.51,0,0,1,89.33,55.71Z"></path>
      </g>
    </mask>
    <mask id="mask-4" x="97.5" y="25.43" width="29.27" height="16.73" maskUnits="userSpaceOnUse">
      <g id="mask5_3453_2325" data-name="mask5 3453 2325">
        <path class="cls-1" d="M98.46,34.83c.24,0,1.58,3.27,2.77,4.53s6.47,2.79,6.47,2.79.47-2.61-.16-3.54c0,0,1.25,2.37,5.28,1.52,0,0-.59-2.67-.51-2.69s3.65.87,4.82-.31,7.28-5.28,8.08-5.21-6-2.61-7-3.17-6.59-1.54-7.62.32c0,0,1.12-3.27,1.59-3.54s-4.68-.32-7,3.17c0,0,.85-2.87.57-3s-4.74,2.62-5.66,5.15S98.46,34.83,98.46,34.83Z"></path>
      </g>
    </mask>
    <mask id="mask-5" x="130.38" y="122.03" width="27.94" height="16.12" maskUnits="userSpaceOnUse">
      <g id="mask6_3453_2325" data-name="mask6 3453 2325">
        <path class="cls-1" d="M131.08,128c.26,0,.31,3.63,1,5.28s5,4.92,5,4.92,1.37-2.28,1.14-3.38c0,0,.29,2.67,4.35,3.32,0,0,.42-2.72.5-2.7s3.09,2.11,4.61,1.45,8.7-2.35,9.41-2-4.65-4.59-5.44-5.52-5.59-3.79-7.23-2.43c0,0,2.22-2.65,2.75-2.73s-4.22-2-7.66.45c0,0,1.83-2.37,1.61-2.59s-5.36.78-7.12,2.8A41.73,41.73,0,0,1,131.08,128Z"></path>
      </g>
    </mask>
    <mask id="mask-6" x="128.05" y="104.05" width="34.24" height="22.94" maskUnits="userSpaceOnUse">
      <g id="mask7_3453_2325" data-name="mask7 3453 2325">
        <path class="cls-1" d="M129.94,121.84c.28-.18,3.48,3.06,5.51,3.94s9,.07,9,.07-.76-3.31-1.94-4.1c0,0,2.63,2.19,6.94-.82,0,0-2-2.84-1.94-2.9s4.72-.79,5.52-2.76,5.9-9.84,6.91-10.11-8.34-.1-9.88-.25-8.44,1.45-8.79,4.15c0,0-.29-4.4.13-4.94s-5.67,1.93-6.64,7.18c0,0-.42-3.79-.82-3.79s-4.22,5.45-4.06,8.87S129.94,121.84,129.94,121.84Z"></path>
      </g>
    </mask>
    <mask id="mask-7" x="124.01" y="67.57" width="31.39" height="34.5" maskUnits="userSpaceOnUse">
      <g id="mask8_3453_2325" data-name="mask8 3453 2325">
        <path class="cls-1" d="M126.17,72.13s3.49-6.54,15.09-1.24c0,0-1.22,2.11-2.72,1.86,0,0,8.51.08,10.69,10.33,0,0,9,11.1,5.27,19l-5.1-10.91s.95,3.73-2.05,5.34c0,0-4.08-7.45-4.22-7.88S142.89,90,141,91.45a56.49,56.49,0,0,0-3.82-5.73C135.86,84.07,126.68,76.14,126.17,72.13Z"></path>
      </g>
    </mask>
    <mask id="mask-8" x="106.56" y="47.07" width="39.53" height="21.74" maskUnits="userSpaceOnUse">
      <g id="mask9_3453_2325" data-name="mask9 3453 2325">
        <path class="cls-1" d="M126.23,66.82s-7.23-6-18.27-1.38c0,0-.12-6.86,9.83-8.44,0,0,1-6.19,9.74-5,0,0,6.33-6.33,13.34-2.41,0,0-.48,3.85-2,4.22,0,0,8.76-.23,7,8.44C145.86,62.24,136.33,54,126.23,66.82Z"></path>
      </g>
    </mask>
    <mask id="mask-9" x="94.07" y="128.85" width="24.15" height="20.13" maskUnits="userSpaceOnUse">
      <g id="mask10_3453_2325" data-name="mask10 3453 2325">
        <path class="cls-1" d="M109.31,140.93s.08-6.33,7.29-9.94c0,0-3.46-3.08-8.63,1.31,0,0-3.61-2.2-6.83,2.8,0,0-6,.5-7.07,5.77,0,0,2.17,1.44,3.06.81,0,0-4,4.38,1.25,7.3C98.38,149,98.32,140.49,109.31,140.93Z"></path>
      </g>
    </mask>
    <mask id="mask-10" x="95.54" y="64.91" width="24.19" height="20.1" maskUnits="userSpaceOnUse">
      <g id="mask11_3453_2325" data-name="mask11 3453 2325">
        <path class="cls-1" d="M110.78,77s.09-6.33,7.28-10c0,0-3.45-3.06-8.62,1.33,0,0-3.6-2.21-6.83,2.79,0,0-6,.5-7.07,5.77,0,0,2.18,1.44,3.07.81,0,0-4,4.38,1.23,7.3C99.87,85,99.83,76.54,110.78,77Z"></path>
      </g>
    </mask>
    <mask id="mask-11" x="110.39" y="114.73" width="26.07" height="11.7" maskUnits="userSpaceOnUse">
      <g id="mask12_3453_2325" data-name="mask12 3453 2325">
        <path class="cls-1" d="M124,125.88s3.71-4.81,11.31-3.45c0,0-.88-4.34-7.38-4,0,0-1.5-3.75-6.85-1.78,0,0-4.91-3.07-8.74.37,0,0,.85,2.35,1.89,2.38,0,0-5.56,1.06-3.25,6.33C111,125.76,115.81,119.22,124,125.88Z"></path>
      </g>
    </mask>
    <mask id="mask-12" x="62.46" y="110.73" width="26.06" height="11.7" maskUnits="userSpaceOnUse">
      <g id="mask13_3453_2325" data-name="mask13 3453 2325">
        <path class="cls-1" d="M76,121.89s3.7-4.81,11.31-3.45c0,0-.9-4.34-7.39-4,0,0-1.49-3.76-6.84-1.78,0,0-4.91-3.07-8.74.37,0,0,.85,2.35,1.88,2.38,0,0-5.55,1.06-3.24,6.33C63,121.77,67.87,115.23,76,121.89Z"></path>
      </g>
    </mask>
    <mask id="mask-13" x="42.34" y="66.3" width="26.02" height="11.71" maskUnits="userSpaceOnUse">
      <g id="mask14_3453_2325" data-name="mask14 3453 2325">
        <path class="cls-1" d="M55.92,77.43s3.7-4.81,11.3-3.44c0,0-.89-4.34-7.39-3.95,0,0-1.49-3.77-6.83-1.78,0,0-4.91-3.07-8.75.37,0,0,.85,2.35,1.89,2.37,0,0-5.55,1.06-3.24,6.33C42.87,77.32,47.71,70.78,55.92,77.43Z"></path>
      </g>
    </mask>
    <mask id="mask-14" x="36.59" y="79.3" width="25.88" height="38.15" maskUnits="userSpaceOnUse">
      <g id="mask15_3453_2325" data-name="mask15 3453 2325">
        <path class="cls-1" d="M60.62,81.37s-10.19-3.65-17.16,1.24a4.3,4.3,0,0,0,.91,2,4.16,4.16,0,0,0,1.8,1.29s-8.44,2.51-9.58,8.75c0,0,3,1.87,4.89,1.25,0,0-3.64,2.81-3,6.86s1.45,5.93,1.45,8.12S42,117.37,42,117.37a29.9,29.9,0,0,1,2-5.83c.94-1.45,4.37-7.08,4.63-9a36.45,36.45,0,0,1,.78-3.87s.53,4.92,1.46,6.16l3.22-4.05c1.25-1.56,3.75-6.56,3.75-8.53a18.59,18.59,0,0,0,2.8,1.77A20.39,20.39,0,0,0,60.62,81.37Z"></path>
      </g>
    </mask>
    <mask id="mask-15" x="27.44" y="114.68" width="35.96" height="39.23" maskUnits="userSpaceOnUse">
      <g id="mask16_3453_2325" data-name="mask16 3453 2325">
        <path class="cls-1" d="M61.89,120.22s-10.14-7.82-19.77-4.87A5.06,5.06,0,0,0,44,120.08s-10.4-.28-14,6.33c0,0,2.71,3.16,5,3.16,0,0-5.13,1.83-5.91,6.62s-.53,7.2-1.33,9.66,0,8,0,8,2.78-4.54,4.36-5.83,7.5-6.34,8.44-8.37a45.28,45.28,0,0,1,2.29-4.08s-1.21,5.72-.61,7.47l5.1-3.38c2-1.3,6.62-6,7.34-8.23a19.7,19.7,0,0,0,2.52,3A24.33,24.33,0,0,0,61.89,120.22Z"></path>
      </g>
    </mask>
    <mask id="mask-16" x="137.36" y="53.28" width="44.64" height="22.81" maskUnits="userSpaceOnUse">
      <g id="mask17_3453_2325" data-name="mask17 3453 2325">
        <path class="cls-1" d="M139.44,66.42s2.11-4.47,3.84-5.84a3.51,3.51,0,0,1,1.45-.45,3.64,3.64,0,0,1,1.5.17s2.41-5.27,5.28-6c0,0,1.53,1.45,1.29,3,0,0,4.15-4.57,9.61-3.95,0,0,.11,3.33-.73,4.22,0,0,6.81-1.74,11.51,1.74a21.17,21.17,0,0,0,8.81,4s-9.31,4.84-12.11,5.67-8.28,1-9.56.3c0,0,2.55,2.47,2.76,4.78,0,0-6.7-1-10-3,0,0,1.62,3.39.37,5,0,0-2.17-2.41-3.52-2.85a8.7,8.7,0,0,1-2.91-2.34s-.14,2.53-.94,3a11.63,11.63,0,0,1-6.69-7.45Z"></path>
      </g>
    </mask>
    <mask id="mask-17" x="89.86" y="0" width="46.14" height="28.07" maskUnits="userSpaceOnUse">
      <g id="mask18_3453_2325" data-name="mask18 3453 2325">
        <path class="cls-1" d="M94.83,25.37s-6.2-5.73,3-17c0,0,1.94,1.94,1.28,3.55,0,0,2.53-9.37,14.48-8.85,0,0,14.77-6.71,22.45-.36l-13.52,2.5s4.39,0,5.28,3.8c0,0-9.4,2.37-9.91,2.36s1.44.66,2.52,3.16A66.42,66.42,0,0,0,113,17.12C110.78,18.09,99.41,26,94.83,25.37Z"></path>
      </g>
    </mask>
    <mask id="mask-18" x="113.89" y="139.43" width="23.19" height="25.48" maskUnits="userSpaceOnUse">
      <g id="mask19_3453_2325" data-name="mask19 3453 2325">
        <path class="cls-1" d="M115.49,142.8s2.58-4.83,11.16-.93c0,0-.91,1.53-2,1.39,0,0,6.33.06,7.89,7.62,0,0,6.62,8.21,3.89,14l-3.77-8.07s.7,2.75-1.51,3.95c0,0-3-5.51-3.1-5.83s-.18,1-1.55,2.11a40.16,40.16,0,0,0-2.81-4.22C122.66,151.62,115.87,145.76,115.49,142.8Z"></path>
      </g>
    </mask>
    <mask id="mask-19" x="111.47" y="86.22" width="26.07" height="30.22" maskUnits="userSpaceOnUse">
      <g id="mask20_3453_2325" data-name="mask20 3453 2325">
        <path class="cls-1" d="M115,88.58c.23.23-2.24,4-2.69,6.13s1.75,8.64,1.75,8.64,3-1.4,3.57-2.71c0,0-1.57,3,2.2,6.55,0,0,2.35-2.54,2.42-2.47s1.72,4.41,3.79,4.77,10.72,3.73,11.18,4.63-1.6-8.08-1.76-9.6-3.16-7.91-5.8-7.66c0,0,4.22-1.18,4.8-.88s-3-5.09-8.29-5c0,0,3.57-1.18,3.5-1.56s-6.14-3-9.41-2.11S115,88.58,115,88.58Z"></path>
      </g>
    </mask>
    <mask id="mask-20" x="57.54" y="127.51" width="19.1" height="25.01" maskUnits="userSpaceOnUse">
      <g id="mask21_3453_2325" data-name="mask21 3453 2325">
        <path class="cls-1" d="M73.36,129.22c-.16.19,2,3,2.52,4.62s-.8,6.91-.8,6.91-2.47-.9-3-1.88c0,0,1.43,2.24-1.28,5.28,0,0-2-1.83-2.06-1.77s-1.06,3.57-2.64,4S58,150,57.69,150.74s.72-6.42.75-7.63,1.92-6.4,4-6.38c0,0-3.36-.64-3.81-.37s2-4.22,6.15-4.43c0,0-2.88-.69-2.84-1s4.6-2.76,7.22-2.29S73.36,129.22,73.36,129.22Z"></path>
      </g>
    </mask>
    <mask id="mask-21" x="66.68" y="52.7" width="18.41" height="26.72" maskUnits="userSpaceOnUse">
      <g id="mask22_3453_2325" data-name="mask22 3453 2325">
        <path class="cls-1" d="M83.52,55.77s-3.17-4-10.39,1c0,0,1.05,1.26,2.11.94,0,0-5.75,1-6,8.27,0,0-4.74,8.6-1.29,13.49l2.11-8s-.19,2.65,2,3.37c0,0,1.87-5.53,1.89-5.83s.33.89,1.75,1.66a41.91,41.91,0,0,1,1.9-4.34C78.37,65,83.65,58.55,83.52,55.77Z"></path>
      </g>
    </mask>
  </defs>
  <g id="Слой_2" data-name="Слой 2">
    <g id="Слой_1-2" data-name="Слой 1">
      <g>
        <path class="cls-2" d="M73.07,62s2.49-.74,2.66,0c0,0-1.58-.12-1.63.45,0,0-.57.56,0,.9S76,65,76.75,65a2.9,2.9,0,0,1-1.65.06,2.86,2.86,0,0,1-1.4-.85s-2.43-.24-2-1.53a3.41,3.41,0,0,1-.67-1.7,3.51,3.51,0,0,1,.28-1.81S72.18,63,73.07,62Z"></path>
        <path class="cls-2" d="M99,68.23s2.42,0,2.19-2.27.74.4.45,1.13-.62,1.81-1.29,2c0,0-1.35,1.92-2.6,1.13,0,0-1.36,1.36-2.43.62,0,0,3.17-1.18,2.94-2.2S99,68.23,99,68.23Z"></path>
        <path class="cls-2" d="M79.6,72.37a1.58,1.58,0,0,1-.7.37,1.63,1.63,0,0,1-.79,0,1.7,1.7,0,0,1-.72-.33,1.91,1.91,0,0,1-.5-.63s.06,1.82,1.18,1.87a1.78,1.78,0,0,0,.6.41,1.88,1.88,0,0,0,.7.16,2.23,2.23,0,0,0,2.43,0S78.87,74,79.6,72.37Z"></path>
        <path class="cls-3" d="M92.93,34.87v.06a.09.09,0,0,1,0,0v0c-.07.64-.14,1.3-.2,2l0,.41c-.29,3.67-.28,7.44-.39,11.15-.14,4.54-.1,9.15-.14,13.69V90.6l0,7.8v7h0l0,10.87,0,16.82,0,9v3.55c0,2.35,0,4.69,0,7,0,.41,0,.81,0,1.21V155H88.11c0-.22,0-.44,0-.65l0-2.06c0-.92,0-1.83,0-2.74l0-2.78c0-.27,0-.55,0-.82,0-.57,0-1.14,0-1.71l0-2.23,0-1.39.14-7v-.41l0-1.19.08-4.13,0-1,.42-22h0l.08-4,0-1.32v-.4h0l0-1.27,0-1.87,0-1.48s0,0,0,0l0-.52h0l.05-2.76,0-1.62V89.4c0-.11,0-.22,0-.33h0c0-.3,0-.6,0-.9h0c0-.35,0-.69,0-1.05V87c0-.16,0-.32,0-.48,0-.37,0-.75,0-1.13l0-1.4c0-.39,0-.77,0-1.15s0-.88,0-1.32l0-1.09v-.08c0-.34,0-.68,0-1s0-.54,0-.81v-.39c0-.15,0-.29,0-.44h0c0-.72,0-1.44,0-2.16,0-.29,0-.58,0-.87s0-.58,0-.87l0-1.47h0l0-1c0-.2,0-.4,0-.59s0-.33,0-.49V70c.07-2.62.16-5.23.26-7.85.06-1.69.14-3.38.22-5.08l0-.57c0-.25,0-.51,0-.76L90.37,54h0l.12-2.09c.07-1.15.14-2.29.22-3.44,0-.06,0-.11,0-.17v0c.15-2.22.34-4.43.56-6.65s.45-4.44.92-6.71a.31.31,0,0,1,0-.13.34.34,0,0,1,.15-.23.37.37,0,0,1,.27-.05.4.4,0,0,1,.22.14A.37.37,0,0,1,92.93,34.87Z"></path>
        <path class="cls-3" d="M90.2,115.13A44.48,44.48,0,0,1,92,105.85a48.75,48.75,0,0,1,3.58-8.69,43.07,43.07,0,0,1,5.28-7.77A35.87,35.87,0,0,1,104.15,86c1.17-1,2.32-2,3.48-3.06,2.31-2,4.61-4,7-6a45.15,45.15,0,0,1,7.71-5.28,60.35,60.35,0,0,1,8.56-3.56c1.47-.5,3-1,4.43-1.35.75-.2,1.5-.38,2.26-.56a12.71,12.71,0,0,1,2.29-.37.32.32,0,0,1,.21.08.37.37,0,0,1,.09.2.33.33,0,0,1-.06.19.36.36,0,0,1-.16.11,71.26,71.26,0,0,0-17.09,6.33c-5.27,2.91-9.64,7.31-14.21,11.39-1.12,1.06-2.3,2.11-3.36,3.09a36.92,36.92,0,0,0-3.05,3.33,40.65,40.65,0,0,0-4.84,7.54,46.35,46.35,0,0,0-3.23,8.44,41.66,41.66,0,0,0-1.55,8.78v.06a1.26,1.26,0,0,1-.38.9,1,1,0,0,1-.42.26,1.15,1.15,0,0,1-.49.08,1.37,1.37,0,0,1-.48-.13,1.26,1.26,0,0,1-.38-.31,1.1,1.1,0,0,1-.23-.44,1.17,1.17,0,0,1,0-.49Z"></path>
        <path class="cls-3" d="M39.72,77.25a60.54,60.54,0,0,1,7.62.13,68,68,0,0,1,7.53,1,52,52,0,0,1,14.41,4.81A81.84,81.84,0,0,1,82.12,91.3a51.93,51.93,0,0,1,5.7,5.09,28.29,28.29,0,0,1,4.76,6.19,1,1,0,0,1,.18.41.94.94,0,0,1,0,.44,1,1,0,0,1-.53.69,1.08,1.08,0,0,1-.43.13,1.1,1.1,0,0,1-.44-.07,1.05,1.05,0,0,1-.37-.25.91.91,0,0,1-.24-.37,27.26,27.26,0,0,0-4.15-6,52.52,52.52,0,0,0-5.35-5.2A77.92,77.92,0,0,0,68.8,84.1a49.41,49.41,0,0,0-14.07-4.84,60,60,0,0,0-14.9-1,.56.56,0,0,1-.39-.13.57.57,0,0,1-.18-.37.44.44,0,0,1,0-.2.52.52,0,0,1,.1-.18.61.61,0,0,1,.16-.12.73.73,0,0,1,.21-.06Z"></path>
        <path class="cls-3" d="M124.18,127.74v0a.19.19,0,0,1,0,.1l-.19.21-.06.06c-3.38,3.64-6.59,7.42-9.7,11.28-1,1.31-2.1,2.63-3.12,4L110,144.86c-1.67,2.22-3.29,4.47-4.84,6.77-.77,1.11-1.52,2.24-2.25,3.37H101c1-1.41,1.94-2.81,3-4.18,2.07-2.85,4.23-5.61,6.45-8.31h0c1-1.23,2-2.44,3-3.65,3.25-3.86,6.74-7.6,10.31-11.19l0,0a.12.12,0,0,1,.08,0,.08.08,0,0,1,.07,0,.2.2,0,0,1,.15.06.15.15,0,0,1,.06.09A.08.08,0,0,1,124.18,127.74Z"></path>
        <path class="cls-3" d="M94.5,28A25.39,25.39,0,0,1,94,31.59,16.56,16.56,0,0,1,92.9,35a.37.37,0,0,1-.21.18.36.36,0,0,1-.27,0,.44.44,0,0,1-.19-.19.36.36,0,0,1,0-.27,14.72,14.72,0,0,0,.91-3.32A23.16,23.16,0,0,0,93.45,28a.48.48,0,0,1,0-.2.66.66,0,0,1,.12-.17l.17-.11a.62.62,0,0,1,.41,0,.48.48,0,0,1,.16.12.66.66,0,0,1,.12.17.69.69,0,0,1,0,.2Z"></path>
        <path class="cls-4" d="M29.81,150.17a2.17,2.17,0,0,1,.43.08h0l-.41-.07A0,0,0,0,0,29.81,150.17Z"></path>
        <path class="cls-4" d="M93.9,28.14a19.73,19.73,0,0,1-10.15-6.33s2.11-1.33,3.17-.79c0,0-6.33-2.5-7.27-5.46a9,9,0,0,1,4-.42s-5.28-2.21-6.33-6.59a20,20,0,0,0-4-7.68s6.67,1.4,10.55,6.21c0,0,1.58-1.47,1.32-2.3s4.78,6.89,5.22,8.58l.85-3.74s4.84,3.49,3.68,9.11a2.31,2.31,0,0,1,1.52.32A13.15,13.15,0,0,1,93.9,28.14Z"></path>
        <g class="cls-5">
          <path class="cls-6" d="M92.24,28.53s1.24-1.17-1.06-2.48a71.45,71.45,0,0,1-6-4.11,49.12,49.12,0,0,0,5.13.9c.56-.1-1.48-3.64-3.79-4.22a15,15,0,0,1-4.52-2.23s4.41.07,4.91.42-.54-2.9-2-3.52-6.33-4.63-7-4.67l4.75,1.88L73.26.82S84,8.45,84.63,10.5a9.87,9.87,0,0,1,1.18-2.28,28.85,28.85,0,0,0,2.11,6.26,24.52,24.52,0,0,0,2.31,3.88,18.92,18.92,0,0,0,1.64-4.91s1,2.11.13,6.5c0,0,3.17,5.88,3.07,8.26S92.24,28.53,92.24,28.53Z"></path>
        </g>
        <path class="cls-4" d="M94,28c-.22-.69-.47-1.36-.73-2s-.55-1.32-.86-2c-.59-1.3-1.23-2.59-1.94-3.83A56.85,56.85,0,0,0,85.7,13a54.11,54.11,0,0,0-5.78-6.33,56.78,56.78,0,0,0-6.69-5.37,55.75,55.75,0,0,1,6.63,5.44,54.49,54.49,0,0,1,5.71,6.33,56.31,56.31,0,0,1,4.66,7.16c.69,1.24,1.31,2.53,1.89,3.83.29.64.57,1.31.82,2s.5,1.33.7,2Z"></path>
        <path class="cls-4" d="M92.56,24.61a25.44,25.44,0,0,1-3-.78c-.49-.16-1-.33-1.45-.53s-1-.4-1.4-.62c.45.23.91.46,1.38.66s.95.4,1.43.57a26,26,0,0,0,3,.87Z"></path>
        <path class="cls-4" d="M89.91,19.3c-1-.46-2-.9-3.08-1.32l-1.55-.62-.79-.28a1.56,1.56,0,0,1-.4-.13l-.2-.05.2.07.39.13.78.3c.52.21,1.06.43,1.54.66,1.06.45,2,.92,3,1.4Z"></path>
        <path class="cls-4" d="M90.65,20.66,91.33,18l.33-1.33c.1-.45.22-.9.3-1.35-.1.45-.23.89-.35,1.33L91.24,18l-.75,2.65Z"></path>
        <path class="cls-4" d="M86.91,14.6c-.18-.41-.34-.84-.49-1.27S86.15,12.45,86,12a12.19,12.19,0,0,1-.26-1.34,6.32,6.32,0,0,1-.06-1.37,6.27,6.27,0,0,0,0,1.37A12.06,12.06,0,0,0,85.94,12c.09.44.22.9.35,1.34s.28.87.44,1.31Z"></path>
        <path class="cls-4" d="M85.32,12.51c-1-.6-2.11-1.2-3.16-1.78l-1.57-.88c-.53-.28-1.06-.58-1.6-.82.54.25,1.06.56,1.58.86l1.55.91,3.07,1.86Z"></path>
        <path class="cls-4" d="M42.39,77.75A24.56,24.56,0,0,1,29.29,85s-.19-3.07,1.05-4c0,0-6.58,5.28-10.41,4.57,0,0,.64-3.25,2-4.61,0,0-5.66,4.4-11.08,2.86A25,25,0,0,0,0,83.45S5.62,77,13.27,75.73c0,0-.62-2.63-1.67-2.86s10.43-1,12.54-.41L20.6,69.23s6.78-3.17,12.18,1.58a3,3,0,0,1,1.29-1.46A16.46,16.46,0,0,1,42.39,77.75Z"></path>
        <g class="cls-7">
          <path class="cls-6" d="M41.81,79.77s-.5-2.11-3.34-.38a85.79,85.79,0,0,1-8.15,3.91,60.54,60.54,0,0,0,4.15-5c.23-.67-4.89-.62-6.92,1.53a18.26,18.26,0,0,1-5.28,3.54s2.8-4.74,3.48-5.07-3.49-1.2-5,0-8.9,4-9.39,4.74l5.06-3.93L0,83.45s14.87-7,17.51-6.48a12.62,12.62,0,0,1-1.75-2.68,36.39,36.39,0,0,0,8.14,1.5,30.36,30.36,0,0,0,5.64-.13s-2.67-3.77-4.33-4.8c0,0,3,.15,7.15,3.85,0,0,8.38.12,10.9,1.73S41.81,79.77,41.81,79.77Z"></path>
        </g>
        <path class="cls-4" d="M42.3,77.54c-.89-.2-1.76-.34-2.66-.46s-1.78-.22-2.67-.29c-1.79-.15-3.59-.23-5.38-.24a71,71,0,0,0-10.71.79A69.22,69.22,0,0,0,.48,83.73a69.29,69.29,0,0,1,20.43-6.18,72,72,0,0,1,10.68-.68c1.78,0,3.56.13,5.34.3.88.08,1.77.19,2.66.32s1.76.27,2.61.47Z"></path>
        <path class="cls-4" d="M37.74,77a30.46,30.46,0,0,1-2.68,2.77c-.46.43-1,.85-1.46,1.25s-1.05.78-1.55,1.15c.54-.35,1.06-.72,1.58-1a9.87,9.87,0,0,0,1.5-1.22,29.53,29.53,0,0,0,2.78-2.7Z"></path>
        <path class="cls-4" d="M30.32,76.62c-1.12.83-2.22,1.68-3.32,2.54-.55.44-1.06.87-1.63,1.31l-.8.69-.38.36-.18.19-.17.2.18-.2.18-.18.39-.35.81-.67c.55-.43,1.06-.85,1.66-1.26,1.12-.84,2.26-1.65,3.39-2.45Z"></path>
        <path class="cls-4" d="M32.26,76.65l-2.5-2.38-1.27-1.18c-.42-.39-.84-.79-1.27-1.16.42.39.82.79,1.24,1.2l1.21,1.22L32.1,76.8Z"></path>
        <path class="cls-4" d="M23.37,77c-.57-.06-1.13-.16-1.7-.26s-1.12-.24-1.67-.38a15.55,15.55,0,0,1-1.63-.54,7.66,7.66,0,0,1-1.49-.74,7.84,7.84,0,0,0,1.5.83,13.6,13.6,0,0,0,1.62.58c.55.18,1.11.32,1.67.45s1.13.23,1.7.32Z"></path>
        <path class="cls-4" d="M20.11,77.44l-3.86,2.3-1.92,1.19c-.64.4-1.28.78-1.88,1.23.61-.44,1.26-.81,1.91-1.19l1.94-1.13,3.91-2.21Z"></path>
        <path class="cls-4" d="M89.33,55.71a24.69,24.69,0,0,1-14.16-4.82s2.11-2.2,3.71-1.88c0,0-8.38-1.26-10.41-4.6,0,0,2.83-1.72,4.75-1.63,0,0-7.07-1.22-9.59-6.26a24.87,24.87,0,0,0-7.11-8.25s8.54-.18,14.66,4.59c0,0,1.52-2.24,1-3.17s7.76,7,8.77,9v-4.8S87.81,36.75,88,43.94a2.81,2.81,0,0,1,1.94,0A16.49,16.49,0,0,1,89.33,55.71Z"></path>
        <g class="cls-8">
          <path class="cls-6" d="M87.46,56.64s1.17-1.83-2-2.73A87.44,87.44,0,0,1,77,50.59a56.55,56.55,0,0,0,6.51-.34c.64-.28-2.84-4-5.8-4.07a18.39,18.39,0,0,1-6.15-1.47s5.39-1.14,6.1-.85-1.47-3.39-3.39-3.74-9-3.88-9.83-3.73l6.33,1L56.52,28.27s15.22,6.22,16.59,8.6a11.93,11.93,0,0,1,.8-3.16,36.23,36.23,0,0,0,4.39,7,30.16,30.16,0,0,0,3.91,4.08s1-4.52.61-6.44c0,0,1.89,2.29,2,7.87,0,0,5.57,6.27,6.07,9.22S87.46,56.64,87.46,56.64Z"></path>
        </g>
        <path class="cls-3" d="M89.43,55.49c-.45-.78-1-1.53-1.46-2.27s-1-1.45-1.59-2.17c-1.06-1.41-2.25-2.8-3.45-4.12a71.73,71.73,0,0,0-7.81-7.39,68.55,68.55,0,0,0-8.83-6.09,69.78,69.78,0,0,0-9.66-4.66,69.61,69.61,0,0,1,9.6,4.75A68.3,68.3,0,0,1,75,39.71a70.73,70.73,0,0,1,7.71,7.38c1.18,1.33,2.31,2.73,3.38,4.14.54.72,1.06,1.43,1.56,2.17s1,1.49,1.42,2.26Z"></path>
        <path class="cls-3" d="M86.75,51.76a30.73,30.73,0,0,1-3.84-.11A12.42,12.42,0,0,1,81,51.42c-.64-.11-1.27-.23-1.89-.37.62.17,1.25.31,1.89.43s1.26.21,1.91.28a31.1,31.1,0,0,0,3.86.21Z"></path>
        <path class="cls-3" d="M82,46c-1.37-.27-2.74-.51-4.12-.74-.69-.12-1.38-.22-2.11-.32l-1.06-.11H74.2l.52.05a5.45,5.45,0,0,1,1,.16c.7.1,1.39.23,2.11.36,1.37.26,2.74.55,4.1.85Z"></path>
        <path class="cls-3" d="M83.35,47.48V42.31L83.27,44l-.17,3.45Z"></path>
        <path class="cls-3" d="M77,41.17c-.33-.46-.64-1-.94-1.43s-.59-1-.84-1.49a15.67,15.67,0,0,1-.72-1.56A8,8,0,0,1,74.07,35a8.21,8.21,0,0,0,.4,1.68c.19.54.42,1,.66,1.59a15.42,15.42,0,0,0,.8,1.52c.29.47.59,1,.91,1.48Z"></path>
        <path class="cls-3" d="M74.51,39.06c-1.42-.44-2.86-.87-4.3-1.3l-2.11-.62c-.72-.2-1.44-.42-2.18-.55q1.1.25,2.16.6c.72.22,1.44.45,2.11.68,1.44.45,2.85.93,4.22,1.4Z"></path>
        <path class="cls-4" d="M98.46,34.83c.24,0,1.58,3.27,2.77,4.53s6.47,2.79,6.47,2.79.47-2.61-.16-3.54c0,0,1.25,2.37,5.28,1.52,0,0-.59-2.67-.51-2.69s3.65.87,4.82-.31,7.28-5.28,8.09-5.21-6-2.61-7.06-3.17-6.59-1.54-7.62.32c0,0,1.12-3.27,1.59-3.54s-4.68-.32-7,3.17c0,0,.85-2.87.57-3s-4.74,2.62-5.66,5.15S98.46,34.83,98.46,34.83Z"></path>
        <g class="cls-9">
          <path class="cls-6" d="M102.4,40.88a21.85,21.85,0,0,0,5.28,1.26s-1-4-4-5.83c-.83-.5,1.74-.32,3.63,1.33a7.39,7.39,0,0,0,3.17,1.69.29.29,0,0,0,.16,0l.15-.06a.25.25,0,0,0,.12-.11A.35.35,0,0,0,111,39a4.29,4.29,0,0,0-1.16-4.26.37.37,0,0,1-.07-.12.33.33,0,0,1,0-.14.28.28,0,0,1,.08-.11.23.23,0,0,1,.12-.06c2.91-.43,15.27-2,16.63-1.68s-6.16-2.11-19.24-.77a.52.52,0,0,1-.17,0,.48.48,0,0,1-.16-.08.38.38,0,0,1-.11-.14.34.34,0,0,1-.05-.17,3.8,3.8,0,0,1,.62-2.74.2.2,0,0,0,0-.08.16.16,0,0,0,0-.09.13.13,0,0,0-.07-.05h-.09A10.79,10.79,0,0,0,103,31.25a.28.28,0,0,1-.15.08.23.23,0,0,1-.16,0,.19.19,0,0,1-.11-.12.22.22,0,0,1,0-.16c.11-.53.27-1.17.41-1.75a.33.33,0,0,0,0-.14.54.54,0,0,0-.07-.13.33.33,0,0,0-.13-.07h-.14c-3,.69-3.86,2.51-4.74,3.38C96.22,34.05,100,39.88,102.4,40.88Z"></path>
        </g>
        <path class="cls-3" d="M123.8,32.32h-4.07l-4.06.12c-1.35.06-2.7.15-4,.24s-2.7.24-4,.43a59.85,59.85,0,0,0-8,1.5,24.84,24.84,0,0,0-7.39,3L92,37.36a24.82,24.82,0,0,1,7.59-3,63.61,63.61,0,0,1,8-1.41c1.35-.18,2.7-.25,4.05-.38s2.71-.16,4.06-.21l4.06-.06Z"></path>
        <path class="cls-3" d="M99.18,34.42a16.3,16.3,0,0,1,4,4.62,15.81,15.81,0,0,0-4.22-4.33Z"></path>
        <path class="cls-3" d="M105.06,33.23a26.38,26.38,0,0,1,5.11,3.52,25.91,25.91,0,0,0-5.28-3.16Z"></path>
        <path class="cls-3" d="M99.28,34.33a16.67,16.67,0,0,1,1-2.11,5.82,5.82,0,0,1,1.42-1.81,5.79,5.79,0,0,0-1.26,1.9,14.39,14.39,0,0,0-.77,2.11Z"></path>
        <path class="cls-3" d="M103.4,33.58a7.47,7.47,0,0,1,1.35-2.27,10.35,10.35,0,0,1,1.92-1.76,10.46,10.46,0,0,0-1.78,1.86,7.6,7.6,0,0,0-1.18,2.3Z"></path>
        <path class="cls-4" d="M131.08,128c.26,0,.31,3.63,1,5.27s5,4.92,5,4.92,1.37-2.28,1.14-3.38c0,0,.29,2.67,4.35,3.33a27.3,27.3,0,0,1,.5-2.7c.08,0,3.09,2.11,4.61,1.44s8.7-2.35,9.41-2-4.65-4.59-5.44-5.52-5.59-3.79-7.23-2.42c0,0,2.21-2.65,2.75-2.74s-4.22-2-7.66.46c0,0,1.83-2.38,1.61-2.6s-5.36.78-7.12,2.81S131.08,128,131.08,128Z"></path>
        <g class="cls-10">
          <path class="cls-6" d="M132.6,135a21.17,21.17,0,0,0,4.49,3.08s.57-4.12-1.6-6.86c-.6-.76,1.74.32,2.91,2.54a7.42,7.42,0,0,0,2.3,2.7.43.43,0,0,0,.31.06.39.39,0,0,0,.26-.17,4.29,4.29,0,0,0,.5-4.43.21.21,0,0,1,0-.26.19.19,0,0,1,.11-.08.32.32,0,0,1,.14,0c2.8.68,14.95,3.63,16.13,4.47s-5-4.22-17.67-7.62a.46.46,0,0,1-.28-.21.48.48,0,0,1,0-.35,3.83,3.83,0,0,1,1.57-2.33.16.16,0,0,0,.07-.07.13.13,0,0,0,0-.09.22.22,0,0,0-.05-.08.1.1,0,0,0-.09,0,10.77,10.77,0,0,0-5,1,.22.22,0,0,1-.16,0,.29.29,0,0,1-.14-.08.39.39,0,0,1-.06-.15.29.29,0,0,1,0-.16l1.05-1.48a.21.21,0,0,0,0-.13.22.22,0,0,0,0-.14.31.31,0,0,0-.09-.11.26.26,0,0,0-.13-.06c-3.08-.44-4.5,1-5.63,1.46C129.29,126.44,130.66,133.21,132.6,135Z"></path>
        </g>
        <path class="cls-3" d="M155.24,134.51l-3.78-1.46-3.83-1.36c-1.29-.42-2.59-.81-3.89-1.22s-2.59-.75-3.91-1.05a60.21,60.21,0,0,0-8-1.47,24.54,24.54,0,0,0-8,.16l-.11-.34a24.83,24.83,0,0,1,8.16-.08,58.41,58.41,0,0,1,8,1.55c1.32.31,2.61.73,3.92,1s2.58.82,3.86,1.27l3.82,1.39Z"></path>
        <path class="cls-3" d="M131.94,127.84a16.16,16.16,0,0,1,2,5.75,15.73,15.73,0,0,0-2.34-5.55Z"></path>
        <path class="cls-3" d="M137.82,128.84a25.36,25.36,0,0,1,3.56,5.1,25.4,25.4,0,0,0-3.76-4.88Z"></path>
        <path class="cls-3" d="M132,127.8a15,15,0,0,1,1.65-1.64,6,6,0,0,1,2-1.19,6.12,6.12,0,0,0-1.86,1.32,16.17,16.17,0,0,0-1.48,1.72Z"></path>
        <path class="cls-3" d="M136.1,128.55a7.42,7.42,0,0,1,2.11-1.63,11.85,11.85,0,0,1,2.43-1,11.89,11.89,0,0,0-2.33,1.12,7.22,7.22,0,0,0-1.88,1.69Z"></path>
        <path class="cls-4" d="M129.94,121.83c.28-.18,3.48,3.06,5.51,4s9,.06,9,.06-.76-3.3-1.94-4.09c0,0,2.63,2.18,6.94-.82,0,0-2-2.84-1.94-2.91s4.72-.79,5.52-2.75,5.9-9.84,6.91-10.12-8.34-.09-9.88-.24-8.44,1.45-8.79,4.15c0,0-.29-4.4.13-4.94s-5.67,1.93-6.64,7.17c0,0-.42-3.78-.82-3.78s-4.22,5.45-4.06,8.87S129.94,121.83,129.94,121.83Z"></path>
        <g class="cls-11">
          <path class="cls-6" d="M137.57,127a27.5,27.5,0,0,0,6.85-1.14s-3.17-4.29-7.55-4.9c-1.21-.17,1.9-1.23,4.93-.23a9.22,9.22,0,0,0,4.51.44.49.49,0,0,0,.19-.07.93.93,0,0,0,.14-.14.47.47,0,0,0,.09-.39c-.18-1-.88-3.68-3.46-4.5a.3.3,0,0,1-.13-.12.25.25,0,0,1,0-.16.26.26,0,0,1,0-.17.24.24,0,0,1,.13-.11c3.16-1.87,16.88-9.9,18.76-10.16,2-.31-8.29.54-23,8.62a.55.55,0,0,1-.22.06.42.42,0,0,1-.22,0,.54.54,0,0,1-.2-.1.49.49,0,0,1-.14-.18,4.93,4.93,0,0,1-.63-3.52.11.11,0,0,0,0-.11.16.16,0,0,0-.07-.09.19.19,0,0,0-.1,0,.21.21,0,0,0-.11,0,13.87,13.87,0,0,0-3.72,5.35.48.48,0,0,1-.12.16.31.31,0,0,1-.39,0,.48.48,0,0,1-.12-.16c-.11-.69-.26-1.52-.38-2.26a.36.36,0,0,0-.07-.17.42.42,0,0,0-.15-.11.36.36,0,0,0-.18,0,.36.36,0,0,0-.17.07c-3.22,2.32-3.29,4.86-3.88,6.33C126.94,122,134.2,127,137.57,127Z"></path>
        </g>
        <path class="cls-3" d="M158.45,106.33l-4.77,2c-1.58.69-3.16,1.43-4.71,2.11s-3.09,1.53-4.64,2.3-3.06,1.61-4.53,2.5a75.91,75.91,0,0,0-8.61,5.7,31.21,31.21,0,0,0-7.22,7.24l-.4-.21a31.42,31.42,0,0,1,7.39-7.3,75.16,75.16,0,0,1,8.71-5.62c1.49-.88,3-1.64,4.56-2.46s3.1-1.53,4.67-2.26,3.17-1.41,4.74-2.11Z"></path>
        <path class="cls-3" d="M130.62,121a20.77,20.77,0,0,1,3.66,1.4,17.93,17.93,0,0,1,3.3,2.07,17.48,17.48,0,0,0-3.4-1.85,21.08,21.08,0,0,0-3.66-1.17Z"></path>
        <path class="cls-3" d="M136.91,116.69a32.41,32.41,0,0,1,7.73,1.6,32.27,32.27,0,0,0-7.75-1.15Z"></path>
        <path class="cls-3" d="M130.67,120.84a20.87,20.87,0,0,1,.07-3,7.15,7.15,0,0,1,.77-2.83,7.12,7.12,0,0,0-.54,2.85,19.92,19.92,0,0,0,.15,2.89Z"></path>
        <path class="cls-3" d="M135.05,117.93a7.52,7.52,0,0,1,.08-1.71,13,13,0,0,1,.38-1.64,14.11,14.11,0,0,1,1.38-3,13.46,13.46,0,0,0-1.16,3.08,12.55,12.55,0,0,0-.26,1.61,7,7,0,0,0,0,1.59Z"></path>
        <path class="cls-4" d="M126.17,72.13s3.49-6.54,15.09-1.24c0,0-1.22,2.11-2.72,1.87,0,0,8.51.07,10.69,10.33,0,0,9,11.1,5.28,19L149.4,91.17s.95,3.72-2.05,5.34c0,0-4.08-7.45-4.22-7.88S142.89,90,141,91.45a58.81,58.81,0,0,0-3.82-5.73C135.86,84.08,126.68,76.14,126.17,72.13Z"></path>
        <g class="cls-12">
          <path class="cls-6" d="M126.4,67.57l12.66,1.3s-7.83.46-5.19,3.17S143.05,75,143.05,75s-3.17.7-1.52,2.24,2.11,1,7.68,5.9c0,0-4.53-2.74-1.75,1.57,0,0-8.51-10.35-4.32.73,0,0-11.78-14.77-15.31-6.65C127.86,78.73,120.28,73.8,126.4,67.57Z"></path>
        </g>
        <path class="cls-3" d="M122.51,71.93a39.69,39.69,0,0,1,7,1.44,61.38,61.38,0,0,1,6.69,2.42A65.5,65.5,0,0,1,142.51,79a66.58,66.58,0,0,1,6,3.82c-1.95-1.33-4-2.56-6-3.69a68,68,0,0,0-6.33-3,61.23,61.23,0,0,0-6.74-2.25,39.21,39.21,0,0,0-6.9-1.28Z"></path>
        <path class="cls-3" d="M137.16,76.21a17.46,17.46,0,0,0,4.74-1,17.69,17.69,0,0,1-4.74,1.27Z"></path>
        <path class="cls-3" d="M142.43,78.8a37.49,37.49,0,0,1,4,4.58,24.39,24.39,0,0,1,3,5.28,24.45,24.45,0,0,0-3.11-5.14,38.89,38.89,0,0,0-4.07-4.44Z"></path>
        <path class="cls-3" d="M135.22,75.39A52.73,52.73,0,0,1,139.5,80a21.91,21.91,0,0,1,3.39,5.28,22.8,22.8,0,0,0-3.49-5.15A53.85,53.85,0,0,0,135,75.66Z"></path>
        <path class="cls-4" d="M126.23,66.83s-7.23-6-18.27-1.38c0,0-.12-6.86,9.83-8.45,0,0,1-6.19,9.74-5,0,0,6.33-6.33,13.34-2.4,0,0-.48,3.85-2,4.22,0,0,8.76-.23,7,8.44C145.86,62.25,136.33,54,126.23,66.83Z"></path>
        <g class="cls-13">
          <path class="cls-6" d="M106.56,67.39l2-7.38a6.08,6.08,0,0,0,6.26,2.59c4-.92,8.15-3.16,5.46-7.3,0,0,2.73,1.06,4.07-.19s.07-4.52-.9-4.61,12.13-3.43,12.13-3.43-4.46,3.41-4.76,5,.62,2.29,3.46.7c0,0-3.93,2.85-4.65,5.1s.36,2.57,1.24,2.89,4.48-2.28,6.89-1.06-7.65,7.39-8.69,7.39-12.18,1.7-12.18,1.7Z"></path>
        </g>
        <path class="cls-3" d="M126.44,69.82a17.08,17.08,0,0,1-.32-2.11c-.07-.68-.12-1.37-.16-2-.06-1.36-.06-2.73,0-4.09a30.21,30.21,0,0,1,1.42-8,30.07,30.07,0,0,0-1.06,8,38.72,38.72,0,0,0,.22,4c.07.66.15,1.34.26,2a17.7,17.7,0,0,0,.37,1.9Z"></path>
        <path class="cls-3" d="M126.05,60.09a8.77,8.77,0,0,0-2.11-2.39,10.9,10.9,0,0,0-2.81-1.61,10.74,10.74,0,0,1,2.92,1.44,9.25,9.25,0,0,1,2.35,2.36Z"></path>
        <path class="cls-3" d="M125.94,62.55A8.63,8.63,0,0,1,127,60.12,14.49,14.49,0,0,1,128.55,58a17.66,17.66,0,0,1,1.84-1.83c.64-.59,1.32-1.06,2-1.63a20.74,20.74,0,0,0-2,1.7,18.3,18.3,0,0,0-1.73,1.9,16.09,16.09,0,0,0-1.45,2.11,8.25,8.25,0,0,0-.91,2.34Z"></path>
        <path class="cls-4" d="M109.31,140.93s.08-6.33,7.29-10c0,0-3.46-3.07-8.63,1.32,0,0-3.61-2.21-6.83,2.8,0,0-6,.49-7.07,5.77,0,0,2.17,1.43,3.06.81,0,0-4,4.38,1.25,7.3C98.38,149,98.32,140.49,109.31,140.93Z"></path>
        <g class="cls-14">
          <path class="cls-6" d="M118.22,131.1l-4.64-2.25a4.11,4.11,0,0,1,0,2.38,4.06,4.06,0,0,1-1.37,2c-2.24,1.65-5.15,2.8-6.13-.39,0,0-.63,1.85-1.87,2s-2.35-1.95-2-2.48S95.12,137,95.12,137s3.7-.79,4.66-.25.9,1.32-1.15,2.11c0,0,3.16-.75,4.64-.13s1.16,1.31.94,1.89-3.17,1.3-3.58,3.05,7.12-.69,7.6-1.21,6.2-5.48,6.2-5.48Z"></path>
        </g>
        <path class="cls-3" d="M102.14,135.46a19.91,19.91,0,0,1,4.7,3.17c.69.63,1.36,1.29,2,2a20.55,20.55,0,0,1,1.77,2.18,17.94,17.94,0,0,0-1.88-2.11,22.18,22.18,0,0,0-2.11-1.87,18.81,18.81,0,0,0-4.72-2.87Z"></path>
        <path class="cls-3" d="M105.65,138a6.14,6.14,0,0,1-.17-2.22,7.27,7.27,0,0,1,.53-2.11,7.23,7.23,0,0,0-.4,2.11,5.64,5.64,0,0,0,.31,2.11Z"></path>
        <path class="cls-3" d="M107.1,139.14a5.73,5.73,0,0,0-1.6-.55,10.06,10.06,0,0,0-1.72-.19,15.35,15.35,0,0,0-3.45.33,15.5,15.5,0,0,1,3.46-.47,11.45,11.45,0,0,1,1.75.13,5.68,5.68,0,0,1,1.7.52Z"></path>
        <path class="cls-4" d="M110.78,77s.09-6.33,7.28-10c0,0-3.45-3.06-8.62,1.33,0,0-3.61-2.21-6.83,2.8,0,0-6,.49-7.07,5.77,0,0,2.18,1.43,3.07.81,0,0-4,4.38,1.23,7.29C99.87,85,99.83,76.55,110.78,77Z"></path>
        <g class="cls-15">
          <path class="cls-6" d="M119.73,67.16l-4.65-2.25a4.11,4.11,0,0,1-1.42,4.34c-2.24,1.65-5.14,2.8-6.13-.4,0,0-.63,1.86-1.88,2s-2.34-1.94-2-2.47-7.07,4.71-7.07,4.71,3.71-.8,4.67-.25.89,1.32-1.16,2.11c0,0,3.16-.76,4.64-.13s1.16,1.3.94,1.88-3.17,1.3-3.58,3,7.13-.68,7.61-1.2,6.19-5.49,6.19-5.49Z"></path>
        </g>
        <path class="cls-3" d="M111.84,79a23.48,23.48,0,0,0-1.74-2.11,26.29,26.29,0,0,0-1.95-2,19.34,19.34,0,0,0-4.62-3.17,19.45,19.45,0,0,1,4.8,2.92,25.18,25.18,0,0,1,2.11,1.89,16.7,16.7,0,0,1,1.92,2.11Z"></path>
        <path class="cls-3" d="M107.16,74A6.7,6.7,0,0,1,107,71.8a7.8,7.8,0,0,1,.54-2.11,8,8,0,0,0-.4,2.11,6,6,0,0,0,.31,2.11Z"></path>
        <path class="cls-3" d="M108.6,75.2a6,6,0,0,0-1.59-.55,11.17,11.17,0,0,0-1.72-.19,15.53,15.53,0,0,0-3.47.33,15.1,15.1,0,0,1,3.47-.47,11.45,11.45,0,0,1,1.75.13,5.59,5.59,0,0,1,1.7.52Z"></path>
        <path class="cls-4" d="M124,125.88s3.7-4.81,11.31-3.45c0,0-.89-4.34-7.38-3.94,0,0-1.5-3.76-6.85-1.79,0,0-4.91-3.07-8.74.37,0,0,.85,2.35,1.89,2.39,0,0-5.56,1.05-3.25,6.33C111,125.77,115.8,119.22,124,125.88Z"></path>
        <g class="cls-16">
          <path class="cls-6" d="M136.46,123.45l-2.28-4.39a3.78,3.78,0,0,1-1.4,1.8,3.85,3.85,0,0,1-2.17.71c-2.67,0-5.56-.8-4.48-3.82,0,0-1.55,1.06-2.58.45s-.68-2.83-.09-3-8.12-.44-8.12-.44,3.29,1.52,3.71,2.49-.06,1.53-2.1.92c0,0,2.88,1.25,3.63,2.56s.14,1.68-.37,2-3.16-.79-4.49.29,5.87,3.56,6.52,3.45,7.9-.66,7.9-.66Z"></path>
        </g>
        <path class="cls-3" d="M123.75,127.7a19.69,19.69,0,0,0-.16-2.54c-.11-.85-.25-1.71-.43-2.56a18.9,18.9,0,0,0-1.77-4.9,19.31,19.31,0,0,1,2,4.83q.34,1.27.57,2.58a18.46,18.46,0,0,1,.29,2.68Z"></path>
        <path class="cls-3" d="M122.87,121.5a6,6,0,0,1,1.14-1.8,7,7,0,0,1,1.65-1.33,6.88,6.88,0,0,0-1.54,1.41,5.61,5.61,0,0,0-1,1.79Z"></path>
        <path class="cls-3" d="M123.31,123.23a5.56,5.56,0,0,0-.91-1.34,10.79,10.79,0,0,0-1.21-1.13,15,15,0,0,0-2.84-1.74,14.47,14.47,0,0,1,2.92,1.64,9.93,9.93,0,0,1,1.28,1,5.71,5.71,0,0,1,1,1.39Z"></path>
        <path class="cls-4" d="M76,121.89s3.7-4.81,11.31-3.45c0,0-.9-4.34-7.39-4,0,0-1.49-3.76-6.84-1.78,0,0-4.91-3.07-8.74.37,0,0,.85,2.35,1.88,2.38,0,0-5.55,1.06-3.24,6.33C63,121.77,67.87,115.23,76,121.89Z"></path>
        <g class="cls-17">
          <path class="cls-6" d="M88.52,119.46l-2.27-4.39a3.9,3.9,0,0,1-3.57,2.51c-2.67,0-5.56-.81-4.48-3.83,0,0-1.55,1.06-2.58.46s-.69-2.84-.09-3-8.12-.45-8.12-.45,3.29,1.51,3.71,2.49-.07,1.52-2.11.93c0,0,2.88,1.25,3.64,2.56s.14,1.67-.37,2-3.16-.8-4.49.28,5.86,3.57,6.52,3.44,7.9-.64,7.9-.64Z"></path>
        </g>
        <path class="cls-3" d="M75.82,123.72a19.84,19.84,0,0,0-.16-2.55c-.11-.86-.25-1.72-.43-2.56a19.13,19.13,0,0,0-1.78-4.91,19.11,19.11,0,0,1,2,4.85c.23.84.42,1.7.57,2.57a17.15,17.15,0,0,1,.28,2.68Z"></path>
        <path class="cls-3" d="M74.91,117.51a6.09,6.09,0,0,1,1.14-1.81,6.84,6.84,0,0,1,1.65-1.33,7.41,7.41,0,0,0-1.55,1.41,6,6,0,0,0-1,1.8Z"></path>
        <path class="cls-3" d="M75.38,119.24a6.09,6.09,0,0,0-.91-1.34,11,11,0,0,0-1.22-1.14A14.59,14.59,0,0,0,70.42,115a14.47,14.47,0,0,1,2.92,1.64,9.07,9.07,0,0,1,1.26,1.06,5.29,5.29,0,0,1,1.06,1.38Z"></path>
        <path class="cls-4" d="M55.92,77.43s3.7-4.81,11.3-3.44c0,0-.89-4.34-7.39-3.95,0,0-1.49-3.77-6.83-1.78,0,0-4.91-3.07-8.75.37,0,0,.85,2.35,1.89,2.37,0,0-5.55,1.06-3.24,6.33C42.87,77.32,47.71,70.78,55.92,77.43Z"></path>
        <g class="cls-18">
          <path class="cls-6" d="M68.36,75l-2.27-4.36a3.92,3.92,0,0,1-3.59,2.52c-2.67,0-5.56-.81-4.46-3.83,0,0-1.56,1-2.58.45s-.69-2.84-.09-3-8.12-.45-8.12-.45,3.29,1.52,3.7,2.5-.06,1.52-2.11.93c0,0,2.88,1.24,3.64,2.55s.15,1.67-.36,2-3.16-.81-4.49.28,5.85,3.57,6.51,3.44,7.91-.64,7.91-.64Z"></path>
        </g>
        <path class="cls-3" d="M55.65,79.26a19.58,19.58,0,0,0-.16-2.54,22.08,22.08,0,0,0-.44-2.56,19.08,19.08,0,0,0-1.76-4.91,19.22,19.22,0,0,1,2,4.84c.24.85.45,1.71.61,2.58a17,17,0,0,1,.28,2.67Z"></path>
        <path class="cls-3" d="M54.78,73.06a5.94,5.94,0,0,1,1.14-1.82,7.42,7.42,0,0,1,1.63-1.33A7.67,7.67,0,0,0,56,71.33a6.18,6.18,0,0,0-1,1.8Z"></path>
        <path class="cls-3" d="M55.21,74.79a5.13,5.13,0,0,0-.92-1.35,9.17,9.17,0,0,0-1.2-1.13,15,15,0,0,0-2.84-1.73,14.92,14.92,0,0,1,2.92,1.63,9.08,9.08,0,0,1,1.27,1.05,5.65,5.65,0,0,1,1.06,1.37Z"></path>
        <path class="cls-4" d="M60.62,81.37s-10.19-3.65-17.16,1.24a4.3,4.3,0,0,0,.91,2,4.22,4.22,0,0,0,1.8,1.29s-8.44,2.51-9.58,8.75c0,0,3,1.87,4.9,1.25,0,0-3.64,2.81-3,6.86s1.45,5.93,1.45,8.12S42,117.37,42,117.37a29.9,29.9,0,0,1,2-5.83c.94-1.45,4.38-7.08,4.63-9a36.45,36.45,0,0,1,.78-3.87s.53,4.92,1.46,6.16l3.22-4.05c1.25-1.56,3.75-6.56,3.75-8.53a18.2,18.2,0,0,0,2.81,1.77A20.46,20.46,0,0,0,60.62,81.37Z"></path>
        <g class="cls-19">
          <path class="cls-6" d="M60.33,79.3c-.21.07-3.67,2.37-5.65,2.37s-6.52-.33-8.83,2.25c0,0,3.88.14,3.94.75s-1.69,2.17-4.07,3.17-5.1,2.72-5.28,5.27a37.16,37.16,0,0,1,4.08-1.42c.68-.08-2.17,5.43-2.92,8.69s-1.05,14.77.36,17.07c0,0-.91-8.38.39-11.6s2,.21,2,.21-.28-7.55.87-9.79,2.72-4.22,4.9-4,1.6,6.86,1.6,6.86.28-7.75,2-9.85S57.41,87,59,89.55c0,0-.47-3.8.54-5.58a2.58,2.58,0,0,1,1.25-1.1,2.66,2.66,0,0,1,1.67-.12Z"></path>
        </g>
        <path class="cls-3" d="M62.07,81.05a17.34,17.34,0,0,0-5.55,1.19,22.05,22.05,0,0,0-5,2.76,16.71,16.71,0,0,0-4.08,4,26.19,26.19,0,0,0-2.62,5.14,54,54,0,0,0-2.87,11.3,51.58,51.58,0,0,0-.53,5.82,20.5,20.5,0,0,0,.47,5.79,20.88,20.88,0,0,1-.58-5.79,52,52,0,0,1,.45-5.84A52.59,52.59,0,0,1,44.41,94,26.58,26.58,0,0,1,47,88.76a17.69,17.69,0,0,1,4.15-4.22,22.54,22.54,0,0,1,5.15-2.91,17.79,17.79,0,0,1,5.8-1.35Z"></path>
        <path class="cls-3" d="M55.43,82.36a26.5,26.5,0,0,0-4.54-.12,15.12,15.12,0,0,0-4.46,1A14.86,14.86,0,0,1,50.87,82a25.45,25.45,0,0,1,4.62-.17Z"></path>
        <path class="cls-3" d="M48.41,87.69a21.47,21.47,0,0,0-4.16,1.69,13.76,13.76,0,0,0-3.59,2.7,14.07,14.07,0,0,1,3.46-2.93,20.67,20.67,0,0,1,4.15-2Z"></path>
        <path class="cls-3" d="M58.38,81.36A8.81,8.81,0,0,0,58,83.13,14.43,14.43,0,0,0,58,85a18.4,18.4,0,0,0,.56,3.68A18.7,18.7,0,0,1,57.77,85a13.28,13.28,0,0,1-.08-1.89,8.82,8.82,0,0,1,.2-1.92Z"></path>
        <path class="cls-3" d="M52.5,83.94a34.15,34.15,0,0,0-1,6.33,41.1,41.1,0,0,0,0,6.47,42.49,42.49,0,0,1-.29-6.48,36.28,36.28,0,0,1,.77-6.48Z"></path>
        <path class="cls-3" d="M43.79,96.94v8.21l-.31-8.21Z"></path>
        <path class="cls-4" d="M61.89,120.23s-10.14-7.83-19.77-4.88a5.09,5.09,0,0,0,1.82,4.73s-10.39-.27-13.95,6.33c0,0,2.71,3.17,5,3.17,0,0-5.13,1.82-5.91,6.61s-.53,7.21-1.33,9.67,0,8,0,8,2.78-4.53,4.36-5.83,7.5-6.33,8.44-8.37a45.28,45.28,0,0,1,2.29-4.08s-1.22,5.73-.61,7.47l5.1-3.38c2-1.29,6.62-6,7.34-8.23a19.7,19.7,0,0,0,2.52,3A24.37,24.37,0,0,0,61.89,120.23Z"></path>
        <g class="cls-20">
          <path class="cls-6" d="M62.3,117.81c-.25,0-5,1.33-7.21.6s-7.21-2.76-10.75-.71c0,0,4.3,1.57,4.15,2.29s-2.7,1.82-5.73,2S36,123.2,35,126a45.47,45.47,0,0,1,5.09-.1c.79.17-4.43,5.27-6.45,8.7S27,150.82,27.77,153.91c0,0,2.05-9.76,4.66-12.87s2.23,1,2.23,1,2.45-8.58,4.57-10.68,4.62-3.82,7-2.72-.77,8.37-.77,8.37,3.17-8.61,5.82-10.35,4.94-1.18,5.78,2.21c0,0,.86-4.45,2.64-6.06a3.08,3.08,0,0,1,3.74-.31Z"></path>
        </g>
        <path class="cls-3" d="M62.62,120.55a16.66,16.66,0,0,0-6.5-.73,24.72,24.72,0,0,0-6.53,1.4,30.94,30.94,0,0,0-3.08,1.31,15.1,15.1,0,0,0-2.78,1.85A32,32,0,0,0,39,129.21a66.55,66.55,0,0,0-9.83,17.71,24.49,24.49,0,0,0-1.53,6.59,23.89,23.89,0,0,1,1.43-6.62,63,63,0,0,1,2.56-6.33,64.85,64.85,0,0,1,7-11.67,32.86,32.86,0,0,1,4.66-5,15,15,0,0,1,2.84-2,27.92,27.92,0,0,1,3.17-1.39c4.27-1.58,9-2.32,13.61-.89Z"></path>
        <path class="cls-3" d="M55.92,119.71a34.16,34.16,0,0,0-5.17-1.92,17,17,0,0,0-5.5-.65,16.77,16.77,0,0,1,5.56.36,31.16,31.16,0,0,1,5.36,1.68Z"></path>
        <path class="cls-3" d="M45.82,122.9a23.86,23.86,0,0,0-5.27.37,16.47,16.47,0,0,0-5,1.73,16.46,16.46,0,0,1,5-2,25.08,25.08,0,0,1,5.38-.68Z"></path>
        <path class="cls-3" d="M59.36,119.41a9.89,9.89,0,0,0-1.06,1.88,15,15,0,0,0-.73,2.11,19.88,19.88,0,0,0-.72,4.34,20.55,20.55,0,0,1,.41-4.42,17.49,17.49,0,0,1,.61-2.11,10.89,10.89,0,0,1,1-2.11Z"></path>
        <path class="cls-3" d="M51.58,120.53a39.15,39.15,0,0,0-3.33,6.59,51.81,51.81,0,0,0-2.25,7.1A52.94,52.94,0,0,1,48,127a39.59,39.59,0,0,1,3.12-6.78Z"></path>
        <path class="cls-3" d="M37.26,131.59l-3,9.24,2.65-9.34Z"></path>
        <path class="cls-4" d="M139.44,66.42s2.11-4.47,3.84-5.84a3.51,3.51,0,0,1,1.45-.45,3.64,3.64,0,0,1,1.5.17s2.41-5.27,5.28-6c0,0,1.53,1.45,1.29,3,0,0,4.15-4.57,9.61-3.95,0,0,.11,3.33-.73,4.22,0,0,6.81-1.74,11.51,1.74a21.17,21.17,0,0,0,8.81,4s-9.31,4.84-12.11,5.67-8.28,1-9.56.3c0,0,2.55,2.47,2.76,4.78,0,0-6.7-1-10-3,0,0,1.62,3.39.37,5,0,0-2.17-2.41-3.52-2.85a8.7,8.7,0,0,1-2.91-2.34s-.14,2.53-.94,3a11.63,11.63,0,0,1-6.69-7.45Z"></path>
        <g class="cls-21">
          <path class="cls-6" d="M138.13,62.28c.29.16,2.11,3.16,5.51,2.19s8-5.43,8-5.43S150,60.39,150.2,62s.6,2.55,2.63.23,2.84-4.45,5.78-4.9c0,0-3.66,4.7-2.71,4.9s10.18-2.7,13.34-2.61,2.64.31,2.64.31l-4.22,2s10.55.62,13.34.17-1.44,2.75-8,1.66-8.44,1.52-8.44,1.52,3,3.45.77,4.58c0,0-2.28-3.7-6-4.39l-3-.56s3.3,3.51,3.17,5c0,0-5.94-3.92-7.39-3.7s.54,2.84.54,2.84-4.89-2.53-6.12-1.77,0,2.79,0,2.79-5.19-2.78-7.85-1.29S138.13,62.28,138.13,62.28Z"></path>
        </g>
        <path class="cls-3" d="M138.89,66l10.55-1.57C153,63.83,156.5,63.35,160,63c1.77-.18,3.56-.36,5.35-.37h5.34l5.34.14c1.78.08,3.56.12,5.34.36-1.78-.22-3.56-.22-5.34-.28l-5.34-.06h-5.34a46,46,0,0,0-5.28.44c-3.53.43-7.07.92-10.55,1.54L139,66.51Z"></path>
        <path class="cls-3" d="M147.32,64.83c.57-1.06,1.17-2,1.82-3a16.37,16.37,0,0,1,1.06-1.42,5.88,5.88,0,0,1,1.25-1.24,6.18,6.18,0,0,0-1.12,1.33,16.38,16.38,0,0,0-.9,1.49c-.56,1.05-1.06,2.11-1.52,3.16Z"></path>
        <path class="cls-3" d="M152.71,63.92c.87-1.2,1.76-2.38,2.71-3.5.48-.56,1-1.11,1.47-1.65a13.44,13.44,0,0,1,1.63-1.48,12.54,12.54,0,0,0-1.5,1.59c-.48.56-.92,1.15-1.35,1.74q-1.28,1.77-2.43,3.65Z"></path>
        <path class="cls-3" d="M161.94,62.83A41.57,41.57,0,0,1,169.33,60a41.94,41.94,0,0,0-7.23,3.17.17.17,0,0,1-.12,0,.18.18,0,0,1-.1-.07.19.19,0,0,1,0-.13.23.23,0,0,1,.07-.1Z"></path>
        <path class="cls-3" d="M157.43,63.32a22.33,22.33,0,0,1,3.76,1.62,9.78,9.78,0,0,1,3.17,2.54,9.8,9.8,0,0,0-3.25-2.38,22.92,22.92,0,0,0-3.78-1.42Z"></path>
        <path class="cls-3" d="M153.93,63.72a34.24,34.24,0,0,1,2.76,2.35c.43.41.85.85,1.24,1.3a4.89,4.89,0,0,1,1,1.52,5,5,0,0,0-1-1.41c-.43-.41-.88-.8-1.34-1.17-.94-.73-1.92-1.43-2.91-2.11Z"></path>
        <path class="cls-3" d="M148.53,64.55a15.46,15.46,0,0,1,2.26,1.77,8.9,8.9,0,0,1,1.74,2.21,8.81,8.81,0,0,0-1.95-2,15.74,15.74,0,0,0-2.35-1.44Z"></path>
        <path class="cls-3" d="M142.6,65.48a12.47,12.47,0,0,1,1.94,1.61A6.79,6.79,0,0,1,146,69.2a6.43,6.43,0,0,0-1.63-1.82,12.17,12.17,0,0,0-2-1.29Z"></path>
        <path class="cls-4" d="M94.83,25.37s-6.2-5.73,3-17c0,0,1.94,1.94,1.28,3.55,0,0,2.53-9.37,14.48-8.85,0,0,14.77-6.71,22.45-.36l-13.52,2.5s4.39,0,5.28,3.8c0,0-9.4,2.37-9.91,2.36s1.44.66,2.52,3.16A66.42,66.42,0,0,0,113,17.12C110.78,18.09,99.41,26,94.83,25.37Z"></path>
        <g class="cls-22">
          <path class="cls-6" d="M89.86,23.8,95,10.17s-1.77,8.77,2,6.66,5.86-9.3,5.86-9.3-.16,3.74,2,2.32,1.74-2,8.73-6.81c0,0-4.33,4.22,1.22,2.38,0,0-13.86,6.42-.42,5,0,0-19.66,8.78-11.74,15C102.61,25.38,95,32.37,89.86,23.8Z"></path>
        </g>
        <path class="cls-3" d="M93.55,29.35a46.06,46.06,0,0,1,3.6-7.24,69.35,69.35,0,0,1,4.58-6.69A73,73,0,0,1,107,9.32c.91-1,1.93-1.89,2.89-2.83s2-1.78,3-2.67c-1,.91-2,1.8-3,2.74s-1.89,1.83-2.78,2.82a74.79,74.79,0,0,0-5.17,6.2,64.9,64.9,0,0,0-4.41,6.73,44.82,44.82,0,0,0-3.39,7.26Z"></path>
        <path class="cls-3" d="M102.48,14.42a19.89,19.89,0,0,0,.29-5.5,19.91,19.91,0,0,1,0,5.56Z"></path>
        <path class="cls-3" d="M106.86,9.34a44.49,44.49,0,0,1,6.19-3.06,27.78,27.78,0,0,1,6.64-1.8,28.51,28.51,0,0,0-6.58,2,43.1,43.1,0,0,0-6.06,3.17Z"></path>
        <path class="cls-3" d="M101,16.3a57.7,57.7,0,0,1,6.28-3.41,25.25,25.25,0,0,1,6.75-2.23A24.71,24.71,0,0,0,107.39,13a60.84,60.84,0,0,0-6.17,3.55Z"></path>
        <path class="cls-3" d="M89.93,128.26,75.3,124l-7.38-2.11-3.68-1-1.83-.48c-.6-.15-1.26-.3-1.76-.38v-.77a16.57,16.57,0,0,1,2,.39l1.86.48,3.68,1,7.38,2,14.67,4.22Z"></path>
        <path class="cls-4" d="M135.15,155h-7.09a.43.43,0,0,0,0-.05c0-.08,0-.06-.08.05h-2.76q-.73-1.11-1.53-2.16c-.67-.81-3.91-3.68-6.11-6.38a11.89,11.89,0,0,1-1.89-3,2.68,2.68,0,0,1-.14-.43,2.56,2.56,0,0,1-.05-.27s1.85-3.46,7.58-2.16h0a18.32,18.32,0,0,1,3.57,1.23s-.81,1.38-1.85,1.39c1,.07,6.29.76,7.72,7.57,0,0,0,0,0,0A26.72,26.72,0,0,1,135.15,155Z"></path>
        <g class="cls-23">
          <path class="cls-6" d="M115.66,139.43l9.38,1s-5.78.33-3.84,2.33,6.78,2.11,6.78,2.11-2.36.51-1.12,1.65,1.52.8,5.67,4.36c0,0-3.35-2-1.29,1.16,0,0-6.33-7.65-3.16.55,0,0-8.71-10.89-11.3-4.92C116.74,147.67,111.13,144,115.66,139.43Z"></path>
        </g>
        <path class="cls-3" d="M112.79,142.64a29.33,29.33,0,0,1,5.16,1.05,46.2,46.2,0,0,1,4.94,1.78c1.59.7,3.16,1.49,4.68,2.35s3,1.82,4.42,2.81c-1.46-1-2.93-1.9-4.47-2.71a46.32,46.32,0,0,0-4.72-2.25,46.91,46.91,0,0,0-4.94-1.65,28.64,28.64,0,0,0-5.1-1Z"></path>
        <path class="cls-3" d="M123.6,145.8a13.52,13.52,0,0,0,3.5-.71,13.07,13.07,0,0,1-3.48.93Z"></path>
        <path class="cls-3" d="M127.49,147.72a26.21,26.21,0,0,1,2.93,3.38,18.46,18.46,0,0,1,2.21,3.86,18.42,18.42,0,0,0-2.3-3.8,28.09,28.09,0,0,0-3-3.28Z"></path>
        <path class="cls-3" d="M122.18,145.2a38.65,38.65,0,0,1,3.16,3.37,16.15,16.15,0,0,1,2.49,3.88,15.64,15.64,0,0,0-2.58-3.8,37,37,0,0,0-3.23-3.28Z"></path>
        <path class="cls-3" d="M110,143.44a7,7,0,0,1,3.17.35,5.9,5.9,0,0,1,2.61,1.88,8,8,0,0,1,1.4,2.81,4.42,4.42,0,0,1,0,1.66c0,.48-.11,1-.14,1.41a.55.55,0,0,1-.56.56.55.55,0,0,1-.39-.16.56.56,0,0,1-.17-.4c0-.5.07-1,.1-1.47a3.18,3.18,0,0,0,0-1.23,6.68,6.68,0,0,0-1.22-2.33,4.49,4.49,0,0,0-2.11-1.41,5.6,5.6,0,0,0-2.51-.24h-.07a.71.71,0,0,1-.53-.13.67.67,0,0,1-.27-.47.7.7,0,0,1,.13-.52.72.72,0,0,1,.47-.28Z"></path>
        <path class="cls-24" d="M116.27,150.88l.73-.23-.1,1.32c-.05.82-.13,1.94-.18,3h-.53c0-1.15,0-2.16,0-3C116.21,151.58,116.23,151.2,116.27,150.88Z"></path>
        <path class="cls-3" d="M108.11,83.12a8,8,0,0,1,3.72.91,6.93,6.93,0,0,1,2.77,2.6,9.19,9.19,0,0,1,1.18,3.51,4.81,4.81,0,0,1-.2,2c-.13.57-.27,1.05-.38,1.63a.5.5,0,0,1-.09.24.66.66,0,0,1-.18.19.64.64,0,0,1-.24.1.57.57,0,0,1-.26,0A.66.66,0,0,1,114,94a.71.71,0,0,1-.12-.49c.11-.59.24-1.16.35-1.71a3.53,3.53,0,0,0,.14-1.44,7.48,7.48,0,0,0-1-2.93,5.42,5.42,0,0,0-2.22-2,6.26,6.26,0,0,0-2.91-.65h-.08a.86.86,0,0,1-.35,0,.9.9,0,0,1-.3-.17.86.86,0,0,1-.21-.29.8.8,0,0,1-.07-.34.84.84,0,0,1,.07-.35.83.83,0,0,1,.21-.28.92.92,0,0,1,.3-.18.85.85,0,0,1,.35,0Z"></path>
        <path class="cls-25" d="M114.23,116.48a7,7,0,1,0-7-7A7,7,0,0,0,114.23,116.48Z"></path>
        <path class="cls-26" d="M119.32,111.27a5,5,0,0,0,1.2-3.6,4.91,4.91,0,0,0-1.7-3.39c-2.36-2.06-6.52-2.23-8-.48s-2.44,4.67-.08,6.73S117.79,113,119.32,111.27Z"></path>
        <path class="cls-6" d="M116.53,105.56a2,2,0,0,1,1.35-.41,1.93,1.93,0,0,1,1.27.62c1.3,1.31.68,1.92.68,1.92a3.46,3.46,0,0,0-1.32-1.44,1.57,1.57,0,0,0-.71-.1,1.52,1.52,0,0,0-.68.22,3.52,3.52,0,0,1,1.44,1.26,2.55,2.55,0,0,1-.22,1.76l-1.73-1.72v-.84a8.12,8.12,0,0,0-1.28,1.46,4.46,4.46,0,0,0-.41.92s-.25-1.58.18-2.11a5.5,5.5,0,0,0,.66-1s-.1-.89-1.05-.43a8,8,0,0,0-1.65,1.12,3.86,3.86,0,0,1,1.21-1.69c.69-.38,1.76.32,1.76.32s.36-.93-.39-1.31S117.21,104,116.53,105.56Z"></path>
        <path class="cls-27" d="M113.5,110.53c.3-.34,0-1.15-.79-1.8s-1.59-.89-1.89-.55.05,1.16.79,1.81S113.2,110.88,113.5,110.53Z"></path>
        <path class="cls-28" d="M116.31,106.09s1.67-3.39-2.87-3.49"></path>
        <path class="cls-25" d="M113.94,125.78a7,7,0,1,0-7-7A7,7,0,0,0,113.94,125.78Z"></path>
        <path class="cls-26" d="M119,120.57a4.77,4.77,0,0,0,1-1.68,5,5,0,0,0,.25-1.92,4.89,4.89,0,0,0-.52-1.87,5,5,0,0,0-1.18-1.53c-2.37-2.11-6.52-2.23-8-.48s-2.45,4.67-.09,6.73S117.48,122.33,119,120.57Z"></path>
        <path class="cls-6" d="M116.23,114.86a1.92,1.92,0,0,1,1.35-.41,1.9,1.9,0,0,1,1.26.62c1.31,1.31.68,1.92.68,1.92a3.44,3.44,0,0,0-1.31-1.44,1.58,1.58,0,0,0-.71-.11,1.49,1.49,0,0,0-.68.23,3.55,3.55,0,0,1,1.44,1.25,2.61,2.61,0,0,1-.22,1.76L116.3,117v-.84a8.66,8.66,0,0,0-1.3,1.47,4.46,4.46,0,0,0-.41.92s-.25-1.59.19-2.11a6.62,6.62,0,0,0,.67-1s-.12-.89-1.06-.42a8.43,8.43,0,0,0-1.65,1.06,3.94,3.94,0,0,1,1.21-1.69c.7-.38,1.76.32,1.76.32s.36-.92-.38-1.31S116.91,113.32,116.23,114.86Z"></path>
        <path class="cls-27" d="M113.19,119.83c.3-.35-.06-1.15-.8-1.8s-1.59-.9-1.89-.55,0,1.15.8,1.8S112.88,120.18,113.19,119.83Z"></path>
        <path class="cls-28" d="M116.06,115.38s2.27-3.52-3.17-4"></path>
        <path class="cls-25" d="M113.76,134.57a7,7,0,1,0-7-7A7,7,0,0,0,113.76,134.57Z"></path>
        <path class="cls-26" d="M118.84,129.35a4.94,4.94,0,0,0,1.21-3.6,5,5,0,0,0-1.7-3.39c-2.37-2.11-6.52-2.23-8-.48s-2.45,4.67-.09,6.73S117.31,131.1,118.84,129.35Z"></path>
        <path class="cls-6" d="M116.06,123.65a1.88,1.88,0,0,1,1.35-.42,2,2,0,0,1,1.27.63c1.29,1.3.67,1.92.67,1.92a3.48,3.48,0,0,0-1.32-1.45,1.58,1.58,0,0,0-1.38.12,3.49,3.49,0,0,1,1.43,1.26,2.59,2.59,0,0,1-.22,1.77l-1.73-1.72v-.85a7.7,7.7,0,0,0-1.27,1.46,4.31,4.31,0,0,0-.41.93s-.26-1.59.17-2.11a5.63,5.63,0,0,0,.67-1s-.11-.89-1.06-.43a8.34,8.34,0,0,0-1.64,1.12,3.84,3.84,0,0,1,1.2-1.69c.7-.38,1.76.32,1.76.32s.36-.93-.39-1.31S116.73,122.12,116.06,123.65Z"></path>
        <path class="cls-27" d="M113,128.62c.31-.35,0-1.16-.79-1.8s-1.59-.9-1.89-.55,0,1.15.79,1.8S112.72,129,113,128.62Z"></path>
        <path class="cls-28" d="M115.84,124.17s1.12-4.22-3.59-4.12"></path>
        <path class="cls-25" d="M103.24,112.12a7,7,0,1,0-7-7A7,7,0,0,0,103.24,112.12Z"></path>
        <path class="cls-26" d="M100.83,100.35a5.07,5.07,0,0,1,1.54-1.17,4.86,4.86,0,0,1,1.87-.5,5,5,0,0,1,3.59,1.23c2.36,2.11,3.08,6.16,1.55,7.91s-4.3,3.05-6.66,1S99.3,102.11,100.83,100.35Z"></path>
        <path class="cls-6" d="M106.86,102.36a1.94,1.94,0,0,0,.23-1.39,2,2,0,0,0-.79-1.18c-1.47-1.06-2-.41-2-.41a3.47,3.47,0,0,1,1.62,1.12,1.46,1.46,0,0,1,.2.68,1.53,1.53,0,0,1-.13.7,3.65,3.65,0,0,0-1.44-1.26,2.62,2.62,0,0,0-1.72.46l1.93,1.48.84-.08a8.08,8.08,0,0,1-1.27,1.47,3.86,3.86,0,0,1-.87.52s1.61,0,2.11-.46a6.14,6.14,0,0,1,.9-.79s.91,0,.57,1a8.5,8.5,0,0,1-.9,1.78s1.24-.67,1.52-1.42-.55-1.7-.55-1.7.87-.48,1.35.21S108.29,101.48,106.86,102.36Z"></path>
        <path class="cls-27" d="M105,108.37c.31-.35-.05-1.15-.79-1.8s-1.59-.89-1.89-.55,0,1.16.79,1.81S104.71,108.72,105,108.37Z"></path>
        <path class="cls-28" d="M106.37,102.65s3.84-3.81,6.84,0"></path>
        <path class="cls-25" d="M103.1,121a7,7,0,1,0-7-7A7,7,0,0,0,103.1,121Z"></path>
        <path class="cls-26" d="M100.7,109.2a5,5,0,0,1,1.53-1.18,5.08,5.08,0,0,1,1.87-.49,4.86,4.86,0,0,1,3.59,1.23c2.37,2.11,3.08,6.16,1.55,7.91s-4.29,3-6.65,1S99.18,111,100.7,109.2Z"></path>
        <path class="cls-6" d="M106.72,111.19a1.92,1.92,0,0,0,.23-1.39,1.87,1.87,0,0,0-.79-1.17c-1.46-1.11-2-.41-2-.41a3.43,3.43,0,0,1,1.61,1,1.57,1.57,0,0,1,.07,1.4,3.71,3.71,0,0,0-1.4-1.21,2.64,2.64,0,0,0-1.72.46l1.93,1.49.85-.09a8.33,8.33,0,0,1-1.32,1.52,4.31,4.31,0,0,1-.87.53s1.61,0,2.11-.47a7.49,7.49,0,0,1,.9-.79s.91,0,.56,1a8.08,8.08,0,0,1-.89,1.79s1.24-.68,1.52-1.43-.56-1.7-.56-1.7.88-.47,1.36.2S108.14,110.32,106.72,111.19Z"></path>
        <path class="cls-27" d="M104.88,117.22c.3-.35,0-1.16-.8-1.81s-1.58-.89-1.89-.54.06,1.15.8,1.8S104.58,117.56,104.88,117.22Z"></path>
        <path class="cls-28" d="M106.24,111.49s3.24-3.36,6.55-.14"></path>
        <path class="cls-25" d="M102.63,129.92a7,7,0,1,0-7-7A7,7,0,0,0,102.63,129.92Z"></path>
        <path class="cls-26" d="M100.23,118.11a5,5,0,0,1,7-.44c2.35,2.11,3.08,6.16,1.55,7.91s-4.31,3-6.66,1S98.68,119.91,100.23,118.11Z"></path>
        <path class="cls-6" d="M106.25,120.16a1.91,1.91,0,0,0-.56-2.56c-1.47-1.12-2-.43-2-.43a3.57,3.57,0,0,1,1.61,1.12,1.67,1.67,0,0,1,.2.69,1.56,1.56,0,0,1-.13.7,3.57,3.57,0,0,0-1.44-1.26,2.65,2.65,0,0,0-1.71.45l1.93,1.5.84-.09a8.08,8.08,0,0,1-1.28,1.46,3.62,3.62,0,0,1-.86.53,4.44,4.44,0,0,0,2.11-.46,5.66,5.66,0,0,1,.9-.79s.9,0,.56,1a9.25,9.25,0,0,1-.89,1.78,4.07,4.07,0,0,0,1.52-1.42c.29-.73-.56-1.7-.56-1.7s.87-.48,1.35.21S107.67,119.27,106.25,120.16Z"></path>
        <path class="cls-27" d="M104.4,126.17c.3-.35-.05-1.15-.79-1.8s-1.59-.9-1.89-.55,0,1.15.79,1.8S104.1,126.51,104.4,126.17Z"></path>
        <path class="cls-28" d="M105.76,120.45s3.48-3.78,6.45-.37"></path>
        <path class="cls-25" d="M106.65,140.17a7,7,0,1,0-7-7A7,7,0,0,0,106.65,140.17Z"></path>
        <path class="cls-26" d="M104.23,128.4a5,5,0,0,1,1.54-1.18,5,5,0,0,1,5.46.74c2.36,2.11,3.08,6.16,1.55,7.92s-4.3,3-6.66,1S102.7,130.15,104.23,128.4Z"></path>
        <path class="cls-6" d="M110.26,130.4a1.91,1.91,0,0,0-.56-2.56c-1.47-1.12-2-.41-2-.41a3.41,3.41,0,0,1,1.61,1,1.55,1.55,0,0,1,.07,1.39,3.52,3.52,0,0,0-1.44-1.26,2.62,2.62,0,0,0-1.72.46l1.93,1.49.84-.08a7.65,7.65,0,0,1-1.28,1.45,4,4,0,0,1-.86.54s1.61,0,2.11-.47a7.57,7.57,0,0,1,.9-.8s.9,0,.56,1a7.77,7.77,0,0,1-.88,1.78s1.22-.67,1.51-1.42-.55-1.7-.55-1.7.86-.48,1.35.21S111.69,129.53,110.26,130.4Z"></path>
        <path class="cls-27" d="M108.42,136.41c.3-.34,0-1.15-.8-1.8s-1.58-.89-1.89-.54.06,1.15.8,1.8S108.11,136.76,108.42,136.41Z"></path>
        <path class="cls-29" d="M115.19,92.61s-1.21,5.68-1.58,8.32-1.78,24.06-1.58,25c0,0,.65-26.67,2.28-33.1Z"></path>
        <path class="cls-28" d="M109.73,130.69a7.56,7.56,0,0,0,2.25-4.78"></path>
        <path class="cls-4" d="M115,88.58c.23.24-2.24,4-2.69,6.13s1.75,8.65,1.75,8.65,3-1.41,3.57-2.72c0,0-1.57,3,2.2,6.56,0,0,2.35-2.55,2.42-2.47s1.72,4.41,3.79,4.77,10.72,3.72,11.18,4.63-1.6-8.08-1.76-9.6-3.16-7.92-5.8-7.66c0,0,4.22-1.19,4.8-.89s-3-5.09-8.29-5c0,0,3.57-1.18,3.5-1.56s-6.14-3-9.41-2.11S115,88.58,115,88.58Z"></path>
        <g class="cls-30">
          <path class="cls-6" d="M111.57,97a27.16,27.16,0,0,0,2.49,6.33s3.52-3.89,3.17-8.29c-.09-1.21,1.58,1.58,1.23,4.71a9.14,9.14,0,0,0,.49,4.46.45.45,0,0,0,.11.17.64.64,0,0,0,.16.11.45.45,0,0,0,.2,0,.43.43,0,0,0,.19,0,5.42,5.42,0,0,0,2.42-1.6,5.49,5.49,0,0,0,1.24-2.62.38.38,0,0,1,.06-.16.33.33,0,0,1,.15-.11h.17a.4.4,0,0,1,.15.1c2.45,2.7,13,14.37,13.64,16.08.71,1.91-2.22-7.9-13-20.46a.56.56,0,0,1-.12-.2.85.85,0,0,1,0-.23.63.63,0,0,1,.07-.22.65.65,0,0,1,.15-.18,4.83,4.83,0,0,1,3.28-1.32.2.2,0,0,0,.11,0,.18.18,0,0,0,.08-.09.21.21,0,0,0,0-.11.13.13,0,0,0-.07-.09A13.28,13.28,0,0,0,122,90.78a.44.44,0,0,1-.19-.1.33.33,0,0,1-.08-.19.28.28,0,0,1,0-.2.34.34,0,0,1,.15-.14l2.11-.83a.3.3,0,0,0,.14-.11.4.4,0,0,0,.08-.16.47.47,0,0,0,0-.17.38.38,0,0,0-.09-.15c-2.9-2.65-5.38-2.2-6.9-2.48C114.2,85.7,110.83,93.73,111.57,97Z"></path>
        </g>
        <path class="cls-3" d="M135.79,113l-2.91-4.22c-1-1.39-2-2.75-3-4.12s-2.11-2.68-3.17-4-2.18-2.63-3.34-3.87a75.28,75.28,0,0,0-7.27-7.13,31,31,0,0,0-8.44-5.5l.11-.44a31.61,31.61,0,0,1,8.57,5.69,78.74,78.74,0,0,1,7.22,7.28c1.15,1.27,2.2,2.62,3.3,3.92s2.11,2.69,3.16,4.06,2,2.75,3,4.15Z"></path>
        <path class="cls-3" d="M116,89a20.55,20.55,0,0,1-.61,3.82A18,18,0,0,1,114,96.48a18,18,0,0,0,1.06-3.66,22,22,0,0,0,.39-3.79Z"></path>
        <path class="cls-3" d="M121.4,94.26a32.83,32.83,0,0,1,0,7.8,31.87,31.87,0,0,0-.47-7.74Z"></path>
        <path class="cls-3" d="M116.11,89.07a17.49,17.49,0,0,1,2.87-.54,7,7,0,0,1,2.89.17,7.25,7.25,0,0,0-2.86,0,20,20,0,0,0-2.76.73Z"></path>
        <path class="cls-3" d="M119.82,92.8a7.35,7.35,0,0,1,1.67-.26,11.5,11.5,0,0,1,1.66,0,13.65,13.65,0,0,1,3.16.71,13.51,13.51,0,0,0-3.16-.49,10.86,10.86,0,0,0-1.61.08,7.46,7.46,0,0,0-1.54.35Z"></path>
        <path class="cls-31" d="M74.44,145.79a7.18,7.18,0,1,0-7.18-7.17A7.17,7.17,0,0,0,74.44,145.79Z"></path>
        <path class="cls-6" d="M72.15,134.31s0-.28,1.31-1.27S76,134.1,76,134.1a2.5,2.5,0,0,0-1.42-.22,2.57,2.57,0,0,0-1.32.57,1.59,1.59,0,0,1,.9-.22,1.52,1.52,0,0,1,.87.32,3.43,3.43,0,0,1,1.06,1.24s-.7-.13-1.19-.27-1.15-.31-1.32-.38a2.13,2.13,0,0,0-.87,0,2.5,2.5,0,0,0,0,1.53c.26.91.07,1,.07,1a9.55,9.55,0,0,1-1.06-1.23c-.18-.39-.21-1.06.2-1.31s-.45-.44-1.21.28a3.48,3.48,0,0,0-.85,1.16s-.19-1.24.13-1.67,1.32-1.32,1.79-.94Z"></path>
        <path class="cls-31" d="M73,153.84a7.18,7.18,0,1,0-7.17-7.17A7.18,7.18,0,0,0,73,153.84Z"></path>
        <path class="cls-6" d="M70.69,142.38s0-.26,1.32-1.27,2.5,1.06,2.5,1.06a2.57,2.57,0,0,0-1.42-.22,2.53,2.53,0,0,0-1.31.59,1.49,1.49,0,0,1,.89-.23,1.59,1.59,0,0,1,.87.32,3.34,3.34,0,0,1,1,1.25s-.68-.15-1.18-.28-1.15-.31-1.32-.38a2.48,2.48,0,0,0-.86-.06,2.36,2.36,0,0,0,0,1.53c.25.93.06,1.06.06,1.06a11,11,0,0,1-1.09-1.26c-.17-.39-.22-1.12.2-1.31s-.46-.44-1.22.29a3.46,3.46,0,0,0-.84,1.16s-.18-1.25.14-1.69,1.3-1.31,1.78-.93Z"></path>
        <path class="cls-31" d="M77.83,155h-5l.12.21L72,155H64.84a7.17,7.17,0,0,1,7.9-4h0a6.9,6.9,0,0,1,1.94.69,6,6,0,0,1,.8.5,6.45,6.45,0,0,1,.94.79A7.21,7.21,0,0,1,77.83,155Z"></path>
        <path class="cls-6" d="M72.94,155.21,72,155l-.23-.06c-.5-.14-1.15-.31-1.32-.38a2.27,2.27,0,0,0-.86-.07,3.1,3.1,0,0,0-.11.51h-1a.57.57,0,0,1,.3-.45c.41-.21-.45-.45-1.21.28l-.18.17h-.71a1.49,1.49,0,0,1,.18-.69c.32-.43,1.31-1.32,1.78-.94l.46.36s0-.17.64-.72c.18-.15.4-.34.68-.55l0,0c1.24-.91,2.35.87,2.46,1.06a2.59,2.59,0,0,0-2.08,0h0a2.59,2.59,0,0,0-.65.4,1.68,1.68,0,0,1,.9-.23,1.59,1.59,0,0,1,.88.33,3.4,3.4,0,0,1,.93,1Z"></path>
        <path class="cls-3" d="M84.4,133.67a4,4,0,0,0-1.72-2.44,2.81,2.81,0,0,0-3.17,0c-.34.22,0,.77.32.55a2.15,2.15,0,0,1,1.35-.4,2.49,2.49,0,0,1,1.22.48,3.31,3.31,0,0,1,1.39,2c.08.4.69.23.61-.16Z"></path>
        <path class="cls-25" d="M88.33,146.78a7.41,7.41,0,1,0-7.41-7.41A7.41,7.41,0,0,0,88.33,146.78Z"></path>
        <path class="cls-26" d="M81.65,142.57c1.88,3.32,3.28,3.81,5.89,3.57,2.37-.21,5.1-5,4.22-8.44a7.75,7.75,0,0,0-4.91-5.33C84.58,131.7,78.55,137.11,81.65,142.57Z"></path>
        <path class="cls-2" d="M84,132.89s2.93-2.45,4.64.89c0,0-.82-1.26-2.56-.15,0,0-2.34,2.6-3.91,3.23,0,0,1.17-1.89.68-2.56,0,0-3.5-.47-4.14-1A18.83,18.83,0,0,1,84,132.89Z"></path>
        <path class="cls-27" d="M83.58,138.82a1.89,1.89,0,0,0,0,1.08,2,2,0,0,0,.55.94c.27.07.21-.77.47-1.77s.74-1.77.47-1.83S83.85,137.82,83.58,138.82Z"></path>
        <path class="cls-3" d="M83.86,142.28a3.61,3.61,0,0,0-.77-1.36,3.65,3.65,0,0,0-1.28-.91,3.91,3.91,0,0,0-1.84-.42,3.87,3.87,0,0,0-1.82.52.32.32,0,0,0-.15.19.33.33,0,0,0,0,.24.31.31,0,0,0,.2.15.31.31,0,0,0,.23,0,3.12,3.12,0,0,1,1.54-.44,3.26,3.26,0,0,1,1.56.37,2.91,2.91,0,0,1,1.68,1.86C83.32,142.85,83.93,142.68,83.86,142.28Z"></path>
        <path class="cls-25" d="M95.2,148a7.32,7.32,0,0,1-2.48,5.51,3.23,3.23,0,0,1-.45.38A6.94,6.94,0,0,1,90.19,155H85.41a5.67,5.67,0,0,1-.91-.39s0,0,0,0a7.11,7.11,0,0,1-2.37-1.88l-.1-.12h0a6.39,6.39,0,0,1-.85-1.33l0-.07,0-.08a5.66,5.66,0,0,1-.39-1c0-.15-.08-.29-.11-.44,0,0,0,0,0,0a5.19,5.19,0,0,1-.15-1h0a4.92,4.92,0,0,1,0-.67,7.35,7.35,0,0,1,1.68-4.7,0,0,0,0,1,0,0h0l.17-.19.12-.12.17-.19,0,0a6.2,6.2,0,0,1,.61-.54,4.6,4.6,0,0,1,.52-.38,6.68,6.68,0,0,1,1.67-.83h0a5.81,5.81,0,0,1,1-.28,7.35,7.35,0,0,1,1.42-.14,4.71,4.71,0,0,1,.53,0,7.1,7.1,0,0,1,3.19,1,5.27,5.27,0,0,1,.74.49h0a6.9,6.9,0,0,1,1.8,2A7.23,7.23,0,0,1,95.2,148Z"></path>
        <path class="cls-26" d="M81.1,151.19c1.89,3.32,3.3,3.82,5.9,3.58,2.38-.23,5.1-5,4.27-8.44A7.7,7.7,0,0,0,86.36,141C84.05,140.28,78,145.71,81.1,151.19Z"></path>
        <path class="cls-2" d="M83.47,141.48s2.93-2.44,4.64.91c0,0-.82-1.28-2.57-.17,0,0-2.34,2.62-3.91,3.25,0,0,1.18-1.91.7-2.57a19.51,19.51,0,0,1-4.15-.94A18.81,18.81,0,0,1,83.47,141.48Z"></path>
        <path class="cls-27" d="M83,147.44a2,2,0,0,0,0,1.08,1.88,1.88,0,0,0,.55.93c.28.07.22-.76.48-1.75s.73-1.77.46-1.85S83.35,146.44,83,147.44Z"></path>
        <path class="cls-3" d="M82.06,150.91a4.14,4.14,0,0,0-.84-1.52,4.4,4.4,0,0,0-1.37-1,4.19,4.19,0,0,0-2.14-.49,4.08,4.08,0,0,0-2.08.68c-.34.24,0,.79.32.55a3.41,3.41,0,0,1,1.8-.59,3.34,3.34,0,0,1,1.83.45,3.47,3.47,0,0,1,1.15.86,3.53,3.53,0,0,1,.71,1.25c.07.4.69.23.61-.17Z"></path>
        <path class="cls-25" d="M93.23,155H78.78a7.26,7.26,0,0,1,1-2.44,7.91,7.91,0,0,1,.76-.95h0l.41-.41.08-.07h0l.29-.26.09-.07.44-.32a7.11,7.11,0,0,1,1.68-.83h0a6.67,6.67,0,0,1,1-.26,7.15,7.15,0,0,1,1.4-.14,7.54,7.54,0,0,1,2.19.33,7.47,7.47,0,0,1,4.08,3.13,6,6,0,0,1,.45.83A6.9,6.9,0,0,1,93.23,155Z"></path>
        <path class="cls-26" d="M89.44,155H78.67a8.38,8.38,0,0,1,1.91-3.39h0l.41-.41.08-.07h0l.29-.26.09-.07c.14-.12.29-.23.43-.33a4.93,4.93,0,0,1,1.69-.82h0a1.9,1.9,0,0,1,.92,0,9,9,0,0,1,1.26.57h0a7.77,7.77,0,0,1,1.84,1.48,7.49,7.49,0,0,1,.51.61,8.28,8.28,0,0,1,.82,1.37,8.62,8.62,0,0,1,.46,1.29S89.44,155,89.44,155Z"></path>
        <path class="cls-2" d="M81.68,150.12s2.93-2.45,4.64.89c0,0-.83-1.26-2.56-.15,0,0-2.35,2.6-3.91,3.24,0,0,1.17-1.9.68-2.57,0,0-3.5-.47-4.14-.95A18.8,18.8,0,0,1,81.68,150.12Z"></path>
        <path class="cls-27" d="M82.7,155h-.83a1.28,1.28,0,0,1,.84-.49C82.83,154.54,82.8,154.72,82.7,155Z"></path>
        <path class="cls-3" d="M80.07,131v.69c0,.48,0,1,0,1.45h0c0,.24,0,.46,0,.7s0,.22,0,.33v.1a20.74,20.74,0,0,1-.15,2.35A11.2,11.2,0,0,1,79.4,139l-.24.76c-.07.24-.15.49-.24.73-.15.49-.3,1-.47,1.45a.14.14,0,0,1,0,.06.19.19,0,0,1,0,.07c-.14.45-.29.9-.44,1.35s-.39,1.18-.58,1.78c-.3,1-.59,1.94-.86,2.93h0q-.12.39-.21.78c-.3,1.11-.58,2.22-.83,3.34a0,0,0,0,0,0,0c-.09.42-.17.82-.24,1.25h0c-.09.49-.17,1-.23,1.5H74.2q0-.65.15-1.29c.07-.56.16-1.12.27-1.67,0-.11,0-.22.07-.33a3.4,3.4,0,0,1,.09-.46c.39-1.92.87-3.81,1.39-5.68.24-.86.49-1.7.74-2.55.19-.66.39-1.32.58-2,.12-.42.25-.84.37-1.25l.33-1.22a16.87,16.87,0,0,0,.53-4.42c0-.27,0-.53,0-.8h0a3.69,3.69,0,0,0,0-.47h0c0-.5,0-1,0-1.49,0-2.09-.06-4.2-.13-6.29v-.16a.64.64,0,0,1,.07-.27.65.65,0,0,1,1-.17.62.62,0,0,1,.19.46l0,0c0,.13,0,.26,0,.39C80,127.19,80.06,129.06,80.07,131Z"></path>
        <path class="cls-32" d="M72.28,134.59S72,130,79,131.42"></path>
        <path class="cls-32" d="M71.15,142.73a5,5,0,0,1,1.06-1.83A4.88,4.88,0,0,1,74,139.69a4.8,4.8,0,0,1,2.09-.35,4.73,4.73,0,0,1,2,.57"></path>
        <path class="cls-32" d="M69.37,153.93s1.95-4.16,5.54-2.63"></path>
        <path class="cls-4" d="M73.36,129.21c-.16.19,2,3,2.52,4.62s-.8,6.92-.8,6.92-2.47-.9-3-1.88c0,0,1.43,2.23-1.28,5.27,0,0-2-1.82-2.06-1.76s-1.06,3.57-2.64,4S58,150,57.69,150.74s.72-6.43.75-7.63,1.92-6.41,4-6.38c0,0-3.36-.65-3.81-.37s2-4.22,6.15-4.43c0,0-2.88-.69-2.84-1s4.6-2.75,7.22-2.29A41.27,41.27,0,0,0,73.36,129.21Z"></path>
        <g class="cls-33">
          <path class="cls-6" d="M76.61,135.59a21.71,21.71,0,0,1-1.53,5.16s-3-2.81-3-6.27c0-1-1.13,1.34-.65,3.77a7.32,7.32,0,0,1-.08,3.51.4.4,0,0,1-.2.24.41.41,0,0,1-.31,0,4.25,4.25,0,0,1-2-1.09,4.32,4.32,0,0,1-1.14-2,.26.26,0,0,0-.07-.11.19.19,0,0,0-.12-.07h-.13a.28.28,0,0,0-.11.08C65.47,141.11,58,151,57.61,152.33c-.43,1.55,1.21-6.33,8.81-16.88a.46.46,0,0,0,.07-.16.54.54,0,0,0,0-.18.31.31,0,0,0-.06-.16.3.3,0,0,0-.12-.13,3.75,3.75,0,0,0-2.66-.81.14.14,0,0,1-.09,0,.23.23,0,0,1-.07-.07.14.14,0,0,1,0-.09.1.1,0,0,1,0-.08A10.73,10.73,0,0,1,68,131.41a.3.3,0,0,0,.13-.09.3.3,0,0,0,0-.15.25.25,0,0,0-.18-.25l-1.71-.5a.35.35,0,0,1-.12-.07.37.37,0,0,1-.07-.12.22.22,0,0,1,0-.14.31.31,0,0,1,.06-.13c2.11-2.28,4.07-2.11,5.28-2.4C73.79,126.92,77,133,76.61,135.59Z"></path>
        </g>
        <path class="cls-3" d="M58.9,149.31l2-3.51L63,142.35c.7-1.14,1.44-2.26,2.17-3.39s1.51-2.21,2.33-3.28a60.87,60.87,0,0,1,5.16-6.17,24.61,24.61,0,0,1,6.33-5l.13.32a24.44,24.44,0,0,0-6.3,4.91,62.22,62.22,0,0,0-5.28,6.07C66.7,136.84,66,138,65.17,139s-1.49,2.22-2.21,3.35l-2.11,3.43Z"></path>
        <path class="cls-3" d="M73,129.63a16,16,0,0,0,1.66,5.72,15.81,15.81,0,0,1-2-5.69Z"></path>
        <path class="cls-3" d="M69.09,134.12a24.83,24.83,0,0,0,.15,6.09,25.57,25.57,0,0,1-.5-6.11Z"></path>
        <path class="cls-3" d="M72.45,130a14,14,0,0,0-2.21-.39,5.51,5.51,0,0,0-2.25.14,6,6,0,0,1,2.26-.32,14.68,14.68,0,0,1,2.28.23Z"></path>
        <path class="cls-3" d="M69.77,133.15a7,7,0,0,0-2.49-.12,11.07,11.07,0,0,0-2.48.59,11.24,11.24,0,0,1,2.45-.77,7.21,7.21,0,0,1,2.62,0Z"></path>
        <path class="cls-3" d="M89.42,56.86a6.27,6.27,0,0,0-2.79.15,5.21,5.21,0,0,0-2.36,1.49A7.45,7.45,0,0,0,82.83,61a3.62,3.62,0,0,0-.1,1.35V64a.63.63,0,0,1-.63.62.61.61,0,0,1-.62-.62,9.37,9.37,0,0,0-.09-1.58,4.71,4.71,0,0,1,.12-1.83,8.8,8.8,0,0,1,1.66-3.05,6.59,6.59,0,0,1,3-2,7.46,7.46,0,0,1,3.57-.26.79.79,0,0,1,.51.32.75.75,0,0,1,.15.58.85.85,0,0,1-.32.51.8.8,0,0,1-.58.14h0Z"></path>
        <path class="cls-25" d="M79.94,85.27a6.52,6.52,0,1,0-6.52-6.52A6.52,6.52,0,0,0,79.94,85.27Z"></path>
        <path class="cls-26" d="M75,79.56a4.66,4.66,0,0,1,1.56-6.33c2.51-1.53,6.33-1.06,7.52.82s1.52,4.7-1,6.24S76.11,81.42,75,79.56Z"></path>
        <path class="cls-6" d="M78.46,74.73A1.79,1.79,0,0,0,76,74.51c-1.42,1.06-.93,1.66-.93,1.66a3.28,3.28,0,0,1,1.43-1.12,1.51,1.51,0,0,1,.67,0,1.5,1.5,0,0,1,.6.31,3.29,3.29,0,0,0-1.53.94A2.48,2.48,0,0,0,76.18,78l1.89-1.37.16-.77a7,7,0,0,1,1,1.55,3.19,3.19,0,0,1,.23.92s.49-1.43.17-2a6.91,6.91,0,0,1-.45-1s.24-.82,1.05-.24a7.8,7.8,0,0,1,1.34,1.29,3.53,3.53,0,0,0-.84-1.75c-.58-.46-1.68,0-1.68,0s-.18-.92.57-1.15S78.07,73.21,78.46,74.73Z"></path>
        <path class="cls-27" d="M82.3,79.58c.78-.48,1.24-1.17,1-1.54s-1-.27-1.83.21-1.24,1.17-1,1.54S81.51,80.06,82.3,79.58Z"></path>
        <path class="cls-34" d="M78.57,75.24s-1.06-3.38,3.17-2.76"></path>
        <path class="cls-25" d="M78.76,93.9a6.53,6.53,0,1,0-6.52-6.52A6.52,6.52,0,0,0,78.76,93.9Z"></path>
        <path class="cls-26" d="M73.79,88.19a4.63,4.63,0,0,1,1.56-6.33c2.51-1.54,6.33-1.06,7.52.82s1.51,4.7-1,6.23S74.91,90.06,73.79,88.19Z"></path>
        <path class="cls-6" d="M77.26,83.36a1.74,1.74,0,0,0-1.18-.6,1.81,1.81,0,0,0-1.27.38c-1.4,1.06-.91,1.67-.91,1.67a3.12,3.12,0,0,1,1.43-1.13,1.52,1.52,0,0,1,.67,0,1.38,1.38,0,0,1,.6.31,3.29,3.29,0,0,0-1.53.94A2.4,2.4,0,0,0,75,86.6l1.88-1.3.15-.78a7.44,7.44,0,0,1,1,1.55,3.73,3.73,0,0,1,.23.93s.49-1.44.17-2a7,7,0,0,1-.46-1s.25-.82,1-.24A7.8,7.8,0,0,1,80.31,85a3.62,3.62,0,0,0-.84-1.75c-.59-.47-1.68,0-1.68,0s-.19-.91.56-1.15S76.88,81.84,77.26,83.36Z"></path>
        <path class="cls-27" d="M81.12,88.22c.78-.48,1.24-1.17,1-1.54s-1-.27-1.83.21-1.23,1.17-1,1.53S80.34,88.7,81.12,88.22Z"></path>
        <path class="cls-34" d="M77.39,83.87S75.85,80.26,81,80.65"></path>
        <path class="cls-25" d="M77.54,102A6.52,6.52,0,1,0,71,95.5,6.51,6.51,0,0,0,77.54,102Z"></path>
        <path class="cls-26" d="M72.57,96.33A4.64,4.64,0,0,1,74.13,90c2.51-1.53,6.33-1,7.51.82s1.52,4.7-1,6.23S73.71,98.19,72.57,96.33Z"></path>
        <path class="cls-6" d="M76,91.5a1.78,1.78,0,0,0-2.45-.22c-1.4,1-.92,1.66-.92,1.66a3.2,3.2,0,0,1,1.44-1.13,1.52,1.52,0,0,1,.67,0,1.46,1.46,0,0,1,.59.31,3.39,3.39,0,0,0-1.53.94,2.52,2.52,0,0,0-.07,1.67l1.88-1.32.16-.78a8.23,8.23,0,0,1,1,1.56,4,4,0,0,1,.23.92s.48-1.44.17-2a6.59,6.59,0,0,1-.47-1.05s.26-.8,1.06-.23a8.1,8.1,0,0,1,1.34,1.28,3.6,3.6,0,0,0-.85-1.74c-.59-.46-1.67,0-1.67,0s-.19-.91.55-1.15S75.66,90,76,91.5Z"></path>
        <path class="cls-27" d="M79.89,96.35c.79-.48,1.24-1.16,1-1.53s-1-.28-1.83.2-1.24,1.17-1,1.54S79.11,96.84,79.89,96.35Z"></path>
        <path class="cls-34" d="M76.16,92s-.36-4.1,4-3.23"></path>
        <path class="cls-25" d="M90.78,83a6.52,6.52,0,1,0-6.52-6.52A6.52,6.52,0,0,0,90.78,83Z"></path>
        <path class="cls-26" d="M93.76,72.39a4.66,4.66,0,0,0-6.39-1.51c-2.5,1.53-3.81,5.2-2.68,7.06s3.49,3.49,6,2S95,74.25,93.76,72.39Z"></path>
        <path class="cls-6" d="M87.89,73.29A1.78,1.78,0,0,1,88.8,71c1.53-.8,1.9-.06,1.9-.06a3.09,3.09,0,0,0-1.65.75,1.35,1.35,0,0,0-.29.6,1.47,1.47,0,0,0,0,.66A3.48,3.48,0,0,1,90.29,72a2.57,2.57,0,0,1,1.5.73l-2,1.06L89,73.58a7.38,7.38,0,0,0,1,1.57,4.21,4.21,0,0,0,.71.62s-1.5-.22-1.87-.76a5.81,5.81,0,0,0-.69-.88s-.84-.14-.68.8A8.41,8.41,0,0,0,88,76.72a3.66,3.66,0,0,1-1.17-1.55c-.15-.73.78-1.48.78-1.48s-.73-.58-1.29,0S86.7,72.25,87.89,73.29Z"></path>
        <path class="cls-27" d="M90.47,78.92c.79-.48,1.24-1.17,1-1.54s-1-.27-1.83.21-1.24,1.17-1,1.54S89.69,79.4,90.47,78.92Z"></path>
        <path class="cls-34" d="M88.29,73.62s-3-4.11-6.33-1.05"></path>
        <path class="cls-25" d="M89.52,91.15A6.52,6.52,0,1,0,83,84.63,6.52,6.52,0,0,0,89.52,91.15Z"></path>
        <path class="cls-26" d="M92.5,80.58a4.62,4.62,0,0,0-6.33-1.51c-2.51,1.53-3.82,5.2-2.68,7.06s3.48,3.49,6,2S93.64,82.43,92.5,80.58Z"></path>
        <path class="cls-6" d="M86.62,81.47a1.75,1.75,0,0,1,0-1.33,1.8,1.8,0,0,1,.93-1c1.53-.8,1.91-.07,1.91-.07a3.26,3.26,0,0,0-1.66.77,1.49,1.49,0,0,0-.32.61,1.46,1.46,0,0,0,0,.69A3.24,3.24,0,0,1,89,80.25a2.43,2.43,0,0,1,1.5.69l-2,1.06-.76-.21a7.5,7.5,0,0,0,.95,1.55,3.62,3.62,0,0,0,.72.63s-1.5-.22-1.86-.76a5.87,5.87,0,0,0-.71-.87s-.83-.15-.66.8a7.46,7.46,0,0,0,.54,1.78,3.64,3.64,0,0,1-1.19-1.55c-.13-.73.79-1.48.79-1.48s-.73-.59-1.28,0S85.46,80.43,86.62,81.47Z"></path>
        <path class="cls-27" d="M89.2,87.1c.79-.48,1.24-1.16,1-1.53s-1-.28-1.83.2-1.23,1.17-1,1.54S88.41,87.59,89.2,87.1Z"></path>
        <path class="cls-34" d="M87,81.81s-2.46-3.61-6-1.16"></path>
        <path class="cls-25" d="M88.55,99.5A6.52,6.52,0,1,0,82,93,6.52,6.52,0,0,0,88.55,99.5Z"></path>
        <path class="cls-26" d="M91.53,88.93a4.62,4.62,0,0,0-6.33-1.51c-2.52,1.53-3.82,5.2-2.68,7s3.48,3.5,6,2S92.67,90.78,91.53,88.93Z"></path>
        <path class="cls-6" d="M85.65,89.82a1.75,1.75,0,0,1,0-1.33,1.78,1.78,0,0,1,.92-1c1.53-.8,1.91-.07,1.91-.07a3.13,3.13,0,0,0-1.66.78,1.48,1.48,0,0,0-.3.6,1.34,1.34,0,0,0,0,.66,3.32,3.32,0,0,1,1.54-.91,2.43,2.43,0,0,1,1.5.69l-2,1.06-.76-.22a7.5,7.5,0,0,0,.95,1.55,4,4,0,0,0,.72.63s-1.5-.22-1.86-.76a6.67,6.67,0,0,0-.71-.88s-.83-.14-.66.81a7,7,0,0,0,.54,1.78,3.72,3.72,0,0,1-1.19-1.5c-.13-.73.79-1.48.79-1.48s-.73-.58-1.28,0S84.47,88.79,85.65,89.82Z"></path>
        <path class="cls-27" d="M88.23,95.45c.78-.48,1.23-1.17,1-1.54s-1-.27-1.83.21-1.24,1.17-1,1.53S87.44,95.93,88.23,95.45Z"></path>
        <path class="cls-34" d="M86.05,90.16s-2.62-4-5.87-1.35"></path>
        <path class="cls-25" d="M83.22,108.33a6.52,6.52,0,1,0-6.52-6.52A6.52,6.52,0,0,0,83.22,108.33Z"></path>
        <path class="cls-26" d="M86.21,97.76a4.62,4.62,0,0,0-6.33-1.51c-2.56,1.53-3.92,5.2-2.73,7.1s3.48,3.49,6,2S87.35,99.61,86.21,97.76Z"></path>
        <path class="cls-6" d="M80.33,98.65a1.78,1.78,0,0,1,.91-2.28c1.53-.8,1.91-.07,1.91-.07a3.26,3.26,0,0,0-1.67.77,1.68,1.68,0,0,0-.27.61,1.52,1.52,0,0,0,0,.67,3.29,3.29,0,0,1,1.53-.94,2.43,2.43,0,0,1,1.52.69l-2,1.06-.76-.22a7.5,7.5,0,0,0,1,1.55,4.78,4.78,0,0,0,.72.63s-1.5-.22-1.86-.76a6,6,0,0,0-.71-.88s-.83-.14-.67.81a8,8,0,0,0,.55,1.78,3.6,3.6,0,0,1-1.18-1.55c-.15-.73.78-1.48.78-1.48s-.73-.58-1.28,0S79.13,97.62,80.33,98.65Z"></path>
        <path class="cls-27" d="M82.91,104.28c.79-.48,1.24-1.17,1-1.54s-1.05-.27-1.83.21-1.24,1.17-1,1.54S82.13,104.76,82.91,104.28Z"></path>
        <path class="cls-35" d="M81.72,63s.23,5.43.15,7.92S79.76,93.41,79.4,94.22c0,0,3.59-24.73,3.12-30.91Z"></path>
        <path class="cls-34" d="M80.73,99a7.18,7.18,0,0,1-1.33-4.77"></path>
        <path class="cls-4" d="M83.52,55.77s-3.17-4-10.39,1c0,0,1.05,1.26,2.11.94,0,0-5.75,1-6,8.27,0,0-4.74,8.6-1.29,13.49l2.11-8s-.19,2.65,2,3.37c0,0,1.87-5.53,1.89-5.83s.33.89,1.75,1.66a41.91,41.91,0,0,1,1.9-4.34C78.37,65,83.65,58.55,83.52,55.77Z"></path>
        <g class="cls-36">
          <path class="cls-6" d="M82.81,52.7l-8.44,2.4s5.36-.64,3.9,1.51-5.87,3.07-5.87,3.07,2.25.09,1.3,1.34-1.28,1-4.51,4.91c0,0,2.75-2.39,1.38.86,0,0,4.52-8,3,0,0,0,6.23-11.4,9.58-6.33C83.16,60.45,87.72,56.19,82.81,52.7Z"></path>
        </g>
        <path class="cls-3" d="M86.06,55.59a27,27,0,0,0-4.51,1.7,42.15,42.15,0,0,0-4.22,2.32,44.48,44.48,0,0,0-4,2.82,47.56,47.56,0,0,0-3.73,3.22c1.15-1.16,2.35-2.27,3.6-3.31a44.67,44.67,0,0,1,3.92-2.91A40,40,0,0,1,81.37,57a27.27,27.27,0,0,1,4.56-1.82Z"></path>
        <path class="cls-3" d="M76.58,60.09a13,13,0,0,1-3.34-.31,12,12,0,0,0,3.33.1Z"></path>
        <path class="cls-3" d="M73.46,62.36a26.27,26.27,0,0,0-2.2,3.49,17.26,17.26,0,0,0-1.5,3.86,16.81,16.81,0,0,1,1.4-3.9,28.49,28.49,0,0,1,2.11-3.58Z"></path>
        <path class="cls-3" d="M77.93,59.19a36.83,36.83,0,0,0-2.43,3.53,14.77,14.77,0,0,0-1.75,3.91,15,15,0,0,1,1.66-4A35.92,35.92,0,0,1,77.77,59Z"></path>
      </g>
    </g>
  </g>
</svg>
