<?xml version="1.0" encoding="UTF-8"?>
<svg xmlns="http://www.w3.org/2000/svg" xmlns:xlink="http://www.w3.org/1999/xlink" viewBox="0 0 247.22 121.76">
  <defs>
    <style>
      .cls-1 {
        fill: #fff;
      }

      .cls-2 {
        fill: #92b832;
      }

      .cls-3 {
        fill: #72aa2a;
      }

      .cls-4 {
        mask: url(#mask);
      }

      .cls-5 {
        fill: #6c9914;
      }

      .cls-6 {
        fill: #aee43e;
      }

      .cls-7 {
        fill: none;
        stroke: #92b832;
        stroke-linecap: round;
        stroke-linejoin: round;
        stroke-width: 3.26px;
      }

      .cls-8 {
        mask: url(#mask-2);
      }

      .cls-9 {
        fill: #78a857;
      }

      .cls-10 {
        fill: #a0d931;
      }

      .cls-11 {
        mask: url(#mask-3);
      }

      .cls-12 {
        fill: #85b625;
      }

      .cls-13 {
        fill: #b3e743;
      }

      .cls-14 {
        fill: #99cc27;
      }

      .cls-15 {
        fill: #d2ed88;
      }

      .cls-16 {
        fill: #eee20f;
      }

      .cls-17 {
        fill: #f9bb0c;
      }

      .cls-18 {
        fill: #87a75d;
      }

      .cls-19 {
        mask: url(#mask-4);
      }

      .cls-20 {
        fill: #b1c989;
      }

      .cls-21 {
        mask: url(#mask-5);
      }

      .cls-22 {
        fill: #9c0;
      }
    </style>
    <mask id="mask" x="0" y="18.77" width="113.33" height="82.98" maskUnits="userSpaceOnUse">
      <g id="mask1_3468_6345" data-name="mask1 3468 6345">
        <path class="cls-1" d="M74.7,57.57s.76-15.79-2.29-21.14-9.93-12-24.45-7.64-14.77,14-16,17.57S29.37,45.6,27.08,52s0,15.79-1.53,19.36-4.33,8.38-4.33,10.42S27.84,79.47,30.9,80s9.93,7.64,11.2,6.62,9.43-2.55,15.28-1.78,22.16,6.31,30.56,1.88,12.48-4.94,14.77-15.89c0,0,6.11-3.06,8.41-6.11S116,46.9,107.3,42.3,92,41.78,89,45.6,74.67,65.21,74.7,57.57Z"></path>
      </g>
    </mask>
    <mask id="mask-2" x="164.45" y="0" width="66.74" height="65.15" maskUnits="userSpaceOnUse">
      <g id="mask3_3468_6345" data-name="mask3 3468 6345">
        <path class="cls-1" d="M201.32,47.63a4.54,4.54,0,0,0-.95-2,4.45,4.45,0,0,0-1.76-1.27,4.43,4.43,0,0,0-4.19.44c-2.38,1.56-6.12,3.8-7.79,3.63-2.55-.25-5.6-1-6.88-2.54a8.55,8.55,0,0,0-2.8-2.55c-1.53-1,.51-6.88-3.56-7.39,0,0,7.38-1.78,5.6-15.79,0,0,7.64-2,8.15-5.09,0,0,5.35-1,5.86-5.09,0,0,3.05,3.56,6.11,2,0,0,4.84,1.53,5.6-2,0,0,9.93,1.27,11.71-2,0,0-1.78,7.64,3.06,7.64,0,0-.76,9.17,4.84,10.19,0,0-2.55,7.89,1.27,7.64,0,0-5.6,7.89-3.05,8.4s8.65.25,8.65.25-2.13,8.13-8,9.66-.57,5,3.67,4.41c2.08-.28-7.64,5.29-11,4.27,0,0-.44,2.75.26,3.06s-5.86-1-5.35,1-6.36-1.28-6.87-4.33-3.31-2.81-3.06-5.61C201,53.07,201.76,50.13,201.32,47.63Z"></path>
      </g>
    </mask>
    <mask id="mask-3" x="54.22" y="68.03" width="129.12" height="53.73" maskUnits="userSpaceOnUse">
      <g id="mask4_3468_6345" data-name="mask4 3468 6345">
        <path class="cls-1" d="M59.86,91.23s0-13,9.13-18.08S97.22,70.6,112.79,76s48.64,4.37,53,4.86,11.43,2.5,11.69,10.39-2,11.46-15.54,15.79-34.38,8.15-68.5,7.64S59.86,91.23,59.86,91.23Z"></path>
      </g>
    </mask>
    <mask id="mask-4" x="209.48" y="62.5" width="8.92" height="11.52" maskUnits="userSpaceOnUse">
      <g id="mask5_3468_6345" data-name="mask5 3468 6345">
        <path class="cls-1" d="M212.54,72.16s-2.29-4.08-.89-6,6.75,0,6.75,0S212.42,69.48,212.54,72.16Z"></path>
      </g>
    </mask>
    <mask id="mask-5" x="206.74" y="58.43" width="148.72" height="58.08" maskUnits="userSpaceOnUse">
      <g id="mask6_3468_6345" data-name="mask6 3468 6345">
        <path class="cls-1" d="M211.81,76.76c0-1-.3-11.4,8.66-11.46,5.88,0,15.57,4.53,22.94,7.64,9.82,4.15,36.69,4.33,58.59-3s37.7-2.55,45.33,2.29c6.25,4,11.21,16.55,5.86,28.52s-24,19-66.21,14.23S211.77,91,211.81,76.76Z"></path>
      </g>
    </mask>
  </defs>
  <g id="Слой_2" data-name="Слой 2">
    <g id="Слой_1-2" data-name="Слой 1">
      <g>
        <path class="cls-2" d="M214.54,66.49a1.64,1.64,0,0,1,.33,1.21A1.65,1.65,0,0,1,213,69.12a1.7,1.7,0,0,1-1.09-.63c-1.42-1.89-5.84-6.76-9.4-6.76h-.11a4.2,4.2,0,0,0-1.95.69A4.26,4.26,0,0,0,199.09,64c-3.39,5.12-.42,8.41,4.72,13.35a39.54,39.54,0,0,1,5.49,6c5.08,7.43,5.54,12.18,5.56,12.38a1.51,1.51,0,0,1-.07.63,1.48,1.48,0,0,1-.3.55,1.66,1.66,0,0,1-1.11.58h-.16a1.65,1.65,0,0,1-1.08-.43,1.62,1.62,0,0,1-.53-1s-.47-4.18-5-10.81a37.36,37.36,0,0,0-5.06-5.53c-4.81-4.62-10.25-9.85-5.18-17.51a7.27,7.27,0,0,1,2.53-2.61,7.13,7.13,0,0,1,3.47-1.07c5.88-.12,11.58,7.23,12.21,8.07Z"></path>
        <path class="cls-3" d="M74.7,57.57s.76-15.79-2.29-21.14-9.93-12-24.45-7.64-14.77,14-16,17.57S29.37,45.6,27.08,52s0,15.79-1.53,19.36-4.33,8.38-4.33,10.42S27.84,79.47,30.9,80s9.93,7.64,11.2,6.62,9.43-2.55,15.28-1.78,22.16,6.31,30.56,1.88,12.48-4.94,14.77-15.89c0,0,6.11-3.06,8.41-6.11S116,46.9,107.3,42.3,92,41.78,89,45.6,74.67,65.21,74.7,57.57Z"></path>
        <g class="cls-4">
          <path class="cls-5" d="M3.44,101.75s.25-20.61,53.8-31.5c0,0,29.47-10.9,26.42-26.56s-9.34-26-24.34-24.83S-.38,63,0,69.6,3.44,101.75,3.44,101.75Z"></path>
        </g>
        <path class="cls-6" d="M47.11,72.72c2.73-.68,5.48-1.27,8.16-2.1l2-.58,2-.67,2-.68c.65-.23,1.29-.51,1.94-.77A33.83,33.83,0,0,0,70.57,64l.82-.61.75-.69a10.43,10.43,0,0,0,1.32-1.5l.49-.85c.1-.29.23-.59.3-.88a2.8,2.8,0,0,0,0-1.67v-.1a.58.58,0,0,1,0-.45.54.54,0,0,1,.3-.31.59.59,0,0,1,.22,0A.54.54,0,0,1,75,57a.76.76,0,0,1,.19.12.62.62,0,0,1,.12.19,3.8,3.8,0,0,1,.1,2.47c-.12.36-.25.72-.41,1.08l-.6,1a11.41,11.41,0,0,1-1.51,1.6l-.82.72-.89.61a35.11,35.11,0,0,1-7.65,3.71c-.66.23-1.32.49-2,.71l-2,.61-2,.61-2,.51C52.63,71.63,49.86,72.13,47.11,72.72Z"></path>
        <path class="cls-6" d="M74.64,60.8a22.3,22.3,0,0,0,2.9,1.81A21.89,21.89,0,0,0,80.73,64a15.26,15.26,0,0,0,3.4.66,13.52,13.52,0,0,0,3.48-.24,13.22,13.22,0,0,1-3.49.53,16.2,16.2,0,0,1-3.54-.39,23.35,23.35,0,0,1-3.36-1.15A21.73,21.73,0,0,1,74,61.72a.61.61,0,0,1-.16-.16.72.72,0,0,1-.09-.2.45.45,0,0,1,0-.23.5.5,0,0,1,.08-.2.52.52,0,0,1,.16-.17.72.72,0,0,1,.2-.09.55.55,0,0,1,.22,0,.5.5,0,0,1,.21.09Z"></path>
        <path class="cls-6" d="M67.52,66.37a11.64,11.64,0,0,0,2.19,2.74,17.08,17.08,0,0,0,2.84,2.17,20.94,20.94,0,0,0,3.21,1.61c.56.23,1.14.4,1.7.61l1.76.47-1.76-.42c-.57-.18-1.16-.33-1.72-.55a21.35,21.35,0,0,1-3.31-1.49,18.86,18.86,0,0,1-3-2.11A11.86,11.86,0,0,1,67,66.61a.3.3,0,0,1,0-.1.34.34,0,0,1,0-.1.18.18,0,0,1,0-.1.3.3,0,0,1,.08-.08.39.39,0,0,1,.21,0,.3.3,0,0,1,.17.12Z"></path>
        <path class="cls-6" d="M74.61,60.49H74.5l-.28.06c-.19,0-.38.07-.59.09a8,8,0,0,1-1.2.06,6.61,6.61,0,0,1-2.36-.5,7.33,7.33,0,0,1-3.46-3.12l-.31-.48-.25-.52c-.16-.35-.33-.69-.48-1-.23-.73-.53-1.43-.7-2.17s-.37-1.47-.48-2.21l-.33-2.24.47,2.21c.16.73.42,1.44.62,2.16s.55,1.38.81,2.07c.17.33.36.65.54,1l.26.48.33.44a6.56,6.56,0,0,0,3.29,2.63,5.69,5.69,0,0,0,2,.31,6.67,6.67,0,0,0,1-.13,2.55,2.55,0,0,0,.52-.11l.27-.07h.17a1.82,1.82,0,0,1,.33,0,.6.6,0,0,1,.35.25.56.56,0,0,1-.14.78.54.54,0,0,1-.41.11Z"></path>
        <path class="cls-6" d="M48.9,54.35a31.31,31.31,0,0,0,9.26,7.72,24.09,24.09,0,0,0,5.61,2.18,21.25,21.25,0,0,0,6,.59.31.31,0,0,1,.3.3.2.2,0,0,1,0,.11.21.21,0,0,1-.06.1l-.1.07-.12,0a22,22,0,0,1-6.09-.76A24.1,24.1,0,0,1,58,62.33a31.33,31.33,0,0,1-9.13-8Z"></path>
        <path class="cls-2" d="M241.24,62.86c2-1,4-2,6-2.86v2.15c-1.68.85-3.34,1.73-5,2.62q-3.71,2-7.22,4.25l-.34.22-.33.2c-1.64,1.09-3.26,2.22-4.84,3.41-.91.66-1.81,1.35-2.69,2.06l-.09.07c-1.19,1-2.34,2-3.4,3a31.5,31.5,0,0,0-2.88,3.43l-.46.66a30.07,30.07,0,0,0-2.91,5.42c-.25.61-.47,1.23-.68,1.85a30.67,30.67,0,0,0-1.31,5.59,30,30,0,0,0-.29,3.14c0,1.46,0,3,.09,4.54s.2,3,.38,4.56a1.55,1.55,0,0,1-.34,1.17,1.61,1.61,0,0,1-1.06.61,1.59,1.59,0,0,1-1.19-.31,1.62,1.62,0,0,1-.64-1c-.12-.78-.22-1.57-.3-2.36v0c0-.35-.08-.71-.11-1.06-.14-1.59-.22-3.19-.23-4.78,0,0,0,0,0,0,0-.48,0-1,0-1.43,0-.72.08-1.43.16-2.14v-.07h0a29.22,29.22,0,0,1,.55-3.37l.15-.66c0-.16.07-.3.12-.45.14-.58.3-1.16.48-1.72h0a31.61,31.61,0,0,1,1.95-4.75s0,0,0,0a31.2,31.2,0,0,1,2.78-4.54c.14-.2.29-.4.44-.59A34.32,34.32,0,0,1,221.33,76c1-1,2.08-1.85,3.15-2.68l.56-.44c.59-.45,1.18-.88,1.78-1.32,1.55-1.12,3.14-2.19,4.75-3.22a2.29,2.29,0,0,1,.29-.18s0,0,0,0a2.92,2.92,0,0,1,.32-.21A99.08,99.08,0,0,1,241.24,62.86Z"></path>
        <path class="cls-7" d="M200.57,44.3s-1.1.43-5.54,7.22c-11.6,17.75,7.42,28,11.41,33.12"></path>
        <path class="cls-3" d="M201.32,47.63a4.54,4.54,0,0,0-.95-2,4.45,4.45,0,0,0-1.76-1.27,4.43,4.43,0,0,0-4.19.44c-2.38,1.56-6.12,3.8-7.79,3.63-2.55-.25-5.6-1-6.88-2.54a8.55,8.55,0,0,0-2.8-2.55c-1.53-1,.51-6.88-3.56-7.39,0,0,7.38-1.78,5.6-15.79,0,0,7.64-2,8.15-5.09,0,0,5.35-1,5.86-5.09,0,0,3.05,3.56,6.11,2,0,0,4.84,1.53,5.6-2,0,0,9.93,1.27,11.71-2,0,0-1.78,7.64,3.06,7.64,0,0-.76,9.17,4.84,10.19,0,0-2.55,7.89,1.27,7.64,0,0-5.6,7.89-3.05,8.4s8.65.25,8.65.25-2.13,8.13-8,9.66-.57,5,3.67,4.41c2.08-.28-7.64,5.29-11,4.27,0,0-.44,2.75.26,3.06s-5.86-1-5.35,1-6.36-1.28-6.87-4.33-3.31-2.81-3.06-5.61C201,53.07,201.76,50.13,201.32,47.63Z"></path>
        <g class="cls-8">
          <path class="cls-5" d="M193.84,47.46s13.92.1,17.42-27.31c0,0,3.53-11.65,8.24-16.43S194-1.91,183.5,5.25,163,18.62,164.62,26s6,13.71,7.26,14.47,7.92,8,9.26,8.78S193.84,47.46,193.84,47.46Z"></path>
        </g>
        <path class="cls-6" d="M199.46,44.65A12.41,12.41,0,0,0,202,42.73a20.46,20.46,0,0,0,2.15-2.41,27.6,27.6,0,0,0,3.27-5.61,39,39,0,0,0,2.16-6.15c.27-1.06.5-2.12.74-3.19l.53-3.23-.46,3.25c-.22,1.07-.42,2.14-.66,3.21a41.09,41.09,0,0,1-2,6.23,28.13,28.13,0,0,1-3.18,5.76,21.41,21.41,0,0,1-2.15,2.51,12,12,0,0,1-2.63,2.09.21.21,0,0,1-.11,0,.25.25,0,0,1-.12,0,.31.31,0,0,1-.18-.14.36.36,0,0,1,0-.11.37.37,0,0,1,0-.11.37.37,0,0,1,.05-.11l.09-.08Z"></path>
        <path class="cls-6" d="M195.05,29.82a16.65,16.65,0,0,0,.4,3.91,18.87,18.87,0,0,0,1.26,3.71,16.88,16.88,0,0,0,.92,1.73,3.64,3.64,0,0,0,.53.77,4.6,4.6,0,0,0,.76.55,14.23,14.23,0,0,1,1.69,1.08,5,5,0,0,1,1.33,1.6.21.21,0,0,1,0,.11.25.25,0,0,1,0,.12.37.37,0,0,1-.05.11l-.1.07-.11,0a.25.25,0,0,1-.12,0,.24.24,0,0,1-.11-.06.31.31,0,0,1-.07-.09A4.32,4.32,0,0,0,200.27,42a14.18,14.18,0,0,0-1.59-1.11,4.56,4.56,0,0,1-.81-.64,4.08,4.08,0,0,1-.57-.87,19.7,19.7,0,0,1-.87-1.79,19.58,19.58,0,0,1-1.12-3.81A15.78,15.78,0,0,1,195.05,29.82Z"></path>
        <path class="cls-6" d="M182.57,37A25.73,25.73,0,0,0,186,38.44a22.74,22.74,0,0,0,3.63.93,16.66,16.66,0,0,0,3.73.16,10.88,10.88,0,0,0,3.54-1l.07,0h.06l.06,0a.21.21,0,0,1,0,.06.19.19,0,0,1,0,.13.22.22,0,0,1-.09.1,11.18,11.18,0,0,1-3.68,1,16,16,0,0,1-3.78-.24,24.09,24.09,0,0,1-3.63-1A26.85,26.85,0,0,1,182.57,37Z"></path>
        <path class="cls-6" d="M186.14,24.41A16.65,16.65,0,0,0,187.27,28a14.11,14.11,0,0,0,1.95,3.07,9.39,9.39,0,0,0,6.31,3.38h0l0,0a0,0,0,0,1,0,0s0,0,0,0a0,0,0,0,1,0,0l0,0h-.07A9.54,9.54,0,0,1,192,33.5a10,10,0,0,1-2.84-2.38A14.41,14.41,0,0,1,187.22,28,16.69,16.69,0,0,1,186.14,24.41Z"></path>
        <path class="cls-6" d="M202.29,22.14a16.3,16.3,0,0,0,1.84,6.1A12.91,12.91,0,0,0,206,30.86a12.19,12.19,0,0,0,2.38,2.1l0,0s0,0,0,0,0,0,0,.05l0,0s0,0,0,0h-.09s0,0,0,0A12.67,12.67,0,0,1,205.81,31,13.15,13.15,0,0,1,204,28.29,16.28,16.28,0,0,1,202.29,22.14Z"></path>
        <path class="cls-6" d="M219.5,28a26.36,26.36,0,0,1-5,1.64,15.59,15.59,0,0,1-5.23.32l0,0,0,0s0,0,0,0v0s0,0,0,0l0,0h0a0,0,0,0,1,0,0,15.54,15.54,0,0,0,5.18-.21A25.58,25.58,0,0,0,219.5,28Z"></path>
        <path class="cls-6" d="M223.83,46.59a31.42,31.42,0,0,1-5.31-.21q-2.66-.27-5.27-.79a34.22,34.22,0,0,1-5.16-1.4,27,27,0,0,1-4.76-2.43.24.24,0,0,1-.11-.15.22.22,0,0,1,.18-.3.25.25,0,0,1,.19,0,26.62,26.62,0,0,0,4.63,2.52,34.67,34.67,0,0,0,5.07,1.5c1.72.39,3.47.68,5.23.91A31.5,31.5,0,0,0,223.83,46.59Z"></path>
        <path class="cls-6" d="M216.22,57.3a11.8,11.8,0,0,1-5-1.56,16,16,0,0,1-4.06-3.36c-.28-.34-.58-.66-.84-1l-.77-1.08c-.47-.74-.93-1.52-1.36-2.26a11,11,0,0,0-3.72-3.54l-.06-.06a.13.13,0,0,1,0-.08.14.14,0,0,1,0-.09.21.21,0,0,1,0-.07l.06-.07.07,0h.09l.07,0a11.39,11.39,0,0,1,3.76,3.74c.43.78.85,1.53,1.3,2.28l.74,1.08c.25.35.54.68.81,1a16.13,16.13,0,0,0,3.91,3.41A11.84,11.84,0,0,0,216.22,57.3Z"></path>
        <path class="cls-6" d="M214.14,51.52a17.16,17.16,0,0,1-2.71,1.53,6.14,6.14,0,0,1-3.07.62l-.08-.05a.11.11,0,0,1,0-.08.08.08,0,0,1,0,0s0,0,0,0l0,0h0a5.94,5.94,0,0,0,3-.49A16.25,16.25,0,0,0,214.14,51.52Z"></path>
        <path class="cls-6" d="M220,43.73c-.22.3-.42.62-.66.91a5.11,5.11,0,0,1-.82.79,3.26,3.26,0,0,1-2.15.69s0,0,0,0a.07.07,0,0,1,0-.1.08.08,0,0,1,0,0,3.11,3.11,0,0,0,2.09-.59,3.94,3.94,0,0,0,.83-.75A9.76,9.76,0,0,0,220,43.73Z"></path>
        <path class="cls-6" d="M222.54,49.27a6.66,6.66,0,0,1-1.67-1.11,3.89,3.89,0,0,1-1.09-1.68v-.06l0,0,0,0a3.73,3.73,0,0,0,1,1.67A6.59,6.59,0,0,0,222.54,49.27Z"></path>
        <path class="cls-6" d="M190.15,22.14a9.88,9.88,0,0,1,.33,4.32,7.08,7.08,0,0,1-.64,2.08,7.34,7.34,0,0,1-1.21,1.81,6.63,6.63,0,0,0,1.22-1.78,6.82,6.82,0,0,0,.64-2.07A9.76,9.76,0,0,0,190.15,22.14Z"></path>
        <path class="cls-6" d="M197.73,19.29a9.72,9.72,0,0,0,.47,2.55,11,11,0,0,0,1.07,2.37A6.31,6.31,0,0,0,201,26.08a5.25,5.25,0,0,0,2.42.82A5.71,5.71,0,0,1,201,26a6.39,6.39,0,0,1-1.76-1.9,10.2,10.2,0,0,1-1-2.29A9.75,9.75,0,0,1,197.73,19.29Z"></path>
        <path class="cls-7" d="M177.5,89.08s6.57,1.54,12.3-1.11c7.39-3.41,20.19-6.46,23.43,7.84"></path>
        <path class="cls-2" d="M141.28,60.86a54.83,54.83,0,0,0,.65,14,20.6,20.6,0,0,0,2.2,6.37,5.62,5.62,0,0,0,2.09,2.1,3.42,3.42,0,0,0,1.34.28,3.37,3.37,0,0,0,1.33-.28,11,11,0,0,0,2.79-1.65c.92-.69,1.81-1.44,2.72-2.21A51.26,51.26,0,0,1,160.2,75a22.41,22.41,0,0,1,6.85-3,36,36,0,0,1,7.32-.75A55.33,55.33,0,0,1,188.81,73a41.53,41.53,0,0,1,13.41,6,28.35,28.35,0,0,1,9.72,11.22,32.24,32.24,0,0,1,2.93,14.55,1.6,1.6,0,0,1-.53,1.06,1.62,1.62,0,0,1-1.13.42,1.58,1.58,0,0,1-1.1-.45,1.64,1.64,0,0,1-.51-1.08,28.94,28.94,0,0,0-2.38-13.18,25.4,25.4,0,0,0-8.59-10.18,39,39,0,0,0-12.45-5.69,53.15,53.15,0,0,0-13.74-1.85,33.3,33.3,0,0,0-6.83.59A20,20,0,0,0,161.39,77a50.08,50.08,0,0,0-5.62,4.13c-.92.75-1.84,1.51-2.84,2.24a13.18,13.18,0,0,1-3.35,1.9,5.56,5.56,0,0,1-2.14.34,5.71,5.71,0,0,1-2.11-.53,7.52,7.52,0,0,1-2.87-2.89,22.09,22.09,0,0,1-2.35-7,56.33,56.33,0,0,1-.48-14.44.86.86,0,0,1,.3-.56.82.82,0,0,1,1.16.1.81.81,0,0,1,.19.6Z"></path>
        <path class="cls-9" d="M175.47,86.23s5.22-.64,6.11,2.67-3.05,6.24-4.71,6.88S175.47,86.23,175.47,86.23Z"></path>
        <path class="cls-10" d="M59.86,91.23s0-13,9.13-18.08S97.22,70.6,112.79,76s48.64,4.37,53,4.86,11.43,2.5,11.69,10.39-2,11.46-15.54,15.79-34.38,8.15-68.5,7.64S59.86,91.23,59.86,91.23Z"></path>
        <g class="cls-11">
          <g>
            <path class="cls-12" d="M57.88,83.38s3.47-4.59,3.74-1.15S68,101.9,87.67,105.34c19,3.32,66.58,5.57,82.38-3.74a10.5,10.5,0,0,0,3-2.75c1.28-1.69,2.91-4.44,2.74-7.26-.3-5-1.88-7.77-6.06-9.94-3.7-1.92,6.92-1.71,6.92-1.71l6.68,13.94s.39,7.83-3.82,12.23-16.42,11-16.42,11-86.6,7-90.46,3.87-18.41-15.64-18.41-15.64Z"></path>
            <path class="cls-13" d="M62.27,76.5c-.89.84-2.31,9.74,4.1,5.35s29.52-3.44,45.75,0S132.22,83,132.22,83s-18.15-4-23.5-6.3S81.37,58.55,62.27,76.5Z"></path>
          </g>
        </g>
        <path class="cls-14" d="M69.47,85.48s7.51-4,25.27-2.29,23.67,8.21,32.65,9.36,22.17,3.62,30.76,1c0,0-12.22,6.49-34.76,2.1S79.72,83.57,69.47,85.48Z"></path>
        <path class="cls-14" d="M82.71,90s46.79,23.23,80.79,4.32c0,0-23.17,9.36-44.82,4S94.74,90,82.71,90Z"></path>
        <path class="cls-13" d="M129.12,86.81s10.85,3.53,22.2.51c14.09-3.75,25-1.47,21.54.83S162.74,88,153.22,90C145.53,91.51,137.61,90.32,129.12,86.81Z"></path>
        <path class="cls-15" d="M72.83,75c-.48-.82-2.08-.78-3.57.08s-2.33,2.23-1.85,3,1.69.07,3.19-.8S73.3,75.82,72.83,75Z"></path>
        <path class="cls-15" d="M136.89,105.4s15.15.44,23-3.72C159.94,101.68,153.7,107.44,136.89,105.4Z"></path>
        <path class="cls-15" d="M64.27,83.93c.7-2,.57-3.91-.3-4.21s-2.14,1.1-2.83,3.12-.57,3.91.3,4.21S63.57,86,64.27,83.93Z"></path>
        <path class="cls-16" d="M59.35,80.18S56.3,84.26,56,85.28c0,0,2.8-2,3.31-1.79s-2.29,3.78-1.65,5.58c0,0,3-4.15,4.07-3.92S63.55,80.44,59.35,80.18Z"></path>
        <path class="cls-17" d="M59.35,81.58a6.47,6.47,0,0,0-2.13,6.24s1.72-2.93,2.1-2.42a4.89,4.89,0,0,1,0,3.57,19.59,19.59,0,0,0,2.17-2.29c.38-.51,2.29-1.79,2.16-2.68s-1-3.82-1-3.82a2,2,0,0,0-.73-.59,2,2,0,0,0-.92-.22,2,2,0,0,0-.92.22,2.13,2.13,0,0,0-.74.59c-1.65,1.91-2.74,3.31-2.74,3.31Z"></path>
        <path class="cls-5" d="M211.61,96a24.91,24.91,0,0,0-3-7.14,29.4,29.4,0,0,0-4.53-6.22c-1.81-1.83-3.75-3.55-5.57-5.44a16.68,16.68,0,0,1-4.26-6.65,9.85,9.85,0,0,1-.17-4,10,10,0,0,1,1.45-3.75,10.51,10.51,0,0,1,2.54-3.09,7,7,0,0,1,3.74-1.51,9.27,9.27,0,0,1,3.93.71,16.25,16.25,0,0,1,3.39,2,27.39,27.39,0,0,1,5.38,5.64,29.48,29.48,0,0,0-5.62-5.31,15.55,15.55,0,0,0-3.34-1.85,8.69,8.69,0,0,0-3.68-.56,6.61,6.61,0,0,0-3.36,1.43,9.69,9.69,0,0,0-2.29,2.88,9.06,9.06,0,0,0-1.14,7.17,15.72,15.72,0,0,0,4,6.36c1.76,1.88,3.72,3.59,5.48,5.53A29.57,29.57,0,0,1,209,88.61,23.9,23.9,0,0,1,211.61,96Z"></path>
        <path class="cls-18" d="M212.54,72.16s-2.29-4.08-.89-6,6.75,0,6.75,0S212.42,69.48,212.54,72.16Z"></path>
        <g class="cls-19">
          <path class="cls-20" d="M209.48,62.5s3.58,8.51,5,11,1.08-4.74,1.08-4.74l-4.84-5.47Z"></path>
        </g>
        <path class="cls-10" d="M247.22,74.16v31.37c-13.62-5.16-24.23-11.63-30.15-18a28.27,28.27,0,0,1-2.25-2.74h0a13.89,13.89,0,0,1-3-8,18,18,0,0,1,.59-4.87h0a10.34,10.34,0,0,1,.52-1.54,9.92,9.92,0,0,1,.61-1.22h0c.07-.13.15-.25.22-.37s.19-.27.29-.4l.17-.22,0,0,.25-.29a.69.69,0,0,1,.11-.13l.28-.29a6.89,6.89,0,0,1,2-1.35,2.52,2.52,0,0,1,.33-.14l.15,0a.73.73,0,0,1,.19-.07,8.89,8.89,0,0,1,2.92-.47c3.05,0,7.14,1.22,11.39,2.84h0c.93.35,1.87.72,2.8,1.1,3,1.23,6,2.56,8.74,3.7A26.4,26.4,0,0,0,247.22,74.16Z"></path>
        <g class="cls-21">
          <g>
            <path class="cls-12" d="M247.22,94.35v20.29a64,64,0,0,1-9.9-4c-9.37-4.76-17-10.19-22.24-15.75l-.43-.45h0c-.64-.69-1.23-1.37-1.79-2.06l-.59-.73a28.72,28.72,0,0,1-4.41-7.7,17.18,17.18,0,0,1-.93-3.56,14.61,14.61,0,0,1,4.28-12.82c.1-.11.21-.23.32-.33A20,20,0,0,1,213,65.9c.18-.15.37-.31.57-.45l.06,0a0,0,0,0,1,0,0l.09-.07q.84-.66,1.77-1.26s0,0,0,0a48.24,48.24,0,0,1,12.88-5.62s-6.65,2.84-11,7.24l-.06.07h0l-.06.07-.07.07-.14.15-.1.11a15.28,15.28,0,0,0-1.65,2.09l-.09.15a9.16,9.16,0,0,0-1.43,3.8c-.29,2.5.69,5.22,3.8,8A23.52,23.52,0,0,0,220,82.07,44.64,44.64,0,0,0,227.11,86C231.48,87.93,238.52,91.1,247.22,94.35Z"></path>
            <path class="cls-13" d="M247.22,78.73v4.45a54.49,54.49,0,0,1-7.77-2.09,59.08,59.08,0,0,1-12.64-6.18c-.83-.54-1.61-1.08-2.33-1.61a40.25,40.25,0,0,1-7-6.56l-.47-.59a.21.21,0,0,1,0-.06l-.05-.06s0,0,0-.06a3.14,3.14,0,0,1-.25-.32,14.61,14.61,0,0,1-1.06-1.59h0q.84.8,1.89,1.62l.05,0,.08.06.09.07.15.12c.13.11.27.21.41.31a58.35,58.35,0,0,0,8.62,5.27c.86.45,1.76.88,2.68,1.31A82.45,82.45,0,0,0,247.22,78.73Z"></path>
            <path class="cls-22" d="M247.22,73.68v1l-.71-.19-1.16-.32-1.13-.55c-1.53-.54-2.93-1.24-4.39-1.85-1.82-.81-3.65-1.61-5.49-2.37-.92-.38-1.84-.76-2.77-1.12l-.47-.18a40.32,40.32,0,0,0-9-2.6,9.91,9.91,0,0,0-4.46.3l-.14,0h0a3.12,3.12,0,0,0-.39.15l-.14,0a7.13,7.13,0,0,0-2.05,1.32l-.27.27-.12.12-.25.29,0,0-.17.22c-.1.13-.2.26-.29.4a6.28,6.28,0,0,1,.83-1.09,3,3,0,0,1,.3-.32,7,7,0,0,1,2-1.36,2.59,2.59,0,0,1,.38-.17l.12,0h0a.45.45,0,0,1,.11,0,10.18,10.18,0,0,1,4.61-.47,40.72,40.72,0,0,1,9.21,2.35l.9.34c.95.34,1.89.71,2.82,1.09,1.71.68,3.41,1.39,5.11,2.1,1.46.59,2.91,1.28,4.37,1.77l1.1.38,1.14.28Z"></path>
          </g>
        </g>
        <path class="cls-2" d="M103.78,35.7s16.3,2,23.94,9.68,11.2,8.91,12,16.29,0,5.61,0,5.61-.77-5.84,6.11-7.89,15.79,2.79,15.79,2.79,2-9.93-9.17-14.51c0,0-2.29-12.23-18.34-12,0,0-1.78-10.7-18.59-4.08a14.79,14.79,0,0,0-11.74,4.11Z"></path>
      </g>
    </g>
  </g>
</svg>
