<?xml version="1.0" encoding="UTF-8"?>
<svg xmlns="http://www.w3.org/2000/svg" viewBox="0 0 207.8 180.04">
  <defs>
    <style>
      .cls-1 {
        fill: #769e59;
      }

      .cls-2, .cls-4 {
        fill: none;
      }

      .cls-2 {
        stroke: #769e59;
        stroke-width: 0.47px;
      }

      .cls-11, .cls-2, .cls-4, .cls-9 {
        stroke-miterlimit: 10;
      }

      .cls-3 {
        fill: #79a05b;
      }

      .cls-11, .cls-4, .cls-9 {
        stroke: #79a05b;
      }

      .cls-4 {
        stroke-width: 1.05px;
      }

      .cls-11, .cls-5, .cls-9 {
        fill: #486f3a;
      }

      .cls-6 {
        fill: #f2d95a;
      }

      .cls-7 {
        fill: #699f46;
        opacity: 0.48;
      }

      .cls-10, .cls-7 {
        isolation: isolate;
      }

      .cls-8 {
        fill: #e79e50;
      }

      .cls-9 {
        stroke-width: 0.13px;
      }

      .cls-10 {
        fill: #b8e8b6;
        opacity: 0.46;
      }

      .cls-11 {
        stroke-width: 0.13px;
      }
    </style>
  </defs>
  <g id="Слой_2" data-name="Слой 2">
    <g id="Слой_1-2" data-name="Слой 1">
      <g>
        <path class="cls-1" d="M151.38,138c6.1,11.78,5,17.24,5.33,19.72s-2,2.19-4.9,1.42-2.5,1.18-2.5,1.18c-.88,5.2-6.5,13.5-11.17,19.69H123.2q-2.92-5.4-5.41-11c-1.25-3.87-1.24-.37-2.77,2.45s-2.28.33-2.28.33c-14.53-15-13.12-25.12-13.27-25.72s-2.79-.78-4.41.39-1.53-1.54-1.53-1.54c1.35-10.19,7.77-16.82,17.67-20.4s18.26,5.89,18.26,5.89l.16.09,1.23.63a20.09,20.09,0,0,1-.78-2.5,21.08,21.08,0,0,1-.62-5,2.64,2.64,0,0,1,.34-1.06,2.6,2.6,0,0,1,1.76-1.29,2.64,2.64,0,0,1,1.12,0c9.68.33,17.57,7.82,22.72,11.45s-.46,3.28-3,3.47S151.38,138,151.38,138Z"></path>
        <path class="cls-1" d="M106.19,180H82.56a16.33,16.33,0,0,1,7.35-4.46,15.37,15.37,0,0,1,2.81-.53c3.55-.32,7.79.58,12.37,4.08C105.48,179.43,105.85,179.73,106.19,180Z"></path>
        <path class="cls-1" d="M207.63,57.31V93c-.41-1-.64-1.78-.64-1.78s-2,1.64-2.48,1.31-.1-.91-1.71-4.17-1-13.51-1-14,2.37-3.34-.89-1.22-4.89,0-4.89,0,3.06-15.85,11.1-15.8Z"></path>
        <path class="cls-1" d="M207.63,23.39v18c-1.77-1.29-4-3.06-6.72-5.49a42.88,42.88,0,0,1-4.23-4.22c-.19-.21-.36-.42-.52-.62-3.93-4.93-1.66-6.64.45-8.12S204.86,22.72,207.63,23.39Z"></path>
        <path class="cls-1" d="M164.88,0a75.41,75.41,0,0,0,11.59,6C180.71,7.36,192.85,8.5,193.89,9s7.69,3.46,2.21,6.14-15.69-1.77-20.69,1.58c-1,.64-16.83,17.59-19.64,5.42,0,0-1.22-3.68,3.66-9.21A23.79,23.79,0,0,0,164.88,0Z"></path>
        <path class="cls-1" d="M144.14,60.87s-7.59-14.13-16.07-17.2-15.77-2.08-21.44,7.92c0,0-17.94,11.61-15.47,29.13,0,0-.23,2,3.37-1s15.43-3.29,17.11-3.33a10,10,0,0,0,4-1.44s9.88,8.37,10.63,13c0,0-.64,1.31,2.27-.51s11.09-6.94,16.52-1.07,6.84-13.18,3.37-15.77C148.45,70.66,133.36,67.28,144.14,60.87Z"></path>
        <path class="cls-1" d="M51.3,180H12.66c-2.35-1.89-7-4.41-11.92,0H0c1.19-5.17,6.92-29.85,9.28-32.7,2.57-3.12,18.53-21.65,32.13,4.25.17.32.35.66.52,1s.29.58.43.88a34,34,0,0,1-.12,5A24.9,24.9,0,0,1,41,164.26,11.79,11.79,0,0,1,39,168c-4.07,4.74,1.61,3.6,1.61,3.6S47.66,173.94,51.3,180Z"></path>
        <path class="cls-2" d="M207.63,55.4a1.56,1.56,0,0,0-.2-.16,12.24,12.24,0,0,0-8-2.46c-4.52.39-7.93,4-10.82,7.53l-.76,1"></path>
        <path class="cls-1" d="M189.93,45.82c1.53-6.84,3.81-13.7,10.68-16.69.48-.2.07-.91-.4-.68-7.05,3.05-9.53,10.17-11.07,17.16C189,46.13,189.83,46.31,189.93,45.82Z"></path>
        <path class="cls-3" d="M94.83,177.14a.76.76,0,0,1-.48.38.79.79,0,0,1-.62-.07,27.45,27.45,0,0,0-3.82-1.87c-5-2-10.13-1.81-14.69,2.11-.82.77-1.62,1.55-2.4,2.35H70.2c2.61-2.94,5.54-5.47,8.84-6.69,4.61-1.71,9.46-.44,13.68,1.7.62.32,1.22.65,1.81,1a.81.81,0,0,1,.38.49A.76.76,0,0,1,94.83,177.14Z"></path>
        <path class="cls-3" d="M82.64,124.85c9.1-7.79,19.87-12.25,31.58-6.9,8.77,4,15,11.85,20.84,19.17.66.82,1.79-.33,1.15-1.14-7.62-9.46-16.64-20.39-29.6-21.95-9.59-1.24-18,3.63-25.11,9.68C80.76,124.45,81.85,125.53,82.64,124.85Z"></path>
        <path class="cls-3" d="M127.15,99.65c12.39,8.29,26.71,11.59,41.15,14.6,1,.21,1.39-1.39.41-1.57-14.31-3-28.43-6.18-40.73-14.41-.88-.57-1.68.83-.8,1.4Z"></path>
        <path class="cls-4" d="M133.94,68.5a10,10,0,0,1,5-.88c6.76,0,13.92.7,19.39,4.7a16.29,16.29,0,0,1,6.82,12.17,12.79,12.79,0,0,1-6.77,11.85"></path>
        <path class="cls-1" d="M169.6,106.62a14.18,14.18,0,0,1-10.39,4.27c-.52,0-.52.79,0,.8a14.73,14.73,0,0,0,5.94-1.12,15,15,0,0,0,5-3.38.42.42,0,0,0,.06-.27.37.37,0,0,0-.12-.24.39.39,0,0,0-.25-.12A.4.4,0,0,0,169.6,106.62Z"></path>
        <path class="cls-2" d="M188.79,55.92a4.65,4.65,0,0,0-3.71-4.3A4.63,4.63,0,0,0,180,54.14"></path>
        <path class="cls-3" d="M160.8,111.57a21,21,0,0,0,2.21,3.36,5.11,5.11,0,0,1,.89,2.29,6.18,6.18,0,0,1-.24,2.38c-.71,2.77-1.37,5.51-1.89,8.31a58.33,58.33,0,0,0-1,16.93,35.94,35.94,0,0,0,1.79,8.26,17.1,17.1,0,0,0,4.14,7.25,5.13,5.13,0,0,0,3.84,1.23,3.41,3.41,0,0,0,1.88-.87,3.37,3.37,0,0,0,1-1.8,2.34,2.34,0,0,0,0-1A2.4,2.4,0,0,0,173,157a2.72,2.72,0,0,0-1.85-.93,1.76,1.76,0,0,0-1.08.18,1.88,1.88,0,0,0-.77.76,1.3,1.3,0,0,0,.48,1.84,1.33,1.33,0,0,1-.52-1.85,1.94,1.94,0,0,1,.77-.76A1.85,1.85,0,0,1,171,156a2.7,2.7,0,0,1,1,.26,2.77,2.77,0,0,1,.85.63,2.53,2.53,0,0,1,.63,2.16,3.65,3.65,0,0,1-1,1.93,3.61,3.61,0,0,1-1.94,1,5.41,5.41,0,0,1-4.05-1.27,17.87,17.87,0,0,1-4.52-7.32,36.68,36.68,0,0,1-2-8.39,60.19,60.19,0,0,1,.65-17.21c.46-2.85,1.07-5.68,1.72-8.45a3.63,3.63,0,0,0,.17-1.82,3.68,3.68,0,0,0-.7-1.68,18.51,18.51,0,0,1-2.53-3.68Z"></path>
        <path class="cls-5" d="M182.68,56.67s4.43-8.14-6.83-8.49c0,0-11.66,2-20.83,19.47s-2.14,16.46,2.84,14.76,4.41-7.66,14.14-16S180.74,59.28,182.68,56.67Z"></path>
        <path class="cls-5" d="M180,97.75s5.13-3.51,1.94,2a21.56,21.56,0,0,1-10.61,8.64c-.89.09-4.08-1.63-1.71-3.36S180,97.75,180,97.75Z"></path>
        <path class="cls-5" d="M171.23,112.14c2.52,1.07,11.74,6.71,10.76,7.68s-.85,1.49-3.32.7-10.87-5-10.2-6.74a2.78,2.78,0,0,1,2.76-1.64Z"></path>
        <path class="cls-1" d="M69,108.5c3.24-4.4,9.08.43,11.25,3.22s4.4,6.19,3,9.75c-.38,1,1.18,1.36,1.56.39,3.1-7.77-10.75-22.85-17.19-14.16C67,108.54,68.43,109.32,69,108.5Z"></path>
        <path class="cls-5" d="M75,101.53s7.67,2.11,2.44-4.08a34.48,34.48,0,0,0-12.2-9s-7.18-2-2,3.6A62.65,62.65,0,0,0,75,101.53Z"></path>
        <path class="cls-5" d="M62.47,104.61s14.88-1.82,5,9.62-23.82,16.94-25,14.5-9-3.42,3.91-15C46.47,113.75,55.79,106.73,62.47,104.61Z"></path>
        <path class="cls-1" d="M75.14,116.78c.48-3.48,5.77-1,6.19,1.35a9.36,9.36,0,0,1-1,6.77c-.65.8.48,2,1.14,1.14,1.81-2.28,2.58-7.79.57-10.34s-7.9-3.59-8.49.62c-.15,1,1.39,1.39,1.55.4Z"></path>
        <path class="cls-5" d="M73.22,113.35s5.51-.06,4.89,4.9-16.14,23-16.14,23-4.68,6-8.72,7.17S42.69,150.1,45.77,139,70.84,113,73.22,113.35Z"></path>
        <path class="cls-1" d="M58.77,163.11c4.82-.58,7.88,3.27,7.39,7.82-.1,1,1.52,1,1.62,0a8.3,8.3,0,0,0-.25-3.74A8.18,8.18,0,0,0,65.64,164a8.29,8.29,0,0,0-3.14-2,8.13,8.13,0,0,0-3.72-.43C57.76,161.61,57.73,163.23,58.77,163.11Z"></path>
        <path class="cls-1" d="M77.75,160.09a185.82,185.82,0,0,1-11.5,15.56c-.73.73.48,1.94,1.14,1.15a192.85,192.85,0,0,0,11.77-15.92C79.74,160,78.34,159.22,77.75,160.09Z"></path>
        <path class="cls-5" d="M84.19,149s1.86-1.85,2.4,1.09-7.39,11.76-7.39,11.76-2.62,1.95-2.74-1.21S84.19,149,84.19,149Z"></path>
        <path class="cls-5" d="M49.43,158.88s5.81-.6,8.48.66S68,163.62,57,165s-15-2.44-15-3.46S49.43,158.88,49.43,158.88Z"></path>
        <path class="cls-1" d="M167.78,112.46c4.32-3.08,8.95-6.45,14.55-7.2,2.79-.41,5.51.33,8-.36a8,8,0,0,0,3.4-1.71,7.87,7.87,0,0,0,2.2-3.11A5.91,5.91,0,0,0,194,93.21a4.72,4.72,0,0,0-2.69-1,4.68,4.68,0,0,0-4.59,3,4.77,4.77,0,0,0-.17,2.87,4.11,4.11,0,0,0,.9,1.73,4,4,0,0,0,1.59,1.1,2.6,2.6,0,0,0,1.92.13,2.58,2.58,0,0,0,1.48-1.21,2.26,2.26,0,0,0,.27-1,2.16,2.16,0,0,0-.16-1A2.31,2.31,0,0,0,192,97a2.26,2.26,0,0,0-.85-.49A1.87,1.87,0,0,1,192,97a1.76,1.76,0,0,1,.54.87,2.87,2.87,0,0,1-.05,2,2.75,2.75,0,0,1-1.53,1.31,2.67,2.67,0,0,1-2-.11,4,4,0,0,1-2.67-2.9,4.88,4.88,0,0,1-.14-2,5,5,0,0,1,.69-1.94,4.63,4.63,0,0,1,1.44-1.48,4.7,4.7,0,0,1,1.94-.71,5.89,5.89,0,0,1,4,.79,6.56,6.56,0,0,1,2.32,7.51,8.54,8.54,0,0,1-6.07,5.47c-2.76.8-5.57,0-8.07.56-5.21.8-9.66,4.07-13.86,7.29Z"></path>
        <path class="cls-1" d="M84.2,118.43a10.56,10.56,0,0,1,4.35-5,17.07,17.07,0,0,1,6-2.13,52.07,52.07,0,0,1,6-.4,10.83,10.83,0,0,0,2.66-.4,26.91,26.91,0,0,0,2.64-1,10.87,10.87,0,0,0,2.31-1.34,22.13,22.13,0,0,0,2.11-1.88,9.34,9.34,0,0,0,2.44-4.72A13.78,13.78,0,0,0,110.44,91c-2.12-3-5.41-5.74-9.27-5.11a12.21,12.21,0,0,0-9.56,5.36,8.23,8.23,0,0,0,2,10.39,8.44,8.44,0,0,0,10.73-.66,8.61,8.61,0,0,1-10.94.92A8.75,8.75,0,0,1,90.9,91a13,13,0,0,1,10.08-6,8.89,8.89,0,0,1,6,1.17,16.29,16.29,0,0,1,4.48,4.16,15.32,15.32,0,0,1,2.91,11.68,14.11,14.11,0,0,1-1,3,11.53,11.53,0,0,1-1.78,2.6,22.64,22.64,0,0,1-2.19,2.19,12.46,12.46,0,0,1-2.72,1.68c-1,.43-1.8.79-2.86,1.15a13.86,13.86,0,0,1-3.13.6,44.16,44.16,0,0,0-5.74.49c-3.51.72-7.07,2.63-8.17,5.76Z"></path>
        <path class="cls-1" d="M77.42,77.82a4.21,4.21,0,0,0,2.33.21A4.09,4.09,0,0,0,81.82,77a4.36,4.36,0,0,0,1.28-4.31,5.66,5.66,0,0,0-2.63-3.58,5.69,5.69,0,0,0-2.16-.72,5.57,5.57,0,0,0-2.26.2,9,9,0,0,0-5.59,6.78c-.87,3,.84,5.89,2.77,8.36l11.53,15a25.81,25.81,0,0,1,4.92,8.43,17.71,17.71,0,0,1,.59,5,9.85,9.85,0,0,1-1.45,5.15l-1.64-1.14a7.42,7.42,0,0,0,1.13-3.92,14.57,14.57,0,0,0-.43-4.41,24.3,24.3,0,0,0-4.39-8L72.24,84.32a19.12,19.12,0,0,1-2.39-4.22,7.9,7.9,0,0,1-.22-4.9,10.61,10.61,0,0,1,2.18-4.34,10.93,10.93,0,0,1,4-2.76,5.95,5.95,0,0,1,4.78.61,5.93,5.93,0,0,1,1.79,1.7,5.7,5.7,0,0,1,.95,2.27A4.5,4.5,0,0,1,81.82,77,4.23,4.23,0,0,1,79.74,78,4.27,4.27,0,0,1,77.42,77.82Z"></path>
        <path class="cls-1" d="M77.76,101.3a21.67,21.67,0,0,1,7.34,15.57.8.8,0,0,0,1.59,0,23.12,23.12,0,0,0-7.79-16.71C78.16,99.42,77,100.59,77.76,101.3Z"></path>
        <path class="cls-6" d="M85.75,150.3a4.22,4.22,0,0,0,4.39-1.79s.3-.49-.59-.6a9,9,0,0,0,.86-1.42c.09-.34-1-.3-2.49.51,0,0,.58-2.2-.67-3.12a3.2,3.2,0,0,0-1.41,2.49s-1.7-1.48-2.84-.39C83,146,82.25,147,85.75,150.3Z"></path>
        <path class="cls-6" d="M61.87,89.55A5.44,5.44,0,0,1,56,87.68a2.13,2.13,0,0,1,.93-.48,2.07,2.07,0,0,1,1,0s-1.22-1.22-1-2.14a2.92,2.92,0,0,1,1.44,0,3.06,3.06,0,0,1,1.26.69,2.48,2.48,0,0,1-.2-1.29,2.35,2.35,0,0,1,.49-1.21s2,.44,2.69,5.49a.93.93,0,0,1-.27.48A1,1,0,0,1,61.87,89.55Z"></path>
        <path class="cls-6" d="M46,161.47A8.65,8.65,0,0,0,40.47,158a3.79,3.79,0,0,0,1.13,2.3s-1.92.17-2.32.89c0,0,.23.7,1.93,1.37,0,0-1.45.75-1.5,1.3a5,5,0,0,0,6.18-1.38S46.79,161.73,46,161.47Z"></path>
        <path class="cls-7" d="M181.51,52.23s-3-4.1-6.81-2.59a44.28,44.28,0,0,0-21.8,25s9-13.46,11.64-14.84,1,1.2.68,1.61,10.73-10.09,13-9S182.44,53.24,181.51,52.23Z"></path>
        <path class="cls-7" d="M77.33,118.53s-3-4.1-6.79-2.57a44.18,44.18,0,0,0-21.82,25s9-13.46,11.66-14.82,1,1.2.66,1.59,10.73-10.09,13-9S78.22,119.51,77.33,118.53Z"></path>
        <path class="cls-7" d="M68.74,108.41s-3-4.11-6.8-2.58S50.79,108.61,44,122.27A52.51,52.51,0,0,1,51.73,116a24.85,24.85,0,0,1,6.94-2.55c-.36.36,4.45-6,6.75-4.82S69.67,109.42,68.74,108.41Z"></path>
        <path class="cls-6" d="M180.82,119.88a1.46,1.46,0,0,0,.66.54,1.4,1.4,0,0,0,.86.06c1.06-.22,3.66,0,2.27,1s-1.66.54-1.66.54,1.35,2.1-.84,1.64A1.49,1.49,0,0,1,181,124a1.46,1.46,0,0,1-1-.53s2.17-1.08.14-3.18C180.19,120.28,180.18,119.38,180.82,119.88Z"></path>
        <path class="cls-6" d="M182.48,97.63c.27.26,1.05,1,2.41-.18a.6.6,0,0,0-.36-.36,1.23,1.23,0,0,0,.41-.13,1,1,0,0,0,.33-.28,1.45,1.45,0,0,0-1.25-.22s.5-1,.16-1.45c0,0-.83.56-.92.92,0,0-.66-.89-1.21-.69C182,95.26,181.83,97,182.48,97.63Z"></path>
        <path class="cls-8" d="M148,85.64c.32-1.12,3.84-6.11,6.27-5.28s-.25,9.21-.25,9.21l-1.38-4.19s-2.64,2.1-2.15,4-2.12-2-.4-4.47S148,85.64,148,85.64Z"></path>
        <path class="cls-8" d="M40.62,153.56c-.07.29,1.29-5.46,6.35-6.8A2.42,2.42,0,0,1,48.6,148a2.36,2.36,0,0,1,.29,1,2.45,2.45,0,0,1-.14,1c-.69,2.74-.67,6-1.84,7.09a38.31,38.31,0,0,0-1.23-4.34,23.36,23.36,0,0,0-3,4.5c0,.75.5-5.07.5-5.07S40.81,152.72,40.62,153.56Z"></path>
        <path class="cls-8" d="M42.14,124.64s2.55-.66,1.46,1.68a3.88,3.88,0,0,0-1.27,1.77c-.15.85-.77,6-1.94,5.89s-1.25-3.31-1.36-3.54-4.13,4-4.21,5.39-1.61-1.37.65-4.93c0,0,.38-.85-1.14-.75s-.62-4.53,2.4-5.38A8.23,8.23,0,0,1,42.14,124.64Z"></path>
        <path class="cls-9" d="M170.16,63c.15.15.51,0,.8-.26s.41-.65.26-.8-.5,0-.79.27S170,62.86,170.16,63Z"></path>
        <path class="cls-9" d="M168.46,58.15c.14.14.5,0,.79-.27s.41-.64.27-.79-.5,0-.8.26S168.31,58,168.46,58.15Z"></path>
        <path class="cls-9" d="M175,56.58c.15.14.51,0,.8-.27s.41-.65.26-.79-.5,0-.79.26S174.85,56.43,175,56.58Z"></path>
        <path class="cls-9" d="M173.53,63.24c.15.14.51,0,.8-.27s.41-.64.26-.79-.5,0-.79.26S173.39,63.09,173.53,63.24Z"></path>
        <path class="cls-9" d="M177.87,58.38c.15.14.51,0,.8-.27s.41-.64.26-.79-.5,0-.79.26S177.73,58.23,177.87,58.38Z"></path>
        <path class="cls-9" d="M165.4,64.87c.14.15.5,0,.79-.26s.41-.65.27-.8-.51,0-.8.27S165.25,64.72,165.4,64.87Z"></path>
        <path class="cls-9" d="M164.29,60.58c.14.15.5,0,.79-.26s.41-.65.27-.8-.5,0-.8.27S164.14,60.43,164.29,60.58Z"></path>
        <path class="cls-9" d="M169.36,53.08c.14.15.5,0,.79-.26s.41-.65.27-.8-.5,0-.8.27S169.21,52.93,169.36,53.08Z"></path>
        <path class="cls-9" d="M174.77,51.85c.14.15.5,0,.79-.26s.41-.65.27-.79-.51,0-.8.26S174.62,51.71,174.77,51.85Z"></path>
        <path class="cls-9" d="M158.27,72.35c.14.15.5,0,.79-.26s.41-.65.27-.8-.51,0-.8.27S158.12,72.2,158.27,72.35Z"></path>
        <path class="cls-9" d="M155,74c.15.15.51,0,.8-.26s.41-.65.26-.79-.5,0-.79.26S154.83,73.9,155,74Z"></path>
        <path class="cls-9" d="M160.24,65.15c.15.14.5,0,.8-.27s.41-.64.26-.79-.5,0-.79.26S160.1,65,160.24,65.15Z"></path>
        <path class="cls-9" d="M163.84,69.84c.15.15.5,0,.8-.26s.41-.65.26-.8-.5,0-.79.27S163.7,69.7,163.84,69.84Z"></path>
        <path class="cls-9" d="M157.52,68.39c.15.14.5,0,.79-.27s.42-.64.27-.79-.5,0-.8.27S157.37,68.24,157.52,68.39Z"></path>
        <path class="cls-9" d="M162.12,75.15c.15.15.5,0,.8-.26s.41-.65.26-.8-.5,0-.79.27S162,75,162.12,75.15Z"></path>
        <path class="cls-9" d="M157,78.21c.14.15.5,0,.79-.26s.41-.65.27-.8-.51,0-.8.26S156.84,78.06,157,78.21Z"></path>
        <path class="cls-10" d="M167.18,55.8S169,53,166.33,55A71.69,71.69,0,0,0,159.24,62C157.14,64,166.62,56.8,167.18,55.8Z"></path>
        <path class="cls-10" d="M68,118.74s1.85-2.77-.87-.86a54.21,54.21,0,0,0-6.52,5.29C58.54,125.23,67.42,119.76,68,118.74Z"></path>
        <path class="cls-9" d="M68.33,130.71c.14.15.5,0,.79-.26s.41-.65.27-.8-.51,0-.8.26S68.18,130.56,68.33,130.71Z"></path>
        <path class="cls-9" d="M66.77,126.69c.15.15.5,0,.79-.26s.42-.65.27-.79-.5,0-.8.26S66.62,126.55,66.77,126.69Z"></path>
        <path class="cls-9" d="M60.07,126.7c.14.15.5,0,.79-.26s.41-.65.27-.8-.5,0-.8.27S59.92,126.55,60.07,126.7Z"></path>
        <path class="cls-9" d="M52.61,121.63c.35-.22.54-.55.42-.72s-.48-.13-.83.09-.54.55-.42.72S52.26,121.86,52.61,121.63Z"></path>
        <path class="cls-9" d="M58.42,118.87c.34-.23.53-.55.42-.72s-.49-.13-.83.09-.54.55-.43.72S58.07,119.09,58.42,118.87Z"></path>
        <path class="cls-9" d="M55.75,123.75c.35-.23.54-.55.42-.72s-.48-.14-.83.09-.54.55-.42.72S55.4,124,55.75,123.75Z"></path>
        <path class="cls-9" d="M48,126c.34-.24.52-.57.4-.74s-.49-.11-.83.13-.52.57-.4.74S47.62,126.21,48,126Z"></path>
        <path class="cls-9" d="M45.52,120.26c.15.15.5,0,.8-.26s.41-.65.26-.79-.5,0-.79.26S45.37,120.12,45.52,120.26Z"></path>
        <path class="cls-9" d="M45.65,115.24c.16.14.5,0,.78-.3s.38-.67.23-.8-.5,0-.78.3S45.5,115.1,45.65,115.24Z"></path>
        <path class="cls-9" d="M50.79,114.42c.15.15.51,0,.8-.26s.41-.65.26-.8-.5,0-.79.27S50.65,114.27,50.79,114.42Z"></path>
        <path class="cls-11" d="M63.93,115.87c.35-.22.54-.55.43-.72s-.49-.13-.84.09-.54.55-.42.72S63.58,116.1,63.93,115.87Z"></path>
        <path class="cls-9" d="M55.79,115.76c.32-.27.47-.61.34-.77s-.5-.08-.81.19-.47.6-.34.76S55.47,116,55.79,115.76Z"></path>
        <path class="cls-9" d="M68.61,110.92c.35-.23.54-.55.43-.72s-.49-.13-.84.09-.53.55-.42.72S68.27,111.15,68.61,110.92Z"></path>
        <path class="cls-9" d="M58,110.23c.34-.24.52-.57.4-.74s-.49-.11-.83.13-.51.57-.39.74S57.71,110.47,58,110.23Z"></path>
        <path class="cls-9" d="M64.4,108.27c.34-.23.53-.55.42-.73s-.48-.13-.83.1-.54.55-.42.72S64.05,108.49,64.4,108.27Z"></path>
        <path class="cls-9" d="M53.52,128.29c.15.14.5,0,.79-.27s.42-.64.27-.79-.5,0-.8.26S53.37,128.14,53.52,128.29Z"></path>
        <path class="cls-9" d="M69.57,116.69c.15.15.51,0,.8-.26s.41-.65.26-.79-.5,0-.79.26S69.43,116.55,69.57,116.69Z"></path>
        <path class="cls-9" d="M69.41,121.53c.15.15.5,0,.79-.26s.42-.65.27-.8-.5,0-.79.27S69.26,121.38,69.41,121.53Z"></path>
        <path class="cls-9" d="M60.82,135.6c.15.15.5,0,.8-.26s.41-.65.26-.79-.5,0-.79.26S60.68,135.46,60.82,135.6Z"></path>
        <path class="cls-9" d="M60.87,141c.14.15.5,0,.79-.26s.41-.65.27-.8-.5,0-.8.27S60.72,140.84,60.87,141Z"></path>
        <path class="cls-9" d="M52.53,134.75c.15.15.51,0,.8-.27s.41-.64.26-.79-.5,0-.79.27S52.39,134.6,52.53,134.75Z"></path>
        <path class="cls-9" d="M46.39,139.82c.15.14.51,0,.8-.27s.41-.65.26-.79-.5,0-.79.26S46.25,139.67,46.39,139.82Z"></path>
        <path class="cls-9" d="M48.14,143.69c.15.15.51,0,.8-.26s.41-.65.26-.8-.5,0-.79.27S48,143.54,48.14,143.69Z"></path>
        <path class="cls-9" d="M53.89,142c.14.15.5,0,.79-.26s.41-.65.27-.79-.51,0-.8.26S53.74,141.85,53.89,142Z"></path>
        <path class="cls-1" d="M189.87,43.65q0,1.17,0,2.34c-.07,2.71-.3,5.4-.52,8.1q-.24,3.12-.72,6.21h0A76.94,76.94,0,0,1,185,74.54a36.43,36.43,0,0,1-12.45,16.88,44.66,44.66,0,0,1-19.8,7.22,185.06,185.06,0,0,1-20.92,1.21h-1.32c-.95,0-1.89,0-2.84.1a76.52,76.52,0,0,0-13.23,1.87c-.64.14-1.28.3-1.92.47l-.89.23a45.54,45.54,0,0,0-15.69,8.58c-.54.45-1.07.91-1.59,1.39-.7.65-1.38,1.31-2,2q-1.83,1.86-3.47,3.87c-1,1.26-2,2.57-2.94,3.91a58.93,58.93,0,0,0-3.72,6.21,71.3,71.3,0,0,0-6.65,19.07C74,154.24,73.09,161.1,71.74,168c0,.28-.1.57-.16.85-.23,1.22-.49,2.43-.77,3.64-.58,2.54-1.27,5.06-2.07,7.54H63.4a86,86,0,0,0,2.76-9.11c.32-1.28.61-2.56.87-3.85.06-.26.11-.52.17-.78h0c1.38-6.45,2.41-13.12,4-19.66a76.68,76.68,0,0,1,7.44-20c.82-1.51,1.71-3,2.66-4.4.59-.91,1.22-1.81,1.87-2.68.15-.22.31-.44.48-.65l.7-.9c.2-.27.41-.53.61-.78l.14-.16c.47-.58,1-1.15,1.46-1.72s1-1.15,1.56-1.71h0l0,0c.68-.71,1.37-1.4,2.08-2.08S91.4,110.49,92,110a48.76,48.76,0,0,1,18.71-10.32c.74-.18,1.49-.36,2.24-.52.55-.12,1.09-.23,1.64-.33a80.7,80.7,0,0,1,17.13-1.51,185.48,185.48,0,0,0,20.68-.76A42.69,42.69,0,0,0,171.47,90a35,35,0,0,0,12.25-15.94,77.8,77.8,0,0,0,4.76-19.59l.06-.52c.33-2.66.57-5.33.7-8,0-.32,0-.63,0-.95,0-.47,0-.94.05-1.41a25.56,25.56,0,0,0-1.74-10.12C184.87,27,179.88,22,175,17.12c5,4.77,10.06,9.7,12.91,16.21a26,26,0,0,1,1.94,9.34C189.87,43,189.88,43.32,189.87,43.65Z"></path>
      </g>
    </g>
  </g>
</svg>
