<?xml version="1.0" encoding="UTF-8"?>
<svg xmlns="http://www.w3.org/2000/svg" viewBox="0 0 234 244">
  <defs>
    <style>
      .cls-1 {
        fill: #8bb032;
      }

      .cls-2 {
        fill: #7a9535;
      }

      .cls-3 {
        fill: #6c2b9c;
      }

      .cls-4 {
        fill: #8541b4;
      }
    </style>
  </defs>
  <g id="Слой_2" data-name="Слой 2">
    <g id="Слой_1-2" data-name="Слой 1">
      <g>
        <path class="cls-1" d="M234,99.26v11.31q-2,2.1-3.83,4.26c-1.35,1.76-6,8.27-10.75,7.34-6.68-1.3-4.74-3.35-11.48-.62-8.69,3.52-14.58-1.13-18.82-1.44a18,18,0,0,0-5.75.4h0a10,10,0,0,0-3.49,1.57l-.05,0q-.84.58-1.41.93c-2.45,1.51-1.77.11-2.84-.87-.24-.22-.25-2.39.92-5,.08-.17.16-.34.25-.51,1.61-3.19,5.06-6.81,12-8,0,0,0,0,0,0,.48-.09,1-.17,1.48-.23a11.68,11.68,0,0,0,4,0c1.66-.41,2.79-3.31,3.93-5.06s2.58-5.17,7.34-3.62,5.58,5.17,7.86,2.17,3.31-7,10.23-3.72A18,18,0,0,0,234,99.26Z"></path>
        <path class="cls-1" d="M198.31,163.43s5.34-2.64,5.85-5,3.77-4.81,2.84-12,2-7.6,3.26-5.42S220.8,165.25,222,167.42s5.74,9.62-2.32,13,1.08,5.58-1.09,12.4-7.75,7.29-11.48,16.13a27.95,27.95,0,0,1-29.31,16.75c-15.2-1.86-17.37.78-21.4-1.7s-11.17-6.14,11.6-10c0,0,6.82-3.11,7.37-3.88a36,36,0,0,0,2.09-5.43c.93-2.64,3.41-3.57,4.81-4.19s3.57.62,2.64-5,2.94-10.08,5.11-10.39,7-.62,7.14-5S191.49,170.58,198.31,163.43Z"></path>
        <path class="cls-1" d="M130,217.24c-.19.75-6.35,5.74-7.13,8.76s-3.1,10-7.13,11.87-3.57,1.4-6.52,5.12a4.32,4.32,0,0,0-.6,1H81.41c2.93-3.12,2.46-4.28,3.23-6.91,1.09-3.73,5.74-5,7.45-5s3.56,1.4,4.18-3.72.47-6.36,6.67-6.2,5.59.77,7.29-2.33,1.09-3.72,3.1-4a97.12,97.12,0,0,1,11.16-1,10.74,10.74,0,0,1,2.65.24c1.8.52,2.87,0,3.11.51C130.37,215.82,130.3,216.3,130,217.24Z"></path>
        <path class="cls-1" d="M125.26,162.5c.28.89,1.24,17.85-2.48,20.48s-6.36,1.23-5.28,5,4,5.59-.24,8.53-3.17.78-4.26,4.65.62,4.19-2.79,5.9-5,2.17-5,3.56-2.33.19-3,1.26-5.58,7.55-6.82,3-1.4-11.22-2-12.62-3.72-1.71-3.41-4.34,4.81-6.67,4.81-6.67A3.6,3.6,0,0,0,95.94,187c-1.08-2.48,6.21-1.7,6-5.43s-.15-5.42,1.09-5.89,7.75-4,11.17-9.77S122.78,154.59,125.26,162.5Z"></path>
        <path class="cls-1" d="M82.61,200c-1.24,0-13,1.55-15.36,7.75s-3.72,7.37-6.67,8.65c0,0,.62-.74-1.55-6.48s1.07-19.23,16.44-14.57S82.61,200,82.61,200Z"></path>
        <path class="cls-1" d="M65.4,180.8s-3.1-3.26-15.66-2-12.1-3.57-17.06-4-7.6,4-12.1,1.08-12.41-16.59-16-19.69-9.15-10.39,2.17-5.89,13.8,2.48,16.28,2.17,5.43-1.71,7.6,2,1.4,5.66,4.66,4.15,6.2-5.7,9.92-1.36,0,7,3.88,7.59,7-1.54,10.23,1.87S67.7,176,67.7,178.2,67.57,180.64,65.4,180.8Z"></path>
        <path class="cls-1" d="M97.75,109.09s-11.82-.31-16.94-9C80.81,100.06,93.64,95.26,97.75,109.09Z"></path>
        <path class="cls-1" d="M97.7,107.44s5.74-8.37,10.24-12.56,7.6-7.29,4.81-12.25-4.81-6.21-1.87-9.15,11.33-12.41,4.5-24.82-1.08-7.13-3.25-13.8-1.56-8.38-14.43-13.49S91.81,9.27,77.54,10.05c0,0,.47,1.24-4.81-1.09s-6.36-3.1-3.56,4.5S69,19.82,70.41,25.09s1.39,5,3.87,6.82,5.12-.62,3.42,5.43-6.33,9.62-2.78,15,6.19,5.9,4.17,9.31S72.89,69,77.23,78.13,85.76,97.52,97.7,107.44Z"></path>
        <path class="cls-2" d="M82.31,21.21a32.9,32.9,0,0,1,14,17.57,36.55,36.55,0,0,1,2,11.3V53c0,1-.16,1.91-.23,2.87s-.17,1.91-.29,2.86l-.45,2.77C96.19,69,95,76.48,94.45,84a57.45,57.45,0,0,0,0,11.28,30.18,30.18,0,0,0,3.26,10.77,29,29,0,0,1-3.87-10.69,58.91,58.91,0,0,1-.4-11.42c.18-3.8.61-7.58,1.08-11.35s1-7.52,1.54-11.28l.44-2.81c.13-.93.21-1.86.32-2.79a21.91,21.91,0,0,0,.25-2.79V50.11a21.91,21.91,0,0,0-.16-2.8c-.11-.92-.11-1.87-.31-2.78l-.54-2.75c-.19-.92-.51-1.8-.75-2.7a34.48,34.48,0,0,0-5-10A32.51,32.51,0,0,0,82.31,21.21Z"></path>
        <path class="cls-1" d="M174.74,115.72c-.23-.4-6.87-12.51-4.7-18.92s4-6.41,3.41-8.27-3.85-4.86,0-8.37c2.83-2.59,7.49-2.43,5.43-7.45-2.38-5.79,6.1-7.65,10.54-14.58,6.35-9.91,8.58-23,9.93-12.09a116.57,116.57,0,0,0,3.1,17c.93,4.35,3.33,12.2,0,13.86-6.18,3.06-3.83,4.65-3.1,7.34s1.37,5.75-2.07,8.68c-3.94,3.37-4.51,2.63-3.31,6.72s-5.1,8.79-6.58,10.24-7.79,6.41-9.55,7S175.72,117.4,174.74,115.72Z"></path>
        <path class="cls-2" d="M195.83,53.13l-1.49,8.37c-.54,2.78-1.16,5.55-1.91,8.3a51,51,0,0,1-2.91,8.06,29.73,29.73,0,0,1-2.1,3.79c-.77,1.17-1.51,2.35-2.2,3.58a77.65,77.65,0,0,0-6.77,15.4,59,59,0,0,0-2.09,8.17,48.75,48.75,0,0,0-.92,8.42,49.67,49.67,0,0,1,2.09-16.87,74,74,0,0,1,6.62-15.74c.72-1.24,1.49-2.44,2.29-3.63a28.4,28.4,0,0,0,2.06-3.6,60.46,60.46,0,0,0,3-7.85C193.22,64.16,194.35,58.6,195.83,53.13Z"></path>
        <path class="cls-2" d="M177.68,119.23a8.21,8.21,0,0,1,2.31-2.7,15.3,15.3,0,0,1,3.08-1.86,23.84,23.84,0,0,1,7-1.81,33.13,33.13,0,0,1,3.59-.25h5.3l1.75-.12a31.66,31.66,0,0,0,3.48-.39,102.9,102.9,0,0,0,13.76-3c2.27-.63,4.52-1.35,6.76-2.1s4.47-1.53,6.69-2.35A98.22,98.22,0,0,1,218.18,110a79,79,0,0,1-13.87,3.37c-1.18.12-2.36.32-3.56.37l-1.79.11h-1.81l-3.54-.08h-1.75a11.21,11.21,0,0,0-1.74.09,23.36,23.36,0,0,0-6.82,1.42A11.38,11.38,0,0,0,177.68,119.23Z"></path>
        <path class="cls-2" d="M209.17,173.51a121.42,121.42,0,0,1-6.66,16.79,104.27,104.27,0,0,1-9.2,15.59,65.43,65.43,0,0,1-5.86,7,39.17,39.17,0,0,1-7,5.85,27,27,0,0,1-8.34,3.64,20.4,20.4,0,0,1-9,0,23.48,23.48,0,0,0,16.82-4.46,53.69,53.69,0,0,0,12.38-12.74,115.42,115.42,0,0,0,9.36-15.29c1.4-2.65,2.7-5.35,3.94-8.08S208,176.3,209.17,173.51Z"></path>
        <path class="cls-2" d="M119.22,166.53c-3,6.87-6.3,13.59-9.6,20.3l-5,10-2.49,5a51.82,51.82,0,0,0-2.3,5.17,66.11,66.11,0,0,1,3.9-10.55c1.5-3.44,3.12-6.82,4.77-10.18C111.84,179.58,115.34,173,119.22,166.53Z"></path>
        <path class="cls-1" d="M54.19,161.82c-.77-1.09-1.39-6-4.18-12.41s-9.62-14-7.45-21.4,2.64-4.19,1.09-11.63S64,90.48,64.9,90.48s8.22-5.28,4,2.63,1.8,13.65,1.29,17.68S63,118.7,65.67,124.44s5.74,8.06,6.82,9.62,3.26,4.65,0,9-5.58,2.17-2,7-.78,8-1.86,10.66-3,1.59-2.33,8.1,3.41,11-1.7,8.53S54.19,161.82,54.19,161.82Z"></path>
        <path class="cls-2" d="M59.93,103.81a62.12,62.12,0,0,0-5.1,17.34,74.29,74.29,0,0,0-.54,18c.11,1.5.38,3,.56,4.48l.3,2.24.48,2.21c.33,1.47.63,3,1,4.41s.89,2.89,1.31,4.34l.65,2.17.82,2.11L61,165.35c1.16,2.8,2.59,5.47,3.84,8.25q-1.14-2-2.24-4l-1.11-2a19.63,19.63,0,0,1-1-2l-1.83-4.19-.91-2.1L57,157.15c-.49-1.45-1-2.9-1.44-4.35s-.71-3-1.06-4.47L54,146.1l-.34-2.27c-.2-1.52-.49-3-.61-4.55l-.24-4.58c-.06-1.53,0-3.06.06-4.59s.22-3.05.35-4.58c.09-.76.11-1.53.26-2.28l.41-2.25a63,63,0,0,1,2.27-8.87A47,47,0,0,1,59.93,103.81Z"></path>
        <path class="cls-2" d="M13,156.76a44.8,44.8,0,0,0,6.1,4,60.92,60.92,0,0,0,6.5,3.29,62.83,62.83,0,0,0,13.8,4.39,52.48,52.48,0,0,0,7.18.85c1.21,0,2.38.06,3.68.14a23.14,23.14,0,0,1,3.69.63,24.32,24.32,0,0,1,6.8,3,21.54,21.54,0,0,1,5.29,5.1A23,23,0,0,0,53.71,171a26.64,26.64,0,0,0-3.54-.48c-1.15,0-2.42,0-3.65-.05a49.15,49.15,0,0,1-7.37-.8,55,55,0,0,1-14-4.74A48.81,48.81,0,0,1,13,156.76Z"></path>
        <path class="cls-1" d="M174.76,119.24s-10.39,1.55-20.63-16.44c0,0,1.55.28,8.22,2.86S176.93,110.24,174.76,119.24Z"></path>
        <path class="cls-1" d="M140.24,82.93c.66-.42,1.89-11.84-12.06-16.1a11.83,11.83,0,0,1-4-.71c-1.55-.69-2.17-3.74-3-5.67s-1.64-5.55-6.6-4.85-6.4,4.12-8.11.77-2-7.51-9.43-5.46-15.42-3-16.59-3.57-10.1-5.79-4.07,2.22a168.8,168.8,0,0,1,11.34,16.6c1,2,4.46,9.2,9.3,9.11,6.8-.12,5.25-2.47,11.41,1.4,7.94,5,14.55,1.42,18.78,1.86s7,1.77,8.82,3.56C139.62,85.64,138.82,83.83,140.24,82.93Z"></path>
        <path class="cls-1" d="M142.18,76.72c.3-.35,9-11.11,7.93-17.8s-2.79-7-1.91-8.74,4.64-4.12,1.46-8.25c-2.33-3-7-3.69-4-8.28,3.36-5.28-4.67-8.6-7.83-16.19-4.53-10.87-4.44-24.11-7.66-13.65a119.05,119.05,0,0,1-6,16.15c-1.68,4.12-5.41,11.43-2.42,13.64,5.55,4.1,3,5.25,1.77,7.77s-2.36,5.42.52,8.92c3.29,4,4,3.37,2.08,7.19s3.48,9.55,4.69,11.23,6.55,7.67,8.17,8.59S140.92,78.2,142.18,76.72Z"></path>
        <path class="cls-2" d="M132.35,11.41c.51,5.64.64,11.32,1.38,16.9a59.49,59.49,0,0,0,1.6,8.25,26,26,0,0,0,1.4,3.91c.58,1.31,1.13,2.63,1.62,4a73.7,73.7,0,0,1,3.76,16.65,50.07,50.07,0,0,1-.88,17,50.73,50.73,0,0,0,.56-8.44,60.79,60.79,0,0,0-.62-8.41,79.21,79.21,0,0,0-4-16.35c-.47-1.33-1-2.62-1.54-3.91a29.61,29.61,0,0,1-1.41-4.1,50.33,50.33,0,0,1-1.45-8.44c-.26-2.84-.38-5.68-.44-8.51Z"></path>
        <path class="cls-2" d="M138.67,79.66a11.44,11.44,0,0,0-4.84-4.92,23.63,23.63,0,0,0-6.46-2.59c-.56-.17-1.13-.27-1.7-.39s-1.14-.26-1.72-.33l-3.5-.55c-.59-.1-1.19-.18-1.77-.31l-1.75-.43c-1.17-.25-2.3-.65-3.45-1a79.51,79.51,0,0,1-13.06-5.74,97.74,97.74,0,0,1-12-7.58c2,1.2,4.09,2.38,6.18,3.48s4.16,2.24,6.29,3.25a101.2,101.2,0,0,0,13,5.41c1.12.33,2.22.74,3.36,1l1.7.43c.57.13,1.15.21,1.72.33l3.5.63a32.83,32.83,0,0,1,3.48.88,24.32,24.32,0,0,1,6.53,3,15.67,15.67,0,0,1,2.71,2.37A8.14,8.14,0,0,1,138.67,79.66Z"></path>
        <path class="cls-1" d="M141.55,80.18s10,3.35,23.18-12.58a65.71,65.71,0,0,0-8.59,1.4C149.12,70.34,141,71,141.55,80.18Z"></path>
        <path class="cls-3" d="M180.63,159.91s8.27,6.23,14.27-1.33,1.45-19.86,0-22-6.2-6.15-14.27,0c-5.94,4.53-6,14.92-3.54,20.16C178,158.64,179.22,159.86,180.63,159.91Z"></path>
        <path class="cls-4" d="M185.63,133.33s5.14-.93,3.89,6.62,1.4,18.42-12.43,16.81c0,0-2.39-6.25-1.38-10.44S178.21,135.9,185.63,133.33Z"></path>
        <path class="cls-1" d="M102.68,127.24s-6.54-.2-10.2,4-3,8.37-7.66,9.61-5.72,0-6.55-2.69c0,0-1.86,3.23,2.49,4.84,0,0-3.36,2.88-2.88,5.78,0,0,3.5-4.7,5.12-4.31a17,17,0,0,1,.39,3.33c-.15.54,1,.78,1.59-.62s2.35-6.28,6.58-3.64,3.7,5.24,3.7,5.24,1.09.85,1.08-1a15.48,15.48,0,0,0-.77-4.42c-.16-.23,5.66,1.78,7.91-1.24,0,0-12.31,2.25-9.93-4.5,2.18-6.18,10.78-6.9,10.78-6.9S105.32,127,102.68,127.24Z"></path>
        <path class="cls-1" d="M127.8,176.18s6.64-22.39,15.92-11.37c5.9,7-6,6-6,6a15.89,15.89,0,0,0,5.55,1,6.31,6.31,0,0,0-1,6.35s4.45-9.67,4.55.57c0,0,1.16,5.21,1.46-1.79s2.16-12.48,12.71-3.43c0,0-1.76-3.74-4.45-4.89,0,0,3.75-1.47,2.7-5.19,0,0-3.42,7.31-9.42,1.38s-16.42-12.19-23.47,3.81C123,176.18,127.8,176.18,127.8,176.18Z"></path>
        <path class="cls-1" d="M150,70.1a11.63,11.63,0,0,0-10.23,9.31c-2.17,8.89-9.31,4.65-9.72,2.68s-1.45,4,4,4.55a9.16,9.16,0,0,0-1.15,4.21,9,9,0,0,0,.94,4.27s1.65-7.64,6-8.37S150,98.33,150,98.33s1.14-7.91-3.1-13.42c0,0,4.65-1,5.07-2.2,0,0-7.51,3.7-8.48-2.54s9-7,9-7S153.69,69.07,150,70.1Z"></path>
        <path class="cls-1" d="M176.6,131.28s2.23,2.79,4.55,2.89a8.88,8.88,0,0,0-2.27,3.31s8.14-7.44,10.79,1.34c0,0,.89,3,1.2,0s-1.79-2.69-1.15-3.62,4.6,1.18,6.11,4.75-.36-2.3-.36-2.3a15.53,15.53,0,0,0-1.44-2.09c-.46-.42,4.39,1.09,5.21-3.56,0,0-3.3,3.82-7,.82s-2.36-8.31-8.87-12.31-6.33-.4-2.5,2.39S189.52,137.07,176.6,131.28Z"></path>
        <path class="cls-1" d="M145.31,90.32l-.09.15c-2.14,3.64-4.49,7.16-6.64,10.78-1,1.58-1.85,3.17-2.69,4.81s-1.56,3.36-2.23,5.09a67.52,67.52,0,0,0-3.49,12.2c-1.12,5.46-1.87,11-2.62,16.51a86.6,86.6,0,0,0-1,17.25,62.7,62.7,0,0,0,1.23,8.63c.45,2.17,1,4.31,1.47,6.46l.39,1.66q2,8.35,3.54,16.82,2,10.92,3.27,21.95c.12,1,.23,2,.33,3,.13,1.16.25,2.33.36,3.5,0,.17,0,.34.05.52q1.16,12.17,1.42,24.4h-3.7q-.27-11.91-1.37-23.78-.21-2.21-.45-4.41c-.13-1.26-.27-2.52-.42-3.77q-1.59-13.24-4.23-26.32c-.69-3.4-1.51-6.8-2.32-10.2l-.63-2.69c-.07-.3-.14-.6-.2-.89a105.54,105.54,0,0,1-2.27-13c-.06-.62-.12-1.24-.15-1.87a52.16,52.16,0,0,1-.12-5.31c0-.07,0-.15,0-.22a159.61,159.61,0,0,1,1.91-17.31,152,152,0,0,1,3-16.26,64.13,64.13,0,0,1,4.49-12.46c.45-1,.93-1.92,1.44-2.86,1.37-2.51,2.88-5,4.4-7.37,1.3-2.07,2.61-4.14,3.85-6.24.11-.17.21-.35.31-.52l-.07,0a1.71,1.71,0,0,1,.67-.58,1.52,1.52,0,0,1,.46-.18,1.86,1.86,0,0,1,2.1,1,2.44,2.44,0,0,1,.1.24A1.93,1.93,0,0,1,145.31,90.32Z"></path>
        <path class="cls-1" d="M174.34,118.44a69.11,69.11,0,0,1-7.23,39.68c-3.34,6.39-7.61,12.24-11.45,18.33S148.28,188.67,145,195q-5.64,10.72-10.32,21.9a1.84,1.84,0,0,0,2.7,2.1,2,2,0,0,0,.89-1.11,270.65,270.65,0,0,1,19.91-38.35c3.89-6.24,8.26-12.21,11.76-18.69A72.32,72.32,0,0,0,178,118.44a1.93,1.93,0,0,0-1.86-1.86,1.86,1.86,0,0,0-1.86,1.86Z"></path>
        <path class="cls-1" d="M96.49,106a64.23,64.23,0,0,1,2.78,11,75.91,75.91,0,0,0,3.06,10,47.37,47.37,0,0,0,3.78,9,89.26,89.26,0,0,0,7.17,9.59c2.92,3.68,5.9,7.32,8.86,11a1.85,1.85,0,0,0,1.31.54,1.87,1.87,0,0,0,1.32-.54,1.91,1.91,0,0,0,.52-1.31,1.94,1.94,0,0,0-.52-1.32c-3.27-4-6.55-8-9.76-12.11-2.86-3.62-5.86-7.2-7.58-11.54-.71-1.78-1.27-3.62-1.93-5.43a61.15,61.15,0,0,1-2-6c-1.16-4.63-1.63-9.44-3.41-13.91a1.93,1.93,0,0,0-2.29-1.3,1.87,1.87,0,0,0-1.12.88A1.83,1.83,0,0,0,96.5,106Z"></path>
        <path class="cls-1" d="M59.6,172.75c5.92,9.86,14.3,18,23.64,24.67a104.64,104.64,0,0,0,32,15.32,85.51,85.51,0,0,0,18.8,3.13c2.39.11,2.38-3.61,0-3.72a87.74,87.74,0,0,1-31.8-8.15A97.85,97.85,0,0,1,74,185a70.93,70.93,0,0,1-11.23-14.08c-1.23-2-4.45-.19-3.21,1.88Z"></path>
        <path class="cls-1" d="M135.48,219a20,20,0,0,0,8.37,1.45,45.75,45.75,0,0,1,7.93.36,1.85,1.85,0,0,0,1.4-.19,1.86,1.86,0,0,0-.41-3.4,41.58,41.58,0,0,0-8.19-.48,31.1,31.1,0,0,1-4.09-.18,10.84,10.84,0,0,1-1.61-.28c-.28-.07-.55-.14-.82-.23a4.22,4.22,0,0,1-.7-.27,1.92,1.92,0,0,0-2.55.67,1.87,1.87,0,0,0,.67,2.55Z"></path>
        <path class="cls-3" d="M165.26,182.1a49.84,49.84,0,0,0,1.38,5.1c2.76,8.43,8.72,31.83-6.06,41.57-18.2,12-21.72-9.92-17-15.51s3.72-12.82,3.1-13.85-5.91-15.16-5-22.47,9.78-11.44,16.81-5.45A19.76,19.76,0,0,1,165.26,182.1Z"></path>
        <path class="cls-4" d="M156,171.82a7,7,0,0,0-6.08,2.92,8,8,0,0,0-1.46,7,32.59,32.59,0,0,0,3.59,8.57c4.11,7,8.66,13.44,6.8,18.2-1.68,4.28-2.62,15.58,6.42,11.35a7.9,7.9,0,0,0,2.82-2.28,8,8,0,0,0,1.49-3.3,26.89,26.89,0,0,0,.53-6.39c-.22-4.88-3-23.1-7.9-31.89a7.92,7.92,0,0,0-6.21-4.18Z"></path>
        <path class="cls-3" d="M133.89,111.94c-1.51-5.13-4.5-15.78-2-19.92s8.89-14.21,18.82,1,7.23,40.53,5.37,44.46c-1.58,3.34-6,14.6-14.91,11.3a11,11,0,0,1-6.86-8.88,43.42,43.42,0,0,1-.4-6.65C133.94,123.66,135.66,118,133.89,111.94Z"></path>
        <path class="cls-4" d="M148.45,148.19c-.77.44-7.48.06-7.69-6.24s5-13.95,1.45-26.77-7.86-25,1-26.54,13.49,20.8,13.49,20.8S164.4,139,148.45,148.19Z"></path>
        <path class="cls-3" d="M75.33,176.12a55.12,55.12,0,0,1,1.29-23c.17-.59.31-1.1.41-1.45.62-2.07,3.31-8.89,10.14-9.1s9.81,1.24,10.59,7.86-4.39,11-1.5,16.13,19.44,28,8.48,40.48S79.1,202.69,77,187.5C76.31,182.2,75.74,178.8,75.33,176.12Z"></path>
        <path class="cls-4" d="M97.14,147.41s-4.33-9.82-12.32,0-1.38,33.7,1.93,42.07S97,215.65,104.74,207c9.52-10.71-2.48-30.48-4.09-33.21s-6.4-8-5.06-12.49S99.1,150.16,97.14,147.41Z"></path>
      </g>
    </g>
  </g>
</svg>
