<?xml version="1.0" encoding="UTF-8"?>
<svg xmlns="http://www.w3.org/2000/svg" viewBox="0 0 75.13 96">
  <defs>
    <style>.cls-1{fill:#a29274;}.cls-2{fill:#e3e0c9;}.cls-3{fill:#fcedce;}.cls-4{fill:#bda885;}.cls-27,.cls-5{fill:#d0c5a6;}.cls-6{fill:#8f8267;}.cls-7{fill:#ab967a;opacity:0.25;}.cls-8{fill:#9b8d71;}.cls-9{fill:#7c705b;}.cls-10{fill:#e7e6e3;}.cls-11{fill:#817870;}.cls-12{fill:#ecec8a;}.cls-13{fill:#676c6e;}.cls-14{fill:#92bf3a;}.cls-15{fill:#fff;}.cls-16{fill:#a22b23;}.cls-17,.cls-20{fill:#cacac9;}.cls-17{opacity:0.32;}.cls-18{fill:#373637;opacity:0.46;}.cls-19{fill:#cbc255;}.cls-21,.cls-26{fill:none;stroke:#7fb843;}.cls-21,.cls-26,.cls-27{stroke-miterlimit:10;}.cls-21{stroke-width:0.41px;}.cls-22{fill:#7fb843;}.cls-23{fill:#486f3a;}.cls-24{fill:#6d9633;}.cls-25{fill:#bcd746;}.cls-26,.cls-27{stroke-width:0.2px;}.cls-27{stroke:#d0c5a6;}.cls-28{fill:#609034;}.cls-29{fill:#b3d549;}</style>
  </defs>
  <g id="Слой_2" data-name="Слой 2">
    <g id="Слой_1-2" data-name="Слой 1">
      <polygon class="cls-1" points="30.8 64.86 54.43 54.8 50.89 82.01 30.8 96 30.8 64.86"></polygon>
      <polygon class="cls-2" points="30.8 48 54.43 54.8 30.8 64.86 7.1 54.8 30.8 48"></polygon>
      <polygon class="cls-3" points="30.8 48 7.1 54.8 7.52 54.98 54.21 54.74 30.8 48"></polygon>
      <polygon class="cls-4" points="10.64 82.01 7.1 54.8 30.8 64.86 30.8 96 10.64 82.01"></polygon>
      <path class="cls-5" d="M22,55.14a10.62,10.62,0,0,1,2.42-2.21,14.21,14.21,0,0,1,3-1.44,16.32,16.32,0,0,1,3.22-.67c.55-.07,1.1-.06,1.64-.09s1.09.05,1.63.1c-1.08.09-2.16.17-3.22.36a19.33,19.33,0,0,0-3.11.76,15.66,15.66,0,0,0-2.93,1.3A15.89,15.89,0,0,0,22,55.14Z"></path>
      <polygon class="cls-6" points="30.8 64.86 54.43 54.8 50.89 82.01 30.8 96 30.8 64.86"></polygon>
      <polygon class="cls-7" points="10.64 82.01 7.1 54.8 30.8 64.86 30.8 96 10.64 82.01"></polygon>
      <polygon class="cls-8" points="30.8 96 10.64 82.01 30.89 74.36 50.89 82.01 30.8 96"></polygon>
      <path class="cls-9" d="M14.93,70.05a7.27,7.27,0,0,1-.61-3.94,6.48,6.48,0,0,1,1.75-3.66,9.47,9.47,0,0,1,3.47-2.07c.65-.17,1.3-.35,2-.49s1.32-.16,2-.21c-.64.16-1.29.3-1.93.45s-1.26.39-1.88.6a9.72,9.72,0,0,0-3.26,2.06,6.42,6.42,0,0,0-1.72,3.37c-.07.32-.08.64-.12,1s0,.65,0,1A6.82,6.82,0,0,0,14.93,70.05Z"></path>
      <path class="cls-9" d="M37,69.67a4.77,4.77,0,0,0,1.33.57c.46.16.92.3,1.39.42.94.25,1.88.5,2.84.67,1.89.41,3.82.63,5.77.87a21.84,21.84,0,0,1-5.87-.4A23.56,23.56,0,0,1,39.56,71,7.91,7.91,0,0,1,37,69.67Z"></path>
      <path class="cls-9" d="M24.26,68.25a16.08,16.08,0,0,1-.58,2.67,21.48,21.48,0,0,1-1,2.56,16.2,16.2,0,0,1-1.43,2.35,8.83,8.83,0,0,1-2,1.9,17.12,17.12,0,0,0,2.95-4.46c.41-.8.74-1.64,1.08-2.47S24,69.11,24.26,68.25Z"></path>
      <path class="cls-9" d="M31.59,89.91c1-.48,2-.84,2.93-1.27s1.95-.84,2.88-1.34a17.5,17.5,0,0,0,2.67-1.66,7.65,7.65,0,0,0,2.1-2.32,6,6,0,0,1-1.87,2.6,14.66,14.66,0,0,1-2.68,1.81,25.53,25.53,0,0,1-3,1.26C33.65,89.35,32.61,89.62,31.59,89.91Z"></path>
      <path class="cls-9" d="M20.5,86.92a5,5,0,0,1-2.64-2.46,2.23,2.23,0,0,1,.17-1.9,4.58,4.58,0,0,1,1.27-1.39,13,13,0,0,1,3.27-1.62,25.37,25.37,0,0,1,3.5-.91c-1.13.41-2.26.8-3.37,1.26a14.48,14.48,0,0,0-3.11,1.66,4.12,4.12,0,0,0-1.18,1.21,2,2,0,0,0-.2,1.57,3.59,3.59,0,0,0,.92,1.44A7.48,7.48,0,0,0,20.5,86.92Z"></path>
      <path class="cls-9" d="M42.17,69.13c1.17-1.63,2.39-3.21,3.44-4.89a21.87,21.87,0,0,0,1.49-2.56,8.33,8.33,0,0,0,.93-2.8,6.42,6.42,0,0,1-.59,2.95A18.41,18.41,0,0,1,46,64.5c-.57.84-1.15,1.66-1.79,2.43A23.83,23.83,0,0,1,42.17,69.13Z"></path>
      <path class="cls-10" d="M31.13,57.31a12.52,12.52,0,0,1-2.37,3.94,9,9,0,0,0-1.68,4.09c-.45,3.32.51,6.72-.4,10a.08.08,0,0,0,.15,0c.9-3.21,0-6.54.38-9.8a9.21,9.21,0,0,1,1.87-4.5,11.35,11.35,0,0,0,2.21-3.74.08.08,0,0,0-.16,0Z"></path>
      <path class="cls-10" d="M30.64,58.76a7.11,7.11,0,0,1-3.8,6.93,7.79,7.79,0,0,0-2.7,2,6.61,6.61,0,0,0-1.07,3,13.21,13.21,0,0,0-.15,3.55,7.53,7.53,0,0,0,1.8,3.22,6,6,0,0,1-.49,7.59c-.14.15.09.38.23.23A6.39,6.39,0,0,0,26,79.24a9.91,9.91,0,0,0-1.82-3.08c-1.05-1.45-1-3-.82-4.7A6.16,6.16,0,0,1,25,67.22c1-.87,2.28-1.27,3.31-2.08A7.39,7.39,0,0,0,31,58.76c0-.21-.35-.21-.33,0Z"></path>
      <path class="cls-10" d="M30.69,58.53a15.56,15.56,0,0,1-.61,6.37c-.78,2-2.79,3.24-3.2,5.38-.36,1.9.38,3.75,1.11,5.45a13.34,13.34,0,0,1,1.29,7.68c0,.2.29.29.32.09A12.22,12.22,0,0,0,28.9,77c-.86-2.17-2.32-4.57-1.63-7,.58-2,2.53-3.33,3.23-5.35A16.38,16.38,0,0,0,31,58.53c0-.21-.33-.21-.32,0Z"></path>
      <path class="cls-10" d="M30.54,58.63c-1.64,1.73-3.49,3.89-2.69,6.45a8,8,0,0,1,.6,2,11.84,11.84,0,0,1-.27,2.3,7.42,7.42,0,0,0,.38,3.46c.49,1.63-.11,2.55-1,3.84a3.33,3.33,0,0,0-.74,2.36c.39,2.61,3.72,3.34,4.33,5.84.05.2.36.11.31-.09-.55-2.28-3.1-3-4.07-5-1.12-2.34,2-3.73,1.7-6-.14-1.18-.75-2.22-.69-3.44a18.57,18.57,0,0,0,.33-3.56c-.21-1.44-1-2.46-.61-4a9.47,9.47,0,0,1,2.64-3.88c.15-.16-.08-.39-.23-.24Z"></path>
      <path class="cls-10" d="M30.9,58.54a7.8,7.8,0,0,0-1.71,2.36,6.6,6.6,0,0,0-.34,3c.23,2.34,1.25,4.58,1,7,0,.21.3.2.32,0,.26-2.11-.5-4.1-.84-6.16a7.38,7.38,0,0,1,.05-3.24,6.67,6.67,0,0,1,1.79-2.71.16.16,0,0,0-.23-.23Z"></path>
      <path class="cls-10" d="M31.13,58.38a24.28,24.28,0,0,1-.34,9c-.54,2.33-1.4,4.45-.7,6.85A23.07,23.07,0,0,0,33.27,80a16.5,16.5,0,0,1,2.79,7.93c0,.21.34.21.32,0a15.81,15.81,0,0,0-2.18-7c-1.25-2.13-2.92-4.09-3.71-6.47-.93-2.83.38-5.43.87-8.21a24.7,24.7,0,0,0,.08-7.91c0-.21-.34-.12-.31.09Z"></path>
      <path class="cls-10" d="M32,59.39c-.19,2.06.76,3.85,1.73,5.59a18.44,18.44,0,0,1,1.55,3.23,10.75,10.75,0,0,1,.38,4.37c-.28,2.82-1.35,5.48-2,8.22s-.44,5.37-.68,8.11c0,.21.31.21.33,0,.12-1.39.07-2.78.12-4.17a21,21,0,0,1,.68-4.4,51,51,0,0,0,1.88-7.76A11.32,11.32,0,0,0,34.63,66c-1.1-2.09-2.58-4.15-2.34-6.63,0-.2-.31-.2-.33,0Z"></path>
      <path class="cls-10" d="M32.49,58.78c.35,1.82,1.69,3.28,2.21,5.07a19.48,19.48,0,0,1,.58,6c-.09,2.82-.88,6.51,1.5,8.65.16.14.39-.09.23-.23-2.57-2.31-1.36-6.74-1.39-9.76A17.46,17.46,0,0,0,35,63.61c-.53-1.72-1.83-3.16-2.17-4.92,0-.2-.35-.12-.31.09Z"></path>
      <path class="cls-10" d="M33.71,61.19a8.62,8.62,0,0,1,.87,4.54,13.09,13.09,0,0,1-2.67,5.44c-.12.18.16.34.28.17,1.22-1.74,2.48-3.58,2.73-5.74A9.31,9.31,0,0,0,34,61c-.09-.19-.37,0-.29.17Z"></path>
      <path class="cls-10" d="M34.15,67.36A6.23,6.23,0,0,1,34,70.42a.17.17,0,0,0,.32.09,6.59,6.59,0,0,0,.12-3.24c0-.2-.36-.12-.31.09Z"></path>
      <path class="cls-10" d="M32.31,59.05c1.24,1.89,2.52,3.77,3.73,5.68a12.16,12.16,0,0,1,1.72,6.35c.08,2,0,4-.12,6.09a5.57,5.57,0,0,0,1.08,4.12c.14.16.37-.07.23-.23-1.34-1.5-1-3.66-.89-5.51A43.73,43.73,0,0,0,38,69.28a10.48,10.48,0,0,0-1.65-4.72c-1.21-1.91-2.49-3.79-3.73-5.68-.11-.17-.4,0-.28.17Z"></path>
      <path class="cls-10" d="M32.5,59.38A18.08,18.08,0,0,1,37,64.73a17.67,17.67,0,0,1,1.37,6.42c.27,3.78.16,7.82,2.39,11.08.12.17.4,0,.28-.16-2.49-3.65-2-8.24-2.47-12.43a15.27,15.27,0,0,0-1.42-5.34,18.93,18.93,0,0,0-4.46-5.15c-.16-.14-.39.09-.23.23Z"></path>
      <path class="cls-10" d="M32.93,58.64a6.72,6.72,0,0,1,2.88,3.43,9.84,9.84,0,0,0,1.13,2.67,31.8,31.8,0,0,0,4,4.08,7.88,7.88,0,0,1,1.84,2.62,8.14,8.14,0,0,1,.24,4c-.27,2.17-.68,4.53.73,6.41.12.16.4,0,.28-.17-1.74-2.32-.6-5.25-.55-7.87a7.09,7.09,0,0,0-2.31-5.26c-1.44-1.48-3.23-2.72-4.24-4.55-.6-1.09-.7-2.37-1.36-3.42a8.81,8.81,0,0,0-2.44-2.27c-.17-.12-.33.16-.16.29Z"></path>
      <path class="cls-10" d="M31.56,58.53l1.77,3.4a8.39,8.39,0,0,0,1.81,2.56,10.94,10.94,0,0,0,4.88,2c2.14.5,4.27,1.13,5.53,3.08,1.47,2.28,1.34,5.08,1.06,7.66,0,.21.3.21.32,0a13.06,13.06,0,0,0-.61-6.93,6.67,6.67,0,0,0-4.19-3.58c-1.93-.64-4.08-.77-5.88-1.79a6.49,6.49,0,0,1-2.48-2.83c-.65-1.22-1.29-2.45-1.93-3.68-.09-.19-.37,0-.28.16Z"></path>
      <path class="cls-10" d="M32.51,58.82c.71,1.16,2.2,1.56,2.9,2.73.43.71.64,1.56,1,2.3A13.67,13.67,0,0,0,37.77,66a13.87,13.87,0,0,0,1.6,1.74,5.48,5.48,0,0,1,.88.92,3.77,3.77,0,0,1,.47,1.9,19,19,0,0,1-.65,6.1.17.17,0,0,0,.32.09,19.66,19.66,0,0,0,.67-5.87,4.56,4.56,0,0,0-.53-2.41,14.62,14.62,0,0,0-1.66-1.68,17,17,0,0,1-3-5c-.65-1.44-2.29-1.81-3.09-3.11a.16.16,0,0,0-.28.17Z"></path>
      <path class="cls-10" d="M40.52,68.85a7,7,0,0,1,.9,1.19,3.29,3.29,0,0,1,.39,1.51c0,1.08.09,2.16.14,3.24,0,.21.33.21.32,0-.05-1.19-.05-2.4-.16-3.58a4.61,4.61,0,0,0-1.36-2.59c-.14-.16-.37.07-.23.23Z"></path>
      <polygon class="cls-3" points="7.52 54.98 30.8 64.86 54.43 54.8 54.21 54.74 7.52 54.98"></polygon>
      <ellipse class="cls-1" cx="31.55" cy="55.28" rx="5.46" ry="2.13"></ellipse>
      <ellipse class="cls-11" cx="31.69" cy="56" rx="4.5" ry="1.76"></ellipse>
      <path class="cls-12" d="M21.23,40.48a1.62,1.62,0,0,0-1.16,3,2.85,2.85,0,0,0,2.77.55,3.08,3.08,0,0,0,.76-3.93,3.21,3.21,0,0,0-1.5-.17A1.49,1.49,0,0,0,21.23,40.48Z"></path>
      <ellipse class="cls-13" cx="22.02" cy="42.53" rx="0.07" ry="0.17" transform="translate(-17.41 15.34) rotate(-28.04)"></ellipse>
      <path class="cls-14" d="M21.25,40.13a2.55,2.55,0,0,0-2.76.86s1.26-.83,1.88-.6A2.66,2.66,0,0,0,19,42.47s1.39-1.85,1.89-1.69c0,0,.68,0,.95,1.78,0,0,.38-.45-.15-2,0,0,1.4.2,1.81,1.12a2.42,2.42,0,0,0-1.4-1.58,1.6,1.6,0,0,1,1.75.54S23.38,39,22,39.52C22,39.52,21.62,40.21,21.25,40.13Z"></path>
      <ellipse class="cls-13" cx="20.08" cy="42.91" rx="0.07" ry="0.17" transform="translate(-23.88 25.25) rotate(-43.04)"></ellipse>
      <ellipse class="cls-13" cx="21.07" cy="42.82" rx="0.07" ry="0.17" transform="translate(-23.55 25.9) rotate(-43.04)"></ellipse>
      <ellipse class="cls-13" cx="22.81" cy="42.11" rx="0.07" ry="0.17" transform="translate(-13.97 11.44) rotate(-21.73)"></ellipse>
      <ellipse class="cls-13" cx="23.51" cy="41.34" rx="0.07" ry="0.17" transform="translate(-11.95 9.65) rotate(-18.59)"></ellipse>
      <ellipse class="cls-13" cx="21.04" cy="43.37" rx="0.07" ry="0.17" transform="translate(-26.52 35.48) rotate(-54.71)"></ellipse>
      <ellipse class="cls-13" cx="21.97" cy="43.35" rx="0.07" ry="0.17" transform="translate(-23.67 26.66) rotate(-43.04)"></ellipse>
      <ellipse class="cls-13" cx="22.63" cy="43.13" rx="0.07" ry="0.17" transform="translate(-12.57 9.47) rotate(-18.59)"></ellipse>
      <ellipse class="cls-13" cx="23.34" cy="42.48" rx="0.07" ry="0.17" transform="translate(-12.33 9.66) rotate(-18.59)"></ellipse>
      <path class="cls-12" d="M66.43,17.18a1.71,1.71,0,0,0-2,2.77,3,3,0,0,0,2.7,1.29A3.27,3.27,0,0,0,69,17.4a3.36,3.36,0,0,0-1.49-.55A1.57,1.57,0,0,0,66.43,17.18Z"></path>
      <ellipse class="cls-13" cx="66.72" cy="19.49" rx="0.07" ry="0.18" transform="translate(-2.73 16.53) rotate(-13.84)"></ellipse>
      <path class="cls-14" d="M66.54,16.83a2.7,2.7,0,0,0-3.05.16s1.51-.52,2.09-.12a2.8,2.8,0,0,0-2,1.77s1.9-1.53,2.37-1.25c0,0,.7.18.52,2.08,0,0,.5-.37.37-2.1,0,0,1.38.57,1.56,1.62a2.55,2.55,0,0,0-1-2,1.69,1.69,0,0,1,1.65,1s0-1.78-1.6-1.61C67.47,16.4,66.91,17,66.54,16.83Z"></path>
      <ellipse class="cls-13" cx="64.62" cy="19.37" rx="0.07" ry="0.18" transform="translate(-1.33 33.58) rotate(-28.84)"></ellipse>
      <ellipse class="cls-13" cx="65.66" cy="19.54" rx="0.07" ry="0.18" transform="translate(-1.28 34.1) rotate(-28.84)"></ellipse>
      <ellipse class="cls-13" cx="67.63" cy="19.26" rx="0.07" ry="0.18" transform="translate(-1.94 9.04) rotate(-7.54)"></ellipse>
      <ellipse class="cls-13" cx="68.54" cy="18.65" rx="0.07" ry="0.18" transform="translate(-1.23 5.31) rotate(-4.4)"></ellipse>
      <ellipse class="cls-15" cx="65.48" cy="20.1" rx="0.07" ry="0.18" transform="translate(2.64 47.36) rotate(-40.51)"></ellipse>
      <ellipse class="cls-13" cx="66.45" cy="20.32" rx="0.07" ry="0.18" transform="translate(-1.56 34.57) rotate(-28.84)"></ellipse>
      <ellipse class="cls-13" cx="67.18" cy="20.25" rx="0.07" ry="0.18" transform="translate(-1.36 5.21) rotate(-4.4)"></ellipse>
      <ellipse class="cls-13" cx="68.08" cy="19.78" rx="0.07" ry="0.18" transform="translate(-1.32 5.28) rotate(-4.4)"></ellipse>
      <path class="cls-16" d="M20.32,43.15s2.38,1.26,2.38,2.18.34,1.83-2,3.57-4.93-1.66-5-2.52a3.06,3.06,0,0,1,2.2-3.27c2-.59,1.69-.31,1.69-.31Z"></path>
      <path class="cls-17" d="M16.9,44.15s-2.43,2,1.21,4.43a8.77,8.77,0,0,0,1.19.59c.18,0-3.31-2.31-2.23-4.59C17.29,44.12,17.16,43.89,16.9,44.15Z"></path>
      <path class="cls-18" d="M19.05,42.73a4.57,4.57,0,0,0-2.83,1.52,7.55,7.55,0,0,1,1.07-.62,8.67,8.67,0,0,0,1.2-.78,3.91,3.91,0,0,0-1.15,1.68,5.7,5.7,0,0,1,.74-.74c.2-.15.66-.91.79-.87s0-.12,0,.56a6.6,6.6,0,0,0,.44,1.2c0,.09.19-.3.28-1.15,0-.28-.27-.72-.22-.74a3.28,3.28,0,0,1,.86.88c.27.37.7.49,1,1a9.9,9.9,0,0,0-.88-1.25c-.07-.09.36.18.38.19.38.25,1.19.74,1.11.69A5.3,5.3,0,0,0,19.05,42.73Z"></path>
      <ellipse class="cls-19" cx="18.36" cy="46.54" rx="0.09" ry="0.22"></ellipse>
      <ellipse class="cls-19" cx="18.49" cy="45.17" rx="0.09" ry="0.22"></ellipse>
      <ellipse class="cls-19" cx="17.26" cy="46.43" rx="0.09" ry="0.22"></ellipse>
      <ellipse class="cls-19" cx="17.26" cy="45.11" rx="0.09" ry="0.22"></ellipse>
      <ellipse class="cls-19" cx="17.89" cy="47.08" rx="0.09" ry="0.22"></ellipse>
      <ellipse class="cls-19" cx="17.81" cy="45.83" rx="0.09" ry="0.22"></ellipse>
      <ellipse class="cls-19" cx="19.09" cy="47.02" rx="0.09" ry="0.22"></ellipse>
      <ellipse class="cls-19" cx="19.09" cy="45.83" rx="0.09" ry="0.22"></ellipse>
      <ellipse class="cls-19" cx="19.7" cy="46.48" rx="0.09" ry="0.22"></ellipse>
      <ellipse class="cls-19" cx="19.87" cy="45.11" rx="0.09" ry="0.22"></ellipse>
      <ellipse class="cls-19" cx="20.12" cy="47.14" rx="0.09" ry="0.22"></ellipse>
      <ellipse class="cls-19" cx="20.64" cy="46.43" rx="0.09" ry="0.22"></ellipse>
      <ellipse class="cls-19" cx="20.98" cy="45.21" rx="0.22" ry="0.09" transform="translate(-27.85 55.19) rotate(-76.65)"></ellipse>
      <ellipse class="cls-19" cx="21.19" cy="47.02" rx="0.22" ry="0.09" transform="translate(-30.35 45.07) rotate(-63.58)"></ellipse>
      <ellipse class="cls-19" cx="21.31" cy="46.17" rx="0.22" ry="0.09" transform="translate(-29.52 44.71) rotate(-63.58)"></ellipse>
      <ellipse class="cls-19" cx="22" cy="45.21" rx="0.22" ry="0.09" transform="translate(-28.27 44.8) rotate(-63.58)"></ellipse>
      <ellipse class="cls-19" cx="16.72" cy="47.02" rx="0.09" ry="0.22" transform="translate(-17.57 10.77) rotate(-23.83)"></ellipse>
      <ellipse class="cls-19" cx="16.61" cy="45.75" rx="0.09" ry="0.22" transform="translate(-14.73 8.51) rotate(-20.12)"></ellipse>
      <ellipse class="cls-19" cx="15.99" cy="46.31" rx="0.09" ry="0.22" transform="translate(-17.35 10.41) rotate(-23.83)"></ellipse>
      <ellipse class="cls-19" cx="16.18" cy="44.95" rx="0.22" ry="0.09" transform="translate(-30.65 54.38) rotate(-81.59)"></ellipse>
      <ellipse class="cls-19" cx="21.83" cy="46.92" rx="0.22" ry="0.09" transform="translate(-29.9 45.59) rotate(-63.58)"></ellipse>
      <ellipse class="cls-19" cx="22.23" cy="46.21" rx="0.22" ry="0.09" transform="translate(-29.04 45.56) rotate(-63.58)"></ellipse>
      <path class="cls-14" d="M19.05,42.6A5.79,5.79,0,0,0,16.22,44s.57-.23,1.07-.46,1-.4,1-.47a2.35,2.35,0,0,0-1,1.38,5.09,5.09,0,0,1,.74-.74c.2-.16.66-.78.79-.74s0-.25,0,.43a9.57,9.57,0,0,0,.43,1.48,5.18,5.18,0,0,0,.29-1.43c0-.28-.16-.5-.11-.52s.41.37.75.65a4.51,4.51,0,0,1,1,1,9.47,9.47,0,0,0-.88-1.24c-.07-.09.36.18.38.19l1.11.69A5.23,5.23,0,0,0,19.05,42.6Z"></path>
      <path class="cls-20" d="M16.61,45.11c.09.06.14-.3.27-.49s.3-.41.21-.48-.35.14-.48.32A.67.67,0,0,0,16.61,45.11Z"></path>
      <path class="cls-16" d="M70.43,17.38S68.7,19,68.92,19.78s.13,1.64,2.53,2.57,3.68-2.52,3.68-3.31a2.4,2.4,0,0,0-2.62-2.26c-1.81-.05-1.51.12-1.51.12Z"></path>
      <path class="cls-18" d="M71.41,16.73a4,4,0,0,1,2.76.63,6.52,6.52,0,0,0-1.06-.28,7.32,7.32,0,0,1-1.19-.38,3.36,3.36,0,0,1,1.36,1.16,5.57,5.57,0,0,0-.79-.46c-.21-.08-.78-.62-.88-.55s0-.11.1.48a6.34,6.34,0,0,1-.09,1.12c0,.08-.23-.21-.51-.91-.09-.23.07-.68,0-.68a2.79,2.79,0,0,0-.52.94c-.15.39-.49.58-.64,1.05a9,9,0,0,1,.46-1.26c0-.1-.26.24-.27.25-.27.3-.84.91-.79.84A4.65,4.65,0,0,1,71.41,16.73Z"></path>
      <ellipse class="cls-19" cx="72.88" cy="19.8" rx="0.07" ry="0.19" transform="translate(-2.64 19.93) rotate(-15.3)"></ellipse>
      <ellipse class="cls-19" cx="72.46" cy="18.67" rx="0.07" ry="0.19" transform="translate(-2.36 19.78) rotate(-15.3)"></ellipse>
      <ellipse class="cls-19" cx="73.8" cy="19.46" rx="0.07" ry="0.19" transform="translate(-2.52 20.16) rotate(-15.3)"></ellipse>
      <ellipse class="cls-19" cx="73.49" cy="18.33" rx="0.07" ry="0.19" transform="translate(-2.23 20.04) rotate(-15.3)"></ellipse>
      <ellipse class="cls-19" cx="73.4" cy="20.15" rx="0.07" ry="0.19" transform="translate(-2.72 20.08) rotate(-15.3)"></ellipse>
      <ellipse class="cls-19" cx="73.19" cy="19.08" rx="0.07" ry="0.19" transform="translate(-2.44 19.99) rotate(-15.3)"></ellipse>
      <ellipse class="cls-19" cx="72.37" cy="20.38" rx="0.07" ry="0.19" transform="translate(-2.81 19.82) rotate(-15.3)"></ellipse>
      <ellipse class="cls-19" cx="72.1" cy="19.37" rx="0.07" ry="0.19" transform="matrix(0.96, -0.26, 0.26, 0.96, -2.56, 19.71)"></ellipse>
      <ellipse class="cls-19" cx="71.73" cy="20.07" rx="0.07" ry="0.19" transform="translate(-2.75 19.64) rotate(-15.3)"></ellipse>
      <ellipse class="cls-19" cx="71.27" cy="18.94" rx="0.07" ry="0.19" transform="translate(-2.47 19.47) rotate(-15.3)"></ellipse>
      <ellipse class="cls-19" cx="71.53" cy="20.72" rx="0.07" ry="0.19" transform="translate(-2.93 19.61) rotate(-15.3)"></ellipse>
      <ellipse class="cls-19" cx="70.92" cy="20.24" rx="0.07" ry="0.19" transform="translate(-2.83 19.43) rotate(-15.3)"></ellipse>
      <ellipse class="cls-19" cx="70.35" cy="19.28" rx="0.07" ry="0.19" transform="translate(-0.63 36.08) rotate(-28.64)"></ellipse>
      <ellipse class="cls-19" cx="70.59" cy="20.87" rx="0.07" ry="0.19" transform="translate(4.01 52.27) rotate(-41.72)"></ellipse>
      <ellipse class="cls-19" cx="70.29" cy="20.18" rx="0.07" ry="0.19" transform="translate(4.4 51.89) rotate(-41.72)"></ellipse>
      <ellipse class="cls-19" cx="69.48" cy="19.52" rx="0.07" ry="0.19" transform="translate(4.63 51.19) rotate(-41.72)"></ellipse>
      <ellipse class="cls-19" cx="74.38" cy="19.83" rx="0.19" ry="0.07" transform="translate(43.73 90.45) rotate(-81.46)"></ellipse>
      <ellipse class="cls-19" cx="74.19" cy="18.73" rx="0.19" ry="0.07" transform="translate(49.29 91.08) rotate(-85.18)"></ellipse>
      <ellipse class="cls-19" cx="74.84" cy="19.06" rx="0.19" ry="0.07" transform="translate(44.88 90.25) rotate(-81.46)"></ellipse>
      <ellipse class="cls-19" cx="74.37" cy="17.94" rx="0.07" ry="0.19" transform="translate(-0.94 31.42) rotate(-23.71)"></ellipse>
      <ellipse class="cls-19" cx="70.03" cy="20.93" rx="0.07" ry="0.19" transform="translate(3.83 51.91) rotate(-41.72)"></ellipse>
      <ellipse class="cls-19" cx="69.52" cy="20.43" rx="0.07" ry="0.19" transform="translate(4.04 51.44) rotate(-41.72)"></ellipse>
      <path class="cls-14" d="M71.38,16.61a5.18,5.18,0,0,1,2.72.5l-1-.14c-.33-.06-.91-.12-1-.16a2,2,0,0,1,1.15.94,4.68,4.68,0,0,0-.79-.46c-.21-.09-.75-.51-.85-.44l.07.37a7.79,7.79,0,0,1,0,1.35,4.41,4.41,0,0,1-.58-1.14c-.09-.23,0-.47,0-.47s-.26.41-.48.73a3.71,3.71,0,0,0-.63,1,9.34,9.34,0,0,1,.46-1.27c0-.09-.26.24-.27.26l-.79.84A4.71,4.71,0,0,1,71.38,16.61Z"></path>
      <path class="cls-20" d="M74,18.18c-.06.07-.19-.22-.34-.35s-.35-.28-.29-.36.33,0,.48.16A.57.57,0,0,1,74,18.18Z"></path>
      <path class="cls-16" d="M17.39,40.45s.53,1.95-.32,2.67c-.59.49-1.09,1.12-3.4.37s-1.6-4-.73-4.63a2.51,2.51,0,0,1,3.29-.1c1.35,1.05,1,1,1,1Z"></path>
      <path class="cls-18" d="M17.06,39.38a3.82,3.82,0,0,0-2.4-1.18,6.71,6.71,0,0,1,.94.42,7,7,0,0,0,1.1.44,3.17,3.17,0,0,0-1.69,0,3.87,3.87,0,0,1,.85.14c.21.06.95,0,1,.11s.07-.07-.36.3-.51.81-.6.88.29,0,.91-.37c.21-.11.36-.54.4-.51a2.81,2.81,0,0,1-.18,1c-.13.37,0,.72-.17,1.15a7.25,7.25,0,0,0,.42-1.2c0-.09,0,.33,0,.35,0,.37.08,1.17.08,1.09A4.42,4.42,0,0,0,17.06,39.38Z"></path>
      <ellipse class="cls-19" cx="14.14" cy="40.76" rx="0.18" ry="0.07" transform="matrix(0.81, -0.58, 0.58, 0.81, -21.07, 15.83)"></ellipse>
      <ellipse class="cls-19" cx="15.13" cy="40.18" rx="0.18" ry="0.07" transform="translate(-20.54 16.29) rotate(-35.56)"></ellipse>
      <ellipse class="cls-19" cx="13.68" cy="39.96" rx="0.18" ry="0.07" transform="translate(-20.69 15.4) rotate(-35.56)"></ellipse>
      <ellipse class="cls-19" cx="14.58" cy="39.32" rx="0.18" ry="0.07" transform="translate(-20.15 15.81) rotate(-35.56)"></ellipse>
      <ellipse class="cls-19" cx="13.55" cy="40.71" rx="0.18" ry="0.07" transform="translate(-21.15 15.47) rotate(-35.56)"></ellipse>
      <ellipse class="cls-19" cx="14.35" cy="40.05" rx="0.18" ry="0.07" transform="translate(-20.61 15.81) rotate(-35.56)"></ellipse>
      <ellipse class="cls-19" cx="14.17" cy="41.49" rx="0.18" ry="0.07" transform="translate(-21.49 15.98) rotate(-35.56)"></ellipse>
      <ellipse class="cls-19" cx="14.97" cy="40.92" rx="0.18" ry="0.07" transform="translate(-21 16.34) rotate(-35.56)"></ellipse>
      <ellipse class="cls-19" cx="14.83" cy="41.65" rx="0.18" ry="0.07" transform="translate(-21.45 16.39) rotate(-35.56)"></ellipse>
      <ellipse class="cls-19" cx="15.85" cy="41.09" rx="0.18" ry="0.07" transform="translate(-20.94 16.88) rotate(-35.56)"></ellipse>
      <ellipse class="cls-19" cx="14.58" cy="42.25" rx="0.18" ry="0.07" transform="translate(-21.85 16.36) rotate(-35.56)"></ellipse>
      <ellipse class="cls-19" cx="15.32" cy="42.26" rx="0.18" ry="0.07" transform="translate(-21.72 16.79) rotate(-35.56)"></ellipse>
      <path class="cls-21" d="M11.36,23.36c1.65.72,4,1.4,5.51,2.07a14.58,14.58,0,0,1,5.82,5.06,44.09,44.09,0,0,1,3.7,6.87l1.08,2.34c1.19,2.57,2.38,5.14,3.5,7.73"></path>
      <ellipse class="cls-19" cx="16.31" cy="41.89" rx="0.18" ry="0.07" transform="translate(-14.63 9.28) rotate(-22.21)"></ellipse>
      <ellipse class="cls-19" cx="15.19" cy="42.92" rx="0.18" ry="0.07" transform="translate(-6.62 2.96) rotate(-9.14)"></ellipse>
      <ellipse class="cls-19" cx="15.82" cy="42.59" rx="0.18" ry="0.07" transform="translate(-6.56 3.05) rotate(-9.14)"></ellipse>
      <ellipse class="cls-19" cx="16.81" cy="42.59" rx="0.18" ry="0.07" transform="translate(-6.55 3.21) rotate(-9.14)"></ellipse>
      <ellipse class="cls-19" cx="13.02" cy="39.88" rx="0.18" ry="0.07" transform="translate(-27.94 30.78) rotate(-59.39)"></ellipse>
      <ellipse class="cls-19" cx="13.82" cy="39.19" rx="0.18" ry="0.07" transform="translate(-26.34 28.51) rotate(-55.68)"></ellipse>
      <ellipse class="cls-19" cx="13.14" cy="39.05" rx="0.18" ry="0.07" transform="translate(-27.15 30.48) rotate(-59.39)"></ellipse>
      <ellipse class="cls-19" cx="14.16" cy="38.51" rx="0.18" ry="0.07" transform="translate(-16.01 10.7) rotate(-27.15)"></ellipse>
      <ellipse class="cls-19" cx="15.56" cy="43.3" rx="0.18" ry="0.07" transform="translate(-6.68 3.02) rotate(-9.14)"></ellipse>
      <ellipse class="cls-19" cx="16.24" cy="43.23" rx="0.18" ry="0.07" transform="translate(-6.66 3.13) rotate(-9.14)"></ellipse>
      <path class="cls-14" d="M17.15,39.32a4.93,4.93,0,0,0-2.29-1.27s.43.28.83.51.74.46.81.47a1.89,1.89,0,0,0-1.4,0,4.68,4.68,0,0,1,.85.14c.21.06.86.07.89.18l-.27.23a9,9,0,0,0-.8,1,4.43,4.43,0,0,0,1.11-.49c.21-.12.26-.36.3-.33s-.05.46-.08.82a3.42,3.42,0,0,1-.17,1.15,7.25,7.25,0,0,0,.42-1.2c0-.1,0,.33,0,.35,0,.37.08,1.16.08,1.09A4.42,4.42,0,0,0,17.15,39.32Z"></path>
      <path class="cls-20" d="M14.26,38.88c0,.09.27-.05.46-.05s.43,0,.43-.09-.26-.18-.45-.18S14.26,38.78,14.26,38.88Z"></path>
      <path class="cls-12" d="M16,34.55a1.71,1.71,0,0,0-3.39-.25,3,3,0,0,0,.3,3,3.26,3.26,0,0,0,4.21-.44,3.43,3.43,0,0,0-.29-1.57A1.53,1.53,0,0,0,16,34.55Z"></path>
      <ellipse class="cls-13" cx="14.17" cy="35.98" rx="0.18" ry="0.07" transform="translate(-21.3 20.56) rotate(-45)"></ellipse>
      <path class="cls-14" d="M16.35,34.46a2.7,2.7,0,0,0-1.71-2.53s1.22,1,1.18,1.72a2.79,2.79,0,0,0-2.53-.75s2.29.83,2.3,1.38c0,0,.2.69-1.52,1.52,0,0,.58.24,2-.77a2.72,2.72,0,0,1-.58,2.17,2.53,2.53,0,0,0,1.16-1.9,1.69,1.69,0,0,1,0,1.94s1.49-1,.55-2.21C17.2,35,16.39,34.86,16.35,34.46Z"></path>
      <ellipse class="cls-13" cx="13.18" cy="34.13" rx="0.18" ry="0.07" transform="translate(-22.97 28.48) rotate(-60)"></ellipse>
      <ellipse class="cls-13" cx="13.58" cy="35.11" rx="0.18" ry="0.07" transform="translate(-23.61 29.32) rotate(-60)"></ellipse>
      <ellipse class="cls-13" cx="14.83" cy="36.65" rx="0.18" ry="0.07" transform="translate(-19.66 17.32) rotate(-38.7)"></ellipse>
      <ellipse class="cls-13" cx="15.83" cy="37.11" rx="0.18" ry="0.07" transform="translate(-18.63 16.13) rotate(-35.56)"></ellipse>
      <ellipse class="cls-13" cx="13.01" cy="35.24" rx="0.18" ry="0.07" transform="matrix(0.31, -0.95, 0.95, 0.31, -24.54, 36.51)"></ellipse>
      <ellipse class="cls-13" cx="13.32" cy="36.18" rx="0.18" ry="0.07" transform="translate(-24.68 29.62) rotate(-60)"></ellipse>
      <ellipse class="cls-13" cx="13.75" cy="36.78" rx="0.18" ry="0.07" transform="translate(-18.82 14.85) rotate(-35.56)"></ellipse>
      <ellipse class="cls-13" cx="14.63" cy="37.3" rx="0.18" ry="0.07" transform="translate(-18.96 15.46) rotate(-35.56)"></ellipse>
      <path class="cls-22" d="M31.61,29.38a7.2,7.2,0,0,1-1,0A6.81,6.81,0,0,1,26.91,28c-1.87-1.56-4-4.48-3.8-7l.46.61,1.7.43L31,26.1l.83,2.57Z"></path>
      <path class="cls-23" d="M30.15,27.61c.19.58.3,1.18.5,1.76a3.47,3.47,0,0,1-.35-.85A5.57,5.57,0,0,1,30.15,27.61Z"></path>
      <path class="cls-23" d="M29.25,29.15a7.89,7.89,0,0,1-.94-2.53,7.4,7.4,0,0,0,.4,1.29C28.87,28.33,29.05,28.74,29.25,29.15Z"></path>
      <path class="cls-23" d="M27.52,28.49c-.34-.94-.66-1.89-.95-2.85C26.92,26.58,27.23,27.53,27.52,28.49Z"></path>
      <path class="cls-23" d="M25.91,27.08a4.77,4.77,0,0,1-.56-1.95,3.74,3.74,0,0,0,.22,1A9.9,9.9,0,0,0,25.91,27.08Z"></path>
      <path class="cls-23" d="M24.57,25.4a7.21,7.21,0,0,1-.24-1.79,5.53,5.53,0,0,0,.11.9Z"></path>
      <path class="cls-23" d="M31.61,29.38a6.69,6.69,0,0,0,0-6.73l-.17,1c-.07.4-1.33-2-1.33-2.22s-.27,1-.2,1.09a7.3,7.3,0,0,1-1.19-1.87,6.23,6.23,0,0,0-.21,1c0,.13-1.29-.76-1.32-1.18s-.11.59,0,.94-1.09.09-1.57-.94c0,0-.34.83-.24.9a1.51,1.51,0,0,1-.91-.61c-.17-.41-.07.44,0,.65s-1.09,0-1.36-.41.34,1.12.71,1.53.37,0,.37,0A7.86,7.86,0,0,1,25.25,24l.1-.68a6.45,6.45,0,0,1,1,1.5c.07.41.14-.61.14-.61a7.5,7.5,0,0,1,1,1.56,8.3,8.3,0,0,0,.13-.95s1.16,1.41,1.16,1.76l.24-.64s.85,1.39.78,1.77.31-.77.27-.91S32,28.53,31.61,29.38Z"></path>
      <path class="cls-14" d="M32.06,30.51s-.1.4.63.73a8.38,8.38,0,0,0,3.47.4,4.07,4.07,0,0,0-.4-.56,6.87,6.87,0,0,0,2.62-.86,3.83,3.83,0,0,0-.63-.33s1.6-.84,2-1.07L39,28.49s.61-1.2.94-1.25c0,0-.43-.47-.58-.4s.3-1,.4-1-.51-.22-.51-.22a3.67,3.67,0,0,1,.44-.51c.07,0-1.1-.39-1.2-.26s.13-.62.13-.62a3.71,3.71,0,0,0-1.53.51,4.51,4.51,0,0,1-.21-.89c0-.18-1.4,1-1.6,1.53a.73.73,0,0,1-.49-.76,3.24,3.24,0,0,0-.89,2l-.41-.35a3.47,3.47,0,0,0-.25,1.34s-.34,0-.34-.24A8.53,8.53,0,0,0,32.06,30.51Z"></path>
      <path class="cls-23" d="M32.69,31.24A22.62,22.62,0,0,1,35,28.16a10.86,10.86,0,0,1,1.4-1.31A3.91,3.91,0,0,1,38.05,26a4.41,4.41,0,0,0-1.65.92A11.38,11.38,0,0,0,35,28.23,29.67,29.67,0,0,0,32.69,31.24Z"></path>
      <path class="cls-23" d="M33.5,30a3.59,3.59,0,0,1-.27-1.5,3.44,3.44,0,0,0,.44,1.39Z"></path>
      <path class="cls-23" d="M37.26,30.35A11.62,11.62,0,0,1,33.55,30l.07-.19A11.45,11.45,0,0,0,37.26,30.35Z"></path>
      <path class="cls-23" d="M34.65,28.54a4.1,4.1,0,0,1-.42-1.7,3.85,3.85,0,0,0,.6,1.6Z"></path>
      <path class="cls-23" d="M37.69,29.15a5.76,5.76,0,0,1-3-.57l.11-.18A5.51,5.51,0,0,0,37.69,29.15Z"></path>
      <path class="cls-23" d="M35.86,27.22a7.38,7.38,0,0,1,.41-2.09,7.81,7.81,0,0,0-.21,2.1Z"></path>
      <path class="cls-23" d="M38.92,27.39a12.39,12.39,0,0,1-3-.06l0-.21A12.06,12.06,0,0,0,38.92,27.39Z"></path>
      <path class="cls-23" d="M31.83,31.24a4.52,4.52,0,0,0-.89-1.09l0,.21a3.59,3.59,0,0,0-1.5-.68s.17.25.14.25a4.17,4.17,0,0,0-1.44-.25,1.05,1.05,0,0,1,.12.31,11.74,11.74,0,0,0-1.55,0,1.6,1.6,0,0,1,.09.45,3.44,3.44,0,0,0-1.17.57s.33.19.33.29a2.89,2.89,0,0,0-.66,1.1l.56.17s0,.29-.12.36.77.56,1,.61a.35.35,0,0,1-.32.16c-.24,0,.65.39,1.61.41,0,0,0,.3-.17.3a5.67,5.67,0,0,0,2,.24,2,2,0,0,1-.05.27,3.35,3.35,0,0,0,1.9-1.58C32.12,32.37,32.22,32.15,31.83,31.24Z"></path>
      <path class="cls-24" d="M40.19,19.37s-.76-2.72-1.27-3a.53.53,0,0,1-.41.46A5.62,5.62,0,0,0,36,14.28l.15.74a5.53,5.53,0,0,0-4-2.27s.65,1,.61,1.28c0,0-2.7-1.14-3.72-.37,0,0,.77,1,.72,1.17A10.9,10.9,0,0,0,27,15c-.14.23.81.84.77,1.1s-1,.53-1.52.95l.75.43s-.65.39-.75.32,1,1.31,1.52,1.23c0,0-.2.66-.55.75s1.22.59,2.9.6a1.66,1.66,0,0,1-.89.86c-.74.37,3,.3,3.29.31s-.21.85-.49.85A7.44,7.44,0,0,0,36,21.73a.46.46,0,0,1-.28.58,5.6,5.6,0,0,0,2.37-.61A5.73,5.73,0,0,0,40.19,19.37Z"></path>
      <path class="cls-23" d="M41.64,20.25c-1-.55-1.93-1.07-2.93-1.53a18.52,18.52,0,0,0-3.14-1A26.84,26.84,0,0,0,29,17.07a19.37,19.37,0,0,1,6.61.46,16.06,16.06,0,0,1,3.15,1.08A30.15,30.15,0,0,1,41.64,20.25Z"></path>
      <path class="cls-23" d="M38,18.36A2.78,2.78,0,0,0,37.18,16a2.9,2.9,0,0,1,1,2.4Z"></path>
      <path class="cls-23" d="M35,21a6.55,6.55,0,0,0,1.6-1.21A17.4,17.4,0,0,0,38,18.3l.16.14c-.47.49-1,1-1.47,1.41A7,7,0,0,1,35,21Z"></path>
      <path class="cls-23" d="M35.27,17.54a3.34,3.34,0,0,1-.64,1.19,6,6,0,0,1-1,.93A9.88,9.88,0,0,1,31.39,21a9.46,9.46,0,0,0,2.22-1.4,5.72,5.72,0,0,0,.9-.94,3.32,3.32,0,0,0,.56-1.13Z"></path>
      <path class="cls-23" d="M34,14.28a4.63,4.63,0,0,1,1.31,3.25l-.21,0A4.51,4.51,0,0,0,34,14.28Z"></path>
      <path class="cls-23" d="M32.58,17.14a3.16,3.16,0,0,0-.48-1.51,2.49,2.49,0,0,0-1.22-1,2.66,2.66,0,0,1,1.31,1,3.58,3.58,0,0,1,.6,1.56Z"></path>
      <path class="cls-23" d="M29.63,19.52a5.6,5.6,0,0,0,3-2.44l.17.1A5.69,5.69,0,0,1,29.63,19.52Z"></path>
      <path class="cls-23" d="M30.55,17.05a2.28,2.28,0,0,0-.92-1.31A2.39,2.39,0,0,1,30.75,17Z"></path>
      <path class="cls-23" d="M28.78,18.77a2.59,2.59,0,0,0,1-.76,6,6,0,0,0,.76-1l.17.11a6.32,6.32,0,0,1-.85,1A2.78,2.78,0,0,1,28.78,18.77Z"></path>
      <path class="cls-24" d="M42.49,19.14s-2-5.82,2.1-8l.31,1s1-2.14,2.25-2.22v.86s1.7-1.32,2.72-.86l-.48.61s2.45-.61,2.72-.32.14.49,0,.94.89,0,.89,0a9.46,9.46,0,0,1-.89,2c-.2.06.41,0,.89.08,0,0-.72,2.48-1.18,2.69s.82.09.82.09a6.2,6.2,0,0,1-1.79,1.91s1.64.15,1.74.13S48.19,23.52,42.49,19.14Z"></path>
      <path class="cls-23" d="M41.56,20.19a32.41,32.41,0,0,1,3.08-3.34,13.45,13.45,0,0,1,3.7-2.6l0,0a5.06,5.06,0,0,1,1.06-1.71,10.68,10.68,0,0,1,1.47-1.38,10.59,10.59,0,0,0-1.44,1.4,5,5,0,0,0-1,1.71v0h0A13.52,13.52,0,0,0,44.73,17a33.22,33.22,0,0,0-3,3.37Z"></path>
      <path class="cls-23" d="M45.61,15.9A8,8,0,0,1,46.42,13a5.28,5.28,0,0,1,1.93-2.23h0a5.32,5.32,0,0,0-1.87,2.25,12.7,12.7,0,0,0-.87,2.83Z"></path>
      <path class="cls-23" d="M44.28,17.08a13.57,13.57,0,0,0,3.12.18,8.93,8.93,0,0,0,3.05-.67,8.9,8.9,0,0,1-3.05.77,13.84,13.84,0,0,1-3.15-.08Z"></path>
      <path class="cls-23" d="M46.16,11.18A5.61,5.61,0,0,0,44.72,14a13.66,13.66,0,0,0-.35,3.18h-.21a13.81,13.81,0,0,1,.46-3.2A5.62,5.62,0,0,1,46.16,11.18Z"></path>
      <path class="cls-23" d="M43,18.42a15,15,0,0,0,3.43.77,6.86,6.86,0,0,0,3.47-.46,6.88,6.88,0,0,1-3.47.56,15,15,0,0,1-3.5-.68Z"></path>
      <path class="cls-23" d="M43.41,13.66a3.44,3.44,0,0,0-.35,1.17,8.5,8.5,0,0,0-.1,1.23,18.06,18.06,0,0,0,.15,2.44l-.2,0a18.67,18.67,0,0,1,0-2.48A10.29,10.29,0,0,1,43,14.82,3.74,3.74,0,0,1,43.41,13.66Z"></path>
      <path class="cls-23" d="M46.94,15c.82-.14,1.64-.23,2.46-.34a12.54,12.54,0,0,0,2.42-.5h0a12,12,0,0,1-2.42.57,20.5,20.5,0,0,1-2.47.27Z"></path>
      <path class="cls-14" d="M45.21,27.66s2.12,2.57,3.86-.23A27.11,27.11,0,0,0,51.3,23.6c0-.24-.48.23-.85.25s0-.23,0-.41,1.38-1.82,1.08-3.66c0,0-.93.43-1.08.29s.48-2.13-.24-3.38a2.81,2.81,0,0,1-1.26.49S48.81,15.46,48,15a2,2,0,0,1-.68.59s.51.08-1.32-.78a3.21,3.21,0,0,1-.41,1.07s-.72-.47-.79-.74-.26,1.17-.24,1.43-1-.2-1-.2-.54,2.93.41,3.86a4.83,4.83,0,0,1-1.12-.71c-.41-.4.27,2,.51,2.35a3.88,3.88,0,0,1-1.09-.1A6,6,0,0,0,44,24.87a1.57,1.57,0,0,1-.94,0S44.9,27.35,45.21,27.66Z"></path>
      <path class="cls-23" d="M46.67,16.77a33.82,33.82,0,0,1,1,6.25,21.82,21.82,0,0,1-.46,6.3,24.56,24.56,0,0,0,.3-6.29A41.16,41.16,0,0,0,46.67,16.77Z"></path>
      <path class="cls-23" d="M47.75,25.92a1.51,1.51,0,0,0,.58-.08,2.9,2.9,0,0,0,.57-.25,6.65,6.65,0,0,0,1-.72,5.93,5.93,0,0,1-1,.81,3.1,3.1,0,0,1-.57.3,1.59,1.59,0,0,1-.66.14Z"></path>
      <path class="cls-23" d="M43.41,23a17.94,17.94,0,0,0,2,1.83,9.11,9.11,0,0,0,1.12.75,2.28,2.28,0,0,0,1.22.34l0,.2a2.42,2.42,0,0,1-1.32-.41,8.84,8.84,0,0,1-1.1-.8A18.13,18.13,0,0,1,43.41,23Z"></path>
      <path class="cls-23" d="M47.71,23.07a5.5,5.5,0,0,0,2.74-1.81,5.55,5.55,0,0,1-2.68,2Z"></path>
      <path class="cls-23" d="M43.61,20.72a7.45,7.45,0,0,0,1.81,1.69,3.93,3.93,0,0,0,2.31.66v.2a4,4,0,0,1-2.37-.78A7.22,7.22,0,0,1,43.61,20.72Z"></path>
      <path class="cls-23" d="M47.57,20.64a3.54,3.54,0,0,0,1.57-1.86,5.52,5.52,0,0,1-.55,1.15,2.62,2.62,0,0,1-.94.9Z"></path>
      <path class="cls-23" d="M44.26,18.28A6.63,6.63,0,0,0,45.65,20a2.56,2.56,0,0,0,2,.67l0,.21a2.68,2.68,0,0,1-2-.81A6.49,6.49,0,0,1,44.26,18.28Z"></path>
      <path class="cls-23" d="M47.1,18.69A2.26,2.26,0,0,0,48,17.18a2.36,2.36,0,0,1-.74,1.67Z"></path>
      <path class="cls-23" d="M45.21,16.85a4.73,4.73,0,0,0,.77,1.2,1.65,1.65,0,0,0,1.18.62v.2a1.84,1.84,0,0,1-1.26-.75A4.9,4.9,0,0,1,45.21,16.85Z"></path>
      <path class="cls-14" d="M50.45,30.78s-3.53.28-4.77,2.58,0,5.55,0,5.55,0-.55,1-.86a5.8,5.8,0,0,0,2.17,3.29,4.49,4.49,0,0,1,0-1.38c.13-.23,1.1,1.87,2.37,2,0,0-.15-.95,0-1.06s.92,1.19,2.14,1.56c0,0-.25-1.2,0-1.39s1.79.8,1.79.8a5,5,0,0,0,.2-1.18c-.05-.26,1,.55,1,.78a13.22,13.22,0,0,0-.3-2.75c-.21-.33,1.07-.29,1.12,0a4.33,4.33,0,0,0-.87-2.35c-.76-.69.63-.12.88,0S56.62,34.78,55,34s1.12-.31,1.12-.31A7.73,7.73,0,0,0,50.45,30.78Z"></path>
      <path class="cls-23" d="M48.56,32.27a4.48,4.48,0,0,1,2.79-.36,10,10,0,0,1,2.67.86A10.19,10.19,0,0,0,51.33,32a4.37,4.37,0,0,0-2.67.44Z"></path>
      <path class="cls-24" d="M51.38,29.39s1.5-8.17,8.32-9c0,0-.32,1.66,0,1.66s1.75-1.84,2.25-1.75c0,0,0,1.18.22,1.31s1.11-.94,2.18-1.1c0,0-.63.93,0,1.38a2.07,2.07,0,0,1,2.18-.92S65.24,22,66,22.41s2.16-.09,2.52.11-2.33,1.67-.91,2,2.45-.31,3.29,0c0,0-2.16,1-1.4,1.34s2.33,0,2.49.13-2.71,2.52.87,1.9C72.88,27.88,61.86,39.19,51.38,29.39Z"></path>
      <path class="cls-23" d="M46.27,36.78a7.23,7.23,0,0,1,.58-2.54,4.3,4.3,0,0,1,1.71-2l.1.18a4.14,4.14,0,0,0-1.72,1.84A7.08,7.08,0,0,0,46.27,36.78Z"></path>
      <path class="cls-23" d="M50.06,33.74a2.78,2.78,0,0,1,1.47-.3,5.11,5.11,0,0,1,1.45.34,11.85,11.85,0,0,1,2.57,1.46A11.94,11.94,0,0,0,53,33.88a3.35,3.35,0,0,0-2.79,0Z"></path>
      <path class="cls-23" d="M48.22,39.32a10.58,10.58,0,0,1,.24-3,3.9,3.9,0,0,1,1.6-2.56l.1.18a3.78,3.78,0,0,0-1.61,2.4A10.79,10.79,0,0,0,48.22,39.32Z"></path>
      <path class="cls-23" d="M51.33,35.2a2,2,0,0,1,1.19-.15,4.33,4.33,0,0,1,1.11.4,10.6,10.6,0,0,1,1.92,1.33,10.61,10.61,0,0,0-2-1.24,2.44,2.44,0,0,0-2.16-.16Z"></path>
      <path class="cls-23" d="M50.14,39.42a8.56,8.56,0,0,1,.07-2.26,2.73,2.73,0,0,1,1.12-2l.1.18a2.58,2.58,0,0,0-1.12,1.8A8.84,8.84,0,0,0,50.14,39.42Z"></path>
      <path class="cls-23" d="M52.83,37.36a1.1,1.1,0,0,1,.72.1,2.74,2.74,0,0,1,.59.36,7.9,7.9,0,0,1,1,.92,7.66,7.66,0,0,0-1.06-.84,1.55,1.55,0,0,0-1.19-.34Z"></path>
      <path class="cls-23" d="M52.33,40.12a6.89,6.89,0,0,1-.13-1.44,3.09,3.09,0,0,1,.12-.73.9.9,0,0,1,.51-.59l.06.2c-.41.12-.53.68-.58,1.13A6.85,6.85,0,0,0,52.33,40.12Z"></path>
      <path class="cls-23" d="M46.94,30.84a38.8,38.8,0,0,1,3.88,3.71,22.65,22.65,0,0,1,1.66,2.11,9,9,0,0,1,1.21,2.39,15.17,15.17,0,0,0-3-4.4C49.53,33.3,48.24,32.07,46.94,30.84Z"></path>
      <path class="cls-25" d="M61.16,14.18a6.9,6.9,0,0,0,1.26.41,2.09,2.09,0,0,1-.43.85c-.15.08.32.29.32.29s-1,1.35-1.29,1.4c0,0,.33.29.5.22a4.94,4.94,0,0,1-1.38.93c-.39.08.34.24.34.24a5.26,5.26,0,0,1-2.25.53C57.22,19,61.16,14.18,61.16,14.18Z"></path>
      <path class="cls-14" d="M57.11,19.14s-.4-4.9,4.5-5.93a2.93,2.93,0,0,0,0,.82H62a3.28,3.28,0,0,1-.64,1.54c-.32.28.47.17.47.17a5.4,5.4,0,0,1-1.51,1.61s.48.17.61.1a6.81,6.81,0,0,1-1.72,1.07c-.49.08.33.25.33.25S57.86,19.52,57.11,19.14Z"></path>
      <path class="cls-22" d="M57,18.41s.37.36,1.68-2.05l-.36.07s1.12-1.84.82-2.39a2,2,0,0,1-.33.1A2.62,2.62,0,0,0,57.9,12c-.19-.21-.18.21-.18.21a5.35,5.35,0,0,1-.83-.69l-.16.19a2.75,2.75,0,0,0-.51-.42s-.11.79.11.91c.06,0,.25-.31.25-.31a2,2,0,0,1,.16,1.52s.33.26.5.2,0,1.27-.24,1.51.51.63.51.63A6.62,6.62,0,0,1,57,18.41Z"></path>
      <path class="cls-23" d="M57.25,17.43c.12-.14.2-.1.29-.16a1.3,1.3,0,0,0,.26-.14,1.65,1.65,0,0,0,.44-.39,1.86,1.86,0,0,1-.41.43,1.4,1.4,0,0,1-.26.16c-.07.05-.21.1-.23.12Z"></path>
      <path class="cls-23" d="M57.24,15.87a1.74,1.74,0,0,0,.78-.46,3.76,3.76,0,0,0,.6-.72,3.81,3.81,0,0,1-.57.75,1.74,1.74,0,0,1-.8.52Z"></path>
      <path class="cls-23" d="M56.94,14.4A2.79,2.79,0,0,0,58,12.71a2.87,2.87,0,0,1-1,1.77Z"></path>
      <path class="cls-23" d="M56.52,13c.08-.14.17-.31.25-.47A3.11,3.11,0,0,0,57,12a3.13,3.13,0,0,1-.16.52c-.07.17-.14.33-.23.51Z"></path>
      <path class="cls-25" d="M57,18.41a5.92,5.92,0,0,1-.73-7.17,2.23,2.23,0,0,0,.1.91c0,.07.25-.31.25-.31a1.72,1.72,0,0,1,.16,1.51.82.82,0,0,0,.54.18A2.75,2.75,0,0,1,57,15.2a2.77,2.77,0,0,0,.55.5A5.65,5.65,0,0,1,57,18.41Z"></path>
      <path class="cls-22" d="M56.67,19.42s.56,0,0-2.88l-.26.31s-.33-2.31-1-2.57a1.81,1.81,0,0,1-.2.31A2.9,2.9,0,0,0,53,13.36c-.3,0,0,.31,0,.31a7.65,7.65,0,0,1-1.18,0v.26a3.17,3.17,0,0,0-.71,0s.45.73.71.68c.08,0,0-.43,0-.43A2.18,2.18,0,0,1,53,15.34s.45,0,.56-.18.89,1.06.84,1.43.87.18.87.18A7.09,7.09,0,0,1,56.67,19.42Z"></path>
      <path class="cls-23" d="M56.24,18.39c0-.19.1-.22.13-.33a2.55,2.55,0,0,0,.13-.29,2.3,2.3,0,0,0,.09-.64,2.35,2.35,0,0,1,0,.65,1.63,1.63,0,0,1-.11.31c0,.09-.11.24-.11.26Z"></path>
      <path class="cls-23" d="M55.15,17.1a2,2,0,0,0,.34-.92,5,5,0,0,0,0-1,4.36,4.36,0,0,1,0,1,2.09,2.09,0,0,1-.31,1Z"></path>
      <path class="cls-23" d="M53.89,16.07a3.05,3.05,0,0,0-.28-2.15A3.18,3.18,0,0,1,54,16.1Z"></path>
      <path class="cls-23" d="M52.54,15.16c0-.17-.07-.38-.11-.57a5.18,5.18,0,0,0-.17-.56,3.32,3.32,0,0,1,.22.55,4.91,4.91,0,0,1,.16.58Z"></path>
      <path class="cls-14" d="M56.67,19.42a6.43,6.43,0,0,1-5.56-5.5,2.41,2.41,0,0,0,.71.69c.08,0,0-.43,0-.43.22.11.66.15,1.18,1.16a.89.89,0,0,0,.57-.23,2.94,2.94,0,0,1,.88,1.63,3.48,3.48,0,0,0,.82,0A6.19,6.19,0,0,1,56.67,19.42Z"></path>
      <path class="cls-23" d="M54.32,28.31a10.58,10.58,0,0,1,1-2.63,11.47,11.47,0,0,1,1.6-2.29,11.13,11.13,0,0,0-1.51,2.34,10.59,10.59,0,0,0-.89,2.61Z"></path>
      <path class="cls-23" d="M56.18,29.66a17.5,17.5,0,0,1,1.56-3.83,9.19,9.19,0,0,1,2.64-3.13,9.07,9.07,0,0,0-2.55,3.18,17.56,17.56,0,0,0-1.45,3.83Z"></path>
      <path class="cls-23" d="M58.37,29.12a13,13,0,0,1,1.92-3.34,11.77,11.77,0,0,1,2.8-2.61,11.88,11.88,0,0,0-2.72,2.67,12.7,12.7,0,0,0-1.8,3.34Z"></path>
      <path class="cls-23" d="M60.38,29.89a16.4,16.4,0,0,1,2.53-3.48,27.18,27.18,0,0,1,3.16-2.91,28.81,28.81,0,0,0-3.08,3A16.39,16.39,0,0,0,60.57,30Z"></path>
      <path class="cls-23" d="M63.34,30.07a31.36,31.36,0,0,0,3.72-4,30.81,30.81,0,0,1-3.59,4.15Z"></path>
      <path class="cls-23" d="M66.4,29.59a10.49,10.49,0,0,0,3-2.16,10.35,10.35,0,0,1-2.87,2.34Z"></path>
      <path class="cls-16" d="M62.39,19.84S60,21.09,60,22s-.34,1.84,2,3.57,5-2.19,5-2.51a3,3,0,0,0-2.2-3.27c-2-.6-1.69-.32-1.69-.32Z"></path>
      <path class="cls-17" d="M65.81,20.84s2.43,2-1.21,4.42a7.73,7.73,0,0,1-1.19.59c-.18,0,3.31-2.31,2.23-4.59C65.42,20.81,65.55,20.58,65.81,20.84Z"></path>
      <path class="cls-18" d="M63.66,19.41a4.63,4.63,0,0,1,2.83,1.52,7.55,7.55,0,0,0-1.07-.62,9.88,9.88,0,0,1-1.2-.77,3.75,3.75,0,0,1,1.15,1.68,5.09,5.09,0,0,0-.74-.74c-.2-.16-.66-.92-.79-.88s0-.12,0,.56a7.1,7.1,0,0,1-.44,1.21c0,.08-.19-.3-.29-1.15,0-.29.28-.73.23-.74s-.56.46-.86.87-.7.49-1,1a9.9,9.9,0,0,1,.88-1.25c.07-.09-.36.19-.38.2-.38.24-1.19.74-1.11.68A5.37,5.37,0,0,1,63.66,19.41Z"></path>
      <ellipse class="cls-19" cx="64.35" cy="23.22" rx="0.09" ry="0.22"></ellipse>
      <ellipse class="cls-19" cx="64.22" cy="21.85" rx="0.09" ry="0.22"></ellipse>
      <ellipse class="cls-19" cx="65.45" cy="23.12" rx="0.09" ry="0.22"></ellipse>
      <ellipse class="cls-19" cx="65.45" cy="21.79" rx="0.09" ry="0.22"></ellipse>
      <ellipse class="cls-19" cx="64.81" cy="23.76" rx="0.09" ry="0.22"></ellipse>
      <ellipse class="cls-19" cx="64.9" cy="22.52" rx="0.09" ry="0.22"></ellipse>
      <ellipse class="cls-19" cx="63.62" cy="23.7" rx="0.09" ry="0.22"></ellipse>
      <ellipse class="cls-19" cx="63.62" cy="22.52" rx="0.09" ry="0.22"></ellipse>
      <ellipse class="cls-19" cx="63.01" cy="23.17" rx="0.09" ry="0.22"></ellipse>
      <ellipse class="cls-19" cx="62.84" cy="21.79" rx="0.09" ry="0.22"></ellipse>
      <ellipse class="cls-19" cx="62.59" cy="23.82" rx="0.09" ry="0.22"></ellipse>
      <ellipse class="cls-19" cx="62.07" cy="23.12" rx="0.09" ry="0.22"></ellipse>
      <ellipse class="cls-19" cx="61.73" cy="21.89" rx="0.09" ry="0.22" transform="translate(-3.39 14.84) rotate(-13.35)"></ellipse>
      <ellipse class="cls-19" cx="61.52" cy="23.7" rx="0.09" ry="0.22" transform="translate(-4.12 29.85) rotate(-26.42)"></ellipse>
      <ellipse class="cls-19" cx="61.4" cy="22.85" rx="0.09" ry="0.22" transform="translate(-3.76 29.71) rotate(-26.42)"></ellipse>
      <ellipse class="cls-19" cx="60.71" cy="21.89" rx="0.09" ry="0.22" transform="translate(-3.4 29.3) rotate(-26.42)"></ellipse>
      <ellipse class="cls-19" cx="65.99" cy="23.7" rx="0.22" ry="0.09" transform="translate(17.64 74.48) rotate(-66.17)"></ellipse>
      <ellipse class="cls-19" cx="66.1" cy="22.44" rx="0.22" ry="0.09" transform="translate(22.3 76.79) rotate(-69.88)"></ellipse>
      <ellipse class="cls-19" cx="66.72" cy="23" rx="0.22" ry="0.09" transform="translate(18.72 74.73) rotate(-66.17)"></ellipse>
      <ellipse class="cls-19" cx="66.53" cy="21.63" rx="0.09" ry="0.22" transform="translate(-2.45 9.96) rotate(-8.41)"></ellipse>
      <ellipse class="cls-19" cx="60.88" cy="23.6" rx="0.09" ry="0.22" transform="translate(-4.14 29.56) rotate(-26.42)"></ellipse>
      <ellipse class="cls-19" cx="60.48" cy="22.9" rx="0.09" ry="0.22" transform="translate(-3.87 29.3) rotate(-26.42)"></ellipse>
      <path class="cls-14" d="M63.66,19.28a5.79,5.79,0,0,1,2.83,1.35l-1.07-.45c-.35-.16-1-.41-1-.47a2.3,2.3,0,0,1,1,1.37,5.7,5.7,0,0,0-.74-.74c-.2-.15-.66-.78-.79-.74s0-.25,0,.43a9.23,9.23,0,0,1-.43,1.48,4.92,4.92,0,0,1-.3-1.43c0-.28.17-.5.12-.52s-.41.37-.75.66a4.09,4.09,0,0,0-1,1,9.9,9.9,0,0,1,.88-1.25c.07-.09-.36.18-.38.19-.38.25-1.19.74-1.11.69A5.3,5.3,0,0,1,63.66,19.28Z"></path>
      <path class="cls-20" d="M66.1,21.79c-.09.06-.14-.3-.27-.48s-.3-.42-.21-.48.35.13.48.32A.65.65,0,0,1,66.1,21.79Z"></path>
      <path class="cls-14" d="M51.31,29.68a9.14,9.14,0,0,1,5.1-1.93s-.45,1.37-.13,1.4,2.56-.93,4.6-.82a3.45,3.45,0,0,0-.4,1.23c.07.3,2.49-1,3.83-.95,0,0-.8,1.27-.17,1.32s1.72-1.17,3-1.2c0,0-.75,1.37-.12,1.42s2.48-1.26,3.29-1.42c0,0-.68.69-.32.95S72.1,28.6,72.1,28.6,61.53,38.62,51.31,29.68Z"></path>
      <path class="cls-23" d="M52.14,30.36a13.44,13.44,0,0,0,3-1.54,5.1,5.1,0,0,1-1.39,1.05A4.25,4.25,0,0,1,52.14,30.36Z"></path>
      <path class="cls-23" d="M54.85,31.9a15.4,15.4,0,0,0,2.24-.84A6,6,0,0,0,59,29.68a3.47,3.47,0,0,1-.8.91,5.57,5.57,0,0,1-1,.65A7.06,7.06,0,0,1,54.85,31.9Z"></path>
      <path class="cls-23" d="M56.93,32.88c.52-.17,1-.35,1.53-.54s1-.38,1.49-.62A11.29,11.29,0,0,0,61.36,31a5.48,5.48,0,0,0,1.23-1,6,6,0,0,1-2.56,2A13,13,0,0,1,56.93,32.88Z"></path>
      <path class="cls-23" d="M61.1,33.38A18.09,18.09,0,0,0,63.68,32a9.63,9.63,0,0,0,2.21-1.87A6,6,0,0,1,65,31.29a9.32,9.32,0,0,1-1.17.9A9.53,9.53,0,0,1,61.1,33.38Z"></path>
      <path class="cls-21" d="M57,18.41c0,5-4.71,8-7.58,9.7S44,30.78,41.29,32.77a38.86,38.86,0,0,0-6.74,6.34c-3,3.62-3.8,5.23-3.53,8.43"></path>
      <path class="cls-21" d="M51.57,29.44c-1,.34-2,.38-3,.72C39.8,33.38,31.83,41.49,31,47.54"></path>
      <path class="cls-21" d="M31.39,28.82a16.23,16.23,0,0,1,.45,10.68,23.85,23.85,0,0,1-1.07,2.56c-1.16,2.3.21,4.17.2,5.37"></path>
      <path class="cls-21" d="M16,34.88a3.84,3.84,0,0,1,4.27.73c.33.34.6.74.94,1.06a9.42,9.42,0,0,0,2,1.27A12,12,0,0,1,26,40.1a29.59,29.59,0,0,1,5,7.33"></path>
      <path class="cls-26" d="M16.89,39.58c1.29-.64,2.7-2,4.14-2a4.25,4.25,0,0,1,1.38.16c.94.31,2.93,1.61,1.71.76"></path>
      <path class="cls-21" d="M21.54,40.18a2.15,2.15,0,0,1-.32-1.66,1.27,1.27,0,0,1,1-.52,7.1,7.1,0,0,1,2.4.81"></path>
      <path class="cls-26" d="M20.64,37.57a3.41,3.41,0,0,0-1.75,1.34c-1.08,1.85.14,3.29.16,3.82"></path>
      <path class="cls-21" d="M71.41,16.73c-.28-1.05-1.6-1.64-2.65-1.91A7.88,7.88,0,0,0,63.22,16a16.87,16.87,0,0,0-3.09,2.52c-2.66,2.47-5.7,6.54-8.82,8.4"></path>
      <path class="cls-21" d="M59.44,19.14c1.27-.94,4.05-2.15,4.22.27"></path>
      <path class="cls-21" d="M62.33,16.54A6.43,6.43,0,0,1,63.65,16c.47-.08,2.84-.87,3.15.94"></path>
      <path class="cls-21" d="M31,47.54a7.51,7.51,0,0,1,6.16-6,18.81,18.81,0,0,1,7.83.33,50,50,0,0,1,7.52,2.78c6.09,2.56,12.82,4.7,19.22,3"></path>
      <path class="cls-14" d="M12.77,19.48s.42,2.61,2.39,3.53a3.33,3.33,0,0,0,.94.28,3.41,3.41,0,0,0,2.55-.51,9.61,9.61,0,0,0,2.93-3.16l-1,.27a8,8,0,0,0,1.46-3.09s-1.05.24-1.36.27c0,0,1.23-1.87,1.12-2.62a10.08,10.08,0,0,1-1.19.38,3.15,3.15,0,0,0,.82-2,4.11,4.11,0,0,1-1,.44,8.06,8.06,0,0,0,0-1.87s-.58.31-.78.44a4.17,4.17,0,0,0-.1-1,7.67,7.67,0,0,1-.92,1s-.48-.2-.44-.54c0,0-.82.44-.72,1.19a.67.67,0,0,1-.85-.62s-1.25,1.47-1,2.52a1,1,0,0,1-.92-.51,5.26,5.26,0,0,0-.27,2.72s-.88.17-1.05-.31c0,0-.41,2.42.3,3.44A.79.79,0,0,1,12.77,19.48Z"></path>
      <path class="cls-23" d="M20.76,17.82a9,9,0,0,1-2.23,1.95,4.89,4.89,0,0,1-2.86.78l0-.2a4.76,4.76,0,0,0,2.79-.67A9.26,9.26,0,0,0,20.76,17.82Z"></path>
      <path class="cls-23" d="M15.84,24.87a7.79,7.79,0,0,1-.43-3.18,14.74,14.74,0,0,1,.72-3.14,26.74,26.74,0,0,1,1.24-3,24.88,24.88,0,0,1,1.55-2.82c-.5.95-1,1.92-1.4,2.89s-.85,2-1.21,3a15.1,15.1,0,0,0-.8,3.09A8.12,8.12,0,0,0,15.84,24.87Z"></path>
      <path class="cls-23" d="M20.08,20.47A5.23,5.23,0,0,1,18,22a4.28,4.28,0,0,1-2.57.23h0a5.58,5.58,0,0,0,2.53-.3,5.18,5.18,0,0,0,2.09-1.47Z"></path>
      <path class="cls-23" d="M13.79,20.47a7.38,7.38,0,0,0,1.67,1.77,4.81,4.81,0,0,1-1-.75A3.17,3.17,0,0,1,13.79,20.47Z"></path>
      <path class="cls-23" d="M14.16,18a5.8,5.8,0,0,0,.51,1.41,1.57,1.57,0,0,0,1,.92l0,.2a1.73,1.73,0,0,1-1.08-1.08A5.61,5.61,0,0,1,14.16,18Z"></path>
      <path class="cls-23" d="M16.43,17.92a4.14,4.14,0,0,0,2.13-.39,4.45,4.45,0,0,0,1.69-1.41,4.54,4.54,0,0,1-1.64,1.5,4.36,4.36,0,0,1-2.19.5Z"></path>
      <path class="cls-23" d="M14.92,15.61A5.32,5.32,0,0,0,15.38,17a1.37,1.37,0,0,0,1,.88v.2a1.49,1.49,0,0,1-1.13-1A5.54,5.54,0,0,1,14.92,15.61Z"></path>
      <path class="cls-23" d="M16.93,16.58a6.77,6.77,0,0,1-.25-3.45,6.74,6.74,0,0,0,.44,3.38Z"></path>
      <path class="cls-23" d="M20.25,14.28A2.67,2.67,0,0,1,19,15.86a6,6,0,0,1-1.93.78l0-.2a5.91,5.91,0,0,0,1.92-.66A2.69,2.69,0,0,0,20.25,14.28Z"></path>
      <path class="cls-23" d="M18,14.36a2.07,2.07,0,0,0,1.11-.47,3,3,0,0,0,.76-1A2.46,2.46,0,0,1,18,14.51Z"></path>
      <path class="cls-23" d="M17.66,12.75a1.68,1.68,0,0,0,.4,1.63l-.1.12a1.21,1.21,0,0,1-.38-.84A2.76,2.76,0,0,1,17.66,12.75Z"></path>
      <path class="cls-14" d="M7.5,25.12c.09,0,3.71.15,4.66-1.51a1.55,1.55,0,0,0,.21-.58,9.09,9.09,0,0,0,0-3.55s-.18.67-.43.8a6.6,6.6,0,0,0-1.38-3.74s-.17.88-.55,1.06c0,0-.22-2.76-2.51-3.5,0,0,.33,1.14,0,1.31a7.46,7.46,0,0,0-3.27-2.28,4.46,4.46,0,0,1,.28,1.31,16.67,16.67,0,0,0-2.09-1A6.71,6.71,0,0,1,2,14.83a12.9,12.9,0,0,0-1.35-.19s.33.76.38,1L0,15.74s1.53,2.55,2.4,2.93c0,0-2,.45-2,.45h0s2.4,2.11,3.19,2.52c0,0-1.76.56-2,.59C1.53,22.24,2.83,24.76,7.5,25.12Z"></path>
      <path class="cls-23" d="M2.07,16a30.73,30.73,0,0,0,4.49,4.63,18.44,18.44,0,0,0,2.63,1.83,9.58,9.58,0,0,0,3,1.16v0a8.48,8.48,0,0,1-3.07-1,14.88,14.88,0,0,1-2.64-1.88A29.36,29.36,0,0,1,2.06,16Z"></path>
      <path class="cls-23" d="M8.44,16.4a7.69,7.69,0,0,1-.54,4.46,3.36,3.36,0,0,1-1.65,1.57A4.21,4.21,0,0,1,4,22.6a4.61,4.61,0,0,0,2.19-.31,3.27,3.27,0,0,0,1.53-1.52,6.25,6.25,0,0,0,.62-2.12A12.08,12.08,0,0,0,8.44,16.4Z"></path>
      <path class="cls-23" d="M10.76,18.52a7.87,7.87,0,0,1-.52,3.74,3.71,3.71,0,0,1-1.17,1.52,3,3,0,0,1-1.83.47A3.34,3.34,0,0,0,9,23.65a3.57,3.57,0,0,0,1.07-1.47,7.36,7.36,0,0,0,.52-1.79A11.74,11.74,0,0,0,10.76,18.52Z"></path>
      <path class="cls-23" d="M6.25,16.12a7.53,7.53,0,0,1,.18,1.71,4.06,4.06,0,0,1-.36,1.7,1.72,1.72,0,0,1-1.41,1,2.85,2.85,0,0,1-.87-.07c-.27-.08-.54-.2-.81-.29a4.15,4.15,0,0,0,1.66.21,1.6,1.6,0,0,0,1.25-.92,4.23,4.23,0,0,0,.38-1.62A10.74,10.74,0,0,0,6.25,16.12Z"></path>
      <path class="cls-23" d="M4,18.18c-.1.05,0,0,0,0l0-.1a1.55,1.55,0,0,0,0-.21c0-.14,0-.29,0-.43a3.69,3.69,0,0,0-.1-.87A3.29,3.29,0,0,0,3.14,15a3.38,3.38,0,0,1,.93,1.51,4.36,4.36,0,0,1,.15.89c0,.15,0,.3,0,.45l0,.23,0,.12s0,.07-.13.17Z"></path>
      <path class="cls-23" d="M1.3,17.09A3.21,3.21,0,0,0,4,18.18l0,.21A3.35,3.35,0,0,1,1.3,17.09Z"></path>
      <path class="cls-14" d="M15.67,28.13s.18-3.9-4.9-2.75l.45.45a6.48,6.48,0,0,0-2.73.72,4.8,4.8,0,0,1,.95.28c0,.08-2.73,1.38-3.19,2.68l1.43.12A4.52,4.52,0,0,0,6.1,33s.61-.41.79-.34c0,0-.95,2.12-.26,3,0,0,.38-.71.77-.76,0,0-.08,1.25.15,1.5,0,0,.28-.94.59-1,0,0,.33.51.2.81,0,0,1.45-.89,1.71-1.81,0,0,.33.69.2,1,0,0,2.16-1.89,2.28-2.4,0,0,.33.54.24.77s2.12-1.38,1.85-2.58c0,0,.4.31.3.61A15.9,15.9,0,0,0,15.67,28.13Z"></path>
      <path class="cls-23" d="M7.2,34c.44-1,.93-1.92,1.46-2.85A13.59,13.59,0,0,1,10.5,28.5a11.05,11.05,0,0,1,1.13-1.14,11.92,11.92,0,0,1,1.3-.94,8.74,8.74,0,0,1,2.91-1.29A9.4,9.4,0,0,0,13,26.49a10.15,10.15,0,0,0-2.38,2.1,16.45,16.45,0,0,0-1.85,2.59C8.21,32.09,7.7,33,7.2,34Z"></path>
      <path class="cls-23" d="M12.05,27.15a5.7,5.7,0,0,0-2.46-.53,5.87,5.87,0,0,1,2.55.34Z"></path>
      <path class="cls-23" d="M13.11,32.06a22.58,22.58,0,0,0-.19-2.61,10.58,10.58,0,0,0-.26-1.27,1.81,1.81,0,0,0-.61-1l.09-.19a1.91,1.91,0,0,1,.66,1.18,8.21,8.21,0,0,1,.22,1.3A20.79,20.79,0,0,1,13.11,32.06Z"></path>
      <path class="cls-23" d="M10,29a12.24,12.24,0,0,0-2-.22,12.63,12.63,0,0,1,2,0Z"></path>
      <path class="cls-23" d="M10.62,34.3a20.45,20.45,0,0,0,.1-2.82,7.32,7.32,0,0,0-.16-1.39A1.63,1.63,0,0,0,9.94,29l.09-.18a1.73,1.73,0,0,1,.68,1.27,7.55,7.55,0,0,1,.11,1.42A22.28,22.28,0,0,1,10.62,34.3Z"></path>
      <path class="cls-23" d="M9.11,30.61a.89.89,0,0,0-.5.05,2.3,2.3,0,0,0-.5.24,4.68,4.68,0,0,0-.87.74,4.49,4.49,0,0,1,.81-.82,2.29,2.29,0,0,1,.5-.3,1.15,1.15,0,0,1,.62-.11Z"></path>
      <path class="cls-23" d="M9.52,32.77a5.92,5.92,0,0,0,0-1.19c0-.38-.14-.81-.44-1l.1-.18a.92.92,0,0,1,.36.54,2.18,2.18,0,0,1,.08.61A5.31,5.31,0,0,1,9.52,32.77Z"></path>
      <path class="cls-21" d="M40.55,13.66a24.13,24.13,0,0,1,1,9.09,15.21,15.21,0,0,1-2.47,7.75c-.48.7-7.55,10.35-8.11,13.26a7.09,7.09,0,0,0,0,3.67"></path>
      <path class="cls-24" d="M41.16,14.44s1.48-.29,2.81-3.12a1.58,1.58,0,0,1-.74,0,4.28,4.28,0,0,0,1.25-4,3.6,3.6,0,0,1-.64.59,12.25,12.25,0,0,0-.13-2.75s-.47.76-.83.92c0,0-.09-2.78-.47-3.09,0,0-.66,1-.86,1,0,0,.17-2-.57-2.5a8.94,8.94,0,0,1-.79,1.37c-.2.18-.07-2-.89-2.52a4.79,4.79,0,0,1-.51,1.09S38.34.1,38.07,0c0,0-.21.77-.44.92A3.54,3.54,0,0,0,36.52,0a5.81,5.81,0,0,1-.38,1.22A6.32,6.32,0,0,0,34.58.31s.23,1.22.21,1.4c0,0,.2.38-.36.3s-1.15-.12-1.15-.12L34,3.26a10.7,10.7,0,0,1-1.28-.1,8.34,8.34,0,0,0,1.15,1.89c.62.59-.18.38-.25.38a4.3,4.3,0,0,1-1.38-.51c-.08-.18,1.07,1.91,1.07,1.91a1.87,1.87,0,0,1-1.07,0c-.41-.2.54,1.17.64,1.33l.79,1.12s.28.33.1.33-1.14-.38-1.05-.2,1.82,1.68,1.69,1.86-1.27,0-1.1.2a18.54,18.54,0,0,0,2.55,2.14,10.52,10.52,0,0,0,3.55,1C41.21,14.69,41.16,14.44,41.16,14.44Z"></path>
      <path class="cls-23" d="M36.06,2.93a30.89,30.89,0,0,1,2.76,5.59c.38,1,.73,2,1.07,2.94s.63,2,.92,3c-.72-2-1.4-3.92-2.18-5.84-.37-1-.78-1.93-1.19-2.88S36.58,3.83,36.06,2.93Z"></path>
      <path class="cls-23" d="M40.55,13.76a24.1,24.1,0,0,1-4.9-1,23.53,23.53,0,0,0,4.91.81Z"></path>
      <path class="cls-23" d="M43.61,10a12.61,12.61,0,0,1-3,3.79l-.13-.16A12.64,12.64,0,0,0,43.61,10Z"></path>
      <path class="cls-23" d="M39.93,11.91a18,18,0,0,1-2.76-.38,8.1,8.1,0,0,1-2.59-1,8.2,8.2,0,0,0,2.61.87,16.74,16.74,0,0,0,2.74.27Z"></path>
      <path class="cls-23" d="M42.49,8.69a4.85,4.85,0,0,1-1.06,1.73A15.26,15.26,0,0,1,40,11.88l-.13-.15a15,15,0,0,0,1.49-1.38A4.61,4.61,0,0,0,42.49,8.69Z"></path>
      <path class="cls-23" d="M39.36,10.35a13,13,0,0,1-2.89-.69A7.2,7.2,0,0,1,34,8.11a6.92,6.92,0,0,0,2.54,1.45,11.8,11.8,0,0,0,2.87.58Z"></path>
      <path class="cls-23" d="M41.47,6.73a6.9,6.9,0,0,1-2,3.59l-.14-.15A6.81,6.81,0,0,0,41.47,6.73Z"></path>
      <path class="cls-23" d="M38.78,8.79A7.13,7.13,0,0,1,34,6.54a7,7,0,0,0,4.8,2Z"></path>
      <path class="cls-23" d="M40.81,4.39a4.55,4.55,0,0,1-.54,2.36,9.38,9.38,0,0,1-1.42,2l-.14-.15A9.17,9.17,0,0,0,40.18,6.7,4.36,4.36,0,0,0,40.81,4.39Z"></path>
      <path class="cls-23" d="M38,6.83a9.68,9.68,0,0,1-2.08-.92,4.47,4.47,0,0,1-1.65-1.52,4.45,4.45,0,0,0,1.7,1.43A10,10,0,0,0,38,6.63Z"></path>
      <path class="cls-23" d="M38.92,2.6a9.78,9.78,0,0,1-.1,2.16,4.85,4.85,0,0,1-.77,2l-.15-.14a3.44,3.44,0,0,0,.51-.9,7.07,7.07,0,0,0,.31-1A9.58,9.58,0,0,0,38.92,2.6Z"></path>
      <path class="cls-23" d="M37.08,4.85a3.76,3.76,0,0,1-1.49-.72,5.74,5.74,0,0,1-1.11-1.2A5.34,5.34,0,0,0,35.65,4a3.55,3.55,0,0,0,1.45.61Z"></path>
      <path class="cls-23" d="M38.05,2.14a8.08,8.08,0,0,1-.87,2.66L37,4.7A8.19,8.19,0,0,0,38.05,2.14Z"></path>
      <path class="cls-27" d="M31.06,50.73c-.06-1.2.32-1.68-.71-2.31A3.66,3.66,0,0,1,29,46.31a13.68,13.68,0,0,0-.95-2.8s1.11,1.2,1.86,1.88.91,2,1.06,2,.52-1.26,1.23-2.35a3.42,3.42,0,0,1,1.54-1.37s-1.7,1.88-1.61,2.9c.24,2.83.32,4.89.33,6.15s1.09,3.17,1,3.59-2.94,1.5-3-.17c0,0-.74-.25.07-1.21A10.38,10.38,0,0,0,31.06,50.73Z"></path>
      <path class="cls-28" d="M69.91,48.28s1.33,1.4,4.9-1.17a5.06,5.06,0,0,1-1.56.18C71.94,47.23,70.26,47,69.91,48.28Z"></path>
      <path class="cls-29" d="M69.89,48.19s.4-1.88,4.79-1.54a5,5,0,0,0-1.43.66C72.17,48,70.83,49.07,69.89,48.19Z"></path>
    </g>
  </g>
</svg>
