<?xml version="1.0" encoding="UTF-8"?>
<svg xmlns="http://www.w3.org/2000/svg" viewBox="0 0 128.22 87.49">
  <defs>
    <style>.cls-1{opacity:0.5;}.cls-2{fill:#f0f7fd;stroke-width:0.09px;opacity:0.83;}.cls-2,.cls-4,.cls-5{stroke:#77aad5;stroke-miterlimit:10;}.cls-3{fill:#d0e6f6;}.cls-4,.cls-5{fill:none;}.cls-4{stroke-width:1.08px;}.cls-5{stroke-width:1.03px;}</style>
  </defs>
  <g id="Слой_2" data-name="Слой 2">
    <g id="Слой_1-2" data-name="Слой 1">
      <g class="cls-1">
        <path class="cls-2" d="M63.35,1,5,20.94A7.13,7.13,0,0,0,.22,27.7V84H128V27.57a7.13,7.13,0,0,0-4.65-6.7L69.67,1.1A9.45,9.45,0,0,0,63.35,1Z"></path>
        <path class="cls-3" d="M87.85,83.2H46.19c-.38,0-.69-.57-.69-1.27V64.42c0-.7.3-1.26.68-1.26H87.85c.38,0,.69.56.69,1.26V81.93C88.54,82.63,88.23,83.2,87.85,83.2Zm40.14-20V61.67H.6v1.49H44.3c.38,0,.69.56.69,1.26V81.93c0,.7-.31,1.27-.69,1.27H.6v4.27H128V83.2H89.74c-.38,0-.69-.57-.69-1.27V64.42c0-.7.31-1.26.69-1.26Z"></path>
        <line class="cls-4" x1="127.71" y1="45.89" x2="0.6" y2="45.89"></line>
        <path class="cls-5" d="M127.71,87.49V30.54a8,8,0,0,0-8-8H8.56a8.05,8.05,0,0,0-8,8.05V28.25A8.06,8.06,0,0,1,6,20.63L63.83.94A8,8,0,0,1,69.2,1l53.23,19.54a8.06,8.06,0,0,1,5.28,7.56Z"></path>
      </g>
    </g>
  </g>
</svg>
