<?xml version="1.0" encoding="UTF-8"?>
<svg xmlns="http://www.w3.org/2000/svg" viewBox="0 0 47.33 48">
  <defs>
    <style>.cls-1{fill:#a29274;}.cls-2{fill:#e3e0c9;}.cls-3{fill:#bda885;}.cls-4{fill:#7c705b;}.cls-5{fill:#d0c5a6;}.cls-6{fill:#a29277;}.cls-7{fill:#817870;}</style>
  </defs>
  <g id="Слой_2" data-name="Слой 2">
    <g id="Слой_1-2" data-name="Слой 1">
      <polygon class="cls-1" points="23.7 16.86 47.33 6.8 43.79 34.01 23.7 48 23.7 16.86"></polygon>
      <polygon class="cls-2" points="23.7 0 47.33 6.8 23.7 16.86 0 6.8 23.7 0"></polygon>
      <polygon class="cls-3" points="23.7 16.86 0 6.8 3.54 34.01 9.8 38.36 9.67 38.26 9.8 38.36 23.7 48 23.7 16.86"></polygon>
      <path class="cls-4" d="M23.14,47.17c.58-.76,1.08-1.57,1.6-2.38s1-1.61,1.46-2.45a32,32,0,0,0,2.41-5.17A13.71,13.71,0,0,1,27.86,40a23.2,23.2,0,0,1-1.24,2.62A25.76,25.76,0,0,1,25,45,13.56,13.56,0,0,1,23.14,47.17Z"></path>
      <path class="cls-5" d="M14.89,7.14a10.61,10.61,0,0,1,2.43-2.2,13.55,13.55,0,0,1,3-1.45,16.32,16.32,0,0,1,3.22-.67c.55-.07,1.1-.06,1.64-.09s1.09,0,1.63.1c-1.08.09-2.16.17-3.22.36A19.33,19.33,0,0,0,20.44,4a15.66,15.66,0,0,0-2.93,1.3A16.4,16.4,0,0,0,14.89,7.14Z"></path>
      <path class="cls-5" d="M10.86,8.09a2.85,2.85,0,0,0,.93.19c.32,0,.64,0,1,0a13.83,13.83,0,0,0,1.92-.17C16,8,17.21,7.64,18.5,7.36a11.25,11.25,0,0,1-3.75,1.27,10.4,10.4,0,0,1-2,.06A3.7,3.7,0,0,1,10.86,8.09Z"></path>
      <path class="cls-4" d="M28,27.33a20.51,20.51,0,0,1-.25-2.07,10.53,10.53,0,0,1,.12-2.1,6.91,6.91,0,0,1,1.9-3.76,8.19,8.19,0,0,1,3.73-1.95,20.92,20.92,0,0,1,2.08-.33c.7,0,1.39,0,2.08,0-.69.09-1.38.14-2.06.22s-1.35.24-2,.45a8.33,8.33,0,0,0-3.49,1.93,6.71,6.71,0,0,0-1.87,3.49A15.54,15.54,0,0,0,28,27.33Z"></path>
      <path class="cls-4" d="M36.06,20.89c1.17-1.62,2.38-3.2,3.44-4.88A21.79,21.79,0,0,0,41,13.45a8.12,8.12,0,0,0,.93-2.8,6.29,6.29,0,0,1-.59,2.95,16.64,16.64,0,0,1-1.42,2.67,26.66,26.66,0,0,1-1.79,2.43A21.25,21.25,0,0,1,36.06,20.89Z"></path>
      <path class="cls-4" d="M30.58,29.54a4.8,4.8,0,0,0,1.33.56c.46.16.92.3,1.39.42.94.26,1.88.5,2.83.67,1.9.41,3.83.63,5.78.87a21.44,21.44,0,0,1-5.87-.4,23.56,23.56,0,0,1-2.85-.78A8.08,8.08,0,0,1,30.58,29.54Z"></path>
      <path class="cls-4" d="M36.28,33a7.28,7.28,0,0,1-.6-3.94,6.53,6.53,0,0,1,1.74-3.66,9.59,9.59,0,0,1,3.48-2.07c.65-.17,1.3-.35,2-.49s1.33-.16,2-.22c-.65.17-1.29.31-1.94.46s-1.25.39-1.87.6a9.62,9.62,0,0,0-3.26,2.06A6.36,6.36,0,0,0,36,29.09c-.06.32-.07.64-.11,1s0,.65,0,1A7.6,7.6,0,0,0,36.28,33Z"></path>
      <path class="cls-4" d="M44.84,20.51a15.13,15.13,0,0,1-.58,2.67,20.48,20.48,0,0,1-1,2.56,16.39,16.39,0,0,1-1.42,2.34,8.92,8.92,0,0,1-2,1.91,16.9,16.9,0,0,0,3-4.46c.4-.8.73-1.64,1.07-2.47S44.54,21.37,44.84,20.51Z"></path>
      <path class="cls-5" d="M29.41,14.42l.47-.19a14.92,14.92,0,0,0-2.15-.79C28.33,13.76,28.89,14.09,29.41,14.42Z"></path>
      <path class="cls-4" d="M29.24,14.82c-.34.83-.61,1.52-1,2.32a17.12,17.12,0,0,1-2.95,4.46,8.83,8.83,0,0,0,2-1.9,16.2,16.2,0,0,0,1.43-2.35,22.14,22.14,0,0,0,1.07-2.52c.05-.17.11-.43.15-.6l-.47.19Z"></path>
      <path class="cls-6" d="M2.7,27.81a7.63,7.63,0,0,1,2.16-1.75A13.93,13.93,0,0,1,7.44,25a16,16,0,0,1,2.75-.5c.46,0,.93,0,1.39-.06s.93,0,1.39.07c-.92.12-1.83.2-2.73.36a18.3,18.3,0,0,0-2.66.6A16.21,16.21,0,0,0,5,26.39,11.62,11.62,0,0,0,2.7,27.81Z"></path>
      <path class="cls-6" d="M4.15,24c.95-.56,1.86-1.17,2.77-1.79S8.75,21,9.63,20.35s1.78-1.28,2.65-2a13.08,13.08,0,0,0,2.4-2.24,9,9,0,0,1-2.16,2.52c-.83.74-1.72,1.4-2.61,2.06S8.08,22,7.12,22.55A18.28,18.28,0,0,1,4.15,24Z"></path>
      <path class="cls-6" d="M4,32.77a2.72,2.72,0,0,1,1.1-2.54,5.08,5.08,0,0,1,2.77-.81,12.05,12.05,0,0,1,2.82.38,17.41,17.41,0,0,1,2.66.92c-.93-.17-1.82-.42-2.74-.56a14.08,14.08,0,0,0-2.73-.25,4.92,4.92,0,0,0-2.57.62A2.89,2.89,0,0,0,4,32.77Z"></path>
      <path class="cls-6" d="M.94,11.38a2.81,2.81,0,0,0,1,1.2,6.53,6.53,0,0,0,1.39.78,15.39,15.39,0,0,0,3.09.87,31,31,0,0,0,3.21.46c1.07.12,2.16.17,3.25.29a25.62,25.62,0,0,1-3.28.08,24.17,24.17,0,0,1-3.28-.35,13.64,13.64,0,0,1-3.15-1A4,4,0,0,1,.94,11.38Z"></path>
      <path class="cls-6" d="M17.5,43.53a5,5,0,0,1-2.64-2.47,2.2,2.2,0,0,1,.16-1.9,4.43,4.43,0,0,1,1.27-1.38,13,13,0,0,1,3.28-1.62,23.6,23.6,0,0,1,3.49-.92c-1.13.42-2.26.8-3.36,1.26a14.36,14.36,0,0,0-3.12,1.67,4.12,4.12,0,0,0-1.18,1.21A2,2,0,0,0,15.21,41a3.55,3.55,0,0,0,.92,1.44A8,8,0,0,0,17.5,43.53Z"></path>
      <path class="cls-6" d="M13.5,14.25a2.23,2.23,0,0,0-.17,1.9A5,5,0,0,0,16,18.62a8,8,0,0,1-1.37-1.15A3.46,3.46,0,0,1,13.69,16a1.93,1.93,0,0,1,.19-1.57,4.12,4.12,0,0,1,1.18-1.21l0,0L14.6,13A4.27,4.27,0,0,0,13.5,14.25Z"></path>
      <path class="cls-5" d="M22.43,12.32a32.47,32.47,0,0,0-3.94-.06,11.19,11.19,0,0,0-3.31.52L14.6,13l.51.22a15.5,15.5,0,0,1,3.51-.62C19.87,12.47,21.15,12.41,22.43,12.32Z"></path>
      <path class="cls-6" d="M13.09,36.56a6.7,6.7,0,0,0-1.47.17,3.53,3.53,0,0,0-1.33.72,1.75,1.75,0,0,0-.5.9l.13.09a1.81,1.81,0,0,1,.61-.7,3.53,3.53,0,0,1,1.22-.54,23.7,23.7,0,0,1,2.78-.46A6.31,6.31,0,0,0,13.09,36.56Z"></path>
      <path class="cls-6" d="M12.62,34.4c1-.47,2-.83,2.94-1.26s1.94-.84,2.87-1.34a17.08,17.08,0,0,0,2.67-1.67,7.57,7.57,0,0,0,2.11-2.32,6.13,6.13,0,0,1-1.87,2.61,14.12,14.12,0,0,1-2.68,1.8,25,25,0,0,1-3,1.26C14.68,33.84,13.65,34.12,12.62,34.4Z"></path>
      <path class="cls-4" d="M25.87,42.13c1-.48,2-.84,2.94-1.27s1.94-.84,2.87-1.34a17.08,17.08,0,0,0,2.67-1.67,7.57,7.57,0,0,0,2.11-2.32,6.13,6.13,0,0,1-1.87,2.61A14.66,14.66,0,0,1,31.91,40a26.65,26.65,0,0,1-3,1.25C27.93,41.56,26.9,41.84,25.87,42.13Z"></path>
      <path class="cls-5" d="M27.16,13.89a17.9,17.9,0,0,1,2.24-2.82A18.88,18.88,0,0,1,32.15,8.7,13,13,0,0,1,35.4,7.08,8.26,8.26,0,0,1,39,6.8a10.44,10.44,0,0,0-3.47.63,14.72,14.72,0,0,0-3.1,1.67,21.72,21.72,0,0,0-2.76,2.23C28.79,12.14,28,13,27.16,13.89Z"></path>
      <path class="cls-4" d="M45.89,10.28a4.83,4.83,0,0,0-2.81.49c.47,0,.93-.08,1.39-.08a6.72,6.72,0,0,1,1.35.07,3.94,3.94,0,0,1,1,.24l.05-.43A4.36,4.36,0,0,0,45.89,10.28Z"></path>
      <path class="cls-6" d="M2.7,23.39a10.31,10.31,0,0,1,3.83,1,5.5,5.5,0,0,1,1.63,1.21,2.08,2.08,0,0,1,.53,1.9,2.35,2.35,0,0,0-.8-1.65,6.46,6.46,0,0,0-1.57-1A32,32,0,0,0,2.7,23.39Z"></path>
      <path class="cls-6" d="M12.56,32.1c.6-.82,1.2-1.64,1.77-2.47S15.49,28,16,27.1a19.91,19.91,0,0,0,1.44-2.64,9.64,9.64,0,0,0,.89-2.88,7.13,7.13,0,0,1-.54,3,16.45,16.45,0,0,1-1.38,2.75,25.74,25.74,0,0,1-1.78,2.5A22.08,22.08,0,0,1,12.56,32.1Z"></path>
      <ellipse class="cls-1" cx="24.45" cy="7.28" rx="5.46" ry="2.13"></ellipse>
      <ellipse class="cls-7" cx="24.59" cy="8" rx="4.5" ry="1.76"></ellipse>
    </g>
  </g>
</svg>
