<?xml version="1.0" encoding="UTF-8"?>
<svg xmlns="http://www.w3.org/2000/svg" viewBox="0 0 47.33 48">
  <defs>
    <style>.cls-1{fill:#a5a5a5;}.cls-2{fill:#a29274;}.cls-3{fill:#e3e0c9;}.cls-4{fill:#fcedce;}.cls-5{fill:#bda885;}.cls-6{fill:#d0c5a6;}.cls-7{fill:#8f8267;}.cls-8{fill:#ab967a;opacity:0.25;}.cls-9{fill:#9b8d71;}.cls-10{fill:#7c705b;}.cls-11{fill:#e7e6e3;}.cls-12{fill:#817870;}.cls-13{fill:#6d9633;}</style>
  </defs>
  <g id="Слой_2" data-name="Слой 2">
    <g id="Слой_1-2" data-name="Слой 1">
      <polygon class="cls-1" points="40.88 42.1 40.91 42.05 40.87 42.05 40.88 42.1"></polygon>
      <polygon class="cls-2" points="23.7 16.86 47.33 6.8 43.79 34.01 23.7 48 23.7 16.86"></polygon>
      <polygon class="cls-3" points="23.7 0 47.33 6.8 23.7 16.86 0 6.8 23.7 0"></polygon>
      <polygon class="cls-4" points="23.7 0 0 6.8 0.41 6.98 47.11 6.74 23.7 0"></polygon>
      <polygon class="cls-5" points="3.54 34.01 0 6.8 23.7 16.86 23.7 48 3.54 34.01"></polygon>
      <path class="cls-6" d="M14.89,7.14a10.61,10.61,0,0,1,2.43-2.2,13.55,13.55,0,0,1,3-1.45,16.32,16.32,0,0,1,3.22-.67c.55-.07,1.1-.06,1.64-.09s1.09,0,1.63.1c-1.08.09-2.16.17-3.22.36A19.33,19.33,0,0,0,20.44,4a15.66,15.66,0,0,0-2.93,1.3A16.4,16.4,0,0,0,14.89,7.14Z"></path>
      <polygon class="cls-7" points="23.7 16.86 47.33 6.8 43.79 34.01 23.7 48 23.7 16.86"></polygon>
      <polygon class="cls-8" points="3.54 34.01 0 6.8 23.7 16.86 23.7 48 3.54 34.01"></polygon>
      <polygon class="cls-9" points="23.7 48 3.54 34.01 23.79 26.36 43.79 34.01 23.7 48"></polygon>
      <path class="cls-10" d="M7.83,22.05a7.27,7.27,0,0,1-.61-3.94A6.42,6.42,0,0,1,9,14.46a9.49,9.49,0,0,1,3.47-2.08c.65-.17,1.3-.35,2-.49s1.33-.16,2-.21c-.64.16-1.29.3-1.93.45s-1.26.39-1.88.6a9.77,9.77,0,0,0-3.26,2.06,6.35,6.35,0,0,0-1.72,3.37c-.07.32-.08.64-.12,1s0,.65,0,1A6.82,6.82,0,0,0,7.83,22.05Z"></path>
      <path class="cls-10" d="M29.85,21.68a4.8,4.8,0,0,0,1.33.56c.46.16.92.3,1.39.42.94.26,1.88.5,2.83.67,1.9.41,3.83.63,5.78.87a21.44,21.44,0,0,1-5.87-.4A23.56,23.56,0,0,1,32.46,23,8.08,8.08,0,0,1,29.85,21.68Z"></path>
      <path class="cls-10" d="M17.16,20.26a15.24,15.24,0,0,1-.59,2.66,19.84,19.84,0,0,1-1,2.56,16.2,16.2,0,0,1-1.43,2.35,8.83,8.83,0,0,1-2,1.9,17.12,17.12,0,0,0,3-4.46c.41-.8.74-1.63,1.07-2.47S16.86,21.12,17.16,20.26Z"></path>
      <path class="cls-10" d="M24.49,41.91c1-.48,2-.84,2.93-1.26s1.95-.85,2.88-1.35A17.5,17.5,0,0,0,33,37.64a7.65,7.65,0,0,0,2.1-2.32,6.13,6.13,0,0,1-1.87,2.61,15.13,15.13,0,0,1-2.68,1.8,25.53,25.53,0,0,1-3,1.26C26.55,41.35,25.51,41.62,24.49,41.91Z"></path>
      <path class="cls-10" d="M13.4,38.93a5,5,0,0,1-2.64-2.47,2.23,2.23,0,0,1,.17-1.9,4.43,4.43,0,0,1,1.27-1.38,12.66,12.66,0,0,1,3.27-1.63,25.37,25.37,0,0,1,3.5-.91c-1.13.41-2.26.8-3.37,1.26a14.48,14.48,0,0,0-3.11,1.66,4,4,0,0,0-1.18,1.21,2,2,0,0,0-.2,1.57A3.59,3.59,0,0,0,12,37.78,8,8,0,0,0,13.4,38.93Z"></path>
      <path class="cls-10" d="M35.07,21.13c1.17-1.63,2.39-3.21,3.44-4.89A21.87,21.87,0,0,0,40,13.68a8.33,8.33,0,0,0,.93-2.8,6.42,6.42,0,0,1-.59,2.95,18.41,18.41,0,0,1-1.42,2.67c-.57.84-1.15,1.66-1.79,2.43A23.83,23.83,0,0,1,35.07,21.13Z"></path>
      <polygon class="cls-1" points="22.84 32.28 22.86 32.24 22.82 32.24 22.84 32.28"></polygon>
      <path class="cls-11" d="M25.25,12.26a31,31,0,0,1-1.43,7,8.81,8.81,0,0,0-.67,3.46,7.29,7.29,0,0,0,1,3.39A7.37,7.37,0,0,1,23,22.78a9,9,0,0,1,.54-3.56,30.16,30.16,0,0,0,1.12-7,.3.3,0,0,1,.32-.27.29.29,0,0,1,.27.31Z"></path>
      <path class="cls-11" d="M24.35,17.72A5.67,5.67,0,0,0,25,20.16a8.81,8.81,0,0,1,.55,2.58,8.41,8.41,0,0,0-.72-2.51A5.84,5.84,0,0,1,24,17.7a.18.18,0,0,1,.18-.18.19.19,0,0,1,.18.19Z"></path>
      <polygon class="cls-4" points="0.41 6.98 23.7 16.86 47.33 6.8 47.11 6.74 0.41 6.98"></polygon>
      <ellipse class="cls-2" cx="24.45" cy="7.28" rx="5.46" ry="2.13"></ellipse>
      <ellipse class="cls-12" cx="24.59" cy="8" rx="4.5" ry="1.76"></ellipse>
      <path class="cls-13" d="M25.53,2.2c0,.54.72.81,2,.81a1.84,1.84,0,0,0,1.94-1.54c0-.54-.65-.44-1.94-.44S25.53,1.65,25.53,2.2Z"></path>
      <path class="cls-13" d="M20.55.74c0-.5,1.1-.44,2.08-.3a2.68,2.68,0,0,1,2.08,2.08c0,.49-1.05.49-1.91.49C21.49,3,20.55,1.23,20.55.74Z"></path>
      <path class="cls-13" d="M25.88,2.14a.42.42,0,0,0-.19.12.73.73,0,0,0-.16.22,1.94,1.94,0,0,0-.2.54h-.09a2.16,2.16,0,0,1,.14-.61,1.08,1.08,0,0,1,.15-.28.59.59,0,0,1,.3-.22Z"></path>
      <path class="cls-13" d="M24.3,2.47a.84.84,0,0,1,.64,0,.77.77,0,0,1,.38.52.05.05,0,0,1-.05.07.06.06,0,0,1-.07,0h0a.66.66,0,0,0-.31-.46.83.83,0,0,0-.56,0,0,0,0,0,1-.06,0S24.28,2.48,24.3,2.47Z"></path>
      <path class="cls-13" d="M25.26,2.61A14.22,14.22,0,0,1,24.88,9a.35.35,0,0,1-.43.24.35.35,0,0,1-.23-.43v0a13.71,13.71,0,0,0,.93-6.17,0,0,0,0,1,.05-.05S25.26,2.58,25.26,2.61Z"></path>
    </g>
  </g>
</svg>
