<?xml version="1.0" encoding="UTF-8"?>
<svg xmlns="http://www.w3.org/2000/svg" viewBox="0 0 47.33 55.61">
  <defs>
    <style>.cls-1{fill:#a5a5a5;}.cls-2{fill:#a29274;}.cls-3{fill:#e3e0c9;}.cls-4{fill:#fcedce;}.cls-5{fill:#bda885;}.cls-6{fill:#d0c5a6;}.cls-7{fill:#8f8267;}.cls-8{fill:#ab967a;opacity:0.25;}.cls-9{fill:#9b8d71;}.cls-10{fill:#7c705b;}.cls-11{fill:#e7e6e3;}.cls-12{fill:#817870;}.cls-13{fill:#acd03d;}.cls-14{fill:#486f3a;}.cls-15{fill:#7fb843;}.cls-16{fill:none;stroke:#acd03d;stroke-miterlimit:10;stroke-width:0.31px;}.cls-17{fill:#6d9633;}</style>
  </defs>
  <g id="Слой_2" data-name="Слой 2">
    <g id="Слой_1-2" data-name="Слой 1">
      <polygon class="cls-1" points="40.88 49.7 40.91 49.66 40.87 49.66 40.88 49.7"></polygon>
      <polygon class="cls-2" points="23.7 24.47 47.33 14.41 43.79 41.62 23.7 55.61 23.7 24.47"></polygon>
      <polygon class="cls-3" points="23.7 7.61 47.33 14.41 23.7 24.47 0 14.41 23.7 7.61"></polygon>
      <polygon class="cls-4" points="23.7 7.61 0 14.41 0.41 14.58 47.11 14.34 23.7 7.61"></polygon>
      <polygon class="cls-5" points="3.54 41.62 0 14.41 23.7 24.47 23.7 55.61 3.54 41.62"></polygon>
      <path class="cls-6" d="M14.89,14.74a10.84,10.84,0,0,1,2.43-2.2,14,14,0,0,1,3-1.44,17.1,17.1,0,0,1,3.22-.68c.55-.06,1.1-.05,1.64-.08s1.09.05,1.63.09c-1.08.1-2.16.18-3.22.36a19.36,19.36,0,0,0-3.11.77,15.66,15.66,0,0,0-2.93,1.3A16.34,16.34,0,0,0,14.89,14.74Z"></path>
      <polygon class="cls-7" points="23.7 24.47 47.33 14.41 43.79 41.62 23.7 55.61 23.7 24.47"></polygon>
      <polygon class="cls-8" points="3.54 41.62 0 14.41 23.7 24.47 23.7 55.61 3.54 41.62"></polygon>
      <polygon class="cls-9" points="23.7 55.61 3.54 41.62 23.79 33.97 43.79 41.62 23.7 55.61"></polygon>
      <path class="cls-10" d="M7.83,29.65a7.26,7.26,0,0,1-.61-3.94A6.45,6.45,0,0,1,9,22.06,9.33,9.33,0,0,1,12.44,20c.65-.18,1.3-.35,2-.49s1.33-.16,2-.22c-.64.17-1.29.3-1.93.45s-1.26.4-1.88.61A9.62,9.62,0,0,0,9.31,22.4a6.31,6.31,0,0,0-1.72,3.37c-.07.31-.08.64-.12,1s0,.66,0,1A6.76,6.76,0,0,0,7.83,29.65Z"></path>
      <path class="cls-10" d="M29.85,29.28a4.53,4.53,0,0,0,1.33.57c.46.15.92.29,1.39.42.94.25,1.88.49,2.83.67,1.9.41,3.83.63,5.78.86a21.83,21.83,0,0,1-5.87-.39,25.59,25.59,0,0,1-2.85-.79A8.08,8.08,0,0,1,29.85,29.28Z"></path>
      <path class="cls-10" d="M17.16,27.86a15.35,15.35,0,0,1-.59,2.67,19.71,19.71,0,0,1-1,2.55,15.19,15.19,0,0,1-1.43,2.35,9.1,9.1,0,0,1-2,1.91,17,17,0,0,0,3-4.47c.41-.8.74-1.63,1.07-2.46S16.86,28.72,17.16,27.86Z"></path>
      <path class="cls-10" d="M24.49,49.52c1-.48,2-.84,2.93-1.27s1.95-.84,2.88-1.34A17.56,17.56,0,0,0,33,45.24a7.54,7.54,0,0,0,2.1-2.32,6.07,6.07,0,0,1-1.87,2.61,14.66,14.66,0,0,1-2.68,1.81,29.54,29.54,0,0,1-3,1.26C26.55,49,25.51,49.23,24.49,49.52Z"></path>
      <path class="cls-10" d="M13.4,46.53a5,5,0,0,1-2.64-2.46,2.23,2.23,0,0,1,.17-1.9,4.46,4.46,0,0,1,1.27-1.39,13,13,0,0,1,3.27-1.62,25.41,25.41,0,0,1,3.5-.92c-1.13.42-2.26.81-3.37,1.27a14.06,14.06,0,0,0-3.11,1.66,4,4,0,0,0-1.18,1.21,2,2,0,0,0-.2,1.57A3.66,3.66,0,0,0,12,45.39,8.38,8.38,0,0,0,13.4,46.53Z"></path>
      <path class="cls-10" d="M35.07,28.73c1.17-1.62,2.39-3.2,3.44-4.88A22,22,0,0,0,40,21.28a8.33,8.33,0,0,0,.93-2.8,6.44,6.44,0,0,1-.59,3,18.94,18.94,0,0,1-1.42,2.67c-.57.83-1.15,1.66-1.79,2.43A25.06,25.06,0,0,1,35.07,28.73Z"></path>
      <polygon class="cls-1" points="22.84 39.88 22.86 39.84 22.82 39.84 22.84 39.88"></polygon>
      <path class="cls-11" d="M24.7,19.09A18.74,18.74,0,0,0,23.34,24a11.06,11.06,0,0,0,.52,5,8.2,8.2,0,0,0,1.22,2.23,17.34,17.34,0,0,0,1.77,1.87,10.53,10.53,0,0,1,1.7,2,4.28,4.28,0,0,1,.73,2.44,4.27,4.27,0,0,0-.78-2.41,10.4,10.4,0,0,0-1.72-1.91A17.57,17.57,0,0,1,25,31.38a8.59,8.59,0,0,1-1.29-2.26A11.11,11.11,0,0,1,23,24a19,19,0,0,1,1.28-5,.2.2,0,1,1,.38.14Z"></path>
      <path class="cls-11" d="M26.34,32.66a10.88,10.88,0,0,1,.37,2.6,9,9,0,0,1-.27,2.59,9.05,9.05,0,0,0,.21-2.59,10,10,0,0,0-.43-2.56.06.06,0,1,1,.12,0Z"></path>
      <path class="cls-11" d="M24,21a17,17,0,0,0,4.75,9.31A17.29,17.29,0,0,1,23.66,21a.15.15,0,0,1,.13-.17A.16.16,0,0,1,24,21Z"></path>
      <path class="cls-11" d="M25.7,26.16a5.56,5.56,0,0,1,.09,1.28,5.19,5.19,0,0,0,.1,1.25,10.28,10.28,0,0,1,.28,2.53,13.31,13.31,0,0,0-.41-2.5,24.52,24.52,0,0,1-.15-2.54s0-.05,0-.05A0,0,0,0,1,25.7,26.16Z"></path>
      <polygon class="cls-4" points="0.41 14.58 23.7 24.47 47.33 14.41 47.11 14.34 0.41 14.58"></polygon>
      <ellipse class="cls-2" cx="24.45" cy="14.88" rx="5.46" ry="2.13"></ellipse>
      <ellipse class="cls-12" cx="24.59" cy="15.6" rx="4.5" ry="1.76"></ellipse>
      <path class="cls-13" d="M21.88,4.62A2.27,2.27,0,0,0,18.72,5l.57.26s-.77.21-.88.67l.67.42s-.87,1-.36,1.08l.52.11s-.1.67.15.72a1.7,1.7,0,0,0,.76-.21s.43.42.43.57.68-.31.68-.62.88,0,.88,0,.15-.83,0-1,.51,0,.51,0S22.91,5.29,21.88,4.62Z"></path>
      <path class="cls-14" d="M19.72,7.59a7.36,7.36,0,0,1,1-1.86,3,3,0,0,1,1.67-1.24h0a3.54,3.54,0,0,0-1.62,1.27,7.73,7.73,0,0,0-1,1.82Z"></path>
      <path class="cls-14" d="M21.44,5.09a3,3,0,0,0-1.29-.27,3,3,0,0,1,1.31.24Z"></path>
      <path class="cls-14" d="M22.37,6.42a2.13,2.13,0,0,0-.93-1.33l0,0A2.12,2.12,0,0,1,22.37,6.42Z"></path>
      <path class="cls-14" d="M20.84,5.6a1.47,1.47,0,0,0-.63,0,4.13,4.13,0,0,0-.63.14,3.23,3.23,0,0,1,.63-.16,1.44,1.44,0,0,1,.65,0Z"></path>
      <path class="cls-14" d="M21.7,7.24a2.63,2.63,0,0,0-.87-1.64l0,0A2.71,2.71,0,0,1,21.7,7.24Z"></path>
      <path class="cls-14" d="M20.5,6a1.06,1.06,0,0,0-.92.52A1,1,0,0,1,20.51,6Z"></path>
      <path class="cls-14" d="M20.79,7.24A2.31,2.31,0,0,0,20.49,6h0A2.24,2.24,0,0,1,20.79,7.24Z"></path>
      <path class="cls-13" d="M25.9,5.36a1.15,1.15,0,0,0-.76,1.11l.29-.14a1.84,1.84,0,0,0,.19,1.07l.28-.21a2.54,2.54,0,0,0,.36.75l.28-.27s.62.12.6.33c0,0,.21-.37.15-.5s.76.27.76.27S28,7,27.82,6.9s.46-.33.46-.33-.19-.49-.46-.57.23-.4.38-.29a1.19,1.19,0,0,0-.79-.34c-.39.07,0-.25.19-.16A2.06,2.06,0,0,0,25.9,5.36Z"></path>
      <path class="cls-14" d="M26.33,5.65a1.43,1.43,0,0,0-.5.89,1.52,1.52,0,0,1,.47-.92Z"></path>
      <path class="cls-14" d="M27.43,6.94a13.11,13.11,0,0,0-1.36-1.62A7.27,7.27,0,0,1,27.43,6.94Z"></path>
      <path class="cls-14" d="M26.31,5.62a1.6,1.6,0,0,1,1.25,0,1.59,1.59,0,0,0-1.23,0Z"></path>
      <path class="cls-14" d="M26.79,6.05a1.47,1.47,0,0,1,1.09.29,1.44,1.44,0,0,0-1.08-.25Z"></path>
      <path class="cls-14" d="M26.38,7.22a1.45,1.45,0,0,1,.4-1.17l0,0A1.44,1.44,0,0,0,26.38,7.22Z"></path>
      <path class="cls-15" d="M24.38,5.29s.43,2.31-.22,2.39-.14-.93-.14-1A7.26,7.26,0,0,0,24.38,5.29Z"></path>
      <path class="cls-16" d="M24.09,7.36l.26,4a15.69,15.69,0,0,1-.2,4.84"></path>
      <path class="cls-13" d="M26.18,5.41A2.1,2.1,0,0,0,25,4.57a.71.71,0,0,0-.78.37,1.9,1.9,0,0,0-.16,1c0,.1.16.1.15,0a1.63,1.63,0,0,1,.2-1.06.48.48,0,0,1,.38-.21c.52,0,1,.44,1.25.8.06.07.17,0,.11-.11Z"></path>
      <path class="cls-13" d="M24.48,3.2a1.53,1.53,0,0,0-.52,1,2.7,2.7,0,0,0,.1,1.57c0,.1.17,0,.13-.07a2.56,2.56,0,0,1-.08-1.45,1.4,1.4,0,0,1,.45-.92c.08-.05,0-.19-.08-.13Z"></path>
      <path class="cls-13" d="M21.89,4.78a1.34,1.34,0,0,1,.88-.13,1.59,1.59,0,0,1,.84.36A1.66,1.66,0,0,1,24,6.48c0,.1.15.1.16,0a1.78,1.78,0,0,0-.52-1.63,1.8,1.8,0,0,0-1.85-.21c-.09.05,0,.18.08.14Z"></path>
      <path class="cls-17" d="M23.84,7.56s-.65-1.67,0-2.44c0,0,.53,1.27.57,1.48S24.51,8.16,23.84,7.56Z"></path>
      <path class="cls-13" d="M24.19,3.74s-.72-2.34.75-3.2l.11.4s.35-.87.81-.9V.39s.61-.54,1-.35l-.17.25s.88-.25,1-.13.05.2,0,.38.32,0,.32,0a3.78,3.78,0,0,1-.32.78c-.07,0,.15,0,.32,0,0,0-.26,1-.42,1.09s.29,0,.29,0a2.38,2.38,0,0,1-.64.77s.59.06.62,0A2.37,2.37,0,0,1,24.19,3.74Z"></path>
      <path class="cls-14" d="M24.27,3.66a4,4,0,0,1,2-1.9l0,0A2.78,2.78,0,0,1,27.18.54a3.06,3.06,0,0,0-.86,1.25v0h0A4.55,4.55,0,0,0,24.27,3.66Z"></path>
      <path class="cls-14" d="M25.31,2.44a2.79,2.79,0,0,1,1-2h0a2,2,0,0,0-.67.93,5.31,5.31,0,0,0-.31,1.12Z"></path>
      <path class="cls-14" d="M24.83,2.83A3.35,3.35,0,0,0,27,2.71a3.29,3.29,0,0,1-2.23.19Z"></path>
      <path class="cls-14" d="M25.5.54A2.11,2.11,0,0,0,25,1.63a4.7,4.7,0,0,0-.11,1.23h-.08a5.13,5.13,0,0,1,.15-1.24A2.17,2.17,0,0,1,25.5.54Z"></path>
      <path class="cls-14" d="M24.39,3.4a4.35,4.35,0,0,0,1.22.34,2.11,2.11,0,0,0,1.24-.17,2.12,2.12,0,0,1-1.24.21,4.49,4.49,0,0,1-1.25-.31Z"></path>
      <path class="cls-14" d="M24.52,1.53a2.47,2.47,0,0,0-.16,1,7.93,7.93,0,0,0,.06,1h-.08a8.18,8.18,0,0,1,0-1A2.48,2.48,0,0,1,24.52,1.53Z"></path>
      <path class="cls-14" d="M25.78,2.08a11.28,11.28,0,0,0,1.75-.34h0a3.66,3.66,0,0,1-.86.24,6.55,6.55,0,0,1-.89.1Z"></path>
      <path class="cls-17" d="M24.65,12.77c0,.28.37.42,1,.42a1,1,0,0,0,1-.8c0-.28-.34-.23-1-.23S24.65,12.48,24.65,12.77Z"></path>
      <path class="cls-17" d="M22.05,12c0-.25.57-.22,1.08-.15a1.4,1.4,0,0,1,1.09,1.09c0,.25-.55.25-1,.25C22.54,13.19,22.05,12.26,22.05,12Z"></path>
      <path class="cls-17" d="M24.82,12.67s-.22,0-.3.52"></path>
      <path class="cls-17" d="M24,12.93s.23-.14.33.26"></path>
    </g>
  </g>
</svg>
