<?xml version="1.0" encoding="UTF-8"?>
<svg xmlns="http://www.w3.org/2000/svg" viewBox="0 0 80.02 216.9">
  <defs>
    <style>.cls-1{fill:#a0cae7;}.cls-2{fill:#d0e6f5;}.cls-3{fill:#b8d8ee;}.cls-4{fill:#a29274;}.cls-5{fill:#e3e0c9;}.cls-6{fill:#bda885;}.cls-7{fill:#7c705b;}.cls-8{fill:#d0c5a6;}.cls-9{fill:#a29277;}.cls-10{fill:#817870;}.cls-11{fill:#7db868;}.cls-12{fill:#aee28c;}</style>
  </defs>
  <g id="Слой_2" data-name="Слой 2">
    <g id="Слой_1-2" data-name="Слой 1">
      <path class="cls-1" d="M25.52,41.32s-9.85,10-5,15.32,12.13.47,9.43-6.65C27.49,43.61,25.52,41.32,25.52,41.32Z"></path>
      <path class="cls-2" d="M22.27,50.66c.34-1,1.1-3.37,1.41-4.22A22.39,22.39,0,0,1,25,43.69s.94-1.81-1.45.78-3.89,7.37-3.16,7.64S21.93,51.66,22.27,50.66Z"></path>
      <path class="cls-3" d="M27.77,54.1c-.29,1-.15,1.87.3,2a1.77,1.77,0,0,0,1.79-1.33,1.81,1.81,0,0,0-.74-2.19C28.65,52.48,28.06,53.12,27.77,54.1Z"></path>
      <path class="cls-1" d="M41.94,41.32s-9.85,10-5,15.32,12.13.47,9.42-6.65C43.92,43.61,41.94,41.32,41.94,41.32Z"></path>
      <path class="cls-2" d="M38.69,50.66c.34-1,1.11-3.37,1.41-4.22a21.87,21.87,0,0,1,1.34-2.75s.94-1.81-1.46.78-3.88,7.37-3.16,7.64S38.36,51.66,38.69,50.66Z"></path>
      <path class="cls-3" d="M44.19,54.1c-.29,1-.15,1.87.31,2a1.77,1.77,0,0,0,1.79-1.33,1.82,1.82,0,0,0-.75-2.19C45.08,52.48,44.48,53.12,44.19,54.1Z"></path>
      <path class="cls-1" d="M58.37,41.32s-9.85,10-5,15.32,12.13.47,9.43-6.65C60.34,43.61,58.37,41.32,58.37,41.32Z"></path>
      <path class="cls-2" d="M55.12,50.66c.34-1,1.1-3.37,1.41-4.22a22.39,22.39,0,0,1,1.33-2.75s.94-1.81-1.45.78-3.89,7.37-3.16,7.64S54.78,51.66,55.12,50.66Z"></path>
      <path class="cls-3" d="M60.62,54.1c-.29,1-.15,1.87.3,2a1.77,1.77,0,0,0,1.79-1.33A1.81,1.81,0,0,0,62,52.58C61.5,52.48,60.91,53.12,60.62,54.1Z"></path>
      <path class="cls-1" d="M35.59,19.48s-9.85,10-5,15.33,12.14.46,9.43-6.65C37.57,21.78,35.59,19.48,35.59,19.48Z"></path>
      <path class="cls-2" d="M32.34,28.82c.34-1,1.11-3.37,1.41-4.22a22.39,22.39,0,0,1,1.33-2.75s1-1.8-1.45.79S29.75,30,30.47,30.28,32,29.83,32.34,28.82Z"></path>
      <path class="cls-3" d="M37.84,32.26c-.29,1-.15,1.87.31,2a1.77,1.77,0,0,0,1.79-1.33,1.82,1.82,0,0,0-.75-2.19C38.73,30.65,38.13,31.29,37.84,32.26Z"></path>
      <path class="cls-1" d="M52,19.48s-9.85,10-5,15.33,12.13.46,9.43-6.65C54,21.78,52,19.48,52,19.48Z"></path>
      <path class="cls-2" d="M48.76,28.82c.34-1,1.11-3.37,1.41-4.22a23.46,23.46,0,0,1,1.34-2.75s.94-1.8-1.45.79S46.17,30,46.9,30.28,48.43,29.83,48.76,28.82Z"></path>
      <path class="cls-3" d="M54.27,32.26c-.29,1-.15,1.87.3,2a1.77,1.77,0,0,0,1.79-1.33c.29-1.15-.28-2.09-.74-2.19S54.55,31.29,54.27,32.26Z"></path>
      <path class="cls-1" d="M44.67,0s-9.85,10-5,15.32,12.13.47,9.43-6.64C46.64,2.3,44.67,0,44.67,0Z"></path>
      <path class="cls-2" d="M41.42,9.34c.34-1,1.1-3.37,1.41-4.22a22.39,22.39,0,0,1,1.33-2.75s.94-1.81-1.45.79-3.89,7.36-3.16,7.64S41.08,10.35,41.42,9.34Z"></path>
      <path class="cls-3" d="M46.92,12.78c-.29,1-.15,1.87.3,2A1.78,1.78,0,0,0,49,13.46a1.82,1.82,0,0,0-.74-2.2C47.8,11.16,47.21,11.81,46.92,12.78Z"></path>
      <polygon class="cls-4" points="40.07 164.25 80.02 147.25 74.03 193.25 40.07 216.9 40.07 164.25"></polygon>
      <polygon class="cls-5" points="40.07 135.74 80.02 147.25 40.07 164.25 0 147.25 40.07 135.74"></polygon>
      <polygon class="cls-6" points="40.07 164.25 0 147.24 5.99 193.25 16.57 200.59 16.35 200.43 16.57 200.59 40.07 216.9 40.07 164.25"></polygon>
      <path class="cls-7" d="M39.12,215.49c.48-.65.91-1.34,1.33-2s.86-1.37,1.28-2.05c.83-1.38,1.66-2.75,2.45-4.15s1.52-2.81,2.24-4.25,1.34-2.91,1.94-4.43a21.28,21.28,0,0,1-1.15,4.77,34,34,0,0,1-2.08,4.45,37,37,0,0,1-2.7,4.09A21.31,21.31,0,0,1,39.12,215.49Z"></path>
      <path class="cls-8" d="M25.18,147.81A21.22,21.22,0,0,1,27,145.74,16.8,16.8,0,0,1,29.22,144a21.49,21.49,0,0,1,5-2.47,24.59,24.59,0,0,1,5.48-1.12c.92-.11,1.86-.08,2.78-.1s1.85.12,2.77.23c-.92.13-1.84.18-2.74.31s-1.81.23-2.7.41-1.78.31-2.64.57a25.72,25.72,0,0,0-2.6.74,29.5,29.5,0,0,0-4.92,2.16A30.39,30.39,0,0,0,25.18,147.81Z"></path>
      <path class="cls-8" d="M18.36,149.43a10.74,10.74,0,0,0,3.21.26,31.6,31.6,0,0,0,3.22-.31c2.15-.3,4.27-.81,6.49-1.2A16.68,16.68,0,0,1,25,150.47a13.42,13.42,0,0,1-3.41.07,8.88,8.88,0,0,1-1.69-.34A3.65,3.65,0,0,1,18.36,149.43Z"></path>
      <path class="cls-7" d="M47.28,181.94c-.18-1.15-.41-2.31-.49-3.5a15.29,15.29,0,0,1,.16-3.57,11.4,11.4,0,0,1,3.22-6.44,13.18,13.18,0,0,1,6.39-3.32,21.53,21.53,0,0,1,7.06-.39,33.67,33.67,0,0,0-6.84,1.22,13.94,13.94,0,0,0-5.84,3.27A11.59,11.59,0,0,0,47.79,175,28.28,28.28,0,0,0,47.28,181.94Z"></path>
      <path class="cls-7" d="M61,171.07c1.91-2.81,3.89-5.52,5.69-8.33a45.77,45.77,0,0,0,2.53-4.31,14.78,14.78,0,0,0,1.68-4.69,10.42,10.42,0,0,1-.9,5,26.24,26.24,0,0,1-2.38,4.55A38.3,38.3,0,0,1,61,171.07Z"></path>
      <path class="cls-7" d="M51.7,185.68a8.66,8.66,0,0,0,2.27.89c.78.24,1.57.46,2.36.67,1.59.4,3.18.79,4.79,1.1,3.2.66,6.44,1.11,9.74,1.6a33.86,33.86,0,0,1-14.78-1.89,21.33,21.33,0,0,1-2.31-1c-.37-.19-.74-.39-1.1-.61A2.64,2.64,0,0,1,51.7,185.68Z"></path>
      <path class="cls-7" d="M61.34,191.5a12,12,0,0,1-1.14-6.69,10.64,10.64,0,0,1,3-6.26A14.77,14.77,0,0,1,69.1,175,24.07,24.07,0,0,1,75.81,174a41.21,41.21,0,0,0-6.41,1.89A16,16,0,0,0,64,179.32,10.78,10.78,0,0,0,61,184.94a13.62,13.62,0,0,0-.21,3.26A12.82,12.82,0,0,0,61.34,191.5Z"></path>
      <path class="cls-7" d="M75.81,170.42a26.65,26.65,0,0,1-2.53,8.89,23.21,23.21,0,0,1-2.44,4,14.17,14.17,0,0,1-3.41,3.15,31.22,31.22,0,0,0,2.71-3.64q1.17-1.94,2.15-4c.67-1.36,1.25-2.75,1.84-4.15S75.27,171.87,75.81,170.42Z"></path>
      <path class="cls-8" d="M49.72,160.13l.8-.33a27.16,27.16,0,0,0-3.64-1.34C47.89,159,48.83,159.57,49.72,160.13Z"></path>
      <path class="cls-7" d="M49.43,160.8c-.57,1.41-1,2.57-1.71,3.92a28.86,28.86,0,0,1-5,7.54A14.91,14.91,0,0,0,46,169a26.75,26.75,0,0,0,2.41-4,35.35,35.35,0,0,0,1.81-4.26c.08-.29.18-.73.26-1l-.8.33C49.67,160.26,49.48,160.67,49.43,160.8Z"></path>
      <path class="cls-9" d="M4.56,182.76a12.08,12.08,0,0,1,3.61-3,20.55,20.55,0,0,1,4.37-1.87,23.33,23.33,0,0,1,4.67-.82c.79-.08,1.58-.06,2.36-.07s1.57.1,2.35.2c-.78.15-1.55.22-2.32.34s-1.53.23-2.28.37-1.51.27-2.25.47-1.49.36-2.22.57a32.82,32.82,0,0,0-4.29,1.56A21.9,21.9,0,0,0,4.56,182.76Z"></path>
      <path class="cls-9" d="M7,176.37c1.59-1,3.09-2.08,4.63-3.13s3-2.11,4.55-3.2,3-2.17,4.48-3.28c.74-.57,1.47-1.13,2.17-1.73a11.72,11.72,0,0,0,2-2,14.71,14.71,0,0,1-3.58,4.35,51.26,51.26,0,0,1-4.4,3.51c-1.53,1.08-3.1,2.11-4.73,3A29.48,29.48,0,0,1,7,176.37Z"></path>
      <path class="cls-9" d="M6.82,191.15a4.57,4.57,0,0,1,1.79-4.4,8.19,8.19,0,0,1,4.74-1.4,18.27,18.27,0,0,1,4.79.66,26.17,26.17,0,0,1,4.48,1.66c-1.58-.24-3.11-.6-4.65-.82a22.78,22.78,0,0,0-2.31-.29,17.66,17.66,0,0,0-2.29-.12,8.8,8.8,0,0,0-4.27,1A4.86,4.86,0,0,0,6.82,191.15Z"></path>
      <path class="cls-9" d="M1.59,155a4.8,4.8,0,0,0,1.79,2,12.44,12.44,0,0,0,2.36,1.26,29.91,29.91,0,0,0,5.2,1.45c1.79.34,3.59.59,5.41.79s3.65.37,5.49.61a39.52,39.52,0,0,1-5.55.25,34.83,34.83,0,0,1-5.56-.57A21.77,21.77,0,0,1,5.38,159,10.75,10.75,0,0,1,3,157.38,4.56,4.56,0,0,1,1.59,155Z"></path>
      <path class="cls-9" d="M29.58,209.33a11,11,0,0,1-2.64-1.59A6.31,6.31,0,0,1,25,205.2a4,4,0,0,1,.25-3.32,7.86,7.86,0,0,1,2.2-2.38A20.53,20.53,0,0,1,33,196.76a37.11,37.11,0,0,1,6-1.44c-1.9.75-3.79,1.46-5.65,2.24a26.45,26.45,0,0,0-5.22,2.82c-1.56,1.09-2.87,2.75-2.3,4.55a6.18,6.18,0,0,0,1.49,2.42A13.9,13.9,0,0,0,29.58,209.33Z"></path>
      <path class="cls-9" d="M22.82,159.84a3.74,3.74,0,0,0-.28,3.21A8.51,8.51,0,0,0,27,167.22a13.5,13.5,0,0,1-2.31-1.94,6,6,0,0,1-1.55-2.43,3.24,3.24,0,0,1,.33-2.65,6.81,6.81,0,0,1,2-2l.09-.06-.86-.37A7.2,7.2,0,0,0,22.82,159.84Z"></path>
      <path class="cls-8" d="M37.92,156.58a55.05,55.05,0,0,0-6.66-.12,19,19,0,0,0-5.59.9l-1,.36.86.37A26.87,26.87,0,0,1,31.49,157C33.59,156.82,35.76,156.72,37.92,156.58Z"></path>
      <path class="cls-9" d="M22.13,197.56a11,11,0,0,0-2.48.28,5.69,5.69,0,0,0-2.25,1.22,3,3,0,0,0-.85,1.51l.22.16a3.16,3.16,0,0,1,1-1.19,6.38,6.38,0,0,1,2.06-.91,44.72,44.72,0,0,1,4.7-.78A10.57,10.57,0,0,0,22.13,197.56Z"></path>
      <path class="cls-9" d="M21.34,193.91c1.61-.85,3.29-1.52,4.92-2.25s3.26-1.46,4.84-2.29a33.32,33.32,0,0,0,4.5-2.77,13.48,13.48,0,0,0,3.64-3.84,10.06,10.06,0,0,1-3.09,4.5,22.26,22.26,0,0,1-4.55,3.09,38.77,38.77,0,0,1-5,2.11C24.86,193.06,23.09,193.46,21.34,193.91Z"></path>
      <path class="cls-7" d="M43.74,207c1.61-.85,3.29-1.52,4.92-2.25s3.26-1.46,4.84-2.28a33.39,33.39,0,0,0,4.5-2.78,13.35,13.35,0,0,0,3.64-3.84,10.06,10.06,0,0,1-3.09,4.5A22.47,22.47,0,0,1,54,203.4a37.55,37.55,0,0,1-5,2.11C47.26,206.11,45.49,206.51,43.74,207Z"></path>
      <path class="cls-8" d="M45.92,159.23a28.1,28.1,0,0,1,3.7-4.86,28.88,28.88,0,0,1,4.65-4,20.72,20.72,0,0,1,5.54-2.73,13.49,13.49,0,0,1,6.11-.37,18.39,18.39,0,0,0-5.83,1.18,26.75,26.75,0,0,0-5.2,2.83A41.49,41.49,0,0,0,50.22,155C48.75,156.34,47.3,157.73,45.92,159.23Z"></path>
      <path class="cls-7" d="M77.58,153.12a8.15,8.15,0,0,0-4.75.84c.8-.08,1.58-.14,2.35-.15a12.42,12.42,0,0,1,2.29.12,7.56,7.56,0,0,1,1.64.4l.08-.71A7.69,7.69,0,0,0,77.58,153.12Z"></path>
      <path class="cls-9" d="M4.56,175.3a13.06,13.06,0,0,1,3.35.39,14.81,14.81,0,0,1,3.2,1.11,8.56,8.56,0,0,1,2.78,2.09,3.44,3.44,0,0,1,.8,3.3,4,4,0,0,0-1.42-2.71,11.65,11.65,0,0,0-2.64-1.69C8.71,176.84,6.64,176.14,4.56,175.3Z"></path>
      <path class="cls-9" d="M21.23,190l2.91-4.25c1-1.41,1.91-2.82,2.79-4.28a40.83,40.83,0,0,0,2.46-4.43,17.41,17.41,0,0,0,1.6-4.82,11.61,11.61,0,0,1-.81,5.14,24.92,24.92,0,0,1-2.31,4.69,37.33,37.33,0,0,1-3,4.22A32.52,32.52,0,0,1,21.23,190Z"></path>
      <ellipse class="cls-4" cx="41.33" cy="148.05" rx="9.23" ry="3.61"></ellipse>
      <ellipse class="cls-10" cx="41.57" cy="149.26" rx="7.61" ry="2.97"></ellipse>
      <path class="cls-11" d="M50,129.39a12,12,0,0,0-3.49-.18,5.09,5.09,0,0,0-3,1.2,3.82,3.82,0,0,0-.93,3c0,.56.13,1.19.22,1.83s.14,1.27.18,1.9a43.75,43.75,0,0,1-.21,7.6c-.12,1.25-.25,2.49-.3,3.72,0,.62,0,1.23,0,1.84,0,.28,0,.67.07.85,0,0,0,0,0,0l-.07-.09c-.14-.2-.54-.08-.52,0a.33.33,0,0,0-.14.19h0a.23.23,0,0,1,0-.07l0-.21,0-.46c.06-2.5-.08-5-.22-7.5,0-1.25,0-2.54,0-3.76a11.79,11.79,0,0,0-.57-3.56,8.66,8.66,0,0,0-1.76-3,8.92,8.92,0,0,0-2.84-2,14.13,14.13,0,0,0-7-1.1h-.06a.86.86,0,1,1-.15-1.72h.07A16.44,16.44,0,0,1,37,129.37a10.23,10.23,0,0,1,3.14,2.44,9.69,9.69,0,0,1,1.87,3.49,13.72,13.72,0,0,1,.53,3.86c0,1.28,0,2.5,0,3.75.11,2.47.22,5,.13,7.55l0,.48,0,.25a1.55,1.55,0,0,1,0,.17v.06a.56.56,0,0,1-.17.24s-.4.15-.54,0a.62.62,0,0,1-.09-.12l0-.1a7,7,0,0,1-.11-1,17.8,17.8,0,0,1,0-1.93c0-1.27.16-2.53.27-3.77a38.46,38.46,0,0,0,.08-7.43c-.07-.61-.14-1.23-.24-1.84s-.22-1.2-.29-1.89a5,5,0,0,1,1.15-4,6.38,6.38,0,0,1,3.74-1.79,14.47,14.47,0,0,1,4,0,.87.87,0,0,1-.2,1.72H50Z"></path>
      <path class="cls-11" d="M48.78,127.77s1.37.51,3.32-2.16,7-7.08,10.23-3c.26.32.93,1.9-.87,3.7s-1.22,3.17-.72,3.82,3,3.47.58,6c-3.39,3.65-8.18-.12-9.66-3.89s-1.44-2.92-4.46-3.38S48.78,127.77,48.78,127.77Z"></path>
      <path class="cls-11" d="M33.35,128.35S31.3,115,23.21,120.57c-.76.52-3.89,3.78-.9,6.69.39.38.48.82-.25,1.67-2.07,2.39-1.43,11,6.26,7.78C32.71,134.86,33.35,128.35,33.35,128.35Z"></path>
      <path class="cls-12" d="M42.5,137.44a.16.16,0,0,1-.32,0v0a7.54,7.54,0,0,0-.23-1.41c-.06-.35-.11-.7-.16-1l-.12-.79A10.55,10.55,0,0,1,42.5,137.44Z"></path>
      <path class="cls-12" d="M43.27,129.7a9.17,9.17,0,0,0-.66.88,2.09,2.09,0,0,0-.24.28l0,0a.16.16,0,0,1-.22,0,.16.16,0,0,1,0-.23h0A4.07,4.07,0,0,1,43.27,129.7Z"></path>
      <path class="cls-12" d="M55.8,128.06,54.08,128c-.64,0-1.12-.06-1.72-.08s-1.1,0-1.72,0H48.72a9.74,9.74,0,0,0-3.92.72,6,6,0,0,0-1.44,1,5.94,5.94,0,0,0-.82,1.05,3.26,3.26,0,0,0-.16.34l0,0a.16.16,0,0,1-.3-.11c0-.05,0,0,0,0a15.51,15.51,0,0,0,.92-1.32,5,5,0,0,1,.39-.36,3.93,3.93,0,0,1,.55-.41,5.06,5.06,0,0,1,.78-.43,10,10,0,0,1,4-.66l1.93,0c.62,0,1.12,0,1.72.08l1.72.12Z"></path>
      <path class="cls-12" d="M42.5,137.44a.16.16,0,0,1-.32,0v0a7.54,7.54,0,0,0-.23-1.41,8.41,8.41,0,0,0-.3-1,9.68,9.68,0,0,0-1.09-2.24,10.09,10.09,0,0,0-3.61-3.38,8.92,8.92,0,0,0-2.34-.87,10.47,10.47,0,0,0-1.25-.19c-.41,0-.84,0-1.26-.12a19,19,0,0,1-4.84-1.47,20,20,0,0,0,4.86,1.34c.42.06.83.06,1.26.09a10.6,10.6,0,0,1,1.26.17,9,9,0,0,1,2.42.84,10.35,10.35,0,0,1,3.75,3.42,11.11,11.11,0,0,1,.86,1.59A10.55,10.55,0,0,1,42.5,137.44Z"></path>
    </g>
  </g>
</svg>
