<?xml version="1.0" encoding="UTF-8"?>
<svg xmlns="http://www.w3.org/2000/svg" viewBox="0 0 47.33 60.03">
  <defs>
    <style>.cls-1{fill:#a29274;}.cls-2{fill:#e3e0c9;}.cls-3{fill:#fcedce;}.cls-4{fill:#bda885;}.cls-5{fill:#d0c5a6;}.cls-6{fill:#8f8267;}.cls-7{fill:#ab967a;opacity:0.25;}.cls-8{fill:#9b8d71;}.cls-9{fill:#7c705b;}.cls-10{fill:#a5a5a5;}.cls-11{fill:#e7e6e3;}.cls-12{fill:#817870;}.cls-13{fill:none;stroke:#7fb843;stroke-miterlimit:10;stroke-width:0.2px;}.cls-14{fill:#92bf3a;}.cls-15{fill:#486f3a;}.cls-16{fill:#6d9633;}</style>
  </defs>
  <g id="Слой_2" data-name="Слой 2">
    <g id="Слой_1-2" data-name="Слой 1">
      <polygon class="cls-1" points="23.7 28.89 47.33 18.83 43.79 46.04 23.7 60.03 23.7 28.89"></polygon>
      <polygon class="cls-2" points="23.7 12.03 47.33 18.83 23.7 28.89 0 18.83 23.7 12.03"></polygon>
      <polygon class="cls-3" points="23.7 12.03 0 18.83 0.41 19.01 47.11 18.77 23.7 12.03"></polygon>
      <polygon class="cls-4" points="3.54 46.04 0 18.83 23.7 28.89 23.7 60.03 3.54 46.04"></polygon>
      <path class="cls-5" d="M14.89,19.17A10.61,10.61,0,0,1,17.32,17a13.55,13.55,0,0,1,3-1.45,16.32,16.32,0,0,1,3.22-.67c.55-.07,1.1-.06,1.64-.09s1.09.05,1.63.1c-1.08.09-2.16.17-3.22.36a19.33,19.33,0,0,0-3.11.76,15.66,15.66,0,0,0-2.93,1.3A16.4,16.4,0,0,0,14.89,19.17Z"></path>
      <path class="cls-5" d="M10.86,20.12a2.85,2.85,0,0,0,.93.19,7.8,7.8,0,0,0,1,0,12.43,12.43,0,0,0,1.92-.16c1.28-.16,2.53-.51,3.82-.79a11.48,11.48,0,0,1-3.75,1.27,10.4,10.4,0,0,1-2,.06A3.7,3.7,0,0,1,10.86,20.12Z"></path>
      <path class="cls-5" d="M27.16,25.92a18.45,18.45,0,0,1,2.24-2.83,19.44,19.44,0,0,1,2.75-2.36,13,13,0,0,1,3.25-1.62A8.26,8.26,0,0,1,39,18.83a10.44,10.44,0,0,0-3.47.63,14.72,14.72,0,0,0-3.1,1.67,21.72,21.72,0,0,0-2.76,2.23C28.79,24.17,28,25,27.16,25.92Z"></path>
      <polygon class="cls-6" points="23.7 28.89 47.33 18.83 43.79 46.04 23.7 60.03 23.7 28.89"></polygon>
      <polygon class="cls-7" points="3.54 46.04 0 18.83 23.7 28.89 23.7 60.03 3.54 46.04"></polygon>
      <polygon class="cls-8" points="23.7 60.03 3.54 46.04 23.79 38.39 43.79 46.04 23.7 60.03"></polygon>
      <path class="cls-9" d="M7.83,34.08a7.27,7.27,0,0,1-.61-3.94A6.42,6.42,0,0,1,9,26.49a9.36,9.36,0,0,1,3.47-2.08c.65-.17,1.3-.35,2-.49s1.33-.16,2-.21c-.64.16-1.29.3-1.93.45s-1.26.39-1.88.6a9.77,9.77,0,0,0-3.26,2.06,6.35,6.35,0,0,0-1.72,3.37c-.07.32-.08.64-.12,1s0,.65,0,1A6.82,6.82,0,0,0,7.83,34.08Z"></path>
      <path class="cls-9" d="M29.85,33.7a4.53,4.53,0,0,0,1.33.57c.46.16.92.3,1.39.42.94.25,1.88.5,2.83.67,1.9.41,3.83.63,5.78.87a21.44,21.44,0,0,1-5.87-.4,23.56,23.56,0,0,1-2.85-.78A7.91,7.91,0,0,1,29.85,33.7Z"></path>
      <path class="cls-9" d="M17.16,32.29A15.24,15.24,0,0,1,16.57,35a19.84,19.84,0,0,1-1,2.56,16.2,16.2,0,0,1-1.43,2.35,8.83,8.83,0,0,1-2,1.9,17.12,17.12,0,0,0,3-4.46c.41-.8.74-1.63,1.07-2.47S16.86,33.15,17.16,32.29Z"></path>
      <path class="cls-9" d="M24.49,53.94c1-.48,2-.84,2.93-1.27s1.95-.84,2.88-1.34A17.5,17.5,0,0,0,33,49.67a7.65,7.65,0,0,0,2.1-2.32A6,6,0,0,1,33.2,50a14.66,14.66,0,0,1-2.68,1.81,25.53,25.53,0,0,1-3,1.26C26.55,53.38,25.51,53.65,24.49,53.94Z"></path>
      <path class="cls-9" d="M13.4,51a5,5,0,0,1-2.64-2.47,2.23,2.23,0,0,1,.17-1.9,4.43,4.43,0,0,1,1.27-1.38,12.66,12.66,0,0,1,3.27-1.63,25.37,25.37,0,0,1,3.5-.91c-1.13.41-2.26.8-3.37,1.26a14.48,14.48,0,0,0-3.11,1.66,4,4,0,0,0-1.18,1.21,2,2,0,0,0-.2,1.57A3.59,3.59,0,0,0,12,49.81,8,8,0,0,0,13.4,51Z"></path>
      <path class="cls-9" d="M35.07,33.16c1.17-1.63,2.39-3.21,3.44-4.89A21.87,21.87,0,0,0,40,25.71a8.33,8.33,0,0,0,.93-2.8,6.42,6.42,0,0,1-.59,2.95,18.41,18.41,0,0,1-1.42,2.67c-.57.84-1.15,1.66-1.79,2.43A23.83,23.83,0,0,1,35.07,33.16Z"></path>
      <polygon class="cls-10" points="22.84 44.31 22.86 44.27 22.82 44.27 22.84 44.31"></polygon>
      <path class="cls-11" d="M24.67,23.22l-.26,4L24,31.13a7.68,7.68,0,0,0,.79,3.8c.59,1.16,1.45,2.26,1.58,3.61A10.28,10.28,0,0,0,24.73,35a7.79,7.79,0,0,1-.89-3.85l.28-4,.16-4v0a.2.2,0,1,1,.39,0Z"></path>
      <path class="cls-11" d="M24.64,23.19c.31,1.57.83,3.13,1.06,4.75a12.6,12.6,0,0,1-.46,4.85A12.08,12.08,0,0,1,23,37.11a9.34,9.34,0,0,0-2.25,4.24A9.44,9.44,0,0,1,23,37.06a11.66,11.66,0,0,0,2.12-4.31A12.43,12.43,0,0,0,25.44,28c-.25-1.59-.78-3.12-1.13-4.72a.17.17,0,1,1,.33-.07Z"></path>
      <path class="cls-11" d="M24.67,23.19c.14,1,.38,2,.5,3a4.25,4.25,0,0,1-.79,2.92,27.13,27.13,0,0,1-1.93,2.31A5.67,5.67,0,0,0,21.06,34a5.76,5.76,0,0,1,1.31-2.68A25.19,25.19,0,0,0,24.2,29a4,4,0,0,0,.66-2.77c-.14-1-.4-1.94-.58-2.94a.19.19,0,0,1,.16-.22.2.2,0,0,1,.23.16Z"></path>
      <path class="cls-11" d="M24.72,23.11c.71.94,1.61,1.75,2.36,2.71A8.85,8.85,0,0,1,27.62,36a8.69,8.69,0,0,0-.76-10c-.75-.92-1.67-1.7-2.44-2.66a.19.19,0,0,1,0-.27.19.19,0,0,1,.26,0Z"></path>
      <path class="cls-11" d="M24.6,23.33a28.42,28.42,0,0,0-2.22,3.37,29.94,29.94,0,0,0-1.88,3.59,13.56,13.56,0,0,0-.62,8,13.68,13.68,0,0,1,.46-8,29,29,0,0,1,1.82-3.66,27.84,27.84,0,0,1,2.19-3.45.16.16,0,1,1,.26.2Z"></path>
      <polygon class="cls-3" points="0.41 19.01 23.7 28.89 47.33 18.83 47.11 18.77 0.41 19.01"></polygon>
      <ellipse class="cls-1" cx="24.45" cy="19.31" rx="5.46" ry="2.13"></ellipse>
      <ellipse class="cls-12" cx="24.59" cy="20.03" rx="4.5" ry="1.76"></ellipse>
      <path class="cls-13" d="M31.72,6.06c-5.15,2.45-7.43,10.13-7.08,14.74"></path>
      <path class="cls-13" d="M29,6a2.07,2.07,0,0,1-.26,2.32"></path>
      <path class="cls-13" d="M30.15,8a1.5,1.5,0,0,0-1.4.26"></path>
      <path class="cls-13" d="M19.53,7.31A10.07,10.07,0,0,1,22.1,8.69,8.6,8.6,0,0,1,24.58,14a32.6,32.6,0,0,1,.06,6.77"></path>
      <path class="cls-13" d="M19.41,9c.61.18,1.39-.57,2-.42a3.91,3.91,0,0,1,1.1.55"></path>
      <path class="cls-13" d="M22,6.26c-.37.87-.83,1.8.5,2.85"></path>
      <path class="cls-14" d="M20.84,6a2.2,2.2,0,0,0,.65,1.71,1.07,1.07,0,0,0,.36.21,1.48,1.48,0,0,0,1.12,0,4.22,4.22,0,0,0,1.54-1h-.44A3.43,3.43,0,0,0,25,5.75s-.46,0-.59,0,.69-.66.73-1a4.11,4.11,0,0,1-.54,0A1.32,1.32,0,0,0,25.13,4a1.92,1.92,0,0,1-.44.09,3.26,3.26,0,0,0,.2-.78s-.27.07-.37.11A1.6,1.6,0,0,0,24.58,3a3.3,3.3,0,0,1-.48.32s-.18-.13-.13-.27-.39.1-.42.43a.29.29,0,0,1-.29-.34s-.68.48-.68.94c0,0-.22,0-.33-.3a2.2,2.2,0,0,0-.39,1.11s-.39,0-.41-.23a2.67,2.67,0,0,0-.22,1.46A.34.34,0,0,1,20.84,6Z"></path>
      <path class="cls-15" d="M24.35,6.05a3.7,3.7,0,0,1-1.13.59,2,2,0,0,1-1.27,0l0-.08A2.78,2.78,0,0,0,24.35,6.05Z"></path>
      <path class="cls-15" d="M21.69,7.37a5.8,5.8,0,0,1,1-2,13.31,13.31,0,0,1,1.43-1.66c-.48.55-.94,1.12-1.36,1.71A7,7,0,0,0,21.69,7.37Z"></path>
      <path class="cls-15" d="M23.8,7.09a2.23,2.23,0,0,1-1,.44,1.86,1.86,0,0,1-1.09-.16h0a2.3,2.3,0,0,0,2.11-.28Z"></path>
      <path class="cls-15" d="M21.17,6.46a3,3,0,0,0,.52.91A1.75,1.75,0,0,1,21.17,6.46Z"></path>
      <path class="cls-15" d="M21.57,5.48a2.65,2.65,0,0,0,.07.63A.67.67,0,0,0,22,6.6l0,.08a.73.73,0,0,1-.34-.56A2.29,2.29,0,0,1,21.57,5.48Z"></path>
      <path class="cls-15" d="M22.53,5.66a1.87,1.87,0,0,0,1.78-.37,1.9,1.9,0,0,1-1.81.45Z"></path>
      <path class="cls-15" d="M22.13,4.54a2.35,2.35,0,0,0,.05.65c.05.2.15.42.35.47l0,.08a.62.62,0,0,1-.36-.54A2.09,2.09,0,0,1,22.13,4.54Z"></path>
      <path class="cls-15" d="M22.87,5.15a3,3,0,0,1,.24-1.47A2.91,2.91,0,0,0,23,5.14Z"></path>
      <path class="cls-15" d="M24.49,4.52a1.2,1.2,0,0,1-.69.54,2.67,2.67,0,0,1-.89.13V5.1A2.58,2.58,0,0,0,23.79,5,1.17,1.17,0,0,0,24.49,4.52Z"></path>
      <path class="cls-15" d="M23.55,4.33a1,1,0,0,0,.92-.43,1.06,1.06,0,0,1-.94.5Z"></path>
      <path class="cls-15" d="M23.56,3.62a.74.74,0,0,0,0,.72l0,0A.77.77,0,0,1,23.56,3.62Z"></path>
      <path class="cls-14" d="M18.08,7.78s1.53.43,2.1-.17a.69.69,0,0,0,.14-.22,3.91,3.91,0,0,0,.36-1.48s-.15.26-.27.29a2.77,2.77,0,0,0-.2-1.7s-.16.35-.33.38a1.79,1.79,0,0,0-.7-1.71s0,.51-.13.55a3.18,3.18,0,0,0-1.14-1.28,2.22,2.22,0,0,1,0,.57,7.87,7.87,0,0,0-.78-.63,2.52,2.52,0,0,1-.3.55s-.49-.21-.54-.22.06.36.06.45l-.46-.06a4.62,4.62,0,0,0,.71,1.47h-.91a15.46,15.46,0,0,0,1.08,1.38S16,6,15.87,6,16.16,7.16,18.08,7.78Z"></path>
      <path class="cls-15" d="M16.72,3.41A13.64,13.64,0,0,0,18.13,5.8a5.76,5.76,0,0,0,2.05,1.81h0a4.67,4.67,0,0,1-2.1-1.78,12.56,12.56,0,0,1-1.37-2.42Z"></path>
      <path class="cls-15" d="M19.34,4.23A3.43,3.43,0,0,1,18.67,6a1.43,1.43,0,0,1-.85.48,1.72,1.72,0,0,1-.95-.15,2,2,0,0,0,.94.1A1.37,1.37,0,0,0,18.6,6,3.7,3.7,0,0,0,19.34,4.23Z"></path>
      <path class="cls-15" d="M20.1,5.34a3.59,3.59,0,0,1-.59,1.51,1.58,1.58,0,0,1-.65.52,1.29,1.29,0,0,1-.8,0,1.38,1.38,0,0,0,.78-.08,1.48,1.48,0,0,0,.6-.51A4.21,4.21,0,0,0,20.1,5.34Z"></path>
      <path class="cls-15" d="M18.45,3.89A2.45,2.45,0,0,1,18,5.3a.76.76,0,0,1-.69.26,1.35,1.35,0,0,1-.66-.31,1.66,1.66,0,0,0,.67.25A.65.65,0,0,0,18,5.24,2.75,2.75,0,0,0,18.45,3.89Z"></path>
      <path class="cls-15" d="M17.3,4.53s.09-.21.11-.32a1.5,1.5,0,0,0,.05-.37,1.42,1.42,0,0,0-.2-.72,1.41,1.41,0,0,1,.24.72,1.7,1.7,0,0,1,0,.39c-.05.13,0,.24-.19.38Z"></path>
      <path class="cls-15" d="M16.29,3.8a1.42,1.42,0,0,0,1,.73v.08A1.4,1.4,0,0,1,16.29,3.8Z"></path>
      <path class="cls-14" d="M21.19,9.85s.47-1.61-1.77-1.64l.14.24a2.77,2.77,0,0,0-1.21,0,2.24,2.24,0,0,1,.36.21s-1.27.31-1.6.81l.59.19a2,2,0,0,0-1,1.24s.3-.11.37-.06-.61.79-.41,1.23c0,0,.23-.26.39-.24,0,0-.15.51-.08.64s.21-.36.34-.35.09.24,0,.36a1.91,1.91,0,0,0,.89-.59s.07.32,0,.44a5.55,5.55,0,0,0,1.19-.78s.08.26,0,.35,1-.37,1-.89c0,0,.13.16.06.28A7.3,7.3,0,0,0,21.19,9.85Z"></path>
      <path class="cls-15" d="M17.06,11.44A12.46,12.46,0,0,1,18.8,9.62,4.91,4.91,0,0,1,19.89,9a10.37,10.37,0,0,1,1.2-.37A9.78,9.78,0,0,0,19.9,9a4.83,4.83,0,0,0-1.06.66A12.87,12.87,0,0,0,17.06,11.44Z"></path>
      <path class="cls-15" d="M19.77,9.08a2.58,2.58,0,0,0-1-.47,2.61,2.61,0,0,1,1,.4Z"></path>
      <path class="cls-15" d="M19.73,11.24a10.68,10.68,0,0,0,.18-1.11,3.49,3.49,0,0,0,0-.56.72.72,0,0,0-.15-.49L19.83,9a.83.83,0,0,1,.16.56,5.09,5.09,0,0,1,0,.56A10.37,10.37,0,0,1,19.73,11.24Z"></path>
      <polygon class="cls-15" points="18.72 9.64 17.9 9.34 18.76 9.56 18.72 9.64"></polygon>
      <path class="cls-15" d="M18.46,11.92a9.55,9.55,0,0,0,.33-1.16,4.09,4.09,0,0,0,.07-.6.73.73,0,0,0-.15-.53l.06-.07a.76.76,0,0,1,.15.61,4.14,4.14,0,0,1-.09.6A9.07,9.07,0,0,1,18.46,11.92Z"></path>
      <path class="cls-15" d="M18.2,10.23a.65.65,0,0,0-.45,0,1.75,1.75,0,0,0-.43.22,1.78,1.78,0,0,1,.42-.27.7.7,0,0,1,.5-.06Z"></path>
      <path class="cls-15" d="M18.15,11.18a2.17,2.17,0,0,0,.13-.5.56.56,0,0,0-.09-.46l.06-.06a.59.59,0,0,1,.07.53A2.19,2.19,0,0,1,18.15,11.18Z"></path>
      <path class="cls-14" d="M28.17,6.64s1.38.78,1.68-.76a12.88,12.88,0,0,0,.34-2.09c0-.12-.17.18-.34.25s-.05-.09-.07-.18A2.71,2.71,0,0,0,29.64,2s-.34.35-.43.31-.15-1-.68-1.46a1.39,1.39,0,0,1-.48.43s-.36-.74-.78-.8a1,1,0,0,1-.2.37s.24-.05-.73-.12a1.61,1.61,0,0,1,0,.55s-.4-.09-.47-.2.08.57.13.68-.47.08-.47.08.26,1.4.84,1.66a2.6,2.6,0,0,1-.62-.13c-.25-.11.46.83.63,1a1.79,1.79,0,0,1-.51.14A2.88,2.88,0,0,0,27.13,5.6a.8.8,0,0,1-.42.17S28,6.55,28.17,6.64Z"></path>
      <path class="cls-15" d="M27,1.53a11.38,11.38,0,0,1,2.35,5.22A10.08,10.08,0,0,0,28.4,4,15.06,15.06,0,0,0,27,1.53Z"></path>
      <path class="cls-15" d="M29,5.43a1.18,1.18,0,0,0,.46-.35,2.93,2.93,0,0,0,.34-.5,2.5,2.5,0,0,1-.3.53,1.17,1.17,0,0,1-.47.41Z"></path>
      <path class="cls-15" d="M26.57,4.86a7.22,7.22,0,0,0,1.19.48A2,2,0,0,0,29,5.43l.05.09a1.28,1.28,0,0,1-.67,0,4.37,4.37,0,0,1-.62-.17A7.34,7.34,0,0,1,26.57,4.86Z"></path>
      <path class="cls-15" d="M28.5,4.16a2.53,2.53,0,0,0,.91-1.28,2.61,2.61,0,0,1-.85,1.36Z"></path>
      <path class="cls-15" d="M26.27,3.81a2.51,2.51,0,0,0,2.24.35l0,.08A2.5,2.5,0,0,1,26.27,3.81Z"></path>
      <path class="cls-15" d="M28,3.1A1.61,1.61,0,0,0,28.4,2a1.68,1.68,0,0,1-.31,1.16Z"></path>
      <path class="cls-15" d="M26.14,2.61a3,3,0,0,0,.91.51,1.16,1.16,0,0,0,1,0l0,.09a1.32,1.32,0,0,1-1,0A3.18,3.18,0,0,1,26.14,2.61Z"></path>
      <path class="cls-15" d="M27.48,2.31a1.11,1.11,0,0,0,.13-.82,1.1,1.1,0,0,1-.05.87Z"></path>
      <path class="cls-15" d="M26.32,1.81c.31.31.76.63,1.18.48l0,.09a.81.81,0,0,1-.68-.12A2.11,2.11,0,0,1,26.32,1.81Z"></path>
      <path class="cls-16" d="M31.21,6.35S30.49,2.45,33.38.9c0,0,.14.79.28.74s.47-1.12.71-1.17c0,0,.21.53.32.55s.34-.61.79-.86c0,0-.13.52.22.62,0,0,0-.56.81-.78,0,0-.37.7.05.74S37.5.33,37.7.36s-.75,1.14-.07,1,1-.55,1.47-.56c0,0-.79.82-.4.84s1-.4,1.14-.37-.78,1.59.71.7C40.55,2,37.56,8.93,31.21,6.35Z"></path>
      <path class="cls-15" d="M32.34,5.37a5.5,5.5,0,0,1,.32-2.64,5.44,5.44,0,0,0-.22,2.62Z"></path>
      <path class="cls-15" d="M33.4,5.65a8.65,8.65,0,0,1,0-2,4.51,4.51,0,0,1,.65-1.85,4.38,4.38,0,0,0-.6,1.86,8.48,8.48,0,0,0,0,1.95Z"></path>
      <path class="cls-15" d="M34.29,5a6.07,6.07,0,0,1,1.09-3.46,6,6,0,0,0-1,3.45Z"></path>
      <path class="cls-15" d="M35.32,5a10,10,0,0,1,1.45-3.82,10.17,10.17,0,0,0-1.36,3.83Z"></path>
      <path class="cls-15" d="M36.67,4.62a14.91,14.91,0,0,0,1-2.42,14.46,14.46,0,0,1-.89,2.46Z"></path>
      <path class="cls-14" d="M31.24,6.5a4.28,4.28,0,0,1,1.94-1.74s0,.69.18.65a8.59,8.59,0,0,1,1.91-1.15,1.71,1.71,0,0,0,0,.62c.08.12.94-.89,1.55-1.08,0,0-.14.7.15.62s.56-.82,1.15-1.06c0,0-.1.74.19.66s.89-1,1.22-1.2c0,0-.18.43,0,.48s.74-.83.74-.83S37.32,8.74,31.24,6.5Z"></path>
      <path class="cls-15" d="M31.72,6.66a6.34,6.34,0,0,0,1.1-1.21,2.67,2.67,0,0,1-.44.7A2.17,2.17,0,0,1,31.72,6.66Z"></path>
      <path class="cls-15" d="M33.19,6.88a4.25,4.25,0,0,0,1.48-1.7,2.09,2.09,0,0,1-.55,1A3.69,3.69,0,0,1,33.19,6.88Z"></path>
      <path class="cls-15" d="M34.29,7a11.15,11.15,0,0,0,1.14-1,3.64,3.64,0,0,0,.88-1.25A2.93,2.93,0,0,1,35.5,6,6.55,6.55,0,0,1,34.29,7Z"></path>
      <path class="cls-15" d="M36.23,6.48a6.32,6.32,0,0,0,1.59-2.27,3.4,3.4,0,0,1-.59,1.28A4.94,4.94,0,0,1,36.23,6.48Z"></path>
      <path class="cls-14" d="M31,7.13s-1.53.73-1.69,2a3.64,3.64,0,0,0,.94,2.47s-.08-.24.3-.55a2.77,2.77,0,0,0,1.53,1.1,2.22,2.22,0,0,1-.24-.62c0-.12.82.65,1.41.5,0,0-.23-.4-.18-.48s.61.38,1.22.34c0,0-.32-.5-.24-.62s.94,0,.94,0a2.69,2.69,0,0,0-.11-.56c-.07-.11.52.08.58.17a6.51,6.51,0,0,0-.6-1.18c-.15-.11.43-.31.5-.19s-.33-.72-.79-.89.26-.17.39-.15-.53-.62-1.39-.71.44-.33.44-.33A3.68,3.68,0,0,0,31,7.13Z"></path>
      <path class="cls-15" d="M30.45,8.12a2.18,2.18,0,0,1,1.18-.64A5,5,0,0,1,33,7.41a4.92,4.92,0,0,0-1.33.12,2.15,2.15,0,0,0-1.12.65Z"></path>
      <path class="cls-15" d="M30.19,10.52a2.6,2.6,0,0,1,.26-2.4l.07.06A2.58,2.58,0,0,0,30.19,10.52Z"></path>
      <path class="cls-15" d="M31.37,8.52A1.69,1.69,0,0,1,32.68,8a5.92,5.92,0,0,1,1.39.21,5.39,5.39,0,0,0-1.39-.16,1.6,1.6,0,0,0-1.24.49Z"></path>
      <path class="cls-15" d="M31.5,11.32a4.74,4.74,0,0,1-.41-1.39,1.82,1.82,0,0,1,.28-1.41l.07.06a1.82,1.82,0,0,0-.3,1.35A4.75,4.75,0,0,0,31.5,11.32Z"></path>
      <path class="cls-15" d="M32.18,9a1.27,1.27,0,0,1,1.07-.28,4.88,4.88,0,0,1,1.08.27,4.41,4.41,0,0,0-1.08-.22,1.16,1.16,0,0,0-1,.3Z"></path>
      <path class="cls-15" d="M32.37,11A4.39,4.39,0,0,1,32,10,1.31,1.31,0,0,1,32.18,9l.08.07a1.22,1.22,0,0,0-.19,1A4.19,4.19,0,0,0,32.37,11Z"></path>
      <path class="cls-15" d="M33.22,9.66a.8.8,0,0,1,.66,0,4.54,4.54,0,0,1,.61.24,3.41,3.41,0,0,0-.62-.19.74.74,0,0,0-.59.05Z"></path>
      <path class="cls-15" d="M33.47,11a3.54,3.54,0,0,1-.3-.62c-.06-.21-.16-.49,0-.7l.06.08c-.16.13-.12.4-.06.6A3.54,3.54,0,0,0,33.47,11Z"></path>
      <path class="cls-15" d="M30,8a15.79,15.79,0,0,1,2.11.91,9.9,9.9,0,0,1,1,.63,6.93,6.93,0,0,1,.84.78A7.7,7.7,0,0,0,33,9.52a8.78,8.78,0,0,0-1-.59A15.09,15.09,0,0,0,30,8Z"></path>
    </g>
  </g>
</svg>
