<?xml version="1.0" encoding="UTF-8"?>
<svg xmlns="http://www.w3.org/2000/svg" xmlns:xlink="http://www.w3.org/1999/xlink" viewBox="0 0 93.67 128.63">
  <defs>
    <style>.cls-1{fill:#8e6848;}.cls-2{fill:url(#Безымянный_градиент_7);}.cls-3{fill:#713e21;}.cls-4{fill:#3d271f;}.cls-5{fill:#69391e;}.cls-6{fill:#6b482f;}.cls-7{fill:#5c3624;}.cls-8{fill:#795135;}.cls-9{fill:#9a734f;}.cls-10{fill:#fff;}.cls-11{fill:#85563a;}.cls-12{fill:#7db868;}.cls-13{fill:none;stroke:#7db868;stroke-linecap:round;stroke-linejoin:round;stroke-width:1.37px;}.cls-14{fill:#9bd674;}.cls-15{fill:#aee28c;}</style>
    <linearGradient id="Безымянный_градиент_7" x1="44.66" y1="161.19" x2="49.05" y2="79.48" gradientUnits="userSpaceOnUse">
      <stop offset="0.38" stop-color="#9b714f"></stop>
      <stop offset="0.91" stop-color="#754427"></stop>
      <stop offset="1" stop-color="#6e3c20"></stop>
    </linearGradient>
  </defs>
  <g id="Слой_2" data-name="Слой 2">
    <g id="Слой_1-2" data-name="Слой 1">
      <path class="cls-1" d="M49.08,72.35s8.18,9.61,14.5,10S91.5,75.92,91.5,75.92l2.17-22.48L49.08,37.71Z"></path>
      <path class="cls-1" d="M0,51.84,4.45,81.17S20.25,83.54,23,82.75s15.41-5.53,19-5.53,7.1-4.87,7.1-4.87V37.71Z"></path>
      <polygon class="cls-2" points="6.57 108.62 49.08 128.63 88.39 108.72 47.52 91.4 6.57 108.62"></polygon>
      <path class="cls-3" d="M6.57,108.62,4.45,81.17S24.6,80.78,30.13,78s19-5.66,19-5.66L47.52,91.4Z"></path>
      <path class="cls-4" d="M35.29,82.88a7.09,7.09,0,0,0-2.41-1.42v0s-3.22-1-5,1.2-1.45,4.5-.66,4.88a10.3,10.3,0,0,0,1.39.29s.05,0,.08,0a24.59,24.59,0,0,0,3-.67,1.74,1.74,0,0,0,.52-.14l.55-.16c1.26-.39,1.41-.11,2.29-.86A3.39,3.39,0,0,0,36,83.77a2,2,0,0,0-.18-.43h0l0,0A.81.81,0,0,0,35.29,82.88Z"></path>
      <path class="cls-4" d="M18,85.71a9.3,9.3,0,0,0-3.42,1.12v0S11,89.1,11.56,92.63s3.11,5.22,4.15,4.77a13.53,13.53,0,0,0,1.46-1.1s0-.08,0-.11c.78-.89,1.35-2.69,1.88-3.45a1.87,1.87,0,0,0,.3-.61c.09-.17.18-.36.32-.67.68-1.54,1.09-1.46,1.1-2.94a4.35,4.35,0,0,0-1.31-2.73,4,4,0,0,0-.56-.19v0h-.06A1.07,1.07,0,0,0,18,85.71Z"></path>
      <path class="cls-5" d="M49.08,72.35,47.52,91.4,88.4,108.72l3.1-32.8s-12.75-1.47-18.28-.68S58.05,78.4,55.15,76.82A38.49,38.49,0,0,1,49.08,72.35Z"></path>
      <path class="cls-4" d="M33.5,91.92a2.86,2.86,0,0,0-1.06-.27h0a1.94,1.94,0,0,0-1.73,1c-.42,1,0,1.85.3,1.91a4.61,4.61,0,0,0,.55,0s0,0,0,0c.34-.11.78-.48,1-.59a.5.5,0,0,0,.18-.11l.19-.12c.43-.29.52-.2.76-.58a1.34,1.34,0,0,0,.1-.92.92.92,0,0,0-.11-.14h0A.3.3,0,0,0,33.5,91.92Z"></path>
      <path class="cls-4" d="M73.56,83.72a2,2,0,0,0-.1-.76h0s-.33-.86-1.08-.88-1.22.43-1.17.67a2.67,2.67,0,0,0,.17.34l0,0a5.78,5.78,0,0,0,.64.53.39.39,0,0,0,.11.09l.13.09c.29.21.26.29.56.35a.92.92,0,0,0,.63-.15l.06-.11h0A.23.23,0,0,0,73.56,83.72Z"></path>
      <path class="cls-4" d="M85,97.48a9.31,9.31,0,0,0-1.62-3.24h0S80.56,90.91,77.12,92,72.37,95.88,73,96.85a12.36,12.36,0,0,0,1.31,1.3s.08,0,.11,0c1,.65,2.88,1,3.72,1.37a1.9,1.9,0,0,0,.65.22l.72.21c1.64.47,1.61.89,3.09.68A4.39,4.39,0,0,0,85.1,99a3.29,3.29,0,0,0,.11-.59h0l0-.06A1.05,1.05,0,0,0,85,97.48Z"></path>
      <path class="cls-4" d="M62.76,86.18a7.18,7.18,0,0,0-1.59,2.29h0s-1.2,3.11.82,5,4.34,1.77,4.78,1a9.21,9.21,0,0,0,.39-1.35s0,0,0-.08a25.49,25.49,0,0,0-.45-3,1.29,1.29,0,0,0-.1-.52,5.33,5.33,0,0,0-.11-.56c-.3-1.28,0-1.41-.69-2.33a3.36,3.36,0,0,0-2.08-1.08,2.11,2.11,0,0,0-.43.14h0l0,0A.78.78,0,0,0,62.76,86.18Z"></path>
      <path class="cls-6" d="M62.91,109.47a1.36,1.36,0,0,0,1.34-.35c.46-.59.36-1.22.14-1.32l-.37-.07c-.25,0-.27.59-.28.6Z"></path>
      <path class="cls-7" d="M62.11,109s.75.67,1.06.47.67-.39.67-.39v-.21s-.67-.32-.82-.27-.42.15-.48.16A3,3,0,0,0,62.11,109Z"></path>
      <path class="cls-8" d="M62.07,108.86c0,.09.1.31.33.23a4.35,4.35,0,0,0,.45-.19s.22-.7.28-.82.12-.16-.22,0-.38,0-.61.25A.86.86,0,0,0,62.07,108.86Z"></path>
      <path class="cls-9" d="M62.85,108.9a5.91,5.91,0,0,0,.11-.59c0-.27,0-.33.24-.37s.71-.28.94-.19.22.07.22.38a1.08,1.08,0,0,1-.33.74.61.61,0,0,1-.64.27A1.44,1.44,0,0,1,62.85,108.9Z"></path>
      <path class="cls-6" d="M53.83,104.26a3,3,0,0,0,2.76-1.42c.72-1.52.21-2.86-.31-3a6.59,6.59,0,0,0-.86,0c-.56,0-.31,1.42-.33,1.45S53.83,104.26,53.83,104.26Z"></path>
      <path class="cls-7" d="M51.83,103.56s2,1.12,2.54.53,1.3-1.2,1.3-1.2l-.13-.44a6.16,6.16,0,0,0-1.93-.21c-.31.17-.85.53-1,.59A7.5,7.5,0,0,0,51.83,103.56Z"></path>
      <path class="cls-8" d="M51.67,103.33a.58.58,0,0,0,.84.34,7.34,7.34,0,0,0,.89-.64s.16-1.64.22-1.94.19-.42-.49,0-.82.27-1.23.84A2.07,2.07,0,0,0,51.67,103.33Z"></path>
      <path class="cls-9" d="M53.4,103a8.69,8.69,0,0,0,0-1.35c-.08-.59-.13-.74.36-.92s1.43-1,2-.87.51,0,.66.71a2.45,2.45,0,0,1-.36,1.79,1.36,1.36,0,0,1-1.28.91A3.59,3.59,0,0,1,53.4,103Z"></path>
      <path class="cls-6" d="M45.35,110.87a3,3,0,0,0,3,.37c1.43-.84,1.74-2.2,1.38-2.57a4.43,4.43,0,0,0-.71-.45c-.47-.28-1,1-1.06,1S45.35,110.87,45.35,110.87Z"></path>
      <path class="cls-7" d="M44.12,109.21s1,2,1.77,1.82a16.6,16.6,0,0,1,1.71-.25l.13-.44s-1.1-1.19-1.45-1.22-1,0-1.12-.07A8.91,8.91,0,0,0,44.12,109.21Z"></path>
      <path class="cls-8" d="M44.12,108.93c0,.2,0,.71.49.74a8.37,8.37,0,0,0,1.08,0s1-1.25,1.24-1.46.38-.23-.4-.27-.81-.24-1.45,0A2,2,0,0,0,44.12,108.93Z"></path>
      <path class="cls-9" d="M45.69,109.65a9.42,9.42,0,0,0,.7-1.12c.26-.52.3-.67.79-.55s1.69,0,2.08.37.38.33.14.94a2.4,2.4,0,0,1-1.26,1.25,1.33,1.33,0,0,1-1.55,0A3.29,3.29,0,0,1,45.69,109.65Z"></path>
      <path class="cls-6" d="M41.7,105.4a2.27,2.27,0,0,0,.08-2.33c-.73-1-1.79-1.18-2.05-.88a4.24,4.24,0,0,0-.29.57c-.19.38.81.73.82.75Z"></path>
      <path class="cls-7" d="M40.52,106.45s1.44-.88,1.27-1.47-.31-1.29-.31-1.29l-.34-.07s-.83.92-.83,1.18,0,.74,0,.86A6.16,6.16,0,0,0,40.52,106.45Z"></path>
      <path class="cls-8" d="M40.31,106.47c.15,0,.54,0,.53-.43a7.87,7.87,0,0,0-.09-.82s-1-.7-1.19-.85-.21-.27-.19.32-.12.63.1,1.11A1.58,1.58,0,0,0,40.31,106.47Z"></path>
      <path class="cls-9" d="M40.75,105.22a6.91,6.91,0,0,0-.9-.46c-.42-.17-.54-.18-.48-.57s-.1-1.28.15-1.61.23-.31.71-.17a1.83,1.83,0,0,1,1,.88,1,1,0,0,1,.12,1.18A2.53,2.53,0,0,1,40.75,105.22Z"></path>
      <path class="cls-6" d="M34.5,107.11a1,1,0,0,0,.33-1c-.17-.52-.59-.72-.74-.63a1.25,1.25,0,0,0-.19.2c-.13.13.24.4.24.41S34.5,107.11,34.5,107.11Z"></path>
      <path class="cls-7" d="M33.87,107.39s.71-.18.72-.45,0-.57,0-.57l-.13-.07s-.46.27-.49.38a3.56,3.56,0,0,0-.1.36A2.6,2.6,0,0,0,33.87,107.39Z"></path>
      <path class="cls-8" d="M33.78,107.37c.07,0,.23.06.28-.11a3.4,3.4,0,0,0,.06-.35s-.33-.42-.38-.5-.05-.14-.12.11-.13.24-.1.47A.71.71,0,0,0,33.78,107.37Z"></path>
      <path class="cls-9" d="M34.12,106.91a3.06,3.06,0,0,0-.31-.3c-.15-.13-.2-.15-.12-.3s.12-.55.27-.65.13-.1.31,0a.84.84,0,0,1,.32.5.44.44,0,0,1-.1.5A1,1,0,0,1,34.12,106.91Z"></path>
      <path class="cls-6" d="M32.29,111.08s1.39-2.24.11-4-3.11-2-3.56-1.5a8.7,8.7,0,0,0-.51,1c-.31.65,1.42,1.24,1.44,1.28S32.29,111.08,32.29,111.08Z"></path>
      <path class="cls-7" d="M30.25,112.91s2.49-1.52,2.18-2.56a22.58,22.58,0,0,1-.54-2.22L31.3,108s-1.43,1.6-1.44,2,.07,1.29.05,1.49A11.15,11.15,0,0,0,30.25,112.91Z"></path>
      <path class="cls-8" d="M29.88,113c.27,0,.94,0,.92-.75a10.49,10.49,0,0,0-.17-1.41s-1.77-1.2-2.07-1.46-.35-.48-.31.56-.21,1.09.18,1.91A2.67,2.67,0,0,0,29.88,113Z"></path>
      <path class="cls-9" d="M30.63,110.79a12.05,12.05,0,0,0-1.56-.79c-.72-.28-.93-.31-.83-1s-.19-2.22.25-2.79.38-.55,1.22-.3a3.13,3.13,0,0,1,1.8,1.52,1.76,1.76,0,0,1,.24,2A4.52,4.52,0,0,1,30.63,110.79Z"></path>
      <path class="cls-10" d="M47.46,66.69l1.82,0c.79,1.33,1.57,2.66,2.37,4a6.7,6.7,0,0,0,3.51,2.91c.38.15.77.26,1.14.41a.25.25,0,0,1,.1.21c-.08.1-.21.26-.3.25a7,7,0,0,1-5.16-3.33c-.43-.66-.6-1.5-1.35-2a9.93,9.93,0,0,0,.27,5.55q1.55,4.77,3.07,9.56a4.91,4.91,0,0,1,.2.94c0,.09-.16.21-.27.28s-.17,0-.2-.1c-.14-.29-.26-.58-.38-.88A25.79,25.79,0,0,0,50,79.63c-.22.63-.39,1-.5,1.46-.59,2.2-1.14,4.42-1.75,6.62a5.1,5.1,0,0,1-.65,1.07,3,3,0,0,1,.13-2.52,28.45,28.45,0,0,0,1.25-6.73,12.8,12.8,0,0,0-.34-4.13A16.24,16.24,0,0,1,47.76,73c-.82.06-1.15.71-1.61,1.12s-.86,1-1.33,1.43c-.11.12-.38.11-.58.1a.65.65,0,0,1-.06-.44,10.26,10.26,0,0,1,1-1.61c.6-.67,1.3-1.24,1.92-1.89.13-.13.08-.42.12-.64a2.36,2.36,0,0,0-.62.11c-1.37.74-2.71,1.52-4.09,2.22a9.16,9.16,0,0,0-3.91,3,2.53,2.53,0,0,1,.12-.88,5.78,5.78,0,0,1,2.5-2.27c1.3-.7,2.57-1.44,3.87-2.12a3.62,3.62,0,0,0,2.24-4A1.65,1.65,0,0,1,47.46,66.69Z"></path>
      <polygon class="cls-11" points="0 51.84 49.08 72.35 93.67 53.44 49.08 37.71 0 51.84"></polygon>
      <path class="cls-6" d="M46.09,60.25a1.36,1.36,0,0,0-1.3-.48c-.72.22-1,.8-.88,1a2.23,2.23,0,0,0,.27.28c.18.17.56-.33.57-.33Z"></path>
      <path class="cls-7" d="M46.47,61.12s-.22-1-.6-1-.78-.06-.78-.06l-.11.17s.37.65.52.7l.49.15A3.08,3.08,0,0,0,46.47,61.12Z"></path>
      <path class="cls-8" d="M46.44,61.24c0-.08.09-.31-.14-.38a3.5,3.5,0,0,0-.48-.1s-.59.45-.71.52-.19.06.15.16.34.19.65.15A.9.9,0,0,0,46.44,61.24Z"></path>
      <path class="cls-9" d="M45.82,60.76a4.44,4.44,0,0,0-.43.42c-.18.21-.21.27-.42.17s-.74-.18-.88-.39-.14-.18,0-.43a1.09,1.09,0,0,1,.69-.43.61.61,0,0,1,.69.15A1.66,1.66,0,0,1,45.82,60.76Z"></path>
      <path class="cls-6" d="M43.13,43.54a2,2,0,0,0-2-.29c-1,.54-1.2,1.44-1,1.7a3.83,3.83,0,0,0,.47.31c.31.2.71-.64.73-.64Z"></path>
      <path class="cls-7" d="M43.94,44.67s-.63-1.35-1.17-1.25-1.15.15-1.15.15l-.09.28s.72.82.95.85.65,0,.75.06A5.22,5.22,0,0,0,43.94,44.67Z"></path>
      <path class="cls-8" d="M43.93,44.85c0-.13,0-.47-.32-.5a5,5,0,0,0-.72,0s-.71.83-.85,1-.26.15.26.19.54.17,1,0A1.31,1.31,0,0,0,43.93,44.85Z"></path>
      <path class="cls-9" d="M42.89,44.35a6.26,6.26,0,0,0-.49.74c-.18.35-.21.45-.54.36s-1.13,0-1.39-.28-.25-.22-.08-.63a1.56,1.56,0,0,1,.87-.82.86.86,0,0,1,1,0A2.15,2.15,0,0,1,42.89,44.35Z"></path>
      <path class="cls-6" d="M39.14,49.67s-4.17-2.08-7.08.46S29,55.92,30,56.62a13.09,13.09,0,0,0,1.82.73c1.2.44,2-2.68,2-2.73S39.14,49.67,39.14,49.67Z"></path>
      <path class="cls-7" d="M42.69,53s-3.09-4.13-4.85-3.41A40.11,40.11,0,0,1,34,50.85l-.12,1s3,2.26,3.84,2.19,2.25-.33,2.6-.33A18.69,18.69,0,0,0,42.69,53Z"></path>
      <path class="cls-8" d="M42.81,53.58c0-.46-.21-1.64-1.46-1.48a17.07,17.07,0,0,0-2.45.53s-1.82,3.3-2.22,3.87-.78.69,1,.46,1.95.18,3.32-.64A4.71,4.71,0,0,0,42.81,53.58Z"></path>
      <path class="cls-9" d="M38.9,52.63a21.75,21.75,0,0,0-1.14,2.87c-.37,1.31-.39,1.67-1.58,1.61s-3.87.7-4.93,0-1-.57-.73-2.09,1-2.24,2.37-3.42a3.11,3.11,0,0,1,3.52-.74A8,8,0,0,1,38.9,52.63Z"></path>
      <path class="cls-6" d="M53.53,50.54s-3.49-2-6.17,0-3,4.85-2.18,5.52a12.57,12.57,0,0,0,1.54.74c1,.46,1.85-2.21,1.92-2.25S53.53,50.54,53.53,50.54Z"></path>
      <path class="cls-7" d="M56.41,53.61s-2.43-3.78-4-3.26-3.39.91-3.39.91l-.17.9s2.51,2.15,3.21,2.14,2-.16,2.28-.14A15.73,15.73,0,0,0,56.41,53.61Z"></path>
      <path class="cls-8" d="M56.48,54.16c0-.4-.09-1.44-1.18-1.37a15.08,15.08,0,0,0-2.16.3S51.36,55.85,51,56.32s-.72.56.87.46,1.68.28,2.92-.35A4.1,4.1,0,0,0,56.48,54.16Z"></path>
      <path class="cls-9" d="M53.14,53.09A19.16,19.16,0,0,0,52,55.52c-.4,1.11-.44,1.43-1.47,1.3s-3.4.38-4.28-.27-.85-.57-.5-1.87A4.83,4.83,0,0,1,48,51.86a2.71,2.71,0,0,1,3.11-.43A6.92,6.92,0,0,1,53.14,53.09Z"></path>
      <path class="cls-6" d="M62.77,46.85S59.33,44.2,56.2,46s-3.84,4.76-3.05,5.58a12.22,12.22,0,0,0,1.54,1c1,.62,2.26-2.11,2.34-2.14S62.77,46.85,62.77,46.85Z"></path>
      <path class="cls-7" d="M65.43,50.51s-2.08-4.35-3.83-4-3.73.52-3.73.52l-.3.94s2.38,2.62,3.13,2.7,2.12.1,2.45.16A17.05,17.05,0,0,0,65.43,50.51Z"></path>
      <path class="cls-8" d="M65.43,51.1c0-.42.1-1.54-1.07-1.61a16.54,16.54,0,0,0-2.34,0s-2.27,2.71-2.74,3.15-.84.5.86.61,1.76.52,3.17,0A4.39,4.39,0,0,0,65.43,51.1Z"></path>
      <path class="cls-9" d="M62,49.52A20.29,20.29,0,0,0,60.46,52c-.58,1.13-.66,1.46-1.74,1.19s-3.68,0-4.53-.87-.83-.71-.28-2.05,1.31-1.87,2.78-2.7a2.87,2.87,0,0,1,3.36,0A7.44,7.44,0,0,1,62,49.52Z"></path>
      <path class="cls-6" d="M65.44,58A2.08,2.08,0,0,0,67.35,57c.51-1,.18-2-.18-2a4,4,0,0,0-.59,0c-.39,0-.23,1-.25,1S65.44,58,65.44,58Z"></path>
      <path class="cls-7" d="M64.07,57.48s1.34.79,1.74.39.91-.81.91-.81l-.09-.3a4,4,0,0,0-1.32-.16c-.21.11-.58.35-.68.39A5.12,5.12,0,0,0,64.07,57.48Z"></path>
      <path class="cls-8" d="M64,57.32c.06.12.24.43.57.24a5.76,5.76,0,0,0,.62-.42s.12-1.13.17-1.34.14-.28-.34,0-.56.17-.85.56A1.4,1.4,0,0,0,64,57.32Z"></path>
      <path class="cls-9" d="M65.16,57.14a7.24,7.24,0,0,0,0-.93c-.05-.41-.09-.51.25-.63s1-.65,1.37-.58.34,0,.44.5A1.7,1.7,0,0,1,67,56.72a.94.94,0,0,1-.9.61A2.33,2.33,0,0,1,65.16,57.14Z"></path>
      <path class="cls-6" d="M32.66,58.72a2.66,2.66,0,0,0,2.52-1c.74-1.28.4-2.48,0-2.61a4.12,4.12,0,0,0-.75,0c-.49,0-.38,1.21-.4,1.23S32.66,58.72,32.66,58.72Z"></path>
      <path class="cls-7" d="M31,58s1.63,1.12,2.18.64a14.76,14.76,0,0,1,1.23-.94l-.09-.4A5.25,5.25,0,0,0,32.62,57c-.28.12-.77.39-.9.44A6.2,6.2,0,0,0,31,58Z"></path>
      <path class="cls-8" d="M30.85,57.75c.07.16.28.57.71.36a7.08,7.08,0,0,0,.83-.49s.25-1.43.33-1.68.2-.35-.43,0-.73.17-1.13.64A1.77,1.77,0,0,0,30.85,57.75Z"></path>
      <path class="cls-9" d="M32.39,57.62a9,9,0,0,0,.06-1.18c0-.53-.06-.66.38-.78s1.31-.73,1.78-.62.45.09.52.68a2.09,2.09,0,0,1-.44,1.53,1.2,1.2,0,0,1-1.19.7A3,3,0,0,1,32.39,57.62Z"></path>
      <path class="cls-6" d="M44.19,52.15a1.55,1.55,0,0,0,1.55.27c.77-.4,1-1.1.79-1.3a2.62,2.62,0,0,0-.36-.26c-.24-.15-.56.48-.58.49Z"></path>
      <path class="cls-7" d="M43.59,51.25s.45,1,.87,1,.9-.08.9-.08l.08-.23s-.54-.64-.72-.67-.5,0-.58-.06A3.71,3.71,0,0,0,43.59,51.25Z"></path>
      <path class="cls-8" d="M43.6,51.11a.29.29,0,0,0,.24.39,4.33,4.33,0,0,0,.55,0s.57-.62.69-.72.2-.11-.2-.16-.41-.14-.75,0A1,1,0,0,0,43.6,51.11Z"></path>
      <path class="cls-9" d="M44.39,51.52a4.86,4.86,0,0,0,.4-.56c.15-.27.17-.35.43-.27s.87.05,1.07.25.19.18,0,.49-.33.43-.69.62a.68.68,0,0,1-.8,0A1.77,1.77,0,0,1,44.39,51.52Z"></path>
      <path class="cls-6" d="M58.2,58.06s3.91,1,5.88-1.74,1.45-5.47.48-5.87a11.58,11.58,0,0,0-1.68-.27c-1.1-.14-1.12,2.64-1.17,2.69S58.2,58.06,58.2,58.06Z"></path>
      <path class="cls-7" d="M54.58,56s3.4,2.89,4.74,1.94,3-1.84,3-1.84l-.1-.9s-3-1.32-3.66-1.11-1.83.71-2.13.78A15.11,15.11,0,0,0,54.58,56Z"></path>
      <path class="cls-8" d="M54.35,55.47c.13.38.5,1.35,1.51,1a16.32,16.32,0,0,0,2-.91s.9-3.14,1.13-3.7.52-.73-1-.18-1.68.21-2.68,1.17A4.08,4.08,0,0,0,54.35,55.47Z"></path>
      <path class="cls-9" d="M57.83,55.53a19.27,19.27,0,0,0,.41-2.64c.06-1.18,0-1.49,1-1.66s3.13-1.34,4.16-1,1,.29,1,1.63a4.76,4.76,0,0,1-1.34,3.33,2.69,2.69,0,0,1-2.83,1.31A7,7,0,0,1,57.83,55.53Z"></path>
      <path class="cls-6" d="M40.17,55.8s2.35,1.32,4.1-.06,1.93-3.26,1.37-3.69a7.47,7.47,0,0,0-1-.47c-.68-.3-1.2,1.49-1.24,1.51S40.17,55.8,40.17,55.8Z"></path>
      <path class="cls-7" d="M38.21,53.81s1.67,2.47,2.71,2.11a23.29,23.29,0,0,1,2.24-.65l.1-.61s-1.7-1.39-2.16-1.37-1.31.13-1.51.12A10,10,0,0,0,38.21,53.81Z"></path>
      <path class="cls-8" d="M38.16,53.44c0,.27.08,1,.8.9a10.08,10.08,0,0,0,1.43-.24s1.15-1.86,1.4-2.17.47-.38-.58-.29-1.13-.17-1.94.27A2.71,2.71,0,0,0,38.16,53.44Z"></path>
      <path class="cls-9" d="M40.39,54.1a11.81,11.81,0,0,0,.74-1.62c.26-.75.28-1,1-.89s2.26-.3,2.85.13.58.36.36,1.23a3.17,3.17,0,0,1-1.46,1.9,1.79,1.79,0,0,1-2.06.33A4.65,4.65,0,0,1,40.39,54.1Z"></path>
      <path class="cls-12" d="M59.92,28a12.25,12.25,0,0,0-3.68-.19,5.26,5.26,0,0,0-3.18,1.27,4,4,0,0,0-1,3.17c0,.6.14,1.26.23,1.93s.15,1.34.2,2a47.64,47.64,0,0,1-.23,8c-.12,1.32-.27,2.63-.32,3.93,0,.65,0,1.3,0,1.94a8.87,8.87,0,0,0,.08.89l0,0s0,0-.07-.11-.35-.21-.56-.05-.12.17-.14.2h0v-.08l0-.23,0-.48c.07-2.63-.08-5.23-.23-7.91,0-1.33,0-2.69,0-4a11.78,11.78,0,0,0-.6-3.75,9,9,0,0,0-1.85-3.21,9.27,9.27,0,0,0-3-2.16,15,15,0,0,0-7.35-1.16H38.2a.91.91,0,0,1-1-.83.92.92,0,0,1,.83-1h.08A17.24,17.24,0,0,1,46.22,28a10.87,10.87,0,0,1,3.31,2.57,10.27,10.27,0,0,1,2,3.68,14.58,14.58,0,0,1,.56,4.07c0,1.36-.06,2.65,0,4,.11,2.61.24,5.3.14,8l0,.51,0,.27a1.15,1.15,0,0,1,0,.16l0,.07s0,.06-.18.25-.62,0-.58,0a.52.52,0,0,1-.09-.13.43.43,0,0,1,0-.1,6.58,6.58,0,0,1-.12-1.08c-.05-.67-.05-1.35,0-2,0-1.35.18-2.67.29-4a41.11,41.11,0,0,0,.09-7.84c-.07-.65-.15-1.29-.26-1.93s-.23-1.28-.31-2a5.3,5.3,0,0,1,1.22-4.19A6.74,6.74,0,0,1,56,26.26a15.36,15.36,0,0,1,4.23,0A.91.91,0,1,1,60,28h-.11Z"></path>
      <path class="cls-13" d="M50.85,32c-1.2-3.62,7.07-10,7.07-10"></path>
      <path class="cls-12" d="M53.74,27s6.08-5.67,7.53-7.19a104.11,104.11,0,0,1,9.88-8.65c2.89-2.06,4.79-5.78,5.09-6s7-4.9,0-3.61-3.57-2.12-9-.23-5.85,6.24-6.38,7.45-2.06,2.51-2.13,3.8-.61,7-1.45,8.33S50.47,28,53.74,27Z"></path>
      <path class="cls-12" d="M58.6,26.3s1.45.53,3.5-2.28,7.37-7.47,10.8-3.15c.27.35,1,2-.92,3.91s-1.29,3.35-.76,4,3.14,3.66.61,6.39c-3.57,3.84-8.63-.13-10.18-4.11S60.13,28,56.93,27.52,58.6,26.3,58.6,26.3Z"></path>
      <path class="cls-12" d="M42.32,26.91s-2.16-14.1-10.7-8.21c-.8.55-4.11,4-.95,7.06.41.4.5.87-.27,1.76-2.18,2.53-1.5,11.63,6.62,8.21C41.64,33.78,42.32,26.91,42.32,26.91Z"></path>
      <path class="cls-14" d="M49.14,25.91s-.55-1.58-3.34-2.57-2-1.67-2.7-2.47-1.68-1.27-2-2,0-.82-2-1.85-1.45-2.1-1.9-3.09-2.51-2.13-2.51-4.41.46-3,0-4.79-.3-3.6,1.6-4,1.06,1,2.66,0,1.67.48,2.51-.08S42.71-.49,44,.71s.49,2.56,2.4,2.71,1.9,1.6,2.13,2.81,1.22,1.83,1.37,2.51-.47,4.62.79,4.21.81.43.73,1.42-1.38,3.86-.73,4.48a2.36,2.36,0,0,1,.43,3.5A6.85,6.85,0,0,0,49.87,27C49.86,28.28,49.14,25.91,49.14,25.91Z"></path>
      <path class="cls-12" d="M39.45,5.13a46,46,0,0,1,4.73,7.14,70.23,70.23,0,0,1,3.45,7.85c1,2.66,2,5.34,2.92,8.07.45,1.36.86,2.73,1.21,4.12a23.53,23.53,0,0,1,.76,4.28.35.35,0,0,1-.34.39.36.36,0,0,1-.38-.34h0v0A38.17,38.17,0,0,0,50,28.35c-.82-2.73-1.76-5.42-2.74-8.1A71.74,71.74,0,0,0,44,12.35,45.3,45.3,0,0,0,39.45,5.13Z"></path>
      <path class="cls-12" d="M49.14,15.43a.56.56,0,0,1,.08.61,1.86,1.86,0,0,1-.31.57c-.26.35-.6.64-.86.95a2.65,2.65,0,0,0-.56,1.06,2,2,0,0,0,0,1.13v0a.23.23,0,0,1-.43.17v0a2.6,2.6,0,0,1,.76-2.52c.32-.31.66-.54.94-.86a2,2,0,0,0,.35-.52A.55.55,0,0,0,49.14,15.43Z"></path>
      <path class="cls-12" d="M43.1,17.63a2.25,2.25,0,0,0,1,1.15,2.05,2.05,0,0,0,1.46.18,1.9,1.9,0,0,1,1.56.44,3,3,0,0,1,.85,1.42.22.22,0,1,1-.43.13h0v0a2.69,2.69,0,0,0-.64-1.27,1.58,1.58,0,0,0-1.3-.46,2.15,2.15,0,0,1-2.46-1.56Z"></path>
      <path class="cls-12" d="M38.19,11.86A15.87,15.87,0,0,0,40,13.36a6.21,6.21,0,0,0,2,1,1.6,1.6,0,0,0,1-.09,1.64,1.64,0,0,1,1.25-.15A3.3,3.3,0,0,1,46,15.87a.23.23,0,0,1-.4.22h0v0a2.93,2.93,0,0,0-1.42-1.57,1.28,1.28,0,0,0-1,.08,1.86,1.86,0,0,1-1.23,0,6.46,6.46,0,0,1-2-1.17A16.1,16.1,0,0,1,38.19,11.86Z"></path>
      <path class="cls-12" d="M46.75,8.74a2.89,2.89,0,0,1,.6,2.11A4.89,4.89,0,0,1,46.59,13l-.57.95a1.54,1.54,0,0,0-.29,1,8.81,8.81,0,0,0,.7,2h0a.25.25,0,0,1-.13.3.23.23,0,0,1-.3-.13h0a8.65,8.65,0,0,1-.62-2.19,1.79,1.79,0,0,1,.39-1.12l.62-.93a5,5,0,0,0,.84-2A2.86,2.86,0,0,0,46.75,8.74Z"></path>
      <path class="cls-12" d="M44,5.13a2.35,2.35,0,0,1-.23,1.54,3.27,3.27,0,0,1-.45.65,2.19,2.19,0,0,0-.48.59,2.21,2.21,0,0,0,0,1.46,5.62,5.62,0,0,0,.62,1.39h0a.17.17,0,0,1-.06.23.18.18,0,0,1-.24-.05h0a6,6,0,0,1-.58-1.5,2.41,2.41,0,0,1,.12-1.61,2.38,2.38,0,0,1,.53-.6,2.75,2.75,0,0,0,.48-.6A2.38,2.38,0,0,0,44,5.13Z"></path>
      <path class="cls-12" d="M38.19,8a1.72,1.72,0,0,0,1.69.77c.33,0,.63-.09,1-.09a1.88,1.88,0,0,1,1,.27,4.81,4.81,0,0,1,1.41,1.43,10.37,10.37,0,0,1,1,1.77.17.17,0,1,1-.31.13h0A9.43,9.43,0,0,0,43,10.51a4.48,4.48,0,0,0-1.28-1.42,1.69,1.69,0,0,0-.89-.3c-.31,0-.65.07-1,.06A1.76,1.76,0,0,1,38.19,8Z"></path>
      <path class="cls-15" d="M73.28,8.67a14.67,14.67,0,0,1-1.13,1.1c-.39.36-.79.7-1.19,1-.81.67-1.61,1.35-2.43,2s-1.62,1.33-2.4,2-1.57,1.38-2.32,2.11c-1.48,1.46-2.92,3-4.4,4.49s-3,3-4.43,4.47c-.73.76-1.44,1.52-2.1,2.32l-.1.12a4.17,4.17,0,0,0-1.24,1h0a.17.17,0,0,0,0,.24.18.18,0,0,0,.24,0l0,0a3.31,3.31,0,0,1,.25-.3l-.14.2a3.92,3.92,0,0,0-.62,1.35c0,.12,0,.24,0,.37s0,.23,0,.36.05.51.09.77l.22,1.55c.16,1,.32,2.08.46,3.12a36,36,0,0,1,.44,6.3c0,2.1-.22,4.22-.41,6.29v0a.17.17,0,0,1-.18.15.18.18,0,0,1-.16-.18c.2-2.13.36-4.19.39-6.29A37.28,37.28,0,0,0,51.69,37c-.1-.68-.2-1.35-.31-2a8.43,8.43,0,0,1,.25,1.49v0a.17.17,0,1,0,.33,0,11,11,0,0,0-.88-3.4L51,32.36c0-.26-.07-.52-.09-.79a3,3,0,0,1,0-.43,3.05,3.05,0,0,1,0-.41,4.32,4.32,0,0,1,.66-1.5,15.21,15.21,0,0,1,.94-1.29c.67-.82,1.38-1.6,2.1-2.37,1.45-1.53,2.94-3,4.39-4.52,1.21-1.25,2.39-2.51,3.63-3.74-.08.16-.16.33-.26.49h0a.11.11,0,0,0,0,.14.12.12,0,0,0,.16,0,4.51,4.51,0,0,0,.8-1.28s0-.07,0-.11h0c.75-.73,1.54-1.44,2.35-2.12s1.64-1.32,2.48-1.95c.44-.35.9-.7,1.36-1l-.07.1a2.46,2.46,0,0,1-.8.68h0a.11.11,0,0,0,0,.15.12.12,0,0,0,.14.06A3,3,0,0,0,70.28,11l.5-.38C71.62,10,72.48,9.36,73.28,8.67Z"></path>
      <path class="cls-15" d="M52,36.5a.17.17,0,1,1-.33,0v0A8.43,8.43,0,0,0,51.38,35c-.05-.36-.11-.73-.17-1.09l-.12-.83A11,11,0,0,1,52,36.5Z"></path>
      <path class="cls-15" d="M52.78,28.34c-.24.29-.47.6-.69.92a3.31,3.31,0,0,0-.25.3l0,0a.18.18,0,0,1-.24,0,.17.17,0,0,1,0-.24h0A4.17,4.17,0,0,1,52.78,28.34Z"></path>
      <path class="cls-15" d="M63.41,16.55s0,.07,0,.11a4.51,4.51,0,0,1-.8,1.28.12.12,0,0,1-.16,0,.11.11,0,0,1,0-.14h0c.1-.16.18-.33.26-.49Z"></path>
      <path class="cls-15" d="M70.28,11a3,3,0,0,1-1.46,1.48.12.12,0,0,1-.14-.06.11.11,0,0,1,0-.15h0a2.46,2.46,0,0,0,.8-.68l.07-.1Z"></path>
      <path class="cls-15" d="M71.83,4.11a14.74,14.74,0,0,0-.57,2.17c-.14.74-.25,1.48-.34,2.23a6.86,6.86,0,0,1-.53,2.22l-.11.23a3,3,0,0,1-1.46,1.48.12.12,0,0,1-.14-.06.11.11,0,0,1,0-.15h0a2.46,2.46,0,0,0,.8-.68l.07-.1a3.65,3.65,0,0,0,.48-.83,7.76,7.76,0,0,0,.56-2.14,20.71,20.71,0,0,1,.43-2.22A12.3,12.3,0,0,1,71.83,4.11Z"></path>
      <path class="cls-15" d="M65.56,8.21c0,.49,0,1,0,1.48a6.82,6.82,0,0,1-.32,1.46,8.76,8.76,0,0,1-.63,1.35A7,7,0,0,0,64,13.79a11.56,11.56,0,0,0-.2,1.42,6.24,6.24,0,0,1-.39,1.34s0,.07,0,.11a4.51,4.51,0,0,1-.8,1.28.12.12,0,0,1-.16,0,.11.11,0,0,1,0-.14h0c.1-.16.18-.33.26-.49a7.63,7.63,0,0,0,.66-2.18c0-.23,0-.45.09-.71a3.34,3.34,0,0,1,.17-.76,6.79,6.79,0,0,1,.64-1.36,7,7,0,0,0,1.06-2.65c.07-.47.1-1,.15-1.44l0-.73,0-.37V6.84s0,0,0,0h0s0,0,0,0a.28.28,0,0,1,0,.09,1.1,1.1,0,0,1,0,.18c0,.12,0,.25,0,.37Z"></path>
      <path class="cls-15" d="M66,26.61l-1.81-.12-1.82-.09c-.64,0-1.16,0-1.82,0s-1.32,0-2,0a10.12,10.12,0,0,0-4.14.77,5.58,5.58,0,0,0-.8.46,4.54,4.54,0,0,0-.71.59A5.2,5.2,0,0,0,52,29.28a2.19,2.19,0,0,0-.17.35c0,.08,0,0,0,.05a.19.19,0,0,1-.22.09.18.18,0,0,1-.1-.21s0,0,0,0c.43-.41.58-.94,1-1.39a3.9,3.9,0,0,1,.41-.38,3.65,3.65,0,0,1,.58-.44,5.74,5.74,0,0,1,.83-.45,10.52,10.52,0,0,1,4.23-.7l2,.05c.65,0,1.18.05,1.81.09s1.14.07,1.82.13Z"></path>
      <path class="cls-15" d="M52,36.5a.17.17,0,1,1-.33,0v0A8.43,8.43,0,0,0,51.38,35,9.25,9.25,0,0,0,51.07,34a11,11,0,0,0-1.15-2.37A10.7,10.7,0,0,0,46.1,28a8.68,8.68,0,0,0-2.46-.91,12.07,12.07,0,0,0-1.32-.21c-.44,0-.89-.05-1.33-.12a20.55,20.55,0,0,1-5.11-1.55A21.34,21.34,0,0,0,41,26.65c.44.06.88.06,1.33.1a9.87,9.87,0,0,1,1.33.17,9.54,9.54,0,0,1,2.55.89,10.9,10.9,0,0,1,4,3.61,11.39,11.39,0,0,1,.91,1.68A11,11,0,0,1,52,36.5Z"></path>
    </g>
  </g>
</svg>
