<?xml version="1.0" encoding="UTF-8"?>
<svg xmlns="http://www.w3.org/2000/svg" viewBox="0 0 48.2 68.02">
  <defs>
    <style>.cls-1{fill:#a29274;}.cls-2{fill:#e3e0c9;}.cls-3{fill:#fcedce;}.cls-4{fill:#bda885;}.cls-5{fill:#d0c5a6;}.cls-6{fill:#8f8267;}.cls-7{fill:#ab967a;opacity:0.25;}.cls-8{fill:#9b8d71;}.cls-9{fill:#7c705b;}.cls-10{fill:#e7e6e3;}.cls-11{fill:#817870;}.cls-12{fill:#92bf3a;}.cls-13{fill:#486f3a;}.cls-14{fill:#acd03d;}.cls-15,.cls-16,.cls-17{fill:none;stroke-miterlimit:10;}.cls-15,.cls-16{stroke:#7fb843;}.cls-15{stroke-width:0.31px;}.cls-16{stroke-width:0.23px;}.cls-17{stroke:#acd03d;stroke-width:0.15px;}.cls-18{fill:#6d9633;}.cls-19{fill:#7fb843;}.cls-20{fill:#bcd746;}.cls-21{fill:#c9cf62;}</style>
  </defs>
  <g id="Слой_2" data-name="Слой 2">
    <g id="Слой_1-2" data-name="Слой 1">
      <polygon class="cls-1" points="23.7 36.88 47.33 26.82 43.79 54.03 23.7 68.02 23.7 36.88"></polygon>
      <polygon class="cls-2" points="23.7 20.02 47.33 26.82 23.7 36.88 0 26.82 23.7 20.02"></polygon>
      <polygon class="cls-3" points="23.7 20.02 0 26.82 0.41 26.99 47.11 26.75 23.7 20.02"></polygon>
      <polygon class="cls-4" points="3.54 54.03 0 26.82 23.7 36.88 23.7 68.02 3.54 54.03"></polygon>
      <path class="cls-5" d="M14.89,27.15A10.84,10.84,0,0,1,17.32,25a14,14,0,0,1,3-1.44,16.32,16.32,0,0,1,3.22-.67c.55-.07,1.1-.06,1.64-.09s1.09.05,1.63.09c-1.08.1-2.16.18-3.22.36a19.36,19.36,0,0,0-3.11.77,15.66,15.66,0,0,0-2.93,1.3A16.34,16.34,0,0,0,14.89,27.15Z"></path>
      <polygon class="cls-6" points="23.7 36.88 47.33 26.82 43.79 54.03 23.7 68.02 23.7 36.88"></polygon>
      <polygon class="cls-7" points="3.54 54.03 0 26.82 23.7 36.88 23.7 68.02 3.54 54.03"></polygon>
      <polygon class="cls-8" points="23.7 68.02 3.54 54.03 23.79 46.38 43.79 54.03 23.7 68.02"></polygon>
      <path class="cls-9" d="M7.83,42.06a7.26,7.26,0,0,1-.61-3.94A6.49,6.49,0,0,1,9,34.47a9.47,9.47,0,0,1,3.47-2.07c.65-.18,1.3-.35,2-.49s1.33-.16,2-.22c-.64.17-1.29.3-1.93.45s-1.26.4-1.88.61a9.62,9.62,0,0,0-3.26,2.06,6.35,6.35,0,0,0-1.72,3.37c-.07.31-.08.64-.12,1s0,.66,0,1A6.76,6.76,0,0,0,7.83,42.06Z"></path>
      <path class="cls-9" d="M29.85,41.69a4.65,4.65,0,0,0,1.33.57c.46.15.92.29,1.39.42.94.25,1.88.49,2.83.67,1.9.41,3.83.63,5.78.86a21.83,21.83,0,0,1-5.87-.39A23.6,23.6,0,0,1,32.46,43,8.08,8.08,0,0,1,29.85,41.69Z"></path>
      <path class="cls-9" d="M17.16,40.27a15.35,15.35,0,0,1-.59,2.67,19.71,19.71,0,0,1-1,2.55,15.19,15.19,0,0,1-1.43,2.35,9.1,9.1,0,0,1-2,1.91,17,17,0,0,0,3-4.47c.41-.8.74-1.63,1.07-2.46S16.86,41.13,17.16,40.27Z"></path>
      <path class="cls-9" d="M24.49,61.93c1-.48,2-.84,2.93-1.27s1.95-.84,2.88-1.34A17.56,17.56,0,0,0,33,57.65a7.54,7.54,0,0,0,2.1-2.32,6.07,6.07,0,0,1-1.87,2.61,14.66,14.66,0,0,1-2.68,1.81,27.39,27.39,0,0,1-3,1.26C26.55,61.37,25.51,61.64,24.49,61.93Z"></path>
      <path class="cls-9" d="M13.4,58.94a5,5,0,0,1-2.64-2.46,2.23,2.23,0,0,1,.17-1.9,4.46,4.46,0,0,1,1.27-1.39,13,13,0,0,1,3.27-1.62,26.92,26.92,0,0,1,3.5-.92c-1.13.42-2.26.81-3.37,1.27a14.06,14.06,0,0,0-3.11,1.66,4,4,0,0,0-1.18,1.21,2,2,0,0,0-.2,1.57A3.66,3.66,0,0,0,12,57.8,8.38,8.38,0,0,0,13.4,58.94Z"></path>
      <path class="cls-9" d="M35.07,41.14c1.17-1.62,2.39-3.2,3.44-4.88A21.87,21.87,0,0,0,40,33.7a8.39,8.39,0,0,0,.93-2.81,6.44,6.44,0,0,1-.59,3,18.41,18.41,0,0,1-1.42,2.67c-.57.83-1.15,1.66-1.79,2.43A23.71,23.71,0,0,1,35.07,41.14Z"></path>
      <polygon class="cls-10" points="25.79 50.33 25.81 50.29 25.77 50.29 25.79 50.33"></polygon>
      <path class="cls-10" d="M21.54,47.74h-.06a.13.13,0,0,1,0-.16,2,2,0,0,0-.23-2,7.74,7.74,0,0,0-.75-1,10.15,10.15,0,0,1-.66-.81,3.91,3.91,0,0,1-.4-4,6.13,6.13,0,0,1,2.12-2,7.26,7.26,0,0,0,1.84-1.55c.94-1.25.95-2.94.87-4.71a.1.1,0,0,1,.11-.12h0a.12.12,0,0,1,.12.11c.08,1.81.07,3.55-.92,4.86A7.44,7.44,0,0,1,21.65,38a6,6,0,0,0-2,1.91A3.66,3.66,0,0,0,20,43.62a9.75,9.75,0,0,0,.64.8,7.55,7.55,0,0,1,.78,1,2.25,2.25,0,0,1,.23,2.27A.11.11,0,0,1,21.54,47.74Z"></path>
      <path class="cls-10" d="M19.14,48a.12.12,0,0,1-.1-.05.11.11,0,0,1,0-.16c.16-.11.33-.21.5-.31.84-.49,1.64-1,1.19-2.57a.11.11,0,0,1,.08-.14.12.12,0,0,1,.14.08c.5,1.78-.45,2.34-1.29,2.83l-.49.3Z"></path>
      <path class="cls-10" d="M24.05,47.73h0a.13.13,0,0,1-.09-.14c.32-1.4-.3-2.81-.9-4.18l0-.06c-.64-1.47-1.16-3-.64-4.43a6.58,6.58,0,0,1,.76-1.31,7.53,7.53,0,0,0,.56-.9,8.55,8.55,0,0,0,.57-4.47.1.1,0,0,1,.11-.12h0c.07,0,.12,0,.12.1a8.76,8.76,0,0,1-.59,4.6,8.45,8.45,0,0,1-.58.92A5.79,5.79,0,0,0,22.59,39c-.5,1.32,0,2.82.64,4.24l0,.07c.59,1.33,1.25,2.84.92,4.32A.12.12,0,0,1,24.05,47.73Z"></path>
      <path class="cls-10" d="M27.12,51.14h0A.11.11,0,0,1,27,51a11.29,11.29,0,0,0-1.66-5.13,12,12,0,0,1-1.68-5.06A11.23,11.23,0,0,1,24,38.44l.09-.51a26.76,26.76,0,0,0,.36-6.32.12.12,0,0,1,.11-.13h0a.11.11,0,0,1,.12.11A26.23,26.23,0,0,1,24.27,38l-.09.51a10.94,10.94,0,0,0-.28,2.35,11.82,11.82,0,0,0,1.66,5A11.47,11.47,0,0,1,27.24,51,.11.11,0,0,1,27.12,51.14Z"></path>
      <path class="cls-10" d="M24.36,51.6h0a.13.13,0,0,1-.09-.14A5.4,5.4,0,0,1,25,49.79c.08-.15.17-.29.25-.43a4.68,4.68,0,0,0,.46-2.7.11.11,0,0,1,.08-.14.11.11,0,0,1,.14.08,4.83,4.83,0,0,1-.48,2.87l-.25.44a5.17,5.17,0,0,0-.74,1.6A.13.13,0,0,1,24.36,51.6Z"></path>
      <path class="cls-10" d="M26,50.92a.12.12,0,0,1-.12-.1,7.92,7.92,0,0,1,0-1.54c0-.19,0-.38,0-.57a5.07,5.07,0,0,0-.42-2.49.11.11,0,0,1,0-.16.11.11,0,0,1,.16,0,5.18,5.18,0,0,1,.46,2.63c0,.2,0,.39,0,.59a7.42,7.42,0,0,0,0,1.49.11.11,0,0,1-.09.13Z"></path>
      <path class="cls-10" d="M26.9,44.17a.11.11,0,0,1-.11-.07,4.59,4.59,0,0,1-.23-3.2c.1-.3.22-.6.34-.88a4.85,4.85,0,0,0,.45-1.48c.08-.85.08-1.78-.49-2.21l-.15-.12A4.68,4.68,0,0,1,24.4,31.6a.11.11,0,0,1,.11-.12h0a.13.13,0,0,1,.11.12A4.47,4.47,0,0,0,26.85,36l.15.12c.66.5.66,1.5.58,2.42a5.19,5.19,0,0,1-.47,1.54,8.89,8.89,0,0,0-.32.86A4.37,4.37,0,0,0,27,44a.12.12,0,0,1-.05.15Z"></path>
      <path class="cls-10" d="M25.55,43.45h0a.12.12,0,0,1-.06-.16,3.09,3.09,0,0,0,.16-.65,4.28,4.28,0,0,1,1.23-2.46.12.12,0,0,1,.16,0,.12.12,0,0,1,0,.17,4,4,0,0,0-1.17,2.34,2.88,2.88,0,0,1-.18.7A.11.11,0,0,1,25.55,43.45Z"></path>
      <path class="cls-10" d="M25.12,40.07h0a.11.11,0,0,1-.1-.12,2.31,2.31,0,0,1,.49-1l.17-.24c.57-.86.06-2.44-.27-3.48L25.34,35a.12.12,0,0,1,.08-.15.11.11,0,0,1,.14.08l.06.19c.37,1.15.87,2.73.24,3.68l-.17.25a2,2,0,0,0-.45.93A.13.13,0,0,1,25.12,40.07Z"></path>
      <path class="cls-10" d="M29.58,51a.11.11,0,0,1-.11-.09,5.33,5.33,0,0,1,.31-2.73,8.65,8.65,0,0,0,.38-1.64,8.82,8.82,0,0,0-.37-2.92l-.07-.28c-.3-1.25-.54-2.54-.73-3.82l0-.29a9.59,9.59,0,0,0-.57-2.49,2.05,2.05,0,0,0-1.31-1c-1.09-.45-2.45-1-2.84-4.22a.11.11,0,0,1,.1-.13c.06,0,.12,0,.13.1.37,3.09,1.61,3.59,2.69,4a2.23,2.23,0,0,1,1.44,1.12,9.75,9.75,0,0,1,.59,2.55l0,.28c.19,1.28.43,2.56.73,3.81l.06.27a9,9,0,0,1,.38,3A9.51,9.51,0,0,1,30,48.25a5.13,5.13,0,0,0-.32,2.62.11.11,0,0,1-.08.14Z"></path>
      <path class="cls-10" d="M28.18,45.55a.12.12,0,0,1-.12-.09,1.77,1.77,0,0,1,.42-1.21l.15-.23c.55-.92.68-2.43.36-4.49a.12.12,0,0,1,.1-.14.14.14,0,0,1,.13.1c.32,2.12.19,3.68-.39,4.64a2.13,2.13,0,0,1-.16.25,1.59,1.59,0,0,0-.38,1,.12.12,0,0,1-.09.14Z"></path>
      <path class="cls-10" d="M28.66,49.58h0a.11.11,0,0,1-.11-.12,1.6,1.6,0,0,1,.62-1c.11-.12.23-.23.33-.35a3.79,3.79,0,0,0,.69-1.84.11.11,0,0,1,.12-.11h0a.11.11,0,0,1,.11.12,4,4,0,0,1-.74,2,4.12,4.12,0,0,1-.35.37c-.27.27-.53.52-.54.85A.12.12,0,0,1,28.66,49.58Z"></path>
      <path class="cls-10" d="M31.61,42.28h0a.12.12,0,0,1-.08-.14A4.63,4.63,0,0,0,30,37.53l-.34-.29a5.31,5.31,0,0,0-2.23-1.31.12.12,0,0,1-.08-.15.13.13,0,0,1,.15-.08,5.45,5.45,0,0,1,2.32,1.37l.33.28a4.87,4.87,0,0,1,1.54,4.84A.12.12,0,0,1,31.61,42.28Z"></path>
      <polygon class="cls-3" points="0.41 26.99 23.7 36.88 47.33 26.82 47.11 26.75 0.41 26.99"></polygon>
      <ellipse class="cls-1" cx="24.45" cy="27.29" rx="5.46" ry="2.13"></ellipse>
      <ellipse class="cls-11" cx="24.59" cy="28.01" rx="4.5" ry="1.76"></ellipse>
      <path class="cls-12" d="M31.18,13.94s-2.67.21-3.62,2,0,4.21,0,4.21,0-.41.76-.65A4.43,4.43,0,0,0,30,22a3.64,3.64,0,0,1,0-1.05c.1-.17.83,1.42,1.8,1.53,0,0-.11-.72,0-.8s.7.9,1.63,1.18c0,0-.2-.91,0-1s1.35.61,1.35.61a3.77,3.77,0,0,0,.16-.9c0-.2.73.41.77.59A10.15,10.15,0,0,0,35.44,20c-.16-.25.81-.21.85,0a3.33,3.33,0,0,0-.66-1.78c-.58-.52.48-.09.67,0s-.44-1.22-1.67-1.84.85-.23.85-.23A5.87,5.87,0,0,0,31.18,13.94Z"></path>
      <path class="cls-13" d="M29.75,15.07a3.43,3.43,0,0,1,2.11-.28,7.54,7.54,0,0,1,2,.66,7.22,7.22,0,0,0-2-.58,3.26,3.26,0,0,0-2,.33Z"></path>
      <path class="cls-13" d="M28,18.48a5.38,5.38,0,0,1,.45-1.92,3.22,3.22,0,0,1,1.29-1.49l.08.13a3,3,0,0,0-1.3,1.4A5.32,5.32,0,0,0,28,18.48Z"></path>
      <path class="cls-13" d="M30.89,16.18a2.69,2.69,0,0,1,2.22,0,9.55,9.55,0,0,1,1.94,1.11,9.28,9.28,0,0,0-2-1,2.57,2.57,0,0,0-2.12,0Z"></path>
      <path class="cls-13" d="M29.49,20.41a8,8,0,0,1,.18-2.29,3,3,0,0,1,1.22-1.94l.07.14a2.84,2.84,0,0,0-1.21,1.82A7.92,7.92,0,0,0,29.49,20.41Z"></path>
      <path class="cls-13" d="M31.85,17.29a2,2,0,0,1,1.75.19,8.12,8.12,0,0,1,1.45,1,7.91,7.91,0,0,0-1.49-.93,1.87,1.87,0,0,0-1.64-.13Z"></path>
      <path class="cls-13" d="M31,20.49A6.52,6.52,0,0,1,31,18.78a2.08,2.08,0,0,1,.85-1.49l.07.13a2,2,0,0,0-.84,1.37A6,6,0,0,0,31,20.49Z"></path>
      <path class="cls-13" d="M33,18.93a.85.85,0,0,1,.55.07,2.52,2.52,0,0,1,.44.28,5,5,0,0,1,.76.69,6,6,0,0,0-.8-.63,1.21,1.21,0,0,0-.9-.26Z"></path>
      <path class="cls-13" d="M32.61,21a4.91,4.91,0,0,1-.09-1.09,2.11,2.11,0,0,1,.09-.55.65.65,0,0,1,.38-.45l0,.15c-.31.09-.4.52-.45.86A5.58,5.58,0,0,0,32.61,21Z"></path>
      <path class="cls-13" d="M28.52,14a30,30,0,0,1,2.94,2.81,10.13,10.13,0,0,1,2.18,3.42,11.65,11.65,0,0,0-2.26-3.34C30.49,15.85,29.51,14.91,28.52,14Z"></path>
      <path class="cls-14" d="M22.29,20.33a2.27,2.27,0,0,0-3.15.41l.57.26s-.77.21-.88.67l.67.41s-.87,1-.36,1.09l.52.1s-.1.67.15.72a1.55,1.55,0,0,0,.75-.2s.44.41.44.56.67-.3.67-.61.88-.06.88-.06.15-.82,0-1,.51-.05.51-.05S23.32,21,22.29,20.33Z"></path>
      <path class="cls-13" d="M20.14,23.3a9.86,9.86,0,0,1,.72-1.5,5.6,5.6,0,0,1,.49-.68,1.49,1.49,0,0,1,.71-.45h0a1.38,1.38,0,0,0-.65.49,4.51,4.51,0,0,0-.49.66,10.28,10.28,0,0,0-.77,1.47Z"></path>
      <path class="cls-13" d="M21.85,20.8a2.84,2.84,0,0,0-1.29-.26,2.82,2.82,0,0,1,1.31.23Z"></path>
      <path class="cls-13" d="M22.78,22.12a2.14,2.14,0,0,0-.93-1.32l0,0A2.15,2.15,0,0,1,22.78,22.12Z"></path>
      <path class="cls-13" d="M21.25,21.31a1.33,1.33,0,0,0-.63,0,4.75,4.75,0,0,0-.63.14,3.64,3.64,0,0,1,.63-.16,1.43,1.43,0,0,1,.65,0Z"></path>
      <path class="cls-13" d="M22.11,23a2.66,2.66,0,0,0-.86-1.64l0,0A2.71,2.71,0,0,1,22.11,23Z"></path>
      <path class="cls-13" d="M20.92,21.73a1.06,1.06,0,0,0-.93.52,1.09,1.09,0,0,1,.94-.56Z"></path>
      <path class="cls-13" d="M21.21,23a2.24,2.24,0,0,0-.31-1.23l0,0A2.38,2.38,0,0,1,21.21,23Z"></path>
      <path class="cls-14" d="M27,22a1.16,1.16,0,0,0-.75,1.11l.29-.13A1.81,1.81,0,0,0,26.73,24L27,23.8a2.63,2.63,0,0,0,.37.75l.27-.27s.62.12.6.33c0,0,.22-.37.16-.5s.75.27.75.27-.06-.8-.23-.87.46-.33.46-.33-.19-.49-.46-.56.23-.41.39-.29a1.16,1.16,0,0,0-.8-.34c-.38.07,0-.26.2-.17A2.13,2.13,0,0,0,27,22Z"></path>
      <path class="cls-13" d="M27.44,22.27a1.5,1.5,0,0,0-.51.89,1.53,1.53,0,0,1,.48-.92Z"></path>
      <path class="cls-13" d="M28.53,23.55a3.72,3.72,0,0,0-1.12-1.28l0,0A3.92,3.92,0,0,1,28.53,23.55Z"></path>
      <path class="cls-13" d="M27.41,22.24a1.6,1.6,0,0,1,1.25,0,1.59,1.59,0,0,0-1.23,0Z"></path>
      <path class="cls-13" d="M27.89,22.66A1.5,1.5,0,0,1,29,23a1.44,1.44,0,0,0-1.08-.25Z"></path>
      <path class="cls-13" d="M27.49,23.83a1.38,1.38,0,0,1,.4-1.16l0,0A1.41,1.41,0,0,0,27.49,23.83Z"></path>
      <path class="cls-15" d="M28.41,11.14a3.64,3.64,0,0,1,.27,2.94"></path>
      <path class="cls-15" d="M32.55,13.14c-3.91-.82-5.64,3.05-6.06,3.95a17.35,17.35,0,0,0-1.26,4.36A23.57,23.57,0,0,0,24.49,28"></path>
      <path class="cls-15" d="M15.63,9.22c3.75,1.13,4,1.43,4.87,2.08a27.15,27.15,0,0,1,3.75,3.26,5.66,5.66,0,0,1,1.34,2.24,9,9,0,0,1,0,3.11"></path>
      <path class="cls-16" d="M23.91,17.42a48.63,48.63,0,0,1,.29,10.52"></path>
      <path class="cls-17" d="M22.06,20.68a2.38,2.38,0,0,1,1.85-.06c.44.23.64,1,.7,1.5s-.35,5.32-.41,5.82"></path>
      <path class="cls-17" d="M27.22,22c-.29-.46-1.52-.81-2.13,1.51A14.74,14.74,0,0,0,24.61,28"></path>
      <path class="cls-18" d="M31.89,12.88S33,6.69,38.2,6c0,0-.24,1.26,0,1.26S39.53,5.88,39.91,6c0,0,0,.9.17,1s.84-.72,1.65-.84c0,0-.48.71,0,1a1.58,1.58,0,0,1,1.65-.7s-.94.83-.35,1.12,1.63-.06,1.91.09-1.76,1.26-.69,1.51,1.86-.24,2.5,0c0,0-1.64.77-1.07,1s1.77,0,1.9.1-2.06,1.9.65,1.44C48.2,11.74,39.84,20.31,31.89,12.88Z"></path>
      <path class="cls-13" d="M34.12,12.06a8.57,8.57,0,0,1,2-3.73,8.39,8.39,0,0,0-1.81,3.76Z"></path>
      <path class="cls-13" d="M35.53,13.08a14.35,14.35,0,0,1,1.18-2.9,7.1,7.1,0,0,1,2-2.38,6.91,6.91,0,0,0-1.94,2.42,14.31,14.31,0,0,0-1.1,2.9Z"></path>
      <path class="cls-13" d="M37.2,12.67a9.71,9.71,0,0,1,3.58-4.51,9.66,9.66,0,0,0-3.44,4.56Z"></path>
      <path class="cls-13" d="M38.72,13.26a12.47,12.47,0,0,1,1.92-2.64A20.09,20.09,0,0,1,43,8.41a20.82,20.82,0,0,0-2.34,2.26,12.15,12.15,0,0,0-1.84,2.66Z"></path>
      <path class="cls-13" d="M41,13.4a23.77,23.77,0,0,0,2.82-3,23.76,23.76,0,0,1-2.71,3.14Z"></path>
      <path class="cls-13" d="M43.29,13a8,8,0,0,0,2.25-1.63,8.31,8.31,0,0,1-2.18,1.77Z"></path>
      <path class="cls-12" d="M43.26,15a10.4,10.4,0,0,1-11.42-1.9,6.9,6.9,0,0,1,3.87-1.46s-.35,1-.1,1.06a13.84,13.84,0,0,1,3.49-.63,2.69,2.69,0,0,0-.31.94c.05.22,1.89-.79,2.91-.72,0,0-.6,1-.13,1s1.3-.89,2.31-.91c0,0-.57,1-.1,1.08s1.89-1,2.5-1.08c0,0-.51.53-.24.72s1.57-.82,1.57-.82A15.57,15.57,0,0,1,43.26,15"></path>
      <path class="cls-13" d="M32.46,13.62a7.09,7.09,0,0,0,1.2-.51,11.71,11.71,0,0,0,1.12-.66,4.36,4.36,0,0,1-1.05.8A3.79,3.79,0,0,1,32.46,13.62Z"></path>
      <path class="cls-13" d="M34.52,14.79a10.46,10.46,0,0,0,1.7-.64,4.23,4.23,0,0,0,1.46-1.05,3.35,3.35,0,0,1-1.39,1.19A6.07,6.07,0,0,1,34.52,14.79Z"></path>
      <path class="cls-13" d="M36.1,15.53a18,18,0,0,0,2.29-.88,5.73,5.73,0,0,0,2-1.36,4.81,4.81,0,0,1-1.95,1.5A10.87,10.87,0,0,1,36.1,15.53Z"></path>
      <path class="cls-13" d="M39.27,15.91a12.11,12.11,0,0,0,1.95-1,7.16,7.16,0,0,0,1.68-1.42A5.46,5.46,0,0,1,41.31,15,8.24,8.24,0,0,1,39.27,15.91Z"></path>
      <path class="cls-12" d="M27.21,11.57s1.61,1.95,2.93-.17a21.66,21.66,0,0,0,1.69-2.91c0-.18-.36.18-.65.19s0-.18,0-.31A4.43,4.43,0,0,0,32,5.59s-.71.33-.83.22S31.55,4.2,31,3.25a2.26,2.26,0,0,1-1,.37s-.11-1.31-.7-1.64a1.48,1.48,0,0,1-.51.44s.38.07-1-.58a2.49,2.49,0,0,1-.31.81s-.54-.36-.6-.56-.2.88-.18,1.08S26,3,26,3s-.42,2.23.31,2.94a3.71,3.71,0,0,1-.85-.55c-.32-.29.2,1.5.38,1.79A2.62,2.62,0,0,1,25,7.11a4.51,4.51,0,0,0,1.23,2.34,1.15,1.15,0,0,1-.71,0S27,11.33,27.21,11.57Z"></path>
      <path class="cls-13" d="M28.32,3.3a26.28,26.28,0,0,1,.77,4.75,16.32,16.32,0,0,1-.35,4.78A18.67,18.67,0,0,0,29,8.05,31.9,31.9,0,0,0,28.32,3.3Z"></path>
      <path class="cls-13" d="M29.13,10.25A1.71,1.71,0,0,0,30,10a4.23,4.23,0,0,0,.78-.55,4.42,4.42,0,0,1-.74.62,1.86,1.86,0,0,1-.94.33Z"></path>
      <path class="cls-13" d="M25.84,8a14,14,0,0,0,1.5,1.39,7.76,7.76,0,0,0,.84.57,1.81,1.81,0,0,0,.94.26v.15a1.82,1.82,0,0,1-1-.31,6.44,6.44,0,0,1-.84-.61A13.23,13.23,0,0,1,25.84,8Z"></path>
      <path class="cls-13" d="M29.11,8.09a4.14,4.14,0,0,0,2.07-1.38,4.11,4.11,0,0,1-2,1.52Z"></path>
      <path class="cls-13" d="M26,6.3a5.38,5.38,0,0,0,1.37,1.28,2.92,2.92,0,0,0,1.75.5v.16a3.1,3.1,0,0,1-1.8-.59A5.5,5.5,0,0,1,26,6.3Z"></path>
      <path class="cls-13" d="M29,6.24a2.65,2.65,0,0,0,1.19-1.41,2.76,2.76,0,0,1-1.13,1.56Z"></path>
      <path class="cls-13" d="M26.49,4.46a4.9,4.9,0,0,0,1.05,1.26A1.94,1.94,0,0,0,29,6.24l0,.15a2,2,0,0,1-1.55-.61A5.11,5.11,0,0,1,26.49,4.46Z"></path>
      <path class="cls-13" d="M28.64,4.76a1.71,1.71,0,0,0,.66-1.14,1.82,1.82,0,0,1-.57,1.27Z"></path>
      <path class="cls-13" d="M27.21,3.36a3.5,3.5,0,0,0,.58.92,1.29,1.29,0,0,0,.9.47V4.9a1.41,1.41,0,0,1-1-.57A3.49,3.49,0,0,1,27.21,3.36Z"></path>
      <path class="cls-12" d="M17.74,6.58a3.89,3.89,0,0,0,1.82,2.68,2.84,2.84,0,0,0,2.65-.18,7.27,7.27,0,0,0,2.22-2.4l-.75.21a6.12,6.12,0,0,0,1.11-2.35s-.8.18-1,.21c0,0,.92-1.42.85-2A7.64,7.64,0,0,1,23.7,3a2.38,2.38,0,0,0,.62-1.52,3.27,3.27,0,0,1-.72.34,6.44,6.44,0,0,0,0-1.42s-.44.23-.6.33A3.39,3.39,0,0,0,23,0a6.29,6.29,0,0,1-.7.75S21.9.59,21.92.34c0,0-.62.33-.54.9a.51.51,0,0,1-.64-.47s-1,1.11-.78,1.91a.71.71,0,0,1-.69-.38,3.92,3.92,0,0,0-.21,2.06s-.67.13-.8-.23a4.66,4.66,0,0,0,.23,2.6A.6.6,0,0,1,17.74,6.58Z"></path>
      <path class="cls-13" d="M23.81,5.31A7.07,7.07,0,0,1,22.12,6.8a3.79,3.79,0,0,1-2.18.59l0-.16a3.62,3.62,0,0,0,2.12-.5A7.13,7.13,0,0,0,23.81,5.31Z"></path>
      <path class="cls-13" d="M20.08,10.66a5.8,5.8,0,0,1-.33-2.41,12.26,12.26,0,0,1,.55-2.38,18.56,18.56,0,0,1,.94-2.26,19.28,19.28,0,0,1,1.17-2.14,38.26,38.26,0,0,0-2,4.44,10.27,10.27,0,0,0-.6,2.35A5.92,5.92,0,0,0,20.08,10.66Z"></path>
      <path class="cls-13" d="M23.29,7.33a3.87,3.87,0,0,1-1.57,1.16,3.09,3.09,0,0,1-.95.24,4.06,4.06,0,0,1-1-.06h0a4,4,0,0,0,1.92-.23,3.92,3.92,0,0,0,1.59-1.11Z"></path>
      <path class="cls-13" d="M18.52,7.32a5.58,5.58,0,0,0,1.26,1.35A4.06,4.06,0,0,1,19,8.1,2.27,2.27,0,0,1,18.52,7.32Z"></path>
      <path class="cls-13" d="M18.8,5.47a4.58,4.58,0,0,0,.39,1.07,1.19,1.19,0,0,0,.77.69l0,.16a1.31,1.31,0,0,1-.82-.82A4.21,4.21,0,0,1,18.8,5.47Z"></path>
      <path class="cls-13" d="M20.52,5.39a3.23,3.23,0,0,0,1.62-.29A3.42,3.42,0,0,0,23.42,4a3.38,3.38,0,0,1-2.91,1.53Z"></path>
      <path class="cls-13" d="M19.38,3.64a3.76,3.76,0,0,0,.35,1.09,1,1,0,0,0,.79.66v.16a1.12,1.12,0,0,1-.85-.79A3.69,3.69,0,0,1,19.38,3.64Z"></path>
      <path class="cls-13" d="M20.9,4.37a5.19,5.19,0,0,1-.19-2.62A5.24,5.24,0,0,0,21,4.32Z"></path>
      <path class="cls-13" d="M23.42,2.63a2.1,2.1,0,0,1-1,1.2A4.53,4.53,0,0,1,21,4.42l0-.15a4.68,4.68,0,0,0,1.46-.5A2.05,2.05,0,0,0,23.42,2.63Z"></path>
      <path class="cls-13" d="M21.72,2.69a1.83,1.83,0,0,0,1.42-1.12,1.87,1.87,0,0,1-1.42,1.24Z"></path>
      <path class="cls-13" d="M21.45,1.47a1.28,1.28,0,0,0,.31,1.23l-.07.1A1.35,1.35,0,0,1,21.45,1.47Z"></path>
      <path class="cls-12" d="M13.74,10.86c.07,0,2.82.11,3.55-1.15a1.52,1.52,0,0,0,.15-.44,7,7,0,0,0,0-2.69s-.13.5-.33.6a5,5,0,0,0-1-2.83s-.13.66-.42.8A3.14,3.14,0,0,0,13.74,2.5s.26.86,0,1a5.62,5.62,0,0,0-2.47-1.74,3.52,3.52,0,0,1,.21,1A12.89,12.89,0,0,0,9.89,2,5,5,0,0,1,9.6,3.05a10.27,10.27,0,0,0-1-.15s.25.58.29.74l-.81.09S9.22,5.67,9.87,6l-1.52.35h0a29.88,29.88,0,0,0,2.42,1.91s-1.34.43-1.51.45C9.22,8.67,10.2,10.58,13.74,10.86Z"></path>
      <path class="cls-13" d="M9.63,3.92A23,23,0,0,0,13,7.43,10.36,10.36,0,0,0,17.29,9.7v0A6.34,6.34,0,0,1,15,9a11.69,11.69,0,0,1-2-1.42,22.26,22.26,0,0,1-3.33-3.6Z"></path>
      <path class="cls-13" d="M14.46,4.24A6.59,6.59,0,0,1,14.5,6a4.82,4.82,0,0,1-.45,1.66A2.58,2.58,0,0,1,12.8,8.81a3,3,0,0,1-1.71.13,3.49,3.49,0,0,0,1.67-.23,2.44,2.44,0,0,0,1.15-1.16,4.48,4.48,0,0,0,.48-1.61A9.64,9.64,0,0,0,14.46,4.24Z"></path>
      <path class="cls-13" d="M16.22,5.84a6.12,6.12,0,0,1-.4,2.84,2.78,2.78,0,0,1-.89,1.15,2.19,2.19,0,0,1-1.38.37,2.74,2.74,0,0,0,1.32-.45,2.69,2.69,0,0,0,.81-1.13A7.48,7.48,0,0,0,16.22,5.84Z"></path>
      <path class="cls-13" d="M12.8,4a5.68,5.68,0,0,1,.13,1.3,3.39,3.39,0,0,1-.27,1.29,1.33,1.33,0,0,1-1.07.74,2.43,2.43,0,0,1-1.27-.27,3.23,3.23,0,0,0,1.26.17,1.19,1.19,0,0,0,.94-.71,3,3,0,0,0,.3-1.22A9.43,9.43,0,0,0,12.8,4Z"></path>
      <path class="cls-13" d="M11.09,5.59c-.08,0,0,0,0-.09a.94.94,0,0,0,0-.16c0-.11,0-.22,0-.33a3,3,0,0,0-.07-.66,2.54,2.54,0,0,0-.63-1.16,2.55,2.55,0,0,1,.7,1.14,2.62,2.62,0,0,1,.12.68c0,.11,0,.23,0,.35a1.11,1.11,0,0,1,0,.17c0,.07,0,.09-.13.22Z"></path>
      <path class="cls-13" d="M9,4.76a2.45,2.45,0,0,0,2.05.83v.16A2.53,2.53,0,0,1,9,4.76Z"></path>
      <path class="cls-12" d="M20,13.14s.13-3-3.72-2.09l.34.35a4.87,4.87,0,0,0-2.07.54,3.61,3.61,0,0,1,.72.21c0,.06-2.07,1-2.42,2l1.08.1a3.44,3.44,0,0,0-1.2,2.53s.46-.3.6-.25-.72,1.61-.19,2.29c0,0,.29-.55.58-.58,0,0-.06.94.11,1.14,0,0,.22-.72.45-.76,0,0,.25.39.15.62,0,0,1.11-.68,1.3-1.37,0,0,.25.52.15.75,0,0,1.64-1.43,1.73-1.82,0,0,.25.41.18.58s1.61-1,1.41-1.95c0,0,.3.23.23.46A12.7,12.7,0,0,0,20,13.14Z"></path>
      <path class="cls-13" d="M13.52,17.57a22,22,0,0,1,1.11-2.16,10.15,10.15,0,0,1,1.39-2,8,8,0,0,1,1.85-1.58,6.56,6.56,0,0,1,2.21-1,7.39,7.39,0,0,0-2.18,1,7.63,7.63,0,0,0-1.8,1.6A21.3,21.3,0,0,0,13.52,17.57Z"></path>
      <path class="cls-13" d="M17.2,12.39a4.55,4.55,0,0,0-1.87-.4,4.54,4.54,0,0,1,1.93.26Z"></path>
      <path class="cls-13" d="M18,16.12a16.33,16.33,0,0,0-.14-2,7.79,7.79,0,0,0-.2-1,1.45,1.45,0,0,0-.46-.79l.06-.14a1.39,1.39,0,0,1,.51.9,5.41,5.41,0,0,1,.16,1A14.65,14.65,0,0,1,18,16.12Z"></path>
      <path class="cls-13" d="M15.62,13.78a9.68,9.68,0,0,0-1.53-.16,9,9,0,0,1,1.56,0Z"></path>
      <path class="cls-13" d="M16.11,17.82a15.32,15.32,0,0,0,.08-2.14,6.14,6.14,0,0,0-.12-1,1.21,1.21,0,0,0-.47-.85l.07-.14a1.37,1.37,0,0,1,.52,1,7.59,7.59,0,0,1,.08,1.07A15.3,15.3,0,0,1,16.11,17.82Z"></path>
      <path class="cls-13" d="M15,15a1.12,1.12,0,0,0-.76.22,3.5,3.5,0,0,0-.66.56,4,4,0,0,1,.61-.62,1.25,1.25,0,0,1,.85-.31Z"></path>
      <path class="cls-13" d="M15.28,16.66a4.52,4.52,0,0,0,0-.9c0-.29-.11-.62-.34-.75l.08-.13a1.1,1.1,0,0,1,.34.87A4.6,4.6,0,0,1,15.28,16.66Z"></path>
      <path class="cls-19" d="M23.6,18.35a1.88,1.88,0,0,1,.49,1.35c0,.09.16.1.15,0a2,2,0,0,0-.53-1.46c-.07-.06-.18.05-.11.11Z"></path>
      <path class="cls-20" d="M26.73,14.12a5.57,5.57,0,0,0,1,.21,1.51,1.51,0,0,1-.26.67c-.1.07.27.19.27.19s-.65,1.11-.86,1.16c0,0,.28.19.4.13a3.94,3.94,0,0,1-1,.82c-.28.08.27.14.27.14a4,4,0,0,1-1.64.59C24.16,18.05,26.73,14.12,26.73,14.12Z"></path>
      <path class="cls-12" d="M24.09,18.19A4.26,4.26,0,0,1,27,13.35a1.83,1.83,0,0,0,.07.61,2.5,2.5,0,0,0,.32,0A2.55,2.55,0,0,1,27,15.15c-.22.23.37.08.37.08a4,4,0,0,1-1,1.34s.38.09.47,0a5,5,0,0,1-1.21.94c-.36.11.27.17.27.17S24.68,18.41,24.09,18.19Z"></path>
      <path class="cls-19" d="M23.91,17.65s.31.24,1.11-1.68l-.27.08s.69-1.48.42-1.87a1.73,1.73,0,0,1-.24.1,2,2,0,0,0-.84-1.58c-.16-.14-.11.18-.11.18a4.81,4.81,0,0,1-.69-.46l-.1.16a2.06,2.06,0,0,0-.42-.28s0,.61.16.68.16-.25.16-.25a1.48,1.48,0,0,1,.24,1.13s.28.17.4.11.12,1-.06,1.15.44.44.44.44A4.92,4.92,0,0,1,23.91,17.65Z"></path>
      <path class="cls-13" d="M24.05,16.88c.08-.11.15-.09.21-.14a.76.76,0,0,0,.19-.12,2,2,0,0,0,.3-.34,1.72,1.72,0,0,1-.28.37l-.18.14c-.05,0-.16.09-.17.1Z"></path>
      <path class="cls-13" d="M23.92,15.71a1.37,1.37,0,0,0,.55-.41,3.35,3.35,0,0,0,.39-.59,3.37,3.37,0,0,1-.36.61,1.48,1.48,0,0,1-.56.46Z"></path>
      <path class="cls-13" d="M23.57,14.63a2.18,2.18,0,0,0,.67-1.37,2.19,2.19,0,0,1-.62,1.42Z"></path>
      <path class="cls-13" d="M23.13,13.57a3.7,3.7,0,0,0,.28-.77,3.89,3.89,0,0,1-.22.81Z"></path>
      <path class="cls-20" d="M23.91,17.65a4.49,4.49,0,0,1-1.13-5.35,1.62,1.62,0,0,0,.15.68s.16-.25.16-.25a1.28,1.28,0,0,1,.24,1.12.63.63,0,0,0,.43.09,2.13,2.13,0,0,1-.11,1.29,2,2,0,0,0,.46.33A4.2,4.2,0,0,1,23.91,17.65Z"></path>
      <path class="cls-19" d="M23.78,18.43s.42,0-.24-2.16l-.17.25s-.43-1.72-.94-1.86a1,1,0,0,1-.13.25,2.16,2.16,0,0,0-1.79-.75c-.23,0,0,.23,0,.23a4.78,4.78,0,0,1-.89.1l0,.2a2.28,2.28,0,0,0-.54.06s.4.51.6.46,0-.33,0-.33a1.61,1.61,0,0,1,1,.78s.35-.05.41-.18.76.72.75,1,.67.06.67.06A5.43,5.43,0,0,1,23.78,18.43Z"></path>
      <path class="cls-13" d="M23.37,17.7c0-.15.05-.18.07-.26a1.09,1.09,0,0,0,.07-.24,1.55,1.55,0,0,0,0-.48,1.6,1.6,0,0,1,0,.49,2,2,0,0,1-.05.24c0,.07-.07.19-.07.21Z"></path>
      <path class="cls-13" d="M22.44,16.81a1.49,1.49,0,0,0,.18-.73,2.81,2.81,0,0,0-.08-.76,3.34,3.34,0,0,1,.12.76,1.59,1.59,0,0,1-.15.77Z"></path>
      <path class="cls-13" d="M21.41,16.14a2.35,2.35,0,0,0-.39-1.6,2.32,2.32,0,0,1,.46,1.61Z"></path>
      <path class="cls-13" d="M20.31,15.56a3.76,3.76,0,0,0-.3-.83,2.52,2.52,0,0,1,.21.4,4.08,4.08,0,0,1,.17.42Z"></path>
      <path class="cls-12" d="M23.78,18.43a4.87,4.87,0,0,1-4.65-3.69,1.86,1.86,0,0,0,.6.46c.06,0,0-.32,0-.32.17.06.51.06,1,.78a.72.72,0,0,0,.42-.22,2.27,2.27,0,0,1,.8,1.15,2.39,2.39,0,0,0,.61,0A4.74,4.74,0,0,1,23.78,18.43Z"></path>
      <path class="cls-5" d="M24.84,26.76s.45,2.3-.19,2.39-.15-.93-.15-1A7.09,7.09,0,0,0,24.84,26.76Z"></path>
      <path class="cls-21" d="M24.31,29.17s-.91-1.55-.35-2.41c0,0,.71,1.17.78,1.37S25.07,29.65,24.31,29.17Z"></path>
    </g>
  </g>
</svg>
