<?xml version="1.0" encoding="UTF-8"?>
<svg xmlns="http://www.w3.org/2000/svg" xmlns:xlink="http://www.w3.org/1999/xlink" viewBox="0 0 126.71 221.87">
  <defs>
    <style>.cls-1{fill:#56524b;}.cls-2{fill:#22211a;}.cls-3{fill:#7f7b70;}.cls-4{fill:#c69370;}.cls-5{fill:#a0cae7;}.cls-6{fill:#d0e6f5;}.cls-7{fill:#b8d8ee;}.cls-8{fill:#85563a;}.cls-9{fill:#8e6848;}.cls-10{fill:#713e21;}.cls-11{fill:#9b714f;}.cls-12{fill:#3d271f;}.cls-13{fill:#69391e;}.cls-14{fill:#6b482f;}.cls-15{fill:#5c3624;}.cls-16{fill:#795135;}.cls-17{fill:#9a734f;}.cls-18{clip-path:url(#clip-path);}.cls-19{clip-path:url(#clip-path-2);}.cls-20{fill:#56534b;}.cls-21{clip-path:url(#clip-path-3);}.cls-22{fill:#d1cdc5;}.cls-23{clip-path:url(#clip-path-4);}.cls-24{fill:#ecac76;}</style>
    <clipPath id="clip-path">
      <path class="cls-1" d="M94.79,120.16c-5.45,7.08-14.49,9.13-14.49,9.13a26.5,26.5,0,0,1-.53-17.06C81.85,105.35,93,86.71,93,86.71a1.25,1.25,0,0,1,1.69-.53l4.53,2.39,1.43-2.71,4.22,2.24-1.43,2.7,4.3,2.27a1.27,1.27,0,0,1,.53,1.7S99.17,114.46,94.79,120.16Z"></path>
    </clipPath>
    <clipPath id="clip-path-2">
      <ellipse class="cls-2" cx="102.91" cy="86.41" rx="9.14" ry="1.51" transform="translate(-21.55 137.06) rotate(-62.16)"></ellipse>
    </clipPath>
    <clipPath id="clip-path-3">
      <rect class="cls-3" x="100.57" y="83.28" width="6.16" height="3.84" rx="1.92" transform="translate(51.77 -38.54) rotate(27.84)"></rect>
    </clipPath>
    <clipPath id="clip-path-4">
      <path class="cls-4" d="M113.37,48.64h0a4.06,4.06,0,0,1,4.06,4.06V84.8a1.06,1.06,0,0,1-1.06,1.06h-6a1.06,1.06,0,0,1-1.06-1.06V52.7A4.06,4.06,0,0,1,113.37,48.64Z" transform="translate(44.52 -45.16) rotate(27.84)"></path>
    </clipPath>
  </defs>
  <g id="Слой_2" data-name="Слой 2">
    <g id="Слой_1-2" data-name="Слой 1">
      <path class="cls-5" d="M32.27,42.94S22,53.3,27.05,58.87s12.61.49,9.8-6.91C34.33,45.33,32.27,42.94,32.27,42.94Z"></path>
      <path class="cls-6" d="M28.89,52.65c.36-1.06,1.15-3.5,1.47-4.38a23.13,23.13,0,0,1,1.39-2.86s1-1.88-1.51.82-4,7.65-3.28,7.94C27.56,54.4,28.55,53.7,28.89,52.65Z"></path>
      <path class="cls-7" d="M34.61,56.23c-.3,1-.15,1.94.32,2.08a1.83,1.83,0,0,0,1.86-1.38A1.9,1.9,0,0,0,36,54.65C35.53,54.55,34.91,55.22,34.61,56.23Z"></path>
      <path class="cls-5" d="M49.35,42.94S39.11,53.3,44.12,58.87s12.61.49,9.8-6.91C51.4,45.33,49.35,42.94,49.35,42.94Z"></path>
      <path class="cls-6" d="M46,52.65c.35-1.06,1.15-3.5,1.46-4.38a23.13,23.13,0,0,1,1.39-2.86s1-1.88-1.51.82-4,7.65-3.28,7.94C44.63,54.4,45.62,53.7,46,52.65Z"></path>
      <path class="cls-7" d="M51.69,56.23c-.3,1-.16,1.94.31,2.08a1.83,1.83,0,0,0,1.86-1.38,1.88,1.88,0,0,0-.77-2.28C52.61,54.55,52,55.22,51.69,56.23Z"></path>
      <path class="cls-5" d="M66.42,42.94S56.18,53.3,61.19,58.87,73.8,59.36,71,52C68.47,45.33,66.42,42.94,66.42,42.94Z"></path>
      <path class="cls-6" d="M63,52.65c.35-1.06,1.15-3.5,1.46-4.38a23.13,23.13,0,0,1,1.39-2.86s1-1.88-1.51.82-4,7.65-3.28,7.94S62.69,53.7,63,52.65Z"></path>
      <path class="cls-7" d="M68.76,56.23c-.3,1-.16,1.94.32,2.08a1.84,1.84,0,0,0,1.86-1.38,1.9,1.9,0,0,0-.78-2.28C69.68,54.55,69.06,55.22,68.76,56.23Z"></path>
      <path class="cls-5" d="M42.75,20.25S32.51,30.6,37.52,36.18s12.61.48,9.8-6.91C44.8,22.64,42.75,20.25,42.75,20.25Z"></path>
      <path class="cls-6" d="M39.37,30c.35-1.07,1.15-3.51,1.46-4.39a23.5,23.5,0,0,1,1.39-2.85s1-1.88-1.51.81-4,7.66-3.28,7.94C38,31.7,39,31,39.37,30Z"></path>
      <path class="cls-7" d="M45.08,33.53c-.3,1-.15,1.95.32,2.09a1.85,1.85,0,0,0,1.86-1.38A1.89,1.89,0,0,0,46.49,32C46,31.85,45.38,32.52,45.08,33.53Z"></path>
      <path class="cls-5" d="M59.82,20.25S49.58,30.6,54.59,36.18s12.61.48,9.8-6.91C61.87,22.64,59.82,20.25,59.82,20.25Z"></path>
      <path class="cls-6" d="M56.44,30c.35-1.07,1.15-3.51,1.46-4.39a23.5,23.5,0,0,1,1.39-2.85s1-1.88-1.51.81-4,7.66-3.28,7.94S56.09,31,56.44,30Z"></path>
      <path class="cls-7" d="M62.16,33.53c-.3,1-.16,1.95.31,2.09a1.86,1.86,0,0,0,1.87-1.38c.3-1.2-.3-2.18-.78-2.28S62.46,32.52,62.16,33.53Z"></path>
      <path class="cls-5" d="M52.18,0S41.94,10.35,47,15.93s12.6.48,9.79-6.91C54.23,2.39,52.18,0,52.18,0Z"></path>
      <path class="cls-6" d="M48.8,9.71C49.15,8.64,50,6.2,50.26,5.32a23.94,23.94,0,0,1,1.39-2.86s1-1.87-1.51.82-4,7.65-3.28,7.94S48.45,10.76,48.8,9.71Z"></path>
      <path class="cls-7" d="M54.52,13.28c-.3,1-.16,2,.32,2.09A1.85,1.85,0,0,0,56.7,14c.3-1.2-.3-2.18-.78-2.28S54.82,12.27,54.52,13.28Z"></path>
      <polygon class="cls-8" points="6.5 202.06 48.58 221.87 87.5 202.16 47.04 185.02 6.5 202.06"></polygon>
      <polygon class="cls-8" points="0 145.86 48.58 166.16 92.72 147.44 48.58 131.87 0 145.86"></polygon>
      <path class="cls-9" d="M48.58,166.16v25.5s13.43-9.91,18.88-10.4,16.08,20.41,20,20.9l5.22-54.72Z"></path>
      <path class="cls-10" d="M3.55,176.3l3,25.76,42.08,19.81V191.66s-23.23-9.91-25.71-13.38S3.55,176.3,3.55,176.3Z"></path>
      <path class="cls-11" d="M0,145.86,3.55,176.3s4.54.37,9.42.5c6.11.16,11.88,4.13,16.51,8.75,5.37,5.37,19.1,6.11,19.1,6.11v-25.5Z"></path>
      <path class="cls-12" d="M32.38,194.89a1.94,1.94,0,0,0-.1-.75h0s-.32-.85-1.07-.87-1.2.42-1.15.65a1.7,1.7,0,0,0,.16.35h0a6.83,6.83,0,0,0,.63.53l.12.09.12.09c.29.2.26.28.56.35a.93.93,0,0,0,.62-.16.36.36,0,0,0,.06-.11h0A.2.2,0,0,0,32.38,194.89Z"></path>
      <path class="cls-12" d="M14,191.38a3.55,3.55,0,0,0-1.26.69h0a2.55,2.55,0,0,0-.77,2.49c.49,1.34,1.59,1.82,2,1.57a4.74,4.74,0,0,0,.49-.54s0,0,0,0a11.07,11.07,0,0,0,.48-1.49.68.68,0,0,0,.08-.26c0-.07,0-.15.07-.28.16-.66.33-.65.22-1.23a1.7,1.7,0,0,0-.71-1,1.07,1.07,0,0,0-.23,0h0A.42.42,0,0,0,14,191.38Z"></path>
      <path class="cls-12" d="M43.68,208.51a9.39,9.39,0,0,0-1.6-3.21h0s-2.79-3.29-6.19-2.19-4.71,3.83-4.12,4.79a12,12,0,0,0,1.29,1.28s.08,0,.11,0c1,.64,2.86.95,3.68,1.36a2.08,2.08,0,0,0,.65.21l.71.22c1.63.46,1.6.87,3.06.66A4.31,4.31,0,0,0,43.8,210a2.49,2.49,0,0,0,.11-.58h0l0-.06A1.06,1.06,0,0,0,43.68,208.51Z"></path>
      <path class="cls-12" d="M21.69,197.33a6.89,6.89,0,0,0-1.57,2.26h0s-1.18,3.08.82,5,4.3,1.75,4.73,1A10.65,10.65,0,0,0,26,204.2s0,0,0-.08a23.14,23.14,0,0,0-.44-3,1.63,1.63,0,0,0-.09-.52c0-.14-.06-.29-.12-.55-.29-1.26,0-1.39-.68-2.3a3.35,3.35,0,0,0-2.06-1.07,2.59,2.59,0,0,0-.43.14h0l0,0A.81.81,0,0,0,21.69,197.33Z"></path>
      <path class="cls-13" d="M48.58,191.66S58,178.28,68.94,178s21.63-8.25,21.63-8.25L87.5,202.16,48.58,221.87Z"></path>
      <path class="cls-12" d="M62.46,196.75a9.28,9.28,0,0,0-3.38,1.11v0s-3.62,2.27-3,5.76,3.08,5.17,4.11,4.72a13,13,0,0,0,1.44-1.08s0-.08,0-.11c.77-.89,1.34-2.66,1.86-3.41a1.87,1.87,0,0,0,.3-.61c.09-.17.17-.35.31-.66.68-1.53,1.08-1.45,1.09-2.91a4.32,4.32,0,0,0-1.29-2.71,2.84,2.84,0,0,0-.56-.18v0h-.07A1.09,1.09,0,0,0,62.46,196.75Z"></path>
      <path class="cls-12" d="M80.34,195.7a2.85,2.85,0,0,0-1-.26h0a2,2,0,0,0-1.72,1c-.41,1,0,1.83.3,1.88a3,3,0,0,0,.55,0s0,0,0,0a10.53,10.53,0,0,0,1-.58.56.56,0,0,0,.18-.11l.19-.12c.42-.29.51-.2.75-.58a1.31,1.31,0,0,0,.11-.9l-.12-.14h0A.35.35,0,0,0,80.34,195.7Z"></path>
      <path class="cls-12" d="M77.11,186.32a7.28,7.28,0,0,0-2.39-1.4v0s-3.18-1-4.92,1.19-1.44,4.46-.65,4.83a9.92,9.92,0,0,0,1.37.29s0,0,.08,0a22.32,22.32,0,0,0,3-.67,1.55,1.55,0,0,0,.51-.13l.55-.16c1.25-.39,1.4-.11,2.27-.86a3.34,3.34,0,0,0,.91-2.14,2.17,2.17,0,0,0-.17-.42h0l0,0A.84.84,0,0,0,77.11,186.32Z"></path>
      <path class="cls-14" d="M45.63,154.18a1.35,1.35,0,0,0-1.29-.47c-.72.22-1,.79-.88,1a2.27,2.27,0,0,0,.27.27c.18.18.56-.32.57-.32Z"></path>
      <path class="cls-15" d="M46,155.05s-.22-1-.59-1a7.74,7.74,0,0,1-.78-.07l-.1.18s.36.64.51.69l.48.14A3.4,3.4,0,0,0,46,155.05Z"></path>
      <path class="cls-16" d="M46,155.17c0-.09.09-.31-.14-.38a3.22,3.22,0,0,0-.47-.1s-.59.44-.7.51-.2.06.14.16.33.19.64.15A.91.91,0,0,0,46,155.17Z"></path>
      <path class="cls-17" d="M45.36,154.69a4.44,4.44,0,0,0-.43.42c-.17.2-.2.27-.41.16s-.74-.18-.88-.38-.13-.18,0-.43a1,1,0,0,1,.69-.42.6.6,0,0,1,.68.15A1.55,1.55,0,0,1,45.36,154.69Z"></path>
      <path class="cls-14" d="M42.7,137.64a2,2,0,0,0-2-.29c-1,.54-1.19,1.44-1,1.69a3,3,0,0,0,.46.31c.31.19.7-.63.72-.64Z"></path>
      <path class="cls-15" d="M43.49,138.76s-.62-1.33-1.15-1.23a11.13,11.13,0,0,1-1.14.14l-.09.28s.71.81.94.84.65,0,.75.06A5.09,5.09,0,0,0,43.49,138.76Z"></path>
      <path class="cls-16" d="M43.49,138.94c0-.13,0-.47-.32-.49a4.8,4.8,0,0,0-.71,0s-.7.81-.85,1-.26.14.26.18.53.17,1,0A1.35,1.35,0,0,0,43.49,138.94Z"></path>
      <path class="cls-17" d="M42.46,138.45a5.76,5.76,0,0,0-.49.73c-.18.35-.21.44-.53.36s-1.12,0-1.38-.28-.25-.22-.08-.63.41-.56.86-.81a.88.88,0,0,1,1,0A2.21,2.21,0,0,1,42.46,138.45Z"></path>
      <path class="cls-14" d="M38.74,143.71s-4.12-2.06-7,.45-3,5.74-2,6.43a12.32,12.32,0,0,0,1.81.72c1.19.44,1.93-2.65,2-2.7S38.74,143.71,38.74,143.71Z"></path>
      <path class="cls-15" d="M42.26,147s-3.06-4.09-4.8-3.38-3.78,1.3-3.78,1.3l-.11,1s3,2.24,3.8,2.17,2.23-.33,2.58-.33A18.78,18.78,0,0,0,42.26,147Z"></path>
      <path class="cls-16" d="M42.37,147.58c0-.45-.2-1.62-1.43-1.46a17.18,17.18,0,0,0-2.43.52s-1.8,3.27-2.2,3.83-.77.69,1,.45,1.93.19,3.29-.63A4.64,4.64,0,0,0,42.37,147.58Z"></path>
      <path class="cls-17" d="M38.51,146.64a20.31,20.31,0,0,0-1.13,2.84c-.37,1.3-.39,1.65-1.57,1.59s-3.82.7-4.88,0-1-.57-.71-2.08,1-2.21,2.33-3.37a3.07,3.07,0,0,1,3.49-.74A7.89,7.89,0,0,1,38.51,146.64Z"></path>
      <path class="cls-14" d="M53,144.57s-3.45-2-6.1,0-3,4.8-2.15,5.46a10.33,10.33,0,0,0,1.52.74c1,.45,1.83-2.19,1.89-2.23S53,144.57,53,144.57Z"></path>
      <path class="cls-15" d="M55.84,147.61s-2.41-3.74-4-3.22-3.36.9-3.36.9l-.16.89s2.48,2.12,3.17,2.11,1.95-.15,2.26-.13A15.33,15.33,0,0,0,55.84,147.61Z"></path>
      <path class="cls-16" d="M55.91,148.16c0-.4-.09-1.43-1.16-1.36a14.81,14.81,0,0,0-2.14.3s-1.76,2.73-2.14,3.2-.72.54.85.45,1.67.28,2.9-.35A4.07,4.07,0,0,0,55.91,148.16Z"></path>
      <path class="cls-17" d="M52.61,147.1a18.41,18.41,0,0,0-1.15,2.4c-.4,1.1-.44,1.41-1.46,1.29s-3.36.37-4.24-.27-.84-.56-.5-1.85a4.76,4.76,0,0,1,2.24-2.79,2.66,2.66,0,0,1,3.07-.42A6.87,6.87,0,0,1,52.61,147.1Z"></path>
      <path class="cls-14" d="M62.13,140.92s-3.4-2.63-6.49-.85-3.81,4.72-3,5.53a11.52,11.52,0,0,0,1.52,1c1,.62,2.25-2.09,2.32-2.12S62.13,140.92,62.13,140.92Z"></path>
      <path class="cls-15" d="M64.77,144.54s-2.06-4.31-3.79-4-3.69.5-3.69.5L57,142s2.36,2.59,3.1,2.67,2.1.1,2.42.16A16.7,16.7,0,0,0,64.77,144.54Z"></path>
      <path class="cls-16" d="M64.77,145.13c0-.42.1-1.53-1.06-1.6a15.46,15.46,0,0,0-2.32,0s-2.24,2.67-2.71,3.11-.83.49.86.6,1.74.52,3.13,0A4.35,4.35,0,0,0,64.77,145.13Z"></path>
      <path class="cls-17" d="M61.39,143.57a19.35,19.35,0,0,0-1.54,2.4c-.58,1.12-.66,1.44-1.73,1.18s-3.63-.06-4.48-.86-.82-.71-.28-2,1.3-1.85,2.75-2.68a2.89,2.89,0,0,1,3.34,0A7.32,7.32,0,0,1,61.39,143.57Z"></path>
      <path class="cls-14" d="M64.78,151.94a2.05,2.05,0,0,0,1.89-.93c.51-1,.17-1.94-.18-2a3.7,3.7,0,0,0-.58,0c-.39,0-.23,1-.25,1S64.78,151.94,64.78,151.94Z"></path>
      <path class="cls-15" d="M63.43,151.44s1.32.79,1.72.39.9-.8.9-.8l-.09-.3a4.28,4.28,0,0,0-1.31-.16c-.21.11-.58.35-.68.39A5.77,5.77,0,0,0,63.43,151.44Z"></path>
      <path class="cls-16" d="M63.32,151.29c.06.12.25.42.57.24a5.51,5.51,0,0,0,.61-.43s.12-1.12.17-1.32.14-.28-.33,0-.56.18-.84.56A1.37,1.37,0,0,0,63.32,151.29Z"></path>
      <path class="cls-17" d="M64.5,151.1a7.08,7.08,0,0,0,0-.92c0-.4-.09-.5.25-.62s1-.64,1.35-.57.35,0,.44.49a1.67,1.67,0,0,1-.26,1.21.94.94,0,0,1-.88.61A2.48,2.48,0,0,1,64.5,151.1Z"></path>
      <path class="cls-14" d="M32.33,152.67a2.64,2.64,0,0,0,2.49-1c.74-1.27.4-2.46,0-2.59a6.83,6.83,0,0,0-.74,0c-.49,0-.38,1.2-.4,1.23Z"></path>
      <path class="cls-15" d="M30.66,151.92s1.61,1.12,2.16.64,1.21-.93,1.21-.93l-.09-.4a5.4,5.4,0,0,0-1.65-.32c-.28.13-.76.4-.89.44A6,6,0,0,0,30.66,151.92Z"></path>
      <path class="cls-16" d="M30.54,151.71c.07.16.27.57.7.36a6.5,6.5,0,0,0,.82-.49s.25-1.41.33-1.66.19-.35-.43,0-.72.17-1.12.63A1.77,1.77,0,0,0,30.54,151.71Z"></path>
      <path class="cls-17" d="M32.06,151.58a8.75,8.75,0,0,0,.06-1.17c0-.52-.06-.65.37-.77s1.31-.73,1.78-.61.43.08.51.67a2.08,2.08,0,0,1-.44,1.51,1.15,1.15,0,0,1-1.17.69A3,3,0,0,1,32.06,151.58Z"></path>
      <path class="cls-14" d="M43.74,146.16a1.54,1.54,0,0,0,1.54.27c.76-.39,1-1.08.78-1.29a4.12,4.12,0,0,0-.36-.25c-.23-.15-.55.48-.57.48Z"></path>
      <path class="cls-15" d="M43.15,145.27s.45,1,.86,1a8.51,8.51,0,0,1,.89-.09L45,146s-.54-.64-.71-.66-.5,0-.58-.07S43.15,145.27,43.15,145.27Z"></path>
      <path class="cls-16" d="M43.16,145.13c0,.1,0,.37.23.4s.56,0,.56,0,.56-.61.67-.71.21-.11-.19-.16-.41-.14-.75,0A1,1,0,0,0,43.16,145.13Z"></path>
      <path class="cls-17" d="M44,145.54a5.44,5.44,0,0,0,.39-.56c.15-.26.17-.33.42-.26s.87.05,1.06.25.19.18,0,.49a1.27,1.27,0,0,1-.69.61.68.68,0,0,1-.79,0A1.67,1.67,0,0,1,44,145.54Z"></path>
      <path class="cls-14" d="M57.61,152s3.88.94,5.82-1.73,1.44-5.41.48-5.81a11.67,11.67,0,0,0-1.66-.26c-1.09-.14-1.12,2.61-1.17,2.66S57.61,152,57.61,152Z"></path>
      <path class="cls-15" d="M54,150s3.36,2.86,4.69,1.92,2.93-1.82,2.93-1.82l-.1-.9s-3-1.3-3.62-1.09-1.82.7-2.11.77A15.59,15.59,0,0,0,54,150Z"></path>
      <path class="cls-16" d="M53.81,149.46c.12.37.48,1.32,1.49.95a15.16,15.16,0,0,0,2-.9s.89-3.11,1.11-3.66.52-.72-.94-.18-1.67.21-2.65,1.16A4,4,0,0,0,53.81,149.46Z"></path>
      <path class="cls-17" d="M57.25,149.51a19.48,19.48,0,0,0,.4-2.61c.06-1.17,0-1.47,1-1.65s3.1-1.32,4.12-1,1,.29,1,1.61a4.77,4.77,0,0,1-1.32,3.3,2.67,2.67,0,0,1-2.8,1.29A6.91,6.91,0,0,1,57.25,149.51Z"></path>
      <path class="cls-14" d="M39.77,149.78s2.32,1.31,4-.06,1.91-3.22,1.36-3.65a7.27,7.27,0,0,0-1-.47c-.67-.29-1.19,1.48-1.23,1.5S39.77,149.78,39.77,149.78Z"></path>
      <path class="cls-15" d="M37.83,147.81s1.65,2.45,2.67,2.08,2.22-.64,2.22-.64l.1-.6s-1.68-1.37-2.14-1.36-1.29.13-1.49.12A9.64,9.64,0,0,0,37.83,147.81Z"></path>
      <path class="cls-16" d="M37.78,147.44c0,.27.07.95.79.89A10.65,10.65,0,0,0,40,148.1s1.14-1.84,1.38-2.15.47-.38-.57-.29-1.11-.17-1.92.27A2.63,2.63,0,0,0,37.78,147.44Z"></path>
      <path class="cls-17" d="M40,148.1a12.82,12.82,0,0,0,.74-1.61c.25-.74.27-1,1-.88s2.23-.29,2.82.13.57.36.35,1.22a3.14,3.14,0,0,1-1.44,1.88,1.78,1.78,0,0,1-2,.33A4.59,4.59,0,0,1,40,148.1Z"></path>
      <path class="cls-1" d="M94.79,120.16c-5.45,7.08-14.49,9.13-14.49,9.13a26.5,26.5,0,0,1-.53-17.06C81.85,105.35,93,86.71,93,86.71a1.25,1.25,0,0,1,1.69-.53l4.53,2.39,1.43-2.71,4.22,2.24-1.43,2.7,4.3,2.27a1.27,1.27,0,0,1,.53,1.7S99.17,114.46,94.79,120.16Z"></path>
      <g class="cls-18">
        <rect class="cls-2" x="80.84" y="73.18" width="13.08" height="56.84" transform="translate(57.55 -29.04) rotate(27.84)"></rect>
      </g>
      <ellipse class="cls-2" cx="102.91" cy="86.41" rx="9.14" ry="1.51" transform="translate(-21.55 137.06) rotate(-62.16)"></ellipse>
      <g class="cls-19">
        <rect class="cls-20" x="95.99" y="70.62" width="8.17" height="23.83" transform="translate(50.12 -37.18) rotate(27.84)"></rect>
      </g>
      <rect class="cls-3" x="100.57" y="83.28" width="6.16" height="3.84" rx="1.92" transform="translate(51.77 -38.54) rotate(27.84)"></rect>
      <g class="cls-21">
        <rect class="cls-22" x="103.87" y="82.76" width="1.63" height="5.51" transform="translate(52.04 -38.99) rotate(27.84)"></rect>
        <rect class="cls-2" x="100.03" y="81.73" width="12.26" height="3.21" transform="translate(51.19 -39.93) rotate(27.84)"></rect>
      </g>
      <path class="cls-4" d="M113.37,48.64h0a4.06,4.06,0,0,1,4.06,4.06V84.8a1.06,1.06,0,0,1-1.06,1.06h-6a1.06,1.06,0,0,1-1.06-1.06V52.7A4.06,4.06,0,0,1,113.37,48.64Z" transform="translate(44.52 -45.16) rotate(27.84)"></path>
      <g class="cls-23">
        <path class="cls-24" d="M115.23,49.19h0A4.85,4.85,0,0,1,120.08,54V82.45a4.85,4.85,0,0,1-4.85,4.85h-3a1.85,1.85,0,0,1-1.85-1.85V54a4.85,4.85,0,0,1,4.85-4.85Z" transform="translate(45.2 -45.91) rotate(27.84)"></path>
      </g>
    </g>
  </g>
</svg>
