<?xml version="1.0" encoding="UTF-8"?>
<svg xmlns="http://www.w3.org/2000/svg" xmlns:xlink="http://www.w3.org/1999/xlink" viewBox="0 0 102.54 141.6">
  <defs>
    <style>.cls-1{fill:none;}.cls-2{fill:#8e6848;}.cls-3{clip-path:url(#clip-path);}.cls-4{fill:url(#Безымянный_градиент_2);}.cls-5{fill:#713e21;}.cls-6{fill:#3d271f;}.cls-7{fill:#69391e;}.cls-8{fill:#6b472f;}.cls-9{fill:#5c3624;}.cls-10{fill:#795135;}.cls-11{fill:#9a734f;}.cls-12{fill:#fff;}.cls-13{fill:#85563a;}.cls-14{fill:#aee28c;}.cls-15{fill:#b8d69c;}.cls-16{fill:#8ccd64;}.cls-17{fill:#9bd674;}.cls-18{fill:#83c271;}.cls-19{fill:#97d582;}.cls-20{fill:#649853;}.cls-21{fill:#80c455;}.cls-22{fill:#6b482f;}</style>
    <clipPath id="clip-path">
      <polygon class="cls-1" points="6.48 117.64 48.23 137.29 86.84 117.74 46.69 100.73 6.48 117.64"></polygon>
    </clipPath>
    <linearGradient id="Безымянный_градиент_2" x1="-4567.39" y1="-258.92" x2="-4565.05" y2="-258.92" gradientTransform="matrix(34.36, 0, 0, -34.36, 156915.76, -8776.24)" gradientUnits="userSpaceOnUse">
      <stop offset="0" stop-color="#9b714e"></stop>
      <stop offset="0.38" stop-color="#9b714e"></stop>
      <stop offset="0.89" stop-color="#764528"></stop>
      <stop offset="1" stop-color="#6e3c20"></stop>
    </linearGradient>
  </defs>
  <g id="Слой_2" data-name="Слой 2">
    <g id="Слой_1-2" data-name="Слой 1">
      <path class="cls-2" d="M48.22,82s8,9.43,14.25,9.82,27.41-6.32,27.41-6.32L92,63.45,48.22,48Z"></path>
      <path class="cls-2" d="M0,61.89,4.4,90.69S19.92,93,22.64,92.24s15.13-5.43,18.62-5.43,7-4.79,7-4.79V48Z"></path>
      <g class="cls-3">
        <rect class="cls-4" x="26.25" y="77.91" width="40.82" height="82.2" transform="translate(-74.68 159.21) rotate(-86.92)"></rect>
      </g>
      <path class="cls-5" d="M6.48,117.64,4.4,90.69s19.79-.39,25.22-3.11S48.23,82,48.23,82l-1.54,18.71Z"></path>
      <path class="cls-6" d="M34.69,92.36A7.1,7.1,0,0,0,32.32,91v0s-3.16-.94-4.88,1.18-1.43,4.42-.64,4.79a9.42,9.42,0,0,0,1.36.29l.07,0a23.76,23.76,0,0,0,2.93-.66,1.62,1.62,0,0,0,.51-.13l.54-.16c1.24-.39,1.39-.11,2.25-.85a3.34,3.34,0,0,0,.9-2.13l-.17-.42h0l0,0a.86.86,0,0,0-.49-.42"></path>
      <path class="cls-6" d="M17.74,95.14a9.13,9.13,0,0,0-3.35,1.11v0s-3.59,2.26-3,5.72,3,5.12,4.07,4.68a12.76,12.76,0,0,0,1.43-1.07l0-.11c.77-.88,1.33-2.64,1.85-3.39a1.7,1.7,0,0,0,.29-.6c.09-.17.18-.35.31-.66.68-1.51,1.08-1.43,1.09-2.88a4.29,4.29,0,0,0-1.29-2.68,2.65,2.65,0,0,0-.55-.19v0h-.06a1.08,1.08,0,0,0-.82.11"></path>
      <path class="cls-7" d="M48.22,82l-1.53,18.7,40.15,17,3-32.21s-12.51-1.44-17.94-.67S57,88,54.2,86.42a37.64,37.64,0,0,1-6-4.39"></path>
      <path class="cls-6" d="M32.93,101.24a2.75,2.75,0,0,0-1-.26h0a1.9,1.9,0,0,0-1.7,1c-.41,1,0,1.81.29,1.86l.54,0,0,0c.34-.11.77-.47,1-.58l.17-.11.19-.12c.42-.28.51-.19.74-.57a1.31,1.31,0,0,0,.11-.9l-.11-.13h0Z"></path>
      <path class="cls-6" d="M72.27,93.19a1.89,1.89,0,0,0-.1-.74h0s-.32-.85-1.06-.87-1.2.42-1.15.65l.17.35h0l.63.52.11.09.12.09c.29.21.25.29.56.35a.91.91,0,0,0,.61-.16l.06-.1h0v0Z"></path>
      <path class="cls-6" d="M83.48,106.71a9.37,9.37,0,0,0-1.59-3.19h0s-2.77-3.26-6.14-2.17-4.67,3.79-4.08,4.75A11.58,11.58,0,0,0,73,107.36l.11,0c1,.64,2.84.94,3.66,1.35a1.89,1.89,0,0,0,.64.21l.7.21c1.62.46,1.59.87,3,.66a4.27,4.27,0,0,0,2.49-1.67,2.88,2.88,0,0,0,.11-.57h0l0-.06a1.07,1.07,0,0,0-.23-.8"></path>
      <path class="cls-6" d="M61.66,95.61a7.25,7.25,0,0,0-1.56,2.25v0s-1.17,3.06.81,4.93,4.26,1.74,4.69,1a9,9,0,0,0,.38-1.33l0-.08a25.09,25.09,0,0,0-.43-2.95,1.83,1.83,0,0,0-.1-.51c0-.14-.06-.3-.11-.55-.29-1.25,0-1.38-.68-2.29a3.28,3.28,0,0,0-2-1l-.43.14h0l0,0a.8.8,0,0,0-.45.45"></path>
      <path class="cls-8" d="M61.81,118.48a1.31,1.31,0,0,0,1.31-.35c.46-.58.36-1.19.15-1.29l-.37-.07c-.24,0-.26.58-.28.59Z"></path>
      <path class="cls-9" d="M61,118s.73.66,1,.46.67-.39.67-.39l0-.2-.8-.27-.47.16Z"></path>
      <path class="cls-10" d="M61,117.88c0,.09.1.3.33.23s.44-.19.44-.19l.27-.81c.06-.12.12-.16-.21,0s-.37,0-.6.25a.9.9,0,0,0-.23.57"></path>
      <path class="cls-11" d="M61.75,117.92a5.45,5.45,0,0,0,.11-.58c0-.26,0-.33.23-.36s.7-.28.93-.19.21.07.21.37a1,1,0,0,1-.32.72.56.56,0,0,1-.63.27,1.5,1.5,0,0,1-.53-.23"></path>
      <path class="cls-8" d="M52.89,113.36s2,.11,2.71-1.39.21-2.81-.3-2.91a4.94,4.94,0,0,0-.84,0c-.55,0-.31,1.39-.33,1.42Z"></path>
      <path class="cls-9" d="M50.93,112.68s1.92,1.1,2.49.51S54.7,112,54.7,112l-.13-.43a6.23,6.23,0,0,0-1.89-.21c-.31.17-.83.52-1,.58Z"></path>
      <path class="cls-10" d="M50.77,112.45c.09.17.36.61.83.33a9.22,9.22,0,0,0,.88-.62s.15-1.62.21-1.91.19-.41-.49,0-.8.26-1.2.82a2.08,2.08,0,0,0-.23,1.39"></path>
      <path class="cls-11" d="M52.48,112.16a9.07,9.07,0,0,0,0-1.33c-.07-.58-.13-.73.35-.91s1.4-.94,1.95-.85.5.05.64.7a2.38,2.38,0,0,1-.35,1.75,1.35,1.35,0,0,1-1.26.9,3.5,3.5,0,0,1-1.28-.26"></path>
      <path class="cls-8" d="M44.57,119.85a2.9,2.9,0,0,0,3,.36c1.39-.82,1.71-2.15,1.35-2.52a5.14,5.14,0,0,0-.7-.44c-.46-.28-1,1-1,1Z"></path>
      <path class="cls-9" d="M43.36,118.22s1,2,1.73,1.79a16.2,16.2,0,0,1,1.68-.25l.13-.42s-1.08-1.17-1.41-1.2-1,0-1.11-.07Z"></path>
      <path class="cls-10" d="M43.36,118c0,.19,0,.7.48.73a7.18,7.18,0,0,0,1.06,0l1.21-1.43c.22-.2.38-.22-.38-.27s-.8-.22-1.43,0a1.92,1.92,0,0,0-.94,1"></path>
      <path class="cls-11" d="M44.9,118.65a9.89,9.89,0,0,0,.69-1.1c.26-.51.29-.66.78-.54s1.65,0,2,.37.37.32.14.92a2.35,2.35,0,0,1-1.25,1.23,1.29,1.29,0,0,1-1.51,0,3.21,3.21,0,0,1-.89-.91"></path>
      <path class="cls-8" d="M41,114.48a2.23,2.23,0,0,0,.08-2.28c-.71-1-1.75-1.16-2-.87l-.29.56c-.18.37.8.71.81.74Z"></path>
      <path class="cls-9" d="M39.82,115.51s1.42-.86,1.25-1.44a12.57,12.57,0,0,1-.3-1.27l-.33-.07s-.82.9-.83,1.16,0,.73,0,.85Z"></path>
      <path class="cls-10" d="M39.62,115.53c.15,0,.53,0,.52-.42a7.5,7.5,0,0,0-.09-.8l-1.17-.84c-.17-.14-.2-.27-.18.32s-.12.62.1,1.08a1.49,1.49,0,0,0,.82.66"></path>
      <path class="cls-11" d="M40.05,114.31a6.49,6.49,0,0,0-.89-.46c-.41-.16-.52-.18-.46-.56s-.1-1.26.15-1.58.21-.31.69-.16a1.79,1.79,0,0,1,1,.86,1,1,0,0,1,.12,1.16,2.62,2.62,0,0,1-.63.74"></path>
      <path class="cls-8" d="M33.91,116.16a1,1,0,0,0,.32-.94c-.16-.51-.57-.7-.72-.61l-.19.19.24.41Z"></path>
      <path class="cls-9" d="M33.3,116.44s.69-.18.7-.44,0-.56,0-.56l-.12-.08-.49.38-.1.35Z"></path>
      <path class="cls-10" d="M33.21,116.42l.27-.11.06-.34-.37-.5c-.06-.08-.05-.14-.12.11s-.13.24-.1.46a.71.71,0,0,0,.26.38"></path>
      <path class="cls-11" d="M33.54,116l-.31-.3-.12-.3.27-.63.31,0a.78.78,0,0,1,.31.49.42.42,0,0,1-.1.49Z"></path>
      <path class="cls-8" d="M31.74,120.06s1.37-2.2.11-4-3.05-2-3.49-1.48a7.89,7.89,0,0,0-.5,1c-.31.64,1.39,1.22,1.41,1.26Z"></path>
      <path class="cls-9" d="M29.73,121.86s2.46-1.5,2.15-2.51-.53-2.19-.53-2.19l-.58-.12s-1.41,1.57-1.41,2,.06,1.27.05,1.46Z"></path>
      <path class="cls-10" d="M29.38,121.89c.25,0,.92,0,.9-.73a10.19,10.19,0,0,0-.17-1.38s-1.74-1.19-2-1.44-.34-.47-.31.55-.2,1.08.18,1.87a2.59,2.59,0,0,0,1.43,1.13"></path>
      <path class="cls-11" d="M30.11,119.77a11.9,11.9,0,0,0-1.53-.77c-.71-.28-.91-.31-.81-1s-.19-2.18.24-2.74.37-.53,1.2-.29A3.05,3.05,0,0,1,31,116.49a1.73,1.73,0,0,1,.23,2,4.37,4.37,0,0,1-1.1,1.29"></path>
      <path class="cls-12" d="M50.92,96.12a5.64,5.64,0,0,0-.28-1.69,17.3,17.3,0,0,0-.59-1.67v0A21.57,21.57,0,0,1,48,86.52a17.75,17.75,0,0,1-.25-2.26v-.17c.15-1.09.28-2.18.38-3.26s.13-2.17.14-3.24a23.63,23.63,0,0,0-.15-3.17,14.41,14.41,0,0,0-.24-1.51c0-.24-.11-.48-.17-.7s-.17-.5-.18-.51l0-.07a1.42,1.42,0,1,1,2.53-1.31l0,0a6.15,6.15,0,0,1,.4,1.06c.09.32.15.63.21.93a16.65,16.65,0,0,1,.24,1.81,26,26,0,0,1,0,3.53c-.06,1.17-.23,2.31-.4,3.44s-.42,2.25-.67,3.36l0-.16a14.67,14.67,0,0,0,0,2,17.41,17.41,0,0,0,.21,2,22.47,22.47,0,0,0,.95,4l0,0a16.84,16.84,0,0,1,.33,1.86,5.2,5.2,0,0,1-.06,1.92.2.2,0,0,1-.25.16.21.21,0,0,1-.16-.22Z"></path>
      <path class="cls-12" d="M48.24,72c-.06.45-.37.63-.64.86l-.83.66c-.53.42-1.13.92-1.6,1.27a11.24,11.24,0,0,0-1.4,1.44,4.23,4.23,0,0,0-1,1.67v0a.16.16,0,0,1-.18.12.16.16,0,0,1-.12-.15,4.11,4.11,0,0,1,.8-2,11.29,11.29,0,0,1,1.35-1.68l1.59-1.39.77-.67a1.28,1.28,0,0,1,.95-.48h0a.32.32,0,0,1,.3.32Z"></path>
      <path class="cls-12" d="M48.73,74.55a6.71,6.71,0,0,0-2.24.94,2.88,2.88,0,0,0-.8.74c-.15.31-.31.77-.48,1.13-.34.77-.66,1.55-1.05,2.3a9,9,0,0,1-1.37,2.18.23.23,0,1,1-.33-.32h0l0,0a7.37,7.37,0,0,0,1.28-2,24.09,24.09,0,0,0,1-2.29c.16-.41.25-.75.43-1.21a3.23,3.23,0,0,1,1-1c.69-.54,1.4-1,2.12-1.52a.65.65,0,0,1,.89.14.64.64,0,0,1-.14.88.66.66,0,0,1-.24.11Z"></path>
      <path class="cls-12" d="M49,76.72c-.47,1.48-1.2,2.81-1.71,4.25a24.1,24.1,0,0,0-1.17,4.41,20.21,20.21,0,0,0,.41,9.06v0a.24.24,0,0,1-.17.28.24.24,0,0,1-.28-.16,18.09,18.09,0,0,1-1-4.61,20.24,20.24,0,0,1,.16-4.73,26.84,26.84,0,0,1,1.16-4.59,12,12,0,0,1,2.21-4.17.25.25,0,0,1,.34,0,.26.26,0,0,1,.06.25Z"></path>
      <path class="cls-12" d="M48.62,83.78a2.11,2.11,0,0,1-.75.93c-.29.27-.57.54-.84.83a15.25,15.25,0,0,0-1.51,1.81,8.13,8.13,0,0,0-1.73,4.23h0a.24.24,0,0,1-.47,0,6.55,6.55,0,0,1,.39-2.48,11.35,11.35,0,0,1,1.14-2.22A16.27,16.27,0,0,1,46.4,85c.28-.3.57-.59.87-.88a1.78,1.78,0,0,1,1.06-.66.28.28,0,0,1,.3.25.17.17,0,0,1,0,.1Z"></path>
      <path class="cls-12" d="M50.42,71.61c-.09-.12,0,0,0,0l.17.11.43.2a9.34,9.34,0,0,0,1,.29c.33.08.68.15,1,.21a6.3,6.3,0,0,1,1.1.27,5.4,5.4,0,0,1,1.92,1.21,6.07,6.07,0,0,1,1.29,1.83.21.21,0,0,1-.11.3.23.23,0,0,1-.3-.1v0a5.2,5.2,0,0,0-3-2.54c-.61-.19-1.34-.2-2.07-.35a7.3,7.3,0,0,1-1.1-.26,4.85,4.85,0,0,1-.56-.21,1.64,1.64,0,0,1-.28-.16,1,1,0,0,1-.36-.34.48.48,0,1,1,.85-.45Z"></path>
      <path class="cls-12" d="M50.15,73.53a1.84,1.84,0,0,1,1.53.22,5.44,5.44,0,0,1,1.08.81,12.69,12.69,0,0,1,1.63,2,12.34,12.34,0,0,0-1.85-1.77,4.66,4.66,0,0,0-1.08-.61,1.86,1.86,0,0,0-.55-.14.89.89,0,0,0-.42,0,.36.36,0,0,1-.51,0,.37.37,0,0,1,0-.51.6.6,0,0,1,.15-.09Z"></path>
      <path class="cls-12" d="M50.36,76.15A3.74,3.74,0,0,1,52.91,78a7.12,7.12,0,0,1,.92,2.86c.11,1,.12,1.91.22,2.86.05.47.1.94.17,1.41,0,.23.08.46.13.68a1.68,1.68,0,0,0,.09.32.46.46,0,0,0,.05.14s0,0,0,0h0s0,0-.13,0a.24.24,0,0,1,0,.47c-.19,0-.15-.07-.19-.09a.19.19,0,0,1-.06-.07s0-.07-.06-.1A1.07,1.07,0,0,1,54,86.3c-.05-.13-.08-.25-.12-.37s-.12-.47-.16-.71c-.09-.48-.16-1-.23-1.43-.13-1-.19-1.94-.33-2.84a6.2,6.2,0,0,0-.91-2.52,3,3,0,0,0-2-1.38h-.06a.44.44,0,0,1-.39-.5.46.46,0,0,1,.51-.4Z"></path>
      <path class="cls-12" d="M53.35,79.46a7.38,7.38,0,0,1,1.35.9,9,9,0,0,1,2.68,3.93.23.23,0,0,1-.14.29.24.24,0,0,1-.3-.14,8.75,8.75,0,0,0-1.5-2.62,7.66,7.66,0,0,0-1.07-1.06,6.49,6.49,0,0,0-1.24-.82h0a.26.26,0,0,1-.12-.35.26.26,0,0,1,.35-.12Z"></path>
      <path class="cls-12" d="M50.1,89a8.19,8.19,0,0,1,1.56.8A7.53,7.53,0,0,1,53,90.86a6,6,0,0,1,1,1.41,5.71,5.71,0,0,1,.56,1.66.22.22,0,0,1-.18.27.23.23,0,0,1-.27-.17v0a5.26,5.26,0,0,0-.56-1.49,5.45,5.45,0,0,0-1-1.26,7.07,7.07,0,0,0-1.28-1,8,8,0,0,0-1.45-.69h0a.34.34,0,0,1-.21-.43.33.33,0,0,1,.43-.21Z"></path>
      <polygon class="cls-13" points="0.03 61.89 48.22 82.02 92.02 63.45 48.22 48.01 0.03 61.89"></polygon>
      <path class="cls-14" d="M48.44,14.11s1.87-3.45,3.23-3.45,2.09-.31,2.3-1.57.94-2.29,2.71-1.77,1.57-.63,3,.52a2.88,2.88,0,0,1,1.46-.66,2,2,0,0,1,2.19,1.6c.32,1.46-.31,1.57,0,3.76s.71,8,.1,9.5-4.17,7-7.82,7.73-12.32-1.15-10.75-5.43S48.44,14.11,48.44,14.11Z"></path>
      <path class="cls-15" d="M58.67,11.7c-.54,1.19-1.08,2.37-1.6,3.55s-1,2.38-1.52,3.57-.93,2.41-1.36,3.62-.77,2.46-1.06,3.71h0a.21.21,0,0,1-.41-.08,26.42,26.42,0,0,1,.92-3.81C54,21,54.52,19.8,55,18.6s1.09-2.37,1.68-3.53S58,12.79,58.67,11.7Z"></path>
      <path class="cls-15" d="M54.84,11.7A1.59,1.59,0,0,0,54.76,13,2.86,2.86,0,0,0,55.48,14a6,6,0,0,1,.93,1,1.72,1.72,0,0,1,.28.68.87.87,0,0,1-.23.79h0l-.26-.33c.07,0,.14-.28.25-.49a1.18,1.18,0,0,1,.54-.52,3.12,3.12,0,0,1,1.33-.26,6.85,6.85,0,0,0,1.28-.12,2.21,2.21,0,0,0,.61-.21.66.66,0,0,0,.38-.48.69.69,0,0,1-.36.52,1.91,1.91,0,0,1-.6.27,7.23,7.23,0,0,1-1.3.23,3.09,3.09,0,0,0-1.19.32.84.84,0,0,0-.36.41,1.63,1.63,0,0,0-.1.29.82.82,0,0,1-.22.37l-.26-.33h0a.51.51,0,0,0,.14-.43,1.38,1.38,0,0,0-.19-.56,5.41,5.41,0,0,0-.81-1A3,3,0,0,1,54.66,13,1.63,1.63,0,0,1,54.84,11.7Z"></path>
      <path class="cls-15" d="M60.09,18a4.34,4.34,0,0,1-1,1.41,3.22,3.22,0,0,1-1.54.83c-.57.13-1.14.22-1.7.32a5,5,0,0,0-.81.2,1,1,0,0,0-.33.17.56.56,0,0,0-.18.25h0a.22.22,0,0,1-.27.13.21.21,0,0,1-.12-.27h0a1,1,0,0,1,.34-.43,1.58,1.58,0,0,1,.44-.2,5.63,5.63,0,0,1,.88-.16c.58-.07,1.14-.12,1.71-.21a3.18,3.18,0,0,0,1.51-.7A4.31,4.31,0,0,0,60.09,18Z"></path>
      <path class="cls-15" d="M52.37,15.71a3.21,3.21,0,0,0-.18,1.73A3,3,0,0,0,53,19a5.81,5.81,0,0,1,1.09,1.45,2.45,2.45,0,0,1,.23.93,3.24,3.24,0,0,1-.15.94h0a.2.2,0,0,1-.26.14.2.2,0,0,1-.14-.25v0a2,2,0,0,0,0-1.61,5.25,5.25,0,0,0-1-1.44,3.11,3.11,0,0,1-.74-1.64A3.28,3.28,0,0,1,52.37,15.71Z"></path>
      <path class="cls-16" d="M99.53,17.24a4.85,4.85,0,0,1,1.59.91A2.48,2.48,0,0,0,99.53,17.24Z"></path>
      <path class="cls-16" d="M99.31,17.17c.09-.17.17-.33.24-.49a2.74,2.74,0,0,1-.38.45Z"></path>
      <path class="cls-17" d="M59.92,35.72C67.65,24,91.78,33.16,98.86,25.9,101.7,23,102.3,21,102,19.68a2.87,2.87,0,0,0-.9-1.53,4.85,4.85,0,0,0-1.59-.91l-.22-.07-.14,0a2.74,2.74,0,0,0,.38-.45c1.19-1.61,1.41-4.21,1.5-6A4.38,4.38,0,0,0,97.5,6c-2.5-.42-3.23.42-7.3,2.72C88,9.9,86.57,9.31,85.68,8.5a6.67,6.67,0,0,0-6.92-1.26,11.88,11.88,0,0,0-5.06,3.52,3.25,3.25,0,0,1-2.56,1.62,8.4,8.4,0,0,0-3.93,1.23c-5.08,3.26-10.87,11.86-14.39,17.64-2,3.26-3.24,5.61-3.24,5.61S52.19,47.41,59.92,35.72Z"></path>
      <path class="cls-14" d="M93.85,12.43a47.65,47.65,0,0,1-2.71,6.06,55.91,55.91,0,0,1-3.43,5.7,40.88,40.88,0,0,1-4.16,5.22,23.28,23.28,0,0,1-2.49,2.26,12.8,12.8,0,0,1-2.89,1.73.21.21,0,0,1-.27-.12A.2.2,0,0,1,78,33a19.48,19.48,0,0,0,4.91-4.2,52.81,52.81,0,0,0,4-5.18c1.24-1.8,2.4-3.67,3.55-5.54S92.71,14.33,93.85,12.43Z"></path>
      <path class="cls-14" d="M83.62,11.18a8.87,8.87,0,0,0-.47,1.75A7.56,7.56,0,0,0,83,14.71,6.34,6.34,0,0,0,84,18c.15.24.35.46.52.69s.42.4.62.6l.16.15.18.12.35.25.36.26.41.3a2.61,2.61,0,0,1,.88,1.87,5,5,0,0,1-.4,1.95,14,14,0,0,1-2,3.17,32.14,32.14,0,0,1-2.47,2.74c-.87.86-1.78,1.68-2.7,2.49s-1.75,1.72-3.12,1.94a.14.14,0,0,1-.16-.11.19.19,0,0,1,0-.08h0c.56-1.24,1.63-1.81,2.53-2.62s1.81-1.57,2.67-2.4a33.36,33.36,0,0,0,2.46-2.59,13.77,13.77,0,0,0,2-2.89,4.09,4.09,0,0,0,.4-1.56A1.8,1.8,0,0,0,86.11,21l-.31-.25-.36-.29-.38-.3L84.88,20l-.17-.17c-.21-.24-.45-.45-.64-.7a8.37,8.37,0,0,1-.53-.79,6.64,6.64,0,0,1-.83-3.6A8.91,8.91,0,0,1,83.62,11.18Z"></path>
      <path class="cls-14" d="M74.74,14.84a5.13,5.13,0,0,0-1.5,2.3,6,6,0,0,0-.2,2.73l0,.34.08.34c.06.22.11.44.17.66l.24.65.12.32.15.31a26.63,26.63,0,0,0,1.37,2.42,9.59,9.59,0,0,1,.69,1.26l.3.66c.1.22.15.46.23.69a7.71,7.71,0,0,1,.38,2.91A7.08,7.08,0,0,1,76,33.3c-.12.22-.25.43-.38.65s-.28.42-.44.61a6.58,6.58,0,0,1-1.08,1.1.58.58,0,0,1-.73-.89l0,0,0,0a6,6,0,0,0,.92-.85c.14-.16.27-.34.4-.51s.25-.36.36-.55A6.13,6.13,0,0,0,76,30.35a7,7,0,0,0-.21-2.64c-.07-.21-.1-.44-.18-.65l-.25-.63a10,10,0,0,0-.6-1.23,13,13,0,0,1-2-5.3,6.25,6.25,0,0,1,.34-2.81A5.22,5.22,0,0,1,74.74,14.84Z"></path>
      <path class="cls-14" d="M65.77,22.82a6.61,6.61,0,0,0-1,2.58,8,8,0,0,0,0,2.71,9.93,9.93,0,0,0,.93,2.53c.2.4.47.76.69,1.15l.83,1.07,0,0a.59.59,0,0,1-.93.71l0,0c-.25-.41-.51-.82-.76-1.24S65.13,31.46,65,31a10.95,10.95,0,0,1-.71-2.82,8.27,8.27,0,0,1,.25-2.85A6.89,6.89,0,0,1,65.77,22.82Z"></path>
      <path class="cls-16" d="M102,19.68c.28,1.33-.32,3.32-3.16,6.22C91.78,33.16,67.65,24,59.92,35.72s-10.34,1.14-10.34,1.14,1.26-2.35,3.24-5.61c-3.65,2.66-20.59,16.21,23.7,9.16C101.15,36.5,104,24.8,102,19.68Z"></path>
      <path class="cls-18" d="M47.7,24.86a18,18,0,0,1,3.66-1.25c.83,0,3.55-.32,4.38,4.38,0,0,6.06-.63,4.08,6.26,0,0,4,4.08-1.68,7.73,0,0,.11,3.24-4.17,5.53s-4.18,8-4.18,8l-.31,2.61L43.22,44.8s.31-14.93.73-16.08S47.7,24.86,47.7,24.86Z"></path>
      <path class="cls-19" d="M54.89,31.59A21,21,0,0,0,51.45,37a30.24,30.24,0,0,0-2,6.14c-.16,1.06-.38,2.11-.44,3.18,0,.54-.12,1.07-.13,1.6l0,1.61c0,.27,0,.54,0,.8l0,.81.09,1.6c.1,1.07.26,2.13.39,3.19v0a.56.56,0,0,1-.5.63.57.57,0,0,1-.63-.5v0c-.09-1.1-.21-2.19-.28-3.28l0-1.65,0-.82c0-.28,0-.55,0-.83l.09-1.64c0-.55.13-1.09.19-1.64.11-1.09.37-2.16.58-3.23a30.48,30.48,0,0,1,2.22-6.17,20.9,20.9,0,0,1,3.7-5.37.08.08,0,0,1,.1,0,.09.09,0,0,1,0,.11Z"></path>
      <path class="cls-19" d="M51.1,36.8A7.12,7.12,0,0,1,52.31,35a3.36,3.36,0,0,1,1.89-1.14,18.6,18.6,0,0,0,2.15-.24,4.06,4.06,0,0,0,1-.33,1.75,1.75,0,0,0,.77-.73,1.8,1.8,0,0,1-.75.77,4,4,0,0,1-1,.4c-.7.18-1.45.23-2.14.34a3.1,3.1,0,0,0-1.69,1.13A6.91,6.91,0,0,0,51.48,37h0a.21.21,0,0,1-.27.12.22.22,0,0,1-.12-.28Z"></path>
      <path class="cls-19" d="M52.39,34.43A2.92,2.92,0,0,0,52.57,33a5.45,5.45,0,0,0-.4-1.51c-.19-.5-.42-1-.63-1.48a1.3,1.3,0,0,1-.13-.8c.06-.26.15-.52.22-.77a7.2,7.2,0,0,0-.16.78,1.22,1.22,0,0,0,.16.75c.24.48.5.95.74,1.43a6,6,0,0,1,.51,1.56,3.12,3.12,0,0,1-.13,1.7.2.2,0,0,1-.27.11.2.2,0,0,1-.11-.27h0Z"></path>
      <path class="cls-19" d="M48.78,44.05a13,13,0,0,1,1.06-2.6,4.27,4.27,0,0,1,.87-1.13c.11-.06.2-.15.31-.2a1.89,1.89,0,0,1,.35-.13c.23-.06.46-.09.69-.14a9.5,9.5,0,0,0,2.65-.69,4.33,4.33,0,0,0,1.12-.78,4.39,4.39,0,0,0,.78-1.13,4.16,4.16,0,0,1-.74,1.16,4.33,4.33,0,0,1-1.11.84,9.3,9.3,0,0,1-2.66.81,2.44,2.44,0,0,0-1.22.46,3.85,3.85,0,0,0-.77,1.08,13.07,13.07,0,0,0-.93,2.56h0a.21.21,0,0,1-.26.15.23.23,0,0,1-.15-.26Z"></path>
      <path class="cls-19" d="M49.11,42.47a6,6,0,0,0-.64-2.77,6.46,6.46,0,0,0-.79-1.21,2.42,2.42,0,0,1-.56-1.42,7.28,7.28,0,0,1,.56-2.93A16.47,16.47,0,0,1,49,31.47a17.09,17.09,0,0,0-1.2,2.7,7,7,0,0,0-.45,2.88,2.13,2.13,0,0,0,.55,1.27,7,7,0,0,1,.86,1.24,6.32,6.32,0,0,1,.79,2.93.2.2,0,0,1-.2.21.22.22,0,0,1-.22-.2h0Z"></path>
      <path class="cls-19" d="M48.39,46.84a4.58,4.58,0,0,1,1-2,2,2,0,0,1,1-.59,5.64,5.64,0,0,1,1.08-.1,14.63,14.63,0,0,0,2.1-.09,4.32,4.32,0,0,0,1-.28,3.22,3.22,0,0,0,.87-.6,3.12,3.12,0,0,1-.85.64,4,4,0,0,1-1,.34,15.06,15.06,0,0,1-2.11.2,5.57,5.57,0,0,0-1,.15,1.64,1.64,0,0,0-.8.54,4.21,4.21,0,0,0-.81,1.83h0a.21.21,0,1,1-.4-.09Z"></path>
      <path class="cls-19" d="M48.23,48.87a3.17,3.17,0,0,0,.09-1.31A4.66,4.66,0,0,0,48,46.25a6.66,6.66,0,0,0-1.68-2.2A27.17,27.17,0,0,0,44,42.37l-1.15-.83-.57-.42L42,40.9l-.14-.11-.06-.06,0,0s0,0,0,0,0,0,0,0l0,0,.07.05.14.11.29.2.59.4,1.18.79a28.07,28.07,0,0,1,2.35,1.62,7,7,0,0,1,1.83,2.21,4.31,4.31,0,0,1,.39,2.9.21.21,0,0,1-.25.15.21.21,0,0,1-.16-.25h0Z"></path>
      <path class="cls-16" d="M46.77,56.74A52.6,52.6,0,0,0,41.41,51c-2.93-2.79-10.65-7.8-11.77-8.63s-3.55-2.23-3.06-5.85-2.85-2.78-4.11-3.55-4.24-1.88-4.87-4.1.28-2.86-.35-4.74a44.13,44.13,0,0,0-2.71-5.5c-.63-1.25-1.88-7.72,6.82-8.28,0,0,1.32-8.42,8.14-10s7.38,4,11,3.76,5.15-1.19,8.77,4,2.16,14.33,1,15.59A48,48,0,0,0,47,28.76s1.6,1.95.84,3.34S44,40.1,46,45.67s3.69,7.86,4,11.48.62,6-1.4,6.34-1-5.22-1.46-6Z"></path>
      <path class="cls-17" d="M31.68,5.33c.51,5.11,1,10.22,1.36,15.33.2,2.56.38,5.11.7,7.64.17,1.25.37,2.52.63,3.74a24.47,24.47,0,0,0,1.11,3.59,29.41,29.41,0,0,0,3.68,6.56c1.48,2.05,3.15,4,4.77,6a28,28,0,0,1,4.2,6.65,15.67,15.67,0,0,1,1,3.88,16.89,16.89,0,0,1,0,4,.73.73,0,0,1-.82.65.75.75,0,0,1-.65-.82h0a14.39,14.39,0,0,0,0-3.65,14,14,0,0,0-.92-3.53A27.2,27.2,0,0,0,42.85,49c-1.56-2-3.24-4-4.72-6.12A30.47,30.47,0,0,1,34.43,36a25.78,25.78,0,0,1-1.08-3.77c-.26-1.29-.41-2.57-.55-3.85-.26-2.58-.37-5.14-.5-7.7L31.58,5.34a0,0,0,0,1,0,0A0,0,0,0,1,31.68,5.33Z"></path>
      <path class="cls-17" d="M32.34,15.89l0-.65c0-.21,0-.43,0-.64a4.55,4.55,0,0,1,.34-1.25,3.19,3.19,0,0,1,1.88-1.75h0l.74-.16a5.83,5.83,0,0,0,.7-.25,3.44,3.44,0,0,0,1.21-.83A2.93,2.93,0,0,0,38,9.1a4,4,0,0,0,.1-1.47.21.21,0,0,1,.18-.23.21.21,0,0,1,.23.19h0v0a4.29,4.29,0,0,1-.17,1.58,3.29,3.29,0,0,1-.83,1.37,3.92,3.92,0,0,1-1.33.85c-.25.11-.51.16-.75.24l-.77.14h0a2.59,2.59,0,0,0-1.07.6,3.46,3.46,0,0,0-.75,1,5,5,0,0,0-.37,1.21c0,.21,0,.42-.06.64v.64l0,0Z"></path>
      <path class="cls-17" d="M26.12,8.9a4.18,4.18,0,0,0,1.53,2.21,3.21,3.21,0,0,0,1.22.55,6.35,6.35,0,0,1,1.33.46,3.84,3.84,0,0,1,1.87,2.09A10.06,10.06,0,0,1,32.64,17a.21.21,0,1,1-.42,0h0a9.45,9.45,0,0,0-.46-2.66,3.52,3.52,0,0,0-1.67-2,5.47,5.47,0,0,0-1.26-.48,3.5,3.5,0,0,1-1.27-.62,4.33,4.33,0,0,1-1.49-2.31s0,0,0,0Z"></path>
      <path class="cls-17" d="M42.92,11.87a7.79,7.79,0,0,1-.64,4.41A6.82,6.82,0,0,1,41,18.14c-.29.24-.56.52-.87.73l-.48.31-.24.16-.25.12-.52.25-.25.12-.27.09L37,20.27a7.38,7.38,0,0,0-1.93.95,4.58,4.58,0,0,0-1.42,1.55,3.76,3.76,0,0,0-.4,2h0a.31.31,0,0,1-.28.34.32.32,0,0,1-.34-.28,4.2,4.2,0,0,1,.42-2.43,4.91,4.91,0,0,1,1.63-1.78,7.85,7.85,0,0,1,2.13-1l1.06-.3.25-.07.25-.11L38.9,19l.25-.1.22-.13.46-.27c.31-.19.56-.44.85-.65A6.48,6.48,0,0,0,42,16.13a8,8,0,0,0,.88-4.24h0s0,0,0,0A0,0,0,0,1,42.92,11.87Z"></path>
      <path class="cls-17" d="M20.74,15.69a7.12,7.12,0,0,0,1.61,4.06,6.65,6.65,0,0,0,1.72,1.31,8.06,8.06,0,0,0,2.08.63l1.1.16a10.42,10.42,0,0,1,1.14.19,9.36,9.36,0,0,1,2.21.77,5,5,0,0,1,2.91,3.72.42.42,0,0,1-.36.48.43.43,0,0,1-.48-.36v-.07a3.23,3.23,0,0,0-.27-.93c-.06-.16-.16-.3-.23-.45s-.19-.29-.3-.42a5.33,5.33,0,0,0-1.61-1.33,8.78,8.78,0,0,0-2-.77,9.38,9.38,0,0,0-1.08-.22L26,22.25a8.12,8.12,0,0,1-2.18-.78A6.77,6.77,0,0,1,22.08,20a7.07,7.07,0,0,1-1.43-4.26v0a0,0,0,0,1,.05,0A.07.07,0,0,1,20.74,15.69Z"></path>
      <path class="cls-17" d="M43.74,23.61a6.61,6.61,0,0,1-.87,3.91A4.68,4.68,0,0,1,41.39,29l-.47.26-.49.19-.25.1-.22.08c-.15.05-.31.09-.45.15A6.15,6.15,0,0,0,36.6,32a7.05,7.05,0,0,0-1.06,3.53.43.43,0,0,1-.86-.05,7.48,7.48,0,0,1,1.21-4,6.57,6.57,0,0,1,3.36-2.43c.16-.06.33-.1.49-.15l.25-.08.22-.07.44-.14.41-.2a4.43,4.43,0,0,0,1.37-1.22,5.66,5.66,0,0,0,.83-1.71,8.14,8.14,0,0,0,.34-1.91.07.07,0,0,1,.14,0Z"></path>
      <path class="cls-17" d="M25.12,28.61A4.37,4.37,0,0,0,25.6,30a3.08,3.08,0,0,0,.93,1,3.37,3.37,0,0,0,1.26.5l.34.06.35,0,.72.05a12.28,12.28,0,0,1,3,.45,6.81,6.81,0,0,1,.74.31,3.89,3.89,0,0,1,.69.45,2.89,2.89,0,0,1,.93,1.32v0a.2.2,0,0,1-.13.26.2.2,0,0,1-.24-.08,3.18,3.18,0,0,0-.95-1A5.63,5.63,0,0,0,32,32.81a17,17,0,0,0-2.86-.55,5.08,5.08,0,0,1-2.87-.95,3,3,0,0,1-.91-1.22,4,4,0,0,1-.28-1.47h0s0,0,0,0Z"></path>
      <path class="cls-17" d="M43,33.47a5.82,5.82,0,0,1-.32,2.8,5.45,5.45,0,0,1-.69,1.25,8,8,0,0,1-1,1c-.34.33-.67.66-1,1a4.09,4.09,0,0,0-.73,1.14,2.14,2.14,0,0,0-.05,1.3,4.22,4.22,0,0,0,.55,1.23.31.31,0,0,1-.11.43.3.3,0,0,1-.42-.11h0a4.89,4.89,0,0,1-.63-1.41,2.74,2.74,0,0,1,.1-1.65,4.17,4.17,0,0,1,.87-1.3c.33-.36.69-.69,1-1,.17-.15.37-.32.52-.47l.23-.22.22-.25a4.57,4.57,0,0,0,.71-1.11,5.67,5.67,0,0,0,.43-1.28,6.41,6.41,0,0,0,.15-1.38h0a0,0,0,0,1,0,0S42.94,33.45,43,33.47Z"></path>
      <path class="cls-17" d="M31.13,38.16a5.16,5.16,0,0,0,2.19,3,8.37,8.37,0,0,0,.82.48A8.53,8.53,0,0,0,35,42l.45.15.46.11,1,.22a9.5,9.5,0,0,1,1.87.68,8,8,0,0,1,1.66,1.11,7.87,7.87,0,0,1,2.32,3.22.2.2,0,0,1-.37.17l0,0a11,11,0,0,0-1.08-1.52,6.75,6.75,0,0,0-.64-.67,3.43,3.43,0,0,0-.33-.33c-.11-.1-.22-.21-.34-.3a11.86,11.86,0,0,0-1.52-1,9.38,9.38,0,0,0-1.71-.68l-.94-.26a5.65,5.65,0,0,1-1-.31c-.32-.11-.61-.29-.92-.43a9.69,9.69,0,0,1-.85-.57A5.13,5.13,0,0,1,31,38.18.06.06,0,0,1,31,38.1a.08.08,0,0,1,.09,0Z"></path>
      <path class="cls-20" d="M29.23,35.61s-4.49-2.92-19,3.34-12.52,21.93-.62,14c0,0,1.15,4.07,6,1.78s5.53-5.54,9.19-5.54,1.14.63,4,1.15,7.83-1,12.22,1.88,6,1.78,6.16,5.53,2.82,4.49,2.82,1.57S36.85,36.76,29.23,35.61Z"></path>
      <path class="cls-19" d="M38.47,48.12a16.44,16.44,0,0,0-1.55-1.23,19.13,19.13,0,0,0-1.71-1.1,22.76,22.76,0,0,0-3.71-1.73,20.64,20.64,0,0,0-8.06-1.21,20.93,20.93,0,0,0-4.08.6c-.34.07-.67.18-1,.28s-.66.19-1,.31c-.64.25-1.3.47-1.93.77a31.77,31.77,0,0,0-7.09,4.4.17.17,0,0,1-.24,0,.18.18,0,0,1,0-.23,32.66,32.66,0,0,1,7-4.75c.63-.33,1.3-.58,1.95-.86.33-.14.68-.24,1-.37s.68-.23,1-.32a21.82,21.82,0,0,1,12.79.15,23.36,23.36,0,0,1,4,1.68c.64.33,1.27.71,1.88,1.1A17.87,17.87,0,0,1,39.6,46.9a.83.83,0,1,1-1.08,1.27l0,0Z"></path>
      <path class="cls-19" d="M21.1,48.74A3.33,3.33,0,0,0,23,47.41a6.47,6.47,0,0,0,1-2.18A4.49,4.49,0,0,1,25.39,43a3.92,3.92,0,0,1,1.16-.66,3.74,3.74,0,0,1,1.36-.25.38.38,0,0,1,0,.76h-.06a3.18,3.18,0,0,0-1.09.12,3.08,3.08,0,0,0-1,.5,4,4,0,0,0-1.33,1.86,6.91,6.91,0,0,1-1.17,2.23,3.64,3.64,0,0,1-2.13,1.34.1.1,0,0,1-.12-.08.1.1,0,0,1,.08-.11Z"></path>
      <path class="cls-19" d="M12.72,52.08a4.65,4.65,0,0,0,.88-.65,3.59,3.59,0,0,0,.67-.84,2.92,2.92,0,0,0,.35-2A3.52,3.52,0,0,0,14.5,48l0-.13,0-.14-.06-.29a7.11,7.11,0,0,1-.1-1.14,3.67,3.67,0,0,1,.16-1.17,1.36,1.36,0,0,1,.89-.87h0a.23.23,0,0,1,.27.17.22.22,0,0,1-.16.26c-.55.15-.72.92-.73,1.61a7.82,7.82,0,0,0,.08,1.07l0,.27.05.26a2.72,2.72,0,0,1,.1.57,3.21,3.21,0,0,1-.52,2.22,4.08,4.08,0,0,1-1.74,1.42s0,0,0,0,0,0,0,0Z"></path>
      <path class="cls-19" d="M8.74,43a4.69,4.69,0,0,1,1.95-.78,2.77,2.77,0,0,1,2.09.49c.32.22.54.46.81.68a6,6,0,0,0,.8.6.94.94,0,0,0,.8.1,6.53,6.53,0,0,0,.94-.32h0a.33.33,0,1,1,.25.6h0a9.31,9.31,0,0,1-1,.31,1.9,1.9,0,0,1-.63,0,1.53,1.53,0,0,1-.57-.24,5.37,5.37,0,0,1-.83-.72c-.25-.24-.5-.51-.74-.72a2.49,2.49,0,0,0-1.83-.59A4.93,4.93,0,0,0,8.74,43Z"></path>
      <path class="cls-19" d="M16,38.91a6.58,6.58,0,0,1,2.3-.5,3.43,3.43,0,0,1,1.22.17,2.12,2.12,0,0,1,1.06.75,2.79,2.79,0,0,1,.33.52l.29.5a7.59,7.59,0,0,0,.61.91,1.62,1.62,0,0,0,.78.57,3.43,3.43,0,0,0,1,.18h0a.37.37,0,0,1,.35.38.37.37,0,0,1-.38.35,4.54,4.54,0,0,1-1.28-.2,2.45,2.45,0,0,1-1.09-.83,7.21,7.21,0,0,1-.63-1l-.26-.53c-.09-.17-.18-.35-.26-.47a2.29,2.29,0,0,0-1.82-.89A7.61,7.61,0,0,0,16,39s0,0-.05,0A.05.05,0,0,1,16,38.91Z"></path>
      <path class="cls-19" d="M.86,53.81a4.32,4.32,0,0,0,.9.76,3.18,3.18,0,0,0,1.11.34,6,6,0,0,0,2.31-.27,18.67,18.67,0,0,0,4.23-2h0a.39.39,0,0,1,.52.16,4.62,4.62,0,0,0,1.69,1.74A3.69,3.69,0,0,0,14,55c1.69-.21,3.12-1.34,4.54-2.38s2.71-2.27,4.3-3.22a3.91,3.91,0,0,1,2.76-.5,18.65,18.65,0,0,1,2.59.82,10.26,10.26,0,0,0,5.09.51c.86-.11,1.73-.3,2.67-.36a7.9,7.9,0,0,1,2.82.3A16.86,16.86,0,0,1,43.6,52.7c.73.5,1.44,1,2.15,1.58.35.29.7.56,1,.87s.75.65.77,1.13c-.21-.42-.62-.55-1-.77l-1.19-.6c-.79-.41-1.57-.85-2.33-1.31a20.62,20.62,0,0,0-4.57-2.39A7.53,7.53,0,0,0,36,50.86c-.84,0-1.72.16-2.63.22a12,12,0,0,1-5.4-.79,15.9,15.9,0,0,0-2.48-.86,3.31,3.31,0,0,0-2.37.43C21.64,50.73,20.3,52,18.87,53S16,55.3,14.08,55.58a4.51,4.51,0,0,1-2.79-.47,5.27,5.27,0,0,1-2-2l.52.16h0A18.53,18.53,0,0,1,5.27,55a6.41,6.41,0,0,1-2.43.1,3.14,3.14,0,0,1-1.12-.45A4.29,4.29,0,0,1,.86,53.81Z"></path>
      <path class="cls-19" d="M55.37,45.46a15.29,15.29,0,0,1,6.19-2,17.52,17.52,0,0,1,6.48.61c.53.14,1,.35,1.55.52a7.19,7.19,0,0,1,.76.32l.38.18.36.2a10.47,10.47,0,0,1,2.55,2.08,27.12,27.12,0,0,1,3.59,5.4c1,1.88,2,3.78,3.22,5.54a20,20,0,0,0,2,2.5,16.5,16.5,0,0,0,2.4,2.09,16,16,0,0,0,5.86,2.44,25.86,25.86,0,0,0,6.4.39,26.12,26.12,0,0,1-6.43-.24,15.68,15.68,0,0,1-6-2.35A16.68,16.68,0,0,1,82.18,61a20.49,20.49,0,0,1-2.05-2.5A60.1,60.1,0,0,1,76.81,53a26.91,26.91,0,0,0-3.57-5.26,10.18,10.18,0,0,0-2.45-1.94,14.31,14.31,0,0,0-2.92-1.15A17.63,17.63,0,0,0,61.61,44a15.54,15.54,0,0,0-6,1.77h0a.21.21,0,0,1-.29-.08A.21.21,0,0,1,55.37,45.46Z"></path>
      <path class="cls-20" d="M97.66,65.82l-.07.09Z"></path>
      <path class="cls-20" d="M98,64.76h0Z"></path>
      <path class="cls-20" d="M97.84,65.53l0,0Z"></path>
      <path class="cls-20" d="M97.93,65.29l0,.1Z"></path>
      <path class="cls-20" d="M98,65a1.17,1.17,0,0,1,0,.2A1.17,1.17,0,0,0,98,65Z"></path>
      <path class="cls-21" d="M94.87,58.32s1.91-7-6.6-11.17a12.28,12.28,0,0,0-2.78-.93A8,8,0,0,1,82.7,44.9c-2.14-1.51-4.85-3.45-5.48-3.76s-7.28-2.71-17.16.14C47.51,44.91,47.52,63.47,48.58,63l.06,0c1.54-.9-1.06-6.49,3.11-13.14a13.6,13.6,0,0,1,6.84-5.12l.1,0c.21,0,8.93-2.3,14.83,3.6s3.63,10.2,8.4,12.89c5.14,2.91,8.93,7.07,14.4,5.56a2.49,2.49,0,0,0,.92-.47l.16-.14.06-.07.07-.09a1.58,1.58,0,0,0,.15-.24l0-.05.06-.13,0-.11a.56.56,0,0,0,0-.12c0-.06,0-.13,0-.2s0-.13,0-.2h0C98.14,62.53,95.55,58.89,94.87,58.32Z"></path>
      <path class="cls-19" d="M75.26,50.48c1.21,1.16,2.52,2.27,3.84,3.34s2.69,2.08,4.12,3a36.66,36.66,0,0,0,4.43,2.53A20.86,20.86,0,0,0,92.46,61h0a.09.09,0,0,1,.07.11.09.09,0,0,1-.1.08,21.13,21.13,0,0,1-4.93-1.5,39,39,0,0,1-4.57-2.4c-1.47-.89-2.88-1.88-4.26-2.9s-2.72-2.1-4-3.26a.44.44,0,0,1,0-.62.45.45,0,0,1,.63,0h0Z"></path>
      <path class="cls-19" d="M85.72,58.39a4.09,4.09,0,0,1,.5,1.23,2.81,2.81,0,0,1,0,1.32,2.49,2.49,0,0,1-.61,1.13,2.79,2.79,0,0,1-.47.44c-.17.13-.35.23-.53.35.17-.13.34-.25.5-.39a3.64,3.64,0,0,0,.42-.46A2.36,2.36,0,0,0,86,60.9a2.72,2.72,0,0,0-.1-1.2,3.54,3.54,0,0,0-.54-1.06v0a.21.21,0,0,1,0-.29.22.22,0,0,1,.3,0Z"></path>
      <path class="cls-19" d="M84.26,57.55a2.74,2.74,0,0,0,1.1.11,1.2,1.2,0,0,0,.9-.48,2.28,2.28,0,0,0,.32-1.06c0-.39.07-.79.14-1.19a2.84,2.84,0,0,1,.44-1.15,2.79,2.79,0,0,1,.93-.78,7.82,7.82,0,0,1,2.31-.61,7.73,7.73,0,0,0-2.26.71,2.62,2.62,0,0,0-.85.77A2.56,2.56,0,0,0,86.93,55c-.05.38-.06.78-.09,1.18a2.53,2.53,0,0,1-.33,1.21,1.44,1.44,0,0,1-.48.47,2,2,0,0,1-.62.21A3.2,3.2,0,0,1,84.14,58a.21.21,0,0,1-.15-.26.2.2,0,0,1,.25-.15h0Z"></path>
      <path class="cls-19" d="M77,52.35a2,2,0,0,0,1,.36,2.39,2.39,0,0,0,1.07-.24,3.77,3.77,0,0,0,.94-.67,5.59,5.59,0,0,0,.79-.89c.24-.32.46-.67.71-1a2.53,2.53,0,0,1,2.19-1.09c.21,0,.41,0,.62,0L85,49a4.09,4.09,0,0,0-2.36.31,5.39,5.39,0,0,0-1.49,1.85,5.09,5.09,0,0,1-1.81,1.76,2.64,2.64,0,0,1-1.3.29,2.2,2.2,0,0,1-1.26-.49.22.22,0,0,1,0-.3.22.22,0,0,1,.29,0Z"></path>
      <path class="cls-20" d="M81.92,61.13c-4.77-2.69-2.5-7-8.4-12.89s-14.62-3.65-14.83-3.6l-.1,0a13.6,13.6,0,0,0-6.84,5.12C47.58,56.44,50.18,62,48.64,62.93a.76.76,0,0,0,.35-.07c.84-.31,1.19-2.92,1.12-3.86-.55-7.47,3-10.08,4.59-11.07s11-7.7,17.89,7.47c6,13.1,7.65,10.3,19.17,11.53,3.26.35,5-.1,5.77-1a1.37,1.37,0,0,1-.29.24,2.49,2.49,0,0,1-.92.47C90.85,68.2,87.06,64,81.92,61.13Z"></path>
      <path class="cls-22" d="M50.48,66.83a1.18,1.18,0,0,0-1.14-.42c-.63.19-.88.69-.77.87a2.43,2.43,0,0,0,.23.24c.16.16.49-.28.51-.28Z"></path>
      <path class="cls-9" d="M50.81,67.59s-.2-.86-.52-.87-.69-.06-.69-.06l-.09.16s.32.56.45.6.37.11.43.13A2.35,2.35,0,0,0,50.81,67.59Z"></path>
      <path class="cls-10" d="M50.78,67.69a.23.23,0,0,0-.12-.33,3.59,3.59,0,0,0-.42-.09s-.52.4-.62.46-.17,0,.13.14.29.16.56.13A.76.76,0,0,0,50.78,67.69Z"></path>
      <path class="cls-11" d="M50.24,67.27a4.91,4.91,0,0,0-.38.37c-.15.18-.18.24-.36.15s-.65-.16-.77-.34-.12-.16,0-.38a.93.93,0,0,1,.61-.37.53.53,0,0,1,.6.13A1.4,1.4,0,0,1,50.24,67.27Z"></path>
      <path class="cls-22" d="M34.34,61a1.74,1.74,0,0,0-1.76-.26c-.84.48-1,1.27-.84,1.49a3.65,3.65,0,0,0,.41.27c.27.18.62-.55.64-.56Z"></path>
      <path class="cls-9" d="M35,62s-.54-1.18-1-1.09S33,61,33,61l-.09.25s.63.72.83.74.57,0,.66.05A4.13,4.13,0,0,0,35,62Z"></path>
      <path class="cls-10" d="M35,62.12c0-.12,0-.42-.28-.44a3.82,3.82,0,0,0-.63,0s-.62.72-.75.84-.22.13.23.16.47.15.85,0A1.21,1.21,0,0,0,35,62.12Z"></path>
      <path class="cls-11" d="M34.13,61.68a4.79,4.79,0,0,0-.43.65c-.16.3-.18.39-.47.31s-1,0-1.21-.25-.22-.19-.07-.55a1.38,1.38,0,0,1,.76-.72.78.78,0,0,1,.9,0A2.17,2.17,0,0,1,34.13,61.68Z"></path>
      <path class="cls-22" d="M45.74,58.63s-3.63-1.81-6.17.4-2.67,5.06-1.8,5.67a11.45,11.45,0,0,0,1.6.64c1,.39,1.69-2.34,1.75-2.38S45.74,58.63,45.74,58.63Z"></path>
      <path class="cls-9" d="M48.84,61.5s-2.69-3.61-4.23-3-3.33,1.15-3.33,1.15l-.1.91s2.65,2,3.35,1.91,2-.29,2.27-.29A15.27,15.27,0,0,0,48.84,61.5Z"></path>
      <path class="cls-10" d="M49,62.05c0-.4-.19-1.43-1.27-1.29a14.91,14.91,0,0,0-2.14.46S44,64.1,43.6,64.6s-.68.6.9.4,1.7.16,2.9-.56A4.12,4.12,0,0,0,49,62.05Z"></path>
      <path class="cls-11" d="M45.54,61.22a18.45,18.45,0,0,0-1,2.5c-.32,1.15-.34,1.46-1.38,1.41s-3.37.61-4.31,0-.88-.5-.63-1.83.87-2,2.07-3a2.69,2.69,0,0,1,3.07-.64A6.78,6.78,0,0,1,45.54,61.22Z"></path>
      <path class="cls-22" d="M59.72,59.8s-2.1-2.85-4.94-2.15-4.07,2.86-3.64,3.68a10.06,10.06,0,0,0,1,1.12c.65.72,2.24-1.14,2.3-1.14S59.72,59.8,59.72,59.8Z"></path>
      <path class="cls-9" d="M61,63.25s-.66-3.87-2.1-4-3-.44-3-.44l-.44.67s1.27,2.58,1.84,2.81,1.63.56,1.87.68A13.84,13.84,0,0,0,61,63.25Z"></path>
      <path class="cls-10" d="M60.84,63.71c.13-.32.43-1.18-.47-1.5a14.33,14.33,0,0,0-1.84-.5s-2.38,1.6-2.84,1.85-.77.19.53.66,1.26.81,2.47.73A3.6,3.6,0,0,0,60.84,63.71Z"></path>
      <path class="cls-11" d="M58.53,61.71a16.17,16.17,0,0,0-1.76,1.55c-.71.75-.85,1-1.63.53s-2.86-.86-3.34-1.69-.49-.74.24-1.67A4.17,4.17,0,0,1,54.82,59a2.34,2.34,0,0,1,2.63.72A6,6,0,0,1,58.53,61.71Z"></path>
      <path class="cls-22" d="M50,61.27s-3-2.32-5.74-.75-3.35,4.16-2.66,4.88a11.68,11.68,0,0,0,1.34.87c.89.54,2-1.84,2-1.87S50,61.27,50,61.27Z"></path>
      <path class="cls-9" d="M52.31,64.46S50.49,60.66,49,61s-3.26.44-3.26.44l-.26.83s2.08,2.28,2.73,2.35,1.85.09,2.14.15A15.07,15.07,0,0,0,52.31,64.46Z"></path>
      <path class="cls-10" d="M52.31,65c0-.37.09-1.34-.93-1.41a14.23,14.23,0,0,0-2.05,0s-2,2.36-2.39,2.75-.73.43.75.53,1.54.46,2.77,0A3.82,3.82,0,0,0,52.31,65Z"></path>
      <path class="cls-11" d="M49.33,63.6A17.92,17.92,0,0,0,48,65.72c-.51,1-.58,1.28-1.52,1s-3.21-.05-4-.76-.73-.62-.25-1.79a4.53,4.53,0,0,1,2.43-2.36,2.51,2.51,0,0,1,2.93,0A6.55,6.55,0,0,1,49.33,63.6Z"></path>
      <path class="cls-22" d="M65.62,66.54a1.83,1.83,0,0,0,1.67-.82c.45-.91.15-1.72-.16-1.79a3,3,0,0,0-.51,0c-.34,0-.2.85-.22.87Z"></path>
      <path class="cls-9" d="M64.43,66.1s1.17.69,1.52.34.79-.7.79-.7l-.08-.27a3.64,3.64,0,0,0-1.15-.14c-.19.1-.51.3-.6.34A5.81,5.81,0,0,0,64.43,66.1Z"></path>
      <path class="cls-10" d="M64.34,66a.34.34,0,0,0,.5.21,4.71,4.71,0,0,0,.54-.37s.11-1,.15-1.16.12-.25-.3,0-.49.15-.74.49A1.2,1.2,0,0,0,64.34,66Z"></path>
      <path class="cls-11" d="M65.38,65.8a5.49,5.49,0,0,0,0-.81c0-.36-.08-.45.22-.55s.86-.56,1.19-.51.31,0,.39.44a1.49,1.49,0,0,1-.23,1.07.81.81,0,0,1-.78.53A2.17,2.17,0,0,1,65.38,65.8Z"></path>
      <path class="cls-22" d="M25.58,68.63a1.81,1.81,0,0,0,1.66-.83c.45-.9.16-1.71-.15-1.78a3.12,3.12,0,0,0-.52,0c-.33,0-.2.85-.21.86S25.58,68.63,25.58,68.63Z"></path>
      <path class="cls-9" d="M24.38,68.19s1.17.69,1.52.34a10.53,10.53,0,0,1,.79-.7l-.07-.27a3.68,3.68,0,0,0-1.15-.14c-.19.09-.52.3-.6.34A4.78,4.78,0,0,0,24.38,68.19Z"></path>
      <path class="cls-10" d="M24.29,68.05c.06.11.22.38.5.21a3.84,3.84,0,0,0,.54-.37s.11-1,.15-1.17.12-.24-.29,0-.5.15-.74.49A1.23,1.23,0,0,0,24.29,68.05Z"></path>
      <path class="cls-11" d="M25.33,67.89a5.49,5.49,0,0,0,0-.81c0-.36-.07-.45.22-.55s.87-.56,1.19-.51.31,0,.39.44a1.45,1.45,0,0,1-.23,1.06.8.8,0,0,1-.78.54A2.17,2.17,0,0,1,25.33,67.89Z"></path>
      <path class="cls-22" d="M37,67.18a2.3,2.3,0,0,0,2.19-.9c.65-1.11.35-2.16,0-2.28a4.17,4.17,0,0,0-.66,0c-.43,0-.33,1.06-.35,1.08Z"></path>
      <path class="cls-9" d="M35.54,66.52s1.42,1,1.9.57,1.07-.83,1.07-.83l-.08-.34A4.92,4.92,0,0,0,37,65.63c-.25.11-.68.35-.79.39A6.28,6.28,0,0,0,35.54,66.52Z"></path>
      <path class="cls-10" d="M35.43,66.34a.45.45,0,0,0,.62.31,5,5,0,0,0,.72-.43s.23-1.24.29-1.46.18-.31-.37,0-.64.15-1,.56A1.61,1.61,0,0,0,35.43,66.34Z"></path>
      <path class="cls-11" d="M36.77,66.22a6.89,6.89,0,0,0,.06-1c0-.46-.06-.57.33-.68s1.15-.64,1.56-.54.38.08.45.59a1.9,1.9,0,0,1-.38,1.34,1,1,0,0,1-1,.61A2.62,2.62,0,0,1,36.77,66.22Z"></path>
      <path class="cls-22" d="M45.36,65.56a1.48,1.48,0,0,1,1.36-.2c.66.3.84.84.68,1a1.86,1.86,0,0,1-.31.2c-.2.12-.49-.37-.5-.37Z"></path>
      <path class="cls-9" d="M44.84,66.25s.4-.81.76-.76.78.06.78.06l.07.17s-.47.5-.62.52l-.51.05A3,3,0,0,1,44.84,66.25Z"></path>
      <path class="cls-10" d="M44.85,66.36a.22.22,0,0,1,.21-.3,2.65,2.65,0,0,1,.48,0s.5.47.6.55.18.09-.17.12-.37.11-.66,0A.87.87,0,0,1,44.85,66.36Z"></path>
      <path class="cls-11" d="M45.54,66.05a3.62,3.62,0,0,1,.35.43c.13.2.15.26.37.2s.76,0,.93-.19.17-.14,0-.38-.29-.33-.6-.47a.67.67,0,0,0-.7,0A1.31,1.31,0,0,0,45.54,66.05Z"></path>
      <path class="cls-22" d="M57.62,62.12S54.8,60,52.31,61.53s-3,3.91-2.38,4.56a9.22,9.22,0,0,0,1.26.78c.84.49,1.8-1.74,1.86-1.76S57.62,62.12,57.62,62.12Z"></path>
      <path class="cls-9" d="M59.83,65s-1.75-3.48-3.15-3.17-3,.48-3,.48l-.22.76s2,2.08,2.57,2.13,1.71,0,2,.09A12.53,12.53,0,0,0,59.83,65Z"></path>
      <path class="cls-10" d="M59.84,65.5c0-.34.06-1.24-.89-1.29a13.76,13.76,0,0,0-1.89.07s-1.78,2.22-2.16,2.59-.67.41.71.48,1.43.39,2.55,0A3.54,3.54,0,0,0,59.84,65.5Z"></path>
      <path class="cls-11" d="M57.06,64.28a15.82,15.82,0,0,0-1.22,2c-.45.92-.51,1.19-1.39,1s-3,0-3.67-.62-.68-.57-.26-1.66a4.19,4.19,0,0,1,2.2-2.23,2.36,2.36,0,0,1,2.72-.09A6.13,6.13,0,0,1,57.06,64.28Z"></path>
      <path class="cls-22" d="M42.56,65.38S40.24,65,39.19,66.6s-.66,3.24-.08,3.44a7.5,7.5,0,0,0,1,.09c.64.05.56-1.57.59-1.6S42.56,65.38,42.56,65.38Z"></path>
      <path class="cls-9" d="M44.74,66.47s-2.08-1.57-2.83-1-1.66,1.17-1.66,1.17l.09.53a7.34,7.34,0,0,0,2.17.52c.38-.15,1-.48,1.21-.53A9,9,0,0,0,44.74,66.47Z"></path>
      <path class="cls-10" d="M44.89,66.76c-.09-.22-.33-.77-.91-.51a9.37,9.37,0,0,0-1.12.59s-.42,1.86-.53,2.2-.28.44.56.07,1-.18,1.52-.78A2.35,2.35,0,0,0,44.89,66.76Z"></path>
      <path class="cls-11" d="M42.86,66.84a11.07,11.07,0,0,0-.15,1.56c0,.69,0,.86-.54,1s-1.77.89-2.38.71-.58-.14-.65-.91a2.82,2.82,0,0,1,.66-2,1.57,1.57,0,0,1,1.61-.86A4.06,4.06,0,0,1,42.86,66.84Z"></path>
    </g>
  </g>
</svg>
