<?xml version="1.0" encoding="UTF-8"?>
<svg xmlns="http://www.w3.org/2000/svg" xmlns:xlink="http://www.w3.org/1999/xlink" viewBox="0 0 114 150.69">
  <defs>
    <style>.cls-1,.cls-13,.cls-14{fill:none;}.cls-2{fill:#8e6848;}.cls-3{clip-path:url(#clip-path);}.cls-4{fill:url(#Безымянный_градиент_2);}.cls-5{fill:#713e21;}.cls-6{fill:#3d271f;}.cls-7{fill:#69391e;}.cls-8{fill:#6b472f;}.cls-9{fill:#5c3624;}.cls-10{fill:#795135;}.cls-11{fill:#9a734f;}.cls-12{fill:#fbfcfe;}.cls-13,.cls-14,.cls-15{stroke:#fbfcfe;}.cls-13,.cls-14{stroke-linecap:round;stroke-linejoin:round;}.cls-13{stroke-width:0.21px;}.cls-14{stroke-width:0.32px;}.cls-15{fill:#9fa89f;stroke-miterlimit:10;stroke-width:1.07px;}.cls-16{fill:#85563a;}.cls-17{fill:#649853;}.cls-18{fill:#7db868;}.cls-19{fill:#97d582;}.cls-20{fill:#9bd674;}.cls-21{fill:#83c271;}.cls-22{fill:#8ccd64;}.cls-23{fill:#aee28c;}.cls-24{fill:#2c6d3b;opacity:0.3;}.cls-25{fill:#6b482f;}</style>
    <clipPath id="clip-path">
      <polygon class="cls-1" points="14.39 126.73 56.13 146.38 94.74 126.83 54.6 109.82 14.39 126.73"></polygon>
    </clipPath>
    <linearGradient id="Безымянный_градиент_2" x1="-4706.13" y1="-254.09" x2="-4703.79" y2="-254.09" gradientTransform="matrix(34.36, 0, 0, -34.36, 161690.22, -8601.42)" gradientUnits="userSpaceOnUse">
      <stop offset="0" stop-color="#9b714e"></stop>
      <stop offset="0.38" stop-color="#9b714e"></stop>
      <stop offset="0.89" stop-color="#764528"></stop>
      <stop offset="1" stop-color="#6e3c20"></stop>
    </linearGradient>
  </defs>
  <g id="Слой_2" data-name="Слой 2">
    <g id="Слой_1-2" data-name="Слой 1">
      <path class="cls-2" d="M56.13,91.12s8,9.44,14.25,9.83,27.41-6.32,27.41-6.32l2.13-22.08L56.13,57.1Z"></path>
      <path class="cls-2" d="M7.94,71l4.37,28.8s15.52,2.33,18.23,1.55S45.68,95.9,49.17,95.9s7-4.78,7-4.78v-34Z"></path>
      <g class="cls-3">
        <rect class="cls-4" x="34.15" y="87" width="40.82" height="82.2" transform="translate(-76.28 175.71) rotate(-86.92)"></rect>
      </g>
      <path class="cls-5" d="M14.39,126.73,12.31,99.78s19.78-.39,25.22-3.1,18.6-5.56,18.6-5.56l-1.53,18.7Z"></path>
      <path class="cls-6" d="M42.6,101.45a7.27,7.27,0,0,0-2.37-1.39v0s-3.16-.94-4.89,1.19-1.42,4.41-.64,4.78a8.47,8.47,0,0,0,1.36.29l.08,0a22.43,22.43,0,0,0,2.93-.66,1.55,1.55,0,0,0,.5-.13l.55-.16c1.23-.38,1.39-.11,2.24-.85a3.3,3.3,0,0,0,.91-2.13l-.17-.42h0l0,0a.82.82,0,0,0-.48-.43"></path>
      <path class="cls-6" d="M25.65,104.23a9.32,9.32,0,0,0-3.35,1.11v0s-3.59,2.25-3,5.71,3.05,5.13,4.07,4.68a10.91,10.91,0,0,0,1.44-1.07l0-.11c.77-.88,1.33-2.64,1.84-3.38a1.87,1.87,0,0,0,.3-.61c.09-.16.17-.35.31-.65.68-1.52,1.07-1.43,1.08-2.89a4.24,4.24,0,0,0-1.29-2.68,3.25,3.25,0,0,0-.54-.19v0h-.06a1.08,1.08,0,0,0-.82.11"></path>
      <path class="cls-7" d="M56.13,91.12l-1.53,18.7,40.14,17,3.05-32.2s-12.52-1.45-18-.67-14.9,3.1-17.74,1.55a37.33,37.33,0,0,1-6-4.39"></path>
      <path class="cls-6" d="M40.84,110.33a2.84,2.84,0,0,0-1.05-.25h0a1.94,1.94,0,0,0-1.71,1c-.41,1,0,1.82.3,1.87l.54-.05,0,0a8.62,8.62,0,0,0,1-.58l.18-.1.18-.12c.42-.29.51-.2.75-.57a1.28,1.28,0,0,0,.1-.9l-.11-.14h0Z"></path>
      <path class="cls-6" d="M80.17,102.28a1.88,1.88,0,0,0-.09-.74h0s-.31-.84-1.06-.86-1.19.42-1.14.65l.16.34h0l.63.53.11.08.13.09c.28.21.25.29.55.35a.91.91,0,0,0,.61-.16l.06-.1h0v-.19Z"></path>
      <path class="cls-6" d="M91.38,115.8a9,9,0,0,0-1.59-3.19h0s-2.77-3.26-6.15-2.16-4.67,3.79-4.08,4.74a11.74,11.74,0,0,0,1.28,1.28H81c1,.64,2.83,1,3.65,1.35a2,2,0,0,0,.64.21l.71.22c1.61.45,1.58.86,3,.66a4.36,4.36,0,0,0,2.49-1.68,3,3,0,0,0,.1-.57h0v-.06a1.08,1.08,0,0,0-.24-.8"></path>
      <path class="cls-6" d="M69.57,104.7A6.93,6.93,0,0,0,68,107l0,0s-1.17,3.07.81,4.93,4.27,1.74,4.7,1a10.21,10.21,0,0,0,.38-1.32l0-.08a25,25,0,0,0-.44-3,1.57,1.57,0,0,0-.09-.52c0-.14-.06-.29-.12-.55-.29-1.25,0-1.38-.68-2.28a3.31,3.31,0,0,0-2-1.06l-.43.14h0l0,0a.83.83,0,0,0-.45.45"></path>
      <path class="cls-8" d="M69.72,127.57a1.32,1.32,0,0,0,1.31-.34c.45-.59.36-1.2.14-1.29l-.36-.08c-.25,0-.27.58-.28.59Z"></path>
      <path class="cls-9" d="M68.93,127.09s.73.66,1,.46.67-.39.67-.39V127l-.8-.26-.48.15Z"></path>
      <path class="cls-10" d="M68.89,127c0,.08.1.3.33.22a4,4,0,0,0,.43-.19l.28-.81c0-.12.12-.15-.21,0s-.38,0-.6.24a.86.86,0,0,0-.23.58"></path>
      <path class="cls-11" d="M69.66,127a4.21,4.21,0,0,0,.1-.58c0-.26,0-.33.24-.36s.7-.28.92-.19.22.08.22.37a1.07,1.07,0,0,1-.32.73.6.6,0,0,1-.63.27,1.54,1.54,0,0,1-.53-.24"></path>
      <path class="cls-8" d="M60.8,122.46a3,3,0,0,0,2.71-1.4c.71-1.49.21-2.8-.31-2.91a6.3,6.3,0,0,0-.84,0c-.55,0-.31,1.4-.33,1.42Z"></path>
      <path class="cls-9" d="M58.83,121.77s1.93,1.1,2.5.51,1.28-1.17,1.28-1.17l-.13-.43a6.26,6.26,0,0,0-1.9-.21c-.3.17-.83.52-1,.58Z"></path>
      <path class="cls-10" d="M58.68,121.54c.09.17.36.61.82.33a6.65,6.65,0,0,0,.88-.62s.15-1.62.21-1.91.19-.41-.48,0-.8.26-1.2.82a2,2,0,0,0-.23,1.38"></path>
      <path class="cls-11" d="M60.38,121.25a8.44,8.44,0,0,0,0-1.33c-.08-.58-.13-.73.35-.91s1.4-.94,1.94-.85.5,0,.64.7a2.34,2.34,0,0,1-.35,1.75,1.32,1.32,0,0,1-1.26.9,3.5,3.5,0,0,1-1.28-.26"></path>
      <path class="cls-8" d="M52.48,129a2.91,2.91,0,0,0,3,.36c1.4-.83,1.71-2.16,1.36-2.53a5.86,5.86,0,0,0-.7-.44c-.46-.28-1,1-1,1Z"></path>
      <path class="cls-9" d="M51.26,127.31s1,1.95,1.74,1.79,1.68-.25,1.68-.25l.13-.42s-1.08-1.17-1.42-1.2-1,0-1.1-.07Z"></path>
      <path class="cls-10" d="M51.26,127c0,.2,0,.7.49.73a7.09,7.09,0,0,0,1,0L54,126.32c.21-.21.38-.23-.39-.27s-.79-.23-1.42,0a2,2,0,0,0-1,1"></path>
      <path class="cls-11" d="M52.8,127.74a7.77,7.77,0,0,0,.69-1.1c.26-.51.3-.66.78-.54s1.65,0,2,.37.38.32.14.93a2.31,2.31,0,0,1-1.24,1.22,1.31,1.31,0,0,1-1.51,0,3.44,3.44,0,0,1-.9-.92"></path>
      <path class="cls-8" d="M48.89,123.57a2.23,2.23,0,0,0,.08-2.28c-.72-1-1.76-1.16-2-.86l-.29.56c-.18.37.8.7.81.73Z"></path>
      <path class="cls-9" d="M47.72,124.6s1.43-.86,1.25-1.44-.3-1.26-.3-1.26l-.33-.08s-.82.91-.82,1.17,0,.72,0,.84Z"></path>
      <path class="cls-10" d="M47.52,124.62c.15,0,.53,0,.52-.42a5.36,5.36,0,0,0-.09-.8l-1.17-.84c-.17-.14-.19-.27-.18.32s-.12.62.1,1.08a1.49,1.49,0,0,0,.82.66"></path>
      <path class="cls-11" d="M48,123.4a6.56,6.56,0,0,0-.88-.45c-.41-.17-.53-.18-.47-.57s-.1-1.26.15-1.57.22-.31.7-.17a1.76,1.76,0,0,1,1,.87,1,1,0,0,1,.13,1.15,2.58,2.58,0,0,1-.64.74"></path>
      <path class="cls-8" d="M41.82,125.25a1,1,0,0,0,.32-.93c-.17-.51-.58-.71-.72-.62l-.2.2.24.4Z"></path>
      <path class="cls-9" d="M41.2,125.53s.7-.17.7-.44a4.76,4.76,0,0,1,0-.56l-.13-.07-.49.37-.1.36Z"></path>
      <path class="cls-10" d="M41.11,125.51l.27-.11.07-.34-.38-.49c0-.09,0-.14-.11.1s-.13.24-.1.46a.62.62,0,0,0,.25.38"></path>
      <path class="cls-11" d="M41.45,125.06l-.31-.3-.12-.29.26-.64.31,0a.78.78,0,0,1,.31.49.42.42,0,0,1-.09.49Z"></path>
      <path class="cls-8" d="M39.65,129.15s1.36-2.2.11-3.94-3.06-2-3.5-1.48a7.66,7.66,0,0,0-.5,1c-.31.64,1.39,1.22,1.41,1.26Z"></path>
      <path class="cls-9" d="M37.64,131s2.45-1.5,2.14-2.51-.53-2.18-.53-2.18l-.57-.13s-1.41,1.57-1.42,2,.07,1.26.05,1.46Z"></path>
      <path class="cls-10" d="M37.28,131c.26,0,.92,0,.9-.72a11.18,11.18,0,0,0-.16-1.39s-1.74-1.18-2-1.44-.34-.47-.3.55-.21,1.08.18,1.88A2.6,2.6,0,0,0,37.28,131"></path>
      <path class="cls-11" d="M38,128.87a11.11,11.11,0,0,0-1.54-.78c-.71-.28-.9-.31-.81-1s-.19-2.19.24-2.74.38-.54,1.2-.29a3.08,3.08,0,0,1,1.78,1.48,1.74,1.74,0,0,1,.22,2A4.4,4.4,0,0,1,38,128.87"></path>
      <g id="корни">
        <path class="cls-12" d="M53.2,86.13c-.79,0-1.56.06-2.33.14a19.9,19.9,0,0,0-2.3.33,10.12,10.12,0,0,0-2.19.75,9.31,9.31,0,0,0-2,1.25l0,0a9.78,9.78,0,0,1,1.91-1.4,10.87,10.87,0,0,1,2.21-.89,9.35,9.35,0,0,1,2.35-.42,7.87,7.87,0,0,1,2.37.24Z"></path>
        <path class="cls-13" d="M48.47,86.44a11.69,11.69,0,0,1-1.45,3c-.59.51-2.33,1.86-2.33,1.86"></path>
        <path class="cls-12" d="M41.6,91.21c.86-.49,1.74-.95,2.62-1.41a24.39,24.39,0,0,1,2.71-1.22c.94-.37,1.94-.48,2.88-.78.47-.13.95-.28,1.45-.38a4,4,0,0,1,.78-.09,1,1,0,0,1,.8.22l0,0a.22.22,0,0,1,0,.31.21.21,0,0,1-.18.06,9.47,9.47,0,0,0-2.79.24A19.24,19.24,0,0,0,47,88.8,24,24,0,0,0,44.3,90c-.89.42-1.76.9-2.61,1.4a.09.09,0,1,1-.09-.15Z"></path>
        <path class="cls-12" d="M48,93.61a4.85,4.85,0,0,1,.49-1.86,5.06,5.06,0,0,1,1.19-1.53,6.49,6.49,0,0,1,1.64-1.06,7.46,7.46,0,0,1,1.87-.44l.21,0a.14.14,0,0,1,.15.13.08.08,0,0,1,0,.07.42.42,0,0,1-.15.17l0,0-.06,0-.07.05-.12.06a.94.94,0,0,1-.22.07,3.4,3.4,0,0,1-.46.08,4.14,4.14,0,0,0-.92.17,5.42,5.42,0,0,0-1.6.92A4.88,4.88,0,0,0,48,93.61s0,0,0,0A0,0,0,0,1,48,93.61Z"></path>
        <path class="cls-12" d="M45.93,93a6.27,6.27,0,0,1,1.26-1,3.54,3.54,0,0,1,1.53-.53.08.08,0,0,1,.09.08.09.09,0,0,1-.08.1h0A4.81,4.81,0,0,0,46,93.08a0,0,0,0,1-.07-.07Z"></path>
        <path class="cls-12" d="M51.73,89.45A6.83,6.83,0,0,0,51.12,91c-.13.49-.09,1.09-.24,1.65a3.52,3.52,0,0,1-.76,1.55,3.12,3.12,0,0,1-1.46.91.12.12,0,0,1-.13-.07.12.12,0,0,1,.07-.14A2.85,2.85,0,0,0,49.93,94a3.22,3.22,0,0,0,.67-1.45c.13-.53.07-1.08.2-1.67a7.12,7.12,0,0,1,.61-1.61.19.19,0,0,1,.33.17h0Z"></path>
        <path class="cls-12" d="M42.86,96.45a3.11,3.11,0,0,1,1.17-1,7.39,7.39,0,0,1,1.4-.58c1-.32,2-.33,2.91-.68a3.14,3.14,0,0,0,1.17-.8,3.59,3.59,0,0,1,1.25-.94,7.9,7.9,0,0,1,3.08-.28.32.32,0,0,1,0,.64h0a6.75,6.75,0,0,0-2.87,0,3,3,0,0,0-1.15.8,3.41,3.41,0,0,1-1.33.8,8.74,8.74,0,0,1-1.49.3,11.65,11.65,0,0,0-1.45.3,4.32,4.32,0,0,0-2.44,1.49v0a.11.11,0,1,1-.18-.12Z"></path>
        <path class="cls-13" d="M47.21,94.6s-5.75-2.35-8.66-.37"></path>
        <path class="cls-12" d="M54.38,93.7a.31.31,0,0,1-.22.11l-.12,0-.22,0a3.1,3.1,0,0,0-.42.08,2.7,2.7,0,0,0-.78.33,2.54,2.54,0,0,0-1,1.31,3.13,3.13,0,0,1-.43.83,1.21,1.21,0,0,1-.87.45c-.65,0-1.23-.14-1.8-.1a2.48,2.48,0,0,0-1.54.67,3.26,3.26,0,0,0-.58.64,1.52,1.52,0,0,1-.81.51c-.59.16-1.22.19-1.77.3a2.17,2.17,0,0,0-1.3,1,.11.11,0,1,1-.19-.11,2.45,2.45,0,0,1,1.43-1.15c.62-.13,1.19-.15,1.76-.32a1.2,1.2,0,0,0,.68-.43,4.31,4.31,0,0,1,.61-.68,2.75,2.75,0,0,1,1.69-.74c.63,0,1.23.13,1.79.09s.87-.55,1.05-1.11A2.9,2.9,0,0,1,52.45,94a3,3,0,0,1,.87-.37l.45-.1.23,0,.1,0s.06,0,0,0a.17.17,0,0,1,.23-.06A.18.18,0,0,1,54.38,93.7Z"></path>
        <path class="cls-12" d="M51.17,96.25a4.19,4.19,0,0,1,.27,1.4A2.69,2.69,0,0,1,51.1,99a4.29,4.29,0,0,1-1,1,3.45,3.45,0,0,0-.9,1,.07.07,0,0,1-.1,0s0,0,0-.09h0A3.43,3.43,0,0,1,50,99.9a5,5,0,0,0,.92-1A3.13,3.13,0,0,0,51,96.34h0a.12.12,0,0,1,.07-.15A.11.11,0,0,1,51.17,96.25Z"></path>
        <path class="cls-13" d="M49.8,100.2a4.59,4.59,0,0,1-.78,5"></path>
        <path class="cls-12" d="M54.75,94.74a5.34,5.34,0,0,1-2.3,2.1l-2.71,1.39a14.5,14.5,0,0,0-2.51,1.65,3.94,3.94,0,0,0-1.52,2.45.1.1,0,0,1-.12.09.09.09,0,0,1-.09-.11,4.19,4.19,0,0,1,1.57-2.62A14.81,14.81,0,0,1,49.61,98l2.69-1.42a5.11,5.11,0,0,0,2.12-1.93l0,0a.17.17,0,0,1,.31.15Z"></path>
        <path class="cls-13" d="M47.11,99.82a2.67,2.67,0,0,1-.21,2.37"></path>
        <path class="cls-12" d="M55.68,97.77a20.06,20.06,0,0,1-2.4.72,2.24,2.24,0,0,0-1.6,1.54h0a.1.1,0,0,1-.13.06.1.1,0,0,1-.07-.13,2.71,2.71,0,0,1,.63-1.12,2.2,2.2,0,0,1,1.11-.67,17.53,17.53,0,0,0,2.31-.8h0a.21.21,0,1,1,.17.39Z"></path>
        <path class="cls-12" d="M55.86,98.58a3.86,3.86,0,0,1-1.19,1.25,13,13,0,0,1-1.44.82,4.35,4.35,0,0,0-1.19,1,3.22,3.22,0,0,0-.73,1.39.07.07,0,0,1-.06,0,.07.07,0,0,1,0-.05,2.49,2.49,0,0,1,.65-1.53,4.6,4.6,0,0,1,1.25-1.11,10.5,10.5,0,0,0,1.36-.87,3.73,3.73,0,0,0,1-1.14v0a.22.22,0,0,1,.28-.1.21.21,0,0,1,.1.28Z"></path>
        <path class="cls-12" d="M56.1,99a12.07,12.07,0,0,0-1.6,4.12.11.11,0,0,1-.21,0,12.24,12.24,0,0,1,1.56-4.25.15.15,0,0,1,.25.15h0Z"></path>
        <path class="cls-12" d="M56.59,101.19a11,11,0,0,1-1.25,2.44,6.51,6.51,0,0,1-1.94,1.9.05.05,0,0,1-.08,0,.06.06,0,0,1,0-.08,6.26,6.26,0,0,0,1.79-1.94,10.28,10.28,0,0,0,1.1-2.41h0a.2.2,0,0,1,.24-.13.18.18,0,0,1,.13.24Z"></path>
        <path class="cls-12" d="M56.72,103.57a4.5,4.5,0,0,1-.4.38l-.4.34a3.7,3.7,0,0,0-.69.74h0a.07.07,0,1,1-.13-.07,3.57,3.57,0,0,1,.68-.84l.37-.36a3.91,3.91,0,0,0,.35-.36l0,0a.14.14,0,0,1,.21.17Z"></path>
        <path class="cls-12" d="M56.83,104.47a9.52,9.52,0,0,1-.63,2.68c-.19.44-.41.8-.55,1.22a4,4,0,0,0-.23,1.29.11.11,0,0,1-.11.11.1.1,0,0,1-.1-.11h0a4.53,4.53,0,0,1,.17-1.36c.12-.45.35-.87.49-1.27a9,9,0,0,0,.46-2.58h0a.25.25,0,0,1,.5,0Z"></path>
        <path class="cls-12" d="M57,103.85a10,10,0,0,1,1.44,3,6.3,6.3,0,0,1,.1,3.28.06.06,0,0,1-.08,0s0,0,0-.07a6.07,6.07,0,0,0-.3-3.16,9.64,9.64,0,0,0-1.54-2.75h0a.27.27,0,0,1,0-.38.26.26,0,0,1,.38,0Z"></path>
        <path class="cls-12" d="M58.24,106.61a3.78,3.78,0,0,1,1.46,1.28,5.33,5.33,0,0,1,.78,1.76s0,0,0,0,0,0,0,0a5.2,5.2,0,0,0-.82-1.69,3.71,3.71,0,0,0-1.42-1.17h0a.1.1,0,0,1-.06-.14.11.11,0,0,1,.14,0Z"></path>
        <path class="cls-12" d="M56.93,101.43a2,2,0,0,1,1.12.48,3.26,3.26,0,0,1,.74.92.11.11,0,0,1,0,.15.1.1,0,0,1-.14,0,3.17,3.17,0,0,0-.72-.82,2.13,2.13,0,0,0-.46-.27,1.32,1.32,0,0,0-.49-.11h0a.15.15,0,0,1-.15-.15.14.14,0,0,1,.15-.16Z"></path>
        <path class="cls-12" d="M57.49,97.78c.59,0,.75.42.94.7a4.25,4.25,0,0,1,.37,1,11.86,11.86,0,0,0,.52,1.84,12.56,12.56,0,0,0,2,3.24h0a.11.11,0,1,1-.16.14A12.35,12.35,0,0,1,59,101.4a11.12,11.12,0,0,1-.59-1.86,4,4,0,0,0-.36-.85c-.12-.24-.41-.47-.5-.46H57.5a.23.23,0,1,1-.06-.46Z"></path>
        <path class="cls-13" d="M57.33,99.41s3.86-.27,4.27,2.18"></path>
        <path class="cls-12" d="M58.09,96.48a4.72,4.72,0,0,0,1.78,1.37,9.37,9.37,0,0,1,2.19,1.06c.34.3.5.66.82.84s.71.38,1,.62a3.18,3.18,0,0,1,1.47,1.93.1.1,0,0,1-.09.12.11.11,0,0,1-.12-.09,3,3,0,0,0-1.41-1.74c-.33-.23-.67-.37-1-.59s-.6-.62-.88-.84a9.24,9.24,0,0,0-2.13-1,4.9,4.9,0,0,1-2-1.49.21.21,0,0,1,0-.31.22.22,0,0,1,.31,0h0Z"></path>
        <path class="cls-12" d="M63.49,100.17a8.77,8.77,0,0,0,.42,2.59,4.79,4.79,0,0,0,1.4,2.2.06.06,0,0,1,0,.09.06.06,0,0,1-.08,0,4.86,4.86,0,0,1-1.54-2.22,9.32,9.32,0,0,1-.54-2.67.17.17,0,0,1,.16-.17.15.15,0,0,1,.17.15h0Z"></path>
        <path class="cls-12" d="M58,95.13a13.9,13.9,0,0,0,1.62.74,2.48,2.48,0,0,0,.78.18,1.89,1.89,0,0,0,.71-.32,8.46,8.46,0,0,1,.8-.48.9.9,0,0,1,.58-.13.66.66,0,0,1,.19.09l.09.06.18.13a8.26,8.26,0,0,0,1.52.91,2.15,2.15,0,0,0,.84.13,3.73,3.73,0,0,1,.93.18,4.9,4.9,0,0,1,1.63.93,10.49,10.49,0,0,1,2.25,2.89.11.11,0,0,1,0,.15.11.11,0,0,1-.14,0,10.36,10.36,0,0,0-2.27-2.77A4.46,4.46,0,0,0,66.09,97a3.17,3.17,0,0,0-.86-.15l-.45,0a1.35,1.35,0,0,1-.5-.11,9.22,9.22,0,0,1-1.63-.91l-.19-.13-.09-.07h0a.65.65,0,0,0-.28.09c-.24.13-.49.31-.75.48a2.21,2.21,0,0,1-.93.41,2.69,2.69,0,0,1-1-.18,13.05,13.05,0,0,1-1.72-.73.29.29,0,0,1-.13-.39.3.3,0,0,1,.39-.13h0Z"></path>
        <path class="cls-12" d="M58.22,93.46a2.06,2.06,0,0,1,1.64,1,6.67,6.67,0,0,1,.27.85,1.63,1.63,0,0,0,.09.2,1.94,1.94,0,0,1,.41,0A3.37,3.37,0,0,1,62,96.7a2.6,2.6,0,0,0,.54.59.78.78,0,0,0,.71.08h0a.11.11,0,0,1,.14.06.1.1,0,0,1,0,.13,1,1,0,0,1-.94,0,2.42,2.42,0,0,1-.65-.62,3.14,3.14,0,0,0-1.25-1c-.1,0-.13,0-.44,0s-.34-.33-.41-.46a6.53,6.53,0,0,0-.29-.76,1.47,1.47,0,0,0-1.21-.65h0a.32.32,0,0,1-.3-.34.33.33,0,0,1,.33-.3Z"></path>
        <path class="cls-14" d="M58,91.59s1.55,1.44,4.68.73,8.26.6,10.79,3.34"></path>
        <path class="cls-12" d="M58.5,88.52a16.28,16.28,0,0,0,1.88.91c.32.13.65.25,1,.35a2.89,2.89,0,0,1,1,.41,5.75,5.75,0,0,1,1.54,1.53A8.39,8.39,0,0,1,65,93.59a.09.09,0,0,1,0,.11.1.1,0,0,1-.11,0,7.84,7.84,0,0,0-1.11-1.77,5.45,5.45,0,0,0-1.52-1.36,3,3,0,0,0-.95-.33c-.35-.09-.69-.21-1-.33a16.53,16.53,0,0,1-2-.91.26.26,0,0,1-.1-.34.25.25,0,0,1,.34-.1h0Z"></path>
        <path class="cls-12" d="M61,89.69a9.49,9.49,0,0,1,.61,1.07,6.28,6.28,0,0,1,.4,1.15,5,5,0,0,0,.49,1,3.57,3.57,0,0,0,.72.9h0a.1.1,0,1,1-.13.16,3.81,3.81,0,0,1-.83-.92A5.38,5.38,0,0,1,61.65,92a5.52,5.52,0,0,0-.44-1.09,9,9,0,0,0-.62-1h0a.23.23,0,0,1,.05-.31.22.22,0,0,1,.31.05Z"></path>
        <path class="cls-12" d="M58.31,88.11a.42.42,0,0,1,.45-.18l.44,0,.87.11c.58.09,1.15.2,1.72.34,1.14.28,2.25.63,3.35,1,2.2.75,4.38,1.53,6.58,2.25a.05.05,0,0,1,0,.07.07.07,0,0,1-.07,0c-2.25-.58-4.47-1.28-6.67-2-1.11-.34-2.21-.71-3.32-1-.56-.13-1.13-.24-1.69-.32l-.86-.11-.43,0A.43.43,0,0,1,58.31,88.11Z"></path>
        <path class="cls-12" d="M66,90.5c-.53-.55-1.06-1.09-1.63-1.59a6,6,0,0,0-.87-.68,3.32,3.32,0,0,0-1-.28,6.66,6.66,0,0,1-1.15-.22,2.83,2.83,0,0,0-1-.24c-.34,0-.7.19-1.14.18A1.84,1.84,0,0,1,58,87.12a.23.23,0,0,1,.32-.34l0,0h0a1.25,1.25,0,0,0,.83.48c.32,0,.68-.14,1.11-.15a3,3,0,0,1,1.15.27,6.5,6.5,0,0,0,1.1.23,3.45,3.45,0,0,1,1.14.33,5.49,5.49,0,0,1,.91.73c.57.52,1.09,1.07,1.61,1.64a.1.1,0,1,1-.15.14Z"></path>
        <path class="cls-12" d="M62.75,87.8a1.45,1.45,0,0,1,.86-.54,1.71,1.71,0,0,1,1,.11,4.36,4.36,0,0,1,1.54,1.14.1.1,0,1,1-.15.14,4.32,4.32,0,0,0-1.48-1.05,1.39,1.39,0,0,0-.85-.09A1.23,1.23,0,0,0,63,88h0a.14.14,0,0,1-.19,0,.13.13,0,0,1,0-.19Z"></path>
        <path class="cls-12" d="M68.35,92.62a5.11,5.11,0,0,1,.49,1,3.13,3.13,0,0,1,.16.52.93.93,0,0,0,.14.46,3.49,3.49,0,0,0,.73.7,1.63,1.63,0,0,1,.63.91c0,.06,0,.12-.09.12a.11.11,0,0,1-.13-.09h0a1.38,1.38,0,0,0-.56-.77,3.63,3.63,0,0,1-.77-.75,1.29,1.29,0,0,1-.18-.53,2.75,2.75,0,0,0-.14-.49,6.53,6.53,0,0,0-.47-.91.11.11,0,0,1,0-.16.11.11,0,0,1,.16,0Z"></path>
      </g>
      <path class="cls-15" d="M53.12,83.84s-1.07,1.42-.43,4.7S57,102.3,56.47,103.37s-.33,3,.05,2.28,3.8-18.82,1.59-21.81S53.12,83.84,53.12,83.84Z"></path>
      <polygon class="cls-16" points="7.94 70.98 56.13 91.12 99.92 72.55 56.13 57.1 7.94 70.98"></polygon>
      <path class="cls-17" d="M78.33,31.5s2.37-2.42,7.24-1.69a26.26,26.26,0,0,1,3.34,1.35c2.14,1,3.81.88,4.75,1.2s3.14,1,4.39.47,7.67-5.54,8.92-5.75,6-2.08,7,3-6.11,9-5.38,13.31a9.82,9.82,0,0,1-3.18,8.72c-1.15.78-2.56.73-6.58,2.92,0,0-.84.37-2.3,2.92A11.15,11.15,0,0,1,89,62.84c-2.45.21-4.33-.73-5.42-.47s-1.67.47-2.09,1.2a11.32,11.32,0,0,1-6.58,4.13c-3.65.73-6.52.1-8.82.26s-3.34,1.67-6.58,1.82c0,0,.21,2.46-1,3.29s-4,3.34-5.74-1.62-4.55-6.21-4.55-6.21S40.73,63.57,35.2,65s-12.74,4-18.38,3S7.9,63.73,7.32,60.7s-1.14-3.91-2.92-5S-.92,50,.22,45.09s2.51-3.44,2-6.47a10.89,10.89,0,0,1,.57-5.74c.16-.16,3.66-4.75,8.77-4.39a82.28,82.28,0,0,1,12.85,2.56S63,39.37,78.33,31.5Z"></path>
      <path class="cls-18" d="M31.46,51.25c-1.77-.28-3.65-.48-5.5-.6a49.13,49.13,0,0,0-5.56-.09,24.45,24.45,0,0,0-5.47.76,10.63,10.63,0,0,0-2.52,1,5.43,5.43,0,0,0-2,1.82h0a.21.21,0,0,1-.37-.19,6.08,6.08,0,0,1,1.86-2.32,11.22,11.22,0,0,1,2.57-1.5,27.22,27.22,0,0,1,5.63-1.69,53.75,53.75,0,0,1,5.79-.81c1.95-.16,3.85-.26,5.87-.25a1.95,1.95,0,0,1,0,3.89,1.37,1.37,0,0,1-.29,0Z"></path>
      <path class="cls-18" d="M8.23,37.63a7.47,7.47,0,0,1,2.29,1.24,5.41,5.41,0,0,1,.9,1A4.69,4.69,0,0,1,12,41a5,5,0,0,1,.13.65l.09.63a11.77,11.77,0,0,0,.24,1.21,5.33,5.33,0,0,0,2.9,3.62,7.65,7.65,0,0,0,1.12.44l.58.18.6.12a20.11,20.11,0,0,0,4.91.23h0a.66.66,0,0,1,.7.64.68.68,0,0,1-.64.71h0a22.58,22.58,0,0,1-5.16-.65l-.64-.17-.62-.23a10.07,10.07,0,0,1-1.2-.57,6.61,6.61,0,0,1-2-1.77,6.36,6.36,0,0,1-1-2.43,11,11,0,0,1-.19-1.28c0-.21,0-.43,0-.63a3.84,3.84,0,0,0-.11-.59,3.74,3.74,0,0,0-1.31-2A5.69,5.69,0,0,0,8.12,38h0A.2.2,0,0,1,8,37.78a.21.21,0,0,1,.26-.15Z"></path>
      <path class="cls-18" d="M16.62,31.8a6.93,6.93,0,0,1,3.11,4.91c0,.24.07.49.07.74v.74c0,.49-.1,1-.11,1.45a5.09,5.09,0,0,0,.73,2.63A11.07,11.07,0,0,0,24.57,46a19.88,19.88,0,0,0,5.23,2.07h0a.72.72,0,0,1,.54.86.73.73,0,0,1-.87.55l-.07,0a23.89,23.89,0,0,1-5.36-2.65,16,16,0,0,1-2.32-1.88,9.05,9.05,0,0,1-1.83-2.38,5.5,5.5,0,0,1-.66-2.94l.17-1.45v-.71c0-.24,0-.47-.05-.71a6.24,6.24,0,0,0-.93-2.65,5.71,5.71,0,0,0-2-1.92h0a.21.21,0,0,1-.08-.29.2.2,0,0,1,.28-.08Z"></path>
      <path class="cls-18" d="M12.76,60a6.47,6.47,0,0,0,3.37-1.16,4.34,4.34,0,0,0,1.17-1.32l.2-.4a3.39,3.39,0,0,0,.15-.41,4.39,4.39,0,0,0,.2-.87,9.85,9.85,0,0,1,1.09-3.66A9.27,9.27,0,0,1,20,50.59c.21-.25.44-.5.67-.73a6.94,6.94,0,0,1,.8-.68.65.65,0,0,1,.75,1,.27.27,0,0,1-.1.06h0a5.53,5.53,0,0,0-.7.43c-.23.18-.46.36-.67.56a7.83,7.83,0,0,0-1.14,1.35A8.6,8.6,0,0,0,18.35,56a5,5,0,0,1-.25.94,3.57,3.57,0,0,1-.19.45l-.24.43a5.33,5.33,0,0,1-1.32,1.4,6.69,6.69,0,0,1-1.71.86,8.24,8.24,0,0,1-1.86.42.21.21,0,0,1-.23-.19.21.21,0,0,1,.19-.23h0Z"></path>
      <path class="cls-18" d="M30.29,50.82a.89.89,0,0,0-.22.11,1.46,1.46,0,0,0-.24.17,1.91,1.91,0,0,0-.42.43,2.81,2.81,0,0,0-.51,1.12A4.43,4.43,0,0,0,28.82,54c0,.22.05.45.09.68l.15.68v0a6.52,6.52,0,0,1,.36,2,5.41,5.41,0,0,1-.31,2A4.66,4.66,0,0,1,28,61a5.85,5.85,0,0,1-.76.64c-.26.19-.56.33-.84.5a.09.09,0,0,1-.12,0,.08.08,0,0,1,0-.12h0c.26-.19.53-.35.77-.56a4.57,4.57,0,0,0,.65-.67,4,4,0,0,0,.86-1.6,5,5,0,0,0,.14-1.81,5.8,5.8,0,0,0-.45-1.73h0a.09.09,0,0,1,0,0l-.21-.74c-.06-.25-.1-.5-.15-.76a5.72,5.72,0,0,1,0-1.6,3.88,3.88,0,0,1,.62-1.56,3.44,3.44,0,0,1,.57-.64,3.26,3.26,0,0,1,.78-.49.56.56,0,0,1,.44,1h0Z"></path>
      <path class="cls-18" d="M70.76,54.25q3.84-3,7.73-5.87c1.29-1,2.6-1.92,3.92-2.86.67-.47,1.32-.94,2-1.37s1.44-.8,2.17-1.16c1.45-.72,2.9-1.41,4.32-2.17s2.8-1.57,4.15-2.44a63.86,63.86,0,0,0,7.61-5.92.22.22,0,0,1,.3,0,.21.21,0,0,1,0,.29,63.5,63.5,0,0,1-7.56,6.11c-1.34.91-2.73,1.76-4.14,2.56S88.4,43,87,43.7c-.71.37-1.42.74-2.08,1.17s-1.3.91-2,1.38c-1.29,1-2.56,2-3.83,3-2.53,2-5,4-7.54,6.06a.64.64,0,0,1-.91-.09.63.63,0,0,1,.09-.9Z"></path>
      <path class="cls-18" d="M102.4,40.48a33.49,33.49,0,0,0-4.25.06,35.19,35.19,0,0,0-4.21.57,27.4,27.4,0,0,0-4.08,1.13,21,21,0,0,0-3.79,1.83h0a.32.32,0,0,1-.33-.55h0a22,22,0,0,1,3.93-1.84,28.77,28.77,0,0,1,4.17-1.1,36.37,36.37,0,0,1,8.59-.53.22.22,0,0,1,.2.23.21.21,0,0,1-.22.19Z"></path>
      <path class="cls-18" d="M94.42,50.36a3.2,3.2,0,0,0-1.51-1.63,3,3,0,0,0-.53-.19l-.58-.09a7.91,7.91,0,0,1-1.23-.32c-.79-.27-1.54-.61-2.3-.88a5.17,5.17,0,0,0-2.29-.4,13.69,13.69,0,0,0-2.28.73c-.76.29-1.51.61-2.26.94s-1.49.66-2.23,1l-1.11.53c-.35.18-.74.37-1,.55l0,0a.38.38,0,0,1-.51-.14.37.37,0,0,1,.14-.5h0c.41-.22.76-.37,1.15-.55l1.13-.5,2.26-1c.77-.31,1.53-.62,2.3-.9a14.42,14.42,0,0,1,2.42-.71,5.58,5.58,0,0,1,2.52.41c.79.28,1.54.61,2.3.86a6.85,6.85,0,0,0,1.14.3,5.58,5.58,0,0,1,.63.11,3.41,3.41,0,0,1,.63.24,3.49,3.49,0,0,1,1.68,2,.2.2,0,0,1-.13.26.2.2,0,0,1-.26-.11Z"></path>
      <path class="cls-18" d="M82.36,60.18A5.43,5.43,0,0,1,81,59.55a13.28,13.28,0,0,1-1.27-.84,27.58,27.58,0,0,1-2.34-2A15.86,15.86,0,0,0,75,54.85a5.23,5.23,0,0,0-1.27-.64,2.49,2.49,0,0,0-.63-.12,1,1,0,0,0-.26,0l-.1,0,0,0h0a.52.52,0,0,1-.73-.09.53.53,0,0,1,.08-.74l.12-.07.08,0,.15,0a.84.84,0,0,1,.27,0,2,2,0,0,1,.49,0,3.6,3.6,0,0,1,.84.28,6.21,6.21,0,0,1,1.34.88,19.57,19.57,0,0,1,2.21,2.15,21.44,21.44,0,0,0,2.19,2.07A8,8,0,0,0,82.38,60h0a.08.08,0,0,1,0,.09A.07.07,0,0,1,82.36,60.18Z"></path>
      <path class="cls-18" d="M48.54,9.79s2.65-5.71,6.13-7S64-.65,66.08.18,70.68-1.07,77.36,3s5.71-.14,11.41,5.56A5.18,5.18,0,0,1,90,13c-.56,2.64,2.64-.7,2.64,6.54s3.06,6.54-2,13.64S70.26,44.59,63,39.86,45.62,11.88,48.54,9.79Z"></path>
      <path class="cls-19" d="M65.13,23.71a14.9,14.9,0,0,1,3-4.41,43,43,0,0,1,3.77-3.75c.65-.6,1.37-1.13,2-1.69s1.41-1.07,2.16-1.55c.37-.24.73-.49,1.11-.72l1.14-.66c.76-.45,1.57-.81,2.35-1.21a.24.24,0,0,1,.31.11.22.22,0,0,1-.08.29h0a45.07,45.07,0,0,0-4.14,3.1c-.68.53-1.29,1.13-1.93,1.69s-1.23,1.19-1.82,1.82a47.36,47.36,0,0,0-3.37,3.85,43.88,43.88,0,0,1-3.21,3.95l0,0a.79.79,0,0,1-1.13,0A.83.83,0,0,1,65.13,23.71Z"></path>
      <path class="cls-19" d="M69.56,3.45a3.94,3.94,0,0,0-1,3,5.09,5.09,0,0,0,1.48,2.78l.28.3.3.27.63.54a9.3,9.3,0,0,1,1.25,1.26,5.55,5.55,0,0,1,.93,1.59,2.78,2.78,0,0,1,.15,1,2.35,2.35,0,0,1-.09.53,4.46,4.46,0,0,1-.22.5.49.49,0,0,1-.66.24.5.5,0,0,1-.25-.66l0-.06,0,0c.44-.68,0-1.73-.62-2.57A9.36,9.36,0,0,0,70.76,11c-.19-.17-.41-.41-.62-.61L69.83,10l-.27-.34a5.67,5.67,0,0,1-1.42-3.2,4.14,4.14,0,0,1,1.29-3.17.09.09,0,0,1,.13,0,.09.09,0,0,1,0,.12Z"></path>
      <path class="cls-19" d="M89.11,18.92a5,5,0,0,1-1.94,1.2,4.63,4.63,0,0,1-2.28.13,6.21,6.21,0,0,1-2.12-.89l-.92-.65c-.29-.23-.58-.44-.89-.64A14.37,14.37,0,0,0,77,16.24a8.9,8.9,0,0,0-2.1-.32,3.73,3.73,0,0,0-1,.09,1.42,1.42,0,0,0-.75.4l0,0a.64.64,0,1,1-1-.82l0,0a2.65,2.65,0,0,1,1.47-.73,5.25,5.25,0,0,1,1.31,0,10.4,10.4,0,0,1,2.33.53,14.63,14.63,0,0,1,4,2.21,10.22,10.22,0,0,1,.88.72c.29.25.57.46.85.69a6,6,0,0,0,1.93.94,4.2,4.2,0,0,0,2.14,0A4.6,4.6,0,0,0,89,18.79h0a.1.1,0,0,1,.14,0A.12.12,0,0,1,89.11,18.92Z"></path>
      <path class="cls-19" d="M86.34,25.12a13.56,13.56,0,0,1-4.71,1.37,7.25,7.25,0,0,1-2.53-.2A4.93,4.93,0,0,1,76.82,25a5.37,5.37,0,0,1-.44-.51L76,24a10.1,10.1,0,0,0-.76-.84,9.56,9.56,0,0,0-1.86-1.3,10.13,10.13,0,0,0-2.14-.84,10.45,10.45,0,0,0-2.24-.4H69a.49.49,0,1,1,.05-1,10.81,10.81,0,0,1,2.5.43,11.46,11.46,0,0,1,2.32,1,10.22,10.22,0,0,1,2,1.5,9.25,9.25,0,0,1,.82,1L77,24a3.08,3.08,0,0,0,.35.44,3.79,3.79,0,0,0,.87.73,4.25,4.25,0,0,0,1,.47,6.92,6.92,0,0,0,2.32.3,14.1,14.1,0,0,0,4.65-1,.1.1,0,1,1,.08.18Z"></path>
      <path class="cls-19" d="M61.69,4.8A12.76,12.76,0,0,0,60.41,8a8.81,8.81,0,0,0-.18,3.39,5.63,5.63,0,0,0,1.43,3,8.33,8.33,0,0,0,2.76,1.87l-.06,0a5.28,5.28,0,0,1,1.43.57,5.12,5.12,0,0,1,1.73,1.6,6.91,6.91,0,0,1,.36.72,5.49,5.49,0,0,1,.36,1.58.63.63,0,0,1-1.25.15.34.34,0,0,1,0-.1v-.05a3.65,3.65,0,0,0-.11-1.23,4.5,4.5,0,0,0-.21-.58,6,6,0,0,0-.34-.53,3.77,3.77,0,0,0-1-.86,4.75,4.75,0,0,0-1.18-.57h-.06a8.77,8.77,0,0,1-2.92-2.13,6.43,6.43,0,0,1-1.47-3.3A9.08,9.08,0,0,1,60,7.88a13.12,13.12,0,0,1,1.33-3.3.21.21,0,0,1,.28-.08.21.21,0,0,1,.08.29Z"></path>
      <path class="cls-20" d="M23.63,32.48s-8.22-8.08-2.93-11.7c0,0-5.15-6.26,1.81-8.49,0,0-2.36-5.7,3.9-6.4,0,0,.7-4,5.29-3.34S34.62.6,37.41,1s1.67,1.67,4.17,2,5-1.12,6.83,4.17c0,0,1.53-1.81,5.42,2.37,0,0,3.48-.56,5,3.76,0,0,3.61.28,5.56,2.64s10.17,5,8.22,13.78S29.89,33.31,23.63,32.48Z"></path>
      <path class="cls-21" d="M32.22,30.11c0-.42.63-8.77.53-12.21s-.26-7-.26-7,.1-3,2.48-2.39a3.25,3.25,0,0,1,2.21,2.06c.37,1,1,2.27,1.83,2.52,1.36.42,2.92-1.28,6.16.87s3.13,1.85,5.74,1.74,4.7-.1,6.68,2,1.57,2.71,3.87,4,1.35,1.88,2.81,3.66,2.93,1.25,3.55,3.55-.1,4.91-6.78,5.64-27.15,4.28-28.29.73S32.22,30.11,32.22,30.11Z"></path>
      <path class="cls-19" d="M38.92,31c-.51-1.36-.92-2.69-1.31-4s-.72-2.72-1-4.09-.51-2.75-.69-4.14a38.72,38.72,0,0,1-.25-4.17.11.11,0,0,1,.1-.1.11.11,0,0,1,.1.09h0a35,35,0,0,0,.76,4.06c.33,1.33.71,2.64,1.16,3.94s.94,2.57,1.47,3.83,1.11,2.51,1.72,3.68v0a1.13,1.13,0,0,1-2,1.05A.75.75,0,0,1,38.92,31Z"></path>
      <path class="cls-19" d="M46.13,18A6.52,6.52,0,0,1,46,21.22,6,6,0,0,1,44.17,24l-.59.54c-.19.18-.38.36-.55.55a5.81,5.81,0,0,0-.88,1.19,3.19,3.19,0,0,0-.41,1.3c-.05.45,0,1,0,1.54h0a.74.74,0,0,1-.74.75.76.76,0,0,1-.75-.75s0-.07,0-.1c.07-.49.09-1.06.23-1.66a4.52,4.52,0,0,1,.75-1.67,10.1,10.1,0,0,1,2.5-2.24,5.55,5.55,0,0,0,1.9-2.35A6.15,6.15,0,0,0,46.08,18h0s0,0,0,0S46.13,18,46.13,18Z"></path>
      <path class="cls-19" d="M53.9,21.17a14.23,14.23,0,0,1-.21,2.16,14.6,14.6,0,0,1-.53,2.12,10.93,10.93,0,0,1-.92,2,8.7,8.7,0,0,1-1.48,1.8.72.72,0,0,1-1-1.06l.08-.06,0,0a7,7,0,0,0,1.43-1.3,9.79,9.79,0,0,0,1.1-1.71,14.2,14.2,0,0,0,.79-1.93,14.59,14.59,0,0,0,.5-2.05h0a.11.11,0,0,1,.11-.09A.12.12,0,0,1,53.9,21.17Z"></path>
      <g id="лист_1">
        <path class="cls-22" d="M71.16,57.67c8.63-8.35,11-20.1,10.72-24a7.94,7.94,0,0,0-5.7-6.87,8.14,8.14,0,0,0-5.09.15c-1.19.4-3.48.78-7.66.35a88.41,88.41,0,0,0-14.82-.42c-3.27.14-7,1-9.33-.57s-2.37-2.56-4.11-1.45-1.81,1.46-3.69,1.39-13.43-2-10,11.28S44.84,64.68,52.92,66.09C59.67,67.28,66.9,61.8,71.16,57.67Z"></path>
        <path class="cls-23" d="M48.68,35.28A20.59,20.59,0,0,1,51,39.54a30.83,30.83,0,0,1,1.55,4.61A41,41,0,0,1,53.45,49l.12,1.22.11,1.18c0,.38.07.76.12,1.14s.09.76.16,1.15a65.52,65.52,0,0,0,2.47,9c.24.74.44,1.49.66,2.23s.39,1.5.6,2.25a10.36,10.36,0,0,1,.31,2.3A7.45,7.45,0,0,1,57.65,72l-.31.91a1.41,1.41,0,0,1-2.65,0,46.12,46.12,0,0,1-2.08-9.47c-.41-3.19-.71-6.39-.85-9.61-.07-1.61,0-3.25,0-4.79a33.39,33.39,0,0,0-.35-4.68,31.13,31.13,0,0,0-1.09-4.58,20.13,20.13,0,0,0-2-4.26h0a.19.19,0,0,1,.06-.28A.2.2,0,0,1,48.68,35.28Z"></path>
        <path class="cls-23" d="M51.91,51.51a7.2,7.2,0,0,1,.78-1.68,10.3,10.3,0,0,1,1.08-1.45,11.27,11.27,0,0,1,2.78-2.23,13.57,13.57,0,0,1,3.27-1.37c1.15-.32,2.23-.53,3.32-.9a17.09,17.09,0,0,0,3.09-1.37,11.29,11.29,0,0,0,2.6-2.12,9.59,9.59,0,0,0,1.76-2.84,12.8,12.8,0,0,0,.82-3.29.21.21,0,0,1,.42.05A13.49,13.49,0,0,1,71,37.73a10.3,10.3,0,0,1-1.8,3A11.8,11.8,0,0,1,66.54,43a17.81,17.81,0,0,1-3.19,1.49c-1.09.39-2.26.65-3.32,1A12.76,12.76,0,0,0,57,46.83,10.82,10.82,0,0,0,54.42,49a8.87,8.87,0,0,0-1,1.34,6.45,6.45,0,0,0-.66,1.45v0a.46.46,0,0,1-.89-.26Z"></path>
        <path class="cls-23" d="M53.23,63.76a10.59,10.59,0,0,1,.06-1.61,10.23,10.23,0,0,1,.3-1.56A8.83,8.83,0,0,1,55,57.7a7,7,0,0,1,2.46-2.1,4.86,4.86,0,0,1,.74-.32A6.59,6.59,0,0,1,58.9,55c.48-.14,1-.28,1.44-.4a28,28,0,0,0,5.53-1.79,10.15,10.15,0,0,0,2.32-1.66A19.15,19.15,0,0,0,70.12,49h0a.22.22,0,0,1,.31,0,.23.23,0,0,1,0,.29,19.58,19.58,0,0,1-1.83,2.38,10.73,10.73,0,0,1-2.37,1.92,16,16,0,0,1-2.78,1.24c-1,.33-1.9.61-2.83.92l-1.39.47c-.24.07-.43.17-.64.25a3.14,3.14,0,0,0-.61.3,5.52,5.52,0,0,0-2,1.77A7.37,7.37,0,0,0,55,61a11.89,11.89,0,0,0-.24,1.35,10.25,10.25,0,0,0,0,1.34v0a.75.75,0,1,1-1.5.08Z"></path>
        <path class="cls-23" d="M36.61,47.33a7.92,7.92,0,0,0,1.16,2.28,6.25,6.25,0,0,0,.4.5,5,5,0,0,0,.43.49l.45.46.49.42A13.56,13.56,0,0,0,44,53.91l1.25.36c.41.11.84.18,1.26.27l.66.13c.25,0,.48.12.71.19a12.34,12.34,0,0,1,1.32.5,14.59,14.59,0,0,1,4.54,3.27.87.87,0,0,1,0,1.22.85.85,0,0,1-1.21,0l0,0h0a13.57,13.57,0,0,0-3.91-3.12c-.37-.19-.75-.36-1.13-.51L46.91,56l-.64-.17c-.44-.13-.89-.23-1.32-.38L43.66,55A14.58,14.58,0,0,1,39,52.05l-.49-.48-.45-.52a21.21,21.21,0,0,1-.8-1.11,8,8,0,0,1-1.08-2.53.21.21,0,0,1,.15-.25.21.21,0,0,1,.25.15Z"></path>
        <path class="cls-23" d="M34.17,32.23A13.73,13.73,0,0,0,37,38.14a15,15,0,0,0,5.17,4,19.43,19.43,0,0,0,3.09,1.16,14.51,14.51,0,0,1,3.17,1.47,12.33,12.33,0,0,1,2.69,2.26,8.94,8.94,0,0,1,1.77,3.1.55.55,0,0,1-.35.7.57.57,0,0,1-.7-.36h0a9.12,9.12,0,0,0-3.93-4.87A13.83,13.83,0,0,0,45,44.17a19.58,19.58,0,0,1-3.19-1.3,15.56,15.56,0,0,1-5.28-4.35,14,14,0,0,1-2.76-6.24.21.21,0,0,1,.41-.08Z"></path>
        <path class="cls-23" d="M51.94,45.6a3.37,3.37,0,0,0-.07-.94,3.62,3.62,0,0,0-.13-.47c-.17-.11-.19-.27-.27-.41a10.06,10.06,0,0,0-1-1.61,5.9,5.9,0,0,0-1.33-1.31,7.12,7.12,0,0,0-.8-.49,4.94,4.94,0,0,1-.9-.58A8.74,8.74,0,0,1,45,36.48a17.31,17.31,0,0,1-1.21-3.84.1.1,0,0,1,.08-.12.11.11,0,0,1,.12.07h0a17.37,17.37,0,0,0,1.39,3.7,8.34,8.34,0,0,0,2.42,3,5.43,5.43,0,0,0,.81.46,6,6,0,0,1,.94.49,5.75,5.75,0,0,1,1.58,1.41,6.41,6.41,0,0,1,1,1.86.84.84,0,0,1,.08.52l.17.49c.12.33.22.64.34,1a.42.42,0,0,1-.27.51.41.41,0,0,1-.51-.27A.44.44,0,0,1,51.94,45.6Z"></path>
        <path class="cls-23" d="M20.86,33A6.88,6.88,0,0,1,21,30.74a6.57,6.57,0,0,1,.89-2.14,6.1,6.1,0,0,1,1.66-1.7,7,7,0,0,1,2.2-1,9.27,9.27,0,0,1,2.34-.25c.39,0,.77,0,1.16,0a9.37,9.37,0,0,0,1,.06,6.79,6.79,0,0,0,2-.26,6.21,6.21,0,0,0,.93-.37l.43-.25c.16-.1.32-.21.49-.3a8.27,8.27,0,0,1,1.07-.55,2.82,2.82,0,0,1,1.38-.25,1.92,1.92,0,0,1,.77.28,3.53,3.53,0,0,1,.53.44,10,10,0,0,0,.76.73,6.6,6.6,0,0,0,3.83,1.19,56.38,56.38,0,0,0,8.78-.33c.74-.06,1.48-.12,2.26-.14.42,0,.8.05,1.16.08l1.11.11,4.43.47,4.42.44c.73.07,1.47.14,2.21.19.36,0,.73,0,1.08,0a4.75,4.75,0,0,0,1-.13,26.34,26.34,0,0,1,4.46-.64,9.94,9.94,0,0,1,4.49.74,6.49,6.49,0,0,1,3.22,3.19,9.61,9.61,0,0,1,.88,4.4s0,0-.05,0a0,0,0,0,1,0,0c-.13-.73-.26-1.45-.45-2.16a10.32,10.32,0,0,0-.76-2,6,6,0,0,0-3-2.88,9.41,9.41,0,0,0-4.22-.6,27.17,27.17,0,0,0-4.33.72l-.56.12-.3,0H68c-.4,0-.76,0-1.14,0-.75,0-1.49-.08-2.23-.13l-4.44-.35-4.43-.38-1.11-.1c-.37,0-.73-.06-1.05-.05-.7,0-1.45.09-2.18.16a58,58,0,0,1-9,.44,12.32,12.32,0,0,1-2.31-.36,5.44,5.44,0,0,1-2.2-1.1c-.32-.27-.6-.57-.84-.81a1.06,1.06,0,0,0-.6-.37,1.65,1.65,0,0,0-.77.16,6.57,6.57,0,0,0-.91.47l-.46.28-.53.31a6.49,6.49,0,0,1-1.13.45A8.07,8.07,0,0,1,30.3,27a11,11,0,0,1-1.16-.07c-.35,0-.71-.07-1.06-.06A9,9,0,0,0,26,27a5.77,5.77,0,0,0-3.48,2A8.18,8.18,0,0,0,20.88,33s0,0,0,0Z"></path>
        <path class="cls-23" d="M60.43,33A13.77,13.77,0,0,1,60,36.7a8.16,8.16,0,0,1-.7,1.77A4.39,4.39,0,0,1,58,39.92l-.44.24-.42.21a8.67,8.67,0,0,0-.79.43,12.08,12.08,0,0,0-1.49,1.05,16.88,16.88,0,0,0-2.57,2.57v0a.39.39,0,0,1-.61-.49v0a17.53,17.53,0,0,1,2.8-2.58,14,14,0,0,1,1.6-1c.28-.15.56-.3.85-.42l.43-.19.39-.19A4,4,0,0,0,59,38.28a7.72,7.72,0,0,0,.74-1.66A14,14,0,0,0,60.29,33h0a.07.07,0,1,1,.14,0Z"></path>
      </g>
      <path class="cls-24" d="M113.92,30.06c-.94-5.06-5.69-3.19-7-3s-7.67,5.17-8.92,5.75-3.45-.16-4.39-.47c-.5-.17-1.23-.22-2.12-.39,3.83-5.84,1.13-5.64,1.13-12.44,0-7.24-3.2-3.9-2.64-6.54a5.18,5.18,0,0,0-1.26-4.46C83.07,2.83,84,7,77.36,3S68.17,1,66.08.18,58.15,1.57,54.67,2.83c-1.78.64-3.33,2.44-4.43,4.05a1.72,1.72,0,0,0-1.83.26C46.6,1.85,44.09,3.25,41.58,3S40.19,1.44,37.41,1,36.29,3.25,31.7,2.55s-5.29,3.34-5.29,3.34c-6.26.7-3.9,6.4-3.9,6.4-7,2.23-1.81,8.49-1.81,8.49-3.31,2.27-1.32,6.29.62,9-.05.15-.09.3-.14.45a65.28,65.28,0,0,0-9.58-1.71C6.49,28.13,3,32.72,2.83,32.88a10.89,10.89,0,0,0-.57,5.74c.47,3-.89,1.57-2,6.47S2.63,54.7,4.4,55.74s2.35,1.93,2.92,5S11.19,67,16.82,68s12.85-1.52,18.38-3,12.94.21,12.94.21,2.82,1.25,4.55,6.21,4.48,2.46,5.74,1.62,1-3.29,1-3.29c3.24-.15,4.28-1.67,6.58-1.82s5.17.47,8.82-.26a11.32,11.32,0,0,0,6.58-4.13c.42-.73,1-.94,2.09-1.2s3,.68,5.42.47a11.15,11.15,0,0,0,7.52-4.91c1.46-2.55,2.3-2.92,2.3-2.92,4-2.19,5.43-2.14,6.58-2.92a9.82,9.82,0,0,0,3.18-8.72C107.81,39,114.86,35.12,113.92,30.06Z"></path>
      <path class="cls-25" d="M58.78,77.46A1.2,1.2,0,0,0,57.64,77c-.63.2-.88.7-.77.88l.23.24c.16.15.5-.29.51-.29Z"></path>
      <path class="cls-9" d="M59.11,78.22s-.2-.86-.52-.87-.69-.06-.69-.06l-.09.16s.32.56.45.61l.43.12A2.35,2.35,0,0,0,59.11,78.22Z"></path>
      <path class="cls-10" d="M59.08,78.33c0-.08.08-.27-.12-.33a2.15,2.15,0,0,0-.42-.09s-.52.39-.62.45-.17,0,.13.14.29.17.57.13A.76.76,0,0,0,59.08,78.33Z"></path>
      <path class="cls-11" d="M58.54,77.91a3.44,3.44,0,0,0-.38.37c-.15.18-.18.23-.36.14s-.65-.16-.77-.34-.12-.16,0-.38a1,1,0,0,1,.61-.37.53.53,0,0,1,.6.13A1.4,1.4,0,0,1,58.54,77.91Z"></path>
      <path class="cls-25" d="M42.64,71.6a1.74,1.74,0,0,0-1.76-.26c-.84.48-1.05,1.27-.84,1.49a3.54,3.54,0,0,0,.41.28c.27.17.62-.56.64-.57Z"></path>
      <path class="cls-9" d="M43.34,72.59s-.54-1.18-1-1.09a8.86,8.86,0,0,1-1,.12l-.09.26s.63.71.83.73.57,0,.66,0A4.13,4.13,0,0,0,43.34,72.59Z"></path>
      <path class="cls-10" d="M43.34,72.75c0-.12,0-.42-.28-.44a5.72,5.72,0,0,0-.63,0s-.62.72-.74.84-.23.13.22.16.47.15.85,0A1.17,1.17,0,0,0,43.34,72.75Z"></path>
      <path class="cls-11" d="M42.43,72.31A5.65,5.65,0,0,0,42,73c-.16.3-.18.39-.47.31s-1,0-1.21-.25-.22-.19-.07-.55a1.34,1.34,0,0,1,.76-.71.76.76,0,0,1,.9,0A2,2,0,0,1,42.43,72.31Z"></path>
      <path class="cls-25" d="M54,69.27s-3.63-1.82-6.17.4-2.67,5-1.8,5.67a12.13,12.13,0,0,0,1.6.63c1,.39,1.69-2.34,1.76-2.38S54,69.27,54,69.27Z"></path>
      <path class="cls-9" d="M57.14,72.13s-2.69-3.61-4.23-3-3.33,1.14-3.33,1.14l-.1.92s2.65,2,3.35,1.91,2-.29,2.27-.3A15.27,15.27,0,0,0,57.14,72.13Z"></path>
      <path class="cls-10" d="M57.25,72.68c0-.4-.19-1.43-1.27-1.29a14.91,14.91,0,0,0-2.14.46s-1.59,2.88-1.94,3.38-.68.6.9.4,1.7.16,2.9-.56A4.12,4.12,0,0,0,57.25,72.68Z"></path>
      <path class="cls-11" d="M53.84,71.85a18.45,18.45,0,0,0-1,2.5c-.32,1.15-.34,1.46-1.38,1.41s-3.37.62-4.3,0-.89-.5-.64-1.83a4.84,4.84,0,0,1,2.07-3,2.71,2.71,0,0,1,3.07-.64A6.94,6.94,0,0,1,53.84,71.85Z"></path>
      <path class="cls-25" d="M68,70.43s-2.1-2.85-4.94-2.15S59,71.14,59.44,72a10.21,10.21,0,0,0,1,1.12c.65.72,2.24-1.13,2.3-1.14S68,70.43,68,70.43Z"></path>
      <path class="cls-9" d="M69.28,73.88s-.66-3.87-2.09-4-3-.44-3-.44l-.44.67S65,72.7,65.55,72.93s1.63.56,1.87.68A13.84,13.84,0,0,0,69.28,73.88Z"></path>
      <path class="cls-10" d="M69.14,74.35c.13-.33.43-1.19-.47-1.51a14.33,14.33,0,0,0-1.84-.5S64.46,74,64,74.19s-.77.2.53.67,1.26.8,2.47.72A3.55,3.55,0,0,0,69.14,74.35Z"></path>
      <path class="cls-11" d="M66.83,72.34a16.17,16.17,0,0,0-1.76,1.55c-.71.76-.85,1-1.63.54s-2.86-.87-3.34-1.7-.49-.74.24-1.66a4.13,4.13,0,0,1,2.78-1.49,2.36,2.36,0,0,1,2.63.72A6,6,0,0,1,66.83,72.34Z"></path>
      <path class="cls-25" d="M58.29,71.9s-3-2.32-5.73-.74S49.2,75.31,49.89,76a11.68,11.68,0,0,0,1.34.87c.89.54,2-1.84,2-1.87S58.29,71.9,58.29,71.9Z"></path>
      <path class="cls-9" d="M60.61,75.09s-1.82-3.79-3.34-3.49-3.26.45-3.26.45l-.26.82s2.08,2.28,2.73,2.35,1.85.09,2.14.15A15.07,15.07,0,0,0,60.61,75.09Z"></path>
      <path class="cls-10" d="M60.61,75.61c0-.37.09-1.34-.93-1.41a16.12,16.12,0,0,0-2,0s-2,2.36-2.39,2.75-.73.43.76.53,1.53.46,2.76,0A3.82,3.82,0,0,0,60.61,75.61Z"></path>
      <path class="cls-11" d="M57.63,74.23a17.92,17.92,0,0,0-1.36,2.12c-.51,1-.58,1.28-1.52,1s-3.21,0-4-.76-.73-.62-.25-1.79A4.53,4.53,0,0,1,53,72.48a2.54,2.54,0,0,1,2.94,0A6.62,6.62,0,0,1,57.63,74.23Z"></path>
      <path class="cls-25" d="M73.92,77.17a1.83,1.83,0,0,0,1.67-.82c.45-.91.16-1.71-.16-1.78a4.28,4.28,0,0,0-.51,0c-.34,0-.2.85-.22.87Z"></path>
      <path class="cls-9" d="M72.73,76.73s1.17.69,1.52.34.79-.7.79-.7L75,76.1A3.64,3.64,0,0,0,73.81,76c-.19.1-.51.31-.59.34A4.78,4.78,0,0,0,72.73,76.73Z"></path>
      <path class="cls-10" d="M72.64,76.59a.34.34,0,0,0,.5.21,4.71,4.71,0,0,0,.54-.37s.11-1,.15-1.16.12-.25-.3,0-.49.15-.74.49A1.2,1.2,0,0,0,72.64,76.59Z"></path>
      <path class="cls-11" d="M73.68,76.43a5.48,5.48,0,0,0,0-.81c0-.35-.08-.44.22-.55s.86-.56,1.19-.5.31,0,.39.43a1.49,1.49,0,0,1-.23,1.07.81.81,0,0,1-.78.53A2.17,2.17,0,0,1,73.68,76.43Z"></path>
      <path class="cls-25" d="M33.88,79.26a1.82,1.82,0,0,0,1.66-.82c.45-.91.16-1.72-.15-1.79-.09,0-.35,0-.52,0-.33,0-.2.85-.21.87S33.88,79.26,33.88,79.26Z"></path>
      <path class="cls-9" d="M32.68,78.82s1.17.69,1.52.34.79-.7.79-.7l-.07-.27a3.68,3.68,0,0,0-1.15-.14c-.19.1-.52.31-.6.34A4.78,4.78,0,0,0,32.68,78.82Z"></path>
      <path class="cls-10" d="M32.59,78.68c.06.11.22.38.5.21a3.84,3.84,0,0,0,.54-.37s.11-1,.15-1.16.12-.25-.29,0-.5.15-.74.49A1.23,1.23,0,0,0,32.59,78.68Z"></path>
      <path class="cls-11" d="M33.63,78.52a5.49,5.49,0,0,0,0-.81c0-.36-.07-.45.22-.55s.87-.56,1.2-.5.3,0,.38.43a1.44,1.44,0,0,1-.23,1.07.8.8,0,0,1-.78.53A2.17,2.17,0,0,1,33.63,78.52Z"></path>
      <path class="cls-25" d="M45.32,77.82a2.31,2.31,0,0,0,2.19-.91c.65-1.11.35-2.16,0-2.28a4.17,4.17,0,0,0-.66,0c-.43,0-.33,1.06-.35,1.08Z"></path>
      <path class="cls-9" d="M43.84,77.16s1.42,1,1.9.56,1.07-.83,1.07-.83l-.08-.34a4.65,4.65,0,0,0-1.45-.28c-.25.1-.68.34-.79.38A6.19,6.19,0,0,0,43.84,77.16Z"></path>
      <path class="cls-10" d="M43.73,77c.06.14.24.5.62.31a5,5,0,0,0,.72-.43s.23-1.24.29-1.46.18-.31-.37,0-.64.15-1,.56A1.61,1.61,0,0,0,43.73,77Z"></path>
      <path class="cls-11" d="M45.07,76.85a6.76,6.76,0,0,0,.06-1c0-.46-.06-.57.33-.68s1.15-.64,1.56-.54.38.08.45.59a1.83,1.83,0,0,1-.38,1.34,1,1,0,0,1-1,.61A2.62,2.62,0,0,1,45.07,76.85Z"></path>
      <path class="cls-25" d="M53.66,76.2A1.48,1.48,0,0,1,55,76c.67.3.84.84.68,1a3,3,0,0,1-.31.19c-.2.12-.49-.37-.5-.37Z"></path>
      <path class="cls-9" d="M53.14,76.89s.4-.82.76-.77.78.07.78.07l.07.17s-.47.5-.62.52-.44,0-.51.05S53.14,76.89,53.14,76.89Z"></path>
      <path class="cls-10" d="M53.15,77a.22.22,0,0,1,.21-.3,4.4,4.4,0,0,1,.48,0s.5.48.6.55.18.09-.17.12-.37.11-.66,0A.83.83,0,0,1,53.15,77Z"></path>
      <path class="cls-11" d="M53.84,76.68a3.62,3.62,0,0,1,.35.43c.13.2.15.26.37.21s.76,0,.93-.2.17-.14,0-.38-.29-.33-.6-.47a.67.67,0,0,0-.7,0A1.45,1.45,0,0,0,53.84,76.68Z"></path>
      <path class="cls-25" d="M65.92,72.75s-2.82-2.09-5.31-.58-3,3.9-2.38,4.56a9.3,9.3,0,0,0,1.26.77c.84.49,1.8-1.74,1.86-1.76S65.92,72.75,65.92,72.75Z"></path>
      <path class="cls-9" d="M68.13,75.65S66.38,72.18,65,72.48,62,73,62,73l-.22.77s2,2.07,2.57,2.12,1.71.05,2,.09A12.53,12.53,0,0,0,68.13,75.65Z"></path>
      <path class="cls-10" d="M68.14,76.13c0-.34.06-1.24-.89-1.28a12.89,12.89,0,0,0-1.89.06s-1.78,2.23-2.15,2.59-.67.42.7.48,1.43.39,2.56,0A3.56,3.56,0,0,0,68.14,76.13Z"></path>
      <path class="cls-11" d="M65.36,74.91a16.7,16.7,0,0,0-1.22,2c-.45.93-.51,1.19-1.39,1s-3,0-3.67-.62-.68-.56-.26-1.66A4.14,4.14,0,0,1,61,73.39a2.33,2.33,0,0,1,2.72-.09A6,6,0,0,1,65.36,74.91Z"></path>
      <path class="cls-25" d="M50.86,76s-2.31-.42-3.37,1.22-.66,3.24-.08,3.44a7.5,7.5,0,0,0,1,.09c.64,0,.56-1.57.59-1.6S50.86,76,50.86,76Z"></path>
      <path class="cls-9" d="M53,77.1s-2.08-1.57-2.83-1-1.66,1.18-1.66,1.18l.09.52a7,7,0,0,0,2.17.52c.38-.15,1-.48,1.21-.53A9,9,0,0,0,53,77.1Z"></path>
      <path class="cls-10" d="M53.19,77.39c-.09-.22-.33-.77-.91-.51a8.68,8.68,0,0,0-1.12.6s-.41,1.86-.53,2.19-.28.44.56.07,1-.18,1.52-.77A2.38,2.38,0,0,0,53.19,77.39Z"></path>
      <path class="cls-11" d="M51.16,77.48A10.85,10.85,0,0,0,51,79c0,.69.05.87-.54,1s-1.77.89-2.38.71-.58-.13-.65-.91a2.82,2.82,0,0,1,.66-2A1.59,1.59,0,0,1,49.71,77,4,4,0,0,1,51.16,77.48Z"></path>
    </g>
  </g>
</svg>
