<?xml version="1.0" encoding="UTF-8"?>
<svg xmlns="http://www.w3.org/2000/svg" xmlns:xlink="http://www.w3.org/1999/xlink" viewBox="0 0 55.05 79.55">
  <defs>
    <style>.cls-1{fill:#a29274;}.cls-2{fill:#e3e0c9;}.cls-3{fill:#fcedce;}.cls-4{fill:#bda885;}.cls-19,.cls-5{fill:#d0c5a6;}.cls-6{fill:#8f8267;}.cls-7{fill:#ab967a;opacity:0.25;}.cls-8{fill:#9b8d71;}.cls-9{fill:#7c705b;}.cls-10{fill:#e7e6e3;}.cls-11{fill:#817870;}.cls-12,.cls-18{fill:none;stroke:#7fb843;}.cls-12,.cls-18,.cls-19{stroke-miterlimit:10;}.cls-12{stroke-width:0.29px;}.cls-13{fill:#7fb843;}.cls-14{fill:#486f3a;}.cls-15{fill:#92bf3a;}.cls-16{fill:#6d9633;}.cls-17{fill:#bcd746;}.cls-18{stroke-width:0.14px;}.cls-19{stroke:#d0c5a6;stroke-width:0.2px;}.cls-20{fill:url(#Безымянный_градиент_16);}.cls-21{fill:url(#Безымянный_градиент_16-2);}.cls-22{fill:url(#Безымянный_градиент_16-3);}.cls-23{fill:url(#Безымянный_градиент_16-4);}.cls-24{fill:url(#Безымянный_градиент_16-5);}.cls-25{fill:#f4ec76;}.cls-26{fill:url(#Безымянный_градиент_33);}.cls-27{fill:url(#Безымянный_градиент_33-2);}.cls-28{fill:url(#Безымянный_градиент_33-3);}.cls-29{fill:url(#Безымянный_градиент_33-4);}.cls-30{fill:url(#Безымянный_градиент_33-5);}.cls-31{fill:url(#Безымянный_градиент_11);}.cls-32{fill:url(#Безымянный_градиент_16-6);}.cls-33{fill:url(#Безымянный_градиент_16-7);}.cls-34{fill:url(#Безымянный_градиент_16-8);}.cls-35{fill:url(#Безымянный_градиент_16-9);}</style>
    <radialGradient id="Безымянный_градиент_16" cx="-451.82" cy="234.15" r="2.57" gradientTransform="translate(457.67 -295.59) rotate(-9.25)" gradientUnits="userSpaceOnUse">
      <stop offset="0" stop-color="#fff"></stop>
      <stop offset="1" stop-color="#cacac9"></stop>
    </radialGradient>
    <radialGradient id="Безымянный_градиент_16-2" cx="-452.71" cy="232.05" r="3.38" xlink:href="#Безымянный_градиент_16"></radialGradient>
    <radialGradient id="Безымянный_градиент_16-3" cx="-453.95" cy="232.09" r="2.69" xlink:href="#Безымянный_градиент_16"></radialGradient>
    <radialGradient id="Безымянный_градиент_16-4" cx="-451.68" cy="233.05" r="2.92" xlink:href="#Безымянный_градиент_16"></radialGradient>
    <radialGradient id="Безымянный_градиент_16-5" cx="-453.66" cy="233.58" r="2.95" xlink:href="#Безымянный_градиент_16"></radialGradient>
    <radialGradient id="Безымянный_градиент_33" cx="1345.26" cy="143.72" r="1" gradientTransform="translate(0.18 -1343.14) rotate(81.62)" gradientUnits="userSpaceOnUse">
      <stop offset="0" stop-color="#cacac9"></stop>
      <stop offset="1" stop-color="#fff"></stop>
    </radialGradient>
    <radialGradient id="Безымянный_градиент_33-2" cx="717.83" cy="-1125.79" r="1" gradientTransform="translate(1345.97 -71.65) rotate(-126.79)" xlink:href="#Безымянный_градиент_33"></radialGradient>
    <radialGradient id="Безымянный_градиент_33-3" cx="1536.92" cy="-807.69" r="1" gradientTransform="matrix(-0.97, 0.25, -0.26, -0.96, 1298.08, -1140.85)" xlink:href="#Безымянный_градиент_33"></radialGradient>
    <radialGradient id="Безымянный_градиент_33-4" cx="563.91" cy="310.34" r="1" gradientTransform="translate(-234.31 -571.11) rotate(34.78)" xlink:href="#Безымянный_градиент_33"></radialGradient>
    <radialGradient id="Безымянный_градиент_33-5" cx="323.6" cy="-1115.99" r="1" gradientTransform="matrix(-0.48, -0.88, 0.88, -0.48, 1147.11, -226.08)" xlink:href="#Безымянный_градиент_33"></radialGradient>
    <radialGradient id="Безымянный_градиент_11" cx="732.64" cy="170.32" r="2.62" gradientTransform="translate(-236.42 -680.2) rotate(57.36)" gradientUnits="userSpaceOnUse">
      <stop offset="0" stop-color="#fff"></stop>
      <stop offset="1" stop-color="#cacac9"></stop>
    </radialGradient>
    <radialGradient id="Безымянный_градиент_16-6" cx="735.36" cy="171.5" r="3.34" gradientTransform="translate(-236.42 -680.2) rotate(57.36)" xlink:href="#Безымянный_градиент_16"></radialGradient>
    <radialGradient id="Безымянный_градиент_16-7" cx="735.18" cy="169.76" r="3.08" gradientTransform="translate(-236.42 -680.2) rotate(57.36)" xlink:href="#Безымянный_градиент_16"></radialGradient>
    <radialGradient id="Безымянный_градиент_16-8" cx="733.33" cy="171.86" r="3.83" gradientTransform="translate(-236.42 -680.2) rotate(57.36)" xlink:href="#Безымянный_градиент_16"></radialGradient>
    <radialGradient id="Безымянный_градиент_16-9" cx="471.75" cy="157.12" r="2.79" gradientTransform="matrix(0.75, 0.66, -0.66, 0.75, -234.2, -400.28)" xlink:href="#Безымянный_градиент_16"></radialGradient>
  </defs>
  <g id="Слой_2" data-name="Слой 2">
    <g id="Слой_1-2" data-name="Слой 1">
      <polygon class="cls-1" points="23.7 48.41 47.33 38.35 43.79 65.56 23.7 79.55 23.7 48.41"></polygon>
      <polygon class="cls-2" points="23.7 31.55 47.33 38.35 23.7 48.41 0 38.35 23.7 31.55"></polygon>
      <polygon class="cls-3" points="23.7 31.55 0 38.35 0.41 38.52 47.11 38.29 23.7 31.55"></polygon>
      <polygon class="cls-4" points="3.54 65.56 0 38.35 23.7 48.41 23.7 79.55 3.54 65.56"></polygon>
      <path class="cls-5" d="M14.89,38.68a11.09,11.09,0,0,1,2.43-2.2,14,14,0,0,1,3-1.44,16.32,16.32,0,0,1,3.22-.67c.55-.07,1.1-.06,1.64-.09s1.09,0,1.63.09c-1.08.1-2.16.18-3.22.37a18.33,18.33,0,0,0-3.11.76,15.66,15.66,0,0,0-2.93,1.3A17,17,0,0,0,14.89,38.68Z"></path>
      <polygon class="cls-6" points="23.7 48.41 47.33 38.35 43.79 65.56 23.7 79.55 23.7 48.41"></polygon>
      <polygon class="cls-7" points="3.54 65.56 0 38.35 23.7 48.41 23.7 79.55 3.54 65.56"></polygon>
      <polygon class="cls-8" points="23.7 79.55 3.54 65.56 23.79 57.91 43.79 65.56 23.7 79.55"></polygon>
      <path class="cls-9" d="M7.83,53.6a7.31,7.31,0,0,1-.61-4A6.49,6.49,0,0,1,9,46a9.47,9.47,0,0,1,3.47-2.07c.65-.18,1.3-.35,2-.49s1.33-.16,2-.22c-.64.17-1.29.3-1.93.45s-1.26.4-1.88.61a9.62,9.62,0,0,0-3.26,2.06,6.35,6.35,0,0,0-1.72,3.37c-.07.31-.08.64-.12,1s0,.66,0,1A6.83,6.83,0,0,0,7.83,53.6Z"></path>
      <path class="cls-9" d="M29.85,53.22a4.65,4.65,0,0,0,1.33.57c.46.15.92.3,1.39.42.94.25,1.88.5,2.83.67,1.9.41,3.83.63,5.78.87a21.89,21.89,0,0,1-8.72-1.19A8.08,8.08,0,0,1,29.85,53.22Z"></path>
      <path class="cls-9" d="M17.16,51.8a15.15,15.15,0,0,1-.59,2.67,19.71,19.71,0,0,1-1,2.55,15.19,15.19,0,0,1-1.43,2.35,8.87,8.87,0,0,1-2,1.91,17,17,0,0,0,3-4.47c.41-.79.74-1.63,1.07-2.46S16.86,52.66,17.16,51.8Z"></path>
      <path class="cls-9" d="M24.49,73.46c1-.48,2-.84,2.93-1.27s1.95-.84,2.88-1.34A17.5,17.5,0,0,0,33,69.19a7.69,7.69,0,0,0,2.1-2.33,6.07,6.07,0,0,1-1.87,2.61,14.66,14.66,0,0,1-2.68,1.81,27.39,27.39,0,0,1-3,1.26C26.55,72.9,25.51,73.17,24.49,73.46Z"></path>
      <path class="cls-9" d="M13.4,70.47A5,5,0,0,1,10.76,68a2.23,2.23,0,0,1,.17-1.9,4.46,4.46,0,0,1,1.27-1.39,13,13,0,0,1,3.27-1.62,26.92,26.92,0,0,1,3.5-.92c-1.13.42-2.26.81-3.37,1.27a14.06,14.06,0,0,0-3.11,1.66,4,4,0,0,0-1.18,1.21,2,2,0,0,0-.2,1.57A3.59,3.59,0,0,0,12,69.33,7.9,7.9,0,0,0,13.4,70.47Z"></path>
      <path class="cls-9" d="M35.07,52.67c1.17-1.62,2.39-3.2,3.44-4.88A21.87,21.87,0,0,0,40,45.23a8.33,8.33,0,0,0,.93-2.8,6.42,6.42,0,0,1-.59,3,18.41,18.41,0,0,1-1.42,2.67c-.57.83-1.15,1.66-1.79,2.43A23.71,23.71,0,0,1,35.07,52.67Z"></path>
      <polygon class="cls-10" points="26.24 60.09 26.27 60.05 26.23 60.04 26.24 60.09"></polygon>
      <path class="cls-10" d="M24,65.77l-.06.14.08-.12Z"></path>
      <path class="cls-10" d="M23.83,42.16a11.58,11.58,0,0,1-2.14,3.56,7.76,7.76,0,0,0-1.41,3.51c-.4,2.92.43,5.89-.36,8.77a.07.07,0,0,0,.14,0c.76-2.79,0-5.67.32-8.5A8.05,8.05,0,0,1,22,45.48,10.18,10.18,0,0,0,24,42.2c0-.09-.11-.13-.14,0Z"></path>
      <path class="cls-10" d="M23.4,43.43a6.35,6.35,0,0,1-3.57,6.22,5.28,5.28,0,0,0-3.1,4.4c-.26,2-.23,3.58,1,5.22,1.7,2.23,2,5.07,0,7.26-.12.14.08.34.21.2a5.64,5.64,0,0,0,1.38-5,6.07,6.07,0,0,0-1.19-2.38,4.92,4.92,0,0,1-1.29-2.58,11.8,11.8,0,0,1,.06-2c.14-1.57.46-3.18,1.82-4.18.85-.63,1.88-1,2.7-1.67a6.51,6.51,0,0,0,2.23-5.51c0-.18-.3-.18-.29,0Z"></path>
      <path class="cls-10" d="M23.44,43.23c.1,2.09.2,4.36-.84,6.26-.77,1.4-2.16,2.39-2.49,4a7.56,7.56,0,0,0,.78,4.38c1,2.4,1.73,4.56,1.32,7.19,0,.18.25.26.28.08a10.76,10.76,0,0,0-.57-5.56c-.76-2-2.12-4.14-1.45-6.35.52-1.76,2.21-2.87,2.82-4.62a14.65,14.65,0,0,0,.44-5.4.15.15,0,0,0-.29,0Z"></path>
      <path class="cls-10" d="M23.32,43.32c-1.29,1.35-2.8,3-2.51,5,.09.66.45,1.23.59,1.88a7,7,0,0,1-.15,2.53,6.13,6.13,0,0,0,.27,2.88,3,3,0,0,1,0,2.39c-.23.45-.57.84-.84,1.26a2.73,2.73,0,0,0-.56,2.11c.44,2.2,3.21,2.84,3.77,5a.15.15,0,0,0,.28-.08c-.49-1.87-2.43-2.52-3.38-4.07-1.41-2.29,1.45-3.37,1.3-5.54-.08-1.09-.66-2-.62-3.16a18,18,0,0,0,.3-3c-.16-1.32-.9-2.28-.52-3.69a8.26,8.26,0,0,1,2.3-3.33c.13-.14-.07-.34-.2-.21Z"></path>
      <path class="cls-10" d="M23.64,43.24a6.46,6.46,0,0,0-1.51,2.08A5.68,5.68,0,0,0,21.84,48c.19,2.05,1.09,4,.83,6.11,0,.18.26.18.29,0,.23-1.86-.45-3.6-.75-5.41a6.68,6.68,0,0,1,.05-2.85,5.86,5.86,0,0,1,1.58-2.38c.12-.13-.08-.34-.2-.2Z"></path>
      <path class="cls-10" d="M23.83,43.1a21.35,21.35,0,0,1-.34,8.08c-.47,2-1.15,3.74-.59,5.76A19.41,19.41,0,0,0,25.68,62a14.77,14.77,0,0,1,2.48,7c0,.18.3.18.29,0a14.1,14.1,0,0,0-1.8-6c-1.11-1.93-2.65-3.69-3.37-5.83-.84-2.52.34-4.84.76-7.31A21.81,21.81,0,0,0,24.11,43c0-.18-.3-.1-.28.08Z"></path>
      <path class="cls-10" d="M24.56,44c-.15,1.85.7,3.42,1.57,5a10.87,10.87,0,0,1,1.6,7c-.31,2.4-1.21,4.66-1.75,7s-.37,4.62-.56,7c0,.19.27.19.28,0,.22-2.65.09-5.18.78-7.78A44,44,0,0,0,28,55.75a9.7,9.7,0,0,0-.93-5.54c-1-2-2.45-3.87-2.26-6.22,0-.18-.27-.18-.29,0Z"></path>
      <path class="cls-10" d="M25,43.45c.31,1.6,1.48,2.89,1.94,4.45a17.25,17.25,0,0,1,.51,5.31c-.08,2.47-.77,5.72,1.32,7.6.14.12.34-.08.2-.2-2.26-2-1.2-5.92-1.22-8.58a15.14,15.14,0,0,0-.58-4.34c-.46-1.51-1.6-2.78-1.9-4.32,0-.18-.31-.1-.27.08Z"></path>
      <path class="cls-10" d="M26.1,45.56a7.61,7.61,0,0,1,.76,4,11.69,11.69,0,0,1-2.34,4.78c-.11.15.14.29.25.14a11.48,11.48,0,0,0,2.39-5,8.12,8.12,0,0,0-.81-4c-.07-.17-.32,0-.25.14Z"></path>
      <path class="cls-10" d="M26.48,51a5.53,5.53,0,0,1-.1,2.68.14.14,0,1,0,.27.08,5.81,5.81,0,0,0,.11-2.84c0-.18-.32-.1-.28.08Z"></path>
      <path class="cls-10" d="M24.87,43.68C26,45.32,27.05,47,28.1,48.61a10.52,10.52,0,0,1,1.55,5.55c.08,1.86,0,3.69-.1,5.54a4.79,4.79,0,0,0,.95,3.52c.12.14.33-.06.2-.2-1.19-1.35-.85-3.28-.77-4.93a36,36,0,0,0-.12-5.69,9.21,9.21,0,0,0-1.55-4.07c-1-1.61-2.1-3.2-3.14-4.79-.1-.15-.35,0-.25.14Z"></path>
      <path class="cls-10" d="M25,44a15.84,15.84,0,0,1,4,4.63,15.32,15.32,0,0,1,1.24,5.74c.23,3.31.15,6.84,2.1,9.7.1.15.35,0,.24-.15-2.21-3.25-1.76-7.34-2.19-11.06a13.14,13.14,0,0,0-1.27-4.64,17,17,0,0,0-3.87-4.42c-.14-.13-.34.08-.21.2Z"></path>
      <path class="cls-10" d="M25.41,43.32a6.08,6.08,0,0,1,2.48,2.85,11,11,0,0,0,.94,2.36,23.17,23.17,0,0,0,3.46,3.61,7.75,7.75,0,0,1,1.62,2.16,6.93,6.93,0,0,1,.34,3.8c-.24,1.92-.6,4,.63,5.65.11.14.36,0,.25-.15-1.58-2.15-.44-4.77-.48-7.18a6.38,6.38,0,0,0-2.15-4.48c-1.3-1.3-2.91-2.43-3.74-4.12a19.87,19.87,0,0,0-1.17-2.91,8.25,8.25,0,0,0-2-1.83c-.15-.11-.3.14-.15.24Z"></path>
      <path class="cls-10" d="M24.21,43.23l1.56,3a7.43,7.43,0,0,0,1.58,2.26,9.71,9.71,0,0,0,4.29,1.71c1.88.44,3.75,1,4.86,2.71,1.29,2,1.18,4.46.93,6.72,0,.19.26.19.28,0a11.43,11.43,0,0,0-.54-6.08,5.84,5.84,0,0,0-3.67-3.15c-1.7-.56-3.59-.68-5.17-1.58a5.65,5.65,0,0,1-2.18-2.48c-.57-1.07-1.13-2.15-1.69-3.23-.08-.16-.33,0-.25.14Z"></path>
      <path class="cls-10" d="M25,43.48c.63,1,1.94,1.38,2.56,2.4.37.62.56,1.38.89,2a11.24,11.24,0,0,0,1.18,1.86,11.93,11.93,0,0,0,1.4,1.53,4.86,4.86,0,0,1,.77.8,3.34,3.34,0,0,1,.42,1.67,17,17,0,0,1-.57,5.36.15.15,0,0,0,.28.08,17.54,17.54,0,0,0,.59-5.15,4.05,4.05,0,0,0-.47-2.12,12.74,12.74,0,0,0-1.46-1.48A14.79,14.79,0,0,1,28,46.07c-.58-1.27-2-1.59-2.72-2.73-.1-.16-.34,0-.25.14Z"></path>
      <path class="cls-10" d="M32.08,52.29a6.71,6.71,0,0,1,.79,1.05,2.8,2.8,0,0,1,.34,1.33c0,.95.08,1.9.12,2.85,0,.18.3.18.29,0,0-1.05,0-2.11-.14-3.15a4.1,4.1,0,0,0-1.2-2.28c-.12-.14-.32.06-.2.2Z"></path>
      <polygon class="cls-3" points="0.41 38.52 23.7 48.41 47.33 38.35 47.11 38.29 0.41 38.52"></polygon>
      <ellipse class="cls-1" cx="24.45" cy="38.82" rx="5.46" ry="2.13"></ellipse>
      <ellipse class="cls-11" cx="24.59" cy="39.54" rx="4.5" ry="1.76"></ellipse>
      <path class="cls-12" d="M10.47,16.37c1.16.5,2.8,1,3.86,1.45a10.1,10.1,0,0,1,4.08,3.54A31,31,0,0,1,21,26.18l.76,1.63c.83,1.8,1.66,3.6,2.45,5.42"></path>
      <path class="cls-13" d="M24.66,20.58a5,5,0,0,1-.67,0,4.7,4.7,0,0,1-2.63-.93c-1.3-1.09-2.78-3.14-2.66-4.94l.32.43,1.19.3,4,2.85.58,1.8Z"></path>
      <path class="cls-14" d="M23.63,19.34l.18.62a3.07,3.07,0,0,0,.18.61A3.08,3.08,0,0,1,23.63,19.34Z"></path>
      <path class="cls-14" d="M23,20.42a5.13,5.13,0,0,1-.66-1.77A8,8,0,0,0,23,20.42Z"></path>
      <path class="cls-14" d="M21.79,20c-.24-.66-.46-1.33-.66-2C21.37,18.62,21.59,19.29,21.79,20Z"></path>
      <path class="cls-14" d="M20.66,19a3.43,3.43,0,0,1-.39-1.37A5.81,5.81,0,0,0,20.66,19Z"></path>
      <path class="cls-14" d="M19.72,17.79a5.78,5.78,0,0,1-.16-1.25,3.4,3.4,0,0,0,.08.63Z"></path>
      <path class="cls-14" d="M24.66,20.58a4.68,4.68,0,0,0,0-4.71l-.12.67c-.05.28-.93-1.39-.93-1.56a2.18,2.18,0,0,0-.14.77,5.24,5.24,0,0,1-.84-1.31,3.71,3.71,0,0,0-.14.71c0,.1-.91-.53-.93-.82s-.07.41,0,.65-.76.07-1.1-.65c0,0-.23.58-.16.63a1,1,0,0,1-.65-.43c-.12-.28,0,.31,0,.45s-.76,0-.95-.28.24.79.5,1.07.26,0,.26,0a5.7,5.7,0,0,1,.74,1.09l.07-.47A4.53,4.53,0,0,1,21,17.42c.05.28.09-.43.09-.43a5.24,5.24,0,0,1,.72,1.09,5.47,5.47,0,0,0,.09-.66s.81,1,.81,1.23l.17-.45s.6,1,.55,1.24.21-.54.19-.64S24.89,20,24.66,20.58Z"></path>
      <path class="cls-15" d="M25,21.37s-.07.29.44.52a6.13,6.13,0,0,0,2.44.28,2.64,2.64,0,0,0-.29-.4,4.86,4.86,0,0,0,1.84-.6,2.82,2.82,0,0,0-.44-.23s1.12-.59,1.37-.75L29.81,20s.43-.84.67-.88c0,0-.31-.33-.42-.28s.22-.68.29-.68S30,18,30,18a2.88,2.88,0,0,1,.31-.36c.05,0-.77-.27-.84-.18s.09-.43.09-.43a2.6,2.6,0,0,0-1.08.36,2.86,2.86,0,0,1-.14-.63c0-.12-1,.7-1.12,1.07a.5.5,0,0,1-.34-.53,2.26,2.26,0,0,0-.63,1.39L26,18.4a2.41,2.41,0,0,0-.17.94s-.24,0-.24-.17A6.41,6.41,0,0,0,25,21.37Z"></path>
      <path class="cls-14" d="M25.41,21.89A17.73,17.73,0,0,1,27,19.73a7.78,7.78,0,0,1,1-.92,3,3,0,0,1,1.18-.61,4.71,4.71,0,0,0-2.11,1.58A16.86,16.86,0,0,0,25.41,21.89Z"></path>
      <path class="cls-14" d="M26,21A2.41,2.41,0,0,1,25.79,20a2.36,2.36,0,0,0,.32,1Z"></path>
      <path class="cls-14" d="M28.62,21.26A8.14,8.14,0,0,1,26,21l.05-.14A7.54,7.54,0,0,0,28.62,21.26Z"></path>
      <path class="cls-14" d="M26.79,20a2.91,2.91,0,0,1-.3-1.19,2.87,2.87,0,0,0,.42,1.13Z"></path>
      <path class="cls-14" d="M28.92,20.42a4,4,0,0,1-2.11-.4l.08-.12A4,4,0,0,0,28.92,20.42Z"></path>
      <path class="cls-14" d="M27.63,19.07a5.64,5.64,0,0,1,.29-1.47,5.21,5.21,0,0,0-.14,1.47Z"></path>
      <path class="cls-14" d="M29.78,19.19a8.14,8.14,0,0,1-2.09-.05l0-.14A8.37,8.37,0,0,0,29.78,19.19Z"></path>
      <path class="cls-14" d="M24.81,21.89a3.24,3.24,0,0,0-.62-.77l0,.15a2.38,2.38,0,0,0-1-.47s.11.17.09.17a2.85,2.85,0,0,0-1-.17.93.93,0,0,1,.08.21,10,10,0,0,0-1.09,0,1.11,1.11,0,0,1,.06.32,2.29,2.29,0,0,0-.81.4s.23.13.23.2a2,2,0,0,0-.47.78l.4.11s0,.2-.09.25.54.4.72.43a.26.26,0,0,1-.23.11c-.17,0,.45.27,1.13.29,0,0,0,.21-.12.21a4.09,4.09,0,0,0,1.39.17s0,.12,0,.19a2.31,2.31,0,0,0,1.33-1.11C25,22.68,25.09,22.52,24.81,21.89Z"></path>
      <path class="cls-16" d="M30.67,13.57s-.53-1.9-.89-2.09a.36.36,0,0,1-.29.32A3.87,3.87,0,0,0,27.71,10l.1.51A3.86,3.86,0,0,0,25,8.93s.45.72.42.9c0,0-1.89-.8-2.6-.26,0,0,.54.67.5.82a7.69,7.69,0,0,0-1.87.13c-.09.16.57.59.54.77s-.67.38-1.06.67l.52.3s-.45.27-.52.22.7.92,1.06.87c0,0-.13.46-.38.52s.85.42,2,.42a1.19,1.19,0,0,1-.62.6c-.52.26,2.09.21,2.3.22s-.15.6-.34.6a5.26,5.26,0,0,0,2.74-.49.33.33,0,0,1-.2.41,3.87,3.87,0,0,0,1.66-.42A4,4,0,0,0,30.67,13.57Z"></path>
      <path class="cls-14" d="M31.69,14.19c-.67-.39-1.36-.75-2.06-1.08a11.27,11.27,0,0,0-2.2-.7A19.36,19.36,0,0,0,25.15,12,22.47,22.47,0,0,0,22.83,12a12.94,12.94,0,0,1,2.33,0,12.78,12.78,0,0,1,2.3.35,12.18,12.18,0,0,1,2.2.76A19.27,19.27,0,0,1,31.69,14.19Z"></path>
      <path class="cls-14" d="M29.1,12.86a2,2,0,0,0-.54-1.66,2,2,0,0,1,.68,1.68Z"></path>
      <path class="cls-14" d="M27,14.7a4.87,4.87,0,0,0,1.12-.85,13.55,13.55,0,0,0,1-1l.1.1a13.52,13.52,0,0,1-1,1A4.86,4.86,0,0,1,27,14.7Z"></path>
      <path class="cls-14" d="M27.23,12.29a3.22,3.22,0,0,1-1.12,1.49,7.07,7.07,0,0,1-1.6.92,6.56,6.56,0,0,0,1.55-1,3.12,3.12,0,0,0,1-1.46Z"></path>
      <path class="cls-14" d="M26.31,10a3.21,3.21,0,0,1,.92,2.27h-.15A3.15,3.15,0,0,0,26.31,10Z"></path>
      <path class="cls-14" d="M25.34,12a2.05,2.05,0,0,0-1.19-1.79A2.09,2.09,0,0,1,25.48,12Z"></path>
      <path class="cls-14" d="M23.27,13.68A3.91,3.91,0,0,0,25.35,12l.12.07A4,4,0,0,1,23.27,13.68Z"></path>
      <path class="cls-14" d="M23.92,12a1.68,1.68,0,0,0-.65-.93,1.72,1.72,0,0,1,.79.89Z"></path>
      <path class="cls-14" d="M22.68,13.15a2.87,2.87,0,0,0,1.25-1.26l.12.08A2.9,2.9,0,0,1,22.68,13.15Z"></path>
      <path class="cls-16" d="M32.28,13.41s-1.41-4.08,1.47-5.58l.22.7S34.64,7,35.54,7v.61s1.2-.93,1.91-.61l-.33.43S38.83,7,39,7.18s.1.34,0,.65.62,0,.62,0A6.5,6.5,0,0,1,39,9.2c-.14,0,.29,0,.62.05,0,0-.5,1.74-.82,1.89s.57.06.57.06a4.35,4.35,0,0,1-1.25,1.34s1.14.11,1.22.09S36.28,16.48,32.28,13.41Z"></path>
      <path class="cls-14" d="M31.63,14.15a21.78,21.78,0,0,1,2.16-2.34A9.22,9.22,0,0,1,36.38,10v0a3.45,3.45,0,0,1,.74-1.2,7.26,7.26,0,0,1,1-1,7.21,7.21,0,0,0-1,1,3.69,3.69,0,0,0-.72,1.2h0a9.1,9.1,0,0,0-2.55,1.85,22.39,22.39,0,0,0-2.11,2.35Z"></path>
      <path class="cls-14" d="M34.47,11.14a5.7,5.7,0,0,1,.56-2,3.8,3.8,0,0,1,1.36-1.56h0a3.8,3.8,0,0,0-1.31,1.58,8.54,8.54,0,0,0-.6,2Z"></path>
      <path class="cls-14" d="M33.54,12a7.92,7.92,0,0,0,4.31-.35,6,6,0,0,1-2.13.54,9.63,9.63,0,0,1-2.21-.05Z"></path>
      <path class="cls-14" d="M34.85,7.83a4,4,0,0,0-1,2A9.29,9.29,0,0,0,33.6,12h-.15a10,10,0,0,1,.32-2.25A4,4,0,0,1,34.85,7.83Z"></path>
      <path class="cls-14" d="M32.67,12.9a9.83,9.83,0,0,0,2.4.54,4.8,4.8,0,0,0,2.43-.32,4.82,4.82,0,0,1-2.43.39A10.3,10.3,0,0,1,32.62,13Z"></path>
      <path class="cls-14" d="M32.92,9.57a4,4,0,0,0-.31,1.68A10.84,10.84,0,0,0,32.72,13l-.15,0a12.52,12.52,0,0,1,0-1.73A4,4,0,0,1,32.92,9.57Z"></path>
      <path class="cls-14" d="M35.4,10.52c.57-.09,1.15-.16,1.72-.23a9,9,0,0,0,1.7-.36h0a8.15,8.15,0,0,1-1.69.4,14.3,14.3,0,0,1-1.73.19Z"></path>
      <path class="cls-15" d="M34.19,19.38s1.48,1.8,2.7-.16a18,18,0,0,0,1.56-2.69c0-.16-.33.17-.6.18s0-.16,0-.29a4.06,4.06,0,0,0,.77-2.57s-.66.31-.77.21.35-1.49-.16-2.37a2,2,0,0,1-.88.35s-.1-1.21-.65-1.52a1.44,1.44,0,0,1-.47.42s.35.05-.93-.55a2.29,2.29,0,0,1-.29.75s-.5-.33-.55-.52-.18.82-.17,1-.68-.14-.68-.14-.38,2.06.28,2.71a3.65,3.65,0,0,1-.78-.5c-.29-.28.19,1.38.35,1.65a2.56,2.56,0,0,1-.76-.08,4.25,4.25,0,0,0,1.14,2.16,1.07,1.07,0,0,1-.66,0S34,19.16,34.19,19.38Z"></path>
      <path class="cls-14" d="M35.21,11.75a23.13,23.13,0,0,1,.71,4.38,15.2,15.2,0,0,1-.32,4.41,17.61,17.61,0,0,0,.22-4.41A29.4,29.4,0,0,0,35.21,11.75Z"></path>
      <path class="cls-14" d="M36,18.16a1.63,1.63,0,0,0,.81-.23,4.56,4.56,0,0,0,.73-.51,4.18,4.18,0,0,1-.69.57,1.69,1.69,0,0,1-.86.31Z"></path>
      <path class="cls-14" d="M32.92,16.11a12.14,12.14,0,0,0,1.39,1.29,5.88,5.88,0,0,0,.78.52,1.6,1.6,0,0,0,.86.24v.14A1.68,1.68,0,0,1,35,18a5.8,5.8,0,0,1-.77-.56A13,13,0,0,1,32.92,16.11Z"></path>
      <path class="cls-14" d="M35.94,16.16a3.7,3.7,0,0,0,1.91-1.27A3.82,3.82,0,0,1,36,16.3Z"></path>
      <path class="cls-14" d="M33.07,14.52a5.24,5.24,0,0,0,1.26,1.18,2.72,2.72,0,0,0,1.62.46v.14a2.81,2.81,0,0,1-1.66-.54A5.17,5.17,0,0,1,33.07,14.52Z"></path>
      <path class="cls-14" d="M35.84,14.46a2.45,2.45,0,0,0,1.1-1.3,2.57,2.57,0,0,1-1,1.43Z"></path>
      <path class="cls-14" d="M33.52,12.81a4.62,4.62,0,0,0,1,1.17,1.75,1.75,0,0,0,1.36.48l0,.14A1.88,1.88,0,0,1,34.45,14,4.64,4.64,0,0,1,33.52,12.81Z"></path>
      <path class="cls-14" d="M35.51,13.09A1.62,1.62,0,0,0,36.12,12a1.64,1.64,0,0,1-.53,1.17Z"></path>
      <path class="cls-14" d="M34.19,11.8a3.15,3.15,0,0,0,.54.85,1.15,1.15,0,0,0,.82.43v.14a1.27,1.27,0,0,1-.88-.53A3.07,3.07,0,0,1,34.19,11.8Z"></path>
      <path class="cls-15" d="M37.85,21.56s-2.46.2-3.34,1.81,0,3.89,0,3.89,0-.38.7-.6A4,4,0,0,0,36.73,29a3,3,0,0,1,0-1c.09-.16.77,1.31,1.66,1.41,0,0-.11-.67,0-.74s.64.83,1.5,1.09c0,0-.18-.84,0-1s1.25.56,1.25.56a3.78,3.78,0,0,0,.15-.83c0-.18.67.38.71.55a9,9,0,0,0-.21-1.93c-.15-.23.75-.2.78,0A3,3,0,0,0,42,25.5c-.53-.49.45-.09.62,0s-.4-1.13-1.54-1.7.78-.21.78-.21A5.43,5.43,0,0,0,37.85,21.56Z"></path>
      <path class="cls-14" d="M36.53,22.61a3.17,3.17,0,0,1,2-.26,7.73,7.73,0,0,1,1.87.61,7,7,0,0,0-1.88-.53,3.1,3.1,0,0,0-1.88.3Z"></path>
      <path class="cls-14" d="M34.93,25.77A5,5,0,0,1,35.34,24a3,3,0,0,1,1.19-1.38l.07.12A2.94,2.94,0,0,0,35.4,24,5,5,0,0,0,34.93,25.77Z"></path>
      <path class="cls-14" d="M37.58,23.64a2.45,2.45,0,0,1,2.05,0,8.19,8.19,0,0,1,1.8,1,8.57,8.57,0,0,0-1.82-1,2.39,2.39,0,0,0-2,0Z"></path>
      <path class="cls-14" d="M36.3,27.55a7.54,7.54,0,0,1,.16-2.12,2.76,2.76,0,0,1,1.12-1.79l.07.12a2.67,2.67,0,0,0-1.12,1.69A7.06,7.06,0,0,0,36.3,27.55Z"></path>
      <path class="cls-14" d="M38.47,24.66a1.82,1.82,0,0,1,1.62.18,7.29,7.29,0,0,1,1.34.93,7,7,0,0,0-1.37-.87,1.75,1.75,0,0,0-1.52-.12Z"></path>
      <path class="cls-14" d="M37.64,27.62a6.05,6.05,0,0,1,0-1.59,1.92,1.92,0,0,1,.78-1.37l.07.12a1.85,1.85,0,0,0-.78,1.27A6.33,6.33,0,0,0,37.64,27.62Z"></path>
      <path class="cls-14" d="M39.52,26.18a1.18,1.18,0,0,1,.92.31,6.19,6.19,0,0,1,.7.65,6,6,0,0,0-.74-.59,1.11,1.11,0,0,0-.83-.24Z"></path>
      <path class="cls-14" d="M39.18,28.11a4.27,4.27,0,0,1-.09-1,2.26,2.26,0,0,1,.08-.51.62.62,0,0,1,.35-.41l0,.13c-.29.09-.37.48-.41.79A4.86,4.86,0,0,0,39.18,28.11Z"></path>
      <path class="cls-14" d="M35.4,21.61a26.51,26.51,0,0,1,2.71,2.59,9.43,9.43,0,0,1,2,3.16A10.8,10.8,0,0,0,38,24.27C37.21,23.33,36.31,22.47,35.4,21.61Z"></path>
      <path class="cls-17" d="M45.36,9.94a4.32,4.32,0,0,0,.88.28,1.37,1.37,0,0,1-.3.6c-.1.06.23.2.23.2s-.71,1-.91,1c0,0,.24.2.35.15a3.19,3.19,0,0,1-1,.66c-.26,0,.24.16.24.16a3.68,3.68,0,0,1-1.57.38C42.6,13.29,45.36,9.94,45.36,9.94Z"></path>
      <path class="cls-15" d="M42.53,13.41a3.93,3.93,0,0,1,3.15-4.16,2.06,2.06,0,0,0,0,.58H46a2.34,2.34,0,0,1-.45,1.08c-.23.19.33.11.33.11a3.67,3.67,0,0,1-1.06,1.13s.34.12.43.07A4.66,4.66,0,0,1,44,13c-.34.06.23.18.23.18S43.05,13.68,42.53,13.41Z"></path>
      <path class="cls-13" d="M42.42,12.9s.26.25,1.18-1.44l-.25,0s.78-1.29.57-1.67a1,1,0,0,1-.23.06,1.87,1.87,0,0,0-.61-1.53c-.14-.14-.13.15-.13.15A4,4,0,0,1,42.37,8l-.11.13a2,2,0,0,0-.36-.29s-.07.55.08.63.17-.21.17-.21a1.37,1.37,0,0,1,.11,1.06s.24.18.35.14,0,.89-.16,1.05.36.45.36.45A4.58,4.58,0,0,1,42.42,12.9Z"></path>
      <path class="cls-14" d="M42.62,12.21c.09-.09.14-.07.21-.11L43,12a1.34,1.34,0,0,0,.31-.27A1.64,1.64,0,0,1,43,12l-.18.11-.16.08Z"></path>
      <path class="cls-14" d="M42.62,11.12a1.43,1.43,0,0,0,.54-.32,2.59,2.59,0,0,0,.42-.51,1.85,1.85,0,0,1-1,.89Z"></path>
      <path class="cls-14" d="M42.41,10.09a2,2,0,0,0,.74-1.19,1.92,1.92,0,0,1-.71,1.24Z"></path>
      <path class="cls-14" d="M42.11,9.08a3.26,3.26,0,0,0,.32-.68,2.87,2.87,0,0,1-.27.72Z"></path>
      <path class="cls-17" d="M42.42,12.9a4.16,4.16,0,0,1-.52-5,1.51,1.51,0,0,0,.08.63c0,.05.17-.21.17-.21a1.19,1.19,0,0,1,.11,1.06.67.67,0,0,0,.39.12,2,2,0,0,1-.23,1.17,1.71,1.71,0,0,0,.39.35A4.12,4.12,0,0,1,42.42,12.9Z"></path>
      <path class="cls-13" d="M42.21,13.6s.4,0,0-2L42,11.8s-.24-1.61-.68-1.79a1.07,1.07,0,0,1-.15.21,2,2,0,0,0-1.57-.86c-.21,0,0,.21,0,.21a4.44,4.44,0,0,1-.82,0v.19a2,2,0,0,0-.5,0s.31.51.5.48,0-.3,0-.3a1.49,1.49,0,0,1,.82.81s.32,0,.39-.13.63.74.59,1,.61.13.61.13A5,5,0,0,1,42.21,13.6Z"></path>
      <path class="cls-14" d="M41.91,12.89c0-.14.07-.16.1-.24a1.19,1.19,0,0,0,.08-.2,1.37,1.37,0,0,0,.07-.45,1.78,1.78,0,0,1,0,.46,1.87,1.87,0,0,1-.07.22,1.12,1.12,0,0,0-.08.18Z"></path>
      <path class="cls-14" d="M41.15,12a1.35,1.35,0,0,0,.24-.65,2.81,2.81,0,0,0,0-.71,2.9,2.9,0,0,1,0,.72,1.37,1.37,0,0,1-.22.69Z"></path>
      <path class="cls-14" d="M40.27,11.26a2.13,2.13,0,0,0-.2-1.5,2.17,2.17,0,0,1,.27,1.52Z"></path>
      <path class="cls-14" d="M39.32,10.62a3.16,3.16,0,0,0-.2-.79,3.07,3.07,0,0,1,.27.79Z"></path>
      <path class="cls-15" d="M42.21,13.6a4.49,4.49,0,0,1-3.89-3.84,1.75,1.75,0,0,0,.5.48c.06,0,0-.3,0-.3s.46.1.82.81a.78.78,0,0,0,.41-.16,2.12,2.12,0,0,1,.61,1.14,2.31,2.31,0,0,0,.57,0A4.26,4.26,0,0,1,42.21,13.6Z"></path>
      <path class="cls-16" d="M38.51,20.59s1.05-5.72,5.83-6.33c0,0-.23,1.16,0,1.16s1.23-1.29,1.58-1.23c0,0,0,.83.15.92s.77-.66,1.52-.77c0,0-.44.65,0,1a1.45,1.45,0,0,1,1.53-.65s-.88.77-.33,1,1.51-.06,1.76.08S48.9,17,49.89,17.17s1.72-.21,2.31,0c0,0-1.51.71-1,.94s1.63,0,1.75.09-1.9,1.76.6,1.34C53.57,19.54,45.85,27.45,38.51,20.59Z"></path>
      <path class="cls-14" d="M40.57,19.83a7.85,7.85,0,0,1,1.82-3.44,7.86,7.86,0,0,0-1.68,3.47Z"></path>
      <path class="cls-14" d="M41.87,20.78A12.56,12.56,0,0,1,43,18.1a6.56,6.56,0,0,1,1.85-2.2A6.45,6.45,0,0,0,43,18.13a13,13,0,0,0-1,2.68Z"></path>
      <path class="cls-14" d="M43.41,20.4a9.05,9.05,0,0,1,3.3-4.17,8.86,8.86,0,0,0-3.16,4.21Z"></path>
      <path class="cls-14" d="M44.82,20.94a11.53,11.53,0,0,1,1.77-2.44,19.43,19.43,0,0,1,2.21-2,20.29,20.29,0,0,0-2.16,2.09A11,11,0,0,0,45,21Z"></path>
      <path class="cls-14" d="M46.89,21.07a21.56,21.56,0,0,0,2.6-2.8A21,21,0,0,1,47,21.17Z"></path>
      <path class="cls-14" d="M49,20.73a7.34,7.34,0,0,0,2.08-1.51,7.61,7.61,0,0,1-2,1.64Z"></path>
      <path class="cls-15" d="M38.46,20.8A6.41,6.41,0,0,1,42,19.44s-.32,1-.1,1a12.4,12.4,0,0,1,3.23-.57s-.34.65-.29.86S46.63,20,47.57,20c0,0-.56.89-.12.93s1.2-.82,2.13-.84c0,0-.53,1-.09,1s1.74-.88,2.31-1c0,0-.48.48-.23.67S53,20,53,20,45.62,27.06,38.46,20.8Z"></path>
      <path class="cls-14" d="M39,21.27a6,6,0,0,0,1.1-.47,9.11,9.11,0,0,0,1-.61,3.9,3.9,0,0,1-1,.74A3.28,3.28,0,0,1,39,21.27Z"></path>
      <path class="cls-14" d="M40.94,22.35a9.23,9.23,0,0,0,1.57-.59,3.91,3.91,0,0,0,1.35-1,3.14,3.14,0,0,1-1.29,1.1A5.43,5.43,0,0,1,40.94,22.35Z"></path>
      <path class="cls-14" d="M42.4,23a15.32,15.32,0,0,0,2.11-.81A5.18,5.18,0,0,0,46.36,21a4.35,4.35,0,0,1-1.79,1.38A9.27,9.27,0,0,1,42.4,23Z"></path>
      <path class="cls-14" d="M45.32,23.39a10.79,10.79,0,0,0,1.81-1,6.43,6.43,0,0,0,1.55-1.31,4.93,4.93,0,0,1-1.48,1.43A7.21,7.21,0,0,1,45.32,23.39Z"></path>
      <path class="cls-12" d="M42.42,12.9c0,3.49-3.3,5.58-5.31,6.79S33.33,21.57,31.44,23a27.11,27.11,0,0,0-4.72,4.44c-2.11,2.54-2.66,3.66-2.48,5.9"></path>
      <path class="cls-12" d="M38.64,20.63c-.67.24-1.4.26-2.06.5-6.19,2.26-11.77,7.94-12.34,12.17"></path>
      <path class="cls-12" d="M24.51,20.19a11.4,11.4,0,0,1,.31,7.48,16.66,16.66,0,0,1-.75,1.8c-.81,1.61.15,2.92.14,3.76"></path>
      <path class="cls-12" d="M13.75,24.44a2.66,2.66,0,0,1,3,.51c.24.24.42.51.66.74a6.39,6.39,0,0,0,1.4.89,8.59,8.59,0,0,1,1.93,1.51,20.61,20.61,0,0,1,3.48,5.14"></path>
      <path class="cls-18" d="M14.34,27.73c.91-.45,1.9-1.42,2.91-1.41a3.08,3.08,0,0,1,1,.11c.66.22,2.06,1.13,1.2.54"></path>
      <path class="cls-12" d="M17.61,28.15A1.48,1.48,0,0,1,17.38,27a.89.89,0,0,1,.67-.37,5,5,0,0,1,1.67.57"></path>
      <path class="cls-18" d="M17.7,26.34a2.39,2.39,0,0,0-1.23.94c-.76,1.3.1,2.31.11,2.68"></path>
      <path class="cls-12" d="M51.11,6.43a14.07,14.07,0,0,1-4.3,4.75,11.86,11.86,0,0,0-2.17,1.76c-1.87,1.74-4,4.59-6.18,5.89"></path>
      <path class="cls-12" d="M49.09,9.21c.89-.66,1.7.07,3.51-.28"></path>
      <path class="cls-12" d="M46.18,11.59c.19-.12.93-.69,1.09-.84.64-.62.82-1.55.82-3.35"></path>
      <path class="cls-15" d="M11.46,13.65a3.57,3.57,0,0,0,1.67,2.47,2.68,2.68,0,0,0,.66.2A2.38,2.38,0,0,0,15.58,16a6.67,6.67,0,0,0,2-2.21l-.69.19a5.65,5.65,0,0,0,1-2.17s-.74.17-.95.19c0,0,.86-1.31.79-1.83a8.41,8.41,0,0,1-.84.26A2.2,2.2,0,0,0,17.53,9a2.74,2.74,0,0,1-.66.31,5.55,5.55,0,0,0,0-1.31l-.55.31a2.89,2.89,0,0,0-.07-.71,5.3,5.3,0,0,1-.64.69s-.34-.15-.31-.38c0,0-.57.31-.5.83a.47.47,0,0,1-.6-.43s-.88,1-.71,1.76a.66.66,0,0,1-.65-.35,3.66,3.66,0,0,0-.19,1.9s-.62.12-.74-.21a4.32,4.32,0,0,0,.22,2.4A.55.55,0,0,1,11.46,13.65Z"></path>
      <path class="cls-14" d="M17.06,12.48a6.43,6.43,0,0,1-1.57,1.37,3.42,3.42,0,0,1-2,.55v-.14a3.32,3.32,0,0,0,2-.47A6.3,6.3,0,0,0,17.06,12.48Z"></path>
      <path class="cls-14" d="M13.61,17.42a5.58,5.58,0,0,1-.3-2.22,10.2,10.2,0,0,1,.51-2.2,15.88,15.88,0,0,1,.87-2.09,16.49,16.49,0,0,1,1.08-2A34.35,34.35,0,0,0,13.93,13a10.07,10.07,0,0,0-.55,2.16A5.56,5.56,0,0,0,13.61,17.42Z"></path>
      <path class="cls-14" d="M16.58,14.34a3.62,3.62,0,0,1-1.45,1.08,3,3,0,0,1-1.79.16h0a3.8,3.8,0,0,0,1.77-.22,3.75,3.75,0,0,0,1.47-1Z"></path>
      <path class="cls-14" d="M12.17,14.34a2.65,2.65,0,0,0,.54.66,3.84,3.84,0,0,0,.63.58,4.88,4.88,0,0,1-.69-.53A2.61,2.61,0,0,1,12.17,14.34Z"></path>
      <path class="cls-14" d="M12.44,12.63a3.82,3.82,0,0,0,.35,1,1.12,1.12,0,0,0,.72.65l0,.14a1.21,1.21,0,0,1-.75-.76A3.64,3.64,0,0,1,12.44,12.63Z"></path>
      <path class="cls-14" d="M14,12.56a3,3,0,0,0,1.5-.28,3,3,0,0,0,1.18-1,3.05,3.05,0,0,1-1.15,1.05A3,3,0,0,1,14,12.7Z"></path>
      <path class="cls-14" d="M13,10.94a3.54,3.54,0,0,0,.32,1,1,1,0,0,0,.73.62v.14a1.08,1.08,0,0,1-.79-.73A3.69,3.69,0,0,1,13,10.94Z"></path>
      <path class="cls-14" d="M14.37,11.61A4.71,4.71,0,0,1,14.2,9.2a4.64,4.64,0,0,0,.31,2.36Z"></path>
      <path class="cls-14" d="M16.7,10a1.94,1.94,0,0,1-.89,1.1,4.23,4.23,0,0,1-1.36.55l0-.14a4.34,4.34,0,0,0,1.35-.47A1.9,1.9,0,0,0,16.7,10Z"></path>
      <path class="cls-14" d="M15.13,10.06a1.66,1.66,0,0,0,1.31-1,1.72,1.72,0,0,1-1.31,1.14Z"></path>
      <path class="cls-14" d="M14.89,8.93a1.18,1.18,0,0,0,.27,1.14l-.06.09A1.23,1.23,0,0,1,14.89,8.93Z"></path>
      <path class="cls-15" d="M7.77,17.6c.06,0,2.6.1,3.27-1.06a1.24,1.24,0,0,0,.14-.41,6.38,6.38,0,0,0,0-2.48s-.13.47-.31.55a4.62,4.62,0,0,0-1-2.61s-.12.61-.38.74A2.93,2.93,0,0,0,7.77,9.88s.23.8,0,.92A5.21,5.21,0,0,0,5.48,9.2a3.35,3.35,0,0,1,.2.91,11.67,11.67,0,0,0-1.47-.7,4.86,4.86,0,0,1-.27,1A9.53,9.53,0,0,0,3,10.26a6.35,6.35,0,0,1,.27.68L2.51,11s1.07,1.79,1.68,2.06l-1.41.32h0A28,28,0,0,0,5,15.17s-1.23.39-1.4.41C3.58,15.58,4.5,17.35,7.77,17.6Z"></path>
      <path class="cls-14" d="M4,11.2A21.31,21.31,0,0,0,7.1,14.44,9.65,9.65,0,0,0,11,16.54h0a6,6,0,0,1-2.15-.71A10.86,10.86,0,0,1,7,14.53,21.51,21.51,0,0,1,4,11.21Z"></path>
      <path class="cls-14" d="M8.43,11.49a5.61,5.61,0,0,1-.38,3.13,2.45,2.45,0,0,1-1.16,1.09,2.81,2.81,0,0,1-1.57.12,3.17,3.17,0,0,0,1.53-.21,2.27,2.27,0,0,0,1.07-1.07,4.23,4.23,0,0,0,.45-1.49A10.26,10.26,0,0,0,8.43,11.49Z"></path>
      <path class="cls-14" d="M10.05,13a5.6,5.6,0,0,1-.37,2.62,2.52,2.52,0,0,1-.82,1.06A2,2,0,0,1,7.59,17a2.47,2.47,0,0,0,1.22-.41,2.65,2.65,0,0,0,.74-1A6.76,6.76,0,0,0,10.05,13Z"></path>
      <path class="cls-14" d="M6.89,11.29A4.41,4.41,0,0,1,7,12.49a2.89,2.89,0,0,1-.25,1.19,1.19,1.19,0,0,1-1,.68,2.28,2.28,0,0,1-1.18-.24,3.14,3.14,0,0,0,1.17.15,1.11,1.11,0,0,0,.87-.65,2.9,2.9,0,0,0,.28-1.13A8,8,0,0,0,6.89,11.29Z"></path>
      <path class="cls-14" d="M5.31,12.74c-.07,0,0-.05,0-.09l0-.14a3,3,0,0,0,0-.31,2.46,2.46,0,0,0-.07-.6,2.2,2.2,0,0,0-.58-1.08,2.34,2.34,0,0,1,.65,1.06,2.6,2.6,0,0,1,.11.62c0,.11,0,.21,0,.32a.88.88,0,0,1,0,.16c0,.07,0,.09-.11.2Z"></path>
      <path class="cls-14" d="M3.42,12a2.26,2.26,0,0,0,1.89.77l0,.14A2.35,2.35,0,0,1,3.42,12Z"></path>
      <path class="cls-15" d="M13.49,19.71s.13-2.74-3.43-1.93l.31.32a4.53,4.53,0,0,0-1.91.5,2.92,2.92,0,0,1,.66.2c0,.05-1.91,1-2.23,1.87l1,.09A3.18,3.18,0,0,0,6.78,23.1s.43-.28.56-.23S6.68,24.35,7.16,25c0,0,.27-.5.53-.54,0,0-.05.88.11,1.06,0,0,.2-.66.41-.7,0,0,.23.36.15.57,0,0,1-.62,1.19-1.27,0,0,.23.49.15.7a9.72,9.72,0,0,0,1.59-1.68s.23.38.17.54,1.48-1,1.3-1.81c0,0,.28.22.21.43A11.68,11.68,0,0,0,13.49,19.71Z"></path>
      <path class="cls-14" d="M7.55,23.8c.32-.68.66-1.35,1-2A9.31,9.31,0,0,1,9.87,20a7,7,0,0,1,1.7-1.46,6.23,6.23,0,0,1,2-.91,6.76,6.76,0,0,0-2,1A6.85,6.85,0,0,0,9.94,20,20.2,20.2,0,0,0,7.55,23.8Z"></path>
      <path class="cls-14" d="M11,19a4,4,0,0,0-1.72-.37,4.16,4.16,0,0,1,1.78.24Z"></path>
      <path class="cls-14" d="M11.7,22.46a14.09,14.09,0,0,0-.14-1.83,5.4,5.4,0,0,0-.18-.89A1.25,1.25,0,0,0,11,19l.06-.13a1.26,1.26,0,0,1,.47.82,6,6,0,0,1,.15.91A16.17,16.17,0,0,1,11.7,22.46Z"></path>
      <path class="cls-14" d="M9.5,20.3a8.33,8.33,0,0,0-1.41-.15,9.76,9.76,0,0,1,1.43,0Z"></path>
      <path class="cls-14" d="M10,24a13,13,0,0,0,.07-2,4.6,4.6,0,0,0-.11-1,1.17,1.17,0,0,0-.43-.78l.06-.13a1.25,1.25,0,0,1,.48.89,6.74,6.74,0,0,1,.08,1A14.52,14.52,0,0,1,10,24Z"></path>
      <path class="cls-14" d="M8.9,21.44a1.09,1.09,0,0,0-.71.21,3,3,0,0,0-.6.52,3.07,3.07,0,0,1,.56-.58,1.17,1.17,0,0,1,.79-.28Z"></path>
      <path class="cls-14" d="M9.18,23a3.85,3.85,0,0,0,0-.83c0-.27-.1-.58-.31-.69L9,21.31a1,1,0,0,1,.31.81A3.37,3.37,0,0,1,9.18,23Z"></path>
      <path class="cls-12" d="M30.93,9.57a17,17,0,0,1,.72,6.37,10.76,10.76,0,0,1-1.73,5.43c-.34.49-5.29,7.25-5.68,9.29a5,5,0,0,0,0,2.57"></path>
      <path class="cls-16" d="M31.35,10.11s1-.19,2-2.18a1.22,1.22,0,0,1-.52,0,3,3,0,0,0,.87-2.78,2.67,2.67,0,0,1-.44.41,8.67,8.67,0,0,0-.09-1.93s-.33.53-.59.64c0,0-.06-1.95-.32-2.16,0,0-.47.71-.61.73s.12-1.37-.39-1.75a6.73,6.73,0,0,1-.56,1c-.14.13-.05-1.39-.62-1.76a3.55,3.55,0,0,1-.36.76s-.32-1-.51-1c0,0-.14.54-.31.64A2.44,2.44,0,0,0,28.1,0a4,4,0,0,1-.27.86A4.4,4.4,0,0,0,26.74.21a8.7,8.7,0,0,1,.14,1s.15.27-.25.21l-.8-.09.48,1a8.86,8.86,0,0,1-.9-.07,6,6,0,0,0,.81,1.32c.43.41-.12.27-.18.27a3.14,3.14,0,0,1-1-.36c0-.13.75,1.34.75,1.34a1.33,1.33,0,0,1-.75,0c-.29-.14.37.82.45.93l.55.79s.2.23.07.23-.8-.27-.74-.14,1.28,1.17,1.19,1.3-.89,0-.77.14a12.27,12.27,0,0,0,1.79,1.5,7.15,7.15,0,0,0,2.48.7C31.39,10.29,31.35,10.11,31.35,10.11Z"></path>
      <path class="cls-14" d="M27.78,2.05A23.77,23.77,0,0,1,29.71,6c.51,1.37,1,2.74,1.39,4.14-.5-1.36-1-2.74-1.52-4.09-.26-.68-.54-1.35-.83-2S28.14,2.69,27.78,2.05Z"></path>
      <path class="cls-14" d="M30.92,9.64a16.09,16.09,0,0,1-3.43-.71,16.81,16.81,0,0,0,3.44.57Z"></path>
      <path class="cls-14" d="M33.07,7A9.16,9.16,0,0,1,31,9.63l-.09-.11A9.1,9.1,0,0,0,33.07,7Z"></path>
      <path class="cls-14" d="M30.48,8.34a12.61,12.61,0,0,1-1.93-.26,5.83,5.83,0,0,1-1.81-.68A5.81,5.81,0,0,0,28.57,8a12.37,12.37,0,0,0,1.92.19Z"></path>
      <path class="cls-14" d="M32.28,6.08a3.48,3.48,0,0,1-.74,1.22,12.24,12.24,0,0,1-1,1l-.09-.11a10.68,10.68,0,0,0,1-1A3.36,3.36,0,0,0,32.28,6.08Z"></path>
      <path class="cls-14" d="M30.09,7.25a8.62,8.62,0,0,1-2-.48,4.87,4.87,0,0,1-1.76-1.09,4.81,4.81,0,0,0,1.78,1,9.2,9.2,0,0,0,2,.41Z"></path>
      <path class="cls-14" d="M31.57,4.72a4.93,4.93,0,0,1-1.43,2.51l-.09-.11A4.77,4.77,0,0,0,31.57,4.72Z"></path>
      <path class="cls-14" d="M29.68,6.16a5,5,0,0,1-3.37-1.58A4.9,4.9,0,0,0,29.68,6Z"></path>
      <path class="cls-14" d="M31.1,3.07a3.1,3.1,0,0,1-.38,1.66,6.52,6.52,0,0,1-1,1.41L29.63,6a5.9,5.9,0,0,0,1-1.34A3.06,3.06,0,0,0,31.1,3.07Z"></path>
      <path class="cls-14" d="M29.1,4.79a7.64,7.64,0,0,1-1.46-.65,3.19,3.19,0,0,1-1.15-1.07,3.14,3.14,0,0,0,1.19,1,6.81,6.81,0,0,0,1.46.57Z"></path>
      <path class="cls-14" d="M29.78,1.82a6.92,6.92,0,0,1-.07,1.51,3.42,3.42,0,0,1-.54,1.43l-.11-.09a3.34,3.34,0,0,0,.58-1.35A7.48,7.48,0,0,0,29.78,1.82Z"></path>
      <path class="cls-14" d="M28.49,3.4a3.15,3.15,0,0,1-1.82-1.35,3.78,3.78,0,0,0,.82.78,2.48,2.48,0,0,0,1,.43Z"></path>
      <path class="cls-14" d="M29.17,1.5a5.58,5.58,0,0,1-.61,1.86l-.12-.07A5.63,5.63,0,0,0,29.17,1.5Z"></path>
      <path class="cls-19" d="M24.28,35.54c-.05-.84.21-1.17-.5-1.61a2.53,2.53,0,0,1-1-1.48,8.9,8.9,0,0,0-.67-2s.79.83,1.31,1.31.64,1.39.74,1.43.36-.89.86-1.65a2.4,2.4,0,0,1,1.08-1S25,31.94,25,32.65c.17,2,.23,3.43.24,4.31s.76,2.23.69,2.52-2.05,1.05-2.1-.12c0,0-.52-.17,0-.85A7.21,7.21,0,0,0,24.28,35.54Z"></path>
      <path class="cls-19" d="M24.6,40.06h-.12a.69.69,0,0,1-.7-.65.42.42,0,0,1-.2-.24.8.8,0,0,1,.27-.7,7.47,7.47,0,0,0,.35-2.92h0a4.94,4.94,0,0,1,0-.56c0-.46,0-.69-.47-1a2.65,2.65,0,0,1-1-1.53,9.46,9.46,0,0,0-.66-1.94l-.2-.41.31.33s.79.84,1.3,1.31a2.74,2.74,0,0,1,.65,1.18,1.45,1.45,0,0,0,.06.19,2.5,2.5,0,0,0,.17-.36A8.8,8.8,0,0,1,25,31.54a2.34,2.34,0,0,1,1.12-1l.26-.09-.19.2S25,32,25.09,32.65c.19,2.25.23,3.67.24,4.31a5.47,5.47,0,0,0,.45,1.68,2.07,2.07,0,0,1,.24.85C26,39.73,25.2,40.06,24.6,40.06Zm-2.21-9.23a7.63,7.63,0,0,1,.51,1.61,2.46,2.46,0,0,0,.91,1.42A1,1,0,0,1,24.35,35a4.83,4.83,0,0,0,0,.54h0a7.17,7.17,0,0,1-.4,3c-.19.23-.27.43-.23.57a.24.24,0,0,0,.15.16l.05,0v0c0,.34.21.52.58.55h.11a2,2,0,0,0,1.27-.46,2.39,2.39,0,0,0-.23-.77A5.43,5.43,0,0,1,25.19,37c0-.64-.05-2.05-.24-4.3a3.51,3.51,0,0,1,.9-1.79,2.89,2.89,0,0,0-.72.75,9.08,9.08,0,0,0-.61,1.2c-.15.34-.2.45-.27.48h-.07c-.06,0-.09-.11-.16-.32a2.71,2.71,0,0,0-.6-1.13C23.1,31.56,22.67,31.12,22.39,30.83Z"></path>
      <path class="cls-15" d="M48.23,8.3A1.89,1.89,0,0,0,46.12,8s1.11-.15,1.45.21A2,2,0,0,0,46,9.14s1.52-.79,1.8-.53c0,0,.46.22.07,1.5,0,0,.4-.18.54-1.39,0,0,.87.58.85,1.32a1.76,1.76,0,0,0-.43-1.5,1.18,1.18,0,0,1,1,.92s.21-1.23-.88-1.33C48.93,8.13,48.46,8.48,48.23,8.3Z"></path>
      <path class="cls-20" d="M48.34,7.75a8.65,8.65,0,0,1,1.84,0c.19.13.26.42.19.49a3.42,3.42,0,0,1-.93.51c-.27.06-.91,0-1-.19A3.7,3.7,0,0,1,48.34,7.75Z"></path>
      <path class="cls-21" d="M48,7.34c0-.06-1-.74-.71-1.71s1.42-.4,1.56-.25A1.23,1.23,0,0,1,49,6.83C48.61,7.7,48,7.34,48,7.34Z"></path>
      <path class="cls-22" d="M47.66,7a1.61,1.61,0,0,0-.43-1.3c-.55-.48-1-.07-1,.26a1.16,1.16,0,0,0,.59,1.28C47.54,7.65,47.74,7.29,47.66,7Z"></path>
      <path class="cls-23" d="M48.31,7.33s.49-.9.9-1,.91-.17,1.09.14a1.23,1.23,0,0,1,0,1.12,5.33,5.33,0,0,1-1.71.09C48.54,7.68,48.2,7.53,48.31,7.33Z"></path>
      <path class="cls-24" d="M47.9,7.52a1.27,1.27,0,0,0-1.27-.32s-.24.09-.25.26A.93.93,0,0,0,47,8.3a3.23,3.23,0,0,0,1.28.35s.56-.08.24-.61C48.48,8,48.41,7.84,47.9,7.52Z"></path>
      <path class="cls-25" d="M47.61,7.16c0-.1.32-.09.61,0s.42.44.38.53-.31.07-.6-.07S47.57,7.25,47.61,7.16Z"></path>
      <path class="cls-14" d="M54.1,7.58a1.44,1.44,0,0,0-1.5,1.34S53.38,9.11,54.1,7.58Z"></path>
      <path class="cls-26" d="M55.05,8.66c.08-.11-1-1.16-1.6-.72s-.75.85-.42,1.28S54,10.06,55.05,8.66Z"></path>
      <path class="cls-15" d="M54.42,9.64a14.56,14.56,0,0,0-1.79-.78C52.39,8.85,52.91,10.25,54.42,9.64Z"></path>
      <path class="cls-16" d="M52.57,9s0-1.42,1.17-1.66C53.74,7.3,53.62,8.86,52.57,9Z"></path>
      <path class="cls-14" d="M14.91,28.83a1.44,1.44,0,0,0,.68-1.89S14.81,27.14,14.91,28.83Z"></path>
      <path class="cls-27" d="M13.56,28.33c0,.14,1.42.55,1.75-.13s.25-1.1-.25-1.32S13.79,26.61,13.56,28.33Z"></path>
      <path class="cls-15" d="M13.64,27.17A15.52,15.52,0,0,0,15.59,27C15.81,26.9,14.69,25.91,13.64,27.17Z"></path>
      <path class="cls-16" d="M15.59,26.88s.67,1.26-.24,2C15.35,28.9,14.72,27.47,15.59,26.88Z"></path>
      <path class="cls-14" d="M19.22,29.48a1.43,1.43,0,0,0-1.5-1.34S17.62,28.94,19.22,29.48Z"></path>
      <path class="cls-28" d="M18.25,30.54c.12.07,1.05-1.11.54-1.67s-.93-.64-1.32-.26S16.74,29.68,18.25,30.54Z"></path>
      <path class="cls-15" d="M17.21,30a15.52,15.52,0,0,0,.58-1.86C17.77,27.93,16.43,28.59,17.21,30Z"></path>
      <path class="cls-16" d="M17.67,28.12s1.42-.14,1.79,1C19.46,29.1,17.89,29.14,17.67,28.12Z"></path>
      <path class="cls-14" d="M51.06,4.6a1.44,1.44,0,0,0,0,2S51.69,6.17,51.06,4.6Z"></path>
      <path class="cls-29" d="M52.5,4.65c0-.14-1.52-.08-1.61.67s.11,1.12.65,1.18S52.83,6.35,52.5,4.65Z"></path>
      <path class="cls-15" d="M52.79,5.77A14.13,14.13,0,0,0,51,6.54C50.83,6.71,52.2,7.3,52.79,5.77Z"></path>
      <path class="cls-16" d="M51,6.66s-1-1-.41-2C50.62,4.67,51.67,5.83,51,6.66Z"></path>
      <path class="cls-14" d="M12.86,26.13a1.44,1.44,0,0,0,.94-1.78S13,24.44,12.86,26.13Z"></path>
      <path class="cls-30" d="M11.59,25.44c0,.13,1.33.75,1.75.12s.4-1-.06-1.35S12.06,23.77,11.59,25.44Z"></path>
      <path class="cls-15" d="M11.84,24.31a15.25,15.25,0,0,0,1.95.11C14,24.34,13.05,23.21,11.84,24.31Z"></path>
      <path class="cls-16" d="M13.81,24.3s.48,1.34-.53,2C13.28,26.26,12.86,24.75,13.81,24.3Z"></path>
      <path class="cls-31" d="M14.56,28.86c-.43-.49-.36-1.17.23-1.18.4,0,1.42-.06,1.64.4s-.12.78-.22,1a1,1,0,0,1-.74.59C15.16,29.7,15,29.35,14.56,28.86Z"></path>
      <path class="cls-32" d="M15.27,30.61s-.93.87-.43,1.48a1.27,1.27,0,0,0,1.42.3c.18-.06,1.07-.32.92-.82a2.47,2.47,0,0,0-.46-.83s-.64-.65-1.17-.31Z"></path>
      <path class="cls-33" d="M16.61,29.75s1.05-.89,1.3-.17a1.66,1.66,0,0,1-.21,1.87c-.37.32-.48.1-1.51-.83S16.61,29.75,16.61,29.75Z"></path>
      <path class="cls-34" d="M15.38,29.51s-.84-.92-1.29-.56-.84.58-.33,1.88,1.82-.58,1.85-.8S15.38,29.51,15.38,29.51Z"></path>
      <path class="cls-35" d="M16.12,29.69s-.14-2.07.8-1.68,1,1.08.62,1.31A2.05,2.05,0,0,1,16.12,29.69Z"></path>
      <circle class="cls-25" cx="15.86" cy="29.94" r="0.71"></circle>
    </g>
  </g>
</svg>
