<?xml version="1.0" encoding="UTF-8"?>
<svg xmlns="http://www.w3.org/2000/svg" xmlns:xlink="http://www.w3.org/1999/xlink" viewBox="0 0 59.84 84.86">
  <defs>
    <style>.cls-1{fill:#a29274;}.cls-2{fill:#e3e0c9;}.cls-3{fill:#fcedce;}.cls-4{fill:#bda885;}.cls-25,.cls-5{fill:#d0c5a6;}.cls-6{fill:#8f8267;}.cls-7{fill:#ab967a;opacity:0.25;}.cls-8{fill:#9b8d71;}.cls-9{fill:#7c705b;}.cls-10{fill:#e7e6e3;}.cls-11{fill:#817870;}.cls-12{fill:#ecec8a;}.cls-13{fill:#676c6e;}.cls-14,.cls-24{fill:none;stroke:#7fb843;}.cls-14,.cls-24,.cls-25{stroke-miterlimit:10;}.cls-14{stroke-width:0.33px;}.cls-15{fill:url(#Безымянный_градиент_30);}.cls-16{fill:#cbc255;}.cls-17{fill:#cacac9;}.cls-18{fill:url(#Безымянный_градиент_30-2);}.cls-19{fill:#92bf3a;}.cls-20{fill:#7fb843;}.cls-21{fill:#486f3a;}.cls-22{fill:#6d9633;}.cls-23{fill:#bcd746;}.cls-24{stroke-width:0.16px;}.cls-25{stroke:#d0c5a6;stroke-width:0.2px;}.cls-26{fill:#609034;}.cls-27{fill:#b3d549;}.cls-28{fill:url(#Безымянный_градиент_11);}.cls-29{fill:url(#Безымянный_градиент_16);}.cls-30{fill:url(#Безымянный_градиент_16-2);}.cls-31{fill:url(#Безымянный_градиент_16-3);}.cls-32{fill:url(#Безымянный_градиент_16-4);}.cls-33{fill:#f4ec76;}.cls-34{fill:url(#Безымянный_градиент_16-5);}.cls-35{fill:url(#Безымянный_градиент_16-6);}.cls-36{fill:url(#Безымянный_градиент_16-7);}.cls-37{fill:url(#Безымянный_градиент_16-8);}.cls-38{fill:url(#Безымянный_градиент_16-9);}</style>
    <radialGradient id="Безымянный_градиент_30" cx="12.51" cy="32.2" r="3.78" gradientUnits="userSpaceOnUse">
      <stop offset="0" stop-color="#ecec8a"></stop>
      <stop offset="1" stop-color="#7fb843"></stop>
    </radialGradient>
    <radialGradient id="Безымянный_градиент_30-2" cx="15.63" cy="35.21" r="3.73" xlink:href="#Безымянный_градиент_30"></radialGradient>
    <radialGradient id="Безымянный_градиент_11" cx="50.13" cy="7.83" r="2.99" gradientUnits="userSpaceOnUse">
      <stop offset="0" stop-color="#fff"></stop>
      <stop offset="1" stop-color="#cacac9"></stop>
    </radialGradient>
    <radialGradient id="Безымянный_градиент_16" cx="53.23" cy="9.17" r="3.82" gradientUnits="userSpaceOnUse">
      <stop offset="0" stop-color="#fff"></stop>
      <stop offset="1" stop-color="#cacac9"></stop>
    </radialGradient>
    <radialGradient id="Безымянный_градиент_16-2" cx="53.03" cy="7.19" r="3.52" xlink:href="#Безымянный_градиент_16"></radialGradient>
    <radialGradient id="Безымянный_градиент_16-3" cx="50.92" cy="9.59" r="4.37" xlink:href="#Безымянный_градиент_16"></radialGradient>
    <radialGradient id="Безымянный_градиент_16-4" cx="-141.78" cy="-162.45" r="3.19" gradientTransform="translate(232.59 123.56) rotate(-16.09)" xlink:href="#Безымянный_градиент_16"></radialGradient>
    <radialGradient id="Безымянный_градиент_16-5" cx="-148.82" cy="-1180.58" r="2.94" gradientTransform="translate(1041.51 -572.84) rotate(-113.03)" xlink:href="#Безымянный_градиент_16"></radialGradient>
    <radialGradient id="Безымянный_градиент_16-6" cx="-149.83" cy="-1182.98" r="3.86" gradientTransform="translate(1041.51 -572.84) rotate(-113.03)" xlink:href="#Безымянный_градиент_16"></radialGradient>
    <radialGradient id="Безымянный_градиент_16-7" cx="-151.25" cy="-1182.94" r="3.08" gradientTransform="translate(1041.51 -572.84) rotate(-113.03)" xlink:href="#Безымянный_градиент_16"></radialGradient>
    <radialGradient id="Безымянный_градиент_16-8" cx="-148.66" cy="-1181.83" r="3.33" gradientTransform="translate(1041.51 -572.84) rotate(-113.03)" xlink:href="#Безымянный_градиент_16"></radialGradient>
    <radialGradient id="Безымянный_градиент_16-9" cx="-150.92" cy="-1181.23" r="3.37" gradientTransform="translate(1041.51 -572.84) rotate(-113.03)" xlink:href="#Безымянный_градиент_16"></radialGradient>
  </defs>
  <g id="Слой_2" data-name="Слой 2">
    <g id="Слой_1-2" data-name="Слой 1">
      <polygon class="cls-1" points="24.53 53.72 48.16 43.66 44.62 70.87 24.53 84.86 24.53 53.72"></polygon>
      <polygon class="cls-2" points="24.53 36.86 48.16 43.66 24.53 53.72 0.83 43.66 24.53 36.86"></polygon>
      <polygon class="cls-3" points="24.53 36.86 0.83 43.66 1.25 43.84 47.95 43.6 24.53 36.86"></polygon>
      <polygon class="cls-4" points="4.38 70.87 0.83 43.66 24.53 53.72 24.53 84.86 4.38 70.87"></polygon>
      <path class="cls-5" d="M15.73,44a10.81,10.81,0,0,1,2.42-2.2,14.05,14.05,0,0,1,3-1.44,16,16,0,0,1,3.22-.67c.54-.07,1.09-.06,1.64-.09s1.09,0,1.63.1c-1.09.09-2.16.17-3.22.36a18.44,18.44,0,0,0-3.12.76,15.57,15.57,0,0,0-2.92,1.3A16.52,16.52,0,0,0,15.73,44Z"></path>
      <polygon class="cls-6" points="24.53 53.72 48.16 43.66 44.62 70.87 24.53 84.86 24.53 53.72"></polygon>
      <polygon class="cls-7" points="4.38 70.87 0.83 43.66 24.53 53.72 24.53 84.86 4.38 70.87"></polygon>
      <polygon class="cls-8" points="24.53 84.86 4.38 70.87 24.63 63.22 44.62 70.87 24.53 84.86"></polygon>
      <path class="cls-9" d="M8.66,58.91A7.31,7.31,0,0,1,8.05,55,6.62,6.62,0,0,1,9.8,51.31a9.43,9.43,0,0,1,3.48-2.07c.65-.17,1.3-.35,2-.49s1.33-.16,2-.22c-.65.17-1.3.3-1.94.45s-1.26.4-1.88.61a9.67,9.67,0,0,0-3.25,2.06A6.36,6.36,0,0,0,8.42,55c-.06.32-.08.64-.12,1s0,.66,0,1A7.6,7.6,0,0,0,8.66,58.91Z"></path>
      <path class="cls-9" d="M30.68,58.53A4.77,4.77,0,0,0,32,59.1c.46.16.93.3,1.4.42.93.25,1.87.5,2.83.67,1.9.41,3.83.63,5.78.87a21.91,21.91,0,0,1-8.73-1.19A7.89,7.89,0,0,1,30.68,58.53Z"></path>
      <path class="cls-9" d="M18,57.11a15.13,15.13,0,0,1-.58,2.67,22.16,22.16,0,0,1-1,2.56A16.39,16.39,0,0,1,15,64.68a9.14,9.14,0,0,1-2,1.91,17.41,17.41,0,0,0,3-4.46c.4-.8.73-1.64,1.07-2.47S17.69,58,18,57.11Z"></path>
      <path class="cls-9" d="M25.32,78.77c1-.48,2-.84,2.94-1.27s1.94-.84,2.87-1.34A17,17,0,0,0,33.8,74.5a7.6,7.6,0,0,0,2.11-2.33A6.24,6.24,0,0,1,34,74.78a14.74,14.74,0,0,1-2.69,1.81,26.56,26.56,0,0,1-3,1.26C27.38,78.21,26.35,78.48,25.32,78.77Z"></path>
      <path class="cls-9" d="M14.24,75.78a5,5,0,0,1-2.64-2.46,2.19,2.19,0,0,1,.16-1.9A4.46,4.46,0,0,1,13,70a13.12,13.12,0,0,1,3.27-1.62,26.92,26.92,0,0,1,3.5-.92c-1.13.42-2.26.81-3.36,1.27a13.91,13.91,0,0,0-3.12,1.66,4.24,4.24,0,0,0-1.18,1.21A2,2,0,0,0,12,73.2a3.48,3.48,0,0,0,.92,1.44A7.54,7.54,0,0,0,14.24,75.78Z"></path>
      <path class="cls-9" d="M35.91,58c1.17-1.62,2.38-3.2,3.44-4.88a21.79,21.79,0,0,0,1.48-2.56,8.12,8.12,0,0,0,.93-2.8,6.29,6.29,0,0,1-.59,2.95,16.64,16.64,0,0,1-1.42,2.67A26.66,26.66,0,0,1,38,55.79,22.32,22.32,0,0,1,35.91,58Z"></path>
      <path class="cls-10" d="M24.52,47.91A13.27,13.27,0,0,1,22.07,52,8.89,8.89,0,0,0,20.45,56c-.43,3.32.5,6.7-.4,10a.08.08,0,0,0,.16,0c.88-3.18,0-6.46.37-9.69a9.17,9.17,0,0,1,1.86-4.61A11.69,11.69,0,0,0,24.67,48c0-.1-.13-.15-.15-.05Z"></path>
      <path class="cls-10" d="M24,49.37a7.25,7.25,0,0,1-4.09,7.1,5.94,5.94,0,0,0-3.5,4.79,13.93,13.93,0,0,0-.17,3.53,5.58,5.58,0,0,0,1.3,2.67c1.94,2.53,2.33,5.78,0,8.28-.14.16.09.39.23.23a6.44,6.44,0,0,0,1.56-5.81,7.24,7.24,0,0,0-1.47-2.78,5.39,5.39,0,0,1-1.31-2.66,11.35,11.35,0,0,1,0-2.33c.13-1.68.44-3.42,1.78-4.58,1-.87,2.33-1.27,3.35-2.13a7.41,7.41,0,0,0,2.57-6.31c0-.21-.34-.21-.32,0Z"></path>
      <path class="cls-10" d="M24.07,49.14c.11,2.39.22,5-1,7.14-.88,1.6-2.47,2.74-2.85,4.6a8.68,8.68,0,0,0,.89,5c1.15,2.73,2,5.2,1.52,8.21,0,.2.28.29.31.09a12.26,12.26,0,0,0-.65-6.35c-.87-2.28-2.42-4.73-1.66-7.25.6-2,2.53-3.28,3.22-5.28a16.6,16.6,0,0,0,.51-6.16c0-.21-.34-.21-.33,0Z"></path>
      <path class="cls-10" d="M23.93,49.25c-1.57,1.64-3.38,3.69-2.79,6.16.15.6.47,1.13.6,1.73A7.83,7.83,0,0,1,21.56,60a7.16,7.16,0,0,0,.33,3.31,3.45,3.45,0,0,1-.05,2.71c-.27.51-.65,1-1,1.43a3.18,3.18,0,0,0-.66,2.35c.47,2.56,3.69,3.29,4.33,5.77a.16.16,0,0,0,.31-.09c-.57-2.19-2.89-2.94-3.95-4.79-1.41-2.47,1.82-3.89,1.57-6.3-.12-1.13-.69-2.12-.7-3.27s.49-2.42.35-3.66c-.16-1.43-1-2.46-.65-4a9.18,9.18,0,0,1,2.68-4c.14-.16-.09-.39-.23-.23Z"></path>
      <path class="cls-10" d="M24.29,49.15a7.59,7.59,0,0,0-1.72,2.37,6.63,6.63,0,0,0-.34,3c.23,2.35,1.25,4.58,1,7,0,.21.3.21.32,0,.27-2.12-.5-4.11-.84-6.17a7.43,7.43,0,0,1,0-3.25,6.72,6.72,0,0,1,1.8-2.72c.14-.15-.09-.38-.23-.23Z"></path>
      <path class="cls-10" d="M24.51,49a24.32,24.32,0,0,1-.4,9.27c-.56,2.31-1.33,4.41-.59,6.77a24.29,24.29,0,0,0,3.17,5.67,16.68,16.68,0,0,1,2.77,7.92c0,.2.34.21.33,0a15.85,15.85,0,0,0-2-6.77c-1.24-2.19-3-4.16-3.81-6.56-1-2.89.25-5.49.76-8.33a25.06,25.06,0,0,0,.11-8.06c0-.21-.34-.12-.32.09Z"></path>
      <path class="cls-10" d="M25.35,50c-.18,2.05.74,3.81,1.71,5.55A12.47,12.47,0,0,1,29,63.35c-.31,2.8-1.35,5.43-2,8.15s-.45,5.37-.68,8.1c0,.21.31.21.33,0,.25-2.95.08-5.78.84-8.69a53.4,53.4,0,0,0,1.84-7.56A11.15,11.15,0,0,0,28.18,57c-1.12-2.22-2.73-4.33-2.5-6.94,0-.21-.31-.21-.33,0Z"></path>
      <path class="cls-10" d="M25.88,49.39c.35,1.82,1.69,3.29,2.22,5.08a19.61,19.61,0,0,1,.58,6.06c-.09,2.83-.89,6.53,1.5,8.68.16.14.39-.09.24-.23-2.59-2.32-1.37-6.76-1.4-9.79a17.3,17.3,0,0,0-.66-5c-.52-1.72-1.82-3.17-2.16-4.93,0-.2-.36-.12-.32.09Z"></path>
      <path class="cls-10" d="M27.11,51.8A8.72,8.72,0,0,1,28,56.36a13.22,13.22,0,0,1-2.67,5.46c-.12.17.16.34.28.17,1.22-1.75,2.48-3.59,2.74-5.76a9.27,9.27,0,0,0-.93-4.59c-.08-.19-.36,0-.28.16Z"></path>
      <path class="cls-10" d="M27.54,58a6.26,6.26,0,0,1-.12,3.07.16.16,0,0,0,.31.09,6.71,6.71,0,0,0,.13-3.24c-.05-.21-.36-.12-.32.08Z"></path>
      <path class="cls-10" d="M25.7,49.66c1.23,1.87,2.49,3.73,3.69,5.62a12.06,12.06,0,0,1,1.77,6.34c.08,2.12-.05,4.21-.11,6.32a5.49,5.49,0,0,0,1.08,4c.14.15.37-.08.23-.23-1.37-1.55-1-3.75-.89-5.64a40.33,40.33,0,0,0-.13-6.5A10.54,10.54,0,0,0,29.57,55c-1.18-1.83-2.39-3.65-3.59-5.47-.11-.17-.4,0-.28.17Z"></path>
      <path class="cls-10" d="M25.89,50a18.07,18.07,0,0,1,4.52,5.29,17.69,17.69,0,0,1,1.41,6.55c.26,3.78.17,7.8,2.39,11.07.12.17.4,0,.28-.17C32,69,32.48,64.36,32,60.11a14.68,14.68,0,0,0-1.45-5.29,19.42,19.42,0,0,0-4.42-5.06c-.16-.14-.39.09-.23.24Z"></path>
      <path class="cls-10" d="M26.32,49.25a6.81,6.81,0,0,1,2.82,3.25,12.54,12.54,0,0,0,1.09,2.69,26.59,26.59,0,0,0,3.95,4.13A8.94,8.94,0,0,1,36,61.78a7.88,7.88,0,0,1,.37,4.33c-.26,2.2-.68,4.54.73,6.45.12.17.4,0,.28-.16-1.81-2.46-.5-5.46-.54-8.2a7.31,7.31,0,0,0-2.46-5.11c-1.49-1.5-3.32-2.78-4.27-4.71-.53-1.09-.64-2.32-1.34-3.32A9.31,9.31,0,0,0,26.48,49c-.17-.12-.33.16-.16.29Z"></path>
      <path class="cls-10" d="M25,49.14l1.78,3.41a8.4,8.4,0,0,0,1.8,2.57,11.08,11.08,0,0,0,4.9,2c2.15.5,4.28,1.12,5.55,3.09,1.47,2.28,1.34,5.09,1.06,7.67,0,.21.3.21.32,0a13.05,13.05,0,0,0-.62-7,6.69,6.69,0,0,0-4.19-3.59c-1.94-.64-4.1-.77-5.9-1.8a6.58,6.58,0,0,1-2.49-2.83c-.65-1.22-1.29-2.46-1.93-3.69-.1-.19-.38,0-.28.16Z"></path>
      <path class="cls-10" d="M25.9,49.43c.72,1.17,2.2,1.56,2.91,2.74.43.71.64,1.57,1,2.3a13.36,13.36,0,0,0,1.35,2.12,14,14,0,0,0,1.6,1.75,5.48,5.48,0,0,1,.88.92,3.6,3.6,0,0,1,.47,1.9,19.4,19.4,0,0,1-.64,6.12.16.16,0,0,0,.31.09,19.77,19.77,0,0,0,.68-5.88,4.58,4.58,0,0,0-.54-2.42,14.71,14.71,0,0,0-1.66-1.69,16.86,16.86,0,0,1-3-5c-.66-1.45-2.3-1.81-3.1-3.12a.16.16,0,0,0-.28.17Z"></path>
      <path class="cls-10" d="M33.93,59.49a6.53,6.53,0,0,1,.9,1.19,3.21,3.21,0,0,1,.39,1.52c.06,1.08.1,2.16.14,3.25,0,.21.34.21.33,0,0-1.2,0-2.41-.16-3.6a4.69,4.69,0,0,0-1.37-2.6c-.13-.15-.36.08-.23.24Z"></path>
      <polygon class="cls-3" points="1.25 43.84 24.53 53.72 48.16 43.66 47.95 43.6 1.25 43.84"></polygon>
      <ellipse class="cls-1" cx="25.28" cy="44.13" rx="5.46" ry="2.13"></ellipse>
      <ellipse class="cls-11" cx="25.42" cy="44.85" rx="4.5" ry="1.76"></ellipse>
      <path class="cls-12" d="M17.2,32.32a.76.76,0,0,0-.54.07.73.73,0,0,0,0,1.25,1.26,1.26,0,0,0,1.22.24,1.41,1.41,0,0,0,.45-1.49.48.48,0,0,0-.36-.3,1,1,0,0,0-.42,0A.61.61,0,0,0,17.2,32.32Z"></path>
      <ellipse class="cls-13" cx="17.55" cy="33.22" rx="0.03" ry="0.08" transform="translate(-13.55 12.15) rotate(-28.04)"></ellipse>
      <ellipse class="cls-13" cx="16.69" cy="33.39" rx="0.03" ry="0.08" transform="translate(-18.29 20.38) rotate(-43.04)"></ellipse>
      <ellipse class="cls-13" cx="17.13" cy="33.35" rx="0.03" ry="0.08" transform="translate(-18.15 20.66) rotate(-43.04)"></ellipse>
      <ellipse class="cls-13" cx="17.9" cy="33.04" rx="0.03" ry="0.08" transform="translate(-10.96 8.98) rotate(-21.73)"></ellipse>
      <ellipse class="cls-13" cx="18.2" cy="32.7" rx="0.03" ry="0.08" transform="translate(-9.48 7.51) rotate(-18.59)"></ellipse>
      <ellipse class="cls-13" cx="17.11" cy="33.59" rx="0.03" ry="0.08" transform="translate(-20.19 28.15) rotate(-54.71)"></ellipse>
      <ellipse class="cls-13" cx="17.53" cy="33.58" rx="0.03" ry="0.08" transform="translate(-18.2 21) rotate(-43.04)"></ellipse>
      <ellipse class="cls-13" cx="17.81" cy="33.48" rx="0.03" ry="0.08" transform="translate(-9.75 7.43) rotate(-18.59)"></ellipse>
      <ellipse class="cls-13" cx="18.13" cy="33.2" rx="0.03" ry="0.08" transform="translate(-9.64 7.51) rotate(-18.59)"></ellipse>
      <path class="cls-14" d="M9.08,18.69c1.32.57,3.2,1.12,4.41,1.65a11.61,11.61,0,0,1,4.66,4.05,35,35,0,0,1,3,5.5L22,31.75c1,2.06,1.9,4.11,2.8,6.19"></path>
      <path class="cls-15" d="M13.74,31.93s.26.94-.15,1.29-.52.54-1.64.18-.77-1.92-.35-2.24a1.2,1.2,0,0,1,1.58-.05c.66.51.5.48.5.48Z"></path>
      <ellipse class="cls-16" cx="12.18" cy="32.08" rx="0.09" ry="0.03" transform="translate(-16.38 13.06) rotate(-35.56)"></ellipse>
      <ellipse class="cls-16" cx="12.66" cy="31.8" rx="0.09" ry="0.03" transform="translate(-16.13 13.29) rotate(-35.56)"></ellipse>
      <ellipse class="cls-16" cx="11.95" cy="31.69" rx="0.09" ry="0.03" transform="translate(-16.2 12.86) rotate(-35.56)"></ellipse>
      <ellipse class="cls-16" cx="12.39" cy="31.38" rx="0.09" ry="0.03" transform="matrix(0.81, -0.58, 0.58, 0.81, -15.94, 13.06)"></ellipse>
      <ellipse class="cls-16" cx="11.89" cy="32.05" rx="0.09" ry="0.03" transform="translate(-16.42 12.89) rotate(-35.56)"></ellipse>
      <ellipse class="cls-16" cx="12.28" cy="31.73" rx="0.09" ry="0.03" transform="translate(-16.16 13.06) rotate(-35.56)"></ellipse>
      <ellipse class="cls-16" cx="12.19" cy="32.43" rx="0.09" ry="0.03" transform="matrix(0.81, -0.58, 0.58, 0.81, -16.59, 13.14)"></ellipse>
      <ellipse class="cls-16" cx="12.58" cy="32.15" rx="0.09" ry="0.03" transform="translate(-16.35 13.31) rotate(-35.56)"></ellipse>
      <ellipse class="cls-16" cx="12.51" cy="32.51" rx="0.09" ry="0.03" transform="matrix(0.81, -0.58, 0.58, 0.81, -16.57, 13.34)"></ellipse>
      <ellipse class="cls-16" cx="13" cy="32.24" rx="0.09" ry="0.03" transform="translate(-16.32 13.57) rotate(-35.56)"></ellipse>
      <ellipse class="cls-16" cx="12.39" cy="32.8" rx="0.09" ry="0.03" transform="translate(-16.76 13.32) rotate(-35.56)"></ellipse>
      <ellipse class="cls-16" cx="12.74" cy="32.8" rx="0.09" ry="0.03" transform="translate(-16.7 13.53) rotate(-35.56)"></ellipse>
      <ellipse class="cls-16" cx="13.23" cy="32.63" rx="0.09" ry="0.03" transform="translate(-11.35 7.42) rotate(-22.21)"></ellipse>
      <ellipse class="cls-16" cx="12.68" cy="33.12" rx="0.09" ry="0.03" transform="translate(-5.1 2.43) rotate(-9.14)"></ellipse>
      <ellipse class="cls-16" cx="12.99" cy="32.96" rx="0.09" ry="0.03" transform="translate(-5.07 2.48) rotate(-9.14)"></ellipse>
      <ellipse class="cls-16" cx="13.47" cy="32.96" rx="0.09" ry="0.03" transform="translate(-5.06 2.56) rotate(-9.14)"></ellipse>
      <ellipse class="cls-16" cx="11.63" cy="31.65" rx="0.09" ry="0.03" transform="translate(-21.53 25.55) rotate(-59.39)"></ellipse>
      <ellipse class="cls-16" cx="12.02" cy="31.32" rx="0.09" ry="0.03" transform="translate(-20.62 23.59) rotate(-55.68)"></ellipse>
      <ellipse class="cls-16" cx="11.69" cy="31.25" rx="0.09" ry="0.03" transform="translate(-21.16 25.4) rotate(-59.39)"></ellipse>
      <ellipse class="cls-16" cx="12.19" cy="30.99" rx="0.09" ry="0.03" transform="translate(-12.8 8.97) rotate(-27.15)"></ellipse>
      <ellipse class="cls-16" cx="12.86" cy="33.3" rx="0.09" ry="0.03" transform="translate(-5.12 2.47) rotate(-9.14)"></ellipse>
      <ellipse class="cls-16" cx="13.19" cy="33.27" rx="0.09" ry="0.03" transform="translate(-5.12 2.52) rotate(-9.14)"></ellipse>
      <path class="cls-17" d="M12.23,31.17s.14,0,.23,0,.2,0,.2,0-.12-.08-.22-.08S12.23,31.12,12.23,31.17Z"></path>
      <path class="cls-18" d="M15.27,34.32a1.44,1.44,0,0,0-1-.12,1.41,1.41,0,0,0-.53,2.35,2.43,2.43,0,0,0,2.16,1,2.61,2.61,0,0,0,1.43-3.07,2.81,2.81,0,0,0-1.19-.45A1.27,1.27,0,0,0,15.27,34.32Z"></path>
      <ellipse class="cls-13" cx="15.5" cy="36.17" rx="0.06" ry="0.15" transform="translate(-8.29 4.82) rotate(-14)"></ellipse>
      <path class="cls-19" d="M15.35,34a2.15,2.15,0,0,0-2.44.14s1.21-.42,1.67-.11A2.25,2.25,0,0,0,13,35.5s1.52-1.23,1.9-1c0,0,.55.15.41,1.67,0,0,.4-.3.29-1.69,0,0,1.11.46,1.26,1.29a2.06,2.06,0,0,0-.83-1.58,1.36,1.36,0,0,1,1.33.8s-.05-1.42-1.29-1.29C16.09,33.69,15.64,34.19,15.35,34Z"></path>
      <ellipse class="cls-13" cx="13.82" cy="36.08" rx="0.06" ry="0.15" transform="translate(-15.76 11.23) rotate(-29)"></ellipse>
      <ellipse class="cls-13" cx="14.66" cy="36.21" rx="0.06" ry="0.15" transform="translate(-15.72 11.65) rotate(-29)"></ellipse>
      <ellipse class="cls-13" cx="16.23" cy="35.99" rx="0.06" ry="0.15" transform="translate(-4.68 2.5) rotate(-7.7)"></ellipse>
      <ellipse class="cls-13" cx="16.96" cy="35.49" rx="0.06" ry="0.15" transform="matrix(1, -0.08, 0.08, 1, -2.77, 1.46)"></ellipse>
      <ellipse class="cls-13" cx="14.51" cy="36.66" rx="0.06" ry="0.15" transform="translate(-20.39 18.31) rotate(-40.67)"></ellipse>
      <ellipse class="cls-13" cx="15.28" cy="36.83" rx="0.06" ry="0.15" transform="matrix(0.87, -0.48, 0.48, 0.87, -15.94, 12.03)"></ellipse>
      <ellipse class="cls-13" cx="15.87" cy="36.78" rx="0.06" ry="0.15" transform="translate(-2.87 1.38) rotate(-4.56)"></ellipse>
      <ellipse class="cls-13" cx="16.59" cy="36.39" rx="0.06" ry="0.15" transform="translate(-2.84 1.43) rotate(-4.56)"></ellipse>
      <path class="cls-20" d="M25.28,23.5a6.39,6.39,0,0,1-.76,0,5.38,5.38,0,0,1-3-1.07c-1.49-1.25-3.18-3.58-3-5.64l.37.49,1.36.34,4.58,3.27.67,2.05Z"></path>
      <path class="cls-21" d="M24.11,22.09c.16.46.25.94.41,1.4a2.38,2.38,0,0,1-.28-.68A6,6,0,0,1,24.11,22.09Z"></path>
      <path class="cls-21" d="M23.4,23.32a6.24,6.24,0,0,1-.76-2A9.94,9.94,0,0,0,23.4,23.32Z"></path>
      <path class="cls-21" d="M22,22.79q-.41-1.14-.75-2.28Q21.67,21.64,22,22.79Z"></path>
      <path class="cls-21" d="M20.72,21.66a3.73,3.73,0,0,1-.44-1.56,3.1,3.1,0,0,0,.17.79C20.53,21.15,20.62,21.41,20.72,21.66Z"></path>
      <path class="cls-21" d="M19.65,20.32a6.31,6.31,0,0,1-.19-1.43,4.31,4.31,0,0,0,.09.71Z"></path>
      <path class="cls-21" d="M25.28,23.5a5.34,5.34,0,0,0,0-5.38s-.08.45-.13.77-1.07-1.6-1.07-1.78a2.56,2.56,0,0,0-.16.87,6.3,6.3,0,0,1-1-1.5,4.58,4.58,0,0,0-.16.82c0,.11-1-.61-1.06-.94s-.09.47,0,.75-.87.07-1.26-.75c0,0-.27.66-.19.72a1.2,1.2,0,0,1-.73-.49c-.14-.32-.05.35,0,.52s-.87,0-1.09-.33.27.9.57,1.23.3,0,.3,0a6.7,6.7,0,0,1,.85,1.25l.08-.54a5,5,0,0,1,.81,1.2c.06.32.11-.49.11-.49A5.88,5.88,0,0,1,22,20.64s.13-.77.11-.75.92,1.12.92,1.4l.19-.51s.68,1.12.63,1.41.24-.61.21-.72S25.55,22.82,25.28,23.5Z"></path>
      <path class="cls-19" d="M25.64,24.4s-.08.33.5.59a6.75,6.75,0,0,0,2.79.32,3.3,3.3,0,0,0-.33-.45,5.57,5.57,0,0,0,2.1-.69,2.92,2.92,0,0,0-.51-.26s1.29-.67,1.57-.86l-.59-.26s.49-1,.76-1c0,0-.35-.38-.47-.32s.24-.78.32-.78-.41-.18-.41-.18a3,3,0,0,1,.35-.41c.06,0-.88-.31-1-.21s.1-.49.1-.49a2.84,2.84,0,0,0-1.22.41,3.42,3.42,0,0,1-.16-.72c0-.14-1.12.8-1.29,1.23a.6.6,0,0,1-.39-.61,2.59,2.59,0,0,0-.71,1.58L26.76,21a2.93,2.93,0,0,0-.2,1.08s-.27,0-.27-.2A7,7,0,0,0,25.64,24.4Z"></path>
      <path class="cls-21" d="M26.14,25A18.4,18.4,0,0,1,28,22.53a10.18,10.18,0,0,1,1.12-1.06,3.31,3.31,0,0,1,1.36-.69,3.64,3.64,0,0,0-1.33.74A9.91,9.91,0,0,0,28,22.58,24.68,24.68,0,0,0,26.14,25Z"></path>
      <path class="cls-21" d="M26.79,24a2.73,2.73,0,0,1-.21-1.19,2.64,2.64,0,0,0,.36,1.11Z"></path>
      <path class="cls-21" d="M29.8,24.28a9.24,9.24,0,0,1-3-.26l.05-.15A9.23,9.23,0,0,0,29.8,24.28Z"></path>
      <path class="cls-21" d="M27.71,22.82a3.35,3.35,0,0,1-.33-1.35,3.17,3.17,0,0,0,.48,1.28Z"></path>
      <path class="cls-21" d="M30.15,23.32a4.61,4.61,0,0,1-2.41-.46l.09-.14A4.54,4.54,0,0,0,30.15,23.32Z"></path>
      <path class="cls-21" d="M28.68,21.77A6.26,6.26,0,0,1,29,20.1a6.35,6.35,0,0,0-.17,1.68Z"></path>
      <path class="cls-21" d="M31.13,21.91a10,10,0,0,1-2.38-.05l0-.16A9.75,9.75,0,0,0,31.13,21.91Z"></path>
      <path class="cls-21" d="M25.46,25a3.67,3.67,0,0,0-.72-.88l.05.18a2.82,2.82,0,0,0-1.2-.55s.13.2.11.2a3.34,3.34,0,0,0-1.15-.2.78.78,0,0,1,.09.25,8.19,8.19,0,0,0-1.23,0,1.07,1.07,0,0,1,.06.36,2.7,2.7,0,0,0-.93.46s.27.15.27.23a2.18,2.18,0,0,0-.53.88l.45.14s0,.23-.1.28.61.45.82.5a.3.3,0,0,1-.26.12c-.19,0,.52.31,1.29.33,0,0,0,.24-.14.24a4.69,4.69,0,0,0,1.58.19,1,1,0,0,1,0,.22,2.64,2.64,0,0,0,1.52-1.27C25.69,25.89,25.77,25.71,25.46,25Z"></path>
      <path class="cls-22" d="M32.15,15.5s-.61-2.18-1-2.39a.42.42,0,0,1-.33.36,4.48,4.48,0,0,0-2-2.05l.13.6a4.45,4.45,0,0,0-3.23-1.82s.52.82.48,1c0,0-2.15-.91-3-.29,0,0,.62.76.57.94a8.38,8.38,0,0,0-2.13.15c-.11.18.65.67.62.87s-.77.43-1.22.77l.6.33s-.52.32-.6.26.81,1.05,1.22,1c0,0-.16.53-.44.6s1,.47,2.32.48a1.31,1.31,0,0,1-.71.68c-.59.3,2.39.24,2.63.25s-.17.68-.39.68a5.87,5.87,0,0,0,3.12-.55.36.36,0,0,1-.22.46,4.21,4.21,0,0,0,1.9-.48A4.59,4.59,0,0,0,32.15,15.5Z"></path>
      <path class="cls-21" d="M33.31,16.2c-.77-.44-1.55-.86-2.35-1.23a13.86,13.86,0,0,0-2.51-.81,20.86,20.86,0,0,0-2.61-.42,23.39,23.39,0,0,0-2.65-.08,14.79,14.79,0,0,1,2.66,0,15.47,15.47,0,0,1,2.63.4,14.17,14.17,0,0,1,2.52.87A22.85,22.85,0,0,1,33.31,16.2Z"></path>
      <path class="cls-21" d="M30.36,14.68a2.23,2.23,0,0,0-.62-1.89,2.32,2.32,0,0,1,.78,1.92Z"></path>
      <path class="cls-21" d="M28,16.78a5.47,5.47,0,0,0,1.28-1,13.48,13.48,0,0,0,1.1-1.17l.13.11c-.38.39-.76.77-1.17,1.12A5.47,5.47,0,0,1,28,16.78Z"></path>
      <path class="cls-21" d="M28.22,14a2.82,2.82,0,0,1-.52,1,5.38,5.38,0,0,1-.76.75,7.75,7.75,0,0,1-1.83,1.05,7.32,7.32,0,0,0,1.78-1.12,4.21,4.21,0,0,0,.71-.75,2.58,2.58,0,0,0,.45-.91Z"></path>
      <path class="cls-21" d="M27.17,11.42a3.71,3.71,0,0,1,1,2.6h-.17A3.62,3.62,0,0,0,27.17,11.42Z"></path>
      <path class="cls-21" d="M26.06,13.71a2.73,2.73,0,0,0-.38-1.21,2,2,0,0,0-1-.83,2.09,2.09,0,0,1,1.05.78,3.07,3.07,0,0,1,.48,1.25Z"></path>
      <path class="cls-21" d="M23.7,15.62a4.54,4.54,0,0,0,2.37-2l.14.09A4.65,4.65,0,0,1,23.7,15.62Z"></path>
      <path class="cls-21" d="M24.44,13.64a1.85,1.85,0,0,0-.74-1.05,1.9,1.9,0,0,1,.9,1Z"></path>
      <path class="cls-21" d="M23,15a3.14,3.14,0,0,0,1.43-1.43l.14.08a5.84,5.84,0,0,1-.68.81A2.16,2.16,0,0,1,23,15Z"></path>
      <path class="cls-22" d="M34,15.31s-1.61-4.66,1.68-6.37l.25.8S36.68,8,37.71,8v.69S39.07,7.59,39.89,8l-.38.49s2-.49,2.17-.26.11.4,0,.75.71,0,.71,0a7.54,7.54,0,0,1-.71,1.56c-.16.05.33,0,.71.06,0,0-.57,2-.94,2.16s.65.07.65.07a5,5,0,0,1-1.42,1.53s1.3.12,1.38.1S38.55,18.81,34,15.31Z"></path>
      <path class="cls-21" d="M33.24,16.15a26,26,0,0,1,2.47-2.67,10.56,10.56,0,0,1,3-2.08l0,0A4.09,4.09,0,0,1,39.5,10a8.22,8.22,0,0,1,1.18-1.1,8.77,8.77,0,0,0-1.16,1.12,4.17,4.17,0,0,0-.82,1.37h0a10.57,10.57,0,0,0-2.91,2.11,25.57,25.57,0,0,0-2.41,2.69Z"></path>
      <path class="cls-21" d="M36.48,12.72a6.6,6.6,0,0,1,.65-2.29,4.18,4.18,0,0,1,1.55-1.78h0a4.3,4.3,0,0,0-1.49,1.81,9.87,9.87,0,0,0-.7,2.26Z"></path>
      <path class="cls-21" d="M35.42,13.66a9,9,0,0,0,4.93-.39,7.26,7.26,0,0,1-2.43.62,11.28,11.28,0,0,1-2.53-.07Z"></path>
      <path class="cls-21" d="M36.92,8.94a4.49,4.49,0,0,0-1.15,2.26,10.87,10.87,0,0,0-.28,2.54h-.17a11,11,0,0,1,.37-2.56A4.55,4.55,0,0,1,36.92,8.94Z"></path>
      <path class="cls-21" d="M34.43,14.73a11.7,11.7,0,0,0,2.74.62A5.44,5.44,0,0,0,39.94,15a5.58,5.58,0,0,1-2.77.45,12.16,12.16,0,0,1-2.8-.54Z"></path>
      <path class="cls-21" d="M34.72,10.93a4.45,4.45,0,0,0-.36,1.91,16,16,0,0,0,.12,2l-.16,0a14.55,14.55,0,0,1,0-2A4.49,4.49,0,0,1,34.72,10.93Z"></path>
      <path class="cls-21" d="M37.55,12c.65-.1,1.31-.19,2-.27a9.83,9.83,0,0,0,1.94-.4h0a9.69,9.69,0,0,1-1.93.46,16.25,16.25,0,0,1-2,.21Z"></path>
      <path class="cls-19" d="M36.16,22.13s1.7,2.05,3.09-.19A20.44,20.44,0,0,0,41,18.88c0-.19-.38.18-.68.2s0-.19,0-.33a4.63,4.63,0,0,0,.87-2.93s-.75.34-.87.23.39-1.7-.19-2.7a2.14,2.14,0,0,1-1,.39S39,12.36,38.42,12a1.57,1.57,0,0,1-.54.46s.4.07-1.07-.61a2.54,2.54,0,0,1-.32.85s-.57-.38-.63-.59-.21.93-.19,1.14-.79-.16-.79-.16-.43,2.35.33,3.09a4.05,4.05,0,0,1-.89-.57c-.33-.32.21,1.58.4,1.88a3,3,0,0,1-.87-.08,4.81,4.81,0,0,0,1.31,2.46,1.32,1.32,0,0,1-.76,0S35.91,21.87,36.16,22.13Z"></path>
      <path class="cls-21" d="M37.33,13.41a26.47,26.47,0,0,1,.81,5,17.38,17.38,0,0,1-.37,5,19.28,19.28,0,0,0,.25-5A33.91,33.91,0,0,0,37.33,13.41Z"></path>
      <path class="cls-21" d="M38.19,20.73a1.83,1.83,0,0,0,.92-.26,4.75,4.75,0,0,0,.83-.58,4.41,4.41,0,0,1-.78.65,2,2,0,0,1-1,.36Z"></path>
      <path class="cls-21" d="M34.72,18.4a14.54,14.54,0,0,0,1.58,1.46,6.61,6.61,0,0,0,.89.6,1.86,1.86,0,0,0,1,.27l0,.17a1.94,1.94,0,0,1-1.06-.34,6.73,6.73,0,0,1-.88-.63A15.78,15.78,0,0,1,34.72,18.4Z"></path>
      <path class="cls-21" d="M38.16,18.45A4.37,4.37,0,0,0,40.35,17a4.36,4.36,0,0,1-2.14,1.61Z"></path>
      <path class="cls-21" d="M34.88,16.57a6,6,0,0,0,1.45,1.35,3.16,3.16,0,0,0,1.85.53v.16a3.22,3.22,0,0,1-1.9-.62A5.94,5.94,0,0,1,34.88,16.57Z"></path>
      <path class="cls-21" d="M38.05,16.51A2.81,2.81,0,0,0,39.3,15a2.83,2.83,0,0,1-1.18,1.64Z"></path>
      <path class="cls-21" d="M35.41,14.63A4.89,4.89,0,0,0,36.52,16a2,2,0,0,0,1.55.54l0,.17A2.19,2.19,0,0,1,36.46,16,4.9,4.9,0,0,1,35.41,14.63Z"></path>
      <path class="cls-21" d="M37.67,15a1.74,1.74,0,0,0,.69-1.21,1.86,1.86,0,0,1-.59,1.34Z"></path>
      <path class="cls-21" d="M36.16,13.47a3.65,3.65,0,0,0,.62,1,1.33,1.33,0,0,0,.94.49v.17a1.46,1.46,0,0,1-1-.61A3.63,3.63,0,0,1,36.16,13.47Z"></path>
      <path class="cls-19" d="M40.35,24.62s-2.82.23-3.82,2.06,0,4.44,0,4.44,0-.44.8-.68a4.65,4.65,0,0,0,1.73,2.63,4.06,4.06,0,0,1,0-1.11c.11-.18.88,1.5,1.9,1.62,0,0-.12-.77,0-.85s.74,1,1.72,1.25c0,0-.21-1,0-1.11s1.42.64,1.42.64a4,4,0,0,0,.17-.95c0-.21.77.44.81.63A10.65,10.65,0,0,0,44.84,31c-.17-.26.85-.22.9,0a3.53,3.53,0,0,0-.7-1.87c-.61-.55.51-.1.7,0s-.45-1.29-1.76-1.94.9-.24.9-.24A6.19,6.19,0,0,0,40.35,24.62Z"></path>
      <path class="cls-21" d="M38.84,25.81a3.66,3.66,0,0,1,2.23-.29,8.37,8.37,0,0,1,2.14.69,8.51,8.51,0,0,0-2.15-.61,3.44,3.44,0,0,0-2.14.36Z"></path>
      <path class="cls-22" d="M41.1,23.51s1.2-6.53,6.65-7.23c0,0-.25,1.32,0,1.32s1.4-1.47,1.8-1.4c0,0,0,.95.18,1.05s.88-.75,1.74-.88c0,0-.51.75,0,1.11a1.66,1.66,0,0,1,1.74-.74s-1,.87-.37,1.18,1.72-.07,2,.09S53,19.35,54.1,19.6s2-.24,2.63,0c0,0-1.73.81-1.13,1.07s1.87,0,2,.1-2.17,2,.7,1.52C58.3,22.3,49.48,31.34,41.1,23.51Z"></path>
      <path class="cls-21" d="M37,29.42a5.47,5.47,0,0,1,.47-2,3.37,3.37,0,0,1,1.36-1.58l.08.15a3.2,3.2,0,0,0-1.37,1.47A5.6,5.6,0,0,0,37,29.42Z"></path>
      <path class="cls-21" d="M40,27a2.81,2.81,0,0,1,2.34,0,9.45,9.45,0,0,1,2,1.17,9.59,9.59,0,0,0-2.08-1.09,2.67,2.67,0,0,0-2.23,0Z"></path>
      <path class="cls-21" d="M38.57,31.45A8.55,8.55,0,0,1,38.76,29,3.1,3.1,0,0,1,40,27l.08.14a3,3,0,0,0-1.28,1.92A8.08,8.08,0,0,0,38.57,31.45Z"></path>
      <path class="cls-21" d="M41.06,28.15a2.06,2.06,0,0,1,1.84.21,8,8,0,0,1,1.53,1.06,7.82,7.82,0,0,0-1.57-1,2,2,0,0,0-1.73-.13Z"></path>
      <path class="cls-21" d="M40.11,31.53a6.86,6.86,0,0,1,0-1.81,2.22,2.22,0,0,1,.9-1.57l.07.15a2.11,2.11,0,0,0-.89,1.44A6.7,6.7,0,0,0,40.11,31.53Z"></path>
      <path class="cls-21" d="M42.26,29.89a.85.85,0,0,1,.57.07,2.47,2.47,0,0,1,.47.29,6.19,6.19,0,0,1,.8.73,6,6,0,0,0-.84-.66,1.25,1.25,0,0,0-.95-.28Z"></path>
      <path class="cls-21" d="M41.86,32.09a5.53,5.53,0,0,1-.1-1.15,2.33,2.33,0,0,1,.09-.58.69.69,0,0,1,.41-.47l.05.15c-.33.1-.43.55-.47.91A4.84,4.84,0,0,0,41.86,32.09Z"></path>
      <path class="cls-21" d="M37.55,24.67a32,32,0,0,1,3.1,3A17.85,17.85,0,0,1,42,29.32a7.05,7.05,0,0,1,1,1.91,12.38,12.38,0,0,0-2.39-3.52C39.62,26.64,38.58,25.65,37.55,24.67Z"></path>
      <path class="cls-23" d="M48.92,11.34a5.58,5.58,0,0,0,1,.33c.07,0-.22.61-.34.68s.26.23.26.23-.81,1.08-1,1.12c0,0,.27.23.4.18a3.86,3.86,0,0,1-1.11.75c-.3,0,.27.18.27.18a4.17,4.17,0,0,1-1.79.43C45.77,15.18,48.92,11.34,48.92,11.34Z"></path>
      <path class="cls-19" d="M45.68,15.31a4.5,4.5,0,0,1,3.6-4.75,2.22,2.22,0,0,0,0,.66h.35a2.7,2.7,0,0,1-.51,1.24c-.27.21.37.13.37.13a4.28,4.28,0,0,1-1.21,1.29s.38.13.49.08a5.51,5.51,0,0,1-1.38.85c-.39.07.27.2.27.2S46.28,15.61,45.68,15.31Z"></path>
      <path class="cls-20" d="M45.56,14.72s.29.3,1.35-1.63l-.29.05s.89-1.47.65-1.91a1.68,1.68,0,0,1-.26.08,2.1,2.1,0,0,0-.7-1.75c-.15-.17-.14.17-.14.17a5.13,5.13,0,0,1-.67-.55l-.12.15A2.2,2.2,0,0,0,45,9s-.09.63.09.73.2-.25.2-.25a1.6,1.6,0,0,1,.12,1.21s.27.21.4.16,0,1-.19,1.21.41.51.41.51A5.18,5.18,0,0,1,45.56,14.72Z"></path>
      <path class="cls-21" d="M45.79,13.94c.1-.11.16-.08.24-.13l.21-.1a1.78,1.78,0,0,0,.35-.32,1.56,1.56,0,0,1-.33.35l-.21.13a1,1,0,0,0-.18.09Z"></path>
      <path class="cls-21" d="M45.78,12.69a1.48,1.48,0,0,0,.63-.36,3.37,3.37,0,0,0,.48-.58,3,3,0,0,1-.46.6,1.38,1.38,0,0,1-.63.42Z"></path>
      <path class="cls-21" d="M45.55,11.52a2.25,2.25,0,0,0,.85-1.36,2.31,2.31,0,0,1-.81,1.42Z"></path>
      <path class="cls-21" d="M45.21,10.36a3.91,3.91,0,0,0,.37-.77,3.58,3.58,0,0,1-.32.82Z"></path>
      <path class="cls-23" d="M45.56,14.72A4.74,4.74,0,0,1,45,9a1.87,1.87,0,0,0,.09.73s.2-.25.2-.25a1.37,1.37,0,0,1,.12,1.21.66.66,0,0,0,.44.14,2.19,2.19,0,0,1-.26,1.34,2.19,2.19,0,0,0,.44.4A4.53,4.53,0,0,1,45.56,14.72Z"></path>
      <path class="cls-20" d="M45.33,15.53s.45,0,0-2.3l-.21.25s-.26-1.85-.77-2.05a1.22,1.22,0,0,1-.17.24,2.27,2.27,0,0,0-1.79-1c-.24,0,0,.24,0,.24a4.86,4.86,0,0,1-.94,0v.21a2.56,2.56,0,0,0-.57,0s.36.59.57.55c.06,0,0-.34,0-.34a1.72,1.72,0,0,1,.94.92s.37,0,.45-.14.71.84.67,1.14.7.14.7.14A5.74,5.74,0,0,1,45.33,15.53Z"></path>
      <path class="cls-21" d="M45,14.71c0-.15.08-.17.11-.26a2.44,2.44,0,0,0,.1-.24,2.09,2.09,0,0,0,.08-.51,1.8,1.8,0,0,1,0,.52,1.83,1.83,0,0,1-.08.25l-.1.21Z"></path>
      <path class="cls-21" d="M44.11,13.68a1.48,1.48,0,0,0,.27-.74,3.14,3.14,0,0,0,0-.81,3.14,3.14,0,0,1,0,.81,1.5,1.5,0,0,1-.25.79Z"></path>
      <path class="cls-21" d="M43.11,12.86a2.46,2.46,0,0,0-.23-1.72,2.46,2.46,0,0,1,.3,1.74Z"></path>
      <path class="cls-21" d="M42,12.13a3.66,3.66,0,0,0-.22-.91,3.38,3.38,0,0,1,.18.44,3.59,3.59,0,0,1,.12.47Z"></path>
      <path class="cls-19" d="M45.33,15.53a5.13,5.13,0,0,1-4.45-4.39,2,2,0,0,0,.57.55c.07,0,0-.35,0-.35.17.09.53.12.94.93a.73.73,0,0,0,.46-.18,2.38,2.38,0,0,1,.71,1.3,2.39,2.39,0,0,0,.65,0A5.11,5.11,0,0,1,45.33,15.53Z"></path>
      <path class="cls-21" d="M43.45,22.64a9.12,9.12,0,0,1,2.08-3.93,8.94,8.94,0,0,0-1.92,4Z"></path>
      <path class="cls-21" d="M44.94,23.72a14.54,14.54,0,0,1,1.24-3.06,7.4,7.4,0,0,1,2.11-2.5,7.33,7.33,0,0,0-2,2.54,14.71,14.71,0,0,0-1.16,3.06Z"></path>
      <path class="cls-21" d="M46.69,23.29a10.7,10.7,0,0,1,1.53-2.67,9.51,9.51,0,0,1,2.25-2.09,10.1,10.1,0,0,0-3.62,4.81Z"></path>
      <path class="cls-21" d="M48.3,23.91a13.24,13.24,0,0,1,2-2.79,21.35,21.35,0,0,1,2.53-2.32,20.57,20.57,0,0,0-2.47,2.38A12.81,12.81,0,0,0,48.45,24Z"></path>
      <path class="cls-21" d="M50.66,24.06a25.79,25.79,0,0,0,3-3.2,25,25,0,0,1-2.87,3.31Z"></path>
      <path class="cls-21" d="M53.11,23.67a8.41,8.41,0,0,0,2.37-1.73,8.43,8.43,0,0,1-2.29,1.87Z"></path>
      <path class="cls-19" d="M41,23.74a7.21,7.21,0,0,1,4.08-1.54s-.36,1.09-.1,1.12a14.24,14.24,0,0,1,3.68-.66,2.83,2.83,0,0,0-.33,1c.06.24,2-.83,3.07-.75,0,0-.64,1-.14,1.05s1.38-.94,2.43-1c0,0-.6,1.1-.09,1.13s2-1,2.63-1.13c0,0-.54.55-.26.76s1.66-.86,1.66-.86S49.22,30.89,41,23.74Z"></path>
      <path class="cls-21" d="M41.7,24.29A7.47,7.47,0,0,0,43,23.75a10.69,10.69,0,0,0,1.18-.69,4.68,4.68,0,0,1-1.1.83A3.77,3.77,0,0,1,41.7,24.29Z"></path>
      <path class="cls-21" d="M43.87,25.52a9.87,9.87,0,0,0,1.79-.68,4.31,4.31,0,0,0,1.54-1.1A3.58,3.58,0,0,1,45.73,25,6.3,6.3,0,0,1,43.87,25.52Z"></path>
      <path class="cls-21" d="M45.54,26.3A18.46,18.46,0,0,0,48,25.37a6.79,6.79,0,0,0,1.13-.6,4.59,4.59,0,0,0,1-.83,5,5,0,0,1-2,1.58A11.52,11.52,0,0,1,45.54,26.3Z"></path>
      <path class="cls-21" d="M48.87,26.7a12.74,12.74,0,0,0,2.07-1.09,7.43,7.43,0,0,0,1.77-1.5A5.63,5.63,0,0,1,51,25.75,8.1,8.1,0,0,1,48.87,26.7Z"></path>
      <path class="cls-14" d="M45.56,14.72c0,4-3.77,6.38-6.06,7.77S35.19,24.62,33,26.21a31,31,0,0,0-5.39,5.07c-2.42,2.9-3,4.19-2.83,6.74"></path>
      <path class="cls-14" d="M41.25,23.55c-.76.27-1.6.3-2.36.58C31.83,26.7,25.46,33.19,24.81,38"></path>
      <path class="cls-14" d="M25.11,23.06a12.94,12.94,0,0,1,.36,8.53,18.48,18.48,0,0,1-.86,2.05c-.93,1.84.17,3.34.16,4.3"></path>
      <path class="cls-14" d="M12.83,27.9a3.06,3.06,0,0,1,3.42.59c.26.27.47.58.75.84a7,7,0,0,0,1.59,1,9.25,9.25,0,0,1,2.21,1.72,23.53,23.53,0,0,1,4,5.87"></path>
      <path class="cls-24" d="M13.51,31.66c1-.51,2.16-1.63,3.31-1.61a3.39,3.39,0,0,1,1.1.13c.76.25,2.35,1.29,1.38.61"></path>
      <path class="cls-14" d="M17.23,32.14A1.67,1.67,0,0,1,17,30.81a1,1,0,0,1,.76-.42,6.09,6.09,0,0,1,1.91.65"></path>
      <path class="cls-24" d="M16.51,30.05a2.74,2.74,0,0,0-1.4,1.07c-.86,1.48.11,2.63.13,3.06"></path>
      <path class="cls-14" d="M55.48,7.34a15.9,15.9,0,0,1-4.91,5.42,13.63,13.63,0,0,0-2.47,2C46,16.76,43.54,20,41,21.5"></path>
      <path class="cls-14" d="M47.54,15.31c1-.75,3.24-1.72,3.38.22"></path>
      <path class="cls-14" d="M49.86,13.23c.21-.13,1.06-.79,1.24-1,.73-.71.93-1.77.93-3.82"></path>
      <path class="cls-14" d="M24.81,38a6,6,0,0,1,4.93-4.8,14.86,14.86,0,0,1,6.26.26,39.58,39.58,0,0,1,6,2.23c4.87,2,10.25,3.75,15.37,2.43"></path>
      <path class="cls-19" d="M10.21,15.59a4.1,4.1,0,0,0,1.91,2.82,2.93,2.93,0,0,0,.76.22,2.74,2.74,0,0,0,2-.41,7.65,7.65,0,0,0,2.34-2.53l-.79.22a6.36,6.36,0,0,0,1.17-2.47s-.84.19-1.09.21c0,0,1-1.49.9-2.09a9.47,9.47,0,0,1-.95.3,2.54,2.54,0,0,0,.65-1.61,3.4,3.4,0,0,1-.76.36,6.63,6.63,0,0,0,0-1.5s-.46.25-.62.36a3.38,3.38,0,0,0-.08-.82,5.56,5.56,0,0,1-.74.79s-.38-.17-.35-.44c0,0-.65.36-.57.95a.53.53,0,0,1-.68-.48s-1,1.16-.82,2a.75.75,0,0,1-.73-.41,4.19,4.19,0,0,0-.22,2.18s-.71.13-.84-.25c0,0-.33,1.93.24,2.75A.65.65,0,0,1,10.21,15.59Z"></path>
      <path class="cls-21" d="M16.61,14.25a7.42,7.42,0,0,1-1.79,1.56,3.85,3.85,0,0,1-2.29.63l0-.16a3.76,3.76,0,0,0,2.23-.54A7.48,7.48,0,0,0,16.61,14.25Z"></path>
      <path class="cls-21" d="M12.67,19.89a6.26,6.26,0,0,1-.34-2.54,12,12,0,0,1,.58-2.51,18.36,18.36,0,0,1,1-2.38,17.7,17.7,0,0,1,1.24-2.26A39.14,39.14,0,0,0,13,14.88a11.29,11.29,0,0,0-.63,2.48A6.38,6.38,0,0,0,12.67,19.89Z"></path>
      <path class="cls-21" d="M16.06,16.37a4,4,0,0,1-1.65,1.23,3.85,3.85,0,0,1-1,.26,4,4,0,0,1-1-.07h0a4.36,4.36,0,0,0,2-.24,4.16,4.16,0,0,0,1.67-1.17Z"></path>
      <path class="cls-21" d="M11,16.37a6,6,0,0,0,1.33,1.42,4.15,4.15,0,0,1-.78-.6A2.52,2.52,0,0,1,11,16.37Z"></path>
      <path class="cls-21" d="M11.33,14.42a4.82,4.82,0,0,0,.4,1.12,1.3,1.3,0,0,0,.82.74l0,.16a1.4,1.4,0,0,1-.87-.86A4.49,4.49,0,0,1,11.33,14.42Z"></path>
      <path class="cls-21" d="M13.14,14.33A3.37,3.37,0,0,0,14.85,14a3.5,3.5,0,0,0,1.35-1.13,3.55,3.55,0,0,1-1.32,1.2,3.4,3.4,0,0,1-1.75.41Z"></path>
      <path class="cls-21" d="M11.93,12.48a4.42,4.42,0,0,0,.37,1.15,1.11,1.11,0,0,0,.84.7v.17a1.22,1.22,0,0,1-.9-.83A4.43,4.43,0,0,1,11.93,12.48Z"></path>
      <path class="cls-21" d="M13.54,13.26a5.52,5.52,0,0,1-.2-2.76,5.4,5.4,0,0,0,.35,2.7Z"></path>
      <path class="cls-21" d="M16.2,11.42a2.18,2.18,0,0,1-1,1.27,5.09,5.09,0,0,1-1.55.62l0-.16a4.88,4.88,0,0,0,1.53-.53A2.17,2.17,0,0,0,16.2,11.42Z"></path>
      <path class="cls-21" d="M14.4,11.49a1.92,1.92,0,0,0,1.5-1.18,2,2,0,0,1-1.49,1.3Z"></path>
      <path class="cls-21" d="M14.13,10.2a1.35,1.35,0,0,0,.31,1.3l-.07.1A1.38,1.38,0,0,1,14.13,10.2Z"></path>
      <path class="cls-19" d="M6,20.09c.07,0,3,.12,3.73-1.2a1.25,1.25,0,0,0,.16-.47,7.17,7.17,0,0,0,0-2.83s-.14.53-.34.63a5.28,5.28,0,0,0-1.1-3s-.14.7-.44.85a3.34,3.34,0,0,0-2-2.8s.26.91,0,1.05A5.93,5.93,0,0,0,3.39,10.5a3.8,3.8,0,0,1,.22,1.05,14,14,0,0,0-1.67-.81,5.87,5.87,0,0,1-.31,1.13s-1-.18-1.08-.16.27.61.31.77L0,12.59s1.22,2,1.92,2.34L.31,15.3h0a30.25,30.25,0,0,0,2.55,2s-1.41.45-1.6.47C1.22,17.79,2.26,19.81,6,20.09Z"></path>
      <path class="cls-21" d="M1.66,12.79a25,25,0,0,0,3.58,3.69,10.89,10.89,0,0,0,4.49,2.4v0a6.93,6.93,0,0,1-2.46-.81,12.49,12.49,0,0,1-2.11-1.51A23.25,23.25,0,0,1,1.65,12.8Z"></path>
      <path class="cls-21" d="M6.75,13.12a6.84,6.84,0,0,1,0,1.81,5,5,0,0,1-.47,1.76A2.7,2.7,0,0,1,5,17.93a3.17,3.17,0,0,1-1.8.14A3.74,3.74,0,0,0,5,17.83a2.56,2.56,0,0,0,1.21-1.22,4.67,4.67,0,0,0,.51-1.7A10.68,10.68,0,0,0,6.75,13.12Z"></path>
      <path class="cls-21" d="M8.61,14.81a6.5,6.5,0,0,1-.42,3A3,3,0,0,1,7.25,19a2.31,2.31,0,0,1-1.46.39,2.67,2.67,0,0,0,1.39-.48A2.74,2.74,0,0,0,8,17.74a5.47,5.47,0,0,0,.42-1.43A12.49,12.49,0,0,0,8.61,14.81Z"></path>
      <path class="cls-21" d="M5,12.89a5.74,5.74,0,0,1,.14,1.37,3.39,3.39,0,0,1-.29,1.36,1.39,1.39,0,0,1-1.12.78,2.34,2.34,0,0,1-.7,0c-.22-.06-.43-.16-.64-.23a3.39,3.39,0,0,0,1.33.17,1.25,1.25,0,0,0,1-.74A3.36,3.36,0,0,0,5,14.26,10.45,10.45,0,0,0,5,12.89Z"></path>
      <path class="cls-21" d="M3.19,14.54c-.08.05,0-.06,0-.09a.51.51,0,0,0,0-.17,2,2,0,0,0,0-.35,3.23,3.23,0,0,0-.07-.69A2.62,2.62,0,0,0,2.51,12a2.59,2.59,0,0,1,.74,1.2,2.85,2.85,0,0,1,.12.71,2.28,2.28,0,0,1,0,.37l0,.18c0,.07,0,.1-.13.23Z"></path>
      <path class="cls-21" d="M1,13.67a2.55,2.55,0,0,0,2.15.87l0,.17A2.67,2.67,0,0,1,1,13.67Z"></path>
      <path class="cls-19" d="M12.53,22.5s.15-3.12-3.92-2.2l.37.36a5.19,5.19,0,0,0-2.19.58,4,4,0,0,1,.76.22c0,.06-2.18,1.1-2.55,2.14l1.14.1a3.63,3.63,0,0,0-1.26,2.68s.49-.33.63-.27-.76,1.69-.21,2.41c0,0,.31-.57.62-.61,0,0-.07,1,.12,1.2,0,0,.22-.75.47-.8,0,0,.26.41.16.66,0,0,1.16-.72,1.37-1.45,0,0,.26.55.16.79A11.32,11.32,0,0,0,10,26.4s.27.43.19.61,1.7-1.1,1.49-2.06c0,0,.32.24.23.49A12.84,12.84,0,0,0,12.53,22.5Z"></path>
      <path class="cls-21" d="M5.76,27.17c.35-.77.74-1.54,1.17-2.28A10.79,10.79,0,0,1,8.4,22.8a8.14,8.14,0,0,1,1.94-1.67,7.25,7.25,0,0,1,2.33-1,7.54,7.54,0,0,0-2.29,1.09,8,8,0,0,0-1.9,1.68A22,22,0,0,0,5.76,27.17Z"></path>
      <path class="cls-21" d="M9.64,21.72a4.42,4.42,0,0,0-2-.42,4.61,4.61,0,0,1,2,.27Z"></path>
      <path class="cls-21" d="M10.49,25.64a18,18,0,0,0-.16-2.08,6.83,6.83,0,0,0-.21-1,1.43,1.43,0,0,0-.48-.82l.07-.15a1.5,1.5,0,0,1,.53.94,6.1,6.1,0,0,1,.17,1A18.17,18.17,0,0,1,10.49,25.64Z"></path>
      <path class="cls-21" d="M8,23.18A9.67,9.67,0,0,0,6.36,23,10,10,0,0,1,8,23Z"></path>
      <path class="cls-21" d="M8.49,27.43a16.93,16.93,0,0,0,.09-2.25,6.86,6.86,0,0,0-.13-1.11,1.29,1.29,0,0,0-.5-.89L8,23a1.4,1.4,0,0,1,.55,1,7.08,7.08,0,0,1,.09,1.13A16.79,16.79,0,0,1,8.49,27.43Z"></path>
      <path class="cls-21" d="M7.29,24.48a.82.82,0,0,0-.4.05,1.47,1.47,0,0,0-.4.19,3.59,3.59,0,0,0-.7.59,3.69,3.69,0,0,1,.65-.66,2,2,0,0,1,.4-.24,1,1,0,0,1,.49-.09Z"></path>
      <path class="cls-21" d="M7.61,26.21a3.78,3.78,0,0,0,0-.95,1,1,0,0,0-.35-.79l.08-.14a1.16,1.16,0,0,1,.36.93A4.32,4.32,0,0,1,7.61,26.21Z"></path>
      <path class="cls-14" d="M32.44,10.93a19.38,19.38,0,0,1,.83,7.27,12.29,12.29,0,0,1-2,6.2c-.38.56-6,8.28-6.48,10.6a5.73,5.73,0,0,0,0,2.94"></path>
      <path class="cls-22" d="M32.92,11.55s1.19-.23,2.25-2.49a1.37,1.37,0,0,1-.59,0,3.41,3.41,0,0,0,1-3.18,3.3,3.3,0,0,1-.51.46A9.54,9.54,0,0,0,35,4.14s-.37.61-.66.74c0,0-.07-2.23-.38-2.47,0,0-.53.81-.69.83,0,0,.14-1.57-.45-2a8.23,8.23,0,0,1-.63,1.11c-.16.14-.06-1.6-.71-2A4,4,0,0,1,31,1.2S30.67.08,30.45,0c0,0-.16.61-.35.73A2.78,2.78,0,0,0,29.21,0a4.69,4.69,0,0,1-.3,1A5.28,5.28,0,0,0,27.66.24a8.49,8.49,0,0,1,.16,1.13s.17.3-.28.24-.92-.1-.92-.1l.55,1.1a8.93,8.93,0,0,1-1-.08A6.83,6.83,0,0,0,27.07,4c.49.47-.14.31-.2.31a3.58,3.58,0,0,1-1.11-.41c-.06-.15.86,1.53.86,1.53a1.52,1.52,0,0,1-.86,0c-.32-.17.43.94.51,1.06l.64.9s.22.26.08.26-.92-.31-.85-.16S27.6,8.85,27.5,9s-1,0-.88.16a15.15,15.15,0,0,0,2,1.71,8.55,8.55,0,0,0,2.84.8C33,11.75,32.92,11.55,32.92,11.55Z"></path>
      <path class="cls-21" d="M28.84,2.35a25.45,25.45,0,0,1,2.21,4.47c.59,1.56,1.15,3.12,1.59,4.73-.57-1.56-1.1-3.14-1.74-4.67-.29-.78-.61-1.55-.95-2.3A23.14,23.14,0,0,0,28.84,2.35Z"></path>
      <path class="cls-21" d="M32.44,11a19.22,19.22,0,0,1-3.92-.81,19.34,19.34,0,0,0,3.92.65Z"></path>
      <path class="cls-21" d="M34.88,8a10.15,10.15,0,0,1-2.39,3l-.1-.12A10.24,10.24,0,0,0,34.88,8Z"></path>
      <path class="cls-21" d="M31.94,9.52a13.51,13.51,0,0,1-2.21-.3,6.63,6.63,0,0,1-2.07-.77,6.62,6.62,0,0,0,2.08.69,12.62,12.62,0,0,0,2.2.22Z"></path>
      <path class="cls-21" d="M34,7a3.94,3.94,0,0,1-.85,1.38A11.56,11.56,0,0,1,32,9.5l-.1-.12a13.72,13.72,0,0,0,1.19-1.1A3.9,3.9,0,0,0,34,7Z"></path>
      <path class="cls-21" d="M31.49,8.28a9.7,9.7,0,0,1-2.32-.56,5.67,5.67,0,0,1-2-1.23,5.71,5.71,0,0,0,2,1.16,10.09,10.09,0,0,0,2.3.46Z"></path>
      <path class="cls-21" d="M33.17,5.39a5.51,5.51,0,0,1-1.63,2.87l-.1-.13A5.45,5.45,0,0,0,33.17,5.39Z"></path>
      <path class="cls-21" d="M31,7a5.7,5.7,0,0,1-3.85-1.8A5.64,5.64,0,0,0,31,6.87Z"></path>
      <path class="cls-21" d="M32.64,3.51a3.58,3.58,0,0,1-.43,1.89A7.47,7.47,0,0,1,31.07,7L31,6.89a7.35,7.35,0,0,0,1.18-1.53A3.55,3.55,0,0,0,32.64,3.51Z"></path>
      <path class="cls-21" d="M30.35,5.46a7.68,7.68,0,0,1-1.66-.73,3.57,3.57,0,0,1-1.31-1.22,3.5,3.5,0,0,0,1.35,1.15,8.26,8.26,0,0,0,1.67.65Z"></path>
      <path class="cls-21" d="M31.13,2.08a8.39,8.39,0,0,1-.08,1.73,3.83,3.83,0,0,1-.62,1.63l-.12-.11A3.74,3.74,0,0,0,31,3.79,7.51,7.51,0,0,0,31.13,2.08Z"></path>
      <path class="cls-21" d="M29.66,3.88a3.64,3.64,0,0,1-2.08-1.53,4.13,4.13,0,0,0,.94.88,2.83,2.83,0,0,0,1.16.49Z"></path>
      <path class="cls-21" d="M30.44,1.71a6.75,6.75,0,0,1-.7,2.13l-.14-.08A6.57,6.57,0,0,0,30.44,1.71Z"></path>
      <path class="cls-25" d="M24.85,40.58c-.05-1,.25-1.34-.57-1.85a3,3,0,0,1-1.09-1.68,10.35,10.35,0,0,0-.76-2.24s.9.95,1.49,1.49.73,1.59.85,1.64.42-1,1-1.88A2.75,2.75,0,0,1,27,35s-1.36,1.51-1.29,2.32c.19,2.26.26,3.91.27,4.92s.86,2.54.79,2.87-2.35,1.2-2.4-.13c0,0-.59-.2.06-1A8.34,8.34,0,0,0,24.85,40.58Z"></path>
      <path class="cls-25" d="M25.22,45.74h-.14a.78.78,0,0,1-.8-.74.43.43,0,0,1-.23-.27.92.92,0,0,1,.31-.8,8.66,8.66,0,0,0,.41-3.34h0a4.39,4.39,0,0,1,0-.63c0-.53,0-.79-.54-1.15a3.06,3.06,0,0,1-1.12-1.74,10.3,10.3,0,0,0-.75-2.22l-.23-.47.36.38s.9,1,1.49,1.49a3.2,3.2,0,0,1,.73,1.36l.08.22c.05-.09.12-.25.19-.42A10.21,10.21,0,0,1,25.69,36,2.81,2.81,0,0,1,27,34.89l.3-.1-.21.23s-1.34,1.49-1.27,2.25c.22,2.58.26,4.19.27,4.93a6.21,6.21,0,0,0,.52,1.91,2.33,2.33,0,0,1,.27,1C26.78,45.36,25.9,45.74,25.22,45.74Zm-.29-5.16A8.39,8.39,0,0,1,24.48,44c-.22.26-.32.48-.27.64a.29.29,0,0,0,.18.19l.05,0v.06a.62.62,0,0,0,.66.63,2.27,2.27,0,0,0,1.58-.51,2.86,2.86,0,0,0-.26-.89,6.46,6.46,0,0,1-.54-2c0-.73,0-2.34-.26-4.91a3.88,3.88,0,0,1,1-2,2.89,2.89,0,0,0-.81.85,9.39,9.39,0,0,0-.7,1.37c-.17.39-.23.52-.31.55h-.08c-.07,0-.1-.12-.18-.37a3.21,3.21,0,0,0-.69-1.29C23.5,36,23,35.53,22.7,35.2A9,9,0,0,1,23.27,37a2.87,2.87,0,0,0,1.05,1.63,1.13,1.13,0,0,1,.61,1.3c0,.18,0,.38,0,.62Z"></path>
      <path class="cls-26" d="M55.92,38.62s1.06,1.12,3.92-.94a4,4,0,0,1-1.25.15C57.55,37.78,56.2,37.62,55.92,38.62Z"></path>
      <path class="cls-27" d="M55.9,38.54s.33-1.5,3.84-1.22a4,4,0,0,0-1.15.52C57.73,38.42,56.65,39.25,55.9,38.54Z"></path>
      <path class="cls-28" d="M49.88,8.78c-.72.12-1.34-.36-1-.94.25-.39.81-1.41,1.39-1.33s.68.59.78.8a1.09,1.09,0,0,1,.11,1.08C51.07,8.72,50.63,8.67,49.88,8.78Z"></path>
      <path class="cls-29" d="M52,9.18s.27,1.43,1.15,1.32a1.44,1.44,0,0,0,1.17-1.17c.05-.21.35-1.23-.22-1.39A2.82,2.82,0,0,0,53,7.86s-1,.22-1,.94Z"></path>
      <path class="cls-30" d="M52,7.36S51.8,5.81,52.64,6s1.57.6,1.68,1.35c.07.56-.21.53-1.73,1S52,7.36,52,7.36Z"></path>
      <path class="cls-31" d="M51,8.4s-1.41.24-1.33.89,0,1.17,1.6,1.48.56-2.11.37-2.27S51,8.4,51,8.4Z"></path>
      <path class="cls-32" d="M51.65,7.8S49.57,6.66,50.53,6s1.63-.28,1.64.21A2.38,2.38,0,0,1,51.65,7.8Z"></path>
      <circle class="cls-33" cx="51.72" cy="8.2" r="0.81"></circle>
      <path class="cls-12" d="M50.72,15.63a1.37,1.37,0,0,0-1.58,2.22,2.44,2.44,0,0,0,2.16,1,2.61,2.61,0,0,0,1.44-3.06,2.67,2.67,0,0,0-1.19-.45A1.27,1.27,0,0,0,50.72,15.63Z"></path>
      <ellipse class="cls-13" cx="50.94" cy="17.47" rx="0.06" ry="0.15" transform="translate(-2.7 12.7) rotate(-13.84)"></ellipse>
      <path class="cls-19" d="M50.8,15.35a2.15,2.15,0,0,0-2.44.12s1.21-.41,1.67-.09a2.22,2.22,0,0,0-1.56,1.41s1.52-1.22,1.9-1c0,0,.55.14.41,1.66,0,0,.4-.3.29-1.68,0,0,1.11.45,1.25,1.29a2,2,0,0,0-.82-1.58,1.36,1.36,0,0,1,1.33.8s0-1.42-1.28-1.29C51.55,15,51.1,15.49,50.8,15.35Z"></path>
      <ellipse class="cls-13" cx="49.27" cy="17.38" rx="0.06" ry="0.15" transform="translate(-2.27 25.92) rotate(-28.84)"></ellipse>
      <ellipse class="cls-13" cx="50.1" cy="17.51" rx="0.06" ry="0.15" transform="translate(-2.23 26.34) rotate(-28.84)"></ellipse>
      <ellipse class="cls-13" cx="51.67" cy="17.29" rx="0.06" ry="0.15" transform="translate(-1.82 6.93) rotate(-7.54)"></ellipse>
      <ellipse class="cls-13" cx="52.4" cy="16.8" rx="0.06" ry="0.15" transform="translate(-1.13 4.07) rotate(-4.4)"></ellipse>
      <ellipse class="cls-13" cx="49.96" cy="17.96" rx="0.06" ry="0.15" transform="translate(0.31 36.76) rotate(-40.51)"></ellipse>
      <ellipse class="cls-13" cx="50.73" cy="18.14" rx="0.06" ry="0.15" transform="translate(-2.46 26.72) rotate(-28.84)"></ellipse>
      <ellipse class="cls-13" cx="51.31" cy="18.09" rx="0.06" ry="0.15" transform="translate(-1.24 3.99) rotate(-4.4)"></ellipse>
      <ellipse class="cls-13" cx="52.03" cy="17.7" rx="0.06" ry="0.15" transform="translate(-1.2 4.04) rotate(-4.4)"></ellipse>
      <path class="cls-12" d="M55.68,7.25a.63.63,0,0,0,.33.34.65.65,0,0,0,.86-.68,1.11,1.11,0,0,0-.47-1,1.22,1.22,0,0,0-1.3.49.41.41,0,0,0,0,.39.86.86,0,0,0,.21.29A.59.59,0,0,0,55.68,7.25Z"></path>
      <ellipse class="cls-13" cx="56.12" cy="6.53" rx="0.07" ry="0.03" transform="translate(26.5 54.64) rotate(-65.01)"></ellipse>
      <ellipse class="cls-13" cx="56.69" cy="7.04" rx="0.07" ry="0.03" transform="translate(39.93 61.65) rotate(-80.01)"></ellipse>
      <ellipse class="cls-13" cx="56.43" cy="6.75" rx="0.07" ry="0.03" transform="translate(40 61.16) rotate(-80.01)"></ellipse>
      <ellipse class="cls-13" cx="55.81" cy="6.38" rx="0.07" ry="0.03" transform="translate(21.37 50.76) rotate(-58.71)"></ellipse>
      <ellipse class="cls-13" cx="55.41" cy="6.34" rx="0.07" ry="0.03" transform="translate(18.85 48.46) rotate(-55.57)"></ellipse>
      <ellipse class="cls-13" cx="56.61" cy="6.63" rx="0.03" ry="0.07" transform="translate(-0.17 1.67) rotate(-1.68)"></ellipse>
      <ellipse class="cls-13" cx="56.39" cy="6.35" rx="0.07" ry="0.03" transform="translate(40.35 60.78) rotate(-80.01)"></ellipse>
      <ellipse class="cls-13" cx="56.17" cy="6.2" rx="0.07" ry="0.03" transform="translate(19.3 49.02) rotate(-55.57)"></ellipse>
      <ellipse class="cls-13" cx="55.8" cy="6.13" rx="0.07" ry="0.03" transform="translate(19.19 48.69) rotate(-55.57)"></ellipse>
      <path class="cls-19" d="M55.56,7.43a2.14,2.14,0,0,0,2.06,1.31s-1.23-.36-1.42-.89a2.25,2.25,0,0,0,2.1-.24s-1.95.11-2.13-.29c0,0-.37-.44.63-1.6,0,0-.5,0-1.22,1.21a2.2,2.2,0,0,1-.26-1.79,2.07,2.07,0,0,0-.26,1.77,1.37,1.37,0,0,1-.61-1.42s-.79,1.18.3,1.79C54.75,7.28,55.4,7.15,55.56,7.43Z"></path>
      <path class="cls-19" d="M13.71,27.23A2.16,2.16,0,0,0,14,29.66s-.47-1.19-.17-1.66a2.22,2.22,0,0,0,1.48,1.5S14,28,14.18,27.64c0,0,.12-.56,1.65-.48,0,0-.32-.39-1.7-.22,0,0,.41-1.13,1.24-1.31a2.07,2.07,0,0,0-1.55.89,1.37,1.37,0,0,1,.75-1.36s-1.42.11-1.24,1.34C13.33,26.5,13.84,26.93,13.71,27.23Z"></path>
      <path class="cls-19" d="M17,32.1a2,2,0,0,0-2.2.68s1-.66,1.51-.47A2.11,2.11,0,0,0,15.19,34s1.11-1.48,1.51-1.36c0,0,.54,0,.76,1.44,0,0,.3-.37-.12-1.62,0,0,1.12.17,1.45.9a1.94,1.94,0,0,0-1.12-1.26,1.27,1.27,0,0,1,1.4.43s-.37-1.3-1.47-.89C17.6,31.61,17.3,32.16,17,32.1Z"></path>
      <path class="cls-19" d="M13.72,31.45a3.83,3.83,0,0,0-1.84-1s.35.22.67.4.59.37.65.38a1.57,1.57,0,0,0-1.13,0,3.48,3.48,0,0,1,.69.11c.17.05.68.06.71.14s.13-.1-.22.19a5,5,0,0,0-.63.81,3.36,3.36,0,0,0,.88-.4c.17-.09.21-.28.24-.26s0,.37-.06.66a3.09,3.09,0,0,1-.13.92,6.67,6.67,0,0,0,.33-1c0-.07,0,.27,0,.28,0,.3.06.94.06.88A3.56,3.56,0,0,0,13.72,31.45Z"></path>
      <path class="cls-34" d="M13.07,27.26a10,10,0,0,1-.5-2c.09-.25.39-.4.5-.34a3.82,3.82,0,0,1,.81.89,1.66,1.66,0,0,1,.06,1.15A4.08,4.08,0,0,1,13.07,27.26Z"></path>
      <path class="cls-35" d="M12.72,27.81c-.05,0-.53,1.34-1.69,1.25s-.84-1.47-.71-1.66a1.4,1.4,0,0,1,1.56-.59C12.94,27,12.72,27.81,12.72,27.81Z"></path>
      <path class="cls-36" d="M12.44,28.22a1.78,1.78,0,0,0-1.32.83c-.39.74.19,1.11.55,1a1.32,1.32,0,0,0,1.25-1C13.18,28.17,12.73,28.05,12.44,28.22Z"></path>
      <path class="cls-37" d="M12.61,27.4s-1.12-.29-1.33-.72-.43-1-.13-1.26a1.37,1.37,0,0,1,1.23-.31A6,6,0,0,1,12.94,27C12.94,27.06,12.87,27.48,12.61,27.4Z"></path>
      <path class="cls-38" d="M12.94,27.81a1.48,1.48,0,0,0,0,1.5s.17.24.36.2a1.07,1.07,0,0,0,.78-.87,3.84,3.84,0,0,0,0-1.51s-.24-.6-.74-.11A1.67,1.67,0,0,0,12.94,27.81Z"></path>
      <path class="cls-33" d="M12.61,28.23c-.11,0-.18-.33-.11-.69s.38-.59.5-.56.15.33.08.68S12.73,28.25,12.61,28.23Z"></path>
    </g>
  </g>
</svg>
