<?xml version="1.0" encoding="UTF-8"?>
<svg xmlns="http://www.w3.org/2000/svg" xmlns:xlink="http://www.w3.org/1999/xlink" viewBox="0 0 110.12 194.35">
  <defs>
    <style>.cls-1,.cls-13,.cls-14{fill:none;}.cls-2{fill:#956d4b;}.cls-3{clip-path:url(#clip-path);}.cls-4{fill:url(#Безымянный_градиент_2);}.cls-5{fill:#754120;}.cls-6{fill:#44281c;}.cls-7{fill:#6c3c1d;}.cls-8{fill:#714d31;}.cls-9{fill:#613822;}.cls-10{fill:#7f5637;}.cls-11{fill:#a07850;}.cls-12{fill:#cfcecf;}.cls-13,.cls-14{stroke:#cfcecf;stroke-width:0.86px;}.cls-13{stroke-miterlimit:10;}.cls-14{stroke-linecap:round;stroke-linejoin:round;}.cls-15{fill:#e9c671;}.cls-16{fill:#d9a458;}.cls-17{fill:#8b5b3c;}.cls-18{fill:#a38c48;}.cls-19{fill:#613922;}</style>
    <clipPath id="clip-path">
      <polygon class="cls-1" points="7.72 165.68 57.69 189.19 103.91 165.79 55.86 145.43 7.72 165.68"></polygon>
    </clipPath>
    <linearGradient id="Безымянный_градиент_2" x1="-3313.11" y1="446.27" x2="-3310.31" y2="446.27" gradientTransform="matrix(34.36, 0, 0, -34.36, 113822.31, 15499.54)" gradientUnits="userSpaceOnUse">
      <stop offset="0" stop-color="#a17551"></stop>
      <stop offset="0.38" stop-color="#a17551"></stop>
      <stop offset="0.89" stop-color="#7a4928"></stop>
      <stop offset="1" stop-color="#72401f"></stop>
    </linearGradient>
  </defs>
  <g id="Слой_2" data-name="Слой 2">
    <g id="Слой_1-2" data-name="Слой 1">
      <path class="cls-2" d="M57.69,123s9.62,11.3,17.06,11.76,32.81-7.56,32.81-7.56l2.56-26.43L57.69,82.32Z"></path>
      <path class="cls-2" d="M0,98.93l5.23,34.48s18.58,2.79,21.83,1.86,18.12-6.51,22.29-6.51S57.69,123,57.69,123V82.32Z"></path>
      <g class="cls-3">
        <rect class="cls-4" x="31.38" y="118.11" width="48.87" height="98.4" transform="translate(-114.25 214.07) rotate(-86.92)"></rect>
      </g>
      <path class="cls-5" d="M7.72,165.68,5.23,133.41s23.69-.46,30.19-3.72S57.69,123,57.69,123l-1.83,22.39Z"></path>
      <path class="cls-6" d="M41.49,135.41a8.37,8.37,0,0,0-2.84-1.66l0,0s-3.79-1.14-5.85,1.41-1.71,5.29-.77,5.73a12.35,12.35,0,0,0,1.63.35l.09-.05a30.2,30.2,0,0,0,3.51-.79,2,2,0,0,0,.6-.16l.65-.19c1.49-.46,1.67-.13,2.69-1a4,4,0,0,0,1.09-2.55l-.21-.5h0l0,0a1,1,0,0,0-.58-.51"></path>
      <path class="cls-6" d="M21.2,138.74a11,11,0,0,0-4,1.33v0s-4.3,2.69-3.59,6.84,3.66,6.13,4.88,5.6a13.64,13.64,0,0,0,1.71-1.28l0-.13c.92-1,1.59-3.16,2.21-4.06a2,2,0,0,0,.35-.71c.11-.21.21-.42.38-.79.8-1.82,1.28-1.71,1.29-3.46a5.12,5.12,0,0,0-1.54-3.21,3.36,3.36,0,0,0-.66-.22v0h-.08a1.31,1.31,0,0,0-1,.14"></path>
      <path class="cls-7" d="M57.69,123l-1.83,22.39,48.06,20.36,3.64-38.55s-15-1.73-21.48-.8-17.84,3.72-21.24,1.86A45.07,45.07,0,0,1,57.69,123"></path>
      <path class="cls-6" d="M39.39,146a3.49,3.49,0,0,0-1.26-.31h0a2.29,2.29,0,0,0-2,1.18c-.49,1.18-.05,2.17.35,2.24l.65-.06,0,0a12.3,12.3,0,0,0,1.23-.69l.21-.13.22-.14c.51-.34.61-.24.9-.69a1.59,1.59,0,0,0,.12-1.08l-.13-.16h0l0,0Z"></path>
      <path class="cls-6" d="M86.47,136.4a2.3,2.3,0,0,0-.11-.89h0s-.38-1-1.27-1-1.43.5-1.38.78l.2.41h0l.75.63.13.11.15.11c.35.24.3.34.66.41a1.06,1.06,0,0,0,.74-.19l.07-.12h0v-.23Z"></path>
      <path class="cls-6" d="M99.89,152.59a11,11,0,0,0-1.9-3.82h0s-3.32-3.91-7.36-2.6-5.59,4.54-4.88,5.69a15.38,15.38,0,0,0,1.52,1.52l.14,0c1.19.77,3.39,1.13,4.37,1.61a2.24,2.24,0,0,0,.77.26l.84.26c1.93.54,1.9,1,3.64.79a5.19,5.19,0,0,0,3-2,3.7,3.7,0,0,0,.13-.69h0l0-.08a1.25,1.25,0,0,0-.28-.95"></path>
      <path class="cls-6" d="M73.78,139.3A8.37,8.37,0,0,0,71.91,142l0,0s-1.4,3.67,1,5.9S78,150,78.48,149.06a12.49,12.49,0,0,0,.46-1.59l0-.1a27.85,27.85,0,0,0-.52-3.53,1.77,1.77,0,0,0-.12-.61c0-.17-.07-.36-.13-.66-.35-1.5,0-1.65-.81-2.74a4,4,0,0,0-2.44-1.26l-.51.17h0l0,0a1,1,0,0,0-.54.54"></path>
      <path class="cls-8" d="M74,166.68a1.59,1.59,0,0,0,1.57-.42c.54-.69.43-1.43.17-1.54l-.44-.09c-.29,0-.32.69-.33.71Z"></path>
      <path class="cls-9" d="M73,166.1s.87.79,1.23.55.8-.46.8-.46l0-.24-1-.32-.56.19Z"></path>
      <path class="cls-10" d="M73,166c0,.1.12.35.4.26a5,5,0,0,0,.52-.22l.33-1c.06-.14.14-.19-.25-.06s-.45.05-.72.29a1.11,1.11,0,0,0-.28.7"></path>
      <path class="cls-11" d="M73.88,166a5.57,5.57,0,0,0,.13-.7c0-.31,0-.39.28-.43s.84-.33,1.11-.22.26.08.26.44a1.24,1.24,0,0,1-.39.86.69.69,0,0,1-.75.33,1.87,1.87,0,0,1-.64-.28"></path>
      <path class="cls-8" d="M63.28,160.55s2.39.13,3.24-1.66.26-3.36-.36-3.49a6.06,6.06,0,0,0-1,0c-.66,0-.37,1.66-.39,1.7Z"></path>
      <path class="cls-9" d="M60.93,159.73s2.3,1.32,3,.62,1.53-1.4,1.53-1.4l-.15-.52a7.22,7.22,0,0,0-2.27-.25c-.36.2-1,.62-1.16.69Z"></path>
      <path class="cls-10" d="M60.74,159.46c.11.21.43.73,1,.4a8.38,8.38,0,0,0,1.05-.75s.18-1.94.26-2.29.22-.48-.58,0-1,.31-1.44,1a2.41,2.41,0,0,0-.28,1.66"></path>
      <path class="cls-11" d="M62.78,159.11a11.07,11.07,0,0,0-.05-1.59c-.09-.7-.16-.87.42-1.09s1.68-1.12,2.32-1,.6.06.77.84a2.88,2.88,0,0,1-.41,2.1,1.61,1.61,0,0,1-1.52,1.07,4.19,4.19,0,0,1-1.53-.31"></path>
      <path class="cls-8" d="M53.32,168.32s1.86,1.42,3.54.43,2-2.58,1.62-3a7,7,0,0,0-.84-.53c-.55-.33-1.21,1.15-1.25,1.17Z"></path>
      <path class="cls-9" d="M51.86,166.37s1.15,2.33,2.08,2.14,2-.3,2-.3l.16-.5s-1.29-1.4-1.7-1.44-1.14-.05-1.32-.08Z"></path>
      <path class="cls-10" d="M51.86,166.05c0,.23,0,.83.59.87a9.13,9.13,0,0,0,1.26,0l1.46-1.7c.25-.25.45-.27-.47-.33s-1-.27-1.7,0a2.35,2.35,0,0,0-1.14,1.19"></path>
      <path class="cls-11" d="M53.71,166.88a11.08,11.08,0,0,0,.83-1.31c.3-.61.35-.79.93-.65s2,0,2.44.44.45.38.17,1.11a2.85,2.85,0,0,1-1.49,1.47,1.58,1.58,0,0,1-1.81,0,4,4,0,0,1-1.07-1.1"></path>
      <path class="cls-8" d="M49,161.89a2.67,2.67,0,0,0,.1-2.73c-.86-1.21-2.11-1.39-2.41-1l-.35.68c-.22.44,1,.84,1,.87Z"></path>
      <path class="cls-9" d="M47.63,163.12s1.7-1,1.49-1.73a15.22,15.22,0,0,1-.35-1.5l-.4-.09s-1,1.08-1,1.39,0,.87,0,1Z"></path>
      <path class="cls-10" d="M47.39,163.14c.18,0,.63,0,.62-.5a7.72,7.72,0,0,0-.11-1l-1.4-1c-.2-.17-.23-.32-.21.38s-.15.74.12,1.3a1.75,1.75,0,0,0,1,.78"></path>
      <path class="cls-11" d="M47.9,161.68a7.93,7.93,0,0,0-1.06-.54c-.49-.2-.62-.22-.55-.67s-.13-1.51.17-1.89.26-.37.84-.2a2.12,2.12,0,0,1,1.21,1,1.18,1.18,0,0,1,.15,1.38,3,3,0,0,1-.76.88"></path>
      <path class="cls-8" d="M40.56,163.9a1.17,1.17,0,0,0,.38-1.12c-.2-.61-.69-.84-.86-.74l-.23.24.29.48Z"></path>
      <path class="cls-9" d="M39.82,164.23s.83-.21.84-.52,0-.67,0-.67l-.15-.09-.58.45-.12.42Z"></path>
      <path class="cls-10" d="M39.71,164.21l.33-.13.08-.41-.46-.59c-.06-.1,0-.17-.13.13s-.16.29-.12.55a.77.77,0,0,0,.3.45"></path>
      <path class="cls-11" d="M40.12,163.67l-.37-.36L39.6,163l.32-.76.37,0a1,1,0,0,1,.37.59.51.51,0,0,1-.12.59Z"></path>
      <path class="cls-8" d="M38,168.57s1.64-2.64.13-4.72-3.65-2.39-4.18-1.77a8.62,8.62,0,0,0-.6,1.16c-.37.77,1.66,1.46,1.69,1.51Z"></path>
      <path class="cls-9" d="M35.56,170.73s2.94-1.8,2.56-3-.63-2.62-.63-2.62L36.8,165s-1.69,1.88-1.69,2.42.08,1.51.06,1.75Z"></path>
      <path class="cls-10" d="M35.13,170.76c.31,0,1.1,0,1.07-.87a12.44,12.44,0,0,0-.19-1.66s-2.09-1.41-2.44-1.72-.41-.56-.36.66-.25,1.29.21,2.24a3.1,3.1,0,0,0,1.71,1.35"></path>
      <path class="cls-11" d="M36,168.23a14.22,14.22,0,0,0-1.84-.93c-.85-.33-1.08-.37-1-1.16s-.23-2.61.29-3.28.45-.64,1.44-.34a3.69,3.69,0,0,1,2.12,1.78,2.05,2.05,0,0,1,.27,2.38A5.33,5.33,0,0,1,36,168.23"></path>
      <path class="cls-12" d="M48.18,119.85s.56-3.22,5.12-.86c0,0,.32.47,1.42,0s3.64-1.79,6.24-1.07c0,0,1.39-2.52,4.26,0,0,0,3,.32,3,2.68l.4,1.39s0,3.4-4.39,2.49a2.26,2.26,0,0,1-2.76,1.77l-1,.7a2.85,2.85,0,0,1-4.35.61,3.84,3.84,0,0,0-2.41-.67c-1.44.08-1.79-.75-2.33-1.34a9.74,9.74,0,0,0-1.61-1.18,2.6,2.6,0,0,1-.53-2C49.47,121.59,47.86,120.92,48.18,119.85Z"></path>
      <path class="cls-13" d="M35,122.57s2.07-2.16,6.39-1,8.4-1.5,8.4-1.5"></path>
      <path class="cls-13" d="M29.74,134.13s3.44-7.08,14.9-6.86c6.46.12,5.72-5.25,5.72-5.25"></path>
      <path class="cls-12" d="M49.58,125.84a7.53,7.53,0,0,1-1.84.76,7,7,0,0,1-2,.2,5.8,5.8,0,0,1-2-.43,7.29,7.29,0,0,1-1.75-1,.43.43,0,0,1,.51-.69h0l0,0a6.22,6.22,0,0,0,1.5,1,4.82,4.82,0,0,0,1.72.46,6.33,6.33,0,0,0,3.52-.7l0,0a.25.25,0,0,1,.33.11A.25.25,0,0,1,49.58,125.84Z"></path>
      <path class="cls-13" d="M55.9,125.75a10.06,10.06,0,0,0-5.52,8.38"></path>
      <path class="cls-13" d="M49.79,137.56c-1,4.28-1.18,5.14-1.18,5.14"></path>
      <path class="cls-13" d="M54.43,145.38s-6.54-4.72-4.08-9.22"></path>
      <path class="cls-14" d="M57.93,127.05s-1.72,2.79-.81,4.51a10.37,10.37,0,0,0,2.55,3.64,9.91,9.91,0,0,1,2.66,4.93,8.46,8.46,0,0,0,1.82,3.54"></path>
      <path class="cls-13" d="M61.87,138.61s1.26,2.59,6.75,4.09"></path>
      <path class="cls-13" d="M57.67,132.6s1.83,1.85,1.21,3.56-2.11,7-1.21,8.47"></path>
      <path class="cls-13" d="M60.5,125s.5,5.46,2.83,5.78"></path>
      <path class="cls-13" d="M63.33,125a6.65,6.65,0,0,0,5.29,3c3.78.27,5.71,9.49,5.71,9.49"></path>
      <path class="cls-13" d="M66.69,121.33a15,15,0,0,0,8.43.69c4.78-1,6.82,1.5,6.82,1.5"></path>
      <path class="cls-13" d="M73.84,122.22s3,1.8,2.37,3.53"></path>
      <ellipse class="cls-15" cx="23.57" cy="136.91" rx="10.18" ry="5.89" transform="translate(-70.2 34.41) rotate(-32.69)"></ellipse>
      <path class="cls-15" d="M31.7,127.69a12.46,12.46,0,0,0-2,.61c-1.63.68-5.46,1.74-6.16-1.25-.9-3.85,6.62-6,7.46-6.32,1.5-.64,8.22.51,4.5,5A7.36,7.36,0,0,1,31.7,127.69Z"></path>
      <path class="cls-15" d="M41.39,132.2s-8.08,1.18-9.32,5.36-.09,6.43,1.8,7.82,5.31,2.79,9-.75,8.47-6.68,9.29-8.47c.53-1.15,1.28-6.82-4.22-7.11S44.6,131.43,41.39,132.2Z"></path>
      <path class="cls-15" d="M52.93,150.21a4.28,4.28,0,0,1-1.29-2.79c0-1.21.43-2.77,2.79-3.75,4.36-1.83,10.59.53,12.35,2.25s5.45,4.93-.09,7.82C61.79,156.3,55.52,152.82,52.93,150.21Z"></path>
      <path class="cls-15" d="M61.22,132.6s-.35-7.15,5.47-4.53,6,11.31,3.67,12.06S62.47,141.58,61.22,132.6Z"></path>
      <path class="cls-15" d="M79.34,125.75s.67-4.28,4.21-5.18,10.29,1.8,11,2.59,6.1,5.18,7.71,10,0,11.9-9.43,6.22S79.85,132,79.34,125.75Z"></path>
      <path class="cls-15" d="M73.15,140.77s-2.45-4.82,3.06-6.11,5.73.7,5.73.7,8.25,3.48,9.64,8.31-4.71,9.73-11.46,5.13S73.15,140.77,73.15,140.77Z"></path>
      <path class="cls-15" d="M54.33,136.76a5.27,5.27,0,0,0-1.34,4c.13,1.24.76,2.42,2.91,1.69,4-1.34,4.92-4,4.73-4.48s-.5-5.62-4.73-2.59A9.76,9.76,0,0,0,54.33,136.76Z"></path>
      <path class="cls-15" d="M49.35,145.16c.58-.87,2.38-4-1.37-3.75a1.54,1.54,0,0,0-1.32,2.21l0,0c.71,1.32.84,2.93,2.28,1.9A1.52,1.52,0,0,0,49.35,145.16Z"></path>
      <path class="cls-15" d="M70.88,142.43s2.09,3.49-1.09,2.95-2-4.32-1-4S70.21,140.34,70.88,142.43Z"></path>
      <path class="cls-15" d="M78.16,123.58a2.59,2.59,0,0,0-3.55,3c.48,2.09,1.65,5.17,4,1.76C80.28,125.92,79.5,124.24,78.16,123.58Z"></path>
      <path class="cls-15" d="M40.06,125.75c-.48-.47-.6-3.24,1.94-2.47S42.45,128.09,40.06,125.75Z"></path>
      <path class="cls-15" d="M55.9,134.23s1-4-2.76-2.14S53.86,138.73,55.9,134.23Z"></path>
      <circle class="cls-16" cx="19.39" cy="136.09" r="0.81"></circle>
      <circle class="cls-16" cx="35.4" cy="139.17" r="0.81"></circle>
      <circle class="cls-16" cx="39.01" cy="138.76" r="0.81"></circle>
      <circle class="cls-16" cx="61.87" cy="151.45" r="0.81"></circle>
      <circle class="cls-16" cx="81.81" cy="144.22" r="0.81"></circle>
      <circle class="cls-16" cx="86.66" cy="129.94" r="0.81"></circle>
      <circle class="cls-16" cx="84.45" cy="147.27" r="0.81"></circle>
      <circle class="cls-16" cx="90.28" cy="132.39" r="0.81"></circle>
      <circle class="cls-16" cx="67.74" cy="135.36" r="0.81"></circle>
      <circle class="cls-16" cx="64.15" cy="134.01" r="0.81"></circle>
      <circle class="cls-16" cx="28.93" cy="124.33" r="0.81"></circle>
      <circle class="cls-16" cx="40.06" cy="141.18" r="0.81"></circle>
      <circle class="cls-16" cx="18.12" cy="138.76" r="0.81"></circle>
      <circle class="cls-16" cx="37.86" cy="141.18" r="0.41"></circle>
      <circle class="cls-16" cx="61.22" cy="149.54" r="0.41"></circle>
      <circle class="cls-16" cx="59.01" cy="150.64" r="0.41"></circle>
      <circle class="cls-16" cx="81.81" cy="146.58" r="0.69"></circle>
      <circle class="cls-16" cx="87.47" cy="133.2" r="0.69"></circle>
      <circle class="cls-16" cx="65.25" cy="136.91" r="0.41"></circle>
      <circle class="cls-16" cx="78.93" cy="144.63" r="0.41"></circle>
      <circle class="cls-16" cx="90.28" cy="135.36" r="0.41"></circle>
      <circle class="cls-16" cx="76.95" cy="142.43" r="0.41"></circle>
      <circle class="cls-16" cx="27.07" cy="127.05" r="0.41"></circle>
      <circle class="cls-16" cx="26.66" cy="125.75" r="0.41"></circle>
      <circle class="cls-16" cx="36.64" cy="142.8" r="0.81"></circle>
      <circle class="cls-16" cx="55.9" cy="149.54" r="0.81"></circle>
      <circle class="cls-16" cx="21.2" cy="138.17" r="1"></circle>
      <polygon class="cls-17" points="0 98.94 57.69 123.04 110.12 100.81 57.69 82.31 0 98.94"></polygon>
      <path class="cls-18" d="M61.48.16A8,8,0,0,1,62,1.76a12.63,12.63,0,0,1,.23,1.62,17.86,17.86,0,0,1,0,3.27A28.21,28.21,0,0,1,60.81,13a45.66,45.66,0,0,1-2.54,6,21.74,21.74,0,0,0-1.18,2.92A17.77,17.77,0,0,0,56.47,25a19.06,19.06,0,0,0,.47,6.24,57.83,57.83,0,0,0,1.91,6.09c.73,2,1.45,4.06,2,6.17.27,1.05.51,2.12.69,3.21A27.62,27.62,0,0,1,61.9,50a62.78,62.78,0,0,1-1.27,13c-.74,4.24-1.58,8.45-2,12.67a43,43,0,0,0-.16,6.31,27,27,0,0,0,.35,3.1c.09.51.15,1,.28,1.52l.4,1.5c.12.48.31,1,.45,1.56s.28,1.08.4,1.62c.24,1.08.42,2.18.56,3.26s.27,2.16.35,3.26a18.06,18.06,0,0,1,0,3.45,1.07,1.07,0,1,1-2.13-.26h0v-.05a15.47,15.47,0,0,0,0-3c-.06-1.05-.17-2.1-.29-3.16s-.27-2.08-.48-3.1c-.1-.51-.21-1-.34-1.51s-.29-1-.42-1.54l-.41-1.63c-.13-.54-.18-1.09-.28-1.64A30.64,30.64,0,0,1,56.67,82,44.77,44.77,0,0,1,57,75.42c.46-4.34,1.37-8.56,2.18-12.77A62.59,62.59,0,0,0,60.58,50a27.56,27.56,0,0,0-.28-3.13c-.16-1-.36-2.07-.62-3.1-.51-2.05-1.19-4.07-1.89-6.11A55.92,55.92,0,0,1,56,31.44a19.81,19.81,0,0,1-.39-6.56,18.61,18.61,0,0,1,.71-3.23,20.68,20.68,0,0,1,1.28-3,45.94,45.94,0,0,0,2.59-5.84A27.47,27.47,0,0,0,61.58,6.6a16.81,16.81,0,0,0,.06-3.17A10.29,10.29,0,0,0,61,.38v0A.25.25,0,0,1,61.14,0,.27.27,0,0,1,61.48.16Z"></path>
      <path class="cls-18" d="M60.16,13.61a22.92,22.92,0,0,0,2.74-.78,19.06,19.06,0,0,0,2.63-1.12,13.35,13.35,0,0,0,2.39-1.54A8.23,8.23,0,0,0,69.77,8h0a.13.13,0,0,1,.24.12,8.57,8.57,0,0,1-1.83,2.32,13.9,13.9,0,0,1-2.4,1.7,20.13,20.13,0,0,1-2.65,1.27,24.17,24.17,0,0,1-2.8.93.39.39,0,0,1-.48-.28.4.4,0,0,1,.28-.48h0Z"></path>
      <path class="cls-18" d="M42.45,13A19.19,19.19,0,0,1,44,15.7c.46.93.88,1.87,1.28,2.83l1.12,2.86a24.71,24.71,0,0,0,1.37,2.72,21.41,21.41,0,0,0,3.68,4.76,11.65,11.65,0,0,0,2.37,1.74,5.12,5.12,0,0,0,2.68.68.54.54,0,1,1,.07,1.08h0a6.22,6.22,0,0,1-3.22-.87,12.51,12.51,0,0,1-2.54-1.95,22.19,22.19,0,0,1-3.74-5.05,26,26,0,0,1-1.34-2.82l-1.07-2.9c-.37-1-.76-1.9-1.19-2.82A19.25,19.25,0,0,0,42,13.32v0a.27.27,0,0,1,.07-.38A.28.28,0,0,1,42.45,13Z"></path>
      <path class="cls-18" d="M63.78,21.65a12.7,12.7,0,0,1,1.77,5.16,13.3,13.3,0,0,1,0,2.75,12.74,12.74,0,0,1-.2,1.36l-.14.68c-.05.22-.13.44-.19.66a34.67,34.67,0,0,1-2,5.05c-.41.81-.85,1.61-1.34,2.38A15.8,15.8,0,0,1,60,41.93a.44.44,0,0,1-.63,0,.46.46,0,0,1,0-.64h0l0,0A14.42,14.42,0,0,0,61,39.23c.49-.73.94-1.5,1.36-2.28a33.48,33.48,0,0,0,2.12-4.88c.06-.21.14-.42.2-.63l.14-.64A11.76,11.76,0,0,0,65,29.5a12.84,12.84,0,0,0,0-2.63,12.32,12.32,0,0,0-1.58-5v0a.19.19,0,0,1,.07-.27A.21.21,0,0,1,63.78,21.65Z"></path>
      <path class="cls-18" d="M43.08,42.64a59.31,59.31,0,0,0,1.2,8,14.17,14.17,0,0,0,.58,1.88,9.65,9.65,0,0,0,1,1.69,35.39,35.39,0,0,0,2.46,3.17,34.37,34.37,0,0,0,2.78,2.88c1,.89,2,1.77,3,2.69A33.55,33.55,0,0,1,57,65.86a14.56,14.56,0,0,1,1.28,1.68,6.81,6.81,0,0,1,.93,2,.64.64,0,0,1-.46.78.65.65,0,0,1-.78-.47h0a5.65,5.65,0,0,0-.74-1.66,12.75,12.75,0,0,0-1.14-1.57,35.63,35.63,0,0,0-2.74-2.9c-1-.93-2-1.8-3-2.76a38.07,38.07,0,0,1-2.79-3,34.17,34.17,0,0,1-2.43-3.3c-.19-.29-.37-.58-.54-.88a3.5,3.5,0,0,1-.25-.47,4.25,4.25,0,0,1-.22-.5,15.14,15.14,0,0,1-.57-2,59.78,59.78,0,0,1-1-8.1.26.26,0,0,1,.24-.27.25.25,0,0,1,.27.23Z"></path>
      <path class="cls-18" d="M67.78,64.81a1.37,1.37,0,0,1,0,.45l-.05.33-.11.66-.25,1.3c-.17.86-.35,1.72-.56,2.58s-.42,1.71-.67,2.56a15.71,15.71,0,0,1-1,2.54,26.6,26.6,0,0,1-2.69,4.63,8.16,8.16,0,0,1-2.12,1.84,8.05,8.05,0,0,1-2.67,1,.61.61,0,1,1-.21-1.21h0a6.42,6.42,0,0,0,4.16-2.25,26.07,26.07,0,0,0,2.73-4.37,14.86,14.86,0,0,0,1-2.35c.27-.83.52-1.66.75-2.5s.44-1.69.64-2.54L67,66.14l.13-.64.06-.32c0-.1,0-.25.06-.2a.27.27,0,0,1,.17-.34A.26.26,0,0,1,67.78,64.81Z"></path>
      <path class="cls-18" d="M56.81,2.52c0,.64,5.47,4,3.65,8.25,0,0-4.18-2.46-5-4.12S56.81,2.52,56.81,2.52Z"></path>
      <path class="cls-18" d="M65.82,5.31s-2.79,2.46,0,6.32C65.82,11.63,68.39,10.13,65.82,5.31Z"></path>
      <path class="cls-18" d="M62.92,12.92c.15-.43,4.07-1.72,4.61,4.6C67.53,17.52,61.27,17.63,62.92,12.92Z"></path>
      <path class="cls-18" d="M59.6,14.31s-6.43,4.18-8-5.84a9.31,9.31,0,0,0,5.68,2.3C60.46,10.77,59.6,13.34,59.6,14.31Z"></path>
      <path class="cls-18" d="M65.09,25.13a3.47,3.47,0,0,0-4.26,0c-2.52,1.61-1.13,7.93-1.13,7.93s1,1.61,2.5-1.71S65.09,25.13,65.09,25.13Z"></path>
      <path class="cls-18" d="M42.45,12.51s-3.32-3.64-8,2.51C34.41,15,41,17.9,42.45,12.51Z"></path>
      <path class="cls-18" d="M44.49,17.52c0-.45-3.32-1.92-5.15-.64s-4.18.14-4.18.14.75,5.43,4.67,5.22S44.38,19.78,44.49,17.52Z"></path>
      <path class="cls-18" d="M48.35,25.88s-1.72,8,4.28,11.26C52.63,37.14,54.67,30.81,48.35,25.88Z"></path>
      <path class="cls-18" d="M64.58,32.74S61.24,37.57,67,42.07C67,42.07,71,35.42,64.58,32.74Z"></path>
      <path class="cls-18" d="M60.24,45.93s-3-2-5-3.22-2.8-3.64-3.66-.64S53.66,52,58,48Z"></path>
      <path class="cls-18" d="M44.49,49.18S40.2,42.74,50,40.64C50,40.64,49.42,50.72,44.49,49.18Z"></path>
      <path class="cls-18" d="M39.83,54s-5.45-11.89,2.62-11.89C45.27,42.07,39.83,54,39.83,54Z"></path>
      <path class="cls-18" d="M47.38,57.5S43.72,51.37,53,49.18c0,0,.35,6.6-1.54,6.93A17.44,17.44,0,0,0,47.38,57.5Z"></path>
      <path class="cls-18" d="M46.75,58.14s-3.66,1.43-.87,6.65c0,0,.6,2.43.87,3S51.27,62.22,46.75,58.14Z"></path>
      <path class="cls-18" d="M52,60.86s-2.3-2.29,1-4.57,3.86-3.86,3.86-4.58S61.6,61.86,52,60.86Z"></path>
      <path class="cls-18" d="M54.59,65.36s-3.26-1.36-4.77,4-5.33,3.57-5.33,3.57S57.22,78.79,54.59,65.36Z"></path>
      <path class="cls-18" d="M61.24,60.92s3.22-7,5.22-7.58C66.46,53.34,68,63.06,61.24,60.92Z"></path>
      <path class="cls-18" d="M67,66.79c.05-.22,2.36-2.86,4.86,1.86s3.07,3.93,3.07,3.93S65.24,74.43,67,66.79Z"></path>
      <path class="cls-18" d="M65.9,67.83s-5.3,2.89-4.66,7.82C61.24,75.65,66.47,75.43,65.9,67.83Z"></path>
      <path class="cls-18" d="M57,82c.22-.12,1.14-4.08-3.29-4.08a3.44,3.44,0,0,1-3.21-1.21S50.31,85.58,57,82Z"></path>
      <path class="cls-18" d="M63.92,77.58s3.61-2.58,4.82,4.14-.28,3.57,1.08,5.36-5.9-1.22-5.9-5.36S64.46,78.29,63.92,77.58Z"></path>
      <path class="cls-8" d="M60.94,107.28a1.25,1.25,0,0,0-1.2-.44c-.66.2-.93.73-.81.92a2.58,2.58,0,0,0,.24.25c.17.16.52-.3.54-.3Z"></path>
      <path class="cls-19" d="M61.28,108.08s-.2-.91-.55-.92-.72-.06-.72-.06l-.1.17s.34.59.48.64l.45.13A2.64,2.64,0,0,0,61.28,108.08Z"></path>
      <path class="cls-10" d="M61.26,108.19a.24.24,0,0,0-.13-.35,3.86,3.86,0,0,0-.45-.09s-.54.41-.65.48-.17,0,.14.15.31.17.6.13A.83.83,0,0,0,61.26,108.19Z"></path>
      <path class="cls-11" d="M60.68,107.75a3.21,3.21,0,0,0-.39.39c-.16.19-.19.25-.38.15s-.69-.17-.82-.36-.12-.17,0-.39a1,1,0,0,1,.64-.39.54.54,0,0,1,.63.13A1.42,1.42,0,0,1,60.68,107.75Z"></path>
      <path class="cls-8" d="M43.93,101.1a1.84,1.84,0,0,0-1.86-.27c-.89.5-1.1,1.34-.88,1.57a3.15,3.15,0,0,0,.43.29c.29.18.65-.59.67-.6Z"></path>
      <path class="cls-19" d="M44.67,102.14S44.1,100.9,43.6,101s-1.06.13-1.06.13l-.09.26s.67.75.88.78l.69,0A4.6,4.6,0,0,0,44.67,102.14Z"></path>
      <path class="cls-10" d="M44.67,102.31c0-.12,0-.43-.3-.46a4.17,4.17,0,0,0-.66,0s-.65.76-.79.88-.24.14.24.18.5.15.9,0A1.21,1.21,0,0,0,44.67,102.31Z"></path>
      <path class="cls-11" d="M43.71,101.85a6.77,6.77,0,0,0-.45.68c-.17.32-.2.42-.5.33s-1,0-1.28-.26-.23-.2-.07-.58a1.46,1.46,0,0,1,.79-.75.8.8,0,0,1,1,0A2.09,2.09,0,0,1,43.71,101.85Z"></path>
      <path class="cls-8" d="M55.94,98.64s-3.83-1.91-6.5.42-2.81,5.33-1.89,6a12.45,12.45,0,0,0,1.67.67c1.11.41,1.79-2.47,1.86-2.51S55.94,98.64,55.94,98.64Z"></path>
      <path class="cls-19" d="M59.21,101.66s-2.84-3.8-4.46-3.13-3.51,1.2-3.51,1.2l-.1,1s2.79,2.07,3.53,2,2.07-.3,2.4-.31A16.2,16.2,0,0,0,59.21,101.66Z"></path>
      <path class="cls-10" d="M59.32,102.24c0-.42-.19-1.51-1.34-1.36a16.68,16.68,0,0,0-2.25.48s-1.68,3-2,3.57-.71.63,1,.42,1.8.17,3.06-.59A4.29,4.29,0,0,0,59.32,102.24Z"></path>
      <path class="cls-11" d="M55.73,101.36a20.09,20.09,0,0,0-1,2.65c-.34,1.2-.36,1.53-1.45,1.48s-3.56.65-4.54,0-.94-.53-.67-1.93.92-2,2.18-3.14a2.85,2.85,0,0,1,3.24-.68A7.36,7.36,0,0,1,55.73,101.36Z"></path>
      <path class="cls-8" d="M70.67,99.87s-2.2-3-5.2-2.26-4.29,3-3.84,3.87a12.35,12.35,0,0,0,1,1.19c.7.75,2.37-1.2,2.44-1.21S70.67,99.87,70.67,99.87Z"></path>
      <path class="cls-19" d="M72,103.5s-.68-4.07-2.2-4.2-3.2-.46-3.2-.46l-.46.7s1.33,2.72,1.93,3,1.72.59,2,.71A13.76,13.76,0,0,0,72,103.5Z"></path>
      <path class="cls-10" d="M71.86,104c.14-.35.45-1.25-.5-1.59a13.7,13.7,0,0,0-1.93-.52s-2.51,1.69-3,1.94-.81.21.56.7,1.33.85,2.6.77A3.77,3.77,0,0,0,71.86,104Z"></path>
      <path class="cls-11" d="M69.43,101.89a16,16,0,0,0-1.86,1.63c-.75.79-.9,1-1.72.56s-3-.91-3.52-1.78-.52-.79.25-1.76A4.47,4.47,0,0,1,65.51,99a2.48,2.48,0,0,1,2.78.77A6.36,6.36,0,0,1,69.43,101.89Z"></path>
      <path class="cls-8" d="M60.42,101.42s-3.17-2.44-6-.79-3.54,4.38-2.81,5.14a11.19,11.19,0,0,0,1.41.92c.94.57,2.09-1.94,2.16-2S60.42,101.42,60.42,101.42Z"></path>
      <path class="cls-19" d="M62.87,104.78s-1.92-4-3.52-3.68-3.44.47-3.44.47l-.27.87s2.19,2.41,2.88,2.48,1.95.1,2.25.15A14.77,14.77,0,0,0,62.87,104.78Z"></path>
      <path class="cls-10" d="M62.87,105.33c0-.39.09-1.42-1-1.49a16.63,16.63,0,0,0-2.15,0s-2.08,2.48-2.52,2.9-.77.45.79.55,1.62.49,2.91,0A4,4,0,0,0,62.87,105.33Z"></path>
      <path class="cls-11" d="M59.73,103.88a19,19,0,0,0-1.44,2.23c-.53,1-.61,1.35-1.6,1.1s-3.38,0-4.17-.8-.76-.66-.26-1.89A4.84,4.84,0,0,1,54.82,102a2.68,2.68,0,0,1,3.1,0A6.73,6.73,0,0,1,59.73,103.88Z"></path>
      <path class="cls-8" d="M76.9,107a1.93,1.93,0,0,0,1.76-.86c.47-1,.16-1.81-.17-1.88a3.37,3.37,0,0,0-.54,0c-.35,0-.21.89-.23.91Z"></path>
      <path class="cls-19" d="M75.64,106.51s1.23.73,1.6.36.84-.74.84-.74l-.08-.28a4,4,0,0,0-1.22-.15c-.19.1-.54.32-.63.36A5.17,5.17,0,0,0,75.64,106.51Z"></path>
      <path class="cls-10" d="M75.55,106.37c.06.11.22.39.52.22a5.09,5.09,0,0,0,.58-.4s.11-1,.15-1.22.13-.26-.31,0-.52.16-.78.52A1.3,1.3,0,0,0,75.55,106.37Z"></path>
      <path class="cls-11" d="M76.65,106.19a6.89,6.89,0,0,0,0-.85c0-.37-.08-.47.23-.58s.92-.59,1.26-.53.32,0,.41.46a1.57,1.57,0,0,1-.24,1.12.85.85,0,0,1-.82.56A2,2,0,0,1,76.65,106.19Z"></path>
      <path class="cls-8" d="M34.69,109.18a1.94,1.94,0,0,0,1.76-.87c.47-1,.16-1.81-.17-1.88a3.37,3.37,0,0,0-.54,0c-.35,0-.21.89-.23.91Z"></path>
      <path class="cls-19" d="M33.43,108.71s1.23.73,1.6.36.84-.74.84-.74l-.08-.28a4,4,0,0,0-1.22-.15c-.19.1-.54.32-.63.36A5.17,5.17,0,0,0,33.43,108.71Z"></path>
      <path class="cls-10" d="M33.34,108.57c.06.11.22.39.53.22a4.71,4.71,0,0,0,.57-.39s.11-1,.15-1.23.13-.26-.31,0-.52.16-.78.52A1.31,1.31,0,0,0,33.34,108.57Z"></path>
      <path class="cls-11" d="M34.44,108.4a7.05,7.05,0,0,0,0-.86c0-.37-.08-.47.23-.58s.92-.59,1.26-.53.32,0,.41.46a1.56,1.56,0,0,1-.24,1.12.87.87,0,0,1-.82.57A2.28,2.28,0,0,1,34.44,108.4Z"></path>
      <path class="cls-8" d="M46.75,107.66a2.45,2.45,0,0,0,2.31-1c.69-1.17.37-2.28-.05-2.4a6,6,0,0,0-.69,0c-.45,0-.35,1.12-.36,1.14S46.75,107.66,46.75,107.66Z"></path>
      <path class="cls-19" d="M45.19,107s1.5,1,2,.59,1.13-.87,1.13-.87l-.08-.36a5.09,5.09,0,0,0-1.53-.3c-.26.11-.71.36-.83.41A6,6,0,0,0,45.19,107Z"></path>
      <path class="cls-10" d="M45.08,106.76c.06.15.25.53.65.33a5.56,5.56,0,0,0,.76-.45s.24-1.31.31-1.55.18-.32-.4,0-.67.16-1,.59A1.65,1.65,0,0,0,45.08,106.76Z"></path>
      <path class="cls-11" d="M46.49,106.64a7.66,7.66,0,0,0,.06-1.09c0-.48-.06-.6.35-.72s1.21-.67,1.64-.56.41.08.48.62a2,2,0,0,1-.4,1.41,1.11,1.11,0,0,1-1.1.64A2.8,2.8,0,0,1,46.49,106.64Z"></path>
      <path class="cls-8" d="M55.55,106a1.53,1.53,0,0,1,1.43-.22c.7.32.88.88.72,1a2.18,2.18,0,0,1-.33.2c-.22.13-.52-.38-.53-.39Z"></path>
      <path class="cls-19" d="M55,106.67s.41-.85.8-.8.82.07.82.07l.07.18s-.49.52-.66.54-.46,0-.53.06A4.93,4.93,0,0,1,55,106.67Z"></path>
      <path class="cls-10" d="M55,106.79c0-.08,0-.3.22-.32a3.1,3.1,0,0,1,.52,0s.52.5.62.58.19.09-.18.12-.38.12-.69,0A.91.91,0,0,1,55,106.79Z"></path>
      <path class="cls-11" d="M55.74,106.46a4.53,4.53,0,0,1,.36.45c.14.22.16.28.39.22s.81,0,1-.21.17-.14,0-.4a1.12,1.12,0,0,0-.64-.5.72.72,0,0,0-.73,0A1.57,1.57,0,0,0,55.74,106.46Z"></path>
      <path class="cls-8" d="M68.47,102.31s-3-2.2-5.61-.61-3.18,4.12-2.5,4.81a10.74,10.74,0,0,0,1.33.82c.88.51,1.89-1.84,2-1.86S68.47,102.31,68.47,102.31Z"></path>
      <path class="cls-19" d="M70.8,105.37S69,101.71,67.47,102s-3.17.51-3.17.51l-.24.8s2.08,2.19,2.72,2.25,1.8,0,2.08.09A13.63,13.63,0,0,0,70.8,105.37Z"></path>
      <path class="cls-10" d="M70.81,105.88c0-.36.06-1.31-.94-1.36a14.19,14.19,0,0,0-2,.08s-1.88,2.34-2.28,2.72-.7.44.75.51,1.5.41,2.69,0A3.72,3.72,0,0,0,70.81,105.88Z"></path>
      <path class="cls-11" d="M67.88,104.6a17.77,17.77,0,0,0-1.29,2.09c-.47,1-.54,1.26-1.46,1s-3.13,0-3.87-.65-.72-.6-.28-1.75A4.37,4.37,0,0,1,63.3,103a2.47,2.47,0,0,1,2.87-.1A6.49,6.49,0,0,1,67.88,104.6Z"></path>
      <path class="cls-8" d="M52.59,105.75S50.15,105.31,49,107s-.69,3.41-.08,3.62a6.53,6.53,0,0,0,1,.1c.68,0,.59-1.66.62-1.69S52.59,105.75,52.59,105.75Z"></path>
      <path class="cls-19" d="M54.89,106.9s-2.19-1.65-3-1-1.76,1.24-1.76,1.24l.1.55a7.68,7.68,0,0,0,2.29.55c.4-.16,1.1-.51,1.28-.56A10.28,10.28,0,0,0,54.89,106.9Z"></path>
      <path class="cls-10" d="M55.05,107.2c-.09-.22-.36-.8-1-.54a9.14,9.14,0,0,0-1.17.64s-.44,2-.56,2.31-.3.47.59.08,1-.2,1.61-.82A2.56,2.56,0,0,0,55.05,107.2Z"></path>
      <path class="cls-11" d="M52.91,107.3a11.36,11.36,0,0,0-.16,1.63c0,.73,0,.92-.57,1.06s-1.87.94-2.51.75-.61-.15-.68-1a2.88,2.88,0,0,1,.7-2.09,1.64,1.64,0,0,1,1.69-.9A4.28,4.28,0,0,1,52.91,107.3Z"></path>
    </g>
  </g>
</svg>
