<?xml version="1.0" encoding="UTF-8"?>
<svg xmlns="http://www.w3.org/2000/svg" xmlns:xlink="http://www.w3.org/1999/xlink" viewBox="0 0 165.38 332.47">
  <defs>
    <style>.cls-1,.cls-15{fill:none;}.cls-2{fill:#8e6848;}.cls-3{clip-path:url(#clip-path);}.cls-4{fill:url(#Безымянный_градиент_2);}.cls-5{fill:#713e21;}.cls-6{fill:#3d271f;}.cls-7{fill:#69391e;}.cls-8{fill:#6b472f;}.cls-9{fill:#5c3624;}.cls-10{fill:#795135;}.cls-11{fill:#9a734f;}.cls-12{fill:#cacac9;}.cls-13{fill:#85563a;}.cls-14{fill:#769b57;}.cls-15{stroke:#79a05b;stroke-miterlimit:10;stroke-width:0.64px;}.cls-16{fill:#486f3a;}.cls-17{fill:#79a05b;}.cls-18{fill:#b85848;}.cls-19{fill:#d5604b;}.cls-20{fill:#6b482f;}</style>
    <clipPath id="clip-path">
      <polygon class="cls-1" points="33.39 303.8 83.36 327.32 129.58 303.91 81.53 283.55 33.39 303.8"></polygon>
    </clipPath>
    <linearGradient id="Безымянный_градиент_2" x1="-2963.69" y1="-975.77" x2="-2960.89" y2="-975.77" gradientTransform="matrix(34.36, 0, 0, -34.36, 101842.98, -33218.41)" gradientUnits="userSpaceOnUse">
      <stop offset="0" stop-color="#9b714e"></stop>
      <stop offset="0.38" stop-color="#9b714e"></stop>
      <stop offset="0.89" stop-color="#764528"></stop>
      <stop offset="1" stop-color="#6e3c20"></stop>
    </linearGradient>
  </defs>
  <g id="Слой_2" data-name="Слой 2">
    <g id="Слой_1-2" data-name="Слой 1">
      <path class="cls-2" d="M83.36,261.16s9.62,11.3,17,11.76,32.82-7.56,32.82-7.56l2.55-26.43L83.36,220.44Z"></path>
      <path class="cls-2" d="M25.67,237.06l5.23,34.47s18.58,2.79,21.83,1.86,18.11-6.51,22.29-6.51,8.34-5.72,8.34-5.72V220.44Z"></path>
      <g class="cls-3">
        <rect class="cls-4" x="57.05" y="256.23" width="48.87" height="98.4" transform="translate(-227.88 370.4) rotate(-86.92)"></rect>
      </g>
      <path class="cls-5" d="M33.39,303.8,30.9,271.53s23.69-.46,30.19-3.72,22.27-6.65,22.27-6.65l-1.83,22.39Z"></path>
      <path class="cls-6" d="M67.16,273.53a8.54,8.54,0,0,0-2.84-1.66v0s-3.78-1.13-5.84,1.41-1.71,5.29-.77,5.73a12,12,0,0,0,1.63.35l.09,0A28.27,28.27,0,0,0,63,278.5a1.76,1.76,0,0,0,.6-.16l.65-.19c1.48-.46,1.67-.13,2.69-1A4,4,0,0,0,68,274.58l-.21-.5h0l0,0a1,1,0,0,0-.58-.51"></path>
      <path class="cls-6" d="M46.87,276.86a11,11,0,0,0-4,1.33v0s-4.3,2.7-3.59,6.84,3.66,6.13,4.88,5.6a15.27,15.27,0,0,0,1.71-1.28l0-.13c.92-1.05,1.59-3.16,2.2-4.05a2.17,2.17,0,0,0,.36-.72c.1-.21.21-.42.37-.79.81-1.82,1.29-1.71,1.3-3.46A5.12,5.12,0,0,0,48.58,277a3.36,3.36,0,0,0-.66-.22v0h-.07a1.26,1.26,0,0,0-1,.13"></path>
      <path class="cls-7" d="M83.36,261.16l-1.83,22.39,48.05,20.36,3.65-38.55s-15-1.73-21.49-.8-17.83,3.72-21.23,1.86a45.07,45.07,0,0,1-7.15-5.26"></path>
      <path class="cls-6" d="M65.05,284.16a3.38,3.38,0,0,0-1.25-.31h0a2.29,2.29,0,0,0-2,1.18c-.49,1.18-.05,2.18.35,2.24l.65-.06,0,0A13.53,13.53,0,0,0,64,286.5l.21-.13.22-.14c.5-.34.61-.24.89-.69a1.55,1.55,0,0,0,.13-1.08l-.13-.16h0Z"></path>
      <path class="cls-6" d="M112.14,274.52a2.32,2.32,0,0,0-.11-.89h0s-.38-1-1.27-1-1.42.51-1.37.78l.2.41,0,0,.75.63.13.1.15.11c.34.24.3.34.66.41a1.06,1.06,0,0,0,.74-.19l.07-.12h0v0Z"></path>
      <path class="cls-6" d="M125.56,290.71a11,11,0,0,0-1.9-3.82h0s-3.31-3.9-7.35-2.59-5.59,4.53-4.89,5.68a14.6,14.6,0,0,0,1.53,1.52l.14,0c1.18.77,3.39,1.13,4.37,1.61a2.24,2.24,0,0,0,.77.26l.84.26c1.93.54,1.9,1,3.64.79a5.19,5.19,0,0,0,3-2,3.74,3.74,0,0,0,.13-.68h0l0-.07a1.31,1.31,0,0,0-.28-1"></path>
      <path class="cls-6" d="M99.44,277.42a8.74,8.74,0,0,0-1.86,2.69l0,0s-1.4,3.67,1,5.9,5.11,2.09,5.62,1.19a14.4,14.4,0,0,0,.46-1.59l0-.1a32,32,0,0,0-.52-3.53,2,2,0,0,0-.12-.61c0-.17-.07-.35-.14-.66-.34-1.49,0-1.65-.8-2.74a4,4,0,0,0-2.45-1.26l-.51.17h0l0,0a.94.94,0,0,0-.54.53"></path>
      <path class="cls-8" d="M99.63,304.8a1.56,1.56,0,0,0,1.56-.41c.55-.7.43-1.44.18-1.55l-.44-.09c-.29,0-.32.7-.33.71Z"></path>
      <path class="cls-9" d="M98.68,304.22s.88.79,1.24.55a8.71,8.71,0,0,1,.8-.46l0-.24-1-.32-.57.19Z"></path>
      <path class="cls-10" d="M98.63,304.09c0,.1.12.35.39.27s.53-.23.53-.23l.33-1c.06-.14.14-.19-.25-.06s-.45,0-.72.29a1.11,1.11,0,0,0-.28.7"></path>
      <path class="cls-11" d="M99.55,304.13a5.57,5.57,0,0,0,.13-.7c0-.3,0-.39.28-.43s.84-.33,1.11-.22.25.08.25.44a1.26,1.26,0,0,1-.38.87.7.7,0,0,1-.75.32,1.78,1.78,0,0,1-.64-.28"></path>
      <path class="cls-8" d="M88.94,298.68s2.4.12,3.25-1.67.25-3.36-.36-3.49a6.06,6.06,0,0,0-1,0c-.66,0-.37,1.67-.39,1.7Z"></path>
      <path class="cls-9" d="M86.59,297.85s2.31,1.32,3,.62,1.53-1.4,1.53-1.4l-.15-.52a7.53,7.53,0,0,0-2.27-.25c-.36.2-1,.62-1.16.69Z"></path>
      <path class="cls-10" d="M86.41,297.58c.11.21.43.73,1,.4a9.36,9.36,0,0,0,1-.75s.18-1.94.25-2.29.23-.48-.58,0-1,.31-1.44,1a2.44,2.44,0,0,0-.27,1.66"></path>
      <path class="cls-11" d="M88.45,297.23a10.23,10.23,0,0,0-.06-1.59c-.09-.7-.15-.87.43-1.08s1.67-1.13,2.32-1,.6.07.77.84a2.84,2.84,0,0,1-.42,2.1A1.6,1.6,0,0,1,90,297.54a4,4,0,0,1-1.53-.31"></path>
      <path class="cls-8" d="M79,306.44s1.87,1.42,3.54.43,2-2.58,1.62-3a6.09,6.09,0,0,0-.83-.53c-.55-.33-1.21,1.15-1.25,1.17Z"></path>
      <path class="cls-9" d="M77.53,304.49s1.14,2.33,2.08,2.14,2-.3,2-.3l.16-.5s-1.3-1.4-1.7-1.44-1.14-.05-1.32-.08Z"></path>
      <path class="cls-10" d="M77.53,304.17c0,.23,0,.83.58.87a10.13,10.13,0,0,0,1.26,0l1.46-1.71c.26-.25.45-.27-.46-.33s-1-.27-1.71,0a2.36,2.36,0,0,0-1.13,1.19"></path>
      <path class="cls-11" d="M79.38,305a10.74,10.74,0,0,0,.82-1.32c.31-.61.35-.79.94-.65s2,0,2.44.44.45.39.16,1.11a2.83,2.83,0,0,1-1.48,1.47,1.59,1.59,0,0,1-1.82,0A4.13,4.13,0,0,1,79.38,305"></path>
      <path class="cls-8" d="M74.69,300a2.67,2.67,0,0,0,.1-2.73c-.86-1.21-2.11-1.39-2.41-1l-.35.68c-.22.44,1,.84,1,.87Z"></path>
      <path class="cls-9" d="M73.3,301.24s1.7-1,1.49-1.72-.36-1.51-.36-1.51l-.39-.09s-1,1.08-1,1.39,0,.87,0,1Z"></path>
      <path class="cls-10" d="M73.05,301.26c.18,0,.64,0,.63-.5a7.72,7.72,0,0,0-.11-1l-1.4-1c-.2-.17-.24-.32-.21.38s-.15.74.11,1.3a1.75,1.75,0,0,0,1,.78"></path>
      <path class="cls-11" d="M73.57,299.8a7.93,7.93,0,0,0-1.06-.54c-.49-.19-.63-.21-.56-.67s-.12-1.51.18-1.89.26-.37.83-.2a2.14,2.14,0,0,1,1.22,1,1.18,1.18,0,0,1,.15,1.38,3,3,0,0,1-.76.88"></path>
      <path class="cls-8" d="M66.22,302a1.17,1.17,0,0,0,.39-1.12c-.2-.61-.69-.84-.87-.73l-.22.23.28.49Z"></path>
      <path class="cls-9" d="M65.49,302.35s.83-.2.84-.52,0-.67,0-.67l-.15-.09-.59.45-.11.42Z"></path>
      <path class="cls-10" d="M65.38,302.33l.32-.13.08-.41-.45-.59c-.06-.1,0-.16-.14.13s-.15.29-.11.55a.77.77,0,0,0,.3.45"></path>
      <path class="cls-11" d="M65.78,301.79l-.37-.36-.14-.35.32-.76.36,0a.91.91,0,0,1,.38.58.52.52,0,0,1-.12.59Z"></path>
      <path class="cls-8" d="M63.63,306.69s1.63-2.64.13-4.72-3.66-2.39-4.18-1.77a8.62,8.62,0,0,0-.6,1.16c-.37.77,1.66,1.46,1.68,1.51Z"></path>
      <path class="cls-9" d="M61.22,308.85s2.94-1.8,2.57-3-.64-2.62-.64-2.62l-.68-.14s-1.69,1.88-1.69,2.42.07,1.51,0,1.75Z"></path>
      <path class="cls-10" d="M60.8,308.89c.3,0,1.1,0,1.07-.88a12.44,12.44,0,0,0-.19-1.66s-2.09-1.41-2.44-1.72-.41-.56-.36.66-.25,1.29.21,2.25a3.15,3.15,0,0,0,1.71,1.35"></path>
      <path class="cls-11" d="M61.68,306.35a14.22,14.22,0,0,0-1.84-.93c-.85-.33-1.09-.37-1-1.16s-.23-2.61.29-3.27.44-.65,1.44-.35a3.69,3.69,0,0,1,2.12,1.78A2.07,2.07,0,0,1,63,304.8a5.33,5.33,0,0,1-1.31,1.55"></path>
      <path class="cls-12" d="M81.49,254.49c-4,4.68-11.1,9.75-8.23,16.85.35.85,1.75.48,1.4-.39-2.64-6.53,4.17-11.16,7.86-15.43.61-.7-.41-1.74-1-1Z"></path>
      <path class="cls-12" d="M83.81,258.53c-4.35,2.6-9.56,3.18-13.88,5.81C65.8,266.86,64.25,271,63,275.45a.73.73,0,0,0,1.4.39c1.67-5.94,4.15-9.79,10.09-12,3.43-1.28,6.9-2.16,10.06-4.06.8-.48.07-1.74-.73-1.25Z"></path>
      <path class="cls-12" d="M82.59,261.08c-2,4.37-4,8.73-5.86,13.13-1.31,3-2.27,5.77-1.81,9.07.13.93,1.53.53,1.4-.38-.61-4.44,1.88-8.45,3.62-12.34l3.9-8.75c.38-.84-.87-1.58-1.25-.73Z"></path>
      <path class="cls-12" d="M81.84,264.17c-.71,3.35-1.52,6.08-4.24,8.37-1.84,1.56-3.84,2.58-5.45,4.42a18,18,0,0,0-4.2,10c-.11.93,1.35.92,1.46,0,.77-6.48,4.43-9.44,9.2-13.23,3-2.36,3.88-5.54,4.63-9.13.19-.92-1.21-1.31-1.4-.39Z"></path>
      <path class="cls-12" d="M77.78,272.57c-5.08,2.95-10.2,5.83-15.25,8.85A15.14,15.14,0,0,0,55.6,289l1.43.19.09-1.23c.06-.93-1.39-.93-1.46,0l-.08,1.23c-.07.89,1.14.89,1.42.2,2-4.81,6.27-6.76,10.48-9.2l11-6.4a.73.73,0,0,0-.74-1.26Z"></path>
      <path class="cls-12" d="M67.86,278c-2.82.67-7.14-.8-9,2.27-2,3.31,2.2,7.68.09,10.87a.74.74,0,0,0,.12.88l.09.12a.72.72,0,0,0,.7.19l.17-.05a.73.73,0,0,0,.32-1.22l-.05,0c-.71-.6-1.74.42-1,1l0,0,.32-1.22.44.13.12.88c1.24-1.89.47-4.9,0-7-.26-1.13-.52-3.26.18-4.27.59-.85,2.19-.94,3.12-1a25,25,0,0,0,4.74-.26c.91-.21.52-1.61-.39-1.4Z"></path>
      <path class="cls-12" d="M61,277.71a21.4,21.4,0,0,0-8.38-1.34c-.93,0-.94,1.49,0,1.45a20.51,20.51,0,0,1,8,1.29c.88.33,1.26-1.08.39-1.4Z"></path>
      <path class="cls-12" d="M57.81,282.09c-1.85,2.58-5.74,6.26-4.06,9.71.41.84,1.67.11,1.26-.73-.78-1.61.5-3.27,1.38-4.52l2.67-3.72c.55-.76-.71-1.49-1.25-.74Z"></path>
      <path class="cls-12" d="M83.19,262.39A8.58,8.58,0,0,1,81.55,270c-.94,1.19-2.27,2-3.14,3.22-1.7,2.43-1.52,5.51-1.29,8.33l.92-.7-1.22-.26c-.91-.19-1.3,1.21-.39,1.4l1.22.26a.73.73,0,0,0,.92-.7c-.19-2.32-.47-5.07.78-7.16,1-1.58,2.71-2.48,3.78-4A10.18,10.18,0,0,0,84.59,262c-.21-.91-1.61-.53-1.4.38Z"></path>
      <path class="cls-12" d="M83.76,271.13c0,4.06-.13,8-1.59,11.87-1.08,2.82-2.38,5.29-2.43,8.39a.73.73,0,0,0,1.46,0c.06-3.82,2.26-6.89,3.19-10.48a39.17,39.17,0,0,0,.83-9.78.73.73,0,0,0-1.46,0Z"></path>
      <path class="cls-12" d="M69.09,304.83c2.51-6.73,7-10.66,12.52-14.94,4.14-3.2,6.92-6.62,7.92-11.84.17-.91-1.23-1.3-1.4-.38-1.47,7.66-7.33,10.37-12.65,15.1a28.67,28.67,0,0,0-7.79,11.68c-.32.87,1.08,1.25,1.4.38Z"></path>
      <path class="cls-12" d="M66,300.39l.33-3.46c.15-1.64-.1-3.32,1.83-3.88a19.7,19.7,0,0,1,3.84-.3l4.27-.33c.92-.07.93-1.52,0-1.45l-6.83.52c-1,.08-2.55-.05-3.44.66a2.88,2.88,0,0,0-.87,2.09c-.29,2-.39,4.11-.58,6.15-.09.93,1.36.92,1.45,0Z"></path>
      <path class="cls-12" d="M63.22,298.57a12.76,12.76,0,0,0,3.2-4.19c.4-.84-.85-1.58-1.26-.73a11.81,11.81,0,0,1-3,3.9c-.7.61.33,1.64,1,1Z"></path>
      <path class="cls-12" d="M66.37,308.7c5.62.84,13.67,3.46,16.93-3,1.52-3,1.53-6.72,2.16-10A76.7,76.7,0,0,1,89.64,282c.35-.87-1.06-1.24-1.4-.38a79.89,79.89,0,0,0-4.78,17.37c-.37,2.29-.59,4.48-1.84,6.48-3,4.83-10.2,2.58-14.86,1.88-.91-.14-1.31,1.26-.39,1.4Z"></path>
      <path class="cls-12" d="M77.93,304.06a77.29,77.29,0,0,1,7.51-9.14c.65-.67-.38-1.7-1-1a78.53,78.53,0,0,0-7.75,9.42c-.54.77.72,1.5,1.26.74Z"></path>
      <path class="cls-12" d="M69.8,315.2a4.6,4.6,0,0,1,3.27-5.95c.91-.21.53-1.62-.39-1.41a6.06,6.06,0,0,0-4.28,7.75c.31.88,1.72.5,1.4-.39Z"></path>
      <path class="cls-12" d="M77.21,319.68c1.52-4.27,4.46-7.06,6.37-11,1.84-3.77,2-8.18,3.81-12.06.39-.85-.86-1.59-1.25-.74-2.2,4.79-2.55,10.05-5.52,14.43a39.08,39.08,0,0,0-4.81,9c-.31.88,1.09,1.26,1.4.39Z"></path>
      <path class="cls-12" d="M83.09,256.49a8.61,8.61,0,0,0,9.86,8.1c.92-.14.53-1.54-.39-1.4a7.15,7.15,0,0,1-8-6.7c0-.93-1.48-.93-1.45,0Z"></path>
      <path class="cls-12" d="M83.88,262.85c1.74,3.85,6.58,4.14,10.25,5,6.5,1.46,12.86,2.94,18.62,6.41a.73.73,0,0,0,.74-1.26,46.79,46.79,0,0,0-12.43-5c-4.17-1.09-13.91-1.36-15.93-5.82-.38-.85-1.64-.11-1.25.73Z"></path>
      <path class="cls-12" d="M89.46,267.19c2.13,1.39,4.41,1.53,6.87,1.82,4.28.5,7.08,2.78,10,5.76.66.67,1.68-.36,1-1-2-2.06-4.18-4.22-6.94-5.31-3.34-1.33-7.14-.47-10.25-2.5-.78-.51-1.51.75-.73,1.26Z"></path>
      <path class="cls-12" d="M99.53,269.62A12.71,12.71,0,0,0,108,282c.88.31,1.26-1.09.38-1.41A11.21,11.21,0,0,1,101,269.62c0-.93-1.42-.93-1.45,0Z"></path>
      <path class="cls-12" d="M88.74,268.71c5.91,6.27,10.18,17.41,20.55,16.49.92-.08.93-1.53,0-1.45-9.81.87-13.88-10.09-19.52-16.07-.65-.68-1.67.35-1,1Z"></path>
      <path class="cls-12" d="M88.23,271.85c6.53,4.07,13.21,9.52,20.88,11.14.91.2,1.3-1.2.39-1.4-7.45-1.57-14.19-7-20.54-11-.8-.49-1.53.77-.73,1.26Z"></path>
      <path class="cls-12" d="M87,272.62c.17,3.38,1.24,6.31,2.34,9.48a43.61,43.61,0,0,1,2.41,12.66c0,.93,1.49.93,1.45,0a42.33,42.33,0,0,0-1.45-9.95c-1.17-4.11-3.08-7.85-3.3-12.19,0-.93-1.5-.94-1.45,0Z"></path>
      <path class="cls-12" d="M85.21,275.3c4.15,6.59,13.63,7.49,16.92,14.67.39.85,1.64.11,1.25-.73-3.34-7.31-12.77-8.09-16.91-14.67-.5-.79-1.76-.06-1.26.73Z"></path>
      <path class="cls-12" d="M87.52,287.24c1.77,3.79,6.29,4,10,4.63,5.81.92,14.65.11,19.28,4.05.71.6,1.74-.42,1-1-2.69-2.29-5.78-2.73-9.21-3.08-4.75-.5-17.39-.11-19.82-5.3-.4-.85-1.65-.11-1.26.73Z"></path>
      <path class="cls-12" d="M101,292.52a34.94,34.94,0,0,1,6.56,13.36.73.73,0,0,0,1.4-.39,36.61,36.61,0,0,0-6.93-14c-.59-.74-1.61.3-1,1Z"></path>
      <path class="cls-12" d="M86.21,287.82c4.05,5.62,7.16,11,8.13,18a192.06,192.06,0,0,1,1.58,19.31c0,.93,1.49.94,1.45,0a182.65,182.65,0,0,0-1.71-20.37c-1-6.84-4.2-12.13-8.2-17.67-.54-.75-1.8,0-1.25.73Z"></path>
      <path class="cls-12" d="M86.54,287.26a308,308,0,0,1-1.75,38.65c-.1.93,1.35.92,1.45,0A308,308,0,0,0,88,287.26a.73.73,0,0,0-1.46,0Z"></path>
      <path class="cls-12" d="M95.32,307.87a18.87,18.87,0,0,1,6.86,10.34.73.73,0,0,0,1.4-.39,20.39,20.39,0,0,0-7.52-11.2c-.75-.57-1.47.69-.74,1.25Z"></path>
      <path class="cls-12" d="M94.89,307.26A16.18,16.18,0,0,0,105.52,312c.94,0,.93-1.4,0-1.46a14.6,14.6,0,0,1-9.6-4.34.73.73,0,0,0-1,1Z"></path>
      <path class="cls-12" d="M82.74,253.12l.17,9.75a.73.73,0,0,0,1.45,0l-.17-9.75a.73.73,0,0,0-1.45,0Z"></path>
      <path class="cls-12" d="M83.43,249.3c-3.75,5.95-.31,13-1.9,19.51-.22.9,1.18,1.29,1.4.38,1.53-6.22-1.8-13.52,1.75-19.15.5-.8-.75-1.53-1.25-.74Z"></path>
      <path class="cls-12" d="M84.34,264.28A26.79,26.79,0,0,1,86,274.51c0,.94,1.42.94,1.45,0a27.87,27.87,0,0,0-1.68-10.62c-.32-.87-1.72-.49-1.4.39Z"></path>
      <path class="cls-12" d="M83.42,265.87v9.38a.73.73,0,0,0,1.45,0v-9.38a.73.73,0,0,0-1.45,0Z"></path>
      <path class="cls-12" d="M85.75,267.75l-.37,6.93c-.13,2.27.06,4.84-1.33,6.77-.55.76.71,1.48,1.26.73,1.17-1.63,1.29-3.42,1.41-5.37.17-3,.32-6,.49-9.06.05-.93-1.41-.93-1.46,0Z"></path>
      <path class="cls-12" d="M84.9,274.3a32.77,32.77,0,0,1-3.56,11.12c-.44.83.81,1.56,1.25.74a34,34,0,0,0,3.72-11.47c.12-.92-1.28-1.31-1.41-.39Z"></path>
      <path class="cls-12" d="M84.11,267.58l1.35,9c.14.92,1.55.53,1.41-.39l-1.36-9c-.14-.92-1.54-.53-1.4.39Z"></path>
      <path class="cls-12" d="M84.09,264a65.1,65.1,0,0,0,1.41,10.22.73.73,0,0,0,1.4,0l.27-1.39c.18-.92-1.22-1.31-1.4-.39l-.27,1.39h1.4A63.69,63.69,0,0,1,85.54,264c-.05-.93-1.5-.94-1.45,0Z"></path>
      <path class="cls-12" d="M85.6,266.25a22.15,22.15,0,0,0,1.76,6.39.73.73,0,0,0,1.14.15,4.44,4.44,0,0,0,1.15-3.94c-.1-.68-1-.64-1.33-.18l-.86,1.26,1.33.18-1.46-5a.73.73,0,0,0-1.4,0,12.16,12.16,0,0,0-.08,4.5c.11.7,1,.61,1.33.18A5.57,5.57,0,0,0,88.37,266l-1.43.19.53,2.86c.16.84,1.39.58,1.43-.2a9.75,9.75,0,0,0-2.27-6.9c-.59-.72-1.62.31-1,1a8.19,8.19,0,0,1,1.85,5.87l1.43-.19-.54-2.85a.72.72,0,0,0-1.42.19,4.4,4.4,0,0,1-1,3.09l1.33.18a10,10,0,0,1,.08-3.74h-1.4l1.46,5a.74.74,0,0,0,1.33.18l.86-1.26-1.33-.18a2.61,2.61,0,0,1-.78,2.53l1.15.15a19.52,19.52,0,0,1-1.56-5.66c-.12-.91-1.57-.92-1.46,0Z"></path>
      <path class="cls-12" d="M86.35,277.91a41,41,0,0,1-.59,11.27l1.42.19-.06-1c-.05-.93-1.51-.94-1.45,0l.06,1c0,.77,1.26,1,1.43.19a42.15,42.15,0,0,0,.64-11.65c-.08-.93-1.53-.93-1.45,0Z"></path>
      <path class="cls-12" d="M85.22,276.39a202.33,202.33,0,0,1-.5,23.49c-.07.86,1.17.93,1.42.19l2.39-7c.3-.89-1.1-1.27-1.4-.39l-2.39,7,1.43.19a204.58,204.58,0,0,0,.51-23.49c0-.93-1.49-.94-1.46,0Z"></path>
      <path class="cls-12" d="M85.05,280.91a7.5,7.5,0,0,1-.54,3.83c-.37.85.88,1.59,1.25.74a9,9,0,0,0,.74-4.57c-.1-.92-1.55-.93-1.45,0Z"></path>
      <path class="cls-12" d="M87.55,279.37A43,43,0,0,0,89,290.84a.73.73,0,0,0,1.41-.38A41.07,41.07,0,0,1,89,279.37a.73.73,0,0,0-1.46,0Z"></path>
      <path class="cls-12" d="M87.29,288.59a21.48,21.48,0,0,0-1,7.12.73.73,0,0,0,1.43.19,30.91,30.91,0,0,0,.13-21.75c-.32-.87-1.72-.49-1.4.39a29.64,29.64,0,0,1-.14,21l1.43.2a20.41,20.41,0,0,1,.94-6.73c.28-.89-1.12-1.28-1.4-.39Z"></path>
      <path class="cls-12" d="M85.79,273.57l-.5,2.91a.73.73,0,0,0,1.4.39,9.22,9.22,0,0,0,.43-3.5c-.06-.92-1.51-.93-1.45,0a8.19,8.19,0,0,1-.38,3.11l1.4.39.5-2.91c.16-.92-1.24-1.31-1.4-.39Z"></path>
      <path class="cls-12" d="M83.09,260.06a29,29,0,0,0,2.59,5.7.74.74,0,0,0,1.36-.37,10.87,10.87,0,0,0-.57-4.7.74.74,0,0,0-1.07-.44,7.59,7.59,0,0,0-4.28,7.16.73.73,0,0,0,1.09.62,4,4,0,0,0,2.13-2.61.74.74,0,0,0-1.07-.82,6.34,6.34,0,0,0-2.07,1.92l1.32.56a37.85,37.85,0,0,0,.46-8c0-.93-1.5-.94-1.45,0a36.28,36.28,0,0,1-.41,7.58.73.73,0,0,0,1.33.56,4.64,4.64,0,0,1,1.56-1.4L82.94,265a2.73,2.73,0,0,1-1.46,1.74l1.09.63a6.17,6.17,0,0,1,3.57-5.9l-1.07-.44a9.91,9.91,0,0,1,.52,4.32l1.35-.37a26.36,26.36,0,0,1-2.44-5.35c-.3-.88-1.7-.5-1.41.39Z"></path>
      <polygon class="cls-13" points="25.47 237.36 83.4 262.87 136.05 239.34 83.4 219.77 25.47 237.36"></polygon>
      <path class="cls-14" d="M87.44,31.21c.32-.72,5.86-10.2,9.88-11.08,0,0,2.09,0,1-1.85s7.63-4.09,7.87-4.41,1.69-1.69.56-3,7.55-3.3,7.55-3.3,1.12-.88.48-1.84,8.43-2.65,8.43-2.65,1.53-1.61-2.73-1-8.19,1.21-8.19,1.21,1.13-3.86-1.2-3.29c0,0-3.75,5.05-5.61,5.86,0,0-1.38-3-3.3-1.77l-4.26,6.26s-2.09-2.81-4.18.08S91.46,18,91.46,18a4.23,4.23,0,0,1-.65-2.35s-.08-.78-2-.38c0,0,1.44-10.76-3-6.74,0,0-3.14-8-4.82-7.31,0,0-1.21,0,0,2.17s5.62,13.17,4.49,25.45c0,0-.56.64.33,2.41a5.65,5.65,0,0,1-.17,1.85c-.24.64-.29-.35-2-.51a2.64,2.64,0,0,1,.27-2.14c.64-1.39,1.55-5.73-2.52-5.46,0,0,0-6.1-1-6.43s-1.84,6.21-1.84,6.21-5-1.55-1,5.09c0,0,.59.16-.27,1.34s.75,4.49,4.45,7l1.44,1.18a27.23,27.23,0,0,0,.87,3.42c1.55-.48,4.16-2.08,6.31-1.76s4.33,2.08,4.65.59-.1-2.84-.91-3.27,2.52-.53,4.71-.64,2.89-1.71,1.56-2.46,8.13-1.93,9.58-1.77,2.73-.91-1-1.07-3.85.69-3.69-.16-.32-4.23-6.21.05c0,0-1.34,1.13-1.28-.8s-3.48-1.88-5.36.75-2.62,2.73-2.78,1.6.7-2.08.32-2.46-1.39.7-2.25,1.77-1.28.53-.8-.7Z"></path>
      <path class="cls-14" d="M84,59.05c.45,1.13,6.42-3.32,7.81-3s2.78,0,2.89-1.39c0,0,7.07,1.07,7.92.75s2.68-2.47,0-4.29c0,0,7.18-1.92,9.32-5.24s-3,.43-5,.43-2.33.16-3,.08-.08-2.89-2.33-2.41a6.73,6.73,0,0,1-1.92,1.36,43.63,43.63,0,0,0-4.9,1.85,3.74,3.74,0,0,1-1.85.56c-.24,0,.72-4.33-2.89-2s-5.22,4-5.46,5.74S82.92,56.29,84,59.05Z"></path>
      <path class="cls-14" d="M63.11,77.3a7.35,7.35,0,0,1-1.2-3c-.16-1.85,1.76-15.26-3.86-12.85,0,0,1.29-9.23-2.57-4.41,0,0-.56,1.15-1.92-1.4s-4.1-6.87-3.46-1.82c0,0,1.61,4.1,1.29,4.82S49,58.51,50,60.6s1.55,1.65-.3,2.25C46,64.05,57,74.33,63.11,77.3Z"></path>
      <path class="cls-14" d="M41.51,72.88a15.26,15.26,0,0,1-8.27-3.21c-4-3.13-9.15-7.38-9.71-7.71S20,63.89,22.08,69.11c0,0,1.61,2.09-1.36,1.2s-10.12-5.21-12-2.16,0,3.69,0,3.69A19.29,19.29,0,0,0,1,75.69c-3,2.82,2.09,2.65,2.49,2.65s6.59-1.68,6.75-.56-1.21,4.5,2.65,4,5.86-4.57,6.74-4.49,2.09.31,1.53,2.08-.65,5,3.69,3.93,8.27-5.78,8.51-5.06-.48,1.21-1.2,1.69-4.9,5.7-5.7,7.79-7.23,5.46-6.91,14.45c0,0,.08,2.81,1.77,2.25,0,0-1.13,6.91,3.29,9.07,0,0,1.12,10,3.45,10.2,0,0-.64-11.64,1-15,0,0,.4-10.84,1.12-15.34s.75-14.81,11.4-19.67Z"></path>
      <path class="cls-14" d="M81.34,47c-.48-1-.16-3.86-3.86-6.67s-2.4-8.35-7-4.73c0,0-3.77-3.13-3.85-4.82s-2.17-.8-1.69,1.2-1.85,3.38,2.89,9.16c0,0,.48.49-.56,1.25s-.16,2.44,2.57,3.24,11.83,3,13.75,10.12Z"></path>
      <path class="cls-14" d="M115.71,67a37.87,37.87,0,0,1,1.92-4.73c.48-1,.89-10,1.93-12.21s1.93-5,5.62-4c0,0,3.69-1.76,4.18-3.73s2.32-3.9,3.53-3.74,2.57-.08,2.89.48,1.61-.08,1.93.16,3.13-1.44,2.65.16-3.22,3.86-3.22,3.86,3.22,2.4-3,4.89c0,0-1.28.32-.16,2.09s1.93,5.7-5,6.67c0,0-6.58,5.86-6.9,4.25s-3,5.86-4.74,5.86S115.87,67.91,115.71,67Z"></path>
      <path class="cls-14" d="M115.06,68.39s.65-8.83,0-10.2,1.28-3.29.64-3.93-3.09,2-3.23,3.61-2.55-.24-2.63,1.85,1.29,5.7,2.25,7.22A3.59,3.59,0,0,0,115.06,68.39Z"></path>
      <path class="cls-14" d="M124.38,64.41s17.29-19.23,16-7.91c0,0,13.28-7.14,11,1,0,0-.16,1.52,3.53.24s5.46-1.29,5.86,2c0,0,3.45,1.36,3,2.73,0,0,3.71,1.35.05,2,0,0-2,2-3.42,0,0,0-1.44,3.9-7.15-2.29,0,0-.4,4.25-4.73,2.29s-4.42-2.2-6.43-2c0,0-.24.48.65,1.6s1,4.35-9,1.57S124.38,64.41,124.38,64.41Z"></path>
      <path class="cls-14" d="M111.44,70.33c-.25,0,24.58-2.18,34.78,10.82,0,0,.36,1.85-1.35,1.21s2.63,7.07,2.07,9.23-.4,2.81-2.41,2.25c0,0-4,9.88-2.81,14.78,0,0-5.94.48-6.58-12.13,0,0-6.67-.4-3.46-9.47,0,0,.49-2.33-1.28-1.13s-5.06-1-4-6.9C126.39,79,120.52,72.09,111.44,70.33Z"></path>
      <path class="cls-14" d="M99.81,82.84s27-19,23.44,12.21c0,0-.64,3.21-3.37,0s-5.46-5.63-5.94-5.63-.56.65-.64.89-1.21,3.37-3.94-.24S101.57,81.72,99.81,82.84Z"></path>
      <path class="cls-14" d="M106.79,90s12,8,6.35,10.36c0,0,5.06,7.54,2.08,9.55,0,0,2.33,4.5-.48,4.34,0,0-1.53,9.72-3,0,0,0-2.09-.57-.64-4,0,0-2.41.56-1.21-7.3,0,0-7.22,6.18-4.09-11.89C105.75,91,104.51,88.33,106.79,90Z"></path>
      <path class="cls-14" d="M109,127.32c-.56.49,9.56-13.81,11.64-16.46s5.54-4.41,7,0c0,0-1.37,1.53,3.53-.32s10.2-6.58,11.24-1.92c0,0,3.54-2.57,3.38.8s2,2.33,2.33,2.33,4.41,1.28,0,3.13c0,0-2.65.64-3.94-.08s-.8,1.52-.16,1.85,2.73,4.33-1.69,2.73a6.82,6.82,0,0,0-6-2.4c-4.09.31-5.81,0-4.07,1.58s4.47,5.31-.34,4.11S118.84,118.73,109,127.32Z"></path>
      <path class="cls-14" d="M117.47,133.75s5-2.81,11.56,1.12c0,0,4.51,2.49.57,3.78,0,0,9.39,8.19,4.41,8,0,0,1.93,6.34.32,7.22,0,0-2.08-5.3-3.13-6.18a2.75,2.75,0,0,1-3.21-2.17c-.88-2.73-1.28-4-1.85-3.93s-.08,1.19-.48,1.72-1,1.49-3.13-1.16-4.25-5.14-5.06-6.42S117.47,133.75,117.47,133.75Z"></path>
      <path class="cls-14" d="M94.51,146s7.63-6.74,11.8-7.06,6.83-1.37,4.66,2.81c0,0-1.93,1.12,2.41,2.49a10.8,10.8,0,0,0,7,.2c.63,0,5.38.44,3.21,3.25,0,0-1.52.48,1.29,1.45s6.26,2.56,7.31,7.94c0,0,2.41,2.09,1.44,2.73S124.54,154,123,153.9c0,0,1.45,5.54-3.61,4.9a4.48,4.48,0,0,1-2.81-3.05c-.88-2.57-5.22-4.58-5.22-4.58s-1.22-.56-.81.81-.92,3-1.54,3.37-2.15,1.85-3.19-.56S97.56,145.55,94.51,146Z"></path>
      <path class="cls-14" d="M68.65,82.84s-7.14-2.25-13.33,4.66c0,0-1.43,1.93.73,2.49,0,0-6.27,5.06-6.35,8s-.08,2.08.64,2.73-.24,7.3,1.93,9,2.49-8.11,2.49-8.11,2.46,3.82,4.4-8.81c0,0,4.84,2.71,5.88-2.67s3.85-6.18,5.62-5.94S68.65,82.84,68.65,82.84Z"></path>
      <path class="cls-14" d="M57.81,77.31c.4,0-12.59,1-8.14,11.47,0,0,2.84,8.59-2.62,6.59a26,26,0,0,0-1,6.34c.16,2.25-.24,4.26-2.25,3.37,0,0,.48,4.42-.8,4.42S39.75,109,37.9,102c0,0-4.74.88-3-4.5S38.3,77.8,57.81,77.31Z"></path>
      <path class="cls-14" d="M66.5,114S16,101.87,27.53,153.9c0,0,1.28,1.77,1.92-2.25s1.13-13.65,3.7-15.25c0,0,1.2,3.21,3.41-.32C36.56,136.08,37.06,109.73,66.5,114Z"></path>
      <path class="cls-14" d="M62.79,116.24c.41-.06-27.46,2.49-16.3,32,0,0,4.58,2.25,6.42-12.68,0,0,7.39,3,6-4.58S61.75,116.4,62.79,116.24Z"></path>
      <path class="cls-14" d="M84.55,138.61s-11.24-16.4-14.77-8.47c0,0-17.93.42-7,20.12,0,0,1.52,1.93,3.44-5.78,0,0-.75-2.25,2.47-.43s4.63,3.22,6.38-1.28,6.25-1.71,7.53-2S85.21,139.54,84.55,138.61Z"></path>
      <path class="cls-14" d="M54.25,157.54s-4.82-13.33-7.76-9.34c0,0-1.34,2.06-5-2.54,0,0-.85-1.61-2.57,0,0,0-1.07-1.82-2-1.71,0,0-1.07-1.72-1.61-1.07s.65,1.92.65,1.92-1.08-.1.64,2c0,0-1.82,3.21,6.1,4.81C42.69,151.65,34.87,156.15,54.25,157.54Z"></path>
      <path class="cls-14" d="M64.42,166.54s1.72-8.68-1.07-13.81c0,0-.75-1-1.28,0,0,0-1.55-3.91-2.36-4,0,0-1.39-5.62-1.82,0,0,0-1.76-.53-.8,4.07C57.09,152.83,51.47,152.4,64.42,166.54Z"></path>
      <path class="cls-14" d="M63.43,166.54s-8.75-4-19.91,3.5c0,0-1.08,1.85,1.19,2a16.6,16.6,0,0,0-1.83,11.32s.08,2.09,2.17-.48,2.81-5.3,3.37-5.22,1.52,2.33,2.49,1.12S56.29,166.46,63.43,166.54Z"></path>
      <path class="cls-14" d="M75.32,184.17a12.93,12.93,0,0,0-11.24-3.69c-7,1.12-3.67,3.69-3.67,3.69s-10.07,4.18-4,16c0,0,1.52,1.69,2-.64s-.08-2.81.89-4.9,2.41-5.22,3.13-4.9,1.61,3.38,3,.41S70.74,182.88,75.32,184.17Z"></path>
      <path class="cls-14" d="M95.93,188.51a1.36,1.36,0,0,0,.49-.6c.81-2.34,3.51-12.41,6.12-14.63s3.24-4.84,4.33-.42c.16.62-.22,1.14-.51,1.72,0,0,.55-.34,2.66-1.73,4.54-3,11.29-7.92,10.22-4.07s-2.45,3.54.11,3.54,7.34-1.07,10.25-.64,6,1.71-1.37,2.56c-6,.71-3.5,1.19-2.37,1.34a1.74,1.74,0,0,1,.89.41c.77.66,1.74,2-3.55,1.88-7-.2-5-.09-4.71.55s2.25,4.82-2.57,4a16.75,16.75,0,0,0-8,.22c-.43.1,6.75,2.89,1.13,3.64s-8.09,2.78-11.19,2.67C95.83,188.84,95.74,188.64,95.93,188.51Z"></path>
      <path class="cls-14" d="M75.77,182.81c.31.65,3.32-9.31,7.28-6.85,0,0-.65-5.58-5.58-5a4,4,0,0,0-3.63,3.48C73.61,176.17,73.9,178.87,75.77,182.81Z"></path>
      <path class="cls-14" d="M93,193.52s17.18-4.13,4.28,15.14a44.42,44.42,0,0,1-.64-4.55c-.11-1.82-2.32,1.51-.79-4.71,0,0-3.17.16-1.57-4.87C94.29,194.53,94.67,193.41,93,193.52Z"></path>
      <path class="cls-14" d="M91.83,193.15s3.32-6.81,3.53-10.88a87.64,87.64,0,0,0-.85-12.74c-.22-1.39-2.68,2.67-2.68,7.33s1.82,5.2,0,4.66-2.89-1.22-3.75,1.32S91.83,193.15,91.83,193.15Z"></path>
      <path class="cls-14" d="M73.77,205.08s-19.2-9-18.34,14.13c0,0,1.53,2.89,4-6.1,0,0-.75-.43,2.14-.64S68.13,202.94,73.77,205.08Z"></path>
      <path class="cls-14" d="M88,225.21s6.73-7.28,9.57-1.29a15.7,15.7,0,0,0,4.54,3.75c2.59,1.28,10.4,5.57,1.73,5.46s-8.56-6.53-9.95-7.07S91.08,224.46,88,225.21Z"></path>
      <path class="cls-15" d="M83.84,60.9a7.56,7.56,0,0,0,2.56,2.26c.94.65,3.19,2.41,3.21,3.56"></path>
      <path class="cls-16" d="M89.21,65.26s2.3,0,2.09-2.14.69.37.42,1.07-.59,1.71-1.23,1.92c0,0-1.28,1.82-2.46,1.07,0,0-1.28,1.29-2.3.59,0,0,3-1.12,2.78-2.09S89.21,65.26,89.21,65.26Z"></path>
      <path class="cls-16" d="M73.84,95.18s1-1.57,2-1.16c0,0-1.29,1.5-1,2.45A8,8,0,0,1,75.4,99a15.57,15.57,0,0,0-1.56-1.87A1.57,1.57,0,0,1,73.84,95.18Z"></path>
      <path class="cls-16" d="M76.6,150.08s1.17-3.22,3-2.65c0,0-1.68,2.38-1.36,3.9S76.6,150.08,76.6,150.08Z"></path>
      <path class="cls-17" d="M96.18,12.41c-5.06,8.22-9.49,17-11.37,26.53a66.86,66.86,0,0,0-1.11,14.4c.11,4.83.52,9.65.87,14.49.78,9.68.9,19.4,1.08,29.08s.17,19.4.1,29.1c-.14,19.39-.63,38.78-1.13,58.16s1,38.63.52,58.16l-3.53-.12c.74-19.24-.6-38.67.3-58.13s1.54-38.73,2-58.1c.2-9.68.33-19.37.32-29s0-19.37-.62-29c-.27-4.83-.6-9.68-.62-14.54a66.09,66.09,0,0,1,1.37-14.51C86.39,29.28,91,20.54,96.18,12.41Z"></path>
      <path class="cls-17" d="M131,61.45c-16.66,4.11-31.68,14.22-40.66,29a61.77,61.77,0,0,0-6,13.36c-.28.89,1.11,1.27,1.39.39a61.47,61.47,0,0,1,32-36.45,69.34,69.34,0,0,1,13.71-4.9c.9-.22.52-1.62-.39-1.4Z"></path>
      <path class="cls-17" d="M117.55,118.56A135.91,135.91,0,0,0,83.3,174.11l-2.15-.72A137,137,0,0,1,117.55,118.56Z"></path>
      <path class="cls-17" d="M96,186.41c-5.9,6.27-12.12,13.07-13.84,21.79-.24,1.21,1.61,1.73,1.85.51,1.67-8.4,7.67-14.89,13.35-20.93.85-.91-.51-2.27-1.36-1.37Z"></path>
      <path class="cls-17" d="M71.32,205.7c1.67,0,3.14,1.24,4.48,2.28,1.56,1.2,3.2,2.38,5.25,2.43a1,1,0,0,0,0-1.92,4.82,4.82,0,0,1-2.27-.75,22.12,22.12,0,0,1-2.31-1.66c-1.52-1.17-3.16-2.29-5.15-2.31a1,1,0,0,0,0,1.93Z"></path>
      <path class="cls-17" d="M52.38,157.53A58.21,58.21,0,0,1,69,175.44C73.57,183,77.44,191,81.56,198.76c.58,1.1,2.24.13,1.66-1-4.25-8.06-8.23-16.37-13-24.1a60.24,60.24,0,0,0-16.82-17.83c-1-.71-2,1-1,1.67Z"></path>
      <path class="cls-17" d="M84.08,227.94l6.68-3.35a1,1,0,0,0,.34-1.31,1,1,0,0,0-1.32-.35l-6.67,3.35a1,1,0,1,0,1,1.66Z"></path>
      <path class="cls-17" d="M77.48,150.18a7.79,7.79,0,0,1,3.4,1.66,11.46,11.46,0,0,1,2.78,2.69c.35.51,1.19,0,.84-.48a12.73,12.73,0,0,0-3.13-3,8.73,8.73,0,0,0-3.89-1.8.49.49,0,0,0,0,1Z"></path>
      <path class="cls-15" d="M54.51,113.13c25.57,0,27.09,12.68,29.57,22.83"></path>
      <path class="cls-17" d="M74,108.12c-.59-2.34,1.29-4.77,3.51-5.38s4.69-.23,6.91.1c.61.1.87-.83.26-.93a35.48,35.48,0,0,0-4-.41,10.24,10.24,0,0,0-4,.48c-2.47,1-4.32,3.73-3.65,6.4a.48.48,0,0,0,.93-.26Z"></path>
      <path class="cls-17" d="M74.71,96.94a25.75,25.75,0,0,1,5,2.48,24.82,24.82,0,0,1,4.52,3.3c.45.43,1.13-.25.68-.68a25.87,25.87,0,0,0-4.72-3.45A26.93,26.93,0,0,0,75,96c-.59-.2-.84.73-.25.93Z"></path>
      <path class="cls-17" d="M38.3,74.3A55.32,55.32,0,0,1,76.16,88.39,53,53,0,0,1,84,97.11c.53.75,1.79,0,1.25-.73A56.84,56.84,0,0,0,50.34,73.91a54.05,54.05,0,0,0-12-1,.72.72,0,0,0,0,1.44Z"></path>
      <path class="cls-17" d="M71.06,50.4a4.82,4.82,0,0,1,2.71,1A8.18,8.18,0,0,1,76,53.48a.5.5,0,0,0,.66.17.49.49,0,0,0,.17-.66,9.75,9.75,0,0,0-2.53-2.43,5.82,5.82,0,0,0-3.2-1.12.48.48,0,0,0,0,1Z"></path>
      <path class="cls-17" d="M74.58,58.6a4.34,4.34,0,0,1,.8-3.81A5.23,5.23,0,0,1,78,53a3.4,3.4,0,0,1,3,.38,5.64,5.64,0,0,1,1.66,2.44,15.39,15.39,0,0,1,.86,3.33c.1.62,1,.36.93-.25-.34-2.21-1-4.9-2.91-6.32-2.13-1.6-5.24-.41-6.8,1.43a5.36,5.36,0,0,0-1.12,4.82c.14.61,1.07.35.93-.25Z"></path>
      <path class="cls-17" d="M65.14,60.57A13.88,13.88,0,0,1,74,56.93c.62,0,.62-1,0-1a14.89,14.89,0,0,0-9.49,3.92c-.46.42.23,1.1.68.68Z"></path>
      <path class="cls-17" d="M70.78,70.45a26.17,26.17,0,0,0,.84-8.58,6.09,6.09,0,0,1,.21-3.28A2.55,2.55,0,0,1,74,56.93c.62,0,.62-1,0-1-2,.07-3.34,2.1-3.41,4-.07,1.67.32,3.32.2,5a35.36,35.36,0,0,1-.89,5.22c-.13.6.8.86.93.25Z"></path>
      <path class="cls-17" d="M96.09,85.15c1.52-1.51,4-1.11,5.63.06,1.92,1.4,2.88,3.81,3.74,5.94.23.57,1.16.32.93-.25-1-2.46-2.1-5.18-4.42-6.68-2-1.27-4.8-1.49-6.56.25-.44.43.24,1.11.68.68Z"></path>
      <path class="cls-16" d="M92.31,84.69S92.1,79.6,90.12,79a3.86,3.86,0,0,1,3.1,2.84A6.13,6.13,0,0,0,94.29,79s2,.81.59,4A4.1,4.1,0,0,1,97,87.31,5,5,0,0,0,92.31,84.69Z"></path>
      <path class="cls-17" d="M97.55,82.53a12.52,12.52,0,0,0,4.22.35.47.47,0,0,0,.46-.46.47.47,0,0,0-.46-.46,11.56,11.56,0,0,1-4-.32.46.46,0,0,0-.25.89Z"></path>
      <path class="cls-15" d="M101.57,136.29c5.45-1.4,10.12-4,16.92-1.85"></path>
      <circle class="cls-18" cx="76.6" cy="65.61" r="7.22"></circle>
      <path class="cls-19" d="M82.51,61.5c2,4.81,1.43,6.07-.86,7.39s-5.5,0-7.17-2.85S73,58.7,75.6,58.4C77.51,58.18,81.24,58.41,82.51,61.5Z"></path>
      <circle class="cls-19" cx="92.83" cy="71.91" r="6.75"></circle>
      <circle class="cls-18" cx="66.99" cy="51.51" r="4.5"></circle>
      <circle class="cls-19" cx="61.45" cy="63.87" r="5.07"></circle>
      <circle class="cls-18" cx="68.92" cy="73.84" r="3.51"></circle>
      <circle class="cls-18" cx="87.39" cy="87.84" r="7.88"></circle>
      <path class="cls-19" d="M95.13,86.35c.14,3.45-3.31,5.58-7.23,5.58s-7.59-3.87-7.23-7.16c.28-2.57,3.18-4.67,7.1-4.67S95,83.77,95.13,86.35Z"></path>
      <ellipse class="cls-19" cx="67.87" cy="98.54" rx="7.22" ry="6.75"></ellipse>
      <circle class="cls-19" cx="91.54" cy="108.49" r="9.62"></circle>
      <path class="cls-14" d="M100.1,138.71s1.19-15.8-5.91-26.7c-.49-.74-3-12.7-8-3.39,0,0-8.27-.56-9.8,0s-3.13,8.27,3.53,9.07,7.26.64,7.89,1.44c0,0-3.71,3,.79,3.94S97.29,131.17,100.1,138.71Z"></path>
      <circle class="cls-18" cx="71.44" cy="118.76" r="11.26"></circle>
      <path class="cls-19" d="M82.7,118.76c-.41,5.8-2,7.4-5.75,8.78-3.4,1.25-10.26-3.49-11.38-8.78a11.76,11.76,0,0,1,3.25-10.53C71.55,105.75,83.38,109.21,82.7,118.76Z"></path>
      <path class="cls-16" d="M73.9,106.63s-4.77-3.31-6.91,2c0,0,1.07-2,3.86-.59,0,0,3.9,3.64,6.37,4.39,0,0-2-2.73-1.39-3.8,0,0,5.24-1.19,6.15-2C82,106.63,77,105.93,73.9,106.63Z"></path>
      <path class="cls-14" d="M107,129.81s7-10.68-.6-21.68S98,94.48,98,94.48s-.88-1.68-.56,1.37,2.33,4.82,1.44,5.46-1.9.49-1.51,2.69,4.81,3.57,5.21,4.21-1.21.41-1.45,1.29-1.81,1,3.87,5.22S107,129.81,107,129.81Z"></path>
      <circle class="cls-18" cx="91.79" cy="169.46" r="6.95"></circle>
      <path class="cls-19" d="M69.38,166.19c0,4.21,3.7,9.15,7.63,7.63s7.64-3.42,7.64-7.63a7.64,7.64,0,0,0-15.27,0Z"></path>
      <ellipse class="cls-18" cx="71.06" cy="154.8" rx="8.58" ry="7.12" transform="translate(-80.05 76.2) rotate(-37.86)"></ellipse>
      <circle class="cls-18" cx="95.4" cy="148.54" r="12.52"></circle>
      <path class="cls-16" d="M90.23,138.33c0-.17,1-5.17,2.62-5.18A5.22,5.22,0,0,0,88,137.36s-2.3-1.87-2.25-3.75a7.23,7.23,0,0,0-.38,5.62s-2.94.92-3.42,6.43c0,0,4.39-3.69,5.46-3.86S90.23,138.33,90.23,138.33Z"></path>
      <path class="cls-16" d="M79.57,159.08a21.65,21.65,0,0,0,.32-3c-.08-.2,2,2.17,2,2.17a4,4,0,0,1,3.83-1.61s-1.73,1.21-1.93,2.05l2.57,1.21-1.67,1.16S79.35,160.28,79.57,159.08Z"></path>
      <path class="cls-19" d="M86.45,144.89a8.91,8.91,0,0,1,9-8.87c5.64,0,11.47,4.69,11.47,8.87s-2.22,9.21-7.86,9.21S86.45,149.08,86.45,144.89Z"></path>
      <path class="cls-16" d="M70.85,69.19a1.64,1.64,0,0,1-2.57-.53s0,1.71,1.12,1.76a1.72,1.72,0,0,0,1.23.54,2.11,2.11,0,0,0,2.3,0S70.15,70.74,70.85,69.19Z"></path>
      <path class="cls-16" d="M64.67,59.35s2.35-.7,2.51,0c0,0-1.5-.11-1.55.43,0,0-.53.53,0,.85s1.82,1.61,2.52,1.61a2.71,2.71,0,0,1-2.89-.75S63,61.27,63.38,60A3.26,3.26,0,0,1,63,56.72S63.81,60.31,64.67,59.35Z"></path>
      <path class="cls-20" d="M85.72,243.85a1.34,1.34,0,0,0-1.26-.47c-.7.22-1,.77-.86,1a3.15,3.15,0,0,0,.26.26c.18.17.54-.31.56-.31Z"></path>
      <path class="cls-9" d="M86.08,244.69s-.22-1-.58-1-.76-.06-.76-.06l-.1.17s.35.62.5.67.41.12.47.15S86.08,244.69,86.08,244.69Z"></path>
      <path class="cls-10" d="M86.05,244.8c0-.08.09-.3-.14-.36a3.23,3.23,0,0,0-.46-.1s-.57.43-.68.5-.19.06.14.16.32.18.62.14A.91.91,0,0,0,86.05,244.8Z"></path>
      <path class="cls-11" d="M85.45,244.34a4.19,4.19,0,0,0-.42.41c-.16.2-.2.26-.4.16s-.72-.18-.85-.38-.14-.18,0-.42a1.07,1.07,0,0,1,.67-.41.58.58,0,0,1,.67.15A1.45,1.45,0,0,1,85.45,244.34Z"></path>
      <path class="cls-20" d="M67.85,237.35a1.94,1.94,0,0,0-1.95-.28c-.94.53-1.16,1.4-.93,1.65a3.48,3.48,0,0,0,.45.3c.3.19.68-.61.71-.62Z"></path>
      <path class="cls-9" d="M68.63,238.45s-.61-1.3-1.13-1.21a10.69,10.69,0,0,1-1.11.14l-.09.28s.7.79.92.82l.73.05A5.1,5.1,0,0,0,68.63,238.45Z"></path>
      <path class="cls-10" d="M68.62,238.63c0-.13,0-.46-.31-.49s-.7,0-.7,0-.68.8-.82.93-.25.14.25.18.52.17.94,0A1.32,1.32,0,0,0,68.62,238.63Z"></path>
      <path class="cls-11" d="M67.61,238.14a7.43,7.43,0,0,0-.47.72c-.18.34-.2.43-.52.35s-1.09,0-1.34-.28-.25-.21-.08-.61a1.52,1.52,0,0,1,.84-.79.87.87,0,0,1,1,0A2.21,2.21,0,0,1,67.61,238.14Z"></path>
      <path class="cls-20" d="M80.47,234.77s-4-2-6.84.45-2.95,5.59-2,6.27a12.67,12.67,0,0,0,1.76.71c1.16.43,1.88-2.6,2-2.64S80.47,234.77,80.47,234.77Z"></path>
      <path class="cls-9" d="M83.9,238s-3-4-4.68-3.3-3.69,1.27-3.69,1.27l-.11,1s2.94,2.18,3.71,2.12,2.18-.32,2.52-.33A17,17,0,0,0,83.9,238Z"></path>
      <path class="cls-10" d="M84,238.55c0-.44-.21-1.58-1.41-1.43a17.58,17.58,0,0,0-2.37.51s-1.76,3.2-2.15,3.74-.75.67,1,.45,1.89.18,3.21-.62A4.51,4.51,0,0,0,84,238.55Z"></path>
      <path class="cls-11" d="M80.24,237.63a21.57,21.57,0,0,0-1.1,2.78c-.36,1.26-.38,1.61-1.53,1.55s-3.73.68-4.76,0-1-.56-.7-2,1-2.16,2.28-3.3a3,3,0,0,1,3.41-.71A7.78,7.78,0,0,1,80.24,237.63Z"></path>
      <path class="cls-20" d="M95.94,236.06s-2.31-3.16-5.46-2.38-4.51,3.16-4,4.07A11.14,11.14,0,0,0,87.53,239c.72.79,2.48-1.26,2.55-1.27S95.94,236.06,95.94,236.06Z"></path>
      <path class="cls-9" d="M97.34,239.88s-.72-4.28-2.32-4.41-3.35-.49-3.35-.49l-.5.74s1.41,2.86,2,3.11,1.81.62,2.07.75A14.36,14.36,0,0,0,97.34,239.88Z"></path>
      <path class="cls-10" d="M97.19,240.4c.14-.36.47-1.31-.52-1.67a14.66,14.66,0,0,0-2-.55s-2.63,1.77-3.15,2-.85.22.59.74,1.4.89,2.74.8A3.94,3.94,0,0,0,97.19,240.4Z"></path>
      <path class="cls-11" d="M94.63,238.18a18.26,18.26,0,0,0-1.95,1.71c-.79.84-.94,1.1-1.81.6s-3.16-1-3.7-1.88-.54-.82.27-1.84a4.62,4.62,0,0,1,3.08-1.65,2.6,2.6,0,0,1,2.92.8A6.75,6.75,0,0,1,94.63,238.18Z"></path>
      <path class="cls-20" d="M85.17,237.69s-3.33-2.56-6.35-.83-3.71,4.6-2.95,5.4a11.85,11.85,0,0,0,1.49,1c1,.61,2.19-2,2.26-2.06S85.17,237.69,85.17,237.69Z"></path>
      <path class="cls-9" d="M87.74,241.22s-2-4.2-3.7-3.86-3.6.49-3.6.49l-.29.91s2.3,2.53,3,2.61,2,.1,2.37.16A15.88,15.88,0,0,0,87.74,241.22Z"></path>
      <path class="cls-10" d="M87.74,241.8c0-.41.1-1.49-1-1.56a15.43,15.43,0,0,0-2.26,0s-2.19,2.61-2.65,3-.81.47.83.58,1.7.51,3.06,0A4.24,4.24,0,0,0,87.74,241.8Z"></path>
      <path class="cls-11" d="M84.45,240.27a18.8,18.8,0,0,0-1.51,2.35c-.57,1.09-.64,1.41-1.69,1.15s-3.55-.05-4.37-.84-.8-.69-.28-2,1.28-1.81,2.69-2.61a2.8,2.8,0,0,1,3.25-.05A7.3,7.3,0,0,1,84.45,240.27Z"></path>
      <path class="cls-20" d="M102.48,243.52a2,2,0,0,0,1.85-.91c.49-1,.17-1.89-.18-2a3.76,3.76,0,0,0-.57,0c-.37,0-.22.94-.23,1S102.48,243.52,102.48,243.52Z"></path>
      <path class="cls-9" d="M101.16,243s1.29.76,1.68.37a10.88,10.88,0,0,1,.88-.77l-.09-.3a4.32,4.32,0,0,0-1.27-.16c-.21.11-.57.34-.66.38A4.72,4.72,0,0,0,101.16,243Z"></path>
      <path class="cls-10" d="M101.06,242.88c.06.12.24.42.55.24a4.74,4.74,0,0,0,.6-.41s.12-1.09.17-1.29.13-.27-.33,0-.54.17-.82.54A1.39,1.39,0,0,0,101.06,242.88Z"></path>
      <path class="cls-11" d="M102.21,242.71a6.78,6.78,0,0,0,0-.9c0-.4-.08-.49.24-.61s1-.62,1.32-.56.34,0,.43.48a1.63,1.63,0,0,1-.25,1.18.89.89,0,0,1-.86.59A2.32,2.32,0,0,1,102.21,242.71Z"></path>
      <path class="cls-20" d="M58.14,245.84a2,2,0,0,0,1.85-.91c.5-1,.17-1.9-.17-2a3.89,3.89,0,0,0-.58,0c-.37,0-.22.94-.23,1S58.14,245.84,58.14,245.84Z"></path>
      <path class="cls-9" d="M56.82,245.35s1.29.77,1.68.38.88-.78.88-.78l-.08-.3A4.11,4.11,0,0,0,58,244.5c-.21.1-.57.34-.66.38A5.86,5.86,0,0,0,56.82,245.35Z"></path>
      <path class="cls-10" d="M56.72,245.2a.39.39,0,0,0,.56.23,5.79,5.79,0,0,0,.6-.41s.11-1.09.16-1.29.13-.27-.33,0-.54.17-.82.54A1.41,1.41,0,0,0,56.72,245.2Z"></path>
      <path class="cls-11" d="M57.88,245a5.85,5.85,0,0,0,0-.9c0-.39-.08-.49.25-.61s1-.62,1.32-.56.33.05.42.49a1.55,1.55,0,0,1-.25,1.17.91.91,0,0,1-.86.6A2.38,2.38,0,0,1,57.88,245Z"></path>
      <path class="cls-20" d="M70.81,244.24a2.56,2.56,0,0,0,2.43-1c.72-1.23.38-2.4,0-2.52a3.84,3.84,0,0,0-.73,0c-.47,0-.36,1.17-.38,1.19S70.81,244.24,70.81,244.24Z"></path>
      <path class="cls-9" d="M69.17,243.51s1.58,1.08,2.11.62,1.18-.91,1.18-.91l-.08-.38a5.24,5.24,0,0,0-1.61-.32c-.27.12-.75.39-.87.43A5.9,5.9,0,0,0,69.17,243.51Z"></path>
      <path class="cls-10" d="M69.05,243.3c.07.16.27.55.69.35a6.92,6.92,0,0,0,.8-.48s.25-1.37.32-1.62.19-.34-.41,0-.71.17-1.1.62A1.75,1.75,0,0,0,69.05,243.3Z"></path>
      <path class="cls-11" d="M70.54,243.17A8.4,8.4,0,0,0,70.6,242c0-.51-.06-.63.36-.75s1.28-.71,1.73-.6.43.08.51.65a2.08,2.08,0,0,1-.43,1.48,1.15,1.15,0,0,1-1.15.68A2.91,2.91,0,0,1,70.54,243.17Z"></path>
      <path class="cls-20" d="M80.05,242.44a1.66,1.66,0,0,1,1.5-.23c.74.34.93.94.76,1.11a3.42,3.42,0,0,1-.34.22c-.23.13-.55-.41-.56-.42Z"></path>
      <path class="cls-9" d="M79.47,243.21s.44-.9.85-.85.86.08.86.08l.08.18s-.52.56-.7.58l-.56.05A3.71,3.71,0,0,1,79.47,243.21Z"></path>
      <path class="cls-10" d="M79.48,243.33c0-.09,0-.31.23-.34s.54,0,.54,0,.55.53.66.61.2.1-.19.13-.4.13-.73,0A1,1,0,0,1,79.48,243.33Z"></path>
      <path class="cls-11" d="M80.25,243a3.39,3.39,0,0,1,.38.48c.15.22.17.29.41.22s.85,0,1-.21.18-.15,0-.42a1.11,1.11,0,0,0-.66-.52.74.74,0,0,0-.78,0A1.59,1.59,0,0,0,80.25,243Z"></path>
      <path class="cls-20" d="M93.62,238.63s-3.12-2.32-5.88-.65-3.35,4.33-2.63,5.05a10.94,10.94,0,0,0,1.39.86c.93.54,2-1.92,2.06-1.95S93.62,238.63,93.62,238.63Z"></path>
      <path class="cls-9" d="M96.07,241.84s-1.94-3.85-3.49-3.5-3.33.52-3.33.52l-.25.85s2.18,2.3,2.85,2.36,1.9.05,2.19.1A16.24,16.24,0,0,0,96.07,241.84Z"></path>
      <path class="cls-10" d="M96.08,242.38c0-.39.06-1.38-1-1.43A14.1,14.1,0,0,0,93,241s-2,2.46-2.38,2.86-.75.46.78.53,1.58.44,2.82,0A3.9,3.9,0,0,0,96.08,242.38Z"></path>
      <path class="cls-11" d="M93,241a17.6,17.6,0,0,0-1.35,2.2c-.5,1-.56,1.31-1.53,1.09s-3.29,0-4.07-.69-.75-.62-.29-1.83a4.65,4.65,0,0,1,2.44-2.47,2.6,2.6,0,0,1,3-.1A6.73,6.73,0,0,1,93,241Z"></path>
      <path class="cls-20" d="M76.94,242.24s-2.56-.47-3.72,1.35-.73,3.59-.09,3.81a7.26,7.26,0,0,0,1.09.1c.72.05.63-1.74.66-1.78S76.94,242.24,76.94,242.24Z"></path>
      <path class="cls-9" d="M79.36,243.45s-2.3-1.74-3.13-1.08a21.69,21.69,0,0,1-1.84,1.3l.1.58a7.94,7.94,0,0,0,2.4.58c.42-.16,1.16-.53,1.35-.59A9,9,0,0,0,79.36,243.45Z"></path>
      <path class="cls-10" d="M79.53,243.77c-.1-.24-.37-.85-1-.57a10,10,0,0,0-1.23.66s-.46,2.06-.59,2.43-.31.49.63.08,1.07-.2,1.68-.86A2.59,2.59,0,0,0,79.53,243.77Z"></path>
      <path class="cls-11" d="M77.28,243.86a12.62,12.62,0,0,0-.16,1.72c0,.76,0,1-.6,1.11s-2,1-2.64.79-.64-.15-.72-1a3.07,3.07,0,0,1,.74-2.2,1.71,1.71,0,0,1,1.77-1A4.47,4.47,0,0,1,77.28,243.86Z"></path>
    </g>
  </g>
</svg>
