<?xml version="1.0" encoding="UTF-8"?>
<svg xmlns="http://www.w3.org/2000/svg" viewBox="0 0 145.5 261.9">
  <defs>
    <style>.cls-1{fill:#bda885;}.cls-2{fill:#d0c5a6;}.cls-3{fill:#ab967a;opacity:0.25;}.cls-4{fill:#7c705b;}.cls-5{fill:#a29274;}.cls-6{fill:#e3e0c9;}.cls-7{fill:#fcedce;}.cls-8{fill:#8f8267;}.cls-9{fill:#9b8d71;}.cls-10{fill:#e7e6e3;}.cls-11{fill:#745831;}.cls-12{fill:#917448;}.cls-13{fill:#554020;}.cls-14{fill:#817870;}.cls-15{fill:#a5c32f;}.cls-16{fill:#7fb843;}</style>
  </defs>
  <g id="Слой_2" data-name="Слой 2">
    <g id="Слой_1-2" data-name="Слой 1">
      <polygon class="cls-1" points="10.9 218.9 0 135.25 72.85 166.18 72.85 261.9 10.9 218.9"></polygon>
      <path class="cls-2" d="M45.79,136.28a39.67,39.67,0,0,1,3.44-3.68,32.58,32.58,0,0,1,4-3.11,39.5,39.5,0,0,1,9.13-4.42q2.41-.78,4.89-1.33a50.06,50.06,0,0,1,5-.76,48.32,48.32,0,0,1,10.06,0c-3.35.22-6.65.57-9.91,1.11a61.15,61.15,0,0,0-9.58,2.34,48,48,0,0,0-17,9.8Z"></path>
      <polygon class="cls-3" points="10.9 218.9 0 135.25 72.85 166.18 72.85 261.9 10.9 218.9"></polygon>
      <path class="cls-4" d="M24.06,182.12A13.13,13.13,0,0,1,23,179.25a23.93,23.93,0,0,1-.67-3,22.47,22.47,0,0,1-.11-6.24,19.75,19.75,0,0,1,1.75-6,20,20,0,0,1,3.63-5.18,27,27,0,0,1,10.69-6.38,46.23,46.23,0,0,1,12.12-2.16,70,70,0,0,0-11.72,3.25,28.79,28.79,0,0,0-10,6.32,19.51,19.51,0,0,0-5.3,10.37,24.36,24.36,0,0,0-.32,6A23,23,0,0,0,24.06,182.12Z"></path>
      <path class="cls-4" d="M52.74,176.61a46.13,46.13,0,0,1-1.78,8.2,57.1,57.1,0,0,1-3,7.85,45.94,45.94,0,0,1-4.38,7.23,27.46,27.46,0,0,1-6,5.85,50,50,0,0,0,5.09-6.52,74.35,74.35,0,0,0,4-7.2c1.2-2.48,2.26-5,3.29-7.59S51.83,179.25,52.74,176.61Z"></path>
      <path class="cls-4" d="M41.2,234a20.58,20.58,0,0,1-4.71-3,11.35,11.35,0,0,1-3.41-4.59,6.69,6.69,0,0,1-.42-3A6.81,6.81,0,0,1,33,222a7.44,7.44,0,0,1,.59-1.39,13.7,13.7,0,0,1,3.94-4.24,38.13,38.13,0,0,1,10.06-5,77.25,77.25,0,0,1,10.75-2.81c-3.48,1.26-7,2.51-10.34,3.89a46,46,0,0,0-9.58,5.11,12.52,12.52,0,0,0-3.6,3.73,5.61,5.61,0,0,0-.53,1.14,4.5,4.5,0,0,0-.3,1.2,5.94,5.94,0,0,0,.21,2.47,9,9,0,0,0,1.13,2.34A13.93,13.93,0,0,0,37,230.49,24.14,24.14,0,0,0,41.2,234Z"></path>
      <polygon class="cls-5" points="72.85 166.18 145.5 135.25 134.6 218.9 72.85 261.9 72.85 166.18"></polygon>
      <polygon class="cls-6" points="72.85 114.34 145.5 135.25 72.85 166.18 0 135.25 72.85 114.34"></polygon>
      <polygon class="cls-7" points="72.85 114.34 0 135.25 1.28 135.79 144.82 135.06 72.85 114.34"></polygon>
      <polygon class="cls-8" points="72.85 166.18 145.5 135.25 134.6 218.9 72.85 261.9 72.85 166.18"></polygon>
      <polygon class="cls-9" points="72.85 261.9 10.9 218.9 73.14 195.38 134.6 218.9 72.85 261.9"></polygon>
      <path class="cls-4" d="M91.76,181c.19.31.6.42.92.58s.69.3,1,.43c.69.27,1.4.51,2.12.74,1.41.47,2.85.88,4.29,1.28,2.88.78,5.78,1.48,8.7,2.06,5.85,1.21,11.77,2,17.76,2.67a65.57,65.57,0,0,1-18-1.21,64.53,64.53,0,0,1-8.76-2.42,45.22,45.22,0,0,1-4.21-1.71c-.69-.33-1.36-.68-2-1-.33-.19-.66-.38-1-.59l-.46-.34C92,181.28,91.78,181.17,91.76,181Z"></path>
      <path class="cls-4" d="M75.27,243.18c3-1.45,6-2.6,9-3.9s6-2.62,8.83-4.12c1.44-.74,2.85-1.54,4.23-2.38a43.25,43.25,0,0,0,4-2.73,23.5,23.5,0,0,0,6.46-7.14,18.91,18.91,0,0,1-5.72,8,42.33,42.33,0,0,1-8.27,5.53,71.27,71.27,0,0,1-9.1,3.88c-1.56.55-3.13,1-4.71,1.5S76.84,242.71,75.27,243.18Z"></path>
      <path class="cls-4" d="M107.81,179.28l5.42-7.45c1.77-2.49,3.53-5,5.17-7.56A82.53,82.53,0,0,0,123,156.4a38.35,38.35,0,0,0,1.79-4.18,17.53,17.53,0,0,0,1-4.44,19.59,19.59,0,0,1-1.78,9.09,52.08,52.08,0,0,1-4.38,8.21,79.3,79.3,0,0,1-5.51,7.46A68.39,68.39,0,0,1,107.81,179.28Z"></path>
      <path class="cls-10" d="M71.8,160.78a15.65,15.65,0,0,1-4.85,5.1c-.89.67-1.77,1.31-2.59,2a33.11,33.11,0,0,1-2.56,2.17A46.48,46.48,0,0,1,56,173.4a8.83,8.83,0,0,0-2.59,1.92,3.78,3.78,0,0,0-.93,3,3.92,3.92,0,0,1,.71-3.19,8.94,8.94,0,0,1,2.51-2.24,44.84,44.84,0,0,0,5.39-3.75,31.57,31.57,0,0,0,2.3-2.32c.81-.81,1.66-1.55,2.47-2.28a13.59,13.59,0,0,0,3.87-4.74Z"></path>
      <path class="cls-10" d="M60.35,170.83c-.56,1.75-1.06,3.53-1.57,5.3L58,178.8c-.14.44-.26.89-.43,1.32s-.43,1-.94,1c.73-.57.65-1.62,1-2.48l.63-2.69c.42-1.8.81-3.6,1.29-5.41Z"></path>
      <path class="cls-10" d="M61.13,170.32a14.54,14.54,0,0,0-9.1,1.06,18.59,18.59,0,0,0-6.86,6.48,18.85,18.85,0,0,1,6.5-7.13,15.54,15.54,0,0,1,9.67-1.6Z"></path>
      <path class="cls-10" d="M39.05,171.74a30.67,30.67,0,0,1,6.75-1.58,20.59,20.59,0,0,1,7,.08l-.18.61a20.27,20.27,0,0,0-6.79-.38A30.83,30.83,0,0,0,39.05,171.74Z"></path>
      <path class="cls-10" d="M54.37,165.49a5.43,5.43,0,0,1,3.53-2.19l4.14-.72a18.87,18.87,0,0,0,3.84-1.22c.63-.27,1.16-.56,1.83-.91A3.75,3.75,0,0,1,70.5,160l-.76,2.15c-.32-.37-1.93.41-3.29.79a21.48,21.48,0,0,1-4.26.74l-4.18.15A5.16,5.16,0,0,0,54.37,165.49Z"></path>
      <path class="cls-10" d="M72.21,172.49c1.82,3.37,5.29,5.72,8.93,7.48s7.69,3.1,11.32,5.32a26.52,26.52,0,0,1,8.84,8.91c1.08,1.8,2,3.67,3.12,5.39a9.69,9.69,0,0,0,4.59,4,9.75,9.75,0,0,1-4.82-3.85c-1.24-1.68-2.23-3.53-3.37-5.25a25.48,25.48,0,0,0-8.93-8.22c-3.58-2-7.57-3.1-11.46-4.76s-7.8-4-10.19-7.9Z"></path>
      <path class="cls-10" d="M93.42,186a6.19,6.19,0,0,0,3.21-.44,6.54,6.54,0,0,1,3.64-.2c1.18.22,2.3.6,3.43.9a8.46,8.46,0,0,1,3.22,1.45,9.83,9.83,0,0,0-3.3-1.11c-1.16-.22-2.31-.5-3.45-.63a7,7,0,0,0-3.31.33,5.9,5.9,0,0,1-3.68.4Z"></path>
      <path class="cls-10" d="M97.87,189.83a9.94,9.94,0,0,0,3.42.47,12.77,12.77,0,0,1,3.67.25,9.36,9.36,0,0,1,5.47,4.61,10,10,0,0,0-5.65-4,12.11,12.11,0,0,0-3.48-.18,8.54,8.54,0,0,1-3.66-.56Z"></path>
      <path class="cls-10" d="M91.22,184.76A28.65,28.65,0,0,0,93.8,188a8.14,8.14,0,0,1,2,3.87c.21,1.46.07,2.84.34,4.22a15.36,15.36,0,0,0,1.25,4,15.37,15.37,0,0,1-1.54-3.94c-.38-1.38-.34-2.86-.63-4.17-.65-2.69-3.3-4.13-5-6.55Z"></path>
      <path class="cls-10" d="M82.73,180.88A38.06,38.06,0,0,1,83,185a12.75,12.75,0,0,0,1.3,3.56A13.72,13.72,0,0,0,89.83,194a14.2,14.2,0,0,1-8.09-8.75c-.4-1.4-.38-2.83-.87-3.76Z"></path>
      <path class="cls-10" d="M76.7,178c-.07,2.38.18,4.91,1.72,6.92-1.93-1.66-2.78-4.32-3.2-6.82Z"></path>
      <path class="cls-10" d="M74.62,176a5.87,5.87,0,0,1-.46,3.48c-.38,1-.83,1.91-1.11,2.85-.43,1.92-.74,4.09.32,5.91-1.29-1.7-1.24-4-1-6.05.12-1.08.43-2.08.62-3.06a4.5,4.5,0,0,0,0-2.59Z"></path>
      <path class="cls-10" d="M75.62,162.24a17.38,17.38,0,0,0,2.65,2.2A15.3,15.3,0,0,1,81,167.06a27,27,0,0,1,3.68,6.39,26,26,0,0,0-4.51-5.6,13.61,13.61,0,0,0-2.86-2,18.67,18.67,0,0,1-3.3-2Z"></path>
      <path class="cls-10" d="M76.12,163.26c3.33,1.36,7.26.86,11.13,1.15a17.61,17.61,0,0,1,5.7,1.41,6.61,6.61,0,0,1,3.84,4.2,6.86,6.86,0,0,0-4.09-3.62,20.13,20.13,0,0,0-5.52-.92c-3.7-.22-7.72.66-11.6-1Z"></path>
      <path class="cls-10" d="M74.32,164.51a20.36,20.36,0,0,0,3,5.11c1.27,1.51,2.77,3,4.14,4.62a49.88,49.88,0,0,1,4.09,4.81A16.33,16.33,0,0,1,88,184.83a16.13,16.13,0,0,0-2.88-5.45,49,49,0,0,0-4.43-4.33c-1.5-1.44-3.05-2.75-4.62-4.29a22.61,22.61,0,0,1-3.81-5.3Z"></path>
      <path class="cls-10" d="M82,174.94c2.39.59,5.12.34,7.68,1.25A13,13,0,0,1,93,178.33a10.38,10.38,0,0,1,2.41,3.07,11.64,11.64,0,0,0-5.93-4.68c-2.42-.71-5-.28-7.73-.75Z"></path>
      <path class="cls-10" d="M81.25,174.41c.57,2.77,0,5.43-.52,8,.28-2.62.62-5.38-.12-7.85Z"></path>
      <path class="cls-10" d="M76.47,169c.79,4.14.13,8.17-.28,12.16,0-4,.24-8.12-.88-11.86Z"></path>
      <path class="cls-11" d="M70.11,167.9a51.61,51.61,0,0,1-2.29-4.9,6.4,6.4,0,0,1-.91-2.5,5.25,5.25,0,0,1,.85-2.9l.31-.07a5.23,5.23,0,0,1,2,2.24,6.36,6.36,0,0,1,.27,2.65,51.27,51.27,0,0,1,.06,5.41Z"></path>
      <ellipse class="cls-12" cx="65.86" cy="180.96" rx="1.63" ry="2.59" transform="translate(-126.66 185.58) rotate(-71.38)"></ellipse>
      <path class="cls-11" d="M70.85,152.42a85.39,85.39,0,0,1-7.14,26.26c-1.53,3.24,3.3,6.09,4.83,2.83a90.73,90.73,0,0,0,7.78-29.35A43.05,43.05,0,0,1,70.85,152.42Z"></path>
      <path class="cls-13" d="M76.26,152.16c0,.39-.06.77-.1,1.16a87.79,87.79,0,0,1-2.33,13.37A61.39,61.39,0,0,1,69,179.4l.12.07a48.89,48.89,0,0,0,5.55-12.54,86.72,86.72,0,0,0,2.85-13.45c.06-.53.08-1.06.13-1.59A11.92,11.92,0,0,1,76.26,152.16Z"></path>
      <path class="cls-12" d="M72.11,152.41c-1.16,10.73-3.52,20.83-7.31,25.51,0,0,.76-.35,2.46.58,0,0,4.57-9.9,6.48-26.12C73.22,152.4,72.68,152.41,72.11,152.41Z"></path>
      <path class="cls-10" d="M71,191.63a17.09,17.09,0,0,0-.87,9,17.59,17.59,0,0,1-.13-9.39Z"></path>
      <path class="cls-10" d="M75.17,202.51a16.34,16.34,0,0,0,.07,5.13,16.88,16.88,0,0,1-.85-5.14Z"></path>
      <path class="cls-10" d="M68,181.68a33.27,33.27,0,0,0-3.46,12.76,113,113,0,0,0-.12,13.91,124.26,124.26,0,0,1-.07,14.18,36.87,36.87,0,0,1-3.5,13.68,36.27,36.27,0,0,0,2.37-13.72,124.1,124.1,0,0,0-1.07-14,115.15,115.15,0,0,1-1-14.25,37.22,37.22,0,0,1,2.76-14.54v0a2.28,2.28,0,0,1,4.18,1.81A.89.89,0,0,1,68,181.68Z"></path>
      <path class="cls-10" d="M63.77,203.62a13,13,0,0,0,2.62,2.74,9,9,0,0,1,2.73,3.45,22.36,22.36,0,0,1,1.25,8.25,21.8,21.8,0,0,0-2.31-7.75,7.74,7.74,0,0,0-2.73-2.59,14.67,14.67,0,0,1-3.44-2.81Z"></path>
      <path class="cls-10" d="M64,214.42c1.25,1.29,3.16,2.26,4.26,4.05a10.25,10.25,0,0,1,1.21,5.73,10,10,0,0,0-1.73-5.38c-1.13-1.49-3-2.17-4.58-3.48Z"></path>
      <path class="cls-10" d="M64.2,217.94a37.16,37.16,0,0,0-4.61,4.44c-1.36,1.65-2.87,3.28-3.07,5.51a5.65,5.65,0,0,1,.56-3.27,15.29,15.29,0,0,1,1.72-2.86,27.16,27.16,0,0,1,4.48-4.92Z"></path>
      <path class="cls-10" d="M63.53,209.61a24.17,24.17,0,0,0-7.73,5.83,25.4,25.4,0,0,1,6.52-7.76Z"></path>
      <path class="cls-10" d="M63.4,203.54a43.2,43.2,0,0,0-6.19,3.4,6.75,6.75,0,0,0-2.34,2.21,31.77,31.77,0,0,0-1.27,3.28c-1.81,4.64-4.91,8.46-8,12.17,2.76-3.94,5.51-8,6.86-12.55a30.44,30.44,0,0,1,1.07-3.56,8.33,8.33,0,0,1,2.61-3,45.83,45.83,0,0,1,6.22-4Z"></path>
      <path class="cls-10" d="M63.74,191.35a22.33,22.33,0,0,1-3.34,4.82,10.9,10.9,0,0,1-4.71,3.49,33.84,33.84,0,0,0-5,2.42,8.57,8.57,0,0,0-3.58,4.1,8.93,8.93,0,0,1,3.24-4.56,34.13,34.13,0,0,1,4.83-3,9.42,9.42,0,0,0,3.86-3.51,20.17,20.17,0,0,0,2.59-4.67Z"></path>
      <path class="cls-10" d="M63.21,195.57A5.65,5.65,0,0,1,66,197a18.18,18.18,0,0,1,2.21,2.08,10.76,10.76,0,0,1,2.9,5.15,12.08,12.08,0,0,0-3.87-4,17.46,17.46,0,0,0-2.39-1.39,13.66,13.66,0,0,1-2.37-1.13Z"></path>
      <path class="cls-10" d="M66.51,181.78a39.13,39.13,0,0,1,4,7.45,35.39,35.39,0,0,0,1.83,3.58,37.39,37.39,0,0,1,2.2,3.57,8.48,8.48,0,0,1,.43,4.28,3.13,3.13,0,0,0,.21,1.73,7.49,7.49,0,0,0,1.61,1.06A9.56,9.56,0,0,1,81,210.32,9.35,9.35,0,0,0,76.49,204a7.29,7.29,0,0,1-1.88-1.08,3.6,3.6,0,0,1-.54-2.22,7.49,7.49,0,0,0-.61-3.79,35.89,35.89,0,0,0-2.35-3.27,37,37,0,0,1-2.17-3.6,37.24,37.24,0,0,0-4.21-6.79Z"></path>
      <path class="cls-10" d="M68.22,185.46c.16.7,1.52.7,2.61,1.23a6.9,6.9,0,0,1,2.46,2.43,10.7,10.7,0,0,1,1.47,6.46,10.5,10.5,0,0,0-1.87-6.2,6.37,6.37,0,0,0-2.37-2A9.25,9.25,0,0,0,69,187a2.12,2.12,0,0,1-1.64-1.15Z"></path>
      <path class="cls-10" d="M74.66,197.79c2.64,1.14,5.66,1.72,8.29,3.35a10.27,10.27,0,0,1,3,3.46,9.24,9.24,0,0,1,1.17,4.3,9.08,9.08,0,0,0-1.49-4.1,11,11,0,0,0-3-3.06c-2.5-1.44-5.47-1.92-8.31-3Z"></path>
      <path class="cls-10" d="M69.21,188a19.56,19.56,0,0,0-1.57,8.42c0,2.93.31,5.86.47,8.8-.34-2.92-.84-5.82-1-8.79a20.1,20.1,0,0,1,1.11-8.89Z"></path>
      <path class="cls-10" d="M65.12,183.83a26,26,0,0,1-7.4,3.25c-2.51.76-5,1.38-7.43,2.22a20.61,20.61,0,0,0-11.51,9.62A21,21,0,0,1,49.86,188.2c2.42-1,4.9-1.84,7.3-2.76A24.27,24.27,0,0,0,63.74,182Z"></path>
      <path class="cls-10" d="M48.41,189.68a22.13,22.13,0,0,1-1.75,6.77c-.88,2.12-1.5,4.24-2.34,6.41a28.34,28.34,0,0,1-3.38,6c-1.34,1.81-3.1,3.44-3.49,5.74.28-2.32,2-4.09,3.22-5.93a27.44,27.44,0,0,0,3-6c.7-2.1,1.26-4.38,2-6.49a21.5,21.5,0,0,0,1.38-6.44Z"></path>
      <path class="cls-10" d="M43.9,192.72c-.14,1.48-.27,3-.49,4.45a14.67,14.67,0,0,1-1.16,4.36c-.79,1.43-2.37,1.89-3.43,2.88a9.93,9.93,0,0,0-2.63,3.52,10,10,0,0,1,2.5-3.66c1.06-1.06,2.6-1.63,3.22-2.92a14.72,14.72,0,0,0,1-4.25c.17-1.47.25-2.94.34-4.43Z"></path>
      <path class="cls-10" d="M43.43,204.78a49.5,49.5,0,0,1-2.19,13.74,49.45,49.45,0,0,0,1.68-13.75Z"></path>
      <path class="cls-10" d="M55.71,187.41a23,23,0,0,0-6.85,11,23.55,23.55,0,0,1,6-11.91Z"></path>
      <path class="cls-10" d="M59,186.24l-1.26,6.56c-.45,2.17-.58,4.37-1.12,6.63a14.15,14.15,0,0,1-3,6.16c-1.42,1.68-3.38,3.16-3.46,5.5-.14-2.36,1.77-4.13,3-5.87a13.44,13.44,0,0,0,2.27-6c.3-2.11.27-4.4.55-6.64l.75-6.66Z"></path>
      <path class="cls-10" d="M45.37,191.4c-2.35,0-4.88.26-7.23-.63a26.82,26.82,0,0,0-7-1.47,29.25,29.25,0,0,0-14,2.48,27.73,27.73,0,0,1,14-2.94,27.26,27.26,0,0,1,7.15,1.32c2.19.91,4.63.59,7,.86Z"></path>
      <path class="cls-10" d="M38.73,190.91a15.44,15.44,0,0,0-5.61,2.71,19.79,19.79,0,0,0-4.55,4.4,19.88,19.88,0,0,1,4.37-4.65,15.75,15.75,0,0,1,5.67-3.06Z"></path>
      <path class="cls-10" d="M68.89,209.84c2.92,1.26,6,2.64,8.32,4.95a28.17,28.17,0,0,1,5.52,7.88,28.27,28.27,0,0,0-5.87-7.5c-2.38-2.11-5.37-3.26-8.36-4.36Z"></path>
      <path class="cls-10" d="M77,214.78a31.89,31.89,0,0,1-2.64,11,32,32,0,0,0,2.19-11Z"></path>
      <polygon class="cls-7" points="1.28 135.79 72.85 166.18 145.5 135.25 144.82 135.06 1.28 135.79"></polygon>
      <ellipse class="cls-5" cx="75.15" cy="136.71" rx="16.78" ry="6.56"></ellipse>
      <ellipse class="cls-14" cx="75.58" cy="138.92" rx="13.83" ry="5.41"></ellipse>
      <path class="cls-15" d="M81,121.76l-2.22-.51c5.65-24.44,6.62-51.33,7.26-69.12.13-3.73.25-7.05.4-9.86l2.27.12c-.15,2.8-.26,6.11-.4,9.82C87.71,70.09,86.73,97.11,81,121.76Z"></path>
      <path class="cls-11" d="M82.17,116.14a10.33,10.33,0,0,1-.84,5,10.19,10.19,0,0,1-3,4.13,10.18,10.18,0,0,1,.84-5A10.31,10.31,0,0,1,82.17,116.14Z"></path>
      <path class="cls-15" d="M76.61,96.39l-2.27-.16c.78-10.94-1.64-21.7-4.11-30.79-7.6-28-10.66-32.77-12.48-35.64a14.44,14.44,0,0,1-1.6-3.1l2.14-.77a12.43,12.43,0,0,0,1.38,2.64c1.9,3,5.07,8,12.76,36.28C75,74.12,77.41,85.11,76.61,96.39Z"></path>
      <path class="cls-15" d="M49.05,19.1S35.16,12.31,45.26,0C45.26,0,57.1,5.68,49.05,19.1Z"></path>
      <path class="cls-15" d="M50.31,21c-.56.05,1.58-15,17-15.15C67.36,5.84,62.15,20,50.31,21Z"></path>
      <path class="cls-15" d="M50.31,21a19.87,19.87,0,0,0-1.69-1.26c-3.3-2.25-11.1-6.48-20.24-4.11C28.38,15.62,34.69,27.46,50.31,21Z"></path>
      <path class="cls-16" d="M45.31,0a72.51,72.51,0,0,0,1,10c.69,3.28,1.41,6.47,2.38,9.71l-.08,0a18.77,18.77,0,0,1-2.13-4.64,31.61,31.61,0,0,1-.91-5A59,59,0,0,1,45.21,0Z"></path>
      <path class="cls-16" d="M67.38,5.88a52.82,52.82,0,0,0-8.33,6.3c-1.26,1.2-2.46,2.44-3.63,3.72s-2.31,2.57-3.53,3.85l-.08-.05a21.58,21.58,0,0,1,2.91-4.43,30.1,30.1,0,0,1,3.83-3.66A46.4,46.4,0,0,1,67.33,5.8Z"></path>
      <path class="cls-16" d="M50.32,21a21,21,0,0,1-5.71-.12A50.61,50.61,0,0,1,39,19.8a46.8,46.8,0,0,1-5.48-1.66,41.38,41.38,0,0,1-5.16-2.47l0-.09c3.69,1,7.21,2.3,10.8,3.49a49,49,0,0,0,5.49,1.39,20.39,20.39,0,0,0,5.61.48Z"></path>
      <path class="cls-15" d="M48.32,18.52Q52,25.06,55.91,31.39c2.42,3.83,4.94,7.65,8.34,10.7.45.4,1.12-.27.67-.67-3.46-3.1-6-7-8.43-10.89Q52.65,24.4,49.14,18c-.29-.53-1.11-.05-.82.48Z"></path>
      <path class="cls-15" d="M113,74c6.24-.51,10.79-3.86,9.75-10.54C116.75,63.27,114.31,69,113,74Z"></path>
      <path class="cls-15" d="M112.42,73.93c.32.06,2.06-12.74-5.09-12.58C108.15,64.89,105.75,72.71,112.42,73.93Z"></path>
      <path class="cls-15" d="M111.35,74.78a15.62,15.62,0,0,1,1.8-.3c4.83-.57,7.75,1.37,11.28,5.11C118.89,82.28,114.42,79.65,111.35,74.78Z"></path>
      <path class="cls-16" d="M122.81,63.43A24.94,24.94,0,0,1,119,69.16a20,20,0,0,1-5.34,4.36l0,0c1.66-1.6,3.38-3.07,5-4.63a27.05,27.05,0,0,0,4.12-5.44Z"></path>
      <path class="cls-16" d="M107.35,61.34A54.21,54.21,0,0,1,111,67a12.87,12.87,0,0,1,1.28,3.14,8.24,8.24,0,0,1,0,3.39h-.06a17.39,17.39,0,0,0-1.68-6.32c-.94-2-2.15-3.88-3.28-5.8Z"></path>
      <path class="cls-16" d="M111.41,74.76a18.62,18.62,0,0,0,6.32,2.84c2.26.57,4.5,1.19,6.73,2v.06a27.24,27.24,0,0,1-6.86-1.57,17.48,17.48,0,0,1-6.22-3.25Z"></path>
      <path class="cls-15" d="M113.19,73.58A116.56,116.56,0,0,1,98.05,79.2a.47.47,0,0,0,.25.91,115.12,115.12,0,0,0,15.14-5.62c.56-.23.31-1.15-.25-.91Z"></path>
      <path class="cls-15" d="M45.85,72.37C35.2,71.32,28.7,67.09,28.54,55.81,38.72,56.53,41.82,64.05,45.85,72.37Z"></path>
      <path class="cls-15" d="M46.25,71c-.5,0-3.54-21.28,7.45-18.56C52.19,58.73,56.7,70.49,46.25,71Z"></path>
      <path class="cls-15" d="M48.92,73.51c-1.9-.09-.93-.31-3.38-.32-7.42,0-13.71,2.73-19.1,8.5C35.9,85.18,44.33,82.59,48.92,73.51Z"></path>
      <path class="cls-16" d="M28.57,55.79A59.27,59.27,0,0,0,36,64.38c2.82,2.53,5.77,4.84,8.71,7.3l0,.08a29.41,29.41,0,0,1-9.19-6.84,51.49,51.49,0,0,1-7-9.08Z"></path>
      <path class="cls-16" d="M53.55,52.06a79.17,79.17,0,0,0-4.86,9.36A27.55,27.55,0,0,0,47,71.62h-.1a13.39,13.39,0,0,1-.44-5.35A17.6,17.6,0,0,1,48,61.13,65.39,65.39,0,0,1,53.47,52Z"></path>
      <path class="cls-16" d="M48.83,73.55a26.71,26.71,0,0,1-10.61,5.71,59.83,59.83,0,0,1-11.83,2.47l0-.09c3.79-1.48,7.76-2.17,11.64-3.11a27.58,27.58,0,0,0,10.75-5.06Z"></path>
      <path class="cls-15" d="M44.88,72.25a86,86,0,0,0,15.4,5.55.47.47,0,0,0,.25-.91,85.78,85.78,0,0,1-15.17-5.46c-.55-.26-1,.56-.48.82Z"></path>
      <path class="cls-15" d="M85,103l-2.14-.77c3.94-10.93,10.77-19.07,18-27.7A149.84,149.84,0,0,0,113.55,57.8L115.48,59a151.34,151.34,0,0,1-12.92,17C95.47,84.46,88.76,92.45,85,103Z"></path>
      <path class="cls-15" d="M76.91,128.5C61.78,93,60.61,86.26,59.12,77.72,58.56,74.52,58,71.21,56.6,66l2.2-.59c1.41,5.3,2,8.66,2.56,11.91,1.46,8.4,2.62,15,17.65,50.27Z"></path>
      <path class="cls-11" d="M81,71.43c.48-3.53-4.91-5.05-5.4-1.49-3.07,22.74.64,46.8-2.14,69.56a39.63,39.63,0,0,0,5.47-.26C81.33,117,78,94,81,71.43Z"></path>
      <path class="cls-11" d="M74.49,92.4A5.18,5.18,0,0,1,72,90.69a6.83,6.83,0,0,1-1-2.57,27.66,27.66,0,0,1-1.14-5.39l.27-.09c.95,1.55,1.92,3,2.89,4.51a8.55,8.55,0,0,1,1.44,2.19,6.18,6.18,0,0,1,.24,2.91Z"></path>
      <path class="cls-13" d="M80.64,69.89v0s0,0,0,0Z"></path>
      <path class="cls-13" d="M79.89,117.87s.33.14.34.34l0-.31,0-.18-.16.09C80,117.85,79.83,117.87,79.89,117.87Z"></path>
      <path class="cls-13" d="M79.23,117.85l-.06.15a2.89,2.89,0,0,1,0,.29Z"></path>
      <path class="cls-13" d="M82.38,117.53l0,0-.16.06c-.53,0-.52-.37-.51-.25a2.23,2.23,0,0,1,.09.72c.09-.08.19-.14.27-.21Z"></path>
      <path class="cls-13" d="M80.93,126.84l-.08-3.43v-.34l.08-.2c.1-.21.24-.45.38-.69l.88-1.5A7.78,7.78,0,0,0,82.9,119a3.4,3.4,0,0,0,.11-1,4.63,4.63,0,0,0-.17-1,.71.71,0,0,0-.77-.52.77.77,0,0,0-.49.28l-.3.31a4.18,4.18,0,0,1-.57.47,4.47,4.47,0,0,1-.49.25l0,.18,0,.31h0c0,.16,0,.1,0,.14v-.14c0-.2-.32-.38-.34-.34s.07,0,.17-.06l.16-.09c-.52-3.67-.8-7.81-1.11-11.7s-.59-8-.52-12l2.29-24.07v0l0,0a2.76,2.76,0,0,0-2.07-1.32,2.71,2.71,0,0,0-2,1.35l.12.07a2.06,2.06,0,0,1,3.77,0v0l0,.09s0,0,0,0L77.86,94c-.14,4.08.13,8.1.33,12.13s.42,7.77,1,11.92l.06-.15,0,.44a2.89,2.89,0,0,0,0-.29.89.89,0,0,0,0,.39.71.71,0,0,0,.65.59,1.61,1.61,0,0,0,.66-.12,6.4,6.4,0,0,0,.87-.43,4.78,4.78,0,0,0,.5-.39,2.23,2.23,0,0,0-.09-.72c0-.12,0,.25.51.25l.16-.06h0l0,0-.29.3c-.08.07-.18.13-.27.21a4.64,4.64,0,0,1-.73,2l-.88,1.44c-.15.24-.31.49-.46.79a2.41,2.41,0,0,0-.2.61v3.92a116.84,116.84,0,0,1-.67,12.41c.5-.07,1-.16,1.43-.27A117.36,117.36,0,0,0,80.93,126.84Z"></path>
      <path class="cls-12" d="M76.05,108.79s-2.72-4.9,0-38.11c0,0-4.2,24-1.58,37.5,1.37,7.06,1.54,19.57.26,31.32l1.63,0A121.39,121.39,0,0,0,76.05,108.79Z"></path>
    </g>
  </g>
</svg>
