<?xml version="1.0" encoding="UTF-8"?>
<svg xmlns="http://www.w3.org/2000/svg" xmlns:xlink="http://www.w3.org/1999/xlink" viewBox="0 0 109.27 237.65">
  <defs>
    <style>.cls-1{fill:#8e6848;}.cls-2{fill:url(#Безымянный_градиент_7);}.cls-3{fill:#713e21;}.cls-4{fill:#3d271f;}.cls-5{fill:#69391e;}.cls-6{fill:#cacac9;}.cls-7{fill:#85563a;}.cls-8{fill:#769b57;}.cls-9{fill:none;stroke:#79a05b;stroke-miterlimit:10;stroke-width:0.42px;}.cls-10{fill:#486f3a;}.cls-11{fill:#79a05b;}.cls-12{fill:#b85848;}.cls-13{fill:#d5604b;}.cls-14{fill:#6b482f;}.cls-15{fill:#5c3624;}.cls-16{fill:#795135;}.cls-17{fill:#9a734f;}</style>
    <linearGradient id="Безымянный_градиент_7" x1="52.65" y1="270.06" x2="57.02" y2="188.73" gradientUnits="userSpaceOnUse">
      <stop offset="0.38" stop-color="#9b714f"></stop>
      <stop offset="0.91" stop-color="#754427"></stop>
      <stop offset="1" stop-color="#6e3c20"></stop>
    </linearGradient>
  </defs>
  <g id="Слой_2" data-name="Слой 2">
    <g id="Слой_1-2" data-name="Слой 1">
      <path class="cls-1" d="M57.05,181.63s8.15,9.57,14.44,10,27.78-6.4,27.78-6.4l2.17-22.39L57.05,147.15Z"></path>
      <path class="cls-1" d="M8.2,161.22l4.43,29.19s15.73,2.36,18.48,1.57,15.34-5.5,18.88-5.5,7.06-4.85,7.06-4.85V147.15Z"></path>
      <polygon class="cls-2" points="14.74 217.73 57.05 237.65 96.19 217.83 55.49 200.59 14.74 217.73"></polygon>
      <path class="cls-3" d="M14.74,217.73l-2.11-27.32s20-.39,25.56-3.15,18.86-5.63,18.86-5.63l-1.55,19Z"></path>
      <path class="cls-4" d="M43.33,192.11a7,7,0,0,0-2.4-1.41v0s-3.21-1-4.95,1.2-1.45,4.47-.66,4.85a10,10,0,0,0,1.39.29s0,0,.07,0a22.66,22.66,0,0,0,3-.67,1.69,1.69,0,0,0,.52-.13l.55-.16c1.25-.39,1.4-.11,2.27-.87A3.33,3.33,0,0,0,44,193a2.51,2.51,0,0,0-.17-.43h0l0,0A.82.82,0,0,0,43.33,192.11Z"></path>
      <path class="cls-4" d="M26.15,194.93a9.08,9.08,0,0,0-3.4,1.12v0s-3.64,2.29-3,5.8,3.09,5.19,4.13,4.74a14,14,0,0,0,1.45-1.08s0-.08,0-.11c.78-.9,1.35-2.68,1.87-3.44a1.87,1.87,0,0,0,.3-.61c.08-.17.17-.35.31-.67.69-1.53,1.09-1.45,1.1-2.92A4.32,4.32,0,0,0,27.6,195a3,3,0,0,0-.56-.19v0H27A1.07,1.07,0,0,0,26.15,194.93Z"></path>
      <path class="cls-5" d="M57.05,181.63l-1.55,19,40.69,17.24,3.08-32.64s-12.68-1.47-18.19-.68-15.1,3.15-18,1.57A37.66,37.66,0,0,1,57.05,181.63Z"></path>
      <path class="cls-4" d="M41.55,201.11a2.71,2.71,0,0,0-1.06-.26h0a1.94,1.94,0,0,0-1.72,1c-.42,1-.05,1.84.29,1.9a4.28,4.28,0,0,0,.55-.05s0,0,0,0a9.89,9.89,0,0,0,1-.59.72.72,0,0,0,.18-.1l.18-.13c.43-.28.52-.19.76-.57a1.37,1.37,0,0,0,.11-.92l-.12-.14h0A.33.33,0,0,0,41.55,201.11Z"></path>
      <path class="cls-4" d="M81.41,193a1.83,1.83,0,0,0-.09-.76h0s-.32-.85-1.08-.87-1.21.43-1.16.66a3.52,3.52,0,0,0,.17.35h0a6.83,6.83,0,0,0,.63.53L80,193l.12.09c.3.21.26.29.57.35a1,1,0,0,0,.62-.16l.06-.1h0v0A.17.17,0,0,0,81.41,193Z"></path>
      <path class="cls-4" d="M92.78,206.65a9.42,9.42,0,0,0-1.61-3.23h0s-2.8-3.31-6.22-2.2-4.74,3.85-4.14,4.81a11.93,11.93,0,0,0,1.29,1.29s.08,0,.12,0c1,.65,2.87,1,3.7,1.37a2,2,0,0,0,.65.21l.71.22c1.64.46,1.61.87,3.08.67a4.35,4.35,0,0,0,2.52-1.7,2.39,2.39,0,0,0,.11-.58h0v-.06A1.11,1.11,0,0,0,92.78,206.65Z"></path>
      <path class="cls-4" d="M70.67,195.4a7.16,7.16,0,0,0-1.58,2.28l0,0s-1.18,3.1.82,5,4.33,1.77,4.76,1a9,9,0,0,0,.39-1.34s0,0,0-.09a25.12,25.12,0,0,0-.45-3,1.52,1.52,0,0,0-.09-.52c0-.15-.06-.3-.12-.56-.29-1.27,0-1.4-.68-2.32a3.39,3.39,0,0,0-2.07-1.07,2.11,2.11,0,0,0-.43.14h0l0,0A.85.85,0,0,0,70.67,195.4Z"></path>
      <path class="cls-6" d="M55.73,171.23c-2.06,2.39-5.67,5-4.2,8.6.17.44.89.25.71-.19-1.35-3.34,2.13-5.71,4-7.89.31-.36-.21-.88-.53-.52Z"></path>
      <path class="cls-6" d="M56.91,173.29c-2.22,1.33-4.88,1.62-7.08,3s-2.91,3.39-3.55,5.68a.37.37,0,0,0,.71.19c.86-3,2.12-5,5.16-6.13a29.38,29.38,0,0,0,5.14-2.07.37.37,0,0,0-.38-.64Z"></path>
      <path class="cls-6" d="M56.29,174.59c-1,2.24-2,4.47-3,6.71a8.36,8.36,0,0,0-.93,4.64c.07.47.78.27.72-.2-.31-2.27,1-4.31,1.85-6.3l2-4.47c.2-.43-.44-.81-.64-.38Z"></path>
      <path class="cls-6" d="M55.91,176.17a6.75,6.75,0,0,1-2.17,4.28A22.31,22.31,0,0,0,51,182.71a9.22,9.22,0,0,0-2.15,5.09c-.05.47.69.47.75,0,.39-3.32,2.26-4.83,4.7-6.76,1.51-1.21,2-2.83,2.36-4.67.1-.47-.61-.67-.71-.2Z"></path>
      <path class="cls-6" d="M53.84,180.47c-2.6,1.5-5.22,3-7.79,4.51a7.79,7.79,0,0,0-3.55,3.9l.73.1.05-.63c0-.48-.71-.48-.75,0l0,.63c0,.45.59.45.73.1,1-2.46,3.2-3.46,5.35-4.7l5.64-3.27c.41-.24,0-.89-.37-.64Z"></path>
      <path class="cls-6" d="M48.77,183.26c-1.44.34-3.65-.41-4.6,1.16s1.12,3.92,0,5.56a.38.38,0,0,0,.05.45l0,0a.37.37,0,0,0,.36.1l.09,0a.37.37,0,0,0,.16-.62l0,0c-.37-.3-.9.22-.53.53l0,0,.16-.62.23.06.06.45c.63-1,.24-2.5,0-3.56a3.25,3.25,0,0,1,.09-2.18c.3-.43,1.12-.48,1.59-.5A13,13,0,0,0,49,184c.47-.11.27-.83-.19-.72Z"></path>
      <path class="cls-6" d="M45.27,183.09a11,11,0,0,0-4.28-.68c-.48,0-.48.76,0,.74a10.32,10.32,0,0,1,4.08.66c.45.16.65-.55.2-.72Z"></path>
      <path class="cls-6" d="M43.63,185.33c-.94,1.32-2.93,3.2-2.07,5,.21.43.85.06.64-.37-.4-.82.25-1.67.71-2.31s.91-1.27,1.36-1.9c.28-.39-.36-.76-.64-.38Z"></path>
      <path class="cls-6" d="M56.6,175.27a4.37,4.37,0,0,1-.84,3.9c-.48.61-1.16,1-1.6,1.65a6.3,6.3,0,0,0-.66,4.25l.47-.35-.63-.14c-.46-.09-.66.62-.19.72l.62.13a.37.37,0,0,0,.47-.36,6.14,6.14,0,0,1,.4-3.65c.48-.81,1.38-1.27,1.93-2a5.22,5.22,0,0,0,.75-4.31c-.11-.47-.83-.27-.72.2Z"></path>
      <path class="cls-6" d="M56.89,179.73a16.58,16.58,0,0,1-.81,6.06,12.29,12.29,0,0,0-1.24,4.29.37.37,0,0,0,.74,0c0-2,1.16-3.52,1.63-5.36a19.86,19.86,0,0,0,.43-5,.38.38,0,0,0-.75,0Z"></path>
      <path class="cls-6" d="M49.4,197c1.36-3.62,3.78-5.58,6.72-7.89a9.32,9.32,0,0,0,3.72-5.79c.09-.47-.63-.67-.72-.2-.72,3.75-3.45,5.19-6.15,7.45a14.75,14.75,0,0,0-4.29,6.23c-.17.45.55.64.72.2Z"></path>
      <path class="cls-6" d="M47.82,194.68l.17-1.77c.08-.83-.05-1.7.94-2a9.79,9.79,0,0,1,2-.15l2.18-.17c.47,0,.47-.78,0-.74l-3.49.26a3.39,3.39,0,0,0-1.76.34,1.45,1.45,0,0,0-.44,1.07c-.15,1-.2,2.1-.3,3.14,0,.47.7.47.74,0Z"></path>
      <path class="cls-6" d="M46.4,193.75A6.69,6.69,0,0,0,48,191.61c.21-.43-.43-.81-.64-.38a6.08,6.08,0,0,1-1.52,2c-.36.31.17.83.53.52Z"></path>
      <path class="cls-6" d="M48,198.92c2.69.41,6.61,1.72,8.44-1.12.86-1.35.89-3.15,1.16-4.68a39.94,39.94,0,0,1,2.28-7.86c.18-.45-.54-.64-.71-.2a40.88,40.88,0,0,0-2.44,8.88c-.17,1-.22,2.69-.93,3.48-1.22,1.36-3.5,1.38-5.08,1.17l-2.53-.38c-.46-.07-.66.64-.19.71Z"></path>
      <path class="cls-6" d="M53.91,196.55a39,39,0,0,1,3.84-4.66c.33-.35-.19-.87-.52-.53a38.88,38.88,0,0,0-4,4.82c-.28.39.37.76.64.37Z"></path>
      <path class="cls-6" d="M49.76,202.25a2.36,2.36,0,0,1,1.67-3.05c.46-.1.27-.82-.2-.71a3.1,3.1,0,0,0-2.19,4c.16.44.88.25.72-.2Z"></path>
      <path class="cls-6" d="M53.55,204.53c.77-2.18,2.27-3.6,3.25-5.61s1-4.18,2-6.16c.2-.43-.44-.81-.64-.37-1.13,2.44-1.3,5.13-2.82,7.37a19.45,19.45,0,0,0-2.46,4.58c-.16.45.56.64.72.19Z"></path>
      <path class="cls-6" d="M56.55,172.25a4.4,4.4,0,0,0,5,4.14c.47-.07.27-.79-.19-.72a3.65,3.65,0,0,1-4.1-3.42c0-.48-.76-.48-.74,0Z"></path>
      <path class="cls-6" d="M57,175.5c.82,1.81,2.91,2,4.66,2.41,3.52.8,7,1.53,10.1,3.4a.37.37,0,0,0,.37-.65,24.61,24.61,0,0,0-6.41-2.58c-2.08-.54-7-.67-8.08-3-.2-.43-.84-.05-.64.38Z"></path>
      <path class="cls-6" d="M59.8,177.72a7.62,7.62,0,0,0,3.51.93c2.19.25,3.62,1.42,5.13,2.94.33.34.86-.19.52-.53a11,11,0,0,0-3.54-2.71c-1.71-.68-3.66-.24-5.24-1.28-.4-.26-.78.39-.38.65Z"></path>
      <path class="cls-6" d="M65,179a6.49,6.49,0,0,0,4.3,6.3c.45.16.65-.55.2-.72A5.72,5.72,0,0,1,65.69,179c0-.48-.73-.48-.74,0Z"></path>
      <path class="cls-6" d="M59.43,178.49c3,3.2,5.21,8.9,10.5,8.43.47,0,.48-.79,0-.74-5,.44-7.09-5.16-10-8.21-.33-.35-.85.17-.53.52Z"></path>
      <path class="cls-6" d="M59.17,180.1c3.34,2.08,6.75,4.86,10.67,5.69.47.1.67-.62.2-.71-3.8-.81-7.25-3.6-10.49-5.62-.41-.26-.78.38-.38.64Z"></path>
      <path class="cls-6" d="M58.52,180.49a17.25,17.25,0,0,0,1.19,4.84A22.27,22.27,0,0,1,61,191.8c0,.48.76.48.74,0a21.72,21.72,0,0,0-.74-5.08c-.6-2.1-1.57-4-1.69-6.23,0-.47-.76-.48-.74,0Z"></path>
      <path class="cls-6" d="M57.63,181.86c2.12,3.37,7,3.82,8.65,7.5.19.43.84,0,.64-.38-1.71-3.73-6.53-4.13-8.65-7.49-.25-.41-.89,0-.64.37Z"></path>
      <path class="cls-6" d="M58.81,188c.94,1.85,2.94,2,4.83,2.32,3.08.5,7.67.09,10.12,2.11.37.3.9-.22.53-.52a7.5,7.5,0,0,0-4.3-1.54c-2.49-.27-9.15,0-10.54-2.74-.21-.43-.85-.05-.64.37Z"></path>
      <path class="cls-6" d="M65.71,190.66a17.86,17.86,0,0,1,3.36,6.82.37.37,0,0,0,.71-.19,18.61,18.61,0,0,0-3.54-7.15c-.3-.38-.82.15-.53.52Z"></path>
      <path class="cls-6" d="M58.14,188.26a20.31,20.31,0,0,1,4.06,8.67,80.33,80.33,0,0,1,.9,10.39c0,.48.77.48.75,0-.31-7.3-.73-13.41-5.07-19.44-.27-.38-.92,0-.64.38Z"></path>
      <path class="cls-6" d="M58.31,188a160.89,160.89,0,0,1-.89,19.75c-.06.47.69.47.74,0a162.9,162.9,0,0,0,.9-19.75.38.38,0,0,0-.75,0Z"></path>
      <path class="cls-6" d="M62.8,198.5a9.58,9.58,0,0,1,3.5,5.28.37.37,0,0,0,.72-.2,10.42,10.42,0,0,0-3.85-5.72c-.38-.29-.75.36-.37.64Z"></path>
      <path class="cls-6" d="M62.58,198.19A8.25,8.25,0,0,0,68,200.63c.48,0,.48-.71,0-.74a7.53,7.53,0,0,1-4.91-2.22.37.37,0,0,0-.52.52Z"></path>
      <path class="cls-6" d="M56.37,170.53l.08,5a.38.38,0,0,0,.75,0l-.09-5a.37.37,0,0,0-.74,0Z"></path>
      <path class="cls-6" d="M56.72,168.58c-1.91,3-.16,6.66-1,10a.37.37,0,0,0,.72.2c.78-3.18-.92-6.91.89-9.79.26-.4-.38-.78-.64-.37Z"></path>
      <path class="cls-6" d="M57.19,176.23a13.86,13.86,0,0,1,.83,5.23c0,.48.72.48.74,0A14.16,14.16,0,0,0,57.9,176c-.16-.45-.88-.25-.71.2Z"></path>
      <path class="cls-6" d="M56.72,177v4.79a.37.37,0,0,0,.74,0V177a.37.37,0,0,0-.74,0Z"></path>
      <path class="cls-6" d="M57.91,178l-.19,3.54c-.07,1.16,0,2.48-.68,3.46-.28.39.36.76.64.38a4.89,4.89,0,0,0,.72-2.75c.09-1.54.17-3.09.25-4.63,0-.47-.72-.47-.74,0Z"></path>
      <path class="cls-6" d="M57.48,181.35A17,17,0,0,1,55.65,187c-.22.42.42.8.64.38a17.38,17.38,0,0,0,1.9-5.86c.06-.47-.65-.67-.71-.2Z"></path>
      <path class="cls-6" d="M57.07,177.91l.69,4.59c.07.47.79.27.72-.2l-.7-4.58c-.07-.47-.78-.27-.71.19Z"></path>
      <path class="cls-6" d="M57.06,176.09a32.94,32.94,0,0,0,.72,5.22.38.38,0,0,0,.72,0l.13-.71c.09-.47-.62-.67-.71-.2l-.14.71h.72a31.59,31.59,0,0,1-.7-5c0-.48-.77-.48-.74,0Z"></path>
      <path class="cls-6" d="M57.83,177.24a11.21,11.21,0,0,0,.9,3.26.37.37,0,0,0,.58.08,2.28,2.28,0,0,0,.59-2c0-.34-.52-.32-.68-.09l-.44.65.68.09-.74-2.56a.37.37,0,0,0-.72,0,6.14,6.14,0,0,0,0,2.3c.06.36.51.31.68.09a2.87,2.87,0,0,0,.61-2l-.73.1.27,1.46c.08.43.7.3.73-.1A4.94,4.94,0,0,0,58.36,175c-.31-.38-.83.15-.53.52a4.24,4.24,0,0,1,1,3l.72-.1L59.23,177c-.07-.41-.74-.31-.73.1a2.26,2.26,0,0,1-.5,1.58l.67.09a4.92,4.92,0,0,1,0-1.91H58l.74,2.56a.38.38,0,0,0,.68.09l.44-.64-.68-.09a1.33,1.33,0,0,1-.39,1.29l.58.08a10.35,10.35,0,0,1-.8-2.89c0-.47-.8-.48-.74,0Z"></path>
      <path class="cls-6" d="M58.21,183.19a21,21,0,0,1-.3,5.76l.73.1,0-.51c0-.47-.77-.48-.74,0l0,.51c0,.39.64.53.73.1a21.66,21.66,0,0,0,.32-6c0-.47-.78-.47-.74,0Z"></path>
      <path class="cls-6" d="M57.64,182.42a104.51,104.51,0,0,1-.26,12c0,.44.6.48.73.1l1.22-3.59c.15-.46-.57-.65-.72-.2l-1.22,3.59.73.1a102.29,102.29,0,0,0,.26-12c0-.48-.76-.48-.74,0Z"></path>
      <path class="cls-6" d="M57.55,184.72a3.85,3.85,0,0,1-.28,2c-.19.44.45.82.64.38a4.48,4.48,0,0,0,.38-2.34c0-.47-.79-.47-.74,0Z"></path>
      <path class="cls-6" d="M58.83,183.94a21.84,21.84,0,0,0,.73,5.86.37.37,0,0,0,.72-.2,20.82,20.82,0,0,1-.71-5.66.37.37,0,0,0-.74,0Z"></path>
      <path class="cls-6" d="M58.69,188.65a10.94,10.94,0,0,0-.5,3.64.37.37,0,0,0,.73.1A15.83,15.83,0,0,0,59,181.27c-.17-.44-.88-.25-.72.2a15.17,15.17,0,0,1-.07,10.72l.73.1a10.53,10.53,0,0,1,.48-3.44c.14-.46-.57-.65-.72-.2Z"></path>
      <path class="cls-6" d="M57.93,181l-.26,1.48a.37.37,0,0,0,.72.2,4.69,4.69,0,0,0,.22-1.78c0-.48-.78-.48-.74,0a4.25,4.25,0,0,1-.2,1.58l.72.2.25-1.49c.08-.46-.63-.66-.71-.19Z"></path>
      <path class="cls-6" d="M56.55,174.07A14.68,14.68,0,0,0,57.87,177a.38.38,0,0,0,.7-.18,5.8,5.8,0,0,0-.29-2.41.38.38,0,0,0-.55-.22,3.88,3.88,0,0,0-2.19,3.66.38.38,0,0,0,.56.32,2.07,2.07,0,0,0,1.09-1.34.38.38,0,0,0-.55-.42,3.42,3.42,0,0,0-1.06,1l.68.29a19.11,19.11,0,0,0,.23-4.07c0-.47-.76-.48-.74,0a18.55,18.55,0,0,1-.21,3.87.38.38,0,0,0,.68.29A2.37,2.37,0,0,1,57,177l-.55-.42a1.41,1.41,0,0,1-.75.89l.56.32a3.17,3.17,0,0,1,1.83-3l-.55-.22a5,5,0,0,1,.26,2.21l.7-.19a13,13,0,0,1-1.25-2.74c-.15-.45-.87-.25-.72.2Z"></path>
      <polygon class="cls-7" points="8.2 161.22 57.05 181.63 101.44 162.81 57.05 147.15 8.2 161.22"></polygon>
      <path class="cls-8" d="M57.77,20.62c.21-.48,3.88-6.74,6.53-7.32,0,0,1.38,0,.63-1.22s5-2.71,5.2-2.92,1.12-1.11.37-2,5-2.18,5-2.18.74-.58.32-1.22,5.57-1.75,5.57-1.75,1-1.06-1.8-.63l-5.41.79s.74-2.54-.8-2.17c0,0-2.48,3.34-3.71,3.87,0,0-.91-2-2.18-1.17L64.67,6.88a1.59,1.59,0,0,0-2.76,0,10.43,10.43,0,0,0-1.48,4.94A2.77,2.77,0,0,1,60,10.31s0-.51-1.33-.25c0,0,1-7.11-2-4.45,0,0-2.07-5.31-3.18-4.83,0,0-.8,0,0,1.43a34.2,34.2,0,0,1,3,16.82s-.38.42.21,1.59a3.85,3.85,0,0,1-.11,1.22c-.16.43-.19-.23-1.29-.33a1.73,1.73,0,0,1,.18-1.42c.42-.92,1-3.78-1.66-3.61,0,0,0-4-.66-4.24s-1.22,4.1-1.22,4.1-3.29-1-.64,3.36c0,0,.39.11-.17.89s.49,3,2.93,4.63L55,26a17.91,17.91,0,0,0,.57,2.26c1-.32,2.75-1.38,4.17-1.17s2.86,1.38,3.07.39a2,2,0,0,0-.6-2.16c-.53-.28,1.67-.35,3.12-.42s1.91-1.13,1-1.63,5.38-1.27,6.33-1.16,1.81-.6-.63-.71-2.55.46-2.44-.11-.22-2.79-4.11,0c0,0-.88.74-.85-.53s-2.3-1.24-3.53.49-1.74,1.81-1.84,1.06.46-1.38.21-1.62-.92.46-1.49,1.16-.84.36-.53-.46Z"></path>
      <path class="cls-8" d="M55.51,39c.3.75,4.24-2.19,5.16-2s1.84,0,1.91-.92c0,0,4.67.71,5.24.5a1.55,1.55,0,0,0,0-2.83S72.56,32.5,74,30.31s-2,.28-3.31.28-1.53.11-2,.06,0-1.91-1.54-1.59a4.39,4.39,0,0,1-1.27.9,28.94,28.94,0,0,0-3.24,1.22,2.42,2.42,0,0,1-1.22.37c-.16,0,.48-2.87-1.91-1.33s-3.45,2.65-3.6,3.8S54.78,37.19,55.51,39Z"></path>
      <path class="cls-8" d="M41.7,51.07a4.77,4.77,0,0,1-.8-2c-.1-1.22,1.17-10.08-2.54-8.49,0,0,.84-6.1-1.7-2.92,0,0-.37.76-1.28-.92s-2.7-4.54-2.28-1.2c0,0,1.06,2.71.85,3.18S32.34,38.66,33,40s1,1.09-.19,1.48C30.4,42.32,37.67,49.11,41.7,51.07Z"></path>
      <path class="cls-8" d="M27.43,48.15A10.08,10.08,0,0,1,22,46c-2.65-2.07-6-4.88-6.42-5.09s-2.33,1.27-.95,4.72c0,0,1.06,1.38-.9.8S7,43,5.78,45s0,2.44,0,2.44A12.71,12.71,0,0,0,.64,50c-2,1.86,1.38,1.75,1.64,1.75s4.35-1.11,4.46-.37-.8,3,1.75,2.65,3.87-3,4.45-3,1.38.2,1,1.37-.42,3.29,2.44,2.6,5.47-3.82,5.63-3.34-.32.79-.8,1.11A23,23,0,0,0,17.45,58c-.53,1.38-4.77,3.61-4.56,9.55,0,0,0,1.86,1.17,1.48,0,0-.74,4.57,2.17,6,0,0,.75,6.58,2.28,6.74,0,0-.42-7.7.64-9.92,0,0,.27-7.17.74-10.14s.5-9.78,7.54-13Z"></path>
      <path class="cls-8" d="M53.74,31c-.32-.64-.11-2.55-2.55-4.4s-1.59-5.52-4.61-3.13c0,0-2.49-2.07-2.55-3.19s-1.43-.53-1.11.8-1.22,2.23,1.91,6c0,0,.32.32-.37.82s-.11,1.62,1.69,2.15,7.82,2,9.09,6.68Z"></path>
      <path class="cls-8" d="M76.45,44.28a24.46,24.46,0,0,1,1.27-3.13c.32-.69.58-6.58,1.27-8.06s1.28-3.29,3.72-2.65c0,0,2.44-1.16,2.76-2.47S87,25.4,87.8,25.5s1.7-.05,1.91.32,1.06-.05,1.27.11,2.07-1,1.75.1a8,8,0,0,1-2.12,2.55s2.12,1.59-2,3.23c0,0-.85.22-.11,1.38S89.82,37,85.25,37.6c0,0-4.35,3.87-4.56,2.81s-2,3.87-3.13,3.87S76.55,44.87,76.45,44.28Z"></path>
      <path class="cls-8" d="M76,45.18s.43-5.83,0-6.73.85-2.18.43-2.6-2,1.32-2.14,2.38-1.68-.16-1.74,1.22a11,11,0,0,0,1.49,4.78A2.35,2.35,0,0,0,76,45.18Z"></path>
      <path class="cls-8" d="M82.18,42.56S93.6,29.85,92.77,37.33c0,0,8.77-4.72,7.23.64,0,0-.1,1,2.34.16s3.6-.85,3.87,1.32c0,0,2.28.91,2,1.81,0,0,2.45.9,0,1.3,0,0-1.3,1.29-2.26,0,0,0-1,2.57-4.72-1.51,0,0-.26,2.8-3.13,1.51s-2.92-1.46-4.24-1.3c0,0-.16.32.42,1.06s.69,2.87-5.94,1S82.18,42.56,82.18,42.56Z"></path>
      <path class="cls-8" d="M73.63,46.46c-.17,0,16.24-1.44,23,7.16,0,0,.24,1.22-.89.79s1.73,4.67,1.36,6.11-.26,1.85-1.59,1.48c0,0-2.65,6.53-1.85,9.76,0,0-3.93.32-4.36-8,0,0-4.4-.26-2.28-6.26,0,0,.32-1.54-.85-.74s-3.34-.69-2.65-4.56A19.13,19.13,0,0,0,73.63,46.46Z"></path>
      <path class="cls-8" d="M65.94,54.73S83.77,42.16,81.43,62.8c0,0-.42,2.12-2.22,0s-3.61-3.72-3.93-3.72-.37.43-.42.59-.8,2.22-2.6-.16S67.11,54,65.94,54.73Z"></path>
      <path class="cls-8" d="M70.56,59.45s8,5.26,4.19,6.85c0,0,3.34,5,1.38,6.31,0,0,1.54,3-.32,2.87,0,0-1,6.42-2,0,0,0-1.38-.38-.42-2.66,0,0-1.59.37-.8-4.82,0,0-4.77,4.08-2.7-7.86C69.87,60.14,69.05,58.36,70.56,59.45Z"></path>
      <path class="cls-8" d="M72,84.12c-.36.33,6.32-9.12,7.7-10.87s3.66-2.92,4.61,0c0,0-.9,1,2.34-.21s6.73-4.35,7.42-1.28c0,0,2.34-1.7,2.23.53s1.33,1.54,1.54,1.54,2.92.85,0,2.07a4.76,4.76,0,0,1-2.6-.05c-.85-.48-.53,1-.11,1.22s1.81,2.86-1.11,1.8a4.5,4.5,0,0,0-4-1.58c-2.7.2-3.84,0-2.69,1s3,3.51-.23,2.72S78.52,78.45,72,84.12Z"></path>
      <path class="cls-8" d="M77.61,88.37s3.29-1.86,7.64.74c0,0,3,1.64.38,2.49,0,0,6.2,5.41,2.91,5.31,0,0,1.28,4.19.21,4.77,0,0-1.37-3.5-2.06-4.08a1.83,1.83,0,0,1-2.13-1.43c-.58-1.81-.85-2.66-1.22-2.6s0,.79-.32,1.13-.68,1-2.06-.76-2.82-3.4-3.35-4.25S77.61,88.37,77.61,88.37Z"></path>
      <path class="cls-8" d="M62.44,96.48s5-4.45,7.8-4.66,4.51-.91,3.08,1.85c0,0-1.28.75,1.59,1.65a7.05,7.05,0,0,0,4.61.13c.41,0,3.56.29,2.13,2.15,0,0-1,.32.84,1a6.42,6.42,0,0,1,4.83,5.26s1.59,1.37,1,1.8-6-3.87-7-3.93c0,0,1,3.66-2.38,3.24a3,3,0,0,1-1.86-2c-.58-1.69-3.45-3-3.45-3s-.8-.37-.53.53a2.43,2.43,0,0,1-1,2.23c-.41.26-1.42,1.22-2.11-.37S64.46,96.17,62.44,96.48Z"></path>
      <path class="cls-8" d="M45.36,54.73s-4.72-1.48-8.81,3.08c0,0-.94,1.27.48,1.64,0,0-4.14,3.35-4.19,5.31s-.05,1.38.42,1.8-.16,4.83,1.28,6,1.64-5.36,1.64-5.36,1.62,2.52,2.91-5.82c0,0,3.19,1.78,3.88-1.77s2.55-4.08,3.71-3.93S45.36,54.73,45.36,54.73Z"></path>
      <path class="cls-8" d="M38.2,51.08c.26,0-8.33.63-5.38,7.58,0,0,1.88,5.68-1.73,4.35a16.82,16.82,0,0,0-.64,4.19c.11,1.49-.16,2.81-1.48,2.23,0,0,.31,2.92-.53,2.92s-2.18-.32-3.4-5c0,0-3.13.58-2-3S25.31,51.4,38.2,51.08Z"></path>
      <path class="cls-8" d="M43.94,75.32s-33.39-8-25.75,26.36c0,0,.85,1.17,1.27-1.48s.74-9,2.44-10.08c0,0,.79,2.12,2.25-.21C24.15,89.91,24.48,72.5,43.94,75.32Z"></path>
      <path class="cls-8" d="M41.49,76.8c.26,0-18.15,1.65-10.77,21.12,0,0,3,1.48,4.24-8.39,0,0,4.88,2,3.93-3S40.8,76.91,41.49,76.8Z"></path>
      <path class="cls-8" d="M55.86,91.58S48.44,80.75,46.1,86c0,0-11.84.28-4.61,13.3,0,0,1,1.27,2.28-3.82,0,0-.5-1.49,1.62-.28s3.07,2.12,4.22-.85,4.13-1.13,5-1.35S56.3,92.19,55.86,91.58Z"></path>
      <path class="cls-8" d="M35.84,104.09s-3.18-8.81-5.12-6.17c0,0-.89,1.36-3.29-1.68,0,0-.57-1.06-1.7,0,0,0-.71-1.21-1.34-1.14,0,0-.71-1.13-1.07-.7s.43,1.27.43,1.27S23,95.6,24.17,97c0,0-1.2,2.13,4,3.19C28.21,100.2,23,103.17,35.84,104.09Z"></path>
      <path class="cls-8" d="M42.56,110s1.14-5.73-.7-9.12c0,0-.5-.64-.85,0,0,0-1-2.59-1.56-2.62,0,0-.92-3.72-1.2,0,0,0-1.17-.36-.53,2.69C37.72,101,34,100.69,42.56,110Z"></path>
      <path class="cls-8" d="M41.91,110s-5.78-2.62-13.16,2.32c0,0-.71,1.22.79,1.32a11,11,0,0,0-1.21,7.48s.05,1.38,1.43-.32,1.86-3.5,2.23-3.44,1,1.53,1.64.74S37.19,110,41.91,110Z"></path>
      <path class="cls-8" d="M49.76,121.68a8.54,8.54,0,0,0-7.43-2.44c-4.61.75-2.42,2.44-2.42,2.44s-6.65,2.76-2.67,10.56c0,0,1,1.11,1.33-.42s-.06-1.86.58-3.24,1.59-3.45,2.07-3.24,1.06,2.23,2,.27S46.74,120.83,49.76,121.68Z"></path>
      <path class="cls-8" d="M63.38,124.55a.89.89,0,0,0,.32-.4c.54-1.54,2.32-8.2,4-9.66s2.14-3.2,2.86-.28c.1.41-.15.75-.34,1.13,0,0,.36-.22,1.76-1.14,3-2,7.46-5.23,6.75-2.68s-1.62,2.33.08,2.33,4.84-.71,6.77-.42,4,1.13-.91,1.69c-4,.47-2.31.79-1.56.89a1.21,1.21,0,0,1,.59.26c.5.44,1.15,1.35-2.35,1.25-4.6-.13-3.33-.06-3.11.36s1.48,3.18-1.7,2.62a11.14,11.14,0,0,0-5.31.14c-.28.07,4.47,1.91.75,2.41s-5.34,1.83-7.4,1.76C63.32,124.77,63.25,124.64,63.38,124.55Z"></path>
      <path class="cls-8" d="M50.06,120.78c.21.43,2.2-6.15,4.81-4.53,0,0-.43-3.68-3.68-3.32a2.68,2.68,0,0,0-2.41,2.31A10.23,10.23,0,0,0,50.06,120.78Z"></path>
      <path class="cls-8" d="M61.45,127.86s11.35-2.73,2.83,10a28.77,28.77,0,0,1-.42-3c-.08-1.2-1.54,1-.53-3.11,0,0-2.09.1-1-3.22C62.3,128.53,62.55,127.78,61.45,127.86Z"></path>
      <path class="cls-8" d="M60.67,127.61s2.2-4.49,2.34-7.18a58.16,58.16,0,0,0-.57-8.42c-.14-.92-1.77,1.77-1.77,4.84s1.21,3.44,0,3.08-1.91-.81-2.47.87S60.67,127.61,60.67,127.61Z"></path>
      <path class="cls-8" d="M48.74,135.49s-12.68-5.94-12.12,9.34c0,0,1,1.91,2.62-4,0,0-.5-.28,1.41-.42S45,134.08,48.74,135.49Z"></path>
      <path class="cls-8" d="M58.13,148.79s4.44-4.81,6.32-.85a10.24,10.24,0,0,0,3,2.48c1.71.85,6.87,3.68,1.14,3.61s-5.65-4.32-6.57-4.67A5.19,5.19,0,0,0,58.13,148.79Z"></path>
      <path class="cls-9" d="M55.39,40.24a5.12,5.12,0,0,0,1.7,1.49c.62.43,2.1,1.59,2.12,2.35"></path>
      <path class="cls-10" d="M58.94,43.11s1.52,0,1.38-1.41.46.25.28.71-.39,1.13-.81,1.27c0,0-.85,1.2-1.63.71,0,0-.85.85-1.52.39,0,0,2-.75,1.84-1.38S58.94,43.11,58.94,43.11Z"></path>
      <path class="cls-10" d="M48.79,62.89s.64-1,1.31-.77c0,0-.85,1-.66,1.62a4.88,4.88,0,0,1,.37,1.69,9.48,9.48,0,0,0-1-1.24C48.22,63.63,48.79,62.89,48.79,62.89Z"></path>
      <path class="cls-10" d="M50.61,99.15s.77-2.12,2-1.75c0,0-1.11,1.58-.9,2.59S50.61,99.15,50.61,99.15Z"></path>
      <path class="cls-11" d="M63.55,8.2C60.2,13.63,57.28,19.45,56,25.73s-.62,12.72-.16,19.08.59,12.82.71,19.22.11,12.82.06,19.22c-.09,12.82-.41,25.63-.74,38.43s.65,25.53.34,38.42L53.92,160c.49-12.71-.39-25.55.19-38.41s1-25.59,1.31-38.38c.13-6.4.22-12.8.21-19.2s0-12.8-.41-19.18-.91-12.88.49-19.2S60.11,13.57,63.55,8.2Z"></path>
      <path class="cls-11" d="M86.53,40.6c-14.35,3.56-26.31,13.77-30.85,28-.19.59.73.84.92.25C61,54.93,72.76,45,86.78,41.52c.6-.14.34-1.07-.25-.92Z"></path>
      <path class="cls-11" d="M77.67,78.33A89.61,89.61,0,0,0,55,115l-1.43-.47A90.55,90.55,0,0,1,77.67,78.33Z"></path>
      <path class="cls-11" d="M63.39,123.16c-3.9,4.15-8,8.63-9.14,14.4-.16.8,1.07,1.14,1.22.34,1.1-5.56,5.07-9.85,8.82-13.84.57-.59-.33-1.49-.9-.9Z"></path>
      <path class="cls-11" d="M47.12,135.91a5.33,5.33,0,0,1,3,1.5A6.07,6.07,0,0,0,53.55,139a.64.64,0,0,0,0-1.27,3.22,3.22,0,0,1-1.5-.5,15,15,0,0,1-1.52-1.09,5.83,5.83,0,0,0-3.41-1.53.64.64,0,0,0,0,1.28Z"></path>
      <path class="cls-11" d="M34.61,104.08a38.89,38.89,0,0,1,11.09,12c3,4.92,5.5,10.13,8.19,15.21.38.73,1.48.08,1.1-.64-2.83-5.35-5.47-10.86-8.67-16A39.88,39.88,0,0,0,35.25,103c-.67-.47-1.31.63-.64,1.1Z"></path>
      <path class="cls-11" d="M55.55,150.6,60,148.39a.64.64,0,0,0,.23-.87.65.65,0,0,0-.87-.23l-4.41,2.21a.64.64,0,0,0-.23.87.65.65,0,0,0,.87.23Z"></path>
      <path class="cls-11" d="M51.19,99.22a5.27,5.27,0,0,1,2.25,1.1,7.59,7.59,0,0,1,1.84,1.78c.23.34.78,0,.55-.32a8.41,8.41,0,0,0-2.07-2,5.83,5.83,0,0,0-2.57-1.19.32.32,0,1,0,0,.64Z"></path>
      <path class="cls-9" d="M36,74.74c16.9,0,17.9,8.38,19.54,15.09"></path>
      <path class="cls-11" d="M48.92,71.43a3.16,3.16,0,0,1,2.32-3.55,11.35,11.35,0,0,1,4.57.07c.4.06.57-.55.16-.62a23.2,23.2,0,0,0-2.63-.27,6.64,6.64,0,0,0-2.62.32,3.77,3.77,0,0,0-2.41,4.22.32.32,0,0,0,.61-.17Z"></path>
      <path class="cls-11" d="M49.36,64.05a16.46,16.46,0,0,1,3.31,1.64,16,16,0,0,1,3,2.18c.3.28.75-.17.45-.45A16.91,16.91,0,0,0,53,65.14a18,18,0,0,0-3.47-1.71c-.39-.13-.56.49-.17.62Z"></path>
      <path class="cls-11" d="M25.31,49.09A36.54,36.54,0,0,1,55.48,64.16c.35.5,1.18,0,.82-.48a37.49,37.49,0,0,0-31-15.54.48.48,0,0,0,0,1Z"></path>
      <path class="cls-11" d="M47,33.3a3.17,3.17,0,0,1,1.79.66,5.56,5.56,0,0,1,1.45,1.37.32.32,0,1,0,.55-.32,6.4,6.4,0,0,0-1.68-1.6A3.78,3.78,0,0,0,47,32.66a.32.32,0,0,0,0,.64Z"></path>
      <path class="cls-11" d="M49.27,38.71a2.87,2.87,0,0,1,.54-2.51A3.42,3.42,0,0,1,51.53,35a2.23,2.23,0,0,1,2,.25,3.76,3.76,0,0,1,1.09,1.62,9.75,9.75,0,0,1,.57,2.2c.06.4.68.23.62-.17-.23-1.46-.68-3.24-1.93-4.18s-3.46-.27-4.49.94a3.55,3.55,0,0,0-.74,3.19c.09.4.71.23.61-.17Z"></path>
      <path class="cls-11" d="M43,40a9.19,9.19,0,0,1,5.82-2.41c.41,0,.41-.65,0-.63a9.81,9.81,0,0,0-6.27,2.59c-.3.28.15.73.45.45Z"></path>
      <path class="cls-11" d="M46.76,46.55a17.24,17.24,0,0,0,.56-5.67,4,4,0,0,1,.14-2.17,1.7,1.7,0,0,1,1.4-1.1c.41,0,.41-.65,0-.63a2.59,2.59,0,0,0-2.25,2.65c0,1.1.21,2.19.13,3.3a23.69,23.69,0,0,1-.59,3.45c-.09.4.53.57.61.17Z"></path>
      <path class="cls-11" d="M63.49,56.26a2.92,2.92,0,0,1,3.71,0,8.56,8.56,0,0,1,2.48,3.93c.15.37.76.21.61-.17-.66-1.63-1.39-3.43-2.92-4.42a3.51,3.51,0,0,0-4.33.17.32.32,0,0,0,.45.45Z"></path>
      <path class="cls-10" d="M61,56s-.14-3.36-1.45-3.75a2.57,2.57,0,0,1,2.05,1.88,4.08,4.08,0,0,0,.71-1.88s1.31.53.39,2.62a2.72,2.72,0,0,1,1.38,2.87A3.32,3.32,0,0,0,61,56Z"></path>
      <path class="cls-11" d="M64.45,54.53a8.47,8.47,0,0,0,2.79.23.32.32,0,0,0,.31-.31.31.31,0,0,0-.31-.3,7.77,7.77,0,0,1-2.63-.21.31.31,0,0,0-.16.59Z"></path>
      <path class="cls-9" d="M67.11,90c3.6-.92,6.68-2.64,11.18-1.21"></path>
      <circle class="cls-12" cx="50.61" cy="43.35" r="4.77"></circle>
      <path class="cls-13" d="M54.52,40.63c1.31,3.18.94,4-.57,4.88s-3.64,0-4.74-1.88-1-4.84.74-5C51.21,38.44,53.68,38.59,54.52,40.63Z"></path>
      <circle class="cls-13" cx="61.33" cy="47.51" r="4.46"></circle>
      <circle class="cls-12" cx="44.26" cy="34.03" r="2.97"></circle>
      <circle class="cls-13" cx="40.6" cy="42.2" r="3.35"></circle>
      <circle class="cls-12" cx="45.53" cy="48.79" r="2.32"></circle>
      <circle class="cls-12" cx="57.74" cy="58.04" r="5.21"></circle>
      <path class="cls-13" d="M62.85,57.05c.09,2.28-2.18,3.69-4.78,3.69s-5-2.56-4.77-4.73c.18-1.7,2.1-3.09,4.69-3.09S62.78,55.35,62.85,57.05Z"></path>
      <ellipse class="cls-13" cx="44.84" cy="65.1" rx="4.77" ry="4.46"></ellipse>
      <circle class="cls-13" cx="60.48" cy="71.68" r="6.36"></circle>
      <path class="cls-8" d="M66.13,91.65s.79-10.44-3.9-17.65c-.32-.49-2-8.39-5.25-2.24,0,0-5.47-.37-6.48,0s-2.06,5.47,2.34,6,4.8.42,5.21.95c0,0-2.45,2,.52,2.6S64.28,86.66,66.13,91.65Z"></path>
      <circle class="cls-12" cx="47.2" cy="78.46" r="7.44"></circle>
      <path class="cls-13" d="M54.64,78.46c-.27,3.83-1.33,4.89-3.8,5.8-2.25.83-6.78-2.3-7.52-5.8a7.8,7.8,0,0,1,2.15-7C47.27,69.87,55.09,72.16,54.64,78.46Z"></path>
      <path class="cls-10" d="M48.82,70.45s-3.14-2.19-4.56,1.31c0,0,.71-1.34,2.55-.39,0,0,2.58,2.41,4.21,2.9,0,0-1.35-1.8-.92-2.51,0,0,3.46-.78,4.07-1.31A19.18,19.18,0,0,0,48.82,70.45Z"></path>
      <path class="cls-8" d="M70.69,85.77s4.64-7.06-.4-14.33-5.57-9-5.57-9-.58-1.12-.37.9,1.54,3.18,1,3.6-1.26.33-1,1.79,3.18,2.35,3.45,2.78-.8.26-1,.85-1.2.69,2.56,3.44S70.69,85.77,70.69,85.77Z"></path>
      <circle class="cls-12" cx="60.64" cy="111.96" r="4.59"></circle>
      <path class="cls-13" d="M45.84,109.8c0,2.79,2.44,6,5,5s5-2.25,5-5a5,5,0,0,0-10.09,0Z"></path>
      <ellipse class="cls-12" cx="46.95" cy="102.28" rx="5.67" ry="4.7" transform="translate(-52.89 50.35) rotate(-37.86)"></ellipse>
      <circle class="cls-12" cx="63.03" cy="98.14" r="8.27"></circle>
      <path class="cls-10" d="M59.61,91.39c0-.1.64-3.41,1.73-3.42a3.44,3.44,0,0,0-3.21,2.78s-1.52-1.23-1.49-2.47A4.75,4.75,0,0,0,56.39,92s-1.94.6-2.26,4.25c0,0,2.9-2.44,3.61-2.55S59.61,91.39,59.61,91.39Z"></path>
      <path class="cls-10" d="M52.57,105.11a15,15,0,0,0,.22-2c-.06-.14,1.34,1.43,1.34,1.43a2.61,2.61,0,0,1,2.53-1.06s-1.14.79-1.27,1.35l1.69.8-1.1.76S52.43,105.9,52.57,105.11Z"></path>
      <path class="cls-13" d="M57.12,95.73A5.89,5.89,0,0,1,63,89.87c3.72,0,7.58,3.1,7.58,5.86s-1.47,6.08-5.19,6.08S57.12,98.5,57.12,95.73Z"></path>
      <path class="cls-10" d="M46.81,45.71a1.08,1.08,0,0,1-1.7-.35s0,1.13.74,1.17a1.13,1.13,0,0,0,.82.35,1.38,1.38,0,0,0,1.52,0S46.35,46.74,46.81,45.71Z"></path>
      <path class="cls-10" d="M42.73,39.21s1.55-.46,1.66,0c0,0-1-.07-1,.28,0,0-.35.36,0,.57s1.2,1.06,1.66,1.06a1.78,1.78,0,0,1-1.91-.5s-1.52-.14-1.23-.95a2.15,2.15,0,0,1-.25-2.19S42.16,39.85,42.73,39.21Z"></path>
      <path class="cls-14" d="M54.08,169.59a1.36,1.36,0,0,0-1.3-.48c-.72.22-1,.79-.88,1a3.29,3.29,0,0,0,.27.28c.18.17.56-.33.58-.33Z"></path>
      <path class="cls-15" d="M54.45,170.45s-.22-1-.59-1a7.74,7.74,0,0,1-.78-.07l-.11.18a3.19,3.19,0,0,0,.51.7c.15,0,.43.11.5.14A3,3,0,0,0,54.45,170.45Z"></path>
      <path class="cls-16" d="M54.43,170.57c0-.08.09-.31-.15-.37a3.22,3.22,0,0,0-.47-.1s-.59.44-.71.51-.19.06.15.16.33.19.64.15A.94.94,0,0,0,54.43,170.57Z"></path>
      <path class="cls-17" d="M53.81,170.1a3.41,3.41,0,0,0-.43.42c-.18.2-.21.26-.41.16s-.75-.18-.89-.39-.13-.18,0-.43a1.11,1.11,0,0,1,.69-.42.61.61,0,0,1,.69.15A1.66,1.66,0,0,1,53.81,170.1Z"></path>
      <path class="cls-14" d="M51.13,153a2,2,0,0,0-2-.29c-1,.54-1.19,1.44-1,1.7a5.5,5.5,0,0,0,.47.31c.31.2.71-.64.73-.65Z"></path>
      <path class="cls-15" d="M51.93,154.08s-.62-1.34-1.15-1.24a11.51,11.51,0,0,1-1.15.14l-.09.29s.71.81.94.84.65,0,.75.06A5,5,0,0,0,51.93,154.08Z"></path>
      <path class="cls-16" d="M51.93,154.26c0-.13,0-.47-.32-.5a5,5,0,0,0-.72,0s-.7.82-.85,1-.26.15.26.19.54.16,1,0A1.35,1.35,0,0,0,51.93,154.26Z"></path>
      <path class="cls-17" d="M50.89,153.76a8,8,0,0,0-.49.74c-.18.35-.21.45-.54.36s-1.12,0-1.38-.29-.25-.22-.08-.62a1.6,1.6,0,0,1,.87-.82.88.88,0,0,1,1,0A2.36,2.36,0,0,1,50.89,153.76Z"></path>
      <path class="cls-14" d="M47.15,159.05s-4.14-2.07-7,.46-3,5.77-2,6.47a13,13,0,0,0,1.81.72c1.2.44,1.94-2.67,2-2.72S47.15,159.05,47.15,159.05Z"></path>
      <path class="cls-15" d="M50.69,162.32s-3.08-4.11-4.83-3.39-3.79,1.3-3.79,1.3L42,161.28s3,2.24,3.83,2.18,2.23-.33,2.59-.34A17.44,17.44,0,0,0,50.69,162.32Z"></path>
      <path class="cls-16" d="M50.81,163c0-.46-.21-1.64-1.45-1.47a17.52,17.52,0,0,0-2.44.52s-1.81,3.29-2.21,3.85-.78.69,1,.46,2,.19,3.31-.64A4.62,4.62,0,0,0,50.81,163Z"></path>
      <path class="cls-17" d="M46.92,162a20.49,20.49,0,0,0-1.13,2.86c-.38,1.3-.39,1.66-1.58,1.6s-3.85.7-4.91,0-1-.58-.72-2.09,1-2.23,2.35-3.4a3.1,3.1,0,0,1,3.51-.74A8,8,0,0,1,46.92,162Z"></path>
      <path class="cls-14" d="M61.48,159.92s-3.48-2-6.14,0-3,4.83-2.17,5.49a11.05,11.05,0,0,0,1.53.74c1,.46,1.85-2.2,1.91-2.24S61.48,159.92,61.48,159.92Z"></path>
      <path class="cls-15" d="M64.35,163s-2.42-3.75-4-3.24-3.38.91-3.38.91l-.16.9s2.49,2.13,3.19,2.12,2-.15,2.26-.13A15.15,15.15,0,0,0,64.35,163Z"></path>
      <path class="cls-16" d="M64.42,163.52c0-.4-.09-1.43-1.17-1.36a14.81,14.81,0,0,0-2.15.3s-1.77,2.75-2.16,3.22-.71.55.87.45,1.67.28,2.91-.35A4.07,4.07,0,0,0,64.42,163.52Z"></path>
      <path class="cls-17" d="M61.1,162.46a19.47,19.47,0,0,0-1.16,2.42c-.4,1.11-.44,1.42-1.46,1.29s-3.39.38-4.27-.27-.84-.56-.5-1.86a4.8,4.8,0,0,1,2.25-2.8,2.68,2.68,0,0,1,3.09-.43A7,7,0,0,1,61.1,162.46Z"></path>
      <path class="cls-14" d="M70.68,156.25s-3.43-2.64-6.54-.85-3.82,4.74-3,5.56a13.77,13.77,0,0,0,1.53,1c1,.62,2.26-2.1,2.33-2.13S70.68,156.25,70.68,156.25Z"></path>
      <path class="cls-15" d="M73.33,159.89s-2.08-4.33-3.81-4a37.26,37.26,0,0,1-3.72.51l-.29.94S67.88,160,68.62,160s2.11.1,2.43.16A16.82,16.82,0,0,0,73.33,159.89Z"></path>
      <path class="cls-16" d="M73.32,160.48c.05-.42.11-1.53-1.06-1.61a17.36,17.36,0,0,0-2.33,0s-2.25,2.69-2.72,3.13-.84.49.86.61,1.75.52,3.14,0A4.35,4.35,0,0,0,73.32,160.48Z"></path>
      <path class="cls-17" d="M69.93,158.91a20.29,20.29,0,0,0-1.55,2.42c-.58,1.12-.66,1.45-1.74,1.18s-3.65,0-4.5-.86-.83-.71-.28-2.05,1.31-1.86,2.76-2.69a2.89,2.89,0,0,1,3.35,0A7.33,7.33,0,0,1,69.93,158.91Z"></path>
      <path class="cls-14" d="M73.33,167.33a2.08,2.08,0,0,0,1.91-.94c.51-1,.17-1.95-.18-2a4,4,0,0,0-.59,0c-.38,0-.23,1-.24,1S73.33,167.33,73.33,167.33Z"></path>
      <path class="cls-15" d="M72,166.83s1.32.79,1.73.39a10.38,10.38,0,0,1,.9-.8l-.09-.31a4.28,4.28,0,0,0-1.31-.16c-.22.11-.58.35-.68.39A4.89,4.89,0,0,0,72,166.83Z"></path>
      <path class="cls-16" d="M71.87,166.67c.06.12.25.43.57.24a5.76,5.76,0,0,0,.62-.42s.12-1.13.17-1.33.13-.28-.34,0-.56.18-.84.56A1.37,1.37,0,0,0,71.87,166.67Z"></path>
      <path class="cls-17" d="M73.06,166.49a6.25,6.25,0,0,0,0-.93c0-.4-.08-.51.26-.62s1-.64,1.36-.58.34,0,.44.5a1.67,1.67,0,0,1-.26,1.21.93.93,0,0,1-.89.61A2.33,2.33,0,0,1,73.06,166.49Z"></path>
      <path class="cls-14" d="M40.71,168.07a2.65,2.65,0,0,0,2.5-1c.75-1.27.4-2.47-.05-2.6a4,4,0,0,0-.74,0c-.49,0-.38,1.2-.4,1.23S40.71,168.07,40.71,168.07Z"></path>
      <path class="cls-15" d="M39,167.31s1.62,1.12,2.17.64,1.22-.94,1.22-.94l-.09-.39a5.54,5.54,0,0,0-1.66-.32c-.28.12-.77.39-.9.44A6,6,0,0,0,39,167.31Z"></path>
      <path class="cls-16" d="M38.91,167.1c.07.16.27.57.7.36a7.08,7.08,0,0,0,.83-.49s.25-1.42.33-1.67.19-.35-.43,0-.73.17-1.13.63A1.8,1.8,0,0,0,38.91,167.1Z"></path>
      <path class="cls-17" d="M40.44,167a9,9,0,0,0,.06-1.18c0-.52-.07-.65.37-.77s1.31-.73,1.78-.62.44.09.52.67a2.13,2.13,0,0,1-.44,1.53,1.17,1.17,0,0,1-1.18.69A3,3,0,0,1,40.44,167Z"></path>
      <path class="cls-14" d="M52.18,161.52a1.55,1.55,0,0,0,1.55.27c.76-.4,1-1.09.78-1.29a3.18,3.18,0,0,0-.35-.26c-.24-.15-.56.48-.58.49Z"></path>
      <path class="cls-15" d="M51.59,160.63s.45,1.05.87,1,.89-.08.89-.08l.08-.22s-.54-.64-.72-.67-.5,0-.58-.06A3.69,3.69,0,0,0,51.59,160.63Z"></path>
      <path class="cls-16" d="M51.6,160.49c0,.1,0,.36.23.39a3.6,3.6,0,0,0,.56,0s.56-.61.68-.71.2-.11-.2-.16-.41-.14-.75,0A1,1,0,0,0,51.6,160.49Z"></path>
      <path class="cls-17" d="M52.39,160.89a4.41,4.41,0,0,0,.39-.56c.15-.26.17-.33.43-.26s.87.05,1.06.25.19.18,0,.49a1.2,1.2,0,0,1-.69.61.68.68,0,0,1-.8,0A1.83,1.83,0,0,1,52.39,160.89Z"></path>
      <path class="cls-14" d="M66.13,167.41s3.9,1,5.85-1.74,1.45-5.44.48-5.84a11.84,11.84,0,0,0-1.67-.26c-1.09-.15-1.12,2.62-1.17,2.67S66.13,167.41,66.13,167.41Z"></path>
      <path class="cls-15" d="M62.52,165.34s3.39,2.87,4.72,1.93,3-1.83,3-1.83l-.1-.9s-3-1.32-3.64-1.1-1.83.7-2.12.77A16.51,16.51,0,0,0,62.52,165.34Z"></path>
      <path class="cls-16" d="M62.3,164.83c.12.38.49,1.34,1.51,1a15.16,15.16,0,0,0,2-.9s.9-3.13,1.13-3.68.52-.73-1-.19-1.67.22-2.66,1.17A4.06,4.06,0,0,0,62.3,164.83Z"></path>
      <path class="cls-17" d="M65.76,164.89a19,19,0,0,0,.41-2.63c.06-1.17,0-1.48,1-1.66s3.11-1.33,4.13-1,1,.29,1,1.62A4.76,4.76,0,0,1,71,164.57a2.67,2.67,0,0,1-2.81,1.3A7.08,7.08,0,0,1,65.76,164.89Z"></path>
      <path class="cls-14" d="M48.19,165.16s2.33,1.32,4.08-.06,1.92-3.24,1.36-3.68a7.47,7.47,0,0,0-1-.47c-.67-.29-1.19,1.49-1.23,1.51S48.19,165.16,48.19,165.16Z"></path>
      <path class="cls-15" d="M46.24,163.17s1.66,2.47,2.69,2.1,2.23-.64,2.23-.64l.1-.6s-1.69-1.39-2.15-1.37-1.3.12-1.51.12A10.21,10.21,0,0,0,46.24,163.17Z"></path>
      <path class="cls-16" d="M46.19,162.81c0,.26.07.95.79.89a10.61,10.61,0,0,0,1.42-.23s1.15-1.85,1.39-2.17.47-.37-.58-.29-1.11-.16-1.93.27A2.68,2.68,0,0,0,46.19,162.81Z"></path>
      <path class="cls-17" d="M48.4,163.47a11.81,11.81,0,0,0,.74-1.62c.25-.74.27-.95,1-.88s2.24-.3,2.83.12.57.36.36,1.23a3.15,3.15,0,0,1-1.45,1.89,1.79,1.79,0,0,1-2.05.33A4.69,4.69,0,0,1,48.4,163.47Z"></path>
      <path class="cls-14" d="M70.82,218.58a1.35,1.35,0,0,0,1.33-.35c.46-.59.36-1.21.15-1.31a2.38,2.38,0,0,0-.38-.07c-.24,0-.27.58-.28.59Z"></path>
      <path class="cls-15" d="M70,218.09s.75.67,1,.47.68-.39.68-.39l0-.21a2.83,2.83,0,0,0-.81-.27c-.15,0-.42.15-.48.16A4.44,4.44,0,0,0,70,218.09Z"></path>
      <path class="cls-16" d="M70,218c0,.08.1.3.33.22a2.76,2.76,0,0,0,.45-.19s.22-.69.27-.82.13-.16-.21,0-.38,0-.61.24A.89.89,0,0,0,70,218Z"></path>
      <path class="cls-17" d="M70.76,218a4.17,4.17,0,0,0,.1-.59c0-.26,0-.33.25-.36s.7-.28.93-.19.22.07.22.37a1.11,1.11,0,0,1-.32.74.62.62,0,0,1-.65.27A1.45,1.45,0,0,1,70.76,218Z"></path>
      <path class="cls-14" d="M61.78,213.39s2,.11,2.74-1.41.22-2.84-.3-2.95a6.59,6.59,0,0,0-.86,0c-.55,0-.31,1.42-.33,1.45S61.78,213.39,61.78,213.39Z"></path>
      <path class="cls-15" d="M59.79,212.7s2,1.12,2.53.52S63.61,212,63.61,212l-.13-.44a6.13,6.13,0,0,0-1.92-.2c-.31.16-.84.52-1,.58A7.5,7.5,0,0,0,59.79,212.7Z"></path>
      <path class="cls-16" d="M59.63,212.47c.09.17.37.62.84.34a7.34,7.34,0,0,0,.89-.64s.15-1.64.21-1.93.19-.42-.49,0-.81.27-1.22.83A2.07,2.07,0,0,0,59.63,212.47Z"></path>
      <path class="cls-17" d="M61.36,212.17a9.2,9.2,0,0,0,0-1.34c-.07-.59-.13-.74.36-.92s1.42-1,2-.87.51.05.66.71a2.46,2.46,0,0,1-.35,1.78,1.37,1.37,0,0,1-1.29.91A3.5,3.5,0,0,1,61.36,212.17Z"></path>
      <path class="cls-14" d="M53.34,220a3,3,0,0,0,3,.37c1.42-.84,1.73-2.19,1.37-2.56a6.49,6.49,0,0,0-.71-.45c-.46-.28-1,1-1,1S53.34,220,53.34,220Z"></path>
      <path class="cls-15" d="M52.11,218.32s1,2,1.77,1.81a16.2,16.2,0,0,1,1.69-.25l.14-.43s-1.1-1.18-1.44-1.22-1,0-1.12-.06A7.35,7.35,0,0,0,52.11,218.32Z"></path>
      <path class="cls-16" d="M52.11,218.05c0,.19,0,.7.5.73a7.18,7.18,0,0,0,1.06,0s1-1.24,1.24-1.44.38-.23-.4-.27-.8-.24-1.44,0A2,2,0,0,0,52.11,218.05Z"></path>
      <path class="cls-17" d="M53.67,218.75a8.45,8.45,0,0,0,.71-1.11c.26-.52.29-.67.79-.55s1.67,0,2.06.38.38.32.14.93-.59.86-1.26,1.25a1.32,1.32,0,0,1-1.53,0A3.52,3.52,0,0,1,53.67,218.75Z"></path>
      <path class="cls-14" d="M49.71,214.52a2.26,2.26,0,0,0,.08-2.31c-.73-1-1.78-1.17-2-.87a4.49,4.49,0,0,0-.3.56c-.18.38.81.72.82.75Z"></path>
      <path class="cls-15" d="M48.53,215.57s1.44-.87,1.26-1.46a13.13,13.13,0,0,1-.3-1.28l-.34-.07s-.83.91-.83,1.17,0,.74,0,.86A6,6,0,0,0,48.53,215.57Z"></path>
      <path class="cls-16" d="M48.32,215.59c.15,0,.54,0,.53-.43a7.89,7.89,0,0,0-.09-.81s-1-.7-1.19-.84-.2-.28-.18.32-.12.62.1,1.09A1.49,1.49,0,0,0,48.32,215.59Z"></path>
      <path class="cls-17" d="M48.76,214.35a6.91,6.91,0,0,0-.9-.46c-.41-.16-.53-.18-.47-.57s-.1-1.27.15-1.6.22-.31.7-.16a1.78,1.78,0,0,1,1,.87,1,1,0,0,1,.12,1.17A2.53,2.53,0,0,1,48.76,214.35Z"></path>
      <path class="cls-14" d="M42.54,216.23a1,1,0,0,0,.33-.95c-.18-.52-.59-.71-.74-.62a1.68,1.68,0,0,0-.19.19c-.13.14.24.41.24.42S42.54,216.23,42.54,216.23Z"></path>
      <path class="cls-15" d="M41.91,216.51s.71-.18.71-.44,0-.57,0-.57l-.13-.08s-.46.28-.49.38-.08.32-.1.36A2.6,2.6,0,0,0,41.91,216.51Z"></path>
      <path class="cls-16" d="M41.83,216.49a.19.19,0,0,0,.27-.11,1.77,1.77,0,0,0,.06-.35s-.33-.41-.38-.5-.05-.14-.11.11-.14.25-.1.47A.66.66,0,0,0,41.83,216.49Z"></path>
      <path class="cls-17" d="M42.16,216a3.06,3.06,0,0,0-.31-.3c-.15-.12-.19-.14-.12-.3s.12-.54.27-.64.13-.1.31,0a.79.79,0,0,1,.32.5.46.46,0,0,1-.1.5A1.13,1.13,0,0,1,42.16,216Z"></path>
      <path class="cls-14" d="M40.34,220.18s1.39-2.23.11-4-3.09-2-3.54-1.5a6.81,6.81,0,0,0-.51,1c-.31.65,1.41,1.24,1.43,1.28S40.34,220.18,40.34,220.18Z"></path>
      <path class="cls-15" d="M38.3,222s2.49-1.52,2.18-2.55a22.74,22.74,0,0,1-.54-2.21l-.58-.12s-1.43,1.59-1.44,2,.07,1.28.06,1.48A9.88,9.88,0,0,0,38.3,222Z"></path>
      <path class="cls-16" d="M37.94,222c.26,0,.94,0,.91-.74a9.36,9.36,0,0,0-.16-1.4s-1.77-1.2-2.06-1.46-.35-.47-.32.56-.2,1.09.19,1.9A2.64,2.64,0,0,0,37.94,222Z"></path>
      <path class="cls-17" d="M38.69,219.9a11.53,11.53,0,0,0-1.56-.8c-.72-.28-.92-.3-.82-1s-.19-2.21.24-2.78.38-.54,1.22-.29a3.07,3.07,0,0,1,1.8,1.51,1.76,1.76,0,0,1,.23,2A4.71,4.71,0,0,1,38.69,219.9Z"></path>
    </g>
  </g>
</svg>
