<?xml version="1.0" encoding="UTF-8"?>
<svg xmlns="http://www.w3.org/2000/svg" xmlns:xlink="http://www.w3.org/1999/xlink" viewBox="0 0 108.59 279.93">
  <defs>
    <style>.cls-1{fill:#8e6848;}.cls-2{fill:url(#Безымянный_градиент_7);}.cls-3{fill:#713e21;}.cls-4{fill:#3d271f;}.cls-5{fill:#69391e;}.cls-6{fill:#6b482f;}.cls-7{fill:#5c3624;}.cls-8{fill:#795135;}.cls-9{fill:#9a734f;}.cls-10{fill:#fff;}.cls-11{fill:#85563a;}.cls-12{fill:#769e59;}.cls-13,.cls-15{fill:none;}.cls-13{stroke:#769e59;stroke-width:0.54px;}.cls-13,.cls-15,.cls-20{stroke-miterlimit:10;}.cls-14{fill:#79a05b;}.cls-15,.cls-20{stroke:#79a05b;}.cls-15{stroke-width:1.22px;}.cls-16,.cls-20{fill:#486f3a;}.cls-17{fill:#f2d95a;}.cls-18{fill:#699f46;opacity:0.48;}.cls-19{fill:#e79e50;}.cls-20{stroke-width:0.15px;}.cls-21{fill:#b8e8b6;opacity:0.46;}</style>
    <linearGradient id="Безымянный_градиент_7" x1="51.77" y1="317.68" x2="56.86" y2="222.96" gradientUnits="userSpaceOnUse">
      <stop offset="0.38" stop-color="#9b714f"></stop>
      <stop offset="0.91" stop-color="#754427"></stop>
      <stop offset="1" stop-color="#6e3c20"></stop>
    </linearGradient>
  </defs>
  <g id="Слой_2" data-name="Слой 2">
    <g id="Слой_1-2" data-name="Слой 1">
      <path class="cls-1" d="M56.89,214.69s9.49,11.14,16.82,11.6,32.36-7.46,32.36-7.46l2.52-26.07-51.7-18.23Z"></path>
      <path class="cls-1" d="M0,190.92l5.16,34s18.32,2.74,21.53,1.83,17.86-6.41,22-6.41,8.22-5.65,8.22-5.65V174.53Z"></path>
      <polygon class="cls-2" points="7.62 256.73 56.89 279.93 102.47 256.85 55.08 236.77 7.62 256.73"></polygon>
      <path class="cls-3" d="M7.62,256.73,5.16,224.92s23.36-.46,29.77-3.67,22-6.56,22-6.56l-1.81,22.08Z"></path>
      <path class="cls-4" d="M40.91,226.89a8.36,8.36,0,0,0-2.79-1.64v0s-3.73-1.12-5.76,1.39-1.69,5.22-.77,5.65a11,11,0,0,0,1.61.34s.06,0,.09,0a28.88,28.88,0,0,0,3.46-.78,2,2,0,0,0,.6-.16,6.22,6.22,0,0,0,.64-.19c1.46-.45,1.64-.12,2.65-1a3.92,3.92,0,0,0,1.07-2.51,2.24,2.24,0,0,0-.2-.5h0l0,0A1,1,0,0,0,40.91,226.89Z"></path>
      <path class="cls-4" d="M20.91,230.17a10.82,10.82,0,0,0-4,1.31v0s-4.24,2.66-3.54,6.75,3.61,6.05,4.81,5.53a14.48,14.48,0,0,0,1.69-1.27s0-.09,0-.13c.9-1,1.57-3.12,2.17-4a2.24,2.24,0,0,0,.36-.71c.1-.19.2-.41.36-.77.8-1.8,1.27-1.69,1.28-3.41a5.05,5.05,0,0,0-1.52-3.17,3.47,3.47,0,0,0-.65-.22v0h-.08A1.26,1.26,0,0,0,20.91,230.17Z"></path>
      <path class="cls-5" d="M56.89,214.69l-1.81,22.08,47.39,20.08,3.6-38s-14.78-1.7-21.19-.79-17.58,3.67-20.94,1.84A44.89,44.89,0,0,1,56.89,214.69Z"></path>
      <path class="cls-4" d="M38.84,237.37a3.32,3.32,0,0,0-1.23-.3h0a2.27,2.27,0,0,0-2,1.17c-.48,1.17-.05,2.14.34,2.2a4.34,4.34,0,0,0,.65-.05l0,0a13.14,13.14,0,0,0,1.21-.67.76.76,0,0,0,.2-.13l.22-.14c.5-.34.61-.23.89-.67a1.56,1.56,0,0,0,.12-1.07l-.13-.16h0A.39.39,0,0,0,38.84,237.37Z"></path>
      <path class="cls-4" d="M85.27,227.87a2.22,2.22,0,0,0-.11-.88h0s-.37-1-1.25-1-1.41.5-1.35.77a2,2,0,0,0,.19.41h0a9,9,0,0,0,.74.62l.14.1.14.11c.34.24.3.33.66.41a1.07,1.07,0,0,0,.72-.19.42.42,0,0,0,.07-.12h0v0A.23.23,0,0,0,85.27,227.87Z"></path>
      <path class="cls-4" d="M98.51,243.83a10.94,10.94,0,0,0-1.88-3.77h0s-3.27-3.85-7.25-2.56-5.52,4.48-4.82,5.61a14,14,0,0,0,1.5,1.5s.1,0,.14,0c1.17.75,3.34,1.12,4.31,1.59a2.08,2.08,0,0,0,.76.25c.21.07.44.15.83.25,1.9.54,1.87,1,3.58.79a5.08,5.08,0,0,0,2.94-2,3.16,3.16,0,0,0,.13-.68h0l0-.07A1.22,1.22,0,0,0,98.51,243.83Z"></path>
      <path class="cls-4" d="M72.75,230.73a8.36,8.36,0,0,0-1.83,2.65l0,0s-1.38,3.61.95,5.81,5,2.06,5.54,1.18a10.82,10.82,0,0,0,.45-1.57s0-.06,0-.09a28.75,28.75,0,0,0-.52-3.49,1.73,1.73,0,0,0-.11-.6c0-.17-.07-.35-.14-.65-.34-1.48,0-1.63-.79-2.7A3.92,3.92,0,0,0,73.84,230a2.4,2.4,0,0,0-.51.16h0l0,0A.94.94,0,0,0,72.75,230.73Z"></path>
      <path class="cls-6" d="M72.93,257.73a1.57,1.57,0,0,0,1.55-.41c.53-.69.42-1.42.17-1.53a2.78,2.78,0,0,0-.43-.08c-.29-.05-.32.68-.33.69Z"></path>
      <path class="cls-7" d="M72,257.15s.87.79,1.23.55a8.29,8.29,0,0,1,.78-.46l0-.23a3.2,3.2,0,0,0-.94-.32c-.18.05-.49.17-.56.19A3.47,3.47,0,0,0,72,257.15Z"></path>
      <path class="cls-8" d="M72,257c0,.1.12.35.39.26a4.09,4.09,0,0,0,.52-.22s.26-.81.32-.95.14-.19-.25-.06-.44.05-.71.29A1.08,1.08,0,0,0,72,257Z"></path>
      <path class="cls-9" d="M72.86,257.06a4.39,4.39,0,0,0,.12-.68c0-.31,0-.39.28-.43s.83-.32,1.1-.22.25.08.25.43a1.26,1.26,0,0,1-.38.86.7.7,0,0,1-.75.32A1.8,1.8,0,0,1,72.86,257.06Z"></path>
      <path class="cls-6" d="M62.4,251.68s2.36.13,3.2-1.64.25-3.31-.36-3.44a5.83,5.83,0,0,0-1,0c-.65,0-.37,1.64-.39,1.68S62.4,251.68,62.4,251.68Z"></path>
      <path class="cls-7" d="M60.08,250.87s2.27,1.3,3,.61,1.51-1.38,1.51-1.38l-.16-.51a7.28,7.28,0,0,0-2.23-.25c-.36.2-1,.61-1.15.69A9.13,9.13,0,0,0,60.08,250.87Z"></path>
      <path class="cls-8" d="M59.9,250.6c.11.21.43.73,1,.4a9.34,9.34,0,0,0,1-.74s.18-1.91.25-2.25.23-.48-.57,0-1,.31-1.42,1A2.36,2.36,0,0,0,59.9,250.6Z"></path>
      <path class="cls-9" d="M61.91,250.26a10.79,10.79,0,0,0,0-1.57c-.09-.69-.16-.86.41-1.07s1.66-1.11,2.29-1,.59.06.76.83a2.8,2.8,0,0,1-.41,2.07,1.57,1.57,0,0,1-1.49,1.06A4.1,4.1,0,0,1,61.91,250.26Z"></path>
      <path class="cls-6" d="M52.58,259.35s1.84,1.39,3.49.42,2-2.54,1.59-3a6,6,0,0,0-.82-.52c-.54-.33-1.19,1.13-1.23,1.15S52.58,259.35,52.58,259.35Z"></path>
      <path class="cls-7" d="M51.15,257.42s1.12,2.3,2.05,2.11a18.13,18.13,0,0,1,2-.29l.15-.5s-1.28-1.38-1.67-1.42-1.13-.05-1.3-.08A9,9,0,0,0,51.15,257.42Z"></path>
      <path class="cls-8" d="M51.15,257.1c0,.23,0,.82.57.86a9.81,9.81,0,0,0,1.24,0s1.19-1.45,1.44-1.69.44-.27-.46-.32-.94-.27-1.68,0A2.32,2.32,0,0,0,51.15,257.1Z"></path>
      <path class="cls-9" d="M53,257.93a10.62,10.62,0,0,0,.82-1.3c.3-.61.34-.78.92-.64s1.95,0,2.41.44.44.37.16,1.09A2.76,2.76,0,0,1,55.8,259,1.53,1.53,0,0,1,54,259,4,4,0,0,1,53,257.93Z"></path>
      <path class="cls-6" d="M48.34,253a2.63,2.63,0,0,0,.1-2.69c-.85-1.2-2.08-1.37-2.38-1a4.88,4.88,0,0,0-.34.66c-.22.44.94.84,1,.86S48.34,253,48.34,253Z"></path>
      <path class="cls-7" d="M47,254.22s1.68-1,1.47-1.71a14.67,14.67,0,0,1-.35-1.49l-.39-.08s-1,1.06-1,1.37,0,.86,0,1A7.19,7.19,0,0,0,47,254.22Z"></path>
      <path class="cls-8" d="M46.73,254.24c.17,0,.63,0,.61-.49a6.49,6.49,0,0,0-.1-.95s-1.19-.81-1.38-1-.24-.32-.22.37-.14.74.12,1.29A1.81,1.81,0,0,0,46.73,254.24Z"></path>
      <path class="cls-9" d="M47.24,252.8a8.22,8.22,0,0,0-1.05-.54c-.48-.19-.61-.21-.55-.66s-.12-1.49.18-1.86.26-.37.82-.2a2.1,2.1,0,0,1,1.2,1,1.19,1.19,0,0,1,.15,1.36A3.07,3.07,0,0,1,47.24,252.8Z"></path>
      <path class="cls-6" d="M40,255a1.14,1.14,0,0,0,.38-1.1c-.19-.6-.68-.83-.85-.73a2.47,2.47,0,0,0-.23.23c-.14.16.29.47.29.48S40,255,40,255Z"></path>
      <path class="cls-7" d="M39.27,255.31s.82-.2.82-.52,0-.66,0-.66l-.15-.08s-.54.31-.58.44-.09.36-.12.42A3,3,0,0,0,39.27,255.31Z"></path>
      <path class="cls-8" d="M39.16,255.29c.08,0,.27.07.32-.13a2.42,2.42,0,0,0,.08-.4s-.39-.49-.45-.59,0-.16-.13.13-.16.28-.12.55A.77.77,0,0,0,39.16,255.29Z"></path>
      <path class="cls-9" d="M39.56,254.76a3.65,3.65,0,0,0-.36-.36c-.18-.14-.23-.16-.15-.34s.14-.63.31-.75.16-.12.37,0a.94.94,0,0,1,.36.58.49.49,0,0,1-.11.58A1.29,1.29,0,0,1,39.56,254.76Z"></path>
      <path class="cls-6" d="M37.43,259.59s1.62-2.6.13-4.66-3.6-2.36-4.12-1.75a8.53,8.53,0,0,0-.59,1.15c-.37.76,1.64,1.44,1.66,1.49S37.43,259.59,37.43,259.59Z"></path>
      <path class="cls-7" d="M35.06,261.71s2.9-1.77,2.53-3-.62-2.58-.62-2.58l-.68-.14s-1.67,1.85-1.67,2.38.08,1.49.06,1.73A11.72,11.72,0,0,0,35.06,261.71Z"></path>
      <path class="cls-8" d="M34.64,261.75c.31,0,1.09,0,1.06-.86a12.14,12.14,0,0,0-.19-1.64s-2.06-1.39-2.4-1.69-.41-.55-.36.65-.25,1.27.21,2.21A3.07,3.07,0,0,0,34.64,261.75Z"></path>
      <path class="cls-9" d="M35.51,259.25a15,15,0,0,0-1.81-.92c-.84-.32-1.07-.36-1-1.13s-.22-2.58.29-3.24.44-.63,1.41-.34a3.64,3.64,0,0,1,2.09,1.76,2,2,0,0,1,.27,2.35A5.23,5.23,0,0,1,35.51,259.25Z"></path>
      <path class="cls-10" d="M85.89,247.44c-.71-6.57-6.61-10-11.73-13-3-7-7.58-13.15-11.32-19.74,3.88,3.15,8.52,5.37,12.31,8.49-6.6-5.39-15.74-9.24-17.19-18.55.18-1.1-1.08-2.52-1.69-1a.85.85,0,0,0-.25-.17c.58-1.3-1.05-2.93-1.61-1.11.12,4.46-.65,9-4.09,12.2-8.26,13.49-22.17,21.78-26.48,37.9,2.14-4.5,4.33-10.53,7.28-14.51-1.6,3.52-.67,7.49-1.21,11.22-.46-8,2.18-14.92,9-19.49-1.36,11.79-9.51,16.58-6,29-3.22-11.6,3.85-15.55,5.75-25.94C42,243.86,42,257.61,36.09,268a43.32,43.32,0,0,0,4-8.16c0,.52-.36,1.28-.25,1.62a65.32,65.32,0,0,0,2.93-16.89,27.67,27.67,0,0,1,.62,5.21c-1-6.86.23-13.78,5.2-18.89a11,11,0,0,1,1.34,1.39c-4.45,6.29-6.73,13.73-1.7,20.41a25.56,25.56,0,0,1-2.88,6.18,25.89,25.89,0,0,0,3-5.94c4,8.59-1.91,16.27,4.46,25.79-6-9.27.32-18-4.16-26.7.7-2.38.33-5,1.63-7.17a25.65,25.65,0,0,1,2.42,14.27c.11-.49.19-1,.27-1.47,0,.47,0,.94,0,1.42-.48-6.7,3.41-13.55,1.06-20a22.51,22.51,0,0,0,2.7-3.92c6.21,13.51-5.42,14.12-.22,39.75-.37-10.08-2.53-20.16,2.87-29.4,0,5.57-3,10.77-2.77,16.42.8-13,9.4-25.54,3.1-38.34a16.18,16.18,0,0,1-2.07-8.87c7.67,23.17,8.08,26,2.74,49.53,4.44-17.15,6.48-28.14-.52-45.29,2.53,6.17,6.55,11.35,9.17,17.53-.89,5.4-3.22,10.95-2.12,16.46-.81-4.14.73-8.3,1.63-12.3,6.24,7.44-1.82,18.2-2.54,26.4.85-8.3,9.37-19.37,2.65-26.84.28-1,.53-2.07.79-3.12a14.06,14.06,0,0,0,5.09,4.81c-2,10-8.76,20.1-2.12,29.89-6.22-9.89.65-19.59,2.86-29.48,8.46,2.82,4.43,14,6.37,19.92.9.47,0-8,.13-8.16.23-5-1.12-10.56-6.42-12.33a18.91,18.91,0,0,0-.86-6.27C85.08,239.34,86.7,250,88.07,259.89,87.47,255.72,86.8,251.55,85.89,247.44Zm-15.57-18a17,17,0,0,1,2.51,4.12c-1.07-.72-2.09-1.5-3.08-2.32a28.78,28.78,0,0,0-.54-3.59A10,10,0,0,0,70.32,229.42Zm-2.81-4.9a38.78,38.78,0,0,1,1.43,6c-5.72-4.72-6.65-13-9.91-19.38C61.82,215.63,64.67,220.09,67.51,224.52Zm-11.35.15a24.78,24.78,0,0,1,.31,8.54A44.1,44.1,0,0,1,55,226.34c.13-.21,1-1.57,1.1-1.76A.29.29,0,0,1,56.16,224.67Zm-1.41.17c-.63-3-1.33-6.33-.38-9.22a28.18,28.18,0,0,0,1.44,7.43C55.5,223.64,55.14,224.24,54.75,224.84Zm1.72-3.7c-.69-2.91-1.28-6.21-.59-9.14C55.92,215,57,218.14,56.47,221.14ZM45.05,222.6c2.52-3.3,4.9-6.69,7.7-9.72-1.62,5.77-5.37,10-10.28,13.28A43,43,0,0,1,45.05,222.6Zm-5.48,6.58c.65-.48,1.34-.91,2-1.36l0,.08,0-.09c.9-.6,1.8-1.21,2.69-1.83-1.39,2.66-3.57,6-4.57,8.86A7.1,7.1,0,0,1,39.57,229.18Zm.16,5.72c2.07-3.87,4.35-8.16,7.58-11.13-2.51,4.59-5.19,9.09-6.38,14.29A25.65,25.65,0,0,1,39.73,234.9Zm1.75,15.87a18.49,18.49,0,0,1-1,6.44c.49-5.67.41-11.41.88-17.07C43.06,243.43,41.15,247.21,41.48,250.77Zm4.21-17.85a19.71,19.71,0,0,0-3.37,8.9c-2.4-6.48,3.72-12.94,6.34-18.71C50,227,48.19,230,45.69,232.92Zm3.38-2.76c1.77-2.38,1.18-5.7.57-8.32a14.76,14.76,0,0,0,3.6-4.12,26.77,26.77,0,0,0,1,7.87c-1.27,2-2.64,3.93-3.91,5.95A12.13,12.13,0,0,0,49.07,230.16Zm1.57,3.07c1.15,1.72,1.72,3.88,2.67,5.76a38.37,38.37,0,0,0-3,4.75,11.38,11.38,0,0,1,.12-10.32,2.13,2.13,0,0,1,.16-.25Zm-.86,11.58c-1.12,2.14-.8,4.61-1.32,6.88-3.25-5-3.26-10.2.12-15.09-.64,2.65.38,5.37,1.44,7.73Zm4.67-1A107.42,107.42,0,0,0,53,257c-.06-4.37-.46-8.73-2.44-12.7a33.62,33.62,0,0,1,3-4.66A9.56,9.56,0,0,1,54.45,243.83Zm-.73-5.42c-.91-2-1.38-4.11-2.68-6,1.14-1.79,2.32-3.57,3.52-5.36a32,32,0,0,0,1.72,7C55.88,235.74,54.7,237,53.72,238.41Zm5-14.42c2.29,5.9,3.7,13,.79,18.93A74.92,74.92,0,0,0,57,234.51c1.1-3.71.69-7.68,0-11.41a5.75,5.75,0,0,0,.56-2C57.88,222.09,58.35,223.08,58.76,224Zm2.77-4a52.55,52.55,0,0,1-2.19-7.41,76.19,76.19,0,0,1,5.17,13.16A27,27,0,0,1,61.53,220Zm4.31,8.84a37.66,37.66,0,0,0,3.26,2.93,15.77,15.77,0,0,1,0,4.06A38.71,38.71,0,0,1,65.84,228.87ZM74,237.31a15.07,15.07,0,0,1,.55,4,13.78,13.78,0,0,1-5-4.78,14.59,14.59,0,0,0,.28-4.17c1.11.86,2.27,1.64,3.45,2.38A25.28,25.28,0,0,1,74,237.31Z"></path>
      <polygon class="cls-11" points="0 190.92 56.89 214.69 108.59 192.76 56.89 174.53 0 190.92"></polygon>
      <path class="cls-12" d="M67.72,91.36s-7.42-.46-10,5.15-2.54,11,1.17,15.83c0,0,1.09,1.18,1.27,0s1.35-2.17,1.67-2,3.94,5,16.24,5.16c0,0,1.36.72.81-1.09s-2-3.25.13-2.17,11.54,3.71,12.36,3.8,1.54.18,1.35-1.9-1.35-14.56-4.25-18.63c0,0-1-.64.55-1.54s2.62-1.74,1.44-2.63-3-3.61-10.4-6c0,0-1.36,0-.36-1.17s3.44-3.35-.18-2.72-10,.82-14.21,4.71a1.58,1.58,0,0,0-.36,2.35,12.28,12.28,0,0,0,3.71,2.53Z"></path>
      <path class="cls-12" d="M87.65,129.49s-1.23-9-9.77-7.73-9.16,8.34-9,10-.61,11.6,14.65,18.52,16.69,8.95,16.69,8.95-1-1,0-3,5.7-8.75,6.31-10.17,5.5-13.23-5.08-18.32-10.79-1.83-10.79-1.83A3.93,3.93,0,0,1,87.65,129.49Z"></path>
      <path class="cls-12" d="M83.59,42.78s3.67,1.9,5.43,1.49,6.11-2.52,8-.72a5.77,5.77,0,0,1,1.9,3.84s5.42-5,2.3-10.45c0,0,1.22-1.49,2.31,0,0,0,1.68-8-10.83-11.53,0,0-1.72-.88.18-1.22S94,23.78,94,23.78s-5.49-2.24-6.58-2.44-6.38-1.77-8.27.54-1.43,5.56-1.5,5.9-4.75-2.51-8.14.82,2,11.19,2,11.19,1.56.21,2-2,.68-.07.89.13,4.2,4.75,6.24,5.43,2.1,1.09,2.44,1S83.59,42.78,83.59,42.78Z"></path>
      <path class="cls-12" d="M67.17,20.63s.48-.65,0-1.12S67.92,18,70,18.08s8.61-.81,10,.61c0,0,.41-5.09-1.83-8.28,0,0-1.7-2.64.61-2.37,0,0-2.31-3.6-6-4.21s-8.82-.68-5.29-2.64c0,0-3.13-3.26-9.84,1s-3.53,10.59-1.29,11.74c0,0-5.16,2.92-5.5,4.82s-.61,4.07,7.2,3.6S67.17,20.63,67.17,20.63Z"></path>
      <path class="cls-12" d="M28.09,22.42c.28-.13,5-1.08,7.33-2.3s7.83-5.77,8.46-6,4.64-1.77,3.42,1.63-7.26,5.8-7.94,9.22c-.14.68.34,14.32-5.91,10.38,0,0-2-1-2.3-5.36A14,14,0,0,0,28.09,22.42Z"></path>
      <path class="cls-12" d="M44.83,56.35s-9-2.72-13.84-.46-7.42,5.7-5.61,12.22c0,0-2.62,12.3,5.7,18.54,0,0,.72.91,1-1.81s5-7.78,5.73-8.5a6,6,0,0,0,1-2.26s7.6-.64,9.86,1c0,0,.27.82.72-1.17s1.72-7.51,6.43-7.33-2.66-8.32-5.18-8C50.69,58.61,43,63.49,44.83,56.35Z"></path>
      <path class="cls-12" d="M63.51,153.5a6.11,6.11,0,0,0-3.93,2.58C58,158.39,54,161,41.1,160.56c0,0-6.49-.54-6.22,5.83,0,0-9.83-15.51-10.07-17.93s-1.36-17.35,16.29-11.24c0,0,4.36,3.8,4.63,7.46s2.18.82,2.18.82S59.71,139.53,63.51,153.5Z"></path>
      <path class="cls-13" d="M63.16,38.32c-.35-2.88-.59-6.13,1.28-8.36a7.17,7.17,0,0,1,4.35-2.27,21.43,21.43,0,0,1,5-.06"></path>
      <path class="cls-12" d="M57.59,31c-2.21-3.44-4.12-7.27-2.51-11.38.11-.28-.35-.41-.46-.12-1.65,4.21.29,8.19,2.56,11.74.17.26.58,0,.41-.24Z"></path>
      <path class="cls-14" d="M65.59,143.2a44.29,44.29,0,0,1-.72-9.62c.32-4.44,3.52-6.74,7.59-7.82a.47.47,0,0,0-.25-.91c-3,.8-6.18,2.32-7.57,5.33-1.76,3.82-.57,9.29,0,13.28.09.6,1,.34.91-.26Z"></path>
      <path class="cls-14" d="M45.94,108.54c.5-6.72,2.94-12.92,9.53-15.69C61,90.54,67,91.17,72.83,91.8c.61.06.61-.89,0-1-7-.76-14.91-1.5-21,2.9-4.82,3.47-6.4,9.13-6.82,14.79-.05.61.9.6.95,0Z"></path>
      <path class="cls-14" d="M53.93,79.53c8.6-1.72,15.92-6.31,23.16-11.08.51-.33,0-1.15-.48-.82-7.17,4.73-14.39,9.28-22.94,11-.6.12-.34,1,.26.92Z"></path>
      <path class="cls-15" d="M43.78,63.8a5.83,5.83,0,0,1,1.68-2.44c2.81-2.83,6.09-5.51,10-6.12a9.59,9.59,0,0,1,7.91,2.21,7.52,7.52,0,0,1,2.12,7.75"></path>
      <path class="cls-12" d="M74.48,64.75a8.31,8.31,0,0,1-2.55,6.09c-.22.22.12.55.34.34A8.85,8.85,0,0,0,75,64.75a.24.24,0,0,0-.47,0Z"></path>
      <path class="cls-14" d="M56.94,155.73c.55,2.45,1.84,4.62,2.65,7a37.46,37.46,0,0,1,1.76,8.37c.06.61,1,.61.95,0a37.84,37.84,0,0,0-1.46-7.59c-.84-2.72-2.36-5.25-3-8-.13-.59-1-.34-.92.26Z"></path>
      <path class="cls-13" d="M61.33,35.7a2.72,2.72,0,0,0-4.45,2.92"></path>
      <path class="cls-14" d="M72.89,70.46a10.68,10.68,0,0,0,2.36.47,3.13,3.13,0,0,1,1.33.58,3.84,3.84,0,0,1,.88,1.09c.86,1.45,1.73,2.87,2.68,4.25a34.9,34.9,0,0,0,6.62,7.46A21.71,21.71,0,0,0,91,87a10.05,10.05,0,0,0,4.74,1.28A3,3,0,0,0,97.8,87.2a2,2,0,0,0,.09-2.28,1.35,1.35,0,0,0-1-.61,1.59,1.59,0,0,0-1.14.37,1.07,1.07,0,0,0-.37,1.11c.11.37.54.75,1,.56-.41.2-.85-.17-1-.55a1.11,1.11,0,0,1,.36-1.16,1.63,1.63,0,0,1,1.19-.42,1.46,1.46,0,0,1,1.09.63,2.15,2.15,0,0,1,0,2.46,3.25,3.25,0,0,1-2.22,1.22,6.41,6.41,0,0,1-2.54-.3,20.06,20.06,0,0,1-2.38-.9,21.64,21.64,0,0,1-4.34-2.65,35.22,35.22,0,0,1-6.9-7.42c-1-1.37-1.92-2.8-2.8-4.22a2.21,2.21,0,0,0-1.69-1.23,11.3,11.3,0,0,1-2.58-.48Z"></path>
      <path class="cls-16" d="M59.11,38.54s-1.56-5.22-6.38-.68c0,0-4,5.7-.54,16.76s6,7.74,7.32,5-1.35-5-.81-12.55S59.38,40.44,59.11,38.54Z"></path>
      <path class="cls-16" d="M75.11,56.73s.67-3.6,1.62,0a12.7,12.7,0,0,1-.81,8c-.34.41-2.37,1-2.1-.68S75.11,56.73,75.11,56.73Z"></path>
      <path class="cls-16" d="M77.46,66.36c1.49-.61,7.67-2.1,7.67-1.29s.27,1-1.09,1.67S77.46,69.21,77,68.19A1.65,1.65,0,0,1,77.46,66.36Z"></path>
      <path class="cls-12" d="M33.46,107.41c-.48-3.18,3.95-3.6,6-3.35s4.41.74,5.3,2.81c.24.56,1.06.08.82-.48-2-4.53-14-5-13.05,1.27.09.6,1,.34.92-.25Z"></path>
      <path class="cls-16" d="M33,102s4.07-2.31-.68-2.72a20.41,20.41,0,0,0-8.82,1.36s-3.8,2.17.68,2.31A37.15,37.15,0,0,0,33,102Z"></path>
      <path class="cls-16" d="M29.12,108.53s5.43-6.93,6.1,1.89-2.85,17-4.34,16.42-5.15,2.31-4.61-7.87C26.27,119,27.22,112.19,29.12,108.53Z"></path>
      <path class="cls-12" d="M39.46,108.3c-1.27-1.68,2-2.76,3.12-2A5.42,5.42,0,0,1,45,109.52c.06.6,1,.61.95,0-.2-1.76-2.18-4.31-4-4.53s-4.78,1.79-3.27,3.79c.36.48,1.18,0,.82-.48Z"></path>
      <path class="cls-16" d="M37.26,107.68s2.26-2.35,4.07,0S44.22,124,44.22,124s.55,4.43-.63,6.6-3.7,5.1-7.05-.81S36.07,108.49,37.26,107.68Z"></path>
      <path class="cls-12" d="M52,134.36c1.76-2.24,4.6-1.93,6.33.17.39.48,1.06-.2.67-.67-2-2.48-5.61-2.8-7.68-.18-.37.48.3,1.16.68.68Z"></path>
      <path class="cls-12" d="M58.58,125.16a110,110,0,0,1,1.7,11.26c.06.6,1,.61.95,0a114.52,114.52,0,0,0-1.73-11.51c-.13-.6-1-.34-.92.25Z"></path>
      <path class="cls-16" d="M56.62,117.9s0-1.54,1.45-.54,1.83,8,1.83,8-.27,1.9-1.64.63S56.62,117.9,56.62,117.9Z"></path>
      <path class="cls-16" d="M46.31,136.5s2.17-2.67,3.79-3.26,5.88-2.5,1.9,2.66-7.25,5.25-7.65,4.8S46.31,136.5,46.31,136.5Z"></path>
      <path class="cls-12" d="M76.16,67.94a37.86,37.86,0,0,1,1-4.69,12.69,12.69,0,0,1,2.09-4.37c1-1.33,2.42-2.15,3.16-3.47a4.6,4.6,0,0,0,.32-4.33A3.52,3.52,0,0,0,79,49a3.21,3.21,0,0,0-1.89,1.17,2.52,2.52,0,0,0-.52,2.13,2.93,2.93,0,0,0,1.32,1.81,2.33,2.33,0,0,0,2.22.13,1.53,1.53,0,0,0,1-1.86,1.66,1.66,0,0,0-.78-.85,1.06,1.06,0,0,0-1.11,0,1.09,1.09,0,0,1,1.13-.07,1.72,1.72,0,0,1,.81.85,1.61,1.61,0,0,1-1,2,2.44,2.44,0,0,1-2.33-.09,3.05,3.05,0,0,1-1.44-1.89,2.77,2.77,0,0,1,.5-2.34,3.54,3.54,0,0,1,2-1.31,3.89,3.89,0,0,1,4.1,2.17,5.06,5.06,0,0,1-.25,4.76C82,57.15,80.55,58,79.69,59.25,77.86,61.75,77.4,65,77,68.06Z"></path>
      <path class="cls-12" d="M43.91,105.21a6.11,6.11,0,0,1-.29-3.9,9.87,9.87,0,0,1,1.59-3.37,27.27,27.27,0,0,1,2.35-2.66A7.5,7.5,0,0,0,48.5,94c.22-.43.48-1,.68-1.5a5.7,5.7,0,0,0,.4-1.52,10.27,10.27,0,0,0,.09-1.65,5.78,5.78,0,0,0-.24-1.56,7.87,7.87,0,0,0-.7-1.43,8.14,8.14,0,0,0-5.34-3.5,8.72,8.72,0,0,0-3.3,0,4.62,4.62,0,0,0-2.69,1.71,7.21,7.21,0,0,0-1.74,6.22,4.82,4.82,0,0,0,5.15,3.41A4.94,4.94,0,0,0,45,89.48a5,5,0,0,1-4.16,4.93,5.12,5.12,0,0,1-5.57-3.5,6.31,6.31,0,0,1,0-3.55,9.06,9.06,0,0,1,1.63-3.16,6.08,6.08,0,0,1,1.31-1.27,5.07,5.07,0,0,1,1.68-.75,9.49,9.49,0,0,1,3.6-.14,9.06,9.06,0,0,1,6.06,3.73,8.4,8.4,0,0,1,.86,1.66,6.58,6.58,0,0,1,.35,1.85,12.07,12.07,0,0,1,0,1.81,7,7,0,0,1-.43,1.84,18,18,0,0,1-.7,1.67,8.64,8.64,0,0,1-1.06,1.55,25.92,25.92,0,0,0-2.18,2.6c-1.21,1.76-1.84,4-1,5.79Z"></path>
      <path class="cls-12" d="M24.16,91.17A2.45,2.45,0,0,0,25.6,89a2.52,2.52,0,0,0-1.27-2.27,3.27,3.27,0,0,0-4.61,1.22,5.86,5.86,0,0,0-.41,2.64,5.65,5.65,0,0,0,.91,2.5c.91,1.63,2.8,2.1,4.6,2.33l11.06,1.46a15,15,0,0,1,5.55,1.45,10.48,10.48,0,0,1,2.32,1.82,5.54,5.54,0,0,1,1.53,2.68l-1.2.22a4.49,4.49,0,0,0-1.18-2.11,9.22,9.22,0,0,0-2-1.66,14.53,14.53,0,0,0-5.14-1.47L24.72,96A10.81,10.81,0,0,1,22,95.27a4.78,4.78,0,0,1-1.24-.8,5.19,5.19,0,0,1-.9-1.15,6.24,6.24,0,0,1-.91-2.71,6.41,6.41,0,0,1,.51-2.81,3.51,3.51,0,0,1,5-1.23A2.66,2.66,0,0,1,25.68,89,2.48,2.48,0,0,1,24.16,91.17Z"></path>
      <path class="cls-12" d="M34.08,100.78a12.73,12.73,0,0,1,9.54,3.41c.44.43,1.11-.25.67-.67a13.69,13.69,0,0,0-10.21-3.69c-.61,0-.61,1,0,1Z"></path>
      <path class="cls-17" d="M57.83,117.81a2.53,2.53,0,0,0,1.08-2.58s-.09-.32-.5,0a4.83,4.83,0,0,0-.24-1c-.1-.17-.54.3-.82,1.26,0,0-.67-1.17-1.58-1a1.91,1.91,0,0,0,.45,1.62s-1.32.09-1.34,1C54.88,117.16,55,117.87,57.83,117.81Z"></path>
      <path class="cls-17" d="M22.59,102.52a3.22,3.22,0,0,1-3.23,1.66,1.23,1.23,0,0,1,.64-1s-1,0-1.32-.44a1.76,1.76,0,0,1,1.42-.83,1.45,1.45,0,0,1-.92-1.16s1-.64,3.41,1.18A.62.62,0,0,1,22.59,102.52Z"></path>
      <path class="cls-17" d="M46,139a5.08,5.08,0,0,0-3.75.84,2.21,2.21,0,0,0,1.42.49s-.73.87-.58,1.33c0,0,.37.2,1.36-.22,0,0-.29.91-.08,1.19a2.94,2.94,0,0,0,2-3.15S46.39,138.77,46,139Z"></path>
      <path class="cls-18" d="M56.76,37.19s-3-.45-3.9,1.76-2.92,11.37,1.33,19.46c0,0-1.85-9.36-1.33-11s.91.09.94.39.26-8.67,1.68-9.16S57.57,37.22,56.76,37.19Z"></path>
      <path class="cls-18" d="M41.09,108.11s-3-.44-3.9,1.77-2.92,11.37,1.33,19.45c0,0-1.85-9.36-1.33-11s.91.08.94.38.26-8.67,1.68-9.15S41.9,108.15,41.09,108.11Z"></path>
      <path class="cls-18" d="M33.3,107.49s-3-.44-3.9,1.76-3.46,5.77-.59,14.28a31.28,31.28,0,0,1,.59-5.84c.51-1.66,1.79-4.26,1.82-4s-.62-4.33.8-4.82S34.11,107.52,33.3,107.49Z"></path>
      <path class="cls-17" d="M84.67,65.58a.82.82,0,0,0,.87-.39c.35-.52,1.54-1.5,1.39-.5s-.47.91-.47.91,1.44.32.33,1a.89.89,0,0,1-1,.75S86.28,66,84.57,66C84.57,66,84.19,65.63,84.67,65.58Z"></path>
      <path class="cls-17" d="M76.09,55.66c.21,0,.86,0,.92-1.08a.36.36,0,0,0-.3,0,.61.61,0,0,0,.14-.48s-.32,0-.61.44c0,0-.23-.65-.53-.68,0,0-.12.59,0,.76,0,0-.66-.08-.8.23C74.91,54.85,75.54,55.62,76.09,55.66Z"></path>
      <path class="cls-19" d="M56.75,65c-.34-.61-1-4.14.41-4.82s3.72,3.94,3.72,3.94L58.6,63s-.22,2,.8,2.58-1.7.07-2-1.69S56.75,65,56.75,65Z"></path>
      <path class="cls-19" d="M40.43,138c.09.15-1.74-2.8-.2-5.47a1.45,1.45,0,0,1,2.1.61c.86,1.42,2.24,2.78,2.19,3.71a21.75,21.75,0,0,0-2.37-1.29,13.33,13.33,0,0,0,.63,3.12c.32.31-1.9-2.28-1.9-2.28S40.16,137.53,40.43,138Z"></path>
      <path class="cls-19" d="M29,125.31s.8-1.33,1.32.09a2.35,2.35,0,0,0,.2,1.27c.29.41,2.17,2.8,1.65,3.25s-1.9-.85-2-.9-.07,3.37.49,4-1.24.1-1.78-2.27c0,0-.21-.51-.8.17s-2.14-1.63-1.24-3.24A4.89,4.89,0,0,1,29,125.31Z"></path>
      <ellipse class="cls-20" cx="56.54" cy="45.95" rx="0.22" ry="0.45"></ellipse>
      <ellipse class="cls-20" cx="53.8" cy="44.65" rx="0.22" ry="0.45"></ellipse>
      <ellipse class="cls-20" cx="55.87" cy="41.27" rx="0.22" ry="0.45"></ellipse>
      <ellipse class="cls-20" cx="58.04" cy="44.65" rx="0.22" ry="0.45"></ellipse>
      <ellipse class="cls-20" cx="57.81" cy="40.82" rx="0.22" ry="0.45"></ellipse>
      <ellipse class="cls-20" cx="55.34" cy="48.71" rx="0.22" ry="0.45"></ellipse>
      <ellipse class="cls-20" cx="53.08" cy="47.39" rx="0.22" ry="0.45"></ellipse>
      <ellipse class="cls-20" cx="52.07" cy="42.16" rx="0.22" ry="0.45"></ellipse>
      <ellipse class="cls-20" cx="53.8" cy="39.4" rx="0.22" ry="0.45"></ellipse>
      <ellipse class="cls-20" cx="55.48" cy="54.79" rx="0.22" ry="0.45"></ellipse>
      <ellipse class="cls-20" cx="54.82" cy="56.87" rx="0.22" ry="0.45"></ellipse>
      <ellipse class="cls-20" cx="53.3" cy="50.98" rx="0.22" ry="0.45"></ellipse>
      <ellipse class="cls-20" cx="56.76" cy="51.42" rx="0.22" ry="0.45"></ellipse>
      <ellipse class="cls-20" cx="53.53" cy="53.46" rx="0.22" ry="0.45"></ellipse>
      <ellipse class="cls-20" cx="58.26" cy="54.35" rx="0.22" ry="0.45"></ellipse>
      <ellipse class="cls-20" cx="57.4" cy="57.76" rx="0.22" ry="0.45"></ellipse>
      <path class="cls-21" d="M52.29,44.65s-.39-1.93-.71,0,0,4.19,0,5.88S52.48,45.29,52.29,44.65Z"></path>
      <path class="cls-21" d="M37.28,112.11s-.38-1.93-.71,0a32,32,0,0,0-.52,4.91C36,118.72,37.48,112.75,37.28,112.11Z"></path>
      <ellipse class="cls-20" cx="42.42" cy="116.49" rx="0.22" ry="0.45"></ellipse>
      <ellipse class="cls-20" cx="40.11" cy="115.46" rx="0.22" ry="0.45"></ellipse>
      <ellipse class="cls-20" cx="37.32" cy="118.26" rx="0.22" ry="0.45"></ellipse>
      <ellipse class="cls-20" cx="31.89" cy="119.66" rx="0.45" ry="0.22" transform="translate(-91.78 126.1) rotate(-78.06)"></ellipse>
      <ellipse class="cls-20" cx="33.15" cy="116.09" rx="0.45" ry="0.22" transform="translate(-87.29 124.5) rotate(-78.06)"></ellipse>
      <ellipse class="cls-20" cx="34.08" cy="119.22" rx="0.45" ry="0.22" transform="translate(-89.61 127.9) rotate(-78.06)"></ellipse>
      <ellipse class="cls-20" cx="31.76" cy="123.41" rx="0.45" ry="0.22" transform="matrix(0.17, -0.99, 0.99, 0.17, -95.24, 133.87)"></ellipse>
      <ellipse class="cls-20" cx="28.59" cy="121.64" rx="0.22" ry="0.45"></ellipse>
      <ellipse class="cls-20" cx="26.54" cy="119.5" rx="0.22" ry="0.45" transform="translate(-5.75 1.42) rotate(-2.77)"></ellipse>
      <ellipse class="cls-20" cx="28.35" cy="117.02" rx="0.22" ry="0.45"></ellipse>
      <ellipse class="cls-20" cx="33.97" cy="112.22" rx="0.45" ry="0.22" transform="translate(-82.86 122.24) rotate(-78.06)"></ellipse>
      <ellipse class="cls-20" cx="30.76" cy="115.91" rx="0.45" ry="0.22" transform="translate(-87.48 135.9) rotate(-84.73)"></ellipse>
      <ellipse class="cls-20" cx="34.08" cy="108.54" rx="0.45" ry="0.22" transform="translate(-79.16 119.43) rotate(-78.06)"></ellipse>
      <ellipse class="cls-20" cx="29.4" cy="112.67" rx="0.45" ry="0.22" transform="translate(-86.62 122.62) rotate(-80.28)"></ellipse>
      <ellipse class="cls-20" cx="31.22" cy="109.19" rx="0.45" ry="0.22" transform="translate(-82.07 117.15) rotate(-78.06)"></ellipse>
      <ellipse class="cls-20" cx="35.25" cy="121.64" rx="0.22" ry="0.45"></ellipse>
      <ellipse class="cls-20" cx="37.09" cy="110.14" rx="0.22" ry="0.45"></ellipse>
      <ellipse class="cls-20" cx="39.05" cy="112.22" rx="0.22" ry="0.45"></ellipse>
      <ellipse class="cls-20" cx="41.34" cy="121.64" rx="0.22" ry="0.45"></ellipse>
      <ellipse class="cls-20" cx="43.61" cy="123.85" rx="0.22" ry="0.45"></ellipse>
      <ellipse class="cls-20" cx="37.54" cy="124.74" rx="0.22" ry="0.45"></ellipse>
      <ellipse class="cls-20" cx="37.09" cy="129.39" rx="0.22" ry="0.45"></ellipse>
      <ellipse class="cls-20" cx="39.44" cy="130.28" rx="0.22" ry="0.45"></ellipse>
      <ellipse class="cls-20" cx="41.12" cy="127.18" rx="0.22" ry="0.45"></ellipse>
      <path class="cls-12" d="M39.44,25.31c4.05-.08,8.25-.16,12.12,1.37a15.07,15.07,0,0,1,5.1,3.42,59.26,59.26,0,0,1,4.12,4.56A45.8,45.8,0,0,1,67.49,45a21.39,21.39,0,0,1,1.86,12.2,21.84,21.84,0,0,1-1.94,5.95,33.82,33.82,0,0,1-3.28,5.29A107.7,107.7,0,0,1,56,77.62a46.07,46.07,0,0,0-7.28,9.53,26.84,26.84,0,0,0-3,11.34,34.48,34.48,0,0,0,1.6,11.71,42.42,42.42,0,0,0,5.18,10.69c2.18,3.38,4.64,6.63,6.95,10.06a56.14,56.14,0,0,1,6,11,41.26,41.26,0,0,1,2.88,12.36,34.67,34.67,0,0,1-.17,6.44,32.51,32.51,0,0,1-1.47,6.29c-.68,2-1.48,3.94-2.24,5.82s-1.46,3.72-2.08,5.62a74.75,74.75,0,0,0-2.78,11.6,2,2,0,0,1-4-.63v0a78.29,78.29,0,0,1,3.19-12.14c.68-2,1.47-3.94,2.29-5.82s1.61-3.72,2.28-5.57a28.89,28.89,0,0,0,1.7-11.37,38.61,38.61,0,0,0-2.43-11.46A53.85,53.85,0,0,0,57,132.49c-2.19-3.39-4.59-6.71-6.77-10.24A45,45,0,0,1,45,110.85a36.77,36.77,0,0,1-1.43-12.48A28.77,28.77,0,0,1,47.1,86.3a47.46,47.46,0,0,1,7.75-9.73,108.37,108.37,0,0,0,8.27-8.93A25.15,25.15,0,0,0,68.35,57a20.48,20.48,0,0,0-1.56-11.71A45.67,45.67,0,0,0,60.39,35c-1.28-1.58-2.57-3.17-4-4.61a15.07,15.07,0,0,0-4.94-3.46C47.69,25.32,43.49,25.31,39.44,25.31Z"></path>
      <path class="cls-6" d="M53.44,200.66a1.58,1.58,0,0,0-1.51-.55c-.84.26-1.17.92-1,1.16a3,3,0,0,0,.31.31c.21.21.65-.37.67-.38S53.44,200.66,53.44,200.66Z"></path>
      <path class="cls-7" d="M53.87,201.67s-.26-1.14-.69-1.15-.91-.08-.91-.08l-.12.2s.42.75.59.81l.57.17A3.19,3.19,0,0,0,53.87,201.67Z"></path>
      <path class="cls-8" d="M53.84,201.81c0-.1.11-.36-.17-.44a4.41,4.41,0,0,0-.55-.12s-.69.52-.82.6-.23.08.17.19.39.22.75.18A1.08,1.08,0,0,0,53.84,201.81Z"></path>
      <path class="cls-9" d="M53.12,201.25a4.23,4.23,0,0,0-.5.5c-.2.23-.24.31-.48.18s-.87-.2-1-.44-.16-.22,0-.51a1.34,1.34,0,0,1,.81-.49.71.71,0,0,1,.8.17A1.94,1.94,0,0,1,53.12,201.25Z"></path>
      <path class="cls-6" d="M50,181.29a2.3,2.3,0,0,0-2.34-.34c-1.12.63-1.39,1.68-1.11,2a4.55,4.55,0,0,0,.54.36c.36.23.82-.74.85-.75Z"></path>
      <path class="cls-7" d="M50.93,182.6s-.72-1.56-1.34-1.44-1.34.16-1.34.16l-.11.34s.84.94,1.11,1,.75.05.87.07A5.09,5.09,0,0,0,50.93,182.6Z"></path>
      <path class="cls-8" d="M50.93,182.81c0-.15,0-.55-.37-.58a6.74,6.74,0,0,0-.84,0s-.82,1-1,1.12-.3.17.31.22.62.19,1.12,0A1.56,1.56,0,0,0,50.93,182.81Z"></path>
      <path class="cls-9" d="M49.72,182.23a8.41,8.41,0,0,0-.57.86c-.21.4-.24.52-.62.42s-1.31,0-1.61-.33-.3-.26-.1-.73.48-.66,1-1a1,1,0,0,1,1.2,0A2.64,2.64,0,0,1,49.72,182.23Z"></path>
      <path class="cls-6" d="M45.37,188.4s-4.83-2.41-8.2.53-3.54,6.71-2.38,7.53a16.14,16.14,0,0,0,2.11.84c1.39.52,2.26-3.11,2.34-3.16S45.37,188.4,45.37,188.4Z"></path>
      <path class="cls-7" d="M49.49,192.2s-3.58-4.79-5.62-3.95-4.42,1.52-4.42,1.52L39.31,191s3.52,2.62,4.45,2.54,2.61-.38,3-.39A20.37,20.37,0,0,0,49.49,192.2Z"></path>
      <path class="cls-8" d="M49.63,192.93c-.05-.53-.25-1.9-1.69-1.71a21.64,21.64,0,0,0-2.84.6s-2.11,3.84-2.58,4.49-.9.81,1.19.53,2.27.22,3.86-.74A5.39,5.39,0,0,0,49.63,192.93Z"></path>
      <path class="cls-9" d="M45.1,191.82a23.82,23.82,0,0,0-1.32,3.33c-.44,1.52-.46,1.94-1.84,1.87s-4.48.82-5.72,0-1.18-.67-.83-2.43,1.15-2.59,2.73-4a3.62,3.62,0,0,1,4.09-.86A9.31,9.31,0,0,1,45.1,191.82Z"></path>
      <path class="cls-6" d="M62.05,189.41s-4-2.39-7.15,0-3.47,5.62-2.52,6.4a14.33,14.33,0,0,0,1.78.86c1.18.53,2.15-2.57,2.22-2.61S62.05,189.41,62.05,189.41Z"></path>
      <path class="cls-7" d="M65.4,193s-2.82-4.38-4.64-3.77-3.93,1.05-3.93,1.05l-.2,1s2.91,2.48,3.72,2.47,2.29-.18,2.64-.15A18.2,18.2,0,0,0,65.4,193Z"></path>
      <path class="cls-8" d="M65.47,193.6c0-.46-.09-1.66-1.36-1.59a18.25,18.25,0,0,0-2.5.36s-2.06,3.2-2.51,3.74-.83.64,1,.53,2,.33,3.4-.41A4.7,4.7,0,0,0,65.47,193.6Z"></path>
      <path class="cls-9" d="M61.61,192.37a21.44,21.44,0,0,0-1.35,2.81c-.47,1.29-.51,1.65-1.7,1.51s-3.94.44-5-.32-1-.65-.58-2.16,1.16-2.18,2.62-3.27a3.11,3.11,0,0,1,3.59-.5A8,8,0,0,1,61.61,192.37Z"></path>
      <path class="cls-6" d="M72.77,185.13s-4-3.08-7.62-1-4.45,5.52-3.54,6.47a14.42,14.42,0,0,0,1.79,1.16c1.18.72,2.63-2.45,2.71-2.48S72.77,185.13,72.77,185.13Z"></path>
      <path class="cls-7" d="M75.85,189.37s-2.41-5-4.43-4.64-4.33.59-4.33.59l-.35,1.09s2.76,3,3.63,3.13,2.46.12,2.84.19A19.65,19.65,0,0,0,75.85,189.37Z"></path>
      <path class="cls-8" d="M75.85,190.06c.05-.5.12-1.79-1.24-1.88a20.12,20.12,0,0,0-2.71,0s-2.63,3.13-3.18,3.65-1,.57,1,.7,2,.61,3.67,0A5.06,5.06,0,0,0,75.85,190.06Z"></path>
      <path class="cls-9" d="M71.9,188.23A22.77,22.77,0,0,0,70.09,191c-.68,1.32-.77,1.69-2,1.38s-4.26-.06-5.25-1-1-.82-.33-2.38,1.53-2.16,3.23-3.13a3.37,3.37,0,0,1,3.9-.05A8.71,8.71,0,0,1,71.9,188.23Z"></path>
      <path class="cls-6" d="M75.86,198a2.39,2.39,0,0,0,2.21-1.09c.6-1.2.21-2.27-.2-2.36a4.08,4.08,0,0,0-.69,0c-.44,0-.26,1.12-.28,1.14Z"></path>
      <path class="cls-7" d="M74.28,197.45s1.55.92,2,.45a13.4,13.4,0,0,1,1.06-.93l-.11-.35a4.93,4.93,0,0,0-1.53-.19c-.25.13-.68.4-.79.45A6.77,6.77,0,0,0,74.28,197.45Z"></path>
      <path class="cls-8" d="M74.16,197.27c.07.14.28.5.66.28a6.12,6.12,0,0,0,.72-.5s.14-1.31.2-1.54.16-.33-.4,0-.65.2-1,.65A1.62,1.62,0,0,0,74.16,197.27Z"></path>
      <path class="cls-9" d="M75.54,197.05a6.66,6.66,0,0,0,0-1.07c0-.48-.1-.6.3-.73s1.15-.75,1.58-.67.4,0,.51.57a1.94,1.94,0,0,1-.3,1.42,1.08,1.08,0,0,1-1,.71A2.73,2.73,0,0,1,75.54,197.05Z"></path>
      <path class="cls-6" d="M37.87,198.89s2.05.29,2.91-1.2.46-2.87-.06-3a5.21,5.21,0,0,0-.87,0c-.57,0-.44,1.4-.46,1.43S37.87,198.89,37.87,198.89Z"></path>
      <path class="cls-7" d="M35.9,198s1.89,1.31,2.53.75,1.42-1.09,1.42-1.09l-.1-.46a6.37,6.37,0,0,0-1.93-.38c-.33.15-.9.46-1,.51A9,9,0,0,0,35.9,198Z"></path>
      <path class="cls-8" d="M35.76,197.77c.09.18.33.66.83.41a6.85,6.85,0,0,0,.95-.57s.3-1.65.39-1.94.23-.41-.5,0-.85.2-1.31.74A2.09,2.09,0,0,0,35.76,197.77Z"></path>
      <path class="cls-9" d="M37.54,197.61a10.07,10.07,0,0,0,.08-1.37c0-.6-.08-.76.43-.9s1.53-.85,2.08-.71.51.09.6.78a2.45,2.45,0,0,1-.51,1.77,1.36,1.36,0,0,1-1.38.81A3.51,3.51,0,0,1,37.54,197.61Z"></path>
      <path class="cls-6" d="M51.23,191.27a1.79,1.79,0,0,0,1.8.31c.88-.46,1.12-1.27.91-1.5a3.38,3.38,0,0,0-.41-.3c-.28-.18-.66.56-.68.56Z"></path>
      <path class="cls-7" d="M50.54,190.23s.52,1.22,1,1.15a9.42,9.42,0,0,1,1-.1l.09-.26s-.62-.75-.83-.78-.58-.05-.67-.07A4.65,4.65,0,0,0,50.54,190.23Z"></path>
      <path class="cls-8" d="M50.54,190.06c0,.12,0,.43.28.46a4,4,0,0,0,.65,0s.65-.72.79-.84.24-.12-.23-.18-.48-.16-.88,0A1.24,1.24,0,0,0,50.54,190.06Z"></path>
      <path class="cls-9" d="M51.47,190.54a6,6,0,0,0,.45-.65c.18-.31.2-.4.5-.31s1,.06,1.24.29.22.21.05.57-.38.5-.8.71a.8.8,0,0,1-.93,0A2.15,2.15,0,0,1,51.47,190.54Z"></path>
      <path class="cls-6" d="M67.47,198.13s4.54,1.1,6.81-2,1.69-6.34.56-6.8A12.94,12.94,0,0,0,72.9,189c-1.27-.16-1.31,3.06-1.36,3.12S67.47,198.13,67.47,198.13Z"></path>
      <path class="cls-7" d="M63.27,195.71s3.94,3.35,5.5,2.25,3.43-2.13,3.43-2.13l-.12-1.05s-3.47-1.53-4.24-1.28-2.12.82-2.47.91A18.16,18.16,0,0,0,63.27,195.71Z"></path>
      <path class="cls-8" d="M63,195.12c.14.44.57,1.56,1.75,1.12A17.56,17.56,0,0,0,67,195.19s1-3.64,1.31-4.28.61-.85-1.11-.22-1.95.25-3.1,1.36A4.68,4.68,0,0,0,63,195.12Z"></path>
      <path class="cls-9" d="M67,195.19a20.8,20.8,0,0,0,.47-3.06c.08-1.37,0-1.72,1.19-1.93s3.62-1.55,4.82-1.13,1.12.34,1.17,1.89-.47,2.41-1.55,3.86a3.09,3.09,0,0,1-3.28,1.51A8,8,0,0,1,67,195.19Z"></path>
      <path class="cls-6" d="M46.57,195.51s2.72,1.53,4.75-.07,2.24-3.78,1.59-4.29a9.45,9.45,0,0,0-1.19-.54c-.79-.34-1.39,1.73-1.44,1.76S46.57,195.51,46.57,195.51Z"></path>
      <path class="cls-7" d="M44.3,193.19s1.93,2.87,3.13,2.45,2.6-.75,2.6-.75l.12-.7s-2-1.62-2.51-1.6-1.51.15-1.75.14A11.86,11.86,0,0,0,44.3,193.19Z"></path>
      <path class="cls-8" d="M44.24,192.77c0,.31.09,1.1.93,1a12.7,12.7,0,0,0,1.66-.27s1.32-2.16,1.61-2.52.55-.44-.67-.34-1.3-.19-2.25.31A3.18,3.18,0,0,0,44.24,192.77Z"></path>
      <path class="cls-9" d="M46.83,193.54a13.83,13.83,0,0,0,.85-1.89c.3-.86.32-1.11,1.12-1s2.61-.35,3.3.14.66.42.42,1.43a3.75,3.75,0,0,1-1.7,2.21,2.09,2.09,0,0,1-2.38.38A5.34,5.34,0,0,1,46.83,193.54Z"></path>
    </g>
  </g>
</svg>
