<?xml version="1.0" encoding="UTF-8"?>
<svg xmlns="http://www.w3.org/2000/svg" viewBox="0 0 171.73 348.26">
  <defs>
    <style>.cls-1{fill:#a29274;}.cls-2{fill:#e3e0c9;}.cls-3{fill:#fcedce;}.cls-4{fill:#bda885;}.cls-5{fill:#d0c5a6;}.cls-6{fill:#8f8267;}.cls-7{fill:#ab967a;opacity:0.25;}.cls-8{fill:#9b8d71;}.cls-9{fill:#7c705b;}.cls-10{fill:#e7e6e3;}.cls-11{fill:#817870;}.cls-12{fill:#769b57;}.cls-13{fill:none;stroke:#79a05b;stroke-miterlimit:10;stroke-width:0.67px;}.cls-14{fill:#486f3a;}.cls-15{fill:#79a05b;}.cls-16{fill:#b85848;}.cls-17{fill:#d5604b;}</style>
  </defs>
  <g id="Слой_2" data-name="Слой 2">
    <g id="Слой_1-2" data-name="Слой 1">
      <polygon class="cls-1" points="84.22 270.85 142.97 245.84 134.16 313.48 84.22 348.26 84.22 270.85"></polygon>
      <polygon class="cls-2" points="84.22 228.93 142.97 245.84 84.22 270.85 25.31 245.84 84.22 228.93"></polygon>
      <polygon class="cls-3" points="84.22 228.93 25.31 245.84 26.34 246.28 142.42 245.68 84.22 228.93"></polygon>
      <polygon class="cls-4" points="34.12 313.48 25.31 245.84 84.22 270.85 84.22 348.26 34.12 313.48"></polygon>
      <path class="cls-5" d="M62.33,246.67a32.47,32.47,0,0,1,2.78-3,25.55,25.55,0,0,1,3.24-2.52,31.24,31.24,0,0,1,7.38-3.57c1.3-.43,2.62-.78,4-1.08a39.38,39.38,0,0,1,4-.61,38.18,38.18,0,0,1,8.14,0c-2.71.17-5.38.46-8,.89a49.54,49.54,0,0,0-7.75,1.9A39.67,39.67,0,0,0,68.84,242,40.51,40.51,0,0,0,62.33,246.67Z"></path>
      <polygon class="cls-6" points="84.22 270.85 142.97 245.84 134.16 313.48 84.22 348.26 84.22 270.85"></polygon>
      <polygon class="cls-7" points="34.12 313.48 25.31 245.84 84.22 270.85 84.22 348.26 34.12 313.48"></polygon>
      <polygon class="cls-8" points="84.22 348.26 34.12 313.48 84.45 294.46 134.16 313.48 84.22 348.26"></polygon>
      <path class="cls-9" d="M44.76,283.74a10.5,10.5,0,0,1-.89-2.32,20.2,20.2,0,0,1-.55-2.45,18.09,18.09,0,0,1-.08-5A15.94,15.94,0,0,1,44.65,269a16.5,16.5,0,0,1,2.94-4.19,21.83,21.83,0,0,1,8.64-5.15A37,37,0,0,1,66,258a56.18,56.18,0,0,0-9.49,2.63,23.24,23.24,0,0,0-8.1,5.11,15.83,15.83,0,0,0-4.29,8.38,20,20,0,0,0-.25,4.84A18.56,18.56,0,0,0,44.76,283.74Z"></path>
      <path class="cls-9" d="M99.51,282.81c.16.25.49.34.75.47l.83.35c.57.22,1.14.41,1.72.59,1.15.38,2.31.72,3.47,1,2.33.63,4.67,1.2,7,1.67,4.73,1,9.51,1.59,14.36,2.15a53.06,53.06,0,0,1-14.6-1,51.18,51.18,0,0,1-7.08-2c-1.16-.4-2.29-.87-3.41-1.38-.55-.27-1.1-.55-1.63-.85A4.1,4.1,0,0,1,99.51,282.81Z"></path>
      <path class="cls-9" d="M68,279.28a43.26,43.26,0,0,1-3.9,13,36.73,36.73,0,0,1-3.54,5.85,22.37,22.37,0,0,1-4.89,4.73,39.63,39.63,0,0,0,4.12-5.27A63.57,63.57,0,0,0,63,291.74c1-2,1.83-4.06,2.65-6.13S67.24,281.42,68,279.28Z"></path>
      <path class="cls-9" d="M86.18,333.12C88.57,332,91.06,331,93.47,330s4.82-2.12,7.15-3.33a46.6,46.6,0,0,0,6.63-4.14,18.81,18.81,0,0,0,5.24-5.77,15.21,15.21,0,0,1-4.64,6.49,34.35,34.35,0,0,1-6.67,4.49,58.82,58.82,0,0,1-7.37,3.13c-1.25.45-2.52.85-3.8,1.22Z"></path>
      <path class="cls-9" d="M58.63,325.69a16.61,16.61,0,0,1-3.82-2.41,9.15,9.15,0,0,1-2.75-3.71,5.32,5.32,0,0,1-.34-2.41,6.11,6.11,0,0,1,.73-2.33,11,11,0,0,1,3.19-3.43,30.82,30.82,0,0,1,8.12-4,63.25,63.25,0,0,1,8.7-2.27c-2.81,1-5.62,2-8.36,3.15a37.29,37.29,0,0,0-7.75,4.12,10.35,10.35,0,0,0-2.91,3,4.76,4.76,0,0,0-.5,3.88,9.15,9.15,0,0,0,2.28,3.58A18.71,18.71,0,0,0,58.63,325.69Z"></path>
      <path class="cls-9" d="M112.49,281.45l4.38-6c1.44-2,2.84-4,4.18-6.11a64.38,64.38,0,0,0,3.69-6.38,20.63,20.63,0,0,0,2.31-7,15.72,15.72,0,0,1-1.46,7.35,40.2,40.2,0,0,1-3.53,6.64A62.82,62.82,0,0,1,112.49,281.45Z"></path>
      <path class="cls-10" d="M88.13,260.55c0,3.17-1,6.08-1.68,8.86a20.14,20.14,0,0,0-.69,4.13,12,12,0,0,0,.54,4,37.91,37.91,0,0,0,3.76,7.69,26.33,26.33,0,0,1,3.5,8.38,20.21,20.21,0,0,1-.83,9.07c-.82,2.89-2,5.59-2.92,8.34a20.67,20.67,0,0,0,1.59,16.81,20.08,20.08,0,0,1-3.22-8.21,21,21,0,0,1,.57-8.91c.76-2.89,1.88-5.62,2.58-8.41a18.64,18.64,0,0,0,.5-8.37,25.8,25.8,0,0,0-3.44-7.73,36.75,36.75,0,0,1-4-8.08,13.92,13.92,0,0,1-.61-4.68,22.41,22.41,0,0,1,.77-4.55c.79-2.88,1.75-5.61,1.84-8.37h0a.87.87,0,0,1,.91-.85A.88.88,0,0,1,88.13,260.55Z"></path>
      <path class="cls-10" d="M88.27,259.69a21.23,21.23,0,0,0,4,5,10.05,10.05,0,0,0,2.64,1.5,21.91,21.91,0,0,0,3.14.86,59.16,59.16,0,0,1,6.85,1.45,13.3,13.3,0,0,1,3.31,1.6,11.27,11.27,0,0,1,2.63,2.57,17.9,17.9,0,0,1,2.9,6.48c.57,2.28.84,4.58,1.18,6.84a31.31,31.31,0,0,0,1.57,6.64,13.23,13.23,0,0,0,3.81,5.6,13.35,13.35,0,0,1-4.15-5.46,31.07,31.07,0,0,1-1.94-6.65c-.46-2.26-.86-4.52-1.51-6.68a16.93,16.93,0,0,0-3-5.87,9.73,9.73,0,0,0-2.39-2.1,11.09,11.09,0,0,0-2.94-1.23,60.44,60.44,0,0,0-6.69-1.05,23.08,23.08,0,0,1-3.55-.78,12.46,12.46,0,0,1-3.42-1.71,23.59,23.59,0,0,1-4.88-5.44,1.43,1.43,0,0,1,2.35-1.64l0,.06Z"></path>
      <path class="cls-10" d="M88,260.48a7.72,7.72,0,0,1-1.51,4,14.48,14.48,0,0,1-2.7,3A9.59,9.59,0,0,1,82,268.64c-.58.3-1.17.58-1.76.84-1.19.52-2.39,1-3.59,1.4a47.64,47.64,0,0,0-6.88,2.81,14.18,14.18,0,0,0-5.32,4.64,15.32,15.32,0,0,0-1.95,6.87c-.24,2.48-.31,5-.49,7.54a32.21,32.21,0,0,1-1.26,7.58,15.24,15.24,0,0,1-3.9,6.55,19.2,19.2,0,0,0,3-6.81,38.82,38.82,0,0,0,.94-7.39c.12-2.5.12-5,.3-7.59a17,17,0,0,1,2-7.61A15.52,15.52,0,0,1,69,272.15a49.82,49.82,0,0,1,7.09-3c1.18-.44,2.35-.88,3.47-1.37.57-.24,1.12-.5,1.66-.78a8.43,8.43,0,0,0,1.4-.95A13,13,0,0,0,85,263.44a6.17,6.17,0,0,0,1.21-3v0a.91.91,0,0,1,1.82.06Z"></path>
      <path class="cls-10" d="M61.81,293.06a31.81,31.81,0,0,1,2.91,4.64,9.07,9.07,0,0,1,.79,5.36,8.83,8.83,0,0,0-1.3-5.1,31.79,31.79,0,0,0-3.28-4.23Z"></path>
      <path class="cls-10" d="M62.68,280.93A17.75,17.75,0,0,1,67,295.19a16.89,16.89,0,0,0-.86-7.47,16.25,16.25,0,0,0-3.87-6.33Z"></path>
      <path class="cls-10" d="M70.81,272.57a9.19,9.19,0,0,1-.09,3.63,20.64,20.64,0,0,1-4.39,9.39,21.56,21.56,0,0,0,2.89-6.19,21.1,21.1,0,0,0,.66-3.33,8.41,8.41,0,0,0-.14-3.22Z"></path>
      <path class="cls-10" d="M81.72,268.26a25,25,0,0,1-3.2,7.25,23.24,23.24,0,0,1-5.18,5.86,23,23,0,0,0,4.7-6.14,24.26,24.26,0,0,0,2.6-7.19Z"></path>
      <path class="cls-10" d="M86.59,279.4a11.55,11.55,0,0,1-3,7.29,35.85,35.85,0,0,1-5.77,5.08,25.65,25.65,0,0,0-5.43,5.17,9.79,9.79,0,0,0-2,7.07,10,10,0,0,1,1.73-7.27,25.9,25.9,0,0,1,5.28-5.53,34.85,34.85,0,0,0,5.37-5.2,10.28,10.28,0,0,0,2.41-6.57Z"></path>
      <path class="cls-10" d="M91.63,289.25a14.62,14.62,0,0,1-1.8,4.61,18.43,18.43,0,0,1-3,3.84c-1.14,1.14-2.35,2.18-3.37,3.39a8.81,8.81,0,0,0-2.15,4.19,9,9,0,0,1,1.93-4.37c1-1.29,2.13-2.42,3.19-3.6a18,18,0,0,0,2.68-3.86,13.59,13.59,0,0,0,1.44-4.38Z"></path>
      <path class="cls-10" d="M93.08,300a9.55,9.55,0,0,1-1.94,2.5,25.66,25.66,0,0,1-2.32,2c-.8.61-1.63,1.19-2.49,1.73s-1.75,1-2.63,1.47A22.79,22.79,0,0,0,78.77,311,8.14,8.14,0,0,0,76,316.11a8.33,8.33,0,0,1,2.52-5.33,23.47,23.47,0,0,1,4.85-3.58,35.18,35.18,0,0,0,4.88-3.36,27.08,27.08,0,0,0,2.15-2,8.71,8.71,0,0,0,1.64-2.27Z"></path>
      <path class="cls-10" d="M79.54,310.15a5.4,5.4,0,0,0-3.24-.83,8.54,8.54,0,0,0-3.31.85,8.84,8.84,0,0,1,3.31-1,5.62,5.62,0,0,1,3.39.73Z"></path>
      <path class="cls-10" d="M84.27,307.19a10.14,10.14,0,0,0-.26,2.1c0,.72,0,1.45-.11,2.18a7.73,7.73,0,0,1-1.72,4,7.66,7.66,0,0,0,1.39-4c0-.71,0-1.43,0-2.16a9.92,9.92,0,0,1,.2-2.22Z"></path>
      <path class="cls-10" d="M88.91,312.72a15.72,15.72,0,0,1,4.64,3.4,18.83,18.83,0,0,1,3.31,4.58,19,19,0,0,0-3.63-4.24,14.92,14.92,0,0,0-4.67-2.87Z"></path>
      <path class="cls-10" d="M93.06,316a28.11,28.11,0,0,0-.38,3.43,15.94,15.94,0,0,0,.16,3.45,16,16,0,0,1-.3-3.45,31.32,31.32,0,0,1,.25-3.48Z"></path>
      <path class="cls-10" d="M92.13,304a19.62,19.62,0,0,0,2.15,2.86,31,31,0,0,0,2.53,2.6c.87.83,1.85,1.56,2.74,2.4a7.3,7.3,0,0,1,2.08,3A6.5,6.5,0,0,0,99.44,312c-.94-.77-2-1.45-2.91-2.2A56.34,56.34,0,0,1,90.92,305Z"></path>
      <path class="cls-10" d="M102.38,302.32A11.16,11.16,0,0,0,103,311a11.43,11.43,0,0,1-1.23-8.85Z"></path>
      <path class="cls-10" d="M93,293.26a29.84,29.84,0,0,0,3.7,4.32,32.52,32.52,0,0,0,4.4,3.63c1.56,1.09,3.28,2,4.8,3.22a7.75,7.75,0,0,1,3.07,4.79,8,8,0,0,0-3.27-4.54c-1.52-1.13-3.28-1.94-4.9-3a33.78,33.78,0,0,1-4.55-3.62,27.19,27.19,0,0,1-3.81-4.41Z"></path>
      <path class="cls-10" d="M98.55,299.51a27.73,27.73,0,0,1,3.16.08c1.05.08,2.1.18,3.14.33a14.39,14.39,0,0,1,3.09.7,3.47,3.47,0,0,1,2,2.3,3.38,3.38,0,0,0-2.1-2.15,15.69,15.69,0,0,0-3.06-.54,62.36,62.36,0,0,0-6.26-.22Z"></path>
      <path class="cls-10" d="M90.2,286.73a7.58,7.58,0,0,1,3.62.33,10,10,0,0,1,3.12,1.63,17.69,17.69,0,0,1,2.5,2.39,10.06,10.06,0,0,1,1.94,2.82,10,10,0,0,0-2.14-2.62,17.7,17.7,0,0,0-2.63-2.12,9.38,9.38,0,0,0-3-1.29,6.69,6.69,0,0,0-3.14-.06Z"></path>
      <path class="cls-10" d="M82.43,287.55a20.25,20.25,0,0,1-.82,5.48A12.65,12.65,0,0,1,79,297.85a12.47,12.47,0,0,0,2.22-4.92,20.22,20.22,0,0,0,.45-5.37Z"></path>
      <path class="cls-10" d="M74.54,294.4a13.45,13.45,0,0,1-.77,9.61,13.2,13.2,0,0,0,.24-9.44Z"></path>
      <path class="cls-10" d="M80.58,289.32c-2,.15-3.9.22-5.85.3-1,.06-2,0-2.91.09a5.44,5.44,0,0,0-2.72.93,5.51,5.51,0,0,1,2.7-1.1c1-.14,1.94-.13,2.91-.23,1.94-.15,3.89-.31,5.81-.53Z"></path>
      <path class="cls-10" d="M84.31,284a15,15,0,0,0-11.44-.43,15.52,15.52,0,0,1,11.81-.47Z"></path>
      <path class="cls-10" d="M61.93,284.25a13.71,13.71,0,0,0-5.21,3,13.06,13.06,0,0,0-3.58,4.91,13.23,13.23,0,0,1,3.33-5.18,14,14,0,0,1,5.25-3.41Z"></path>
      <path class="cls-10" d="M61,297.76a10.45,10.45,0,0,0-4.25,2.18,12.77,12.77,0,0,0-1.75,1.7,6.94,6.94,0,0,0-1.26,2.09,7.22,7.22,0,0,1,1.16-2.17,12.05,12.05,0,0,1,1.68-1.82,12.67,12.67,0,0,1,2-1.49,8.4,8.4,0,0,1,2.31-1Z"></path>
      <path class="cls-10" d="M67,274.9a18.06,18.06,0,0,0-9.31.21,19.06,19.06,0,0,0-8.29,4.6,19.27,19.27,0,0,1,8.13-5.13,18.77,18.77,0,0,1,9.73-.76Z"></path>
      <path class="cls-10" d="M79.41,269.41a43,43,0,0,1-5.83-.86,10.93,10.93,0,0,0-5.7.26,11.3,11.3,0,0,1,5.76-.82,40.14,40.14,0,0,0,5.74.31Z"></path>
      <path class="cls-10" d="M85.46,273.12A9.28,9.28,0,0,0,88,276a23.46,23.46,0,0,0,3.38,2.22,27.51,27.51,0,0,0,7.61,2.86c2.63.66,5.46.92,8,2.23a9.29,9.29,0,0,1,3.1,2.71,24.88,24.88,0,0,1,2.08,3.56,24.5,24.5,0,0,0-2.15-3.5,8.41,8.41,0,0,0-3.13-2.58c-2.48-1.18-5.27-1.34-8-1.89A29.64,29.64,0,0,1,90.93,279c-2.46-1.25-5-2.59-6.81-5.11Z"></path>
      <path class="cls-10" d="M92,278.88a7.72,7.72,0,0,1,2.83-1.52,10.85,10.85,0,0,1,3.1-.54,13.14,13.14,0,0,1,6,1.67,13,13,0,0,0-5.94-1.3,10.28,10.28,0,0,0-3,.67,7.08,7.08,0,0,0-2.51,1.51Z"></path>
      <path class="cls-10" d="M95.63,280.19a10,10,0,0,1,3.29,3.7c.8,1.43,1.33,3,2.21,4.33-1-1.3-1.63-2.81-2.52-4.15a9.5,9.5,0,0,0-3.34-3.27Z"></path>
      <path class="cls-10" d="M92.07,266a19.19,19.19,0,0,0-.54,5.84,10.14,10.14,0,0,0,2,5.49A10.44,10.44,0,0,1,91,271.88a20.12,20.12,0,0,1,0-6.1Z"></path>
      <path class="cls-10" d="M105.36,269.7a21.48,21.48,0,0,0-.57,6.21,16.51,16.51,0,0,0,1.36,6.14,16.82,16.82,0,0,1-1.92-6.09,22.7,22.7,0,0,1,0-6.48Z"></path>
      <path class="cls-10" d="M114.31,282.79a18.27,18.27,0,0,0-3.94,4.39,25.32,25.32,0,0,0-1.55,2.59,6.09,6.09,0,0,0-.7,2.9,6.12,6.12,0,0,1,.43-3,20.26,20.26,0,0,1,1.33-2.78,18.94,18.94,0,0,1,3.74-5Z"></path>
      <path class="cls-10" d="M114.62,285.06a9.39,9.39,0,0,1,8.15,7.43,8.83,8.83,0,0,0-8.2-6.32Z"></path>
      <path class="cls-10" d="M111.86,274.94a6.57,6.57,0,0,1,4.68,2,10.66,10.66,0,0,1,2.49,4.23,10.36,10.36,0,0,0-2.86-3.81,5.71,5.71,0,0,0-4.22-1.29Z"></path>
      <path class="cls-10" d="M92.68,265.78a15.11,15.11,0,0,1,8.09-1.73,14.11,14.11,0,0,1,7.65,2.7,13.76,13.76,0,0,0-7.66-2.14,14.28,14.28,0,0,0-7.52,2.13Z"></path>
      <polygon class="cls-3" points="26.34 246.28 84.22 270.85 142.97 245.84 142.42 245.68 26.34 246.28"></polygon>
      <ellipse class="cls-1" cx="86.08" cy="247.02" rx="13.57" ry="5.31"></ellipse>
      <ellipse class="cls-11" cx="86.43" cy="248.81" rx="11.18" ry="4.37"></ellipse>
      <path class="cls-12" d="M90.8,32.41c.33-.75,6.09-10.59,10.26-11.51,0,0,2.16,0,1-1.91s7.92-4.26,8.17-4.59,1.75-1.75.58-3.09,7.84-3.41,7.84-3.41,1.17-.92.5-1.92,8.75-2.75,8.75-2.75,1.59-1.67-2.83-1-8.51,1.25-8.51,1.25,1.17-4-1.25-3.42c0,0-3.89,5.25-5.82,6.08,0,0-1.43-3.16-3.43-1.83l-4.42,6.5s-2.17-2.91-4.34.09S95,18.65,95,18.65a4.38,4.38,0,0,1-.67-2.45s-.08-.8-2.08-.38c0,0,1.5-11.18-3.17-7,0,0-3.25-8.33-5-7.58,0,0-1.25,0,0,2.25s5.83,13.67,4.66,26.43c0,0-.58.66.34,2.5a6.09,6.09,0,0,1-.17,1.92c-.25.66-.3-.36-2-.53a2.71,2.71,0,0,1,.28-2.22c.67-1.45,1.61-5.95-2.61-5.67,0,0,0-6.34-1-6.67s-1.92,6.44-1.92,6.44-5.17-1.61-1,5.28c0,0,.61.17-.28,1.39s.78,4.67,4.62,7.29l1.5,1.22a27.7,27.7,0,0,0,.9,3.55c1.61-.5,4.32-2.16,6.55-1.83s4.5,2.17,4.83.61-.11-2.94-.94-3.39,2.61-.55,4.89-.66,3-1.78,1.61-2.56,8.45-2,10-1.84,2.84-.94-1-1.11-4,.72-3.83-.16-.34-4.4-6.45.05c0,0-1.39,1.17-1.34-.83S98,30.74,96,33.47s-2.72,2.83-2.89,1.66.73-2.16.34-2.55-1.45.72-2.34,1.83-1.33.56-.83-.72Z"></path>
      <path class="cls-12" d="M87.24,61.31c.47,1.18,6.67-3.44,8.12-3.11s2.89,0,3-1.44c0,0,7.34,1.11,8.23.77s2.78-2.55,0-4.44c0,0,7.44-2,9.67-5.45s-3.11.44-5.2.44-2.42.17-3.08.09-.09-3-2.42-2.5a6.92,6.92,0,0,1-2,1.41A47.07,47.07,0,0,0,98.47,49a3.91,3.91,0,0,1-1.92.59c-.25,0,.75-4.51-3-2.09s-5.42,4.17-5.67,6S86.1,58.45,87.24,61.31Z"></path>
      <path class="cls-12" d="M65.54,80.27a7.53,7.53,0,0,1-1.26-3.09c-.16-1.91,1.84-15.84-4-13.34,0,0,1.34-9.59-2.67-4.58,0,0-.58,1.19-2-1.45S51.36,50.67,52,55.92c0,0,1.67,4.25,1.33,5s-2.53-.16-1.43,2,1.61,1.71-.31,2.33C47.78,66.51,59.2,77.18,65.54,80.27Z"></path>
      <path class="cls-12" d="M43.11,75.68a15.82,15.82,0,0,1-8.59-3.33c-4.17-3.25-9.51-7.67-10.09-8s-3.67,2-1.5,7.42c0,0,1.67,2.17-1.42,1.25S11,67.6,9.09,70.76s0,3.84,0,3.84A20,20,0,0,0,1,78.6c-3.17,2.92,2.17,2.75,2.58,2.75s6.84-1.75,7-.58-1.25,4.67,2.75,4.17,6.09-4.74,7-4.66,2.17.32,1.59,2.16-.67,5.17,3.83,4.08,8.59-6,8.84-5.25-.5,1.25-1.25,1.75-5.09,5.92-5.92,8.09-7.5,5.67-7.17,15c0,0,.08,2.91,1.83,2.33,0,0-1.16,7.17,3.42,9.42,0,0,1.17,10.34,3.59,10.59,0,0-.67-12.09,1-15.59,0,0,.42-11.26,1.17-15.93S32,81.57,43.11,76.52Z"></path>
      <path class="cls-12" d="M84.46,48.75c-.5-1-.16-4-4-6.92s-2.5-8.67-7.25-4.92c0,0-3.92-3.25-4-5s-2.25-.83-1.75,1.25-1.91,3.5,3,9.5c0,0,.51.52-.58,1.3s-.17,2.54,2.67,3.37,12.28,3.09,14.28,10.51Z"></path>
      <path class="cls-12" d="M120.15,69.6a39.18,39.18,0,0,1,2-4.92c.5-1.09.92-10.34,2-12.68s2-5.17,5.84-4.17c0,0,3.83-1.82,4.33-3.87s2.42-4.05,3.67-3.88,2.67-.08,3,.5,1.67-.08,2,.17,3.26-1.5,2.76.16-3.34,4-3.34,4,3.34,2.5-3.08,5.08c0,0-1.34.34-.17,2.17s2,5.92-5.17,6.92c0,0-6.84,6.09-7.17,4.42s-3.17,6.09-4.92,6.09S120.32,70.51,120.15,69.6Z"></path>
      <path class="cls-12" d="M119.48,71s.67-9.17,0-10.59,1.33-3.41.67-4.08-3.22,2.08-3.36,3.75-2.64-.25-2.73,1.92,1.34,5.92,2.34,7.5A3.7,3.7,0,0,0,119.48,71Z"></path>
      <path class="cls-12" d="M129.15,66.88s18-20,16.65-8.21c0,0,13.79-7.42,11.37,1,0,0-.17,1.59,3.67.25s5.67-1.33,6.08,2.09c0,0,3.59,1.42,3.09,2.83,0,0,3.85,1.41.05,2,0,0-2.05,2-3.55,0,0,0-1.5,4.05-7.42-2.37,0,0-.42,4.41-4.92,2.37s-4.59-2.29-6.67-2c0,0-.25.5.66,1.67s1.09,4.51-9.33,1.63S129.15,66.88,129.15,66.88Z"></path>
      <path class="cls-12" d="M115.72,73c-.26,0,25.52-2.27,36.11,11.24,0,0,.38,1.92-1.39,1.25s2.73,7.34,2.14,9.59-.41,2.92-2.5,2.34c0,0-4.17,10.25-2.92,15.34,0,0-6.17.5-6.83-12.59,0,0-6.92-.42-3.59-9.84,0,0,.5-2.42-1.33-1.17s-5.26-1.08-4.17-7.17C131.24,82,125.14,74.86,115.72,73Z"></path>
      <path class="cls-12" d="M103.64,86s28-19.76,24.35,12.68c0,0-.67,3.33-3.51,0s-5.67-5.85-6.17-5.84-.58.67-.66.92-1.25,3.5-4.09-.25S105.47,84.85,103.64,86Z"></path>
      <path class="cls-12" d="M110.89,93.44s12.51,8.26,6.59,10.76c0,0,5.25,7.84,2.17,9.92,0,0,2.42,4.67-.5,4.5,0,0-1.59,10.1-3.17,0,0,0-2.17-.59-.67-4.18,0,0-2.5.59-1.25-7.58,0,0-7.5,6.42-4.25-12.34C109.81,94.53,108.52,91.72,110.89,93.44Z"></path>
      <path class="cls-12" d="M113.23,132.21c-.58.51,9.92-14.34,12.09-17.09s5.75-4.58,7.25,0c0,0-1.42,1.59,3.67-.33s10.59-6.83,11.67-2c0,0,3.67-2.67,3.51.83s2.08,2.42,2.41,2.42,4.59,1.33,0,3.25c0,0-2.75.67-4.08-.08s-.84,1.58-.17,1.91,2.84,4.51-1.75,2.84a7.09,7.09,0,0,0-6.25-2.49c-4.25.32-6,0-4.23,1.64s4.64,5.52-.36,4.27S123.4,123.29,113.23,132.21Z"></path>
      <path class="cls-12" d="M122,138.88s5.17-2.91,12,1.17c0,0,4.68,2.59.59,3.92,0,0,9.75,8.51,4.58,8.34,0,0,2,6.59.33,7.5,0,0-2.16-5.5-3.25-6.42a2.85,2.85,0,0,1-3.33-2.25c-.92-2.83-1.34-4.17-1.92-4.08s-.09,1.24-.5,1.78-1.09,1.55-3.25-1.2S122.82,142.3,122,141,122,138.88,122,138.88Z"></path>
      <path class="cls-12" d="M98.14,151.64s7.92-7,12.25-7.34,7.09-1.41,4.84,2.92c0,0-2,1.17,2.5,2.59A11.25,11.25,0,0,0,125,150c.65-.05,5.59.45,3.34,3.37,0,0-1.58.5,1.33,1.5s6.51,2.67,7.59,8.26c0,0,2.5,2.17,1.5,2.83s-9.42-6.08-11-6.17c0,0,1.5,5.76-3.76,5.09a4.65,4.65,0,0,1-2.91-3.17c-.92-2.67-5.42-4.75-5.42-4.75s-1.27-.59-.84.83-1,3.09-1.6,3.5-2.23,1.92-3.32-.58S101.31,151.14,98.14,151.64Z"></path>
      <path class="cls-12" d="M71.29,86s-7.42-2.33-13.84,4.84c0,0-1.49,2,.76,2.58,0,0-6.52,5.26-6.6,8.34s-.08,2.17.67,2.84-.25,7.58,2,9.33,2.58-8.42,2.58-8.42,2.55,4,4.57-9.14c0,0,5,2.81,6.11-2.78s4-6.42,5.83-6.17S71.29,86,71.29,86Z"></path>
      <path class="cls-12" d="M60,80.28c.41,0-13.08,1-8.46,11.91,0,0,3,8.92-2.71,6.84a26.75,26.75,0,0,0-1,6.59c.17,2.33-.25,4.42-2.34,3.5,0,0,.5,4.58-.83,4.58s-3.42-.5-5.34-7.83c0,0-4.91.91-3.16-4.67S39.77,80.78,60,80.28Z"></path>
      <path class="cls-12" d="M69.05,118.39s-52.47-12.61-40.47,41.42c0,0,1.34,1.84,2-2.33s1.16-14.18,3.83-15.84c0,0,1.25,3.33,3.54-.34C38,141.3,38.48,113.94,69.05,118.39Z"></path>
      <path class="cls-12" d="M65.2,120.71c.42-.07-28.51,2.58-16.92,33.18,0,0,4.75,2.34,6.67-13.17,0,0,7.67,3.17,6.17-4.75S64.12,120.87,65.2,120.71Z"></path>
      <path class="cls-12" d="M87.8,143.94s-11.68-17-15.34-8.81c0,0-18.62.45-7.25,20.9,0,0,1.58,2,3.58-6,0,0-.78-2.34,2.55-.45s4.82,3.34,6.64-1.33,6.48-1.78,7.82-2.11S88.48,144.89,87.8,143.94Z"></path>
      <path class="cls-12" d="M56.34,163.59s-5-13.84-8.06-9.7c0,0-1.39,2.14-5.17-2.64,0,0-.89-1.67-2.67,0,0,0-1.11-1.89-2.11-1.78,0,0-1.12-1.78-1.67-1.11s.67,2,.67,2-1.12-.11.66,2.12c0,0-1.89,3.33,6.34,5C44.33,157.48,36.21,162.15,56.34,163.59Z"></path>
      <path class="cls-12" d="M66.9,172.93s1.78-9-1.11-14.34c0,0-.78-1-1.34,0,0,0-1.61-4.06-2.44-4.11,0,0-1.45-5.84-1.89,0,0,0-1.84-.56-.84,4.22C59.28,158.7,53.45,158.26,66.9,172.93Z"></path>
      <path class="cls-12" d="M65.87,172.93s-9.09-4.11-20.68,3.64c0,0-1.12,1.92,1.23,2.09a17.27,17.27,0,0,0-1.9,11.75s.09,2.17,2.26-.5,2.91-5.5,3.5-5.42,1.58,2.42,2.58,1.17S58.45,172.85,65.87,172.93Z"></path>
      <path class="cls-12" d="M78.21,191.24a13.4,13.4,0,0,0-11.67-3.83c-7.26,1.17-3.81,3.83-3.81,3.83s-10.45,4.34-4.2,16.6c0,0,1.59,1.75,2.09-.67s-.09-2.92.91-5.08,2.5-5.42,3.26-5.09,1.66,3.5,3.16.42S73.46,189.91,78.21,191.24Z"></path>
      <path class="cls-12" d="M99.61,195.74a1.29,1.29,0,0,0,.51-.62c.85-2.42,3.65-12.88,6.35-15.19s3.37-5,4.51-.43c.16.64-.24,1.18-.53,1.78,0,0,.56-.34,2.76-1.79,4.72-3.11,11.72-8.23,10.61-4.22s-2.55,3.66.12,3.66,7.61-1.11,10.64-.66,6.25,1.78-1.42,2.67c-6.28.72-3.64,1.23-2.47,1.39a1.75,1.75,0,0,1,.93.41c.8.7,1.81,2.12-3.69,2-7.23-.21-5.22-.1-4.89.57s2.33,5-2.67,4.11a17.66,17.66,0,0,0-8.34.23c-.44.11,7,3,1.18,3.78s-8.4,2.89-11.63,2.78C99.51,196.09,99.41,195.89,99.61,195.74Z"></path>
      <path class="cls-12" d="M78.68,189.83c.32.67,3.45-9.67,7.56-7.12,0,0-.68-5.78-5.79-5.22a4.21,4.21,0,0,0-3.78,3.62C76.43,182.94,76.74,185.74,78.68,189.83Z"></path>
      <path class="cls-12" d="M96.58,201s17.84-4.28,4.45,15.73a44.48,44.48,0,0,1-.67-4.73c-.11-1.89-2.41,1.56-.82-4.89,0,0-3.29.17-1.63-5.06C97.91,202,98.3,200.84,96.58,201Z"></path>
      <path class="cls-12" d="M95.36,200.56S98.8,193.5,99,189.27A91.66,91.66,0,0,0,98.14,176c-.23-1.44-2.78,2.78-2.78,7.62s1.89,5.39,0,4.84-3-1.28-3.89,1.36S95.36,200.56,95.36,200.56Z"></path>
      <path class="cls-12" d="M76.6,213s-19.93-9.34-19,14.68c0,0,1.59,3,4.11-6.34,0,0-.78-.44,2.23-.67S70.74,210.73,76.6,213Z"></path>
      <path class="cls-12" d="M91.36,233.85s7-7.56,9.94-1.33a16.09,16.09,0,0,0,4.71,3.89c2.69,1.33,10.8,5.78,1.8,5.67s-8.9-6.78-10.34-7.34S94.58,233.08,91.36,233.85Z"></path>
      <path class="cls-13" d="M87.06,63.24a7.83,7.83,0,0,0,2.66,2.34c1,.68,3.31,2.51,3.33,3.7"></path>
      <path class="cls-14" d="M92.63,67.76s2.39.06,2.17-2.22.72.39.45,1.11-.62,1.78-1.28,2c0,0-1.34,1.89-2.56,1.11,0,0-1.33,1.34-2.39.61,0,0,3.11-1.16,2.89-2.16S92.63,67.76,92.63,67.76Z"></path>
      <path class="cls-14" d="M76.68,98.83s1-1.63,2.06-1.2c0,0-1.34,1.56-1,2.55a8.06,8.06,0,0,1,.58,2.66,15.38,15.38,0,0,0-1.61-2C75.79,100,76.68,98.83,76.68,98.83Z"></path>
      <path class="cls-14" d="M79.54,155.84s1.21-3.34,3.08-2.75c0,0-1.74,2.47-1.41,4S79.54,155.84,79.54,155.84Z"></path>
      <path class="cls-15" d="M99.88,12.88C94.61,21.42,90,30.57,88.07,40.44a68.68,68.68,0,0,0-1.15,15c.1,5,.54,10,.9,15,.81,10,.94,20.14,1.12,30.21s.17,20.14.1,30.21c-.15,20.14-.66,40.27-1.17,60.39s1,40.12.54,60.39l-3.66-.12c.76-20-.62-40.15.3-60.36s1.61-40.22,2-60.33q.32-15.09.34-30.17c0-10.06,0-20.12-.65-30.15-.28-5-.63-10-.65-15.1a69.92,69.92,0,0,1,1.42-15.07C89.7,30.41,94.47,21.33,99.88,12.88Z"></path>
      <path class="cls-15" d="M136,63.81c-17.31,4.27-32.91,14.78-42.23,30.13a64.48,64.48,0,0,0-6.25,13.86c-.3.92,1.15,1.32,1.44.4a63.84,63.84,0,0,1,33.38-37.93,71.79,71.79,0,0,1,14.06-5c.94-.23.54-1.68-.4-1.45Z"></path>
      <path class="cls-15" d="M122.06,123.11A141.22,141.22,0,0,0,86.5,180.79l-2.24-.74A142.36,142.36,0,0,1,122.06,123.11Z"></path>
      <path class="cls-15" d="M99.63,193.57c-6.12,6.51-12.58,13.57-14.37,22.63-.25,1.25,1.68,1.79,1.93.53,1.73-8.73,8-15.47,13.86-21.74.88-.94-.53-2.36-1.42-1.42Z"></path>
      <path class="cls-15" d="M54.39,163.57a60.7,60.7,0,0,1,17.27,18.65c4.75,7.81,8.76,16.1,13,24.17.6,1.14,2.33.13,1.73-1-4.41-8.34-8.53-16.94-13.52-25a62.51,62.51,0,0,0-17.5-18.57c-1.06-.74-2.06,1-1,1.72Z"></path>
      <path class="cls-15" d="M80.45,155.94A8.15,8.15,0,0,1,84,157.67a12.2,12.2,0,0,1,2.89,2.8c.36.53,1.22,0,.86-.51a13.32,13.32,0,0,0-3.25-3.15,9,9,0,0,0-4-1.87.51.51,0,0,0-.5.5.51.51,0,0,0,.5.5Z"></path>
      <path class="cls-13" d="M56.6,117.47c26.56,0,28.13,13.17,30.71,23.72"></path>
      <path class="cls-15" d="M76.89,112.27c-.62-2.43,1.33-5,3.64-5.59s4.87-.23,7.18.11c.63.1.9-.87.26-1a33.77,33.77,0,0,0-4.14-.43,10.44,10.44,0,0,0-4.12.5c-2.57,1-4.48,3.87-3.79,6.64a.5.5,0,0,0,1-.27Z"></path>
      <path class="cls-15" d="M77.58,100.66a26.88,26.88,0,0,1,5.21,2.58,26.4,26.4,0,0,1,4.7,3.42c.46.45,1.17-.25.7-.7a26.55,26.55,0,0,0-4.9-3.58,27.58,27.58,0,0,0-5.45-2.68c-.61-.21-.87.76-.26,1Z"></path>
      <path class="cls-15" d="M39.77,77.16A57.39,57.39,0,0,1,79.11,91.81a55,55,0,0,1,8.08,9c.56.78,1.86,0,1.3-.76A59,59,0,0,0,52.24,76.74a56.73,56.73,0,0,0-12.47-1.09.76.76,0,0,0,0,1.51Z"></path>
      <path class="cls-15" d="M73.79,52.34a5,5,0,0,1,2.82,1,8.8,8.8,0,0,1,2.27,2.16.51.51,0,0,0,.68.18.5.5,0,0,0,.18-.68,9.9,9.9,0,0,0-2.63-2.53,6.07,6.07,0,0,0-3.32-1.17.51.51,0,0,0,0,1Z"></path>
      <path class="cls-15" d="M77.44,60.85a4.5,4.5,0,0,1,.84-4A5.39,5.39,0,0,1,81,55.06a3.51,3.51,0,0,1,3.15.39A5.84,5.84,0,0,1,85.86,58a15.87,15.87,0,0,1,.9,3.46c.1.63,1.06.36,1-.27-.35-2.3-1.06-5.09-3-6.56-2.21-1.66-5.43-.43-7.06,1.48a5.55,5.55,0,0,0-1.16,5c.14.63,1.11.36,1-.26Z"></path>
      <path class="cls-15" d="M67.64,62.9a14.39,14.39,0,0,1,9.15-3.78c.64,0,.65-1,0-1a15.44,15.44,0,0,0-9.85,4.07c-.48.44.23,1.14.7.71Z"></path>
      <path class="cls-15" d="M73.5,73.16a27.09,27.09,0,0,0,.87-8.91,6.27,6.27,0,0,1,.22-3.41,2.64,2.64,0,0,1,2.2-1.72c.64,0,.65-1,0-1-2.13.08-3.47,2.18-3.54,4.16-.07,1.74.33,3.45.21,5.2a36.63,36.63,0,0,1-.93,5.41c-.14.63.83.9,1,.27Z"></path>
      <path class="cls-15" d="M99.78,88.42c1.58-1.56,4.18-1.15,5.84.06,2,1.46,3,4,3.89,6.18.24.58,1.2.33,1-.27-1-2.55-2.18-5.38-4.58-6.94-2-1.32-5-1.54-6.82.26a.5.5,0,0,0,.71.71Z"></path>
      <path class="cls-14" d="M95.86,87.94s-.22-5.28-2.28-5.89A4,4,0,0,1,96.8,85s1.23-1.83,1.11-2.94c0,0,2.06.83.62,4.11a4.24,4.24,0,0,1,2.16,4.5A5.17,5.17,0,0,0,95.86,87.94Z"></path>
      <path class="cls-15" d="M101.3,85.7a13.19,13.19,0,0,0,4.38.36.48.48,0,0,0,.48-.47.47.47,0,0,0-.48-.48,12.48,12.48,0,0,1-4.13-.33.48.48,0,0,0-.25.92Z"></path>
      <path class="cls-13" d="M105.47,141.52c5.66-1.45,10.51-4.16,17.57-1.91"></path>
      <circle class="cls-16" cx="79.54" cy="68.12" r="7.5"></circle>
      <path class="cls-17" d="M85.68,63.86c2.06,5,1.48,6.3-.89,7.67s-5.72,0-7.45-3S75.77,61,78.5,60.64C80.48,60.42,84.36,60.65,85.68,63.86Z"></path>
      <circle class="cls-17" cx="96.39" cy="74.67" r="7.01"></circle>
      <circle class="cls-16" cx="69.57" cy="53.49" r="4.67"></circle>
      <circle class="cls-17" cx="63.81" cy="66.33" r="5.27"></circle>
      <circle class="cls-16" cx="71.57" cy="76.68" r="3.65"></circle>
      <circle class="cls-16" cx="90.74" cy="91.22" r="8.18"></circle>
      <path class="cls-17" d="M98.78,89.66c.15,3.59-3.43,5.8-7.51,5.8s-7.88-4-7.51-7.43c.29-2.67,3.31-4.86,7.38-4.86S98.67,87,98.78,89.66Z"></path>
      <ellipse class="cls-17" cx="70.48" cy="102.32" rx="7.49" ry="7.01"></ellipse>
      <circle class="cls-17" cx="95.06" cy="112.66" r="9.99"></circle>
      <path class="cls-12" d="M103.94,144s1.24-16.41-6.14-27.73c-.5-.77-3.08-13.19-8.25-3.52,0,0-8.59-.58-10.17,0s-3.26,8.58,3.67,9.42,7.53.67,8.18,1.5c0,0-3.85,3.08.82,4.09S101,136.2,103.94,144Z"></path>
      <circle class="cls-16" cx="74.18" cy="123.32" r="11.7"></circle>
      <path class="cls-17" d="M85.88,123.32c-.43,6-2.09,7.68-6,9.11-3.53,1.3-10.65-3.61-11.82-9.11a12.24,12.24,0,0,1,3.39-10.94C74.3,109.82,86.59,113.41,85.88,123.32Z"></path>
      <path class="cls-14" d="M76.74,110.72s-4.95-3.43-7.17,2.07c0,0,1.11-2.12,4-.61,0,0,4.06,3.78,6.61,4.55,0,0-2.11-2.83-1.44-3.94,0,0,5.44-1.24,6.39-2.07C85.13,110.72,79.9,110,76.74,110.72Z"></path>
      <path class="cls-12" d="M111.09,134.8s7.31-11.09-.61-22.51-8.76-14.18-8.76-14.18-.92-1.75-.58,1.42,2.42,5,1.5,5.67-2,.51-1.57,2.8,5,3.7,5.4,4.37-1.25.42-1.5,1.33-1.88,1.09,4,5.42S111.09,134.8,111.09,134.8Z"></path>
      <circle class="cls-16" cx="95.31" cy="175.96" r="7.22"></circle>
      <path class="cls-17" d="M72,172.57c0,4.38,3.85,9.5,7.93,7.93s7.93-3.55,7.93-7.93a7.93,7.93,0,0,0-15.86,0Z"></path>
      <ellipse class="cls-16" cx="73.79" cy="160.75" rx="8.91" ry="7.39" transform="matrix(0.79, -0.61, 0.61, 0.79, -83.13, 79.13)"></ellipse>
      <circle class="cls-16" cx="99.06" cy="154.24" r="13"></circle>
      <path class="cls-14" d="M93.69,143.64c0-.17,1-5.36,2.72-5.38a5.42,5.42,0,0,0-5,4.38S89,140.69,89,138.75a7.47,7.47,0,0,0-.39,5.82s-3.06,1-3.56,6.68c0,0,4.56-3.83,5.67-4S93.69,143.64,93.69,143.64Z"></path>
      <path class="cls-14" d="M82.63,165.19a22,22,0,0,0,.33-3.13c-.08-.2,2.11,2.26,2.11,2.26a4.13,4.13,0,0,1,4-1.67s-1.79,1.25-2,2.12L89.72,166,88,167.23S82.4,166.44,82.63,165.19Z"></path>
      <path class="cls-17" d="M89.77,150.46a9.25,9.25,0,0,1,9.29-9.22c5.86,0,11.91,4.87,11.91,9.22s-2.3,9.56-8.15,9.56S89.77,154.8,89.77,150.46Z"></path>
      <path class="cls-14" d="M73.57,71.85a1.7,1.7,0,0,1-2.67-.56s.06,1.78,1.17,1.84a1.74,1.74,0,0,0,1.28.55,2.17,2.17,0,0,0,2.39,0S72.85,73.46,73.57,71.85Z"></path>
      <path class="cls-14" d="M67.15,61.63s2.45-.73,2.61,0c0,0-1.55-.11-1.61.44,0,0-.56.56,0,.89s1.89,1.67,2.61,1.67a2.8,2.8,0,0,1-3-.78s-2.39-.22-1.94-1.5a3.37,3.37,0,0,1-.39-3.45S66.26,62.63,67.15,61.63Z"></path>
      <path class="cls-15" d="M74.49,212.41a10,10,0,0,1,4.43,1.4,6,6,0,0,1,1.7,1.67,14.83,14.83,0,0,1,1.12,2.06A11.49,11.49,0,0,0,84.47,221a31.82,31.82,0,0,0,3.46,2.88.6.6,0,0,1,.14.85.61.61,0,0,1-.85.14l0,0a34.12,34.12,0,0,1-3.41-3.17,13.38,13.38,0,0,1-2.7-3.84,7.42,7.42,0,0,0-2.47-3.59,9.58,9.58,0,0,0-4.17-1.48.19.19,0,0,1,0-.37Z"></path>
      <path class="cls-15" d="M94.34,232.67A7.76,7.76,0,0,0,90,235.93a16.48,16.48,0,0,0-1.83,5.3l-1.26-.31a17.58,17.58,0,0,1,2.25-5.55,8.63,8.63,0,0,1,5-3.39Z"></path>
    </g>
  </g>
</svg>
