<?xml version="1.0" encoding="UTF-8"?>
<svg xmlns="http://www.w3.org/2000/svg" viewBox="0 0 106.86 287.64">
  <defs>
    <style>.cls-1{fill:#a29274;}.cls-2{fill:#e3e0c9;}.cls-3{fill:#fcedce;}.cls-4{fill:#bda885;}.cls-5{fill:#d0c5a6;}.cls-6{fill:#8f8267;}.cls-7{fill:#ab967a;opacity:0.25;}.cls-8{fill:#9b8d71;}.cls-9{fill:#7c705b;}.cls-10{fill:#cacac9;}.cls-11{fill:#817870;}.cls-12{fill:#769e59;}.cls-13{fill:#f2d95a;}.cls-14,.cls-16{fill:none;stroke-miterlimit:10;}.cls-14{stroke:#769e59;stroke-width:0.59px;}.cls-15{fill:#79a05b;}.cls-16{stroke:#79a05b;stroke-width:1.32px;}.cls-17{fill:#486f3a;}</style>
  </defs>
  <g id="Слой_2" data-name="Слой 2">
    <g id="Слой_1-2" data-name="Слой 1">
      <polygon class="cls-1" points="48.99 223.28 97.83 202.48 90.51 258.73 48.99 287.64 48.99 223.28"></polygon>
      <polygon class="cls-2" points="48.99 188.42 97.83 202.48 48.99 223.28 0 202.48 48.99 188.42"></polygon>
      <polygon class="cls-3" points="48.99 188.42 0 202.48 0.86 202.84 97.38 202.35 48.99 188.42"></polygon>
      <polygon class="cls-4" points="7.33 258.73 0 202.48 48.99 223.28 48.99 287.64 7.33 258.73"></polygon>
      <path class="cls-5" d="M30.79,203.17a28.27,28.27,0,0,1,2.31-2.47,23.64,23.64,0,0,1,2.7-2.08,26.88,26.88,0,0,1,6.12-3,31.07,31.07,0,0,1,6.66-1.39c1.13-.14,2.26-.12,3.39-.18s2.25.1,3.37.2c-1.12.13-2.24.17-3.35.29s-2.22.23-3.31.45-2.18.37-3.25.68-2.13.58-3.19.9a36.18,36.18,0,0,0-6,2.68A33.57,33.57,0,0,0,30.79,203.17Z"></path>
      <path class="cls-5" d="M22.44,205.15a6.13,6.13,0,0,0,1.93.38,16.71,16.71,0,0,0,2,.07,29.4,29.4,0,0,0,4-.34c2.64-.37,5.24-1,7.91-1.63a22.83,22.83,0,0,1-7.77,2.62,17.92,17.92,0,0,1-4.14.13,10.88,10.88,0,0,1-2.05-.37c-.34-.1-.67-.21-1-.34A2.3,2.3,0,0,1,22.44,205.15Z"></path>
      <path class="cls-5" d="M56.15,217.13a37.07,37.07,0,0,1,4.62-5.84,35.34,35.34,0,0,1,5.68-4.88,25.92,25.92,0,0,1,6.72-3.35c.6-.19,1.23-.3,1.84-.45a9.58,9.58,0,0,1,1.86-.26,16.58,16.58,0,0,1,3.73.12,21.49,21.49,0,0,0-7.18,1.32A32.18,32.18,0,0,0,67,207.23a50.17,50.17,0,0,0-5.7,4.61c-.92.82-1.79,1.69-2.64,2.58S57,216.2,56.15,217.13Z"></path>
      <polygon class="cls-6" points="48.99 223.28 97.83 202.48 90.51 258.73 48.99 287.64 48.99 223.28"></polygon>
      <polygon class="cls-7" points="7.33 258.73 0 202.48 48.99 223.28 48.99 287.64 7.33 258.73"></polygon>
      <polygon class="cls-8" points="48.99 287.64 7.33 258.73 49.18 242.91 90.51 258.73 48.99 287.64"></polygon>
      <path class="cls-9" d="M16.18,234a15,15,0,0,1-1.26-8.16,12.92,12.92,0,0,1,3.61-7.55A18,18,0,0,1,25.72,214a30.7,30.7,0,0,1,8.15-1.46c-.68.16-1.35.3-2,.43s-1.33.33-2,.5-1.31.38-2,.56-1.28.45-1.91.69A19.57,19.57,0,0,0,19.24,219a13.24,13.24,0,0,0-3.57,7,18.09,18.09,0,0,0,.51,8Z"></path>
      <path class="cls-9" d="M61.7,233.22c.13.21.41.28.62.39s.46.2.7.29c.47.18.94.34,1.42.49,1,.32,1.92.6,2.89.87,1.93.52,3.88,1,5.85,1.38,3.93.82,7.91,1.33,11.94,1.8A44.24,44.24,0,0,1,73,237.62,43.16,43.16,0,0,1,67.09,236c-1-.34-1.9-.72-2.83-1.15-.46-.23-.91-.46-1.36-.71A3.3,3.3,0,0,1,61.7,233.22Z"></path>
      <path class="cls-9" d="M35.46,230.29a35.67,35.67,0,0,1-3.24,10.79,30.81,30.81,0,0,1-2.94,4.86,18.77,18.77,0,0,1-4.07,3.94,32.48,32.48,0,0,0,3.43-4.39,51.78,51.78,0,0,0,2.68-4.84c.81-1.66,1.52-3.38,2.21-5.1S34.86,232.07,35.46,230.29Z"></path>
      <path class="cls-9" d="M50.61,275.05c2-1,4.07-1.73,6.07-2.62s4-1.76,5.94-2.77a40.14,40.14,0,0,0,5.52-3.44,18.39,18.39,0,0,0,2.41-2.17c.35-.41.72-.81,1.06-1.24s.58-.93.88-1.39c-.21.51-.42,1-.66,1.53s-.6.94-.9,1.42a18.3,18.3,0,0,1-2.3,2.44,28.43,28.43,0,0,1-5.55,3.74,49.07,49.07,0,0,1-6.12,2.6c-1.05.36-2.1.7-3.16,1Z"></path>
      <path class="cls-9" d="M27.7,268.88a10.27,10.27,0,0,1-5.45-5.1,4.64,4.64,0,0,1,.32-3.93A9.19,9.19,0,0,1,25.22,257,25.54,25.54,0,0,1,32,253.64a51.94,51.94,0,0,1,7.23-1.89c-1.16.46-2.35.8-3.5,1.28s-2.31.86-3.46,1.33a31.2,31.2,0,0,0-6.43,3.44,8.41,8.41,0,0,0-2.43,2.51,4,4,0,0,0-.42,3.23,7.44,7.44,0,0,0,1.9,3A16.49,16.49,0,0,0,27.7,268.88Z"></path>
      <path class="cls-9" d="M72.49,232.09l3.64-5c1.2-1.68,2.37-3.36,3.48-5.09a49.88,49.88,0,0,0,3.06-5.3,17.23,17.23,0,0,0,1.93-5.78,13.15,13.15,0,0,1-1.21,6.1,34.43,34.43,0,0,1-2.94,5.53A51.71,51.71,0,0,1,72.49,232.09Z"></path>
      <path class="cls-10" d="M48.63,213.05c-3.16,3.65-8.68,7.6-6.44,13.14.25.61,1.24.34,1-.27-2.09-5.14,3.26-8.78,6.16-12.14.44-.5-.29-1.23-.72-.73Z"></path>
      <path class="cls-10" d="M50.43,216.22c-3.41,2-7.49,2.49-10.87,4.55s-4.43,5.18-5.41,8.67a.51.51,0,0,0,1,.28c1.31-4.67,3.27-7.7,7.94-9.44,2.68-1,5.4-1.69,7.87-3.17a.52.52,0,0,0-.52-.89Z"></path>
      <path class="cls-10" d="M49.49,218.2c-1.53,3.43-3.1,6.84-4.59,10.28-1,2.35-1.76,4.5-1.41,7.07.09.65,1.09.38,1-.27-.49-3.5,1.47-6.65,2.83-9.71l3.06-6.85c.27-.6-.62-1.12-.89-.52Z"></path>
      <path class="cls-10" d="M48.91,220.61c-.55,2.64-1.19,4.78-3.33,6.58-1.45,1.22-3,2-4.27,3.46A14,14,0,0,0,38,238.41c-.08.66,1,.65,1,0,.6-5.09,3.47-7.42,7.22-10.4,2.32-1.84,3-4.32,3.61-7.13.14-.64-.85-.92-1-.27Z"></path>
      <path class="cls-10" d="M45.71,227.22c-4,2.31-8,4.57-11.94,6.93a11.77,11.77,0,0,0-5.41,5.94l1,.14.07-1c0-.66-1-.66-1,0l-.07,1c0,.62.81.63,1,.13,1.54-3.78,4.92-5.32,8.24-7.24l8.64-5a.52.52,0,0,0-.52-.89Z"></path>
      <path class="cls-10" d="M37.93,231.51c-2.19.52-5.57-.62-7,1.75-1.59,2.59,1.73,6,.07,8.52a.51.51,0,0,0,.08.62l.07.09a.52.52,0,0,0,.5.14l.14,0a.52.52,0,0,0,.22-.86l0,0c-.5-.42-1.23.3-.72.73l0,0,.22-.86c.9-.26.3.86.75.08a4.74,4.74,0,0,0,.07-1.54,15.42,15.42,0,0,0-.45-3.24c-.2-.91-.4-2.6.16-3.4s1.74-.75,2.48-.79a19,19,0,0,0,3.7-.2c.64-.15.37-1.14-.27-1Z"></path>
      <path class="cls-10" d="M32.54,231.25A16.84,16.84,0,0,0,26,230.2c-.66,0-.67,1.06,0,1a16.21,16.21,0,0,1,6.28,1c.62.23.89-.76.27-1Z"></path>
      <path class="cls-10" d="M30.08,234.66c-1.42,2-4.47,4.87-3.17,7.55.29.59,1.18.07.89-.52-.63-1.28.37-2.6,1.08-3.6L31,235.18c.39-.54-.5-1.05-.89-.52Z"></path>
      <path class="cls-10" d="M50,219.19a6.76,6.76,0,0,1-1.29,6c-.74.93-1.77,1.54-2.46,2.51-1.33,1.89-1.18,4.3-1,6.5l.65-.5-1-.2c-.64-.14-.92.86-.27,1l1,.2a.51.51,0,0,0,.65-.49c-.15-1.83-.37-4,.61-5.64.75-1.24,2.12-1.94,3-3.12A7.91,7.91,0,0,0,51,218.92c-.15-.65-1.14-.38-1,.27Z"></path>
      <path class="cls-10" d="M50.42,226.05a25.44,25.44,0,0,1-1.25,9.3c-.84,2.21-1.86,4.14-1.9,6.56a.52.52,0,0,0,1,0c.05-3,1.78-5.4,2.51-8.22a30.6,30.6,0,0,0,.64-7.64.52.52,0,0,0-1,0Z"></path>
      <path class="cls-10" d="M38.82,252.43c2.09-5.55,5.81-8.57,10.32-12.11a14.24,14.24,0,0,0,5.69-8.87c.12-.64-.87-.92-1-.27-1.11,5.76-5.3,8-9.44,11.45a22.43,22.43,0,0,0-6.57,9.53c-.23.62.76.88,1,.27Z"></path>
      <path class="cls-10" d="M36.41,249c.16-1.71-.2-5.25,1.75-5.8a16.64,16.64,0,0,1,3-.24l3.34-.25c.66,0,.66-1.08,0-1l-5.34.41c-.81.06-2-.05-2.67.5a2.27,2.27,0,0,0-.66,1.6c-.22,1.59-.3,3.21-.45,4.81-.06.66,1,.66,1,0Z"></path>
      <path class="cls-10" d="M34.24,247.5a10.09,10.09,0,0,0,2.49-3.27c.29-.6-.6-1.12-.88-.52a9.47,9.47,0,0,1-2.34,3.06c-.5.44.23,1.16.73.73Z"></path>
      <path class="cls-10" d="M36.76,255.42c4.11.61,10.09,2.62,12.88-1.7,1.32-2.06,1.37-4.82,1.78-7.15a60.14,60.14,0,0,1,3.5-12.06c.24-.62-.75-.88-1-.28a64.39,64.39,0,0,0-3.74,13.62c-.25,1.55-.34,4.13-1.43,5.35-1.88,2.1-5.4,2.14-7.84,1.81-1.3-.18-2.59-.39-3.88-.58-.64-.1-.92.89-.27,1Z"></path>
      <path class="cls-10" d="M45.75,251.81a60.34,60.34,0,0,1,5.89-7.17c.46-.47-.26-1.2-.72-.72a62,62,0,0,0-6.06,7.37c-.38.54.51,1.06.89.52Z"></path>
      <path class="cls-10" d="M39.38,260.58a3.66,3.66,0,0,1,2.6-4.73c.64-.15.37-1.14-.28-1a4.68,4.68,0,0,0-3.31,6c.22.62,1.21.36,1-.27Z"></path>
      <path class="cls-10" d="M45.18,264.06c1.19-3.36,3.5-5.54,5-8.62s1.59-6.4,3-9.45c.28-.59-.61-1.12-.88-.51-1.73,3.75-2,7.87-4.33,11.31a30,30,0,0,0-3.76,7c-.22.63.77.9,1,.28Z"></path>
      <path class="cls-10" d="M49.89,214.58a6.69,6.69,0,0,0,7.65,6.29c.66-.1.38-1.09-.27-1a5.66,5.66,0,0,1-6.35-5.3c0-.66-1.05-.66-1,0Z"></path>
      <path class="cls-10" d="M50.5,219.53c1.25,2.76,4.44,3.06,7.12,3.67,5.39,1.22,10.67,2.35,15.48,5.22a.52.52,0,0,0,.52-.89,37.25,37.25,0,0,0-9.82-4c-3.2-.84-10.81-1-12.41-4.56-.27-.6-1.16-.08-.89.52Z"></path>
      <path class="cls-10" d="M54.86,222.91c1.66,1.09,3.43,1.2,5.35,1.42,3.37.39,5.57,2.18,7.89,4.53a.52.52,0,0,0,.73-.73A16.84,16.84,0,0,0,63.42,224c-2.63-1-5.61-.37-8.05-2-.55-.36-1.07.53-.51.89Z"></path>
      <path class="cls-10" d="M62.77,224.86a9.89,9.89,0,0,0,6.56,9.61c.62.23.89-.77.27-1a8.86,8.86,0,0,1-5.8-8.62c0-.66-1-.66-1,0Z"></path>
      <path class="cls-10" d="M54.3,224.11c4.62,4.9,8,13.62,16.06,12.9.65,0,.66-1.08,0-1-7.71.69-10.9-7.9-15.33-12.6-.45-.48-1.18.25-.73.73Z"></path>
      <path class="cls-10" d="M53.89,226.56c5.11,3.19,10.34,7.45,16.34,8.73.65.13.92-.86.28-1-5.84-1.23-11.12-5.51-16.1-8.62-.56-.35-1.08.54-.52.89Z"></path>
      <path class="cls-10" d="M52.92,227.21a26.05,26.05,0,0,0,1.83,7.41,34.24,34.24,0,0,1,1.89,9.93c0,.66,1,.66,1,0a33,33,0,0,0-1.14-7.78c-.91-3.22-2.41-6.15-2.58-9.56,0-.66-1.07-.66-1,0Z"></path>
      <path class="cls-10" d="M51.55,229.29c3.25,5.16,10.67,5.85,13.25,11.49.27.6,1.16.07.89-.52-2.62-5.73-10-6.34-13.25-11.49-.36-.56-1.25-.05-.89.52Z"></path>
      <path class="cls-10" d="M53.36,238.64c1.44,2.82,4.48,3.06,7.37,3.53,4.73.76,11.76.14,15.54,3.25.5.42,1.24-.31.73-.73-2-1.62-4-2.05-6.56-2.33-3.83-.43-14.06,0-16.19-4.24-.3-.59-1.19-.07-.89.52Z"></path>
      <path class="cls-10" d="M63.93,242.76a27.53,27.53,0,0,1,5.15,10.49.51.51,0,0,0,1-.28A28.61,28.61,0,0,0,64.66,242c-.42-.52-1.14.21-.73.72Z"></path>
      <path class="cls-10" d="M52.33,239.09c3.11,4.32,5.53,8.46,6.33,13.82a142.24,142.24,0,0,1,1.28,15.43c0,.66,1.06.66,1,0A134.23,134.23,0,0,0,59.56,252c-.85-5.16-3.33-9.19-6.34-13.38-.39-.53-1.28,0-.89.52Z"></path>
      <path class="cls-10" d="M52.6,238.68A242.87,242.87,0,0,1,51.22,269c-.07.66,1,.65,1,0a242.87,242.87,0,0,0,1.38-30.27.52.52,0,0,0-1,0Z"></path>
      <path class="cls-10" d="M59.45,254.78a14.76,14.76,0,0,1,5.39,8.12.52.52,0,0,0,1-.27A15.94,15.94,0,0,0,60,253.89c-.53-.4-1,.49-.52.89Z"></path>
      <path class="cls-10" d="M59.12,254.31A12.62,12.62,0,0,0,67.41,258c.66,0,.66-1,0-1a11.51,11.51,0,0,1-7.56-3.42.52.52,0,0,0-.73.73Z"></path>
      <path class="cls-10" d="M49.62,211.94l.13,7.64a.52.52,0,0,0,1,0l-.13-7.64a.52.52,0,0,0-1,0Z"></path>
      <path class="cls-10" d="M50.15,209c-2.93,4.64-.24,10.2-1.48,15.26a.51.51,0,0,0,1,.27c1.2-4.88-1.41-10.59,1.38-15,.35-.56-.53-1.08-.89-.52Z"></path>
      <path class="cls-10" d="M50.87,220.66a21.16,21.16,0,0,1,1.28,8c0,.66,1,.66,1,0a21.59,21.59,0,0,0-1.31-8.31c-.22-.62-1.22-.35-1,.27Z"></path>
      <path class="cls-10" d="M50.15,221.93v7.34a.52.52,0,0,0,1,0v-7.34a.52.52,0,0,0-1,0Z"></path>
      <path class="cls-10" d="M52,223.4l-.29,5.42c-.1,1.79,0,3.82-1,5.33-.39.54.5,1.06.89.52a7.32,7.32,0,0,0,1.09-4.18c.14-2.36.26-4.73.39-7.09,0-.66-1-.66-1,0Z"></path>
      <path class="cls-10" d="M51.31,228.54a25.65,25.65,0,0,1-2.79,8.73c-.32.58.57,1.1.88.52a26.61,26.61,0,0,0,2.91-9c.08-.65-.91-.93-1-.28Z"></path>
      <path class="cls-10" d="M50.69,223.25l1.06,7c.1.65,1.09.38,1-.27l-1.06-7c-.1-.66-1.09-.38-1,.27Z"></path>
      <path class="cls-10" d="M50.68,220.46a50,50,0,0,0,1.1,8,.52.52,0,0,0,1,0l.21-1.09c.13-.65-.86-.93-1-.28l-.21,1.1h1a49.09,49.09,0,0,1-1.06-7.72c0-.66-1.07-.66-1,0Z"></path>
      <path class="cls-10" d="M51.86,222.23a17.25,17.25,0,0,0,1.37,5,.51.51,0,0,0,.81.1,3.41,3.41,0,0,0,.89-3c-.08-.47-.72-.45-.94-.12l-.68,1,.94.12-1.14-3.92a.52.52,0,0,0-1,0,9.57,9.57,0,0,0-.07,3.5c.08.49.71.42.94.12a4.31,4.31,0,0,0,.93-3l-1,.13.42,2.24c.11.6,1,.41,1-.14a7.59,7.59,0,0,0-1.77-5.36c-.42-.52-1.14.22-.73.73a6.44,6.44,0,0,1,1.47,4.63l1-.13-.42-2.24c-.11-.57-1-.44-1,.14a3.5,3.5,0,0,1-.78,2.45l.93.12a7.91,7.91,0,0,1,.07-2.95h-1l1.14,3.92a.52.52,0,0,0,.94.13l.67-1-.94-.13a2.11,2.11,0,0,1-.62,2l.81.1a15.34,15.34,0,0,1-1.23-4.45c-.08-.65-1.11-.66-1,0Z"></path>
      <path class="cls-10" d="M52.45,231.35a32,32,0,0,1-.47,8.84l1,.14-.05-.77c0-.66-1.07-.67-1,0l0,.77c0,.55.9.74,1,.14a32.82,32.82,0,0,0,.5-9.12c0-.65-1.08-.66-1,0Z"></path>
      <path class="cls-10" d="M51.56,230.16a156.84,156.84,0,0,1-.39,18.4c-.05.61.83.66,1,.14l1.87-5.5c.21-.63-.78-.9-1-.28l-1.86,5.51,1,.13a159,159,0,0,0,.39-18.4c0-.66-1.05-.66-1,0Z"></path>
      <path class="cls-10" d="M51.43,233.7a6,6,0,0,1-.43,3c-.26.6.62,1.12.88.51a6.76,6.76,0,0,0,.57-3.55c-.07-.65-1.09-.66-1,0Z"></path>
      <path class="cls-10" d="M53.39,232.5a33.48,33.48,0,0,0,1.12,9,.51.51,0,0,0,1-.27,32.73,32.73,0,0,1-1.08-8.7.52.52,0,0,0-1,0Z"></path>
      <path class="cls-10" d="M53.18,239.74a16.62,16.62,0,0,0-.77,5.56.52.52,0,0,0,1,.13,24.15,24.15,0,0,0,.1-17c-.22-.62-1.21-.35-1,.27a23.33,23.33,0,0,1-.1,16.46l1,.14a16,16,0,0,1,.73-5.29c.2-.63-.79-.9-1-.27Z"></path>
      <path class="cls-10" d="M52,228l-.4,2.28a.52.52,0,0,0,1,.28,7.22,7.22,0,0,0,.33-2.73c0-.65-1.07-.66-1,0a6.33,6.33,0,0,1-.3,2.45l1,.28.39-2.28c.11-.65-.88-.93-1-.28Z"></path>
      <path class="cls-10" d="M49.9,217.36a22.28,22.28,0,0,0,2,4.45.52.52,0,0,0,1-.26,8.62,8.62,0,0,0-.44-3.67.53.53,0,0,0-.76-.31,5.91,5.91,0,0,0-3.33,5.56.52.52,0,0,0,.77.44,3.11,3.11,0,0,0,1.65-2A.53.53,0,0,0,50,221a5,5,0,0,0-1.61,1.48l.94.4a29.46,29.46,0,0,0,.36-6.22c0-.66-1.06-.66-1,0a28.23,28.23,0,0,1-.32,6,.52.52,0,0,0,.94.39,3.88,3.88,0,0,1,1.24-1.11l-.76-.58a2.14,2.14,0,0,1-1.17,1.39l.78.45a4.88,4.88,0,0,1,2.82-4.67l-.76-.31a7.86,7.86,0,0,1,.41,3.4l1-.26a20.5,20.5,0,0,1-1.92-4.21c-.21-.62-1.2-.35-1,.28Z"></path>
      <polygon class="cls-3" points="0.86 202.84 48.99 223.28 97.83 202.48 97.38 202.35 0.86 202.84"></polygon>
      <ellipse class="cls-1" cx="50.53" cy="203.46" rx="11.28" ry="4.41"></ellipse>
      <ellipse class="cls-11" cx="50.82" cy="204.95" rx="9.3" ry="3.64"></ellipse>
      <path class="cls-12" d="M46.21,145.76c1.91-2.42,5-2.08,6.86.2.42.51,1.14-.22.73-.73-2.21-2.68-6.08-3-8.32-.19-.4.51.32,1.24.73.72Z"></path>
      <path class="cls-13" d="M51.7,127.3a2,2,0,0,0,.86-2s-.07-.26-.4,0a3.76,3.76,0,0,0-.19-.76c-.08-.13-.43.24-.65,1,0,0-.53-.93-1.25-.81a1.49,1.49,0,0,0,.36,1.29s-1,.07-1.07.81C49.36,126.78,49.43,127.35,51.7,127.3Z"></path>
      <path class="cls-12" d="M63,98.89s-8-.49-10.87,5.59-2.74,11.94,1.27,17.13c0,0,1.18,1.28,1.37,0s1.47-2.35,1.81-2.15,4.26,5.38,17.58,5.58c0,0,1.47.78.88-1.18s-2.17-3.52.14-2.35,12.5,4,13.38,4.12,1.66.19,1.47-2.06-1.47-15.77-4.61-20.17c0,0-1.07-.69.59-1.67s2.84-1.88,1.57-2.85S84.36,95,76.33,92.43c0,0-1.47,0-.4-1.27s3.73-3.63-.19-2.94-10.87.88-15.38,5.09A1.71,1.71,0,0,0,60,95.86a13.35,13.35,0,0,0,4,2.74Z"></path>
      <path class="cls-12" d="M84.58,140.17S83.26,130.48,74,131.8s-9.92,9-9.7,10.8-.66,12.56,15.86,20.05,18.07,9.69,18.07,9.69-1.1-1.1,0-3.3,6.17-9.48,6.83-11,6-14.32-5.51-19.83-11.67-2-11.67-2A4.25,4.25,0,0,1,84.58,140.17Z"></path>
      <path class="cls-12" d="M80.19,46.31s4,2,5.88,1.61,6.61-2.73,8.67-.77a6.23,6.23,0,0,1,2.05,4.15s5.88-5.43,2.5-11.31c0,0,1.32-1.62,2.5,0,0,0,1.82-8.67-11.72-12.49,0,0-1.87-.95.19-1.32s1.17-.44,1.17-.44-6-2.42-7.12-2.64-6.91-1.91-9,.59-1.55,6-1.62,6.39-5.14-2.72-8.81.88,2.13,12.12,2.13,12.12,1.69.22,2.2-2.21.74-.07,1,.15,4.55,5.14,6.75,5.87,2.28,1.18,2.65,1.11S80.19,46.31,80.19,46.31Z"></path>
      <path class="cls-12" d="M62.42,22.34s.51-.71,0-1.22.81-1.69,3-1.55,9.33-.88,10.8.66c0,0,.44-5.5-2-9,0,0-1.84-2.86.66-2.57,0,0-2.5-3.89-6.47-4.55s-9.54-.73-5.73-2.86c0,0-3.37-3.53-10.64,1.1s-3.82,11.45-1.4,12.7c0,0-5.58,3.16-6,5.22s-.66,4.4,7.79,3.89S62.42,22.34,62.42,22.34Z"></path>
      <path class="cls-12" d="M38.23,61s-9.79-2.94-15-.49-8,6.17-6.07,13.22c0,0-2.84,13.31,6.17,20.07,0,0,.78,1,1.08-2s5.46-8.42,6.2-9.2a6.52,6.52,0,0,0,1.14-2.45S40,79.5,42.44,81.27c0,0,.3.88.79-1.28s1.86-8.12,7-7.93-2.88-9-5.6-8.62C44.58,63.44,36.27,68.73,38.23,61Z"></path>
      <path class="cls-12" d="M58.45,166.17A6.65,6.65,0,0,0,54.19,169c-1.76,2.5-6,5.29-20,4.85,0,0-7-.59-6.74,6.31,0,0-9.77-16.58-10.9-19.41-.87-2.16-1.21-15.24,11.82-13.6A12.73,12.73,0,0,1,38.47,154a7.27,7.27,0,0,1,.74,2.6c.3,4,2.35.88,2.35.88S54.34,151,58.45,166.17Z"></path>
      <path class="cls-14" d="M58.07,41.48c-.37-3.12-.63-6.64,1.39-9A7.78,7.78,0,0,1,64.17,30a23.3,23.3,0,0,1,5.41-.06"></path>
      <path class="cls-12" d="M54.79,36.69C51.65,32,47,27.38,49.33,21.26c.12-.31-.38-.44-.5-.13-2.4,6.27,2.27,11,5.52,15.82.18.27.63,0,.44-.26Z"></path>
      <path class="cls-12" d="M46.89,30.38A34.94,34.94,0,0,1,52,33.8,16.86,16.86,0,0,1,54.21,36c.68.77,1.34,1.56,2,2.36A48,48,0,0,1,62.82,48.8,23.27,23.27,0,0,1,64.9,61a23.16,23.16,0,0,1-1.66,6.07,33.6,33.6,0,0,1-3.06,5.47c-4.71,6.93-11.39,12.06-15.92,18.7a28.07,28.07,0,0,0-4.61,10.87A33.93,33.93,0,0,0,39.57,114a40.63,40.63,0,0,0,3.68,11.31,77.67,77.67,0,0,0,6.4,10.25c2.35,3.34,4.8,6.69,6.94,10.3a54.37,54.37,0,0,1,5.17,11.57,42.12,42.12,0,0,1,1.89,12.66,35.85,35.85,0,0,1-2.53,12.63c-.73,2-1.54,3.88-2.28,5.75s-1.41,3.75-2,5.66a80.85,80.85,0,0,0-2.73,11.66,2.2,2.2,0,1,1-4.35-.68v0a83.87,83.87,0,0,1,3.12-12.22c.67-2,1.42-4,2.23-5.9s1.64-3.78,2.38-5.63A31.91,31.91,0,0,0,60,170a38.28,38.28,0,0,0-1.5-11.61,54.16,54.16,0,0,0-2-5.61,57.69,57.69,0,0,0-2.64-5.35c-2-3.48-4.31-6.82-6.61-10.23a81.16,81.16,0,0,1-6.38-10.75,42.79,42.79,0,0,1-3.66-12.09,36,36,0,0,1,.34-12.63,30.28,30.28,0,0,1,5.16-11.51c4.92-6.85,11.66-11.79,16.34-18.41A24.75,24.75,0,0,0,63.82,60.9a22.24,22.24,0,0,0-1.76-11.77,46.85,46.85,0,0,0-6.32-10.41c-.62-.81-1.26-1.61-1.92-2.39a23,23,0,0,0-2-2.26A34.62,34.62,0,0,0,46.89,30.38Z"></path>
      <path class="cls-15" d="M60.71,155a47.89,47.89,0,0,1-.79-10.42c.35-4.8,3.81-7.3,8.22-8.46a.51.51,0,0,0-.27-1c-3.29.87-6.69,2.52-8.19,5.77-1.91,4.14-.62,10.06,0,14.37.1.65,1.09.38,1-.27Z"></path>
      <path class="cls-15" d="M39.43,117.49c.53-7.25,3.19-14,10.32-17,6-2.51,12.52-1.82,18.8-1.14.65.07.65-1,0-1-7.63-.82-16.16-1.61-22.76,3.14-5.2,3.75-6.94,9.9-7.39,16,0,.66,1,.66,1,0Z"></path>
      <path class="cls-15" d="M48.08,86.09c9.32-1.86,17.24-6.83,25.07-12,.56-.36,0-1.25-.51-.88-7.77,5.11-15.58,10-24.83,11.88-.65.13-.38,1.12.27,1Z"></path>
      <path class="cls-16" d="M37.09,69.06a6.47,6.47,0,0,1,1.83-2.64c3-3.06,6.58-6,10.84-6.63a10.38,10.38,0,0,1,8.56,2.4,8.16,8.16,0,0,1,2.3,8.39"></path>
      <path class="cls-12" d="M70.33,70.09a9,9,0,0,1-2.76,6.6c-.23.23.13.59.37.36a9.58,9.58,0,0,0,2.9-7,.26.26,0,0,0-.51,0Z"></path>
      <path class="cls-15" d="M51.35,168.57c.59,2.66,2,5,2.86,7.58a40.6,40.6,0,0,1,1.91,9.06c.06.65,1.09.66,1,0A41.67,41.67,0,0,0,55.56,177c-.91-2.95-2.55-5.7-3.22-8.7-.15-.64-1.14-.37-1,.27Z"></path>
      <path class="cls-14" d="M56.09,38.64a2.95,2.95,0,0,0-4.81,3.17"></path>
      <path class="cls-15" d="M68.61,76.28a12.87,12.87,0,0,0,2.55.51,3.51,3.51,0,0,1,1.44.62,4.34,4.34,0,0,1,1,1.18c.93,1.57,1.87,3.11,2.9,4.6a37.53,37.53,0,0,0,7.16,8.08,22.77,22.77,0,0,0,4.54,2.91c1.62.73,3.35,1.54,5.13,1.4a3.28,3.28,0,0,0,2.28-1.18,2.15,2.15,0,0,0,.1-2.47,1.46,1.46,0,0,0-1.08-.66,1.64,1.64,0,0,0-1.23.4A1.13,1.13,0,0,0,93,92.86c.13.41.59.82,1,.62-.45.22-.93-.19-1.07-.61a1.2,1.2,0,0,1,.39-1.25,1.79,1.79,0,0,1,1.29-.45,1.56,1.56,0,0,1,1.18.69,2.32,2.32,0,0,1,0,2.65,3.47,3.47,0,0,1-2.41,1.32,6.74,6.74,0,0,1-2.75-.32,21.57,21.57,0,0,1-2.57-1,22.8,22.8,0,0,1-4.7-2.86,38.21,38.21,0,0,1-7.47-8c-1.07-1.49-2.08-3-3-4.57a3.22,3.22,0,0,0-.76-.92A2.51,2.51,0,0,0,71,77.73a11.64,11.64,0,0,1-2.79-.52Z"></path>
      <path class="cls-17" d="M71,61.41s.73-3.9,1.76,0a13.72,13.72,0,0,1-.88,8.66c-.37.44-2.57,1.11-2.28-.73S71,61.41,71,61.41Z"></path>
      <path class="cls-17" d="M73.55,71.84c1.62-.66,8.3-2.28,8.3-1.4s.3,1-1.17,1.81S73.55,74.92,73,73.82A1.78,1.78,0,0,1,73.55,71.84Z"></path>
      <path class="cls-12" d="M25.8,116.3c-.54-3.55,4.32-4.07,6.65-3.78s4.85.83,5.83,3.11c.19.45.86.06.66-.39-2-4.77-14.89-5.38-13.89,1.27.08.49.82.28.75-.21Z"></path>
      <path class="cls-17" d="M24.58,110.57a4.28,4.28,0,0,0,2.11-1.11c.78-.76,1.13-1.76-2-2a22.16,22.16,0,0,0-9.07,1.28,4.63,4.63,0,0,0-1,.53c-.93.66-2.42,2.05,1.26,2.16A39.25,39.25,0,0,0,24.58,110.57Z"></path>
      <path class="cls-12" d="M32.31,117.3c-1-1.27.53-2.27,1.57-2.59a2.08,2.08,0,0,1,2,.24,6,6,0,0,1,2.66,3.61c0,.48.83.49.77,0-.21-1.84-2.31-4.55-4.25-4.78s-5,1.84-3.41,3.91c.29.39,1,0,.67-.39Z"></path>
      <path class="cls-12" d="M53.12,135.49A121.9,121.9,0,0,1,55,147.68c.06.65,1.09.66,1,0a124.4,124.4,0,0,0-1.88-12.46c-.13-.65-1.12-.37-1,.27Z"></path>
      <path class="cls-17" d="M51,127.63s0-1.67,1.57-.59,2,8.62,2,8.62-.29,2.05-1.77.68S51,127.63,51,127.63Z"></path>
      <path class="cls-13" d="M52.54,51.5s1.27.37,1.29,1.51c0,0,0,.24-.33.11a3.35,3.35,0,0,1,0,.7c0,.14-.43-.09-.83-.67,0,0-.2.94-.85,1a1.33,1.33,0,0,1,0-1.2s-.92.23-1.14-.39C50.68,52.59,50.59,52.08,52.54,51.5Z"></path>
      <path class="cls-17" d="M51.47,51.2s.55,1.57,1.67,0-1-8.78-1-8.78-1-1.85-1.9-.06S51.47,51.2,51.47,51.2Z"></path>
      <path class="cls-17" d="M39.38,148.49a8.8,8.8,0,0,1,1.1-1.47,15.57,15.57,0,0,1,3.46-2.79c1.61-1,6.37-2.7,2.06,2.89s-7.86,5.67-8.29,5.19S38.68,149.68,39.38,148.49Z"></path>
      <path class="cls-12" d="M72.15,73.54a41.2,41.2,0,0,1,1-5.08,13.84,13.84,0,0,1,2.27-4.72c1.06-1.44,2.62-2.33,3.42-3.76a5,5,0,0,0,.35-4.68,3.81,3.81,0,0,0-4-2.22,3.53,3.53,0,0,0-2,1.26,2.74,2.74,0,0,0-.55,2.31,3.16,3.16,0,0,0,1.43,2,2.53,2.53,0,0,0,2.39.14,1.66,1.66,0,0,0,1-2,1.76,1.76,0,0,0-.83-.91,1.15,1.15,0,0,0-1.21,0,1.17,1.17,0,0,1,1.22-.08,1.77,1.77,0,0,1,.87.92,1.74,1.74,0,0,1-1,2.14,2.7,2.7,0,0,1-2.53-.1,3.32,3.32,0,0,1-1.55-2A3,3,0,0,1,73,54.17a3.8,3.8,0,0,1,2.21-1.41,4.18,4.18,0,0,1,4.43,2.34,5.47,5.47,0,0,1-.26,5.15c-.88,1.61-2.45,2.54-3.38,3.89a13,13,0,0,0-2,4.53,39.65,39.65,0,0,0-.91,5Z"></path>
      <path class="cls-12" d="M37.23,113.9a6.79,6.79,0,0,1-.31-4.23A10.67,10.67,0,0,1,38.64,106a30.61,30.61,0,0,1,2.54-2.87,7.28,7.28,0,0,0,1-1.39,16.35,16.35,0,0,0,.74-1.63,6.25,6.25,0,0,0,.44-1.64,12.13,12.13,0,0,0,.09-1.79A5.84,5.84,0,0,0,43.21,95a7.74,7.74,0,0,0-.76-1.56,8.81,8.81,0,0,0-5.78-3.78,9.32,9.32,0,0,0-3.57,0,5,5,0,0,0-2.91,1.85,7.8,7.8,0,0,0-1.89,6.73,5.25,5.25,0,0,0,5.59,3.7,5.37,5.37,0,0,0,4.53-5.13,5.46,5.46,0,0,1-4.5,5.34,5.56,5.56,0,0,1-6-3.79,6.87,6.87,0,0,1,0-3.84,9.6,9.6,0,0,1,1.76-3.42,6.84,6.84,0,0,1,1.41-1.38A5.55,5.55,0,0,1,32.92,89a10.25,10.25,0,0,1,3.9-.15,9.78,9.78,0,0,1,6.55,4,9.23,9.23,0,0,1,.94,1.79,7.43,7.43,0,0,1,.38,2,14.18,14.18,0,0,1,0,2,7.7,7.7,0,0,1-.46,2c-.24.64-.45,1.16-.76,1.81a9.14,9.14,0,0,1-1.15,1.67,30.15,30.15,0,0,0-2.36,2.82c-1.3,1.91-2,4.37-1.08,6.26Z"></path>
      <path class="cls-12" d="M15.86,98.69a2.62,2.62,0,0,0,1.55-2.37,2.75,2.75,0,0,0-1.36-2.46,3.55,3.55,0,0,0-5,1.33,6.52,6.52,0,0,0-.45,2.86,6.24,6.24,0,0,0,1,2.71,4.39,4.39,0,0,0,2.12,1.83,11.65,11.65,0,0,0,2.85.69l12,1.57a16.39,16.39,0,0,1,6,1.57,11.14,11.14,0,0,1,2.51,2,6,6,0,0,1,1.66,2.91l-1.3.23a4.82,4.82,0,0,0-1.28-2.28,10.26,10.26,0,0,0-2.19-1.8,15.82,15.82,0,0,0-5.56-1.59L16.47,104a11.88,11.88,0,0,1-3-.82,4.85,4.85,0,0,1-1.33-.87,5.52,5.52,0,0,1-1-1.24,6.5,6.5,0,0,1-1-2.94,5.38,5.38,0,0,1,.11-1.55,6.6,6.6,0,0,1,.44-1.48,3.79,3.79,0,0,1,5.4-1.33,2.88,2.88,0,0,1,1.36,2.6A2.69,2.69,0,0,1,15.86,98.69Z"></path>
      <path class="cls-12" d="M26.6,109.09a13.81,13.81,0,0,1,10.32,3.7c.48.46,1.21-.27.73-.73a14.82,14.82,0,0,0-11-4c-.66,0-.66,1.06,0,1Z"></path>
      <path class="cls-13" d="M14.19,110.94a2.29,2.29,0,0,1-2.29,1.18.88.88,0,0,1,.45-.73s-.72,0-.94-.31a1.25,1.25,0,0,1,1-.58,1.05,1.05,0,0,1-.65-.83s.71-.45,2.42.84A.45.45,0,0,1,14.19,110.94Z"></path>
      <path class="cls-13" d="M39.57,150.45a3.74,3.74,0,0,0-2.85.66,1.66,1.66,0,0,0,1.08.38s-.55.69-.44,1c0,0,.29.16,1-.17,0,0-.22.71-.06.94a2.31,2.31,0,0,0,1.51-2.48S39.9,150.27,39.57,150.45Z"></path>
      <path class="cls-17" d="M31.08,124.48a8.36,8.36,0,0,1-.49-1.54,14,14,0,0,1-.18-3.9c.14-1.64,1.37-5.92,3.11,0s0,8.51-.6,8.56S31.56,125.6,31.08,124.48Z"></path>
      <path class="cls-13" d="M32.56,125.36a3.3,3.3,0,0,0-1,2.36,1.46,1.46,0,0,0,.83-.57s.2.75.52.86c0,0,.26-.12.41-.83,0,0,.39.53.63.53a2,2,0,0,0-1-2.35S32.61,125,32.56,125.36Z"></path>
      <path class="cls-14" d="M48.77,37.68a3.83,3.83,0,0,1,6.28.16"></path>
      <path class="cls-17" d="M43.8,39.63s1.94-2.39,3.4-2.92,5.27-2.23,1.7,2.39S42.4,43.8,42,43.39,43.8,39.63,43.8,39.63Z"></path>
      <path class="cls-13" d="M43.45,41.88a4.91,4.91,0,0,0-3.74.88,2.19,2.19,0,0,0,1.42.5s-.73.89-.59,1.37c0,0,.38.21,1.36-.23,0,0-.29.94-.08,1.23a3,3,0,0,0,2-3.25S43.88,41.65,43.45,41.88Z"></path>
      <path class="cls-17" d="M21,120.06a7.44,7.44,0,0,1,.63-1.9,13.85,13.85,0,0,1,1.79-2.94c1-1.16,4.21-3.87,2.4,1.67s-4.55,6.61-5,6.35C20.51,123.06,20.81,121.22,21,120.06Z"></path>
      <path class="cls-13" d="M21.76,121.28a3.1,3.1,0,0,0-2,1.31,1.39,1.39,0,0,0,.95,0s-.24.69-.06.94c0,0,.27,0,.76-.42,0,0,0,.62.21.75a1.9,1.9,0,0,0,.49-2.35S22,121.05,21.76,121.28Z"></path>
      <path class="cls-13" d="M81.36,71a.91.91,0,0,0,1-.43C82.7,70,84,68.92,83.83,70s-.51,1-.51,1,1.58.35.37,1.13a1,1,0,0,1-1,.83s.49-1.49-1.39-1.51C81.25,71.46,80.84,71.05,81.36,71Z"></path>
      <path class="cls-13" d="M71.59,59.67c.41,0,1.62,0,1.73-2a.66.66,0,0,0-.56,0,1.12,1.12,0,0,0,.25-.89s-.59,0-1.14.81c0,0-.42-1.21-1-1.27,0,0-.22,1.1,0,1.43,0,0-1.24-.16-1.49.43C69.39,58.15,70.57,59.6,71.59,59.67Z"></path>
      <path class="cls-12" d="M51.8,33.74a40.54,40.54,0,0,0-14.4-6,22.83,22.83,0,0,0-7.73-.2,10.21,10.21,0,0,0-6.6,3.51,6.7,6.7,0,0,0-1.46,3.44,5.75,5.75,0,0,0,.86,3.61,4.68,4.68,0,0,0,3,2.15,5.63,5.63,0,0,0,3.75-.22,4.54,4.54,0,0,0,1.6-1,3.29,3.29,0,0,0,.82-1.67A3.55,3.55,0,0,0,30.46,34,2.65,2.65,0,0,0,27,34a1.69,1.69,0,0,0-.28,1.78,1.46,1.46,0,0,0,1.42,1.07,0,0,0,0,1,0,0s0,0,0,0a1.59,1.59,0,0,1-1.54-1.11,1.88,1.88,0,0,1,.27-1.92,2.84,2.84,0,0,1,3.74-.16,3.83,3.83,0,0,1,1.31,3.67A3.54,3.54,0,0,1,31,39.29a4.72,4.72,0,0,1-1.7,1.11,6,6,0,0,1-4,.28,5.14,5.14,0,0,1-3.29-2.3,6.29,6.29,0,0,1-1-3.92,7.2,7.2,0,0,1,1.53-3.75,10.76,10.76,0,0,1,7-3.87,22.76,22.76,0,0,1,8,.22,36.32,36.32,0,0,1,14.32,6.62s0,0,0,0S51.82,33.75,51.8,33.74Z"></path>
    </g>
  </g>
</svg>
