<?xml version="1.0" encoding="UTF-8"?>
<svg xmlns="http://www.w3.org/2000/svg" xmlns:xlink="http://www.w3.org/1999/xlink" viewBox="0 0 174.53 143.05">
  <defs>
    <style>.cls-1{fill:none;}.cls-2{fill:#8e6848;}.cls-3{clip-path:url(#clip-path);}.cls-4{fill:url(#Безымянный_градиент_2);}.cls-5{fill:#713e21;}.cls-6{fill:#3d271f;}.cls-7{fill:#69391e;}.cls-8{fill:#6b472f;}.cls-9{fill:#5c3624;}.cls-10{fill:#795135;}.cls-11{fill:#9a734f;}.cls-12{fill:#fff;}.cls-13{fill:#c5c37d;}.cls-14{fill:#f8f6ba;}.cls-15{fill:#f0f5ad;}.cls-16{fill:#dad986;}.cls-17{fill:#85563a;}.cls-18{fill:#aea748;}.cls-19{fill:#abc847;}.cls-20{fill:#cae36f;}.cls-21{fill:#6b482f;}</style>
    <clipPath id="clip-path">
      <polygon class="cls-1" points="7.72 114.37 57.69 137.89 103.91 114.48 55.86 94.12 7.72 114.37"></polygon>
    </clipPath>
    <linearGradient id="Безымянный_градиент_2" x1="-3441.65" y1="-88.8" x2="-3438.85" y2="-88.8" gradientTransform="matrix(34.36, 0, 0, -34.36, 118238.33, -2934.83)" gradientUnits="userSpaceOnUse">
      <stop offset="0" stop-color="#9b714e"></stop>
      <stop offset="0.38" stop-color="#9b714e"></stop>
      <stop offset="0.89" stop-color="#764528"></stop>
      <stop offset="1" stop-color="#6e3c20"></stop>
    </linearGradient>
  </defs>
  <g id="Слой_2" data-name="Слой 2">
    <g id="Слой_1-2" data-name="Слой 1">
      <path class="cls-2" d="M57.69,71.73S67.31,83,74.75,83.5s32.81-7.57,32.81-7.57l2.56-26.43L57.69,31Z"></path>
      <path class="cls-2" d="M0,47.63,5.23,82.1S23.81,84.89,27.06,84s18.12-6.5,22.29-6.5,8.34-5.73,8.34-5.73V31Z"></path>
      <g class="cls-3">
        <rect class="cls-4" x="31.38" y="66.81" width="48.87" height="98.4" transform="translate(-63.02 165.52) rotate(-86.92)"></rect>
      </g>
      <path class="cls-5" d="M7.72,114.37,5.23,82.1s23.69-.46,30.19-3.71,22.27-6.66,22.27-6.66L55.86,94.12Z"></path>
      <path class="cls-6" d="M41.49,84.11a8.4,8.4,0,0,0-2.84-1.67l0,0s-3.79-1.13-5.85,1.41-1.71,5.29-.77,5.73a10.92,10.92,0,0,0,1.63.35l.09,0a28.27,28.27,0,0,0,3.51-.79,1.76,1.76,0,0,0,.6-.16,6.26,6.26,0,0,0,.65-.19c1.49-.46,1.67-.12,2.69-1a3.94,3.94,0,0,0,1.09-2.54l-.21-.5h0l0,0a1,1,0,0,0-.58-.5"></path>
      <path class="cls-6" d="M21.2,87.43a11,11,0,0,0-4,1.33v0s-4.3,2.7-3.59,6.84,3.66,6.14,4.88,5.61a13.86,13.86,0,0,0,1.71-1.29l0-.13c.92-1.05,1.59-3.16,2.21-4.05a2,2,0,0,0,.35-.72c.11-.2.21-.42.38-.79.8-1.82,1.28-1.71,1.29-3.46a5.08,5.08,0,0,0-1.54-3.2,3.29,3.29,0,0,0-.66-.23v0h-.08a1.31,1.31,0,0,0-1,.13"></path>
      <path class="cls-7" d="M57.69,71.73,55.86,94.12l48.06,20.37,3.64-38.56s-15-1.73-21.48-.8S68.24,78.85,64.84,77a44.41,44.41,0,0,1-7.15-5.26"></path>
      <path class="cls-6" d="M39.39,94.73a3.28,3.28,0,0,0-1.26-.3h0a2.31,2.31,0,0,0-2,1.18c-.49,1.19-.05,2.18.35,2.24l.65,0,0,0a10.59,10.59,0,0,0,1.23-.69l.21-.13.22-.14c.51-.34.61-.24.9-.68A1.59,1.59,0,0,0,39.81,95l-.13-.17h0Z"></path>
      <path class="cls-6" d="M86.47,85.1a2.27,2.27,0,0,0-.11-.89h0s-.38-1-1.27-1-1.43.5-1.38.77l.2.41,0,0,.75.63.13.1.15.11c.35.24.3.34.66.41a1.08,1.08,0,0,0,.74-.18l.07-.13h0V85.1Z"></path>
      <path class="cls-6" d="M99.89,101.28A11,11,0,0,0,98,97.46h0s-3.32-3.9-7.36-2.59-5.59,4.54-4.88,5.68a14.36,14.36,0,0,0,1.52,1.52l.14,0c1.19.77,3.39,1.14,4.37,1.62a2.18,2.18,0,0,0,.77.25c.22.07.45.15.84.26,1.93.54,1.9,1,3.64.79a5.15,5.15,0,0,0,3-2,4.06,4.06,0,0,0,.13-.69h0l0-.07a1.27,1.27,0,0,0-.28-1"></path>
      <path class="cls-6" d="M73.78,88a8.44,8.44,0,0,0-1.87,2.68h0s-1.4,3.66,1,5.89,5.11,2.09,5.62,1.19a12.49,12.49,0,0,0,.46-1.59l0-.09a27.32,27.32,0,0,0-.52-3.53,1.78,1.78,0,0,0-.12-.62c0-.16-.07-.35-.13-.65-.35-1.5,0-1.66-.81-2.74a4,4,0,0,0-2.44-1.27l-.51.17h0l0,0a.93.93,0,0,0-.54.54"></path>
      <path class="cls-8" d="M74,115.38a1.59,1.59,0,0,0,1.57-.42c.54-.7.43-1.44.17-1.55l-.44-.08c-.29,0-.32.69-.33.7Z"></path>
      <path class="cls-9" d="M73,114.8s.87.78,1.23.54.8-.46.8-.46l0-.24-1-.32-.56.19Z"></path>
      <path class="cls-10" d="M73,114.66c0,.1.12.36.4.27a4.1,4.1,0,0,0,.52-.23l.33-1c.06-.14.14-.19-.25,0s-.45,0-.72.29a1.07,1.07,0,0,0-.28.69"></path>
      <path class="cls-11" d="M73.88,114.7A5.25,5.25,0,0,0,74,114c0-.31,0-.4.28-.43s.84-.34,1.11-.23.26.09.26.44a1.24,1.24,0,0,1-.39.87.68.68,0,0,1-.75.32,1.87,1.87,0,0,1-.64-.28"></path>
      <path class="cls-8" d="M63.28,109.25s2.39.12,3.24-1.67.26-3.36-.36-3.49a7.39,7.39,0,0,0-1,0c-.66,0-.37,1.67-.39,1.7Z"></path>
      <path class="cls-9" d="M60.93,108.43s2.3,1.31,3,.61,1.53-1.4,1.53-1.4l-.15-.52a7.53,7.53,0,0,0-2.27-.25c-.36.2-1,.62-1.16.7Z"></path>
      <path class="cls-10" d="M60.74,108.15c.11.21.43.74,1,.4a8.38,8.38,0,0,0,1.05-.75s.18-1.93.26-2.28.22-.49-.58,0-1,.31-1.44,1a2.41,2.41,0,0,0-.28,1.66"></path>
      <path class="cls-11" d="M62.78,107.8a11.07,11.07,0,0,0-.05-1.59c-.09-.69-.16-.87.42-1.08s1.68-1.13,2.32-1,.6.07.77.85a2.85,2.85,0,0,1-.41,2.09,1.59,1.59,0,0,1-1.52,1.07,4,4,0,0,1-1.53-.31"></path>
      <path class="cls-8" d="M53.32,117s1.86,1.41,3.54.43,2-2.58,1.62-3a6,6,0,0,0-.84-.53c-.55-.33-1.21,1.14-1.25,1.16Z"></path>
      <path class="cls-9" d="M51.86,115.06s1.15,2.33,2.08,2.14a18.88,18.88,0,0,1,2-.29l.16-.51s-1.29-1.4-1.7-1.44-1.14,0-1.32-.08Z"></path>
      <path class="cls-10" d="M51.86,114.74c0,.23,0,.83.59.87a10.13,10.13,0,0,0,1.26,0l1.46-1.71c.25-.24.45-.27-.47-.32s-1-.28-1.7,0a2.35,2.35,0,0,0-1.14,1.19"></path>
      <path class="cls-11" d="M53.71,115.58a11.63,11.63,0,0,0,.83-1.32c.3-.61.35-.79.93-.65s2,0,2.44.45.45.38.17,1.1a2.82,2.82,0,0,1-1.49,1.47,1.54,1.54,0,0,1-1.81,0,4.06,4.06,0,0,1-1.07-1.09"></path>
      <path class="cls-8" d="M49,110.58a2.67,2.67,0,0,0,.1-2.73c-.86-1.21-2.11-1.39-2.41-1l-.35.67c-.22.44,1,.84,1,.87Z"></path>
      <path class="cls-9" d="M47.63,111.82s1.7-1,1.49-1.73a15.08,15.08,0,0,1-.35-1.51l-.4-.09s-1,1.08-1,1.39,0,.87,0,1Z"></path>
      <path class="cls-10" d="M47.39,111.84c.18,0,.63,0,.62-.5a7.43,7.43,0,0,0-.11-1l-1.4-1c-.2-.18-.23-.33-.21.37s-.15.75.12,1.3a1.79,1.79,0,0,0,1,.79"></path>
      <path class="cls-11" d="M47.9,110.38a8.8,8.8,0,0,0-1.06-.55c-.49-.19-.62-.21-.55-.67s-.13-1.51.17-1.89.26-.37.84-.2a2.16,2.16,0,0,1,1.21,1,1.18,1.18,0,0,1,.15,1.38,3,3,0,0,1-.76.89"></path>
      <path class="cls-8" d="M40.56,112.59a1.17,1.17,0,0,0,.38-1.12c-.2-.61-.69-.84-.86-.73l-.23.23.29.49Z"></path>
      <path class="cls-9" d="M39.82,112.93s.83-.21.84-.53,0-.67,0-.67l-.15-.09-.58.45-.12.43Z"></path>
      <path class="cls-10" d="M39.71,112.9l.33-.13.08-.4-.46-.6c-.06-.1,0-.16-.13.13s-.16.29-.12.55a.77.77,0,0,0,.3.45"></path>
      <path class="cls-11" d="M40.12,112.36l-.37-.36-.15-.35.32-.75.37,0a.92.92,0,0,1,.37.58.5.5,0,0,1-.12.59Z"></path>
      <path class="cls-8" d="M38,117.26s1.64-2.63.13-4.72-3.65-2.39-4.18-1.77a8.24,8.24,0,0,0-.6,1.17c-.37.76,1.66,1.45,1.69,1.5Z"></path>
      <path class="cls-9" d="M35.56,119.42s2.94-1.8,2.56-3-.63-2.61-.63-2.61l-.69-.15s-1.69,1.88-1.69,2.42.08,1.52.06,1.75Z"></path>
      <path class="cls-10" d="M35.13,119.46c.31,0,1.1,0,1.07-.87a12.45,12.45,0,0,0-.19-1.67s-2.09-1.41-2.44-1.72-.41-.56-.36.66-.25,1.29.21,2.25a3.15,3.15,0,0,0,1.71,1.35"></path>
      <path class="cls-11" d="M36,116.92a14.22,14.22,0,0,0-1.84-.93c-.85-.33-1.08-.37-1-1.15s-.23-2.62.29-3.28.45-.64,1.44-.35A3.69,3.69,0,0,1,37.05,113a2.07,2.07,0,0,1,.27,2.39A5.23,5.23,0,0,1,36,116.92"></path>
      <path class="cls-12" d="M56.37,74.29a2.87,2.87,0,0,1,.69,1.85,5.93,5.93,0,0,1-.21,1.8,14,14,0,0,1-1.32,3.25c-.3.52-.55,1-.8,1.51a7.9,7.9,0,0,0-.55,1.57,7.65,7.65,0,0,0-.08,3.3,21.73,21.73,0,0,0,2.76,6.2,19.7,19.7,0,0,1,1.46,3.12,7.07,7.07,0,0,1,.37,1.7,2.16,2.16,0,0,1-.45,1.67.06.06,0,0,1-.08-.08h0a2,2,0,0,0,.37-1.57,6.66,6.66,0,0,0-.4-1.64,19,19,0,0,0-1.52-3.06,21.94,21.94,0,0,1-2.95-6.24,8.15,8.15,0,0,1,0-3.51,8.93,8.93,0,0,1,.55-1.68c.25-.53.51-1.06.78-1.55a13.53,13.53,0,0,0,1.19-3.13,5.46,5.46,0,0,0,.15-1.6,2.28,2.28,0,0,0-.46-1.32l-.05-.05a.39.39,0,0,1,0-.54.38.38,0,0,1,.54,0Z"></path>
      <path class="cls-12" d="M56.7,76.73a1.84,1.84,0,0,1,.67.34,3.27,3.27,0,0,1,.51.47,6.43,6.43,0,0,1,.79,1.11.05.05,0,0,1,0,.08.07.07,0,0,1-.07,0,6.38,6.38,0,0,0-.86-1,3.83,3.83,0,0,0-.51-.39,1.54,1.54,0,0,0-.54-.23h0a.18.18,0,0,1-.15-.2.18.18,0,0,1,.19-.15Z"></path>
      <path class="cls-12" d="M56.1,79.06a1.43,1.43,0,0,1,.89.56,1.5,1.5,0,0,1,.26.95,6.13,6.13,0,0,0,.07.87.83.83,0,0,0,.36.69h0a.07.07,0,0,1,0,.09.06.06,0,0,1-.07,0,1,1,0,0,1-.54-.76,6.68,6.68,0,0,1-.18-.89,1.2,1.2,0,0,0-.27-.71A1,1,0,0,0,56,79.6h0a.27.27,0,0,1-.25-.29.28.28,0,0,1,.29-.26Z"></path>
      <path class="cls-12" d="M55.58,80.6a3.14,3.14,0,0,0-1.43,0,2.45,2.45,0,0,0-1.24.74.1.1,0,0,1-.14,0,.1.1,0,0,1,0-.13,2.73,2.73,0,0,1,1.28-1,3.48,3.48,0,0,1,1.64-.19.26.26,0,1,1-.06.51h0Z"></path>
      <path class="cls-12" d="M54.48,82.71a3.31,3.31,0,0,0-2.84.59,0,0,0,0,1-.07,0,0,0,0,0,1,0-.07,2.72,2.72,0,0,1,1.37-.82,4.82,4.82,0,0,1,1.61-.14.21.21,0,0,1,.21.24.22.22,0,0,1-.24.21h0Z"></path>
      <path class="cls-12" d="M54.19,83a1,1,0,0,1,1.08.48,3.13,3.13,0,0,1,.21,1.08c0,.17,0,.34.13.42a4,4,0,0,1,.41.33,5.42,5.42,0,0,1,.71.8,0,0,0,0,1,0,.07.06.06,0,0,1-.08,0,6.38,6.38,0,0,0-.73-.74c-.14-.11-.26-.19-.43-.3a.83.83,0,0,1-.23-.54,2.94,2.94,0,0,0-.23-1,.69.69,0,0,0-.75-.29h0a.18.18,0,0,1-.21-.13.17.17,0,0,1,.14-.21Z"></path>
      <path class="cls-12" d="M53.78,85.08a2.06,2.06,0,0,0-1.47.46,1.25,1.25,0,0,0-.36.68,2,2,0,0,1-.27.85c-.37.55-1,.56-1.49.87a1.05,1.05,0,0,0-.39.71l-.21.84h0l.17-.85a1.11,1.11,0,0,1,.37-.77c.47-.36,1.12-.43,1.39-.9a1.84,1.84,0,0,0,.19-.79,1.52,1.52,0,0,1,.39-.84,2.41,2.41,0,0,1,1.69-.64.19.19,0,1,1,0,.38h0Z"></path>
      <path class="cls-12" d="M50.45,87.71a.6.6,0,0,0-.65-.51,2.8,2.8,0,0,0-.94.18,10.71,10.71,0,0,0-1.77.86s0,0,0,0,0,0,0,0a10.42,10.42,0,0,1,1.76-.9,3,3,0,0,1,1-.2.69.69,0,0,1,.75.6,0,0,0,0,1-.05.05.06.06,0,0,1-.06-.05Z"></path>
      <path class="cls-12" d="M54,87.83a10.27,10.27,0,0,0-2.38,2.78,7.48,7.48,0,0,0-.74,1.69,6.94,6.94,0,0,0-.31,1.82.06.06,0,0,1-.12,0,7.34,7.34,0,0,1,.26-1.87,7.84,7.84,0,0,1,.71-1.75,10.38,10.38,0,0,1,2.37-3,.16.16,0,0,1,.24,0,.18.18,0,0,1,0,.25h0Z"></path>
      <path class="cls-12" d="M55.18,91.14a2,2,0,0,0-1.43.54,1.22,1.22,0,0,0-.32.7,2.36,2.36,0,0,0,0,.79.08.08,0,0,1,0,0h0a2.2,2.2,0,0,1-.47.71c-.1.11-.23.17-.25.28a.29.29,0,0,0,.13.28h0a.07.07,0,0,1,0,.11.08.08,0,0,1-.1,0h0a.44.44,0,0,1-.18-.44c.06-.18.22-.25.3-.34a2.12,2.12,0,0,0,.44-.66h0v0a2.39,2.39,0,0,1-.06-.84,1.39,1.39,0,0,1,.35-.78A2.2,2.2,0,0,1,55.18,91a.1.1,0,0,1,.09.08.09.09,0,0,1-.08.09h0Z"></path>
      <path class="cls-12" d="M56.36,93.25a1.3,1.3,0,0,0-.76.5,2.74,2.74,0,0,0-.46.84,6.85,6.85,0,0,0-.34,1.92.09.09,0,0,1-.08.06.07.07,0,0,1-.06-.07,6.91,6.91,0,0,1,.35-2,3.07,3.07,0,0,1,.48-.89,1.44,1.44,0,0,1,.86-.55.08.08,0,0,1,0,.15h0Z"></path>
      <path class="cls-12" d="M57.34,94.88a4.93,4.93,0,0,0-.84,1.24,1.8,1.8,0,0,0-.12,1.45,0,0,0,0,1,0,0h0a1.83,1.83,0,0,1,.08-1.5,4.8,4.8,0,0,1,.83-1.3.07.07,0,0,1,.1.09Z"></path>
      <path class="cls-12" d="M57.91,96.15a.89.89,0,0,1,.76,0,2.09,2.09,0,0,1,.63.37,6.14,6.14,0,0,1,1,1.09s0,0,0,0h0a5.7,5.7,0,0,0-1-1,2,2,0,0,0-.62-.32.76.76,0,0,0-.63,0h0a.09.09,0,0,1-.11,0,.08.08,0,0,1,0-.11Z"></path>
      <path class="cls-12" d="M58.61,98.16l1.64,1.17h0s0,0,0,0,0,0,0,0l-1.7-1.1a.07.07,0,0,1,0-.1.07.07,0,0,1,.11,0Z"></path>
      <path class="cls-12" d="M54.42,89.31a3.31,3.31,0,0,1,1.82.45,5.78,5.78,0,0,1,1.43,1.11,9.65,9.65,0,0,1,1.13,1.42,16,16,0,0,1,.88,1.56.07.07,0,0,1,0,.1.08.08,0,0,1-.1,0,16.5,16.5,0,0,0-.91-1.52,9.25,9.25,0,0,0-1.14-1.35,5.52,5.52,0,0,0-1.4-1,3.08,3.08,0,0,0-1.62-.37h0a.18.18,0,0,1-.19-.15.18.18,0,0,1,.16-.2Z"></path>
      <path class="cls-12" d="M55,89.4a5.22,5.22,0,0,1,1.83-2,2.22,2.22,0,0,1,1.35-.29,2.57,2.57,0,0,1,1.23.59s0,0,0,0a0,0,0,0,1-.06,0h0a2.49,2.49,0,0,0-1.2-.5,2,2,0,0,0-1.21.33,5,5,0,0,0-1.63,2h0a.17.17,0,1,1-.31-.15Z"></path>
      <path class="cls-12" d="M56.77,90.13s-.13,0-.14,0h0l0,0,0,0,.1-.08.23-.15a1.94,1.94,0,0,1,.5-.2,1.28,1.28,0,0,1,1,.18s0,0,0,0a0,0,0,0,1,0,0,1.18,1.18,0,0,0-1-.09,1.65,1.65,0,0,0-.44.22,1.56,1.56,0,0,0-.2.16l-.1.08,0,0,0,0h0s-.15,0-.17,0a.1.1,0,0,1,0-.15A.1.1,0,0,1,56.77,90.13Z"></path>
      <path class="cls-12" d="M57.77,91.1a3.36,3.36,0,0,0-.29.86.75.75,0,0,0,.23.8s0,0,0,.06,0,0,0,0a.86.86,0,0,1-.33-.88A3.3,3.3,0,0,1,57.6,91a.1.1,0,0,1,.13-.06.1.1,0,0,1,.05.13Z"></path>
      <path class="cls-12" d="M58.6,92.14a2.27,2.27,0,0,1,2,.63s0,0,0,0,0,0-.05,0a2.87,2.87,0,0,0-.9-.51,1.76,1.76,0,0,0-1,0h0a.07.07,0,0,1-.09,0,.07.07,0,0,1,.05-.09Z"></path>
      <path class="cls-12" d="M53.73,86.46a5.8,5.8,0,0,1,1,.12,3.33,3.33,0,0,1,.51.16.77.77,0,0,1,.42.36.08.08,0,0,1,0,.09.07.07,0,0,1-.09,0h0c-.16-.24-.53-.29-.84-.33a5.35,5.35,0,0,0-1,0,.18.18,0,1,1,0-.35Z"></path>
      <path class="cls-12" d="M53.26,73.06a1.74,1.74,0,0,0-1,1.23,13,13,0,0,0-.14,1.87,1.48,1.48,0,0,1-.52,1.06,2.47,2.47,0,0,1-1,.25c-.51,0-.78.61-.75,1.19,0,.3.07.6.08,1a1,1,0,0,1-.06.31.33.33,0,0,1-.1.17l-.07.08a2.73,2.73,0,0,0-.23.38c-.3.55-.56,1.14-.82,1.72A12.91,12.91,0,0,0,48,84.09a3.62,3.62,0,0,1-.87,1.72h0a0,0,0,0,1,0,0A3.56,3.56,0,0,0,47.78,84a13.24,13.24,0,0,1,.55-1.86,15.56,15.56,0,0,1,.75-1.8,3.57,3.57,0,0,1,.27-.45c.08-.11.09-.11.1-.14a.37.37,0,0,0,0-.16c0-.27-.08-.6-.1-.95a2,2,0,0,1,.21-1.07,1.31,1.31,0,0,1,.93-.68,2.08,2.08,0,0,0,.81-.19.92.92,0,0,0,.26-.65,8.49,8.49,0,0,1,.15-2,1.66,1.66,0,0,1,1.52-1.43.16.16,0,0,1,.16.18.18.18,0,0,1-.1.15Z"></path>
      <path class="cls-12" d="M48.47,82.3a1.59,1.59,0,0,0-.84,0,2.5,2.5,0,0,0-.79.38A4.6,4.6,0,0,0,45.63,84a.11.11,0,0,1-.12,0,.09.09,0,0,1,0-.11,5,5,0,0,1,1.24-1.39,2.09,2.09,0,0,1,1.83-.41.12.12,0,0,1,.07.15.11.11,0,0,1-.14.08h0Z"></path>
      <path class="cls-12" d="M46.66,82.74l-2.17.32s0,0-.05,0a0,0,0,0,1,0,0l2.16-.37a.07.07,0,0,1,.08,0,.08.08,0,0,1-.06.08Z"></path>
      <path class="cls-12" d="M49.51,80.13a3.33,3.33,0,0,1,.94,2.4c0,.43,0,.85-.05,1.27a5.76,5.76,0,0,0,0,1.23v0a.05.05,0,0,1-.1,0,5.61,5.61,0,0,1,0-1.29,10.43,10.43,0,0,0,0-1.25A3.17,3.17,0,0,0,50,81.36a2.68,2.68,0,0,0-.67-1h0a.17.17,0,0,1,0-.25.17.17,0,0,1,.24,0Z"></path>
      <path class="cls-12" d="M49.78,78.55l-.32,1.29a1.75,1.75,0,0,1-1.14.8,8.56,8.56,0,0,1-1.32.1,6.27,6.27,0,0,0-1.26.19h0s0,0,0,0,0,0,0,0A5.5,5.5,0,0,1,47,80.6a9.78,9.78,0,0,0,1.27-.16,1.57,1.57,0,0,0,.93-.69l.24-1.26v0a.19.19,0,0,1,.21-.14.18.18,0,0,1,.14.21Z"></path>
      <path class="cls-12" d="M49.71,78.11a4.36,4.36,0,0,0-1.62.38,1.64,1.64,0,0,0-1,1.23.08.08,0,0,1-.08.07A.1.1,0,0,1,47,79.7a1.7,1.7,0,0,1,.32-.84,2.32,2.32,0,0,1,.7-.59,4.46,4.46,0,0,1,1.72-.51.18.18,0,0,1,0,.35h0Z"></path>
      <path class="cls-12" d="M48.44,78.26c-.25,0-.49,0-.73-.08a2.54,2.54,0,0,1-.37-.1c-.12,0-.23-.15-.3-.18s-.42.18-.65.24-.43.17-.71.23a.05.05,0,0,1-.06,0,.05.05,0,0,1,0,0h0c.18,0,.45-.15.67-.22s.39-.26.7-.25c.16.06.2.16.32.18a2,2,0,0,0,.35.09,5.51,5.51,0,0,0,.71.07.06.06,0,0,1,.06.06.06.06,0,0,1-.06.06Z"></path>
      <path class="cls-12" d="M51.83,76.79a4.9,4.9,0,0,0,.51,1,3.53,3.53,0,0,0,.34.41.81.81,0,0,1,.23.69A3.6,3.6,0,0,1,52.55,80,7.82,7.82,0,0,1,52,81a.07.07,0,0,1-.1,0,.08.08,0,0,1,0-.1h0a8.09,8.09,0,0,0,.45-1,3.16,3.16,0,0,0,.23-1.06c0-.17,0-.31-.13-.36A3.05,3.05,0,0,1,52,78a4.73,4.73,0,0,1-.67-1,.29.29,0,0,1,.52-.26v0Z"></path>
      <path class="cls-12" d="M52.13,77.76a1.85,1.85,0,0,1,.7.18,3.3,3.3,0,0,1,.57.34,6.71,6.71,0,0,1,1,.86.06.06,0,0,1-.09.09,5.68,5.68,0,0,0-1-.76,4,4,0,0,0-.56-.26,1.74,1.74,0,0,0-.55-.1h0A.17.17,0,0,1,52,78a.18.18,0,0,1,.16-.19Z"></path>
      <path class="cls-12" d="M52.06,74.26l1.36,1a7,7,0,0,1,.67.57,3.63,3.63,0,0,1,.29.81v0a.06.06,0,0,1,0,.08.08.08,0,0,1-.08,0c-.16-.29-.17-.58-.34-.78s-.44-.33-.66-.49l-1.43-.93a.17.17,0,0,1,0-.24.17.17,0,0,1,.24-.06Z"></path>
      <path class="cls-12" d="M52.58,73.34a3.55,3.55,0,0,1-1.13-.07,3.5,3.5,0,0,0-1.07,0,.35.35,0,0,0-.19.1,2,2,0,0,1-.27.17q-.27.14-.54.24c-.36.14-.77.25-1.08.37l0,0a.07.07,0,0,1-.08,0,.07.07,0,0,1,0-.09c.37-.21.7-.34,1-.53a3.72,3.72,0,0,0,.48-.27,1.92,1.92,0,0,0,.21-.16.91.91,0,0,1,.31-.19,3.75,3.75,0,0,1,1.23-.12,2.63,2.63,0,0,1,1.16.24.17.17,0,0,1,.06.25.16.16,0,0,1-.12.09Z"></path>
      <path class="cls-12" d="M50.87,73.16a1.34,1.34,0,0,0-.82.66A10.6,10.6,0,0,1,49.77,75,2.14,2.14,0,0,1,49,76a5.88,5.88,0,0,1-1.07.65.07.07,0,0,1-.09,0,.07.07,0,0,1,0-.1,6.23,6.23,0,0,0,1-.67,1.88,1.88,0,0,0,.64-.95,11.77,11.77,0,0,0,.24-1.21,1.65,1.65,0,0,1,1-.89.17.17,0,0,1,.23.09.17.17,0,0,1-.09.23h0Z"></path>
      <path class="cls-12" d="M57.61,73.08c1.12,1.25,2.19,2.42,3.4,3.68a6.74,6.74,0,0,1,.81,2.45,7.73,7.73,0,0,1,0,2.54c-.24,1.62-.63,3.33.24,4.77a24.31,24.31,0,0,1,1.17,2.21,6.15,6.15,0,0,1,.45,2.47.1.1,0,1,1-.19,0A5.9,5.9,0,0,0,63,88.82a19.36,19.36,0,0,0-1.2-2.17,4.67,4.67,0,0,1-.62-2.46,22.32,22.32,0,0,1,.26-2.49,7.55,7.55,0,0,0,0-2.42A6.47,6.47,0,0,0,60.61,77c-1.12-1.09-2.32-2.36-3.43-3.56a.29.29,0,1,1,.43-.4Z"></path>
      <path class="cls-12" d="M63.42,89.54a8,8,0,0,0-.76.88,2.34,2.34,0,0,0-.47,1h0s0,.06-.07.05a.05.05,0,0,1,0-.06,2.45,2.45,0,0,1,.47-1.11,7.52,7.52,0,0,1,.76-.93.09.09,0,0,1,.12,0,.08.08,0,0,1,0,.12Z"></path>
      <path class="cls-12" d="M62.21,87a3.34,3.34,0,0,0-1,2.46.06.06,0,0,1-.06.06.05.05,0,0,1-.06-.05A3.58,3.58,0,0,1,62,86.84a.13.13,0,0,1,.18,0,.12.12,0,0,1,0,.17h0Z"></path>
      <path class="cls-12" d="M61.59,86.07a.65.65,0,0,1,.89-.16,2.65,2.65,0,0,1,.69.5,9.88,9.88,0,0,1,1.08,1.25,0,0,0,0,1,0,.07.06.06,0,0,1-.07,0,9.64,9.64,0,0,0-1.12-1.18,2.38,2.38,0,0,0-.66-.44c-.22-.11-.5-.09-.58.07h0a.12.12,0,0,1-.17.06.12.12,0,0,1-.06-.16Z"></path>
      <path class="cls-12" d="M61.67,79.34a4,4,0,0,0-1.16,1,5.1,5.1,0,0,0-.76,1.37,6.88,6.88,0,0,0-.33,1.56,8.56,8.56,0,0,0,0,1.6.06.06,0,0,1-.05.06.07.07,0,0,1-.06,0,8.92,8.92,0,0,1-.09-1.63,6.39,6.39,0,0,1,.27-1.62,4.78,4.78,0,0,1,2-2.62.17.17,0,0,1,.24.06.18.18,0,0,1,0,.24h0Z"></path>
      <path class="cls-12" d="M59.35,83a2.71,2.71,0,0,0-1.12.65,3.69,3.69,0,0,0-.78,1.05.06.06,0,0,1-.08,0,.06.06,0,0,1,0-.08,3.37,3.37,0,0,1,2-1.85.1.1,0,0,1,.13.06.1.1,0,0,1-.07.13h0Z"></path>
      <path class="cls-12" d="M58.88,72.12a17.53,17.53,0,0,0,1.91,1.53,5.77,5.77,0,0,0,1.06.58,3.52,3.52,0,0,0,1.16.2,2.92,2.92,0,0,1,2.25,1.19,4.14,4.14,0,0,1,.54,2.46.06.06,0,1,1-.11,0A4.38,4.38,0,0,0,65,75.79a2.66,2.66,0,0,0-2-1,4,4,0,0,1-1.28-.22A6.83,6.83,0,0,1,60.57,74a13.59,13.59,0,0,1-1.94-1.61.18.18,0,0,1,0-.25.18.18,0,0,1,.25,0Z"></path>
      <path class="cls-12" d="M63,74.79a.49.49,0,0,0-.36.63,3.38,3.38,0,0,0,.43.93c.17.32.34.64.5,1a5.59,5.59,0,0,1,.4,1,.1.1,0,0,1-.08.12.1.1,0,0,1-.12-.07v0a4.83,4.83,0,0,0-.41-.92c-.17-.32-.34-.63-.52-.93a4.26,4.26,0,0,1-.51-1,.93.93,0,0,1,.07-.65.82.82,0,0,1,.53-.41.18.18,0,0,1,.22.12.18.18,0,0,1-.13.22Z"></path>
      <path class="cls-12" d="M59.53,72.87a3.67,3.67,0,0,1,1.5-.42,3.38,3.38,0,0,1,1.51.24c.48.2.88.49,1.34.66a2,2,0,0,0,1.41.16h0s0,0,0,0,0,0,0,0a2.15,2.15,0,0,1-1.5-.09c-.48-.15-.92-.43-1.36-.6a3.33,3.33,0,0,0-2.76.29h0a.18.18,0,0,1-.18-.31Z"></path>
      <path class="cls-12" d="M60.84,77.16a.64.64,0,0,1,.62-.32,1,1,0,0,1,.55.26,3.48,3.48,0,0,1,.66.85,7.28,7.28,0,0,1,.48.92c.14.32.24.6.54.7.58.21,1.31.22,2,.46a6,6,0,0,1,1.84.91.06.06,0,0,1,0,.09.05.05,0,0,1-.08,0h0a6,6,0,0,0-1.81-.81c-.64-.21-1.3-.18-2-.4a.94.94,0,0,1-.46-.36,4.23,4.23,0,0,1-.25-.46,6.71,6.71,0,0,0-.49-.87,3.21,3.21,0,0,0-.61-.74c-.24-.21-.47-.21-.58,0h0a.21.21,0,0,1-.36-.21Z"></path>
      <path class="cls-12" d="M64.25,79.75A8,8,0,0,1,66,80.83a3.27,3.27,0,0,1,.6.81,5.71,5.71,0,0,0,.62.76.07.07,0,0,1,0,.1s-.08,0-.11,0a5.31,5.31,0,0,1-.64-.78,3.56,3.56,0,0,0-.59-.77,7.68,7.68,0,0,0-1.66-1,.09.09,0,0,1,0-.13.1.1,0,0,1,.13-.06Z"></path>
      <path class="cls-12" d="M61.77,81.24a4.08,4.08,0,0,0,.87,1.24,2,2,0,0,1,.61.53,7,7,0,0,1,.38.68v0a.07.07,0,0,1,0,.09.05.05,0,0,1-.08,0c-.18-.25-.25-.47-.42-.67a2,2,0,0,0-.61-.47,4.32,4.32,0,0,1-1-1.27.15.15,0,0,1,0-.2.14.14,0,0,1,.19,0h0Z"></path>
      <path class="cls-12" d="M61.53,83.65a2.63,2.63,0,0,0,.74.47c.3.13.61.23.93.36a7.31,7.31,0,0,1,1.77,1c.29.21.48.49.75.64a4.76,4.76,0,0,0,.9.38c.31.11.63.18,1,.29a3.11,3.11,0,0,1,.84.59.06.06,0,0,1-.08.08,3,3,0,0,0-.81-.53c-.3-.1-.64-.16-1-.26a5.5,5.5,0,0,1-.95-.37,9.09,9.09,0,0,1-.79-.63,6.84,6.84,0,0,0-1.74-.9c-.3-.11-.62-.21-.94-.34a2.24,2.24,0,0,1-.93-.59.17.17,0,1,1,.26-.22h0Z"></path>
      <path class="cls-12" d="M66,86.26a12.76,12.76,0,0,1,.9,1.67,4.3,4.3,0,0,1,.44,1.84.07.07,0,0,1-.14,0h0A4.18,4.18,0,0,0,66.73,88a13,13,0,0,0-.9-1.63.09.09,0,0,1,.15-.11Z"></path>
      <path class="cls-13" d="M53.18,72.48a2,2,0,0,0,.88,2.12c1.18.59,4.69,1,5.57-.78a4.32,4.32,0,0,0,0-1.63S53.22,72.16,53.18,72.48Z"></path>
      <path class="cls-14" d="M47.48,68.63a16.64,16.64,0,0,0,1.59,2c2.65,3,4.91,1.25,6.67-2Z"></path>
      <path class="cls-15" d="M53.64,68.63a5.1,5.1,0,0,1-1.57.82,26.11,26.11,0,0,1-3.49.33C49,72.31,59.39,76.7,65.69,70a13.22,13.22,0,0,0,1.16-1.4Z"></path>
      <path class="cls-16" d="M66.84,68.61l-.31,0h.31Z"></path>
      <path class="cls-16" d="M66.53,68.63A41.58,41.58,0,0,0,56.8,71c-4.81,1.85-7.6-.17-7.6-.17.54.75,2.57,1.68,3.54,2.09a5.42,5.42,0,0,0,1,.33,13.39,13.39,0,0,0,8.77-.83,13.93,13.93,0,0,0,4.32-3.78Z"></path>
      <polygon class="cls-17" points="0 47.63 57.69 71.73 110.12 49.5 57.69 31.01 0 47.63"></polygon>
      <path class="cls-13" d="M174.47,15.39c-2,3.57-5.88,5.62-9.79,6.41a29.67,29.67,0,0,1-11.84-.43c-2-.4-3.76-.95-5.55-1.45-.89-.26-1.78-.5-2.58-.67a3.8,3.8,0,0,0-.53-.08l-.25,0h-.17c-.13,0-.18,0-.25,0a2.12,2.12,0,0,0-.27.13c-.54.34-1.44,1.09-2.3,1.62-.43.29-.88.54-1.33.79a14.3,14.3,0,0,1-1.35.69,45.61,45.61,0,0,1-5.51,2.17h0l-.26.07c-.59.08-1,.08-1.44.11s-.89,0-1.32,0c-.87,0-1.73-.1-2.58-.2a39.4,39.4,0,0,1-5-.95,49.47,49.47,0,0,1-4.81-1.47c-1.56-.53-3.17-1.25-4.58-1.78a17.53,17.53,0,0,0-8.66-1.49c-2.77.35-5.68,2-9.07,2.87a24,24,0,0,1-5.12.83c-1.7.11-3.36.1-5,.06-3.29-.07-6.52-.25-9.71-.27a33.45,33.45,0,0,0-9.18.93,7.36,7.36,0,0,0-3.44,1.93,5.11,5.11,0,0,0-1.17,3.44,1.58,1.58,0,0,1-3.16,0,9.6,9.6,0,0,1,.33-2.93A7.53,7.53,0,0,1,60,23,11,11,0,0,1,65,19.85,36.35,36.35,0,0,1,75.2,18.56c3.32-.08,6.58.1,9.77.17,1.59,0,3.17,0,4.68-.06.76-.05,1.49-.13,2.2-.24S93.3,18.16,94,18c1.43-.39,2.84-.92,4.4-1.47a19.56,19.56,0,0,1,5.18-1.22,16.45,16.45,0,0,1,5.41.55,28.9,28.9,0,0,1,4.79,1.82c1.57.67,2.93,1.39,4.45,1.92A33.32,33.32,0,0,0,122.8,21a27.73,27.73,0,0,0,4.68.65c.79,0,1.56.06,2.33,0a13.14,13.14,0,0,0,2.14-.21l-.22.05c.85-.37,1.71-.71,2.54-1.09s1.66-.75,2.43-1.18c.4-.21.79-.42,1.16-.64s.76-.43,1.11-.67c.76-.48,1.29-1,2.37-1.64a4.67,4.67,0,0,1,1-.43,3.68,3.68,0,0,1,1.14-.16,3.19,3.19,0,0,1,1,.11,7.57,7.57,0,0,1,.83.23,25.53,25.53,0,0,1,2.78,1.16,30.63,30.63,0,0,0,5.32,2c.45.13.89.29,1.35.39l1.36.31c.46.09.91.21,1.37.29l1.39.18a20.06,20.06,0,0,0,5.58,0,15.72,15.72,0,0,0,5.27-1.73,10.67,10.67,0,0,0,4-3.68h0a.44.44,0,0,1,.76.43Z"></path>
      <path class="cls-16" d="M165.18,44.4a6.42,6.42,0,0,1-3.83,0,4.1,4.1,0,0,1-1.66-1.1,5.17,5.17,0,0,1-1-1.73,13.58,13.58,0,0,1-.45-3.73,10,10,0,0,0-.82-3.41,6.87,6.87,0,0,0-2.14-2.66,11.1,11.1,0,0,0-3.13-1.58,28.82,28.82,0,0,0-3.49-.91,18.21,18.21,0,0,0-3.54-.31c-2.4,0-4.83.35-7.34.43a24.08,24.08,0,0,1-7.57-.81c-2.44-.72-4.7-1.58-7-2.32a51.46,51.46,0,0,0-7-1.82,29.54,29.54,0,0,0-7-.41,25,25,0,0,0-3.46.48c-1.15.21-2.36.5-3.54.77-2.38.55-4.78,1.16-7.27,1.6a36.9,36.9,0,0,1-7.65.56,48.35,48.35,0,0,1-7.54-.87l-7.23-1.4a24.64,24.64,0,0,0-6.77-.6,4.11,4.11,0,0,0-2.4,1.08,7,7,0,0,0-1.53,2.54v0a1.58,1.58,0,0,1-2.94-1.14h0a9.91,9.91,0,0,1,2.27-3.7,7.33,7.33,0,0,1,4.15-2,26.06,26.06,0,0,1,7.82.62c4.9.92,9.59,2.17,14.3,2.32a33.12,33.12,0,0,0,7-.47c2.34-.4,4.71-1,7.12-1.52,1.22-.26,2.39-.54,3.66-.77a27.63,27.63,0,0,1,3.86-.43,31.73,31.73,0,0,1,7.67.62c5,1,9.68,3,14.15,4.55a22.08,22.08,0,0,0,6.87,1c2.37,0,4.82-.25,7.39-.18a19.68,19.68,0,0,1,3.88.47,28.21,28.21,0,0,1,3.66,1.09,12.52,12.52,0,0,1,3.5,1.92,8.36,8.36,0,0,1,2.47,3.27,10.91,10.91,0,0,1,.77,3.89c0,.65,0,1.29,0,1.84a7,7,0,0,0,.23,1.66,3.42,3.42,0,0,0,1.94,2.38,5.55,5.55,0,0,0,3.36.21h0a.28.28,0,0,1,.35.22A.3.3,0,0,1,165.18,44.4Z"></path>
      <path class="cls-18" d="M121.82,54.81a12,12,0,0,0,4,1.37,3.92,3.92,0,0,0,1-.08,4,4,0,0,0,1-.24A2.87,2.87,0,0,0,129,54.52a14.71,14.71,0,0,0,.87-1.93l.37-1a7,7,0,0,1,.4-1,6,6,0,0,1,3.48-3.28c3-1.11,6.11-.86,8.82-1.28a4.57,4.57,0,0,0,1.69-.59,3.3,3.3,0,0,0,1.13-1.19,2.45,2.45,0,0,0,.34-1.45,3.14,3.14,0,0,0-.55-1.4c-1.37-1.81-4.2-2.76-6.84-3.42a24.72,24.72,0,0,0-8.21-.45c-1.43.11-2.92.27-4.49.3s-3.05-.05-4.6-.16A44.44,44.44,0,0,1,112.32,36a40,40,0,0,1-8.6-3.6,43.86,43.86,0,0,1-4-2.49l-1.85-1.42c-.61-.48-1.18-1-1.77-1.52l-.87-.77-.82-.82-1.63-1.6a24.5,24.5,0,0,0-2.9-2.6,17.67,17.67,0,0,0-6.83-3.25,19.5,19.5,0,0,0-7.69-.08A23.16,23.16,0,0,0,68,20.41a7.29,7.29,0,0,0-1.35.94,13.33,13.33,0,0,0-1.18,1.4,36,36,0,0,0-2.2,3.47c-.68,1.23-1.32,2.5-1.91,3.79a35.38,35.38,0,0,0-1.56,3.82l-.05.15a1.57,1.57,0,0,1-3-.84,34,34,0,0,1,1.47-4.41c.56-1.4,1.16-2.78,1.83-4.14a35.19,35.19,0,0,1,2.29-4,16.57,16.57,0,0,1,1.53-1.93,10.74,10.74,0,0,1,2.06-1.6,27.2,27.2,0,0,1,8.71-3.38,23.56,23.56,0,0,1,9.39,0,22.06,22.06,0,0,1,8.58,3.91,27.15,27.15,0,0,1,3.52,3.08l1.51,1.52.74.77.78.71a40.86,40.86,0,0,0,14.41,8.67,40.3,40.3,0,0,0,8.28,1.91,41.21,41.21,0,0,0,4.25.34c1.41,0,2.85-.07,4.33-.13a27.6,27.6,0,0,1,9.06.87,26.29,26.29,0,0,1,4.32,1.62,9.55,9.55,0,0,1,3.79,3.15,5.45,5.45,0,0,1,.84,2.62,4.89,4.89,0,0,1-.76,2.68,5.53,5.53,0,0,1-2,1.84,6.71,6.71,0,0,1-2.47.76c-1.58.17-3,.13-4.47.2a16.42,16.42,0,0,0-4,.59,4.49,4.49,0,0,0-3,2.22,36.31,36.31,0,0,1-1.91,4A3.88,3.88,0,0,1,128,56.55a4.76,4.76,0,0,1-1.13.24,4.83,4.83,0,0,1-1.15.05,13.36,13.36,0,0,1-4.21-1.53.29.29,0,0,1,.26-.52Z"></path>
      <path class="cls-19" d="M149.25,7.57a89.77,89.77,0,0,1-11.64,4.62,59,59,0,0,1-12.37,2.65,29.07,29.07,0,0,1-3.24.1c-1.12,0-2.09-.15-3.14-.21-2.06-.15-4.12-.29-6.18-.38s-4.09-.15-6.19-.19-4.28-.29-6.24-.4a18.64,18.64,0,0,0-2.9.05,14.43,14.43,0,0,0-2.75.51c-1.8.58-3.72,1.47-5.63,2.27s-3.88,1.62-5.92,2.29a24.25,24.25,0,0,1-6.46,1.33,22.91,22.91,0,0,0-11.07,3.17,11.18,11.18,0,0,0-3.72,3.93,12.26,12.26,0,0,0-1.44,5.28h0a1.58,1.58,0,0,1-3.15-.19A15.42,15.42,0,0,1,59,25.77a14.33,14.33,0,0,1,4.76-5.05A21,21,0,0,1,70,18.1a31.13,31.13,0,0,1,6.47-1A21.67,21.67,0,0,0,82.11,16c1.91-.61,3.8-1.36,5.7-2.16s3.79-1.64,5.94-2.32A14.79,14.79,0,0,1,97.11,11a21.33,21.33,0,0,1,3.3,0c2.17.2,4.12.52,6.17.61s4.16.24,6.23.42,4.15.39,6.22.62c1,.1,2.09.26,3.07.32a25.68,25.68,0,0,0,3,0,56,56,0,0,0,12.1-2.11,91.26,91.26,0,0,0,11.68-4.08.4.4,0,0,1,.53.21A.4.4,0,0,1,149.25,7.57Z"></path>
      <path class="cls-20" d="M84.79,39.82a6.15,6.15,0,0,1,1.84-3.47,10.65,10.65,0,0,1,3.23-2.26,23.75,23.75,0,0,1,7.48-1.82l1.9-.11c.61,0,1.17,0,1.75-.1a21.22,21.22,0,0,0,3.37-.59,14.18,14.18,0,0,0,5.84-3.08A14.73,14.73,0,0,0,114,23c.11-.26.2-.52.3-.78l.14-.41.06-.21c0-.07.06-.16,0-.14a3.52,3.52,0,0,0,0-.59c0-.26,0-.55,0-.85,0-1.17,0-2.4-.07-3.63-.06-2.46-.09-4.95.07-7.48A27.27,27.27,0,0,1,115.07,5a10.12,10.12,0,0,1,1.62-4h0l2,2.34a32.08,32.08,0,0,1-3.85,1.73c-1.27.48-2.56.92-3.85,1.32-2.59.77-5.21,1.4-7.84,1.93s-5.35.92-7.73,1.44a70.85,70.85,0,0,0-7.3,2.17A109.67,109.67,0,0,0,74,18a75.55,75.55,0,0,0-6.64,3.91,27.87,27.87,0,0,0-5.68,4.71l0,0a1.58,1.58,0,0,1-2.51-1.91A21.69,21.69,0,0,1,62,21.5a37.82,37.82,0,0,1,3.13-2.7,80.78,80.78,0,0,1,6.69-4.66c2.3-1.43,4.65-2.79,7.08-4A57.52,57.52,0,0,1,86.39,6.9a53.8,53.8,0,0,1,8-2.05c2.86-.48,5.34-.66,7.9-1.08s5.06-.87,7.54-1.47c1.24-.3,2.47-.6,3.68-.95.61-.19,1.2-.37,1.79-.57s1.2-.45,1.62-.62a1.86,1.86,0,0,1,2.46,1,1.76,1.76,0,0,1,.16.74V3.22a8.46,8.46,0,0,0-.77,2.58,32,32,0,0,0-.31,3.36c-.13,2.31-.1,4.7,0,7.13,0,1.22,0,2.43,0,3.73,0,.32,0,.65,0,1a7.91,7.91,0,0,1-.2,1.39,2.17,2.17,0,0,1-.11.34L118,23l-.17.48c-.12.32-.25.64-.39.95a19,19,0,0,1-2,3.61,17.52,17.52,0,0,1-2.91,3A16.27,16.27,0,0,1,109,33.2a18.17,18.17,0,0,1-3.88,1.16,20,20,0,0,1-3.92.33c-.64,0-1.3,0-1.91-.07l-1.79-.09a22.05,22.05,0,0,0-7,.95,11,11,0,0,0-3.12,1.68,6.1,6.1,0,0,0-2.09,2.77.23.23,0,0,1-.44-.1Z"></path>
      <path class="cls-14" d="M59.62,35.58c-.13-2.06,3.29-10.57,4.19-11.37s1.29-2.32-.34-2.42a13.73,13.73,0,0,0-6.57,5.79S56.41,29,54,30.71s-5.92,4.54-6.86,6a13.07,13.07,0,0,0,0,14.42h8.26C58.15,46,59.69,36.84,59.62,35.58Z"></path>
      <path class="cls-15" d="M66.68,37.54c-.68-.69-3.44-3.6-3.44-3.6-5.84-7.3,8.3-11.22,8.3-11.22-7.24-3.65-10.36-.1-13.2,4.44s-1,11.55-1.4,17a9.12,9.12,0,0,1-3.66,7H66.5A11.69,11.69,0,0,0,66.68,37.54Z"></path>
      <path class="cls-21" d="M61.3,54.8a1.42,1.42,0,0,0-1.36-.5c-.75.24-1,.83-.92,1.05a2.4,2.4,0,0,0,.28.29c.19.18.59-.34.6-.35S61.3,54.8,61.3,54.8Z"></path>
      <path class="cls-9" d="M61.7,55.71s-.24-1-.63-1-.82-.07-.82-.07l-.11.19s.38.67.54.73.45.12.51.15A3.53,3.53,0,0,0,61.7,55.71Z"></path>
      <path class="cls-10" d="M61.67,55.84a.28.28,0,0,0-.15-.4,3.78,3.78,0,0,0-.5-.1s-.62.47-.74.54-.21.06.15.17.35.2.68.16A1,1,0,0,0,61.67,55.84Z"></path>
      <path class="cls-11" d="M61,55.34a4.43,4.43,0,0,0-.46.44c-.18.22-.21.28-.43.17s-.78-.19-.92-.4-.14-.2,0-.46a1.13,1.13,0,0,1,.72-.44.62.62,0,0,1,.72.16A1.68,1.68,0,0,1,61,55.34Z"></path>
      <path class="cls-21" d="M42,47.79a2.1,2.1,0,0,0-2.11-.31c-1,.57-1.26,1.52-1,1.79a4.68,4.68,0,0,0,.49.32c.33.21.74-.67.76-.68S42,47.79,42,47.79Z"></path>
      <path class="cls-9" d="M42.83,49s-.66-1.41-1.22-1.3-1.2.15-1.2.15l-.1.3s.75.85,1,.88.68,0,.78.06A5.75,5.75,0,0,0,42.83,49Z"></path>
      <path class="cls-10" d="M42.82,49.16c0-.13,0-.49-.33-.52a5.52,5.52,0,0,0-.76,0s-.74.86-.89,1-.27.16.27.2.57.18,1,0A1.38,1.38,0,0,0,42.82,49.16Z"></path>
      <path class="cls-11" d="M41.73,48.64a6.29,6.29,0,0,0-.51.77c-.19.37-.22.47-.56.38s-1.18,0-1.46-.3-.26-.23-.08-.66.43-.59.91-.86a.94.94,0,0,1,1.08,0A2.39,2.39,0,0,1,41.73,48.64Z"></path>
      <path class="cls-21" d="M55.63,45s-4.35-2.17-7.39.48-3.19,6.06-2.15,6.79A14,14,0,0,0,48,53c1.25.47,2-2.8,2.11-2.85S55.63,45,55.63,45Z"></path>
      <path class="cls-9" d="M59.34,48.43s-3.22-4.32-5.06-3.57-4,1.37-4,1.37l-.12,1.1s3.18,2.36,4,2.29,2.35-.35,2.71-.35A19.81,19.81,0,0,0,59.34,48.43Z"></path>
      <path class="cls-10" d="M59.47,49.08c0-.48-.22-1.71-1.52-1.54a19.26,19.26,0,0,0-2.56.54s-1.9,3.46-2.33,4.05-.81.73,1.08.48,2,.2,3.47-.67A4.85,4.85,0,0,0,59.47,49.08Z"></path>
      <path class="cls-11" d="M55.39,48.08a22.13,22.13,0,0,0-1.19,3c-.39,1.37-.41,1.74-1.66,1.68s-4,.74-5.15,0-1.07-.61-.76-2.2,1-2.33,2.47-3.56a3.26,3.26,0,0,1,3.69-.78A8.64,8.64,0,0,1,55.39,48.08Z"></path>
      <path class="cls-21" d="M72.36,46.38s-2.5-3.41-5.91-2.56-4.87,3.41-4.36,4.4a11.76,11.76,0,0,0,1.17,1.34c.79.86,2.69-1.36,2.77-1.37S72.36,46.38,72.36,46.38Z"></path>
      <path class="cls-9" d="M73.87,50.52s-.78-4.63-2.5-4.78-3.63-.52-3.63-.52l-.53.8s1.52,3.09,2.2,3.37,2,.66,2.24.81A17.09,17.09,0,0,0,73.87,50.52Z"></path>
      <path class="cls-10" d="M73.71,51.07c.15-.38.51-1.41-.57-1.8a16.59,16.59,0,0,0-2.2-.59s-2.84,1.92-3.4,2.21-.92.23.64.8,1.5,1,2.95.86A4.29,4.29,0,0,0,73.71,51.07Z"></path>
      <path class="cls-11" d="M70.94,48.68a20.14,20.14,0,0,0-2.11,1.85c-.85.9-1,1.19-2,.64s-3.42-1-4-2-.58-.89.29-2,1.73-1.39,3.32-1.78a2.8,2.8,0,0,1,3.16.87A7.1,7.1,0,0,1,70.94,48.68Z"></path>
      <path class="cls-21" d="M60.71,48.15s-3.59-2.77-6.86-.89-4,5-3.19,5.83a12.29,12.29,0,0,0,1.61,1c1.06.65,2.37-2.2,2.44-2.23S60.71,48.15,60.71,48.15Z"></path>
      <path class="cls-9" d="M63.5,52s-2.18-4.54-4-4.18-3.9.53-3.9.53l-.32,1s2.49,2.73,3.27,2.82,2.22.1,2.56.17A18.14,18.14,0,0,0,63.5,52Z"></path>
      <path class="cls-10" d="M63.49,52.59c0-.44.11-1.61-1.11-1.69a17.27,17.27,0,0,0-2.45,0s-2.37,2.83-2.86,3.29-.88.52.9.63,1.84.55,3.31,0A4.57,4.57,0,0,0,63.49,52.59Z"></path>
      <path class="cls-11" d="M59.93,50.94a20.94,20.94,0,0,0-1.63,2.54c-.61,1.18-.69,1.52-1.82,1.24s-3.84,0-4.73-.9-.87-.75-.3-2.15,1.38-2,2.91-2.82a3,3,0,0,1,3.52-.05A8,8,0,0,1,59.93,50.94Z"></path>
      <path class="cls-21" d="M79.43,54.46a2.18,2.18,0,0,0,2-1c.53-1.08.18-2-.19-2.13a4.45,4.45,0,0,0-.62,0c-.4,0-.24,1-.25,1S79.43,54.46,79.43,54.46Z"></path>
      <path class="cls-9" d="M78,53.93s1.39.83,1.81.41,1-.84,1-.84l-.09-.32A4.39,4.39,0,0,0,79.3,53c-.23.12-.61.37-.71.41A4.62,4.62,0,0,0,78,53.93Z"></path>
      <path class="cls-10" d="M77.89,53.77c.07.12.26.45.6.25a5.13,5.13,0,0,0,.65-.45s.13-1.18.18-1.39.14-.29-.35,0-.59.18-.89.59A1.47,1.47,0,0,0,77.89,53.77Z"></path>
      <path class="cls-11" d="M79.14,53.57a6.13,6.13,0,0,0,0-1c0-.42-.09-.53.26-.66s1-.67,1.43-.6.36,0,.46.52A1.75,1.75,0,0,1,81,53.14a1,1,0,0,1-.93.64A2.66,2.66,0,0,1,79.14,53.57Z"></path>
      <path class="cls-21" d="M31.49,57a2.18,2.18,0,0,0,2-1c.54-1.08.18-2-.19-2.13a4.45,4.45,0,0,0-.62,0c-.4,0-.24,1-.25,1S31.49,57,31.49,57Z"></path>
      <path class="cls-9" d="M30.07,56.43s1.39.83,1.81.41.95-.84.95-.84l-.09-.32a4.39,4.39,0,0,0-1.38-.17c-.22.12-.61.37-.71.41A4.62,4.62,0,0,0,30.07,56.43Z"></path>
      <path class="cls-10" d="M30,56.27a.42.42,0,0,0,.6.25,5.49,5.49,0,0,0,.64-.45s.13-1.18.18-1.39.14-.29-.35,0-.59.18-.89.59A1.44,1.44,0,0,0,30,56.27Z"></path>
      <path class="cls-11" d="M31.2,56.07a6.13,6.13,0,0,0,0-1c-.05-.42-.09-.53.26-.66s1-.67,1.43-.6.36,0,.46.52a1.75,1.75,0,0,1-.27,1.28,1,1,0,0,1-.93.64A2.66,2.66,0,0,1,31.2,56.07Z"></path>
      <path class="cls-21" d="M45.19,55.23a2.76,2.76,0,0,0,2.62-1.08c.78-1.34.42-2.59-.05-2.73a4.36,4.36,0,0,0-.78,0c-.52,0-.4,1.27-.42,1.29S45.19,55.23,45.19,55.23Z"></path>
      <path class="cls-9" d="M43.42,54.44s1.7,1.17,2.27.67,1.28-1,1.28-1l-.09-.42a5.93,5.93,0,0,0-1.74-.34c-.29.13-.81.42-.94.46A8,8,0,0,0,43.42,54.44Z"></path>
      <path class="cls-10" d="M43.29,54.22c.07.16.29.59.74.37a7.74,7.74,0,0,0,.87-.51s.26-1.49.34-1.76.21-.36-.45,0-.76.18-1.18.67A1.9,1.9,0,0,0,43.29,54.22Z"></path>
      <path class="cls-11" d="M44.9,54.08A8.1,8.1,0,0,0,45,52.84c0-.54-.06-.68.4-.81s1.37-.77,1.87-.65.46.09.54.71a2.24,2.24,0,0,1-.46,1.6,1.25,1.25,0,0,1-1.25.73A3.11,3.11,0,0,1,44.9,54.08Z"></path>
      <path class="cls-21" d="M55.18,53.29A1.75,1.75,0,0,1,56.8,53c.8.37,1,1,.82,1.2a3.13,3.13,0,0,1-.37.23c-.25.15-.59-.44-.6-.45Z"></path>
      <path class="cls-9" d="M54.56,54.12s.47-1,.91-.92.93.08.93.08l.08.2s-.56.6-.75.62-.52,0-.6.06A4.22,4.22,0,0,1,54.56,54.12Z"></path>
      <path class="cls-10" d="M54.56,54.25c0-.1,0-.34.25-.37a3.86,3.86,0,0,1,.58,0s.6.57.72.66.21.1-.21.14-.43.14-.79,0A1.05,1.05,0,0,1,54.56,54.25Z"></path>
      <path class="cls-11" d="M55.39,53.87a4.07,4.07,0,0,1,.42.52c.15.24.18.31.44.24s.92,0,1.12-.23.2-.17.05-.45a1.25,1.25,0,0,0-.72-.57.8.8,0,0,0-.84,0A1.73,1.73,0,0,0,55.39,53.87Z"></path>
      <path class="cls-21" d="M69.85,49.16s-3.38-2.5-6.36-.69-3.62,4.67-2.84,5.45a11.77,11.77,0,0,0,1.51.94c1,.58,2.15-2.09,2.22-2.12S69.85,49.16,69.85,49.16Z"></path>
      <path class="cls-9" d="M72.5,52.64s-2.1-4.16-3.78-3.79-3.6.57-3.6.57l-.27.91s2.36,2.49,3.08,2.55,2.06.06,2.37.11A16.44,16.44,0,0,0,72.5,52.64Z"></path>
      <path class="cls-10" d="M72.51,53.22c0-.42.07-1.5-1.06-1.55a15.67,15.67,0,0,0-2.27.09s-2.13,2.66-2.58,3.1-.8.49.85.56,1.71.48,3,0A4.26,4.26,0,0,0,72.51,53.22Z"></path>
      <path class="cls-11" d="M69.18,51.76a19.31,19.31,0,0,0-1.46,2.38c-.53,1.1-.61,1.42-1.66,1.18s-3.55,0-4.39-.75-.82-.67-.32-2,1.24-1.83,2.64-2.66a2.78,2.78,0,0,1,3.25-.11A7.09,7.09,0,0,1,69.18,51.76Z"></path>
      <path class="cls-21" d="M51.82,53.07s-2.77-.5-4,1.46-.79,3.88-.09,4.11a7.85,7.85,0,0,0,1.18.12c.77.05.68-1.89.71-1.92Z"></path>
      <path class="cls-9" d="M54.44,54.37S52,52.5,51.05,53.21s-2,1.41-2,1.41l.1.63a8.77,8.77,0,0,0,2.6.62c.46-.18,1.25-.57,1.46-.64A11.12,11.12,0,0,0,54.44,54.37Z"></path>
      <path class="cls-10" d="M54.61,54.72c-.1-.26-.4-.92-1.09-.61a10.53,10.53,0,0,0-1.34.71s-.49,2.23-.63,2.63-.34.53.67.09,1.17-.22,1.82-.93A2.81,2.81,0,0,0,54.61,54.72Z"></path>
      <path class="cls-11" d="M52.18,54.82A13.92,13.92,0,0,0,52,56.68c0,.83.05,1-.65,1.2s-2.12,1.07-2.86.85-.69-.16-.77-1.09a3.37,3.37,0,0,1,.79-2.38,1.89,1.89,0,0,1,1.92-1A4.93,4.93,0,0,1,52.18,54.82Z"></path>
    </g>
  </g>
</svg>
