<?xml version="1.0" encoding="UTF-8"?>
<svg xmlns="http://www.w3.org/2000/svg" viewBox="0 0 104.72 281.45">
  <defs>
    <style>.cls-1{fill:#a29274;}.cls-2{fill:#e3e0c9;}.cls-3{fill:#fcedce;}.cls-4{fill:#bda885;}.cls-5{fill:#d0c5a6;}.cls-6{fill:#8f8267;}.cls-7{fill:#ab967a;opacity:0.25;}.cls-8{fill:#9b8d71;}.cls-9{fill:#7c705b;}.cls-10{fill:#cacac9;}.cls-11{fill:#769e59;}.cls-12{fill:#817870;}.cls-13,.cls-15{fill:none;}.cls-13{stroke:#769e59;stroke-width:0.59px;}.cls-13,.cls-15,.cls-20{stroke-miterlimit:10;}.cls-14{fill:#79a05b;}.cls-15,.cls-20{stroke:#79a05b;}.cls-15{stroke-width:1.33px;}.cls-16,.cls-20{fill:#486f3a;}.cls-17{fill:#f2d95a;}.cls-18{fill:#699f46;opacity:0.48;}.cls-19{fill:#e79e50;}.cls-20{stroke-width:0.16px;}.cls-21{fill:#b8e8b6;opacity:0.46;}</style>
  </defs>
  <g id="Слой_2" data-name="Слой 2">
    <g id="Слой_1-2" data-name="Слой 1">
      <polygon class="cls-1" points="48.99 217.09 97.83 196.29 90.51 252.54 48.99 281.45 48.99 217.09"></polygon>
      <polygon class="cls-2" points="48.99 182.23 97.83 196.29 48.99 217.09 0 196.29 48.99 182.23"></polygon>
      <polygon class="cls-3" points="48.99 182.23 0 196.29 0.86 196.66 97.38 196.16 48.99 182.23"></polygon>
      <polygon class="cls-4" points="7.33 252.54 0 196.29 48.99 217.09 48.99 281.45 7.33 252.54"></polygon>
      <path class="cls-5" d="M30.79,197a29.77,29.77,0,0,1,2.31-2.47,26.16,26.16,0,0,1,2.7-2.08,26.88,26.88,0,0,1,6.12-3,31.07,31.07,0,0,1,6.66-1.39c1.13-.14,2.26-.12,3.39-.18s2.25.1,3.37.2c-1.12.13-2.24.17-3.35.29s-2.22.23-3.31.45-2.18.38-3.25.68-2.13.58-3.19.9a35.43,35.43,0,0,0-6,2.69A32.91,32.91,0,0,0,30.79,197Z"></path>
      <path class="cls-5" d="M22.44,199a6.14,6.14,0,0,0,1.93.39,19.09,19.09,0,0,0,2,.06,29.4,29.4,0,0,0,4-.34c2.64-.37,5.24-1,7.91-1.63a22.83,22.83,0,0,1-7.77,2.62,17.38,17.38,0,0,1-4.14.13,11.73,11.73,0,0,1-2.05-.36c-.34-.1-.67-.22-1-.35A2.18,2.18,0,0,1,22.44,199Z"></path>
      <path class="cls-5" d="M56.15,211a36.7,36.7,0,0,1,4.62-5.85,35.34,35.34,0,0,1,5.68-4.88,25.92,25.92,0,0,1,6.72-3.35c.6-.19,1.23-.29,1.84-.44a9.59,9.59,0,0,1,1.86-.27,16.58,16.58,0,0,1,3.73.12,21.74,21.74,0,0,0-7.18,1.32A32.7,32.7,0,0,0,67,201a50.17,50.17,0,0,0-5.7,4.61c-.92.82-1.79,1.69-2.64,2.58S57,210,56.15,211Z"></path>
      <polygon class="cls-6" points="48.99 217.09 97.83 196.29 90.51 252.54 48.99 281.45 48.99 217.09"></polygon>
      <polygon class="cls-7" points="7.33 252.54 0 196.29 48.99 217.09 48.99 281.45 7.33 252.54"></polygon>
      <polygon class="cls-8" points="48.99 281.45 7.33 252.54 49.18 236.72 90.51 252.54 48.99 281.45"></polygon>
      <path class="cls-9" d="M16.18,227.81a15,15,0,0,1-1.26-8.16,13,13,0,0,1,3.61-7.55,18,18,0,0,1,7.19-4.28,30.68,30.68,0,0,1,8.15-1.45l-2,.42c-.67.15-1.33.34-2,.5s-1.31.38-2,.56-1.28.45-1.91.7a19.55,19.55,0,0,0-6.74,4.25,13.24,13.24,0,0,0-3.57,7,18.09,18.09,0,0,0,.51,8Z"></path>
      <path class="cls-9" d="M61.7,227c.13.21.41.28.62.4l.7.28c.47.19.94.34,1.42.5,1,.31,1.92.59,2.89.86,1.93.52,3.88,1,5.85,1.39,3.93.81,7.91,1.32,11.94,1.79A44.24,44.24,0,0,1,73,231.44a44.69,44.69,0,0,1-5.89-1.63c-1-.34-1.9-.72-2.83-1.15-.46-.22-.91-.46-1.36-.71A3.3,3.3,0,0,1,61.7,227Z"></path>
      <path class="cls-9" d="M35.46,224.1a35.82,35.82,0,0,1-3.24,10.8,30.71,30.71,0,0,1-2.94,4.85,18.32,18.32,0,0,1-4.07,3.94,31.86,31.86,0,0,0,3.43-4.39,51.78,51.78,0,0,0,2.68-4.84c.81-1.66,1.52-3.37,2.21-5.1S34.86,225.88,35.46,224.1Z"></path>
      <path class="cls-9" d="M50.61,268.86c2-1,4.07-1.73,6.07-2.61s4-1.77,5.94-2.78A39.2,39.2,0,0,0,68.14,260a17.7,17.7,0,0,0,2.41-2.17c.35-.41.72-.81,1.06-1.24s.58-.92.88-1.39c-.21.51-.42,1-.66,1.53s-.6.94-.9,1.42a18.3,18.3,0,0,1-2.3,2.44,28,28,0,0,1-5.55,3.74A47.61,47.61,0,0,1,57,267c-1.05.36-2.1.7-3.16,1Z"></path>
      <path class="cls-9" d="M27.7,262.69c-2.21-1.06-4.43-2.59-5.45-5.09a4.66,4.66,0,0,1,.32-3.94,9.05,9.05,0,0,1,2.65-2.85A25.27,25.27,0,0,1,32,247.45a51.94,51.94,0,0,1,7.23-1.89c-1.16.46-2.35.81-3.5,1.28s-2.32.87-3.46,1.33a31.2,31.2,0,0,0-6.43,3.44,8.41,8.41,0,0,0-2.43,2.51,4,4,0,0,0-.42,3.23,7.37,7.37,0,0,0,1.9,3A16.49,16.49,0,0,0,27.7,262.69Z"></path>
      <path class="cls-9" d="M72.49,225.9l3.64-5c1.2-1.67,2.37-3.36,3.48-5.08a52,52,0,0,0,3.06-5.3,17.36,17.36,0,0,0,1.93-5.79,13.19,13.19,0,0,1-1.21,6.11,34.76,34.76,0,0,1-2.94,5.52A51.71,51.71,0,0,1,72.49,225.9Z"></path>
      <path class="cls-10" d="M48.11,212.12c-3.18,3.68-8.75,7.67-6.49,13.26.25.61,1.25.34,1-.28-2.1-5.19,3.3-8.86,6.23-12.25.43-.5-.3-1.24-.74-.73Z"></path>
      <path class="cls-10" d="M49.93,215.32c-3.44,2.06-7.55,2.51-11,4.59-3.25,2-4.47,5.22-5.46,8.75a.52.52,0,0,0,1,.27c1.33-4.7,3.3-7.76,8-9.52,2.7-1,5.44-1.7,7.93-3.2a.52.52,0,0,0-.52-.89Z"></path>
      <path class="cls-10" d="M49,217.31c-1.55,3.46-3.13,6.91-4.64,10.38-1,2.37-1.78,4.53-1.42,7.13.09.66,1.09.38,1-.27-.49-3.53,1.49-6.71,2.86-9.79l3.09-6.92c.27-.61-.62-1.14-.89-.53Z"></path>
      <path class="cls-10" d="M48.4,219.74c-.56,2.67-1.21,4.83-3.37,6.65-1.46,1.23-3,2-4.3,3.48a14.16,14.16,0,0,0-3.3,7.84c-.08.66,1,.66,1,0,.62-5.14,3.51-7.49,7.29-10.5,2.34-1.85,3.06-4.36,3.65-7.19.14-.65-.86-.93-1-.28Z"></path>
      <path class="cls-10" d="M45.17,226.42c-4,2.33-8.07,4.61-12.06,7a11.91,11.91,0,0,0-5.45,6l1,.14.07-1c.05-.67-1-.67-1,0l-.07,1c0,.63.82.64,1,.14,1.55-3.82,5-5.37,8.31-7.31l8.72-5.06a.52.52,0,0,0-.52-.89Z"></path>
      <path class="cls-10" d="M37.31,230.75c-2.2.52-5.62-.63-7.08,1.76-1.6,2.62,1.74,6.07.07,8.6a.56.56,0,0,0,.08.63l.08.09a.49.49,0,0,0,.5.13l.14,0a.51.51,0,0,0,.22-.86l0,0c-.5-.42-1.24.31-.73.74l0,0,.23-.87c.91-.27.3.87.76.08a5.16,5.16,0,0,0,.07-1.56,15.72,15.72,0,0,0-.46-3.27c-.2-.91-.4-2.62.16-3.43s1.76-.76,2.51-.79a19.37,19.37,0,0,0,3.73-.2c.65-.15.37-1.16-.28-1Z"></path>
      <path class="cls-10" d="M31.88,230.48a17,17,0,0,0-6.62-1c-.66,0-.66,1.06,0,1a15.94,15.94,0,0,1,6.34,1c.63.23.9-.77.28-1Z"></path>
      <path class="cls-10" d="M29.4,233.93c-1.44,2-4.52,4.91-3.2,7.61.29.6,1.18.08.89-.52-.63-1.3.38-2.62,1.1-3.63s1.4-2,2.1-2.94c.39-.54-.51-1.06-.89-.52Z"></path>
      <path class="cls-10" d="M49.47,218.31a6.86,6.86,0,0,1-1.3,6.1c-.75.93-1.8,1.55-2.49,2.53-1.34,1.91-1.19,4.34-1,6.56l.66-.5-1-.21c-.65-.13-.93.87-.27,1l1,.21a.53.53,0,0,0,.66-.5c-.15-1.84-.37-4,.62-5.69.75-1.25,2.14-2,3-3.15A8,8,0,0,0,50.47,218c-.15-.65-1.15-.37-1,.28Z"></path>
      <path class="cls-10" d="M49.92,225.23a25.8,25.8,0,0,1-1.26,9.4c-.85,2.22-1.87,4.17-1.91,6.61a.52.52,0,0,0,1,0c0-3,1.79-5.45,2.53-8.3a30.69,30.69,0,0,0,.65-7.71.52.52,0,0,0-1,0Z"></path>
      <path class="cls-10" d="M38.22,251.86c2.11-5.61,5.86-8.65,10.41-12.23a14.33,14.33,0,0,0,5.74-8.94c.13-.66-.87-.94-1-.28-1.11,5.82-5.34,8.05-9.53,11.56a22.62,22.62,0,0,0-6.62,9.61c-.24.63.77.9,1,.28Z"></path>
      <path class="cls-10" d="M35.78,248.36c.16-1.73-.2-5.3,1.76-5.86a17.08,17.08,0,0,1,3-.24L44,242c.66-.05.67-1.08,0-1l-5.39.41c-.82.07-2,0-2.7.51a2.28,2.28,0,0,0-.66,1.61c-.23,1.6-.31,3.24-.46,4.86-.06.66,1,.66,1,0Z"></path>
      <path class="cls-10" d="M33.59,246.88a10.19,10.19,0,0,0,2.52-3.3c.29-.6-.61-1.13-.9-.52a9.47,9.47,0,0,1-2.35,3.09c-.51.44.23,1.17.73.73Z"></path>
      <path class="cls-10" d="M36.14,254.87c4.14.62,10.18,2.65,13-1.71,1.34-2.08,1.39-4.87,1.8-7.22a60.77,60.77,0,0,1,3.53-12.17c.25-.62-.76-.89-1-.28a63.78,63.78,0,0,0-3.78,13.74c-.25,1.57-.34,4.17-1.44,5.4-1.9,2.12-5.45,2.16-7.92,1.83-1.3-.18-2.61-.39-3.91-.59-.65-.1-.93.9-.27,1Z"></path>
      <path class="cls-10" d="M45.21,251.23A59.69,59.69,0,0,1,51.16,244c.46-.48-.27-1.22-.74-.73a63,63,0,0,0-6.11,7.43c-.38.55.52,1.07.9.53Z"></path>
      <path class="cls-10" d="M38.78,260.08a3.68,3.68,0,0,1,2.62-4.77c.65-.15.38-1.15-.28-1a4.73,4.73,0,0,0-3.34,6.05c.22.63,1.22.36,1-.28Z"></path>
      <path class="cls-10" d="M44.64,263.59c1.2-3.38,3.53-5.59,5-8.69s1.6-6.47,3-9.54c.28-.6-.62-1.13-.9-.52-1.74,3.79-2,7.95-4.37,11.42a30.5,30.5,0,0,0-3.78,7.05c-.23.64.78.91,1,.28Z"></path>
      <path class="cls-10" d="M49.39,213.66A6.75,6.75,0,0,0,57.11,220c.66-.1.38-1.1-.27-1a5.7,5.7,0,0,1-6.41-5.35c0-.67-1.06-.67-1,0Z"></path>
      <path class="cls-10" d="M50,218.66c1.26,2.78,4.48,3.08,7.17,3.69,5.44,1.24,10.78,2.38,15.63,5.27a.52.52,0,0,0,.53-.89,37.6,37.6,0,0,0-9.91-4c-3.23-.84-10.91-1-12.53-4.6-.27-.6-1.17-.08-.89.53Z"></path>
      <path class="cls-10" d="M54.4,222.07c1.68,1.09,3.46,1.2,5.4,1.43,3.4.4,5.62,2.2,8,4.57.47.47,1.2-.26.73-.74A17,17,0,0,0,63,223.15c-2.65-1.05-5.66-.37-8.12-2-.56-.37-1.08.53-.52.9Z"></path>
      <path class="cls-10" d="M62.39,224A10,10,0,0,0,69,233.73c.63.23.9-.77.27-1A8.93,8.93,0,0,1,63.42,224a.52.52,0,0,0-1,0Z"></path>
      <path class="cls-10" d="M53.84,223.28c4.66,4.94,8,13.74,16.2,13,.66-.06.67-1.1,0-1-7.77.69-11-8-15.47-12.72-.46-.48-1.19.25-.73.74Z"></path>
      <path class="cls-10" d="M53.42,225.75c5.16,3.22,10.44,7.52,16.5,8.8.65.14.93-.86.27-1C64.3,232.31,59,228,54,224.85c-.57-.35-1.09.55-.53.9Z"></path>
      <path class="cls-10" d="M52.44,226.41a26.63,26.63,0,0,0,1.85,7.48,34.8,34.8,0,0,1,1.91,10c0,.66,1.06.66,1,0a33,33,0,0,0-1.15-7.85c-.92-3.25-2.43-6.21-2.6-9.65,0-.67-1.07-.67-1,0Z"></path>
      <path class="cls-10" d="M51.06,228.5c3.28,5.21,10.77,5.91,13.37,11.6.28.6,1.18.08.9-.53C62.68,233.8,55.23,233.18,52,228c-.36-.57-1.26,0-.9.52Z"></path>
      <path class="cls-10" d="M52.89,237.94c1.45,2.85,4.52,3.09,7.44,3.56,4.77.77,11.87.14,15.68,3.28.51.42,1.25-.31.73-.73-2-1.64-4.08-2.07-6.62-2.36-3.86-.43-14.18,0-16.34-4.28-.3-.59-1.2-.07-.89.53Z"></path>
      <path class="cls-10" d="M63.55,242.1a27.58,27.58,0,0,1,5.2,10.58.52.52,0,0,0,1-.27,28.81,28.81,0,0,0-5.46-11c-.42-.52-1.15.21-.74.73Z"></path>
      <path class="cls-10" d="M51.85,238.4c3.14,4.36,5.58,8.53,6.38,13.94a145.05,145.05,0,0,1,1.3,15.57c0,.67,1.07.67,1,0a136.69,136.69,0,0,0-1.42-16.54c-.86-5.21-3.36-9.27-6.4-13.5-.39-.54-1.29,0-.9.53Z"></path>
      <path class="cls-10" d="M52.12,238a245.52,245.52,0,0,1-1.39,30.55c-.07.67,1,.66,1,0A245.52,245.52,0,0,0,53.16,238a.52.52,0,0,0-1,0Z"></path>
      <path class="cls-10" d="M59,254.22a14.93,14.93,0,0,1,5.45,8.21.52.52,0,0,0,1-.28,16,16,0,0,0-5.92-8.82c-.53-.41-1.05.5-.53.89Z"></path>
      <path class="cls-10" d="M58.7,253.75a12.79,12.79,0,0,0,8.37,3.76c.67,0,.66-1,0-1A11.58,11.58,0,0,1,59.44,253c-.48-.47-1.21.26-.74.73Z"></path>
      <path class="cls-10" d="M49.11,211l.14,7.71a.52.52,0,0,0,1,0L50.15,211a.52.52,0,0,0-1,0Z"></path>
      <path class="cls-10" d="M49.65,208c-3,4.68-.24,10.3-1.49,15.4a.52.52,0,0,0,1,.27c1.21-4.93-1.43-10.68,1.39-15.15.35-.57-.54-1.09-.9-.52Z"></path>
      <path class="cls-10" d="M50.38,219.8a21.27,21.27,0,0,1,1.28,8.1.52.52,0,0,0,1,0,22,22,0,0,0-1.32-8.38c-.23-.62-1.23-.35-1,.28Z"></path>
      <path class="cls-10" d="M49.65,221.07v7.42a.52.52,0,0,0,1,0v-7.42a.52.52,0,0,0-1,0Z"></path>
      <path class="cls-10" d="M51.5,222.56,51.2,228c-.1,1.81,0,3.85-1.06,5.38-.39.55.51,1.07.9.53a7.49,7.49,0,0,0,1.11-4.22c.13-2.39.25-4.77.38-7.16,0-.67-1-.67-1,0Z"></path>
      <path class="cls-10" d="M50.82,227.75A26.12,26.12,0,0,1,48,236.56c-.31.59.58,1.11.89.52A26.63,26.63,0,0,0,51.82,228c.09-.66-.91-.94-1-.28Z"></path>
      <path class="cls-10" d="M50.19,222.41l1.08,7.09c.1.65,1.1.37,1-.28l-1.08-7.09c-.09-.66-1.09-.38-1,.28Z"></path>
      <path class="cls-10" d="M50.18,219.59a52.22,52.22,0,0,0,1.11,8.07.53.53,0,0,0,1,0l.21-1.1c.13-.66-.87-.94-1-.28l-.22,1.1h1a48.67,48.67,0,0,1-1.08-7.79c0-.66-1.08-.66-1,0Z"></path>
      <path class="cls-10" d="M51.38,221.38a17.35,17.35,0,0,0,1.38,5,.52.52,0,0,0,.81.1,3.42,3.42,0,0,0,.9-3.06c-.08-.48-.73-.45-.95-.12l-.68,1,.95.13-1.15-4c-.14-.47-.9-.52-1,0a9.32,9.32,0,0,0-.07,3.53c.08.5.71.43,1,.12a4.32,4.32,0,0,0,.93-3l-1,.14.42,2.26c.12.6,1,.42,1-.14A7.55,7.55,0,0,0,52.09,218c-.42-.52-1.15.22-.73.73a6.57,6.57,0,0,1,1.48,4.68l1-.14L53.43,221c-.1-.58-1-.45-1,.13a3.55,3.55,0,0,1-.8,2.48l1,.12a7.66,7.66,0,0,1,.07-3h-1l1.15,4a.53.53,0,0,0,1,.13l.68-1-1-.12a2.13,2.13,0,0,1-.63,2.05l.81.1a15.94,15.94,0,0,1-1.24-4.49c-.08-.66-1.11-.67-1,0Z"></path>
      <path class="cls-10" d="M52,230.59a32.55,32.55,0,0,1-.47,8.92l1,.14-.05-.78c0-.67-1.08-.67-1,0l0,.78c0,.55.9.74,1,.14a33.39,33.39,0,0,0,.5-9.2c0-.66-1.09-.67-1,0Z"></path>
      <path class="cls-10" d="M51.08,229.39a162.1,162.1,0,0,1-.4,18.57c0,.61.84.66,1,.14l1.88-5.56c.22-.63-.79-.91-1-.28l-1.88,5.56,1,.14a157.66,157.66,0,0,0,.4-18.57c0-.67-1.06-.67-1,0Z"></path>
      <path class="cls-10" d="M50.94,233A6,6,0,0,1,50.5,236c-.26.6.64,1.13.9.52A6.88,6.88,0,0,0,52,233c-.07-.66-1.1-.67-1,0Z"></path>
      <path class="cls-10" d="M52.92,231.75a33.72,33.72,0,0,0,1.13,9.05.52.52,0,0,0,1-.28A32.84,32.84,0,0,1,54,231.75a.52.52,0,0,0-1,0Z"></path>
      <path class="cls-10" d="M52.71,239.05a16.67,16.67,0,0,0-.78,5.61.52.52,0,0,0,1,.14,24.38,24.38,0,0,0,.1-17.16c-.22-.63-1.23-.36-1,.27a23.52,23.52,0,0,1-.1,16.61l1,.14a16.22,16.22,0,0,1,.75-5.33c.2-.64-.8-.92-1-.28Z"></path>
      <path class="cls-10" d="M51.52,227.17l-.39,2.31a.52.52,0,0,0,1,.27,7.31,7.31,0,0,0,.34-2.75c0-.66-1.09-.66-1,0a6.51,6.51,0,0,1-.3,2.48l1,.27.39-2.3c.12-.65-.88-.93-1-.28Z"></path>
      <path class="cls-10" d="M49.39,216.46a22.18,22.18,0,0,0,2,4.49.53.53,0,0,0,1-.26A8.6,8.6,0,0,0,52,217a.54.54,0,0,0-.77-.31,6,6,0,0,0-3.36,5.61.52.52,0,0,0,.78.44,3.09,3.09,0,0,0,1.66-2,.52.52,0,0,0-.76-.59,4.85,4.85,0,0,0-1.62,1.5l.94.4a29.37,29.37,0,0,0,.36-6.28c0-.67-1.07-.67-1,0a28.71,28.71,0,0,1-.33,6,.52.52,0,0,0,1,.4A3.72,3.72,0,0,1,50,221l-.76-.59a2.22,2.22,0,0,1-1.18,1.41l.78.45a4.94,4.94,0,0,1,2.85-4.72l-.77-.31a7.71,7.71,0,0,1,.41,3.43l1-.26a21.37,21.37,0,0,1-1.94-4.24c-.21-.63-1.21-.36-1,.27Z"></path>
      <path class="cls-11" d="M49.4,198.9q-.75,2.94-1.29,5.92v0a2.22,2.22,0,0,0,4.39.69c.35-2.23.8-4.45,1.33-6.65Z"></path>
      <path class="cls-10" d="M51.51,228.24a140.18,140.18,0,0,1-3-15.76c-1-8.12-.65-9.57.88-10s4.07,2.16,2.88,5.8S50.53,225.89,51.51,228.24Z"></path>
      <polygon class="cls-3" points="0.86 196.66 48.99 217.09 97.83 196.29 97.38 196.16 0.86 196.66"></polygon>
      <ellipse class="cls-1" cx="50.53" cy="197.27" rx="11.28" ry="4.41"></ellipse>
      <ellipse class="cls-12" cx="50.82" cy="198.76" rx="9.3" ry="3.64"></ellipse>
      <path class="cls-11" d="M60.46,99.8s-8.1-.49-11,5.64-2.77,12,1.28,17.29c0,0,1.19,1.29,1.39,0s1.48-2.37,1.83-2.17,4.29,5.43,17.74,5.63c0,0,1.48.79.89-1.18s-2.2-3.56.14-2.38,12.6,4.06,13.49,4.15,1.68.2,1.49-2.07-1.49-15.91-4.65-20.36c0,0-1.09-.69.59-1.68s2.87-1.9,1.59-2.88S82,95.85,73.9,93.28c0,0-1.48,0-.4-1.28s3.76-3.66-.19-3-11,.89-15.52,5.14a1.72,1.72,0,0,0-.39,2.57,13.46,13.46,0,0,0,4.05,2.77Z"></path>
      <path class="cls-11" d="M82.23,141.47S80.9,131.68,71.56,133s-10,9.11-9.79,10.89-.66,12.68,16,20.24S96,173.93,96,173.93s-1.12-1.11,0-3.34,6.22-9.56,6.89-11.11,6-14.46-5.56-20-11.78-2-11.78-2A4.31,4.31,0,0,1,82.23,141.47Z"></path>
      <path class="cls-11" d="M77.8,46.73s4,2.08,5.93,1.63,6.67-2.75,8.75-.78a6.3,6.3,0,0,1,2.07,4.19s5.93-5.48,2.53-11.41c0,0,1.33-1.63,2.52,0,0,0,1.84-8.75-11.83-12.6,0,0-1.89-1,.19-1.34S89.14,26,89.14,26s-6-2.45-7.19-2.67-7-1.93-9,.59S71.35,30,71.28,30.35s-5.19-2.74-8.89.89,2.15,12.23,2.15,12.23,1.7.22,2.22-2.22.74-.08,1,.15,4.6,5.19,6.82,5.93,2.3,1.18,2.67,1.11S77.8,46.73,77.8,46.73Z"></path>
      <path class="cls-11" d="M59.87,22.54s.51-.71,0-1.23.81-1.7,3-1.56,9.41-.89,10.89.67c0,0,.45-5.56-2-9,0,0-1.85-2.89.67-2.6,0,0-2.52-3.93-6.53-4.59s-9.63-.74-5.78-2.89c0,0-3.41-3.56-10.75,1.11S45.56,14,48,15.23c0,0-5.64,3.19-6,5.26s-.66,4.45,7.86,3.93S59.87,22.54,59.87,22.54Z"></path>
      <path class="cls-11" d="M17.17,24.5c.3-.15,5.41-1.19,8-2.52s8.55-6.3,9.24-6.6,5.06-1.93,3.73,1.78-7.93,6.34-8.67,10.08c-.15.74.37,15.64-6.45,11.34,0,0-2.23-1.11-2.52-5.86A15.27,15.27,0,0,0,17.17,24.5Z"></path>
      <path class="cls-11" d="M35.46,61.56s-9.89-3-15.13-.5-8.1,6.23-6.12,13.35c0,0-2.87,13.44,6.22,20.26,0,0,.79,1,1.09-2s5.51-8.5,6.27-9.29a6.56,6.56,0,0,0,1.14-2.47s8.3-.69,10.78,1.09c0,0,.29.88.79-1.29s1.87-8.2,7-8-2.9-9.1-5.65-8.7C41.86,64,33.48,69.37,35.46,61.56Z"></path>
      <path class="cls-11" d="M55.86,167.7a6.73,6.73,0,0,0-4.3,2.82c-1.77,2.52-6.11,5.33-20.18,4.89,0,0-7.09-.59-6.8,6.37,0,0-10.74-16.94-11-19.59s-1.49-18.95,17.8-12.28c0,0,4.77,4.15,5.06,8.15s2.38.89,2.38.89S51.71,152.43,55.86,167.7Z"></path>
      <path class="cls-13" d="M55.48,41.86c-.38-3.15-.64-6.7,1.39-9.13a7.9,7.9,0,0,1,4.76-2.48,23.26,23.26,0,0,1,5.47-.06"></path>
      <path class="cls-11" d="M49.4,33.89c-2.42-3.76-4.51-7.95-2.75-12.43.13-.31-.38-.45-.5-.14-1.8,4.6.31,9,2.8,12.83.18.28.63,0,.45-.26Z"></path>
      <path class="cls-11" d="M54.51,195c1.29-4.14,3.2-8.08,4.72-12.5A35.15,35.15,0,0,0,61,168.61a45.36,45.36,0,0,0-3.15-13.5,61.69,61.69,0,0,0-6.53-12.05c-2.52-3.75-5.21-7.29-7.59-11a46.56,46.56,0,0,1-5.67-11.68,37.53,37.53,0,0,1-1.74-12.79,29.25,29.25,0,0,1,3.31-12.39,50.43,50.43,0,0,1,8-10.41,117.93,117.93,0,0,0,8.94-10.06,28.63,28.63,0,0,0,5.71-12.29,23.43,23.43,0,0,0-2-13.32,50.15,50.15,0,0,0-7.34-11.26c-2.87-3.34-5.77-7.08-10.07-8.73S34,27.56,29.56,27.65c4.43,0,9,0,13.14,1.75s6.95,5.42,9.75,8.82a49.71,49.71,0,0,1,7,11.24,22.44,22.44,0,0,1,1.7,12.8A27.44,27.44,0,0,1,55.44,73.9a118.21,118.21,0,0,1-9,9.75,51.93,51.93,0,0,0-8.46,10.63,31.35,31.35,0,0,0-3.81,13.19c-.62,9.22,2.38,18.45,7.27,26.09s10.46,14.57,13.36,22.74,3.8,17,.79,24.95c-1.45,4-3.52,8.08-5,12.44-.84,2.41-1.57,4.87-2.19,7.35H52.8C53.3,199,53.86,197,54.51,195Z"></path>
      <path class="cls-14" d="M58.14,156.45a48.81,48.81,0,0,1-.8-10.52c.35-4.84,3.85-7.36,8.3-8.54a.52.52,0,0,0-.28-1c-3.31.88-6.75,2.54-8.26,5.83-1.93,4.18-.63,10.15,0,14.5.1.66,1.1.38,1-.27Z"></path>
      <path class="cls-14" d="M36.66,118.58c.54-7.33,3.22-14.12,10.42-17.14,6-2.53,12.63-1.84,19-1.15.66.07.66-1,0-1-7.7-.83-16.3-1.63-23,3.17-5.24,3.78-7,10-7.46,16.16,0,.66,1,.66,1,0Z"></path>
      <path class="cls-14" d="M45.39,86.89C54.8,85,62.79,80,70.7,74.79c.55-.37,0-1.27-.52-.9-7.84,5.16-15.72,10.13-25.06,12-.66.13-.38,1.13.27,1Z"></path>
      <path class="cls-15" d="M34.31,69.7A6.49,6.49,0,0,1,36.15,67c3.06-3.09,6.64-6,10.94-6.68a10.46,10.46,0,0,1,8.64,2.42,8.22,8.22,0,0,1,2.32,8.46"></path>
      <path class="cls-11" d="M67.84,70.74a9.06,9.06,0,0,1-2.78,6.66.26.26,0,0,0,.37.36,9.62,9.62,0,0,0,2.93-7,.26.26,0,0,0-.52,0Z"></path>
      <path class="cls-14" d="M48.69,170.13c.6,2.68,2,5.05,2.89,7.64a40.74,40.74,0,0,1,1.93,9.15c.06.66,1.1.66,1,0A41.72,41.72,0,0,0,53,178.63c-.92-3-2.58-5.75-3.26-8.78-.14-.65-1.14-.37-1,.28Z"></path>
      <path class="cls-13" d="M53.48,39a3,3,0,0,0-4.86,3.19"></path>
      <path class="cls-14" d="M66.11,77a11.88,11.88,0,0,0,2.58.51,3.46,3.46,0,0,1,1.45.64,4.27,4.27,0,0,1,1,1.19C72,80.9,73,82.45,74,84a38,38,0,0,0,7.23,8.15,23.19,23.19,0,0,0,4.58,2.94c1.64.73,3.38,1.55,5.18,1.41a3.29,3.29,0,0,0,2.3-1.19,2.18,2.18,0,0,0,.11-2.49,1.48,1.48,0,0,0-1.1-.67,1.71,1.71,0,0,0-1.24.4,1.15,1.15,0,0,0-.41,1.21c.12.41.59.83,1,.62-.45.22-.93-.19-1.07-.61A1.21,1.21,0,0,1,91,92.46a1.82,1.82,0,0,1,1.3-.45,1.56,1.56,0,0,1,1.19.69,2.33,2.33,0,0,1,0,2.68,3.53,3.53,0,0,1-2.43,1.34,7,7,0,0,1-2.77-.33,22.07,22.07,0,0,1-2.6-1,23.62,23.62,0,0,1-4.74-2.88,39,39,0,0,1-7.55-8.11c-1.08-1.5-2.09-3.06-3.06-4.62a3.39,3.39,0,0,0-.77-.92,2.38,2.38,0,0,0-1.07-.42,11.93,11.93,0,0,1-2.81-.53Z"></path>
      <path class="cls-16" d="M51.05,42.11s-1.7-5.71-7-.75c0,0-4.37,6.23-.59,18.31s6.52,8.45,8,5.41S50,59.6,50.61,51.37,51.35,44.18,51.05,42.11Z"></path>
      <path class="cls-16" d="M68.53,62s.74-3.93,1.78,0a13.9,13.9,0,0,1-.89,8.75c-.37.44-2.59,1.11-2.3-.74S68.53,62,68.53,62Z"></path>
      <path class="cls-16" d="M71.1,72.5c1.63-.67,8.38-2.3,8.38-1.41s.29,1.06-1.19,1.83-7.19,2.69-7.71,1.58A1.79,1.79,0,0,1,71.1,72.5Z"></path>
      <path class="cls-11" d="M23,117.34c-.52-3.47,4.32-3.93,6.57-3.66s4.82.82,5.79,3.08c.26.61,1.16.08.9-.53-2.14-5-15.3-5.49-14.26,1.38.1.66,1.1.38,1-.27Z"></path>
      <path class="cls-16" d="M22.58,111.39s4.44-2.52-.75-3a22.29,22.29,0,0,0-9.63,1.48s-4.15,2.38.74,2.53A40.74,40.74,0,0,0,22.58,111.39Z"></path>
      <path class="cls-16" d="M18.29,118.56S24.22,111,25,120.64s-3.11,18.53-4.74,17.94-5.64,2.52-5-8.6C15.18,130,16.21,122.57,18.29,118.56Z"></path>
      <path class="cls-11" d="M29.58,118.31c-1.37-1.83,2.18-3,3.42-2.19a5.88,5.88,0,0,1,2.62,3.53c.08.65,1.12.66,1,0-.21-1.92-2.37-4.71-4.4-5s-5.21,2-3.57,4.14c.4.53,1.3,0,.89-.53Z"></path>
      <path class="cls-16" d="M27.18,117.64s2.47-2.57,4.45,0,3.16,17.79,3.16,17.79.6,4.84-.69,7.21-4,5.57-7.71-.89S25.88,118.53,27.18,117.64Z"></path>
      <path class="cls-11" d="M43.23,146.78c1.93-2.44,5-2.1,6.92.2.43.51,1.16-.23.73-.74-2.22-2.7-6.13-3.06-8.38-.19-.41.52.32,1.26.73.73Z"></path>
      <path class="cls-11" d="M50.48,136.74A121.24,121.24,0,0,1,52.34,149c.06.66,1.1.66,1,0a121.57,121.57,0,0,0-1.89-12.58c-.14-.65-1.14-.37-1,.28Z"></path>
      <path class="cls-16" d="M48.33,128.8s0-1.68,1.58-.59,2,8.7,2,8.7-.3,2.07-1.8.69S48.33,128.8,48.33,128.8Z"></path>
      <path class="cls-16" d="M37.07,149.12s2.37-2.91,4.15-3.56,6.42-2.72,2.07,2.91-7.93,5.73-8.36,5.24S37.07,149.12,37.07,149.12Z"></path>
      <path class="cls-11" d="M69.68,74.22a41.52,41.52,0,0,1,1-5.12A13.83,13.83,0,0,1,73,64.33c1.08-1.46,2.65-2.35,3.46-3.8a5,5,0,0,0,.35-4.72,3.84,3.84,0,0,0-4-2.24,3.53,3.53,0,0,0-2.07,1.27,2.77,2.77,0,0,0-.56,2.33,3.19,3.19,0,0,0,1.44,2,2.56,2.56,0,0,0,2.42.14,1.68,1.68,0,0,0,1-2,1.76,1.76,0,0,0-.85-.93,1.15,1.15,0,0,0-1.22.06,1.18,1.18,0,0,1,1.24-.08,1.78,1.78,0,0,1,.88.93,1.75,1.75,0,0,1-1.06,2.15,2.66,2.66,0,0,1-2.54-.1A3.37,3.37,0,0,1,70,57.22a3,3,0,0,1,.56-2.55,3.86,3.86,0,0,1,2.22-1.43,4.24,4.24,0,0,1,4.48,2.37,5.54,5.54,0,0,1-.27,5.2c-.89,1.62-2.47,2.56-3.41,3.92a13.32,13.32,0,0,0-2.06,4.57,40.45,40.45,0,0,0-.92,5Z"></path>
      <path class="cls-11" d="M34.45,115a6.7,6.7,0,0,1-.32-4.27A11,11,0,0,1,35.87,107a32.4,32.4,0,0,1,2.56-2.89,7.86,7.86,0,0,0,1-1.4c.25-.47.53-1.12.75-1.65a6.69,6.69,0,0,0,.44-1.66,12.2,12.2,0,0,0,.09-1.8,6,6,0,0,0-.26-1.7,7.87,7.87,0,0,0-.77-1.57,8.91,8.91,0,0,0-5.83-3.82,9.28,9.28,0,0,0-3.6,0,5,5,0,0,0-2.94,1.87,7.82,7.82,0,0,0-1.91,6.78,5.27,5.27,0,0,0,5.64,3.73,5.39,5.39,0,0,0,4.57-5.17,5.52,5.52,0,0,1-4.54,5.4A5.62,5.62,0,0,1,25,99.32a7,7,0,0,1,0-3.88A10,10,0,0,1,26.82,92a7,7,0,0,1,1.43-1.39,5.38,5.38,0,0,1,1.85-.82A10.19,10.19,0,0,1,34,89.63a9.85,9.85,0,0,1,6.61,4.08,8,8,0,0,1,.94,1.81,7,7,0,0,1,.39,2,13,13,0,0,1,0,2,7.68,7.68,0,0,1-.46,2c-.25.65-.45,1.17-.77,1.83A9.34,9.34,0,0,1,39.53,105a30.64,30.64,0,0,0-2.38,2.84c-1.32,1.93-2,4.41-1.09,6.32Z"></path>
      <path class="cls-11" d="M12.88,99.6a2.66,2.66,0,0,0,1.56-2.4,2.74,2.74,0,0,0-1.38-2.47,3.58,3.58,0,0,0-5,1.33A6.53,6.53,0,0,0,7.57,99a6.4,6.4,0,0,0,1,2.73,4.45,4.45,0,0,0,2.15,1.85,11.37,11.37,0,0,0,2.87.7l12.08,1.59a16.31,16.31,0,0,1,6.07,1.58,11.34,11.34,0,0,1,2.53,2A6.07,6.07,0,0,1,36,112.32l-1.31.23a4.89,4.89,0,0,0-1.3-2.29,10.4,10.4,0,0,0-2.2-1.82,15.94,15.94,0,0,0-5.62-1.6l-12-1.94a12,12,0,0,1-3-.82,5,5,0,0,1-1.35-.87,5.91,5.91,0,0,1-1-1.26,6.63,6.63,0,0,1-1-3,5.85,5.85,0,0,1,.11-1.57,6.8,6.8,0,0,1,.45-1.5,3.83,3.83,0,0,1,5.45-1.34,2.91,2.91,0,0,1,1.37,2.63A2.72,2.72,0,0,1,12.88,99.6Z"></path>
      <path class="cls-11" d="M23.71,110.1a13.89,13.89,0,0,1,10.42,3.73c.48.46,1.22-.27.74-.74a15,15,0,0,0-11.16-4c-.66,0-.66,1.07,0,1Z"></path>
      <path class="cls-17" d="M49.65,128.71a2.77,2.77,0,0,0,1.19-2.82s-.1-.35-.55,0a5.34,5.34,0,0,0-.26-1c-.12-.19-.59.33-.9,1.37,0,0-.73-1.28-1.72-1.11a2,2,0,0,0,.49,1.77s-1.44.1-1.46,1.12C46.44,128,46.53,128.78,49.65,128.71Z"></path>
      <path class="cls-17" d="M11.15,112a3.5,3.5,0,0,1-3.52,1.82,1.33,1.33,0,0,1,.7-1.12s-1.12,0-1.45-.48a1.94,1.94,0,0,1,1.56-.9,1.6,1.6,0,0,1-1-1.27s1.1-.7,3.72,1.29A.66.66,0,0,1,11.15,112Z"></path>
      <path class="cls-17" d="M36.68,151.85a5.58,5.58,0,0,0-4.1.93,2.47,2.47,0,0,0,1.56.53s-.8.94-.64,1.45c0,0,.41.22,1.49-.24,0,0-.32,1-.1,1.3a3.2,3.2,0,0,0,2.18-3.44S37.16,151.61,36.68,151.85Z"></path>
      <path class="cls-18" d="M48.49,40.63s-3.25-.49-4.26,1.93S41,55,45.68,63.81c0,0-2-10.22-1.45-12s1,.1,1,.43.28-9.47,1.84-10S49.37,40.66,48.49,40.63Z"></path>
      <path class="cls-18" d="M31.37,118.11s-3.25-.48-4.26,1.93-3.19,12.42,1.45,21.25c0,0-2-10.22-1.45-12s1,.09,1,.42.28-9.47,1.83-10S32.26,118.15,31.37,118.11Z"></path>
      <path class="cls-18" d="M22.86,117.43s-3.25-.48-4.26,1.93-3.78,6.3-.65,15.6a34.13,34.13,0,0,1,.65-6.38c.56-1.82,2-4.66,2-4.32s-.68-4.73.87-5.26S23.74,117.47,22.86,117.43Z"></path>
      <path class="cls-17" d="M79,71.65a.92.92,0,0,0,1-.43c.39-.57,1.69-1.63,1.52-.55s-.51,1-.51,1,1.57.34.36,1.13a1,1,0,0,1-1,.82s.49-1.48-1.38-1.5C78.87,72.12,78.46,71.7,79,71.65Z"></path>
      <path class="cls-17" d="M69.61,60.81c.23,0,.94,0,1-1.19a.43.43,0,0,0-.33,0,.62.62,0,0,0,.15-.51s-.34,0-.66.47c0,0-.25-.71-.58-.74,0,0-.13.64,0,.83,0,0-.72-.09-.87.25C68.32,59.92,69,60.76,69.61,60.81Z"></path>
      <path class="cls-19" d="M48.48,71.06c-.37-.67-1-4.53.44-5.27S53,70.09,53,70.09L50.5,68.83s-.24,2.15.87,2.82-1.85.07-2.22-1.85S48.48,71.06,48.48,71.06Z"></path>
      <path class="cls-19" d="M30.65,150.74c.09.16-1.9-3.06-.22-6a1.58,1.58,0,0,1,2.29.67c.94,1.56,2.45,3,2.4,4a25.4,25.4,0,0,0-2.59-1.41s.34,3.08.69,3.41S31.14,149,31.14,149,30.35,150.25,30.65,150.74Z"></path>
      <path class="cls-19" d="M18.17,136.9s.86-1.46,1.43.1a2.51,2.51,0,0,0,.22,1.38c.32.45,2.37,3.07,1.81,3.56s-2.08-.94-2.23-1-.07,3.68.55,4.35-1.36.11-2-2.48c0,0-.22-.56-.86.18s-2.35-1.78-1.36-3.53A5.27,5.27,0,0,1,18.17,136.9Z"></path>
      <ellipse class="cls-20" cx="48.25" cy="50.2" rx="0.24" ry="0.49"></ellipse>
      <ellipse class="cls-20" cx="45.25" cy="48.77" rx="0.24" ry="0.49"></ellipse>
      <ellipse class="cls-20" cx="47.51" cy="45.08" rx="0.24" ry="0.49"></ellipse>
      <ellipse class="cls-20" cx="49.88" cy="48.77" rx="0.24" ry="0.49"></ellipse>
      <ellipse class="cls-20" cx="49.64" cy="44.6" rx="0.24" ry="0.49"></ellipse>
      <ellipse class="cls-20" cx="46.93" cy="53.22" rx="0.24" ry="0.49"></ellipse>
      <ellipse class="cls-20" cx="44.47" cy="51.77" rx="0.24" ry="0.49"></ellipse>
      <ellipse class="cls-20" cx="43.36" cy="46.06" rx="0.24" ry="0.49"></ellipse>
      <ellipse class="cls-20" cx="45.25" cy="43.04" rx="0.24" ry="0.49"></ellipse>
      <ellipse class="cls-20" cx="47.09" cy="59.86" rx="0.24" ry="0.49"></ellipse>
      <ellipse class="cls-20" cx="46.37" cy="62.13" rx="0.24" ry="0.49"></ellipse>
      <ellipse class="cls-20" cx="44.71" cy="55.69" rx="0.24" ry="0.49"></ellipse>
      <ellipse class="cls-20" cx="48.49" cy="56.18" rx="0.24" ry="0.49"></ellipse>
      <ellipse class="cls-20" cx="44.95" cy="58.4" rx="0.24" ry="0.49"></ellipse>
      <ellipse class="cls-20" cx="50.12" cy="59.37" rx="0.24" ry="0.49"></ellipse>
      <ellipse class="cls-20" cx="49.19" cy="63.1" rx="0.24" ry="0.49"></ellipse>
      <path class="cls-21" d="M43.6,48.77s-.42-2.1-.78,0,0,4.58,0,6.44S43.82,49.48,43.6,48.77Z"></path>
      <path class="cls-21" d="M27.21,122.47s-.42-2.1-.78,0a34.49,34.49,0,0,0-.57,5.37C25.81,129.7,27.42,123.18,27.21,122.47Z"></path>
      <ellipse class="cls-20" cx="32.82" cy="127.26" rx="0.24" ry="0.49"></ellipse>
      <ellipse class="cls-20" cx="30.29" cy="126.14" rx="0.24" ry="0.49"></ellipse>
      <ellipse class="cls-20" cx="27.25" cy="129.2" rx="0.24" ry="0.49"></ellipse>
      <ellipse class="cls-20" cx="21.32" cy="130.73" rx="0.49" ry="0.24" transform="translate(-110.99 124.54) rotate(-78.06)"></ellipse>
      <ellipse class="cls-20" cx="22.69" cy="126.83" rx="0.49" ry="0.24" transform="translate(-106.08 122.79) rotate(-78.06)"></ellipse>
      <ellipse class="cls-20" cx="23.71" cy="130.25" rx="0.49" ry="0.24" transform="translate(-108.62 126.5) rotate(-78.06)"></ellipse>
      <ellipse class="cls-20" cx="21.18" cy="134.82" rx="0.49" ry="0.24" transform="translate(-115.28 132.93) rotate(-80.28)"></ellipse>
      <ellipse class="cls-20" cx="17.71" cy="132.89" rx="0.24" ry="0.49"></ellipse>
      <ellipse class="cls-20" cx="15.47" cy="130.55" rx="0.24" ry="0.49" transform="translate(-6.29 0.9) rotate(-2.77)"></ellipse>
      <ellipse class="cls-20" cx="17.45" cy="127.84" rx="0.24" ry="0.49"></ellipse>
      <ellipse class="cls-20" cx="23.59" cy="122.6" rx="0.49" ry="0.24" transform="translate(-101.24 120.31) rotate(-78.06)"></ellipse>
      <ellipse class="cls-20" cx="20.09" cy="126.63" rx="0.49" ry="0.24" transform="translate(-107.85 135) rotate(-84.73)"></ellipse>
      <ellipse class="cls-20" cx="23.71" cy="118.58" rx="0.49" ry="0.24" transform="translate(-97.2 117.24) rotate(-78.06)"></ellipse>
      <ellipse class="cls-20" cx="18.6" cy="123.09" rx="0.49" ry="0.24" transform="translate(-105.86 120.63) rotate(-80.28)"></ellipse>
      <ellipse class="cls-20" cx="20.59" cy="119.29" rx="0.49" ry="0.24" transform="translate(-100.39 114.75) rotate(-78.06)"></ellipse>
      <ellipse class="cls-20" cx="24.99" cy="132.89" rx="0.24" ry="0.49"></ellipse>
      <ellipse class="cls-20" cx="27" cy="120.33" rx="0.24" ry="0.49"></ellipse>
      <ellipse class="cls-20" cx="29.14" cy="122.6" rx="0.24" ry="0.49"></ellipse>
      <ellipse class="cls-20" cx="31.65" cy="132.89" rx="0.24" ry="0.49"></ellipse>
      <ellipse class="cls-20" cx="34.12" cy="135.31" rx="0.24" ry="0.49"></ellipse>
      <ellipse class="cls-20" cx="27.49" cy="136.28" rx="0.24" ry="0.49"></ellipse>
      <ellipse class="cls-20" cx="27" cy="141.36" rx="0.24" ry="0.49"></ellipse>
      <ellipse class="cls-20" cx="29.56" cy="142.33" rx="0.24" ry="0.49"></ellipse>
      <ellipse class="cls-20" cx="31.4" cy="138.94" rx="0.24" ry="0.49"></ellipse>
    </g>
  </g>
</svg>
