<?xml version="1.0" encoding="UTF-8"?>
<svg xmlns="http://www.w3.org/2000/svg" viewBox="0 0 106.14 102.8">
  <defs>
    <style>.cls-1{isolation:isolate;}.cls-2,.cls-3,.cls-4{fill:#8ebcd6;}.cls-10,.cls-2,.cls-4{mix-blend-mode:multiply;}.cls-10,.cls-4,.cls-9{opacity:0.4;}.cls-10,.cls-5,.cls-8,.cls-9{fill:#9ecee8;}.cls-6{fill:#402d22;}.cls-7{fill:#d2c9be;}.cls-8{mix-blend-mode:screen;}</style>
  </defs>
  <g class="cls-1">
    <g id="Слой_2" data-name="Слой 2">
      <g id="Слой_1-2" data-name="Слой 1">
        <polygon class="cls-2" points="55.49 39.17 105.92 17.78 99.95 80.29 55.49 102.8 55.49 39.17"></polygon>
        <polygon class="cls-3" points="1.82 28.15 54.92 49.29 55.49 102.8 7.43 80.18 1.82 28.15"></polygon>
        <polygon class="cls-4" points="1.82 28.15 6.67 71.33 55.36 49.44 55.43 11.17 1.82 28.15"></polygon>
        <polygon class="cls-5" points="6.67 71.33 55.36 49.44 100.85 69.1 54.92 92.33 6.67 71.33"></polygon>
        <path class="cls-6" d="M48.64,57c-.3-2.19-2.61-3.67-5.16-3.32S37.92,56,38.22,58.2,42,62,44.57,61.63,49,59.22,48.64,57Z"></path>
        <path class="cls-7" d="M47.38,60.27a5.14,5.14,0,0,1-3.25,1.31,7.35,7.35,0,0,1-3.44-.78,4,4,0,0,1-2.28-2.49,3.09,3.09,0,0,1,1.49-2.89A8,8,0,0,1,43.09,54a5,5,0,0,1,3.44.34A3.8,3.8,0,0,1,48.63,57,3.84,3.84,0,0,1,47.38,60.27Zm-.76-6.13A5.42,5.42,0,0,0,43,53.6a8.44,8.44,0,0,0-3.35,1.52,3.4,3.4,0,0,0-1.56,3.25A4.27,4.27,0,0,0,40.58,61a7.47,7.47,0,0,0,3.56.75,5.24,5.24,0,0,0,3.3-1.44,3.79,3.79,0,0,0-.82-6.19Z"></path>
        <path class="cls-6" d="M43.78,66.6c-1.6-1.52-4.34-1.24-6.11.62S34.75,72.48,36.35,74s5.32.6,7.1-1.26S45.37,68.13,43.78,66.6Z"></path>
        <path class="cls-7" d="M44.8,69.92a5.08,5.08,0,0,1-1.73,3,7.11,7.11,0,0,1-3.17,1.53A4,4,0,0,1,36.56,74a3.08,3.08,0,0,1-.63-3.19,7.83,7.83,0,0,1,1.6-3.11,5,5,0,0,1,2.9-1.87,3.52,3.52,0,0,1,4.37,4.12ZM40.39,65.6a5.35,5.35,0,0,0-3.16,1.82,8.41,8.41,0,0,0-1.67,3.27,3.44,3.44,0,0,0,.8,3.52,4.31,4.31,0,0,0,3.59.53A7.43,7.43,0,0,0,43.2,73.1a5.18,5.18,0,0,0,1.68-3.17,3.86,3.86,0,0,0-1.09-3.34A3.9,3.9,0,0,0,40.39,65.6Z"></path>
        <polygon class="cls-5" points="55.43 11.17 1.82 28.15 54.92 49.29 104.58 28.15 55.43 11.17"></polygon>
        <path class="cls-6" d="M33.82,58.25c-1.51-1.61-4.26-1.48-6.14.28s-3.2,5.09-1.69,6.7,5.28.89,7.16-.87S35.33,59.86,33.82,58.25Z"></path>
        <path class="cls-7" d="M34.66,61.62a5.11,5.11,0,0,1-1.9,2.94,7.16,7.16,0,0,1-3.25,1.36,4,4,0,0,1-3.3-.71A3.07,3.07,0,0,1,25.75,62a8,8,0,0,1,1.77-3,5.1,5.1,0,0,1,3-1.71,3.79,3.79,0,0,1,3.28,1A3.83,3.83,0,0,1,34.66,61.62Zm-4.17-4.56a5.34,5.34,0,0,0-3.25,1.65,8.41,8.41,0,0,0-1.86,3.17A3.43,3.43,0,0,0,26,65.44a4.26,4.26,0,0,0,3.55.72,7.29,7.29,0,0,0,3.33-1.45,5.25,5.25,0,0,0,1.86-3.08,3.79,3.79,0,0,0-4.25-4.57Z"></path>
        <path class="cls-6" d="M53.68,77.46c1.58-1.53,1.42-4.28-.37-6.13s-5.13-3.14-6.72-1.6-.82,5.29,1,7.14S52.09,79,53.68,77.46Z"></path>
        <path class="cls-7" d="M50.32,78.34a5.06,5.06,0,0,1-3-1.85A7.3,7.3,0,0,1,46,73.25a4,4,0,0,1,.66-3.31,3.1,3.1,0,0,1,3.22-.5,7.89,7.89,0,0,1,3,1.73,5,5,0,0,1,1.75,3,3.52,3.52,0,0,1-4.3,4.19Zm4.5-4.22a5.29,5.29,0,0,0-1.69-3.23,8.44,8.44,0,0,0-3.2-1.82,3.44,3.44,0,0,0-3.55.66,4.28,4.28,0,0,0-.67,3.56,7.42,7.42,0,0,0,1.49,3.32,5.23,5.23,0,0,0,3.11,1.81,3.77,3.77,0,0,0,4.51-4.3Z"></path>
        <path class="cls-6" d="M32,73.72c1.3-1.79.66-4.46-1.42-6s-5.6-2.2-6.9-.41.12,5.36,2.2,6.87S30.66,75.51,32,73.72Z"></path>
        <path class="cls-7" d="M28.8,75.18a5.11,5.11,0,0,1-3.24-1.31,7.23,7.23,0,0,1-1.95-3,4,4,0,0,1,.08-3.37,3.11,3.11,0,0,1,3.08-1.06,8,8,0,0,1,3.3,1.18,5,5,0,0,1,2.24,2.63,3.52,3.52,0,0,1-3.51,4.88Zm3.7-5a5.42,5.42,0,0,0-2.23-2.89,8.4,8.4,0,0,0-3.46-1.22,3.43,3.43,0,0,0-3.38,1.26A4.31,4.31,0,0,0,23.38,71a7.42,7.42,0,0,0,2.05,3,5.24,5.24,0,0,0,3.37,1.25,3.78,3.78,0,0,0,3.7-5Z"></path>
        <polygon class="cls-8" points="12.54 46.24 14.55 69.47 19.25 71.48 17.23 49.37 12.54 46.24"></polygon>
        <polygon class="cls-8" points="21.25 72.15 25.43 74.01 24.61 42.44 19.25 40.21 21.25 72.15"></polygon>
        <polygon class="cls-9" points="55.49 0 55.43 11.17 91.84 23.68 105.92 17.78 55.49 0"></polygon>
        <path class="cls-6" d="M61.93,59.63C64,59,65.14,56.47,64.39,54s-3.15-5.12-5.26-4.47S56,53.87,56.75,56.34,59.82,60.28,61.93,59.63Z"></path>
        <path class="cls-7" d="M58.54,58.9a5.1,5.1,0,0,1-1.8-3A7.13,7.13,0,0,1,57,52.38a4,4,0,0,1,2.09-2.65,3.08,3.08,0,0,1,3.09,1,8.05,8.05,0,0,1,1.93,2.92,5.12,5.12,0,0,1,.21,3.45,3.52,3.52,0,0,1-5.74,1.79Zm5.93-1.73a5.36,5.36,0,0,0,0-3.64,8.45,8.45,0,0,0-2-3.07,3.44,3.44,0,0,0-3.46-1,4.27,4.27,0,0,0-2.22,2.87,7.44,7.44,0,0,0-.17,3.63,5.17,5.17,0,0,0,1.94,3,3.78,3.78,0,0,0,6-1.79Z"></path>
        <path class="cls-6" d="M76.68,77.27c1.3-1.78.67-4.46-1.4-6s-5.59-2.21-6.9-.43.1,5.35,2.17,6.88S75.38,79.05,76.68,77.27Z"></path>
        <path class="cls-7" d="M73.53,78.71a5.08,5.08,0,0,1-3.25-1.32,7.12,7.12,0,0,1-1.93-3,4,4,0,0,1,.09-3.37,3.09,3.09,0,0,1,3.08-1,8.06,8.06,0,0,1,3.3,1.19A5.08,5.08,0,0,1,77,73.84a3.51,3.51,0,0,1-3.51,4.87Zm3.71-4.93A5.32,5.32,0,0,0,75,70.89a8.29,8.29,0,0,0-3.46-1.24,3.4,3.4,0,0,0-3.38,1.25,4.27,4.27,0,0,0-.06,3.63,7.4,7.4,0,0,0,2,3,5.2,5.2,0,0,0,3.37,1.25,3.87,3.87,0,0,0,3.17-1.51A3.91,3.91,0,0,0,77.24,73.78Z"></path>
        <path class="cls-6" d="M82.17,64.28c1.34-1.76.75-4.45-1.31-6S75.31,56,74,57.74,74,63.1,76,64.65,80.84,66,82.17,64.28Z"></path>
        <path class="cls-7" d="M79,65.67a5,5,0,0,1-3.22-1.37,7.2,7.2,0,0,1-1.89-3A4,4,0,0,1,74,58a3.11,3.11,0,0,1,3.1-1,8.15,8.15,0,0,1,3.28,1.24,5,5,0,0,1,2.18,2.67A3.5,3.5,0,0,1,79,65.67Zm3.79-4.87a5.44,5.44,0,0,0-2.17-2.93,8.36,8.36,0,0,0-3.45-1.29,3.41,3.41,0,0,0-3.4,1.2,4.29,4.29,0,0,0-.11,3.62,7.39,7.39,0,0,0,2,3.05A5.25,5.25,0,0,0,79,65.75a3.85,3.85,0,0,0,3.19-1.46A3.91,3.91,0,0,0,82.79,60.8Z"></path>
        <path class="cls-6" d="M65.63,69.53c1.62-1.49,1.52-4.24-.22-6.14s-5.06-3.25-6.68-1.75-.95,5.27.8,7.17S64,71,65.63,69.53Z"></path>
        <path class="cls-7" d="M62.25,70.34a5.11,5.11,0,0,1-2.92-1.92A7.28,7.28,0,0,1,58,65.15a4.05,4.05,0,0,1,.74-3.3A3.11,3.11,0,0,1,62,61.42a8.21,8.21,0,0,1,3,1.8,5.07,5.07,0,0,1,1.68,3,3.52,3.52,0,0,1-4.4,4.1Zm4.6-4.12A5.42,5.42,0,0,0,65.24,63a8.44,8.44,0,0,0-3.16-1.89,3.43,3.43,0,0,0-3.56.58,4.25,4.25,0,0,0-.76,3.54,7.36,7.36,0,0,0,1.42,3.35,5.22,5.22,0,0,0,3.06,1.89,3.78,3.78,0,0,0,4.61-4.2Z"></path>
        <path class="cls-6" d="M58.35,79.39c-.17-2.2-2.39-3.82-5-3.62s-5.68,2-5.51,4.16,3.56,4,6.13,3.8S58.52,81.59,58.35,79.39Z"></path>
        <path class="cls-7" d="M56.9,82.54a5.09,5.09,0,0,1-3.32,1.11,7.24,7.24,0,0,1-3.39-1,4,4,0,0,1-2.13-2.62,3.09,3.09,0,0,1,1.66-2.8A8.15,8.15,0,0,1,53,76a5.07,5.07,0,0,1,3.41.56,3.72,3.72,0,0,1,1.93,2.83A3.82,3.82,0,0,1,56.9,82.54Zm-.39-6.16a5.31,5.31,0,0,0-3.57-.75,8.45,8.45,0,0,0-3.44,1.31,3.44,3.44,0,0,0-1.75,3.15,4.28,4.28,0,0,0,2.32,2.79,7.34,7.34,0,0,0,3.51,1A5.25,5.25,0,0,0,57,82.6a3.78,3.78,0,0,0-.44-6.22Z"></path>
        <polygon class="cls-10" points="106.14 17.56 55.71 38.95 55.47 49.72 104.8 27.92 106.14 17.56"></polygon>
        <polygon class="cls-4" points="55.38 49.07 55.38 92.11 101.31 68.88 105.03 27.92 55.38 49.07"></polygon>
        <polygon class="cls-9" points="0 15.98 55.49 0 55.43 11.17 1.82 28.15 0 15.98"></polygon>
        <polygon class="cls-10" points="0 15.98 1.82 28.15 55.47 49.72 55.71 38.95 0 15.98"></polygon>
      </g>
    </g>
  </g>
</svg>
