<?xml version="1.0" encoding="UTF-8"?>
<svg xmlns="http://www.w3.org/2000/svg" viewBox="0 0 110.12 237.98">
  <defs>
    <style>.cls-1{fill:#8b5b3c;}.cls-2{fill:#956d4b;}.cls-3{fill:#754120;}.cls-4{fill:#a17551;}.cls-5{fill:#44281c;}.cls-6{fill:#6c3c1d;}.cls-7{fill:#714d31;}.cls-8{fill:#613822;}.cls-9{fill:#7f5637;}.cls-10{fill:#a07850;}.cls-11{fill:#93c6ee;}.cls-12{fill:#c9e2f6;}.cls-13{fill:#aed4f2;}</style>
  </defs>
  <g id="Слой_2" data-name="Слой 2">
    <g id="Слой_1-2" data-name="Слой 1">
      <polygon class="cls-1" points="7.72 214.46 57.69 237.98 103.91 214.58 55.86 194.21 7.72 214.46"></polygon>
      <polygon class="cls-1" points="0 147.72 57.69 171.82 110.12 149.59 57.69 131.1 0 147.72"></polygon>
      <path class="cls-2" d="M57.69,171.83v30.28s16-11.77,22.42-12.36,19.1,24.24,23.81,24.83l6.2-65Z"></path>
      <path class="cls-3" d="M4.22,183.87l3.5,30.59,50,23.52V202.1S30.1,190.34,27.16,186.22s-22.94-2.35-22.94-2.35"></path>
      <path class="cls-4" d="M0,147.72l4.22,36.15s5.39.43,11.18.59c7.25.19,14.12,4.9,19.61,10.39,6.38,6.38,22.68,7.25,22.68,7.25V171.82Z"></path>
      <path class="cls-5" d="M38.45,205.94a2.27,2.27,0,0,0-.11-.89h0s-.38-1-1.28-1-1.42.5-1.36.77l.19.41,0,0,.75.62.13.11.15.11c.35.24.3.34.66.41a1.08,1.08,0,0,0,.74-.18l.07-.13h0v0Z"></path>
      <path class="cls-5" d="M16.65,201.77a4.47,4.47,0,0,0-1.49.82h0s-1.5,1.38-.91,3,1.89,2.16,2.34,1.86l.58-.63v-.06a14.4,14.4,0,0,0,.58-1.76l.08-.31.09-.34c.19-.78.39-.77.26-1.46a2,2,0,0,0-.84-1.15l-.28-.05h0Z"></path>
      <path class="cls-5" d="M51.87,222.12A11,11,0,0,0,50,218.3h0s-3.31-3.9-7.35-2.59-5.59,4.54-4.89,5.68a15.65,15.65,0,0,0,1.53,1.52l.14,0c1.19.77,3.39,1.14,4.37,1.62a2.18,2.18,0,0,0,.77.25c.21.07.45.15.84.26,1.93.54,1.89,1,3.64.79a5.15,5.15,0,0,0,3-2,4.06,4.06,0,0,0,.13-.69h0l0-.07a1.27,1.27,0,0,0-.28-1"></path>
      <path class="cls-5" d="M25.75,208.84a8.46,8.46,0,0,0-1.86,2.68h0s-1.4,3.66,1,5.89,5.11,2.09,5.62,1.19a13.77,13.77,0,0,0,.46-1.59l0-.09a31.3,31.3,0,0,0-.52-3.53,1.78,1.78,0,0,0-.12-.62c0-.16-.07-.35-.14-.65-.34-1.5,0-1.66-.8-2.74a4,4,0,0,0-2.44-1.27l-.52.17h0l-.05,0a1,1,0,0,0-.54.54"></path>
      <path class="cls-6" d="M57.69,202.1s11.24-15.88,24.18-16.27S107.56,176,107.56,176l-3.64,38.56L57.69,238Z"></path>
      <path class="cls-5" d="M74.18,208.15a11,11,0,0,0-4,1.33v0s-4.3,2.69-3.59,6.84,3.66,6.13,4.88,5.6a14.71,14.71,0,0,0,1.71-1.28l0-.13c.92-1.06,1.6-3.16,2.21-4.06a2,2,0,0,0,.35-.72c.11-.2.21-.42.37-.78.82-1.82,1.29-1.72,1.3-3.46a5.12,5.12,0,0,0-1.54-3.21,3.47,3.47,0,0,0-.65-.22v0h-.07a1.26,1.26,0,0,0-1,.14"></path>
      <path class="cls-5" d="M95.41,206.9a3.28,3.28,0,0,0-1.25-.3h0a2.31,2.31,0,0,0-2,1.18c-.49,1.18-.05,2.18.35,2.24l.65,0,0,0a10.59,10.59,0,0,0,1.23-.69l.21-.13.22-.14c.51-.34.62-.24.9-.68a1.59,1.59,0,0,0,.12-1.08L95.7,207h0Z"></path>
      <path class="cls-5" d="M91.57,195.77a8.52,8.52,0,0,0-2.83-1.67v0S85,193,82.9,195.49s-1.7,5.29-.77,5.74a12.57,12.57,0,0,0,1.63.34l.1,0a28.09,28.09,0,0,0,3.5-.79,1.62,1.62,0,0,0,.61-.16c.16,0,.35-.09.65-.19,1.48-.46,1.66-.12,2.68-1a4,4,0,0,0,1.09-2.55l-.2-.5h0l0,0a.91.91,0,0,0-.58-.5"></path>
      <path class="cls-7" d="M54.19,157.6a1.58,1.58,0,0,0-1.54-.56c-.84.26-1.18.93-1,1.18l.31.32.68-.39Z"></path>
      <path class="cls-8" d="M54.63,158.62s-.27-1.15-.7-1.17a9.17,9.17,0,0,1-.93-.08l-.12.21.6.82.58.17Z"></path>
      <path class="cls-9" d="M54.6,158.77c0-.1.1-.37-.17-.45a4.73,4.73,0,0,0-.57-.12l-.83.61c-.13.08-.23.08.18.19s.39.23.76.18a1.12,1.12,0,0,0,.63-.41"></path>
      <path class="cls-10" d="M53.86,158.2l-.51.5-.48.19-1-.45c-.16-.24-.16-.22,0-.51a1.3,1.3,0,0,1,.82-.5.71.71,0,0,1,.81.17Z"></path>
      <path class="cls-7" d="M50.7,138a2.33,2.33,0,0,0-2.37-.34c-1.14.64-1.41,1.71-1.13,2l.55.37c.37.23.83-.76.86-.77Z"></path>
      <path class="cls-8" d="M51.65,139.29s-.74-1.59-1.37-1.47a13.4,13.4,0,0,1-1.35.17l-.11.34s.85,1,1.12,1,.76,0,.88.07Z"></path>
      <path class="cls-9" d="M51.65,139.5c0-.15,0-.55-.38-.59a6.88,6.88,0,0,0-.85,0l-1,1.13c-.17.16-.3.18.31.22s.64.2,1.15,0a1.56,1.56,0,0,0,.78-.78"></path>
      <path class="cls-10" d="M50.42,138.91a7.88,7.88,0,0,0-.58.88c-.21.4-.24.52-.63.42s-1.33,0-1.64-.34-.29-.26-.09-.74a1.94,1.94,0,0,1,1-1,1.08,1.08,0,0,1,1.22,0,2.82,2.82,0,0,1,.7.75"></path>
      <path class="cls-7" d="M46,145.16s-4.89-2.44-8.31.54-3.59,6.81-2.41,7.64a14.8,14.8,0,0,0,2.14.85c1.41.52,2.29-3.15,2.37-3.2Z"></path>
      <path class="cls-8" d="M50.18,149s-3.63-4.86-5.7-4S40,146.55,40,146.55l-.14,1.24s3.58,2.65,4.52,2.57S47,150,47.44,150a22.25,22.25,0,0,0,2.74-.95"></path>
      <path class="cls-9" d="M50.32,149.76c0-.54-.24-1.93-1.71-1.73a21.33,21.33,0,0,0-2.88.61s-2.14,3.89-2.61,4.55-.92.82,1.21.54,2.3.22,3.91-.75a5.47,5.47,0,0,0,2.08-3.22"></path>
      <path class="cls-10" d="M45.73,148.64A25.69,25.69,0,0,0,44.39,152c-.44,1.54-.46,2-1.86,1.89s-4.54.83-5.8,0-1.2-.68-.85-2.46,1.17-2.63,2.78-4a3.66,3.66,0,0,1,4.14-.87,9.3,9.3,0,0,1,2.93,2"></path>
      <path class="cls-7" d="M62.92,146.19s-4.1-2.42-7.25,0-3.52,5.7-2.56,6.49a13.16,13.16,0,0,0,1.82.87c1.19.54,2.17-2.6,2.24-2.64Z"></path>
      <path class="cls-8" d="M66.31,149.79s-2.85-4.44-4.7-3.82-4,1.07-4,1.07l-.19,1.06s2.94,2.52,3.77,2.5,2.31-.17,2.68-.15a18.42,18.42,0,0,0,2.43-.66"></path>
      <path class="cls-9" d="M66.39,150.44c0-.47-.1-1.69-1.38-1.61a18.82,18.82,0,0,0-2.54.36s-2.09,3.25-2.54,3.79-.84.66,1,.55,2,.32,3.44-.42a4.76,4.76,0,0,0,2-2.67"></path>
      <path class="cls-10" d="M62.47,149.19A22.65,22.65,0,0,0,61.11,152c-.48,1.31-.52,1.68-1.73,1.53s-4,.45-5-.32-1-.66-.59-2.19,1.18-2.21,2.66-3.32a3.17,3.17,0,0,1,3.65-.5,8.18,8.18,0,0,1,2.41,1.95"></path>
      <path class="cls-7" d="M73.79,141.85s-4.05-3.12-7.72-1-4.52,5.59-3.59,6.56a14.55,14.55,0,0,0,1.8,1.17c1.21.74,2.68-2.48,2.76-2.51Z"></path>
      <path class="cls-8" d="M76.92,146.15s-2.45-5.11-4.5-4.71S68,142,68,142l-.35,1.11s2.8,3.08,3.68,3.18,2.49.12,2.87.19a19.87,19.87,0,0,0,2.69-.37"></path>
      <path class="cls-9" d="M76.91,146.85c.06-.5.13-1.81-1.25-1.9a19.77,19.77,0,0,0-2.75,0s-2.66,3.18-3.22,3.7-1,.58,1,.72,2.07.61,3.72,0a5.13,5.13,0,0,0,2.49-2.57"></path>
      <path class="cls-10" d="M72.91,145a23.75,23.75,0,0,0-1.84,2.86c-.68,1.33-.78,1.71-2,1.39s-4.31-.06-5.32-1-1-.83-.33-2.41,1.55-2.19,3.27-3.17a3.41,3.41,0,0,1,4,0,8.78,8.78,0,0,1,2.31,2.4"></path>
      <path class="cls-7" d="M76.93,154.94a2.44,2.44,0,0,0,2.24-1.11c.61-1.23.21-2.31-.21-2.4h-.69c-.46,0-.27,1.14-.29,1.16Z"></path>
      <path class="cls-8" d="M75.32,154.35s1.57.93,2.05.45,1.06-.94,1.06-.94l-.1-.36-1.55-.19c-.26.13-.69.41-.81.46Z"></path>
      <path class="cls-9" d="M75.2,154.16c.07.14.29.51.67.29a6.5,6.5,0,0,0,.73-.51l.2-1.57c.06-.23.16-.33-.4,0s-.66.2-1,.66a1.65,1.65,0,0,0-.2,1.13"></path>
      <path class="cls-10" d="M76.6,153.94a6.9,6.9,0,0,0,0-1.09c0-.48-.1-.6.3-.74s1.17-.76,1.61-.68.41,0,.52.59a2,2,0,0,1-.31,1.43,1.1,1.1,0,0,1-1,.72,2.81,2.81,0,0,1-1.05-.23"></path>
      <path class="cls-7" d="M38.4,155.81s2.08.28,3-1.22.47-2.91-.06-3.07a6.75,6.75,0,0,0-.88-.05c-.58,0-.44,1.43-.47,1.46Z"></path>
      <path class="cls-8" d="M36.41,154.92s1.91,1.32,2.56.75,1.44-1.11,1.44-1.11l-.1-.46a6.23,6.23,0,0,0-2-.38c-.33.14-.91.46-1.06.52Z"></path>
      <path class="cls-9" d="M36.27,154.67c.08.18.32.67.83.42a7.77,7.77,0,0,0,1-.58s.3-1.68.39-2,.24-.41-.5,0-.87.2-1.33.75a2.08,2.08,0,0,0-.36,1.43"></path>
      <path class="cls-10" d="M38.07,154.51a9.52,9.52,0,0,0,.07-1.39c0-.61-.07-.77.45-.92s1.55-.86,2.1-.72.52.1.61.79a2.47,2.47,0,0,1-.51,1.8,1.42,1.42,0,0,1-1.4.83,3.74,3.74,0,0,1-1.32-.39"></path>
      <path class="cls-7" d="M52,148.07a1.79,1.79,0,0,0,1.82.32c.9-.46,1.14-1.28.93-1.53l-.42-.29c-.28-.19-.66.56-.68.57Z"></path>
      <path class="cls-8" d="M51.25,147s.53,1.24,1,1.17a9.8,9.8,0,0,1,1-.1l.09-.26-.84-.79-.68-.08Z"></path>
      <path class="cls-9" d="M51.25,146.85c0,.12,0,.43.28.47a4.17,4.17,0,0,0,.66,0l.8-.85c.14-.12.24-.13-.23-.18s-.49-.17-.89,0a1.2,1.2,0,0,0-.62.58"></path>
      <path class="cls-10" d="M52.19,147.34a5.1,5.1,0,0,0,.46-.66c.18-.32.21-.41.51-.32s1,.06,1.25.3.23.21.06.58a1.42,1.42,0,0,1-.81.72.82.82,0,0,1-.95,0,2.07,2.07,0,0,1-.52-.59"></path>
      <path class="cls-7" d="M68.42,155s4.6,1.12,6.9-2.05,1.72-6.43.57-6.9a13.21,13.21,0,0,0-2-.31c-1.29-.17-1.32,3.1-1.38,3.16Z"></path>
      <path class="cls-8" d="M64.16,152.58s4,3.4,5.57,2.28,3.48-2.15,3.48-2.15l-.12-1.07s-3.52-1.55-4.3-1.3-2.15.83-2.5.92a17.82,17.82,0,0,0-2.13,1.32"></path>
      <path class="cls-9" d="M63.9,152c.14.44.58,1.58,1.77,1.13A18.19,18.19,0,0,0,68,152.05s1.05-3.69,1.32-4.34.62-.86-1.12-.22-2,.25-3.15,1.38A4.77,4.77,0,0,0,63.9,152"></path>
      <path class="cls-10" d="M68,152.05a20.64,20.64,0,0,0,.48-3.1c.08-1.39,0-1.75,1.21-2s3.67-1.57,4.88-1.14,1.14.34,1.19,1.92-.48,2.43-1.57,3.91a3.14,3.14,0,0,1-3.32,1.53A8.08,8.08,0,0,1,68,152.05"></path>
      <path class="cls-7" d="M47.22,152.38s2.76,1.55,4.83-.08,2.26-3.83,1.61-4.34a8.17,8.17,0,0,0-1.22-.55c-.8-.35-1.41,1.75-1.46,1.78Z"></path>
      <path class="cls-8" d="M44.93,150s2,2.91,3.17,2.48,2.63-.77,2.63-.77l.12-.71s-2-1.63-2.54-1.61-1.53.15-1.78.14Z"></path>
      <path class="cls-9" d="M44.86,149.6c0,.31.09,1.12.94,1.05a13,13,0,0,0,1.69-.27s1.34-2.19,1.64-2.56.55-.44-.69-.35-1.32-.19-2.28.33a3.17,3.17,0,0,0-1.3,1.8"></path>
      <path class="cls-10" d="M47.48,150.38a15.64,15.64,0,0,0,.88-1.92c.29-.87.32-1.12,1.12-1s2.65-.35,3.35.14.67.43.42,1.45a3.79,3.79,0,0,1-1.71,2.24,2.12,2.12,0,0,1-2.42.38,5.45,5.45,0,0,1-1.64-1.26"></path>
      <path class="cls-11" d="M35.71,51.27s-11.56,11.7-5.9,18c5.52,6.14,14.24.55,11.07-7.8C38,54,35.71,51.27,35.71,51.27Z"></path>
      <path class="cls-12" d="M31.89,62.24c.4-1.21,1.3-4,1.66-5a25.91,25.91,0,0,1,1.57-3.22s1.1-2.12-1.71.92-4.56,8.64-3.71,9C30.39,64.21,31.5,63.42,31.89,62.24Z"></path>
      <path class="cls-13" d="M38.35,66.28c-.33,1.14-.17,2.2.36,2.36a2.11,2.11,0,0,0,2.11-1.57c.34-1.35-.34-2.45-.88-2.57S38.69,65.14,38.35,66.28Z"></path>
      <path class="cls-11" d="M55,51.27s-11.57,11.7-5.9,18c5.52,6.14,14.24.55,11.07-7.8C57.32,54,55,51.27,55,51.27Z"></path>
      <path class="cls-12" d="M51.18,62.24c.4-1.21,1.3-4,1.65-5a27.52,27.52,0,0,1,1.57-3.22s1.11-2.12-1.7.92S48.14,63.62,49,64C49.67,64.21,50.79,63.42,51.18,62.24Z"></path>
      <path class="cls-13" d="M57.64,66.28c-.34,1.14-.18,2.2.36,2.36a2.09,2.09,0,0,0,2.1-1.57c.34-1.35-.34-2.45-.87-2.57S58,65.14,57.64,66.28Z"></path>
      <path class="cls-11" d="M74.28,51.27s-11.56,11.7-5.9,18c5.52,6.14,14.25.55,11.07-7.8C76.6,54,74.28,51.27,74.28,51.27Z"></path>
      <path class="cls-12" d="M70.47,62.24c.39-1.21,1.29-4,1.65-5a25.91,25.91,0,0,1,1.57-3.22s1.1-2.12-1.71.92-4.56,8.64-3.71,9C69,64.21,70.07,63.42,70.47,62.24Z"></path>
      <path class="cls-13" d="M76.93,66.28c-.34,1.14-.18,2.2.36,2.36a2.11,2.11,0,0,0,2.1-1.57c.34-1.35-.34-2.45-.88-2.57S77.26,65.14,76.93,66.28Z"></path>
      <path class="cls-11" d="M47.54,25.64s-11.56,11.69-5.9,18c5.52,6.14,14.24.55,11.07-7.81C49.86,28.33,47.54,25.64,47.54,25.64Z"></path>
      <path class="cls-12" d="M43.72,36.6c.4-1.2,1.3-4,1.66-5A26.34,26.34,0,0,1,47,28.42s1.1-2.12-1.71.92-4.56,8.65-3.71,9C42.22,38.58,43.33,37.79,43.72,36.6Z"></path>
      <path class="cls-13" d="M50.18,40.64c-.34,1.14-.18,2.2.36,2.36a2.08,2.08,0,0,0,2.1-1.56c.35-1.36-.33-2.46-.87-2.58S50.52,39.5,50.18,40.64Z"></path>
      <path class="cls-11" d="M66.83,25.64s-11.57,11.69-5.91,18c5.53,6.14,14.25.55,11.07-7.81C69.15,28.33,66.83,25.64,66.83,25.64Z"></path>
      <path class="cls-12" d="M63,36.6c.4-1.2,1.3-4,1.65-5a26.34,26.34,0,0,1,1.57-3.23s1.11-2.12-1.71.92-4.56,8.65-3.7,9C61.5,38.58,62.62,37.79,63,36.6Z"></path>
      <path class="cls-13" d="M69.47,40.64c-.34,1.14-.18,2.2.36,2.36a2.08,2.08,0,0,0,2.1-1.56c.34-1.36-.34-2.46-.88-2.58S69.81,39.5,69.47,40.64Z"></path>
      <path class="cls-11" d="M57.38,0S45.81,11.69,51.47,18c5.52,6.14,14.25.55,11.07-7.8C59.7,2.69,57.38,0,57.38,0Z"></path>
      <path class="cls-12" d="M53.56,11c.4-1.21,1.3-4,1.65-5a26.34,26.34,0,0,1,1.57-3.23s1.11-2.12-1.71.93-4.56,8.64-3.7,9C52.05,12.94,53.16,12.15,53.56,11Z"></path>
      <path class="cls-13" d="M60,15c-.34,1.14-.18,2.19.36,2.35a2.09,2.09,0,0,0,2.1-1.56c.34-1.35-.34-2.45-.88-2.57S60.36,13.86,60,15Z"></path>
    </g>
  </g>
</svg>
