<?xml version="1.0" encoding="UTF-8"?>
<svg xmlns="http://www.w3.org/2000/svg" viewBox="0 0 106.14 102.8">
  <defs>
    <style>.cls-1{isolation:isolate;}.cls-2,.cls-3,.cls-4{fill:#82b7d9;}.cls-13,.cls-2,.cls-4{mix-blend-mode:multiply;}.cls-12,.cls-13,.cls-4{opacity:0.4;}.cls-11,.cls-12,.cls-13,.cls-5{fill:#8dc7ed;}.cls-6{fill:#d9d9d9;}.cls-7{fill:#a0753e;}.cls-8{fill:#50331b;}.cls-9{fill:#633f1a;}.cls-10{fill:none;}.cls-11{mix-blend-mode:screen;}</style>
  </defs>
  <g class="cls-1">
    <g id="Слой_2" data-name="Слой 2">
      <g id="Слой_1-2" data-name="Слой 1">
        <polygon class="cls-2" points="55.49 39.17 105.92 17.78 99.95 80.29 55.49 102.8 55.49 39.17"></polygon>
        <polygon class="cls-3" points="1.82 28.15 54.92 49.29 55.49 102.8 7.43 80.18 1.82 28.15"></polygon>
        <polygon class="cls-4" points="1.82 28.15 6.67 71.33 55.36 49.44 55.43 11.17 1.82 28.15"></polygon>
        <polygon class="cls-5" points="6.67 71.33 55.36 49.44 100.85 69.1 54.92 92.33 6.67 71.33"></polygon>
        <polygon class="cls-5" points="55.43 11.17 1.82 28.15 54.92 49.29 104.58 28.15 55.43 11.17"></polygon>
        <path class="cls-6" d="M82.34,66.09a1.56,1.56,0,0,1,.19.7c0,.12,0,.24,0,.37s.05.24,0,.37c-.12-.11-.1-.24-.14-.35s0-.24-.05-.36A1.63,1.63,0,0,1,82.34,66.09Z"></path>
        <path class="cls-6" d="M83.24,65.73a1.78,1.78,0,0,1,.35.78c0,.14.09.27.12.41a.73.73,0,0,1,0,.44,3.5,3.5,0,0,1-.31-.79A1.87,1.87,0,0,1,83.24,65.73Z"></path>
        <path class="cls-6" d="M84,65.24a1.62,1.62,0,0,1,.33.46l.12.25c0,.1.1.16,0,.29-.14,0-.13-.14-.2-.21s-.08-.17-.12-.25A1.7,1.7,0,0,1,84,65.24Z"></path>
        <path class="cls-6" d="M84.47,64.63c.28.05.38.28.53.46a2.85,2.85,0,0,1,.23.26c.06.1.18.15.17.32-.17,0-.21-.13-.3-.2l-.24-.26C84.71,65,84.49,64.91,84.47,64.63Z"></path>
        <path class="cls-6" d="M85.07,63.88c.34,0,.54.21.79.35s.25.13.37.21.25.13.31.31a.57.57,0,0,1-.41-.14c-.13-.06-.25-.15-.37-.22S85.23,64.18,85.07,63.88Z"></path>
        <path class="cls-6" d="M85.48,63.27a.73.73,0,0,1,.44,0c.15,0,.29.07.43.1l.43.1.21.05c.06,0,.15,0,.19.13s-.15,0-.23,0l-.22,0-.42-.09c-.14,0-.29,0-.43-.09A.82.82,0,0,1,85.48,63.27Z"></path>
        <path class="cls-6" d="M86,62.55a1.11,1.11,0,0,1,.69-.09H87c.12,0,.23,0,.35.11-.12.13-.23.06-.35.09h-.34A1.19,1.19,0,0,1,86,62.55Z"></path>
        <path class="cls-6" d="M86,61.79c.11-.14.23-.12.35-.15a2.23,2.23,0,0,1,.36,0l.37-.06h.18c.06,0,.12-.05.19,0s-.11.08-.17.11l-.18,0-.36.06-.36.06C86.26,61.83,86.14,61.89,86,61.79Z"></path>
        <path class="cls-7" d="M80.93,65.58s-.33.91.29,1a5.14,5.14,0,0,0,3.69-1.8,4.69,4.69,0,0,0,1.29-3.56c-.19-1-.51-.72-1-.07A44.12,44.12,0,0,1,80.93,65.58Z"></path>
        <path class="cls-8" d="M66.12,52.33s-2.05.53-2.18.64a17.88,17.88,0,0,0,2.8,1.86A4,4,0,0,0,66.12,52.33Z"></path>
        <path class="cls-8" d="M66.3,54.54c.35,1.65,1.09,5.84,3.35,8.81S74.56,67.2,78,67s6.42-2.39,7.81-6.58-.53-9.43-5-11.08-10.16-1.78-13.67-.45S65.67,51.6,66.3,54.54Z"></path>
        <path class="cls-9" d="M66.75,56.62s1.68,8,8.87,7.5c4.31-.29,7.24-5.22,7.16-7.84s-2.61-7.7-10.18-7.43-6.88.89-7.24,1.16-.19,1.08-.19,1.08.52,1.54.59,1.73.48,1.47.65,2.24S66.75,56.62,66.75,56.62Z"></path>
        <path class="cls-7" d="M67.93,51.94c-.88-.59-1,.07-.94.56a4.31,4.31,0,0,0,.2,1.24c.39,1.29.68,4.2,2.48,6.18,1,1.14,4,3.06,4.82,1.89S72.07,58.23,71,56.42C70.27,55.17,69.24,52.82,67.93,51.94Z"></path>
        <path class="cls-8" d="M68.07,48.86a2.82,2.82,0,0,0-.56-1c-.32-.26,2,.4,2.26.77S68.07,48.86,68.07,48.86Z"></path>
        <path class="cls-10" d="M81.37,66.39s-.16.71-.19,1"></path>
        <path class="cls-6" d="M28,62.48a2.22,2.22,0,0,1-.7.79c-.14.11-.26.24-.4.34s-.26.25-.48.25c0-.22.2-.3.32-.43a3.15,3.15,0,0,1,.38-.35A2.22,2.22,0,0,1,28,62.48Z"></path>
        <path class="cls-6" d="M29.13,63.27a2.45,2.45,0,0,1-.66,1c-.13.16-.25.32-.39.47s-.26.33-.51.37a4.79,4.79,0,0,1,.7-1A2.67,2.67,0,0,1,29.13,63.27Z"></path>
        <path class="cls-6" d="M30.31,63.78a2.13,2.13,0,0,1-.29.75,4.05,4.05,0,0,1-.21.35c-.1.09-.11.24-.31.28-.07-.2.06-.28.1-.41s.13-.23.19-.35A2.05,2.05,0,0,1,30.31,63.78Z"></path>
        <path class="cls-6" d="M31.43,63.86c.16.39,0,.69-.12,1,0,.17-.08.33-.13.49s0,.34-.25.46c-.13-.21,0-.35,0-.52s.08-.33.12-.49C31.13,64.48,31.1,64.13,31.43,63.86Z"></path>
        <path class="cls-6" d="M32.81,64c.29.39.18.81.2,1.22l.05.61a.87.87,0,0,1-.12.62.87.87,0,0,1-.18-.6v-.62A1.93,1.93,0,0,1,32.81,64Z"></path>
        <path class="cls-6" d="M33.86,64a1.17,1.17,0,0,1,.36.53c.09.19.14.4.22.59l.22.59.1.3c0,.11.13.17,0,.33-.2,0-.15-.16-.22-.25l-.12-.29-.23-.58c-.08-.2-.17-.39-.23-.59A1.11,1.11,0,0,1,33.86,64Z"></path>
        <path class="cls-6" d="M35.11,64a.74.74,0,0,1,.39.34,3.66,3.66,0,0,1,.26.42l.28.41c.06.16.23.25.15.49-.26,0-.27-.22-.39-.34s-.17-.28-.26-.42-.2-.27-.28-.41A.86.86,0,0,1,35.11,64Z"></path>
        <path class="cls-6" d="M36.06,63.45c.25,0,.32.18.46.29s.23.27.35.4l.35.39.17.2c0,.09.15.1.09.27s-.18-.07-.26-.11L37,64.7l-.36-.39a4.35,4.35,0,0,1-.36-.38C36.21,63.79,36.05,63.7,36.06,63.45Z"></path>
        <path class="cls-7" d="M27.46,60.39s-1.35.33-1,1.15a7.34,7.34,0,0,0,5.1,3c2.47.2,4.31-.29,5.3-1.28s.46-1.18-.72-1.28S28.05,60.78,27.46,60.39Z"></path>
        <path class="cls-8" d="M31.54,32.06S29.27,30,29,30s-.07,4.51,0,4.83S31.61,32.79,31.54,32.06Z"></path>
        <path class="cls-8" d="M29,34c-1.7,1.73-6.14,6-7.9,11.05S20.44,54,23.43,58s8,5.79,14.12,4.12S48.43,54,46.85,47.28s-6-13.59-10.35-16.75S32.07,31,29,34Z"></path>
        <path class="cls-9" d="M26.9,36.24S18.69,44.61,25,52.85c3.77,4.94,12,4.52,15.1,2.33s7.15-9.26.79-18.12-6.55-7.54-7.16-7.76-1.45.63-1.45.63-1.43,1.85-1.6,2.09a32.72,32.72,0,0,1-2.18,2.57C27.69,35.41,26.9,36.24,26.9,36.24Z"></path>
        <path class="cls-7" d="M33.45,33.92c0-1.53-.84-1.08-1.42-.68a6.32,6.32,0,0,0-1.32,1.24c-1.23,1.49-4.5,4.16-5.44,7.89-.54,2.13-.44,7.28,1.58,7.28s2.37-5.74,3.68-8.46C31.44,39.3,33.43,36.19,33.45,33.92Z"></path>
        <path class="cls-8" d="M37.26,31.64A4.22,4.22,0,0,0,38,30.16c.07-.6,1.14,2.76.89,3.32S37.26,31.64,37.26,31.64Z"></path>
        <path class="cls-10" d="M26.85,61.56s-1,.37-1.32.55"></path>
        <path class="cls-6" d="M54.17,55.63a2.1,2.1,0,0,1-.91.36,4.15,4.15,0,0,1-.48.11c-.16,0-.31.1-.49,0,.12-.17.29-.17.44-.23a4,4,0,0,1,.46-.13A2.11,2.11,0,0,1,54.17,55.63Z"></path>
        <path class="cls-6" d="M54.83,56.74a2.33,2.33,0,0,1-1,.59c-.17.07-.34.16-.52.22a.85.85,0,0,1-.57.1,4.14,4.14,0,0,1,1-.54A2.32,2.32,0,0,1,54.83,56.74Z"></path>
        <path class="cls-6" d="M55.64,57.63a2,2,0,0,1-.55.5,3.28,3.28,0,0,1-.31.2c-.12,0-.19.16-.37.1,0-.19.16-.2.24-.29s.21-.14.31-.21A2.2,2.2,0,0,1,55.64,57.63Z"></path>
        <path class="cls-6" d="M56.56,58.16c0,.39-.3.55-.51.77s-.19.24-.3.35-.16.26-.38.27c0-.22.13-.29.2-.43s.2-.23.3-.34S56.18,58.24,56.56,58.16Z"></path>
        <path class="cls-6" d="M57.68,58.83c.09.44-.16.73-.31,1.08-.07.17-.12.35-.2.52s-.12.35-.34.46a.84.84,0,0,1,.09-.57c.07-.17.15-.34.23-.51C57.28,59.47,57.32,59.08,57.68,58.83Z"></path>
        <path class="cls-6" d="M58.58,59.26a1.09,1.09,0,0,1,.09.58,5.48,5.48,0,0,1-.05.57l0,.57,0,.28c0,.1.05.2-.12.28-.16-.1-.07-.19-.09-.29V61l0-.57c0-.19,0-.38,0-.57A1,1,0,0,1,58.58,59.26Z"></path>
        <path class="cls-6" d="M59.64,59.77a.66.66,0,0,1,.2.43,3.44,3.44,0,0,1,0,.45c0,.15.06.3.08.45s.09.29-.06.47c-.21-.13-.14-.29-.2-.43s0-.3-.06-.45-.06-.3-.07-.45A.71.71,0,0,1,59.64,59.77Z"></path>
        <path class="cls-6" d="M60.66,59.7c.21.11.2.28.27.43a4.11,4.11,0,0,1,.15.46l.15.47.06.23c0,.09.09.14,0,.27-.16,0-.12-.13-.17-.2L61,61.13l-.15-.46a4.19,4.19,0,0,1-.16-.46C60.66,60.05,60.55,59.91,60.66,59.7Z"></path>
        <path class="cls-7" d="M54.54,53.71s-1.28-.29-1.29.53a6.88,6.88,0,0,0,3.17,4.52c2,1.17,3.78,1.52,5,1.11s.85-.78-.12-1.34S54.89,54.27,54.54,53.71Z"></path>
        <path class="cls-8" d="M69.07,32.24s-1.13-2.59-1.3-2.74-1.82,3.65-1.89,4S68.84,32.85,69.07,32.24Z"></path>
        <path class="cls-8" d="M66.17,32.83c-2.12.72-7.56,2.37-11,5.81S51,45.66,52,50.1s4.53,8,10.41,9.12S74.9,57,76.16,50.9s.23-13.53-2.27-17.9S70,31.54,66.17,32.83Z"></path>
        <path class="cls-9" d="M63.49,33.76s-10.26,3.49-8.12,12.79c1.29,5.56,8.48,8.59,11.95,8.05S77,50,75.07,40.12,72.44,31.29,72,30.87s-1.49-.08-1.49-.08l-2.18,1.06a28.63,28.63,0,0,1-2.85,1.21C64.49,33.4,63.49,33.76,63.49,33.76Z"></path>
        <path class="cls-7" d="M70,34.53c.6-1.25-.29-1.22-.94-1.13a6,6,0,0,0-1.61.47c-1.63.71-5.46,1.57-7.71,4.23-1.3,1.52-3.22,5.77-1.5,6.59s4.26-3.73,6.44-5.41C66.16,38.11,69.07,36.38,70,34.53Z"></path>
        <path class="cls-8" d="M74.11,34.22a3.72,3.72,0,0,0,1.22-.9c.29-.46-.1,2.72-.54,3.07S74.11,34.22,74.11,34.22Z"></path>
        <path class="cls-10" d="M53.55,54.41s-1-.09-1.33-.08"></path>
        <path class="cls-6" d="M45.41,71.69a1.78,1.78,0,0,1-.2.75c-.05.11-.1.24-.16.35s-.09.24-.23.32a.7.7,0,0,1,.07-.39,3.65,3.65,0,0,1,.14-.35A1.77,1.77,0,0,1,45.41,71.69Z"></path>
        <path class="cls-6" d="M46.43,71.81a1.9,1.9,0,0,1-.09.89c0,.14-.07.29-.11.43a.72.72,0,0,1-.22.41,3.24,3.24,0,0,1,.14-.88A1.9,1.9,0,0,1,46.43,71.81Z"></path>
        <path class="cls-6" d="M47.38,71.73a1.9,1.9,0,0,1,0,.58,2.85,2.85,0,0,1,0,.29c0,.09,0,.19-.11.28-.11-.1,0-.2-.07-.29a2.64,2.64,0,0,1,0-.29A1.41,1.41,0,0,1,47.38,71.73Z"></path>
        <path class="cls-6" d="M48.15,71.4c.22.2.19.45.24.69s.06.23.08.35.08.23,0,.37c-.15-.09-.12-.22-.17-.33s-.05-.23-.08-.35S48,71.68,48.15,71.4Z"></path>
        <path class="cls-6" d="M49.11,71a.71.71,0,0,1,.32.32c.07.12.14.26.2.39s.16.24.23.37a.57.57,0,0,1,.13.43c-.18-.06-.23-.2-.31-.32s-.14-.26-.21-.39-.17-.24-.24-.37A.61.61,0,0,1,49.11,71Z"></path>
        <path class="cls-6" d="M49.8,70.66a.75.75,0,0,1,.41.22c.12.09.22.2.34.3l.34.3.16.15c0,.07.14.07.11.21s-.15,0-.22-.08l-.18-.14-.34-.3a3.07,3.07,0,0,1-.34-.29A.81.81,0,0,1,49.8,70.66Z"></path>
        <path class="cls-6" d="M50.63,70.23c.29,0,.46.15.68.27a2.38,2.38,0,0,1,.31.17c.09.08.23.07.27.26-.18.07-.25-.05-.37-.09l-.31-.18C51,70.55,50.76,70.49,50.63,70.23Z"></path>
        <path class="cls-6" d="M51.08,69.56c.16-.08.27,0,.39,0l.37.14.36.12.18.08s.13,0,.15.14-.14,0-.21,0l-.18,0-.37-.12c-.12,0-.25-.07-.36-.12S51.16,69.73,51.08,69.56Z"></path>
        <path class="cls-7" d="M44.38,70.54s-.78.67-.28,1.07a5.51,5.51,0,0,0,4.36.17c1.7-.71,2.76-1.65,3.09-2.62s-.08-.91-.9-.57A50.15,50.15,0,0,1,44.38,70.54Z"></path>
        <path class="cls-8" d="M37.85,51.15s-2.17-.52-2.34-.49a17,17,0,0,0,1.58,3.08A4.18,4.18,0,0,0,37.85,51.15Z"></path>
        <path class="cls-8" d="M36.84,53.26c-.56,1.67-2.13,5.87-1.63,9.7s2.45,5.93,5.72,7.43,7.17,1,10.7-2.18S56.18,59.32,53,55.62,44.57,49,40.64,48.49,37.84,50.26,36.84,53.26Z"></path>
        <path class="cls-9" d="M36.14,55.38s-2.71,8.11,4.15,11.21c4.11,1.86,9.45-1.22,10.77-3.65s1.72-8.32-5.39-11.79-6.8-2.56-7.27-2.5-.76.9-.76.9-.34,1.66-.38,1.87a23.16,23.16,0,0,1-.6,2.37C36.39,54.58,36.14,55.38,36.14,55.38Z"></path>
        <path class="cls-7" d="M39.72,51.68c-.49-1-.9-.4-1.16,0A4.54,4.54,0,0,0,38.09,53c-.33,1.36-1.62,4.17-1,6.86.33,1.54,2.08,4.78,3.42,4.1s-.31-4.46-.32-6.64C40.15,55.79,40.45,53.13,39.72,51.68Z"></path>
        <path class="cls-8" d="M41.51,48.93a2.93,2.93,0,0,0,0-1.19c-.14-.4,1.66,1.36,1.68,1.81S41.51,48.93,41.51,48.93Z"></path>
        <path class="cls-10" d="M44.36,71.5s-.53.57-.69.79"></path>
        <path class="cls-6" d="M57.6,48.49a1.81,1.81,0,0,1-.15-.76c0-.13,0-.26,0-.39s0-.25.06-.38c.11.12.08.25.11.37s0,.26,0,.38A1.74,1.74,0,0,1,57.6,48.49Z"></path>
        <path class="cls-6" d="M56.65,48.84a1.77,1.77,0,0,1-.32-.84c0-.15-.08-.29-.1-.44a.7.7,0,0,1,0-.45,3.77,3.77,0,0,1,.28.84A2,2,0,0,1,56.65,48.84Z"></path>
        <path class="cls-6" d="M55.83,49.34a1.85,1.85,0,0,1-.3-.5c0-.09-.08-.18-.11-.27s-.1-.17,0-.3c.15,0,.14.15.2.23l.11.27A1.49,1.49,0,0,1,55.83,49.34Z"></path>
        <path class="cls-6" d="M55.29,50c-.29-.07-.38-.31-.53-.5s-.15-.18-.22-.28-.18-.17-.15-.34c.17,0,.2.14.3.22s.15.19.22.28S55.28,49.67,55.29,50Z"></path>
        <path class="cls-6" d="M54.61,50.75a.63.63,0,0,1-.43-.15,2.9,2.9,0,0,1-.36-.25c-.12-.08-.26-.15-.37-.23s-.26-.14-.32-.33c.2,0,.3.08.43.15s.24.17.36.25.26.14.38.22A.69.69,0,0,1,54.61,50.75Z"></path>
        <path class="cls-6" d="M54.15,51.38a.83.83,0,0,1-.47,0l-.43-.12-.44-.11-.22-.07c-.06,0-.15,0-.19-.14s.16,0,.24,0l.22,0,.44.11c.14,0,.29.06.43.11A.84.84,0,0,1,54.15,51.38Z"></path>
        <path class="cls-6" d="M53.6,52.13a1.14,1.14,0,0,1-.72.07h-.36c-.12,0-.24,0-.36-.12.13-.13.24-.06.36-.08l.36,0A1.15,1.15,0,0,1,53.6,52.13Z"></path>
        <path class="cls-6" d="M53.5,52.93c-.11.15-.25.12-.37.15s-.26,0-.38.05l-.38,0-.2,0c-.06,0-.12,0-.2-.06s.12-.08.18-.11l.19,0,.38-.06c.13,0,.25,0,.38,0S53.35,52.82,53.5,52.93Z"></path>
        <path class="cls-7" d="M59,49.05s.4-.95-.23-1.08a5.51,5.51,0,0,0-4,1.81,5.18,5.18,0,0,0-1.59,3.72c.14,1,.48.78,1.06.11A50.77,50.77,0,0,1,59,49.05Z"></path>
        <path class="cls-8" d="M73.58,63.45a23.9,23.9,0,0,0,2.31-.62,17.73,17.73,0,0,0-2.78-2C72.89,60.7,73.13,63.18,73.58,63.45Z"></path>
        <path class="cls-8" d="M73.54,61.11c-.25-1.75-.74-6.2-2.9-9.4s-4.85-4.2-8.44-4.07S55.35,50,53.61,54.39s-.07,10,4.46,11.84,10.47,2.15,14.22.85S74,64.24,73.54,61.11Z"></path>
        <path class="cls-9" d="M73.21,58.9S72,50.43,64.47,50.74c-4.5.19-7.89,5.33-8,8.1S58.68,67,66.59,67s7.23-.76,7.62-1,.28-1.14.28-1.14-.44-1.64-.5-1.85a22.57,22.57,0,0,1-.53-2.39C73.34,59.73,73.21,58.9,73.21,58.9Z"></path>
        <path class="cls-7" d="M71.67,63.81c.88.65,1,0,1-.56a5.25,5.25,0,0,0-.13-1.32c-.32-1.37-.43-4.46-2.17-6.6-1-1.22-4-3.33-4.89-2.12s2.27,3.85,3.26,5.79C69.45,60.34,70.37,62.85,71.67,63.81Z"></path>
        <path class="cls-8" d="M71.31,67.07a3,3,0,0,0,.52,1.08c.31.29-2.09-.48-2.31-.87S71.31,67.07,71.31,67.07Z"></path>
        <path class="cls-10" d="M58.63,48.19s.22-.75.27-1"></path>
        <polygon class="cls-11" points="12.54 46.24 14.55 69.47 19.25 71.48 17.23 49.37 12.54 46.24"></polygon>
        <polygon class="cls-11" points="21.25 72.15 25.43 74.01 24.61 42.44 19.25 40.21 21.25 72.15"></polygon>
        <polygon class="cls-12" points="55.49 0 55.43 11.17 91.84 23.68 105.92 17.78 55.49 0"></polygon>
        <polygon class="cls-13" points="106.14 17.56 55.71 38.95 55.47 49.72 104.8 27.92 106.14 17.56"></polygon>
        <polygon class="cls-12" points="0 15.98 55.49 0 55.43 11.17 1.82 28.15 0 15.98"></polygon>
        <polygon class="cls-13" points="0 15.98 1.82 28.15 55.47 49.72 55.71 38.95 0 15.98"></polygon>
        <polygon class="cls-4" points="55.38 49.07 55.38 92.11 101.31 68.88 105.03 27.92 55.38 49.07"></polygon>
      </g>
    </g>
  </g>
</svg>
