<?xml version="1.0" encoding="UTF-8"?>
<svg xmlns="http://www.w3.org/2000/svg" xmlns:xlink="http://www.w3.org/1999/xlink" viewBox="0 0 92.36 159.85">
  <defs>
    <style>.cls-1{fill:#56524b;}.cls-2{fill:#22211a;}.cls-3{fill:#7f7b70;}.cls-4{fill:#c69370;}.cls-5{fill:#57534a;}.cls-6{fill:#a29274;}.cls-7{fill:#fcedce;}.cls-8{fill:#bda885;}.cls-9{fill:#d0c5a6;}.cls-10{fill:#8f8267;}.cls-11{fill:#ab967a;opacity:0.25;}.cls-12{fill:#7c705b;}.cls-13{fill:#928263;}.cls-14{fill:#d9b67b;}.cls-15{clip-path:url(#clip-path);}.cls-16{clip-path:url(#clip-path-2);}.cls-17{fill:#56534b;}.cls-18{clip-path:url(#clip-path-3);}.cls-19{fill:#d1cdc5;}.cls-20{clip-path:url(#clip-path-4);}.cls-21{fill:#ecac76;}</style>
    <clipPath id="clip-path" transform="translate(2.48)">
      <path class="cls-1" d="M29.44,77.37c5.44,7.08,14.48,9.13,14.48,9.13a26.48,26.48,0,0,0,.53-17c-2.08-6.89-13.24-25.53-13.24-25.53a1.27,1.27,0,0,0-1.7-.53L25,45.78l-1.42-2.7-4.23,2.23L20.76,48l-4.3,2.27a1.27,1.27,0,0,0-.53,1.7S25.05,71.67,29.44,77.37Z"></path>
    </clipPath>
    <clipPath id="clip-path-2" transform="translate(2.48)">
      <ellipse class="cls-2" cx="21.31" cy="43.62" rx="1.51" ry="9.14" transform="translate(-17.9 15) rotate(-27.84)"></ellipse>
    </clipPath>
    <clipPath id="clip-path-3" transform="translate(2.48)">
      <rect class="cls-3" x="17.49" y="40.49" width="6.16" height="3.84" rx="1.92" transform="translate(58.57 70.31) rotate(152.16)"></rect>
    </clipPath>
    <clipPath id="clip-path-4" transform="translate(2.48)">
      <path class="cls-4" d="M7.86,5.85h6a1.06,1.06,0,0,1,1.06,1.06V39a4.06,4.06,0,0,1-4.06,4.06h0A4.06,4.06,0,0,1,6.79,39V6.92A1.06,1.06,0,0,1,7.86,5.85Z" transform="translate(31.87 41.04) rotate(152.16)"></path>
    </clipPath>
  </defs>
  <g id="Слой_2" data-name="Слой 2">
    <g id="Слой_1-2" data-name="Слой 1">
      <circle class="cls-5" cx="39.68" cy="2.62" r="2.62"></circle>
      <circle class="cls-5" cx="39.1" cy="15.84" r="2.04"></circle>
      <circle class="cls-5" cx="44.83" cy="27.51" r="3.21"></circle>
      <circle class="cls-5" cx="66.41" cy="12.05" r="2.24"></circle>
      <circle class="cls-5" cx="74.38" cy="16.72" r="2.92"></circle>
      <circle class="cls-5" cx="88.96" cy="12.83" r="1.94"></circle>
      <circle class="cls-5" cx="83.03" cy="30.04" r="2.14"></circle>
      <circle class="cls-5" cx="68.55" cy="48.02" r="1.94"></circle>
      <circle class="cls-5" cx="78.95" cy="58.32" r="1.85"></circle>
      <circle class="cls-5" cx="57.57" cy="58.13" r="1.94"></circle>
      <path class="cls-5" d="M45.46,42.58a3.69,3.69,0,1,1-3.69,3.69,3.69,3.69,0,0,1,3.69-3.69m0-1.75a5.44,5.44,0,1,0,5.44,5.44,5.43,5.43,0,0,0-5.44-5.44Z" transform="translate(2.48)"></path>
      <path class="cls-5" d="M65.09,31.21A3.4,3.4,0,1,1,61.7,34.6a3.4,3.4,0,0,1,3.39-3.39m0-1.76a5.16,5.16,0,1,0,5.16,5.15,5.16,5.16,0,0,0-5.16-5.15Z" transform="translate(2.48)"></path>
      <path class="cls-5" d="M50.76,13.13a3.2,3.2,0,1,1-3.2,3.2,3.21,3.21,0,0,1,3.2-3.2m0-1.76a5,5,0,1,0,5,5,5,5,0,0,0-5-5Z" transform="translate(2.48)"></path>
      <polygon class="cls-6" points="50.82 105.12 92.36 87.43 86.13 135.26 50.82 159.85 50.82 105.12"></polygon>
      <polygon class="cls-7" points="50.82 75.48 92.36 87.43 50.82 105.12 9.16 87.43 50.82 75.48"></polygon>
      <polygon class="cls-8" points="15.39 135.26 9.16 87.43 50.82 105.12 50.82 159.85 15.39 135.26"></polygon>
      <path class="cls-9" d="M32.86,88a25.92,25.92,0,0,1,2-2.1,20.84,20.84,0,0,1,2.29-1.77,22.82,22.82,0,0,1,5.21-2.53A26.91,26.91,0,0,1,48,80.43c1-.13,1.93-.1,2.88-.15s1.92.09,2.87.17c-1,.11-1.9.14-2.85.25s-1.88.21-2.81.39-1.86.31-2.77.57-1.81.49-2.71.76a30.28,30.28,0,0,0-5.14,2.29A28.77,28.77,0,0,0,32.86,88Z" transform="translate(2.48)"></path>
      <path class="cls-9" d="M25.77,89.7a5.37,5.37,0,0,0,1.64.33c.56,0,1.13.06,1.69.06a25.55,25.55,0,0,0,3.38-.29c2.25-.32,4.45-.88,6.73-1.39a19.51,19.51,0,0,1-6.61,2.23,15.42,15.42,0,0,1-3.53.11,10.41,10.41,0,0,1-1.74-.31A3.89,3.89,0,0,1,25.77,89.7Z" transform="translate(2.48)"></path>
      <path class="cls-9" d="M54.43,99.89a31.15,31.15,0,0,1,3.93-5,32.43,32.43,0,0,1,4.82-4.16,23.53,23.53,0,0,1,5.72-2.85,14.58,14.58,0,0,1,6.32-.49,18.45,18.45,0,0,0-6.1,1.11,25.56,25.56,0,0,0-5.45,2.93,38.77,38.77,0,0,0-4.86,3.92c-.77.7-1.51,1.44-2.24,2.2S55.13,99.1,54.43,99.89Z" transform="translate(2.48)"></path>
      <polygon class="cls-10" points="50.82 105.12 92.36 87.43 86.13 135.26 50.82 159.85 50.82 105.12"></polygon>
      <polygon class="cls-11" points="15.39 135.26 9.16 87.43 50.82 105.12 50.82 159.85 15.39 135.26"></polygon>
      <path class="cls-12" d="M20.44,114.23a12.8,12.8,0,0,1-1.08-6.93,11.29,11.29,0,0,1,3.07-6.42,15.7,15.7,0,0,1,6.12-3.64A26.1,26.1,0,0,1,35.48,96a39.83,39.83,0,0,0-6.71,1.85A16.29,16.29,0,0,0,23,101.47a11,11,0,0,0-3,5.93,13,13,0,0,0-.18,3.42A12.8,12.8,0,0,0,20.44,114.23Z" transform="translate(2.48)"></path>
      <path class="cls-12" d="M59.15,113.58c.11.17.34.23.53.33a6.07,6.07,0,0,0,.59.24c.4.16.8.29,1.21.42.81.28,1.63.52,2.45.74,1.65.44,3.31.85,5,1.18,3.35.69,6.73,1.12,10.16,1.52a37.35,37.35,0,0,1-10.33-.69,35,35,0,0,1-5-1.39c-.82-.29-1.62-.61-2.41-1-.39-.19-.78-.39-1.16-.6A2.93,2.93,0,0,1,59.15,113.58Z" transform="translate(2.48)"></path>
      <path class="cls-12" d="M36.84,111.08a27.1,27.1,0,0,1-1,4.69,30.59,30.59,0,0,1-1.73,4.49,26.7,26.7,0,0,1-2.5,4.13,15.7,15.7,0,0,1-3.46,3.35A27.94,27.94,0,0,0,31,124a40.3,40.3,0,0,0,2.28-4.12c.69-1.41,1.29-2.87,1.89-4.33.3-.74.57-1.48.83-2.23S36.57,111.84,36.84,111.08Z" transform="translate(2.48)"></path>
      <path class="cls-12" d="M49.72,149.15c1.69-.84,3.45-1.48,5.16-2.23s3.41-1.5,5-2.36a31.49,31.49,0,0,0,4.69-2.93,13.19,13.19,0,0,0,3.71-4.08A10.75,10.75,0,0,1,65,142.14a23.82,23.82,0,0,1-4.72,3.18,41,41,0,0,1-5.2,2.21c-.89.3-1.79.59-2.69.86Z" transform="translate(2.48)"></path>
      <path class="cls-12" d="M30.24,143.9a8.83,8.83,0,0,1-4.64-4.33,3.92,3.92,0,0,1,.28-3.34,8,8,0,0,1,2.24-2.44,22.68,22.68,0,0,1,5.75-2.85A44.17,44.17,0,0,1,40,129.33c-2,.73-4,1.41-5.91,2.22a24.79,24.79,0,0,0-5.48,2.92,7.23,7.23,0,0,0-2.07,2.13,3.39,3.39,0,0,0-.34,2.76,6.24,6.24,0,0,0,1.61,2.53A13.75,13.75,0,0,0,30.24,143.9Z" transform="translate(2.48)"></path>
      <path class="cls-12" d="M68.33,112.61c1-1.42,2.08-2.83,3.1-4.26s2-2.86,2.94-4.32A43.23,43.23,0,0,0,77,99.52a14.65,14.65,0,0,0,1.64-4.92,11.1,11.1,0,0,1-1,5.19,29.37,29.37,0,0,1-2.5,4.7,43.77,43.77,0,0,1-3.15,4.26A39.93,39.93,0,0,1,68.33,112.61Z" transform="translate(2.48)"></path>
      <polygon class="cls-13" points="25.98 87.43 50.84 97.6 75.7 87.36 50.82 79.33 25.98 87.43"></polygon>
      <polygon class="cls-14" points="30.84 89.42 50.76 83.06 70.81 89.38 50.84 97.6 30.84 89.42"></polygon>
      <path class="cls-1" d="M29.44,77.37c5.44,7.08,14.48,9.13,14.48,9.13a26.48,26.48,0,0,0,.53-17c-2.08-6.89-13.24-25.53-13.24-25.53a1.27,1.27,0,0,0-1.7-.53L25,45.78l-1.42-2.7-4.23,2.23L20.76,48l-4.3,2.27a1.27,1.27,0,0,0-.53,1.7S25.05,71.67,29.44,77.37Z" transform="translate(2.48)"></path>
      <g class="cls-15">
        <rect class="cls-2" x="30.3" y="30.39" width="13.08" height="56.84" transform="translate(99.37 93.62) rotate(152.16)"></rect>
      </g>
      <ellipse class="cls-2" cx="21.31" cy="43.62" rx="1.51" ry="9.14" transform="translate(-15.42 15) rotate(-27.84)"></ellipse>
      <g class="cls-16">
        <rect class="cls-17" x="20.06" y="27.83" width="8.17" height="23.83" transform="translate(66.53 63.61) rotate(152.16)"></rect>
      </g>
      <rect class="cls-3" x="17.49" y="40.49" width="6.16" height="3.84" rx="1.92" transform="translate(61.05 70.31) rotate(152.16)"></rect>
      <g class="cls-18">
        <rect class="cls-19" x="18.71" y="39.97" width="1.63" height="5.51" transform="translate(59.23 71.38) rotate(152.16)"></rect>
        <rect class="cls-2" x="11.93" y="38.94" width="12.26" height="3.21" transform="translate(55.44 67.96) rotate(152.16)"></rect>
      </g>
      <path class="cls-4" d="M7.86,5.85h6a1.06,1.06,0,0,1,1.06,1.06V39a4.06,4.06,0,0,1-4.06,4.06h0A4.06,4.06,0,0,1,6.79,39V6.92A1.06,1.06,0,0,1,7.86,5.85Z" transform="translate(34.35 41.04) rotate(152.16)"></path>
      <g class="cls-20">
        <path class="cls-21" d="M6,6.4H9a4.85,4.85,0,0,1,4.85,4.85V39.66A4.85,4.85,0,0,1,9,44.5H9a4.85,4.85,0,0,1-4.85-4.85V8.24A1.85,1.85,0,0,1,6,6.4Z" transform="matrix(-0.88, 0.47, -0.47, -0.88, 31.31, 43.76)"></path>
      </g>
    </g>
  </g>
</svg>
