<?xml version="1.0" encoding="UTF-8"?>
<svg xmlns="http://www.w3.org/2000/svg" viewBox="0 0 104.61 106.09">
  <defs>
    <style>.cls-1{fill:#a29274;}.cls-2{fill:#e3e0c9;}.cls-3{fill:#bda885;}.cls-4{fill:#7c705b;}.cls-5{fill:#d0c5a6;}.cls-6{fill:#a29277;}.cls-7{fill:#817870;}</style>
  </defs>
  <g id="Слой_2" data-name="Слой 2">
    <g id="Слой_1-2" data-name="Слой 1">
      <polygon class="cls-1" points="52.38 37.27 104.61 15.04 96.77 75.17 52.38 106.09 52.38 37.27"></polygon>
      <polygon class="cls-2" points="52.38 0 104.61 15.04 52.38 37.27 0 15.04 52.38 0"></polygon>
      <polygon class="cls-3" points="52.38 37.27 0 15.04 7.83 75.17 21.66 84.77 21.38 84.56 21.66 84.77 52.38 106.09 52.38 37.27"></polygon>
      <path class="cls-4" d="M51.14,104.26c1.22-1.74,2.29-3.56,3.41-5.34s2.18-3.6,3.2-5.43,2-3.68,2.93-5.55,1.74-3.81,2.54-5.79a26.48,26.48,0,0,1-1.51,6.23A44.56,44.56,0,0,1,59,94.2a49.92,49.92,0,0,1-3.53,5.35A27.62,27.62,0,0,1,51.14,104.26Z"></path>
      <path class="cls-5" d="M32.92,15.77a22,22,0,0,1,5.28-5,28.06,28.06,0,0,1,6.57-3.23,32,32,0,0,1,7.16-1.46c1.2-.15,2.42-.1,3.63-.14s2.42.16,3.61.3c-1.2.18-2.39.26-3.57.41l-1.77.26a17.42,17.42,0,0,0-1.76.28c-1.16.24-2.32.41-3.46.74s-2.26.62-3.39,1a39.17,39.17,0,0,0-6.44,2.82A40.77,40.77,0,0,0,32.92,15.77Z"></path>
      <path class="cls-5" d="M24,17.89a7.42,7.42,0,0,0,2.08.32c.71.05,1.41,0,2.12,0a39.7,39.7,0,0,0,4.21-.4c1.4-.2,2.8-.47,4.21-.74s2.82-.59,4.28-.83a19.17,19.17,0,0,1-4,1.91,23.54,23.54,0,0,1-4.3,1.08,18.07,18.07,0,0,1-4.47.09A11.14,11.14,0,0,1,26,18.9a9.47,9.47,0,0,1-1.05-.4A2.47,2.47,0,0,1,24,17.89Z"></path>
      <path class="cls-4" d="M61.81,60.4c-.24-1.51-.54-3-.64-4.58a20.32,20.32,0,0,1,.21-4.67,16.21,16.21,0,0,1,1.41-4.53,14.33,14.33,0,0,1,2.8-3.89A16,16,0,0,1,69.48,40a20.16,20.16,0,0,1,4.45-1.57,28.49,28.49,0,0,1,9.24-.51,43.58,43.58,0,0,0-9,1.6,18.05,18.05,0,0,0-7.63,4.27,15.32,15.32,0,0,0-4.12,7.61A37.62,37.62,0,0,0,61.81,60.4Z"></path>
      <path class="cls-4" d="M79.69,46.18c2.5-3.68,5.09-7.22,7.45-10.89a61.3,61.3,0,0,0,3.3-5.63,19.61,19.61,0,0,0,2.19-6.13,13.51,13.51,0,0,1-1.17,6.59,33.61,33.61,0,0,1-3.12,5.94,52.47,52.47,0,0,1-4,5.36A42.75,42.75,0,0,1,79.69,46.18Z"></path>
      <path class="cls-4" d="M67.58,65.28c.15.21.45.28.68.39L69,66c.5.18,1,.34,1.53.5,1,.31,2.06.59,3.09.87,2.08.53,4.16,1,6.26,1.44s4.2.79,6.32,1.13l6.41,1A37.49,37.49,0,0,1,86.1,71a47.24,47.24,0,0,1-6.49-.85,41.83,41.83,0,0,1-6.3-1.78,29.71,29.71,0,0,1-3-1.28c-.49-.25-1-.5-1.44-.79A3.66,3.66,0,0,1,67.58,65.28Z"></path>
      <path class="cls-4" d="M80.19,72.89a15.68,15.68,0,0,1-1.49-8.75,14,14,0,0,1,1.24-4.4A14.52,14.52,0,0,1,82.57,56a19.08,19.08,0,0,1,7.77-4.59A30.92,30.92,0,0,1,99.1,50a54.66,54.66,0,0,0-8.38,2.47A21,21,0,0,0,83.6,57a14.07,14.07,0,0,0-3.8,7.34,17.88,17.88,0,0,0-.28,4.27A16.76,16.76,0,0,0,80.19,72.89Z"></path>
      <path class="cls-4" d="M99.1,45.34A29.27,29.27,0,0,1,98,51.28,37.9,37.9,0,0,1,95.8,57a30.86,30.86,0,0,1-3.19,5.2,18.24,18.24,0,0,1-4.47,4.12,40.11,40.11,0,0,0,3.55-4.77c1-1.68,2-3.4,2.82-5.18s1.63-3.59,2.39-5.42S98.37,47.22,99.1,45.34Z"></path>
      <path class="cls-5" d="M65,31.87l1-.43a35.25,35.25,0,0,0-4.77-1.74C62.6,30.42,63.84,31.14,65,31.87Z"></path>
      <path class="cls-4" d="M64.62,32.75c-.74,1.85-1.34,3.36-2.24,5.12a37.39,37.39,0,0,1-6.53,9.87,19.91,19.91,0,0,0,4.34-4.21,35.18,35.18,0,0,0,3.15-5.19,44.49,44.49,0,0,0,2.36-5.57c.11-.37.24-1,.35-1.33l-1,.43C64.94,32,64.68,32.59,64.62,32.75Z"></path>
      <path class="cls-6" d="M6,61.46a15.93,15.93,0,0,1,4.72-4A25.76,25.76,0,0,1,16.4,55,30.85,30.85,0,0,1,22.5,54c1-.1,2.06-.06,3.09-.08s2.05.14,3.07.27c-1,.18-2,.29-3,.43s-2,.3-3,.49-2,.35-2.94.61-1.94.47-2.9.74a44.8,44.8,0,0,0-5.61,2.05A29.33,29.33,0,0,0,6,61.46Z"></path>
      <path class="cls-6" d="M9.17,53.11c2.07-1.31,4.05-2.71,6.06-4.09s4-2.77,5.94-4.19S25.11,42,27,40.54c1-.73,1.92-1.47,2.84-2.25a16.38,16.38,0,0,0,2.56-2.57,11.6,11.6,0,0,1-2.07,3.07,35.7,35.7,0,0,1-2.61,2.61A66.56,66.56,0,0,1,22,46c-2,1.41-4.06,2.75-6.19,4A37.43,37.43,0,0,1,9.17,53.11Z"></path>
      <path class="cls-6" d="M8.91,72.43a5.94,5.94,0,0,1,2.35-5.74,10.73,10.73,0,0,1,6.19-1.85,23.78,23.78,0,0,1,6.26.88,31.68,31.68,0,0,1,5.86,2.17c-2.07-.3-4.06-.8-6.08-1.08-1-.19-2-.29-3-.38a23.12,23.12,0,0,0-3-.15A11.41,11.41,0,0,0,11.9,67.6,6.37,6.37,0,0,0,8.91,72.43Z"></path>
      <path class="cls-6" d="M2.08,25.16a6.47,6.47,0,0,0,2.34,2.58,16.64,16.64,0,0,0,3.09,1.65,39.1,39.1,0,0,0,6.8,1.89c2.33.44,4.69.77,7.06,1s4.77.47,7.18.8a50.22,50.22,0,0,1-7.26.32A45.71,45.71,0,0,1,14,32.69,28.07,28.07,0,0,1,7,30.4,13.72,13.72,0,0,1,4,28.28,5.78,5.78,0,0,1,2.08,25.16Z"></path>
      <path class="cls-6" d="M38.67,96.2a13.39,13.39,0,0,1-3.45-2.08A8.06,8.06,0,0,1,32.7,90.8a4.82,4.82,0,0,1-.33-2.2A5.46,5.46,0,0,1,33,86.46a9.86,9.86,0,0,1,2.87-3.11,26.71,26.71,0,0,1,7.29-3.58A48.74,48.74,0,0,1,51,77.88c-2.48,1-5,1.91-7.38,2.93a34.47,34.47,0,0,0-6.83,3.69,8.94,8.94,0,0,0-2.55,2.62,4.1,4.1,0,0,0-.46,3.33,8.12,8.12,0,0,0,2,3.16A19,19,0,0,0,38.67,96.2Z"></path>
      <path class="cls-6" d="M29.83,31.49a4.93,4.93,0,0,0-.36,4.2c1.09,2.68,3.47,4.32,5.83,5.45a18,18,0,0,1-3-2.52,7.91,7.91,0,0,1-2-3.18A4.27,4.27,0,0,1,30.68,32a9.08,9.08,0,0,1,2.6-2.68l.12-.08-1.12-.47A9.26,9.26,0,0,0,29.83,31.49Z"></path>
      <path class="cls-5" d="M49.57,27.24a70.41,70.41,0,0,0-8.7-.15,25,25,0,0,0-7.32,1.16l-1.27.49,1.12.47a34.81,34.81,0,0,1,7.76-1.37C43.92,27.56,46.75,27.42,49.57,27.24Z"></path>
      <path class="cls-6" d="M28.92,80.81a14.17,14.17,0,0,0-3.23.37,7.49,7.49,0,0,0-2.94,1.6,3.69,3.69,0,0,0-1.11,2l.28.21a4.12,4.12,0,0,1,1.36-1.56A8.07,8.07,0,0,1,26,82.21a57.57,57.57,0,0,1,6.15-1A14.36,14.36,0,0,0,28.92,80.81Z"></path>
      <path class="cls-6" d="M27.9,76c2.1-1.13,4.3-2,6.43-2.94s4.27-1.91,6.32-3a43.1,43.1,0,0,0,5.89-3.63,17.65,17.65,0,0,0,4.75-5,13,13,0,0,1-4,5.88,29.38,29.38,0,0,1-5.94,4,48.45,48.45,0,0,1-6.58,2.76C32.5,74.92,30.19,75.47,27.9,76Z"></path>
      <path class="cls-4" d="M57.18,93.1c2.1-1.13,4.3-2,6.44-2.94s4.26-1.91,6.32-3a43.72,43.72,0,0,0,5.89-3.63,17.61,17.61,0,0,0,4.75-5,13.1,13.1,0,0,1-4,5.88,29.93,29.93,0,0,1-5.94,4A48.4,48.4,0,0,1,64,91.2C61.78,92,59.48,92.54,57.18,93.1Z"></path>
      <path class="cls-5" d="M60,30.7a35.43,35.43,0,0,1,4.83-6.36,37.65,37.65,0,0,1,6.07-5.26,26.36,26.36,0,0,1,7.25-3.58,19.35,19.35,0,0,1,4-.74,15.26,15.26,0,0,1,4,.27,23.05,23.05,0,0,0-3.91.43,25.22,25.22,0,0,0-3.72,1.1,33.71,33.71,0,0,0-6.8,3.7,56.7,56.7,0,0,0-6.1,4.88C63.72,26.9,61.85,28.76,60,30.7Z"></path>
      <path class="cls-4" d="M101.42,22.72a10.58,10.58,0,0,0-6.21,1.09c1.05-.1,2.07-.18,3.08-.19a16.35,16.35,0,0,1,3,.16,9.25,9.25,0,0,1,2.15.52l.11-.94A10.47,10.47,0,0,0,101.42,22.72Z"></path>
      <path class="cls-6" d="M6,51.7a18.46,18.46,0,0,1,4.38.51,20.07,20.07,0,0,1,4.19,1.47,11.14,11.14,0,0,1,3.63,2.72,5.55,5.55,0,0,1,1.1,2.06,3.86,3.86,0,0,1-.06,2.26,5.2,5.2,0,0,0-1.86-3.55A15.17,15.17,0,0,0,13.89,55C11.38,53.72,8.68,52.81,6,51.7Z"></path>
      <path class="cls-6" d="M27.75,71c2.54-3.74,5.14-7.36,7.46-11.15A54.83,54.83,0,0,0,38.42,54a23.53,23.53,0,0,0,2.1-6.29,15.07,15.07,0,0,1-1.07,6.72,31.34,31.34,0,0,1-1.34,3.15c-.54,1-1.08,2-1.68,3a47,47,0,0,1-4,5.51A40.21,40.21,0,0,1,27.75,71Z"></path>
      <ellipse class="cls-1" cx="54.03" cy="16.08" rx="12.06" ry="4.72"></ellipse>
      <ellipse class="cls-7" cx="54.34" cy="17.67" rx="9.94" ry="3.89"></ellipse>
    </g>
  </g>
</svg>
