<?xml version="1.0" encoding="UTF-8"?>
<svg xmlns="http://www.w3.org/2000/svg" viewBox="0 0 108.82 105.4">
  <defs>
    <style>.cls-1{isolation:isolate;}.cls-2,.cls-3,.cls-4{fill:#8ebcd6;}.cls-10,.cls-2,.cls-4{mix-blend-mode:multiply;}.cls-10,.cls-4,.cls-9{opacity:0.4;}.cls-10,.cls-5,.cls-8,.cls-9{fill:#9ecee8;}.cls-6{fill:#402d22;}.cls-7{fill:#d2c9be;}.cls-8{mix-blend-mode:screen;}</style>
  </defs>
  <g class="cls-1">
    <g id="Слой_2" data-name="Слой 2">
      <g id="Слой_1-2" data-name="Слой 1">
        <polygon class="cls-2" points="56.89 40.16 108.59 18.23 102.47 82.32 56.89 105.4 56.89 40.16"></polygon>
        <polygon class="cls-3" points="1.87 28.86 56.3 50.54 56.89 105.4 7.62 82.2 1.87 28.86"></polygon>
        <polygon class="cls-4" points="1.87 28.86 6.84 73.14 56.76 50.69 56.83 11.45 1.87 28.86"></polygon>
        <polygon class="cls-5" points="6.84 73.14 56.76 50.69 103.39 70.84 56.3 94.66 6.84 73.14"></polygon>
        <path class="cls-6" d="M49.87,58.48c-.3-2.24-2.68-3.77-5.29-3.41s-5.7,2.36-5.39,4.6,3.89,3.88,6.5,3.52S50.18,60.72,49.87,58.48Z"></path>
        <path class="cls-7" d="M48.58,61.79a5.19,5.19,0,0,1-3.33,1.34,7.34,7.34,0,0,1-3.53-.8,4.1,4.1,0,0,1-2.34-2.54,3.15,3.15,0,0,1,1.53-3,8.17,8.17,0,0,1,3.27-1.48,5.16,5.16,0,0,1,3.52.36,3.85,3.85,0,0,1,2.15,2.78A3.9,3.9,0,0,1,48.58,61.79Zm-.78-6.28A5.51,5.51,0,0,0,44.1,55a8.55,8.55,0,0,0-3.43,1.55,3.52,3.52,0,0,0-1.6,3.34,4.38,4.38,0,0,0,2.54,2.71,7.55,7.55,0,0,0,3.65.77,5.36,5.36,0,0,0,3.37-1.48,3.92,3.92,0,0,0,1.26-3.37A4,4,0,0,0,47.8,55.51Z"></path>
        <path class="cls-6" d="M44.88,68.28c-1.63-1.56-4.44-1.27-6.26.64s-3,5.39-1.35,7,5.45.62,7.28-1.3S46.52,69.85,44.88,68.28Z"></path>
        <path class="cls-7" d="M45.93,71.68a5.14,5.14,0,0,1-1.77,3.12,7.41,7.41,0,0,1-3.26,1.58,4.12,4.12,0,0,1-3.42-.54,3.18,3.18,0,0,1-.65-3.27,8.4,8.4,0,0,1,1.64-3.2,5.22,5.22,0,0,1,3-1.91,3.6,3.6,0,0,1,4.48,4.22Zm-4.52-4.43a5.54,5.54,0,0,0-3.24,1.87,8.65,8.65,0,0,0-1.71,3.36,3.49,3.49,0,0,0,.82,3.6,4.41,4.41,0,0,0,3.68.55A7.63,7.63,0,0,0,44.29,75,5.33,5.33,0,0,0,46,71.69a3.93,3.93,0,0,0-1.11-3.42A4,4,0,0,0,41.41,67.25Z"></path>
        <polygon class="cls-5" points="56.83 11.45 1.87 28.86 56.3 50.54 107.22 28.86 56.83 11.45"></polygon>
        <path class="cls-6" d="M34.67,59.72c-1.55-1.65-4.36-1.52-6.29.29s-3.28,5.22-1.73,6.87,5.41.91,7.34-.9S36.22,61.37,34.67,59.72Z"></path>
        <path class="cls-7" d="M35.53,63.17a5.16,5.16,0,0,1-1.94,3,7.32,7.32,0,0,1-3.34,1.39,4.09,4.09,0,0,1-3.38-.72,3.15,3.15,0,0,1-.47-3.3,8.15,8.15,0,0,1,1.81-3.1,5.2,5.2,0,0,1,3.08-1.75,3.6,3.6,0,0,1,4.24,4.46ZM31.26,58.5a5.47,5.47,0,0,0-3.33,1.69A8.44,8.44,0,0,0,26,63.45a3.51,3.51,0,0,0,.62,3.64,4.37,4.37,0,0,0,3.64.74,7.66,7.66,0,0,0,3.42-1.48,5.36,5.36,0,0,0,1.9-3.16,4,4,0,0,0-.92-3.48A4,4,0,0,0,31.26,58.5Z"></path>
        <path class="cls-6" d="M55,79.41c1.63-1.57,1.46-4.38-.37-6.28s-5.26-3.21-6.89-1.64-.84,5.42,1,7.33S53.4,81,55,79.41Z"></path>
        <path class="cls-7" d="M51.59,80.32a5.2,5.2,0,0,1-3-1.9,7.39,7.39,0,0,1-1.44-3.32,4.14,4.14,0,0,1,.68-3.39,3.16,3.16,0,0,1,3.29-.52A8.28,8.28,0,0,1,54.21,73,5.18,5.18,0,0,1,56,76a3.86,3.86,0,0,1-1,3.38A3.9,3.9,0,0,1,51.59,80.32ZM56.21,76a5.48,5.48,0,0,0-1.74-3.31,8.5,8.5,0,0,0-3.28-1.86,3.48,3.48,0,0,0-3.63.68,4.36,4.36,0,0,0-.7,3.65,7.69,7.69,0,0,0,1.54,3.4,5.3,5.3,0,0,0,3.18,1.85,4,4,0,0,0,3.47-1A4,4,0,0,0,56.21,76Z"></path>
        <path class="cls-6" d="M32.76,75.58c1.33-1.83.68-4.57-1.46-6.12s-5.74-2.25-7.07-.42.12,5.49,2.25,7S31.43,77.41,32.76,75.58Z"></path>
        <path class="cls-7" d="M29.53,77.07a5.2,5.2,0,0,1-3.33-1.34,7.46,7.46,0,0,1-2-3,4.09,4.09,0,0,1,.08-3.46,3.15,3.15,0,0,1,3.15-1.09,8.23,8.23,0,0,1,3.39,1.21,5.21,5.21,0,0,1,2.29,2.69,3.6,3.6,0,0,1-3.59,5ZM33.32,72A5.52,5.52,0,0,0,31,69a8.68,8.68,0,0,0-3.56-1.25A3.5,3.5,0,0,0,24,69.09,4.38,4.38,0,0,0,24,72.8a7.64,7.64,0,0,0,2.1,3.08,5.4,5.4,0,0,0,3.46,1.28A3.87,3.87,0,0,0,33.32,72Z"></path>
        <polygon class="cls-8" points="12.86 47.41 14.92 71.23 19.73 73.29 17.67 50.61 12.86 47.41"></polygon>
        <polygon class="cls-8" points="21.79 73.97 26.07 75.88 25.23 43.51 19.73 41.22 21.79 73.97"></polygon>
        <polygon class="cls-9" points="56.89 0 56.83 11.45 94.16 24.28 108.59 18.23 56.89 0"></polygon>
        <path class="cls-6" d="M63.5,61.14c2.16-.66,3.29-3.25,2.52-5.77s-3.23-5.25-5.4-4.59-3.21,4.45-2.44,7S61.33,61.8,63.5,61.14Z"></path>
        <path class="cls-7" d="M60,60.39a5.24,5.24,0,0,1-1.85-3.08,7.37,7.37,0,0,1,.23-3.61A4.1,4.1,0,0,1,60.54,51a3.19,3.19,0,0,1,3.17,1,8.19,8.19,0,0,1,2,3,5.22,5.22,0,0,1,.21,3.53,3.87,3.87,0,0,1-2.41,2.57A3.91,3.91,0,0,1,60,60.39Zm6.08-1.77a5.52,5.52,0,0,0,0-3.74A8.63,8.63,0,0,0,64,51.74a3.51,3.51,0,0,0-3.55-1.05,4.42,4.42,0,0,0-2.28,2.94A7.56,7.56,0,0,0,58,57.35a5.31,5.31,0,0,0,2,3.1,4,4,0,0,0,3.53.71A4,4,0,0,0,66.1,58.62Z"></path>
        <path class="cls-6" d="M78.62,79.22c1.33-1.83.69-4.57-1.44-6.13s-5.73-2.27-7.07-.44.1,5.49,2.23,7S77.28,81.05,78.62,79.22Z"></path>
        <path class="cls-7" d="M75.38,80.7a5.21,5.21,0,0,1-3.32-1.35,7.4,7.4,0,0,1-2-3,4.13,4.13,0,0,1,.08-3.46,3.21,3.21,0,0,1,3.17-1.07A8.25,8.25,0,0,1,76.71,73,5.14,5.14,0,0,1,79,75.71a3.6,3.6,0,0,1-3.61,5Zm3.81-5a5.47,5.47,0,0,0-2.27-3,8.57,8.57,0,0,0-3.55-1.27,3.52,3.52,0,0,0-3.47,1.28,4.4,4.4,0,0,0-.06,3.72,7.52,7.52,0,0,0,2.09,3.09,5.35,5.35,0,0,0,3.45,1.28,3.94,3.94,0,0,0,3.25-1.55A4,4,0,0,0,79.19,75.65Z"></path>
        <path class="cls-6" d="M84.25,65.9c1.37-1.8.76-4.56-1.34-6.15s-5.7-2.36-7.06-.55,0,5.49,2.11,7.08S82.89,67.71,84.25,65.9Z"></path>
        <path class="cls-7" d="M81,67.33a5.27,5.27,0,0,1-3.3-1.4,7.36,7.36,0,0,1-1.93-3.06,4.09,4.09,0,0,1,.14-3.46,3.19,3.19,0,0,1,3.18-1,8.19,8.19,0,0,1,3.36,1.27,5.23,5.23,0,0,1,2.24,2.74A3.6,3.6,0,0,1,81,67.33Zm3.89-5a5.5,5.5,0,0,0-2.23-3A8.55,8.55,0,0,0,79.12,58a3.49,3.49,0,0,0-3.48,1.23A4.38,4.38,0,0,0,75.52,63a7.51,7.51,0,0,0,2,3.12A5.34,5.34,0,0,0,81,67.41a3.92,3.92,0,0,0,3.28-1.5A4,4,0,0,0,84.88,62.34Z"></path>
        <path class="cls-6" d="M67.29,71.29c1.66-1.53,1.56-4.35-.23-6.3s-5.18-3.33-6.85-1.8-1,5.41.82,7.35S65.62,72.82,67.29,71.29Z"></path>
        <path class="cls-7" d="M63.83,72.11a5.12,5.12,0,0,1-3-2,7.31,7.31,0,0,1-1.36-3.35,4.1,4.1,0,0,1,.75-3.37A3.15,3.15,0,0,1,63.53,63a8.27,8.27,0,0,1,3.08,1.84,5.16,5.16,0,0,1,1.72,3.1,3.6,3.6,0,0,1-4.5,4.19Zm4.71-4.22a5.51,5.51,0,0,0-1.66-3.35,8.52,8.52,0,0,0-3.23-1.93A3.48,3.48,0,0,0,60,63.2a4.34,4.34,0,0,0-.78,3.63,7.52,7.52,0,0,0,1.45,3.44,5.42,5.42,0,0,0,3.14,1.93,3.88,3.88,0,0,0,4.73-4.31Z"></path>
        <path class="cls-6" d="M59.83,81.4c-.18-2.26-2.45-3.92-5.09-3.72s-5.82,2-5.65,4.27,3.65,4.1,6.28,3.9S60,83.65,59.83,81.4Z"></path>
        <path class="cls-7" d="M58.34,84.62a5.23,5.23,0,0,1-3.41,1.14,7.45,7.45,0,0,1-3.47-1,4.18,4.18,0,0,1-2.19-2.69A3.2,3.2,0,0,1,51,79.2a8.3,8.3,0,0,1,3.36-1.28,5.18,5.18,0,0,1,3.49.57,3.59,3.59,0,0,1,.52,6.13Zm-.41-6.31a5.42,5.42,0,0,0-3.65-.77,8.5,8.5,0,0,0-3.53,1.34A3.53,3.53,0,0,0,49,82.12,4.42,4.42,0,0,0,51.33,85a7.59,7.59,0,0,0,3.6,1,5.36,5.36,0,0,0,3.46-1.27,4,4,0,0,0,1.46-3.3A4,4,0,0,0,57.93,78.31Z"></path>
        <polygon class="cls-10" points="108.82 18 57.12 39.93 56.87 50.98 107.45 28.63 108.82 18"></polygon>
        <polygon class="cls-4" points="56.78 50.31 56.78 94.43 103.86 70.61 107.69 28.63 56.78 50.31"></polygon>
        <polygon class="cls-9" points="0 16.39 56.89 0 56.83 11.45 1.87 28.86 0 16.39"></polygon>
        <polygon class="cls-10" points="0 16.39 1.87 28.86 56.87 50.98 57.12 39.93 0 16.39"></polygon>
      </g>
    </g>
  </g>
</svg>
