<?xml version="1.0" encoding="UTF-8"?>
<svg xmlns="http://www.w3.org/2000/svg" viewBox="0 0 108.76 110.39">
  <defs>
    <style>.cls-1{isolation:isolate;}.cls-2,.cls-3,.cls-4{fill:#82b7d9;}.cls-2,.cls-4,.cls-9{mix-blend-mode:multiply;}.cls-4,.cls-8,.cls-9{opacity:0.4;}.cls-5,.cls-8,.cls-9{fill:#8dc7ed;}.cls-6{fill:#483223;}.cls-7{fill:#d3cabf;}.cls-10{fill:#f1f3f5;mix-blend-mode:soft-light;}</style>
  </defs>
  <g class="cls-1">
    <g id="Слой_2" data-name="Слой 2">
      <g id="Слой_1-2" data-name="Слой 1">
        <polygon class="cls-2" points="56.86 40.13 108.53 18.22 102.41 82.27 57.52 110.39 56.86 40.13"></polygon>
        <polygon class="cls-3" points="1.87 28.84 56.27 50.51 57.52 110.39 7.61 82.16 1.87 28.84"></polygon>
        <polygon class="cls-4" points="1.87 28.84 6.83 73.09 56.72 50.66 56.8 11.44 1.87 28.84"></polygon>
        <polygon class="cls-5" points="6.83 73.09 56.72 50.66 103.33 70.8 56.93 99.66 6.83 73.09"></polygon>
        <path class="cls-6" d="M78,64.75c-.15-2.46-2.59-4.3-5.46-4.12s-6.35,2.08-6.2,4.53,3.89,4.52,6.75,4.35S78.1,67.2,78,64.75Z"></path>
        <path class="cls-7" d="M76.28,68.23a5.69,5.69,0,0,1-3.72,1.18,8,8,0,0,1-3.75-1.16,4.46,4.46,0,0,1-2.33-3,3.43,3.43,0,0,1,1.9-3.08A9,9,0,0,1,72,60.88a5.65,5.65,0,0,1,3.79.68,3.91,3.91,0,0,1,.45,6.67ZM76,61.36a6,6,0,0,0-4-.9,9.34,9.34,0,0,0-3.85,1.41,3.82,3.82,0,0,0-2,3.48,4.74,4.74,0,0,0,2.53,3.14,8.32,8.32,0,0,0,3.89,1.13,5.82,5.82,0,0,0,3.78-1.33A4.29,4.29,0,0,0,78,64.74,4.37,4.37,0,0,0,76,61.36Z"></path>
        <path class="cls-6" d="M52.59,67.84c2.18-1.11,2.9-4.09,1.6-6.64s-4.45-5-6.64-3.89S45,62.68,46.26,65.24,50.4,69,52.59,67.84Z"></path>
        <path class="cls-7" d="M48.73,67.7a5.62,5.62,0,0,1-2.56-2.94,7.85,7.85,0,0,1-.44-3.9,4.46,4.46,0,0,1,1.77-3.31,3.44,3.44,0,0,1,3.59.51,8.84,8.84,0,0,1,2.68,2.83,5.59,5.59,0,0,1,.89,3.73,4.19,4.19,0,0,1-2.08,3.21A4.25,4.25,0,0,1,48.73,67.7Zm6.16-3a6,6,0,0,0-.75-4,9.41,9.41,0,0,0-2.82-3,3.82,3.82,0,0,0-4-.45,4.77,4.77,0,0,0-1.88,3.57,8.35,8.35,0,0,0,.52,4,5.82,5.82,0,0,0,2.72,2.94,4.26,4.26,0,0,0,3.9.08A4.32,4.32,0,0,0,54.89,64.66Z"></path>
        <path class="cls-6" d="M32.57,57.29c-1.1-2.19-4.08-2.92-6.64-1.63s-5,4.43-3.91,6.62,5.36,2.62,7.92,1.32S33.68,59.48,32.57,57.29Z"></path>
        <path class="cls-7" d="M32.41,61.15a5.61,5.61,0,0,1-2.94,2.55,8.13,8.13,0,0,1-3.91.43,4.51,4.51,0,0,1-3.3-1.79c-.67-1.12-.19-2.54.52-3.59a9.06,9.06,0,0,1,2.84-2.67,5.67,5.67,0,0,1,3.74-.88,3.9,3.9,0,0,1,3,5.95ZM29.4,55a6,6,0,0,0-4,.73,9.31,9.31,0,0,0-3,2.81,3.8,3.8,0,0,0-.46,4,4.78,4.78,0,0,0,3.56,1.89,8.35,8.35,0,0,0,4-.5,5.76,5.76,0,0,0,2.94-2.71A4.2,4.2,0,0,0,29.4,55Z"></path>
        <path class="cls-6" d="M85.36,69.9c2.1-1.28,2.59-4.3,1.1-6.75s-4.8-4.66-6.9-3.38-2.19,5.55-.7,8S83.26,71.17,85.36,69.9Z"></path>
        <path class="cls-7" d="M81.5,70a5.64,5.64,0,0,1-2.77-2.74A8,8,0,0,1,78,63.44,4.44,4.44,0,0,1,79.53,60c1.06-.76,2.51-.39,3.61.24A8.84,8.84,0,0,1,86,62.87a5.66,5.66,0,0,1,1.16,3.66,4.2,4.2,0,0,1-1.84,3.35A4.25,4.25,0,0,1,81.5,70Zm5.92-3.49a6,6,0,0,0-1-3.92,9.21,9.21,0,0,0-3-2.75,3.79,3.79,0,0,0-4-.15,4.76,4.76,0,0,0-1.61,3.7,8.21,8.21,0,0,0,.82,4,5.77,5.77,0,0,0,2.93,2.73,4.26,4.26,0,0,0,3.9-.21A4.32,4.32,0,0,0,87.42,66.55Z"></path>
        <path class="cls-6" d="M65.66,69.09c-1.51-1.94-4.57-2.08-6.83-.31S54.77,74.09,56.28,76s5.77,1.52,8-.24S67.18,71,65.66,69.09Z"></path>
        <path class="cls-7" d="M66.26,72.9A5.75,5.75,0,0,1,63.86,76a8,8,0,0,1-3.75,1.17A4.48,4.48,0,0,1,56.52,76c-.87-1-.67-2.45-.18-3.62a8.84,8.84,0,0,1,2.27-3.17,5.57,5.57,0,0,1,3.5-1.59,3.91,3.91,0,0,1,4.15,5.24ZM62.1,67.43a5.94,5.94,0,0,0-3.77,1.5A9.18,9.18,0,0,0,56,72.26c-.5,1.24-.71,2.89.32,4a4.77,4.77,0,0,0,3.86,1.17A8.27,8.27,0,0,0,64,76.15a5.79,5.79,0,0,0,2.36-3.22,4.2,4.2,0,0,0-4.24-5.5Z"></path>
        <path class="cls-6" d="M31.93,72.32c2,1.48,5,.81,6.67-1.49s2.53-6.19.56-7.67-6,0-7.68,2.34S30,70.85,31.93,72.32Z"></path>
        <path class="cls-7" d="M30.36,68.8a5.65,5.65,0,0,1,1.51-3.6,8,8,0,0,1,3.3-2.11,4.44,4.44,0,0,1,3.76.13,3.45,3.45,0,0,1,1.13,3.44,8.93,8.93,0,0,1-1.36,3.66,5.63,5.63,0,0,1-3,2.45,3.91,3.91,0,0,1-5.38-4ZM35.81,73a6,6,0,0,0,3.25-2.44,9.25,9.25,0,0,0,1.41-3.84,3.8,3.8,0,0,0-1.35-3.78,4.8,4.8,0,0,0-4-.11,8.26,8.26,0,0,0-3.37,2.24,5.81,5.81,0,0,0-1.44,3.73A4.21,4.21,0,0,0,35.81,73Z"></path>
        <path class="cls-6" d="M83.23,49.89c-1.07-2.22-4-3-6.61-1.75s-5.09,4.34-4,6.55,5.31,2.71,7.89,1.46S84.3,52.1,83.23,49.89Z"></path>
        <path class="cls-7" d="M83,53.74a5.66,5.66,0,0,1-3,2.5,8,8,0,0,1-3.91.35,4.46,4.46,0,0,1-3.27-1.84,3.44,3.44,0,0,1,.58-3.58,9.06,9.06,0,0,1,2.89-2.62,5.63,5.63,0,0,1,3.76-.81,3.91,3.91,0,0,1,2.94,6Zm-2.9-6.23a6,6,0,0,0-4,.67,9.36,9.36,0,0,0-3,2.75c-.75,1.11-1.3,2.68-.54,4a4.76,4.76,0,0,0,3.53,2,8.37,8.37,0,0,0,4-.43,5.81,5.81,0,0,0,3-2.66,4.27,4.27,0,0,0,.17-3.9A4.35,4.35,0,0,0,80.1,47.51Z"></path>
        <path class="cls-6" d="M40.53,56.41c1.88,1.58,4.9,1.09,6.74-1.11s2.88-6,1-7.62-6-.3-7.8,1.9S38.65,54.83,40.53,56.41Z"></path>
        <path class="cls-7" d="M39.16,52.8a5.64,5.64,0,0,1,1.71-3.5,8,8,0,0,1,3.42-1.92,4.48,4.48,0,0,1,3.75.34c1.05.77,1.16,2.26.92,3.51A8.93,8.93,0,0,1,47.4,54.8a5.65,5.65,0,0,1-3.1,2.28,3.91,3.91,0,0,1-5.14-4.28Zm5.2,4.5a6,6,0,0,0,3.38-2.25,9.36,9.36,0,0,0,1.64-3.75,3.82,3.82,0,0,0-1.14-3.85,4.74,4.74,0,0,0-4-.34,8.26,8.26,0,0,0-3.5,2,5.81,5.81,0,0,0-1.65,3.64,4.21,4.21,0,0,0,5.29,4.51Z"></path>
        <polygon class="cls-5" points="56.8 11.44 1.87 28.84 56.27 50.51 107.16 28.84 56.8 11.44"></polygon>
        <polygon class="cls-8" points="56.86 0 56.8 11.44 94.11 24.26 108.53 18.22 56.86 0"></polygon>
        <polygon class="cls-9" points="108.76 17.99 57.09 39.91 56.84 50.95 107.38 28.61 108.76 17.99"></polygon>
        <polygon class="cls-8" points="0 16.38 56.86 0 56.8 11.44 1.87 28.84 0 16.38"></polygon>
        <polygon class="cls-9" points="0 16.38 1.87 28.84 56.84 50.95 57.09 39.91 0 16.38"></polygon>
        <polygon class="cls-4" points="56.74 50.28 57.4 99.43 103.8 70.57 107.63 28.61 56.74 50.28"></polygon>
        <polygon class="cls-10" points="12.85 47.38 14.91 71.18 19.72 73.24 17.66 50.58 12.85 47.38"></polygon>
        <polygon class="cls-10" points="21.78 73.93 26.06 75.84 25.21 43.49 19.72 41.2 21.78 73.93"></polygon>
      </g>
    </g>
  </g>
</svg>
