<?xml version="1.0" encoding="UTF-8"?>
<svg xmlns="http://www.w3.org/2000/svg" viewBox="0 0 147.62 142.98">
  <defs>
    <style>.cls-1{isolation:isolate;}.cls-2,.cls-3,.cls-4{fill:#8ebcd6;}.cls-10,.cls-2,.cls-4{mix-blend-mode:multiply;}.cls-10,.cls-4,.cls-9{opacity:0.4;}.cls-10,.cls-5,.cls-8,.cls-9{fill:#9ecee8;}.cls-6{fill:#402d22;}.cls-7{fill:#d2c9be;}.cls-8{mix-blend-mode:screen;}</style>
  </defs>
  <g class="cls-1">
    <g id="Слой_2" data-name="Слой 2">
      <g id="Слой_1-2" data-name="Слой 1">
        <polygon class="cls-2" points="77.18 54.48 147.31 24.73 139.01 111.67 77.18 142.98 77.18 54.48"></polygon>
        <polygon class="cls-3" points="2.53 39.15 76.38 68.56 77.18 142.98 10.33 111.51 2.53 39.15"></polygon>
        <polygon class="cls-4" points="2.53 39.15 9.27 99.21 76.99 68.76 77.09 15.53 2.53 39.15"></polygon>
        <polygon class="cls-5" points="9.27 99.21 76.99 68.76 140.26 96.1 76.38 128.41 9.27 99.21"></polygon>
        <path class="cls-6" d="M67.65,79.33c-.41-3-3.63-5.11-7.18-4.62s-7.73,3.19-7.31,6.23,5.27,5.27,8.82,4.78S68.07,82.37,67.65,79.33Z"></path>
        <path class="cls-7" d="M65.9,83.82a7.1,7.1,0,0,1-4.52,1.82,10,10,0,0,1-4.78-1.08,5.59,5.59,0,0,1-3.18-3.46c-.33-1.59.8-3.07,2.07-4a11.19,11.19,0,0,1,4.44-2,7.06,7.06,0,0,1,4.78.49,5.26,5.26,0,0,1,2.92,3.77A5.31,5.31,0,0,1,65.9,83.82ZM64.84,75.3a7.5,7.5,0,0,0-5-.75,11.61,11.61,0,0,0-4.66,2.11c-1.31,1-2.58,2.68-2.17,4.53a6,6,0,0,0,3.44,3.68,10.37,10.37,0,0,0,5,1,7.28,7.28,0,0,0,4.58-2,5.34,5.34,0,0,0,1.71-4.57A5.45,5.45,0,0,0,64.84,75.3Z"></path>
        <path class="cls-6" d="M60.89,92.63c-2.22-2.12-6-1.73-8.5.86s-4.06,7.31-1.84,9.43,7.4.84,9.88-1.76S63.11,94.75,60.89,92.63Z"></path>
        <path class="cls-7" d="M62.31,97.24a7.09,7.09,0,0,1-2.4,4.24,10.17,10.17,0,0,1-4.42,2.13,5.6,5.6,0,0,1-4.64-.73c-1.25-1-1.28-2.9-.88-4.44a11,11,0,0,1,2.22-4.33,7,7,0,0,1,4-2.6,4.88,4.88,0,0,1,6.08,5.73Zm-6.13-6a7.42,7.42,0,0,0-4.39,2.54,11.62,11.62,0,0,0-2.34,4.55c-.38,1.62-.34,3.7,1.13,4.89a5.9,5.9,0,0,0,5,.73,10.2,10.2,0,0,0,4.52-2.27,7.26,7.26,0,0,0,2.34-4.41,5.26,5.26,0,0,0-6.24-6Z"></path>
        <polygon class="cls-5" points="77.09 15.53 2.53 39.15 76.38 68.56 145.44 39.15 77.09 15.53"></polygon>
        <path class="cls-6" d="M47,81c-2.1-2.23-5.92-2.06-8.53.4s-4.45,7.07-2.35,9.31,7.35,1.24,10-1.21S49.13,83.25,47,81Z"></path>
        <path class="cls-7" d="M48.2,85.7a7,7,0,0,1-2.63,4.09A10,10,0,0,1,41,91.68a5.58,5.58,0,0,1-4.59-1c-1.19-1.11-1.12-3-.64-4.48A11.19,11.19,0,0,1,38.27,82a7.13,7.13,0,0,1,4.18-2.37A4.89,4.89,0,0,1,48.2,85.7Zm-5.79-6.34a7.47,7.47,0,0,0-4.53,2.29,11.79,11.79,0,0,0-2.58,4.42c-.47,1.59-.54,3.67.86,4.94a6,6,0,0,0,4.93,1,10.36,10.36,0,0,0,4.64-2,7.24,7.24,0,0,0,2.58-4.28,5.26,5.26,0,0,0-5.9-6.36Z"></path>
        <path class="cls-6" d="M74.65,107.73c2.21-2.13,2-6-.5-8.53S67,94.84,64.8,97s-1.14,7.36,1.35,9.94S72.44,109.86,74.65,107.73Z"></path>
        <path class="cls-7" d="M70,109a7,7,0,0,1-4.13-2.58,10,10,0,0,1-2-4.5,5.59,5.59,0,0,1,.92-4.61c1.09-1.2,3-1.16,4.47-.69A11.19,11.19,0,0,1,73.54,99,7,7,0,0,1,76,103.12,4.88,4.88,0,0,1,70,109Zm6.25-5.88a7.37,7.37,0,0,0-2.35-4.49,11.59,11.59,0,0,0-4.45-2.52c-1.6-.45-3.68-.5-4.93.92a6,6,0,0,0-.94,5,10.35,10.35,0,0,0,2.08,4.61A7.28,7.28,0,0,0,70,109.07a5.25,5.25,0,0,0,6.27-6Z"></path>
        <path class="cls-6" d="M44.44,102.53c1.8-2.48.92-6.2-2-8.31s-7.79-3-9.59-.56.16,7.45,3.05,9.55S42.64,105,44.44,102.53Z"></path>
        <path class="cls-7" d="M40.06,104.55a7.1,7.1,0,0,1-4.52-1.81,10.17,10.17,0,0,1-2.7-4.1,5.6,5.6,0,0,1,.1-4.69c.87-1.38,2.71-1.66,4.29-1.47a11.3,11.3,0,0,1,4.59,1.63,7,7,0,0,1,3.11,3.66,4.87,4.87,0,0,1-4.87,6.78Zm5.14-6.87a7.42,7.42,0,0,0-3.1-4A11.52,11.52,0,0,0,37.28,92c-1.65-.17-3.71.14-4.7,1.76a6,6,0,0,0-.06,5,10.21,10.21,0,0,0,2.85,4.18,7.3,7.3,0,0,0,4.69,1.73,5.37,5.37,0,0,0,4.4-2.12A5.44,5.44,0,0,0,45.2,97.68Z"></path>
        <polygon class="cls-8" points="17.45 64.31 20.24 96.62 26.77 99.42 23.97 68.66 17.45 64.31"></polygon>
        <polygon class="cls-8" points="29.56 100.35 35.37 102.94 34.22 59.03 26.77 55.92 29.56 100.35"></polygon>
        <polygon class="cls-9" points="77.18 0 77.09 15.53 127.74 32.93 147.31 24.73 77.18 0"></polygon>
        <path class="cls-6" d="M86.14,82.94c2.93-.9,4.46-4.41,3.42-7.83S85.17,68,82.24,68.89s-4.36,6-3.31,9.46S83.2,83.83,86.14,82.94Z"></path>
        <path class="cls-7" d="M81.42,81.92a7.1,7.1,0,0,1-2.51-4.17,9.94,9.94,0,0,1,.31-4.9,5.6,5.6,0,0,1,2.9-3.69c1.52-.58,3.16.31,4.31,1.41a11.07,11.07,0,0,1,2.68,4.06,7,7,0,0,1,.28,4.8,5.24,5.24,0,0,1-3.26,3.48A5.3,5.3,0,0,1,81.42,81.92Zm8.24-2.4a7.42,7.42,0,0,0,0-5.07,11.57,11.57,0,0,0-2.83-4.27c-1.21-1.13-3-2.11-4.81-1.42a6,6,0,0,0-3.08,4,10.29,10.29,0,0,0-.24,5A7.31,7.31,0,0,0,81.35,82a5.26,5.26,0,0,0,8.31-2.49Z"></path>
        <path class="cls-6" d="M106.65,107.47c1.81-2.48.94-6.2-2-8.32s-7.77-3.08-9.58-.6.13,7.45,3,9.57S104.83,109.94,106.65,107.47Z"></path>
        <path class="cls-7" d="M102.26,109.47a7.07,7.07,0,0,1-4.51-1.83,10.12,10.12,0,0,1-2.69-4.11,5.6,5.6,0,0,1,.12-4.69c.87-1.38,2.72-1.65,4.29-1.45A11.09,11.09,0,0,1,104.05,99a7,7,0,0,1,3.1,3.66,5.24,5.24,0,0,1-.52,4.75A5.29,5.29,0,0,1,102.26,109.47Zm5.16-6.85a7.41,7.41,0,0,0-3.08-4,11.56,11.56,0,0,0-4.81-1.72c-1.66-.18-3.72.13-4.71,1.74a5.93,5.93,0,0,0-.08,5,10.29,10.29,0,0,0,2.84,4.19,7.27,7.27,0,0,0,4.68,1.75,5.25,5.25,0,0,0,5.16-7Z"></path>
        <path class="cls-6" d="M114.29,89.4c1.85-2.45,1-6.18-1.82-8.35s-7.73-3.19-9.58-.75,0,7.45,2.87,9.62S112.44,91.85,114.29,89.4Z"></path>
        <path class="cls-7" d="M109.87,91.34a7.14,7.14,0,0,1-4.48-1.91,10,10,0,0,1-2.62-4.14A5.55,5.55,0,0,1,103,80.6c.89-1.37,2.74-1.61,4.31-1.39a11.21,11.21,0,0,1,4.56,1.72,7,7,0,0,1,3,3.72,4.88,4.88,0,0,1-5,6.69Zm5.27-6.78a7.42,7.42,0,0,0-3-4.07,11.58,11.58,0,0,0-4.79-1.8c-1.65-.2-3.71.08-4.73,1.67a6,6,0,0,0-.16,5,10.37,10.37,0,0,0,2.77,4.23,7.27,7.27,0,0,0,4.66,1.82,5.25,5.25,0,0,0,5.27-6.89Z"></path>
        <path class="cls-6" d="M91.27,96.7c2.26-2.07,2.12-5.9-.3-8.53s-7-4.52-9.29-2.44-1.32,7.33,1.11,10S89,98.78,91.27,96.7Z"></path>
        <path class="cls-7" d="M86.58,97.83a7.08,7.08,0,0,1-4.07-2.68,10,10,0,0,1-1.84-4.54,5.63,5.63,0,0,1,1-4.59c1.12-1.18,3-1.09,4.49-.59a11.16,11.16,0,0,1,4.18,2.5,7,7,0,0,1,2.33,4.2,5.24,5.24,0,0,1-1.43,4.56A5.33,5.33,0,0,1,86.58,97.83ZM93,92.1a7.5,7.5,0,0,0-2.25-4.55,11.64,11.64,0,0,0-4.39-2.62c-1.59-.49-3.67-.59-5,.8a6,6,0,0,0-1.06,4.93,10.39,10.39,0,0,0,2,4.66,7.32,7.32,0,0,0,4.26,2.62A5.27,5.27,0,0,0,93,92.1Z"></path>
        <path class="cls-6" d="M81.16,110.42c-.24-3.06-3.33-5.32-6.9-5s-7.9,2.72-7.67,5.78,5,5.57,8.53,5.3S81.39,113.48,81.16,110.42Z"></path>
        <path class="cls-7" d="M79.14,114.8a7.14,7.14,0,0,1-4.62,1.54A9.9,9.9,0,0,1,69.81,115a5.6,5.6,0,0,1-3-3.63c-.24-1.61,1-3,2.31-3.9a11.13,11.13,0,0,1,4.55-1.73,7.05,7.05,0,0,1,4.74.76,4.89,4.89,0,0,1,.7,8.33Zm-.55-8.57a7.49,7.49,0,0,0-5-1A11.64,11.64,0,0,0,68.85,107c-1.37.94-2.73,2.52-2.43,4.39a5.92,5.92,0,0,0,3.21,3.87,10.25,10.25,0,0,0,4.89,1.34,7.24,7.24,0,0,0,4.69-1.73,5.26,5.26,0,0,0-.62-8.65Z"></path>
        <polygon class="cls-10" points="147.62 24.42 77.49 54.17 77.15 69.15 145.75 38.84 147.62 24.42"></polygon>
        <polygon class="cls-4" points="77.02 68.25 77.02 128.1 140.9 95.79 146.08 38.84 77.02 68.25"></polygon>
        <polygon class="cls-9" points="0 22.23 77.18 0 77.09 15.53 2.53 39.15 0 22.23"></polygon>
        <polygon class="cls-10" points="0 22.23 2.53 39.15 77.15 69.15 77.49 54.17 0 22.23"></polygon>
      </g>
    </g>
  </g>
</svg>
