<?xml version="1.0" encoding="UTF-8"?>
<svg xmlns="http://www.w3.org/2000/svg" viewBox="0 0 219.74 149.93">
  <defs>
    <style>.cls-1{opacity:0.5;}.cls-2{fill:#f0f7fd;stroke-width:0.16px;opacity:0.83;}.cls-2,.cls-4,.cls-5{stroke:#77aad5;stroke-miterlimit:10;}.cls-3{fill:#d0e6f6;}.cls-4,.cls-5{fill:none;}.cls-4{stroke-width:1.84px;}.cls-5{stroke-width:1.76px;}</style>
  </defs>
  <g id="Слой_2" data-name="Слой 2">
    <g id="Слой_1-2" data-name="Слой 1">
      <g class="cls-1">
        <path class="cls-2" d="M108.56,1.76,8.61,35.88A12.22,12.22,0,0,0,.38,47.47v96.41h219V47.25a12.22,12.22,0,0,0-8-11.49l-92-33.87A16.2,16.2,0,0,0,108.56,1.76Z"></path>
        <path class="cls-3" d="M150.55,142.58H79.15c-.65,0-1.18-1-1.18-2.17v-30c0-1.19.53-2.16,1.17-2.16h71.41c.65,0,1.18,1,1.18,2.17v30C151.73,141.61,151.2,142.58,150.55,142.58Zm68.78-34.35v-2.55H1v2.55H75.92c.65,0,1.18,1,1.18,2.17v30c0,1.2-.54,2.18-1.19,2.18H1v7.31h218.3v-7.31H153.79c-.66,0-1.18-1-1.18-2.17v-30c0-1.2.52-2.17,1.18-2.17Z"></path>
        <line class="cls-4" x1="218.86" y1="78.64" x2="1.03" y2="78.64"></line>
        <path class="cls-5" d="M218.86,149.93V52.33a13.79,13.79,0,0,0-13.8-13.79H14.68A13.79,13.79,0,0,0,.88,52.33V48.42a13.79,13.79,0,0,1,9.35-13.06L109.38,1.62a13.77,13.77,0,0,1,9.2.11l91.24,33.49a13.79,13.79,0,0,1,9,13Z"></path>
      </g>
    </g>
  </g>
</svg>
