<?xml version="1.0" encoding="UTF-8"?>
<svg xmlns="http://www.w3.org/2000/svg" viewBox="0 0 264.9 180.74">
  <defs>
    <style>.cls-1{opacity:0.5;}.cls-2{fill:#f0f7fd;stroke-width:0.2px;opacity:0.83;}.cls-2,.cls-4,.cls-5{stroke:#77aad5;stroke-miterlimit:10;}.cls-3{fill:#d0e6f6;}.cls-4,.cls-5{fill:none;}.cls-4{stroke-width:2.22px;}.cls-5{stroke-width:2.13px;}</style>
  </defs>
  <g id="Слой_2" data-name="Слой 2">
    <g id="Слой_1-2" data-name="Слой 1">
      <g class="cls-1">
        <path class="cls-2" d="M130.88,2.12,10.38,43.26a14.72,14.72,0,0,0-9.92,14V173.45h264V57a14.74,14.74,0,0,0-9.59-13.85L143.94,2.28A19.52,19.52,0,0,0,130.88,2.12Z"></path>
        <path class="cls-3" d="M181.5,171.88H95.42c-.79,0-1.43-1.17-1.43-2.61V133.08c0-1.44.64-2.6,1.42-2.6H181.5c.78,0,1.42,1.17,1.42,2.61v36.18C182.92,170.71,182.28,171.88,181.5,171.88Zm82.91-41.4V127.4H1.24v3.08H91.52c.78,0,1.42,1.17,1.42,2.61v36.17c0,1.45-.64,2.62-1.43,2.62H1.24v8.82H264.41v-8.82h-79c-.78,0-1.42-1.17-1.42-2.61V133.09c0-1.44.64-2.61,1.42-2.61Z"></path>
        <line class="cls-4" x1="263.84" y1="94.8" x2="1.24" y2="94.8"></line>
        <path class="cls-5" d="M263.84,180.74V63.09a16.64,16.64,0,0,0-16.63-16.63H17.69A16.64,16.64,0,0,0,1.06,63.09V58.37A16.65,16.65,0,0,1,12.34,42.62L131.86,2A16.62,16.62,0,0,1,143,2.08l110,40.38a16.63,16.63,0,0,1,10.9,15.61Z"></path>
      </g>
    </g>
  </g>
</svg>
