<?xml version="1.0" encoding="UTF-8"?>
<svg xmlns="http://www.w3.org/2000/svg" viewBox="0 0 93.96 291.91">
  <defs>
    <style>.cls-1{fill:#93c6ee;}.cls-2{fill:#c9e2f6;}.cls-3{fill:#aed4f2;}.cls-4{fill:#483223;}.cls-5{fill:#d3cabf;}.cls-6{fill:#8b5b3c;}.cls-7{fill:#956d4b;}.cls-8{fill:#754120;}.cls-9{fill:#a17551;}.cls-10{fill:#44281c;}.cls-11{fill:#6c3c1d;}.cls-12{fill:#714d31;}.cls-13{fill:#613822;}.cls-14{fill:#7f5637;}.cls-15{fill:#a07850;}</style>
  </defs>
  <g id="Слой_2" data-name="Слой 2">
    <g id="Слой_1-2" data-name="Слой 1">
      <path class="cls-1" d="M19.73,76.09S2.57,93.44,11,102.79c8.19,9.11,21.13.81,16.42-11.58C23.18,80.09,19.73,76.09,19.73,76.09Z"></path>
      <path class="cls-2" d="M14.07,92.36c.59-1.78,1.93-5.87,2.45-7.35a40.48,40.48,0,0,1,2.33-4.79s1.64-3.15-2.53,1.37S9.55,94.42,10.82,94.9C11.83,95.29,13.48,94.12,14.07,92.36Z"></path>
      <path class="cls-3" d="M23.66,98.36c-.51,1.69-.27,3.26.53,3.5a3.11,3.11,0,0,0,3.12-2.33c.51-2-.5-3.64-1.3-3.81S24.16,96.66,23.66,98.36Z"></path>
      <path class="cls-1" d="M48.36,76.09s-17.17,17.35-8.76,26.7c8.19,9.11,21.13.81,16.42-11.58C51.8,80.09,48.36,76.09,48.36,76.09Z"></path>
      <path class="cls-2" d="M42.69,92.36c.59-1.78,1.93-5.87,2.45-7.35a40.48,40.48,0,0,1,2.33-4.79s1.64-3.15-2.53,1.37-6.77,12.83-5.5,13.31C40.45,95.29,42.11,94.12,42.69,92.36Z"></path>
      <path class="cls-3" d="M52.28,98.36c-.51,1.69-.27,3.26.53,3.5a3.11,3.11,0,0,0,3.12-2.33c.51-2-.5-3.64-1.3-3.81S52.78,96.66,52.28,98.36Z"></path>
      <path class="cls-1" d="M77,76.09s-17.17,17.35-8.76,26.7c8.19,9.11,21.13.81,16.42-11.58C80.42,80.09,77,76.09,77,76.09Z"></path>
      <path class="cls-2" d="M71.31,92.36c.59-1.78,1.93-5.87,2.45-7.35a40.48,40.48,0,0,1,2.33-4.79s1.64-3.15-2.53,1.37-6.77,12.83-5.5,13.31C69.07,95.29,70.73,94.12,71.31,92.36Z"></path>
      <path class="cls-3" d="M80.9,98.36c-.51,1.69-.27,3.26.53,3.5a3.11,3.11,0,0,0,3.12-2.33c.51-2-.5-3.64-1.3-3.81S81.4,96.66,80.9,98.36Z"></path>
      <path class="cls-1" d="M37.29,38S20.13,55.4,28.53,64.74c8.19,9.12,21.14.82,16.43-11.58C40.73,42,37.29,38,37.29,38Z"></path>
      <path class="cls-2" d="M31.62,54.32c.59-1.79,1.93-5.87,2.46-7.35a38.61,38.61,0,0,1,2.32-4.79s1.65-3.15-2.53,1.37-6.77,12.83-5.5,13.31C29.39,57.25,31,56.08,31.62,54.32Z"></path>
      <path class="cls-3" d="M41.21,60.31c-.5,1.7-.26,3.26.53,3.5a3.1,3.1,0,0,0,3.12-2.32c.51-2-.5-3.64-1.3-3.82S41.71,58.62,41.21,60.31Z"></path>
      <path class="cls-1" d="M65.91,38S48.75,55.4,57.15,64.74c8.19,9.12,21.14.82,16.43-11.58C69.35,42,65.91,38,65.91,38Z"></path>
      <path class="cls-2" d="M60.24,54.32c.59-1.79,1.93-5.87,2.46-7.35A38.61,38.61,0,0,1,65,42.18s1.65-3.15-2.53,1.37S55.72,56.38,57,56.86C58,57.25,59.66,56.08,60.24,54.32Z"></path>
      <path class="cls-3" d="M69.83,60.31c-.5,1.7-.26,3.26.53,3.5a3.1,3.1,0,0,0,3.12-2.32c.51-2-.5-3.64-1.3-3.82S70.33,58.62,69.83,60.31Z"></path>
      <path class="cls-1" d="M51.88,0S34.72,17.35,43.12,26.7c8.2,9.11,21.14.81,16.43-11.58C55.33,4,51.88,0,51.88,0Z"></path>
      <path class="cls-2" d="M46.22,16.27c.59-1.78,1.92-5.87,2.45-7.35A40.48,40.48,0,0,1,51,4.13S52.64,1,48.47,5.5,41.7,18.33,43,18.81C44,19.2,45.63,18,46.22,16.27Z"></path>
      <path class="cls-3" d="M55.8,22.27c-.5,1.69-.26,3.26.54,3.5a3.12,3.12,0,0,0,3.12-2.32c.5-2-.5-3.65-1.3-3.82S56.31,20.58,55.8,22.27Z"></path>
      <path class="cls-4" d="M39.79,170.32c3.91,3.42,10.32,2.48,14.32-2.09s6.31-12.67,2.39-16.09-12.59-.86-16.58,3.71S35.87,166.9,39.79,170.32Z"></path>
      <path class="cls-5" d="M39.81,170.3a8.31,8.31,0,0,0,3.78,1.81,9.67,9.67,0,0,0,4.18-.16,12.26,12.26,0,0,0,6.75-4.68A19,19,0,0,0,58,159.7a10.84,10.84,0,0,0,.11-4.13,5.44,5.44,0,0,0-2-3.45,7,7,0,0,0-3.85-1.32,13.62,13.62,0,0,0-4.16.44,17.06,17.06,0,0,0-7.34,4A12.05,12.05,0,0,0,37,162.63,9,9,0,0,0,39.81,170.3Zm0,0a9.06,9.06,0,0,1-2.89-7.72,12.22,12.22,0,0,1,3.65-7.6A17.54,17.54,0,0,1,48,150.88a14.33,14.33,0,0,1,4.28-.49,7.46,7.46,0,0,1,4.1,1.37,6,6,0,0,1,2.24,3.71,11.31,11.31,0,0,1-.06,4.34A19.51,19.51,0,0,1,55,167.62a12.29,12.29,0,0,1-7.13,4.63A9.26,9.26,0,0,1,39.77,170.34Z"></path>
      <polygon class="cls-6" points="6.59 271.84 49.23 291.91 88.67 271.94 47.66 254.56 6.59 271.84"></polygon>
      <polygon class="cls-6" points="0 214.89 49.23 235.46 93.96 216.49 49.23 200.71 0 214.89"></polygon>
      <path class="cls-7" d="M49.23,235.46V261.3s13.6-10,19.12-10.55,16.3,20.69,20.32,21.19L94,216.49Z"></path>
      <path class="cls-8" d="M3.6,245.74l3,26.1,42.64,20.07V261.3s-23.54-10-26-13.56-19.58-2-19.58-2"></path>
      <path class="cls-9" d="M0,214.89l3.6,30.85s4.6.36,9.54.5c6.19.17,12,4.18,16.73,8.87,5.44,5.44,19.36,6.19,19.36,6.19V235.46Z"></path>
      <path class="cls-10" d="M32.81,264.57a2.17,2.17,0,0,0-.09-.76h0s-.32-.86-1.09-.88-1.21.42-1.16.66l.16.35h0l.64.54.12.09.13.09c.29.21.25.29.56.35a.91.91,0,0,0,.63-.16l.06-.1h0v0Z"></path>
      <path class="cls-10" d="M14.21,261a3.83,3.83,0,0,0-1.28.7h0a2.59,2.59,0,0,0-.78,2.53c.5,1.35,1.61,1.84,2,1.58l.5-.54v0a13,13,0,0,0,.48-1.51l.08-.26.08-.29c.16-.66.32-.66.22-1.25a1.79,1.79,0,0,0-.72-1l-.24,0h0Z"></path>
      <path class="cls-10" d="M44.26,278.37a9.21,9.21,0,0,0-1.63-3.25h0s-2.83-3.33-6.28-2.22-4.77,3.88-4.17,4.85a12.36,12.36,0,0,0,1.31,1.3l.12,0c1,.65,2.89,1,3.72,1.38a2.12,2.12,0,0,0,.66.21,7.48,7.48,0,0,0,.72.22c1.65.47,1.62.89,3.1.68a4.42,4.42,0,0,0,2.55-1.71,4.21,4.21,0,0,0,.11-.59h0v-.06a1.09,1.09,0,0,0-.24-.82"></path>
      <path class="cls-10" d="M22,267a7.2,7.2,0,0,0-1.58,2.29h0s-1.2,3.13.82,5,4.36,1.78,4.8,1a9.21,9.21,0,0,0,.39-1.35l0-.08a25.87,25.87,0,0,0-.45-3,1.63,1.63,0,0,0-.09-.52c0-.14-.06-.3-.12-.56-.3-1.28,0-1.41-.69-2.34a3.35,3.35,0,0,0-2.08-1.07l-.44.14h0l0,0A.85.85,0,0,0,22,267"></path>
      <path class="cls-11" d="M49.23,261.3s9.59-13.56,20.63-13.89S91.78,239,91.78,239l-3.11,32.9-39.44,20Z"></path>
      <path class="cls-10" d="M63.29,266.46a9.24,9.24,0,0,0-3.43,1.13v0s-3.67,2.3-3.06,5.84,3.12,5.23,4.16,4.78a13.19,13.19,0,0,0,1.46-1.1l0-.11c.79-.9,1.36-2.7,1.88-3.46a1.74,1.74,0,0,0,.31-.61c.09-.17.18-.36.31-.67.7-1.55,1.1-1.46,1.11-3a4.35,4.35,0,0,0-1.31-2.74,3,3,0,0,0-.56-.19v0h-.06a1,1,0,0,0-.84.12"></path>
      <path class="cls-10" d="M81.41,265.39a2.72,2.72,0,0,0-1.07-.26h0a2,2,0,0,0-1.73,1c-.42,1,0,1.86.29,1.91l.56,0,0,0a6.77,6.77,0,0,0,1-.59l.18-.11.19-.12c.43-.29.52-.2.77-.58a1.34,1.34,0,0,0,.1-.92l-.11-.14h0Z"></path>
      <path class="cls-10" d="M78.14,255.89a7.23,7.23,0,0,0-2.42-1.42v0s-3.23-1-5,1.21-1.46,4.51-.66,4.89a10.3,10.3,0,0,0,1.39.29l.08,0a22.93,22.93,0,0,0,3-.68,1.39,1.39,0,0,0,.52-.13l.56-.16c1.26-.4,1.42-.11,2.29-.87a3.39,3.39,0,0,0,.92-2.17l-.17-.43h0l0,0a.78.78,0,0,0-.49-.43"></path>
      <path class="cls-12" d="M46.24,223.32a1.38,1.38,0,0,0-1.31-.48c-.73.23-1,.8-.89,1l.27.27.58-.33Z"></path>
      <path class="cls-13" d="M46.61,224.2s-.22-1-.6-1-.78-.07-.78-.07l-.11.18.52.7.49.14Z"></path>
      <path class="cls-14" d="M46.59,224.32c0-.09.09-.31-.15-.38a4.16,4.16,0,0,0-.48-.11l-.71.53c-.11.06-.2.06.15.16s.34.19.65.15a.94.94,0,0,0,.54-.35"></path>
      <path class="cls-15" d="M46,223.83l-.43.43-.42.16-.89-.39c-.13-.2-.13-.18,0-.43a1.09,1.09,0,0,1,.7-.42.59.59,0,0,1,.69.14Z"></path>
      <path class="cls-12" d="M43.26,206.56a2,2,0,0,0-2-.29c-1,.54-1.2,1.45-1,1.71l.48.31c.31.2.7-.64.73-.65Z"></path>
      <path class="cls-13" d="M44.07,207.69s-.63-1.35-1.16-1.24-1.16.14-1.16.14l-.09.29s.72.81,1,.84.66,0,.76.06Z"></path>
      <path class="cls-14" d="M44.07,207.88c0-.13,0-.48-.32-.51a6.07,6.07,0,0,0-.73,0l-.86,1c-.14.13-.26.15.27.19s.54.17,1,0a1.4,1.4,0,0,0,.66-.67"></path>
      <path class="cls-15" d="M43,207.38a5.43,5.43,0,0,0-.49.74c-.18.35-.21.45-.54.36s-1.13,0-1.4-.28-.25-.23-.08-.64a1.63,1.63,0,0,1,.87-.82.89.89,0,0,1,1,0,2.27,2.27,0,0,1,.6.64"></path>
      <path class="cls-12" d="M39.25,212.71s-4.17-2.09-7.09.46S29.1,219,30.1,219.68a11.71,11.71,0,0,0,1.83.73c1.2.45,2-2.69,2-2.73Z"></path>
      <path class="cls-13" d="M42.82,216s-3.1-4.15-4.86-3.42-3.83,1.32-3.83,1.32L34,215s3.05,2.26,3.86,2.19,2.25-.33,2.61-.33a19.28,19.28,0,0,0,2.34-.81"></path>
      <path class="cls-14" d="M42.94,216.63c0-.46-.21-1.64-1.46-1.48a17,17,0,0,0-2.46.53s-1.82,3.31-2.23,3.88-.78.7,1,.46,2,.19,3.34-.64a4.72,4.72,0,0,0,1.78-2.75"></path>
      <path class="cls-15" d="M39,215.68a21.52,21.52,0,0,0-1.14,2.88c-.38,1.31-.39,1.67-1.59,1.61s-3.88.71-4.95,0-1-.58-.72-2.1,1-2.25,2.37-3.43a3.11,3.11,0,0,1,3.53-.74,8,8,0,0,1,2.5,1.75"></path>
      <path class="cls-12" d="M53.69,213.58s-3.5-2.06-6.19,0-3,4.86-2.18,5.54a12.11,12.11,0,0,0,1.55.74c1,.46,1.85-2.22,1.91-2.25Z"></path>
      <path class="cls-13" d="M56.58,216.66s-2.43-3.79-4-3.27-3.4.92-3.4.92l-.17.9s2.51,2.15,3.22,2.14,2-.15,2.28-.13a15.34,15.34,0,0,0,2.08-.56"></path>
      <path class="cls-14" d="M56.65,217.21c0-.4-.08-1.44-1.18-1.37a14.33,14.33,0,0,0-2.16.31s-1.79,2.76-2.17,3.23-.72.56.87.47,1.69.28,2.93-.36a4.11,4.11,0,0,0,1.71-2.28"></path>
      <path class="cls-15" d="M53.31,216.14a19,19,0,0,0-1.17,2.44c-.4,1.11-.44,1.43-1.47,1.3s-3.41.38-4.3-.27-.85-.57-.5-1.87a4.8,4.8,0,0,1,2.26-2.83,2.69,2.69,0,0,1,3.11-.43,7,7,0,0,1,2.07,1.66"></path>
      <path class="cls-12" d="M63,209.88s-3.45-2.66-6.58-.85-3.86,4.77-3.07,5.59a13.77,13.77,0,0,0,1.54,1c1,.62,2.28-2.12,2.35-2.15Z"></path>
      <path class="cls-13" d="M65.63,213.55s-2.09-4.36-3.83-4-3.75.52-3.75.52l-.3.94s2.39,2.63,3.14,2.71,2.13.1,2.45.17a16.8,16.8,0,0,0,2.29-.32"></path>
      <path class="cls-14" d="M65.63,214.15c.05-.43.1-1.55-1.07-1.62a16.72,16.72,0,0,0-2.35,0s-2.27,2.72-2.74,3.16-.85.5.86.61,1.76.53,3.17,0a4.42,4.42,0,0,0,2.13-2.2"></path>
      <path class="cls-15" d="M62.21,212.56A20.74,20.74,0,0,0,60.64,215c-.58,1.13-.66,1.46-1.74,1.19s-3.69-.05-4.55-.87-.83-.71-.28-2.06,1.32-1.87,2.79-2.71a2.92,2.92,0,0,1,3.38,0,7.56,7.56,0,0,1,2,2.05"></path>
      <path class="cls-12" d="M65.64,221.05a2.07,2.07,0,0,0,1.91-1c.52-1,.18-2-.17-2h-.59c-.39,0-.24,1-.25,1Z"></path>
      <path class="cls-13" d="M64.27,220.55s1.34.79,1.75.38.9-.8.9-.8l-.08-.31-1.33-.16c-.21.11-.58.35-.68.39Z"></path>
      <path class="cls-14" d="M64.16,220.39c.07.12.25.43.58.24a5.1,5.1,0,0,0,.62-.43l.17-1.34c0-.2.14-.28-.34,0s-.56.18-.85.57a1.4,1.4,0,0,0-.18,1"></path>
      <path class="cls-15" d="M65.36,220.2a6.25,6.25,0,0,0,0-.93c0-.41-.08-.51.26-.63s1-.65,1.37-.58.35,0,.44.5a1.65,1.65,0,0,1-.26,1.22.94.94,0,0,1-.89.62,2.55,2.55,0,0,1-.9-.2"></path>
      <path class="cls-12" d="M32.76,221.79a2.69,2.69,0,0,0,2.53-1c.74-1.28.4-2.48-.06-2.62a7,7,0,0,0-.75,0c-.49,0-.38,1.22-.4,1.25Z"></path>
      <path class="cls-13" d="M31.07,221s1.63,1.13,2.18.65,1.23-1,1.23-1l-.08-.4a5.32,5.32,0,0,0-1.68-.32c-.28.12-.77.4-.9.44Z"></path>
      <path class="cls-14" d="M30.94,220.82c.07.16.28.57.72.36a6.45,6.45,0,0,0,.83-.5s.25-1.42.33-1.68.2-.35-.43,0-.74.17-1.13.64a1.83,1.83,0,0,0-.32,1.22"></path>
      <path class="cls-15" d="M32.49,220.68a9,9,0,0,0,.06-1.18c0-.53-.07-.66.38-.78s1.32-.74,1.79-.62.44.08.52.67a2.14,2.14,0,0,1-.44,1.54,1.17,1.17,0,0,1-1.19.7,3,3,0,0,1-1.12-.33"></path>
      <path class="cls-12" d="M44.32,215.19a1.55,1.55,0,0,0,1.56.27c.77-.39,1-1.09.79-1.3l-.36-.25c-.23-.16-.56.48-.58.48Z"></path>
      <path class="cls-13" d="M43.73,214.29s.45,1.06.87,1a8.58,8.58,0,0,1,.9-.09l.08-.22-.72-.67-.58-.07Z"></path>
      <path class="cls-14" d="M43.73,214.15c0,.1,0,.37.24.4a3.6,3.6,0,0,0,.56,0l.69-.72c.11-.1.2-.11-.2-.15s-.42-.15-.76,0a1.06,1.06,0,0,0-.53.5"></path>
      <path class="cls-15" d="M44.53,214.56a4.86,4.86,0,0,0,.4-.56c.15-.27.17-.34.43-.27s.87.05,1.07.26.19.17,0,.49a1.25,1.25,0,0,1-.69.62.7.7,0,0,1-.8,0,1.76,1.76,0,0,1-.45-.51"></path>
      <path class="cls-12" d="M58.38,221.13s3.93,1,5.89-1.75,1.47-5.49.49-5.89a13.46,13.46,0,0,0-1.68-.27c-1.11-.14-1.13,2.65-1.18,2.7Z"></path>
      <path class="cls-13" d="M54.74,219s3.42,2.9,4.76,2,3-1.85,3-1.85l-.1-.91s-3-1.32-3.67-1.11-1.84.72-2.14.79A16.22,16.22,0,0,0,54.74,219"></path>
      <path class="cls-14" d="M54.52,218.53c.12.38.5,1.35,1.52,1a15.54,15.54,0,0,0,2-.92s.9-3.14,1.13-3.7.53-.74-1-.19-1.69.22-2.69,1.18a4.12,4.12,0,0,0-1,2.66"></path>
      <path class="cls-15" d="M58,218.58a19,19,0,0,0,.41-2.64c.06-1.18,0-1.49,1-1.67s3.13-1.34,4.16-1,1,.29,1,1.63a4.8,4.8,0,0,1-1.34,3.34,2.71,2.71,0,0,1-2.84,1.31,7,7,0,0,1-2.44-1"></path>
      <path class="cls-12" d="M40.3,218.86s2.35,1.33,4.11-.06,1.93-3.27,1.38-3.7a8.16,8.16,0,0,0-1-.48c-.68-.29-1.21,1.5-1.25,1.52Z"></path>
      <path class="cls-13" d="M38.33,216.86S40,219.34,41.05,219s2.24-.66,2.24-.66l.1-.6s-1.7-1.4-2.17-1.38-1.31.13-1.51.12Z"></path>
      <path class="cls-14" d="M38.28,216.49c0,.27.08,1,.8.9a10.91,10.91,0,0,0,1.44-.23s1.14-1.87,1.4-2.18.47-.38-.59-.3-1.12-.16-1.94.28a2.71,2.71,0,0,0-1.11,1.53"></path>
      <path class="cls-15" d="M40.52,217.16a13,13,0,0,0,.74-1.63c.25-.75.28-1,1-.89s2.26-.3,2.86.12.57.37.36,1.24A3.2,3.2,0,0,1,44,217.91a1.8,1.8,0,0,1-2.06.33,4.68,4.68,0,0,1-1.39-1.08"></path>
    </g>
  </g>
</svg>
