<?xml version="1.0" encoding="UTF-8"?>
<svg xmlns="http://www.w3.org/2000/svg" viewBox="0 0 32.26 111.8">
  <defs>
    <style>.cls-1{fill:#93c6ee;}.cls-2{fill:#c9e2f6;}.cls-3{fill:#aed4f2;}.cls-4{fill:#483223;}.cls-5{fill:#d3cabf;}.cls-6{fill:#8b5b3c;}.cls-7{fill:#714d31;}.cls-8{fill:#613922;}.cls-9{fill:#7f5637;}.cls-10{fill:#a07850;}.cls-11{fill:#956d4b;}.cls-12{fill:#754120;}.cls-13{fill:#a17551;}.cls-14{fill:#44281c;}.cls-15{fill:#6c3c1d;}</style>
  </defs>
  <g id="Слой_2" data-name="Слой 2">
    <g id="Слой_1-2" data-name="Слой 1">
      <path class="cls-1" d="M5.74,30.61s-6.91,7-3.53,10.75,8.51.32,6.61-4.66A22.48,22.48,0,0,0,5.74,30.61Z"></path>
      <path class="cls-2" d="M3.46,37.16c.24-.72.77-2.36,1-3a16.08,16.08,0,0,1,.94-1.92s.66-1.27-1,.55S1.64,38,2.15,38.18,3.22,37.87,3.46,37.16Z"></path>
      <path class="cls-3" d="M7.31,39.57c-.2.69-.1,1.32.22,1.41a1.23,1.23,0,0,0,1.25-.93,1.27,1.27,0,0,0-.52-1.54C7.93,38.44,7.52,38.89,7.31,39.57Z"></path>
      <path class="cls-1" d="M17.25,30.61s-6.9,7-3.52,10.75,8.5.32,6.61-4.66A22.26,22.26,0,0,0,17.25,30.61Z"></path>
      <path class="cls-2" d="M15,37.16c.24-.72.78-2.36,1-3a16.08,16.08,0,0,1,.94-1.92s.66-1.27-1,.55S13.15,38,13.66,38.18,14.74,37.87,15,37.16Z"></path>
      <path class="cls-3" d="M18.83,39.57c-.2.69-.11,1.32.21,1.41a1.25,1.25,0,0,0,1.26-.93c.2-.81-.2-1.47-.52-1.54S19,38.89,18.83,39.57Z"></path>
      <path class="cls-1" d="M28.77,30.61s-6.91,7-3.53,10.75,8.51.32,6.61-4.66A22.48,22.48,0,0,0,28.77,30.61Z"></path>
      <path class="cls-2" d="M26.49,37.16c.24-.72.77-2.36,1-3a15.06,15.06,0,0,1,.93-1.92s.66-1.27-1,.55S24.67,38,25.18,38.18,26.25,37.87,26.49,37.16Z"></path>
      <path class="cls-3" d="M30.34,39.57c-.2.69-.1,1.32.22,1.41a1.23,1.23,0,0,0,1.25-.93,1.27,1.27,0,0,0-.52-1.54C31,38.44,30.55,38.89,30.34,39.57Z"></path>
      <path class="cls-1" d="M12.8,15.31s-6.91,7-3.52,10.74,8.5.33,6.6-4.66A22.5,22.5,0,0,0,12.8,15.31Z"></path>
      <path class="cls-2" d="M10.52,21.86c.24-.72.78-2.37,1-3A15.47,15.47,0,0,1,12.44,17s.66-1.27-1,.55S8.7,22.68,9.21,22.88,10.28,22.56,10.52,21.86Z"></path>
      <path class="cls-3" d="M14.38,24.27c-.21.68-.11,1.31.21,1.4a1.25,1.25,0,0,0,1.26-.93,1.29,1.29,0,0,0-.53-1.54C15,23.13,14.58,23.59,14.38,24.27Z"></path>
      <path class="cls-1" d="M24.31,15.31s-6.9,7-3.52,10.74,8.51.33,6.61-4.66A22.27,22.27,0,0,0,24.31,15.31Z"></path>
      <path class="cls-2" d="M22,21.86c.24-.72.78-2.37,1-3A16.54,16.54,0,0,1,24,17s.66-1.27-1,.55-2.72,5.16-2.21,5.36S21.8,22.56,22,21.86Z"></path>
      <path class="cls-3" d="M25.89,24.27c-.2.68-.1,1.31.22,1.4a1.23,1.23,0,0,0,1.25-.93,1.28,1.28,0,0,0-.52-1.54C26.51,23.13,26.09,23.59,25.89,24.27Z"></path>
      <path class="cls-1" d="M18.67,0s-6.9,7-3.52,10.74,8.5.33,6.61-4.66A22.27,22.27,0,0,0,18.67,0Z"></path>
      <path class="cls-2" d="M16.39,6.55c.24-.72.78-2.37,1-3a15,15,0,0,1,.94-1.93s.66-1.26-1,.55-2.73,5.17-2.22,5.36S16.16,7.26,16.39,6.55Z"></path>
      <path class="cls-3" d="M20.25,9c-.2.68-.11,1.31.21,1.41a1.27,1.27,0,0,0,1.26-.94c.2-.8-.2-1.46-.52-1.53S20.45,8.28,20.25,9Z"></path>
      <path class="cls-4" d="M13.81,68.53c1.57,1.37,4.15,1,5.76-.84s2.54-5.1,1-6.48-5.06-.34-6.67,1.5S12.23,67.15,13.81,68.53Z"></path>
      <path class="cls-5" d="M13.81,68.52a3.6,3.6,0,0,0,3.21.66,4.78,4.78,0,0,0,2.71-1.88,7.65,7.65,0,0,0,1.4-3,3,3,0,0,0-.77-3,3.85,3.85,0,0,0-3.22-.35,7,7,0,0,0-3,1.6,4.89,4.89,0,0,0-1.5,3A3.61,3.61,0,0,0,13.81,68.52Zm0,0a3.63,3.63,0,0,1-1.16-3.11,4.91,4.91,0,0,1,1.46-3.06,7,7,0,0,1,3-1.66,4,4,0,0,1,3.37.35,2.36,2.36,0,0,1,.9,1.49,4.48,4.48,0,0,1,0,1.75,7.82,7.82,0,0,1-1.44,3.14A5,5,0,0,1,17,69.3,3.65,3.65,0,0,1,13.8,68.54Z"></path>
      <polygon class="cls-6" points="2.18 105.17 16.27 111.8 29.3 105.2 15.75 99.46 2.18 105.17"></polygon>
      <polygon class="cls-6" points="0 86.35 16.27 93.14 31.05 86.87 16.27 81.66 0 86.35"></polygon>
      <path class="cls-7" d="M15.28,89.13a.45.45,0,0,0-.43-.16c-.24.08-.33.27-.29.34l.09.09s.18-.11.19-.11Z"></path>
      <path class="cls-8" d="M15.41,89.42s-.08-.33-.2-.33a2,2,0,0,1-.26,0l0,.06s.12.21.17.23l.17,0Z"></path>
      <path class="cls-9" d="M15.4,89.46s0-.1-.05-.12l-.16,0-.23.17s-.07,0,0,.06.12.06.22,0A.37.37,0,0,0,15.4,89.46Z"></path>
      <path class="cls-10" d="M15.19,89.3a1.69,1.69,0,0,0-.14.14c-.06.07-.07.09-.14.06s-.25-.06-.29-.13,0-.06,0-.14a.38.38,0,0,1,.23-.15.22.22,0,0,1,.23,0A.55.55,0,0,1,15.19,89.3Z"></path>
      <path class="cls-7" d="M14.3,83.59a.67.67,0,0,0-.67-.09c-.32.18-.4.48-.32.56l.16.11c.1.06.23-.22.24-.22Z"></path>
      <path class="cls-8" d="M14.57,84s-.21-.45-.39-.42a2.64,2.64,0,0,1-.38,0l0,.1s.24.27.31.28l.25,0Z"></path>
      <path class="cls-9" d="M14.56,84s0-.16-.1-.17a1.65,1.65,0,0,0-.24,0l-.28.32s-.09,0,.08.06.18.06.33,0A.43.43,0,0,0,14.56,84Z"></path>
      <path class="cls-10" d="M14.22,83.86a1.84,1.84,0,0,0-.16.25c-.06.11-.07.15-.18.12s-.38,0-.46-.1-.09-.07,0-.21a.55.55,0,0,1,.29-.27.3.3,0,0,1,.34,0A.67.67,0,0,1,14.22,83.86Z"></path>
      <path class="cls-7" d="M13,85.62a2.3,2.3,0,0,0-2.34.16c-1,.84-1,1.92-.68,2.15a4.94,4.94,0,0,0,.6.24c.4.15.65-.89.67-.9Z"></path>
      <path class="cls-8" d="M14.15,86.71s-1-1.37-1.61-1.13-1.26.44-1.26.44l0,.35s1,.74,1.28.72.74-.11.86-.11A5.54,5.54,0,0,0,14.15,86.71Z"></path>
      <path class="cls-9" d="M14.19,86.92c0-.15-.07-.54-.48-.49a6.51,6.51,0,0,0-.81.18s-.61,1.09-.74,1.28-.26.23.34.15.65.06,1.1-.21A1.52,1.52,0,0,0,14.19,86.92Z"></path>
      <path class="cls-10" d="M12.9,86.61a6,6,0,0,0-.38,1c-.13.43-.13.55-.53.53s-1.28.24-1.63,0-.34-.19-.24-.7a1.85,1.85,0,0,1,.78-1.13A1,1,0,0,1,12.07,86,2.57,2.57,0,0,1,12.9,86.61Z"></path>
      <path class="cls-7" d="M17.74,85.91a2,2,0,0,0-2,0c-.89.68-1,1.61-.72,1.83a3.47,3.47,0,0,0,.51.25c.34.15.61-.73.63-.75S17.74,85.91,17.74,85.91Z"></path>
      <path class="cls-8" d="M18.7,86.93s-.8-1.25-1.33-1.08-1.12.3-1.12.3l-.05.3s.83.71,1.06.71.65,0,.75,0A5.78,5.78,0,0,0,18.7,86.93Z"></path>
      <path class="cls-9" d="M18.72,87.11c0-.13,0-.47-.39-.45a4.85,4.85,0,0,0-.71.1s-.59.92-.72,1.07-.24.18.29.15.56.1,1-.11A1.34,1.34,0,0,0,18.72,87.11Z"></path>
      <path class="cls-10" d="M17.62,86.76a6.48,6.48,0,0,0-.39.8c-.13.37-.14.48-.48.44s-1.13.12-1.42-.09-.29-.19-.17-.62a1.57,1.57,0,0,1,.75-.94.9.9,0,0,1,1-.14A2.23,2.23,0,0,1,17.62,86.76Z"></path>
      <path class="cls-7" d="M20.81,84.69a2.14,2.14,0,0,0-2.18-.28c-1,.59-1.27,1.58-1,1.85a4.16,4.16,0,0,0,.51.33c.34.21.75-.7.78-.71Z"></path>
      <path class="cls-8" d="M21.69,85.9s-.69-1.44-1.27-1.32-1.23.17-1.23.17l-.1.31s.79.87,1,.89.71,0,.81.06A5.48,5.48,0,0,0,21.69,85.9Z"></path>
      <path class="cls-9" d="M21.69,86.1c0-.14,0-.51-.35-.54a5.83,5.83,0,0,0-.78,0s-.75.89-.91,1-.28.16.29.2.58.18,1,0A1.47,1.47,0,0,0,21.69,86.1Z"></path>
      <path class="cls-10" d="M20.56,85.58a8,8,0,0,0-.52.8c-.19.38-.22.49-.57.4s-1.22,0-1.51-.29-.27-.24-.09-.68.44-.62.92-.9a1,1,0,0,1,1.12,0A2.52,2.52,0,0,1,20.56,85.58Z"></path>
      <path class="cls-7" d="M21.69,88.38a.71.71,0,0,0,.64-.31c.17-.35.06-.65-.06-.68a.7.7,0,0,0-.2,0c-.13,0-.07.32-.08.32S21.69,88.38,21.69,88.38Z"></path>
      <path class="cls-8" d="M21.24,88.22s.44.26.58.12a3.53,3.53,0,0,1,.3-.26l0-.1a1.33,1.33,0,0,0-.44-.06l-.22.13A1.81,1.81,0,0,0,21.24,88.22Z"></path>
      <path class="cls-9" d="M21.21,88.16s.08.15.19.08a2.12,2.12,0,0,0,.2-.14s0-.37.06-.44,0-.09-.11,0-.19,0-.29.18A.47.47,0,0,0,21.21,88.16Z"></path>
      <path class="cls-10" d="M21.6,88.1a2.84,2.84,0,0,0,0-.31c0-.13,0-.17.08-.21s.33-.21.45-.19.12,0,.15.17a.55.55,0,0,1-.09.4.32.32,0,0,1-.29.21A1,1,0,0,1,21.6,88.1Z"></path>
      <path class="cls-7" d="M10.83,88.63a.87.87,0,0,0,.83-.35c.25-.42.13-.82,0-.86l-.25,0c-.17,0-.13.41-.14.42S10.83,88.63,10.83,88.63Z"></path>
      <path class="cls-8" d="M10.27,88.38s.54.37.72.21a4.06,4.06,0,0,1,.41-.31l0-.13a1.83,1.83,0,0,0-.55-.11l-.3.14A2.16,2.16,0,0,0,10.27,88.38Z"></path>
      <path class="cls-9" d="M10.23,88.3c0,.06.09.19.23.12a2.17,2.17,0,0,0,.28-.16s.08-.47.11-.56.06-.11-.15,0-.24.06-.37.21A.59.59,0,0,0,10.23,88.3Z"></path>
      <path class="cls-10" d="M10.74,88.26s0-.22,0-.39,0-.22.12-.26.44-.24.6-.2.14,0,.17.22a.72.72,0,0,1-.15.51.39.39,0,0,1-.39.23A1,1,0,0,1,10.74,88.26Z"></path>
      <path class="cls-7" d="M14.65,86.45a.51.51,0,0,0,.51.09c.26-.14.32-.37.26-.43s-.08-.06-.11-.09-.19.16-.2.16Z"></path>
      <path class="cls-8" d="M14.45,86.15s.15.35.29.33l.3,0,0-.07s-.18-.22-.23-.23l-.2,0Z"></path>
      <path class="cls-9" d="M14.45,86.1s0,.12.08.13h.19l.22-.24s.07,0-.06,0-.14,0-.25,0A.35.35,0,0,0,14.45,86.1Z"></path>
      <path class="cls-10" d="M14.72,86.24a1.64,1.64,0,0,0,.13-.19c.05-.09.06-.11.14-.09s.29,0,.35.09.07.06,0,.16a.42.42,0,0,1-.23.2.21.21,0,0,1-.26,0A.59.59,0,0,1,14.72,86.24Z"></path>
      <path class="cls-7" d="M19.3,88.41a2,2,0,0,0,1.94-.58c.65-.89.49-1.81.16-2a4.76,4.76,0,0,0-.55-.08c-.37,0-.38.87-.39.89S19.3,88.41,19.3,88.41Z"></path>
      <path class="cls-8" d="M18.09,87.72s1.13,1,1.58.64,1-.61,1-.61l0-.3a4,4,0,0,0-1.21-.37c-.22.08-.61.24-.71.26S18.09,87.72,18.09,87.72Z"></path>
      <path class="cls-9" d="M18,87.55c0,.12.16.44.5.32a6,6,0,0,0,.65-.3s.3-1,.38-1.23.17-.24-.32-.06-.56.07-.89.39A1.34,1.34,0,0,0,18,87.55Z"></path>
      <path class="cls-10" d="M19.17,87.57a5.7,5.7,0,0,0,.14-.88c0-.39,0-.49.34-.55s1-.44,1.37-.32.33.1.34.54a1.62,1.62,0,0,1-.44,1.1.91.91,0,0,1-.94.44A2.37,2.37,0,0,1,19.17,87.57Z"></path>
      <path class="cls-7" d="M13.32,87.66a1.33,1.33,0,0,0,1.36,0c.58-.46.64-1.08.45-1.23a1.88,1.88,0,0,0-.34-.15c-.23-.1-.4.49-.41.5Z"></path>
      <path class="cls-8" d="M12.67,87s.55.82.9.7a6.28,6.28,0,0,1,.74-.22l0-.2s-.56-.46-.72-.45-.43,0-.5,0A2.77,2.77,0,0,0,12.67,87Z"></path>
      <path class="cls-9" d="M12.65,86.88c0,.08,0,.31.27.29a4.14,4.14,0,0,0,.47-.07s.38-.62.46-.73.16-.12-.19-.09-.37-.06-.64.09A.9.9,0,0,0,12.65,86.88Z"></path>
      <path class="cls-10" d="M13.39,87.1a5.53,5.53,0,0,0,.25-.54c.08-.25.09-.32.31-.3s.75-.1,1,0,.19.12.12.41a1,1,0,0,1-.49.63.58.58,0,0,1-.68.11A1.51,1.51,0,0,1,13.39,87.1Z"></path>
      <path class="cls-11" d="M16.27,93.14v8.54s4.5-3.31,6.32-3.48,5.39,6.83,6.71,7l1.75-18.33Z"></path>
      <path class="cls-12" d="M1.19,96.54l1,8.63,14.09,6.63V101.68S8.49,98.37,7.66,97.2,1.19,96.54,1.19,96.54Z"></path>
      <path class="cls-13" d="M0,86.35,1.19,96.54s1.52.12,3.15.17c2.05.05,4,1.38,5.53,2.93,1.8,1.8,6.4,2,6.4,2V93.14Z"></path>
      <path class="cls-14" d="M10.84,102.76a.54.54,0,0,0,0-.25h0s-.1-.28-.35-.29-.41.14-.39.22,0,.08,0,.12h0c0,.07.17.13.21.18l0,0,0,0c.1.07.09.09.19.12a.32.32,0,0,0,.21-.06s0,0,0,0h0A.06.06,0,0,0,10.84,102.76Z"></path>
      <path class="cls-14" d="M4.69,101.59a1.34,1.34,0,0,0-.42.23h0a.86.86,0,0,0-.26.83c.17.45.54.61.66.53a1.52,1.52,0,0,0,.17-.18v0a4,4,0,0,0,.16-.49.23.23,0,0,0,0-.09.58.58,0,0,1,0-.1c0-.22.11-.21.07-.41a.55.55,0,0,0-.23-.32l-.08,0h0A.17.17,0,0,0,4.69,101.59Z"></path>
      <path class="cls-14" d="M14.63,107.33a3.13,3.13,0,0,0-.54-1.08h0a2.15,2.15,0,0,0-2.07-.73c-1.14.37-1.58,1.28-1.38,1.6a3.45,3.45,0,0,0,.43.43s0,0,0,0a10,10,0,0,0,1.23.46.61.61,0,0,0,.22.07l.23.07c.55.16.54.3,1,.23a1.46,1.46,0,0,0,.84-.57,1.49,1.49,0,0,0,0-.19h0v0A.38.38,0,0,0,14.63,107.33Z"></path>
      <path class="cls-14" d="M7.26,103.58a2.56,2.56,0,0,0-.52.76h0A1.68,1.68,0,0,0,7,106c.67.63,1.45.59,1.59.33a3.25,3.25,0,0,0,.13-.45s0,0,0,0a8.5,8.5,0,0,0-.15-1,.37.37,0,0,0,0-.17l0-.19c-.1-.42,0-.46-.23-.77a1.13,1.13,0,0,0-.69-.35l-.14,0h0A.26.26,0,0,0,7.26,103.58Z"></path>
      <path class="cls-15" d="M16.27,101.68s3.17-4.48,6.82-4.59,7.24-2.76,7.24-2.76l-1,10.87-13,6.6Z"></path>
      <path class="cls-14" d="M20.92,103.39a3,3,0,0,0-1.13.37h0a2.13,2.13,0,0,0-1,1.93c.2,1.17,1,1.73,1.38,1.58a4.23,4.23,0,0,0,.48-.36s0,0,0,0a10.24,10.24,0,0,0,.62-1.15.46.46,0,0,0,.1-.2l.11-.22c.23-.52.36-.49.36-1a1.39,1.39,0,0,0-.43-.9l-.19-.07h0A.33.33,0,0,0,20.92,103.39Z"></path>
      <path class="cls-14" d="M26.91,103a.91.91,0,0,0-.36-.09h0a.65.65,0,0,0-.57.33c-.14.34,0,.61.1.63a1.28,1.28,0,0,0,.18,0,0,0,0,0,0,0,0c.12,0,.26-.16.35-.19l.06,0,.06,0c.14-.1.17-.07.25-.19a.48.48,0,0,0,0-.31l0,0h0A.09.09,0,0,0,26.91,103Z"></path>
      <path class="cls-14" d="M25.82,99.9a2.2,2.2,0,0,0-.8-.47h0a1.66,1.66,0,0,0-1.65.4c-.58.72-.48,1.49-.22,1.62a3.12,3.12,0,0,0,.46.09h0a9.86,9.86,0,0,0,1-.22.58.58,0,0,0,.17,0l.18,0c.42-.13.47,0,.76-.29a1.13,1.13,0,0,0,.31-.72l-.06-.14h0A.3.3,0,0,0,25.82,99.9Z"></path>
    </g>
  </g>
</svg>
