<?xml version="1.0" encoding="UTF-8"?>
<svg xmlns="http://www.w3.org/2000/svg" viewBox="0 0 108.76 110.39">
  <defs>
    <style>.cls-1{isolation:isolate;}.cls-2,.cls-3,.cls-4{fill:#82b7d9;}.cls-2,.cls-4,.cls-7{mix-blend-mode:multiply;}.cls-4,.cls-6,.cls-7{opacity:0.4;}.cls-5,.cls-6,.cls-7{fill:#8dc7ed;}.cls-8{fill:#a96f30;}.cls-9{fill:#5e3e1a;}.cls-10{fill:#809870;}.cls-11{fill:#668050;}.cls-12{fill:#f1f3f5;mix-blend-mode:soft-light;}</style>
  </defs>
  <g class="cls-1">
    <g id="Слой_2" data-name="Слой 2">
      <g id="Слой_1-2" data-name="Слой 1">
        <polygon class="cls-2" points="56.86 40.13 108.53 18.22 102.41 82.27 57.52 110.39 56.86 40.13"></polygon>
        <polygon class="cls-3" points="1.87 28.84 56.27 50.51 57.52 110.39 7.61 82.16 1.87 28.84"></polygon>
        <polygon class="cls-4" points="1.87 28.84 6.83 73.09 56.72 50.66 56.8 11.44 1.87 28.84"></polygon>
        <polygon class="cls-5" points="6.83 73.09 56.72 50.66 103.33 70.8 56.93 99.66 6.83 73.09"></polygon>
        <polygon class="cls-5" points="56.8 11.44 1.87 28.84 56.27 50.51 107.16 28.84 56.8 11.44"></polygon>
        <polygon class="cls-6" points="56.86 0 56.8 11.44 94.11 24.26 108.53 18.22 56.86 0"></polygon>
        <polygon class="cls-7" points="108.76 17.99 57.09 39.91 56.84 50.95 107.38 28.61 108.76 17.99"></polygon>
        <polygon class="cls-6" points="0 16.38 56.86 0 56.8 11.44 1.87 28.84 0 16.38"></polygon>
        <polygon class="cls-7" points="0 16.38 1.87 28.84 56.84 50.95 57.09 39.91 0 16.38"></polygon>
        <path class="cls-8" d="M41.49,53.44a7.77,7.77,0,0,0-.89,2.18c-.16.59.34.54,0,1s-1.58.29-1.51-.51c0-.25.36-.23.52-.43a2.54,2.54,0,0,0,.33-.93c0-.46.19-1.48.18-1.15"></path>
        <path class="cls-9" d="M41.49,53.44a8,8,0,0,0-.78,2,1.33,1.33,0,0,0-.09.5.63.63,0,0,0,.08.23.42.42,0,0,1,.06.29.69.69,0,0,1-.33.45,1,1,0,0,1-.55.11,1.14,1.14,0,0,1-.53-.17.71.71,0,0,1-.31-.46.59.59,0,0,1,0-.14.27.27,0,0,1,0-.15.37.37,0,0,1,.22-.19.66.66,0,0,0,.38-.31,3.1,3.1,0,0,0,.28-1L40,54l.05-.26,0-.13s0,0,0-.06a.13.13,0,0,1,0,.06v-.06l0,.06,0,.13L40,54l0,.52a3.12,3.12,0,0,1-.26,1,.63.63,0,0,1-.17.23,1.93,1.93,0,0,1-.24.13.38.38,0,0,0-.18.14.59.59,0,0,0,0,.23.75.75,0,0,0,.75.53.88.88,0,0,0,.48-.09.6.6,0,0,0,.29-.37c0-.14-.13-.28-.14-.49a1.35,1.35,0,0,1,.1-.53A7,7,0,0,1,41.49,53.44Z"></path>
        <path class="cls-10" d="M40.57,56.41a35,35,0,0,1-3,17,37.36,37.36,0,0,0,2.23-16.22C40,56.85,40.09,56.36,40.57,56.41Z"></path>
        <path class="cls-11" d="M40.58,56.41a31.92,31.92,0,0,1,.15,4.37,30.15,30.15,0,0,1-.48,4.35,36.15,36.15,0,0,1-1.1,4.24c-.45,1.39-.93,2.76-1.49,4.11l-.12,0c.44-1.3.82-2.62,1.15-4a39.52,39.52,0,0,0,.8-4,39.84,39.84,0,0,0,.38-4.09,40.46,40.46,0,0,0-.08-4.12h0a2,2,0,0,1,.24-.56A.51.51,0,0,1,40.58,56.41Zm0,0a.55.55,0,0,0-.28.06.67.67,0,0,0-.21.2,2.69,2.69,0,0,0-.21.56h0a33.42,33.42,0,0,1,.19,4.12,31.77,31.77,0,0,1-.32,4.13,40,40,0,0,1-2.08,8l-.12,0a37.23,37.23,0,0,0,1.53-4.09,32.55,32.55,0,0,0,1-4.24,37,37,0,0,0,.5-4.33C40.63,59.33,40.62,57.86,40.57,56.42Z"></path>
        <path class="cls-10" d="M39.07,56.34c-2.16,6.26-4.54,12-8.69,17.23,5.06-4.18,6.9-10.27,9.33-16.16C39.84,56.77,39.91,56.16,39.07,56.34Z"></path>
        <path class="cls-11" d="M39.08,56.35c-.49,1.53-1,3.06-1.61,4.57s-1.2,3-1.89,4.47a42.18,42.18,0,0,1-5.12,8.24l-.14-.13a19.26,19.26,0,0,0,3.22-3.41,26.87,26.87,0,0,0,2.45-4c1.42-2.81,2.49-5.77,3.71-8.68h0a2,2,0,0,0,.06-.81.36.36,0,0,0-.27-.26A1.08,1.08,0,0,0,39.08,56.35Zm0,0a1,1,0,0,1,.42,0,.38.38,0,0,1,.29.28,1.88,1.88,0,0,1-.05.82h0c-1.19,2.91-2.23,5.89-3.63,8.71a26.43,26.43,0,0,1-2.43,4.06,19.91,19.91,0,0,1-3.22,3.46l-.72.6.58-.74a44.73,44.73,0,0,0,5.06-8.22c.71-1.45,1.36-2.93,2-4.42S38.5,57.86,39.07,56.33Z"></path>
        <path class="cls-8" d="M38.4,54.19a8.19,8.19,0,0,0-2,1.28c-.47.39,0,.64-.6.83s-1.46-.66-.94-1.28c.16-.19.42,0,.67-.05a2.4,2.4,0,0,0,.81-.58c.3-.34,1-1.1.8-.84"></path>
        <path class="cls-9" d="M38.4,54.19a8.27,8.27,0,0,0-1.77,1.15,1.75,1.75,0,0,0-.36.36.61.61,0,0,0-.06.24.44.44,0,0,1-.12.27.7.7,0,0,1-.53.17,1,1,0,0,1-.51-.22,1.12,1.12,0,0,1-.34-.44.68.68,0,0,1,0-.56.29.29,0,0,1,.07-.12.26.26,0,0,1,.1-.11.45.45,0,0,1,.3,0,.61.61,0,0,0,.48,0,2.7,2.7,0,0,0,.81-.66l.37-.38.19-.19.09-.09s0,0,.06,0l0,.06,0-.06,0,0-.09.09-.18.2-.35.4a2.73,2.73,0,0,1-.81.7.54.54,0,0,1-.26.09,1.27,1.27,0,0,1-.28,0A.32.32,0,0,0,35,55a.49.49,0,0,0-.13.18.76.76,0,0,0,.3.87,1,1,0,0,0,.45.2.61.61,0,0,0,.45-.14c.11-.09,0-.31.16-.48a1.56,1.56,0,0,1,.39-.38A7.35,7.35,0,0,1,38.4,54.19Z"></path>
        <path class="cls-10" d="M35.94,56.1A35.1,35.1,0,0,1,23.72,68.34a37.38,37.38,0,0,0,11.14-12C35.18,56.1,35.57,55.78,35.94,56.1Z"></path>
        <path class="cls-11" d="M36,56.1a33.06,33.06,0,0,1-2.4,3.67,29,29,0,0,1-2.89,3.28,37.53,37.53,0,0,1-3.33,2.84c-1.16.88-2.35,1.73-3.58,2.51l-.07-.11c1.11-.81,2.18-1.67,3.21-2.57s2-1.85,3-2.85a37.76,37.76,0,0,0,2.65-3.13,37.92,37.92,0,0,0,2.31-3.42h0a2.68,2.68,0,0,1,.52-.32A.54.54,0,0,1,36,56.1Zm0,0a.5.5,0,0,0-.54-.06,2.33,2.33,0,0,0-.5.34v0a34.21,34.21,0,0,1-2.21,3.49A29.91,29.91,0,0,1,30.05,63a39.2,39.2,0,0,1-6.3,5.35l-.07-.1a36.87,36.87,0,0,0,3.6-2.46,33.23,33.23,0,0,0,3.24-2.92,38.77,38.77,0,0,0,2.89-3.25C34.31,58.52,35.14,57.32,35.92,56.1Z"></path>
        <path class="cls-10" d="M34.75,55.18c-5.37,3.88-10.62,7.23-17,9.12,6.54-.52,11.55-4.45,16.92-7.88C35.13,56,35.53,55.51,34.75,55.18Z"></path>
        <path class="cls-11" d="M34.75,55.2c-1.28,1-2.6,1.91-3.94,2.81s-2.71,1.77-4.12,2.57a41.53,41.53,0,0,1-8.92,3.81l0-.19a19.39,19.39,0,0,0,4.59-.93,27.08,27.08,0,0,0,4.31-1.89c2.77-1.48,5.36-3.29,8-5h0a1.92,1.92,0,0,0,.51-.63.36.36,0,0,0-.07-.37A1,1,0,0,0,34.75,55.2Zm0,0a1,1,0,0,1,.35.22.37.37,0,0,1,.08.4,1.92,1.92,0,0,1-.51.65h0c-2.65,1.7-5.21,3.54-8,5.05a27.27,27.27,0,0,1-4.31,1.93,20.43,20.43,0,0,1-4.63,1l-.93.08.89-.27a44.93,44.93,0,0,0,8.87-3.83q2.12-1.17,4.14-2.49C32.08,57,33.41,56.1,34.75,55.17Z"></path>
        <path class="cls-8" d="M38.39,52.72a8.9,8.9,0,0,0-1.81,2.1c-.39.59.18.72-.4,1.13s-1.85-.29-1.47-1.14c.12-.27.49-.11.74-.27a2.92,2.92,0,0,0,.72-.9,9.79,9.79,0,0,1,.62-1.23"></path>
        <path class="cls-9" d="M38.39,52.72a5.12,5.12,0,0,0-.86.88c-.26.32-.51.66-.74,1a1.76,1.76,0,0,0-.28.52.57.57,0,0,0,0,.29.46.46,0,0,1,0,.34.76.76,0,0,1-.23.24.71.71,0,0,1-.31.13,1.12,1.12,0,0,1-.65-.09,1.15,1.15,0,0,1-.51-.39.83.83,0,0,1-.18-.63.75.75,0,0,1,0-.16.3.3,0,0,1,.08-.16.53.53,0,0,1,.32-.12,1.36,1.36,0,0,0,.3,0,.69.69,0,0,0,.23-.16,3.36,3.36,0,0,0,.69-1l.29-.55.15-.27.07-.14s0,0,0-.06l0,.07,0-.07,0,.07-.07.13-.13.29-.26.56a3.28,3.28,0,0,1-.67,1.06.88.88,0,0,1-.27.19,1.25,1.25,0,0,1-.32,0,.38.38,0,0,0-.25.09.47.47,0,0,0-.09.25.89.89,0,0,0,.62.88,1,1,0,0,0,.57.08.7.7,0,0,0,.45-.3c.1-.14,0-.37,0-.6a1.77,1.77,0,0,1,.32-.55A7.47,7.47,0,0,1,38.39,52.72Z"></path>
        <path class="cls-10" d="M36.22,55.71c-2.06,7.08-6.1,11.94-11.14,17.17,4.66-5.09,8.17-10,10.12-16.71C35.49,55.81,35.74,55.55,36.22,55.71Z"></path>
        <path class="cls-11" d="M36.24,55.7a27.88,27.88,0,0,1-1.77,4.88,31.33,31.33,0,0,1-2.61,4.48,50.69,50.69,0,0,1-3.24,4q-1.71,2-3.49,3.83l-.11-.1a59.34,59.34,0,0,0,6-7.78,40.72,40.72,0,0,0,2.36-4.3,38.52,38.52,0,0,0,1.77-4.59h0a1.67,1.67,0,0,1,.46-.42.55.55,0,0,1,.3-.09A.73.73,0,0,1,36.24,55.7Zm0,0a1.29,1.29,0,0,0-.29,0,.66.66,0,0,0-.27.09,1.72,1.72,0,0,0-.42.43h0a33.37,33.37,0,0,1-1.65,4.65,33.23,33.23,0,0,1-2.32,4.37,51.27,51.27,0,0,1-6.14,7.72l-.11-.1c1.2-1.24,2.41-2.47,3.52-3.79a44.1,44.1,0,0,0,3.13-4.11,38,38,0,0,0,2.61-4.44A35.91,35.91,0,0,0,36.21,55.71Z"></path>
        <path class="cls-10" d="M34.73,55.27A55.14,55.14,0,0,1,22.79,70.59c5.55-3.66,8.87-8.63,12.43-14.13C35.44,55.83,35.53,55.33,34.73,55.27Z"></path>
        <path class="cls-11" d="M34.73,55.28c-.75,1.43-1.56,2.85-2.43,4.23s-1.79,2.72-2.77,4a47.89,47.89,0,0,1-6.67,7.13l-.12-.16a31.36,31.36,0,0,0,7-6.34,84.17,84.17,0,0,0,5.49-7.72h0a1.81,1.81,0,0,0,.14-.79.36.36,0,0,0-.23-.29A1.18,1.18,0,0,0,34.73,55.28Zm0,0a1.12,1.12,0,0,1,.41.09.45.45,0,0,1,.25.32,1.83,1.83,0,0,1-.14.8h0a83.73,83.73,0,0,1-5.43,7.77,32,32,0,0,1-7,6.43l-.13-.16a52,52,0,0,0,6.62-7.13c1-1.28,1.94-2.61,2.83-4S33.9,56.68,34.72,55.26Z"></path>
        <path class="cls-8" d="M37.75,51.8a8.48,8.48,0,0,1-2.21-.86c-.53-.29-.14-.62-.74-.7s-1.31.94-.68,1.44c.2.16.42-.1.67-.08a2.52,2.52,0,0,1,.91.41c.36.27,1.2.88.95.66"></path>
        <path class="cls-9" d="M37.75,51.8a7,7,0,0,1-2-.7,1.35,1.35,0,0,1-.46-.3c-.14-.14-.13-.37-.26-.43a.64.64,0,0,0-.47,0,.85.85,0,0,0-.39.29.74.74,0,0,0-.13.9.41.41,0,0,0,.16.16.29.29,0,0,0,.22,0,1.2,1.2,0,0,1,.27-.08.65.65,0,0,1,.28,0,3,3,0,0,1,.93.53l.42.32.21.16.11.08,0,0,0,0,.05,0-.06,0-.12-.08-.22-.14-.44-.3a2.73,2.73,0,0,0-.92-.49.59.59,0,0,0-.48.06.4.4,0,0,1-.29,0,.63.63,0,0,1-.22-.19.72.72,0,0,1-.12-.55,1.24,1.24,0,0,1,.25-.5,1,1,0,0,1,.45-.32.69.69,0,0,1,.56.07.38.38,0,0,1,.16.24.76.76,0,0,0,.11.22,1.68,1.68,0,0,0,.43.28A7.94,7.94,0,0,0,37.75,51.8Z"></path>
        <path class="cls-10" d="M35,50.41a35.11,35.11,0,0,0-14.4-9.58,37.16,37.16,0,0,1,13.29,9.56C34.22,50.56,34.66,50.8,35,50.41Z"></path>
        <path class="cls-11" d="M34.94,50.41c-1-1-2.06-2-3.16-3A36.91,36.91,0,0,0,28.3,44.8a33.52,33.52,0,0,0-3.75-2.21,36.24,36.24,0,0,0-4-1.7l.05-.12a40.07,40.07,0,0,1,7.22,4A30,30,0,0,1,31,47.38a33.49,33.49,0,0,1,2.86,3h0a2.38,2.38,0,0,0,.55.23.48.48,0,0,0,.29,0A.46.46,0,0,0,34.94,50.41Zm0,0a.52.52,0,0,1-.56.22,2.3,2.3,0,0,1-.57-.21h0a40,40,0,0,0-2.93-2.89A39.6,39.6,0,0,0,27.67,45c-1.12-.78-2.28-1.53-3.48-2.2s-2.41-1.31-3.66-1.88l0-.12c1.37.51,2.7,1.11,4,1.75a36.42,36.42,0,0,1,3.82,2.12,30,30,0,0,1,3.49,2.65A32.31,32.31,0,0,1,35,50.41Z"></path>
        <path class="cls-10" d="M34,51.55c-6-2.74-11.83-5-18.47-5.58,6.52-.78,12.2,2.08,18.14,4.38C34.19,50.7,34.68,51.07,34,51.55Z"></path>
        <path class="cls-11" d="M34,51.56c-1.49-.64-3-1.27-4.47-1.87s-3-1.14-4.56-1.62a44.31,44.31,0,0,0-9.45-2L14.56,46l.93-.11a19.7,19.7,0,0,1,4.73.05,27.7,27.7,0,0,1,4.61,1c3,.94,5.89,2.23,8.82,3.38h0a2,2,0,0,1,.63.54.36.36,0,0,1,0,.4A1.07,1.07,0,0,1,34,51.56Zm0,0a1.07,1.07,0,0,0,.28-.28.33.33,0,0,0,0-.38,1.93,1.93,0,0,0-.62-.51h0c-2.94-1.12-5.83-2.39-8.84-3.3a26.62,26.62,0,0,0-4.59-1,18.87,18.87,0,0,0-4.69,0v-.2a42.24,42.24,0,0,1,9.5,2c1.53.52,3,1.09,4.54,1.71S32.53,50.84,34,51.54Z"></path>
        <path class="cls-8" d="M46.21,51.13a8.27,8.27,0,0,1-2.2-.86c-.54-.3-.15-.63-.75-.7S42,50.51,42.58,51c.2.16.42-.1.67-.08a2.5,2.5,0,0,1,.91.4c.37.28,1.2.88,1,.66"></path>
        <path class="cls-9" d="M46.21,51.13a7.13,7.13,0,0,1-2-.71,1.32,1.32,0,0,1-.46-.29c-.14-.15-.13-.37-.26-.44a.57.57,0,0,0-.46,0,.88.88,0,0,0-.4.28.75.75,0,0,0-.13.91.52.52,0,0,0,.17.16.36.36,0,0,0,.22,0,1.58,1.58,0,0,1,.26-.09.64.64,0,0,1,.28,0,3,3,0,0,1,.93.53l.42.32.21.16.11.07.06,0,0,0,0,0-.06,0L45,51.94l-.23-.15-.43-.3A2.75,2.75,0,0,0,43.4,51a.63.63,0,0,0-.48.05.4.4,0,0,1-.29,0A.35.35,0,0,1,42.5,51a.87.87,0,0,1-.09-.11.65.65,0,0,1-.11-.54,1,1,0,0,1,.24-.5,1,1,0,0,1,.45-.32.73.73,0,0,1,.56.06.41.41,0,0,1,.16.24.52.52,0,0,0,.12.22,1.29,1.29,0,0,0,.42.28A8.13,8.13,0,0,0,46.21,51.13Z"></path>
        <path class="cls-10" d="M43.42,49.74A35.16,35.16,0,0,0,29,40.15a37.53,37.53,0,0,1,13.3,9.56C42.68,49.89,43.12,50.12,43.42,49.74Z"></path>
        <path class="cls-11" d="M43.41,49.74c-1-1-2.07-2.05-3.17-3a39.92,39.92,0,0,0-3.47-2.62A33.73,33.73,0,0,0,33,41.91a36.24,36.24,0,0,0-4-1.7l.05-.12a39.52,39.52,0,0,1,7.22,4,29.76,29.76,0,0,1,3.22,2.6,33.67,33.67,0,0,1,2.86,3h0a2.91,2.91,0,0,0,.55.23.57.57,0,0,0,.29,0A.6.6,0,0,0,43.41,49.74Zm0,0a.53.53,0,0,1-.56.22,2.78,2.78,0,0,1-.57-.21h0a36.45,36.45,0,0,0-2.94-2.89,37.53,37.53,0,0,0-3.22-2.55,40.56,40.56,0,0,0-3.47-2.2q-1.8-1-3.66-1.89l0-.12c1.37.52,2.7,1.12,4,1.75A37.61,37.61,0,0,1,36.88,44a30.8,30.8,0,0,1,3.48,2.66A31.21,31.21,0,0,1,43.43,49.74Z"></path>
        <path class="cls-10" d="M42.44,50.87c-6-2.74-11.84-5-18.48-5.58,6.52-.77,12.2,2.09,18.14,4.38C42.66,50,43.14,50.4,42.44,50.87Z"></path>
        <path class="cls-11" d="M42.44,50.88c-1.5-.64-3-1.26-4.48-1.86s-3-1.15-4.56-1.63a44.79,44.79,0,0,0-9.45-2L23,45.3l.93-.1a19.7,19.7,0,0,1,4.73,0,26.76,26.76,0,0,1,4.61,1c3,.93,5.89,2.23,8.82,3.38h0a1.9,1.9,0,0,1,.63.53.38.38,0,0,1,0,.41A.9.9,0,0,1,42.44,50.88Zm0,0a1,1,0,0,0,.29-.28.33.33,0,0,0,0-.37,1.85,1.85,0,0,0-.62-.52h0c-2.94-1.12-5.83-2.38-8.84-3.29a28,28,0,0,0-4.6-1,19.37,19.37,0,0,0-4.69,0V45.2a41.7,41.7,0,0,1,9.5,2c1.54.51,3.05,1.09,4.54,1.71S41,50.17,42.43,50.86Z"></path>
        <path class="cls-8" d="M39,52.67A8.58,8.58,0,0,1,36.83,51c-.51-.5,0-.74-.62-1s-1.75.65-1.21,1.41c.17.24.5,0,.78.12a2.85,2.85,0,0,1,.87.74,9.49,9.49,0,0,0,.86,1.08"></path>
        <path class="cls-9" d="M39,52.67a7.45,7.45,0,0,1-2-1.46,1.63,1.63,0,0,1-.42-.48c-.12-.21,0-.46-.15-.58a.69.69,0,0,0-.51-.2,1,1,0,0,0-.54.19.88.88,0,0,0-.43,1,.48.48,0,0,0,.14.23.36.36,0,0,0,.26,0,1.13,1.13,0,0,1,.32,0,.79.79,0,0,1,.31.13,3.34,3.34,0,0,1,.86.9l.37.51.18.25.1.12,0,.06,0-.07s0,0,0,.07,0,0-.06-.05l-.1-.12-.2-.24-.39-.49a3.35,3.35,0,0,0-.87-.85.81.81,0,0,0-.26-.11,1.51,1.51,0,0,0-.3,0,.47.47,0,0,1-.34-.06.37.37,0,0,1-.12-.13,1,1,0,0,1-.07-.15.81.81,0,0,1,0-.65,1.2,1.2,0,0,1,.43-.49,1.22,1.22,0,0,1,.61-.22.75.75,0,0,1,.33.07.87.87,0,0,1,.28.19.53.53,0,0,1,.1.33.66.66,0,0,0,0,.28,2.07,2.07,0,0,0,.39.46c.29.29.6.57.91.83A5.19,5.19,0,0,0,39,52.67Z"></path>
        <path class="cls-10" d="M36.3,50.16C32.88,43.63,28,39.66,22,35.53c5.58,4.07,10,8.21,13.22,14.38C35.56,50.2,35.86,50.42,36.3,50.16Z"></path>
        <path class="cls-11" d="M36.29,50.16a35.9,35.9,0,0,0-2.84-4.3A39,39,0,0,0,30,42a44.85,44.85,0,0,0-3.88-3.41c-1.35-1.07-2.78-2-4.2-3l.09-.12a51.4,51.4,0,0,1,7.54,6.36,33.7,33.7,0,0,1,5.67,8.06h0a1.76,1.76,0,0,0,.49.33.57.57,0,0,0,.29,0A1.15,1.15,0,0,0,36.29,50.16Zm0,0a.94.94,0,0,1-.3.12.59.59,0,0,1-.32,0,1.92,1.92,0,0,1-.53-.32h0a35.93,35.93,0,0,0-2.64-4.15A38.93,38.93,0,0,0,29.36,42a59.18,59.18,0,0,0-7.42-6.44l.08-.12c1.42,1,2.8,2,4.18,3.06a50.68,50.68,0,0,1,4,3.33,30.28,30.28,0,0,1,3.45,3.88A28.48,28.48,0,0,1,36.32,50.17Z"></path>
        <path class="cls-10" d="M34.92,50.89A55.18,55.18,0,0,0,20.19,38.22c6.16,2.5,10.4,6.71,15,11.4C35.51,50.2,35.7,50.67,34.92,50.89Z"></path>
        <path class="cls-11" d="M34.92,50.9c-1.09-1.23-2.19-2.42-3.33-3.58S29.27,45.05,28,44a52,52,0,0,0-7.9-5.68l.09-.18a31.57,31.57,0,0,1,8.09,4.92,83.21,83.21,0,0,1,6.86,6.55h0a1.74,1.74,0,0,1,.3.76.43.43,0,0,1-.18.36A1.3,1.3,0,0,1,34.92,50.9Zm0,0a1.69,1.69,0,0,0,.36-.17.45.45,0,0,0,.17-.34,1.84,1.84,0,0,0-.3-.74h0a84.61,84.61,0,0,0-6.91-6.48,31.75,31.75,0,0,0-8.08-4.84l.08-.18a48.57,48.57,0,0,1,8,5.68c1.21,1.08,2.38,2.22,3.5,3.4S33.91,49.62,34.92,50.88Z"></path>
        <path class="cls-8" d="M36.17,53.64l34.6-5.51"></path>
        <path class="cls-8" d="M36,52.57a30.19,30.19,0,0,0,4.35-.51l4.33-.68c2.88-.45,5.77-.89,8.65-1.37L62,48.58c2.88-.48,5.75-1,8.6-1.69h0a1.26,1.26,0,0,1,.6,2.44l-.2,0c-2.92.23-5.82.63-8.7,1.07l-8.66,1.32c-2.89.44-5.77.92-8.65,1.39l-4.32.7a31.47,31.47,0,0,0-4.3.86,1.09,1.09,0,1,1-.69-2.07A1,1,0,0,1,36,52.57Z"></path>
        <path class="cls-8" d="M39.66,43.73a8.11,8.11,0,0,0-1.95,1.34c-.45.41,0,.64-.56.86s-1.49-.62-1-1.25c.15-.2.43,0,.67-.08a2.51,2.51,0,0,0,.79-.6c.29-.35,1-1.13.78-.86"></path>
        <path class="cls-9" d="M39.66,43.73a8.67,8.67,0,0,0-1.73,1.21,1.47,1.47,0,0,0-.34.37.61.61,0,0,0-.06.24.43.43,0,0,1-.11.27.68.68,0,0,1-.53.19,1,1,0,0,1-.51-.2,1.21,1.21,0,0,1-.35-.43.68.68,0,0,1,0-.56.52.52,0,0,1,.06-.13.57.57,0,0,1,.11-.11.42.42,0,0,1,.29,0,.57.57,0,0,0,.48,0,3,3,0,0,0,.79-.69l.35-.39.18-.19.1-.1,0,0s0,0,0,.06l0-.06,0,.05-.08.1-.18.2-.33.41a2.85,2.85,0,0,1-.78.73.79.79,0,0,1-.27.1l-.28,0a.28.28,0,0,0-.22,0,.41.41,0,0,0-.12.19.74.74,0,0,0,.33.85,1,1,0,0,0,.45.19.62.62,0,0,0,.45-.15c.11-.09,0-.31.14-.49a1.76,1.76,0,0,1,.38-.39A7.45,7.45,0,0,1,39.66,43.73Z"></path>
        <path class="cls-10" d="M37.26,45.72A35,35,0,0,1,25.44,58.35,37.33,37.33,0,0,0,36.2,46C36.51,45.75,36.89,45.41,37.26,45.72Z"></path>
        <path class="cls-11" d="M37.28,45.72A32.16,32.16,0,0,1,35,49.46a30.08,30.08,0,0,1-2.78,3.38A37.52,37.52,0,0,1,29,55.78c-1.13.92-2.29,1.81-3.5,2.62l-.07-.1c1.08-.85,2.12-1.74,3.13-2.68a39.68,39.68,0,0,0,2.87-2.93c.91-1,1.76-2.11,2.56-3.22A37.1,37.1,0,0,0,36.16,46h0a2.52,2.52,0,0,1,.51-.34A.53.53,0,0,1,37.28,45.72Zm0,0a.74.74,0,0,0-.26-.1.52.52,0,0,0-.28.06,2.32,2.32,0,0,0-.49.35h0a33.56,33.56,0,0,1-2.1,3.56,33.17,33.17,0,0,1-2.53,3.27,39.81,39.81,0,0,1-6.12,5.55l-.07-.1a38.75,38.75,0,0,0,3.52-2.58,33.1,33.1,0,0,0,3.14-3,37.26,37.26,0,0,0,2.78-3.36C35.71,48.19,36.51,47,37.25,45.72Z"></path>
        <path class="cls-10" d="M36.05,44.84c-5.24,4-10.38,7.56-16.71,9.66,6.52-.73,11.4-4.82,16.66-8.42C36.46,45.62,36.84,45.14,36.05,44.84Z"></path>
        <path class="cls-11" d="M36.05,44.85c-1.25,1-2.54,2-3.85,2.95s-2.65,1.85-4,2.7a42.45,42.45,0,0,1-8.8,4.1l0-.19a19.31,19.31,0,0,0,4.56-1.09,28,28,0,0,0,4.25-2c2.72-1.57,5.24-3.47,7.85-5.23h0a1.83,1.83,0,0,0,.49-.65.34.34,0,0,0-.08-.36A1.2,1.2,0,0,0,36.05,44.85Zm0,0a1,1,0,0,1,.36.21.38.38,0,0,1,.09.39,2,2,0,0,1-.49.67h0c-2.59,1.79-5.09,3.71-7.81,5.31A26.86,26.86,0,0,1,24,53.47a19.71,19.71,0,0,1-4.6,1.13l-.92.11.88-.3a45,45,0,0,0,8.74-4.11q2.09-1.23,4.06-2.63C33.44,46.75,34.74,45.8,36.05,44.83Z"></path>
        <path class="cls-8" d="M36.66,42.67a8.2,8.2,0,0,0-2.37,0c-.6.07-.36.52-.95.37s-.86-1.36-.09-1.59c.24-.07.35.25.59.32a2.52,2.52,0,0,0,1,0A8.92,8.92,0,0,1,36,41.45"></path>
        <path class="cls-9" d="M36.66,42.67a7.85,7.85,0,0,0-2.11,0,1.53,1.53,0,0,0-.5.1.55.55,0,0,0-.18.16.45.45,0,0,1-.25.17.75.75,0,0,1-.54-.15,1.06,1.06,0,0,1-.3-.47,1,1,0,0,1,0-.55.7.7,0,0,1,.31-.46l.13-.07a.32.32,0,0,1,.14,0,.42.42,0,0,1,.27.14.6.6,0,0,0,.42.23,2.82,2.82,0,0,0,1-.11l.51-.12.26,0,.14,0H36s0,0-.06,0l.06,0H36l-.13,0-.26.07-.51.15a2.89,2.89,0,0,1-1.06.14.64.64,0,0,1-.27-.07.94.94,0,0,1-.21-.18.34.34,0,0,0-.2-.11.48.48,0,0,0-.21.09.75.75,0,0,0-.22.89.93.93,0,0,0,.26.41.57.57,0,0,0,.45.13c.15,0,.22-.23.4-.31a1.32,1.32,0,0,1,.54-.1A7.16,7.16,0,0,1,36.66,42.67Z"></path>
        <path class="cls-10" d="M33.55,42.92a35,35,0,0,1-16.92,3.55,37.32,37.32,0,0,0,15.89-3.93C32.92,42.51,33.42,42.45,33.55,42.92Z"></path>
        <path class="cls-11" d="M33.56,42.93a31,31,0,0,1-4,1.75,29.31,29.31,0,0,1-4.22,1.17A37,37,0,0,1,21,46.4c-1.45.1-2.91.17-4.37.14v-.13c1.37-.07,2.74-.21,4.1-.39s2.71-.44,4-.75,2.65-.72,3.95-1.17a40.55,40.55,0,0,0,3.79-1.6h0a2.09,2.09,0,0,1,.61,0A.51.51,0,0,1,33.56,42.93Zm0,0a.54.54,0,0,0-.16-.24.47.47,0,0,0-.26-.11,2,2,0,0,0-.6,0h0a34.54,34.54,0,0,1-3.77,1.71,31.7,31.7,0,0,1-3.95,1.23,40.35,40.35,0,0,1-8.19,1v-.13A37.33,37.33,0,0,0,21,46.32a34.61,34.61,0,0,0,4.3-.66,37.76,37.76,0,0,0,4.2-1.15C30.87,44.05,32.22,43.5,33.54,42.92Z"></path>
        <path class="cls-10" d="M33.06,41.5c-6.61.31-12.84.24-19.22-1.68,5.76,3.14,12.1,2.6,18.47,2.67C33,42.38,33.54,42.21,33.06,41.5Z"></path>
        <path class="cls-11" d="M33.06,41.51c-1.61.11-3.23.18-4.84.2s-3.24,0-4.86-.1a41.35,41.35,0,0,1-9.55-1.7l.07-.18a19.24,19.24,0,0,0,4.36,1.73,27,27,0,0,0,4.64.79c3.13.27,6.28.17,9.43.22h0a1.84,1.84,0,0,0,.77-.25.32.32,0,0,0,.14-.34A1.11,1.11,0,0,0,33.06,41.51Zm0,0a.93.93,0,0,1,.17.38.37.37,0,0,1-.15.38,2,2,0,0,1-.78.26h0c-3.15,0-6.3.11-9.44-.14a26.42,26.42,0,0,1-4.67-.75,19.38,19.38,0,0,1-4.41-1.71L13,39.46l.9.27a45,45,0,0,0,9.51,1.65q2.41.18,4.83.18C29.83,41.56,31.44,41.53,33.07,41.49Z"></path>
        <path class="cls-8" d="M37.46,41.43a8.94,8.94,0,0,0-2.66.77c-.66.28-.25.71-1,.73s-1.39-1.26-.6-1.76c.24-.16.47.17.76.18A3.1,3.1,0,0,0,35.1,41a10.37,10.37,0,0,1,1.19-.69"></path>
        <path class="cls-9" d="M37.46,41.43a5.15,5.15,0,0,0-1.21.27c-.39.12-.78.27-1.16.43a2.12,2.12,0,0,0-.52.28.78.78,0,0,0-.16.24.48.48,0,0,1-.22.27.62.62,0,0,1-.32.07.72.72,0,0,1-.33-.05,1.31,1.31,0,0,1-.5-.43,1.21,1.21,0,0,1-.21-.61.82.82,0,0,1,.2-.63,1.31,1.31,0,0,1,.12-.11.34.34,0,0,1,.16-.08.51.51,0,0,1,.33.07,2.19,2.19,0,0,0,.27.13.72.72,0,0,0,.29,0,3.24,3.24,0,0,0,1.12-.46l.55-.31.27-.15.14-.07.07,0-.06,0,.06,0-.07,0-.13.08-.27.16-.52.33a3.37,3.37,0,0,1-1.14.52.78.78,0,0,1-.34,0,1.28,1.28,0,0,1-.29-.13.37.37,0,0,0-.26-.06.59.59,0,0,0-.21.16.89.89,0,0,0,0,1.07,1,1,0,0,0,.43.38.66.66,0,0,0,.55,0c.15-.06.16-.33.34-.48a1.71,1.71,0,0,1,.57-.29A7.57,7.57,0,0,1,37.46,41.43Z"></path>
        <path class="cls-10" d="M34,42.75c-5.6,4.8-11.64,6.65-18.73,8.26C22,49.31,27.6,47.1,32.89,42.58,33.34,42.44,33.69,42.35,34,42.75Z"></path>
        <path class="cls-11" d="M34,42.75a27.39,27.39,0,0,1-4.15,3.11,29,29,0,0,1-4.63,2.32,50.65,50.65,0,0,1-4.93,1.61c-1.66.46-3.33.91-5,1.3l0-.15a60.7,60.7,0,0,0,9.29-3.21,42.91,42.91,0,0,0,4.33-2.32,38.22,38.22,0,0,0,4-2.86h0a1.83,1.83,0,0,1,.61-.11.63.63,0,0,1,.3.1A.6.6,0,0,1,34,42.75Zm0,0a1.11,1.11,0,0,0-.23-.19.53.53,0,0,0-.28-.07,1.48,1.48,0,0,0-.58.13h0a32.56,32.56,0,0,1-3.93,3A32,32,0,0,1,24.66,48a51.61,51.61,0,0,1-9.36,3.1l0-.15c1.69-.37,3.37-.75,5-1.24A44,44,0,0,0,25.15,48a36.08,36.08,0,0,0,4.62-2.29A37.46,37.46,0,0,0,34,42.75Z"></path>
        <path class="cls-10" d="M33,41.56a55.15,55.15,0,0,1-18.38,6.29c6.65,0,12.15-2.36,18.13-5C33.28,42.42,33.64,42.06,33,41.56Z"></path>
        <path class="cls-11" d="M33,41.58c-1.41.78-2.87,1.53-4.35,2.2s-3,1.3-4.53,1.86A47.63,47.63,0,0,1,14.63,48v-.2a31.62,31.62,0,0,0,9.3-1.49,83.2,83.2,0,0,0,8.83-3.45h0a1.79,1.79,0,0,0,.55-.58.4.4,0,0,0,0-.38A1.16,1.16,0,0,0,33,41.58Zm0,0a1.38,1.38,0,0,1,.29.3.44.44,0,0,1,0,.4,1.87,1.87,0,0,1-.55.6h0A83.74,83.74,0,0,1,24,46.39,31.85,31.85,0,0,1,14.62,48l0-.2A51.7,51.7,0,0,0,24,45.41c1.54-.52,3.05-1.12,4.54-1.77S31.53,42.29,33,41.55Z"></path>
        <path class="cls-8" d="M37.42,40.31a8,8,0,0,1-1.37-1.92c-.29-.54.22-.6-.24-1s-1.61.08-1.36.84c.08.24.41.14.61.3a2.49,2.49,0,0,1,.53.83A6.06,6.06,0,0,0,36,40.44"></path>
        <path class="cls-9" d="M37.42,40.31a7.09,7.09,0,0,1-1.29-1.68,1.52,1.52,0,0,1-.22-.5c0-.2.1-.38,0-.5a.6.6,0,0,0-.36-.3.91.91,0,0,0-.49,0,.75.75,0,0,0-.61.68.56.56,0,0,0,.06.23.37.37,0,0,0,.2.09,1.53,1.53,0,0,1,.26.08.56.56,0,0,1,.22.18,2.86,2.86,0,0,1,.49,1l.18.5.09.25,0,.12,0,.06s0,0,0-.06,0,0,0,.06l0,0L36,40.32l-.1-.24-.2-.49a3.13,3.13,0,0,0-.51-.91.62.62,0,0,0-.43-.22.43.43,0,0,1-.27-.13.48.48,0,0,1,0-.14.36.36,0,0,1,0-.14.66.66,0,0,1,.2-.52,1.16,1.16,0,0,1,.47-.29,1.06,1.06,0,0,1,.56,0,.73.73,0,0,1,.43.36.45.45,0,0,1,0,.3.5.5,0,0,0,0,.24,1.58,1.58,0,0,0,.2.47A8,8,0,0,0,37.42,40.31Z"></path>
        <path class="cls-10" d="M35.85,37.62a35.19,35.19,0,0,0-6.8-15.9A37.42,37.42,0,0,1,34.94,37C35.15,37.34,35.39,37.78,35.85,37.62Z"></path>
        <path class="cls-11" d="M35.84,37.62c-.28-1.42-.61-2.84-1-4.23a37,37,0,0,0-1.47-4.1,32.24,32.24,0,0,0-1.93-3.91A38,38,0,0,0,29,21.76l.1-.07A40.11,40.11,0,0,1,33,29a32.23,32.23,0,0,1,1.26,3.94A35.36,35.36,0,0,1,35,37h0a2.38,2.38,0,0,0,.34.49.63.63,0,0,0,.24.16A.7.7,0,0,0,35.84,37.62Zm0,0a.54.54,0,0,1-.59-.12A2.52,2.52,0,0,1,34.9,37h0A39.41,39.41,0,0,0,34,33c-.37-1.32-.8-2.62-1.3-3.9A40.58,40.58,0,0,0,31,25.34c-.62-1.22-1.3-2.42-2-3.58l.11-.08c.86,1.18,1.64,2.41,2.4,3.66a36.48,36.48,0,0,1,2,3.87A30.23,30.23,0,0,1,35,33.34,31.05,31.05,0,0,1,35.86,37.63Z"></path>
        <path class="cls-10" d="M34.4,38C30.86,32.45,27.23,27.39,22,23.25c5.88,2.92,9.07,8.42,12.78,13.6C35.05,37.44,35.25,38,34.4,38Z"></path>
        <path class="cls-11" d="M34.4,38.05c-.9-1.36-1.8-2.7-2.73-4s-1.9-2.61-2.92-3.86a44.94,44.94,0,0,0-6.81-6.84l-.73-.58.83.42A20,20,0,0,1,26,25.79a27.82,27.82,0,0,1,3.29,3.4c2,2.43,3.7,5.09,5.53,7.65h0a2,2,0,0,1,.23.79.36.36,0,0,1-.22.34A1.15,1.15,0,0,1,34.4,38.05Zm0,0A1,1,0,0,0,34.8,38a.36.36,0,0,0,.2-.32,2,2,0,0,0-.24-.77h0c-1.84-2.55-3.57-5.19-5.59-7.59a26.79,26.79,0,0,0-3.3-3.35A19.46,19.46,0,0,0,22,23.34l.1-.16A41.61,41.61,0,0,1,28.93,30q1.5,1.91,2.86,3.92C32.71,35.28,33.58,36.65,34.41,38Z"></path>
        <path class="cls-8" d="M44.87,44.38a8.39,8.39,0,0,1-1.37-1.92c-.29-.54.22-.61-.24-1s-1.61.07-1.36.84c.08.24.41.14.61.3a2.39,2.39,0,0,1,.53.83,6.56,6.56,0,0,0,.44,1.08"></path>
        <path class="cls-9" d="M44.87,44.38a7.3,7.3,0,0,1-1.29-1.68,1.52,1.52,0,0,1-.22-.5c0-.2.1-.38,0-.51A.67.67,0,0,0,43,41.4a.91.91,0,0,0-.49,0,.76.76,0,0,0-.61.69.71.71,0,0,0,.06.22.32.32,0,0,0,.2.1,1.54,1.54,0,0,1,.27.07.77.77,0,0,1,.21.19,2.86,2.86,0,0,1,.49,1l.18.5.09.25,0,.12a.14.14,0,0,0,0,.06s0,0,0-.06,0,0,0,.06l0-.06-.06-.12-.1-.24-.2-.49a2.89,2.89,0,0,0-.51-.91.59.59,0,0,0-.43-.22.41.41,0,0,1-.26-.13.64.64,0,0,1-.08-.29.72.72,0,0,1,.2-.52,1.11,1.11,0,0,1,.48-.28,1,1,0,0,1,.55,0,.7.7,0,0,1,.43.36.42.42,0,0,1,0,.29.55.55,0,0,0,0,.25,1.43,1.43,0,0,0,.2.46A8,8,0,0,0,44.87,44.38Z"></path>
        <path class="cls-10" d="M43.3,41.69a35.14,35.14,0,0,0-6.8-15.9,37.42,37.42,0,0,1,5.89,15.28C42.6,41.41,42.84,41.85,43.3,41.69Z"></path>
        <path class="cls-11" d="M43.29,41.68c-.28-1.41-.61-2.84-1-4.23a36.88,36.88,0,0,0-1.47-4.09,31.53,31.53,0,0,0-1.93-3.91,36.79,36.79,0,0,0-2.42-3.62l.1-.08a40.53,40.53,0,0,1,3.86,7.31A31.69,31.69,0,0,1,41.67,37a35,35,0,0,1,.76,4.06h0a2.85,2.85,0,0,0,.34.49.51.51,0,0,0,.24.15A.57.57,0,0,0,43.29,41.68Zm0,0a.54.54,0,0,1-.59-.12,2.13,2.13,0,0,1-.36-.49h0a39.41,39.41,0,0,0-.87-4,40.51,40.51,0,0,0-1.3-3.9c-.51-1.27-1.07-2.53-1.7-3.74s-1.31-2.42-2-3.59l.11-.07c.86,1.18,1.64,2.41,2.4,3.66a36.48,36.48,0,0,1,2,3.87,30.14,30.14,0,0,1,1.47,4.12A32.72,32.72,0,0,1,43.31,41.7Z"></path>
        <path class="cls-10" d="M41.85,42.1c-3.54-5.59-7.17-10.65-12.4-14.78,5.88,2.92,9.07,8.42,12.78,13.6C42.51,41.51,42.71,42.09,41.85,42.1Z"></path>
        <path class="cls-11" d="M41.85,42.11c-.9-1.35-1.8-2.69-2.73-4s-1.9-2.61-2.92-3.86a44.94,44.94,0,0,0-6.81-6.84l-.73-.58.83.41a19.76,19.76,0,0,1,3.94,2.63,28.47,28.47,0,0,1,3.29,3.39c2,2.43,3.71,5.09,5.53,7.66h0a2,2,0,0,1,.23.79.39.39,0,0,1-.22.34A1,1,0,0,1,41.85,42.11Zm0,0a1,1,0,0,0,.39-.08.34.34,0,0,0,.2-.31,1.92,1.92,0,0,0-.24-.77h0c-1.85-2.55-3.58-5.19-5.6-7.6A27.48,27.48,0,0,0,33.32,30a19.41,19.41,0,0,0-3.91-2.57l.1-.17a42.06,42.06,0,0,1,6.87,6.86c1,1.26,2,2.58,2.87,3.91S41,40.72,41.86,42.09Z"></path>
        <path class="cls-8" d="M38,41.73a9,9,0,0,1-.9-2.62c-.14-.7.44-.61,0-1.2s-1.82-.42-1.79.51c0,.3.41.29.59.53a3,3,0,0,1,.33,1.1,11,11,0,0,0,.12,1.37"></path>
        <path class="cls-9" d="M38,41.73a7.8,7.8,0,0,1-.89-2.31,1.91,1.91,0,0,1-.08-.64c0-.23.23-.4.19-.56a.72.72,0,0,0-.31-.45,1,1,0,0,0-.56-.13.89.89,0,0,0-.9.58.63.63,0,0,0,0,.27.43.43,0,0,0,.2.17,1.11,1.11,0,0,1,.27.17.87.87,0,0,1,.19.28,3.44,3.44,0,0,1,.23,1.23l0,.62,0,.31v.15a.22.22,0,0,1,0,.08s0,0,0-.08l0-.15,0-.31-.07-.62A3.22,3.22,0,0,0,36,39.15a.56.56,0,0,0-.16-.23.93.93,0,0,0-.26-.15.48.48,0,0,1-.25-.24.26.26,0,0,1,0-.17.5.5,0,0,1,0-.17.82.82,0,0,1,.39-.52,1.27,1.27,0,0,1,.63-.17,1.16,1.16,0,0,1,.63.16.66.66,0,0,1,.24.23.85.85,0,0,1,.13.31.5.5,0,0,1-.1.33,1,1,0,0,0-.11.27,2,2,0,0,0,.08.59,9.6,9.6,0,0,0,.31,1.2A5,5,0,0,0,38,41.73Z"></path>
        <path class="cls-10" d="M37.11,38.15c.72-7.34-1.23-13.35-4-20.08,2.44,6.45,3.86,12.34,3.19,19.27C36.47,37.78,36.6,38.12,37.11,38.15Z"></path>
        <path class="cls-11" d="M37.1,38.14a36.89,36.89,0,0,0,0-5.15,38.14,38.14,0,0,0-.77-5.09,45.35,45.35,0,0,0-1.38-5c-.54-1.64-1.2-3.23-1.86-4.82l.14-.06A50.89,50.89,0,0,1,36,27.49a33.45,33.45,0,0,1,.33,9.85v0a1.74,1.74,0,0,0,.23.56.55.55,0,0,0,.22.18A.8.8,0,0,0,37.1,38.14Zm0,0a.68.68,0,0,1-.32-.06.76.76,0,0,1-.25-.19,2,2,0,0,1-.26-.56h0a36.6,36.6,0,0,0,.06-4.91,41.94,41.94,0,0,0-.59-4.88,60.17,60.17,0,0,0-2.69-9.45l.14-.05c.64,1.6,1.23,3.22,1.81,4.85a49.79,49.79,0,0,1,1.51,5A30.53,30.53,0,0,1,37.29,33,28,28,0,0,1,37.12,38.16Z"></path>
        <path class="cls-10" d="M35.56,38a55.25,55.25,0,0,0-5.39-18.66c3.78,5.46,5,11.31,6.29,17.74C36.42,37.75,36.33,38.24,35.56,38Z"></path>
        <path class="cls-11" d="M35.55,38c-.24-1.62-.51-3.22-.82-4.82S34,30,33.57,28.46a52,52,0,0,0-3.49-9.08l.17-.1a32,32,0,0,1,4.08,8.55,84.16,84.16,0,0,1,2.15,9.24h0a1.81,1.81,0,0,1-.17.79.39.39,0,0,1-.35.2A1.17,1.17,0,0,1,35.55,38Zm0,0a1.23,1.23,0,0,0,.39.06.4.4,0,0,0,.32-.19,1.78,1.78,0,0,0,.16-.79h0a85.23,85.23,0,0,0-2.24-9.21,31.34,31.34,0,0,0-4.11-8.47l.17-.11a48.73,48.73,0,0,1,3.55,9.11c.42,1.57.78,3.16,1.07,4.77S35.4,36.39,35.57,38Z"></path>
        <path class="cls-8" d="M35.1,41l32,14.33"></path>
        <path class="cls-8" d="M35.54,40a29.2,29.2,0,0,0,3.92,2l4,1.81c2.66,1.2,5.32,2.41,8,3.59l8,3.53c2.67,1.18,5.36,2.31,8.12,3.29h0a1.25,1.25,0,0,1-.84,2.36l-.18-.08c-2.57-1.41-5.21-2.66-7.87-3.87l-8-3.64c-2.66-1.21-5.33-2.38-8-3.57l-4-1.78A30.57,30.57,0,0,0,34.65,42a1.1,1.1,0,0,1,.56-2.12A1.66,1.66,0,0,1,35.54,40Z"></path>
        <path class="cls-8" d="M75,53.31a8.1,8.1,0,0,1,1.25,2c.26.56-.25.59.19,1s1.6,0,1.4-.76c-.07-.24-.4-.16-.59-.33a2.45,2.45,0,0,1-.48-.86,5.68,5.68,0,0,0-.38-1.11"></path>
        <path class="cls-9" d="M75,53.31a8.44,8.44,0,0,1,1.1,1.79,1.67,1.67,0,0,1,.18.48,1,1,0,0,1,0,.24.44.44,0,0,0,0,.3.7.7,0,0,0,.41.38,1.07,1.07,0,0,0,.56,0,1.16,1.16,0,0,0,.49-.26.7.7,0,0,0,.23-.51.33.33,0,0,0,0-.14.39.39,0,0,0,0-.14.37.37,0,0,0-.25-.15.64.64,0,0,1-.42-.24,2.72,2.72,0,0,1-.45-.94l-.18-.51-.09-.25,0-.12,0-.06s0,0,0,.06a.13.13,0,0,0,0-.06l0,.06,0,.13.08.25.14.51a3,3,0,0,0,.43,1,.8.8,0,0,0,.21.2,1.53,1.53,0,0,0,.26.08.38.38,0,0,1,.19.11.56.56,0,0,1,0,.23.76.76,0,0,1-.65.65.9.9,0,0,1-.49,0,.63.63,0,0,1-.35-.31c-.06-.13.08-.3.06-.5a1.48,1.48,0,0,0-.2-.52A6.9,6.9,0,0,0,75,53.31Z"></path>
        <path class="cls-10" d="M76.42,56.09a35,35,0,0,0,5.85,16.27,37.35,37.35,0,0,1-5-15.6C77.1,56.41,76.89,56,76.42,56.09Z"></path>
        <path class="cls-11" d="M77,56.23a2.83,2.83,0,0,1,.34.51h0A37,37,0,0,0,78,60.83a38.73,38.73,0,0,0,1.07,4c.43,1.3.92,2.58,1.48,3.84s1.16,2.48,1.82,3.69l-.11.07c-.79-1.23-1.5-2.5-2.18-3.79a38.69,38.69,0,0,1-1.81-4A29.57,29.57,0,0,1,77,60.42a31.48,31.48,0,0,1-.61-4.34A.54.54,0,0,1,77,56.23Zm.21,4.15a37.58,37.58,0,0,0,1.22,4.17,32.87,32.87,0,0,0,1.69,4,39.36,39.36,0,0,0,2.21,3.76l-.11.06a39.7,39.7,0,0,1-3.41-7.51,31.46,31.46,0,0,1-1-4,35.62,35.62,0,0,1-.52-4.1h0a2.36,2.36,0,0,0-.3-.51.59.59,0,0,0-.24-.17.67.67,0,0,0-.28,0C76.62,57.52,76.87,59,77.2,60.38Z"></path>
        <path class="cls-10" d="M77.89,55.76c3.2,5.79,6.53,11.06,11.51,15.49-5.7-3.26-8.56-8.94-12-14.33C77.2,56.31,77,55.72,77.89,55.76Z"></path>
        <path class="cls-11" d="M77.49,55.83a.31.31,0,0,0-.22.3,1.79,1.79,0,0,0,.19.78h0c1.69,2.65,3.25,5.39,5.13,7.91a27.48,27.48,0,0,0,3.1,3.54,19,19,0,0,0,3.75,2.8l-.11.16a41.89,41.89,0,0,1-6.45-7.24c-.93-1.33-1.8-2.7-2.63-4.08s-1.62-2.81-2.37-4.23A.86.86,0,0,0,77.49,55.83Zm2.89,4.09c.85,1.37,1.74,2.72,2.69,4a44.9,44.9,0,0,0,6.39,7.24l.7.62-.81-.47a19.46,19.46,0,0,1-3.77-2.85,27.66,27.66,0,0,1-3.09-3.58c-1.86-2.55-3.4-5.3-5.07-8h0a2,2,0,0,1-.18-.8.35.35,0,0,1,.24-.33,1,1,0,0,1,.41,0C78.71,57.16,79.53,58.54,80.38,59.92Z"></path>
        <path class="cls-8" d="M78.18,53.52a8.08,8.08,0,0,1,2.18.92c.53.31.14.63.73.72s1.33-.91.72-1.42c-.2-.16-.42.09-.68.06a2.46,2.46,0,0,1-.89-.43,7.08,7.08,0,0,0-.94-.69"></path>
        <path class="cls-9" d="M78.18,53.52a8,8,0,0,1,1.94.84,1.64,1.64,0,0,1,.42.29.55.55,0,0,1,.1.22.43.43,0,0,0,.16.25.73.73,0,0,0,.56.08,1.1,1.1,0,0,0,.71-.8.71.71,0,0,0-.09-.55.52.52,0,0,0-.1-.11.29.29,0,0,0-.12-.09.4.4,0,0,0-.29,0,.65.65,0,0,1-.49,0,3,3,0,0,1-.9-.51l-.43-.31-.22-.16-.11-.07-.06,0s0,0,0,0l0,0,0,0,.11.08.21.17.41.33a2.78,2.78,0,0,0,.92.55.64.64,0,0,0,.28.05l.26-.08a.29.29,0,0,1,.22,0c.06,0,.12.1.17.16a.75.75,0,0,1-.16.9.91.91,0,0,1-.4.28.64.64,0,0,1-.47-.06c-.13-.07-.11-.29-.24-.44a1.3,1.3,0,0,0-.45-.31A7.18,7.18,0,0,0,78.18,53.52Z"></path>
        <path class="cls-10" d="M80.94,55A35.1,35.1,0,0,0,95.07,65,37.4,37.4,0,0,1,82,55C81.68,54.86,81.25,54.61,80.94,55Z"></path>
        <path class="cls-11" d="M81.49,54.78a3,3,0,0,1,.57.22h0a36.34,36.34,0,0,0,2.85,3,39.79,39.79,0,0,0,3.16,2.64c1.1.81,2.23,1.59,3.41,2.29s2.38,1.37,3.61,2l0,.12c-1.35-.55-2.66-1.19-4-1.85a37.69,37.69,0,0,1-3.77-2.23,29.85,29.85,0,0,1-3.41-2.74,32.35,32.35,0,0,1-3-3.2A.53.53,0,0,1,81.49,54.78ZM84,58.05a34.33,34.33,0,0,0,3.4,2.72,32.6,32.6,0,0,0,3.69,2.31,36.37,36.37,0,0,0,4,1.81L95,65a40.34,40.34,0,0,1-7.11-4.19,31,31,0,0,1-3.14-2.7,33.39,33.39,0,0,1-2.78-3h0a2.27,2.27,0,0,0-.55-.25.53.53,0,0,0-.28,0A.51.51,0,0,0,81,55C81.93,56.05,83,57.09,84,58.05Z"></path>
        <path class="cls-10" d="M82,53.88c6,2.9,11.7,5.3,18.32,6.07-6.54.6-12.14-2.41-18-4.87C81.71,54.72,81.23,54.33,82,53.88Z"></path>
        <path class="cls-11" d="M81.66,54.16a.35.35,0,0,0,0,.37,2.1,2.1,0,0,0,.61.54h0C85.17,56.26,88,57.61,91,58.59a25.73,25.73,0,0,0,4.56,1.12,19.38,19.38,0,0,0,4.69.14V60a41.92,41.92,0,0,1-9.45-2.22c-1.52-.55-3-1.17-4.49-1.83s-2.94-1.37-4.37-2.1A1.06,1.06,0,0,0,81.66,54.16Zm4.72,1.69c1.48.64,3,1.23,4.51,1.75a44.62,44.62,0,0,0,9.39,2.25l.92.11-.92.08a19.2,19.2,0,0,1-4.73-.17A26.73,26.73,0,0,1,91,58.71c-3-1-5.83-2.38-8.73-3.61h0a2,2,0,0,1-.61-.55.36.36,0,0,1,0-.4,1,1,0,0,1,.31-.29C83.43,54.55,84.89,55.21,86.38,55.85Z"></path>
        <path class="cls-8" d="M77.94,52.07a8.87,8.87,0,0,1,2.14,1.76c.49.52,0,.75.59,1.05s1.77-.6,1.25-1.38c-.16-.24-.5,0-.77-.14a2.65,2.65,0,0,1-.86-.76,9.41,9.41,0,0,0-.83-1.11"></path>
        <path class="cls-9" d="M77.94,52.07a5.39,5.39,0,0,1,1,.72,12,12,0,0,1,.89.86,2.07,2.07,0,0,1,.38.47.82.82,0,0,1,0,.28.47.47,0,0,0,.1.33.76.76,0,0,0,.27.2A.62.62,0,0,0,81,55a1.25,1.25,0,0,0,.62-.19,1.27,1.27,0,0,0,.44-.48.81.81,0,0,0,.06-.65.51.51,0,0,0-.07-.15.29.29,0,0,0-.11-.14.47.47,0,0,0-.34-.06.94.94,0,0,1-.29,0,.66.66,0,0,1-.26-.11,3.1,3.1,0,0,1-.85-.88l-.38-.49-.19-.25-.1-.12s0,0-.06,0l0,.06s0,0,0-.06l0,.06.09.12.18.26.35.51a3.57,3.57,0,0,0,.85.93.7.7,0,0,0,.3.14,1.71,1.71,0,0,0,.32,0,.36.36,0,0,1,.26,0,.52.52,0,0,1,.13.23.88.88,0,0,1-.46,1,1,1,0,0,1-.54.18.67.67,0,0,1-.5-.22c-.12-.12,0-.37-.13-.58a1.81,1.81,0,0,0-.41-.49A7.6,7.6,0,0,0,77.94,52.07Z"></path>
        <path class="cls-10" d="M80.58,54.64c3.25,6.63,8.06,10.73,13.93,15C89,65.44,84.74,61.18,81.68,54.93,81.33,54.63,81,54.41,80.58,54.64Z"></path>
        <path class="cls-11" d="M80.87,54.53a.54.54,0,0,1,.31,0,1.85,1.85,0,0,1,.53.34h0a35.89,35.89,0,0,0,2.52,4.22A42.08,42.08,0,0,0,87.3,63a60,60,0,0,0,7.25,6.64l-.09.11c-1.38-1-2.74-2.09-4.09-3.17a48.52,48.52,0,0,1-3.88-3.43,29.5,29.5,0,0,1-3.34-4,27.45,27.45,0,0,1-2.58-4.5A.91.91,0,0,1,80.87,54.53ZM83.32,59A37.79,37.79,0,0,0,86.65,63a45,45,0,0,0,3.78,3.52c1.33,1.1,2.73,2.11,4.12,3.12l-.09.12a51.46,51.46,0,0,1-7.37-6.55A33.72,33.72,0,0,1,81.64,55h0a1.9,1.9,0,0,0-.49-.35.55.55,0,0,0-.28,0,1.15,1.15,0,0,0-.28.08A36.59,36.59,0,0,0,83.32,59Z"></path>
        <path class="cls-10" d="M82,54A55.25,55.25,0,0,0,96.37,67c-6.09-2.66-10.22-7-14.67-11.79C81.38,54.63,81.2,54.16,82,54Z"></path>
        <path class="cls-11" d="M81.62,54.13a.4.4,0,0,0-.17.33,1.74,1.74,0,0,0,.27.75h0a84.72,84.72,0,0,0,6.74,6.66,31.34,31.34,0,0,0,8,5.05l-.09.18a48.08,48.08,0,0,1-7.8-5.89c-1.19-1.11-2.33-2.28-3.42-3.49S83,55.25,82,54A1.28,1.28,0,0,0,81.62,54.13Zm3.59,3.48C86.32,58.8,87.48,60,88.68,61a52.84,52.84,0,0,0,7.74,5.89l-.09.18a31.82,31.82,0,0,1-8-5.14,83.3,83.3,0,0,1-6.68-6.74h0a1.75,1.75,0,0,1-.28-.77.45.45,0,0,1,.19-.35A1.11,1.11,0,0,1,82,54Q83.57,55.83,85.21,57.61Z"></path>
        <path class="cls-8" d="M78.42,51.06a8.45,8.45,0,0,0,2-1.23c.48-.38,0-.63.62-.81s1.44.7.91,1.3c-.17.19-.43,0-.68,0a2.46,2.46,0,0,0-.82.55,7.81,7.81,0,0,1-.82.82"></path>
        <path class="cls-9" d="M78.42,51.06a7.2,7.2,0,0,0,1.85-1,1.27,1.27,0,0,0,.4-.37c.11-.16.06-.38.18-.47a.6.6,0,0,1,.45-.12.86.86,0,0,1,.44.21.76.76,0,0,1,.28.87.37.37,0,0,1-.14.18.27.27,0,0,1-.22,0,1.12,1.12,0,0,0-.27,0,.61.61,0,0,0-.27.08,2.88,2.88,0,0,0-.83.68l-.36.39-.18.19-.09.09,0,.05a.1.1,0,0,1,0-.05.07.07,0,0,0,0,.05l0,0,.1-.09.19-.18.38-.37a2.84,2.84,0,0,1,.83-.64.61.61,0,0,1,.48,0,.4.4,0,0,0,.3,0,.24.24,0,0,0,.1-.1l.08-.12a.69.69,0,0,0,0-.56,1.12,1.12,0,0,0-.32-.45,1.09,1.09,0,0,0-.51-.24.77.77,0,0,0-.54.16.44.44,0,0,0-.12.27.56.56,0,0,1-.07.23,1.38,1.38,0,0,1-.37.35A8.49,8.49,0,0,1,78.42,51.06Z"></path>
        <path class="cls-10" d="M80.93,49.21A35.09,35.09,0,0,1,93.47,37.3,37.42,37.42,0,0,0,82,49C81.68,49.23,81.29,49.54,80.93,49.21Z"></path>
        <path class="cls-11" d="M81.2,49.33a.68.68,0,0,0,.28,0A2.72,2.72,0,0,0,82,49h0a34.2,34.2,0,0,1,2.3-3.43A31,31,0,0,1,87,42.43a40.53,40.53,0,0,1,6.43-5.18l.07.11a38,38,0,0,0-3.66,2.36,34.44,34.44,0,0,0-3.32,2.83,37.24,37.24,0,0,0-3,3.18c-.93,1.11-1.8,2.29-2.61,3.48A.57.57,0,0,0,81.2,49.33Zm2.21-3.72a30.06,30.06,0,0,1,3-3.21,35.73,35.73,0,0,1,3.4-2.74c1.19-.85,2.39-1.67,3.65-2.41l.07.11c-1.13.78-2.23,1.61-3.29,2.48s-2.07,1.8-3,2.76A38.5,38.5,0,0,0,82,49h0a2.31,2.31,0,0,1-.53.31.53.53,0,0,1-.58-.13A32,32,0,0,1,83.41,45.61Z"></path>
        <path class="cls-10" d="M82.09,50.16c5.47-3.73,10.81-6.94,17.25-8.66-6.56.35-11.67,4.14-17.13,7.42C81.73,49.36,81.31,49.82,82.09,50.16Z"></path>
        <path class="cls-11" d="M81.74,49.94a.41.41,0,0,1-.07-.4,2,2,0,0,1,.53-.63h0c2.69-1.63,5.3-3.4,8.11-4.84a27.36,27.36,0,0,1,4.37-1.81,19.35,19.35,0,0,1,4.65-.85l.93-.06-.9.25a45.05,45.05,0,0,0-9,3.58c-1.44.74-2.84,1.55-4.22,2.39s-2.73,1.72-4.09,2.6A.89.89,0,0,1,81.74,49.94Zm4.37-2.5q2-1.3,4.18-2.46a41.75,41.75,0,0,1,9-3.57l0,.19a19.73,19.73,0,0,0-4.62.81,28.33,28.33,0,0,0-4.35,1.77c-2.81,1.41-5.44,3.15-8.15,4.76h0a2,2,0,0,0-.53.62.34.34,0,0,0,.06.36,1,1,0,0,0,.33.23C83.4,49.22,84.74,48.3,86.11,47.44Z"></path>
        <path class="cls-8" d="M70,51.84a8.17,8.17,0,0,0,2-1.22c.47-.38,0-.64.61-.82s1.45.7.92,1.3c-.17.19-.43,0-.68,0a2.51,2.51,0,0,0-.82.55c-.32.34-1,1.08-.83.82"></path>
        <path class="cls-9" d="M70,51.84a6.85,6.85,0,0,0,1.85-1,1.58,1.58,0,0,0,.41-.37c.11-.17.06-.39.17-.48a.62.62,0,0,1,.46-.12,1,1,0,0,1,.44.21.76.76,0,0,1,.28.87.55.55,0,0,1-.14.19.4.4,0,0,1-.22,0,1.26,1.26,0,0,0-.27,0,.65.65,0,0,0-.28.08,3,3,0,0,0-.82.68l-.36.39-.18.19-.1.1,0,0s0,0,0-.05,0,0,0,.05l0,0,.1-.09.19-.18.38-.37a3,3,0,0,1,.83-.64.57.57,0,0,1,.48,0,.49.49,0,0,0,.29,0,.29.29,0,0,0,.11-.11.5.5,0,0,0,.08-.12.72.72,0,0,0,0-.56,1.22,1.22,0,0,0-.33-.45.92.92,0,0,0-.5-.23.7.7,0,0,0-.54.15.44.44,0,0,0-.12.27.61.61,0,0,1-.07.24,1.53,1.53,0,0,1-.37.34A7.6,7.6,0,0,1,70,51.84Z"></path>
        <path class="cls-10" d="M72.47,50A35.18,35.18,0,0,1,85,38.09,37.28,37.28,0,0,0,73.56,49.78C73.23,50,72.83,50.32,72.47,50Z"></path>
        <path class="cls-11" d="M72.74,50.11a.48.48,0,0,0,.29,0,2.23,2.23,0,0,0,.5-.32h0a36.08,36.08,0,0,1,2.31-3.43,31,31,0,0,1,2.72-3.12A40.08,40.08,0,0,1,85,38l.07.11a35.19,35.19,0,0,0-3.66,2.37,33.17,33.17,0,0,0-3.32,2.82,37.14,37.14,0,0,0-3,3.18c-.93,1.11-1.8,2.29-2.61,3.48A.49.49,0,0,0,72.74,50.11ZM75,46.4a29.11,29.11,0,0,1,3-3.21,39,39,0,0,1,3.41-2.75c1.18-.85,2.39-1.67,3.65-2.41l.06.11c-1.13.78-2.22,1.61-3.28,2.48s-2.07,1.8-3,2.77-1.87,2-2.74,3.06a39.19,39.19,0,0,0-2.39,3.35h0a2.37,2.37,0,0,1-.53.31.54.54,0,0,1-.59-.12A30,30,0,0,1,75,46.4Z"></path>
        <path class="cls-10" d="M73.64,51c5.46-3.73,10.8-6.94,17.24-8.66-6.55.35-11.66,4.14-17.12,7.42C73.27,50.14,72.86,50.6,73.64,51Z"></path>
        <path class="cls-11" d="M73.29,50.73a.37.37,0,0,1-.07-.4,2,2,0,0,1,.53-.64h0c2.69-1.63,5.3-3.4,8.11-4.84A28.32,28.32,0,0,1,86.23,43a19.76,19.76,0,0,1,4.65-.85l.93-.06-.9.25A44.49,44.49,0,0,0,82,46c-1.44.74-2.84,1.54-4.22,2.38S75,50.07,73.64,51A1.07,1.07,0,0,1,73.29,50.73Zm4.36-2.51c1.37-.86,2.76-1.69,4.19-2.46a42.27,42.27,0,0,1,9-3.57l0,.19a19.56,19.56,0,0,0-4.62.82A26.45,26.45,0,0,0,81.92,45c-2.82,1.41-5.44,3.15-8.15,4.75h0a2.05,2.05,0,0,0-.52.62.36.36,0,0,0,.06.37.91.91,0,0,0,.33.22C74.94,50,76.29,49.09,77.65,48.22Z"></path>
        <path class="cls-8" d="M77.31,52.13a9,9,0,0,0,1.87-2.05c.41-.59-.16-.74.43-1.13s1.84.34,1.43,1.18c-.12.27-.48.1-.74.26a2.7,2.7,0,0,0-.74.88,9.25,9.25,0,0,1-.66,1.21"></path>
        <path class="cls-9" d="M77.31,52.13a7.54,7.54,0,0,0,1.74-1.78,2,2,0,0,0,.33-.55c.07-.22-.06-.45,0-.59a.71.71,0,0,1,.46-.29,1,1,0,0,1,.57.1.89.89,0,0,1,.6.89.57.57,0,0,1-.1.25.33.33,0,0,1-.25.08,1.25,1.25,0,0,0-.32,0,.9.9,0,0,0-.28.18,3.46,3.46,0,0,0-.7,1l-.27.56-.14.27-.07.14,0,.07s0,0,0-.07l0,.07a.13.13,0,0,0,0-.06l.08-.14.16-.27.3-.54a3.38,3.38,0,0,1,.71-1,.63.63,0,0,1,.24-.15,1.36,1.36,0,0,1,.3,0,.54.54,0,0,0,.33-.11.25.25,0,0,0,.08-.15.55.55,0,0,0,0-.17A.84.84,0,0,0,81,49.3a1.41,1.41,0,0,0-.5-.41,1.27,1.27,0,0,0-.64-.1.69.69,0,0,0-.32.12.78.78,0,0,0-.24.24.45.45,0,0,0,0,.34.66.66,0,0,1,0,.28,1.71,1.71,0,0,1-.3.52c-.24.34-.49.66-.76,1A5.18,5.18,0,0,1,77.31,52.13Z"></path>
        <path class="cls-10" d="M79.56,49.2c2.25-7,6.42-11.78,11.6-16.87-4.79,5-8.43,9.8-10.56,16.43C80.3,49.11,80,49.37,79.56,49.2Z"></path>
        <path class="cls-11" d="M79.86,49.23a.57.57,0,0,0,.28-.08,1.9,1.9,0,0,0,.43-.42h0a33.32,33.32,0,0,1,1.77-4.6,32.68,32.68,0,0,1,2.44-4.31,50.33,50.33,0,0,1,6.34-7.55l.1.1c-1.23,1.21-2.47,2.41-3.62,3.69a44.52,44.52,0,0,0-3.23,4,38,38,0,0,0-2.73,4.37,37.25,37.25,0,0,0-2.06,4.72A.92.92,0,0,0,79.86,49.23Zm1.59-4.85A30.31,30.31,0,0,1,84.17,40c1-1.38,2.18-2.68,3.35-4s2.36-2.52,3.59-3.73l.11.1A59.54,59.54,0,0,0,85,40a40.73,40.73,0,0,0-2.47,4.24,37.47,37.47,0,0,0-1.89,4.54h0a1.85,1.85,0,0,1-.47.41.61.61,0,0,1-.3.08.7.7,0,0,1-.31-.07A27.44,27.44,0,0,1,81.45,44.38Z"></path>
        <path class="cls-10" d="M81,49.67a55.46,55.46,0,0,1,12.35-15c-5.65,3.52-9.1,8.39-12.81,13.8C80.35,49.1,80.24,49.59,81,49.67Z"></path>
        <path class="cls-11" d="M80.65,49.58a.4.4,0,0,1-.24-.32,1.81,1.81,0,0,1,.15-.8h0a81.8,81.8,0,0,1,5.63-7.62,31.67,31.67,0,0,1,7.13-6.24l.12.16a52.62,52.62,0,0,0-6.81,7c-1,1.25-2,2.55-2.93,3.89s-1.8,2.7-2.66,4.1A1.08,1.08,0,0,1,80.65,49.58Zm2.93-4.08c.91-1.35,1.86-2.67,2.88-4a47.44,47.44,0,0,1,6.86-6.95l.12.16a31.55,31.55,0,0,0-7.14,6.15,84.14,84.14,0,0,0-5.7,7.57h0a1.79,1.79,0,0,0-.16.78.38.38,0,0,0,.22.31,1.26,1.26,0,0,0,.38.1C81.83,48.25,82.68,46.85,83.58,45.5Z"></path>
        <path class="cls-8" d="M80.29,52.6l-35,.49"></path>
        <path class="cls-8" d="M80.27,51.52a29.23,29.23,0,0,1-4.38.23l-4.37.08c-2.92.05-5.84.11-8.76.14L54,52c-2.92,0-5.84,0-8.76-.19h0a1.26,1.26,0,0,0-.16,2.51h.2c2.92-.27,5.83-.37,8.75-.44l8.76-.18c2.92-.06,5.84-.07,8.76-.11l4.38,0a30.53,30.53,0,0,1,4.38.12,1.1,1.1,0,0,0,.33-2.17A1.08,1.08,0,0,0,80.27,51.52Z"></path>
        <polygon class="cls-4" points="56.74 50.28 57.4 99.43 103.8 70.57 107.63 28.61 56.74 50.28"></polygon>
        <polygon class="cls-12" points="21.78 73.93 26.06 75.84 25.21 43.49 19.72 41.2 21.78 73.93"></polygon>
        <polygon class="cls-12" points="12.85 47.38 14.91 71.18 19.72 73.24 17.66 50.58 12.85 47.38"></polygon>
      </g>
    </g>
  </g>
</svg>
