<?xml version="1.0" encoding="UTF-8"?>
<svg xmlns="http://www.w3.org/2000/svg" viewBox="0 0 113.14 109.58">
  <defs>
    <style>.cls-1{isolation:isolate;}.cls-2,.cls-3,.cls-4{fill:#8ebcd6;}.cls-10,.cls-2,.cls-4{mix-blend-mode:multiply;}.cls-10,.cls-4,.cls-9{opacity:0.4;}.cls-10,.cls-5,.cls-8,.cls-9{fill:#9ecee8;}.cls-6{fill:#402d22;}.cls-7{fill:#d2c9be;}.cls-8{mix-blend-mode:screen;}</style>
  </defs>
  <g class="cls-1">
    <g id="Слой_2" data-name="Слой 2">
      <g id="Слой_1-2" data-name="Слой 1">
        <polygon class="cls-2" points="59.15 41.75 112.9 18.96 106.54 85.58 59.15 109.58 59.15 41.75"></polygon>
        <polygon class="cls-3" points="1.94 30 58.54 52.54 59.15 109.58 7.92 85.47 1.94 30"></polygon>
        <polygon class="cls-4" points="1.94 30 7.11 76.04 59.01 52.7 59.09 11.91 1.94 30"></polygon>
        <polygon class="cls-5" points="7.11 76.04 59.01 52.7 107.5 73.66 58.54 98.42 7.11 76.04"></polygon>
        <path class="cls-6" d="M51.85,60.8c-.32-2.33-2.78-3.92-5.51-3.54s-5.92,2.45-5.6,4.78,4,4,6.77,3.66S52.17,63.13,51.85,60.8Z"></path>
        <path class="cls-7" d="M50.51,64.24A5.47,5.47,0,0,1,47,65.64a7.74,7.74,0,0,1-3.66-.83,4.31,4.31,0,0,1-2.44-2.65,3.32,3.32,0,0,1,1.59-3.09,8.52,8.52,0,0,1,3.4-1.53,5.33,5.33,0,0,1,3.66.37,3.74,3.74,0,0,1,.92,6.33Zm-.81-6.53a5.76,5.76,0,0,0-3.85-.57,8.9,8.9,0,0,0-3.57,1.61,3.67,3.67,0,0,0-1.66,3.47A4.56,4.56,0,0,0,43.26,65a7.92,7.92,0,0,0,3.79.8,5.55,5.55,0,0,0,3.51-1.53,4,4,0,0,0-.86-6.6Z"></path>
        <path class="cls-6" d="M46.66,71c-1.7-1.62-4.61-1.32-6.51.66S37,77.26,38.74,78.88s5.68.64,7.57-1.35S48.37,72.62,46.66,71Z"></path>
        <path class="cls-7" d="M47.76,74.53a5.45,5.45,0,0,1-1.85,3.24,7.68,7.68,0,0,1-3.38,1.64A4.29,4.29,0,0,1,39,78.85a3.3,3.3,0,0,1-.68-3.4A8.55,8.55,0,0,1,40,72.13a5.37,5.37,0,0,1,3.1-2,4,4,0,0,1,3.55.87A4.07,4.07,0,0,1,47.76,74.53Zm-4.7-4.61a5.68,5.68,0,0,0-3.37,2,9,9,0,0,0-1.79,3.48,3.68,3.68,0,0,0,.86,3.75,4.58,4.58,0,0,0,3.82.57,7.92,7.92,0,0,0,3.47-1.74,5.57,5.57,0,0,0,1.79-3.39,4,4,0,0,0-4.78-4.62Z"></path>
        <polygon class="cls-5" points="59.09 11.91 1.94 30 58.54 52.54 111.47 30 59.09 11.91"></polygon>
        <path class="cls-6" d="M36.05,62.09c-1.61-1.71-4.54-1.58-6.54.3s-3.41,5.42-1.8,7.14,5.63,1,7.63-.93S37.66,63.81,36.05,62.09Z"></path>
        <path class="cls-7" d="M36.94,65.68a5.42,5.42,0,0,1-2,3.14,7.76,7.76,0,0,1-3.48,1.44,4.29,4.29,0,0,1-3.52-.74,3.34,3.34,0,0,1-.49-3.44,8.67,8.67,0,0,1,1.89-3.22A5.39,5.39,0,0,1,32.53,61a3.75,3.75,0,0,1,4.41,4.64ZM32.5,60.82A5.73,5.73,0,0,0,29,62.58a8.93,8.93,0,0,0-2,3.38,3.65,3.65,0,0,0,.65,3.79,4.59,4.59,0,0,0,3.79.78A7.93,7.93,0,0,0,35.05,69a5.55,5.55,0,0,0,2-3.28,4,4,0,0,0-4.53-4.88Z"></path>
        <path class="cls-6" d="M57.22,82.57c1.69-1.64,1.51-4.56-.39-6.54s-5.47-3.34-7.16-1.71-.88,5.65,1,7.62S55.52,84.2,57.22,82.57Z"></path>
        <path class="cls-7" d="M53.64,83.51a5.43,5.43,0,0,1-3.17-2A7.74,7.74,0,0,1,49,78.08a4.31,4.31,0,0,1,.7-3.53A3.3,3.3,0,0,1,53.11,74a8.42,8.42,0,0,1,3.25,1.84A5.42,5.42,0,0,1,58.22,79a3.74,3.74,0,0,1-4.58,4.47Zm4.8-4.5a5.74,5.74,0,0,0-1.81-3.45,9,9,0,0,0-3.41-1.93,3.66,3.66,0,0,0-3.78.7,4.6,4.6,0,0,0-.72,3.8,7.89,7.89,0,0,0,1.6,3.53,5.51,5.51,0,0,0,3.3,1.93,4.09,4.09,0,0,0,3.61-1A4.17,4.17,0,0,0,58.44,79Z"></path>
        <path class="cls-6" d="M34.06,78.58c1.38-1.9.7-4.75-1.52-6.37s-6-2.33-7.35-.43.12,5.71,2.34,7.32S32.68,80.48,34.06,78.58Z"></path>
        <path class="cls-7" d="M30.7,80.13a5.41,5.41,0,0,1-3.46-1.39,7.71,7.71,0,0,1-2.07-3.14,4.3,4.3,0,0,1,.08-3.6,3.3,3.3,0,0,1,3.28-1.12,8.56,8.56,0,0,1,3.52,1.25,5.43,5.43,0,0,1,2.39,2.8,3.75,3.75,0,0,1-3.74,5.2Zm3.94-5.27a5.72,5.72,0,0,0-2.37-3.08,9,9,0,0,0-3.7-1.3A3.65,3.65,0,0,0,25,71.83a4.57,4.57,0,0,0,0,3.86,7.88,7.88,0,0,0,2.19,3.2,5.54,5.54,0,0,0,3.59,1.33,4,4,0,0,0,3.94-5.36Z"></path>
        <polygon class="cls-8" points="13.37 49.29 15.51 74.05 20.51 76.19 18.37 52.62 13.37 49.29"></polygon>
        <polygon class="cls-8" points="22.66 76.91 27.11 78.89 26.23 45.24 20.51 42.86 22.66 76.91"></polygon>
        <polygon class="cls-9" points="59.15 0 59.09 11.91 97.9 25.24 112.9 18.96 59.15 0"></polygon>
        <path class="cls-6" d="M66,63.56c2.25-.68,3.42-3.37,2.62-6S65.28,52.11,63,52.8s-3.34,4.63-2.54,7.25S63.77,64.25,66,63.56Z"></path>
        <path class="cls-7" d="M62.4,62.78a5.43,5.43,0,0,1-1.92-3.19,7.74,7.74,0,0,1,.23-3.76A4.3,4.3,0,0,1,62.94,53a3.29,3.29,0,0,1,3.3,1.07A8.72,8.72,0,0,1,68.3,57.2a5.39,5.39,0,0,1,.21,3.67,3.74,3.74,0,0,1-6.11,1.91Zm6.32-1.84a5.69,5.69,0,0,0,0-3.88,9,9,0,0,0-2.17-3.27,3.64,3.64,0,0,0-3.68-1.09,4.55,4.55,0,0,0-2.37,3.06,7.93,7.93,0,0,0-.18,3.87,5.54,5.54,0,0,0,2.07,3.22,4.09,4.09,0,0,0,3.67.73A4.13,4.13,0,0,0,68.72,60.94Z"></path>
        <path class="cls-6" d="M81.74,82.36c1.39-1.89.72-4.75-1.5-6.37s-6-2.36-7.35-.46.1,5.71,2.32,7.33S80.35,84.26,81.74,82.36Z"></path>
        <path class="cls-7" d="M78.38,83.9a5.45,5.45,0,0,1-3.46-1.4,7.72,7.72,0,0,1-2.06-3.15,4.27,4.27,0,0,1,.09-3.6,3.31,3.31,0,0,1,3.29-1.11,8.67,8.67,0,0,1,3.51,1.26,5.35,5.35,0,0,1,2.37,2.82,4,4,0,0,1-.4,3.63A4.06,4.06,0,0,1,78.38,83.9Zm4-5.25A5.64,5.64,0,0,0,80,75.56a9.05,9.05,0,0,0-3.69-1.32,3.66,3.66,0,0,0-3.61,1.34,4.57,4.57,0,0,0-.06,3.86,7.86,7.86,0,0,0,2.17,3.21A5.55,5.55,0,0,0,78.37,84a4,4,0,0,0,4-5.34Z"></path>
        <path class="cls-6" d="M87.59,68.52c1.42-1.88.8-4.74-1.39-6.4s-5.92-2.45-7.34-.57,0,5.71,2.2,7.36S86.17,70.39,87.59,68.52Z"></path>
        <path class="cls-7" d="M84.21,70a5.44,5.44,0,0,1-3.44-1.46,7.74,7.74,0,0,1-2-3.17,4.3,4.3,0,0,1,.15-3.6,3.3,3.3,0,0,1,3.3-1.06A8.53,8.53,0,0,1,85.71,62,5.38,5.38,0,0,1,88,64.88,3.73,3.73,0,0,1,84.21,70Zm4-5.19a5.71,5.71,0,0,0-2.32-3.12,8.9,8.9,0,0,0-3.67-1.38,3.66,3.66,0,0,0-3.62,1.28,4.58,4.58,0,0,0-.13,3.86,8,8,0,0,0,2.13,3.25,5.56,5.56,0,0,0,3.57,1.39,4,4,0,0,0,4-5.28Z"></path>
        <path class="cls-6" d="M70,74.12c1.73-1.6,1.62-4.53-.24-6.55s-5.39-3.46-7.12-1.87-1,5.62.85,7.64S68.22,75.71,70,74.12Z"></path>
        <path class="cls-7" d="M66.36,75a5.45,5.45,0,0,1-3.12-2,7.69,7.69,0,0,1-1.41-3.49,4.28,4.28,0,0,1,.78-3.51,3.29,3.29,0,0,1,3.44-.45,8.6,8.6,0,0,1,3.21,1.91A5.41,5.41,0,0,1,71,70.61a4,4,0,0,1-1.1,3.49A4,4,0,0,1,66.36,75Zm4.9-4.39a5.7,5.7,0,0,0-1.72-3.49,9,9,0,0,0-3.37-2,3.62,3.62,0,0,0-3.79.62,4.52,4.52,0,0,0-.81,3.77,7.78,7.78,0,0,0,1.51,3.57,5.49,5.49,0,0,0,3.26,2,4,4,0,0,0,4.92-4.47Z"></path>
        <path class="cls-6" d="M62.2,84.63c-.18-2.35-2.55-4.08-5.29-3.87s-6,2.09-5.87,4.44,3.79,4.27,6.53,4.06S62.38,87,62.2,84.63Z"></path>
        <path class="cls-7" d="M60.65,88a5.44,5.44,0,0,1-3.54,1.19,7.79,7.79,0,0,1-3.61-1,4.28,4.28,0,0,1-2.27-2.79,3.28,3.28,0,0,1,1.77-3A8.4,8.4,0,0,1,56.49,81a5.35,5.35,0,0,1,3.63.58A3.74,3.74,0,0,1,60.65,88Zm-.42-6.56a5.69,5.69,0,0,0-3.8-.81A9.14,9.14,0,0,0,52.77,82a3.69,3.69,0,0,0-1.87,3.37,4.57,4.57,0,0,0,2.47,3,7.8,7.8,0,0,0,3.74,1,5.6,5.6,0,0,0,3.6-1.32,4,4,0,0,0-.48-6.63Z"></path>
        <polygon class="cls-10" points="113.14 18.72 59.39 41.51 59.13 53 111.71 29.76 113.14 18.72"></polygon>
        <polygon class="cls-4" points="59.03 52.3 59.03 98.18 107.99 73.42 111.96 29.76 59.03 52.3"></polygon>
        <polygon class="cls-9" points="0 17.04 59.15 0 59.09 11.91 1.94 30 0 17.04"></polygon>
        <polygon class="cls-10" points="0 17.04 1.94 30 59.13 53 59.39 41.51 0 17.04"></polygon>
      </g>
    </g>
  </g>
</svg>
