<?xml version="1.0" encoding="UTF-8"?>
<svg xmlns="http://www.w3.org/2000/svg" viewBox="0 0 89.4 86.59">
  <defs>
    <style>.cls-1{isolation:isolate;}.cls-2,.cls-3,.cls-4{fill:#8ebcd6;}.cls-10,.cls-2,.cls-4{mix-blend-mode:multiply;}.cls-10,.cls-4,.cls-9{opacity:0.4;}.cls-10,.cls-5,.cls-8,.cls-9{fill:#9ecee8;}.cls-6{fill:#402d22;}.cls-7{fill:#d2c9be;}.cls-8{mix-blend-mode:screen;}</style>
  </defs>
  <g class="cls-1">
    <g id="Слой_2" data-name="Слой 2">
      <g id="Слой_1-2" data-name="Слой 1">
        <polygon class="cls-2" points="46.74 32.99 89.21 14.98 84.19 67.63 46.74 86.59 46.74 32.99"></polygon>
        <polygon class="cls-3" points="1.53 23.71 46.26 41.52 46.74 86.59 6.26 67.53 1.53 23.71"></polygon>
        <polygon class="cls-4" points="1.53 23.71 5.62 60.08 46.63 41.64 46.69 9.41 1.53 23.71"></polygon>
        <polygon class="cls-5" points="5.62 60.08 46.63 41.64 84.94 58.2 46.26 77.77 5.62 60.08"></polygon>
        <path class="cls-6" d="M41,48a3.68,3.68,0,0,0-4.35-2.8c-2.15.3-4.68,1.94-4.42,3.78s3.19,3.19,5.34,2.89A3.67,3.67,0,0,0,41,48Z"></path>
        <path class="cls-7" d="M39.91,50.76a4.23,4.23,0,0,1-2.74,1.1,6.1,6.1,0,0,1-2.9-.65,3.4,3.4,0,0,1-1.92-2.1,2.6,2.6,0,0,1,1.25-2.43,6.92,6.92,0,0,1,2.69-1.22,4.28,4.28,0,0,1,2.9.3A3.15,3.15,0,0,1,41,48,3.24,3.24,0,0,1,39.91,50.76Zm-.64-5.16a4.51,4.51,0,0,0-3-.45,6.89,6.89,0,0,0-2.82,1.28,2.88,2.88,0,0,0-1.31,2.74,3.58,3.58,0,0,0,2.08,2.22,6.24,6.24,0,0,0,3,.63A4.34,4.34,0,0,0,40,50.81,3.23,3.23,0,0,0,41,48,3.3,3.3,0,0,0,39.27,45.6Z"></path>
        <path class="cls-6" d="M36.87,56.1a3.66,3.66,0,0,0-5.14.52c-1.5,1.57-2.46,4.42-1.12,5.71s4.49.5,6-1.07A3.67,3.67,0,0,0,36.87,56.1Z"></path>
        <path class="cls-7" d="M37.73,58.89a4.21,4.21,0,0,1-1.45,2.56,6,6,0,0,1-2.68,1.29,3.36,3.36,0,0,1-2.81-.43,2.63,2.63,0,0,1-.53-2.69A6.73,6.73,0,0,1,31.61,57a4.26,4.26,0,0,1,2.44-1.57,3,3,0,0,1,3.68,3.47ZM34,55.25a4.45,4.45,0,0,0-2.66,1.54A7.13,7.13,0,0,0,30,59.54a2.87,2.87,0,0,0,.68,3,3.59,3.59,0,0,0,3,.45,6.25,6.25,0,0,0,2.74-1.38A4.36,4.36,0,0,0,37.8,58.9,3.19,3.19,0,0,0,34,55.25Z"></path>
        <polygon class="cls-5" points="46.69 9.41 1.53 23.71 46.26 41.52 88.08 23.71 46.69 9.41"></polygon>
        <path class="cls-6" d="M28.48,49.06a3.68,3.68,0,0,0-5.17.24c-1.58,1.49-2.69,4.28-1.42,5.64s4.45.75,6-.73A3.68,3.68,0,0,0,28.48,49.06Z"></path>
        <path class="cls-7" d="M29.19,51.9a4.3,4.3,0,0,1-1.59,2.48,6.14,6.14,0,0,1-2.75,1.14,3.39,3.39,0,0,1-2.78-.59,2.6,2.6,0,0,1-.38-2.72,6.67,6.67,0,0,1,1.49-2.54,4.2,4.2,0,0,1,2.53-1.44,3,3,0,0,1,3.48,3.67Zm-3.51-3.84a4.51,4.51,0,0,0-2.74,1.39,7,7,0,0,0-1.56,2.67,2.89,2.89,0,0,0,.52,3,3.63,3.63,0,0,0,3,.61A6.35,6.35,0,0,0,27.7,54.5a4.39,4.39,0,0,0,1.56-2.59,3.19,3.19,0,0,0-3.58-3.85Z"></path>
        <path class="cls-6" d="M45.21,65.24a3.67,3.67,0,0,0-.31-5.16c-1.5-1.57-4.32-2.64-5.66-1.35s-.69,4.46.82,6A3.68,3.68,0,0,0,45.21,65.24Z"></path>
        <path class="cls-7" d="M42.38,66a4.3,4.3,0,0,1-2.5-1.57A6.15,6.15,0,0,1,38.7,61.7a3.39,3.39,0,0,1,.56-2.79A2.61,2.61,0,0,1,42,58.49a6.73,6.73,0,0,1,2.56,1.45A4.22,4.22,0,0,1,46,62.45,3,3,0,0,1,42.38,66Zm3.79-3.56a4.49,4.49,0,0,0-1.42-2.72,7,7,0,0,0-2.7-1.53,2.87,2.87,0,0,0-3,.56,3.56,3.56,0,0,0-.57,3,6.2,6.2,0,0,0,1.26,2.8,4.4,4.4,0,0,0,2.61,1.52,3.23,3.23,0,0,0,2.85-.8A3.27,3.27,0,0,0,46.17,62.43Z"></path>
        <path class="cls-6" d="M26.91,62.09a3.67,3.67,0,0,0-1.2-5c-1.75-1.28-4.71-1.85-5.8-.34s.09,4.51,1.85,5.79A3.67,3.67,0,0,0,26.91,62.09Z"></path>
        <path class="cls-7" d="M24.26,63.32a4.29,4.29,0,0,1-2.73-1.1,6,6,0,0,1-1.64-2.48A3.41,3.41,0,0,1,20,56.89,2.6,2.6,0,0,1,22.54,56a6.76,6.76,0,0,1,2.79,1,4.31,4.31,0,0,1,1.88,2.22,3,3,0,0,1-2.95,4.11Zm3.11-4.17a4.56,4.56,0,0,0-1.87-2.43,7.1,7.1,0,0,0-2.92-1,2.9,2.9,0,0,0-2.85,1.07,3.61,3.61,0,0,0,0,3.05,6.23,6.23,0,0,0,1.73,2.53,4.43,4.43,0,0,0,2.84,1,3.18,3.18,0,0,0,3.11-4.24Z"></path>
        <polygon class="cls-8" points="10.56 38.95 12.26 58.51 16.21 60.21 14.52 41.58 10.56 38.95"></polygon>
        <polygon class="cls-8" points="17.9 60.77 21.42 62.34 20.73 35.75 16.21 33.87 17.9 60.77"></polygon>
        <polygon class="cls-9" points="46.74 0 46.69 9.41 77.36 19.94 89.21 14.98 46.74 0"></polygon>
        <path class="cls-6" d="M52.16,50.23a3.68,3.68,0,0,0,2.07-4.75c-.63-2.07-2.65-4.31-4.43-3.76s-2.64,3.66-2,5.73A3.68,3.68,0,0,0,52.16,50.23Z"></path>
        <path class="cls-7" d="M49.31,49.61a4.26,4.26,0,0,1-1.52-2.53,6.06,6.06,0,0,1,.18-3,3.44,3.44,0,0,1,1.76-2.24,2.61,2.61,0,0,1,2.61.86A6.71,6.71,0,0,1,54,45.2a4.26,4.26,0,0,1,.17,2.9,3,3,0,0,1-4.83,1.51Zm5-1.45a4.59,4.59,0,0,0,0-3.08,7.11,7.11,0,0,0-1.71-2.58,2.9,2.9,0,0,0-2.92-.86,3.63,3.63,0,0,0-1.87,2.42,6.34,6.34,0,0,0-.14,3.06,4.39,4.39,0,0,0,1.64,2.54,3.18,3.18,0,0,0,5-1.5Z"></path>
        <path class="cls-6" d="M64.59,65.08a3.7,3.7,0,0,0-1.19-5c-1.75-1.28-4.71-1.86-5.8-.36s.08,4.51,1.83,5.8A3.68,3.68,0,0,0,64.59,65.08Z"></path>
        <path class="cls-7" d="M61.93,66.3a4.35,4.35,0,0,1-2.73-1.11,6.11,6.11,0,0,1-1.63-2.49,3.39,3.39,0,0,1,.07-2.84,2.6,2.6,0,0,1,2.6-.88A6.66,6.66,0,0,1,63,60a4.21,4.21,0,0,1,1.87,2.22,3.15,3.15,0,0,1-.32,2.87A3.21,3.21,0,0,1,61.93,66.3Zm3.13-4.16a4.52,4.52,0,0,0-1.87-2.43,6.94,6.94,0,0,0-2.92-1.05,2.89,2.89,0,0,0-2.85,1.06,3.62,3.62,0,0,0-.05,3.05,6.24,6.24,0,0,0,1.72,2.54,4.37,4.37,0,0,0,2.84,1,3.22,3.22,0,0,0,2.67-1.27A3.32,3.32,0,0,0,65.06,62.14Z"></path>
        <path class="cls-6" d="M69.21,54.14a3.68,3.68,0,0,0-1.1-5c-1.73-1.31-4.68-1.94-5.8-.46s0,4.51,1.74,5.82A3.68,3.68,0,0,0,69.21,54.14Z"></path>
        <path class="cls-7" d="M66.54,55.31a4.24,4.24,0,0,1-2.72-1.15,6,6,0,0,1-1.58-2.51,3.38,3.38,0,0,1,.11-2.84A2.6,2.6,0,0,1,65,48a6.67,6.67,0,0,1,2.76,1,4.27,4.27,0,0,1,1.85,2.25,3,3,0,0,1-3,4.05Zm3.19-4.1a4.52,4.52,0,0,0-1.83-2.47A7.15,7.15,0,0,0,65,47.65a2.87,2.87,0,0,0-2.86,1,3.58,3.58,0,0,0-.1,3,6.19,6.19,0,0,0,1.68,2.56,4.41,4.41,0,0,0,2.82,1.1,3.25,3.25,0,0,0,2.69-1.23A3.3,3.3,0,0,0,69.73,51.21Z"></path>
        <path class="cls-6" d="M55.28,58.56a3.69,3.69,0,0,0-.19-5.17c-1.47-1.59-4.26-2.73-5.63-1.47s-.79,4.44.68,6A3.68,3.68,0,0,0,55.28,58.56Z"></path>
        <path class="cls-7" d="M52.43,59.24A4.29,4.29,0,0,1,50,57.63a6.19,6.19,0,0,1-1.12-2.76,3.39,3.39,0,0,1,.62-2.77,2.6,2.6,0,0,1,2.72-.36,6.67,6.67,0,0,1,2.53,1.51,4.27,4.27,0,0,1,1.41,2.54,2.95,2.95,0,0,1-3.7,3.45Zm3.88-3.47A4.57,4.57,0,0,0,55,53a7.16,7.16,0,0,0-2.66-1.59,2.88,2.88,0,0,0-3,.49,3.55,3.55,0,0,0-.64,3,6.21,6.21,0,0,0,1.19,2.82,4.41,4.41,0,0,0,2.58,1.59,3.18,3.18,0,0,0,3.89-3.54Z"></path>
        <path class="cls-6" d="M49.15,66.87A3.68,3.68,0,0,0,45,63.82c-2.16.16-4.78,1.65-4.64,3.5s3,3.37,5.16,3.21A3.69,3.69,0,0,0,49.15,66.87Z"></path>
        <path class="cls-7" d="M47.92,69.52a4.3,4.3,0,0,1-2.79.94,6.15,6.15,0,0,1-2.86-.83,3.37,3.37,0,0,1-1.79-2.2,2.59,2.59,0,0,1,1.4-2.36,6.7,6.7,0,0,1,2.75-1,4.22,4.22,0,0,1,2.87.46,3,3,0,0,1,.42,5Zm-.33-5.19a4.5,4.5,0,0,0-3-.63,7,7,0,0,0-2.89,1.1,2.9,2.9,0,0,0-1.48,2.66,3.6,3.6,0,0,0,2,2.35,6.26,6.26,0,0,0,3,.81A4.41,4.41,0,0,0,48,69.57a3.19,3.19,0,0,0-.38-5.24Z"></path>
        <polygon class="cls-10" points="89.4 14.79 46.93 32.8 46.72 41.88 88.27 23.52 89.4 14.79"></polygon>
        <polygon class="cls-4" points="46.64 41.33 46.64 77.58 85.33 58.01 88.47 23.52 46.64 41.33"></polygon>
        <polygon class="cls-9" points="0 13.46 46.74 0 46.69 9.41 1.53 23.71 0 13.46"></polygon>
        <polygon class="cls-10" points="0 13.46 1.53 23.71 46.72 41.88 46.93 32.8 0 13.46"></polygon>
      </g>
    </g>
  </g>
</svg>
