<?xml version="1.0" encoding="UTF-8"?>
<svg xmlns="http://www.w3.org/2000/svg" viewBox="0 0 229.59 156.65">
  <defs>
    <style>.cls-1{opacity:0.5;}.cls-2{fill:#f0f7fd;stroke-width:0.17px;opacity:0.83;}.cls-2,.cls-4,.cls-5{stroke:#77aad5;stroke-miterlimit:10;}.cls-3{fill:#d0e6f6;}.cls-4,.cls-5{fill:none;}.cls-4{stroke-width:1.93px;}.cls-5{stroke-width:1.84px;}</style>
  </defs>
  <g id="Слой_2" data-name="Слой 2">
    <g id="Слой_1-2" data-name="Слой 1">
      <g class="cls-1">
        <path class="cls-2" d="M113.43,1.84,9,37.49a12.78,12.78,0,0,0-8.6,12.1V150.32H229.16V49.37a12.76,12.76,0,0,0-8.31-12L124.75,2A16.92,16.92,0,0,0,113.43,1.84Z"></path>
        <path class="cls-3" d="M157.3,149H82.7c-.68,0-1.24-1-1.24-2.27V115.34c0-1.25.55-2.26,1.23-2.26H157.3c.68,0,1.23,1,1.23,2.27v31.36C158.53,148,158,149,157.3,149Zm71.86-35.89v-2.66H1.08v2.66H79.32c.68,0,1.23,1,1.23,2.27v31.34c0,1.26-.55,2.28-1.24,2.28H1.08v7.64H229.16V149H160.68c-.68,0-1.23-1-1.23-2.27V115.35c0-1.25.55-2.27,1.23-2.27Z"></path>
        <line class="cls-4" x1="228.67" y1="82.16" x2="1.08" y2="82.16"></line>
        <path class="cls-5" d="M228.67,156.65v-102a14.42,14.42,0,0,0-14.42-14.41H15.33A14.41,14.41,0,0,0,.92,54.68V50.59a14.42,14.42,0,0,1,9.77-13.65L114.29,1.69a14.47,14.47,0,0,1,9.61.11l95.32,35a14.41,14.41,0,0,1,9.45,13.53Z"></path>
      </g>
    </g>
  </g>
</svg>
