<?xml version="1.0" encoding="UTF-8"?>
<svg xmlns="http://www.w3.org/2000/svg" viewBox="0 0 106.81 156.09">
  <defs>
    <style>.cls-1{fill:#a8a7a8;}.cls-2{fill:#a79677;}.cls-3{fill:#bfaa86;}.cls-4{fill:#95876b;}.cls-5{fill:#af997c;opacity:0.25;}.cls-6{fill:#a09274;}.cls-7{fill:#837660;}.cls-8{fill:#795e32;}.cls-9{fill:#977a4a;}.cls-10{fill:#5c4722;}.cls-11{fill:#e3e0c9;}.cls-12{fill:#f9eacb;}.cls-13{fill:#d2c7a7;}.cls-14{fill:#877e75;}</style>
  </defs>
  <g id="Слой_2" data-name="Слой 2">
    <g id="Слой_1-2" data-name="Слой 1">
      <polygon class="cls-1" points="92.25 142.76 92.31 142.67 92.22 142.67 92.25 142.76"></polygon>
      <polygon class="cls-2" points="53.48 85.82 106.81 63.12 98.81 124.52 53.48 156.09 53.48 85.82"></polygon>
      <polygon class="cls-3" points="8 124.52 0 63.12 53.48 85.82 53.48 156.09 8 124.52"></polygon>
      <polygon class="cls-4" points="53.48 85.82 106.81 63.12 98.81 124.52 53.48 156.09 53.48 85.82"></polygon>
      <polygon class="cls-5" points="8 124.52 0 63.12 53.48 85.82 53.48 156.09 8 124.52"></polygon>
      <polygon class="cls-6" points="53.48 156.09 8 124.52 53.69 107.26 98.81 124.52 53.48 156.09"></polygon>
      <path class="cls-7" d="M17.66,97.53a16.43,16.43,0,0,1-1.38-8.91,14.14,14.14,0,0,1,3.95-8.24,19.57,19.57,0,0,1,7.85-4.67A33.44,33.44,0,0,1,37,74.12c-.73.16-1.47.32-2.2.46s-1.45.37-2.17.55-1.43.41-2.15.61-1.4.49-2.09.76A21.22,21.22,0,0,0,21,81.14a14.48,14.48,0,0,0-3.9,7.61,17.41,17.41,0,0,0-.23,4.39A16.87,16.87,0,0,0,17.66,97.53Z"></path>
      <path class="cls-7" d="M67.36,96.68c.14.23.44.31.68.43s.5.22.76.31c.51.2,1,.38,1.55.54,1,.35,2.1.65,3.15,1,2.12.57,4.25,1.09,6.39,1.51,4.3.88,8.64,1.45,13,2a48.34,48.34,0,0,1-13.25-.89,48.91,48.91,0,0,1-6.43-1.77q-1.57-.56-3.09-1.26c-.51-.25-1-.5-1.49-.77A3.63,3.63,0,0,1,67.36,96.68Z"></path>
      <path class="cls-7" d="M38.71,93.48a39.08,39.08,0,0,1-3.53,11.78A33.84,33.84,0,0,1,32,110.57a20.25,20.25,0,0,1-4.43,4.29,36.25,36.25,0,0,0,3.74-4.78,55.49,55.49,0,0,0,2.92-5.29c.89-1.82,1.66-3.68,2.42-5.57S38.06,95.42,38.71,93.48Z"></path>
      <path class="cls-7" d="M55.25,142.35c2.18-1.07,4.43-1.91,6.63-2.87s4.37-1.92,6.48-3a42,42,0,0,0,6-3.76,17.16,17.16,0,0,0,4.75-5.24,13.82,13.82,0,0,1-4.21,5.9,31.5,31.5,0,0,1-6.06,4.07,55.16,55.16,0,0,1-6.68,2.85c-1.14.4-2.3.76-3.45,1.1Z"></path>
      <path class="cls-7" d="M30.24,135.61a15.54,15.54,0,0,1-3.46-2.19,8.47,8.47,0,0,1-2.5-3.37,4.77,4.77,0,0,1-.3-2.19,5.37,5.37,0,0,1,.66-2.11,10.05,10.05,0,0,1,2.89-3.12A28.24,28.24,0,0,1,34.91,119a55.61,55.61,0,0,1,7.9-2.06c-2.56.92-5.11,1.83-7.6,2.85a33.8,33.8,0,0,0-7,3.75,9.29,9.29,0,0,0-2.64,2.74,4.3,4.3,0,0,0-.45,3.53A8.24,8.24,0,0,0,27.15,133,18.32,18.32,0,0,0,30.24,135.61Z"></path>
      <path class="cls-7" d="M79.14,95.44l4-5.47c1.3-1.82,2.58-3.67,3.79-5.55a57.45,57.45,0,0,0,3.35-5.78,19,19,0,0,0,2.1-6.32A14.42,14.42,0,0,1,91,79a36.56,36.56,0,0,1-3.21,6A56.47,56.47,0,0,1,79.14,95.44Z"></path>
      <polygon class="cls-1" points="51.53 120.61 51.58 120.52 51.49 120.51 51.53 120.61"></polygon>
      <path class="cls-8" d="M51.4,94c-.45-.81-.84-1.63-1.23-2.45s-.75-1.65-1.08-2.49a6.24,6.24,0,0,1-.91-2.52A5.37,5.37,0,0,1,49,83.63l.32-.08a4.74,4.74,0,0,1,1.26,1.08,5.07,5.07,0,0,1,.78,1.19,6.27,6.27,0,0,1,.27,2.67c.06.89.1,1.79.11,2.7s0,1.82-.05,2.74Z"></path>
      <path class="cls-8" d="M52.29,72.32c-.62,11.24-3,22.32-8.11,32.49-1.63,3.23,3.23,6.09,4.87,2.84a88.24,88.24,0,0,0,8.86-34.72Z"></path>
      <ellipse class="cls-9" cx="46.35" cy="107.11" rx="1.65" ry="2.61" transform="translate(-69.96 116.82) rotate(-71.38)"></ellipse>
      <path class="cls-10" d="M57.25,72.86c0,1-.11,2-.2,3s-.2,2.28-.33,3.41a91.39,91.39,0,0,1-2.38,13.46,62.58,62.58,0,0,1-2,6.54c-.43,1-.81,2.14-1.28,3.18l-1.49,3.1.13.07A51.08,51.08,0,0,0,55.3,93a85.85,85.85,0,0,0,2.83-13.57c.26-2.12.45-4.26.57-6.39Z"></path>
      <path class="cls-9" d="M53.18,72.42c-.87,12.87-3.39,26-7.9,31.62,0,0,.76-.36,2.48.58,0,0,5.71-12.29,7.07-32Z"></path>
      <polygon class="cls-11" points="53.48 47.77 106.81 63.12 53.48 85.82 0 63.12 53.48 47.77"></polygon>
      <polygon class="cls-12" points="53.48 47.77 0 63.12 0.94 63.52 106.31 62.98 53.48 47.77"></polygon>
      <path class="cls-13" d="M33.61,63.87a30.52,30.52,0,0,1,2.53-2.69,23.32,23.32,0,0,1,2.94-2.28,29.57,29.57,0,0,1,6.69-3.25A34.83,34.83,0,0,1,53,54.13c1.22-.16,2.47-.13,3.69-.19s2.47.11,3.69.21c-1.23.15-2.45.19-3.66.32s-2.42.27-3.61.5-2.39.4-3.55.73-2.33.64-3.49,1a37.33,37.33,0,0,0-6.59,2.94A36.74,36.74,0,0,0,33.61,63.87Z"></path>
      <polygon class="cls-12" points="0.94 63.52 53.48 85.82 106.81 63.12 106.31 62.98 0.94 63.52"></polygon>
      <ellipse class="cls-2" cx="55.17" cy="64.19" rx="12.32" ry="4.82"></ellipse>
      <ellipse class="cls-14" cx="55.48" cy="65.81" rx="10.15" ry="3.97"></ellipse>
      <path class="cls-8" d="M60.1,49.47A8.36,8.36,0,0,1,60,52.13a12.22,12.22,0,0,1-.73,2.41,12.49,12.49,0,0,1-1.2,2.21,8.12,8.12,0,0,1-1.82,2A8.12,8.12,0,0,1,56.36,56a12.33,12.33,0,0,1,.73-2.4,12.15,12.15,0,0,1,1.2-2.21A8.27,8.27,0,0,1,60.1,49.47Z"></path>
      <path class="cls-8" d="M54.12,22a4.42,4.42,0,0,1-1.44-.72,5.26,5.26,0,0,1-1-1,6.88,6.88,0,0,1-1-2.59A24.62,24.62,0,0,1,49.9,15a25.34,25.34,0,0,1-.42-2.75l.26-.09,1.47,2.31,1.45,2.24a8.27,8.27,0,0,1,1.45,2.21,6.24,6.24,0,0,1,.28,1.34,5.29,5.29,0,0,1,0,1.58Z"></path>
      <path class="cls-8" d="M58.57,57.25C58.39,49,57.06,40.81,57,32.56c-.11-9.73,1.19-19.4,2.5-29C60,0,54.51-1.54,54,2a252.1,252.1,0,0,0-2.63,25.25c-.31,8.53.88,16.89,1.36,25.38a123.34,123.34,0,0,1,0,13.46l5.62.6Q58.67,62,58.57,57.25Z"></path>
      <path class="cls-10" d="M58.33,50.34l.07,0,.11.06a.45.45,0,0,1,.17.26v-.3l0-.17-.16.07C58.4,50.33,58.27,50.34,58.33,50.34Z"></path>
      <polygon class="cls-10" points="59.09 2 59.08 2.05 59.11 2.09 59.09 2"></polygon>
      <path class="cls-10" d="M60.84,50l0,0h0a.37.37,0,0,1-.16,0,.45.45,0,0,1-.3,0c-.14-.08-.13-.09-.16-.12l-.05-.07a3.63,3.63,0,0,1,.09.69s0,0,0,0l.26-.24Z"></path>
      <path class="cls-10" d="M59.38,59.38c0-1.15,0-2.31-.08-3.45v-.35s0,0,0-.06l.06-.14c.1-.21.24-.45.38-.69.29-.48.6-1,.89-1.51a8.07,8.07,0,0,0,.72-1.72,3.19,3.19,0,0,0,.12-1.05,4.8,4.8,0,0,0-.18-1,.71.71,0,0,0-.13-.26.77.77,0,0,0-.24-.2.61.61,0,0,0-.4-.06.71.71,0,0,0-.26.09l-.1.07a.81.81,0,0,0-.13.12l-.31.31a3.56,3.56,0,0,1-.57.47c-.15.09-.33.19-.5.27l0,.17v.3h0c0,.16,0,.1,0,.14v-.15a.45.45,0,0,0-.17-.26l-.11-.06-.07,0c-.06,0,.07,0,.17-.06l.16-.07s0-.06,0-.09l0-.37c0-.24-.07-.49-.1-.74l-.16-1.51-.29-3c-.18-2-.35-4-.49-6.06-.27-4-.6-8.12-.53-12.13.23-4,.65-8.09,1-12.13L59.33,2V2l0,0-.41-.48A4.81,4.81,0,0,0,58.42,1a2,2,0,0,0-1.2-.42A2,2,0,0,0,56,1.06a3.43,3.43,0,0,0-.86.92l.12.07A2.56,2.56,0,0,1,57.22.81a1.89,1.89,0,0,1,1.08.4c.15.12.29.27.44.4l.34.44V2l0,.09,0,0L57.57,14.1c-.47,4-1,8.06-1.29,12.14-.13,4.11.14,8.16.34,12.23q.18,3,.4,6.09l.24,3,.15,1.53c0,.25.05.51.08.77l0,.39.05.24c0-.07,0-.13.08-.21l0,.45-.06-.24a1.09,1.09,0,0,0,0,.34.71.71,0,0,0,.28.46.77.77,0,0,0,.21.1l.17,0a1.5,1.5,0,0,0,.67-.12,4.69,4.69,0,0,0,.87-.43,4.74,4.74,0,0,0,.51-.37s0,0,0,0a3.63,3.63,0,0,0-.09-.69l.05.07s0,0,.16.12a.45.45,0,0,0,.3,0,.37.37,0,0,0,.16,0h0l0,0-.3.29-.26.24a2.73,2.73,0,0,1-.09.6,7,7,0,0,1-.65,1.43c-.27.48-.57,1-.88,1.45a8.45,8.45,0,0,0-.47.8,2.5,2.5,0,0,0-.2.62V56c0,1.16,0,2.29,0,3.44q0,3.42-.22,6.84l0,.43,1.45.16C59.34,64.34,59.41,61.86,59.38,59.38Z"></path>
      <path class="cls-10" d="M57.67,50.32c0,.08-.06.14-.08.21l.06.24Z"></path>
      <path class="cls-9" d="M54.47,41.2s-2.75-4.94,0-38.41c0,0-4.24,24.17-1.6,37.79,1.15,5.94,1.47,15.7.8,25.64l1.65.18A123.4,123.4,0,0,0,54.47,41.2Z"></path>
    </g>
  </g>
</svg>
