<?xml version="1.0" encoding="UTF-8"?>
<svg xmlns="http://www.w3.org/2000/svg" xmlns:xlink="http://www.w3.org/1999/xlink" viewBox="0 0 110.57 126.97">
  <defs>
    <style>.cls-1{fill:none;}.cls-2{fill:#956d4b;}.cls-3{clip-path:url(#clip-path);}.cls-4{fill:url(#Безымянный_градиент_4);}.cls-5{fill:#754120;}.cls-6{fill:#44281c;}.cls-7{fill:#6c3c1d;}.cls-8{fill:#714d31;}.cls-9{fill:#613822;}.cls-10{fill:#7f5637;}.cls-11{fill:#a07850;}.cls-12{fill:#772f46;}.cls-13{fill:#8b5b3c;}.cls-14{fill:url(#Безымянный_градиент_2);}.cls-15{fill:#613922;}</style>
    <clipPath id="clip-path">
      <polygon class="cls-1" points="7.92 98.3 57.88 121.81 104.11 98.41 56.05 78.05 7.92 98.3"></polygon>
    </clipPath>
    <linearGradient id="Безымянный_градиент_4" x1="-3390.95" y1="-717.97" x2="-3388.15" y2="-717.97" gradientTransform="matrix(34.36, 0, 0, -34.36, 116496.64, -24566.95)" gradientUnits="userSpaceOnUse">
      <stop offset="0" stop-color="#a17551"></stop>
      <stop offset="0.38" stop-color="#a17551"></stop>
      <stop offset="0.89" stop-color="#7a4928"></stop>
      <stop offset="1" stop-color="#72401f"></stop>
    </linearGradient>
    <linearGradient id="Безымянный_градиент_2" x1="56.83" y1="32.76" x2="56.33" y2="11.91" gradientUnits="userSpaceOnUse">
      <stop offset="0" stop-color="#d3e0a7"></stop>
      <stop offset="1" stop-color="#85a93c"></stop>
    </linearGradient>
  </defs>
  <g id="Слой_2" data-name="Слой 2">
    <g id="Слой_1-2" data-name="Слой 1">
      <path class="cls-2" d="M57.88,55.66S67.51,67,74.94,67.42s32.81-7.56,32.81-7.56l2.56-26.43L57.88,14.94Z"></path>
      <path class="cls-2" d="M.19,31.55,5.42,66S24,68.82,27.25,67.89s18.12-6.51,22.3-6.51,8.33-5.72,8.33-5.72V14.93Z"></path>
      <g class="cls-3">
        <rect class="cls-4" x="31.58" y="50.73" width="48.87" height="98.4" transform="translate(-46.78 150.5) rotate(-86.92)"></rect>
      </g>
      <path class="cls-5" d="M7.92,98.3,5.42,66s23.69-.46,30.2-3.72,22.26-6.65,22.26-6.65L56.05,78.05Z"></path>
      <path class="cls-6" d="M41.68,68a8.52,8.52,0,0,0-2.83-1.67h0S35.08,65.21,33,67.76s-1.7,5.29-.77,5.73a11.08,11.08,0,0,0,1.63.34l.1,0a28,28,0,0,0,3.5-.8,1.86,1.86,0,0,0,.61-.15l.65-.19c1.48-.46,1.66-.13,2.69-1a4,4,0,0,0,1.08-2.55l-.21-.5h0l0,0a1,1,0,0,0-.59-.51"></path>
      <path class="cls-6" d="M21.4,71.36a11,11,0,0,0-4,1.33v0s-4.3,2.69-3.59,6.84,3.66,6.13,4.88,5.6a13.64,13.64,0,0,0,1.71-1.28l0-.13c.92-1,1.6-3.16,2.21-4.06a2.18,2.18,0,0,0,.36-.72c.1-.2.21-.42.37-.78.81-1.82,1.28-1.72,1.29-3.46a5.12,5.12,0,0,0-1.54-3.21,3.47,3.47,0,0,0-.65-.22v0h-.07a1.3,1.3,0,0,0-1,.14"></path>
      <path class="cls-7" d="M57.88,55.66,56.05,78.05l48.06,20.36,3.64-38.55s-15-1.73-21.48-.8S68.44,62.78,65,60.92a45.07,45.07,0,0,1-7.15-5.26"></path>
      <path class="cls-6" d="M39.58,78.66a3.48,3.48,0,0,0-1.25-.31h0a2.31,2.31,0,0,0-2,1.19c-.49,1.18,0,2.17.35,2.24l.65-.06,0,0A10.61,10.61,0,0,0,38.55,81l.21-.13.23-.15c.5-.33.61-.23.89-.68A1.52,1.52,0,0,0,40,79l-.13-.16h0v0Z"></path>
      <path class="cls-6" d="M86.66,69a2.3,2.3,0,0,0-.11-.89h0s-.38-1-1.27-1-1.43.5-1.37.78l.2.41h0l.75.63L85,69l.14.11c.35.24.31.34.67.41a1,1,0,0,0,.73-.19l.07-.12h0V69Z"></path>
      <path class="cls-6" d="M100.09,85.21a11,11,0,0,0-1.91-3.82h0s-3.31-3.91-7.35-2.6-5.6,4.54-4.89,5.68A13.64,13.64,0,0,0,87.5,86l.13,0c1.19.76,3.39,1.13,4.37,1.61a2.24,2.24,0,0,0,.77.26l.84.26c1.94.54,1.9,1,3.64.78a5.15,5.15,0,0,0,3-2,3,3,0,0,0,.13-.69h0v-.08a1.29,1.29,0,0,0-.28-1"></path>
      <path class="cls-6" d="M74,71.92a8.37,8.37,0,0,0-1.87,2.69v0s-1.4,3.67,1,5.9,5.11,2.08,5.62,1.19a11,11,0,0,0,.46-1.59l0-.1a27.85,27.85,0,0,0-.52-3.53,1.8,1.8,0,0,0-.11-.61c0-.17-.07-.36-.14-.66-.34-1.5,0-1.65-.81-2.74a4,4,0,0,0-2.44-1.26l-.51.17v0l0,0a1,1,0,0,0-.54.54"></path>
      <path class="cls-8" d="M74.15,99.3a1.59,1.59,0,0,0,1.57-.42c.54-.69.43-1.43.17-1.54l-.44-.09c-.29,0-.32.69-.33.71Z"></path>
      <path class="cls-9" d="M73.21,98.72s.88.79,1.24.55a8.71,8.71,0,0,1,.8-.46l0-.24-1-.32-.57.19Z"></path>
      <path class="cls-10" d="M73.15,98.58c0,.11.12.36.4.27a4.65,4.65,0,0,0,.53-.22l.32-1c.07-.14.15-.19-.25-.06s-.45.05-.72.29a1.09,1.09,0,0,0-.28.69"></path>
      <path class="cls-11" d="M74.08,98.63a4.61,4.61,0,0,0,.12-.7c0-.31,0-.39.29-.43s.83-.33,1.1-.22.26.08.26.44a1.22,1.22,0,0,1-.38.86.71.71,0,0,1-.76.33,1.79,1.79,0,0,1-.63-.28"></path>
      <path class="cls-8" d="M63.47,93.17s2.39.13,3.24-1.66S67,88.15,66.35,88a6.11,6.11,0,0,0-1,0c-.65,0-.37,1.66-.39,1.7Z"></path>
      <path class="cls-9" d="M61.12,92.35s2.3,1.32,3,.62a19.37,19.37,0,0,1,1.53-1.4l-.16-.52a7.19,7.19,0,0,0-2.26-.25c-.37.2-1,.62-1.16.69Z"></path>
      <path class="cls-10" d="M60.93,92.08c.11.2.44.73,1,.4a9.74,9.74,0,0,0,1-.75s.19-1.94.26-2.29.23-.48-.58,0-1,.31-1.44,1a2.41,2.41,0,0,0-.28,1.66"></path>
      <path class="cls-11" d="M63,91.73a11.05,11.05,0,0,0,0-1.59c-.09-.7-.15-.87.42-1.09s1.68-1.12,2.33-1,.6.06.77.84A2.89,2.89,0,0,1,66,91,1.6,1.6,0,0,1,64.51,92,4.2,4.2,0,0,1,63,91.73"></path>
      <path class="cls-8" d="M53.51,100.94s1.87,1.42,3.54.43,2.05-2.58,1.62-3a7.68,7.68,0,0,0-.83-.53c-.56-.33-1.22,1.15-1.25,1.16Z"></path>
      <path class="cls-9" d="M52.06,99s1.14,2.33,2.08,2.14,2-.3,2-.3l.15-.51S55,98.93,54.61,98.89s-1.15,0-1.32-.08Z"></path>
      <path class="cls-10" d="M52.06,98.67c0,.23-.05.83.58.86a8.3,8.3,0,0,0,1.26,0l1.46-1.7c.25-.25.45-.28-.47-.33s-1-.27-1.7,0a2.36,2.36,0,0,0-1.13,1.19"></path>
      <path class="cls-11" d="M53.9,99.5a11.08,11.08,0,0,0,.83-1.31c.31-.61.35-.79.93-.65s2,0,2.44.44.45.38.17,1.11a2.81,2.81,0,0,1-1.49,1.47,1.58,1.58,0,0,1-1.81,0,4,4,0,0,1-1.07-1.1"></path>
      <path class="cls-8" d="M49.22,94.51a2.68,2.68,0,0,0,.09-2.73c-.86-1.21-2.1-1.39-2.41-1l-.35.67c-.21.45,1,.85,1,.88Z"></path>
      <path class="cls-9" d="M47.82,95.74s1.7-1,1.49-1.73A15.08,15.08,0,0,1,49,92.5l-.4-.08s-1,1.08-1,1.39,0,.87,0,1Z"></path>
      <path class="cls-10" d="M47.58,95.76c.18,0,.64,0,.62-.5a6,6,0,0,0-.11-1l-1.4-1c-.2-.17-.23-.32-.21.38s-.15.74.12,1.3a1.75,1.75,0,0,0,1,.78"></path>
      <path class="cls-11" d="M48.09,94.3A7.93,7.93,0,0,0,47,93.76c-.48-.2-.62-.22-.55-.67s-.12-1.51.18-1.89.26-.37.83-.2a2.14,2.14,0,0,1,1.22,1,1.18,1.18,0,0,1,.14,1.38,3,3,0,0,1-.76.88"></path>
      <path class="cls-8" d="M40.75,96.52a1.17,1.17,0,0,0,.39-1.12c-.21-.61-.7-.84-.87-.74L40,94.9l.29.48Z"></path>
      <path class="cls-9" d="M40,96.85s.84-.21.84-.52a5.52,5.52,0,0,1,0-.67l-.16-.09-.58.45-.12.42Z"></path>
      <path class="cls-10" d="M39.91,96.83l.32-.13.08-.41-.45-.59c-.06-.1-.06-.17-.14.13s-.15.29-.12.55a.8.8,0,0,0,.31.45"></path>
      <path class="cls-11" d="M40.31,96.29l-.37-.36-.15-.35.32-.76.37,0a.91.91,0,0,1,.37.59.51.51,0,0,1-.11.59Z"></path>
      <path class="cls-8" d="M38.15,101.19s1.64-2.64.14-4.73-3.66-2.38-4.19-1.76a8,8,0,0,0-.6,1.16c-.37.77,1.66,1.46,1.69,1.51Z"></path>
      <path class="cls-9" d="M35.75,103.35s2.94-1.8,2.57-3a26.63,26.63,0,0,1-.64-2.62L37,97.58S35.3,99.46,35.3,100s.08,1.51.06,1.75Z"></path>
      <path class="cls-10" d="M35.32,103.38c.31,0,1.1,0,1.08-.87a11.58,11.58,0,0,0-.2-1.66s-2.08-1.41-2.43-1.72-.41-.56-.37.66-.25,1.29.22,2.24a3.06,3.06,0,0,0,1.7,1.35"></path>
      <path class="cls-11" d="M36.2,100.85a14.53,14.53,0,0,0-1.83-.93c-.85-.33-1.09-.37-1-1.16s-.22-2.61.29-3.28.45-.64,1.44-.34a3.69,3.69,0,0,1,2.12,1.78,2.07,2.07,0,0,1,.28,2.38,5.3,5.3,0,0,1-1.32,1.55"></path>
      <path class="cls-12" d="M50.72,53.45a3.82,3.82,0,0,0,5.17,1.45c2-1,4-3.36,3.24-5.11S55,47.61,52.94,48.56A3.82,3.82,0,0,0,50.72,53.45Z"></path>
      <path class="cls-12" d="M50.73,53.45a3.3,3.3,0,0,0,2.46,1.72,4.44,4.44,0,0,0,3-.59,7.12,7.12,0,0,0,2.3-2,2.72,2.72,0,0,0,.5-2.8,3.54,3.54,0,0,0-2.56-1.49,6.27,6.27,0,0,0-3.07.24,4.45,4.45,0,0,0-2.38,1.93A3.35,3.35,0,0,0,50.73,53.45Zm0,0a3.4,3.4,0,0,1,.18-3.07,4.56,4.56,0,0,1,2.38-2,6.44,6.44,0,0,1,3.17-.29,3.72,3.72,0,0,1,2.75,1.57,2.26,2.26,0,0,1,.21,1.63,4.46,4.46,0,0,1-.67,1.49,7.36,7.36,0,0,1-2.41,2.13,4.68,4.68,0,0,1-3.15.48A3.39,3.39,0,0,1,50.7,53.46Z"></path>
      <path class="cls-12" d="M57.88,49.68a2.17,2.17,0,0,1,1.38.46A2.3,2.3,0,0,1,60,51.27a4.7,4.7,0,0,1,0,2.17,15,15,0,0,1-1.31,3.61c-1.11,2.28-2.45,4.27-3.17,6.56a16.73,16.73,0,0,0-.76,3.49A13.79,13.79,0,0,0,55,70.67a8.71,8.71,0,0,0,3.8,5.84h0a.13.13,0,0,1,.05.17.12.12,0,0,1-.16,0,9.09,9.09,0,0,1-4.27-5.93,14.33,14.33,0,0,1-.35-3.75,16.75,16.75,0,0,1,.63-3.71c.64-2.44,2-4.63,2.9-6.8a14.22,14.22,0,0,0,1-3.33,3.36,3.36,0,0,0-.05-1.47.78.78,0,0,0-.26-.37.61.61,0,0,0-.33-.1h0a.8.8,0,1,1-.17-1.59Z"></path>
      <polygon class="cls-13" points="0 31.86 57.93 57.37 110.57 33.84 57.93 14.27 0 31.86"></polygon>
      <path class="cls-14" d="M55.48,34.87s-.4,1.72.86.53,1.46-6,1.33-7.43-.79-3.26,0-4.91,4.08-11.75,2.55-17.59c0,0-1-3-1.59,0S59.54,9.05,58,13s-1,5.17-1.36,5.3-.87-1.46-.67-2.52S55.81,7.2,55.81,5a7.1,7.1,0,0,1,1.07-3.92c.39-.79-.06-1.86-1.46-.26S50,9.85,53,18.74s3,6.64,3.27,9.89A17.24,17.24,0,0,1,55.48,34.87Z"></path>
      <path class="cls-8" d="M51.52,42.08a1.12,1.12,0,0,0-1.07-.4c-.59.19-.82.65-.72.82a1.13,1.13,0,0,0,.22.23c.14.14.46-.27.47-.27Z"></path>
      <path class="cls-15" d="M51.82,42.79s-.18-.81-.49-.82-.64,0-.64,0l-.09.14s.3.53.43.57.35.1.4.12A2.05,2.05,0,0,0,51.82,42.79Z"></path>
      <path class="cls-10" d="M51.8,42.89c0-.07.08-.26-.12-.31a2.93,2.93,0,0,0-.39-.09s-.48.37-.58.43-.16,0,.12.13.28.16.53.12A.73.73,0,0,0,51.8,42.89Z"></path>
      <path class="cls-11" d="M51.29,42.49a3.43,3.43,0,0,0-.35.35c-.14.17-.17.22-.34.13s-.61-.14-.73-.31-.11-.15,0-.36a.92.92,0,0,1,.57-.34.49.49,0,0,1,.57.12A1.27,1.27,0,0,1,51.29,42.49Z"></path>
      <path class="cls-8" d="M49.09,28.4a1.64,1.64,0,0,0-1.65-.24c-.79.44-1,1.18-.79,1.4.06.05.26.17.39.25s.57-.52.59-.53Z"></path>
      <path class="cls-15" d="M49.75,29.32s-.51-1.1-1-1a7.81,7.81,0,0,1-.94.12l-.08.24s.59.66.78.69.53,0,.61,0A5.43,5.43,0,0,0,49.75,29.32Z"></path>
      <path class="cls-10" d="M49.75,29.47c0-.1,0-.38-.27-.41a4,4,0,0,0-.59,0s-.58.67-.7.78-.21.12.22.16.44.13.79,0A1.1,1.1,0,0,0,49.75,29.47Z"></path>
      <path class="cls-11" d="M48.89,29.07a5.07,5.07,0,0,0-.4.6c-.15.29-.17.37-.44.3s-.93,0-1.14-.24-.2-.18-.06-.52a1.3,1.3,0,0,1,.71-.67.73.73,0,0,1,.84,0A1.93,1.93,0,0,1,48.89,29.07Z"></path>
      <path class="cls-8" d="M45.82,33.42s-3.41-1.71-5.79.37-2.5,4.74-1.68,5.32a9.79,9.79,0,0,0,1.49.59c1,.37,1.59-2.19,1.65-2.23S45.82,33.42,45.82,33.42Z"></path>
      <path class="cls-15" d="M48.73,36.1s-2.53-3.38-4-2.79-3.12,1.07-3.12,1.07l-.1.86S44,37.09,44.69,37s1.84-.27,2.13-.27A14.24,14.24,0,0,0,48.73,36.1Z"></path>
      <path class="cls-10" d="M48.83,36.62c0-.38-.18-1.35-1.2-1.21a14.13,14.13,0,0,0-2,.43s-1.49,2.7-1.82,3.17-.64.56.84.37,1.6.15,2.72-.52A3.87,3.87,0,0,0,48.83,36.62Z"></path>
      <path class="cls-11" d="M45.63,35.84a16,16,0,0,0-.93,2.35c-.31,1.07-.32,1.36-1.3,1.31s-3.16.58-4,0-.83-.48-.59-1.72A4.54,4.54,0,0,1,40.7,35a2.53,2.53,0,0,1,2.89-.61A6.55,6.55,0,0,1,45.63,35.84Z"></path>
      <path class="cls-8" d="M57.6,34.13s-2.86-1.68-5.05,0-2.45,4-1.78,4.51a10.78,10.78,0,0,0,1.26.61c.83.37,1.51-1.81,1.57-1.84S57.6,34.13,57.6,34.13Z"></path>
      <path class="cls-15" d="M60,36.64S58,33.55,56.68,34s-2.77.74-2.77.74l-.14.74s2,1.75,2.63,1.74,1.61-.12,1.86-.11A12.26,12.26,0,0,0,60,36.64Z"></path>
      <path class="cls-10" d="M60,37.09c0-.33-.07-1.18-1-1.12a12,12,0,0,0-1.76.25s-1.46,2.26-1.78,2.64-.58.46.71.38,1.38.23,2.4-.29A3.33,3.33,0,0,0,60,37.09Z"></path>
      <path class="cls-11" d="M57.29,36.22a14.94,14.94,0,0,0-.95,2c-.34.92-.37,1.17-1.21,1.07s-2.78.31-3.51-.23-.69-.46-.41-1.52a4,4,0,0,1,1.85-2.31,2.21,2.21,0,0,1,2.54-.35A5.67,5.67,0,0,1,57.29,36.22Z"></path>
      <path class="cls-8" d="M53.32,31s-2.82-2.17-5.38-.7-3.14,3.89-2.5,4.57a9,9,0,0,0,1.26.81c.83.51,1.86-1.72,1.92-1.75S53.32,31,53.32,31Z"></path>
      <path class="cls-15" d="M55.49,34s-1.7-3.56-3.13-3.28a29.6,29.6,0,0,1-3,.42l-.25.77s1.95,2.15,2.56,2.21,1.74.09,2,.14A13.63,13.63,0,0,0,55.49,34Z"></path>
      <path class="cls-10" d="M55.49,34.51c0-.35.09-1.26-.87-1.33a14.11,14.11,0,0,0-1.92,0s-1.85,2.22-2.24,2.58-.69.41.71.5,1.44.43,2.59,0A3.56,3.56,0,0,0,55.49,34.51Z"></path>
      <path class="cls-11" d="M52.7,33.21a16.75,16.75,0,0,0-1.28,2c-.47.93-.54,1.2-1.42,1s-3,0-3.71-.7-.68-.59-.23-1.68a4.27,4.27,0,0,1,2.28-2.22,2.36,2.36,0,0,1,2.75,0A6,6,0,0,1,52.7,33.21Z"></path>
      <path class="cls-8" d="M67.35,40.22a1.7,1.7,0,0,0,1.56-.77c.42-.85.15-1.61-.15-1.67a2.67,2.67,0,0,0-.48,0c-.31,0-.19.79-.2.81S67.35,40.22,67.35,40.22Z"></path>
      <path class="cls-15" d="M66.23,39.81s1.09.65,1.42.32a9.83,9.83,0,0,1,.75-.66l-.08-.25a3.25,3.25,0,0,0-1.08-.13l-.56.32A3.9,3.9,0,0,0,66.23,39.81Z"></path>
      <path class="cls-10" d="M66.14,39.68c.06.1.21.35.47.2a5.24,5.24,0,0,0,.51-.35s.1-.93.14-1.09.11-.23-.28,0-.46.14-.69.46A1.13,1.13,0,0,0,66.14,39.68Z"></path>
      <path class="cls-11" d="M67.12,39.53a4.83,4.83,0,0,0,0-.76c0-.34-.07-.42.21-.52s.81-.52,1.11-.47.29,0,.37.41a1.4,1.4,0,0,1-.22,1,.77.77,0,0,1-.73.5A2,2,0,0,1,67.12,39.53Z"></path>
      <path class="cls-8" d="M40.52,40.83A2.18,2.18,0,0,0,42.58,40c.61-1,.33-2,0-2.14a3.65,3.65,0,0,0-.62,0c-.4,0-.31,1-.32,1Z"></path>
      <path class="cls-15" d="M39.14,40.21s1.33.92,1.78.52,1-.77,1-.77l-.07-.32a4.46,4.46,0,0,0-1.36-.27c-.23.1-.64.33-.74.36A6.55,6.55,0,0,0,39.14,40.21Z"></path>
      <path class="cls-10" d="M39,40c.06.13.23.47.58.3a6.83,6.83,0,0,0,.68-.41s.2-1.16.27-1.37.16-.29-.35,0-.6.14-.93.52A1.48,1.48,0,0,0,39,40Z"></path>
      <path class="cls-11" d="M40.3,39.92a6.66,6.66,0,0,0,.05-1c0-.42-.06-.53.31-.63s1.07-.6,1.46-.51.36.07.43.56a1.8,1.8,0,0,1-.36,1.25,1,1,0,0,1-1,.57A2.42,2.42,0,0,1,40.3,39.92Z"></path>
      <path class="cls-8" d="M50,35.44a1.24,1.24,0,0,0,1.27.22c.62-.32.79-.89.64-1.06s-.2-.14-.29-.21-.46.4-.48.4Z"></path>
      <path class="cls-15" d="M49.47,34.71s.37.86.71.81.73-.07.73-.07l.07-.18s-.44-.53-.59-.55l-.47,0A2.58,2.58,0,0,0,49.47,34.71Z"></path>
      <path class="cls-10" d="M49.47,34.59c0,.09,0,.3.2.33a3.87,3.87,0,0,0,.45,0s.47-.51.56-.59.17-.09-.16-.13-.34-.11-.62,0A.9.9,0,0,0,49.47,34.59Z"></path>
      <path class="cls-11" d="M50.12,34.93a3.86,3.86,0,0,0,.33-.46c.12-.22.14-.28.35-.22s.71,0,.87.21.16.14,0,.4a1,1,0,0,1-.56.5.56.56,0,0,1-.66,0A1.37,1.37,0,0,1,50.12,34.93Z"></path>
      <path class="cls-8" d="M65.92,34s-2.65-2-5-.55-2.84,3.67-2.23,4.28a9.34,9.34,0,0,0,1.18.73c.79.46,1.69-1.63,1.74-1.65S65.92,34,65.92,34Z"></path>
      <path class="cls-15" d="M68,36.75s-1.65-3.26-3-3-2.82.45-2.82.45L62,35s1.84,1.94,2.41,2S66,37,66.27,37A12.77,12.77,0,0,0,68,36.75Z"></path>
      <path class="cls-10" d="M68,37.21c0-.33.06-1.17-.83-1.21a12.82,12.82,0,0,0-1.77.06s-1.67,2.08-2,2.43-.63.39.66.45,1.34.37,2.39,0A3.29,3.29,0,0,0,68,37.21Z"></path>
      <path class="cls-11" d="M65.4,36.06a16,16,0,0,0-1.15,1.87c-.42.86-.47,1.11-1.3.92s-2.78,0-3.44-.58-.64-.53-.24-1.55a3.88,3.88,0,0,1,2.06-2.09,2.2,2.2,0,0,1,2.55-.09A5.71,5.71,0,0,1,65.4,36.06Z"></path>
      <path class="cls-8" d="M46.67,38.44s1.92,1.08,3.35,0,1.58-2.67,1.13-3A7.35,7.35,0,0,0,50.3,35c-.56-.24-1,1.22-1,1.24Z"></path>
      <path class="cls-15" d="M45.07,36.8s1.36,2,2.21,1.73S49.11,38,49.11,38l.08-.5s-1.38-1.13-1.76-1.12-1.07.1-1.24.1A8,8,0,0,0,45.07,36.8Z"></path>
      <path class="cls-10" d="M45,36.5c0,.22.07.78.66.74a8.92,8.92,0,0,0,1.17-.19s.94-1.53,1.14-1.78.38-.31-.48-.24-.92-.14-1.58.22A2.23,2.23,0,0,0,45,36.5Z"></path>
      <path class="cls-11" d="M46.85,37.05a9.64,9.64,0,0,0,.6-1.34c.21-.61.23-.78.79-.72s1.84-.24,2.33.1.47.3.3,1a2.68,2.68,0,0,1-1.2,1.56,1.48,1.48,0,0,1-1.68.27A3.8,3.8,0,0,1,46.85,37.05Z"></path>
    </g>
  </g>
</svg>
