<?xml version="1.0" encoding="UTF-8"?>
<svg xmlns="http://www.w3.org/2000/svg" viewBox="0 0 145.5 147.56">
  <defs>
    <style>.cls-1{fill:#a29274;}.cls-2{fill:#e3e0c9;}.cls-3{fill:#bda885;}.cls-4{fill:#7c705b;}.cls-5{fill:#d0c5a6;}.cls-6{fill:#a29277;}.cls-7{fill:#817870;}</style>
  </defs>
  <g id="Слой_2" data-name="Слой 2">
    <g id="Слой_1-2" data-name="Слой 1">
      <polygon class="cls-1" points="72.85 51.84 145.5 20.91 134.6 104.56 72.85 147.56 72.85 51.84"></polygon>
      <polygon class="cls-2" points="72.85 0 145.5 20.91 72.85 51.84 0 20.91 72.85 0"></polygon>
      <polygon class="cls-3" points="72.85 51.84 0 20.91 10.9 104.56 30.13 117.91 29.73 117.62 30.13 117.91 72.85 147.56 72.85 51.84"></polygon>
      <path class="cls-4" d="M71.12,145a41.15,41.15,0,0,0,2.53-3.62c.82-1.22,1.6-2.46,2.39-3.69,1.55-2.49,3.08-5,4.51-7.53s2.76-5.15,4-7.78,2.35-5.34,3.35-8.13a41.6,41.6,0,0,1-2.29,8.59,65,65,0,0,1-3.81,8.05A76,76,0,0,1,77,138.35,42.24,42.24,0,0,1,71.12,145Z"></path>
      <path class="cls-5" d="M45.79,21.94a38.44,38.44,0,0,1,3.44-3.68,32.58,32.58,0,0,1,4-3.11,39.5,39.5,0,0,1,9.13-4.42c1.61-.53,3.24-1,4.89-1.33a49.63,49.63,0,0,1,5-.76,48.32,48.32,0,0,1,10.06,0c-3.35.22-6.65.57-9.91,1.1a62.31,62.31,0,0,0-9.58,2.35,48,48,0,0,0-17,9.8Z"></path>
      <path class="cls-5" d="M33.38,24.88c0,.06.19.11.29.14l.36.1c.24.06.49.11.74.15a14.58,14.58,0,0,0,1.48.18,26.53,26.53,0,0,0,3,.1,45,45,0,0,0,5.91-.5c2-.27,3.91-.67,5.86-1.09l5.9-1.34a31.32,31.32,0,0,1-5.59,2.46,33.63,33.63,0,0,1-6,1.44,26.53,26.53,0,0,1-6.17.19,17.56,17.56,0,0,1-3-.54,13.31,13.31,0,0,1-1.46-.51c-.24-.1-.47-.21-.7-.33s-.22-.13-.33-.21S33.35,25,33.38,24.88Z"></path>
      <path class="cls-4" d="M86,84c-.28-2.11-.67-4.22-.77-6.37a29.17,29.17,0,0,1,.36-6.46,23,23,0,0,1,2-6.23,19.92,19.92,0,0,1,3.85-5.34,22.19,22.19,0,0,1,5.36-3.82c.48-.26,1-.45,1.49-.67a11.71,11.71,0,0,1,1.52-.6l1.54-.53,1.58-.4a41.47,41.47,0,0,1,12.79-.91,57.16,57.16,0,0,0-12.49,2,25,25,0,0,0-10.74,6A21.18,21.18,0,0,0,86.7,71.4a32.57,32.57,0,0,0-.77,6.24c-.06,1-.05,2.11,0,3.17S86,82.94,86,84Z"></path>
      <path class="cls-4" d="M110.84,64.23l5.41-7.45c1.77-2.5,3.53-5,5.17-7.56A81.56,81.56,0,0,0,126,41.34a39.34,39.34,0,0,0,1.79-4.17,17.64,17.64,0,0,0,1-4.44,19.75,19.75,0,0,1-1.79,9.09A51.27,51.27,0,0,1,122.67,50a80.38,80.38,0,0,1-5.5,7.45A69.71,69.71,0,0,1,110.84,64.23Z"></path>
      <path class="cls-4" d="M94,90.79c.19.31.6.42.92.58s.69.3,1,.43c.7.27,1.4.51,2.12.74,1.42.47,2.85.88,4.29,1.28,2.88.78,5.78,1.48,8.71,2.06,5.84,1.21,11.76,2,17.76,2.67a65.23,65.23,0,0,1-18.06-1.21A66.4,66.4,0,0,1,102,94.93c-1.43-.51-2.83-1.08-4.21-1.72-.68-.33-1.36-.68-2-1-.33-.19-.66-.38-1-.59-.15-.11-.31-.22-.45-.34S94,91,94,90.79Z"></path>
      <path class="cls-4" d="M111.54,101.38a13.41,13.41,0,0,1-1.11-2.88,23.93,23.93,0,0,1-.67-3,22.41,22.41,0,0,1-.11-6.23,19.81,19.81,0,0,1,1.75-6A20.08,20.08,0,0,1,115,78a26.83,26.83,0,0,1,10.69-6.37,45.35,45.35,0,0,1,12.12-2.16,68.17,68.17,0,0,0-11.72,3.25,28.78,28.78,0,0,0-10,6.32,19.54,19.54,0,0,0-5.29,10.36,24.39,24.39,0,0,0-.32,6A22.71,22.71,0,0,0,111.54,101.38Z"></path>
      <path class="cls-4" d="M137.84,63.06a46.13,46.13,0,0,1-1.78,8.2,55.85,55.85,0,0,1-3,7.85,45.88,45.88,0,0,1-4.37,7.23,27.5,27.5,0,0,1-6.05,5.85,50.28,50.28,0,0,0,5.1-6.52,76.46,76.46,0,0,0,4-7.2c1.2-2.48,2.27-5,3.29-7.59S136.93,65.7,137.84,63.06Z"></path>
      <path class="cls-5" d="M90.41,44.33l1.45-.59a47.17,47.17,0,0,0-6.62-2.43Q88,42.81,90.41,44.33Z"></path>
      <path class="cls-4" d="M89.88,45.56c-1,2.56-1.87,4.66-3.12,7.12A52.29,52.29,0,0,1,77.68,66.4a27.46,27.46,0,0,0,6-5.85,50.13,50.13,0,0,0,4.38-7.22,64.78,64.78,0,0,0,3.29-7.75c.15-.52.33-1.32.47-1.84l-1.45.59C90.32,44.57,90,45.32,89.88,45.56Z"></path>
      <path class="cls-6" d="M8.29,85.49a23.29,23.29,0,0,1,6.65-5.38,38.07,38.07,0,0,1,7.94-3.31,45,45,0,0,1,8.44-1.56c1.42-.15,2.85-.13,4.28-.19s2.84.12,4.26.25c-1.42.2-2.82.32-4.22.48s-2.79.36-4.17.61-2.77.45-4.12.81c-.68.17-1.37.27-2,.46l-2,.56a54.9,54.9,0,0,0-7.82,2.92A36.18,36.18,0,0,0,8.29,85.49Z"></path>
      <path class="cls-6" d="M12.76,73.87c2.93-1.71,5.71-3.64,8.52-5.51s5.58-3.82,8.32-5.8,5.47-4,8.14-6c1.32-1,2.64-2.09,3.9-3.2a20.4,20.4,0,0,0,3.48-3.65l-.59,1.14c-.22.37-.5.69-.74,1.05-.49.71-1.09,1.32-1.64,2S41,55.08,40.36,55.7s-1.25,1.16-1.88,1.74a101.8,101.8,0,0,1-8,6.33c-2.77,2-5.62,3.84-8.56,5.56A58,58,0,0,1,12.76,73.87Z"></path>
      <path class="cls-6" d="M12.39,100.75A8.4,8.4,0,0,1,13,96.42a8.68,8.68,0,0,1,2.79-3.54A11.77,11.77,0,0,1,19.85,91a20.19,20.19,0,0,1,4.42-.56A34.51,34.51,0,0,1,33,91.57a48.62,48.62,0,0,1,8.18,2.86c-2.83-.6-5.61-1.24-8.42-1.73a47,47,0,0,0-8.41-.78,15.2,15.2,0,0,0-7.89,1.91A8.9,8.9,0,0,0,12.39,100.75Z"></path>
      <path class="cls-6" d="M2.89,35a8.73,8.73,0,0,0,3.18,3.68,21.6,21.6,0,0,0,4.29,2.37,51.28,51.28,0,0,0,9.49,2.71c3.25.6,6.55,1.05,9.86,1.38s6.65.57,10,.91c-1.67.14-3.35.19-5,.29s-3.36,0-5.05,0a69.52,69.52,0,0,1-10.06-1.08,39.8,39.8,0,0,1-9.7-3.12,19,19,0,0,1-4.26-2.86,7.12,7.12,0,0,1-.9-.92,6.39,6.39,0,0,1-.79-1A5.47,5.47,0,0,1,2.89,35Z"></path>
      <path class="cls-6" d="M53.79,133.81a20.34,20.34,0,0,1-4.72-3,11.4,11.4,0,0,1-3.41-4.59,6.77,6.77,0,0,1-.41-3,6.35,6.35,0,0,1,.31-1.5,7.64,7.64,0,0,1,.59-1.38,13.73,13.73,0,0,1,3.94-4.25,38.19,38.19,0,0,1,10-5,76.36,76.36,0,0,1,10.76-2.81c-3.48,1.26-7,2.5-10.34,3.89a45.72,45.72,0,0,0-9.58,5.1,12.67,12.67,0,0,0-3.6,3.74,5.57,5.57,0,0,0-.54,1.13,5.7,5.7,0,0,0-.3,1.2,6.16,6.16,0,0,0,.22,2.48,8.56,8.56,0,0,0,1.13,2.34,13.86,13.86,0,0,0,1.68,2.09A24.74,24.74,0,0,0,53.79,133.81Z"></path>
      <path class="cls-6" d="M41.49,43.81a6.82,6.82,0,0,0-.5,5.84c1.52,3.72,4.82,6,8.11,7.58a24.65,24.65,0,0,1-4.21-3.52,10.82,10.82,0,0,1-2.82-4.42,6,6,0,0,1,.6-4.83,12.56,12.56,0,0,1,3.62-3.72l.17-.11L44.89,40A13.1,13.1,0,0,0,41.49,43.81Z"></path>
      <path class="cls-5" d="M69,37.88a98.09,98.09,0,0,0-12.1-.2A34.55,34.55,0,0,0,46.67,39.3L44.89,40l1.57.66c3.23-1.16,7-1.49,10.79-1.9S65,38.14,69,37.88Z"></path>
      <path class="cls-6" d="M40.23,112.39a19.75,19.75,0,0,0-4.5.53,10.47,10.47,0,0,0-4.09,2.21,5.3,5.3,0,0,0-1.54,2.75l.39.29A5.69,5.69,0,0,1,32.38,116a11.36,11.36,0,0,1,3.74-1.65c2.71-.79,5.6-.91,8.55-1.42A20.05,20.05,0,0,0,40.23,112.39Z"></path>
      <path class="cls-6" d="M38.8,105.76c3-1.45,6-2.6,9-3.89s6-2.63,8.84-4.13c1.44-.74,2.85-1.54,4.22-2.38a41.94,41.94,0,0,0,4-2.73,23.15,23.15,0,0,0,6.46-7.14,18.91,18.91,0,0,1-5.72,8,42,42,0,0,1-8.27,5.53,69.29,69.29,0,0,1-9.1,3.88c-1.55.55-3.13,1-4.7,1.5S40.38,105.3,38.8,105.76Z"></path>
      <path class="cls-4" d="M79.54,129.5c3-1.46,6-2.6,9-3.9s6-2.62,8.84-4.13c1.44-.73,2.85-1.53,4.22-2.38a43.79,43.79,0,0,0,4-2.72,23.45,23.45,0,0,0,6.47-7.15,18.93,18.93,0,0,1-5.73,8,41.17,41.17,0,0,1-8.27,5.53,70.72,70.72,0,0,1-9.1,3.89c-1.55.55-3.12,1-4.7,1.5S81.11,129,79.54,129.5Z"></path>
      <path class="cls-5" d="M83.5,42.7a57.41,57.41,0,0,1,15.32-16,37.6,37.6,0,0,1,10-5,27.92,27.92,0,0,1,5.5-1.1,23.39,23.39,0,0,1,5.55.25,29.18,29.18,0,0,0-5.46.48,32.24,32.24,0,0,0-5.21,1.47A44.51,44.51,0,0,0,99.66,28a74.06,74.06,0,0,0-8.48,6.85A110,110,0,0,0,83.5,42.7Z"></path>
      <path class="cls-4" d="M141.07,31.6a14.85,14.85,0,0,0-8.65,1.52c1.46-.14,2.88-.25,4.29-.27a22.91,22.91,0,0,1,4.15.22,13.33,13.33,0,0,1,3,.73l.15-1.3A14.58,14.58,0,0,0,141.07,31.6Z"></path>
      <path class="cls-6" d="M8.29,71.92a28.61,28.61,0,0,1,6,.89,29.49,29.49,0,0,1,5.77,2.08,15.76,15.76,0,0,1,5,3.7,7.53,7.53,0,0,1,1.56,2.77,5.6,5.6,0,0,1,0,3.09,7.15,7.15,0,0,0-2.44-5.07,20.1,20.1,0,0,0-4.84-3.16A58.53,58.53,0,0,0,14,73.92C12.11,73.23,10.21,72.58,8.29,71.92Z"></path>
      <path class="cls-6" d="M38.6,98.68c1.86-2.52,3.66-5.07,5.46-7.61S47.58,86,49.19,83.3a71,71,0,0,0,4.43-8.12,30.39,30.39,0,0,0,2.74-8.84,22.27,22.27,0,0,1-1.67,9.28A45.42,45.42,0,0,1,52.79,80c-.76,1.38-1.5,2.78-2.34,4.11A71.81,71.81,0,0,1,45,91.77,67.3,67.3,0,0,1,38.6,98.68Z"></path>
      <ellipse class="cls-1" cx="75.15" cy="22.37" rx="16.78" ry="6.56"></ellipse>
      <ellipse class="cls-7" cx="75.58" cy="24.58" rx="13.83" ry="5.41"></ellipse>
    </g>
  </g>
</svg>
