<?xml version="1.0" encoding="UTF-8"?>
<svg xmlns="http://www.w3.org/2000/svg" viewBox="0 0 101.27 261.84">
  <defs>
    <style>.cls-1{fill:#a0bfe2;}.cls-2{fill:#b3ceea;}.cls-3{fill:none;stroke:#334253;stroke-miterlimit:10;stroke-width:1.59px;}.cls-4{fill:#9fbee2;}.cls-5{fill:#334253;}.cls-6{fill:#a0cae7;}.cls-7{fill:#d0e6f5;}.cls-8{fill:#b8d8ee;}.cls-9{fill:#a29274;}.cls-10{fill:#e3e0c9;}.cls-11{fill:#bda885;}.cls-12{fill:#7c705b;}.cls-13{fill:#d0c5a6;}.cls-14{fill:#a29277;}.cls-15{fill:#817870;}</style>
  </defs>
  <g id="Слой_2" data-name="Слой 2">
    <g id="Слой_1-2" data-name="Слой 1">
      <circle class="cls-1" cx="56.42" cy="113.34" r="16.32"></circle>
      <path class="cls-2" d="M45.53,117.28a16.2,16.2,0,0,0,3.95,10.63,16.3,16.3,0,0,0,19.1-25.48,16.29,16.29,0,0,0-23,14.85Z"></path>
      <line class="cls-3" x1="64.69" y1="99.46" x2="48.15" y2="126.71"></line>
      <path class="cls-4" d="M55.18,127.11s-.52-.83,0-3.18c.82-3.76,8.7-15.49,9.84-16.29,0,0,2.79-2.31,4.2-1.2s2.37,4.32,2.65,6.11-.28,6.67-1.89,8.62-3.37,5.6-8.81,6.51S55.18,127.11,55.18,127.11Z"></path>
      <path class="cls-5" d="M56.42,130.46a17.12,17.12,0,1,1,17.12-17.12A17.14,17.14,0,0,1,56.42,130.46Zm0-32.64a15.53,15.53,0,1,0,15.52,15.52A15.53,15.53,0,0,0,56.42,97.82Z"></path>
      <path class="cls-6" d="M37.24,52.29s-12.47,12.6-6.36,19.39c5.95,6.62,15.35.59,11.93-8.41C39.74,55.19,37.24,52.29,37.24,52.29Z"></path>
      <path class="cls-7" d="M33.12,64.11c.43-1.3,1.4-4.27,1.79-5.34a27.59,27.59,0,0,1,1.69-3.48s1.19-2.29-1.84,1-4.92,9.32-4,9.67C31.5,66.23,32.7,65.38,33.12,64.11Z"></path>
      <path class="cls-8" d="M40.09,68.46c-.37,1.23-.2,2.37.38,2.54a2.26,2.26,0,0,0,2.27-1.68c.37-1.46-.36-2.65-.94-2.78S40.45,67.23,40.09,68.46Z"></path>
      <path class="cls-6" d="M58,52.29s-12.47,12.6-6.37,19.39c6,6.62,15.36.59,11.94-8.41C60.53,55.19,58,52.29,58,52.29Z"></path>
      <path class="cls-7" d="M53.91,64.11c.43-1.3,1.4-4.27,1.78-5.34a29.15,29.15,0,0,1,1.69-3.48s1.2-2.29-1.84,1-4.91,9.32-4,9.67C52.29,66.23,53.49,65.38,53.91,64.11Z"></path>
      <path class="cls-8" d="M60.87,68.46c-.36,1.23-.19,2.37.39,2.54a2.26,2.26,0,0,0,2.27-1.68c.37-1.46-.37-2.65-1-2.78S61.24,67.23,60.87,68.46Z"></path>
      <path class="cls-6" d="M78.81,52.29s-12.46,12.6-6.36,19.39c6,6.62,15.35.59,11.93-8.41C81.31,55.19,78.81,52.29,78.81,52.29Z"></path>
      <path class="cls-7" d="M74.7,64.11c.43-1.3,1.4-4.27,1.78-5.34a29.15,29.15,0,0,1,1.69-3.48s1.19-2.29-1.84,1-4.91,9.32-4,9.67C73.07,66.23,74.27,65.38,74.7,64.11Z"></path>
      <path class="cls-8" d="M81.66,68.46c-.36,1.23-.19,2.37.39,2.54a2.24,2.24,0,0,0,2.26-1.68c.37-1.46-.36-2.65-.94-2.78S82,67.23,81.66,68.46Z"></path>
      <path class="cls-6" d="M50,24.66s-12.47,12.6-6.36,19.39c5.95,6.62,15.35.59,11.93-8.41C52.49,27.56,50,24.66,50,24.66Z"></path>
      <path class="cls-7" d="M45.87,36.48c.43-1.3,1.4-4.27,1.79-5.34a27.59,27.59,0,0,1,1.69-3.48s1.19-2.29-1.84,1-4.92,9.32-4,9.67C44.25,38.6,45.45,37.75,45.87,36.48Z"></path>
      <path class="cls-8" d="M52.84,40.83c-.37,1.23-.2,2.37.38,2.54a2.26,2.26,0,0,0,2.27-1.68c.37-1.46-.37-2.65-1-2.78S53.2,39.6,52.84,40.83Z"></path>
      <path class="cls-6" d="M70.77,24.66s-12.46,12.6-6.36,19.39c6,6.62,15.36.59,11.93-8.41C73.28,27.56,70.77,24.66,70.77,24.66Z"></path>
      <path class="cls-7" d="M66.66,36.48c.43-1.3,1.4-4.27,1.78-5.34a29.15,29.15,0,0,1,1.69-3.48s1.2-2.29-1.84,1-4.91,9.32-4,9.67C65,38.6,66.24,37.75,66.66,36.48Z"></path>
      <path class="cls-8" d="M73.62,40.83c-.36,1.23-.19,2.37.39,2.54a2.26,2.26,0,0,0,2.27-1.68c.36-1.46-.37-2.65-1-2.78S74,39.6,73.62,40.83Z"></path>
      <path class="cls-6" d="M61.47,0S49,12.6,55.11,19.39C61.06,26,70.47,20,67,11,64,2.9,61.47,0,61.47,0Z"></path>
      <path class="cls-7" d="M57.36,11.82c.43-1.3,1.4-4.27,1.78-5.34A29.15,29.15,0,0,1,60.83,3S62,.71,59,4s-4.91,9.31-4,9.66C55.74,14,56.94,13.1,57.36,11.82Z"></path>
      <path class="cls-8" d="M64.32,16.17c-.36,1.24-.19,2.37.39,2.54A2.23,2.23,0,0,0,67,17c.37-1.46-.36-2.65-.94-2.77S64.69,14.94,64.32,16.17Z"></path>
      <polygon class="cls-9" points="50.71 195.22 101.27 173.69 93.68 231.91 50.71 261.84 50.71 195.22"></polygon>
      <polygon class="cls-10" points="50.71 159.14 101.27 173.69 50.71 195.22 0 173.69 50.71 159.14"></polygon>
      <polygon class="cls-11" points="50.71 195.22 0 173.69 7.58 231.91 20.97 241.2 20.7 241 20.97 241.2 50.71 261.84 50.71 195.22"></polygon>
      <path class="cls-12" d="M49.5,260.07c1.19-1.68,2.22-3.45,3.31-5.17s2.11-3.48,3.1-5.25,1.93-3.57,2.84-5.38,1.67-3.69,2.45-5.61a25.16,25.16,0,0,1-1.46,6,41.82,41.82,0,0,1-2.62,5.64,49.31,49.31,0,0,1-3.42,5.18A27.07,27.07,0,0,1,49.5,260.07Z"></path>
      <path class="cls-13" d="M31.87,174.41A21.16,21.16,0,0,1,37,169.58a27.29,27.29,0,0,1,6.36-3.14A31.7,31.7,0,0,1,50.27,165c1.17-.14,2.35-.1,3.52-.13s2.34.15,3.5.29c-1.17.17-2.32.25-3.47.39l-1.71.25c-.57.09-1.14.14-1.7.27-1.12.24-2.25.4-3.35.72s-2.19.61-3.28.94a38.33,38.33,0,0,0-6.23,2.73A39.11,39.11,0,0,0,31.87,174.41Z"></path>
      <path class="cls-13" d="M23.23,176.45a7,7,0,0,0,2,.32c.69,0,1.38,0,2.06,0a37.5,37.5,0,0,0,4.08-.38c1.35-.19,2.71-.45,4.07-.72s2.73-.57,4.14-.8a19.2,19.2,0,0,1-3.85,1.85,22.61,22.61,0,0,1-4.16,1,17.42,17.42,0,0,1-4.33.09,11.17,11.17,0,0,1-2.13-.43,7.92,7.92,0,0,1-1-.39A2.35,2.35,0,0,1,23.23,176.45Z"></path>
      <path class="cls-12" d="M59.83,217.61c-.23-1.46-.52-2.93-.61-4.43a19.69,19.69,0,0,1,.2-4.53,15.49,15.49,0,0,1,1.37-4.38,13.8,13.8,0,0,1,2.71-3.77,15.31,15.31,0,0,1,3.77-2.68,19.3,19.3,0,0,1,4.3-1.51,27.56,27.56,0,0,1,9-.51,42.8,42.8,0,0,0-8.66,1.55,17.53,17.53,0,0,0-7.39,4.14,14.69,14.69,0,0,0-4,7.37A36.75,36.75,0,0,0,59.83,217.61Z"></path>
      <path class="cls-12" d="M77.14,203.84c2.42-3.56,4.93-7,7.22-10.54,1.17-1.77,2.22-3.59,3.2-5.45a19.17,19.17,0,0,0,2.11-5.93,12.91,12.91,0,0,1-1.13,6.38,32.47,32.47,0,0,1-3,5.75,51.58,51.58,0,0,1-3.86,5.18A41,41,0,0,1,77.14,203.84Z"></path>
      <path class="cls-12" d="M65.43,222.33c.14.21.43.27.65.38s.49.19.73.27c.5.17,1,.34,1.49.48,1,.31,2,.58,3,.85,2,.51,4,1,6.06,1.39s4.07.77,6.12,1.1l6.2.93a36.06,36.06,0,0,1-6.32.15,45.73,45.73,0,0,1-6.28-.82,41.54,41.54,0,0,1-6.1-1.72,27.86,27.86,0,0,1-2.92-1.25c-.47-.24-1-.48-1.4-.76A3.4,3.4,0,0,1,65.43,222.33Z"></path>
      <path class="cls-12" d="M77.63,229.7a13,13,0,0,1-1.32-4.1,15.21,15.21,0,0,1-.13-4.37A13.65,13.65,0,0,1,77.39,217a13.86,13.86,0,0,1,2.55-3.65,18.51,18.51,0,0,1,7.52-4.45,30,30,0,0,1,8.48-1.37,53.06,53.06,0,0,0-8.11,2.39,20.36,20.36,0,0,0-6.9,4.4,13.64,13.64,0,0,0-3.68,7.11,17.2,17.2,0,0,0-.27,4.13A17,17,0,0,0,77.63,229.7Z"></path>
      <path class="cls-12" d="M95.94,203a28.93,28.93,0,0,1-1.11,5.75,36.58,36.58,0,0,1-2.09,5.5,28.91,28.91,0,0,1-3.09,5,17.61,17.61,0,0,1-4.32,4,40.58,40.58,0,0,0,3.44-4.61q1.47-2.44,2.72-5c.84-1.71,1.58-3.47,2.32-5.24S95.23,204.85,95.94,203Z"></path>
      <path class="cls-13" d="M62.93,190l1-.41a32.55,32.55,0,0,0-4.61-1.69Q61.24,188.94,62.93,190Z"></path>
      <path class="cls-12" d="M62.55,190.85c-.71,1.78-1.29,3.24-2.16,5a36.46,36.46,0,0,1-6.32,9.55,19.29,19.29,0,0,0,4.2-4.07,34.38,34.38,0,0,0,3-5,44.69,44.69,0,0,0,2.29-5.39c.1-.36.23-.92.33-1.28l-1,.41C62.86,190.16,62.62,190.68,62.55,190.85Z"></path>
      <path class="cls-14" d="M5.77,218.64a15.2,15.2,0,0,1,4.57-3.86,24.76,24.76,0,0,1,5.53-2.36,29.91,29.91,0,0,1,5.91-1c1-.1,2-.07,3-.08s2,.13,3,.25c-1,.19-2,.29-2.93.43s-1.94.29-2.89.47-1.92.33-2.85.59-1.88.45-2.81.72a42.5,42.5,0,0,0-5.43,2A28.43,28.43,0,0,0,5.77,218.64Z"></path>
      <path class="cls-14" d="M8.88,210.55c2-1.27,3.92-2.62,5.86-4s3.86-2.69,5.76-4.06,3.8-2.75,5.68-4.15c.92-.72,1.85-1.43,2.74-2.19a15.31,15.31,0,0,0,2.48-2.48,11,11,0,0,1-2,3,35.52,35.52,0,0,1-2.53,2.53,64.62,64.62,0,0,1-5.57,4.45c-1.93,1.37-3.92,2.66-6,3.84A36.43,36.43,0,0,1,8.88,210.55Z"></path>
      <path class="cls-14" d="M8.62,229.26a5.8,5.8,0,0,1,2.28-5.57,10.45,10.45,0,0,1,6-1.78,23.23,23.23,0,0,1,6.07.85,31.63,31.63,0,0,1,5.67,2.1c-2-.29-3.93-.77-5.89-1-1-.19-1.95-.28-2.92-.38a23.56,23.56,0,0,0-2.9-.14,11.07,11.07,0,0,0-5.4,1.28A6.19,6.19,0,0,0,8.62,229.26Z"></path>
      <path class="cls-14" d="M2,183.49A6.23,6.23,0,0,0,4.28,186a16.5,16.5,0,0,0,3,1.6,38.6,38.6,0,0,0,6.58,1.83c2.26.42,4.54.74,6.84,1s4.62.45,7,.77a47.15,47.15,0,0,1-7,.31,43.87,43.87,0,0,1-7-.72,27.25,27.25,0,0,1-6.77-2.21,13.72,13.72,0,0,1-3-2A5.66,5.66,0,0,1,2,183.49Z"></path>
      <path class="cls-14" d="M37.44,252.27a13.29,13.29,0,0,1-3.34-2A7.8,7.8,0,0,1,31.65,247a4.79,4.79,0,0,1-.31-2.13,5.43,5.43,0,0,1,.63-2.07,9.76,9.76,0,0,1,2.79-3,25.81,25.81,0,0,1,7.05-3.46,46.53,46.53,0,0,1,7.54-1.82c-2.4,1-4.81,1.84-7.15,2.83a33.28,33.28,0,0,0-6.61,3.57,8.52,8.52,0,0,0-2.47,2.54,4,4,0,0,0-.44,3.22,7.83,7.83,0,0,0,1.88,3.06A18.79,18.79,0,0,0,37.44,252.27Z"></path>
      <path class="cls-14" d="M28.88,189.63a4.72,4.72,0,0,0-.35,4.06c1.06,2.59,3.36,4.18,5.65,5.28a17.38,17.38,0,0,1-2.94-2.45,7.57,7.57,0,0,1-2-3.08,4.18,4.18,0,0,1,.42-3.36,8.87,8.87,0,0,1,2.52-2.59l.11-.07L31.25,187A8.84,8.84,0,0,0,28.88,189.63Z"></path>
      <path class="cls-13" d="M48,185.5a69.87,69.87,0,0,0-8.42-.14,24.14,24.14,0,0,0-7.09,1.13c-.14,0-1.1.41-1.23.47l1.08.46a33.91,33.91,0,0,1,7.52-1.33C42.52,185.81,45.25,185.69,48,185.5Z"></path>
      <path class="cls-14" d="M28,237.36a13.94,13.94,0,0,0-3.13.37A7.27,7.27,0,0,0,22,239.27,3.66,3.66,0,0,0,21,241.18l.27.2a4.11,4.11,0,0,1,1.32-1.51,8.13,8.13,0,0,1,2.6-1.15,54.3,54.3,0,0,1,5.95-1A13.9,13.9,0,0,0,28,237.36Z"></path>
      <path class="cls-14" d="M27,232.75c2-1.09,4.16-1.91,6.23-2.84s4.12-1.86,6.12-2.9a43.57,43.57,0,0,0,5.7-3.51,17.49,17.49,0,0,0,4.6-4.86,12.7,12.7,0,0,1-3.91,5.69A28.32,28.32,0,0,1,40,228.24a46.63,46.63,0,0,1-6.37,2.67C31.46,231.67,29.23,232.2,27,232.75Z"></path>
      <path class="cls-12" d="M55.36,249.27c2-1.09,4.16-1.91,6.23-2.85s4.12-1.85,6.12-2.89a42.59,42.59,0,0,0,5.7-3.52,17.31,17.31,0,0,0,4.6-4.85,12.78,12.78,0,0,1-3.91,5.69,28.6,28.6,0,0,1-5.75,3.91A47.16,47.16,0,0,1,62,247.43C59.81,248.19,57.58,248.72,55.36,249.27Z"></path>
      <path class="cls-13" d="M58.12,188.86a34.51,34.51,0,0,1,4.68-6.16,37.25,37.25,0,0,1,5.88-5.1,25.35,25.35,0,0,1,7-3.45,18.15,18.15,0,0,1,3.85-.72,15.22,15.22,0,0,1,3.88.25,21.23,21.23,0,0,0-7.38,1.49,32.11,32.11,0,0,0-6.59,3.58,54.22,54.22,0,0,0-5.9,4.72Q60.74,186,58.12,188.86Z"></path>
      <path class="cls-12" d="M98.19,181.13a10.26,10.26,0,0,0-6,1.06c1-.1,2-.17,3-.19a15.38,15.38,0,0,1,2.89.16,9.15,9.15,0,0,1,2.08.5l.1-.9A9.74,9.74,0,0,0,98.19,181.13Z"></path>
      <path class="cls-14" d="M5.77,209.19a17.3,17.3,0,0,1,4.24.49,19.89,19.89,0,0,1,4.05,1.42,10.62,10.62,0,0,1,3.52,2.64,5.42,5.42,0,0,1,1.07,2,3.75,3.75,0,0,1-.06,2.18,5.1,5.1,0,0,0-1.8-3.43,15,15,0,0,0-3.34-2.13C11,211.15,8.41,210.26,5.77,209.19Z"></path>
      <path class="cls-14" d="M26.86,227.82c2.46-3.62,5-7.12,7.22-10.8a51.21,51.21,0,0,0,3.11-5.61,22.82,22.82,0,0,0,2-6.1,14.68,14.68,0,0,1-1,6.51,30.36,30.36,0,0,1-1.3,3.05c-.52,1-1,1.95-1.62,2.88a47.3,47.3,0,0,1-3.85,5.34A39.18,39.18,0,0,1,26.86,227.82Z"></path>
      <ellipse class="cls-9" cx="52.31" cy="174.71" rx="11.68" ry="4.57"></ellipse>
      <ellipse class="cls-15" cx="52.6" cy="176.25" rx="9.63" ry="3.76"></ellipse>
    </g>
  </g>
</svg>
