<?xml version="1.0" encoding="UTF-8"?>
<svg xmlns="http://www.w3.org/2000/svg" viewBox="0 0 117.66 119.33">
  <defs>
    <style>.cls-1{fill:#a29274;}.cls-2{fill:#e3e0c9;}.cls-3{fill:#bda885;}.cls-4{fill:#7c705b;}.cls-5{fill:#d0c5a6;}.cls-6{fill:#a29277;}.cls-7{fill:#817870;}</style>
  </defs>
  <g id="Слой_2" data-name="Слой 2">
    <g id="Слой_1-2" data-name="Слой 1">
      <polygon class="cls-1" points="58.91 41.92 117.66 16.91 108.85 84.56 58.91 119.33 58.91 41.92"></polygon>
      <polygon class="cls-2" points="58.91 0 117.66 16.91 58.91 41.92 0 16.91 58.91 0"></polygon>
      <polygon class="cls-3" points="58.91 41.92 0 16.91 8.81 84.56 24.37 95.35 24.05 95.12 24.37 95.35 58.91 119.33 58.91 41.92"></polygon>
      <path class="cls-4" d="M57.52,117.27c.74-.93,1.39-1.93,2-2.93s1.3-2,1.93-3c1.26-2,2.49-4,3.65-6.09s2.23-4.15,3.26-6.28,1.91-4.33,2.71-6.58a33.78,33.78,0,0,1-1.84,6.95,52.22,52.22,0,0,1-3.09,6.5,58.73,58.73,0,0,1-3.92,6A34.73,34.73,0,0,1,57.52,117.27Z"></path>
      <path class="cls-5" d="M37,17.74a32.38,32.38,0,0,1,2.78-3A27.18,27.18,0,0,1,43,12.25a32,32,0,0,1,7.38-3.57c1.3-.43,2.62-.78,4-1.08a39.57,39.57,0,0,1,4-.61,38.75,38.75,0,0,1,8.13,0c-2.7.17-5.37.46-8,.89a49.81,49.81,0,0,0-7.75,1.9,40.36,40.36,0,0,0-7.27,3.23A40.88,40.88,0,0,0,37,17.74Z"></path>
      <path class="cls-5" d="M27,20.12c.09.1.36.14.53.19s.4.09.6.12c.4.07.79.12,1.19.15a21.39,21.39,0,0,0,2.4.08,38.36,38.36,0,0,0,4.78-.4c3.17-.45,6.3-1.25,9.51-2a27.69,27.69,0,0,1-9.34,3.16,21.91,21.91,0,0,1-5,.15,14.57,14.57,0,0,1-2.46-.44A10.46,10.46,0,0,1,28,20.75,2.8,2.8,0,0,1,27,20.12Z"></path>
      <path class="cls-4" d="M69.52,67.93c-.22-1.7-.54-3.4-.62-5.14a23.53,23.53,0,0,1,.29-5.23,18.52,18.52,0,0,1,1.61-5,16.15,16.15,0,0,1,3.12-4.31,17.37,17.37,0,0,1,4.33-3.09,22.71,22.71,0,0,1,5-1.78,33.76,33.76,0,0,1,10.35-.74,46.52,46.52,0,0,0-10.1,1.65,20.17,20.17,0,0,0-8.69,4.81,17.18,17.18,0,0,0-4.65,8.68A40.23,40.23,0,0,0,69.52,67.93Z"></path>
      <path class="cls-4" d="M89.63,51.94l4.38-6c1.44-2,2.84-4.05,4.17-6.12a62.4,62.4,0,0,0,3.7-6.37,21,21,0,0,0,2.31-7,15.7,15.7,0,0,1-1.46,7.34,40.55,40.55,0,0,1-3.53,6.64A62.82,62.82,0,0,1,89.63,51.94Z"></path>
      <path class="cls-4" d="M76,73.42c.15.25.49.34.75.47s.55.24.83.35c.57.22,1.14.41,1.72.59,1.14.38,2.3.72,3.47,1,2.33.63,4.67,1.2,7,1.67,4.73,1,9.51,1.59,14.36,2.16a53.06,53.06,0,0,1-14.6-1,54.14,54.14,0,0,1-7.08-2c-1.16-.41-2.3-.88-3.41-1.39-.55-.27-1.1-.55-1.63-.85A4,4,0,0,1,76,73.42Z"></path>
      <path class="cls-4" d="M90.2,82a11,11,0,0,1-.9-2.32,20.17,20.17,0,0,1-.54-2.45,18.08,18.08,0,0,1-.09-5,16,16,0,0,1,1.42-4.89A16.46,16.46,0,0,1,93,63.09a21.94,21.94,0,0,1,8.65-5.15,37,37,0,0,1,9.8-1.75A56.07,56.07,0,0,0,102,58.82a23.28,23.28,0,0,0-8.11,5.11,15.88,15.88,0,0,0-4.28,8.38,20.1,20.1,0,0,0-.26,4.84A18.5,18.5,0,0,0,90.2,82Z"></path>
      <path class="cls-4" d="M111.47,51a43.14,43.14,0,0,1-3.9,13A36.87,36.87,0,0,1,104,69.82a22.37,22.37,0,0,1-4.89,4.73,39.81,39.81,0,0,0,4.12-5.27,60,60,0,0,0,3.22-5.83c1-2,1.83-4.05,2.66-6.13S110.75,53.14,111.47,51Z"></path>
      <path class="cls-5" d="M73.11,35.85l1.18-.48a40.93,40.93,0,0,0-5.36-2C70.42,34.22,71.81,35,73.11,35.85Z"></path>
      <path class="cls-4" d="M72.68,36.84c-.83,2.08-1.51,3.78-2.51,5.76a42.44,42.44,0,0,1-7.35,11.1A22.16,22.16,0,0,0,67.7,49a39.89,39.89,0,0,0,3.55-5.84,50.39,50.39,0,0,0,2.65-6.26c.13-.42.27-1.07.39-1.49l-1.18.48C73,36,72.76,36.65,72.68,36.84Z"></path>
      <path class="cls-6" d="M6.71,69.13a18.86,18.86,0,0,1,5.37-4.34A31.16,31.16,0,0,1,18.5,62.1a36.31,36.31,0,0,1,6.83-1.25c1.15-.13,2.31-.11,3.46-.15s2.3.09,3.44.19c-1.14.17-2.28.25-3.41.39s-2.26.3-3.37.5-2.24.36-3.33.65-2.2.52-3.28.83a43.83,43.83,0,0,0-6.33,2.36A29.2,29.2,0,0,0,6.71,69.13Z"></path>
      <path class="cls-6" d="M10.32,59.74c2.37-1.39,4.62-2.94,6.89-4.46s4.51-3.09,6.73-4.69,4.42-3.2,6.58-4.86c1.07-.85,2.13-1.7,3.16-2.59a16.78,16.78,0,0,0,2.81-3L36,41.1a10,10,0,0,1-.6.85c-.39.58-.88,1.07-1.32,1.61-.94,1-1.94,2-3,2.89a82,82,0,0,1-6.49,5.12c-2.24,1.6-4.54,3.11-6.92,4.5A48.42,48.42,0,0,1,10.32,59.74Z"></path>
      <path class="cls-6" d="M10,81.47a6.77,6.77,0,0,1,2.73-6.33,12.14,12.14,0,0,1,6.88-2,28.26,28.26,0,0,1,7,.93,32.66,32.66,0,0,1,3.37,1c1.09.43,2.18.82,3.25,1.28-2.3-.44-4.53-1-6.81-1.37-1.13-.23-2.27-.35-3.4-.47a27.67,27.67,0,0,0-3.4-.18,12.58,12.58,0,0,0-6.36,1.57A6.32,6.32,0,0,0,11,78.24,7.34,7.34,0,0,0,10,81.47Z"></path>
      <path class="cls-6" d="M2.34,28.3a7,7,0,0,0,2.57,3A17.52,17.52,0,0,0,8.38,33.2a41.24,41.24,0,0,0,7.67,2.18c2.63.5,5.3.86,8,1.13s5.38.46,8.09.73c-1.36.12-2.71.15-4.07.23s-2.72,0-4.09,0a55.94,55.94,0,0,1-8.14-.87A32.61,32.61,0,0,1,8,34.05a15.4,15.4,0,0,1-3.44-2.32A5.68,5.68,0,0,1,3.81,31a5.65,5.65,0,0,1-.64-.82A4.38,4.38,0,0,1,2.34,28.3Z"></path>
      <path class="cls-6" d="M43.5,108.21a16.06,16.06,0,0,1-3.81-2.42,9.08,9.08,0,0,1-2.76-3.71,5.28,5.28,0,0,1-.34-2.4,6.05,6.05,0,0,1,.73-2.33,11.2,11.2,0,0,1,3.19-3.44,31,31,0,0,1,8.13-4,62.74,62.74,0,0,1,8.69-2.27c-2.81,1-5.62,2-8.36,3.15a36.78,36.78,0,0,0-7.74,4.13,10.22,10.22,0,0,0-2.92,3,4.78,4.78,0,0,0-.5,3.89,9.23,9.23,0,0,0,2.28,3.58A19.56,19.56,0,0,0,43.5,108.21Z"></path>
      <path class="cls-6" d="M33.55,35.43a5.52,5.52,0,0,0-.4,4.72c1.23,3,3.9,4.85,6.56,6.13a20.33,20.33,0,0,1-3.41-2.84A8.87,8.87,0,0,1,34,39.86a4.81,4.81,0,0,1,.49-3.9,10,10,0,0,1,2.93-3l.13-.09-1.27-.54A10.7,10.7,0,0,0,33.55,35.43Z"></path>
      <path class="cls-5" d="M55.76,30.63A82.3,82.3,0,0,0,46,30.47a28,28,0,0,0-8.23,1.31l-1.44.54,1.27.54a39,39,0,0,1,8.73-1.54C49.4,31,52.58,30.85,55.76,30.63Z"></path>
      <path class="cls-6" d="M32.53,90.89a16.14,16.14,0,0,0-3.64.42,8.41,8.41,0,0,0-3.3,1.8,4.2,4.2,0,0,0-1.25,2.22l.32.23a4.69,4.69,0,0,1,1.52-1.75,9.2,9.2,0,0,1,3-1.34,65.93,65.93,0,0,1,6.91-1.15A16.55,16.55,0,0,0,32.53,90.89Z"></path>
      <path class="cls-6" d="M31.38,85.53c2.4-1.17,4.88-2.11,7.3-3.16S43.5,80.25,45.82,79a46.37,46.37,0,0,0,6.64-4.14,19,19,0,0,0,5.24-5.77,15.24,15.24,0,0,1-4.65,6.49,34.35,34.35,0,0,1-6.67,4.49A60.94,60.94,0,0,1,39,83.25c-1.26.44-2.53.84-3.8,1.21Z"></path>
      <path class="cls-4" d="M64.32,104.72c2.39-1.17,4.88-2.1,7.3-3.15s4.82-2.12,7.14-3.33a46.66,46.66,0,0,0,6.63-4.15,18.77,18.77,0,0,0,5.24-5.76A15.19,15.19,0,0,1,86,94.82a34.3,34.3,0,0,1-6.67,4.48A58.88,58.88,0,0,1,72,102.44c-1.25.45-2.52.84-3.8,1.21Z"></path>
      <path class="cls-5" d="M67.53,34.53a46.35,46.35,0,0,1,12.38-12.9,30.19,30.19,0,0,1,8.09-4,22.5,22.5,0,0,1,4.45-.89,19.23,19.23,0,0,1,4.49.2,23.75,23.75,0,0,0-8.63,1.58,35.9,35.9,0,0,0-7.72,4.14,60.44,60.44,0,0,0-6.86,5.54C71.58,30.18,69.49,32.29,67.53,34.53Z"></path>
      <path class="cls-4" d="M114.08,25.56a11.9,11.9,0,0,0-7,1.23c1.18-.12,2.33-.21,3.46-.23a17.81,17.81,0,0,1,3.36.19,10.55,10.55,0,0,1,2.42.58l.12-1A11.16,11.16,0,0,0,114.08,25.56Z"></path>
      <path class="cls-6" d="M6.71,58.16a23,23,0,0,1,4.87.72,24.82,24.82,0,0,1,4.67,1.68,12.88,12.88,0,0,1,4.06,3,6.21,6.21,0,0,1,1.26,2.24,4.53,4.53,0,0,1,0,2.5,5.76,5.76,0,0,0-2-4.1,16.11,16.11,0,0,0-3.9-2.55A80.84,80.84,0,0,0,6.71,58.16Z"></path>
      <path class="cls-6" d="M31.21,79.8c1.51-2,3-4.1,4.42-6.15s2.84-4.14,4.15-6.28a55.86,55.86,0,0,0,3.58-6.58,24.51,24.51,0,0,0,2.22-7.14,17.91,17.91,0,0,1-1.35,7.5,36.75,36.75,0,0,1-1.54,3.52c-.61,1.12-1.21,2.25-1.89,3.33a59.14,59.14,0,0,1-4.42,6.21A53.66,53.66,0,0,1,31.21,79.8Z"></path>
      <ellipse class="cls-1" cx="60.77" cy="18.09" rx="13.57" ry="5.31"></ellipse>
      <ellipse class="cls-7" cx="61.12" cy="19.88" rx="11.18" ry="4.37"></ellipse>
    </g>
  </g>
</svg>
