<?xml version="1.0" encoding="UTF-8"?>
<svg xmlns="http://www.w3.org/2000/svg" xmlns:xlink="http://www.w3.org/1999/xlink" viewBox="0 0 101.86 249.09">
  <defs>
    <style>.cls-1{fill:#63411e;}.cls-2{fill:#956d4b;}.cls-3{fill:#44281c;}.cls-4{fill:#714d31;}.cls-5{fill:#613922;}.cls-6{fill:#7f5637;}.cls-7{fill:#a07850;}.cls-8{fill:url(#Безымянный_градиент_26);}.cls-9{fill:url(#Безымянный_градиент_7);}.cls-10{fill:#c5ba9f;}.cls-11{fill:#d7b389;}.cls-12{fill:#7eb14d;}.cls-13{fill:#627b38;}.cls-14{fill:#256337;}.cls-15{fill:#4d8c3f;}.cls-16{fill:#93c6ee;}.cls-17{fill:#c9e2f6;}.cls-18{fill:#aed4f2;}</style>
    <radialGradient id="Безымянный_градиент_26" cx="47.79" cy="231" r="54.35" gradientTransform="translate(97.62 358.62) rotate(179.09) scale(1 0.56)" gradientUnits="userSpaceOnUse">
      <stop offset="0.02" stop-color="#a07450"></stop>
      <stop offset="0.27" stop-color="#9a6d4a"></stop>
      <stop offset="0.62" stop-color="#8a5b39"></stop>
      <stop offset="1" stop-color="#72401f"></stop>
    </radialGradient>
    <linearGradient id="Безымянный_градиент_7" x1="33.91" y1="342.94" x2="55.06" y2="207.49" gradientUnits="userSpaceOnUse">
      <stop offset="0.38" stop-color="#a17551"></stop>
      <stop offset="0.91" stop-color="#794826"></stop>
      <stop offset="1" stop-color="#72401f"></stop>
    </linearGradient>
  </defs>
  <g id="Слой_2" data-name="Слой 2">
    <g id="Слой_1-2" data-name="Слой 1">
      <path class="cls-1" d="M3.09,164.12,100,165.68s.91-17,0-19.84c-1.32-4.2-8.72-16.58-45.38-17.48S4.53,139,2.48,144.8,3.09,164.12,3.09,164.12Z"></path>
      <polygon class="cls-2" points="8.29 204.27 3.09 169.3 98.7 169.3 95 204.02 8.29 204.27"></polygon>
      <path class="cls-3" d="M39.12,199.24a7.26,7.26,0,0,0-2.47-1.45v0s-3.28-1-5.07,1.23-1.48,4.59-.67,5a10.35,10.35,0,0,0,1.41.29s.05,0,.09,0a26.07,26.07,0,0,0,3-.68,1.58,1.58,0,0,0,.52-.14l.57-.17c1.28-.4,1.44-.11,2.33-.88a3.47,3.47,0,0,0,.95-2.21,3.16,3.16,0,0,0-.18-.44h0l0,0A.82.82,0,0,0,39.12,199.24Z"></path>
      <path class="cls-3" d="M21.5,202.13A9.4,9.4,0,0,0,18,203.28v0s-3.73,2.34-3.12,5.94,3.18,5.33,4.24,4.87a13.67,13.67,0,0,0,1.49-1.12s0-.08,0-.11c.79-.91,1.38-2.74,1.91-3.52a1.8,1.8,0,0,0,.31-.63c.09-.17.18-.36.33-.68.7-1.58,1.11-1.49,1.12-3A4.42,4.42,0,0,0,23,202.21a2.9,2.9,0,0,0-.57-.19v0h-.07A1.07,1.07,0,0,0,21.5,202.13Z"></path>
      <path class="cls-3" d="M37.29,208.47a2.66,2.66,0,0,0-1.09-.27h0a2,2,0,0,0-1.77,1c-.43,1,0,1.89.3,1.94a4.72,4.72,0,0,0,.57,0s0,0,0,0a9.5,9.5,0,0,0,1.07-.6.7.7,0,0,0,.18-.11l.19-.12c.44-.3.53-.21.78-.6a1.33,1.33,0,0,0,.11-.93l-.12-.14h0A.31.31,0,0,0,37.29,208.47Z"></path>
      <path class="cls-3" d="M78.17,200.1a1.91,1.91,0,0,0-.1-.78h0s-.33-.87-1.1-.89-1.24.43-1.19.67a1.86,1.86,0,0,0,.17.36h0a7.34,7.34,0,0,0,.65.55l.12.09.13.09c.3.22.26.3.57.36a.92.92,0,0,0,.64-.16.36.36,0,0,0,.06-.11h0A.28.28,0,0,0,78.17,200.1Z"></path>
      <path class="cls-3" d="M89.82,214.15a9.57,9.57,0,0,0-1.65-3.32h0s-2.87-3.39-6.38-2.25-4.86,3.94-4.24,4.93a11.57,11.57,0,0,0,1.32,1.33s.09,0,.12,0c1,.67,2.94,1,3.79,1.41a2.23,2.23,0,0,0,.67.22l.73.22c1.68.47,1.65.9,3.16.69A4.45,4.45,0,0,0,90,215.64a2.58,2.58,0,0,0,.11-.6h0l0-.06A1.06,1.06,0,0,0,89.82,214.15Z"></path>
      <path class="cls-3" d="M67.15,202.61A7.21,7.21,0,0,0,65.53,205l0,0s-1.21,3.18.84,5.12,4.44,1.81,4.88,1a10.16,10.16,0,0,0,.4-1.38s0,0,0-.08a24.22,24.22,0,0,0-.46-3.06A1.44,1.44,0,0,0,71,206c0-.14-.06-.3-.12-.57-.3-1.3,0-1.43-.7-2.37A3.43,3.43,0,0,0,68.1,202a2.39,2.39,0,0,0-.44.14h0l0,0A.82.82,0,0,0,67.15,202.61Z"></path>
      <path class="cls-4" d="M67.31,226.38a1.36,1.36,0,0,0,1.36-.36c.47-.6.37-1.24.15-1.34a2.38,2.38,0,0,0-.38-.07c-.26,0-.28.6-.29.61S67.31,226.38,67.31,226.38Z"></path>
      <path class="cls-5" d="M66.49,225.88s.76.69,1.07.48a8,8,0,0,1,.7-.4l0-.21a3,3,0,0,0-.83-.28c-.16,0-.43.15-.5.16A4.23,4.23,0,0,0,66.49,225.88Z"></path>
      <path class="cls-6" d="M66.44,225.76c0,.09.11.31.34.24a3.23,3.23,0,0,0,.46-.2s.23-.71.28-.84.13-.17-.21-.05-.39,0-.63.25A1,1,0,0,0,66.44,225.76Z"></path>
      <path class="cls-7" d="M67.24,225.8a3.81,3.81,0,0,0,.11-.6c0-.27,0-.34.25-.38s.72-.28,1-.19.22.07.22.38a1.09,1.09,0,0,1-.33.75.6.6,0,0,1-.66.28A1.52,1.52,0,0,1,67.24,225.8Z"></path>
      <path class="cls-4" d="M58,221.06s2.08.12,2.82-1.44.22-2.92-.31-3a6.89,6.89,0,0,0-.88,0c-.57,0-.32,1.45-.34,1.48S58,221.06,58,221.06Z"></path>
      <path class="cls-5" d="M56,220.35s2,1.15,2.59.54,1.34-1.22,1.34-1.22l-.14-.45a6.36,6.36,0,0,0-2-.22c-.32.18-.86.54-1,.6A9.2,9.2,0,0,0,56,220.35Z"></path>
      <path class="cls-6" d="M55.83,220.11c.1.18.38.64.86.35a8.34,8.34,0,0,0,.91-.65s.16-1.68.22-2,.2-.43-.5,0-.84.27-1.25.85A2.06,2.06,0,0,0,55.83,220.11Z"></path>
      <path class="cls-7" d="M57.6,219.81a10.8,10.8,0,0,0,0-1.38c-.08-.61-.14-.76.36-.94s1.46-1,2-.89.52.05.67.73a2.47,2.47,0,0,1-.36,1.82,1.39,1.39,0,0,1-1.32.93A3.47,3.47,0,0,1,57.6,219.81Z"></path>
      <path class="cls-4" d="M49.38,227.81s1.62,1.23,3.08.37,1.77-2.24,1.4-2.62a6.62,6.62,0,0,0-.72-.46c-.48-.29-1,1-1.09,1Z"></path>
      <path class="cls-5" d="M48.12,226.11s1,2,1.81,1.86,1.74-.26,1.74-.26l.14-.44s-1.13-1.21-1.48-1.25-1,0-1.14-.06A7.63,7.63,0,0,0,48.12,226.11Z"></path>
      <path class="cls-6" d="M48.12,225.83c0,.2,0,.73.51.76a7.54,7.54,0,0,0,1.09,0s1.05-1.27,1.27-1.48.39-.24-.41-.28-.82-.24-1.47,0A2.07,2.07,0,0,0,48.12,225.83Z"></path>
      <path class="cls-7" d="M49.72,226.56a8.58,8.58,0,0,0,.72-1.14c.27-.53.31-.69.81-.56s1.72,0,2.12.38.39.33.14,1a2.36,2.36,0,0,1-1.29,1.27,1.35,1.35,0,0,1-1.57,0A3.67,3.67,0,0,1,49.72,226.56Z"></path>
      <path class="cls-4" d="M45.66,222.22a2.32,2.32,0,0,0,.08-2.37c-.75-1-1.83-1.2-2.09-.9a3.9,3.9,0,0,0-.31.59c-.18.38.83.73.84.76Z"></path>
      <path class="cls-5" d="M44.45,223.3s1.48-.9,1.29-1.51-.31-1.31-.31-1.31l-.34-.07s-.85.94-.86,1.2,0,.76,0,.88A6.15,6.15,0,0,0,44.45,223.3Z"></path>
      <path class="cls-6" d="M44.23,223.31c.16,0,.56,0,.54-.43a5.65,5.65,0,0,0-.09-.83s-1-.72-1.21-.87-.21-.28-.19.33-.13.64.1,1.12A1.52,1.52,0,0,0,44.23,223.31Z"></path>
      <path class="cls-7" d="M44.68,222.05a6.64,6.64,0,0,0-.92-.48c-.42-.17-.54-.18-.48-.58s-.11-1.31.15-1.64.23-.32.73-.17a1.82,1.82,0,0,1,1.05.9,1,1,0,0,1,.13,1.2A2.67,2.67,0,0,1,44.68,222.05Z"></path>
      <path class="cls-4" d="M38.3,224a1,1,0,0,0,.34-1c-.17-.53-.6-.74-.75-.64a1.24,1.24,0,0,0-.2.2c-.13.14.25.41.25.42S38.3,224,38.3,224Z"></path>
      <path class="cls-5" d="M37.67,224.26s.72-.18.72-.46,0-.58,0-.58l-.13-.08s-.47.28-.51.39-.08.32-.1.37A2.49,2.49,0,0,0,37.67,224.26Z"></path>
      <path class="cls-6" d="M37.57,224.24c.07,0,.24.06.28-.11a2.61,2.61,0,0,0,.07-.36s-.34-.43-.39-.51-.05-.15-.12.11-.13.25-.1.48A.66.66,0,0,0,37.57,224.24Z"></path>
      <path class="cls-7" d="M37.92,223.77a2.34,2.34,0,0,0-.32-.31c-.15-.13-.2-.15-.12-.3s.12-.56.27-.67.14-.1.32,0a.77.77,0,0,1,.32.5.45.45,0,0,1-.1.52A1.24,1.24,0,0,1,37.92,223.77Z"></path>
      <path class="cls-4" d="M36.05,228s1.42-2.29.12-4.1-3.18-2.07-3.64-1.53a7,7,0,0,0-.52,1c-.32.67,1.45,1.26,1.47,1.31S36.05,228,36.05,228Z"></path>
      <path class="cls-5" d="M34,229.9s2.55-1.56,2.23-2.62-.55-2.27-.55-2.27l-.6-.12s-1.46,1.63-1.47,2.1.07,1.31.06,1.52A10.27,10.27,0,0,0,34,229.9Z"></path>
      <path class="cls-6" d="M33.59,229.93c.27,0,1,0,.94-.76a11.07,11.07,0,0,0-.17-1.44s-1.81-1.23-2.12-1.49-.35-.49-.32.57-.21,1.11.19,1.95A2.72,2.72,0,0,0,33.59,229.93Z"></path>
      <path class="cls-7" d="M34.36,227.73a12.66,12.66,0,0,0-1.6-.81c-.73-.29-.94-.32-.84-1s-.2-2.27.25-2.85.39-.55,1.25-.3a3.18,3.18,0,0,1,1.84,1.55,1.81,1.81,0,0,1,.24,2.07A4.78,4.78,0,0,1,34.36,227.73Z"></path>
      <path class="cls-8" d="M9.8,229.9,8.29,204.27s43-22.08,86.71-.25L93.32,229.9Z"></path>
      <ellipse class="cls-9" cx="51.56" cy="229.9" rx="41.76" ry="19.2"></ellipse>
      <path class="cls-4" d="M70.56,226.23a1.39,1.39,0,0,0,1.36-.36c.47-.61.37-1.25.15-1.35a2.32,2.32,0,0,0-.39-.07c-.25,0-.27.6-.28.61S70.56,226.23,70.56,226.23Z"></path>
      <path class="cls-5" d="M69.74,225.72s.76.69,1.07.48a8,8,0,0,1,.7-.4l0-.21a3,3,0,0,0-.83-.28l-.5.17A3,3,0,0,0,69.74,225.72Z"></path>
      <path class="cls-6" d="M69.69,225.6c0,.09.1.32.34.24a3.23,3.23,0,0,0,.46-.2s.23-.71.28-.84.13-.16-.22-.05-.38,0-.62.25A1,1,0,0,0,69.69,225.6Z"></path>
      <path class="cls-7" d="M70.49,225.64a3.81,3.81,0,0,0,.11-.6c0-.27,0-.34.25-.38s.72-.28,1-.19.22.07.22.38a1.13,1.13,0,0,1-.33.76.63.63,0,0,1-.66.28A1.66,1.66,0,0,1,70.49,225.64Z"></path>
      <path class="cls-4" d="M61.28,220.91s2.08.11,2.82-1.45.22-2.92-.31-3a5.61,5.61,0,0,0-.88,0c-.57,0-.32,1.44-.34,1.47S61.28,220.91,61.28,220.91Z"></path>
      <path class="cls-5" d="M59.24,220.19s2,1.15,2.59.54,1.33-1.22,1.33-1.22l-.13-.45a6.11,6.11,0,0,0-2-.21c-.32.17-.86.53-1,.6A7.94,7.94,0,0,0,59.24,220.19Z"></path>
      <path class="cls-6" d="M59.08,220c.1.19.38.64.86.35a8.34,8.34,0,0,0,.91-.65s.16-1.68.22-2,.2-.43-.5,0-.84.27-1.25.86A2,2,0,0,0,59.08,220Z"></path>
      <path class="cls-7" d="M60.85,219.65a9.78,9.78,0,0,0-.05-1.38c-.07-.6-.13-.75.37-.94s1.46-1,2-.89.52.06.67.73a2.53,2.53,0,0,1-.37,1.82,1.37,1.37,0,0,1-1.31.93A3.47,3.47,0,0,1,60.85,219.65Z"></path>
      <path class="cls-4" d="M52.63,227.65s1.62,1.23,3.08.38,1.77-2.25,1.4-2.63a6.62,6.62,0,0,0-.72-.46c-.48-.28-1,1-1.09,1Z"></path>
      <path class="cls-5" d="M51.37,226s1,2,1.81,1.85a17,17,0,0,1,1.74-.25l.14-.45s-1.13-1.21-1.48-1.24-1,0-1.14-.07A7.46,7.46,0,0,0,51.37,226Z"></path>
      <path class="cls-6" d="M51.37,225.68c0,.2,0,.72.51.75a7.63,7.63,0,0,0,1.09,0s1.05-1.27,1.27-1.48.39-.24-.41-.28-.82-.24-1.48,0A2.08,2.08,0,0,0,51.37,225.68Z"></path>
      <path class="cls-7" d="M53,226.4a9.88,9.88,0,0,0,.72-1.14c.27-.53.31-.69.81-.56s1.72,0,2.12.38.39.33.14,1a2.44,2.44,0,0,1-1.29,1.28,1.37,1.37,0,0,1-1.57,0A3.52,3.52,0,0,1,53,226.4Z"></path>
      <path class="cls-4" d="M48.91,222.06a2.31,2.31,0,0,0,.08-2.37c-.75-1.05-1.83-1.2-2.1-.89a4.28,4.28,0,0,0-.3.58c-.19.38.83.73.84.76Z"></path>
      <path class="cls-5" d="M47.7,223.14s1.47-.89,1.29-1.5-.31-1.32-.31-1.32l-.34-.07s-.86.94-.86,1.21,0,.76,0,.87A6.15,6.15,0,0,0,47.7,223.14Z"></path>
      <path class="cls-6" d="M47.48,223.16c.16,0,.56,0,.54-.44a5.65,5.65,0,0,0-.09-.83s-1-.72-1.21-.87-.21-.28-.19.33-.13.64.1,1.12A1.56,1.56,0,0,0,47.48,223.16Z"></path>
      <path class="cls-7" d="M47.93,221.89a6.64,6.64,0,0,0-.92-.48c-.42-.16-.54-.18-.48-.58s-.11-1.31.15-1.64.23-.32.73-.17a1.85,1.85,0,0,1,1.05.9,1,1,0,0,1,.13,1.2A2.67,2.67,0,0,1,47.93,221.89Z"></path>
      <path class="cls-4" d="M41.55,223.81a1,1,0,0,0,.34-1c-.18-.53-.6-.73-.75-.64l-.2.2c-.13.14.25.41.25.42S41.55,223.81,41.55,223.81Z"></path>
      <path class="cls-5" d="M40.91,224.1s.73-.18.73-.46a5.34,5.34,0,0,1,0-.58l-.13-.07s-.47.28-.51.39-.08.32-.1.36A2.73,2.73,0,0,0,40.91,224.1Z"></path>
      <path class="cls-6" d="M40.82,224.08c.07,0,.23.06.28-.11a2.61,2.61,0,0,0,.07-.36s-.34-.43-.39-.51-.05-.15-.12.11-.14.25-.1.48A.66.66,0,0,0,40.82,224.08Z"></path>
      <path class="cls-7" d="M41.17,223.61a2.34,2.34,0,0,0-.32-.31c-.15-.13-.2-.15-.12-.3s.12-.56.27-.66.13-.11.32,0a.77.77,0,0,1,.32.51.44.44,0,0,1-.1.51A1,1,0,0,1,41.17,223.61Z"></path>
      <path class="cls-4" d="M39.3,227.87s1.42-2.29.12-4.11-3.18-2.07-3.64-1.53a7.63,7.63,0,0,0-.52,1c-.32.67,1.44,1.27,1.47,1.31S39.3,227.87,39.3,227.87Z"></path>
      <path class="cls-5" d="M37.21,229.74s2.55-1.56,2.23-2.61-.55-2.27-.55-2.27l-.6-.13s-1.46,1.63-1.47,2.1.07,1.31.06,1.52A10.27,10.27,0,0,0,37.21,229.74Z"></path>
      <path class="cls-6" d="M36.84,229.77c.27,0,1,0,.93-.76a10.13,10.13,0,0,0-.16-1.44s-1.81-1.23-2.12-1.49-.36-.49-.32.57-.21,1.12.19,1.95A2.66,2.66,0,0,0,36.84,229.77Z"></path>
      <path class="cls-7" d="M37.61,227.57a12.66,12.66,0,0,0-1.6-.81c-.74-.29-.94-.32-.84-1s-.2-2.27.25-2.85.39-.55,1.25-.3a3.22,3.22,0,0,1,1.84,1.55,1.79,1.79,0,0,1,.23,2.07A4.64,4.64,0,0,1,37.61,227.57Z"></path>
      <path class="cls-10" d="M55.27,176.66a16.9,16.9,0,0,0-.56-4.9l-.05-.13a1.07,1.07,0,0,0-1.37-.55,1,1,0,0,0-.57,1.32v0a15.16,15.16,0,0,1,1.07,6.69c-7.63,7.4-13.6,20-14.21,29.9a.38.38,0,0,0,.29.4h0a.36.36,0,0,0,.39-.34c.59-9.42,6.14-21.44,13.37-28.81l-.08,1a12.65,12.65,0,0,1-1.4,4.33c-.7,1.33-2.1,2.23-3.26,3.4a10.36,10.36,0,0,0-2.65,4.16l-1.74,4.62q-1.66,4.67-3.2,9.47h0a.07.07,0,0,0,0,.09s.07,0,.09,0c1-3.22,2.08-6.36,3.31-9.43l1.85-4.56a9.82,9.82,0,0,1,2.65-3.94c1.16-1.05,2.7-1.88,3.59-3.38l.11-.24c.37,10.08-.77,22.22-3.37,30.8a.37.37,0,0,0,.24.46h0a.37.37,0,0,0,.41-.25c2.72-9.06,3.93-22,3.35-32.42a17.31,17.31,0,0,0,1-2.89A21.85,21.85,0,0,0,55.27,176.66Z"></path>
      <path class="cls-3" d="M23.64,190.18a7.22,7.22,0,0,0-2.46-1.45v0s-3.29-1-5.08,1.23-1.48,4.59-.67,5a9.29,9.29,0,0,0,1.42.3s.05,0,.08,0a25.62,25.62,0,0,0,3-.68,1.73,1.73,0,0,0,.53-.14l.56-.17c1.29-.4,1.45-.11,2.34-.88a3.43,3.43,0,0,0,.94-2.21,2.27,2.27,0,0,0-.18-.44h0l0,0A.82.82,0,0,0,23.64,190.18Z"></path>
      <path class="cls-3" d="M59.48,198.75a4.8,4.8,0,0,0-1.76.58h0s-1.88,1.18-1.57,3,1.6,2.69,2.13,2.46a6.21,6.21,0,0,0,.75-.57s0,0,0,0a16,16,0,0,0,1-1.78,1,1,0,0,0,.16-.31l.16-.35c.36-.79.57-.75.57-1.51a2.26,2.26,0,0,0-.67-1.41l-.29-.1h0A.55.55,0,0,0,59.48,198.75Z"></path>
      <path class="cls-3" d="M32.06,203.92a2.78,2.78,0,0,0-1.09-.27h0a2,2,0,0,0-1.77,1c-.43,1-.05,1.89.3,1.94a3.14,3.14,0,0,0,.57,0l0,0a7.56,7.56,0,0,0,1.07-.6.43.43,0,0,0,.18-.11l.2-.12c.43-.29.53-.2.77-.59a1.36,1.36,0,0,0,.11-.94.69.69,0,0,0-.12-.14h0A.38.38,0,0,0,32.06,203.92Z"></path>
      <path class="cls-3" d="M83.3,193.52a1.88,1.88,0,0,0-.1-.77h0s-.33-.87-1.11-.9-1.24.44-1.18.68a1.86,1.86,0,0,0,.17.36s0,0,0,0a6,6,0,0,0,.65.54.29.29,0,0,0,.12.09.53.53,0,0,0,.13.1c.29.21.26.29.57.36a1,1,0,0,0,.64-.16l.06-.11h0A.31.31,0,0,0,83.3,193.52Z"></path>
      <path class="cls-3" d="M88.18,210.94a9.57,9.57,0,0,0-1.65-3.32h0s-2.87-3.38-6.38-2.25-4.86,3.94-4.24,4.94a12.48,12.48,0,0,0,1.32,1.32s.09,0,.12,0c1,.67,2.94,1,3.79,1.41a2,2,0,0,0,.67.22l.73.22c1.68.47,1.65.9,3.16.69a4.45,4.45,0,0,0,2.59-1.74,2.58,2.58,0,0,0,.11-.6h0l0-.06A1.06,1.06,0,0,0,88.18,210.94Z"></path>
      <path class="cls-3" d="M16.81,205.49a7.41,7.41,0,0,0-1.61,2.33h0S14,211,16,212.93s4.44,1.81,4.88,1a10.16,10.16,0,0,0,.4-1.38s0-.05,0-.08a24.77,24.77,0,0,0-.45-3.07,1.42,1.42,0,0,0-.1-.53c0-.14-.06-.3-.12-.57-.3-1.3,0-1.44-.7-2.37a3.43,3.43,0,0,0-2.12-1.1,2.17,2.17,0,0,0-.44.14h0l0,0A.88.88,0,0,0,16.81,205.49Z"></path>
      <ellipse class="cls-3" cx="50.9" cy="171.12" rx="47.8" ry="19.2"></ellipse>
      <path class="cls-1" d="M0,148l9.8,81.9s-1.51,11.55,25.92,17.76c0,0,22.94,4.88,45.19-4.11,0,0,9.11-4.53,12.41-10.73L101.79,148s1.87,6.83-13.35,14l-7.53,68.58s-24.2,13.21-52.15,1.08l-9.19-67.93S0,159.08,0,148Z"></path>
      <path class="cls-11" d="M50.9,127.56C22.79,127.56,0,136.72,0,148c0,6.55,7.66,12.37,19.57,16.12h0a4.72,4.72,0,0,1,.75-.4C9.06,160.11,1.83,154.24,1.83,148c0-10.88,22-19.7,49.07-19.7S100,137.12,100,148c0,5.25-5,10.3-13.39,13.84.49.17,1.87.48,1.87.48,8.33-3.64,13.35-9,13.35-14.32C101.79,136.72,79,127.56,50.9,127.56Z"></path>
      <path class="cls-11" d="M19.57,164.05,28.76,232s23.33,12.35,52.15-1.07l7.53-68.59-1.87-.48-6.36,68.7s-24.77,13.11-50.62.9l-9.27-67.72Z"></path>
      <path class="cls-12" d="M44.73,142.3a137.37,137.37,0,0,1,5,13.5c.68,2.3,1.36,4.61,1.83,7,.23,1.18.47,2.36.6,3.57a16.12,16.12,0,0,0,.61,3.63.76.76,0,0,1-.41,1,.75.75,0,0,1-1-.41.83.83,0,0,1,0-.56v0a8,8,0,0,0,.13-3.55c-.1-1.19-.31-2.36-.51-3.54-.43-2.35-1-4.67-1.68-7a102,102,0,0,0-5-13.41.27.27,0,0,1,.11-.35.25.25,0,0,1,.34.12Z"></path>
      <path class="cls-13" d="M45.27,142.66c-.29.08-.44-.25-.21-.46a21.58,21.58,0,0,0,3.79-5.48,24.39,24.39,0,0,1,3.68-5.11c1.74-1.74,4-3.16,6.86-2.38,5.72,1.64,6.54,6.07,4.81,9.53s-7.93,4.45-12.31,4c-1.92-.21-2.64-.4-3.36-.51A7.49,7.49,0,0,0,45.27,142.66Z"></path>
      <path class="cls-13" d="M44.4,144.11a53.68,53.68,0,0,0-3.18,4.51c-1.33,2.29-2.4,4.26-.11,5.38a4.79,4.79,0,0,0,1.69.08,5.71,5.71,0,0,0,3.83-2.16C49.47,148.54,46.65,144.49,44.4,144.11Z"></path>
      <path class="cls-13" d="M43.75,142.49s-.4-.83-.85-2a11.55,11.55,0,0,1-.87-4.09c.06-1.46-1.68-2.92-3.51-3.77a19.44,19.44,0,0,0-3.78-1.24c-.15-.07.42,1.38.78,3a8.61,8.61,0,0,1,.28,3.86,3.69,3.69,0,0,0,.81,3.24C37.6,142.64,39.43,143.15,43.75,142.49Z"></path>
      <path class="cls-12" d="M44.68,142.64c2.53-1.63,5.12-3.16,7.8-4.55,1.35-.69,2.7-1.34,4.09-1.94.69-.31,1.39-.59,2.1-.86l1.09-.36c.37-.1.74-.19,1.13-.26-.69.33-1.4.58-2.11.86s-1.41.55-2.09.86c-1.39.61-2.73,1.27-4.07,2s-2.65,1.43-3.95,2.19-2.59,1.52-3.86,2.33a.14.14,0,0,1-.19,0A.15.15,0,0,1,44.68,142.64Z"></path>
      <path class="cls-12" d="M51,138.92a6.41,6.41,0,0,1,1.44-.2,7.88,7.88,0,0,1,1.45.05,9.43,9.43,0,0,1,1.46.29,10,10,0,0,1,1.42.56,9.61,9.61,0,0,0-1.43-.48,7.27,7.27,0,0,0-1.45-.22,8.51,8.51,0,0,0-1.43,0,6.26,6.26,0,0,0-1.37.26h0a.15.15,0,0,1-.18-.1.16.16,0,0,1,.09-.18Z"></path>
      <path class="cls-12" d="M56.41,136.27a14,14,0,0,1,2.36.31,7.53,7.53,0,0,1,1.17.37,3,3,0,0,1,1.1.73,2.67,2.67,0,0,0-1.11-.66,8.69,8.69,0,0,0-1.16-.31,14.32,14.32,0,0,0-2.33-.18.14.14,0,0,1-.14-.13.1.1,0,0,1,.1-.13Z"></path>
      <path class="cls-12" d="M54.93,136.86a4.1,4.1,0,0,0,.48-.76,6.58,6.58,0,0,0,.35-.87,9.29,9.29,0,0,0,.27-.94c.07-.32.13-.65.18-1,0,.34-.07.68-.12,1a7.57,7.57,0,0,1-.2,1,7.07,7.07,0,0,1-.3.92,4.35,4.35,0,0,1-.46.85.12.12,0,0,1-.18,0,.15.15,0,0,1,0-.2h0Z"></path>
      <path class="cls-12" d="M44.87,142.81l-.09.14-.06.18c0,.12-.09.24-.13.36l-.18.71c-.13.49-.26,1-.38,1.42l-.75,2.71c-.25.91-.49,1.76-.71,2.52a11.15,11.15,0,0,0-.4,2.29,6.25,6.25,0,0,1,.29-2.28c.21-.76.45-1.61.7-2.53s.48-1.76.73-2.71c.12-.46.24-.94.37-1.42l.18-.72.08-.37,0-.19.07-.22a.16.16,0,0,1,.18-.12.11.11,0,0,1,.09.15v0Z"></path>
      <path class="cls-12" d="M43.36,148.13a11.25,11.25,0,0,1,1.64.29,5.41,5.41,0,0,1,.81.24,2,2,0,0,1,.69.4,2,2,0,0,0-.72-.36c-.26-.08-.54-.14-.82-.2a11.86,11.86,0,0,0-1.67-.19c-.06,0-.09-.05-.07-.1a.15.15,0,0,1,.13-.08Z"></path>
      <path class="cls-12" d="M42.89,149.56a4.88,4.88,0,0,1,1.21.6,2.56,2.56,0,0,1,.92.9,2.66,2.66,0,0,0-1-.86,5.56,5.56,0,0,0-1.24-.55h0s0,0,0-.06a.08.08,0,0,1,.09,0Z"></path>
      <path class="cls-12" d="M42.48,151.22a4.06,4.06,0,0,1,.74.69,2.88,2.88,0,0,1,.3.39,1,1,0,0,1,.17.45.9.9,0,0,0-.2-.43,4,4,0,0,0-.32-.38,3.77,3.77,0,0,0-.79-.63h0a0,0,0,0,1,0-.07.08.08,0,0,1,.09,0Z"></path>
      <path class="cls-12" d="M44.61,142.81v0h0l0,0-.1-.05-.21-.1-.44-.18-.86-.36c-.56-.26-1.14-.48-1.67-.76a8.68,8.68,0,0,1-2.83-2,4.3,4.3,0,0,1-.84-1.6,5.14,5.14,0,0,1-.15-1c0-.34-.07-.67-.13-1a10.07,10.07,0,0,0-.54-1.93,4,4,0,0,0-.48-.86,1.61,1.61,0,0,0-.35-.34.52.52,0,0,0-.47-.07.54.54,0,0,1,.48.06,1.61,1.61,0,0,1,.35.34,4.08,4.08,0,0,1,.51.85,10,10,0,0,1,.57,1.93c.06.32.11.66.14,1a5.64,5.64,0,0,0,.17,1,4.19,4.19,0,0,0,.85,1.54,8.5,8.5,0,0,0,2.85,1.93c.52.27,1.11.48,1.67.72l.87.35.45.17.22.1.11.05.06,0,0,0,0,0,0,.06a.15.15,0,0,1-.1.18A.12.12,0,0,1,44.61,142.81Z"></path>
      <path class="cls-12" d="M39.05,139.91a8,8,0,0,1-.17-1.4A7.79,7.79,0,0,1,39,137c.09-.53.25-1,.3-1.53a3.22,3.22,0,0,0,0-.76A1.22,1.22,0,0,0,39,134a1.23,1.23,0,0,1,.31.66,3.29,3.29,0,0,1,0,.77,13.18,13.18,0,0,1-.25,1.53,7.37,7.37,0,0,0-.08,1.47,7.54,7.54,0,0,0,.19,1.37h0a.09.09,0,0,1-.06.1.05.05,0,0,1-.08,0Z"></path>
      <path class="cls-12" d="M41.57,141.45a6.4,6.4,0,0,1-.41-.83,2.54,2.54,0,0,1-.14-.47,1.36,1.36,0,0,1,0-.53,3.59,3.59,0,0,0,.08-1c0-.35,0-.66-.07-1l.13,1a3.39,3.39,0,0,1,0,1,1.59,1.59,0,0,0,.18.89,8.19,8.19,0,0,0,.45.77h0a.11.11,0,0,1,0,.16.1.1,0,0,1-.16,0Z"></path>
      <path class="cls-14" d="M45,142.67a4.44,4.44,0,0,0-.73-1.4,1.88,1.88,0,0,0-2.29-.76,2.73,2.73,0,0,0,.43,1.28C42.75,142.4,43.48,142.88,45,142.67Z"></path>
      <path class="cls-12" d="M44.39,142.71a5.25,5.25,0,0,1-.56,0,2,2,0,0,1-1-.38,2.19,2.19,0,0,1-.63-.78,2.79,2.79,0,0,1-.27-1v0h0a1.89,1.89,0,0,1,1-.05,1.92,1.92,0,0,1,.86.5,3.76,3.76,0,0,1,.64.79,4.32,4.32,0,0,1,.46.91Zm.21-1a4.23,4.23,0,0,0-.63-.83,2.09,2.09,0,0,0-.92-.51,1.73,1.73,0,0,0-1.11.14h0v0a3.35,3.35,0,0,0,.29,1,2.52,2.52,0,0,0,.63.78,2,2,0,0,0,1,.38,3.44,3.44,0,0,0,.56,0l.58-.05A3.31,3.31,0,0,0,44.6,141.69Z"></path>
      <path class="cls-15" d="M45,142.74a3.17,3.17,0,0,0-.57-1.12,1.51,1.51,0,0,0-1.84-.64,2.77,2.77,0,0,0,.34,1C43.21,142.51,43.8,142.91,45,142.74Z"></path>
      <path class="cls-12" d="M44.53,142.78a2.22,2.22,0,0,1-.45,0,1.62,1.62,0,0,1-.78-.3,2.06,2.06,0,0,1-.7-1.47v0a1.54,1.54,0,0,1,.85,0,1.66,1.66,0,0,1,.68.42,3.51,3.51,0,0,1,.51.63,6.18,6.18,0,0,1,.36.73Zm.17-.82a2.72,2.72,0,0,0-.5-.67,1.45,1.45,0,0,0-.72-.42,1.48,1.48,0,0,0-.9.09h0a2.77,2.77,0,0,0,.23.82,1.55,1.55,0,0,0,.49.64,1.66,1.66,0,0,0,.79.31,2.22,2.22,0,0,0,.45,0l.47,0A2.88,2.88,0,0,0,44.7,142Z"></path>
      <path class="cls-4" d="M48.77,175.57a1.4,1.4,0,0,0-1.33-.49c-.74.23-1,.82-.9,1a3.21,3.21,0,0,0,.27.28c.19.17.58-.34.59-.34S48.77,175.57,48.77,175.57Z"></path>
      <path class="cls-5" d="M49.16,176.46s-.23-1-.61-1-.81-.07-.81-.07l-.1.18s.37.66.52.71.44.12.5.15A3.41,3.41,0,0,0,49.16,176.46Z"></path>
      <path class="cls-6" d="M49.13,176.59c0-.09.09-.32-.15-.39a3.49,3.49,0,0,0-.49-.1s-.6.45-.72.52-.2.07.15.17.34.19.66.15A.94.94,0,0,0,49.13,176.59Z"></path>
      <path class="cls-7" d="M48.49,176.1a3.6,3.6,0,0,0-.44.43c-.18.21-.21.27-.42.16s-.77-.18-.91-.39-.13-.19,0-.44a1.08,1.08,0,0,1,.71-.43.61.61,0,0,1,.71.15A1.67,1.67,0,0,1,48.49,176.1Z"></path>
      <path class="cls-4" d="M45.75,158.51a2,2,0,0,0-2.06-.29c-1,.55-1.23,1.48-1,1.74a3.58,3.58,0,0,0,.48.32c.31.2.72-.65.74-.66Z"></path>
      <path class="cls-5" d="M46.57,159.67s-.64-1.37-1.19-1.27-1.17.15-1.17.15l-.1.29s.74.83,1,.86.67,0,.77.06A5.39,5.39,0,0,0,46.57,159.67Z"></path>
      <path class="cls-6" d="M46.57,159.86c0-.13,0-.48-.33-.51a5.24,5.24,0,0,0-.74,0s-.72.84-.87,1-.27.15.27.19.55.17,1,0A1.43,1.43,0,0,0,46.57,159.86Z"></path>
      <path class="cls-7" d="M45.5,159.35a6.27,6.27,0,0,0-.5.76c-.19.35-.21.45-.55.36s-1.15,0-1.42-.29-.26-.23-.08-.64a1.62,1.62,0,0,1,.88-.84.91.91,0,0,1,1.06,0A2.35,2.35,0,0,1,45.5,159.35Z"></path>
      <path class="cls-4" d="M41.67,164.77s-4.25-2.12-7.22.47-3.11,5.91-2.1,6.63a15,15,0,0,0,1.86.75c1.23.45,2-2.74,2.06-2.79S41.67,164.77,41.67,164.77Z"></path>
      <path class="cls-5" d="M45.29,168.13s-3.15-4.22-4.94-3.49-3.9,1.34-3.9,1.34l-.12,1.07s3.11,2.31,3.93,2.24,2.29-.34,2.65-.34A19.41,19.41,0,0,0,45.29,168.13Z"></path>
      <path class="cls-6" d="M45.42,168.77c0-.47-.22-1.68-1.49-1.51a17.54,17.54,0,0,0-2.5.53s-1.86,3.38-2.27,4-.79.7,1.05.46,2,.19,3.4-.65A4.8,4.8,0,0,0,45.42,168.77Z"></path>
      <path class="cls-7" d="M41.43,167.79a21.72,21.72,0,0,0-1.16,2.93c-.38,1.34-.4,1.71-1.62,1.65s-3.94.72-5,0-1-.59-.74-2.14,1-2.28,2.41-3.48a3.17,3.17,0,0,1,3.6-.76A8.13,8.13,0,0,1,41.43,167.79Z"></path>
      <path class="cls-4" d="M56.36,165.66s-3.57-2.09-6.3,0-3.06,5-2.22,5.63a12.28,12.28,0,0,0,1.57.76c1,.47,1.89-2.26,2-2.29S56.36,165.66,56.36,165.66Z"></path>
      <path class="cls-5" d="M59.3,168.79s-2.48-3.85-4.08-3.32-3.46.93-3.46.93l-.17.92s2.55,2.19,3.27,2.18,2-.16,2.32-.14A15.54,15.54,0,0,0,59.3,168.79Z"></path>
      <path class="cls-6" d="M59.37,169.36c0-.41-.09-1.47-1.2-1.4a16.56,16.56,0,0,0-2.2.31s-1.82,2.82-2.21,3.29-.73.57.88.47,1.72.29,3-.36A4.14,4.14,0,0,0,59.37,169.36Z"></path>
      <path class="cls-7" d="M56,168.27a19.66,19.66,0,0,0-1.19,2.48c-.41,1.13-.45,1.45-1.5,1.32s-3.47.39-4.37-.28-.87-.57-.51-1.9,1-1.92,2.3-2.88a2.75,2.75,0,0,1,3.17-.44A7.15,7.15,0,0,1,56,168.27Z"></path>
      <path class="cls-4" d="M65.79,161.9s-3.51-2.71-6.7-.87-3.92,4.85-3.12,5.7a12.81,12.81,0,0,0,1.57,1c1,.64,2.32-2.15,2.39-2.18S65.79,161.9,65.79,161.9Z"></path>
      <path class="cls-5" d="M68.51,165.63s-2.13-4.44-3.91-4.09-3.81.53-3.81.53l-.3,1s2.43,2.67,3.19,2.75,2.17.11,2.5.17A17.51,17.51,0,0,0,68.51,165.63Z"></path>
      <path class="cls-6" d="M68.5,166.24c0-.44.11-1.57-1.08-1.65a16.37,16.37,0,0,0-2.39,0s-2.32,2.75-2.8,3.21-.85.5.88.62,1.8.53,3.23,0A4.46,4.46,0,0,0,68.5,166.24Z"></path>
      <path class="cls-7" d="M65,164.63a21.19,21.19,0,0,0-1.6,2.47c-.59,1.16-.67,1.49-1.78,1.22s-3.74-.06-4.62-.89-.84-.73-.29-2.09,1.35-1.91,2.84-2.76a3,3,0,0,1,3.44,0A7.56,7.56,0,0,1,65,164.63Z"></path>
      <path class="cls-4" d="M68.51,173.26a2.12,2.12,0,0,0,1.95-1c.53-1.06.19-2-.18-2.09-.1,0-.41,0-.6,0-.39,0-.24,1-.25,1S68.51,173.26,68.51,173.26Z"></path>
      <path class="cls-5" d="M67.12,172.75s1.36.81,1.78.39.92-.82.92-.82l-.09-.31a4.46,4.46,0,0,0-1.34-.17l-.7.41A5.29,5.29,0,0,0,67.12,172.75Z"></path>
      <path class="cls-6" d="M67,172.58c.07.13.26.44.59.25a5.74,5.74,0,0,0,.63-.43s.13-1.16.18-1.36.14-.29-.35,0-.58.17-.87.57A1.43,1.43,0,0,0,67,172.58Z"></path>
      <path class="cls-7" d="M68.23,172.4a7.56,7.56,0,0,0,0-1c0-.42-.09-.52.26-.65s1-.65,1.39-.58.36,0,.45.5a1.68,1.68,0,0,1-.27,1.25,1,1,0,0,1-.91.63A2.57,2.57,0,0,1,68.23,172.4Z"></path>
      <path class="cls-4" d="M35.06,174A2.71,2.71,0,0,0,37.63,173c.76-1.3.41-2.53-.05-2.67a7.64,7.64,0,0,0-.77,0c-.5,0-.38,1.24-.41,1.27Z"></path>
      <path class="cls-5" d="M33.33,173.24s1.67,1.15,2.23.66a15.26,15.26,0,0,1,1.25-1l-.09-.41a5.74,5.74,0,0,0-1.7-.33c-.29.13-.79.41-.92.45A7.89,7.89,0,0,0,33.33,173.24Z"></path>
      <path class="cls-6" d="M33.21,173c.07.17.29.59.73.37a7.6,7.6,0,0,0,.84-.5s.26-1.45.34-1.72.2-.35-.44,0-.75.18-1.15.66A1.79,1.79,0,0,0,33.21,173Z"></path>
      <path class="cls-7" d="M34.78,172.89a7.68,7.68,0,0,0,.06-1.21c0-.53-.06-.67.39-.79s1.34-.75,1.82-.63.45.09.54.69a2.16,2.16,0,0,1-.45,1.56,1.2,1.2,0,0,1-1.22.71A3.1,3.1,0,0,1,34.78,172.89Z"></path>
      <path class="cls-4" d="M46.83,167.3a1.58,1.58,0,0,0,1.58.28c.78-.41,1-1.12.8-1.33a3.89,3.89,0,0,0-.36-.26c-.24-.16-.57.49-.59.5Z"></path>
      <path class="cls-5" d="M46.22,166.39s.46,1.08.89,1a8.65,8.65,0,0,1,.91-.09l.08-.22s-.55-.66-.73-.69-.52-.05-.59-.07S46.22,166.39,46.22,166.39Z"></path>
      <path class="cls-6" d="M46.22,166.24c0,.11,0,.38.25.41a3.74,3.74,0,0,0,.57,0s.57-.63.69-.74.21-.11-.2-.15-.42-.15-.77,0A1.11,1.11,0,0,0,46.22,166.24Z"></path>
      <path class="cls-7" d="M47,166.66a4.46,4.46,0,0,0,.4-.57c.15-.27.18-.35.44-.27s.89.05,1.09.25.19.19.05.51a1.23,1.23,0,0,1-.71.62.71.71,0,0,1-.82,0A1.88,1.88,0,0,1,47,166.66Z"></path>
      <path class="cls-4" d="M61.13,173.34s4,1,6-1.78,1.49-5.58.5-6a12.35,12.35,0,0,0-1.71-.27c-1.12-.15-1.15,2.69-1.2,2.74S61.13,173.34,61.13,173.34Z"></path>
      <path class="cls-5" d="M57.43,171.22s3.47,2.95,4.84,2,3-1.88,3-1.88l-.1-.92s-3.06-1.35-3.74-1.13-1.87.72-2.17.8A15.85,15.85,0,0,0,57.43,171.22Z"></path>
      <path class="cls-6" d="M57.2,170.7c.13.39.51,1.37,1.54,1a15.34,15.34,0,0,0,2-.93s.92-3.2,1.15-3.77.54-.74-1-.19-1.72.23-2.74,1.2A4.18,4.18,0,0,0,57.2,170.7Z"></path>
      <path class="cls-7" d="M60.75,170.75a19,19,0,0,0,.42-2.69c.06-1.2,0-1.52,1-1.7s3.19-1.36,4.24-1,1,.3,1,1.66-.41,2.12-1.36,3.4a2.72,2.72,0,0,1-2.89,1.33A6.94,6.94,0,0,1,60.75,170.75Z"></path>
      <path class="cls-4" d="M42.73,171s2.39,1.34,4.18-.07,2-3.32,1.4-3.77a8.48,8.48,0,0,0-1.05-.48c-.7-.3-1.23,1.53-1.27,1.55S42.73,171,42.73,171Z"></path>
      <path class="cls-5" d="M40.73,169s1.7,2.53,2.76,2.15a23.37,23.37,0,0,1,2.28-.66l.1-.62s-1.72-1.42-2.2-1.4-1.33.13-1.54.12A10.24,10.24,0,0,0,40.73,169Z"></path>
      <path class="cls-6" d="M40.68,168.62c0,.27.07,1,.81.92A10.32,10.32,0,0,0,43,169.3s1.17-1.9,1.43-2.22.48-.38-.6-.3-1.15-.17-2,.28A2.75,2.75,0,0,0,40.68,168.62Z"></path>
      <path class="cls-7" d="M43,169.3a12.41,12.41,0,0,0,.76-1.66c.26-.76.28-1,1-.9s2.3-.31,2.91.13.58.37.36,1.25a3.28,3.28,0,0,1-1.49,1.95,1.83,1.83,0,0,1-2.1.33A4.76,4.76,0,0,1,43,169.3Z"></path>
      <path class="cls-16" d="M30.08,55.53S17.55,68.19,23.69,75c6,6.65,15.42.59,12-8.46C32.59,58.45,30.08,55.53,30.08,55.53Z"></path>
      <path class="cls-17" d="M25.94,67.41c.44-1.31,1.41-4.29,1.8-5.37a27.26,27.26,0,0,1,1.69-3.49s1.2-2.3-1.84,1-4.94,9.37-4,9.72C24.31,69.54,25.52,68.69,25.94,67.41Z"></path>
      <path class="cls-18" d="M32.94,71.78c-.37,1.24-.19,2.38.39,2.55a2.26,2.26,0,0,0,2.28-1.69c.37-1.46-.37-2.66-1-2.78S33.31,70.55,32.94,71.78Z"></path>
      <path class="cls-16" d="M51,55.53S38.44,68.19,44.57,75c6,6.65,15.43.59,12-8.46C53.48,58.45,51,55.53,51,55.53Z"></path>
      <path class="cls-17" d="M46.83,67.41c.43-1.31,1.41-4.29,1.79-5.37a28.24,28.24,0,0,1,1.7-3.49s1.2-2.3-1.85,1-4.94,9.37-4,9.72C45.2,69.54,46.4,68.69,46.83,67.41Z"></path>
      <path class="cls-18" d="M53.83,71.78c-.37,1.24-.2,2.38.39,2.55a2.24,2.24,0,0,0,2.27-1.69c.37-1.46-.36-2.66-1-2.78S54.19,70.55,53.83,71.78Z"></path>
      <path class="cls-16" d="M71.85,55.53S59.33,68.19,65.46,75c6,6.65,15.43.59,12-8.46C74.37,58.45,71.85,55.53,71.85,55.53Z"></path>
      <path class="cls-17" d="M67.72,67.41c.43-1.31,1.4-4.29,1.79-5.37a28.24,28.24,0,0,1,1.7-3.49s1.2-2.3-1.85,1-4.94,9.37-4,9.72C66.09,69.54,67.29,68.69,67.72,67.41Z"></path>
      <path class="cls-18" d="M74.71,71.78c-.36,1.24-.19,2.38.39,2.55a2.25,2.25,0,0,0,2.28-1.69c.37-1.46-.37-2.66-.95-2.78S75.08,70.55,74.71,71.78Z"></path>
      <path class="cls-16" d="M42.89,27.77S30.36,40.43,36.5,47.25c6,6.65,15.42.59,12-8.45C45.4,30.68,42.89,27.77,42.89,27.77Z"></path>
      <path class="cls-17" d="M38.75,39.64c.44-1.3,1.41-4.28,1.8-5.36a29.22,29.22,0,0,1,1.69-3.5s1.2-2.3-1.84,1-4.94,9.36-4,9.72C37.12,41.78,38.33,40.92,38.75,39.64Z"></path>
      <path class="cls-18" d="M45.75,44c-.37,1.23-.19,2.38.39,2.55a2.27,2.27,0,0,0,2.28-1.69c.37-1.47-.37-2.66-1-2.79S46.12,42.78,45.75,44Z"></path>
      <path class="cls-16" d="M63.78,27.77s-12.53,12.66-6.4,19.48c6,6.65,15.43.59,12-8.45C66.29,30.68,63.78,27.77,63.78,27.77Z"></path>
      <path class="cls-17" d="M59.64,39.64c.43-1.3,1.41-4.28,1.79-5.36a28.68,28.68,0,0,1,1.7-3.5s1.2-2.3-1.85,1-4.94,9.36-4,9.72C58,41.78,59.22,40.92,59.64,39.64Z"></path>
      <path class="cls-18" d="M66.64,44c-.37,1.23-.19,2.38.39,2.55a2.25,2.25,0,0,0,2.27-1.69c.37-1.47-.36-2.66-.94-2.79S67,42.78,66.64,44Z"></path>
      <path class="cls-16" d="M53.54,0S41,12.66,47.15,19.49c6,6.65,15.42.59,12-8.46C56.05,2.92,53.54,0,53.54,0Z"></path>
      <path class="cls-17" d="M49.4,11.88c.44-1.31,1.41-4.29,1.8-5.37A28.24,28.24,0,0,1,52.9,3s1.19-2.3-1.85,1-4.94,9.37-4,9.72C47.77,14,49,13.16,49.4,11.88Z"></path>
      <path class="cls-18" d="M56.4,16.25c-.37,1.24-.19,2.38.39,2.55a2.26,2.26,0,0,0,2.28-1.69c.37-1.46-.37-2.66-1-2.78S56.77,15,56.4,16.25Z"></path>
    </g>
  </g>
</svg>
