<?xml version="1.0" encoding="UTF-8"?>
<svg xmlns="http://www.w3.org/2000/svg" viewBox="0 0 104.66 288.93">
  <defs>
    <style>.cls-1{fill:#a0bfe2;}.cls-2{fill:#b3ceea;}.cls-3{fill:none;stroke:#334253;stroke-miterlimit:10;stroke-width:1.65px;}.cls-4{fill:#9fbee2;}.cls-5{fill:#334253;}.cls-6{fill:#a0cae7;}.cls-7{fill:#d0e6f5;}.cls-8{fill:#b8d8ee;}.cls-9{fill:#a29274;}.cls-10{fill:#e3e0c9;}.cls-11{fill:#bda885;}.cls-12{fill:#7c705b;}.cls-13{fill:#d0c5a6;}.cls-14{fill:#a29277;}.cls-15{fill:#817870;}</style>
  </defs>
  <g id="Слой_2" data-name="Слой 2">
    <g id="Слой_1-2" data-name="Слой 1">
      <circle class="cls-1" cx="58.31" cy="135.45" r="16.87"></circle>
      <path class="cls-2" d="M47.05,139.52a16.8,16.8,0,0,0,4.09,11,16.84,16.84,0,0,0,19.74-26.33,16.84,16.84,0,0,0-23.83,15.34Z"></path>
      <line class="cls-3" x1="66.86" y1="121.11" x2="49.77" y2="149.27"></line>
      <path class="cls-4" d="M57,149.68s-.53-.86,0-3.29c.86-3.89,9-16,10.18-16.83,0,0,2.88-2.39,4.34-1.24s2.45,4.46,2.74,6.31-.29,6.89-2,8.91-3.49,5.78-9.11,6.73S57,149.68,57,149.68Z"></path>
      <path class="cls-5" d="M58.31,153.14A17.69,17.69,0,1,1,76,135.45,17.71,17.71,0,0,1,58.31,153.14Zm0-33.73a16,16,0,1,0,16,16A16.06,16.06,0,0,0,58.31,119.41Z"></path>
      <path class="cls-6" d="M38.49,54s-12.89,13-6.58,20c6.15,6.84,15.87.61,12.33-8.69C41.07,57,38.49,54,38.49,54Z"></path>
      <path class="cls-7" d="M34.23,66.26c.45-1.35,1.45-4.41,1.85-5.52a29.28,29.28,0,0,1,1.74-3.6s1.24-2.36-1.9,1-5.08,9.63-4.13,10C32.56,68.45,33.8,67.58,34.23,66.26Z"></path>
      <path class="cls-8" d="M41.43,70.76c-.38,1.27-.2,2.44.4,2.62a2.31,2.31,0,0,0,2.34-1.74c.38-1.51-.38-2.73-1-2.87S41.81,69.48,41.43,70.76Z"></path>
      <path class="cls-6" d="M60,54s-12.88,13-6.57,20c6.15,6.84,15.86.61,12.33-8.69C62.55,57,60,54,60,54Z"></path>
      <path class="cls-7" d="M55.72,66.26c.44-1.35,1.44-4.41,1.84-5.52a28.76,28.76,0,0,1,1.75-3.6s1.23-2.36-1.9,1-5.08,9.63-4.13,10C54,68.45,55.28,67.58,55.72,66.26Z"></path>
      <path class="cls-8" d="M62.91,70.76c-.37,1.27-.2,2.44.4,2.62a2.31,2.31,0,0,0,2.34-1.74c.39-1.51-.37-2.73-1-2.87S63.29,69.48,62.91,70.76Z"></path>
      <path class="cls-6" d="M81.45,54s-12.88,13-6.57,20c6.15,6.84,15.87.61,12.33-8.69C84,57,81.45,54,81.45,54Z"></path>
      <path class="cls-7" d="M77.2,66.26c.44-1.35,1.45-4.41,1.84-5.52a30.34,30.34,0,0,1,1.75-3.6s1.23-2.36-1.9,1-5.08,9.63-4.13,10C75.52,68.45,76.76,67.58,77.2,66.26Z"></path>
      <path class="cls-8" d="M84.4,70.76c-.38,1.27-.2,2.44.4,2.62a2.32,2.32,0,0,0,2.34-1.74c.38-1.51-.38-2.73-1-2.87S84.77,69.48,84.4,70.76Z"></path>
      <path class="cls-6" d="M51.66,25.48s-12.88,13-6.57,20c6.15,6.85,15.86.61,12.33-8.69C54.25,28.48,51.66,25.48,51.66,25.48Z"></path>
      <path class="cls-7" d="M47.41,37.7c.44-1.34,1.45-4.41,1.84-5.52A30.34,30.34,0,0,1,51,28.58s1.23-2.36-1.9,1S44,39.24,45,39.61C45.73,39.9,47,39,47.41,37.7Z"></path>
      <path class="cls-8" d="M54.61,42.2c-.38,1.27-.2,2.45.4,2.62a2.32,2.32,0,0,0,2.34-1.74c.38-1.5-.38-2.73-1-2.86S55,40.93,54.61,42.2Z"></path>
      <path class="cls-6" d="M73.15,25.48s-12.89,13-6.58,20c6.15,6.85,15.87.61,12.33-8.69C75.73,28.48,73.15,25.48,73.15,25.48Z"></path>
      <path class="cls-7" d="M68.89,37.7c.45-1.34,1.45-4.41,1.85-5.52a29.28,29.28,0,0,1,1.74-3.6s1.24-2.36-1.9,1-5.08,9.63-4.13,10C67.22,39.9,68.45,39,68.89,37.7Z"></path>
      <path class="cls-8" d="M76.09,42.2c-.38,1.27-.2,2.45.4,2.62a2.32,2.32,0,0,0,2.34-1.74c.38-1.5-.38-2.73-1-2.86S76.47,40.93,76.09,42.2Z"></path>
      <path class="cls-6" d="M63.53,0S50.65,13,57,20c6.15,6.84,15.87.61,12.33-8.69C66.12,3,63.53,0,63.53,0Z"></path>
      <path class="cls-7" d="M59.28,12.22c.45-1.35,1.45-4.41,1.84-5.52a30.34,30.34,0,0,1,1.75-3.6S64.1.74,61,4.13s-5.08,9.63-4.13,10C57.6,14.41,58.84,13.54,59.28,12.22Z"></path>
      <path class="cls-8" d="M66.48,16.72c-.38,1.27-.2,2.44.4,2.62a2.32,2.32,0,0,0,2.34-1.74c.38-1.51-.38-2.73-1-2.87S66.85,15.44,66.48,16.72Z"></path>
      <polygon class="cls-9" points="52.41 220.07 104.66 197.82 96.82 257.99 52.41 288.93 52.41 220.07"></polygon>
      <polygon class="cls-10" points="52.41 182.78 104.66 197.82 52.41 220.07 0 197.82 52.41 182.78"></polygon>
      <polygon class="cls-11" points="52.41 220.07 0 197.82 7.84 257.99 21.67 267.6 21.39 267.39 21.67 267.6 52.41 288.93 52.41 220.07"></polygon>
      <path class="cls-12" d="M51.16,287.09c1.23-1.73,2.3-3.56,3.42-5.34s2.18-3.6,3.2-5.43,2-3.68,2.93-5.55,1.74-3.82,2.54-5.8a26.72,26.72,0,0,1-1.5,6.23A44.14,44.14,0,0,1,59,277a49.92,49.92,0,0,1-3.53,5.35A27.68,27.68,0,0,1,51.16,287.09Z"></path>
      <path class="cls-13" d="M32.94,198.56a21.62,21.62,0,0,1,5.28-5,28.09,28.09,0,0,1,6.57-3.24A32,32,0,0,1,52,188.87c1.21-.15,2.43-.1,3.64-.13s2.42.15,3.62.29c-1.21.18-2.4.27-3.58.41l-1.77.26c-.59.09-1.18.14-1.76.28-1.16.24-2.33.41-3.46.74s-2.27.63-3.39,1a39.32,39.32,0,0,0-6.45,2.83A40.77,40.77,0,0,0,32.94,198.56Z"></path>
      <path class="cls-13" d="M24,200.68a7.42,7.42,0,0,0,2.08.32c.71.05,1.42,0,2.12,0a39.89,39.89,0,0,0,4.22-.4c1.4-.2,2.8-.47,4.21-.74s2.82-.59,4.28-.83a19.17,19.17,0,0,1-4,1.91A23.44,23.44,0,0,1,32.63,202a18,18,0,0,1-4.46.09,11.09,11.09,0,0,1-2.21-.44,10.29,10.29,0,0,1-1.05-.4A2.56,2.56,0,0,1,24,200.68Z"></path>
      <path class="cls-12" d="M61.84,243.21c-.24-1.51-.54-3-.64-4.58a20.43,20.43,0,0,1,.21-4.68,16.31,16.31,0,0,1,1.41-4.53,14.54,14.54,0,0,1,2.8-3.89,16.09,16.09,0,0,1,3.9-2.77A20,20,0,0,1,74,221.19a28.49,28.49,0,0,1,9.24-.51,43.7,43.7,0,0,0-8.95,1.6,18.16,18.16,0,0,0-7.63,4.27,15.37,15.37,0,0,0-4.13,7.62A37.59,37.59,0,0,0,61.84,243.21Z"></path>
      <path class="cls-12" d="M79.73,229c2.5-3.68,5.09-7.21,7.45-10.9a61.24,61.24,0,0,0,3.31-5.62,19.67,19.67,0,0,0,2.19-6.14,13.55,13.55,0,0,1-1.17,6.6,34.29,34.29,0,0,1-3.12,5.94,52.56,52.56,0,0,1-4,5.36A42.75,42.75,0,0,1,79.73,229Z"></path>
      <path class="cls-12" d="M67.62,248.09c.14.22.44.28.68.39s.5.2.75.29c.51.17,1,.34,1.54.49,1,.32,2.06.6,3.09.87,2.08.53,4.16,1,6.26,1.44s4.2.79,6.32,1.14l6.42,1a37.6,37.6,0,0,1-6.54.16,49.06,49.06,0,0,1-6.49-.85,44.32,44.32,0,0,1-6.3-1.78,32.23,32.23,0,0,1-3-1.29c-.49-.25-1-.5-1.45-.78A3.76,3.76,0,0,1,67.62,248.09Z"></path>
      <path class="cls-12" d="M80.23,255.7A15.64,15.64,0,0,1,78.74,247,14,14,0,0,1,80,242.55a14.52,14.52,0,0,1,2.63-3.77,19.25,19.25,0,0,1,7.78-4.6,30.91,30.91,0,0,1,8.76-1.41,53.56,53.56,0,0,0-8.38,2.47,21,21,0,0,0-7.13,4.54,14.06,14.06,0,0,0-3.8,7.35,17.88,17.88,0,0,0-.28,4.27A16.61,16.61,0,0,0,80.23,255.7Z"></path>
      <path class="cls-12" d="M99.15,228.14a29.37,29.37,0,0,1-1.14,6,37.9,37.9,0,0,1-2.16,5.68,30.86,30.86,0,0,1-3.19,5.2,18.65,18.65,0,0,1-4.47,4.13,41,41,0,0,0,3.55-4.78c1-1.68,2-3.4,2.82-5.18s1.63-3.59,2.39-5.42S98.43,230,99.15,228.14Z"></path>
      <path class="cls-13" d="M65,214.67l1-.43a36.06,36.06,0,0,0-4.77-1.75C62.63,213.22,63.87,213.94,65,214.67Z"></path>
      <path class="cls-12" d="M64.65,215.55c-.74,1.85-1.34,3.36-2.24,5.12a37.6,37.6,0,0,1-6.53,9.88,20,20,0,0,0,4.34-4.22,35.24,35.24,0,0,0,3.16-5.19,48.42,48.42,0,0,0,2.36-5.57c.11-.38.24-.95.34-1.33l-1,.43C65,214.84,64.72,215.38,64.65,215.55Z"></path>
      <path class="cls-14" d="M6,244.28a15.66,15.66,0,0,1,4.71-4,25.84,25.84,0,0,1,5.73-2.43,30.85,30.85,0,0,1,6.1-1.09c1-.1,2.06-.06,3.09-.08s2,.13,3.07.26c-1,.19-2,.3-3,.44s-2,.3-3,.49-2,.35-2.94.61-1.94.47-2.9.74a44.23,44.23,0,0,0-5.61,2.05A28.79,28.79,0,0,0,6,244.28Z"></path>
      <path class="cls-14" d="M9.18,235.92c2.07-1.31,4.05-2.71,6.05-4.09s4-2.77,5.95-4.2,3.94-2.83,5.87-4.29c1-.73,1.92-1.47,2.84-2.25a16.44,16.44,0,0,0,2.57-2.57,11.6,11.6,0,0,1-2.07,3.07c-.83.92-1.71,1.79-2.62,2.62A68.41,68.41,0,0,1,22,228.8a73,73,0,0,1-6.19,4A38.15,38.15,0,0,1,9.18,235.92Z"></path>
      <path class="cls-14" d="M8.91,255.25a6,6,0,0,1,2.35-5.75,10.77,10.77,0,0,1,6.2-1.84,23.9,23.9,0,0,1,6.27.87,33,33,0,0,1,5.86,2.17c-2.08-.3-4.07-.79-6.09-1.07-1-.2-2-.29-3-.39a25.05,25.05,0,0,0-3-.15,11.48,11.48,0,0,0-5.59,1.32A6.44,6.44,0,0,0,8.91,255.25Z"></path>
      <path class="cls-14" d="M2.08,208a6.39,6.39,0,0,0,2.35,2.59,16,16,0,0,0,3.08,1.64,38.74,38.74,0,0,0,6.8,1.9c2.33.44,4.7.76,7.07,1s4.78.46,7.19.8a50.35,50.35,0,0,1-7.26.32,45.73,45.73,0,0,1-7.27-.75,27.71,27.71,0,0,1-7-2.28A14.05,14.05,0,0,1,4,211.08,5.8,5.8,0,0,1,2.08,208Z"></path>
      <path class="cls-14" d="M38.69,279A13.39,13.39,0,0,1,35.24,277a8.17,8.17,0,0,1-2.53-3.32,5,5,0,0,1-.32-2.2,5.46,5.46,0,0,1,.66-2.14,10,10,0,0,1,2.87-3.12,26.71,26.71,0,0,1,7.29-3.58A47.78,47.78,0,0,1,51,260.71c-2.48,1-5,1.9-7.39,2.93a34.43,34.43,0,0,0-6.83,3.68A9,9,0,0,0,34.23,270a4.1,4.1,0,0,0-.46,3.33,8.12,8.12,0,0,0,1.95,3.16A19,19,0,0,0,38.69,279Z"></path>
      <path class="cls-14" d="M29.84,214.29a4.92,4.92,0,0,0-.36,4.2c1.1,2.68,3.48,4.32,5.84,5.45a17.56,17.56,0,0,1-3-2.52,7.9,7.9,0,0,1-2-3.19,4.32,4.32,0,0,1,.43-3.46,9,9,0,0,1,2.61-2.68l.12-.08-1.13-.48A9.44,9.44,0,0,0,29.84,214.29Z"></path>
      <path class="cls-13" d="M49.6,210a72.63,72.63,0,0,0-8.71-.15,24.71,24.71,0,0,0-7.32,1.17l-1.28.48,1.13.48a34.25,34.25,0,0,1,7.76-1.37C43.94,210.35,46.77,210.22,49.6,210Z"></path>
      <path class="cls-14" d="M28.94,263.63a14.32,14.32,0,0,0-3.24.37,7.56,7.56,0,0,0-2.94,1.6,3.75,3.75,0,0,0-1.11,2l.28.2a4.2,4.2,0,0,1,1.36-1.56A8.47,8.47,0,0,1,26,265a60.21,60.21,0,0,1,6.15-1A14.2,14.2,0,0,0,28.94,263.63Z"></path>
      <path class="cls-14" d="M27.91,258.86c2.1-1.13,4.31-2,6.44-2.94s4.27-1.92,6.33-3a45.42,45.42,0,0,0,5.89-3.63,17.69,17.69,0,0,0,4.75-5,13,13,0,0,1-4,5.89,29.1,29.1,0,0,1-5.94,4A48.45,48.45,0,0,1,34.76,257C32.51,257.74,30.21,258.29,27.91,258.86Z"></path>
      <path class="cls-12" d="M57.21,275.93c2.1-1.13,4.31-2,6.44-2.94s4.27-1.91,6.32-3a43.83,43.83,0,0,0,5.9-3.63,17.78,17.78,0,0,0,4.75-5,13.05,13.05,0,0,1-4,5.88,29.1,29.1,0,0,1-5.94,4A48.45,48.45,0,0,1,64.06,274C61.81,274.81,59.51,275.36,57.21,275.93Z"></path>
      <path class="cls-13" d="M60.07,213.5a35.55,35.55,0,0,1,4.83-6.36A37.78,37.78,0,0,1,71,201.87a26.36,26.36,0,0,1,7.25-3.58,19.35,19.35,0,0,1,4-.74,15.81,15.81,0,0,1,4,.26,24.12,24.12,0,0,0-3.92.44,25.22,25.22,0,0,0-3.72,1.1,33.71,33.71,0,0,0-6.8,3.7,56.7,56.7,0,0,0-6.1,4.88C63.75,209.7,61.88,211.55,60.07,213.5Z"></path>
      <path class="cls-12" d="M101.48,205.51a10.73,10.73,0,0,0-6.23,1.1c1.06-.1,2.08-.18,3.09-.2a16.51,16.51,0,0,1,3,.16,9.92,9.92,0,0,1,2.15.52l.1-.93A9.81,9.81,0,0,0,101.48,205.51Z"></path>
      <path class="cls-14" d="M6,234.51a17.88,17.88,0,0,1,4.37.51,19.87,19.87,0,0,1,4.19,1.47,10.94,10.94,0,0,1,3.64,2.72,5.55,5.55,0,0,1,1.1,2.06,3.86,3.86,0,0,1-.06,2.26A5.2,5.2,0,0,0,17.35,240a15.17,15.17,0,0,0-3.45-2.21C11.39,236.53,8.69,235.61,6,234.51Z"></path>
      <path class="cls-14" d="M27.76,253.76c2.54-3.74,5.15-7.36,7.47-11.15a54.83,54.83,0,0,0,3.21-5.81,23.48,23.48,0,0,0,2.1-6.3,15.09,15.09,0,0,1-1.07,6.73,31.34,31.34,0,0,1-1.34,3.15c-.54,1-1.08,2-1.68,3a49.24,49.24,0,0,1-4,5.52A41,41,0,0,1,27.76,253.76Z"></path>
      <ellipse class="cls-9" cx="54.06" cy="198.87" rx="12.07" ry="4.72"></ellipse>
      <ellipse class="cls-15" cx="54.37" cy="200.46" rx="9.95" ry="3.89"></ellipse>
    </g>
  </g>
</svg>
