<?xml version="1.0" encoding="UTF-8"?>
<svg xmlns="http://www.w3.org/2000/svg" viewBox="0 0 108.49 110.03">
  <defs>
    <style>.cls-1{fill:#a29274;}.cls-2{fill:#e3e0c9;}.cls-3{fill:#bda885;}.cls-4{fill:#7c705b;}.cls-5{fill:#d0c5a6;}.cls-6{fill:#a29277;}.cls-7{fill:#817870;}</style>
  </defs>
  <g id="Слой_2" data-name="Слой 2">
    <g id="Слой_1-2" data-name="Слой 1">
      <polygon class="cls-1" points="54.32 38.65 108.49 15.59 100.36 77.96 54.32 110.03 54.32 38.65"></polygon>
      <polygon class="cls-2" points="54.32 0 108.49 15.59 54.32 38.65 0 15.59 54.32 0"></polygon>
      <polygon class="cls-3" points="54.32 38.65 0 15.59 8.13 77.96 22.47 87.92 22.17 87.7 22.47 87.92 54.32 110.03 54.32 38.65"></polygon>
      <path class="cls-4" d="M53,108.13c.69-.86,1.29-1.78,1.89-2.7s1.19-1.84,1.78-2.76c1.16-1.85,2.29-3.71,3.36-5.61s2.06-3.84,3-5.8,1.75-4,2.5-6.07a31.56,31.56,0,0,1-1.7,6.41,47.7,47.7,0,0,1-2.85,6,55.08,55.08,0,0,1-3.61,5.56A32.35,32.35,0,0,1,53,108.13Z"></path>
      <path class="cls-5" d="M34.14,16.36a30.11,30.11,0,0,1,2.57-2.74,23,23,0,0,1,3-2.31A30.11,30.11,0,0,1,46.49,8a34.76,34.76,0,0,1,7.38-1.55c1.25-.17,2.51-.14,3.76-.19s2.5.11,3.74.21c-1.24.15-2.48.19-3.71.33l-1.84.24A18.33,18.33,0,0,0,54,7.32c-1.21.23-2.43.4-3.61.74s-2.37.64-3.54,1a39.22,39.22,0,0,0-6.69,3A37,37,0,0,0,34.14,16.36Z"></path>
      <path class="cls-5" d="M24.89,18.55A6.47,6.47,0,0,0,27,19a20.32,20.32,0,0,0,2.21.07,34.21,34.21,0,0,0,4.4-.37c2.93-.42,5.81-1.15,8.78-1.81a25.4,25.4,0,0,1-8.62,2.9,19.66,19.66,0,0,1-4.6.15,13.51,13.51,0,0,1-2.27-.41c-.37-.11-.73-.24-1.09-.38A2.38,2.38,0,0,1,24.89,18.55Z"></path>
      <path class="cls-4" d="M64.1,62.64c-.21-1.57-.5-3.14-.57-4.75a23,23,0,0,1,.28-4.82,15.4,15.4,0,0,1,4.35-8.62,16.51,16.51,0,0,1,4-2.85A20.26,20.26,0,0,1,76.72,40c.78-.22,1.58-.3,2.37-.46s1.59-.18,2.39-.26l2.39-.06c.8,0,1.59.05,2.39.09a43.18,43.18,0,0,0-9.32,1.51,18.79,18.79,0,0,0-8,4.45,15.82,15.82,0,0,0-4.29,8A37.24,37.24,0,0,0,64.1,62.64Z"></path>
      <path class="cls-4" d="M82.64,47.89l4-5.55c1.33-1.86,2.62-3.73,3.85-5.64a55.67,55.67,0,0,0,3.4-5.88,19,19,0,0,0,2.14-6.42,14.61,14.61,0,0,1-1.35,6.78,37,37,0,0,1-3.26,6.12A57.44,57.44,0,0,1,82.64,47.89Z"></path>
      <path class="cls-4" d="M70.09,67.7c.15.23.45.31.69.43s.51.22.77.32c.52.2,1,.38,1.58.55,1.06.35,2.13.66,3.2,1,2.15.58,4.31,1.1,6.49,1.53,4.36.9,8.77,1.48,13.25,2a50.23,50.23,0,0,1-20-2.7,33.88,33.88,0,0,1-3.14-1.28c-.51-.25-1-.5-1.5-.78A3.89,3.89,0,0,1,70.09,67.7Z"></path>
      <path class="cls-4" d="M83.17,75.59a16.61,16.61,0,0,1-1.4-9,14.32,14.32,0,0,1,4-8.37,19.91,19.91,0,0,1,8-4.75,34.17,34.17,0,0,1,9-1.62c-.74.17-1.49.33-2.23.48s-1.48.37-2.21.55-1.46.42-2.18.62-1.42.5-2.12.77A21.59,21.59,0,0,0,86.57,59a14.56,14.56,0,0,0-4,7.73,19.82,19.82,0,0,0,.56,8.91Z"></path>
      <path class="cls-4" d="M102.78,47a39.77,39.77,0,0,1-3.59,12,35.12,35.12,0,0,1-3.26,5.39,20.94,20.94,0,0,1-4.51,4.36,37.45,37.45,0,0,0,3.8-4.86,58.52,58.52,0,0,0,3-5.37c.89-1.85,1.69-3.74,2.45-5.66S102.12,49,102.78,47Z"></path>
      <path class="cls-5" d="M67.41,33.06l1.09-.45a37.23,37.23,0,0,0-4.94-1.81Q65.62,31.93,67.41,33.06Z"></path>
      <path class="cls-4" d="M67,34c-.76,1.91-1.39,3.48-2.31,5.31a39.09,39.09,0,0,1-6.78,10.23,20.72,20.72,0,0,0,4.51-4.36,37,37,0,0,0,3.26-5.39A46.22,46.22,0,0,0,68.14,34c.12-.39.25-1,.36-1.38l-1.09.45C67.35,33.23,67.08,33.79,67,34Z"></path>
      <path class="cls-6" d="M6.18,63.74a17.65,17.65,0,0,1,5-4,28.2,28.2,0,0,1,5.92-2.48,33.81,33.81,0,0,1,6.29-1.16c1.06-.11,2.13-.1,3.19-.14s2.13.09,3.18.18c-1,.16-2.1.23-3.15.37s-2.08.27-3.11.45-2.06.34-3.07.6-2,.48-3,.77a40.43,40.43,0,0,0-5.83,2.17A26.94,26.94,0,0,0,6.18,63.74Z"></path>
      <path class="cls-6" d="M9.51,55.08c2.19-1.28,4.26-2.71,6.36-4.11s4.16-2.85,6.2-4.32,4.08-2.95,6.07-4.49c1-.77,2-1.56,2.91-2.39a15.18,15.18,0,0,0,2.59-2.72,20.92,20.92,0,0,1-4.95,5.78,75.58,75.58,0,0,1-6,4.72c-2.07,1.47-4.19,2.86-6.38,4.15A44.15,44.15,0,0,1,9.51,55.08Z"></path>
      <path class="cls-6" d="M9.24,75.12a6.26,6.26,0,0,1,2.52-5.84,11.16,11.16,0,0,1,6.34-1.84,25.79,25.79,0,0,1,6.46.86,39,39,0,0,1,6.11,2.11c-2.12-.41-4.18-.93-6.28-1.26a30.4,30.4,0,0,0-3.14-.44,25.24,25.24,0,0,0-3.13-.16A11.56,11.56,0,0,0,12.25,70,6.54,6.54,0,0,0,9.24,75.12Z"></path>
      <path class="cls-6" d="M2.15,26.09a6.49,6.49,0,0,0,2.38,2.75,16.84,16.84,0,0,0,3.19,1.77,38.22,38.22,0,0,0,7.08,2c2.43.45,4.88.78,7.36,1s4.95.43,7.45.68c-1.25.1-2.5.14-3.75.21s-2.51,0-3.77,0a51.35,51.35,0,0,1-7.5-.82,29.47,29.47,0,0,1-7.23-2.32,14.49,14.49,0,0,1-3.18-2.13,5.46,5.46,0,0,1-.67-.69,6.08,6.08,0,0,1-.59-.75A4.29,4.29,0,0,1,2.15,26.09Z"></path>
      <path class="cls-6" d="M40.11,99.77a14.92,14.92,0,0,1-3.52-2.22,8.57,8.57,0,0,1-2.54-3.43,5,5,0,0,1-.31-2.22,5.64,5.64,0,0,1,.67-2.14,10.27,10.27,0,0,1,2.94-3.17,28.33,28.33,0,0,1,7.49-3.72,57.7,57.7,0,0,1,8-2.1c-2.59,1-5.18,1.87-7.71,2.91A34.35,34.35,0,0,0,38,87.48a9.35,9.35,0,0,0-2.68,2.79,4.34,4.34,0,0,0-.46,3.58A8.31,8.31,0,0,0,37,97.15,18.12,18.12,0,0,0,40.11,99.77Z"></path>
      <path class="cls-6" d="M30.94,32.66A5.11,5.11,0,0,0,30.56,37c1.14,2.77,3.6,4.47,6.05,5.65a18.43,18.43,0,0,1-3.14-2.62,8.05,8.05,0,0,1-2.1-3.3,4.46,4.46,0,0,1,.45-3.6,9.25,9.25,0,0,1,2.7-2.77l.12-.08-1.17-.5A9.67,9.67,0,0,0,30.94,32.66Z"></path>
      <path class="cls-5" d="M51.41,28.25a75.73,75.73,0,0,0-9-.16A26.1,26.1,0,0,0,34.8,29.3l-1.33.5,1.17.5a35.6,35.6,0,0,1,8-1.42C45.55,28.58,48.48,28.44,51.41,28.25Z"></path>
      <path class="cls-6" d="M30,83.8a15.4,15.4,0,0,0-3.36.39,7.86,7.86,0,0,0-3.05,1.66,3.94,3.94,0,0,0-1.15,2.05l.29.21a4.44,4.44,0,0,1,1.41-1.62,8.76,8.76,0,0,1,2.79-1.23,58.94,58.94,0,0,1,6.38-1.06A15.37,15.37,0,0,0,30,83.8Z"></path>
      <path class="cls-6" d="M28.93,78.86c2.21-1.08,4.5-1.94,6.73-2.91s4.45-2,6.59-3.07a43.26,43.26,0,0,0,6.12-3.82,17.46,17.46,0,0,0,4.83-5.32,14,14,0,0,1-4.28,6,31.74,31.74,0,0,1-6.16,4.13A54.76,54.76,0,0,1,36,76.76c-1.15.41-2.32.77-3.5,1.12Z"></path>
      <path class="cls-4" d="M59.3,96.56c2.21-1.08,4.5-1.94,6.73-2.91s4.45-2,6.59-3.07a43.26,43.26,0,0,0,6.12-3.82,17.46,17.46,0,0,0,4.83-5.32,14,14,0,0,1-4.28,6,31.79,31.79,0,0,1-6.16,4.14,53.23,53.23,0,0,1-6.79,2.89c-1.15.42-2.32.78-3.5,1.12Z"></path>
      <path class="cls-5" d="M62.26,31.84a42.93,42.93,0,0,1,11.42-11.9,28,28,0,0,1,7.46-3.72,20.55,20.55,0,0,1,4.1-.82,17.89,17.89,0,0,1,4.14.18,21.86,21.86,0,0,0-8,1.46,33.34,33.34,0,0,0-7.11,3.81A56.23,56.23,0,0,0,68,26C66,27.83,64.07,29.77,62.26,31.84Z"></path>
      <path class="cls-4" d="M105.19,23.56a11.06,11.06,0,0,0-6.45,1.14c1.09-.11,2.15-.19,3.2-.21a16.72,16.72,0,0,1,3.09.17,10,10,0,0,1,2.23.54l.11-1A11,11,0,0,0,105.19,23.56Z"></path>
      <path class="cls-6" d="M6.18,53.62a22.75,22.75,0,0,1,4.5.67A22.57,22.57,0,0,1,15,55.84a11.77,11.77,0,0,1,3.75,2.76,5.84,5.84,0,0,1,1.16,2.06,4.22,4.22,0,0,1,0,2.31,5.23,5.23,0,0,0-1.82-3.78,14.94,14.94,0,0,0-3.6-2.36,43.1,43.1,0,0,0-4.07-1.71C9,54.61,7.62,54.11,6.18,53.62Z"></path>
      <path class="cls-6" d="M28.78,73.58c1.39-1.88,2.73-3.78,4.07-5.67s2.63-3.82,3.83-5.79A53.22,53.22,0,0,0,40,56.05a22.38,22.38,0,0,0,2-6.58,16.52,16.52,0,0,1-1.24,6.92,34.55,34.55,0,0,1-1.42,3.24c-.56,1-1.12,2.07-1.74,3.07a54.62,54.62,0,0,1-4.08,5.73A50.41,50.41,0,0,1,28.78,73.58Z"></path>
      <ellipse class="cls-1" cx="56.04" cy="16.68" rx="12.51" ry="4.89"></ellipse>
      <ellipse class="cls-7" cx="56.35" cy="18.33" rx="10.31" ry="4.03"></ellipse>
    </g>
  </g>
</svg>
