<?xml version="1.0" encoding="UTF-8"?>
<svg xmlns="http://www.w3.org/2000/svg" xmlns:xlink="http://www.w3.org/1999/xlink" viewBox="0 0 101.86 291.56">
  <defs>
    <style>.cls-1{fill:#93c6ee;}.cls-2{fill:#c9e2f6;}.cls-3{fill:#aed4f2;}.cls-4{fill:#a96f30;stroke:#a96f30;stroke-linecap:round;stroke-linejoin:round;stroke-width:2.7px;}.cls-5{fill:#442e1c;}.cls-6{fill:#2d1f12;}.cls-7{fill:#63411e;}.cls-8{fill:#956d4b;}.cls-9{fill:#44281c;}.cls-10{fill:#714d31;}.cls-11{fill:#613922;}.cls-12{fill:#7f5637;}.cls-13{fill:#a07850;}.cls-14{fill:url(#Безымянный_градиент_26);}.cls-15{fill:url(#Безымянный_градиент_7);}.cls-16{fill:#d7b389;}</style>
    <radialGradient id="Безымянный_градиент_26" cx="47.79" cy="273.47" r="54.35" gradientTransform="translate(97.99 424.68) rotate(179.09) scale(1 0.56)" gradientUnits="userSpaceOnUse">
      <stop offset="0.02" stop-color="#a07450"></stop>
      <stop offset="0.27" stop-color="#9a6d4a"></stop>
      <stop offset="0.62" stop-color="#8a5b39"></stop>
      <stop offset="1" stop-color="#72401f"></stop>
    </radialGradient>
    <linearGradient id="Безымянный_градиент_7" x1="33.91" y1="385.4" x2="55.06" y2="249.95" gradientUnits="userSpaceOnUse">
      <stop offset="0.38" stop-color="#a17551"></stop>
      <stop offset="0.91" stop-color="#794826"></stop>
      <stop offset="1" stop-color="#72401f"></stop>
    </linearGradient>
  </defs>
  <g id="Слой_2" data-name="Слой 2">
    <g id="Слой_1-2" data-name="Слой 1">
      <path class="cls-1" d="M30.05,61.55s-14.5,14.66-7.4,22.56c6.92,7.7,17.86.68,13.88-9.79C33,64.92,30.05,61.55,30.05,61.55Z"></path>
      <path class="cls-2" d="M25.26,75.3c.5-1.51,1.63-5,2.07-6.21a33.26,33.26,0,0,1,2-4s1.39-2.66-2.14,1.15S21.44,77,22.51,77.44C23.37,77.77,24.77,76.78,25.26,75.3Z"></path>
      <path class="cls-3" d="M33.36,80.36c-.43,1.44-.22,2.76.45,3a2.64,2.64,0,0,0,2.64-2c.43-1.7-.43-3.08-1.1-3.23S33.78,78.93,33.36,80.36Z"></path>
      <path class="cls-1" d="M54.23,61.55s-14.5,14.66-7.4,22.56c6.92,7.7,17.86.68,13.88-9.79C57.14,64.92,54.23,61.55,54.23,61.55Z"></path>
      <path class="cls-2" d="M49.44,75.3c.5-1.51,1.63-5,2.08-6.21a33.8,33.8,0,0,1,2-4s1.39-2.66-2.14,1.15S45.62,77,46.69,77.44C47.55,77.77,49,76.78,49.44,75.3Z"></path>
      <path class="cls-3" d="M57.54,80.36c-.42,1.44-.22,2.76.45,3a2.63,2.63,0,0,0,2.64-2c.43-1.7-.42-3.08-1.1-3.23S58,78.93,57.54,80.36Z"></path>
      <path class="cls-1" d="M78.41,61.55S63.91,76.21,71,84.11c6.93,7.7,17.86.68,13.88-9.79C81.32,64.92,78.41,61.55,78.41,61.55Z"></path>
      <path class="cls-2" d="M73.62,75.3c.51-1.51,1.63-5,2.08-6.21a33.26,33.26,0,0,1,2-4s1.38-2.66-2.14,1.15S69.81,77,70.88,77.44C71.74,77.77,73.13,76.78,73.62,75.3Z"></path>
      <path class="cls-3" d="M81.73,80.36c-.43,1.44-.23,2.76.45,3a2.62,2.62,0,0,0,2.63-2c.43-1.7-.42-3.08-1.1-3.23S82.15,78.93,81.73,80.36Z"></path>
      <path class="cls-1" d="M43.8,30.77S29.3,45.44,36.4,53.33c6.92,7.7,17.86.69,13.88-9.78C46.71,34.15,43.8,30.77,43.8,30.77Z"></path>
      <path class="cls-2" d="M39,44.52c.5-1.51,1.63-5,2.07-6.21a33.26,33.26,0,0,1,2-4.05s1.39-2.66-2.14,1.16-5.72,10.84-4.65,11.25C37.12,47,38.52,46,39,44.52Z"></path>
      <path class="cls-3" d="M47.11,49.59c-.43,1.43-.22,2.76.45,2.95a2.62,2.62,0,0,0,2.64-2c.43-1.69-.43-3.07-1.1-3.22S47.53,48.16,47.11,49.59Z"></path>
      <path class="cls-1" d="M68,30.77s-14.5,14.67-7.4,22.56C67.5,61,78.44,54,74.46,43.55,70.89,34.15,68,30.77,68,30.77Z"></path>
      <path class="cls-2" d="M63.19,44.52c.5-1.51,1.63-5,2.08-6.21a33.8,33.8,0,0,1,2-4.05s1.39-2.66-2.14,1.16-5.72,10.84-4.65,11.25C61.3,47,62.7,46,63.19,44.52Z"></path>
      <path class="cls-3" d="M71.29,49.59c-.42,1.43-.22,2.76.45,2.95a2.62,2.62,0,0,0,2.64-2c.43-1.69-.42-3.07-1.1-3.22S71.72,48.16,71.29,49.59Z"></path>
      <path class="cls-1" d="M56.69,0S42.18,14.66,49.28,22.56c6.93,7.7,17.86.69,13.89-9.78C59.59,3.38,56.69,0,56.69,0Z"></path>
      <path class="cls-2" d="M51.9,13.75c.5-1.51,1.63-5,2.07-6.21a33.26,33.26,0,0,1,2-4S57.33.83,53.8,4.65,48.08,15.49,49.15,15.9C50,16.22,51.4,15.24,51.9,13.75Z"></path>
      <path class="cls-3" d="M60,18.82c-.43,1.43-.23,2.75.45,2.95a2.61,2.61,0,0,0,2.63-2c.43-1.69-.42-3.08-1.09-3.22S60.42,17.39,60,18.82Z"></path>
      <path class="cls-4" d="M75.36,115s-32.79,4.43-40.85,24.84S67.87,135.37,75.36,115Z"></path>
      <path class="cls-5" d="M75.36,115s-10.69.62-13.71,4.5.16,12,6.33,5.76C74.38,118.84,75.36,115,75.36,115Z"></path>
      <path class="cls-6" d="M75.23,115.12c0,.07.08.09,0,.09l-.16,0-.33,0-.65.11-1.29.25c-.86.18-1.72.36-2.56.59A25,25,0,0,0,65.38,118a6.36,6.36,0,0,0-3.3,3,5,5,0,0,0,.18,4.07,1.79,1.79,0,0,0,1.12,1,2,2,0,0,0,1.39-.35,9.23,9.23,0,0,0,1.66-1.29c.27-.24.57-.57.88-.86s.62-.59.92-.9c1.24-1.17,2.44-2.39,3.63-3.63.59-.63,1.17-1.26,1.73-1.92.29-.32.56-.66.83-1,.14-.17.27-.34.4-.52l.2-.27.09-.13,0-.07s0,0,0,0A.09.09,0,0,0,75.23,115.12Zm.26-.21a.27.27,0,0,1,0,.18s0,0,0,.06v.09l0,.18,0,.35c0,.23-.08.46-.14.69a12,12,0,0,1-.4,1.33,18.56,18.56,0,0,1-1.13,2.53,27.92,27.92,0,0,1-3.09,4.54,25.07,25.07,0,0,1-1.88,2,9,9,0,0,1-2.65,1.75,5.11,5.11,0,0,1-3.75.16,4.69,4.69,0,0,1-2.59-2.61,7.35,7.35,0,0,1,.23-6.19,6.14,6.14,0,0,1,2.1-2.3,11.65,11.65,0,0,1,2.56-1.3,27,27,0,0,1,5.3-1.2c.89-.13,1.78-.21,2.67-.28l1.33-.06.67,0h.5A.54.54,0,0,1,75.49,114.91Z"></path>
      <path class="cls-7" d="M3.09,206.58,100,208.15s.91-17,0-19.85c-1.32-4.19-8.72-16.58-45.38-17.47S4.53,181.43,2.48,187.26,3.09,206.58,3.09,206.58Z"></path>
      <polygon class="cls-8" points="8.29 246.74 3.09 211.76 98.7 211.76 95 246.49 8.29 246.74"></polygon>
      <path class="cls-9" d="M39.12,241.7a7.6,7.6,0,0,0-2.47-1.45h0s-3.28-1-5.07,1.22-1.48,4.59-.67,5a11.87,11.87,0,0,0,1.41.3s.05,0,.09,0a26,26,0,0,0,3-.69,1.58,1.58,0,0,0,.52-.14l.57-.16c1.28-.4,1.44-.11,2.33-.89a3.47,3.47,0,0,0,.95-2.21,2.68,2.68,0,0,0-.18-.43h0l0,0A.84.84,0,0,0,39.12,241.7Z"></path>
      <path class="cls-9" d="M21.5,244.59A9.4,9.4,0,0,0,18,245.74v0s-3.73,2.34-3.12,5.95,3.18,5.32,4.24,4.86a14.78,14.78,0,0,0,1.49-1.11s0-.09,0-.12c.79-.91,1.38-2.74,1.91-3.52a1.77,1.77,0,0,0,.31-.62l.33-.69c.7-1.57,1.11-1.48,1.12-3A4.41,4.41,0,0,0,23,244.68a2.83,2.83,0,0,0-.57-.2v0h-.07A1.07,1.07,0,0,0,21.5,244.59Z"></path>
      <path class="cls-9" d="M37.29,250.93a2.82,2.82,0,0,0-1.09-.27h0a2,2,0,0,0-1.77,1c-.43,1,0,1.89.3,1.94a3.14,3.14,0,0,0,.57,0s0,0,0,0a8.16,8.16,0,0,0,1.07-.6.5.5,0,0,0,.18-.11l.19-.12c.44-.29.53-.2.78-.59a1.36,1.36,0,0,0,.11-.94l-.12-.14h0A.36.36,0,0,0,37.29,250.93Z"></path>
      <path class="cls-9" d="M78.17,242.56a1.86,1.86,0,0,0-.1-.77h0s-.33-.88-1.1-.9-1.24.44-1.19.68a2.15,2.15,0,0,0,.17.35s0,0,0,0a6,6,0,0,0,.65.55.41.41,0,0,0,.12.09l.13.1c.3.21.26.29.57.36a1,1,0,0,0,.64-.17.36.36,0,0,0,.06-.11h0A.27.27,0,0,0,78.17,242.56Z"></path>
      <path class="cls-9" d="M89.82,256.61a9.44,9.44,0,0,0-1.65-3.31h0s-2.87-3.39-6.38-2.26S77,255,77.57,256a12.48,12.48,0,0,0,1.32,1.32s.09,0,.12,0c1,.66,2.94,1,3.79,1.4a2,2,0,0,0,.67.22c.19.06.39.13.73.22,1.68.48,1.65.9,3.16.69A4.45,4.45,0,0,0,90,258.1a2.58,2.58,0,0,0,.11-.6h0l0-.06A1.06,1.06,0,0,0,89.82,256.61Z"></path>
      <path class="cls-9" d="M67.15,245.08a7.06,7.06,0,0,0-1.62,2.33h0s-1.21,3.18.84,5.11,4.44,1.81,4.88,1a11.11,11.11,0,0,0,.4-1.38s0,0,0-.09a24.5,24.5,0,0,0-.46-3.06,1.38,1.38,0,0,0-.1-.53c0-.15-.06-.31-.12-.57-.3-1.31,0-1.44-.7-2.38a3.43,3.43,0,0,0-2.12-1.1,1.9,1.9,0,0,0-.44.15v0l0,0A.81.81,0,0,0,67.15,245.08Z"></path>
      <path class="cls-10" d="M67.31,268.85a1.39,1.39,0,0,0,1.36-.36c.47-.61.37-1.25.15-1.35l-.38-.07c-.26,0-.28.6-.29.61Z"></path>
      <path class="cls-11" d="M66.49,268.34s.76.69,1.07.48a8,8,0,0,1,.7-.4l0-.21a3,3,0,0,0-.83-.28l-.5.17A3,3,0,0,0,66.49,268.34Z"></path>
      <path class="cls-12" d="M66.44,268.23c0,.08.11.31.34.23a3.23,3.23,0,0,0,.46-.2s.23-.71.28-.84.13-.16-.21-.05-.39,0-.63.25A1,1,0,0,0,66.44,268.23Z"></path>
      <path class="cls-13" d="M67.24,268.26a3.81,3.81,0,0,0,.11-.6c0-.27,0-.34.25-.38s.72-.28,1-.19.22.07.22.38a1.13,1.13,0,0,1-.33.76.63.63,0,0,1-.66.28A1.66,1.66,0,0,1,67.24,268.26Z"></path>
      <path class="cls-10" d="M58,263.53s2.08.11,2.82-1.45.22-2.92-.31-3a5.61,5.61,0,0,0-.88,0c-.57,0-.32,1.44-.34,1.47S58,263.53,58,263.53Z"></path>
      <path class="cls-11" d="M56,262.81s2,1.15,2.59.54,1.34-1.22,1.34-1.22l-.14-.45a6.4,6.4,0,0,0-2-.21c-.32.17-.86.53-1,.6A7.94,7.94,0,0,0,56,262.81Z"></path>
      <path class="cls-12" d="M55.83,262.58c.1.18.38.63.86.34a7,7,0,0,0,.91-.65s.16-1.68.22-2,.2-.42-.5,0-.84.28-1.25.86A2.06,2.06,0,0,0,55.83,262.58Z"></path>
      <path class="cls-13" d="M57.6,262.27a10.82,10.82,0,0,0,0-1.38c-.08-.6-.14-.75.36-.94s1.46-1,2-.89.52.06.67.73a2.46,2.46,0,0,1-.36,1.82,1.39,1.39,0,0,1-1.32.93A3.47,3.47,0,0,1,57.6,262.27Z"></path>
      <path class="cls-10" d="M49.38,270.27s1.62,1.23,3.08.38,1.77-2.24,1.4-2.63a6.62,6.62,0,0,0-.72-.46c-.48-.28-1,1-1.09,1Z"></path>
      <path class="cls-11" d="M48.12,268.58s1,2,1.81,1.85a17,17,0,0,1,1.74-.25l.14-.44s-1.13-1.22-1.48-1.25-1,0-1.14-.07A7.46,7.46,0,0,0,48.12,268.58Z"></path>
      <path class="cls-12" d="M48.12,268.3c0,.2,0,.72.51.75a7.54,7.54,0,0,0,1.09,0s1.05-1.27,1.27-1.48.39-.24-.41-.28-.82-.24-1.47,0A2,2,0,0,0,48.12,268.3Z"></path>
      <path class="cls-13" d="M49.72,269a8.58,8.58,0,0,0,.72-1.14c.27-.53.31-.68.81-.56s1.72,0,2.12.38.39.33.14,1a2.41,2.41,0,0,1-1.29,1.28,1.37,1.37,0,0,1-1.57,0A3.52,3.52,0,0,1,49.72,269Z"></path>
      <path class="cls-10" d="M45.66,264.68a2.3,2.3,0,0,0,.08-2.36c-.75-1.06-1.83-1.21-2.09-.9a3.31,3.31,0,0,0-.31.58c-.18.38.83.74.84.76Z"></path>
      <path class="cls-11" d="M44.45,265.76s1.48-.89,1.29-1.5-.31-1.31-.31-1.31l-.34-.08s-.85.94-.86,1.21,0,.76,0,.87A6.15,6.15,0,0,0,44.45,265.76Z"></path>
      <path class="cls-12" d="M44.23,265.78c.16,0,.56,0,.54-.44a5.65,5.65,0,0,0-.09-.83s-1-.72-1.21-.87-.21-.28-.19.33-.13.64.1,1.13A1.58,1.58,0,0,0,44.23,265.78Z"></path>
      <path class="cls-13" d="M44.68,264.51a6,6,0,0,0-.92-.47c-.42-.17-.54-.19-.48-.59s-.11-1.31.15-1.64.23-.32.73-.17a1.85,1.85,0,0,1,1.05.9,1,1,0,0,1,.13,1.2A2.53,2.53,0,0,1,44.68,264.51Z"></path>
      <path class="cls-10" d="M38.3,266.43a1,1,0,0,0,.34-1c-.17-.53-.6-.73-.75-.64l-.2.2c-.13.14.25.41.25.43Z"></path>
      <path class="cls-11" d="M37.67,266.72s.72-.18.72-.45,0-.59,0-.59l-.13-.07s-.47.28-.51.39-.08.32-.1.36A2.49,2.49,0,0,0,37.67,266.72Z"></path>
      <path class="cls-12" d="M37.57,266.7c.07,0,.24.07.28-.11a2.35,2.35,0,0,0,.07-.36s-.34-.43-.39-.51-.05-.14-.12.11-.13.25-.1.48A.66.66,0,0,0,37.57,266.7Z"></path>
      <path class="cls-13" d="M37.92,266.23a2.34,2.34,0,0,0-.32-.31c-.15-.12-.2-.15-.12-.3s.12-.56.27-.66.14-.11.32,0a.77.77,0,0,1,.32.51.44.44,0,0,1-.1.51A1,1,0,0,1,37.92,266.23Z"></path>
      <path class="cls-10" d="M36.05,270.49s1.42-2.29.12-4.11-3.18-2.07-3.64-1.53a7.63,7.63,0,0,0-.52,1c-.32.67,1.45,1.27,1.47,1.31S36.05,270.49,36.05,270.49Z"></path>
      <path class="cls-11" d="M34,272.36s2.55-1.56,2.23-2.61-.55-2.27-.55-2.27l-.6-.13s-1.46,1.63-1.47,2.1.07,1.32.06,1.52A10.27,10.27,0,0,0,34,272.36Z"></path>
      <path class="cls-12" d="M33.59,272.39c.27,0,1,0,.94-.76a11.07,11.07,0,0,0-.17-1.44s-1.81-1.23-2.12-1.49-.35-.49-.32.57-.21,1.12.19,2A2.66,2.66,0,0,0,33.59,272.39Z"></path>
      <path class="cls-13" d="M34.36,270.19a12.66,12.66,0,0,0-1.6-.81c-.73-.29-.94-.32-.84-1s-.2-2.27.25-2.85.39-.55,1.25-.3a3.22,3.22,0,0,1,1.84,1.55,1.81,1.81,0,0,1,.24,2.07A4.78,4.78,0,0,1,34.36,270.19Z"></path>
      <path class="cls-14" d="M9.8,272.36,8.29,246.74s43-22.09,86.71-.25l-1.68,25.87Z"></path>
      <ellipse class="cls-15" cx="51.56" cy="272.36" rx="41.76" ry="19.2"></ellipse>
      <path class="cls-10" d="M70.56,268.69a1.39,1.39,0,0,0,1.36-.36c.47-.61.37-1.25.15-1.35l-.39-.07c-.25,0-.27.6-.28.61Z"></path>
      <path class="cls-11" d="M69.74,268.19s.76.68,1.07.47.7-.4.7-.4l0-.21a3,3,0,0,0-.83-.28l-.5.17A2.9,2.9,0,0,0,69.74,268.19Z"></path>
      <path class="cls-12" d="M69.69,268.07c0,.09.1.31.34.23a3.23,3.23,0,0,0,.46-.2s.23-.71.28-.84.13-.16-.22-.05-.38,0-.62.26A1,1,0,0,0,69.69,268.07Z"></path>
      <path class="cls-13" d="M70.49,268.1a3.81,3.81,0,0,0,.11-.6c0-.27,0-.34.25-.37s.72-.29,1-.2.22.08.22.38a1.11,1.11,0,0,1-.33.76.63.63,0,0,1-.66.28A1.66,1.66,0,0,1,70.49,268.1Z"></path>
      <path class="cls-10" d="M61.28,263.37s2.08.11,2.82-1.45.22-2.92-.31-3a5.61,5.61,0,0,0-.88,0c-.57,0-.32,1.44-.34,1.48S61.28,263.37,61.28,263.37Z"></path>
      <path class="cls-11" d="M59.24,262.65s2,1.15,2.59.54S63.16,262,63.16,262l-.13-.45a6.4,6.4,0,0,0-2-.21c-.32.17-.86.53-1,.6A7.94,7.94,0,0,0,59.24,262.65Z"></path>
      <path class="cls-12" d="M59.08,262.42c.1.18.38.63.86.34a7,7,0,0,0,.91-.65s.16-1.68.22-2,.2-.42-.5,0-.84.27-1.25.85A2.06,2.06,0,0,0,59.08,262.42Z"></path>
      <path class="cls-13" d="M60.85,262.11a9.78,9.78,0,0,0-.05-1.38c-.07-.6-.13-.75.37-.94s1.46-1,2-.89.52.06.67.73a2.52,2.52,0,0,1-.37,1.82,1.39,1.39,0,0,1-1.31.94A3.61,3.61,0,0,1,60.85,262.11Z"></path>
      <path class="cls-10" d="M52.63,270.11s1.62,1.23,3.08.38,1.77-2.24,1.4-2.62a5.38,5.38,0,0,0-.72-.46c-.48-.29-1,1-1.09,1Z"></path>
      <path class="cls-11" d="M51.37,268.42s1,2,1.81,1.85a17,17,0,0,1,1.74-.25l.14-.44s-1.13-1.22-1.48-1.25-1,0-1.14-.07A7.46,7.46,0,0,0,51.37,268.42Z"></path>
      <path class="cls-12" d="M51.37,268.14c0,.2,0,.72.51.75a7.63,7.63,0,0,0,1.09,0s1.05-1.27,1.27-1.48.39-.23-.41-.28-.82-.24-1.48,0A2,2,0,0,0,51.37,268.14Z"></path>
      <path class="cls-13" d="M53,268.86a9,9,0,0,0,.72-1.14c.27-.53.31-.68.81-.56s1.72,0,2.12.39.39.33.14.95a2.44,2.44,0,0,1-1.29,1.28,1.35,1.35,0,0,1-1.57,0A3.52,3.52,0,0,1,53,268.86Z"></path>
      <path class="cls-10" d="M48.91,264.53a2.32,2.32,0,0,0,.08-2.37c-.75-1.05-1.83-1.21-2.1-.9a4.28,4.28,0,0,0-.3.58c-.19.39.83.74.84.76S48.91,264.53,48.91,264.53Z"></path>
      <path class="cls-11" d="M47.7,265.6s1.47-.89,1.29-1.5-.31-1.31-.31-1.31l-.34-.08s-.86.94-.86,1.21,0,.76,0,.88A6.36,6.36,0,0,0,47.7,265.6Z"></path>
      <path class="cls-12" d="M47.48,265.62c.16,0,.56,0,.54-.44a5.65,5.65,0,0,0-.09-.83s-1-.71-1.21-.87-.21-.28-.19.33-.13.64.1,1.13A1.58,1.58,0,0,0,47.48,265.62Z"></path>
      <path class="cls-13" d="M47.93,264.35a7.15,7.15,0,0,0-.92-.47c-.42-.17-.54-.19-.48-.58s-.11-1.31.15-1.65.23-.32.73-.17a1.85,1.85,0,0,1,1.05.9,1,1,0,0,1,.13,1.2A2.53,2.53,0,0,1,47.93,264.35Z"></path>
      <path class="cls-10" d="M41.55,266.27a1,1,0,0,0,.34-1c-.18-.53-.6-.73-.75-.64a2.12,2.12,0,0,0-.2.21c-.13.13.25.41.25.42Z"></path>
      <path class="cls-11" d="M40.91,266.56s.73-.18.73-.45a5.39,5.39,0,0,1,0-.59l-.13-.07s-.47.28-.51.39-.08.32-.1.37A2.47,2.47,0,0,0,40.91,266.56Z"></path>
      <path class="cls-12" d="M40.82,266.54c.07,0,.23.07.28-.11a2.34,2.34,0,0,0,.07-.35s-.34-.43-.39-.52-.05-.14-.12.11-.14.25-.1.48A.66.66,0,0,0,40.82,266.54Z"></path>
      <path class="cls-13" d="M41.17,266.08a2.85,2.85,0,0,0-.32-.32c-.15-.12-.2-.14-.12-.3s.12-.56.27-.66.13-.1.32,0a.8.8,0,0,1,.32.51.44.44,0,0,1-.1.51A1.14,1.14,0,0,1,41.17,266.08Z"></path>
      <path class="cls-10" d="M39.3,270.33s1.42-2.29.12-4.1-3.18-2.08-3.64-1.54a8.32,8.32,0,0,0-.52,1c-.32.67,1.44,1.27,1.47,1.31S39.3,270.33,39.3,270.33Z"></path>
      <path class="cls-11" d="M37.21,272.2s2.55-1.56,2.23-2.61-.55-2.27-.55-2.27l-.6-.13s-1.46,1.64-1.47,2.1.07,1.32.06,1.52A10.27,10.27,0,0,0,37.21,272.2Z"></path>
      <path class="cls-12" d="M36.84,272.23c.27,0,1,0,.93-.75a10.15,10.15,0,0,0-.16-1.45s-1.81-1.22-2.12-1.49-.36-.48-.32.57-.21,1.12.19,1.95A2.66,2.66,0,0,0,36.84,272.23Z"></path>
      <path class="cls-13" d="M37.61,270a12.66,12.66,0,0,0-1.6-.81c-.74-.28-.94-.31-.84-1s-.2-2.26.25-2.84.39-.56,1.25-.31a3.26,3.26,0,0,1,1.84,1.55,1.79,1.79,0,0,1,.23,2.07A4.64,4.64,0,0,1,37.61,270Z"></path>
      <path class="cls-9" d="M23.64,232.64a7.38,7.38,0,0,0-2.46-1.45v0s-3.29-1-5.08,1.23-1.48,4.59-.67,5a12.56,12.56,0,0,0,1.42.3s.05,0,.08,0a25.53,25.53,0,0,0,3-.69,1.73,1.73,0,0,0,.53-.14l.56-.16c1.29-.4,1.45-.12,2.34-.89a3.43,3.43,0,0,0,.94-2.21,2,2,0,0,0-.18-.43h0l0,0A.82.82,0,0,0,23.64,232.64Z"></path>
      <path class="cls-9" d="M59.48,241.21a4.8,4.8,0,0,0-1.76.58h0s-1.88,1.18-1.57,3,1.6,2.69,2.13,2.46a7.18,7.18,0,0,0,.75-.56s0,0,0-.06a14.38,14.38,0,0,0,1-1.78.83.83,0,0,0,.16-.31l.16-.35c.36-.79.57-.75.57-1.51a2.26,2.26,0,0,0-.67-1.4,1.39,1.39,0,0,0-.29-.1h0A.55.55,0,0,0,59.48,241.21Z"></path>
      <path class="cls-9" d="M32.06,246.38a3,3,0,0,0-1.09-.27h0a2,2,0,0,0-1.77,1c-.43,1-.05,1.89.3,2a4.72,4.72,0,0,0,.57-.05s0,0,0,0a10.24,10.24,0,0,0,1.07-.6.82.82,0,0,0,.18-.11l.2-.13c.43-.29.53-.2.77-.59a1.36,1.36,0,0,0,.11-.94l-.12-.14h0A.34.34,0,0,0,32.06,246.38Z"></path>
      <path class="cls-9" d="M83.3,236a1.91,1.91,0,0,0-.1-.78h0s-.33-.87-1.11-.89-1.24.43-1.18.67a1.86,1.86,0,0,0,.17.36s0,0,0,0a6.14,6.14,0,0,0,.65.55l.12.09.13.09c.29.22.26.3.57.36a.92.92,0,0,0,.64-.16.36.36,0,0,0,.06-.11h0A.28.28,0,0,0,83.3,236Z"></path>
      <path class="cls-9" d="M88.18,253.4a9.44,9.44,0,0,0-1.65-3.31h0s-2.87-3.39-6.38-2.26-4.86,4-4.24,4.94a12.48,12.48,0,0,0,1.32,1.32s.09,0,.12,0c1,.66,2.94,1,3.79,1.4a2,2,0,0,0,.67.22c.19.06.39.13.73.22,1.68.48,1.65.9,3.16.69a4.45,4.45,0,0,0,2.59-1.74,2.59,2.59,0,0,0,.11-.59h0l0-.07A1.07,1.07,0,0,0,88.18,253.4Z"></path>
      <path class="cls-9" d="M16.81,248a7.19,7.19,0,0,0-1.61,2.33l0,0s-1.22,3.19.84,5.12,4.44,1.81,4.88,1a11.11,11.11,0,0,0,.4-1.38s0-.06,0-.09a24.6,24.6,0,0,0-.45-3.06,1.38,1.38,0,0,0-.1-.53c0-.15-.06-.31-.12-.58-.3-1.3,0-1.43-.7-2.37a3.43,3.43,0,0,0-2.12-1.1,1.76,1.76,0,0,0-.44.15v0l0,0A.86.86,0,0,0,16.81,248Z"></path>
      <ellipse class="cls-9" cx="50.9" cy="213.58" rx="47.8" ry="19.2"></ellipse>
      <path class="cls-7" d="M0,190.46l9.8,81.9s-1.51,11.55,25.92,17.76c0,0,22.94,4.88,45.19-4.11,0,0,9.11-4.53,12.41-10.73l8.47-84.82s1.87,6.83-13.35,14l-7.53,68.59s-24.2,13.2-52.15,1.07L19.57,206.2S0,201.54,0,190.46Z"></path>
      <path class="cls-16" d="M50.9,170C22.79,170,0,179.18,0,190.46c0,6.55,7.66,12.38,19.57,16.12h0a5.5,5.5,0,0,1,.75-.39C9.06,202.58,1.83,196.7,1.83,190.46c0-10.88,22-19.69,49.07-19.69S100,179.58,100,190.46c0,5.25-5,10.31-13.39,13.84.49.17,1.87.48,1.87.48,8.33-3.64,13.35-9,13.35-14.32C101.79,179.18,79,170,50.9,170Z"></path>
      <path class="cls-16" d="M19.57,206.51l9.19,67.93s23.33,12.35,52.15-1.07l7.53-68.59-1.87-.48L80.21,273s-24.77,13.12-50.62.9l-9.27-67.71Z"></path>
      <path class="cls-10" d="M48.77,218a1.38,1.38,0,0,0-1.33-.49c-.74.23-1,.81-.9,1a2.23,2.23,0,0,0,.27.28c.19.18.58-.33.59-.34S48.77,218,48.77,218Z"></path>
      <path class="cls-11" d="M49.16,218.93s-.23-1-.61-1-.81-.07-.81-.07l-.1.18s.37.66.52.71.44.12.5.15A3.64,3.64,0,0,0,49.16,218.93Z"></path>
      <path class="cls-12" d="M49.13,219.05c0-.09.09-.32-.15-.39a3.49,3.49,0,0,0-.49-.1s-.6.46-.72.53-.2.06.15.16.34.2.66.16A.94.94,0,0,0,49.13,219.05Z"></path>
      <path class="cls-13" d="M48.49,218.56a3.6,3.6,0,0,0-.44.43c-.18.21-.21.28-.42.17s-.77-.19-.91-.4-.13-.19,0-.44a1.12,1.12,0,0,1,.71-.43.62.62,0,0,1,.71.15A1.67,1.67,0,0,1,48.49,218.56Z"></path>
      <path class="cls-10" d="M45.75,201a2,2,0,0,0-2.06-.3c-1,.55-1.23,1.48-1,1.74a2.82,2.82,0,0,0,.48.32c.31.2.72-.65.74-.66Z"></path>
      <path class="cls-11" d="M46.57,202.13s-.64-1.37-1.19-1.27-1.17.15-1.17.15l-.1.29s.74.83,1,.86.67,0,.77.06A5.39,5.39,0,0,0,46.57,202.13Z"></path>
      <path class="cls-12" d="M46.57,202.32c0-.13,0-.48-.33-.51a5.24,5.24,0,0,0-.74,0s-.72.84-.87,1-.27.15.27.19.55.18,1,0A1.39,1.39,0,0,0,46.57,202.32Z"></path>
      <path class="cls-13" d="M45.5,201.81a6.27,6.27,0,0,0-.5.76c-.19.35-.21.45-.55.36s-1.15,0-1.42-.29-.26-.22-.08-.64a1.65,1.65,0,0,1,.88-.84.93.93,0,0,1,1.06,0A2.35,2.35,0,0,1,45.5,201.81Z"></path>
      <path class="cls-10" d="M41.67,207.24s-4.25-2.12-7.22.46-3.11,5.92-2.1,6.64a15.23,15.23,0,0,0,1.86.74c1.23.45,2-2.74,2.06-2.79S41.67,207.24,41.67,207.24Z"></path>
      <path class="cls-11" d="M45.29,210.59s-3.15-4.22-4.94-3.48-3.9,1.34-3.9,1.34l-.12,1.07s3.11,2.3,3.93,2.23,2.29-.34,2.65-.34A17.85,17.85,0,0,0,45.29,210.59Z"></path>
      <path class="cls-12" d="M45.42,211.23c0-.47-.22-1.67-1.49-1.51a18.41,18.41,0,0,0-2.5.54s-1.86,3.37-2.27,4-.79.71,1.05.47,2,.19,3.4-.66A4.8,4.8,0,0,0,45.42,211.23Z"></path>
      <path class="cls-13" d="M41.43,210.26a21.11,21.11,0,0,0-1.16,2.93c-.38,1.33-.4,1.7-1.62,1.64s-3.94.72-5,0-1-.59-.74-2.14,1-2.28,2.41-3.49a3.17,3.17,0,0,1,3.6-.75A8.13,8.13,0,0,1,41.43,210.26Z"></path>
      <path class="cls-10" d="M56.36,208.13s-3.57-2.1-6.3,0S47,213,47.84,213.73a11.18,11.18,0,0,0,1.57.75c1,.47,1.89-2.25,2-2.29S56.36,208.13,56.36,208.13Z"></path>
      <path class="cls-11" d="M59.3,211.26s-2.48-3.86-4.08-3.32-3.46.92-3.46.92l-.17.92S54.14,212,54.86,212s2-.15,2.32-.14A15.71,15.71,0,0,0,59.3,211.26Z"></path>
      <path class="cls-12" d="M59.37,211.82c0-.41-.09-1.47-1.2-1.4a16.56,16.56,0,0,0-2.2.31s-1.82,2.82-2.21,3.3-.73.56.88.47,1.72.28,3-.36A4.19,4.19,0,0,0,59.37,211.82Z"></path>
      <path class="cls-13" d="M56,210.73a19.66,19.66,0,0,0-1.19,2.48c-.41,1.14-.45,1.45-1.5,1.33s-3.47.38-4.37-.28-.87-.58-.51-1.91,1-1.91,2.3-2.87a2.75,2.75,0,0,1,3.17-.44A7.19,7.19,0,0,1,56,210.73Z"></path>
      <path class="cls-10" d="M65.79,204.36s-3.51-2.71-6.7-.87-3.92,4.86-3.12,5.7a12.7,12.7,0,0,0,1.57,1c1,.63,2.32-2.16,2.39-2.19S65.79,204.36,65.79,204.36Z"></path>
      <path class="cls-11" d="M68.51,208.09s-2.13-4.44-3.91-4.08-3.81.52-3.81.52l-.3,1s2.43,2.67,3.19,2.76,2.17.1,2.5.16A16,16,0,0,0,68.51,208.09Z"></path>
      <path class="cls-12" d="M68.5,208.7c0-.43.11-1.57-1.08-1.65a16.37,16.37,0,0,0-2.39,0s-2.32,2.76-2.8,3.21-.85.51.88.62,1.8.54,3.23,0A4.46,4.46,0,0,0,68.5,208.7Z"></path>
      <path class="cls-13" d="M65,207.09a20.77,20.77,0,0,0-1.6,2.48c-.59,1.15-.67,1.49-1.78,1.21s-3.74-.05-4.62-.88-.84-.73-.29-2.1,1.35-1.91,2.84-2.76A3,3,0,0,1,63,205,7.7,7.7,0,0,1,65,207.09Z"></path>
      <path class="cls-10" d="M68.51,215.72a2.12,2.12,0,0,0,1.95-1c.53-1.06.19-2-.18-2.08a4.16,4.16,0,0,0-.6,0c-.39,0-.24,1-.25,1S68.51,215.72,68.51,215.72Z"></path>
      <path class="cls-11" d="M67.12,215.21s1.36.81,1.78.4a10.86,10.86,0,0,1,.92-.82l-.09-.32a4.19,4.19,0,0,0-1.34-.16c-.22.11-.6.36-.7.4A5.29,5.29,0,0,0,67.12,215.21Z"></path>
      <path class="cls-12" d="M67,215.05c.07.12.26.44.59.25a6.77,6.77,0,0,0,.63-.44s.13-1.15.18-1.36.14-.29-.35,0-.58.18-.87.57A1.45,1.45,0,0,0,67,215.05Z"></path>
      <path class="cls-13" d="M68.23,214.86a7.53,7.53,0,0,0,0-1c0-.42-.09-.52.26-.64s1-.66,1.39-.59.36,0,.45.51a1.66,1.66,0,0,1-.27,1.24,1,1,0,0,1-.91.63A2.57,2.57,0,0,1,68.23,214.86Z"></path>
      <path class="cls-10" d="M35.06,216.48a2.71,2.71,0,0,0,2.57-1.06c.76-1.3.41-2.53-.05-2.66a5.3,5.3,0,0,0-.77,0c-.5,0-.38,1.24-.41,1.27Z"></path>
      <path class="cls-11" d="M33.33,215.71s1.67,1.14,2.23.65a15.26,15.26,0,0,1,1.25-1l-.09-.4a5.43,5.43,0,0,0-1.7-.33c-.29.12-.79.4-.92.45A6.57,6.57,0,0,0,33.33,215.71Z"></path>
      <path class="cls-12" d="M33.21,215.49c.07.16.29.58.73.36a6.16,6.16,0,0,0,.84-.5s.26-1.45.34-1.71.2-.36-.44,0-.75.17-1.15.65A1.82,1.82,0,0,0,33.21,215.49Z"></path>
      <path class="cls-13" d="M34.78,215.35a7.68,7.68,0,0,0,.06-1.21c0-.53-.06-.66.39-.79s1.34-.75,1.82-.63.45.09.54.69a2.16,2.16,0,0,1-.45,1.56,1.22,1.22,0,0,1-1.22.72A3.24,3.24,0,0,1,34.78,215.35Z"></path>
      <path class="cls-10" d="M46.83,209.76a1.55,1.55,0,0,0,1.58.28c.78-.4,1-1.12.8-1.32a2.62,2.62,0,0,0-.36-.26c-.24-.16-.57.49-.59.49Z"></path>
      <path class="cls-11" d="M46.22,208.85s.46,1.08.89,1,.91-.08.91-.08l.08-.23s-.55-.66-.73-.69-.52,0-.59-.06A3.86,3.86,0,0,0,46.22,208.85Z"></path>
      <path class="cls-12" d="M46.22,208.7c0,.11,0,.38.25.41a3.74,3.74,0,0,0,.57,0s.57-.63.69-.73.21-.11-.2-.16-.42-.14-.77,0A1.11,1.11,0,0,0,46.22,208.7Z"></path>
      <path class="cls-13" d="M47,209.12a4.46,4.46,0,0,0,.4-.57c.15-.27.18-.35.44-.27s.89.05,1.09.26.19.18.05.5a1.28,1.28,0,0,1-.71.63.71.71,0,0,1-.82,0A1.75,1.75,0,0,1,47,209.12Z"></path>
      <path class="cls-10" d="M61.13,215.81s4,1,6-1.79,1.49-5.58.5-6a12.35,12.35,0,0,0-1.71-.27c-1.12-.14-1.15,2.69-1.2,2.75S61.13,215.81,61.13,215.81Z"></path>
      <path class="cls-11" d="M57.43,213.68s3.47,2.95,4.84,2,3-1.88,3-1.88l-.1-.92s-3.06-1.35-3.74-1.13-1.87.73-2.17.8A15.85,15.85,0,0,0,57.43,213.68Z"></path>
      <path class="cls-12" d="M57.2,213.16c.13.39.51,1.37,1.54,1a17,17,0,0,0,2-.93s.92-3.21,1.15-3.77.54-.75-1-.19-1.72.22-2.74,1.2A4.16,4.16,0,0,0,57.2,213.16Z"></path>
      <path class="cls-13" d="M60.75,213.22a19.29,19.29,0,0,0,.42-2.7c.06-1.2,0-1.51,1-1.69s3.19-1.37,4.24-1,1,.3,1,1.67-.41,2.11-1.36,3.4a2.75,2.75,0,0,1-2.89,1.33A7.14,7.14,0,0,1,60.75,213.22Z"></path>
      <path class="cls-10" d="M42.73,213.5s2.39,1.35,4.18-.06,2-3.33,1.4-3.77a7.11,7.11,0,0,0-1.05-.49c-.7-.29-1.23,1.53-1.27,1.55S42.73,213.5,42.73,213.5Z"></path>
      <path class="cls-11" d="M40.73,211.46s1.7,2.53,2.76,2.15,2.28-.66,2.28-.66l.1-.61s-1.72-1.42-2.2-1.41-1.33.13-1.54.12A11.9,11.9,0,0,0,40.73,211.46Z"></path>
      <path class="cls-12" d="M40.68,211.09c0,.27.07,1,.81.91a10.32,10.32,0,0,0,1.46-.24s1.17-1.89,1.43-2.22.48-.38-.6-.3-1.15-.16-2,.28A2.76,2.76,0,0,0,40.68,211.09Z"></path>
      <path class="cls-13" d="M43,211.76a12.41,12.41,0,0,0,.76-1.66c.26-.76.28-1,1-.9s2.3-.3,2.91.13.58.37.36,1.26a3.29,3.29,0,0,1-1.49,1.94,1.83,1.83,0,0,1-2.1.33A4.76,4.76,0,0,1,43,211.76Z"></path>
    </g>
  </g>
</svg>
