<?xml version="1.0" encoding="UTF-8"?>
<svg xmlns="http://www.w3.org/2000/svg" viewBox="0 0 89.01 90.27">
  <defs>
    <style>.cls-1{fill:#a29274;}.cls-2{fill:#e3e0c9;}.cls-3{fill:#bda885;}.cls-4{fill:#7c705b;}.cls-5{fill:#d0c5a6;}.cls-6{fill:#a29277;}.cls-7{fill:#817870;}</style>
  </defs>
  <g id="Слой_2" data-name="Слой 2">
    <g id="Слой_1-2" data-name="Слой 1">
      <polygon class="cls-1" points="44.57 31.71 89.01 12.79 82.34 63.97 44.57 90.27 44.57 31.71"></polygon>
      <polygon class="cls-2" points="44.57 0 89.01 12.79 44.57 31.71 0 12.79 44.57 0"></polygon>
      <polygon class="cls-3" points="44.57 31.71 0 12.79 6.67 63.97 18.43 72.13 18.19 71.95 18.43 72.13 44.57 90.27 44.57 31.71"></polygon>
      <path class="cls-4" d="M43.51,88.71a25.8,25.8,0,0,0,1.55-2.21c.5-.75,1-1.51,1.46-2.26.95-1.52,1.88-3,2.76-4.61s1.69-3.14,2.47-4.75,1.44-3.28,2-5a25.92,25.92,0,0,1-1.4,5.25,40.35,40.35,0,0,1-2.33,4.93,48.79,48.79,0,0,1-3,4.56A26.23,26.23,0,0,1,43.51,88.71Z"></path>
      <path class="cls-5" d="M28,13.42a26.27,26.27,0,0,1,2.11-2.25,18.79,18.79,0,0,1,2.45-1.89,24.54,24.54,0,0,1,5.57-2.71A28.67,28.67,0,0,1,44.2,5.3c1-.14,2.06-.11,3.08-.16s2,.09,3.07.18c-1,.12-2,.16-3.05.27s-2,.22-3,.41-2,.34-3,.61-1.94.53-2.9.82a32.49,32.49,0,0,0-5.49,2.45A30.26,30.26,0,0,0,28,13.42Z"></path>
      <path class="cls-5" d="M20.42,15.22a5.56,5.56,0,0,0,1.76.35,15.64,15.64,0,0,0,1.81.06,27.33,27.33,0,0,0,3.61-.31c2.41-.33,4.77-.94,7.2-1.48a20.68,20.68,0,0,1-7.07,2.38,16.38,16.38,0,0,1-3.77.12A11.69,11.69,0,0,1,22.1,16,4.09,4.09,0,0,1,20.42,15.22Z"></path>
      <path class="cls-4" d="M52.59,51.39c-.17-1.28-.41-2.58-.47-3.89a18.68,18.68,0,0,1,.23-4,12.71,12.71,0,0,1,3.57-7.08,14.64,14.64,0,0,1,7-3.68,27.34,27.34,0,0,1,3.91-.59l2-.05c.66,0,1.31,0,2,.08a34.91,34.91,0,0,0-7.65,1.24,15.3,15.3,0,0,0-6.56,3.65A13,13,0,0,0,53,43.68,30.43,30.43,0,0,0,52.59,51.39Z"></path>
      <path class="cls-4" d="M67.8,39.29c2.23-3,4.46-6,6.48-9.18a51.51,51.51,0,0,0,2.79-4.82A15.68,15.68,0,0,0,78.82,20a12,12,0,0,1-1.1,5.56,31,31,0,0,1-2.68,5A46.43,46.43,0,0,1,67.8,39.29Z"></path>
      <path class="cls-4" d="M57.51,55.54c.11.19.37.26.56.36l.63.26c.43.17.87.31,1.3.45.87.29,1.75.54,2.63.79,1.76.47,3.53.9,5.32,1.26,3.58.74,7.2,1.2,10.87,1.63a41.16,41.16,0,0,1-16.41-2.22c-.87-.31-1.73-.66-2.57-1-.42-.2-.83-.41-1.24-.64A3,3,0,0,1,57.51,55.54Z"></path>
      <path class="cls-4" d="M68.23,62a13.63,13.63,0,0,1-1.14-7.42,11.8,11.8,0,0,1,3.28-6.87,16.41,16.41,0,0,1,6.54-3.9,28.16,28.16,0,0,1,7.42-1.32l-1.84.39c-.61.13-1.21.3-1.81.45s-1.19.35-1.79.51l-1.74.63A17.82,17.82,0,0,0,71,48.37a12,12,0,0,0-3.24,6.33A16.44,16.44,0,0,0,68.23,62Z"></path>
      <path class="cls-4" d="M84.33,38.58a33,33,0,0,1-3,9.82,28.44,28.44,0,0,1-2.68,4.42A16.75,16.75,0,0,1,75,56.4a29.61,29.61,0,0,0,3.12-4A45,45,0,0,0,80.56,48c.73-1.51,1.38-3.07,2-4.64S83.78,40.2,84.33,38.58Z"></path>
      <path class="cls-5" d="M55.31,27.12l.89-.36a29.87,29.87,0,0,0-4.05-1.49C53.27,25.88,54.32,26.5,55.31,27.12Z"></path>
      <path class="cls-4" d="M55,27.87c-.63,1.57-1.14,2.86-1.9,4.36a31.82,31.82,0,0,1-5.56,8.39A17,17,0,0,0,51.22,37a30.6,30.6,0,0,0,2.68-4.42,39.39,39.39,0,0,0,2-4.74c.09-.31.2-.8.29-1.12l-.89.36C55.25,27.27,55,27.73,55,27.87Z"></path>
      <path class="cls-6" d="M5.07,52.3A14.41,14.41,0,0,1,9.14,49,23.78,23.78,0,0,1,14,47,27.57,27.57,0,0,1,19.16,46c.87-.09,1.75-.08,2.62-.11s1.74.07,2.6.14c-.86.13-1.72.19-2.58.3s-1.71.22-2.55.37-1.69.28-2.52.5-1.66.39-2.48.62a33.47,33.47,0,0,0-4.78,1.79A22,22,0,0,0,5.07,52.3Z"></path>
      <path class="cls-6" d="M7.8,45.19c1.8-1,3.5-2.22,5.22-3.37s3.41-2.34,5.09-3.55,3.34-2.42,5-3.68c.81-.64,1.61-1.28,2.39-2A12.79,12.79,0,0,0,27.6,30.4a17.07,17.07,0,0,1-4.06,4.74C22,36.53,20.32,37.79,18.64,39s-3.45,2.35-5.24,3.41A36,36,0,0,1,7.8,45.19Z"></path>
      <path class="cls-6" d="M7.58,61.63a5.13,5.13,0,0,1,2.07-4.79,9.12,9.12,0,0,1,5.2-1.51,20.84,20.84,0,0,1,5.3.71,31.21,31.21,0,0,1,5,1.73c-1.74-.33-3.43-.77-5.15-1a24.79,24.79,0,0,0-2.57-.35,20.22,20.22,0,0,0-2.57-.14,9.57,9.57,0,0,0-4.82,1.18A5.41,5.41,0,0,0,7.58,61.63Z"></path>
      <path class="cls-6" d="M1.77,21.41a5.3,5.3,0,0,0,1.94,2.25,13.21,13.21,0,0,0,2.63,1.45,31.06,31.06,0,0,0,5.8,1.66c2,.37,4,.64,6,.85s4.07.35,6.12.55c-1,.09-2.05.12-3.08.18s-2.06,0-3.09,0A41.3,41.3,0,0,1,12,27.66,24.56,24.56,0,0,1,6,25.76,12.16,12.16,0,0,1,3.43,24,5.08,5.08,0,0,1,1.77,21.41Z"></path>
      <path class="cls-6" d="M32.91,81.86a9.38,9.38,0,0,1-5-4.64,4.25,4.25,0,0,1,.29-3.58,8.43,8.43,0,0,1,2.41-2.59A23.41,23.41,0,0,1,36.79,68a49,49,0,0,1,6.58-1.72c-2.12.78-4.25,1.52-6.33,2.38a28.73,28.73,0,0,0-5.85,3.12A7.88,7.88,0,0,0,29,74.06,3.66,3.66,0,0,0,28.6,77a6.68,6.68,0,0,0,1.73,2.71A14.51,14.51,0,0,0,32.91,81.86Z"></path>
      <path class="cls-6" d="M25.38,26.8a4.19,4.19,0,0,0-.31,3.57A9.45,9.45,0,0,0,30,35a14.88,14.88,0,0,1-2.58-2.15,6.66,6.66,0,0,1-1.72-2.71,3.64,3.64,0,0,1,.36-2.95,7.76,7.76,0,0,1,2.22-2.28l.1-.06-1-.41A8.11,8.11,0,0,0,25.38,26.8Z"></path>
      <path class="cls-5" d="M42.18,23.17a63.27,63.27,0,0,0-7.4-.12,21.11,21.11,0,0,0-6.23,1l-1.09.41,1,.41A29.05,29.05,0,0,1,35,23.69C37.37,23.45,39.78,23.34,42.18,23.17Z"></path>
      <path class="cls-6" d="M24.61,68.76a12.22,12.22,0,0,0-2.75.32,6.42,6.42,0,0,0-2.5,1.35,3.19,3.19,0,0,0-.95,1.69l.24.17A3.56,3.56,0,0,1,19.81,71a7,7,0,0,1,2.29-1,48.36,48.36,0,0,1,5.23-.86A11.84,11.84,0,0,0,24.61,68.76Z"></path>
      <path class="cls-6" d="M23.74,64.7c1.81-.89,3.69-1.59,5.52-2.39s3.65-1.6,5.4-2.51a35,35,0,0,0,5-3.14,14.3,14.3,0,0,0,4-4.36,11.66,11.66,0,0,1-3.51,4.91,26.32,26.32,0,0,1-5.06,3.39A43.32,43.32,0,0,1,29.51,63C27.62,63.66,25.67,64.15,23.74,64.7Z"></path>
      <path class="cls-4" d="M48.66,79.22c1.81-.89,3.69-1.59,5.52-2.39s3.64-1.6,5.4-2.52a34.56,34.56,0,0,0,5-3.13,14.14,14.14,0,0,0,4-4.36,11.49,11.49,0,0,1-3.51,4.91,25.94,25.94,0,0,1-5,3.39,43.32,43.32,0,0,1-5.57,2.37C52.54,78.18,50.58,78.67,48.66,79.22Z"></path>
      <path class="cls-5" d="M51.09,26.12a32.91,32.91,0,0,1,4.2-5.31,32.16,32.16,0,0,1,5.16-4.44,23.51,23.51,0,0,1,6.12-3.05c.55-.17,1.12-.27,1.67-.4a8.94,8.94,0,0,1,1.7-.25,14.77,14.77,0,0,1,3.39.12A19.46,19.46,0,0,0,66.8,14,29,29,0,0,0,61,17.12a45.08,45.08,0,0,0-5.19,4.19c-.83.74-1.63,1.53-2.4,2.34S51.83,25.28,51.09,26.12Z"></path>
      <path class="cls-4" d="M86.3,19.33a9.14,9.14,0,0,0-5.29.93c.89-.08,1.76-.15,2.62-.17a15.28,15.28,0,0,1,2.54.14,8,8,0,0,1,1.83.45l.09-.8A9.49,9.49,0,0,0,86.3,19.33Z"></path>
      <path class="cls-6" d="M5.07,44a17,17,0,0,1,3.69.54,18.85,18.85,0,0,1,3.53,1.27,9.73,9.73,0,0,1,3.07,2.27,3.89,3.89,0,0,1,1,3.58,4.4,4.4,0,0,0-1.49-3.1,12.38,12.38,0,0,0-3-1.93A59.81,59.81,0,0,0,5.07,44Z"></path>
      <path class="cls-6" d="M23.61,60.37c1.14-1.54,2.24-3.1,3.34-4.66s2.16-3.13,3.14-4.75a42,42,0,0,0,2.71-5,18.74,18.74,0,0,0,1.68-5.4,13.64,13.64,0,0,1-1,5.67,29.83,29.83,0,0,1-2.59,5.18A44.91,44.91,0,0,1,23.61,60.37Z"></path>
      <ellipse class="cls-1" cx="45.97" cy="13.68" rx="10.26" ry="4.01"></ellipse>
      <ellipse class="cls-7" cx="46.24" cy="15.04" rx="8.46" ry="3.31"></ellipse>
    </g>
  </g>
</svg>
