<?xml version="1.0" encoding="UTF-8"?>
<svg xmlns="http://www.w3.org/2000/svg" viewBox="0 0 106.81 223.56">
  <defs>
    <style>.cls-1{fill:#93c6ee;}.cls-2{fill:#c9e2f6;}.cls-3{fill:#aed4f2;}.cls-4{fill:#a8a7a8;}.cls-5{fill:#a79677;}.cls-6{fill:#bfaa86;}.cls-7{fill:#95876b;}.cls-8{fill:#af997c;opacity:0.25;}.cls-9{fill:#a09274;}.cls-10{fill:#837660;}.cls-11{fill:#e3e0c9;}.cls-12{fill:#f9eacb;}.cls-13{fill:#d2c7a7;}.cls-14{fill:#877e75;}.cls-15{fill:#fff;}.cls-16{fill:#a0753e;}.cls-17{fill:#50331b;}.cls-18{fill:#633f1a;}.cls-19{fill:none;}</style>
  </defs>
  <g id="Слой_2" data-name="Слой 2">
    <g id="Слой_1-2" data-name="Слой 1">
      <path class="cls-1" d="M38.78,50S27,62,32.76,68.37c5.63,6.26,14.52.56,11.28-8C41.14,52.78,38.78,50,38.78,50Z"></path>
      <path class="cls-2" d="M34.88,61.21c.41-1.23,1.33-4,1.69-5.05a26.53,26.53,0,0,1,1.6-3.29s1.13-2.16-1.74.94S31.78,62.62,32.65,63C33.35,63.22,34.48,62.42,34.88,61.21Z"></path>
      <path class="cls-3" d="M41.47,65.33c-.35,1.16-.18,2.24.37,2.4A2.14,2.14,0,0,0,44,66.14c.35-1.38-.35-2.51-.9-2.63S41.81,64.16,41.47,65.33Z"></path>
      <path class="cls-1" d="M58.43,50S46.65,62,52.42,68.37c5.63,6.26,14.52.56,11.28-8C60.8,52.78,58.43,50,58.43,50Z"></path>
      <path class="cls-2" d="M54.54,61.21c.41-1.23,1.33-4,1.69-5.05a26.53,26.53,0,0,1,1.6-3.29s1.13-2.16-1.74.94S51.44,62.62,52.31,63C53,63.22,54.14,62.42,54.54,61.21Z"></path>
      <path class="cls-3" d="M61.13,65.33c-.35,1.16-.18,2.24.36,2.4a2.14,2.14,0,0,0,2.15-1.59c.35-1.38-.35-2.51-.9-2.63S61.47,64.16,61.13,65.33Z"></path>
      <path class="cls-1" d="M78.09,50S66.3,62,72.08,68.37c5.62,6.26,14.52.56,11.28-8C80.46,52.78,78.09,50,78.09,50Z"></path>
      <path class="cls-2" d="M74.2,61.21c.41-1.23,1.33-4,1.69-5.05a26.53,26.53,0,0,1,1.6-3.29s1.12-2.16-1.74.94S71.1,62.62,72,63C72.67,63.22,73.8,62.42,74.2,61.21Z"></path>
      <path class="cls-3" d="M80.79,65.33c-.35,1.16-.18,2.24.36,2.4a2.14,2.14,0,0,0,2.15-1.59c.34-1.38-.35-2.51-.9-2.63S81.13,64.16,80.79,65.33Z"></path>
      <path class="cls-1" d="M50,25s-11.79,11.92-6,18.34c5.62,6.25,14.52.55,11.28-8C52.32,27.76,50,25,50,25Z"></path>
      <path class="cls-2" d="M46.06,36.19c.41-1.22,1.33-4,1.69-5a27.34,27.34,0,0,1,1.6-3.29s1.12-2.16-1.74.94S43,37.61,43.83,37.94C44.53,38.21,45.66,37.4,46.06,36.19Z"></path>
      <path class="cls-3" d="M52.65,40.31c-.35,1.17-.19,2.24.36,2.4a2.1,2.1,0,0,0,2.14-1.59c.35-1.38-.34-2.5-.89-2.62S53,39.15,52.65,40.31Z"></path>
      <path class="cls-1" d="M69.61,25s-11.79,11.92-6,18.34c5.62,6.25,14.51.55,11.28-8C72,27.76,69.61,25,69.61,25Z"></path>
      <path class="cls-2" d="M65.72,36.19c.41-1.22,1.32-4,1.69-5A27.89,27.89,0,0,1,69,27.85s1.13-2.16-1.73.94-4.65,8.82-3.78,9.15C64.19,38.21,65.32,37.4,65.72,36.19Z"></path>
      <path class="cls-3" d="M72.3,40.31c-.34,1.17-.18,2.24.37,2.4a2.1,2.1,0,0,0,2.14-1.59c.35-1.38-.34-2.5-.89-2.62S72.65,39.15,72.3,40.31Z"></path>
      <path class="cls-1" d="M60.43,0s-11.79,11.92-6,18.34C60,24.6,68.93,18.9,65.7,10.39,62.79,2.75,60.43,0,60.43,0Z"></path>
      <path class="cls-2" d="M56.54,11.18c.4-1.23,1.32-4,1.68-5a26.53,26.53,0,0,1,1.6-3.29S61,.68,58.08,3.78s-4.65,8.81-3.78,9.14C55,13.19,56.14,12.39,56.54,11.18Z"></path>
      <path class="cls-3" d="M63.12,15.3c-.34,1.16-.18,2.24.37,2.4a2.13,2.13,0,0,0,2.14-1.6c.35-1.37-.34-2.5-.89-2.62S63.47,14.13,63.12,15.3Z"></path>
      <polygon class="cls-4" points="92.25 210.24 92.31 210.14 92.22 210.14 92.25 210.24"></polygon>
      <polygon class="cls-5" points="53.48 153.29 106.81 130.59 98.81 191.99 53.48 223.56 53.48 153.29"></polygon>
      <polygon class="cls-6" points="8 191.99 0 130.59 53.48 153.29 53.48 223.56 8 191.99"></polygon>
      <polygon class="cls-7" points="53.48 153.29 106.81 130.59 98.81 191.99 53.48 223.56 53.48 153.29"></polygon>
      <polygon class="cls-8" points="8 191.99 0 130.59 53.48 153.29 53.48 223.56 8 191.99"></polygon>
      <polygon class="cls-9" points="53.48 223.56 8 191.99 53.69 174.73 98.81 191.99 53.48 223.56"></polygon>
      <path class="cls-10" d="M17.66,165a16.41,16.41,0,0,1-1.38-8.9,14.14,14.14,0,0,1,3.95-8.25,19.57,19.57,0,0,1,7.85-4.67A33.44,33.44,0,0,1,37,141.59c-.73.17-1.47.32-2.2.46s-1.45.37-2.17.55-1.43.41-2.15.61-1.4.5-2.09.76A21.22,21.22,0,0,0,21,148.61a14.48,14.48,0,0,0-3.9,7.61,17.43,17.43,0,0,0-.23,4.39A16.87,16.87,0,0,0,17.66,165Z"></path>
      <path class="cls-10" d="M67.36,164.15c.14.23.44.31.68.43l.76.32c.51.19,1,.37,1.55.53,1,.35,2.1.65,3.15.95,2.12.57,4.25,1.09,6.39,1.51,4.3.88,8.64,1.45,13,2A48.34,48.34,0,0,1,79.68,169a48.91,48.91,0,0,1-6.43-1.77q-1.57-.56-3.09-1.26c-.51-.25-1-.5-1.49-.77A3.63,3.63,0,0,1,67.36,164.15Z"></path>
      <path class="cls-10" d="M38.71,161a39.08,39.08,0,0,1-3.53,11.78A33.84,33.84,0,0,1,32,178a20.25,20.25,0,0,1-4.43,4.29,36.25,36.25,0,0,0,3.74-4.78,55.49,55.49,0,0,0,2.92-5.29c.88-1.82,1.66-3.68,2.42-5.57S38.06,162.89,38.71,161Z"></path>
      <path class="cls-10" d="M55.25,209.82c2.18-1.07,4.43-1.91,6.63-2.87s4.37-1.92,6.48-3a42,42,0,0,0,6-3.76,17.24,17.24,0,0,0,4.75-5.23,13.85,13.85,0,0,1-4.21,5.89,31.5,31.5,0,0,1-6.06,4.07,55.16,55.16,0,0,1-6.68,2.85c-1.14.4-2.3.76-3.45,1.1Z"></path>
      <path class="cls-10" d="M30.24,203.08a15.54,15.54,0,0,1-3.46-2.19,8.47,8.47,0,0,1-2.5-3.37,4.77,4.77,0,0,1-.3-2.19,5.37,5.37,0,0,1,.66-2.11,10.05,10.05,0,0,1,2.89-3.12,28.24,28.24,0,0,1,7.38-3.66,55.61,55.61,0,0,1,7.9-2.06c-2.56.92-5.11,1.83-7.6,2.85a33.8,33.8,0,0,0-7,3.75,9.29,9.29,0,0,0-2.64,2.74,4.3,4.3,0,0,0-.45,3.53,8.24,8.24,0,0,0,2.06,3.25A18.32,18.32,0,0,0,30.24,203.08Z"></path>
      <path class="cls-10" d="M79.14,162.91l4-5.47c1.3-1.82,2.58-3.67,3.79-5.55a57.45,57.45,0,0,0,3.35-5.78,19,19,0,0,0,2.1-6.32A14.42,14.42,0,0,1,91,146.46a37.06,37.06,0,0,1-3.21,6A56.73,56.73,0,0,1,79.14,162.91Z"></path>
      <polygon class="cls-4" points="51.53 188.08 51.58 187.99 51.49 187.98 51.53 188.08"></polygon>
      <polygon class="cls-11" points="53.48 115.24 106.81 130.59 53.48 153.29 0 130.59 53.48 115.24"></polygon>
      <polygon class="cls-12" points="53.48 115.24 0 130.59 0.94 130.99 106.31 130.45 53.48 115.24"></polygon>
      <path class="cls-13" d="M33.61,131.34a30.52,30.52,0,0,1,2.53-2.69,23.32,23.32,0,0,1,2.94-2.28,29.57,29.57,0,0,1,6.69-3.25A34.83,34.83,0,0,1,53,121.6c1.22-.16,2.47-.13,3.69-.19s2.47.11,3.69.21c-1.23.15-2.45.19-3.66.32s-2.42.27-3.61.5-2.39.4-3.55.73-2.33.64-3.49,1a35.8,35.8,0,0,0-12.5,7.18Z"></path>
      <polygon class="cls-12" points="0.94 130.99 53.48 153.29 106.81 130.59 106.31 130.45 0.94 130.99"></polygon>
      <ellipse class="cls-5" cx="55.17" cy="131.66" rx="12.32" ry="4.82"></ellipse>
      <ellipse class="cls-14" cx="55.48" cy="133.29" rx="10.15" ry="3.97"></ellipse>
      <path class="cls-15" d="M47.82,192.51a2.5,2.5,0,0,1-.74.84c-.14.12-.28.25-.43.36s-.26.26-.5.26c.05-.23.21-.32.33-.46s.28-.24.41-.37A2.47,2.47,0,0,1,47.82,192.51Z"></path>
      <path class="cls-15" d="M49,193.35a2.52,2.52,0,0,1-.69,1.1c-.14.17-.27.34-.42.5s-.27.35-.53.39a5.25,5.25,0,0,1,.73-1.06A2.79,2.79,0,0,1,49,193.35Z"></path>
      <path class="cls-15" d="M50.27,193.88a2.34,2.34,0,0,1-.31.8c-.07.12-.14.25-.22.36s-.11.26-.33.3c-.07-.21.07-.29.11-.43a2.64,2.64,0,0,1,.2-.37A2.45,2.45,0,0,1,50.27,193.88Z"></path>
      <path class="cls-15" d="M51.45,194c.17.41,0,.73-.13,1.07,0,.17-.08.34-.14.51s0,.36-.26.48c-.14-.21,0-.36,0-.54s.09-.35.13-.52C51.13,194.62,51.1,194.25,51.45,194Z"></path>
      <path class="cls-15" d="M52.91,194.11a1.16,1.16,0,0,1,.21.64v.65l.05.65a1,1,0,0,1-.12.66.94.94,0,0,1-.19-.64l0-.65-.07-.65A1.15,1.15,0,0,1,52.91,194.11Z"></path>
      <path class="cls-15" d="M54,194.11a1.2,1.2,0,0,1,.37.57,6.62,6.62,0,0,1,.24.62l.23.62.11.32c0,.11.13.18,0,.35-.21,0-.16-.17-.23-.27l-.14-.3-.23-.62a5.73,5.73,0,0,1-.25-.62A1.24,1.24,0,0,1,54,194.11Z"></path>
      <path class="cls-15" d="M55.34,194.11a.91.91,0,0,1,.41.36,4.12,4.12,0,0,1,.27.45,4,4,0,0,1,.29.43c.07.17.24.26.16.52-.26,0-.27-.23-.4-.36s-.19-.29-.28-.44a3.35,3.35,0,0,1-.29-.44A.79.79,0,0,1,55.34,194.11Z"></path>
      <path class="cls-15" d="M56.34,193.53c.26,0,.34.19.48.32a3.6,3.6,0,0,1,.37.41l.37.42.18.21c0,.09.16.11.1.29s-.19-.08-.27-.13l-.21-.19-.37-.41c-.13-.14-.27-.26-.39-.41S56.32,193.8,56.34,193.53Z"></path>
      <path class="cls-16" d="M47.26,190.3s-1.42.35-1,1.22a7.73,7.73,0,0,0,5.38,3.16c2.61.21,4.55-.31,5.59-1.35s.49-1.25-.76-1.36S47.88,190.72,47.26,190.3Z"></path>
      <path class="cls-17" d="M51.57,160.4s-2.4-2.15-2.64-2.22-.07,4.76,0,5.1S51.64,161.17,51.57,160.4Z"></path>
      <path class="cls-17" d="M48.93,162.48c-1.8,1.84-6.49,6.3-8.34,11.67s-.74,9.45,2.41,13.62,8.43,6.11,14.91,4.35,11.48-8.61,9.82-15.65-6.3-14.36-10.93-17.69S52.12,159.22,48.93,162.48Z"></path>
      <path class="cls-18" d="M46.67,164.81s-8.67,8.84-2,17.54c4,5.21,12.7,4.77,16,2.46s7.54-9.78.83-19.13-6.92-8-7.56-8.2-1.54.67-1.54.67-1.5,1.95-1.68,2.21-1.45,1.84-2.3,2.71S46.67,164.81,46.67,164.81Z"></path>
      <path class="cls-16" d="M53.58,162.36c0-1.61-.88-1.13-1.49-.72a6.77,6.77,0,0,0-1.4,1.31c-1.3,1.57-4.75,4.4-5.75,8.33-.57,2.26-.46,7.69,1.67,7.69s2.5-6.07,3.89-8.94C51.46,168,53.57,164.76,53.58,162.36Z"></path>
      <path class="cls-17" d="M57.61,160a4.4,4.4,0,0,0,.8-1.56c.07-.63,1.2,2.91.94,3.5S57.61,160,57.61,160Z"></path>
      <path class="cls-19" d="M46.61,191.54s-1,.4-1.39.58"></path>
    </g>
  </g>
</svg>
