<?xml version="1.0" encoding="UTF-8"?>
<svg xmlns="http://www.w3.org/2000/svg" viewBox="0 0 80.02 220.9">
  <defs>
    <style>.cls-1{fill:#a0bfe2;}.cls-2{fill:#b3ceea;}.cls-3{fill:none;stroke:#334253;stroke-miterlimit:10;stroke-width:1.26px;}.cls-4{fill:#9fbee2;}.cls-5{fill:#334253;}.cls-6{fill:#a0cae7;}.cls-7{fill:#d0e6f5;}.cls-8{fill:#b8d8ee;}.cls-9{fill:#a29274;}.cls-10{fill:#e3e0c9;}.cls-11{fill:#bda885;}.cls-12{fill:#7c705b;}.cls-13{fill:#d0c5a6;}.cls-14{fill:#a29277;}.cls-15{fill:#817870;}</style>
  </defs>
  <g id="Слой_2" data-name="Слой 2">
    <g id="Слой_1-2" data-name="Слой 1">
      <circle class="cls-1" cx="44.58" cy="103.56" r="12.9"></circle>
      <path class="cls-2" d="M36,106.67a12.81,12.81,0,0,0,3.13,8.4A12.88,12.88,0,0,0,54.19,94.94,12.88,12.88,0,0,0,36,106.67Z"></path>
      <line class="cls-3" x1="51.11" y1="92.59" x2="38.05" y2="114.12"></line>
      <path class="cls-4" d="M43.6,114.44s-.41-.66,0-2.52c.65-3,6.88-12.23,7.78-12.87,0,0,2.2-1.82,3.31-.94s1.88,3.4,2.1,4.82-.22,5.27-1.49,6.82-2.67,4.42-7,5.14S43.6,114.44,43.6,114.44Z"></path>
      <path class="cls-5" d="M44.58,117.08a13.53,13.53,0,1,1,13.53-13.52A13.53,13.53,0,0,1,44.58,117.08Zm0-25.79a12.27,12.27,0,1,0,12.27,12.27A12.28,12.28,0,0,0,44.58,91.29Z"></path>
      <path class="cls-6" d="M29.42,41.32s-9.84,10-5,15.32,12.13.47,9.43-6.65C31.4,43.61,29.42,41.32,29.42,41.32Z"></path>
      <path class="cls-7" d="M26.17,50.66c.34-1,1.11-3.37,1.41-4.22a21.87,21.87,0,0,1,1.34-2.75s.94-1.81-1.46.78-3.88,7.37-3.15,7.64S25.84,51.66,26.17,50.66Z"></path>
      <path class="cls-8" d="M31.67,54.1c-.28,1-.15,1.87.31,2a1.77,1.77,0,0,0,1.79-1.33A1.83,1.83,0,0,0,33,52.58C32.56,52.48,32,53.12,31.67,54.1Z"></path>
      <path class="cls-6" d="M45.85,41.32s-9.85,10-5,15.32S53,57.11,50.25,50C47.83,43.61,45.85,41.32,45.85,41.32Z"></path>
      <path class="cls-7" d="M42.6,50.66c.34-1,1.1-3.37,1.41-4.22a22.39,22.39,0,0,1,1.33-2.75s.94-1.81-1.45.78S40,51.84,40.73,52.11,42.26,51.66,42.6,50.66Z"></path>
      <path class="cls-8" d="M48.1,54.1c-.29,1-.15,1.87.31,2a1.78,1.78,0,0,0,1.79-1.33,1.82,1.82,0,0,0-.75-2.19C49,52.48,48.39,53.12,48.1,54.1Z"></path>
      <path class="cls-6" d="M62.27,41.32s-9.84,10-5,15.32,12.13.47,9.43-6.65C64.25,43.61,62.27,41.32,62.27,41.32Z"></path>
      <path class="cls-7" d="M59,50.66c.34-1,1.11-3.37,1.41-4.22a21.87,21.87,0,0,1,1.34-2.75s.94-1.81-1.46.78-3.88,7.37-3.15,7.64S58.69,51.66,59,50.66Z"></path>
      <path class="cls-8" d="M64.52,54.1c-.28,1-.15,1.87.31,2a1.77,1.77,0,0,0,1.79-1.33,1.83,1.83,0,0,0-.74-2.19C65.41,52.48,64.81,53.12,64.52,54.1Z"></path>
      <path class="cls-6" d="M39.5,19.48s-9.85,10-5,15.33,12.13.46,9.43-6.65C41.47,21.78,39.5,19.48,39.5,19.48Z"></path>
      <path class="cls-7" d="M36.25,28.82c.34-1,1.1-3.37,1.41-4.22A22.39,22.39,0,0,1,39,21.85s.94-1.8-1.45.79S33.65,30,34.38,30.28C35,30.5,35.91,29.83,36.25,28.82Z"></path>
      <path class="cls-8" d="M41.75,32.26c-.29,1-.15,1.87.3,2a1.77,1.77,0,0,0,1.79-1.33,1.81,1.81,0,0,0-.74-2.19C42.63,30.65,42,31.29,41.75,32.26Z"></path>
      <path class="cls-6" d="M55.92,19.48s-9.85,10-5,15.33,12.13.46,9.42-6.65C57.9,21.78,55.92,19.48,55.92,19.48Z"></path>
      <path class="cls-7" d="M52.67,28.82c.34-1,1.11-3.37,1.41-4.22a21.87,21.87,0,0,1,1.34-2.75s.94-1.8-1.46.79S50.08,30,50.81,30.28C51.39,30.5,52.34,29.83,52.67,28.82Z"></path>
      <path class="cls-8" d="M58.17,32.26c-.28,1-.15,1.87.31,2a1.77,1.77,0,0,0,1.79-1.33,1.82,1.82,0,0,0-.75-2.19C59.06,30.65,58.46,31.29,58.17,32.26Z"></path>
      <path class="cls-6" d="M48.57,0s-9.84,10-5,15.32,12.13.47,9.43-6.64C50.55,2.3,48.57,0,48.57,0Z"></path>
      <path class="cls-7" d="M45.32,9.34c.34-1,1.11-3.37,1.41-4.22a21.87,21.87,0,0,1,1.34-2.75s.94-1.81-1.46.79-3.88,7.36-3.15,7.64C44,11,45,10.35,45.32,9.34Z"></path>
      <path class="cls-8" d="M50.82,12.78c-.28,1-.15,1.87.31,2a1.79,1.79,0,0,0,1.79-1.33,1.85,1.85,0,0,0-.74-2.2C51.71,11.16,51.11,11.81,50.82,12.78Z"></path>
      <polygon class="cls-9" points="40.07 168.25 80.02 151.25 74.03 197.25 40.07 220.9 40.07 168.25"></polygon>
      <polygon class="cls-10" points="40.07 139.74 80.02 151.25 40.07 168.25 0 151.25 40.07 139.74"></polygon>
      <polygon class="cls-11" points="40.07 168.25 0 151.24 5.99 197.25 16.57 204.59 16.35 204.43 16.57 204.59 40.07 220.9 40.07 168.25"></polygon>
      <path class="cls-12" d="M39.12,219.49c.48-.65.91-1.34,1.33-2s.86-1.37,1.28-2.05c.83-1.38,1.66-2.75,2.45-4.15s1.52-2.81,2.24-4.25,1.34-2.91,1.94-4.43a21.28,21.28,0,0,1-1.15,4.77,34,34,0,0,1-2.08,4.45,37,37,0,0,1-2.7,4.09A21.31,21.31,0,0,1,39.12,219.49Z"></path>
      <path class="cls-13" d="M25.18,151.81A21.22,21.22,0,0,1,27,149.74,16.8,16.8,0,0,1,29.22,148a21.49,21.49,0,0,1,5-2.47,24.59,24.59,0,0,1,5.48-1.12c.92-.11,1.86-.08,2.78-.1s1.85.12,2.76.23c-.91.13-1.83.18-2.73.31s-1.81.23-2.7.41-1.78.31-2.64.57a25.72,25.72,0,0,0-2.6.74,29.5,29.5,0,0,0-4.92,2.16A30.39,30.39,0,0,0,25.18,151.81Z"></path>
      <path class="cls-13" d="M18.36,153.43a10.74,10.74,0,0,0,3.21.26,31.6,31.6,0,0,0,3.22-.31c2.15-.3,4.27-.81,6.49-1.2A16.68,16.68,0,0,1,25,154.47a13.5,13.5,0,0,1-3.42.07,8.94,8.94,0,0,1-1.68-.34A3.65,3.65,0,0,1,18.36,153.43Z"></path>
      <path class="cls-12" d="M47.28,185.94c-.18-1.15-.41-2.31-.49-3.5a15.29,15.29,0,0,1,.16-3.57,11.46,11.46,0,0,1,3.22-6.44,13.18,13.18,0,0,1,6.39-3.32,21.53,21.53,0,0,1,7.06-.39,33.67,33.67,0,0,0-6.84,1.22,13.94,13.94,0,0,0-5.84,3.27A11.59,11.59,0,0,0,47.79,179,28.28,28.28,0,0,0,47.28,185.94Z"></path>
      <path class="cls-12" d="M61,175.07c1.91-2.81,3.89-5.52,5.69-8.33a45.77,45.77,0,0,0,2.53-4.31,14.78,14.78,0,0,0,1.68-4.69,10.42,10.42,0,0,1-.9,5,26.24,26.24,0,0,1-2.38,4.55A38.3,38.3,0,0,1,61,175.07Z"></path>
      <path class="cls-12" d="M51.7,189.68a8.66,8.66,0,0,0,2.27.89c.78.24,1.57.46,2.36.67,1.59.4,3.18.79,4.79,1.1,3.2.66,6.44,1.11,9.74,1.6a33.86,33.86,0,0,1-14.78-1.89,21.33,21.33,0,0,1-2.31-1c-.37-.19-.74-.39-1.1-.61A2.64,2.64,0,0,1,51.7,189.68Z"></path>
      <path class="cls-12" d="M61.34,195.5a12,12,0,0,1-1.14-6.69,10.64,10.64,0,0,1,3-6.26A14.77,14.77,0,0,1,69.1,179,24.07,24.07,0,0,1,75.81,178a41.21,41.21,0,0,0-6.41,1.89A16,16,0,0,0,64,183.32,10.78,10.78,0,0,0,61,188.94a13.62,13.62,0,0,0-.21,3.26A12.82,12.82,0,0,0,61.34,195.5Z"></path>
      <path class="cls-12" d="M75.81,174.42a26.65,26.65,0,0,1-2.53,8.89,23.21,23.21,0,0,1-2.44,4,14.17,14.17,0,0,1-3.41,3.15,31.22,31.22,0,0,0,2.71-3.64q1.17-1.94,2.15-4c.67-1.36,1.25-2.75,1.84-4.15S75.27,175.87,75.81,174.42Z"></path>
      <path class="cls-13" d="M49.72,164.13l.8-.33a27.16,27.16,0,0,0-3.64-1.34C47.89,163,48.83,163.57,49.72,164.13Z"></path>
      <path class="cls-12" d="M49.43,164.8c-.57,1.41-1,2.57-1.71,3.92a28.86,28.86,0,0,1-5,7.54A14.91,14.91,0,0,0,46,173a26.75,26.75,0,0,0,2.41-4,35.35,35.35,0,0,0,1.81-4.26c.08-.29.18-.73.26-1l-.8.33C49.67,164.26,49.48,164.67,49.43,164.8Z"></path>
      <path class="cls-14" d="M4.56,186.76a12.08,12.08,0,0,1,3.61-3,20.55,20.55,0,0,1,4.37-1.87,23.33,23.33,0,0,1,4.67-.82c.79-.08,1.58-.06,2.36-.07s1.57.1,2.35.2c-.78.15-1.55.22-2.32.34s-1.53.23-2.28.37-1.51.27-2.25.47-1.49.36-2.22.57a32.82,32.82,0,0,0-4.29,1.56A21.9,21.9,0,0,0,4.56,186.76Z"></path>
      <path class="cls-14" d="M7,180.37c1.59-1,3.09-2.08,4.63-3.13s3-2.11,4.55-3.2,3-2.17,4.48-3.28c.74-.57,1.47-1.13,2.17-1.73a11.72,11.72,0,0,0,2-2,14.71,14.71,0,0,1-3.58,4.35,51.26,51.26,0,0,1-4.4,3.51c-1.53,1.08-3.1,2.11-4.73,3A29.48,29.48,0,0,1,7,180.37Z"></path>
      <path class="cls-14" d="M6.82,195.15a4.57,4.57,0,0,1,1.79-4.4,8.19,8.19,0,0,1,4.74-1.4,18.27,18.27,0,0,1,4.79.66,26.17,26.17,0,0,1,4.48,1.66c-1.58-.24-3.11-.6-4.65-.82a22.78,22.78,0,0,0-2.31-.29,17.66,17.66,0,0,0-2.29-.12,8.8,8.8,0,0,0-4.27,1A4.86,4.86,0,0,0,6.82,195.15Z"></path>
      <path class="cls-14" d="M1.59,159a4.8,4.8,0,0,0,1.79,2,12.44,12.44,0,0,0,2.36,1.26,29.91,29.91,0,0,0,5.2,1.45c1.79.34,3.59.59,5.41.79s3.65.37,5.49.61a39.52,39.52,0,0,1-5.55.25,34.83,34.83,0,0,1-5.56-.57A21.77,21.77,0,0,1,5.38,163,10.75,10.75,0,0,1,3,161.38,4.56,4.56,0,0,1,1.59,159Z"></path>
      <path class="cls-14" d="M29.58,213.33a11,11,0,0,1-2.64-1.59A6.31,6.31,0,0,1,25,209.2a4,4,0,0,1,.25-3.32,7.86,7.86,0,0,1,2.2-2.38A20.67,20.67,0,0,1,33,200.76a37.11,37.11,0,0,1,6-1.44c-1.9.75-3.79,1.46-5.65,2.24a26.45,26.45,0,0,0-5.22,2.82c-1.56,1.09-2.87,2.75-2.3,4.55a6.18,6.18,0,0,0,1.49,2.42A13.9,13.9,0,0,0,29.58,213.33Z"></path>
      <path class="cls-14" d="M22.82,163.84a3.74,3.74,0,0,0-.28,3.21A8.51,8.51,0,0,0,27,171.22a13.5,13.5,0,0,1-2.31-1.94,6,6,0,0,1-1.55-2.43,3.24,3.24,0,0,1,.33-2.65,6.81,6.81,0,0,1,2-2l.09-.06-.86-.37A7.2,7.2,0,0,0,22.82,163.84Z"></path>
      <path class="cls-13" d="M37.92,160.58a55.05,55.05,0,0,0-6.66-.12,19,19,0,0,0-5.59.9l-1,.36.86.37A26.87,26.87,0,0,1,31.49,161C33.59,160.82,35.76,160.72,37.92,160.58Z"></path>
      <path class="cls-14" d="M22.13,201.56a11,11,0,0,0-2.48.28,5.69,5.69,0,0,0-2.25,1.22,3,3,0,0,0-.85,1.51l.22.16a3.16,3.16,0,0,1,1-1.19,6.38,6.38,0,0,1,2.06-.91,44.72,44.72,0,0,1,4.7-.78A10.57,10.57,0,0,0,22.13,201.56Z"></path>
      <path class="cls-14" d="M21.34,197.91c1.61-.85,3.29-1.52,4.92-2.25s3.26-1.46,4.84-2.29a33.32,33.32,0,0,0,4.5-2.77,13.48,13.48,0,0,0,3.64-3.84,10.06,10.06,0,0,1-3.09,4.5,22.47,22.47,0,0,1-4.54,3.09,39.49,39.49,0,0,1-5,2.11C24.86,197.06,23.09,197.46,21.34,197.91Z"></path>
      <path class="cls-12" d="M43.74,211c1.61-.85,3.29-1.52,4.92-2.25s3.26-1.46,4.84-2.28a33.39,33.39,0,0,0,4.5-2.78,13.35,13.35,0,0,0,3.64-3.84,10.06,10.06,0,0,1-3.09,4.5A22.47,22.47,0,0,1,54,207.4a37.55,37.55,0,0,1-5,2.11C47.26,210.11,45.49,210.51,43.74,211Z"></path>
      <path class="cls-13" d="M45.92,163.23a28.1,28.1,0,0,1,3.7-4.86,28.88,28.88,0,0,1,4.65-4,20.72,20.72,0,0,1,5.54-2.73,13.48,13.48,0,0,1,6.11-.37,18.39,18.39,0,0,0-5.83,1.18,26.75,26.75,0,0,0-5.2,2.83A41.49,41.49,0,0,0,50.22,159C48.75,160.34,47.3,161.73,45.92,163.23Z"></path>
      <path class="cls-12" d="M77.58,157.12a8.15,8.15,0,0,0-4.75.84c.8-.08,1.58-.14,2.35-.15a12.42,12.42,0,0,1,2.29.12,7.56,7.56,0,0,1,1.64.4l.08-.71A7.69,7.69,0,0,0,77.58,157.12Z"></path>
      <path class="cls-14" d="M4.56,179.3a13.51,13.51,0,0,1,3.35.38,15.39,15.39,0,0,1,3.2,1.12,8.56,8.56,0,0,1,2.78,2.09,3.44,3.44,0,0,1,.8,3.3,4,4,0,0,0-1.42-2.71,11.65,11.65,0,0,0-2.64-1.69C8.71,180.84,6.64,180.14,4.56,179.3Z"></path>
      <path class="cls-14" d="M21.23,194l2.91-4.25c1-1.41,1.91-2.82,2.79-4.28a40.83,40.83,0,0,0,2.46-4.43,17.41,17.41,0,0,0,1.6-4.82,11.61,11.61,0,0,1-.81,5.14,24.92,24.92,0,0,1-2.31,4.69,37.33,37.33,0,0,1-3,4.22A32.52,32.52,0,0,1,21.23,194Z"></path>
      <ellipse class="cls-9" cx="41.33" cy="152.05" rx="9.23" ry="3.61"></ellipse>
      <ellipse class="cls-15" cx="41.57" cy="153.26" rx="7.61" ry="2.97"></ellipse>
    </g>
  </g>
</svg>
