<?xml version="1.0" encoding="UTF-8"?>
<svg xmlns="http://www.w3.org/2000/svg" viewBox="0 0 108.76 110.39">
  <defs>
    <style>.cls-1{isolation:isolate;}.cls-2,.cls-3,.cls-4{fill:#82b7d9;}.cls-2,.cls-4,.cls-7{mix-blend-mode:multiply;}.cls-4,.cls-6,.cls-7{opacity:0.4;}.cls-5,.cls-6,.cls-7{fill:#8dc7ed;}.cls-8{fill:#795e32;}.cls-9{fill:#977a4a;}.cls-10{fill:#5c4722;}.cls-11{fill:#f1f3f5;mix-blend-mode:soft-light;}</style>
  </defs>
  <g class="cls-1">
    <g id="Слой_2" data-name="Слой 2">
      <g id="Слой_1-2" data-name="Слой 1">
        <polygon class="cls-2" points="56.86 40.13 108.53 18.22 102.41 82.27 57.52 110.39 56.86 40.13"></polygon>
        <polygon class="cls-3" points="1.87 28.84 56.27 50.51 57.52 110.39 7.61 82.16 1.87 28.84"></polygon>
        <polygon class="cls-4" points="1.87 28.84 6.83 73.09 56.72 50.66 56.8 11.44 1.87 28.84"></polygon>
        <polygon class="cls-5" points="6.83 73.09 56.72 50.66 103.33 70.8 56.93 99.66 6.83 73.09"></polygon>
        <polygon class="cls-5" points="56.8 11.44 1.87 28.84 56.27 50.51 107.16 28.84 56.8 11.44"></polygon>
        <polygon class="cls-6" points="56.86 0 56.8 11.44 94.11 24.26 108.53 18.22 56.86 0"></polygon>
        <polygon class="cls-7" points="108.76 17.99 57.09 39.91 56.84 50.95 107.38 28.61 108.76 17.99"></polygon>
        <polygon class="cls-6" points="0 16.38 56.86 0 56.8 11.44 1.87 28.84 0 16.38"></polygon>
        <polygon class="cls-7" points="0 16.38 1.87 28.84 56.84 50.95 57.09 39.91 0 16.38"></polygon>
        <path class="cls-8" d="M64.39,61a6.82,6.82,0,0,1-1.89,1,10.48,10.48,0,0,1-2,.48,9.69,9.69,0,0,1-2,.07,6.8,6.8,0,0,1-2.09-.46,6.68,6.68,0,0,1,1.89-1,9.67,9.67,0,0,1,2-.48,10.55,10.55,0,0,1,2-.07A6.8,6.8,0,0,1,64.39,61Z"></path>
        <path class="cls-8" d="M34.48,70.94c.37-.64.79-1.24,1.19-1.86s.84-1.19,1.28-1.76.72-1.31,1.37-1.66a4.31,4.31,0,0,1,2.37-.61l.19.2a4.16,4.16,0,0,1-.74,2.33c-.38.64-1.14.87-1.73,1.28s-1.21.81-1.83,1.19-1.26.75-1.92,1.08Z"></path>
        <path class="cls-8" d="M81,45.58a4.22,4.22,0,0,1,.17-2.42,5.59,5.59,0,0,1,1.39-1.76,19.51,19.51,0,0,1,1.56-1.59c.57-.49,1.12-1,1.73-1.42l.17.15c-.33.66-.69,1.3-1,2l-1,1.92a6.59,6.59,0,0,1-.93,1.9,5,5,0,0,1-1.93,1.37Z"></path>
        <path class="cls-8" d="M94.74,37.38c-5.69,2.38-11.4,4.75-16.88,7.6-5.93,3.08-11.2,7-16.66,10.8C50.12,63.51,37.67,69.37,24.05,70.35c-2.89.2-2.92,4.74,0,4.54,12.66-.91,24.43-5.56,35.1-12.3,5.56-3.51,10.64-7.74,16.31-11.1a165.44,165.44,0,0,1,20.48-9.74c2.66-1.11,1.49-5.5-1.2-4.37Z"></path>
        <ellipse class="cls-9" cx="23.34" cy="72.79" rx="1.32" ry="2.1" transform="translate(-14.52 6.38) rotate(-11.91)"></ellipse>
        <path class="cls-10" d="M95.26,38.14a3,3,0,0,1,1,.22A1.62,1.62,0,0,1,97,39a1.59,1.59,0,0,1,.2,1A3.54,3.54,0,0,1,97,41v0h0L88,45.12c-3,1.38-5.93,2.75-8.82,4.23s-5.5,3.49-8.18,5.32l-4,2.82-2,1.44-1,.73-.48.37-.23.18-.16.15-.32.16s0,0,.1,0a.42.42,0,0,0,.12-.23.35.35,0,0,0,0-.16s0,0,.11.09a3.27,3.27,0,0,0,.5.32,2.66,2.66,0,0,0,.56.2l.35.09.13,0,.09,0A.57.57,0,0,1,65,61a.49.49,0,0,1,.12.3.4.4,0,0,1,0,.24.69.69,0,0,1-.13.21,3.62,3.62,0,0,1-.63.53,2.27,2.27,0,0,1-.77.34,6,6,0,0,1-1.49.21c-.48,0-1,0-1.4,0-.23,0-.45,0-.64,0l-.17,0-.24.14c-.77.49-1.56,1-2.36,1.47a81.16,81.16,0,0,1-9.89,5.12,68,68,0,0,1-10.55,3.59,51.43,51.43,0,0,1-5.49,1c-.92.07-1.85.18-2.77.22l-2.78,0v-.11l2.75-.23c.91-.11,1.82-.28,2.73-.42a48.89,48.89,0,0,0,5.35-1.26,72.5,72.5,0,0,0,10.3-3.86q2.52-1.11,5-2.4t4.84-2.64q1.19-.69,2.37-1.41l.36-.2a1.42,1.42,0,0,1,.51-.11,6.19,6.19,0,0,1,.74,0c.47,0,.92,0,1.37,0a5.5,5.5,0,0,0,1.25-.14,1.48,1.48,0,0,0,.49-.2,3.25,3.25,0,0,0,.44-.34s0,0,0,.06a.39.39,0,0,0,0,.16.46.46,0,0,0,.09.23.62.62,0,0,0,.11.09h0L64,61.61a3.55,3.55,0,0,1-.74-.29,4.57,4.57,0,0,1-.65-.43,1.17,1.17,0,0,1-.36-.41.62.62,0,0,1-.06-.32.55.55,0,0,1,.2-.38.71.71,0,0,1,.42-.15l-.32.16.29-.27.25-.19.5-.38,1-.72,2-1.41,4.06-2.76c2.73-1.81,5.42-3.65,8.32-5.24s6-2.74,8.94-4.06l9-3.89,0,.05a3.81,3.81,0,0,0,.27-.93,1.47,1.47,0,0,0-.16-.9,2.09,2.09,0,0,0-1.65-.84Z"></path>
        <path class="cls-9" d="M94.41,38S75.94,44.93,67.59,52.32,35.13,72.3,25,70.79c0,0,.55.39.6,2,0,0,20.57-2,42.18-19.07C67.81,53.68,70.11,49.76,94.41,38Z"></path>
        <path class="cls-8" d="M59.55,65.62a6.77,6.77,0,0,1-2.14-.18,9.8,9.8,0,0,1-3.65-1.68,6.84,6.84,0,0,1-1.52-1.52,6.49,6.49,0,0,1,2.14.17A10,10,0,0,1,58,64.1,6.84,6.84,0,0,1,59.55,65.62Z"></path>
        <path class="cls-8" d="M29,57.87c.66-.34,1.34-.61,2-.92s1.35-.54,2-.79a5.19,5.19,0,0,1,2.06-.66,4.23,4.23,0,0,1,2.32.77l0,.26a4.22,4.22,0,0,1-1.88,1.58,5.16,5.16,0,0,1-2.15.13c-.72,0-1.45,0-2.18,0s-1.46,0-2.2-.12Z"></path>
        <path class="cls-8" d="M81.81,61.63a4.13,4.13,0,0,1,1.46-2A5.47,5.47,0,0,1,85.38,59a18.1,18.1,0,0,1,2.18-.5,20.79,20.79,0,0,1,2.21-.26l.07.22c-.64.38-1.28.72-1.89,1.1l-1.85,1.1a6.7,6.7,0,0,1-1.82,1.1,4.93,4.93,0,0,1-2.36.11Z"></path>
        <path class="cls-8" d="M97.75,62.12c-6.5-1.13-13-2.27-19.6-2.8s-12.94,0-19.46.24c-13.23.44-26.5-1.47-38.25-7.86-2.56-1.4-4.85,2.52-2.29,3.92C29,61.54,41.16,64,53.47,64.15c6.64.1,13.26-.72,19.89-.54,7.81.2,15.51,1.55,23.19,2.89,2.85.5,4.08-3.88,1.2-4.38Z"></path>
        <ellipse class="cls-9" cx="18.6" cy="53.42" rx="2.1" ry="1.32" transform="translate(-37.94 51.89) rotate(-69.25)"></ellipse>
        <path class="cls-10" d="M97.86,63.07a3.23,3.23,0,0,1,.71.72,1.58,1.58,0,0,1,.31,1,1.56,1.56,0,0,1-.37.95,3.5,3.5,0,0,1-.75.69l0,0h0L88,65c-3.23-.43-6.48-.89-9.71-1.2s-6.5,0-9.76.06l-4.89.22-2.44.14L60,64.34l-.59,0-.3,0-.21,0-.36,0s0,0,.1,0a.36.36,0,0,0,.23-.13.24.24,0,0,0,.06-.14s0,0,0,.13a3.76,3.76,0,0,0,.25.54,2.73,2.73,0,0,0,.37.47l.24.26.09.11,0,.09A.64.64,0,0,1,60,66a.54.54,0,0,1-.07.32.49.49,0,0,1-.16.18.52.52,0,0,1-.22.1,3.71,3.71,0,0,1-.81.11,2.51,2.51,0,0,1-.84-.12,6.09,6.09,0,0,1-1.36-.64c-.42-.24-.81-.51-1.19-.75-.19-.12-.38-.24-.55-.33l-.15-.07h-.28c-.92,0-1.85,0-2.78,0a82.54,82.54,0,0,1-11.09-1A66.83,66.83,0,0,1,29.69,61a49.39,49.39,0,0,1-5.16-2.11c-.82-.44-1.66-.84-2.46-1.31l-2.36-1.48.07-.09,2.44,1.29c.83.4,1.68.74,2.52,1.11a48.44,48.44,0,0,0,5.19,1.83,73.26,73.26,0,0,0,10.75,2.32c1.81.28,3.64.49,5.46.65s3.66.3,5.5.38c.92.05,1.83.07,2.76.1l.41,0a2,2,0,0,1,.49.18,6.21,6.21,0,0,1,.63.4c.39.26.76.52,1.14.75a5.16,5.16,0,0,0,1.13.56,1.76,1.76,0,0,0,.52.1,3.86,3.86,0,0,0,.56,0l-.06,0a.44.44,0,0,0-.1.13.4.4,0,0,0,0,.24.22.22,0,0,0,0,.13h0s0,0,0,0L58.86,66a3.72,3.72,0,0,1-.46-.64,4.17,4.17,0,0,1-.32-.72,1.22,1.22,0,0,1-.08-.54.62.62,0,0,1,.12-.3.57.57,0,0,1,.37-.21.73.73,0,0,1,.44.1l-.36,0,.39-.07.32,0,.62,0,1.23-.07,2.45-.11,4.91-.13c3.27,0,6.53-.14,9.84.09s6.48.9,9.71,1.4l9.68,1.58h-.07a3.38,3.38,0,0,0,.73-.63,1.49,1.49,0,0,0,.35-.85,2.1,2.1,0,0,0-.94-1.59Z"></path>
        <path class="cls-9" d="M97.22,62.48S77.93,58.36,66.9,60.07s-38.1-.7-45.8-7.42c0,0,.26.63-.54,2,0,0,18.39,9.41,45.8,6.7C66.36,61.33,70.41,59.28,97.22,62.48Z"></path>
        <path class="cls-8" d="M51.53,52.73a6.58,6.58,0,0,1,2.14-.16,9.55,9.55,0,0,1,2,.36,10.34,10.34,0,0,1,1.88.74,7,7,0,0,1,1.73,1.27,6.61,6.61,0,0,1-2.14.16A10.1,10.1,0,0,1,53.26,54,6.94,6.94,0,0,1,51.53,52.73Z"></path>
        <path class="cls-8" d="M82.92,55.68c-.6.44-1.22.81-1.83,1.22s-1.25.75-1.89,1.09-1.19.92-1.92,1a4.3,4.3,0,0,1-2.42-.4l-.09-.25a4.13,4.13,0,0,1,1.62-1.84,4.93,4.93,0,0,1,2.1-.47c.71-.14,1.43-.25,2.15-.35s1.45-.17,2.2-.22Z"></path>
        <path class="cls-8" d="M30.14,60.09A4.06,4.06,0,0,1,29,62.23a5.51,5.51,0,0,1-2,1.05,19.59,19.59,0,0,1-2.08.83c-.71.22-1.42.45-2.15.6l-.1-.21c.58-.47,1.16-.9,1.71-1.38l1.65-1.37c.55-.46,1-1.1,1.63-1.37A5,5,0,0,1,30,59.91Z"></path>
        <path class="cls-8" d="M14.57,62.06a176.11,176.11,0,0,0,38.14-3.37C66,56.08,79.66,56,92.53,60.55c2.76,1,4-3.4,1.21-4.38-11.88-4.25-24.48-4.62-36.88-2.79-7.1,1-14,3-21.18,3.75a181.32,181.32,0,0,1-21.11.39c-2.92-.05-2.92,4.49,0,4.54Z"></path>
        <ellipse class="cls-9" cx="93.86" cy="58.49" rx="2.1" ry="1.32" transform="translate(17.25 138.25) rotate(-78.08)"></ellipse>
        <path class="cls-10" d="M14.07,61.13a3.27,3.27,0,0,1-.82-.6,1.72,1.72,0,0,1-.46-.91,1.69,1.69,0,0,1,.22-1,3.76,3.76,0,0,1,.64-.79l0,0h0l9.8-.13c3.26-.07,6.54-.11,9.78-.3s6.44-1,9.64-1.56l4.8-1,2.39-.51,1.19-.27.58-.15.29-.08.2-.06.36,0s0,0-.1,0a.35.35,0,0,0-.21.16.23.23,0,0,0,0,.15s0-.05-.07-.13a3.23,3.23,0,0,0-.33-.49,2.78,2.78,0,0,0-.43-.41l-.28-.22a.38.38,0,0,1-.1-.09l-.07-.08a.62.62,0,0,1-.1-.2.48.48,0,0,1,0-.33.44.44,0,0,1,.13-.2.81.81,0,0,1,.2-.14,4.23,4.23,0,0,1,.79-.23,2.37,2.37,0,0,1,.84,0,6.43,6.43,0,0,1,1.45.41c.44.18.87.38,1.28.57.21.09.42.18.6.24a.8.8,0,0,0,.16,0l.28,0c.91-.13,1.83-.27,2.75-.39a82.59,82.59,0,0,1,11.12-.68,67.65,67.65,0,0,1,11.1,1A48,48,0,0,1,87.16,54c.88.3,1.77.58,2.63.91L92.35,56l0,.11-2.61-.91c-.88-.27-1.78-.47-2.66-.71a50,50,0,0,0-5.41-1,74.66,74.66,0,0,0-11-.64c-1.83,0-3.67.08-5.5.2s-3.66.26-5.49.46l-2.74.33-.41,0a2.2,2.2,0,0,1-.51-.11c-.26-.09-.47-.19-.69-.29-.42-.2-.83-.41-1.23-.58a6,6,0,0,0-1.21-.38,1.91,1.91,0,0,0-.53,0,3.46,3.46,0,0,0-.54.14l.05-.05a.38.38,0,0,0,.08-.14.42.42,0,0,0,0-.24.42.42,0,0,0-.06-.12v0s0,0,0,0l.27.21a4.15,4.15,0,0,1,.56.55,6.65,6.65,0,0,1,.42.66,1.23,1.23,0,0,1,.16.53.62.62,0,0,1-.07.31.58.58,0,0,1-.34.27.71.71,0,0,1-.45,0l.36,0-.37.13-.31.07-.6.14-1.21.26-2.41.48-4.83.89c-3.23.55-6.43,1.14-9.73,1.42s-6.55.11-9.82.11L13.72,58l.07,0a3.29,3.29,0,0,0-.62.73,1.38,1.38,0,0,0-.22.9A2,2,0,0,0,14.12,61Z"></path>
        <path class="cls-9" d="M14.79,61.61s19.7,1.11,30.32-2.27,37.76-5.16,46.4.3c0,0-.35-.58.24-2,0,0-19.62-6.47-46.29.4C45.46,58,41.77,60.66,14.79,61.61Z"></path>
        <polygon class="cls-4" points="56.74 50.28 57.4 99.43 103.8 70.57 107.63 28.61 56.74 50.28"></polygon>
        <polygon class="cls-11" points="12.85 47.38 14.91 71.18 19.72 73.24 17.66 50.58 12.85 47.38"></polygon>
        <polygon class="cls-11" points="21.78 73.93 26.06 75.84 25.21 43.49 19.72 41.2 21.78 73.93"></polygon>
      </g>
    </g>
  </g>
</svg>
