<?xml version="1.0" encoding="UTF-8"?>
<svg xmlns="http://www.w3.org/2000/svg" viewBox="0 0 152.93 148.44">
  <defs>
    <style>.cls-1{fill:#85563a;}.cls-2{fill:#8e6848;}.cls-3{fill:#713e21;}.cls-4{fill:#9b714f;}.cls-5{fill:#3d271f;}.cls-6{fill:#69391e;}.cls-7{fill:#6b472f;}.cls-8{fill:#5c3624;}.cls-9{fill:#795135;}.cls-10{fill:#9a734f;}</style>
  </defs>
  <g id="Слой_2" data-name="Слой 2">
    <g id="Слой_1-2" data-name="Слой 1">
      <polygon class="cls-1" points="10.73 115.77 80.12 148.44 144.32 115.93 77.58 87.65 10.73 115.77"></polygon>
      <polygon class="cls-1" points="0 23.08 80.12 56.56 152.93 25.68 80.12 0 0 23.08"></polygon>
      <path class="cls-2" d="M80.12,56.56V98.61s22.15-16.34,31.14-17.16,26.52,33.67,33.06,34.48l8.61-90.25Z"></path>
      <path class="cls-3" d="M5.86,73.29l4.87,42.48,69.39,32.67V98.61S41.81,82.27,37.72,76.55,5.86,73.29,5.86,73.29"></path>
      <path class="cls-4" d="M0,23.08,5.86,73.29s7.48.59,15.53.81c10.07.27,19.6,6.81,27.23,14.44,8.86,8.85,31.5,10.07,31.5,10.07v-42Z"></path>
      <path class="cls-5" d="M53.4,103.93a3.28,3.28,0,0,0-.15-1.23h0s-.53-1.4-1.77-1.43-2,.69-1.9,1.08l.27.56,0,0,1,.88.18.14.21.15c.48.34.42.48.92.58a1.47,1.47,0,0,0,1-.26l.1-.18h0v0Z"></path>
      <path class="cls-5" d="M23.12,98.15a6.28,6.28,0,0,0-2.07,1.13h0s-2.08,1.91-1.27,4.12,2.63,3,3.25,2.58l.81-.88V105a20.83,20.83,0,0,0,.79-2.45l.12-.43.13-.47c.26-1.08.53-1.07.36-2A2.86,2.86,0,0,0,24.07,98L23.69,98h-.05Z"></path>
      <path class="cls-5" d="M72,126.41a15.27,15.27,0,0,0-2.65-5.3l0,0s-4.6-5.42-10.21-3.6-7.76,6.3-6.79,7.89a20.18,20.18,0,0,0,2.13,2.12l.19,0c1.64,1.07,4.7,1.58,6.06,2.25a3.23,3.23,0,0,0,1.08.35l1.16.36c2.68.75,2.63,1.43,5.06,1.09s4.13-2.78,4.13-2.78a4.46,4.46,0,0,0,.18-.95h0l0-.1a1.78,1.78,0,0,0-.39-1.33"></path>
      <path class="cls-5" d="M35.77,108a11.7,11.7,0,0,0-2.59,3.73l0,0s-1.95,5.09,1.34,8.19,7.09,2.89,7.8,1.65a16.93,16.93,0,0,0,.64-2.21l0-.13c.1-1.5-.68-3.74-.73-4.9a2.48,2.48,0,0,0-.16-.86c0-.23-.09-.49-.19-.91-.48-2.08,0-2.3-1.12-3.8a5.5,5.5,0,0,0-3.39-1.76l-.71.24v0l-.06,0a1.32,1.32,0,0,0-.75.75"></path>
      <path class="cls-6" d="M80.12,98.61S95.73,76.55,113.71,76s35.67-13.62,35.67-13.62l-5.06,53.54-64.2,32.51Z"></path>
      <path class="cls-5" d="M103,107a15.11,15.11,0,0,0-5.58,1.84v0s-6,3.74-5,9.5,5.08,8.52,6.78,7.78a20.12,20.12,0,0,0,2.38-1.78l0-.18c1.29-1.47,2.22-4.39,3.07-5.63a3.17,3.17,0,0,0,.5-1c.14-.28.29-.59.51-1.1,1.13-2.52,1.79-2.38,1.8-4.79s-2.13-4.46-2.13-4.46a4.48,4.48,0,0,0-.91-.32v0h-.1A1.73,1.73,0,0,0,103,107"></path>
      <path class="cls-5" d="M132.51,105.28a4.6,4.6,0,0,0-1.74-.43h0s-2.15,0-2.83,1.64-.07,3,.49,3.11l.9-.07,0,0a15.58,15.58,0,0,0,1.71-1l.29-.18.31-.2c.7-.47.85-.32,1.24-1a2.12,2.12,0,0,0,.17-1.49l-.18-.23h0Z"></path>
      <path class="cls-5" d="M127.18,89.81a12,12,0,0,0-3.94-2.32l0,0s-5.26-1.57-8.12,2-2.37,7.35-1.07,8a15.45,15.45,0,0,0,2.26.48l.13-.06c1.52,0,3.71-1,4.87-1.11a2.34,2.34,0,0,0,.84-.22l.91-.26c2-.64,2.31-.18,3.73-1.41a5.52,5.52,0,0,0,1.5-3.54l-.28-.7h0l-.06,0a1.38,1.38,0,0,0-.81-.7"></path>
      <path class="cls-7" d="M75.26,36.8A2.21,2.21,0,0,0,73.13,36c-1.18.37-1.65,1.3-1.44,1.64l.43.44.95-.53Z"></path>
      <path class="cls-8" d="M75.87,38.22s-.37-1.6-1-1.62-1.28-.11-1.28-.11l-.17.29.84,1.14.8.23Z"></path>
      <path class="cls-9" d="M75.82,38.42a.42.42,0,0,0-.23-.62,5.81,5.81,0,0,0-.78-.16l-1.16.84c-.19.12-.32.11.25.27s.54.31,1,.24a1.45,1.45,0,0,0,.87-.57"></path>
      <path class="cls-10" d="M74.81,37.64l-.71.69-.67.27L72,38c-.22-.33-.22-.3.06-.7a1.76,1.76,0,0,1,1.14-.69,1,1,0,0,1,1.12.23Z"></path>
      <path class="cls-7" d="M70.42,9.51S68.71,8.16,67.12,9s-2,2.37-1.57,2.79l.77.51c.51.32,1.15-1.05,1.19-1.06Z"></path>
      <path class="cls-8" d="M71.73,11.37s-1-2.2-1.89-2S68,9.57,68,9.57L67.8,10s1.18,1.34,1.56,1.38,1.06.07,1.22.1Z"></path>
      <path class="cls-9" d="M71.73,11.67c0-.22.06-.78-.53-.82a7.83,7.83,0,0,0-1.17,0l-1.4,1.56c-.24.23-.43.25.43.31s.88.28,1.59,0a2.21,2.21,0,0,0,1.08-1.08"></path>
      <path class="cls-10" d="M70,10.85a10.17,10.17,0,0,0-.81,1.21c-.29.57-.34.73-.88.59s-1.84-.05-2.27-.47-.41-.36-.13-1a2.64,2.64,0,0,1,1.42-1.34,1.45,1.45,0,0,1,1.69,0,3.94,3.94,0,0,1,1,1"></path>
      <path class="cls-7" d="M63.89,19.53s-6.79-3.39-11.54.74-5,9.46-3.36,10.61a21,21,0,0,0,3,1.19c2,.72,3.18-4.38,3.29-4.45Z"></path>
      <path class="cls-8" d="M69.7,24.89s-5-6.75-7.92-5.57-6.23,2.14-6.23,2.14l-.19,1.72s5,3.68,6.27,3.57,3.68-.54,4.25-.55a28.63,28.63,0,0,0,3.82-1.31"></path>
      <path class="cls-9" d="M69.89,25.91c-.07-.74-.34-2.67-2.37-2.41a29.46,29.46,0,0,0-4,.86s-3,5.4-3.63,6.32-1.27,1.13,1.68.75,3.2.31,5.43-1.05,2.9-4.47,2.9-4.47"></path>
      <path class="cls-10" d="M63.51,24.36a35,35,0,0,0-1.86,4.69c-.61,2.14-.64,2.72-2.58,2.62s-6.31,1.16-8.06,0-1.66-.95-1.18-3.42,1.63-3.65,3.86-5.58,3.79-1.88,5.76-1.2a12.91,12.91,0,0,1,4.06,2.84"></path>
      <path class="cls-7" d="M87.39,21s-5.7-3.35-10.07-.05-4.9,7.91-3.55,9a20,20,0,0,0,2.51,1.21c1.66.75,3-3.61,3.12-3.67Z"></path>
      <path class="cls-8" d="M92.1,26s-4-6.17-6.54-5.32S80,22.13,80,22.13l-.27,1.47s4.09,3.5,5.23,3.48,3.22-.24,3.72-.21A25.66,25.66,0,0,0,92.1,26"></path>
      <path class="cls-9" d="M92.21,26.86c0-.65-.14-2.35-1.92-2.24a25.94,25.94,0,0,0-3.52.5s-2.91,4.51-3.54,5.27-1.17.91,1.42.76,2.75.45,4.77-.58a6.64,6.64,0,0,0,2.79-3.71"></path>
      <path class="cls-10" d="M86.76,25.12a31.94,31.94,0,0,0-1.89,4c-.66,1.82-.72,2.33-2.4,2.12s-5.55.62-7-.44-1.39-.92-.81-3.05,1.63-3.06,3.68-4.6,3.4-1.41,5.07-.7a11.37,11.37,0,0,1,3.35,2.71"></path>
      <path class="cls-7" d="M102.48,14.93s-5.62-4.33-10.72-1.39-6.27,7.77-5,9.11a21.69,21.69,0,0,0,2.51,1.63c1.67,1,3.71-3.45,3.83-3.49Z"></path>
      <path class="cls-8" d="M106.83,20.89s-3.41-7.09-6.25-6.53-6.1.84-6.1.84L94,16.74s3.88,4.27,5.11,4.4,3.46.17,4,.27a27.2,27.2,0,0,0,3.73-.52"></path>
      <path class="cls-9" d="M106.82,21.87c.08-.7.17-2.51-1.74-2.64a27.93,27.93,0,0,0-3.82.06s-3.7,4.42-4.47,5.14-1.37.81,1.4,1,2.87.86,5.17,0,3.46-3.58,3.46-3.58"></path>
      <path class="cls-10" d="M101.26,19.29a32.54,32.54,0,0,0-2.55,4c-.95,1.85-1.09,2.39-2.85,1.94s-6-.08-7.39-1.41-1.35-1.16-.46-3.35,2.15-3.05,4.54-4.41,3.81-1,5.5-.07a12.18,12.18,0,0,1,3.21,3.34"></path>
      <path class="cls-7" d="M106.84,33.1s2.28.16,3.12-1.54.29-3.2-.3-3.33l-1,0c-.63,0-.38,1.58-.4,1.61Z"></path>
      <path class="cls-8" d="M104.61,32.29s2.18,1.29,2.84.63,1.48-1.32,1.48-1.32l-.15-.5-2.15-.26c-.35.18-.95.57-1.12.64Z"></path>
      <path class="cls-9" d="M104.44,32c.1.2.4.71.93.4a8.78,8.78,0,0,0,1-.7l.27-2.18c.08-.33.23-.46-.55,0s-.92.29-1.39.92a2.29,2.29,0,0,0-.28,1.57"></path>
      <path class="cls-10" d="M106.39,31.72a10.3,10.3,0,0,0,0-1.52c-.08-.67-.14-.83.42-1s1.62-1.05,2.23-.94.56.06.72.81a2.76,2.76,0,0,1-.43,2,1.52,1.52,0,0,1-1.46,1,3.91,3.91,0,0,1-1.45-.32"></path>
      <path class="cls-7" d="M53.33,34.31s2.88.4,4.11-1.69.64-4-.09-4.26a8.24,8.24,0,0,0-1.23-.07c-.8,0-.61,2-.64,2Z"></path>
      <path class="cls-8" d="M50.56,33.08s2.66,1.83,3.56,1.05a24.17,24.17,0,0,1,2-1.54L56,31.94s-2.25-.73-2.72-.53-1.26.65-1.47.72Z"></path>
      <path class="cls-9" d="M50.37,32.73c.11.26.45.93,1.16.58a11,11,0,0,0,1.35-.8s.41-2.33.54-2.74.32-.57-.7-.07-1.2.28-1.85,1a2.93,2.93,0,0,0-.5,2"></path>
      <path class="cls-10" d="M52.88,32.51A14,14,0,0,0,53,30.58c0-.85-.1-1.07.62-1.27s2.15-1.2,2.93-1,.71.14.84,1.1a3.47,3.47,0,0,1-.71,2.5,2,2,0,0,1-1.95,1.15,5.05,5.05,0,0,1-1.82-.54"></path>
      <path class="cls-7" d="M72.14,23.57a2.52,2.52,0,0,0,2.54.44c1.25-.64,1.58-1.78,1.28-2.12l-.58-.41c-.38-.26-.91.78-.94.79Z"></path>
      <path class="cls-8" d="M71.17,22.11s.74,1.72,1.42,1.62a14.35,14.35,0,0,1,1.46-.14l.13-.36L73,22.13,72.07,22Z"></path>
      <path class="cls-9" d="M71.18,21.88c0,.16-.06.59.39.64a6.78,6.78,0,0,0,.91,0l1.11-1.18c.2-.17.34-.18-.32-.25s-.67-.23-1.23-.06a1.74,1.74,0,0,0-.86.82"></path>
      <path class="cls-10" d="M72.48,22.55a7.27,7.27,0,0,0,.65-.92c.24-.43.28-.56.7-.44s1.42.09,1.74.42.31.29.07.8a2,2,0,0,1-1.12,1,1.13,1.13,0,0,1-1.31-.05,2.81,2.81,0,0,1-.73-.82"></path>
      <path class="cls-7" d="M95,33.24s6.39,1.55,9.59-2.85,2.39-8.94.79-9.59a19.87,19.87,0,0,0-2.74-.43c-1.79-.23-1.83,4.31-1.91,4.39Z"></path>
      <path class="cls-8" d="M89.1,29.83s5.56,4.72,7.75,3.17,4.83-3,4.83-3l-.16-1.48s-4.9-2.15-6-1.81-3,1.17-3.47,1.28a25.83,25.83,0,0,0-3,1.84"></path>
      <path class="cls-9" d="M88.74,29c.2.61.81,2.19,2.47,1.57a24.71,24.71,0,0,0,3.21-1.49s1.47-5.12,1.84-6,.85-1.2-1.56-.31-2.75.35-4.37,1.92A6.62,6.62,0,0,0,88.74,29"></path>
      <path class="cls-10" d="M94.42,29.09a29.51,29.51,0,0,0,.66-4.31c.11-1.92,0-2.42,1.68-2.71s5.09-2.19,6.78-1.59,1.58.48,1.65,2.66-.67,3.39-2.18,5.44-2.83,2.32-4.62,2.13a11.24,11.24,0,0,1-4-1.62"></path>
      <path class="cls-7" d="M65.59,29.55s3.83,2.15,6.69-.1,3.15-5.33,2.24-6a11.59,11.59,0,0,0-1.69-.78c-1.11-.47-2,2.44-2,2.48Z"></path>
      <path class="cls-8" d="M62.39,26.28s2.72,4,4.42,3.45,3.65-1.06,3.65-1.06l.16-1s-2.76-2.27-3.52-2.24-2.14.21-2.47.19Z"></path>
      <path class="cls-9" d="M62.31,25.69c0,.43.12,1.55,1.3,1.46A17.85,17.85,0,0,0,66,26.77s1.87-3,2.28-3.55.76-.62-1-.48-1.83-.27-3.16.45a4.4,4.4,0,0,0-1.8,2.5"></path>
      <path class="cls-10" d="M66,26.77a20.68,20.68,0,0,0,1.21-2.66c.41-1.21.44-1.56,1.56-1.44s3.68-.49,4.66.2.93.59.58,2-1,2.05-2.39,3.1a2.94,2.94,0,0,1-3.36.54A7.68,7.68,0,0,1,66,26.77"></path>
    </g>
  </g>
</svg>
