<?xml version="1.0" encoding="UTF-8"?>
<svg xmlns="http://www.w3.org/2000/svg" viewBox="0 0 47.33 81.81">
  <defs>
    <style>.cls-1{fill:#a79677;}.cls-2{fill:#f9eacb;}.cls-3{fill:#bfaa86;}.cls-4{fill:#d2c7a7;}.cls-5{fill:#95876b;}.cls-6{fill:#af997c;opacity:0.25;}.cls-7{fill:#837660;}.cls-8{fill:#988666;}.cls-9{fill:#d7b478;}.cls-10{fill:#8b5b3c;}.cls-11{fill:#a17551;}.cls-12{fill:#956d4b;}.cls-13{fill:#cbcbcb;}.cls-14{fill:#76ad46;}.cls-15{fill:#204e2d;}.cls-16{fill:#529643;}.cls-17{fill:#714d31;}.cls-18{fill:#613922;}.cls-19{fill:#7f5637;}.cls-20{fill:#a07850;}</style>
  </defs>
  <g id="Слой_2" data-name="Слой 2">
    <g id="Слой_1-2" data-name="Слой 1">
      <polygon class="cls-1" points="23.7 50.67 47.33 40.61 43.79 67.82 23.7 81.81 23.7 50.67"></polygon>
      <polygon class="cls-2" points="23.7 33.81 47.33 40.61 23.7 50.67 0 40.61 23.7 33.81"></polygon>
      <polygon class="cls-3" points="3.54 67.82 0 40.61 23.7 50.67 23.7 81.81 3.54 67.82"></polygon>
      <path class="cls-4" d="M14.89,40.94a10.84,10.84,0,0,1,2.43-2.2,14,14,0,0,1,3-1.44,16.32,16.32,0,0,1,3.22-.67c.55-.07,1.1-.06,1.64-.09s1.09.05,1.63.09c-1.08.1-2.16.18-3.22.37a18.33,18.33,0,0,0-3.11.76,15.66,15.66,0,0,0-2.93,1.3A17,17,0,0,0,14.89,40.94Z"></path>
      <path class="cls-4" d="M10.86,41.9a3.14,3.14,0,0,0,.93.19,7.8,7.8,0,0,0,1,0A11.32,11.32,0,0,0,14.68,42c1.28-.15,2.53-.51,3.82-.79a11.25,11.25,0,0,1-3.75,1.27,9,9,0,0,1-2,.06A3.79,3.79,0,0,1,10.86,41.9Z"></path>
      <path class="cls-4" d="M27.16,47.7a18.45,18.45,0,0,1,2.24-2.83,18.22,18.22,0,0,1,2.75-2.36,13,13,0,0,1,3.25-1.62A8.26,8.26,0,0,1,39,40.6a10.71,10.71,0,0,0-3.47.64,14.28,14.28,0,0,0-3.1,1.67,21.72,21.72,0,0,0-2.76,2.23A35.6,35.6,0,0,0,27.16,47.7Z"></path>
      <polygon class="cls-5" points="23.7 50.67 47.33 40.61 43.79 67.82 23.7 81.81 23.7 50.67"></polygon>
      <polygon class="cls-6" points="3.54 67.82 0 40.61 23.7 50.67 23.7 81.81 3.54 67.82"></polygon>
      <path class="cls-7" d="M7.83,55.86a7.31,7.31,0,0,1-.61-4A6.49,6.49,0,0,1,9,48.26a9.47,9.47,0,0,1,3.47-2.07c.65-.18,1.3-.35,2-.49s1.33-.16,2-.22c-.64.17-1.29.3-1.93.45s-1.26.4-1.88.61A9.62,9.62,0,0,0,9.31,48.6,6.35,6.35,0,0,0,7.59,52c-.07.31-.08.64-.12,1s0,.66,0,1A6.89,6.89,0,0,0,7.83,55.86Z"></path>
      <path class="cls-7" d="M29.85,55.48a4.53,4.53,0,0,0,1.33.57c.46.15.92.3,1.39.42.94.25,1.88.49,2.83.67,1.9.41,3.83.63,5.78.86a21.43,21.43,0,0,1-5.87-.39,21.9,21.9,0,0,1-2.85-.79A8.08,8.08,0,0,1,29.85,55.48Z"></path>
      <path class="cls-7" d="M17.16,54.06a15.15,15.15,0,0,1-.59,2.67,19.71,19.71,0,0,1-1,2.55,15.19,15.19,0,0,1-1.43,2.35,8.87,8.87,0,0,1-2,1.91,17,17,0,0,0,3-4.47c.41-.79.74-1.63,1.07-2.46S16.86,54.92,17.16,54.06Z"></path>
      <path class="cls-7" d="M24.49,75.72c1-.48,2-.84,2.93-1.27s1.95-.84,2.88-1.34A17.56,17.56,0,0,0,33,71.44a7.54,7.54,0,0,0,2.1-2.32,6.07,6.07,0,0,1-1.87,2.61,14.66,14.66,0,0,1-2.68,1.81,27.39,27.39,0,0,1-3,1.26C26.55,75.16,25.51,75.43,24.49,75.72Z"></path>
      <path class="cls-7" d="M13.4,72.73a5,5,0,0,1-2.64-2.46,2.23,2.23,0,0,1,.17-1.9A4.46,4.46,0,0,1,12.2,67a13,13,0,0,1,3.27-1.62,26.92,26.92,0,0,1,3.5-.92c-1.13.42-2.26.81-3.37,1.27a14.06,14.06,0,0,0-3.11,1.66,4,4,0,0,0-1.18,1.21,2,2,0,0,0-.2,1.57A3.66,3.66,0,0,0,12,71.59,8.38,8.38,0,0,0,13.4,72.73Z"></path>
      <path class="cls-7" d="M35.07,54.93c1.17-1.62,2.39-3.2,3.44-4.88A21.87,21.87,0,0,0,40,47.49a8.41,8.41,0,0,0,.93-2.8,6.42,6.42,0,0,1-.59,3,18.41,18.41,0,0,1-1.42,2.67c-.57.83-1.15,1.66-1.79,2.43A23.71,23.71,0,0,1,35.07,54.93Z"></path>
      <polygon class="cls-8" points="9.57 40.61 23.71 46.39 37.85 40.57 23.7 36 9.57 40.61"></polygon>
      <polygon class="cls-9" points="12.34 41.74 23.67 38.12 35.07 41.72 23.71 46.39 12.34 41.74"></polygon>
      <polygon class="cls-10" points="10.9 33.48 24.99 40.11 38.02 33.51 24.47 27.77 10.9 33.48"></polygon>
      <polygon class="cls-11" points="8.72 14.66 24.47 14.73 24.47 27.77 10.92 33.51 8.72 14.66"></polygon>
      <polygon class="cls-12" points="39.77 15.18 24.47 14.73 24.47 27.77 38.02 33.51 39.77 15.18"></polygon>
      <path class="cls-13" d="M20.5,32.15a4.44,4.44,0,0,1-.33,1.73,4.46,4.46,0,0,0,.35-1.73c0-.6.06-1.19.08-1.78A19.05,19.05,0,0,1,21,26.83a34.2,34.2,0,0,1,.92-3.44,3.69,3.69,0,0,1,.78-1.54,2.69,2.69,0,0,1,1.09-.73,19.8,19.8,0,0,0-1.27,3.58A9.59,9.59,0,0,0,22.23,26c-.1.17-.2.33-.29.5A13.18,13.18,0,0,0,20.62,31a15.79,15.79,0,0,1,.55-2.28,11.32,11.32,0,0,1,.92-2.14,1,1,0,0,0,.08-.14c0,.05,0,.09,0,.14a10.12,10.12,0,0,0,.11,1.92c.14,1.25.31,2.49.4,3.74a8.72,8.72,0,0,1-.28,3.7,8.93,8.93,0,0,0,.41-3.71c-.05-1.25-.19-2.5-.29-3.75a10.74,10.74,0,0,1-.05-1.88c0-.28.07-.56.12-.83.25-.4.5-.79.73-1.21.11-.21.21-.43.32-.65a4.75,4.75,0,0,0,.16,1.29,7.17,7.17,0,0,0,.3.69c0,.12,0,.24,0,.35.09.66.18,1.31.31,2a5.94,5.94,0,0,0,.8,1.82A6.85,6.85,0,0,1,26,31.87a4.41,4.41,0,0,1-.11,1.94c-.25,1.3-.55,2.59-.87,3.87.34-1.28.66-2.56.94-3.86a4.37,4.37,0,0,0,.13-2A6.76,6.76,0,0,0,25.36,30a5.67,5.67,0,0,1-.76-1.8c-.11-.58-.18-1.18-.25-1.77.32.61.68,1.18,1,1.78a10.79,10.79,0,0,1,.81,1.44c.19.52.32,1.06.46,1.6a22.85,22.85,0,0,1,.67,3.27,25,25,0,0,0-.56-3.3c-.13-.54-.24-1.08-.42-1.62a3.13,3.13,0,0,0-.22-.45,12.85,12.85,0,0,1,1.36,1.44,1.9,1.9,0,0,1,.23.45l.24.52.22.45.06.26a11.33,11.33,0,0,1,.38,1.91A4.54,4.54,0,0,0,29.35,36a4.5,4.5,0,0,1-.69-1.8,12.09,12.09,0,0,0-.29-1.77l.08.17c.33.67.67,1.33,1,2a8.75,8.75,0,0,1,.74,2.1,9,9,0,0,0-.6-2.16l-.82-2.09-.4-1a5.27,5.27,0,0,1-.19-.51,2,2,0,0,0-.14-.35A9.39,9.39,0,0,1,28,28.41v0c.11.18.2.36.31.53a13.07,13.07,0,0,1,1.4,2.89,12.51,12.51,0,0,0-1.28-3c-.15-.26-.28-.53-.41-.8a3,3,0,0,0-.41-1.57,11.21,11.21,0,0,0-1-1.25c-.13-.23-.27-.47-.42-.7l-.26-.34,0,0c-.14-.29-.27-.6-.42-.9S25.14,22.44,25,22c-.2-.63-.38-1.28-.54-1.92h0a.3.3,0,0,0-.35-.21.33.33,0,0,0-.15.11.23.23,0,0,0-.18-.06.21.21,0,0,0-.16.24c0,.25.08.48.13.72a3,3,0,0,0-1.22.82,3.72,3.72,0,0,0-.79,1.62,31.26,31.26,0,0,0-.87,3.46,18.44,18.44,0,0,0-.3,3.55C20.54,31,20.53,31.55,20.5,32.15Zm3.3-10a.05.05,0,0,0,0,0l.15-.34h0c0,.11-.05.21-.08.32S23.82,22.18,23.8,22.19Zm3.87,5.27c-.16-.35-.33-.7-.5-1.06a1.59,1.59,0,0,1,.15.21A2.43,2.43,0,0,1,27.67,27.46Zm-1.54.76-.18-.5c-.11-.35-.21-.71-.31-1.06l-.57-2.16c-.21-.83-.42-1.67-.62-2.5.16.45.33.9.52,1.34a5.91,5.91,0,0,0,.4.74c.07.11.18.24.26.34h0a4.79,4.79,0,0,0,.45.69l.23.27c.13.23.26.45.38.68.34.64.68,1.29,1,1.92,0,.14,0,.27,0,.41a8.82,8.82,0,0,0,.08,1.78c-.43-.62-1-1.05-1.42-1.55A1.66,1.66,0,0,1,26.13,28.22Zm-1.88-2.69c-.08-.75-.15-1.5-.22-2.26a4,4,0,0,1,.08-.46h0c.14.61.28,1.21.43,1.83s.35,1.45.56,2.18q.13.5.3,1A18.61,18.61,0,0,1,24.25,25.53Zm-1.43-.73a18.86,18.86,0,0,1,.87-2.42l0,.31c0,.24-.07.49-.09.73s-.33.72-.52,1.07l-.37.63C22.77,25,22.79,24.9,22.82,24.8Z"></path>
      <polygon class="cls-10" points="8.72 14.66 24.99 21.45 39.77 15.18 24.99 9.97 8.72 14.66"></polygon>
      <path class="cls-14" d="M23.09,2.12A5,5,0,0,1,24.3.66,2.82,2.82,0,0,1,27.7.48c1.54.84,1.71,2.34,1.48,3.8s-.84,2.85-.61,3.45c0,0-.79-.42-1.82-.84a9,9,0,0,0-3.31-.8c-2,.1-3.87,0-4-1.7S21.31,1.91,23.09,2.12Z"></path>
      <path class="cls-15" d="M23.13,2a12.17,12.17,0,0,1,1.32.61,13.43,13.43,0,0,1,1.27.73,10.13,10.13,0,0,1,1.18.89,4.34,4.34,0,0,1,.52.53,3.7,3.7,0,0,1,.44.6,0,0,0,0,1,0,0h0c-.17-.18-.31-.38-.49-.55a2.13,2.13,0,0,0-.26-.26l-.27-.24a9.77,9.77,0,0,0-1.17-.86,13.13,13.13,0,0,0-1.27-.7c-.43-.21-.86-.41-1.3-.58h0a.1.1,0,0,1,0-.13A.09.09,0,0,1,23.13,2Z"></path>
      <path class="cls-15" d="M23.44,2.29a4.93,4.93,0,0,1-.63.5c-.22.14-.46.25-.68.38a3.2,3.2,0,0,0-.64.45,1.33,1.33,0,0,0-.23.3.62.62,0,0,0-.05.38.53.53,0,0,1,0-.39,1,1,0,0,1,.23-.33,3.68,3.68,0,0,1,.63-.49c.22-.14.46-.26.66-.41a3.09,3.09,0,0,0,.56-.52h0a.1.1,0,1,1,.15.12Z"></path>
      <path class="cls-15" d="M24.1,2.52a2.29,2.29,0,0,1-.21.64,2.16,2.16,0,0,1-.37.54,2.09,2.09,0,0,0-.4.49,1.12,1.12,0,0,0-.13.62,1.06,1.06,0,0,1,.1-.63,1.71,1.71,0,0,1,.38-.53,2,2,0,0,0,.32-.54,2.13,2.13,0,0,0,.16-.6h0s0-.07.08-.06a.08.08,0,0,1,.07.08Z"></path>
      <path class="cls-15" d="M25.24,3.1a2,2,0,0,1,0,.55,2.31,2.31,0,0,1-.15.53,2.09,2.09,0,0,0-.2.5.76.76,0,0,0,0,.26.32.32,0,0,0,.11.23h0s0,0,0,0h0a.55.55,0,0,1-.13-.52A2.43,2.43,0,0,1,25,4.15a2.23,2.23,0,0,0,.12-.51,2.26,2.26,0,0,0,0-.52h0s0-.07.06-.08.07,0,.08.06Z"></path>
      <path class="cls-15" d="M26.6,4.05a2.85,2.85,0,0,0-.28.7,1.21,1.21,0,0,0,0,.73v0h0a1,1,0,0,1-.09-.37,1.71,1.71,0,0,1,0-.39,2.24,2.24,0,0,1,.1-.37c0-.13.09-.25.14-.37s.05,0,.08,0a.05.05,0,0,1,0,.07Z"></path>
      <path class="cls-15" d="M26,3.53c.21,0,.41-.09.62-.12a2.29,2.29,0,0,1,.64,0,.81.81,0,0,1,.3.13l.25.18a3.25,3.25,0,0,0,.56.28s0,0,0,0h0a3.68,3.68,0,0,1-.57-.26l-.27-.17a.78.78,0,0,0-.28-.11,2,2,0,0,0-.6,0,3.75,3.75,0,0,0-.6.14h0a.08.08,0,0,1-.09,0A.07.07,0,0,1,26,3.53Z"></path>
      <path class="cls-15" d="M24.4,2.63a8.65,8.65,0,0,0,.86-.16,8,8,0,0,0,.83-.26,3.69,3.69,0,0,1,1.74-.13h0a3.17,3.17,0,0,0-.87,0,3.43,3.43,0,0,0-.84.2c-.27.1-.55.2-.84.28a6.31,6.31,0,0,1-.86.2.06.06,0,0,1-.08-.06s0-.07.06-.08Z"></path>
      <path class="cls-15" d="M23.64,2.3l.74-.47a3.79,3.79,0,0,1,.78-.39A4,4,0,0,1,26,1.21a3.49,3.49,0,0,1,.85,0,4.76,4.76,0,0,0-.84.07,4.06,4.06,0,0,0-.81.27,3.92,3.92,0,0,0-.75.41l-.7.5h0a.07.07,0,0,1-.1,0,.08.08,0,0,1,0-.11Z"></path>
      <path class="cls-16" d="M24,14.3A28.69,28.69,0,0,0,22.73,10a11.57,11.57,0,0,0-.95-2.05,6.69,6.69,0,0,0-1.46-1.73,7.81,7.81,0,0,1,2.95,3.54,20.18,20.18,0,0,1,1.49,4.42.38.38,0,0,1-.74.16Z"></path>
      <path class="cls-14" d="M17.79,6.32s-3.16-2.39-5.22.82,2.77,5.68,3,7c0,0,1.82-3.11,3.7-3.92s3.54-1.62,3-3.3S19.44,5.28,17.79,6.32Z"></path>
      <path class="cls-15" d="M17.89,6.42a10.88,10.88,0,0,0-1,1.14A12,12,0,0,0,16,8.81a9.54,9.54,0,0,0-.67,1.36l-.12.36c0,.12-.07.24-.1.36a6.63,6.63,0,0,0-.15.75h0s0,0,0,0,0,0,0,0a3.94,3.94,0,0,1,.08-.77,6.37,6.37,0,0,1,.2-.75,9.83,9.83,0,0,1,.66-1.39,11,11,0,0,1,.85-1.29,12.35,12.35,0,0,1,1-1.17.11.11,0,0,1,.15,0,.1.1,0,0,1,0,.14h0Z"></path>
      <path class="cls-15" d="M17.61,6.46a3.44,3.44,0,0,0,.77.24c.27,0,.55,0,.82.09A3.27,3.27,0,0,1,20,7a1,1,0,0,1,.36.22.59.59,0,0,1,.18.37.64.64,0,0,0-.21-.34A1.08,1.08,0,0,0,20,7a3.06,3.06,0,0,0-.8-.15c-.27,0-.54,0-.83-.06a4.78,4.78,0,0,1-.82-.17.1.1,0,0,1-.07-.13.11.11,0,0,1,.13-.07Z"></path>
      <path class="cls-15" d="M17.14,7.09a2.52,2.52,0,0,0,.43.49,2.19,2.19,0,0,0,.56.35,1.86,1.86,0,0,1,.6.33,1.19,1.19,0,0,1,.38.55,1.17,1.17,0,0,0-.41-.52A2,2,0,0,0,18.1,8a2.21,2.21,0,0,1-.6-.33A2.48,2.48,0,0,1,17,7.18a.08.08,0,0,1,0-.11.07.07,0,0,1,.11,0Z"></path>
      <path class="cls-15" d="M16.35,8.21a2.44,2.44,0,0,0,.25.48,2.36,2.36,0,0,0,.36.42,3,3,0,0,1,.4.4.59.59,0,0,1,.13.54h0a.39.39,0,0,0,0-.26.72.72,0,0,0-.14-.24,2.94,2.94,0,0,0-.42-.36,3.16,3.16,0,0,1-.4-.42,2.45,2.45,0,0,1-.3-.5.09.09,0,0,1,.05-.1.07.07,0,0,1,.1,0h0Z"></path>
      <path class="cls-15" d="M15.47,9.73a3.38,3.38,0,0,1,.59.54,1.5,1.5,0,0,1,.23.33,1,1,0,0,1,.11.39h0a1.23,1.23,0,0,0-.36-.67,2.35,2.35,0,0,0-.29-.26,2.27,2.27,0,0,0-.32-.22h0a.05.05,0,0,1,0-.08.06.06,0,0,1,.08,0Z"></path>
      <path class="cls-15" d="M15.79,9.16a3.35,3.35,0,0,0-.62.17,1.92,1.92,0,0,0-.57.29.8.8,0,0,0-.2.24c-.05.09-.1.19-.16.28a4,4,0,0,1-.38.54h0s0,0,0,0a4.62,4.62,0,0,0,.35-.55l.15-.29a.76.76,0,0,1,.2-.27,1.86,1.86,0,0,1,.58-.33,3.3,3.3,0,0,1,.63-.2.07.07,0,0,1,0,.13Z"></path>
      <path class="cls-15" d="M16.83,7.56c-.31.1-.61.17-.92.24s-.62.11-.93.15a4.08,4.08,0,0,0-.89.25,3.54,3.54,0,0,0-.8.46h0a3.29,3.29,0,0,1,.79-.5,3.64,3.64,0,0,1,.9-.29c.31,0,.61-.11.92-.19a9.07,9.07,0,0,0,.89-.26h0a.07.07,0,0,1,.1,0,.08.08,0,0,1-.05.1Z"></path>
      <path class="cls-15" d="M17.32,6.91c-.3-.06-.61-.1-.91-.14a4,4,0,0,0-.92,0,4.59,4.59,0,0,0-.9.16,4.52,4.52,0,0,0-.84.38,3.77,3.77,0,0,1,.83-.41,4,4,0,0,1,.91-.21,4.12,4.12,0,0,1,.93,0q.46,0,.93.09a.08.08,0,0,1,0,.16Z"></path>
      <path class="cls-17" d="M24,17.44a.45.45,0,0,0-.43-.16c-.24.08-.33.27-.29.33l.09.1c.05.05.18-.11.19-.11Z"></path>
      <path class="cls-18" d="M24.13,17.73s-.08-.33-.2-.33l-.26,0,0,.06s.12.21.17.23l.17,0Z"></path>
      <path class="cls-19" d="M24.12,17.77s0-.1-.05-.12l-.16,0-.23.17s-.07,0,0,.06.12.06.22.05A.37.37,0,0,0,24.12,17.77Z"></path>
      <path class="cls-20" d="M23.91,17.61a.83.83,0,0,0-.14.14c-.06.07-.07.09-.14.06s-.25-.06-.29-.13-.05-.06,0-.15a.41.41,0,0,1,.23-.14.22.22,0,0,1,.23.05A.55.55,0,0,1,23.91,17.61Z"></path>
      <path class="cls-17" d="M23,11.9a.69.69,0,0,0-.67-.1c-.32.18-.4.49-.32.57l.16.1c.1.07.23-.21.24-.21Z"></path>
      <path class="cls-18" d="M23.29,12.28s-.21-.45-.39-.42a2.64,2.64,0,0,1-.38.05l0,.1s.24.27.31.28l.25,0Z"></path>
      <path class="cls-19" d="M23.28,12.34c0-.05,0-.16-.1-.17h-.24l-.28.32c-.05,0-.09,0,.08.06s.18.06.33,0A.43.43,0,0,0,23.28,12.34Z"></path>
      <path class="cls-20" d="M22.94,12.17a1.84,1.84,0,0,0-.16.25c-.06.11-.07.15-.18.12s-.38,0-.46-.1-.09-.07,0-.21A.55.55,0,0,1,22.4,12a.3.3,0,0,1,.34,0A.67.67,0,0,1,22.94,12.17Z"></path>
      <path class="cls-17" d="M21.69,13.93a2.3,2.3,0,0,0-2.34.16c-1,.84-1,1.92-.68,2.15a4.94,4.94,0,0,0,.6.24c.4.15.65-.89.67-.9Z"></path>
      <path class="cls-18" d="M22.87,15s-1-1.37-1.61-1.13-1.26.44-1.26.44l0,.34s1,.75,1.28.73.74-.11.86-.11A5.54,5.54,0,0,0,22.87,15Z"></path>
      <path class="cls-19" d="M22.91,15.23c0-.15-.07-.54-.48-.49a7.7,7.7,0,0,0-.81.17S21,16,20.88,16.2s-.26.23.34.15.65.06,1.1-.21A1.52,1.52,0,0,0,22.91,15.23Z"></path>
      <path class="cls-20" d="M21.62,14.91a6.3,6.3,0,0,0-.38,1c-.13.43-.13.55-.53.53s-1.28.23-1.63,0-.34-.19-.24-.7a1.85,1.85,0,0,1,.78-1.13,1,1,0,0,1,1.17-.24A2.6,2.6,0,0,1,21.62,14.91Z"></path>
      <path class="cls-17" d="M26.46,14.22a2,2,0,0,0-2,0c-.89.68-1,1.61-.72,1.83a4.9,4.9,0,0,0,.51.25c.34.15.61-.74.63-.75S26.46,14.22,26.46,14.22Z"></path>
      <path class="cls-18" d="M27.42,15.24s-.8-1.25-1.33-1.08-1.12.3-1.12.3l0,.3s.83.71,1.06.71l.75-.05A4.48,4.48,0,0,0,27.42,15.24Z"></path>
      <path class="cls-19" d="M27.44,15.42c0-.13,0-.47-.39-.45a4.85,4.85,0,0,0-.71.1s-.59.92-.72,1.07-.24.18.29.15.56.1,1-.11A1.34,1.34,0,0,0,27.44,15.42Z"></path>
      <path class="cls-20" d="M26.34,15.07a6.48,6.48,0,0,0-.39.8c-.13.37-.14.48-.48.44s-1.13.12-1.42-.1-.29-.18-.17-.61a1.55,1.55,0,0,1,.75-.94.9.9,0,0,1,1-.14A2.23,2.23,0,0,1,26.34,15.07Z"></path>
      <path class="cls-17" d="M29.53,13a2.14,2.14,0,0,0-2.18-.28c-1,.59-1.27,1.57-1,1.85a4.16,4.16,0,0,0,.51.33c.34.21.75-.7.78-.71Z"></path>
      <path class="cls-18" d="M30.41,14.21s-.69-1.44-1.27-1.32-1.23.17-1.23.17l-.1.31s.79.87,1,.89.71,0,.81.06A5.48,5.48,0,0,0,30.41,14.21Z"></path>
      <path class="cls-19" d="M30.41,14.41c0-.14,0-.51-.35-.54a5.83,5.83,0,0,0-.78,0s-.75.89-.91,1-.28.16.29.2.58.17,1.05,0A1.47,1.47,0,0,0,30.41,14.41Z"></path>
      <path class="cls-20" d="M29.28,13.89a6.84,6.84,0,0,0-.52.8c-.19.38-.22.49-.57.39s-1.22,0-1.51-.28-.27-.24-.09-.68.44-.62.92-.9a1,1,0,0,1,1.12,0A2.37,2.37,0,0,1,29.28,13.89Z"></path>
      <path class="cls-17" d="M30.41,16.69a.71.71,0,0,0,.64-.31c.17-.35.06-.65-.06-.68h-.2c-.13,0-.07.33-.08.33S30.41,16.69,30.41,16.69Z"></path>
      <path class="cls-18" d="M30,16.52s.44.27.58.13a3.53,3.53,0,0,1,.3-.26l0-.1a1.33,1.33,0,0,0-.44-.06l-.22.13A1.93,1.93,0,0,0,30,16.52Z"></path>
      <path class="cls-19" d="M29.93,16.47a.13.13,0,0,0,.19.08l.2-.14s0-.37.06-.44,0-.1-.11,0-.19,0-.29.18A.47.47,0,0,0,29.93,16.47Z"></path>
      <path class="cls-20" d="M30.32,16.41a2.84,2.84,0,0,0,0-.31c0-.13,0-.17.08-.21s.33-.21.45-.19.12,0,.15.17a.55.55,0,0,1-.09.4.29.29,0,0,1-.29.2A.81.81,0,0,1,30.32,16.41Z"></path>
      <path class="cls-17" d="M19.55,16.94a.87.87,0,0,0,.83-.35c.25-.42.13-.82,0-.86a1.69,1.69,0,0,0-.25,0c-.17,0-.13.41-.14.41S19.55,16.94,19.55,16.94Z"></path>
      <path class="cls-18" d="M19,16.68s.54.38.72.22a4.06,4.06,0,0,1,.41-.31l0-.14a1.87,1.87,0,0,0-.55-.1l-.3.14A2.26,2.26,0,0,0,19,16.68Z"></path>
      <path class="cls-19" d="M19,16.61c0,.06.09.19.23.12a2.17,2.17,0,0,0,.28-.16s.08-.47.11-.56.06-.11-.15,0-.24.06-.37.21A.59.59,0,0,0,19,16.61Z"></path>
      <path class="cls-20" d="M19.46,16.57s0-.22,0-.39,0-.22.12-.26.44-.24.6-.2.14,0,.17.22a.74.74,0,0,1-.15.51.39.39,0,0,1-.39.23A1,1,0,0,1,19.46,16.57Z"></path>
      <path class="cls-17" d="M23.37,14.76a.51.51,0,0,0,.51.09c.26-.14.32-.37.26-.44L24,14.33c-.08-.05-.19.16-.2.16Z"></path>
      <path class="cls-18" d="M23.17,14.46s.15.35.29.33l.3,0,0-.07s-.18-.22-.23-.23l-.2,0Z"></path>
      <path class="cls-19" d="M23.17,14.41s0,.12.08.13h.19l.22-.24s.07,0-.06-.05-.14,0-.25,0A.35.35,0,0,0,23.17,14.41Z"></path>
      <path class="cls-20" d="M23.44,14.55a1.64,1.64,0,0,0,.13-.19c.05-.09.06-.11.14-.09s.29,0,.35.09.07.06,0,.16a.42.42,0,0,1-.23.2.22.22,0,0,1-.26,0A.76.76,0,0,1,23.44,14.55Z"></path>
      <path class="cls-17" d="M28,16.72A2,2,0,0,0,30,16.14c.65-.9.49-1.81.16-2a4.76,4.76,0,0,0-.55-.08c-.37,0-.38.87-.39.89S28,16.72,28,16.72Z"></path>
      <path class="cls-18" d="M26.81,16s1.13.95,1.58.64,1-.61,1-.61l0-.3a4,4,0,0,0-1.21-.37c-.22.07-.61.24-.71.26S26.81,16,26.81,16Z"></path>
      <path class="cls-19" d="M26.74,15.86c0,.12.16.44.5.32a6,6,0,0,0,.65-.3s.3-1,.38-1.23.17-.24-.32-.06-.56.07-.89.39A1.34,1.34,0,0,0,26.74,15.86Z"></path>
      <path class="cls-20" d="M27.89,15.88A5.7,5.7,0,0,0,28,15c0-.39,0-.49.34-.55s1-.44,1.37-.32.33.09.34.54a1.62,1.62,0,0,1-.44,1.1.89.89,0,0,1-.94.43A2.23,2.23,0,0,1,27.89,15.88Z"></path>
      <path class="cls-17" d="M22,16a1.33,1.33,0,0,0,1.36,0c.58-.46.64-1.08.45-1.23a1.88,1.88,0,0,0-.34-.15c-.23-.1-.4.49-.41.5Z"></path>
      <path class="cls-18" d="M21.39,15.31s.55.82.89.7a6.78,6.78,0,0,1,.75-.22l0-.2s-.56-.46-.72-.46-.43,0-.5,0A4.12,4.12,0,0,0,21.39,15.31Z"></path>
      <path class="cls-19" d="M21.37,15.18c0,.09,0,.32.27.3a3.17,3.17,0,0,0,.47-.08s.38-.61.46-.72.16-.12-.19-.09-.37-.06-.64.09A.89.89,0,0,0,21.37,15.18Z"></path>
      <path class="cls-20" d="M22.11,15.4a4.88,4.88,0,0,0,.25-.53c.08-.25.09-.32.31-.3s.75-.1.95,0,.19.12.12.41a1,1,0,0,1-.49.63.58.58,0,0,1-.68.11A1.47,1.47,0,0,1,22.11,15.4Z"></path>
    </g>
  </g>
</svg>
