<?xml version="1.0" encoding="UTF-8"?>
<svg xmlns="http://www.w3.org/2000/svg" xmlns:xlink="http://www.w3.org/1999/xlink" viewBox="0 0 110.12 193.45">
  <defs>
    <style>.cls-1{fill:none;}.cls-2{fill:#956d4b;}.cls-3{clip-path:url(#clip-path);}.cls-4{fill:url(#Безымянный_градиент_2);}.cls-5{fill:#754120;}.cls-6{fill:#44281c;}.cls-7{fill:#6c3c1d;}.cls-8{fill:#714d31;}.cls-9{fill:#613822;}.cls-10{fill:#7f5637;}.cls-11{fill:#a07850;}.cls-12{fill:#c5ba9f;}.cls-13{fill:#8b5b3c;}.cls-14{fill:#a37e4e;}.cls-15{fill:#613922;}</style>
    <clipPath id="clip-path">
      <polygon class="cls-1" points="7.72 164.78 57.69 188.3 103.91 164.89 55.86 144.53 7.72 164.78"></polygon>
    </clipPath>
    <linearGradient id="Безымянный_градиент_2" x1="-1773.41" y1="-264.34" x2="-1770.61" y2="-264.34" gradientTransform="matrix(34.36, 0, 0, -34.36, 60923.6, -8915.2)" gradientUnits="userSpaceOnUse">
      <stop offset="0" stop-color="#a17551"></stop>
      <stop offset="0.38" stop-color="#a17551"></stop>
      <stop offset="0.89" stop-color="#7a4928"></stop>
      <stop offset="1" stop-color="#72401f"></stop>
    </linearGradient>
  </defs>
  <g id="Слой_2" data-name="Слой 2">
    <g id="Слой_1-2" data-name="Слой 1">
      <path class="cls-2" d="M57.69,122.14s9.62,11.3,17.06,11.77,32.81-7.57,32.81-7.57l2.56-26.43L57.69,81.42Z"></path>
      <path class="cls-2" d="M0,98l5.23,34.47s18.58,2.79,21.83,1.86,18.12-6.5,22.29-6.5,8.34-5.73,8.34-5.73V81.42Z"></path>
      <g class="cls-3">
        <rect class="cls-4" x="31.38" y="117.21" width="48.87" height="98.4" transform="translate(-113.35 213.22) rotate(-86.92)"></rect>
      </g>
      <path class="cls-5" d="M7.72,164.78,5.23,132.51s23.69-.46,30.19-3.72,22.27-6.65,22.27-6.65l-1.83,22.39Z"></path>
      <path class="cls-6" d="M41.49,134.52a8.4,8.4,0,0,0-2.84-1.67l0,0s-3.79-1.13-5.85,1.41-1.71,5.29-.77,5.73a10.92,10.92,0,0,0,1.63.35l.09,0a28.27,28.27,0,0,0,3.51-.79,1.76,1.76,0,0,0,.6-.16l.65-.19c1.49-.46,1.67-.13,2.69-1a3.94,3.94,0,0,0,1.09-2.54l-.21-.51h0l0,0a1,1,0,0,0-.58-.5"></path>
      <path class="cls-6" d="M21.2,137.84a11,11,0,0,0-4,1.33v0s-4.3,2.7-3.59,6.84,3.66,6.13,4.88,5.6a12.71,12.71,0,0,0,1.71-1.28l0-.13c.92-1,1.59-3.16,2.21-4a2,2,0,0,0,.35-.72c.11-.2.21-.42.38-.79.8-1.82,1.28-1.71,1.29-3.46a5.12,5.12,0,0,0-1.54-3.21,3.36,3.36,0,0,0-.66-.22v0h-.08a1.26,1.26,0,0,0-1,.13"></path>
      <path class="cls-7" d="M57.69,122.14l-1.83,22.39,48.06,20.36,3.64-38.55s-15-1.73-21.48-.8-17.84,3.72-21.24,1.86a44.41,44.41,0,0,1-7.15-5.26"></path>
      <path class="cls-6" d="M39.39,145.14a3.28,3.28,0,0,0-1.26-.3h0a2.29,2.29,0,0,0-2,1.18c-.49,1.19-.05,2.18.35,2.24l.65-.05,0,0a12.3,12.3,0,0,0,1.23-.69l.21-.13.22-.14c.51-.34.61-.24.9-.69a1.56,1.56,0,0,0,.12-1.07l-.13-.17h0Z"></path>
      <path class="cls-6" d="M86.47,135.51a2.27,2.27,0,0,0-.11-.89h0s-.38-1-1.27-1-1.43.51-1.38.78l.2.41,0,0,.75.63.13.1.15.11c.35.24.3.34.66.41a1.08,1.08,0,0,0,.74-.18l.07-.13h0v-.22Z"></path>
      <path class="cls-6" d="M99.89,151.69a11,11,0,0,0-1.9-3.82h0s-3.32-3.9-7.36-2.59-5.59,4.53-4.88,5.68a14.36,14.36,0,0,0,1.52,1.52l.14,0c1.19.77,3.39,1.13,4.37,1.62a2.41,2.41,0,0,0,.77.25c.22.07.45.15.84.26,1.93.54,1.9,1,3.64.79a5.19,5.19,0,0,0,3-2,4.06,4.06,0,0,0,.13-.69h0l0-.07a1.27,1.27,0,0,0-.28-1"></path>
      <path class="cls-6" d="M73.78,138.4a8.59,8.59,0,0,0-1.87,2.69l0,0s-1.4,3.67,1,5.9,5.11,2.09,5.62,1.19a12.49,12.49,0,0,0,.46-1.59l0-.09a27.75,27.75,0,0,0-.52-3.54,1.77,1.77,0,0,0-.12-.61c0-.17-.07-.35-.13-.66-.35-1.49,0-1.65-.81-2.73a4,4,0,0,0-2.44-1.27l-.51.17h0l0,0a.94.94,0,0,0-.54.53"></path>
      <path class="cls-8" d="M74,165.78a1.58,1.58,0,0,0,1.57-.41c.54-.7.43-1.44.17-1.55l-.44-.09c-.29,0-.32.7-.33.71Z"></path>
      <path class="cls-9" d="M73,165.2s.87.79,1.23.55.8-.46.8-.46l0-.24-1-.32-.56.19Z"></path>
      <path class="cls-10" d="M73,165.07c0,.1.12.36.4.27s.52-.23.52-.23l.33-1c.06-.14.14-.19-.25-.06s-.45,0-.72.3a1.07,1.07,0,0,0-.28.69"></path>
      <path class="cls-11" d="M73.88,165.11a5.57,5.57,0,0,0,.13-.7c0-.3,0-.39.28-.42s.84-.34,1.11-.23.26.09.26.44a1.28,1.28,0,0,1-.39.87.7.7,0,0,1-.75.32,1.87,1.87,0,0,1-.64-.28"></path>
      <path class="cls-8" d="M63.28,159.66s2.39.12,3.24-1.67.26-3.36-.36-3.49a7.39,7.39,0,0,0-1,0c-.66,0-.37,1.67-.39,1.7Z"></path>
      <path class="cls-9" d="M60.93,158.83s2.3,1.32,3,.62,1.53-1.4,1.53-1.4l-.15-.52a7.53,7.53,0,0,0-2.27-.25c-.36.2-1,.62-1.16.69Z"></path>
      <path class="cls-10" d="M60.74,158.56c.11.21.43.73,1,.4a8.38,8.38,0,0,0,1.05-.75s.18-1.93.26-2.28.22-.49-.58,0-1,.31-1.44,1a2.41,2.41,0,0,0-.28,1.66"></path>
      <path class="cls-11" d="M62.78,158.21a11.07,11.07,0,0,0-.05-1.59c-.09-.69-.16-.87.42-1.08s1.68-1.13,2.32-1,.6.07.77.84a2.88,2.88,0,0,1-.41,2.1,1.59,1.59,0,0,1-1.52,1.07,4,4,0,0,1-1.53-.31"></path>
      <path class="cls-8" d="M53.32,167.42s1.86,1.42,3.54.44,2-2.59,1.62-3a6,6,0,0,0-.84-.52c-.55-.34-1.21,1.14-1.25,1.16Z"></path>
      <path class="cls-9" d="M51.86,165.47s1.15,2.33,2.08,2.14,2-.3,2-.3l.16-.5s-1.29-1.4-1.7-1.44-1.14-.05-1.32-.08Z"></path>
      <path class="cls-10" d="M51.86,165.15c0,.23,0,.83.59.87a10.13,10.13,0,0,0,1.26,0l1.46-1.71c.25-.25.45-.27-.47-.33s-1-.27-1.7,0a2.35,2.35,0,0,0-1.14,1.19"></path>
      <path class="cls-11" d="M53.71,166a11.63,11.63,0,0,0,.83-1.32c.3-.61.35-.79.93-.65s2,0,2.44.45.45.38.17,1.1A2.85,2.85,0,0,1,56.59,167a1.58,1.58,0,0,1-1.81,0A4.06,4.06,0,0,1,53.71,166"></path>
      <path class="cls-8" d="M49,161a2.67,2.67,0,0,0,.1-2.73c-.86-1.21-2.11-1.39-2.41-1l-.35.67c-.22.44,1,.84,1,.87Z"></path>
      <path class="cls-9" d="M47.63,162.22s1.7-1,1.49-1.72a15.08,15.08,0,0,1-.35-1.51l-.4-.09s-1,1.08-1,1.39,0,.87,0,1Z"></path>
      <path class="cls-10" d="M47.39,162.25c.18,0,.63,0,.62-.51a7.72,7.72,0,0,0-.11-1l-1.4-1c-.2-.17-.23-.32-.21.38s-.15.74.12,1.3a1.79,1.79,0,0,0,1,.79"></path>
      <path class="cls-11" d="M47.9,160.79a8.8,8.8,0,0,0-1.06-.55c-.49-.19-.62-.21-.55-.67s-.13-1.51.17-1.89.26-.37.84-.2a2.16,2.16,0,0,1,1.21,1,1.18,1.18,0,0,1,.15,1.38,3,3,0,0,1-.76.89"></path>
      <path class="cls-8" d="M40.56,163a1.17,1.17,0,0,0,.38-1.12c-.2-.61-.69-.84-.86-.73l-.23.23.29.49Z"></path>
      <path class="cls-9" d="M39.82,163.33s.83-.2.84-.52,0-.67,0-.67l-.15-.09-.58.45-.12.43Z"></path>
      <path class="cls-10" d="M39.71,163.31l.33-.13.08-.41-.46-.59c-.06-.1,0-.16-.13.13s-.16.29-.12.55a.77.77,0,0,0,.3.45"></path>
      <path class="cls-11" d="M40.12,162.77l-.37-.36-.15-.35.32-.76.37,0a.92.92,0,0,1,.37.58.51.51,0,0,1-.12.59Z"></path>
      <path class="cls-8" d="M38,167.67s1.64-2.63.13-4.72-3.65-2.39-4.18-1.77a8.62,8.62,0,0,0-.6,1.16c-.37.77,1.66,1.46,1.69,1.51Z"></path>
      <path class="cls-9" d="M35.56,169.83s2.94-1.8,2.56-3-.63-2.61-.63-2.61l-.69-.15s-1.69,1.88-1.69,2.42.08,1.51.06,1.75Z"></path>
      <path class="cls-10" d="M35.13,169.87c.31,0,1.1,0,1.07-.87a12.45,12.45,0,0,0-.19-1.67s-2.09-1.41-2.44-1.72-.41-.56-.36.66-.25,1.29.21,2.25a3.15,3.15,0,0,0,1.71,1.35"></path>
      <path class="cls-11" d="M36,167.33a14.22,14.22,0,0,0-1.84-.93c-.85-.33-1.08-.37-1-1.15s-.23-2.62.29-3.28.45-.64,1.44-.35a3.69,3.69,0,0,1,2.12,1.78,2.07,2.07,0,0,1,.27,2.39A5.38,5.38,0,0,1,36,167.33"></path>
      <text></text>
      <path class="cls-12" d="M58.59,119a8.58,8.58,0,0,1-1,4.35,25.84,25.84,0,0,1-2.3,3.59c-.82,1.13-1.65,2.23-2.34,3.41a9.9,9.9,0,0,0-1.37,3.79.25.25,0,0,1-.49,0A10.46,10.46,0,0,1,52.33,130c.65-1.26,1.45-2.43,2.2-3.6a24.24,24.24,0,0,0,2-3.54,7.44,7.44,0,0,0,.68-3.76.68.68,0,0,1,1.35-.15v0Z"></path>
      <path class="cls-12" d="M58.11,117.65a17.62,17.62,0,0,1,1.42,4c.33,1.37.58,2.74.77,4.11a45.46,45.46,0,0,1,.48,8.31,66.52,66.52,0,0,0,1.71,16.27.25.25,0,0,1-.18.3.26.26,0,0,1-.3-.18,67,67,0,0,1-2.25-16.39,46.92,46.92,0,0,0-.67-8.12c-.23-1.34-.5-2.67-.85-4a16.39,16.39,0,0,0-1.38-3.67v0a.72.72,0,0,1,1.25-.7Z"></path>
      <polygon class="cls-13" points="0 98.04 57.69 122.14 110.12 99.91 57.69 81.42 0 98.04"></polygon>
      <path class="cls-14" d="M57.38,100.12l-.51-19.66-.22-9.83-.09-4.92c0-1.65-.06-3.26,0-4.95.12-3.26.19-6.56.38-9.84s.45-6.56.84-9.82a89.23,89.23,0,0,1,1.66-9.74,46.85,46.85,0,0,1,1.39-4.75A21.93,21.93,0,0,1,63,22.14a.24.24,0,0,1,.41.25h0a21.35,21.35,0,0,0-2,4.41,44.22,44.22,0,0,0-1.24,4.72,86.9,86.9,0,0,0-1.38,9.67c-.3,3.25-.47,6.51-.57,9.78s-.08,6.52-.11,9.82c0,1.57.1,3.24.17,4.86l.22,4.91L59,80.38,60,100h0a1.31,1.31,0,1,1-2.61.13Z"></path>
      <path class="cls-14" d="M57,58.53a52.14,52.14,0,0,1,5.54-6.64A33.31,33.31,0,0,1,65.74,49a19.14,19.14,0,0,1,3.64-2.28,10.49,10.49,0,0,1,2-.71c.71-.15,1.4-.23,2.09-.34a32.86,32.86,0,0,0,4-1.06A33.76,33.76,0,0,0,85,41.12h0a.17.17,0,0,1,.23,0,.18.18,0,0,1,0,.24h0a48.33,48.33,0,0,1-7.58,3.43A37.53,37.53,0,0,1,73.57,46c-.69.14-1.4.25-2,.43a9.59,9.59,0,0,0-1.92.76,22.84,22.84,0,0,0-6.38,5.35,41.81,41.81,0,0,0-4.86,6.84v0a.81.81,0,1,1-1.4-.8Z"></path>
      <path class="cls-14" d="M78.88,50l-3.54.61-3.55.6a25.55,25.55,0,0,1-3.62.42,9,9,0,0,1-1.86-.16,4.39,4.39,0,0,1-.93-.3,2.87,2.87,0,0,1-.93-.59l0,0a.47.47,0,1,1,.78-.49,1.57,1.57,0,0,0,.49.53,4.42,4.42,0,0,0,.75.39,5.53,5.53,0,0,0,1.72.33,24,24,0,0,0,3.58-.3c1.2-.15,2.38-.36,3.56-.57s2.35-.43,3.52-.68a.13.13,0,0,1,.15.09.13.13,0,0,1-.09.15Z"></path>
      <path class="cls-14" d="M78,33.45c-.58,1.18-1.21,2.32-1.85,3.46S74.77,39.15,74,40.22s-1.69,2-2.42,3.06A11.14,11.14,0,0,0,70.65,45a5.53,5.53,0,0,0-.51,1.77v0a.46.46,0,0,1-.48.42.45.45,0,0,1-.42-.48.32.32,0,0,1,0-.14,14.86,14.86,0,0,1,2.08-3.47c.8-1.05,1.75-2,2.51-3A29.41,29.41,0,0,0,76,36.83c.64-1.13,1.23-2.3,1.76-3.49a.13.13,0,0,1,.16-.07.12.12,0,0,1,.07.17Z"></path>
      <path class="cls-14" d="M71.16,26.62a21.09,21.09,0,0,0-.23,3.81c0,1.27.16,2.53.32,3.79s.39,2.49.68,3.71.62,2.43.95,3.64a.11.11,0,0,1-.07.14.12.12,0,0,1-.14-.07,33.27,33.27,0,0,1-1-3.65c-.28-1.24-.47-2.49-.64-3.75s-.25-2.53-.28-3.8a31,31,0,0,1,.08-3.85.15.15,0,0,1,.16-.15.14.14,0,0,1,.14.16v0Z"></path>
      <path class="cls-14" d="M57.61,75.11l-.44-1.4c-.16-.46-.34-.91-.5-1.37-.32-.92-.72-1.8-1.08-2.7Q54.44,67,53.16,64.39c-1.69-3.46-3.47-6.86-4.89-10.38a35.25,35.25,0,0,1-1.74-5.36,20.22,20.22,0,0,1-.45-5.44c.07-1.77.24-3.54.39-5.38.08-.91.16-1.85.22-2.81a11.09,11.09,0,0,0,0-2.93h0a.21.21,0,0,1,.16-.26.22.22,0,0,1,.26.17v.09a25.07,25.07,0,0,0-.17,3c0,1-.09,1.89-.15,2.81-.12,1.83-.24,3.6-.27,5.36A19.65,19.65,0,0,0,47,48.52a35.38,35.38,0,0,0,1.82,5.24C50.35,57.21,52.19,60.55,54,64c.9,1.71,1.75,3.46,2.57,5.24.39.91.81,1.8,1.15,2.73.18.46.37.92.54,1.39l.49,1.41h0a.58.58,0,0,1-.35.75.61.61,0,0,1-.74-.39Z"></path>
      <path class="cls-14" d="M39.77,40.54a15.62,15.62,0,0,0-.26,3.08,22.85,22.85,0,0,0,.25,3.19c.07.54.19,1.06.31,1.58a11.7,11.7,0,0,0,.46,1.53A9.51,9.51,0,0,0,42,52.66a14.81,14.81,0,0,0,2.29,2c.79.61,1.61,1.17,2.42,1.75,1.62,1.12,3.26,2.18,4.92,3.22a.42.42,0,0,1,.13.57.4.4,0,0,1-.57.12l0,0h0L46.47,56.7c-.78-.61-1.58-1.2-2.35-1.85a16.76,16.76,0,0,1-2.29-2.05A9.48,9.48,0,0,1,40.36,50a13.87,13.87,0,0,1-.44-1.56,13.56,13.56,0,0,1-.32-1.59c-.08-.54-.14-1.07-.19-1.61s-.06-1.07-.07-1.61c0-1.06.1-2.09.15-3.11a.14.14,0,0,1,.28,0Z"></path>
      <path class="cls-14" d="M51.5,46.23c-.24.64-.37,1.29-.55,2s-.39,1.32-.61,2-.43,1.34-.69,2a10.82,10.82,0,0,0-.7,2.08.28.28,0,1,1-.56-.1.22.22,0,0,1,0-.11l0,0a9.34,9.34,0,0,0,1-1.89c.27-.66.5-1.32.72-2s.42-1.32.59-2a7.94,7.94,0,0,0,.38-1.93h0a.18.18,0,0,1,.17-.16.14.14,0,0,1,.17.13A.43.43,0,0,1,51.5,46.23Z"></path>
      <path class="cls-14" d="M52.35,39.55c-.13.16-.24.35-.39.51a4,4,0,0,0-.29.54c-.18.38-.33.73-.47,1.1a15,15,0,0,0-.63,2.3,15.53,15.53,0,0,0-.16,2.47A9.07,9.07,0,0,0,50.76,49a.11.11,0,0,1-.07.12.09.09,0,0,1-.12-.06h0a23,23,0,0,1-.24-2.57A14.45,14.45,0,0,1,50.47,44a14.94,14.94,0,0,1,.62-2.32c.14-.37.29-.73.47-1.11.08-.19.19-.36.26-.55a3.53,3.53,0,0,1,.22-.59.21.21,0,0,1,.23-.11.15.15,0,0,1,.11.19l0,0Z"></path>
      <path class="cls-14" d="M46.57,36.44a2.4,2.4,0,0,0-.53-.61l-.59-.53c-.39-.37-.76-.74-1.13-1.13-.74-.78-1.45-1.58-2.11-2.43a18.68,18.68,0,0,1-1.75-2.68,10.79,10.79,0,0,1-1.11-2.92s0,0,0,0,0,0,0,0A10.44,10.44,0,0,0,40.61,29a22.77,22.77,0,0,0,1.79,2.61A30,30,0,0,0,44.48,34a26,26,0,0,0,2.3,2.16l0,0a.17.17,0,0,1,0,.24.19.19,0,0,1-.25,0A.1.1,0,0,1,46.57,36.44Z"></path>
      <path class="cls-14" d="M45.18,24.83a17.28,17.28,0,0,1-.12,4.45,10.73,10.73,0,0,1-.53,2A3.7,3.7,0,0,1,43.4,33a.12.12,0,0,1-.16,0,.11.11,0,0,1,0-.16h0a3.54,3.54,0,0,0,1.09-1.58,10.62,10.62,0,0,0,.56-2,16.9,16.9,0,0,0,.19-4.41s0,0,0,0S45.17,24.82,45.18,24.83Z"></path>
      <path class="cls-14" d="M45.46,56c-.51.09-1,.2-1.47.24a12.14,12.14,0,0,1-1.47.12,8.49,8.49,0,0,1-4.35-1.11,9.79,9.79,0,0,1-1.28-1,6.19,6.19,0,0,1-1.12-1.26,16.6,16.6,0,0,1-.92-1.47.15.15,0,0,1,0-.19.12.12,0,0,1,.16.06h0c.27.5.57,1,.88,1.44A6.11,6.11,0,0,0,37,54.14a6.78,6.78,0,0,0,2.62,1.6,8.64,8.64,0,0,0,2.88.43,6.76,6.76,0,0,0,2.79-.57h0a.23.23,0,0,1,.3.12.22.22,0,0,1-.1.3Z"></path>
      <path class="cls-14" d="M51.24,18.63a49.64,49.64,0,0,1,5.4,10.14c.33.88.67,1.76.92,2.66L58,32.77c.13.45.21.91.32,1.36s.19.91.27,1.37l.19,1.38c.05.46.13.93.14,1.39l0,.7c0,.24,0,.45,0,.76a.47.47,0,0,1-.52.44.49.49,0,0,1-.46-.51h0v-.08c0-.14,0-.39,0-.6l0-.67c0-.45,0-.9,0-1.35l-.11-1.35c-.05-.45-.13-.9-.2-1.35s-.14-.89-.24-1.34L57,31.57c-.2-.89-.5-1.78-.78-2.66a37.58,37.58,0,0,0-2.16-5.2c-.43-.85-.89-1.7-1.39-2.52a22.8,22.8,0,0,0-1.66-2.4.13.13,0,0,1,0-.18.12.12,0,0,1,.17,0Z"></path>
      <path class="cls-14" d="M61,8.47c0,.08,0,.11,0,.16l-.1.21-.18.42c-.12.29-.21.59-.31.88-.19.6-.39,1.2-.56,1.82-.29,1.25-.59,2.53-.76,3.84a65.05,65.05,0,0,0-.65,8.06c-.05,2.71-.07,5.4,0,8s.26,5.19.54,7.7v0a.56.56,0,0,1-.5.65.63.63,0,0,1-.68-.52v0c-.12-2.59-.12-5.16-.09-7.81,0-.66.06-1.33,0-2l.09-2c0-.67,0-1.35.08-2s0-1.36.11-2a75.92,75.92,0,0,1,.88-8c.2-1.32.5-2.6.8-3.85l.54-1.82c.1-.3.18-.61.3-.89l.17-.43.09-.21A.73.73,0,0,1,61,8.32a.07.07,0,0,1,.07.08A.08.08,0,0,1,61,8.47Z"></path>
      <path class="cls-14" d="M67.18,15.05A5.73,5.73,0,0,0,66,16l-1.16,1-2.31,2c-.75.68-1.51,1.36-2.21,2.09a9.17,9.17,0,0,0-1.79,2.4h0a.22.22,0,0,1-.28.11.22.22,0,0,1-.1-.29v0a11,11,0,0,1,2-2.39c.73-.71,1.48-1.4,2.25-2.06L64.7,16.8l1.16-1a8.33,8.33,0,0,0,1.13-1h0a.17.17,0,0,1,.22,0,.14.14,0,0,1,0,.21S67.2,15,67.18,15.05Z"></path>
      <path class="cls-14" d="M56.15,28.48a8.47,8.47,0,0,0-1.32-.1c-.44,0-.87-.08-1.31-.14A12.78,12.78,0,0,1,51,27.59a8.65,8.65,0,0,1-2.29-1.2,11.23,11.23,0,0,1-1.9-1.82.14.14,0,0,1,0-.2.13.13,0,0,1,.19,0h0v0c.14.17.22.38.37.55a4,4,0,0,0,.43.48,8.62,8.62,0,0,0,1,.84,9,9,0,0,0,2.26,1.21,13,13,0,0,0,2.5.61c.42.06.86.1,1.29.12a3.44,3.44,0,0,0,1.28-.11h0a.2.2,0,0,1,.26.11.19.19,0,0,1-.12.25A.14.14,0,0,1,56.15,28.48Z"></path>
      <path class="cls-14" d="M58.32,21A5,5,0,0,1,57.4,20a10.54,10.54,0,0,1-.72-1.15,19.78,19.78,0,0,1-1.12-2.48A29.57,29.57,0,0,1,54.14,11c-.18-.9-.25-1.84-.36-2.75a13,13,0,0,1-.09-1.4l0-1.39c0-.94.12-1.87.22-2.8A10.62,10.62,0,0,1,54.68,0s0,0,.06,0a.05.05,0,0,1,0,.07h0A10.33,10.33,0,0,0,54,2.71a25.83,25.83,0,0,0-.23,2.78l0,1.39a13,13,0,0,0,.09,1.39c.12.91.19,1.84.38,2.74a30.15,30.15,0,0,0,1.44,5.27,19.38,19.38,0,0,0,1.12,2.45,10.7,10.7,0,0,0,.72,1.12,3.1,3.1,0,0,0,.92.89h0a.16.16,0,0,1,.07.21.14.14,0,0,1-.2.07Z"></path>
      <path class="cls-8" d="M59.86,102.68a.61.61,0,0,0-.59-.22c-.32.1-.45.36-.4.45L59,103c.09.08.26-.15.27-.15Z"></path>
      <path class="cls-15" d="M60,103.07s-.1-.45-.27-.45l-.35,0,0,.08s.17.29.23.31l.23.07Z"></path>
      <path class="cls-10" d="M60,103.13s0-.15-.06-.18a1.45,1.45,0,0,0-.22,0l-.32.23c-.05,0-.09,0,.07.08s.15.08.29.06A.38.38,0,0,0,60,103.13Z"></path>
      <path class="cls-11" d="M59.74,102.91a2.24,2.24,0,0,0-.2.19c-.07.09-.09.12-.18.07S59,103.09,59,103s-.06-.09,0-.2a.51.51,0,0,1,.32-.19.26.26,0,0,1,.31.07A.7.7,0,0,1,59.74,102.91Z"></path>
      <path class="cls-8" d="M51.48,99.63a.88.88,0,0,0-.91-.13c-.44.24-.55.66-.44.77a1.72,1.72,0,0,0,.22.14c.14.09.32-.29.33-.29Z"></path>
      <path class="cls-15" d="M51.85,100.14s-.29-.61-.53-.56-.52.06-.52.06l0,.13s.32.37.43.39l.34,0A2.31,2.31,0,0,0,51.85,100.14Z"></path>
      <path class="cls-10" d="M51.85,100.23c0-.06,0-.22-.15-.23a3.15,3.15,0,0,0-.33,0l-.38.44c-.07.06-.12.06.12.08s.24.08.44,0A.65.65,0,0,0,51.85,100.23Z"></path>
      <path class="cls-11" d="M51.37,100a2.47,2.47,0,0,0-.22.34c-.08.15-.09.2-.24.16s-.52,0-.63-.13-.12-.1,0-.29a.78.78,0,0,1,.39-.37.42.42,0,0,1,.47,0A1,1,0,0,1,51.37,100Z"></path>
      <path class="cls-8" d="M57.4,98.42s-1.88-.94-3.2.21-1.39,2.62-.93,2.94a6,6,0,0,0,.82.33c.55.2.88-1.21.92-1.23Z"></path>
      <path class="cls-15" d="M59,99.91s-1.4-1.88-2.19-1.55-1.73.6-1.73.6l-.06.47s1.38,1,1.75,1,1-.15,1.18-.15A7.84,7.84,0,0,0,59,99.91Z"></path>
      <path class="cls-10" d="M59.07,100.19c0-.2-.1-.74-.66-.67a9.23,9.23,0,0,0-1.11.24s-.83,1.5-1,1.76-.35.31.47.2.88.09,1.5-.29A2.13,2.13,0,0,0,59.07,100.19Z"></path>
      <path class="cls-11" d="M57.3,99.76a9.54,9.54,0,0,0-.52,1.3c-.17.6-.18.76-.72.73s-1.75.32-2.23,0-.46-.26-.33-1a2.46,2.46,0,0,1,1.07-1.54,1.4,1.4,0,0,1,1.6-.34A3.79,3.79,0,0,1,57.3,99.76Z"></path>
      <path class="cls-8" d="M64.66,99a2.73,2.73,0,0,0-2.56-1.11c-1.48.36-2.12,1.48-1.89,1.91a5.29,5.29,0,0,0,.5.58c.35.37,1.17-.59,1.2-.59Z"></path>
      <path class="cls-15" d="M65.32,100.82s-.34-2-1.09-2.08-1.57-.22-1.57-.22l-.24.34s.66,1.34,1,1.46.85.29,1,.36A7.77,7.77,0,0,0,65.32,100.82Z"></path>
      <path class="cls-10" d="M65.25,101.06c.06-.17.22-.62-.25-.78a6.56,6.56,0,0,0-1-.26s-1.24.83-1.48,1-.4.1.28.34.65.42,1.28.38A1.9,1.9,0,0,0,65.25,101.06Z"></path>
      <path class="cls-11" d="M64.05,100a8.59,8.59,0,0,0-.92.8c-.37.39-.44.52-.85.28s-1.48-.45-1.73-.88-.26-.39.12-.87a2.19,2.19,0,0,1,1.45-.77,1.24,1.24,0,0,1,1.37.38A3.11,3.11,0,0,1,64.05,100Z"></path>
      <path class="cls-8" d="M59.61,99.79a2.93,2.93,0,0,0-3-.39c-1.41.82-1.74,2.16-1.38,2.53a4.13,4.13,0,0,0,.69.45c.47.29,1-.95,1.06-1S59.61,99.79,59.61,99.79Z"></path>
      <path class="cls-15" d="M60.82,101.45s-1-2-1.74-1.82a16.33,16.33,0,0,1-1.69.23l-.14.43s1.08,1.19,1.42,1.22,1,0,1.11.08A7.31,7.31,0,0,0,60.82,101.45Z"></path>
      <path class="cls-10" d="M60.81,101.72c0-.2,0-.7-.48-.74a8.06,8.06,0,0,0-1.06,0s-1,1.22-1.24,1.43-.38.22.39.27.8.24,1.43,0A2,2,0,0,0,60.81,101.72Z"></path>
      <path class="cls-11" d="M59.27,101a8.8,8.8,0,0,0-.71,1.1c-.26.51-.3.66-.79.54s-1.66,0-2.05-.39-.38-.33-.13-.93a2.37,2.37,0,0,1,1.26-1.23,1.32,1.32,0,0,1,1.53,0A3.49,3.49,0,0,1,59.27,101Z"></path>
      <path class="cls-8" d="M67.73,102.53a.94.94,0,0,0,.86-.43c.24-.47.09-.89-.08-.93a1.21,1.21,0,0,0-.26,0c-.18,0-.11.44-.11.44Z"></path>
      <path class="cls-15" d="M67.11,102.3s.61.36.79.17a5.29,5.29,0,0,1,.41-.36l0-.14a2,2,0,0,0-.6-.07c-.1,0-.26.16-.31.17A3.09,3.09,0,0,0,67.11,102.3Z"></path>
      <path class="cls-10" d="M67.06,102.22c0,.06.11.2.26.11a1.82,1.82,0,0,0,.28-.19s.06-.51.08-.6.06-.13-.15,0-.26.08-.39.26A.61.61,0,0,0,67.06,102.22Z"></path>
      <path class="cls-11" d="M67.6,102.14a2.64,2.64,0,0,0,0-.42c0-.18,0-.23.11-.29s.45-.29.62-.26.16,0,.2.23a.76.76,0,0,1-.12.55.42.42,0,0,1-.4.28A1.11,1.11,0,0,1,67.6,102.14Z"></path>
      <path class="cls-8" d="M46.93,103.61a1,1,0,0,0,.87-.43c.23-.47.08-.89-.09-.92a2.23,2.23,0,0,0-.26,0c-.18,0-.11.44-.11.45S46.93,103.61,46.93,103.61Z"></path>
      <path class="cls-15" d="M46.31,103.38s.61.36.79.18a4.35,4.35,0,0,1,.41-.37l0-.13a1.93,1.93,0,0,0-.6-.08l-.31.18A3.21,3.21,0,0,0,46.31,103.38Z"></path>
      <path class="cls-10" d="M46.26,103.31c0,.06.12.2.26.11l.29-.19s0-.52.07-.61.06-.13-.15,0-.26.08-.39.25A.64.64,0,0,0,46.26,103.31Z"></path>
      <path class="cls-11" d="M46.81,103.23a3.53,3.53,0,0,0,0-.43c0-.18,0-.23.11-.28s.45-.29.62-.26.16,0,.2.22a.74.74,0,0,1-.12.56.41.41,0,0,1-.4.27A1,1,0,0,1,46.81,103.23Z"></path>
      <path class="cls-8" d="M52.87,102.86a1.21,1.21,0,0,0,1.14-.47c.34-.58.18-1.12,0-1.18a1.67,1.67,0,0,0-.34,0c-.22,0-.17.55-.18.56S52.87,102.86,52.87,102.86Z"></path>
      <path class="cls-15" d="M52.1,102.52s.74.51,1,.29a6.55,6.55,0,0,1,.56-.43l0-.18a2.4,2.4,0,0,0-.76-.14l-.41.19Z"></path>
      <path class="cls-10" d="M52.05,102.42c0,.07.13.26.32.16a2.49,2.49,0,0,0,.38-.22s.11-.65.15-.76.09-.16-.2,0-.33.08-.51.29A.81.81,0,0,0,52.05,102.42Z"></path>
      <path class="cls-11" d="M52.75,102.36a4.59,4.59,0,0,0,0-.54c0-.23,0-.29.17-.35s.6-.33.82-.28.2,0,.23.31a.94.94,0,0,1-.2.69.54.54,0,0,1-.54.32A1.32,1.32,0,0,1,52.75,102.36Z"></path>
      <path class="cls-8" d="M57.21,102a.76.76,0,0,1,.7-.11c.35.16.44.44.36.52l-.16.1c-.11.06-.26-.19-.27-.19Z"></path>
      <path class="cls-15" d="M56.94,102.38s.2-.43.39-.4a3.08,3.08,0,0,0,.41,0l0,.09s-.24.26-.32.27l-.27,0Z"></path>
      <path class="cls-10" d="M56.94,102.43a.11.11,0,0,1,.11-.15,1.2,1.2,0,0,1,.25,0l.31.29s.09,0-.09.06-.19.06-.34,0A.41.41,0,0,1,56.94,102.43Z"></path>
      <path class="cls-11" d="M57.3,102.27a2.64,2.64,0,0,1,.18.22c.07.11.08.14.19.11s.4,0,.49-.1.08-.07,0-.2a.56.56,0,0,0-.31-.24.35.35,0,0,0-.37,0A.69.69,0,0,0,57.3,102.27Z"></path>
      <path class="cls-8" d="M63.57,100.23a2.69,2.69,0,0,0-2.76-.3c-1.29.78-1.57,2-1.23,2.36a4.14,4.14,0,0,0,.65.41c.44.25.94-.91,1-.92Z"></path>
      <path class="cls-15" d="M64.72,101.74s-.91-1.81-1.64-1.65-1.56.25-1.56.25l-.12.4s1,1.07,1.34,1.1.89,0,1,0A7.64,7.64,0,0,0,64.72,101.74Z"></path>
      <path class="cls-10" d="M64.73,102c0-.18,0-.65-.46-.67a8,8,0,0,0-1,0s-.92,1.16-1.12,1.35-.35.21.37.24.74.21,1.33,0A1.83,1.83,0,0,0,64.73,102Z"></path>
      <path class="cls-11" d="M63.28,101.35a7.69,7.69,0,0,0-.63,1c-.23.48-.27.61-.72.51s-1.54,0-1.91-.32-.35-.3-.13-.86A2.11,2.11,0,0,1,61,100.56a1.22,1.22,0,0,1,1.41,0A3.05,3.05,0,0,1,63.28,101.35Z"></path>
      <path class="cls-8" d="M55.75,101.92a1.81,1.81,0,0,0-1.75.64c-.54.85-.34,1.68,0,1.78a3.12,3.12,0,0,0,.51,0c.34,0,.3-.82.31-.83Z"></path>
      <path class="cls-15" d="M56.88,102.49s-1.08-.82-1.47-.5a10.31,10.31,0,0,1-.86.6l.05.28a3.9,3.9,0,0,0,1.13.27l.63-.28A4.48,4.48,0,0,0,56.88,102.49Z"></path>
      <path class="cls-10" d="M57,102.64c0-.11-.17-.4-.47-.27a4.65,4.65,0,0,0-.58.31s-.22,1-.28,1.14-.14.23.29,0,.51-.09.79-.4A1.21,1.21,0,0,0,57,102.64Z"></path>
      <path class="cls-11" d="M55.91,102.68a5.57,5.57,0,0,0-.08.81c0,.36,0,.45-.28.52s-.92.46-1.24.37-.3-.07-.33-.48a1.42,1.42,0,0,1,.34-1,.81.81,0,0,1,.83-.44A2,2,0,0,1,55.91,102.68Z"></path>
    </g>
  </g>
</svg>
