<?xml version="1.0" encoding="UTF-8"?>
<svg xmlns="http://www.w3.org/2000/svg" viewBox="0 0 83.2 213.28">
  <defs>
    <style>.cls-1{fill:#a29274;}.cls-2{fill:#e3e0c9;}.cls-3{fill:#fcedce;}.cls-4{fill:#bda885;}.cls-5{fill:#d0c5a6;}.cls-6{fill:#8f8267;}.cls-7{fill:#ab967a;opacity:0.25;}.cls-8{fill:#9b8d71;}.cls-9{fill:#7c705b;}.cls-10{fill:#a5a5a5;}.cls-11{fill:#deebdd;}.cls-12{fill:#817870;}.cls-13{fill:#93c63e;}.cls-14{fill:#3f6c3e;}.cls-15{fill:#a0cae7;}.cls-16{fill:#d0e6f5;}.cls-17{fill:#b8d8ee;}</style>
  </defs>
  <g id="Слой_2" data-name="Слой 2">
    <g id="Слой_1-2" data-name="Слой 1">
      <polygon class="cls-1" points="41.66 158.54 83.2 140.86 76.97 188.69 41.66 213.28 41.66 158.54"></polygon>
      <polygon class="cls-2" points="41.66 128.9 83.2 140.86 41.66 158.54 0 140.86 41.66 128.9"></polygon>
      <polygon class="cls-3" points="41.66 128.9 0 140.86 0.73 141.17 82.81 140.75 41.66 128.9"></polygon>
      <polygon class="cls-4" points="6.23 188.69 0 140.86 41.66 158.54 41.66 213.28 6.23 188.69"></polygon>
      <path class="cls-5" d="M26.18,141.45a23,23,0,0,1,2-2.1,19.68,19.68,0,0,1,2.29-1.77A22.45,22.45,0,0,1,35.65,135a26.91,26.91,0,0,1,5.66-1.19c1-.12,1.93-.1,2.88-.14s1.92.08,2.87.16c-1,.11-1.9.15-2.85.25s-1.88.21-2.81.39-1.86.32-2.77.57-1.81.49-2.71.77a30.24,30.24,0,0,0-5.14,2.28A28.83,28.83,0,0,0,26.18,141.45Z"></path>
      <path class="cls-5" d="M19.09,143.13a5.43,5.43,0,0,0,1.64.33,15.9,15.9,0,0,0,1.69,0,25.55,25.55,0,0,0,3.38-.29c2.25-.31,4.45-.88,6.73-1.38a20,20,0,0,1-6.61,2.23,15.35,15.35,0,0,1-3.52.1,9.44,9.44,0,0,1-1.75-.31A3.75,3.75,0,0,1,19.09,143.13Z"></path>
      <path class="cls-5" d="M47.75,153.32a30.79,30.79,0,0,1,3.93-5,32.53,32.53,0,0,1,4.83-4.15,23.17,23.17,0,0,1,5.72-2.85,14.38,14.38,0,0,1,6.31-.5,18.46,18.46,0,0,0-6.1,1.12A25.56,25.56,0,0,0,57,144.9a38,38,0,0,0-4.85,3.92c-.78.69-1.52,1.43-2.25,2.19S48.45,152.53,47.75,153.32Z"></path>
      <polygon class="cls-6" points="41.66 158.54 83.2 140.86 76.97 188.69 41.66 213.28 41.66 158.54"></polygon>
      <polygon class="cls-7" points="6.23 188.69 0 140.86 41.66 158.54 41.66 213.28 6.23 188.69"></polygon>
      <polygon class="cls-8" points="41.66 213.28 6.23 188.69 41.82 175.24 76.97 188.69 41.66 213.28"></polygon>
      <path class="cls-9" d="M13.76,167.66a12.83,12.83,0,0,1-1.08-6.93,11.35,11.35,0,0,1,3.07-6.43,15.94,15.94,0,0,1,6.12-3.64,26.08,26.08,0,0,1,6.93-1.23,38.91,38.91,0,0,0-6.71,1.85,16,16,0,0,0-5.73,3.62,10.89,10.89,0,0,0-3,5.92,15.09,15.09,0,0,0,.43,6.84Z"></path>
      <path class="cls-9" d="M52.47,167c.11.18.34.24.53.33l.59.25c.4.15.8.29,1.21.42.81.27,1.63.52,2.45.74,1.65.43,3.31.84,5,1.17,3.35.69,6.73,1.13,10.16,1.53a37.74,37.74,0,0,1-10.33-.7,36.31,36.31,0,0,1-5-1.38c-.82-.3-1.62-.62-2.41-1-.39-.19-.78-.38-1.16-.6A2.81,2.81,0,0,1,52.47,167Z"></path>
      <path class="cls-9" d="M30.16,164.51a26.78,26.78,0,0,1-1,4.68,30.7,30.7,0,0,1-1.73,4.5,26.7,26.7,0,0,1-2.5,4.13,15.65,15.65,0,0,1-3.46,3.34,28.78,28.78,0,0,0,2.92-3.72,43.42,43.42,0,0,0,2.27-4.12c.69-1.42,1.29-2.87,1.89-4.34.3-.73.57-1.47.84-2.22S29.89,165.26,30.16,164.51Z"></path>
      <path class="cls-9" d="M43,202.57c1.69-.84,3.46-1.47,5.16-2.22s3.41-1.51,5-2.36a33.22,33.22,0,0,0,4.69-2.93A13.42,13.42,0,0,0,61.65,191a10.93,10.93,0,0,1-3.28,4.59,24.83,24.83,0,0,1-4.72,3.17A40.29,40.29,0,0,1,48.44,201c-.89.31-1.79.6-2.69.87Z"></path>
      <path class="cls-9" d="M23.56,197.32A8.75,8.75,0,0,1,18.92,193a3.92,3.92,0,0,1,.28-3.34,7.82,7.82,0,0,1,2.25-2.43,22.82,22.82,0,0,1,5.74-2.86,47.15,47.15,0,0,1,6.15-1.61c-2,.74-4,1.42-5.91,2.23A24.79,24.79,0,0,0,22,187.9,7,7,0,0,0,19.88,190a3.37,3.37,0,0,0-.34,2.75,6.28,6.28,0,0,0,1.61,2.54A13.7,13.7,0,0,0,23.56,197.32Z"></path>
      <path class="cls-9" d="M61.65,166c1-1.43,2.08-2.84,3.1-4.26s2-2.86,3-4.33a44.86,44.86,0,0,0,2.6-4.5A14.71,14.71,0,0,0,71.94,148a11.16,11.16,0,0,1-1,5.2,28.85,28.85,0,0,1-2.5,4.69,43.9,43.9,0,0,1-3.15,4.27A41.13,41.13,0,0,1,61.65,166Z"></path>
      <polygon class="cls-10" points="40.14 185.64 40.18 185.57 40.11 185.56 40.14 185.64"></polygon>
      <path class="cls-11" d="M42.26,149s-1.08.3-1.28.11.34,1.52,1.28,4c.5,1.32,1.84,6.11,1.44,8.52s-1,2.64-.76,4.38.39,3.58.63,3.19.1-1.49.2-3.55c0-1.07.88-3.39,1-4.21a24.49,24.49,0,0,0-1.23-8.69C42.72,150.26,42.26,149,42.26,149Z"></path>
      <path class="cls-11" d="M41,150.42a11.48,11.48,0,0,1-4.61,3.09,12.47,12.47,0,0,0-5.93,5.06c-.51,1.11,1.28-1.32,1.57-1.39s2.24-2.72,4.4-3.14a13.47,13.47,0,0,0,5.1-2.81C41.74,151,41.85,150.24,41,150.42Z"></path>
      <path class="cls-11" d="M42.9,151.49a10.84,10.84,0,0,0,4.46,2.82c1.85.59,4.34,3.68,4.67,5s-.7-1-1.3-1.48-2-2.8-3.49-3a10.82,10.82,0,0,1-4.7-2.41C41.75,151.54,42.63,151.63,42.9,151.49Z"></path>
      <path class="cls-11" d="M43.52,164.58a5.81,5.81,0,0,1-3.12,1c-1.27,0-3,1.75-3.37,2.62s.54-.55.95-.82,1.45-1.59,2.39-1.42a5.49,5.49,0,0,0,3.09-.61C44.05,165,43.7,164.78,43.52,164.58Z"></path>
      <path class="cls-11" d="M43.21,155.55s-3.3,1.44-5,2A7.32,7.32,0,0,0,34.26,161c-.91,1.56-.56-.24.31-1.24A7.83,7.83,0,0,1,38,157.19c1.34-.59,3.78-1.12,4.73-2.54S43.21,155.55,43.21,155.55Z"></path>
      <path class="cls-11" d="M44.32,160.36c1.2.51,2,.57,3.3,1.14s2.38,1.93,3.47,3.05-.34-.83-.67-1.19a11.68,11.68,0,0,0-2.72-2.27c-1.45-.61-2.31-.63-3.22-1.69S44.29,160,44.32,160.36Z"></path>
      <polygon class="cls-3" points="0.73 141.17 41.66 158.54 83.2 140.86 82.81 140.75 0.73 141.17"></polygon>
      <ellipse class="cls-1" cx="42.97" cy="141.69" rx="9.59" ry="3.75"></ellipse>
      <ellipse class="cls-12" cx="43.22" cy="142.96" rx="7.91" ry="3.09"></ellipse>
      <path class="cls-13" d="M44.13,142.37a11.93,11.93,0,0,1,.53-2.1c.33-.82,2.05-4,2.05-4s1.2-2.38,1.69-2.47,1.6,2.06,5,2.79c6.87,1.48,11.61-1.26,11.87-4.17a3.18,3.18,0,0,0-1.77-3.44c-.93-.45-.93-1.67-.7-2.56.12-.52,1.05-3-1.5-3.75a12.29,12.29,0,0,0-10.46,2.05c-3.55,2.67-3.77,6-2.92,6.76s-1,2.68-2.89,5.4-1.51,2.73-1.51,2.73a55.71,55.71,0,0,0-2.66-5.84s1.22-.75.94-3.95c-.14-1.6-2.42-5.66-5.7-7s-6.28-1.68-8.68.71c-1.91,1.89.68,3.27-.29,3.54-1.66.47-2.51,1-3,1.89-.9,1.56-.75,4.22,2.07,6s8.14,2.2,9.88,1.78c3.18-.75,3.82-1.8,3.82-1.8s2.57,4.71,3,7.58S44.13,142.37,44.13,142.37Z"></path>
      <path class="cls-13" d="M49.13,134.26c.24.21,2.31,2.73,8,2.7s7.66-3,7.86-3.52a3.5,3.5,0,0,0-1-4.24"></path>
      <path class="cls-14" d="M49.15,134.24a9,9,0,0,0,4.94,2.31,15.34,15.34,0,0,0,5.49-.06,8.69,8.69,0,0,0,4.67-2.5,2.64,2.64,0,0,0,.63-1.1,3.77,3.77,0,0,0,.19-1.29,3.65,3.65,0,0,0-1.14-2.37l0,0a3.51,3.51,0,0,1,1.51,2.38,3.64,3.64,0,0,1-.1,1.47,3.94,3.94,0,0,1-.26.72,3.38,3.38,0,0,1-.42.62,8.23,8.23,0,0,1-5,2.59,15.67,15.67,0,0,1-5.63-.12,9.13,9.13,0,0,1-4.92-2.56Z"></path>
      <path class="cls-13" d="M54.05,123s-5.63,1.67-6.51,6.63a3.32,3.32,0,0,0,.37,1.85,1.55,1.55,0,0,1-.34,1.74S44.23,138,44,138.47"></path>
      <path class="cls-14" d="M54.05,123a10.63,10.63,0,0,0-5.32,3.94A6.32,6.32,0,0,0,47.65,130a3.84,3.84,0,0,0,.47,1.58,1.69,1.69,0,0,1-.44,1.71v0c-.59.89-1.2,1.76-1.82,2.62s-1.24,1.74-1.89,2.6h0c.55-.91,1.13-1.81,1.72-2.7s1.16-1.8,1.77-2.67h0v0a1.43,1.43,0,0,0,.39-1.4,3.83,3.83,0,0,1-.45-1.65,6.45,6.45,0,0,1,1.17-3.21A9.44,9.44,0,0,1,51,124.43a12.44,12.44,0,0,1,3-1.49Z"></path>
      <path class="cls-14" d="M43.56,139.57c-1-1.91-1.87-3.84-2.85-5.72l-.05-.08.06-.09a5.33,5.33,0,0,0,.9-3,6.82,6.82,0,0,0-.82-3.09,9.88,9.88,0,0,0-2-2.57,11,11,0,0,0-2.63-1.91A9.33,9.33,0,0,0,29.91,122a5.13,5.13,0,0,0-2.65,1.76,1.85,1.85,0,0,0-.49,1.47,3.26,3.26,0,0,0,.63,1.5l0,0a3.4,3.4,0,0,1-.68-1.51,2,2,0,0,1,.47-1.56,5,5,0,0,1,2.7-1.86,7.26,7.26,0,0,1,3.31-.06,12,12,0,0,1,3.15,1.09A10.77,10.77,0,0,1,41,127.43a7.18,7.18,0,0,1,.82,3.21,5.54,5.54,0,0,1-1,3.15v0c1,1.89,1.81,3.85,2.71,5.78Z"></path>
      <path class="cls-14" d="M26.29,127.34a3.69,3.69,0,0,0-2.37,3.42A4.68,4.68,0,0,0,26,134.37a9.71,9.71,0,0,0,2,1,17.84,17.84,0,0,0,2.15.77,14,14,0,0,0,2.25.41c.77.1,1.54.18,2.32.25v.05a24.18,24.18,0,0,1-4.65-.37,15.58,15.58,0,0,1-2.22-.73,10.45,10.45,0,0,1-2.09-1,5,5,0,0,1-2.17-4,3.19,3.19,0,0,1,.77-2.17,4.89,4.89,0,0,1,1.93-1.3Z"></path>
      <path class="cls-15" d="M18.76,58.32S5,72.21,11.74,79.69c6.56,7.3,16.93.65,13.16-9.27C21.51,61.52,18.76,58.32,18.76,58.32Z"></path>
      <path class="cls-16" d="M14.22,71.35c.47-1.44,1.54-4.71,2-5.89a31.92,31.92,0,0,1,1.87-3.84s1.31-2.52-2,1.1S10.6,73,11.62,73.38C12.43,73.69,13.75,72.75,14.22,71.35Z"></path>
      <path class="cls-17" d="M21.89,76.15c-.4,1.35-.21,2.61.43,2.8a2.5,2.5,0,0,0,2.5-1.86c.41-1.61-.4-2.92-1-3.06S22.3,74.79,21.89,76.15Z"></path>
      <path class="cls-15" d="M41.67,58.32s-13.74,13.89-7,21.37c6.56,7.3,16.92.65,13.15-9.27C44.43,61.52,41.67,58.32,41.67,58.32Z"></path>
      <path class="cls-16" d="M37.13,71.35c.48-1.44,1.55-4.71,2-5.89A32.47,32.47,0,0,1,41,61.62s1.32-2.52-2,1.1S33.52,73,34.53,73.38C35.34,73.69,36.67,72.75,37.13,71.35Z"></path>
      <path class="cls-17" d="M44.81,76.15c-.4,1.35-.21,2.61.43,2.8a2.49,2.49,0,0,0,2.49-1.86c.41-1.61-.4-2.92-1-3.06S45.21,74.79,44.81,76.15Z"></path>
      <path class="cls-15" d="M64.58,58.32s-13.74,13.89-7,21.37c6.56,7.3,16.92.65,13.15-9.27C67.34,61.52,64.58,58.32,64.58,58.32Z"></path>
      <path class="cls-16" d="M60.05,71.35c.47-1.44,1.54-4.71,2-5.89a31.92,31.92,0,0,1,1.87-3.84s1.31-2.52-2,1.1S56.43,73,57.44,73.38C58.26,73.69,59.58,72.75,60.05,71.35Z"></path>
      <path class="cls-17" d="M67.72,76.15c-.4,1.35-.21,2.61.43,2.8a2.5,2.5,0,0,0,2.5-1.86c.4-1.61-.4-2.92-1-3.06S68.12,74.79,67.72,76.15Z"></path>
      <path class="cls-15" d="M31.78,29.16S18,43.05,24.77,50.53c6.56,7.3,16.92.65,13.15-9.27C34.54,32.36,31.78,29.16,31.78,29.16Z"></path>
      <path class="cls-16" d="M27.25,42.19c.47-1.43,1.54-4.7,2-5.89a31.47,31.47,0,0,1,1.87-3.83s1.31-2.52-2,1.09-5.42,10.27-4.41,10.66C25.46,44.53,26.78,43.6,27.25,42.19Z"></path>
      <path class="cls-17" d="M34.92,47c-.4,1.35-.21,2.61.43,2.8a2.49,2.49,0,0,0,2.5-1.86c.4-1.61-.4-2.92-1-3.06S35.33,45.63,34.92,47Z"></path>
      <path class="cls-15" d="M54.7,29.16S41,43.05,47.69,50.53c6.56,7.3,16.92.65,13.15-9.27C57.45,32.36,54.7,29.16,54.7,29.16Z"></path>
      <path class="cls-16" d="M50.16,42.19c.48-1.43,1.54-4.7,2-5.89A32,32,0,0,1,54,32.47s1.32-2.52-2,1.09-5.42,10.27-4.4,10.66C48.37,44.53,49.69,43.6,50.16,42.19Z"></path>
      <path class="cls-17" d="M57.84,47c-.41,1.35-.21,2.61.42,2.8a2.49,2.49,0,0,0,2.5-1.86c.41-1.61-.4-2.92-1-3.06S58.24,45.63,57.84,47Z"></path>
      <path class="cls-15" d="M44,0S30.26,13.89,37,21.38c6.56,7.29,16.93.65,13.16-9.27C46.75,3.2,44,0,44,0Z"></path>
      <path class="cls-16" d="M39.46,13c.47-1.43,1.54-4.7,2-5.89a30.46,30.46,0,0,1,1.86-3.83s1.31-2.52-2,1.09-5.42,10.28-4.4,10.66C37.67,15.37,39,14.44,39.46,13Z"></path>
      <path class="cls-17" d="M47.13,17.83c-.4,1.36-.21,2.61.43,2.8a2.49,2.49,0,0,0,2.5-1.86c.41-1.61-.4-2.91-1-3S47.54,16.47,47.13,17.83Z"></path>
    </g>
  </g>
</svg>
