<?xml version="1.0" encoding="UTF-8"?>
<svg xmlns="http://www.w3.org/2000/svg" xmlns:xlink="http://www.w3.org/1999/xlink" viewBox="0 0 110.57 146.3">
  <defs>
    <style>.cls-1{fill:none;}.cls-2{fill:#956d4b;}.cls-3{clip-path:url(#clip-path);}.cls-4{fill:url(#Безымянный_градиент_4);}.cls-5{fill:#754120;}.cls-6{fill:#44281c;}.cls-7{fill:#6c3c1d;}.cls-8{fill:#714d31;}.cls-9{fill:#613822;}.cls-10{fill:#7f5637;}.cls-11{fill:#a07850;}.cls-12{fill:#dec97e;}.cls-13{fill:#ceb874;}.cls-14{fill:#8b5b3c;}.cls-15{fill:#75ad40;}.cls-16{fill:#abc552;}.cls-17{fill:#613922;}</style>
    <clipPath id="clip-path">
      <polygon class="cls-1" points="7.92 117.62 57.88 141.14 104.11 117.73 56.05 97.38 7.92 117.62"></polygon>
    </clipPath>
    <linearGradient id="Безымянный_градиент_4" x1="-3827.02" y1="-344.28" x2="-3824.22" y2="-344.28" gradientTransform="matrix(34.36, 0, 0, -34.36, 131478.54, -11708.72)" gradientUnits="userSpaceOnUse">
      <stop offset="0" stop-color="#a17551"></stop>
      <stop offset="0.38" stop-color="#a17551"></stop>
      <stop offset="0.89" stop-color="#7a4928"></stop>
      <stop offset="1" stop-color="#72401f"></stop>
    </linearGradient>
  </defs>
  <g id="Слой_2" data-name="Слой 2">
    <g id="Слой_1-2" data-name="Слой 1">
      <path class="cls-2" d="M57.88,75s9.63,11.3,17.06,11.77,32.81-7.57,32.81-7.57l2.56-26.43L57.88,34.26Z"></path>
      <path class="cls-2" d="M.19,50.88,5.42,85.35S24,88.14,27.25,87.22s18.12-6.51,22.3-6.51S57.88,75,57.88,75V34.26Z"></path>
      <g class="cls-3">
        <rect class="cls-4" x="31.58" y="70.06" width="48.87" height="98.4" transform="translate(-66.08 168.79) rotate(-86.92)"></rect>
      </g>
      <path class="cls-5" d="M7.92,117.62,5.42,85.36s23.69-.47,30.2-3.72S57.88,75,57.88,75l-1.83,22.4Z"></path>
      <path class="cls-6" d="M41.68,87.36a8.52,8.52,0,0,0-2.83-1.67v0S35.08,84.54,33,87.09s-1.7,5.28-.77,5.73a11.08,11.08,0,0,0,1.63.34l.1,0a29.92,29.92,0,0,0,3.5-.8,1.62,1.62,0,0,0,.61-.16c.17,0,.35-.09.65-.19,1.48-.46,1.66-.12,2.69-1a4,4,0,0,0,1.08-2.55l-.21-.5h0l0,0a1,1,0,0,0-.59-.5"></path>
      <path class="cls-6" d="M21.4,90.69a10.94,10.94,0,0,0-4,1.32v0s-4.3,2.7-3.59,6.85,3.66,6.13,4.88,5.6a14.71,14.71,0,0,0,1.71-1.28l0-.14C21.33,102,22,99.85,22.62,99a2.27,2.27,0,0,0,.36-.72c.1-.2.21-.42.37-.79.81-1.81,1.28-1.71,1.29-3.45a5.09,5.09,0,0,0-1.54-3.21,4.27,4.27,0,0,0-.65-.23v0h-.07a1.26,1.26,0,0,0-1,.14"></path>
      <path class="cls-7" d="M57.88,75,56.05,97.37l48.06,20.37,3.64-38.56s-15-1.72-21.48-.8S68.44,82.1,65,80.25A44.84,44.84,0,0,1,57.88,75"></path>
      <path class="cls-6" d="M39.58,98a3.29,3.29,0,0,0-1.25-.31h0a2.31,2.31,0,0,0-2,1.19c-.49,1.18,0,2.17.35,2.23l.65,0,0,0a10.59,10.59,0,0,0,1.23-.69l.21-.13.23-.14c.5-.34.61-.23.89-.68A1.52,1.52,0,0,0,40,98.29l-.13-.16h0Z"></path>
      <path class="cls-6" d="M86.66,88.35a2.27,2.27,0,0,0-.11-.89h0s-.38-1-1.27-1-1.43.5-1.37.78l.2.41h0l.75.63.14.1.14.11c.35.25.31.34.67.41a1.06,1.06,0,0,0,.73-.18l.07-.13h0Z"></path>
      <path class="cls-6" d="M100.09,104.53a10.93,10.93,0,0,0-1.91-3.81h0s-3.31-3.91-7.35-2.6-5.6,4.54-4.89,5.68a14.54,14.54,0,0,0,1.53,1.53h.13c1.19.77,3.39,1.14,4.37,1.62a2.18,2.18,0,0,0,.77.25c.22.08.45.15.84.26,1.94.54,1.9,1,3.64.79a5.15,5.15,0,0,0,3-2,3.27,3.27,0,0,0,.13-.69h0v-.07a1.31,1.31,0,0,0-.28-1"></path>
      <path class="cls-6" d="M74,91.25a8.37,8.37,0,0,0-1.87,2.69v0s-1.4,3.66,1,5.9,5.11,2.08,5.62,1.19a11.22,11.22,0,0,0,.46-1.6l0-.09a27.58,27.58,0,0,0-.52-3.53,1.7,1.7,0,0,0-.11-.61c0-.17-.07-.36-.14-.66-.34-1.5,0-1.66-.81-2.74a3.92,3.92,0,0,0-2.44-1.26l-.51.16h0l0,0a1,1,0,0,0-.54.54"></path>
      <path class="cls-8" d="M74.15,118.63a1.59,1.59,0,0,0,1.57-.42c.54-.7.43-1.43.17-1.54l-.44-.09c-.29,0-.32.69-.33.7Z"></path>
      <path class="cls-9" d="M73.21,118.05s.88.79,1.24.55.8-.47.8-.47l0-.24-1-.32-.57.2Z"></path>
      <path class="cls-10" d="M73.15,117.91c0,.1.12.36.4.27a3.87,3.87,0,0,0,.53-.23l.32-1c.07-.15.15-.19-.25-.06s-.45,0-.72.29a1.07,1.07,0,0,0-.28.69"></path>
      <path class="cls-11" d="M74.08,118a4.37,4.37,0,0,0,.12-.69c0-.31,0-.39.29-.43s.83-.33,1.1-.23.26.09.26.44a1.23,1.23,0,0,1-.38.87.73.73,0,0,1-.76.33,1.73,1.73,0,0,1-.63-.29"></path>
      <path class="cls-8" d="M63.47,112.5s2.39.13,3.24-1.67.26-3.36-.36-3.49a7.46,7.46,0,0,0-1,0c-.65,0-.37,1.67-.39,1.7Z"></path>
      <path class="cls-9" d="M61.12,111.68s2.3,1.32,3,.61,1.53-1.4,1.53-1.4l-.16-.52a7.22,7.22,0,0,0-2.26-.24c-.37.2-1,.62-1.16.69Z"></path>
      <path class="cls-10" d="M60.93,111.4c.11.21.44.74,1,.4a8.38,8.38,0,0,0,1-.75s.19-1.93.26-2.28.23-.49-.58,0-1,.31-1.44,1a2.38,2.38,0,0,0-.28,1.65"></path>
      <path class="cls-11" d="M63,111.05a10.92,10.92,0,0,0,0-1.58c-.09-.7-.15-.88.42-1.09s1.68-1.13,2.33-1,.6.06.77.84a2.89,2.89,0,0,1-.42,2.1,1.59,1.59,0,0,1-1.51,1.06,4,4,0,0,1-1.54-.31"></path>
      <path class="cls-8" d="M53.51,120.27s1.87,1.41,3.54.43,2.05-2.58,1.62-3a7.68,7.68,0,0,0-.83-.53c-.56-.33-1.22,1.15-1.25,1.16Z"></path>
      <path class="cls-9" d="M52.06,118.32s1.14,2.33,2.08,2.13,2-.29,2-.29l.15-.51s-1.29-1.4-1.69-1.44-1.15,0-1.32-.07Z"></path>
      <path class="cls-10" d="M52.06,118c0,.23-.05.83.58.87a10.13,10.13,0,0,0,1.26,0l1.46-1.71c.25-.24.45-.27-.47-.32s-1-.27-1.7,0A2.4,2.4,0,0,0,52.06,118"></path>
      <path class="cls-11" d="M53.9,118.83a10.69,10.69,0,0,0,.83-1.32c.31-.61.35-.79.93-.64s2,0,2.44.44.45.38.17,1.11a2.77,2.77,0,0,1-1.49,1.46,1.54,1.54,0,0,1-1.81,0,3.92,3.92,0,0,1-1.07-1.09"></path>
      <path class="cls-8" d="M49.22,113.83a2.68,2.68,0,0,0,.09-2.73c-.86-1.2-2.1-1.39-2.41-1l-.35.67c-.21.44,1,.85,1,.88Z"></path>
      <path class="cls-9" d="M47.82,115.07s1.7-1,1.49-1.73a15.08,15.08,0,0,1-.35-1.51l-.4-.09s-1,1.08-1,1.4,0,.87,0,1Z"></path>
      <path class="cls-10" d="M47.58,115.09c.18,0,.64,0,.62-.5a6,6,0,0,0-.11-1l-1.4-1c-.2-.17-.23-.32-.21.38s-.15.74.12,1.3a1.8,1.8,0,0,0,1,.78"></path>
      <path class="cls-11" d="M48.09,113.63a7.93,7.93,0,0,0-1.06-.54c-.48-.2-.62-.22-.55-.68s-.12-1.5.18-1.89.26-.37.83-.19a2.12,2.12,0,0,1,1.22,1,1.18,1.18,0,0,1,.14,1.38,3,3,0,0,1-.76.89"></path>
      <path class="cls-8" d="M40.75,115.84a1.15,1.15,0,0,0,.39-1.11c-.21-.61-.7-.85-.87-.74l-.23.23.29.49Z"></path>
      <path class="cls-9" d="M40,116.18s.84-.21.84-.53a5.75,5.75,0,0,1,0-.67l-.16-.08-.58.44-.12.43Z"></path>
      <path class="cls-10" d="M39.91,116.16l.32-.13.08-.41-.45-.6c-.06-.09-.06-.16-.14.13s-.15.29-.12.56a.8.8,0,0,0,.31.45"></path>
      <path class="cls-11" d="M40.31,115.62l-.37-.36-.15-.35.32-.76.37,0a.91.91,0,0,1,.37.59.51.51,0,0,1-.11.59Z"></path>
      <path class="cls-8" d="M38.15,120.52s1.64-2.64.14-4.73S34.63,113.4,34.1,114a8.24,8.24,0,0,0-.6,1.17c-.37.77,1.66,1.45,1.69,1.51Z"></path>
      <path class="cls-9" d="M35.75,122.67s2.94-1.8,2.57-3a26.06,26.06,0,0,1-.64-2.61L37,116.9s-1.69,1.88-1.69,2.42.08,1.52.06,1.75Z"></path>
      <path class="cls-10" d="M35.32,122.71c.31,0,1.1,0,1.08-.87a11.34,11.34,0,0,0-.2-1.66s-2.08-1.42-2.43-1.72-.41-.56-.37.65-.25,1.29.22,2.25a3.11,3.11,0,0,0,1.7,1.35"></path>
      <path class="cls-11" d="M36.2,120.18a14,14,0,0,0-1.83-.94c-.85-.33-1.09-.36-1-1.15s-.22-2.61.29-3.28.45-.64,1.44-.35a3.69,3.69,0,0,1,2.12,1.78,2.09,2.09,0,0,1,.28,2.39,5.3,5.3,0,0,1-1.32,1.55"></path>
      <path class="cls-12" d="M46.43,84.58c0,1.1,0,6.32,1.92,4.4s4.13-2.75,4.68-.83.55,1.1,2.75.55,2.2,2.75,4.68,1.38,2.75-1.65,2.75-3.58,2.2-3.57,2.48-5a5.23,5.23,0,0,0-1.38-5c-1.65-1.65-.82-5.78-2.2-6.88s-2.75-.28-5-.28a9.71,9.71,0,0,1-4.4-1.37s-4.68.55-5,1.92-.55,3.58-2.75,4.41.83,4.12,0,6S46.43,84.58,46.43,84.58Z"></path>
      <path class="cls-13" d="M64.31,76.6a5.15,5.15,0,0,1-1.09-2.85,10.5,10.5,0,0,1-1.09,1.51c-.72,1.09-1.45,4.62-3,6.45a14.34,14.34,0,0,1-3.55,2.88c-1.54.91-3.71.94-4.9,1.45-.56.32-1.1.62-1.7.89a21.63,21.63,0,0,1-2.31.86c.23,1.27.71,2.18,1.7,1.19,1.93-1.93,4.13-2.75,4.68-.83s.55,1.1,2.75.55,2.2,2.75,4.68,1.38,2.75-1.65,2.75-3.58,2.2-3.57,2.48-5A5.23,5.23,0,0,0,64.31,76.6Z"></path>
      <path class="cls-13" d="M63,86.47a17.5,17.5,0,0,1,2.58,9.21,37.45,37.45,0,0,1-1.21,9.21c-.68,3-1.44,5.84-1.89,8.77a25.3,25.3,0,0,0-.12,8.85.15.15,0,0,1-.12.17.15.15,0,0,1-.17-.09,25,25,0,0,1-1-9.08c.18-3.06.67-6.08,1.06-9a59.11,59.11,0,0,0,.59-8.73A20.53,20.53,0,0,0,61,87.57h0a1.13,1.13,0,0,1,2-1.09Z"></path>
      <path class="cls-13" d="M64.13,93.33a8.24,8.24,0,0,1-3.42.55c-1.11,0-2.17-.16-3.23-.23a9.59,9.59,0,0,0-3.11.24,4.37,4.37,0,0,0-2.58,1.69,4.58,4.58,0,0,1,2.47-2,10.17,10.17,0,0,1,3.23-.62c1.09,0,2.16,0,3.19-.13A6.94,6.94,0,0,0,63.5,92Z"></path>
      <path class="cls-13" d="M64.32,97.39a8.14,8.14,0,0,1-5.66,2.17,21.11,21.11,0,0,0-3-.07A2.86,2.86,0,0,0,53.34,101a3,3,0,0,1,2.32-1.74,20.17,20.17,0,0,1,3-.15,7.55,7.55,0,0,0,5-2.36Z"></path>
      <path class="cls-13" d="M62.88,103.46a21.16,21.16,0,0,0-4.16,1.3,6.63,6.63,0,0,0-3.22,2.83,6.81,6.81,0,0,1,3-3.18,21.3,21.3,0,0,1,4.14-1.72Z"></path>
      <path class="cls-13" d="M64.85,91.85a3.46,3.46,0,0,0,1.83.68c.74.1,1.53.09,2.37.25A4.64,4.64,0,0,1,71.25,94a2.74,2.74,0,0,1,.92,2.17A2.57,2.57,0,0,0,71,94.27a4.11,4.11,0,0,0-2-.71c-.72,0-1.5.08-2.33.09A4.75,4.75,0,0,1,64,93Z"></path>
      <path class="cls-13" d="M64.83,96.1a12.16,12.16,0,0,0,8.6,4.08A12.8,12.8,0,0,1,63.92,97Z"></path>
      <path class="cls-13" d="M64.3,101.66a8.89,8.89,0,0,1,3.36,3.71,21.94,21.94,0,0,1,.84,2.29,3.54,3.54,0,0,0,1.33,1.93,3.78,3.78,0,0,1-1.59-1.82,22.42,22.42,0,0,0-1.06-2.14,8,8,0,0,0-3.4-3Z"></path>
      <path class="cls-13" d="M63.14,107.52a18,18,0,0,0,1.2,3.8,16.1,16.1,0,0,0,.89,1.82,6.85,6.85,0,0,0,1.21,1.62A6.89,6.89,0,0,1,65,113.27a17.65,17.65,0,0,1-1.11-1.74,18.81,18.81,0,0,1-1.7-3.82Z"></path>
      <polygon class="cls-14" points="0 51.19 57.93 76.7 110.57 53.17 57.93 33.59 0 51.19"></polygon>
      <path class="cls-15" d="M49.54,22.59a18.2,18.2,0,0,0-8,.63c-1.82.66-4,1.63-6.71,2.68s-4,4.6-4,4.6,4.17.84,6.85-.64,5.58-4.17,7.13-4.59A23.68,23.68,0,0,0,49.54,22.59Z"></path>
      <path class="cls-15" d="M58,24.11s6.71-.73,10.18.64,7.12,3.72,9,8.49-2.67,2.42-5.26.24-6.22-3.55-6.46-5S58.93,24.11,58,24.11Z"></path>
      <path class="cls-15" d="M54.36,14.57A7.61,7.61,0,0,0,56.3,9.3c0-3.4.33-7.37-.24-8.91s-1.78,1.94-2.19,3.16-2.59,6.08-.57,10.94C53.3,14.49,53.77,15.53,54.36,14.57Z"></path>
      <path class="cls-16" d="M54.3,14.62c-.5,7,.38,14.08,1.12,21.14s1.41,14.26.38,21.5l-2.39-.38c1.23-6.83.86-13.92.37-21s-1.11-14.23-.35-21.36Z"></path>
      <path class="cls-16" d="M53.21,26.12a5.76,5.76,0,0,1,5.24-2.26,16.78,16.78,0,0,1,2.84.43A26.64,26.64,0,0,1,64,25a21.72,21.72,0,0,1,5.13,2.43,15.45,15.45,0,0,1,4.09,3.89,15.27,15.27,0,0,0-4.18-3.75,22,22,0,0,0-5.14-2.26,25.42,25.42,0,0,0-2.74-.66,16.24,16.24,0,0,0-2.76-.33,6.68,6.68,0,0,0-2.67.46,4.21,4.21,0,0,0-2,1.65Z"></path>
      <path class="cls-16" d="M53.34,23.22a16.36,16.36,0,0,0-4.73-.46,18.91,18.91,0,0,0-4.69.86A35.12,35.12,0,0,0,35.34,28a35.44,35.44,0,0,1,8.49-4.61,19.71,19.71,0,0,1,4.76-1,17.41,17.41,0,0,1,4.88.33Z"></path>
      <path class="cls-8" d="M49.53,61.84a1.1,1.1,0,0,0-1.07-.39c-.59.18-.83.65-.72.81a1.13,1.13,0,0,0,.22.23c.14.14.46-.27.47-.27Z"></path>
      <path class="cls-17" d="M49.83,62.55s-.18-.81-.49-.81-.64-.06-.64-.06l-.09.15s.3.52.43.57.35.09.4.12A3.14,3.14,0,0,0,49.83,62.55Z"></path>
      <path class="cls-10" d="M49.81,62.65c0-.07.08-.25-.12-.31a2.21,2.21,0,0,0-.39-.08s-.48.36-.58.42-.16,0,.12.13.28.16.53.13A.77.77,0,0,0,49.81,62.65Z"></path>
      <path class="cls-11" d="M49.3,62.26a4.13,4.13,0,0,0-.35.34c-.14.17-.17.22-.34.14s-.61-.15-.73-.32-.11-.15,0-.35a.89.89,0,0,1,.57-.35.51.51,0,0,1,.57.12A1.28,1.28,0,0,1,49.3,62.26Z"></path>
      <path class="cls-8" d="M47.1,48.16a1.64,1.64,0,0,0-1.65-.24c-.79.44-1,1.19-.79,1.4a2.42,2.42,0,0,0,.39.25c.25.16.57-.52.59-.53Z"></path>
      <path class="cls-17" d="M47.76,49.09s-.51-1.1-.95-1a9.23,9.23,0,0,1-.94.11l-.08.24s.59.67.78.69.53,0,.61,0A3.83,3.83,0,0,0,47.76,49.09Z"></path>
      <path class="cls-10" d="M47.76,49.24c0-.11,0-.39-.27-.41a3.35,3.35,0,0,0-.59,0s-.58.67-.7.78-.21.12.22.16.44.14.79,0A1.1,1.1,0,0,0,47.76,49.24Z"></path>
      <path class="cls-11" d="M46.9,48.83a5.07,5.07,0,0,0-.4.6c-.15.29-.17.37-.44.3s-.93,0-1.14-.23-.21-.19-.06-.52a1.24,1.24,0,0,1,.71-.67.7.7,0,0,1,.84,0A1.81,1.81,0,0,1,46.9,48.83Z"></path>
      <path class="cls-8" d="M43.83,53.18s-3.41-1.7-5.79.37-2.5,4.74-1.68,5.32a10.81,10.81,0,0,0,1.49.6c1,.36,1.59-2.2,1.65-2.24S43.83,53.18,43.83,53.18Z"></path>
      <path class="cls-17" d="M46.74,55.87s-2.53-3.39-4-2.8-3.12,1.08-3.12,1.08l-.1.86S42,56.85,42.7,56.8s1.84-.27,2.13-.28A14.39,14.39,0,0,0,46.74,55.87Z"></path>
      <path class="cls-10" d="M46.83,56.38c0-.38-.17-1.34-1.19-1.21a14.13,14.13,0,0,0-2,.43s-1.49,2.71-1.82,3.17-.64.57.84.37,1.6.16,2.72-.52A3.83,3.83,0,0,0,46.83,56.38Z"></path>
      <path class="cls-11" d="M43.64,55.6A16.58,16.58,0,0,0,42.71,58c-.31,1.07-.32,1.37-1.3,1.32s-3.16.57-4,0-.83-.47-.59-1.72a4.54,4.54,0,0,1,1.93-2.79,2.55,2.55,0,0,1,2.89-.61A6.55,6.55,0,0,1,43.64,55.6Z"></path>
      <path class="cls-8" d="M55.61,53.89s-2.86-1.68-5,0-2.45,4-1.78,4.51A9.38,9.38,0,0,0,50,59c.83.37,1.51-1.81,1.57-1.84S55.61,53.89,55.61,53.89Z"></path>
      <path class="cls-17" d="M58,56.4s-2-3.09-3.28-2.66a28.23,28.23,0,0,1-2.77.74l-.14.74s2,1.76,2.63,1.75,1.61-.13,1.86-.11A13.67,13.67,0,0,0,58,56.4Z"></path>
      <path class="cls-10" d="M58,56.85c0-.32-.07-1.17-1-1.12A13.78,13.78,0,0,0,55.3,56s-1.46,2.26-1.78,2.64-.58.46.71.38,1.38.23,2.4-.29A3.33,3.33,0,0,0,58,56.85Z"></path>
      <path class="cls-11" d="M55.3,56a15.51,15.51,0,0,0-1,2c-.33.91-.36,1.16-1.2,1.06s-2.78.31-3.51-.22-.69-.46-.41-1.53A4,4,0,0,1,51.07,55a2.21,2.21,0,0,1,2.54-.35A5.67,5.67,0,0,1,55.3,56Z"></path>
      <path class="cls-8" d="M51.33,50.79s-2.82-2.17-5.38-.7-3.15,3.9-2.5,4.57a9.91,9.91,0,0,0,1.26.82c.83.51,1.86-1.73,1.92-1.75S51.33,50.79,51.33,50.79Z"></path>
      <path class="cls-17" d="M53.5,53.78s-1.7-3.56-3.13-3.27-3,.42-3,.42l-.25.77s2,2.14,2.56,2.21,1.74.08,2,.13A13.57,13.57,0,0,0,53.5,53.78Z"></path>
      <path class="cls-10" d="M53.5,54.27c0-.35.09-1.26-.87-1.32a14.11,14.11,0,0,0-1.92,0s-1.85,2.21-2.24,2.57-.69.41.71.5,1.44.43,2.59,0A3.52,3.52,0,0,0,53.5,54.27Z"></path>
      <path class="cls-11" d="M50.71,53a17.17,17.17,0,0,0-1.28,2c-.47.93-.54,1.2-1.42,1s-3,0-3.71-.71-.68-.59-.23-1.68a4.22,4.22,0,0,1,2.28-2.21,2.35,2.35,0,0,1,2.75,0A6,6,0,0,1,50.71,53Z"></path>
      <path class="cls-8" d="M65.36,60a1.7,1.7,0,0,0,1.56-.77c.42-.85.15-1.6-.15-1.67a2.67,2.67,0,0,0-.48,0c-.31,0-.19.79-.2.81S65.36,60,65.36,60Z"></path>
      <path class="cls-17" d="M64.24,59.57s1.09.65,1.42.32a9.83,9.83,0,0,1,.75-.66L66.33,59a3.53,3.53,0,0,0-1.08-.13c-.17.09-.48.29-.56.32A3.9,3.9,0,0,0,64.24,59.57Z"></path>
      <path class="cls-10" d="M64.15,59.44c.06.1.21.35.47.2a3.78,3.78,0,0,0,.51-.35s.1-.92.14-1.09.11-.23-.28,0-.46.15-.69.46A1.13,1.13,0,0,0,64.15,59.44Z"></path>
      <path class="cls-11" d="M65.13,59.29a4.83,4.83,0,0,0,0-.76c0-.33-.07-.42.21-.52s.81-.52,1.11-.47.29,0,.37.41a1.4,1.4,0,0,1-.22,1,.76.76,0,0,1-.73.5A2,2,0,0,1,65.13,59.29Z"></path>
      <path class="cls-8" d="M38.53,60.59a2.18,2.18,0,0,0,2.06-.85c.61-1,.33-2,0-2.14a5.11,5.11,0,0,0-.62,0c-.4,0-.31,1-.32,1S38.53,60.59,38.53,60.59Z"></path>
      <path class="cls-17" d="M37.15,60s1.33.92,1.78.53a12.13,12.13,0,0,1,1-.78l-.07-.32a4.2,4.2,0,0,0-1.36-.26c-.23.1-.64.32-.74.36A5.26,5.26,0,0,0,37.15,60Z"></path>
      <path class="cls-10" d="M37.05,59.79c.06.14.23.47.58.3s.68-.4.68-.4.2-1.17.27-1.38.16-.28-.35,0-.6.14-.93.52A1.48,1.48,0,0,0,37.05,59.79Z"></path>
      <path class="cls-11" d="M38.31,59.69a6.66,6.66,0,0,0,0-1c0-.43-.06-.54.31-.64s1.07-.6,1.46-.5.36.07.42.55a1.7,1.7,0,0,1-.36,1.25.94.94,0,0,1-1,.57A2.49,2.49,0,0,1,38.31,59.69Z"></path>
      <path class="cls-8" d="M48,55.21a1.26,1.26,0,0,0,1.27.22c.62-.33.79-.9.64-1.07a3.43,3.43,0,0,0-.29-.2c-.2-.13-.46.39-.48.39Z"></path>
      <path class="cls-17" d="M47.48,54.47s.37.87.71.81.73-.07.73-.07L49,55s-.44-.53-.59-.55l-.47,0A2.58,2.58,0,0,0,47.48,54.47Z"></path>
      <path class="cls-10" d="M47.48,54.36c0,.08,0,.29.2.32a3.87,3.87,0,0,0,.45,0s.47-.51.56-.59.17-.09-.16-.12-.34-.12-.62,0A.85.85,0,0,0,47.48,54.36Z"></path>
      <path class="cls-11" d="M48.13,54.69a3.11,3.11,0,0,0,.33-.46c.12-.21.14-.28.35-.22s.71,0,.87.21.16.15,0,.4a1,1,0,0,1-.56.51.58.58,0,0,1-.66,0A1.49,1.49,0,0,1,48.13,54.69Z"></path>
      <path class="cls-8" d="M63.93,53.79s-2.65-2-5-.54-2.84,3.66-2.23,4.27a9.34,9.34,0,0,0,1.18.73c.79.46,1.69-1.63,1.74-1.65S63.93,53.79,63.93,53.79Z"></path>
      <path class="cls-17" d="M66,56.52s-1.65-3.26-3-3-2.82.44-2.82.44l-.21.72s1.84,1.95,2.41,2,1.61,0,1.85.08A13,13,0,0,0,66,56.52Z"></path>
      <path class="cls-10" d="M66,57c0-.33.06-1.17-.83-1.21a12,12,0,0,0-1.77.07s-1.67,2.08-2,2.42-.63.39.66.45,1.34.37,2.39,0A3.29,3.29,0,0,0,66,57Z"></path>
      <path class="cls-11" d="M63.41,55.83a15.48,15.48,0,0,0-1.15,1.86c-.42.87-.47,1.11-1.3.93s-2.78,0-3.44-.59-.64-.53-.25-1.55a4,4,0,0,1,2.07-2.09,2.2,2.2,0,0,1,2.55-.08A5.56,5.56,0,0,1,63.41,55.83Z"></path>
      <path class="cls-8" d="M44.68,58.2s1.92,1.08,3.35-.05,1.58-2.67,1.13-3a7.17,7.17,0,0,0-.85-.39c-.56-.24-1,1.22-1,1.24Z"></path>
      <path class="cls-17" d="M43.08,56.56s1.36,2,2.21,1.73,1.83-.53,1.83-.53l.08-.49s-1.38-1.14-1.76-1.13-1.07.11-1.24.1A8,8,0,0,0,43.08,56.56Z"></path>
      <path class="cls-10" d="M43,56.26c0,.22.07.79.66.74a8.92,8.92,0,0,0,1.17-.19S45.8,55.29,46,55s.38-.31-.48-.24-.92-.14-1.58.22A2.23,2.23,0,0,0,43,56.26Z"></path>
      <path class="cls-11" d="M44.86,56.81a9.26,9.26,0,0,0,.6-1.33c.21-.61.23-.78.79-.73s1.84-.24,2.33.11.47.29.3,1a2.62,2.62,0,0,1-1.2,1.56,1.47,1.47,0,0,1-1.69.27A3.68,3.68,0,0,1,44.86,56.81Z"></path>
    </g>
  </g>
</svg>
