<?xml version="1.0" encoding="UTF-8"?>
<svg xmlns="http://www.w3.org/2000/svg" xmlns:xlink="http://www.w3.org/1999/xlink" viewBox="0 0 110.12 112.04">
  <defs>
    <style>.cls-1{fill:none;}.cls-2{fill:#956d4b;}.cls-3{clip-path:url(#clip-path);}.cls-4{fill:url(#Безымянный_градиент_2);}.cls-5{fill:#754120;}.cls-6{fill:#44281c;}.cls-7{fill:#6c3c1d;}.cls-8{fill:#714d31;}.cls-9{fill:#613822;}.cls-10{fill:#7f5637;}.cls-11{fill:#a07850;}.cls-12{fill:#8b5b3c;}.cls-13{fill:#613922;}.cls-14{fill:#bd9c69;}.cls-15{fill:#d3cabf;}.cls-16{fill:url(#Безымянный_градиент_5);}.cls-17{fill:#ce6426;}</style>
    <clipPath id="clip-path">
      <polygon class="cls-1" points="7.72 83.36 57.69 106.88 103.91 83.47 55.86 63.11 7.72 83.36"></polygon>
    </clipPath>
    <linearGradient id="Безымянный_градиент_2" x1="-2221.29" y1="-43.47" x2="-2218.49" y2="-43.47" gradientTransform="matrix(34.36, 0, 0, -34.36, 76311.29, -1408.38)" gradientUnits="userSpaceOnUse">
      <stop offset="0" stop-color="#a17551"></stop>
      <stop offset="0.38" stop-color="#a17551"></stop>
      <stop offset="0.89" stop-color="#7a4928"></stop>
      <stop offset="1" stop-color="#72401f"></stop>
    </linearGradient>
    <linearGradient id="Безымянный_градиент_5" x1="60.32" y1="45.98" x2="71.39" y2="55.15" gradientUnits="userSpaceOnUse">
      <stop offset="0" stop-color="#d3e0a7"></stop>
      <stop offset="1" stop-color="#4d8c3f"></stop>
    </linearGradient>
  </defs>
  <g id="Слой_2" data-name="Слой 2">
    <g id="Слой_2-2" data-name="Слой 2">
      <g id="Слой_1-2" data-name="Слой 1">
        <path class="cls-2" d="M57.69,40.72S67.31,52,74.75,52.49s32.81-7.57,32.81-7.57l2.56-26.43L57.69,0Z"></path>
        <path class="cls-2" d="M0,16.62,5.23,51.09S23.81,53.88,27.06,53s18.12-6.51,22.29-6.51,8.34-5.73,8.34-5.73V0Z"></path>
        <g class="cls-3">
          <rect class="cls-4" x="31.38" y="35.8" width="48.87" height="98.4" transform="translate(-32.05 136.17) rotate(-86.92)"></rect>
        </g>
        <path class="cls-5" d="M7.72,83.36,5.23,51.1s23.69-.47,30.19-3.72,22.27-6.66,22.27-6.66l-1.83,22.4Z"></path>
        <path class="cls-6" d="M41.49,53.1a8.56,8.56,0,0,0-2.84-1.67l0,0s-3.79-1.13-5.85,1.41-1.71,5.29-.77,5.74a12.57,12.57,0,0,0,1.63.34l.09,0a30.11,30.11,0,0,0,3.51-.8,1.56,1.56,0,0,0,.6-.16,6.26,6.26,0,0,0,.65-.19c1.49-.46,1.67-.12,2.69-1a4,4,0,0,0,1.09-2.55l-.21-.5h0l0,0a1,1,0,0,0-.58-.5"></path>
        <path class="cls-6" d="M21.2,56.43a10.77,10.77,0,0,0-4,1.32v0s-4.3,2.7-3.59,6.85,3.66,6.13,4.88,5.6a14.71,14.71,0,0,0,1.71-1.28l0-.14c.92-1,1.59-3.16,2.21-4a2,2,0,0,0,.35-.72c.11-.2.21-.42.38-.79.8-1.81,1.28-1.71,1.29-3.45a5.09,5.09,0,0,0-1.54-3.21,3.29,3.29,0,0,0-.66-.23v0h-.08a1.27,1.27,0,0,0-1,.14"></path>
        <path class="cls-7" d="M57.69,40.72,55.86,63.11l48.06,20.37,3.64-38.56s-15-1.72-21.48-.8S68.24,47.84,64.84,46a44.41,44.41,0,0,1-7.15-5.26"></path>
        <path class="cls-6" d="M39.39,63.73a3.29,3.29,0,0,0-1.26-.31h0a2.31,2.31,0,0,0-2,1.18c-.49,1.19-.05,2.18.35,2.24l.65,0,0,0a10.59,10.59,0,0,0,1.23-.69l.21-.13.22-.14c.51-.34.61-.24.9-.68A1.59,1.59,0,0,0,39.81,64l-.13-.16h0Z"></path>
        <path class="cls-6" d="M86.47,54.09a2.27,2.27,0,0,0-.11-.89h0s-.38-1-1.27-1-1.43.5-1.38.78l.2.4,0,0,.75.63.13.1.15.11c.35.25.3.34.66.41a1.08,1.08,0,0,0,.74-.18l.07-.13h0Z"></path>
        <path class="cls-6" d="M99.89,70.27A10.91,10.91,0,0,0,98,66.46l0,0s-3.32-3.9-7.36-2.59-5.59,4.54-4.88,5.68a15.32,15.32,0,0,0,1.52,1.53h.14c1.19.77,3.39,1.14,4.37,1.62a2.18,2.18,0,0,0,.77.25c.22.08.45.15.84.26,1.93.54,1.9,1,3.64.79a5.15,5.15,0,0,0,3-2,4.06,4.06,0,0,0,.13-.69h0l0-.07a1.27,1.27,0,0,0-.28-1"></path>
        <path class="cls-6" d="M73.78,57a8.44,8.44,0,0,0-1.87,2.68h0s-1.4,3.66,1,5.89,5.11,2.09,5.62,1.19a12.49,12.49,0,0,0,.46-1.59l0-.09a27.58,27.58,0,0,0-.52-3.53,1.78,1.78,0,0,0-.12-.62c0-.16-.07-.35-.13-.65-.35-1.5,0-1.66-.81-2.74a3.94,3.94,0,0,0-2.44-1.26l-.51.16h0l0,0a1,1,0,0,0-.54.54"></path>
        <path class="cls-8" d="M74,84.37A1.59,1.59,0,0,0,75.53,84c.54-.7.43-1.43.17-1.55l-.44-.08c-.29,0-.32.69-.33.7Z"></path>
        <path class="cls-9" d="M73,83.79s.87.79,1.23.55.8-.47.8-.47l0-.24-1-.32-.56.19Z"></path>
        <path class="cls-10" d="M73,83.65c0,.1.12.36.4.27a4.1,4.1,0,0,0,.52-.23l.33-1c.06-.15.14-.19-.25-.06s-.45,0-.72.29a1.07,1.07,0,0,0-.28.69"></path>
        <path class="cls-11" d="M73.88,83.69A5.25,5.25,0,0,0,74,83c0-.31,0-.39.28-.43s.84-.33,1.11-.23.26.09.26.44a1.24,1.24,0,0,1-.39.87.68.68,0,0,1-.75.32,1.69,1.69,0,0,1-.64-.28"></path>
        <path class="cls-8" d="M63.28,78.24s2.39.13,3.24-1.67.26-3.36-.36-3.49a7.39,7.39,0,0,0-1,0c-.66,0-.37,1.67-.39,1.7Z"></path>
        <path class="cls-9" d="M60.93,77.42s2.3,1.32,3,.61,1.53-1.4,1.53-1.4l-.15-.52A7.25,7.25,0,0,0,63,75.87c-.36.19-1,.61-1.16.69Z"></path>
        <path class="cls-10" d="M60.74,77.14c.11.21.43.74,1,.4a8.38,8.38,0,0,0,1.05-.75s.18-1.93.26-2.28.22-.49-.58,0-1,.31-1.44,1a2.38,2.38,0,0,0-.28,1.65"></path>
        <path class="cls-11" d="M62.78,76.79a10.92,10.92,0,0,0-.05-1.58c-.09-.7-.16-.88.42-1.09s1.68-1.13,2.32-1,.6.07.77.85A2.85,2.85,0,0,1,65.83,76a1.59,1.59,0,0,1-1.52,1.07,4,4,0,0,1-1.53-.31"></path>
        <path class="cls-8" d="M53.32,86s1.86,1.41,3.54.43,2-2.58,1.62-3a6,6,0,0,0-.84-.53c-.55-.33-1.21,1.15-1.25,1.16Z"></path>
        <path class="cls-9" d="M51.86,84.05s1.15,2.33,2.08,2.14,2-.29,2-.29l.16-.51S54.82,84,54.41,84s-1.14,0-1.32-.07Z"></path>
        <path class="cls-10" d="M51.86,83.73c0,.23,0,.83.59.87a10.13,10.13,0,0,0,1.26,0l1.46-1.71c.25-.24.45-.27-.47-.32s-1-.27-1.7,0a2.39,2.39,0,0,0-1.14,1.19"></path>
        <path class="cls-11" d="M53.71,84.57a10.69,10.69,0,0,0,.83-1.32c.3-.61.35-.79.93-.64s2,0,2.44.44.45.38.17,1.1a2.78,2.78,0,0,1-1.49,1.47,1.54,1.54,0,0,1-1.81,0,4.06,4.06,0,0,1-1.07-1.09"></path>
        <path class="cls-8" d="M49,79.57a2.67,2.67,0,0,0,.1-2.73c-.86-1.21-2.11-1.39-2.41-1l-.35.67c-.22.44,1,.85,1,.88Z"></path>
        <path class="cls-9" d="M47.63,80.81s1.7-1,1.49-1.73a15.08,15.08,0,0,1-.35-1.51l-.4-.09s-1,1.08-1,1.4,0,.87,0,1Z"></path>
        <path class="cls-10" d="M47.39,80.83c.18,0,.63,0,.62-.5a7.72,7.72,0,0,0-.11-1l-1.4-1c-.2-.18-.23-.32-.21.38s-.15.74.12,1.29a1.79,1.79,0,0,0,1,.79"></path>
        <path class="cls-11" d="M47.9,79.37a7.93,7.93,0,0,0-1.06-.54c-.49-.2-.62-.22-.55-.68s-.13-1.51.17-1.89.26-.37.84-.2a2.16,2.16,0,0,1,1.21,1,1.19,1.19,0,0,1,.15,1.38,3,3,0,0,1-.76.89"></path>
        <path class="cls-8" d="M40.56,81.58a1.15,1.15,0,0,0,.38-1.11c-.2-.61-.69-.85-.86-.74l-.23.23.29.49Z"></path>
        <path class="cls-9" d="M39.82,81.92s.83-.21.84-.53,0-.67,0-.67l-.15-.09-.58.45-.12.43Z"></path>
        <path class="cls-10" d="M39.71,81.9l.33-.13.08-.41-.46-.6c-.06-.09,0-.16-.13.13s-.16.29-.12.55a.81.81,0,0,0,.3.46"></path>
        <path class="cls-11" d="M40.12,81.36,39.75,81l-.15-.35.32-.76.37,0a.92.92,0,0,1,.37.58.5.5,0,0,1-.12.59Z"></path>
        <path class="cls-8" d="M38,86.26s1.64-2.64.13-4.73-3.65-2.39-4.18-1.77a8.24,8.24,0,0,0-.6,1.17c-.37.77,1.66,1.45,1.69,1.5Z"></path>
        <path class="cls-9" d="M35.56,88.41s2.94-1.8,2.56-3-.63-2.61-.63-2.61l-.69-.15s-1.69,1.88-1.69,2.42.08,1.52.06,1.75Z"></path>
        <path class="cls-10" d="M35.13,88.45c.31,0,1.1,0,1.07-.87A12.17,12.17,0,0,0,36,85.92s-2.09-1.42-2.44-1.72-.41-.56-.36.65-.25,1.29.21,2.25a3.15,3.15,0,0,0,1.71,1.35"></path>
        <path class="cls-11" d="M36,85.91A14.22,14.22,0,0,0,34.17,85c-.85-.33-1.08-.36-1-1.15s-.23-2.61.29-3.28.45-.64,1.44-.35A3.69,3.69,0,0,1,37.05,82a2.07,2.07,0,0,1,.27,2.39A5.23,5.23,0,0,1,36,85.91"></path>
        <polygon class="cls-12" points="0 16.62 57.69 40.72 110.12 18.49 57.69 0 0 16.62"></polygon>
        <path class="cls-8" d="M62,18.49A1.44,1.44,0,0,0,60.64,18c-.77.23-1.07.84-.94,1.06a3.54,3.54,0,0,0,.28.29c.2.19.6-.35.62-.35Z"></path>
        <path class="cls-13" d="M62.42,19.41s-.24-1.05-.64-1.06-.83-.07-.83-.07l-.11.19s.39.68.54.74l.53.15A3.62,3.62,0,0,0,62.42,19.41Z"></path>
        <path class="cls-10" d="M62.39,19.54c0-.09.1-.33-.15-.4a3.06,3.06,0,0,0-.51-.11l-.75.55c-.13.07-.21.06.15.17s.36.2.69.16A1,1,0,0,0,62.39,19.54Z"></path>
        <path class="cls-11" d="M61.73,19a3.93,3.93,0,0,0-.46.45c-.18.22-.22.28-.44.17s-.79-.19-.94-.41-.14-.2,0-.46a1.19,1.19,0,0,1,.74-.45.64.64,0,0,1,.73.16A1.8,1.8,0,0,1,61.73,19Z"></path>
        <path class="cls-8" d="M42.41,11.36a2.13,2.13,0,0,0-2.14-.31c-1,.58-1.28,1.54-1,1.81a3.6,3.6,0,0,0,.5.33c.33.21.75-.68.78-.68Z"></path>
        <path class="cls-13" d="M43.26,12.56S42.6,11.13,42,11.24a11.13,11.13,0,0,1-1.22.15l-.11.31s.77.86,1,.89.7,0,.8.07A5.5,5.5,0,0,0,43.26,12.56Z"></path>
        <path class="cls-10" d="M43.26,12.76c0-.14,0-.51-.35-.53a5.52,5.52,0,0,0-.76,0s-.75.87-.91,1-.27.16.28.21.57.17,1,0A1.46,1.46,0,0,0,43.26,12.76Z"></path>
        <path class="cls-11" d="M42.15,12.23a6.31,6.31,0,0,0-.52.78c-.19.37-.22.48-.57.38s-1.2,0-1.48-.3-.27-.23-.08-.67a1.71,1.71,0,0,1,.92-.87.94.94,0,0,1,1.1,0A2.48,2.48,0,0,1,42.15,12.23Z"></path>
        <path class="cls-8" d="M56.26,8.53s-4.42-2.21-7.5.48-3.24,6.15-2.18,6.89a13.59,13.59,0,0,0,1.93.78c1.28.47,2.07-2.85,2.14-2.9S56.26,8.53,56.26,8.53Z"></path>
        <path class="cls-13" d="M60,12s-3.28-4.39-5.14-3.62-4,1.39-4,1.39l-.12,1.12s3.22,2.39,4.07,2.32,2.39-.35,2.76-.36A18.42,18.42,0,0,0,60,12Z"></path>
        <path class="cls-10" d="M60.16,12.68c0-.49-.23-1.74-1.55-1.57a19,19,0,0,0-2.6.55s-1.93,3.51-2.36,4.11-.82.74,1.1.49,2.07.2,3.52-.68A5,5,0,0,0,60.16,12.68Z"></path>
        <path class="cls-11" d="M56,11.66a21.91,21.91,0,0,0-1.2,3.05c-.4,1.39-.42,1.77-1.68,1.71s-4.11.75-5.24,0-1.08-.62-.76-2.23,1-2.37,2.5-3.62a3.28,3.28,0,0,1,3.74-.78A8.36,8.36,0,0,1,56,11.66Z"></path>
        <path class="cls-8" d="M73.25,9.94s-2.55-3.47-6-2.61-5,3.47-4.43,4.47A12,12,0,0,0,64,13.16c.8.88,2.73-1.38,2.81-1.39S73.25,9.94,73.25,9.94Z"></path>
        <path class="cls-13" d="M74.78,14.13S74,9.43,72.24,9.29s-3.69-.54-3.69-.54L68,9.57S69.56,12.7,70.25,13s2,.68,2.27.83A17.57,17.57,0,0,0,74.78,14.13Z"></path>
        <path class="cls-10" d="M74.61,14.7c.16-.39.52-1.44-.57-1.83a16.38,16.38,0,0,0-2.23-.6s-2.89,1.94-3.46,2.24-.93.24.65.81,1.53,1,3,.88A4.32,4.32,0,0,0,74.61,14.7Z"></path>
        <path class="cls-11" d="M71.81,12.27a19.2,19.2,0,0,0-2.15,1.88c-.86.91-1,1.2-2,.65s-3.47-1.05-4.06-2.06-.59-.9.29-2,1.76-1.41,3.38-1.8a2.87,2.87,0,0,1,3.21.88A7.44,7.44,0,0,1,71.81,12.27Z"></path>
        <path class="cls-8" d="M61.42,11.73s-3.65-2.82-7-.91-4.08,5-3.25,5.93a13.8,13.8,0,0,0,1.63,1.05c1.09.67,2.41-2.23,2.49-2.26S61.42,11.73,61.42,11.73Z"></path>
        <path class="cls-13" d="M64.25,15.61S62,11,60.18,11.36a39.58,39.58,0,0,1-4,.54l-.31,1s2.52,2.78,3.32,2.87,2.25.11,2.59.17A17.05,17.05,0,0,0,64.25,15.61Z"></path>
        <path class="cls-10" d="M64.24,16.24c.05-.45.11-1.63-1.13-1.72a17.66,17.66,0,0,0-2.48,0s-2.41,2.87-2.91,3.34-.89.53.92.65,1.86.55,3.35,0A4.63,4.63,0,0,0,64.24,16.24Z"></path>
        <path class="cls-11" d="M60.63,14.56A21.91,21.91,0,0,0,59,17.14c-.62,1.2-.7,1.55-1.85,1.26s-3.89,0-4.8-.92-.88-.76-.3-2.18,1.39-2,2.95-2.86a3.07,3.07,0,0,1,3.57,0A8,8,0,0,1,60.63,14.56Z"></path>
        <path class="cls-8" d="M80.42,18.13a2.19,2.19,0,0,0,2-1c.55-1.1.19-2.08-.19-2.16a3.4,3.4,0,0,0-.63,0c-.4,0-.24,1-.25,1.05S80.42,18.13,80.42,18.13Z"></path>
        <path class="cls-13" d="M79,17.6s1.41.84,1.84.41,1-.85,1-.85l-.09-.32a4.45,4.45,0,0,0-1.4-.18c-.23.12-.62.37-.72.42A4.78,4.78,0,0,0,79,17.6Z"></path>
        <path class="cls-10" d="M78.86,17.43c.07.13.27.46.61.26a5.16,5.16,0,0,0,.66-.46s.13-1.19.18-1.41.15-.3-.36,0-.6.19-.9.6A1.5,1.5,0,0,0,78.86,17.43Z"></path>
        <path class="cls-11" d="M80.13,17.23a6.94,6.94,0,0,0,0-1c0-.43-.08-.54.27-.67s1.06-.68,1.45-.61.37,0,.47.53A1.78,1.78,0,0,1,82,16.79a1,1,0,0,1-1,.65A2.46,2.46,0,0,1,80.13,17.23Z"></path>
        <path class="cls-8" d="M31.75,20.67a2.22,2.22,0,0,0,2-1c.54-1.1.19-2.08-.19-2.16a3.4,3.4,0,0,0-.63,0c-.41,0-.24,1-.26,1.05S31.75,20.67,31.75,20.67Z"></path>
        <path class="cls-13" d="M30.3,20.14s1.42.84,1.85.41,1-.85,1-.85L33,19.37a4.48,4.48,0,0,0-1.4-.17c-.23.12-.62.37-.73.42A5.66,5.66,0,0,0,30.3,20.14Z"></path>
        <path class="cls-10" d="M30.19,20c.07.13.26.46.61.26a5.16,5.16,0,0,0,.66-.46s.13-1.19.18-1.41.14-.3-.36,0-.6.19-.9.6A1.5,1.5,0,0,0,30.19,20Z"></path>
        <path class="cls-11" d="M31.46,19.77a6.94,6.94,0,0,0,0-1c-.05-.43-.09-.54.27-.67s1-.68,1.45-.61.37,0,.47.53a1.74,1.74,0,0,1-.28,1.29,1,1,0,0,1-.94.65A2.46,2.46,0,0,1,31.46,19.77Z"></path>
        <path class="cls-8" d="M45.66,18.92a2.8,2.8,0,0,0,2.66-1.1c.79-1.35.43-2.63,0-2.77a4.55,4.55,0,0,0-.8,0c-.52,0-.4,1.28-.42,1.31S45.66,18.92,45.66,18.92Z"></path>
        <path class="cls-13" d="M43.86,18.11s1.73,1.2,2.31.69,1.3-1,1.3-1l-.09-.42A5.81,5.81,0,0,0,45.61,17c-.3.13-.82.42-1,.47A8.25,8.25,0,0,0,43.86,18.11Z"></path>
        <path class="cls-10" d="M43.73,17.89c.08.17.3.6.75.38a8.31,8.31,0,0,0,.88-.52s.27-1.51.35-1.78.21-.37-.45-.05-.78.18-1.2.68A1.92,1.92,0,0,0,43.73,17.89Z"></path>
        <path class="cls-11" d="M45.36,17.75a9.27,9.27,0,0,0,.07-1.26c0-.55-.07-.69.4-.82s1.4-.78,1.9-.66.46.09.55.72a2.28,2.28,0,0,1-.47,1.62,1.27,1.27,0,0,1-1.26.75A3.43,3.43,0,0,1,45.36,17.75Z"></path>
        <path class="cls-8" d="M55.8,17a1.8,1.8,0,0,1,1.65-.26c.81.38,1,1,.83,1.22a3.81,3.81,0,0,1-.38.24c-.25.14-.59-.45-.61-.46Z"></path>
        <path class="cls-13" d="M55.17,17.79s.48-1,.92-.93.95.08.95.08l.09.2s-.58.61-.77.64l-.61,0A4.39,4.39,0,0,1,55.17,17.79Z"></path>
        <path class="cls-10" d="M55.18,17.92a.27.27,0,0,1,.25-.37,5,5,0,0,1,.59,0s.6.59.72.68.22.1-.21.14-.43.14-.8,0A1,1,0,0,1,55.18,17.92Z"></path>
        <path class="cls-11" d="M56,17.53a4.56,4.56,0,0,1,.42.53c.16.25.18.32.45.25s.93,0,1.14-.24.2-.16,0-.46a1.3,1.3,0,0,0-.74-.57.82.82,0,0,0-.85,0A1.73,1.73,0,0,0,56,17.53Z"></path>
        <path class="cls-8" d="M70.7,12.76s-3.43-2.54-6.46-.71-3.68,4.75-2.89,5.54a12.89,12.89,0,0,0,1.53.95c1,.59,2.19-2.12,2.26-2.15S70.7,12.76,70.7,12.76Z"></path>
        <path class="cls-13" d="M73.39,16.29s-2.14-4.23-3.84-3.85S65.9,13,65.9,13l-.28.93s2.39,2.52,3.13,2.58,2.08.06,2.4.11A15.62,15.62,0,0,0,73.39,16.29Z"></path>
        <path class="cls-10" d="M73.4,16.87c0-.42.07-1.51-1.08-1.56a16.91,16.91,0,0,0-2.3.08s-2.17,2.7-2.62,3.15-.82.5.86.57,1.73.48,3.1,0A4.3,4.3,0,0,0,73.4,16.87Z"></path>
        <path class="cls-11" d="M70,15.39a19.88,19.88,0,0,0-1.48,2.42c-.55,1.12-.62,1.44-1.69,1.2s-3.6,0-4.46-.76-.83-.68-.32-2,1.25-1.86,2.68-2.71a2.84,2.84,0,0,1,3.3-.11A7.46,7.46,0,0,1,70,15.39Z"></path>
        <path class="cls-8" d="M52.39,16.72s-2.81-.51-4.09,1.49-.8,3.93-.09,4.17a8,8,0,0,0,1.19.12c.79.06.69-1.91.72-1.95S52.39,16.72,52.39,16.72Z"></path>
        <path class="cls-13" d="M55.05,18.05s-2.53-1.91-3.44-1.18-2,1.43-2,1.43l.11.63a8.93,8.93,0,0,0,2.64.64c.47-.18,1.27-.59,1.48-.65A10.6,10.6,0,0,0,55.05,18.05Z"></path>
        <path class="cls-10" d="M55.23,18.4c-.11-.27-.41-.93-1.12-.62a11.23,11.23,0,0,0-1.35.73s-.51,2.26-.65,2.66-.34.54.69.09S54,21,54.65,20.32A2.93,2.93,0,0,0,55.23,18.4Z"></path>
        <path class="cls-11" d="M52.76,18.51a13.43,13.43,0,0,0-.18,1.88c0,.84.06,1.05-.66,1.22s-2.15,1.08-2.9.86-.7-.16-.78-1.11A3.38,3.38,0,0,1,49,19a1.9,1.9,0,0,1,2-1A4.74,4.74,0,0,1,52.76,18.51Z"></path>
        <path class="cls-14" d="M51.55,53.94c2,1.69,5.13,1.23,7.11-1s3.14-6.29,1.19-8-6.25-.43-8.23,1.84S49.61,52.24,51.55,53.94Z"></path>
        <path class="cls-15" d="M51.57,53.92a4.28,4.28,0,0,0,3.94.78,6.07,6.07,0,0,0,3.29-2.33,9.23,9.23,0,0,0,1.71-3.72,5.34,5.34,0,0,0,.07-2,2.7,2.7,0,0,0-1-1.67,4.75,4.75,0,0,0-3.93-.44,8.58,8.58,0,0,0-3.63,2,6,6,0,0,0-1.86,3.65A4.35,4.35,0,0,0,51.57,53.92Zm0,0a4.63,4.63,0,0,1-1.45-3.84,6.2,6.2,0,0,1,1.8-3.8,8.74,8.74,0,0,1,3.72-2.08,5,5,0,0,1,4.21.44A3,3,0,0,1,61,46.55a5.71,5.71,0,0,1,0,2.18,9.69,9.69,0,0,1-1.79,3.91,6.1,6.1,0,0,1-3.6,2.3A4.69,4.69,0,0,1,51.54,54Z"></path>
        <path class="cls-16" d="M59.53,47.23s-2.4-.23-1-1.79,10.12-2.8,8.16,8.27c0,0-1.06,4.36-1-2.57S60.07,47.33,59.53,47.23Z"></path>
        <path class="cls-17" d="M66.88,53a100.87,100.87,0,0,0-1.49,12,11.88,11.88,0,0,0,.18,2.93,3.7,3.7,0,0,0,.52,1.3A13.21,13.21,0,0,1,67,70.42,4.18,4.18,0,0,1,67.34,72c0,.52,0,1,0,1.54,0,1-.11,2-.24,3a.16.16,0,0,1-.17.14.16.16,0,0,1-.14-.17c.09-1,.14-2,.13-3a7.09,7.09,0,0,0-.46-2.85c-.22-.39-.59-.74-.9-1.19A4.35,4.35,0,0,1,64.92,68a12.6,12.6,0,0,1-.31-3.1c0-2,.15-4.08.33-6.1s.42-4,.7-6.06a.63.63,0,1,1,1.24.17v0Z"></path>
      </g>
    </g>
  </g>
</svg>
