<?xml version="1.0" encoding="UTF-8"?>
<svg xmlns="http://www.w3.org/2000/svg" viewBox="0 0 97.83 99.22">
  <defs>
    <style>.cls-1{fill:#a29274;}.cls-2{fill:#e3e0c9;}.cls-3{fill:#bda885;}.cls-4{fill:#7c705b;}.cls-5{fill:#d0c5a6;}.cls-6{fill:#a29277;}.cls-7{fill:#817870;}</style>
  </defs>
  <g id="Слой_2" data-name="Слой 2">
    <g id="Слой_1-2" data-name="Слой 1">
      <polygon class="cls-1" points="48.99 34.86 97.83 14.06 90.51 70.31 48.99 99.22 48.99 34.86"></polygon>
      <polygon class="cls-2" points="48.99 0 97.83 14.06 48.99 34.86 0 14.06 48.99 0"></polygon>
      <polygon class="cls-3" points="48.99 34.86 0 14.06 7.33 70.31 20.26 79.28 19.99 79.09 20.26 79.28 48.99 99.22 48.99 34.86"></polygon>
      <path class="cls-4" d="M47.82,97.51a26.67,26.67,0,0,0,1.7-2.44c.55-.82,1.08-1.65,1.61-2.48,1-1.67,2.07-3.35,3-5.07S56,84.07,56.88,82.3s1.58-3.6,2.25-5.47a27.79,27.79,0,0,1-1.54,5.77A43.24,43.24,0,0,1,55,88a50,50,0,0,1-3.26,5A29,29,0,0,1,47.82,97.51Z"></path>
      <path class="cls-5" d="M30.79,14.75a28.27,28.27,0,0,1,2.31-2.47,24.84,24.84,0,0,1,2.7-2.08,26.88,26.88,0,0,1,6.12-3,31.07,31.07,0,0,1,6.66-1.39c1.13-.14,2.26-.12,3.39-.18s2.25.1,3.37.2C54.22,6,53.1,6,52,6.14s-2.22.23-3.31.45-2.18.37-3.25.68-2.13.58-3.19.9a36.18,36.18,0,0,0-6,2.68A33.57,33.57,0,0,0,30.79,14.75Z"></path>
      <path class="cls-5" d="M22.44,16.73a6.43,6.43,0,0,0,1.93.39,19.09,19.09,0,0,0,2,.06,29.4,29.4,0,0,0,4-.34c2.64-.37,5.24-1,7.91-1.63a22.83,22.83,0,0,1-7.77,2.62,17.38,17.38,0,0,1-4.14.13,10.88,10.88,0,0,1-2.05-.37c-.34-.1-.67-.21-1-.34A2.3,2.3,0,0,1,22.44,16.73Z"></path>
      <path class="cls-4" d="M57.81,56.49c-.19-1.42-.45-2.84-.52-4.28a20.47,20.47,0,0,1,.25-4.35,14,14,0,0,1,3.92-7.78,16.24,16.24,0,0,1,7.72-4,30,30,0,0,1,4.29-.65l2.16,0,2.16.08a38.67,38.67,0,0,0-8.41,1.37,17,17,0,0,0-7.22,4A14.41,14.41,0,0,0,58.29,48,33.25,33.25,0,0,0,57.81,56.49Z"></path>
      <path class="cls-4" d="M74.53,43.19l3.64-5c1.19-1.68,2.36-3.36,3.47-5.09a51.75,51.75,0,0,0,3.07-5.3A17,17,0,0,0,86.63,22a13,13,0,0,1-1.21,6.1,34.43,34.43,0,0,1-2.94,5.53A52.05,52.05,0,0,1,74.53,43.19Z"></path>
      <path class="cls-4" d="M63.21,61.05c.13.21.4.28.62.39l.69.29c.47.18,1,.34,1.43.49,1,.32,1.92.6,2.89.87,1.93.52,3.88,1,5.85,1.38,3.93.81,7.91,1.33,11.94,1.8a44.21,44.21,0,0,1-12.14-.82,44.65,44.65,0,0,1-5.89-1.62c-1-.34-1.9-.73-2.83-1.15-.46-.23-.91-.46-1.36-.71A3.41,3.41,0,0,1,63.21,61.05Z"></path>
      <path class="cls-4" d="M75,68.17A15,15,0,0,1,73.74,60a12.92,12.92,0,0,1,3.61-7.55,18.06,18.06,0,0,1,7.19-4.28,30.77,30.77,0,0,1,8.15-1.46c-.68.16-1.35.3-2,.43s-1.33.33-2,.5-1.31.38-2,.56-1.29.45-1.92.69a19.57,19.57,0,0,0-6.74,4.26,13.24,13.24,0,0,0-3.57,7,18.09,18.09,0,0,0,.51,8Z"></path>
      <path class="cls-4" d="M92.69,42.4a36.4,36.4,0,0,1-3.24,10.8,30.77,30.77,0,0,1-3,4.85A18.49,18.49,0,0,1,82.44,62a33.13,33.13,0,0,0,3.42-4.38,48.82,48.82,0,0,0,2.68-4.85c.81-1.66,1.53-3.37,2.22-5.1S92.09,44.18,92.69,42.4Z"></path>
      <path class="cls-5" d="M60.79,29.81l1-.4a32.93,32.93,0,0,0-4.46-1.64Q59.17,28.79,60.79,29.81Z"></path>
      <path class="cls-4" d="M60.43,30.63c-.69,1.73-1.25,3.14-2.09,4.79a35.11,35.11,0,0,1-6.11,9.23,18.54,18.54,0,0,0,4.07-3.94,34.22,34.22,0,0,0,2.94-4.85,44.7,44.7,0,0,0,2.21-5.21c.1-.35.22-.89.32-1.24l-1,.4C60.73,30,60.5,30.48,60.43,30.63Z"></path>
      <path class="cls-6" d="M5.58,57.48a15.68,15.68,0,0,1,4.47-3.61,25.91,25.91,0,0,1,5.33-2.23,30.55,30.55,0,0,1,5.68-1c1-.1,1.92-.09,2.87-.12s1.92.07,2.87.16c-.95.14-1.9.2-2.84.33s-1.87.24-2.8.41-1.86.3-2.77.54-1.83.43-2.73.69a36.41,36.41,0,0,0-5.25,2A24.08,24.08,0,0,0,5.58,57.48Z"></path>
      <path class="cls-6" d="M8.58,49.67c1-.59,2-1.16,2.89-1.81s1.91-1.24,2.84-1.89c1.87-1.3,3.75-2.57,5.59-3.9s3.68-2.67,5.48-4c.9-.7,1.78-1.41,2.62-2.16a14.35,14.35,0,0,0,2.34-2.46,18.92,18.92,0,0,1-4.47,5.21,65,65,0,0,1-5.39,4.26c-1.87,1.32-3.78,2.59-5.76,3.73A39.05,39.05,0,0,1,8.58,49.67Z"></path>
      <path class="cls-6" d="M8.33,67.74a5.65,5.65,0,0,1,2.27-5.26,10,10,0,0,1,5.72-1.66,23.14,23.14,0,0,1,5.83.77,35.15,35.15,0,0,1,5.51,1.9c-1.91-.36-3.78-.84-5.67-1.13a27,27,0,0,0-2.82-.4,24.49,24.49,0,0,0-2.83-.14,10.47,10.47,0,0,0-5.29,1.29A5.9,5.9,0,0,0,8.33,67.74Z"></path>
      <path class="cls-6" d="M1.94,23.53A5.92,5.92,0,0,0,4.08,26,14.21,14.21,0,0,0,7,27.61a34.84,34.84,0,0,0,6.39,1.81c2.19.41,4.4.71,6.63.94s4.47.37,6.72.6c-1.12.1-2.25.13-3.38.2s-2.26,0-3.39,0a45.35,45.35,0,0,1-6.77-.73,26.39,26.39,0,0,1-6.52-2.09,14.24,14.24,0,0,1-2.87-1.92A5.67,5.67,0,0,1,1.94,23.53Z"></path>
      <path class="cls-6" d="M36.17,90c-2.21-1.06-4.44-2.59-5.46-5.09A4.66,4.66,0,0,1,31,80.94a9.29,9.29,0,0,1,2.65-2.85,25.42,25.42,0,0,1,6.76-3.36,52.31,52.31,0,0,1,7.23-1.89c-1.16.46-2.35.81-3.5,1.28s-2.31.87-3.45,1.33a31.28,31.28,0,0,0-6.44,3.44,8.37,8.37,0,0,0-2.42,2.51,4,4,0,0,0-.42,3.24,7.38,7.38,0,0,0,1.89,3A16.19,16.19,0,0,0,36.17,90Z"></path>
      <path class="cls-6" d="M27.9,29.46a4.58,4.58,0,0,0-.34,3.92c1,2.51,3.25,4,5.46,5.1a16.19,16.19,0,0,1-2.84-2.36,7.42,7.42,0,0,1-1.89-3,4,4,0,0,1,.4-3.24,8.44,8.44,0,0,1,2.44-2.51l.11-.07-1-.45A8.78,8.78,0,0,0,27.9,29.46Z"></path>
      <path class="cls-5" d="M46.36,25.47a69.2,69.2,0,0,0-8.13-.14,23.55,23.55,0,0,0-6.85,1.09l-1.19.45,1,.45A32.83,32.83,0,0,1,38.5,26C41.07,25.77,43.72,25.65,46.36,25.47Z"></path>
      <path class="cls-6" d="M27.05,75.57a13.63,13.63,0,0,0-3,.36,7,7,0,0,0-2.75,1.49,3.53,3.53,0,0,0-1,1.84l.26.2A3.84,3.84,0,0,1,21.77,78a7.72,7.72,0,0,1,2.52-1.11,55.14,55.14,0,0,1,5.75-1A14.29,14.29,0,0,0,27.05,75.57Z"></path>
      <path class="cls-6" d="M26.09,71.12c2-1,4.06-1.74,6.07-2.62s4-1.77,5.94-2.78a39.2,39.2,0,0,0,5.52-3.44A18.31,18.31,0,0,0,46,60.12c.35-.42.72-.82,1.06-1.25s.57-.92.88-1.39q-.31.77-.66,1.53c-.28.48-.6.94-.9,1.42a19,19,0,0,1-2.3,2.45,28.38,28.38,0,0,1-5.55,3.73,47.61,47.61,0,0,1-6.12,2.6c-1,.36-2.1.7-3.16,1Z"></path>
      <path class="cls-4" d="M53.48,87.07c2-1,4.06-1.73,6.07-2.61s4-1.77,5.94-2.78A39.2,39.2,0,0,0,71,78.24a18.32,18.32,0,0,0,2.41-2.17c.35-.41.72-.81,1-1.24s.58-.92.89-1.39Q75,74.21,74.7,75c-.28.48-.6.94-.9,1.42a19,19,0,0,1-2.3,2.44A28.29,28.29,0,0,1,66,82.57a47.61,47.61,0,0,1-6.12,2.6c-1,.36-2.1.7-3.16,1Z"></path>
      <path class="cls-5" d="M56.15,28.71a37.07,37.07,0,0,1,4.62-5.84A35.34,35.34,0,0,1,66.45,18a25.92,25.92,0,0,1,6.72-3.35c.6-.19,1.23-.3,1.84-.44a9.59,9.59,0,0,1,1.86-.27,16.58,16.58,0,0,1,3.73.12,21.49,21.49,0,0,0-7.18,1.32A32.7,32.7,0,0,0,67,18.81a50.17,50.17,0,0,0-5.7,4.61c-.92.82-1.79,1.69-2.64,2.58S57,27.78,56.15,28.71Z"></path>
      <path class="cls-4" d="M94.86,21.25a10,10,0,0,0-5.82,1c1-.09,1.94-.17,2.88-.18a15.33,15.33,0,0,1,2.8.15,8.81,8.81,0,0,1,2,.49l.09-.88A9.65,9.65,0,0,0,94.86,21.25Z"></path>
      <path class="cls-6" d="M5.58,48.36a19.24,19.24,0,0,1,4.05.6,19.58,19.58,0,0,1,3.88,1.4,10.63,10.63,0,0,1,3.38,2.48,5.36,5.36,0,0,1,1.05,1.86,4,4,0,0,1,0,2.08,4.76,4.76,0,0,0-1.64-3.4,13.72,13.72,0,0,0-3.25-2.13A38.42,38.42,0,0,0,9.4,49.7C8.14,49.25,6.87,48.79,5.58,48.36Z"></path>
      <path class="cls-6" d="M26,66.35c.62-.85,1.26-1.69,1.86-2.55s1.23-1.7,1.82-2.56C30.82,59.52,32,57.79,33.07,56a48.22,48.22,0,0,0,3-5.46,15.05,15.05,0,0,0,.62-1.43c.17-.48.39-1,.52-1.46s.31-1,.43-1.5.17-1,.26-1.55a14.73,14.73,0,0,1-1.12,6.24,31.2,31.2,0,0,1-2.85,5.69,46.88,46.88,0,0,1-3.68,5.16A42.9,42.9,0,0,1,26,66.35Z"></path>
      <ellipse class="cls-1" cx="50.53" cy="15.04" rx="11.28" ry="4.41"></ellipse>
      <ellipse class="cls-7" cx="50.82" cy="16.53" rx="9.3" ry="3.64"></ellipse>
    </g>
  </g>
</svg>
