<?xml version="1.0" encoding="UTF-8"?>
<svg xmlns="http://www.w3.org/2000/svg" viewBox="0 0 117.64 203.33">
  <defs>
    <style>.cls-1{fill:#a79677;}.cls-2{fill:#f9eacb;}.cls-3{fill:#bfaa86;}.cls-4{fill:#d2c7a7;}.cls-5{fill:#95876b;}.cls-6{fill:#af997c;opacity:0.25;}.cls-7{fill:#837660;}.cls-8{fill:#988666;}.cls-9{fill:#d7b478;}.cls-10{fill:#8b5b3c;}.cls-11{fill:#a17551;}.cls-12{fill:#956d4b;}.cls-13{fill:#cbcbcb;}.cls-14{fill:#76ad46;}.cls-15{fill:#204e2d;}.cls-16{fill:#529643;}.cls-17{fill:#714d31;}.cls-18{fill:#613922;}.cls-19{fill:#7f5637;}.cls-20{fill:#a07850;}</style>
  </defs>
  <g id="Слой_2" data-name="Слой 2">
    <g id="Слой_1-2" data-name="Слой 1">
      <polygon class="cls-1" points="58.9 125.93 117.64 100.93 108.83 168.56 58.9 203.33 58.9 125.93"></polygon>
      <polygon class="cls-2" points="58.9 84.02 117.64 100.93 58.9 125.93 0 100.93 58.9 84.02"></polygon>
      <polygon class="cls-3" points="8.81 168.56 0 100.93 58.9 125.93 58.9 203.33 8.81 168.56"></polygon>
      <path class="cls-4" d="M37,101.76a32.38,32.38,0,0,1,2.78-3A27.18,27.18,0,0,1,43,96.27a32,32,0,0,1,7.38-3.57,38.55,38.55,0,0,1,4-1.07,36.83,36.83,0,0,1,4-.62,38.85,38.85,0,0,1,8.14,0c-2.71.17-5.38.46-8,.89a49.81,49.81,0,0,0-7.75,1.9,40.36,40.36,0,0,0-7.27,3.23A40.88,40.88,0,0,0,37,101.76Z"></path>
      <path class="cls-4" d="M27,104.14c.08.1.35.14.53.19a5.6,5.6,0,0,0,.59.12q.6.1,1.2.15a21.39,21.39,0,0,0,2.4.08,36.41,36.41,0,0,0,4.77-.41c3.18-.44,6.3-1.24,9.51-2a27.39,27.39,0,0,1-9.34,3.15,21.27,21.27,0,0,1-5,.16,14.69,14.69,0,0,1-2.47-.44,11.74,11.74,0,0,1-1.18-.41A2.72,2.72,0,0,1,27,104.14Z"></path>
      <path class="cls-4" d="M67.52,118.55a43.69,43.69,0,0,1,5.54-7,45.59,45.59,0,0,1,6.83-5.87,30.61,30.61,0,0,1,8.09-4,22.5,22.5,0,0,1,4.45-.89,19.23,19.23,0,0,1,4.49.2,23.54,23.54,0,0,0-8.63,1.58,35.59,35.59,0,0,0-7.71,4.14,59.57,59.57,0,0,0-6.86,5.54A84.77,84.77,0,0,0,67.52,118.55Z"></path>
      <polygon class="cls-5" points="58.9 125.93 117.64 100.93 108.83 168.56 58.9 203.33 58.9 125.93"></polygon>
      <polygon class="cls-6" points="8.81 168.56 0 100.93 58.9 125.93 58.9 203.33 8.81 168.56"></polygon>
      <path class="cls-7" d="M19.45,138.83a10.77,10.77,0,0,1-.89-2.33,20,20,0,0,1-.55-2.44,18.1,18.1,0,0,1-.08-5,15.48,15.48,0,0,1,4.35-9.08,21.71,21.71,0,0,1,8.64-5.15,37,37,0,0,1,9.8-1.75,56.07,56.07,0,0,0-9.48,2.63,23.24,23.24,0,0,0-8.1,5.11,15.75,15.75,0,0,0-4.29,8.38A20,20,0,0,0,18.6,134,18.63,18.63,0,0,0,19.45,138.83Z"></path>
      <path class="cls-7" d="M74.19,137.9c.15.25.49.33.75.46s.55.24.83.35c.57.22,1.14.41,1.72.59,1.14.38,2.3.72,3.47,1,2.33.63,4.67,1.2,7,1.67,4.72,1,9.51,1.59,14.35,2.16a53,53,0,0,1-14.59-1,53.71,53.71,0,0,1-7.08-1.95c-1.16-.41-2.3-.87-3.41-1.39-.55-.27-1.1-.55-1.63-.85A4.08,4.08,0,0,1,74.19,137.9Z"></path>
      <path class="cls-7" d="M42.64,134.37a43.14,43.14,0,0,1-3.9,13,37.33,37.33,0,0,1-3.53,5.84,22.37,22.37,0,0,1-4.89,4.73,40.48,40.48,0,0,0,4.12-5.27,61.18,61.18,0,0,0,3.22-5.83c1-2,1.83-4,2.66-6.13S41.92,136.51,42.64,134.37Z"></path>
      <path class="cls-7" d="M60.86,188.19c2.39-1.17,4.87-2.1,7.29-3.15s4.82-2.12,7.15-3.33a46.6,46.6,0,0,0,6.63-4.14,19.05,19.05,0,0,0,5.24-5.77,15.3,15.3,0,0,1-4.64,6.49,34.37,34.37,0,0,1-6.68,4.48,58.12,58.12,0,0,1-7.36,3.14c-1.25.45-2.52.84-3.8,1.21Z"></path>
      <path class="cls-7" d="M33.31,180.77a16.55,16.55,0,0,1-3.81-2.41,9.33,9.33,0,0,1-2.76-3.71,5.45,5.45,0,0,1-.33-2.41,6.05,6.05,0,0,1,.73-2.33,11,11,0,0,1,3.18-3.43,30.88,30.88,0,0,1,8.13-4,62.51,62.51,0,0,1,8.7-2.27c-2.82,1-5.62,2-8.36,3.15A37,37,0,0,0,31,167.44a10.31,10.31,0,0,0-2.91,3,4.75,4.75,0,0,0-.5,3.89,9.32,9.32,0,0,0,2.27,3.58A19.86,19.86,0,0,0,33.31,180.77Z"></path>
      <path class="cls-7" d="M87.17,136.53l4.38-6c1.43-2,2.84-4,4.17-6.12A61.26,61.26,0,0,0,99.41,118a20.48,20.48,0,0,0,2.31-7,15.84,15.84,0,0,1-1.45,7.35A40.5,40.5,0,0,1,96.73,125,62,62,0,0,1,87.17,136.53Z"></path>
      <polygon class="cls-8" points="23.78 100.93 58.93 115.3 94.08 100.83 58.9 89.48 23.78 100.93"></polygon>
      <polygon class="cls-9" points="30.66 103.74 58.82 94.74 87.17 103.68 58.93 115.3 30.66 103.74"></polygon>
      <polygon class="cls-10" points="27.09 83.2 62.11 99.69 94.51 83.29 60.82 69.02 27.09 83.2"></polygon>
      <polygon class="cls-11" points="21.67 36.42 60.82 36.62 60.82 69.02 27.14 83.29 21.67 36.42"></polygon>
      <polygon class="cls-12" points="98.86 37.74 60.82 36.62 60.82 69.02 94.51 83.29 98.86 37.74"></polygon>
      <path class="cls-13" d="M51,79.9a10.92,10.92,0,0,1-.83,4.31A10.9,10.9,0,0,0,51,79.9c.1-1.47.15-3,.19-4.43a47.11,47.11,0,0,1,.87-8.79,79.07,79.07,0,0,1,2.29-8.54,9,9,0,0,1,1.93-3.84A7.13,7.13,0,0,1,59,52.48a51.36,51.36,0,0,0-3.16,8.91,33,33,0,0,0-.6,3.27c-.24.42-.49.83-.71,1.26a32.49,32.49,0,0,0-3.28,11.19,39.25,39.25,0,0,1,1.38-5.66,26.66,26.66,0,0,1,2.28-5.32c.06-.12.14-.22.2-.33,0,.11,0,.22,0,.33a25.76,25.76,0,0,0,.29,4.77c.34,3.11.77,6.19,1,9.3s.44,6.28-.7,9.21c1.24-2.9,1.06-6.14,1-9.23S56.2,74,56,70.85a25,25,0,0,1-.14-4.65c.07-.7.18-1.4.31-2.09.62-1,1.24-2,1.79-3,.29-.53.54-1.08.8-1.63a12.52,12.52,0,0,0,.42,3.21c.22.6.47,1.17.73,1.73,0,.29.06.58.1.87.22,1.63.44,3.26.78,4.88a14.21,14.21,0,0,0,2,4.54,17,17,0,0,1,1.9,4.48A11,11,0,0,1,64.38,84c-.63,3.22-1.38,6.42-2.16,9.61.84-3.18,1.64-6.36,2.32-9.58a11.06,11.06,0,0,0,.34-4.92A17.13,17.13,0,0,0,63,74.56a13.83,13.83,0,0,1-1.88-4.46c-.28-1.45-.46-2.93-.64-4.41.81,1.51,1.71,2.94,2.58,4.41a31.16,31.16,0,0,1,2,3.6c.46,1.28.8,2.63,1.16,4A60.68,60.68,0,0,1,67.9,85.8a61.47,61.47,0,0,0-1.4-8.19c-.31-1.36-.6-2.71-1-4-.15-.39-.35-.75-.53-1.12A34.45,34.45,0,0,1,68.3,76a5.69,5.69,0,0,1,.57,1.13c.19.45.39.87.59,1.29L70,79.55c.06.22.1.44.16.66A28.4,28.4,0,0,1,71.11,85a11.65,11.65,0,0,0,1.83,4.46,11.4,11.4,0,0,1-1.71-4.48,27.18,27.18,0,0,0-.73-4.39l.2.41c.84,1.66,1.67,3.32,2.43,5A22.29,22.29,0,0,1,75,91.19a21.84,21.84,0,0,0-1.51-5.36l-2-5.21-1-2.59c-.17-.43-.33-.87-.47-1.28a8,8,0,0,0-.33-.87,21.56,21.56,0,0,1-.16-5.26s0-.07,0-.11c.25.44.48.9.76,1.33A31.1,31.1,0,0,1,73.71,79a31.69,31.69,0,0,0-3.16-7.36c-.38-.65-.7-1.33-1-2a7.4,7.4,0,0,0-1-3.89,25.29,25.29,0,0,0-2.41-3.1,19.76,19.76,0,0,0-1-1.75,8.36,8.36,0,0,0-.63-.84.86.86,0,0,0-.07-.1c-.36-.73-.69-1.49-1-2.25-.43-1-.81-2-1.2-2.95-.5-1.57-1-3.17-1.34-4.77v0a.7.7,0,0,0-1.25-.25.51.51,0,0,0-.44-.15.52.52,0,0,0-.4.59c.1.61.21,1.19.32,1.78a7.37,7.37,0,0,0-3,2,9.33,9.33,0,0,0-2,4,81.39,81.39,0,0,0-2.18,8.6,47.6,47.6,0,0,0-.74,8.84C51.05,76.94,51,78.42,51,79.9Zm8.2-24.76s-.06,0-.09,0c.12-.28.25-.55.38-.82v0c-.07.26-.12.52-.19.78A.29.29,0,0,0,59.15,55.14Zm9.63,13.12-1.25-2.64a6,6,0,0,1,.37.51A6.13,6.13,0,0,1,68.78,68.26ZM65,70.14c-.15-.39-.31-.81-.45-1.25-.28-.86-.53-1.75-.78-2.64L62.3,60.88c-.5-2-1-4.13-1.54-6.2.4,1.12.82,2.23,1.31,3.33a15.48,15.48,0,0,0,1,1.83,6.77,6.77,0,0,0,.66.86h0a11.69,11.69,0,0,0,1.12,1.71c.18.24.38.47.57.69.33.56.65,1.12,1,1.69.84,1.58,1.69,3.19,2.57,4.78,0,.33,0,.66,0,1A20.66,20.66,0,0,0,69.11,75a50.69,50.69,0,0,0-3.52-3.86A4.2,4.2,0,0,1,65,70.14Zm-4.67-6.69q-.3-2.79-.55-5.6c.06-.39.11-.77.18-1.15l0,0c.34,1.51.69,3,1,4.54.44,1.81.89,3.62,1.4,5.42.24.82.48,1.64.75,2.46A45.89,45.89,0,0,1,60.28,63.45Zm-3.57-1.82a48.72,48.72,0,0,1,2.16-6c0,.25.07.51.09.77-.11.6-.18,1.21-.23,1.82-.4.89-.83,1.78-1.29,2.64-.29.53-.61,1-.92,1.58C56.58,62.17,56.64,61.9,56.71,61.63Z"></path>
      <polygon class="cls-10" points="21.67 36.42 62.11 53.32 98.86 37.74 62.11 24.78 21.67 36.42"></polygon>
      <path class="cls-14" d="M57.4,5.27a12.4,12.4,0,0,1,3-3.64C62.33.09,65.05-.9,68.85,1.2s4.24,5.8,3.68,9.43-2.08,7.1-1.51,8.59c0,0-2-1-4.55-2.08s-5.69-2.1-8.2-2c-5,.24-9.62,0-10-4.24S53,4.73,57.4,5.27Z"></path>
      <path class="cls-15" d="M57.5,5c1.12.45,2.2,1,3.28,1.51s2.12,1.15,3.15,1.81a26.14,26.14,0,0,1,2.93,2.21,12.45,12.45,0,0,1,1.29,1.33,11.43,11.43,0,0,1,1.11,1.48.06.06,0,0,1,0,.08s-.06,0-.07,0h0c-.41-.46-.76-.95-1.2-1.37a7.86,7.86,0,0,0-.65-.64l-.66-.61a26.27,26.27,0,0,0-2.93-2.12,35.69,35.69,0,0,0-3.14-1.74c-1.07-.53-2.15-1-3.24-1.45h0a.26.26,0,0,1-.15-.32A.24.24,0,0,1,57.5,5Z"></path>
      <path class="cls-15" d="M58.26,5.7A10.67,10.67,0,0,1,56.7,6.93c-.57.36-1.15.62-1.71,1A8,8,0,0,0,53.42,9a3.25,3.25,0,0,0-.59.75,1.67,1.67,0,0,0-.13.94,1.5,1.5,0,0,1,0-1,2.94,2.94,0,0,1,.57-.82,8.27,8.27,0,0,1,1.57-1.2c.55-.36,1.14-.64,1.65-1a8.5,8.5,0,0,0,1.38-1.3h0a.24.24,0,0,1,.34,0,.25.25,0,0,1,0,.35Z"></path>
      <path class="cls-15" d="M59.89,6.27a5.56,5.56,0,0,1-.51,1.57,5,5,0,0,1-.92,1.35,4.47,4.47,0,0,0-1,1.23A2.75,2.75,0,0,0,57.13,12a2.86,2.86,0,0,1,.25-1.58,4.58,4.58,0,0,1,.95-1.31,5.38,5.38,0,0,0,.81-1.34,6.17,6.17,0,0,0,.4-1.5h0a.18.18,0,0,1,.19-.16.18.18,0,0,1,.16.2Z"></path>
      <path class="cls-15" d="M62.73,7.69a5.32,5.32,0,0,1-.07,1.39,6.24,6.24,0,0,1-.39,1.32,6,6,0,0,0-.48,1.23,1.81,1.81,0,0,0,0,.65,1,1,0,0,0,.27.58h0a0,0,0,0,1,0,0h0a1.35,1.35,0,0,1-.32-1.29,6.72,6.72,0,0,1,.42-1.29A6.81,6.81,0,0,0,62.38,9a5.57,5.57,0,0,0,0-1.29h0a.18.18,0,0,1,.15-.21.17.17,0,0,1,.2.15Z"></path>
      <path class="cls-15" d="M66.1,10.07a7.52,7.52,0,0,0-.68,1.72,3,3,0,0,0,0,1.83s0,0,0,0,0,0,0,0a2.44,2.44,0,0,1-.22-.93,3.78,3.78,0,0,1,.08-1,5.77,5.77,0,0,1,.24-.93,7.67,7.67,0,0,1,.36-.9A.15.15,0,0,1,66,9.86a.15.15,0,0,1,.07.19h0Z"></path>
      <path class="cls-15" d="M64.5,8.78a10.08,10.08,0,0,1,1.55-.29,4.94,4.94,0,0,1,1.58,0,1.94,1.94,0,0,1,.73.33c.21.15.43.29.65.43a8.46,8.46,0,0,0,1.37.71s0,0,0,0,0,0,0,0A9.11,9.11,0,0,1,69,9.39c-.23-.13-.45-.27-.67-.41a1.72,1.72,0,0,0-.69-.27,4.79,4.79,0,0,0-1.51,0,11.1,11.1,0,0,0-1.49.35h0a.15.15,0,0,1-.2-.1.17.17,0,0,1,.1-.21Z"></path>
      <path class="cls-15" d="M60.64,6.53a19.47,19.47,0,0,0,2.13-.4c.71-.18,1.4-.39,2.09-.63A8.65,8.65,0,0,1,67,5.07a8.31,8.31,0,0,1,2.17.11h0a8.6,8.6,0,0,0-2.15,0,8.3,8.3,0,0,0-2.09.51c-.68.26-1.37.51-2.08.71a21,21,0,0,1-2.15.5.2.2,0,0,1-.21-.16.18.18,0,0,1,.15-.2h0Z"></path>
      <path class="cls-15" d="M58.77,5.72c.6-.4,1.21-.81,1.82-1.18a9.47,9.47,0,0,1,1.94-1,9.78,9.78,0,0,1,2-.58,10,10,0,0,1,2.12-.09,9.82,9.82,0,0,0-2.1.18,10.28,10.28,0,0,0-2,.66,9.11,9.11,0,0,0-1.86,1c-.59.4-1.18.82-1.76,1.25h0a.18.18,0,0,1-.21-.29Z"></path>
      <path class="cls-16" d="M59.7,35.53a70.27,70.27,0,0,0-3.2-10.76,29.35,29.35,0,0,0-2.37-5.08,16,16,0,0,0-3.62-4.3c3.45,1.85,5.58,5.42,7.33,8.79a51,51,0,0,1,3.71,11,1,1,0,0,1-.74,1.11.94.94,0,0,1-1.1-.71Z"></path>
      <path class="cls-14" d="M44.22,15.72s-7.87-6-13,2,6.89,14.12,7.47,17.4c0,0,4.52-7.74,9.2-9.76s8.79-4,7.44-8.19S48.31,13.12,44.22,15.72Z"></path>
      <path class="cls-15" d="M44.46,16A32,32,0,0,0,42,18.78a33,33,0,0,0-2.14,3.11,24.74,24.74,0,0,0-1.66,3.39l-.29.89a7.15,7.15,0,0,0-.27.9c-.18.61-.24,1.23-.36,1.86h0a.05.05,0,0,1-.07.05,0,0,0,0,1,0-.06A10.25,10.25,0,0,1,37.36,27a13.31,13.31,0,0,1,.5-1.85,24.39,24.39,0,0,1,1.63-3.47A32.59,32.59,0,0,1,41.6,18.5a30,30,0,0,1,2.49-2.92.27.27,0,0,1,.37,0,.25.25,0,0,1,0,.36h0Z"></path>
      <path class="cls-15" d="M43.78,16.05a8.15,8.15,0,0,0,1.91.59c.66.12,1.35.13,2,.23a8.33,8.33,0,0,1,2,.46,2.88,2.88,0,0,1,.89.53,1.57,1.57,0,0,1,.45.93,1.74,1.74,0,0,0-.52-.85,3.1,3.1,0,0,0-.88-.47,7.78,7.78,0,0,0-2-.37C47,17,46.34,17.05,45.64,17a13.6,13.6,0,0,1-2-.43.25.25,0,0,1-.17-.32.24.24,0,0,1,.32-.17h0Z"></path>
      <path class="cls-15" d="M42.61,17.63a6.11,6.11,0,0,0,1.07,1.21,5.57,5.57,0,0,0,1.38.88,4.73,4.73,0,0,1,1.48.8,3.07,3.07,0,0,1,1,1.38,3,3,0,0,0-1-1.3A4.44,4.44,0,0,0,45,19.9a5.77,5.77,0,0,1-1.49-.84,6.36,6.36,0,0,1-1.21-1.22.19.19,0,1,1,.31-.23h0Z"></path>
      <path class="cls-15" d="M40.64,20.4a5.47,5.47,0,0,0,.62,1.2,6.35,6.35,0,0,0,.89,1,7.19,7.19,0,0,1,1,1A1.43,1.43,0,0,1,43.47,25s0,0,0,0,0,0,0,0h0a1,1,0,0,0,0-.67,2.3,2.3,0,0,0-.35-.58,6.6,6.6,0,0,0-1-.91,6.9,6.9,0,0,1-1-1,5.5,5.5,0,0,1-.74-1.24.19.19,0,1,1,.35-.15h0Z"></path>
      <path class="cls-15" d="M38.45,24.19a8.13,8.13,0,0,1,1.47,1.34,4.24,4.24,0,0,1,.56.82,2.89,2.89,0,0,1,.28.95s0,0,0,0a0,0,0,0,1,0,0h0a3.16,3.16,0,0,0-.92-1.66,6.22,6.22,0,0,0-.71-.65,7,7,0,0,0-.79-.55h0a.15.15,0,0,1-.05-.2.16.16,0,0,1,.21,0Z"></path>
      <path class="cls-15" d="M39.24,22.77a10.41,10.41,0,0,0-1.55.41,4.92,4.92,0,0,0-1.4.73,1.86,1.86,0,0,0-.49.59c-.12.24-.26.48-.4.71a10.65,10.65,0,0,1-.95,1.33,0,0,0,0,1,0,0s0,0,0,0a9.93,9.93,0,0,0,.89-1.36q.2-.34.36-.72a2,2,0,0,1,.51-.67,5.24,5.24,0,0,1,1.43-.83,10.59,10.59,0,0,1,1.57-.49.17.17,0,0,1,.2.13.16.16,0,0,1-.12.2Z"></path>
      <path class="cls-15" d="M41.82,18.8a22.89,22.89,0,0,1-2.27.58c-.77.16-1.54.29-2.31.38A9.27,9.27,0,0,0,33,21.53h0v0a9.33,9.33,0,0,1,4.21-2c.77-.13,1.52-.28,2.27-.46a22.6,22.6,0,0,0,2.21-.66h0a.19.19,0,1,1,.13.35Z"></path>
      <path class="cls-15" d="M43.05,17.16c-.75-.13-1.51-.24-2.27-.32a9.58,9.58,0,0,0-2.27,0,10.74,10.74,0,0,0-2.25.41,10.57,10.57,0,0,0-2.09.93,10.4,10.4,0,0,1,2.06-1,11,11,0,0,1,2.26-.51,10,10,0,0,1,2.32-.06c.77.06,1.53.14,2.3.24a.19.19,0,0,1,.17.21.19.19,0,0,1-.22.16h0Z"></path>
      <path class="cls-17" d="M59.65,43.35A1.09,1.09,0,0,0,58.58,43c-.6.18-.83.65-.73.82a2.22,2.22,0,0,0,.22.23c.15.14.47-.27.48-.27Z"></path>
      <path class="cls-18" d="M60,44.07s-.18-.81-.49-.82-.65-.06-.65-.06l-.08.15s.3.53.42.57.35.1.41.12A2.05,2.05,0,0,0,60,44.07Z"></path>
      <path class="cls-19" d="M59.94,44.17c0-.07.08-.26-.12-.31a2.93,2.93,0,0,0-.39-.09s-.49.37-.59.43-.16,0,.13.13.27.16.53.13A.82.82,0,0,0,59.94,44.17Z"></path>
      <path class="cls-20" d="M59.43,43.77a3.09,3.09,0,0,0-.36.35c-.14.17-.17.22-.34.14s-.62-.15-.73-.32-.11-.15,0-.36a.92.92,0,0,1,.57-.35.51.51,0,0,1,.57.12A1.39,1.39,0,0,1,59.43,43.77Z"></path>
      <path class="cls-17" d="M57.21,29.58a1.63,1.63,0,0,0-1.66-.24c-.8.45-1,1.19-.79,1.41a3.13,3.13,0,0,0,.38.25c.26.17.59-.52.6-.53Z"></path>
      <path class="cls-18" d="M57.88,30.51s-.52-1.11-1-1-1,.11-1,.11l-.08.24s.6.67.79.7.53,0,.61.05A5.31,5.31,0,0,0,57.88,30.51Z"></path>
      <path class="cls-19" d="M57.87,30.67c0-.11,0-.4-.26-.42a5.16,5.16,0,0,0-.6,0s-.58.68-.7.79-.22.13.22.16.44.14.8,0A1.06,1.06,0,0,0,57.87,30.67Z"></path>
      <path class="cls-20" d="M57,30.25a5.65,5.65,0,0,0-.4.61c-.15.29-.17.37-.45.3s-.93,0-1.14-.23-.21-.19-.07-.53a1.32,1.32,0,0,1,.72-.67.72.72,0,0,1,.85,0A1.81,1.81,0,0,1,57,30.25Z"></path>
      <path class="cls-17" d="M53.92,34.63s-3.43-1.71-5.83.38-2.51,4.77-1.69,5.35a11.58,11.58,0,0,0,1.5.6c1,.37,1.6-2.21,1.66-2.25S53.92,34.63,53.92,34.63Z"></path>
      <path class="cls-18" d="M56.85,37.34s-2.55-3.41-4-2.81-3.14,1.08-3.14,1.08l-.1.86s2.51,1.86,3.17,1.81S54.63,38,54.92,38A14.65,14.65,0,0,0,56.85,37.34Z"></path>
      <path class="cls-19" d="M56.94,37.86c0-.38-.17-1.36-1.19-1.22a14,14,0,0,0-2,.43s-1.5,2.72-1.84,3.19-.64.57.85.38,1.61.15,2.74-.53A3.83,3.83,0,0,0,56.94,37.86Z"></path>
      <path class="cls-20" d="M53.73,37.07a17.59,17.59,0,0,0-.94,2.37c-.31,1.08-.32,1.37-1.31,1.32s-3.18.58-4.06,0-.84-.47-.6-1.72a4.59,4.59,0,0,1,2-2.82,2.55,2.55,0,0,1,2.9-.61A6.57,6.57,0,0,1,53.73,37.07Z"></path>
      <path class="cls-17" d="M65.78,35.35s-2.88-1.69-5.08,0-2.48,4-1.8,4.54a9.59,9.59,0,0,0,1.27.61c.84.38,1.53-1.82,1.58-1.85S65.78,35.35,65.78,35.35Z"></path>
      <path class="cls-18" d="M68.15,37.88s-2-3.11-3.29-2.68-2.8.74-2.8.74l-.13.75s2.06,1.77,2.64,1.76,1.62-.13,1.87-.11A13.4,13.4,0,0,0,68.15,37.88Z"></path>
      <path class="cls-19" d="M68.21,38.33c0-.33-.07-1.18-1-1.13a13.13,13.13,0,0,0-1.78.26S64,39.73,63.68,40.12s-.59.45.71.37,1.39.24,2.41-.29A3.37,3.37,0,0,0,68.21,38.33Z"></path>
      <path class="cls-20" d="M65.46,37.46a14.67,14.67,0,0,0-.95,2c-.34.92-.37,1.18-1.22,1.08s-2.8.31-3.53-.23-.7-.46-.41-1.54a4,4,0,0,1,1.86-2.32,2.21,2.21,0,0,1,2.56-.35A5.64,5.64,0,0,1,65.46,37.46Z"></path>
      <path class="cls-17" d="M73.39,32.31s-2.83-2.19-5.41-.7-3.17,3.92-2.52,4.6a10.13,10.13,0,0,0,1.27.82c.84.51,1.87-1.74,1.93-1.76S73.39,32.31,73.39,32.31Z"></path>
      <path class="cls-18" d="M75.59,35.32S73.87,31.74,72.43,32s-3.07.42-3.07.42l-.25.77s2,2.16,2.58,2.23,1.75.08,2,.13A13.92,13.92,0,0,0,75.59,35.32Z"></path>
      <path class="cls-19" d="M75.58,35.82c0-.36.09-1.27-.87-1.34a14.22,14.22,0,0,0-1.93,0s-1.87,2.23-2.26,2.6-.69.4.71.5,1.45.43,2.61,0A3.6,3.6,0,0,0,75.58,35.82Z"></path>
      <path class="cls-20" d="M72.78,34.51a16.75,16.75,0,0,0-1.29,2c-.48.94-.55,1.21-1.44,1s-3,0-3.73-.71-.68-.59-.23-1.69a4.24,4.24,0,0,1,2.29-2.23,2.38,2.38,0,0,1,2.77,0A6.23,6.23,0,0,1,72.78,34.51Z"></path>
      <path class="cls-17" d="M75.59,41.48a1.73,1.73,0,0,0,1.58-.77c.42-.86.14-1.62-.15-1.69-.08,0-.33,0-.49,0-.32,0-.19.8-.2.82S75.59,41.48,75.59,41.48Z"></path>
      <path class="cls-18" d="M74.47,41.07s1.1.65,1.43.32a9.83,9.83,0,0,1,.75-.66l-.08-.25a3.54,3.54,0,0,0-1.08-.14c-.18.09-.49.29-.57.32A5,5,0,0,0,74.47,41.07Z"></path>
      <path class="cls-19" d="M74.38,40.94a.33.33,0,0,0,.47.2,5.24,5.24,0,0,0,.51-.35s.11-.93.14-1.1.12-.23-.28,0-.46.14-.69.46A1.15,1.15,0,0,0,74.38,40.94Z"></path>
      <path class="cls-20" d="M75.36,40.79a5,5,0,0,0,0-.77c0-.34-.07-.42.21-.52s.82-.53,1.13-.47.28,0,.36.41a1.31,1.31,0,0,1-.22,1,.77.77,0,0,1-.73.51A2,2,0,0,1,75.36,40.79Z"></path>
      <path class="cls-17" d="M48.59,42.09a2.2,2.2,0,0,0,2.07-.85c.61-1.05.33-2,0-2.15a3.71,3.71,0,0,0-.62,0c-.41,0-.31,1-.33,1S48.59,42.09,48.59,42.09Z"></path>
      <path class="cls-18" d="M47.19,41.47s1.34.93,1.8.53,1-.78,1-.78l-.07-.32a4.54,4.54,0,0,0-1.38-.27c-.23.1-.64.33-.74.36A5.68,5.68,0,0,0,47.19,41.47Z"></path>
      <path class="cls-19" d="M47.09,41.29c.06.14.23.47.59.3a6.83,6.83,0,0,0,.68-.41s.21-1.17.27-1.38.17-.29-.35,0-.61.14-.93.52A1.48,1.48,0,0,0,47.09,41.29Z"></path>
      <path class="cls-20" d="M48.36,41.18a6.66,6.66,0,0,0,0-1c0-.43,0-.54.31-.64s1.09-.6,1.47-.51.37.07.43.56a1.73,1.73,0,0,1-.36,1.26,1,1,0,0,1-1,.57A2.5,2.5,0,0,1,48.36,41.18Z"></path>
      <path class="cls-17" d="M58.08,36.67a1.29,1.29,0,0,0,1.28.23c.63-.33.8-.91.65-1.07a2,2,0,0,0-.29-.21c-.2-.13-.47.39-.48.4Z"></path>
      <path class="cls-18" d="M57.59,35.93s.37.88.72.82.74-.07.74-.07l.06-.18s-.44-.53-.59-.56-.41,0-.48,0A4.41,4.41,0,0,0,57.59,35.93Z"></path>
      <path class="cls-19" d="M57.6,35.82c0,.08,0,.3.19.32a3,3,0,0,0,.46,0s.47-.52.57-.6.16-.09-.17-.12-.34-.12-.62,0A.81.81,0,0,0,57.6,35.82Z"></path>
      <path class="cls-20" d="M58.25,36.16a3.49,3.49,0,0,0,.33-.47c.12-.21.14-.28.35-.22s.72,0,.88.21.16.15,0,.41a1,1,0,0,1-.57.5.55.55,0,0,1-.66,0A1.37,1.37,0,0,1,58.25,36.16Z"></path>
      <path class="cls-17" d="M69.63,41.55s3.22.78,4.84-1.44,1.2-4.51.4-4.84a10.23,10.23,0,0,0-1.38-.21c-.91-.12-.93,2.17-1,2.21S69.63,41.55,69.63,41.55Z"></path>
      <path class="cls-18" d="M66.64,39.83s2.8,2.39,3.91,1.6S73,39.92,73,39.92l-.08-.75s-2.47-1.09-3-.91-1.51.59-1.75.64A12.74,12.74,0,0,0,66.64,39.83Z"></path>
      <path class="cls-19" d="M66.46,39.42c.1.31.41,1.1,1.24.79a12.77,12.77,0,0,0,1.62-.75s.74-2.59.93-3,.44-.61-.78-.16-1.39.18-2.21,1A3.35,3.35,0,0,0,66.46,39.42Z"></path>
      <path class="cls-20" d="M69.32,39.46a14.49,14.49,0,0,0,.34-2.18c0-1,0-1.22.84-1.36s2.58-1.11,3.43-.8.8.24.83,1.34a4,4,0,0,1-1.1,2.74,2.21,2.21,0,0,1-2.33,1.08A5.83,5.83,0,0,1,69.32,39.46Z"></path>
      <path class="cls-17" d="M54.77,39.69s1.94,1.09,3.38,0,1.59-2.69,1.13-3a6.49,6.49,0,0,0-.85-.39c-.56-.24-1,1.24-1,1.26S54.77,39.69,54.77,39.69Z"></path>
      <path class="cls-18" d="M53.16,38s1.37,2,2.23,1.74,1.84-.53,1.84-.53l.08-.5s-1.39-1.15-1.77-1.13-1.08.1-1.25.09A9.6,9.6,0,0,0,53.16,38Z"></path>
      <path class="cls-19" d="M53.12,37.74c0,.22.06.79.66.74A9.26,9.26,0,0,0,55,38.29s.94-1.53,1.14-1.79.39-.32-.48-.25-.92-.13-1.59.23A2.24,2.24,0,0,0,53.12,37.74Z"></path>
      <path class="cls-20" d="M55,38.29a11.14,11.14,0,0,0,.6-1.34c.21-.62.23-.79.8-.73s1.85-.25,2.34.1.48.3.3,1a2.63,2.63,0,0,1-1.21,1.56,1.46,1.46,0,0,1-1.69.27A3.78,3.78,0,0,1,55,38.29Z"></path>
    </g>
  </g>
</svg>
