<?xml version="1.0" encoding="UTF-8"?>
<svg xmlns="http://www.w3.org/2000/svg" xmlns:xlink="http://www.w3.org/1999/xlink" viewBox="0 0 101.86 229.73">
  <defs>
    <style>.cls-1{fill:#63411e;}.cls-2{fill:#956d4b;}.cls-3{fill:#44281c;}.cls-4{fill:#714d31;}.cls-5{fill:#613922;}.cls-6{fill:#7f5637;}.cls-7{fill:#a07850;}.cls-8{fill:url(#Безымянный_градиент_26);}.cls-9{fill:url(#Безымянный_градиент_7);}.cls-10{fill:#d7b389;}.cls-11{fill:#93c6ee;}.cls-12{fill:#c9e2f6;}.cls-13{fill:#aed4f2;}</style>
    <radialGradient id="Безымянный_градиент_26" cx="47.79" cy="211.65" r="54.35" gradientTransform="translate(97.44 328.51) rotate(179.09) scale(1 0.56)" gradientUnits="userSpaceOnUse">
      <stop offset="0.02" stop-color="#a07450"></stop>
      <stop offset="0.27" stop-color="#9a6d4a"></stop>
      <stop offset="0.62" stop-color="#8a5b39"></stop>
      <stop offset="1" stop-color="#72401f"></stop>
    </radialGradient>
    <linearGradient id="Безымянный_градиент_7" x1="33.91" y1="323.58" x2="55.06" y2="188.13" gradientUnits="userSpaceOnUse">
      <stop offset="0.38" stop-color="#a17551"></stop>
      <stop offset="0.91" stop-color="#794826"></stop>
      <stop offset="1" stop-color="#72401f"></stop>
    </linearGradient>
  </defs>
  <g id="Слой_2" data-name="Слой 2">
    <g id="Слой_1-2" data-name="Слой 1">
      <path class="cls-1" d="M3.09,144.76,100,146.32s.91-16.95,0-19.84C98.7,122.29,91.3,109.9,54.64,109S4.53,119.61,2.48,125.44,3.09,144.76,3.09,144.76Z"></path>
      <polygon class="cls-2" points="8.29 184.92 3.09 149.94 98.7 149.94 95 184.66 8.29 184.92"></polygon>
      <path class="cls-3" d="M39.12,179.88a7.43,7.43,0,0,0-2.47-1.45v0s-3.28-1-5.07,1.23-1.48,4.59-.67,5a11.87,11.87,0,0,0,1.41.3s.05,0,.09,0a26,26,0,0,0,3-.69,1.58,1.58,0,0,0,.52-.14l.57-.16c1.28-.4,1.44-.11,2.33-.89a3.47,3.47,0,0,0,.95-2.21,2.68,2.68,0,0,0-.18-.43h0l0,0A.81.81,0,0,0,39.12,179.88Z"></path>
      <path class="cls-3" d="M21.5,182.77A9.4,9.4,0,0,0,18,183.92v0s-3.73,2.34-3.12,5.94,3.18,5.33,4.24,4.87a14.78,14.78,0,0,0,1.49-1.11s0-.09,0-.12c.79-.91,1.38-2.74,1.91-3.52a1.77,1.77,0,0,0,.31-.62l.33-.69c.7-1.58,1.11-1.48,1.12-3A4.41,4.41,0,0,0,23,182.86a2.83,2.83,0,0,0-.57-.2v0h-.07A1.07,1.07,0,0,0,21.5,182.77Z"></path>
      <path class="cls-3" d="M37.29,189.11a2.82,2.82,0,0,0-1.09-.27h0a2,2,0,0,0-1.77,1c-.43,1,0,1.89.3,1.94a3.14,3.14,0,0,0,.57,0l0,0a8.16,8.16,0,0,0,1.07-.6.5.5,0,0,0,.18-.11l.19-.12c.44-.29.53-.2.78-.59a1.36,1.36,0,0,0,.11-.94l-.12-.14h0A.31.31,0,0,0,37.29,189.11Z"></path>
      <path class="cls-3" d="M78.17,180.74a1.86,1.86,0,0,0-.1-.77h0s-.33-.88-1.1-.9-1.24.44-1.19.68a2.15,2.15,0,0,0,.17.35s0,0,0,0a6,6,0,0,0,.65.55.41.41,0,0,0,.12.09l.13.1c.3.21.26.29.57.35a.92.92,0,0,0,.64-.16.36.36,0,0,0,.06-.11h0A.28.28,0,0,0,78.17,180.74Z"></path>
      <path class="cls-3" d="M89.82,194.79a9.57,9.57,0,0,0-1.65-3.32h0s-2.87-3.39-6.38-2.26-4.86,3.95-4.24,4.94a12.48,12.48,0,0,0,1.32,1.32s.09,0,.12,0c1,.66,2.94,1,3.79,1.4a2,2,0,0,0,.67.22c.19.06.39.13.73.22,1.68.47,1.65.9,3.16.69A4.45,4.45,0,0,0,90,196.28a2.58,2.58,0,0,0,.11-.6h0l0-.06A1.06,1.06,0,0,0,89.82,194.79Z"></path>
      <path class="cls-3" d="M67.15,183.26a7.06,7.06,0,0,0-1.62,2.33l0,0s-1.21,3.19.84,5.12,4.44,1.81,4.88,1a11.11,11.11,0,0,0,.4-1.38s0-.06,0-.09a24.5,24.5,0,0,0-.46-3.06,1.38,1.38,0,0,0-.1-.53c0-.15-.06-.31-.12-.58-.3-1.3,0-1.43-.7-2.37a3.43,3.43,0,0,0-2.12-1.1,1.9,1.9,0,0,0-.44.15v0l0,0A.81.81,0,0,0,67.15,183.26Z"></path>
      <path class="cls-4" d="M67.31,207a1.39,1.39,0,0,0,1.36-.36c.47-.61.37-1.25.15-1.35l-.38-.07c-.26,0-.28.6-.29.61Z"></path>
      <path class="cls-5" d="M66.49,206.52s.76.69,1.07.48a8,8,0,0,1,.7-.4l0-.21a3,3,0,0,0-.83-.28l-.5.17A3,3,0,0,0,66.49,206.52Z"></path>
      <path class="cls-6" d="M66.44,206.41c0,.08.11.31.34.23a3.23,3.23,0,0,0,.46-.2s.23-.71.28-.84.13-.16-.21,0-.39,0-.63.25A1,1,0,0,0,66.44,206.41Z"></path>
      <path class="cls-7" d="M67.24,206.44a3.81,3.81,0,0,0,.11-.6c0-.27,0-.34.25-.38s.72-.28,1-.19.22.07.22.38a1.13,1.13,0,0,1-.33.76.63.63,0,0,1-.66.28A1.66,1.66,0,0,1,67.24,206.44Z"></path>
      <path class="cls-4" d="M58,201.71s2.08.11,2.82-1.45.22-2.92-.31-3a5.61,5.61,0,0,0-.88,0c-.57,0-.32,1.44-.34,1.47S58,201.71,58,201.71Z"></path>
      <path class="cls-5" d="M56,201s2,1.15,2.59.54,1.34-1.22,1.34-1.22l-.14-.45a6.4,6.4,0,0,0-2-.21c-.32.17-.86.53-1,.6A7.94,7.94,0,0,0,56,201Z"></path>
      <path class="cls-6" d="M55.83,200.76c.1.18.38.63.86.34a8.34,8.34,0,0,0,.91-.65s.16-1.68.22-2,.2-.42-.5,0-.84.27-1.25.86A2.06,2.06,0,0,0,55.83,200.76Z"></path>
      <path class="cls-7" d="M57.6,200.45a10.82,10.82,0,0,0,0-1.38c-.08-.6-.14-.75.36-.94s1.46-1,2-.89.52.06.67.73a2.46,2.46,0,0,1-.36,1.82,1.39,1.39,0,0,1-1.32.93A3.47,3.47,0,0,1,57.6,200.45Z"></path>
      <path class="cls-4" d="M49.38,208.45s1.62,1.23,3.08.38,1.77-2.24,1.4-2.63a6.62,6.62,0,0,0-.72-.46c-.48-.28-1,1-1.09,1Z"></path>
      <path class="cls-5" d="M48.12,206.76s1,2,1.81,1.85a17,17,0,0,1,1.74-.25l.14-.44s-1.13-1.22-1.48-1.25-1,0-1.14-.07A7.46,7.46,0,0,0,48.12,206.76Z"></path>
      <path class="cls-6" d="M48.12,206.48c0,.2,0,.72.51.75a7.54,7.54,0,0,0,1.09,0s1.05-1.27,1.27-1.48.39-.24-.41-.28-.82-.24-1.47,0A2.07,2.07,0,0,0,48.12,206.48Z"></path>
      <path class="cls-7" d="M49.72,207.2a8.58,8.58,0,0,0,.72-1.14c.27-.53.31-.68.81-.56s1.72,0,2.12.38.39.33.14,1a2.41,2.41,0,0,1-1.29,1.28,1.37,1.37,0,0,1-1.57,0A3.52,3.52,0,0,1,49.72,207.2Z"></path>
      <path class="cls-4" d="M45.66,202.86a2.3,2.3,0,0,0,.08-2.36c-.75-1.06-1.83-1.21-2.09-.9a3.31,3.31,0,0,0-.31.58c-.18.38.83.74.84.76Z"></path>
      <path class="cls-5" d="M44.45,203.94s1.48-.89,1.29-1.5-.31-1.32-.31-1.32l-.34-.07s-.85.94-.86,1.21,0,.76,0,.87A6.15,6.15,0,0,0,44.45,203.94Z"></path>
      <path class="cls-6" d="M44.23,204c.16,0,.56,0,.54-.44a5.65,5.65,0,0,0-.09-.83s-1-.72-1.21-.87-.21-.28-.19.33-.13.64.1,1.13A1.58,1.58,0,0,0,44.23,204Z"></path>
      <path class="cls-7" d="M44.68,202.69a6.64,6.64,0,0,0-.92-.48c-.42-.16-.54-.18-.48-.58s-.11-1.31.15-1.64.23-.32.73-.17a1.85,1.85,0,0,1,1.05.9,1,1,0,0,1,.13,1.2A2.67,2.67,0,0,1,44.68,202.69Z"></path>
      <path class="cls-4" d="M38.3,204.61a1,1,0,0,0,.34-1c-.17-.53-.6-.73-.75-.64l-.2.2c-.13.14.25.41.25.43Z"></path>
      <path class="cls-5" d="M37.67,204.9s.72-.18.72-.46,0-.58,0-.58l-.13-.07s-.47.28-.51.39-.08.32-.1.36A2.49,2.49,0,0,0,37.67,204.9Z"></path>
      <path class="cls-6" d="M37.57,204.88c.07,0,.24.07.28-.11a2.61,2.61,0,0,0,.07-.36s-.34-.43-.39-.51-.05-.14-.12.11-.13.25-.1.48A.66.66,0,0,0,37.57,204.88Z"></path>
      <path class="cls-7" d="M37.92,204.41a2.34,2.34,0,0,0-.32-.31c-.15-.12-.2-.15-.12-.3s.12-.56.27-.66.14-.11.32,0a.77.77,0,0,1,.32.51.44.44,0,0,1-.1.51A1,1,0,0,1,37.92,204.41Z"></path>
      <path class="cls-4" d="M36.05,208.67s1.42-2.29.12-4.11S33,202.49,32.53,203a7.63,7.63,0,0,0-.52,1c-.32.67,1.45,1.27,1.47,1.31S36.05,208.67,36.05,208.67Z"></path>
      <path class="cls-5" d="M34,210.54s2.55-1.56,2.23-2.61-.55-2.27-.55-2.27l-.6-.13s-1.46,1.63-1.47,2.1.07,1.31.06,1.52A10.27,10.27,0,0,0,34,210.54Z"></path>
      <path class="cls-6" d="M33.59,210.57c.27,0,1,0,.94-.76a11.07,11.07,0,0,0-.17-1.44s-1.81-1.23-2.12-1.49-.35-.49-.32.57-.21,1.12.19,2A2.66,2.66,0,0,0,33.59,210.57Z"></path>
      <path class="cls-7" d="M34.36,208.37a12.66,12.66,0,0,0-1.6-.81c-.73-.29-.94-.32-.84-1s-.2-2.27.25-2.85.39-.55,1.25-.3A3.22,3.22,0,0,1,35.26,205,1.81,1.81,0,0,1,35.5,207,4.78,4.78,0,0,1,34.36,208.37Z"></path>
      <path class="cls-8" d="M9.8,210.54,8.29,184.92s43-22.09,86.71-.26l-1.68,25.88Z"></path>
      <ellipse class="cls-9" cx="51.56" cy="210.54" rx="41.76" ry="19.2"></ellipse>
      <path class="cls-4" d="M70.56,206.87a1.39,1.39,0,0,0,1.36-.36c.47-.61.37-1.25.15-1.35l-.39-.07c-.25,0-.27.6-.28.61Z"></path>
      <path class="cls-5" d="M69.74,206.36s.76.69,1.07.48.7-.4.7-.4l0-.21a3,3,0,0,0-.83-.28l-.5.17A3,3,0,0,0,69.74,206.36Z"></path>
      <path class="cls-6" d="M69.69,206.25c0,.08.1.31.34.23a3.23,3.23,0,0,0,.46-.2s.23-.71.28-.84.13-.16-.22-.05-.38,0-.62.26A1,1,0,0,0,69.69,206.25Z"></path>
      <path class="cls-7" d="M70.49,206.28a3.81,3.81,0,0,0,.11-.6c0-.27,0-.34.25-.37s.72-.29,1-.2.22.08.22.38a1.11,1.11,0,0,1-.33.76.63.63,0,0,1-.66.28A1.66,1.66,0,0,1,70.49,206.28Z"></path>
      <path class="cls-4" d="M61.28,201.55s2.08.11,2.82-1.45.22-2.92-.31-3a5.61,5.61,0,0,0-.88,0c-.57,0-.32,1.44-.34,1.48S61.28,201.55,61.28,201.55Z"></path>
      <path class="cls-5" d="M59.24,200.83s2,1.15,2.59.54,1.33-1.22,1.33-1.22L63,199.7a6.4,6.4,0,0,0-2-.21c-.32.17-.86.53-1,.6A7.94,7.94,0,0,0,59.24,200.83Z"></path>
      <path class="cls-6" d="M59.08,200.6c.1.18.38.63.86.34a7,7,0,0,0,.91-.65s.16-1.68.22-2,.2-.42-.5,0-.84.28-1.25.86A2.06,2.06,0,0,0,59.08,200.6Z"></path>
      <path class="cls-7" d="M60.85,200.29a9.78,9.78,0,0,0-.05-1.38c-.07-.6-.13-.75.37-.94s1.46-1,2-.89.52.06.67.73a2.52,2.52,0,0,1-.37,1.82,1.37,1.37,0,0,1-1.31.93A3.47,3.47,0,0,1,60.85,200.29Z"></path>
      <path class="cls-4" d="M52.63,208.29s1.62,1.23,3.08.38,1.77-2.24,1.4-2.63a6.78,6.78,0,0,0-.72-.45c-.48-.29-1,1-1.09,1Z"></path>
      <path class="cls-5" d="M51.37,206.6s1,2,1.81,1.85a17,17,0,0,1,1.74-.25l.14-.44s-1.13-1.22-1.48-1.25-1,0-1.14-.07A7.46,7.46,0,0,0,51.37,206.6Z"></path>
      <path class="cls-6" d="M51.37,206.32c0,.2,0,.72.51.75A7.63,7.63,0,0,0,53,207s1.05-1.27,1.27-1.48.39-.23-.41-.28-.82-.24-1.48,0A2,2,0,0,0,51.37,206.32Z"></path>
      <path class="cls-7" d="M53,207a9.88,9.88,0,0,0,.72-1.14c.27-.53.31-.68.81-.56s1.72,0,2.12.39.39.33.14,1A2.44,2.44,0,0,1,55.47,208a1.35,1.35,0,0,1-1.57,0A3.52,3.52,0,0,1,53,207Z"></path>
      <path class="cls-4" d="M48.91,202.71a2.32,2.32,0,0,0,.08-2.37c-.75-1.05-1.83-1.21-2.1-.9a4.28,4.28,0,0,0-.3.58c-.19.39.83.74.84.76S48.91,202.71,48.91,202.71Z"></path>
      <path class="cls-5" d="M47.7,203.78s1.47-.89,1.29-1.5-.31-1.31-.31-1.31l-.34-.08s-.86.94-.86,1.21,0,.76,0,.88A6.36,6.36,0,0,0,47.7,203.78Z"></path>
      <path class="cls-6" d="M47.48,203.8c.16,0,.56,0,.54-.44a5.65,5.65,0,0,0-.09-.83s-1-.72-1.21-.87-.21-.28-.19.33-.13.64.1,1.13A1.58,1.58,0,0,0,47.48,203.8Z"></path>
      <path class="cls-7" d="M47.93,202.53a6,6,0,0,0-.92-.47c-.42-.17-.54-.19-.48-.58s-.11-1.31.15-1.65.23-.32.73-.17a1.85,1.85,0,0,1,1.05.9,1,1,0,0,1,.13,1.2A2.53,2.53,0,0,1,47.93,202.53Z"></path>
      <path class="cls-4" d="M41.55,204.45a1,1,0,0,0,.34-1c-.18-.53-.6-.73-.75-.64l-.2.2c-.13.14.25.42.25.43Z"></path>
      <path class="cls-5" d="M40.91,204.74s.73-.18.73-.45a5.39,5.39,0,0,1,0-.59l-.13-.07s-.47.28-.51.39-.08.32-.1.36A2.73,2.73,0,0,0,40.91,204.74Z"></path>
      <path class="cls-6" d="M40.82,204.72c.07,0,.23.07.28-.11a2.35,2.35,0,0,0,.07-.36s-.34-.42-.39-.51-.05-.14-.12.11-.14.25-.1.48A.66.66,0,0,0,40.82,204.72Z"></path>
      <path class="cls-7" d="M41.17,204.25a2.34,2.34,0,0,0-.32-.31c-.15-.12-.2-.15-.12-.3s.12-.56.27-.66.13-.11.32,0a.8.8,0,0,1,.32.51.44.44,0,0,1-.1.51A1,1,0,0,1,41.17,204.25Z"></path>
      <path class="cls-4" d="M39.3,208.51s1.42-2.29.12-4.1-3.18-2.08-3.64-1.54a8.32,8.32,0,0,0-.52,1c-.32.67,1.44,1.27,1.47,1.31S39.3,208.51,39.3,208.51Z"></path>
      <path class="cls-5" d="M37.21,210.38s2.55-1.56,2.23-2.61-.55-2.27-.55-2.27l-.6-.13s-1.46,1.63-1.47,2.1.07,1.32.06,1.52A10.27,10.27,0,0,0,37.21,210.38Z"></path>
      <path class="cls-6" d="M36.84,210.41c.27,0,1,0,.93-.75a10.15,10.15,0,0,0-.16-1.45s-1.81-1.22-2.12-1.49-.36-.48-.32.57-.21,1.12.19,2A2.66,2.66,0,0,0,36.84,210.41Z"></path>
      <path class="cls-7" d="M37.61,208.21a12.66,12.66,0,0,0-1.6-.81c-.74-.29-.94-.31-.84-1s-.2-2.27.25-2.84.39-.56,1.25-.31a3.26,3.26,0,0,1,1.84,1.55,1.79,1.79,0,0,1,.23,2.07A4.64,4.64,0,0,1,37.61,208.21Z"></path>
      <path class="cls-3" d="M23.64,170.82a7.38,7.38,0,0,0-2.46-1.45v0s-3.29-1-5.08,1.23-1.48,4.59-.67,5a10.89,10.89,0,0,0,1.42.29s.05,0,.08,0a25.62,25.62,0,0,0,3-.68,1.73,1.73,0,0,0,.53-.14c.14,0,.3-.08.56-.17,1.29-.39,1.45-.11,2.34-.88a3.43,3.43,0,0,0,.94-2.21,2,2,0,0,0-.18-.43h0l0,0A.82.82,0,0,0,23.64,170.82Z"></path>
      <path class="cls-3" d="M59.48,179.39a4.8,4.8,0,0,0-1.76.58h0s-1.88,1.18-1.57,3,1.6,2.69,2.13,2.46a7.18,7.18,0,0,0,.75-.56s0,0,0-.06A15.13,15.13,0,0,0,60,183a.91.91,0,0,0,.16-.31l.16-.35c.36-.79.57-.75.57-1.51a2.26,2.26,0,0,0-.67-1.4,1,1,0,0,0-.29-.1h0A.55.55,0,0,0,59.48,179.39Z"></path>
      <path class="cls-3" d="M32.06,184.56a3,3,0,0,0-1.09-.27h0a2,2,0,0,0-1.77,1c-.43,1-.05,1.89.3,1.94a3.14,3.14,0,0,0,.57,0s0,0,0,0a8.71,8.71,0,0,0,1.07-.59.82.82,0,0,0,.18-.11l.2-.13c.43-.29.53-.2.77-.59a1.36,1.36,0,0,0,.11-.94l-.12-.14h0A.34.34,0,0,0,32.06,184.56Z"></path>
      <path class="cls-3" d="M83.3,174.17a1.91,1.91,0,0,0-.1-.78h0s-.33-.87-1.11-.89-1.24.43-1.18.67a1.86,1.86,0,0,0,.17.36h0a6.14,6.14,0,0,0,.65.55l.12.09.13.09c.29.21.26.3.57.36a.92.92,0,0,0,.64-.16.36.36,0,0,0,.06-.11h0A.28.28,0,0,0,83.3,174.17Z"></path>
      <path class="cls-3" d="M88.18,191.58a9.44,9.44,0,0,0-1.65-3.31h0s-2.87-3.39-6.38-2.26-4.86,3.95-4.24,4.94a12.48,12.48,0,0,0,1.32,1.32s.09,0,.12,0c1,.66,2.94,1,3.79,1.4a2,2,0,0,0,.67.22c.19.06.39.13.73.22,1.68.48,1.65.9,3.16.69a4.45,4.45,0,0,0,2.59-1.74,2.58,2.58,0,0,0,.11-.6h0l0-.07A1.06,1.06,0,0,0,88.18,191.58Z"></path>
      <path class="cls-3" d="M16.81,186.14a7.19,7.19,0,0,0-1.61,2.33l0,0s-1.22,3.19.84,5.12,4.44,1.81,4.88,1a11.11,11.11,0,0,0,.4-1.38s0-.06,0-.09a24.6,24.6,0,0,0-.45-3.06,1.34,1.34,0,0,0-.1-.53c0-.15-.06-.31-.12-.58-.3-1.3,0-1.43-.7-2.37a3.43,3.43,0,0,0-2.12-1.1,1.76,1.76,0,0,0-.44.15v0l0,0A.86.86,0,0,0,16.81,186.14Z"></path>
      <ellipse class="cls-3" cx="50.9" cy="151.76" rx="47.8" ry="19.2"></ellipse>
      <path class="cls-1" d="M0,128.64l9.8,81.9S8.29,222.09,35.72,228.3c0,0,22.94,4.88,45.19-4.11,0,0,9.11-4.53,12.41-10.73l8.47-84.82s1.87,6.83-13.35,14l-7.53,68.59s-24.2,13.2-52.15,1.07l-9.19-67.93S0,139.72,0,128.64Z"></path>
      <path class="cls-10" d="M50.9,108.21c-28.11,0-50.9,9.15-50.9,20.43,0,6.55,7.66,12.38,19.57,16.12h0a5.5,5.5,0,0,1,.75-.39c-11.26-3.62-18.49-9.49-18.49-15.73,0-10.88,22-19.69,49.07-19.69S100,117.76,100,128.64c0,5.25-5,10.3-13.39,13.84.49.17,1.87.48,1.87.48,8.33-3.64,13.35-9,13.35-14.32C101.79,117.36,79,108.21,50.9,108.21Z"></path>
      <path class="cls-10" d="M19.57,144.69l9.19,67.93S52.09,225,80.91,211.55L88.44,143l-1.87-.48-6.36,68.7s-24.77,13.12-50.62.9l-9.27-67.71Z"></path>
      <path class="cls-4" d="M48.77,156.22a1.38,1.38,0,0,0-1.33-.49c-.74.22-1,.81-.9,1a2.23,2.23,0,0,0,.27.28c.19.18.58-.33.59-.34S48.77,156.22,48.77,156.22Z"></path>
      <path class="cls-5" d="M49.16,157.1s-.23-1-.61-1-.81-.07-.81-.07l-.1.18s.37.66.52.71.44.12.5.15A3.41,3.41,0,0,0,49.16,157.1Z"></path>
      <path class="cls-6" d="M49.13,157.23c0-.09.09-.32-.15-.39a3.49,3.49,0,0,0-.49-.1s-.6.46-.72.53-.2.06.15.16.34.2.66.16A.94.94,0,0,0,49.13,157.23Z"></path>
      <path class="cls-7" d="M48.49,156.74a3.6,3.6,0,0,0-.44.43c-.18.21-.21.27-.42.17s-.77-.19-.91-.4-.13-.19,0-.44a1.12,1.12,0,0,1,.71-.43.61.61,0,0,1,.71.15A1.67,1.67,0,0,1,48.49,156.74Z"></path>
      <path class="cls-4" d="M45.75,139.16a2,2,0,0,0-2.06-.3c-1,.55-1.23,1.48-1,1.74a3.58,3.58,0,0,0,.48.32c.31.2.72-.65.74-.66Z"></path>
      <path class="cls-5" d="M46.57,140.31s-.64-1.37-1.19-1.27-1.17.15-1.17.15l-.1.29s.74.83,1,.86.67,0,.77.06A5.39,5.39,0,0,0,46.57,140.31Z"></path>
      <path class="cls-6" d="M46.57,140.5c0-.13,0-.48-.33-.51a5.24,5.24,0,0,0-.74,0s-.72.84-.87,1-.27.15.27.19.55.18,1,0A1.39,1.39,0,0,0,46.57,140.5Z"></path>
      <path class="cls-7" d="M45.5,140a6.27,6.27,0,0,0-.5.76c-.19.35-.21.45-.55.36s-1.15,0-1.42-.29-.26-.22-.08-.64a1.65,1.65,0,0,1,.88-.84.91.91,0,0,1,1.06,0A2.35,2.35,0,0,1,45.5,140Z"></path>
      <path class="cls-4" d="M41.67,145.42s-4.25-2.13-7.22.46-3.11,5.92-2.1,6.63a13.62,13.62,0,0,0,1.86.75c1.23.45,2-2.74,2.06-2.79S41.67,145.42,41.67,145.42Z"></path>
      <path class="cls-5" d="M45.29,148.77s-3.15-4.22-4.94-3.48-3.9,1.33-3.9,1.33l-.12,1.08s3.11,2.3,3.93,2.23,2.29-.34,2.65-.34A19.41,19.41,0,0,0,45.29,148.77Z"></path>
      <path class="cls-6" d="M45.42,149.41c0-.47-.22-1.68-1.49-1.51a19.3,19.3,0,0,0-2.5.53s-1.86,3.38-2.27,4-.79.7,1.05.47,2,.19,3.4-.66A4.8,4.8,0,0,0,45.42,149.41Z"></path>
      <path class="cls-7" d="M41.43,148.43a21.5,21.5,0,0,0-1.16,2.94c-.38,1.33-.4,1.7-1.62,1.64s-3.94.72-5,0-1-.59-.74-2.14,1-2.28,2.41-3.49a3.17,3.17,0,0,1,3.6-.75A8.17,8.17,0,0,1,41.43,148.43Z"></path>
      <path class="cls-4" d="M56.36,146.31s-3.57-2.1-6.3,0-3.06,4.94-2.22,5.63a11.18,11.18,0,0,0,1.57.75c1,.47,1.89-2.25,2-2.29S56.36,146.31,56.36,146.31Z"></path>
      <path class="cls-5" d="M59.3,149.44s-2.48-3.86-4.08-3.33-3.46.93-3.46.93l-.17.92s2.55,2.19,3.27,2.18,2-.16,2.32-.14A15.71,15.71,0,0,0,59.3,149.44Z"></path>
      <path class="cls-6" d="M59.37,150c0-.41-.09-1.47-1.2-1.4a16.56,16.56,0,0,0-2.2.31s-1.82,2.82-2.21,3.3-.73.56.88.47,1.72.28,3-.36A4.19,4.19,0,0,0,59.37,150Z"></path>
      <path class="cls-7" d="M56,148.91a19.66,19.66,0,0,0-1.19,2.48c-.41,1.14-.45,1.45-1.5,1.33s-3.47.38-4.37-.28-.87-.58-.51-1.91,1-1.91,2.3-2.87a2.74,2.74,0,0,1,3.17-.44A7.19,7.19,0,0,1,56,148.91Z"></path>
      <path class="cls-4" d="M65.79,142.54s-3.51-2.71-6.7-.87-3.92,4.86-3.12,5.7a12.81,12.81,0,0,0,1.57,1c1,.64,2.32-2.15,2.39-2.18S65.79,142.54,65.79,142.54Z"></path>
      <path class="cls-5" d="M68.51,146.27s-2.13-4.44-3.91-4.08-3.81.52-3.81.52l-.3,1s2.43,2.67,3.19,2.76,2.17.1,2.5.16A17.51,17.51,0,0,0,68.51,146.27Z"></path>
      <path class="cls-6" d="M68.5,146.88c0-.44.11-1.57-1.08-1.65a16.37,16.37,0,0,0-2.39,0s-2.32,2.76-2.8,3.21-.85.51.88.62,1.8.54,3.23,0A4.46,4.46,0,0,0,68.5,146.88Z"></path>
      <path class="cls-7" d="M65,145.27a20.77,20.77,0,0,0-1.6,2.48c-.59,1.15-.67,1.49-1.78,1.21s-3.74-.05-4.62-.89-.84-.72-.29-2.09,1.35-1.91,2.84-2.76a3,3,0,0,1,3.44,0A7.7,7.7,0,0,1,65,145.27Z"></path>
      <path class="cls-4" d="M68.51,153.9a2.12,2.12,0,0,0,1.95-1c.53-1.06.19-2-.18-2.08a3.09,3.09,0,0,0-.6,0c-.39,0-.24,1-.25,1S68.51,153.9,68.51,153.9Z"></path>
      <path class="cls-5" d="M67.12,153.39s1.36.81,1.78.4a10.86,10.86,0,0,1,.92-.82l-.09-.32a4.19,4.19,0,0,0-1.34-.16c-.22.11-.6.36-.7.4A5.29,5.29,0,0,0,67.12,153.39Z"></path>
      <path class="cls-6" d="M67,153.23c.07.12.26.44.59.24a5.74,5.74,0,0,0,.63-.43s.13-1.15.18-1.36.14-.29-.35,0-.58.18-.87.57A1.45,1.45,0,0,0,67,153.23Z"></path>
      <path class="cls-7" d="M68.23,153a7.53,7.53,0,0,0,0-.95c0-.42-.09-.52.26-.64s1-.66,1.39-.59.36,0,.45.51a1.66,1.66,0,0,1-.27,1.24,1,1,0,0,1-.91.63A2.57,2.57,0,0,1,68.23,153Z"></path>
      <path class="cls-4" d="M35.06,154.66a2.71,2.71,0,0,0,2.57-1.06c.76-1.3.41-2.53-.05-2.66a5.3,5.3,0,0,0-.77-.05c-.5,0-.38,1.24-.41,1.27Z"></path>
      <path class="cls-5" d="M33.33,153.88s1.67,1.15,2.23.66a15.26,15.26,0,0,1,1.25-1l-.09-.4a5.7,5.7,0,0,0-1.7-.34c-.29.13-.79.41-.92.45A7.89,7.89,0,0,0,33.33,153.88Z"></path>
      <path class="cls-6" d="M33.21,153.67c.07.16.29.58.73.36a6.16,6.16,0,0,0,.84-.5s.26-1.45.34-1.71.2-.36-.44,0-.75.17-1.15.65A1.82,1.82,0,0,0,33.21,153.67Z"></path>
      <path class="cls-7" d="M34.78,153.53a7.68,7.68,0,0,0,.06-1.21c0-.53-.06-.67.39-.79s1.34-.75,1.82-.63.45.09.54.69a2.16,2.16,0,0,1-.45,1.56,1.22,1.22,0,0,1-1.22.72A3.24,3.24,0,0,1,34.78,153.53Z"></path>
      <path class="cls-4" d="M46.83,147.94a1.55,1.55,0,0,0,1.58.28c.78-.4,1-1.12.8-1.33a4.12,4.12,0,0,0-.36-.25c-.24-.17-.57.49-.59.49Z"></path>
      <path class="cls-5" d="M46.22,147s.46,1.08.89,1S48,148,48,148l.08-.23s-.55-.66-.73-.69-.52,0-.59-.06A3.86,3.86,0,0,0,46.22,147Z"></path>
      <path class="cls-6" d="M46.22,146.88c0,.11,0,.38.25.41a3.74,3.74,0,0,0,.57,0s.57-.63.69-.73.21-.11-.2-.16-.42-.15-.77,0A1.11,1.11,0,0,0,46.22,146.88Z"></path>
      <path class="cls-7" d="M47,147.3a4.46,4.46,0,0,0,.4-.57c.15-.27.18-.35.44-.27s.89,0,1.09.26.19.18.05.5a1.28,1.28,0,0,1-.71.63.71.71,0,0,1-.82,0A1.75,1.75,0,0,1,47,147.3Z"></path>
      <path class="cls-4" d="M61.13,154s4,1,6-1.79,1.49-5.58.5-6a12.35,12.35,0,0,0-1.71-.27c-1.12-.14-1.15,2.69-1.2,2.75S61.13,154,61.13,154Z"></path>
      <path class="cls-5" d="M57.43,151.86s3.47,2.95,4.84,2,3-1.88,3-1.88l-.1-.92s-3.06-1.35-3.74-1.13-1.87.73-2.17.8A15.85,15.85,0,0,0,57.43,151.86Z"></path>
      <path class="cls-6" d="M57.2,151.34c.13.39.51,1.37,1.54,1a17,17,0,0,0,2-.93s.92-3.21,1.15-3.77.54-.75-1-.19-1.72.22-2.74,1.2A4.16,4.16,0,0,0,57.2,151.34Z"></path>
      <path class="cls-7" d="M60.75,151.4a19.29,19.29,0,0,0,.42-2.7c.06-1.2,0-1.51,1-1.69s3.19-1.37,4.24-1,1,.3,1,1.67-.41,2.11-1.36,3.4a2.75,2.75,0,0,1-2.89,1.33A7.14,7.14,0,0,1,60.75,151.4Z"></path>
      <path class="cls-4" d="M42.73,151.68s2.39,1.35,4.18-.06,2-3.33,1.4-3.77a7.11,7.11,0,0,0-1.05-.49c-.7-.29-1.23,1.53-1.27,1.55S42.73,151.68,42.73,151.68Z"></path>
      <path class="cls-5" d="M40.73,149.64s1.7,2.53,2.76,2.15,2.28-.66,2.28-.66l.1-.61s-1.72-1.42-2.2-1.41-1.33.13-1.54.12A11.9,11.9,0,0,0,40.73,149.64Z"></path>
      <path class="cls-6" d="M40.68,149.27c0,.27.07,1,.81.91a10.32,10.32,0,0,0,1.46-.24s1.17-1.89,1.43-2.22.48-.38-.6-.3-1.15-.16-2,.28A2.76,2.76,0,0,0,40.68,149.27Z"></path>
      <path class="cls-7" d="M43,149.94a12.41,12.41,0,0,0,.76-1.66c.26-.76.28-1,1-.9s2.3-.3,2.91.13.58.37.36,1.26a3.29,3.29,0,0,1-1.49,1.94,1.83,1.83,0,0,1-2.1.33A4.76,4.76,0,0,1,43,149.94Z"></path>
      <path class="cls-11" d="M26.52,51.27S15,63,20.62,69.26c5.52,6.14,14.24.55,11.07-7.8C28.84,54,26.52,51.27,26.52,51.27Z"></path>
      <path class="cls-12" d="M22.7,62.24c.4-1.21,1.3-4,1.66-5a26.44,26.44,0,0,1,1.56-3.22s1.11-2.12-1.7.92-4.56,8.64-3.71,9C21.19,64.21,22.31,63.42,22.7,62.24Z"></path>
      <path class="cls-13" d="M29.16,66.28c-.34,1.14-.18,2.2.36,2.36a2.09,2.09,0,0,0,2.1-1.57c.34-1.35-.34-2.45-.87-2.57S29.5,65.14,29.16,66.28Z"></path>
      <path class="cls-11" d="M45.8,51.27s-11.56,11.7-5.9,18c5.52,6.14,14.25.55,11.07-7.8C48.12,54,45.8,51.27,45.8,51.27Z"></path>
      <path class="cls-12" d="M42,62.24c.4-1.21,1.3-4,1.65-5a25.91,25.91,0,0,1,1.57-3.22s1.11-2.12-1.71.92-4.56,8.64-3.7,9C40.48,64.21,41.59,63.42,42,62.24Z"></path>
      <path class="cls-13" d="M48.45,66.28c-.34,1.14-.18,2.2.36,2.36a2.1,2.1,0,0,0,2.1-1.57c.34-1.35-.34-2.45-.88-2.57S48.78,65.14,48.45,66.28Z"></path>
      <path class="cls-11" d="M65.09,51.27s-11.56,11.7-5.9,18c5.52,6.14,14.24.55,11.07-7.8C67.41,54,65.09,51.27,65.09,51.27Z"></path>
      <path class="cls-12" d="M61.27,62.24c.4-1.21,1.3-4,1.66-5a26.44,26.44,0,0,1,1.56-3.22s1.11-2.12-1.7.92-4.56,8.64-3.71,9C59.77,64.21,60.88,63.42,61.27,62.24Z"></path>
      <path class="cls-13" d="M67.73,66.28c-.34,1.14-.18,2.2.36,2.36a2.09,2.09,0,0,0,2.1-1.57c.35-1.35-.33-2.45-.87-2.57S68.07,65.14,67.73,66.28Z"></path>
      <path class="cls-11" d="M38.35,25.64s-11.57,11.69-5.91,18c5.53,6.14,14.25.55,11.07-7.81C40.67,28.33,38.35,25.64,38.35,25.64Z"></path>
      <path class="cls-12" d="M34.53,36.6c.4-1.2,1.3-4,1.65-5a26.34,26.34,0,0,1,1.57-3.23s1.11-2.12-1.7.92-4.57,8.65-3.71,9C33,38.58,34.14,37.79,34.53,36.6Z"></path>
      <path class="cls-13" d="M41,40.64c-.34,1.14-.18,2.2.36,2.36a2.08,2.08,0,0,0,2.1-1.56c.34-1.36-.34-2.46-.88-2.58S41.33,39.5,41,40.64Z"></path>
      <path class="cls-11" d="M57.63,25.64s-11.56,11.69-5.9,18c5.52,6.14,14.24.55,11.07-7.81C60,28.33,57.63,25.64,57.63,25.64Z"></path>
      <path class="cls-12" d="M53.81,36.6c.4-1.2,1.3-4,1.66-5A26.34,26.34,0,0,1,57,28.42s1.1-2.12-1.71.92-4.56,8.65-3.71,9C52.31,38.58,53.42,37.79,53.81,36.6Z"></path>
      <path class="cls-13" d="M60.27,40.64c-.33,1.14-.17,2.2.36,2.36a2.1,2.1,0,0,0,2.11-1.56c.34-1.36-.34-2.46-.88-2.58S60.61,39.5,60.27,40.64Z"></path>
      <path class="cls-11" d="M48.18,0s-11.56,11.69-5.9,18c5.52,6.14,14.24.55,11.07-7.8C50.5,2.69,48.18,0,48.18,0Z"></path>
      <path class="cls-12" d="M44.36,11c.4-1.21,1.3-4,1.66-5a26.34,26.34,0,0,1,1.57-3.23s1.1-2.12-1.71.93-4.56,8.64-3.71,9C42.86,12.94,44,12.15,44.36,11Z"></path>
      <path class="cls-13" d="M50.82,15c-.33,1.14-.17,2.19.36,2.35a2.08,2.08,0,0,0,2.1-1.56c.35-1.35-.33-2.45-.87-2.57S51.16,13.86,50.82,15Z"></path>
    </g>
  </g>
</svg>
