<?xml version="1.0" encoding="UTF-8"?>
<svg xmlns="http://www.w3.org/2000/svg" xmlns:xlink="http://www.w3.org/1999/xlink" viewBox="0 0 104.61 125.05">
  <defs>
    <style>.cls-1{fill:#a29274;}.cls-2{fill:#e3e0c9;}.cls-3{fill:#bda885;}.cls-4{fill:#7c705b;}.cls-5{fill:#d0c5a6;}.cls-6{fill:#a29277;}.cls-7{fill:#817870;}.cls-8{fill:#402d22;}.cls-9{fill:#d2c9be;}.cls-10{fill:url(#Безымянный_градиент_5);}</style>
    <linearGradient id="Безымянный_градиент_5" x1="69.97" y1="6.43" x2="105.54" y2="35.89" gradientUnits="userSpaceOnUse">
      <stop offset="0" stop-color="#e6f5b2"></stop>
      <stop offset="1" stop-color="#559a3b"></stop>
    </linearGradient>
  </defs>
  <g id="Слой_2" data-name="Слой 2">
    <g id="Слой_1-2" data-name="Слой 1">
      <polygon class="cls-1" points="52.38 56.23 104.61 33.99 96.77 94.13 52.38 125.05 52.38 56.23"></polygon>
      <polygon class="cls-2" points="52.38 18.96 104.61 33.99 52.38 56.23 0 33.99 52.38 18.96"></polygon>
      <polygon class="cls-3" points="52.38 56.23 0 33.99 7.83 94.13 21.66 103.73 21.38 103.52 21.66 103.73 52.38 125.05 52.38 56.23"></polygon>
      <path class="cls-4" d="M51.14,123.22c1.22-1.74,2.29-3.56,3.41-5.34s2.18-3.6,3.2-5.43,2-3.68,2.93-5.55,1.74-3.81,2.54-5.8a26.44,26.44,0,0,1-1.51,6.24A44.56,44.56,0,0,1,59,113.16a49.92,49.92,0,0,1-3.53,5.35A27.62,27.62,0,0,1,51.14,123.22Z"></path>
      <path class="cls-5" d="M32.92,34.73a22,22,0,0,1,5.28-5,28.06,28.06,0,0,1,6.57-3.23A32.54,32.54,0,0,1,51.93,25c1.2-.14,2.42-.09,3.63-.13s2.42.16,3.61.3c-1.2.18-2.39.26-3.57.41l-1.77.26c-.59.08-1.18.14-1.76.27-1.16.25-2.32.42-3.46.75s-2.26.62-3.39,1a39.17,39.17,0,0,0-6.44,2.82A40.77,40.77,0,0,0,32.92,34.73Z"></path>
      <path class="cls-5" d="M24,36.85a7.42,7.42,0,0,0,2.08.32c.71,0,1.41,0,2.12,0a39.7,39.7,0,0,0,4.21-.4c1.4-.2,2.8-.47,4.21-.74s2.82-.59,4.28-.83a19.17,19.17,0,0,1-4,1.91,23.54,23.54,0,0,1-4.3,1.08,18.07,18.07,0,0,1-4.47.09,11.91,11.91,0,0,1-2.2-.44,9.47,9.47,0,0,1-1.05-.4A2.47,2.47,0,0,1,24,36.85Z"></path>
      <path class="cls-4" d="M61.81,79.36c-.24-1.51-.54-3-.64-4.58a20.32,20.32,0,0,1,.21-4.67,16.21,16.21,0,0,1,1.41-4.53,14.33,14.33,0,0,1,2.8-3.89,15.77,15.77,0,0,1,3.89-2.77,20.16,20.16,0,0,1,4.45-1.57,28.49,28.49,0,0,1,9.24-.51,43.58,43.58,0,0,0-9,1.6,18.05,18.05,0,0,0-7.63,4.27,15.32,15.32,0,0,0-4.12,7.61A37.62,37.62,0,0,0,61.81,79.36Z"></path>
      <path class="cls-4" d="M79.69,65.14c2.5-3.68,5.09-7.22,7.45-10.89a61.3,61.3,0,0,0,3.3-5.63,19.61,19.61,0,0,0,2.19-6.13,13.51,13.51,0,0,1-1.17,6.59A33.61,33.61,0,0,1,88.34,55a52.47,52.47,0,0,1-4,5.36A42.75,42.75,0,0,1,79.69,65.14Z"></path>
      <path class="cls-4" d="M67.58,84.24c.15.21.45.28.68.39l.76.28c.5.18,1,.34,1.53.5,1,.31,2.06.59,3.09.87,2.08.53,4.16,1,6.26,1.44s4.2.79,6.32,1.13l6.41,1A37.49,37.49,0,0,1,86.1,90a47.24,47.24,0,0,1-6.49-.85,41.83,41.83,0,0,1-6.3-1.78,29.71,29.71,0,0,1-3-1.28c-.49-.25-1-.5-1.44-.79A3.66,3.66,0,0,1,67.58,84.24Z"></path>
      <path class="cls-4" d="M80.19,91.85A15.68,15.68,0,0,1,78.7,83.1a14,14,0,0,1,1.24-4.4,14.52,14.52,0,0,1,2.63-3.77,19.08,19.08,0,0,1,7.77-4.59,30.92,30.92,0,0,1,8.76-1.42,54.66,54.66,0,0,0-8.38,2.47,21,21,0,0,0-7.12,4.54,14.07,14.07,0,0,0-3.8,7.34,17.88,17.88,0,0,0-.28,4.27A16.76,16.76,0,0,0,80.19,91.85Z"></path>
      <path class="cls-4" d="M99.1,64.3A29.27,29.27,0,0,1,98,70.24a37.9,37.9,0,0,1-2.16,5.68,30.39,30.39,0,0,1-3.19,5.19,18.09,18.09,0,0,1-4.47,4.13,40.94,40.94,0,0,0,3.55-4.77c1-1.68,2-3.4,2.82-5.18s1.63-3.59,2.39-5.42S98.37,66.18,99.1,64.3Z"></path>
      <path class="cls-5" d="M65,50.83l1-.43a35.25,35.25,0,0,0-4.77-1.74C62.6,49.38,63.84,50.1,65,50.83Z"></path>
      <path class="cls-4" d="M64.62,51.71c-.74,1.85-1.34,3.36-2.24,5.12a37.39,37.39,0,0,1-6.53,9.87,19.91,19.91,0,0,0,4.34-4.21,35.18,35.18,0,0,0,3.15-5.19,45.13,45.13,0,0,0,2.36-5.57c.11-.37.24-.95.35-1.33l-1,.43C64.94,51,64.68,51.55,64.62,51.71Z"></path>
      <path class="cls-6" d="M6,80.42a15.93,15.93,0,0,1,4.72-4A25.76,25.76,0,0,1,16.4,74a30.85,30.85,0,0,1,6.1-1.09c1-.1,2.06-.06,3.09-.08s2.05.14,3.07.26c-1,.19-2,.3-3,.44s-2,.3-3,.49-2,.35-2.94.61-1.94.47-2.9.74a44.8,44.8,0,0,0-5.61,2A29.33,29.33,0,0,0,6,80.42Z"></path>
      <path class="cls-6" d="M9.17,72.07c2.07-1.31,4.05-2.71,6.06-4.09s4-2.77,5.94-4.19S25.11,61,27,59.5c1-.73,1.92-1.47,2.84-2.25a16.38,16.38,0,0,0,2.56-2.57,11.6,11.6,0,0,1-2.07,3.07,35.7,35.7,0,0,1-2.61,2.61A66.56,66.56,0,0,1,22,65c-2,1.41-4.06,2.75-6.19,4A37.43,37.43,0,0,1,9.17,72.07Z"></path>
      <path class="cls-6" d="M8.91,91.39a6,6,0,0,1,2.35-5.75,10.79,10.79,0,0,1,6.19-1.84,23.78,23.78,0,0,1,6.26.88,31.68,31.68,0,0,1,5.86,2.17c-2.07-.3-4.06-.8-6.08-1.08-1-.19-2-.29-3-.38a23.12,23.12,0,0,0-3-.15,11.41,11.41,0,0,0-5.58,1.32A6.37,6.37,0,0,0,8.91,91.39Z"></path>
      <path class="cls-6" d="M2.08,44.12A6.47,6.47,0,0,0,4.42,46.7a16.64,16.64,0,0,0,3.09,1.65,39.1,39.1,0,0,0,6.8,1.89c2.33.44,4.69.77,7.06,1s4.77.47,7.18.8a50.22,50.22,0,0,1-7.26.32A45.71,45.71,0,0,1,14,51.65a28.07,28.07,0,0,1-7-2.29A13.72,13.72,0,0,1,4,47.24,5.78,5.78,0,0,1,2.08,44.12Z"></path>
      <path class="cls-6" d="M38.67,115.16a13.39,13.39,0,0,1-3.45-2.08,8.06,8.06,0,0,1-2.52-3.32,4.82,4.82,0,0,1-.33-2.2,5.46,5.46,0,0,1,.66-2.14,9.86,9.86,0,0,1,2.87-3.11,26.71,26.71,0,0,1,7.29-3.58A48.74,48.74,0,0,1,51,96.84c-2.48,1-5,1.91-7.38,2.93a34.47,34.47,0,0,0-6.83,3.69,8.94,8.94,0,0,0-2.55,2.62,4.1,4.1,0,0,0-.46,3.33,8.12,8.12,0,0,0,2,3.16A19,19,0,0,0,38.67,115.16Z"></path>
      <path class="cls-6" d="M29.83,50.45a4.93,4.93,0,0,0-.36,4.2c1.09,2.68,3.47,4.32,5.83,5.45a18,18,0,0,1-3-2.52,7.91,7.91,0,0,1-2-3.18,4.27,4.27,0,0,1,.43-3.47,9.08,9.08,0,0,1,2.6-2.68l.12-.08-1.12-.47A9.26,9.26,0,0,0,29.83,50.45Z"></path>
      <path class="cls-5" d="M49.57,46.2a70.41,70.41,0,0,0-8.7-.15,25,25,0,0,0-7.32,1.16l-1.27.49,1.12.47a34.81,34.81,0,0,1,7.76-1.37C43.92,46.52,46.75,46.38,49.57,46.2Z"></path>
      <path class="cls-6" d="M28.92,99.77a14.17,14.17,0,0,0-3.23.37,7.49,7.49,0,0,0-2.94,1.6,3.69,3.69,0,0,0-1.11,2l.28.21a4.12,4.12,0,0,1,1.36-1.56A8.07,8.07,0,0,1,26,101.17a57.57,57.57,0,0,1,6.15-1A14.36,14.36,0,0,0,28.92,99.77Z"></path>
      <path class="cls-6" d="M27.9,95c2.1-1.13,4.3-2,6.43-2.94s4.27-1.91,6.32-3a43.1,43.1,0,0,0,5.89-3.63,17.65,17.65,0,0,0,4.75-5,13,13,0,0,1-4,5.88,29.38,29.38,0,0,1-5.94,4,48.45,48.45,0,0,1-6.58,2.76C32.5,93.88,30.19,94.43,27.9,95Z"></path>
      <path class="cls-4" d="M57.18,112.06c2.1-1.13,4.3-2,6.44-2.94s4.26-1.91,6.32-3a43.72,43.72,0,0,0,5.89-3.63,17.61,17.61,0,0,0,4.75-5,13.1,13.1,0,0,1-4,5.88,29.93,29.93,0,0,1-5.94,4A48.4,48.4,0,0,1,64,110.16C61.78,110.94,59.48,111.5,57.18,112.06Z"></path>
      <path class="cls-5" d="M60,49.66a35.43,35.43,0,0,1,4.83-6.36A37.65,37.65,0,0,1,70.94,38a26.36,26.36,0,0,1,7.25-3.58,19.35,19.35,0,0,1,4-.74,15.26,15.26,0,0,1,4,.27,23.05,23.05,0,0,0-3.91.43,25.22,25.22,0,0,0-3.72,1.1,33.22,33.22,0,0,0-6.8,3.7,56.7,56.7,0,0,0-6.1,4.88C63.72,45.86,61.85,47.72,60,49.66Z"></path>
      <path class="cls-4" d="M101.42,41.68a10.58,10.58,0,0,0-6.21,1.09c1.05-.1,2.07-.18,3.08-.19a16.35,16.35,0,0,1,3,.16,9.25,9.25,0,0,1,2.15.52l.11-.94A10.47,10.47,0,0,0,101.42,41.68Z"></path>
      <path class="cls-6" d="M6,70.66a18.46,18.46,0,0,1,4.38.51,20.07,20.07,0,0,1,4.19,1.47,11,11,0,0,1,3.63,2.72,5.55,5.55,0,0,1,1.1,2.06,3.86,3.86,0,0,1-.06,2.26,5.2,5.2,0,0,0-1.86-3.55,15.17,15.17,0,0,0-3.45-2.21C11.38,72.68,8.68,71.76,6,70.66Z"></path>
      <path class="cls-6" d="M27.75,89.91c2.54-3.74,5.14-7.36,7.46-11.15A54.83,54.83,0,0,0,38.42,73a23.53,23.53,0,0,0,2.1-6.29,15.07,15.07,0,0,1-1.07,6.72,31.34,31.34,0,0,1-1.34,3.15c-.54,1-1.08,2-1.68,3a47,47,0,0,1-4,5.51A40.21,40.21,0,0,1,27.75,89.91Z"></path>
      <ellipse class="cls-1" cx="54.03" cy="35.04" rx="12.06" ry="4.72"></ellipse>
      <ellipse class="cls-7" cx="54.34" cy="36.63" rx="9.94" ry="3.89"></ellipse>
      <path class="cls-8" d="M41.82,32c6.25,5.45,16.48,4,22.84-3.33S74.73,8.45,68.49,3,48.41,1.63,42,8.92,35.58,26.55,41.82,32Z"></path>
      <path class="cls-9" d="M41.87,32a13.22,13.22,0,0,0,6,2.83,15.24,15.24,0,0,0,6.62-.31,18.25,18.25,0,0,0,5.94-2.86A20.08,20.08,0,0,0,65.11,27a30.5,30.5,0,0,0,3.38-5.69A28.57,28.57,0,0,0,70.6,15a17.17,17.17,0,0,0,.2-6.5,8.58,8.58,0,0,0-3.11-5.38,11.07,11.07,0,0,0-6-2.07,21.9,21.9,0,0,0-6.58.67,27.42,27.42,0,0,0-6.22,2.43A24.8,24.8,0,0,0,43.41,8a19.07,19.07,0,0,0-6,11.71,15.35,15.35,0,0,0,.72,6.66A13.33,13.33,0,0,0,41.87,32Zm-.09.11A14.83,14.83,0,0,1,37.13,19.7,19.61,19.61,0,0,1,42.91,7.5a26.08,26.08,0,0,1,5.55-4.07A28.32,28.32,0,0,1,54.84.83,22.48,22.48,0,0,1,61.73,0a12.18,12.18,0,0,1,6.66,2.2,9.83,9.83,0,0,1,3.67,6,18.62,18.62,0,0,1-.06,7,30.49,30.49,0,0,1-5.75,12.57,21.19,21.19,0,0,1-5.12,4.74,18.58,18.58,0,0,1-6.43,2.62A15,15,0,0,1,41.78,32.06Z"></path>
      <path class="cls-10" d="M67.45,10.44s-7.72-.72-3.23-5.75,32.51-9,26.22,26.59c0,0-3.41,14-3.23-8.27S69.18,10.79,67.45,10.44Z"></path>
    </g>
  </g>
</svg>
