<?xml version="1.0" encoding="UTF-8"?>
<svg xmlns="http://www.w3.org/2000/svg" xmlns:xlink="http://www.w3.org/1999/xlink" viewBox="0 0 111.1 121.14">
  <defs>
    <style>.cls-1{fill:none;}.cls-2{fill:#956d4b;}.cls-3{clip-path:url(#clip-path);}.cls-4{fill:url(#Безымянный_градиент_4);}.cls-5{fill:#754120;}.cls-6{fill:#44281c;}.cls-7{fill:#6c3c1d;}.cls-8{fill:#714d31;}.cls-9{fill:#613822;}.cls-10{fill:#7f5637;}.cls-11{fill:#a07850;}.cls-12{fill:#772f46;}.cls-13{fill:#8b5b3c;}.cls-14{fill:url(#Безымянный_градиент_2);}.cls-15{fill:#613922;}</style>
    <clipPath id="clip-path">
      <polygon class="cls-1" points="7.72 92.47 57.69 115.98 103.91 92.58 55.86 72.22 7.72 92.47"></polygon>
    </clipPath>
    <linearGradient id="Безымянный_градиент_4" x1="-3536.01" y1="-728.02" x2="-3533.21" y2="-728.02" gradientTransform="matrix(34.36, 0, 0, -34.36, 121480.47, -24918.02)" gradientUnits="userSpaceOnUse">
      <stop offset="0" stop-color="#a17551"></stop>
      <stop offset="0.38" stop-color="#a17551"></stop>
      <stop offset="0.89" stop-color="#7a4928"></stop>
      <stop offset="1" stop-color="#72401f"></stop>
    </linearGradient>
    <linearGradient id="Безымянный_градиент_2" x1="59.15" y1="30.86" x2="59.21" y2="1.06" gradientUnits="userSpaceOnUse">
      <stop offset="0" stop-color="#d3e0a7"></stop>
      <stop offset="1" stop-color="#85a93c"></stop>
    </linearGradient>
  </defs>
  <g id="Слой_2" data-name="Слой 2">
    <g id="Слой_1-2" data-name="Слой 1">
      <path class="cls-2" d="M57.69,49.83s9.62,11.3,17.06,11.76S107.56,54,107.56,54l2.56-26.43L57.69,9.1Z"></path>
      <path class="cls-2" d="M0,25.72,5.23,60.2S23.81,63,27.06,62.06s18.12-6.51,22.29-6.51,8.34-5.72,8.34-5.72V9.1Z"></path>
      <g class="cls-3">
        <rect class="cls-4" x="31.38" y="44.9" width="48.87" height="98.4" transform="translate(-41.14 144.79) rotate(-86.92)"></rect>
      </g>
      <path class="cls-5" d="M7.72,92.46,5.23,60.2s23.69-.47,30.19-3.72,22.27-6.65,22.27-6.65L55.86,72.22Z"></path>
      <path class="cls-6" d="M41.49,62.2a8.56,8.56,0,0,0-2.84-1.67l0,0s-3.79-1.13-5.85,1.42-1.71,5.29-.77,5.73a11.08,11.08,0,0,0,1.63.34l.09,0a28.19,28.19,0,0,0,3.51-.8,1.79,1.79,0,0,0,.6-.15l.65-.19c1.49-.46,1.67-.13,2.69-1a4,4,0,0,0,1.09-2.55l-.21-.5h0l0,0a1,1,0,0,0-.58-.51"></path>
      <path class="cls-6" d="M21.2,65.53a10.79,10.79,0,0,0-4,1.33v0s-4.3,2.69-3.59,6.84,3.66,6.13,4.88,5.6A13.64,13.64,0,0,0,20.18,78l0-.13c.92-1.06,1.59-3.16,2.21-4.06a2,2,0,0,0,.35-.72c.11-.2.21-.42.38-.79.8-1.81,1.28-1.71,1.29-3.45a5.09,5.09,0,0,0-1.54-3.21,3.36,3.36,0,0,0-.66-.22v0h-.08a1.31,1.31,0,0,0-1,.14"></path>
      <path class="cls-7" d="M57.69,49.83,55.86,72.22l48.06,20.36L107.56,54s-15-1.73-21.48-.8-17.84,3.71-21.24,1.86a45.07,45.07,0,0,1-7.15-5.26"></path>
      <path class="cls-6" d="M39.39,72.83a3.29,3.29,0,0,0-1.26-.31h0a2.31,2.31,0,0,0-2,1.19c-.49,1.18-.05,2.17.35,2.23l.65-.05,0,0a9.3,9.3,0,0,0,1.23-.69l.21-.12.22-.15c.51-.34.61-.23.9-.68a1.59,1.59,0,0,0,.12-1.08L39.68,73h0Z"></path>
      <path class="cls-6" d="M86.47,63.19a2.3,2.3,0,0,0-.11-.89h0s-.38-1-1.27-1-1.43.5-1.38.78l.2.41h0l.75.63.13.11.15.1c.35.25.3.34.66.42a1.12,1.12,0,0,0,.74-.19l.07-.12h0v-.23Z"></path>
      <path class="cls-6" d="M99.89,79.38A11,11,0,0,0,98,75.56h0S94.7,71.64,90.66,73s-5.59,4.54-4.88,5.68a14.32,14.32,0,0,0,1.52,1.53l.14,0c1.19.76,3.39,1.13,4.37,1.61a2.47,2.47,0,0,0,.77.26l.84.25c1.93.55,1.9,1,3.64.79a5.15,5.15,0,0,0,3-2,3.87,3.87,0,0,0,.13-.69h0l0-.08a1.25,1.25,0,0,0-.28-1"></path>
      <path class="cls-6" d="M73.78,66.09a8.37,8.37,0,0,0-1.87,2.69l0,0s-1.4,3.67,1,5.9,5.11,2.08,5.62,1.19a12.49,12.49,0,0,0,.46-1.59l0-.1a27.58,27.58,0,0,0-.52-3.53,1.72,1.72,0,0,0-.12-.61c0-.17-.07-.36-.13-.66-.35-1.5,0-1.65-.81-2.74a3.94,3.94,0,0,0-2.44-1.26l-.51.17v0l0,0a1,1,0,0,0-.54.54"></path>
      <path class="cls-8" d="M74,93.47a1.59,1.59,0,0,0,1.57-.42c.54-.69.43-1.43.17-1.54l-.44-.09c-.29,0-.32.69-.33.71Z"></path>
      <path class="cls-9" d="M73,92.89s.87.79,1.23.55.8-.46.8-.46l0-.24-1-.32-.56.19Z"></path>
      <path class="cls-10" d="M73,92.75c0,.1.12.36.4.27a5,5,0,0,0,.52-.22l.33-1c.06-.15.14-.19-.25-.06s-.45,0-.72.29a1.09,1.09,0,0,0-.28.69"></path>
      <path class="cls-11" d="M73.88,92.79A5.25,5.25,0,0,0,74,92.1c0-.31,0-.39.28-.43s.84-.33,1.11-.22.26.08.26.43a1.24,1.24,0,0,1-.39.87.69.69,0,0,1-.75.33,1.82,1.82,0,0,1-.64-.29"></path>
      <path class="cls-8" d="M63.28,87.34s2.39.13,3.24-1.67.26-3.36-.36-3.48a6.06,6.06,0,0,0-1,0c-.66,0-.37,1.66-.39,1.7Z"></path>
      <path class="cls-9" d="M60.93,86.52s2.3,1.32,3,.62,1.53-1.4,1.53-1.4l-.15-.52A7.22,7.22,0,0,0,63,85c-.36.2-1,.62-1.16.69Z"></path>
      <path class="cls-10" d="M60.74,86.25c.11.2.43.73,1,.4a9.74,9.74,0,0,0,1.05-.75S63,84,63,83.61s.22-.49-.58,0-1,.31-1.44,1a2.41,2.41,0,0,0-.28,1.66"></path>
      <path class="cls-11" d="M62.78,85.9a11.05,11.05,0,0,0-.05-1.59c-.09-.7-.16-.87.42-1.09s1.68-1.12,2.32-1,.6.06.77.84a2.88,2.88,0,0,1-.41,2.1,1.61,1.61,0,0,1-1.52,1.07,4.19,4.19,0,0,1-1.53-.31"></path>
      <path class="cls-8" d="M53.32,95.11s1.86,1.42,3.54.43,2-2.58,1.62-3a7,7,0,0,0-.84-.53c-.55-.33-1.21,1.15-1.25,1.16Z"></path>
      <path class="cls-9" d="M51.86,93.16s1.15,2.33,2.08,2.13S56,95,56,95l.16-.51s-1.29-1.4-1.7-1.44-1.14,0-1.32-.07Z"></path>
      <path class="cls-10" d="M51.86,92.84c0,.23,0,.83.59.86a8.3,8.3,0,0,0,1.26,0L55.17,92c.25-.24.45-.27-.47-.32s-1-.27-1.7,0a2.35,2.35,0,0,0-1.14,1.19"></path>
      <path class="cls-11" d="M53.71,93.67a11.08,11.08,0,0,0,.83-1.31c.3-.61.35-.79.93-.65s2,0,2.44.44.45.38.17,1.11a2.8,2.8,0,0,1-1.49,1.46,1.54,1.54,0,0,1-1.81,0,3.92,3.92,0,0,1-1.07-1.09"></path>
      <path class="cls-8" d="M49,88.67a2.67,2.67,0,0,0,.1-2.73c-.86-1.2-2.11-1.38-2.41-1l-.35.67c-.22.45,1,.85,1,.88Z"></path>
      <path class="cls-9" d="M47.63,89.91s1.7-1,1.49-1.73a15.08,15.08,0,0,1-.35-1.51l-.4-.09s-1,1.08-1,1.4,0,.87,0,1Z"></path>
      <path class="cls-10" d="M47.39,89.93c.18,0,.63,0,.62-.5a7.72,7.72,0,0,0-.11-1l-1.4-1c-.2-.17-.23-.32-.21.38s-.15.74.12,1.3a1.75,1.75,0,0,0,1,.78"></path>
      <path class="cls-11" d="M47.9,88.47a7.93,7.93,0,0,0-1.06-.54c-.49-.2-.62-.22-.55-.67s-.13-1.51.17-1.89.26-.37.84-.2a2.14,2.14,0,0,1,1.21,1,1.19,1.19,0,0,1,.15,1.38,3,3,0,0,1-.76.89"></path>
      <path class="cls-8" d="M40.56,90.69a1.17,1.17,0,0,0,.38-1.12c-.2-.61-.69-.85-.86-.74l-.23.24.29.48Z"></path>
      <path class="cls-9" d="M39.82,91s.83-.21.84-.52,0-.68,0-.68l-.15-.08-.58.45-.12.42Z"></path>
      <path class="cls-10" d="M39.71,91l.33-.13.08-.41-.46-.59c-.06-.1,0-.17-.13.13s-.16.28-.12.55a.81.81,0,0,0,.3.45"></path>
      <path class="cls-11" d="M40.12,90.46l-.37-.36-.15-.35.32-.76.37,0a1,1,0,0,1,.37.59.51.51,0,0,1-.12.59Z"></path>
      <path class="cls-8" d="M38,95.36s1.64-2.64.13-4.73-3.65-2.39-4.18-1.77a8.24,8.24,0,0,0-.6,1.17c-.37.77,1.66,1.46,1.69,1.51Z"></path>
      <path class="cls-9" d="M35.56,97.51s2.94-1.79,2.56-3-.63-2.62-.63-2.62l-.69-.14s-1.69,1.87-1.69,2.42.08,1.51.06,1.75Z"></path>
      <path class="cls-10" d="M35.13,97.55c.31,0,1.1,0,1.07-.87A12.17,12.17,0,0,0,36,95s-2.09-1.42-2.44-1.72-.41-.56-.36.66-.25,1.29.21,2.24a3.1,3.1,0,0,0,1.71,1.35"></path>
      <path class="cls-11" d="M36,95a14.22,14.22,0,0,0-1.84-.93c-.85-.34-1.08-.37-1-1.16s-.23-2.61.29-3.28.45-.64,1.44-.34a3.62,3.62,0,0,1,2.12,1.78,2.05,2.05,0,0,1,.27,2.38A5.33,5.33,0,0,1,36,95"></path>
      <path class="cls-12" d="M66,68.33a6.17,6.17,0,0,0-.47-2,6.08,6.08,0,0,0-1.14-1.68,23.67,23.67,0,0,0-3-2.51A9.88,9.88,0,0,1,59.9,61a3.25,3.25,0,0,1-.47-.69,1.73,1.73,0,0,1-.1-.33c.63-1.23,1.34-2.43,2-3.74q.31-.66.6-1.35a.65.65,0,0,1,.31,0,1.27,1.27,0,0,1,.67.49,6.39,6.39,0,0,1,.87,1.86,14.71,14.71,0,0,1,.56,2.07l.2,1.07a4.7,4.7,0,0,0,.29,1.13.19.19,0,0,0,.23.08.18.18,0,0,0,.09-.23l0-.05a4.89,4.89,0,0,1-.18-1l-.14-1.09A17.81,17.81,0,0,0,64.32,57a7,7,0,0,0-.86-2.11,2.09,2.09,0,0,0-1-.81l-.22,0a11.34,11.34,0,0,0,.41-1.47,4.7,4.7,0,0,0,0-2.17,2.51,2.51,0,0,0-.6-1,1.92,1.92,0,0,0-.23-.66A3.78,3.78,0,0,0,59,47.21a6.57,6.57,0,0,0-3.17.3,4.56,4.56,0,0,0-2.38,2.05,3.4,3.4,0,0,0-.18,3.07,3.44,3.44,0,0,0,2.46,1.89A4.68,4.68,0,0,0,58.88,54,7.44,7.44,0,0,0,61.24,52c0,.13,0,.27,0,.41a14.22,14.22,0,0,1-1,3.33c-.25.56-.52,1.13-.79,1.71a9.06,9.06,0,0,0-1.56.36,8,8,0,0,0-1.86.9,6.29,6.29,0,0,0-1.51,1.4,6.62,6.62,0,0,0-1,1.79.13.13,0,0,0,.06.16A.13.13,0,0,0,53.7,62h0a6.19,6.19,0,0,1,1-1.63,5.74,5.74,0,0,1,1.49-1.2A7.53,7.53,0,0,1,58,58.42a8.3,8.3,0,0,1,1-.19c-.4.83-.8,1.67-1.14,2.54A26.54,26.54,0,0,0,55,63.69a12.43,12.43,0,0,0-2.27,3.85,9.16,9.16,0,0,0-.35,2.24,11.11,11.11,0,0,0,.1,2.23,5.78,5.78,0,0,0,2.08,3.93.19.19,0,0,0,.25,0,.18.18,0,0,0,0-.25l0,0A5.38,5.38,0,0,1,53,72a10.21,10.21,0,0,1-.05-2.14,9,9,0,0,1,.36-2.1,12.32,12.32,0,0,1,2.25-3.62c.58-.67,1.2-1.3,1.84-1.91,0,.11-.07.22-.1.33a16.66,16.66,0,0,0-.64,3.71A14.43,14.43,0,0,0,57,69.93a20.92,20.92,0,0,0-.23,5.24,9.75,9.75,0,0,0,1.81,5.11.18.18,0,0,0,.28-.22h0a9.24,9.24,0,0,1-1.66-4.92A19.76,19.76,0,0,1,57.31,71a8.64,8.64,0,0,0,3.93,4.9.13.13,0,1,0,.12-.22h0a8.71,8.71,0,0,1-3.8-5.84,13.79,13.79,0,0,1-.18-3.57,20.82,20.82,0,0,1,.46-2.48c.73,1.29,1.47,2.59,2.15,3.92.41.81.82,1.63,1.19,2.46q.28.61.51,1.26a2.91,2.91,0,0,1,.23,1.27v0h0c0,.05,0,.09.08.1a.08.08,0,0,0,.1-.07l.07-.38,0-.36a3.23,3.23,0,0,0-.13-.69c-.12-.45-.26-.9-.42-1.33-.32-.87-.68-1.72-1.08-2.56q-1.1-2.37-2.36-4.66h0A16.45,16.45,0,0,1,58.82,61a4,4,0,0,0,.44.56,9.63,9.63,0,0,0,1.58,1.25,23,23,0,0,1,3,2.3,5.09,5.09,0,0,1,1.59,3.25,9.28,9.28,0,0,1,.08,1.9c0,.32,0,.63-.08,1a2.79,2.79,0,0,0,0,1,.16.16,0,0,0,.3-.08v0a2.55,2.55,0,0,1,.06-.89c0-.32.09-.65.12-1A10.08,10.08,0,0,0,66,68.33Z"></path>
      <polygon class="cls-13" points="0.53 26.03 58.46 51.54 111.1 28.01 58.46 8.44 0.53 26.03"></polygon>
      <path class="cls-14" d="M57.92,26.1s-1.09,3.21.6,1.7.8-7.17.8-7.87-1.1-4.38,1.39-5.57,4.58-1.2,8.06-.5,7-.3,7.87-5.08,1.19-5.87,0-7-.3,3.39-3.19,4.38S64,6.59,62.3,8.09s-3.18,3-3.28,3.78a6.28,6.28,0,0,0-5.77-5.28C47.37,5.9,45.78,4.9,42.89.42c0,0-1.29-2-1.79,2.69S41.4,11,48.87,12s9.05.1,9.05,2.68S57.33,24.4,57.92,26.1Z"></path>
      <path class="cls-8" d="M57,36.7a1.13,1.13,0,0,0-1.07-.39c-.59.18-.82.65-.72.82a1.49,1.49,0,0,0,.22.22c.14.15.46-.26.47-.27Z"></path>
      <path class="cls-15" d="M57.26,37.41s-.18-.8-.49-.81-.64-.06-.64-.06l-.08.15s.29.53.42.57l.4.12A3.14,3.14,0,0,0,57.26,37.41Z"></path>
      <path class="cls-10" d="M57.24,37.51c0-.07.08-.25-.12-.31s-.39-.08-.39-.08-.48.37-.58.42-.16.05.12.14.28.15.53.12A.73.73,0,0,0,57.24,37.51Z"></path>
      <path class="cls-11" d="M56.73,37.12a3.43,3.43,0,0,0-.35.35c-.14.16-.17.22-.34.13s-.61-.15-.73-.32-.11-.15,0-.35a.88.88,0,0,1,.56-.35.51.51,0,0,1,.57.12A1.28,1.28,0,0,1,56.73,37.12Z"></path>
      <path class="cls-8" d="M54.53,23a1.64,1.64,0,0,0-1.65-.24c-.79.45-1,1.19-.79,1.4a3.26,3.26,0,0,0,.39.26c.25.16.57-.53.59-.53Z"></path>
      <path class="cls-15" d="M55.19,24s-.51-1.1-.95-1-.94.12-.94.12l-.08.23s.59.67.78.69.53,0,.61.05A3.67,3.67,0,0,0,55.19,24Z"></path>
      <path class="cls-10" d="M55.19,24.1c0-.11,0-.39-.27-.41a5,5,0,0,0-.59,0s-.58.67-.7.78-.21.13.22.16.44.14.8,0A1.11,1.11,0,0,0,55.19,24.1Z"></path>
      <path class="cls-11" d="M54.33,23.69a4.7,4.7,0,0,0-.4.61c-.15.28-.17.36-.44.29s-.92,0-1.14-.23-.2-.18-.06-.52a1.27,1.27,0,0,1,.71-.67.71.71,0,0,1,.84,0A1.81,1.81,0,0,1,54.33,23.69Z"></path>
      <path class="cls-8" d="M51.26,28s-3.41-1.7-5.79.38-2.5,4.74-1.68,5.31a11.36,11.36,0,0,0,1.49.6c1,.36,1.59-2.2,1.65-2.24S51.26,28,51.26,28Z"></path>
      <path class="cls-15" d="M54.17,30.73s-2.53-3.39-4-2.79S47.08,29,47.08,29l-.1.86s2.49,1.85,3.15,1.79,1.84-.27,2.13-.27A15.81,15.81,0,0,0,54.17,30.73Z"></path>
      <path class="cls-10" d="M54.27,31.24c0-.37-.18-1.34-1.19-1.21a15.85,15.85,0,0,0-2,.43s-1.49,2.71-1.82,3.17-.64.57.84.38,1.6.15,2.72-.53A3.84,3.84,0,0,0,54.27,31.24Z"></path>
      <path class="cls-11" d="M51.07,30.46a18,18,0,0,0-.93,2.35c-.31,1.07-.32,1.37-1.3,1.32s-3.16.58-4,0-.83-.47-.59-1.72a4.54,4.54,0,0,1,1.94-2.79A2.53,2.53,0,0,1,49,29,6.42,6.42,0,0,1,51.07,30.46Z"></path>
      <path class="cls-8" d="M63,28.75s-2.86-1.68-5,0-2.45,4-1.78,4.51a8.3,8.3,0,0,0,1.26.61C58.3,34.23,59,32,59,32S63,28.75,63,28.75Z"></path>
      <path class="cls-15" d="M65.4,31.26s-2-3.09-3.28-2.66a28.23,28.23,0,0,1-2.77.74l-.14.74s2,1.76,2.63,1.75,1.61-.13,1.86-.11A13.67,13.67,0,0,0,65.4,31.26Z"></path>
      <path class="cls-10" d="M65.45,31.72c0-.33-.06-1.18-1-1.13a13.78,13.78,0,0,0-1.76.25S61.27,33.1,61,33.49s-.59.45.7.37,1.38.23,2.4-.29A3.32,3.32,0,0,0,65.45,31.72Z"></path>
      <path class="cls-11" d="M62.73,30.84a15.38,15.38,0,0,0-.95,2c-.34.91-.37,1.17-1.21,1.06s-2.78.31-3.51-.22-.69-.46-.4-1.53a3.9,3.9,0,0,1,1.84-2.3A2.21,2.21,0,0,1,61,29.48,5.84,5.84,0,0,1,62.73,30.84Z"></path>
      <path class="cls-8" d="M58.76,25.66s-2.82-2.18-5.38-.71-3.14,3.9-2.5,4.57a9.91,9.91,0,0,0,1.26.82c.84.51,1.86-1.73,1.92-1.75S58.76,25.66,58.76,25.66Z"></path>
      <path class="cls-15" d="M60.94,28.64s-1.71-3.55-3.14-3.27-3,.42-3,.42l-.25.77s2,2.14,2.56,2.21,1.74.08,2,.13A13.8,13.8,0,0,0,60.94,28.64Z"></path>
      <path class="cls-10" d="M60.93,29.13c0-.35.09-1.26-.87-1.32a14.11,14.11,0,0,0-1.92,0s-1.85,2.21-2.24,2.58-.68.4.71.49,1.44.43,2.59,0A3.56,3.56,0,0,0,60.93,29.13Z"></path>
      <path class="cls-11" d="M58.14,27.84a15.93,15.93,0,0,0-1.27,2c-.48.92-.55,1.19-1.43,1s-3,0-3.71-.71-.68-.58-.23-1.68a4.22,4.22,0,0,1,2.28-2.21,2.38,2.38,0,0,1,2.75,0A6,6,0,0,1,58.14,27.84Z"></path>
      <path class="cls-8" d="M72.79,34.85a1.72,1.72,0,0,0,1.56-.78c.42-.85.15-1.6-.15-1.67a4.1,4.1,0,0,0-.48,0c-.31,0-.19.79-.2.81Z"></path>
      <path class="cls-15" d="M71.67,34.44s1.09.64,1.42.31.75-.66.75-.66l-.08-.25a3.53,3.53,0,0,0-1.08-.13c-.17.09-.47.29-.55.32A5.36,5.36,0,0,0,71.67,34.44Z"></path>
      <path class="cls-10" d="M71.58,34.3c.06.1.21.36.47.2a3.78,3.78,0,0,0,.51-.35s.1-.92.14-1.09.11-.23-.28,0-.46.14-.69.45A1.19,1.19,0,0,0,71.58,34.3Z"></path>
      <path class="cls-11" d="M72.56,34.15a4.82,4.82,0,0,0,0-.76c0-.33-.07-.41.21-.51s.81-.53,1.11-.48.29,0,.37.41a1.39,1.39,0,0,1-.22,1,.76.76,0,0,1-.73.5A2,2,0,0,1,72.56,34.15Z"></path>
      <path class="cls-8" d="M46,35.45A2.18,2.18,0,0,0,48,34.61c.61-1,.33-2,0-2.14a4.77,4.77,0,0,0-.61,0c-.41,0-.31,1-.33,1Z"></path>
      <path class="cls-15" d="M44.58,34.83s1.33.92,1.78.53,1-.77,1-.77l-.07-.33A4.49,4.49,0,0,0,45.93,34c-.23.1-.63.32-.74.36A5.26,5.26,0,0,0,44.58,34.83Z"></path>
      <path class="cls-10" d="M44.48,34.66c.06.13.23.46.58.29a5.8,5.8,0,0,0,.68-.4s.21-1.17.27-1.38.16-.28-.35,0-.6.14-.93.52A1.51,1.51,0,0,0,44.48,34.66Z"></path>
      <path class="cls-11" d="M45.74,34.55a6.66,6.66,0,0,0,0-1c0-.43,0-.54.31-.64s1.07-.6,1.46-.5.36.07.43.55a1.8,1.8,0,0,1-.36,1.25,1,1,0,0,1-1,.58A2.42,2.42,0,0,1,45.74,34.55Z"></path>
      <path class="cls-8" d="M55.4,30.07a1.27,1.27,0,0,0,1.27.22c.62-.33.79-.9.64-1.06A2,2,0,0,0,57,29c-.19-.13-.46.39-.47.4S55.4,30.07,55.4,30.07Z"></path>
      <path class="cls-15" d="M54.91,29.33s.37.87.71.82a5.77,5.77,0,0,1,.73-.07l.07-.18s-.44-.53-.59-.56-.41,0-.47-.05A4.16,4.16,0,0,0,54.91,29.33Z"></path>
      <path class="cls-10" d="M54.91,29.22c0,.08,0,.3.2.32a2.32,2.32,0,0,0,.45,0l.56-.59c.1-.08.17-.09-.16-.12s-.34-.12-.61,0A.89.89,0,0,0,54.91,29.22Z"></path>
      <path class="cls-11" d="M55.56,29.55a3.11,3.11,0,0,0,.33-.46c.12-.21.14-.28.35-.21s.71,0,.87.2.16.15,0,.41a1,1,0,0,1-.56.5.58.58,0,0,1-.66,0A1.69,1.69,0,0,1,55.56,29.55Z"></path>
      <path class="cls-8" d="M71.36,28.66s-2.64-2-5-.55-2.84,3.66-2.23,4.28a12.43,12.43,0,0,0,1.18.73c.79.45,1.69-1.64,1.74-1.66S71.36,28.66,71.36,28.66Z"></path>
      <path class="cls-15" d="M73.44,31.38s-1.65-3.26-3-3-2.82.45-2.82.45l-.21.71s1.84,1.95,2.41,2,1.61,0,1.85.08A13,13,0,0,0,73.44,31.38Z"></path>
      <path class="cls-10" d="M73.45,31.83c0-.32,0-1.17-.84-1.21a12.08,12.08,0,0,0-1.77.07s-1.67,2.08-2,2.43-.63.38.66.44,1.34.37,2.39,0A3.33,3.33,0,0,0,73.45,31.83Z"></path>
      <path class="cls-11" d="M70.84,30.69a14.66,14.66,0,0,0-1.14,1.86c-.43.87-.48,1.12-1.31.93s-2.78,0-3.44-.59-.64-.52-.24-1.55a3.91,3.91,0,0,1,2.06-2.09,2.2,2.2,0,0,1,2.55-.08A5.56,5.56,0,0,1,70.84,30.69Z"></path>
      <path class="cls-8" d="M52.11,33.06S54,34.14,55.46,33s1.58-2.67,1.13-3a7.17,7.17,0,0,0-.85-.39c-.55-.24-1,1.23-1,1.24S52.11,33.06,52.11,33.06Z"></path>
      <path class="cls-15" d="M50.51,31.43s1.36,2,2.21,1.72,1.83-.53,1.83-.53l.08-.49S53.25,31,52.87,31s-1.07.11-1.24.1A9.36,9.36,0,0,0,50.51,31.43Z"></path>
      <path class="cls-10" d="M50.46,31.13c0,.22.07.78.66.73a8.92,8.92,0,0,0,1.17-.19s.94-1.52,1.14-1.78.39-.31-.48-.24-.92-.13-1.58.22A2.24,2.24,0,0,0,50.46,31.13Z"></path>
      <path class="cls-11" d="M52.29,31.67a9.26,9.26,0,0,0,.6-1.33c.21-.61.23-.78.79-.72s1.85-.25,2.33.1.47.29.3,1a2.63,2.63,0,0,1-1.2,1.55,1.44,1.44,0,0,1-1.68.27A3.78,3.78,0,0,1,52.29,31.67Z"></path>
    </g>
  </g>
</svg>
