<?xml version="1.0" encoding="UTF-8"?>
<svg xmlns="http://www.w3.org/2000/svg" viewBox="0 0 47.33 74.69">
  <defs>
    <style>.cls-1{fill:#a79677;}.cls-2{fill:#e3e0c9;}.cls-3{fill:#f9eacb;}.cls-4{fill:#bfaa86;}.cls-5{fill:#d2c7a7;}.cls-6{fill:#95876b;}.cls-7{fill:#af997c;opacity:0.25;}.cls-8{fill:#a09274;}.cls-9{fill:#837660;}.cls-10{fill:#cbcbcb;}.cls-11{fill:#877e75;}.cls-12{fill:#204e2d;}.cls-13{fill:#5f8c39;}.cls-14{fill:#59a34e;}</style>
  </defs>
  <g id="Слой_2" data-name="Слой 2">
    <g id="Слой_1-2" data-name="Слой 1">
      <polygon class="cls-1" points="23.7 43.55 47.33 33.49 43.79 60.7 23.7 74.69 23.7 43.55"></polygon>
      <polygon class="cls-2" points="23.7 26.69 47.33 33.49 23.7 43.55 0 33.49 23.7 26.69"></polygon>
      <polygon class="cls-3" points="23.7 26.69 0 33.49 0.41 33.67 47.11 33.43 23.7 26.69"></polygon>
      <polygon class="cls-4" points="3.54 60.7 0 33.49 23.7 43.55 23.7 74.69 3.54 60.7"></polygon>
      <path class="cls-5" d="M14.89,33.83a10.61,10.61,0,0,1,2.43-2.2,13.55,13.55,0,0,1,3-1.45,16.32,16.32,0,0,1,3.22-.67c.55-.06,1.1-.06,1.64-.09s1.09,0,1.63.1c-1.08.09-2.16.17-3.22.36a19.33,19.33,0,0,0-3.11.76,15.66,15.66,0,0,0-2.93,1.3A16.4,16.4,0,0,0,14.89,33.83Z"></path>
      <path class="cls-5" d="M10.86,34.78a2.85,2.85,0,0,0,.93.19,7.79,7.79,0,0,0,1,0,13.83,13.83,0,0,0,1.92-.17c1.28-.16,2.53-.51,3.82-.79a11.25,11.25,0,0,1-3.75,1.27,10.4,10.4,0,0,1-2,.06A3.7,3.7,0,0,1,10.86,34.78Z"></path>
      <path class="cls-5" d="M27.16,40.58a17.9,17.9,0,0,1,2.24-2.82,18.88,18.88,0,0,1,2.75-2.37,13,13,0,0,1,3.25-1.62A8.26,8.26,0,0,1,39,33.49a10.44,10.44,0,0,0-3.47.63,14.72,14.72,0,0,0-3.1,1.67A21.72,21.72,0,0,0,29.66,38C28.79,38.83,28,39.68,27.16,40.58Z"></path>
      <polygon class="cls-6" points="23.7 43.55 47.33 33.49 43.79 60.7 23.7 74.69 23.7 43.55"></polygon>
      <polygon class="cls-7" points="3.54 60.7 0 33.49 23.7 43.55 23.7 74.69 3.54 60.7"></polygon>
      <polygon class="cls-8" points="23.7 74.69 3.54 60.7 23.79 53.05 43.79 60.7 23.7 74.69"></polygon>
      <path class="cls-9" d="M7.83,48.74a7.26,7.26,0,0,1-.61-3.94A6.45,6.45,0,0,1,9,41.15a9.49,9.49,0,0,1,3.47-2.08c.65-.17,1.3-.35,2-.48s1.33-.17,2-.22c-.64.16-1.29.3-1.93.45s-1.26.39-1.88.6a9.77,9.77,0,0,0-3.26,2.06,6.35,6.35,0,0,0-1.72,3.37c-.07.32-.08.65-.12,1s0,.65,0,1A6.82,6.82,0,0,0,7.83,48.74Z"></path>
      <path class="cls-10" d="M15.87,53.14a14.13,14.13,0,0,0-.28,3.61,14.4,14.4,0,0,1,.35-3.59,9,9,0,0,1,.57-1.71,2.83,2.83,0,0,1,1.1-1.35h0a19.18,19.18,0,0,0,4.15-3.31c.19-.21.38-.43.56-.65,0,.08,0,.15,0,.22A15.23,15.23,0,0,0,22,49.3c0,.49,0,1,0,1.47a3.68,3.68,0,0,1-.28,1.43,3.66,3.66,0,0,0,.3-1.43q0-.74.06-1.47a15.9,15.9,0,0,1,.29-2.93l.09-.37.4-.48,0,.12a15.3,15.3,0,0,0-.19,1.79,12.7,12.7,0,0,0-.54,2.41A12.27,12.27,0,0,1,22.56,48a1.46,1.46,0,0,1,.07-.19,19.46,19.46,0,0,0,.05,2c.07.77.17,1.53.29,2.29,0,.06-.07.13-.11.2q-.32.57-.6,1.17l-.55,1.19a5.8,5.8,0,0,0-.48,1.24c-.08.43-.14.86-.19,1.3a8.26,8.26,0,0,0,0,1.32c.09.88.27,1.74.39,2.6a5.73,5.73,0,0,1,0,1.31l0,1.31.06-1.31a5.74,5.74,0,0,0,0-1.31c-.1-.87-.27-1.73-.34-2.6a8.19,8.19,0,0,1,0-1.31c.05-.42.12-.86.21-1.28a5.41,5.41,0,0,1,.49-1.2l.57-1.18c.19-.38.39-.76.6-1.13.29,1.85.69,3.68.94,5.53h0c-.22-2-.58-3.87-.82-5.81a5,5,0,0,0,.45-.93c.06-.15.11-.31.16-.46,0,.05,0,.09,0,.14a7.34,7.34,0,0,1-.24,3.06,7.23,7.23,0,0,0,.34-3.07l0-.38.54-1.6a12.08,12.08,0,0,0,.64,1.47,10.29,10.29,0,0,1,1.08,3.38c-.12.54-.25,1.08-.38,1.61l.39-1.54c0,.19.07.39.09.58a16.11,16.11,0,0,0,.78,3.5,9.11,9.11,0,0,0,0,1.88h0v0a7.77,7.77,0,0,1,0-1.67c.06.15.12.29.19.43-.07-.16-.13-.31-.19-.47l.06-.67c.07-.79.17-1.58.26-2.37.18-1.58.43-3.15.5-4.77,0-.19,0-.37,0-.56,0,.06.05.11.08.18s.13.29.19.44l.19.36a1.42,1.42,0,0,0,.05.22,9.39,9.39,0,0,1,.31,1.58,3.78,3.78,0,0,0,.61,1.48,3.82,3.82,0,0,1-.57-1.49A9.07,9.07,0,0,0,28.5,51l.07.14c.27.55.55,1.1.8,1.67A7.12,7.12,0,0,1,30,54.52a6.94,6.94,0,0,0-.5-1.78L28.81,51l-.33-.86c-.06-.15-.11-.29-.16-.43s-.07-.19-.11-.29a6.83,6.83,0,0,1-.05-1.75v0c.08.14.16.3.25.44a10.56,10.56,0,0,1,1.16,2.39A10.44,10.44,0,0,0,28.51,48c-.12-.22-.23-.44-.34-.67v-.11a4.8,4.8,0,0,0,.68.59,3.91,3.91,0,0,0,1,.51,4.31,4.31,0,0,1,.92.38,1.9,1.9,0,0,1,.62.64,4.23,4.23,0,0,1,.34,2.35c-.11.94-.16,1.87-.2,2.81.06-.93.13-1.87.26-2.8a4.13,4.13,0,0,0-.13-1.88c.08.16.14.33.21.5.24.64.42,1.31.67,2s.61,1.25.88,1.89a8,8,0,0,1,.57,2,7.49,7.49,0,0,0-.51-2c-.25-.65-.57-1.27-.81-1.91s-.38-1.33-.59-2a3.42,3.42,0,0,0-1.11-1.82A4.3,4.3,0,0,0,30,48a3.84,3.84,0,0,1-.85-.51A5.36,5.36,0,0,1,27.85,46a21.8,21.8,0,0,0-2.1-3.41l-.05-.12c-.16-.53-.32-1.06-.44-1.59h0a.24.24,0,0,0-.11-.15.17.17,0,0,0-.33,0h0l0,.07-.09,0a.17.17,0,0,0-.13.2,2.87,2.87,0,0,1,.05.31c0,.06,0,.12-.07.19a.35.35,0,0,0-.26.12.4.4,0,0,0-.08.16s0,0,0,0a2.48,2.48,0,0,0-.53.44A3.11,3.11,0,0,0,23,43.5l-.09.31-.19.16c-.37.24-.79.44-1.18.67-.79.45-1.57.91-2.37,1.34s-1.75.59-2.4,1.27c.66-.66,1.65-.73,2.44-1.19s1.61-.85,2.41-1.26c.4-.21.8-.4,1.19-.64-.13.47-.25,1-.36,1.42-.28.36-.57.7-.87,1A19,19,0,0,1,17.54,50h0a2.94,2.94,0,0,0-1.14,1.42A9.73,9.73,0,0,0,15.87,53.14ZM24.1,42c-.09.23-.22.44-.33.67l-.26.63a5.44,5.44,0,0,1-.42.41s0-.1,0-.15a3,3,0,0,1,.65-1.27A2.21,2.21,0,0,1,24.1,42Zm3.44,9.92c-.1-.64-.24-1.26-.37-1.88a13.4,13.4,0,0,0-.35-1.35c-.05-.13-.11-.25-.17-.37.28.31.59.57.84.85a8.13,8.13,0,0,1,.14,1.09C27.61,50.78,27.58,51.33,27.54,51.89Zm-2.4-8.18c0,.39-.05.78-.08,1.17,0-.48-.1-1-.14-1.44a2.6,2.6,0,0,1,.1-.25C25.06,43.36,25.09,43.54,25.14,43.71Zm1.3,2c.31.87.63,1.75.87,2.64a4.73,4.73,0,0,1-.44-.46,1.41,1.41,0,0,1-.22-.34,3.93,3.93,0,0,1-.14-.41c-.1-.29-.18-.58-.26-.88l-.48-1.78-.24-1,.07.07C25.89,44.25,26.17,45,26.44,45.68Zm-.39,1.49c-.27-.47-.54-1-.77-1.44q.07-.46.12-.93c.13.52.25,1,.4,1.56C25.88,46.63,26,46.9,26.05,47.17ZM25,45.71a11.09,11.09,0,0,1-.43,2.06,7,7,0,0,1-.18-1.59,7.47,7.47,0,0,1,.25-1.75,3.22,3.22,0,0,0,.11.62c.07.2.16.39.24.57A.28.28,0,0,1,25,45.71Zm-1-.86-.07.11.06-.26.06-.18C24,44.63,23.93,44.74,23.92,44.85Zm3.81,3.9a27.27,27.27,0,0,0-1-3.19c-.08-.24-.18-.47-.27-.71.28.47.57.95.88,1.41l.09.12c.17.32.34.64.52,1,0,.11,0,.22,0,.33A6.65,6.65,0,0,0,28,49.15,4.24,4.24,0,0,0,27.73,48.75Zm-1.46,4.49c.08-.36.17-.72.25-1.08a3.64,3.64,0,0,0,.11-1.64A5.59,5.59,0,0,0,26,49a4.72,4.72,0,0,1-.62-1.49c-.08-.41-.13-.82-.18-1.24a.52.52,0,0,1,0-.11v0c.25.47.54.91.81,1.37a10.06,10.06,0,0,1,.66,1.2A13.48,13.48,0,0,1,27.09,50c.15.65.32,1.3.44,1.95-.08,1-.19,2-.28,3-.08.79-.16,1.59-.21,2.38,0,.15,0,.29,0,.44a16,16,0,0,1-.61-3.44C26.37,54,26.32,53.61,26.27,53.24Zm-1.63-5c.1-.24.2-.48.29-.75a6.38,6.38,0,0,0,.19-.72c0,.26.08.52.14.79a4.54,4.54,0,0,0,.66,1.51,5.43,5.43,0,0,1,.63,1.49,3.77,3.77,0,0,1-.08,1.6c-.07.34-.15.67-.22,1,0-.31-.09-.61-.16-.92a10.2,10.2,0,0,0-.72-2A13.09,13.09,0,0,1,24.64,48.22Zm-.81,1.63c0-.69-.11-1.39-.17-2.09a8.92,8.92,0,0,1,0-1.55c0-.23.06-.46.1-.69l.15-.24a5.5,5.5,0,0,0,0,.91,7.68,7.68,0,0,0,.43,2.29c0,.05,0,.09-.05.13C24.08,49,24,49.44,23.83,49.85Zm-.72-3.24c.07-.14.13-.28.21-.42l.06-.11s0,.07,0,.11a8.3,8.3,0,0,0,.09,1.59c.09.8.19,1.59.27,2.39-.1.31-.2.63-.31.94a4.88,4.88,0,0,1-.29.66c-.07-.66-.13-1.33-.16-2A17.52,17.52,0,0,1,23.11,46.61Zm.45-2,.12-.18a1.52,1.52,0,0,1-.06.2,9.75,9.75,0,0,0-.19,1.08c-.08.14-.17.28-.24.42,0-.13,0-.27.07-.4.09-.32.15-.65.25-1A.58.58,0,0,0,23.56,44.6Zm-.95.79c.11-.45.23-.9.37-1.34l.33-.24c-.09.27-.17.54-.25.81l-.06.24Z"></path>
      <path class="cls-9" d="M32.33,49.13a5.06,5.06,0,0,0,1.33.56c.46.16.93.3,1.4.43.93.25,1.87.49,2.83.66,1.9.42,3.83.63,5.78.87a21.91,21.91,0,0,1-5.88-.39,25.59,25.59,0,0,1-2.85-.79A8.18,8.18,0,0,1,32.33,49.13Z"></path>
      <path class="cls-9" d="M17.16,47a15.24,15.24,0,0,1-.59,2.66,19.84,19.84,0,0,1-1,2.56,16.2,16.2,0,0,1-1.43,2.35,8.83,8.83,0,0,1-2,1.9,17.12,17.12,0,0,0,3-4.46c.41-.8.74-1.63,1.07-2.47S16.86,47.81,17.16,47Z"></path>
      <path class="cls-9" d="M24.49,68.6c1-.47,2-.84,2.93-1.26s1.95-.85,2.88-1.35A17.5,17.5,0,0,0,33,64.33,7.65,7.65,0,0,0,35.07,62a6.13,6.13,0,0,1-1.87,2.61,15.13,15.13,0,0,1-2.68,1.8,25.53,25.53,0,0,1-3,1.26C26.55,68,25.51,68.31,24.49,68.6Z"></path>
      <path class="cls-9" d="M13.4,65.62a5,5,0,0,1-2.64-2.47,2.23,2.23,0,0,1,.17-1.9,4.43,4.43,0,0,1,1.27-1.38,13,13,0,0,1,3.27-1.63,25.37,25.37,0,0,1,3.5-.91c-1.13.41-2.26.8-3.37,1.26a14.48,14.48,0,0,0-3.11,1.66,4,4,0,0,0-1.18,1.22,1.94,1.94,0,0,0-.2,1.56A3.52,3.52,0,0,0,12,64.47,8,8,0,0,0,13.4,65.62Z"></path>
      <path class="cls-9" d="M35.07,47.82c1.17-1.63,2.39-3.21,3.44-4.89A21.87,21.87,0,0,0,40,40.37a8.33,8.33,0,0,0,.93-2.8,6.42,6.42,0,0,1-.59,3,19.06,19.06,0,0,1-1.42,2.68c-.57.83-1.15,1.65-1.79,2.42A23.83,23.83,0,0,1,35.07,47.82Z"></path>
      <polygon class="cls-3" points="0.41 33.67 23.7 43.55 47.33 33.49 47.11 33.43 0.41 33.67"></polygon>
      <ellipse class="cls-1" cx="24.45" cy="33.97" rx="5.46" ry="2.13"></ellipse>
      <ellipse class="cls-11" cx="24.59" cy="34.69" rx="4.5" ry="1.76"></ellipse>
      <path class="cls-12" d="M22.69,28.22c-6.27-3.29-12.08-5.81-12.14-5.83l-.12.28c.12.06,8.27,3.57,12.63,6.11.11.07.27-.12.2-.26Z"></path>
      <path class="cls-13" d="M11.65,23.14a1.68,1.68,0,0,1-.26.58,1,1,0,0,1-1.19.34,3,3,0,0,1-1.73-1.9A3.24,3.24,0,0,1,9,19.09l.37.17.87.44a5.29,5.29,0,0,1,1.91,1.56,2.9,2.9,0,0,1,.21.75A.94.94,0,0,1,11.65,23.14Z"></path>
      <path class="cls-12" d="M11.65,23.16a8.28,8.28,0,0,1-.84-.71,8.08,8.08,0,0,1-.72-.83,6,6,0,0,1-.6-.92,3.71,3.71,0,0,1-.23-.5,1.61,1.61,0,0,1-.14-.52,1.54,1.54,0,0,0,.17.51q.11.24.24.48a6.85,6.85,0,0,0,.62.9,8.8,8.8,0,0,0,1.55,1.52h0a0,0,0,0,1,0,.06S11.67,23.18,11.65,23.16Z"></path>
      <path class="cls-12" d="M11.21,22.78a1.24,1.24,0,0,1-.53.18,1.23,1.23,0,0,1-.57-.06L10,22.84l-.07,0-.06,0a.6.6,0,0,1-.13-.09l-.12-.09-.11-.11-.1-.11-.18-.24h0l.18.24.11.11a.47.47,0,0,0,.1.1l.12.1.13.07.06,0s.05,0,.07,0l.13.06a1.35,1.35,0,0,0,.56.05,1.17,1.17,0,0,0,.51-.19h0s0,0,0,0,0,0,0,0Z"></path>
      <path class="cls-12" d="M10.3,21.84a1,1,0,0,1-.43,0,1.3,1.3,0,0,1-.42-.14l-.09-.06-.09-.07-.09-.07-.08-.08L9,21.36,9,21.27l-.12-.19.12.19.08.09.07.08.08.08.09.07.09.06a.31.31,0,0,0,.1.05,1,1,0,0,0,.4.12.8.8,0,0,0,.41,0h0s0,0,0,0,0,0,0,0Z"></path>
      <path class="cls-12" d="M9.56,20.79a1.09,1.09,0,0,1-.26,0l-.25-.1a1.12,1.12,0,0,1-.22-.16.7.7,0,0,1-.13-.24h0a.86.86,0,0,0,.15.22.8.8,0,0,0,.21.15.73.73,0,0,0,.25.08l.25,0h0s0,0,0,0a0,0,0,0,1,0,0Z"></path>
      <path class="cls-12" d="M11.31,22.83a1.05,1.05,0,0,0,.2-.34,1.72,1.72,0,0,0,.1-.39,2.55,2.55,0,0,0,0-.39v-.19l0-.19,0,.19,0,.19c0,.13,0,.26,0,.4a1.83,1.83,0,0,1-.09.39,1.19,1.19,0,0,1-.08.2.7.7,0,0,1-.13.17h0a0,0,0,0,1,0,0h0Z"></path>
      <path class="cls-12" d="M10.74,22.3A1.34,1.34,0,0,0,11,22a2,2,0,0,0,.11-.35,2.08,2.08,0,0,0,0-.35,1.1,1.1,0,0,0,0-.18L11,21l0,.16,0,.18a1.47,1.47,0,0,1,0,.36A1.61,1.61,0,0,1,11,22a1,1,0,0,1-.2.32,0,0,0,0,1,0,0s0,0,0-.05Z"></path>
      <path class="cls-12" d="M10.4,22a.83.83,0,0,0,.16-.36,1.36,1.36,0,0,0,0-.4V21.1l0-.1v-.09l0-.09-.08-.17-.09-.17h0l.09.17.08.17,0,.09,0,.05v0l0,.1,0,.1a1.34,1.34,0,0,1,0,.4,1.11,1.11,0,0,1-.16.39,0,0,0,0,1,0,0,0,0,0,0,1,0,0Z"></path>
      <path class="cls-12" d="M9.91,21.35c0-.23,0-.47,0-.7s0-.23,0-.34a.6.6,0,0,0-.1-.32h0a.69.69,0,0,1,.12.32c0,.11,0,.22,0,.34s0,.46,0,.7a0,0,0,0,1,0,0s0,0,0,0Z"></path>
      <path class="cls-13" d="M16,25.41a1.56,1.56,0,0,1,0,.66,1.76,1.76,0,0,1-.68,1,2,2,0,0,1-1.42.22c-.64-.06-1.54-.19-2.81-.22a2.84,2.84,0,0,1,0-.47,3.16,3.16,0,0,1,.37-1.21A3.64,3.64,0,0,1,12.68,24a3.57,3.57,0,0,1,2.2-.51,2.87,2.87,0,0,1,.4.11A2.69,2.69,0,0,1,16,24a1,1,0,0,1,.37.66A1,1,0,0,1,16,25.41Z"></path>
      <path class="cls-12" d="M16,25.44a4.52,4.52,0,0,0-1.16-.1,5.53,5.53,0,0,0-1.14.18,4.85,4.85,0,0,0-1.09.43c-.17.09-.35.18-.52.29a4.4,4.4,0,0,1-.52.3,5.54,5.54,0,0,0,.51-.33c.16-.11.33-.21.51-.31a4.88,4.88,0,0,1,1.08-.46,5.12,5.12,0,0,1,1.17-.2,3.94,3.94,0,0,1,1.18.11h0a0,0,0,0,1,0,0S16,25.44,16,25.44Z"></path>
      <path class="cls-12" d="M15.37,25.32a2.32,2.32,0,0,1-.29.51,2.23,2.23,0,0,1-.37.38l-.1.07,0,0-.05,0-.1.06-.11,0-.1,0-.11,0-.22.06h0l.22-.06.1,0,.11,0,.1,0,.1-.06.05,0,0,0,.1-.07a2.59,2.59,0,0,0,.35-.38,2.11,2.11,0,0,0,.26-.49h0l0,0s0,0,0,0Z"></path>
      <path class="cls-12" d="M14,25.41a1.65,1.65,0,0,1-.16.42,2.16,2.16,0,0,1-.24.35l-.06.07-.08.07-.07.06-.07.06-.08,0-.08.05-.16.09.16-.1.07-.05.08-.05.07-.07.07-.06.07-.07.06-.08a2,2,0,0,0,.22-.34,2.21,2.21,0,0,0,.14-.41h0a0,0,0,0,1,0,0s0,0,0,0Z"></path>
      <path class="cls-12" d="M12.7,25.88a1.31,1.31,0,0,1-.06.27,1.21,1.21,0,0,1-.08.25,1,1,0,0,1-.12.23.67.67,0,0,1-.18.16h0a.55.55,0,0,0,.17-.17,1.2,1.2,0,0,0,.11-.23,2,2,0,0,0,.07-.26c0-.08,0-.17,0-.26h0a0,0,0,0,1,0,0s0,0,0,0Z"></path>
      <path class="cls-12" d="M15.49,25.3a.84.84,0,0,0,0-.41,1.18,1.18,0,0,0-.22-.39,1.76,1.76,0,0,0-.35-.31l-.22-.13L14.42,24l.24.1.23.12a1.64,1.64,0,0,1,.37.32,1.15,1.15,0,0,1,.24.39,1.6,1.6,0,0,1,.05.21.89.89,0,0,1,0,.23s0,0,0,0,0,0,0,0h0Z"></path>
      <path class="cls-12" d="M14.66,25.3a.85.85,0,0,0-.12-.37,1.08,1.08,0,0,0-.26-.31,1.43,1.43,0,0,0-.39-.2l-.22-.05a2,2,0,0,0-.24,0l.24,0a.86.86,0,0,1,.23.05,1.4,1.4,0,0,1,.41.19,1,1,0,0,1,.28.31,1.06,1.06,0,0,1,.13.39,0,0,0,0,1,0,0,0,0,0,0,1,0,0Z"></path>
      <path class="cls-12" d="M14.14,25.37a.75.75,0,0,0-.26-.33,1,1,0,0,0-.43-.17h-.37l-.12,0a1.83,1.83,0,0,0-.25.06l-.25.09h0l.24-.1.25-.07.13,0h.26l.12,0a1.15,1.15,0,0,1,.45.16.76.76,0,0,1,.29.35s0,0,0,0,0,0,0,0Z"></path>
      <path class="cls-12" d="M13.35,25.6a3.18,3.18,0,0,0-.77-.12,3.05,3.05,0,0,0-.41.05.71.71,0,0,0-.38.18h0a.91.91,0,0,1,.39-.2,2,2,0,0,1,.41-.06,2.9,2.9,0,0,1,.79.1s0,0,0,0,0,0,0,0Z"></path>
      <path class="cls-14" d="M18,25.78a.3.3,0,0,1,0-.15,1.49,1.49,0,0,1,.39-.4c.47-.36.52-.33.64-.53a1.6,1.6,0,0,0,.24-.55,1.57,1.57,0,0,0-.25-1.1,4.42,4.42,0,0,0-.64-.85,1.87,1.87,0,0,0-.68-.41c-.63-.22-.58-.11-.68,0s0,.4-.29.71a2,2,0,0,0-.29.89,1.78,1.78,0,0,0,0,.85c.16.29.26.47.93.86a2.53,2.53,0,0,1,.24.21.79.79,0,0,1,.25.42C17.91,26,17.94,26,18,25.78Z"></path>
      <path class="cls-12" d="M17.87,25.89a6.71,6.71,0,0,0,.06-1,7.63,7.63,0,0,0-.27-2l-.08-.24-.09-.23a4.43,4.43,0,0,0-.2-.45,3.73,3.73,0,0,1,.41.91,6.61,6.61,0,0,1,.22,1,8.42,8.42,0,0,1,.08,1,8.55,8.55,0,0,1-.06,1,0,0,0,0,1,0,0l0,0Z"></path>
      <path class="cls-12" d="M17.93,25.45a1.57,1.57,0,0,1,.31-.45l.19-.19.1-.09.11-.09.05,0,0-.05a1,1,0,0,1,.08-.11.9.9,0,0,0,.11-.27,1.26,1.26,0,0,0,0-.58h0a1.22,1.22,0,0,1,0,.6,1.09,1.09,0,0,1-.11.27.48.48,0,0,1-.09.11l0,.05-.06,0-.1.09-.1.09a1.7,1.7,0,0,0-.19.19,1.4,1.4,0,0,0-.29.44h0s0,0,0,0Z"></path>
      <path class="cls-12" d="M18,24.73c.11-.14.21-.29.32-.45l.14-.23a2,2,0,0,0,.13-.25,1.09,1.09,0,0,0,0-.57,2.07,2.07,0,0,0-.17-.55h0a2.29,2.29,0,0,1,.18.56,1.14,1.14,0,0,1,0,.58,2,2,0,0,1-.13.25c0,.08-.09.16-.14.24a5.09,5.09,0,0,1-.31.45,0,0,0,0,1,0,0,0,0,0,0,1,0,0Z"></path>
      <path class="cls-12" d="M17.85,23.67a.84.84,0,0,0,.18-.23.94.94,0,0,0,.1-.28s0-.05,0-.08v-.23a1.1,1.1,0,0,0,0-.16c0-.05,0-.1,0-.15h0l.05.15,0,.16v.23s0,.06,0,.08a1.24,1.24,0,0,1-.1.29.79.79,0,0,1-.19.25h0v0Z"></path>
      <path class="cls-12" d="M17.66,22.85a1.45,1.45,0,0,0,.12-.25,1.38,1.38,0,0,0,.08-.27h0a1.43,1.43,0,0,1-.07.28,2,2,0,0,1-.11.26h0a0,0,0,0,1,0,0h0Z"></path>
      <path class="cls-12" d="M17.5,22.44a.88.88,0,0,0,.12-.21.56.56,0,0,0,0-.12.17.17,0,0,0,0-.12h0a.17.17,0,0,1,0,.12.34.34,0,0,1,0,.12.91.91,0,0,1-.11.22,0,0,0,0,1,0,0v0Z"></path>
      <path class="cls-12" d="M17.92,25.56a1.65,1.65,0,0,0-.23-.46l-.16-.2-.18-.18a2.83,2.83,0,0,1-.32-.37,1.16,1.16,0,0,1-.18-.43,1.33,1.33,0,0,0,.19.42,2.3,2.3,0,0,0,.33.37,2,2,0,0,1,.35.37,1.61,1.61,0,0,1,.24.47s0,0,0,0,0,0,0,0Z"></path>
      <path class="cls-12" d="M17.93,24.37,17.37,24l-.13-.1a.68.68,0,0,1-.12-.12,2.48,2.48,0,0,1-.19-.26c.06.09.13.17.2.26a.43.43,0,0,0,.12.11l.13.1.57.39a0,0,0,0,1,0,0Z"></path>
      <path class="cls-12" d="M17.86,23.84l-.2-.24a1.43,1.43,0,0,0-.24-.19c-.09-.06-.19-.09-.27-.15a.71.71,0,0,1-.23-.19h0a.84.84,0,0,0,.23.18c.09.06.19.08.28.14a1.5,1.5,0,0,1,.25.19,2.57,2.57,0,0,1,.21.24,0,0,0,0,1,0,0s0,0,0,0Z"></path>
      <path class="cls-12" d="M17.73,23.14,17.38,23l-.18-.09-.08-.05s-.05,0-.07-.06l.07.06.09,0,.17.08.36.16s0,0,0,0,0,0,0,0Z"></path>
      <path class="cls-12" d="M17.55,22.63a.66.66,0,0,1-.19-.09.31.31,0,0,1-.1-.05l-.08-.07h0l.08.06.1,0,.19.08h0a0,0,0,0,1,0,0l0,0Z"></path>
      <path class="cls-12" d="M24.51,31.74c-3.45-10.59-7.19-19.2-7.23-19.29l0,.39c.08.19,4.93,12.28,7.06,19.93.06.21.43.17.51-.07C24.71,32.38,24.61,32.07,24.51,31.74Z"></path>
      <path class="cls-13" d="M17.39,13.09a3.3,3.3,0,0,1-1.09.72,2,2,0,0,1-2.45-.74A6.2,6.2,0,0,1,13,7.87a6.61,6.61,0,0,1,4.24-4.79s.19.27.45.71.63,1,1,1.72a10.59,10.59,0,0,1,1.58,4.81,5.79,5.79,0,0,1-.46,1.55A1.93,1.93,0,0,1,17.39,13.09Z"></path>
      <path class="cls-12" d="M17.36,13.13A15,15,0,0,1,16.71,11a15.54,15.54,0,0,1-.34-2.24,14.22,14.22,0,0,1,0-2.26,8.37,8.37,0,0,1,.15-1.12,4,4,0,0,1,.34-1.06,4.44,4.44,0,0,0-.28,1.07,8.32,8.32,0,0,0-.1,1.11,13.94,13.94,0,0,0,.07,2.24,18.34,18.34,0,0,0,.36,2.22,20.15,20.15,0,0,0,.63,2.14h0a.09.09,0,0,1-.17.06Z"></path>
      <path class="cls-12" d="M17,12a2.71,2.71,0,0,1-1.12-.27A2.67,2.67,0,0,1,15,11a2.33,2.33,0,0,1-.17-.26l-.09-.13-.06-.14c0-.09-.09-.18-.13-.28l-.09-.3a1.63,1.63,0,0,1-.07-.3l-.06-.31c0-.21,0-.42,0-.63h0c0,.21,0,.42.05.62l.06.31c0,.1,0,.2.07.3l.11.29a1.75,1.75,0,0,0,.13.28l.06.13.09.13a2.07,2.07,0,0,0,.17.24,2.59,2.59,0,0,0,.91.71,2.54,2.54,0,0,0,1.08.24h0A.06.06,0,0,1,17,12Z"></path>
      <path class="cls-12" d="M16.5,9.34a2.29,2.29,0,0,1-.78-.43,2.48,2.48,0,0,1-.57-.71,1.24,1.24,0,0,1-.1-.2A2,2,0,0,1,15,7.78a1.87,1.87,0,0,1-.07-.22l-.05-.23a1.81,1.81,0,0,1,0-.23l0-.23v0l0,.23a1.7,1.7,0,0,0,0,.22l0,.23a1.8,1.8,0,0,0,.08.21A.67.67,0,0,0,15.1,8a1.24,1.24,0,0,0,.1.2,2.34,2.34,0,0,0,.58.67,2,2,0,0,0,.75.39h0a.06.06,0,0,1,0,.07.07.07,0,0,1-.08,0Z"></path>
      <path class="cls-12" d="M16.37,6.7a2.34,2.34,0,0,1-.4-.37,2.36,2.36,0,0,1-.32-.44,1.72,1.72,0,0,1-.19-.52,1.5,1.5,0,0,1,0-.56h0a1.45,1.45,0,0,0,0,.55,1.51,1.51,0,0,0,.21.49,2.59,2.59,0,0,0,.32.42,2.58,2.58,0,0,0,.41.33h0a.06.06,0,0,1-.07.1Z"></path>
      <path class="cls-12" d="M17.14,12.17a1.9,1.9,0,0,0,.73-.35,3.61,3.61,0,0,0,.6-.57,4.87,4.87,0,0,0,.47-.65l.2-.34.19-.34-.17.35-.19.34a6.11,6.11,0,0,1-.46.67,3.3,3.3,0,0,1-.58.6,2.5,2.5,0,0,1-.36.24,1.86,1.86,0,0,1-.41.17.05.05,0,0,1-.07,0,.06.06,0,0,1,0-.07h0Z"></path>
      <path class="cls-12" d="M16.74,10.63a2.2,2.2,0,0,0,.69-.29A3,3,0,0,0,18,9.86a3.48,3.48,0,0,0,.43-.6c.06-.1.1-.22.16-.32l.13-.33-.12.33c-.05.11-.09.22-.15.33a3.44,3.44,0,0,1-.4.62,3.21,3.21,0,0,1-.58.52,2.06,2.06,0,0,1-.72.33.06.06,0,0,1,0-.11Z"></path>
      <path class="cls-12" d="M16.55,9.64a1.92,1.92,0,0,0,.69-.45,2.52,2.52,0,0,0,.46-.66l.08-.18.07-.19,0-.09,0-.1L18,7.78,18,7.39l0-.39h0l0,.4L18,7.79,18,8l0,.1,0,.09-.06.2-.08.18a2.42,2.42,0,0,1-.46.7,2,2,0,0,1-.71.5.06.06,0,0,1-.08,0,.06.06,0,0,1,0-.08Z"></path>
      <path class="cls-12" d="M16.36,8.06c.27-.4.55-.8.79-1.21a5.24,5.24,0,0,0,.34-.61,1.3,1.3,0,0,0,.17-.66h0a1.33,1.33,0,0,1-.14.67,6.23,6.23,0,0,1-.32.63c-.23.42-.48.83-.74,1.25a.06.06,0,0,1-.1-.06Z"></path>
      <path class="cls-13" d="M20.45,20.7a2.44,2.44,0,0,1-.78.75,2.73,2.73,0,0,1-1.89.35,3.22,3.22,0,0,1-1.92-1.35c-.68-.81-1.58-2-3-3.47a4.32,4.32,0,0,1,.53-.56,5.15,5.15,0,0,1,1.81-1,5.85,5.85,0,0,1,3-.11,5.75,5.75,0,0,1,3.16,1.91,3.43,3.43,0,0,1,.34.58,4.11,4.11,0,0,1,.37,1.31,1.33,1.33,0,0,1-1.61,1.58Z"></path>
      <path class="cls-12" d="M20.37,20.75a7.43,7.43,0,0,0-1.24-1.44,8,8,0,0,0-1.55-1.09,8.88,8.88,0,0,0-1.76-.75c-.31-.09-.62-.18-.94-.24s-.64-.13-1-.24c.32.09.65.12,1,.18s.64.14,1,.22a8.27,8.27,0,0,1,3.39,1.8,6.81,6.81,0,0,1,1.26,1.47h0a.08.08,0,1,1-.13.09Z"></path>
      <path class="cls-12" d="M19.79,19.92a3.47,3.47,0,0,1-.91.26,3.69,3.69,0,0,1-.87,0l-.2,0h-.1l-.09,0-.19-.05L17.26,20l-.17-.07-.16-.09-.32-.19h0l.32.18.17.08a.44.44,0,0,0,.17.07l.17.07.18,0,.1,0,.1,0,.19,0a4.16,4.16,0,0,0,.85-.05,3.28,3.28,0,0,0,.87-.28h0a0,0,0,0,1,.06,0,0,0,0,0,1,0,.07Z"></path>
      <path class="cls-12" d="M18.07,18.44a2.83,2.83,0,0,1-.66.31,3.29,3.29,0,0,1-.68.14h-.48l-.15,0-.15,0-.16,0-.29-.08.3.07.15,0,.15,0,.16,0h.47a3,3,0,0,0,.66-.16,2.43,2.43,0,0,0,.62-.32h0a0,0,0,0,1,.07,0,0,0,0,0,1,0,.07Z"></path>
      <path class="cls-12" d="M16,17.52l-.37.25a3.58,3.58,0,0,1-.39.21,2.64,2.64,0,0,1-.4.12,1.08,1.08,0,0,1-.4,0h0a1.08,1.08,0,0,0,.4,0,3,3,0,0,0,.39-.14,3.61,3.61,0,0,0,.36-.23,2.88,2.88,0,0,0,.35-.26h0a0,0,0,0,1,.07,0s0,.06,0,.07Z"></path>
      <path class="cls-12" d="M20,20a1.45,1.45,0,0,0,.43-.52,2.25,2.25,0,0,0,.19-.71,3.13,3.13,0,0,0-.17-1.18l-.16-.4.18.4.12.4a3.15,3.15,0,0,1,.08.8,2.17,2.17,0,0,1-.17.73,2.48,2.48,0,0,1-.18.31,1.29,1.29,0,0,1-.27.25,0,0,0,0,1-.07,0,.06.06,0,0,1,0-.07h0Z"></path>
      <path class="cls-12" d="M19,19.07a1.53,1.53,0,0,0,.29-.55,1.47,1.47,0,0,0,0-.66,2.05,2.05,0,0,0-.22-.69l-.2-.32a3.61,3.61,0,0,0-.25-.3,3.73,3.73,0,0,1,.26.3,2.2,2.2,0,0,1,.21.32,2.33,2.33,0,0,1,.26.69,1.73,1.73,0,0,1,0,.68,1.67,1.67,0,0,1-.29.6,0,0,0,0,1-.07,0,0,0,0,0,1,0-.07h0Z"></path>
      <path class="cls-12" d="M18.3,18.57a1.33,1.33,0,0,0,.06-.69,1.58,1.58,0,0,0-.3-.68L17.93,17l-.14-.14-.07-.07-.09-.06-.16-.13c-.12-.07-.24-.15-.36-.21l-.4-.17h0s0,0,0,0l.4.17c.13.06.25.13.37.2l.17.13.09.06.08.07L18,17l.13.16a1.65,1.65,0,0,1,.33.71,1.22,1.22,0,0,1-.06.73,0,0,0,0,1-.06,0,.05.05,0,0,1,0-.07h0Z"></path>
      <path class="cls-12" d="M17.1,17.94a4.51,4.51,0,0,0-.76-1,3.62,3.62,0,0,0-.53-.42,1.3,1.3,0,0,0-.66-.22h0a1.43,1.43,0,0,1,.67.21,3.36,3.36,0,0,1,.56.41,4.09,4.09,0,0,1,.81,1s0,.05,0,.06a0,0,0,0,1-.07,0Z"></path>
      <path class="cls-14" d="M22.43,25.56a.57.57,0,0,1,.33-.2,3.25,3.25,0,0,1,1.45,0c1.54.17,1.57.33,2.17.16a3.87,3.87,0,0,0,1.45-.59,4,4,0,0,0,1.52-2.5,11.39,11.39,0,0,0,.36-2.77,5,5,0,0,0-.54-2c-.76-1.56-.86-1.26-1.33-1.16s-.71.74-1.84.79a5,5,0,0,0-2.14,1.14A4.73,4.73,0,0,0,22.33,20c-.24.84-.38,1.36.16,3.31a7,7,0,0,1,.07.83,2.16,2.16,0,0,1-.29,1.23C21.83,25.89,22,25.79,22.43,25.56Z"></path>
      <path class="cls-12" d="M22,25.56a19.93,19.93,0,0,0,1.92-1.75,20.08,20.08,0,0,0,1.68-2A17.76,17.76,0,0,0,27,19.62L27.3,19l.26-.59A9.19,9.19,0,0,0,28,17.24a9,9,0,0,1-.88,2.44,18.27,18.27,0,0,1-1.37,2.23,21.67,21.67,0,0,1-1.68,2,18,18,0,0,1-1.94,1.76.08.08,0,0,1-.12,0,.09.09,0,0,1,0-.12Z"></path>
      <path class="cls-12" d="M22.93,24.84a4.35,4.35,0,0,1,1.38-.28,5.63,5.63,0,0,1,.71,0c.12,0,.24,0,.36,0l.35,0h.18l.18,0a2.11,2.11,0,0,0,.35-.05,3.12,3.12,0,0,0,.69-.28,3.19,3.19,0,0,0,1.07-1.09h0s0,0,0,0a3.11,3.11,0,0,1-1.07,1.12,2.66,2.66,0,0,1-.7.29,1.51,1.51,0,0,1-.36.06l-.19,0h-.18l-.35,0-.35,0a5.61,5.61,0,0,0-.71,0,4,4,0,0,0-1.34.29h0a.05.05,0,0,1-.07,0,0,0,0,0,1,0-.06Z"></path>
      <path class="cls-12" d="M24.27,23.53c.47-.06.93-.15,1.4-.25l.69-.18a7,7,0,0,0,.69-.23,2.78,2.78,0,0,0,1.12-1,5.38,5.38,0,0,0,.69-1.35h0s0,0,0,0a5.48,5.48,0,0,1-.68,1.37,3,3,0,0,1-1.13,1,6.44,6.44,0,0,1-.7.24l-.7.19c-.47.11-.93.2-1.39.27a.05.05,0,0,1,0-.1Z"></path>
      <path class="cls-12" d="M26,21.36a2,2,0,0,0,.75-.09,2.21,2.21,0,0,0,.71-.34,1,1,0,0,0,.16-.12.93.93,0,0,0,.15-.13l.15-.14.13-.16a2.44,2.44,0,0,0,.23-.33l.2-.36h0s0,0,0,0v0c-.07.12-.13.25-.19.37a4,4,0,0,1-.23.34l-.14.16-.14.15-.15.14-.16.13a2.61,2.61,0,0,1-.73.36,2.3,2.3,0,0,1-.78.11.05.05,0,0,1,0-.1h0Z"></path>
      <path class="cls-12" d="M27.13,19.5a4.34,4.34,0,0,0,.69-.24,3.58,3.58,0,0,0,.66-.37h0s0,0,0,0a4.27,4.27,0,0,1-.64.4,4.65,4.65,0,0,1-.7.28s0,0-.06,0a.06.06,0,0,1,0-.06Z"></path>
      <path class="cls-12" d="M27.59,18.45a3.28,3.28,0,0,0,.61-.18,1.59,1.59,0,0,0,.29-.15.49.49,0,0,0,.21-.24h0a.47.47,0,0,1-.21.25,2.69,2.69,0,0,1-.29.16,2.57,2.57,0,0,1-.61.2,0,0,0,0,1,0,0,.05.05,0,0,1,0,0Z"></path>
      <path class="cls-12" d="M22.69,25a3.93,3.93,0,0,0,.42-1.25,5.06,5.06,0,0,0,.06-.66c0-.22,0-.45,0-.67a6.78,6.78,0,0,1,.08-1.28A3,3,0,0,1,23.69,20a3,3,0,0,0-.42,1.14,6.86,6.86,0,0,0-.05,1.29,6.58,6.58,0,0,1,0,1.33,4.22,4.22,0,0,1-.4,1.31.07.07,0,0,1-.09,0,.05.05,0,0,1,0-.08h0Z"></path>
      <path class="cls-12" d="M24.87,22.83c-.08-.6-.18-1.19-.29-1.78,0-.14,0-.29-.07-.43a3.23,3.23,0,0,1,0-.44c0-.28.07-.56.12-.83q-.06.42-.09.84a2.06,2.06,0,0,0,0,.43c0,.14.05.28.08.43.12.58.24,1.17.34,1.77,0,0,0,.05,0,.05s-.05,0-.06,0Z"></path>
      <path class="cls-12" d="M25.71,21.71a4.48,4.48,0,0,0,.06-.81,3.57,3.57,0,0,0-.09-.8c-.06-.26-.19-.5-.25-.77a2,2,0,0,1-.07-.77h0a2.26,2.26,0,0,0,.09.77c.07.26.2.49.27.76a3.1,3.1,0,0,1,.11.81,3.76,3.76,0,0,1,0,.82s0,.05-.05,0-.05,0,0-.05Z"></path>
      <path class="cls-12" d="M26.74,20.16l-.34-1-.16-.48a2.17,2.17,0,0,1-.07-.24,1,1,0,0,1,0-.24.67.67,0,0,0,0,.24,2.17,2.17,0,0,0,.07.24l.18.47.39.94a0,0,0,0,1,0,.06,0,0,0,0,1-.06,0Z"></path>
      <path class="cls-12" d="M27.33,18.9a5.62,5.62,0,0,1-.19-.53,2.68,2.68,0,0,1-.07-.27.83.83,0,0,1,0-.27h0a.86.86,0,0,0,.05.27,1.61,1.61,0,0,0,.09.26c.07.17.15.33.23.5h0a.07.07,0,0,1,0,.07,0,0,0,0,1-.06,0Z"></path>
      <path class="cls-12" d="M27.74,12c0,.17-3.34,18.62-3.24,20.25s-.47.32-.56-.07c1.74-10.8,3.24-20,3.27-20.24Z"></path>
      <path class="cls-14" d="M27.13,13.79a.63.63,0,0,0,0-.47,3.11,3.11,0,0,0-1.08-1.42c-1.44-1.18-1.63-1-2-1.57A5.29,5.29,0,0,1,23.13,9a3.62,3.62,0,0,1,.08-2.71c.43-1.27.61-2.07.87-2.73a10.27,10.27,0,0,1,1.17-2.1C26.39-.32,26.44-.06,27.05.15s.84,1.05,2.25,1.5C30,1.86,31,3.08,31.61,4.51a7,7,0,0,1,.79,3.72c-.38,1.38-.68,2.39-3,3.71,0,0-.42.29-.87.66a3.42,3.42,0,0,0-1.09,1.24C27.18,14.65,27.16,14.37,27.13,13.79Z"></path>
      <path class="cls-12" d="M27.41,14.23A30,30,0,0,0,27.7,11a32.83,32.83,0,0,0-.05-3.29Q27.56,6,27.32,4.39l-.12-.82-.13-.81-.28-1.63c.07,1.11.26,2.19.39,3.28s.24,2.17.29,3.26a32.43,32.43,0,0,1,0,3.27c0,1.09-.14,2.18-.29,3.26a.11.11,0,0,0,.09.13.12.12,0,0,0,.12-.1Z"></path>
      <path class="cls-12" d="M27.53,12.77a3.76,3.76,0,0,0-.84-1.53,5.76,5.76,0,0,0-.61-.6l-.35-.26-.35-.24L25.21,10l-.16-.14a2.57,2.57,0,0,1-.29-.28,3.51,3.51,0,0,1-.45-.66A3.1,3.1,0,0,1,24,7.46h0A3.17,3.17,0,0,0,24.26,9a3.23,3.23,0,0,0,.44.67c.1.1.19.21.3.3l.16.14.17.13.35.24c.12.08.23.18.34.26a6.79,6.79,0,0,1,.6.6,3.7,3.7,0,0,1,.79,1.49h0a.06.06,0,0,0,.08,0,.06.06,0,0,0,0-.07Z"></path>
      <path class="cls-12" d="M27.65,10.41c-.36-.47-.74-.91-1.11-1.35L26,8.42c-.18-.21-.38-.42-.55-.63a3.41,3.41,0,0,1-.6-1.48,8.5,8.5,0,0,1-.09-1.6l0,0a0,0,0,0,0,0,0,8.65,8.65,0,0,0,.07,1.61,3.56,3.56,0,0,0,.59,1.51c.18.23.37.43.55.65s.38.42.56.64c.37.44.74.89,1.09,1.36a.06.06,0,0,0,.09,0,.05.05,0,0,0,0-.08Z"></path>
      <path class="cls-12" d="M27.54,6.91a3,3,0,0,1-.78-.54,3.42,3.42,0,0,1-.61-.71c0-.07-.08-.14-.12-.2a2.12,2.12,0,0,1-.11-.21L25.82,5l-.08-.21a3.81,3.81,0,0,1-.13-.45,3.54,3.54,0,0,1-.08-.45h0a0,0,0,0,0,0,0s0,0,0,0,0,.31.07.46a3.33,3.33,0,0,0,.13.45l.07.23.09.21a2.12,2.12,0,0,0,.11.21,2.25,2.25,0,0,1,.12.21,3.59,3.59,0,0,0,.61.74A3.15,3.15,0,0,0,27.5,7a.05.05,0,0,0,.08,0,.06.06,0,0,0,0-.08h0Z"></path>
      <path class="cls-12" d="M27.23,4.19q-.39-.26-.75-.54A6.47,6.47,0,0,1,25.81,3s0,0,0,0h0a5.7,5.7,0,0,0,.65.65,7.08,7.08,0,0,0,.72.59.06.06,0,0,0,.07-.1Z"></path>
      <path class="cls-12" d="M27,2.75a4.38,4.38,0,0,1-.71-.38A2.35,2.35,0,0,1,26,2.14a.62.62,0,0,1-.21-.32h0a.62.62,0,0,0,.2.34,3.92,3.92,0,0,0,.32.25,6,6,0,0,0,.7.4s0,0,0,0,0,0,0,0Z"></path>
      <path class="cls-12" d="M27.52,13.15a7.26,7.26,0,0,1,.94-1.44A8.77,8.77,0,0,1,29,11l.6-.65a6.15,6.15,0,0,0,1-1.54A4.37,4.37,0,0,0,30.94,7a4.56,4.56,0,0,1-.36,1.85,5.84,5.84,0,0,1-1,1.5c-.4.43-.83.85-1.2,1.31a8.79,8.79,0,0,0-1,1.45.08.08,0,0,0,0,.11.07.07,0,0,0,.1,0Z"></path>
      <path class="cls-12" d="M27.67,9.24a17.2,17.2,0,0,0,1.62-1.68c.12-.15.25-.31.36-.48a2.48,2.48,0,0,0,.27-.54,8.19,8.19,0,0,0,.33-1.2,7.68,7.68,0,0,1-.36,1.18,2.63,2.63,0,0,1-.27.53,6,6,0,0,1-.38.47,18.23,18.23,0,0,1-1.65,1.64.05.05,0,0,0,0,.08.06.06,0,0,0,.09,0Z"></path>
      <path class="cls-12" d="M27.64,7.48c.14-.32.29-.63.45-.94a10.3,10.3,0,0,1,.55-.9c.21-.28.49-.51.68-.82a2.67,2.67,0,0,0,.41-1h0a2.38,2.38,0,0,1-.43,1c-.19.3-.47.52-.69.81a7.55,7.55,0,0,0-.58.89c-.18.31-.33.62-.48.94a.06.06,0,1,0,.11.05Z"></path>
      <path class="cls-12" d="M27.38,5.14c.29-.32.58-.65.84-1,.13-.18.26-.36.38-.55a2.69,2.69,0,0,0,.16-.29A.94.94,0,0,0,28.87,3a.74.74,0,0,1-.12.31,1.67,1.67,0,0,1-.18.28,5.25,5.25,0,0,1-.4.53,10,10,0,0,1-.88,1,.06.06,0,0,0,0,.08.06.06,0,0,0,.09,0Z"></path>
      <path class="cls-12" d="M27.2,3.39a4.89,4.89,0,0,0,.41-.6,2.55,2.55,0,0,0,.17-.33,1.28,1.28,0,0,0,.09-.35h0a1.38,1.38,0,0,1-.12.34,2.49,2.49,0,0,1-.19.3,4.71,4.71,0,0,1-.44.56h0a.06.06,0,0,0,0,.08.06.06,0,0,0,.09,0Z"></path>
      <path class="cls-14" d="M26,19.66s0-.51-1.31-.8-1.36-.11-1.8-.34a2.58,2.58,0,0,1-1.82-2.4A8.2,8.2,0,0,1,21,12.37c.25-1.48.36-1.31.81-1.34s.83.45,1.86.33a3.94,3.94,0,0,1,2.27,1.13,4.8,4.8,0,0,1,1.59,2,3.57,3.57,0,0,1-.7,3.23s-.17.32-.32.7a2.3,2.3,0,0,0-.25,1.13C26.35,20.18,26.24,20,26,19.66Z"></path>
      <path class="cls-12" d="M26.35,19.84c-.29-.72-.59-1.43-.93-2.13s-.7-1.37-1.08-2.05-.78-1.33-1.2-2l-.31-.49-.32-.48-.63-1c.34.7.77,1.35,1.17,2s.81,1.31,1.18,2,.72,1.35,1.05,2.05.64,1.4.93,2.12a.08.08,0,0,0,.09,0,.09.09,0,0,0,.05-.1Z"></path>
      <path class="cls-12" d="M25.92,18.9a2.78,2.78,0,0,0-1-.67,4,4,0,0,0-.59-.18L24,18l-.3,0-.15,0-.14,0a2.29,2.29,0,0,1-.28-.09,2,2,0,0,1-.49-.28,2.25,2.25,0,0,1-.69-.87h0a0,0,0,0,0,0,0s0,0,0,0a2.28,2.28,0,0,0,.68.89,2.25,2.25,0,0,0,.5.29,1.66,1.66,0,0,0,.29.1l.14,0,.15,0,.3,0,.3.05a4.17,4.17,0,0,1,.57.18,2.78,2.78,0,0,1,1,.66h.07a.06.06,0,0,0,0-.06Z"></path>
      <path class="cls-12" d="M25.21,17.39l-1.13-.49-.57-.23L23,16.44a2.61,2.61,0,0,1-.84-.78,6.25,6.25,0,0,1-.55-1h0s0,0,0,0a6.69,6.69,0,0,0,.55,1,2.51,2.51,0,0,0,.84.81l.56.24.56.23c.37.17.75.33,1.12.51a0,0,0,1,0,0-.08Z"></path>
      <path class="cls-12" d="M24,15.22a2.45,2.45,0,0,1-.66-.1,2.43,2.43,0,0,1-.61-.28l-.14-.09-.13-.1-.13-.11-.11-.12a1.31,1.31,0,0,1-.22-.25,2.61,2.61,0,0,1-.19-.27h0v0c.06.09.12.19.18.27a2.75,2.75,0,0,0,.22.26l.11.12.13.11a.69.69,0,0,0,.13.11l.14.1a2.45,2.45,0,0,0,.61.29,2.28,2.28,0,0,0,.69.13,0,0,0,0,0,0,0s0,0,0,0Z"></path>
      <path class="cls-12" d="M23,13.58a6.39,6.39,0,0,1-.63-.13,5.46,5.46,0,0,1-.61-.21h0s0,0,0,0a3.92,3.92,0,0,0,.6.23,4.64,4.64,0,0,0,.64.17s0,0,0,0,0-.05,0-.05Z"></path>
      <path class="cls-12" d="M22.48,12.71a3.43,3.43,0,0,1-.56,0l-.27-.07a.41.41,0,0,1-.23-.15h0a.42.42,0,0,0,.23.16l.27.08a5.51,5.51,0,0,0,.57.06l0,0s0,0,0,0Z"></path>
      <path class="cls-12" d="M26,19.14a5,5,0,0,1,.1-1.21q0-.3.12-.6l.17-.6a4.39,4.39,0,0,0,.14-1.26,3.27,3.27,0,0,0-.36-1.25,3.06,3.06,0,0,1,.33,1.25,4.34,4.34,0,0,1-.17,1.25c-.11.39-.24.79-.32,1.2a5.55,5.55,0,0,0-.12,1.22.06.06,0,0,0,.06.06.06.06,0,0,0,.05-.06Z"></path>
      <path class="cls-12" d="M24.84,16.66a13.67,13.67,0,0,0,.5-1.57c0-.13.06-.27.08-.41a1.48,1.48,0,0,0,0-.42,6.27,6.27,0,0,0-.14-.85,6.21,6.21,0,0,1,.12.85,2,2,0,0,1,0,.42c0,.13-.06.27-.09.4a15.7,15.7,0,0,1-.53,1.55,0,0,0,0,0,0,.05s.05,0,.05,0Z"></path>
      <path class="cls-12" d="M24.27,15.55c0-.24,0-.49,0-.73a5.82,5.82,0,0,1,.08-.73c0-.24.16-.47.19-.73a1.64,1.64,0,0,0,0-.76h0a1.77,1.77,0,0,1,0,.76c0,.24-.15.47-.2.71a4.9,4.9,0,0,0-.11.74c0,.25,0,.5,0,.75a0,0,0,0,0,0,0,0,0,0,0,0,0,0Z"></path>
      <path class="cls-12" d="M23.4,14.15a9,9,0,0,0,.24-.89,3.73,3.73,0,0,0,.09-.46,2,2,0,0,0,0-.23.49.49,0,0,0,0-.24.6.6,0,0,1,0,.23l0,.24c0,.15-.07.3-.11.45s-.18.58-.28.87a0,0,0,0,0,0,.05,0,0,0,0,0,.06,0Z"></path>
      <path class="cls-12" d="M22.77,13.07a4,4,0,0,0,.1-.5,2.09,2.09,0,0,0,0-.25.74.74,0,0,0,0-.26h0a.69.69,0,0,1,0,.25,1,1,0,0,1,0,.24,3.92,3.92,0,0,1-.13.49h0s0,0,0,0a0,0,0,0,0,.05,0Z"></path>
      <path class="cls-13" d="M26.29,20.84a2,2,0,0,0,0,1A1.74,1.74,0,0,0,27.85,23a7.16,7.16,0,0,0,3.69-.7,11.77,11.77,0,0,0,4.18-3,7.73,7.73,0,0,0-2.3-1.4,8.31,8.31,0,0,0-5.91-.17,5.27,5.27,0,0,0-1.43,1C25.52,19.45,25.3,20.22,26.29,20.84Z"></path>
      <path class="cls-12" d="M26.27,20.88c.67-.2,1.34-.38,2-.54s1.37-.29,2.06-.39,1.38-.21,2.08-.28l1-.11a8.85,8.85,0,0,0,1-.17,7.2,7.2,0,0,1-1,.12l-1,.08c-.7.06-1.4.13-2.09.23s-1.38.23-2.07.38a21,21,0,0,0-2,.55h0a.07.07,0,0,0-.06.09S26.23,20.89,26.27,20.88Z"></path>
      <path class="cls-12" d="M27.33,20.54a2.14,2.14,0,0,0,.66.61,2.72,2.72,0,0,0,.88.36l.24,0,.12,0h.62l.24,0,.24,0,.48-.08h0l-.48.07-.24,0H29.6a1.93,1.93,0,0,1-.24,0h-.12l-.12,0-.23-.05a2.64,2.64,0,0,1-.84-.36,2.26,2.26,0,0,1-.63-.6h0s0,0-.07,0,0,0,0,.06Z"></path>
      <path class="cls-12" d="M29.76,20a2,2,0,0,0,.55.46,2.8,2.8,0,0,0,.69.29l.19,0,.19,0,.19,0h.57l.39,0h-.77l-.19,0-.18,0-.19,0L31,20.7a2.83,2.83,0,0,1-.66-.3,1.83,1.83,0,0,1-.5-.45h0s-.05,0-.07,0,0,0,0,.06Z"></path>
      <path class="cls-12" d="M32.2,19.68c.11.1.23.19.35.28s.26.16.4.23a4,4,0,0,0,.45.15,1.55,1.55,0,0,0,.48,0h0a1.47,1.47,0,0,1-.47,0,3.16,3.16,0,0,1-.43-.16,3,3,0,0,1-.37-.25,2.14,2.14,0,0,1-.32-.28h0a.08.08,0,0,0-.08,0s0,0,0,.06Z"></path>
      <path class="cls-12" d="M27.12,20.55a1.14,1.14,0,0,1,0-.61,2.33,2.33,0,0,1,.24-.63,4.67,4.67,0,0,1,.44-.58l.27-.27.3-.25-.31.25-.28.26a3.62,3.62,0,0,0-.47.58,2.36,2.36,0,0,0-.27.64.93.93,0,0,0,0,.33.86.86,0,0,0,.05.32.05.05,0,0,0,.07,0s0,0,0-.06h0Z"></path>
      <path class="cls-12" d="M28.56,20.21a1.23,1.23,0,0,1,0-.57,1.89,1.89,0,0,1,.26-.56,3.11,3.11,0,0,1,.48-.48l.29-.2.33-.18-.33.17a3.28,3.28,0,0,0-.31.2,2.5,2.5,0,0,0-.5.47,1.74,1.74,0,0,0-.3.57,1.23,1.23,0,0,0-.05.6s0,0,.06,0a.06.06,0,0,0,.05-.06h0Z"></path>
      <path class="cls-12" d="M29.48,20a1.21,1.21,0,0,1,.23-.6,2.19,2.19,0,0,1,.55-.49l.16-.09.18-.09.09,0,.1,0,.19-.07.4-.1.41-.07h0l-.42.06-.4.09-.2.06-.1,0-.09,0-.19.09-.17.09a2.18,2.18,0,0,0-.58.5,1.21,1.21,0,0,0-.27.64,0,0,0,0,0,.05,0s.06,0,.06,0h0Z"></path>
      <path class="cls-12" d="M30.94,19.83A8.38,8.38,0,0,1,32,19.1a4.92,4.92,0,0,1,.61-.29,1.55,1.55,0,0,1,.68-.12h0a1.45,1.45,0,0,0-.69.1,6,6,0,0,0-.63.27,7.79,7.79,0,0,0-1.11.71s0,.05,0,.06a.08.08,0,0,0,.08,0Z"></path>
    </g>
  </g>
</svg>
