<?xml version="1.0" encoding="UTF-8"?>
<svg xmlns="http://www.w3.org/2000/svg" viewBox="0 0 114.06 166.67">
  <defs>
    <style>.cls-1{fill:#8abdc4;}.cls-2{fill:#acd3eb;}.cls-3{fill:#d4e7f0;}.cls-4{fill:#93c6ee;}.cls-5{fill:#c9e2f6;}.cls-6{fill:#aed4f2;}.cls-7{fill:#a8a7a8;}.cls-8{fill:#a79677;}.cls-9{fill:#bfaa86;}.cls-10{fill:#95876b;}.cls-11{fill:#af997c;opacity:0.25;}.cls-12{fill:#a09274;}.cls-13{fill:#837660;}.cls-14{fill:#fff;}.cls-15{fill:#a0753e;}.cls-16{fill:#50331b;}.cls-17{fill:#633f1a;}.cls-18{fill:none;}.cls-19{fill:#e3e0c9;}.cls-20{fill:#f9eacb;}.cls-21{fill:#d2c7a7;}.cls-22{fill:#877e75;}.cls-23{fill:#6d8d3b;}.cls-24{fill:#a0c159;}</style>
  </defs>
  <g id="Слой_2" data-name="Слой 2">
    <g id="Слой_1-2" data-name="Слой 1">
      <rect class="cls-1" x="3.36" y="1.69" width="110.7" height="11.43"></rect>
      <path class="cls-2" d="M79.86,14.81h-.09a1.69,1.69,0,0,1-1.69-1.69V1.69A1.69,1.69,0,0,1,79.77,0h.09"></path>
      <path class="cls-3" d="M79.86,0h.08a1.69,1.69,0,0,1,1.69,1.69V13.12a1.69,1.69,0,0,1-1.69,1.69h-.08"></path>
      <path class="cls-2" d="M14.51,14.81h-.08a1.7,1.7,0,0,1-1.7-1.69V1.69A1.7,1.7,0,0,1,14.43,0h.08"></path>
      <path class="cls-3" d="M14.51,0h.08a1.69,1.69,0,0,1,1.69,1.69V13.12a1.69,1.69,0,0,1-1.69,1.69h-.08"></path>
      <path class="cls-4" d="M22,16.08S15.18,23,18.53,26.73s8.43.33,6.55-4.62A22,22,0,0,0,22,16.08Z"></path>
      <path class="cls-5" d="M19.76,22.58c.24-.72.77-2.35,1-2.94a17.09,17.09,0,0,1,.93-1.91s.66-1.25-1,.55S18,23.4,18.47,23.59,19.53,23.28,19.76,22.58Z"></path>
      <path class="cls-6" d="M23.59,25c-.2.67-.11,1.3.21,1.39A1.22,1.22,0,0,0,25,25.44a1.28,1.28,0,0,0-.51-1.53C24.2,23.84,23.79,24.29,23.59,25Z"></path>
      <path class="cls-4" d="M89.26,16.08S82.41,23,85.77,26.73s8.43.33,6.55-4.62A22.41,22.41,0,0,0,89.26,16.08Z"></path>
      <path class="cls-5" d="M87,22.58c.23-.72.77-2.35,1-2.94a15.4,15.4,0,0,1,.93-1.91s.65-1.25-1,.55-2.7,5.12-2.2,5.31S86.77,23.28,87,22.58Z"></path>
      <path class="cls-6" d="M90.82,25c-.2.67-.1,1.3.22,1.39a1.23,1.23,0,0,0,1.24-.92c.2-.8-.2-1.46-.52-1.53S91,24.29,90.82,25Z"></path>
      <polygon class="cls-7" points="92.25 153.35 92.31 153.25 92.22 153.25 92.25 153.35"></polygon>
      <polygon class="cls-8" points="53.48 96.41 106.81 73.7 98.81 135.11 53.48 166.67 53.48 96.41"></polygon>
      <polygon class="cls-9" points="8 135.11 0 73.7 53.48 96.41 53.48 166.67 8 135.11"></polygon>
      <polygon class="cls-10" points="53.48 96.41 106.81 73.7 98.81 135.11 53.48 166.67 53.48 96.41"></polygon>
      <polygon class="cls-11" points="8 135.11 0 73.7 53.48 96.41 53.48 166.67 8 135.11"></polygon>
      <polygon class="cls-12" points="53.48 166.67 8 135.11 53.69 117.84 98.81 135.11 53.48 166.67"></polygon>
      <path class="cls-13" d="M17.66,108.11a16.4,16.4,0,0,1-1.38-8.9A14.09,14.09,0,0,1,20.23,91a19.59,19.59,0,0,1,7.85-4.68A33.44,33.44,0,0,1,37,84.7c-.73.17-1.47.33-2.2.47s-1.45.36-2.17.54-1.43.41-2.15.62-1.4.49-2.09.75A21.25,21.25,0,0,0,21,91.73a14.41,14.41,0,0,0-3.9,7.6,17.48,17.48,0,0,0-.23,4.4A16.87,16.87,0,0,0,17.66,108.11Z"></path>
      <path class="cls-13" d="M67.36,107.27c.14.22.44.3.68.42s.5.22.76.32c.51.2,1,.37,1.55.54,1,.34,2.1.65,3.15.94,2.12.57,4.25,1.09,6.39,1.51,4.3.89,8.64,1.45,13,2a48,48,0,0,1-13.25-.89,47.41,47.41,0,0,1-6.43-1.77q-1.57-.55-3.09-1.26c-.51-.24-1-.5-1.49-.77A3.72,3.72,0,0,1,67.36,107.27Z"></path>
      <path class="cls-13" d="M38.71,104.06a39.23,39.23,0,0,1-3.53,11.79,33.29,33.29,0,0,1-3.22,5.3,20.29,20.29,0,0,1-4.43,4.3,36.34,36.34,0,0,0,3.74-4.79,55.49,55.49,0,0,0,2.92-5.29c.88-1.81,1.66-3.68,2.42-5.57S38.06,106,38.71,104.06Z"></path>
      <path class="cls-13" d="M55.25,152.93c2.18-1.06,4.43-1.91,6.63-2.86s4.37-1.93,6.48-3a41.11,41.11,0,0,0,6-3.76,17.13,17.13,0,0,0,4.75-5.23,13.85,13.85,0,0,1-4.21,5.89A31.5,31.5,0,0,1,68.87,148a55.16,55.16,0,0,1-6.68,2.85c-1.14.41-2.3.76-3.45,1.1Z"></path>
      <path class="cls-13" d="M30.24,146.19A14.85,14.85,0,0,1,26.78,144a8.47,8.47,0,0,1-2.5-3.37,4.72,4.72,0,0,1-.3-2.18,5.42,5.42,0,0,1,.66-2.12,10,10,0,0,1,2.89-3.11,28,28,0,0,1,7.38-3.67,57,57,0,0,1,7.9-2.06c-2.56.93-5.11,1.84-7.6,2.86a33.76,33.76,0,0,0-7,3.74,9.33,9.33,0,0,0-2.64,2.75,4.27,4.27,0,0,0-.45,3.52,8.35,8.35,0,0,0,2.06,3.26A17.8,17.8,0,0,0,30.24,146.19Z"></path>
      <path class="cls-13" d="M79.14,106l4-5.47c1.3-1.83,2.58-3.67,3.79-5.55a57.6,57.6,0,0,0,3.35-5.79,18.85,18.85,0,0,0,2.1-6.32A14.4,14.4,0,0,1,91,89.57a36.66,36.66,0,0,1-3.21,6A56.8,56.8,0,0,1,79.14,106Z"></path>
      <polygon class="cls-7" points="51.53 131.2 51.58 131.1 51.49 131.1 51.53 131.2"></polygon>
      <path class="cls-14" d="M49.48,124.29a2.36,2.36,0,0,1-.74.83c-.14.12-.27.25-.42.36s-.27.26-.5.27c0-.24.21-.32.33-.46a4.61,4.61,0,0,1,.4-.37A2.47,2.47,0,0,1,49.48,124.29Z"></path>
      <path class="cls-14" d="M50.68,125.12a2.55,2.55,0,0,1-.69,1.11c-.14.16-.26.34-.41.49s-.28.35-.54.39a4.91,4.91,0,0,1,.74-1.06A2.75,2.75,0,0,1,50.68,125.12Z"></path>
      <path class="cls-14" d="M51.93,125.65a2.16,2.16,0,0,1-.31.8,2.67,2.67,0,0,1-.22.36c-.1.11-.11.27-.32.3-.08-.2.06-.29.1-.43s.14-.24.2-.37A2.45,2.45,0,0,1,51.93,125.65Z"></path>
      <path class="cls-14" d="M53.11,125.75c.17.41,0,.72-.13,1.06,0,.17-.08.35-.13.52s-.05.35-.27.48c-.13-.22,0-.37,0-.55s.09-.34.13-.52C52.79,126.4,52.76,126,53.11,125.75Z"></path>
      <path class="cls-14" d="M54.57,125.89a1,1,0,0,1,.21.64v.65l0,.64a.94.94,0,0,1-.12.66.93.93,0,0,1-.19-.64l0-.65-.07-.65A1.12,1.12,0,0,1,54.57,125.89Z"></path>
      <path class="cls-14" d="M55.68,125.89a1.22,1.22,0,0,1,.38.56c.09.2.15.42.23.63l.24.61.1.32c0,.12.14.18,0,.35-.21,0-.16-.17-.23-.26l-.14-.31-.23-.62a6.44,6.44,0,0,1-.24-.61A1.17,1.17,0,0,1,55.68,125.89Z"></path>
      <path class="cls-14" d="M57,125.89a.74.74,0,0,1,.41.36,3.29,3.29,0,0,1,.28.44c.09.15.2.29.29.44s.24.26.16.52c-.27,0-.28-.24-.41-.37s-.18-.29-.28-.44a4,4,0,0,1-.29-.43A.89.89,0,0,1,57,125.89Z"></path>
      <path class="cls-14" d="M58,125.31c.26,0,.34.19.48.31a4.83,4.83,0,0,1,.37.42l.38.41.17.22c.05.08.16.1.1.28s-.19-.07-.27-.12l-.2-.2-.38-.41a3.59,3.59,0,0,1-.38-.4C58.16,125.66,58,125.57,58,125.31Z"></path>
      <path class="cls-15" d="M48.92,122.08s-1.42.34-1,1.21a7.69,7.69,0,0,0,5.38,3.16c2.61.21,4.55-.31,5.6-1.35s.48-1.25-.77-1.36S49.55,122.49,48.92,122.08Z"></path>
      <path class="cls-16" d="M53.23,92.17S50.83,90,50.59,90s-.07,4.76,0,5.11S53.3,92.94,53.23,92.17Z"></path>
      <path class="cls-16" d="M50.59,94.26c-1.79,1.83-6.48,6.3-8.34,11.67s-.74,9.44,2.41,13.61,8.43,6.11,14.91,4.36,11.49-8.62,9.82-15.66-6.3-14.35-10.93-17.69S53.78,91,50.59,94.26Z"></path>
      <path class="cls-17" d="M48.33,96.59s-8.67,8.83-2,17.53c4,5.21,12.71,4.77,15.95,2.46s7.55-9.77.83-19.13-6.92-8-7.56-8.19-1.53.66-1.53.66-1.51,2-1.69,2.21A35.38,35.38,0,0,1,50,94.84Z"></path>
      <path class="cls-15" d="M55.24,94.13c0-1.61-.88-1.13-1.49-.71a6.68,6.68,0,0,0-1.4,1.3c-1.3,1.58-4.75,4.4-5.74,8.34-.57,2.25-.47,7.68,1.66,7.68s2.51-6.06,3.89-8.93C53.12,99.82,55.23,96.53,55.24,94.13Z"></path>
      <path class="cls-16" d="M59.27,91.72a4.31,4.31,0,0,0,.8-1.56c.07-.63,1.21,2.92.94,3.51S59.27,91.72,59.27,91.72Z"></path>
      <path class="cls-18" d="M48.27,123.32s-1,.39-1.39.58"></path>
      <polygon class="cls-19" points="53.48 58.35 106.81 73.7 53.48 96.41 0 73.7 53.48 58.35"></polygon>
      <polygon class="cls-20" points="53.48 58.35 0 73.7 0.94 74.1 106.31 73.56 53.48 58.35"></polygon>
      <path class="cls-21" d="M33.61,74.46a32.1,32.1,0,0,1,2.53-2.7,22.35,22.35,0,0,1,2.94-2.27,29.57,29.57,0,0,1,6.69-3.25A34.22,34.22,0,0,1,53,64.71c1.22-.16,2.47-.13,3.69-.19s2.47.11,3.69.22c-1.23.14-2.45.18-3.66.32s-2.42.26-3.61.5-2.39.4-3.55.73-2.33.63-3.49,1a38.85,38.85,0,0,0-6.59,2.94A36.8,36.8,0,0,0,33.61,74.46Z"></path>
      <polygon class="cls-20" points="0.94 74.1 53.48 96.41 106.81 73.7 106.31 73.56 0.94 74.1"></polygon>
      <ellipse class="cls-8" cx="55.17" cy="74.77" rx="12.32" ry="4.82"></ellipse>
      <ellipse class="cls-22" cx="55.48" cy="76.4" rx="10.15" ry="3.97"></ellipse>
      <path class="cls-23" d="M56.83,47.54s2-7.22,7.42-10.08c0,0,1,5.11,2.19,13.21s-3.62,25.76-6.67,24.58S53.76,56.49,56.83,47.54Z"></path>
      <path class="cls-24" d="M53,39.93c-.26-.15-4.1,13.13-4.33,16.33s-.54,10.9,1.6,16.71,4.79,6.44,6.82,5.87,5.1-3.41,5.06-6.32,1.5-10.38.32-15.76S59.23,43.87,53,39.93Z"></path>
    </g>
  </g>
</svg>
