<?xml version="1.0" encoding="UTF-8"?>
<svg xmlns="http://www.w3.org/2000/svg" viewBox="0 0 120.28 195.72">
  <defs>
    <style>.cls-1{fill:#a8a7a8;}.cls-2{fill:#a79677;}.cls-3{fill:#bfaa86;}.cls-4{fill:#95876b;}.cls-5{fill:#af997c;opacity:0.25;}.cls-6{fill:#a09274;}.cls-7{fill:#837660;}.cls-8{fill:#fff;}.cls-9{fill:#e3e0c9;}.cls-10{fill:#f9eacb;}.cls-11{fill:#d2c7a7;}.cls-12{fill:#877e75;}.cls-13{fill:#204e2d;}.cls-14{fill:#5f8c39;}.cls-15{fill:#59a34e;}</style>
  </defs>
  <g id="Слой_2" data-name="Слой 2">
    <g id="Слой_1-2" data-name="Слой 1">
      <polygon class="cls-1" points="103.89 180.71 103.95 180.61 103.85 180.6 103.89 180.71"></polygon>
      <polygon class="cls-2" points="60.23 116.59 120.28 91.02 111.27 160.17 60.23 195.72 60.23 116.59"></polygon>
      <polygon class="cls-3" points="9.01 160.17 0 91.02 60.23 116.59 60.23 195.72 9.01 160.17"></polygon>
      <polygon class="cls-4" points="60.23 116.59 120.28 91.02 111.27 160.17 60.23 195.72 60.23 116.59"></polygon>
      <polygon class="cls-5" points="9.01 160.17 0 91.02 60.23 116.59 60.23 195.72 9.01 160.17"></polygon>
      <polygon class="cls-6" points="60.23 195.72 9.01 160.17 60.47 140.73 111.27 160.17 60.23 195.72"></polygon>
      <path class="cls-7" d="M19.89,129.77a11.07,11.07,0,0,1-.92-2.38,20.57,20.57,0,0,1-.55-2.5,18.5,18.5,0,0,1-.09-5.15,15.92,15.92,0,0,1,4.45-9.28,22.26,22.26,0,0,1,8.83-5.27,37.49,37.49,0,0,1,10-1.78,56.53,56.53,0,0,0-9.7,2.68,23.81,23.81,0,0,0-8.28,5.23,16.1,16.1,0,0,0-4.38,8.56,20.47,20.47,0,0,0-.27,5A19,19,0,0,0,19.89,129.77Z"></path>
      <path class="cls-7" d="M75.86,128.82c.15.25.49.34.76.48l.85.35c.58.22,1.17.42,1.76.61,1.17.39,2.36.73,3.54,1.06,2.39.65,4.78,1.23,7.2,1.71,4.84,1,9.73,1.63,14.68,2.2a54.21,54.21,0,0,1-14.92-1,53.54,53.54,0,0,1-7.24-2A35.23,35.23,0,0,1,79,130.81c-.57-.27-1.13-.56-1.68-.86-.27-.16-.54-.32-.8-.49S76,129.11,75.86,128.82Z"></path>
      <path class="cls-7" d="M43.6,125.21a44,44,0,0,1-4,13.27,37.33,37.33,0,0,1-3.61,6,22.94,22.94,0,0,1-5,4.84,40.12,40.12,0,0,0,4.21-5.39,61.62,61.62,0,0,0,3.3-6c1-2,1.87-4.15,2.72-6.27S42.86,127.4,43.6,125.21Z"></path>
      <path class="cls-7" d="M62.23,180.24c2.44-1.19,5-2.15,7.45-3.22s4.93-2.17,7.31-3.41a46.9,46.9,0,0,0,6.78-4.23,19.3,19.3,0,0,0,5.36-5.9,15.62,15.62,0,0,1-4.75,6.64,35.39,35.39,0,0,1-6.82,4.58A60,60,0,0,1,70,177.91c-1.28.46-2.58.86-3.88,1.24Z"></path>
      <path class="cls-7" d="M34.06,172.66a17.35,17.35,0,0,1-3.9-2.47,9.37,9.37,0,0,1-2.82-3.8,5.52,5.52,0,0,1-.34-2.46,6.2,6.2,0,0,1,.75-2.38A11.4,11.4,0,0,1,31,158a32.09,32.09,0,0,1,8.31-4.13,64,64,0,0,1,8.9-2.32c-2.88,1-5.75,2.07-8.55,3.22A38.23,38.23,0,0,0,31.74,159a10.43,10.43,0,0,0-3,3.09,4.86,4.86,0,0,0-.51,4,9.33,9.33,0,0,0,2.33,3.66A20,20,0,0,0,34.06,172.66Z"></path>
      <path class="cls-7" d="M89.13,127.42l4.47-6.16c1.47-2.06,2.91-4.13,4.27-6.25a63.19,63.19,0,0,0,3.77-6.51,21,21,0,0,0,2.37-7.12,16.15,16.15,0,0,1-1.49,7.51,41.31,41.31,0,0,1-3.62,6.79A63.63,63.63,0,0,1,89.13,127.42Z"></path>
      <polygon class="cls-1" points="58.03 155.77 58.09 155.66 57.99 155.65 58.03 155.77"></polygon>
      <path class="cls-8" d="M39.53,128.07a35,35,0,0,0-.7,8.89,34.76,34.76,0,0,1,.87-8.86,22.13,22.13,0,0,1,1.4-4.21,7,7,0,0,1,2.71-3.31h0a46.37,46.37,0,0,0,10.23-8.17c.49-.51.94-1.05,1.4-1.58,0,.17-.09.35-.12.52a39.14,39.14,0,0,0-.61,7.25c0,1.21,0,2.42-.1,3.63a8.85,8.85,0,0,1-.68,3.53,8.89,8.89,0,0,0,.73-3.53c.08-1.21.12-2.42.16-3.63a37.9,37.9,0,0,1,.71-7.21c.06-.31.15-.61.22-.92.33-.39.66-.78,1-1.19l-.06.3a34.7,34.7,0,0,0-.47,4.42,29.62,29.62,0,0,0-1.34,6A30.9,30.9,0,0,1,56,115.29c.05-.16.12-.31.17-.47a48.56,48.56,0,0,0,.14,5c.16,1.9.41,3.78.7,5.65-.09.16-.17.32-.27.48-.52,1-1,1.92-1.47,2.9l-1.36,2.94a14.1,14.1,0,0,0-1.18,3c-.21,1.08-.36,2.13-.47,3.22a17.61,17.61,0,0,0,.08,3.25c.22,2.16.66,4.27,1,6.41a15.73,15.73,0,0,1,.07,3.22l-.1,3.23.16-3.23a16,16,0,0,0,0-3.24c-.26-2.14-.67-4.26-.84-6.41a18.12,18.12,0,0,1,0-3.21c.13-1.05.3-2.13.52-3.17a13.59,13.59,0,0,1,1.21-2.95l1.4-2.91c.47-.94,1-1.87,1.47-2.78.73,4.56,1.7,9.07,2.33,13.63,0,0,0,0,0,0s0,0,0,0c-.55-4.79-1.44-9.54-2-14.31a15.69,15.69,0,0,0,1.11-2.3c.14-.38.26-.75.39-1.13,0,.11,0,.23,0,.34.14,2.52.37,5.15-.57,7.55,1-2.37.87-5,.82-7.56,0-.32,0-.64-.06-1,.44-1.31.87-2.62,1.32-3.92.46,1.24,1,2.44,1.57,3.61a24.84,24.84,0,0,1,2.67,8.34c-.3,1.33-.62,2.65-.94,4,.33-1.26.66-2.53,1-3.8.08.48.16.95.23,1.43A39.1,39.1,0,0,0,67,139.74a21.74,21.74,0,0,0,.12,4.63s0,0,0,0,0,0,0,0a19.47,19.47,0,0,1,0-4.11c.15.35.31.7.48,1-.17-.38-.33-.76-.47-1.15,0-.55.09-1.1.14-1.64.18-1.95.42-3.9.65-5.85.45-3.91,1-7.78,1.23-11.75,0-.47-.06-.93-.11-1.39.07.14.13.28.2.45.15.38.32.72.49,1.07l.45.9c0,.18.08.36.13.54a24.66,24.66,0,0,1,.77,3.88A9.42,9.42,0,0,0,72.65,130a9.39,9.39,0,0,1-1.4-3.67,23.29,23.29,0,0,0-.59-3.6l.16.34c.69,1.36,1.37,2.72,2,4.11a18.17,18.17,0,0,1,1.51,4.28,18.35,18.35,0,0,0-1.23-4.4l-1.66-4.26-.83-2.13c-.14-.35-.27-.7-.38-1.05a7.28,7.28,0,0,0-.28-.7,17.86,17.86,0,0,1-.13-4.32s0-.06,0-.09c.21.36.4.74.62,1.09a25.62,25.62,0,0,1,2.85,5.89,25.74,25.74,0,0,0-2.6-6c-.31-.54-.57-1.1-.85-1.65,0-.09,0-.18,0-.28A11.65,11.65,0,0,0,71.52,115a10.41,10.41,0,0,0,2.38,1.25,10.94,10.94,0,0,1,2.28.93,5.09,5.09,0,0,1,1.54,1.59,10.62,10.62,0,0,1,.84,5.8c-.28,2.3-.42,4.61-.51,6.93.14-2.31.32-4.62.64-6.91a10.09,10.09,0,0,0-.31-4.63c.18.39.35.8.5,1.22.61,1.58,1.05,3.24,1.67,4.85s1.5,3.09,2.16,4.66a18.75,18.75,0,0,1,1.4,4.91,18.69,18.69,0,0,0-1.25-5c-.61-1.6-1.4-3.13-2-4.72s-1-3.27-1.46-4.91a8.45,8.45,0,0,0-2.74-4.51,11.13,11.13,0,0,0-2.39-1.16,9,9,0,0,1-2.08-1.24,13.54,13.54,0,0,1-3.13-3.74c-1.66-2.69-2.85-5.81-5.18-8.43l-.12-.29c-.41-1.29-.78-2.6-1.1-3.91v0a.58.58,0,0,0-.3-.37.39.39,0,0,0-.24-.34.43.43,0,0,0-.56.24v0s0,.11,0,.17a.38.38,0,0,0-.23,0,.43.43,0,0,0-.33.48c.05.26.1.51.14.76s-.12.32-.17.48a.92.92,0,0,0-.65.3,1,1,0,0,0-.2.39l0,.11A5.88,5.88,0,0,0,58.74,101a7.68,7.68,0,0,0-1.62,3.3c-.08.26-.14.52-.22.78a5.71,5.71,0,0,1-.48.38c-.9.6-1.92,1.1-2.89,1.66-2,1.1-3.89,2.25-5.86,3.31s-4.31,1.44-5.9,3.13c1.63-1.63,4-1.8,6-2.93s4-2.1,6-3.13c1-.51,2-1,2.93-1.55-.33,1.16-.63,2.32-.89,3.5-.69.87-1.41,1.72-2.16,2.54a45.64,45.64,0,0,1-10,8.29h0a7.31,7.31,0,0,0-2.8,3.52A21.73,21.73,0,0,0,39.53,128.07Zm20.29-27.55c-.24.58-.55,1.1-.82,1.66s-.43,1-.64,1.54a9.1,9.1,0,0,1-1,1c0-.12.07-.24.11-.36A7.3,7.3,0,0,1,59,101.24,5.56,5.56,0,0,1,59.82,100.52ZM68.28,125c-.24-1.55-.58-3.09-.9-4.63-.26-1.11-.49-2.22-.85-3.32-.13-.32-.29-.61-.44-.92.7.77,1.46,1.41,2.08,2.09a20.76,20.76,0,0,1,.34,2.7C68.48,122.25,68.39,123.61,68.28,125Zm-5.92-20.15c0,1-.1,1.93-.18,2.89-.12-1.19-.24-2.37-.35-3.55l.24-.63C62.17,104,62.26,104.39,62.36,104.82Zm3.23,4.85c.75,2.14,1.55,4.32,2.13,6.52a14.43,14.43,0,0,1-1.09-1.14,3.26,3.26,0,0,1-.52-.83c-.13-.32-.26-.67-.37-1-.23-.71-.44-1.44-.64-2.17l-1.16-4.4c-.2-.79-.4-1.61-.61-2.42l.18.2C64.23,106.15,64.92,107.91,65.59,109.67Zm-1,3.69c-.65-1.17-1.32-2.35-1.88-3.56.1-.76.21-1.52.29-2.29.31,1.28.62,2.56,1,3.83C64.2,112,64.4,112.68,64.61,113.36ZM62,109.75a26.55,26.55,0,0,1-1.08,5.08,16.7,16.7,0,0,1-.43-3.92,17.43,17.43,0,0,1,.6-4.31,8.86,8.86,0,0,0,.29,1.52c.17.49.38,1,.59,1.42Zm-2.61-2.13c0,.1-.11.19-.17.29.06-.22.1-.45.16-.66s.09-.28.14-.43C59.44,107.09,59.4,107.36,59.36,107.62Zm9.39,9.62a66.55,66.55,0,0,0-2.38-7.86c-.21-.59-.45-1.17-.67-1.76.7,1.16,1.4,2.34,2.18,3.49l.21.29c.41.79.85,1.57,1.29,2.36a7.51,7.51,0,0,1,0,.82,16.4,16.4,0,0,0,.15,3.64A9.51,9.51,0,0,0,68.75,117.24Zm-3.59,11.07c.21-.89.42-1.78.61-2.67a9,9,0,0,0,.28-4,13.56,13.56,0,0,0-1.52-3.76A11.41,11.41,0,0,1,63,114.18c-.2-1-.33-2-.46-3.05a2.38,2.38,0,0,1,.05-.26.13.13,0,0,1,0-.06c.63,1.15,1.32,2.25,2,3.38a24.46,24.46,0,0,1,1.64,3c.38,1,.66,2.16,1,3.25.39,1.6.8,3.2,1.09,4.82-.2,2.46-.47,4.93-.69,7.39-.19,2-.38,3.91-.51,5.87L67,139.54a39.07,39.07,0,0,1-1.5-8.47C65.4,130.15,65.29,129.23,65.16,128.31Zm-4-12.37c.24-.6.48-1.2.71-1.86s.33-1.18.46-1.77c.1.65.21,1.29.34,1.94A12.1,12.1,0,0,0,64.29,118a13.35,13.35,0,0,1,1.56,3.67,8.88,8.88,0,0,1-.21,4c-.16.82-.34,1.65-.52,2.47-.12-.75-.24-1.5-.41-2.25a23.05,23.05,0,0,0-1.78-5A34.22,34.22,0,0,1,61.15,115.94Zm-2,4c-.13-1.72-.28-3.44-.41-5.16a20.26,20.26,0,0,1-.11-3.81,16.38,16.38,0,0,1,.25-1.71l.35-.58a18.23,18.23,0,0,0-.07,2.22,20,20,0,0,0,1.07,5.67c0,.1-.08.21-.13.31C59.77,117.92,59.46,118.94,59.15,120Zm-1.79-8c.17-.35.32-.71.52-1l.16-.27c0,.09,0,.18,0,.28a21.75,21.75,0,0,0,.23,3.9c.22,2,.46,3.93.65,5.89-.24.78-.48,1.56-.76,2.32a14.18,14.18,0,0,1-.7,1.64c-.19-1.64-.33-3.28-.4-4.93A42.94,42.94,0,0,1,57.36,112Zm1.13-5,.29-.43c0,.16-.1.32-.14.48a26.87,26.87,0,0,0-.49,2.68c-.19.34-.4.68-.58,1,.06-.33.1-.66.17-1,.21-.81.38-1.62.62-2.41C58.41,107.25,58.45,107.12,58.49,107Zm-2.36,2c.28-1.1.59-2.2.92-3.29.27-.18.55-.38.81-.59-.22.65-.41,1.32-.62,2-.05.2-.09.39-.13.59C56.79,108.08,56.46,108.52,56.13,109Z"></path>
      <polygon class="cls-9" points="60.23 73.73 120.28 91.02 60.23 116.59 0 91.02 60.23 73.73"></polygon>
      <polygon class="cls-10" points="60.23 73.73 0 91.02 1.05 91.47 119.72 90.86 60.23 73.73"></polygon>
      <path class="cls-11" d="M37.85,91.87a34,34,0,0,1,2.84-3A27.39,27.39,0,0,1,44,86.26a32,32,0,0,1,7.54-3.65,41.09,41.09,0,0,1,4.05-1.1,38.66,38.66,0,0,1,4.14-.63,39.12,39.12,0,0,1,8.31,0c-2.76.18-5.49.47-8.19.91a50.86,50.86,0,0,0-7.92,1.94,41.43,41.43,0,0,0-7.43,3.3A42.79,42.79,0,0,0,37.85,91.87Z"></path>
      <polygon class="cls-10" points="1.05 91.47 60.23 116.59 120.28 91.02 119.72 90.86 1.05 91.47"></polygon>
      <ellipse class="cls-2" cx="62.13" cy="92.23" rx="13.87" ry="5.42"></ellipse>
      <ellipse class="cls-12" cx="62.48" cy="94.05" rx="11.43" ry="4.47"></ellipse>
      <path class="cls-13" d="M66.05,91.14c14-24,23.74-45.3,23.85-45.52l-.78.59c-.22.46-14.65,29.6-25.33,46.28-.28.45.42,1.08,1,.82C65.2,92.59,65.62,91.88,66.05,91.14Z"></path>
      <path class="cls-14" d="M88.9,46.87a8.45,8.45,0,0,1-3.16-.82c-1.54-.78-3.17-2.37-2.71-5.79s3.5-7.8,8.21-10.29a16.51,16.51,0,0,1,16-.09s-.19.8-.56,2-.89,2.92-1.53,4.76c-1.34,3.7-3,7.77-6.31,10.94a14.79,14.79,0,0,1-3.65,1.72C93.16,49.88,90.59,50,88.9,46.87Z"></path>
      <path class="cls-13" d="M88.76,46.88a40.44,40.44,0,0,1,3-4.82,44.08,44.08,0,0,1,3.6-4.36,34.81,34.81,0,0,1,4.19-3.77,22.71,22.71,0,0,1,2.33-1.58,9.62,9.62,0,0,1,2.54-1.13,9.54,9.54,0,0,0-2.46,1.26,24.38,24.38,0,0,0-2.24,1.65A37,37,0,0,0,95.63,38a43.19,43.19,0,0,0-3.51,4.36,52.89,52.89,0,0,0-3,4.75h0a.24.24,0,0,1-.32.09A.23.23,0,0,1,88.76,46.88Z"></path>
      <path class="cls-13" d="M90.35,44.35A6.39,6.39,0,0,1,89,41.8a6.51,6.51,0,0,1-.13-2.95c0-.25.12-.5.18-.75a1.73,1.73,0,0,1,.11-.37l.15-.35a6.43,6.43,0,0,1,.32-.71L90,36a4.62,4.62,0,0,1,.45-.64l.48-.62c.35-.38.73-.73,1.1-1.1h0v0h0c-.35.38-.73.74-1.07,1.13l-.46.62a4.55,4.55,0,0,0-.44.64l-.37.67c-.12.22-.2.47-.3.7l-.14.35c0,.12-.06.24-.1.36s-.12.49-.16.73a6.43,6.43,0,0,0,.19,2.87,6.26,6.26,0,0,0,1.36,2.41h0a.15.15,0,0,1,0,.21.14.14,0,0,1-.21,0Z"></path>
      <path class="cls-13" d="M94.38,39a5.33,5.33,0,0,1-.49-2.18,6.13,6.13,0,0,1,.36-2.23c.06-.18.15-.35.22-.53a3.06,3.06,0,0,1,.26-.51c.1-.17.19-.34.3-.5l.35-.47a5.07,5.07,0,0,1,.37-.44l.4-.43.88-.76-.85.79-.39.43a5.07,5.07,0,0,0-.35.46l-.33.47a4.91,4.91,0,0,0-.28.5,3,3,0,0,0-.24.51c-.07.18-.14.35-.2.53a6,6,0,0,0-.28,2.17,5.1,5.1,0,0,0,.53,2.05h0a.16.16,0,0,1-.07.2.14.14,0,0,1-.2-.07Z"></path>
      <path class="cls-13" d="M99.08,34.35a6.18,6.18,0,0,1,0-1.36,6.1,6.1,0,0,1,.3-1.33,4.24,4.24,0,0,1,.66-1.22,3.5,3.5,0,0,1,1.06-.89s0,0,0,0,0,0,0,0a3.55,3.55,0,0,0-1,.93,4.07,4.07,0,0,0-.57,1.21A5.73,5.73,0,0,0,99.32,33a6.33,6.33,0,0,0,.05,1.31h0a.15.15,0,1,1-.29,0Z"></path>
      <path class="cls-13" d="M90.18,44.88a5,5,0,0,0,1.88.78,8.74,8.74,0,0,0,2,.16,13.28,13.28,0,0,0,2-.19l1-.19L98,45.2l-.93.27-.95.22a13.19,13.19,0,0,1-2,.27,9.29,9.29,0,0,1-2.1-.09,7.57,7.57,0,0,1-1-.27,3.8,3.8,0,0,1-1-.49.14.14,0,0,1,0-.2.14.14,0,0,1,.2,0h0Z"></path>
      <path class="cls-13" d="M92.39,41.57a5.18,5.18,0,0,0,1.69.81,7.19,7.19,0,0,0,1.85.27,7.81,7.81,0,0,0,1.82-.2c.3-.05.58-.16.87-.23l.83-.31-.82.34c-.28.09-.56.2-.86.27a8.33,8.33,0,0,1-1.83.27,7.3,7.3,0,0,1-1.91-.2,5.59,5.59,0,0,1-1.83-.79.14.14,0,0,1,0-.2.14.14,0,0,1,.2,0h0Z"></path>
      <path class="cls-13" d="M93.91,39.58a4.74,4.74,0,0,0,2,.53,6.38,6.38,0,0,0,2-.24l.48-.15.45-.2.23-.09.22-.12.44-.22.82-.53.78-.59h0a0,0,0,0,1,0,0l-.76.62-.81.55-.43.25-.21.12-.23.1-.46.22-.48.16a6.43,6.43,0,0,1-2.06.32,5.14,5.14,0,0,1-2.12-.5.16.16,0,0,1-.07-.2.14.14,0,0,1,.2-.07h0Z"></path>
      <path class="cls-13" d="M96.52,36.6c1.21-.16,2.41-.33,3.57-.54a15.93,15.93,0,0,0,1.72-.39,3.29,3.29,0,0,0,1.5-.79h0a3.33,3.33,0,0,1-1.49.86,13.72,13.72,0,0,1-1.7.46c-1.16.27-2.35.48-3.57.69a.15.15,0,1,1,0-.29Z"></path>
      <path class="cls-14" d="M79.81,65.23a6,6,0,0,1-2.69-.2,6.94,6.94,0,0,1-3.79-2.94c-1-1.53-1-3.2-.67-5.82s1.06-6.24,1.4-11.42a10.44,10.44,0,0,1,1.93.06,12.64,12.64,0,0,1,4.84,1.72,14.65,14.65,0,0,1,7,14.5,12,12,0,0,1-.53,1.59,9.51,9.51,0,0,1-1.81,2.86A4,4,0,0,1,82.69,67,4,4,0,0,1,79.81,65.23Z"></path>
      <path class="cls-13" d="M79.6,65.16a19.19,19.19,0,0,0,.62-4.7,21.86,21.86,0,0,0-.54-4.7,22.27,22.27,0,0,0-1.55-4.51c-.34-.72-.69-1.46-1.1-2.16s-.84-1.4-1.16-2.18c.36.76.86,1.41,1.27,2.12s.82,1.41,1.19,2.12A21.89,21.89,0,0,1,80,55.68a20.8,20.8,0,0,1,.61,4.78,17.31,17.31,0,0,1-.65,4.8h0a.19.19,0,0,1-.24.14A.21.21,0,0,1,79.6,65.16Z"></path>
      <path class="cls-13" d="M80.18,62.7a9.14,9.14,0,0,1-3.5-2.84,3.74,3.74,0,0,1-.27-.42l-.13-.21L76.17,59a4.25,4.25,0,0,1-.21-.43,3.89,3.89,0,0,0-.16-.44,2.39,2.39,0,0,1-.14-.43l-.11-.45c-.06-.29-.12-.6-.18-.9h0c.07.3.14.6.2.89l.13.44a2.45,2.45,0,0,0,.15.43,2.56,2.56,0,0,1,.17.43c.06.15.15.28.22.42l.12.21.13.2c.1.14.17.28.28.41a8.56,8.56,0,0,0,1.5,1.51,8.8,8.8,0,0,0,2,1.16h0a.13.13,0,0,1,.07.17.14.14,0,0,1-.16.07Z"></path>
      <path class="cls-13" d="M80.07,57.05a7.22,7.22,0,0,1-1.68-.72,8.09,8.09,0,0,1-1.38-1l-.28-.3a1.87,1.87,0,0,1-.26-.3c-.08-.11-.17-.2-.25-.3L76,54.09a2.9,2.9,0,0,1-.2-.33,2.59,2.59,0,0,0-.19-.33c-.13-.23-.23-.46-.34-.69.12.23.23.45.36.67a2.2,2.2,0,0,1,.21.32,1.77,1.77,0,0,0,.21.32l.24.31a3.73,3.73,0,0,1,.26.3,2.44,2.44,0,0,0,.27.29l.29.28a8.11,8.11,0,0,0,1.39,1,6.85,6.85,0,0,0,1.63.62h0a.13.13,0,0,1,0,.25Z"></path>
      <path class="cls-13" d="M78.39,51.7a8.68,8.68,0,0,1-1.09-.27,9.16,9.16,0,0,1-1-.37,5.75,5.75,0,0,1-.89-.55,2.77,2.77,0,0,1-.64-.77s0,0,0,0h0a2.6,2.6,0,0,0,.67.73,5.57,5.57,0,0,0,.9.48,6.11,6.11,0,0,0,1,.31,7.94,7.94,0,0,0,1.06.21h0a.13.13,0,0,1,0,.25Z"></path>
      <path class="cls-13" d="M80.25,63.18a3.32,3.32,0,0,0,1.68-.07,4.86,4.86,0,0,0,1.62-.82,7.24,7.24,0,0,0,1.36-1.4,9.9,9.9,0,0,0,.56-.87l.48-1-.45,1a8.33,8.33,0,0,1-.55.9,6.77,6.77,0,0,1-1.34,1.47,5.06,5.06,0,0,1-1.63.9,3.42,3.42,0,0,1-.89.17,2.86,2.86,0,0,1-.92-.06.12.12,0,0,1,.06-.24h0Z"></path>
      <path class="cls-13" d="M80.41,59.79a3.53,3.53,0,0,0,1.51-.39,4.15,4.15,0,0,0,1.31-1,5.93,5.93,0,0,0,.89-1.56c.11-.28.17-.6.26-.9s.13-.65.16-1c0,.33-.08.67-.13,1s-.13.63-.23.93a6.41,6.41,0,0,1-.86,1.62A4.48,4.48,0,0,1,82,59.59a3.79,3.79,0,0,1-1.59.45.12.12,0,0,1-.13-.11.12.12,0,0,1,.11-.14h0Z"></path>
      <path class="cls-13" d="M80.21,57.67a3.08,3.08,0,0,0,1.38-1,4,4,0,0,0,.77-1.7l.08-.49,0-.51v-.25l0-.26,0-.52a9.35,9.35,0,0,0-.2-1l-.34-1a0,0,0,0,1,0,0h0l.37,1a9.18,9.18,0,0,1,.23,1l.06.52,0,.26a2.26,2.26,0,0,1,0,.26l0,.52L82.5,55a4.33,4.33,0,0,1-.76,1.8,3.16,3.16,0,0,1-1.47,1.12.14.14,0,0,1-.16-.08.13.13,0,0,1,.08-.16h0Z"></path>
      <path class="cls-13" d="M79.39,54.42A10.94,10.94,0,0,0,80,51.3a8.81,8.81,0,0,0-.1-1.69,3.22,3.22,0,0,0-.68-1.6h0A3.51,3.51,0,0,1,80,49.6a9.23,9.23,0,0,1,.16,1.71,11,11,0,0,1-.52,3.19.12.12,0,0,1-.15.08.12.12,0,0,1-.09-.15h0Z"></path>
      <path class="cls-15" d="M74.08,77a1.46,1.46,0,0,1,.92.26,8.2,8.2,0,0,1,2.5,2.63c2.24,3.15,2,3.48,3.29,4.32a10.25,10.25,0,0,0,3.52,1.71,10,10,0,0,0,7.18-1.34,28.56,28.56,0,0,0,5.76-3.94,12.38,12.38,0,0,0,2.8-4.32c1.63-4,.91-3.69-.06-4.4s-2.56-.08-4.53-2.11c-1-1-3.4-1.64-5.7-2.08s-4.54-.65-5.5-.17c-2,.94-3.17,1.55-5.9,5.78a14.39,14.39,0,0,1-1.43,1.52,5.25,5.25,0,0,1-2.77,1.52C72.48,76.44,73,76.62,74.08,77Z"></path>
      <path class="cls-13" d="M73.4,76.23a48,48,0,0,0,6.45.66,48.52,48.52,0,0,0,6.49-.17,44.43,44.43,0,0,0,6.39-1.09l1.57-.42,1.54-.5a26.61,26.61,0,0,0,3-1.22,22.61,22.61,0,0,1-6,2.42,43.9,43.9,0,0,1-6.44,1.16,49.26,49.26,0,0,1-6.54.25,45.9,45.9,0,0,1-6.51-.67.21.21,0,0,1-.17-.24.22.22,0,0,1,.25-.18Z"></path>
      <path class="cls-13" d="M76.25,76.73a11,11,0,0,1,2.83,2.1,14.8,14.8,0,0,1,1.19,1.31c.18.24.38.46.55.7l.53.71.27.34.32.32a5.61,5.61,0,0,0,.7.57,6.53,6.53,0,0,0,1.66.8,7.91,7.91,0,0,0,3.81.19h0a0,0,0,0,1,0,0s0,0,0,0a8,8,0,0,1-3.87-.14,6.2,6.2,0,0,1-2.43-1.38L81.5,82l-.28-.35-.55-.7c-.16-.24-.36-.46-.54-.69A16.23,16.23,0,0,0,78.94,79a11,11,0,0,0-2.78-2h0a.11.11,0,0,1-.06-.15.12.12,0,0,1,.16-.06Z"></path>
      <path class="cls-13" d="M80.92,77.05c.89.76,1.82,1.47,2.79,2.17l1.49,1a13.69,13.69,0,0,0,1.58.9,7.11,7.11,0,0,0,3.67.45,13.72,13.72,0,0,0,3.67-1s0,0,0,0a0,0,0,0,1,0,.06,14.51,14.51,0,0,1-3.69,1,7.22,7.22,0,0,1-3.75-.43,11.46,11.46,0,0,1-1.61-.9c-.51-.33-1-.64-1.51-1-1-.68-1.93-1.39-2.83-2.14a.12.12,0,0,1,.15-.18Z"></path>
      <path class="cls-13" d="M87.83,76.67a5.86,5.86,0,0,0,1.44,1.26,6.52,6.52,0,0,0,1.8.75,4.26,4.26,0,0,0,.49.1c.17,0,.33,0,.5.06l.51,0h.5a8.44,8.44,0,0,0,1-.12c.34-.07.67-.16,1-.24h0s0,0,0,0a.05.05,0,0,1,0,0c-.33.08-.66.19-1,.26a7,7,0,0,1-1,.14l-.52,0-.51,0a4.2,4.2,0,0,1-.51,0,4.54,4.54,0,0,1-.51-.09,6.36,6.36,0,0,1-1.87-.74,5.69,5.69,0,0,1-1.52-1.28.12.12,0,0,1,0-.17.12.12,0,0,1,.17,0h0Z"></path>
      <path class="cls-13" d="M93.18,75.65a10.77,10.77,0,0,0,1.6.89,10.26,10.26,0,0,0,1.77.61s0,0,0,0l0,0a10.89,10.89,0,0,1-1.82-.52A12.49,12.49,0,0,1,93,75.85a.12.12,0,1,1,.13-.21h0Z"></path>
      <path class="cls-13" d="M95.89,74.78a8.43,8.43,0,0,0,1.35.83,5.34,5.34,0,0,0,.76.28,1.19,1.19,0,0,0,.79,0h0v0A1.28,1.28,0,0,1,98,76a6.36,6.36,0,0,1-.77-.27,8.05,8.05,0,0,1-1.4-.8.07.07,0,0,1,.07-.11h0Z"></path>
      <path class="cls-13" d="M75.52,76.59a10.06,10.06,0,0,0,3-1.31,14.33,14.33,0,0,0,1.33-1c.42-.34.82-.74,1.22-1.11a15.88,15.88,0,0,1,2.52-2,7.62,7.62,0,0,1,2.86-1,7.73,7.73,0,0,0-2.83,1.12,15.74,15.74,0,0,0-2.46,2.05,15.54,15.54,0,0,1-2.52,2.18,10,10,0,0,1-3.1,1.42.15.15,0,0,1-.07-.29h0Z"></path>
      <path class="cls-13" d="M83.22,77c1-1.17,1.91-2.33,2.82-3.51.23-.29.45-.58.7-.85a5,5,0,0,1,.81-.72c.57-.42,1.15-.81,1.74-1.18q-.87.59-1.71,1.23a5.4,5.4,0,0,0-.78.73c-.23.28-.45.57-.67.87-.88,1.19-1.78,2.38-2.72,3.58a.12.12,0,1,1-.19-.15Z"></path>
      <path class="cls-13" d="M86.7,76.68a10.71,10.71,0,0,0,1.61-1.23A8.6,8.6,0,0,0,89.65,74c.38-.55.61-1.19,1-1.74A5.48,5.48,0,0,1,92,70.79h0v0h0a5.37,5.37,0,0,0-1.27,1.45c-.37.55-.58,1.2-1,1.76a9,9,0,0,1-1.32,1.56,11.82,11.82,0,0,1-1.61,1.29.11.11,0,0,1-.16,0,.11.11,0,0,1,0-.16h0Z"></path>
      <path class="cls-13" d="M91.3,76l1.21-2.24c.22-.37.43-.74.63-1.1a5.65,5.65,0,0,1,.34-.51,1.65,1.65,0,0,1,.41-.46,1.61,1.61,0,0,0-.39.47,4.74,4.74,0,0,0-.31.54c-.19.36-.38.73-.57,1.12l-1.11,2.29a.13.13,0,0,1-.16.06.12.12,0,0,1,0-.16Z"></path>
      <path class="cls-13" d="M94.63,75c.2-.43.42-.84.65-1.25.12-.2.25-.39.38-.58a2.28,2.28,0,0,1,.47-.51h0a1.83,1.83,0,0,0-.42.54c-.12.2-.23.39-.33.6a11.87,11.87,0,0,0-.55,1.27h0a.11.11,0,0,1-.15.07.12.12,0,0,1-.07-.15Z"></path>
      <path class="cls-13" d="M63.17,88.9C61.56,72.07,61,56.09,60.88,44.33c-.06-5.88,0-10.71,0-14.09s.12-5.3.12-5.38l1.11.06c0,.16-.07,2.9-.17,7.28s-.12,10.45,0,17.24a391.12,391.12,0,0,0,2.61,42.05.61.61,0,0,1-1.1.46Z"></path>
      <path class="cls-14" d="M61.52,32.5a9.67,9.67,0,0,0,3.7.1c1.94-.36,4.2-1.58,4.81-5.41s-1.25-9.47-5.51-13.73A19,19,0,0,0,47.27,7.87s-.08.94-.1,2.4,0,3.51,0,5.74c.2,4.52.61,9.55,3.28,14.13a16.38,16.38,0,0,0,3.43,3.06C55.92,34.46,58.68,35.42,61.52,32.5Z"></path>
      <path class="cls-13" d="M61.67,32.56A49.68,49.68,0,0,0,60,26.37a51,51,0,0,0-2.5-5.91,40.34,40.34,0,0,0-3.28-5.52,30,30,0,0,0-2-2.51,10.76,10.76,0,0,0-2.36-2.11,11,11,0,0,1,2.23,2.23A31.66,31.66,0,0,1,54,15.11a43.79,43.79,0,0,1,3.1,5.56,54.49,54.49,0,0,1,2.4,5.88,62.32,62.32,0,0,1,1.69,6.12h0a.27.27,0,0,0,.32.2A.26.26,0,0,0,61.67,32.56Z"></path>
      <path class="cls-13" d="M60.75,29.3A7.45,7.45,0,0,0,63.06,27a7.6,7.6,0,0,0,1.1-3.15c0-.29,0-.58,0-.87a3.09,3.09,0,0,0,0-.43l0-.44a6.32,6.32,0,0,0-.11-.86l-.2-.86a5.78,5.78,0,0,0-.28-.83l-.32-.83-.83-1.55h0v0h0c.26.52.53,1.06.79,1.56l.3.83a5.72,5.72,0,0,1,.26.83l.18.85a8.17,8.17,0,0,1,.09.85l0,.42c0,.14,0,.29,0,.43s0,.56-.07.84a7.27,7.27,0,0,1-1.14,3A7.12,7.12,0,0,1,60.58,29h0a.17.17,0,0,0-.06.23.16.16,0,0,0,.23.05Z"></path>
      <path class="cls-13" d="M58.09,22.17A6.3,6.3,0,0,0,59.35,20a7.23,7.23,0,0,0,.35-2.54l-.06-.65a4.5,4.5,0,0,0-.11-.64c-.05-.22-.09-.43-.16-.64l-.22-.62a4.6,4.6,0,0,0-.25-.61l-.29-.6-.7-1.12.66,1.14.27.6a4.49,4.49,0,0,1,.23.61l.2.62a4.53,4.53,0,0,1,.13.64,3.42,3.42,0,0,1,.09.63l0,.64a7.21,7.21,0,0,1-.42,2.45,5.89,5.89,0,0,1-1.25,2.05h0a.16.16,0,0,0,0,.24.17.17,0,0,0,.24,0Z"></path>
      <path class="cls-13" d="M54.54,15.55A7.63,7.63,0,0,0,55,14.07a7.27,7.27,0,0,0,.13-1.55A4.89,4.89,0,0,0,54.82,11,4.11,4.11,0,0,0,54,9.64h0v0A4,4,0,0,1,54.72,11a4.83,4.83,0,0,1,.2,1.51A7.41,7.41,0,0,1,54.73,14a8.28,8.28,0,0,1-.49,1.4h0a.17.17,0,1,0,.31.15Z"></path>
      <path class="cls-13" d="M60.76,29.94a5.89,5.89,0,0,1-2.3.24,10.26,10.26,0,0,1-2.28-.47,17.09,17.09,0,0,1-2.12-.86l-1-.52-1-.57.93.6,1,.55a14.74,14.74,0,0,0,2.1.94,9.77,9.77,0,0,0,2.31.57,8.29,8.29,0,0,0,1.22,0,4.15,4.15,0,0,0,1.23-.22A.16.16,0,0,0,61,30a.16.16,0,0,0-.21-.1h0Z"></path>
      <path class="cls-13" d="M59.41,25.63a6.15,6.15,0,0,1-2.1.32,8.33,8.33,0,0,1-2.11-.3,9.32,9.32,0,0,1-1.91-.82c-.31-.16-.58-.37-.87-.54l-.8-.61.77.64a9.69,9.69,0,0,0,.85.57,9.25,9.25,0,0,0,1.9.91,8.68,8.68,0,0,0,2.16.4,6.64,6.64,0,0,0,2.24-.26.18.18,0,0,0,.11-.22.18.18,0,0,0-.22-.1h0Z"></path>
      <path class="cls-13" d="M58.41,23a5.35,5.35,0,0,1-2.32-.07A7.3,7.3,0,0,1,54,22l-.47-.33-.43-.36-.22-.18-.2-.2-.4-.4-.71-.85-.65-.9h0v0l.62.93.69.88.39.41.2.21.22.19.42.38.47.35a7.55,7.55,0,0,0,2.14,1,5.69,5.69,0,0,0,2.47.15.18.18,0,0,0,.14-.2.17.17,0,0,0-.2-.13h0Z"></path>
      <path class="cls-13" d="M56.56,18.86c-1.26-.58-2.51-1.16-3.7-1.79a17.38,17.38,0,0,1-1.73-1,3.7,3.7,0,0,1-1.37-1.38h0a3.71,3.71,0,0,0,1.33,1.45,16.2,16.2,0,0,0,1.69,1.08c1.17.68,2.4,1.32,3.64,1.95a.17.17,0,0,0,.16-.3Z"></path>
      <path class="cls-14" d="M65.42,58.41a7.1,7.1,0,0,0,1.13-2.79,8.45,8.45,0,0,0-.83-5.35c-.9-1.8-2.39-2.72-4.91-3.77A97.08,97.08,0,0,1,50,41.65a13.76,13.76,0,0,0-.9,1.94,16,16,0,0,0-.91,5.73,17.61,17.61,0,0,0,2.19,8.2,14.86,14.86,0,0,0,7.32,6.65,9.84,9.84,0,0,0,1.72.33A9.21,9.21,0,0,0,63,64.24a4.23,4.23,0,0,0,2.66-2A4.79,4.79,0,0,0,65.42,58.41Z"></path>
      <path class="cls-13" d="M65.51,58.31a18.27,18.27,0,0,1-4.58-1.88,21.68,21.68,0,0,1-4-3.08,23.52,23.52,0,0,1-3.26-4,25.79,25.79,0,0,1-1.37-2.27c-.46-.76-.83-1.6-1.36-2.35.49.78.82,1.63,1.24,2.43s.85,1.58,1.3,2.34a22.9,22.9,0,0,0,3.21,4.14,20.75,20.75,0,0,0,4,3.19,16.14,16.14,0,0,0,4.68,1.91h0a.2.2,0,0,0,.24-.17A.23.23,0,0,0,65.51,58.31Z"></path>
      <path class="cls-13" d="M63,57.58a11.48,11.48,0,0,0-.86-5c-.07-.17-.17-.32-.25-.49l-.12-.23-.14-.23c-.1-.15-.18-.31-.28-.44s-.22-.25-.32-.39a2.38,2.38,0,0,0-.32-.38l-.35-.35-.72-.66h0v0h0l.71.69.33.36a2.42,2.42,0,0,1,.31.39c.09.14.2.26.31.4s.17.29.27.44l.13.23.12.24c.07.16.16.32.23.49A10.71,10.71,0,0,1,62.65,55a10.52,10.52,0,0,1,.08,2.57h0a.15.15,0,0,0,.12.16.13.13,0,0,0,.14-.12Z"></path>
      <path class="cls-13" d="M57.92,54.44a8.06,8.06,0,0,0,.18-2.06,9.09,9.09,0,0,0-.23-1.92L57.75,50a3,3,0,0,0-.14-.42l-.15-.41-.18-.4a2.69,2.69,0,0,0-.19-.38,1.9,1.9,0,0,1-.2-.37l-.45-.71.42.73a2.69,2.69,0,0,0,.19.38c.06.12.13.25.18.38l.16.41.13.42a2.58,2.58,0,0,1,.13.42c0,.15.07.28.1.44a9.7,9.7,0,0,1,.17,1.89,8.48,8.48,0,0,1-.24,2h0a.15.15,0,0,0,.09.18.13.13,0,0,0,.16-.09Z"></path>
      <path class="cls-13" d="M54,49.85a11,11,0,0,0,.3-1.23,10.22,10.22,0,0,0,.17-1.22,6.76,6.76,0,0,0,0-1.19A3.53,3.53,0,0,0,54,45.15h0v0a3.43,3.43,0,0,1,.32,1.06,9,9,0,0,1,0,1.16,8.65,8.65,0,0,1-.24,1.19,9.1,9.1,0,0,1-.34,1.16h0a.15.15,0,0,0,.07.19.12.12,0,0,0,.16-.08Z"></path>
      <path class="cls-13" d="M63.39,57.9a4,4,0,0,1-.89,1.65,5.37,5.37,0,0,1-1.56,1.17,7,7,0,0,1-2,.6,9.67,9.67,0,0,1-1.07.1l-1.11-.05,1.12.09c.36,0,.73,0,1.09-.06a6.8,6.8,0,0,0,2-.55,5.26,5.26,0,0,0,1.63-1.14,4.77,4.77,0,0,0,.6-.8,3.74,3.74,0,0,0,.4-1,.16.16,0,0,0-.1-.17.14.14,0,0,0-.16.1h0Z"></path>
      <path class="cls-13" d="M60.23,56.25a4,4,0,0,1-1.11,1.3,4,4,0,0,1-1.56.75,5.2,5.2,0,0,1-1.85,0,6.74,6.74,0,0,1-1-.24c-.31-.11-.64-.23-1-.37a8,8,0,0,0,1,.41c.32.09.64.22,1,.28a5.73,5.73,0,0,0,1.89,0,4.29,4.29,0,0,0,1.65-.72,4.11,4.11,0,0,0,1.21-1.34.15.15,0,0,0,0-.2.13.13,0,0,0-.18.05h0Z"></path>
      <path class="cls-13" d="M58.42,54.91a2.94,2.94,0,0,1-1.6.82,3.72,3.72,0,0,1-1.92-.16l-.48-.19-.48-.24L53.71,55l-.21-.16-.44-.33a8.6,8.6,0,0,1-.83-.77l-.73-.9h0v0l.72.92a8.83,8.83,0,0,0,.82.8l.44.35.22.17.23.14.48.27.49.2a3.84,3.84,0,0,0,2,.23,3.06,3.06,0,0,0,1.74-.86.14.14,0,0,0,0-.19.12.12,0,0,0-.18,0h0Z"></path>
      <path class="cls-13" d="M55.9,52.33a10.09,10.09,0,0,1-3.1-1.09,8.67,8.67,0,0,1-1.45-1,3.8,3.8,0,0,1-1.09-1.56h0a4,4,0,0,0,1,1.62,10.2,10.2,0,0,0,1.44,1.1,10.51,10.51,0,0,0,3.12,1.23A.14.14,0,0,0,56,52.5a.15.15,0,0,0-.1-.17Z"></path>
      <path class="cls-15" d="M61.45,72.64a1.31,1.31,0,0,0-.84-.15,7.48,7.48,0,0,0-3,1.2c-3,1.72-2.94,2.09-4.32,2.28a8.66,8.66,0,0,1-3.51,0,9,9,0,0,1-5.34-3.93,26,26,0,0,1-3.17-5.56,11.69,11.69,0,0,1-.6-4.71c.25-4,.72-3.42,1.78-3.61s2.09,1,4.48.11c1.18-.41,3.39,0,5.41.61s3.93,1.28,4.52,2c1.23,1.55,2,2.52,2.54,7A12.6,12.6,0,0,0,60,69.79a4.7,4.7,0,0,0,1.67,2.31C63,72.78,62.5,72.74,61.45,72.64Z"></path>
      <path class="cls-13" d="M62.3,72.26a42.43,42.43,0,0,1-10.69-4.63,37.41,37.41,0,0,1-4.77-3.43l-1.1-1-1.05-1A21.56,21.56,0,0,1,42.75,60a20,20,0,0,0,3.92,4.43,38,38,0,0,0,4.77,3.51,42,42,0,0,0,5.22,2.76,38.12,38.12,0,0,0,5.55,2,.19.19,0,0,0,.23-.13.2.2,0,0,0-.13-.24Z"></path>
      <path class="cls-13" d="M59.8,71.58a9.66,9.66,0,0,0-3.1.62,13.47,13.47,0,0,0-1.47.62l-.71.36-.7.38-.36.18-.37.13a4.25,4.25,0,0,1-.78.2,5.83,5.83,0,0,1-1.67,0,7.13,7.13,0,0,1-3.17-1.34h0v0a7.11,7.11,0,0,0,3.21,1.4,6.45,6.45,0,0,0,1.7,0,5.47,5.47,0,0,0,.8-.19l.39-.14.36-.18.71-.36.7-.36a13.93,13.93,0,0,1,1.46-.59,9.68,9.68,0,0,1,3-.58h0a.1.1,0,0,0,.1-.11.09.09,0,0,0-.1-.1Z"></path>
      <path class="cls-13" d="M55.88,70c-1,.28-2,.49-3.1.69L51.19,71a11.18,11.18,0,0,1-1.63.12A6.32,6.32,0,0,1,46.41,70a12.52,12.52,0,0,1-2.61-2.26s-.06,0-.06,0,0,0,0,.05a12.76,12.76,0,0,0,2.61,2.31,6.48,6.48,0,0,0,3.22,1.13,12.66,12.66,0,0,0,1.64-.11l1.61-.22c1.06-.18,2.09-.4,3.11-.66a.11.11,0,0,0,.08-.13.11.11,0,0,0-.13-.08Z"></path>
      <path class="cls-13" d="M50.41,67a5,5,0,0,1-1.65.47,5.77,5.77,0,0,1-1.75-.1,3.54,3.54,0,0,1-.44-.11c-.14-.05-.29-.09-.43-.15l-.42-.18-.41-.21a6.41,6.41,0,0,1-.77-.51l-.71-.59h0v0l.71.61a6.7,6.7,0,0,0,.78.53l.41.23.42.18a2.6,2.6,0,0,0,.44.16,2.23,2.23,0,0,0,.44.13,5.55,5.55,0,0,0,1.81.14,5.1,5.1,0,0,0,1.72-.46.1.1,0,0,0,.05-.14.11.11,0,0,0-.14-.06h0Z"></path>
      <path class="cls-13" d="M46.47,64a9.9,9.9,0,0,1-1.64.1,8.8,8.8,0,0,1-1.67-.22l0,0,0,0a9,9,0,0,0,1.68.3,10.34,10.34,0,0,0,1.67,0,.11.11,0,0,0,.1-.12.12.12,0,0,0-.12-.1h0Z"></path>
      <path class="cls-13" d="M44.62,62.22a6.77,6.77,0,0,1-1.42.14,4.39,4.39,0,0,1-.72-.07,1.1,1.1,0,0,1-.64-.33h0v0a1.13,1.13,0,0,0,.65.37,4.55,4.55,0,0,0,.73.09,7.69,7.69,0,0,0,1.44-.09.06.06,0,0,0,0-.12Z"></path>
      <path class="cls-13" d="M60.44,71.74a8.76,8.76,0,0,1-2-2.24,11.94,11.94,0,0,1-.7-1.32c-.22-.44-.38-.92-.56-1.39A15.88,15.88,0,0,0,56,64.17a7.13,7.13,0,0,0-1.9-2,7.07,7.07,0,0,1,1.84,2,14.79,14.79,0,0,1,1.21,2.64,14.64,14.64,0,0,0,1.21,2.76,8.85,8.85,0,0,0,2,2.36.14.14,0,0,0,.2,0,.17.17,0,0,0,0-.2h0Z"></path>
      <path class="cls-13" d="M54,69.1c-.35-1.34-.66-2.66-1-4l-.23-1a5.59,5.59,0,0,0-.37-.91c-.3-.57-.63-1.12-.95-1.66.31.55.62,1.11.9,1.69a4.15,4.15,0,0,1,.34.91l.21,1c.28,1.32.55,2.65.84,4a.11.11,0,0,0,.13.08A.11.11,0,0,0,54,69.1Z"></path>
      <path class="cls-13" d="M51.32,67.46a10.19,10.19,0,0,1-.83-1.65,7.22,7.22,0,0,1-.5-1.76c-.1-.59,0-1.21-.14-1.82a5.09,5.09,0,0,0-.51-1.7h0v0h0a5.05,5.05,0,0,1,.47,1.69c.08.6,0,1.22.09,1.83a7.8,7.8,0,0,0,.46,1.8,11.12,11.12,0,0,0,.81,1.71.11.11,0,0,0,.15,0,.1.1,0,0,0,0-.14Z"></path>
      <path class="cls-13" d="M47.84,65.11l-.11-2.33-.08-1.15-.07-.56a1.61,1.61,0,0,0-.16-.54,1.43,1.43,0,0,1,.13.54l.05.57,0,1.14v2.33a.11.11,0,0,0,.21,0Z"></path>
      <path class="cls-13" d="M45.54,63c0-.44,0-.87,0-1.29L45.41,61a2.15,2.15,0,0,0-.18-.61h0a2.07,2.07,0,0,1,.13.61l0,.63a10.87,10.87,0,0,1,0,1.27h0a.11.11,0,0,0,.22,0Z"></path>
      <path class="cls-13" d="M74.38,29.73c-.08.5-9.61,57.26-9.26,62.3s-1.41,1-1.68-.24c5-33.21,9.26-61.64,9.35-62.25Z"></path>
      <path class="cls-15" d="M72.85,34.05a1.61,1.61,0,0,0,0-1.17,7.67,7.67,0,0,0-2.65-3.49c-3.58-2.93-4-2.53-5-3.89A12.88,12.88,0,0,1,63,22.23c-.66-1.58-.85-3.61.21-6.71s1.49-5.09,2.14-6.74a25,25,0,0,1,2.9-5.17C71-.8,71.15-.15,72.64.37s2.09,2.6,5.57,3.7c1.77.53,4.1,3.53,5.7,7s2.41,7.45,1.94,9.19c-.93,3.43-1.66,5.91-7.38,9.17,0,0-1.06.71-2.17,1.64a8.41,8.41,0,0,0-2.67,3.05C73,36.17,72.93,35.49,72.85,34.05Z"></path>
      <path class="cls-13" d="M73.55,35.14a75.65,75.65,0,0,0,.71-8.1q.13-4.07-.11-8.12c-.16-2.7-.44-5.4-.82-8.08l-.3-2c-.11-.65-.22-1.34-.33-2-.22-1.27-.45-2.58-.7-4,.18,2.73.65,5.41,1,8.1s.6,5.36.73,8.06.15,5.38,0,8.07A80.46,80.46,0,0,1,73,35.07a.27.27,0,0,0,.53.08Z"></path>
      <path class="cls-13" d="M73.84,31.53a9.22,9.22,0,0,0-2.07-3.77,13.35,13.35,0,0,0-1.52-1.49c-.29-.21-.56-.44-.86-.63l-.87-.6-.42-.3-.38-.34a8.16,8.16,0,0,1-.73-.71,7.43,7.43,0,0,1-1.09-1.62,7.6,7.6,0,0,1-.8-3.66h0a0,0,0,0,0,0,0s0,0,0,0a7.56,7.56,0,0,0,.75,3.72,8,8,0,0,0,1.09,1.67,10.05,10.05,0,0,0,.73.73l.39.35.43.31.86.61c.29.19.56.42.84.64a12.85,12.85,0,0,1,1.47,1.48,9,9,0,0,1,2,3.67v0a.15.15,0,0,0,.29-.07Z"></path>
      <path class="cls-13" d="M74.13,25.7c-.88-1.15-1.81-2.25-2.73-3.32L70,20.8c-.45-.53-.95-1-1.37-1.56a8.76,8.76,0,0,1-1.47-3.66,22.55,22.55,0,0,1-.24-3.94,0,0,0,0,0,0-.05,0,0,0,0,0-.05.05,21,21,0,0,0,.19,4,8.75,8.75,0,0,0,1.45,3.74c.43.55.91,1.06,1.36,1.59s.94,1.05,1.38,1.6c.92,1.08,1.83,2.19,2.7,3.35a.15.15,0,0,0,.24-.18Z"></path>
      <path class="cls-13" d="M73.87,17.07A7.71,7.71,0,0,1,72,15.73,8.44,8.44,0,0,1,70.43,14c-.12-.16-.19-.33-.3-.5a3,3,0,0,1-.27-.5l-.25-.52-.19-.54c-.14-.35-.22-.72-.33-1.09s-.13-.74-.2-1.12h0a0,0,0,1,0-.09,0c.06.38.1.76.18,1.14s.17.75.3,1.11l.19.55.23.53a3.67,3.67,0,0,0,.27.52c.11.16.18.35.29.51a9.13,9.13,0,0,0,1.52,1.84,8,8,0,0,0,2,1.43.15.15,0,0,0,.2-.06.16.16,0,0,0-.07-.2h0Z"></path>
      <path class="cls-13" d="M73.09,10.34A22.54,22.54,0,0,1,71.26,9,14.12,14.12,0,0,1,69.6,7.5s0,0,0,0a0,0,0,0,0,0,0,13.34,13.34,0,0,0,1.59,1.6,18.17,18.17,0,0,0,1.79,1.44.13.13,0,0,0,.2,0,.15.15,0,0,0,0-.21Z"></path>
      <path class="cls-13" d="M72.6,6.8a15.43,15.43,0,0,1-1.75-.94,5.64,5.64,0,0,1-.78-.58,1.5,1.5,0,0,1-.52-.78l0,0,0,0a1.64,1.64,0,0,0,.51.83,5.57,5.57,0,0,0,.77.61,16.67,16.67,0,0,0,1.74,1,.08.08,0,0,0,.11,0,.08.08,0,0,0,0-.11Z"></path>
      <path class="cls-13" d="M73.81,32.46a20.73,20.73,0,0,1,2.31-3.55c.44-.57.9-1.13,1.39-1.67L79,25.62a14.71,14.71,0,0,0,2.46-3.79,11.06,11.06,0,0,0,.81-4.61,10.8,10.8,0,0,1-.9,4.56,14.21,14.21,0,0,1-2.51,3.7c-1,1.06-2,2.11-2.95,3.24a20.57,20.57,0,0,0-2.44,3.58.19.19,0,0,0,.34.18h0Z"></path>
      <path class="cls-13" d="M74.18,22.83a43.81,43.81,0,0,0,4-4.16c.31-.38.62-.77.9-1.18a6.5,6.5,0,0,0,.66-1.35,18.39,18.39,0,0,0,.82-3,19.33,19.33,0,0,1-.89,2.92A6,6,0,0,1,79,17.42c-.29.4-.61.77-.92,1.14A43.39,43.39,0,0,1,74,22.61a.13.13,0,0,0,0,.2.14.14,0,0,0,.21,0Z"></path>
      <path class="cls-13" d="M74.12,18.46c.34-.78.7-1.55,1.11-2.32a20.78,20.78,0,0,1,1.36-2.21,23.78,23.78,0,0,0,1.66-2,6.33,6.33,0,0,0,1-2.51s0,0,0,0l0,0h0a6.31,6.31,0,0,1-1.06,2.46c-.47.74-1.17,1.29-1.71,2A19.92,19.92,0,0,0,75,16c-.43.76-.8,1.52-1.18,2.31a.15.15,0,0,0,.08.2.15.15,0,0,0,.19-.07h0Z"></path>
      <path class="cls-13" d="M73.47,12.7a31,31,0,0,0,2.08-2.48c.32-.44.64-.88.93-1.35.14-.24.28-.48.41-.73a2.3,2.3,0,0,0,.26-.79,2.23,2.23,0,0,1-.29.77,7,7,0,0,1-.45.7c-.3.45-.64.88-1,1.3a30.64,30.64,0,0,1-2.17,2.37.14.14,0,0,0,0,.21.15.15,0,0,0,.21,0Z"></path>
      <path class="cls-13" d="M73,8.36a14.63,14.63,0,0,0,1-1.47,7.75,7.75,0,0,0,.42-.81,2.79,2.79,0,0,0,.23-.87v0l0,0a2.64,2.64,0,0,1-.29.83,8.53,8.53,0,0,1-.46.76,13.33,13.33,0,0,1-1.1,1.36h0a.15.15,0,1,0,.22.2Z"></path>
      <path class="cls-15" d="M70.11,48.55s0-1.27-3.23-2-3.36-.27-4.44-.82-4-1.24-4.51-5.93c-.7-4.77-1-5.67-.29-9.28s.9-3.23,2-3.31,2,1.13,4.6.84c1.28-.16,3.59,1.07,5.61,2.77s3.69,3.84,3.92,5.05c.45,2.38.76,4.09-1.73,8,0,0-.42.79-.8,1.73a5.67,5.67,0,0,0-.61,2.78C70.92,49.82,70.66,49.41,70.11,48.55Z"></path>
      <path class="cls-13" d="M70.92,49c-.71-1.78-1.46-3.54-2.3-5.25S66.9,40.33,66,38.68s-1.93-3.29-3-4.9l-.77-1.21-.79-1.2L59.88,29c.86,1.72,1.92,3.32,2.91,4.94s2,3.26,2.89,4.92,1.8,3.35,2.61,5.07,1.58,3.45,2.28,5.23a.19.19,0,0,0,.24.1.18.18,0,0,0,.11-.24Z"></path>
      <path class="cls-13" d="M69.86,46.66A7,7,0,0,0,67.31,45a10.4,10.4,0,0,0-1.44-.44c-.25,0-.5-.1-.75-.12l-.74-.1L64,44.29l-.35-.09A4.26,4.26,0,0,1,63,44a5.23,5.23,0,0,1-1.22-.7,5.53,5.53,0,0,1-1.69-2.15h0s0,0,0,0,0,0,0,0a5.61,5.61,0,0,0,1.68,2.19,5.19,5.19,0,0,0,1.23.73c.23.08.46.18.7.24l.36.09.37.06.74.11c.24,0,.49.09.73.14a10,10,0,0,1,1.41.44,6.83,6.83,0,0,1,2.46,1.63h0a.09.09,0,0,0,.14,0,.1.1,0,0,0,0-.15Z"></path>
      <path class="cls-13" d="M68.11,42.94c-.93-.42-1.87-.82-2.79-1.21l-1.4-.56c-.45-.19-.92-.37-1.36-.58a6.11,6.11,0,0,1-2.08-1.93,15.07,15.07,0,0,1-1.36-2.5s0,0,0,0a0,0,0,0,0,0,0,14.24,14.24,0,0,0,1.34,2.53,6.13,6.13,0,0,0,2.09,2c.45.22.91.4,1.37.6l1.38.58c.93.39,1.85.81,2.78,1.24a.11.11,0,0,0,.14-.05.11.11,0,0,0,0-.14Z"></path>
      <path class="cls-13" d="M65.22,37.59a5.42,5.42,0,0,1-1.64-.27,5.66,5.66,0,0,1-1.5-.68,2.54,2.54,0,0,1-.34-.23,2,2,0,0,1-.33-.24l-.31-.27-.29-.29c-.19-.18-.35-.41-.53-.61s-.31-.45-.46-.67h0s0,0,0,0c.15.23.29.47.45.69a8,8,0,0,0,.53.63L61,36l.31.28a4.08,4.08,0,0,0,.33.25c.12.08.22.18.34.25a6.74,6.74,0,0,0,1.53.73,5.62,5.62,0,0,0,1.69.31.11.11,0,0,0,.11-.1.1.1,0,0,0-.1-.11h0Z"></path>
      <path class="cls-13" d="M62.7,33.53c-.52-.08-1.05-.2-1.56-.33a10.59,10.59,0,0,1-1.5-.51,0,0,0,0,0,0,0,0,0,0,0,0,0,0,9.51,9.51,0,0,0,1.48.59,13.38,13.38,0,0,0,1.57.41.1.1,0,0,0,0-.2h0Z"></path>
      <path class="cls-13" d="M61.37,31.39A10.85,10.85,0,0,1,60,31.28a5,5,0,0,1-.67-.16,1.06,1.06,0,0,1-.55-.37h0v0a1.12,1.12,0,0,0,.56.4,5.27,5.27,0,0,0,.68.19,10.89,10.89,0,0,0,1.4.15.05.05,0,0,0,.06-.05.06.06,0,0,0,0-.06h0Z"></path>
      <path class="cls-13" d="M70.16,47.25a12.5,12.5,0,0,1,.24-3c.08-.49.18-1,.31-1.48s.27-1,.4-1.48a10.5,10.5,0,0,0,.35-3.12,7.53,7.53,0,0,0-.89-3.09,7.52,7.52,0,0,1,.82,3.09A10.6,10.6,0,0,1,71,41.28a30,30,0,0,0-.78,3,12.83,12.83,0,0,0-.31,3,.14.14,0,0,0,.27,0h0Z"></path>
      <path class="cls-13" d="M67.21,41.13a37.1,37.1,0,0,0,1.22-3.87c.08-.33.16-.66.21-1a4,4,0,0,0,0-1,14.92,14.92,0,0,0-.34-2.09,14.8,14.8,0,0,1,.29,2.09,4.42,4.42,0,0,1,0,1c-.06.33-.15.67-.23,1A34.39,34.39,0,0,1,67,41.05a.11.11,0,0,0,.06.14.11.11,0,0,0,.14-.06Z"></path>
      <path class="cls-13" d="M65.8,38.4c0-.6,0-1.21,0-1.81A12.24,12.24,0,0,1,66,34.78c.11-.59.39-1.16.46-1.78a4.64,4.64,0,0,0-.07-1.89h0v0h0a4.49,4.49,0,0,1,0,1.86c-.08.61-.36,1.16-.5,1.77a12.58,12.58,0,0,0-.25,1.83c0,.61,0,1.21,0,1.83a.11.11,0,0,0,.1.1.11.11,0,0,0,.11-.11Z"></path>
      <path class="cls-13" d="M63.64,34.93c.23-.72.44-1.46.6-2.2a10.25,10.25,0,0,0,.21-1.13,5.51,5.51,0,0,0,.06-.57,1.61,1.61,0,0,0-.05-.58,1.82,1.82,0,0,1,0,.57,4.85,4.85,0,0,1-.09.57c-.07.38-.16.75-.26,1.11a22.67,22.67,0,0,1-.7,2.16.11.11,0,0,0,.2.07Z"></path>
      <path class="cls-13" d="M62.09,32.27A8.34,8.34,0,0,0,62.32,31a3.33,3.33,0,0,0,0-.63,1.72,1.72,0,0,0-.09-.63h0a1.84,1.84,0,0,1,0,.62c0,.2,0,.41-.09.61a9,9,0,0,1-.32,1.19h0a.1.1,0,0,0,.2.06Z"></path>
      <path class="cls-14" d="M70.77,51.45a5,5,0,0,0,.07,2.44c.37,1.25,1.4,2.5,3.8,2.89s5.67-.26,9.1-1.71a29.06,29.06,0,0,0,10.31-7.34,18.67,18.67,0,0,0-5.68-3.45,20.32,20.32,0,0,0-14.57-.42,12.67,12.67,0,0,0-3.53,2.59C68.87,48,68.32,49.92,70.77,51.45Z"></path>
      <path class="cls-13" d="M70.73,51.56c1.65-.5,3.31-1,5-1.33s3.38-.71,5.08-1,3.41-.5,5.13-.68l2.59-.28a19.37,19.37,0,0,0,2.55-.42,18.21,18.21,0,0,1-2.57.3l-2.59.2c-1.72.14-3.45.32-5.16.57s-3.42.55-5.11.93-3.36.83-5,1.36h0a.2.2,0,0,0-.15.23C70.5,51.55,70.62,51.59,70.73,51.56Z"></path>
      <path class="cls-13" d="M73.34,50.72A5.52,5.52,0,0,0,75,52.23a7.13,7.13,0,0,0,2.17.88c.2,0,.4.07.6.1l.29,0,.31,0c.2,0,.4,0,.6,0l.61,0c.2,0,.4,0,.6,0l.6-.07L82,53h0l-1.19.19-.6.06a3.82,3.82,0,0,1-.59,0H79c-.2,0-.4,0-.6,0l-.29,0-.29,0c-.2,0-.39-.06-.58-.11a6.75,6.75,0,0,1-2.09-.9,5.28,5.28,0,0,1-1.53-1.48h0a.13.13,0,0,0-.18,0,.1.1,0,0,0,0,.15Z"></path>
      <path class="cls-13" d="M79.34,49.36a5.05,5.05,0,0,0,1.37,1.14,7.1,7.1,0,0,0,1.7.71l.46.11a3.85,3.85,0,0,0,.47.08l.47.06.47,0a2.57,2.57,0,0,0,.48,0h.47l1-.07-1,0h-.47a3.62,3.62,0,0,1-.47,0l-.47,0-.46-.07c-.15,0-.31,0-.45-.09l-.45-.12a6.92,6.92,0,0,1-1.63-.75,4.81,4.81,0,0,1-1.25-1.11h0a.15.15,0,0,0-.19,0,.1.1,0,0,0,0,.15Z"></path>
      <path class="cls-13" d="M85.38,48.58a8.21,8.21,0,0,0,.86.7,6.88,6.88,0,0,0,1,.57,5.79,5.79,0,0,0,1.11.37,4,4,0,0,0,1.19,0v0h0a3.77,3.77,0,0,1-1.16-.08,5.33,5.33,0,0,1-1-.41,6.36,6.36,0,0,1-.93-.59,7.68,7.68,0,0,1-.79-.71h0a.15.15,0,0,0-.19,0,.11.11,0,0,0,0,.16Z"></path>
      <path class="cls-13" d="M72.83,50.75a2.75,2.75,0,0,1-.08-1.51,5,5,0,0,1,.61-1.55,7.9,7.9,0,0,1,1.07-1.44l.67-.66.73-.63-.76.61-.7.65a8.94,8.94,0,0,0-1.14,1.43,5.63,5.63,0,0,0-.69,1.58,3.72,3.72,0,0,0-.09.81,2.25,2.25,0,0,0,.13.81.12.12,0,0,0,.16.06.13.13,0,0,0,.09-.15h0Z"></path>
      <path class="cls-13" d="M76.39,49.89a2.91,2.91,0,0,1,.06-1.4,4.12,4.12,0,0,1,.66-1.37,6.26,6.26,0,0,1,1.17-1.19c.23-.18.49-.33.73-.5l.8-.44-.82.42c-.25.16-.52.31-.75.48A6.41,6.41,0,0,0,77,47.07a4.3,4.3,0,0,0-.74,1.4A3.15,3.15,0,0,0,76.13,50a.12.12,0,0,0,.15.08c.07,0,.13-.07.12-.13h0Z"></path>
      <path class="cls-13" d="M78.66,49.46A2.81,2.81,0,0,1,79.23,48a4.91,4.91,0,0,1,1.34-1.21l.41-.24.45-.21.22-.1.24-.08.47-.17c.33-.09.66-.18,1-.25l1-.17h0l0,0-1,.15c-.33.07-.67.14-1,.23l-.48.16-.25.08-.23.09-.46.21-.43.24a4.87,4.87,0,0,0-1.43,1.22,2.94,2.94,0,0,0-.66,1.58c0,.06,0,.11.12.11a.14.14,0,0,0,.15-.11h0Z"></path>
      <path class="cls-13" d="M82.27,49a18.51,18.51,0,0,1,2.63-1.81,12.15,12.15,0,0,1,1.5-.71,4,4,0,0,1,1.68-.31h0a4,4,0,0,0-1.72.26,11.88,11.88,0,0,0-1.55.67,18.78,18.78,0,0,0-2.74,1.75.09.09,0,0,0,0,.15.15.15,0,0,0,.19,0h0Z"></path>
    </g>
  </g>
</svg>
