<?xml version="1.0" encoding="UTF-8"?>
<svg xmlns="http://www.w3.org/2000/svg" viewBox="0 0 117.66 119.33">
  <defs>
    <style>.cls-1{fill:#a5a5a5;}.cls-2{fill:#a29274;}.cls-3{fill:#e3e0c9;}.cls-4{fill:#fcedce;}.cls-5{fill:#bda885;}.cls-6{fill:#d0c5a6;}.cls-7{fill:#8f8267;}.cls-8{fill:#ab967a;opacity:0.25;}.cls-9{fill:#9b8d71;}.cls-10{fill:#7c705b;}.cls-11{fill:#cacac9;}.cls-12{fill:#817870;}.cls-13{fill:#74a754;}.cls-14{fill:#769b57;}</style>
  </defs>
  <g id="Слой_2" data-name="Слой 2">
    <g id="Слой_1-2" data-name="Слой 1">
      <polygon class="cls-1" points="101.63 104.65 101.69 104.55 101.59 104.54 101.63 104.65"></polygon>
      <polygon class="cls-2" points="58.91 41.92 117.66 16.91 108.85 84.56 58.91 119.33 58.91 41.92"></polygon>
      <polygon class="cls-3" points="58.91 0 117.66 16.91 58.91 41.92 0 16.91 58.91 0"></polygon>
      <polygon class="cls-4" points="58.91 0 0 16.91 1.03 17.35 117.12 16.75 58.91 0"></polygon>
      <polygon class="cls-5" points="8.81 84.56 0 16.91 58.91 41.92 58.91 119.33 8.81 84.56"></polygon>
      <path class="cls-6" d="M37,17.74a32.38,32.38,0,0,1,2.78-3A27.18,27.18,0,0,1,43,12.25a32,32,0,0,1,7.38-3.57c1.3-.43,2.62-.78,4-1.08a39.57,39.57,0,0,1,4-.61,38.75,38.75,0,0,1,8.13,0c-2.7.17-5.37.46-8,.89a49.81,49.81,0,0,0-7.75,1.9,40.36,40.36,0,0,0-7.27,3.23A40.88,40.88,0,0,0,37,17.74Z"></path>
      <polygon class="cls-7" points="58.91 41.92 117.66 16.91 108.85 84.56 58.91 119.33 58.91 41.92"></polygon>
      <polygon class="cls-8" points="8.81 84.56 0 16.91 58.91 41.92 58.91 119.33 8.81 84.56"></polygon>
      <polygon class="cls-9" points="58.91 119.33 8.81 84.56 59.15 65.53 108.85 84.56 58.91 119.33"></polygon>
      <path class="cls-10" d="M19.46,54.81a10.53,10.53,0,0,1-.9-2.32A20.44,20.44,0,0,1,18,50.05a18.1,18.1,0,0,1-.09-5,15.57,15.57,0,0,1,4.35-9.08,21.84,21.84,0,0,1,8.65-5.16A37,37,0,0,1,40.73,29a55.79,55.79,0,0,0-9.48,2.62,23.45,23.45,0,0,0-8.11,5.12,15.74,15.74,0,0,0-4.28,8.38A20,20,0,0,0,18.6,50,18.5,18.5,0,0,0,19.46,54.81Z"></path>
      <path class="cls-10" d="M74.2,53.88c.16.25.49.34.75.47s.56.24.84.35c.56.22,1.14.41,1.71.59,1.15.38,2.31.72,3.47,1,2.33.63,4.68,1.2,7,1.67,4.73,1,9.52,1.59,14.37,2.16a53.13,53.13,0,0,1-14.61-1,54.58,54.58,0,0,1-7.08-2c-1.15-.41-2.29-.88-3.4-1.39-.56-.27-1.1-.55-1.64-.85A4.17,4.17,0,0,1,74.2,53.88Z"></path>
      <path class="cls-10" d="M42.65,50.36a43.43,43.43,0,0,1-3.9,13,36.2,36.2,0,0,1-3.54,5.84,22.16,22.16,0,0,1-4.89,4.73,39.89,39.89,0,0,0,4.13-5.27,60,60,0,0,0,3.22-5.83c1-2,1.83-4.05,2.66-6.13S41.93,52.5,42.65,50.36Z"></path>
      <path class="cls-10" d="M60.87,104.19c2.4-1.17,4.88-2.1,7.3-3.15S73,98.91,75.31,97.7A45.29,45.29,0,0,0,82,93.56a18.82,18.82,0,0,0,5.24-5.77,15.27,15.27,0,0,1-4.65,6.5,34.3,34.3,0,0,1-6.67,4.48,59.38,59.38,0,0,1-7.36,3.14c-1.26.45-2.53.84-3.8,1.21Z"></path>
      <path class="cls-10" d="M33.32,96.77a16.26,16.26,0,0,1-3.81-2.42,9.17,9.17,0,0,1-2.76-3.71,5.44,5.44,0,0,1-.34-2.41,6.06,6.06,0,0,1,.73-2.32,11.2,11.2,0,0,1,3.19-3.44,31,31,0,0,1,8.13-4,62.51,62.51,0,0,1,8.7-2.27c-2.82,1-5.62,2-8.37,3.15a36.78,36.78,0,0,0-7.74,4.13,10.23,10.23,0,0,0-2.92,3,4.74,4.74,0,0,0-.49,3.89,9.09,9.09,0,0,0,2.27,3.58A19.93,19.93,0,0,0,33.32,96.77Z"></path>
      <path class="cls-10" d="M87.19,52.52l4.37-6c1.44-2,2.85-4,4.18-6.11A63.41,63.41,0,0,0,99.43,34a20.56,20.56,0,0,0,2.31-7,15.82,15.82,0,0,1-1.45,7.34A41,41,0,0,1,96.75,41,62.37,62.37,0,0,1,87.19,52.52Z"></path>
      <polygon class="cls-1" points="56.77 80.25 56.83 80.14 56.73 80.14 56.77 80.25"></polygon>
      <path class="cls-11" d="M59.32,31.21l3,.73c.19,3.33.39,6.65.57,10a15.39,15.39,0,0,1-1.41,7.93c-.28.55-.52,1.17-1.25,1a2.61,2.61,0,0,1-.11-1.35c.31-1.82.76-3.61,1-5.43a5.4,5.4,0,0,0-.89-4.21,6.36,6.36,0,0,1-.86-3.14C59.25,34.93,59.33,33.07,59.32,31.21Z"></path>
      <polygon class="cls-4" points="1.03 17.35 58.91 41.92 117.66 16.91 117.12 16.75 1.03 17.35"></polygon>
      <ellipse class="cls-2" cx="60.77" cy="18.09" rx="13.57" ry="5.31"></ellipse>
      <ellipse class="cls-12" cx="61.12" cy="19.88" rx="11.18" ry="4.37"></ellipse>
      <path class="cls-13" d="M62.48,21.18c-.94.22,3.1-14.4,9.58-16.79C72.06,4.39,73.41,18.61,62.48,21.18Z"></path>
      <path class="cls-14" d="M62.74,21S59.07,9.55,48.4,7.27C48.4,7.27,48.3,18.44,62.74,21Z"></path>
    </g>
  </g>
</svg>
