<?xml version="1.0" encoding="UTF-8"?>
<svg xmlns="http://www.w3.org/2000/svg" xmlns:xlink="http://www.w3.org/1999/xlink" viewBox="0 0 110.12 112.04">
  <defs>
    <style>.cls-1{fill:none;}.cls-2{fill:#956d4b;}.cls-3{clip-path:url(#clip-path);}.cls-4{fill:url(#Безымянный_градиент_2);}.cls-5{fill:#754120;}.cls-6{fill:#44281c;}.cls-7{fill:#6c3c1d;}.cls-8{fill:#714d31;}.cls-9{fill:#613822;}.cls-10{fill:#7f5637;}.cls-11{fill:#a07850;}.cls-12{fill:#8b5b3c;}.cls-13{fill:#e9c671;}.cls-14{fill:#d9a458;}.cls-15{fill:#84a63c;}.cls-16{fill:#613922;}</style>
    <clipPath id="clip-path">
      <polygon class="cls-1" points="7.72 83.36 57.69 106.88 103.91 83.47 55.86 63.11 7.72 83.36"></polygon>
    </clipPath>
    <linearGradient id="Безымянный_градиент_2" x1="-2347.2" y1="392.07" x2="-2344.4" y2="392.07" gradientTransform="matrix(34.36, 0, 0, -34.36, 80637, 13555.16)" gradientUnits="userSpaceOnUse">
      <stop offset="0" stop-color="#a17551"></stop>
      <stop offset="0.38" stop-color="#a17551"></stop>
      <stop offset="0.89" stop-color="#7a4928"></stop>
      <stop offset="1" stop-color="#72401f"></stop>
    </linearGradient>
  </defs>
  <g id="Слой_2" data-name="Слой 2">
    <g id="Слой_1-2" data-name="Слой 1">
      <path class="cls-2" d="M57.69,40.72S67.31,52,74.75,52.49s32.81-7.57,32.81-7.57l2.56-26.43L57.69,0Z"></path>
      <path class="cls-2" d="M0,16.62,5.23,51.09S23.81,53.88,27.06,53s18.12-6.51,22.29-6.51,8.34-5.73,8.34-5.73V0Z"></path>
      <g class="cls-3">
        <rect class="cls-4" x="31.38" y="35.8" width="48.87" height="98.4" transform="translate(-32.05 136.17) rotate(-86.92)"></rect>
      </g>
      <path class="cls-5" d="M7.72,83.36,5.23,51.1s23.69-.47,30.19-3.72,22.27-6.66,22.27-6.66l-1.83,22.4Z"></path>
      <path class="cls-6" d="M41.49,53.1a8.56,8.56,0,0,0-2.84-1.67l0,0s-3.79-1.13-5.85,1.41-1.71,5.29-.77,5.74a12.57,12.57,0,0,0,1.63.34l.09,0a30.11,30.11,0,0,0,3.51-.8,1.56,1.56,0,0,0,.6-.16,6.26,6.26,0,0,0,.65-.19c1.49-.46,1.67-.12,2.69-1a4,4,0,0,0,1.09-2.55l-.21-.5h0l0,0a1,1,0,0,0-.58-.5"></path>
      <path class="cls-6" d="M21.2,56.43a10.77,10.77,0,0,0-4,1.32v0s-4.3,2.7-3.59,6.85,3.66,6.13,4.88,5.6a14.71,14.71,0,0,0,1.71-1.28l0-.14c.92-1,1.59-3.16,2.21-4a2,2,0,0,0,.35-.72c.11-.2.21-.42.38-.79.8-1.81,1.28-1.71,1.29-3.45a5.09,5.09,0,0,0-1.54-3.21,3.29,3.29,0,0,0-.66-.23v0h-.08a1.27,1.27,0,0,0-1,.14"></path>
      <path class="cls-7" d="M57.69,40.72,55.86,63.11l48.06,20.37,3.64-38.56s-15-1.72-21.48-.8S68.24,47.84,64.84,46a44.41,44.41,0,0,1-7.15-5.26"></path>
      <path class="cls-6" d="M39.39,63.73a3.29,3.29,0,0,0-1.26-.31h0a2.31,2.31,0,0,0-2,1.18c-.49,1.19-.05,2.18.35,2.24l.65,0,0,0a10.59,10.59,0,0,0,1.23-.69l.21-.13.22-.14c.51-.34.61-.24.9-.68A1.59,1.59,0,0,0,39.81,64l-.13-.16h0Z"></path>
      <path class="cls-6" d="M86.47,54.09a2.27,2.27,0,0,0-.11-.89h0s-.38-1-1.27-1-1.43.5-1.38.78l.2.4,0,0,.75.63.13.1.15.11c.35.25.3.34.66.41a1.08,1.08,0,0,0,.74-.18l.07-.13h0Z"></path>
      <path class="cls-6" d="M99.89,70.27A10.91,10.91,0,0,0,98,66.46l0,0s-3.32-3.9-7.36-2.59-5.59,4.54-4.88,5.68a15.32,15.32,0,0,0,1.52,1.53h.14c1.19.77,3.39,1.14,4.37,1.62a2.18,2.18,0,0,0,.77.25c.22.08.45.15.84.26,1.93.54,1.9,1,3.64.79a5.15,5.15,0,0,0,3-2,4.06,4.06,0,0,0,.13-.69h0l0-.07a1.27,1.27,0,0,0-.28-1"></path>
      <path class="cls-6" d="M73.78,57a8.44,8.44,0,0,0-1.87,2.68h0s-1.4,3.66,1,5.89,5.11,2.09,5.62,1.19a12.49,12.49,0,0,0,.46-1.59l0-.09a27.58,27.58,0,0,0-.52-3.53,1.78,1.78,0,0,0-.12-.62c0-.16-.07-.35-.13-.65-.35-1.5,0-1.66-.81-2.74a3.94,3.94,0,0,0-2.44-1.26l-.51.16h0l0,0a1,1,0,0,0-.54.54"></path>
      <path class="cls-8" d="M74,84.37A1.59,1.59,0,0,0,75.53,84c.54-.7.43-1.43.17-1.55l-.44-.08c-.29,0-.32.69-.33.7Z"></path>
      <path class="cls-9" d="M73,83.79s.87.79,1.23.55.8-.47.8-.47l0-.24-1-.32-.56.19Z"></path>
      <path class="cls-10" d="M73,83.65c0,.1.12.36.4.27a4.1,4.1,0,0,0,.52-.23l.33-1c.06-.15.14-.19-.25-.06s-.45,0-.72.29a1.07,1.07,0,0,0-.28.69"></path>
      <path class="cls-11" d="M73.88,83.69A5.25,5.25,0,0,0,74,83c0-.31,0-.39.28-.43s.84-.33,1.11-.23.26.09.26.44a1.24,1.24,0,0,1-.39.87.68.68,0,0,1-.75.32,1.69,1.69,0,0,1-.64-.28"></path>
      <path class="cls-8" d="M63.28,78.24s2.39.13,3.24-1.67.26-3.36-.36-3.49a7.39,7.39,0,0,0-1,0c-.66,0-.37,1.67-.39,1.7Z"></path>
      <path class="cls-9" d="M60.93,77.42s2.3,1.32,3,.61,1.53-1.4,1.53-1.4l-.15-.52A7.25,7.25,0,0,0,63,75.87c-.36.19-1,.61-1.16.69Z"></path>
      <path class="cls-10" d="M60.74,77.14c.11.21.43.74,1,.4a8.38,8.38,0,0,0,1.05-.75s.18-1.93.26-2.28.22-.49-.58,0-1,.31-1.44,1a2.38,2.38,0,0,0-.28,1.65"></path>
      <path class="cls-11" d="M62.78,76.79a10.92,10.92,0,0,0-.05-1.58c-.09-.7-.16-.88.42-1.09s1.68-1.13,2.32-1,.6.07.77.85A2.85,2.85,0,0,1,65.83,76a1.59,1.59,0,0,1-1.52,1.07,4,4,0,0,1-1.53-.31"></path>
      <path class="cls-8" d="M53.32,86s1.86,1.41,3.54.43,2-2.58,1.62-3a6,6,0,0,0-.84-.53c-.55-.33-1.21,1.15-1.25,1.16Z"></path>
      <path class="cls-9" d="M51.86,84.05s1.15,2.33,2.08,2.14,2-.29,2-.29l.16-.51S54.82,84,54.41,84s-1.14,0-1.32-.07Z"></path>
      <path class="cls-10" d="M51.86,83.73c0,.23,0,.83.59.87a10.13,10.13,0,0,0,1.26,0l1.46-1.71c.25-.24.45-.27-.47-.32s-1-.27-1.7,0a2.39,2.39,0,0,0-1.14,1.19"></path>
      <path class="cls-11" d="M53.71,84.57a10.69,10.69,0,0,0,.83-1.32c.3-.61.35-.79.93-.64s2,0,2.44.44.45.38.17,1.1a2.78,2.78,0,0,1-1.49,1.47,1.54,1.54,0,0,1-1.81,0,4.06,4.06,0,0,1-1.07-1.09"></path>
      <path class="cls-8" d="M49,79.57a2.67,2.67,0,0,0,.1-2.73c-.86-1.21-2.11-1.39-2.41-1l-.35.67c-.22.44,1,.85,1,.88Z"></path>
      <path class="cls-9" d="M47.63,80.81s1.7-1,1.49-1.73a15.08,15.08,0,0,1-.35-1.51l-.4-.09s-1,1.08-1,1.4,0,.87,0,1Z"></path>
      <path class="cls-10" d="M47.39,80.83c.18,0,.63,0,.62-.5a7.72,7.72,0,0,0-.11-1l-1.4-1c-.2-.18-.23-.32-.21.38s-.15.74.12,1.29a1.79,1.79,0,0,0,1,.79"></path>
      <path class="cls-11" d="M47.9,79.37a7.93,7.93,0,0,0-1.06-.54c-.49-.2-.62-.22-.55-.68s-.13-1.51.17-1.89.26-.37.84-.2a2.16,2.16,0,0,1,1.21,1,1.19,1.19,0,0,1,.15,1.38,3,3,0,0,1-.76.89"></path>
      <path class="cls-8" d="M40.56,81.58a1.15,1.15,0,0,0,.38-1.11c-.2-.61-.69-.85-.86-.74l-.23.23.29.49Z"></path>
      <path class="cls-9" d="M39.82,81.92s.83-.21.84-.53,0-.67,0-.67l-.15-.09-.58.45-.12.43Z"></path>
      <path class="cls-10" d="M39.71,81.9l.33-.13.08-.41-.46-.6c-.06-.09,0-.16-.13.13s-.16.29-.12.55a.81.81,0,0,0,.3.46"></path>
      <path class="cls-11" d="M40.12,81.36,39.75,81l-.15-.35.32-.76.37,0a.92.92,0,0,1,.37.58.5.5,0,0,1-.12.59Z"></path>
      <path class="cls-8" d="M38,86.26s1.64-2.64.13-4.73-3.65-2.39-4.18-1.77a8.24,8.24,0,0,0-.6,1.17c-.37.77,1.66,1.45,1.69,1.5Z"></path>
      <path class="cls-9" d="M35.56,88.41s2.94-1.8,2.56-3-.63-2.61-.63-2.61l-.69-.15s-1.69,1.88-1.69,2.42.08,1.52.06,1.75Z"></path>
      <path class="cls-10" d="M35.13,88.45c.31,0,1.1,0,1.07-.87A12.17,12.17,0,0,0,36,85.92s-2.09-1.42-2.44-1.72-.41-.56-.36.65-.25,1.29.21,2.25a3.15,3.15,0,0,0,1.71,1.35"></path>
      <path class="cls-11" d="M36,85.91A14.22,14.22,0,0,0,34.17,85c-.85-.33-1.08-.36-1-1.15s-.23-2.61.29-3.28.45-.64,1.44-.35A3.69,3.69,0,0,1,37.05,82a2.07,2.07,0,0,1,.27,2.39A5.23,5.23,0,0,1,36,85.91"></path>
      <polygon class="cls-12" points="0 16.62 57.69 40.72 110.12 18.49 57.69 0 0 16.62"></polygon>
      <path class="cls-13" d="M55.86,38.4s-3.32-1.18-4.72-1.72-4.23.38-4.5,2.41,1,8,6,9.76,6.06.85,7.13.8,2.19-2,4-1.88,2,.27,2.84.06,3.86-.65,4.13-3.54-1.14-8.21-7.88-7.13C59.56,37.68,58.91,39.79,55.86,38.4Z"></path>
      <ellipse class="cls-14" cx="64.14" cy="42.25" rx="0.88" ry="0.43"></ellipse>
      <ellipse class="cls-14" cx="58.73" cy="45.17" rx="1.1" ry="0.46"></ellipse>
      <ellipse class="cls-14" cx="52.43" cy="42.53" rx="1.13" ry="0.7"></ellipse>
      <path class="cls-15" d="M62.82,22.63a.45.45,0,0,1-.16,0c-4.72-2-2.92-6.61-1.95-9.1l.07-.17A13,13,0,0,0,61.7,8.8a.44.44,0,0,1,.42-.44.42.42,0,0,1,.44.42,13.83,13.83,0,0,1-1,4.86l-.07.17c-1.3,3.34-2.17,6.47,1.48,8a.43.43,0,0,1,.23.56A.44.44,0,0,1,62.82,22.63Z"></path>
      <path class="cls-15" d="M61.88,2.52s-3.33,2.95.32,6.86C62.2,9.38,65.41,6.48,61.88,2.52Z"></path>
      <path class="cls-8" d="M60.94,25a1.27,1.27,0,0,0-1.2-.44c-.66.21-.93.73-.81.92a1.79,1.79,0,0,0,.24.26c.17.16.52-.3.54-.31Z"></path>
      <path class="cls-16" d="M61.28,25.77s-.2-.91-.55-.92-.72-.06-.72-.06l-.1.16s.34.59.48.64.39.11.45.14S61.28,25.77,61.28,25.77Z"></path>
      <path class="cls-10" d="M61.26,25.88c0-.08.08-.29-.13-.35a3,3,0,0,0-.45-.1s-.54.42-.65.48-.17.06.14.15.31.18.6.14A.88.88,0,0,0,61.26,25.88Z"></path>
      <path class="cls-11" d="M60.68,25.43a3.7,3.7,0,0,0-.39.4c-.16.18-.19.24-.38.14s-.69-.16-.82-.35-.12-.17,0-.4a1,1,0,0,1,.64-.39.55.55,0,0,1,.63.14A1.32,1.32,0,0,1,60.68,25.43Z"></path>
      <path class="cls-8" d="M43.93,18.78a1.84,1.84,0,0,0-1.86-.26c-.89.5-1.1,1.33-.88,1.57a4.45,4.45,0,0,0,.43.29c.29.18.65-.59.67-.6Z"></path>
      <path class="cls-16" d="M44.67,19.83s-.57-1.24-1.07-1.15-1.06.13-1.06.13l-.09.27s.67.75.88.77.6,0,.69.06A4.6,4.6,0,0,0,44.67,19.83Z"></path>
      <path class="cls-10" d="M44.67,20c0-.12,0-.44-.3-.46a4.17,4.17,0,0,0-.66,0s-.65.75-.79.88-.24.14.24.17.5.16.9,0A1.24,1.24,0,0,0,44.67,20Z"></path>
      <path class="cls-11" d="M43.71,19.54a5.67,5.67,0,0,0-.45.68c-.17.32-.2.41-.5.33s-1,0-1.28-.26-.23-.21-.07-.58A1.47,1.47,0,0,1,42.2,19a.84.84,0,0,1,1,0A2.07,2.07,0,0,1,43.71,19.54Z"></path>
      <path class="cls-8" d="M55.94,16.33s-3.83-1.91-6.5.42-2.81,5.33-1.89,6a14,14,0,0,0,1.67.67c1.11.4,1.79-2.47,1.86-2.52S55.94,16.33,55.94,16.33Z"></path>
      <path class="cls-16" d="M59.21,19.35s-2.84-3.81-4.46-3.14-3.51,1.21-3.51,1.21l-.1,1s2.79,2.08,3.53,2,2.07-.31,2.4-.31A17.8,17.8,0,0,0,59.21,19.35Z"></path>
      <path class="cls-10" d="M59.32,19.93c0-.43-.19-1.51-1.34-1.36a16.68,16.68,0,0,0-2.25.48s-1.68,3-2,3.56-.71.64,1,.42,1.8.18,3.06-.58A4.29,4.29,0,0,0,59.32,19.93Z"></path>
      <path class="cls-11" d="M55.73,19.05a20.32,20.32,0,0,0-1,2.64c-.34,1.21-.36,1.54-1.45,1.48s-3.56.65-4.54,0-.94-.53-.67-1.93.92-2.06,2.18-3.14a2.83,2.83,0,0,1,3.24-.68A7.19,7.19,0,0,1,55.73,19.05Z"></path>
      <path class="cls-8" d="M70.67,17.55s-2.2-3-5.2-2.26-4.29,3-3.84,3.87a12.35,12.35,0,0,0,1,1.19c.7.76,2.37-1.2,2.44-1.21S70.67,17.55,70.67,17.55Z"></path>
      <path class="cls-16" d="M72,21.19s-.68-4.08-2.2-4.2-3.2-.46-3.2-.46l-.46.7s1.33,2.72,1.93,3,1.72.59,2,.72A15.4,15.4,0,0,0,72,21.19Z"></path>
      <path class="cls-10" d="M71.86,21.68c.14-.34.45-1.24-.5-1.58a14.58,14.58,0,0,0-1.93-.53s-2.51,1.69-3,1.95-.81.2.56.7,1.33.85,2.6.76A3.77,3.77,0,0,0,71.86,21.68Z"></path>
      <path class="cls-11" d="M69.43,19.57a16,16,0,0,0-1.86,1.63c-.75.8-.9,1.05-1.72.57s-3-.91-3.52-1.79-.52-.78.25-1.76a4.46,4.46,0,0,1,2.93-1.56,2.49,2.49,0,0,1,2.78.76A6.36,6.36,0,0,1,69.43,19.57Z"></path>
      <path class="cls-8" d="M60.42,19.11s-3.17-2.45-6-.79-3.54,4.38-2.81,5.14a11.29,11.29,0,0,0,1.41.91c.94.58,2.09-1.94,2.16-2S60.42,19.11,60.42,19.11Z"></path>
      <path class="cls-16" d="M62.87,22.47s-1.92-4-3.52-3.68-3.44.47-3.44.47l-.27.86s2.19,2.41,2.88,2.49,1.95.09,2.25.15A16.38,16.38,0,0,0,62.87,22.47Z"></path>
      <path class="cls-10" d="M62.87,23c0-.4.09-1.42-1-1.49a15.65,15.65,0,0,0-2.15,0s-2.08,2.49-2.52,2.9-.77.46.79.56,1.62.48,2.91,0A4,4,0,0,0,62.87,23Z"></path>
      <path class="cls-11" d="M59.73,21.56a18.56,18.56,0,0,0-1.44,2.24c-.53,1-.61,1.34-1.6,1.09s-3.38-.05-4.17-.8-.76-.65-.26-1.89a4.82,4.82,0,0,1,2.56-2.48,2.66,2.66,0,0,1,3.1,0A6.87,6.87,0,0,1,59.73,21.56Z"></path>
      <path class="cls-8" d="M76.9,24.66a1.92,1.92,0,0,0,1.76-.87c.47-1,.16-1.8-.17-1.88a3.37,3.37,0,0,0-.54,0c-.35,0-.21.89-.23.91Z"></path>
      <path class="cls-16" d="M75.64,24.2s1.23.73,1.6.35.84-.74.84-.74L78,23.53a4,4,0,0,0-1.22-.15c-.19.11-.54.33-.63.36A5.09,5.09,0,0,0,75.64,24.2Z"></path>
      <path class="cls-10" d="M75.55,24.05c.06.11.22.4.52.22a4.38,4.38,0,0,0,.58-.39s.11-1,.15-1.23.13-.26-.31,0-.52.16-.78.51A1.31,1.31,0,0,0,75.55,24.05Z"></path>
      <path class="cls-11" d="M76.65,23.88a7.05,7.05,0,0,0,0-.86c0-.37-.08-.46.23-.57s.92-.6,1.26-.54.32,0,.41.46a1.6,1.6,0,0,1-.24,1.13.86.86,0,0,1-.82.56A2.22,2.22,0,0,1,76.65,23.88Z"></path>
      <path class="cls-8" d="M34.69,26.86A1.92,1.92,0,0,0,36.45,26c.47-.95.16-1.8-.17-1.87a3.21,3.21,0,0,0-.54,0c-.35,0-.21.9-.23.91Z"></path>
      <path class="cls-16" d="M33.43,26.4s1.23.73,1.6.36a10.73,10.73,0,0,1,.84-.74l-.08-.28a4,4,0,0,0-1.22-.16c-.19.11-.54.33-.63.37A4.13,4.13,0,0,0,33.43,26.4Z"></path>
      <path class="cls-10" d="M33.34,26.25c.06.11.22.4.53.22a4.71,4.71,0,0,0,.57-.39s.11-1,.15-1.22.13-.26-.31,0-.52.16-.78.51A1.31,1.31,0,0,0,33.34,26.25Z"></path>
      <path class="cls-11" d="M34.44,26.08a6.89,6.89,0,0,0,0-.85c0-.38-.08-.47.23-.58s.92-.59,1.26-.53.32,0,.41.45a1.6,1.6,0,0,1-.24,1.13.86.86,0,0,1-.82.56A2.28,2.28,0,0,1,34.44,26.08Z"></path>
      <path class="cls-8" d="M46.75,25.34a2.46,2.46,0,0,0,2.31-.95c.69-1.18.37-2.28-.05-2.4a3.4,3.4,0,0,0-.69,0c-.45,0-.35,1.11-.36,1.14S46.75,25.34,46.75,25.34Z"></path>
      <path class="cls-16" d="M45.19,24.64s1.5,1,2,.6,1.13-.87,1.13-.87L48.24,24a4.83,4.83,0,0,0-1.53-.29c-.26.11-.71.36-.83.4A6,6,0,0,0,45.19,24.64Z"></path>
      <path class="cls-10" d="M45.08,24.45a.47.47,0,0,0,.65.33,6.28,6.28,0,0,0,.76-.46s.24-1.31.31-1.54.18-.32-.4,0-.67.16-1,.59A1.68,1.68,0,0,0,45.08,24.45Z"></path>
      <path class="cls-11" d="M46.49,24.32a7.46,7.46,0,0,0,.06-1.08c0-.48-.06-.61.35-.72s1.21-.67,1.64-.57.41.08.48.62a2,2,0,0,1-.4,1.41,1.11,1.11,0,0,1-1.1.65A2.94,2.94,0,0,1,46.49,24.32Z"></path>
      <path class="cls-8" d="M55.55,23.63A1.57,1.57,0,0,1,57,23.41c.7.32.88.89.72,1.05a2.12,2.12,0,0,1-.33.21c-.22.13-.52-.39-.53-.39Z"></path>
      <path class="cls-16" d="M55,24.36s.41-.86.8-.81a7.22,7.22,0,0,0,.82.07l.07.18s-.49.53-.66.55l-.53,0C55.43,24.41,55,24.36,55,24.36Z"></path>
      <path class="cls-10" d="M55,24.47a.25.25,0,0,1,.22-.32,5.17,5.17,0,0,1,.52,0l.62.59c.11.08.19.08-.18.12s-.38.12-.69,0A1,1,0,0,1,55,24.47Z"></path>
      <path class="cls-11" d="M55.74,24.14a4,4,0,0,1,.36.46c.14.21.16.27.39.21s.81,0,1-.2.17-.15,0-.4-.31-.35-.64-.5a.7.7,0,0,0-.73,0A1.45,1.45,0,0,0,55.74,24.14Z"></path>
      <path class="cls-8" d="M68.47,20s-3-2.2-5.61-.62-3.18,4.12-2.5,4.81a10.74,10.74,0,0,0,1.33.82c.88.51,1.89-1.83,2-1.86S68.47,20,68.47,20Z"></path>
      <path class="cls-16" d="M70.8,23.06S69,19.39,67.47,19.72s-3.17.5-3.17.5l-.24.81s2.08,2.18,2.72,2.24,1.8.05,2.08.1A15.23,15.23,0,0,0,70.8,23.06Z"></path>
      <path class="cls-10" d="M70.81,23.57c0-.37.06-1.32-.94-1.36a13.36,13.36,0,0,0-2,.07S66,24.62,65.6,25s-.7.44.75.5,1.5.42,2.69,0A3.72,3.72,0,0,0,70.81,23.57Z"></path>
      <path class="cls-11" d="M67.88,22.28a17.37,17.37,0,0,0-1.29,2.1c-.47,1-.54,1.25-1.46,1s-3.13,0-3.87-.66S60.54,24.17,61,23a4.42,4.42,0,0,1,2.32-2.35,2.48,2.48,0,0,1,2.87-.1A6.49,6.49,0,0,1,67.88,22.28Z"></path>
      <path class="cls-8" d="M52.59,23.44S50.15,23,49,24.72s-.69,3.42-.08,3.63a10.21,10.21,0,0,0,1,.1c.68.05.59-1.66.62-1.7S52.59,23.44,52.59,23.44Z"></path>
      <path class="cls-16" d="M54.89,24.59s-2.19-1.66-3-1a19.85,19.85,0,0,1-1.76,1.24l.1.55a7.38,7.38,0,0,0,2.29.55c.4-.15,1.1-.5,1.28-.56A9,9,0,0,0,54.89,24.59Z"></path>
      <path class="cls-10" d="M55.05,24.89c-.09-.23-.36-.81-1-.54a9.84,9.84,0,0,0-1.17.63s-.44,2-.56,2.31-.3.47.59.08,1-.19,1.61-.82A2.52,2.52,0,0,0,55.05,24.89Z"></path>
      <path class="cls-11" d="M52.91,25a11.39,11.39,0,0,0-.16,1.64c0,.72,0,.91-.57,1.06s-1.87.93-2.51.74-.61-.14-.68-1a2.91,2.91,0,0,1,.7-2.1,1.65,1.65,0,0,1,1.69-.9A4.28,4.28,0,0,1,52.91,25Z"></path>
    </g>
  </g>
</svg>
