<?xml version="1.0" encoding="UTF-8"?>
<svg xmlns="http://www.w3.org/2000/svg" xmlns:xlink="http://www.w3.org/1999/xlink" viewBox="0 0 106.16 185.64">
  <defs>
    <style>.cls-1{fill:#63411e;}.cls-2{fill:#956d4b;}.cls-3{fill:#44281c;}.cls-4{fill:#714d31;}.cls-5{fill:#613922;}.cls-6{fill:#7f5637;}.cls-7{fill:#a07850;}.cls-8{fill:url(#Безымянный_градиент_26);}.cls-9{fill:url(#Безымянный_градиент_7);}.cls-10{fill:#c5ba9f;}.cls-11{fill:#d7b389;}.cls-12{fill:#a96f30;}.cls-13{fill:#5e3e1a;}.cls-14{fill:#809870;}.cls-15{fill:#668050;}</style>
    <radialGradient id="Безымянный_градиент_26" cx="47.79" cy="167.55" r="54.35" gradientTransform="translate(97.06 259.91) rotate(179.09) scale(1 0.56)" gradientUnits="userSpaceOnUse">
      <stop offset="0.02" stop-color="#a07450"></stop>
      <stop offset="0.27" stop-color="#9a6d4a"></stop>
      <stop offset="0.62" stop-color="#8a5b39"></stop>
      <stop offset="1" stop-color="#72401f"></stop>
    </radialGradient>
    <linearGradient id="Безымянный_градиент_7" x1="33.91" y1="279.48" x2="55.06" y2="144.03" gradientUnits="userSpaceOnUse">
      <stop offset="0.38" stop-color="#a17551"></stop>
      <stop offset="0.91" stop-color="#794826"></stop>
      <stop offset="1" stop-color="#72401f"></stop>
    </linearGradient>
  </defs>
  <g id="Слой_2" data-name="Слой 2">
    <g id="Слой_1-2" data-name="Слой 1">
      <path class="cls-1" d="M3.09,100.66,100,102.23s.91-17,0-19.84c-1.32-4.2-8.72-16.58-45.38-17.48S4.53,75.51,2.48,81.34,3.09,100.66,3.09,100.66Z"></path>
      <polygon class="cls-2" points="8.29 140.82 3.09 105.84 98.7 105.84 95 140.57 8.29 140.82"></polygon>
      <path class="cls-3" d="M39.12,135.78a7.6,7.6,0,0,0-2.47-1.45h0s-3.28-1-5.07,1.23-1.48,4.59-.67,5a8.87,8.87,0,0,0,1.41.3s.05,0,.09,0a24.11,24.11,0,0,0,3-.69A1.37,1.37,0,0,0,36,140l.57-.16c1.28-.4,1.44-.11,2.33-.88a3.5,3.5,0,0,0,.95-2.22,2.68,2.68,0,0,0-.18-.43h0l0,0A.87.87,0,0,0,39.12,135.78Z"></path>
      <path class="cls-3" d="M21.5,138.67A9.4,9.4,0,0,0,18,139.82v0s-3.73,2.34-3.12,5.94,3.18,5.32,4.24,4.86a12.22,12.22,0,0,0,1.49-1.11s0-.08,0-.11c.79-.92,1.38-2.75,1.91-3.52a1.89,1.89,0,0,0,.31-.63c.09-.17.18-.36.33-.68.7-1.58,1.11-1.49,1.12-3A4.41,4.41,0,0,0,23,138.76a2.9,2.9,0,0,0-.57-.19v0h-.07A1.11,1.11,0,0,0,21.5,138.67Z"></path>
      <path class="cls-3" d="M37.29,145a3,3,0,0,0-1.09-.27h0a2,2,0,0,0-1.77,1c-.43,1,0,1.89.3,2a4.72,4.72,0,0,0,.57-.05s0,0,0,0a11.38,11.38,0,0,0,1.07-.6l.18-.11.19-.13c.44-.29.53-.2.78-.59a1.36,1.36,0,0,0,.11-.94l-.12-.14h0A.36.36,0,0,0,37.29,145Z"></path>
      <path class="cls-3" d="M78.17,136.64a1.88,1.88,0,0,0-.1-.77h0s-.33-.88-1.1-.9-1.24.44-1.19.68A2.18,2.18,0,0,0,76,136h0a7.12,7.12,0,0,0,.65.54.29.29,0,0,0,.12.09l.13.1c.3.21.26.29.57.36a1,1,0,0,0,.64-.16l.06-.11h0v0A.27.27,0,0,0,78.17,136.64Z"></path>
      <path class="cls-3" d="M89.82,150.69a9.53,9.53,0,0,0-1.65-3.31h0s-2.87-3.39-6.38-2.25-4.86,3.94-4.24,4.93a12.48,12.48,0,0,0,1.32,1.32s.09,0,.12,0c1,.66,2.94,1,3.79,1.4a2,2,0,0,0,.67.22c.19.06.39.13.73.22,1.68.48,1.65.9,3.16.69A4.45,4.45,0,0,0,90,152.18a2.49,2.49,0,0,0,.11-.59h0l0-.07A1.09,1.09,0,0,0,89.82,150.69Z"></path>
      <path class="cls-3" d="M67.15,139.16a7.06,7.06,0,0,0-1.62,2.33h0s-1.21,3.18.84,5.12,4.44,1.81,4.88,1a10.62,10.62,0,0,0,.4-1.38s0-.05,0-.08a24.68,24.68,0,0,0-.46-3.07,1.38,1.38,0,0,0-.1-.53c0-.15-.06-.31-.12-.57-.3-1.3,0-1.44-.7-2.38a3.43,3.43,0,0,0-2.12-1.1,3.85,3.85,0,0,0-.44.15h0l0,0A.84.84,0,0,0,67.15,139.16Z"></path>
      <path class="cls-4" d="M67.31,162.93a1.36,1.36,0,0,0,1.36-.36c.47-.61.37-1.25.15-1.34a2.25,2.25,0,0,0-.38-.08c-.26,0-.28.6-.29.61Z"></path>
      <path class="cls-5" d="M66.49,162.43s.76.68,1.07.48.7-.41.7-.41l0-.2s-.68-.33-.83-.28-.43.15-.5.16A2.9,2.9,0,0,0,66.49,162.43Z"></path>
      <path class="cls-6" d="M66.44,162.31c0,.09.11.31.34.23a4,4,0,0,0,.46-.19s.23-.72.28-.84.13-.17-.21,0-.39,0-.63.25A1,1,0,0,0,66.44,162.31Z"></path>
      <path class="cls-7" d="M67.24,162.35a4.06,4.06,0,0,0,.11-.61c0-.27,0-.34.25-.37s.72-.29,1-.2.22.08.22.38a1.11,1.11,0,0,1-.33.76.63.63,0,0,1-.66.28A1.52,1.52,0,0,1,67.24,162.35Z"></path>
      <path class="cls-4" d="M58,157.61s2.08.11,2.82-1.45.22-2.92-.31-3a5.61,5.61,0,0,0-.88,0c-.57,0-.32,1.45-.34,1.48S58,157.61,58,157.61Z"></path>
      <path class="cls-5" d="M56,156.9s2,1.14,2.59.53,1.34-1.21,1.34-1.21l-.14-.46a6.4,6.4,0,0,0-2-.21c-.32.17-.86.54-1,.6A7.88,7.88,0,0,0,56,156.9Z"></path>
      <path class="cls-6" d="M55.83,156.66c.1.18.38.63.86.35a8.34,8.34,0,0,0,.91-.65s.16-1.68.22-2,.2-.42-.5,0-.84.27-1.25.85A2.06,2.06,0,0,0,55.83,156.66Z"></path>
      <path class="cls-7" d="M57.6,156.36a10.8,10.8,0,0,0,0-1.38c-.08-.61-.14-.76.36-.95s1.46-1,2-.89.52.06.67.74a2.48,2.48,0,0,1-.36,1.82,1.41,1.41,0,0,1-1.32.93A3.68,3.68,0,0,1,57.6,156.36Z"></path>
      <path class="cls-4" d="M49.38,164.36a3,3,0,0,0,3.08.37c1.45-.85,1.77-2.24,1.4-2.62a5.38,5.38,0,0,0-.72-.46c-.48-.29-1,1-1.09,1Z"></path>
      <path class="cls-5" d="M48.12,162.66s1,2,1.81,1.85,1.74-.25,1.74-.25l.14-.44s-1.13-1.22-1.48-1.25-1,0-1.14-.07A9.21,9.21,0,0,0,48.12,162.66Z"></path>
      <path class="cls-6" d="M48.12,162.38c0,.2,0,.72.51.75a8.48,8.48,0,0,0,1.09,0s1.05-1.28,1.27-1.49.39-.23-.41-.28-.82-.24-1.47,0A2,2,0,0,0,48.12,162.38Z"></path>
      <path class="cls-7" d="M49.72,163.11a8.28,8.28,0,0,0,.72-1.15c.27-.53.31-.68.81-.56s1.72,0,2.12.39.39.33.14,1A2.42,2.42,0,0,1,52.22,164a1.33,1.33,0,0,1-1.57,0A3.54,3.54,0,0,1,49.72,163.11Z"></path>
      <path class="cls-4" d="M45.66,158.77a2.32,2.32,0,0,0,.08-2.37c-.75-1.05-1.83-1.21-2.09-.9a3.31,3.31,0,0,0-.31.58c-.18.39.83.74.84.76S45.66,158.77,45.66,158.77Z"></path>
      <path class="cls-5" d="M44.45,159.84s1.48-.89,1.29-1.5-.31-1.31-.31-1.31l-.34-.08s-.85.94-.86,1.21,0,.76,0,.88A6,6,0,0,0,44.45,159.84Z"></path>
      <path class="cls-6" d="M44.23,159.86c.16,0,.56,0,.54-.43a5.9,5.9,0,0,0-.09-.84s-1-.71-1.21-.87-.21-.28-.19.33-.13.65.1,1.13A1.58,1.58,0,0,0,44.23,159.86Z"></path>
      <path class="cls-7" d="M44.68,158.59a7.15,7.15,0,0,0-.92-.47c-.42-.17-.54-.19-.48-.58s-.11-1.31.15-1.65.23-.31.73-.17a1.85,1.85,0,0,1,1.05.9,1,1,0,0,1,.13,1.2A2.53,2.53,0,0,1,44.68,158.59Z"></path>
      <path class="cls-4" d="M38.3,160.51a1,1,0,0,0,.34-1c-.17-.53-.6-.73-.75-.64a2.12,2.12,0,0,0-.2.21c-.13.13.25.41.25.42S38.3,160.51,38.3,160.51Z"></path>
      <path class="cls-5" d="M37.67,160.8s.72-.18.72-.45,0-.58,0-.58l-.13-.08s-.47.28-.51.39-.08.32-.1.37A2.3,2.3,0,0,0,37.67,160.8Z"></path>
      <path class="cls-6" d="M37.57,160.78c.07,0,.24.07.28-.11a2.34,2.34,0,0,0,.07-.35s-.34-.43-.39-.52-.05-.14-.12.11-.13.25-.1.48A.66.66,0,0,0,37.57,160.78Z"></path>
      <path class="cls-7" d="M37.92,160.32a2.85,2.85,0,0,0-.32-.32c-.15-.12-.2-.14-.12-.3s.12-.56.27-.66.14-.1.32,0a.8.8,0,0,1,.32.51.44.44,0,0,1-.1.51A1.14,1.14,0,0,1,37.92,160.32Z"></path>
      <path class="cls-4" d="M36.05,164.57s1.42-2.29.12-4.1-3.18-2.08-3.64-1.54a8.32,8.32,0,0,0-.52,1c-.32.67,1.45,1.27,1.47,1.31S36.05,164.57,36.05,164.57Z"></path>
      <path class="cls-5" d="M34,166.44s2.55-1.56,2.23-2.61-.55-2.27-.55-2.27l-.6-.12s-1.46,1.63-1.47,2.09.07,1.32.06,1.52A9.91,9.91,0,0,0,34,166.44Z"></path>
      <path class="cls-6" d="M33.59,166.48c.27,0,1,0,.94-.76a10.79,10.79,0,0,0-.17-1.44s-1.81-1.23-2.12-1.5-.35-.48-.32.57-.21,1.12.19,2A2.72,2.72,0,0,0,33.59,166.48Z"></path>
      <path class="cls-7" d="M34.36,164.28a12.11,12.11,0,0,0-1.6-.82c-.73-.28-.94-.31-.84-1s-.2-2.26.25-2.84.39-.56,1.25-.31a3.26,3.26,0,0,1,1.84,1.55,1.81,1.81,0,0,1,.24,2.07A4.72,4.72,0,0,1,34.36,164.28Z"></path>
      <path class="cls-8" d="M9.8,166.44,8.29,140.82s43-22.09,86.71-.25l-1.68,25.87Z"></path>
      <ellipse class="cls-9" cx="51.56" cy="166.44" rx="41.76" ry="19.2"></ellipse>
      <path class="cls-4" d="M70.56,162.77a1.36,1.36,0,0,0,1.36-.36c.47-.6.37-1.24.15-1.34a2.32,2.32,0,0,0-.39-.07c-.25-.05-.27.59-.28.6Z"></path>
      <path class="cls-5" d="M69.74,162.27s.76.69,1.07.48a8,8,0,0,1,.7-.4l0-.21s-.68-.33-.83-.28-.43.15-.5.16A4.23,4.23,0,0,0,69.74,162.27Z"></path>
      <path class="cls-6" d="M69.69,162.15c0,.09.1.31.34.23a4,4,0,0,0,.46-.19s.23-.72.28-.84.13-.17-.22,0-.38,0-.62.25A1,1,0,0,0,69.69,162.15Z"></path>
      <path class="cls-7" d="M70.49,162.19a4.06,4.06,0,0,0,.11-.61c0-.27,0-.34.25-.37s.72-.29,1-.19.22.07.22.38a1.1,1.1,0,0,1-.33.75.63.63,0,0,1-.66.28A1.52,1.52,0,0,1,70.49,162.19Z"></path>
      <path class="cls-4" d="M61.28,157.45s2.08.11,2.82-1.45.22-2.91-.31-3a5.43,5.43,0,0,0-.88,0c-.57,0-.32,1.45-.34,1.48S61.28,157.45,61.28,157.45Z"></path>
      <path class="cls-5" d="M59.24,156.74s2,1.14,2.59.53,1.33-1.21,1.33-1.21l-.13-.45a6.36,6.36,0,0,0-2-.22c-.32.17-.86.54-1,.6A9.2,9.2,0,0,0,59.24,156.74Z"></path>
      <path class="cls-6" d="M59.08,156.5c.1.18.38.64.86.35a8.34,8.34,0,0,0,.91-.65s.16-1.68.22-2,.2-.42-.5,0-.84.27-1.25.85A2.06,2.06,0,0,0,59.08,156.5Z"></path>
      <path class="cls-7" d="M60.85,156.2a9.76,9.76,0,0,0-.05-1.38c-.07-.61-.13-.76.37-.95s1.46-1,2-.88.52,0,.67.73a2.53,2.53,0,0,1-.37,1.82,1.39,1.39,0,0,1-1.31.93A3.68,3.68,0,0,1,60.85,156.2Z"></path>
      <path class="cls-4" d="M52.63,164.2s1.62,1.23,3.08.37,1.77-2.24,1.4-2.62a5.38,5.38,0,0,0-.72-.46c-.48-.29-1,1-1.09,1Z"></path>
      <path class="cls-5" d="M51.37,162.5s1,2,1.81,1.86,1.74-.26,1.74-.26l.14-.44s-1.13-1.21-1.48-1.25-1,0-1.14-.07A9.21,9.21,0,0,0,51.37,162.5Z"></path>
      <path class="cls-6" d="M51.37,162.22c0,.2,0,.72.51.75A8.57,8.57,0,0,0,53,163s1.05-1.28,1.27-1.49.39-.23-.41-.28-.82-.23-1.48,0A2,2,0,0,0,51.37,162.22Z"></path>
      <path class="cls-7" d="M53,163a9.88,9.88,0,0,0,.72-1.14c.27-.54.31-.69.81-.57s1.72,0,2.12.39.39.33.14,1a2.39,2.39,0,0,1-1.29,1.27,1.35,1.35,0,0,1-1.57,0A3.67,3.67,0,0,1,53,163Z"></path>
      <path class="cls-4" d="M48.91,158.61a2.32,2.32,0,0,0,.08-2.37c-.75-1.05-1.83-1.21-2.1-.9a6,6,0,0,0-.3.58c-.19.39.83.74.84.77Z"></path>
      <path class="cls-5" d="M47.7,159.68s1.47-.89,1.29-1.5-.31-1.31-.31-1.31l-.34-.07s-.86.93-.86,1.2,0,.76,0,.88A6,6,0,0,0,47.7,159.68Z"></path>
      <path class="cls-6" d="M47.48,159.7c.16,0,.56,0,.54-.43a5.9,5.9,0,0,0-.09-.84s-1-.71-1.21-.86-.21-.29-.19.32-.13.65.1,1.13A1.58,1.58,0,0,0,47.48,159.7Z"></path>
      <path class="cls-7" d="M47.93,158.43A7.15,7.15,0,0,0,47,158c-.42-.17-.54-.19-.48-.58s-.11-1.31.15-1.64.23-.32.73-.17a1.8,1.8,0,0,1,1.05.89,1,1,0,0,1,.13,1.2A2.53,2.53,0,0,1,47.93,158.43Z"></path>
      <path class="cls-4" d="M41.55,160.36a1,1,0,0,0,.34-1c-.18-.54-.6-.74-.75-.64a1.24,1.24,0,0,0-.2.2c-.13.13.25.41.25.42S41.55,160.36,41.55,160.36Z"></path>
      <path class="cls-5" d="M40.91,160.65s.73-.18.73-.46a5.09,5.09,0,0,1,0-.58l-.13-.08s-.47.28-.51.39-.08.32-.1.37A2.73,2.73,0,0,0,40.91,160.65Z"></path>
      <path class="cls-6" d="M40.82,160.63c.07,0,.23.06.28-.12a2.34,2.34,0,0,0,.07-.35s-.34-.43-.39-.52-.05-.14-.12.11-.14.26-.1.48A.7.7,0,0,0,40.82,160.63Z"></path>
      <path class="cls-7" d="M41.17,160.16a2.85,2.85,0,0,0-.32-.32c-.15-.12-.2-.14-.12-.3s.12-.55.27-.66.13-.1.32,0a.8.8,0,0,1,.32.51.43.43,0,0,1-.1.51A1.14,1.14,0,0,1,41.17,160.16Z"></path>
      <path class="cls-4" d="M39.3,164.41s1.42-2.29.12-4.1-3.18-2.07-3.64-1.54a8.32,8.32,0,0,0-.52,1c-.32.67,1.44,1.27,1.47,1.31S39.3,164.41,39.3,164.41Z"></path>
      <path class="cls-5" d="M37.21,166.28s2.55-1.56,2.23-2.61-.55-2.27-.55-2.27l-.6-.12s-1.46,1.63-1.47,2.09.07,1.32.06,1.52A9.91,9.91,0,0,0,37.21,166.28Z"></path>
      <path class="cls-6" d="M36.84,166.32c.27,0,1,0,.93-.76a9.9,9.9,0,0,0-.16-1.44s-1.81-1.23-2.12-1.49-.36-.49-.32.57-.21,1.11.19,2A2.72,2.72,0,0,0,36.84,166.32Z"></path>
      <path class="cls-7" d="M37.61,164.12a11.34,11.34,0,0,0-1.6-.81c-.74-.29-.94-.32-.84-1s-.2-2.27.25-2.85.39-.56,1.25-.3a3.2,3.2,0,0,1,1.84,1.54,1.8,1.8,0,0,1,.23,2.08A4.64,4.64,0,0,1,37.61,164.12Z"></path>
      <path class="cls-3" d="M23.64,126.72a7.55,7.55,0,0,0-2.46-1.45h0s-3.29-1-5.08,1.22-1.48,4.6-.67,5a10.68,10.68,0,0,0,1.42.3s.05,0,.08,0a25.53,25.53,0,0,0,3-.69,1.49,1.49,0,0,0,.53-.14l.56-.16c1.29-.4,1.45-.11,2.34-.89a3.43,3.43,0,0,0,.94-2.21,2,2,0,0,0-.18-.43h0l0,0A.87.87,0,0,0,23.64,126.72Z"></path>
      <path class="cls-3" d="M59.48,135.29a5,5,0,0,0-1.76.58h0s-1.88,1.18-1.57,3,1.6,2.68,2.13,2.45a6,6,0,0,0,.75-.56s0,0,0-.06a15.05,15.05,0,0,0,1-1.77.94.94,0,0,0,.16-.32c0-.09.09-.18.16-.34.36-.8.57-.75.57-1.52a2.26,2.26,0,0,0-.67-1.4l-.29-.1h0A.55.55,0,0,0,59.48,135.29Z"></path>
      <path class="cls-10" d="M53.7,113.11c.16,6.79.2,13.58.16,20.36s-.16,13.56-.4,20.32c0,.19-.13.33-.26.32a.31.31,0,0,1-.24-.33c-.05-6.76-.22-13.52-.47-20.27s-.58-13.5-1-20.22a1.45,1.45,0,0,1,1-1.63c.62-.07,1.16.54,1.22,1.36Z"></path>
      <path class="cls-10" d="M52.22,117.84a13.81,13.81,0,0,1-3.7,3.33A14.4,14.4,0,0,0,45,124.24a47.53,47.53,0,0,0-2.74,4.4l-2.67,4.55a.08.08,0,0,1-.12,0,.16.16,0,0,1,0-.15h0c.78-1.62,1.61-3.2,2.43-4.79a40.92,40.92,0,0,1,2.64-4.65,15.59,15.59,0,0,1,3.59-3.46,14.23,14.23,0,0,0,3.36-3.21v0a.42.42,0,0,1,.71,0,.83.83,0,0,1,0,.95Z"></path>
      <path class="cls-10" d="M52.9,117.91a9.15,9.15,0,0,1,3.76,2.21A15.48,15.48,0,0,1,59.52,124c.8,1.46,1.5,3,2.24,4.51l2.2,4.54a.13.13,0,0,1,0,.16s-.09,0-.12,0l-2.26-4.48c-.76-1.49-1.49-3-2.3-4.44a14.91,14.91,0,0,0-2.83-3.72,8.6,8.6,0,0,0-3.62-2,.34.34,0,0,1-.19-.39c0-.18.15-.29.29-.26Z"></path>
      <path class="cls-10" d="M53.11,126a5.26,5.26,0,0,1-.58,1.64c-.23.44-.48.83-.71,1.19-.45.7-.92,1.48-1.37,2.21l-2.74,4.46-1.37,2.22A17.29,17.29,0,0,0,45.12,140a29.59,29.59,0,0,0-1.47,5.33h0c0,.11-.11.17-.19.14a.21.21,0,0,1-.1-.24,30.15,30.15,0,0,1,1.34-5.53,19.08,19.08,0,0,1,1.2-2.44l1.31-2.3,2.61-4.59c.44-.76.86-1.53,1.32-2.29.22-.38.44-.75.63-1.13a3.86,3.86,0,0,0,.41-1.18v0c0-.35.29-.58.55-.51a.64.64,0,0,1,.38.73Z"></path>
      <path class="cls-10" d="M54.1,134.35a12.51,12.51,0,0,0,1.4,3.38c.58,1.07,1.14,2.19,1.64,3.35a41.85,41.85,0,0,1,2.41,7.32s0,.07,0,.08,0,0-.06,0a41.6,41.6,0,0,0-2.56-7.16c-.53-1.12-1.1-2.19-1.71-3.24a12.58,12.58,0,0,1-1.56-3.5.37.37,0,0,1,.16-.42c.13-.05.27,0,.31.22Z"></path>
      <path class="cls-10" d="M53.2,142.32a37.93,37.93,0,0,0-2.91,10.25h0c0,.09-.08.15-.15.13s-.11-.1-.1-.19a39.32,39.32,0,0,1,2.59-10.62h0a.29.29,0,0,1,.44-.18.54.54,0,0,1,.13.59Z"></path>
      <path class="cls-10" d="M57,140.84l.16,5.75a.11.11,0,0,1-.08.11s-.07,0-.08-.1l-.27-5.74a.18.18,0,0,1,.13-.19c.08,0,.14.07.14.17Z"></path>
      <path class="cls-10" d="M57.46,141.93a14.92,14.92,0,0,1,1.65,1.44,9.25,9.25,0,0,1,1.44,1.8.1.1,0,0,1,0,.13.05.05,0,0,1-.09,0A9.35,9.35,0,0,0,59,143.58a16.19,16.19,0,0,0-1.65-1.37.18.18,0,0,1-.05-.21c0-.08.1-.11.16-.07Z"></path>
      <path class="cls-10" d="M55.2,137.29l3.65,3a.1.1,0,0,1,0,.09s0,0-.07,0L55,137.67a.27.27,0,0,1-.06-.31.15.15,0,0,1,.22-.09h0Z"></path>
      <path class="cls-10" d="M60.89,126.86a13.54,13.54,0,0,1,.79,6c0,.06,0,.11-.09.1s-.08-.06-.08-.13a13,13,0,0,0-.8-5.89.16.16,0,0,1,0-.18.08.08,0,0,1,.13,0Z"></path>
      <path class="cls-10" d="M57.65,121.27c.71,2.72.74,5.59,1.43,8.26a0,0,0,0,1,0,.06.05.05,0,0,1,0,0c-.78-2.64-.91-5.55-1.68-8.13h0a.25.25,0,0,1,.09-.28c.09,0,.18,0,.21.12Z"></path>
      <path class="cls-10" d="M59.87,124.83a23.14,23.14,0,0,0,2.68,1,4.53,4.53,0,0,1,1.28.85,2.34,2.34,0,0,1,.8,1.56c0,.05,0,.09-.06.09a.07.07,0,0,1-.06-.07,2.19,2.19,0,0,0-.79-1.38,4.91,4.91,0,0,0-1.24-.77,17.81,17.81,0,0,1-2.7-1,.17.17,0,0,1-.06-.2c0-.08.09-.11.15-.08Z"></path>
      <path class="cls-10" d="M56.86,120.3a19.46,19.46,0,0,1,5.62,2.29.09.09,0,0,1,0,.1s0,.06-.07,0a19,19,0,0,0-5.63-1.91h0a.25.25,0,0,1-.16-.29c0-.15.11-.25.21-.23Z"></path>
      <path class="cls-10" d="M53.77,118.35a17.93,17.93,0,0,1,3.3-1.2,11.16,11.16,0,0,1,3.39-.43s0,0,0,.07,0,.06,0,.06a11.68,11.68,0,0,0-3.33.68A19.21,19.21,0,0,0,54,119c-.12.07-.27,0-.33-.17a.4.4,0,0,1,.13-.44Z"></path>
      <path class="cls-10" d="M58.47,120.93a13.24,13.24,0,0,1,2.28-1.68,9.77,9.77,0,0,1,1.22-.59,3.66,3.66,0,0,1,1.29-.29.12.12,0,0,1,.1.12.12.12,0,0,1-.1.13h0a3.63,3.63,0,0,0-1.23.3,8.29,8.29,0,0,0-1.19.6,12.59,12.59,0,0,0-2.22,1.68h0a.11.11,0,0,1-.18,0,.21.21,0,0,1,0-.23Z"></path>
      <path class="cls-10" d="M58.06,123.73A11.42,11.42,0,0,1,57,126.09a25,25,0,0,0-1.19,2.23s0,.05-.08,0a.11.11,0,0,1,0-.11c.33-.82.75-1.55,1.14-2.3a12.1,12.1,0,0,0,1-2.33h0c0-.09.1-.14.17-.1a.19.19,0,0,1,.08.23Z"></path>
      <path class="cls-10" d="M55.89,137.81a16.45,16.45,0,0,1,2-.57A8,8,0,0,1,60,137s.08,0,.08.11a.09.09,0,0,1-.08.1h0a8.89,8.89,0,0,0-2,.34,19.8,19.8,0,0,0-2,.66c-.08,0-.17,0-.19-.14a.21.21,0,0,1,.1-.25h0Z"></path>
      <path class="cls-10" d="M51.81,145.44a3.46,3.46,0,0,0-1.5,1.05c-.44.48-.79,1.11-1.21,1.67a.06.06,0,0,1-.09,0,.13.13,0,0,1,0-.12h0c.41-.54.74-1.19,1.17-1.74a13.07,13.07,0,0,1,1.42-1.46.21.21,0,0,1,.35.06.42.42,0,0,1,0,.48A.27.27,0,0,1,51.81,145.44Z"></path>
      <path class="cls-10" d="M50.63,150a2.14,2.14,0,0,0-.38.59,2.93,2.93,0,0,1-.43.65.07.07,0,0,1-.12,0,.13.13,0,0,1,0-.16,2.39,2.39,0,0,0,.35-.63,3,3,0,0,1,.41-.69h0a.11.11,0,0,1,.18,0,.25.25,0,0,1,0,.25Z"></path>
      <path class="cls-10" d="M51,148.21c0,1,.41,2.1.44,3.24a.07.07,0,0,1-.06.09s-.06,0-.06-.08c-.1-1.08-.53-2.05-.64-3.22,0-.12.05-.23.14-.24s.17.07.18.19v0Z"></path>
      <path class="cls-10" d="M45.92,138.45a7.59,7.59,0,0,0-.31,2.48,6.29,6.29,0,0,1-.2,1.37,5.21,5.21,0,0,1-.51,1.23.13.13,0,0,1-.21,0,.26.26,0,0,1,0-.27h0a4.78,4.78,0,0,0,.42-1.13,6.57,6.57,0,0,0,.14-1.26c0-.43,0-.88,0-1.34a4.93,4.93,0,0,1,.25-1.42h0c.07-.16.21-.23.34-.15a.4.4,0,0,1,.11.45Z"></path>
      <path class="cls-10" d="M48.53,134.08a18.22,18.22,0,0,0-.45,3.65c0,1.25,0,2.52-.11,3.79,0,.06,0,.1-.09.09s-.06-.05-.06-.11c0-1.25-.06-2.5-.07-3.78a19,19,0,0,1,.31-3.83c0-.17.17-.28.3-.23a.35.35,0,0,1,.18.4Z"></path>
      <path class="cls-10" d="M48.83,138.1a12.37,12.37,0,0,1,.27,3.38c0,1.12-.14,2.24-.18,3.35,0,.06,0,.11-.09.1a.09.09,0,0,1-.07-.11c0-1.13.12-2.24.14-3.35a12.19,12.19,0,0,0-.3-3.27.17.17,0,0,1,.08-.2c.06,0,.13,0,.15.1Z"></path>
      <path class="cls-10" d="M50.42,131.11c0,.71,0,1.42,0,2.12s.08,1.39.13,2.09.11,1.4.13,2.1,0,1.41,0,2.11c0,.07,0,.13-.1.12s-.09-.06-.09-.12c0-1.4-.14-2.78-.21-4.17,0-.7-.1-1.39-.2-2.08s-.22-1.37-.38-2.05a.54.54,0,0,1,.25-.62c.19-.08.4.06.46.33A1,1,0,0,1,50.42,131.11Z"></path>
      <path class="cls-10" d="M50.44,134.17a27.38,27.38,0,0,1-1.84,4.47c-.69,1.42-1.42,2.81-2,4.31,0,.05-.06.07-.1,0a.12.12,0,0,1,0-.12c.56-1.54,1.28-2.94,2-4.37a28.22,28.22,0,0,0,1.76-4.45c0-.1.1-.14.17-.11a.18.18,0,0,1,.08.22Z"></path>
      <path class="cls-10" d="M43,127.38c-.12.9-.16,1.84-.25,2.79a18.37,18.37,0,0,1-.49,2.78c0,.09-.09.14-.16.1a.18.18,0,0,1-.08-.2,17.83,17.83,0,0,0,.33-2.74c0-.92,0-1.86.12-2.83,0-.2.15-.34.29-.32a.35.35,0,0,1,.24.4Z"></path>
      <path class="cls-10" d="M44.84,124.31a29.78,29.78,0,0,0-5.8,5.52,0,0,0,0,1,0,0,0,0,0,0,1,0,0,32.35,32.35,0,0,1,5.51-6.2h0a.27.27,0,0,1,.44.13.51.51,0,0,1-.1.59Z"></path>
      <path class="cls-10" d="M48.4,120.83a29.67,29.67,0,0,1-.8,6.35,22.92,22.92,0,0,1-2.11,5.75c0,.07-.1.08-.15,0a.16.16,0,0,1,0-.2A23,23,0,0,0,47.26,127a28.63,28.63,0,0,0,.65-6.2h0a.26.26,0,1,1,.49,0Z"></path>
      <path class="cls-10" d="M47.9,125.57a20.14,20.14,0,0,1-1.65,3,15.2,15.2,0,0,0-1.64,2.9c0,.05-.06.07-.1,0a.1.1,0,0,1,0-.12,15.65,15.65,0,0,1,1.6-3,20,20,0,0,0,1.56-3c0-.1.13-.13.2-.08a.24.24,0,0,1,.06.27Z"></path>
      <path class="cls-10" d="M48.34,122.22a23.61,23.61,0,0,0,.37,2.77c.17.92.37,1.85.47,2.8a.12.12,0,0,1-.08.14s-.09,0-.1-.09c-.13-.93-.36-1.83-.56-2.74a23.56,23.56,0,0,1-.49-2.81h0a.27.27,0,0,1,.16-.3c.11,0,.21.08.23.23Z"></path>
      <path class="cls-10" d="M49.36,118.88a17.49,17.49,0,0,0-9.19-.38c-.05,0-.1,0-.11-.1a.15.15,0,0,1,.08-.15,17.65,17.65,0,0,1,9.32,0,.35.35,0,0,1,.2.39c0,.18-.16.3-.3.26Z"></path>
      <path class="cls-10" d="M47.23,118.44a17.43,17.43,0,0,1-2.56,1.34,16.32,16.32,0,0,1-2.65.92c-.07,0-.12,0-.13-.13a.15.15,0,0,1,.08-.17h0a16.71,16.71,0,0,0,2.57-1.08A18,18,0,0,0,47,117.86h0a.23.23,0,0,1,.34.13.4.4,0,0,1-.1.45Z"></path>
      <path class="cls-10" d="M50.12,119.51c-.84-.72-1.67-1.46-2.51-2.14a14.23,14.23,0,0,0-1.29-1,3.8,3.8,0,0,0-1.37-.58h0a.15.15,0,0,1-.1-.17c0-.07.06-.13.12-.12a3.76,3.76,0,0,1,1.47.49,14.2,14.2,0,0,1,1.37.86c.88.63,1.74,1.3,2.6,1.94a.48.48,0,0,1,.12.53c-.08.19-.26.26-.4.15Z"></path>
      <path class="cls-3" d="M32.06,140.46a3,3,0,0,0-1.09-.27h0a2,2,0,0,0-1.77,1c-.43,1-.05,1.89.3,1.95a4.72,4.72,0,0,0,.57,0s0,0,0,0a10.24,10.24,0,0,0,1.07-.6.56.56,0,0,0,.18-.11l.2-.13c.43-.29.53-.2.77-.59a1.33,1.33,0,0,0,.11-.93.71.71,0,0,0-.12-.15h0A.34.34,0,0,0,32.06,140.46Z"></path>
      <path class="cls-3" d="M83.3,130.07a1.86,1.86,0,0,0-.1-.77h0s-.33-.88-1.11-.9-1.24.44-1.18.68a2.15,2.15,0,0,0,.17.35h0a5.14,5.14,0,0,0,.65.55.41.41,0,0,0,.12.09l.13.1c.29.21.26.29.57.36a1,1,0,0,0,.64-.17.36.36,0,0,0,.06-.11h0A.27.27,0,0,0,83.3,130.07Z"></path>
      <path class="cls-3" d="M88.18,147.48a9.53,9.53,0,0,0-1.65-3.31h0s-2.87-3.39-6.38-2.25-4.86,3.94-4.24,4.93a11.57,11.57,0,0,0,1.32,1.33s.09,0,.12,0c1,.66,2.94,1,3.79,1.4a1.78,1.78,0,0,0,.67.22c.19.07.39.13.73.23,1.68.47,1.65.89,3.16.68A4.45,4.45,0,0,0,88.31,149a2.58,2.58,0,0,0,.11-.6h0l0-.07A1.09,1.09,0,0,0,88.18,147.48Z"></path>
      <path class="cls-3" d="M16.81,142a7.19,7.19,0,0,0-1.61,2.33h0s-1.22,3.18.84,5.12,4.44,1.81,4.88,1a10.62,10.62,0,0,0,.4-1.38s0,0,0-.08a24.77,24.77,0,0,0-.45-3.07,1.38,1.38,0,0,0-.1-.53c0-.15-.06-.31-.12-.57-.3-1.3,0-1.44-.7-2.38a3.43,3.43,0,0,0-2.12-1.1,2.29,2.29,0,0,0-.44.15h0l0,0A.9.9,0,0,0,16.81,142Z"></path>
      <ellipse class="cls-3" cx="50.9" cy="107.66" rx="47.8" ry="19.2"></ellipse>
      <path class="cls-1" d="M0,84.55l9.8,81.89S8.29,178,35.72,184.21c0,0,22.94,4.87,45.19-4.12,0,0,9.11-4.53,12.41-10.73l8.47-84.81s1.87,6.83-13.35,14l-7.53,68.58s-24.2,13.2-52.15,1.08l-9.19-67.93S0,95.62,0,84.55Z"></path>
      <path class="cls-11" d="M50.9,64.11C22.79,64.11,0,73.26,0,84.55c0,6.54,7.66,12.37,19.57,16.11h0a5.5,5.5,0,0,1,.75-.39C9.06,96.66,1.83,90.78,1.83,84.55c0-10.89,22-19.7,49.07-19.7S100,73.66,100,84.55c0,5.25-5,10.3-13.39,13.83.49.18,1.87.49,1.87.49,8.33-3.64,13.35-9,13.35-14.32C101.79,73.26,79,64.11,50.9,64.11Z"></path>
      <path class="cls-11" d="M19.57,100.6l9.19,67.93s23.33,12.35,52.15-1.08l7.53-68.58-1.87-.49-6.36,68.71s-24.77,13.11-50.62.9l-9.27-67.72Z"></path>
      <path class="cls-12" d="M50.32,55A16.36,16.36,0,0,0,48,51.15c-.74-.95-1.29-.29-1.62-1.34s1.51-2.24,2.7-1.12c.37.35-.08.72,0,1.17a5.06,5.06,0,0,0,1.07,1.59c.67.66,2.12,2.14,1.61,1.69"></path>
      <path class="cls-13" d="M50.32,55a16.53,16.53,0,0,0-2.13-3.45,3.39,3.39,0,0,0-.66-.74c-.26-.2-.6-.18-.93-.41a1.21,1.21,0,0,1-.39-1,1.43,1.43,0,0,1,.57-.9,1.81,1.81,0,0,1,2-.12,1.3,1.3,0,0,1,.41.37.72.72,0,0,1,0,.56.93.93,0,0,0,.11.91,6.8,6.8,0,0,0,1.26,1.57l.7.75.34.38.17.19s.07.06.06.1l-.1-.09.1.08-.07-.08L51.6,53l-.36-.35-.74-.71a7.16,7.16,0,0,1-1.31-1.58,1.53,1.53,0,0,1-.2-.49,1.16,1.16,0,0,1,.06-.53.54.54,0,0,0,0-.43,1.31,1.31,0,0,0-.35-.3,1.59,1.59,0,0,0-1.79.14,1.18,1.18,0,0,0-.51.75,1,1,0,0,0,.3.83c.22.18.63.2.92.43a3.35,3.35,0,0,1,.68.78A13.49,13.49,0,0,1,50.32,55Z"></path>
      <path class="cls-14" d="M46.73,50.1A80.42,80.42,0,0,1,23.31,24.58,86.92,86.92,0,0,0,46.36,48.17C46.81,48.82,47.41,49.59,46.73,50.1Z"></path>
      <path class="cls-15" d="M46.73,50.12a72.06,72.06,0,0,1-6.95-5.31,69.3,69.3,0,0,1-6.29-6.07A83,83,0,0,1,28,31.93c-1.68-2.38-3.33-4.78-4.82-7.28l.2-.13a101.3,101.3,0,0,0,10.47,12.8c1.92,2,3.93,3.86,6,5.67s4.28,3.5,6.51,5.13h0a5.73,5.73,0,0,1,.56,1,1,1,0,0,1,.08.57A.73.73,0,0,1,46.73,50.12Zm0,0a.74.74,0,0,0,.26-.43.93.93,0,0,0-.09-.52,5.37,5.37,0,0,0-.6-.92l0,0a82.74,82.74,0,0,1-6.66-5,72.36,72.36,0,0,1-6.12-5.63,87.43,87.43,0,0,1-10.33-13l.21-.13a71.41,71.41,0,0,0,4.75,7.31,73.9,73.9,0,0,0,5.6,6.66c2,2.12,4,4.16,6.21,6.09S44.43,48.32,46.73,50.08Z"></path>
      <path class="cls-14" d="M48.72,48.43C41.48,37.8,35.29,27.57,32.18,16c.32,11.35,7.71,21.38,14,31.85C47.07,48.78,48,49.64,48.72,48.43Z"></path>
      <path class="cls-15" d="M48.7,48.43A157.75,157.75,0,0,1,38.88,33,77,77,0,0,1,32,16l.36-.05a30.72,30.72,0,0,0,1.52,8.6,51.65,51.65,0,0,0,3.42,8.08c2.69,5.21,5.94,10.12,9,15.16h0a5.11,5.11,0,0,0,1.15,1.08.91.91,0,0,0,.75.1A1.38,1.38,0,0,0,48.7,48.43Zm0,0a1.33,1.33,0,0,1-.59.56.86.86,0,0,1-.78-.09,4.9,4.9,0,0,1-1.19-1.08h0c-3.06-5-6.36-9.88-9.1-15.09a51.43,51.43,0,0,1-3.5-8.1A31.23,31.23,0,0,1,32,16L32,14.41l.4,1.49a81.75,81.75,0,0,0,6.91,16.87C42.09,38.18,45.41,43.29,48.75,48.43Z"></path>
      <path class="cls-12" d="M50.65,51.75a21.25,21.25,0,0,0-3-5.74c-.89-1.29-1.34.36-1.83-1.42s1.24-5.31,2.58-4c.42.41,0,1.44.18,2.21a6.45,6.45,0,0,0,1.3,2.28c.76.78,2.48,2.61,1.9,2.09"></path>
      <path class="cls-13" d="M50.65,51.75a20.93,20.93,0,0,0-2.63-5,3.79,3.79,0,0,0-.87-1,1.2,1.2,0,0,0-.64,0c-.35,0-.54-.32-.62-.53A4,4,0,0,1,46,42.19a4.76,4.76,0,0,1,.7-1.29A1.52,1.52,0,0,1,48,40.18a1.07,1.07,0,0,1,.67.46,1.41,1.41,0,0,1,.11.77,5.4,5.4,0,0,0,0,1.39,6.08,6.08,0,0,0,1.4,2.4l1,1.07.47.54.23.27.11.14c0,.06,0,0,0,0l-.06-.06s.13.11.1.07l-.12-.14-.24-.26-.5-.51-1-1a5.81,5.81,0,0,1-.9-1.13,5.69,5.69,0,0,1-.62-1.32,4.8,4.8,0,0,1,0-1.46,1.26,1.26,0,0,0-.08-.63.88.88,0,0,0-.48-.31,1.23,1.23,0,0,0-1,.62,4.58,4.58,0,0,0-.64,1.22,3.66,3.66,0,0,0-.1,2.68c.09.21.19.38.36.37a1.41,1.41,0,0,1,.77.07,3.61,3.61,0,0,1,.94,1.15A18.45,18.45,0,0,1,50.65,51.75Z"></path>
      <path class="cls-14" d="M46.28,44.77C34.71,37.17,27.8,24.33,20.65,8.48c7.06,14.7,14.3,26,25.22,33.19A3.34,3.34,0,0,1,46.28,44.77Z"></path>
      <path class="cls-15" d="M46.29,44.8a41.84,41.84,0,0,1-8.69-7.21,59.6,59.6,0,0,1-6.81-9c-2-3.19-3.72-6.54-5.41-9.89S22.06,12,20.49,8.55l.31-.15A143.27,143.27,0,0,0,31.32,26.63a72.62,72.62,0,0,0,6.62,8.14,52.41,52.41,0,0,0,8,6.81l0,0v0a4.69,4.69,0,0,1,.57,1.54,2.82,2.82,0,0,1,0,.82A3.26,3.26,0,0,1,46.29,44.8Zm0-.06a5.83,5.83,0,0,0,.15-.77,2.62,2.62,0,0,0,0-.79,4.56,4.56,0,0,0-.62-1.46l0,0a48.67,48.67,0,0,1-8.24-6.63A59.9,59.9,0,0,1,30.79,27a90.76,90.76,0,0,1-5.56-9c-1.7-3.09-3.24-6.26-4.73-9.45l.3-.14c1.53,3.42,3,6.86,4.78,10.19a106.79,106.79,0,0,0,5.64,9.72,71.52,71.52,0,0,0,6.74,9A49.93,49.93,0,0,0,46.27,44.74Z"></path>
      <path class="cls-14" d="M47.63,40.51A124.58,124.58,0,0,1,25.53,2.36C29.76,19.3,37.14,30.09,45.35,41.67,46.37,42.45,47.21,42.85,47.63,40.51Z"></path>
      <path class="cls-15" d="M47.6,40.52c-2.41-2.77-4.73-5.67-6.88-8.68s-4.18-6.1-6.06-9.29A124.4,124.4,0,0,1,25.32,2.44l.44-.14a90.75,90.75,0,0,0,7.79,20.64A166.51,166.51,0,0,0,45.39,41.65h0a3.61,3.61,0,0,0,.74.48.74.74,0,0,0,.81,0,1.52,1.52,0,0,0,.45-.74A6.64,6.64,0,0,0,47.6,40.52Zm.06,0a6.29,6.29,0,0,1-.22.88,1.61,1.61,0,0,1-.47.78.82.82,0,0,1-.88,0,4.37,4.37,0,0,1-.77-.49h0a164.64,164.64,0,0,1-12-18.62,91.47,91.47,0,0,1-8-20.67l.44-.13a137.4,137.4,0,0,0,9.37,20Q37.85,27.1,41,31.64C43.12,34.67,45.33,37.61,47.66,40.51Z"></path>
      <path class="cls-12" d="M52.5,53.92a19.82,19.82,0,0,1,2.85-5c.89-1.2,1.56-.17,2-1.59S55.46,43.88,54,45.24c-.45.43.11,1,0,1.64a6.06,6.06,0,0,1-1.29,2c-.8.8-2.56,2.63-2,2.09"></path>
      <path class="cls-13" d="M52.5,53.92a17.1,17.1,0,0,1,2.4-4.6,3.45,3.45,0,0,1,.87-1c.39-.29.94-.19,1.15-.48a1.48,1.48,0,0,0,.28-1.1,2.2,2.2,0,0,0-.57-1.06,1.88,1.88,0,0,0-2.17-.58,1.33,1.33,0,0,0-.44.36A.77.77,0,0,0,54,46a2.84,2.84,0,0,1,.11.67,1.49,1.49,0,0,1-.19.67,7.32,7.32,0,0,1-1.6,2.06l-.93.91-.45.46-.23.23-.1.12.12-.09s-.07.08-.13.1a1.7,1.7,0,0,1,.1-.14l.21-.25.43-.48.88-1a7,7,0,0,0,1.5-2.06,1.39,1.39,0,0,0,0-1.18,1.06,1.06,0,0,1,0-.72,1.34,1.34,0,0,1,.54-.47,2.15,2.15,0,0,1,2.5.61,2.52,2.52,0,0,1,.63,1.21A1.72,1.72,0,0,1,57.11,48a1.1,1.1,0,0,1-.64.31,1.49,1.49,0,0,0-.57.2,3.55,3.55,0,0,0-.82.93A19.33,19.33,0,0,0,52.5,53.92Z"></path>
      <path class="cls-14" d="M56.84,47.63C69.29,39.1,78,29.06,85.13,16c-7.53,11.83-16,21.23-27.85,29C56.73,45.82,56,46.8,56.84,47.63Z"></path>
      <path class="cls-15" d="M56.84,47.6c2.86-2.09,5.68-4.32,8.34-6.69a96.17,96.17,0,0,0,7.58-7.53A82.91,82.91,0,0,0,79.45,25,92.49,92.49,0,0,0,85,15.87l.27.16A99.31,99.31,0,0,1,73,32.21a78.45,78.45,0,0,1-7.45,6.91,83.87,83.87,0,0,1-8.23,6l0,0a5.86,5.86,0,0,0-.75,1.24,1.16,1.16,0,0,0,.23,1.31Zm0,.06a1.24,1.24,0,0,1-.35-1.41,6.09,6.09,0,0,1,.7-1.31v0h0a94.23,94.23,0,0,0,8-6.15c2.55-2.21,5-4.52,7.32-7A114.9,114.9,0,0,0,85,15.86l.26.16c-1.73,3.14-3.65,6.16-5.65,9.13a92.42,92.42,0,0,1-6.49,8.55,76.79,76.79,0,0,1-7.65,7.55A79.69,79.69,0,0,1,56.84,47.66Z"></path>
      <path class="cls-14" d="M54.4,44.93C63.14,31.28,70.6,18,74.32,2.24,74,18.13,65.07,30.91,57.44,44.49,56.41,45.72,55.32,46.77,54.4,44.93Z"></path>
      <path class="cls-15" d="M54.37,44.93c2.08-3.39,4.11-6.75,6.08-10.17s3.81-6.9,5.51-10.45A108.59,108.59,0,0,0,74.09,2.18L74.61,0l0,2.24a46.84,46.84,0,0,1-1.75,11.41A65.72,65.72,0,0,1,68.7,24.41c-3.3,7-7.43,13.44-11.22,20.11h0A4.85,4.85,0,0,1,56,45.86a.9.9,0,0,1-1-.11A2.2,2.2,0,0,1,54.37,44.93Zm.06,0a2.47,2.47,0,0,0,.6.77.84.84,0,0,0,.91.09,4.74,4.74,0,0,0,1.46-1.33h0c3.73-6.71,7.78-13.24,11-20.19a66.41,66.41,0,0,0,4-10.74A46.54,46.54,0,0,0,74.08,2.23l.47.06a101.44,101.44,0,0,1-8.08,22.27c-1.77,3.53-3.69,7-5.71,10.38S56.62,41.68,54.43,44.93Z"></path>
      <path class="cls-12" d="M52.05,54.53A25.17,25.17,0,0,1,57.63,51c1.6-.79,2,.18,3.08-.89s-1-3.12-3.3-2.31c-.72.26-.26.86-.67,1.32a8.46,8.46,0,0,1-2.4,1.4A34.2,34.2,0,0,0,51,51.84"></path>
      <path class="cls-13" d="M52.05,54.53a20.58,20.58,0,0,1,4.87-3.27,6.49,6.49,0,0,1,1.36-.62,7.56,7.56,0,0,1,1.47-.11,1.26,1.26,0,0,0,.6-.27,1.33,1.33,0,0,0,.43-.49,1.1,1.1,0,0,0-.33-1.17,2.83,2.83,0,0,0-2.56-.77,2.12,2.12,0,0,0-.63.22c-.16.1-.17.32-.19.57a1,1,0,0,1-.35.72,5,5,0,0,1-.62.44A13.52,13.52,0,0,1,53.4,51L52,51.45l-.69.25-.35.13-.12.06.17,0-.17.06s.08-.06.12-.08l.33-.15.68-.28,1.36-.56A13,13,0,0,0,56,49.58c.39-.27.84-.52.83-1a1,1,0,0,1,.29-.76,2.25,2.25,0,0,1,.74-.28,3.13,3.13,0,0,1,2.83.83,1.4,1.4,0,0,1,.37,1.5,1.62,1.62,0,0,1-.53.6,1.55,1.55,0,0,1-.73.31,6.65,6.65,0,0,0-1.44.1,7.16,7.16,0,0,0-1.32.56c-.87.44-1.74.89-2.58,1.39A12.86,12.86,0,0,0,52.05,54.53Z"></path>
      <path class="cls-14" d="M60,50.24c19.26-4.87,32.19-12.71,46-22.35-13.48,9-26.68,15.9-44.85,20.5C60.26,49,59.55,49.44,60,50.24Z"></path>
      <path class="cls-15" d="M60.05,50.22c4.11-1.17,8.19-2.48,12.2-4S80.18,43,84,41.1a128.34,128.34,0,0,0,11.27-6.18c3.66-2.23,7.17-4.7,10.68-7.17l.18.27A150.18,150.18,0,0,1,84.69,40.44,112.08,112.08,0,0,1,73.16,45c-3.93,1.32-7.9,2.5-11.93,3.43h0a5.61,5.61,0,0,0-1,.69.9.9,0,0,0-.3.5A.94.94,0,0,0,60.05,50.22Zm0,.05a.86.86,0,0,1-.17-.63,1.06,1.06,0,0,1,.3-.57,6.08,6.08,0,0,1,1-.75h0c4-1.11,7.93-2.3,11.8-3.71s7.68-3,11.42-4.73A174,174,0,0,0,106,27.75l.19.27C102.62,30.46,99,32.8,95.4,35.1s-7.33,4.49-11.16,6.45A104.44,104.44,0,0,1,60,50.27Z"></path>
      <path class="cls-14" d="M58.67,47.76C74.46,41.1,87.85,33.88,99.53,24.4,90.05,34.6,76.76,41.24,62,48.38,60.29,48.87,58.93,49.13,58.67,47.76Z"></path>
      <path class="cls-15" d="M58.65,47.75C65.86,44.52,73,41.2,79.81,37.3A141.36,141.36,0,0,0,99.39,24.23l.3.32A78.82,78.82,0,0,1,82,38.17C75.5,42,68.76,45.19,62,48.42h0a9,9,0,0,1-1.93.38,1.58,1.58,0,0,1-1-.2A1.18,1.18,0,0,1,58.65,47.75Zm.05,0a1.23,1.23,0,0,0,.48.78,1.53,1.53,0,0,0,.92.18,8.24,8.24,0,0,0,1.9-.4h0c6.7-3.29,13.4-6.59,19.8-10.41A78.17,78.17,0,0,0,99.37,24.25l.3.32a132,132,0,0,1-19.6,13.19A199.45,199.45,0,0,1,58.7,47.77Z"></path>
      <path class="cls-12" d="M50.19,43s1,39.67,1.46,60.52"></path>
      <path class="cls-12" d="M52.36,43a43.55,43.55,0,0,0-.17,7.57l.15,7.57c.11,5,.19,10.08.34,15.12l.48,15.13c.17,5,.41,10.08,1,15.11a2.52,2.52,0,1,1-5,.6,2.48,2.48,0,0,1,0-.47c.35-5.06.35-10.1.27-15.15l-.25-15.13c-.09-5-.26-10.09-.39-15.13l-.22-7.56A43.63,43.63,0,0,0,48,43.09a2.21,2.21,0,0,1,4.32-.93A2.32,2.32,0,0,1,52.36,43Z"></path>
      <path class="cls-4" d="M48.77,112.12a1.38,1.38,0,0,0-1.33-.49c-.74.23-1,.81-.9,1a1.71,1.71,0,0,0,.27.28c.19.18.58-.33.59-.33Z"></path>
      <path class="cls-5" d="M49.16,113s-.23-1-.61-1-.81-.07-.81-.07l-.1.18s.37.66.52.72.44.12.5.15S49.16,113,49.16,113Z"></path>
      <path class="cls-6" d="M49.13,113.13a.27.27,0,0,0-.15-.39,3.49,3.49,0,0,0-.49-.1s-.6.46-.72.53-.2.06.15.17.34.19.66.15A.94.94,0,0,0,49.13,113.13Z"></path>
      <path class="cls-7" d="M48.49,112.64a4.69,4.69,0,0,0-.44.43c-.18.21-.21.28-.42.17s-.77-.18-.91-.39-.13-.19,0-.45a1.17,1.17,0,0,1,.71-.43.64.64,0,0,1,.71.15A1.67,1.67,0,0,1,48.49,112.64Z"></path>
      <path class="cls-4" d="M45.75,95.06a2,2,0,0,0-2.06-.3c-1,.56-1.23,1.48-1,1.75a2.87,2.87,0,0,0,.48.31c.31.2.72-.65.74-.66Z"></path>
      <path class="cls-5" d="M46.57,96.22s-.64-1.38-1.19-1.27-1.17.14-1.17.14l-.1.3s.74.83,1,.86.67,0,.77.06A5.39,5.39,0,0,0,46.57,96.22Z"></path>
      <path class="cls-6" d="M46.57,96.41c0-.14,0-.49-.33-.52a4.49,4.49,0,0,0-.74,0s-.72.83-.87,1-.27.15.27.2.55.17,1,0A1.39,1.39,0,0,0,46.57,96.41Z"></path>
      <path class="cls-7" d="M45.5,95.9a6.7,6.7,0,0,0-.5.75c-.19.36-.21.46-.55.37S43.3,97,43,96.73s-.26-.23-.08-.65a1.65,1.65,0,0,1,.88-.84.93.93,0,0,1,1.06,0A2.48,2.48,0,0,1,45.5,95.9Z"></path>
      <path class="cls-4" d="M41.67,101.32s-4.25-2.12-7.22.47-3.11,5.91-2.1,6.63a13.76,13.76,0,0,0,1.86.74c1.23.45,2-2.74,2.06-2.78S41.67,101.32,41.67,101.32Z"></path>
      <path class="cls-5" d="M45.29,104.67s-3.15-4.22-4.94-3.48-3.9,1.34-3.9,1.34l-.12,1.07s3.11,2.3,3.93,2.23,2.29-.33,2.65-.34A17.85,17.85,0,0,0,45.29,104.67Z"></path>
      <path class="cls-6" d="M45.42,105.31c0-.47-.22-1.67-1.49-1.51a18.41,18.41,0,0,0-2.5.54s-1.86,3.37-2.27,4-.79.71,1.05.47,2,.19,3.4-.65A4.84,4.84,0,0,0,45.42,105.31Z"></path>
      <path class="cls-7" d="M41.43,104.34a21.11,21.11,0,0,0-1.16,2.93c-.38,1.34-.4,1.71-1.62,1.64s-3.94.72-5,0-1-.59-.74-2.14,1-2.28,2.41-3.48a3.16,3.16,0,0,1,3.6-.76A8.13,8.13,0,0,1,41.43,104.34Z"></path>
      <path class="cls-4" d="M56.36,102.21s-3.57-2.1-6.3,0-3.06,4.95-2.22,5.63a12.28,12.28,0,0,0,1.57.76c1,.46,1.89-2.26,2-2.3S56.36,102.21,56.36,102.21Z"></path>
      <path class="cls-5" d="M59.3,105.34s-2.48-3.85-4.08-3.32-3.46.92-3.46.92l-.17.93s2.55,2.19,3.27,2.17,2-.15,2.32-.13A15.54,15.54,0,0,0,59.3,105.34Z"></path>
      <path class="cls-6" d="M59.37,105.9c0-.41-.09-1.46-1.2-1.4a15.68,15.68,0,0,0-2.2.32s-1.82,2.81-2.21,3.29-.73.57.88.47,1.72.29,3-.36A4.19,4.19,0,0,0,59.37,105.9Z"></path>
      <path class="cls-7" d="M56,104.82a19.19,19.19,0,0,0-1.19,2.47c-.41,1.14-.45,1.46-1.5,1.33s-3.47.39-4.37-.28-.87-.58-.51-1.9,1-1.92,2.3-2.88a2.75,2.75,0,0,1,3.17-.44A7.15,7.15,0,0,1,56,104.82Z"></path>
      <path class="cls-4" d="M65.79,98.45s-3.51-2.72-6.7-.88-3.92,4.86-3.12,5.7a12.7,12.7,0,0,0,1.57,1c1,.63,2.32-2.15,2.39-2.18S65.79,98.45,65.79,98.45Z"></path>
      <path class="cls-5" d="M68.51,102.17s-2.13-4.43-3.91-4.08-3.81.52-3.81.52l-.3,1s2.43,2.68,3.19,2.76,2.17.1,2.5.17A17.31,17.31,0,0,0,68.51,102.17Z"></path>
      <path class="cls-6" d="M68.5,102.79c0-.44.11-1.58-1.08-1.66a18.18,18.18,0,0,0-2.39,0s-2.32,2.76-2.8,3.21-.85.51.88.62,1.8.54,3.23,0A4.46,4.46,0,0,0,68.5,102.79Z"></path>
      <path class="cls-7" d="M65,101.17a20.77,20.77,0,0,0-1.6,2.48c-.59,1.16-.67,1.49-1.78,1.21s-3.74,0-4.62-.88-.84-.73-.29-2.1,1.35-1.9,2.84-2.75a3,3,0,0,1,3.44,0A7.7,7.7,0,0,1,65,101.17Z"></path>
      <path class="cls-4" d="M68.51,109.81a2.14,2.14,0,0,0,1.95-1c.53-1.06.19-2-.18-2.08a4.16,4.16,0,0,0-.6,0c-.39,0-.24,1-.25,1S68.51,109.81,68.51,109.81Z"></path>
      <path class="cls-5" d="M67.12,109.29s1.36.81,1.78.4.92-.82.92-.82l-.09-.31a4.46,4.46,0,0,0-1.34-.17c-.22.11-.6.36-.7.4A5.29,5.29,0,0,0,67.12,109.29Z"></path>
      <path class="cls-6" d="M67,109.13c.07.13.26.44.59.25a5.13,5.13,0,0,0,.63-.44s.13-1.15.18-1.36.14-.29-.35,0-.58.18-.87.58A1.42,1.42,0,0,0,67,109.13Z"></path>
      <path class="cls-7" d="M68.23,108.94a7.53,7.53,0,0,0,0-1c0-.41-.09-.52.26-.64s1-.65,1.39-.59.36,0,.45.51a1.68,1.68,0,0,1-.27,1.25.94.94,0,0,1-.91.62A2.35,2.35,0,0,1,68.23,108.94Z"></path>
      <path class="cls-4" d="M35.06,110.56a2.72,2.72,0,0,0,2.57-1c.76-1.31.41-2.53-.05-2.67a4.3,4.3,0,0,0-.77,0c-.5,0-.38,1.24-.41,1.26Z"></path>
      <path class="cls-5" d="M33.33,109.79s1.67,1.15,2.23.66,1.25-1,1.25-1l-.09-.4a5.43,5.43,0,0,0-1.7-.33c-.29.12-.79.4-.92.45A6.57,6.57,0,0,0,33.33,109.79Z"></path>
      <path class="cls-6" d="M33.21,109.57c.07.17.29.58.73.37a7.6,7.6,0,0,0,.84-.5s.26-1.46.34-1.72.2-.35-.44,0-.75.17-1.15.65A1.82,1.82,0,0,0,33.21,109.57Z"></path>
      <path class="cls-7" d="M34.78,109.44a7.79,7.79,0,0,0,.06-1.21c0-.54-.06-.67.39-.8s1.34-.74,1.82-.63.45.09.54.69a2.15,2.15,0,0,1-.45,1.56,1.22,1.22,0,0,1-1.22.72A3.1,3.1,0,0,1,34.78,109.44Z"></path>
      <path class="cls-4" d="M46.83,103.85a1.56,1.56,0,0,0,1.58.27c.78-.4,1-1.11.8-1.32a2.62,2.62,0,0,0-.36-.26c-.24-.16-.57.49-.59.5S46.83,103.85,46.83,103.85Z"></path>
      <path class="cls-5" d="M46.22,102.93s.46,1.08.89,1,.91-.08.91-.08l.08-.23s-.55-.66-.73-.69-.52,0-.59-.06A3.86,3.86,0,0,0,46.22,102.93Z"></path>
      <path class="cls-6" d="M46.22,102.79c0,.1,0,.37.25.4a4.65,4.65,0,0,0,.57,0s.57-.64.69-.74.21-.11-.2-.16-.42-.14-.77,0A1.11,1.11,0,0,0,46.22,102.79Z"></path>
      <path class="cls-7" d="M47,103.21a5,5,0,0,0,.4-.58c.15-.27.18-.34.44-.27s.89,0,1.09.26.19.18.05.5a1.28,1.28,0,0,1-.71.63.7.7,0,0,1-.82,0A1.76,1.76,0,0,1,47,103.21Z"></path>
      <path class="cls-4" d="M61.13,109.89s4,1,6-1.78,1.49-5.59.5-6a12.55,12.55,0,0,0-1.71-.26c-1.12-.15-1.15,2.69-1.2,2.74S61.13,109.89,61.13,109.89Z"></path>
      <path class="cls-5" d="M57.43,107.76s3.47,2.95,4.84,2,3-1.87,3-1.87l-.1-.93s-3.06-1.34-3.74-1.13-1.87.73-2.17.8A15.85,15.85,0,0,0,57.43,107.76Z"></path>
      <path class="cls-6" d="M57.2,107.24c.13.39.51,1.37,1.54,1a15.34,15.34,0,0,0,2-.93s.92-3.2,1.15-3.77.54-.75-1-.19-1.72.22-2.74,1.2A4.16,4.16,0,0,0,57.2,107.24Z"></path>
      <path class="cls-7" d="M60.75,107.3a19,19,0,0,0,.42-2.7c.06-1.2,0-1.51,1-1.69s3.19-1.37,4.24-1,1,.29,1,1.66-.41,2.12-1.36,3.4a2.74,2.74,0,0,1-2.89,1.33A7.14,7.14,0,0,1,60.75,107.3Z"></path>
      <path class="cls-4" d="M42.73,107.58s2.39,1.35,4.18-.06,2-3.33,1.4-3.77a7.22,7.22,0,0,0-1.05-.48c-.7-.3-1.23,1.52-1.27,1.55S42.73,107.58,42.73,107.58Z"></path>
      <path class="cls-5" d="M40.73,105.54s1.7,2.53,2.76,2.16,2.28-.67,2.28-.67l.1-.61s-1.72-1.42-2.2-1.4-1.33.13-1.54.12A10.4,10.4,0,0,0,40.73,105.54Z"></path>
      <path class="cls-6" d="M40.68,105.17c0,.27.07,1,.81.91a11.2,11.2,0,0,0,1.46-.23s1.17-1.9,1.43-2.22.48-.39-.6-.3-1.15-.17-2,.28A2.72,2.72,0,0,0,40.68,105.17Z"></path>
      <path class="cls-7" d="M43,105.85a12.41,12.41,0,0,0,.76-1.66c.26-.77.28-1,1-.91s2.3-.3,2.91.13.58.37.36,1.26a3.24,3.24,0,0,1-1.49,1.94,1.84,1.84,0,0,1-2.1.34A4.76,4.76,0,0,1,43,105.85Z"></path>
    </g>
  </g>
</svg>
