<?xml version="1.0" encoding="UTF-8"?>
<svg xmlns="http://www.w3.org/2000/svg" xmlns:xlink="http://www.w3.org/1999/xlink" viewBox="0 0 101.86 203.4">
  <defs>
    <style>.cls-1{fill:#97bae5;}.cls-2{fill:#aacaec;}.cls-3{fill:none;stroke:#38495a;stroke-miterlimit:10;stroke-width:1.93px;}.cls-4{fill:#96bae4;}.cls-5{fill:#38495a;}.cls-6{fill:#63411e;}.cls-7{fill:#956d4b;}.cls-8{fill:#44281c;}.cls-9{fill:#714d31;}.cls-10{fill:#613922;}.cls-11{fill:#7f5637;}.cls-12{fill:#a07850;}.cls-13{fill:url(#Безымянный_градиент_26);}.cls-14{fill:url(#Безымянный_градиент_7);}.cls-15{fill:#c5ba9f;}.cls-16{fill:#d7b389;}.cls-17{fill:#7eb14d;}.cls-18{fill:#627b38;}.cls-19{fill:#256337;}.cls-20{fill:#4d8c3f;}</style>
    <radialGradient id="Безымянный_градиент_26" cx="47.79" cy="185.31" r="54.35" gradientTransform="translate(97.21 287.54) rotate(179.09) scale(1 0.56)" gradientUnits="userSpaceOnUse">
      <stop offset="0.02" stop-color="#a07450"></stop>
      <stop offset="0.27" stop-color="#9a6d4a"></stop>
      <stop offset="0.62" stop-color="#8a5b39"></stop>
      <stop offset="1" stop-color="#72401f"></stop>
    </radialGradient>
    <linearGradient id="Безымянный_градиент_7" x1="33.91" y1="297.24" x2="55.06" y2="161.79" gradientUnits="userSpaceOnUse">
      <stop offset="0.38" stop-color="#a17551"></stop>
      <stop offset="0.91" stop-color="#794826"></stop>
      <stop offset="1" stop-color="#72401f"></stop>
    </linearGradient>
  </defs>
  <g id="Слой_2" data-name="Слой 2">
    <g id="Слой_1-2" data-name="Слой 1">
      <ellipse class="cls-1" cx="48.41" cy="20.26" rx="20.26" ry="19.32"></ellipse>
      <path class="cls-2" d="M34.89,24.93a18.7,18.7,0,0,0,4.9,12.58,21,21,0,0,0,8.37,1.74c11.19,0,20.27-8.65,20.27-19.32A18.71,18.71,0,0,0,63.52,7.35a21,21,0,0,0-8.37-1.74C44,5.61,34.89,14.26,34.89,24.93Z"></path>
      <line class="cls-3" x1="58.68" y1="3.83" x2="38.15" y2="36.09"></line>
      <path class="cls-4" d="M46.87,36.57s-.64-1,0-3.78c1-4.45,10.81-18.33,12.22-19.27,0,0,3.46-2.75,5.21-1.42s3,5.1,3.3,7.23-.35,7.89-2.35,10.2-4.19,6.63-10.94,7.71S46.87,36.57,46.87,36.57Z"></path>
      <path class="cls-5" d="M48.41,40.53c-11.72,0-21.25-9.09-21.25-20.27S36.69,0,48.41,0,69.67,9.09,69.67,20.26,60.13,40.53,48.41,40.53Zm0-38.64c-10.63,0-19.27,8.24-19.27,18.37s8.64,18.38,19.27,18.38S67.69,30.4,67.69,20.26,59,1.89,48.41,1.89Z"></path>
      <path class="cls-6" d="M3.09,118.42,100,120s.91-17,0-19.84C98.7,96,91.3,83.57,54.64,82.67S4.53,93.27,2.48,99.1,3.09,118.42,3.09,118.42Z"></path>
      <polygon class="cls-7" points="8.29 158.58 3.09 123.6 98.7 123.6 95 158.33 8.29 158.58"></polygon>
      <path class="cls-8" d="M39.12,153.54a7.4,7.4,0,0,0-2.47-1.44v0s-3.28-1-5.07,1.23-1.48,4.59-.67,5a8.87,8.87,0,0,0,1.41.3s.05,0,.09,0a24.11,24.11,0,0,0,3-.69,1.37,1.37,0,0,0,.52-.14c.15,0,.31-.08.57-.16,1.28-.4,1.44-.11,2.33-.88a3.48,3.48,0,0,0,.95-2.21,2.73,2.73,0,0,0-.18-.44h0l0,0A.87.87,0,0,0,39.12,153.54Z"></path>
      <path class="cls-8" d="M21.5,156.43A9.59,9.59,0,0,0,18,157.58v0s-3.73,2.34-3.12,5.94,3.18,5.32,4.24,4.86a12.22,12.22,0,0,0,1.49-1.11s0-.08,0-.11c.79-.92,1.38-2.75,1.91-3.52a1.8,1.8,0,0,0,.31-.63c.09-.17.18-.36.33-.68.7-1.58,1.11-1.49,1.12-3A4.42,4.42,0,0,0,23,156.52a2.9,2.9,0,0,0-.57-.19v0h-.07A1.07,1.07,0,0,0,21.5,156.43Z"></path>
      <path class="cls-8" d="M37.29,162.77a3,3,0,0,0-1.09-.27h0a2,2,0,0,0-1.77,1c-.43,1,0,1.89.3,1.95a4.72,4.72,0,0,0,.57-.05l0,0a11.38,11.38,0,0,0,1.07-.6.7.7,0,0,0,.18-.11l.19-.13c.44-.29.53-.2.78-.59a1.33,1.33,0,0,0,.11-.93,1.31,1.31,0,0,0-.12-.15h0A.36.36,0,0,0,37.29,162.77Z"></path>
      <path class="cls-8" d="M78.17,154.4a1.88,1.88,0,0,0-.1-.77h0s-.33-.87-1.1-.9-1.24.44-1.19.68a1.86,1.86,0,0,0,.17.36h0a7.12,7.12,0,0,0,.65.54.29.29,0,0,0,.12.09l.13.1c.3.21.26.29.57.36a1,1,0,0,0,.64-.16l.06-.11h0v0A.27.27,0,0,0,78.17,154.4Z"></path>
      <path class="cls-8" d="M89.82,168.45a9.53,9.53,0,0,0-1.65-3.31h0s-2.87-3.39-6.38-2.25-4.86,3.94-4.24,4.93a11.57,11.57,0,0,0,1.32,1.33s.09,0,.12,0c1,.66,2.94,1,3.79,1.4a1.78,1.78,0,0,0,.67.22c.19.07.39.13.73.23,1.68.47,1.65.89,3.16.68A4.45,4.45,0,0,0,90,170a2.58,2.58,0,0,0,.11-.6h0l0-.06A1.1,1.1,0,0,0,89.82,168.45Z"></path>
      <path class="cls-8" d="M67.15,156.92a7.27,7.27,0,0,0-1.62,2.33h0s-1.21,3.18.84,5.12,4.44,1.81,4.88,1a10.62,10.62,0,0,0,.4-1.38s0,0,0-.08a24.68,24.68,0,0,0-.46-3.07,1.38,1.38,0,0,0-.1-.53c0-.15-.06-.31-.12-.57-.3-1.3,0-1.44-.7-2.38a3.39,3.39,0,0,0-2.12-1.09,2.39,2.39,0,0,0-.44.14h0l0,0A.84.84,0,0,0,67.15,156.92Z"></path>
      <path class="cls-9" d="M67.31,180.69a1.36,1.36,0,0,0,1.36-.36c.47-.6.37-1.24.15-1.34a1.62,1.62,0,0,0-.38-.07c-.26,0-.28.59-.29.6Z"></path>
      <path class="cls-10" d="M66.49,180.19s.76.69,1.07.48a8,8,0,0,1,.7-.4l0-.21s-.68-.33-.83-.28-.43.15-.5.16A4.23,4.23,0,0,0,66.49,180.19Z"></path>
      <path class="cls-11" d="M66.44,180.07c0,.09.11.31.34.23a4,4,0,0,0,.46-.19s.23-.72.28-.84.13-.17-.21-.05-.39,0-.63.25A1,1,0,0,0,66.44,180.07Z"></path>
      <path class="cls-12" d="M67.24,180.11a4.06,4.06,0,0,0,.11-.61c0-.27,0-.34.25-.37s.72-.29,1-.2.22.08.22.39a1.1,1.1,0,0,1-.33.75.63.63,0,0,1-.66.28A1.52,1.52,0,0,1,67.24,180.11Z"></path>
      <path class="cls-9" d="M58,175.37s2.08.11,2.82-1.45.22-2.91-.31-3a7.19,7.19,0,0,0-.88,0c-.57,0-.32,1.45-.34,1.48S58,175.37,58,175.37Z"></path>
      <path class="cls-10" d="M56,174.66s2,1.14,2.59.53S59.92,174,59.92,174l-.14-.46a6.4,6.4,0,0,0-2-.21c-.32.17-.86.54-1,.6A9.2,9.2,0,0,0,56,174.66Z"></path>
      <path class="cls-11" d="M55.83,174.42c.1.18.38.64.86.35a8.34,8.34,0,0,0,.91-.65s.16-1.68.22-2,.2-.42-.5,0-.84.27-1.25.85A2.06,2.06,0,0,0,55.83,174.42Z"></path>
      <path class="cls-12" d="M57.6,174.12a10.8,10.8,0,0,0,0-1.38c-.08-.61-.14-.76.36-1s1.46-1,2-.88.52.05.67.73a2.48,2.48,0,0,1-.36,1.82,1.41,1.41,0,0,1-1.32.93A3.68,3.68,0,0,1,57.6,174.12Z"></path>
      <path class="cls-9" d="M49.38,182.12s1.62,1.23,3.08.37,1.77-2.24,1.4-2.62a5.38,5.38,0,0,0-.72-.46c-.48-.29-1,1-1.09,1Z"></path>
      <path class="cls-10" d="M48.12,180.42s1,2,1.81,1.86,1.74-.26,1.74-.26l.14-.44s-1.13-1.21-1.48-1.25-1,0-1.14-.07A9.21,9.21,0,0,0,48.12,180.42Z"></path>
      <path class="cls-11" d="M48.12,180.14c0,.2,0,.72.51.75a8.48,8.48,0,0,0,1.09,0s1.05-1.28,1.27-1.49.39-.23-.41-.28-.82-.23-1.47,0A2,2,0,0,0,48.12,180.14Z"></path>
      <path class="cls-12" d="M49.72,180.87a8.58,8.58,0,0,0,.72-1.14c.27-.54.31-.69.81-.57s1.72,0,2.12.39.39.33.14,1a2.36,2.36,0,0,1-1.29,1.27,1.35,1.35,0,0,1-1.57,0A3.67,3.67,0,0,1,49.72,180.87Z"></path>
      <path class="cls-9" d="M45.66,176.53a2.32,2.32,0,0,0,.08-2.37c-.75-1-1.83-1.21-2.09-.9a4.26,4.26,0,0,0-.31.58c-.18.39.83.74.84.76S45.66,176.53,45.66,176.53Z"></path>
      <path class="cls-10" d="M44.45,177.6s1.48-.89,1.29-1.5-.31-1.31-.31-1.31l-.34-.07s-.85.93-.86,1.2,0,.76,0,.88A6,6,0,0,0,44.45,177.6Z"></path>
      <path class="cls-11" d="M44.23,177.62c.16,0,.56,0,.54-.43a5.9,5.9,0,0,0-.09-.84s-1-.71-1.21-.87-.21-.28-.19.33-.13.65.1,1.13A1.58,1.58,0,0,0,44.23,177.62Z"></path>
      <path class="cls-12" d="M44.68,176.35a7.15,7.15,0,0,0-.92-.47c-.42-.17-.54-.19-.48-.58s-.11-1.31.15-1.64.23-.32.73-.17a1.8,1.8,0,0,1,1.05.89,1,1,0,0,1,.13,1.2A2.53,2.53,0,0,1,44.68,176.35Z"></path>
      <path class="cls-9" d="M38.3,178.28a1,1,0,0,0,.34-1c-.17-.54-.6-.74-.75-.64a1.24,1.24,0,0,0-.2.2c-.13.13.25.41.25.42S38.3,178.28,38.3,178.28Z"></path>
      <path class="cls-10" d="M37.67,178.57s.72-.18.72-.46,0-.58,0-.58l-.13-.08s-.47.28-.51.39-.08.32-.1.37A2.49,2.49,0,0,0,37.67,178.57Z"></path>
      <path class="cls-11" d="M37.57,178.55c.07,0,.24.06.28-.12a2.34,2.34,0,0,0,.07-.35s-.34-.43-.39-.52-.05-.14-.12.11-.13.26-.1.48A.7.7,0,0,0,37.57,178.55Z"></path>
      <path class="cls-12" d="M37.92,178.08a2.85,2.85,0,0,0-.32-.32c-.15-.12-.2-.14-.12-.3s.12-.55.27-.66.14-.1.32,0a.8.8,0,0,1,.32.51.43.43,0,0,1-.1.51A1.14,1.14,0,0,1,37.92,178.08Z"></path>
      <path class="cls-9" d="M36.05,182.33s1.42-2.29.12-4.1-3.18-2.07-3.64-1.54a8.32,8.32,0,0,0-.52,1c-.32.67,1.45,1.27,1.47,1.31S36.05,182.33,36.05,182.33Z"></path>
      <path class="cls-10" d="M34,184.2s2.55-1.56,2.23-2.61-.55-2.27-.55-2.27l-.6-.12s-1.46,1.63-1.47,2.09.07,1.32.06,1.52A9.91,9.91,0,0,0,34,184.2Z"></path>
      <path class="cls-11" d="M33.59,184.24c.27,0,1,0,.94-.76a10.79,10.79,0,0,0-.17-1.44s-1.81-1.23-2.12-1.49-.35-.49-.32.56-.21,1.12.19,2A2.72,2.72,0,0,0,33.59,184.24Z"></path>
      <path class="cls-12" d="M34.36,182a11.34,11.34,0,0,0-1.6-.81c-.73-.29-.94-.32-.84-1s-.2-2.27.25-2.85.39-.56,1.25-.3a3.2,3.2,0,0,1,1.84,1.54,1.81,1.81,0,0,1,.24,2.07A4.72,4.72,0,0,1,34.36,182Z"></path>
      <path class="cls-13" d="M9.8,184.2,8.29,158.58s43-22.09,86.71-.25L93.32,184.2Z"></path>
      <ellipse class="cls-14" cx="51.56" cy="184.2" rx="41.76" ry="19.2"></ellipse>
      <path class="cls-9" d="M70.56,180.53a1.36,1.36,0,0,0,1.36-.36c.47-.6.37-1.24.15-1.34a2.32,2.32,0,0,0-.39-.07c-.25,0-.27.59-.28.61S70.56,180.53,70.56,180.53Z"></path>
      <path class="cls-10" d="M69.74,180s.76.69,1.07.48a8,8,0,0,1,.7-.4l0-.21s-.68-.33-.83-.28-.43.15-.5.16A4.23,4.23,0,0,0,69.74,180Z"></path>
      <path class="cls-11" d="M69.69,179.91c0,.09.1.31.34.23a4,4,0,0,0,.46-.19s.23-.72.28-.84.13-.17-.22-.05-.38,0-.62.25A1,1,0,0,0,69.69,179.91Z"></path>
      <path class="cls-12" d="M70.49,180a4.06,4.06,0,0,0,.11-.61c0-.27,0-.34.25-.37s.72-.29,1-.19.22.07.22.38a1.1,1.1,0,0,1-.33.75.61.61,0,0,1-.66.28A1.52,1.52,0,0,1,70.49,180Z"></path>
      <path class="cls-9" d="M61.28,175.21s2.08.11,2.82-1.44.22-2.92-.31-3a6.89,6.89,0,0,0-.88,0c-.57,0-.32,1.45-.34,1.48S61.28,175.21,61.28,175.21Z"></path>
      <path class="cls-10" d="M59.24,174.5s2,1.14,2.59.53,1.33-1.21,1.33-1.21l-.13-.45a6.36,6.36,0,0,0-2-.22c-.32.17-.86.54-1,.6A9.2,9.2,0,0,0,59.24,174.5Z"></path>
      <path class="cls-11" d="M59.08,174.26c.1.18.38.64.86.35a8.34,8.34,0,0,0,.91-.65s.16-1.68.22-2,.2-.42-.5,0-.84.27-1.25.85A2.06,2.06,0,0,0,59.08,174.26Z"></path>
      <path class="cls-12" d="M60.85,174a9.76,9.76,0,0,0-.05-1.38c-.07-.61-.13-.76.37-.94s1.46-1,2-.89.52.05.67.73a2.53,2.53,0,0,1-.37,1.82,1.39,1.39,0,0,1-1.31.93A3.68,3.68,0,0,1,60.85,174Z"></path>
      <path class="cls-9" d="M52.63,182s1.62,1.23,3.08.37,1.77-2.24,1.4-2.62a5.38,5.38,0,0,0-.72-.46c-.48-.29-1,1-1.09,1Z"></path>
      <path class="cls-10" d="M51.37,180.26s1,2,1.81,1.86,1.74-.26,1.74-.26l.14-.44s-1.13-1.21-1.48-1.25-1,0-1.14-.06A7.63,7.63,0,0,0,51.37,180.26Z"></path>
      <path class="cls-11" d="M51.37,180c0,.2,0,.72.51.75a6.86,6.86,0,0,0,1.09,0s1.05-1.27,1.27-1.49.39-.23-.41-.27-.82-.24-1.48,0A2.08,2.08,0,0,0,51.37,180Z"></path>
      <path class="cls-12" d="M53,180.71a9.88,9.88,0,0,0,.72-1.14c.27-.54.31-.69.81-.57s1.72,0,2.12.39.39.33.14,1a2.39,2.39,0,0,1-1.29,1.27,1.35,1.35,0,0,1-1.57,0A3.67,3.67,0,0,1,53,180.71Z"></path>
      <path class="cls-9" d="M48.91,176.37A2.32,2.32,0,0,0,49,174c-.75-1.05-1.83-1.21-2.1-.9a6,6,0,0,0-.3.58c-.19.39.83.74.84.77Z"></path>
      <path class="cls-10" d="M47.7,177.44s1.47-.89,1.29-1.5-.31-1.31-.31-1.31l-.34-.07s-.86.93-.86,1.2,0,.76,0,.88A6,6,0,0,0,47.7,177.44Z"></path>
      <path class="cls-11" d="M47.48,177.46c.16,0,.56,0,.54-.43a5.9,5.9,0,0,0-.09-.84s-1-.71-1.21-.86-.21-.29-.19.32-.13.65.1,1.13A1.58,1.58,0,0,0,47.48,177.46Z"></path>
      <path class="cls-12" d="M47.93,176.19a7.15,7.15,0,0,0-.92-.47c-.42-.17-.54-.19-.48-.58s-.11-1.31.15-1.64.23-.32.73-.17a1.82,1.82,0,0,1,1.05.9,1,1,0,0,1,.13,1.19A2.53,2.53,0,0,1,47.93,176.19Z"></path>
      <path class="cls-9" d="M41.55,178.12a1,1,0,0,0,.34-1c-.18-.53-.6-.74-.75-.64a1.24,1.24,0,0,0-.2.2c-.13.13.25.41.25.42S41.55,178.12,41.55,178.12Z"></path>
      <path class="cls-10" d="M40.91,178.41s.73-.18.73-.46a5.34,5.34,0,0,1,0-.58l-.13-.08s-.47.28-.51.39-.08.32-.1.37A2.73,2.73,0,0,0,40.91,178.41Z"></path>
      <path class="cls-11" d="M40.82,178.39c.07,0,.23.06.28-.11a2.61,2.61,0,0,0,.07-.36s-.34-.43-.39-.52-.05-.14-.12.12-.14.25-.1.48A.66.66,0,0,0,40.82,178.39Z"></path>
      <path class="cls-12" d="M41.17,177.92a2.34,2.34,0,0,0-.32-.31c-.15-.13-.2-.15-.12-.31s.12-.55.27-.66.13-.1.32,0a.8.8,0,0,1,.32.51.43.43,0,0,1-.1.51A1.14,1.14,0,0,1,41.17,177.92Z"></path>
      <path class="cls-9" d="M39.3,182.17s1.42-2.29.12-4.1-3.18-2.07-3.64-1.54a7.85,7.85,0,0,0-.52,1c-.32.66,1.44,1.26,1.47,1.31S39.3,182.17,39.3,182.17Z"></path>
      <path class="cls-10" d="M37.21,184s2.55-1.55,2.23-2.61-.55-2.27-.55-2.27l-.6-.12s-1.46,1.63-1.47,2.1.07,1.31.06,1.51A9.91,9.91,0,0,0,37.21,184Z"></path>
      <path class="cls-11" d="M36.84,184.08c.27,0,1,0,.93-.76a9.9,9.9,0,0,0-.16-1.44s-1.81-1.23-2.12-1.49-.36-.49-.32.57-.21,1.11.19,1.95A2.72,2.72,0,0,0,36.84,184.08Z"></path>
      <path class="cls-12" d="M37.61,181.88a11.34,11.34,0,0,0-1.6-.81c-.74-.29-.94-.32-.84-1s-.2-2.27.25-2.85.39-.56,1.25-.3a3.2,3.2,0,0,1,1.84,1.54,1.8,1.8,0,0,1,.23,2.08A4.64,4.64,0,0,1,37.61,181.88Z"></path>
      <path class="cls-15" d="M55.27,131a16.86,16.86,0,0,0-.56-4.9l-.05-.13a1.06,1.06,0,0,0-1.37-.55,1,1,0,0,0-.57,1.32h0a15.18,15.18,0,0,1,1.07,6.7c-7.63,7.4-13.6,20-14.21,29.89a.39.39,0,0,0,.29.41h0a.37.37,0,0,0,.39-.35c.59-9.42,6.14-21.43,13.37-28.8l-.08,1a12.72,12.72,0,0,1-1.4,4.33c-.7,1.33-2.1,2.23-3.26,3.4a10.3,10.3,0,0,0-2.65,4.16l-1.74,4.61c-1.11,3.12-2.17,6.27-3.2,9.48h0a.07.07,0,0,0,0,.09.08.08,0,0,0,.09,0c1-3.22,2.08-6.36,3.31-9.43l1.85-4.56a9.82,9.82,0,0,1,2.65-3.94c1.16-1.05,2.7-1.89,3.59-3.38L53,140c.37,10.07-.77,22.22-3.37,30.8a.37.37,0,0,0,.24.46h0a.38.38,0,0,0,.41-.25c2.72-9.07,3.93-22,3.35-32.43a16.91,16.91,0,0,0,1-2.88A21.93,21.93,0,0,0,55.27,131Z"></path>
      <path class="cls-8" d="M23.64,144.48A7.55,7.55,0,0,0,21.18,143h0s-3.29-1-5.08,1.23-1.48,4.59-.67,5a9.29,9.29,0,0,0,1.42.3s.05,0,.08,0a23.71,23.71,0,0,0,3-.69,1.49,1.49,0,0,0,.53-.14l.56-.16c1.29-.4,1.45-.11,2.34-.88a3.47,3.47,0,0,0,.94-2.22,2,2,0,0,0-.18-.43h0l0,0A.87.87,0,0,0,23.64,144.48Z"></path>
      <path class="cls-8" d="M59.48,153.06a4.63,4.63,0,0,0-1.76.58v0s-1.88,1.18-1.57,3,1.6,2.68,2.13,2.45a6,6,0,0,0,.75-.56s0,0,0-.06a15.05,15.05,0,0,0,1-1.77.94.94,0,0,0,.16-.32c0-.08.09-.18.16-.34.36-.8.57-.75.57-1.52a2.26,2.26,0,0,0-.67-1.4l-.29-.1h0A.55.55,0,0,0,59.48,153.06Z"></path>
      <path class="cls-8" d="M32.06,158.22A2.77,2.77,0,0,0,31,158h0a2,2,0,0,0-1.77,1c-.43,1-.05,1.89.3,1.94a4.72,4.72,0,0,0,.57,0s0,0,0,0a8.69,8.69,0,0,0,1.07-.6.56.56,0,0,0,.18-.11l.2-.12c.43-.3.53-.21.77-.6a1.33,1.33,0,0,0,.11-.93,1.11,1.11,0,0,0-.12-.15h0A.34.34,0,0,0,32.06,158.22Z"></path>
      <path class="cls-8" d="M83.3,147.83a1.88,1.88,0,0,0-.1-.77h0s-.33-.88-1.11-.9-1.24.44-1.18.68a2.15,2.15,0,0,0,.17.35l0,0a6,6,0,0,0,.65.54.29.29,0,0,0,.12.09l.13.1c.29.21.26.29.57.36a1,1,0,0,0,.64-.17.36.36,0,0,0,.06-.11h0v0A.27.27,0,0,0,83.3,147.83Z"></path>
      <path class="cls-8" d="M88.18,165.24a9.53,9.53,0,0,0-1.65-3.31h0s-2.87-3.39-6.38-2.25-4.86,3.94-4.24,4.93a11.57,11.57,0,0,0,1.32,1.33s.09,0,.12,0c1,.67,2.94,1,3.79,1.41a2.23,2.23,0,0,0,.67.22l.73.22c1.68.47,1.65.9,3.16.69a4.49,4.49,0,0,0,2.59-1.74,2.58,2.58,0,0,0,.11-.6h0l0-.06A1.1,1.1,0,0,0,88.18,165.24Z"></path>
      <path class="cls-8" d="M16.81,159.8a7.29,7.29,0,0,0-1.61,2.33h0S14,165.3,16,167.24s4.44,1.81,4.88,1a10.62,10.62,0,0,0,.4-1.38s0,0,0-.08a24.77,24.77,0,0,0-.45-3.07,1.38,1.38,0,0,0-.1-.53c0-.15-.06-.31-.12-.57-.3-1.3,0-1.44-.7-2.38a3.39,3.39,0,0,0-2.12-1.09,2.17,2.17,0,0,0-.44.14h0l0,0A.9.9,0,0,0,16.81,159.8Z"></path>
      <ellipse class="cls-8" cx="50.9" cy="125.42" rx="47.8" ry="19.2"></ellipse>
      <path class="cls-6" d="M0,102.31,9.8,184.2S8.29,195.76,35.72,202c0,0,22.94,4.88,45.19-4.12,0,0,9.11-4.53,12.41-10.73l8.47-84.81s1.87,6.83-13.35,14L80.91,184.9S56.71,198.1,28.76,186l-9.19-67.93S0,113.39,0,102.31Z"></path>
      <path class="cls-16" d="M50.9,81.87C22.79,81.87,0,91,0,102.31c0,6.54,7.66,12.37,19.57,16.11h0a5.5,5.5,0,0,1,.75-.39c-11.26-3.61-18.49-9.49-18.49-15.72,0-10.89,22-19.7,49.07-19.7S100,91.42,100,102.31c0,5.25-5,10.3-13.39,13.83.49.18,1.87.49,1.87.49,8.33-3.64,13.35-9,13.35-14.32C101.79,91,79,81.87,50.9,81.87Z"></path>
      <path class="cls-16" d="M19.57,118.36l9.19,67.93s23.33,12.35,52.15-1.08l7.53-68.58-1.87-.49-6.36,68.71s-24.77,13.11-50.62.9L20.32,118Z"></path>
      <path class="cls-17" d="M44.73,96.61a137.19,137.19,0,0,1,5,13.49c.68,2.31,1.36,4.62,1.83,7,.23,1.19.47,2.37.6,3.58a15.94,15.94,0,0,0,.61,3.62.77.77,0,0,1-.41,1,.75.75,0,0,1-1-.42.8.8,0,0,1,0-.55v0a8,8,0,0,0,.13-3.55c-.1-1.18-.31-2.36-.51-3.53-.43-2.35-1-4.67-1.68-7a103,103,0,0,0-5-13.41.26.26,0,0,1,.11-.34.26.26,0,0,1,.34.11Z"></path>
      <path class="cls-18" d="M45.27,97c-.29.08-.44-.25-.21-.47A21.49,21.49,0,0,0,48.85,91a24.13,24.13,0,0,1,3.68-5.11c1.74-1.75,4-3.16,6.86-2.38,5.72,1.64,6.54,6.07,4.81,9.52s-7.93,4.46-12.31,4c-1.92-.22-2.64-.4-3.36-.51A7.18,7.18,0,0,0,45.27,97Z"></path>
      <path class="cls-18" d="M44.4,98.42a53.68,53.68,0,0,0-3.18,4.51c-1.33,2.29-2.4,4.26-.11,5.37a4.62,4.62,0,0,0,1.69.09,5.75,5.75,0,0,0,3.83-2.16C49.47,102.85,46.65,98.79,44.4,98.42Z"></path>
      <path class="cls-18" d="M43.75,96.8s-.4-.83-.85-2A11.45,11.45,0,0,1,42,90.75c.06-1.46-1.68-2.92-3.51-3.77a20.67,20.67,0,0,0-3.78-1.25c-.15-.07.42,1.39.78,3a8.61,8.61,0,0,1,.28,3.86,3.7,3.7,0,0,0,.81,3.25C37.6,97,39.43,97.46,43.75,96.8Z"></path>
      <path class="cls-17" d="M44.68,97c2.53-1.64,5.12-3.16,7.8-4.55,1.35-.69,2.7-1.35,4.09-2,.69-.3,1.39-.58,2.1-.85l1.09-.37c.37-.09.74-.19,1.13-.25-.69.32-1.4.58-2.11.85s-1.41.56-2.09.87c-1.39.6-2.73,1.27-4.07,2S50,94.09,48.67,94.84s-2.59,1.53-3.86,2.33a.13.13,0,0,1-.19,0A.14.14,0,0,1,44.68,97Z"></path>
      <path class="cls-17" d="M51,93.23A7,7,0,0,1,52.4,93a8.89,8.89,0,0,1,1.45.06,7.55,7.55,0,0,1,1.46.29,10,10,0,0,1,1.42.56,11,11,0,0,0-1.43-.49,8,8,0,0,0-1.45-.21,7.57,7.57,0,0,0-1.43,0,6.9,6.9,0,0,0-1.37.25h0a.15.15,0,0,1-.18-.1.15.15,0,0,1,.09-.18Z"></path>
      <path class="cls-17" d="M56.41,90.58a13.07,13.07,0,0,1,2.36.31,7.53,7.53,0,0,1,1.17.37A3.08,3.08,0,0,1,61,92a2.9,2.9,0,0,0-1.11-.66,8.62,8.62,0,0,0-1.16-.3,13.28,13.28,0,0,0-2.33-.18.15.15,0,0,1-.14-.13.1.1,0,0,1,.1-.13Z"></path>
      <path class="cls-17" d="M54.93,91.17a4.1,4.1,0,0,0,.48-.76,6.58,6.58,0,0,0,.35-.87A9.29,9.29,0,0,0,56,88.6c.07-.32.13-.65.18-1,0,.34-.07.68-.12,1a7.94,7.94,0,0,1-.2,1,7.6,7.6,0,0,1-.3.92,4.66,4.66,0,0,1-.46.85.13.13,0,0,1-.18,0,.16.16,0,0,1,0-.2h0Z"></path>
      <path class="cls-17" d="M44.87,97.12l-.09.14-.06.18c0,.12-.09.24-.13.35l-.18.72c-.13.48-.26,1-.38,1.42-.26.94-.51,1.85-.75,2.7s-.49,1.76-.71,2.53a11,11,0,0,0-.4,2.29,6.25,6.25,0,0,1,.29-2.28c.21-.77.45-1.61.7-2.53s.48-1.77.73-2.71c.12-.47.24-.94.37-1.43l.18-.72.08-.37,0-.19.07-.21a.17.17,0,0,1,.18-.13.12.12,0,0,1,.09.16v0Z"></path>
      <path class="cls-17" d="M43.36,102.44a11.24,11.24,0,0,1,1.64.28q.42.11.81.24a2.36,2.36,0,0,1,.69.4,2,2,0,0,0-.72-.35,5.45,5.45,0,0,0-.82-.2,13.58,13.58,0,0,0-1.67-.2c-.06,0-.09,0-.07-.09a.12.12,0,0,1,.13-.08Z"></path>
      <path class="cls-17" d="M42.89,103.87a5.23,5.23,0,0,1,1.21.59,2.73,2.73,0,0,1,.92.9,2.73,2.73,0,0,0-1-.85,5.56,5.56,0,0,0-1.24-.55h0a0,0,0,0,1,0-.06.08.08,0,0,1,.09,0Z"></path>
      <path class="cls-17" d="M42.48,105.53a4,4,0,0,1,.74.68,3.79,3.79,0,0,1,.3.4.92.92,0,0,1,.17.45,1,1,0,0,0-.2-.44c-.1-.13-.21-.25-.32-.37a4.17,4.17,0,0,0-.79-.64h0s0,0,0-.07.07,0,.09,0Z"></path>
      <path class="cls-17" d="M44.61,97.12v0h0l0,0-.1-.06L44.26,97l-.44-.19L43,96.42c-.56-.25-1.14-.47-1.67-.75a8.68,8.68,0,0,1-2.83-2,4.3,4.3,0,0,1-.84-1.6,5.27,5.27,0,0,1-.15-1c0-.34-.07-.68-.13-1a9.68,9.68,0,0,0-.54-1.93,4,4,0,0,0-.48-.86A1.61,1.61,0,0,0,36,87a.52.52,0,0,0-.47-.07.51.51,0,0,1,.48.06,1.83,1.83,0,0,1,.35.33,4.15,4.15,0,0,1,.51.86,9.86,9.86,0,0,1,.57,1.92c.06.33.11.66.14,1a5.36,5.36,0,0,0,.17,1,4.24,4.24,0,0,0,.85,1.55,8.65,8.65,0,0,0,2.85,1.93c.52.27,1.11.48,1.67.72l.87.34.45.18.22.09.11.06.06,0,0,0,0,0,0,0a.16.16,0,0,1-.1.19A.12.12,0,0,1,44.61,97.12Z"></path>
      <path class="cls-17" d="M39.05,94.22a8.23,8.23,0,0,1-.17-1.41A7.9,7.9,0,0,1,39,91.3c.09-.52.25-1,.3-1.52a3.21,3.21,0,0,0,0-.76,1.19,1.19,0,0,0-.28-.67,1.2,1.2,0,0,1,.31.66,3.29,3.29,0,0,1,0,.77,13,13,0,0,1-.25,1.52A7.51,7.51,0,0,0,39,92.78a7.31,7.31,0,0,0,.19,1.36h0a.1.1,0,0,1-.06.1.05.05,0,0,1-.08,0Z"></path>
      <path class="cls-17" d="M41.57,95.76a6.52,6.52,0,0,1-.41-.84,2.24,2.24,0,0,1-.14-.46,1.36,1.36,0,0,1,0-.53,3.64,3.64,0,0,0,.08-1c0-.35,0-.66-.07-1l.13,1a3.32,3.32,0,0,1,0,1,1.62,1.62,0,0,0,.18.9c.14.26.29.53.45.77h0a.13.13,0,0,1-.2.17Z"></path>
      <path class="cls-19" d="M45,97a4.33,4.33,0,0,0-.73-1.4A1.89,1.89,0,0,0,42,94.81a2.79,2.79,0,0,0,.43,1.29C42.75,96.71,43.48,97.19,45,97Z"></path>
      <path class="cls-17" d="M44.39,97a3.52,3.52,0,0,1-.56,0,1.88,1.88,0,0,1-1-.37,2.38,2.38,0,0,1-.63-.78,2.79,2.79,0,0,1-.27-1v0h0a1.81,1.81,0,0,1,1,0,1.92,1.92,0,0,1,.86.5,4,4,0,0,1,.64.78A4.57,4.57,0,0,1,45,97Zm.21-1a4,4,0,0,0-.63-.83,1.91,1.91,0,0,0-.92-.51,1.73,1.73,0,0,0-1.11.14h0v0a3.35,3.35,0,0,0,.29,1,2.52,2.52,0,0,0,.63.78,1.88,1.88,0,0,0,1,.37,3.43,3.43,0,0,0,.56,0L45,97A3.21,3.21,0,0,0,44.6,96Z"></path>
      <path class="cls-20" d="M45,97.05a3.17,3.17,0,0,0-.57-1.12,1.53,1.53,0,0,0-1.84-.65,2.8,2.8,0,0,0,.34,1C43.21,96.82,43.8,97.22,45,97.05Z"></path>
      <path class="cls-17" d="M44.53,97.08a2.22,2.22,0,0,1-.45,0,1.63,1.63,0,0,1-.78-.31,2,2,0,0,1-.7-1.46v0a1.46,1.46,0,0,1,.85,0,1.56,1.56,0,0,1,.68.42,3.83,3.83,0,0,1,.51.62,6.32,6.32,0,0,1,.36.74Zm.17-.82a2.87,2.87,0,0,0-.5-.66,1.47,1.47,0,0,0-.72-.43,1.56,1.56,0,0,0-.9.1h0a2.71,2.71,0,0,0,.23.81,1.58,1.58,0,0,0,.49.65,1.77,1.77,0,0,0,.79.31,2.22,2.22,0,0,0,.45,0l.47,0A3.14,3.14,0,0,0,44.7,96.26Z"></path>
      <path class="cls-9" d="M48.77,129.88a1.38,1.38,0,0,0-1.33-.49c-.74.23-1,.81-.9,1a1.71,1.71,0,0,0,.27.28c.19.18.58-.33.59-.33Z"></path>
      <path class="cls-10" d="M49.16,130.77s-.23-1-.61-1-.81-.07-.81-.07l-.1.19s.37.65.52.71.44.12.5.15A3.41,3.41,0,0,0,49.16,130.77Z"></path>
      <path class="cls-11" d="M49.13,130.89a.26.26,0,0,0-.15-.38,2.84,2.84,0,0,0-.49-.11s-.6.46-.72.53-.2.06.15.17.34.19.66.15A.94.94,0,0,0,49.13,130.89Z"></path>
      <path class="cls-12" d="M48.49,130.4a4.09,4.09,0,0,0-.44.44c-.18.2-.21.27-.42.16s-.77-.18-.91-.39-.13-.19,0-.45a1.17,1.17,0,0,1,.71-.43.64.64,0,0,1,.71.15A1.79,1.79,0,0,1,48.49,130.4Z"></path>
      <path class="cls-9" d="M45.75,112.82a2,2,0,0,0-2.06-.29c-1,.55-1.23,1.47-1,1.74a3.58,3.58,0,0,0,.48.32c.31.2.72-.66.74-.67Z"></path>
      <path class="cls-10" d="M46.57,114s-.64-1.38-1.19-1.27-1.17.14-1.17.14l-.1.3s.74.83,1,.86.67,0,.77.06A5.39,5.39,0,0,0,46.57,114Z"></path>
      <path class="cls-11" d="M46.57,114.17c0-.14,0-.49-.33-.52a6.28,6.28,0,0,0-.74,0s-.72.84-.87,1-.27.16.27.2.55.17,1,0A1.43,1.43,0,0,0,46.57,114.17Z"></path>
      <path class="cls-12" d="M45.5,113.66a6.7,6.7,0,0,0-.5.75c-.19.36-.21.46-.55.37s-1.15,0-1.42-.29-.26-.23-.08-.65a1.6,1.6,0,0,1,.88-.83.89.89,0,0,1,1.06,0A2.35,2.35,0,0,1,45.5,113.66Z"></path>
      <path class="cls-9" d="M41.67,119.08s-4.25-2.12-7.22.47-3.11,5.91-2.1,6.63a13.76,13.76,0,0,0,1.86.74c1.23.46,2-2.74,2.06-2.78S41.67,119.08,41.67,119.08Z"></path>
      <path class="cls-10" d="M45.29,122.43s-3.15-4.22-4.94-3.48-3.9,1.34-3.9,1.34l-.12,1.07s3.11,2.31,3.93,2.23,2.29-.33,2.65-.34A17.85,17.85,0,0,0,45.29,122.43Z"></path>
      <path class="cls-11" d="M45.42,123.07c0-.46-.22-1.67-1.49-1.5a17.54,17.54,0,0,0-2.5.53s-1.86,3.37-2.27,4-.79.71,1.05.47,2,.19,3.4-.65A4.81,4.81,0,0,0,45.42,123.07Z"></path>
      <path class="cls-12" d="M41.43,122.1A21.11,21.11,0,0,0,40.27,125c-.38,1.34-.4,1.71-1.62,1.64s-3.94.72-5,0-1-.59-.74-2.14,1-2.28,2.41-3.48a3.16,3.16,0,0,1,3.6-.76A8.13,8.13,0,0,1,41.43,122.1Z"></path>
      <path class="cls-9" d="M56.36,120s-3.57-2.1-6.3,0-3.06,5-2.22,5.63a12.28,12.28,0,0,0,1.57.76c1,.47,1.89-2.26,2-2.3S56.36,120,56.36,120Z"></path>
      <path class="cls-10" d="M59.3,123.1s-2.48-3.85-4.08-3.32-3.46.93-3.46.93l-.17.92s2.55,2.19,3.27,2.17,2-.15,2.32-.13A15.54,15.54,0,0,0,59.3,123.1Z"></path>
      <path class="cls-11" d="M59.37,123.66c0-.4-.09-1.46-1.2-1.39a14.85,14.85,0,0,0-2.2.31s-1.82,2.82-2.21,3.29-.73.57.88.47,1.72.29,3-.36A4.19,4.19,0,0,0,59.37,123.66Z"></path>
      <path class="cls-12" d="M56,122.58a19.19,19.19,0,0,0-1.19,2.47c-.41,1.14-.45,1.46-1.5,1.33s-3.47.39-4.37-.28-.87-.57-.51-1.9,1-1.92,2.3-2.88a2.75,2.75,0,0,1,3.17-.44A7.15,7.15,0,0,1,56,122.58Z"></path>
      <path class="cls-9" d="M65.79,116.21s-3.51-2.71-6.7-.88S55.17,120.19,56,121a12.7,12.7,0,0,0,1.57,1c1,.64,2.32-2.15,2.39-2.18S65.79,116.21,65.79,116.21Z"></path>
      <path class="cls-10" d="M68.51,119.94s-2.13-4.44-3.91-4.09-3.81.52-3.81.52l-.3,1s2.43,2.68,3.19,2.76,2.17.11,2.5.17A17.51,17.51,0,0,0,68.51,119.94Z"></path>
      <path class="cls-11" d="M68.5,120.55c0-.44.11-1.58-1.08-1.65a17.22,17.22,0,0,0-2.39,0s-2.32,2.76-2.8,3.22-.85.5.88.61,1.8.54,3.23,0A4.46,4.46,0,0,0,68.5,120.55Z"></path>
      <path class="cls-12" d="M65,118.93a20.77,20.77,0,0,0-1.6,2.48c-.59,1.16-.67,1.49-1.78,1.21s-3.74-.05-4.62-.88-.84-.73-.29-2.1,1.35-1.9,2.84-2.75a3,3,0,0,1,3.44,0A7.7,7.7,0,0,1,65,118.93Z"></path>
      <path class="cls-9" d="M68.51,127.57a2.11,2.11,0,0,0,1.95-1c.53-1.06.19-2-.18-2.08a4.16,4.16,0,0,0-.6,0c-.39,0-.24,1-.25,1S68.51,127.57,68.51,127.57Z"></path>
      <path class="cls-10" d="M67.12,127.06s1.36.8,1.78.39.92-.82.92-.82l-.09-.31a4.46,4.46,0,0,0-1.34-.17c-.22.12-.6.36-.7.4A6.56,6.56,0,0,0,67.12,127.06Z"></path>
      <path class="cls-11" d="M67,126.89c.07.13.26.44.59.25a5.13,5.13,0,0,0,.63-.44s.13-1.15.18-1.36.14-.29-.35,0-.58.18-.87.58A1.42,1.42,0,0,0,67,126.89Z"></path>
      <path class="cls-12" d="M68.23,126.7a7.53,7.53,0,0,0,0-1c0-.41-.09-.52.26-.64s1-.65,1.39-.59.36,0,.45.51a1.68,1.68,0,0,1-.27,1.25.94.94,0,0,1-.91.62A2.35,2.35,0,0,1,68.23,126.7Z"></path>
      <path class="cls-9" d="M35.06,128.32a2.72,2.72,0,0,0,2.57-1c.76-1.31.41-2.53-.05-2.67a5.5,5.5,0,0,0-.77,0c-.5,0-.38,1.24-.41,1.26Z"></path>
      <path class="cls-10" d="M33.33,127.55s1.67,1.15,2.23.66,1.25-1,1.25-1l-.09-.4a5.43,5.43,0,0,0-1.7-.33c-.29.13-.79.4-.92.45A6.57,6.57,0,0,0,33.33,127.55Z"></path>
      <path class="cls-11" d="M33.21,127.33c.07.17.29.58.73.37a7.6,7.6,0,0,0,.84-.5s.26-1.46.34-1.72.2-.35-.44,0-.75.18-1.15.65A1.82,1.82,0,0,0,33.21,127.33Z"></path>
      <path class="cls-12" d="M34.78,127.2a7.79,7.79,0,0,0,.06-1.21c0-.53-.06-.67.39-.8s1.34-.74,1.82-.62.45.08.54.68a2.15,2.15,0,0,1-.45,1.56,1.22,1.22,0,0,1-1.22.72A3.1,3.1,0,0,1,34.78,127.2Z"></path>
      <path class="cls-9" d="M46.83,121.61a1.56,1.56,0,0,0,1.58.27c.78-.4,1-1.11.8-1.32a2.62,2.62,0,0,0-.36-.26c-.24-.16-.57.49-.59.5Z"></path>
      <path class="cls-10" d="M46.22,120.69s.46,1.08.89,1a8.65,8.65,0,0,1,.91-.09l.08-.23s-.55-.66-.73-.68-.52,0-.59-.07A3.86,3.86,0,0,0,46.22,120.69Z"></path>
      <path class="cls-11" d="M46.22,120.55c0,.1,0,.37.25.4a4.65,4.65,0,0,0,.57,0s.57-.64.69-.74.21-.11-.2-.15-.42-.15-.77,0A1.11,1.11,0,0,0,46.22,120.55Z"></path>
      <path class="cls-12" d="M47,121a5,5,0,0,0,.4-.58c.15-.27.18-.34.44-.27s.89,0,1.09.26.19.18.05.5a1.28,1.28,0,0,1-.71.63.71.71,0,0,1-.82,0A1.88,1.88,0,0,1,47,121Z"></path>
      <path class="cls-9" d="M61.13,127.65s4,1,6-1.78,1.49-5.58.5-6a11,11,0,0,0-1.71-.27c-1.12-.15-1.15,2.69-1.2,2.74S61.13,127.65,61.13,127.65Z"></path>
      <path class="cls-10" d="M57.43,125.52s3.47,3,4.84,2,3-1.88,3-1.88l-.1-.93s-3.06-1.34-3.74-1.13-1.87.73-2.17.8A17.32,17.32,0,0,0,57.43,125.52Z"></path>
      <path class="cls-11" d="M57.2,125c.13.38.51,1.37,1.54,1a15.34,15.34,0,0,0,2-.93s.92-3.2,1.15-3.77.54-.75-1-.19-1.72.22-2.74,1.2A4.18,4.18,0,0,0,57.2,125Z"></path>
      <path class="cls-12" d="M60.75,125.06a19,19,0,0,0,.42-2.69c.06-1.21,0-1.52,1-1.7s3.19-1.37,4.24-1,1,.3,1,1.66-.41,2.12-1.36,3.4a2.74,2.74,0,0,1-2.89,1.33A7.14,7.14,0,0,1,60.75,125.06Z"></path>
      <path class="cls-9" d="M42.73,125.34s2.39,1.35,4.18-.06,2-3.33,1.4-3.77a7.22,7.22,0,0,0-1.05-.48c-.7-.3-1.23,1.52-1.27,1.55S42.73,125.34,42.73,125.34Z"></path>
      <path class="cls-10" d="M40.73,123.3s1.7,2.53,2.76,2.16a23.37,23.37,0,0,1,2.28-.66l.1-.62s-1.72-1.42-2.2-1.4-1.33.13-1.54.12A10.4,10.4,0,0,0,40.73,123.3Z"></path>
      <path class="cls-11" d="M40.68,122.93c0,.27.07,1,.81.91a11.2,11.2,0,0,0,1.46-.23s1.17-1.9,1.43-2.22.48-.39-.6-.3-1.15-.17-2,.28A2.75,2.75,0,0,0,40.68,122.93Z"></path>
      <path class="cls-12" d="M43,123.61a12.41,12.41,0,0,0,.76-1.66c.26-.76.28-1,1-.91s2.3-.3,2.91.13.58.37.36,1.26a3.24,3.24,0,0,1-1.49,1.94,1.82,1.82,0,0,1-2.1.34A4.76,4.76,0,0,1,43,123.61Z"></path>
      <path class="cls-16" d="M49.64,149.52c4.1-6.61,8-13.31,12-20l11.94-20,23.81-40.1A1.5,1.5,0,1,1,100,70.94l0,0L74.88,110.3,62.31,129.94C58.1,136.47,54,143.05,49.64,149.52Z"></path>
    </g>
  </g>
</svg>
