<?xml version="1.0" encoding="UTF-8"?>
<svg xmlns="http://www.w3.org/2000/svg" xmlns:xlink="http://www.w3.org/1999/xlink" viewBox="0 0 110.12 113.3">
  <defs>
    <style>.cls-1,.cls-13{fill:none;}.cls-2{fill:#956d4b;}.cls-3{clip-path:url(#clip-path);}.cls-4{fill:url(#Безымянный_градиент_2);}.cls-5{fill:#754120;}.cls-6{fill:#44281c;}.cls-7{fill:#6c3c1d;}.cls-8{fill:#714d31;}.cls-9{fill:#613822;}.cls-10{fill:#7f5637;}.cls-11{fill:#a07850;}.cls-12{fill:#ce6426;}.cls-13{stroke:#ce6426;stroke-linecap:round;stroke-linejoin:round;stroke-width:0.73px;}.cls-14{fill:#8b5b3c;}.cls-15{fill:#88af3c;}.cls-16{fill:#613922;}</style>
    <clipPath id="clip-path">
      <polygon class="cls-1" points="7.72 84.62 57.69 108.14 103.91 84.73 55.86 64.37 7.72 84.62"></polygon>
    </clipPath>
    <linearGradient id="Безымянный_градиент_2" x1="-2366.12" y1="-46.43" x2="-2363.32" y2="-46.43" gradientTransform="matrix(34.36, 0, 0, -34.36, 81287.14, -1508.73)" gradientUnits="userSpaceOnUse">
      <stop offset="0" stop-color="#a17551"></stop>
      <stop offset="0.38" stop-color="#a17551"></stop>
      <stop offset="0.89" stop-color="#7a4928"></stop>
      <stop offset="1" stop-color="#72401f"></stop>
    </linearGradient>
  </defs>
  <g id="Слой_2" data-name="Слой 2">
    <g id="Слой_2-2" data-name="Слой 2">
      <g id="Слой_1-2" data-name="Слой 1">
        <path class="cls-2" d="M57.69,42s9.62,11.3,17.06,11.77,32.81-7.57,32.81-7.57l2.56-26.43L57.69,1.26Z"></path>
        <path class="cls-2" d="M0,17.88,5.23,52.35s18.58,2.79,21.83,1.86,18.12-6.5,22.29-6.5S57.69,42,57.69,42V1.26Z"></path>
        <g class="cls-3">
          <rect class="cls-4" x="31.38" y="37.05" width="48.87" height="98.4" transform="translate(-33.31 137.36) rotate(-86.92)"></rect>
        </g>
        <path class="cls-5" d="M7.72,84.62,5.23,52.35s23.69-.46,30.19-3.71S57.69,42,57.69,42L55.86,64.37Z"></path>
        <path class="cls-6" d="M41.49,54.36a8.4,8.4,0,0,0-2.84-1.67l0,0s-3.79-1.13-5.85,1.41-1.71,5.29-.77,5.73a10.92,10.92,0,0,0,1.63.35l.09,0a28.27,28.27,0,0,0,3.51-.79,1.76,1.76,0,0,0,.6-.16,6.26,6.26,0,0,0,.65-.19c1.49-.46,1.67-.12,2.69-1a3.94,3.94,0,0,0,1.09-2.54l-.21-.5h0l0,0a1,1,0,0,0-.58-.5"></path>
        <path class="cls-6" d="M21.2,57.68a11,11,0,0,0-4,1.33v0s-4.3,2.7-3.59,6.84,3.66,6.14,4.88,5.61a13.86,13.86,0,0,0,1.71-1.29l0-.13c.92-1.05,1.59-3.16,2.21-4.05a2,2,0,0,0,.35-.72c.11-.2.21-.42.38-.79.8-1.82,1.28-1.71,1.29-3.46a5.08,5.08,0,0,0-1.54-3.2,3.29,3.29,0,0,0-.66-.23v0h-.08a1.31,1.31,0,0,0-1,.13"></path>
        <path class="cls-7" d="M57.69,42,55.86,64.37l48.06,20.36,3.64-38.55s-15-1.73-21.48-.8S68.24,49.1,64.84,47.24A44.41,44.41,0,0,1,57.69,42"></path>
        <path class="cls-6" d="M39.39,65a3.28,3.28,0,0,0-1.26-.3h0a2.31,2.31,0,0,0-2,1.18c-.49,1.19-.05,2.18.35,2.24l.65,0,0,0a10.59,10.59,0,0,0,1.23-.69l.21-.13.22-.14c.51-.34.61-.24.9-.69a1.56,1.56,0,0,0,.12-1.07l-.13-.17h0Z"></path>
        <path class="cls-6" d="M86.47,55.35a2.27,2.27,0,0,0-.11-.89h0s-.38-1-1.27-1-1.43.5-1.38.77l.2.41,0,0,.75.63.13.1.15.11c.35.24.3.34.66.41a1.08,1.08,0,0,0,.74-.18l.07-.13h0v-.22Z"></path>
        <path class="cls-6" d="M99.89,71.53A11,11,0,0,0,98,67.71h0s-3.32-3.9-7.36-2.59-5.59,4.54-4.88,5.68a14.36,14.36,0,0,0,1.52,1.52l.14,0c1.19.77,3.39,1.13,4.37,1.62a2.18,2.18,0,0,0,.77.25c.22.07.45.15.84.26,1.93.54,1.9,1,3.64.79a5.19,5.19,0,0,0,3-2,4.06,4.06,0,0,0,.13-.69h0l0-.07a1.27,1.27,0,0,0-.28-1"></path>
        <path class="cls-6" d="M73.78,58.24a8.59,8.59,0,0,0-1.87,2.69h0s-1.4,3.66,1,5.89S78,68.9,78.48,68a12.49,12.49,0,0,0,.46-1.59l0-.09a27.32,27.32,0,0,0-.52-3.53,1.78,1.78,0,0,0-.12-.62c0-.16-.07-.35-.13-.65-.35-1.5,0-1.66-.81-2.74a4,4,0,0,0-2.44-1.27l-.51.17h0l0,0a.94.94,0,0,0-.54.53"></path>
        <path class="cls-8" d="M74,85.62a1.58,1.58,0,0,0,1.57-.41c.54-.7.43-1.44.17-1.55l-.44-.08c-.29,0-.32.69-.33.7Z"></path>
        <path class="cls-9" d="M73,85.05s.87.78,1.23.54.8-.46.8-.46l0-.24-1-.32-.56.19Z"></path>
        <path class="cls-10" d="M73,84.91c0,.1.12.36.4.27s.52-.23.52-.23l.33-1c.06-.14.14-.19-.25,0s-.45,0-.72.29a1.07,1.07,0,0,0-.28.69"></path>
        <path class="cls-11" d="M73.88,85a5.25,5.25,0,0,0,.13-.69c0-.31,0-.4.28-.43s.84-.34,1.11-.23.26.09.26.44a1.24,1.24,0,0,1-.39.87.68.68,0,0,1-.75.32,1.87,1.87,0,0,1-.64-.28"></path>
        <path class="cls-8" d="M63.28,79.5s2.39.12,3.24-1.67.26-3.36-.36-3.49a7.39,7.39,0,0,0-1,0c-.66,0-.37,1.67-.39,1.7Z"></path>
        <path class="cls-9" d="M60.93,78.67s2.3,1.32,3,.62,1.53-1.4,1.53-1.4l-.15-.52A7.53,7.53,0,0,0,63,77.12c-.36.2-1,.62-1.16.7Z"></path>
        <path class="cls-10" d="M60.74,78.4c.11.21.43.73,1,.4a8.38,8.38,0,0,0,1.05-.75s.18-1.93.26-2.28.22-.49-.58,0-1,.31-1.44,1a2.41,2.41,0,0,0-.28,1.66"></path>
        <path class="cls-11" d="M62.78,78.05a11.07,11.07,0,0,0-.05-1.59c-.09-.69-.16-.87.42-1.08s1.68-1.13,2.32-1,.6.07.77.85a2.85,2.85,0,0,1-.41,2.09,1.59,1.59,0,0,1-1.52,1.07,4,4,0,0,1-1.53-.31"></path>
        <path class="cls-8" d="M53.32,87.27s1.86,1.41,3.54.43,2-2.58,1.62-3a6,6,0,0,0-.84-.53c-.55-.33-1.21,1.14-1.25,1.16Z"></path>
        <path class="cls-9" d="M51.86,85.31s1.15,2.33,2.08,2.14a18.88,18.88,0,0,1,2-.29l.16-.51s-1.29-1.4-1.7-1.44-1.14,0-1.32-.08Z"></path>
        <path class="cls-10" d="M51.86,85c0,.23,0,.83.59.87a10.13,10.13,0,0,0,1.26,0l1.46-1.71c.25-.24.45-.27-.47-.32s-1-.28-1.7,0A2.35,2.35,0,0,0,51.86,85"></path>
        <path class="cls-11" d="M53.71,85.83a11.63,11.63,0,0,0,.83-1.32c.3-.61.35-.79.93-.65s2,0,2.44.45.45.38.17,1.1a2.82,2.82,0,0,1-1.49,1.47,1.54,1.54,0,0,1-1.81,0,4.06,4.06,0,0,1-1.07-1.09"></path>
        <path class="cls-8" d="M49,80.83a2.67,2.67,0,0,0,.1-2.73c-.86-1.21-2.11-1.39-2.41-1l-.35.67c-.22.44,1,.84,1,.87Z"></path>
        <path class="cls-9" d="M47.63,82.07s1.7-1,1.49-1.73a15.08,15.08,0,0,1-.35-1.51l-.4-.09s-1,1.08-1,1.39,0,.87,0,1Z"></path>
        <path class="cls-10" d="M47.39,82.09c.18,0,.63,0,.62-.5a7.43,7.43,0,0,0-.11-1l-1.4-1c-.2-.18-.23-.33-.21.37s-.15.75.12,1.3a1.79,1.79,0,0,0,1,.79"></path>
        <path class="cls-11" d="M47.9,80.63a8.8,8.8,0,0,0-1.06-.55c-.49-.19-.62-.21-.55-.67s-.13-1.51.17-1.89.26-.37.84-.2a2.16,2.16,0,0,1,1.21,1,1.18,1.18,0,0,1,.15,1.38,3,3,0,0,1-.76.89"></path>
        <path class="cls-8" d="M40.56,82.84a1.17,1.17,0,0,0,.38-1.12c-.2-.61-.69-.84-.86-.73l-.23.23.29.49Z"></path>
        <path class="cls-9" d="M39.82,83.18s.83-.21.84-.53,0-.67,0-.67l-.15-.09-.58.45-.12.43Z"></path>
        <path class="cls-10" d="M39.71,83.15,40,83l.08-.4-.46-.6c-.06-.1,0-.16-.13.13s-.16.29-.12.55a.77.77,0,0,0,.3.45"></path>
        <path class="cls-11" d="M40.12,82.61l-.37-.36-.15-.35.32-.76.37,0a.92.92,0,0,1,.37.58.5.5,0,0,1-.12.59Z"></path>
        <path class="cls-8" d="M38,87.51s1.64-2.63.13-4.72S34.44,80.4,33.91,81a8.24,8.24,0,0,0-.6,1.17C32.94,83,35,83.64,35,83.69Z"></path>
        <path class="cls-9" d="M35.56,89.67s2.94-1.8,2.56-3-.63-2.61-.63-2.61l-.69-.15s-1.69,1.88-1.69,2.42.08,1.51.06,1.75Z"></path>
        <path class="cls-10" d="M35.13,89.71c.31,0,1.1,0,1.07-.87A12.45,12.45,0,0,0,36,87.17s-2.09-1.41-2.44-1.72-.41-.56-.36.66-.25,1.29.21,2.25a3.15,3.15,0,0,0,1.71,1.35"></path>
        <path class="cls-11" d="M36,87.17a14.22,14.22,0,0,0-1.84-.93c-.85-.33-1.08-.37-1-1.15s-.23-2.62.29-3.28.45-.64,1.44-.35a3.69,3.69,0,0,1,2.12,1.78,2.07,2.07,0,0,1,.27,2.39A5.23,5.23,0,0,1,36,87.17"></path>
        <path class="cls-12" d="M58.73,38.62a13.43,13.43,0,0,1,.85,4.77,19.22,19.22,0,0,1-.52,4.67l-.29,1.14-.35,1.11c-.23.71-.48,1.39-.65,2.1a11.64,11.64,0,0,0-.39,4.26,8.63,8.63,0,0,0,1.5,4c.41.61.86,1.19,1.34,1.77a4.53,4.53,0,0,1,1,2.19,13.58,13.58,0,0,1-.09,4.59A31.5,31.5,0,0,1,60,73.6h0s0,0,0,0a30.44,30.44,0,0,0,.78-4.43,13.88,13.88,0,0,0-.17-4.42,3.88,3.88,0,0,0-.93-1.84,21.27,21.27,0,0,1-1.49-1.76,9.68,9.68,0,0,1-1.9-4.3,12.89,12.89,0,0,1,.17-4.72c.14-.76.37-1.52.57-2.25l.29-1,.23-1.07a17.79,17.79,0,0,0,.33-4.3,13.56,13.56,0,0,0-.79-4.08l0-.09a.9.9,0,1,1,1.67-.67Z"></path>
        <path class="cls-13" d="M57.44,51s0,1.22,2.1,2.31,2.55,1.75,2.43,3a8.48,8.48,0,0,0,.51,3"></path>
        <path class="cls-13" d="M57.29,58.58s-1.57,3.51-2.54,5.21a6.22,6.22,0,0,0-.61,3.76"></path>
        <polygon class="cls-14" points="0 17.88 57.69 41.98 110.12 19.75 57.69 1.26 0 17.88"></polygon>
        <path class="cls-15" d="M60.58,15.79a29,29,0,0,0,6.52-6.4C69.33,6.14,72.77.54,72.77.54s1.2-2,.55,1.63S71.43,14.77,61.7,16.26a4.37,4.37,0,0,1-1.54.22C59.85,16.34,60.58,15.79,60.58,15.79Z"></path>
        <path class="cls-15" d="M60.17,15.87s-8-6.23-10.28-7.17-7-5-7.17-5.22-1-1.37-.84-.22,2.55,6,4.6,7.18,10.8,5.4,12,5.71,1.84.63,2.12.31S60.17,15.87,60.17,15.87Z"></path>
        <path class="cls-8" d="M60.63,25.73a1.44,1.44,0,0,0-1.38-.5c-.77.23-1.07.84-.94,1.06a2.4,2.4,0,0,0,.28.29c.19.18.6-.35.62-.35Z"></path>
        <path class="cls-16" d="M61,26.66s-.24-1.05-.64-1.06-.83-.07-.83-.07l-.11.19s.38.68.54.74.46.12.53.15A3.62,3.62,0,0,0,61,26.66Z"></path>
        <path class="cls-10" d="M61,26.79a.29.29,0,0,0-.16-.41,3.77,3.77,0,0,0-.51-.1l-.74.55c-.13.07-.21.06.15.17s.36.2.69.16A1,1,0,0,0,61,26.79Z"></path>
        <path class="cls-11" d="M60.33,26.28a4.25,4.25,0,0,0-.45.45c-.19.21-.22.28-.44.17s-.79-.19-.94-.41-.15-.2,0-.46a1.16,1.16,0,0,1,.74-.45.65.65,0,0,1,.73.16A1.68,1.68,0,0,1,60.33,26.28Z"></path>
        <path class="cls-8" d="M41,18.61a2.12,2.12,0,0,0-2.14-.31c-1,.58-1.27,1.54-1,1.81a3.6,3.6,0,0,0,.5.33c.33.21.75-.68.77-.69S41,18.61,41,18.61Z"></path>
        <path class="cls-16" d="M41.87,19.81s-.66-1.43-1.24-1.32-1.22.15-1.22.15l-.1.31s.77.86,1,.89.69,0,.8.06A4.39,4.39,0,0,0,41.87,19.81Z"></path>
        <path class="cls-10" d="M41.86,20c0-.14,0-.51-.34-.54a4.74,4.74,0,0,0-.76,0s-.75.87-.91,1-.27.16.28.2.57.18,1,0A1.42,1.42,0,0,0,41.86,20Z"></path>
        <path class="cls-11" d="M40.76,19.48a5.54,5.54,0,0,0-.52.78c-.2.37-.22.48-.58.38s-1.19,0-1.47-.3-.27-.24-.08-.67.43-.6.92-.87a.92.92,0,0,1,1.09,0A2.41,2.41,0,0,1,40.76,19.48Z"></path>
        <path class="cls-8" d="M54.87,15.77s-4.42-2.2-7.5.49-3.24,6.15-2.18,6.89a13.59,13.59,0,0,0,1.93.78c1.27.47,2.06-2.85,2.14-2.9S54.87,15.77,54.87,15.77Z"></path>
        <path class="cls-16" d="M58.64,19.26s-3.28-4.39-5.15-3.62-4,1.39-4,1.39l-.13,1.11s3.23,2.4,4.08,2.33,2.39-.36,2.76-.36A18.42,18.42,0,0,0,58.64,19.26Z"></path>
        <path class="cls-10" d="M58.76,19.93c0-.49-.22-1.75-1.54-1.57a19,19,0,0,0-2.6.55S52.69,22.42,52.26,23s-.82.74,1.1.49,2.07.2,3.52-.68A5,5,0,0,0,58.76,19.93Z"></path>
        <path class="cls-11" d="M54.62,18.91A22.77,22.77,0,0,0,53.41,22c-.39,1.39-.41,1.77-1.68,1.71s-4.1.75-5.23,0-1.08-.62-.77-2.23,1.06-2.37,2.51-3.62A3.3,3.3,0,0,1,52,17.06,8.49,8.49,0,0,1,54.62,18.91Z"></path>
        <path class="cls-8" d="M71.86,17.19s-2.55-3.47-6-2.61-4.95,3.47-4.42,4.47a12,12,0,0,0,1.19,1.36c.8.87,2.73-1.38,2.8-1.39S71.86,17.19,71.86,17.19Z"></path>
        <path class="cls-16" d="M73.39,21.38s-.8-4.7-2.55-4.84S67.16,16,67.16,16l-.54.82s1.54,3.13,2.23,3.41,2,.68,2.28.83A17.57,17.57,0,0,0,73.39,21.38Z"></path>
        <path class="cls-10" d="M73.22,22c.16-.4.52-1.44-.57-1.83a16.38,16.38,0,0,0-2.23-.6S67.53,21.46,67,21.76s-.94.24.65.81,1.53,1,3,.88A4.32,4.32,0,0,0,73.22,22Z"></path>
        <path class="cls-11" d="M70.42,19.52a19.79,19.79,0,0,0-2.15,1.87c-.86.92-1,1.21-2,.66S62.82,21,62.23,20s-.59-.9.29-2,1.76-1.41,3.38-1.8a2.86,2.86,0,0,1,3.21.87A7.55,7.55,0,0,1,70.42,19.52Z"></path>
        <path class="cls-8" d="M60,19s-3.65-2.82-7-.91S49,23.12,49.82,24a13.8,13.8,0,0,0,1.63,1.05c1.09.66,2.41-2.23,2.49-2.27S60,19,60,19Z"></path>
        <path class="cls-16" d="M62.85,22.86s-2.21-4.62-4.06-4.25-4,.54-4,.54l-.31,1S57,22.93,57.84,23s2.25.11,2.59.17A18.7,18.7,0,0,0,62.85,22.86Z"></path>
        <path class="cls-10" d="M62.85,23.49c0-.45.11-1.64-1.13-1.72a17.84,17.84,0,0,0-2.49,0s-2.4,2.87-2.9,3.34-.89.53.91.65,1.87.55,3.36,0A4.63,4.63,0,0,0,62.85,23.49Z"></path>
        <path class="cls-11" d="M59.23,21.81a21.06,21.06,0,0,0-1.65,2.58c-.62,1.2-.71,1.55-1.85,1.26s-3.9-.06-4.8-.92-.88-.76-.3-2.18,1.39-2,2.95-2.86a3.07,3.07,0,0,1,3.57-.05A7.88,7.88,0,0,1,59.23,21.81Z"></path>
        <path class="cls-8" d="M79,25.38a2.22,2.22,0,0,0,2-1c.54-1.1.19-2.08-.19-2.16a3.4,3.4,0,0,0-.63,0c-.41,0-.24,1-.26,1.05S79,25.38,79,25.38Z"></path>
        <path class="cls-16" d="M77.58,24.85s1.42.84,1.85.41,1-.85,1-.85l-.09-.33a4.48,4.48,0,0,0-1.4-.17c-.23.12-.62.37-.73.42A5.66,5.66,0,0,0,77.58,24.85Z"></path>
        <path class="cls-10" d="M77.47,24.68c.07.13.27.46.61.26a5.16,5.16,0,0,0,.66-.46s.13-1.19.18-1.41.14-.3-.36,0-.6.19-.9.6A1.5,1.5,0,0,0,77.47,24.68Z"></path>
        <path class="cls-11" d="M78.74,24.48a6.94,6.94,0,0,0,0-1c0-.43-.09-.54.27-.67s1.05-.68,1.45-.61.37,0,.47.53A1.74,1.74,0,0,1,80.63,24a1,1,0,0,1-.94.65A2.46,2.46,0,0,1,78.74,24.48Z"></path>
        <path class="cls-8" d="M30.36,27.92a2.22,2.22,0,0,0,2-1c.54-1.1.19-2.08-.19-2.17-.11,0-.43,0-.63,0-.41,0-.24,1-.26,1S30.36,27.92,30.36,27.92Z"></path>
        <path class="cls-16" d="M28.91,27.39s1.42.84,1.85.41,1-.85,1-.85l-.09-.33a4.53,4.53,0,0,0-1.4-.17c-.23.12-.63.37-.73.42A5.66,5.66,0,0,0,28.91,27.39Z"></path>
        <path class="cls-10" d="M28.8,27.22c.07.13.26.46.61.26a5.16,5.16,0,0,0,.66-.46s.13-1.2.18-1.41.14-.3-.36,0-.6.18-.9.6A1.44,1.44,0,0,0,28.8,27.22Z"></path>
        <path class="cls-11" d="M30.07,27a6.94,6.94,0,0,0,0-1c-.05-.44-.09-.54.27-.67s1.05-.68,1.45-.61.37,0,.47.53A1.75,1.75,0,0,1,32,26.58a1,1,0,0,1-.95.65A2.44,2.44,0,0,1,30.07,27Z"></path>
        <path class="cls-8" d="M44.26,26.17a2.82,2.82,0,0,0,2.67-1.1c.79-1.36.42-2.63,0-2.77a4.61,4.61,0,0,0-.8,0c-.52,0-.4,1.28-.42,1.31S44.26,26.17,44.26,26.17Z"></path>
        <path class="cls-16" d="M42.47,25.36s1.73,1.2,2.31.69a15.53,15.53,0,0,1,1.3-1L46,24.63a5.81,5.81,0,0,0-1.77-.35c-.3.13-.82.42-1,.47A8.25,8.25,0,0,0,42.47,25.36Z"></path>
        <path class="cls-10" d="M42.34,25.14c.07.17.29.6.75.38A8.31,8.31,0,0,0,44,25s.27-1.51.35-1.79.21-.36-.45,0-.78.18-1.2.68A1.92,1.92,0,0,0,42.34,25.14Z"></path>
        <path class="cls-11" d="M44,25A8.35,8.35,0,0,0,44,23.74c0-.55-.06-.69.41-.82s1.39-.78,1.89-.66.47.09.55.72a2.22,2.22,0,0,1-.46,1.62,1.26,1.26,0,0,1-1.26.74A3.28,3.28,0,0,1,44,25Z"></path>
        <path class="cls-8" d="M54.41,24.2a1.8,1.8,0,0,1,1.65-.26c.81.37,1,1,.83,1.22a2.66,2.66,0,0,1-.38.23c-.25.15-.59-.44-.61-.45Z"></path>
        <path class="cls-16" d="M53.78,25s.48-1,.92-.92.95.08.95.08l.08.2S55.16,25,55,25s-.53.05-.61.06A4.18,4.18,0,0,1,53.78,25Z"></path>
        <path class="cls-10" d="M53.78,25.17c0-.1,0-.34.26-.37a5,5,0,0,1,.59,0s.6.58.72.68.22.1-.21.14-.44.14-.8,0A1,1,0,0,1,53.78,25.17Z"></path>
        <path class="cls-11" d="M54.63,24.78a4.56,4.56,0,0,1,.42.53c.16.25.18.32.45.25s.93,0,1.14-.24.2-.16,0-.46a1.25,1.25,0,0,0-.73-.57.82.82,0,0,0-.85,0A1.73,1.73,0,0,0,54.63,24.78Z"></path>
        <path class="cls-8" d="M69.31,20s-3.43-2.54-6.46-.71S59.17,24.05,60,24.84a12.89,12.89,0,0,0,1.53.95c1,.59,2.19-2.12,2.26-2.15S69.31,20,69.31,20Z"></path>
        <path class="cls-16" d="M72,23.54s-2.14-4.23-3.84-3.85-3.65.58-3.65.58l-.28.92s2.39,2.53,3.13,2.59,2.08.06,2.4.11A17.18,17.18,0,0,0,72,23.54Z"></path>
        <path class="cls-10" d="M72,24.12c0-.42.07-1.51-1.08-1.56a16.91,16.91,0,0,0-2.3.08s-2.17,2.7-2.62,3.15-.82.5.85.57,1.74.48,3.11-.05A4.26,4.26,0,0,0,72,24.12Z"></path>
        <path class="cls-11" d="M68.63,22.64a18.92,18.92,0,0,0-1.48,2.41c-.55,1.13-.62,1.45-1.69,1.21s-3.6,0-4.46-.76-.83-.68-.32-2,1.25-1.86,2.67-2.71a2.86,2.86,0,0,1,3.31-.11A7.46,7.46,0,0,1,68.63,22.64Z"></path>
        <path class="cls-8" d="M51,24s-2.81-.51-4.09,1.48-.8,3.94-.1,4.18a8.31,8.31,0,0,0,1.2.12c.79.06.69-1.91.72-1.95S51,24,51,24Z"></path>
        <path class="cls-16" d="M53.65,25.3s-2.52-1.91-3.44-1.18-2,1.43-2,1.43l.11.63a8.66,8.66,0,0,0,2.64.63c.46-.17,1.27-.58,1.48-.64A10.37,10.37,0,0,0,53.65,25.3Z"></path>
        <path class="cls-10" d="M53.83,25.65c-.1-.27-.4-.93-1.11-.62a10.41,10.41,0,0,0-1.35.72s-.51,2.26-.65,2.67-.34.54.69.09,1.18-.22,1.85-1A2.86,2.86,0,0,0,53.83,25.65Z"></path>
        <path class="cls-11" d="M51.37,25.75a13.46,13.46,0,0,0-.18,1.89c0,.84.06,1.05-.66,1.22s-2.15,1.08-2.9.86-.7-.16-.78-1.11a3.35,3.35,0,0,1,.8-2.41,1.92,1.92,0,0,1,2-1.05A5,5,0,0,1,51.37,25.75Z"></path>
      </g>
    </g>
  </g>
</svg>
