<?xml version="1.0" encoding="UTF-8"?>
<svg xmlns="http://www.w3.org/2000/svg" xmlns:xlink="http://www.w3.org/1999/xlink" viewBox="0 0 110.12 112.04">
  <defs>
    <style>.cls-1{fill:none;}.cls-2{fill:#8e6848;}.cls-3{clip-path:url(#clip-path);}.cls-4{fill:url(#Безымянный_градиент_2);}.cls-5{fill:#713e21;}.cls-6{fill:#3d271f;}.cls-7{fill:#69391e;}.cls-8{fill:#6b472f;}.cls-9{fill:#5c3624;}.cls-10{fill:#795135;}.cls-11{fill:#9a734f;}.cls-12{fill:#85563a;}.cls-13{fill:#aa874d;}.cls-14{fill:#d2c9be;}.cls-15{fill:url(#Безымянный_градиент_5);}.cls-16{fill:#6b482f;}</style>
    <clipPath id="clip-path">
      <polygon class="cls-1" points="7.72 83.36 57.69 106.88 103.91 83.47 55.86 63.11 7.72 83.36"></polygon>
    </clipPath>
    <linearGradient id="Безымянный_градиент_2" x1="-2484.83" y1="-91.96" x2="-2482.03" y2="-91.96" gradientTransform="matrix(34.36, 0, 0, -34.36, 85365.44, -3074.28)" gradientUnits="userSpaceOnUse">
      <stop offset="0" stop-color="#9b714e"></stop>
      <stop offset="0.38" stop-color="#9b714e"></stop>
      <stop offset="0.89" stop-color="#764528"></stop>
      <stop offset="1" stop-color="#6e3c20"></stop>
    </linearGradient>
    <linearGradient id="Безымянный_градиент_5" x1="65.19" y1="-0.1" x2="77.1" y2="9.77" gradientTransform="translate(36.62 74.04) rotate(-69.7)" gradientUnits="userSpaceOnUse">
      <stop offset="0" stop-color="#e6f5b2"></stop>
      <stop offset="1" stop-color="#559a3b"></stop>
    </linearGradient>
  </defs>
  <g id="Слой_2" data-name="Слой 2">
    <g id="Слой_1-2" data-name="Слой 1">
      <path class="cls-2" d="M57.69,40.72S67.31,52,74.75,52.49s32.81-7.57,32.81-7.57l2.56-26.43L57.69,0Z"></path>
      <path class="cls-2" d="M0,16.62,5.23,51.09S23.81,53.88,27.06,53s18.12-6.51,22.29-6.51,8.34-5.73,8.34-5.73V0Z"></path>
      <g class="cls-3">
        <rect class="cls-4" x="31.38" y="35.8" width="48.87" height="98.4" transform="translate(-32.05 136.17) rotate(-86.92)"></rect>
      </g>
      <path class="cls-5" d="M7.72,83.36,5.23,51.1s23.69-.47,30.19-3.72,22.27-6.66,22.27-6.66l-1.83,22.4Z"></path>
      <path class="cls-6" d="M41.49,53.1a8.56,8.56,0,0,0-2.84-1.67l0,0s-3.79-1.13-5.85,1.41-1.71,5.29-.77,5.74a12.57,12.57,0,0,0,1.63.34l.09,0a30.11,30.11,0,0,0,3.51-.8,1.56,1.56,0,0,0,.6-.16,6.26,6.26,0,0,0,.65-.19c1.49-.46,1.67-.12,2.69-1a4,4,0,0,0,1.09-2.55l-.21-.5h0l0,0a1,1,0,0,0-.58-.5"></path>
      <path class="cls-6" d="M21.2,56.43a10.77,10.77,0,0,0-4,1.32v0s-4.3,2.7-3.59,6.85,3.66,6.13,4.88,5.6a14.71,14.71,0,0,0,1.71-1.28l0-.14c.92-1,1.59-3.16,2.21-4a2,2,0,0,0,.35-.72c.11-.2.21-.42.38-.79.8-1.81,1.28-1.71,1.29-3.45a5.09,5.09,0,0,0-1.54-3.21,3.29,3.29,0,0,0-.66-.23v0h-.08a1.27,1.27,0,0,0-1,.14"></path>
      <path class="cls-7" d="M57.69,40.72,55.86,63.11l48.06,20.37,3.64-38.56s-15-1.72-21.48-.8S68.24,47.84,64.84,46a44.41,44.41,0,0,1-7.15-5.26"></path>
      <path class="cls-6" d="M39.39,63.73a3.29,3.29,0,0,0-1.26-.31h0a2.31,2.31,0,0,0-2,1.18c-.49,1.19-.05,2.18.35,2.24l.65,0,0,0a10.59,10.59,0,0,0,1.23-.69l.21-.13.22-.14c.51-.34.61-.24.9-.68A1.59,1.59,0,0,0,39.81,64l-.13-.16h0Z"></path>
      <path class="cls-6" d="M86.47,54.09a2.27,2.27,0,0,0-.11-.89h0s-.38-1-1.27-1-1.43.5-1.38.78l.2.4,0,0,.75.63.13.1.15.11c.35.25.3.34.66.41a1.08,1.08,0,0,0,.74-.18l.07-.13h0Z"></path>
      <path class="cls-6" d="M99.89,70.27A10.91,10.91,0,0,0,98,66.46l0,0s-3.32-3.9-7.36-2.59-5.59,4.54-4.88,5.68a15.32,15.32,0,0,0,1.52,1.53h.14c1.19.77,3.39,1.14,4.37,1.62a2.18,2.18,0,0,0,.77.25c.22.08.45.15.84.26,1.93.54,1.9,1,3.64.79a5.15,5.15,0,0,0,3-2,4.06,4.06,0,0,0,.13-.69h0l0-.07a1.27,1.27,0,0,0-.28-1"></path>
      <path class="cls-6" d="M73.78,57a8.44,8.44,0,0,0-1.87,2.68h0s-1.4,3.66,1,5.89,5.11,2.09,5.62,1.19a12.49,12.49,0,0,0,.46-1.59l0-.09a27.58,27.58,0,0,0-.52-3.53,1.78,1.78,0,0,0-.12-.62c0-.16-.07-.35-.13-.65-.35-1.5,0-1.66-.81-2.74a3.94,3.94,0,0,0-2.44-1.26l-.51.16h0l0,0a1,1,0,0,0-.54.54"></path>
      <path class="cls-8" d="M74,84.37A1.59,1.59,0,0,0,75.53,84c.54-.7.43-1.43.17-1.55l-.44-.08c-.29,0-.32.69-.33.7Z"></path>
      <path class="cls-9" d="M73,83.79s.87.79,1.23.55.8-.47.8-.47l0-.24-1-.32-.56.19Z"></path>
      <path class="cls-10" d="M73,83.65c0,.1.12.36.4.27a4.1,4.1,0,0,0,.52-.23l.33-1c.06-.15.14-.19-.25-.06s-.45,0-.72.29a1.07,1.07,0,0,0-.28.69"></path>
      <path class="cls-11" d="M73.88,83.69A5.25,5.25,0,0,0,74,83c0-.31,0-.39.28-.43s.84-.33,1.11-.23.26.09.26.44a1.24,1.24,0,0,1-.39.87.68.68,0,0,1-.75.32,1.69,1.69,0,0,1-.64-.28"></path>
      <path class="cls-8" d="M63.28,78.24s2.39.13,3.24-1.67.26-3.36-.36-3.49a7.39,7.39,0,0,0-1,0c-.66,0-.37,1.67-.39,1.7Z"></path>
      <path class="cls-9" d="M60.93,77.42s2.3,1.32,3,.61,1.53-1.4,1.53-1.4l-.15-.52A7.25,7.25,0,0,0,63,75.87c-.36.19-1,.61-1.16.69Z"></path>
      <path class="cls-10" d="M60.74,77.14c.11.21.43.74,1,.4a8.38,8.38,0,0,0,1.05-.75s.18-1.93.26-2.28.22-.49-.58,0-1,.31-1.44,1a2.38,2.38,0,0,0-.28,1.65"></path>
      <path class="cls-11" d="M62.78,76.79a10.92,10.92,0,0,0-.05-1.58c-.09-.7-.16-.88.42-1.09s1.68-1.13,2.32-1,.6.07.77.85A2.85,2.85,0,0,1,65.83,76a1.59,1.59,0,0,1-1.52,1.07,4,4,0,0,1-1.53-.31"></path>
      <path class="cls-8" d="M53.32,86s1.86,1.41,3.54.43,2-2.58,1.62-3a6,6,0,0,0-.84-.53c-.55-.33-1.21,1.15-1.25,1.16Z"></path>
      <path class="cls-9" d="M51.86,84.05s1.15,2.33,2.08,2.14,2-.29,2-.29l.16-.51S54.82,84,54.41,84s-1.14,0-1.32-.07Z"></path>
      <path class="cls-10" d="M51.86,83.73c0,.23,0,.83.59.87a10.13,10.13,0,0,0,1.26,0l1.46-1.71c.25-.24.45-.27-.47-.32s-1-.27-1.7,0a2.39,2.39,0,0,0-1.14,1.19"></path>
      <path class="cls-11" d="M53.71,84.57a10.69,10.69,0,0,0,.83-1.32c.3-.61.35-.79.93-.64s2,0,2.44.44.45.38.17,1.1a2.78,2.78,0,0,1-1.49,1.47,1.54,1.54,0,0,1-1.81,0,4.06,4.06,0,0,1-1.07-1.09"></path>
      <path class="cls-8" d="M49,79.57a2.67,2.67,0,0,0,.1-2.73c-.86-1.21-2.11-1.39-2.41-1l-.35.67c-.22.44,1,.85,1,.88Z"></path>
      <path class="cls-9" d="M47.63,80.81s1.7-1,1.49-1.73a15.08,15.08,0,0,1-.35-1.51l-.4-.09s-1,1.08-1,1.4,0,.87,0,1Z"></path>
      <path class="cls-10" d="M47.39,80.83c.18,0,.63,0,.62-.5a7.72,7.72,0,0,0-.11-1l-1.4-1c-.2-.18-.23-.32-.21.38s-.15.74.12,1.29a1.79,1.79,0,0,0,1,.79"></path>
      <path class="cls-11" d="M47.9,79.37a7.93,7.93,0,0,0-1.06-.54c-.49-.2-.62-.22-.55-.68s-.13-1.51.17-1.89.26-.37.84-.2a2.16,2.16,0,0,1,1.21,1,1.19,1.19,0,0,1,.15,1.38,3,3,0,0,1-.76.89"></path>
      <path class="cls-8" d="M40.56,81.58a1.15,1.15,0,0,0,.38-1.11c-.2-.61-.69-.85-.86-.74l-.23.23.29.49Z"></path>
      <path class="cls-9" d="M39.82,81.92s.83-.21.84-.53,0-.67,0-.67l-.15-.09-.58.45-.12.43Z"></path>
      <path class="cls-10" d="M39.71,81.9l.33-.13.08-.41-.46-.6c-.06-.09,0-.16-.13.13s-.16.29-.12.55a.81.81,0,0,0,.3.46"></path>
      <path class="cls-11" d="M40.12,81.36,39.75,81l-.15-.35.32-.76.37,0a.92.92,0,0,1,.37.58.5.5,0,0,1-.12.59Z"></path>
      <path class="cls-8" d="M38,86.26s1.64-2.64.13-4.73-3.65-2.39-4.18-1.77a8.24,8.24,0,0,0-.6,1.17c-.37.77,1.66,1.45,1.69,1.5Z"></path>
      <path class="cls-9" d="M35.56,88.41s2.94-1.8,2.56-3-.63-2.61-.63-2.61l-.69-.15s-1.69,1.88-1.69,2.42.08,1.52.06,1.75Z"></path>
      <path class="cls-10" d="M35.13,88.45c.31,0,1.1,0,1.07-.87A12.17,12.17,0,0,0,36,85.92s-2.09-1.42-2.44-1.72-.41-.56-.36.65-.25,1.29.21,2.25a3.15,3.15,0,0,0,1.71,1.35"></path>
      <path class="cls-11" d="M36,85.91A14.22,14.22,0,0,0,34.17,85c-.85-.33-1.08-.36-1-1.15s-.23-2.61.29-3.28.45-.64,1.44-.35A3.69,3.69,0,0,1,37.05,82a2.07,2.07,0,0,1,.27,2.39A5.23,5.23,0,0,1,36,85.91"></path>
      <polygon class="cls-12" points="0 16.62 57.69 40.72 110.12 18.49 57.69 0 0 16.62"></polygon>
      <path class="cls-13" d="M50.57,50.7c2.09,1.83,5.51,1.33,7.65-1.11S61.59,42.82,59.5,41s-6.73-.46-8.86,2S48.48,48.88,50.57,50.7Z"></path>
      <path class="cls-14" d="M50.59,50.69a4.65,4.65,0,0,0,4.23.84A6.6,6.6,0,0,0,58.37,49a10,10,0,0,0,1.83-4,5.73,5.73,0,0,0,.07-2.18,2.86,2.86,0,0,0-1-1.8A5.08,5.08,0,0,0,55,40.57a9.14,9.14,0,0,0-3.91,2.1,6.44,6.44,0,0,0-2,3.93A4.79,4.79,0,0,0,50.59,50.69Zm0,0A4.82,4.82,0,0,1,49,46.59a6.6,6.6,0,0,1,1.93-4.09,9.38,9.38,0,0,1,4-2.23,7.4,7.4,0,0,1,2.3-.27,4,4,0,0,1,2.23.74,3.22,3.22,0,0,1,1.23,2,6.19,6.19,0,0,1,0,2.35,10.51,10.51,0,0,1-1.92,4.2,6.57,6.57,0,0,1-3.87,2.47A5,5,0,0,1,50.56,50.72Z"></path>
      <path class="cls-15" d="M60.12,14.13s-1.12,2.34-2.18.34,1-11.25,11.39-5.14c0,0,4,2.7-3,.05S60.43,13.62,60.12,14.13Z"></path>
      <path class="cls-16" d="M61.35,22.18a1.42,1.42,0,0,0-1.37-.5c-.75.23-1,.83-.92,1a3.54,3.54,0,0,0,.28.29c.19.18.59-.34.6-.34Z"></path>
      <path class="cls-9" d="M61.74,23.09s-.24-1-.63-1-.82-.07-.82-.07l-.11.18s.38.68.54.73.45.13.51.16S61.74,23.09,61.74,23.09Z"></path>
      <path class="cls-10" d="M61.71,23.22c0-.09.1-.33-.15-.4a5.11,5.11,0,0,0-.5-.11s-.62.47-.74.54-.2.07.15.18.35.19.68.15A1,1,0,0,0,61.71,23.22Z"></path>
      <path class="cls-11" d="M61.06,22.71a3.42,3.42,0,0,0-.45.45c-.18.21-.22.28-.43.17s-.79-.19-.93-.41-.14-.19,0-.45A1.09,1.09,0,0,1,60,22a.62.62,0,0,1,.72.15A1.59,1.59,0,0,1,61.06,22.71Z"></path>
      <path class="cls-16" d="M42,15.16a2.08,2.08,0,0,0-2.11-.3c-1,.56-1.26,1.51-1,1.78a5.81,5.81,0,0,0,.49.33c.33.2.74-.67.77-.68Z"></path>
      <path class="cls-9" d="M42.87,16.35s-.65-1.41-1.22-1.31a10.76,10.76,0,0,1-1.2.15l-.1.3s.76.86,1,.88.68.05.78.07A5.53,5.53,0,0,0,42.87,16.35Z"></path>
      <path class="cls-10" d="M42.86,16.54c0-.14,0-.5-.33-.53a4.59,4.59,0,0,0-.75,0s-.74.86-.9,1-.27.15.28.19.56.18,1,0A1.38,1.38,0,0,0,42.86,16.54Z"></path>
      <path class="cls-11" d="M41.78,16a5.85,5.85,0,0,0-.52.77c-.19.36-.22.47-.56.37s-1.18,0-1.45-.29-.27-.24-.09-.66a1.64,1.64,0,0,1,.91-.86.92.92,0,0,1,1.08,0A2.36,2.36,0,0,1,41.78,16Z"></path>
      <path class="cls-16" d="M55.67,12.37s-4.35-2.17-7.39.48-3.19,6-2.14,6.79a14.56,14.56,0,0,0,1.9.76c1.26.46,2-2.81,2.11-2.85S55.67,12.37,55.67,12.37Z"></path>
      <path class="cls-9" d="M59.38,15.8s-3.22-4.32-5.06-3.56-4,1.37-4,1.37l-.12,1.09s3.18,2.36,4,2.29,2.35-.35,2.72-.35A18.06,18.06,0,0,0,59.38,15.8Z"></path>
      <path class="cls-10" d="M59.51,16.46c0-.48-.22-1.72-1.52-1.55a18.42,18.42,0,0,0-2.56.55s-1.9,3.46-2.32,4.05-.82.72,1.07.48,2,.19,3.48-.67A4.87,4.87,0,0,0,59.51,16.46Z"></path>
      <path class="cls-11" d="M55.43,15.46a21.74,21.74,0,0,0-1.19,3c-.39,1.37-.41,1.75-1.66,1.68s-4,.74-5.15,0-1.06-.6-.75-2.19,1-2.33,2.46-3.57a3.25,3.25,0,0,1,3.69-.77A8.32,8.32,0,0,1,55.43,15.46Z"></path>
      <path class="cls-16" d="M72.4,13.76s-2.5-3.41-5.91-2.57-4.87,3.42-4.36,4.4a12.65,12.65,0,0,0,1.17,1.35c.79.86,2.69-1.36,2.77-1.37S72.4,13.76,72.4,13.76Z"></path>
      <path class="cls-9" d="M73.91,17.89s-.78-4.63-2.5-4.77-3.63-.53-3.63-.53l-.53.8s1.52,3.09,2.2,3.37,2,.67,2.24.81A15.51,15.51,0,0,0,73.91,17.89Z"></path>
      <path class="cls-10" d="M73.75,18.45c.16-.39.51-1.42-.56-1.8a16.18,16.18,0,0,0-2.2-.6S68.14,18,67.58,18.26s-.92.24.64.8,1.5,1,3,.87A4.25,4.25,0,0,0,73.75,18.45Z"></path>
      <path class="cls-11" d="M71,16.05a19.77,19.77,0,0,0-2.12,1.85c-.85.91-1,1.19-2,.65s-3.42-1-4-2-.58-.89.29-2,1.73-1.39,3.33-1.77a2.83,2.83,0,0,1,3.16.86A7.3,7.3,0,0,1,71,16.05Z"></path>
      <path class="cls-16" d="M60.75,15.53s-3.59-2.78-6.86-.9-4,5-3.19,5.84a14.8,14.8,0,0,0,1.61,1c1.06.65,2.37-2.21,2.44-2.24S60.75,15.53,60.75,15.53Z"></path>
      <path class="cls-9" d="M63.54,19.34s-2.18-4.54-4-4.18-3.9.54-3.9.54l-.31,1s2.48,2.74,3.26,2.82,2.22.11,2.56.17A16.6,16.6,0,0,0,63.54,19.34Z"></path>
      <path class="cls-10" d="M63.53,20c0-.45.11-1.61-1.11-1.69a17.27,17.27,0,0,0-2.45,0s-2.36,2.82-2.86,3.29-.88.51.9.63,1.84.55,3.31,0A4.61,4.61,0,0,0,63.53,20Z"></path>
      <path class="cls-11" d="M60,18.32a21.34,21.34,0,0,0-1.63,2.53c-.61,1.19-.69,1.53-1.82,1.24s-3.84-.05-4.73-.9-.87-.75-.3-2.14,1.38-2,2.91-2.83a3,3,0,0,1,3.52,0A7.82,7.82,0,0,1,60,18.32Z"></path>
      <path class="cls-16" d="M79.47,21.83a2.19,2.19,0,0,0,2-1c.54-1.09.19-2.05-.19-2.14-.1,0-.42,0-.62,0-.4,0-.24,1-.25,1S79.47,21.83,79.47,21.83Z"></path>
      <path class="cls-9" d="M78.05,21.31s1.39.83,1.81.4,1-.84,1-.84l-.09-.32a4.66,4.66,0,0,0-1.38-.17c-.22.12-.61.37-.71.41A5.53,5.53,0,0,0,78.05,21.31Z"></path>
      <path class="cls-10" d="M77.94,21.14a.41.41,0,0,0,.6.25,4.8,4.8,0,0,0,.64-.44s.13-1.18.18-1.39.14-.3-.35,0-.59.18-.89.58A1.45,1.45,0,0,0,77.94,21.14Z"></path>
      <path class="cls-11" d="M79.18,21a6.15,6.15,0,0,0,0-1c0-.43-.09-.54.26-.66s1-.67,1.43-.6.37,0,.46.52a1.74,1.74,0,0,1-.27,1.27,1,1,0,0,1-.93.64A2.51,2.51,0,0,1,79.18,21Z"></path>
      <path class="cls-16" d="M31.53,24.33a2.19,2.19,0,0,0,2-1c.54-1.09.19-2.05-.19-2.14-.1,0-.42,0-.61,0-.41,0-.25,1-.26,1S31.53,24.33,31.53,24.33Z"></path>
      <path class="cls-9" d="M30.11,23.81s1.39.83,1.81.4.95-.84.95-.84l-.09-.32a4.66,4.66,0,0,0-1.38-.17c-.22.12-.61.37-.71.41A6.78,6.78,0,0,0,30.11,23.81Z"></path>
      <path class="cls-10" d="M30,23.64a.41.41,0,0,0,.6.25,4.8,4.8,0,0,0,.64-.44s.13-1.18.18-1.39.14-.3-.35,0-.59.18-.89.58A1.45,1.45,0,0,0,30,23.64Z"></path>
      <path class="cls-11" d="M31.24,23.45a6.15,6.15,0,0,0,0-1c-.05-.43-.09-.54.26-.66s1-.67,1.43-.6.37,0,.46.52A1.74,1.74,0,0,1,33.11,23a1,1,0,0,1-.93.64A2.51,2.51,0,0,1,31.24,23.45Z"></path>
      <path class="cls-16" d="M45.23,22.61a2.78,2.78,0,0,0,2.62-1.08c.78-1.34.42-2.6-.05-2.73a5.35,5.35,0,0,0-.78-.05c-.52,0-.4,1.27-.42,1.3S45.23,22.61,45.23,22.61Z"></path>
      <path class="cls-9" d="M43.46,21.81s1.7,1.18,2.28.68,1.28-1,1.28-1l-.09-.41a5.69,5.69,0,0,0-1.74-.34c-.3.13-.82.41-.95.46A8.07,8.07,0,0,0,43.46,21.81Z"></path>
      <path class="cls-10" d="M43.33,21.59c.08.17.29.6.74.38a8.82,8.82,0,0,0,.87-.52s.26-1.49.35-1.75.2-.37-.45,0-.77.17-1.19.66A1.9,1.9,0,0,0,43.33,21.59Z"></path>
      <path class="cls-11" d="M44.94,21.45A8,8,0,0,0,45,20.22c0-.55-.06-.69.4-.82s1.37-.76,1.87-.64.46.09.54.7a2.21,2.21,0,0,1-.46,1.6,1.25,1.25,0,0,1-1.24.74A3.34,3.34,0,0,1,44.94,21.45Z"></path>
      <path class="cls-16" d="M55.22,20.66a1.78,1.78,0,0,1,1.63-.24c.79.36,1,1,.81,1.19a3.13,3.13,0,0,1-.37.23c-.25.15-.58-.44-.6-.44Z"></path>
      <path class="cls-9" d="M54.6,21.49s.47-1,.91-.91a9.25,9.25,0,0,0,.93.07l.09.21s-.57.59-.75.62-.53,0-.61.06S54.6,21.49,54.6,21.49Z"></path>
      <path class="cls-10" d="M54.6,21.62c0-.09,0-.34.25-.36a5,5,0,0,1,.59,0s.59.57.71.67.21.1-.21.14-.43.13-.78,0A1,1,0,0,1,54.6,21.62Z"></path>
      <path class="cls-11" d="M55.44,21.24a5.7,5.7,0,0,1,.41.52c.16.24.18.32.45.25s.91-.05,1.11-.24.2-.16.05-.45a1.25,1.25,0,0,0-.72-.57.8.8,0,0,0-.84,0A1.65,1.65,0,0,0,55.44,21.24Z"></path>
      <path class="cls-16" d="M69.9,16.54s-3.39-2.5-6.37-.7-3.62,4.68-2.84,5.46a10.82,10.82,0,0,0,1.51.93c1,.58,2.15-2.08,2.22-2.11S69.9,16.54,69.9,16.54Z"></path>
      <path class="cls-9" d="M72.54,20s-2.1-4.16-3.78-3.79-3.59.57-3.59.57l-.27.92s2.35,2.48,3.07,2.55,2.06,0,2.37.1A15,15,0,0,0,72.54,20Z"></path>
      <path class="cls-10" d="M72.55,20.59c0-.41.07-1.49-1.06-1.54a16.32,16.32,0,0,0-2.26.08s-2.14,2.66-2.59,3.1-.8.5.85.57,1.71.47,3.06-.05A4.23,4.23,0,0,0,72.55,20.59Z"></path>
      <path class="cls-11" d="M69.23,19.13a18,18,0,0,0-1.46,2.38c-.54,1.11-.62,1.43-1.67,1.18s-3.55,0-4.39-.74-.82-.67-.31-2S62.63,18.14,64,17.3a2.82,2.82,0,0,1,3.25-.11A7.33,7.33,0,0,1,69.23,19.13Z"></path>
      <path class="cls-16" d="M51.86,20.44s-2.77-.5-4,1.46-.8,3.88-.1,4.12a6.86,6.86,0,0,0,1.18.11c.77.06.68-1.88.71-1.92S51.86,20.44,51.86,20.44Z"></path>
      <path class="cls-9" d="M54.48,21.75S52,19.87,51.09,20.59a24.31,24.31,0,0,1-2,1.4l.11.63a8.4,8.4,0,0,0,2.6.62c.45-.17,1.24-.57,1.45-.63A11.12,11.12,0,0,0,54.48,21.75Z"></path>
      <path class="cls-10" d="M54.65,22.09c-.1-.26-.4-.91-1.09-.61a11.75,11.75,0,0,0-1.33.72s-.5,2.22-.64,2.62-.34.54.67.09,1.17-.22,1.83-.93A2.84,2.84,0,0,0,54.65,22.09Z"></path>
      <path class="cls-11" d="M52.23,22.2a13,13,0,0,0-.18,1.86c0,.82.05,1-.65,1.2s-2.12,1.06-2.86.85-.68-.17-.77-1.1a3.35,3.35,0,0,1,.8-2.38,1.87,1.87,0,0,1,1.92-1A4.72,4.72,0,0,1,52.23,22.2Z"></path>
    </g>
  </g>
</svg>
