<?xml version="1.0" encoding="UTF-8"?>
<svg xmlns="http://www.w3.org/2000/svg" xmlns:xlink="http://www.w3.org/1999/xlink" viewBox="0 0 110.12 132.15">
  <defs>
    <style>.cls-1{fill:none;}.cls-2{fill:#956d4b;}.cls-3{clip-path:url(#clip-path);}.cls-4{fill:url(#Безымянный_градиент_2);}.cls-5{fill:#754120;}.cls-6{fill:#44281c;}.cls-7{fill:#6c3c1d;}.cls-8{fill:#714d31;}.cls-9{fill:#613822;}.cls-10{fill:#7f5637;}.cls-11{fill:#a07850;}.cls-12{fill:#f7e8c5;}.cls-13{fill:#8b5b3c;}.cls-14{fill:#6f882b;}.cls-15,.cls-21{fill:#a3b034;}.cls-15{opacity:0.54;}.cls-16{opacity:0.61;}.cls-17{fill:#476532;}.cls-18{opacity:0.6;}.cls-19{fill:#d5e1a7;}.cls-20{opacity:0.67;}.cls-22{fill:#405d30;}.cls-23{fill:#c2cf37;}.cls-24{fill:#613922;}</style>
    <clipPath id="clip-path">
      <polygon class="cls-1" points="7.72 103.48 57.69 127 103.91 103.59 55.86 83.23 7.72 103.48"></polygon>
    </clipPath>
    <linearGradient id="Безымянный_градиент_2" x1="-3998.07" y1="484.76" x2="-3995.27" y2="484.76" gradientTransform="matrix(34.36, 0, 0, -34.36, 137355.12, 16760.03)" gradientUnits="userSpaceOnUse">
      <stop offset="0" stop-color="#a17551"></stop>
      <stop offset="0.38" stop-color="#a17551"></stop>
      <stop offset="0.89" stop-color="#7a4928"></stop>
      <stop offset="1" stop-color="#72401f"></stop>
    </linearGradient>
  </defs>
  <g id="Слой_2" data-name="Слой 2">
    <g id="Слой_1-2" data-name="Слой 1">
      <path class="cls-2" d="M57.69,60.84s9.62,11.3,17.06,11.76S107.56,65,107.56,65l2.56-26.43L57.69,20.12Z"></path>
      <path class="cls-2" d="M0,36.73,5.23,71.21S23.81,74,27.06,73.07s18.12-6.51,22.29-6.51,8.34-5.72,8.34-5.72V20.11Z"></path>
      <g class="cls-3">
        <rect class="cls-4" x="31.38" y="55.91" width="48.87" height="98.4" transform="translate(-52.14 155.21) rotate(-86.92)"></rect>
      </g>
      <path class="cls-5" d="M7.72,103.47,5.23,71.21s23.69-.46,30.19-3.72,22.27-6.65,22.27-6.65L55.86,83.23Z"></path>
      <path class="cls-6" d="M41.49,73.21a8.56,8.56,0,0,0-2.84-1.67l0,0s-3.79-1.13-5.85,1.42-1.71,5.29-.77,5.73a11.08,11.08,0,0,0,1.63.34l.09,0a28.19,28.19,0,0,0,3.51-.8,1.79,1.79,0,0,0,.6-.15l.65-.19c1.49-.46,1.67-.13,2.69-1a4,4,0,0,0,1.09-2.55l-.21-.5h0l0,0a1,1,0,0,0-.58-.51"></path>
      <path class="cls-6" d="M21.2,76.54a11,11,0,0,0-4,1.33v0s-4.3,2.69-3.59,6.84,3.66,6.13,4.88,5.6A13.64,13.64,0,0,0,20.18,89l0-.13c.92-1.05,1.59-3.16,2.21-4.06a2,2,0,0,0,.35-.72c.11-.2.21-.42.38-.78.8-1.82,1.28-1.72,1.29-3.46a5.12,5.12,0,0,0-1.54-3.21,3.36,3.36,0,0,0-.66-.22v0h-.08a1.31,1.31,0,0,0-1,.14"></path>
      <path class="cls-7" d="M57.69,60.84,55.86,83.23l48.06,20.36L107.56,65s-15-1.73-21.48-.8S68.24,68,64.84,66.1a45.07,45.07,0,0,1-7.15-5.26"></path>
      <path class="cls-6" d="M39.39,83.84a3.49,3.49,0,0,0-1.26-.31h0a2.31,2.31,0,0,0-2,1.19c-.49,1.18-.05,2.17.35,2.24l.65-.06,0,0a10.61,10.61,0,0,0,1.23-.68l.21-.13.22-.15c.51-.33.61-.23.9-.68a1.59,1.59,0,0,0,.12-1.08L39.68,84h0l0,0Z"></path>
      <path class="cls-6" d="M86.47,74.2a2.3,2.3,0,0,0-.11-.89h0s-.38-1-1.27-1-1.43.5-1.38.78l.2.41h0l.75.63.13.11.15.11c.35.24.3.33.66.41a1.06,1.06,0,0,0,.74-.19l.07-.12h0V74.2Z"></path>
      <path class="cls-6" d="M99.89,90.39A11,11,0,0,0,98,86.57h0S94.7,82.65,90.66,84s-5.59,4.54-4.88,5.68a14.32,14.32,0,0,0,1.52,1.53l.14,0c1.19.76,3.39,1.13,4.37,1.61a2.24,2.24,0,0,0,.77.26l.84.26c1.93.54,1.9,1,3.64.78a5.15,5.15,0,0,0,3-2,3.7,3.7,0,0,0,.13-.69h0l0-.08a1.25,1.25,0,0,0-.28-1"></path>
      <path class="cls-6" d="M73.78,77.1a8.37,8.37,0,0,0-1.87,2.69l0,0s-1.4,3.67,1,5.9,5.11,2.08,5.62,1.19a12.49,12.49,0,0,0,.46-1.59l0-.1a27.85,27.85,0,0,0-.52-3.53,1.77,1.77,0,0,0-.12-.61c0-.17-.07-.36-.13-.66-.35-1.5,0-1.65-.81-2.74a4,4,0,0,0-2.44-1.26l-.51.17v0l0,0a1,1,0,0,0-.54.54"></path>
      <path class="cls-8" d="M74,104.48a1.59,1.59,0,0,0,1.57-.42c.54-.69.43-1.43.17-1.54l-.44-.09c-.29,0-.32.69-.33.71Z"></path>
      <path class="cls-9" d="M73,103.9s.87.79,1.23.55.8-.46.8-.46l0-.24-1-.32-.56.19Z"></path>
      <path class="cls-10" d="M73,103.76c0,.11.12.36.4.27a5,5,0,0,0,.52-.22l.33-1c.06-.14.14-.19-.25-.06s-.45,0-.72.29a1.09,1.09,0,0,0-.28.69"></path>
      <path class="cls-11" d="M73.88,103.81a5.57,5.57,0,0,0,.13-.7c0-.31,0-.39.28-.43s.84-.33,1.11-.22.26.08.26.44a1.24,1.24,0,0,1-.39.86.69.69,0,0,1-.75.33,1.87,1.87,0,0,1-.64-.28"></path>
      <path class="cls-8" d="M63.28,98.35s2.39.13,3.24-1.66.26-3.36-.36-3.49a6.06,6.06,0,0,0-1,0c-.66,0-.37,1.66-.39,1.7Z"></path>
      <path class="cls-9" d="M60.93,97.53s2.3,1.32,3,.62,1.53-1.4,1.53-1.4l-.15-.52A7.22,7.22,0,0,0,63,96c-.36.2-1,.62-1.16.69Z"></path>
      <path class="cls-10" d="M60.74,97.26c.11.2.43.73,1,.4a9.74,9.74,0,0,0,1.05-.75S63,95,63,94.62s.22-.48-.58,0-1,.31-1.44,1a2.41,2.41,0,0,0-.28,1.66"></path>
      <path class="cls-11" d="M62.78,96.91a11.05,11.05,0,0,0-.05-1.59c-.09-.7-.16-.87.42-1.09s1.68-1.12,2.32-1,.6.06.77.84a2.88,2.88,0,0,1-.41,2.1,1.61,1.61,0,0,1-1.52,1.07,4.19,4.19,0,0,1-1.53-.31"></path>
      <path class="cls-8" d="M53.32,106.12s1.86,1.42,3.54.43,2-2.58,1.62-3a7,7,0,0,0-.84-.53c-.55-.33-1.21,1.15-1.25,1.16Z"></path>
      <path class="cls-9" d="M51.86,104.17s1.15,2.33,2.08,2.14,2-.3,2-.3l.16-.51s-1.29-1.4-1.7-1.43-1.14,0-1.32-.08Z"></path>
      <path class="cls-10" d="M51.86,103.85c0,.23,0,.83.59.86a8.3,8.3,0,0,0,1.26,0l1.46-1.7c.25-.25.45-.28-.47-.33s-1-.27-1.7,0a2.35,2.35,0,0,0-1.14,1.19"></path>
      <path class="cls-11" d="M53.71,104.68a11.08,11.08,0,0,0,.83-1.31c.3-.61.35-.79.93-.65s2,0,2.44.44.45.38.17,1.11a2.85,2.85,0,0,1-1.49,1.47,1.58,1.58,0,0,1-1.81,0,4,4,0,0,1-1.07-1.1"></path>
      <path class="cls-8" d="M49,99.69a2.67,2.67,0,0,0,.1-2.73c-.86-1.21-2.11-1.39-2.41-1l-.35.67c-.22.45,1,.85,1,.88Z"></path>
      <path class="cls-9" d="M47.63,100.92s1.7-1,1.49-1.73a15.08,15.08,0,0,1-.35-1.51l-.4-.08s-1,1.08-1,1.39,0,.87,0,1Z"></path>
      <path class="cls-10" d="M47.39,100.94c.18,0,.63,0,.62-.5a7.72,7.72,0,0,0-.11-1l-1.4-1c-.2-.17-.23-.32-.21.38s-.15.74.12,1.3a1.75,1.75,0,0,0,1,.78"></path>
      <path class="cls-11" d="M47.9,99.48a7.93,7.93,0,0,0-1.06-.54c-.49-.2-.62-.22-.55-.67s-.13-1.51.17-1.89.26-.37.84-.2a2.12,2.12,0,0,1,1.21,1,1.18,1.18,0,0,1,.15,1.38,3,3,0,0,1-.76.88"></path>
      <path class="cls-8" d="M40.56,101.7a1.17,1.17,0,0,0,.38-1.12c-.2-.61-.69-.85-.86-.74l-.23.24.29.48Z"></path>
      <path class="cls-9" d="M39.82,102s.83-.21.84-.52,0-.67,0-.67l-.15-.09-.58.45-.12.42Z"></path>
      <path class="cls-10" d="M39.71,102l.33-.13.08-.41-.46-.59c-.06-.1,0-.17-.13.13s-.16.29-.12.55a.81.81,0,0,0,.3.45"></path>
      <path class="cls-11" d="M40.12,101.47l-.37-.36-.15-.35.32-.76.37,0a1,1,0,0,1,.37.59.51.51,0,0,1-.12.59Z"></path>
      <path class="cls-8" d="M38,106.37s1.64-2.64.13-4.73-3.65-2.38-4.18-1.76a8,8,0,0,0-.6,1.16c-.37.77,1.66,1.46,1.69,1.51Z"></path>
      <path class="cls-9" d="M35.56,108.52s2.94-1.79,2.56-3-.63-2.62-.63-2.62l-.69-.14s-1.69,1.88-1.69,2.42.08,1.51.06,1.75Z"></path>
      <path class="cls-10" d="M35.13,108.56c.31,0,1.1,0,1.07-.87A12.44,12.44,0,0,0,36,106s-2.09-1.41-2.44-1.72-.41-.56-.36.66-.25,1.29.21,2.24a3.1,3.1,0,0,0,1.71,1.35"></path>
      <path class="cls-11" d="M36,106a14.22,14.22,0,0,0-1.84-.93c-.85-.33-1.08-.37-1-1.16s-.23-2.61.29-3.28.45-.64,1.44-.34a3.69,3.69,0,0,1,2.12,1.78,2.05,2.05,0,0,1,.27,2.38A5.33,5.33,0,0,1,36,106"></path>
      <path class="cls-12" d="M53.56,58.4a3.08,3.08,0,0,0-1.75,1.08,13.94,13.94,0,0,0-1.36,1.94A19.33,19.33,0,0,1,38.8,70a19.07,19.07,0,0,0,8.14-5.11A18.79,18.79,0,0,0,49.75,61a15.22,15.22,0,0,1,1.34-2.14,4.06,4.06,0,0,1,2.27-1.54Z"></path>
      <path class="cls-12" d="M53.48,59.58a17.18,17.18,0,0,0-4.69,9.59,17.51,17.51,0,0,0,2,10.67,17.77,17.77,0,0,1-2.48-10.73,18,18,0,0,1,4.43-10.26Z"></path>
      <path class="cls-12" d="M54.78,60.25a13.16,13.16,0,0,0-1.27,6.32,52,52,0,0,0,.72,6.65A31.89,31.89,0,0,1,54.66,80a11.55,11.55,0,0,1-2.13,6.34A11.46,11.46,0,0,0,54.39,80a31.12,31.12,0,0,0-.69-6.66,51.32,51.32,0,0,1-1-6.72,14,14,0,0,1,1.11-6.82Z"></path>
      <path class="cls-12" d="M57.47,60.2a10,10,0,0,0-1.26,6.09,27.93,27.93,0,0,0,1.44,6.37,35.42,35.42,0,0,1,1.62,6.45,11.31,11.31,0,0,1-.93,6.5A11.17,11.17,0,0,0,59,79.15a34.63,34.63,0,0,0-1.86-6.32,28.79,28.79,0,0,1-1.74-6.46,11,11,0,0,1,1.15-6.72Z"></path>
      <path class="cls-12" d="M57.47,58.63a9.19,9.19,0,0,1,2.67,4.31c.54,1.56.9,3.14,1.51,4.62a9.55,9.55,0,0,0,1.14,2.08,15.9,15.9,0,0,0,1.63,1.77A8.57,8.57,0,0,1,66,73.32a3.59,3.59,0,0,1,.46,2.37,3.53,3.53,0,0,0-.57-2.3,8.54,8.54,0,0,0-1.61-1.79,17.7,17.7,0,0,1-1.76-1.71,10,10,0,0,1-1.31-2.11c-.72-1.5-1.16-3.08-1.77-4.56a8.29,8.29,0,0,0-2.58-3.74Z"></path>
      <path class="cls-12" d="M60.28,59.19a38.88,38.88,0,0,1,8.2,11.26A38.32,38.32,0,0,0,59.57,60Z"></path>
      <path class="cls-12" d="M51.37,59s1.37-.31.91,1c0,0,1.68-.92,1.47,1,0,0,2.29-2.39,2.45-.15,0,0,1.22-1.27,1.83-.41a3,3,0,0,1,2.79.21,2.77,2.77,0,0,0-1.47-2.85C57.47,56.59,54.62,55.11,51.37,59Z"></path>
      <polygon class="cls-13" points="0 36.73 57.69 60.84 110.12 38.61 57.69 20.11 0 36.73"></polygon>
      <path class="cls-14" d="M93.69,40.07s-7.75-8.65-13-10.38-12.06-3.84-17.26-.63S58,35.29,58.14,37s3,5.29,3,5.29-6-7.37-.31-9.86,10.62-.39,16.22,4.33,13.6,4.94,13.6,4.94S93.2,41.34,93.69,40.07Z"></path>
      <path class="cls-15" d="M65.59,28.48s3-1.89,10.08.31,11.83,5.89,13.54,8,4.76,3,2.93,3.72S83.82,39.44,80,36.88c-4.42-3-7.92-5-10.63-5.34C64.12,30.82,63.74,29.79,65.59,28.48Z"></path>
      <g class="cls-16">
        <path class="cls-17" d="M61.17,30.58a10.13,10.13,0,0,1,8.3-1.47l4.15,1.1a26.39,26.39,0,0,1,4.1,1.39,24.47,24.47,0,0,1,3.73,2.22c1.18.8,2.38,1.57,3.58,2.35s2.41,1.52,3.66,2.22a19.17,19.17,0,0,0,3.87,1.8,30.92,30.92,0,0,1-7.77-3.63c-1.24-.72-2.44-1.51-3.64-2.3a24.08,24.08,0,0,0-3.67-2.12c-2.55-1.2-5.41-1.7-8.13-2.6A10.5,10.5,0,0,0,61.17,30.58Z"></path>
      </g>
      <g class="cls-18">
        <path class="cls-19" d="M65.74,28.86a9.79,9.79,0,0,1,2.64-.32,11.81,11.81,0,0,1,2.6.57c1.7.45,3.42.88,5.11,1.39a14,14,0,0,1,4.78,2.35l4.32,3c-1.53-.88-3-1.82-4.5-2.8a20.57,20.57,0,0,0-2.26-1.33A12.75,12.75,0,0,0,76,30.89c-1.68-.56-3.39-1-5.08-1.49a11.14,11.14,0,0,0-2.53-.67A9.3,9.3,0,0,0,65.74,28.86Z"></path>
      </g>
      <g class="cls-20">
        <path class="cls-17" d="M91,41.6A38.74,38.74,0,0,1,85.43,41a16.62,16.62,0,0,1-5.31-1.85c-1.6-1-3.08-2.15-4.57-3.28a20.81,20.81,0,0,0-4.71-2.93,17.23,17.23,0,0,0-5.39-1.26,7.83,7.83,0,0,0-5.25,1.26l-.51.46c-.16.16-.29.35-.44.53a3.54,3.54,0,0,0-.61,1.21,5,5,0,0,0,.17,2.71,13.77,13.77,0,0,0,2.75,4.83,14,14,0,0,1-2.92-4.78,5.19,5.19,0,0,1-.19-2.82,3.54,3.54,0,0,1,.62-1.28c.15-.19.29-.38.45-.56l.53-.49a8.12,8.12,0,0,1,5.42-1.36A17.41,17.41,0,0,1,71,32.58a21.25,21.25,0,0,1,4.76,3c1.48,1.15,2.94,2.31,4.51,3.32a16.8,16.8,0,0,0,5.22,1.87A38.45,38.45,0,0,0,91,41.6Z"></path>
      </g>
      <path class="cls-14" d="M61.85,41.63a9.29,9.29,0,0,1-4-4,10.38,10.38,0,0,1-1.08-5.86c.4-3.95,2-7.43,3.33-10.74a33.33,33.33,0,0,0,1.63-4.92,16.1,16.1,0,0,0,.38-2.46l0-1.24,0-1.42A36.16,36.16,0,0,1,63.68,0a96.46,96.46,0,0,0,.71,10.86l.19,1.32c.06.48.13,1,.16,1.5a15.55,15.55,0,0,1-.19,3A25.83,25.83,0,0,1,63,22.19c-1.37,3.48-3,6.66-3.79,10a9.85,9.85,0,0,0,.09,4.91A11.09,11.09,0,0,0,61.85,41.63Z"></path>
      <path class="cls-21" d="M61.85,41.63a9.37,9.37,0,0,1-5.61-6.39,10.94,10.94,0,0,1,0-4.45,25.37,25.37,0,0,1,1.21-4.2c1-2.7,2.21-5.28,3.09-7.95a28.83,28.83,0,0,0,1.56-8.31,21.62,21.62,0,0,1-.66,8.57c-.73,2.81-1.9,5.46-2.87,8.1a26.59,26.59,0,0,0-1.21,4A14.38,14.38,0,0,0,57,33a10.45,10.45,0,0,0,.12,2A10,10,0,0,0,61.85,41.63Z"></path>
      <path class="cls-21" d="M56.71,36.07s-.45-2.62-1.52-3.72-2-1.16-3-1.69a42.25,42.25,0,0,0-4.84-2.72c-1.43-.52-6.38-1.47-8.49-1s-6,1.73-6.85,2a15.79,15.79,0,0,0-4.47,1c-1.92.9-4,1.16-5.64,4,0,0,1-1.42,1.93-1.56s3.67-.19,4.85-.42a13.55,13.55,0,0,1,4,.17,6,6,0,0,0,2.67.61,5.66,5.66,0,0,1,3.07.95c.71.37,5.42.94,6.38,1.11a61.14,61.14,0,0,0,7.7,1.07C54.89,35.86,56.71,36.07,56.71,36.07Z"></path>
      <path class="cls-14" d="M55.78,34.89s-1.11-3.69-3.44-3.28,1.16,3.31,2,3.42A2.64,2.64,0,0,0,55.78,34.89Z"></path>
      <path class="cls-14" d="M49.36,32.86s2.57-1.09.41-2.62-3.76-2-5.21-2-3.85-.5-4.89-.31a61,61,0,0,0-6.91,1.31c-1.77.61,3.77,1.06,5.29,1.14S48,33,49.36,32.86Z"></path>
      <path class="cls-14" d="M48,33.35a3.81,3.81,0,0,1,1.7,1c.66.64,1.29,1.41,0,1a27.22,27.22,0,0,0-4.32-.83,21.49,21.49,0,0,1-5-1.32c-1.77-.69-3.9-1.5-4.61-1.65-1.28-.28-2.72-.75-2.72-.75s-.08-.76,4.49.14C41.15,31.61,46.05,32.85,48,33.35Z"></path>
      <path class="cls-22" d="M51.9,34.06a40.32,40.32,0,0,0-4.41-1.53c-1.5-.44-3-.82-4.53-1.15s-3.05-.65-4.59-.91A27.82,27.82,0,0,0,33.73,30V30a20.53,20.53,0,0,1,4.7.15c1.56.18,3.09.5,4.63.8s3,.76,4.53,1.26c.74.25,1.48.52,2.21.81s1.43.65,2.12,1Z"></path>
      <path class="cls-23" d="M54.18,35.06a40.56,40.56,0,0,0-6.83-2.44c-2.35-.62-4.7-1.23-7.07-1.71a22.89,22.89,0,0,0-3.57-.5c-1.22,0-2.44-.12-3.64-.24-.61-.07-1.21-.14-1.81-.19a2.74,2.74,0,0,0-.86,0c-.29.06-.58.14-.88.22-1.16.32-2.34.63-3.49,1l0,0c1.13-.46,2.28-.84,3.44-1.2l.88-.26a3.1,3.1,0,0,1,1-.07c.61,0,1.22.07,1.82.12,1.21.12,2.41.22,3.62.25a23.06,23.06,0,0,1,3.63.57c2.37.52,4.71,1.18,7,1.83A42,42,0,0,1,54.2,35Z"></path>
      <path class="cls-14" d="M61.08,42.84S62.7,38,59,35.66s-4.38-.17-6.42-.06a20.39,20.39,0,0,1-5.29-.42C45.05,34.81,41,34.11,41,34.11s4.48,1.25,5.45,1.48,2.42.78,3.36,1,6.39,1.15,7,1.33.14.1.5.69.33,1,1.07,1.07.92.16,1.21,1.06A4.45,4.45,0,0,0,61.08,42.84Z"></path>
      <path class="cls-17" d="M59,35.66a9.14,9.14,0,0,0-1.3-.71,1.87,1.87,0,0,1,.15.32A8.18,8.18,0,0,1,59.92,37a1.23,1.23,0,0,1,.17,1.39,1,1,0,0,1-1.23.26,14,14,0,0,0-1.94-.6c.45.14.07.11.41.66s.33,1,1.07,1.07.92.16,1.21,1.06a4.45,4.45,0,0,0,1.47,2.05S62.7,38,59,35.66Z"></path>
      <path class="cls-23" d="M61.08,42.84a7.83,7.83,0,0,0,.3-3.29A5.64,5.64,0,0,0,60,36.64a8.32,8.32,0,0,0-2.73-1.76,2.56,2.56,0,0,0-1.52-.25,4.38,4.38,0,0,0-1.44.68,3,3,0,0,1-1.69.49L51,35.69c-1.11-.08-2.23-.14-3.34-.28A66.34,66.34,0,0,1,41,34.11l3.3.54c1.1.2,2.2.36,3.3.45s2.22.17,3.33.22l1.67.09A2.49,2.49,0,0,0,54.11,35a4.74,4.74,0,0,1,1.58-.71,2.93,2.93,0,0,1,1.73.3,8,8,0,0,1,2.81,1.88,5.81,5.81,0,0,1,1.34,3.1A7.76,7.76,0,0,1,61.08,42.84Z"></path>
      <path class="cls-8" d="M58.45,45.39A1.15,1.15,0,0,0,57.34,45c-.61.19-.85.67-.75.85a1.64,1.64,0,0,0,.23.23c.15.15.48-.27.49-.28Z"></path>
      <path class="cls-24" d="M58.77,46.13s-.19-.84-.51-.85-.67-.06-.67-.06l-.09.15s.31.55.44.6l.42.12A3.73,3.73,0,0,0,58.77,46.13Z"></path>
      <path class="cls-10" d="M58.75,46.23a.23.23,0,0,0-.13-.32,3.28,3.28,0,0,0-.4-.09l-.6.44c-.1.06-.17.05.12.14s.29.16.55.13A.81.81,0,0,0,58.75,46.23Z"></path>
      <path class="cls-11" d="M58.22,45.82a3.3,3.3,0,0,0-.37.36c-.15.18-.17.23-.35.14s-.64-.15-.76-.33-.11-.16,0-.37a.91.91,0,0,1,.59-.36.49.49,0,0,1,.58.13A1.29,1.29,0,0,1,58.22,45.82Z"></path>
      <path class="cls-8" d="M42.73,39.67A1.7,1.7,0,0,0,41,39.43c-.82.46-1,1.23-.81,1.45a2.79,2.79,0,0,0,.4.26c.26.17.6-.54.61-.55Z"></path>
      <path class="cls-24" d="M43.41,40.64s-.53-1.15-1-1.06-1,.12-1,.12l-.08.25s.61.69.81.71.55,0,.64.05A4,4,0,0,0,43.41,40.64Z"></path>
      <path class="cls-10" d="M43.41,40.8c0-.12,0-.41-.27-.43a3.68,3.68,0,0,0-.62,0s-.6.7-.72.81-.22.13.22.17.46.14.83,0A1.13,1.13,0,0,0,43.41,40.8Z"></path>
      <path class="cls-11" d="M42.52,40.37a5.2,5.2,0,0,0-.41.63c-.16.29-.18.38-.46.31s-1,0-1.18-.25-.22-.19-.07-.53a1.34,1.34,0,0,1,.74-.7.75.75,0,0,1,.88,0A2,2,0,0,1,42.52,40.37Z"></path>
      <path class="cls-8" d="M53.83,37.4s-3.54-1.76-6,.39-2.59,4.93-1.75,5.53a14.14,14.14,0,0,0,1.55.62c1,.37,1.66-2.29,1.72-2.32S53.83,37.4,53.83,37.4Z"></path>
      <path class="cls-24" d="M56.86,40.2s-2.63-3.52-4.13-2.9-3.24,1.11-3.24,1.11l-.1.89s2.59,1.92,3.27,1.86,1.91-.28,2.21-.28A15.06,15.06,0,0,0,56.86,40.2Z"></path>
      <path class="cls-10" d="M57,40.73c0-.39-.18-1.39-1.24-1.26a14.87,14.87,0,0,0-2.08.45s-1.55,2.81-1.89,3.29-.67.59.87.39,1.66.16,2.83-.54A4,4,0,0,0,57,40.73Z"></path>
      <path class="cls-11" d="M53.64,39.92a18.22,18.22,0,0,0-1,2.44c-.32,1.12-.34,1.42-1.35,1.37s-3.29.6-4.19,0-.87-.49-.62-1.78a4.7,4.7,0,0,1,2-2.9,2.63,2.63,0,0,1,3-.63A6.89,6.89,0,0,1,53.64,39.92Z"></path>
      <path class="cls-8" d="M67.45,38.53s-2-2.77-4.81-2.09-4,2.79-3.55,3.59A10.7,10.7,0,0,0,60,41.12c.64.7,2.19-1.11,2.25-1.11S67.45,38.53,67.45,38.53Z"></path>
      <path class="cls-24" d="M68.68,41.9s-.64-3.77-2-3.89-3-.42-3-.42l-.44.65S64.49,40.75,65,41s1.6.54,1.83.66A14.5,14.5,0,0,0,68.68,41.9Z"></path>
      <path class="cls-10" d="M68.54,42.35c.13-.31.42-1.15-.45-1.46a12.93,12.93,0,0,0-1.79-.49S64,42,63.52,42.2s-.74.19.53.65,1.22.78,2.4.7A3.45,3.45,0,0,0,68.54,42.35Z"></path>
      <path class="cls-11" d="M66.3,40.4a15.45,15.45,0,0,0-1.72,1.51c-.69.73-.83,1-1.59.52s-2.78-.84-3.26-1.65-.47-.72.24-1.62a4.08,4.08,0,0,1,2.7-1.45,2.31,2.31,0,0,1,2.58.7A6,6,0,0,1,66.3,40.4Z"></path>
      <path class="cls-8" d="M58,40s-2.93-2.26-5.58-.73-3.27,4-2.6,4.75a9.37,9.37,0,0,0,1.31.85c.86.53,1.93-1.79,2-1.82S58,40,58,40Z"></path>
      <path class="cls-24" d="M60.23,43.08s-1.77-3.7-3.25-3.4-3.17.43-3.17.43l-.26.8s2,2.23,2.66,2.3,1.81.09,2.08.14A14.37,14.37,0,0,0,60.23,43.08Z"></path>
      <path class="cls-10" d="M60.23,43.59c0-.37.09-1.31-.91-1.38a15.19,15.19,0,0,0-2,0s-1.92,2.3-2.32,2.68-.72.42.73.52,1.49.44,2.69,0A3.71,3.71,0,0,0,60.23,43.59Z"></path>
      <path class="cls-11" d="M57.33,42.24A16.54,16.54,0,0,0,56,44.31c-.5,1-.57,1.24-1.49,1s-3.12,0-3.85-.74-.7-.61-.24-1.74a4.41,4.41,0,0,1,2.37-2.3,2.47,2.47,0,0,1,2.86,0A6.31,6.31,0,0,1,57.33,42.24Z"></path>
      <path class="cls-8" d="M73.2,45.1a1.76,1.76,0,0,0,1.63-.8c.43-.88.15-1.67-.16-1.73a4.11,4.11,0,0,0-.5,0c-.32,0-.19.83-.21.85Z"></path>
      <path class="cls-24" d="M72,44.68s1.14.67,1.48.33a9.25,9.25,0,0,1,.77-.69l-.07-.26a3.8,3.8,0,0,0-1.13-.14c-.18.1-.49.3-.58.34A4.25,4.25,0,0,0,72,44.68Z"></path>
      <path class="cls-10" d="M72,44.54c.06.11.21.37.49.21a4.13,4.13,0,0,0,.53-.37s.1-1,.14-1.13.12-.24-.29,0-.48.15-.72.48A1.21,1.21,0,0,0,72,44.54Z"></path>
      <path class="cls-11" d="M73,44.38a6,6,0,0,0,0-.79c0-.34-.07-.43.22-.53s.84-.55,1.16-.49.3,0,.38.42a1.44,1.44,0,0,1-.22,1,.8.8,0,0,1-.76.52A2,2,0,0,1,73,44.38Z"></path>
      <path class="cls-8" d="M34.19,47.14a1.77,1.77,0,0,0,1.62-.8c.44-.89.16-1.67-.15-1.74a2.9,2.9,0,0,0-.5,0c-.33,0-.2.82-.21.84Z"></path>
      <path class="cls-24" d="M33,46.71s1.13.67,1.48.33.77-.68.77-.68l-.08-.26A3.43,3.43,0,0,0,34.08,46c-.18.09-.5.3-.58.33A5.59,5.59,0,0,0,33,46.71Z"></path>
      <path class="cls-10" d="M32.94,46.58a.34.34,0,0,0,.49.2,4.71,4.71,0,0,0,.53-.36s.1-1,.14-1.13.12-.24-.29,0-.48.15-.72.48A1.2,1.2,0,0,0,32.94,46.58Z"></path>
      <path class="cls-11" d="M34,46.42a6,6,0,0,0,0-.79c0-.35-.07-.44.22-.54s.84-.54,1.16-.49.3,0,.38.43a1.39,1.39,0,0,1-.23,1,.77.77,0,0,1-.76.52A1.88,1.88,0,0,1,34,46.42Z"></path>
      <path class="cls-8" d="M45.33,45.73a2.25,2.25,0,0,0,2.14-.88c.64-1.08.34-2.1,0-2.22a4,4,0,0,0-.64,0c-.42,0-.32,1-.34,1Z"></path>
      <path class="cls-24" d="M43.89,45.09s1.39.95,1.86.55,1-.81,1-.81l-.07-.33a4.8,4.8,0,0,0-1.42-.28c-.24.11-.66.34-.77.38A6.11,6.11,0,0,0,43.89,45.09Z"></path>
      <path class="cls-10" d="M43.79,44.91c.06.13.24.48.61.3a6.23,6.23,0,0,0,.7-.42s.22-1.21.28-1.42.17-.3-.36,0-.63.15-1,.55A1.55,1.55,0,0,0,43.79,44.91Z"></path>
      <path class="cls-11" d="M45.1,44.79a7.12,7.12,0,0,0,0-1c0-.45,0-.56.32-.66s1.12-.62,1.52-.53.38.08.45.58a1.84,1.84,0,0,1-.38,1.3,1,1,0,0,1-1,.59A2.52,2.52,0,0,1,45.1,44.79Z"></path>
      <path class="cls-8" d="M53.47,44.15a1.43,1.43,0,0,1,1.32-.2c.65.3.82.82.67,1a1.68,1.68,0,0,1-.31.19c-.2.12-.48-.36-.49-.36Z"></path>
      <path class="cls-24" d="M53,44.83s.38-.8.74-.75.76.07.76.07l.07.16s-.46.49-.61.51l-.5,0A3,3,0,0,1,53,44.83Z"></path>
      <path class="cls-10" d="M53,44.93a.22.22,0,0,1,.21-.29,3.16,3.16,0,0,1,.47,0s.48.47.58.55.18.08-.17.11-.35.11-.64,0A.84.84,0,0,1,53,44.93Z"></path>
      <path class="cls-11" d="M53.64,44.62a4.06,4.06,0,0,1,.34.43c.13.19.14.25.36.19s.74,0,.91-.18.16-.14,0-.37a1,1,0,0,0-.59-.46.66.66,0,0,0-.68,0A1.55,1.55,0,0,0,53.64,44.62Z"></path>
      <path class="cls-8" d="M65.41,40.79s-2.75-2-5.18-.56-2.95,3.8-2.31,4.44a9.22,9.22,0,0,0,1.22.76c.82.47,1.75-1.7,1.81-1.72S65.41,40.79,65.41,40.79Z"></path>
      <path class="cls-24" d="M67.56,43.62s-1.71-3.38-3.07-3.08-2.93.46-2.93.46l-.22.75s1.91,2,2.51,2.07,1.67,0,1.92.09A13.39,13.39,0,0,0,67.56,43.62Z"></path>
      <path class="cls-10" d="M67.57,44.09c0-.33.06-1.21-.86-1.25a13.08,13.08,0,0,0-1.85.07s-1.73,2.16-2.1,2.52-.65.4.69.46,1.39.38,2.49,0A3.45,3.45,0,0,0,67.57,44.09Z"></path>
      <path class="cls-11" d="M64.86,42.91a14.85,14.85,0,0,0-1.18,1.93c-.44.9-.5,1.16-1.36,1s-2.89,0-3.57-.61-.67-.55-.26-1.61a4.06,4.06,0,0,1,2.15-2.17,2.27,2.27,0,0,1,2.64-.09A5.84,5.84,0,0,1,64.86,42.91Z"></path>
      <path class="cls-8" d="M50.73,44s-2.25-.41-3.27,1.19-.65,3.16-.08,3.35a5.69,5.69,0,0,0,1,.09c.63,0,.55-1.53.58-1.56S50.73,44,50.73,44Z"></path>
      <path class="cls-24" d="M52.86,45s-2-1.53-2.76-.95a18.34,18.34,0,0,1-1.62,1.14l.09.52a7.1,7.1,0,0,0,2.12.5c.37-.14,1-.46,1.18-.51A8.47,8.47,0,0,0,52.86,45Z"></path>
      <path class="cls-10" d="M53,45.32c-.08-.21-.32-.75-.89-.5A9.65,9.65,0,0,0,51,45.4s-.41,1.81-.52,2.14-.27.43.55.07.95-.18,1.48-.76A2.24,2.24,0,0,0,53,45.32Z"></path>
      <path class="cls-11" d="M51,45.4a9.53,9.53,0,0,0-.14,1.51c0,.68,0,.85-.53,1s-1.73.87-2.33.69-.56-.13-.63-.89a2.76,2.76,0,0,1,.65-1.93,1.52,1.52,0,0,1,1.56-.84A4,4,0,0,1,51,45.4Z"></path>
    </g>
  </g>
</svg>
