<?xml version="1.0" encoding="UTF-8"?>
<svg xmlns="http://www.w3.org/2000/svg" viewBox="0 0 83.2 113.13">
  <defs>
    <style>.cls-1{fill:#a29274;}.cls-2{fill:#e3e0c9;}.cls-3{fill:#fcedce;}.cls-4{fill:#bda885;}.cls-5{fill:#d0c5a6;}.cls-6{fill:#8f8267;}.cls-7{fill:#ab967a;opacity:0.25;}.cls-8{fill:#9b8d71;}.cls-9{fill:#7c705b;}.cls-10{fill:#deebdd;}.cls-11{fill:#817870;}.cls-12{fill:#93c63e;}.cls-13{fill:#3f6c3e;}.cls-14{fill:#e6f5b2;}.cls-15,.cls-16{fill:none;stroke:#e6f5b2;stroke-miterlimit:10;}.cls-15{stroke-width:0.04px;}.cls-16{stroke-width:0.11px;}.cls-17{opacity:0.99;}</style>
  </defs>
  <g id="Слой_2" data-name="Слой 2">
    <g id="Слой_1-2" data-name="Слой 1">
      <polygon class="cls-1" points="41.66 58.4 83.2 40.72 76.97 88.55 41.66 113.13 41.66 58.4"></polygon>
      <polygon class="cls-2" points="41.66 28.76 83.2 40.72 41.66 58.4 0 40.72 41.66 28.76"></polygon>
      <polygon class="cls-3" points="41.66 28.76 0 40.72 0.73 41.02 82.81 40.6 41.66 28.76"></polygon>
      <polygon class="cls-4" points="6.23 88.55 0 40.72 41.66 58.4 41.66 113.13 6.23 88.55"></polygon>
      <path class="cls-5" d="M26.18,41.3a25.92,25.92,0,0,1,2-2.1,20.84,20.84,0,0,1,2.29-1.77,22.82,22.82,0,0,1,5.21-2.53,26.91,26.91,0,0,1,5.66-1.19c1-.13,1.93-.1,2.88-.15s1.92.09,2.87.17c-1,.11-1.9.15-2.85.25s-1.88.21-2.81.39-1.86.31-2.77.57-1.81.49-2.71.76A31.09,31.09,0,0,0,30.78,38,29.41,29.41,0,0,0,26.18,41.3Z"></path>
      <polygon class="cls-6" points="41.66 58.4 83.2 40.72 76.97 88.55 41.66 113.13 41.66 58.4"></polygon>
      <polygon class="cls-7" points="6.23 88.55 0 40.72 41.66 58.4 41.66 113.13 6.23 88.55"></polygon>
      <polygon class="cls-8" points="41.66 113.13 6.23 88.55 41.82 75.1 76.97 88.55 41.66 113.13"></polygon>
      <path class="cls-9" d="M13.76,67.52a12.85,12.85,0,0,1-1.08-6.94,11.29,11.29,0,0,1,3.07-6.42,15.7,15.7,0,0,1,6.12-3.64,26.1,26.1,0,0,1,6.93-1.24,38.94,38.94,0,0,0-6.71,1.86,16.13,16.13,0,0,0-5.73,3.61,11,11,0,0,0-3,5.93,15.09,15.09,0,0,0,.43,6.84Z"></path>
      <path class="cls-9" d="M52.47,66.86a1.2,1.2,0,0,0,.53.33l.59.25c.4.15.8.29,1.21.41.81.28,1.63.53,2.45.74,1.65.44,3.31.85,5,1.18,3.35.69,6.73,1.13,10.16,1.52a37.35,37.35,0,0,1-10.33-.69,36.31,36.31,0,0,1-5-1.38c-.82-.3-1.62-.62-2.41-1-.39-.19-.78-.39-1.16-.6A2.93,2.93,0,0,1,52.47,66.86Z"></path>
      <path class="cls-9" d="M30.16,64.36a26.69,26.69,0,0,1-1,4.69,30.16,30.16,0,0,1-1.73,4.49,26.7,26.7,0,0,1-2.5,4.13A15.7,15.7,0,0,1,21.44,81a28.87,28.87,0,0,0,2.92-3.73,42.23,42.23,0,0,0,2.27-4.12c.69-1.41,1.29-2.87,1.89-4.33.3-.73.57-1.48.84-2.23S29.89,65.12,30.16,64.36Z"></path>
      <path class="cls-9" d="M43,102.43c1.69-.84,3.46-1.47,5.16-2.23s3.41-1.5,5-2.36a31.49,31.49,0,0,0,4.69-2.93,13.27,13.27,0,0,0,3.71-4.07,10.93,10.93,0,0,1-3.28,4.59,24.83,24.83,0,0,1-4.72,3.17,41.74,41.74,0,0,1-5.21,2.21c-.89.31-1.79.59-2.69.86Z"></path>
      <path class="cls-9" d="M23.56,97.18a8.75,8.75,0,0,1-4.64-4.33,3.92,3.92,0,0,1,.28-3.34,7.86,7.86,0,0,1,2.25-2.44,22.78,22.78,0,0,1,5.74-2.85,44.17,44.17,0,0,1,6.15-1.61c-2,.73-4,1.42-5.91,2.22A24.82,24.82,0,0,0,22,87.76a7.08,7.08,0,0,0-2.07,2.12,3.39,3.39,0,0,0-.34,2.76,6.18,6.18,0,0,0,1.61,2.53A13.75,13.75,0,0,0,23.56,97.18Z"></path>
      <path class="cls-9" d="M61.65,65.89c1-1.42,2.08-2.83,3.1-4.25s2-2.86,3-4.33a45.93,45.93,0,0,0,2.61-4.51,14.86,14.86,0,0,0,1.63-4.92,11.1,11.1,0,0,1-1,5.19,29,29,0,0,1-2.5,4.7A42.59,42.59,0,0,1,65.26,62,38.79,38.79,0,0,1,61.65,65.89Z"></path>
      <path class="cls-10" d="M42.06,47.92c-.37.64-.92-.18-1.29.37s.59,3.24,1.23,4.85c.35.86,1.42,6.53,1,8a18.93,18.93,0,0,0-1,4.2c0,.8.09,3.69.48,3.22s.24-2.17.38-3.49c.08-.69.94-2.69,1.16-4a23.15,23.15,0,0,0-.77-8.47C42.72,50.76,42.39,49.7,42.06,47.92Z"></path>
      <path class="cls-10" d="M40.83,50.1A11.68,11.68,0,0,1,36,52.88c-1.92.51-5.34,3.15-6,4.42s.9-.79,1.66-1.2,2.82-2.5,4.37-2.7A12.07,12.07,0,0,0,41.16,51C42,50.15,41.07,50.27,40.83,50.1Z"></path>
      <path class="cls-10" d="M42.6,51.25A12.71,12.71,0,0,0,47,54.31a9.6,9.6,0,0,1,4.3,5c.3,1.42-.69-.92-1.24-1.5s-1.86-2.73-3.26-3.05a11,11,0,0,1-4.47-2.58C41.46,51.26,42.17,51.58,42.6,51.25Z"></path>
      <path class="cls-10" d="M42.61,64.2a7,7,0,0,1-3.2.81,4.93,4.93,0,0,0-3.4,2.3c-.4.87.58-.47,1-.73s1.5-1.38,2.38-1.19a5.62,5.62,0,0,0,3-.41C43.11,64.62,42.76,64.59,42.61,64.2Z"></path>
      <path class="cls-10" d="M42.74,55.27c-1.74.66-3.4,1.18-5.16,1.74a7.91,7.91,0,0,0-4.08,3.15c-1.08,1.48,0-.75.39-1.21a9.71,9.71,0,0,1,3.48-2.31c1.92-.6,3.7-1,4.88-2.22S42.7,54.84,42.74,55.27Z"></path>
      <path class="cls-10" d="M43.6,60.08c1.15.57,2.08.73,3.28,1.36a14.65,14.65,0,0,1,3.29,3.15c.92,1-.36-.89-.63-1.22A11.22,11.22,0,0,0,47,61.05a9.09,9.09,0,0,1-3.18-1.88C42.94,58.21,43.58,59.71,43.6,60.08Z"></path>
      <polygon class="cls-3" points="0.73 41.02 41.66 58.4 83.2 40.72 82.81 40.6 0.73 41.02"></polygon>
      <ellipse class="cls-1" cx="42.97" cy="41.55" rx="9.59" ry="3.75"></ellipse>
      <ellipse class="cls-11" cx="43.22" cy="42.81" rx="7.91" ry="3.09"></ellipse>
      <path class="cls-12" d="M42.75,25.37a17.7,17.7,0,0,1-1.85-2A24.54,24.54,0,0,1,39,20.11a10.13,10.13,0,0,0-1.25-1.85c-.34-.49-.17-.34.14-.59s0-.84-.37-1-1.16-.52-1.1-1-.17-.55-.42-.88-.33-.3,0-.61a1.75,1.75,0,0,0,.4-1.57,15.58,15.58,0,0,1-.76-1.76c-.09-.48-.31-.91,0-1.25a1.68,1.68,0,0,0,.19-1.19c-.05-.36.06-.34.27-.54s.3-.57.51-.79.46-.45.37-.75S36.53,4.82,37,5s.61,0,.79-.37c-.1-.31-.37-.75,0-1A2.41,2.41,0,0,1,39,3,2,2,0,0,0,40,2.87a1.18,1.18,0,0,1,.67-1.28C41.21,1.26,42.29.41,42.82.2s.39-.19.62.14a1.21,1.21,0,0,0,1,.6c.47,0,1.57.2,1.82.57s-.48.53-.09.85,1.24.13,1.67.45c.06.23-.21.22.09.48a9.48,9.48,0,0,0,1.65.91c0,.75.43,1.31.51,2.06s.61.76.94,1.5A8.43,8.43,0,0,1,51.13,11c-.09.8-.4,1.25-.09,1.91a1.86,1.86,0,0,1,0,1.76c-.3.67-.75.54-1,1.44s.24,1.05-.51,2.52-2.7,5.34-4.42,6.51c-.37,1.25-.39-.25-.52,1.66a92,92,0,0,0-.26,9.54c-.49,0-1.57,2.25-1.78-.27-.08-1,.87-7,.64-9.06A5.33,5.33,0,0,0,42.75,25.37Z"></path>
      <path class="cls-13" d="M42.74,25.37A13.79,13.79,0,0,1,40.64,23,28.67,28.67,0,0,1,39,20.3,5.44,5.44,0,0,0,38.21,19c-.16-.2-.33-.4-.49-.62a2.8,2.8,0,0,1-.21-.34.15.15,0,0,1,.09-.2,1,1,0,0,0,.17-.1c.24-.13.18-.44,0-.64a1.16,1.16,0,0,0-.57-.5,3.47,3.47,0,0,1-.68-.42.66.66,0,0,1-.23-.35c0-.16,0-.26,0-.39s-.29-.4-.44-.62-.24-.17-.18-.39a3.23,3.23,0,0,1,.26-.32,1.66,1.66,0,0,0,.32-1.42c-.39-.94-1.1-1.88-.84-3a1.12,1.12,0,0,0,.24-.7,5.36,5.36,0,0,1,0-.81c.09-.16.22-.2.3-.3a1.38,1.38,0,0,0,.2-.31,2.21,2.21,0,0,1,.47-.65.76.76,0,0,0,.18-.31c0-.1,0-.21-.06-.35a4.29,4.29,0,0,1-.12-.8A.84.84,0,0,1,36.73,5,.24.24,0,0,1,37,4.88l.18,0c.26.06.42-.12.52-.36v.05a1.43,1.43,0,0,1-.16-.9c.17-.32.45-.42.71-.59a1.72,1.72,0,0,1,.87-.24,1.79,1.79,0,0,0,.84-.07l0,.07a1.53,1.53,0,0,1,.08-.7,1.14,1.14,0,0,1,.45-.54c.39-.24.75-.48,1.12-.74A8.63,8.63,0,0,1,42.71.18L43,.05a.65.65,0,0,1,.18,0,.22.22,0,0,1,.18.13,2.29,2.29,0,0,0,.41.51c.33.29.81.21,1.26.31a2,2,0,0,1,1.25.56.35.35,0,0,1,0,.38,1.11,1.11,0,0,0-.18.26c0,.15.24.27.43.31a4,4,0,0,1,1.33.31h0v0c0,.13-.07.27-.06.3a.7.7,0,0,0,.17.19,5.43,5.43,0,0,0,.51.32c.35.19.72.37,1.08.54l0,0v0A4.07,4.07,0,0,0,50,5.59c.19.45.09,1,.46,1.33a2.17,2.17,0,0,1,.75,1.24,6.48,6.48,0,0,1,.09,1.46c0,.48-.06,1-.11,1.45A5.87,5.87,0,0,0,51,12.5c.1.45.41.9.32,1.4a2.06,2.06,0,0,1-.65,1.29A1.74,1.74,0,0,0,50,16.43a4.38,4.38,0,0,1-.13,1.44,26.36,26.36,0,0,1-1.29,2.61c-.47.85-1,1.69-1.5,2.5a8.72,8.72,0,0,1-1.94,2.17l0,0a3.4,3.4,0,0,1-.12.34c0,.1-.1.27-.26.28a2.32,2.32,0,0,0-.11.63l-.09,1.42-.14,2.84c-.07,1.89-.16,3.79-.06,5.68v0l0,0c-.23.05-.43.32-.64.5s-.42.48-.77.37a1.12,1.12,0,0,1-.36-.79,3.63,3.63,0,0,1,0-.87c.08-1.14.23-2.28.36-3.42s.24-2.28.3-3.42A7,7,0,0,0,42.74,25.37Zm0,0a6.94,6.94,0,0,1,.45,3.38c-.06,1.14-.17,2.29-.29,3.43s-.26,2.28-.33,3.42a3.94,3.94,0,0,0,0,.84c.06.27.11.59.32.73s.47-.18.66-.36.36-.45.71-.54l-.06.06c-.1-1.9,0-3.8,0-5.7l.16-2.84.1-1.42,0-.35c0-.12,0-.25.15-.37s.24-.35.31-.55v0h0A9.16,9.16,0,0,0,47,22.93c.54-.8,1-1.63,1.51-2.48s1-1.7,1.3-2.59a4.93,4.93,0,0,0,.13-1.44,1.81,1.81,0,0,1,.66-1.26,2.09,2.09,0,0,0,.63-1.26,1.72,1.72,0,0,0-.09-.71,3.74,3.74,0,0,1-.24-.69,5.81,5.81,0,0,1,.19-1.44c.05-.48.09-1,.1-1.44a6.27,6.27,0,0,0-.09-1.44A2.1,2.1,0,0,0,50.35,7,1.18,1.18,0,0,1,50,6.32a3.24,3.24,0,0,0-.16-.7,4,4,0,0,1-.36-1.42l0,0c-.37-.17-.73-.35-1.09-.55a4.15,4.15,0,0,1-.53-.32.54.54,0,0,1-.21-.27c0-.17.1-.19.06-.28l0,0a4,4,0,0,0-1.29-.28c-.2-.06-.52-.12-.52-.46s.34-.37.22-.55A2.08,2.08,0,0,0,45,1.08c-.41-.1-.92,0-1.31-.34a1.83,1.83,0,0,1-.44-.53s-.06-.08-.07-.07l-.14,0L42.76.3A9.67,9.67,0,0,0,41.63,1c-.36.26-.75.52-1.12.74A1.11,1.11,0,0,0,40,2.87v0l0,0a2,2,0,0,1-.9.08,1.51,1.51,0,0,0-.81.23c-.23.14-.54.3-.64.51s.07.52.17.8v.05a1,1,0,0,1-.24.36.51.51,0,0,1-.43.09c-.14,0-.28-.09-.3,0a.6.6,0,0,0-.05.34,4,4,0,0,0,.11.76.93.93,0,0,1,.06.42.8.8,0,0,1-.21.37,1.93,1.93,0,0,0-.45.62,1.51,1.51,0,0,1-.23.35c-.09.1-.23.18-.26.26,0,.42.14,1.09-.24,1.53a.91.91,0,0,0,0,.71c.08.25.11.52.2.75.19.49.45.94.65,1.44a1.77,1.77,0,0,1-.35,1.55,2.83,2.83,0,0,0-.25.28c0,.06.09.18.16.28s.38.37.46.67c-.15.61.42.86.87,1.1a1.22,1.22,0,0,1,.59.53c.14.21.22.6-.07.76-.1.08-.3.1-.24.2a2.9,2.9,0,0,0,.2.33c.15.21.32.42.48.62a6.08,6.08,0,0,1,.82,1.36A25.84,25.84,0,0,0,40.67,23,14.13,14.13,0,0,0,42.75,25.36Z"></path>
      <path class="cls-14" d="M42.26.63a10.71,10.71,0,0,1,.42,2.1,9.5,9.5,0,0,0,0,2.13C42.66,6.34,44,7.38,44,8.92c0,.74-.3,1.42-.27,2.12s.14,1.42.22,2.13.17,1.42.24,2.13a6.59,6.59,0,0,0,.18,1.05,3.93,3.93,0,0,1,0,1.09,9.39,9.39,0,0,0,.06,2.12,10.88,10.88,0,0,1-.08,2.15,16.93,16.93,0,0,0,0,2.13L44.43,26a40.83,40.83,0,0,1-.14,4.3,19.38,19.38,0,0,1-.13,2.15c0,.35-.12.71-.14,1.06s0,.71,0,1.07h0c0-.36,0-.71,0-1.08s.06-.71.09-1.07a19,19,0,0,0,.08-2.13c0-1.45.22-2.86,0-4.28L44,23.87a15.49,15.49,0,0,1,0-2.16,10.94,10.94,0,0,0,.1-2.12,9.27,9.27,0,0,1,0-2.17,4.1,4.1,0,0,0,.05-1A6,6,0,0,1,44,15.32c-.06-.71-.14-1.42-.22-2.13s-.18-1.42-.2-2.15.28-1.42.29-2.12c.05-1.44-1.27-2.55-1.26-4a9.65,9.65,0,0,1,.06-2.15,10.85,10.85,0,0,0-.4-2.09Z"></path>
      <path class="cls-14" d="M39.33,4a3.47,3.47,0,0,1,.88.74c.25.3.41.65.63,1s.46.61.66,1a10.82,10.82,0,0,1,.38,1.09c.11.36.4.65.52,1a7.69,7.69,0,0,0,.39,1.08A13.5,13.5,0,0,1,43.73,12l-.13,0a14.86,14.86,0,0,0-.9-2.11,7.85,7.85,0,0,1-.38-1.09c-.11-.37-.39-.66-.51-1a9.93,9.93,0,0,0-.36-1.09c-.18-.33-.44-.63-.64-1s-.37-.67-.61-1A3.68,3.68,0,0,0,39.33,4Z"></path>
      <path class="cls-14" d="M38.14,6.42a4.23,4.23,0,0,1,2.59.8,3.91,3.91,0,0,1,.9,1c.25.37.71.57.92,1l-.1,0c-.17-.4-.62-.63-.89-1a3.76,3.76,0,0,0-.86-1A4.2,4.2,0,0,0,38.14,6.42Z"></path>
      <path class="cls-14" d="M37.33,9.55a5,5,0,0,1,1.89-.7,4.07,4.07,0,0,0,2,.18,1,1,0,0,1,1,.18,3.61,3.61,0,0,1,.39.94,1.13,1.13,0,0,0,.31.38,3.19,3.19,0,0,1,.33.4c.19.29.34.59.5.88l-.09,0c-.16-.29-.31-.6-.49-.88a4.08,4.08,0,0,0-.31-.39,1.05,1.05,0,0,1-.32-.4,4.3,4.3,0,0,0-.37-.93,1,1,0,0,0-.92-.18,4,4,0,0,1-2-.21A5,5,0,0,0,37.33,9.55Z"></path>
      <path class="cls-15" d="M36.87,6.67a9.27,9.27,0,0,1,1.2.65,3.88,3.88,0,0,1,.91.94,2.17,2.17,0,0,0,1.21.82"></path>
      <path class="cls-16" d="M44.22,17.14a12,12,0,0,0-.73-1.94A6.57,6.57,0,0,0,42.8,14a2.41,2.41,0,0,0-.69-.59c-.35-.22-.56-.72-.85-1s-.68-.2-1.15-.18a3.25,3.25,0,0,1-1.69-.36c-.44-.3-.78-.69-1.29-.75a8.73,8.73,0,0,0,2.9.24c.84-.14,1-.63,1.93-.41a2.08,2.08,0,0,1,1.79,1.69,1.26,1.26,0,0,1,.37-1.36,3.16,3.16,0,0,0,.67-2c0-.6-.37-.8-.09-1.32s1-.8,1.09-1.41-.32-1.25-.09-1.76.67-.81.75-1.31-.17-.61.3-.94"></path>
      <path class="cls-14" d="M43.06,14.49a2.2,2.2,0,0,0-.69-.52c-.26-.1-.57-.15-.85-.25a2.83,2.83,0,0,0-.84-.16,4.4,4.4,0,0,1-.86.24c-.62.16-1.16-.25-1.75-.28a8.65,8.65,0,0,0-.88,0,1.36,1.36,0,0,1-.87-.09c.26.17.57.08.87.07a6.7,6.7,0,0,1,.89,0c.6,0,1.13.42,1.73.25a3.75,3.75,0,0,0,.85-.25,3.25,3.25,0,0,1,.89.15c.28.1.57.14.86.25a2.11,2.11,0,0,1,.73.53Z"></path>
      <path class="cls-14" d="M43.25,36.49c-.07-.88-.15-1.76-.15-2.65s.14-1.76.2-2.64a21.28,21.28,0,0,0,.19-2.63c0-.43-.17-.85-.2-1.31a11.73,11.73,0,0,1,.12-1.33,5.14,5.14,0,0,0,0-1.3c0-.44,0-.88-.11-1.32a5.75,5.75,0,0,1,.11-2.64,5.16,5.16,0,0,0,.19-1.29c0-.44-.07-.88-.09-1.32a5.94,5.94,0,0,1,.07-1.33,2.84,2.84,0,0,0,.1-.65,3.68,3.68,0,0,0-.11-.65,3.74,3.74,0,0,1,.13.65,3,3,0,0,1-.09.66,5.73,5.73,0,0,0,0,1.31c0,.44.08.88.09,1.33a4.82,4.82,0,0,1-.18,1.31,5.89,5.89,0,0,0-.08,2.61c.06.43.08.88.12,1.32a4.94,4.94,0,0,1,0,1.33,9.85,9.85,0,0,0-.13,1.31c0,.42.16.85.18,1.3a21.2,21.2,0,0,1-.21,2.65c-.07.88-.19,1.75-.22,2.63S43.2,35.61,43.25,36.49Z"></path>
      <path class="cls-14" d="M43.67,16.63a3.19,3.19,0,0,0-1.64-1,4.17,4.17,0,0,0-.94-.11l-.49,0a.65.65,0,0,1-.49-.14.88.88,0,0,0-.73-.5,2.15,2.15,0,0,0-.87.32c-.29.15-.58.29-.85.46s-.49.42-.74.62c.24-.21.45-.47.71-.66a7.87,7.87,0,0,1,.84-.48,2.1,2.1,0,0,1,.92-.35,1,1,0,0,1,.81.52c.08.11.25.11.41.12l.48,0a3.9,3.9,0,0,1,1,.13A3,3,0,0,1,43.67,16.63Z"></path>
      <path class="cls-14" d="M40.63,15.54a3.21,3.21,0,0,0-.77.18,4,4,0,0,0-.65.45,5.32,5.32,0,0,1-1.38.81,5.64,5.64,0,0,0,1.34-.85,3.48,3.48,0,0,1,.66-.48,2.74,2.74,0,0,1,.78-.21Z"></path>
      <path class="cls-15" d="M39.23,13.78a5.54,5.54,0,0,0-.58.72c-.17.27-.19.66-.46.85"></path>
      <path class="cls-14" d="M43.32,21.11a4.27,4.27,0,0,0-.76-1.33,14.27,14.27,0,0,1-1.09-1.11,7.63,7.63,0,0,0-1-1.19A1.51,1.51,0,0,0,39,17.2a1.55,1.55,0,0,1,1.48.26,7.59,7.59,0,0,1,1,1.18,12.59,12.59,0,0,0,1.11,1.08,4.58,4.58,0,0,1,.8,1.34Z"></path>
      <path class="cls-16" d="M43.38,23.34a12.81,12.81,0,0,0-1.28-2.16,3,3,0,0,0-3-.8"></path>
      <path class="cls-14" d="M44,23.22a4.14,4.14,0,0,1,.65-.54,2,2,0,0,0,.53-.62c.29-.47.49-1,.77-1.49a12,12,0,0,1,.9-1.44,4.13,4.13,0,0,1,.56-.62.93.93,0,0,1,.76-.3.9.9,0,0,0-.75.31,4.68,4.68,0,0,0-.55.63A13.17,13.17,0,0,0,46,20.6c-.27.49-.45,1-.74,1.51a2.31,2.31,0,0,1-.54.67,3.66,3.66,0,0,0-.63.54Z"></path>
      <path class="cls-14" d="M45.31,21.9a18.08,18.08,0,0,0,3-1.15,17.29,17.29,0,0,1-3,1.28Z"></path>
      <path class="cls-14" d="M44.12,21.22A5.43,5.43,0,0,1,44.79,19a15,15,0,0,0,1.11-2,1.54,1.54,0,0,1,1.81-1.12,9.24,9.24,0,0,0,2.25.39A7.52,7.52,0,0,1,47.7,16a1.32,1.32,0,0,0-1.05.2,1.83,1.83,0,0,0-.4.38,2.64,2.64,0,0,0-.23.51,12.7,12.7,0,0,1-1.15,2A6.43,6.43,0,0,0,44.12,21.22Z"></path>
      <g class="cls-17">
        <path class="cls-14" d="M51.07,11.35a4.06,4.06,0,0,0-2.52,2,9.35,9.35,0,0,0-.75,1.48,3.56,3.56,0,0,1-.39.75c-.2.22-.44.36-.64.55l-.07-.08a6.67,6.67,0,0,0,.64-.53,3.8,3.8,0,0,0,.39-.72,10.39,10.39,0,0,1,.77-1.48A4.12,4.12,0,0,1,51.07,11.35Z"></path>
      </g>
      <path class="cls-14" d="M45.67,17.64a6.15,6.15,0,0,0,.43-1.15,6.26,6.26,0,0,0,.09-1.23c0-.2.05-.41.09-.61a1.32,1.32,0,0,1,.19-.6,5.59,5.59,0,0,0,.42-.44c.1-.17.18-.37.28-.55a2,2,0,0,1,.35-.52c.16-.16.33-.26.48-.4.33-.25.52-.61.85-.89.7-.47,1.39-.9,2.09-1.33v0c-.65.49-1.37.93-2,1.41-.3.25-.51.64-.85.89-.16.14-.34.26-.48.39a2,2,0,0,0-.34.48c-.11.18-.18.37-.29.55s-.32.29-.44.45a1.09,1.09,0,0,0-.18.55,4.55,4.55,0,0,0-.1.61,6.41,6.41,0,0,1-.12,1.23,6,6,0,0,1-.45,1.15Z"></path>
      <path class="cls-14" d="M44.21,16.57a6.16,6.16,0,0,1,.19-.8,3.86,3.86,0,0,1,.41-.72,4.43,4.43,0,0,0,.33-1.56,3.83,3.83,0,0,1,.45-1.58,7.06,7.06,0,0,0,.67-1.48,7.13,7.13,0,0,1,.66-1.5c.29-.46.65-.87,1-1.31a7.68,7.68,0,0,0,1.65-2.79,7.69,7.69,0,0,1-1.62,2.81c-.33.44-.68.86-1,1.32a6.64,6.64,0,0,0-.64,1.5,7.69,7.69,0,0,1-.66,1.5,3.88,3.88,0,0,0-.42,1.54,4.38,4.38,0,0,1-.33,1.62,3.75,3.75,0,0,0-.39.7c-.08.25-.12.51-.18.78Z"></path>
      <path class="cls-16" d="M47.8,11.89l-.12.59"></path>
      <path class="cls-16" d="M48.74,10.05c-.18.26-.26.34-.48.61a3.18,3.18,0,0,0-.45,1.22"></path>
      <path class="cls-16" d="M49.29,9.15a3.68,3.68,0,0,1-.55.91"></path>
      <path class="cls-14" d="M50.46,7.45a3.06,3.06,0,0,0-1.12,1.71l-.1,0A3.11,3.11,0,0,1,50.46,7.45Z"></path>
      <path class="cls-14" d="M48.22,10.65a5.25,5.25,0,0,1-.12-1.58A3.1,3.1,0,0,0,48,7.53a3.26,3.26,0,0,1,.18,1.55,5.32,5.32,0,0,0,.17,1.54Z"></path>
      <path class="cls-14" d="M46.37,14.36a1.37,1.37,0,0,0,0-.85,6,6,0,0,1-.25-.85c0-.31,0-.59,0-.88a2.89,2.89,0,0,1,0-.88,4.27,4.27,0,0,0,.08.87c.06.3,0,.6,0,.88a5.43,5.43,0,0,0,.21.84A1.19,1.19,0,0,1,46.37,14.36Z"></path>
      <path class="cls-14" d="M42.69,5.66a8.62,8.62,0,0,0-.54-.8,5.5,5.5,0,0,0-.66-.71,7.36,7.36,0,0,1-.62-.74c-.19-.28-.54-.34-.8-.53.26.18.62.24.81.52a8.8,8.8,0,0,0,.64.73,4.93,4.93,0,0,1,.68.69c.2.26.37.53.55.8Z"></path>
      <path class="cls-16" d="M44.68,7.93a12.61,12.61,0,0,0-.51-2.25,3.43,3.43,0,0,1,.34-2.43c.31-.5.48-.31.53-.77a2.27,2.27,0,0,1,.67-1.25"></path>
      <path class="cls-14" d="M44.31,3.56a3,3,0,0,0-.17-.9c-.12-.29-.35-.51-.49-.79A4,4,0,0,1,43.18.08a4.2,4.2,0,0,0,.5,1.77,8.81,8.81,0,0,1,.52.78,2.93,2.93,0,0,1,.21.91Z"></path>
      <path class="cls-14" d="M44,5.28a3.25,3.25,0,0,0-.22-.88c-.09-.3-.44-.42-.53-.75a2.55,2.55,0,0,0-.35-.85A2.73,2.73,0,0,1,42.57,2a2.76,2.76,0,0,0,.38.84,2.87,2.87,0,0,1,.37.84c.08.29.44.41.55.73a3.69,3.69,0,0,1,.26.9Z"></path>
      <path class="cls-14" d="M45.69,6.72a2.05,2.05,0,0,0,.76-.84,4.91,4.91,0,0,1,.62-1,2,2,0,0,0,.41-1.07,5.18,5.18,0,0,0-.13-1.17,4.18,4.18,0,0,1,.16,1.17,2,2,0,0,1-.38,1.11,5.67,5.67,0,0,0-.59,1,2.12,2.12,0,0,1-.77.91Z"></path>
      <path class="cls-14" d="M48.8,4.39c-.39.42-.79.82-1.2,1.22a4,4,0,0,1-.65.58,4.84,4.84,0,0,1-.8.3l0-.06a2.82,2.82,0,0,1,.09.76,2,2,0,0,0,.11.73,2.67,2.67,0,0,1,.32,1.46A2.94,2.94,0,0,0,46.32,8a2,2,0,0,1-.13-.75,3,3,0,0,0-.11-.74v0l0,0a8.32,8.32,0,0,0,.8-.29,4.14,4.14,0,0,0,.64-.55C48,5.16,48.38,4.77,48.8,4.39Z"></path>
      <path class="cls-16" d="M45.41,12.37a2.64,2.64,0,0,1-.3-1.17A1.75,1.75,0,0,0,44.74,10"></path>
      <path class="cls-14" d="M47,15.92a4.65,4.65,0,0,1,.71-.41,1.41,1.41,0,0,0,.56-.55,2.74,2.74,0,0,1,1.12-1.14A2.69,2.69,0,0,0,48.36,15a1.69,1.69,0,0,1-.57.59,5.16,5.16,0,0,0-.68.42Z"></path>
      <path class="cls-12" d="M43.7,43c.3-1.45.21-2.21.63-3.86s.76-4,3.21-6a10,10,0,0,1,4-2.18c1.51-.5,2,2.32,4.14,4.73C58.46,38.77,64.85,41,67.75,38a3.47,3.47,0,0,0,.58-4c-.93-2.09-.24-1.26.85-2.81,0,0,1.64-2.12.43-4.05-1.8-2.84-6.9-3.85-9.64-3.28a14.24,14.24,0,0,0-7.72,5.06c-.84,1.24-3.46,1.67-5.5,3.63C45.18,34,42.9,36.42,43.05,38c-.92-3.7-2.74-6.1-5.56-8.79-.15-3.07-2.68-5.71-3.13-6.23A11.19,11.19,0,0,0,27,20.05c-2.9.19-6.18,1.49-7.35,4-.85,1.83,1.57,2.9,1.06,3.59-.86,1.17-1.85,1.5-1.91,3.08-.08,2.68,1.83,4.1,4.34,4.73s8.2-1.26,9.58-1.92c2.53-1.21,2.94-1.21,4.17-2.83,3.57,2.69,5,8.46,5.49,12.22S43.4,44.47,43.7,43Z"></path>
      <path class="cls-13" d="M52.1,31.6a11.79,11.79,0,0,0,3.72,4.22,26.83,26.83,0,0,0,2.34,1.6,10.47,10.47,0,0,0,2.53,1.2,9,9,0,0,0,5.42.22,3.85,3.85,0,0,0,2-1.62,10.35,10.35,0,0,0,.35-2.75h.06a7.92,7.92,0,0,1,0,2.91,3,3,0,0,1-.93,1.21,4.51,4.51,0,0,1-1.27.81,8.59,8.59,0,0,1-5.79-.33A11.63,11.63,0,0,1,58,37.75a27.6,27.6,0,0,1-2.32-1.7,11.82,11.82,0,0,1-3.58-4.42Z"></path>
      <path class="cls-13" d="M69.59,27.13a7.46,7.46,0,0,0-3.1-2.35,11,11,0,0,0-11.14,1.29,14.73,14.73,0,0,0-2.8,2.72,3.19,3.19,0,0,1-.61.81,3.92,3.92,0,0,1-.9.48,13.82,13.82,0,0,0-1.8.79A18.2,18.2,0,0,0,46,33.08a7.14,7.14,0,0,0-2.28,3.12h0a6.81,6.81,0,0,1,2.16-3.28,15.11,15.11,0,0,1,3.24-2.3,12.62,12.62,0,0,1,1.82-.78,3.77,3.77,0,0,0,.85-.43c.25-.17.36-.47.58-.75a15.26,15.26,0,0,1,2.87-2.75,11.1,11.1,0,0,1,11.3-1.19,7.52,7.52,0,0,1,3.09,2.4Z"></path>
      <path class="cls-13" d="M43.13,38A22.24,22.24,0,0,0,40.9,33.2a16.56,16.56,0,0,0-3.5-3.87l0,0v-.06a12.66,12.66,0,0,0-3.13-5.94,9.84,9.84,0,0,0-5.92-2.9,10.83,10.83,0,0,0-3.36.17,9.59,9.59,0,0,0-3.08,1.34,5,5,0,0,0-2.16,2.48A1.91,1.91,0,0,0,19.91,26a8.81,8.81,0,0,1,.91,1.47h0A8.9,8.9,0,0,0,19.85,26a2,2,0,0,1-.28-1.66,4.93,4.93,0,0,1,2.17-2.61,9.85,9.85,0,0,1,3.13-1.42,11.06,11.06,0,0,1,3.44-.2,9.81,9.81,0,0,1,6.09,3,13,13,0,0,1,3.12,6.08h0A15.86,15.86,0,0,1,41,33.13,22.6,22.6,0,0,1,43.16,38Z"></path>
      <path class="cls-13" d="M20.1,28.25a19.35,19.35,0,0,0-1,2.05,3.44,3.44,0,0,0,.36,2.1A5,5,0,0,0,22.77,35a7.32,7.32,0,0,0,2.21.14c.76,0,1.52-.15,2.29-.24a22.13,22.13,0,0,0,2.27-.43c.76-.15,1.52-.34,2.27-.56l0,0a25.14,25.14,0,0,1-4.5,1.29,20.16,20.16,0,0,1-2.32.3,7.65,7.65,0,0,1-2.34-.11,5.3,5.3,0,0,1-3.52-2.89,3.59,3.59,0,0,1-.27-2.3,18.24,18.24,0,0,1,1.18-2Z"></path>
    </g>
  </g>
</svg>
