<?xml version="1.0" encoding="UTF-8"?>
<svg xmlns="http://www.w3.org/2000/svg" xmlns:xlink="http://www.w3.org/1999/xlink" viewBox="0 0 110.12 133.15">
  <defs>
    <style>.cls-1{fill:none;}.cls-2{fill:#956d4b;}.cls-3{clip-path:url(#clip-path);}.cls-4{fill:url(#Безымянный_градиент_2);}.cls-5{fill:#754120;}.cls-6{fill:#44281c;}.cls-7{fill:#6c3c1d;}.cls-8{fill:#714d31;}.cls-9{fill:#613822;}.cls-10{fill:#7f5637;}.cls-11{fill:#a07850;}.cls-12{fill:#f9e9c5;}.cls-13{fill:#8b5b3c;}.cls-14{fill:#a1b933;}.cls-15{fill:#5e7b2b;}.cls-16{fill:#613922;}</style>
    <clipPath id="clip-path">
      <polygon class="cls-1" points="7.72 104.47 57.69 127.99 103.91 104.59 55.86 84.23 7.72 104.47"></polygon>
    </clipPath>
    <linearGradient id="Безымянный_градиент_2" x1="-2538.78" y1="-3576.17" x2="-2535.98" y2="-3576.17" gradientTransform="matrix(34.36, 0, 0, -34.36, 87219.17, -122758.2)" gradientUnits="userSpaceOnUse">
      <stop offset="0" stop-color="#a17551"></stop>
      <stop offset="0.38" stop-color="#a17551"></stop>
      <stop offset="0.89" stop-color="#7a4928"></stop>
      <stop offset="1" stop-color="#72401f"></stop>
    </linearGradient>
  </defs>
  <g id="Слой_2" data-name="Слой 2">
    <g id="Слой_1-2" data-name="Слой 1">
      <path class="cls-2" d="M57.69,61.84s9.62,11.3,17.06,11.76S107.56,66,107.56,66l2.56-26.43L57.69,21.11Z"></path>
      <path class="cls-2" d="M0,37.73,5.23,72.21S23.81,75,27.06,74.07s18.12-6.51,22.29-6.51,8.34-5.72,8.34-5.72V21.11Z"></path>
      <g class="cls-3">
        <rect class="cls-4" x="31.38" y="56.91" width="48.87" height="98.4" transform="translate(-53.13 156.15) rotate(-86.92)"></rect>
      </g>
      <path class="cls-5" d="M7.72,104.47,5.23,72.21s23.69-.47,30.19-3.72,22.27-6.66,22.27-6.66l-1.83,22.4Z"></path>
      <path class="cls-6" d="M41.49,74.21a8.56,8.56,0,0,0-2.84-1.67l0,0s-3.79-1.13-5.85,1.42-1.71,5.29-.77,5.73a11.08,11.08,0,0,0,1.63.34l.09,0a28.19,28.19,0,0,0,3.51-.8,1.79,1.79,0,0,0,.6-.15l.65-.19c1.49-.46,1.67-.13,2.69-1a4,4,0,0,0,1.09-2.55l-.21-.5h0l0,0a1,1,0,0,0-.58-.51"></path>
      <path class="cls-6" d="M21.2,77.54a10.79,10.79,0,0,0-4,1.33v0s-4.3,2.69-3.59,6.84,3.66,6.13,4.88,5.6A14.71,14.71,0,0,0,20.18,90l0-.13c.92-1.06,1.59-3.16,2.21-4.06a2,2,0,0,0,.35-.72c.11-.2.21-.42.38-.79.8-1.81,1.28-1.71,1.29-3.45a5.09,5.09,0,0,0-1.54-3.21,3.36,3.36,0,0,0-.66-.22v0h-.08a1.27,1.27,0,0,0-1,.14"></path>
      <path class="cls-7" d="M57.69,61.84,55.86,84.23l48.06,20.36L107.56,66s-15-1.73-21.48-.8S68.24,69,64.84,67.1a45.07,45.07,0,0,1-7.15-5.26"></path>
      <path class="cls-6" d="M39.39,84.84a3.29,3.29,0,0,0-1.26-.31h0a2.31,2.31,0,0,0-2,1.19c-.49,1.18-.05,2.17.35,2.23l.65,0,0,0a9.3,9.3,0,0,0,1.23-.69l.21-.12.22-.15c.51-.34.61-.23.9-.68a1.59,1.59,0,0,0,.12-1.08L39.68,85h0Z"></path>
      <path class="cls-6" d="M86.47,75.2a2.3,2.3,0,0,0-.11-.89h0s-.38-1-1.27-1-1.43.5-1.38.78l.2.41h0l.75.63.13.1.15.11c.35.25.3.34.66.42a1.12,1.12,0,0,0,.74-.19l.07-.13h0Z"></path>
      <path class="cls-6" d="M99.89,91.38A11,11,0,0,0,98,87.57h0S94.7,83.65,90.66,85s-5.59,4.54-4.88,5.68a14.32,14.32,0,0,0,1.52,1.53l.14,0c1.19.76,3.39,1.13,4.37,1.61a2.47,2.47,0,0,0,.77.26l.84.25c1.93.55,1.9,1,3.64.79a5.15,5.15,0,0,0,3-2,3.87,3.87,0,0,0,.13-.69h0l0-.07a1.27,1.27,0,0,0-.28-1"></path>
      <path class="cls-6" d="M73.78,78.1a8.37,8.37,0,0,0-1.87,2.69l0,0s-1.4,3.67,1,5.9,5.11,2.08,5.62,1.19a12.49,12.49,0,0,0,.46-1.59l0-.1a27.58,27.58,0,0,0-.52-3.53,1.72,1.72,0,0,0-.12-.61c0-.17-.07-.36-.13-.66-.35-1.5,0-1.66-.81-2.74a3.94,3.94,0,0,0-2.44-1.26l-.51.17v0l0,0a1,1,0,0,0-.54.54"></path>
      <path class="cls-8" d="M74,105.48a1.59,1.59,0,0,0,1.57-.42c.54-.7.43-1.43.17-1.54l-.44-.09c-.29-.05-.32.69-.33.71Z"></path>
      <path class="cls-9" d="M73,104.9s.87.79,1.23.55.8-.46.8-.46l0-.24-1-.32-.56.19Z"></path>
      <path class="cls-10" d="M73,104.76c0,.1.12.36.4.27a4.1,4.1,0,0,0,.52-.23l.33-1c.06-.15.14-.19-.25-.06s-.45,0-.72.29a1.07,1.07,0,0,0-.28.69"></path>
      <path class="cls-11" d="M73.88,104.8a5.25,5.25,0,0,0,.13-.69c0-.31,0-.39.28-.43s.84-.33,1.11-.23.26.09.26.44a1.24,1.24,0,0,1-.39.87.69.69,0,0,1-.75.33,1.82,1.82,0,0,1-.64-.29"></path>
      <path class="cls-8" d="M63.28,99.35s2.39.13,3.24-1.67.26-3.36-.36-3.49a7.65,7.65,0,0,0-1,0c-.66,0-.37,1.66-.39,1.69Z"></path>
      <path class="cls-9" d="M60.93,98.53s2.3,1.32,3,.61,1.53-1.39,1.53-1.39l-.15-.53A7.25,7.25,0,0,0,63,97c-.36.2-1,.62-1.16.69Z"></path>
      <path class="cls-10" d="M60.74,98.26c.11.2.43.73,1,.4a9.74,9.74,0,0,0,1.05-.75S63,96,63,95.62s.22-.49-.58,0-1,.31-1.44,1a2.41,2.41,0,0,0-.28,1.66"></path>
      <path class="cls-11" d="M62.78,97.91a11.05,11.05,0,0,0-.05-1.59c-.09-.7-.16-.88.42-1.09s1.68-1.12,2.32-1,.6.06.77.84a2.88,2.88,0,0,1-.41,2.1,1.61,1.61,0,0,1-1.52,1.07,4.19,4.19,0,0,1-1.53-.31"></path>
      <path class="cls-8" d="M53.32,107.12s1.86,1.42,3.54.43,2-2.58,1.62-3a7,7,0,0,0-.84-.53c-.55-.33-1.21,1.15-1.25,1.16Z"></path>
      <path class="cls-9" d="M51.86,105.17s1.15,2.33,2.08,2.13,2-.29,2-.29l.16-.51s-1.29-1.4-1.7-1.44-1.14,0-1.32-.07Z"></path>
      <path class="cls-10" d="M51.86,104.84c0,.23,0,.84.59.87a8.3,8.3,0,0,0,1.26,0L55.17,104c.25-.24.45-.27-.47-.32s-1-.27-1.7,0a2.39,2.39,0,0,0-1.14,1.19"></path>
      <path class="cls-11" d="M53.71,105.68a11.08,11.08,0,0,0,.83-1.31c.3-.61.35-.79.93-.65s2,0,2.44.44.45.38.17,1.11a2.8,2.8,0,0,1-1.49,1.46,1.54,1.54,0,0,1-1.81,0,3.92,3.92,0,0,1-1.07-1.09"></path>
      <path class="cls-8" d="M49,100.68a2.67,2.67,0,0,0,.1-2.73c-.86-1.2-2.11-1.39-2.41-1l-.35.67c-.22.44,1,.85,1,.88Z"></path>
      <path class="cls-9" d="M47.63,101.92s1.7-1,1.49-1.73a15.08,15.08,0,0,1-.35-1.51l-.4-.09s-1,1.08-1,1.4,0,.87,0,1Z"></path>
      <path class="cls-10" d="M47.39,101.94c.18,0,.63,0,.62-.5a7.72,7.72,0,0,0-.11-1l-1.4-1c-.2-.17-.23-.32-.21.38s-.15.74.12,1.3a1.8,1.8,0,0,0,1,.78"></path>
      <path class="cls-11" d="M47.9,100.48a7.93,7.93,0,0,0-1.06-.54c-.49-.2-.62-.22-.55-.67s-.13-1.51.17-1.89.26-.37.84-.2a2.1,2.1,0,0,1,1.21,1,1.19,1.19,0,0,1,.15,1.38,3,3,0,0,1-.76.89"></path>
      <path class="cls-8" d="M40.56,102.7a1.17,1.17,0,0,0,.38-1.12c-.2-.61-.69-.85-.86-.74l-.23.23.29.49Z"></path>
      <path class="cls-9" d="M39.82,103s.83-.21.84-.52,0-.68,0-.68l-.15-.08-.58.45-.12.42Z"></path>
      <path class="cls-10" d="M39.71,103l.33-.13.08-.41-.46-.59c-.06-.1,0-.17-.13.13s-.16.28-.12.55a.81.81,0,0,0,.3.45"></path>
      <path class="cls-11" d="M40.12,102.47l-.37-.36-.15-.35.32-.76.37,0a1,1,0,0,1,.37.59.51.51,0,0,1-.12.59Z"></path>
      <path class="cls-8" d="M38,107.37s1.64-2.64.13-4.73-3.65-2.39-4.18-1.77a8.24,8.24,0,0,0-.6,1.17c-.37.77,1.66,1.46,1.69,1.51Z"></path>
      <path class="cls-9" d="M35.56,109.52s2.94-1.79,2.56-3-.63-2.62-.63-2.62l-.69-.14s-1.69,1.87-1.69,2.41.08,1.52.06,1.75Z"></path>
      <path class="cls-10" d="M35.13,109.56c.31,0,1.1,0,1.07-.87A12.17,12.17,0,0,0,36,107s-2.09-1.42-2.44-1.72-.41-.56-.36.66-.25,1.28.21,2.24a3.15,3.15,0,0,0,1.71,1.35"></path>
      <path class="cls-11" d="M36,107a13.69,13.69,0,0,0-1.84-.94c-.85-.33-1.08-.36-1-1.15s-.23-2.61.29-3.28.45-.64,1.44-.34a3.62,3.62,0,0,1,2.12,1.78,2.05,2.05,0,0,1,.27,2.38A5.33,5.33,0,0,1,36,107"></path>
      <path class="cls-12" d="M57.4,55.88c.16,1.67.33,3.28.59,4.89.11.8.23,1.61.37,2.43s.18,1.65.2,2.48a44.88,44.88,0,0,1-1.15,9.73c-.14.79-.26,1.57-.37,2.37s-.27,1.63-.44,2.43c-.33,1.6-.79,3.15-1.14,4.71A23.4,23.4,0,0,0,55,94.35a7.79,7.79,0,0,1-.94-2.29,10.35,10.35,0,0,1-.32-2.48,21.18,21.18,0,0,1,.55-4.91c.34-1.6.72-3.18,1.08-4.73q.27-1.17.45-2.34c.12-.8.25-1.62.4-2.41a40.66,40.66,0,0,0,1.18-9.47A19.41,19.41,0,0,0,56.71,61a44.68,44.68,0,0,0-1.32-4.63l0,0A1.05,1.05,0,0,1,56,55a1,1,0,0,1,1.35.6A.9.9,0,0,1,57.4,55.88Z"></path>
      <path class="cls-12" d="M58.05,64.09a22.17,22.17,0,0,0-3.62,3.46,15.66,15.66,0,0,1-1.92,1.8,9.22,9.22,0,0,1-2.31,1.29,32.45,32.45,0,0,0-4.75,1.9,12.6,12.6,0,0,0-3.83,3.33,12.87,12.87,0,0,1,3.71-3.53A33.91,33.91,0,0,1,50,70.22a10.38,10.38,0,0,0,3.91-3.12,23.2,23.2,0,0,1,3.62-3.74Z"></path>
      <path class="cls-12" d="M57.05,76a3.3,3.3,0,0,1-1.28,2.39,9.86,9.86,0,0,1-2.15,1.44,24,24,0,0,0-2.2,1.15,5.25,5.25,0,0,0-1.67,1.74,9.25,9.25,0,0,1-1.53,2,9.52,9.52,0,0,0-1.83,1.68c-.47.68-.73,1.49-1.15,2.22a2.86,2.86,0,0,1-1.88,1.57,2.87,2.87,0,0,0,1.81-1.61c.38-.74.61-1.56,1.07-2.28A9.41,9.41,0,0,1,48,84.51a9.79,9.79,0,0,0,1.41-2,5.64,5.64,0,0,1,1.72-1.92,23.37,23.37,0,0,1,2.2-1.26,9.72,9.72,0,0,0,2-1.41,2.67,2.67,0,0,0,1-1.91Z"></path>
      <path class="cls-12" d="M56.64,78.59A3.9,3.9,0,0,0,58.5,81a9.68,9.68,0,0,1,1.54.84c.48.33.93.68,1.39,1a5.66,5.66,0,0,1,1.23,1.26,4.32,4.32,0,0,1,.62,1.64c.19,1.15.26,2.29.39,3.43-.19-1.13-.32-2.28-.56-3.39a4.13,4.13,0,0,0-.67-1.53,5.71,5.71,0,0,0-1.22-1.13,12.16,12.16,0,0,0-2.95-1.68,4,4,0,0,1-1.44-1.13A4.18,4.18,0,0,1,56,78.75Z"></path>
      <path class="cls-12" d="M57.83,68.51a5.33,5.33,0,0,1,2.84.6A13.2,13.2,0,0,1,63,70.57c1.41,1.11,2.71,2.24,4.06,3.36A5.5,5.5,0,0,1,68.81,76a16.22,16.22,0,0,1,.41,2.63c.31,1.72,2.31,2.54,2.89,4.24-.66-1.67-2.68-2.29-3.19-4.17a16.46,16.46,0,0,0-.53-2.52,5,5,0,0,0-1.74-1.76c-1.4-1-2.81-2.12-4.21-3.11a13.31,13.31,0,0,0-2.2-1.24A4.13,4.13,0,0,0,58,69.68Z"></path>
      <path class="cls-12" d="M67.69,74.37a8.94,8.94,0,0,1,.19,4.17,19.09,19.09,0,0,1-.45,2,2.54,2.54,0,0,0,.12,2,2.48,2.48,0,0,1-.3-2c.11-.68.26-1.34.33-2a8.84,8.84,0,0,0-.34-4Z"></path>
      <path class="cls-12" d="M57.86,61.52A26.88,26.88,0,0,0,62,64.47a26.19,26.19,0,0,0,4.68,2.17,10.2,10.2,0,0,1,2.37,1.21,6.59,6.59,0,0,1,1.79,2,7.06,7.06,0,0,1,.85,2.5,5,5,0,0,0,.84,2.42,5.15,5.15,0,0,1-1-2.4,6.64,6.64,0,0,0-1-2.37,6,6,0,0,0-1.79-1.77,9.49,9.49,0,0,0-2.32-1,26.1,26.1,0,0,1-4.89-2,27.7,27.7,0,0,1-4.47-2.85Z"></path>
      <polygon class="cls-13" points="0 37.73 57.69 61.84 110.12 39.6 57.69 21.11 0 37.73"></polygon>
      <path class="cls-14" d="M57.13,40.65a.82.82,0,0,1-.48-.53c-.38-1.44-1.74-6.72-1.69-10,.06-3.85-.55-14.83-1.64-17.45l3-1.52s.24,1.92.41,3.37.15,13.33.39,14.6S58,38.76,58.5,40.19C58.86,41.24,57.74,40.9,57.13,40.65Z"></path>
      <path class="cls-14" d="M55.61,12.22s.36-2.33-.38-3.43a7.34,7.34,0,0,0-3.14-2.51,19.23,19.23,0,0,1-3.83-2.72c-1.2-1-5.63-3.32-7.55-3.56,0,0-.45.11.64,1.34s2.17,1.78,2.73,2.82,2.57,4.57,4.17,5.95,3.09,3.43,5.56,3.06S55.61,12.22,55.61,12.22Z"></path>
      <path class="cls-14" d="M55.24,11.56a6,6,0,0,1,1.47-2.37c1.12-1.12,2.19-2.91,3.7-3.53s1.66-.87,1.66-.87A9.86,9.86,0,0,1,65,2.19c1.66-.87,3.7-.76,4.36,0A3.67,3.67,0,0,1,69.8,6a4.58,4.58,0,0,1-4.55,2.4C63,8.14,62,8.17,61,8.72S59.1,11.18,55.24,11.56Z"></path>
      <path class="cls-15" d="M61.69,8.43a8.15,8.15,0,0,0,1.49-1.08c.71-.66,2.32-2.11,3-2.74s2.19-2.75,3-2,.68,2.41.6,2.88a4.19,4.19,0,0,1-1.71,2.26,5,5,0,0,1-3,.6A7.94,7.94,0,0,0,61.69,8.43Z"></path>
      <path class="cls-15" d="M57.93,40.29a3.45,3.45,0,0,1-.73-1.84c-.18-1.85-.55-5.31-.73-8.36-.2-3.59,0-8.34-.43-12.24a43.52,43.52,0,0,1-.44-4.8,1.55,1.55,0,0,1,.33-.93c.3-.39.52-.3.57.11.09.67.19,1.53.28,2.27.18,1.44.15,13.33.39,14.6S58,38.76,58.5,40.19C58.78,41,58.35,40.72,57.93,40.29Z"></path>
      <path class="cls-8" d="M53.26,45.62a1.41,1.41,0,0,0-1.35-.5c-.75.23-1,.83-.92,1a3.54,3.54,0,0,0,.28.29c.19.18.58-.34.6-.35Z"></path>
      <path class="cls-16" d="M53.65,46.52s-.23-1-.62-1-.81-.07-.81-.07l-.11.18s.38.67.53.73.45.12.51.15A3.41,3.41,0,0,0,53.65,46.52Z"></path>
      <path class="cls-10" d="M53.62,46.65c0-.09.1-.32-.14-.39a3.06,3.06,0,0,0-.5-.11s-.62.47-.74.54-.2.06.16.17.34.19.67.15A.94.94,0,0,0,53.62,46.65Z"></path>
      <path class="cls-11" d="M53,46.15a4.85,4.85,0,0,0-.45.44c-.18.21-.21.28-.43.17s-.78-.19-.92-.4-.14-.19,0-.45a1.09,1.09,0,0,1,.72-.44.62.62,0,0,1,.72.15A1.68,1.68,0,0,1,53,46.15Z"></path>
      <path class="cls-8" d="M37,33.59a2.06,2.06,0,0,0-2.09-.31c-1,.57-1.25,1.51-1,1.78a4.39,4.39,0,0,0,.48.32c.33.2.74-.66.76-.67Z"></path>
      <path class="cls-16" d="M37.85,34.76s-.65-1.39-1.21-1.29-1.2.15-1.2.15l-.09.3s.75.84,1,.87.68,0,.79.06A4.26,4.26,0,0,0,37.85,34.76Z"></path>
      <path class="cls-10" d="M37.84,35c0-.13,0-.49-.33-.52a4.64,4.64,0,0,0-.75,0s-.73.85-.89,1-.27.15.28.2.56.17,1,0A1.39,1.39,0,0,0,37.84,35Z"></path>
      <path class="cls-11" d="M36.76,34.44a5.81,5.81,0,0,0-.51.76c-.19.36-.22.47-.56.38s-1.17,0-1.44-.3-.27-.23-.09-.66a1.67,1.67,0,0,1,.9-.85.94.94,0,0,1,1.08,0A2.39,2.39,0,0,1,36.76,34.44Z"></path>
      <path class="cls-8" d="M46,34.63s-4.32-2.16-7.34.47-3.17,6-2.14,6.75a15.16,15.16,0,0,0,1.9.76c1.24.46,2-2.79,2.09-2.84S46,34.63,46,34.63Z"></path>
      <path class="cls-16" d="M49.72,38s-3.2-4.3-5-3.54-4,1.36-4,1.36L40.6,37s3.16,2.34,4,2.27,2.33-.34,2.7-.35A18,18,0,0,0,49.72,38Z"></path>
      <path class="cls-10" d="M49.85,38.69c0-.48-.22-1.7-1.51-1.53a17.64,17.64,0,0,0-2.55.54s-1.89,3.43-2.31,4-.81.72,1.07.48,2,.19,3.45-.66A4.86,4.86,0,0,0,49.85,38.69Z"></path>
      <path class="cls-11" d="M45.79,37.7a22.14,22.14,0,0,0-1.18,3C44.22,42,44.2,42.42,43,42.35s-4,.74-5.12,0-1.06-.6-.75-2.18,1-2.32,2.45-3.54a3.21,3.21,0,0,1,3.66-.77A8.26,8.26,0,0,1,45.79,37.7Z"></path>
      <path class="cls-8" d="M61,35.53s-3.62-2.13-6.4,0-3.12,5-2.26,5.73a10.83,10.83,0,0,0,1.59.77c1.06.48,1.93-2.29,2-2.33S61,35.53,61,35.53Z"></path>
      <path class="cls-16" d="M64,38.72s-2.53-3.92-4.16-3.38-3.52.94-3.52.94l-.17.94s2.6,2.23,3.33,2.21,2-.15,2.36-.13A16.15,16.15,0,0,0,64,38.72Z"></path>
      <path class="cls-10" d="M64.05,39.29c0-.41-.09-1.49-1.22-1.42a16.24,16.24,0,0,0-2.24.32s-1.85,2.86-2.25,3.35-.75.57.9.48,1.75.29,3-.37A4.26,4.26,0,0,0,64.05,39.29Z"></path>
      <path class="cls-11" d="M60.59,38.19a19.11,19.11,0,0,0-1.21,2.51c-.42,1.16-.46,1.49-1.53,1.36s-3.53.39-4.45-.29-.88-.58-.52-1.93,1-2,2.34-2.93a2.8,2.8,0,0,1,3.23-.45A7.32,7.32,0,0,1,60.59,38.19Z"></path>
      <path class="cls-8" d="M70.58,31.7s-3.57-2.76-6.82-.89-4,4.95-3.17,5.8a12.44,12.44,0,0,0,1.6,1c1.06.65,2.35-2.19,2.43-2.22S70.58,31.7,70.58,31.7Z"></path>
      <path class="cls-16" d="M73.35,35.5s-2.17-4.52-4-4.16-3.87.53-3.87.53l-.31,1s2.47,2.72,3.25,2.81,2.2.1,2.54.16A16.65,16.65,0,0,0,73.35,35.5Z"></path>
      <path class="cls-10" d="M73.35,36.12c0-.45.1-1.6-1.11-1.68a16.92,16.92,0,0,0-2.43,0s-2.36,2.8-2.85,3.27-.87.51.9.63,1.82.54,3.28,0A4.56,4.56,0,0,0,73.35,36.12Z"></path>
      <path class="cls-11" d="M69.81,34.48A20.82,20.82,0,0,0,68.18,37c-.6,1.18-.68,1.52-1.81,1.23s-3.81,0-4.7-.9-.86-.74-.29-2.13,1.36-1.94,2.89-2.81a3,3,0,0,1,3.49,0A7.84,7.84,0,0,1,69.81,34.48Z"></path>
      <path class="cls-8" d="M73.36,43.26a2.15,2.15,0,0,0,2-1c.53-1.08.19-2-.19-2.12-.1,0-.41,0-.61,0-.4,0-.24,1-.25,1S73.36,43.26,73.36,43.26Z"></path>
      <path class="cls-16" d="M71.94,42.74s1.39.83,1.81.41.94-.84.94-.84L74.6,42a4.63,4.63,0,0,0-1.37-.17c-.23.12-.61.37-.71.41A5.6,5.6,0,0,0,71.94,42.74Z"></path>
      <path class="cls-10" d="M71.83,42.58c.07.12.26.44.6.25a6.73,6.73,0,0,0,.64-.45s.13-1.17.18-1.38.14-.29-.36,0-.58.18-.88.58A1.51,1.51,0,0,0,71.83,42.58Z"></path>
      <path class="cls-11" d="M73.07,42.38a6.66,6.66,0,0,0,0-1c0-.42-.08-.53.27-.65s1-.67,1.42-.6.36,0,.46.51A1.73,1.73,0,0,1,74.92,42a1,1,0,0,1-.92.64A2.58,2.58,0,0,1,73.07,42.38Z"></path>
      <path class="cls-8" d="M39.31,44A2.74,2.74,0,0,0,41.92,43c.78-1.33.42-2.58-.05-2.71a5.35,5.35,0,0,0-.78,0c-.51,0-.39,1.26-.41,1.29S39.31,44,39.31,44Z"></path>
      <path class="cls-16" d="M37.55,43.25s1.69,1.16,2.27.67a15.77,15.77,0,0,1,1.27-1L41,42.52a5.64,5.64,0,0,0-1.73-.33c-.29.13-.81.41-.94.46A6.73,6.73,0,0,0,37.55,43.25Z"></path>
      <path class="cls-10" d="M37.43,43c.07.17.29.6.73.38a7.12,7.12,0,0,0,.86-.51s.27-1.48.35-1.75.2-.36-.45,0-.76.18-1.17.66A1.88,1.88,0,0,0,37.43,43Z"></path>
      <path class="cls-11" d="M39,42.89a8.93,8.93,0,0,0,.07-1.23c0-.54-.07-.68.39-.81s1.37-.76,1.86-.64.46.09.54.7a2.2,2.2,0,0,1-.46,1.59,1.24,1.24,0,0,1-1.24.73A3.19,3.19,0,0,1,39,42.89Z"></path>
      <path class="cls-8" d="M51.28,37.2a1.62,1.62,0,0,0,1.62.28c.79-.41,1-1.14.81-1.35a2.82,2.82,0,0,0-.37-.26c-.24-.17-.58.5-.6.5Z"></path>
      <path class="cls-16" d="M50.66,36.27s.47,1.1.91,1a9.05,9.05,0,0,1,.93-.09l.08-.23s-.56-.67-.74-.7-.53-.05-.61-.06A4,4,0,0,0,50.66,36.27Z"></path>
      <path class="cls-10" d="M50.67,36.12c0,.11,0,.38.25.41a4.83,4.83,0,0,0,.58,0s.59-.65.71-.75.21-.12-.21-.16-.43-.15-.78,0A1.1,1.1,0,0,0,50.67,36.12Z"></path>
      <path class="cls-11" d="M51.5,36.55a5.39,5.39,0,0,0,.41-.59c.15-.27.18-.35.44-.27s.91.05,1.11.26.2.19,0,.51a1.26,1.26,0,0,1-.71.64.72.72,0,0,1-.84,0A1.68,1.68,0,0,1,51.5,36.55Z"></path>
      <path class="cls-8" d="M65.84,43.35s4.06,1,6.1-1.81,1.52-5.69.5-6.1a12.18,12.18,0,0,0-1.74-.28C69.56,35,69.53,37.9,69.48,38S65.84,43.35,65.84,43.35Z"></path>
      <path class="cls-16" d="M62.07,41.18s3.53,3,4.93,2,3.08-1.91,3.08-1.91L70,40.35S66.86,39,66.17,39.2s-1.9.74-2.21.81A17.14,17.14,0,0,0,62.07,41.18Z"></path>
      <path class="cls-10" d="M61.84,40.66c.13.39.52,1.39,1.57,1a15.46,15.46,0,0,0,2-.95s.94-3.26,1.18-3.83.54-.76-1-.2-1.74.23-2.78,1.23A4.22,4.22,0,0,0,61.84,40.66Z"></path>
      <path class="cls-11" d="M65.45,40.71A19.09,19.09,0,0,0,65.88,38c.06-1.22,0-1.54,1.06-1.72s3.25-1.4,4.32-1,1,.3,1,1.69-.43,2.15-1.39,3.46A2.79,2.79,0,0,1,68,41.74,7.26,7.26,0,0,1,65.45,40.71Z"></path>
      <path class="cls-8" d="M47.11,41s2.44,1.37,4.26-.06,2-3.39,1.43-3.84a9,9,0,0,0-1.08-.49c-.7-.3-1.24,1.55-1.29,1.58S47.11,41,47.11,41Z"></path>
      <path class="cls-16" d="M45.08,38.93s1.73,2.57,2.81,2.19a23.29,23.29,0,0,1,2.32-.68l.1-.62s-1.75-1.45-2.24-1.43-1.36.13-1.57.12A10.48,10.48,0,0,0,45.08,38.93Z"></path>
      <path class="cls-10" d="M45,38.55c0,.27.08,1,.83.93a11.91,11.91,0,0,0,1.49-.25S48.53,37.3,48.79,37s.49-.4-.61-.31-1.16-.17-2,.29A2.79,2.79,0,0,0,45,38.55Z"></path>
      <path class="cls-11" d="M47.34,39.23a13.18,13.18,0,0,0,.77-1.69c.26-.77.28-1,1-.91s2.34-.31,3,.13.59.37.37,1.28a3.31,3.31,0,0,1-1.52,2,1.85,1.85,0,0,1-2.14.34A4.74,4.74,0,0,1,47.34,39.23Z"></path>
    </g>
  </g>
</svg>
