<?xml version="1.0" encoding="UTF-8"?>
<svg xmlns="http://www.w3.org/2000/svg" xmlns:xlink="http://www.w3.org/1999/xlink" viewBox="0 0 152.93 155.6">
  <defs>
    <style>.cls-1{fill:none;}.cls-2{fill:#8e6848;}.cls-3{clip-path:url(#clip-path);}.cls-4{fill:url(#Безымянный_градиент_2);}.cls-5{fill:#713e21;}.cls-6{fill:#3d271f;}.cls-7{fill:#69391e;}.cls-8{fill:#6b472f;}.cls-9{fill:#5c3624;}.cls-10{fill:#795135;}.cls-11{fill:#9a734f;}.cls-12{fill:#f9dec0;}.cls-13{fill:#85563a;}.cls-14{fill:#95c52d;}.cls-15{fill:#abcf34;}.cls-16{fill:#6b482f;}</style>
    <clipPath id="clip-path">
      <polygon class="cls-1" points="10.73 115.78 80.12 148.44 144.32 115.93 77.58 87.66 10.73 115.78"></polygon>
    </clipPath>
    <linearGradient id="Безымянный_градиент_2" x1="-401.57" y1="-2998.69" x2="-397.68" y2="-2998.69" gradientTransform="matrix(34.36, 0, 0, -34.36, 13790.46, -102906.17)" gradientUnits="userSpaceOnUse">
      <stop offset="0" stop-color="#9b714e"></stop>
      <stop offset="0.38" stop-color="#9b714e"></stop>
      <stop offset="0.89" stop-color="#764528"></stop>
      <stop offset="1" stop-color="#6e3c20"></stop>
    </linearGradient>
  </defs>
  <g id="Слой_2" data-name="Слой 2">
    <g id="Слой_1-2" data-name="Слой 1">
      <path class="cls-2" d="M80.12,56.56S93.49,72.25,103.81,72.9s45.57-10.51,45.57-10.51l3.55-36.71L80.12,0Z"></path>
      <path class="cls-2" d="M0,23.08,7.26,71s25.81,3.87,30.32,2.59,25.16-9,31-9,11.57-8,11.57-8V0Z"></path>
      <g class="cls-3">
        <rect class="cls-4" x="43.59" y="49.72" width="67.87" height="136.66" transform="translate(-44.52 189.12) rotate(-86.92)"></rect>
      </g>
      <path class="cls-5" d="M10.73,115.77,7.26,71s32.9-.64,41.94-5.16,30.92-9.24,30.92-9.24l-2.54,31.1Z"></path>
      <path class="cls-6" d="M57.62,73.75a11.57,11.57,0,0,0-3.94-2.32l0,0s-5.25-1.57-8.12,2-2.37,7.35-1.07,8a14.14,14.14,0,0,0,2.27.48l.12-.06c1.52,0,3.71-1,4.88-1.1a2.72,2.72,0,0,0,.84-.22c.23-.06.49-.13.9-.27,2.06-.63,2.31-.17,3.73-1.41a5.54,5.54,0,0,0,1.51-3.54l-.29-.69h0l-.06,0a1.35,1.35,0,0,0-.81-.7"></path>
      <path class="cls-6" d="M29.45,78.37a15,15,0,0,0-5.58,1.84v0s-6,3.74-5,9.5,5.07,8.52,6.77,7.78A19.33,19.33,0,0,0,28,95.67l0-.18c1.28-1.46,2.22-4.39,3.07-5.63a2.91,2.91,0,0,0,.49-1c.15-.28.29-.59.52-1.1,1.12-2.52,1.78-2.37,1.8-4.8s-2.14-4.45-2.14-4.45a5,5,0,0,0-.91-.31v0l-.1,0a1.73,1.73,0,0,0-1.36.19"></path>
      <path class="cls-7" d="M80.12,56.56,77.58,87.65l66.74,28.29,5.06-53.55s-20.81-2.4-29.84-1.11-24.76,5.16-29.49,2.59a62.58,62.58,0,0,1-9.93-7.31"></path>
      <path class="cls-6" d="M54.7,88.51A4.38,4.38,0,0,0,53,88.08h0s-2.15,0-2.83,1.64-.07,3,.49,3.11l.9-.08,0,0a18.68,18.68,0,0,0,1.71-1l.28-.18.32-.2c.7-.47.84-.33,1.24-1a2.12,2.12,0,0,0,.17-1.49l-.18-.23h0Z"></path>
      <path class="cls-6" d="M120.09,75.12a3.13,3.13,0,0,0-.15-1.24h0s-.53-1.4-1.77-1.43-2,.7-1.9,1.08l.28.57,0,0,1,.88.19.14.2.15c.48.34.42.47.93.57a1.5,1.5,0,0,0,1-.25l.1-.18h0v0Z"></path>
      <path class="cls-6" d="M138.73,97.6a15.24,15.24,0,0,0-2.64-5.3l0,0s-4.6-5.42-10.21-3.6-7.77,6.3-6.79,7.89a20.94,20.94,0,0,0,2.12,2.12l.19,0c1.65,1.06,4.71,1.57,6.07,2.24a3.51,3.51,0,0,0,1.07.36c.3.1.62.2,1.16.35,2.69.76,2.64,1.44,5.06,1.1s4.14-2.78,4.14-2.78a5.33,5.33,0,0,0,.18-1h0l0-.1a1.78,1.78,0,0,0-.39-1.33"></path>
      <path class="cls-6" d="M102.46,79.15a11.59,11.59,0,0,0-2.59,3.73l0,0S97.9,87.94,101.19,91s7.1,2.9,7.81,1.66a16.07,16.07,0,0,0,.63-2.21l0-.13c.1-1.5-.67-3.75-.72-4.91a2.73,2.73,0,0,0-.16-.85c0-.23-.1-.49-.19-.91-.48-2.08,0-2.3-1.13-3.81A5.5,5.5,0,0,0,104,78.13l-.71.23v0l-.06.06a1.32,1.32,0,0,0-.75.75"></path>
      <path class="cls-8" d="M102.72,117.17a2.19,2.19,0,0,0,2.17-.58c.75-1,.6-2,.25-2.14l-.62-.12c-.4-.07-.44,1-.46,1Z"></path>
      <path class="cls-9" d="M101.41,116.37s1.21,1.09,1.72.76,1.11-.64,1.11-.64l0-.34-1.33-.44-.79.26Z"></path>
      <path class="cls-10" d="M101.33,116.18c0,.14.17.49.55.37a6.22,6.22,0,0,0,.73-.32l.45-1.34c.09-.2.2-.26-.35-.08s-.62.06-1,.41a1.46,1.46,0,0,0-.39,1"></path>
      <path class="cls-11" d="M102.61,116.23a7.11,7.11,0,0,0,.18-1c0-.43,0-.55.39-.6s1.17-.46,1.54-.31.35.12.35.61a1.74,1.74,0,0,1-.53,1.21,1,1,0,0,1-1.05.45,2.58,2.58,0,0,1-.88-.4"></path>
      <path class="cls-8" d="M87.88,108.66s3.32.18,4.51-2.32.35-4.66-.5-4.84a8.86,8.86,0,0,0-1.41,0c-.91,0-.51,2.32-.54,2.36Z"></path>
      <path class="cls-9" d="M84.62,107.52s3.2,1.83,4.14.85,2.13-1.94,2.13-1.94l-.22-.72s-2.63-.62-3.14-.35-1.39.86-1.61,1Z"></path>
      <path class="cls-10" d="M84.36,107.14c.15.29.6,1,1.37.55a12.8,12.8,0,0,0,1.46-1s.25-2.68.36-3.17.31-.68-.81,0-1.33.43-2,1.36a3.35,3.35,0,0,0-.38,2.3"></path>
      <path class="cls-11" d="M87.19,106.65a14.52,14.52,0,0,0-.07-2.2c-.13-1-.22-1.22.58-1.51s2.33-1.56,3.23-1.42.83.09,1.07,1.17a4,4,0,0,1-.58,2.91,2.2,2.2,0,0,1-2.1,1.48,5.59,5.59,0,0,1-2.13-.43"></path>
      <path class="cls-8" d="M74.05,119.45s2.59,2,4.91.6,2.84-3.59,2.25-4.2a8.7,8.7,0,0,0-1.15-.73c-.77-.46-1.69,1.59-1.74,1.61Z"></path>
      <path class="cls-9" d="M72,116.74s1.59,3.23,2.89,3a26.39,26.39,0,0,1,2.79-.41l.22-.71s-1.8-1.94-2.36-2-1.59-.06-1.83-.1Z"></path>
      <path class="cls-10" d="M72,116.29c0,.32-.07,1.16.81,1.21a13.59,13.59,0,0,0,1.75,0l2-2.37c.35-.34.62-.38-.65-.45s-1.32-.38-2.37,0A3.29,3.29,0,0,0,72,116.29"></path>
      <path class="cls-11" d="M74.59,117.45a13.63,13.63,0,0,0,1.15-1.83c.43-.84.49-1.09,1.3-.89s2.74,0,3.39.61.62.53.23,1.54a3.91,3.91,0,0,1-2.07,2,2.14,2.14,0,0,1-2.51.06,5.56,5.56,0,0,1-1.49-1.52"></path>
      <path class="cls-8" d="M68.09,110.51s1.33-2.11.13-3.79-2.93-1.93-3.35-1.44l-.49.94c-.3.61,1.33,1.17,1.35,1.22Z"></path>
      <path class="cls-9" d="M66.15,112.23s2.36-1.43,2.07-2.4-.49-2.1-.49-2.1l-.55-.12s-1.37,1.5-1.37,1.93.06,1.21,0,1.4Z"></path>
      <path class="cls-10" d="M65.81,112.26c.25,0,.89,0,.86-.7a10.21,10.21,0,0,0-.14-1.33l-2-1.39c-.28-.24-.32-.45-.29.52s-.21,1,.16,1.81a2.49,2.49,0,0,0,1.36,1.09"></path>
      <path class="cls-11" d="M66.52,110.23a10.09,10.09,0,0,0-1.46-.75c-.68-.28-.87-.3-.77-.94s-.18-2.09.24-2.62.36-.52,1.16-.28a3,3,0,0,1,1.69,1.44,1.66,1.66,0,0,1,.2,1.92,4.19,4.19,0,0,1-1.06,1.23"></path>
      <path class="cls-8" d="M56.33,113.31a1.63,1.63,0,0,0,.53-1.56c-.28-.84-1-1.17-1.2-1l-.32.32.4.68Z"></path>
      <path class="cls-9" d="M55.3,113.77s1.16-.29,1.17-.73a9,9,0,0,1,.06-.93l-.21-.12-.81.62-.17.59Z"></path>
      <path class="cls-10" d="M55.16,113.74l.44-.18.12-.57-.63-.82c-.09-.14-.08-.23-.19.18s-.22.4-.16.76a1.08,1.08,0,0,0,.42.63"></path>
      <path class="cls-11" d="M55.71,113l-.51-.5L55,112l.44-1,.51,0a1.3,1.3,0,0,1,.52.81.71.71,0,0,1-.16.82Z"></path>
      <path class="cls-8" d="M52.72,119.8s2.27-3.67.18-6.57-5.07-3.32-5.81-2.46a12.66,12.66,0,0,0-.83,1.63c-.51,1.06,2.31,2,2.34,2.09Z"></path>
      <path class="cls-9" d="M49.38,122.79s4.08-2.5,3.57-4.18-.89-3.63-.89-3.63l-1-.2s-2.35,2.61-2.35,3.36.11,2.1.08,2.43Z"></path>
      <path class="cls-10" d="M48.79,122.84c.43,0,1.53,0,1.49-1.21a16.37,16.37,0,0,0-.27-2.31s-2.89-2-3.38-2.39-.57-.77-.51.92-.34,1.79.3,3.12a4.36,4.36,0,0,0,2.37,1.87"></path>
      <path class="cls-11" d="M50,119.32A19.23,19.23,0,0,0,47.46,118c-1.18-.46-1.51-.51-1.35-1.61s-.31-3.62.4-4.55.62-.89,2-.48,2,1.11,2.94,2.47a2.85,2.85,0,0,1,.38,3.31A7.18,7.18,0,0,1,50,119.32"></path>
      <path class="cls-12" d="M79.41,49.05a13.58,13.58,0,0,0-4.08,8.06,8.19,8.19,0,0,1-.55,2.31,4.47,4.47,0,0,1-1.55,1.79c-1.3.89-2.68,1.61-4,2.43,1.3-.86,2.67-1.64,3.91-2.56a4.35,4.35,0,0,0,1.43-1.76A8,8,0,0,0,75,57.07,14,14,0,0,1,79,48.58a.33.33,0,0,1,.47.47Z"></path>
      <path class="cls-12" d="M79.71,48.78c-.11,2.06.91,3.93,1.7,5.82a15.86,15.86,0,0,1,1,2.95,27.3,27.3,0,0,0,.66,3,44.64,44.64,0,0,0,2.53,5.61A11.53,11.53,0,0,1,87,72.1a11.74,11.74,0,0,0-1.62-5.85,44.91,44.91,0,0,1-2.68-5.59,25.6,25.6,0,0,1-.75-3,14,14,0,0,0-1-2.85c-.41-.93-.82-1.89-1.17-2.88a13.39,13.39,0,0,1-.4-1.54,7.24,7.24,0,0,1,0-1.61.17.17,0,0,1,.19-.17A.18.18,0,0,1,79.71,48.78Z"></path>
      <path class="cls-12" d="M80,48.64a18.67,18.67,0,0,1,0,5.28,5.87,5.87,0,0,1-.44,1.28c-.2.41-.46.78-.68,1.14a3.15,3.15,0,0,0-.27,2.4,13,13,0,0,0,.79,2.46c.3.81.64,1.63.89,2.48a7.37,7.37,0,0,1,.32,2.64,4,4,0,0,1-1,2.4,5.24,5.24,0,0,0,.4-4.95c-.27-.81-.65-1.6-1-2.41a12.37,12.37,0,0,1-.79-2.55,5.51,5.51,0,0,1-.09-1.35,2.64,2.64,0,0,1,.45-1.31,5.82,5.82,0,0,0,1.08-2.31,18.73,18.73,0,0,0-.12-5.17.21.21,0,0,1,.2-.23.21.21,0,0,1,.22.2Z"></path>
      <path class="cls-12" d="M79.91,49.74a11.3,11.3,0,0,1-4.63,4.07,11.13,11.13,0,0,0,4.34-4.24.17.17,0,1,1,.3.16Z"></path>
      <path class="cls-12" d="M80.52,48.65a1.07,1.07,0,0,1,0,.5l-.12.37-.26.7-.53,1.37a22.73,22.73,0,0,0-.86,2.77,10.57,10.57,0,0,0-.28,2.85c0,.24,0,.47.08.71a2.77,2.77,0,0,1,.11.76,2.15,2.15,0,0,1-.7,1.42c-.34.39-.93.58-1.05.9s.2.8.56,1.07c.73.58,1.76.86,2.41,1.68a3.08,3.08,0,0,1,.26,2.88c-.32.93-.83,1.78-1.07,2.74.21-1,.69-1.84,1-2.77a3,3,0,0,0-.32-2.73c-.62-.73-1.62-1-2.44-1.57a1.44,1.44,0,0,1-.7-1.4,1.32,1.32,0,0,1,.56-.62,2.93,2.93,0,0,0,.53-.45,1.8,1.8,0,0,0,.55-1.16,4.12,4.12,0,0,0-.11-.68,6.42,6.42,0,0,1-.1-.75,11,11,0,0,1,.27-3,23.39,23.39,0,0,1,.86-2.85L79.64,50l.25-.68c0-.11.07-.23.1-.33a1.47,1.47,0,0,0,0-.23.26.26,0,0,1,.17-.32A.26.26,0,0,1,80.52,48.65Z"></path>
      <path class="cls-12" d="M81,48.48l-.28,7.08a5.72,5.72,0,0,1-.28,1.84,3.88,3.88,0,0,1-1.12,1.53c-.44.42-.86.79-1.23,1.22a7.92,7.92,0,0,0-1,1.41c-1.06,2-1.2,4.43-1.41,6.76S75.3,73,75,75.37q0-3.54.23-7.08a17.25,17.25,0,0,1,1.37-7,8.3,8.3,0,0,1,1-1.54,13.91,13.91,0,0,1,1.28-1.27,3.49,3.49,0,0,0,1-1.3,5.08,5.08,0,0,0,.25-1.64l.39-7.07a.26.26,0,0,1,.52,0Z"></path>
      <path class="cls-12" d="M81.41,48.67a41.26,41.26,0,0,0,.32,5.65L82.38,60l.6,5.68c.24,1.88.22,3.85,1.24,5.51-1.13-1.59-1.27-3.62-1.57-5.47l-.83-5.65c-.26-1.89-.55-3.77-.77-5.67a27,27,0,0,1-.16-5.76.26.26,0,0,1,.28-.23A.26.26,0,0,1,81.41,48.67Z"></path>
      <path class="cls-12" d="M80.55,49.13a31.77,31.77,0,0,1-4.29,2.53c-.75.36-1.51.69-2.28,1a17.33,17.33,0,0,0-2.25,1c-1.5.75-2,2.48-2.54,4a15.41,15.41,0,0,0-.67,4.87,15.6,15.6,0,0,1,1.39-7.25,4.18,4.18,0,0,1,1.69-1.84,17.06,17.06,0,0,1,2.26-1c.75-.33,1.5-.67,2.23-1a31.84,31.84,0,0,0,4.16-2.6.26.26,0,1,1,.31.41Z"></path>
      <polygon class="cls-13" points="0 23.08 80.12 56.56 152.93 25.68 80.12 0 0 23.08"></polygon>
      <path class="cls-14" d="M79.69,31c1-3.37,2.38-8.72,8.68-12.76,0,0-5.06,6.22-5.71,16.88l-1.54,0C79.51,34.73,79.23,32.53,79.69,31Z"></path>
      <path class="cls-14" d="M78.12,4.82c-1.91.67,1.41,26.57,4.38,30l-2,.5C77.27,35.67,75.72,7.35,78.12,4.82Z"></path>
      <path class="cls-15" d="M85.15,9.54c-2,0-2,20.07-2.47,25.25l-2.37.45C77.1,34.55,82.06,11.15,85.15,9.54Z"></path>
      <path class="cls-16" d="M84.65,35.72a.92.92,0,0,0-.88-.32c-.49.15-.68.54-.59.68s.12.12.18.18.38-.22.39-.22Z"></path>
      <path class="cls-9" d="M84.91,36.31s-.16-.66-.41-.67-.53,0-.53,0l-.07.12s.25.44.35.47l.33.1A2.23,2.23,0,0,0,84.91,36.31Z"></path>
      <path class="cls-10" d="M84.89,36.39s.06-.21-.1-.25a2.09,2.09,0,0,0-.32-.07l-.48.35c-.08,0-.13,0,.1.11s.23.13.44.1A.63.63,0,0,0,84.89,36.39Z"></path>
      <path class="cls-11" d="M84.47,36.07a3,3,0,0,0-.3.29c-.11.13-.13.18-.27.11s-.51-.13-.6-.27-.09-.12,0-.29a.69.69,0,0,1,.47-.28.42.42,0,0,1,.47.09A1.24,1.24,0,0,1,84.47,36.07Z"></path>
      <path class="cls-16" d="M72.16,31.19A1.33,1.33,0,0,0,70.8,31c-.66.37-.81,1-.65,1.15a1.61,1.61,0,0,0,.32.21c.21.14.47-.43.49-.43Z"></path>
      <path class="cls-9" d="M72.71,32s-.43-.91-.79-.84a7.66,7.66,0,0,1-.78.1l-.06.19s.49.55.64.57l.51,0A4.15,4.15,0,0,0,72.71,32Z"></path>
      <path class="cls-10" d="M72.7,32.08c0-.09,0-.32-.21-.34a3.42,3.42,0,0,0-.49,0s-.48.55-.58.65-.17.1.18.12.36.12.66,0A.93.93,0,0,0,72.7,32.08Z"></path>
      <path class="cls-11" d="M72,31.74a3.33,3.33,0,0,0-.33.5c-.13.23-.14.3-.37.24s-.76,0-.94-.19-.17-.15,0-.43a1.07,1.07,0,0,1,.59-.55.58.58,0,0,1,.69,0A1.42,1.42,0,0,1,72,31.74Z"></path>
      <path class="cls-16" d="M81,29.38s-2.82-1.4-4.78.31-2.07,3.91-1.39,4.39a8.44,8.44,0,0,0,1.23.49c.81.3,1.32-1.81,1.36-1.84S81,29.38,81,29.38Z"></path>
      <path class="cls-9" d="M83.39,31.6s-2.09-2.79-3.28-2.3-2.58.88-2.58.88l-.08.71s2.06,1.53,2.6,1.48,1.52-.23,1.76-.23A11.86,11.86,0,0,0,83.39,31.6Z"></path>
      <path class="cls-10" d="M83.47,32c0-.31-.15-1.1-1-1a12.23,12.23,0,0,0-1.65.35S79.6,33.61,79.33,34s-.53.46.69.31,1.32.12,2.25-.44A3.17,3.17,0,0,0,83.47,32Z"></path>
      <path class="cls-11" d="M80.83,31.38a13.5,13.5,0,0,0-.77,1.94c-.26.89-.27,1.13-1.07,1.09s-2.61.47-3.33,0S75,34,75.17,33a3.75,3.75,0,0,1,1.59-2.31,2.1,2.1,0,0,1,2.38-.5A5.42,5.42,0,0,1,80.83,31.38Z"></path>
      <path class="cls-16" d="M91.8,30.28S90.18,28.07,88,28.62s-3.15,2.21-2.82,2.84a7.18,7.18,0,0,0,.76.87c.51.56,1.74-.88,1.79-.88Z"></path>
      <path class="cls-9" d="M92.78,33s-.51-3-1.62-3.08-2.35-.34-2.35-.34l-.34.51s1,2,1.42,2.18,1.27.43,1.45.52A9.77,9.77,0,0,0,92.78,33Z"></path>
      <path class="cls-10" d="M92.67,33.31c.1-.25.33-.91-.36-1.16a10.69,10.69,0,0,0-1.42-.39S89.05,33,88.68,33.19s-.59.15.42.52,1,.62,1.91.56A2.76,2.76,0,0,0,92.67,33.31Z"></path>
      <path class="cls-11" d="M90.89,31.76A13.37,13.37,0,0,0,89.52,33c-.55.58-.65.77-1.26.42s-2.21-.67-2.59-1.32-.38-.57.19-1.29A3.27,3.27,0,0,1,88,29.62a1.82,1.82,0,0,1,2,.56A4.76,4.76,0,0,1,90.89,31.76Z"></path>
      <path class="cls-16" d="M84.27,31.42s-2.32-1.79-4.43-.58-2.6,3.22-2.07,3.78a9.6,9.6,0,0,0,1,.67c.69.42,1.53-1.43,1.58-1.44S84.27,31.42,84.27,31.42Z"></path>
      <path class="cls-9" d="M86.07,33.89s-1.41-2.94-2.59-2.7-2.52.34-2.52.34l-.2.64s1.61,1.77,2.11,1.82,1.44.07,1.66.11A11.5,11.5,0,0,0,86.07,33.89Z"></path>
      <path class="cls-10" d="M86.07,34.29c0-.28.07-1-.72-1.09a11,11,0,0,0-1.58,0s-1.54,1.82-1.85,2.12-.57.34.58.41,1.19.36,2.13,0A3,3,0,0,0,86.07,34.29Z"></path>
      <path class="cls-11" d="M83.77,33.23a12.55,12.55,0,0,0-1.06,1.64c-.39.76-.45,1-1.18.8s-2.48,0-3.06-.59-.56-.48-.19-1.38a3.51,3.51,0,0,1,1.88-1.83,2,2,0,0,1,2.28,0A5.26,5.26,0,0,1,83.77,33.23Z"></path>
      <path class="cls-16" d="M96.37,35.5a1.43,1.43,0,0,0,1.3-.64c.34-.7.12-1.32-.13-1.38a2.72,2.72,0,0,0-.39,0c-.26,0-.16.65-.17.67Z"></path>
      <path class="cls-9" d="M95.45,35.16s.9.54,1.18.26.61-.54.61-.54l-.06-.21a3.07,3.07,0,0,0-.89-.11l-.46.27A3.59,3.59,0,0,0,95.45,35.16Z"></path>
      <path class="cls-10" d="M95.38,35.05a.27.27,0,0,0,.39.17,4.15,4.15,0,0,0,.42-.29s.08-.77.11-.9.09-.19-.23,0-.38.12-.57.38A1,1,0,0,0,95.38,35.05Z"></path>
      <path class="cls-11" d="M96.19,34.93a4.62,4.62,0,0,0,0-.63c0-.28-.06-.34.17-.43s.67-.43.92-.39.24,0,.3.34a1.13,1.13,0,0,1-.18.83.63.63,0,0,1-.6.41A1.54,1.54,0,0,1,96.19,34.93Z"></path>
      <path class="cls-16" d="M65.38,37.12a1.42,1.42,0,0,0,1.29-.64c.34-.7.12-1.33-.12-1.38a2.83,2.83,0,0,0-.4,0c-.26,0-.16.65-.17.66Z"></path>
      <path class="cls-9" d="M64.45,36.78s.91.53,1.18.26.61-.54.61-.54l-.06-.21a2.72,2.72,0,0,0-.89-.11c-.14.07-.39.24-.46.26A3.53,3.53,0,0,0,64.45,36.78Z"></path>
      <path class="cls-10" d="M64.38,36.67c.05.08.17.29.39.16a2.87,2.87,0,0,0,.42-.29s.08-.76.11-.9.1-.19-.22,0-.39.12-.58.38A1,1,0,0,0,64.38,36.67Z"></path>
      <path class="cls-11" d="M65.19,36.54a4.47,4.47,0,0,0,0-.62c0-.28-.06-.35.17-.43s.67-.43.92-.39.24,0,.3.34a1.1,1.1,0,0,1-.17.82.65.65,0,0,1-.61.42A1.68,1.68,0,0,1,65.19,36.54Z"></path>
      <path class="cls-16" d="M74.23,36a1.81,1.81,0,0,0,1.7-.7c.5-.86.27-1.67,0-1.76a2.54,2.54,0,0,0-.51,0c-.33,0-.26.82-.27.84S74.23,36,74.23,36Z"></path>
      <path class="cls-9" d="M73.09,35.49s1.1.76,1.47.43a10.18,10.18,0,0,1,.83-.63L75.33,35a3.75,3.75,0,0,0-1.13-.22c-.19.08-.52.27-.61.3A5.2,5.2,0,0,0,73.09,35.49Z"></path>
      <path class="cls-10" d="M73,35.34c0,.11.18.39.47.25a4.45,4.45,0,0,0,.56-.34s.18-1,.23-1.13.13-.24-.29,0-.5.12-.77.43A1.24,1.24,0,0,0,73,35.34Z"></path>
      <path class="cls-11" d="M74,35.25a5,5,0,0,0,0-.8c0-.35,0-.44.26-.52s.89-.5,1.21-.42.3.06.35.46a1.43,1.43,0,0,1-.3,1,.8.8,0,0,1-.8.48A2.24,2.24,0,0,1,74,35.25Z"></path>
      <path class="cls-16" d="M80.69,34.74a1.17,1.17,0,0,1,1-.16c.52.24.65.66.53.78a2.75,2.75,0,0,1-.24.15c-.16.09-.38-.29-.39-.29Z"></path>
      <path class="cls-9" d="M80.29,35.28s.31-.63.59-.59.6.05.6.05l.06.13s-.37.39-.49.4l-.39,0A3.25,3.25,0,0,1,80.29,35.28Z"></path>
      <path class="cls-10" d="M80.29,35.36a.18.18,0,0,1,.16-.23,2.76,2.76,0,0,1,.38,0s.38.37.46.43.14.06-.13.09-.28.08-.51,0A.66.66,0,0,1,80.29,35.36Z"></path>
      <path class="cls-11" d="M80.83,35.12a3.11,3.11,0,0,1,.27.33c.1.16.12.21.29.16s.59,0,.72-.15.13-.1,0-.29a.8.8,0,0,0-.46-.37.53.53,0,0,0-.55,0A1.11,1.11,0,0,0,80.83,35.12Z"></path>
      <path class="cls-16" d="M90.18,32.08s-2.18-1.62-4.11-.46-2.34,3-1.84,3.54a11.15,11.15,0,0,0,1,.6c.65.37,1.39-1.35,1.44-1.37Z"></path>
      <path class="cls-9" d="M91.89,34.32s-1.36-2.69-2.44-2.45-2.33.37-2.33.37l-.17.59s1.52,1.61,2,1.65,1.33,0,1.53.07A11.1,11.1,0,0,0,91.89,34.32Z"></path>
      <path class="cls-10" d="M91.9,34.7c0-.27,0-1-.69-1a11.14,11.14,0,0,0-1.46,0s-1.38,1.72-1.67,2-.52.32.55.36,1.1.31,2,0A2.72,2.72,0,0,0,91.9,34.7Z"></path>
      <path class="cls-11" d="M89.75,33.75a12.15,12.15,0,0,0-1,1.54c-.34.72-.39.92-1.07.77s-2.29,0-2.84-.49-.53-.43-.2-1.28a3.2,3.2,0,0,1,1.7-1.72,1.81,1.81,0,0,1,2.1-.07A4.76,4.76,0,0,1,89.75,33.75Z"></path>
      <path class="cls-16" d="M78.52,34.6a2.71,2.71,0,0,0-2.6.95c-.82,1.26-.52,2.5-.06,2.66a6.2,6.2,0,0,0,.76.07c.5,0,.44-1.22.46-1.24S78.52,34.6,78.52,34.6Z"></path>
      <path class="cls-9" d="M80.21,35.45S78.6,34.23,78,34.7s-1.29.9-1.29.9l.07.41a5.38,5.38,0,0,0,1.68.4c.3-.11.81-.37.94-.41A6.48,6.48,0,0,0,80.21,35.45Z"></path>
      <path class="cls-10" d="M80.33,35.67c-.07-.17-.26-.59-.71-.4a6.83,6.83,0,0,0-.86.47s-.33,1.44-.42,1.69-.21.35.44.06.75-.14,1.18-.6A1.86,1.86,0,0,0,80.33,35.67Z"></path>
      <path class="cls-11" d="M78.76,35.74a8.22,8.22,0,0,0-.12,1.2c0,.53,0,.67-.42.77s-1.37.69-1.84.55-.45-.1-.5-.7A2.14,2.14,0,0,1,76.39,36a1.22,1.22,0,0,1,1.24-.67A3.24,3.24,0,0,1,78.76,35.74Z"></path>
    </g>
  </g>
</svg>
