<?xml version="1.0" encoding="UTF-8"?>
<svg xmlns="http://www.w3.org/2000/svg" viewBox="0 0 103.62 280.88">
  <defs>
    <style>.cls-1{fill:#a0cae7;}.cls-2{fill:#d0e6f5;}.cls-3{fill:#b8d8ee;}.cls-4{fill:#a29274;}.cls-5{fill:#e3e0c9;}.cls-6{fill:#bda885;}.cls-7{fill:#7c705b;}.cls-8{fill:#d0c5a6;}.cls-9{fill:#a29277;}.cls-10{fill:#817870;}.cls-11{fill:#79a05b;}</style>
  </defs>
  <g id="Слой_2" data-name="Слой 2">
    <g id="Слой_1-2" data-name="Слой 1">
      <path class="cls-1" d="M33.05,53.5S20.29,66.4,26.54,73.35c6.09,6.77,15.71.6,12.21-8.61C35.6,56.48,33.05,53.5,33.05,53.5Z"></path>
      <path class="cls-2" d="M28.83,65.6c.44-1.33,1.44-4.37,1.83-5.46a28.87,28.87,0,0,1,1.73-3.56s1.22-2.34-1.88,1-5,9.54-4.09,9.9C27.17,67.78,28.4,66.91,28.83,65.6Z"></path>
      <path class="cls-3" d="M36,70.06c-.37,1.25-.2,2.42.4,2.59a2.29,2.29,0,0,0,2.31-1.72c.38-1.49-.37-2.71-1-2.84S36.33,68.8,36,70.06Z"></path>
      <path class="cls-1" d="M54.32,53.5S41.56,66.4,47.81,73.35C53.9,80.12,63.52,74,60,64.74,56.87,56.48,54.32,53.5,54.32,53.5Z"></path>
      <path class="cls-2" d="M50.1,65.6c.45-1.33,1.44-4.37,1.83-5.46a28.87,28.87,0,0,1,1.73-3.56s1.22-2.34-1.88,1-5,9.54-4.09,9.9C48.44,67.78,49.67,66.91,50.1,65.6Z"></path>
      <path class="cls-3" d="M57.23,70.06c-.37,1.25-.2,2.42.4,2.59a2.29,2.29,0,0,0,2.31-1.72c.38-1.49-.37-2.71-1-2.84S57.6,68.8,57.23,70.06Z"></path>
      <path class="cls-1" d="M75.59,53.5S62.83,66.4,69.08,73.35c6.09,6.77,15.71.6,12.21-8.61C78.14,56.48,75.59,53.5,75.59,53.5Z"></path>
      <path class="cls-2" d="M71.37,65.6c.45-1.33,1.44-4.37,1.83-5.46a28.87,28.87,0,0,1,1.73-3.56s1.22-2.34-1.88,1-5,9.54-4.09,9.9C69.71,67.78,70.94,66.91,71.37,65.6Z"></path>
      <path class="cls-3" d="M78.5,70.06c-.37,1.25-.2,2.42.4,2.59a2.29,2.29,0,0,0,2.31-1.72c.38-1.49-.37-2.71-1-2.84S78.87,68.8,78.5,70.06Z"></path>
      <path class="cls-1" d="M46.09,25.23s-12.75,12.9-6.51,19.84c6.09,6.78,15.71.61,12.21-8.6C48.65,28.2,46.09,25.23,46.09,25.23Z"></path>
      <path class="cls-2" d="M41.88,37.33C42.32,36,43.31,33,43.7,31.86a29.68,29.68,0,0,1,1.73-3.56s1.22-2.34-1.88,1-5,9.53-4.09,9.89C40.22,39.5,41.45,38.63,41.88,37.33Z"></path>
      <path class="cls-3" d="M49,41.78c-.37,1.26-.19,2.42.4,2.6a2.3,2.3,0,0,0,2.32-1.73c.38-1.49-.37-2.7-1-2.83S49.38,40.52,49,41.78Z"></path>
      <path class="cls-1" d="M67.36,25.23s-12.75,12.9-6.51,19.84c6.09,6.78,15.71.61,12.21-8.6C69.92,28.2,67.36,25.23,67.36,25.23Z"></path>
      <path class="cls-2" d="M63.15,37.33C63.59,36,64.58,33,65,31.86A28.63,28.63,0,0,1,66.7,28.3s1.23-2.34-1.88,1-5,9.53-4.09,9.89C61.49,39.5,62.72,38.63,63.15,37.33Z"></path>
      <path class="cls-3" d="M70.28,41.78c-.38,1.26-.2,2.42.39,2.6A2.3,2.3,0,0,0,73,42.65c.38-1.49-.37-2.7-1-2.83S70.65,40.52,70.28,41.78Z"></path>
      <path class="cls-1" d="M57.85,0S45.09,12.9,51.34,19.84c6.08,6.78,15.71.61,12.2-8.6C60.4,3,57.85,0,57.85,0Z"></path>
      <path class="cls-2" d="M53.63,12.1c.44-1.33,1.44-4.37,1.83-5.47a29.68,29.68,0,0,1,1.73-3.56s1.22-2.34-1.88,1-5,9.53-4.09,9.89C52,14.27,53.2,13.4,53.63,12.1Z"></path>
      <path class="cls-3" d="M60.76,16.55c-.37,1.26-.2,2.42.4,2.6a2.29,2.29,0,0,0,2.31-1.73c.38-1.49-.37-2.7-1-2.83S61.13,15.29,60.76,16.55Z"></path>
      <polygon class="cls-4" points="51.88 212.71 103.62 190.68 95.86 250.25 51.88 280.88 51.88 212.71"></polygon>
      <polygon class="cls-5" points="51.88 175.79 103.62 190.68 51.88 212.71 0 190.68 51.88 175.79"></polygon>
      <polygon class="cls-6" points="51.88 212.71 0 190.68 7.76 250.25 21.46 259.76 21.18 259.56 21.46 259.76 51.88 280.88 51.88 212.71"></polygon>
      <path class="cls-7" d="M50.66,279.06c1.21-1.71,2.27-3.52,3.38-5.28s2.15-3.56,3.17-5.38,2-3.64,2.9-5.5,1.72-3.77,2.52-5.74a26.43,26.43,0,0,1-1.5,6.18,43.64,43.64,0,0,1-2.68,5.76,48.06,48.06,0,0,1-3.5,5.3A27.1,27.1,0,0,1,50.66,279.06Z"></path>
      <path class="cls-8" d="M32.61,191.41a21.57,21.57,0,0,1,5.23-4.94,28,28,0,0,1,6.51-3.21,31.88,31.88,0,0,1,7.09-1.44c1.19-.15,2.4-.1,3.6-.14s2.39.16,3.58.3c-1.19.18-2.37.26-3.55.4l-1.75.26a17.49,17.49,0,0,0-1.74.28c-1.15.23-2.3.4-3.42.73s-2.25.62-3.36,1a39.33,39.33,0,0,0-6.38,2.8A40,40,0,0,0,32.61,191.41Z"></path>
      <path class="cls-8" d="M23.77,193.51a7.28,7.28,0,0,0,2.06.32c.7,0,1.41,0,2.1,0a39.14,39.14,0,0,0,4.18-.4c1.39-.19,2.77-.46,4.16-.73s2.8-.59,4.24-.82a19,19,0,0,1-3.94,1.89,22.13,22.13,0,0,1-4.26,1.06,17.67,17.67,0,0,1-4.42.1,12.39,12.39,0,0,1-2.18-.44,8.61,8.61,0,0,1-1-.4A2.33,2.33,0,0,1,23.77,193.51Z"></path>
      <path class="cls-7" d="M61.23,235.62c-.24-1.49-.54-3-.64-4.54a20,20,0,0,1,.21-4.63A16,16,0,0,1,62.2,222,14.67,14.67,0,0,1,65,218.11a16,16,0,0,1,3.86-2.74,20.11,20.11,0,0,1,4.41-1.55,28.21,28.21,0,0,1,9.15-.51,43.26,43.26,0,0,0-8.86,1.58A18,18,0,0,0,66,219.13a15.18,15.18,0,0,0-4.09,7.54A37.35,37.35,0,0,0,61.23,235.62Z"></path>
      <path class="cls-7" d="M78.94,221.53c2.47-3.64,5-7.14,7.38-10.79a60.05,60.05,0,0,0,3.27-5.57,19.58,19.58,0,0,0,2.17-6.07,13.23,13.23,0,0,1-1.16,6.52,33.34,33.34,0,0,1-3.09,5.89,52.57,52.57,0,0,1-4,5.31A41.94,41.94,0,0,1,78.94,221.53Z"></path>
      <path class="cls-7" d="M67,240.45c.14.22.44.28.67.39l.75.28c.5.17,1,.34,1.52.49,1,.31,2,.59,3.06.86,2.06.53,4.12,1,6.2,1.43s4.16.78,6.26,1.13l6.35.95a37.79,37.79,0,0,1-6.47.15,46.57,46.57,0,0,1-6.43-.84,43.84,43.84,0,0,1-6.24-1.76,31.54,31.54,0,0,1-3-1.27c-.48-.25-1-.5-1.43-.78A3.59,3.59,0,0,1,67,240.45Z"></path>
      <path class="cls-7" d="M79.44,248a13.38,13.38,0,0,1-1.36-4.19,15.55,15.55,0,0,1-.12-4.47,13.66,13.66,0,0,1,3.84-8.1,18.93,18.93,0,0,1,7.69-4.55,30.7,30.7,0,0,1,8.68-1.4,54.39,54.39,0,0,0-8.3,2.44,20.89,20.89,0,0,0-7.06,4.5,13.94,13.94,0,0,0-3.76,7.28,18,18,0,0,0-.28,4.22A17.76,17.76,0,0,0,79.44,248Z"></path>
      <path class="cls-7" d="M98.17,220.7A29.61,29.61,0,0,1,97,226.59a38.21,38.21,0,0,1-2.14,5.62,30.93,30.93,0,0,1-3.16,5.15,18.26,18.26,0,0,1-4.42,4.09,41.31,41.31,0,0,0,3.51-4.73q1.52-2.49,2.79-5.13c.86-1.75,1.62-3.55,2.37-5.37S97.45,222.57,98.17,220.7Z"></path>
      <path class="cls-8" d="M64.39,207.36l1-.42a34.46,34.46,0,0,0-4.72-1.73C62,205.92,63.24,206.64,64.39,207.36Z"></path>
      <path class="cls-7" d="M64,208.24c-.73,1.82-1.33,3.32-2.22,5.07a37.19,37.19,0,0,1-6.46,9.77,20,20,0,0,0,4.3-4.17,35.92,35.92,0,0,0,3.12-5.14,47.56,47.56,0,0,0,2.34-5.52c.11-.37.23-.94.34-1.31l-1,.42C64.33,207.53,64.08,208.07,64,208.24Z"></path>
      <path class="cls-9" d="M5.91,236.67a15.63,15.63,0,0,1,4.67-3.95,25.92,25.92,0,0,1,5.66-2.41,31.21,31.21,0,0,1,6.05-1.08c1-.09,2-.06,3.06-.08s2,.14,3,.26c-1,.19-2,.3-3,.44s-2,.3-3,.49-2,.33-2.92.6-1.92.46-2.87.73a42.37,42.37,0,0,0-5.55,2A28.43,28.43,0,0,0,5.91,236.67Z"></path>
      <path class="cls-9" d="M9.09,228.4c2.05-1.3,4-2.68,6-4.05s4-2.74,5.89-4.15,3.9-2.81,5.82-4.25c.94-.73,1.89-1.46,2.81-2.23a16.42,16.42,0,0,0,2.53-2.54,11.45,11.45,0,0,1-2,3,35.16,35.16,0,0,1-2.59,2.59,65.3,65.3,0,0,1-5.7,4.55c-2,1.41-4,2.73-6.13,3.94A37.7,37.7,0,0,1,9.09,228.4Z"></path>
      <path class="cls-9" d="M8.83,247.54a5.9,5.9,0,0,1,2.32-5.69A10.65,10.65,0,0,1,17.29,240a23.74,23.74,0,0,1,6.2.87,31.76,31.76,0,0,1,5.8,2.15c-2.05-.3-4-.79-6-1.07-1-.19-2-.28-3-.38a24.62,24.62,0,0,0-3-.15,11.37,11.37,0,0,0-5.53,1.31A6.35,6.35,0,0,0,8.83,247.54Z"></path>
      <path class="cls-9" d="M2.06,200.71a6.44,6.44,0,0,0,2.32,2.56,16.53,16.53,0,0,0,3.05,1.63,38,38,0,0,0,6.74,1.87c2.31.44,4.65.76,7,1s4.73.46,7.11.79a50.7,50.7,0,0,1-7.19.32,47.25,47.25,0,0,1-7.19-.74A27.59,27.59,0,0,1,7,205.9a13.45,13.45,0,0,1-3-2.1A5.72,5.72,0,0,1,2.06,200.71Z"></path>
      <path class="cls-9" d="M38.31,271.09A13.47,13.47,0,0,1,34.89,269a8,8,0,0,1-2.5-3.28,4.91,4.91,0,0,1-.32-2.19,5.47,5.47,0,0,1,.65-2.11,9.84,9.84,0,0,1,2.85-3.09,26.41,26.41,0,0,1,7.21-3.54,46.83,46.83,0,0,1,7.71-1.87c-2.45,1-4.91,1.89-7.31,2.9a34,34,0,0,0-6.76,3.65,9.05,9.05,0,0,0-2.53,2.6,4,4,0,0,0-.45,3.3,8,8,0,0,0,1.93,3.13A19.14,19.14,0,0,0,38.31,271.09Z"></path>
      <path class="cls-9" d="M29.55,207a4.87,4.87,0,0,0-.36,4.16c1.09,2.65,3.44,4.27,5.78,5.39a17.17,17.17,0,0,1-3-2.5,7.82,7.82,0,0,1-2-3.15,4.25,4.25,0,0,1,.43-3.43A8.94,8.94,0,0,1,33,204.8l.12-.07L32,204.25A9.39,9.39,0,0,0,29.55,207Z"></path>
      <path class="cls-8" d="M49.1,202.77a70.94,70.94,0,0,0-8.61-.15,24.56,24.56,0,0,0-7.25,1.16l-1.27.47,1.12.48a34.2,34.2,0,0,1,7.68-1.36C43.5,203.09,46.31,203,49.1,202.77Z"></path>
      <path class="cls-9" d="M28.65,255.83a14.07,14.07,0,0,0-3.21.38,7.34,7.34,0,0,0-2.91,1.58,3.78,3.78,0,0,0-1.1,1.95l.28.21a4.23,4.23,0,0,1,1.35-1.55,8,8,0,0,1,2.67-1.17,53.53,53.53,0,0,1,6.08-1A14,14,0,0,0,28.65,255.83Z"></path>
      <path class="cls-9" d="M27.64,251.11c2.08-1.11,4.26-2,6.37-2.91s4.22-1.89,6.26-3a43,43,0,0,0,5.84-3.6,17.56,17.56,0,0,0,4.7-5,12.87,12.87,0,0,1-4,5.83,28.92,28.92,0,0,1-5.88,4,47.55,47.55,0,0,1-6.52,2.73C32.19,250,29.91,250.55,27.64,251.11Z"></path>
      <path class="cls-7" d="M56.65,268c2.08-1.12,4.26-2,6.37-2.91s4.22-1.9,6.26-3a44.59,44.59,0,0,0,5.84-3.59,17.69,17.69,0,0,0,4.7-5,13,13,0,0,1-4,5.82,29.2,29.2,0,0,1-5.88,4,48.89,48.89,0,0,1-6.52,2.74C61.2,266.91,58.92,267.45,56.65,268Z"></path>
      <path class="cls-8" d="M59.47,206.2a35.62,35.62,0,0,1,4.79-6.3,37.35,37.35,0,0,1,6-5.21,26,26,0,0,1,7.19-3.54,19,19,0,0,1,3.94-.74,15.47,15.47,0,0,1,4,.26,23.51,23.51,0,0,0-3.87.43,24,24,0,0,0-3.68,1.1,33.09,33.09,0,0,0-6.74,3.66,56.66,56.66,0,0,0-6,4.83Q62.16,203.32,59.47,206.2Z"></path>
      <path class="cls-7" d="M100.47,198.3a10.51,10.51,0,0,0-6.16,1.08c1-.1,2-.18,3-.2a16.14,16.14,0,0,1,3,.16,9.61,9.61,0,0,1,2.13.52l.11-.93A10.46,10.46,0,0,0,100.47,198.3Z"></path>
      <path class="cls-9" d="M5.91,227a17.55,17.55,0,0,1,4.33.5A19.67,19.67,0,0,1,14.39,229a11,11,0,0,1,3.6,2.7,5.45,5.45,0,0,1,1.09,2,3.92,3.92,0,0,1-.06,2.23,5.14,5.14,0,0,0-1.84-3.51,14.87,14.87,0,0,0-3.42-2.18C11.27,229,8.6,228.1,5.91,227Z"></path>
      <path class="cls-9" d="M27.49,246.07c2.51-3.71,5.1-7.29,7.39-11a53.73,53.73,0,0,0,3.18-5.75A23.43,23.43,0,0,0,40.14,223a14.94,14.94,0,0,1-1.06,6.66,31.77,31.77,0,0,1-1.33,3.12c-.54,1-1.07,2-1.66,3a49.47,49.47,0,0,1-3.94,5.46A41,41,0,0,1,27.49,246.07Z"></path>
      <ellipse class="cls-4" cx="53.52" cy="191.72" rx="11.95" ry="4.67"></ellipse>
      <ellipse class="cls-10" cx="53.83" cy="193.3" rx="9.85" ry="3.85"></ellipse>
      <path class="cls-11" d="M53.22,194.53a4,4,0,0,0-1.06-.56c-5.64-1.1-9.06-4.77-11.36-9.74a25,25,0,0,1-1.38-3.74,2.4,2.4,0,0,1,.2-1.84c.6-.74,1.47-.27,2.17.08a22.37,22.37,0,0,1,2.42,1.4,33.89,33.89,0,0,1,7.92,7.29l2.18,2.81c.5-1.93.39-3.23-.69-4.39-.73-.78-1.44-1.58-2.19-2.35s-.82-1.65-.3-2.83a32.56,32.56,0,0,0,1.2-5c.11-.42.57-.76.86-1.13a5.24,5.24,0,0,1,1,1.11c.33.72.49,1.52.78,2.27a4,4,0,0,0,.72,1.4c.43.41,1.47.6,1.49.94a13.09,13.09,0,0,1-.32,3.52c-.25,1.16-.71,2.28-1,3.43,0,.15.21.51.39.56a.67.67,0,0,0,.6-.29c1.23-2.8,2.32-5.67,3.66-8.41a31.51,31.51,0,0,1,3.1-4.64,1.62,1.62,0,0,1,1.37-.53,1.58,1.58,0,0,1,.87,1.15,21.33,21.33,0,0,1-.36,8.35A36.59,36.59,0,0,1,63,189.7c-1.36,2.75-3.84,4.35-6.55,5.61Z"></path>
    </g>
  </g>
</svg>
