<?xml version="1.0" encoding="UTF-8"?>
<svg xmlns="http://www.w3.org/2000/svg" viewBox="0 0 108.49 110.03">
  <defs>
    <style>.cls-1{fill:#a5a5a5;}.cls-2{fill:#a29274;}.cls-3{fill:#e3e0c9;}.cls-4{fill:#fcedce;}.cls-5{fill:#bda885;}.cls-6{fill:#d0c5a6;}.cls-7{fill:#8f8267;}.cls-8{fill:#ab967a;opacity:0.25;}.cls-9{fill:#9b8d71;}.cls-10{fill:#7c705b;}.cls-11{fill:#cacac9;}.cls-12{fill:#817870;}.cls-13{fill:#90b23d;}</style>
  </defs>
  <g id="Слой_2" data-name="Слой 2">
    <g id="Слой_1-2" data-name="Слой 1">
      <polygon class="cls-1" points="93.71 96.49 93.76 96.4 93.67 96.39 93.71 96.49"></polygon>
      <polygon class="cls-2" points="54.32 38.65 108.49 15.59 100.36 77.96 54.32 110.03 54.32 38.65"></polygon>
      <polygon class="cls-3" points="54.32 0 108.49 15.59 54.32 38.65 0 15.59 54.32 0"></polygon>
      <polygon class="cls-4" points="54.32 0 0 15.59 0.95 16 107.99 15.45 54.32 0"></polygon>
      <polygon class="cls-5" points="8.13 77.96 0 15.59 54.32 38.65 54.32 110.03 8.13 77.96"></polygon>
      <path class="cls-6" d="M34.14,16.36a30.11,30.11,0,0,1,2.57-2.74,23,23,0,0,1,3-2.31A30.11,30.11,0,0,1,46.49,8a34.76,34.76,0,0,1,7.38-1.55c1.25-.17,2.51-.14,3.76-.19s2.5.11,3.74.21c-1.24.15-2.48.19-3.71.33l-1.84.24A18.33,18.33,0,0,0,54,7.32c-1.21.23-2.43.4-3.61.74s-2.37.64-3.54,1a38.87,38.87,0,0,0-6.69,3A37,37,0,0,0,34.14,16.36Z"></path>
      <polygon class="cls-7" points="54.32 38.65 108.49 15.59 100.36 77.96 54.32 110.03 54.32 38.65"></polygon>
      <polygon class="cls-8" points="8.13 77.96 0 15.59 54.32 38.65 54.32 110.03 8.13 77.96"></polygon>
      <polygon class="cls-9" points="54.32 110.03 8.13 77.96 54.54 60.42 100.36 77.96 54.32 110.03"></polygon>
      <path class="cls-10" d="M17.94,50.54a16.61,16.61,0,0,1-1.4-9,14.32,14.32,0,0,1,4-8.37,19.88,19.88,0,0,1,8-4.75,34.1,34.1,0,0,1,9-1.62c-.74.17-1.49.33-2.23.48s-1.48.37-2.21.55-1.45.42-2.18.62-1.42.5-2.12.77a21.68,21.68,0,0,0-7.47,4.72,14.63,14.63,0,0,0-4,7.73,17,17,0,0,0-.23,4.46A16.92,16.92,0,0,0,17.94,50.54Z"></path>
      <path class="cls-10" d="M68.42,49.68c.14.23.45.31.69.44l.77.32c.52.2,1.05.37,1.58.54,1.06.35,2.13.66,3.2,1,2.15.58,4.31,1.11,6.49,1.54,4.36.9,8.77,1.47,13.24,2a48.72,48.72,0,0,1-13.46-.91,47.84,47.84,0,0,1-6.53-1.8c-1.06-.37-2.11-.8-3.14-1.27-.51-.25-1-.51-1.51-.79A3.7,3.7,0,0,1,68.42,49.68Z"></path>
      <path class="cls-10" d="M39.32,46.43a39.77,39.77,0,0,1-3.59,12,33.61,33.61,0,0,1-3.26,5.39A20.94,20.94,0,0,1,28,68.15a36.6,36.6,0,0,0,3.8-4.86,56.23,56.23,0,0,0,3-5.37c.9-1.85,1.69-3.74,2.45-5.66S38.66,48.4,39.32,46.43Z"></path>
      <path class="cls-10" d="M56.13,96.07c2.2-1.08,4.49-1.94,6.72-2.91s4.45-2,6.59-3.07a43.26,43.26,0,0,0,6.12-3.82A17.46,17.46,0,0,0,80.39,81a14,14,0,0,1-4.28,6A31.79,31.79,0,0,1,70,91.07,53.71,53.71,0,0,1,63.17,94c-1.16.42-2.33.78-3.51,1.12Z"></path>
      <path class="cls-10" d="M30.72,89.22A15.06,15.06,0,0,1,27.21,87a8.49,8.49,0,0,1-2.55-3.42,4.91,4.91,0,0,1-.3-2.22A5.52,5.52,0,0,1,25,79.21,10.24,10.24,0,0,1,28,76a28.69,28.69,0,0,1,7.5-3.72,56,56,0,0,1,8-2.09c-2.6.94-5.18,1.86-7.71,2.9a34.1,34.1,0,0,0-7.14,3.8,9.39,9.39,0,0,0-2.69,2.79,4.37,4.37,0,0,0-.46,3.58,8.55,8.55,0,0,0,2.1,3.31A18.37,18.37,0,0,0,30.72,89.22Z"></path>
      <path class="cls-10" d="M80.39,48.43l4-5.56c1.32-1.86,2.62-3.73,3.85-5.64a58.26,58.26,0,0,0,3.4-5.88,18.94,18.94,0,0,0,2.13-6.41,14.56,14.56,0,0,1-1.34,6.77,36.61,36.61,0,0,1-3.26,6.12A58.24,58.24,0,0,1,80.39,48.43Z"></path>
      <polygon class="cls-1" points="52.34 73.99 52.4 73.89 52.3 73.89 52.34 73.99"></polygon>
      <path class="cls-11" d="M54.7,28.78l2.76.67c.18,3.07.36,6.13.53,9.2A14.27,14.27,0,0,1,56.69,46c-.26.51-.48,1.08-1.15,1-.11,0-.18-.84-.11-1.26.29-1.67.71-3.32.94-5a5,5,0,0,0-.82-3.88,6,6,0,0,1-.79-2.9C54.63,32.2,54.71,30.49,54.7,28.78Z"></path>
      <polygon class="cls-4" points="0.95 16 54.32 38.65 108.49 15.59 107.99 15.45 0.95 16"></polygon>
      <ellipse class="cls-2" cx="56.04" cy="16.68" rx="12.51" ry="4.89"></ellipse>
      <ellipse class="cls-12" cx="56.35" cy="18.33" rx="10.31" ry="4.03"></ellipse>
      <path class="cls-13" d="M57.61,19.53c-.87.2,2.86-13.28,8.83-15.48C66.44,4.05,67.69,17.16,57.61,19.53Z"></path>
      <path class="cls-13" d="M57.85,19.32S54.47,8.81,44.62,6.7C44.62,6.7,44.53,17,57.85,19.32Z"></path>
    </g>
  </g>
</svg>
