<?xml version="1.0" encoding="UTF-8"?>
<svg xmlns="http://www.w3.org/2000/svg" viewBox="0 0 145.5 277.52">
  <defs>
    <style>.cls-1{fill:#745831;}.cls-2{fill:#917448;}.cls-3{fill:#554020;}.cls-4{fill:#a5a5a5;}.cls-5{fill:#a29274;}.cls-6{fill:#e3e0c9;}.cls-7{fill:#fcedce;}.cls-8{fill:#bda885;}.cls-9{fill:#d0c5a6;}.cls-10{fill:#8f8267;}.cls-11{fill:#ab967a;opacity:0.25;}.cls-12{fill:#9b8d71;}.cls-13{fill:#7c705b;}.cls-14{fill:#817870;}</style>
  </defs>
  <g id="Слой_2" data-name="Слой 2">
    <g id="Слой_1-2" data-name="Слой 1">
      <path class="cls-1" d="M86.11,49.3A8.63,8.63,0,0,1,86,52a12.51,12.51,0,0,1-1.92,4.6,8.27,8.27,0,0,1-1.81,1.95,8.34,8.34,0,0,1,.11-2.66,12.31,12.31,0,0,1,1.93-4.6A8.07,8.07,0,0,1,86.11,49.3Z"></path>
      <path class="cls-1" d="M77.92,87.52c-.45-.8-.84-1.62-1.23-2.44s-.74-1.64-1.07-2.47a6.29,6.29,0,0,1-.91-2.52,4.64,4.64,0,0,1,.18-1.4,4.76,4.76,0,0,1,.66-1.51l.32-.08a5,5,0,0,1,1.27,1.08,5.08,5.08,0,0,1,.77,1.18A6.57,6.57,0,0,1,78.18,82c.06.89.1,1.79.11,2.7s0,1.81-.05,2.73Z"></path>
      <path class="cls-1" d="M80.14,21.91a5.21,5.21,0,0,1-2.48-1.71,6.7,6.7,0,0,1-1-2.59,24.45,24.45,0,0,1-.72-2.67c-.17-.91-.35-1.81-.43-2.74l.27-.09c.5.77,1,1.55,1.46,2.3l1.45,2.24a8.38,8.38,0,0,1,1.44,2.19,6.22,6.22,0,0,1,.25,2.92Z"></path>
      <path class="cls-1" d="M80,2c-1.09,8-2.22,16-2.58,24.13-.38,8.7.76,17.21,1.28,25.87,1,15.84-.84,31.92-8,46.25-1.62,3.22,3.23,6.08,4.86,2.84,6.83-13.65,9.32-28.75,9-43.92C84.4,48.8,83,40.46,83,32,82.9,22.48,84.18,13,85.47,3.53,86,0,80.53-1.54,80,2Z"></path>
      <ellipse class="cls-2" cx="72.88" cy="100.58" rx="1.64" ry="2.61" transform="translate(-45.71 137.53) rotate(-71.38)"></ellipse>
      <path class="cls-3" d="M81.19,2a3.54,3.54,0,0,1,.86-.91A1.93,1.93,0,0,1,83.23.62a2,2,0,0,1,1.2.41c.18.13.32.28.48.42l.4.49,0,0V2L84.08,14.11c-.4,4-.81,8.06-1,12.08-.06,4,.26,8.06.53,12.09l.49,6,.29,3,.16,1.51c0,.25.06.49.1.73l.05.37a2.38,2.38,0,0,1,0,.26l0,.45s0,0,0-.13a.45.45,0,0,0-.17-.28l-.12-.06h-.06c-.06,0,.07,0,.17-.06a5,5,0,0,0,.65-.34,3.65,3.65,0,0,0,.57-.47L86,49l.13-.11.1-.07a.71.71,0,0,1,.26-.09.61.61,0,0,1,.4.06.65.65,0,0,1,.24.2.83.83,0,0,1,.13.26,4.09,4.09,0,0,1,.17,1,2.92,2.92,0,0,1-.11,1A8.07,8.07,0,0,1,86.64,53c-.29.52-.6,1-.88,1.5a7.27,7.27,0,0,0-.39.69.9.9,0,0,0-.07.2v.34c0,1.14.08,2.3.08,3.45A102.64,102.64,0,0,1,84.62,73,83.27,83.27,0,0,1,81.8,86.5a50.91,50.91,0,0,1-5.61,12.58L76.07,99a59.5,59.5,0,0,0,4.78-12.78,90.84,90.84,0,0,0,2.37-13.42q.21-1.69.33-3.39c.1-1.13.17-2.27.23-3.41q.21-3.41.22-6.82c0-1.14,0-2.27,0-3.42v-.52a2.41,2.41,0,0,1,.2-.61c.15-.3.31-.55.46-.8.31-.49.62-1,.89-1.44A6.42,6.42,0,0,0,86.19,51a2,2,0,0,0,.09-.65,3.87,3.87,0,0,0-.09-.69s0,0,0,.07a.71.71,0,0,0,.16.13.63.63,0,0,0,.3.05.35.35,0,0,0,.16-.06h0s0,0,0,0l-.3.3a4.1,4.1,0,0,1-.76.6,4.78,4.78,0,0,1-.88.43,1.45,1.45,0,0,1-.66.12l-.17,0a.77.77,0,0,1-.21-.1.71.71,0,0,1-.28-.46.9.9,0,0,1,.1-.54l0,.44-.11-.48,0-.38c0-.26-.06-.52-.08-.77l-.15-1.52-.24-3-.39-6.07c-.21-4.05-.47-8.09-.35-12.19.31-4.06.82-8.07,1.29-12.1L85.1,2l0,.09-.38-.47a5.66,5.66,0,0,0-.44-.4,1.83,1.83,0,0,0-1.07-.4,2.55,2.55,0,0,0-1.92,1.24Z"></path>
      <path class="cls-2" d="M80.49,2.79S76.27,26.87,78.9,40.45s.88,47.23-7.08,57.07c0,0,.76-.35,2.47.59,0,0,10.81-23.22,6.2-57C80.49,41.07,77.75,36.14,80.49,2.79Z"></path>
      <polygon class="cls-4" points="125.67 259.36 125.74 259.24 125.62 259.23 125.67 259.36"></polygon>
      <polygon class="cls-5" points="72.85 181.79 145.5 150.87 134.6 234.51 72.85 277.52 72.85 181.79"></polygon>
      <polygon class="cls-6" points="72.85 129.96 145.5 150.87 72.85 181.79 0 150.87 72.85 129.96"></polygon>
      <polygon class="cls-7" points="72.85 129.96 0 150.87 1.28 151.41 144.82 150.67 72.85 129.96"></polygon>
      <polygon class="cls-8" points="10.9 234.51 0 150.87 72.85 181.79 72.85 277.52 10.9 234.51"></polygon>
      <path class="cls-9" d="M45.79,151.89a39.56,39.56,0,0,1,3.44-3.67,32.58,32.58,0,0,1,4-3.11,39.1,39.1,0,0,1,9.13-4.42c1.61-.53,3.24-1,4.89-1.33a50.06,50.06,0,0,1,5-.76,47.64,47.64,0,0,1,10.06.05c-3.35.21-6.65.57-9.91,1.1a61.17,61.17,0,0,0-9.58,2.35,50.14,50.14,0,0,0-9,4A50.74,50.74,0,0,0,45.79,151.89Z"></path>
      <polygon class="cls-10" points="72.85 181.79 145.5 150.87 134.6 234.51 72.85 277.52 72.85 181.79"></polygon>
      <polygon class="cls-11" points="10.9 234.51 0 150.87 72.85 181.79 72.85 277.52 10.9 234.51"></polygon>
      <polygon class="cls-12" points="72.85 277.52 10.9 234.51 73.14 210.99 134.6 234.51 72.85 277.52"></polygon>
      <path class="cls-13" d="M24.06,197.74A13.53,13.53,0,0,1,23,194.87a24.09,24.09,0,0,1-.67-3,22.41,22.41,0,0,1-.11-6.23,19.89,19.89,0,0,1,1.75-6.05,20.32,20.32,0,0,1,3.63-5.18A26.9,26.9,0,0,1,38.24,168a45.42,45.42,0,0,1,12.12-2.16,68.17,68.17,0,0,0-11.72,3.25,28.79,28.79,0,0,0-10,6.32,19.52,19.52,0,0,0-5.3,10.36,24.39,24.39,0,0,0-.32,6A23,23,0,0,0,24.06,197.74Z"></path>
      <path class="cls-13" d="M91.76,196.59c.19.31.6.41.92.58l1,.43c.69.27,1.4.51,2.12.73,1.41.47,2.85.88,4.29,1.29,2.88.78,5.78,1.48,8.7,2.06,5.85,1.2,11.77,2,17.76,2.66a65.19,65.19,0,0,1-18-1.21,64.5,64.5,0,0,1-8.76-2.41A45.3,45.3,0,0,1,95.57,199c-.69-.33-1.36-.67-2-1.05-.33-.19-.66-.38-1-.59l-.46-.34C92,196.89,91.78,196.78,91.76,196.59Z"></path>
      <path class="cls-13" d="M52.74,192.22A46.24,46.24,0,0,1,51,200.43a57.6,57.6,0,0,1-3,7.85,45.4,45.4,0,0,1-4.38,7.22,27.24,27.24,0,0,1-6,5.85,48.7,48.7,0,0,0,5.09-6.52,73.19,73.19,0,0,0,4-7.2c1.2-2.47,2.26-5,3.29-7.58S51.83,194.87,52.74,192.22Z"></path>
      <path class="cls-13" d="M75.27,258.79c3-1.45,6-2.59,9-3.89s6-2.62,8.83-4.13q2.16-1.11,4.23-2.38a45.22,45.22,0,0,0,4-2.72,23.42,23.42,0,0,0,6.46-7.15,18.91,18.91,0,0,1-5.72,8,41.45,41.45,0,0,1-8.27,5.53,71.32,71.32,0,0,1-9.1,3.89c-1.56.55-3.13,1-4.71,1.5S76.84,258.33,75.27,258.79Z"></path>
      <path class="cls-13" d="M41.2,249.62a20.28,20.28,0,0,1-4.71-3A11.22,11.22,0,0,1,33.08,242a6.65,6.65,0,0,1-.42-3,6.93,6.93,0,0,1,.31-1.49,7.74,7.74,0,0,1,.59-1.39,13.92,13.92,0,0,1,3.94-4.24,38.13,38.13,0,0,1,10.06-5,77.21,77.21,0,0,1,10.75-2.8c-3.48,1.26-7,2.5-10.34,3.89a46,46,0,0,0-9.58,5.1,12.67,12.67,0,0,0-3.6,3.74,5.53,5.53,0,0,0-.53,1.13,4.59,4.59,0,0,0-.3,1.2,6,6,0,0,0,.21,2.48A9,9,0,0,0,35.3,244,13.45,13.45,0,0,0,37,246.1,24.65,24.65,0,0,0,41.2,249.62Z"></path>
      <path class="cls-13" d="M107.81,194.9l5.42-7.45c1.77-2.5,3.53-5,5.17-7.56A81.47,81.47,0,0,0,123,172a37.38,37.38,0,0,0,1.79-4.17,17.53,17.53,0,0,0,1-4.44,19.61,19.61,0,0,1-1.78,9.09,52.08,52.08,0,0,1-4.38,8.21,82,82,0,0,1-5.51,7.46A69.52,69.52,0,0,1,107.81,194.9Z"></path>
      <polygon class="cls-4" points="70.2 229.19 70.27 229.06 70.15 229.05 70.2 229.19"></polygon>
      <polygon class="cls-7" points="1.28 151.41 72.85 181.79 145.5 150.87 144.82 150.67 1.28 151.41"></polygon>
      <ellipse class="cls-5" cx="75.15" cy="152.33" rx="16.78" ry="6.56"></ellipse>
      <ellipse class="cls-14" cx="75.58" cy="154.54" rx="13.83" ry="5.41"></ellipse>
    </g>
  </g>
</svg>
