<?xml version="1.0" encoding="UTF-8"?>
<svg xmlns="http://www.w3.org/2000/svg" viewBox="0 0 89.01 98.1">
  <defs>
    <style>.cls-1{fill:#a29274;}.cls-2{fill:#e3e0c9;}.cls-3{fill:#fcedce;}.cls-4{fill:#bda885;}.cls-5{fill:#d0c5a6;}.cls-6{fill:#8f8267;}.cls-7{fill:#ab967a;opacity:0.25;}.cls-8{fill:#9b8d71;}.cls-9{fill:#7c705b;}.cls-10{fill:#a5a5a5;}.cls-11{fill:#deebdd;}.cls-12{fill:#817870;}.cls-13{fill:#93c63e;}.cls-14{fill:#3f6c3e;}</style>
  </defs>
  <g id="Слой_2" data-name="Слой 2">
    <g id="Слой_1-2" data-name="Слой 1">
      <polygon class="cls-1" points="44.57 39.54 89.01 20.62 82.34 71.79 44.57 98.1 44.57 39.54"></polygon>
      <polygon class="cls-2" points="44.57 7.83 89.01 20.62 44.57 39.54 0 20.62 44.57 7.83"></polygon>
      <polygon class="cls-3" points="44.57 7.83 0 20.62 0.78 20.95 88.6 20.5 44.57 7.83"></polygon>
      <polygon class="cls-4" points="6.67 71.79 0 20.62 44.57 39.54 44.57 98.1 6.67 71.79"></polygon>
      <path class="cls-5" d="M28,21.25A24.87,24.87,0,0,1,30.12,19a18.86,18.86,0,0,1,2.45-1.9,25,25,0,0,1,5.57-2.71,29.31,29.31,0,0,1,6.06-1.27c1-.13,2.06-.11,3.08-.15s2,.09,3.07.17c-1,.12-2,.16-3.05.27s-2,.22-3,.42-2,.33-3,.61a29.8,29.8,0,0,0-2.9.82,31.67,31.67,0,0,0-5.49,2.44A30.94,30.94,0,0,0,28,21.25Z"></path>
      <path class="cls-5" d="M20.42,23a5.86,5.86,0,0,0,1.76.36c.6.05,1.21.06,1.81.06a29.14,29.14,0,0,0,3.61-.31c2.41-.34,4.77-.94,7.2-1.49a20.91,20.91,0,0,1-7.07,2.39,15.84,15.84,0,0,1-3.77.11,9.8,9.8,0,0,1-1.86-.33A4,4,0,0,1,20.42,23Z"></path>
      <path class="cls-5" d="M51.09,34a35.44,35.44,0,0,1,9.36-9.76,23.83,23.83,0,0,1,6.12-3.05c.55-.17,1.12-.26,1.67-.4a8.2,8.2,0,0,1,1.7-.24,14.77,14.77,0,0,1,3.39.11A20,20,0,0,0,66.8,21.8,29.53,29.53,0,0,0,61,24.94a46.17,46.17,0,0,0-5.19,4.19c-.83.75-1.63,1.54-2.4,2.35S51.83,33.1,51.09,34Z"></path>
      <polygon class="cls-6" points="44.57 39.54 89.01 20.62 82.34 71.79 44.57 98.1 44.57 39.54"></polygon>
      <polygon class="cls-7" points="6.67 71.79 0 20.62 44.57 39.54 44.57 98.1 6.67 71.79"></polygon>
      <polygon class="cls-8" points="44.57 98.1 6.67 71.79 44.74 57.4 82.34 71.79 44.57 98.1"></polygon>
      <path class="cls-9" d="M14.72,49.29a13.72,13.72,0,0,1-1.15-7.42A11.75,11.75,0,0,1,16.86,35a16.32,16.32,0,0,1,6.54-3.89,28.1,28.1,0,0,1,7.41-1.33q-.91.21-1.83.39c-.61.14-1.21.3-1.81.45s-1.2.35-1.79.52-1.17.41-1.74.63a17.71,17.71,0,0,0-6.13,3.87A12,12,0,0,0,14.26,42a14,14,0,0,0-.19,3.66A14.21,14.21,0,0,0,14.72,49.29Z"></path>
      <path class="cls-9" d="M56.14,48.59c.11.19.36.25.56.35s.42.18.63.27c.43.16.86.31,1.3.44.87.29,1.75.54,2.63.79,1.76.48,3.53.91,5.32,1.26,3.58.74,7.2,1.21,10.87,1.63a39.82,39.82,0,0,1-11-.74A40.12,40.12,0,0,1,61,51.12c-.87-.31-1.73-.66-2.57-1-.42-.21-.84-.42-1.24-.65A3.1,3.1,0,0,1,56.14,48.59Z"></path>
      <path class="cls-9" d="M32.26,45.92a32.73,32.73,0,0,1-2.94,9.82,28.44,28.44,0,0,1-2.68,4.42,17,17,0,0,1-3.7,3.58,29.61,29.61,0,0,0,3.12-4,47.16,47.16,0,0,0,2.44-4.41c.73-1.51,1.38-3.07,2-4.64S31.72,47.54,32.26,45.92Z"></path>
      <path class="cls-9" d="M46.05,86.64c1.81-.88,3.69-1.59,5.52-2.38s3.64-1.61,5.4-2.52a34.62,34.62,0,0,0,5-3.14,14.14,14.14,0,0,0,4-4.36,11.43,11.43,0,0,1-3.51,4.91,25.94,25.94,0,0,1-5,3.39,44.83,44.83,0,0,1-5.57,2.38C49.93,85.61,48,86.09,46.05,86.64Z"></path>
      <path class="cls-9" d="M25.21,81a9.38,9.38,0,0,1-5-4.64,4.25,4.25,0,0,1,.29-3.58,8.43,8.43,0,0,1,2.41-2.59,23.41,23.41,0,0,1,6.15-3.06,49,49,0,0,1,6.58-1.72c-2.12.78-4.25,1.52-6.33,2.38a28.73,28.73,0,0,0-5.85,3.12,7.76,7.76,0,0,0-2.21,2.29,3.66,3.66,0,0,0-.38,2.94,6.68,6.68,0,0,0,1.73,2.71A14.51,14.51,0,0,0,25.21,81Z"></path>
      <path class="cls-9" d="M66,47.56c2.23-3.05,4.46-6.05,6.48-9.19a48.23,48.23,0,0,0,2.79-4.82A15.68,15.68,0,0,0,77,28.28a12,12,0,0,1-1.1,5.56,31,31,0,0,1-2.68,5A46.82,46.82,0,0,1,66,47.56Z"></path>
      <polygon class="cls-10" points="42.95 68.53 42.99 68.45 42.91 68.45 42.95 68.53"></polygon>
      <path class="cls-11" d="M45.21,29.33s-1.15.32-1.37.11.37,1.63,1.37,4.26c.54,1.4,2,6.53,1.55,9.11s-1,2.83-.82,4.68.42,3.84.67,3.42.11-1.59.21-3.8c.06-1.15,1-3.63,1.07-4.51a26.13,26.13,0,0,0-1.31-9.29C45.7,30.67,45.21,29.33,45.21,29.33Z"></path>
      <path class="cls-11" d="M43.91,30.85A12.36,12.36,0,0,1,39,34.16a13.33,13.33,0,0,0-6.34,5.41c-.54,1.19,1.37-1.41,1.68-1.49s2.4-2.91,4.71-3.36a14.47,14.47,0,0,0,5.46-3C44.66,31.45,44.78,30.65,43.91,30.85Z"></path>
      <path class="cls-11" d="M45.9,32a11.62,11.62,0,0,0,4.77,3c2,.64,4.64,3.93,5,5.37s-.76-1-1.39-1.58-2.16-3-3.74-3.25a11.79,11.79,0,0,1-5-2.58C44.67,32.05,45.61,32.14,45.9,32Z"></path>
      <path class="cls-11" d="M46.56,46a6.21,6.21,0,0,1-3.34,1.06c-1.36,0-3.24,1.88-3.6,2.81s.57-.59,1-.88,1.56-1.7,2.56-1.52a5.89,5.89,0,0,0,3.31-.65C47.13,46.4,46.76,46.21,46.56,46Z"></path>
      <path class="cls-11" d="M46.22,36.34s-3.52,1.54-5.38,2.17a7.77,7.77,0,0,0-4.18,3.68c-1,1.67-.6-.26.32-1.32a8.36,8.36,0,0,1,3.71-2.78c1.43-.63,4-1.2,5.05-2.72S46.22,36.34,46.22,36.34Z"></path>
      <path class="cls-11" d="M47.42,41.48c1.28.55,2.15.62,3.53,1.23s2.54,2.06,3.71,3.26-.36-.9-.71-1.28A12.61,12.61,0,0,0,51,42.26c-1.55-.65-2.47-.67-3.44-1.8S47.38,41.14,47.42,41.48Z"></path>
      <polygon class="cls-3" points="0.78 20.95 44.57 39.54 89.01 20.62 88.6 20.5 0.78 20.95"></polygon>
      <ellipse class="cls-1" cx="45.97" cy="21.51" rx="10.26" ry="4.01"></ellipse>
      <ellipse class="cls-12" cx="46.24" cy="22.86" rx="8.46" ry="3.31"></ellipse>
      <path class="cls-13" d="M47.22,22.24A11.74,11.74,0,0,1,47.78,20c.35-.88,2.2-4.32,2.2-4.32s1.27-2.55,1.8-2.65,1.71,2.2,5.34,3c7.35,1.58,12.43-1.35,12.7-4.46a3.41,3.41,0,0,0-1.89-3.69c-1-.48-1-1.78-.76-2.74.14-.55,1.13-3.16-1.6-4A13.15,13.15,0,0,0,54.39,3.3c-3.81,2.86-4,6.44-3.13,7.24s-1.11,2.87-3.1,5.78c-1.88,2.75-1.61,2.92-1.61,2.92A60,60,0,0,0,43.7,13s1.31-.8,1-4.22c-.15-1.72-2.59-6.06-6.1-7.47s-6.72-1.8-9.29.75c-2,2,.74,3.5-.3,3.79-1.79.51-2.69,1-3.26,2-1,1.67-.8,4.52,2.22,6.4s8.71,2.34,10.57,1.9c3.4-.81,4.09-1.92,4.09-1.92s2.74,5,3.21,8.1S47.22,22.24,47.22,22.24Z"></path>
      <path class="cls-13" d="M52.57,13.56c.25.23,2.46,2.92,8.53,2.89s8.19-3.19,8.41-3.77a3.74,3.74,0,0,0-1.09-4.53"></path>
      <path class="cls-14" d="M52.59,13.53A9.55,9.55,0,0,0,57.87,16,16.77,16.77,0,0,0,63.74,16a9.25,9.25,0,0,0,5-2.68,2.8,2.8,0,0,0,.68-1.18,4,4,0,0,0,.2-1.38A4,4,0,0,0,68.4,8.17l0-.05a3.67,3.67,0,0,1,1.5,4.13,3.88,3.88,0,0,1-.27.76,4.56,4.56,0,0,1-.44.67,8.88,8.88,0,0,1-5.4,2.77,17.15,17.15,0,0,1-6-.13,9.73,9.73,0,0,1-5.26-2.74Z"></path>
      <path class="cls-13" d="M57.83,1.46s-6,1.8-7,7.1a3.63,3.63,0,0,0,.4,2,1.65,1.65,0,0,1-.36,1.86S47.32,17.56,47,18.06"></path>
      <path class="cls-14" d="M57.83,1.48a12.81,12.81,0,0,0-3.2,1.66,10.14,10.14,0,0,0-2.5,2.56A6.72,6.72,0,0,0,51,9a3.94,3.94,0,0,0,.51,1.69A1.78,1.78,0,0,1,51,12.51l0,0c-.63.95-1.29,1.88-2,2.81s-1.32,1.86-2,2.77h0c.59-1,1.22-1.93,1.84-2.89s1.25-1.92,1.9-2.86h0a1.52,1.52,0,0,0,.41-1.5A4.4,4.4,0,0,1,50.72,9,7,7,0,0,1,52,5.59,10,10,0,0,1,54.57,3a12.74,12.74,0,0,1,3.25-1.59Z"></path>
      <path class="cls-14" d="M46.6,19.24l-1.51-3.07c-.52-1-1-2.05-1.53-3.05L43.51,13l.06-.09a5.73,5.73,0,0,0,1-3.26,7.36,7.36,0,0,0-.88-3.3,10.29,10.29,0,0,0-2.11-2.75,11.75,11.75,0,0,0-2.81-2A9.94,9.94,0,0,0,32,.43a5.35,5.35,0,0,0-2.83,1.89,2,2,0,0,0-.53,1.57,3.63,3.63,0,0,0,.67,1.6l0,0a3.6,3.6,0,0,1-.74-1.61,2.12,2.12,0,0,1,.51-1.67A5.39,5.39,0,0,1,32,.24,7.57,7.57,0,0,1,35.49.18a12.93,12.93,0,0,1,3.37,1.16,11.5,11.5,0,0,1,5,4.91,7.49,7.49,0,0,1,.87,3.43,5.86,5.86,0,0,1-1,3.37v0c1.05,2,2,4.12,2.9,6.19Z"></path>
      <path class="cls-14" d="M28.13,6.15A3.93,3.93,0,0,0,25.6,9.81a5,5,0,0,0,2.23,3.86A10.09,10.09,0,0,0,30,14.77a20.24,20.24,0,0,0,2.29.82,14.82,14.82,0,0,0,2.41.43c.82.12,1.66.2,2.49.28v.05a25.19,25.19,0,0,1-5-.4,16.43,16.43,0,0,1-2.37-.78,10.87,10.87,0,0,1-2.24-1.11,5.32,5.32,0,0,1-2.33-4.25,3.43,3.43,0,0,1,.84-2.31,5.08,5.08,0,0,1,2.05-1.4Z"></path>
    </g>
  </g>
</svg>
