<?xml version="1.0" encoding="UTF-8"?>
<svg xmlns="http://www.w3.org/2000/svg" xmlns:xlink="http://www.w3.org/1999/xlink" viewBox="0 0 110.57 112.7">
  <defs>
    <style>.cls-1{fill:none;}.cls-2{fill:#956d4b;}.cls-3{clip-path:url(#clip-path);}.cls-4{fill:url(#Безымянный_градиент_2);}.cls-5{fill:#754120;}.cls-6{fill:#44281c;}.cls-7{fill:#6c3c1d;}.cls-8{fill:#714d31;}.cls-9{fill:#613822;}.cls-10{fill:#7f5637;}.cls-11{fill:#a07850;}.cls-12{fill:#8b5b3c;}.cls-13{fill:#f5daa5;}.cls-14{fill:#d3b473;}</style>
    <clipPath id="clip-path">
      <polygon class="cls-1" points="7.92 84.03 57.88 107.55 104.11 84.14 56.05 63.78 7.92 84.03"></polygon>
    </clipPath>
    <linearGradient id="Безымянный_градиент_2" x1="-2941.24" y1="-483.26" x2="-2938.44" y2="-483.26" gradientTransform="matrix(34.36, 0, 0, -34.36, 101046.24, -16517.48)" gradientUnits="userSpaceOnUse">
      <stop offset="0" stop-color="#a17551"></stop>
      <stop offset="0.38" stop-color="#a17551"></stop>
      <stop offset="0.89" stop-color="#7a4928"></stop>
      <stop offset="1" stop-color="#72401f"></stop>
    </linearGradient>
  </defs>
  <g id="Слой_2" data-name="Слой 2">
    <g id="Слой_1-2" data-name="Слой 1">
      <path class="cls-2" d="M57.88,41.39s9.63,11.3,17.06,11.76,32.81-7.56,32.81-7.56l2.56-26.43L57.88.67Z"></path>
      <path class="cls-2" d="M.19,17.29,5.42,51.76S24,54.55,27.25,53.62s18.12-6.51,22.3-6.51,8.33-5.72,8.33-5.72V.67Z"></path>
      <g class="cls-3">
        <rect class="cls-4" x="31.58" y="36.46" width="48.87" height="98.4" transform="translate(-32.54 137) rotate(-86.92)"></rect>
      </g>
      <path class="cls-5" d="M7.92,84,5.42,51.76S29.11,51.3,35.62,48s22.26-6.65,22.26-6.65L56.05,63.78Z"></path>
      <path class="cls-6" d="M41.68,53.76a8.49,8.49,0,0,0-2.83-1.66v0S35.08,51,33,53.49s-1.7,5.29-.77,5.73a12.35,12.35,0,0,0,1.63.35l.1,0a28.09,28.09,0,0,0,3.5-.79,1.83,1.83,0,0,0,.61-.16l.65-.19c1.48-.46,1.66-.13,2.69-1a4,4,0,0,0,1.08-2.55l-.21-.5h0l0,0a1,1,0,0,0-.59-.51"></path>
      <path class="cls-6" d="M21.4,57.09a11,11,0,0,0-4,1.33v0s-4.3,2.7-3.59,6.84,3.66,6.13,4.88,5.6a13.64,13.64,0,0,0,1.71-1.28l0-.13c.92-1,1.6-3.16,2.21-4a2.38,2.38,0,0,0,.36-.72c.1-.21.21-.42.37-.79.81-1.82,1.28-1.71,1.29-3.46a5.12,5.12,0,0,0-1.54-3.21,3.47,3.47,0,0,0-.65-.22v0h-.07a1.26,1.26,0,0,0-1,.13"></path>
      <path class="cls-7" d="M57.88,41.39,56.05,63.78l48.06,20.36,3.64-38.55s-15-1.73-21.48-.8S68.44,48.51,65,46.65a45.07,45.07,0,0,1-7.15-5.26"></path>
      <path class="cls-6" d="M39.58,64.39a3.48,3.48,0,0,0-1.25-.31h0a2.29,2.29,0,0,0-2,1.18c-.49,1.18,0,2.18.35,2.24l.65-.06,0,0a12.3,12.3,0,0,0,1.23-.69l.21-.13.23-.14c.5-.34.61-.24.89-.69A1.52,1.52,0,0,0,40,64.69l-.13-.16h0Z"></path>
      <path class="cls-6" d="M86.66,54.75a2.32,2.32,0,0,0-.11-.89h0s-.38-1-1.27-1-1.43.51-1.37.78l.2.41,0,0,.75.63.14.1.14.11c.35.24.31.34.67.41a1,1,0,0,0,.73-.19l.07-.12h0v-.23Z"></path>
      <path class="cls-6" d="M100.09,70.94a11.07,11.07,0,0,0-1.91-3.82h0s-3.31-3.9-7.35-2.59S85.26,69.05,86,70.2a13.68,13.68,0,0,0,1.53,1.52l.13,0c1.19.77,3.39,1.13,4.37,1.61a2.24,2.24,0,0,0,.77.26l.84.26c1.94.54,1.9,1,3.64.79a5.19,5.19,0,0,0,3-2,3,3,0,0,0,.13-.68h0V71.9a1.31,1.31,0,0,0-.28-1"></path>
      <path class="cls-6" d="M74,57.65a8.59,8.59,0,0,0-1.87,2.69v0s-1.4,3.67,1,5.9,5.11,2.09,5.62,1.19a11,11,0,0,0,.46-1.59l0-.1a27.85,27.85,0,0,0-.52-3.53,1.8,1.8,0,0,0-.11-.61c0-.17-.07-.35-.14-.66-.34-1.49,0-1.65-.81-2.74a4,4,0,0,0-2.44-1.26l-.51.17h0l0,0a.91.91,0,0,0-.54.53"></path>
      <path class="cls-8" d="M74.15,85a1.58,1.58,0,0,0,1.57-.41c.54-.7.43-1.44.17-1.55L75.45,83c-.29,0-.32.7-.33.71Z"></path>
      <path class="cls-9" d="M73.21,84.45s.88.79,1.24.55a8.71,8.71,0,0,1,.8-.46l0-.24-1-.32-.57.19Z"></path>
      <path class="cls-10" d="M73.15,84.32a.32.32,0,0,0,.4.27c.27-.1.53-.23.53-.23l.32-1c.07-.14.15-.19-.25-.06s-.45,0-.72.29a1.11,1.11,0,0,0-.28.7"></path>
      <path class="cls-11" d="M74.08,84.36a4.61,4.61,0,0,0,.12-.7c0-.3,0-.39.29-.43s.83-.33,1.1-.22.26.08.26.44a1.26,1.26,0,0,1-.38.87.72.72,0,0,1-.76.32,1.79,1.79,0,0,1-.63-.28"></path>
      <path class="cls-8" d="M63.47,78.91s2.39.12,3.24-1.67.26-3.36-.36-3.49a6.11,6.11,0,0,0-1,0c-.65,0-.37,1.67-.39,1.7Z"></path>
      <path class="cls-9" d="M61.12,78.08s2.3,1.32,3,.62,1.53-1.4,1.53-1.4l-.16-.52a7.5,7.5,0,0,0-2.26-.25c-.37.2-1,.62-1.16.69Z"></path>
      <path class="cls-10" d="M60.93,77.81c.11.21.44.73,1,.4a8.38,8.38,0,0,0,1-.75s.19-1.94.26-2.29.23-.48-.58,0-1,.31-1.44,1a2.41,2.41,0,0,0-.28,1.66"></path>
      <path class="cls-11" d="M63,77.46a11.07,11.07,0,0,0,0-1.59c-.09-.7-.15-.87.42-1.08s1.68-1.13,2.33-1,.6.07.77.84A2.89,2.89,0,0,1,66,76.7a1.6,1.6,0,0,1-1.51,1.07A4,4,0,0,1,63,77.46"></path>
      <path class="cls-8" d="M53.51,86.67s1.87,1.42,3.54.43,2.05-2.58,1.62-3a7.68,7.68,0,0,0-.83-.53c-.56-.33-1.22,1.15-1.25,1.17Z"></path>
      <path class="cls-9" d="M52.06,84.72s1.14,2.33,2.08,2.14,2-.3,2-.3l.15-.5s-1.29-1.4-1.69-1.44-1.15-.05-1.32-.08Z"></path>
      <path class="cls-10" d="M52.06,84.4c0,.23-.05.83.58.87a10.13,10.13,0,0,0,1.26,0l1.46-1.71c.25-.25.45-.27-.47-.33s-1-.27-1.7,0a2.36,2.36,0,0,0-1.13,1.19"></path>
      <path class="cls-11" d="M53.9,85.24a11.63,11.63,0,0,0,.83-1.32c.31-.61.35-.79.93-.65s2,0,2.44.44.45.39.17,1.11a2.81,2.81,0,0,1-1.49,1.47,1.58,1.58,0,0,1-1.81,0,4.06,4.06,0,0,1-1.07-1.09"></path>
      <path class="cls-8" d="M49.22,80.24a2.68,2.68,0,0,0,.09-2.73c-.86-1.21-2.1-1.39-2.41-1l-.35.68c-.21.44,1,.84,1,.87Z"></path>
      <path class="cls-9" d="M47.82,81.47s1.7-1,1.49-1.72A15.08,15.08,0,0,1,49,78.24l-.4-.09s-1,1.08-1,1.39,0,.87,0,1Z"></path>
      <path class="cls-10" d="M47.58,81.49c.18,0,.64,0,.62-.5a6,6,0,0,0-.11-1l-1.4-1c-.2-.17-.23-.32-.21.38s-.15.74.12,1.3a1.75,1.75,0,0,0,1,.78"></path>
      <path class="cls-11" d="M48.09,80A7.93,7.93,0,0,0,47,79.49c-.48-.19-.62-.21-.55-.67s-.12-1.51.18-1.89.26-.37.83-.2a2.14,2.14,0,0,1,1.22,1,1.18,1.18,0,0,1,.14,1.38,2.9,2.9,0,0,1-.76.88"></path>
      <path class="cls-8" d="M40.75,82.25a1.17,1.17,0,0,0,.39-1.12c-.21-.61-.7-.84-.87-.73l-.23.23.29.49Z"></path>
      <path class="cls-9" d="M40,82.58s.84-.2.84-.52a5.52,5.52,0,0,1,0-.67l-.16-.09-.58.45-.12.42Z"></path>
      <path class="cls-10" d="M39.91,82.56l.32-.13.08-.41-.45-.59c-.06-.1-.06-.16-.14.13s-.15.29-.12.55a.76.76,0,0,0,.31.45"></path>
      <path class="cls-11" d="M40.31,82l-.37-.36-.15-.35.32-.76.37,0a.86.86,0,0,1,.37.58.51.51,0,0,1-.11.59Z"></path>
      <path class="cls-8" d="M38.15,86.92s1.64-2.64.14-4.72-3.66-2.39-4.19-1.77a8.62,8.62,0,0,0-.6,1.16c-.37.77,1.66,1.46,1.69,1.51Z"></path>
      <path class="cls-9" d="M35.75,89.08s2.94-1.8,2.57-3a26.63,26.63,0,0,1-.64-2.62L37,83.31s-1.69,1.88-1.69,2.42.08,1.51.06,1.75Z"></path>
      <path class="cls-10" d="M35.32,89.12c.31,0,1.1,0,1.08-.88a11.58,11.58,0,0,0-.2-1.66s-2.08-1.41-2.43-1.72-.41-.56-.37.66-.25,1.29.22,2.25a3.11,3.11,0,0,0,1.7,1.35"></path>
      <path class="cls-11" d="M36.2,86.58a14.53,14.53,0,0,0-1.83-.93c-.85-.33-1.09-.37-1-1.16s-.22-2.61.29-3.27.45-.65,1.44-.35a3.69,3.69,0,0,1,2.12,1.78A2.07,2.07,0,0,1,37.52,85a5.3,5.3,0,0,1-1.32,1.55"></path>
      <polygon class="cls-12" points="0 17.59 57.93 43.1 110.57 19.57 57.93 0 0 17.59"></polygon>
      <ellipse class="cls-13" cx="57.88" cy="51.97" rx="7.74" ry="6.05"></ellipse>
      <path class="cls-14" d="M50.2,52a6.93,6.93,0,0,0,3.95,4.5,8.33,8.33,0,0,0,8.77-.56,5.55,5.55,0,0,0,2-2.28,2.82,2.82,0,0,0-.67-2.78,6.36,6.36,0,0,0-2.73-1.6l0-.11a6.55,6.55,0,0,1,3,1.48,3.86,3.86,0,0,1,.9,1.44,2.65,2.65,0,0,1,.06,1.76,6.22,6.22,0,0,1-2.1,2.69,9.41,9.41,0,0,1-3,1.57,8.92,8.92,0,0,1-3.41.41,8.3,8.3,0,0,1-1.72-.33,12.19,12.19,0,0,1-1.59-.67A6.31,6.31,0,0,1,50.09,52Z"></path>
    </g>
  </g>
</svg>
