<?xml version="1.0" encoding="UTF-8"?>
<svg xmlns="http://www.w3.org/2000/svg" xmlns:xlink="http://www.w3.org/1999/xlink" viewBox="0 0 110.57 171.19">
  <defs>
    <style>.cls-1{fill:none;}.cls-2{fill:#956d4b;}.cls-3{clip-path:url(#clip-path);}.cls-4{fill:url(#Безымянный_градиент_4);}.cls-5{fill:#754120;}.cls-6{fill:#44281c;}.cls-7{fill:#6c3c1d;}.cls-8{fill:#714d31;}.cls-9{fill:#613822;}.cls-10{fill:#7f5637;}.cls-11{fill:#a07850;}.cls-12{fill:#dec97e;}.cls-13{fill:#ceb874;}.cls-14{fill:#8b5b3c;}.cls-15{fill:#568f3b;}.cls-16{fill:#abc552;}.cls-17{fill:#75ad40;}.cls-18{fill:#5a973e;}.cls-19{fill:#613922;}</style>
    <clipPath id="clip-path">
      <polygon class="cls-1" points="7.92 142.51 57.88 166.03 104.11 142.62 56.05 122.26 7.92 142.51"></polygon>
    </clipPath>
    <linearGradient id="Безымянный_градиент_4" x1="-3970.69" y1="-323.57" x2="-3967.89" y2="-323.57" gradientTransform="matrix(34.36, 0, 0, -34.36, 136414.42, -10972.45)" gradientUnits="userSpaceOnUse">
      <stop offset="0" stop-color="#a17551"></stop>
      <stop offset="0.38" stop-color="#a17551"></stop>
      <stop offset="0.89" stop-color="#7a4928"></stop>
      <stop offset="1" stop-color="#72401f"></stop>
    </linearGradient>
  </defs>
  <g id="Слой_2" data-name="Слой 2">
    <g id="Слой_1-2" data-name="Слой 1">
      <path class="cls-2" d="M57.88,99.87s9.63,11.3,17.06,11.77,32.81-7.57,32.81-7.57l2.56-26.43L57.88,59.15Z"></path>
      <path class="cls-2" d="M.19,75.77l5.23,34.47S24,113,27.25,112.1s18.12-6.5,22.3-6.5,8.33-5.73,8.33-5.73V59.15Z"></path>
      <g class="cls-3">
        <rect class="cls-4" x="31.58" y="94.95" width="48.87" height="98.4" transform="translate(-90.93 192.34) rotate(-86.92)"></rect>
      </g>
      <path class="cls-5" d="M7.92,142.51l-2.5-32.27s23.69-.46,30.2-3.71,22.26-6.66,22.26-6.66l-1.83,22.39Z"></path>
      <path class="cls-6" d="M41.68,112.25a8.52,8.52,0,0,0-2.83-1.67v0S35.08,109.43,33,112s-1.7,5.29-.77,5.73a10.92,10.92,0,0,0,1.63.35l.1,0a28.09,28.09,0,0,0,3.5-.79,1.83,1.83,0,0,0,.61-.16c.17,0,.35-.09.65-.19,1.48-.46,1.66-.12,2.69-1a4,4,0,0,0,1.08-2.55l-.21-.5h0l0,0a1,1,0,0,0-.59-.5"></path>
      <path class="cls-6" d="M21.4,115.57a11,11,0,0,0-4,1.33v0s-4.3,2.7-3.59,6.84,3.66,6.14,4.88,5.61A13.86,13.86,0,0,0,20.37,128l0-.13c.92-1.05,1.6-3.16,2.21-4.05a2.27,2.27,0,0,0,.36-.72c.1-.2.21-.42.37-.79.81-1.82,1.28-1.71,1.29-3.46a5.08,5.08,0,0,0-1.54-3.2,3.4,3.4,0,0,0-.65-.23v0h-.07a1.3,1.3,0,0,0-1,.13"></path>
      <path class="cls-7" d="M57.88,99.87l-1.83,22.39,48.06,20.37,3.64-38.56s-15-1.73-21.48-.8S68.44,107,65,105.13a44.41,44.41,0,0,1-7.15-5.26"></path>
      <path class="cls-6" d="M39.58,122.88a3.29,3.29,0,0,0-1.25-.31h0a2.31,2.31,0,0,0-2,1.18c-.49,1.19,0,2.18.35,2.24l.65,0,0,0a10.59,10.59,0,0,0,1.23-.69l.21-.13.23-.14c.5-.34.61-.24.89-.68a1.52,1.52,0,0,0,.12-1.08l-.13-.16h0Z"></path>
      <path class="cls-6" d="M86.66,113.24a2.27,2.27,0,0,0-.11-.89h0s-.38-1-1.27-1-1.43.5-1.37.77l.2.41,0,0,.75.63.14.1.14.11c.35.24.31.34.67.41a1.06,1.06,0,0,0,.73-.18l.07-.13h0v-.22Z"></path>
      <path class="cls-6" d="M100.09,129.42a11.07,11.07,0,0,0-1.91-3.82h0s-3.31-3.9-7.35-2.59-5.6,4.54-4.89,5.68a13.68,13.68,0,0,0,1.53,1.52l.13,0c1.19.77,3.39,1.14,4.37,1.62a2.18,2.18,0,0,0,.77.25c.22.07.45.15.84.26,1.94.54,1.9,1,3.64.79a5.15,5.15,0,0,0,3-2,3.27,3.27,0,0,0,.13-.69h0v-.07a1.31,1.31,0,0,0-.28-1"></path>
      <path class="cls-6" d="M74,116.14a8.44,8.44,0,0,0-1.87,2.68h0s-1.4,3.66,1,5.89,5.11,2.09,5.62,1.19a11,11,0,0,0,.46-1.59l0-.09a27.32,27.32,0,0,0-.52-3.53,1.81,1.81,0,0,0-.11-.62c0-.16-.07-.35-.14-.65-.34-1.5,0-1.66-.81-2.74a4,4,0,0,0-2.44-1.27l-.51.17h0l0,0a.93.93,0,0,0-.54.54"></path>
      <path class="cls-8" d="M74.15,143.52a1.59,1.59,0,0,0,1.57-.42c.54-.7.43-1.44.17-1.55l-.44-.08c-.29-.05-.32.69-.33.7Z"></path>
      <path class="cls-9" d="M73.21,142.94s.88.79,1.24.54.8-.46.8-.46l0-.24-1-.32-.57.19Z"></path>
      <path class="cls-10" d="M73.15,142.8c0,.1.12.36.4.27a3.87,3.87,0,0,0,.53-.23l.32-1c.07-.15.15-.2-.25-.06s-.45,0-.72.29a1.07,1.07,0,0,0-.28.69"></path>
      <path class="cls-11" d="M74.08,142.84a4.37,4.37,0,0,0,.12-.69c0-.31,0-.4.29-.43s.83-.34,1.1-.23.26.09.26.44a1.23,1.23,0,0,1-.38.87.7.7,0,0,1-.76.32,1.79,1.79,0,0,1-.63-.28"></path>
      <path class="cls-8" d="M63.47,137.39s2.39.12,3.24-1.67.26-3.36-.36-3.49a7.46,7.46,0,0,0-1,0c-.65,0-.37,1.67-.39,1.7Z"></path>
      <path class="cls-9" d="M61.12,136.57s2.3,1.31,3,.61,1.53-1.4,1.53-1.4l-.16-.52a7.5,7.5,0,0,0-2.26-.25c-.37.2-1,.62-1.16.7Z"></path>
      <path class="cls-10" d="M60.93,136.29c.11.21.44.74,1,.4a8.38,8.38,0,0,0,1-.75s.19-1.93.26-2.28.23-.49-.58,0-1,.32-1.44,1a2.41,2.41,0,0,0-.28,1.66"></path>
      <path class="cls-11" d="M63,135.94a11.07,11.07,0,0,0,0-1.59c-.09-.69-.15-.87.42-1.08s1.68-1.13,2.33-1,.6.07.77.85a2.86,2.86,0,0,1-.42,2.09,1.58,1.58,0,0,1-1.51,1.07,4,4,0,0,1-1.54-.31"></path>
      <path class="cls-8" d="M53.51,145.16s1.87,1.41,3.54.43,2.05-2.58,1.62-3a6.4,6.4,0,0,0-.83-.53c-.56-.33-1.22,1.14-1.25,1.16Z"></path>
      <path class="cls-9" d="M52.06,143.2s1.14,2.33,2.08,2.14a18.88,18.88,0,0,1,2-.29l.15-.51s-1.29-1.4-1.69-1.44-1.15,0-1.32-.08Z"></path>
      <path class="cls-10" d="M52.06,142.88c0,.23-.05.83.58.87a10.13,10.13,0,0,0,1.26,0L55.36,142c.25-.24.45-.27-.47-.32s-1-.28-1.7,0a2.36,2.36,0,0,0-1.13,1.19"></path>
      <path class="cls-11" d="M53.9,143.72a11.63,11.63,0,0,0,.83-1.32c.31-.61.35-.79.93-.65s2,0,2.44.45.45.38.17,1.1a2.78,2.78,0,0,1-1.49,1.47,1.54,1.54,0,0,1-1.81,0,4.06,4.06,0,0,1-1.07-1.09"></path>
      <path class="cls-8" d="M49.22,138.72a2.68,2.68,0,0,0,.09-2.73c-.86-1.21-2.1-1.39-2.41-1l-.35.67c-.21.44,1,.84,1,.88Z"></path>
      <path class="cls-9" d="M47.82,140s1.7-1,1.49-1.73a15.08,15.08,0,0,1-.35-1.51l-.4-.09s-1,1.08-1,1.39,0,.87,0,1Z"></path>
      <path class="cls-10" d="M47.58,140c.18,0,.64,0,.62-.5a5.83,5.83,0,0,0-.11-1l-1.4-1c-.2-.18-.23-.33-.21.37s-.15.75.12,1.3a1.79,1.79,0,0,0,1,.79"></path>
      <path class="cls-11" d="M48.09,138.52A8.8,8.8,0,0,0,47,138c-.48-.19-.62-.21-.55-.67s-.12-1.51.18-1.89.26-.37.83-.2a2.17,2.17,0,0,1,1.22,1,1.18,1.18,0,0,1,.14,1.38,3,3,0,0,1-.76.89"></path>
      <path class="cls-8" d="M40.75,140.73a1.15,1.15,0,0,0,.39-1.12c-.21-.61-.7-.84-.87-.73l-.23.23.29.49Z"></path>
      <path class="cls-9" d="M40,141.07s.84-.21.84-.53a5.52,5.52,0,0,1,0-.67l-.16-.09-.58.45-.12.43Z"></path>
      <path class="cls-10" d="M39.91,141l.32-.12.08-.41-.45-.6c-.06-.1-.06-.16-.14.13s-.15.29-.12.55a.76.76,0,0,0,.31.45"></path>
      <path class="cls-11" d="M40.31,140.51l-.37-.37-.15-.35.32-.75.37,0a.89.89,0,0,1,.37.58.5.5,0,0,1-.11.59Z"></path>
      <path class="cls-8" d="M38.15,145.4s1.64-2.63.14-4.72-3.66-2.39-4.19-1.77a8.24,8.24,0,0,0-.6,1.17c-.37.76,1.66,1.45,1.69,1.5Z"></path>
      <path class="cls-9" d="M35.75,147.56s2.94-1.8,2.57-3a26.06,26.06,0,0,1-.64-2.61l-.69-.15s-1.69,1.88-1.69,2.42.08,1.52.06,1.75Z"></path>
      <path class="cls-10" d="M35.32,147.6c.31,0,1.1,0,1.08-.87a11.59,11.59,0,0,0-.2-1.67s-2.08-1.41-2.43-1.72-.41-.56-.37.66-.25,1.29.22,2.25a3.11,3.11,0,0,0,1.7,1.35"></path>
      <path class="cls-11" d="M36.2,145.06a14.53,14.53,0,0,0-1.83-.93c-.85-.33-1.09-.37-1-1.15s-.22-2.62.29-3.28.45-.64,1.44-.35a3.69,3.69,0,0,1,2.12,1.78,2.09,2.09,0,0,1,.28,2.39,5.2,5.2,0,0,1-1.32,1.54"></path>
      <path class="cls-12" d="M47.86,107.64c0,1,0,5.76,1.76,4s3.75-2.5,4.25-.75.5,1,2.51.5,2,2.51,4.26,1.26,2.5-1.51,2.5-3.26,2-3.26,2.26-4.51a4.74,4.74,0,0,0-1.26-4.51c-1.5-1.5-.75-5.26-2-6.26s-2.5-.25-4.51-.25a8.87,8.87,0,0,1-4-1.25s-4.26.5-4.51,1.75-.5,3.26-2.5,4,.75,3.75,0,5.51S47.86,107.64,47.86,107.64Z"></path>
      <path class="cls-13" d="M64.14,100.37a4.64,4.64,0,0,1-1-2.59,10.63,10.63,0,0,1-1,1.38c-.66,1-1.32,4.2-2.76,5.86a12.8,12.8,0,0,1-3.22,2.63c-1.41.83-3.38.85-4.46,1.32-.52.29-1,.56-1.55.81a18,18,0,0,1-2.11.78c.21,1.15.65,2,1.56,1.08,1.75-1.75,3.75-2.5,4.25-.75s.5,1,2.51.5,2,2.51,4.26,1.26,2.5-1.51,2.5-3.26,2-3.26,2.26-4.51A4.74,4.74,0,0,0,64.14,100.37Z"></path>
      <path class="cls-13" d="M62.92,109.36a15.87,15.87,0,0,1,2.34,8.38,34.21,34.21,0,0,1-1.09,8.39c-.63,2.69-1.32,5.32-1.73,8a23,23,0,0,0-.11,8.06.13.13,0,0,1-.11.15.12.12,0,0,1-.15-.08,22.61,22.61,0,0,1-1-8.27c.16-2.79.61-5.53,1-8.23a52.68,52.68,0,0,0,.54-8,18.73,18.73,0,0,0-1.5-7.44h0a1,1,0,0,1,1.81-1Z"></path>
      <path class="cls-13" d="M64,115.61a7.6,7.6,0,0,1-3.11.5c-1,0-2-.15-2.94-.21a8.68,8.68,0,0,0-2.83.21,4,4,0,0,0-2.36,1.54A4.21,4.21,0,0,1,55,115.8a9.53,9.53,0,0,1,2.94-.57c1,0,2,0,2.91-.11a6.49,6.49,0,0,0,2.57-.7Z"></path>
      <path class="cls-13" d="M64.16,119.31a7.47,7.47,0,0,1-5.17,2,18.74,18.74,0,0,0-2.69-.07,2.63,2.63,0,0,0-2.15,1.38A2.74,2.74,0,0,1,56.27,121a19.3,19.3,0,0,1,2.72-.14,6.83,6.83,0,0,0,4.58-2.15Z"></path>
      <path class="cls-13" d="M62.84,124.83A19,19,0,0,0,59.05,126a6,6,0,0,0-2.93,2.57,6.25,6.25,0,0,1,2.76-2.9,20,20,0,0,1,3.77-1.56Z"></path>
      <path class="cls-13" d="M64.63,114.26a3.1,3.1,0,0,0,1.67.62c.67.09,1.4.08,2.16.23a4.21,4.21,0,0,1,2,1.08,2.5,2.5,0,0,1,.84,2,2.37,2.37,0,0,0-1.07-1.7,3.71,3.71,0,0,0-1.87-.64c-.65,0-1.36.07-2.11.08a4.36,4.36,0,0,1-2.39-.57Z"></path>
      <path class="cls-13" d="M64.62,118.13a11.06,11.06,0,0,0,7.82,3.72A11.66,11.66,0,0,1,63.79,119Z"></path>
      <path class="cls-13" d="M64.13,123.19a8,8,0,0,1,3.06,3.38,20.43,20.43,0,0,1,.77,2.09,3.22,3.22,0,0,0,1.21,1.75,3.32,3.32,0,0,1-1.44-1.65,20.87,20.87,0,0,0-1-1.95,7.35,7.35,0,0,0-3.09-2.74Z"></path>
      <path class="cls-13" d="M63.08,128.53A16.69,16.69,0,0,0,64.17,132a15,15,0,0,0,.81,1.66,5.87,5.87,0,0,0,1.11,1.47,6,6,0,0,1-1.29-1.36,17.07,17.07,0,0,1-1-1.58,17.34,17.34,0,0,1-1.54-3.48Z"></path>
      <polygon class="cls-14" points="0 76.07 57.93 101.58 110.57 78.06 57.93 58.48 0 76.07"></polygon>
      <path class="cls-15" d="M49,28.72s0-5.62-.88-8.44,0-3.33-1.06-7S39.72.08,38,.08s-3.16.18-7.2,2.28-6.86,6-6.33,6.86.35,4.92,4,7.73,1.58,1.58,4.57,4.74.7-.7,4.74,3.51,3.87,4.92,6.68,4.75S48.32,29.77,49,28.72Z"></path>
      <path class="cls-16" d="M30,1.49a17.21,17.21,0,0,1,2.24,1.74c.65.69,1.28,1.4,1.9,2.11l1.73,2.25,1.59,2.34c2,3.18,3.79,6.52,5.52,9.85s3.46,6.64,5.46,9.78a39.74,39.74,0,0,0,7,8.6l-.69.76a39.94,39.94,0,0,1-7.18-8.8c-2-3.22-3.68-6.59-5.37-9.93s-3.37-6.69-5.35-9.86L35.31,8,33.64,5.76c-.6-.71-1.23-1.39-1.82-2.11A19,19,0,0,1,30,1.49Z"></path>
      <path class="cls-16" d="M44.43,23.82a23.22,23.22,0,0,0,.49-10.93,23.37,23.37,0,0,1,0,11.06Z"></path>
      <path class="cls-16" d="M45.32,19.47a14.86,14.86,0,0,1-2.18-5.25,14.68,14.68,0,0,0,2.38,5.11Z"></path>
      <path class="cls-16" d="M44.93,25.29a10.45,10.45,0,0,0-2.17-.56c-.76-.13-1.53-.22-2.31-.32a12.53,12.53,0,0,1-2.32-.52,4.9,4.9,0,0,1-2-1.21,5.51,5.51,0,0,0,2.11.91,15.93,15.93,0,0,0,2.29.29c.77.07,1.56.12,2.35.22a8.55,8.55,0,0,1,2.36.57Z"></path>
      <path class="cls-16" d="M41.47,24.54a5.74,5.74,0,0,0-1.93-1.83,18.11,18.11,0,0,1-2.34-1.49,19.1,19.1,0,0,0,2.47,1.26,6.12,6.12,0,0,1,2.23,1.76Z"></path>
      <path class="cls-16" d="M41.45,18.56A7.24,7.24,0,0,0,39.22,18a8,8,0,0,0-2.39,0,13.39,13.39,0,0,1-2.54.17,10.39,10.39,0,0,1-2.49-.43,12.22,12.22,0,0,0,2.49.07,17.51,17.51,0,0,0,2.44-.41A10.19,10.19,0,0,1,38,17.14a7.17,7.17,0,0,1,1.32.06,5.78,5.78,0,0,1,2.52.83Z"></path>
      <path class="cls-16" d="M37.06,17.69A8.26,8.26,0,0,0,34.51,16c-.95-.42-1.95-.75-2.94-1.08,1,.25,2,.5,3,.85a8.53,8.53,0,0,1,2.81,1.55Z"></path>
      <path class="cls-16" d="M38.29,12.84a17.85,17.85,0,0,1,.18-3.45,7.7,7.7,0,0,0-.21-3.34,7.84,7.84,0,0,1,.53,3.36,17.58,17.58,0,0,0,.14,3.34Z"></path>
      <path class="cls-16" d="M38.49,11.05a8,8,0,0,0,1.88-5.93,8.17,8.17,0,0,1-1.63,6.14Z"></path>
      <path class="cls-16" d="M36.82,10.19a17.52,17.52,0,0,0-5.53-.51c-.94,0-1.89,0-2.84,0-.47,0-.94,0-1.42-.08a2.18,2.18,0,0,1-.7-.14A.6.6,0,0,1,25.89,9a.59.59,0,0,0,.47.45A2.59,2.59,0,0,0,27,9.5c.47,0,.94,0,1.41,0,.95,0,1.89-.1,2.83-.16A17.53,17.53,0,0,1,37,9.62Z"></path>
      <path class="cls-16" d="M32.64,9.63a9.69,9.69,0,0,1-2.43,1.16,5.36,5.36,0,0,1-2.63.23,5.24,5.24,0,0,0,2.56-.44,10,10,0,0,0,2.24-1.3Z"></path>
      <path class="cls-16" d="M34.31,6.42a11.25,11.25,0,0,0-.15-4.58,11.57,11.57,0,0,1,.57,4.65Z"></path>
      <path class="cls-17" d="M38.18.13a16,16,0,0,0-4.57,2.28c-1.32,1.23-5.09,4-6.24,5.53a55.52,55.52,0,0,0-3.51,4.83c-1.32,2.2-3.69,5.89-5.18,6.86s-1.32-8.7-1-11.25,1.5-5.36,4-5.8S32.64,1,35.37.34,38.18.13,38.18.13Z"></path>
      <path class="cls-16" d="M28.57,1.51a20.5,20.5,0,0,0-8.3,9.88A17.16,17.16,0,0,1,27.2,1.74Z"></path>
      <path class="cls-16" d="M26.91,2.49a17.49,17.49,0,0,1-.7,4.28,17.38,17.38,0,0,0,.14-4.26Z"></path>
      <path class="cls-16" d="M22.77,6.8c-.22,1.72-.05,3.48-.16,5.23,0-1.75-.24-3.49-.1-5.26Z"></path>
      <path class="cls-16" d="M23.4,5.8a6.67,6.67,0,0,0-2.17,1.38,7.88,7.88,0,0,0-1.63,2,7.9,7.9,0,0,1,1.53-2.14A6.84,6.84,0,0,1,23.3,5.53Z"></path>
      <path class="cls-18" d="M61.2,27.8s2.17-14.55,6.57-15.58,7.75,3.75,8.29,8.32,2,5.39,2,5.39-.62-2.35-4-2.21S62.59,27.34,61.2,27.8Z"></path>
      <path class="cls-16" d="M77.31,17a6.06,6.06,0,0,1-1.84.87l-1.86.79-1.79.91-1.73,1a34,34,0,0,0-6.16,5.12,41.39,41.39,0,0,0-8.54,13.49l-1-.38A40.2,40.2,0,0,1,63.29,25,33.58,33.58,0,0,1,69.72,20l1.8-1,1.85-.88A10.81,10.81,0,0,1,77.31,17Z"></path>
      <path class="cls-16" d="M66.91,22.18a17.07,17.07,0,0,1,1.41-3.32c.57-1.05,1.24-2,1.86-3-.53,1.06-1.11,2.1-1.59,3.18a17.23,17.23,0,0,0-1.07,3.33Z"></path>
      <path class="cls-16" d="M70.21,19.89a13.15,13.15,0,0,0,3.05.68,14.12,14.12,0,0,0,1.59.09,4.4,4.4,0,0,0,1.57-.23,4.64,4.64,0,0,1-1.56.38,14.62,14.62,0,0,1-1.62.06A14,14,0,0,1,70,20.46Z"></path>
      <path class="cls-17" d="M66.91,12.62s2.55-2.3,8.89,2.29c0,0,.29.49,2.45-.27S86.5,13.44,88.39,16s1.15,3.81,3.92,5.78,4.92,2,4.88,4.5-.39,1.44,1.37,3.35,4.21,3.9,3.43,7.61-3.8,7.33-5.07,7.81-4.86-2.22-6.54-4.83-.77-1.34-3.49-2.37-7.32-4.22-8.61-6.31S76.45,10.83,66.91,12.62Z"></path>
      <path class="cls-16" d="M77.35,14.92a12.4,12.4,0,0,1,5,4.62c1.27,2,2.1,4.25,3.17,6.29A15,15,0,0,0,90,31c1.75,1.45,3.58,3.58,3.27,6-.13-2.41-1.88-4.16-3.64-5.6a15.57,15.57,0,0,1-4.75-5.25c-1.15-2.07-2-4.24-3.3-6.14A16.48,16.48,0,0,0,76,15Z"></path>
      <path class="cls-16" d="M82.55,20.29a12.38,12.38,0,0,0,4,2.95,10.88,10.88,0,0,1,4,3.15,10.86,10.86,0,0,0-4.16-2.83A13.13,13.13,0,0,1,82,20.75Z"></path>
      <path class="cls-16" d="M85.78,22.87a9.19,9.19,0,0,1,3.18.42,6.59,6.59,0,0,1,2.73,1.59,6.38,6.38,0,0,0-2.78-1.4,9.27,9.27,0,0,0-3.1-.23Z"></path>
      <path class="cls-16" d="M84.23,23.49a10.28,10.28,0,0,1-.68,5.09c-.26.81-.48,1.61-.76,2.41a7.94,7.94,0,0,0-.51,2.45,6.51,6.51,0,0,1,.25-2.52c.18-.82.38-1.65.6-2.46a10.6,10.6,0,0,0,.48-4.83Z"></path>
      <path class="cls-16" d="M83.65,28a29.09,29.09,0,0,0,1.93,5.26,28.51,28.51,0,0,1-2.23-5.17Z"></path>
      <path class="cls-16" d="M90.56,31.63a13.78,13.78,0,0,1,4.19,1.48,8.73,8.73,0,0,1,3.2,3,8.64,8.64,0,0,0-3.3-2.82,13.42,13.42,0,0,0-4.16-1.24Z"></path>
      <path class="cls-16" d="M94.93,33.25a5.1,5.1,0,0,1,1.81,4.53,5,5,0,0,0-1.91-4.41Z"></path>
      <path class="cls-17" d="M48,38.67s-7.58-1.26-14.17,1.12c-3.25,1.17-7.14,2.88-11.9,4.76s-7.14,8.14-7.14,8.14S22.19,54.2,27,51.57s9.89-7.39,12.65-8.15S48,38.67,48,38.67Z"></path>
      <path class="cls-17" d="M62,40.63s10.39-1.13,15.78,1,11,5.76,13.9,13.15-4.13,3.76-8.14.38-9.64-5.51-10-7.77S63.54,40.63,62,40.63Z"></path>
      <path class="cls-17" d="M56,31.4a11.77,11.77,0,0,0,3-8.14c0-5.26.5-11.4-.37-13.78s-2.76,3-3.39,4.89-4,9.39-.87,16.91C54.38,31.28,55.1,32.87,56,31.4Z"></path>
      <path class="cls-16" d="M56,31.6c-.58,8.3.45,16.61,1.33,24.93s1.66,16.81.44,25.35l-2.82-.46c1.45-8,1-16.4.44-24.72S54,39.92,54.94,31.51Z"></path>
      <path class="cls-16" d="M54.68,43.75a7.41,7.41,0,0,1,3.63-2.85,11,11,0,0,1,4.49-.65,24.61,24.61,0,0,1,4.39.66,38.82,38.82,0,0,1,4.26,1.16,33.51,33.51,0,0,1,8,3.77,24,24,0,0,1,6.35,6,23.65,23.65,0,0,0-6.49-5.8,33.07,33.07,0,0,0-8-3.5,38.47,38.47,0,0,0-4.24-1A24.05,24.05,0,0,0,62.77,41a10.23,10.23,0,0,0-4.12.71,6.5,6.5,0,0,0-3.09,2.56Z"></path>
      <path class="cls-16" d="M54.75,39.79A29.48,29.48,0,0,0,46.38,39a33.43,33.43,0,0,0-8.33,1.53,62.31,62.31,0,0,0-15.21,7.68A62.5,62.5,0,0,1,37.89,40a34.17,34.17,0,0,1,8.44-1.81,30.68,30.68,0,0,1,8.65.58Z"></path>
      <path class="cls-8" d="M36.72,83.43a1,1,0,0,0-1-.37c-.55.17-.77.61-.67.76a1,1,0,0,0,.2.21c.14.14.43-.25.44-.25Z"></path>
      <path class="cls-19" d="M37,84.09s-.17-.75-.46-.76-.6,0-.6,0l-.08.14s.28.49.39.53l.38.11A2.86,2.86,0,0,0,37,84.09Z"></path>
      <path class="cls-10" d="M37,84.18a.19.19,0,0,0-.1-.29,2.61,2.61,0,0,0-.37-.07s-.45.34-.54.39-.15.05.12.12.25.15.49.12A.69.69,0,0,0,37,84.18Z"></path>
      <path class="cls-11" d="M36.51,83.82a2.57,2.57,0,0,0-.33.32c-.13.15-.15.2-.31.12s-.57-.14-.68-.29-.1-.14,0-.33a.78.78,0,0,1,.53-.32.46.46,0,0,1,.53.11A1.15,1.15,0,0,1,36.51,83.82Z"></path>
      <path class="cls-8" d="M44.77,77.3s-1.82-2.49-4.3-1.87-3.55,2.49-3.18,3.2a9.07,9.07,0,0,0,.86,1c.57.63,2-1,2-1S44.77,77.3,44.77,77.3Z"></path>
      <path class="cls-19" d="M45.87,80.31s-.57-3.37-1.82-3.48-2.65-.38-2.65-.38L41,77s1.11,2.25,1.6,2.45,1.42.49,1.63.59A11.35,11.35,0,0,0,45.87,80.31Z"></path>
      <path class="cls-10" d="M45.75,80.71c.12-.28.37-1-.41-1.31a11.6,11.6,0,0,0-1.6-.43s-2.07,1.39-2.48,1.61-.67.17.47.58,1.09.7,2.15.63A3.14,3.14,0,0,0,45.75,80.71Z"></path>
      <path class="cls-11" d="M43.74,79a14.24,14.24,0,0,0-1.54,1.35c-.62.65-.74.86-1.42.46s-2.49-.75-2.91-1.47-.43-.65.21-1.46a3.66,3.66,0,0,1,2.42-1.29,2.05,2.05,0,0,1,2.3.63A5.43,5.43,0,0,1,43.74,79Z"></path>
      <path class="cls-8" d="M49.92,83.17a1.57,1.57,0,0,0,1.45-.71c.39-.79.14-1.49-.14-1.56-.07,0-.3,0-.44,0-.3,0-.18.74-.19.75Z"></path>
      <path class="cls-19" d="M48.88,82.79s1,.61,1.32.3a9.17,9.17,0,0,1,.69-.61l-.06-.24a3.13,3.13,0,0,0-1-.12c-.16.08-.44.27-.52.3A4.36,4.36,0,0,0,48.88,82.79Z"></path>
      <path class="cls-10" d="M48.8,82.67c.05.09.19.33.44.19s.47-.33.47-.33.09-.86.13-1,.1-.22-.26,0-.43.13-.65.43A1.09,1.09,0,0,0,48.8,82.67Z"></path>
      <path class="cls-11" d="M49.71,82.53a5.86,5.86,0,0,0,0-.71c0-.31-.07-.38.19-.48s.75-.48,1-.43.26,0,.34.37a1.3,1.3,0,0,1-.2.93.72.72,0,0,1-.68.47A1.81,1.81,0,0,1,49.71,82.53Z"></path>
      <path class="cls-8" d="M32.26,82.32a1.3,1.3,0,0,1,1.18-.18c.58.27.74.74.6.87a1.85,1.85,0,0,1-.27.17c-.18.11-.43-.32-.44-.32Z"></path>
      <path class="cls-19" d="M31.81,82.93s.34-.71.66-.67.68.06.68.06l.06.15s-.41.43-.54.45l-.45,0A4.1,4.1,0,0,1,31.81,82.93Z"></path>
      <path class="cls-10" d="M31.81,83c0-.07,0-.24.18-.26a3.54,3.54,0,0,1,.43,0s.43.41.52.48.15.07-.15.1-.32.1-.58,0A.82.82,0,0,1,31.81,83Z"></path>
      <path class="cls-11" d="M32.42,82.75a3.15,3.15,0,0,1,.3.37c.11.18.13.23.32.18s.67,0,.82-.17.14-.12,0-.33a.89.89,0,0,0-.52-.41.57.57,0,0,0-.61,0A1.25,1.25,0,0,0,32.42,82.75Z"></path>
      <path class="cls-8" d="M43,79.32s-2.47-1.82-4.64-.51-2.63,3.41-2.07,4a11.27,11.27,0,0,0,1.1.68c.73.42,1.57-1.52,1.62-1.54S43,79.32,43,79.32Z"></path>
      <path class="cls-19" d="M44.87,81.85s-1.53-3-2.75-2.76-2.62.42-2.62.42l-.19.66S41,82,41.55,82s1.49,0,1.72.08A13,13,0,0,0,44.87,81.85Z"></path>
      <path class="cls-10" d="M44.88,82.27c0-.3,0-1.09-.77-1.12a11.14,11.14,0,0,0-1.65.06s-1.56,1.93-1.88,2.25-.59.36.61.42,1.25.34,2.23,0A3.08,3.08,0,0,0,44.88,82.27Z"></path>
      <path class="cls-11" d="M42.46,81.21a14.31,14.31,0,0,0-1.07,1.73c-.39.81-.44,1-1.2.86s-2.59,0-3.2-.54-.6-.49-.23-1.44a3.59,3.59,0,0,1,1.92-1.94A2,2,0,0,1,41,79.8,5.16,5.16,0,0,1,42.46,81.21Z"></path>
      <path class="cls-8" d="M58.13,88.09a1.26,1.26,0,0,0-1.2-.44c-.66.21-.92.73-.81.92a2,2,0,0,0,.25.25c.16.17.51-.3.53-.3Z"></path>
      <path class="cls-19" d="M58.48,88.89s-.21-.9-.55-.91a6.67,6.67,0,0,1-.73-.07l-.09.17s.33.59.47.64.39.11.45.14A4.21,4.21,0,0,0,58.48,88.89Z"></path>
      <path class="cls-10" d="M58.45,89c0-.08.09-.29-.13-.35a3,3,0,0,0-.44-.1l-.65.48c-.11.06-.18.06.13.15s.31.17.6.14A.88.88,0,0,0,58.45,89Z"></path>
      <path class="cls-11" d="M57.88,88.56a3.81,3.81,0,0,0-.4.39c-.16.19-.19.25-.38.15s-.69-.16-.81-.35-.13-.17,0-.4A1,1,0,0,1,57,88a.55.55,0,0,1,.63.13A1.53,1.53,0,0,1,57.88,88.56Z"></path>
      <path class="cls-8" d="M51.73,78.36s-3.83-1.91-6.51.42-2.8,5.33-1.89,6a12.67,12.67,0,0,0,1.68.67c1.11.4,1.79-2.47,1.86-2.51S51.73,78.36,51.73,78.36Z"></path>
      <path class="cls-19" d="M55,81.38s-2.84-3.8-4.46-3.14S47,79.45,47,79.45l-.11,1s2.8,2.08,3.54,2,2.07-.31,2.39-.31A15.9,15.9,0,0,0,55,81.38Z"></path>
      <path class="cls-10" d="M55.11,82c0-.42-.2-1.51-1.34-1.36a17,17,0,0,0-2.26.48s-1.67,3-2,3.56-.72.64,1,.42,1.79.18,3-.58A4.33,4.33,0,0,0,55.11,82Z"></path>
      <path class="cls-11" d="M51.51,81.08a19.42,19.42,0,0,0-1,2.64c-.35,1.21-.36,1.54-1.46,1.48s-3.55.65-4.54,0-.93-.53-.66-1.93.91-2.06,2.17-3.14a2.84,2.84,0,0,1,3.24-.68A7.36,7.36,0,0,1,51.51,81.08Z"></path>
      <path class="cls-8" d="M65,79.16s-3.21-1.89-5.68,0-2.76,4.45-2,5.07a10.09,10.09,0,0,0,1.42.68c.93.42,1.7-2,1.76-2.07S65,79.16,65,79.16Z"></path>
      <path class="cls-19" d="M67.62,82s-2.24-3.47-3.68-3-3.12.83-3.12.83l-.15.84s2.3,2,2.95,2,1.81-.14,2.09-.13A14.1,14.1,0,0,0,67.62,82Z"></path>
      <path class="cls-10" d="M67.68,82.49c0-.37-.08-1.32-1.08-1.26a14.52,14.52,0,0,0-2,.28s-1.63,2.54-2,3-.66.51.8.42,1.55.26,2.69-.32A3.77,3.77,0,0,0,67.68,82.49Z"></path>
      <path class="cls-11" d="M64.61,81.51a17.51,17.51,0,0,0-1.06,2.23c-.38,1-.41,1.31-1.36,1.2s-3.12.35-3.94-.25-.78-.52-.46-1.72a4.39,4.39,0,0,1,2.08-2.59,2.48,2.48,0,0,1,2.85-.4A6.44,6.44,0,0,1,64.61,81.51Z"></path>
      <path class="cls-8" d="M73.47,75.77s-3.17-2.44-6-.79-3.54,4.38-2.81,5.14A12,12,0,0,0,66,81c.94.57,2.09-1.94,2.16-2S73.47,75.77,73.47,75.77Z"></path>
      <path class="cls-19" d="M75.92,79.13s-1.92-4-3.52-3.68-3.44.47-3.44.47l-.27.87s2.19,2.41,2.88,2.48,2,.09,2.25.15A15,15,0,0,0,75.92,79.13Z"></path>
      <path class="cls-10" d="M75.91,79.68c0-.39.1-1.42-1-1.49a14.79,14.79,0,0,0-2.15,0s-2.09,2.48-2.52,2.89-.77.46.79.56,1.62.48,2.91,0A4,4,0,0,0,75.91,79.68Z"></path>
      <path class="cls-11" d="M72.78,78.23a19,19,0,0,0-1.44,2.23c-.53,1-.61,1.34-1.6,1.09s-3.38,0-4.16-.79-.77-.66-.27-1.89a4.84,4.84,0,0,1,2.56-2.49,2.7,2.7,0,0,1,3.1,0A6.85,6.85,0,0,1,72.78,78.23Z"></path>
      <path class="cls-8" d="M75.92,86a1.91,1.91,0,0,0,1.76-.87c.47-1,.16-1.8-.17-1.88a3.37,3.37,0,0,0-.54,0c-.35,0-.21.89-.22.91S75.92,86,75.92,86Z"></path>
      <path class="cls-19" d="M74.67,85.55s1.22.72,1.6.35.83-.74.83-.74L77,84.88a4,4,0,0,0-1.21-.15c-.2.11-.54.33-.63.36A5.09,5.09,0,0,0,74.67,85.55Z"></path>
      <path class="cls-10" d="M74.57,85.4c.06.11.23.4.53.22a4.71,4.71,0,0,0,.57-.39s.11-1,.15-1.23.13-.26-.31,0-.52.16-.78.51A1.31,1.31,0,0,0,74.57,85.4Z"></path>
      <path class="cls-11" d="M75.67,85.23a5.34,5.34,0,0,0,0-.86c0-.37-.07-.46.24-.58s.91-.59,1.25-.53.33,0,.41.46a1.51,1.51,0,0,1-.24,1.12.85.85,0,0,1-.82.57A2.28,2.28,0,0,1,75.67,85.23Z"></path>
      <path class="cls-8" d="M45.78,86.69a2.46,2.46,0,0,0,2.31-1c.68-1.18.37-2.28-.05-2.41a4.52,4.52,0,0,0-.69,0c-.45,0-.35,1.11-.36,1.14S45.78,86.69,45.78,86.69Z"></path>
      <path class="cls-19" d="M44.22,86s1.5,1,2,.59,1.13-.86,1.13-.86l-.08-.37a5.09,5.09,0,0,0-1.53-.3c-.26.12-.71.37-.83.41A6,6,0,0,0,44.22,86Z"></path>
      <path class="cls-10" d="M44.11,85.79c.06.15.25.53.65.33a5.56,5.56,0,0,0,.76-.45s.24-1.31.31-1.54.18-.32-.4,0-.67.16-1,.59A1.65,1.65,0,0,0,44.11,85.79Z"></path>
      <path class="cls-11" d="M45.52,85.67a7.46,7.46,0,0,0,.06-1.08c0-.49-.06-.61.35-.72s1.21-.67,1.64-.57.41.08.48.62a2,2,0,0,1-.4,1.41,1.08,1.08,0,0,1-1.1.64A2.8,2.8,0,0,1,45.52,85.67Z"></path>
      <path class="cls-8" d="M56.38,80.64a1.43,1.43,0,0,0,1.43.25c.7-.37.88-1,.72-1.2a3,3,0,0,0-.33-.23c-.22-.15-.51.44-.53.45S56.38,80.64,56.38,80.64Z"></path>
      <path class="cls-19" d="M55.83,79.81s.42,1,.8.92.82-.08.82-.08l.08-.21s-.5-.59-.66-.62l-.54,0A3.26,3.26,0,0,0,55.83,79.81Z"></path>
      <path class="cls-10" d="M55.84,79.68c0,.1,0,.34.21.37a5.17,5.17,0,0,0,.52,0s.52-.57.63-.66.18-.1-.19-.14-.38-.14-.69,0A1,1,0,0,0,55.84,79.68Z"></path>
      <path class="cls-11" d="M56.57,80.06a4.35,4.35,0,0,0,.36-.52c.14-.24.16-.31.39-.24s.81,0,1,.23.17.17,0,.45a1.15,1.15,0,0,1-.63.57.64.64,0,0,1-.74,0A1.62,1.62,0,0,1,56.57,80.06Z"></path>
      <path class="cls-8" d="M69.27,86.08s3.59.88,5.4-1.6,1.34-5,.44-5.4a10.08,10.08,0,0,0-1.54-.25c-1-.13-1,2.43-1.08,2.48S69.27,86.08,69.27,86.08Z"></path>
      <path class="cls-19" d="M65.93,84.16s3.13,2.66,4.36,1.79S73,84.26,73,84.26l-.09-.83s-2.76-1.22-3.37-1-1.69.65-2,.72A14,14,0,0,0,65.93,84.16Z"></path>
      <path class="cls-10" d="M65.73,83.7c.11.35.45,1.23,1.39.89a15.46,15.46,0,0,0,1.81-.84s.82-2.89,1-3.4.49-.67-.88-.17-1.54.2-2.46,1.08A3.69,3.69,0,0,0,65.73,83.7Z"></path>
      <path class="cls-11" d="M68.93,83.75a17.42,17.42,0,0,0,.37-2.43c.06-1.08,0-1.37.94-1.53s2.88-1.23,3.82-.89.9.27.93,1.5a4.39,4.39,0,0,1-1.22,3.06,2.48,2.48,0,0,1-2.61,1.2A6.43,6.43,0,0,1,68.93,83.75Z"></path>
      <path class="cls-8" d="M52.68,84s2.16,1.22,3.77,0,1.78-3,1.27-3.4a8.06,8.06,0,0,0-.95-.44c-.63-.26-1.11,1.38-1.15,1.4S52.68,84,52.68,84Z"></path>
      <path class="cls-19" d="M50.88,82.17s1.54,2.27,2.49,1.94,2.06-.6,2.06-.6l.09-.56s-1.56-1.27-2-1.26-1.21.12-1.4.11A9.45,9.45,0,0,0,50.88,82.17Z"></path>
      <path class="cls-10" d="M50.84,81.83c0,.24.06.88.73.82a9.47,9.47,0,0,0,1.32-.21s1-1.71,1.28-2,.43-.35-.54-.27-1-.15-1.78.25A2.46,2.46,0,0,0,50.84,81.83Z"></path>
      <path class="cls-11" d="M52.89,82.44a12.15,12.15,0,0,0,.68-1.5c.23-.68.25-.87.88-.81s2.07-.27,2.62.11.53.34.33,1.14a3,3,0,0,1-1.34,1.75,1.66,1.66,0,0,1-1.9.3A4.17,4.17,0,0,1,52.89,82.44Z"></path>
    </g>
  </g>
</svg>
