<?xml version="1.0" encoding="UTF-8"?>
<svg xmlns="http://www.w3.org/2000/svg" viewBox="0 0 97.4 251.85">
  <defs>
    <style>.cls-1{fill:#a0cae7;}.cls-2{fill:#d0e6f5;}.cls-3{fill:#b8d8ee;}.cls-4{fill:#a29274;}.cls-5{fill:#e3e0c9;}.cls-6{fill:#bda885;}.cls-7{fill:#7c705b;}.cls-8{fill:#d0c5a6;}.cls-9{fill:#a29277;}.cls-10{fill:#817870;}.cls-11{fill:#79a05b;}</style>
  </defs>
  <g id="Слой_2" data-name="Слой 2">
    <g id="Слой_1-2" data-name="Слой 1">
      <path class="cls-1" d="M31.06,50.29s-12,12.13-6.12,18.65,14.77.57,11.48-8.09C33.47,53.09,31.06,50.29,31.06,50.29Z"></path>
      <path class="cls-2" d="M27.1,61.66c.42-1.25,1.35-4.1,1.72-5.13a28.07,28.07,0,0,1,1.62-3.35s1.15-2.2-1.76,1-4.73,9-3.85,9.3C25.54,63.71,26.7,62.89,27.1,61.66Z"></path>
      <path class="cls-3" d="M33.8,65.85c-.35,1.18-.18,2.28.37,2.44a2.15,2.15,0,0,0,2.18-1.62c.36-1.4-.35-2.54-.91-2.67S34.15,64.67,33.8,65.85Z"></path>
      <path class="cls-1" d="M51.06,50.29s-12,12.13-6.12,18.65,14.76.57,11.47-8.09C53.46,53.09,51.06,50.29,51.06,50.29Z"></path>
      <path class="cls-2" d="M47.1,61.66c.41-1.25,1.34-4.1,1.71-5.13a27.52,27.52,0,0,1,1.63-3.35s1.15-2.2-1.77,1-4.73,9-3.84,9.3C45.54,63.71,46.69,62.89,47.1,61.66Z"></path>
      <path class="cls-3" d="M53.79,65.85c-.35,1.18-.18,2.28.38,2.44a2.17,2.17,0,0,0,2.18-1.62c.35-1.4-.35-2.54-.91-2.67S54.15,64.67,53.79,65.85Z"></path>
      <path class="cls-1" d="M71.05,50.29s-12,12.13-6.12,18.65c5.72,6.37,14.77.57,11.48-8.09C73.45,53.09,71.05,50.29,71.05,50.29Z"></path>
      <path class="cls-2" d="M67.09,61.66c.41-1.25,1.35-4.1,1.72-5.13a26.51,26.51,0,0,1,1.62-3.35s1.15-2.2-1.77,1-4.73,9-3.84,9.3C65.53,63.71,66.68,62.89,67.09,61.66Z"></path>
      <path class="cls-3" d="M73.79,65.85c-.35,1.18-.19,2.28.37,2.44a2.15,2.15,0,0,0,2.18-1.62c.35-1.4-.35-2.54-.91-2.67S74.14,64.67,73.79,65.85Z"></path>
      <path class="cls-1" d="M43.32,23.72s-12,12.12-6.11,18.65c5.72,6.36,14.76.56,11.47-8.09C45.73,26.51,43.32,23.72,43.32,23.72Z"></path>
      <path class="cls-2" d="M39.37,35.08c.41-1.24,1.34-4.1,1.71-5.13a27.52,27.52,0,0,1,1.63-3.35s1.14-2.2-1.77,1-4.73,9-3.85,9.3C37.8,37.13,39,36.31,39.37,35.08Z"></path>
      <path class="cls-3" d="M46.06,39.27c-.35,1.19-.18,2.28.38,2.45a2.17,2.17,0,0,0,2.17-1.63c.36-1.4-.35-2.54-.9-2.66S46.41,38.09,46.06,39.27Z"></path>
      <path class="cls-1" d="M63.32,23.72s-12,12.12-6.12,18.65c5.72,6.36,14.77.56,11.48-8.09C65.72,26.51,63.32,23.72,63.32,23.72Z"></path>
      <path class="cls-2" d="M59.36,35.08c.41-1.24,1.35-4.1,1.71-5.13A27.52,27.52,0,0,1,62.7,26.6s1.15-2.2-1.77,1-4.73,9-3.84,9.3C57.8,37.13,59,36.31,59.36,35.08Z"></path>
      <path class="cls-3" d="M66.06,39.27c-.35,1.19-.19,2.28.37,2.45a2.17,2.17,0,0,0,2.18-1.63c.35-1.4-.35-2.54-.91-2.66S66.41,38.09,66.06,39.27Z"></path>
      <path class="cls-1" d="M54.37,0s-12,12.12-6.12,18.65C54,25,63,19.22,59.73,10.56,56.78,2.79,54.37,0,54.37,0Z"></path>
      <path class="cls-2" d="M50.41,11.37c.42-1.25,1.35-4.1,1.72-5.14a27.09,27.09,0,0,1,1.63-3.34S54.9.69,52,3.84s-4.73,9-3.85,9.3C48.85,13.41,50,12.6,50.41,11.37Z"></path>
      <path class="cls-3" d="M57.11,15.56c-.35,1.18-.18,2.27.37,2.44a2.15,2.15,0,0,0,2.18-1.62c.36-1.4-.35-2.54-.9-2.67S57.46,14.37,57.11,15.56Z"></path>
      <polygon class="cls-4" points="48.77 187.77 97.4 167.06 90.11 223.06 48.77 251.85 48.77 187.77"></polygon>
      <polygon class="cls-5" points="48.77 153.06 97.4 167.06 48.77 187.77 0 167.06 48.77 153.06"></polygon>
      <polygon class="cls-6" points="48.77 187.77 0 167.06 7.29 223.06 20.17 232 19.91 231.8 20.17 232 48.77 251.85 48.77 187.77"></polygon>
      <path class="cls-7" d="M47.61,250.14c1.15-1.61,2.14-3.32,3.18-5s2-3.35,3-5,1.86-3.43,2.73-5.17,1.62-3.55,2.37-5.4a24.9,24.9,0,0,1-1.41,5.81,39.68,39.68,0,0,1-2.52,5.41,46.22,46.22,0,0,1-3.29,5A25.41,25.41,0,0,1,47.61,250.14Z"></path>
      <path class="cls-8" d="M30.65,167.75a25.48,25.48,0,0,1,2.25-2.52,21.14,21.14,0,0,1,2.67-2.13,26.11,26.11,0,0,1,6.11-3,30,30,0,0,1,6.67-1.36c1.12-.14,2.26-.09,3.38-.12s2.26.14,3.37.27c-1.12.17-2.23.23-3.33.38s-2.2.28-3.28.5-2.17.39-3.22.7-2.12.58-3.16.9a36.76,36.76,0,0,0-6,2.63A37.36,37.36,0,0,0,30.65,167.75Z"></path>
      <path class="cls-8" d="M22.35,169.72a7.08,7.08,0,0,0,1.93.3c.66,0,1.32,0,2,0a36.87,36.87,0,0,0,3.92-.38c1.31-.18,2.61-.43,3.92-.68s2.62-.55,4-.77A20.23,20.23,0,0,1,30.37,171a16.54,16.54,0,0,1-4.16.1,12,12,0,0,1-2.05-.42,8.94,8.94,0,0,1-1-.37A2.19,2.19,0,0,1,22.35,169.72Z"></path>
      <path class="cls-7" d="M57.55,209.3c-.22-1.4-.5-2.82-.59-4.26a18.67,18.67,0,0,1,.19-4.35,14,14,0,0,1,3.92-7.84,14.63,14.63,0,0,1,3.63-2.58,18.89,18.89,0,0,1,4.14-1.46,26.53,26.53,0,0,1,8.6-.48,41.18,41.18,0,0,0-8.33,1.49,16.91,16.91,0,0,0-7.1,4,14.23,14.23,0,0,0-3.84,7.09A35.5,35.5,0,0,0,57.55,209.3Z"></path>
      <path class="cls-7" d="M74.2,196.06c2.33-3.42,4.74-6.72,6.94-10.14a58.74,58.74,0,0,0,3.07-5.24,18.13,18.13,0,0,0,2-5.71,12.63,12.63,0,0,1-1.08,6.14,32,32,0,0,1-2.91,5.53,47.88,47.88,0,0,1-3.72,5A39.46,39.46,0,0,1,74.2,196.06Z"></path>
      <path class="cls-7" d="M62.93,213.84c.13.21.41.27.63.37s.47.18.7.26c.48.17.95.32,1.43.46,1,.3,1.92.56,2.88.82,1.93.49,3.87.95,5.83,1.33s3.91.74,5.88,1.06l6,.9a39.47,39.47,0,0,1-12.12-.65,40,40,0,0,1-5.87-1.65,28.92,28.92,0,0,1-2.81-1.2c-.45-.23-.91-.47-1.34-.73A3.38,3.38,0,0,1,62.93,213.84Z"></path>
      <path class="cls-7" d="M74.67,220.93a14.62,14.62,0,0,1-1.39-8.14,13.14,13.14,0,0,1,1.15-4.1,13.68,13.68,0,0,1,2.46-3.52,17.84,17.84,0,0,1,7.23-4.27,28.83,28.83,0,0,1,8.16-1.32,50.15,50.15,0,0,0-7.8,2.3,19.48,19.48,0,0,0-6.64,4.23A13.06,13.06,0,0,0,74.3,213a17.49,17.49,0,0,0-.26,4A15.67,15.67,0,0,0,74.67,220.93Z"></path>
      <path class="cls-7" d="M92.28,195.28a27.44,27.44,0,0,1-1.07,5.53,34.87,34.87,0,0,1-2,5.29,28.31,28.31,0,0,1-3,4.84,17.07,17.07,0,0,1-4.16,3.84,38.45,38.45,0,0,0,3.31-4.44c1-1.57,1.82-3.17,2.62-4.82s1.52-3.34,2.23-5.05S91.6,197,92.28,195.28Z"></path>
      <path class="cls-8" d="M60.52,182.74l1-.4a31.89,31.89,0,0,0-4.44-1.62C58.29,181.39,59.44,182.06,60.52,182.74Z"></path>
      <path class="cls-7" d="M60.17,183.56c-.69,1.72-1.25,3.13-2.09,4.77A35,35,0,0,1,52,197.52a18.81,18.81,0,0,0,4-3.92A32.64,32.64,0,0,0,59,188.76a41.91,41.91,0,0,0,2.2-5.18c.1-.35.22-.89.32-1.24l-1,.4C60.46,182.9,60.23,183.4,60.17,183.56Z"></path>
      <path class="cls-9" d="M5.55,210.29a14.81,14.81,0,0,1,4.39-3.71,24.09,24.09,0,0,1,5.33-2.27,28.2,28.2,0,0,1,5.68-1c1-.09,1.92-.06,2.87-.08s1.92.13,2.86.25c-.94.18-1.88.28-2.82.41s-1.86.28-2.78.46-1.84.31-2.74.56-1.81.44-2.7.69a40.77,40.77,0,0,0-5.22,1.91A27.21,27.21,0,0,0,5.55,210.29Z"></path>
      <path class="cls-9" d="M8.54,202.52c1.94-1.21,3.77-2.53,5.64-3.81s3.71-2.58,5.54-3.9,3.66-2.64,5.46-4c.89-.68,1.78-1.37,2.64-2.1a14.48,14.48,0,0,0,2.38-2.38,17.89,17.89,0,0,1-4.35,5.29,62.69,62.69,0,0,1-5.36,4.27,67.93,67.93,0,0,1-5.76,3.7A35.77,35.77,0,0,1,8.54,202.52Z"></path>
      <path class="cls-9" d="M8.3,220.51a5.54,5.54,0,0,1,2.18-5.35,9.94,9.94,0,0,1,5.77-1.72,22.23,22.23,0,0,1,5.83.81,30.85,30.85,0,0,1,5.46,2c-1.93-.29-3.79-.74-5.67-1a27,27,0,0,0-2.81-.35,20.06,20.06,0,0,0-2.79-.14A10.47,10.47,0,0,0,11.08,216,5.92,5.92,0,0,0,8.3,220.51Z"></path>
      <path class="cls-9" d="M1.93,176.49a6,6,0,0,0,2.19,2.4A15.22,15.22,0,0,0,7,180.43a36.59,36.59,0,0,0,6.33,1.76c2.17.41,4.37.71,6.58,1s4.44.45,6.69.74c-1.12.14-2.25.18-3.38.28s-2.25,0-3.38,0a42.8,42.8,0,0,1-6.76-.69,26.07,26.07,0,0,1-6.52-2.13,13.29,13.29,0,0,1-2.85-2,6,6,0,0,1-.59-.64,4.3,4.3,0,0,1-.52-.69A3.73,3.73,0,0,1,1.93,176.49Z"></path>
      <path class="cls-9" d="M36,242.64a13,13,0,0,1-3.21-1.94,7.61,7.61,0,0,1-2.36-3.09,4.82,4.82,0,0,1,.31-4,9.33,9.33,0,0,1,2.68-2.9,25,25,0,0,1,6.78-3.33,46.71,46.71,0,0,1,7.25-1.76c-2.31.91-4.62,1.79-6.87,2.73a32.34,32.34,0,0,0-6.36,3.43,8.32,8.32,0,0,0-2.37,2.44,3.76,3.76,0,0,0-.43,3.1,7.69,7.69,0,0,0,1.81,2.95A16.87,16.87,0,0,0,36,242.64Z"></path>
      <path class="cls-9" d="M27.77,182.39a4.59,4.59,0,0,0-.33,3.91c1,2.49,3.23,4,5.43,5.07A16,16,0,0,1,30.05,189a7.35,7.35,0,0,1-1.89-3,4,4,0,0,1,.4-3.23A8.35,8.35,0,0,1,31,180.34l.11-.08-1.05-.44A8.81,8.81,0,0,0,27.77,182.39Z"></path>
      <path class="cls-8" d="M46.16,178.42a66.61,66.61,0,0,0-8.1-.13,23.35,23.35,0,0,0-6.82,1.08l-1.19.45,1.05.44A32,32,0,0,1,38.33,179C40.89,178.72,43.53,178.6,46.16,178.42Z"></path>
      <path class="cls-9" d="M26.93,228.3a14,14,0,0,0-3,.35,7.07,7.07,0,0,0-2.74,1.49,3.47,3.47,0,0,0-1,1.84l.26.19a3.86,3.86,0,0,1,1.26-1.45,7.67,7.67,0,0,1,2.51-1.11,52.48,52.48,0,0,1,5.72-1A14,14,0,0,0,26.93,228.3Z"></path>
      <path class="cls-9" d="M26,223.87c2-1,4-1.85,6-2.74s4-1.78,5.88-2.78A41.45,41.45,0,0,0,43.34,215a16.46,16.46,0,0,0,4.42-4.68A12.24,12.24,0,0,1,44,215.77a27.25,27.25,0,0,1-5.53,3.76,44.78,44.78,0,0,1-6.12,2.57c-1.05.36-2.11.67-3.17,1Z"></path>
      <path class="cls-7" d="M53.24,239.75c2-1,4-1.84,6-2.73s4-1.79,5.88-2.79a39.45,39.45,0,0,0,5.49-3.38A16.29,16.29,0,0,0,75,226.18a12.24,12.24,0,0,1-3.76,5.48,28,28,0,0,1-5.53,3.76A46.2,46.2,0,0,1,59.61,238c-1,.36-2.1.67-3.16,1Z"></path>
      <path class="cls-8" d="M55.9,181.65a33.49,33.49,0,0,1,4.51-5.91,34.88,34.88,0,0,1,5.65-4.91,25.1,25.1,0,0,1,6.75-3.32,16.33,16.33,0,0,1,7.44-.46,22.9,22.9,0,0,0-7.11,1.44,33.76,33.76,0,0,0-6.33,3.44l-1.48,1L63.9,174.1c-.94.76-1.86,1.56-2.77,2.38C59.34,178.13,57.57,179.83,55.9,181.65Z"></path>
      <path class="cls-7" d="M94.44,174.22a9.91,9.91,0,0,0-5.79,1c1-.1,1.93-.17,2.87-.19a15.11,15.11,0,0,1,2.78.15,9.14,9.14,0,0,1,2,.49l.1-.87A9.06,9.06,0,0,0,94.44,174.22Z"></path>
      <path class="cls-9" d="M5.55,201.21a16.35,16.35,0,0,1,4.07.47A18.51,18.51,0,0,1,13.53,203a10.52,10.52,0,0,1,3.38,2.54,5.16,5.16,0,0,1,1,1.92,3.57,3.57,0,0,1-.05,2.1,4.87,4.87,0,0,0-1.73-3.3,13.72,13.72,0,0,0-3.22-2.06C10.6,203.09,8.09,202.23,5.55,201.21Z"></path>
      <path class="cls-9" d="M25.84,219.12,29.39,214c1.17-1.72,2.32-3.44,3.39-5.21a50,50,0,0,0,3-5.4,21.52,21.52,0,0,0,2-5.86,14.31,14.31,0,0,1-1,6.26,28.09,28.09,0,0,1-1.26,2.93c-.5.94-1,1.87-1.56,2.77a44.63,44.63,0,0,1-3.7,5.14A39.12,39.12,0,0,1,25.84,219.12Z"></path>
      <ellipse class="cls-4" cx="50.31" cy="168.04" rx="11.23" ry="4.39"></ellipse>
      <ellipse class="cls-10" cx="50.6" cy="169.52" rx="9.26" ry="3.62"></ellipse>
      <path class="cls-11" d="M50,170.68a4,4,0,0,0-1-.53c-5.3-1-8.52-4.48-10.68-9.15a23.17,23.17,0,0,1-1.29-3.52,2.22,2.22,0,0,1,.18-1.73c.57-.7,1.38-.25,2,.08a20.75,20.75,0,0,1,2.28,1.32A31.88,31.88,0,0,1,49,164c.59.77,1.19,1.53,2,2.64.47-1.81.37-3-.65-4.13-.69-.73-1.36-1.48-2.06-2.2s-.77-1.55-.28-2.67a31,31,0,0,0,1.13-4.7c.11-.4.53-.71.81-1.06a4.92,4.92,0,0,1,.9,1.05c.31.67.46,1.42.73,2.13a3.8,3.8,0,0,0,.68,1.31c.4.39,1.38.57,1.4.88a12.84,12.84,0,0,1-.3,3.32c-.23,1.09-.67,2.14-1,3.22,0,.14.2.48.36.53a.63.63,0,0,0,.57-.28c1.16-2.63,2.18-5.33,3.45-7.9a28.47,28.47,0,0,1,2.9-4.36,1.53,1.53,0,0,1,1.3-.5,1.5,1.5,0,0,1,.81,1.08,20.13,20.13,0,0,1-.34,7.85,34.12,34.12,0,0,1-2.29,5.93c-1.28,2.59-3.61,4.09-6.16,5.27Z"></path>
    </g>
  </g>
</svg>
