<?xml version="1.0" encoding="UTF-8"?>
<svg xmlns="http://www.w3.org/2000/svg" viewBox="0 0 104.61 111.19">
  <defs>
    <style>.cls-1{fill:#a29274;}.cls-2{fill:#e3e0c9;}.cls-3{fill:#bda885;}.cls-4{fill:#7c705b;}.cls-5{fill:#d0c5a6;}.cls-6{fill:#a29277;}.cls-7{fill:#817870;}.cls-8{fill:#93c63e;}.cls-9{fill:#3f6c3e;}</style>
  </defs>
  <g id="Слой_2" data-name="Слой 2">
    <g id="Слой_1-2" data-name="Слой 1">
      <polygon class="cls-1" points="52.38 42.37 104.61 20.14 96.77 80.28 52.38 111.19 52.38 42.37"></polygon>
      <polygon class="cls-2" points="52.38 5.1 104.61 20.14 52.38 42.37 0 20.14 52.38 5.1"></polygon>
      <polygon class="cls-3" points="52.38 42.37 0 20.14 7.83 80.28 21.66 89.87 21.38 89.67 21.66 89.87 52.38 111.19 52.38 42.37"></polygon>
      <path class="cls-4" d="M51.14,109.36c1.22-1.73,2.29-3.56,3.41-5.34s2.18-3.59,3.2-5.42,2-3.68,2.93-5.56,1.74-3.81,2.54-5.79a26.48,26.48,0,0,1-1.51,6.23A44,44,0,0,1,59,99.3a49.92,49.92,0,0,1-3.53,5.35A27.62,27.62,0,0,1,51.14,109.36Z"></path>
      <path class="cls-5" d="M32.92,20.88a21.62,21.62,0,0,1,5.28-5,27.71,27.71,0,0,1,6.57-3.24,32,32,0,0,1,7.16-1.46c1.2-.15,2.42-.1,3.63-.13s2.42.15,3.61.29c-1.2.18-2.39.27-3.57.41L53.83,12a17.42,17.42,0,0,0-1.76.28c-1.16.24-2.32.41-3.46.74s-2.26.62-3.39,1a40,40,0,0,0-6.44,2.82A40.84,40.84,0,0,0,32.92,20.88Z"></path>
      <path class="cls-5" d="M24,23a7.42,7.42,0,0,0,2.08.32c.71.05,1.41,0,2.12,0a37.24,37.24,0,0,0,4.21-.4c1.4-.19,2.8-.46,4.21-.74s2.82-.59,4.28-.82a19.65,19.65,0,0,1-4,1.9,22.76,22.76,0,0,1-4.3,1.08,18.07,18.07,0,0,1-4.47.1A11.93,11.93,0,0,1,26,24a7.83,7.83,0,0,1-1.05-.4A2.25,2.25,0,0,1,24,23Z"></path>
      <path class="cls-4" d="M61.81,65.5c-.24-1.51-.54-3-.64-4.58a20.35,20.35,0,0,1,.21-4.67,16.21,16.21,0,0,1,1.41-4.53,14.33,14.33,0,0,1,2.8-3.89,16,16,0,0,1,3.89-2.77,20.13,20.13,0,0,1,4.45-1.56A28.5,28.5,0,0,1,83.17,43a44.27,44.27,0,0,0-9,1.6,18.16,18.16,0,0,0-7.63,4.27,15.35,15.35,0,0,0-4.12,7.62A37.5,37.5,0,0,0,61.81,65.5Z"></path>
      <path class="cls-4" d="M79.69,51.28c2.5-3.68,5.09-7.21,7.45-10.89a60,60,0,0,0,3.3-5.63,19.61,19.61,0,0,0,2.19-6.13,13.49,13.49,0,0,1-1.17,6.59,33.7,33.7,0,0,1-3.12,6,53.46,53.46,0,0,1-4,5.35A42.75,42.75,0,0,1,79.69,51.28Z"></path>
      <path class="cls-4" d="M67.58,70.38c.15.22.45.28.68.39l.76.29c.5.17,1,.34,1.53.49,1,.32,2.06.6,3.09.87,2.08.53,4.16,1,6.26,1.44s4.2.79,6.32,1.14l6.41,1a36.53,36.53,0,0,1-6.53.15,45.75,45.75,0,0,1-6.49-.85,43,43,0,0,1-6.3-1.77,32.23,32.23,0,0,1-3-1.29c-.49-.25-1-.5-1.44-.79A3.66,3.66,0,0,1,67.58,70.38Z"></path>
      <path class="cls-4" d="M80.19,78a15.64,15.64,0,0,1-1.49-8.74,14,14,0,0,1,1.24-4.41,14.52,14.52,0,0,1,2.63-3.77,19.2,19.2,0,0,1,7.77-4.59,30.92,30.92,0,0,1,8.76-1.42,54.66,54.66,0,0,0-8.38,2.47,21,21,0,0,0-7.12,4.54,14.07,14.07,0,0,0-3.8,7.34,17.92,17.92,0,0,0-.28,4.27A16.69,16.69,0,0,0,80.19,78Z"></path>
      <path class="cls-4" d="M99.1,50.44A29.27,29.27,0,0,1,98,56.38a37.49,37.49,0,0,1-2.16,5.68,30.47,30.47,0,0,1-3.19,5.2,18.24,18.24,0,0,1-4.47,4.12,40.11,40.11,0,0,0,3.55-4.77q1.53-2.52,2.82-5.17c.86-1.77,1.63-3.59,2.39-5.42S98.37,52.32,99.1,50.44Z"></path>
      <path class="cls-5" d="M65,37l1-.43a35.19,35.19,0,0,0-4.77-1.75C62.6,35.52,63.84,36.25,65,37Z"></path>
      <path class="cls-4" d="M64.62,37.86c-.74,1.84-1.34,3.35-2.24,5.12a37.5,37.5,0,0,1-6.53,9.86,19.68,19.68,0,0,0,4.34-4.21,35.18,35.18,0,0,0,3.15-5.19,44.49,44.49,0,0,0,2.36-5.57c.11-.37.24-.95.35-1.32L65,37C64.94,37.15,64.68,37.69,64.62,37.86Z"></path>
      <path class="cls-6" d="M6,66.57a15.79,15.79,0,0,1,4.72-4,26.27,26.27,0,0,1,5.72-2.44,30.12,30.12,0,0,1,6.1-1.08c1-.1,2.06-.07,3.09-.09s2.05.14,3.07.27c-1,.19-2,.3-3,.44s-2,.3-3,.49-2,.34-2.94.61-1.94.46-2.9.74a41.85,41.85,0,0,0-5.61,2A28.16,28.16,0,0,0,6,66.57Z"></path>
      <path class="cls-6" d="M9.17,58.21c2.07-1.31,4.05-2.7,6.06-4.08s4-2.77,5.94-4.2S25.11,47.1,27,45.65c1-.74,1.92-1.48,2.84-2.26a16.31,16.31,0,0,0,2.56-2.56,11.71,11.71,0,0,1-2.07,3.06c-.83.92-1.7,1.79-2.61,2.62A68.41,68.41,0,0,1,22,51.1c-2,1.42-4.06,2.75-6.19,4A37.43,37.43,0,0,1,9.17,58.21Z"></path>
      <path class="cls-6" d="M8.91,77.54a5.94,5.94,0,0,1,2.35-5.75A10.72,10.72,0,0,1,17.45,70a23.36,23.36,0,0,1,6.26.87A32.41,32.41,0,0,1,29.57,73c-2.07-.3-4.06-.79-6.08-1.07-1-.2-2-.29-3-.39a23.12,23.12,0,0,0-3-.15A11.41,11.41,0,0,0,11.9,72.7,6.39,6.39,0,0,0,8.91,77.54Z"></path>
      <path class="cls-6" d="M2.08,30.26a6.35,6.35,0,0,0,2.34,2.58,16.07,16.07,0,0,0,3.09,1.65,38.23,38.23,0,0,0,6.8,1.89c2.33.44,4.69.77,7.06,1s4.77.46,7.18.79a50.22,50.22,0,0,1-7.26.33A46.92,46.92,0,0,1,14,37.79,27.28,27.28,0,0,1,7,35.5,13.39,13.39,0,0,1,4,33.38,5.74,5.74,0,0,1,2.08,30.26Z"></path>
      <path class="cls-6" d="M38.67,101.31a13.71,13.71,0,0,1-3.45-2.09A8.06,8.06,0,0,1,32.7,95.9a4.8,4.8,0,0,1-.33-2.2A5.51,5.51,0,0,1,33,91.56a10.08,10.08,0,0,1,2.87-3.11,26.71,26.71,0,0,1,7.29-3.58A47.66,47.66,0,0,1,51,83c-2.48,1-5,1.9-7.38,2.93a34.43,34.43,0,0,0-6.83,3.68,8.94,8.94,0,0,0-2.55,2.62,4.1,4.1,0,0,0-.46,3.33,8.12,8.12,0,0,0,2,3.16A19,19,0,0,0,38.67,101.31Z"></path>
      <path class="cls-6" d="M29.83,36.6a4.92,4.92,0,0,0-.36,4.2c1.09,2.67,3.47,4.31,5.83,5.45a18.49,18.49,0,0,1-3-2.53,7.84,7.84,0,0,1-2-3.18,4.27,4.27,0,0,1,.43-3.47,9.08,9.08,0,0,1,2.6-2.68l.12-.07-1.12-.48A9.3,9.3,0,0,0,29.83,36.6Z"></path>
      <path class="cls-5" d="M49.57,32.34a72.43,72.43,0,0,0-8.7-.15,24.71,24.71,0,0,0-7.32,1.17l-1.27.48,1.12.48A34.25,34.25,0,0,1,41.16,33C43.92,32.66,46.75,32.53,49.57,32.34Z"></path>
      <path class="cls-6" d="M28.92,85.91a14.17,14.17,0,0,0-3.23.37,7.49,7.49,0,0,0-2.94,1.6,3.75,3.75,0,0,0-1.11,2l.28.2a4.2,4.2,0,0,1,1.36-1.56A8.28,8.28,0,0,1,26,87.31a60.21,60.21,0,0,1,6.15-1A14.36,14.36,0,0,0,28.92,85.91Z"></path>
      <path class="cls-6" d="M27.9,81.14c2.1-1.13,4.3-2,6.43-2.94s4.27-1.91,6.32-3a43.1,43.1,0,0,0,5.89-3.63,17.61,17.61,0,0,0,4.75-5,13.08,13.08,0,0,1-4,5.88,30.22,30.22,0,0,1-5.94,4,48.4,48.4,0,0,1-6.58,2.75C32.5,80,30.19,80.58,27.9,81.14Z"></path>
      <path class="cls-4" d="M57.18,98.2c2.1-1.12,4.3-2,6.44-2.93s4.26-1.92,6.32-3a43.72,43.72,0,0,0,5.89-3.63,17.78,17.78,0,0,0,4.75-5,13.05,13.05,0,0,1-4,5.88,29.1,29.1,0,0,1-5.94,4A49.76,49.76,0,0,1,64,96.31C61.78,97.09,59.48,97.64,57.18,98.2Z"></path>
      <path class="cls-5" d="M60,35.81a35.08,35.08,0,0,1,4.83-6.36,37.71,37.71,0,0,1,6.07-5.27,26.05,26.05,0,0,1,7.25-3.57,18.73,18.73,0,0,1,4-.75,15.7,15.7,0,0,1,4,.27,21.69,21.69,0,0,0-7.63,1.54,33.67,33.67,0,0,0-6.8,3.69,58,58,0,0,0-6.1,4.88C63.72,32,61.85,33.86,60,35.81Z"></path>
      <path class="cls-4" d="M101.42,27.82a10.66,10.66,0,0,0-6.21,1.1c1.05-.1,2.07-.18,3.08-.2a16.35,16.35,0,0,1,3,.16,9.78,9.78,0,0,1,2.15.52l.11-.93A10.5,10.5,0,0,0,101.42,27.82Z"></path>
      <path class="cls-6" d="M6,56.81a18,18,0,0,1,4.38.51,20,20,0,0,1,4.19,1.46,11.14,11.14,0,0,1,3.63,2.72,5.55,5.55,0,0,1,1.1,2.06,3.86,3.86,0,0,1-.06,2.26,5.2,5.2,0,0,0-1.86-3.55,15.13,15.13,0,0,0-3.45-2.2C11.38,58.83,8.68,57.91,6,56.81Z"></path>
      <path class="cls-6" d="M27.75,76.05c2.54-3.74,5.14-7.36,7.46-11.15a55.69,55.69,0,0,0,3.21-5.8,23.48,23.48,0,0,0,2.1-6.3,15,15,0,0,1-1.07,6.72,32.53,32.53,0,0,1-1.34,3.16c-.54,1-1.08,2-1.68,3a48,48,0,0,1-4,5.52A40.86,40.86,0,0,1,27.75,76.05Z"></path>
      <ellipse class="cls-1" cx="54.03" cy="21.19" rx="12.06" ry="4.72"></ellipse>
      <ellipse class="cls-7" cx="54.34" cy="22.78" rx="9.94" ry="3.89"></ellipse>
      <path class="cls-8" d="M55.51,23a12.37,12.37,0,0,1,.58-2.33c.36-.91,2.27-4.47,2.27-4.47s1.33-2.64,1.87-2.74,1.77,2.28,5.52,3.09c7.6,1.64,12.86-1.39,13.14-4.61a3.52,3.52,0,0,0-2-3.82c-1-.49-1-1.84-.78-2.83C76.3,4.73,77.32,2,74.5,1.16A13.6,13.6,0,0,0,62.92,3.42c-3.93,3-4.17,6.65-3.23,7.48s-1.14,3-3.2,6c-2,2.85-1.67,3-1.67,3a62.09,62.09,0,0,0-3-6.47s1.36-.82,1-4.36c-.15-1.78-2.67-6.27-6.31-7.73S39.66-.51,37,2.12c-2.12,2.1.75,3.62-.32,3.93-1.84.52-2.78,1.06-3.37,2.09-1,1.73-.83,4.67,2.3,6.62s9,2.43,10.93,2c3.52-.84,4.23-2,4.23-2s2.84,5.21,3.32,8.38S55.51,23,55.51,23Z"></path>
      <path class="cls-8" d="M61,14c.26.23,2.55,3,8.83,3s8.48-3.3,8.7-3.9a3.87,3.87,0,0,0-1.13-4.69"></path>
      <path class="cls-9" d="M61.06,14a9.91,9.91,0,0,0,5.47,2.56,17.19,17.19,0,0,0,6.07-.06,9.56,9.56,0,0,0,5.17-2.77,3,3,0,0,0,.71-1.22,4.34,4.34,0,0,0,.2-1.43,4.06,4.06,0,0,0-1.26-2.63l0,0A3.94,3.94,0,0,1,79.14,11,4.09,4.09,0,0,1,79,12.67a4.19,4.19,0,0,1-.28.79,4.87,4.87,0,0,1-.46.69A9.11,9.11,0,0,1,72.7,17a17.61,17.61,0,0,1-6.23-.12A10.14,10.14,0,0,1,61,14.05Z"></path>
      <path class="cls-8" d="M66.48,1.51s-6.23,1.86-7.21,7.35a3.74,3.74,0,0,0,.42,2,1.71,1.71,0,0,1-.37,1.93s-3.71,5.33-4,5.86"></path>
      <path class="cls-9" d="M66.49,1.53a13.19,13.19,0,0,0-3.31,1.72,10.48,10.48,0,0,0-2.59,2.64A7,7,0,0,0,59.4,9.32a4,4,0,0,0,.53,1.74,1.88,1.88,0,0,1-.5,1.89l0,0c-.65,1-1.34,1.94-2,2.9s-1.37,1.93-2.09,2.88l0,0c.62-1,1.26-2,1.91-3s1.29-2,2-2.95h0v0a1.57,1.57,0,0,0,.43-1.55,4.49,4.49,0,0,1-.5-1.83,7.22,7.22,0,0,1,1.3-3.55,10.16,10.16,0,0,1,2.68-2.63A13,13,0,0,1,66.48,1.5Z"></path>
      <path class="cls-9" d="M54.87,19.9l-1.56-3.17c-.54-1.05-1-2.12-1.59-3.15l0-.1.06-.09a5.89,5.89,0,0,0,1-3.37,7.47,7.47,0,0,0-.92-3.42,10.72,10.72,0,0,0-2.17-2.84,12.41,12.41,0,0,0-2.91-2.12,10.3,10.3,0,0,0-7-1.19,5.56,5.56,0,0,0-2.93,2A2.06,2.06,0,0,0,36.29,4,3.7,3.7,0,0,0,37,5.68l0,0A3.69,3.69,0,0,1,36.2,4a2.17,2.17,0,0,1,.52-1.72,5.6,5.6,0,0,1,3-2.06A8,8,0,0,1,43.38.18a13.41,13.41,0,0,1,3.48,1.2,11.9,11.9,0,0,1,5.21,5.08A7.91,7.91,0,0,1,53,10,6.19,6.19,0,0,1,51.9,13.5v0c1.09,2.1,2,4.26,3,6.41Z"></path>
      <path class="cls-9" d="M35.76,6.36a4.07,4.07,0,0,0-2.62,3.79,5.14,5.14,0,0,0,2.31,4,10.14,10.14,0,0,0,2.2,1.14,21,21,0,0,0,2.37.85,15.62,15.62,0,0,0,2.49.45c.85.11,1.71.2,2.57.28v.05a26.13,26.13,0,0,1-5.15-.41,15.28,15.28,0,0,1-2.45-.81,10.9,10.9,0,0,1-2.32-1.15,5.47,5.47,0,0,1-2.4-4.39,3.49,3.49,0,0,1,.86-2.39,5.29,5.29,0,0,1,2.13-1.45Z"></path>
    </g>
  </g>
</svg>
