<?xml version="1.0" encoding="UTF-8"?>
<svg xmlns="http://www.w3.org/2000/svg" viewBox="0 0 97.83 99.22">
  <defs>
    <style>.cls-1{fill:#a5a5a5;}.cls-2{fill:#a29274;}.cls-3{fill:#e3e0c9;}.cls-4{fill:#fcedce;}.cls-5{fill:#bda885;}.cls-6{fill:#d0c5a6;}.cls-7{fill:#8f8267;}.cls-8{fill:#ab967a;opacity:0.25;}.cls-9{fill:#9b8d71;}.cls-10{fill:#7c705b;}.cls-11{fill:#cacac9;}.cls-12{fill:#817870;}.cls-13{fill:#79a05b;}</style>
  </defs>
  <g id="Слой_2" data-name="Слой 2">
    <g id="Слой_1-2" data-name="Слой 1">
      <polygon class="cls-1" points="84.5 87.02 84.55 86.93 84.47 86.92 84.5 87.02"></polygon>
      <polygon class="cls-2" points="48.99 34.86 97.83 14.06 90.51 70.31 48.99 99.22 48.99 34.86"></polygon>
      <polygon class="cls-3" points="48.99 0 97.83 14.06 48.99 34.86 0 14.06 48.99 0"></polygon>
      <polygon class="cls-4" points="48.99 0 0 14.06 0.86 14.43 97.38 13.93 48.99 0"></polygon>
      <polygon class="cls-5" points="7.33 70.31 0 14.06 48.99 34.86 48.99 99.22 7.33 70.31"></polygon>
      <path class="cls-6" d="M30.79,14.75a28.27,28.27,0,0,1,2.31-2.47,24.84,24.84,0,0,1,2.7-2.08,26.88,26.88,0,0,1,6.12-3,31.07,31.07,0,0,1,6.66-1.39c1.13-.14,2.26-.12,3.39-.18s2.25.1,3.37.2C54.22,6,53.1,6,52,6.14s-2.22.23-3.31.45-2.18.37-3.25.68-2.13.58-3.19.9a36.18,36.18,0,0,0-6,2.68A33.57,33.57,0,0,0,30.79,14.75Z"></path>
      <polygon class="cls-7" points="48.99 34.86 97.83 14.06 90.51 70.31 48.99 99.22 48.99 34.86"></polygon>
      <polygon class="cls-8" points="7.33 70.31 0 14.06 48.99 34.86 48.99 99.22 7.33 70.31"></polygon>
      <polygon class="cls-9" points="48.99 99.22 7.33 70.31 49.18 54.49 90.51 70.31 48.99 99.22"></polygon>
      <path class="cls-10" d="M16.18,45.58a15,15,0,0,1-1.26-8.16,12.92,12.92,0,0,1,3.61-7.55,18,18,0,0,1,7.19-4.28,30.29,30.29,0,0,1,8.15-1.45l-2,.42c-.67.15-1.33.34-2,.5s-1.31.38-2,.56-1.28.45-1.91.69a19.72,19.72,0,0,0-6.74,4.26,13.24,13.24,0,0,0-3.57,7,15.43,15.43,0,0,0-.2,4A15.43,15.43,0,0,0,16.18,45.58Z"></path>
      <path class="cls-10" d="M61.7,44.8c.13.21.41.28.62.39s.46.2.7.29c.47.18.94.34,1.42.5,1,.31,1.92.59,2.89.86,1.93.52,3.88,1,5.85,1.38,3.93.82,7.91,1.33,11.94,1.8A44.24,44.24,0,0,1,73,49.2a43.16,43.16,0,0,1-5.89-1.62c-1-.34-1.9-.72-2.83-1.15-.46-.23-.91-.46-1.36-.71A3.3,3.3,0,0,1,61.7,44.8Z"></path>
      <path class="cls-10" d="M35.46,41.87a35.67,35.67,0,0,1-3.24,10.79,30.36,30.36,0,0,1-2.94,4.86,18.54,18.54,0,0,1-4.07,3.94,31.86,31.86,0,0,0,3.43-4.39,51.78,51.78,0,0,0,2.68-4.84c.81-1.66,1.52-3.38,2.21-5.1S34.86,43.65,35.46,41.87Z"></path>
      <path class="cls-10" d="M50.61,86.63c2-1,4.07-1.73,6.07-2.62s4-1.76,5.94-2.77a40.14,40.14,0,0,0,5.52-3.44,18.39,18.39,0,0,0,2.41-2.17c.35-.41.72-.81,1.06-1.24s.58-.93.88-1.39q-.3.77-.66,1.53c-.28.48-.6.94-.9,1.42a18.3,18.3,0,0,1-2.3,2.44,28.14,28.14,0,0,1-5.55,3.74A49.07,49.07,0,0,1,57,84.73c-1.05.36-2.1.7-3.16,1Z"></path>
      <path class="cls-10" d="M27.7,80.46a10.27,10.27,0,0,1-5.45-5.1,4.64,4.64,0,0,1,.32-3.93,9.17,9.17,0,0,1,2.65-2.85A25.27,25.27,0,0,1,32,65.22a51.94,51.94,0,0,1,7.23-1.89c-1.16.46-2.35.8-3.5,1.28s-2.32.86-3.46,1.33a31.2,31.2,0,0,0-6.43,3.44,8.41,8.41,0,0,0-2.43,2.51A4,4,0,0,0,23,75.12a7.44,7.44,0,0,0,1.9,3A16.49,16.49,0,0,0,27.7,80.46Z"></path>
      <path class="cls-10" d="M72.49,43.67l3.64-5c1.2-1.68,2.37-3.36,3.48-5.09a50.75,50.75,0,0,0,3.06-5.29,17.36,17.36,0,0,0,1.93-5.79,13.15,13.15,0,0,1-1.21,6.1,34.43,34.43,0,0,1-2.94,5.53A51.71,51.71,0,0,1,72.49,43.67Z"></path>
      <polygon class="cls-1" points="47.2 66.72 47.25 66.64 47.17 66.63 47.2 66.72"></polygon>
      <path class="cls-11" d="M49.32,26l2.5.61.48,8.3a12.93,12.93,0,0,1-1.18,6.59c-.23.46-.44,1-1,.88A2.3,2.3,0,0,1,50,41.2c.26-1.51.64-3,.86-4.52a4.54,4.54,0,0,0-.74-3.5,5.25,5.25,0,0,1-.72-2.61C49.27,29,49.33,27.49,49.32,26Z"></path>
      <polygon class="cls-4" points="0.86 14.43 48.99 34.86 97.83 14.06 97.38 13.93 0.86 14.43"></polygon>
      <ellipse class="cls-2" cx="50.53" cy="15.04" rx="11.28" ry="4.41"></ellipse>
      <ellipse class="cls-12" cx="50.82" cy="16.53" rx="9.3" ry="3.64"></ellipse>
      <path class="cls-13" d="M49.16,18.52a2.84,2.84,0,0,0-.8-.43c-4.27-.85-6.87-3.7-8.61-7.55a19.63,19.63,0,0,1-1-2.9,1.85,1.85,0,0,1,.15-1.42c.45-.58,1.11-.21,1.64.06a15.6,15.6,0,0,1,1.84,1.09,25.51,25.51,0,0,1,6,5.65L50,15.19c.38-1.49.3-2.51-.53-3.4-.55-.61-1.09-1.23-1.65-1.82a1.72,1.72,0,0,1-.23-2.19,27.07,27.07,0,0,0,.91-3.88c.09-.33.43-.59.65-.88a4.56,4.56,0,0,1,.73.87c.25.56.37,1.17.59,1.75A3.11,3.11,0,0,0,51,6.73c.32.32,1.11.46,1.12.72a10.55,10.55,0,0,1-.24,2.74c-.19.9-.54,1.76-.78,2.65a.55.55,0,0,0,.29.44.5.5,0,0,0,.46-.23c.93-2.17,1.75-4.39,2.78-6.52A23.75,23.75,0,0,1,57,2.94a1.22,1.22,0,0,1,1-.41,1.22,1.22,0,0,1,.66.89,17,17,0,0,1-.27,6.47,30,30,0,0,1-1.85,4.89,9.73,9.73,0,0,1-5,4.35Z"></path>
    </g>
  </g>
</svg>
