<?xml version="1.0" encoding="UTF-8"?>
<svg xmlns="http://www.w3.org/2000/svg" xmlns:xlink="http://www.w3.org/1999/xlink" viewBox="0 0 110.57 137.27">
  <defs>
    <style>.cls-1{fill:none;}.cls-2{fill:#956d4b;}.cls-3{clip-path:url(#clip-path);}.cls-4{fill:url(#Безымянный_градиент_4);}.cls-5{fill:#754120;}.cls-6{fill:#44281c;}.cls-7{fill:#6c3c1d;}.cls-8{fill:#714d31;}.cls-9{fill:#613822;}.cls-10{fill:#7f5637;}.cls-11{fill:#a07850;}.cls-12{fill:#772f46;}.cls-13{fill:#8b5b3c;}.cls-14{fill:#85a93c;}.cls-15{fill:#613922;}</style>
    <clipPath id="clip-path">
      <polygon class="cls-1" points="7.92 108.59 57.88 132.11 104.11 108.71 56.05 88.35 7.92 108.59"></polygon>
    </clipPath>
    <linearGradient id="Безымянный_градиент_4" x1="-3708.14" y1="-716.91" x2="-3705.34" y2="-716.91" gradientTransform="matrix(34.36, 0, 0, -34.36, 127394.28, -24520.07)" gradientUnits="userSpaceOnUse">
      <stop offset="0" stop-color="#a17551"></stop>
      <stop offset="0.38" stop-color="#a17551"></stop>
      <stop offset="0.89" stop-color="#7a4928"></stop>
      <stop offset="1" stop-color="#72401f"></stop>
    </linearGradient>
  </defs>
  <g id="Слой_2" data-name="Слой 2">
    <g id="Слой_1-2" data-name="Слой 1">
      <path class="cls-2" d="M57.88,66s9.63,11.3,17.06,11.76,32.81-7.56,32.81-7.56l2.56-26.43L57.88,25.23Z"></path>
      <path class="cls-2" d="M.19,41.85,5.42,76.33S24,79.11,27.25,78.19s18.12-6.51,22.3-6.51S57.88,66,57.88,66V25.23Z"></path>
      <g class="cls-3">
        <rect class="cls-4" x="31.58" y="61.03" width="48.87" height="98.4" transform="translate(-57.07 160.24) rotate(-86.92)"></rect>
      </g>
      <path class="cls-5" d="M7.92,108.59,5.42,76.33s23.69-.47,30.2-3.72S57.88,66,57.88,66L56.05,88.35Z"></path>
      <path class="cls-6" d="M41.68,78.33a8.52,8.52,0,0,0-2.83-1.67v0S35.08,75.51,33,78.06s-1.7,5.29-.77,5.73a11.08,11.08,0,0,0,1.63.34l.1,0a28,28,0,0,0,3.5-.8,1.86,1.86,0,0,0,.61-.15l.65-.19c1.48-.46,1.66-.13,2.69-1a4,4,0,0,0,1.08-2.55l-.21-.5h0l0,0a1,1,0,0,0-.59-.51"></path>
      <path class="cls-6" d="M21.4,81.66a10.78,10.78,0,0,0-4,1.33v0s-4.3,2.69-3.59,6.84,3.66,6.13,4.88,5.6a14.71,14.71,0,0,0,1.71-1.28l0-.13c.92-1.06,1.6-3.16,2.21-4.06a2.27,2.27,0,0,0,.36-.72c.1-.2.21-.42.37-.79.81-1.81,1.28-1.71,1.29-3.45a5.09,5.09,0,0,0-1.54-3.21,3.47,3.47,0,0,0-.65-.22v0h-.07a1.26,1.26,0,0,0-1,.14"></path>
      <path class="cls-7" d="M57.88,66,56.05,88.35l48.06,20.36,3.64-38.55s-15-1.73-21.48-.8S68.44,73.07,65,71.22A45.07,45.07,0,0,1,57.88,66"></path>
      <path class="cls-6" d="M39.58,89a3.29,3.29,0,0,0-1.25-.31h0a2.31,2.31,0,0,0-2,1.19c-.49,1.18,0,2.17.35,2.23l.65,0,0,0a9.3,9.3,0,0,0,1.23-.69l.21-.12L39,91c.5-.34.61-.23.89-.68A1.52,1.52,0,0,0,40,89.26l-.13-.16h0Z"></path>
      <path class="cls-6" d="M86.66,79.32a2.3,2.3,0,0,0-.11-.89h0s-.38-1-1.27-1-1.43.5-1.37.78l.2.41h0l.75.63.14.11.14.1c.35.25.31.34.67.42a1.1,1.1,0,0,0,.73-.19l.07-.12h0v-.23Z"></path>
      <path class="cls-6" d="M100.09,95.5a11,11,0,0,0-1.91-3.81h0s-3.31-3.91-7.35-2.6-5.6,4.54-4.89,5.68a13.64,13.64,0,0,0,1.53,1.53l.13,0c1.19.76,3.39,1.13,4.37,1.61a2.47,2.47,0,0,0,.77.26l.84.25c1.94.55,1.9,1,3.64.79a5.15,5.15,0,0,0,3-2,3.14,3.14,0,0,0,.13-.69h0v-.08a1.31,1.31,0,0,0-.28-1"></path>
      <path class="cls-6" d="M74,82.22a8.37,8.37,0,0,0-1.87,2.69v0s-1.4,3.67,1,5.9,5.11,2.08,5.62,1.19a11,11,0,0,0,.46-1.59l0-.1a27.58,27.58,0,0,0-.52-3.53,1.75,1.75,0,0,0-.11-.61c0-.17-.07-.36-.14-.66-.34-1.5,0-1.65-.81-2.74a3.92,3.92,0,0,0-2.44-1.26l-.51.17v0l0,0a1,1,0,0,0-.54.54"></path>
      <path class="cls-8" d="M74.15,109.6a1.59,1.59,0,0,0,1.57-.42c.54-.69.43-1.43.17-1.54l-.44-.09c-.29,0-.32.69-.33.71Z"></path>
      <path class="cls-9" d="M73.21,109s.88.79,1.24.55a8.71,8.71,0,0,1,.8-.46l0-.24-1-.32-.57.19Z"></path>
      <path class="cls-10" d="M73.15,108.88c0,.1.12.36.4.27a4.65,4.65,0,0,0,.53-.22l.32-1c.07-.15.15-.19-.25-.06s-.45,0-.72.29a1.09,1.09,0,0,0-.28.69"></path>
      <path class="cls-11" d="M74.08,108.92a4.37,4.37,0,0,0,.12-.69c0-.31,0-.39.29-.43s.83-.33,1.1-.23.26.09.26.44a1.23,1.23,0,0,1-.38.87.71.71,0,0,1-.76.33,1.73,1.73,0,0,1-.63-.29"></path>
      <path class="cls-8" d="M63.47,103.47s2.39.13,3.24-1.67.26-3.36-.36-3.49a7.76,7.76,0,0,0-1,0c-.65,0-.37,1.66-.39,1.7Z"></path>
      <path class="cls-9" d="M61.12,102.65s2.3,1.32,3,.62a19.37,19.37,0,0,1,1.53-1.4l-.16-.53a7.22,7.22,0,0,0-2.26-.24c-.37.2-1,.62-1.16.69Z"></path>
      <path class="cls-10" d="M60.93,102.38c.11.2.44.73,1,.4a9.74,9.74,0,0,0,1-.75s.19-1.94.26-2.29.23-.49-.58,0-1,.31-1.44,1a2.41,2.41,0,0,0-.28,1.66"></path>
      <path class="cls-11" d="M63,102a11.05,11.05,0,0,0,0-1.59c-.09-.7-.15-.88.42-1.09s1.68-1.12,2.33-1,.6.06.77.84a2.89,2.89,0,0,1-.42,2.1,1.6,1.6,0,0,1-1.51,1.07A4.2,4.2,0,0,1,63,102"></path>
      <path class="cls-8" d="M53.51,111.24s1.87,1.42,3.54.43,2.05-2.58,1.62-3a7.68,7.68,0,0,0-.83-.53c-.56-.33-1.22,1.15-1.25,1.16Z"></path>
      <path class="cls-9" d="M52.06,109.29s1.14,2.33,2.08,2.13,2-.29,2-.29l.15-.51s-1.29-1.4-1.69-1.44-1.15,0-1.32-.07Z"></path>
      <path class="cls-10" d="M52.06,109c0,.22-.05.83.58.86a8.3,8.3,0,0,0,1.26,0l1.46-1.71c.25-.24.45-.27-.47-.32s-1-.27-1.7,0A2.36,2.36,0,0,0,52.06,109"></path>
      <path class="cls-11" d="M53.9,109.8a11.08,11.08,0,0,0,.83-1.31c.31-.61.35-.79.93-.65s2,0,2.44.44.45.38.17,1.11a2.77,2.77,0,0,1-1.49,1.46,1.54,1.54,0,0,1-1.81,0,3.92,3.92,0,0,1-1.07-1.09"></path>
      <path class="cls-8" d="M49.22,104.8a2.67,2.67,0,0,0,.09-2.73c-.86-1.2-2.1-1.38-2.41-1l-.35.67c-.21.45,1,.85,1,.88Z"></path>
      <path class="cls-9" d="M47.82,106s1.7-1,1.49-1.73A15.08,15.08,0,0,1,49,102.8l-.4-.09s-1,1.08-1,1.4,0,.87,0,1Z"></path>
      <path class="cls-10" d="M47.58,106.06c.18,0,.64,0,.62-.5a6,6,0,0,0-.11-1l-1.4-1c-.2-.17-.23-.32-.21.38s-.15.74.12,1.3a1.8,1.8,0,0,0,1,.78"></path>
      <path class="cls-11" d="M48.09,104.6a7.93,7.93,0,0,0-1.06-.54c-.48-.2-.62-.22-.55-.67s-.12-1.51.18-1.89.26-.37.83-.2a2.15,2.15,0,0,1,1.22,1,1.18,1.18,0,0,1,.14,1.38,3,3,0,0,1-.76.89"></path>
      <path class="cls-8" d="M40.75,106.82a1.17,1.17,0,0,0,.39-1.12c-.21-.61-.7-.85-.87-.74l-.23.23.29.49Z"></path>
      <path class="cls-9" d="M40,107.15s.84-.21.84-.52a5.8,5.8,0,0,1,0-.68l-.16-.08-.58.45-.12.42Z"></path>
      <path class="cls-10" d="M39.91,107.13l.32-.13.08-.41-.45-.59c-.06-.1-.06-.17-.14.13s-.15.28-.12.55a.8.8,0,0,0,.31.45"></path>
      <path class="cls-11" d="M40.31,106.59l-.37-.36-.15-.35.32-.76.37,0a.91.91,0,0,1,.37.59.51.51,0,0,1-.11.59Z"></path>
      <path class="cls-8" d="M38.15,111.49s1.64-2.64.14-4.73-3.66-2.39-4.19-1.77a8.24,8.24,0,0,0-.6,1.17c-.37.77,1.66,1.46,1.69,1.51Z"></path>
      <path class="cls-9" d="M35.75,113.64s2.94-1.79,2.57-3a26.63,26.63,0,0,1-.64-2.62l-.69-.14s-1.69,1.87-1.69,2.41.08,1.52.06,1.75Z"></path>
      <path class="cls-10" d="M35.32,113.68c.31,0,1.1,0,1.08-.87a11.34,11.34,0,0,0-.2-1.66s-2.08-1.42-2.43-1.72-.41-.56-.37.66-.25,1.28.22,2.24a3.06,3.06,0,0,0,1.7,1.35"></path>
      <path class="cls-11" d="M36.2,111.15a15.48,15.48,0,0,0-1.83-.94c-.85-.33-1.09-.36-1-1.15s-.22-2.61.29-3.28.45-.64,1.44-.34a3.62,3.62,0,0,1,2.12,1.78,2.07,2.07,0,0,1,.28,2.38,5.3,5.3,0,0,1-1.32,1.55"></path>
      <path class="cls-12" d="M54.45,68.76c.81,1.75,3.13,2.39,5.17,1.44s4.05-3.35,3.24-5.1-4.15-2.19-6.19-1.24S53.63,67,54.45,68.76Z"></path>
      <path class="cls-12" d="M71.43,88.6h0a2.56,2.56,0,0,1-.3-.87,8.12,8.12,0,0,1-.12-1v0a7.29,7.29,0,0,0-.83-2.27,8,8,0,0,0-1.53-1.9,10.51,10.51,0,0,0-2-1.43,11.65,11.65,0,0,0-2.24-1h0l-1.31-1.41L60.4,75.79l.06-.11a12.93,12.93,0,0,1,1-1.42c.35-.47.78-1,1.12-1.48a12.46,12.46,0,0,0,.78-1.28,4.57,4.57,0,0,1,.86.72,3.45,3.45,0,0,1,.83,1.58c.12.57.11,1.3.25,1.93a5.15,5.15,0,0,0,.7,1.9.14.14,0,0,0,.17,0,.12.12,0,0,0,0-.17v0a4.82,4.82,0,0,1-.51-1.8c-.1-.65,0-1.24-.12-2a4.09,4.09,0,0,0-.85-1.91,5,5,0,0,0-1-1,7.49,7.49,0,0,0,.51-1.58A4.2,4.2,0,0,0,63,65.17l-.05,0a.8.8,0,0,0-1,1.28l.06,0a2,2,0,0,1,.38.44,2.8,2.8,0,0,1,.27.64A3.32,3.32,0,0,1,62.76,69a8,8,0,0,1-1.27,3c-.14.22-.29.43-.44.64a10,10,0,0,0-2.13.46,4.23,4.23,0,0,0-1.27.68,6.84,6.84,0,0,1-1.08.64A12.84,12.84,0,0,0,54.4,75.8a8.15,8.15,0,0,0-2.27,1,10.1,10.1,0,0,0-2,1.59,10.91,10.91,0,0,0-1.5,2,13.72,13.72,0,0,0-1,2.27.11.11,0,0,0,.07.14.1.1,0,0,0,.14-.06h0a13.14,13.14,0,0,1,1.11-2.18,10.66,10.66,0,0,1,1.53-1.88,10,10,0,0,1,1.93-1.44,7.22,7.22,0,0,1,1-.47,5.61,5.61,0,0,0-.82,1.32,7.64,7.64,0,0,0-.62,2.68c-.08.89-.1,1.8-.1,2.69a14.68,14.68,0,0,1-.11,2.59,4.5,4.5,0,0,1-1.18,2.18c-1.17,1.25-2.76,2.18-3.93,3.6a4.92,4.92,0,0,0-1.16,2.52,4.07,4.07,0,0,0,0,.78,8.33,8.33,0,0,0-.68,1.68,11.5,11.5,0,0,0-.37,1.91,12.45,12.45,0,0,0,0,1.93,13.63,13.63,0,0,0,.25,1.92.1.1,0,0,0,.12.08.11.11,0,0,0,.08-.12,13.3,13.3,0,0,1-.19-1.89,13.09,13.09,0,0,1,.1-1.88A11.3,11.3,0,0,1,45.1,97a7.93,7.93,0,0,1,.42-1,7.88,7.88,0,0,0,.34,1.2,22.6,22.6,0,0,1,2.24,10.22v0a.21.21,0,0,0,.21.22.22.22,0,0,0,.23-.21,23.09,23.09,0,0,0-2.21-10.43A5.07,5.07,0,0,1,46,94.45,4.39,4.39,0,0,1,47,92.2c1.1-1.33,2.66-2.23,3.93-3.56.09-.09.16-.19.24-.28a5.81,5.81,0,0,1,.46,2.19,2.66,2.66,0,0,1-.29,1.26,13.49,13.49,0,0,1-.84,1.1,8.09,8.09,0,0,0-1.3,2.59,4,4,0,0,0,.21,2.9.17.17,0,0,0,.22.07.16.16,0,0,0,.07-.22,3.7,3.7,0,0,1-.13-2.64,7.59,7.59,0,0,1,1.29-2.43c.27-.38.61-.67.89-1.14a3.26,3.26,0,0,0,.38-1.48,6.7,6.7,0,0,0-.57-2.72,4.55,4.55,0,0,0,.71-1.64,13.88,13.88,0,0,0,.14-2.71c0-.89,0-1.76.11-2.64a7.26,7.26,0,0,1,.58-2.47,5.39,5.39,0,0,1,1.54-2,11.12,11.12,0,0,1,2.21-1.34,6.42,6.42,0,0,0,1.21-.72,3.28,3.28,0,0,1,1.07-.55,8.58,8.58,0,0,1,1.35-.33l0,0a13.28,13.28,0,0,0-1,1.58,14.37,14.37,0,0,0-.72,1.41A29.52,29.52,0,0,0,56,79.23a6.18,6.18,0,0,0-1.22,1.91c-.23.63-.63,1.25-1,1.92a5.54,5.54,0,0,0-.61,2.17,6.43,6.43,0,0,0,.31,2.21,10.84,10.84,0,0,1,.31,4.25.18.18,0,0,0,.15.2.19.19,0,0,0,.21-.15v0A11.46,11.46,0,0,0,54,87.33a5.93,5.93,0,0,1-.26-2.06,5.27,5.27,0,0,1,.61-2c.32-.63.73-1.23,1-2a5.64,5.64,0,0,1,1.15-1.69c.51-.57,1.07-1.12,1.64-1.65,0,.17-.11.33-.16.5-.13.41-.22.82-.31,1.24,0,0,0,.06,0,.08a18.66,18.66,0,0,0-.31,2.35,14.32,14.32,0,0,0,.27,3.2,25.51,25.51,0,0,0-.11,5.86,9.65,9.65,0,0,0,.32,1.67l-1,3.47h0a.23.23,0,0,0,.16.29.23.23,0,0,0,.3-.15l.91-2.76,0,0a10.44,10.44,0,0,1,.07,4.35c-.09.6-.19,1.21-.28,1.82a4.71,4.71,0,0,0-1.18.41,3.63,3.63,0,0,0-1.18,1,3.22,3.22,0,0,0-.6,1.41,5,5,0,0,0,0,1.5.15.15,0,0,0,.15.13.14.14,0,0,0,.13-.15h0a4.66,4.66,0,0,1,.07-1.4,2.87,2.87,0,0,1,.59-1.23,3.36,3.36,0,0,1,1.95-1.12c-.11.76-.2,1.53-.26,2.3a16.4,16.4,0,0,0,.25,4.74,7.48,7.48,0,0,0,.54,1.57,2.87,2.87,0,0,0-.6,1.36,5.37,5.37,0,0,0,0,1.6,16.35,16.35,0,0,0,.69,3.1.08.08,0,0,0,.09,0,.07.07,0,0,0,0-.08,16.13,16.13,0,0,1-.65-3.07,5,5,0,0,1,0-1.55,2.86,2.86,0,0,1,.51-1.2,6.5,6.5,0,0,0,1.76,2.26.08.08,0,0,0,.1-.13,6.9,6.9,0,0,1-2.06-4,14.22,14.22,0,0,1-.17-2.53,2.63,2.63,0,0,1,.76.26,3.67,3.67,0,0,1,.91.71,5.55,5.55,0,0,1,.7,1A7.69,7.69,0,0,1,61,108a.1.1,0,0,0,.11,0,.1.1,0,0,0,.06-.12,10.07,10.07,0,0,0-.48-1.13,5.45,5.45,0,0,0-.69-1,4,4,0,0,0-.95-.83,3.14,3.14,0,0,0-.93-.35c0-.55.05-1.1.1-1.65.16-1.54.46-3,.74-4.59a9.94,9.94,0,0,0,.07-3.22c.39.49.79,1,1.19,1.44a.08.08,0,0,0,.11,0,.08.08,0,0,0,0-.12c-.24-.41-.51-.81-.77-1.21a3.12,3.12,0,0,1,.84-.37.72.72,0,0,1,.89.34s0,0,.08,0a.06.06,0,0,0,0-.08.79.79,0,0,0-.42-.46,1.15,1.15,0,0,0-.63-.06,3.55,3.55,0,0,0-1,.31q-.33-.5-.63-1a7.65,7.65,0,0,1-.64-2.74,31.1,31.1,0,0,1,0-4,9.93,9.93,0,0,0,1.15,2.06,9,9,0,0,0,2.88,2.33.23.23,0,0,0,.31-.09.23.23,0,0,0-.08-.31h0a8.53,8.53,0,0,1-2.61-2.28,9.68,9.68,0,0,1-1.37-3.18,13.08,13.08,0,0,1-.22-3.48c.06-.44.12-.89.2-1.33.89,1,1.78,2,2.62,3.06a7.59,7.59,0,0,1,1.28,2,4,4,0,0,1,.29,2.27v.06a.24.24,0,0,0,.16.28.25.25,0,0,0,.29-.16,4.52,4.52,0,0,0-.17-2.66,8.49,8.49,0,0,0-1.28-2.26c-.94-1.3-1.93-2.53-2.94-3.77.09-.31.18-.63.29-.94a15.8,15.8,0,0,1,1-2.19l2.57,2.69,1.27,1.32a.52.52,0,0,0,.39.5h0l.1,0,.56.59.39.41a2.21,2.21,0,0,1,.27.37,9.41,9.41,0,0,1,1,4.15c0,.3,0,.61,0,.91,0,0,0,0,0,0a.4.4,0,0,0,0,.32A12.74,12.74,0,0,1,65.9,91a19.91,19.91,0,0,1-.8,2.07,17.88,17.88,0,0,0-.74,2.17,11.13,11.13,0,0,0-.33,2,4.08,4.08,0,0,0-1.87,1,4.41,4.41,0,0,0-1.19,2,11.43,11.43,0,0,0-.38,2.23,4.35,4.35,0,0,0,.33,2.32.25.25,0,0,0,.33.11.24.24,0,0,0,.11-.32l0-.07a4.32,4.32,0,0,1-.2-2,11.54,11.54,0,0,1,.39-2.11,3.86,3.86,0,0,1,1.07-1.72A3.5,3.5,0,0,1,64,97.94a11.25,11.25,0,0,0,.09,1.93,26.14,26.14,0,0,0,3.12,8.52.26.26,0,1,0,.46-.24,25.5,25.5,0,0,1-3-8.35A11,11,0,0,1,65,95.46a17.09,17.09,0,0,1,.73-2.08c.28-.68.62-1.37.85-2.12a13.35,13.35,0,0,0,.55-2.8,8,8,0,0,1,1.5,1,5.13,5.13,0,0,1,1.42,1.83,6.88,6.88,0,0,1,.42,2.33,5.91,5.91,0,0,1-.09,1.19,3.77,3.77,0,0,1-.14.58,2.31,2.31,0,0,0-.13.71h0a.22.22,0,1,0,.44,0v0a2.69,2.69,0,0,1,.15-.5c.06-.2.12-.41.17-.62A7.09,7.09,0,0,0,71,93.62a7.38,7.38,0,0,0-.37-2.57,5.94,5.94,0,0,0-1.52-2.14,9.4,9.4,0,0,0-1.93-1.35c0-.29,0-.58,0-.87a10.12,10.12,0,0,0-1-4.56L66,81.84l.22.1a10.57,10.57,0,0,1,1.88,1.21,7.5,7.5,0,0,1,1.49,1.64,6.79,6.79,0,0,1,.9,2v0a8.75,8.75,0,0,0,.2,1,2.74,2.74,0,0,0,.42,1,.19.19,0,0,0,.25,0A.18.18,0,0,0,71.43,88.6Z"></path>
      <polygon class="cls-13" points="0 42.16 57.93 67.67 110.57 44.14 57.93 24.57 0 42.16"></polygon>
      <path class="cls-14" d="M58.23,44.92s-.8-11.86,1.59-15.24,2.79-6,8-4.58,14.34,7.47,15.73-5.32c0,0-2.59,4.13-9.36,1.54s-8-2.39-13.53,4.78c0,0-1,1-.6-.8s0-4.35,3.42-6.07,7.47-2.36,7.36-4.88,2.36-.86,3.55-3.65,3.45-8.09,3.32-9.29S77.54-.71,75.15.75,65.33,2.61,64.8,5.66,61,7.65,60.68,9.9s-.53,9.56-1.06,11.29S59.23,29,58.1,29.55,56,25.83,55.24,24.64s.13-5.84-6.24-7-7.56,1.33-12.34-5.17c0,0-3.45,7.85,3.85,10s11.81-1.27,13.14,2,2.52,4.38,1.46,4.12-6-4.38-7.83-4.25-3.19,2.79-5.44,2.79-6.11-.93-8,1.32-1.59,2.26-4.51,3.45-5.7,5.71-4,6,7.7-.8,10-2.66,2.39,1.46,3.85.93,3.06-5.17,6-4.38,4.3-.9,6.5-2.39,4.78,1.2,4.91,2.66.13,13.4-.13,14.2.15,1.42.72,1A3,3,0,0,0,58.23,44.92Z"></path>
      <path class="cls-8" d="M54.31,53.89a1.1,1.1,0,0,0-1.07-.39c-.59.18-.82.65-.72.81a2.22,2.22,0,0,0,.22.23c.15.14.46-.27.47-.27Z"></path>
      <path class="cls-15" d="M54.62,54.6s-.19-.81-.49-.81-.65-.06-.65-.06l-.08.15s.3.52.42.57.35.09.4.12A3.28,3.28,0,0,0,54.62,54.6Z"></path>
      <path class="cls-10" d="M54.59,54.7a.21.21,0,0,0-.11-.31,2.42,2.42,0,0,0-.4-.08s-.48.36-.58.42-.16.05.13.13.27.16.52.13A.77.77,0,0,0,54.59,54.7Z"></path>
      <path class="cls-11" d="M54.08,54.31a4.13,4.13,0,0,0-.35.34c-.14.17-.17.22-.34.14s-.61-.15-.72-.32-.12-.15,0-.35a.84.84,0,0,1,.56-.35.49.49,0,0,1,.57.12A1.28,1.28,0,0,1,54.08,54.31Z"></path>
      <path class="cls-8" d="M51.88,40.21A1.64,1.64,0,0,0,50.23,40c-.79.44-1,1.19-.79,1.4a3.38,3.38,0,0,0,.39.25c.25.16.58-.52.59-.53Z"></path>
      <path class="cls-15" d="M52.54,41.14s-.51-1.11-.95-1a9.23,9.23,0,0,1-.94.11l-.08.24s.59.67.78.69.53,0,.62.05A5.53,5.53,0,0,0,52.54,41.14Z"></path>
      <path class="cls-10" d="M52.54,41.29c0-.11,0-.39-.26-.41a3.31,3.31,0,0,0-.59,0s-.58.67-.7.78-.22.12.21.16.44.14.8,0A1.11,1.11,0,0,0,52.54,41.29Z"></path>
      <path class="cls-11" d="M51.69,40.88a4.62,4.62,0,0,0-.41.6c-.15.29-.17.37-.44.3s-.92,0-1.14-.24-.2-.18-.06-.51a1.27,1.27,0,0,1,.71-.67.72.72,0,0,1,.85,0A2,2,0,0,1,51.69,40.88Z"></path>
      <path class="cls-8" d="M48.61,45.23s-3.41-1.7-5.79.37-2.49,4.74-1.68,5.32a12,12,0,0,0,1.49.6c1,.36,1.6-2.2,1.65-2.24S48.61,45.23,48.61,45.23Z"></path>
      <path class="cls-15" d="M51.52,47.92s-2.53-3.39-4-2.8-3.12,1.08-3.12,1.08l-.1.86s2.49,1.84,3.15,1.79,1.84-.27,2.13-.28A14.39,14.39,0,0,0,51.52,47.92Z"></path>
      <path class="cls-10" d="M51.62,48.43c0-.38-.17-1.34-1.19-1.21a14.07,14.07,0,0,0-2,.43s-1.49,2.7-1.82,3.17-.64.56.84.37,1.6.16,2.72-.52A3.82,3.82,0,0,0,51.62,48.43Z"></path>
      <path class="cls-11" d="M48.42,47.65A18,18,0,0,0,47.49,50c-.31,1.07-.32,1.37-1.3,1.32s-3.16.57-4,0-.84-.47-.6-1.72a4.55,4.55,0,0,1,1.94-2.79,2.52,2.52,0,0,1,2.88-.61A6.55,6.55,0,0,1,48.42,47.65Z"></path>
      <path class="cls-8" d="M60.39,45.94s-2.86-1.68-5,0-2.45,4-1.78,4.51a10,10,0,0,0,1.26.61c.83.37,1.52-1.81,1.57-1.84S60.39,45.94,60.39,45.94Z"></path>
      <path class="cls-15" d="M62.75,48.45s-2-3.09-3.27-2.66-2.78.74-2.78.74l-.13.74s2,1.75,2.62,1.75,1.61-.13,1.86-.11A13.67,13.67,0,0,0,62.75,48.45Z"></path>
      <path class="cls-10" d="M62.81,48.9c0-.32-.07-1.17-1-1.12a12,12,0,0,0-1.77.25s-1.46,2.26-1.77,2.64-.59.46.71.38,1.38.23,2.39-.29A3.37,3.37,0,0,0,62.81,48.9Z"></path>
      <path class="cls-11" d="M60.08,48a14.67,14.67,0,0,0-.95,2c-.33.91-.36,1.16-1.21,1.06s-2.78.31-3.5-.22-.7-.46-.41-1.53A3.92,3.92,0,0,1,55.85,47a2.21,2.21,0,0,1,2.54-.35A5.67,5.67,0,0,1,60.08,48Z"></path>
      <path class="cls-8" d="M56.11,42.84s-2.82-2.17-5.38-.7-3.14,3.9-2.5,4.57a9.91,9.91,0,0,0,1.26.82c.84.51,1.86-1.73,1.92-1.75S56.11,42.84,56.11,42.84Z"></path>
      <path class="cls-15" d="M58.29,45.83s-1.71-3.56-3.14-3.27-3,.42-3,.42l-.24.77S53.8,45.89,54.42,46s1.73.08,2,.13A13.8,13.8,0,0,0,58.29,45.83Z"></path>
      <path class="cls-10" d="M58.28,46.32c0-.35.09-1.26-.87-1.32a12.29,12.29,0,0,0-1.91,0s-1.86,2.21-2.25,2.57-.68.41.71.5,1.44.43,2.59,0A3.52,3.52,0,0,0,58.28,46.32Z"></path>
      <path class="cls-11" d="M55.5,45a15.82,15.82,0,0,0-1.28,2c-.48.93-.55,1.2-1.43,1s-3-.05-3.71-.71-.67-.59-.23-1.68a4.22,4.22,0,0,1,2.28-2.21,2.35,2.35,0,0,1,2.75,0A6.13,6.13,0,0,1,55.5,45Z"></path>
      <path class="cls-8" d="M70.14,52a1.7,1.7,0,0,0,1.56-.77c.42-.85.15-1.6-.14-1.67a2.79,2.79,0,0,0-.49,0c-.31,0-.19.79-.2.81Z"></path>
      <path class="cls-15" d="M69,51.62s1.09.65,1.43.32.74-.66.74-.66L71.12,51A3.57,3.57,0,0,0,70,50.9c-.18.09-.48.29-.56.32A4.11,4.11,0,0,0,69,51.62Z"></path>
      <path class="cls-10" d="M68.94,51.49a.33.33,0,0,0,.47.2,4.1,4.1,0,0,0,.5-.35s.1-.92.14-1.09.11-.23-.27,0-.47.14-.7.46A1.16,1.16,0,0,0,68.94,51.49Z"></path>
      <path class="cls-11" d="M69.91,51.34a4.83,4.83,0,0,0,0-.76c0-.33-.07-.42.21-.52s.81-.52,1.12-.47.28,0,.36.41a1.35,1.35,0,0,1-.22,1,.76.76,0,0,1-.73.5A2,2,0,0,1,69.91,51.34Z"></path>
      <path class="cls-8" d="M43.32,52.64a2.16,2.16,0,0,0,2-.85c.61-1,.33-2,0-2.14a5,5,0,0,0-.61,0c-.41,0-.31,1-.33,1Z"></path>
      <path class="cls-15" d="M41.93,52s1.33.92,1.78.53a11.45,11.45,0,0,1,1-.78l-.07-.32a4.53,4.53,0,0,0-1.37-.27c-.23.11-.63.33-.74.37A5.26,5.26,0,0,0,41.93,52Z"></path>
      <path class="cls-10" d="M41.83,51.84c.06.14.23.47.58.3s.68-.4.68-.4.21-1.17.27-1.38.16-.28-.35,0-.6.14-.93.52A1.48,1.48,0,0,0,41.83,51.84Z"></path>
      <path class="cls-11" d="M43.09,51.74a6.78,6.78,0,0,0,0-1c0-.43,0-.54.31-.64s1.08-.6,1.46-.5.36.07.43.55A1.75,1.75,0,0,1,45,51.43,1,1,0,0,1,44,52,2.49,2.49,0,0,1,43.09,51.74Z"></path>
      <path class="cls-8" d="M52.75,47.25a1.27,1.27,0,0,0,1.27.23c.62-.33.79-.9.64-1.07a2.31,2.31,0,0,0-.29-.2c-.19-.13-.46.39-.47.39Z"></path>
      <path class="cls-15" d="M52.26,46.52s.37.87.71.81.73-.07.73-.07l.07-.18s-.44-.53-.59-.55l-.47-.05A2.58,2.58,0,0,0,52.26,46.52Z"></path>
      <path class="cls-10" d="M52.27,46.4c0,.09,0,.3.19.33a4,4,0,0,0,.46,0s.46-.51.56-.59.16-.09-.17-.13-.34-.11-.61,0A.81.81,0,0,0,52.27,46.4Z"></path>
      <path class="cls-11" d="M52.92,46.74a3.44,3.44,0,0,0,.32-.46c.12-.22.14-.28.35-.22s.72,0,.88.21.15.15,0,.4a1,1,0,0,1-.56.51.58.58,0,0,1-.66,0A1.57,1.57,0,0,1,52.92,46.74Z"></path>
      <path class="cls-8" d="M68.72,45.84s-2.65-2-5-.54S60.89,49,61.5,49.57a8.87,8.87,0,0,0,1.19.73c.78.46,1.68-1.63,1.73-1.65S68.72,45.84,68.72,45.84Z"></path>
      <path class="cls-15" d="M70.79,48.57s-1.65-3.26-3-3S65,46,65,46l-.21.72s1.84,2,2.41,2,1.61,0,1.86.09A13.05,13.05,0,0,0,70.79,48.57Z"></path>
      <path class="cls-10" d="M70.8,49c0-.33,0-1.17-.84-1.21a12.93,12.93,0,0,0-1.77.06s-1.67,2.09-2,2.43-.63.39.66.45,1.34.37,2.39,0A3.33,3.33,0,0,0,70.8,49Z"></path>
      <path class="cls-11" d="M68.19,47.87a15.15,15.15,0,0,0-1.14,1.87c-.43.87-.48,1.11-1.3.92s-2.78,0-3.45-.58-.63-.53-.24-1.55a3.91,3.91,0,0,1,2.06-2.09,2.2,2.2,0,0,1,2.55-.08A5.58,5.58,0,0,1,68.19,47.87Z"></path>
      <path class="cls-8" d="M49.46,50.25s1.92,1.08,3.36,0,1.57-2.67,1.12-3a5.39,5.39,0,0,0-.85-.39c-.55-.24-1,1.22-1,1.24S49.46,50.25,49.46,50.25Z"></path>
      <path class="cls-15" d="M47.86,48.61s1.36,2,2.21,1.73,1.83-.53,1.83-.53l.08-.49s-1.38-1.14-1.76-1.13-1.07.11-1.24.1A8,8,0,0,0,47.86,48.61Z"></path>
      <path class="cls-10" d="M47.82,48.31c0,.22.06.78.65.74a8.92,8.92,0,0,0,1.17-.19s.94-1.52,1.14-1.78.39-.31-.47-.24-.92-.14-1.59.22A2.19,2.19,0,0,0,47.82,48.31Z"></path>
      <path class="cls-11" d="M49.64,48.86a10,10,0,0,0,.61-1.33c.2-.62.22-.79.78-.73s1.85-.24,2.34.1.46.3.29,1a2.65,2.65,0,0,1-1.2,1.56,1.46,1.46,0,0,1-1.68.27A3.78,3.78,0,0,1,49.64,48.86Z"></path>
    </g>
  </g>
</svg>
