<?xml version="1.0" encoding="UTF-8"?>
<svg xmlns="http://www.w3.org/2000/svg" viewBox="0 0 112.9 266.49">
  <defs>
    <style>.cls-1{fill:#a0cae7;}.cls-2{fill:#d0e6f5;}.cls-3{fill:#b8d8ee;}.cls-4{fill:#85563a;}.cls-5{fill:#8e6848;}.cls-6{fill:#713e21;}.cls-7{fill:#9b714f;}.cls-8{fill:#3d271f;}.cls-9{fill:#69391e;}.cls-10{fill:#6b482f;}.cls-11{fill:#5c3624;}.cls-12{fill:#795135;}.cls-13{fill:#9a734f;}</style>
  </defs>
  <g id="Слой_2" data-name="Слой 2">
    <g id="Слой_1-2" data-name="Слой 1">
      <path class="cls-1" d="M39.3,52.29s-12.47,12.6-6.36,19.39c6,6.62,15.35.59,11.93-8.41C41.8,55.19,39.3,52.29,39.3,52.29Z"></path>
      <path class="cls-2" d="M35.18,64.11c.43-1.3,1.4-4.27,1.79-5.34a27.59,27.59,0,0,1,1.69-3.48s1.19-2.29-1.84,1-4.92,9.32-4,9.67C33.56,66.23,34.76,65.38,35.18,64.11Z"></path>
      <path class="cls-3" d="M42.14,68.46c-.36,1.23-.19,2.37.39,2.54a2.26,2.26,0,0,0,2.27-1.68c.37-1.46-.37-2.65-.95-2.78S42.51,67.23,42.14,68.46Z"></path>
      <path class="cls-1" d="M60.08,52.29s-12.46,12.6-6.36,19.39c6,6.62,15.36.59,11.93-8.41C62.58,55.19,60.08,52.29,60.08,52.29Z"></path>
      <path class="cls-2" d="M56,64.11c.43-1.3,1.4-4.27,1.78-5.34a29.15,29.15,0,0,1,1.69-3.48s1.2-2.29-1.84,1-4.91,9.32-4,9.67C54.35,66.23,55.55,65.38,56,64.11Z"></path>
      <path class="cls-3" d="M62.93,68.46c-.36,1.23-.19,2.37.39,2.54a2.24,2.24,0,0,0,2.26-1.68c.37-1.46-.36-2.65-.94-2.78S63.3,67.23,62.93,68.46Z"></path>
      <path class="cls-1" d="M80.87,52.29s-12.46,12.6-6.36,19.39c5.95,6.62,15.35.59,11.93-8.41C83.37,55.19,80.87,52.29,80.87,52.29Z"></path>
      <path class="cls-2" d="M76.76,64.11c.43-1.3,1.4-4.27,1.78-5.34a29.15,29.15,0,0,1,1.69-3.48s1.19-2.29-1.84,1-4.92,9.32-4,9.67C75.13,66.23,76.33,65.38,76.76,64.11Z"></path>
      <path class="cls-3" d="M83.72,68.46c-.37,1.23-.19,2.37.39,2.54a2.24,2.24,0,0,0,2.26-1.68c.37-1.46-.36-2.65-.94-2.78S84.08,67.23,83.72,68.46Z"></path>
      <path class="cls-1" d="M52.05,24.66s-12.47,12.6-6.37,19.39c6,6.62,15.36.59,11.94-8.41C54.55,27.56,52.05,24.66,52.05,24.66Z"></path>
      <path class="cls-2" d="M47.93,36.48c.43-1.3,1.4-4.27,1.78-5.34a29.15,29.15,0,0,1,1.69-3.48s1.2-2.29-1.83,1-4.92,9.32-4,9.67C46.31,38.6,47.51,37.75,47.93,36.48Z"></path>
      <path class="cls-3" d="M54.89,40.83c-.36,1.23-.19,2.37.39,2.54a2.26,2.26,0,0,0,2.27-1.68c.37-1.46-.37-2.65-.95-2.78S55.26,39.6,54.89,40.83Z"></path>
      <path class="cls-1" d="M72.83,24.66s-12.46,12.6-6.36,19.39c6,6.62,15.35.59,11.93-8.41C75.33,27.56,72.83,24.66,72.83,24.66Z"></path>
      <path class="cls-2" d="M68.72,36.48c.43-1.3,1.4-4.27,1.78-5.34a29.15,29.15,0,0,1,1.69-3.48s1.19-2.29-1.84,1-4.91,9.32-4,9.67C67.1,38.6,68.29,37.75,68.72,36.48Z"></path>
      <path class="cls-3" d="M75.68,40.83c-.36,1.23-.19,2.37.39,2.54a2.24,2.24,0,0,0,2.26-1.68c.37-1.46-.36-2.65-.94-2.78S76.05,39.6,75.68,40.83Z"></path>
      <path class="cls-1" d="M63.53,0S51.07,12.6,57.17,19.39C63.12,26,72.52,20,69.1,11,66,2.9,63.53,0,63.53,0Z"></path>
      <path class="cls-2" d="M59.42,11.82c.43-1.3,1.4-4.27,1.78-5.34A29.15,29.15,0,0,1,62.89,3S64.08.71,61.05,4s-4.91,9.31-4,9.66C57.79,14,59,13.1,59.42,11.82Z"></path>
      <path class="cls-3" d="M66.38,16.17c-.36,1.24-.19,2.37.39,2.54A2.23,2.23,0,0,0,69,17c.37-1.46-.36-2.65-.94-2.77S66.75,14.94,66.38,16.17Z"></path>
      <polygon class="cls-4" points="7.92 242.38 59.15 266.49 106.54 242.5 57.27 221.62 7.92 242.38"></polygon>
      <polygon class="cls-4" points="0 173.95 59.15 198.66 112.9 175.87 59.15 156.91 0 173.95"></polygon>
      <path class="cls-5" d="M59.15,198.66v31.05s16.35-12.07,23-12.67,19.59,24.85,24.41,25.46l6.36-66.63Z"></path>
      <path class="cls-6" d="M4.33,211l3.59,31.37,51.23,24.11V229.71s-28.28-12.07-31.3-16.29S4.33,211,4.33,211Z"></path>
      <path class="cls-7" d="M0,174,4.33,211s5.52.44,11.46.6c7.44.2,14.47,5,20.1,10.66,6.54,6.54,23.26,7.44,23.26,7.44V198.66Z"></path>
      <path class="cls-8" d="M39.42,233.64a2.42,2.42,0,0,0-.11-.92h0s-.39-1-1.31-1.06-1.46.52-1.4.8a2.19,2.19,0,0,0,.2.42s0,0,0,0a9.62,9.62,0,0,0,.77.64.54.54,0,0,0,.14.11l.15.11c.36.25.31.35.69.43a1.16,1.16,0,0,0,.75-.19.76.76,0,0,0,.07-.13h0v0A.3.3,0,0,0,39.42,233.64Z"></path>
      <path class="cls-8" d="M17.07,229.37a4.49,4.49,0,0,0-1.53.83h0s-1.54,1.42-.94,3,1.94,2.21,2.39,1.91a5.79,5.79,0,0,0,.6-.65s0,0,0-.06a15,15,0,0,0,.58-1.81,1.08,1.08,0,0,0,.1-.31c0-.09,0-.19.09-.35.19-.8.39-.79.26-1.5a2.09,2.09,0,0,0-.86-1.18,1.06,1.06,0,0,0-.29,0h0A.47.47,0,0,0,17.07,229.37Z"></path>
      <path class="cls-8" d="M53.18,250.23a11.44,11.44,0,0,0-2-3.92h0s-3.4-4-7.54-2.66-5.73,4.66-5,5.83A15.37,15.37,0,0,0,40.28,251s.09,0,.13,0c1.22.79,3.48,1.16,4.48,1.66a2.38,2.38,0,0,0,.79.26l.87.26c2,.56,1.94,1.06,3.73.81a5.29,5.29,0,0,0,3-2,3.28,3.28,0,0,0,.14-.71h0l0-.07A1.28,1.28,0,0,0,53.18,250.23Z"></path>
      <path class="cls-8" d="M26.4,236.61a8.85,8.85,0,0,0-1.91,2.75h0s-1.44,3.75,1,6,5.24,2.14,5.76,1.22A12.67,12.67,0,0,0,31.7,245s0-.06,0-.1a29,29,0,0,0-.54-3.62,1.81,1.81,0,0,0-.11-.62c0-.18-.07-.37-.14-.68-.36-1.54,0-1.7-.83-2.8a4.07,4.07,0,0,0-2.51-1.3A2.2,2.2,0,0,0,27,236h0l0,0A1,1,0,0,0,26.4,236.61Z"></path>
      <path class="cls-9" d="M59.15,229.71S70.67,213.42,83.94,213,110.28,203,110.28,203l-3.74,39.53-47.39,24Z"></path>
      <path class="cls-8" d="M76.05,235.91a11.35,11.35,0,0,0-4.12,1.35v0s-4.41,2.77-3.69,7,3.75,6.29,5,5.74A14,14,0,0,0,75,248.68s0-.1,0-.13c.94-1.08,1.64-3.25,2.26-4.16a2.2,2.2,0,0,0,.37-.74c.1-.21.21-.43.38-.81.83-1.86,1.32-1.75,1.33-3.54A5.23,5.23,0,0,0,77.8,236a2.86,2.86,0,0,0-.67-.23v0h-.08A1.23,1.23,0,0,0,76.05,235.91Z"></path>
      <path class="cls-8" d="M97.82,234.63a3.45,3.45,0,0,0-1.28-.32h0a2.36,2.36,0,0,0-2.09,1.22c-.5,1.21,0,2.23.36,2.29a4.58,4.58,0,0,0,.67-.05s0,0,0,0a11.1,11.1,0,0,0,1.26-.71.51.51,0,0,0,.21-.13l.23-.15c.52-.34.63-.24.92-.7a1.58,1.58,0,0,0,.12-1.1.77.77,0,0,0-.13-.17h0A.39.39,0,0,0,97.82,234.63Z"></path>
      <path class="cls-8" d="M93.89,223.21A8.71,8.71,0,0,0,91,221.5v0s-3.88-1.16-6,1.45-1.75,5.42-.79,5.88a12.79,12.79,0,0,0,1.67.35s.06,0,.1,0a29.56,29.56,0,0,0,3.59-.81,1.9,1.9,0,0,0,.62-.16l.67-.2c1.52-.47,1.7-.13,2.75-1a4.09,4.09,0,0,0,1.12-2.61,3.08,3.08,0,0,0-.21-.51h0l0,0A1,1,0,0,0,93.89,223.21Z"></path>
      <path class="cls-10" d="M55.56,184.08A1.63,1.63,0,0,0,54,183.5c-.87.27-1.22,1-1.07,1.21a3.14,3.14,0,0,0,.32.33c.22.21.68-.39.7-.4S55.56,184.08,55.56,184.08Z"></path>
      <path class="cls-11" d="M56,185.13s-.27-1.19-.72-1.2-.95-.08-.95-.08l-.13.21s.45.78.63.84l.59.18A4.86,4.86,0,0,0,56,185.13Z"></path>
      <path class="cls-12" d="M56,185.28c0-.11.11-.38-.18-.46a3.22,3.22,0,0,0-.58-.12s-.71.54-.85.62-.23.07.18.2.41.22.78.18A1.12,1.12,0,0,0,56,185.28Z"></path>
      <path class="cls-13" d="M55.22,184.7a5,5,0,0,0-.52.51c-.2.24-.24.32-.49.19s-.91-.22-1.07-.46-.17-.23,0-.53a1.33,1.33,0,0,1,.84-.51.74.74,0,0,1,.83.18A2,2,0,0,1,55.22,184.7Z"></path>
      <path class="cls-10" d="M52,163.93a2.42,2.42,0,0,0-2.44-.35c-1.16.66-1.44,1.75-1.16,2.06A5.07,5.07,0,0,0,49,166c.38.23.85-.77.88-.78Z"></path>
      <path class="cls-11" d="M53,165.3s-.76-1.62-1.4-1.5-1.39.17-1.39.17l-.12.35s.87,1,1.15,1,.79,0,.91.08A6.88,6.88,0,0,0,53,165.3Z"></path>
      <path class="cls-12" d="M53,165.52c0-.16,0-.57-.39-.6a5.45,5.45,0,0,0-.87,0s-.85,1-1,1.15-.31.18.32.23.65.21,1.17,0A1.59,1.59,0,0,0,53,165.52Z"></path>
      <path class="cls-13" d="M51.69,164.92a9.73,9.73,0,0,0-.59.89c-.22.42-.25.54-.65.44s-1.36,0-1.67-.35-.31-.27-.1-.76a1.93,1.93,0,0,1,1-1,1.07,1.07,0,0,1,1.24,0A2.82,2.82,0,0,1,51.69,164.92Z"></path>
      <path class="cls-10" d="M47.17,171.33s-5-2.51-8.53.55-3.67,7-2.47,7.83a17.77,17.77,0,0,0,2.2.88c1.44.53,2.34-3.24,2.43-3.29S47.17,171.33,47.17,171.33Z"></path>
      <path class="cls-11" d="M51.45,175.28s-3.72-5-5.84-4.11a48.1,48.1,0,0,1-4.6,1.58L40.87,174s3.66,2.72,4.63,2.64,2.71-.4,3.14-.41A21.3,21.3,0,0,0,51.45,175.28Z"></path>
      <path class="cls-12" d="M51.59,176c0-.55-.25-2-1.75-1.78a22.18,22.18,0,0,0-3,.63s-2.2,4-2.68,4.67-.94.83,1.24.55,2.36.23,4-.77A5.59,5.59,0,0,0,51.59,176Z"></path>
      <path class="cls-13" d="M46.89,174.89a25.24,25.24,0,0,0-1.37,3.46c-.46,1.58-.48,2-1.91,1.94s-4.66.85-6,0-1.23-.69-.87-2.52,1.2-2.69,2.85-4.12a3.73,3.73,0,0,1,4.25-.89A9.72,9.72,0,0,1,46.89,174.89Z"></path>
      <path class="cls-10" d="M64.51,172.38s-4.2-2.48-7.43,0-3.61,5.84-2.62,6.65a13.53,13.53,0,0,0,1.85.89c1.23.56,2.23-2.66,2.31-2.7S64.51,172.38,64.51,172.38Z"></path>
      <path class="cls-11" d="M68,176.07s-2.93-4.55-4.82-3.92-4.09,1.09-4.09,1.09l-.2,1.09s3,2.59,3.86,2.57,2.38-.18,2.75-.16A19.22,19.22,0,0,0,68,176.07Z"></path>
      <path class="cls-12" d="M68.07,176.74c0-.48-.1-1.73-1.41-1.65a19.69,19.69,0,0,0-2.61.36s-2.14,3.33-2.6,3.9-.87.66,1,.55,2,.34,3.52-.43A4.87,4.87,0,0,0,68.07,176.74Z"></path>
      <path class="cls-13" d="M64.05,175.45a22.42,22.42,0,0,0-1.4,2.93c-.48,1.34-.53,1.72-1.77,1.57s-4.1.45-5.16-.33-1-.68-.61-2.25,1.21-2.27,2.72-3.4a3.27,3.27,0,0,1,3.75-.52A8.35,8.35,0,0,1,64.05,175.45Z"></path>
      <path class="cls-10" d="M75.65,167.93s-4.15-3.2-7.91-1-4.63,5.74-3.68,6.73a15.83,15.83,0,0,0,1.85,1.2c1.23.75,2.74-2.54,2.82-2.57S75.65,167.93,75.65,167.93Z"></path>
      <path class="cls-11" d="M78.86,172.34s-2.51-5.25-4.61-4.83-4.5.62-4.5.62l-.36,1.13s2.87,3.16,3.77,3.26,2.56.12,3,.2A20.74,20.74,0,0,0,78.86,172.34Z"></path>
      <path class="cls-12" d="M78.86,173.06c0-.52.12-1.86-1.29-1.95a20.75,20.75,0,0,0-2.82,0s-2.73,3.26-3.3,3.8-1,.59,1,.73,2.12.63,3.81,0A5.23,5.23,0,0,0,78.86,173.06Z"></path>
      <path class="cls-13" d="M74.75,171.15a23.93,23.93,0,0,0-1.88,2.93c-.7,1.36-.8,1.76-2.1,1.43s-4.43-.06-5.46-1-1-.85-.34-2.47,1.59-2.25,3.35-3.26a3.52,3.52,0,0,1,4.06,0A9,9,0,0,1,74.75,171.15Z"></path>
      <path class="cls-10" d="M78.87,181.35a2.52,2.52,0,0,0,2.3-1.14c.62-1.25.22-2.36-.21-2.46a4.31,4.31,0,0,0-.71,0c-.47,0-.28,1.17-.3,1.19Z"></path>
      <path class="cls-11" d="M77.23,180.74s1.6,1,2.09.47a14.45,14.45,0,0,1,1.1-1l-.11-.37a5,5,0,0,0-1.59-.19c-.26.13-.71.42-.83.47A7.19,7.19,0,0,0,77.23,180.74Z"></path>
      <path class="cls-12" d="M77.1,180.55c.08.15.3.52.69.29a8.11,8.11,0,0,0,.75-.51s.15-1.36.2-1.61.17-.34-.41,0-.68.21-1,.68A1.7,1.7,0,0,0,77.1,180.55Z"></path>
      <path class="cls-13" d="M78.54,180.33a7.29,7.29,0,0,0,0-1.12c-.06-.49-.1-.62.3-.76s1.2-.78,1.65-.7.42.05.53.6a2,2,0,0,1-.31,1.47,1.12,1.12,0,0,1-1.08.74A2.9,2.9,0,0,1,78.54,180.33Z"></path>
      <path class="cls-10" d="M39.37,182.24s2.13.29,3-1.25.48-3-.06-3.15a7.27,7.27,0,0,0-.91-.05c-.59,0-.45,1.47-.48,1.5S39.37,182.24,39.37,182.24Z"></path>
      <path class="cls-11" d="M37.33,181.33s2,1.35,2.63.77S41.43,181,41.43,181l-.1-.48a6.55,6.55,0,0,0-2-.39c-.34.15-.93.48-1.09.53A8.17,8.17,0,0,0,37.33,181.33Z"></path>
      <path class="cls-12" d="M37.18,181.07c.09.19.34.69.86.43a7.41,7.41,0,0,0,1-.59s.31-1.72.41-2,.23-.41-.52,0-.89.2-1.37.77A2.2,2.2,0,0,0,37.18,181.07Z"></path>
      <path class="cls-13" d="M39,180.91a9.38,9.38,0,0,0,.08-1.43c0-.63-.08-.79.45-.94s1.59-.88,2.16-.74.53.11.63.81a2.62,2.62,0,0,1-.53,1.85,1.42,1.42,0,0,1-1.44.84A3.69,3.69,0,0,1,39,180.91Z"></path>
      <path class="cls-10" d="M53.26,174.31a1.85,1.85,0,0,0,1.87.33c.92-.48,1.17-1.32.95-1.57a3.09,3.09,0,0,0-.43-.3c-.29-.19-.68.57-.7.58Z"></path>
      <path class="cls-11" d="M52.54,173.23s.55,1.27,1.05,1.2,1.08-.11,1.08-.11l.09-.26s-.65-.78-.86-.82-.61-.05-.7-.07A5.17,5.17,0,0,0,52.54,173.23Z"></path>
      <path class="cls-12" d="M52.55,173.06c0,.12,0,.44.29.48a5.16,5.16,0,0,0,.67,0s.68-.74.82-.87.25-.13-.24-.18-.5-.17-.91,0A1.28,1.28,0,0,0,52.55,173.06Z"></path>
      <path class="cls-13" d="M53.51,173.55a6.3,6.3,0,0,0,.48-.67c.18-.32.2-.41.51-.32s1,.06,1.29.3.23.22.05.59a1.46,1.46,0,0,1-.83.74.82.82,0,0,1-1,0A2.2,2.2,0,0,1,53.51,173.55Z"></path>
      <path class="cls-10" d="M70.15,181.45s4.71,1.14,7.08-2.11,1.76-6.59.58-7.08a14,14,0,0,0-2-.31c-1.32-.18-1.35,3.18-1.42,3.24S70.15,181.45,70.15,181.45Z"></path>
      <path class="cls-11" d="M65.78,178.93s4.1,3.49,5.72,2.34,3.57-2.21,3.57-2.21l-.13-1.1s-3.61-1.58-4.41-1.33-2.21.86-2.57,1A18.69,18.69,0,0,0,65.78,178.93Z"></path>
      <path class="cls-12" d="M65.51,178.32c.15.46.6,1.62,1.82,1.17a19.45,19.45,0,0,0,2.37-1.1s1.08-3.78,1.36-4.45.63-.89-1.15-.23-2,.26-3.23,1.42A4.88,4.88,0,0,0,65.51,178.32Z"></path>
      <path class="cls-13" d="M69.7,178.39a22.71,22.71,0,0,0,.49-3.19c.08-1.41,0-1.78,1.24-2s3.76-1.61,5-1.17,1.17.35,1.22,2-.49,2.49-1.6,4a3.24,3.24,0,0,1-3.41,1.57A8.42,8.42,0,0,1,69.7,178.39Z"></path>
      <path class="cls-10" d="M48.42,178.72s2.83,1.59,4.94-.07,2.32-3.93,1.65-4.46a11,11,0,0,0-1.24-.57c-.82-.35-1.45,1.81-1.5,1.84S48.42,178.72,48.42,178.72Z"></path>
      <path class="cls-11" d="M46.06,176.31s2,3,3.26,2.54,2.7-.78,2.7-.78l.12-.72s-2-1.68-2.6-1.66-1.58.15-1.83.14A12.73,12.73,0,0,0,46.06,176.31Z"></path>
      <path class="cls-12" d="M46,175.87c0,.32.09,1.15,1,1.08a12.33,12.33,0,0,0,1.72-.28s1.39-2.24,1.69-2.62.56-.45-.71-.35-1.35-.2-2.33.33A3.24,3.24,0,0,0,46,175.87Z"></path>
      <path class="cls-13" d="M48.68,176.67a14.75,14.75,0,0,0,.9-2c.3-.9.33-1.15,1.15-1.07s2.72-.35,3.44.16.69.43.43,1.48a3.84,3.84,0,0,1-1.76,2.29,2.15,2.15,0,0,1-2.48.4A5.59,5.59,0,0,1,48.68,176.67Z"></path>
    </g>
  </g>
</svg>
