<?xml version="1.0" encoding="UTF-8"?>
<svg xmlns="http://www.w3.org/2000/svg" xmlns:xlink="http://www.w3.org/1999/xlink" viewBox="0 0 152.93 187.45">
  <defs>
    <style>.cls-1{fill:none;}.cls-2{fill:#8e6848;}.cls-3{clip-path:url(#clip-path);}.cls-4{fill:url(#Безымянный_градиент_2);}.cls-5{fill:#713e21;}.cls-6{fill:#3d271f;}.cls-7{fill:#69391e;}.cls-8{fill:#6b472f;}.cls-9{fill:#5c3624;}.cls-10{fill:#795135;}.cls-11{fill:#9a734f;}.cls-12{fill:#f9dec0;}.cls-13{fill:#85563a;}.cls-14{fill:#609534;}.cls-15{fill:#a0ca30;}.cls-16{fill:#78a731;}.cls-17{fill:#abcf34;}.cls-18{fill:#93b74a;}.cls-19{fill:#78a830;}.cls-20{fill:#6b482f;}</style>
    <clipPath id="clip-path">
      <polygon class="cls-1" points="10.73 147.63 80.12 180.29 144.32 147.78 77.58 119.51 10.73 147.63"></polygon>
    </clipPath>
    <linearGradient id="Безымянный_градиент_2" x1="-630.95" y1="-2973.51" x2="-627.06" y2="-2973.51" gradientTransform="matrix(34.36, 0, 0, -34.36, 21671.23, -102009.43)" gradientUnits="userSpaceOnUse">
      <stop offset="0" stop-color="#9b714e"></stop>
      <stop offset="0.38" stop-color="#9b714e"></stop>
      <stop offset="0.89" stop-color="#764528"></stop>
      <stop offset="1" stop-color="#6e3c20"></stop>
    </linearGradient>
  </defs>
  <g id="Слой_2" data-name="Слой 2">
    <g id="Слой_1-2" data-name="Слой 1">
      <path class="cls-2" d="M80.12,88.41s13.37,15.69,23.69,16.34,45.57-10.51,45.57-10.51l3.55-36.7L80.12,31.85Z"></path>
      <path class="cls-2" d="M0,54.93l7.26,47.88s25.81,3.87,30.32,2.59,25.16-9,31-9,11.57-8,11.57-8V31.85Z"></path>
      <g class="cls-3">
        <rect class="cls-4" x="43.59" y="81.57" width="67.87" height="136.66" transform="translate(-76.32 219.26) rotate(-86.92)"></rect>
      </g>
      <path class="cls-5" d="M10.73,147.63,7.26,102.81s32.9-.64,41.94-5.16,30.92-9.24,30.92-9.24l-2.54,31.1Z"></path>
      <path class="cls-6" d="M57.62,105.6a11.57,11.57,0,0,0-3.94-2.32l0,0s-5.25-1.57-8.12,2-2.37,7.34-1.07,8a15.5,15.5,0,0,0,2.27.47l.12-.06c1.52,0,3.71-1,4.88-1.1a2.72,2.72,0,0,0,.84-.22c.23-.06.49-.13.9-.27,2.06-.63,2.31-.17,3.73-1.41a5.54,5.54,0,0,0,1.51-3.54l-.29-.69h0l-.06,0a1.35,1.35,0,0,0-.81-.7"></path>
      <path class="cls-6" d="M29.45,110.22a15,15,0,0,0-5.58,1.84v0s-6,3.74-5,9.5S24,130,25.65,129.3A19.33,19.33,0,0,0,28,127.52l0-.18c1.28-1.46,2.22-4.39,3.07-5.63a2.91,2.91,0,0,0,.49-1c.15-.28.29-.58.52-1.1,1.12-2.52,1.78-2.37,1.8-4.8s-2.14-4.45-2.14-4.45a5,5,0,0,0-.91-.31v0h-.1a1.73,1.73,0,0,0-1.36.19"></path>
      <path class="cls-7" d="M80.12,88.41l-2.54,31.1,66.74,28.28,5.06-53.55s-20.81-2.4-29.84-1.11-24.76,5.16-29.49,2.59a62.58,62.58,0,0,1-9.93-7.31"></path>
      <path class="cls-6" d="M54.7,120.36a4.55,4.55,0,0,0-1.74-.43h0s-2.15,0-2.83,1.64-.07,3,.49,3.11l.9-.07,0,0a16.57,16.57,0,0,0,1.71-1l.28-.18.32-.2c.7-.47.84-.32,1.24-1a2.12,2.12,0,0,0,.17-1.49l-.18-.23h0Z"></path>
      <path class="cls-6" d="M120.09,107a3.16,3.16,0,0,0-.15-1.24h0s-.53-1.4-1.77-1.43-2,.7-1.9,1.08l.28.57,0,0,1,.88.19.14.2.15c.48.34.42.47.93.57a1.5,1.5,0,0,0,1-.25l.1-.18h0v0Z"></path>
      <path class="cls-6" d="M138.73,129.45a15.24,15.24,0,0,0-2.64-5.3l0,0s-4.6-5.42-10.21-3.6-7.77,6.3-6.79,7.89a20.94,20.94,0,0,0,2.12,2.12l.19,0c1.65,1.07,4.71,1.57,6.07,2.24a3.25,3.25,0,0,0,1.07.36c.3.1.62.2,1.16.35,2.69.76,2.64,1.44,5.06,1.1s4.14-2.78,4.14-2.78a5.16,5.16,0,0,0,.18-1h0l0-.1a1.78,1.78,0,0,0-.39-1.33"></path>
      <path class="cls-6" d="M102.46,111a11.59,11.59,0,0,0-2.59,3.73l0,0s-1.95,5.09,1.34,8.19,7.1,2.89,7.81,1.65a16.07,16.07,0,0,0,.63-2.21l0-.13c.1-1.5-.67-3.74-.72-4.91a2.73,2.73,0,0,0-.16-.85c0-.23-.1-.49-.19-.91-.48-2.08,0-2.3-1.13-3.8A5.48,5.48,0,0,0,104,110l-.71.23h0l-.06,0a1.32,1.32,0,0,0-.75.75"></path>
      <path class="cls-8" d="M102.72,149a2.17,2.17,0,0,0,2.17-.58c.75-1,.6-2,.25-2.14l-.62-.12c-.4-.07-.44,1-.46,1Z"></path>
      <path class="cls-9" d="M101.41,148.22s1.21,1.09,1.72.76,1.11-.64,1.11-.64l0-.34-1.33-.44-.79.26Z"></path>
      <path class="cls-10" d="M101.33,148c0,.14.17.5.55.37a7.25,7.25,0,0,0,.73-.31l.45-1.35c.09-.2.2-.26-.35-.08s-.62.07-1,.41a1.47,1.47,0,0,0-.39,1"></path>
      <path class="cls-11" d="M102.61,148.08a7.11,7.11,0,0,0,.18-1c0-.43,0-.54.39-.59s1.17-.47,1.54-.32.35.12.35.61a1.74,1.74,0,0,1-.53,1.21,1,1,0,0,1-1.05.45,2.58,2.58,0,0,1-.88-.4"></path>
      <path class="cls-8" d="M87.88,140.51s3.32.18,4.51-2.31.35-4.67-.5-4.85a10.24,10.24,0,0,0-1.41,0c-.91.05-.51,2.32-.54,2.36Z"></path>
      <path class="cls-9" d="M84.62,139.37s3.2,1.83,4.14.86,2.13-1.95,2.13-1.95l-.22-.72s-2.63-.62-3.14-.34-1.39.86-1.61,1Z"></path>
      <path class="cls-10" d="M84.36,139c.15.29.6,1,1.37.56a13.64,13.64,0,0,0,1.46-1.05s.25-2.68.36-3.17.31-.68-.81,0-1.33.43-2,1.36a3.35,3.35,0,0,0-.38,2.3"></path>
      <path class="cls-11" d="M87.19,138.5a14.52,14.52,0,0,0-.07-2.2c-.13-1-.22-1.21.58-1.51s2.33-1.56,3.23-1.42.83.09,1.07,1.17a4,4,0,0,1-.58,2.91,2.21,2.21,0,0,1-2.1,1.49,5.73,5.73,0,0,1-2.13-.44"></path>
      <path class="cls-8" d="M74.05,151.3s2.59,2,4.91.6,2.84-3.59,2.25-4.2a8.7,8.7,0,0,0-1.15-.73c-.77-.46-1.69,1.59-1.74,1.61Z"></path>
      <path class="cls-9" d="M72,148.59s1.59,3.23,2.89,3a26.39,26.39,0,0,1,2.79-.41l.22-.71s-1.8-1.94-2.36-2-1.59-.07-1.83-.11Z"></path>
      <path class="cls-10" d="M72,148.14c0,.32-.07,1.16.81,1.21a13.59,13.59,0,0,0,1.75,0l2-2.37c.35-.34.62-.37-.65-.45s-1.32-.38-2.37,0A3.29,3.29,0,0,0,72,148.14"></path>
      <path class="cls-11" d="M74.59,149.3a14,14,0,0,0,1.15-1.82c.43-.85.49-1.1,1.3-.9s2.74,0,3.39.61.62.53.23,1.54a4,4,0,0,1-2.07,2,2.16,2.16,0,0,1-2.51,0,5.56,5.56,0,0,1-1.49-1.52"></path>
      <path class="cls-8" d="M68.09,142.36s1.33-2.11.13-3.79-2.93-1.93-3.35-1.43l-.49.93c-.3.61,1.33,1.17,1.35,1.22Z"></path>
      <path class="cls-9" d="M66.15,144.08s2.36-1.42,2.07-2.4-.49-2.1-.49-2.1l-.55-.12s-1.37,1.5-1.37,1.94.06,1.2,0,1.4Z"></path>
      <path class="cls-10" d="M65.81,144.11c.25,0,.89,0,.86-.7a10.21,10.21,0,0,0-.14-1.33l-2-1.39c-.28-.24-.32-.45-.29.53s-.21,1,.16,1.8a2.49,2.49,0,0,0,1.36,1.09"></path>
      <path class="cls-11" d="M66.52,142.08a11.34,11.34,0,0,0-1.46-.75c-.68-.28-.87-.3-.77-.94s-.18-2.09.24-2.62.36-.51,1.16-.28a3,3,0,0,1,1.69,1.44,1.66,1.66,0,0,1,.2,1.92,4.19,4.19,0,0,1-1.06,1.23"></path>
      <path class="cls-8" d="M56.33,145.16a1.62,1.62,0,0,0,.53-1.55c-.28-.85-1-1.18-1.2-1l-.32.33.4.67Z"></path>
      <path class="cls-9" d="M55.3,145.62s1.16-.29,1.17-.73a9,9,0,0,1,.06-.93l-.21-.12-.81.62-.17.59Z"></path>
      <path class="cls-10" d="M55.16,145.59l.44-.18.12-.57-.63-.82c-.09-.14-.08-.23-.19.18s-.22.4-.16.76a1.08,1.08,0,0,0,.42.63"></path>
      <path class="cls-11" d="M55.71,144.84l-.51-.5-.2-.49.44-1,.51,0a1.3,1.3,0,0,1,.52.81.71.71,0,0,1-.16.82Z"></path>
      <path class="cls-8" d="M52.72,151.65s2.27-3.67.18-6.57-5.07-3.31-5.81-2.45a11.81,11.81,0,0,0-.83,1.62c-.51,1.06,2.31,2,2.34,2.09Z"></path>
      <path class="cls-9" d="M49.38,154.64s4.08-2.5,3.57-4.18-.89-3.63-.89-3.63l-1-.2s-2.35,2.61-2.35,3.36.11,2.1.08,2.43Z"></path>
      <path class="cls-10" d="M48.79,154.69c.43,0,1.53-.05,1.49-1.21a16.37,16.37,0,0,0-.27-2.31s-2.89-2-3.38-2.38-.57-.78-.51.91-.34,1.79.3,3.12a4.31,4.31,0,0,0,2.37,1.87"></path>
      <path class="cls-11" d="M50,151.17a20.66,20.66,0,0,0-2.55-1.29c-1.18-.46-1.51-.51-1.35-1.61s-.31-3.62.4-4.55.62-.89,2-.48,2,1.11,2.94,2.47a2.87,2.87,0,0,1,.38,3.32A7.23,7.23,0,0,1,50,151.17"></path>
      <path class="cls-12" d="M83.42,75.17a9.44,9.44,0,0,1-.55,4.53c-.48,1.41-1.07,2.74-1.53,4.11s-.8,2.8-1.2,4.2a33.29,33.29,0,0,1-1.34,4.18,30.76,30.76,0,0,1-2.33,3.73,18.84,18.84,0,0,0-1.92,3.9,18.53,18.53,0,0,0-1,8.61,19.2,19.2,0,0,1,.85-8.64,19.46,19.46,0,0,1,1.85-4,31.79,31.79,0,0,0,2.23-3.74,31.84,31.84,0,0,0,1.23-4.17l1.1-4.24c.4-1.43,1-2.78,1.33-4.17a7.86,7.86,0,0,0,.17-4.1.55.55,0,1,1,1.06-.28s0,0,0,0Z"></path>
      <path class="cls-12" d="M83,76.06a23.85,23.85,0,0,1,0,4,24.75,24.75,0,0,1-.5,3.91,5.3,5.3,0,0,1-.74,1.91l-1.21,1.54c-.81,1-1.67,2-2.59,2.94A24.21,24.21,0,0,1,71.69,95a30.32,30.32,0,0,0-3.34,2,6.45,6.45,0,0,0-2.45,2.94,6.5,6.5,0,0,1,2.39-3,34.51,34.51,0,0,1,3.31-2.07,24,24,0,0,0,6.08-4.76c.88-1,1.71-2,2.49-3l1.17-1.56A5.41,5.41,0,0,0,82,83.81a27.79,27.79,0,0,0,.33-7.65v0a.33.33,0,0,1,.66-.08Z"></path>
      <path class="cls-12" d="M82.93,75.62a93.08,93.08,0,0,0-4.06,12.22c-.54,2.08-1,4.18-1.39,6.3s-.66,4.25-1,6.38c.25-2.14.45-4.28.8-6.41s.74-4.25,1.22-6.35a95.5,95.5,0,0,1,3.77-12.38.34.34,0,0,1,.63.23Z"></path>
      <path class="cls-12" d="M82.49,75.65a34.24,34.24,0,0,1-.2,7.44c-.28,2.45-.66,4.88-1,7.32s-.69,4.87-1.07,7.3-.56,5-2,7.06c1.32-2.14,1.29-4.69,1.59-7.11s.51-4.9.79-7.34L81.41,83a54.1,54.1,0,0,0,.42-7.29.33.33,0,0,1,.66,0Z"></path>
      <path class="cls-12" d="M83.07,76.63a14.35,14.35,0,0,0,1.73,8.09c1.23,2.55,2.82,5,4.18,7.51a18.22,18.22,0,0,1,2.53,8.25c.1,2.9-.48,5.74-.23,8.62-.36-2.86.06-5.76-.1-8.6a17.79,17.79,0,0,0-2.68-8c-1.41-2.49-3.1-4.83-4.38-7.45a13.93,13.93,0,0,1-1.71-8.52.34.34,0,0,1,.39-.27A.32.32,0,0,1,83.07,76.63Z"></path>
      <path class="cls-12" d="M83.34,75.53l.88,3.22.44,1.62c.17.52.36,1,.57,1.55a65.76,65.76,0,0,1,2.56,6.3A27.48,27.48,0,0,1,88.5,95a11.45,11.45,0,0,0,1.78,6.37A11.12,11.12,0,0,1,88.05,95a30.3,30.3,0,0,0-1-6.6,64.75,64.75,0,0,0-2.77-6.11c-.24-.52-.46-1.06-.66-1.6l-.5-1.64-1-3.27a.62.62,0,0,1,.41-.77.61.61,0,0,1,.77.41h0Z"></path>
      <path class="cls-12" d="M83.37,78c0,1.73-.37,3.37-.55,5a20.56,20.56,0,0,0-.12,2.49A4,4,0,0,1,81.89,88a21.61,21.61,0,0,0-1.64,1.88,7.13,7.13,0,0,0-1,2.24,6.94,6.94,0,0,0,.46,4.86,7,7,0,0,1-.63-4.9,7.65,7.65,0,0,1,1-2.34,19.25,19.25,0,0,1,1.59-2c1-1.3.46-3.11.69-4.78s.42-3.34.39-5h0a.33.33,0,0,1,.32-.34.35.35,0,0,1,.35.33Z"></path>
      <path class="cls-12" d="M83.64,77.69A15.91,15.91,0,0,1,86,81a9.8,9.8,0,0,1,1.16,3.83,9.91,9.91,0,0,0-1.35-3.73A15.41,15.41,0,0,0,83.32,78a.22.22,0,0,1,0-.3.23.23,0,0,1,.31,0Z"></path>
      <path class="cls-12" d="M82.63,75.83a13.55,13.55,0,0,0-1.2,7.75,37.72,37.72,0,0,0,1.92,7.84,62.55,62.55,0,0,1,2.31,7.85,15.88,15.88,0,0,1-.25,8.1,16.14,16.14,0,0,0,0-8.05,63.36,63.36,0,0,0-2.49-7.74,35.63,35.63,0,0,1-2.13-7.92A13.65,13.65,0,0,1,82,75.52a.34.34,0,0,1,.45-.14A.34.34,0,0,1,82.63,75.83Z"></path>
      <path class="cls-12" d="M81.32,80a56,56,0,0,0,5.1,13.56l1.7,3.23a9.1,9.1,0,0,1,1,3.53c.2,2.43-.28,4.9.49,7.25-.82-2.33-.4-4.84-.66-7.24s-1.73-4.45-2.81-6.62a56.78,56.78,0,0,1-5.32-13.6.26.26,0,0,1,.5-.12Z"></path>
      <path class="cls-12" d="M82.16,76.47a7.3,7.3,0,0,0,2.14,3.11,9.46,9.46,0,0,0,3.36,1.89c.62.19,1.28.34,1.91.58a6.38,6.38,0,0,1,1.73,1,13.51,13.51,0,0,1,2.56,3,13.42,13.42,0,0,0-2.63-2.94,6.43,6.43,0,0,0-1.73-.93c-.62-.21-1.27-.34-1.91-.52a9.6,9.6,0,0,1-3.54-1.84,7.73,7.73,0,0,1-2.38-3.23.26.26,0,0,1,.15-.33.27.27,0,0,1,.34.15Z"></path>
      <polygon class="cls-13" points="0 54.93 80.12 88.41 152.93 57.53 80.12 31.85 0 54.93"></polygon>
      <path class="cls-14" d="M82.94,61.52s-2.35-35-15.48-50.43c0,0,11.16,23.8,14.05,50.16Z"></path>
      <path class="cls-15" d="M82.49,60.59s.76-29.6-1.18-47.67c0,0-.6,45.74,0,48.28Z"></path>
      <path class="cls-16" d="M82.43,60.68a.42.42,0,0,0,.43-.37c.52-4.55,5.59-49.24,5.32-51,0,0-8,45.81-6.91,51.87Z"></path>
      <path class="cls-17" d="M82.35,59.62s-1.74-34.54-2.16-36.51c0,0,.09,36.42.93,38.82l1.23-1Z"></path>
      <path class="cls-18" d="M82.49,60.59S77.12,3.11,75.4.24c-.65-1.09-.21,1.93-.21,1.93s4.28,46.7,6.06,59.19Z"></path>
      <path class="cls-19" d="M82.11,60.7A119,119,0,0,0,61.77,7.07s14.92,31,19.48,54.29Z"></path>
      <path class="cls-20" d="M85.39,64.82a.92.92,0,0,0-.88-.32c-.49.15-.68.54-.6.67l.19.19c.12.12.38-.22.39-.22Z"></path>
      <path class="cls-9" d="M85.65,65.41s-.16-.67-.41-.67-.53,0-.53,0l-.07.12s.25.44.35.47l.33.1A2.23,2.23,0,0,0,85.65,65.41Z"></path>
      <path class="cls-10" d="M85.63,65.49s.06-.21-.1-.25a2.09,2.09,0,0,0-.33-.07l-.47.35c-.08,0-.13,0,.1.11s.22.13.43.1A.67.67,0,0,0,85.63,65.49Z"></path>
      <path class="cls-11" d="M85.2,65.17s-.17.15-.29.28-.13.19-.28.11-.5-.12-.59-.26-.1-.12,0-.29a.74.74,0,0,1,.47-.29.42.42,0,0,1,.47.1A1.11,1.11,0,0,1,85.2,65.17Z"></path>
      <path class="cls-20" d="M72.9,60.28a1.34,1.34,0,0,0-1.36-.19c-.66.36-.81,1-.65,1.15a1.82,1.82,0,0,0,.31.21c.21.14.48-.43.5-.44S72.9,60.28,72.9,60.28Z"></path>
      <path class="cls-9" d="M73.44,61.05s-.42-.91-.78-.84a7.66,7.66,0,0,1-.78.1l-.06.19s.48.55.64.57l.51,0A3.94,3.94,0,0,0,73.44,61.05Z"></path>
      <path class="cls-10" d="M73.44,61.18c0-.09,0-.33-.22-.34a3.3,3.3,0,0,0-.48,0s-.48.55-.58.64-.18.11.18.13.36.12.65,0A.88.88,0,0,0,73.44,61.18Z"></path>
      <path class="cls-11" d="M72.74,60.84a3.33,3.33,0,0,0-.33.5c-.13.23-.15.3-.37.24s-.76,0-.94-.19-.17-.15,0-.43a1.08,1.08,0,0,1,.58-.55.6.6,0,0,1,.7,0A1.42,1.42,0,0,1,72.74,60.84Z"></path>
      <path class="cls-20" d="M81.72,58.48s-2.81-1.4-4.77.31-2.07,3.91-1.39,4.39a9.18,9.18,0,0,0,1.23.49c.81.3,1.31-1.81,1.36-1.84S81.72,58.48,81.72,58.48Z"></path>
      <path class="cls-9" d="M84.12,60.7S82,57.91,80.85,58.39s-2.58.89-2.58.89l-.08.71s2.06,1.52,2.6,1.48,1.52-.23,1.76-.23A11.66,11.66,0,0,0,84.12,60.7Z"></path>
      <path class="cls-10" d="M84.2,61.12c0-.31-.14-1.11-1-1a11.43,11.43,0,0,0-1.65.36s-1.23,2.23-1.51,2.61-.52.47.7.31,1.32.13,2.25-.43A3.16,3.16,0,0,0,84.2,61.12Z"></path>
      <path class="cls-11" d="M81.57,60.48a13.5,13.5,0,0,0-.77,1.94c-.26.88-.27,1.13-1.07,1.09s-2.61.47-3.34,0-.68-.39-.48-1.41A3.75,3.75,0,0,1,77.5,59.8a2.1,2.1,0,0,1,2.38-.5A5.42,5.42,0,0,1,81.57,60.48Z"></path>
      <path class="cls-20" d="M92.54,59.38s-1.62-2.21-3.82-1.66-3.15,2.21-2.82,2.84a7.18,7.18,0,0,0,.76.87c.51.56,1.74-.88,1.79-.88Z"></path>
      <path class="cls-9" d="M93.52,62.05S93,59.06,91.9,59s-2.35-.33-2.35-.33l-.34.51s1,2,1.42,2.18,1.27.43,1.45.52A9.77,9.77,0,0,0,93.52,62.05Z"></path>
      <path class="cls-10" d="M93.41,62.41c.1-.25.33-.91-.36-1.16a11.14,11.14,0,0,0-1.42-.39s-1.85,1.24-2.21,1.43-.59.15.42.52,1,.62,1.91.56A2.76,2.76,0,0,0,93.41,62.41Z"></path>
      <path class="cls-11" d="M91.63,60.86a12.11,12.11,0,0,0-1.37,1.2c-.55.58-.66.77-1.26.41s-2.21-.66-2.59-1.31-.38-.57.19-1.29a3.27,3.27,0,0,1,2.15-1.15,1.82,1.82,0,0,1,2,.56A4.76,4.76,0,0,1,91.63,60.86Z"></path>
      <path class="cls-20" d="M85,60.52s-2.33-1.79-4.44-.58S78,63.16,78.51,63.72a8.7,8.7,0,0,0,1,.67c.69.42,1.53-1.43,1.58-1.45S85,60.52,85,60.52Z"></path>
      <path class="cls-9" d="M86.81,63s-1.41-2.94-2.59-2.7-2.52.34-2.52.34l-.2.64s1.61,1.77,2.11,1.82,1.44.07,1.66.11A11.74,11.74,0,0,0,86.81,63Z"></path>
      <path class="cls-10" d="M86.81,63.39c0-.29.07-1-.72-1.09a11.21,11.21,0,0,0-1.59,0S83,64.15,82.65,64.45s-.56.34.59.41,1.18.36,2.13,0A3,3,0,0,0,86.81,63.39Z"></path>
      <path class="cls-11" d="M84.5,62.33a13,13,0,0,0-1,1.64c-.39.76-.45,1-1.18.8s-2.48,0-3.06-.59-.56-.48-.19-1.38A3.48,3.48,0,0,1,80.9,61a2,2,0,0,1,2.27,0A4.94,4.94,0,0,1,84.5,62.33Z"></path>
      <path class="cls-20" d="M97.11,64.6A1.41,1.41,0,0,0,98.4,64c.35-.7.12-1.32-.12-1.38a2.88,2.88,0,0,0-.4,0c-.26,0-.15.65-.16.67Z"></path>
      <path class="cls-9" d="M96.19,64.26s.9.53,1.18.26S98,64,98,64l-.06-.21a3.07,3.07,0,0,0-.89-.11l-.46.27A3.59,3.59,0,0,0,96.19,64.26Z"></path>
      <path class="cls-10" d="M96.12,64.15c0,.08.17.29.39.17a4.15,4.15,0,0,0,.42-.29s.08-.77.11-.9.09-.19-.23,0-.38.12-.57.38A1,1,0,0,0,96.12,64.15Z"></path>
      <path class="cls-11" d="M96.93,64a4.62,4.62,0,0,0,0-.63c0-.28-.06-.35.17-.43s.67-.43.92-.39.24,0,.3.34a1.09,1.09,0,0,1-.18.82.63.63,0,0,1-.6.42A1.54,1.54,0,0,1,96.93,64Z"></path>
      <path class="cls-20" d="M66.12,66.22a1.42,1.42,0,0,0,1.29-.64c.34-.7.12-1.33-.13-1.38a2.51,2.51,0,0,0-.39,0c-.26,0-.16.66-.17.67Z"></path>
      <path class="cls-9" d="M65.19,65.88s.9.53,1.18.26.61-.55.61-.55l-.06-.2a2.76,2.76,0,0,0-.89-.11c-.15.07-.4.24-.46.26A3.53,3.53,0,0,0,65.19,65.88Z"></path>
      <path class="cls-10" d="M65.12,65.77c0,.08.17.29.39.16a4.15,4.15,0,0,0,.42-.29s.08-.76.11-.9.1-.19-.23,0-.38.11-.57.38A1,1,0,0,0,65.12,65.77Z"></path>
      <path class="cls-11" d="M65.93,65.64a4.47,4.47,0,0,0,0-.62c0-.28-.06-.35.17-.43s.67-.43.92-.39.24,0,.3.34a1.11,1.11,0,0,1-.18.82.6.6,0,0,1-.6.41A1.54,1.54,0,0,1,65.93,65.64Z"></path>
      <path class="cls-20" d="M75,65.1a1.81,1.81,0,0,0,1.7-.7c.5-.86.27-1.68,0-1.77a3.55,3.55,0,0,0-.5,0c-.34,0-.26.82-.27.83Z"></path>
      <path class="cls-9" d="M73.83,64.59s1.1.76,1.47.43.83-.64.83-.64l-.06-.26a3.52,3.52,0,0,0-1.13-.22c-.19.08-.52.27-.61.3A5.2,5.2,0,0,0,73.83,64.59Z"></path>
      <path class="cls-10" d="M73.74,64.44c.05.11.19.39.48.24a3.81,3.81,0,0,0,.56-.33s.17-1,.23-1.13.13-.24-.29,0-.5.12-.77.43A1.21,1.21,0,0,0,73.74,64.44Z"></path>
      <path class="cls-11" d="M74.78,64.35a5,5,0,0,0,0-.8c0-.35,0-.44.26-.52s.89-.5,1.21-.42.3.06.35.46a1.44,1.44,0,0,1-.3,1,.79.79,0,0,1-.8.47A2.09,2.09,0,0,1,74.78,64.35Z"></path>
      <path class="cls-20" d="M81.43,63.84a1.17,1.17,0,0,1,1-.16c.52.24.65.65.53.78a2.75,2.75,0,0,1-.24.15c-.16.09-.38-.29-.39-.29Z"></path>
      <path class="cls-9" d="M81,64.38s.3-.63.59-.59.6.05.6.05l0,.13s-.36.38-.48.4l-.39,0A3.25,3.25,0,0,1,81,64.38Z"></path>
      <path class="cls-10" d="M81,64.46c0-.06,0-.22.16-.23a2.76,2.76,0,0,1,.38,0s.38.37.46.43.14.06-.13.09-.28.08-.51,0A.66.66,0,0,1,81,64.46Z"></path>
      <path class="cls-11" d="M81.57,64.22a3.11,3.11,0,0,1,.27.33c.1.16.11.21.29.16s.59,0,.72-.15.13-.11,0-.29a.79.79,0,0,0-.47-.37.49.49,0,0,0-.54,0A1.11,1.11,0,0,0,81.57,64.22Z"></path>
      <path class="cls-20" d="M90.92,61.17s-2.19-1.61-4.11-.45-2.35,3-1.84,3.53a9,9,0,0,0,1,.61c.65.37,1.39-1.35,1.44-1.37Z"></path>
      <path class="cls-9" d="M92.63,63.42S91.27,60.73,90.19,61s-2.33.37-2.33.37l-.17.59s1.52,1.61,2,1.65,1.33,0,1.53.07A11.1,11.1,0,0,0,92.63,63.42Z"></path>
      <path class="cls-10" d="M92.64,63.8c0-.27,0-1-.69-1a11.14,11.14,0,0,0-1.46.05s-1.38,1.72-1.67,2-.52.32.54.36,1.11.31,2,0A2.72,2.72,0,0,0,92.64,63.8Z"></path>
      <path class="cls-11" d="M90.49,62.85a12.15,12.15,0,0,0-.95,1.54c-.35.72-.39.92-1.07.77s-2.3,0-2.84-.49-.53-.43-.21-1.28a3.25,3.25,0,0,1,1.71-1.72,1.81,1.81,0,0,1,2.1-.07A4.76,4.76,0,0,1,90.49,62.85Z"></path>
      <path class="cls-20" d="M79.26,63.7a2.72,2.72,0,0,0-2.6.94c-.82,1.27-.52,2.51-.07,2.67a6.39,6.39,0,0,0,.77.07c.5,0,.43-1.22.46-1.24S79.26,63.7,79.26,63.7Z"></path>
      <path class="cls-9" d="M81,64.54s-1.61-1.21-2.19-.75a14.63,14.63,0,0,1-1.29.91l.07.41a5.67,5.67,0,0,0,1.68.4c.3-.11.81-.37.94-.41A7.28,7.28,0,0,0,81,64.54Z"></path>
      <path class="cls-10" d="M81.06,64.77c-.06-.17-.25-.6-.7-.4a7.41,7.41,0,0,0-.87.47s-.32,1.43-.41,1.69-.21.35.44.06.75-.14,1.18-.6A1.83,1.83,0,0,0,81.06,64.77Z"></path>
      <path class="cls-11" d="M79.49,64.84a8.73,8.73,0,0,0-.11,1.2c0,.53,0,.67-.42.77s-1.37.69-1.85.55-.44-.1-.5-.71a2.14,2.14,0,0,1,.52-1.53,1.22,1.22,0,0,1,1.24-.67A3.16,3.16,0,0,1,79.49,64.84Z"></path>
    </g>
  </g>
</svg>
