<?xml version="1.0" encoding="UTF-8"?>
<svg xmlns="http://www.w3.org/2000/svg" viewBox="0 0 108.49 134.58">
  <defs>
    <style>.cls-1{fill:#a29274;}.cls-2{fill:#e3e0c9;}.cls-3{fill:#fcedce;}.cls-4{fill:#bda885;}.cls-5{fill:#d0c5a6;}.cls-6{fill:#8f8267;}.cls-7{fill:#ab967a;opacity:0.25;}.cls-8{fill:#9b8d71;}.cls-9{fill:#7c705b;}.cls-10{fill:#a5a5a5;}.cls-11{fill:#e7e6e3;}.cls-12{fill:#817870;}.cls-13{fill:#90b23d;}.cls-14{fill:#81a134;}</style>
  </defs>
  <g id="Слой_2" data-name="Слой 2">
    <g id="Слой_1-2" data-name="Слой 1">
      <polygon class="cls-1" points="54.32 63.21 108.49 40.15 100.36 102.52 54.32 134.58 54.32 63.21"></polygon>
      <polygon class="cls-2" points="54.32 24.55 108.49 40.15 54.32 63.21 0 40.15 54.32 24.55"></polygon>
      <polygon class="cls-3" points="54.32 24.55 0 40.15 0.95 40.55 107.99 40 54.32 24.55"></polygon>
      <polygon class="cls-4" points="8.13 102.52 0 40.15 54.32 63.21 54.32 134.58 8.13 102.52"></polygon>
      <path class="cls-5" d="M34.14,40.91a31.48,31.48,0,0,1,2.57-2.74,24,24,0,0,1,3-2.31,30.11,30.11,0,0,1,6.8-3.3A35.39,35.39,0,0,1,53.87,31c1.25-.16,2.51-.13,3.76-.19s2.5.11,3.74.22c-1.24.14-2.48.19-3.71.32l-1.84.24c-.62.08-1.23.14-1.83.27-1.21.23-2.43.41-3.61.74s-2.37.65-3.54,1a38.16,38.16,0,0,0-6.69,3A36.92,36.92,0,0,0,34.14,40.91Z"></path>
      <path class="cls-5" d="M24.89,43.1a6.47,6.47,0,0,0,2.14.43c.73.07,1.47.08,2.21.08a34.23,34.23,0,0,0,4.4-.38c2.93-.41,5.81-1.15,8.78-1.81a25.64,25.64,0,0,1-8.62,2.91,20.21,20.21,0,0,1-4.6.14,13.49,13.49,0,0,1-2.27-.4,10.9,10.9,0,0,1-1.09-.39A2.28,2.28,0,0,1,24.89,43.1Z"></path>
      <path class="cls-5" d="M62.26,56.4A43.15,43.15,0,0,1,73.68,44.49a28,28,0,0,1,7.46-3.72,21.28,21.28,0,0,1,4.1-.82,17.89,17.89,0,0,1,4.14.19,21.85,21.85,0,0,0-8,1.45,33.83,33.83,0,0,0-7.11,3.82A55.05,55.05,0,0,0,68,50.52,81.54,81.54,0,0,0,62.26,56.4Z"></path>
      <polygon class="cls-6" points="54.32 63.21 108.49 40.15 100.36 102.52 54.32 134.58 54.32 63.21"></polygon>
      <polygon class="cls-7" points="8.13 102.52 0 40.15 54.32 63.21 54.32 134.58 8.13 102.52"></polygon>
      <polygon class="cls-8" points="54.32 134.58 8.13 102.52 54.54 84.98 100.36 102.52 54.32 134.58"></polygon>
      <path class="cls-9" d="M17.94,75.1a16.66,16.66,0,0,1-1.4-9,14.32,14.32,0,0,1,4-8.37,20.11,20.11,0,0,1,8-4.75,34.08,34.08,0,0,1,9-1.61c-.74.17-1.49.33-2.23.47s-1.48.37-2.21.55-1.45.42-2.18.63-1.42.5-2.12.76a21.68,21.68,0,0,0-7.47,4.72,14.7,14.7,0,0,0-4,7.73,19.87,19.87,0,0,0,.56,8.92Z"></path>
      <path class="cls-9" d="M68.42,74.24c.14.23.45.31.69.43s.51.22.77.32c.52.2,1.05.38,1.58.55,1.06.35,2.13.66,3.2,1,2.15.58,4.31,1.1,6.49,1.53,4.36.9,8.77,1.47,13.24,2a50.22,50.22,0,0,1-20-2.7c-1.06-.38-2.11-.8-3.14-1.28-.51-.25-1-.5-1.51-.78A3.94,3.94,0,0,1,68.42,74.24Z"></path>
      <path class="cls-9" d="M39.32,71a39.69,39.69,0,0,1-3.59,12,33.61,33.61,0,0,1-3.26,5.39A20.48,20.48,0,0,1,28,92.7a36,36,0,0,0,3.8-4.86,53.9,53.9,0,0,0,3-5.37c.9-1.84,1.69-3.74,2.45-5.65S38.66,73,39.32,71Z"></path>
      <path class="cls-9" d="M56.13,120.62c2.2-1.08,4.49-1.94,6.72-2.91s4.45-1.95,6.59-3.07a41.51,41.51,0,0,0,6.12-3.82,17.54,17.54,0,0,0,4.83-5.31,14.05,14.05,0,0,1-4.28,6A31.79,31.79,0,0,1,70,115.63a55.21,55.21,0,0,1-6.78,2.89c-1.16.41-2.33.77-3.51,1.12Z"></path>
      <path class="cls-9" d="M30.72,113.78a15.44,15.44,0,0,1-3.51-2.23,8.49,8.49,0,0,1-2.55-3.42,4.91,4.91,0,0,1-.3-2.22,5.57,5.57,0,0,1,.67-2.15A10.1,10.1,0,0,1,28,100.6a28.73,28.73,0,0,1,7.5-3.73,57.3,57.3,0,0,1,8-2.09c-2.6.94-5.18,1.87-7.71,2.9a34.14,34.14,0,0,0-7.14,3.81,9.48,9.48,0,0,0-2.69,2.78,4.4,4.4,0,0,0-.46,3.59,8.52,8.52,0,0,0,2.1,3.3A18.43,18.43,0,0,0,30.72,113.78Z"></path>
      <path class="cls-9" d="M80.39,73l4-5.56c1.32-1.85,2.62-3.72,3.85-5.63a59.38,59.38,0,0,0,3.4-5.88,19.06,19.06,0,0,0,2.13-6.42,14.56,14.56,0,0,1-1.34,6.77,37.1,37.1,0,0,1-3.26,6.13A57.84,57.84,0,0,1,80.39,73Z"></path>
      <polygon class="cls-10" points="52.34 98.55 52.4 98.45 52.3 98.44 52.34 98.55"></polygon>
      <path class="cls-11" d="M56.43,55.92a99.6,99.6,0,0,0-.61,11.32c0,1,0,1.89.12,2.81a8.51,8.51,0,0,0,.2,1.32c.11.45.24.92.35,1.41a10.72,10.72,0,0,1-.79,5.74,12.14,12.14,0,0,0,0-5.53c-.14-.44-.33-.87-.49-1.33a8.54,8.54,0,0,1-.28-1.5c-.11-1-.16-1.93-.2-2.89a74.75,74.75,0,0,1,.51-11.49.6.6,0,1,1,1.2.14Z"></path>
      <path class="cls-11" d="M55.93,71.74a4,4,0,0,1,1.5,2,5.59,5.59,0,0,1,.33,2.35,5.27,5.27,0,0,0-.69-2.18,3.41,3.41,0,0,0-1.52-1.47Z"></path>
      <path class="cls-11" d="M55.46,65.33l1.71,1.82a14.61,14.61,0,0,1,1.62,1.94,6.69,6.69,0,0,1,.86,2.38c.14.82.2,1.65.26,2.48a10.25,10.25,0,0,0-1.45-4.63,13.43,13.43,0,0,0-1.71-1.75l-1.84-1.66Z"></path>
      <path class="cls-11" d="M59,69.6a10.08,10.08,0,0,1-.15,1.75A10,10,0,0,1,58.4,73a10.73,10.73,0,0,0,.33-3.42Z"></path>
      <path class="cls-11" d="M57.07,67.34a2.34,2.34,0,0,1,2,.17A3.21,3.21,0,0,1,60.42,69,3.09,3.09,0,0,0,59,67.67a2.1,2.1,0,0,0-1.8,0Z"></path>
      <path class="cls-11" d="M55.32,70.82a2.74,2.74,0,0,0-1.94,1A3.27,3.27,0,0,0,52.7,74a3.31,3.31,0,0,1,.53-2.28,2.93,2.93,0,0,1,2-1.26Z"></path>
      <path class="cls-11" d="M54.63,70.92a3.58,3.58,0,0,0-.29,1.26,12.16,12.16,0,0,0,0,1.35c0,.89.28,1.8.28,2.71-.07-.91-.45-1.76-.5-2.7a10.59,10.59,0,0,1,0-1.38,3.52,3.52,0,0,1,.3-1.39Z"></path>
      <path class="cls-11" d="M55.12,66.44a13.15,13.15,0,0,0-2.73,2.25,9.15,9.15,0,0,0-1.85,3,9.31,9.31,0,0,1,1.54-3.3,13.73,13.73,0,0,1,2.58-2.64Z"></path>
      <path class="cls-11" d="M52.42,68.41a7.79,7.79,0,0,1-.05,1.45,9.69,9.69,0,0,1-.25,1.41,9.6,9.6,0,0,0,0-2.83Z"></path>
      <path class="cls-11" d="M54.13,66.91a10.87,10.87,0,0,0-2.4-.48,3.66,3.66,0,0,0-2.35.52,3.7,3.7,0,0,1,2.36-.75,11.19,11.19,0,0,1,2.51.25Z"></path>
      <polygon class="cls-3" points="0.95 40.55 54.32 63.21 108.49 40.15 107.99 40 0.95 40.55"></polygon>
      <ellipse class="cls-1" cx="56.04" cy="41.23" rx="12.51" ry="4.89"></ellipse>
      <ellipse class="cls-12" cx="56.35" cy="42.88" rx="10.31" ry="4.03"></ellipse>
      <path class="cls-13" d="M57.33,23.28s2.76-5.82,7.79-5.31,7.39.92,9.24.33,5-2.52,6-2.94,1.68.09,1.18.67S69.49,34.76,60.93,31.48a8.56,8.56,0,0,1-3.6-2.43s.41,14.53.66,16.12-1.51,0-1.51,0l-1.1-15.7s-.08-.67-1.25.16-5.38,3.84-9.41.91S32.38,18.64,31.21,16.62s1.09-1.68,1.59-1,3.36,3.45,10,2.94,9.4-.25,10.83,2.19,1.43,2.26,1.76,1.84a2.06,2.06,0,0,0-.5-2.52A10.86,10.86,0,0,1,51.61,8.65c2-6.3,1.26-8,1.26-8S53-.84,54.13.67s8,9.15,5.87,14-2.26,3.7-2.85,5a6.29,6.29,0,0,0-.42,2.92C56.73,22.71,56.75,23.33,57.33,23.28Z"></path>
      <path class="cls-14" d="M58.2,26.21c.61.2,12.72-.35,18.26-6s-.56-.25-2.23.5A30.39,30.39,0,0,1,59.46,25S55.36,25.31,58.2,26.21Z"></path>
      <path class="cls-14" d="M53.29,26.24s2-.45,0-1.08c0,0-11.4-1.13-16-4.72s0,.82,0,.82A34.07,34.07,0,0,0,53.29,26.24Z"></path>
    </g>
  </g>
</svg>
