<?xml version="1.0" encoding="UTF-8"?>
<svg xmlns="http://www.w3.org/2000/svg" xmlns:xlink="http://www.w3.org/1999/xlink" viewBox="0 0 150.17 261.97">
  <defs>
    <style>.cls-1{fill:#8e6848;}.cls-2{fill:url(#Безымянный_градиент_7);}.cls-3{fill:#713e21;}.cls-4{fill:#3d271f;}.cls-5{fill:#69391e;}.cls-6{fill:#6b482f;}.cls-7{fill:#5c3624;}.cls-8{fill:#795135;}.cls-9{fill:#9a734f;}.cls-10{fill:#fff;}.cls-11{fill:#85563a;}.cls-12{fill:#9fbee2;stroke:#334253;stroke-width:1.21px;}.cls-12,.cls-15,.cls-16,.cls-17{stroke-miterlimit:10;}.cls-13{fill:#334253;}.cls-14{fill:#b3ceea;}.cls-15,.cls-16,.cls-17,.cls-28{fill:none;stroke-linecap:round;}.cls-15,.cls-16,.cls-17{stroke:#191919;stroke-width:1.52px;}.cls-16{stroke-dasharray:5.95 5.95;}.cls-17{stroke-dasharray:6.78 6.78;}.cls-18{font-size:36px;fill:#191919;font-family:MyriadPro-Regular, Myriad Pro;}.cls-19{font-size:26px;}.cls-20{fill:#b7b6c1;}.cls-21{fill:#d1d1e1;}.cls-22{fill:#7e7e85;}.cls-23{fill:#a2a1aa;}.cls-24{fill:#a0cae7;}.cls-25{fill:#b8d8ee;}.cls-26{fill:#d0e6f5;}.cls-27{fill:#7db868;}.cls-28{stroke:#7db868;stroke-linejoin:round;stroke-width:1.37px;}.cls-29{fill:#9bd674;}.cls-30{fill:#aee28c;}</style>
    <linearGradient id="Безымянный_градиент_7" x1="44.66" y1="294.54" x2="49.05" y2="212.83" gradientUnits="userSpaceOnUse">
      <stop offset="0.38" stop-color="#9b714f"></stop>
      <stop offset="0.91" stop-color="#754427"></stop>
      <stop offset="1" stop-color="#6e3c20"></stop>
    </linearGradient>
  </defs>
  <g id="Слой_2" data-name="Слой 2">
    <g id="Слой_1-2" data-name="Слой 1">
      <path class="cls-1" d="M49.08,205.7s8.18,9.61,14.5,10,27.92-6.43,27.92-6.43l2.17-22.49L49.08,171.06Z"></path>
      <path class="cls-1" d="M0,185.19l4.45,29.33s15.8,2.37,18.57,1.58,15.41-5.53,19-5.53,7.1-4.87,7.1-4.87V171.06Z"></path>
      <polygon class="cls-2" points="6.57 241.96 49.08 261.97 88.39 242.06 47.52 224.74 6.57 241.96"></polygon>
      <path class="cls-3" d="M6.57,242,4.45,214.52s20.15-.4,25.68-3.16,19-5.66,19-5.66l-1.56,19Z"></path>
      <path class="cls-4" d="M35.29,216.22a7.25,7.25,0,0,0-2.41-1.42h0s-3.22-1-5,1.2-1.45,4.5-.66,4.87a8.81,8.81,0,0,0,1.39.3s.05,0,.08,0a24.5,24.5,0,0,0,3-.68,1.51,1.51,0,0,0,.52-.13l.55-.16c1.26-.39,1.41-.11,2.29-.87a3.35,3.35,0,0,0,.92-2.16,2,2,0,0,0-.18-.43h0l0,0A.86.86,0,0,0,35.29,216.22Z"></path>
      <path class="cls-4" d="M18,219.05a9.32,9.32,0,0,0-3.42,1.13v0S11,222.45,11.56,226s3.11,5.21,4.15,4.76a12.07,12.07,0,0,0,1.46-1.09s0-.08,0-.11c.78-.9,1.35-2.69,1.88-3.45a1.87,1.87,0,0,0,.3-.61c.09-.17.18-.36.32-.67.68-1.55,1.09-1.46,1.1-2.94a4.31,4.31,0,0,0-1.31-2.73,3,3,0,0,0-.56-.19v0h-.06A1.06,1.06,0,0,0,18,219.05Z"></path>
      <path class="cls-5" d="M49.08,205.7l-1.56,19L88.4,242.06l3.1-32.79s-12.75-1.47-18.28-.68-15.17,3.16-18.07,1.58A38.49,38.49,0,0,1,49.08,205.7Z"></path>
      <path class="cls-4" d="M33.5,225.26a3.06,3.06,0,0,0-1.06-.26h0a2,2,0,0,0-1.73,1c-.42,1,0,1.85.3,1.9a3,3,0,0,0,.55,0s0,0,0,0c.34-.11.78-.48,1-.59a.7.7,0,0,0,.18-.11L33,227c.43-.29.52-.2.76-.58a1.34,1.34,0,0,0,.1-.92.6.6,0,0,0-.11-.14h0A.34.34,0,0,0,33.5,225.26Z"></path>
      <path class="cls-4" d="M73.56,217.06a1.94,1.94,0,0,0-.1-.75h0s-.33-.86-1.08-.88-1.22.43-1.17.66a2.7,2.7,0,0,0,.17.35h0a5.93,5.93,0,0,0,.64.54l.11.09.13.09c.29.21.26.29.56.35a1,1,0,0,0,.63-.16.36.36,0,0,0,.06-.11h0v0A.22.22,0,0,0,73.56,217.06Z"></path>
      <path class="cls-4" d="M85,230.83a9.36,9.36,0,0,0-1.62-3.25h0s-2.82-3.32-6.26-2.2-4.75,3.86-4.16,4.83a12.36,12.36,0,0,0,1.31,1.3s.08,0,.11,0c1,.65,2.88,1,3.72,1.38a1.84,1.84,0,0,0,.65.21c.19.06.39.13.72.22,1.64.46,1.61.88,3.09.68a4.38,4.38,0,0,0,2.54-1.71,3,3,0,0,0,.11-.58h0l0-.07A1,1,0,0,0,85,230.83Z"></path>
      <path class="cls-4" d="M62.76,219.53a7,7,0,0,0-1.59,2.29v0s-1.2,3.12.82,5,4.34,1.77,4.78,1a9.21,9.21,0,0,0,.39-1.35s0,0,0-.08a25.68,25.68,0,0,0-.45-3,1.37,1.37,0,0,0-.1-.52c0-.14,0-.3-.11-.56-.3-1.27,0-1.41-.69-2.33a3.33,3.33,0,0,0-2.08-1.07,2.11,2.11,0,0,0-.43.14h0l0,0A.83.83,0,0,0,62.76,219.53Z"></path>
      <path class="cls-6" d="M62.91,242.82a1.36,1.36,0,0,0,1.34-.35c.46-.6.36-1.22.14-1.32a2.23,2.23,0,0,0-.37-.07c-.25,0-.27.59-.28.6S62.91,242.82,62.91,242.82Z"></path>
      <path class="cls-7" d="M62.11,242.33s.75.67,1.06.47a6.71,6.71,0,0,1,.67-.4v-.2a2.88,2.88,0,0,0-.82-.28l-.48.17A3,3,0,0,0,62.11,242.33Z"></path>
      <path class="cls-8" d="M62.07,242.21c0,.09.1.31.33.23a4.35,4.35,0,0,0,.45-.19s.22-.7.28-.83.12-.16-.22,0-.38,0-.61.24A.89.89,0,0,0,62.07,242.21Z"></path>
      <path class="cls-9" d="M62.85,242.25a5.91,5.91,0,0,0,.11-.59c0-.27,0-.34.24-.37s.71-.28.94-.19.22.07.22.37a1.06,1.06,0,0,1-.33.74.6.6,0,0,1-.64.28A1.63,1.63,0,0,1,62.85,242.25Z"></path>
      <path class="cls-6" d="M53.83,237.61a3,3,0,0,0,2.76-1.42c.72-1.53.21-2.86-.31-3a5.37,5.37,0,0,0-.86,0c-.56,0-.31,1.41-.33,1.45S53.83,237.61,53.83,237.61Z"></path>
      <path class="cls-7" d="M51.83,236.91s2,1.12,2.54.52,1.3-1.19,1.3-1.19l-.13-.44a6.16,6.16,0,0,0-1.93-.21c-.31.17-.85.52-1,.59A7.5,7.5,0,0,0,51.83,236.91Z"></path>
      <path class="cls-8" d="M51.67,236.68c.09.17.37.62.84.34a8.83,8.83,0,0,0,.89-.64s.16-1.65.22-1.95.19-.41-.49,0-.82.27-1.23.84A2.07,2.07,0,0,0,51.67,236.68Z"></path>
      <path class="cls-9" d="M53.4,236.38a8.69,8.69,0,0,0,0-1.35c-.08-.6-.13-.74.36-.93s1.43-.95,2-.87.51.06.66.72a2.42,2.42,0,0,1-.36,1.78,1.35,1.35,0,0,1-1.28.91A3.45,3.45,0,0,1,53.4,236.38Z"></path>
      <path class="cls-6" d="M45.35,244.22a3,3,0,0,0,3,.36c1.43-.83,1.74-2.19,1.38-2.57a6.49,6.49,0,0,0-.71-.45c-.47-.28-1,1-1.06,1S45.35,244.22,45.35,244.22Z"></path>
      <path class="cls-7" d="M44.12,242.56s1,2,1.77,1.81,1.71-.25,1.71-.25l.13-.43s-1.1-1.19-1.45-1.22-1,0-1.12-.07A8.91,8.91,0,0,0,44.12,242.56Z"></path>
      <path class="cls-8" d="M44.12,242.28c0,.2,0,.71.49.74a7.45,7.45,0,0,0,1.08,0s1-1.25,1.24-1.45.38-.23-.4-.28-.81-.23-1.45,0A2,2,0,0,0,44.12,242.28Z"></path>
      <path class="cls-9" d="M45.69,243a8.57,8.57,0,0,0,.7-1.12c.26-.52.3-.67.79-.55s1.69,0,2.08.38.38.32.14.94a2.4,2.4,0,0,1-1.26,1.25,1.33,1.33,0,0,1-1.55,0A3.42,3.42,0,0,1,45.69,243Z"></path>
      <path class="cls-6" d="M41.7,238.74a2.25,2.25,0,0,0,.08-2.32c-.73-1-1.79-1.18-2.05-.88a3.7,3.7,0,0,0-.29.57c-.19.38.81.72.82.75Z"></path>
      <path class="cls-7" d="M40.52,239.79s1.44-.87,1.27-1.47-.31-1.28-.31-1.28l-.34-.08s-.83.92-.83,1.19,0,.74,0,.86A6,6,0,0,0,40.52,239.79Z"></path>
      <path class="cls-8" d="M40.31,239.81c.15,0,.54,0,.53-.42a7.87,7.87,0,0,0-.09-.82s-1-.7-1.19-.85-.21-.28-.19.32-.12.63.1,1.1A1.53,1.53,0,0,0,40.31,239.81Z"></path>
      <path class="cls-9" d="M40.75,238.57a6.91,6.91,0,0,0-.9-.46c-.42-.17-.54-.19-.48-.57s-.1-1.29.15-1.61.23-.32.71-.17a1.83,1.83,0,0,1,1,.88,1,1,0,0,1,.12,1.17A2.63,2.63,0,0,1,40.75,238.57Z"></path>
      <path class="cls-6" d="M34.5,240.45a1,1,0,0,0,.33-.95c-.17-.52-.59-.72-.74-.62a1.68,1.68,0,0,0-.19.19c-.13.14.24.41.24.42Z"></path>
      <path class="cls-7" d="M33.87,240.74s.71-.18.72-.45,0-.57,0-.57l-.13-.07s-.46.27-.49.38a3.56,3.56,0,0,0-.1.36A2.47,2.47,0,0,0,33.87,240.74Z"></path>
      <path class="cls-8" d="M33.78,240.72c.07,0,.23.06.28-.11a3.4,3.4,0,0,0,.06-.35s-.33-.42-.38-.51-.05-.14-.12.11-.13.25-.1.47A.71.71,0,0,0,33.78,240.72Z"></path>
      <path class="cls-9" d="M34.12,240.26a2.7,2.7,0,0,0-.31-.31c-.15-.12-.2-.14-.12-.29s.12-.55.27-.65.13-.1.31,0a.79.79,0,0,1,.32.5.44.44,0,0,1-.1.5A1.24,1.24,0,0,1,34.12,240.26Z"></path>
      <path class="cls-6" d="M32.29,244.43s1.39-2.25.11-4-3.11-2-3.56-1.51a9.66,9.66,0,0,0-.51,1c-.31.66,1.42,1.25,1.44,1.29S32.29,244.43,32.29,244.43Z"></path>
      <path class="cls-7" d="M30.25,246.26s2.49-1.53,2.18-2.56a22.58,22.58,0,0,1-.54-2.22l-.59-.12s-1.43,1.59-1.44,2,.07,1.29.05,1.49A11.15,11.15,0,0,0,30.25,246.26Z"></path>
      <path class="cls-8" d="M29.88,246.29c.27,0,.94,0,.92-.74a10.49,10.49,0,0,0-.17-1.41s-1.77-1.21-2.07-1.46-.35-.48-.31.55-.21,1.1.18,1.92A2.68,2.68,0,0,0,29.88,246.29Z"></path>
      <path class="cls-9" d="M30.63,244.14a13,13,0,0,0-1.56-.8c-.72-.28-.93-.31-.83-1s-.19-2.22.25-2.79.38-.54,1.22-.29a3.15,3.15,0,0,1,1.8,1.51,1.76,1.76,0,0,1,.24,2A4.62,4.62,0,0,1,30.63,244.14Z"></path>
      <path class="cls-10" d="M47.46,200l1.82,0c.79,1.33,1.57,2.66,2.37,4A6.75,6.75,0,0,0,55.16,207c.38.14.77.26,1.14.41a.23.23,0,0,1,.1.2c-.08.11-.21.27-.3.25a6.94,6.94,0,0,1-5.16-3.33c-.43-.65-.6-1.49-1.35-2a10,10,0,0,0,.27,5.56q1.55,4.77,3.07,9.56a4.91,4.91,0,0,1,.2.94c0,.09-.16.21-.27.28s-.17,0-.2-.1c-.14-.29-.26-.59-.38-.89A25.72,25.72,0,0,0,50,213c-.22.63-.39,1-.5,1.45-.59,2.21-1.14,4.43-1.75,6.63a5.06,5.06,0,0,1-.65,1.06,3,3,0,0,1,.13-2.51,28.54,28.54,0,0,0,1.25-6.73,12.78,12.78,0,0,0-.34-4.13,16.43,16.43,0,0,1-.34-2.38c-.82.06-1.15.7-1.61,1.12s-.86,1-1.33,1.43c-.11.12-.38.11-.58.09a.62.62,0,0,1-.06-.43,9.82,9.82,0,0,1,1-1.61c.6-.67,1.3-1.25,1.92-1.9.13-.13.08-.42.12-.63a2,2,0,0,0-.62.11c-1.37.73-2.71,1.52-4.09,2.22a9.08,9.08,0,0,0-3.91,3,2.47,2.47,0,0,1,.12-.88,5.78,5.78,0,0,1,2.5-2.27c1.3-.7,2.57-1.45,3.87-2.12a3.63,3.63,0,0,0,2.24-4A1.72,1.72,0,0,1,47.46,200Z"></path>
      <polygon class="cls-11" points="0 185.19 49.08 205.7 93.67 186.78 49.08 171.06 0 185.19"></polygon>
      <path class="cls-12" d="M63.14,229.36v4.95c0,3.25-6.4,5.89-14.29,5.89s-14.28-2.64-14.28-5.89v-4.95"></path>
      <ellipse class="cls-12" cx="48.85" cy="229.36" rx="14.29" ry="5.89"></ellipse>
      <path class="cls-13" d="M51.91,224a57.9,57.9,0,0,0-6.63,10.9s-.47-.85-1.21-.78c.45-1.68,4-7.65,7.06-10.34Z"></path>
      <path class="cls-14" d="M45.28,234.87A56.45,56.45,0,0,1,51.91,224a4.24,4.24,0,0,1,1.1-.22,69.46,69.46,0,0,0-6.3,10.78A3.3,3.3,0,0,0,45.28,234.87Z"></path>
      <path class="cls-14" d="M40,232.76s-5.92-2.76-2.42-5.29,9.7-2.67,9.7-2.67S36.53,227.05,40,232.76Z"></path>
      <path class="cls-14" d="M35.92,233.38v1.4s2,2.65,8.35,3.74v-1.94A18.57,18.57,0,0,1,35.92,233.38Z"></path>
      <line class="cls-15" x1="91.82" y1="184.78" x2="96.37" y2="184.78"></line>
      <line class="cls-16" x1="102.31" y1="184.78" x2="111.23" y2="184.78"></line>
      <line class="cls-15" x1="114.21" y1="184.78" x2="118.75" y2="184.78"></line>
      <line class="cls-15" x1="89.32" y1="234.31" x2="93.87" y2="234.31"></line>
      <line class="cls-17" x1="100.65" y1="234.31" x2="110.82" y2="234.31"></line>
      <line class="cls-15" x1="114.21" y1="234.31" x2="118.75" y2="234.31"></line>
      <text class="cls-18" transform="translate(96.98 217.17)">1<tspan class="cls-19" x="18.47" y="0">см</tspan></text>
      <path class="cls-6" d="M46.09,193.6a1.34,1.34,0,0,0-1.3-.48c-.72.22-1,.79-.88,1a2.26,2.26,0,0,0,.27.27c.18.18.56-.32.57-.33S46.09,193.6,46.09,193.6Z"></path>
      <path class="cls-7" d="M46.47,194.47s-.22-1-.6-1a7.74,7.74,0,0,1-.78-.07l-.11.18s.37.65.52.7l.49.15C46.05,194.45,46.47,194.47,46.47,194.47Z"></path>
      <path class="cls-8" d="M46.44,194.59c0-.09.09-.31-.14-.38a3.5,3.5,0,0,0-.48-.1s-.59.45-.71.51-.19.07.15.17.34.19.65.15A.9.9,0,0,0,46.44,194.59Z"></path>
      <path class="cls-9" d="M45.82,194.11a4.44,4.44,0,0,0-.43.42c-.18.21-.21.27-.42.16s-.74-.18-.88-.38-.14-.19,0-.44a1.08,1.08,0,0,1,.69-.42.61.61,0,0,1,.69.15A1.66,1.66,0,0,1,45.82,194.11Z"></path>
      <path class="cls-6" d="M43.13,176.88a2,2,0,0,0-2-.29c-1,.54-1.2,1.45-1,1.71a3.83,3.83,0,0,0,.47.31c.31.2.71-.64.73-.65Z"></path>
      <path class="cls-7" d="M43.94,178s-.63-1.35-1.17-1.25a11.17,11.17,0,0,1-1.15.14l-.09.29s.72.82.95.84.65,0,.75.06A5.43,5.43,0,0,0,43.94,178Z"></path>
      <path class="cls-8" d="M43.93,178.2c0-.13,0-.47-.32-.5a5,5,0,0,0-.72,0s-.71.82-.85,1-.26.15.26.19.54.17,1,0A1.35,1.35,0,0,0,43.93,178.2Z"></path>
      <path class="cls-9" d="M42.89,177.7a5.43,5.43,0,0,0-.49.74c-.18.35-.21.45-.54.36s-1.13,0-1.39-.28-.25-.23-.08-.64a1.56,1.56,0,0,1,.87-.82.9.9,0,0,1,1,0A2.27,2.27,0,0,1,42.89,177.7Z"></path>
      <path class="cls-6" d="M39.14,183s-4.17-2.07-7.08.46S29,189.27,30,190a14.46,14.46,0,0,0,1.82.73c1.2.44,2-2.69,2-2.73S39.14,183,39.14,183Z"></path>
      <path class="cls-7" d="M42.69,186.3s-3.09-4.14-4.85-3.41S34,184.2,34,184.2l-.12,1.05s3,2.26,3.84,2.19,2.25-.33,2.6-.34A17.34,17.34,0,0,0,42.69,186.3Z"></path>
      <path class="cls-8" d="M42.81,186.93c0-.46-.21-1.64-1.46-1.48a17.86,17.86,0,0,0-2.45.52s-1.82,3.31-2.22,3.88-.78.69,1,.45,1.95.19,3.32-.64A4.67,4.67,0,0,0,42.81,186.93Z"></path>
      <path class="cls-9" d="M38.9,186a21.75,21.75,0,0,0-1.14,2.87c-.37,1.32-.39,1.68-1.58,1.61s-3.87.71-4.93,0-1-.58-.73-2.1,1-2.23,2.37-3.41a3.09,3.09,0,0,1,3.52-.74A7.91,7.91,0,0,1,38.9,186Z"></path>
      <path class="cls-6" d="M53.53,183.89s-3.49-2.06-6.17,0-3,4.84-2.18,5.51a12.42,12.42,0,0,0,1.54.75c1,.45,1.85-2.22,1.92-2.25S53.53,183.89,53.53,183.89Z"></path>
      <path class="cls-7" d="M56.41,187s-2.43-3.77-4-3.25-3.39.91-3.39.91l-.17.9s2.51,2.14,3.21,2.13,2-.15,2.28-.13A15.56,15.56,0,0,0,56.41,187Z"></path>
      <path class="cls-8" d="M56.48,187.51c0-.41-.09-1.44-1.18-1.38a16,16,0,0,0-2.16.31s-1.78,2.76-2.16,3.23-.72.55.87.46,1.68.28,2.92-.36A4.06,4.06,0,0,0,56.48,187.51Z"></path>
      <path class="cls-9" d="M53.14,186.44A19.16,19.16,0,0,0,52,188.87c-.4,1.11-.44,1.42-1.47,1.3s-3.4.38-4.28-.28-.85-.56-.5-1.86A4.83,4.83,0,0,1,48,185.21a2.71,2.71,0,0,1,3.11-.43A6.92,6.92,0,0,1,53.14,186.44Z"></path>
      <path class="cls-6" d="M62.77,180.2s-3.44-2.66-6.57-.86-3.84,4.76-3.05,5.59a12.32,12.32,0,0,0,1.54,1c1,.63,2.26-2.11,2.34-2.13S62.77,180.2,62.77,180.2Z"></path>
      <path class="cls-7" d="M65.43,183.85s-2.08-4.35-3.83-4a37.27,37.27,0,0,1-3.73.51l-.3.94S60,183.92,60.7,184s2.12.11,2.45.17A16.86,16.86,0,0,0,65.43,183.85Z"></path>
      <path class="cls-8" d="M65.43,184.45c0-.43.1-1.54-1.07-1.62a17.47,17.47,0,0,0-2.34,0s-2.27,2.7-2.74,3.15-.84.49.86.6,1.76.53,3.17,0A4.39,4.39,0,0,0,65.43,184.45Z"></path>
      <path class="cls-9" d="M62,182.87a19.4,19.4,0,0,0-1.56,2.43c-.58,1.13-.66,1.46-1.74,1.19s-3.68-.06-4.53-.87-.83-.71-.28-2.05,1.31-1.87,2.78-2.7a2.89,2.89,0,0,1,3.36-.05A7.56,7.56,0,0,1,62,182.87Z"></path>
      <path class="cls-6" d="M65.44,191.33a2.08,2.08,0,0,0,1.91-.94c.51-1,.18-2-.18-2a3.82,3.82,0,0,0-.59,0c-.39,0-.23,1-.25,1S65.44,191.33,65.44,191.33Z"></path>
      <path class="cls-7" d="M64.07,190.83s1.34.79,1.74.39.91-.81.91-.81l-.09-.3a4.27,4.27,0,0,0-1.32-.17c-.21.11-.58.35-.68.4A5.12,5.12,0,0,0,64.07,190.83Z"></path>
      <path class="cls-8" d="M64,190.67c.06.12.24.43.57.24a5.1,5.1,0,0,0,.62-.43s.12-1.13.17-1.33.14-.28-.34,0-.56.18-.85.56A1.43,1.43,0,0,0,64,190.67Z"></path>
      <path class="cls-9" d="M65.16,190.48a7.22,7.22,0,0,0,0-.93c-.05-.4-.09-.51.25-.63s1-.64,1.37-.57.34,0,.44.5a1.7,1.7,0,0,1-.26,1.22,1,1,0,0,1-.9.61A2.48,2.48,0,0,1,65.16,190.48Z"></path>
      <path class="cls-6" d="M32.66,192.07a2.68,2.68,0,0,0,2.52-1c.74-1.28.4-2.48,0-2.62a7.37,7.37,0,0,0-.75,0c-.49,0-.38,1.22-.4,1.24S32.66,192.07,32.66,192.07Z"></path>
      <path class="cls-7" d="M31,191.31s1.63,1.13,2.18.65,1.23-1,1.23-1l-.09-.39a5.51,5.51,0,0,0-1.67-.33c-.28.13-.77.4-.9.44A7.42,7.42,0,0,0,31,191.31Z"></path>
      <path class="cls-8" d="M30.85,191.1c.07.16.28.57.71.36a7.08,7.08,0,0,0,.83-.49s.25-1.43.33-1.68.2-.35-.43,0-.73.17-1.13.64A1.76,1.76,0,0,0,30.85,191.1Z"></path>
      <path class="cls-9" d="M32.39,191a9,9,0,0,0,.06-1.19c0-.52-.06-.65.38-.78s1.31-.73,1.78-.61.45.08.52.67a2.07,2.07,0,0,1-.44,1.53,1.17,1.17,0,0,1-1.19.7A3.08,3.08,0,0,1,32.39,191Z"></path>
      <path class="cls-6" d="M44.19,185.49a1.53,1.53,0,0,0,1.55.27c.77-.39,1-1.09.79-1.3a4.12,4.12,0,0,0-.36-.25c-.24-.16-.56.48-.58.49S44.19,185.49,44.19,185.49Z"></path>
      <path class="cls-7" d="M43.59,184.6s.45,1.05.87,1a8.58,8.58,0,0,1,.9-.09l.08-.22s-.54-.65-.72-.67-.5-.05-.58-.07A5.42,5.42,0,0,0,43.59,184.6Z"></path>
      <path class="cls-8" d="M43.6,184.45c0,.1,0,.37.24.4a3.48,3.48,0,0,0,.55,0s.57-.62.69-.72.2-.11-.2-.15-.41-.14-.75,0A1.06,1.06,0,0,0,43.6,184.45Z"></path>
      <path class="cls-9" d="M44.39,184.86a4,4,0,0,0,.4-.56c.15-.26.17-.34.43-.26s.87.05,1.07.25.19.18,0,.49a1.2,1.2,0,0,1-.69.61.68.68,0,0,1-.8,0A1.76,1.76,0,0,1,44.39,184.86Z"></path>
      <path class="cls-6" d="M58.2,191.41s3.91,1,5.88-1.75,1.45-5.47.48-5.87a11.78,11.78,0,0,0-1.68-.26c-1.1-.14-1.12,2.64-1.17,2.69S58.2,191.41,58.2,191.41Z"></path>
      <path class="cls-7" d="M54.58,189.33s3.4,2.89,4.74,1.94,3-1.84,3-1.84l-.1-.91s-3-1.32-3.66-1.1-1.83.71-2.13.78A15.11,15.11,0,0,0,54.58,189.33Z"></path>
      <path class="cls-8" d="M54.35,188.82c.13.38.5,1.34,1.51,1a15.54,15.54,0,0,0,2-.92s.9-3.13,1.13-3.69.52-.73-1-.19-1.68.22-2.68,1.18A4.08,4.08,0,0,0,54.35,188.82Z"></path>
      <path class="cls-9" d="M57.83,188.87a19,19,0,0,0,.41-2.64c.06-1.17,0-1.48,1-1.66s3.13-1.34,4.16-1,1,.29,1,1.63a4.78,4.78,0,0,1-1.34,3.33,2.66,2.66,0,0,1-2.83,1.3A6.82,6.82,0,0,1,57.83,188.87Z"></path>
      <path class="cls-6" d="M40.17,189.15s2.35,1.32,4.1-.06,1.93-3.26,1.37-3.7a7.47,7.47,0,0,0-1-.47c-.68-.29-1.2,1.5-1.24,1.52S40.17,189.15,40.17,189.15Z"></path>
      <path class="cls-7" d="M38.21,187.15s1.67,2.48,2.71,2.11a23.29,23.29,0,0,1,2.24-.65l.1-.6s-1.7-1.39-2.16-1.37-1.31.12-1.51.12A10.17,10.17,0,0,0,38.21,187.15Z"></path>
      <path class="cls-8" d="M38.16,186.79c0,.26.08,1,.8.89a10.94,10.94,0,0,0,1.43-.23s1.15-1.86,1.4-2.17.47-.38-.58-.3-1.13-.16-1.94.28A2.68,2.68,0,0,0,38.16,186.79Z"></path>
      <path class="cls-9" d="M40.39,187.45a11.58,11.58,0,0,0,.74-1.63c.26-.74.28-.95,1-.88s2.26-.3,2.85.12.58.37.36,1.24a3.17,3.17,0,0,1-1.46,1.9,1.8,1.8,0,0,1-2.06.33A4.83,4.83,0,0,1,40.39,187.45Z"></path>
      <path class="cls-20" d="M58.91,69.68l62.67,4.64a8.68,8.68,0,0,0,9.32-8.49l.78-40.19a8.68,8.68,0,0,0-9.32-8.83L59.85,21.44Z"></path>
      <ellipse class="cls-21" cx="59.38" cy="45.56" rx="24.12" ry="5.14" transform="translate(12.68 104.05) rotate(-88.89)"></ellipse>
      <ellipse class="cls-22" cx="59.35" cy="36.11" rx="11.13" ry="2.56" transform="translate(22.09 94.75) rotate(-88.89)"></ellipse>
      <path class="cls-23" d="M57.54,36.08c.1-5.59,1.14-10.2,2.4-11a.72.72,0,0,0-.38-.13c-1.41,0-2.65,4.93-2.77,11.08s.93,11.14,2.34,11.17a.72.72,0,0,0,.37-.11C58.28,46.31,57.43,41.67,57.54,36.08Z"></path>
      <path class="cls-22" d="M60.21,111.25l49.36-37a2.5,2.5,0,0,0-.59-4.34c-7.1-2.74-21.73-7.43-30.42-3.48C66.78,71.76,81.81,77,81.81,77L55.71,106.7Z"></path>
      <path class="cls-22" d="M108.22,17.75c0,1-8.2,3.19-9.25,3.48a2.4,2.4,0,0,1-3-1.67C96,19.42,92.6,7.7,85,6.16,77.8,4.71,60.1,2.36,50.43,11.74c-6.28,6.1-8.26,16.31-5.87,30.35A13.35,13.35,0,0,0,57.19,53.31h.58a2.4,2.4,0,0,1,2.42,2.39c0,1.34-.16,5.58-1.46,5.31-.63-.13-1.71-2.76-1.95-2.77-8.53-.24-15.5-6.77-17-15.35-2.67-15.71-.23-27.35,7.26-34.61C58.39-2.69,78-.16,85.92,1.44c10.54,2.13,15,14.8,15.5,15.15C102.25,17.17,108.22,17.52,108.22,17.75Z"></path>
      <path class="cls-20" d="M108.22,17.75c0,1-8.4,2.19-9.45,2.48-1.28.36-2,.21-2.41-1.07,0-.14-3.31-12.14-11-13.68-7.16-1.45-25.59-4-35.27,5.4-6.28,6.09-8.7,17.44-6.31,31.48A13.93,13.93,0,0,0,57.17,53.65c.79,0,2.59.74,2.6,2.06s0,4.85-1.3,4.58c-.63-.13-1.45-2-1.69-2-8.53-.24-15.5-6.77-17-15.35-2.67-15.71-.23-27.35,7.26-34.61C58.39-2.69,78-.16,85.92,1.44c10.54,2.13,15,14.8,15.5,15.15C102.25,17.17,108.22,17.52,108.22,17.75Z"></path>
      <path class="cls-22" d="M63.15,68.17l11.5.22s48.21,2.34,49.33,2.08,4.25-1.88,4.39-9.17.64-18.78.64-18.78S124.55,55.61,116.89,60s-51.09,2.1-51.09,2.1S64.86,67.08,63.15,68.17Z"></path>
      <path class="cls-20" d="M104.35,75.39a2.43,2.43,0,0,0-.58-4.22C96.86,68.5,86.44,63.72,78,67.57,66.5,72.8,81,77.89,81,77.89L55.71,106.7l2.87,2.92Z"></path>
      <polygon class="cls-20" points="50.31 110.06 56.74 104.89 62.06 110.23 57.95 113.67 50.31 110.06"></polygon>
      <polygon class="cls-22" points="57.8 112.76 61.12 110.3 59.74 108.87 55.66 111.97 57.8 112.76"></polygon>
      <polygon class="cls-10" points="58.96 108.48 56.38 106.38 52.2 109.66 56.11 105.72 58.96 108.48"></polygon>
      <path class="cls-24" d="M51.17,113.87s-12.65,12.8-6.75,17.42,12.5-1.7,8.46-8.5C49.24,116.7,51.17,113.87,51.17,113.87Z"></path>
      <path class="cls-25" d="M51.41,127.38c-.12,1.05.19,1.94.68,2a1.84,1.84,0,0,0,1.59-1.69c.09-1.23-.67-2.08-1.16-2.1S51.53,126.33,51.41,127.38Z"></path>
      <path class="cls-26" d="M49.24,117.45s-3.74,4.43-4,7.62,1.39,2.77,1.62,1.5S48.22,119.16,49.24,117.45Z"></path>
      <path class="cls-27" d="M59.92,161.36a12.25,12.25,0,0,0-3.68-.2,5.41,5.41,0,0,0-3.18,1.27,4,4,0,0,0-1,3.18c0,.59.14,1.26.23,1.93s.15,1.34.2,2a47.52,47.52,0,0,1-.23,8c-.12,1.32-.27,2.63-.32,3.93,0,.65,0,1.3,0,1.95,0,.29,0,.69.08.89l0,0s0,0-.07-.1-.35-.22-.56-.05-.12.17-.14.2h0v-.07l0-.23,0-.48c.07-2.64-.08-5.23-.23-7.91,0-1.33,0-2.69,0-4a11.83,11.83,0,0,0-.6-3.75,9.11,9.11,0,0,0-1.85-3.21,9.58,9.58,0,0,0-3-2.16,15.22,15.22,0,0,0-7.35-1.16h-.06a.91.91,0,1,1-.17-1.82h.08a17.36,17.36,0,0,1,8.1,1.75,10.9,10.9,0,0,1,3.31,2.58,10.1,10.1,0,0,1,2,3.68,14.48,14.48,0,0,1,.56,4.07c0,1.36-.06,2.65,0,4,.11,2.6.24,5.3.14,8l0,.51,0,.27a1.15,1.15,0,0,1,0,.16l0,.07c0,.05,0,.06-.18.25s-.62,0-.58,0a.46.46,0,0,1-.09-.14.29.29,0,0,1,0-.09,6.58,6.58,0,0,1-.12-1.08c-.05-.68-.05-1.35,0-2,0-1.34.18-2.67.29-4a40.31,40.31,0,0,0,.08-7.84c-.06-.65-.14-1.3-.25-1.94s-.23-1.27-.31-2a5.32,5.32,0,0,1,1.22-4.2A6.78,6.78,0,0,1,56,159.61a15.36,15.36,0,0,1,4.23-.05.92.92,0,0,1-.22,1.82h-.11Z"></path>
      <path class="cls-28" d="M50.85,165.39c-1.2-3.63,7.07-10,7.07-10"></path>
      <path class="cls-27" d="M53.74,160.37s6.08-5.68,7.53-7.19a104.06,104.06,0,0,1,9.88-8.66c2.89-2.05,4.79-5.78,5.09-6s7-4.9,0-3.61-3.57-2.13-9-.23-5.85,6.23-6.38,7.45-2.06,2.51-2.13,3.8-.61,7-1.45,8.33S50.47,161.32,53.74,160.37Z"></path>
      <path class="cls-27" d="M58.6,159.65s1.45.53,3.5-2.28,7.37-7.47,10.8-3.15c.27.34,1,2-.92,3.91s-1.29,3.34-.76,4,3.14,3.66.61,6.38c-3.57,3.85-8.63-.12-10.18-4.1s-1.52-3.08-4.72-3.57S58.6,159.65,58.6,159.65Z"></path>
      <path class="cls-27" d="M42.32,160.26s-2.16-14.1-10.7-8.21c-.8.55-4.11,4-.95,7.06.41.4.5.87-.27,1.76-2.18,2.52-1.5,11.62,6.62,8.21C41.64,167.13,42.32,160.26,42.32,160.26Z"></path>
      <path class="cls-29" d="M49.14,159.25s-.55-1.58-3.34-2.57-2-1.66-2.7-2.46-1.68-1.27-2-2,0-.82-2-1.85-1.45-2.09-1.9-3.08-2.51-2.13-2.51-4.41.46-3,0-4.79-.3-3.61,1.6-4,1.06,1,2.66,0,1.67.48,2.51-.07,1.28-1.12,2.61.07.49,2.57,2.4,2.72,1.9,1.59,2.13,2.81,1.22,1.83,1.37,2.51-.47,4.62.79,4.21.81.43.73,1.41-1.38,3.87-.73,4.48a2.37,2.37,0,0,1,.43,3.51,6.84,6.84,0,0,0-1.29,4.61C49.86,161.63,49.14,159.25,49.14,159.25Z"></path>
      <path class="cls-27" d="M39.45,138.48a45.93,45.93,0,0,1,4.73,7.13,71.2,71.2,0,0,1,3.45,7.86c1,2.66,2,5.34,2.92,8.06.44,1.37.86,2.74,1.21,4.13a23.53,23.53,0,0,1,.76,4.28.36.36,0,0,1-.34.39.36.36,0,0,1-.38-.34h0v0A38.17,38.17,0,0,0,50,161.7c-.82-2.73-1.76-5.43-2.74-8.1A71.74,71.74,0,0,0,44,145.7,45.3,45.3,0,0,0,39.45,138.48Z"></path>
      <path class="cls-27" d="M49.14,148.78a.58.58,0,0,1,.09.61,2.14,2.14,0,0,1-.32.57c-.26.34-.6.63-.86.94a2.69,2.69,0,0,0-.56,1.07,2,2,0,0,0,0,1.13v0a.23.23,0,0,1-.13.3.24.24,0,0,1-.3-.14v0a2.58,2.58,0,0,1,.76-2.51c.32-.31.66-.55.94-.87a1.78,1.78,0,0,0,.35-.51A.55.55,0,0,0,49.14,148.78Z"></path>
      <path class="cls-27" d="M43.1,151a2.25,2.25,0,0,0,1,1.15,2.11,2.11,0,0,0,1.46.18,1.86,1.86,0,0,1,1.56.44,3,3,0,0,1,.85,1.42.22.22,0,0,1-.43.13v0h0a2.65,2.65,0,0,0-.64-1.27,1.62,1.62,0,0,0-1.3-.47,2.28,2.28,0,0,1-1.55-.3A2.37,2.37,0,0,1,43.1,151Z"></path>
      <path class="cls-27" d="M38.19,145.21A15.78,15.78,0,0,0,40,146.7a6,6,0,0,0,2,1,1.54,1.54,0,0,0,1-.08,1.6,1.6,0,0,1,1.25-.15A3.27,3.27,0,0,1,46,149.22a.23.23,0,0,1-.09.31.23.23,0,0,1-.31-.1h0v0a3,3,0,0,0-1.42-1.57,1.32,1.32,0,0,0-1,.08,1.74,1.74,0,0,1-1.23.05,6.43,6.43,0,0,1-2-1.16A16.1,16.1,0,0,1,38.19,145.21Z"></path>
      <path class="cls-27" d="M46.75,142.09a2.89,2.89,0,0,1,.6,2.11,4.8,4.8,0,0,1-.76,2.1l-.57,1a1.54,1.54,0,0,0-.29,1,8.81,8.81,0,0,0,.7,2h0a.25.25,0,0,1-.13.3.24.24,0,0,1-.3-.13h0a8.61,8.61,0,0,1-.62-2.2,1.81,1.81,0,0,1,.39-1.12l.62-.92a5,5,0,0,0,.84-2A2.83,2.83,0,0,0,46.75,142.09Z"></path>
      <path class="cls-27" d="M44,138.48a2.37,2.37,0,0,1-.23,1.54,3.59,3.59,0,0,1-.45.65,2,2,0,0,0-.48.59,2.21,2.21,0,0,0,0,1.46,5.79,5.79,0,0,0,.62,1.39h0a.18.18,0,0,1-.06.23.17.17,0,0,1-.24-.06h0a5.9,5.9,0,0,1-.58-1.51,1.9,1.9,0,0,1,.65-2.2,2.75,2.75,0,0,0,.48-.6A2.38,2.38,0,0,0,44,138.48Z"></path>
      <path class="cls-27" d="M38.19,141.34a1.74,1.74,0,0,0,1.69.77c.33,0,.63-.09,1-.1a1.89,1.89,0,0,1,1,.28,4.81,4.81,0,0,1,1.41,1.43,10.28,10.28,0,0,1,1,1.76.17.17,0,0,1-.09.23.18.18,0,0,1-.22-.09h0a9.66,9.66,0,0,0-.85-1.74,4.48,4.48,0,0,0-1.28-1.42,1.69,1.69,0,0,0-.89-.3c-.31,0-.65.07-1,.06A1.8,1.8,0,0,1,38.19,141.34Z"></path>
      <path class="cls-30" d="M73.28,142a13.14,13.14,0,0,1-1.13,1.11c-.39.35-.79.7-1.19,1-.81.67-1.61,1.36-2.43,2s-1.62,1.34-2.4,2-1.57,1.38-2.32,2.11c-1.48,1.46-2.92,3-4.4,4.49s-3,3-4.43,4.46c-.73.76-1.44,1.53-2.1,2.33l-.1.12a4.29,4.29,0,0,0-1.24,1h0a.18.18,0,0,0,0,.24.19.19,0,0,0,.24,0l0,0a2.26,2.26,0,0,1,.25-.29c-.05.06-.09.13-.14.2a3.84,3.84,0,0,0-.62,1.35c0,.12,0,.24,0,.37s0,.22,0,.36.05.51.09.77l.22,1.55c.16,1,.32,2.08.46,3.12a35.89,35.89,0,0,1,.44,6.3c0,2.1-.22,4.22-.41,6.28v0a.17.17,0,0,1-.18.15.17.17,0,0,1-.16-.18c.2-2.12.36-4.19.39-6.28a37.39,37.39,0,0,0-.44-6.25c-.1-.67-.2-1.34-.31-2a8.43,8.43,0,0,1,.25,1.49v0a.16.16,0,0,0,.18.15.17.17,0,0,0,.15-.19,11,11,0,0,0-.88-3.4l-.11-.73c0-.26-.07-.52-.09-.8a2.84,2.84,0,0,1,0-.42,3.05,3.05,0,0,1,0-.41,4.37,4.37,0,0,1,.66-1.51,15,15,0,0,1,.94-1.28c.67-.83,1.38-1.61,2.1-2.37,1.45-1.54,2.94-3,4.39-4.52,1.21-1.25,2.39-2.52,3.63-3.75a3.8,3.8,0,0,1-.26.49h0a.11.11,0,0,0,.18.14,4.56,4.56,0,0,0,.8-1.29,1,1,0,0,0,0-.1h0c.75-.73,1.54-1.45,2.35-2.12s1.64-1.32,2.48-2c.44-.35.9-.69,1.36-1l-.07.11a2.46,2.46,0,0,1-.8.68h0a.11.11,0,0,0,0,.15.12.12,0,0,0,.14.06,3,3,0,0,0,1.46-1.49l.5-.37C71.62,143.3,72.48,142.7,73.28,142Z"></path>
      <path class="cls-30" d="M52,169.84a.17.17,0,0,1-.15.19.16.16,0,0,1-.18-.15v0a8.43,8.43,0,0,0-.25-1.49c-.05-.37-.11-.73-.17-1.1l-.12-.83A11,11,0,0,1,52,169.84Z"></path>
      <path class="cls-30" d="M52.78,161.69c-.24.29-.47.6-.69.92a2.26,2.26,0,0,0-.25.29l0,0a.19.19,0,0,1-.24,0,.18.18,0,0,1,0-.24h0A4.29,4.29,0,0,1,52.78,161.69Z"></path>
      <path class="cls-30" d="M63.41,149.9a1,1,0,0,1,0,.1,4.56,4.56,0,0,1-.8,1.29.11.11,0,0,1-.18-.14h0a3.8,3.8,0,0,0,.26-.49Z"></path>
      <path class="cls-30" d="M70.28,144.3a3,3,0,0,1-1.46,1.49.12.12,0,0,1-.14-.06.11.11,0,0,1,0-.15h0a2.46,2.46,0,0,0,.8-.68l.07-.11Z"></path>
      <path class="cls-30" d="M71.83,137.45a14.87,14.87,0,0,0-.57,2.18c-.14.74-.25,1.48-.34,2.22a7,7,0,0,1-.53,2.23l-.11.22a3,3,0,0,1-1.46,1.49.12.12,0,0,1-.14-.06.11.11,0,0,1,0-.15h0a2.46,2.46,0,0,0,.8-.68l.07-.11a3.27,3.27,0,0,0,.48-.83,7.6,7.6,0,0,0,.56-2.13,21.39,21.39,0,0,1,.43-2.23A12.3,12.3,0,0,1,71.83,137.45Z"></path>
      <path class="cls-30" d="M65.56,141.56c0,.49,0,1,0,1.48a6.6,6.6,0,0,1-.32,1.45,8.35,8.35,0,0,1-.63,1.35,7,7,0,0,0-.57,1.3,11.39,11.39,0,0,0-.2,1.41,6.16,6.16,0,0,1-.39,1.35,1,1,0,0,1,0,.1,4.56,4.56,0,0,1-.8,1.29.11.11,0,0,1-.18-.14h0a3.8,3.8,0,0,0,.26-.49,7.57,7.57,0,0,0,.66-2.17c0-.24,0-.46.09-.72a3.26,3.26,0,0,1,.17-.75,6.79,6.79,0,0,1,.64-1.36A7.07,7.07,0,0,0,65.27,143c.07-.47.1-1,.15-1.45l0-.73,0-.36v-.27s0,0,0,0h0s0,0,0,0a.31.31,0,0,1,0,.1,1.1,1.1,0,0,1,0,.18c0,.12,0,.24,0,.37Z"></path>
      <path class="cls-30" d="M66,160c-.55,0-1.3-.1-1.81-.12l-1.82-.09c-.64,0-1.16,0-1.82,0l-2,0a10.46,10.46,0,0,0-4.14.77,4.81,4.81,0,0,0-.8.47,4.49,4.49,0,0,0-.71.58,5.75,5.75,0,0,0-.87,1.11,2.74,2.74,0,0,0-.17.36c0,.08,0,0,0,.05a.2.2,0,0,1-.22.09.19.19,0,0,1-.1-.22s0,0,0,0c.43-.42.58-.94,1-1.39a5.33,5.33,0,0,1,.41-.39,4.37,4.37,0,0,1,.58-.43,5.74,5.74,0,0,1,.83-.45,10.71,10.71,0,0,1,4.23-.71l2,.06c.65,0,1.18,0,1.81.09l1.82.12Z"></path>
      <path class="cls-30" d="M52,169.84a.17.17,0,0,1-.15.19.16.16,0,0,1-.18-.15v0a8.43,8.43,0,0,0-.25-1.49,10,10,0,0,0-.31-1.07,11,11,0,0,0-1.15-2.36,10.52,10.52,0,0,0-3.82-3.56,9,9,0,0,0-2.46-.92,12,12,0,0,0-1.32-.2c-.44,0-.89-.06-1.33-.13a19.74,19.74,0,0,1-5.11-1.55A21.37,21.37,0,0,0,41,160c.44.06.88.06,1.33.09a11.81,11.81,0,0,1,1.33.18,8.89,8.89,0,0,1,2.55.89,11,11,0,0,1,4.87,5.28A11,11,0,0,1,52,169.84Z"></path>
    </g>
  </g>
</svg>
