<?xml version="1.0" encoding="UTF-8"?>
<svg xmlns="http://www.w3.org/2000/svg" xmlns:xlink="http://www.w3.org/1999/xlink" viewBox="0 0 110.12 132.38">
  <defs>
    <style>.cls-1{fill:none;}.cls-2{fill:#8e6848;}.cls-3{clip-path:url(#clip-path);}.cls-4{fill:url(#Безымянный_градиент_2);}.cls-5{fill:#713e21;}.cls-6{fill:#3d271f;}.cls-7{fill:#69391e;}.cls-8{fill:#6b472f;}.cls-9{fill:#5c3624;}.cls-10{fill:#795135;}.cls-11{fill:#9a734f;}.cls-12{fill:#85563a;}.cls-13{fill:#fff;}.cls-14{fill:#402d22;}.cls-15{fill:#d2c9be;}.cls-16{fill:#cae36f;}.cls-17{fill:#6b482f;}</style>
    <clipPath id="clip-path">
      <polygon class="cls-1" points="7.72 103.71 57.69 127.23 103.91 103.82 55.86 83.46 7.72 103.71"></polygon>
    </clipPath>
    <linearGradient id="Безымянный_градиент_2" x1="-2621.52" y1="-75.59" x2="-2618.72" y2="-75.59" gradientTransform="matrix(34.36, 0, 0, -34.36, 90061.57, -2491.64)" gradientUnits="userSpaceOnUse">
      <stop offset="0" stop-color="#9b714e"></stop>
      <stop offset="0.38" stop-color="#9b714e"></stop>
      <stop offset="0.89" stop-color="#764528"></stop>
      <stop offset="1" stop-color="#6e3c20"></stop>
    </linearGradient>
  </defs>
  <g id="Слой_2" data-name="Слой 2">
    <g id="Слой_1-2" data-name="Слой 1">
      <path class="cls-2" d="M57.69,61.07s9.62,11.3,17.06,11.76,32.81-7.56,32.81-7.56l2.56-26.43L57.69,20.35Z"></path>
      <path class="cls-2" d="M0,37,5.23,71.44s18.58,2.79,21.83,1.86,18.12-6.51,22.29-6.51,8.34-5.72,8.34-5.72V20.35Z"></path>
      <g class="cls-3">
        <rect class="cls-4" x="31.38" y="56.14" width="48.87" height="98.4" transform="translate(-52.37 155.42) rotate(-86.92)"></rect>
      </g>
      <path class="cls-5" d="M7.72,103.71,5.23,71.44S28.92,71,35.42,67.72s22.27-6.65,22.27-6.65L55.86,83.46Z"></path>
      <path class="cls-6" d="M41.49,73.44a8.37,8.37,0,0,0-2.84-1.66l0,0s-3.79-1.14-5.85,1.41-1.71,5.29-.77,5.73a12.35,12.35,0,0,0,1.63.35l.09,0a30.2,30.2,0,0,0,3.51-.79,2,2,0,0,0,.6-.16l.65-.19c1.49-.46,1.67-.13,2.69-1a4,4,0,0,0,1.09-2.55L42.1,74h0l0,0a1,1,0,0,0-.58-.51"></path>
      <path class="cls-6" d="M21.2,76.77a11,11,0,0,0-4,1.33v0s-4.3,2.69-3.59,6.84,3.66,6.13,4.88,5.6a13.64,13.64,0,0,0,1.71-1.28l0-.13c.92-1,1.59-3.16,2.21-4a2.1,2.1,0,0,0,.35-.72c.11-.21.21-.42.38-.79.8-1.82,1.28-1.71,1.29-3.46a5.12,5.12,0,0,0-1.54-3.21,3.36,3.36,0,0,0-.66-.22v0h-.08a1.31,1.31,0,0,0-1,.14"></path>
      <path class="cls-7" d="M57.69,61.07,55.86,83.46l48.06,20.36,3.64-38.55s-15-1.73-21.48-.8-17.84,3.72-21.24,1.86a45.07,45.07,0,0,1-7.15-5.26"></path>
      <path class="cls-6" d="M39.39,84.07a3.49,3.49,0,0,0-1.26-.31h0a2.29,2.29,0,0,0-2,1.18c-.49,1.18-.05,2.18.35,2.24l.65-.06,0,0a12.3,12.3,0,0,0,1.23-.69l.21-.13.22-.14c.51-.34.61-.24.9-.69a1.59,1.59,0,0,0,.12-1.08l-.13-.16h0Z"></path>
      <path class="cls-6" d="M86.47,74.43a2.3,2.3,0,0,0-.11-.89h0s-.38-1-1.27-1-1.43.5-1.38.78l.2.41h0l.75.63.13.11.15.11c.35.24.3.34.66.41a1.06,1.06,0,0,0,.74-.19l.07-.12h0v-.23Z"></path>
      <path class="cls-6" d="M99.89,90.62A11,11,0,0,0,98,86.8h0s-3.32-3.91-7.36-2.6-5.59,4.54-4.88,5.69A15.38,15.38,0,0,0,87.3,91.4l.14,0c1.19.77,3.39,1.13,4.37,1.61a2.24,2.24,0,0,0,.77.26l.84.26c1.93.54,1.9,1,3.64.79a5.19,5.19,0,0,0,3-2,3.74,3.74,0,0,0,.13-.68h0l0-.07a1.26,1.26,0,0,0-.28-1"></path>
      <path class="cls-6" d="M73.78,77.33A8.48,8.48,0,0,0,71.91,80l0,0s-1.4,3.67,1,5.9S78,88,78.48,87.09a12.49,12.49,0,0,0,.46-1.59l0-.1a27.85,27.85,0,0,0-.52-3.53,1.77,1.77,0,0,0-.12-.61c0-.17-.07-.36-.13-.66-.35-1.5,0-1.65-.81-2.74a4,4,0,0,0-2.44-1.26l-.51.17h0l0,0a1,1,0,0,0-.54.54"></path>
      <path class="cls-8" d="M74,104.71a1.58,1.58,0,0,0,1.57-.41c.54-.7.43-1.44.17-1.55l-.44-.09c-.29,0-.32.69-.33.71Z"></path>
      <path class="cls-9" d="M73,104.13s.87.79,1.23.55.8-.46.8-.46l0-.24-1-.32-.56.19Z"></path>
      <path class="cls-10" d="M73,104c0,.1.12.35.4.26a5,5,0,0,0,.52-.22l.33-1c.06-.14.14-.19-.25-.06s-.45,0-.72.29a1.11,1.11,0,0,0-.28.7"></path>
      <path class="cls-11" d="M73.88,104a5.57,5.57,0,0,0,.13-.7c0-.31,0-.39.28-.43s.84-.33,1.11-.22.26.08.26.44a1.24,1.24,0,0,1-.39.86.69.69,0,0,1-.75.33,1.87,1.87,0,0,1-.64-.28"></path>
      <path class="cls-8" d="M63.28,98.58s2.39.13,3.24-1.66.26-3.36-.36-3.49a6.06,6.06,0,0,0-1,0c-.66,0-.37,1.66-.39,1.7Z"></path>
      <path class="cls-9" d="M60.93,97.76s2.3,1.32,3,.62S65.44,97,65.44,97l-.15-.52A7.22,7.22,0,0,0,63,96.21c-.36.2-1,.62-1.16.69Z"></path>
      <path class="cls-10" d="M60.74,97.49c.11.21.43.73,1,.4a8.38,8.38,0,0,0,1.05-.75S63,95.2,63,94.85s.22-.48-.58,0-1,.31-1.44,1a2.41,2.41,0,0,0-.28,1.66"></path>
      <path class="cls-11" d="M62.78,97.14a11.07,11.07,0,0,0-.05-1.59c-.09-.7-.16-.87.42-1.09s1.68-1.12,2.32-1,.6.06.77.84a2.88,2.88,0,0,1-.41,2.1,1.61,1.61,0,0,1-1.52,1.07,4,4,0,0,1-1.53-.31"></path>
      <path class="cls-8" d="M53.32,106.35s1.86,1.42,3.54.43,2-2.58,1.62-3a7,7,0,0,0-.84-.53c-.55-.33-1.21,1.15-1.25,1.17Z"></path>
      <path class="cls-9" d="M51.86,104.4s1.15,2.33,2.08,2.14,2-.3,2-.3l.16-.5s-1.29-1.4-1.7-1.44-1.14,0-1.32-.08Z"></path>
      <path class="cls-10" d="M51.86,104.08c0,.23,0,.83.59.87a9.13,9.13,0,0,0,1.26,0l1.46-1.7c.25-.25.45-.27-.47-.33s-1-.27-1.7,0a2.35,2.35,0,0,0-1.14,1.19"></path>
      <path class="cls-11" d="M53.71,104.91a11.08,11.08,0,0,0,.83-1.31c.3-.61.35-.79.93-.65s2,0,2.44.44.45.38.17,1.11A2.85,2.85,0,0,1,56.59,106a1.58,1.58,0,0,1-1.81,0,4,4,0,0,1-1.07-1.1"></path>
      <path class="cls-8" d="M49,99.92a2.67,2.67,0,0,0,.1-2.73c-.86-1.21-2.11-1.39-2.41-1l-.35.68c-.22.44,1,.84,1,.87Z"></path>
      <path class="cls-9" d="M47.63,101.15s1.7-1,1.49-1.73a15.22,15.22,0,0,1-.35-1.5l-.4-.09s-1,1.08-1,1.39,0,.87,0,1Z"></path>
      <path class="cls-10" d="M47.39,101.17c.18,0,.63,0,.62-.5a7.72,7.72,0,0,0-.11-1l-1.4-1c-.2-.17-.23-.32-.21.38s-.15.74.12,1.3a1.75,1.75,0,0,0,1,.78"></path>
      <path class="cls-11" d="M47.9,99.71a7.93,7.93,0,0,0-1.06-.54c-.49-.2-.62-.21-.55-.67s-.13-1.51.17-1.89.26-.37.84-.2a2.12,2.12,0,0,1,1.21,1,1.18,1.18,0,0,1,.15,1.38,3,3,0,0,1-.76.88"></path>
      <path class="cls-8" d="M40.56,101.93a1.17,1.17,0,0,0,.38-1.12c-.2-.61-.69-.84-.86-.73l-.23.23.29.48Z"></path>
      <path class="cls-9" d="M39.82,102.26s.83-.2.84-.52,0-.67,0-.67l-.15-.09-.58.45-.12.42Z"></path>
      <path class="cls-10" d="M39.71,102.24l.33-.13.08-.41-.46-.59c-.06-.1,0-.17-.13.13s-.16.29-.12.55a.77.77,0,0,0,.3.45"></path>
      <path class="cls-11" d="M40.12,101.7l-.37-.36L39.6,101l.32-.76.37,0a1,1,0,0,1,.37.59.51.51,0,0,1-.12.59Z"></path>
      <path class="cls-8" d="M38,106.6s1.64-2.64.13-4.72-3.65-2.39-4.18-1.77a8.62,8.62,0,0,0-.6,1.16c-.37.77,1.66,1.46,1.69,1.51Z"></path>
      <path class="cls-9" d="M35.56,108.76s2.94-1.8,2.56-3-.63-2.62-.63-2.62L36.8,103s-1.69,1.88-1.69,2.42.08,1.51.06,1.75Z"></path>
      <path class="cls-10" d="M35.13,108.79c.31,0,1.1,0,1.07-.87a12.44,12.44,0,0,0-.19-1.66s-2.09-1.41-2.44-1.72-.41-.56-.36.66-.25,1.29.21,2.24a3.1,3.1,0,0,0,1.71,1.35"></path>
      <path class="cls-11" d="M36,106.26a14.22,14.22,0,0,0-1.84-.93c-.85-.33-1.08-.37-1-1.16s-.23-2.61.29-3.27.45-.65,1.44-.35a3.69,3.69,0,0,1,2.12,1.78,2.05,2.05,0,0,1,.27,2.38A5.33,5.33,0,0,1,36,106.26"></path>
      <polygon class="cls-12" points="0 36.97 57.69 61.07 110.12 38.84 57.69 20.34 0 36.97"></polygon>
      <path class="cls-13" d="M56.34,63.05a2.53,2.53,0,0,0-.16,1.11,5,5,0,0,0,.25,1.3,8.12,8.12,0,0,0,.51,1.28c.1.2.22.41.33.61l.35.71a3.31,3.31,0,0,1,.27,1.64,2.82,2.82,0,0,1-.75,1.5c-.35.37-.71.73-.68.92s.41.67.65,1.09a2.46,2.46,0,0,1,.41,1.58,5.73,5.73,0,0,1-.42,1.49,11.39,11.39,0,0,0-.54,1.31,1,1,0,0,0,0,.55c0,.13.27.3.41.59a2.38,2.38,0,0,1-.07,1.59c-.15.48-.31.91-.42,1.38a5.53,5.53,0,0,0-.17,1.4,2.19,2.19,0,0,0,.36,1.28l0,0a.14.14,0,0,1,0,.18.15.15,0,0,1-.19,0h0a3.64,3.64,0,0,1-.38-2.94c.1-.48.26-1,.38-1.42a2,2,0,0,0,0-1.26c-.06-.16-.27-.28-.43-.59a1.37,1.37,0,0,1,0-.89c.13-.52.36-.95.51-1.4a5,5,0,0,0,.33-1.32,1.76,1.76,0,0,0-.36-1.16c-.12-.19-.26-.38-.41-.58a1.69,1.69,0,0,1-.39-.83,1.37,1.37,0,0,1,.33-.92l.48-.57A2,2,0,0,0,57,69.6a2.44,2.44,0,0,0-.25-1.18l-.33-.59c-.12-.22-.26-.43-.37-.65a9.8,9.8,0,0,1-.63-1.4,6.22,6.22,0,0,1-.34-1.55,3.22,3.22,0,0,1,.26-1.75.56.56,0,0,1,1,.47l0,0Z"></path>
      <path class="cls-14" d="M54.73,63a1.79,1.79,0,0,0,2.5-.37c.69-.79,1.1-2.21.41-2.8s-2.19-.15-2.89.64A1.8,1.8,0,0,0,54.73,63Z"></path>
      <path class="cls-15" d="M54.73,63a1.58,1.58,0,0,0,1.39.28,2.1,2.1,0,0,0,1.16-.82,3.4,3.4,0,0,0,.6-1.31,1.29,1.29,0,0,0-.32-1.3,1.66,1.66,0,0,0-1.38-.15,2.91,2.91,0,0,0-1.28.69,2.08,2.08,0,0,0-.65,1.28A1.58,1.58,0,0,0,54.73,63Zm0,0a1.88,1.88,0,0,1,.13-2.69,3,3,0,0,1,1.3-.73,1.75,1.75,0,0,1,1.48.15,1.42,1.42,0,0,1,.4,1.43,3.3,3.3,0,0,1-.63,1.37,2.16,2.16,0,0,1-1.26.81A1.61,1.61,0,0,1,54.72,63Z"></path>
      <path class="cls-16" d="M66.67,25.7a.43.43,0,0,1-.57,0,1.42,1.42,0,0,1-.34-.36,4.8,4.8,0,0,1-.4-.78,12.15,12.15,0,0,1-.48-1.6,25.61,25.61,0,0,1-.5-3.22c-.18-2.16-.22-4.3-.2-6.44,0-1.08,0-2.17.09-3.23a17.73,17.73,0,0,0-.09-3,17.54,17.54,0,0,0-.57-2.92,12.07,12.07,0,0,0-1.15-2.65h0l1.18.3a5.84,5.84,0,0,0-.92.72,6.64,6.64,0,0,0-.85,1,10.34,10.34,0,0,0-.71,1.1,11,11,0,0,0-.54,1.22,14.82,14.82,0,0,0-.92,5.36c-.05.93.09,1.86.13,2.79s.25,1.86.44,2.79.39,1.84.65,2.76l.82,2.73v.07a25.49,25.49,0,0,1,.45,2.78c.09.92.14,1.85.14,2.79a14.91,14.91,0,0,1-1,5.62.94.94,0,1,1-1.73-.71h0v0a13.07,13.07,0,0,0,.86-4.9,24.76,24.76,0,0,0-.13-2.58,22.81,22.81,0,0,0-.41-2.54l0,.08L59.11,20c-.26-.95-.45-1.93-.68-2.89s-.31-2-.47-2.95-.18-2-.13-3a16.74,16.74,0,0,1,1-6,15,15,0,0,1,.64-1.42,12.68,12.68,0,0,1,.86-1.34A7.89,7.89,0,0,1,62.8.14l.05,0A.83.83,0,0,1,64,.4l0,0h0a7,7,0,0,1,1.94,3,11.48,11.48,0,0,1,.64,3.4,16.13,16.13,0,0,1-.09,3.4l-.39,3.14c-.24,2.11-.45,4.23-.5,6.35,0,1.06,0,2.12.09,3.17a11.62,11.62,0,0,0,.2,1.57,5.67,5.67,0,0,0,.24.73c.1.22.3.43.38.34a.13.13,0,0,1,.18,0,.12.12,0,0,1,0,.16Z"></path>
      <path class="cls-17" d="M60.93,40.69a1.41,1.41,0,0,0-1.36-.5c-.76.23-1,.83-.93,1a2.61,2.61,0,0,0,.29.29c.18.18.58-.34.6-.34Z"></path>
      <path class="cls-9" d="M61.32,41.6s-.23-1-.62-1-.82-.07-.82-.07l-.11.18s.38.68.53.73l.52.15A3.64,3.64,0,0,0,61.32,41.6Z"></path>
      <path class="cls-10" d="M61.29,41.73c0-.09.1-.33-.15-.4a4.51,4.51,0,0,0-.5-.11s-.61.47-.74.54-.2.07.16.17.35.2.67.16A.94.94,0,0,0,61.29,41.73Z"></path>
      <path class="cls-11" d="M60.64,41.22a4.25,4.25,0,0,0-.45.45c-.18.21-.21.28-.43.17s-.78-.19-.93-.41-.14-.19,0-.45a1.09,1.09,0,0,1,.73-.44.62.62,0,0,1,.72.15A1.68,1.68,0,0,1,60.64,41.22Z"></path>
      <path class="cls-17" d="M41.61,33.67a2.07,2.07,0,0,0-2.11-.3c-1,.56-1.25,1.51-1,1.78a4.52,4.52,0,0,0,.49.33c.32.2.74-.67.76-.68Z"></path>
      <path class="cls-9" d="M42.45,34.85s-.65-1.4-1.21-1.3a10.76,10.76,0,0,1-1.2.15l-.1.3s.75.85,1,.88.68,0,.79.07A5.37,5.37,0,0,0,42.45,34.85Z"></path>
      <path class="cls-10" d="M42.45,35.05c0-.14,0-.5-.34-.53a5.4,5.4,0,0,0-.75,0s-.74.86-.89,1-.28.15.27.19.56.18,1,0A1.43,1.43,0,0,0,42.45,35.05Z"></path>
      <path class="cls-11" d="M41.36,34.52a6.82,6.82,0,0,0-.51.78c-.19.36-.22.47-.57.37s-1.18,0-1.45-.29-.26-.24-.08-.66a1.65,1.65,0,0,1,.9-.86.92.92,0,0,1,1.08,0A2.37,2.37,0,0,1,41.36,34.52Z"></path>
      <path class="cls-17" d="M55.26,30.88s-4.35-2.17-7.39.48-3.19,6-2.15,6.79a14.78,14.78,0,0,0,1.91.76c1.25.46,2-2.81,2.1-2.86S55.26,30.88,55.26,30.88Z"></path>
      <path class="cls-9" d="M59,34.31S55.74,30,53.9,30.75s-4,1.37-4,1.37l-.12,1.09s3.17,2.36,4,2.29,2.35-.35,2.72-.35A18.26,18.26,0,0,0,59,34.31Z"></path>
      <path class="cls-10" d="M59.09,35c0-.48-.22-1.72-1.52-1.55A18.83,18.83,0,0,0,55,34s-1.9,3.45-2.32,4.05-.81.72,1.08.47,2,.2,3.47-.66A4.9,4.9,0,0,0,59.09,35Z"></path>
      <path class="cls-11" d="M55,34a23.23,23.23,0,0,0-1.19,3c-.39,1.37-.41,1.75-1.65,1.68s-4,.74-5.16,0-1.06-.6-.75-2.19,1-2.33,2.47-3.57a3.24,3.24,0,0,1,3.68-.77A8.32,8.32,0,0,1,55,34Z"></path>
      <path class="cls-17" d="M72,32.27s-2.51-3.41-5.91-2.57-4.88,3.42-4.36,4.4a12.65,12.65,0,0,0,1.17,1.35c.79.86,2.69-1.36,2.76-1.37S72,32.27,72,32.27Z"></path>
      <path class="cls-9" d="M73.5,36.4s-.78-4.63-2.51-4.77-3.63-.53-3.63-.53l-.53.8S68.35,35,69,35.27s2,.67,2.24.81A17.21,17.21,0,0,0,73.5,36.4Z"></path>
      <path class="cls-10" d="M73.33,37c.16-.39.51-1.42-.56-1.8a15.77,15.77,0,0,0-2.2-.6s-2.85,1.92-3.41,2.21-.92.24.65.8,1.5,1,3,.87A4.25,4.25,0,0,0,73.33,37Z"></path>
      <path class="cls-11" d="M70.57,34.56a19.09,19.09,0,0,0-2.11,1.85c-.85.91-1,1.19-1.95.65s-3.42-1-4-2-.59-.89.28-2,1.74-1.39,3.33-1.78a2.83,2.83,0,0,1,3.16.87A7.3,7.3,0,0,1,70.57,34.56Z"></path>
      <path class="cls-17" d="M60.34,34s-3.6-2.78-6.86-.9-4,5-3.2,5.84a14.8,14.8,0,0,0,1.61,1c1.07.65,2.37-2.21,2.45-2.24S60.34,34,60.34,34Z"></path>
      <path class="cls-9" d="M63.12,37.85s-2.18-4.54-4-4.18-3.9.54-3.9.54l-.31,1S57.4,37.93,58.18,38s2.22.11,2.55.17A16.6,16.6,0,0,0,63.12,37.85Z"></path>
      <path class="cls-10" d="M63.12,38.48c.05-.45.11-1.61-1.12-1.69a17.09,17.09,0,0,0-2.44,0s-2.37,2.82-2.86,3.29-.88.51.9.63,1.83.55,3.3,0A4.56,4.56,0,0,0,63.12,38.48Z"></path>
      <path class="cls-11" d="M59.56,36.83a20.82,20.82,0,0,0-1.64,2.53c-.6,1.19-.69,1.53-1.82,1.24s-3.83-.05-4.73-.9-.86-.75-.29-2.15,1.37-1.95,2.9-2.82a3,3,0,0,1,3.52,0A7.76,7.76,0,0,1,59.56,36.83Z"></path>
      <path class="cls-17" d="M79.06,40.34a2.17,2.17,0,0,0,2-1c.54-1.09.19-2-.18-2.14a4.43,4.43,0,0,0-.62,0c-.4,0-.24,1-.26,1S79.06,40.34,79.06,40.34Z"></path>
      <path class="cls-9" d="M77.63,39.82s1.4.82,1.82.4,1-.84,1-.84l-.1-.32a4.66,4.66,0,0,0-1.38-.17c-.22.12-.61.37-.71.41A6.78,6.78,0,0,0,77.63,39.82Z"></path>
      <path class="cls-10" d="M77.52,39.65c.07.13.26.45.6.25a5.34,5.34,0,0,0,.65-.44s.13-1.18.18-1.4.14-.29-.36,0-.59.18-.89.58A1.51,1.51,0,0,0,77.52,39.65Z"></path>
      <path class="cls-11" d="M78.77,39.46a6.8,6.8,0,0,0,0-1c0-.43-.09-.54.27-.66s1-.67,1.42-.61.37.05.47.53A1.75,1.75,0,0,1,80.63,39a1,1,0,0,1-.93.64A2.44,2.44,0,0,1,78.77,39.46Z"></path>
      <path class="cls-17" d="M31.12,42.84a2.17,2.17,0,0,0,2-1c.54-1.09.19-2-.18-2.14a4.44,4.44,0,0,0-.62,0c-.4,0-.24,1-.26,1S31.12,42.84,31.12,42.84Z"></path>
      <path class="cls-9" d="M29.69,42.32s1.4.82,1.82.4.95-.84.95-.84l-.1-.32A4.63,4.63,0,0,0,31,41.39c-.23.12-.62.37-.72.41A6.78,6.78,0,0,0,29.69,42.32Z"></path>
      <path class="cls-10" d="M29.58,42.15c.07.13.26.45.6.25a5.34,5.34,0,0,0,.65-.44s.13-1.18.18-1.4.14-.29-.36,0-.59.18-.88.58A1.48,1.48,0,0,0,29.58,42.15Z"></path>
      <path class="cls-11" d="M30.83,42a6.8,6.8,0,0,0,0-1c0-.43-.09-.54.27-.66s1-.67,1.43-.61.36.05.46.53a1.7,1.7,0,0,1-.28,1.27,1,1,0,0,1-.93.64A2.44,2.44,0,0,1,30.83,42Z"></path>
      <path class="cls-17" d="M44.81,41.11A2.77,2.77,0,0,0,47.44,40c.78-1.33.41-2.59,0-2.73-.13,0-.54,0-.79,0-.51,0-.39,1.27-.41,1.3S44.81,41.11,44.81,41.11Z"></path>
      <path class="cls-9" d="M43,40.32s1.7,1.18,2.28.68,1.28-1,1.28-1l-.09-.41a5.62,5.62,0,0,0-1.74-.34c-.3.13-.81.41-.94.46A7.24,7.24,0,0,0,43,40.32Z"></path>
      <path class="cls-10" d="M42.92,40.1c.07.17.29.6.74.37a7.12,7.12,0,0,0,.86-.51s.27-1.49.35-1.75.21-.37-.45-.05-.77.18-1.18.67A1.84,1.84,0,0,0,42.92,40.1Z"></path>
      <path class="cls-11" d="M44.52,40a8.93,8.93,0,0,0,.07-1.23c0-.55-.07-.69.39-.82s1.38-.76,1.87-.64.46.09.54.7a2.17,2.17,0,0,1-.46,1.6,1.22,1.22,0,0,1-1.24.73A3.19,3.19,0,0,1,44.52,40Z"></path>
      <path class="cls-17" d="M54.81,39.17a1.77,1.77,0,0,1,1.62-.25c.8.37,1,1,.82,1.2a3.13,3.13,0,0,1-.37.23c-.25.15-.59-.44-.61-.44Z"></path>
      <path class="cls-9" d="M54.18,40s.47-1,.91-.91.94.07.94.07l.08.21s-.57.59-.75.62-.53,0-.61.06S54.18,40,54.18,40Z"></path>
      <path class="cls-10" d="M54.19,40.13a.27.27,0,0,1,.25-.36,4.83,4.83,0,0,1,.58,0s.59.57.71.67.22.1-.2.14-.44.13-.79,0A1,1,0,0,1,54.19,40.13Z"></path>
      <path class="cls-11" d="M55,39.75a4.27,4.27,0,0,1,.41.52c.16.24.18.31.45.24s.91,0,1.12-.23.2-.16,0-.45a1.25,1.25,0,0,0-.72-.57.8.8,0,0,0-.84,0A1.73,1.73,0,0,0,55,39.75Z"></path>
      <path class="cls-17" d="M69.48,35.05s-3.38-2.5-6.36-.7S59.5,39,60.27,39.81a12.64,12.64,0,0,0,1.51.93c1,.58,2.15-2.08,2.22-2.11S69.48,35.05,69.48,35.05Z"></path>
      <path class="cls-9" d="M72.13,38.52s-2.1-4.16-3.78-3.79-3.6.57-3.6.57l-.27.92s2.35,2.48,3.08,2.54,2,.06,2.37.11A15.19,15.19,0,0,0,72.13,38.52Z"></path>
      <path class="cls-10" d="M72.14,39.1c0-.41.07-1.49-1.07-1.54a16.32,16.32,0,0,0-2.26.08s-2.14,2.66-2.58,3.1-.8.49.84.57,1.71.47,3.06-.05A4.22,4.22,0,0,0,72.14,39.1Z"></path>
      <path class="cls-11" d="M68.81,37.64A19.31,19.31,0,0,0,67.35,40c-.54,1.11-.61,1.42-1.66,1.18s-3.55,0-4.4-.74-.81-.68-.31-2,1.23-1.83,2.63-2.67a2.81,2.81,0,0,1,3.26-.11A7.4,7.4,0,0,1,68.81,37.64Z"></path>
      <path class="cls-17" d="M51.45,39s-2.77-.5-4,1.46-.79,3.88-.1,4.12a8.34,8.34,0,0,0,1.18.11c.78.06.68-1.88.71-1.92S51.45,39,51.45,39Z"></path>
      <path class="cls-9" d="M54.06,40.26s-2.49-1.88-3.39-1.16-2,1.4-2,1.4l.11.63a8.47,8.47,0,0,0,2.6.62c.45-.17,1.25-.57,1.45-.63A10.22,10.22,0,0,0,54.06,40.26Z"></path>
      <path class="cls-10" d="M54.24,40.6c-.1-.26-.4-.91-1.1-.61a10.18,10.18,0,0,0-1.33.72s-.5,2.22-.64,2.62-.33.53.68.09,1.16-.22,1.82-.93A2.87,2.87,0,0,0,54.24,40.6Z"></path>
      <path class="cls-11" d="M51.81,40.71a13,13,0,0,0-.18,1.86c0,.82.06,1-.64,1.2s-2.13,1.06-2.86.85-.69-.17-.77-1.1a3.34,3.34,0,0,1,.79-2.38,1.87,1.87,0,0,1,1.92-1A4.72,4.72,0,0,1,51.81,40.71Z"></path>
    </g>
  </g>
</svg>
