<?xml version="1.0" encoding="UTF-8"?>
<svg xmlns="http://www.w3.org/2000/svg" xmlns:xlink="http://www.w3.org/1999/xlink" viewBox="0 0 110.12 175.6">
  <defs>
    <style>.cls-1{fill:none;}.cls-2{fill:#956d4b;}.cls-3{clip-path:url(#clip-path);}.cls-4{fill:url(#Безымянный_градиент_2);}.cls-5{fill:#754120;}.cls-6{fill:#44281c;}.cls-7{fill:#6c3c1d;}.cls-8{fill:#714d31;}.cls-9{fill:#613822;}.cls-10{fill:#7f5637;}.cls-11{fill:#a07850;}.cls-12{fill:#f7e8c5;}.cls-13{fill:#8b5b3c;}.cls-14,.cls-17{fill:#a3b034;}.cls-15{fill:#6f882b;}.cls-16{fill:#476532;}.cls-17{opacity:0.54;}.cls-18{opacity:0.61;}.cls-19{opacity:0.6;}.cls-20{fill:#d5e1a7;}.cls-21{opacity:0.67;}.cls-22{fill:#677e28;}.cls-23{fill:#bcbf37;}.cls-24{opacity:0.58;}.cls-25{fill:#613922;}</style>
    <clipPath id="clip-path">
      <polygon class="cls-1" points="7.72 146.92 57.69 170.44 103.91 147.03 55.86 126.67 7.72 146.92"></polygon>
    </clipPath>
    <linearGradient id="Безымянный_градиент_2" x1="-4159.82" y1="523.5" x2="-4157.02" y2="523.5" gradientTransform="matrix(34.36, 0, 0, -34.36, 142912.17, 18134.35)" gradientUnits="userSpaceOnUse">
      <stop offset="0" stop-color="#a17551"></stop>
      <stop offset="0.38" stop-color="#a17551"></stop>
      <stop offset="0.89" stop-color="#7a4928"></stop>
      <stop offset="1" stop-color="#72401f"></stop>
    </linearGradient>
  </defs>
  <g id="Слой_2" data-name="Слой 2">
    <g id="Слой_1-2" data-name="Слой 1">
      <path class="cls-2" d="M57.69,104.28s9.62,11.3,17.06,11.77,32.81-7.57,32.81-7.57l2.56-26.43L57.69,63.56Z"></path>
      <path class="cls-2" d="M0,80.18l5.23,34.47s18.58,2.79,21.83,1.87S45.18,110,49.35,110s8.34-5.73,8.34-5.73V63.56Z"></path>
      <g class="cls-3">
        <rect class="cls-4" x="31.38" y="99.36" width="48.87" height="98.4" transform="translate(-95.52 196.32) rotate(-86.92)"></rect>
      </g>
      <path class="cls-5" d="M7.72,146.92,5.23,114.66s23.69-.47,30.19-3.72,22.27-6.66,22.27-6.66l-1.83,22.4Z"></path>
      <path class="cls-6" d="M41.49,116.66A8.56,8.56,0,0,0,38.65,115l0,0s-3.79-1.13-5.85,1.41-1.71,5.29-.77,5.74a12.57,12.57,0,0,0,1.63.34l.09,0a30.11,30.11,0,0,0,3.51-.8,1.56,1.56,0,0,0,.6-.16,6.26,6.26,0,0,0,.65-.19c1.49-.46,1.67-.12,2.69-1a4,4,0,0,0,1.09-2.55l-.21-.5h0l0,0a1,1,0,0,0-.58-.5"></path>
      <path class="cls-6" d="M21.2,120a10.77,10.77,0,0,0-4,1.32v0s-4.3,2.7-3.59,6.85,3.66,6.13,4.88,5.6a14.71,14.71,0,0,0,1.71-1.28l0-.14c.92-1.05,1.59-3.16,2.21-4.05a2,2,0,0,0,.35-.72c.11-.2.21-.42.38-.79.8-1.81,1.28-1.71,1.29-3.45a5.09,5.09,0,0,0-1.54-3.21,3.29,3.29,0,0,0-.66-.23v0h-.08a1.27,1.27,0,0,0-1,.14"></path>
      <path class="cls-7" d="M57.69,104.28l-1.83,22.39L103.92,147l3.64-38.56s-15-1.72-21.48-.8-17.84,3.72-21.24,1.86a44.41,44.41,0,0,1-7.15-5.26"></path>
      <path class="cls-6" d="M39.39,127.29a3.29,3.29,0,0,0-1.26-.31h0a2.31,2.31,0,0,0-2,1.18c-.49,1.19-.05,2.18.35,2.24l.65,0,0,0a10.59,10.59,0,0,0,1.23-.69l.21-.13.22-.14c.51-.34.61-.24.9-.68a1.59,1.59,0,0,0,.12-1.08l-.13-.16h0Z"></path>
      <path class="cls-6" d="M86.47,117.65a2.27,2.27,0,0,0-.11-.89h0s-.38-1-1.27-1-1.43.5-1.38.78l.2.41h0l.75.63.13.1.15.11c.35.25.3.34.66.41a1.08,1.08,0,0,0,.74-.18l.07-.13h0Z"></path>
      <path class="cls-6" d="M99.89,133.83A10.91,10.91,0,0,0,98,130l0,0s-3.32-3.9-7.36-2.59-5.59,4.54-4.88,5.68a15.32,15.32,0,0,0,1.52,1.53h.14c1.19.77,3.39,1.14,4.37,1.62a2.18,2.18,0,0,0,.77.25c.22.08.45.15.84.26,1.93.54,1.9,1,3.64.79a5.15,5.15,0,0,0,3-2,4.06,4.06,0,0,0,.13-.69h0l0-.07a1.27,1.27,0,0,0-.28-1"></path>
      <path class="cls-6" d="M73.78,120.55a8.44,8.44,0,0,0-1.87,2.68h0s-1.4,3.66,1,5.89,5.11,2.09,5.62,1.19a12.49,12.49,0,0,0,.46-1.59l0-.09a27.58,27.58,0,0,0-.52-3.53,1.78,1.78,0,0,0-.12-.62c0-.16-.07-.35-.13-.65-.35-1.5,0-1.66-.81-2.74a3.94,3.94,0,0,0-2.44-1.26l-.51.16h0l0,0a1,1,0,0,0-.54.54"></path>
      <path class="cls-8" d="M74,147.93a1.59,1.59,0,0,0,1.57-.42c.54-.7.43-1.43.17-1.55l-.44-.08c-.29,0-.32.69-.33.7Z"></path>
      <path class="cls-9" d="M73,147.35s.87.79,1.23.55.8-.47.8-.47l0-.24-1-.32-.56.19Z"></path>
      <path class="cls-10" d="M73,147.21c0,.1.12.36.4.27a4.1,4.1,0,0,0,.52-.23l.33-1c.06-.15.14-.19-.25-.06s-.45,0-.72.29a1.07,1.07,0,0,0-.28.69"></path>
      <path class="cls-11" d="M73.88,147.25a5.25,5.25,0,0,0,.13-.69c0-.31,0-.39.28-.43s.84-.33,1.11-.23.26.09.26.44a1.24,1.24,0,0,1-.39.87.68.68,0,0,1-.75.32,1.69,1.69,0,0,1-.64-.28"></path>
      <path class="cls-8" d="M63.28,141.8s2.39.13,3.24-1.67.26-3.36-.36-3.49a7.39,7.39,0,0,0-1,0c-.66,0-.37,1.67-.39,1.7Z"></path>
      <path class="cls-9" d="M60.93,141s2.3,1.32,3,.61,1.53-1.4,1.53-1.4l-.15-.52a7.25,7.25,0,0,0-2.27-.24c-.36.19-1,.61-1.16.69Z"></path>
      <path class="cls-10" d="M60.74,140.7c.11.21.43.74,1,.4a8.38,8.38,0,0,0,1.05-.75s.18-1.93.26-2.28.22-.49-.58,0-1,.31-1.44,1a2.38,2.38,0,0,0-.28,1.65"></path>
      <path class="cls-11" d="M62.78,140.35a10.92,10.92,0,0,0-.05-1.58c-.09-.7-.16-.88.42-1.09s1.68-1.13,2.32-1,.6.07.77.85a2.85,2.85,0,0,1-.41,2.09,1.59,1.59,0,0,1-1.52,1.07,4,4,0,0,1-1.53-.31"></path>
      <path class="cls-8" d="M53.32,149.57s1.86,1.41,3.54.43,2-2.58,1.62-3a6,6,0,0,0-.84-.53c-.55-.33-1.21,1.15-1.25,1.16Z"></path>
      <path class="cls-9" d="M51.86,147.61s1.15,2.33,2.08,2.14,2-.29,2-.29l.16-.51s-1.29-1.4-1.7-1.44-1.14,0-1.32-.07Z"></path>
      <path class="cls-10" d="M51.86,147.29c0,.23,0,.83.59.87a10.13,10.13,0,0,0,1.26,0l1.46-1.71c.25-.24.45-.27-.47-.32s-1-.27-1.7,0a2.39,2.39,0,0,0-1.14,1.19"></path>
      <path class="cls-11" d="M53.71,148.13a10.69,10.69,0,0,0,.83-1.32c.3-.61.35-.79.93-.64s2,0,2.44.44.45.38.17,1.1a2.78,2.78,0,0,1-1.49,1.47,1.54,1.54,0,0,1-1.81,0,4.06,4.06,0,0,1-1.07-1.09"></path>
      <path class="cls-8" d="M49,143.13a2.67,2.67,0,0,0,.1-2.73c-.86-1.21-2.11-1.39-2.41-1l-.35.67c-.22.44,1,.85,1,.88Z"></path>
      <path class="cls-9" d="M47.63,144.37s1.7-1,1.49-1.73a15.08,15.08,0,0,1-.35-1.51l-.4-.09s-1,1.08-1,1.4,0,.87,0,1Z"></path>
      <path class="cls-10" d="M47.39,144.39c.18,0,.63,0,.62-.5a7.72,7.72,0,0,0-.11-1l-1.4-1c-.2-.18-.23-.32-.21.38s-.15.74.12,1.29a1.79,1.79,0,0,0,1,.79"></path>
      <path class="cls-11" d="M47.9,142.93a7.93,7.93,0,0,0-1.06-.54c-.49-.2-.62-.22-.55-.68s-.13-1.51.17-1.89.26-.37.84-.2a2.16,2.16,0,0,1,1.21,1,1.19,1.19,0,0,1,.15,1.38,3,3,0,0,1-.76.89"></path>
      <path class="cls-8" d="M40.56,145.14a1.15,1.15,0,0,0,.38-1.11c-.2-.61-.69-.85-.86-.74l-.23.23.29.49Z"></path>
      <path class="cls-9" d="M39.82,145.48s.83-.21.84-.53,0-.67,0-.67l-.15-.09-.58.45-.12.43Z"></path>
      <path class="cls-10" d="M39.71,145.46l.33-.13.08-.41-.46-.6c-.06-.09,0-.16-.13.13s-.16.29-.12.55a.81.81,0,0,0,.3.46"></path>
      <path class="cls-11" d="M40.12,144.92l-.37-.36-.15-.35.32-.76.37,0a.92.92,0,0,1,.37.58.5.5,0,0,1-.12.59Z"></path>
      <path class="cls-8" d="M38,149.82s1.64-2.64.13-4.73-3.65-2.39-4.18-1.77a8.24,8.24,0,0,0-.6,1.17c-.37.77,1.66,1.45,1.69,1.5Z"></path>
      <path class="cls-9" d="M35.56,152s2.94-1.8,2.56-3-.63-2.61-.63-2.61l-.69-.15s-1.69,1.88-1.69,2.42.08,1.52.06,1.75Z"></path>
      <path class="cls-10" d="M35.13,152c.31,0,1.1,0,1.07-.87a12.17,12.17,0,0,0-.19-1.66s-2.09-1.42-2.44-1.72-.41-.56-.36.65-.25,1.29.21,2.25A3.15,3.15,0,0,0,35.13,152"></path>
      <path class="cls-11" d="M36,149.47a14.22,14.22,0,0,0-1.84-.93c-.85-.33-1.08-.36-1-1.15s-.23-2.61.29-3.28.45-.64,1.44-.35a3.69,3.69,0,0,1,2.12,1.78,2.07,2.07,0,0,1,.27,2.39A5.23,5.23,0,0,1,36,149.47"></path>
      <path class="cls-12" d="M53.24,98.34a30.88,30.88,0,0,1-4.45,5.3,36.13,36.13,0,0,1-5.46,4.21,34.2,34.2,0,0,0-5.36,4,12.79,12.79,0,0,0-3.54,5.6,10.12,10.12,0,0,1,3-6.16A34.93,34.93,0,0,1,42.76,107,40.39,40.39,0,0,0,48,102.83a33,33,0,0,0,4.34-5.09Z"></path>
      <path class="cls-12" d="M54.5,98.82a7.58,7.58,0,0,1-.93,4.27,11.18,11.18,0,0,1-2.73,3.3c-2.17,1.84-4.69,3-6.89,4.57a14.25,14.25,0,0,0-3,2.68,9.93,9.93,0,0,0-1.74,3.54c-.39,1.29-.62,2.65-1,4a9.59,9.59,0,0,1-1.83,3.7C38,122.53,38,119.7,38.64,117a10,10,0,0,1,1.75-3.85,15,15,0,0,1,3-2.92c2.24-1.68,4.73-2.89,6.73-4.65a10.64,10.64,0,0,0,2.47-3,6.42,6.42,0,0,0,.81-3.66Z"></path>
      <path class="cls-12" d="M45.85,109.21a21.89,21.89,0,0,1-2.41,8.43c-.67,1.3-1.54,2.49-2.29,3.73a7.67,7.67,0,0,0-1.35,4.07A7.69,7.69,0,0,1,41,121.3c.72-1.27,1.54-2.47,2.16-3.78a21.29,21.29,0,0,0,2.12-8.34.27.27,0,0,1,.28-.25.26.26,0,0,1,.25.28Z"></path>
      <path class="cls-12" d="M41.4,121a.89.89,0,0,0-.43.72,1.84,1.84,0,0,0,.17.86,8.55,8.55,0,0,1,.6,1.72,7.44,7.44,0,0,1-.09,3.6,7.52,7.52,0,0,0,.05-3.59,8.62,8.62,0,0,0-.61-1.7,1.87,1.87,0,0,1-.19-.9,1,1,0,0,1,.47-.78,0,0,0,0,1,0,.07Z"></path>
      <path class="cls-12" d="M51,105.81a14.41,14.41,0,0,0-1.62,4.92,12.59,12.59,0,0,1-.8,2.55A5.54,5.54,0,0,1,47,115.39a5.49,5.49,0,0,0,1.46-2.16,12.44,12.44,0,0,0,.67-2.55,14.49,14.49,0,0,1,1.43-5.16.26.26,0,0,1,.37-.09.25.25,0,0,1,.09.36Z"></path>
      <path class="cls-12" d="M53.1,98.68a9.72,9.72,0,0,0-5.25.35,20.72,20.72,0,0,0-4.91,2.41c-1.57,1-3.08,2.1-4.68,3.11a13.6,13.6,0,0,1-5.18,2.24A39.46,39.46,0,0,0,37.9,104c1.53-1.06,3-2.22,4.55-3.3a21.54,21.54,0,0,1,5.08-2.65,10.62,10.62,0,0,1,5.81-.41Z"></path>
      <path class="cls-12" d="M38.29,104.07a6.92,6.92,0,0,1-1.62,4,7.44,7.44,0,0,1-3.58,2.24,27.81,27.81,0,0,0-4,1.34,4.81,4.81,0,0,0-2.74,3,4.9,4.9,0,0,1,2.7-3A30.32,30.32,0,0,1,33,110.11a7.32,7.32,0,0,0,3.44-2.25,6.54,6.54,0,0,0,1.47-3.8.17.17,0,0,1,.17-.17.18.18,0,0,1,.17.18Z"></path>
      <path class="cls-12" d="M46.46,99.44a11.26,11.26,0,0,1-1.34,4.29,4.76,4.76,0,0,1-3.64,2.37,4.63,4.63,0,0,0,3.41-2.51,10.66,10.66,0,0,0,1-4.21.28.28,0,0,1,.29-.25.27.27,0,0,1,.24.29Z"></path>
      <path class="cls-12" d="M43.61,100.62a28.13,28.13,0,0,1-13.34,1.67,27.93,27.93,0,0,0,13.14-2.16.26.26,0,0,1,.35.14.26.26,0,0,1-.14.35Z"></path>
      <path class="cls-12" d="M35.43,102.32a4.88,4.88,0,0,0-4.56-1.44,5,5,0,0,1,4.72,1.29.11.11,0,1,1-.16.16Z"></path>
      <path class="cls-12" d="M55.56,98.91a18.83,18.83,0,0,1,.47,8.31A21,21,0,0,1,53,114.93c-1.39,2.34-2.9,4.59-3.5,7.19a8.34,8.34,0,0,0-.08,3.91,6.11,6.11,0,0,0,2,3.41,6.21,6.21,0,0,1-2.37-3.3,8.87,8.87,0,0,1-.2-4.16,24.9,24.9,0,0,1,3.29-7.55,27,27,0,0,0,1.76-3.58,19.13,19.13,0,0,0,.67-11.65Z"></path>
      <path class="cls-12" d="M50.3,119.2a14,14,0,0,0-3.25,2.11,4.65,4.65,0,0,0-1.58,3.44,4.76,4.76,0,0,1,1.39-3.62A13.67,13.67,0,0,1,50,118.74a.26.26,0,0,1,.37.09.28.28,0,0,1-.09.37Z"></path>
      <path class="cls-12" d="M50.86,118.46a9.44,9.44,0,0,1,1.82,1.91,4.19,4.19,0,0,1,.65,2.56c0,.88-.17,1.73-.17,2.59a3.66,3.66,0,0,0,.72,2.41,3.73,3.73,0,0,1-.85-2.41c-.05-.87.07-1.74,0-2.59a4,4,0,0,0-.72-2.33,8.88,8.88,0,0,0-1.83-1.73.26.26,0,0,1-.05-.37.27.27,0,0,1,.37,0Z"></path>
      <path class="cls-12" d="M56.46,99.5A11.68,11.68,0,0,1,59,106.41a43.68,43.68,0,0,1-.36,7.18,20.53,20.53,0,0,0,.28,6.92,9,9,0,0,0,3.8,5.63,8.3,8.3,0,0,1-4.55-5.41,19,19,0,0,1-.58-7.21,55.69,55.69,0,0,0,.26-7,11.21,11.21,0,0,0-2.15-6.31Z"></path>
      <path class="cls-12" d="M58.37,109.07a3.8,3.8,0,0,1-.69,2.19,13.82,13.82,0,0,1-1.4,1.72,6.85,6.85,0,0,0-1.22,1.76,2.86,2.86,0,0,0-.15,2.11,2.88,2.88,0,0,1,0-2.16,6.8,6.8,0,0,1,1.14-1.88,14.53,14.53,0,0,0,1.26-1.75,3.41,3.41,0,0,0,.5-2,.27.27,0,0,1,.24-.3.27.27,0,0,1,.29.24Z"></path>
      <path class="cls-12" d="M56.45,112.57a9.4,9.4,0,0,1,.18,3.17c-.08,1.05-.26,2.1-.39,3.14.11-1,.25-2.09.31-3.15a9.32,9.32,0,0,0-.25-3.12.08.08,0,0,1,.05-.1.08.08,0,0,1,.1,0Z"></path>
      <path class="cls-12" d="M59,109.1a6.6,6.6,0,0,1,2.55,5.75,6.39,6.39,0,0,0-2.85-5.32.26.26,0,0,1-.08-.37.26.26,0,0,1,.36-.08Z"></path>
      <path class="cls-12" d="M60.54,110.86a27.94,27.94,0,0,0-.26,6.53,28.31,28.31,0,0,1,0-6.57.15.15,0,0,1,.16-.13.15.15,0,0,1,.12.16Z"></path>
      <path class="cls-12" d="M57.8,98.09a13,13,0,0,1,6.56,5.38,13.51,13.51,0,0,1,1.62,4c.33,1.37.52,2.75.76,4.09a18.32,18.32,0,0,0,1,3.88,19,19,0,0,0,2.07,3.45,13.52,13.52,0,0,1,2,3.7,5.21,5.21,0,0,1-.19,4.12,5.52,5.52,0,0,0-.3-3.94,16.2,16.2,0,0,0-2.19-3.39,16.27,16.27,0,0,1-2.3-3.55,19.33,19.33,0,0,1-1.2-4.07c-.54-2.72-.89-5.43-2.32-7.66a12.29,12.29,0,0,0-5.93-5Z"></path>
      <path class="cls-12" d="M66.42,111.8c-.45,1.56-1.35,2.84-1.88,4.27a5.9,5.9,0,0,0-.38,2.24,3.21,3.21,0,0,0,.81,2.1,3.28,3.28,0,0,1-.94-2.09,5.94,5.94,0,0,1,.26-2.33c.46-1.5,1.29-2.86,1.61-4.32a.27.27,0,1,1,.52.12Z"></path>
      <path class="cls-12" d="M64.55,115.76a7.46,7.46,0,0,1,1,2,8.79,8.79,0,0,1,.41,2.21,8.36,8.36,0,0,0-.5-2.17,6.89,6.89,0,0,0-1-2,.09.09,0,0,1,0-.13.09.09,0,0,1,.13,0Z"></path>
      <path class="cls-12" d="M65.58,113.63a20.34,20.34,0,0,0-2.25,2.1,5.69,5.69,0,0,0-1.42,2.67,5.61,5.61,0,0,1,1.31-2.77,19.72,19.72,0,0,1,2.15-2.23.15.15,0,1,1,.21.22Z"></path>
      <path class="cls-12" d="M57.35,96.85a61.46,61.46,0,0,1,8.73,1.38,58,58,0,0,1,8.45,2.61,4.1,4.1,0,0,1,1.82,1.51,7.08,7.08,0,0,1,.83,2.13,20.74,20.74,0,0,0,.55,2.1,11,11,0,0,0,.88,2,11.31,11.31,0,0,0,6.66,5.21,11,11,0,0,1-7.1-4.95,13,13,0,0,1-1.6-4.15,6.26,6.26,0,0,0-.79-1.91,3.42,3.42,0,0,0-1.55-1.22,56.27,56.27,0,0,0-8.36-2.36,67.63,67.63,0,0,0-8.61-1.24Z"></path>
      <path class="cls-12" d="M79.86,110.38a17.22,17.22,0,0,1,.35,3.78,10.2,10.2,0,0,1-.66,3.72,10,10,0,0,0,.52-3.72,17.24,17.24,0,0,0-.48-3.72.14.14,0,0,1,.1-.17.15.15,0,0,1,.17.1Z"></path>
      <path class="cls-12" d="M68.15,99.1a19.31,19.31,0,0,1,2.95,2.42c.92.87,1.79,1.78,2.67,2.67-.94-.83-1.88-1.68-2.84-2.48a19.71,19.71,0,0,0-3-2.15.26.26,0,0,1-.12-.35.26.26,0,0,1,.36-.12Z"></path>
      <path class="cls-12" d="M69.22,100c.42.55.83,1.12,1.21,1.71a6.33,6.33,0,0,1,1,1.9,12.61,12.61,0,0,1,0,2.12,3.12,3.12,0,0,0,.55,1.94,3,3,0,0,1-.75-1.93,13.61,13.61,0,0,0-.18-2.06,6.78,6.78,0,0,0-1-1.77L69,100.2A.15.15,0,0,1,69,100,.15.15,0,0,1,69.22,100Z"></path>
      <path class="cls-12" d="M80.13,112.91a4.2,4.2,0,0,0-.73,1.35c-.17.5-.3,1-.42,1.52-.23,1-.37,2.07-.56,3.1.16-1,.27-2.08.48-3.12a11.93,11.93,0,0,1,.38-1.54,4.11,4.11,0,0,1,.72-1.43.08.08,0,0,1,.12,0,.09.09,0,0,1,0,.13Z"></path>
      <path class="cls-12" d="M77.18,105l4.32,3.77-4.65-3.35a.27.27,0,1,1,.31-.43Z"></path>
      <path class="cls-12" d="M53.5,96.76s-1,.31-.9,1a2.93,2.93,0,0,1-.1,1.41s1.06-.55,1.31.35l.2,1s.7-1.16,1.16.2l.45.31s.4-.61.86-.15l.5-.36s-.7-1.41,1.36-1.16l.41-.7s-.71-.76.1-.81L57.94,97S56.38,95.35,53.5,96.76Z"></path>
      <polygon class="cls-13" points="0 80.18 57.69 104.28 110.12 82.05 57.69 63.56 0 80.18"></polygon>
      <path class="cls-14" d="M57.94,51.71S60,48.8,60.22,48.45s1.53-1.94,2.71-1.84a5.31,5.31,0,0,0,3-.29c1.07-.47,1-.94,1.82-1.16A5.43,5.43,0,0,1,72,46.32a16.42,16.42,0,0,0,3.63,2A9.52,9.52,0,0,1,78.94,52a6.4,6.4,0,0,1-1.86-.53c-.67-.37-4.74-1.88-5.06-2.19s-3.71-2.29-5.1-2.16A7.7,7.7,0,0,0,63.18,49c-.64.59-2.43,2.56-2.43,2.56S58.72,52.12,57.94,51.71Z"></path>
      <path class="cls-15" d="M59.08,51.19a16.08,16.08,0,0,0,3.62-2.51S61.64,51.85,59.08,51.19Z"></path>
      <path class="cls-15" d="M74.34,47.92a5.47,5.47,0,0,1,2.5,1.54,15.9,15.9,0,0,1,1.85,2.41,18.23,18.23,0,0,1-2.67-1c-.61-.38-2.11-1.32-2.39-1.51s1.85,1.1,2.1.72S76,49.24,74.34,47.92Z"></path>
      <path class="cls-15" d="M58.15,51.52l.2-.29,1.87-2.78s-.82,1.41-.07,1.29a5.37,5.37,0,0,0,1.78-.94l.64-.44A28.4,28.4,0,0,1,58.15,51.52Z"></path>
      <path class="cls-16" d="M56.64,52.68a1.57,1.57,0,0,1,1.93-1.41c1.76.28,2.49.63,3.61-1.77s3.85-4.3,5.86-4,4.41,3.38,5.13,3.87a38.7,38.7,0,0,0,5.06,2.33,3.61,3.61,0,0,1,3.13,3s.24.35,1.2,1.62S83,60,83,60.92s-1,2.12-1,2.68.4-2.75-.4-4a6.76,6.76,0,0,1-1.45-3.38c-.16-1.48-.16-2.82-1.44-3.81s-7.14-3-7.14-3a10,10,0,0,0-7.79-.28A8,8,0,0,0,59.45,54S59.61,50.49,56.64,52.68Z"></path>
      <path class="cls-15" d="M65.69,48.19a3.07,3.07,0,0,1-1,.2c-.51,0-1-.13-.23-.88,1.29-1.28,2.39-1.94,3.64-1.59s3.28,2.16,2.71,2.31S67,47.67,65.69,48.19Z"></path>
      <path class="cls-15" d="M60.78,68.61S59.23,55.29,55.4,50.18,46.48,38.51,39.32,38.07s-9.47,2.19-10.47,4-.67,7-.67,7-.77-11,6.38-9.5S45,46.25,47.14,54.43s9.65,13.74,9.65,13.74S59.45,69.48,60.78,68.61Z"></path>
      <path class="cls-17" d="M41.76,39s4.11.19,9.43,7S58.5,59.4,58.73,62.52s2.49,6,.27,5.45-7.23-6.54-9.14-11.49c-2.22-5.75-4.21-10-6.54-12.13C38.77,40.17,39.1,39,41.76,39Z"></path>
      <g class="cls-18">
        <path class="cls-16" d="M36.11,38A12,12,0,0,1,45,42.08l3.22,3.81a30.57,30.57,0,0,1,3,4,27.67,27.67,0,0,1,2.08,4.58c.58,1.55,1.21,3.09,1.83,4.63s1.29,3,2,4.54A22.06,22.06,0,0,0,59.61,68a11.64,11.64,0,0,1-1.51-2c-.46-.7-.87-1.42-1.27-2.15-.79-1.48-1.51-3-2.19-4.5s-1.32-3.06-1.93-4.6a27.53,27.53,0,0,0-2.09-4.46c-1.64-2.83-4-5.21-6-7.86a11.31,11.31,0,0,0-3.77-3.06A12.7,12.7,0,0,0,36.11,38Z"></path>
      </g>
      <g class="cls-19">
        <path class="cls-20" d="M41.65,39.4a11,11,0,0,1,2.72,1.45,13.22,13.22,0,0,1,2.1,2.27c1.32,1.55,2.68,3.1,3.94,4.71a15.69,15.69,0,0,1,1.76,2.56,18.74,18.74,0,0,1,1.23,2.84L55.47,59c-.87-1.85-1.66-3.75-2.41-5.65a22.36,22.36,0,0,0-1.26-2.77,16,16,0,0,0-1.75-2.47c-1.24-1.64-2.59-3.16-3.85-4.78a13,13,0,0,0-2-2.32A12.13,12.13,0,0,0,41.65,39.4Z"></path>
      </g>
      <g class="cls-21">
        <path class="cls-16" d="M57.17,68.26A44.26,44.26,0,0,1,52.28,64a19.41,19.41,0,0,1-3.83-5.28c-.86-2-1.49-4.1-2.15-6.17a23.94,23.94,0,0,0-2.54-5.92,19.93,19.93,0,0,0-4.3-4.77,9.29,9.29,0,0,0-5.84-2.3l-.79.09c-.26,0-.51.14-.77.2a4.14,4.14,0,0,0-1.4.72A5.79,5.79,0,0,0,29,43.19a15.57,15.57,0,0,0-.65,6.41,16,16,0,0,1,.46-6.48,6,6,0,0,1,1.74-2.78A4.32,4.32,0,0,1,32,39.57c.27-.07.53-.17.8-.22l.83-.1a9.58,9.58,0,0,1,6.06,2.3,20.57,20.57,0,0,1,4.44,4.82,24.76,24.76,0,0,1,2.52,6c.63,2.08,1.24,4.16,2.07,6.16a19.43,19.43,0,0,0,3.72,5.25A45.31,45.31,0,0,0,57.17,68.26Z"></path>
      </g>
      <path class="cls-15" d="M58.44,71.42s3.84,3.09,2.06,6c0,0-.46,1.78-2.71.75s-2.06.09-3.19.19a7.68,7.68,0,0,1-3.09-1S52.82,70.49,58.44,71.42Z"></path>
      <path class="cls-22" d="M62,82.49a3.09,3.09,0,0,0-1-1.41l-.55-38.66L60.44,32c0-.65,0-1.3.08-1.95l.41-6.08H57.36l.46,5.22c.11,1.17.16,2.34.17,3.51l.06,8.57-.68,39.11a3.9,3.9,0,0,1-1.07,2.14C55.16,83.43,62.47,84.14,62,82.49Z"></path>
      <path class="cls-15" d="M55.66,79.06s-.41-3.29,1.43-4.78c3.82-3.09,4.48-6.2,5.74-8.1s7-6.73,13.13-4.24a13.59,13.59,0,0,1,4.26,2.45c1.29,1.2,1.49,2.17,4,3.19A17.56,17.56,0,0,1,90.66,72s.85-4.48-6.59-7.25a7.5,7.5,0,0,0-2.9-.23,19.18,19.18,0,0,0-4.48.72c-4,1-6.41.43-9,.81C61.9,66.88,55.54,76.88,55.66,79.06Z"></path>
      <path class="cls-15" d="M62,71.3a29.92,29.92,0,0,1,.33,4.82c-.19,1.06-.52,1.13-.52,1.13s0,2-.56,2.39-2.81-2.28-5.55.07a12.49,12.49,0,0,1,2.79-3.61C60.55,74.23,62.11,72.49,62,71.3Z"></path>
      <path class="cls-14" d="M56.05,79.72a4.42,4.42,0,0,1,.27-4.43c1.26-1.8,2.77-1.76,5-6.41s5.35-6.09,5.35-6.09-3.59,3.4-3.83,5.28,0,4.23-.92,5.53S59.69,75.48,58.13,77A8.42,8.42,0,0,0,56.05,79.72Z"></path>
      <path class="cls-23" d="M56,79.65a4.32,4.32,0,0,1-.52-1.94,4.76,4.76,0,0,1,.39-2v0a18.25,18.25,0,0,1,2.83-3.25A15.1,15.1,0,0,0,61,69a18.08,18.08,0,0,1,2.27-3.63,16.37,16.37,0,0,1,3.41-2.58,19.27,19.27,0,0,0-3.22,2.74,22.67,22.67,0,0,0-2.15,3.63c-.33.63-.66,1.26-1,1.88a10.92,10.92,0,0,1-1.35,1.68l-1.51,1.51a9.12,9.12,0,0,0-1.34,1.56v0A4.53,4.53,0,0,0,56,79.65Z"></path>
      <path class="cls-16" d="M57.26,79.9s-.92,1.8-1.12,2.09,2.43.24,3.6.34,2.72.77,1.74-.83a5.59,5.59,0,0,1-.87-3s-.53-.34-1.7.44A10.16,10.16,0,0,1,57.26,79.9Z"></path>
      <path class="cls-15" d="M57.57,23s1.17-10,4-13.84S68.32.4,73.69.07s7.12,1.65,7.87,3,.5,5.27.5,5.27.58-8.24-4.79-7.14-7.83,5.05-9.45,11.2-7.25,10.32-7.25,10.32S58.57,23.67,57.57,23Z"></path>
      <path class="cls-17" d="M71.86.73S68.78.88,64.78,6s-5.5,10.1-5.67,12.44-1.87,4.54-.21,4.1,5.44-4.92,6.88-8.64c1.66-4.31,3.16-7.49,4.91-9.11C74.11,1.65,73.86.73,71.86.73Z"></path>
      <g class="cls-18">
        <path class="cls-16" d="M76.11,0a9.29,9.29,0,0,0-3.55,1,8.54,8.54,0,0,0-2.83,2.3A61.78,61.78,0,0,0,65.2,9.25a20.8,20.8,0,0,0-1.57,3.34c-.46,1.17-.92,2.33-1.44,3.47a27.13,27.13,0,0,1-3.74,6.48,16.19,16.19,0,0,0,1.87-3.22q.8-1.7,1.5-3.42c.47-1.16.94-2.31,1.38-3.47A20.52,20.52,0,0,1,64.76,9a55.84,55.84,0,0,1,4.66-5.89A9,9,0,0,1,76.11,0Z"></path>
      </g>
      <g class="cls-19">
        <path class="cls-20" d="M71.94,1.07A8.46,8.46,0,0,0,70,2.29,9.54,9.54,0,0,0,68.53,4c-1,1.22-2,2.36-2.9,3.6a11.91,11.91,0,0,0-1.31,1.85,17,17,0,0,0-.95,2.08q-.88,2.13-1.81,4.25c.5-1.46,1-2.91,1.55-4.35a12,12,0,0,1,2.25-4.05c1-1.21,2-2.38,3-3.54A9.81,9.81,0,0,1,69.9,2.16,8.9,8.9,0,0,1,71.94,1.07Z"></path>
      </g>
      <g class="cls-21">
        <path class="cls-16" d="M60.28,22.76a34.17,34.17,0,0,0,3.57-3.34,14.71,14.71,0,0,0,2.8-4c.62-1.5,1.08-3.06,1.55-4.62a18.43,18.43,0,0,1,1.9-4.54,15.1,15.1,0,0,1,3.33-3.62A7.22,7.22,0,0,1,78,1l.62.08c.2,0,.4.11.6.17a3.15,3.15,0,0,1,1.1.58,4.44,4.44,0,0,1,1.31,2.09A11.74,11.74,0,0,1,82,8.73a11.64,11.64,0,0,0-.48-4.81,4.4,4.4,0,0,0-1.28-2,3,3,0,0,0-1-.54,5.47,5.47,0,0,0-.58-.15L78,1.16a7,7,0,0,0-4.39,1.73,15.14,15.14,0,0,0-3.24,3.58,18.48,18.48,0,0,0-1.9,4.45c-.49,1.56-1,3.13-1.61,4.63a14.74,14.74,0,0,1-2.88,4A34.26,34.26,0,0,1,60.28,22.76Z"></path>
      </g>
      <path class="cls-15" d="M58.85,21.47s-2.1,1.69-1.13,3.28c0,0,.26,1,1.49.41s1.13.05,1.74.1a4.22,4.22,0,0,0,1.7-.56S61.93,21,58.85,21.47Z"></path>
      <path class="cls-16" d="M57.72,24.75s.26,1,1.49.41,1.13.05,1.74.1a4.22,4.22,0,0,0,1.7-.56,5.49,5.49,0,0,1-2.16-.5c-.46-.3.13-1.08-.31-1.16s-1,1.11-1.18,1c-.38-.23-.14-1.24-.48-1.26C57.58,22.72,57.35,24.14,57.72,24.75Z"></path>
      <path class="cls-14" d="M58.59,21.77s0-.87,3-.51,2.92.15,2.92.15,2.11-1.74,3-.56,1,2.87,1.49,3.95,1.43,5,.87,6.87-.56,1.95,0,2.88a10.3,10.3,0,0,1,1.08,5.33A12.36,12.36,0,0,1,70,43.63,11.12,11.12,0,0,0,69.26,46a31.73,31.73,0,0,1-1.38,3.38s-.21-3-.51-4.77-.21-2.31-1-3.23-.51-1.64-.82-2.56S64.24,37.52,64.13,36s.16-3.84-.71-5.18-2.16-6.67-2.77-7.74S59.47,21.11,58.59,21.77Z"></path>
      <path class="cls-15" d="M64.85,22.44a37.69,37.69,0,0,1,1.59,4.46,29,29,0,0,1,.93,6.62c0,1,1.69,6.46,1.64,8.31s.92,1,1.13-1.28.15-4.46-.52-5.49a3.44,3.44,0,0,1-.46-3.49c.62-1.28,0-5-.56-6.36s-1.18-4.1-1.7-4.1S64.85,22.13,64.85,22.44Z"></path>
      <path class="cls-15" d="M65.11,24.13s-.51-1.38-1.23-1.64-3.29-1.18-3-.56a11.62,11.62,0,0,1,1.13,3,27.74,27.74,0,0,0,2.1,5.44,7.33,7.33,0,0,1,1.08,4.31c-.1,1.85.77,2.41,1,3.13s-.06,1.85.51,2.82S68,42.7,68,42.7s1,1.18.62-2.05a30.29,30.29,0,0,0-1.54-6A59.07,59.07,0,0,0,65.11,24.13Z"></path>
      <g class="cls-24">
        <path class="cls-20" d="M57.76,22.87a2.49,2.49,0,0,1,.9-1.27.94.94,0,0,1,.8-.08,2,2,0,0,1,.68.43,2.77,2.77,0,0,1,.78,1.38c.15.5.26,1,.44,1.48a25.64,25.64,0,0,1,1,3,17,17,0,0,0,1,2.93l-.68-1.4a11.25,11.25,0,0,1-.51-1.48,28.29,28.29,0,0,0-1-2.93c-.37-1-.38-2.11-1.13-2.81a1.08,1.08,0,0,0-1.3-.38A2.45,2.45,0,0,0,57.76,22.87Z"></path>
      </g>
      <path class="cls-15" d="M61.27,26.3s.31-2.53-1.1-3.67c-2.94-2.37-3.44-4.76-4.41-6.22s-5.34-5.17-10.08-3.26A10.38,10.38,0,0,0,42.4,15c-1,.92-1.14,1.66-3.1,2.45a13.45,13.45,0,0,0-4.92,3.36s-.65-3.44,5.06-5.57a5.92,5.92,0,0,1,2.23-.18,14.94,14.94,0,0,1,3.44.56c3,.72,4.93.32,6.92.62C56.48,17,61.36,24.63,61.27,26.3Z"></path>
      <path class="cls-15" d="M56.38,20.34a22,22,0,0,0-.26,3.71c.15.81.4.86.4.86s0,1.58.43,1.84,2.16-1.75,4.27.05A9.7,9.7,0,0,0,59.07,24C57.51,22.59,56.31,21.26,56.38,20.34Z"></path>
      <path class="cls-14" d="M61,26.93a3.41,3.41,0,0,0-.21-3.41c-1-1.39-2.13-1.35-3.84-4.93s-4.11-4.68-4.11-4.68S55.6,16.53,55.78,18s0,3.24.71,4.24,1.71,1.45,2.91,2.63A6.49,6.49,0,0,1,61,26.93Z"></path>
      <path class="cls-23" d="M61,26.89a3.6,3.6,0,0,0-.07-3v0a7.67,7.67,0,0,0-1-1.22l-1.17-1.17a10.15,10.15,0,0,1-1.88-2.76,20.08,20.08,0,0,0-1.66-2.84,11.12,11.12,0,0,0-2.54-2.07,9.74,9.74,0,0,1,2.7,2,16,16,0,0,1,1.74,2.83,11.71,11.71,0,0,0,1.84,2.7,13.58,13.58,0,0,1,2.2,2.54v0A3.54,3.54,0,0,1,61,26.89Z"></path>
      <path class="cls-16" d="M58.83,49.84S59,36,58.41,32.94s.31-4.8.73-4.37a6,6,0,0,1,.62,2.63c0,.43.42,19.08.21,20.53S58.83,50.71,58.83,49.84Z"></path>
      <path class="cls-16" d="M58.38,61.9s-.26,8.52-.51,9.43,1,.47,1.42-.58,1.27-2.15,1.27-3.32c0-.67,0-6-.33-6.44C60.23,61,59,59.64,58.38,61.9Z"></path>
      <path class="cls-8" d="M59.09,86.33a1.15,1.15,0,0,0-1.11-.4c-.61.19-.85.67-.75.85l.23.23c.15.15.48-.28.49-.28Z"></path>
      <path class="cls-25" d="M59.41,87.07s-.19-.83-.51-.84-.67-.06-.67-.06l-.09.15s.31.55.44.59S59,87,59,87A3.43,3.43,0,0,0,59.41,87.07Z"></path>
      <path class="cls-10" d="M59.38,87.18c0-.08.08-.27-.12-.33a2.44,2.44,0,0,0-.41-.08s-.5.38-.6.44-.16.05.13.14.29.16.55.12A.76.76,0,0,0,59.38,87.18Z"></path>
      <path class="cls-11" d="M58.85,86.77a2.72,2.72,0,0,0-.36.36c-.15.17-.18.23-.35.14s-.64-.16-.76-.33-.11-.16,0-.37a.91.91,0,0,1,.59-.36.51.51,0,0,1,.58.12A1.3,1.3,0,0,1,58.85,86.77Z"></path>
      <path class="cls-8" d="M43.37,80.62a1.68,1.68,0,0,0-1.72-.24c-.82.46-1,1.23-.82,1.45a3.51,3.51,0,0,0,.4.26c.27.17.6-.54.62-.55Z"></path>
      <path class="cls-25" d="M44.05,81.59s-.53-1.15-1-1.06-1,.12-1,.12l-.08.24s.61.7.8.72.56,0,.64,0A4,4,0,0,0,44.05,81.59Z"></path>
      <path class="cls-10" d="M44.05,81.74c0-.11,0-.4-.27-.42a3.68,3.68,0,0,0-.62,0s-.6.7-.72.81-.22.13.22.16.46.15.83,0A1.14,1.14,0,0,0,44.05,81.74Z"></path>
      <path class="cls-11" d="M43.16,81.32a4.43,4.43,0,0,0-.41.63c-.16.29-.18.38-.46.3s-1,0-1.19-.24-.21-.19-.06-.54a1.39,1.39,0,0,1,.73-.7.78.78,0,0,1,.89,0A1.88,1.88,0,0,1,43.16,81.32Z"></path>
      <path class="cls-8" d="M54.47,78.35s-3.54-1.77-6,.39-2.6,4.93-1.75,5.52a11,11,0,0,0,1.55.62c1,.38,1.66-2.28,1.72-2.32S54.47,78.35,54.47,78.35Z"></path>
      <path class="cls-25" d="M57.49,81.14s-2.62-3.51-4.12-2.9-3.24,1.12-3.24,1.12l-.1.89s2.58,1.92,3.27,1.86,1.91-.28,2.21-.28A16.26,16.26,0,0,0,57.49,81.14Z"></path>
      <path class="cls-10" d="M57.6,81.68c0-.39-.18-1.4-1.24-1.26a15.22,15.22,0,0,0-2.09.45s-1.54,2.81-1.89,3.29-.66.59.88.39,1.66.16,2.83-.54A4,4,0,0,0,57.6,81.68Z"></path>
      <path class="cls-11" d="M54.27,80.87a18.19,18.19,0,0,0-1,2.44C53,84.42,53,84.73,52,84.68s-3.29.6-4.19,0-.87-.49-.62-1.78a4.72,4.72,0,0,1,2-2.91,2.64,2.64,0,0,1,3-.63A6.76,6.76,0,0,1,54.27,80.87Z"></path>
      <path class="cls-8" d="M68.09,79.48s-2-2.77-4.81-2.09-4,2.78-3.55,3.58a10.65,10.65,0,0,0,1,1.1c.64.7,2.19-1.11,2.25-1.12S68.09,79.48,68.09,79.48Z"></path>
      <path class="cls-25" d="M69.32,82.84s-.64-3.76-2-3.88-3-.43-3-.43l-.44.65s1.24,2.52,1.79,2.74,1.59.55,1.83.66A12.83,12.83,0,0,0,69.32,82.84Z"></path>
      <path class="cls-10" d="M69.18,83.3c.13-.32.42-1.15-.46-1.47a13.33,13.33,0,0,0-1.79-.48s-2.31,1.56-2.77,1.8-.75.19.52.65,1.23.78,2.41.7A3.45,3.45,0,0,0,69.18,83.3Z"></path>
      <path class="cls-11" d="M66.93,81.35a16,16,0,0,0-1.72,1.5c-.69.74-.82,1-1.58.53s-2.78-.84-3.26-1.65-.47-.73.24-1.63a4,4,0,0,1,2.7-1.44,2.28,2.28,0,0,1,2.57.7A5.81,5.81,0,0,1,66.93,81.35Z"></path>
      <path class="cls-8" d="M58.61,80.92s-2.93-2.26-5.58-.73-3.27,4-2.6,4.75a10.37,10.37,0,0,0,1.31.85c.86.53,1.92-1.8,2-1.82S58.61,80.92,58.61,80.92Z"></path>
      <path class="cls-25" d="M60.87,84s-1.77-3.7-3.25-3.41a31.93,31.93,0,0,1-3.18.44l-.25.8s2,2.23,2.66,2.29,1.8.09,2.08.14A13.09,13.09,0,0,0,60.87,84Z"></path>
      <path class="cls-10" d="M60.87,84.53c0-.36.09-1.31-.91-1.37a13.41,13.41,0,0,0-2,0s-1.92,2.3-2.33,2.68-.71.42.74.51,1.49.45,2.69,0A3.75,3.75,0,0,0,60.87,84.53Z"></path>
      <path class="cls-11" d="M58,83.19a17.77,17.77,0,0,0-1.33,2.06c-.49,1-.56,1.25-1.48,1s-3.12,0-3.85-.73-.7-.61-.24-1.75a4.4,4.4,0,0,1,2.37-2.29,2.45,2.45,0,0,1,2.86,0A6.31,6.31,0,0,1,58,83.19Z"></path>
      <path class="cls-8" d="M73.84,86.05a1.79,1.79,0,0,0,1.63-.8c.43-.89.15-1.67-.16-1.74a2.9,2.9,0,0,0-.5,0c-.33,0-.19.83-.21.84Z"></path>
      <path class="cls-25" d="M72.68,85.62s1.14.68,1.48.33.77-.68.77-.68L74.86,85a3.8,3.8,0,0,0-1.13-.14c-.18.1-.49.3-.58.34A4.29,4.29,0,0,0,72.68,85.62Z"></path>
      <path class="cls-10" d="M72.59,85.49a.34.34,0,0,0,.49.2,4.71,4.71,0,0,0,.53-.36s.1-1,.14-1.13.12-.24-.29,0-.48.15-.72.48A1.21,1.21,0,0,0,72.59,85.49Z"></path>
      <path class="cls-11" d="M73.61,85.33a6,6,0,0,0,0-.79c0-.35-.07-.43.22-.53s.84-.55,1.16-.5.3,0,.38.43a1.41,1.41,0,0,1-.23,1,.78.78,0,0,1-.76.52A2,2,0,0,1,73.61,85.33Z"></path>
      <path class="cls-8" d="M34.83,88.09a1.76,1.76,0,0,0,1.62-.81c.44-.88.16-1.66-.15-1.73a2.9,2.9,0,0,0-.5,0c-.33,0-.2.82-.21.84S34.83,88.09,34.83,88.09Z"></path>
      <path class="cls-25" d="M33.67,87.66s1.13.67,1.48.33a9.25,9.25,0,0,1,.77-.69l-.08-.25a3.47,3.47,0,0,0-1.12-.14c-.18.09-.5.3-.58.33A5.59,5.59,0,0,0,33.67,87.66Z"></path>
      <path class="cls-10" d="M33.58,87.52a.34.34,0,0,0,.49.21,4.49,4.49,0,0,0,.52-.37s.11-1,.15-1.13.11-.24-.29,0-.48.14-.72.47A1.21,1.21,0,0,0,33.58,87.52Z"></path>
      <path class="cls-11" d="M34.59,87.36a5.09,5.09,0,0,0,0-.78c0-.35-.07-.44.22-.54s.84-.55,1.16-.49.3,0,.37.42a1.4,1.4,0,0,1-.22,1,.78.78,0,0,1-.76.52A2.08,2.08,0,0,1,34.59,87.36Z"></path>
      <path class="cls-8" d="M46,86.68a2.25,2.25,0,0,0,2.14-.88c.63-1.09.34-2.11,0-2.22a5.31,5.31,0,0,0-.64,0c-.42,0-.32,1-.34,1.06Z"></path>
      <path class="cls-25" d="M44.53,86s1.39.95,1.86.54,1-.8,1-.8l-.07-.34a4.53,4.53,0,0,0-1.42-.27c-.24.1-.66.34-.77.37A6,6,0,0,0,44.53,86Z"></path>
      <path class="cls-10" d="M44.43,85.85c.06.14.24.49.6.31a5.85,5.85,0,0,0,.71-.42s.21-1.21.28-1.43.17-.29-.37,0-.62.15-1,.54A1.56,1.56,0,0,0,44.43,85.85Z"></path>
      <path class="cls-11" d="M45.74,85.74a7.12,7.12,0,0,0,0-1c0-.45,0-.56.32-.67s1.12-.62,1.52-.52.38.07.44.57a1.77,1.77,0,0,1-.37,1.3,1,1,0,0,1-1,.6A2.52,2.52,0,0,1,45.74,85.74Z"></path>
      <path class="cls-8" d="M54.11,85.1a1.43,1.43,0,0,1,1.32-.2c.64.3.82.82.66,1a2.72,2.72,0,0,1-.3.19c-.2.12-.48-.36-.49-.36Z"></path>
      <path class="cls-25" d="M53.6,85.77S54,85,54.34,85s.76.06.76.06l.07.17s-.46.48-.61.5l-.5,0C54,85.82,53.6,85.77,53.6,85.77Z"></path>
      <path class="cls-10" d="M53.6,85.88c0-.08,0-.28.21-.3a4.22,4.22,0,0,1,.47,0s.48.47.58.54.18.08-.17.12-.35.1-.64,0A.84.84,0,0,1,53.6,85.88Z"></path>
      <path class="cls-11" d="M54.28,85.57a3.51,3.51,0,0,1,.34.42c.12.2.14.26.36.2s.74,0,.91-.19.16-.13,0-.37a1,1,0,0,0-.59-.46.68.68,0,0,0-.68,0A1.55,1.55,0,0,0,54.28,85.57Z"></path>
      <path class="cls-8" d="M66.05,81.74s-2.75-2-5.18-.57S57.92,85,58.56,85.62a10.41,10.41,0,0,0,1.22.76c.82.47,1.75-1.7,1.81-1.72S66.05,81.74,66.05,81.74Z"></path>
      <path class="cls-25" d="M68.2,84.57s-1.71-3.39-3.07-3.08S62.2,82,62.2,82l-.22.74s1.91,2,2.5,2.08,1.67,0,1.93.09A13.39,13.39,0,0,0,68.2,84.57Z"></path>
      <path class="cls-10" d="M68.21,85c0-.34.06-1.21-.87-1.25a13.91,13.91,0,0,0-1.84.06S63.76,86,63.4,86.38s-.65.4.69.46,1.39.38,2.49,0A3.49,3.49,0,0,0,68.21,85Z"></path>
      <path class="cls-11" d="M65.5,83.85a16.15,16.15,0,0,0-1.19,1.94c-.43.9-.49,1.16-1.35,1s-2.89,0-3.57-.6-.67-.55-.26-1.62a4.11,4.11,0,0,1,2.14-2.17,2.27,2.27,0,0,1,2.65-.08A5.86,5.86,0,0,1,65.5,83.85Z"></path>
      <path class="cls-8" d="M51.37,84.92s-2.25-.41-3.27,1.19-.65,3.15-.08,3.35a6.82,6.82,0,0,0,1,.09c.63,0,.55-1.53.58-1.56Z"></path>
      <path class="cls-25" d="M53.5,86s-2-1.52-2.76-.94-1.62,1.14-1.62,1.14l.09.51a7.07,7.07,0,0,0,2.12.51c.37-.14,1-.47,1.18-.52A9.42,9.42,0,0,0,53.5,86Z"></path>
      <path class="cls-10" d="M53.64,86.26c-.08-.21-.32-.74-.89-.49a8.08,8.08,0,0,0-1.08.58s-.41,1.81-.52,2.13-.27.44.55.08.95-.18,1.48-.76A2.32,2.32,0,0,0,53.64,86.26Z"></path>
      <path class="cls-11" d="M51.67,86.35a9.53,9.53,0,0,0-.14,1.51c0,.67,0,.84-.53,1s-1.73.86-2.33.69-.56-.13-.63-.89a2.75,2.75,0,0,1,.65-1.94,1.52,1.52,0,0,1,1.56-.83A4,4,0,0,1,51.67,86.35Z"></path>
    </g>
  </g>
</svg>
