<?xml version="1.0" encoding="UTF-8"?>
<svg xmlns="http://www.w3.org/2000/svg" viewBox="0 0 104.61 136.54">
  <defs>
    <style>.cls-1{fill:#a29274;}.cls-2{fill:#e3e0c9;}.cls-3{fill:#bda885;}.cls-4{fill:#7c705b;}.cls-5{fill:#d0c5a6;}.cls-6{fill:#a29277;}.cls-7{fill:#817870;}.cls-8{fill:#93c63e;}.cls-9{fill:#3f6c3e;}.cls-10{fill:#e6f5b2;}.cls-11,.cls-12{fill:none;stroke:#e6f5b2;stroke-miterlimit:10;}.cls-11{stroke-width:0.04px;}.cls-12{stroke-width:0.12px;}.cls-13{opacity:0.99;}</style>
  </defs>
  <g id="Слой_2" data-name="Слой 2">
    <g id="Слой_1-2" data-name="Слой 1">
      <polygon class="cls-1" points="52.38 67.72 104.61 45.48 96.77 105.62 52.38 136.54 52.38 67.72"></polygon>
      <polygon class="cls-2" points="52.38 30.45 104.61 45.48 52.38 67.72 0 45.48 52.38 30.45"></polygon>
      <polygon class="cls-3" points="52.38 67.72 0 45.48 7.83 105.62 21.66 115.22 21.38 115.01 21.66 115.22 52.38 136.54 52.38 67.72"></polygon>
      <path class="cls-4" d="M51.14,134.71c1.22-1.74,2.29-3.56,3.41-5.34s2.18-3.6,3.2-5.43,2-3.68,2.93-5.55,1.74-3.81,2.54-5.8a26.44,26.44,0,0,1-1.51,6.24A44.56,44.56,0,0,1,59,124.65,49.92,49.92,0,0,1,55.47,130,27.62,27.62,0,0,1,51.14,134.71Z"></path>
      <path class="cls-5" d="M32.92,46.22a22,22,0,0,1,5.28-5A28.06,28.06,0,0,1,44.77,38a32.54,32.54,0,0,1,7.16-1.47c1.2-.14,2.42-.09,3.63-.13s2.42.16,3.61.3c-1.2.18-2.39.26-3.57.41l-1.77.26a17.42,17.42,0,0,0-1.76.28c-1.16.24-2.32.41-3.46.74s-2.26.62-3.39,1a39.17,39.17,0,0,0-6.44,2.82A40.77,40.77,0,0,0,32.92,46.22Z"></path>
      <path class="cls-5" d="M24,48.34a7.42,7.42,0,0,0,2.08.32c.71.05,1.41,0,2.12,0a39.7,39.7,0,0,0,4.21-.4c1.4-.2,2.8-.47,4.21-.74s2.82-.59,4.28-.83a19.17,19.17,0,0,1-4,1.91,23.54,23.54,0,0,1-4.3,1.08,18.07,18.07,0,0,1-4.47.09,11.14,11.14,0,0,1-2.2-.44A9.47,9.47,0,0,1,24.9,49,2.47,2.47,0,0,1,24,48.34Z"></path>
      <path class="cls-4" d="M61.81,90.85c-.24-1.51-.54-3-.64-4.58a20.32,20.32,0,0,1,.21-4.67,16.21,16.21,0,0,1,1.41-4.53,14.33,14.33,0,0,1,2.8-3.89,15.77,15.77,0,0,1,3.89-2.77,20.16,20.16,0,0,1,4.45-1.57,28.49,28.49,0,0,1,9.24-.51,43.58,43.58,0,0,0-9,1.6,18.05,18.05,0,0,0-7.63,4.27,15.32,15.32,0,0,0-4.12,7.61A37.62,37.62,0,0,0,61.81,90.85Z"></path>
      <path class="cls-4" d="M79.69,76.63c2.5-3.68,5.09-7.22,7.45-10.89a61.3,61.3,0,0,0,3.3-5.63A19.61,19.61,0,0,0,92.63,54a13.51,13.51,0,0,1-1.17,6.59,33.61,33.61,0,0,1-3.12,5.94,52.47,52.47,0,0,1-4,5.36A42.75,42.75,0,0,1,79.69,76.63Z"></path>
      <path class="cls-4" d="M67.58,95.73c.15.21.45.28.68.39l.76.28c.5.18,1,.34,1.53.5,1,.31,2.06.59,3.09.87,2.08.53,4.16,1,6.26,1.44s4.2.79,6.32,1.13l6.41,1a37.49,37.49,0,0,1-6.53.16,47.24,47.24,0,0,1-6.49-.85,41.83,41.83,0,0,1-6.3-1.78,29.71,29.71,0,0,1-3-1.28c-.49-.25-1-.5-1.44-.79A3.66,3.66,0,0,1,67.58,95.73Z"></path>
      <path class="cls-4" d="M80.19,103.34a15.68,15.68,0,0,1-1.49-8.75,14,14,0,0,1,1.24-4.4,14.52,14.52,0,0,1,2.63-3.77,19.08,19.08,0,0,1,7.77-4.59,30.92,30.92,0,0,1,8.76-1.42,54.66,54.66,0,0,0-8.38,2.47,21,21,0,0,0-7.12,4.54,14.07,14.07,0,0,0-3.8,7.34A17.88,17.88,0,0,0,79.52,99,16.76,16.76,0,0,0,80.19,103.34Z"></path>
      <path class="cls-4" d="M99.1,75.79A29.27,29.27,0,0,1,98,81.73a37.9,37.9,0,0,1-2.16,5.68,30.86,30.86,0,0,1-3.19,5.2,18.24,18.24,0,0,1-4.47,4.12A40.94,40.94,0,0,0,91.69,92c1-1.68,2-3.4,2.82-5.18s1.63-3.59,2.39-5.42S98.37,77.67,99.1,75.79Z"></path>
      <path class="cls-5" d="M65,62.32l1-.43a35.25,35.25,0,0,0-4.77-1.74C62.6,60.87,63.84,61.59,65,62.32Z"></path>
      <path class="cls-4" d="M64.62,63.2c-.74,1.85-1.34,3.36-2.24,5.12a37.39,37.39,0,0,1-6.53,9.87A19.91,19.91,0,0,0,60.19,74a35.18,35.18,0,0,0,3.15-5.19,45.13,45.13,0,0,0,2.36-5.57c.11-.37.24-.95.35-1.33l-1,.43C64.94,62.49,64.68,63,64.62,63.2Z"></path>
      <path class="cls-6" d="M6,91.91a15.93,15.93,0,0,1,4.72-4,25.76,25.76,0,0,1,5.72-2.43,30.85,30.85,0,0,1,6.1-1.09c1-.1,2.06-.06,3.09-.08s2.05.14,3.07.26c-1,.19-2,.3-3,.44s-2,.3-3,.49-2,.35-2.94.61-1.94.47-2.9.74a44.8,44.8,0,0,0-5.61,2A29.33,29.33,0,0,0,6,91.91Z"></path>
      <path class="cls-6" d="M9.17,83.56c2.07-1.31,4.05-2.71,6.06-4.09s4-2.77,5.94-4.19S25.11,72.45,27,71c1-.73,1.92-1.47,2.84-2.25a16.38,16.38,0,0,0,2.56-2.57,11.6,11.6,0,0,1-2.07,3.07,35.7,35.7,0,0,1-2.61,2.61A66.56,66.56,0,0,1,22,76.45c-2,1.41-4.06,2.75-6.19,4A37.43,37.43,0,0,1,9.17,83.56Z"></path>
      <path class="cls-6" d="M8.91,102.88a6,6,0,0,1,2.35-5.75,10.79,10.79,0,0,1,6.19-1.84,23.78,23.78,0,0,1,6.26.88,31.68,31.68,0,0,1,5.86,2.17c-2.07-.3-4.06-.8-6.08-1.08-1-.19-2-.29-3-.38a23.12,23.12,0,0,0-3-.15,11.41,11.41,0,0,0-5.58,1.32A6.37,6.37,0,0,0,8.91,102.88Z"></path>
      <path class="cls-6" d="M2.08,55.61a6.47,6.47,0,0,0,2.34,2.58,16.64,16.64,0,0,0,3.09,1.65,39.1,39.1,0,0,0,6.8,1.89c2.33.44,4.69.77,7.06,1s4.77.47,7.18.8a50.22,50.22,0,0,1-7.26.32A45.71,45.71,0,0,1,14,63.14a28.07,28.07,0,0,1-7-2.29A13.72,13.72,0,0,1,4,58.73,5.78,5.78,0,0,1,2.08,55.61Z"></path>
      <path class="cls-6" d="M38.67,126.65a13.39,13.39,0,0,1-3.45-2.08,8.06,8.06,0,0,1-2.52-3.32,4.82,4.82,0,0,1-.33-2.2,5.46,5.46,0,0,1,.66-2.14,9.86,9.86,0,0,1,2.87-3.11,26.71,26.71,0,0,1,7.29-3.58A48.74,48.74,0,0,1,51,108.33c-2.48,1-5,1.91-7.38,2.93A34.47,34.47,0,0,0,36.76,115a8.94,8.94,0,0,0-2.55,2.62,4.1,4.1,0,0,0-.46,3.33,8.12,8.12,0,0,0,2,3.16A19,19,0,0,0,38.67,126.65Z"></path>
      <path class="cls-6" d="M29.83,61.94a4.93,4.93,0,0,0-.36,4.2c1.09,2.68,3.47,4.32,5.83,5.45a18,18,0,0,1-3-2.52,7.91,7.91,0,0,1-2-3.18,4.27,4.27,0,0,1,.43-3.47,9.08,9.08,0,0,1,2.6-2.68l.12-.08-1.12-.47A9.26,9.26,0,0,0,29.83,61.94Z"></path>
      <path class="cls-5" d="M49.57,57.69a70.41,70.41,0,0,0-8.7-.15,25,25,0,0,0-7.32,1.16l-1.27.49,1.12.47a34.81,34.81,0,0,1,7.76-1.37C43.92,58,46.75,57.87,49.57,57.69Z"></path>
      <path class="cls-6" d="M28.92,111.26a14.17,14.17,0,0,0-3.23.37,7.49,7.49,0,0,0-2.94,1.6,3.69,3.69,0,0,0-1.11,2l.28.21a4.12,4.12,0,0,1,1.36-1.56A8.07,8.07,0,0,1,26,112.66a57.57,57.57,0,0,1,6.15-1A14.36,14.36,0,0,0,28.92,111.26Z"></path>
      <path class="cls-6" d="M27.9,106.49c2.1-1.13,4.3-2,6.43-2.94s4.27-1.91,6.32-3a43.1,43.1,0,0,0,5.89-3.63,17.65,17.65,0,0,0,4.75-5,13,13,0,0,1-4,5.88,29.38,29.38,0,0,1-5.94,4,48.45,48.45,0,0,1-6.58,2.76C32.5,105.37,30.19,105.92,27.9,106.49Z"></path>
      <path class="cls-4" d="M57.18,123.55c2.1-1.13,4.3-2,6.44-2.94s4.26-1.91,6.32-3A43.72,43.72,0,0,0,75.83,114a17.61,17.61,0,0,0,4.75-5,13.1,13.1,0,0,1-4,5.88,29.93,29.93,0,0,1-5.94,4A48.4,48.4,0,0,1,64,121.65C61.78,122.43,59.48,123,57.18,123.55Z"></path>
      <path class="cls-5" d="M60,61.15a35.43,35.43,0,0,1,4.83-6.36,37.65,37.65,0,0,1,6.07-5.26A26.36,26.36,0,0,1,78.19,46a19.35,19.35,0,0,1,4-.74,15.26,15.26,0,0,1,4,.27,23.05,23.05,0,0,0-3.91.43A25.22,25.22,0,0,0,78.55,47a33.71,33.71,0,0,0-6.8,3.7,56.7,56.7,0,0,0-6.1,4.88C63.72,57.35,61.85,59.21,60,61.15Z"></path>
      <path class="cls-4" d="M101.42,53.17a10.58,10.58,0,0,0-6.21,1.09c1.05-.1,2.07-.18,3.08-.19a16.35,16.35,0,0,1,3,.16,9.25,9.25,0,0,1,2.15.52l.11-.94A10.47,10.47,0,0,0,101.42,53.17Z"></path>
      <path class="cls-6" d="M6,82.15a18.46,18.46,0,0,1,4.38.51,20.07,20.07,0,0,1,4.19,1.47,11,11,0,0,1,3.63,2.72,5.55,5.55,0,0,1,1.1,2.06,3.86,3.86,0,0,1-.06,2.26,5.2,5.2,0,0,0-1.86-3.55,15.17,15.17,0,0,0-3.45-2.21C11.38,84.17,8.68,83.25,6,82.15Z"></path>
      <path class="cls-6" d="M27.75,101.4c2.54-3.74,5.14-7.36,7.46-11.15a54.83,54.83,0,0,0,3.21-5.81,23.53,23.53,0,0,0,2.1-6.29,15.07,15.07,0,0,1-1.07,6.72A31.34,31.34,0,0,1,38.11,88c-.54,1-1.08,2-1.68,3a47,47,0,0,1-4,5.51A40.21,40.21,0,0,1,27.75,101.4Z"></path>
      <ellipse class="cls-1" cx="54.03" cy="46.53" rx="12.06" ry="4.72"></ellipse>
      <ellipse class="cls-7" cx="54.34" cy="48.12" rx="9.94" ry="3.89"></ellipse>
      <path class="cls-8" d="M55.59,28.07a18.76,18.76,0,0,1-2.05-2.21,29,29,0,0,1-2.14-3.61,11,11,0,0,0-1.38-2c-.38-.55-.18-.37.16-.65s0-.94-.41-1.16-1.29-.57-1.22-1.06-.19-.61-.46-1-.37-.33,0-.67A2,2,0,0,0,48.51,14a16.15,16.15,0,0,1-.84-2c-.1-.53-.34-1-.05-1.38a1.91,1.91,0,0,0,.21-1.33c0-.39.07-.37.3-.59s.33-.64.57-.88.5-.5.4-.82-.39-1.68.08-1.54.68,0,.88-.4c-.12-.34-.41-.83,0-1.14a2.71,2.71,0,0,1,1.47-.67,2.17,2.17,0,0,0,1-.08,1.27,1.27,0,0,1,.74-1.42c.62-.36,1.83-1.31,2.4-1.53s.44-.22.7.14A1.34,1.34,0,0,0,57.44,1c.52,0,1.74.23,2,.63s-.54.59-.11.94,1.37.15,1.86.5c.06.25-.25.24.09.54a11.56,11.56,0,0,0,1.83,1c0,.83.47,1.45.56,2.28s.67.84,1,1.66a9.19,9.19,0,0,1,.13,3.55c-.09.88-.43,1.38-.1,2.12a2,2,0,0,1,0,1.94c-.33.74-.83.6-1.1,1.59s.26,1.17-.57,2.79-3,5.92-4.89,7.21c-.4,1.39-.43-.28-.57,1.84a102.52,102.52,0,0,0-.3,10.56c-.53,0-1.73,2.49-2-.3-.09-1.1,1-7.73.71-10A6,6,0,0,0,55.59,28.07Z"></path>
      <path class="cls-9" d="M55.58,28.08a15.6,15.6,0,0,1-2.33-2.61,28.33,28.33,0,0,1-1.78-3A6.08,6.08,0,0,0,50.56,21c-.18-.23-.37-.45-.54-.69a2.4,2.4,0,0,1-.23-.38c-.06-.08,0-.21.11-.22l.18-.11c.27-.14.2-.48.05-.71a1.23,1.23,0,0,0-.62-.55,4,4,0,0,1-.76-.47.67.67,0,0,1-.25-.38,3,3,0,0,0,0-.44c-.06-.25-.32-.44-.49-.68l-.13-.17a.24.24,0,0,1-.06-.27,2.56,2.56,0,0,1,.29-.34A1.85,1.85,0,0,0,48.44,14c-.43-1-1.21-2.08-.93-3.35a1.22,1.22,0,0,0,.26-.78,6.73,6.73,0,0,1,0-.9c.1-.18.24-.22.32-.33a1.69,1.69,0,0,0,.23-.34,2.37,2.37,0,0,1,.52-.72.92.92,0,0,0,.2-.34A.83.83,0,0,0,49,6.84,5.19,5.19,0,0,1,48.84,6a.86.86,0,0,1,.09-.48.26.26,0,0,1,.28-.08l.21,0c.28.07.46-.14.57-.41V5.1a1.56,1.56,0,0,1-.18-1,.91.91,0,0,1,.36-.39,3.66,3.66,0,0,1,.42-.26,1.83,1.83,0,0,1,1-.28,2,2,0,0,0,.94-.07l-.05.08a1.74,1.74,0,0,1,.08-.78,1.31,1.31,0,0,1,.5-.59c.44-.27.83-.54,1.25-.83A9.65,9.65,0,0,1,55.54.2L55.9.05a.83.83,0,0,1,.2,0c.12,0,.17.11.2.15a2.26,2.26,0,0,0,.45.56c.36.32.9.23,1.39.34a2.27,2.27,0,0,1,1.39.62.36.36,0,0,1,0,.42c-.07.11-.17.2-.19.29s.26.3.48.35a4.06,4.06,0,0,1,1.46.33h0v0c.06.14-.08.3-.06.33s.11.15.19.21A4.43,4.43,0,0,0,62,4c.39.22.79.42,1.2.61h0v0a4.65,4.65,0,0,0,.38,1.53c.21.51.1,1.11.51,1.48A2.48,2.48,0,0,1,64.91,9a7.3,7.3,0,0,1,.1,1.61c0,.54-.06,1.08-.13,1.61a6.66,6.66,0,0,0-.21,1.58,4.45,4.45,0,0,0,.26.75,2,2,0,0,1,.09.81,2.36,2.36,0,0,1-.71,1.43,1.88,1.88,0,0,0-.72,1.36,5.08,5.08,0,0,1-.14,1.6A28.74,28.74,0,0,1,62,22.67c-.51.94-1.06,1.87-1.66,2.76a9.46,9.46,0,0,1-2.15,2.4l0,0c0,.13-.08.26-.13.38s-.12.3-.29.31a1.84,1.84,0,0,0-.12.7l-.1,1.57-.16,3.14c-.08,2.1-.18,4.2-.07,6.29v.05h-.06c-.25.06-.47.35-.7.56s-.47.52-.86.41-.32-.58-.39-.88a3.85,3.85,0,0,1,0-1c.09-1.27.25-2.52.39-3.79s.27-2.52.34-3.79A7.82,7.82,0,0,0,55.58,28.08Zm0,0a7.68,7.68,0,0,1,.5,3.74c-.07,1.27-.19,2.53-.32,3.79s-.28,2.52-.37,3.79a4.27,4.27,0,0,0,.05.94c.06.29.11.65.35.8s.52-.2.74-.4.39-.5.77-.59l-.05.06c-.12-2.11-.06-4.21,0-6.31l.18-3.14.11-1.57,0-.4c0-.12,0-.27.17-.4s.25-.39.34-.61v0h0a9.61,9.61,0,0,0,2.13-2.36c.61-.89,1.15-1.81,1.67-2.75a25.64,25.64,0,0,0,1.44-2.87,4.88,4.88,0,0,0,.14-1.58,2,2,0,0,1,.74-1.4,2.31,2.31,0,0,0,.69-1.4,1.88,1.88,0,0,0-.09-.78,4.55,4.55,0,0,1-.27-.76,6.56,6.56,0,0,1,.21-1.6c.06-.53.1-1.06.11-1.6a7,7,0,0,0-.1-1.59A2.36,2.36,0,0,0,64,7.73,1.24,1.24,0,0,1,63.65,7a3.32,3.32,0,0,0-.18-.77,4.66,4.66,0,0,1-.4-1.57l0,0c-.41-.19-.82-.38-1.21-.6a4.32,4.32,0,0,1-.58-.36.64.64,0,0,1-.24-.29c0-.2.11-.22.06-.32l0,0a4.28,4.28,0,0,0-1.42-.31,1,1,0,0,1-.37-.15.36.36,0,0,1-.22-.36c.11-.29.38-.42.25-.61a2.2,2.2,0,0,0-1.29-.54c-.25,0-.49-.07-.74-.09a1.3,1.3,0,0,1-.72-.29,2.11,2.11,0,0,1-.49-.59c0-.06-.06-.09-.07-.08A.37.37,0,0,0,56,.2l-.34.13a9.81,9.81,0,0,0-1.26.79c-.4.28-.82.57-1.24.82a1.21,1.21,0,0,0-.52,1.23v.05l-.06,0a2.11,2.11,0,0,1-1,.09,1.79,1.79,0,0,0-.89.25c-.26.16-.6.34-.71.57s.08.58.18.89v.06a1.16,1.16,0,0,1-.26.39.59.59,0,0,1-.48.1c-.16,0-.31-.1-.33,0A.82.82,0,0,0,49,6a4.17,4.17,0,0,0,.13.85,1.09,1.09,0,0,1,.06.46.83.83,0,0,1-.23.41,2.21,2.21,0,0,0-.5.69,1.84,1.84,0,0,1-.25.39c-.1.11-.25.19-.29.28,0,.46.15,1.21-.27,1.69a1,1,0,0,0,0,.79,6.7,6.7,0,0,0,.22.83c.2.54.5,1.05.72,1.6a2,2,0,0,1-.39,1.71,3.56,3.56,0,0,0-.28.31c0,.07.1.2.18.31s.42.41.5.74c-.16.68.47.95,1,1.22a1.35,1.35,0,0,1,.66.59.81.81,0,0,1,.14.43.43.43,0,0,1-.22.4c-.11.09-.33.12-.26.23a1.93,1.93,0,0,0,.22.36c.16.24.35.46.53.69a6.1,6.1,0,0,1,.9,1.51,29.28,29.28,0,0,0,1.77,3A15.49,15.49,0,0,0,55.59,28.07Z"></path>
      <path class="cls-10" d="M55,.7A10.82,10.82,0,0,1,55.51,3a10.28,10.28,0,0,0,0,2.35C55.49,7,57,8.17,56.94,9.87c0,.82-.33,1.57-.3,2.35s.15,1.57.24,2.35.2,1.57.27,2.37a6.76,6.76,0,0,0,.2,1.15,4.48,4.48,0,0,1,0,1.22,10.07,10.07,0,0,0,.06,2.33A13.42,13.42,0,0,1,57.29,24a18.69,18.69,0,0,0,0,2.36l.2,2.37a14.68,14.68,0,0,1,0,2.39,23.34,23.34,0,0,0-.14,2.36,21,21,0,0,1-.15,2.38c0,.4-.13.78-.16,1.18s0,.78,0,1.18h0c0-.4,0-.79,0-1.19s.08-.79.1-1.18a20.88,20.88,0,0,0,.1-2.37,23.66,23.66,0,0,1,.08-2.38,14.21,14.21,0,0,0,0-2.35l-.2-2.37A18.81,18.81,0,0,1,57,24a13.45,13.45,0,0,0,.12-2.34,10.23,10.23,0,0,1,0-2.41,4.1,4.1,0,0,0,.06-1.15,7.26,7.26,0,0,1-.2-1.18c-.06-.78-.15-1.57-.24-2.35s-.19-1.57-.22-2.38.32-1.57.33-2.35c.05-1.59-1.4-2.82-1.4-4.47A10.52,10.52,0,0,1,55.45,3,11,11,0,0,0,55,.7Z"></path>
      <path class="cls-10" d="M51.81,4.47a4,4,0,0,1,1,.82c.27.33.45.72.7,1.07s.5.68.72,1a9.66,9.66,0,0,1,.42,1.21c.13.4.44.72.59,1.14A7.63,7.63,0,0,0,55.64,11a17.65,17.65,0,0,1,1,2.35l-.15,0a16.46,16.46,0,0,0-1-2.34,8.61,8.61,0,0,1-.41-1.21c-.13-.4-.44-.72-.57-1.14a9.53,9.53,0,0,0-.4-1.21c-.2-.36-.49-.69-.71-1.06S53,5.63,52.77,5.3A4.44,4.44,0,0,0,51.81,4.47Z"></path>
      <path class="cls-10" d="M50.48,7.11A4.59,4.59,0,0,1,53.35,8a4.07,4.07,0,0,1,1,1.15c.28.41.78.63,1,1.14l-.11,0c-.19-.45-.69-.7-1-1.13a4.1,4.1,0,0,0-1-1.16A4.62,4.62,0,0,0,50.48,7.11Z"></path>
      <path class="cls-10" d="M49.59,10.57a5.64,5.64,0,0,1,2.09-.78,4.44,4.44,0,0,0,2.19.2A1.11,1.11,0,0,1,55,10.2a4.27,4.27,0,0,1,.44,1,1,1,0,0,0,.34.41,3,3,0,0,1,.35.45,8,8,0,0,1,.56,1l-.1.05c-.17-.33-.34-.66-.54-1a3.79,3.79,0,0,0-.34-.43,1.3,1.3,0,0,1-.36-.45,4,4,0,0,0-.41-1,1,1,0,0,0-1-.2,4.48,4.48,0,0,1-2.21-.23A5.47,5.47,0,0,0,49.59,10.57Z"></path>
      <path class="cls-11" d="M49.09,7.38a10,10,0,0,1,1.32.73,4.12,4.12,0,0,1,1,1,2.38,2.38,0,0,0,1.33.91"></path>
      <path class="cls-12" d="M57.21,19a12,12,0,0,0-.81-2.15,7.68,7.68,0,0,0-.75-1.36,2.78,2.78,0,0,0-.77-.65c-.38-.24-.62-.79-.94-1.14s-.75-.22-1.28-.2a3.43,3.43,0,0,1-1.86-.4c-.49-.33-.86-.77-1.43-.82a10,10,0,0,0,3.2.26c.94-.16,1.17-.7,2.15-.46a2.31,2.31,0,0,1,2,1.87,1.38,1.38,0,0,1,.41-1.51,3.49,3.49,0,0,0,.74-2.16c-.05-.66-.41-.88-.1-1.46S58.86,7.9,59,7.22s-.35-1.37-.09-1.94.74-.9.82-1.45-.18-.67.33-1"></path>
      <path class="cls-10" d="M55.93,16a2.27,2.27,0,0,0-.76-.58c-.29-.11-.63-.17-.94-.27A3.12,3.12,0,0,0,53.3,15a5.26,5.26,0,0,1-1,.27,1.92,1.92,0,0,1-1-.08,3.39,3.39,0,0,0-1-.23,7.93,7.93,0,0,0-1-.06,1.5,1.5,0,0,1-1-.1,1.5,1.5,0,0,0,1,.07,6.57,6.57,0,0,1,1,0c.67,0,1.26.47,1.91.28a4.39,4.39,0,0,0,.94-.27,3.21,3.21,0,0,1,1,.16c.32.1.63.15,1,.27A2.39,2.39,0,0,1,56,16Z"></path>
      <path class="cls-10" d="M56.15,40.38c-.09-1-.17-1.94-.17-2.92s.15-2,.22-2.93a21.91,21.91,0,0,0,.21-2.91c0-.48-.19-.94-.22-1.45a10.3,10.3,0,0,1,.14-1.47,5.78,5.78,0,0,0,0-1.44c0-.49-.06-1-.12-1.46a6.4,6.4,0,0,1,.12-2.92,5.82,5.82,0,0,0,.21-1.43c0-.49-.08-1-.09-1.46a6,6,0,0,1,.07-1.47,3.59,3.59,0,0,0,.11-.72,3.61,3.61,0,0,0-.12-.72,4.36,4.36,0,0,1,.14.72,3.56,3.56,0,0,1-.09.73,6.4,6.4,0,0,0,0,1.45c0,.49.09,1,.11,1.46a6.42,6.42,0,0,1-.2,1.46,6.37,6.37,0,0,0-.1,2.88c.07.49.09,1,.14,1.47a5.57,5.57,0,0,1,0,1.47,10.34,10.34,0,0,0-.15,1.45c0,.47.18.95.21,1.44a25.72,25.72,0,0,1-.24,2.93c-.08,1-.21,2-.25,2.92S56.09,39.41,56.15,40.38Z"></path>
      <path class="cls-10" d="M56.61,18.4a3.63,3.63,0,0,0-1.81-1.06,4.63,4.63,0,0,0-1-.12l-.54,0a.7.7,0,0,1-.54-.16,1,1,0,0,0-.81-.55,2.35,2.35,0,0,0-1,.36,8.4,8.4,0,0,0-.93.51c-.29.19-.54.46-.82.68a9.11,9.11,0,0,1,.79-.73,6.56,6.56,0,0,1,.93-.53,2.48,2.48,0,0,1,1-.39,1.07,1.07,0,0,1,.89.58c.09.11.28.12.46.13l.53,0a4.84,4.84,0,0,1,1.07.15A3.28,3.28,0,0,1,56.61,18.4Z"></path>
      <path class="cls-10" d="M53.24,17.2a3.1,3.1,0,0,0-.85.2,4.23,4.23,0,0,0-.72.5,6,6,0,0,1-1.52.9,6.55,6.55,0,0,0,1.48-.95,3.5,3.5,0,0,1,.73-.53,3.22,3.22,0,0,1,.86-.23Z"></path>
      <path class="cls-11" d="M51.69,15.25a7,7,0,0,0-.64.8c-.19.3-.2.73-.5.94"></path>
      <path class="cls-10" d="M56.22,23.36a4.65,4.65,0,0,0-.84-1.47,15.48,15.48,0,0,1-1.21-1.22,7.37,7.37,0,0,0-1.09-1.32A1.68,1.68,0,0,0,51.47,19a1.67,1.67,0,0,1,1.62.29,7.75,7.75,0,0,1,1.13,1.3,15.36,15.36,0,0,0,1.22,1.2,4.79,4.79,0,0,1,.89,1.48Z"></path>
      <path class="cls-12" d="M56.29,25.83a14.49,14.49,0,0,0-1.42-2.39,3.29,3.29,0,0,0-3.3-.88"></path>
      <path class="cls-10" d="M57,25.7a4.66,4.66,0,0,1,.73-.6,2.45,2.45,0,0,0,.58-.69c.32-.51.54-1.11.85-1.65a13.51,13.51,0,0,1,1-1.58,4.64,4.64,0,0,1,.63-.7,1,1,0,0,1,.84-.32,1,1,0,0,0-.83.34,5.1,5.1,0,0,0-.61.7,13.48,13.48,0,0,0-1,1.6c-.3.54-.5,1.12-.82,1.67a2.68,2.68,0,0,1-.6.74,5.81,5.81,0,0,0-.7.6Z"></path>
      <path class="cls-10" d="M58.42,24.24A19.82,19.82,0,0,0,61.73,23a19.83,19.83,0,0,1-3.27,1.42Z"></path>
      <path class="cls-10" d="M57.1,23.49a6.27,6.27,0,0,1,.75-2.42,17.61,17.61,0,0,0,1.23-2.2,1.71,1.71,0,0,1,2-1.24,9.78,9.78,0,0,0,2.49.43,8.16,8.16,0,0,1-2.5-.34,1.39,1.39,0,0,0-1.16.23,2.22,2.22,0,0,0-.45.41,2.38,2.38,0,0,0-.25.56,13.77,13.77,0,0,1-1.27,2.21A7.08,7.08,0,0,0,57.1,23.49Z"></path>
      <g class="cls-13">
        <path class="cls-10" d="M64.8,12.57A4.46,4.46,0,0,0,62,14.81a10.09,10.09,0,0,0-.83,1.64,4.14,4.14,0,0,1-.44.83,8,8,0,0,1-.7.61L60,17.8c.23-.21.51-.37.71-.59a4.29,4.29,0,0,0,.43-.79A9.84,9.84,0,0,1,62,14.78,4.5,4.5,0,0,1,64.8,12.57Z"></path>
      </g>
      <path class="cls-10" d="M58.83,19.52a6.46,6.46,0,0,0,.47-1.27,6.81,6.81,0,0,0,.1-1.36c0-.23.05-.45.09-.68a1.52,1.52,0,0,1,.22-.66c.15-.19.35-.31.46-.49s.2-.41.31-.6a2.56,2.56,0,0,1,.39-.58c.18-.17.36-.29.53-.45.36-.27.57-.67.94-1,.78-.52,1.54-1,2.32-1.47v0c-.73.54-1.52,1-2.23,1.57-.33.27-.57.7-.94,1-.17.15-.37.28-.53.43a2.55,2.55,0,0,0-.38.53c-.11.2-.2.41-.32.61a5.63,5.63,0,0,1-.48.49,1.43,1.43,0,0,0-.21.62c0,.22-.08.45-.11.67a6.27,6.27,0,0,1-.13,1.36,5.79,5.79,0,0,1-.5,1.27Z"></path>
      <path class="cls-10" d="M57.2,18.34c.07-.29.11-.59.21-.89a4.31,4.31,0,0,1,.46-.79,4.69,4.69,0,0,0,.36-1.73,4.51,4.51,0,0,1,.5-1.75,8,8,0,0,0,.74-1.63,7.72,7.72,0,0,1,.74-1.66,17,17,0,0,1,1.08-1.45,8.74,8.74,0,0,0,1.83-3.09,8.68,8.68,0,0,1-1.8,3.11c-.36.49-.75.95-1.06,1.46a7.75,7.75,0,0,0-.71,1.65,7.68,7.68,0,0,1-.73,1.66,4.23,4.23,0,0,0-.46,1.71A5.06,5.06,0,0,1,58,16.73a3.78,3.78,0,0,0-.44.77,8.06,8.06,0,0,0-.19.88Z"></path>
      <path class="cls-12" d="M61.18,13.16c0,.21-.09.43-.13.65"></path>
      <path class="cls-12" d="M62.22,11.13c-.2.28-.29.37-.53.66a3.58,3.58,0,0,0-.5,1.36"></path>
      <path class="cls-12" d="M62.83,10.12a3.58,3.58,0,0,1-.61,1"></path>
      <path class="cls-10" d="M64.12,8.25a3.37,3.37,0,0,0-1.23,1.89l-.11,0A3.39,3.39,0,0,1,64.12,8.25Z"></path>
      <path class="cls-10" d="M61.64,11.78A5.64,5.64,0,0,1,61.51,10a3.55,3.55,0,0,0-.14-1.71,3.71,3.71,0,0,1,.2,1.72,5.83,5.83,0,0,0,.18,1.71Z"></path>
      <path class="cls-10" d="M59.6,15.89a1.51,1.51,0,0,0,0-.94,6.84,6.84,0,0,1-.28-.94c0-.34.05-.65,0-1a3.22,3.22,0,0,1,0-1,6.24,6.24,0,0,0,.08,1c.07.32,0,.66.05,1a6.7,6.7,0,0,0,.24.93A1.38,1.38,0,0,1,59.6,15.89Z"></path>
      <path class="cls-10" d="M55.53,6.27c-.2-.31-.39-.61-.6-.9a5.89,5.89,0,0,0-.73-.77,7.79,7.79,0,0,1-.69-.83c-.21-.3-.6-.38-.88-.59.29.21.68.27.89.58a7.77,7.77,0,0,0,.71.81,6.07,6.07,0,0,1,.75.77c.22.28.41.59.61.88Z"></path>
      <path class="cls-12" d="M57.73,8.78a14.23,14.23,0,0,0-.56-2.49,3.8,3.8,0,0,1,.37-2.69c.34-.55.53-.34.58-.85a2.5,2.5,0,0,1,.74-1.39"></path>
      <path class="cls-10" d="M57.32,3.94a3.35,3.35,0,0,0-.2-1c-.12-.31-.38-.56-.54-.87a4.41,4.41,0,0,1-.51-2,4.61,4.61,0,0,0,.55,2,8.62,8.62,0,0,1,.58.86,3.29,3.29,0,0,1,.23,1Z"></path>
      <path class="cls-10" d="M57,5.84a3.55,3.55,0,0,0-.25-1c-.1-.33-.48-.47-.58-.83a2.88,2.88,0,0,0-.39-.94,3.28,3.28,0,0,1-.39-1,2.9,2.9,0,0,0,.42.93,3.16,3.16,0,0,1,.41.94c.09.32.48.46.61.81a3.87,3.87,0,0,1,.29,1Z"></path>
      <path class="cls-10" d="M58.84,7.44a2.22,2.22,0,0,0,.84-.93,5.73,5.73,0,0,1,.69-1.11,2.08,2.08,0,0,0,.45-1.19,5.65,5.65,0,0,0-.13-1.29,5.13,5.13,0,0,1,.17,1.29,2.17,2.17,0,0,1-.42,1.23,5.73,5.73,0,0,0-.65,1.12,2.34,2.34,0,0,1-.86,1Z"></path>
      <path class="cls-10" d="M62.29,4.86c-.46.43-.88.91-1.33,1.36a4.39,4.39,0,0,1-.72.63,6,6,0,0,1-.89.34l0-.07a3,3,0,0,1,.11.84,2.21,2.21,0,0,0,.12.81A3,3,0,0,1,60,10.38a3.39,3.39,0,0,0-.43-1.59A2.31,2.31,0,0,1,59.39,8a2.78,2.78,0,0,0-.11-.81l0,0,.05,0a7,7,0,0,0,.88-.32,4.5,4.5,0,0,0,.72-.6C61.36,5.72,61.8,5.26,62.29,4.86Z"></path>
      <path class="cls-12" d="M58.54,13.69a2.8,2.8,0,0,1-.34-1.3A1.87,1.87,0,0,0,57.79,11"></path>
      <path class="cls-10" d="M60.34,17.62a4.84,4.84,0,0,1,.79-.45,1.73,1.73,0,0,0,.62-.61A3,3,0,0,1,63,15.3a3,3,0,0,0-1.19,1.29,1.71,1.71,0,0,1-.63.65,5.6,5.6,0,0,0-.75.47Z"></path>
      <path class="cls-8" d="M56.64,47.61c.33-1.61.24-2.45.7-4.28s.84-4.48,3.55-6.67a11.07,11.07,0,0,1,4.42-2.41c1.67-.56,2.18,2.56,4.58,5.23,3.09,3.43,10.16,5.84,13.37,2.59a3.83,3.83,0,0,0,.64-4.46c-1-2.31-.26-1.39.94-3.11,0,0,1.82-2.35.48-4.48-2-3.15-7.64-4.26-10.67-3.63A15.77,15.77,0,0,0,66.1,32c-.92,1.37-3.83,1.85-6.09,4-1.73,1.66-4.25,4.31-4.09,6-1-4.09-3-6.75-6.15-9.74-.17-3.38-3-6.31-3.47-6.89a12.31,12.31,0,0,0-8.11-3.22c-3.21.2-6.84,1.64-8.13,4.43-.94,2,1.73,3.22,1.17,4-.95,1.3-2.05,1.66-2.11,3.41-.1,3,2,4.54,4.8,5.24s9.08-1.4,10.6-2.13c2.8-1.34,3.26-1.33,4.62-3.13,4,3,5.58,9.37,6.08,13.53S56.31,49.22,56.64,47.61Z"></path>
      <path class="cls-9" d="M65.94,35a13,13,0,0,0,4.11,4.67,31.27,31.27,0,0,0,2.6,1.77,11.68,11.68,0,0,0,2.79,1.32,10,10,0,0,0,6,.25,4.31,4.31,0,0,0,2.26-1.8A3.41,3.41,0,0,0,84,39.74c0-.53,0-1.06.1-1.59h.06c0,1.05.38,2.1,0,3.23a3.59,3.59,0,0,1-1,1.33,4.92,4.92,0,0,1-1.41.9,9.52,9.52,0,0,1-6.41-.37,12.37,12.37,0,0,1-2.85-1.46,29.68,29.68,0,0,1-2.57-1.88,13.16,13.16,0,0,1-4-4.89Z"></path>
      <path class="cls-9" d="M85.3,30a8.18,8.18,0,0,0-3.43-2.6,12.46,12.46,0,0,0-4.2-1,12.21,12.21,0,0,0-8.14,2.46,16.37,16.37,0,0,0-3.09,3,3.88,3.88,0,0,1-.68.9,4.58,4.58,0,0,1-1,.53,14.65,14.65,0,0,0-2,.87,20.2,20.2,0,0,0-3.58,2.44,8,8,0,0,0-2.52,3.46h0A7.39,7.39,0,0,1,59,36.43a16.24,16.24,0,0,1,3.59-2.55,13.82,13.82,0,0,1,2-.87,3.86,3.86,0,0,0,.93-.47,3.26,3.26,0,0,0,.64-.83,17,17,0,0,1,3.18-3,12.37,12.37,0,0,1,8.28-2.42,12.66,12.66,0,0,1,4.23,1.1A8.29,8.29,0,0,1,85.33,30Z"></path>
      <path class="cls-9" d="M56,42a24.61,24.61,0,0,0-2.47-5.27,17.79,17.79,0,0,0-3.88-4.28l0,0,0-.07a14,14,0,0,0-3.45-6.58,10.93,10.93,0,0,0-6.57-3.2,11.57,11.57,0,0,0-3.71.18,10.8,10.8,0,0,0-3.41,1.49A5.55,5.55,0,0,0,30.06,27a2.17,2.17,0,0,0,.25,1.77,9.58,9.58,0,0,1,1,1.62h0a10.16,10.16,0,0,0-1.05-1.59,2.26,2.26,0,0,1-.3-1.84,5.45,5.45,0,0,1,2.4-2.89,10.79,10.79,0,0,1,3.47-1.57,11.89,11.89,0,0,1,3.81-.23,10.83,10.83,0,0,1,6.73,3.32,14.14,14.14,0,0,1,3.45,6.73v0a17.35,17.35,0,0,1,3.87,4.37A24.8,24.8,0,0,1,56,42Z"></path>
      <path class="cls-9" d="M30.53,31.26a19.11,19.11,0,0,0-1.12,2.28,3.72,3.72,0,0,0,.4,2.32,5.56,5.56,0,0,0,3.67,2.88,8.17,8.17,0,0,0,2.44.15c.85,0,1.69-.16,2.53-.26s1.69-.28,2.52-.47,1.68-.38,2.51-.62l0,0a28.63,28.63,0,0,1-5,1.43,24.73,24.73,0,0,1-2.57.33,8.05,8.05,0,0,1-2.59-.13,5.84,5.84,0,0,1-3.9-3.2,4,4,0,0,1-.29-2.54,20.67,20.67,0,0,1,1.31-2.23Z"></path>
    </g>
  </g>
</svg>
