<?xml version="1.0" encoding="UTF-8"?>
<svg xmlns="http://www.w3.org/2000/svg" xmlns:xlink="http://www.w3.org/1999/xlink" viewBox="0 0 153.02 213.88">
  <defs>
    <style>.cls-1{fill:#a0cae7;}.cls-2{fill:#d0e6f5;}.cls-3{fill:#b8d8ee;}.cls-4{fill:#8e6848;}.cls-5{fill:url(#Безымянный_градиент_7);}.cls-6{fill:#713e21;}.cls-7{fill:#3d271f;}.cls-8{fill:#69391e;}.cls-9{fill:#6b482f;}.cls-10{fill:#5c3624;}.cls-11{fill:#795135;}.cls-12{fill:#9a734f;}.cls-13{fill:#fff;}.cls-14{fill:#85563a;}.cls-15{fill:#9fbee2;stroke:#334253;stroke-width:1.21px;}.cls-15,.cls-18,.cls-19,.cls-20{stroke-miterlimit:10;}.cls-16{fill:#334253;}.cls-17{fill:#b3ceea;}.cls-18,.cls-19,.cls-20{fill:none;stroke:#191919;stroke-linecap:round;stroke-width:1.69px;}.cls-19{stroke-dasharray:7.82 7.82;}.cls-20{stroke-dasharray:8.86 8.86;}.cls-21{font-size:36px;fill:#191919;font-family:MyriadPro-Regular, Myriad Pro;}.cls-22{font-size:26px;}.cls-23{fill:#91b33d;}.cls-24{fill:#81a135;}.cls-25{fill:#2c6d3b;opacity:0.3;}</style>
    <linearGradient id="Безымянный_градиент_7" x1="44.66" y1="246.44" x2="49.05" y2="164.73" gradientUnits="userSpaceOnUse">
      <stop offset="0.38" stop-color="#9b714f"></stop>
      <stop offset="0.91" stop-color="#754427"></stop>
      <stop offset="1" stop-color="#6e3c20"></stop>
    </linearGradient>
  </defs>
  <g id="Слой_2" data-name="Слой 2">
    <g id="Слой_1-2" data-name="Слой 1">
      <path class="cls-1" d="M27.07,41.32s-9.85,10-5,15.32,12.14.47,9.43-6.65C29.05,43.61,27.07,41.32,27.07,41.32Z"></path>
      <path class="cls-2" d="M23.82,50.66c.34-1,1.11-3.37,1.41-4.22a22.39,22.39,0,0,1,1.33-2.75s1-1.81-1.45.78S21.23,51.84,22,52.11,23.48,51.66,23.82,50.66Z"></path>
      <path class="cls-3" d="M29.32,54.1c-.29,1-.15,1.87.31,2a1.77,1.77,0,0,0,1.79-1.33,1.82,1.82,0,0,0-.75-2.19C30.21,52.48,29.61,53.12,29.32,54.1Z"></path>
      <path class="cls-1" d="M43.5,41.32s-9.85,10-5,15.32S50.6,57.11,47.9,50C45.47,43.61,43.5,41.32,43.5,41.32Z"></path>
      <path class="cls-2" d="M40.24,50.66c.34-1,1.11-3.37,1.41-4.22A23.46,23.46,0,0,1,43,43.69s.94-1.81-1.45.78-3.89,7.37-3.16,7.64C39,52.34,39.91,51.66,40.24,50.66Z"></path>
      <path class="cls-3" d="M45.75,54.1c-.29,1-.15,1.87.3,2a1.77,1.77,0,0,0,1.79-1.33c.29-1.15-.28-2.09-.74-2.19S46,53.12,45.75,54.1Z"></path>
      <path class="cls-1" d="M59.92,41.32s-9.85,10-5,15.32S67,57.11,64.32,50C61.9,43.61,59.92,41.32,59.92,41.32Z"></path>
      <path class="cls-2" d="M56.67,50.66c.34-1,1.11-3.37,1.41-4.22a22.39,22.39,0,0,1,1.33-2.75s1-1.81-1.45.78-3.88,7.37-3.16,7.64S56.33,51.66,56.67,50.66Z"></path>
      <path class="cls-3" d="M62.17,54.1c-.29,1-.15,1.87.31,2a1.77,1.77,0,0,0,1.79-1.33,1.82,1.82,0,0,0-.75-2.19C63.06,52.48,62.46,53.12,62.17,54.1Z"></path>
      <path class="cls-1" d="M37.15,19.48s-9.85,10-5,15.33,12.13.46,9.43-6.65C39.12,21.78,37.15,19.48,37.15,19.48Z"></path>
      <path class="cls-2" d="M33.89,28.82c.34-1,1.11-3.37,1.41-4.22a23.46,23.46,0,0,1,1.34-2.75s.94-1.8-1.45.79S31.3,30,32,30.28C32.61,30.5,33.56,29.83,33.89,28.82Z"></path>
      <path class="cls-3" d="M39.4,32.26c-.29,1-.16,1.87.3,2a1.77,1.77,0,0,0,1.79-1.33,1.83,1.83,0,0,0-.74-2.19C40.28,30.65,39.68,31.29,39.4,32.26Z"></path>
      <path class="cls-1" d="M53.57,19.48s-9.85,10-5,15.33,12.13.46,9.43-6.65C55.55,21.78,53.57,19.48,53.57,19.48Z"></path>
      <path class="cls-2" d="M50.32,28.82c.34-1,1.1-3.37,1.41-4.22a22.39,22.39,0,0,1,1.33-2.75s.95-1.8-1.45.79S47.73,30,48.45,30.28,50,29.83,50.32,28.82Z"></path>
      <path class="cls-3" d="M55.82,32.26c-.29,1-.15,1.87.31,2a1.78,1.78,0,0,0,1.79-1.33,1.82,1.82,0,0,0-.75-2.19C56.7,30.65,56.11,31.29,55.82,32.26Z"></path>
      <path class="cls-1" d="M46.22,0s-9.85,10-5,15.32,12.13.47,9.42-6.64C48.2,2.3,46.22,0,46.22,0Z"></path>
      <path class="cls-2" d="M43,9.34c.34-1,1.11-3.37,1.41-4.22a22.39,22.39,0,0,1,1.33-2.75s.95-1.81-1.45.79-3.88,7.36-3.16,7.64S42.64,10.35,43,9.34Z"></path>
      <path class="cls-3" d="M48.47,12.78c-.29,1-.15,1.87.31,2a1.79,1.79,0,0,0,1.79-1.33,1.83,1.83,0,0,0-.75-2.2C49.36,11.16,48.76,11.81,48.47,12.78Z"></path>
      <path class="cls-4" d="M49.08,157.6s8.18,9.61,14.5,10,27.92-6.44,27.92-6.44l2.17-22.48L49.08,123Z"></path>
      <path class="cls-4" d="M0,137.1l4.45,29.32S20.25,168.79,23,168s15.41-5.53,19-5.53,7.1-4.87,7.1-4.87V123Z"></path>
      <polygon class="cls-5" points="6.57 193.87 49.08 213.88 88.39 193.97 47.52 176.65 6.57 193.87"></polygon>
      <path class="cls-6" d="M6.57,193.87,4.45,166.42s20.15-.39,25.68-3.16,19-5.66,19-5.66l-1.56,19.05Z"></path>
      <path class="cls-7" d="M35.29,168.13a7.09,7.09,0,0,0-2.41-1.42v0s-3.22-1-5,1.2-1.45,4.5-.66,4.88a10.3,10.3,0,0,0,1.39.29s.05,0,.08,0a24.59,24.59,0,0,0,3-.67,1.49,1.49,0,0,0,.52-.14c.14,0,.3-.08.55-.16,1.26-.39,1.41-.11,2.29-.86A3.39,3.39,0,0,0,36,169a2,2,0,0,0-.18-.43h0l0,0A.84.84,0,0,0,35.29,168.13Z"></path>
      <path class="cls-7" d="M18,171a9.49,9.49,0,0,0-3.42,1.12v0s-3.66,2.29-3.06,5.82,3.11,5.22,4.15,4.77a14.67,14.67,0,0,0,1.46-1.09s0-.08,0-.11c.78-.9,1.35-2.69,1.88-3.45a1.9,1.9,0,0,0,.3-.62c.09-.17.18-.35.32-.67.68-1.54,1.09-1.45,1.1-2.94A4.35,4.35,0,0,0,19.49,171a4,4,0,0,0-.56-.19h-.06A1.07,1.07,0,0,0,18,171Z"></path>
      <path class="cls-8" d="M49.08,157.6l-1.56,19.05L88.4,194l3.1-32.8s-12.75-1.47-18.28-.68-15.17,3.17-18.07,1.58A38.49,38.49,0,0,1,49.08,157.6Z"></path>
      <path class="cls-7" d="M33.5,177.17a2.86,2.86,0,0,0-1.06-.27h0a2,2,0,0,0-1.73,1c-.42,1,0,1.86.3,1.91a4.61,4.61,0,0,0,.55-.05s0,0,0,0a9.89,9.89,0,0,0,1-.59.72.72,0,0,0,.18-.1l.19-.13c.43-.28.52-.2.76-.58a1.31,1.31,0,0,0,.1-.91.6.6,0,0,0-.11-.14h0A.33.33,0,0,0,33.5,177.17Z"></path>
      <path class="cls-7" d="M73.56,169a2,2,0,0,0-.1-.76h0s-.33-.86-1.08-.88-1.22.43-1.17.67a3.52,3.52,0,0,0,.17.35h0a5.78,5.78,0,0,0,.64.53.39.39,0,0,0,.11.09l.13.09c.29.21.26.29.56.36a1,1,0,0,0,.63-.16l.06-.11h0A.23.23,0,0,0,73.56,169Z"></path>
      <path class="cls-7" d="M85,182.73a9.31,9.31,0,0,0-1.62-3.24h0s-2.82-3.32-6.26-2.21-4.75,3.86-4.16,4.84a13.46,13.46,0,0,0,1.31,1.29s.08,0,.11,0c1,.65,2.88,1,3.72,1.37a1.9,1.9,0,0,0,.65.22l.72.22c1.64.46,1.61.88,3.09.67a4.39,4.39,0,0,0,2.54-1.7,3.29,3.29,0,0,0,.11-.59h0l0-.06A1.05,1.05,0,0,0,85,182.73Z"></path>
      <path class="cls-7" d="M62.76,171.44a7,7,0,0,0-1.59,2.28h0s-1.2,3.11.82,5,4.34,1.77,4.78,1a8.85,8.85,0,0,0,.39-1.35s0,0,0-.08a25.49,25.49,0,0,0-.45-3,1.29,1.29,0,0,0-.1-.52,5.33,5.33,0,0,0-.11-.56c-.3-1.28,0-1.41-.69-2.33a3.36,3.36,0,0,0-2.08-1.08,1.71,1.71,0,0,0-.43.15v0l0,0A.77.77,0,0,0,62.76,171.44Z"></path>
      <path class="cls-9" d="M62.91,194.72a1.34,1.34,0,0,0,1.34-.35c.46-.59.36-1.22.14-1.32L64,193c-.25,0-.27.59-.28.6Z"></path>
      <path class="cls-10" d="M62.11,194.23s.75.67,1.06.47.67-.39.67-.39v-.21a2.91,2.91,0,0,0-.82-.27c-.15,0-.42.15-.48.16A3,3,0,0,0,62.11,194.23Z"></path>
      <path class="cls-11" d="M62.07,194.12c0,.08.1.3.33.22a2.76,2.76,0,0,0,.45-.19s.22-.7.28-.82.12-.16-.22-.05-.38,0-.61.25A.89.89,0,0,0,62.07,194.12Z"></path>
      <path class="cls-12" d="M62.85,194.15a5.91,5.91,0,0,0,.11-.59c0-.26,0-.33.24-.37s.71-.28.94-.19.22.08.22.38a1.08,1.08,0,0,1-.33.74.61.61,0,0,1-.64.27A1.44,1.44,0,0,1,62.85,194.15Z"></path>
      <path class="cls-9" d="M53.83,189.51a3,3,0,0,0,2.76-1.42c.72-1.52.21-2.86-.31-3a6.59,6.59,0,0,0-.86,0c-.56,0-.31,1.42-.33,1.45S53.83,189.51,53.83,189.51Z"></path>
      <path class="cls-10" d="M51.83,188.81s2,1.12,2.54.53,1.3-1.19,1.3-1.19l-.13-.45a6.48,6.48,0,0,0-1.93-.21c-.31.17-.85.53-1,.59A8.76,8.76,0,0,0,51.83,188.81Z"></path>
      <path class="cls-11" d="M51.67,188.58a.58.58,0,0,0,.84.34,7.34,7.34,0,0,0,.89-.64s.16-1.64.22-1.94.19-.41-.49,0-.82.27-1.23.84A2.07,2.07,0,0,0,51.67,188.58Z"></path>
      <path class="cls-12" d="M53.4,188.28a8.69,8.69,0,0,0,0-1.35c-.08-.59-.13-.74.36-.92s1.43-1,2-.87.51.05.66.71a2.44,2.44,0,0,1-.36,1.79,1.36,1.36,0,0,1-1.28.91A3.59,3.59,0,0,1,53.4,188.28Z"></path>
      <path class="cls-9" d="M45.35,196.12a3,3,0,0,0,3,.37c1.43-.84,1.74-2.2,1.38-2.57a5.26,5.26,0,0,0-.71-.45c-.47-.28-1,1-1.06,1S45.35,196.12,45.35,196.12Z"></path>
      <path class="cls-10" d="M44.12,194.46s1,2,1.77,1.82A16.6,16.6,0,0,1,47.6,196l.13-.43s-1.1-1.19-1.45-1.23-1,0-1.12-.06A7.35,7.35,0,0,0,44.12,194.46Z"></path>
      <path class="cls-11" d="M44.12,194.19c0,.19,0,.7.49.73a8.37,8.37,0,0,0,1.08,0s1-1.25,1.24-1.46.38-.23-.4-.27-.81-.23-1.45,0A2,2,0,0,0,44.12,194.19Z"></path>
      <path class="cls-12" d="M45.69,194.9a9.42,9.42,0,0,0,.7-1.12c.26-.52.3-.67.79-.55s1.69,0,2.08.38.38.32.14.93a2.4,2.4,0,0,1-1.26,1.25,1.35,1.35,0,0,1-1.55,0A3.42,3.42,0,0,1,45.69,194.9Z"></path>
      <path class="cls-9" d="M41.7,190.65a2.25,2.25,0,0,0,.08-2.32c-.73-1-1.79-1.19-2.05-.89a3.88,3.88,0,0,0-.29.58c-.19.37.81.72.82.74Z"></path>
      <path class="cls-10" d="M40.52,191.7s1.44-.87,1.27-1.47-.31-1.29-.31-1.29l-.34-.07s-.83.92-.83,1.18,0,.75,0,.86A5.77,5.77,0,0,0,40.52,191.7Z"></path>
      <path class="cls-11" d="M40.31,191.72c.15,0,.54,0,.53-.43a7.87,7.87,0,0,0-.09-.82s-1-.7-1.19-.85-.21-.27-.19.32-.12.64.1,1.11A1.58,1.58,0,0,0,40.31,191.72Z"></path>
      <path class="cls-12" d="M40.75,190.47a6.91,6.91,0,0,0-.9-.46c-.42-.17-.54-.18-.48-.57s-.1-1.28.15-1.61.23-.31.71-.17a1.82,1.82,0,0,1,1,.89,1,1,0,0,1,.12,1.17A2.53,2.53,0,0,1,40.75,190.47Z"></path>
      <path class="cls-9" d="M34.5,192.36a1,1,0,0,0,.33-1c-.17-.52-.59-.72-.74-.63a1.92,1.92,0,0,0-.19.2c-.13.13.24.4.24.41S34.5,192.36,34.5,192.36Z"></path>
      <path class="cls-10" d="M33.87,192.64s.71-.17.72-.44,0-.58,0-.58l-.13-.07s-.46.27-.49.38-.09.32-.1.36A2.6,2.6,0,0,0,33.87,192.64Z"></path>
      <path class="cls-11" d="M33.78,192.62c.07,0,.23.07.28-.11a3.4,3.4,0,0,0,.06-.35s-.33-.42-.38-.5-.05-.14-.12.11-.13.24-.1.47A.71.71,0,0,0,33.78,192.62Z"></path>
      <path class="cls-12" d="M34.12,192.16a3.06,3.06,0,0,0-.31-.3c-.15-.12-.2-.15-.12-.3s.12-.54.27-.65.13-.1.31,0a.84.84,0,0,1,.32.5.43.43,0,0,1-.1.5A1,1,0,0,1,34.12,192.16Z"></path>
      <path class="cls-9" d="M32.29,196.33s1.39-2.24.11-4-3.11-2-3.56-1.5a8.7,8.7,0,0,0-.51,1c-.31.65,1.42,1.24,1.44,1.28S32.29,196.33,32.29,196.33Z"></path>
      <path class="cls-10" d="M30.25,198.16s2.49-1.52,2.18-2.55-.54-2.23-.54-2.23l-.59-.12s-1.43,1.6-1.44,2.06.07,1.28.05,1.48A11.15,11.15,0,0,0,30.25,198.16Z"></path>
      <path class="cls-11" d="M29.88,198.2c.27,0,.94,0,.92-.74a10.5,10.5,0,0,0-.17-1.42s-1.77-1.2-2.07-1.46-.35-.48-.31.56-.21,1.09.18,1.91A2.67,2.67,0,0,0,29.88,198.2Z"></path>
      <path class="cls-12" d="M30.63,196a12.05,12.05,0,0,0-1.56-.79c-.72-.28-.93-.31-.83-1s-.19-2.22.25-2.79.38-.55,1.22-.3a3.13,3.13,0,0,1,1.8,1.52,1.76,1.76,0,0,1,.24,2A4.52,4.52,0,0,1,30.63,196Z"></path>
      <path class="cls-13" d="M47.46,151.94l1.82,0c.79,1.33,1.57,2.66,2.37,4a6.72,6.72,0,0,0,3.51,2.92c.38.14.77.26,1.14.4a.25.25,0,0,1,.1.21c-.08.1-.21.26-.3.25a7,7,0,0,1-5.16-3.33c-.43-.66-.6-1.5-1.35-2a9.93,9.93,0,0,0,.27,5.55q1.55,4.78,3.07,9.56a5.26,5.26,0,0,1,.2.94c0,.09-.16.21-.27.29s-.17-.05-.2-.11c-.14-.29-.26-.58-.38-.88A25.79,25.79,0,0,0,50,164.88c-.22.64-.39,1-.5,1.46-.59,2.21-1.14,4.42-1.75,6.62a5.1,5.1,0,0,1-.65,1.07,3,3,0,0,1,.13-2.52,28.37,28.37,0,0,0,1.25-6.72,12.84,12.84,0,0,0-.34-4.14,16.29,16.29,0,0,1-.34-2.37c-.82.06-1.15.7-1.61,1.11s-.86,1-1.33,1.44c-.11.11-.38.1-.58.09a.65.65,0,0,1-.06-.44,10.75,10.75,0,0,1,1-1.61c.6-.67,1.3-1.24,1.92-1.89.13-.13.08-.42.12-.64a2,2,0,0,0-.62.12c-1.37.73-2.71,1.51-4.09,2.22a9,9,0,0,0-3.91,3,2.56,2.56,0,0,1,.12-.89,5.78,5.78,0,0,1,2.5-2.27c1.3-.7,2.57-1.44,3.87-2.12a3.61,3.61,0,0,0,2.24-4A1.65,1.65,0,0,1,47.46,151.94Z"></path>
      <polygon class="cls-14" points="0 137.09 49.08 157.6 93.67 138.69 49.08 122.96 0 137.09"></polygon>
      <path class="cls-15" d="M63.14,181.26v5c0,3.26-6.4,5.89-14.29,5.89s-14.28-2.63-14.28-5.89v-5"></path>
      <ellipse class="cls-15" cx="48.85" cy="181.26" rx="14.29" ry="5.89"></ellipse>
      <path class="cls-16" d="M51.91,175.87a57.77,57.77,0,0,0-6.63,10.91s-.47-.85-1.21-.78a31.86,31.86,0,0,1,7.06-10.34Z"></path>
      <path class="cls-17" d="M45.28,186.78a56.38,56.38,0,0,1,6.63-10.91,4.78,4.78,0,0,1,1.1-.21,69.66,69.66,0,0,0-6.3,10.77A3.36,3.36,0,0,0,45.28,186.78Z"></path>
      <path class="cls-17" d="M40,184.66s-5.92-2.76-2.42-5.28,9.7-2.68,9.7-2.68S36.53,179,40,184.66Z"></path>
      <path class="cls-17" d="M35.92,185.29v1.39s2,2.66,8.35,3.75v-1.94A18.57,18.57,0,0,1,35.92,185.29Z"></path>
      <line class="cls-18" x1="92.44" y1="136.68" x2="97.52" y2="136.68"></line>
      <line class="cls-19" x1="105.33" y1="136.68" x2="117.06" y2="136.68"></line>
      <line class="cls-18" x1="120.97" y1="136.68" x2="126.05" y2="136.68"></line>
      <line class="cls-18" x1="89.32" y1="186.21" x2="94.4" y2="186.21"></line>
      <line class="cls-20" x1="103.25" y1="186.21" x2="116.54" y2="186.21"></line>
      <line class="cls-18" x1="120.97" y1="186.21" x2="126.05" y2="186.21"></line>
      <text class="cls-21" transform="translate(99.83 172)">1<tspan class="cls-22" x="18.47" y="0">см</tspan></text>
      <path class="cls-23" d="M48.63,127.05a68.48,68.48,0,0,0,13.73-14.3,11.79,11.79,0,0,0,1.17-2.58c.41-1,.76-2.37,1.11-3.48a1,1,0,0,0-.08-.81,11.61,11.61,0,0,1-1.25-5.49,15.78,15.78,0,0,1,.21-2.07.44.44,0,0,1,.45.32c.62,1.35,1.39,2,1.77,3.86a15.48,15.48,0,0,1,0,3.2,7.39,7.39,0,0,1,1.7-2.49c1-.83,3.29-1.06,4.53-1.1,1.78,0,2.95-1.25,4.12-2.57.13-.15.21-.38.45-.33s.23.3.17.49c-1,3.39-2.12,6.07-5.13,8.13-1.72,1.17-3.56.83-5.34,0-.56-.26-.68-.24-.9.3-.52,1.31-.85,2.63-1.47,3.93s-.95,1.91.6,2.55a4.53,4.53,0,0,1,1,4.09c-.39,1.58-1.5,2.21-3,2.58-1.08.26-2.21.36-3.26.72a.29.29,0,0,1-.38-.11c-.08-.16,0-.31.12-.46a13.16,13.16,0,0,1,1.42-1.57,7.2,7.2,0,0,0,2.22-4.52c0-.15.05-.33-.11-.38s-.21.1-.29.2a124.19,124.19,0,0,1-8.63,9.29s0,0,0,.08-.25.1-.16.24.2,0,.3-.06c2,0,3.63.26,4.62,2.15a1.7,1.7,0,0,0,1.5,1.15c.14,0,.22.12.08.25a.85.85,0,0,1-.54.21,10.07,10.07,0,0,1-3.75-.09,9.65,9.65,0,0,0-4.86-.14,25.49,25.49,0,0,1,2.88,1.52c.31.18.93,0,1.14,0,1.21,0,2.93-.16,3.25,1.19a8.61,8.61,0,0,0,1.6,3.49c.06.09.21.31,0,.46s-.34,0-.48,0a10.39,10.39,0,0,0-4-1,4.55,4.55,0,0,1-3.32-1.45c-.9-1-.09-1.65.72-2.26.14-.1.45-.18.18-.32a12.88,12.88,0,0,0-2.58-1.27.59.59,0,0,0-.63.23c-.71,1.21-.37,2.2-.18,3.52a30.52,30.52,0,0,1,.45,5.66.82.82,0,0,1-1,.16c-.37-.2-.28-.69-.29-.94a5.71,5.71,0,0,0-.05-.58c-.21-1.53-.4-3.13-.53-4.59-.06-.72-.15-1.51-.2-2.08a.86.86,0,0,0-.75-.88c-1.85-.31-3.77-.59-5.18-1.82s-2.3-2.43-3.6-3.77A17.56,17.56,0,0,1,37,121.93a.76.76,0,0,0-.88-.17,5.73,5.73,0,0,1-4.63-.57c-.14-.08-.36-.18-.28-.38s.31-.2.5-.17a4.05,4.05,0,0,0,2.16-.18,4.67,4.67,0,0,1,2-.19c-.14-.36-.24-.46-.64-.48a4.56,4.56,0,0,1-4.21-3,15.42,15.42,0,0,1-1.09-5.84c0-.54,0-1.16,0-1.72a.39.39,0,0,1,.18-.41.31.31,0,0,1,.38.18A11.2,11.2,0,0,0,34,112.42a9.23,9.23,0,0,1,2.28,2.21,5.94,5.94,0,0,1,.61,4.13,2.06,2.06,0,0,0,.34,1.7s.09-.06.1-.09a23.2,23.2,0,0,1,2.28-4.29c.1-.17.18-.33.38-.28s.14.21.11.39A9.5,9.5,0,0,1,38.14,121c-.24.29-.32.36-.2.73a7,7,0,0,0,1,1.34c2.48,2.94,4.42,4.79,8.35,4.93,0-4.48.14-8.93-.62-13.33a2.88,2.88,0,0,0-.56-1.21A14,14,0,0,0,43.84,111c-.51-.45-1.1-.94-1.55-1.39a1,1,0,0,0-1.25-.22c-.49.18-.93.45-1.38.62a6.8,6.8,0,0,1-2.66.41c-.35,0-.31-.23-.12-.41,1.19-1.14,2.18-1.89,3.9-1.62a1.36,1.36,0,0,0-1.37-.74,4.56,4.56,0,0,1-3.27-1.09,7.08,7.08,0,0,1-2.35-5.19A45.38,45.38,0,0,1,34,96.13c0-.16,0-.31.15-.38s.3.11.38.25a7.09,7.09,0,0,0,3.05,2.66,8.19,8.19,0,0,1,4.16,4.16,4.24,4.24,0,0,1-.39,3.49c-.32.7-.23,1,.41,1.4a3.55,3.55,0,0,1,2-2.78c.2-.13.4-.31.61-.17s.09.36,0,.53a21.47,21.47,0,0,1-1.43,3,.63.63,0,0,0,0,.76c1,1,2,1.85,3,2.79.08.08.16.17.28.11s.11-.18.12-.3c.22-2.64.51-5.26.89-7.88a1.3,1.3,0,0,0-.65-1.34C44.85,101,43.47,99.74,43,97.47a19,19,0,0,1,0-4.4.54.54,0,0,1,.48-.52c.28,0,.35.22.44.4a8.79,8.79,0,0,0,2.39,2.74c.37.33.45,0,.5-.22.44-1.75,1.15-3.39,1.56-5.09a35.89,35.89,0,0,0,.83-7.2,17.84,17.84,0,0,0-.15-1.93c0-.53,0-.67.39-.8s.54.13.69.44c1.56,3.43,3.64,6.59,5.06,10.11,1.09,2.7,1.49,5.28.26,8-1.07,2.41-3.37,3.19-5.71,3.95-.59.19-.9.36-1,1-.27,1.67-.62,3.33-.82,5a14,14,0,0,0,0,2.24c0,.17,0,.38.33.24a2,2,0,0,0,.84-1.35,4.71,4.71,0,0,1,.56-3,3.77,3.77,0,0,1,2.4-1.76,14.06,14.06,0,0,0,5.58-2.62,4.1,4.1,0,0,0,.58-.68c.17-.24.24-.48.56-.38s.28.45.2.69a6.64,6.64,0,0,1-1,2.09,36.16,36.16,0,0,1-5.79,5.33c-1,.78-2.15,1.08-3,2a3.85,3.85,0,0,0-1,3.32,60.4,60.4,0,0,1,.44,8.31c0,1.17,0,2.39,0,3.57m4-37.11a16.3,16.3,0,0,0-.87-3.2,12.48,12.48,0,0,0-1.45-2.63c-.08-.14-.25-.29-.41-.16s-.09.24,0,.38a15.8,15.8,0,0,1,1.61,3.34,9.49,9.49,0,0,1,.52,5,17.48,17.48,0,0,1-2.58,5.92,7.44,7.44,0,0,0-1.15,2.79c0,.16,0,.38.19.41s.27-.17.34-.32c.6-1.2,1.27-2.3,2-3.46A12.56,12.56,0,0,0,52.62,89.94Zm13.21,16.42a.48.48,0,0,0,.49-.08,11,11,0,0,1,4.22-1.37,7.09,7.09,0,0,0,4.66-2.59,1.66,1.66,0,0,0,.26-1.54,6.92,6.92,0,0,1-5.24,3.47,11.42,11.42,0,0,0-3,.66A2.59,2.59,0,0,0,65.83,106.36ZM36.07,118.82a2.44,2.44,0,0,0-.88-1.64A12.71,12.71,0,0,1,31,111c-.05-.18,0-.48-.32-.44s-.23.39-.19.58a10.66,10.66,0,0,0,1.87,4.39A19.6,19.6,0,0,0,36.07,118.82ZM34.73,98.24a14.42,14.42,0,0,0,2.41,4.26,15.32,15.32,0,0,1,2.55,3.6c.1.23.22.43.49.32s.15-.44.06-.63a20.81,20.81,0,0,0-2.81-4A8.84,8.84,0,0,1,35.35,98c-.06-.22,0-.55-.37-.49S34.63,98,34.73,98.24Zm18.83,31.93c-.17,0-.16.14-.12.23a5.62,5.62,0,0,0,1.23,1.51,8.24,8.24,0,0,0,3.12,1.81c.09,0,.22.21.37,0s-.07-.22-.16-.26a9.21,9.21,0,0,1-3.07-2,12.57,12.57,0,0,0-1-1.17A.44.44,0,0,0,53.56,130.17Zm-3.26-2.58c1,0,1.28,0,1.25-1A6.28,6.28,0,0,0,50.3,127.59Z"></path>
      <path class="cls-24" d="M52.62,89.94A12.56,12.56,0,0,1,50.77,98c-.68,1.16-1.35,2.26-2,3.46-.07.15-.13.35-.34.32s-.21-.25-.19-.41a7.44,7.44,0,0,1,1.15-2.79A17.48,17.48,0,0,0,52,92.69a9.49,9.49,0,0,0-.52-5,15.8,15.8,0,0,0-1.61-3.34c-.09-.14-.16-.25,0-.38s.33,0,.41.16a12.48,12.48,0,0,1,1.45,2.63A16.3,16.3,0,0,1,52.62,89.94Z"></path>
      <path class="cls-24" d="M65.83,106.36a2.59,2.59,0,0,1,1.42-1.45,11.42,11.42,0,0,1,3-.66,6.92,6.92,0,0,0,5.24-3.47,1.66,1.66,0,0,1-.26,1.54,7.09,7.09,0,0,1-4.66,2.59,11,11,0,0,0-4.22,1.37A.48.48,0,0,1,65.83,106.36Z"></path>
      <path class="cls-24" d="M36.07,118.82a19.6,19.6,0,0,1-3.67-3.31,10.66,10.66,0,0,1-1.87-4.39c0-.19-.09-.53.19-.58s.27.26.32.44a12.71,12.71,0,0,0,4.15,6.2A2.44,2.44,0,0,1,36.07,118.82Z"></path>
      <path class="cls-24" d="M34.73,98.24c-.1-.27-.1-.63.25-.7s.31.27.37.49a8.84,8.84,0,0,0,2.08,3.74,20.81,20.81,0,0,1,2.81,4c.09.19.21.52-.06.63s-.39-.09-.49-.32a15.32,15.32,0,0,0-2.55-3.6A14.42,14.42,0,0,1,34.73,98.24Z"></path>
      <path class="cls-24" d="M53.56,130.17a.44.44,0,0,1,.35.14,12.57,12.57,0,0,1,1,1.17,9.21,9.21,0,0,0,3.07,2c.09,0,.31.06.16.26s-.28,0-.37,0a8.24,8.24,0,0,1-3.12-1.81,5.62,5.62,0,0,1-1.23-1.51C53.4,130.31,53.39,130.19,53.56,130.17Z"></path>
      <path class="cls-25" d="M76.5,99.21c-.24,0-.32.18-.45.33-1.17,1.32-2.34,2.52-4.12,2.57-1.24,0-3.49.27-4.53,1.1a7.39,7.39,0,0,0-1.7,2.49,15.48,15.48,0,0,0,0-3.2c-.38-1.86-1.15-2.51-1.77-3.86a.44.44,0,0,0-.45-.32,15.78,15.78,0,0,0-.21,2.07,11.61,11.61,0,0,0,1.25,5.49,1,1,0,0,1,.08.81c-.35,1.11-.7,2.51-1.11,3.48a11.79,11.79,0,0,1-1.17,2.58,68.48,68.48,0,0,1-13.73,14.3c.07-1.18,0-2.4,0-3.57a60.4,60.4,0,0,0-.44-8.31,3.85,3.85,0,0,1,1-3.32c.86-1,2.05-1.26,3-2A36.16,36.16,0,0,0,58,104.48a6.64,6.64,0,0,0,1-2.09c.08-.24.11-.59-.2-.69s-.39.14-.56.38a4.1,4.1,0,0,1-.58.68,14.06,14.06,0,0,1-5.58,2.62,3.77,3.77,0,0,0-2.4,1.76,4.71,4.71,0,0,0-.56,3,2,2,0,0,1-.84,1.35c-.34.14-.32-.07-.33-.24a14,14,0,0,1,0-2.24c.2-1.68.55-3.34.82-5,.1-.62.41-.79,1-1,2.34-.76,4.64-1.54,5.71-3.95,1.23-2.76.83-5.34-.26-8-1.42-3.52-3.5-6.68-5.06-10.11-.15-.31-.31-.58-.69-.44s-.43.27-.39.8a17.84,17.84,0,0,1,.15,1.93,35.89,35.89,0,0,1-.83,7.2c-.41,1.7-1.12,3.34-1.56,5.09,0,.21-.13.55-.5.22A8.79,8.79,0,0,1,43.94,93c-.09-.18-.16-.43-.44-.4a.54.54,0,0,0-.48.52,19,19,0,0,0,0,4.4c.43,2.27,1.81,3.57,3.56,4.94a1.3,1.3,0,0,1,.65,1.34c-.38,2.62-.67,5.24-.89,7.88,0,.12,0,.24-.12.3s-.2,0-.28-.11c-1-.94-2-1.82-3-2.79a.63.63,0,0,1,0-.76,21.47,21.47,0,0,0,1.43-3c.07-.17.2-.39,0-.53s-.41,0-.61.17a3.55,3.55,0,0,0-2,2.78c-.64-.4-.73-.7-.41-1.4a4.24,4.24,0,0,0,.39-3.49,8.19,8.19,0,0,0-4.16-4.16A7.09,7.09,0,0,1,34.55,96c-.08-.14-.2-.33-.38-.25S34,96,34,96.13a45.38,45.38,0,0,0-.23,5.26,7.08,7.08,0,0,0,2.35,5.19,4.56,4.56,0,0,0,3.27,1.09,1.36,1.36,0,0,1,1.37.74c-1.72-.27-2.71.48-3.9,1.62-.19.18-.23.4.12.41a6.8,6.8,0,0,0,2.66-.41c.45-.17.89-.44,1.38-.62a1,1,0,0,1,1.25.22c.45.45,1,.94,1.55,1.39a14,14,0,0,1,2.25,2.42,2.88,2.88,0,0,1,.56,1.21c.76,4.4.62,8.85.62,13.33-3.93-.14-5.87-2-8.35-4.93a7,7,0,0,1-1-1.34c-.12-.37,0-.44.2-.73a9.5,9.5,0,0,0,1.92-4.79c0-.18.08-.35-.11-.39s-.28.11-.38.28a23.2,23.2,0,0,0-2.28,4.29s-.08.12-.1.09a2.06,2.06,0,0,1-.34-1.7,5.94,5.94,0,0,0-.61-4.13A9.23,9.23,0,0,0,34,112.42,11.2,11.2,0,0,1,30.49,109a.31.31,0,0,0-.38-.18.39.39,0,0,0-.18.41c0,.56,0,1.18,0,1.72A15.42,15.42,0,0,0,31,116.76a4.56,4.56,0,0,0,4.21,3c.4,0,.5.12.64.48a4.67,4.67,0,0,0-2,.19,4.05,4.05,0,0,1-2.16.18c-.19,0-.42,0-.5.17s.14.3.28.38a5.73,5.73,0,0,0,4.63.57.76.76,0,0,1,.88.17,17.56,17.56,0,0,0,1.07,1.68c1.3,1.34,2.18,2.55,3.6,3.77s3.33,1.51,5.18,1.83a.84.84,0,0,1,.75.87c0,.57.14,1.36.2,2.08.13,1.46.32,3.06.53,4.59a5.71,5.71,0,0,1,.05.58c0,.25-.08.74.29.94a.82.82,0,0,0,1-.16,30.52,30.52,0,0,0-.45-5.66c-.19-1.32-.53-2.31.18-3.52a.59.59,0,0,1,.63-.23A12.88,12.88,0,0,1,52.68,130c.27.14,0,.22-.18.32-.81.61-1.62,1.29-.72,2.26A4.55,4.55,0,0,0,55.1,134a10.39,10.39,0,0,1,4,1c.14.07.32.18.48,0s0-.37,0-.46A8.61,8.61,0,0,1,58,131c-.32-1.35-2-1.2-3.25-1.19-.21,0-.83.13-1.14,0a25.49,25.49,0,0,0-2.88-1.52,9.65,9.65,0,0,1,4.86.14,10.07,10.07,0,0,0,3.75.09.85.85,0,0,0,.54-.21c.14-.13.06-.23-.08-.25a1.7,1.7,0,0,1-1.5-1.15c-1-1.89-2.6-2.16-4.62-2.14-.1,0-.21.19-.3,0s.09-.21.16-.24,0-.06,0-.08a124.19,124.19,0,0,0,8.63-9.29c.08-.1.12-.25.29-.2s.13.23.11.38a7.2,7.2,0,0,1-2.22,4.52,13.16,13.16,0,0,0-1.42,1.57c-.12.15-.2.3-.12.46a.29.29,0,0,0,.38.11c1-.36,2.18-.46,3.26-.72,1.5-.37,2.61-1,3-2.58a4.53,4.53,0,0,0-1-4.09c-1.55-.64-1.21-1.26-.6-2.55s1-2.62,1.47-3.93c.22-.54.34-.56.9-.3,1.78.79,3.62,1.13,5.34,0,3-2.06,4.14-4.74,5.13-8.13C76.73,99.51,76.73,99.26,76.5,99.21Zm-28.14,2.55a.22.22,0,0,0,.12,0h0A.22.22,0,0,1,48.36,101.76ZM52,92.69a8.69,8.69,0,0,0-.15-3.77A8.69,8.69,0,0,1,52,92.69Zm.36,1.46a11.29,11.29,0,0,0,.3-2A11.29,11.29,0,0,1,52.38,94.15Zm-.63-7.41a24,24,0,0,1,.73,2.4,24,24,0,0,0-.73-2.4,5.56,5.56,0,0,0-.29-.71A5.56,5.56,0,0,1,51.75,86.74ZM50.3,84.11c-.08-.14-.25-.29-.41-.16C50.05,83.82,50.22,84,50.3,84.11Zm-.41.22a.36.36,0,0,1-.09-.2A.36.36,0,0,0,49.89,84.33Zm-1.6,17.07a.76.76,0,0,0,0,.26A.76.76,0,0,1,48.29,101.4Zm-13-3.72a.23.23,0,0,0-.29-.14A.23.23,0,0,1,35.27,97.68Zm-.49,0a.48.48,0,0,0-.1.39A.48.48,0,0,1,34.78,97.64Zm4,7a8.8,8.8,0,0,1,.88,1.51A8.8,8.8,0,0,0,38.81,104.59ZM40,106.45a.42.42,0,0,0,.18,0A.42.42,0,0,1,40,106.45Zm-5.53,10.06a14.31,14.31,0,0,1-1.82-2.12A14.31,14.31,0,0,0,34.47,116.51Zm-.34.77c.63.52,1.3,1,1.94,1.54C35.43,118.29,34.76,117.8,34.13,117.28Zm22,15.7a10.28,10.28,0,0,0,1.68.74A10.28,10.28,0,0,1,56.11,133Zm2,.76h0c.07-.1.05-.15,0-.19S58.23,133.64,58.16,133.74Zm-3.23-2.26a2.78,2.78,0,0,1-.39-.47A2.78,2.78,0,0,0,54.93,131.48Zm-1-1.17a2.23,2.23,0,0,1,.43.44,2.23,2.23,0,0,0-.43-.44.44.44,0,0,0-.35-.14A.44.44,0,0,1,53.91,130.31Zm-3.61-2.72a6.28,6.28,0,0,1,1.25-1C51.58,127.59,51.3,127.62,50.3,127.59Zm19.92-23.34a9.7,9.7,0,0,0,1.65-.42,9.7,9.7,0,0,1-1.65.42c-.5.09-1,.15-1.55.24C69.18,104.4,69.72,104.34,70.22,104.25Zm-4.13,2.14a.82.82,0,0,0,.23-.11A.82.82,0,0,1,66.09,106.39Zm2.28-1c.7-.2,1.43-.33,2.17-.47C69.8,105.05,69.07,105.18,68.37,105.38Z"></path>
      <path class="cls-9" d="M46.09,145.5a1.36,1.36,0,0,0-1.3-.48c-.72.22-1,.8-.88,1a2.23,2.23,0,0,0,.27.28c.18.17.56-.33.57-.33Z"></path>
      <path class="cls-10" d="M46.47,146.37s-.22-1-.6-1-.78-.07-.78-.07l-.11.18s.37.64.52.69l.49.15A3.08,3.08,0,0,0,46.47,146.37Z"></path>
      <path class="cls-11" d="M46.44,146.49c0-.08.09-.31-.14-.38a3.5,3.5,0,0,0-.48-.1s-.59.45-.71.52-.19.06.15.16.34.19.65.15A.9.9,0,0,0,46.44,146.49Z"></path>
      <path class="cls-12" d="M45.82,146a3.89,3.89,0,0,0-.43.43c-.18.2-.21.26-.42.16s-.74-.18-.88-.39-.14-.18,0-.43a1.09,1.09,0,0,1,.69-.43.61.61,0,0,1,.69.15A1.66,1.66,0,0,1,45.82,146Z"></path>
      <path class="cls-9" d="M43.13,128.79a2,2,0,0,0-2-.29c-1,.54-1.2,1.45-1,1.7a5.27,5.27,0,0,0,.47.32c.31.19.71-.64.73-.65Z"></path>
      <path class="cls-10" d="M43.94,129.92s-.63-1.35-1.17-1.25-1.15.15-1.15.15l-.09.29s.72.81.95.84.65,0,.75.06A5.22,5.22,0,0,0,43.94,129.92Z"></path>
      <path class="cls-11" d="M43.93,130.1c0-.13,0-.47-.32-.5a5,5,0,0,0-.72,0s-.71.83-.85,1-.26.15.26.19.54.17,1,0A1.31,1.31,0,0,0,43.93,130.1Z"></path>
      <path class="cls-12" d="M42.89,129.6a5.87,5.87,0,0,0-.49.75c-.18.34-.21.44-.54.35s-1.13,0-1.39-.28-.25-.22-.08-.63a1.56,1.56,0,0,1,.87-.82.88.88,0,0,1,1,0A2.15,2.15,0,0,1,42.89,129.6Z"></path>
      <path class="cls-9" d="M39.14,134.92s-4.17-2.08-7.08.46S29,141.17,30,141.87a12,12,0,0,0,1.82.73c1.2.45,2-2.68,2-2.73S39.14,134.92,39.14,134.92Z"></path>
      <path class="cls-10" d="M42.69,138.2s-3.09-4.13-4.85-3.41A40.11,40.11,0,0,1,34,136.1l-.12,1.05s3,2.26,3.84,2.19S40,139,40.35,139A18.69,18.69,0,0,0,42.69,138.2Z"></path>
      <path class="cls-11" d="M42.81,138.83c0-.46-.21-1.64-1.46-1.48a18.79,18.79,0,0,0-2.45.53s-1.82,3.3-2.22,3.87-.78.69,1,.46,1.95.19,3.32-.64A4.71,4.71,0,0,0,42.81,138.83Z"></path>
      <path class="cls-12" d="M38.9,137.88a21.75,21.75,0,0,0-1.14,2.87c-.37,1.31-.39,1.67-1.58,1.61s-3.87.7-4.93,0-1-.58-.73-2.1,1-2.23,2.37-3.41a3.1,3.1,0,0,1,3.52-.75A8,8,0,0,1,38.9,137.88Z"></path>
      <path class="cls-9" d="M53.53,135.79s-3.49-2-6.17,0-3,4.85-2.18,5.52a12.57,12.57,0,0,0,1.54.74c1,.46,1.85-2.21,1.92-2.25S53.53,135.79,53.53,135.79Z"></path>
      <path class="cls-10" d="M56.41,138.86s-2.43-3.78-4-3.26a34.3,34.3,0,0,1-3.39.91l-.17.91s2.51,2.14,3.21,2.13,2-.15,2.28-.14A15.73,15.73,0,0,0,56.41,138.86Z"></path>
      <path class="cls-11" d="M56.48,139.41c0-.4-.09-1.44-1.18-1.37a16,16,0,0,0-2.16.31s-1.78,2.76-2.16,3.22-.72.56.87.46,1.68.28,2.92-.35A4.07,4.07,0,0,0,56.48,139.41Z"></path>
      <path class="cls-12" d="M53.14,138.35A18.7,18.7,0,0,0,52,140.77c-.4,1.12-.44,1.43-1.47,1.3s-3.4.38-4.28-.27-.85-.57-.5-1.87A4.83,4.83,0,0,1,48,137.11a2.71,2.71,0,0,1,3.11-.43A6.89,6.89,0,0,1,53.14,138.35Z"></path>
      <path class="cls-9" d="M62.77,132.11s-3.44-2.66-6.57-.86-3.84,4.76-3.05,5.58a12.22,12.22,0,0,0,1.54,1c1,.62,2.26-2.11,2.34-2.14S62.77,132.11,62.77,132.11Z"></path>
      <path class="cls-10" d="M65.43,135.76s-2.08-4.35-3.83-4-3.73.52-3.73.52l-.3.94s2.38,2.62,3.13,2.7,2.12.1,2.45.16A17.05,17.05,0,0,0,65.43,135.76Z"></path>
      <path class="cls-11" d="M65.43,136.36c0-.43.1-1.55-1.07-1.62a16.54,16.54,0,0,0-2.34,0s-2.27,2.71-2.74,3.15-.84.5.86.61,1.76.52,3.17,0A4.39,4.39,0,0,0,65.43,136.36Z"></path>
      <path class="cls-12" d="M62,134.77a20.29,20.29,0,0,0-1.56,2.43c-.58,1.14-.66,1.46-1.74,1.19s-3.68,0-4.53-.87-.83-.71-.28-2.05,1.31-1.87,2.78-2.7a2.89,2.89,0,0,1,3.36,0A7.44,7.44,0,0,1,62,134.77Z"></path>
      <path class="cls-9" d="M65.44,143.23a2.08,2.08,0,0,0,1.91-.94c.51-1,.18-2-.18-2a4,4,0,0,0-.59,0c-.39,0-.23,1-.25,1S65.44,143.23,65.44,143.23Z"></path>
      <path class="cls-10" d="M64.07,142.73s1.34.79,1.74.39.91-.8.91-.8l-.09-.31a4.31,4.31,0,0,0-1.32-.16c-.21.11-.58.35-.68.39A5.12,5.12,0,0,0,64.07,142.73Z"></path>
      <path class="cls-11" d="M64,142.57a.39.39,0,0,0,.57.24,4.47,4.47,0,0,0,.62-.42s.12-1.13.17-1.34.14-.28-.34,0-.56.17-.85.56A1.4,1.4,0,0,0,64,142.57Z"></path>
      <path class="cls-12" d="M65.16,142.39a7.24,7.24,0,0,0,0-.93c-.05-.41-.09-.51.25-.63s1-.64,1.37-.58.34,0,.44.5A1.69,1.69,0,0,1,67,142a.94.94,0,0,1-.9.61A2.33,2.33,0,0,1,65.16,142.39Z"></path>
      <path class="cls-9" d="M32.66,144a2.66,2.66,0,0,0,2.52-1c.74-1.28.4-2.48,0-2.61a4.12,4.12,0,0,0-.75,0c-.49,0-.38,1.21-.4,1.24S32.66,144,32.66,144Z"></path>
      <path class="cls-10" d="M31,143.22s1.63,1.12,2.18.64a14.76,14.76,0,0,1,1.23-.94l-.09-.4a5.25,5.25,0,0,0-1.67-.32c-.28.12-.77.39-.9.44A6.2,6.2,0,0,0,31,143.22Z"></path>
      <path class="cls-11" d="M30.85,143c.07.16.28.57.71.36a7.08,7.08,0,0,0,.83-.49s.25-1.42.33-1.68.2-.35-.43,0-.73.17-1.13.64A1.77,1.77,0,0,0,30.85,143Z"></path>
      <path class="cls-12" d="M32.39,142.87a9,9,0,0,0,.06-1.18c0-.52-.06-.66.38-.78s1.31-.73,1.78-.62.45.09.52.68a2.08,2.08,0,0,1-.44,1.53,1.2,1.2,0,0,1-1.19.7A3,3,0,0,1,32.39,142.87Z"></path>
      <path class="cls-9" d="M44.19,137.4a1.55,1.55,0,0,0,1.55.27c.77-.4,1-1.1.79-1.3a2,2,0,0,0-.36-.25c-.24-.16-.56.47-.58.48Z"></path>
      <path class="cls-10" d="M43.59,136.5s.45,1.06.87,1,.9-.08.9-.08l.08-.22s-.54-.65-.72-.68-.5,0-.58-.06A3.71,3.71,0,0,0,43.59,136.5Z"></path>
      <path class="cls-11" d="M43.6,136.36a.29.29,0,0,0,.24.39,4.33,4.33,0,0,0,.55,0s.57-.62.69-.72.2-.11-.2-.16-.41-.14-.75,0A1.06,1.06,0,0,0,43.6,136.36Z"></path>
      <path class="cls-12" d="M44.39,136.77a4.86,4.86,0,0,0,.4-.56c.15-.27.17-.34.43-.27s.87.05,1.07.25.19.18,0,.49a1.19,1.19,0,0,1-.69.62.7.7,0,0,1-.8,0A1.9,1.9,0,0,1,44.39,136.77Z"></path>
      <path class="cls-9" d="M58.2,143.32s3.91,1,5.88-1.75,1.45-5.47.48-5.87a11.78,11.78,0,0,0-1.68-.26c-1.1-.15-1.12,2.63-1.17,2.68S58.2,143.32,58.2,143.32Z"></path>
      <path class="cls-10" d="M54.58,141.23s3.4,2.89,4.74,1.94,3-1.84,3-1.84l-.1-.9s-3-1.32-3.66-1.11-1.83.71-2.13.78A16.51,16.51,0,0,0,54.58,141.23Z"></path>
      <path class="cls-11" d="M54.35,140.72c.13.38.5,1.35,1.51,1a16.32,16.32,0,0,0,2-.91s.9-3.14,1.13-3.69.52-.74-1-.19-1.68.22-2.68,1.17A4.08,4.08,0,0,0,54.35,140.72Z"></path>
      <path class="cls-12" d="M57.83,140.78a19.27,19.27,0,0,0,.41-2.64c.06-1.18,0-1.49,1-1.66s3.13-1.34,4.16-1,1,.29,1,1.62a4.76,4.76,0,0,1-1.34,3.33,2.69,2.69,0,0,1-2.83,1.31A7,7,0,0,1,57.83,140.78Z"></path>
      <path class="cls-9" d="M40.17,141.06s2.35,1.32,4.1-.07,1.93-3.26,1.37-3.69a7.47,7.47,0,0,0-1-.47c-.68-.29-1.2,1.49-1.24,1.52S40.17,141.06,40.17,141.06Z"></path>
      <path class="cls-10" d="M38.21,139.06s1.67,2.47,2.71,2.11a23.29,23.29,0,0,1,2.24-.65l.1-.6s-1.7-1.4-2.16-1.38-1.31.13-1.51.12A10,10,0,0,0,38.21,139.06Z"></path>
      <path class="cls-11" d="M38.16,138.69c0,.27.08.95.8.9a10.08,10.08,0,0,0,1.43-.24s1.15-1.85,1.4-2.17.47-.38-.58-.29-1.13-.17-1.94.27A2.71,2.71,0,0,0,38.16,138.69Z"></path>
      <path class="cls-12" d="M40.39,139.35a11.81,11.81,0,0,0,.74-1.62c.26-.75.28-1,1-.89s2.26-.29,2.85.13.58.36.36,1.23a3.17,3.17,0,0,1-1.46,1.9,1.79,1.79,0,0,1-2.06.33A4.65,4.65,0,0,1,40.39,139.35Z"></path>
    </g>
  </g>
</svg>
