<?xml version="1.0" encoding="UTF-8"?>
<svg xmlns="http://www.w3.org/2000/svg" viewBox="0 0 89.01 121.04">
  <defs>
    <style>.cls-1{fill:#a29274;}.cls-2{fill:#e3e0c9;}.cls-3{fill:#fcedce;}.cls-4{fill:#bda885;}.cls-5{fill:#d0c5a6;}.cls-6{fill:#8f8267;}.cls-7{fill:#ab967a;opacity:0.25;}.cls-8{fill:#9b8d71;}.cls-9{fill:#7c705b;}.cls-10{fill:#deebdd;}.cls-11{fill:#817870;}.cls-12{fill:#93c63e;}.cls-13{fill:#3f6c3e;}.cls-14{fill:#e6f5b2;}.cls-15,.cls-16{fill:none;stroke:#e6f5b2;stroke-miterlimit:10;}.cls-15{stroke-width:0.04px;}.cls-16{stroke-width:0.11px;}.cls-17{opacity:0.99;}</style>
  </defs>
  <g id="Слой_2" data-name="Слой 2">
    <g id="Слой_1-2" data-name="Слой 1">
      <polygon class="cls-1" points="44.57 62.48 89.01 43.56 82.34 94.73 44.57 121.04 44.57 62.48"></polygon>
      <polygon class="cls-2" points="44.57 30.77 89.01 43.56 44.57 62.48 0 43.56 44.57 30.77"></polygon>
      <polygon class="cls-3" points="44.57 30.77 0 43.56 0.78 43.89 88.6 43.44 44.57 30.77"></polygon>
      <polygon class="cls-4" points="6.67 94.73 0 43.56 44.57 62.48 44.57 121.04 6.67 94.73"></polygon>
      <path class="cls-5" d="M28,44.19a24.87,24.87,0,0,1,2.11-2.25,18.79,18.79,0,0,1,2.45-1.89,24.54,24.54,0,0,1,5.57-2.71,28.67,28.67,0,0,1,6.06-1.27c1-.14,2.06-.11,3.08-.16s2,.09,3.07.18c-1,.12-2,.15-3.05.27s-2,.22-3,.41-2,.34-3,.61-1.94.53-2.9.82a31.71,31.71,0,0,0-5.49,2.45A30.26,30.26,0,0,0,28,44.19Z"></path>
      <polygon class="cls-6" points="44.57 62.48 89.01 43.56 82.34 94.73 44.57 121.04 44.57 62.48"></polygon>
      <polygon class="cls-7" points="6.67 94.73 0 43.56 44.57 62.48 44.57 121.04 6.67 94.73"></polygon>
      <polygon class="cls-8" points="44.57 121.04 6.67 94.73 44.74 80.34 82.34 94.73 44.57 121.04"></polygon>
      <path class="cls-9" d="M14.72,72.23a13.68,13.68,0,0,1-1.15-7.41A11.7,11.7,0,0,1,16.86,58a16.28,16.28,0,0,1,6.54-3.9,27.69,27.69,0,0,1,7.41-1.32c-.61.13-1.22.27-1.83.38s-1.21.31-1.81.46-1.2.34-1.79.51-1.17.41-1.74.63a17.71,17.71,0,0,0-6.13,3.87,12,12,0,0,0-3.25,6.34,14,14,0,0,0-.19,3.66A14.21,14.21,0,0,0,14.72,72.23Z"></path>
      <path class="cls-9" d="M56.14,71.53c.11.19.36.25.56.36l.63.26c.43.16.86.31,1.3.45.87.28,1.75.54,2.63.78,1.76.48,3.53.91,5.32,1.26,3.58.74,7.2,1.21,10.87,1.64A41.7,41.7,0,0,1,61,74.06c-.87-.31-1.73-.66-2.57-1-.42-.21-.84-.41-1.24-.64A3,3,0,0,1,56.14,71.53Z"></path>
      <path class="cls-9" d="M32.26,68.86a32.65,32.65,0,0,1-2.94,9.82,28.44,28.44,0,0,1-2.68,4.42,16.74,16.74,0,0,1-3.7,3.58,29.61,29.61,0,0,0,3.12-4,48.3,48.3,0,0,0,2.44-4.4c.73-1.52,1.38-3.07,2-4.64S31.72,70.48,32.26,68.86Z"></path>
      <path class="cls-9" d="M46.05,109.59c1.81-.89,3.69-1.6,5.52-2.39s3.64-1.6,5.4-2.52a35.45,35.45,0,0,0,5-3.13,14.29,14.29,0,0,0,4-4.37,11.43,11.43,0,0,1-3.51,4.91,26,26,0,0,1-5,3.4,43.32,43.32,0,0,1-5.57,2.37C49.93,108.55,48,109,46.05,109.59Z"></path>
      <path class="cls-9" d="M25.21,104a9.39,9.39,0,0,1-5-4.63,4.27,4.27,0,0,1,.29-3.59,8.43,8.43,0,0,1,2.41-2.59,23.08,23.08,0,0,1,6.15-3,47.57,47.57,0,0,1,6.58-1.73c-2.12.79-4.25,1.52-6.33,2.38a28.28,28.28,0,0,0-5.85,3.13,7.73,7.73,0,0,0-2.21,2.28,3.67,3.67,0,0,0-.38,3,6.65,6.65,0,0,0,1.73,2.7A14.51,14.51,0,0,0,25.21,104Z"></path>
      <path class="cls-9" d="M66,70.5c2.23-3,4.46-6,6.48-9.19a47.13,47.13,0,0,0,2.79-4.82A15.7,15.7,0,0,0,77,51.23a12,12,0,0,1-1.1,5.55,31.05,31.05,0,0,1-2.68,5A46.75,46.75,0,0,1,66,70.5Z"></path>
      <path class="cls-10" d="M45,51.26c-.4.69-1-.18-1.38.4s.63,3.47,1.32,5.19c.37.92,1.51,7,1,8.56a21.33,21.33,0,0,0-1.06,4.5c0,.86.1,4,.52,3.44s.25-2.32.4-3.74c.09-.73,1-2.87,1.25-4.28.44-2.59-.16-6.52-.83-9.07C45.71,54.3,45.36,53.17,45,51.26Z"></path>
      <path class="cls-10" d="M43.68,53.6a12.33,12.33,0,0,1-5.18,3c-2,.55-5.71,3.37-6.37,4.74s1-.85,1.77-1.29,3-2.67,4.68-2.89A13,13,0,0,0,44,54.58C45,53.65,43.94,53.78,43.68,53.6Z"></path>
      <path class="cls-10" d="M45.58,54.83a13.64,13.64,0,0,0,4.67,3.28,10.22,10.22,0,0,1,4.61,5.38c.31,1.52-.74-1-1.34-1.61S51.53,59,50,58.61a11.7,11.7,0,0,1-4.77-2.75C44.36,54.84,45.12,55.18,45.58,54.83Z"></path>
      <path class="cls-10" d="M45.59,68.69a7.43,7.43,0,0,1-3.43.87A5.27,5.27,0,0,0,38.52,72c-.42.93.63-.51,1.07-.79s1.6-1.48,2.54-1.27a6,6,0,0,0,3.27-.44C46.12,69.13,45.75,69.1,45.59,68.69Z"></path>
      <path class="cls-10" d="M45.72,59.14c-1.86.7-3.63,1.26-5.52,1.85a8.4,8.4,0,0,0-4.35,3.37c-1.16,1.58,0-.8.41-1.29A10.38,10.38,0,0,1,40,60.6c2-.64,3.95-1.11,5.21-2.38S45.68,58.67,45.72,59.14Z"></path>
      <path class="cls-10" d="M46.64,64.28c1.24.6,2.23.78,3.52,1.45S52.69,68,53.68,69.1s-.39-.95-.68-1.31a12,12,0,0,0-2.7-2.47c-1.44-.7-2.46-1-3.41-2S46.63,63.88,46.64,64.28Z"></path>
      <polygon class="cls-3" points="0.78 43.89 44.57 62.48 89.01 43.56 88.6 43.44 0.78 43.89"></polygon>
      <ellipse class="cls-1" cx="45.97" cy="44.45" rx="10.26" ry="4.01"></ellipse>
      <ellipse class="cls-11" cx="46.24" cy="45.81" rx="8.46" ry="3.31"></ellipse>
      <path class="cls-12" d="M45.73,27.14a19.41,19.41,0,0,1-2-2.15,28.07,28.07,0,0,1-2.06-3.48,10.25,10.25,0,0,0-1.34-2c-.36-.53-.17-.37.16-.63s0-.91-.4-1.12-1.24-.55-1.18-1-.18-.59-.44-.94-.36-.32,0-.65a1.86,1.86,0,0,0,.43-1.68,16,16,0,0,1-.81-1.89c-.09-.5-.33-1,0-1.33A1.76,1.76,0,0,0,38.23,9c0-.37.07-.35.3-.57s.31-.61.55-.85.48-.48.39-.8-.39-1.61.07-1.48.66,0,.85-.39c-.11-.33-.4-.8,0-1.1a2.57,2.57,0,0,1,1.42-.65,2,2,0,0,0,1-.08,1.26,1.26,0,0,1,.72-1.37c.61-.35,1.77-1.27,2.33-1.48s.42-.21.67.14a1.27,1.27,0,0,0,1,.64c.51,0,1.69.22,1.95.62s-.51.56-.1.9,1.33.15,1.8.49c.06.24-.24.23.09.51a9.83,9.83,0,0,0,1.77,1c0,.81.45,1.4.54,2.21s.65.81,1,1.6a9,9,0,0,1,.12,3.44c-.09.85-.42,1.33-.1,2a1.93,1.93,0,0,1,0,1.88c-.32.72-.8.58-1.07,1.54s.26,1.13-.54,2.7-2.89,5.72-4.73,7c-.39,1.34-.42-.26-.55,1.78a101.7,101.7,0,0,0-.29,10.21c-.52,0-1.68,2.4-1.89-.29-.09-1.06.93-7.47.68-9.69A5.56,5.56,0,0,0,45.73,27.14Z"></path>
      <path class="cls-13" d="M45.73,27.14a14.59,14.59,0,0,1-2.25-2.52,29.34,29.34,0,0,1-1.73-2.91,6.15,6.15,0,0,0-.87-1.43c-.17-.22-.36-.44-.52-.67a2.3,2.3,0,0,1-.23-.37c-.06-.07,0-.2.1-.21a.77.77,0,0,0,.18-.1c.26-.14.19-.47.05-.69a1.15,1.15,0,0,0-.6-.53,3.68,3.68,0,0,1-.73-.45.71.71,0,0,1-.25-.38,2.55,2.55,0,0,0,0-.41c-.06-.25-.31-.44-.46-.67s-.25-.18-.2-.42a3.63,3.63,0,0,1,.28-.33,1.79,1.79,0,0,0,.35-1.53c-.42-1-1.18-2-.9-3.24a1.19,1.19,0,0,0,.25-.75,6.29,6.29,0,0,1,0-.87c.09-.17.23-.21.31-.32A1.58,1.58,0,0,0,38.71,8a2.15,2.15,0,0,1,.5-.69A.7.7,0,0,0,39.4,7a.93.93,0,0,0-.06-.38,4.85,4.85,0,0,1-.13-.85.86.86,0,0,1,.09-.46.25.25,0,0,1,.27-.08l.2,0c.27.06.45-.14.55-.4v.06a1.47,1.47,0,0,1-.18-1,1.77,1.77,0,0,1,.76-.63,1.76,1.76,0,0,1,.93-.26A2,2,0,0,0,42.74,3l-.05.08a1.62,1.62,0,0,1,.08-.75,1.27,1.27,0,0,1,.48-.57c.42-.26.81-.52,1.21-.8A11,11,0,0,1,45.69.19L46,.05a.83.83,0,0,1,.2,0,.21.21,0,0,1,.19.14,2,2,0,0,0,.44.54c.35.32.87.23,1.35.34a2.18,2.18,0,0,1,1.34.59.36.36,0,0,1,0,.41c-.07.11-.17.19-.19.28s.26.29.46.33A4.07,4.07,0,0,1,51.2,3h0V3c.05.14-.08.29-.06.32a.48.48,0,0,0,.18.21,4.93,4.93,0,0,0,.54.34c.38.21.77.4,1.16.58l0,0v0A4.36,4.36,0,0,0,53.45,6c.21.49.1,1.07.49,1.43a2.37,2.37,0,0,1,.81,1.32,7.43,7.43,0,0,1,.09,1.56c0,.52-.06,1-.12,1.55a6.26,6.26,0,0,0-.21,1.53,4.51,4.51,0,0,0,.25.73,1.57,1.57,0,0,1,.09.78,2.26,2.26,0,0,1-.69,1.37,1.86,1.86,0,0,0-.69,1.33,4.71,4.71,0,0,1-.14,1.54A25.82,25.82,0,0,1,52,21.91c-.5.92-1,1.81-1.6,2.67a9.41,9.41,0,0,1-2.08,2.33l0,0a2.53,2.53,0,0,1-.12.36c-.05.11-.11.29-.28.3a2,2,0,0,0-.11.67l-.1,1.52-.16,3c-.07,2-.17,4.06-.06,6.08v0l-.06,0c-.24.05-.46.34-.68.54s-.45.51-.83.4-.31-.56-.38-.86a4,4,0,0,1,0-.92c.09-1.23.25-2.44.38-3.66s.26-2.44.33-3.67A7.59,7.59,0,0,0,45.73,27.14Zm0,0a7.54,7.54,0,0,1,.48,3.62c-.06,1.22-.18,2.44-.31,3.66s-.27,2.44-.35,3.66a3.94,3.94,0,0,0,0,.91c.06.28.11.63.34.78s.51-.19.71-.39.39-.48.75-.57l0,.06a59.09,59.09,0,0,1,0-6.1l.18-3,.1-1.52,0-.38c0-.12,0-.26.16-.39s.25-.37.33-.58v0h0a9.2,9.2,0,0,0,2.06-2.29c.59-.85,1.11-1.75,1.62-2.65a30,30,0,0,0,1.39-2.78,5.17,5.17,0,0,0,.14-1.53,1.87,1.87,0,0,1,.71-1.35,2.17,2.17,0,0,0,.66-1.35,1.48,1.48,0,0,0-.09-.75,4.6,4.6,0,0,1-.25-.74,6.16,6.16,0,0,1,.2-1.55c.06-.51.1-1,.11-1.54a7.17,7.17,0,0,0-.1-1.54,2.29,2.29,0,0,0-.79-1.28,1.28,1.28,0,0,1-.34-.71A3.16,3.16,0,0,0,53.35,6,4.59,4.59,0,0,1,53,4.49l0,0c-.39-.18-.78-.37-1.17-.58a3.71,3.71,0,0,1-.56-.35A.6.6,0,0,1,51,3.33c0-.19.11-.21.07-.3l0,0a4.23,4.23,0,0,0-1.38-.3c-.21-.07-.55-.13-.56-.49s.37-.4.24-.59a2.19,2.19,0,0,0-1.25-.52c-.23,0-.47-.07-.71-.09a1.29,1.29,0,0,1-.7-.27A2.18,2.18,0,0,1,46.3.22s-.06-.08-.07-.07l-.15,0-.33.13a11.09,11.09,0,0,0-1.21.76c-.39.27-.8.55-1.2.8a1.15,1.15,0,0,0-.5,1.19v.05l-.06,0a2,2,0,0,1-1,.09,1.67,1.67,0,0,0-.86.24,1.85,1.85,0,0,0-.69.55c-.09.26.08.56.18.86v0a1,1,0,0,1-.25.38.56.56,0,0,1-.46.11c-.16,0-.3-.1-.33,0a.67.67,0,0,0-.05.36,4.51,4.51,0,0,0,.12.82,1.07,1.07,0,0,1,.06.45.83.83,0,0,1-.22.4,1.93,1.93,0,0,0-.48.66,1.51,1.51,0,0,1-.25.37c-.1.11-.24.19-.28.28,0,.44.15,1.17-.26,1.64a.93.93,0,0,0,0,.75c.08.28.11.56.21.81.2.52.49,1,.7,1.54a1.91,1.91,0,0,1-.38,1.66,2.21,2.21,0,0,0-.26.3c0,.06.09.19.17.3s.4.4.48.71c-.15.66.45.92.93,1.18a1.27,1.27,0,0,1,.64.57.9.9,0,0,1,.13.42.43.43,0,0,1-.21.39c-.1.09-.32.11-.25.22a2.7,2.7,0,0,0,.21.35c.16.23.34.44.51.67a6,6,0,0,1,.88,1.45,27.28,27.28,0,0,0,1.7,2.91A14.5,14.5,0,0,0,45.74,27.13Z"></path>
      <path class="cls-14" d="M45.21.67a10.81,10.81,0,0,1,.45,2.25,10.24,10.24,0,0,0,0,2.28c0,1.59,1.42,2.7,1.41,4.34,0,.79-.31,1.52-.29,2.27s.15,1.52.24,2.28.19,1.51.25,2.28a9.1,9.1,0,0,0,.2,1.12,4.12,4.12,0,0,1,0,1.17,9.47,9.47,0,0,0,.06,2.26,12.53,12.53,0,0,1-.08,2.31,17.44,17.44,0,0,0,0,2.28l.19,2.29a11.89,11.89,0,0,1,0,2.31c-.07.76-.13,1.52-.13,2.28a19.59,19.59,0,0,1-.15,2.3c0,.39-.12.76-.15,1.14s0,.76,0,1.14h0c0-.38,0-.76,0-1.15s.07-.76.09-1.14a19.4,19.4,0,0,0,.09-2.29,43.62,43.62,0,0,0,0-4.57L47,25.53a17.57,17.57,0,0,1,0-2.3A12.63,12.63,0,0,0,47.2,21a9.48,9.48,0,0,1,0-2.32,4.23,4.23,0,0,0,.06-1.11A7.14,7.14,0,0,1,47,16.39c-.06-.76-.15-1.52-.24-2.28s-.18-1.52-.21-2.3.31-1.52.31-2.27C47,8,45.54,6.82,45.54,5.22a10.4,10.4,0,0,1,.07-2.3A11.65,11.65,0,0,0,45.18.68Z"></path>
      <path class="cls-14" d="M42.08,4.32a4.2,4.2,0,0,1,.94.79c.26.32.44.7.67,1s.49.65.71,1a9.94,9.94,0,0,1,.4,1.16c.13.39.43.7.57,1.1a8.84,8.84,0,0,0,.41,1.16,15.49,15.49,0,0,1,1,2.27l-.15,0a15.21,15.21,0,0,0-1-2.25,8.63,8.63,0,0,1-.4-1.18c-.12-.38-.42-.7-.55-1.1a11.41,11.41,0,0,0-.38-1.17c-.2-.35-.48-.67-.69-1s-.4-.72-.65-1A4.19,4.19,0,0,0,42.08,4.32Z"></path>
      <path class="cls-14" d="M40.8,6.87a4.56,4.56,0,0,1,2.77.85,4,4,0,0,1,1,1.12c.28.39.77.61,1,1.09l-.1,0c-.19-.43-.67-.67-1-1.09a4.38,4.38,0,0,0-.93-1.12A4.52,4.52,0,0,0,40.8,6.87Z"></path>
      <path class="cls-14" d="M39.94,10.22a5.45,5.45,0,0,1,2-.76,4.39,4.39,0,0,0,2.12.2,1.06,1.06,0,0,1,1.05.2,4.53,4.53,0,0,1,.42,1,1.17,1.17,0,0,0,.33.41,2.38,2.38,0,0,1,.34.43c.21.3.37.62.55.94l-.1,0c-.17-.32-.33-.64-.53-.94a2.69,2.69,0,0,0-.33-.41,1.34,1.34,0,0,1-.34-.44,4.18,4.18,0,0,0-.4-1,1,1,0,0,0-1-.19A4.29,4.29,0,0,1,42,9.49,5.46,5.46,0,0,0,39.94,10.22Z"></path>
      <path class="cls-15" d="M39.45,7.14a9.37,9.37,0,0,1,1.28.7,3.89,3.89,0,0,1,1,1A2.31,2.31,0,0,0,43,9.72"></path>
      <path class="cls-16" d="M47.31,18.34a12,12,0,0,0-.79-2.08,6.68,6.68,0,0,0-.73-1.32,2.43,2.43,0,0,0-.74-.62c-.37-.24-.6-.77-.91-1.11S43.42,13,42.91,13a3.37,3.37,0,0,1-1.8-.38c-.47-.32-.84-.75-1.39-.8a9.43,9.43,0,0,0,3.1.25c.9-.15,1.13-.67,2.07-.44a2.23,2.23,0,0,1,1.92,1.81,1.34,1.34,0,0,1,.4-1.46,3.49,3.49,0,0,0,.72-2.1c-.06-.63-.4-.84-.11-1.4S48.9,7.63,49,7s-.33-1.33-.08-1.87.71-.87.79-1.41-.17-.65.32-1"></path>
      <path class="cls-14" d="M46.07,15.51a2.14,2.14,0,0,0-.74-.56c-.28-.11-.61-.17-.9-.27a3.38,3.38,0,0,0-.91-.17,4.64,4.64,0,0,1-.92.26c-.67.17-1.24-.27-1.87-.3a7.46,7.46,0,0,0-.95-.06c-.3,0-.65.1-.92-.1a1.38,1.38,0,0,0,.92.08,7.71,7.71,0,0,1,1,0c.64,0,1.21.45,1.85.27a5,5,0,0,0,.91-.26,3,3,0,0,1,1,.16c.31.1.61.14.92.26a2.22,2.22,0,0,1,.78.57Z"></path>
      <path class="cls-14" d="M46.27,39c-.08-.94-.15-1.89-.15-2.83s.14-1.89.2-2.83a22.28,22.28,0,0,0,.21-2.81c0-.47-.18-.91-.21-1.4a9.37,9.37,0,0,1,.13-1.42,5.47,5.47,0,0,0,0-1.4c0-.47-.05-.94-.12-1.41a6.39,6.39,0,0,1,.12-2.82,5.08,5.08,0,0,0,.2-1.39c0-.47-.07-.94-.08-1.41a5.64,5.64,0,0,1,.07-1.42,3.3,3.3,0,0,0,.11-.69,5.38,5.38,0,0,0-.12-.7,4.11,4.11,0,0,1,.13.7,2.8,2.8,0,0,1-.09.7,6.56,6.56,0,0,0,0,1.4c0,.48.09.94.11,1.42a5.57,5.57,0,0,1-.19,1.41,6.07,6.07,0,0,0-.09,2.78c.06.47.08.95.13,1.42a5.7,5.7,0,0,1,0,1.43,9.52,9.52,0,0,0-.15,1.39c0,.46.18.92.2,1.4a20.51,20.51,0,0,1-.23,2.83c-.08.94-.2,1.88-.24,2.82S46.22,38.09,46.27,39Z"></path>
      <path class="cls-14" d="M46.72,17.79a3.47,3.47,0,0,0-1.75-1,5.69,5.69,0,0,0-1-.12h-.52a.65.65,0,0,1-.52-.16,1,1,0,0,0-.78-.53,2.16,2.16,0,0,0-.94.35,8,8,0,0,0-.91.49c-.28.19-.52.44-.79.66.26-.23.48-.5.76-.71a9,9,0,0,1,.9-.51,2.39,2.39,0,0,1,1-.38,1,1,0,0,1,.86.56c.09.11.28.12.44.13l.52,0a5.11,5.11,0,0,1,1,.14A3.19,3.19,0,0,1,46.72,17.79Z"></path>
      <path class="cls-14" d="M43.47,16.63a3.07,3.07,0,0,0-.82.19,3.63,3.63,0,0,0-.7.48,5.65,5.65,0,0,1-1.48.87,5.43,5.43,0,0,0,1.44-.92,3.92,3.92,0,0,1,.7-.51,3.16,3.16,0,0,1,.84-.22Z"></path>
      <path class="cls-15" d="M42,14.74a6.63,6.63,0,0,0-.62.78c-.18.28-.2.7-.49.9"></path>
      <path class="cls-14" d="M46.35,22.58a4.85,4.85,0,0,0-.81-1.42A13,13,0,0,1,44.37,20a7.76,7.76,0,0,0-1.06-1.28,1.63,1.63,0,0,0-1.56-.3,1.64,1.64,0,0,1,1.58.28,7.65,7.65,0,0,1,1.08,1.26A14.5,14.5,0,0,0,45.6,21.1a5,5,0,0,1,.85,1.43Z"></path>
      <path class="cls-16" d="M46.42,25A13.57,13.57,0,0,0,45,22.66a3.2,3.2,0,0,0-3.19-.86"></path>
      <path class="cls-14" d="M47.06,24.85a4.68,4.68,0,0,1,.7-.58,2.63,2.63,0,0,0,.57-.67c.31-.5.52-1.08.82-1.6a12.68,12.68,0,0,1,1-1.53,4.23,4.23,0,0,1,.6-.67,1,1,0,0,1,.82-.31,1,1,0,0,0-.81.32,5.35,5.35,0,0,0-.58.68A11.5,11.5,0,0,0,49.22,22c-.29.53-.49,1.09-.8,1.62a2.45,2.45,0,0,1-.58.71,5.37,5.37,0,0,0-.67.58Z"></path>
      <path class="cls-14" d="M48.47,23.43a19,19,0,0,0,3.21-1.23,18.17,18.17,0,0,1-3.17,1.37Z"></path>
      <path class="cls-14" d="M47.2,22.7a5.81,5.81,0,0,1,.72-2.33,17.2,17.2,0,0,0,1.19-2.13A1.66,1.66,0,0,1,51.05,17a9.45,9.45,0,0,0,2.4.42A8.2,8.2,0,0,1,51,17.13a1.35,1.35,0,0,0-1.13.22,1.84,1.84,0,0,0-.43.4,2.4,2.4,0,0,0-.24.54A12.83,12.83,0,0,1,48,20.42,7,7,0,0,0,47.2,22.7Z"></path>
      <g class="cls-17">
        <path class="cls-14" d="M54.64,12.15a4.32,4.32,0,0,0-2.7,2.16,9.86,9.86,0,0,0-.8,1.59,4.37,4.37,0,0,1-.42.8,7.35,7.35,0,0,1-.68.59L50,17.21a7.87,7.87,0,0,0,.68-.57,3.36,3.36,0,0,0,.42-.77,11.42,11.42,0,0,1,.83-1.59A4.38,4.38,0,0,1,54.64,12.15Z"></path>
      </g>
      <path class="cls-14" d="M48.87,18.87a6,6,0,0,0,.45-1.23,6.32,6.32,0,0,0,.1-1.31q0-.33.09-.66a1.28,1.28,0,0,1,.21-.64c.14-.18.34-.3.45-.47s.19-.39.29-.59a2.62,2.62,0,0,1,.39-.55c.16-.17.34-.29.5-.44.35-.26.56-.65.91-1,.75-.5,1.49-.95,2.24-1.41h0c-.7.53-1.46,1-2.15,1.52-.32.26-.55.67-.91.95-.17.14-.36.27-.51.41a2.14,2.14,0,0,0-.37.52c-.11.19-.19.39-.31.59s-.34.31-.47.47a1.42,1.42,0,0,0-.2.6c0,.21-.08.43-.1.65a6.45,6.45,0,0,1-.12,1.31,6.57,6.57,0,0,1-.49,1.23Z"></path>
      <path class="cls-14" d="M47.3,17.73a7.09,7.09,0,0,1,.2-.86,3.52,3.52,0,0,1,.44-.76,4.67,4.67,0,0,0,.35-1.68,4.37,4.37,0,0,1,.48-1.69,7.52,7.52,0,0,0,.72-1.58,7.88,7.88,0,0,1,.71-1.6c.31-.5.69-.94,1-1.41a8.31,8.31,0,0,0,1.78-3,8.66,8.66,0,0,1-1.74,3c-.35.47-.73.91-1,1.41a8.13,8.13,0,0,0-.69,1.6,7.33,7.33,0,0,1-.7,1.6,4.1,4.1,0,0,0-.45,1.66,4.52,4.52,0,0,1-.35,1.72,4,4,0,0,0-.42.75c-.09.27-.12.56-.19.85Z"></path>
      <path class="cls-16" d="M51.14,12.72c0,.21-.09.42-.13.63"></path>
      <path class="cls-16" d="M52.15,10.76c-.2.27-.28.35-.52.64a3.38,3.38,0,0,0-.48,1.31"></path>
      <path class="cls-16" d="M52.74,9.78a3.8,3.8,0,0,1-.6,1"></path>
      <path class="cls-14" d="M54,8A3.24,3.24,0,0,0,52.79,9.8l-.11,0A3.31,3.31,0,0,1,54,8Z"></path>
      <path class="cls-14" d="M51.59,11.39a5.59,5.59,0,0,1-.13-1.68,3.59,3.59,0,0,0-.13-1.66,3.47,3.47,0,0,1,.18,1.66,5.8,5.8,0,0,0,.19,1.66Z"></path>
      <path class="cls-14" d="M49.61,15.36a1.42,1.42,0,0,0,0-.91,6.4,6.4,0,0,1-.26-.91c0-.33,0-.63,0-.94a3,3,0,0,1,0-.94,5.74,5.74,0,0,0,.08.93c.07.32,0,.64,0,.94a5,5,0,0,0,.23.9A1.3,1.3,0,0,1,49.61,15.36Z"></path>
      <path class="cls-14" d="M45.67,6.06a10,10,0,0,0-.57-.87,5.55,5.55,0,0,0-.71-.75,8.47,8.47,0,0,1-.67-.79c-.19-.3-.57-.37-.85-.57.28.2.66.26.87.56a8.25,8.25,0,0,0,.68.78,6.39,6.39,0,0,1,.73.74c.21.28.4.57.59.86Z"></path>
      <path class="cls-16" d="M47.81,8.49a13.35,13.35,0,0,0-.55-2.41,3.66,3.66,0,0,1,.36-2.6c.33-.53.51-.33.56-.83a2.53,2.53,0,0,1,.72-1.34"></path>
      <path class="cls-14" d="M47.41,3.81a3.48,3.48,0,0,0-.19-1c-.12-.3-.37-.54-.52-.84A4.28,4.28,0,0,1,46.2.09,4.34,4.34,0,0,0,46.74,2c.15.29.41.52.55.83a3.41,3.41,0,0,1,.23,1Z"></path>
      <path class="cls-14" d="M47.1,5.65a3.78,3.78,0,0,0-.24-1c-.1-.31-.47-.44-.56-.8A3.14,3.14,0,0,0,45.92,3a2.69,2.69,0,0,1-.37-.91A2.7,2.7,0,0,0,46,3a3.3,3.3,0,0,1,.4.9c.09.32.46.45.59.79a3.91,3.91,0,0,1,.27,1Z"></path>
      <path class="cls-14" d="M48.88,7.19a2.07,2.07,0,0,0,.81-.9,6.2,6.2,0,0,1,.67-1.07,2.2,2.2,0,0,0,.44-1.15,5.33,5.33,0,0,0-.14-1.25,4.83,4.83,0,0,1,.17,1.25,2.2,2.2,0,0,1-.4,1.19,5.39,5.39,0,0,0-.64,1.08,2.24,2.24,0,0,1-.82,1Z"></path>
      <path class="cls-14" d="M52.21,4.7c-.44.42-.85.88-1.28,1.31a4.57,4.57,0,0,1-.7.61,4.76,4.76,0,0,1-.86.33l0-.07a2.88,2.88,0,0,1,.1.82,2.28,2.28,0,0,0,.13.78A2.93,2.93,0,0,1,50,10a3.37,3.37,0,0,0-.41-1.54,2.22,2.22,0,0,1-.15-.8,2.65,2.65,0,0,0-.11-.79v0l0,0a6.53,6.53,0,0,0,.85-.32,3.85,3.85,0,0,0,.7-.58C51.31,5.53,51.74,5.08,52.21,4.7Z"></path>
      <path class="cls-16" d="M48.59,13.24A2.78,2.78,0,0,1,48.26,12a1.82,1.82,0,0,0-.4-1.34"></path>
      <path class="cls-14" d="M50.33,17a6.49,6.49,0,0,1,.76-.44,1.67,1.67,0,0,0,.6-.58,2.83,2.83,0,0,1,1.2-1.22A2.79,2.79,0,0,0,51.74,16a1.75,1.75,0,0,1-.61.63,6,6,0,0,0-.73.45Z"></path>
      <path class="cls-12" d="M46.75,46c.32-1.56.23-2.37.68-4.14s.81-4.33,3.43-6.44a10.72,10.72,0,0,1,4.28-2.34c1.61-.53,2.1,2.48,4.42,5.06,3,3.32,9.82,5.65,12.93,2.5a3.7,3.7,0,0,0,.61-4.3c-1-2.24-.25-1.35.91-3,0,0,1.76-2.27.46-4.33-1.92-3-7.38-4.12-10.31-3.51a15.23,15.23,0,0,0-8.26,5.41C55,32.25,52.2,32.71,50,34.8c-1.67,1.6-4.11,4.17-3.95,5.85-1-4-2.94-6.53-6-9.41-.16-3.28-2.87-6.1-3.35-6.67a11.94,11.94,0,0,0-7.84-3.11c-3.11.19-6.61,1.58-7.86,4.28-.91,2,1.67,3.11,1.13,3.84-.92,1.25-2,1.6-2,3.3-.09,2.86,2,4.39,4.64,5.06S33.56,36.59,35,35.88c2.7-1.29,3.14-1.29,4.46-3,3.82,2.87,5.4,9,5.88,13.07S46.43,47.58,46.75,46Z"></path>
      <path class="cls-13" d="M55.74,33.81a12.42,12.42,0,0,0,4,4.51c.8.62,1.64,1.18,2.5,1.72a12,12,0,0,0,2.71,1.28,9.77,9.77,0,0,0,5.8.24,4.21,4.21,0,0,0,2.17-1.74c.41-.84.21-1.94.37-2.94h.07a8.63,8.63,0,0,1,0,3.12,3.41,3.41,0,0,1-1,1.29,4.82,4.82,0,0,1-1.37.86,9.2,9.2,0,0,1-6.19-.35A12.39,12.39,0,0,1,62,40.39c-.85-.57-1.69-1.17-2.48-1.82a12.76,12.76,0,0,1-3.84-4.73Z"></path>
      <path class="cls-13" d="M74.46,29a8,8,0,0,0-3.32-2.52,11.76,11.76,0,0,0-11.92,1.38,15.91,15.91,0,0,0-3,2.91,3.4,3.4,0,0,1-.65.87,4.34,4.34,0,0,1-1,.52,14.18,14.18,0,0,0-1.91.84,19.4,19.4,0,0,0-3.46,2.36,7.8,7.8,0,0,0-2.44,3.34h0a7.39,7.39,0,0,1,2.31-3.51,16.28,16.28,0,0,1,3.47-2.46,13.33,13.33,0,0,1,2-.84,3.89,3.89,0,0,0,.91-.46,3.52,3.52,0,0,0,.62-.8,16.14,16.14,0,0,1,3.07-2.94,12,12,0,0,1,8-2.33,12.12,12.12,0,0,1,4.09,1.06A8,8,0,0,1,74.48,29Z"></path>
      <path class="cls-13" d="M46.14,40.62a23.74,23.74,0,0,0-2.39-5.1A17.56,17.56,0,0,0,40,31.38l0,0v-.07a13.72,13.72,0,0,0-3.34-6.36,10.65,10.65,0,0,0-6.35-3.09,12,12,0,0,0-3.59.17,10.61,10.61,0,0,0-3.29,1.44,5.37,5.37,0,0,0-2.32,2.65,2.11,2.11,0,0,0,.24,1.71,10,10,0,0,1,1,1.56l0,0a9.55,9.55,0,0,0-1-1.54,2.19,2.19,0,0,1-.29-1.78,5.25,5.25,0,0,1,2.32-2.79,10.37,10.37,0,0,1,3.35-1.52,12,12,0,0,1,3.68-.22,10.47,10.47,0,0,1,6.51,3.21,13.83,13.83,0,0,1,3.34,6.5h0a16.74,16.74,0,0,1,3.74,4.22,23.37,23.37,0,0,1,2.3,5.16Z"></path>
      <path class="cls-13" d="M21.51,30.22a19.32,19.32,0,0,0-1.08,2.2,3.71,3.71,0,0,0,.38,2.25,5.42,5.42,0,0,0,3.56,2.77,7.62,7.62,0,0,0,2.36.15c.81,0,1.63-.15,2.44-.25s1.63-.27,2.44-.46,1.62-.36,2.42-.6l0,0a27.77,27.77,0,0,1-4.81,1.37,18.84,18.84,0,0,1-2.49.32,8.07,8.07,0,0,1-2.5-.11,5.68,5.68,0,0,1-3.77-3.1,3.93,3.93,0,0,1-.29-2.46,21,21,0,0,1,1.28-2.15Z"></path>
    </g>
  </g>
</svg>
