<?xml version="1.0" encoding="UTF-8"?>
<svg xmlns="http://www.w3.org/2000/svg" xmlns:xlink="http://www.w3.org/1999/xlink" viewBox="0 0 110.57 125.06">
  <defs>
    <style>.cls-1,.cls-17{fill:none;}.cls-2{fill:#956d4b;}.cls-3{clip-path:url(#clip-path);}.cls-4{fill:url(#Безымянный_градиент_2);}.cls-5{fill:#754120;}.cls-6{fill:#44281c;}.cls-7{fill:#6c3c1d;}.cls-8{fill:#714d31;}.cls-9{fill:#613822;}.cls-10{fill:#7f5637;}.cls-11{fill:#a07850;}.cls-12{fill:#faf7cd;}.cls-13{fill:#f5daa5;}.cls-14{fill:#d3b473;}.cls-15{fill:#8b5b3c;}.cls-16{fill:#559d42;}.cls-17{stroke:#559d42;stroke-miterlimit:10;stroke-width:2px;}.cls-18{fill:#6eaa41;}.cls-19{fill:#613922;}</style>
    <clipPath id="clip-path">
      <polygon class="cls-1" points="7.92 96.39 57.88 119.91 104.11 96.5 56.05 76.14 7.92 96.39"></polygon>
    </clipPath>
    <linearGradient id="Безымянный_градиент_2" x1="-3077.6" y1="-474.87" x2="-3074.8" y2="-474.87" gradientTransform="matrix(34.36, 0, 0, -34.36, 105731.25, -16216.79)" gradientUnits="userSpaceOnUse">
      <stop offset="0" stop-color="#a17551"></stop>
      <stop offset="0.38" stop-color="#a17551"></stop>
      <stop offset="0.89" stop-color="#7a4928"></stop>
      <stop offset="1" stop-color="#72401f"></stop>
    </linearGradient>
  </defs>
  <g id="Слой_2" data-name="Слой 2">
    <g id="Слой_1-2" data-name="Слой 1">
      <path class="cls-2" d="M57.88,53.75s9.63,11.3,17.06,11.77S107.75,58,107.75,58l2.56-26.43L57.88,13Z"></path>
      <path class="cls-2" d="M.19,29.65,5.42,64.12S24,66.91,27.25,66s18.12-6.5,22.3-6.5,8.33-5.73,8.33-5.73V13Z"></path>
      <g class="cls-3">
        <rect class="cls-4" x="31.58" y="48.82" width="48.87" height="98.4" transform="translate(-44.88 148.69) rotate(-86.92)"></rect>
      </g>
      <path class="cls-5" d="M7.92,96.39,5.42,64.12s23.69-.46,30.2-3.71,22.26-6.66,22.26-6.66L56.05,76.14Z"></path>
      <path class="cls-6" d="M41.68,66.13a8.35,8.35,0,0,0-2.83-1.67v0S35.08,63.31,33,65.85s-1.7,5.29-.77,5.73a10.92,10.92,0,0,0,1.63.35l.1-.05a28.09,28.09,0,0,0,3.5-.79,1.83,1.83,0,0,0,.61-.16c.17,0,.35-.09.65-.19,1.48-.46,1.66-.13,2.69-1a4,4,0,0,0,1.08-2.54l-.21-.5h0l0,0a1,1,0,0,0-.59-.5"></path>
      <path class="cls-6" d="M21.4,69.45a11,11,0,0,0-4,1.33v0s-4.3,2.7-3.59,6.84,3.66,6.13,4.88,5.61a13.86,13.86,0,0,0,1.71-1.29l0-.13c.92-1,1.6-3.16,2.21-4A2.27,2.27,0,0,0,23,77c.1-.2.21-.42.37-.79.81-1.82,1.28-1.71,1.29-3.46a5.12,5.12,0,0,0-1.54-3.21,4.4,4.4,0,0,0-.65-.22v0h-.07a1.3,1.3,0,0,0-1,.13"></path>
      <path class="cls-7" d="M57.88,53.75,56.05,76.14,104.11,96.5,107.75,58s-15-1.73-21.48-.8S68.44,60.87,65,59a44.41,44.41,0,0,1-7.15-5.26"></path>
      <path class="cls-6" d="M39.58,76.75a3.28,3.28,0,0,0-1.25-.3h0a2.31,2.31,0,0,0-2,1.18c-.49,1.19,0,2.18.35,2.24l.65,0,0,0a12.3,12.3,0,0,0,1.23-.69l.21-.13.23-.14c.5-.34.61-.24.89-.69A1.5,1.5,0,0,0,40,77.06l-.13-.17h0Z"></path>
      <path class="cls-6" d="M86.66,67.12a2.27,2.27,0,0,0-.11-.89h0s-.38-1-1.27-1-1.43.5-1.37.77l.2.41,0,0,.75.63.14.1.14.11c.35.24.31.34.67.41a1.06,1.06,0,0,0,.73-.18l.07-.13h0v-.22Z"></path>
      <path class="cls-6" d="M100.09,83.3a11.07,11.07,0,0,0-1.91-3.82h0s-3.31-3.9-7.35-2.59-5.6,4.54-4.89,5.68a13.68,13.68,0,0,0,1.53,1.52l.13,0c1.19.77,3.39,1.13,4.37,1.62a2.18,2.18,0,0,0,.77.25c.22.07.45.15.84.26,1.94.54,1.9,1,3.64.79a5.19,5.19,0,0,0,3-2,3.27,3.27,0,0,0,.13-.69h0v-.07a1.31,1.31,0,0,0-.28-1"></path>
      <path class="cls-6" d="M74,70A8.59,8.59,0,0,0,72.1,72.7h0s-1.4,3.66,1,5.89,5.11,2.09,5.62,1.19a11,11,0,0,0,.46-1.59l0-.09a27.32,27.32,0,0,0-.52-3.53,1.81,1.81,0,0,0-.11-.62c0-.17-.07-.35-.14-.66-.34-1.49,0-1.65-.81-2.73a4,4,0,0,0-2.44-1.27l-.51.17h0l0,0A.94.94,0,0,0,74,70"></path>
      <path class="cls-8" d="M74.15,97.39A1.58,1.58,0,0,0,75.72,97c.54-.7.43-1.44.17-1.55l-.44-.08c-.29,0-.32.69-.33.7Z"></path>
      <path class="cls-9" d="M73.21,96.81s.88.79,1.24.55.8-.46.8-.46l0-.24-1-.32-.57.19Z"></path>
      <path class="cls-10" d="M73.15,96.68c0,.1.12.36.4.27s.53-.23.53-.23l.32-1c.07-.14.15-.19-.25,0s-.45,0-.72.29a1.07,1.07,0,0,0-.28.69"></path>
      <path class="cls-11" d="M74.08,96.72a4.35,4.35,0,0,0,.12-.7c0-.3,0-.39.29-.42s.83-.34,1.1-.23.26.09.26.44a1.24,1.24,0,0,1-.38.87.72.72,0,0,1-.76.32,1.79,1.79,0,0,1-.63-.28"></path>
      <path class="cls-8" d="M63.47,91.27s2.39.12,3.24-1.67.26-3.36-.36-3.49a7.46,7.46,0,0,0-1,0c-.65,0-.37,1.67-.39,1.7Z"></path>
      <path class="cls-9" d="M61.12,90.44s2.3,1.32,3,.62,1.53-1.4,1.53-1.4l-.16-.52a7.5,7.5,0,0,0-2.26-.25c-.37.2-1,.62-1.16.69Z"></path>
      <path class="cls-10" d="M60.93,90.17c.11.21.44.73,1,.4a8.38,8.38,0,0,0,1-.75s.19-1.93.26-2.28.23-.49-.58,0-1,.31-1.44,1a2.41,2.41,0,0,0-.28,1.66"></path>
      <path class="cls-11" d="M63,89.82a11.07,11.07,0,0,0,0-1.59c-.09-.69-.15-.87.42-1.08s1.68-1.13,2.33-1,.6.07.77.85A2.87,2.87,0,0,1,66,89.06a1.58,1.58,0,0,1-1.51,1.07A4,4,0,0,1,63,89.82"></path>
      <path class="cls-8" d="M53.51,99s1.87,1.42,3.54.44,2.05-2.59,1.62-3a6.4,6.4,0,0,0-.83-.53c-.56-.33-1.22,1.14-1.25,1.16Z"></path>
      <path class="cls-9" d="M52.06,97.08s1.14,2.33,2.08,2.14,2-.3,2-.3l.15-.5S55,97,54.61,97s-1.15,0-1.32-.08Z"></path>
      <path class="cls-10" d="M52.06,96.76c0,.23-.05.83.58.87a10.13,10.13,0,0,0,1.26,0l1.46-1.71c.25-.24.45-.27-.47-.33s-1-.27-1.7,0a2.36,2.36,0,0,0-1.13,1.19"></path>
      <path class="cls-11" d="M53.9,97.6a11.63,11.63,0,0,0,.83-1.32c.31-.61.35-.79.93-.65s2,0,2.44.45.45.38.17,1.1a2.81,2.81,0,0,1-1.49,1.47,1.54,1.54,0,0,1-1.81,0A4.06,4.06,0,0,1,53.9,97.6"></path>
      <path class="cls-8" d="M49.22,92.6a2.68,2.68,0,0,0,.09-2.73c-.86-1.21-2.1-1.39-2.41-1l-.35.67c-.21.44,1,.84,1,.87Z"></path>
      <path class="cls-9" d="M47.82,93.83s1.7-1,1.49-1.72A15.08,15.08,0,0,1,49,90.6l-.4-.09s-1,1.08-1,1.39,0,.87,0,1Z"></path>
      <path class="cls-10" d="M47.58,93.86c.18,0,.64,0,.62-.5a6,6,0,0,0-.11-1l-1.4-1c-.2-.18-.23-.33-.21.37s-.15.75.12,1.3a1.79,1.79,0,0,0,1,.79"></path>
      <path class="cls-11" d="M48.09,92.4A8.8,8.8,0,0,0,47,91.85c-.48-.19-.62-.21-.55-.67s-.12-1.51.18-1.89.26-.37.83-.2a2.17,2.17,0,0,1,1.22,1,1.18,1.18,0,0,1,.14,1.38,3,3,0,0,1-.76.89"></path>
      <path class="cls-8" d="M40.75,94.61a1.17,1.17,0,0,0,.39-1.12c-.21-.61-.7-.84-.87-.73L40,93l.29.49Z"></path>
      <path class="cls-9" d="M40,94.94s.84-.2.84-.52a5.52,5.52,0,0,1,0-.67l-.16-.09-.58.45-.12.43Z"></path>
      <path class="cls-10" d="M39.91,94.92l.32-.13.08-.4-.45-.6c-.06-.1-.06-.16-.14.13s-.15.29-.12.55a.76.76,0,0,0,.31.45"></path>
      <path class="cls-11" d="M40.31,94.38,39.94,94l-.15-.35.32-.76.37,0a.89.89,0,0,1,.37.58.5.5,0,0,1-.11.59Z"></path>
      <path class="cls-8" d="M38.15,99.28s1.64-2.63.14-4.72-3.66-2.39-4.19-1.77A8.24,8.24,0,0,0,33.5,94c-.37.76,1.66,1.45,1.69,1.5Z"></path>
      <path class="cls-9" d="M35.75,101.44s2.94-1.8,2.57-3a26.06,26.06,0,0,1-.64-2.61L37,95.67s-1.69,1.88-1.69,2.42.08,1.51.06,1.75Z"></path>
      <path class="cls-10" d="M35.32,101.48c.31,0,1.1,0,1.08-.87a11.59,11.59,0,0,0-.2-1.67s-2.08-1.41-2.43-1.72-.41-.56-.37.66-.25,1.29.22,2.25a3.11,3.11,0,0,0,1.7,1.35"></path>
      <path class="cls-11" d="M36.2,98.94A14.53,14.53,0,0,0,34.37,98c-.85-.33-1.09-.37-1-1.15s-.22-2.62.29-3.28.45-.64,1.44-.35A3.69,3.69,0,0,1,37.24,95a2.09,2.09,0,0,1,.28,2.39,5.35,5.35,0,0,1-1.32,1.54"></path>
      <path class="cls-12" d="M61.77,59.19a6.7,6.7,0,0,1,3.39.41,5,5,0,0,1,2.56,2.25c1.08,2,.83,4.24.62,6.14l-.72,5.84a15.09,15.09,0,0,0,.08,5.8,15.32,15.32,0,0,1-.58-5.84l.22-5.87a16.52,16.52,0,0,0-.07-2.83,5.62,5.62,0,0,0-.83-2.46,3.36,3.36,0,0,0-1.88-1.39,5,5,0,0,0-2.4-.09Z"></path>
      <ellipse class="cls-13" cx="57.45" cy="59.92" rx="7.74" ry="6.05"></ellipse>
      <path class="cls-14" d="M49.77,59.92a6.9,6.9,0,0,0,3.95,4.5,8.33,8.33,0,0,0,8.77-.56,5.61,5.61,0,0,0,2-2.28,2.84,2.84,0,0,0-.67-2.78,6.27,6.27,0,0,0-2.73-1.6l0-.11a6.55,6.55,0,0,1,2.94,1.47A3.8,3.8,0,0,1,65,60,2.65,2.65,0,0,1,65,61.77a6.22,6.22,0,0,1-2.1,2.69,9.72,9.72,0,0,1-3,1.57,8.94,8.94,0,0,1-3.42.41,8.34,8.34,0,0,1-1.71-.33,11.64,11.64,0,0,1-1.59-.67,6.29,6.29,0,0,1-3.54-5.52Z"></path>
      <polygon class="cls-15" points="0 29.95 57.93 55.46 110.57 31.93 57.93 12.36 0 29.95"></polygon>
      <path class="cls-16" d="M54.85.53a3.77,3.77,0,0,0-3.6.59C49,2.84,44.88,6.34,44.05,8.91a9.36,9.36,0,0,0-.42,4.54,1.38,1.38,0,0,0,1.26,1.12,9.54,9.54,0,0,0,5.1-.74c2.15-1.26,8.46-10.35,6.95-12A5.27,5.27,0,0,0,54.85.53Z"></path>
      <path class="cls-17" d="M53.91,3.35s4-4.42,7.45-1.14S63.25,25,62.62,27.86a10.38,10.38,0,0,1-4.8,6.94"></path>
      <path class="cls-18" d="M48.09,5.37s-2.77,3.29-2.52,7.2,1.51,5.18,6.06,1.64,7.08-9.72,4.42-12S48.09,5.37,48.09,5.37Z"></path>
      <path class="cls-8" d="M61.66,38.35a1.63,1.63,0,0,0-1.58-.58c-.88.27-1.23,1-1.08,1.21a2.54,2.54,0,0,0,.33.33c.22.22.68-.39.7-.4S61.66,38.35,61.66,38.35Z"></path>
      <path class="cls-19" d="M62.11,39.4s-.27-1.19-.72-1.21-1-.08-1-.08l-.12.22s.44.78.62.85l.6.17A3.39,3.39,0,0,0,62.11,39.4Z"></path>
      <path class="cls-10" d="M62.08,39.55c0-.1.11-.38-.18-.46a4.68,4.68,0,0,0-.58-.12s-.71.54-.86.63-.23.07.18.19.41.23.79.19A1.11,1.11,0,0,0,62.08,39.55Z"></path>
      <path class="cls-11" d="M61.32,39a5,5,0,0,0-.52.51c-.21.25-.25.33-.5.2s-.91-.22-1.08-.47-.16-.22.05-.53a1.29,1.29,0,0,1,.84-.51.74.74,0,0,1,.84.18A1.85,1.85,0,0,1,61.32,39Z"></path>
      <path class="cls-8" d="M39.22,30.2a2.43,2.43,0,0,0-2.45-.36c-1.17.66-1.46,1.76-1.17,2.07a4,4,0,0,0,.57.38c.38.24.86-.77.89-.78Z"></path>
      <path class="cls-19" d="M40.2,31.57s-.76-1.63-1.41-1.51-1.4.17-1.4.17l-.12.35s.88,1,1.16,1,.79,0,.91.07A7.08,7.08,0,0,0,40.2,31.57Z"></path>
      <path class="cls-10" d="M40.19,31.8c0-.16.05-.58-.39-.61a5.41,5.41,0,0,0-.87,0s-.86,1-1,1.16-.32.18.32.23.65.21,1.18,0A1.59,1.59,0,0,0,40.19,31.8Z"></path>
      <path class="cls-11" d="M38.93,31.19a7,7,0,0,0-.6.9c-.22.42-.25.54-.66.43s-1.37,0-1.68-.34-.31-.27-.1-.77a2,2,0,0,1,1-1,1.11,1.11,0,0,1,1.26,0A2.9,2.9,0,0,1,38.93,31.19Z"></path>
      <path class="cls-8" d="M55.07,27s-5.06-2.52-8.58.56-3.71,7-2.5,7.88a15.64,15.64,0,0,0,2.21.89c1.46.54,2.37-3.26,2.45-3.31S55.07,27,55.07,27Z"></path>
      <path class="cls-19" d="M59.38,30.94s-3.75-5-5.88-4.14-4.63,1.59-4.63,1.59l-.15,1.27s3.7,2.74,4.67,2.66,2.73-.4,3.16-.41A21.2,21.2,0,0,0,59.38,30.94Z"></path>
      <path class="cls-10" d="M59.53,31.7c-.05-.55-.26-2-1.77-1.79a22.83,22.83,0,0,0-3,.63s-2.2,4-2.69,4.7-1,.84,1.25.56,2.37.23,4-.78A5.7,5.7,0,0,0,59.53,31.7Z"></path>
      <path class="cls-11" d="M54.78,30.54A26.72,26.72,0,0,0,53.4,34c-.45,1.59-.47,2-1.92,1.95s-4.69.86-6,0-1.23-.71-.87-2.55,1.21-2.71,2.86-4.14a3.77,3.77,0,0,1,4.28-.9A9.6,9.6,0,0,1,54.78,30.54Z"></path>
      <path class="cls-8" d="M74.5,28.57s-2.91-4-6.86-3-5.67,4-5.07,5.11a16.55,16.55,0,0,0,1.36,1.56c.92,1,3.13-1.58,3.21-1.59S74.5,28.57,74.5,28.57Z"></path>
      <path class="cls-19" d="M76.25,33.37s-.9-5.38-2.91-5.55-4.21-.61-4.21-.61l-.62.93s1.77,3.59,2.56,3.91,2.27.78,2.6,1A20.37,20.37,0,0,0,76.25,33.37Z"></path>
      <path class="cls-10" d="M76.06,34c.19-.45.6-1.65-.65-2.1a20.28,20.28,0,0,0-2.56-.69s-3.3,2.23-3.95,2.57-1.07.27.74.93,1.75,1.12,3.43,1A4.91,4.91,0,0,0,76.06,34Z"></path>
      <path class="cls-11" d="M72.85,31.23a22.15,22.15,0,0,0-2.45,2.15c-1,1-1.18,1.38-2.27.75s-4-1.2-4.64-2.36-.68-1,.33-2.31,2-1.62,3.87-2.07a3.28,3.28,0,0,1,3.67,1A8.34,8.34,0,0,1,72.85,31.23Z"></path>
      <path class="cls-8" d="M61,30.62s-4.18-3.22-8-1-4.66,5.78-3.71,6.78a17.15,17.15,0,0,0,1.87,1.21C52.4,38.32,53.91,35,54,35S61,30.62,61,30.62Z"></path>
      <path class="cls-19" d="M64.2,35.05s-2.53-5.27-4.64-4.85-4.53.62-4.53.62L54.67,32s2.88,3.18,3.79,3.28,2.58.12,3,.2A20.9,20.9,0,0,0,64.2,35.05Z"></path>
      <path class="cls-10" d="M64.2,35.78c0-.52.12-1.87-1.3-2a19.36,19.36,0,0,0-2.84,0s-2.75,3.28-3.32,3.82-1,.6,1,.74,2.13.63,3.83,0A5.31,5.31,0,0,0,64.2,35.78Z"></path>
      <path class="cls-11" d="M60.06,33.86a23.56,23.56,0,0,0-1.89,3c-.71,1.37-.81,1.77-2.12,1.44s-4.45-.06-5.49-1-1-.87-.35-2.49,1.6-2.27,3.38-3.28a3.5,3.5,0,0,1,4.08-.05A9.07,9.07,0,0,1,60.06,33.86Z"></path>
      <path class="cls-8" d="M82.71,37.94A2.52,2.52,0,0,0,85,36.8c.62-1.26.22-2.38-.22-2.48a5.82,5.82,0,0,0-.71,0c-.47,0-.28,1.18-.3,1.2Z"></path>
      <path class="cls-19" d="M81.05,37.34s1.62,1,2.12.47,1.1-1,1.1-1l-.11-.37a5.34,5.34,0,0,0-1.6-.2c-.26.14-.71.43-.83.48A6.48,6.48,0,0,0,81.05,37.34Z"></path>
      <path class="cls-10" d="M80.93,37.14c.07.15.3.52.69.3a6.75,6.75,0,0,0,.76-.52s.15-1.37.2-1.62.17-.34-.41,0-.68.21-1,.68A1.73,1.73,0,0,0,80.93,37.14Z"></path>
      <path class="cls-11" d="M82.38,36.92a9.22,9.22,0,0,0,0-1.13c-.06-.5-.1-.62.31-.77s1.2-.77,1.65-.7.43.06.54.61a2,2,0,0,1-.32,1.48,1.12,1.12,0,0,1-1.08.74A3,3,0,0,1,82.38,36.92Z"></path>
      <path class="cls-8" d="M27,40.85a2.52,2.52,0,0,0,2.32-1.15c.62-1.26.22-2.38-.22-2.47a4.31,4.31,0,0,0-.71,0c-.47,0-.28,1.17-.3,1.2S27,40.85,27,40.85Z"></path>
      <path class="cls-19" d="M25.37,40.24s1.62,1,2.12.47,1.1-1,1.1-1l-.11-.37a5.07,5.07,0,0,0-1.6-.19c-.26.13-.71.42-.83.47A6.48,6.48,0,0,0,25.37,40.24Z"></path>
      <path class="cls-10" d="M25.25,40.05c.07.14.3.52.69.29a6.75,6.75,0,0,0,.76-.52s.15-1.37.2-1.62.17-.34-.41,0-.68.21-1,.68A1.69,1.69,0,0,0,25.25,40.05Z"></path>
      <path class="cls-11" d="M26.7,39.82a9.21,9.21,0,0,0,0-1.13c-.06-.49-.11-.62.3-.76s1.21-.78,1.66-.7.43.05.54.6a2,2,0,0,1-.32,1.48,1.13,1.13,0,0,1-1.08.75A2.85,2.85,0,0,1,26.7,39.82Z"></path>
      <path class="cls-8" d="M42.94,38.84s2.14.3,3.05-1.25.48-3-.06-3.17a5.89,5.89,0,0,0-.92-.05c-.59,0-.45,1.47-.48,1.5S42.94,38.84,42.94,38.84Z"></path>
      <path class="cls-19" d="M40.88,37.92s2,1.37,2.65.79A16.83,16.83,0,0,1,45,37.56l-.1-.48a6.62,6.62,0,0,0-2-.39c-.35.15-.94.48-1.1.53A9.91,9.91,0,0,0,40.88,37.92Z"></path>
      <path class="cls-10" d="M40.73,37.66c.09.2.34.7.87.44a8.76,8.76,0,0,0,1-.6s.31-1.73.4-2,.24-.42-.52,0-.89.2-1.37.77A2.2,2.2,0,0,0,40.73,37.66Z"></path>
      <path class="cls-11" d="M42.6,37.5a10,10,0,0,0,.07-1.43c0-.64-.07-.8.46-1s1.6-.88,2.17-.74.54.1.64.81a2.59,2.59,0,0,1-.54,1.86A1.45,1.45,0,0,1,44,37.9,3.63,3.63,0,0,1,42.6,37.5Z"></path>
      <path class="cls-8" d="M54.54,36.59a2.05,2.05,0,0,1,1.89-.29c.92.42,1.17,1.17,1,1.39A3.32,3.32,0,0,1,57,38c-.29.17-.68-.51-.7-.52Z"></path>
      <path class="cls-19" d="M53.82,37.55s.55-1.13,1.06-1.06,1.08.09,1.08.09l.1.23s-.66.7-.87.72-.61,0-.71.07A5.41,5.41,0,0,1,53.82,37.55Z"></path>
      <path class="cls-10" d="M53.83,37.7a.31.31,0,0,1,.29-.42,4.3,4.3,0,0,1,.67,0s.69.66.83.77.25.12-.24.17-.5.15-.91,0A1.14,1.14,0,0,1,53.83,37.7Z"></path>
      <path class="cls-11" d="M54.79,37.26a5.14,5.14,0,0,1,.48.6c.19.28.21.37.52.29s1.06-.06,1.3-.27.23-.19.06-.53a1.48,1.48,0,0,0-.84-.66.9.9,0,0,0-1,0A2,2,0,0,0,54.79,37.26Z"></path>
      <path class="cls-8" d="M71.59,31.79s-3.93-2.9-7.39-.81S60,36.42,60.89,37.33a14.16,14.16,0,0,0,1.76,1.08c1.16.68,2.49-2.42,2.57-2.46S71.59,31.79,71.59,31.79Z"></path>
      <path class="cls-19" d="M74.66,35.83s-2.44-4.83-4.39-4.4-4.18.66-4.18.66l-.31,1.06s2.73,2.89,3.58,3,2.38.07,2.75.13A18.93,18.93,0,0,0,74.66,35.83Z"></path>
      <path class="cls-10" d="M74.67,36.5c0-.48.08-1.73-1.23-1.79a18,18,0,0,0-2.63.1s-2.48,3.09-3,3.6-.93.57,1,.66,2,.55,3.55-.06A4.86,4.86,0,0,0,74.67,36.5Z"></path>
      <path class="cls-11" d="M70.81,34.81a22.3,22.3,0,0,0-1.7,2.76c-.62,1.29-.71,1.66-1.93,1.38s-4.12,0-5.1-.87-.95-.78-.36-2.3,1.43-2.13,3.06-3.1a3.23,3.23,0,0,1,3.77-.12A8.37,8.37,0,0,1,70.81,34.81Z"></path>
      <path class="cls-8" d="M50.64,36.33S47.43,35.75,46,38s-.93,4.5-.12,4.78a10.64,10.64,0,0,0,1.38.13c.89.06.78-2.19.82-2.23S50.64,36.33,50.64,36.33Z"></path>
      <path class="cls-19" d="M53.68,37.85s-2.89-2.18-3.94-1.35-2.31,1.63-2.31,1.63l.13.73s2.49.93,3,.72,1.45-.66,1.68-.73A12.31,12.31,0,0,0,53.68,37.85Z"></path>
      <path class="cls-10" d="M53.88,38.25c-.11-.3-.46-1.07-1.27-.71a12.87,12.87,0,0,0-1.55.83s-.57,2.59-.73,3.05-.39.62.78.1,1.35-.25,2.11-1.08A3.22,3.22,0,0,0,53.88,38.25Z"></path>
      <path class="cls-11" d="M51.06,38.37a15.81,15.81,0,0,0-.2,2.16c0,1,.06,1.2-.75,1.39s-2.47,1.24-3.32,1-.8-.19-.9-1.27a3.86,3.86,0,0,1,.92-2.76A2.18,2.18,0,0,1,49,37.68,5.71,5.71,0,0,1,51.06,38.37Z"></path>
    </g>
  </g>
</svg>
