<?xml version="1.0" encoding="UTF-8"?>
<svg xmlns="http://www.w3.org/2000/svg" xmlns:xlink="http://www.w3.org/1999/xlink" viewBox="0 0 110.12 115.48">
  <defs>
    <style>.cls-1{fill:none;}.cls-2{fill:#956d4b;}.cls-3{clip-path:url(#clip-path);}.cls-4{fill:url(#Безымянный_градиент_2);}.cls-5{fill:#754120;}.cls-6{fill:#44281c;}.cls-7{fill:#6c3c1d;}.cls-8{fill:#714d31;}.cls-9{fill:#613822;}.cls-10{fill:#7f5637;}.cls-11{fill:#a07850;}.cls-12{fill:#8b5b3c;}.cls-13{fill:#e9c671;}.cls-14{fill:#d9a458;}.cls-15{fill:#84a63c;}.cls-16{fill:#613922;}</style>
    <clipPath id="clip-path">
      <polygon class="cls-1" points="7.72 86.8 57.69 110.32 103.91 86.91 55.86 66.55 7.72 86.8"></polygon>
    </clipPath>
    <linearGradient id="Безымянный_градиент_2" x1="-2477.24" y1="391.72" x2="-2474.44" y2="391.72" gradientTransform="matrix(34.36, 0, 0, -34.36, 85104.78, 13546.7)" gradientUnits="userSpaceOnUse">
      <stop offset="0" stop-color="#a17551"></stop>
      <stop offset="0.38" stop-color="#a17551"></stop>
      <stop offset="0.89" stop-color="#7a4928"></stop>
      <stop offset="1" stop-color="#72401f"></stop>
    </linearGradient>
  </defs>
  <g id="Слой_2" data-name="Слой 2">
    <g id="Слой_1-2" data-name="Слой 1">
      <path class="cls-2" d="M57.69,44.16s9.62,11.3,17.06,11.77,32.81-7.57,32.81-7.57l2.56-26.43L57.69,3.44Z"></path>
      <path class="cls-2" d="M0,20.06,5.23,54.53s18.58,2.79,21.83,1.86,18.12-6.5,22.29-6.5,8.34-5.73,8.34-5.73V3.44Z"></path>
      <g class="cls-3">
        <rect class="cls-4" x="31.38" y="39.24" width="48.87" height="98.4" transform="translate(-35.49 139.43) rotate(-86.92)"></rect>
      </g>
      <path class="cls-5" d="M7.72,86.8,5.23,54.53s23.69-.46,30.19-3.71,22.27-6.66,22.27-6.66L55.86,66.55Z"></path>
      <path class="cls-6" d="M41.49,56.54a8.56,8.56,0,0,0-2.84-1.67l0,0s-3.79-1.13-5.85,1.41-1.71,5.29-.77,5.73a10.92,10.92,0,0,0,1.63.35l.09-.05a28.27,28.27,0,0,0,3.51-.79,1.76,1.76,0,0,0,.6-.16,6.26,6.26,0,0,0,.65-.19c1.49-.46,1.67-.12,2.69-1a4,4,0,0,0,1.09-2.55l-.21-.5h0l0,0a1,1,0,0,0-.58-.5"></path>
      <path class="cls-6" d="M21.2,59.87a10.77,10.77,0,0,0-4,1.32v0s-4.3,2.7-3.59,6.84,3.66,6.14,4.88,5.61a13.86,13.86,0,0,0,1.71-1.29l0-.13c.92-1,1.59-3.16,2.21-4a2,2,0,0,0,.35-.72c.11-.2.21-.42.38-.79.8-1.81,1.28-1.71,1.29-3.46A5.08,5.08,0,0,0,22.91,60a3.29,3.29,0,0,0-.66-.23v0h-.08a1.27,1.27,0,0,0-1,.14"></path>
      <path class="cls-7" d="M57.69,44.16,55.86,66.55l48.06,20.37,3.64-38.56s-15-1.72-21.48-.8-17.84,3.72-21.24,1.86a44.41,44.41,0,0,1-7.15-5.26"></path>
      <path class="cls-6" d="M39.39,67.17a3.29,3.29,0,0,0-1.26-.31h0a2.31,2.31,0,0,0-2,1.18c-.49,1.19-.05,2.18.35,2.24l.65,0,0,0a10.59,10.59,0,0,0,1.23-.69l.21-.13.22-.14c.51-.34.61-.24.9-.68a1.59,1.59,0,0,0,.12-1.08l-.13-.16h0Z"></path>
      <path class="cls-6" d="M86.47,57.53a2.27,2.27,0,0,0-.11-.89h0s-.38-1-1.27-1-1.43.5-1.38.78l.2.4,0,0,.75.63.13.1.15.11c.35.24.3.34.66.41a1.08,1.08,0,0,0,.74-.18l.07-.13h0v-.22Z"></path>
      <path class="cls-6" d="M99.89,73.71A11,11,0,0,0,98,69.89h0S94.7,66,90.66,67.29,85.07,71.83,85.78,73a14.36,14.36,0,0,0,1.52,1.52l.14,0c1.19.77,3.39,1.14,4.37,1.62a2.18,2.18,0,0,0,.77.25c.22.07.45.15.84.26,1.93.54,1.9,1,3.64.79a5.15,5.15,0,0,0,3-2,4.06,4.06,0,0,0,.13-.69h0l0-.07a1.27,1.27,0,0,0-.28-1"></path>
      <path class="cls-6" d="M73.78,60.43a8.44,8.44,0,0,0-1.87,2.68h0s-1.4,3.66,1,5.89,5.11,2.09,5.62,1.19a12.49,12.49,0,0,0,.46-1.59l0-.09A27.32,27.32,0,0,0,78.38,65a1.78,1.78,0,0,0-.12-.62c0-.16-.07-.35-.13-.65-.35-1.5,0-1.66-.81-2.74a4,4,0,0,0-2.44-1.27l-.51.17h0l0,0a.93.93,0,0,0-.54.54"></path>
      <path class="cls-8" d="M74,87.81a1.59,1.59,0,0,0,1.57-.42c.54-.7.43-1.44.17-1.55l-.44-.08c-.29-.05-.32.69-.33.7Z"></path>
      <path class="cls-9" d="M73,87.23s.87.79,1.23.54.8-.46.8-.46l0-.24-1-.32-.56.19Z"></path>
      <path class="cls-10" d="M73,87.09c0,.1.12.36.4.27a4.1,4.1,0,0,0,.52-.23l.33-1c.06-.15.14-.2-.25-.06s-.45,0-.72.29a1.07,1.07,0,0,0-.28.69"></path>
      <path class="cls-11" d="M73.88,87.13a5.25,5.25,0,0,0,.13-.69c0-.31,0-.4.28-.43s.84-.34,1.11-.23.26.09.26.44a1.24,1.24,0,0,1-.39.87.68.68,0,0,1-.75.32,1.87,1.87,0,0,1-.64-.28"></path>
      <path class="cls-8" d="M63.28,81.68s2.39.12,3.24-1.67.26-3.36-.36-3.49a7.39,7.39,0,0,0-1,0c-.66,0-.37,1.67-.39,1.7Z"></path>
      <path class="cls-9" d="M60.93,80.86s2.3,1.31,3,.61,1.53-1.4,1.53-1.4l-.15-.52A7.53,7.53,0,0,0,63,79.3c-.36.2-1,.62-1.16.7Z"></path>
      <path class="cls-10" d="M60.74,80.58c.11.21.43.74,1,.4a8.38,8.38,0,0,0,1.05-.75S63,78.3,63,78s.22-.49-.58,0-1,.32-1.44,1a2.41,2.41,0,0,0-.28,1.66"></path>
      <path class="cls-11" d="M62.78,80.23a11.07,11.07,0,0,0-.05-1.59c-.09-.69-.16-.87.42-1.08s1.68-1.13,2.32-1,.6.07.77.85a2.85,2.85,0,0,1-.41,2.09,1.59,1.59,0,0,1-1.52,1.07,4,4,0,0,1-1.53-.31"></path>
      <path class="cls-8" d="M53.32,89.45s1.86,1.41,3.54.43,2-2.58,1.62-3a6,6,0,0,0-.84-.53c-.55-.33-1.21,1.15-1.25,1.16Z"></path>
      <path class="cls-9" d="M51.86,87.49s1.15,2.33,2.08,2.14a18.88,18.88,0,0,1,2-.29l.16-.51s-1.29-1.4-1.7-1.44-1.14,0-1.32-.08Z"></path>
      <path class="cls-10" d="M51.86,87.17c0,.23,0,.83.59.87a10.13,10.13,0,0,0,1.26,0l1.46-1.71c.25-.24.45-.27-.47-.32s-1-.28-1.7,0a2.35,2.35,0,0,0-1.14,1.19"></path>
      <path class="cls-11" d="M53.71,88a10.69,10.69,0,0,0,.83-1.32c.3-.61.35-.79.93-.64s2,0,2.44.44.45.38.17,1.1a2.82,2.82,0,0,1-1.49,1.47,1.54,1.54,0,0,1-1.81,0A4.06,4.06,0,0,1,53.71,88"></path>
      <path class="cls-8" d="M49,83a2.67,2.67,0,0,0,.1-2.73c-.86-1.21-2.11-1.39-2.41-1l-.35.67c-.22.44,1,.84,1,.88Z"></path>
      <path class="cls-9" d="M47.63,84.25s1.7-1,1.49-1.73A15.08,15.08,0,0,1,48.77,81l-.4-.09s-1,1.08-1,1.39,0,.87,0,1Z"></path>
      <path class="cls-10" d="M47.39,84.27c.18,0,.63,0,.62-.5a7.43,7.43,0,0,0-.11-1l-1.4-1c-.2-.18-.23-.33-.21.37s-.15.75.12,1.3a1.79,1.79,0,0,0,1,.79"></path>
      <path class="cls-11" d="M47.9,82.81a8.8,8.8,0,0,0-1.06-.55c-.49-.19-.62-.21-.55-.67s-.13-1.51.17-1.89.26-.37.84-.2a2.16,2.16,0,0,1,1.21,1,1.18,1.18,0,0,1,.15,1.38,3,3,0,0,1-.76.89"></path>
      <path class="cls-8" d="M40.56,85a1.16,1.16,0,0,0,.38-1.12c-.2-.61-.69-.84-.86-.73l-.23.23.29.49Z"></path>
      <path class="cls-9" d="M39.82,85.36s.83-.21.84-.53,0-.67,0-.67l-.15-.09-.58.45-.12.43Z"></path>
      <path class="cls-10" d="M39.71,85.33l.33-.12.08-.41-.46-.6c-.06-.1,0-.16-.13.13s-.16.29-.12.55a.77.77,0,0,0,.3.45"></path>
      <path class="cls-11" d="M40.12,84.8l-.37-.37-.15-.35.32-.75.37,0a.92.92,0,0,1,.37.58.5.5,0,0,1-.12.59Z"></path>
      <path class="cls-8" d="M38,89.69s1.64-2.63.13-4.72-3.65-2.39-4.18-1.77a8.24,8.24,0,0,0-.6,1.17c-.37.76,1.66,1.45,1.69,1.5Z"></path>
      <path class="cls-9" d="M35.56,91.85s2.94-1.8,2.56-3-.63-2.61-.63-2.61l-.69-.15S35.11,88,35.11,88.5s.08,1.52.06,1.75Z"></path>
      <path class="cls-10" d="M35.13,91.89c.31,0,1.1,0,1.07-.87A12.45,12.45,0,0,0,36,89.35s-2.09-1.41-2.44-1.72-.41-.56-.36.66-.25,1.29.21,2.25a3.15,3.15,0,0,0,1.71,1.35"></path>
      <path class="cls-11" d="M36,89.35a14.22,14.22,0,0,0-1.84-.93c-.85-.33-1.08-.37-1-1.15S33,84.66,33.49,84s.45-.64,1.44-.35a3.69,3.69,0,0,1,2.12,1.78,2.07,2.07,0,0,1,.27,2.39A5.23,5.23,0,0,1,36,89.35"></path>
      <polygon class="cls-12" points="0 20.06 57.69 44.16 110.12 21.93 57.69 3.44 0 20.06"></polygon>
      <path class="cls-13" d="M56.47,44.79s-3.32-1.18-4.72-1.72-4.23.38-4.5,2.41,1,8,6,9.76,6.06.85,7.13.8,2.19-2,4-1.88,2,.27,2.84.06,3.86-.65,4.13-3.54-1.14-8.21-7.88-7.13C60.17,44.07,59.52,46.18,56.47,44.79Z"></path>
      <ellipse class="cls-14" cx="64.75" cy="48.64" rx="0.88" ry="0.43"></ellipse>
      <ellipse class="cls-14" cx="59.34" cy="51.56" rx="1.1" ry="0.46"></ellipse>
      <ellipse class="cls-14" cx="53.04" cy="48.92" rx="1.13" ry="0.7"></ellipse>
      <path class="cls-15" d="M61.81,23.15a.47.47,0,0,1-.17,0c-4.72-2-2.91-6.61-1.94-9.1l.06-.17a13.19,13.19,0,0,0,.93-4.53.42.42,0,0,1,.42-.44h0a.42.42,0,0,1,.42.42,13.56,13.56,0,0,1-1,4.86l-.06.17c-1.31,3.34-2.17,6.47,1.47,8a.44.44,0,0,1,.23.57A.43.43,0,0,1,61.81,23.15Z"></path>
      <path class="cls-15" d="M60.88,10.57s-6.72.72-7.36-6.35C53.52,4.22,60.16,4.29,60.88,10.57Z"></path>
      <path class="cls-15" d="M60.88,10.57S58,2.64,60.88,0C60.88,0,64.81,1,60.88,10.57Z"></path>
      <path class="cls-15" d="M60.88,10.57s.28-6,7-5.64C67.88,4.93,65.45,12.29,60.88,10.57Z"></path>
      <path class="cls-8" d="M60.94,28.4a1.27,1.27,0,0,0-1.2-.44c-.66.21-.93.73-.81.92a2.51,2.51,0,0,0,.24.26c.17.16.52-.3.54-.31Z"></path>
      <path class="cls-16" d="M61.28,29.2s-.2-.9-.55-.91-.72-.06-.72-.06l-.1.16s.34.59.48.64.39.11.45.14A4,4,0,0,0,61.28,29.2Z"></path>
      <path class="cls-10" d="M61.26,29.32c0-.08.08-.29-.13-.35a3,3,0,0,0-.45-.1s-.54.42-.65.48-.17.06.14.15.31.17.6.14A.88.88,0,0,0,61.26,29.32Z"></path>
      <path class="cls-11" d="M60.68,28.87a4.3,4.3,0,0,0-.39.39c-.16.19-.19.25-.38.15s-.69-.16-.82-.35-.12-.17,0-.4a1,1,0,0,1,.64-.39.55.55,0,0,1,.63.13A1.42,1.42,0,0,1,60.68,28.87Z"></path>
      <path class="cls-8" d="M43.93,22.22A1.84,1.84,0,0,0,42.07,22c-.89.5-1.1,1.33-.88,1.57a3.23,3.23,0,0,0,.43.28c.29.18.65-.58.67-.59Z"></path>
      <path class="cls-16" d="M44.67,23.27S44.1,22,43.6,22.12s-1.06.13-1.06.13l-.09.27s.67.75.88.77.6,0,.69.06A4.6,4.6,0,0,0,44.67,23.27Z"></path>
      <path class="cls-10" d="M44.67,23.44c0-.12,0-.44-.3-.47a5,5,0,0,0-.66,0s-.65.75-.79.88-.24.13.24.17.5.16.9,0A1.24,1.24,0,0,0,44.67,23.44Z"></path>
      <path class="cls-11" d="M43.71,23a5.67,5.67,0,0,0-.45.68c-.17.32-.2.41-.5.33s-1,0-1.28-.26-.23-.21-.07-.59a1.49,1.49,0,0,1,.79-.75.84.84,0,0,1,1,0A2.07,2.07,0,0,1,43.71,23Z"></path>
      <path class="cls-8" d="M55.94,19.77s-3.83-1.92-6.5.42-2.81,5.33-1.89,6a11.24,11.24,0,0,0,1.67.67c1.11.41,1.79-2.46,1.86-2.51S55.94,19.77,55.94,19.77Z"></path>
      <path class="cls-16" d="M59.21,22.79S56.37,19,54.75,19.65s-3.51,1.21-3.51,1.21l-.1,1s2.79,2.08,3.53,2,2.07-.3,2.4-.3A17.8,17.8,0,0,0,59.21,22.79Z"></path>
      <path class="cls-10" d="M59.32,23.37c0-.43-.19-1.51-1.34-1.36a16.68,16.68,0,0,0-2.25.48s-1.68,3-2,3.56-.71.64,1,.42,1.8.17,3.06-.59A4.28,4.28,0,0,0,59.32,23.37Z"></path>
      <path class="cls-11" d="M55.73,22.49a19.67,19.67,0,0,0-1,2.64c-.34,1.21-.36,1.54-1.45,1.48s-3.56.65-4.54,0-.94-.54-.67-1.93.92-2.06,2.18-3.14a2.86,2.86,0,0,1,3.24-.69A7.32,7.32,0,0,1,55.73,22.49Z"></path>
      <path class="cls-8" d="M70.67,21s-2.2-3-5.2-2.26-4.29,3-3.84,3.87a12.35,12.35,0,0,0,1,1.19c.7.75,2.37-1.2,2.44-1.21S70.67,21,70.67,21Z"></path>
      <path class="cls-16" d="M72,24.63s-.68-4.08-2.2-4.2S66.6,20,66.6,20l-.46.71s1.33,2.72,1.93,3,1.72.59,2,.72A15.4,15.4,0,0,0,72,24.63Z"></path>
      <path class="cls-10" d="M71.86,25.12c.14-.34.45-1.25-.5-1.59A15.49,15.49,0,0,0,69.43,23s-2.51,1.69-3,1.95-.81.2.56.7,1.33.85,2.6.76A3.77,3.77,0,0,0,71.86,25.12Z"></path>
      <path class="cls-11" d="M69.43,23a16,16,0,0,0-1.86,1.63c-.75.8-.9,1.05-1.72.57s-3-.92-3.52-1.79-.52-.78.25-1.76a4.46,4.46,0,0,1,2.93-1.56,2.47,2.47,0,0,1,2.78.76A6.36,6.36,0,0,1,69.43,23Z"></path>
      <path class="cls-8" d="M60.42,22.55s-3.17-2.45-6-.79-3.54,4.38-2.81,5.14a12.56,12.56,0,0,0,1.41.91c.94.58,2.09-1.94,2.16-2S60.42,22.55,60.42,22.55Z"></path>
      <path class="cls-16" d="M62.87,25.91s-1.92-4-3.52-3.69-3.44.48-3.44.48l-.27.86s2.19,2.41,2.88,2.49,1.95.09,2.25.15A16.38,16.38,0,0,0,62.87,25.91Z"></path>
      <path class="cls-10" d="M62.87,26.46c0-.4.09-1.42-1-1.49a15.65,15.65,0,0,0-2.15,0s-2.08,2.49-2.52,2.9-.77.45.79.56,1.62.48,2.91,0A4,4,0,0,0,62.87,26.46Z"></path>
      <path class="cls-11" d="M59.73,25a18.56,18.56,0,0,0-1.44,2.24c-.53,1-.61,1.34-1.6,1.09s-3.38,0-4.17-.8-.76-.65-.26-1.89a4.82,4.82,0,0,1,2.56-2.48,2.66,2.66,0,0,1,3.1,0A6.87,6.87,0,0,1,59.73,25Z"></path>
      <path class="cls-8" d="M76.9,28.1a1.92,1.92,0,0,0,1.76-.87c.47-1,.16-1.8-.17-1.88a3.37,3.37,0,0,0-.54,0c-.35,0-.21.89-.23.91Z"></path>
      <path class="cls-16" d="M75.64,27.64s1.23.72,1.6.35.84-.74.84-.74L78,27a4,4,0,0,0-1.22-.15c-.19.1-.54.33-.63.36A5.09,5.09,0,0,0,75.64,27.64Z"></path>
      <path class="cls-10" d="M75.55,27.49c.06.11.22.4.52.22a4.38,4.38,0,0,0,.58-.39s.11-1,.15-1.23.13-.26-.31,0-.52.16-.78.51A1.31,1.31,0,0,0,75.55,27.49Z"></path>
      <path class="cls-11" d="M76.65,27.32a7.05,7.05,0,0,0,0-.86c0-.37-.08-.46.23-.58s.92-.59,1.26-.53.32,0,.41.46a1.56,1.56,0,0,1-.24,1.12.86.86,0,0,1-.82.57A2.22,2.22,0,0,1,76.65,27.32Z"></path>
      <path class="cls-8" d="M34.69,30.3a1.92,1.92,0,0,0,1.76-.87c.47-1,.16-1.8-.17-1.88a3.37,3.37,0,0,0-.54,0c-.35,0-.21.89-.23.91Z"></path>
      <path class="cls-16" d="M33.43,29.84s1.23.73,1.6.35.84-.74.84-.74l-.08-.28A4,4,0,0,0,34.57,29c-.19.11-.54.33-.63.37A4.13,4.13,0,0,0,33.43,29.84Z"></path>
      <path class="cls-10" d="M33.34,29.69c.06.11.22.4.53.22a4.71,4.71,0,0,0,.57-.39s.11-1,.15-1.23.13-.26-.31,0-.52.16-.78.51A1.31,1.31,0,0,0,33.34,29.69Z"></path>
      <path class="cls-11" d="M34.44,29.52a6.89,6.89,0,0,0,0-.85c0-.38-.08-.47.23-.58s.92-.59,1.26-.54.32,0,.41.46a1.6,1.6,0,0,1-.24,1.13.86.86,0,0,1-.82.56A2.28,2.28,0,0,1,34.44,29.52Z"></path>
      <path class="cls-8" d="M46.75,28.78a2.46,2.46,0,0,0,2.31-1c.69-1.18.37-2.28-.05-2.41a4.52,4.52,0,0,0-.69,0c-.45,0-.35,1.11-.36,1.14S46.75,28.78,46.75,28.78Z"></path>
      <path class="cls-16" d="M45.19,28.08s1.5,1,2,.6a13,13,0,0,1,1.13-.87l-.08-.37a5.09,5.09,0,0,0-1.53-.3c-.26.12-.71.37-.83.41A6,6,0,0,0,45.19,28.08Z"></path>
      <path class="cls-10" d="M45.08,27.89c.06.14.25.52.65.33a6.28,6.28,0,0,0,.76-.46s.24-1.31.31-1.54.18-.32-.4,0-.67.16-1,.59A1.68,1.68,0,0,0,45.08,27.89Z"></path>
      <path class="cls-11" d="M46.49,27.76a7.46,7.46,0,0,0,.06-1.08c0-.49-.06-.61.35-.72s1.21-.67,1.64-.57.41.08.48.62a2,2,0,0,1-.4,1.41,1.11,1.11,0,0,1-1.1.65A2.94,2.94,0,0,1,46.49,27.76Z"></path>
      <path class="cls-8" d="M55.55,27.07A1.57,1.57,0,0,1,57,26.85c.7.32.88.89.72,1a2.12,2.12,0,0,1-.33.21c-.22.13-.52-.39-.53-.39Z"></path>
      <path class="cls-16" d="M55,27.8s.41-.86.8-.81a7.22,7.22,0,0,0,.82.07l.07.18s-.49.53-.66.55-.46,0-.53.05S55,27.8,55,27.8Z"></path>
      <path class="cls-10" d="M55,27.91a.25.25,0,0,1,.22-.32,5.17,5.17,0,0,1,.52,0s.52.5.62.58.19.09-.18.13-.38.11-.69,0A1,1,0,0,1,55,27.91Z"></path>
      <path class="cls-11" d="M55.74,27.58a4.53,4.53,0,0,1,.36.45c.14.22.16.28.39.22s.81,0,1-.2.17-.15,0-.4-.31-.35-.64-.5a.68.68,0,0,0-.73,0A1.45,1.45,0,0,0,55.74,27.58Z"></path>
      <path class="cls-8" d="M68.47,23.44s-3-2.21-5.61-.62-3.18,4.12-2.5,4.81a10.74,10.74,0,0,0,1.33.82c.88.51,1.89-1.84,2-1.86S68.47,23.44,68.47,23.44Z"></path>
      <path class="cls-16" d="M70.8,26.5S69,22.83,67.47,23.16s-3.17.5-3.17.5l-.24.81s2.08,2.18,2.72,2.24,1.8.05,2.08.1A15.23,15.23,0,0,0,70.8,26.5Z"></path>
      <path class="cls-10" d="M70.81,27c0-.37.06-1.32-.94-1.36a13.36,13.36,0,0,0-2,.07S66,28.06,65.6,28.45s-.7.43.75.5,1.5.42,2.69,0A3.72,3.72,0,0,0,70.81,27Z"></path>
      <path class="cls-11" d="M67.88,25.72a17.77,17.77,0,0,0-1.29,2.09c-.47,1-.54,1.26-1.46,1.05s-3.13,0-3.87-.66-.72-.59-.28-1.74a4.39,4.39,0,0,1,2.32-2.35,2.47,2.47,0,0,1,2.87-.1A6.49,6.49,0,0,1,67.88,25.72Z"></path>
      <path class="cls-8" d="M52.59,26.87s-2.44-.44-3.55,1.29-.69,3.41-.08,3.62a7.72,7.72,0,0,0,1,.11c.68,0,.59-1.66.62-1.7S52.59,26.87,52.59,26.87Z"></path>
      <path class="cls-16" d="M54.89,28s-2.19-1.65-3-1-1.76,1.24-1.76,1.24l.1.55a7.68,7.68,0,0,0,2.29.55c.4-.16,1.1-.5,1.28-.56A9,9,0,0,0,54.89,28Z"></path>
      <path class="cls-10" d="M55.05,28.33c-.09-.23-.36-.81-1-.54a9.84,9.84,0,0,0-1.17.63s-.44,2-.56,2.31-.3.47.59.08,1-.19,1.61-.82A2.53,2.53,0,0,0,55.05,28.33Z"></path>
      <path class="cls-11" d="M52.91,28.42a11.39,11.39,0,0,0-.16,1.64c0,.72,0,.91-.57,1.05s-1.87.94-2.51.75-.61-.14-.68-1a2.91,2.91,0,0,1,.7-2.1,1.65,1.65,0,0,1,1.69-.9A4.28,4.28,0,0,1,52.91,28.42Z"></path>
    </g>
  </g>
</svg>
