<?xml version="1.0" encoding="UTF-8"?>
<svg xmlns="http://www.w3.org/2000/svg" xmlns:xlink="http://www.w3.org/1999/xlink" viewBox="0 0 170.35 246.58">
  <defs>
    <style>.cls-1{fill:#a0cae7;}.cls-2{fill:#d0e6f5;}.cls-3{fill:#b8d8ee;}.cls-4{fill:#8e6848;}.cls-5{fill:url(#Безымянный_градиент_7);}.cls-6{fill:#713e21;}.cls-7{fill:#3d271f;}.cls-8{fill:#69391e;}.cls-9{fill:#6b482f;}.cls-10{fill:#5c3624;}.cls-11{fill:#795135;}.cls-12{fill:#9a734f;}.cls-13{fill:#fff;}.cls-14{fill:#85563a;}.cls-15{fill:#9fbee2;stroke:#334253;stroke-width:1.3px;}.cls-15,.cls-18,.cls-19,.cls-20{stroke-miterlimit:10;}.cls-16{fill:#334253;}.cls-17{fill:#b3ceea;}.cls-18,.cls-19,.cls-20{fill:none;stroke:#191919;stroke-linecap:round;stroke-width:1.57px;}.cls-19{stroke-dasharray:5.91 5.91;}.cls-20{stroke-dasharray:6.75 6.75;}.cls-21{font-size:38.42px;fill:#191919;font-family:MyriadPro-Regular, Myriad Pro;}.cls-22{font-size:27.74px;}.cls-23{fill:#789f5b;}</style>
    <linearGradient id="Безымянный_градиент_7" x1="47.65" y1="281.33" x2="52.34" y2="194.14" gradientUnits="userSpaceOnUse">
      <stop offset="0.38" stop-color="#9b714f"></stop>
      <stop offset="0.91" stop-color="#754427"></stop>
      <stop offset="1" stop-color="#6e3c20"></stop>
    </linearGradient>
  </defs>
  <g id="Слой_2" data-name="Слой 2">
    <g id="Слой_1-2" data-name="Слой 1">
      <path class="cls-1" d="M33.44,50.29s-12,12.13-6.12,18.65,14.76.57,11.47-8.09C35.84,53.09,33.44,50.29,33.44,50.29Z"></path>
      <path class="cls-2" d="M29.48,61.66c.41-1.25,1.35-4.1,1.71-5.13a27.52,27.52,0,0,1,1.63-3.35s1.15-2.2-1.77,1-4.73,9-3.84,9.3C27.92,63.71,29.07,62.89,29.48,61.66Z"></path>
      <path class="cls-3" d="M36.18,65.85c-.36,1.18-.19,2.28.37,2.44a2.16,2.16,0,0,0,2.18-1.62c.35-1.4-.35-2.54-.91-2.67S36.53,64.67,36.18,65.85Z"></path>
      <path class="cls-1" d="M53.43,50.29s-12,12.13-6.12,18.65,14.77.57,11.48-8.09C55.84,53.09,53.43,50.29,53.43,50.29Z"></path>
      <path class="cls-2" d="M49.47,61.66c.42-1.25,1.35-4.1,1.72-5.13a28.07,28.07,0,0,1,1.62-3.35S54,51,51,54.14s-4.72,9-3.84,9.3C47.91,63.71,49.06,62.89,49.47,61.66Z"></path>
      <path class="cls-3" d="M56.17,65.85c-.35,1.18-.18,2.28.37,2.44a2.15,2.15,0,0,0,2.18-1.62c.36-1.4-.35-2.54-.91-2.67S56.52,64.67,56.17,65.85Z"></path>
      <path class="cls-1" d="M73.42,50.29s-12,12.13-6.11,18.65c5.72,6.37,14.76.57,11.47-8.09C75.83,53.09,73.42,50.29,73.42,50.29Z"></path>
      <path class="cls-2" d="M69.47,61.66c.41-1.25,1.34-4.1,1.71-5.13a27.52,27.52,0,0,1,1.63-3.35S74,51,71,54.14s-4.73,9-3.85,9.3C67.9,63.71,69.06,62.89,69.47,61.66Z"></path>
      <path class="cls-3" d="M76.16,65.85c-.35,1.18-.18,2.28.38,2.44a2.15,2.15,0,0,0,2.17-1.62c.36-1.4-.35-2.54-.9-2.67S76.51,64.67,76.16,65.85Z"></path>
      <path class="cls-1" d="M45.7,23.72s-12,12.12-6.12,18.65c5.72,6.36,14.77.56,11.48-8.09C48.1,26.51,45.7,23.72,45.7,23.72Z"></path>
      <path class="cls-2" d="M41.74,35.08c.42-1.24,1.35-4.1,1.72-5.13a26.51,26.51,0,0,1,1.62-3.35s1.15-2.2-1.77,1-4.72,9-3.84,9.3C40.18,37.13,41.33,36.31,41.74,35.08Z"></path>
      <path class="cls-3" d="M48.44,39.27c-.35,1.19-.19,2.28.37,2.45A2.17,2.17,0,0,0,51,40.09c.35-1.4-.35-2.54-.91-2.66S48.79,38.09,48.44,39.27Z"></path>
      <path class="cls-1" d="M65.69,23.72s-12,12.12-6.12,18.65c5.73,6.36,14.77.56,11.48-8.09C68.1,26.51,65.69,23.72,65.69,23.72Z"></path>
      <path class="cls-2" d="M61.73,35.08c.42-1.24,1.35-4.1,1.72-5.13a27.52,27.52,0,0,1,1.63-3.35s1.14-2.2-1.77,1-4.73,9-3.85,9.3C60.17,37.13,61.33,36.31,61.73,35.08Z"></path>
      <path class="cls-3" d="M68.43,39.27c-.35,1.19-.18,2.28.37,2.45A2.17,2.17,0,0,0,71,40.09c.36-1.4-.35-2.54-.9-2.66S68.78,38.09,68.43,39.27Z"></path>
      <path class="cls-1" d="M56.75,0s-12,12.12-6.12,18.65c5.72,6.37,14.77.57,11.48-8.09C59.15,2.79,56.75,0,56.75,0Z"></path>
      <path class="cls-2" d="M52.79,11.37c.41-1.25,1.35-4.1,1.72-5.14a26.1,26.1,0,0,1,1.62-3.34s1.15-2.2-1.77.95-4.73,9-3.84,9.3C51.23,13.41,52.38,12.6,52.79,11.37Z"></path>
      <path class="cls-3" d="M59.49,15.56c-.35,1.18-.19,2.27.37,2.44A2.15,2.15,0,0,0,62,16.38c.35-1.4-.35-2.54-.91-2.67S59.84,14.37,59.49,15.56Z"></path>
      <path class="cls-4" d="M52.37,186.53s8.73,10.26,15.48,10.68,29.79-6.87,29.79-6.87l2.32-24L52.37,149.57Z"></path>
      <path class="cls-4" d="M0,164.65l4.75,31.29s16.86,2.53,19.81,1.69,16.45-5.9,20.24-5.9,7.57-5.2,7.57-5.2v-37Z"></path>
      <polygon class="cls-5" points="7.01 225.23 52.37 246.58 94.33 225.34 50.7 206.85 7.01 225.23"></polygon>
      <path class="cls-6" d="M7,225.23,4.75,195.94s21.5-.42,27.4-3.37,20.22-6,20.22-6L50.7,206.86Z"></path>
      <path class="cls-7" d="M37.66,197.76a7.66,7.66,0,0,0-2.57-1.51v0s-3.44-1-5.31,1.29-1.55,4.8-.7,5.2a11.3,11.3,0,0,0,1.48.31s.05,0,.09,0a28,28,0,0,0,3.18-.72,1.53,1.53,0,0,0,.55-.15c.15,0,.32-.08.59-.17,1.34-.41,1.51-.11,2.44-.92a3.59,3.59,0,0,0,1-2.31,2.14,2.14,0,0,0-.18-.46h0l0,0A.9.9,0,0,0,37.66,197.76Z"></path>
      <path class="cls-7" d="M19.25,200.78A10,10,0,0,0,15.6,202v0s-3.91,2.45-3.26,6.21,3.32,5.57,4.42,5.09a12.53,12.53,0,0,0,1.56-1.17s0-.08,0-.11c.84-1,1.45-2.87,2-3.69a1.92,1.92,0,0,0,.32-.65c.09-.18.19-.38.34-.71.73-1.65,1.16-1.56,1.17-3.14a4.6,4.6,0,0,0-1.39-2.91,3.14,3.14,0,0,0-.6-.21v0h-.07A1.14,1.14,0,0,0,19.25,200.78Z"></path>
      <path class="cls-8" d="M52.37,186.53,50.7,206.86l43.63,18.48,3.31-35s-13.61-1.57-19.51-.72S62,193,58.86,191.31A40.65,40.65,0,0,1,52.37,186.53Z"></path>
      <path class="cls-7" d="M35.75,207.41a3.08,3.08,0,0,0-1.13-.28h0a2.09,2.09,0,0,0-1.85,1.08c-.45,1.07-.05,2,.32,2a5.18,5.18,0,0,0,.59,0s0,0,0,0a11.21,11.21,0,0,0,1.12-.63.62.62,0,0,0,.19-.12,1.57,1.57,0,0,0,.2-.13c.46-.3.56-.21.81-.62a1.41,1.41,0,0,0,.12-1,1.31,1.31,0,0,0-.12-.15h0A.36.36,0,0,0,35.75,207.41Z"></path>
      <path class="cls-7" d="M78.49,198.66a2.08,2.08,0,0,0-.1-.81h0s-.35-.91-1.16-.93-1.29.45-1.24.7a2.45,2.45,0,0,0,.18.38h0a7.91,7.91,0,0,0,.68.57.36.36,0,0,0,.12.09l.14.1c.31.23.27.31.6.38a1,1,0,0,0,.67-.17.67.67,0,0,0,.06-.12h0v0A.25.25,0,0,0,78.49,198.66Z"></path>
      <path class="cls-7" d="M90.68,213.35A10,10,0,0,0,89,209.89h0s-3-3.55-6.67-2.36-5.08,4.12-4.44,5.16a12.92,12.92,0,0,0,1.39,1.38s.08,0,.12,0c1.08.69,3.08,1,4,1.47a2.16,2.16,0,0,0,.7.23l.76.23c1.75.49,1.72.94,3.3.72a4.66,4.66,0,0,0,2.71-1.82,3.4,3.4,0,0,0,.12-.62h0v-.07A1.22,1.22,0,0,0,90.68,213.35Z"></path>
      <path class="cls-7" d="M67,201.29a7.56,7.56,0,0,0-1.69,2.44h0s-1.27,3.32.88,5.35,4.63,1.89,5.1,1.08a11.23,11.23,0,0,0,.41-1.44s0-.06,0-.09a24.82,24.82,0,0,0-.48-3.21,1.5,1.5,0,0,0-.1-.55c0-.16-.06-.32-.12-.6-.32-1.36,0-1.5-.74-2.48A3.58,3.58,0,0,0,68,200.63a2.73,2.73,0,0,0-.47.15h0l0,0A.87.87,0,0,0,67,201.29Z"></path>
      <path class="cls-9" d="M67.13,226.15a1.46,1.46,0,0,0,1.43-.38c.49-.63.39-1.3.16-1.41l-.41-.07c-.26,0-.28.62-.3.64Z"></path>
      <path class="cls-10" d="M66.28,225.62s.79.72,1.12.5a7.93,7.93,0,0,1,.73-.42l0-.22a2.84,2.84,0,0,0-.87-.29c-.16.05-.45.16-.52.17A4.69,4.69,0,0,0,66.28,225.62Z"></path>
      <path class="cls-11" d="M66.23,225.5c0,.09.11.32.35.24a2.93,2.93,0,0,0,.48-.21s.24-.74.3-.87.13-.18-.23-.06-.4,0-.65.27A1,1,0,0,0,66.23,225.5Z"></path>
      <path class="cls-12" d="M67.06,225.53a3.52,3.52,0,0,0,.12-.63c0-.28,0-.35.26-.39s.76-.3,1-.2.23.08.23.4a1.16,1.16,0,0,1-.34.79.65.65,0,0,1-.69.29A1.77,1.77,0,0,1,67.06,225.53Z"></path>
      <path class="cls-9" d="M57.44,220.58s2.17.12,2.94-1.51.23-3-.32-3.17a6.11,6.11,0,0,0-.92,0c-.6,0-.34,1.51-.36,1.55S57.44,220.58,57.44,220.58Z"></path>
      <path class="cls-10" d="M55.3,219.84s2.1,1.19,2.72.56,1.39-1.27,1.39-1.27l-.15-.48a6.57,6.57,0,0,0-2-.22c-.33.18-.91.56-1.06.63A7.69,7.69,0,0,0,55.3,219.84Z"></path>
      <path class="cls-11" d="M55.13,219.59c.11.19.4.66.9.36a7.94,7.94,0,0,0,1-.68s.16-1.75.23-2.07.2-.44-.53,0-.87.29-1.3.9A2.16,2.16,0,0,0,55.13,219.59Z"></path>
      <path class="cls-12" d="M57,219.27a10.64,10.64,0,0,0-.05-1.44c-.08-.63-.14-.79.38-1s1.53-1,2.11-.93.54.06.7.77a2.54,2.54,0,0,1-.38,1.9,1.45,1.45,0,0,1-1.37,1A3.8,3.8,0,0,1,57,219.27Z"></path>
      <path class="cls-9" d="M48.4,227.64s1.69,1.28,3.21.39,1.86-2.35,1.47-2.75a6.5,6.5,0,0,0-.76-.48c-.5-.3-1.1,1-1.13,1.06S48.4,227.64,48.4,227.64Z"></path>
      <path class="cls-10" d="M47.08,225.86s1,2.12,1.89,1.94,1.82-.26,1.82-.26l.14-.47s-1.17-1.27-1.54-1.3-1,0-1.2-.07A8.14,8.14,0,0,0,47.08,225.86Z"></path>
      <path class="cls-11" d="M47.08,225.57c0,.21,0,.75.53.79a8.3,8.3,0,0,0,1.14,0s1.1-1.33,1.32-1.55.41-.25-.42-.29-.86-.25-1.54,0A2.14,2.14,0,0,0,47.08,225.57Z"></path>
      <path class="cls-12" d="M48.75,226.33a10.46,10.46,0,0,0,.75-1.19c.28-.56.32-.72.85-.59s1.79,0,2.22.4.4.35.14,1a2.54,2.54,0,0,1-1.34,1.34,1.42,1.42,0,0,1-1.65,0A3.81,3.81,0,0,1,48.75,226.33Z"></path>
      <path class="cls-9" d="M44.5,221.79a2.41,2.41,0,0,0,.09-2.47c-.79-1.1-1.91-1.27-2.19-.94a4.68,4.68,0,0,0-.32.61c-.2.4.87.77.88.79S44.5,221.79,44.5,221.79Z"></path>
      <path class="cls-10" d="M43.23,222.92s1.55-.94,1.36-1.57-.32-1.37-.32-1.37l-.37-.08s-.89,1-.89,1.26,0,.79,0,.92A6.76,6.76,0,0,0,43.23,222.92Z"></path>
      <path class="cls-11" d="M43,222.94c.16,0,.58,0,.57-.46a7.23,7.23,0,0,0-.1-.87s-1.09-.75-1.27-.91-.21-.29-.2.34-.13.68.11,1.18A1.64,1.64,0,0,0,43,222.94Z"></path>
      <path class="cls-12" d="M43.48,221.61a8,8,0,0,0-1-.5c-.44-.17-.57-.19-.51-.6s-.11-1.37.17-1.72.23-.33.75-.18a2,2,0,0,1,1.11.94,1.08,1.08,0,0,1,.13,1.25A2.69,2.69,0,0,1,43.48,221.61Z"></path>
      <path class="cls-9" d="M36.81,223.62a1,1,0,0,0,.35-1c-.18-.56-.63-.77-.78-.67a1,1,0,0,0-.21.21c-.13.14.26.43.26.44S36.81,223.62,36.81,223.62Z"></path>
      <path class="cls-10" d="M36.14,223.92s.76-.19.77-.47a5.74,5.74,0,0,1,0-.61l-.14-.08s-.5.29-.53.41-.09.33-.11.38A2.86,2.86,0,0,0,36.14,223.92Z"></path>
      <path class="cls-11" d="M36.05,223.9c.07,0,.24.07.29-.11a2.89,2.89,0,0,0,.07-.38s-.35-.45-.41-.54,0-.14-.12.12-.14.26-.11.5A.74.74,0,0,0,36.05,223.9Z"></path>
      <path class="cls-12" d="M36.41,223.41a2.5,2.5,0,0,0-.33-.32c-.16-.13-.21-.16-.13-.32s.13-.58.28-.69.14-.11.34,0a.88.88,0,0,1,.34.53.48.48,0,0,1-.11.54A1.26,1.26,0,0,1,36.41,223.41Z"></path>
      <path class="cls-9" d="M34.45,227.86s1.49-2.39.13-4.29-3.32-2.17-3.8-1.61a7.31,7.31,0,0,0-.54,1.06c-.34.7,1.5,1.33,1.53,1.37S34.45,227.86,34.45,227.86Z"></path>
      <path class="cls-10" d="M32.27,229.82s2.67-1.63,2.33-2.73-.57-2.38-.57-2.38l-.63-.13s-1.53,1.71-1.53,2.2.07,1.37.05,1.58A10.52,10.52,0,0,0,32.27,229.82Z"></path>
      <path class="cls-11" d="M31.89,229.85c.28,0,1,0,1-.79a12,12,0,0,0-.17-1.51s-1.9-1.28-2.21-1.56-.38-.51-.34.6-.22,1.17.2,2A2.82,2.82,0,0,0,31.89,229.85Z"></path>
      <path class="cls-12" d="M32.69,227.55A12.76,12.76,0,0,0,31,226.7c-.77-.3-1-.33-.88-1s-.21-2.37.26-3,.4-.58,1.3-.31A3.35,3.35,0,0,1,33.63,224a1.9,1.9,0,0,1,.25,2.17A4.93,4.93,0,0,1,32.69,227.55Z"></path>
      <path class="cls-13" d="M50.65,180.49l1.94,0c.84,1.42,1.68,2.85,2.53,4.26a7.16,7.16,0,0,0,3.74,3.11c.41.15.82.28,1.22.44.06,0,.13.18.1.21s-.22.28-.31.27a7.41,7.41,0,0,1-5.51-3.55c-.46-.7-.64-1.6-1.45-2.15a10.72,10.72,0,0,0,.3,5.93c1.1,3.4,2.18,6.8,3.27,10.2a5,5,0,0,1,.21,1c0,.09-.17.22-.28.3s-.19-.05-.22-.11c-.15-.31-.28-.63-.4-.95a27.06,27.06,0,0,0-2.48-5.19c-.23.68-.41,1.11-.53,1.55-.63,2.36-1.22,4.72-1.87,7.07a5.33,5.33,0,0,1-.69,1.14c-.55-1.05-.09-1.86.13-2.68a30.23,30.23,0,0,0,1.34-7.18,13.66,13.66,0,0,0-.36-4.41,15.86,15.86,0,0,1-.36-2.54c-.88.07-1.23.75-1.72,1.19s-.93,1-1.42,1.53c-.13.13-.41.11-.62.1a.63.63,0,0,1-.07-.46,9.55,9.55,0,0,1,1.11-1.72c.63-.72,1.38-1.33,2-2,.13-.14.08-.45.12-.68a1.94,1.94,0,0,0-.66.12c-1.46.78-2.89,1.62-4.37,2.37a9.63,9.63,0,0,0-4.17,3.17,2.81,2.81,0,0,1,.13-.94A6.15,6.15,0,0,1,44,187.48c1.38-.75,2.74-1.54,4.13-2.26A3.86,3.86,0,0,0,50.54,181,1.61,1.61,0,0,1,50.65,180.49Z"></path>
      <polygon class="cls-14" points="0 164.65 52.37 186.53 99.96 166.35 52.37 149.57 0 164.65"></polygon>
      <path class="cls-15" d="M67.38,211.78v5.28c0,3.47-6.83,6.29-15.25,6.29s-15.25-2.82-15.25-6.29v-5.28"></path>
      <ellipse class="cls-15" cx="52.13" cy="211.78" rx="15.25" ry="6.28"></ellipse>
      <path class="cls-16" d="M55.39,206a61.45,61.45,0,0,0-7.07,11.63s-.51-.9-1.29-.83c.48-1.79,4.23-8.16,7.53-11Z"></path>
      <path class="cls-17" d="M48.32,217.66A60.07,60.07,0,0,1,55.39,206a5,5,0,0,1,1.17-.23,74.85,74.85,0,0,0-6.72,11.5A3.63,3.63,0,0,0,48.32,217.66Z"></path>
      <path class="cls-17" d="M42.66,215.41s-6.32-2.95-2.58-5.64,10.35-2.85,10.35-2.85S39,209.32,42.66,215.41Z"></path>
      <path class="cls-17" d="M38.33,216.07v1.49s2.15,2.84,8.91,4v-2.07A19.82,19.82,0,0,1,38.33,216.07Z"></path>
      <line class="cls-18" x1="97.83" y1="164.21" x2="102.55" y2="164.21"></line>
      <line class="cls-19" x1="108.45" y1="164.21" x2="117.31" y2="164.21"></line>
      <line class="cls-18" x1="120.26" y1="164.21" x2="124.98" y2="164.21"></line>
      <line class="cls-18" x1="95.31" y1="217.06" x2="100.03" y2="217.06"></line>
      <line class="cls-20" x1="106.77" y1="217.06" x2="116.89" y2="217.06"></line>
      <line class="cls-18" x1="120.26" y1="217.06" x2="124.98" y2="217.06"></line>
      <text class="cls-21" transform="translate(113.6 202.87)">1<tspan class="cls-22" x="19.71" y="0">см</tspan></text>
      <path class="cls-23" d="M53.79,146.44a19.94,19.94,0,0,0-.74,5.69c.06,2.7.24,5.4.35,8.1,0,1,0,1.92,0,2.88l-1.94,0c-.08-3.6-.2-7.19-.21-10.79a22.71,22.71,0,0,1,.39-4.35,10.13,10.13,0,0,0-.15-5.19A6.69,6.69,0,0,0,46.43,138c-1.07-.23-1.43,0-1.54,1.11a4.78,4.78,0,0,1-1.52,3c-1,1-2,2-3,2.94-.5.48-1,1.08-1.8.5-.14-.09-.63.17-.85.39a10.38,10.38,0,0,0-2.61,4.47c-.17.55-.36,1.1-.67,2.05a13.3,13.3,0,0,1-.82-1.69,28.06,28.06,0,0,1-1.36-7.7c0-.73-.2-1.19-1.07-1a.45.45,0,0,1-.35-.27,2.72,2.72,0,0,1-.09-1A10.44,10.44,0,0,1,36,133.28a3.16,3.16,0,0,1,4.74,2.05c.16.7.39,1.17,1.18,1,1.06-.28,1.8.54,2.72.7a26.23,26.23,0,0,1,2.82.41,7.4,7.4,0,0,1,4.42,3.84c.3.52.49,1.11.79,1.63a.61.61,0,0,0,.6,0,2.57,2.57,0,0,0,.52-2.22c-.2-1.2-.47-2.39-.71-3.59s-.51-2.2-.65-3.32a7.11,7.11,0,0,1,2.14-6.44,1.61,1.61,0,0,0,.4-2.09,19.1,19.1,0,0,1-1.35-10.51,13.17,13.17,0,0,0,.11-2.35,5.11,5.11,0,0,0-.39-1.85c-.73-1.67-2.08-2.13-3.82-1.44a4.93,4.93,0,0,0-2.29,2.06,3.37,3.37,0,0,0-.27,1,2.55,2.55,0,0,0,.91.21,2.84,2.84,0,0,1,2,.08,4.56,4.56,0,0,1,1.85,2.15c.52,1.18.26,1.78-1.08,2.28a6.44,6.44,0,0,0-3.39,3.25.89.89,0,0,1-1.2.44c-1.17-.33-2.35-.65-3.54-.88a1.52,1.52,0,0,0-1.14.34c-1.1,1-2.12,2.1-3.18,3.15A4.69,4.69,0,0,0,37,125.25a.5.5,0,0,1-.84.23,7.64,7.64,0,0,1-2-4.44,12.83,12.83,0,0,1,0-3.39,16.59,16.59,0,0,0,.19-3.86c-.18-2.05,1.15-3.4,2.89-4.27a6.78,6.78,0,0,1,4.34-.6,11.49,11.49,0,0,1,4.84,1.55c3.45-3.63,6.57-3.24,8.36.48.34-.57.58-1.07.9-1.5a26.84,26.84,0,0,1,2.44-3.06,6.9,6.9,0,0,1,5.26-2,5.66,5.66,0,0,1,5.28,4.45,4.83,4.83,0,0,1-2.59,5c-.13.07-.34,0-.51,0l0,0c.45-.51.91-1,1.34-1.52a4.12,4.12,0,0,0,.67-4.42,4,4,0,0,0-3.34-2.59A6.16,6.16,0,0,0,58.89,107a11.59,11.59,0,0,0-2.64,3.54,16.48,16.48,0,0,0,.07,14.42,1,1,0,0,0,1.25.62,10.83,10.83,0,0,0,1.29-.2,1.09,1.09,0,0,0,.63-.68,3.42,3.42,0,0,1,2.4-2.53,10,10,0,0,1,4.57-.88c.7,0,.76.14.54,1-.06.25-.1.49-.16.77a17.2,17.2,0,0,1,2.23.84,11.11,11.11,0,0,1,2.17,1.42c.83.7.85,1,.19,2a1.73,1.73,0,0,0-.2,1.53c.49,1.36,1,2.73,1.33,4.12a9.9,9.9,0,0,1,.11,5,20.87,20.87,0,0,1-5.59-1.42c-.52-.17-.83,0-.75.66,0,.42-.18.72-.58.68-2.42-.25-4.88-.32-7.2-1.78-.45,1-.89,1.94-1.3,2.88a5.41,5.41,0,0,1-.42.79A33.55,33.55,0,0,0,53.79,146.44Zm1-6.34c.49-.84.75-1.27,1-1.7a3.1,3.1,0,0,0,0-3.62,5.47,5.47,0,0,1-.16-5.52,4.84,4.84,0,0,0,.36-1,.54.54,0,0,0-.15-.47.48.48,0,0,0-.45,0,4.79,4.79,0,0,0-2,3.78,22.28,22.28,0,0,0,.34,4.15C53.88,137.07,54.3,138.32,54.75,140.1Z"></path>
      <path class="cls-23" d="M65.5,113.87c-.69,1-1.7.51-2.58.51a1.5,1.5,0,0,1-1.6-1l0,0a9.94,9.94,0,0,0,4.26.53Z"></path>
      <path class="cls-23" d="M60.77,110.21c-.3,1.13.3,2.13.51,3.18l0,0c-1.18-1.11-1.29-1.79-.51-3.1Z"></path>
      <path class="cls-23" d="M60.81,110.25c0-.37.17-.55.54-.51l0,0-.54.51Z"></path>
      <path class="cls-23" d="M61.35,109.74l.13-.39c.39.34-.12.23-.17.35Z"></path>
      <path class="cls-9" d="M49.19,173.62a1.45,1.45,0,0,0-1.39-.51c-.77.24-1.08.85-.95,1.06a2.62,2.62,0,0,0,.29.3c.19.19.6-.35.62-.35Z"></path>
      <path class="cls-10" d="M49.59,174.55s-.24-1.05-.64-1.06-.84-.08-.84-.08l-.11.19s.39.69.55.75.46.12.52.15A3.89,3.89,0,0,0,49.59,174.55Z"></path>
      <path class="cls-11" d="M49.56,174.68c0-.09.1-.33-.15-.41s-.52-.11-.52-.11l-.75.56c-.13.07-.21.06.16.17s.35.2.69.16A1,1,0,0,0,49.56,174.68Z"></path>
      <path class="cls-12" d="M48.89,174.16a4.46,4.46,0,0,0-.46.46c-.18.22-.22.28-.44.17s-.8-.19-.94-.41-.15-.2,0-.46a1.14,1.14,0,0,1,.74-.46.64.64,0,0,1,.73.16A1.59,1.59,0,0,1,48.89,174.16Z"></path>
      <path class="cls-9" d="M46,155.78a2.16,2.16,0,0,0-2.16-.31c-1,.58-1.28,1.55-1,1.82a3,3,0,0,0,.5.34c.33.21.75-.68.77-.69Z"></path>
      <path class="cls-10" d="M46.88,157s-.66-1.43-1.24-1.33-1.22.16-1.22.16l-.11.3s.77.87,1,.9.7,0,.8.07A5.5,5.5,0,0,0,46.88,157Z"></path>
      <path class="cls-11" d="M46.88,157.19c0-.14,0-.51-.34-.54a4.83,4.83,0,0,0-.77,0s-.76.87-.91,1-.28.16.28.2.57.18,1,0A1.41,1.41,0,0,0,46.88,157.19Z"></path>
      <path class="cls-12" d="M45.77,156.66a6.72,6.72,0,0,0-.53.79c-.19.37-.22.47-.57.38s-1.21,0-1.49-.3-.26-.24-.08-.68A1.67,1.67,0,0,1,44,156a.94.94,0,0,1,1.1,0A2.41,2.41,0,0,1,45.77,156.66Z"></path>
      <path class="cls-9" d="M41.76,162.33s-4.44-2.22-7.55.49S31,169,32,169.75a14,14,0,0,0,1.95.78c1.28.47,2.07-2.87,2.15-2.92S41.76,162.33,41.76,162.33Z"></path>
      <path class="cls-10" d="M45.55,165.83s-3.29-4.41-5.17-3.64-4.07,1.4-4.07,1.4l-.13,1.12s3.25,2.41,4.1,2.34,2.4-.36,2.78-.36A18.48,18.48,0,0,0,45.55,165.83Z"></path>
      <path class="cls-11" d="M45.68,166.5c0-.49-.23-1.75-1.55-1.57a19.25,19.25,0,0,0-2.62.55s-1.94,3.53-2.37,4.14-.83.74,1.1.49,2.08.2,3.55-.69A5,5,0,0,0,45.68,166.5Z"></path>
      <path class="cls-12" d="M41.51,165.48a23,23,0,0,0-1.21,3.07c-.4,1.4-.42,1.78-1.69,1.72s-4.13.75-5.27,0-1.08-.62-.77-2.24,1.06-2.39,2.52-3.64a3.33,3.33,0,0,1,3.76-.8A8.51,8.51,0,0,1,41.51,165.48Z"></path>
      <path class="cls-9" d="M57.12,163.26s-3.73-2.19-6.58,0-3.2,5.17-2.33,5.88a11.76,11.76,0,0,0,1.65.79c1.08.49,2-2.36,2-2.39S57.12,163.26,57.12,163.26Z"></path>
      <path class="cls-10" d="M60.2,166.53s-2.6-4-4.28-3.47-3.61,1-3.61,1l-.18,1s2.67,2.29,3.42,2.28,2.1-.17,2.43-.15A16.74,16.74,0,0,0,60.2,166.53Z"></path>
      <path class="cls-11" d="M60.27,167.12c0-.43-.09-1.53-1.26-1.46a17.1,17.1,0,0,0-2.3.32s-1.9,3-2.31,3.45-.77.59.93.49,1.79.3,3.12-.38A4.36,4.36,0,0,0,60.27,167.12Z"></path>
      <path class="cls-12" d="M56.71,166a19.48,19.48,0,0,0-1.24,2.59C55,169.76,55,170.09,53.9,170s-3.63.4-4.57-.29-.91-.6-.54-2,1.07-2,2.41-3a2.88,2.88,0,0,1,3.32-.46A7.41,7.41,0,0,1,56.71,166Z"></path>
      <path class="cls-9" d="M67,159.32s-3.67-2.83-7-.91-4.1,5.08-3.26,6a13.13,13.13,0,0,0,1.64,1.06c1.09.67,2.43-2.25,2.5-2.28S67,159.32,67,159.32Z"></path>
      <path class="cls-10" d="M69.82,163.22s-2.22-4.64-4.08-4.27-4,.55-4,.55l-.31,1s2.54,2.8,3.33,2.88,2.27.11,2.61.18A18.6,18.6,0,0,0,69.82,163.22Z"></path>
      <path class="cls-11" d="M69.82,163.86c.05-.46.11-1.65-1.14-1.73a17.94,17.94,0,0,0-2.5,0s-2.42,2.89-2.92,3.36-.9.53.92.65,1.87.56,3.37,0A4.71,4.71,0,0,0,69.82,163.86Z"></path>
      <path class="cls-12" d="M66.18,162.17a21,21,0,0,0-1.67,2.59c-.62,1.21-.7,1.56-1.86,1.27s-3.91-.05-4.83-.92-.88-.76-.3-2.19,1.41-2,3-2.89a3.08,3.08,0,0,1,3.59,0A7.9,7.9,0,0,1,66.18,162.17Z"></path>
      <path class="cls-9" d="M69.83,171.2a2.23,2.23,0,0,0,2-1c.54-1.11.19-2.09-.2-2.17a3.29,3.29,0,0,0-.62,0c-.42,0-.25,1-.27,1.05S69.83,171.2,69.83,171.2Z"></path>
      <path class="cls-10" d="M68.37,170.67s1.43.84,1.86.41,1-.86,1-.86l-.1-.32a4.52,4.52,0,0,0-1.41-.18c-.23.12-.62.38-.73.42A5.61,5.61,0,0,0,68.37,170.67Z"></path>
      <path class="cls-11" d="M68.26,170.49c.07.14.26.46.61.26a5.72,5.72,0,0,0,.66-.45s.13-1.21.18-1.43.15-.3-.36,0-.6.18-.9.59A1.47,1.47,0,0,0,68.26,170.49Z"></path>
      <path class="cls-12" d="M69.53,170.3a6.52,6.52,0,0,0,0-1c0-.43-.09-.54.27-.67s1-.68,1.45-.61.38,0,.48.53a1.76,1.76,0,0,1-.28,1.3,1,1,0,0,1-1,.66A2.75,2.75,0,0,1,69.53,170.3Z"></path>
      <path class="cls-9" d="M34.86,172a2.84,2.84,0,0,0,2.68-1.1c.79-1.37.42-2.65-.06-2.79a4.55,4.55,0,0,0-.8,0c-.52,0-.4,1.29-.42,1.32S34.86,172,34.86,172Z"></path>
      <path class="cls-10" d="M33.05,171.18s1.74,1.2,2.32.69,1.31-1,1.31-1l-.09-.42a5.81,5.81,0,0,0-1.78-.35c-.3.14-.83.43-1,.47A7.31,7.31,0,0,0,33.05,171.18Z"></path>
      <path class="cls-11" d="M32.92,171c.07.18.3.61.76.39a7.52,7.52,0,0,0,.88-.53s.27-1.52.35-1.79.22-.37-.46,0-.78.18-1.2.68A1.92,1.92,0,0,0,32.92,171Z"></path>
      <path class="cls-12" d="M34.56,170.81a8.35,8.35,0,0,0,.06-1.26c0-.56-.06-.7.41-.83s1.4-.78,1.91-.66.47.09.55.72a2.2,2.2,0,0,1-.47,1.63,1.26,1.26,0,0,1-1.27.75A3.21,3.21,0,0,1,34.56,170.81Z"></path>
      <path class="cls-9" d="M47.15,165a1.66,1.66,0,0,0,1.66.29c.82-.42,1-1.17.84-1.39a4.44,4.44,0,0,0-.38-.27c-.25-.17-.6.52-.62.52Z"></path>
      <path class="cls-10" d="M46.52,164s.48,1.13.93,1.06a9.46,9.46,0,0,1,.95-.09l.09-.23s-.58-.69-.77-.72-.54-.05-.62-.07A4.18,4.18,0,0,0,46.52,164Z"></path>
      <path class="cls-11" d="M46.52,163.86c0,.11,0,.39.26.43a4,4,0,0,0,.59,0s.61-.66.73-.77.22-.12-.21-.16-.44-.15-.8,0A1.09,1.09,0,0,0,46.52,163.86Z"></path>
      <path class="cls-12" d="M47.37,164.3a4.92,4.92,0,0,0,.43-.6c.16-.28.18-.36.45-.28s.93.05,1.14.27.21.19,0,.52a1.3,1.3,0,0,1-.73.66.76.76,0,0,1-.86,0A2,2,0,0,1,47.37,164.3Z"></path>
      <path class="cls-9" d="M62.11,171.29s4.17,1,6.26-1.87,1.56-5.83.52-6.26a11.68,11.68,0,0,0-1.79-.28c-1.17-.15-1.2,2.81-1.25,2.87S62.11,171.29,62.11,171.29Z"></path>
      <path class="cls-10" d="M58.24,169.06s3.63,3.09,5.06,2.08a37.13,37.13,0,0,1,3.16-2l-.11-1s-3.2-1.41-3.91-1.18-1.95.76-2.27.83A17.82,17.82,0,0,0,58.24,169.06Z"></path>
      <path class="cls-11" d="M58,168.52c.13.41.53,1.43,1.61,1a16.34,16.34,0,0,0,2.1-1s1-3.35,1.21-3.94.55-.78-1-.2-1.8.23-2.86,1.26A4.27,4.27,0,0,0,58,168.52Z"></path>
      <path class="cls-12" d="M61.71,168.58a18.54,18.54,0,0,0,.43-2.82c.07-1.25,0-1.58,1.1-1.77s3.33-1.43,4.43-1,1,.31,1.08,1.74-.44,2.21-1.42,3.56a2.87,2.87,0,0,1-3,1.39A7.5,7.5,0,0,1,61.71,168.58Z"></path>
      <path class="cls-9" d="M42.87,168.88s2.5,1.4,4.37-.07,2.06-3.48,1.47-3.94a8,8,0,0,0-1.11-.51c-.72-.31-1.28,1.6-1.32,1.62S42.87,168.88,42.87,168.88Z"></path>
      <path class="cls-10" d="M40.78,166.74s1.78,2.65,2.88,2.25,2.39-.69,2.39-.69l.11-.64s-1.81-1.49-2.3-1.47-1.4.14-1.62.13A10.82,10.82,0,0,0,40.78,166.74Z"></path>
      <path class="cls-11" d="M40.72,166.35c0,.29.08,1,.86,1a10.36,10.36,0,0,0,1.52-.25s1.23-2,1.49-2.32.5-.4-.62-.31-1.2-.18-2.07.29A2.9,2.9,0,0,0,40.72,166.35Z"></path>
      <path class="cls-12" d="M43.1,167.06a12.8,12.8,0,0,0,.79-1.74c.27-.79.29-1,1-.94s2.4-.32,3,.13.61.39.38,1.32a3.39,3.39,0,0,1-1.56,2,1.91,1.91,0,0,1-2.2.35A4.91,4.91,0,0,1,43.1,167.06Z"></path>
    </g>
  </g>
</svg>
