<?xml version="1.0" encoding="UTF-8"?>
<svg xmlns="http://www.w3.org/2000/svg" xmlns:xlink="http://www.w3.org/1999/xlink" viewBox="0 0 151.27 217.41">
  <defs>
    <style>.cls-1{fill:#a0cae7;}.cls-2{fill:#d0e6f5;}.cls-3{fill:#b8d8ee;}.cls-4{fill:#8e6848;}.cls-5{fill:url(#Безымянный_градиент_7);}.cls-6{fill:#713e21;}.cls-7{fill:#3d271f;}.cls-8{fill:#69391e;}.cls-9{fill:#6b482f;}.cls-10{fill:#5c3624;}.cls-11{fill:#795135;}.cls-12{fill:#9a734f;}.cls-13{fill:#fff;}.cls-14{fill:#85563a;}.cls-15{fill:#9fbee2;stroke:#334253;stroke-width:1.21px;}.cls-15,.cls-18,.cls-19,.cls-20,.cls-24,.cls-25,.cls-26{stroke-miterlimit:10;}.cls-16{fill:#334253;}.cls-17{fill:#b3ceea;}.cls-18,.cls-19,.cls-20,.cls-24,.cls-25,.cls-26{fill:none;}.cls-18,.cls-19,.cls-20{stroke:#191919;stroke-linecap:round;stroke-width:1.55px;}.cls-19{stroke-dasharray:6.33 6.33;}.cls-20{stroke-dasharray:7.21 7.21;}.cls-21{font-size:36px;fill:#191919;font-family:MyriadPro-Regular, Myriad Pro;}.cls-22{font-size:26px;}.cls-23{fill:#769b57;}.cls-24,.cls-25,.cls-26{stroke:#79a05b;}.cls-24{stroke-width:0.44px;}.cls-25{stroke-width:0.39px;}.cls-26{stroke-width:1.37px;}</style>
    <linearGradient id="Безымянный_градиент_7" x1="44.66" y1="249.97" x2="49.05" y2="168.26" gradientUnits="userSpaceOnUse">
      <stop offset="0.38" stop-color="#9b714f"></stop>
      <stop offset="0.91" stop-color="#754427"></stop>
      <stop offset="1" stop-color="#6e3c20"></stop>
    </linearGradient>
  </defs>
  <g id="Слой_2" data-name="Слой 2">
    <g id="Слой_1-2" data-name="Слой 1">
      <path class="cls-1" d="M32.26,41.32s-9.85,10-5,15.32,12.13.47,9.43-6.65C34.23,43.61,32.26,41.32,32.26,41.32Z"></path>
      <path class="cls-2" d="M29,50.66c.34-1,1.11-3.37,1.41-4.22a23.46,23.46,0,0,1,1.34-2.75s.94-1.81-1.45.78-3.89,7.37-3.16,7.64C27.72,52.34,28.67,51.66,29,50.66Z"></path>
      <path class="cls-3" d="M34.51,54.1c-.29,1-.15,1.87.3,2a1.77,1.77,0,0,0,1.79-1.33c.29-1.15-.28-2.09-.74-2.19S34.79,53.12,34.51,54.1Z"></path>
      <path class="cls-1" d="M48.68,41.32s-9.85,10-5,15.32,12.14.47,9.43-6.65C50.66,43.61,48.68,41.32,48.68,41.32Z"></path>
      <path class="cls-2" d="M45.43,50.66c.34-1,1.11-3.37,1.41-4.22a22.39,22.39,0,0,1,1.33-2.75s.95-1.81-1.45.78-3.88,7.37-3.16,7.64S45.09,51.66,45.43,50.66Z"></path>
      <path class="cls-3" d="M50.93,54.1c-.29,1-.15,1.87.31,2A1.77,1.77,0,0,0,53,54.77a1.82,1.82,0,0,0-.75-2.19C51.82,52.48,51.22,53.12,50.93,54.1Z"></path>
      <path class="cls-1" d="M65.11,41.32s-9.85,10-5,15.32,12.13.47,9.43-6.65C67.08,43.61,65.11,41.32,65.11,41.32Z"></path>
      <path class="cls-2" d="M61.85,50.66c.34-1,1.11-3.37,1.41-4.22a23.46,23.46,0,0,1,1.34-2.75s.94-1.81-1.45.78S59.26,51.84,60,52.11C60.57,52.34,61.52,51.66,61.85,50.66Z"></path>
      <path class="cls-3" d="M67.36,54.1c-.29,1-.15,1.87.3,2a1.77,1.77,0,0,0,1.79-1.33c.29-1.15-.28-2.09-.74-2.19S67.64,53.12,67.36,54.1Z"></path>
      <path class="cls-1" d="M42.33,19.48s-9.85,10-5,15.33,12.13.46,9.43-6.65C44.31,21.78,42.33,19.48,42.33,19.48Z"></path>
      <path class="cls-2" d="M39.08,28.82c.34-1,1.1-3.37,1.41-4.22a22.39,22.39,0,0,1,1.33-2.75s1-1.8-1.45.79S36.49,30,37.21,30.28,38.74,29.83,39.08,28.82Z"></path>
      <path class="cls-3" d="M44.58,32.26c-.29,1-.15,1.87.31,2a1.78,1.78,0,0,0,1.79-1.33,1.82,1.82,0,0,0-.75-2.19C45.46,30.65,44.87,31.29,44.58,32.26Z"></path>
      <path class="cls-1" d="M58.76,19.48s-9.85,10-5,15.33,12.13.46,9.43-6.65C60.73,21.78,58.76,19.48,58.76,19.48Z"></path>
      <path class="cls-2" d="M55.5,28.82c.34-1,1.11-3.37,1.41-4.22a23.46,23.46,0,0,1,1.34-2.75s.94-1.8-1.45.79S52.91,30,53.64,30.28C54.22,30.5,55.17,29.83,55.5,28.82Z"></path>
      <path class="cls-3" d="M61,32.26c-.29,1-.16,1.87.3,2a1.77,1.77,0,0,0,1.79-1.33,1.83,1.83,0,0,0-.74-2.19C61.89,30.65,61.29,31.29,61,32.26Z"></path>
      <path class="cls-1" d="M51.41,0s-9.85,10-5,15.32,12.13.47,9.43-6.64C53.38,2.3,51.41,0,51.41,0Z"></path>
      <path class="cls-2" d="M48.15,9.34c.35-1,1.11-3.37,1.41-4.22A23.46,23.46,0,0,1,50.9,2.37s.94-1.81-1.45.79-3.89,7.36-3.16,7.64S47.82,10.35,48.15,9.34Z"></path>
      <path class="cls-3" d="M53.66,12.78c-.29,1-.15,1.87.3,2a1.79,1.79,0,0,0,1.79-1.33,1.83,1.83,0,0,0-.74-2.2C54.54,11.16,54,11.81,53.66,12.78Z"></path>
      <path class="cls-4" d="M49.08,161.13s8.18,9.61,14.5,10S91.5,164.7,91.5,164.7l2.17-22.48L49.08,126.49Z"></path>
      <path class="cls-4" d="M0,140.62,4.45,170s15.8,2.37,18.57,1.58S38.43,166,42,166s7.1-4.87,7.1-4.87V126.49Z"></path>
      <polygon class="cls-5" points="6.57 197.4 49.08 217.41 88.39 197.5 47.52 180.18 6.57 197.4"></polygon>
      <path class="cls-6" d="M6.57,197.4,4.45,170s20.15-.39,25.68-3.16,19-5.66,19-5.66l-1.56,19.05Z"></path>
      <path class="cls-7" d="M35.29,171.66a7.09,7.09,0,0,0-2.41-1.42v0s-3.22-1-5,1.2-1.45,4.5-.66,4.88a10.3,10.3,0,0,0,1.39.29s.05,0,.08,0a24.59,24.59,0,0,0,3-.67,1.74,1.74,0,0,0,.52-.14l.55-.16c1.26-.39,1.41-.11,2.29-.86a3.39,3.39,0,0,0,.92-2.17,2,2,0,0,0-.18-.43h0l0,0A.81.81,0,0,0,35.29,171.66Z"></path>
      <path class="cls-7" d="M18,174.49a9.3,9.3,0,0,0-3.42,1.12v0s-3.66,2.29-3.06,5.82,3.11,5.22,4.15,4.77a13.53,13.53,0,0,0,1.46-1.1s0-.08,0-.11c.78-.89,1.35-2.69,1.88-3.45a1.87,1.87,0,0,0,.3-.61c.09-.17.18-.36.32-.67.68-1.54,1.09-1.46,1.1-2.94a4.35,4.35,0,0,0-1.31-2.73,4,4,0,0,0-.56-.19v0h-.06A1.07,1.07,0,0,0,18,174.49Z"></path>
      <path class="cls-8" d="M49.08,161.13l-1.56,19.05L88.4,197.5l3.1-32.8s-12.75-1.47-18.28-.68-15.17,3.16-18.07,1.58A38.49,38.49,0,0,1,49.08,161.13Z"></path>
      <path class="cls-7" d="M33.5,180.7a2.86,2.86,0,0,0-1.06-.27h0a1.94,1.94,0,0,0-1.73,1c-.42,1,0,1.85.3,1.91a4.61,4.61,0,0,0,.55-.05s0,0,0,0c.34-.11.78-.48,1-.59a.5.5,0,0,0,.18-.11l.19-.12c.43-.29.52-.2.76-.58a1.34,1.34,0,0,0,.1-.92.92.92,0,0,0-.11-.14h0A.3.3,0,0,0,33.5,180.7Z"></path>
      <path class="cls-7" d="M73.56,172.5a2,2,0,0,0-.1-.76h0s-.33-.86-1.08-.88-1.22.43-1.17.67a2.67,2.67,0,0,0,.17.34l0,0a5.78,5.78,0,0,0,.64.53.39.39,0,0,0,.11.09l.13.09c.29.21.26.29.56.35a.92.92,0,0,0,.63-.15l.06-.11h0A.23.23,0,0,0,73.56,172.5Z"></path>
      <path class="cls-7" d="M85,186.26A9.31,9.31,0,0,0,83.35,183h0s-2.82-3.32-6.26-2.21-4.75,3.86-4.16,4.83a12.36,12.36,0,0,0,1.31,1.3s.08,0,.11,0c1,.65,2.88,1,3.72,1.37a1.9,1.9,0,0,0,.65.22l.72.21c1.64.47,1.61.89,3.09.68a4.39,4.39,0,0,0,2.54-1.7,3.29,3.29,0,0,0,.11-.59h0l0-.06A1.05,1.05,0,0,0,85,186.26Z"></path>
      <path class="cls-7" d="M62.76,175a7.18,7.18,0,0,0-1.59,2.29h0s-1.2,3.11.82,5,4.34,1.77,4.78,1a9.21,9.21,0,0,0,.39-1.35s0,0,0-.08a25.49,25.49,0,0,0-.45-3,1.29,1.29,0,0,0-.1-.52,5.33,5.33,0,0,0-.11-.56c-.3-1.28,0-1.41-.69-2.33a3.36,3.36,0,0,0-2.08-1.08,2.11,2.11,0,0,0-.43.14h0l0,0A.78.78,0,0,0,62.76,175Z"></path>
      <path class="cls-9" d="M62.91,198.25a1.36,1.36,0,0,0,1.34-.35c.46-.59.36-1.22.14-1.32l-.37-.07c-.25,0-.27.59-.28.6Z"></path>
      <path class="cls-10" d="M62.11,197.76s.75.67,1.06.47.67-.39.67-.39v-.21s-.67-.32-.82-.27-.42.15-.48.16A3,3,0,0,0,62.11,197.76Z"></path>
      <path class="cls-11" d="M62.07,197.64c0,.09.1.31.33.23a4.35,4.35,0,0,0,.45-.19s.22-.7.28-.82.12-.16-.22-.05-.38,0-.61.25A.86.86,0,0,0,62.07,197.64Z"></path>
      <path class="cls-12" d="M62.85,197.68a5.91,5.91,0,0,0,.11-.59c0-.27,0-.33.24-.37s.71-.28.94-.19.22.07.22.38a1.08,1.08,0,0,1-.33.74.61.61,0,0,1-.64.27A1.44,1.44,0,0,1,62.85,197.68Z"></path>
      <path class="cls-9" d="M53.83,193a3,3,0,0,0,2.76-1.42c.72-1.52.21-2.86-.31-3a6.59,6.59,0,0,0-.86,0c-.56,0-.31,1.42-.33,1.45S53.83,193,53.83,193Z"></path>
      <path class="cls-10" d="M51.83,192.34s2,1.12,2.54.53,1.3-1.2,1.3-1.2l-.13-.44a6.16,6.16,0,0,0-1.93-.21c-.31.17-.85.53-1,.59A7.5,7.5,0,0,0,51.83,192.34Z"></path>
      <path class="cls-11" d="M51.67,192.11a.58.58,0,0,0,.84.34,7.34,7.34,0,0,0,.89-.64s.16-1.64.22-1.94.19-.42-.49,0-.82.27-1.23.84A2.07,2.07,0,0,0,51.67,192.11Z"></path>
      <path class="cls-12" d="M53.4,191.81a8.69,8.69,0,0,0,0-1.35c-.08-.59-.13-.74.36-.92s1.43-1,2-.87.51.05.66.71a2.45,2.45,0,0,1-.36,1.79,1.36,1.36,0,0,1-1.28.91A3.59,3.59,0,0,1,53.4,191.81Z"></path>
      <path class="cls-9" d="M45.35,199.65a3,3,0,0,0,3,.37c1.43-.84,1.74-2.2,1.38-2.57A4.43,4.43,0,0,0,49,197c-.47-.28-1,1-1.06,1S45.35,199.65,45.35,199.65Z"></path>
      <path class="cls-10" d="M44.12,198s1,2,1.77,1.82a16.6,16.6,0,0,1,1.71-.25l.13-.44s-1.1-1.19-1.45-1.22-1,0-1.12-.07A8.91,8.91,0,0,0,44.12,198Z"></path>
      <path class="cls-11" d="M44.12,197.71c0,.2,0,.71.49.74a8.37,8.37,0,0,0,1.08,0s1-1.25,1.24-1.46.38-.23-.4-.27-.81-.24-1.45,0A2,2,0,0,0,44.12,197.71Z"></path>
      <path class="cls-12" d="M45.69,198.43a9.42,9.42,0,0,0,.7-1.12c.26-.52.3-.67.79-.55s1.69,0,2.08.37.38.33.14.94a2.4,2.4,0,0,1-1.26,1.25,1.33,1.33,0,0,1-1.55,0A3.29,3.29,0,0,1,45.69,198.43Z"></path>
      <path class="cls-9" d="M41.7,194.18a2.27,2.27,0,0,0,.08-2.33c-.73-1-1.79-1.18-2.05-.88a4.24,4.24,0,0,0-.29.57c-.19.38.81.73.82.75Z"></path>
      <path class="cls-10" d="M40.52,195.23s1.44-.88,1.27-1.47-.31-1.29-.31-1.29l-.34-.07s-.83.92-.83,1.18,0,.74,0,.86A6.16,6.16,0,0,0,40.52,195.23Z"></path>
      <path class="cls-11" d="M40.31,195.25c.15,0,.54,0,.53-.43a7.87,7.87,0,0,0-.09-.82s-1-.7-1.19-.85-.21-.27-.19.32-.12.63.1,1.11A1.58,1.58,0,0,0,40.31,195.25Z"></path>
      <path class="cls-12" d="M40.75,194a6.91,6.91,0,0,0-.9-.46c-.42-.17-.54-.18-.48-.57s-.1-1.28.15-1.61.23-.31.71-.17a1.83,1.83,0,0,1,1,.88,1,1,0,0,1,.12,1.18A2.53,2.53,0,0,1,40.75,194Z"></path>
      <path class="cls-9" d="M34.5,195.89a1,1,0,0,0,.33-.95c-.17-.52-.59-.72-.74-.63a1.25,1.25,0,0,0-.19.2c-.13.13.24.4.24.41S34.5,195.89,34.5,195.89Z"></path>
      <path class="cls-10" d="M33.87,196.17s.71-.18.72-.45,0-.57,0-.57l-.13-.07s-.46.27-.49.38a3.56,3.56,0,0,0-.1.36A2.6,2.6,0,0,0,33.87,196.17Z"></path>
      <path class="cls-11" d="M33.78,196.15c.07,0,.23.06.28-.11a3.4,3.4,0,0,0,.06-.35s-.33-.42-.38-.5-.05-.14-.12.11-.13.24-.1.47A.71.71,0,0,0,33.78,196.15Z"></path>
      <path class="cls-12" d="M34.12,195.69a3.06,3.06,0,0,0-.31-.3c-.15-.13-.2-.15-.12-.3s.12-.55.27-.65.13-.1.31,0a.84.84,0,0,1,.32.5.44.44,0,0,1-.1.5A1,1,0,0,1,34.12,195.69Z"></path>
      <path class="cls-9" d="M32.29,199.86s1.39-2.24.11-4-3.11-2-3.56-1.5a8.7,8.7,0,0,0-.51,1c-.31.65,1.42,1.24,1.44,1.28S32.29,199.86,32.29,199.86Z"></path>
      <path class="cls-10" d="M30.25,201.69s2.49-1.52,2.18-2.56a22.58,22.58,0,0,1-.54-2.22l-.59-.12s-1.43,1.6-1.44,2.05.07,1.29.05,1.49A11.15,11.15,0,0,0,30.25,201.69Z"></path>
      <path class="cls-11" d="M29.88,201.73c.27,0,.94,0,.92-.75a10.49,10.49,0,0,0-.17-1.41s-1.77-1.2-2.07-1.46-.35-.48-.31.56-.21,1.09.18,1.91A2.67,2.67,0,0,0,29.88,201.73Z"></path>
      <path class="cls-12" d="M30.63,199.57a12.05,12.05,0,0,0-1.56-.79c-.72-.28-.93-.31-.83-1s-.19-2.22.25-2.79.38-.55,1.22-.3a3.13,3.13,0,0,1,1.8,1.52,1.76,1.76,0,0,1,.24,2A4.52,4.52,0,0,1,30.63,199.57Z"></path>
      <path class="cls-13" d="M47.46,155.47l1.82,0c.79,1.33,1.57,2.66,2.37,4a6.7,6.7,0,0,0,3.51,2.91c.38.15.77.26,1.14.41a.25.25,0,0,1,.1.21c-.08.1-.21.26-.3.25a7,7,0,0,1-5.16-3.33c-.43-.66-.6-1.5-1.35-2a9.93,9.93,0,0,0,.27,5.55q1.55,4.77,3.07,9.56a4.91,4.91,0,0,1,.2.94c0,.09-.16.21-.27.28s-.17,0-.2-.1c-.14-.29-.26-.58-.38-.88A25.79,25.79,0,0,0,50,168.41c-.22.63-.39,1-.5,1.46-.59,2.2-1.14,4.42-1.75,6.62a5.1,5.1,0,0,1-.65,1.07,3,3,0,0,1,.13-2.52,28.45,28.45,0,0,0,1.25-6.73,12.8,12.8,0,0,0-.34-4.13,16.24,16.24,0,0,1-.34-2.38c-.82.06-1.15.71-1.61,1.12s-.86,1-1.33,1.43c-.11.12-.38.11-.58.1a.65.65,0,0,1-.06-.44,10.26,10.26,0,0,1,1-1.61c.6-.67,1.3-1.24,1.92-1.89.13-.13.08-.42.12-.64a2.36,2.36,0,0,0-.62.11c-1.37.74-2.71,1.52-4.09,2.22a9.16,9.16,0,0,0-3.91,3,2.53,2.53,0,0,1,.12-.88,5.78,5.78,0,0,1,2.5-2.27c1.3-.7,2.57-1.44,3.87-2.12a3.62,3.62,0,0,0,2.24-4A1.65,1.65,0,0,1,47.46,155.47Z"></path>
      <polygon class="cls-14" points="0 140.62 49.08 161.13 93.67 142.22 49.08 126.49 0 140.62"></polygon>
      <path class="cls-15" d="M63.14,184.79v5c0,3.25-6.4,5.89-14.29,5.89S34.57,193,34.57,189.74v-5"></path>
      <ellipse class="cls-15" cx="48.85" cy="184.79" rx="14.29" ry="5.89"></ellipse>
      <path class="cls-16" d="M51.91,179.4a57.9,57.9,0,0,0-6.63,10.9s-.47-.84-1.21-.77a31.86,31.86,0,0,1,7.06-10.34Z"></path>
      <path class="cls-17" d="M45.28,190.3a56.45,56.45,0,0,1,6.63-10.9,4.78,4.78,0,0,1,1.1-.21A69.66,69.66,0,0,0,46.71,190,3.46,3.46,0,0,0,45.28,190.3Z"></path>
      <path class="cls-17" d="M40,188.19s-5.92-2.76-2.42-5.28,9.7-2.68,9.7-2.68S36.53,182.48,40,188.19Z"></path>
      <path class="cls-17" d="M35.92,188.81v1.4s2,2.66,8.35,3.75V192A18.52,18.52,0,0,1,35.92,188.81Z"></path>
      <line class="cls-18" x1="91.95" y1="140.21" x2="96.61" y2="140.21"></line>
      <line class="cls-19" x1="102.94" y1="140.21" x2="112.43" y2="140.21"></line>
      <line class="cls-18" x1="115.6" y1="140.21" x2="120.26" y2="140.21"></line>
      <line class="cls-18" x1="89.32" y1="189.74" x2="93.98" y2="189.74"></line>
      <line class="cls-20" x1="101.19" y1="189.74" x2="112" y2="189.74"></line>
      <line class="cls-18" x1="115.6" y1="189.74" x2="120.26" y2="189.74"></line>
      <text class="cls-21" transform="translate(98.09 175.53)">1<tspan class="cls-22" x="18.47" y="0">см</tspan></text>
      <path class="cls-9" d="M46.09,149a1.36,1.36,0,0,0-1.3-.48c-.72.22-1,.8-.88,1a2.23,2.23,0,0,0,.27.28c.18.17.56-.33.57-.33Z"></path>
      <path class="cls-10" d="M46.47,149.9s-.22-1-.6-1-.78-.06-.78-.06L45,149s.37.65.52.7l.49.15A3.08,3.08,0,0,0,46.47,149.9Z"></path>
      <path class="cls-11" d="M46.44,150c0-.08.09-.31-.14-.38a3.5,3.5,0,0,0-.48-.1s-.59.45-.71.52-.19.06.15.16.34.19.65.15A.9.9,0,0,0,46.44,150Z"></path>
      <path class="cls-12" d="M45.82,149.54a4.44,4.44,0,0,0-.43.42c-.18.21-.21.27-.42.17s-.74-.18-.88-.39-.14-.18,0-.43a1.09,1.09,0,0,1,.69-.43.61.61,0,0,1,.69.15A1.66,1.66,0,0,1,45.82,149.54Z"></path>
      <path class="cls-9" d="M43.13,132.32a2,2,0,0,0-2-.29c-1,.54-1.2,1.44-1,1.7a3.83,3.83,0,0,0,.47.31c.31.2.71-.64.73-.64Z"></path>
      <path class="cls-10" d="M43.94,133.45s-.63-1.35-1.17-1.25-1.15.15-1.15.15l-.09.28s.72.82.95.85.65,0,.75.06A5.22,5.22,0,0,0,43.94,133.45Z"></path>
      <path class="cls-11" d="M43.93,133.63c0-.13,0-.47-.32-.5a5,5,0,0,0-.72,0s-.71.83-.85,1-.26.15.26.19.54.17,1,0A1.31,1.31,0,0,0,43.93,133.63Z"></path>
      <path class="cls-12" d="M42.89,133.13a6.26,6.26,0,0,0-.49.74c-.18.35-.21.45-.54.36s-1.13,0-1.39-.28-.25-.22-.08-.63a1.56,1.56,0,0,1,.87-.82.86.86,0,0,1,1,0A2.15,2.15,0,0,1,42.89,133.13Z"></path>
      <path class="cls-9" d="M39.14,138.45s-4.17-2.08-7.08.46S29,144.7,30,145.4a13.09,13.09,0,0,0,1.82.73c1.2.44,2-2.68,2-2.73S39.14,138.45,39.14,138.45Z"></path>
      <path class="cls-10" d="M42.69,141.73s-3.09-4.13-4.85-3.41A40.11,40.11,0,0,1,34,139.63l-.12,1.05s3,2.26,3.84,2.19,2.25-.33,2.6-.33A18.69,18.69,0,0,0,42.69,141.73Z"></path>
      <path class="cls-11" d="M42.81,142.36c0-.46-.21-1.64-1.46-1.48a17.07,17.07,0,0,0-2.45.53s-1.82,3.3-2.22,3.87-.78.69,1,.46,1.95.18,3.32-.64A4.71,4.71,0,0,0,42.81,142.36Z"></path>
      <path class="cls-12" d="M38.9,141.41a21.75,21.75,0,0,0-1.14,2.87c-.37,1.31-.39,1.67-1.58,1.61s-3.87.7-4.93,0-1-.57-.73-2.09,1-2.24,2.37-3.42a3.11,3.11,0,0,1,3.52-.74A8,8,0,0,1,38.9,141.41Z"></path>
      <path class="cls-9" d="M53.53,139.32s-3.49-2-6.17,0-3,4.85-2.18,5.52a12.57,12.57,0,0,0,1.54.74c1,.46,1.85-2.21,1.92-2.25S53.53,139.32,53.53,139.32Z"></path>
      <path class="cls-10" d="M56.41,142.39s-2.43-3.78-4-3.26S49,140,49,140l-.17.9s2.51,2.15,3.21,2.14,2-.16,2.28-.14A15.73,15.73,0,0,0,56.41,142.39Z"></path>
      <path class="cls-11" d="M56.48,142.94c0-.4-.09-1.44-1.18-1.37a15.08,15.08,0,0,0-2.16.3s-1.78,2.76-2.16,3.23-.72.56.87.46,1.68.28,2.92-.35A4.1,4.1,0,0,0,56.48,142.94Z"></path>
      <path class="cls-12" d="M53.14,141.87A19.16,19.16,0,0,0,52,144.3c-.4,1.11-.44,1.43-1.47,1.3s-3.4.38-4.28-.27-.85-.57-.5-1.87A4.83,4.83,0,0,1,48,140.64a2.71,2.71,0,0,1,3.11-.43A6.92,6.92,0,0,1,53.14,141.87Z"></path>
      <path class="cls-9" d="M62.77,135.63s-3.44-2.65-6.57-.85-3.84,4.76-3.05,5.58a12.22,12.22,0,0,0,1.54,1c1,.62,2.26-2.11,2.34-2.14S62.77,135.63,62.77,135.63Z"></path>
      <path class="cls-10" d="M65.43,139.29s-2.08-4.35-3.83-4-3.73.52-3.73.52l-.3.94s2.38,2.62,3.13,2.7,2.12.1,2.45.16A17.05,17.05,0,0,0,65.43,139.29Z"></path>
      <path class="cls-11" d="M65.43,139.88c0-.42.1-1.54-1.07-1.61a16.54,16.54,0,0,0-2.34,0s-2.27,2.71-2.74,3.15-.84.5.86.61,1.76.52,3.17,0A4.39,4.39,0,0,0,65.43,139.88Z"></path>
      <path class="cls-12" d="M62,138.3a20.29,20.29,0,0,0-1.56,2.43c-.58,1.13-.66,1.46-1.74,1.19s-3.68,0-4.53-.87-.83-.71-.28-2.05,1.31-1.87,2.78-2.7a2.87,2.87,0,0,1,3.36,0A7.44,7.44,0,0,1,62,138.3Z"></path>
      <path class="cls-9" d="M65.44,146.76a2.08,2.08,0,0,0,1.91-.94c.51-1,.18-2-.18-2a4,4,0,0,0-.59,0c-.39,0-.23,1-.25,1S65.44,146.76,65.44,146.76Z"></path>
      <path class="cls-10" d="M64.07,146.26s1.34.79,1.74.39.91-.81.91-.81l-.09-.3a4,4,0,0,0-1.32-.16c-.21.11-.58.35-.68.39A5.12,5.12,0,0,0,64.07,146.26Z"></path>
      <path class="cls-11" d="M64,146.1c.06.12.24.43.57.24a5.76,5.76,0,0,0,.62-.42s.12-1.13.17-1.34.14-.28-.34,0-.56.17-.85.56A1.4,1.4,0,0,0,64,146.1Z"></path>
      <path class="cls-12" d="M65.16,145.92a7.24,7.24,0,0,0,0-.93c-.05-.41-.09-.51.25-.63s1-.65,1.37-.58.34,0,.44.5A1.7,1.7,0,0,1,67,145.5a.94.94,0,0,1-.9.61A2.33,2.33,0,0,1,65.16,145.92Z"></path>
      <path class="cls-9" d="M32.66,147.5a2.66,2.66,0,0,0,2.52-1c.74-1.28.4-2.48,0-2.61a4.12,4.12,0,0,0-.75,0c-.49,0-.38,1.21-.4,1.23S32.66,147.5,32.66,147.5Z"></path>
      <path class="cls-10" d="M31,146.75s1.63,1.12,2.18.64a14.76,14.76,0,0,1,1.23-.94l-.09-.4a5.25,5.25,0,0,0-1.67-.32c-.28.12-.77.39-.9.44A6.2,6.2,0,0,0,31,146.75Z"></path>
      <path class="cls-11" d="M30.85,146.53c.07.16.28.57.71.36a7.08,7.08,0,0,0,.83-.49s.25-1.43.33-1.68.2-.35-.43,0-.73.17-1.13.64A1.77,1.77,0,0,0,30.85,146.53Z"></path>
      <path class="cls-12" d="M32.39,146.4a9,9,0,0,0,.06-1.18c0-.53-.06-.66.38-.78s1.31-.73,1.78-.62.45.09.52.68a2.09,2.09,0,0,1-.44,1.53,1.2,1.2,0,0,1-1.19.7A3,3,0,0,1,32.39,146.4Z"></path>
      <path class="cls-9" d="M44.19,140.93a1.55,1.55,0,0,0,1.55.27c.77-.4,1-1.1.79-1.3a2.62,2.62,0,0,0-.36-.26c-.24-.15-.56.48-.58.49Z"></path>
      <path class="cls-10" d="M43.59,140s.45,1.05.87,1,.9-.08.9-.08l.08-.23s-.54-.64-.72-.67-.5,0-.58-.06A3.71,3.71,0,0,0,43.59,140Z"></path>
      <path class="cls-11" d="M43.6,139.89a.29.29,0,0,0,.24.39,4.33,4.33,0,0,0,.55,0s.57-.62.69-.72.2-.11-.2-.16-.41-.14-.75,0A1,1,0,0,0,43.6,139.89Z"></path>
      <path class="cls-12" d="M44.39,140.3a4.86,4.86,0,0,0,.4-.56c.15-.27.17-.35.43-.27s.87.05,1.07.25.19.18,0,.49-.33.43-.69.62a.68.68,0,0,1-.8,0A1.77,1.77,0,0,1,44.39,140.3Z"></path>
      <path class="cls-9" d="M58.2,146.84s3.91,1,5.88-1.74,1.45-5.47.48-5.87a11.58,11.58,0,0,0-1.68-.27c-1.1-.14-1.12,2.64-1.17,2.69S58.2,146.84,58.2,146.84Z"></path>
      <path class="cls-10" d="M54.58,144.76s3.4,2.89,4.74,1.94,3-1.84,3-1.84l-.1-.9s-3-1.32-3.66-1.11-1.83.71-2.13.78A15.11,15.11,0,0,0,54.58,144.76Z"></path>
      <path class="cls-11" d="M54.35,144.25c.13.38.5,1.35,1.51,1a16.32,16.32,0,0,0,2-.91s.9-3.14,1.13-3.7.52-.73-1-.18-1.68.21-2.68,1.17A4.08,4.08,0,0,0,54.35,144.25Z"></path>
      <path class="cls-12" d="M57.83,144.31a19.27,19.27,0,0,0,.41-2.64c.06-1.18,0-1.49,1-1.66s3.13-1.34,4.16-1,1,.29,1,1.63A4.76,4.76,0,0,1,63.09,144a2.69,2.69,0,0,1-2.83,1.31A7,7,0,0,1,57.83,144.31Z"></path>
      <path class="cls-9" d="M40.17,144.58s2.35,1.32,4.1-.06,1.93-3.26,1.37-3.69a7.47,7.47,0,0,0-1-.47c-.68-.3-1.2,1.49-1.24,1.51S40.17,144.58,40.17,144.58Z"></path>
      <path class="cls-10" d="M38.21,142.59s1.67,2.47,2.71,2.11a23.29,23.29,0,0,1,2.24-.65l.1-.61s-1.7-1.39-2.16-1.37-1.31.13-1.51.12A10,10,0,0,0,38.21,142.59Z"></path>
      <path class="cls-11" d="M38.16,142.22c0,.27.08.95.8.9a10.08,10.08,0,0,0,1.43-.24s1.15-1.86,1.4-2.17.47-.38-.58-.29-1.13-.17-1.94.27A2.71,2.71,0,0,0,38.16,142.22Z"></path>
      <path class="cls-12" d="M40.39,142.88a11.81,11.81,0,0,0,.74-1.62c.26-.75.28-1,1-.89s2.26-.3,2.85.13.58.36.36,1.23a3.17,3.17,0,0,1-1.46,1.9,1.79,1.79,0,0,1-2.06.33A4.65,4.65,0,0,1,40.39,142.88Z"></path>
      <path class="cls-23" d="M57.32,92.83c4.06-5.79-.56-4.69-.56-4.69s-.38-6-1.3-5.76-1.3,5.78-1.3,5.78C50.48,87.67,51,91.67,51.54,93a2.42,2.42,0,0,1,.11,2,2.71,2.71,0,0,0-1.09.24,1.19,1.19,0,0,1-1.17.82,1.27,1.27,0,0,1-.76-.24c-.16.1-.43,0-.77-.53-.71-1-1.57-2.07-1.94-1.75s.36,1.25.14,2.26-.89.87-2.43-1.63-4.76-2.77-4.83-1-1.22.65-1.22.65c-5.09-4.26-5.74-1.22-5.64-.43s0,0-3.38-.08-2.26,1-.94.91,9.88,1.6,8.61,2.2-.73,2.1,1.26,2.33,5,.54,4.25.88a2.74,2.74,0,0,0-1,2.92c.2,1.38,2.31-.09,4.28-.25s3.57,3.22,5,3.76c.5-1.14,1.67-4.83,1.67-4.83l1.39-1c3.51-2.06,5.18-5,4.47-6.1S57.32,92.83,57.32,92.83Z"></path>
      <path class="cls-23" d="M52.73,109.15c.3-.5.23-2.09,2.34-3.48s1.61-4.44,4-2.31c0,0,2.17-1.56,2.27-2.48s1.21-.35.87.72.88,1.9-1.9,4.86c0,0-.28.25.26.7s0,1.34-1.52,1.67-7.46,2.19-8.77,6Z"></path>
      <path class="cls-23" d="M49.81,109.26a7.3,7.3,0,0,0-6.35-2.09c-3.94.64-2.07,2.09-2.07,2.09s-5.69,2.36-2.28,9c0,0,.86.95,1.13-.36s-.05-1.59.5-2.77,1.36-3,1.77-2.77.91,1.91,1.72.23S47.23,108.53,49.81,109.26Z"></path>
      <path class="cls-23" d="M45,135.92c0,2.43,1.88-5.29,4.13-3.89,0,0-.37-3.17-3.17-2.86a2.3,2.3,0,0,0-2.06,2C43.8,132.15,45,133.44,45,135.92Z"></path>
      <path class="cls-23" d="M56.63,121c.09-.07.06-.33.1-.44.35-1,1.5-5.32,2.62-6.27s1.39-2.08,1.86-.18c.07.27-.1.49-.22.74,0,0,.24-.15,1.14-.74,1.95-1.29,4.84-3.4,4.38-1.75s-1.05,1.52,0,1.52a34.27,34.27,0,0,1,4.4-.28c1.25.19,2.58.74-.59,1.1-2.59.3-1.5.51-1,.58a.81.81,0,0,1,.39.17c.33.29.74.88-1.53.81-3-.09-2.16,0-2,.23s1,2.07-1.1,1.7a7.19,7.19,0,0,0-3.44.1c-.19,0,2.89,1.24.48,1.56s-3.47,1.24-4.8,1.14C56.73,120.9,56.55,121,56.63,121Z"></path>
      <path class="cls-23" d="M54.48,123.69c2.86-.29,11-.3,4,10.38a.12.12,0,0,1-.22,0,24.59,24.59,0,0,1-.38-2.79c-.07-1.21-1.54,1-.57-3a.12.12,0,0,0-.11-.15c-.45-.05-1.81-.41-1-3.2a.12.12,0,0,0,0-.15,8.08,8.08,0,0,0-1.75-.77A.12.12,0,0,1,54.48,123.69Z"></path>
      <path class="cls-23" d="M54.59,123.81a17.62,17.62,0,0,0,1.63-5,40.27,40.27,0,0,0-.39-5.88c-.1-.64-1.24,1.23-1.24,3.39s.84,2.4,0,2.15-1.33-.57-1.73.61S54.59,123.81,54.59,123.81Z"></path>
      <path class="cls-24" d="M57.88,119.71c-4,4.23-8.13,8.78-9.22,14.48"></path>
      <path class="cls-23" d="M43.92,122s-11.53-5.4-11,8.48c0,0,.91,1.74,2.37-3.66,0,0-.45-.26,1.29-.39S40.53,120.68,43.92,122Z"></path>
      <path class="cls-25" d="M40.83,121.65c4.75-.38,6,3.29,8.25,3.32"></path>
      <path class="cls-26" d="M49.49,98.68c.77,19.5.65,10.31-.41,29.81-.55,10,.36.34-.19,10.32"></path>
    </g>
  </g>
</svg>
