<?xml version="1.0" encoding="UTF-8"?>
<svg xmlns="http://www.w3.org/2000/svg" viewBox="0 0 145.5 194.57">
  <defs>
    <style>.cls-1{fill:#a5a5a5;}.cls-2{fill:#a29274;}.cls-3{fill:#e3e0c9;}.cls-4{fill:#fcedce;}.cls-5{fill:#bda885;}.cls-6{fill:#d0c5a6;}.cls-7{fill:#8f8267;}.cls-8{fill:#ab967a;opacity:0.25;}.cls-9{fill:#9b8d71;}.cls-10{fill:#7c705b;}.cls-11{fill:#e7e6e3;}.cls-12{fill:#745831;}.cls-13{fill:#917448;}.cls-14{fill:#554020;}.cls-15{fill:#817870;}.cls-16{fill:#a5c32f;}.cls-17{fill:#7fb843;}</style>
  </defs>
  <g id="Слой_2" data-name="Слой 2">
    <g id="Слой_1-2" data-name="Слой 1">
      <polygon class="cls-1" points="125.67 176.42 125.74 176.29 125.62 176.29 125.67 176.42"></polygon>
      <polygon class="cls-2" points="72.85 98.85 145.5 67.93 134.6 151.57 72.85 194.57 72.85 98.85"></polygon>
      <polygon class="cls-3" points="72.85 47.01 145.5 67.93 72.85 98.85 0 67.93 72.85 47.01"></polygon>
      <polygon class="cls-4" points="72.85 47.01 0 67.93 1.28 68.47 144.82 67.73 72.85 47.01"></polygon>
      <polygon class="cls-5" points="10.9 151.57 0 67.93 72.85 98.85 72.85 194.57 10.9 151.57"></polygon>
      <path class="cls-6" d="M45.79,69a39.56,39.56,0,0,1,3.44-3.67,31.63,31.63,0,0,1,4-3.11,38.7,38.7,0,0,1,9.13-4.42c1.61-.53,3.24-1,4.89-1.33a48.7,48.7,0,0,1,15.07-.71c-3.35.21-6.65.57-9.91,1.1a61.17,61.17,0,0,0-9.58,2.35,49.44,49.44,0,0,0-9,4A50.74,50.74,0,0,0,45.79,69Z"></path>
      <polygon class="cls-7" points="72.85 98.85 145.5 67.93 134.6 151.57 72.85 194.57 72.85 98.85"></polygon>
      <polygon class="cls-8" points="10.9 151.57 0 67.93 72.85 98.85 72.85 194.57 10.9 151.57"></polygon>
      <polygon class="cls-9" points="72.85 194.57 10.9 151.57 73.14 128.05 134.6 151.57 72.85 194.57"></polygon>
      <path class="cls-10" d="M24.06,114.8A13.41,13.41,0,0,1,23,111.92a23.93,23.93,0,0,1-.67-3,22.41,22.41,0,0,1-.11-6.23,19.81,19.81,0,0,1,1.75-6,20.15,20.15,0,0,1,3.63-5.18,27,27,0,0,1,10.69-6.38,45.81,45.81,0,0,1,12.12-2.15,68.17,68.17,0,0,0-11.72,3.25,28.65,28.65,0,0,0-10,6.32,19.48,19.48,0,0,0-5.3,10.36,24.39,24.39,0,0,0-.32,6A23.12,23.12,0,0,0,24.06,114.8Z"></path>
      <path class="cls-10" d="M91.76,113.65c.19.3.6.41.92.58l1,.43c.69.26,1.4.5,2.12.73,1.41.47,2.85.88,4.29,1.28,2.88.79,5.78,1.49,8.7,2.07,5.85,1.2,11.77,2,17.76,2.66a65.19,65.19,0,0,1-18-1.21,64.5,64.5,0,0,1-8.76-2.41c-1.43-.51-2.84-1.08-4.21-1.72-.69-.33-1.36-.68-2-1-.33-.19-.66-.38-1-.59l-.46-.34C92,114,91.78,113.84,91.76,113.65Z"></path>
      <path class="cls-10" d="M52.74,109.28a45.94,45.94,0,0,1-1.78,8.2,57.23,57.23,0,0,1-3,7.86,45.85,45.85,0,0,1-4.38,7.22,27.24,27.24,0,0,1-6,5.85,49.34,49.34,0,0,0,5.09-6.52,73.19,73.19,0,0,0,4-7.2c1.2-2.48,2.26-5,3.29-7.59S51.83,111.93,52.74,109.28Z"></path>
      <path class="cls-10" d="M75.27,175.85c3-1.45,6-2.6,9-3.89s6-2.62,8.83-4.13c1.44-.74,2.85-1.54,4.23-2.38a43.25,43.25,0,0,0,4-2.73,23.27,23.27,0,0,0,6.46-7.14,18.91,18.91,0,0,1-5.72,8,41.89,41.89,0,0,1-8.27,5.53,71.32,71.32,0,0,1-9.1,3.89c-1.56.54-3.13,1-4.71,1.49S76.84,175.39,75.27,175.85Z"></path>
      <path class="cls-10" d="M41.2,166.67a20.24,20.24,0,0,1-4.71-3,11.22,11.22,0,0,1-3.41-4.59,6.67,6.67,0,0,1-.42-3,6.81,6.81,0,0,1,.31-1.49,7.44,7.44,0,0,1,.59-1.39A13.81,13.81,0,0,1,37.5,149a38.13,38.13,0,0,1,10.06-5,77.21,77.21,0,0,1,10.75-2.8c-3.48,1.26-7,2.5-10.34,3.89a46,46,0,0,0-9.58,5.1,12.67,12.67,0,0,0-3.6,3.74,5.53,5.53,0,0,0-.53,1.13,4.59,4.59,0,0,0-.3,1.2,5.94,5.94,0,0,0,.21,2.47,8.87,8.87,0,0,0,1.13,2.34A13.45,13.45,0,0,0,37,163.16,24.14,24.14,0,0,0,41.2,166.67Z"></path>
      <path class="cls-10" d="M107.81,112l5.42-7.45c1.77-2.5,3.53-5,5.17-7.56A81.47,81.47,0,0,0,123,89.07a37.38,37.38,0,0,0,1.79-4.17,17.64,17.64,0,0,0,1-4.44A19.64,19.64,0,0,1,124,89.55a52,52,0,0,1-4.38,8.2,79.3,79.3,0,0,1-5.51,7.46A69.63,69.63,0,0,1,107.81,112Z"></path>
      <polygon class="cls-1" points="70.2 146.25 70.27 146.12 70.15 146.11 70.2 146.25"></polygon>
      <path class="cls-11" d="M73.38,99.9a6,6,0,0,1,2.82.71,7.79,7.79,0,0,1,2.22,1.9A10.89,10.89,0,0,1,81,107.57l-.11,0a11.88,11.88,0,0,0-3.1-4.45c-.68-.59-1.45-1-2.16-1.56s-1.48-1-2.26-1.58Z"></path>
      <path class="cls-11" d="M72.35,104.89A7,7,0,0,1,75.08,107a8.68,8.68,0,0,1,1.48,3.15,11.25,11.25,0,0,1,0,6.77l-.11,0a11.83,11.83,0,0,0-.7-6.44,20.59,20.59,0,0,0-1.55-2.8,29.17,29.17,0,0,0-1.87-2.7Z"></path>
      <path class="cls-11" d="M64.81,120.16a5.33,5.33,0,0,1-1.27,3.26A13.48,13.48,0,0,1,61,125.71c-1.72,1.38-3.57,2.78-4.15,5l-.11,0c.25-2.35,2.07-4.14,3.66-5.66l2.31-2.35a11.27,11.27,0,0,0,2-2.54Z"></path>
      <path class="cls-11" d="M67.73,115.56A11.53,11.53,0,0,1,70.59,120a17.48,17.48,0,0,1,1,5.14,42.28,42.28,0,0,1-.66,10.31l-.12,0a48.16,48.16,0,0,0-.12-10.19,38.11,38.11,0,0,0-1.17-4.88,25.86,25.86,0,0,0-1.88-4.68Z"></path>
      <path class="cls-11" d="M66.13,117.19c1.24,2,.86,4.46.44,6.54A34.61,34.61,0,0,0,65.4,130l-.54,13h-.11c-.12-4.34-.25-8.67-.26-13a21.29,21.29,0,0,1,1-6.52c.59-2,1.13-4.11.55-6.22Z"></path>
      <path class="cls-11" d="M68.61,105.86a8.93,8.93,0,0,1-2.77,4.8,20.86,20.86,0,0,1-4.57,3.11c-3.1,1.78-6.43,3.51-8.24,6.71l-.1-.06c1.54-3.41,4.88-5.5,7.87-7.43a47.88,47.88,0,0,0,4.28-3.17,13.64,13.64,0,0,0,3.42-4Z"></path>
      <path class="cls-12" d="M69.5,107.23a51.61,51.61,0,0,1-2.29-4.9,6.15,6.15,0,0,1-.91-2.5,5.21,5.21,0,0,1,.84-2.9l.32-.07a5.16,5.16,0,0,1,2,2.24,6.2,6.2,0,0,1,.27,2.65,51.07,51.07,0,0,1,.07,5.4Z"></path>
      <path class="cls-12" d="M62.33,118c-1.53,3.24,3.3,6.09,4.83,2.82a88.51,88.51,0,0,0,7.49-27.12,11.56,11.56,0,0,1-5.16-2.11A85.49,85.49,0,0,1,62.33,118Z"></path>
      <ellipse class="cls-13" cx="64.48" cy="120.23" rx="1.63" ry="2.59" transform="translate(-70.05 142.94) rotate(-71.38)"></ellipse>
      <path class="cls-14" d="M72.45,106a61.52,61.52,0,0,1-4.8,12.7l.13.07a49.15,49.15,0,0,0,5.54-12.53A84.89,84.89,0,0,0,76,93.77q-.67,0-1.35-.12A85.79,85.79,0,0,1,72.45,106Z"></path>
      <path class="cls-13" d="M63.42,117.18s.76-.35,2.46.59c0,0,4.33-9.34,6.32-24.75a11.26,11.26,0,0,1-1.54-.73C69.48,102.79,67.14,112.59,63.42,117.18Z"></path>
      <polygon class="cls-4" points="1.28 68.47 72.85 98.85 145.5 67.93 144.82 67.73 1.28 68.47"></polygon>
      <ellipse class="cls-2" cx="75.15" cy="69.38" rx="16.78" ry="6.56"></ellipse>
      <ellipse class="cls-15" cx="75.58" cy="71.6" rx="13.83" ry="5.41"></ellipse>
      <path class="cls-16" d="M86.65,36.85A21.66,21.66,0,0,0,77.6,50.12c-.22,1,1.33,1.44,1.55.42a20,20,0,0,1,8.31-12.3c.85-.57.05-2-.81-1.39Z"></path>
      <path class="cls-12" d="M80,49.09a10.29,10.29,0,0,1-.84,5,10.19,10.19,0,0,1-3,4.13,10.07,10.07,0,0,1,.84-5A10.19,10.19,0,0,1,80,49.09Z"></path>
      <path class="cls-12" d="M74.07,21.81a5.1,5.1,0,0,1-2.47-1.7,6.83,6.83,0,0,1-1-2.57,27.82,27.82,0,0,1-1.14-5.39l.27-.09c1,1.55,1.92,3,2.89,4.51a8.55,8.55,0,0,1,1.44,2.19,6.17,6.17,0,0,1,.24,2.91Z"></path>
      <path class="cls-12" d="M79.37,3.52C79.85,0,74.45-1.53,74,2c-3.07,22.69.62,46.7-2.12,69.42A11.56,11.56,0,0,0,77,73.56C79.89,50.64,76.22,26.85,79.37,3.52Z"></path>
      <path class="cls-14" d="M78.25,50s.33.14.34.34l0-.31,0-.18a.91.91,0,0,1-.17.09C78.32,50,78.19,50,78.25,50Z"></path>
      <path class="cls-14" d="M80.74,49.62l0,0-.16.06c-.53,0-.52-.36-.51-.24a2.17,2.17,0,0,1,.09.71,3,3,0,0,0,.26-.21Z"></path>
      <path class="cls-14" d="M79,2V2l0,0Z"></path>
      <path class="cls-14" d="M79.29,58.93l-.08-3.43v-.34l.08-.2c.1-.21.24-.45.38-.69l.88-1.5a7.31,7.31,0,0,0,.71-1.71,3.1,3.1,0,0,0,.12-1,4.45,4.45,0,0,0-.17-1,.7.7,0,0,0-.77-.53c-.45.13-.38.22-.49.28l-.31.31a3.49,3.49,0,0,1-.56.47,4.47,4.47,0,0,1-.49.25l0,.18,0,.31h0c0,.15,0,.09,0,.13V50.3c0-.2-.32-.38-.34-.34s.07,0,.16-.06a.91.91,0,0,0,.17-.09c-.52-3.66-.8-7.81-1.11-11.7s-.59-8-.52-12L79.24,2V2l0,0A2.75,2.75,0,0,0,77.15.62a2.68,2.68,0,0,0-2,1.34l.12.08A2.53,2.53,0,0,1,77.15.81,2.5,2.5,0,0,1,79,2V2l0,.08,0,0L76.21,26c-.13,4.08.14,8.1.34,12.13s.41,7.77,1,11.93l.06-.16,0,.44c0-.1,0-.19,0-.28a.82.82,0,0,0,0,.38.71.71,0,0,0,.65.59,1.61,1.61,0,0,0,.66-.12,5.41,5.41,0,0,0,.87-.43,4.78,4.78,0,0,0,.5-.39,2.17,2.17,0,0,0-.09-.71c0-.12,0,.24.51.24l.16-.06h0l0,0-.3.3a3,3,0,0,1-.26.21,4.6,4.6,0,0,1-.73,2l-.88,1.44c-.15.25-.31.49-.46.79a2.41,2.41,0,0,0-.2.61v3.92a118.32,118.32,0,0,1-.77,13.57c0,.35-.1.7-.14,1.06.45.06.9.1,1.35.13.05-.35.13-.69.18-1A116.76,116.76,0,0,0,79.29,58.93Z"></path>
      <path class="cls-14" d="M77.59,49.94l-.06.16c0,.09,0,.18,0,.28Z"></path>
      <path class="cls-13" d="M74.41,40.89s-2.72-4.91,0-38.12c0,0-4.2,24-1.58,37.5,1.39,7.18,1.54,20,.19,31.93a11.26,11.26,0,0,0,1.54.73A121.35,121.35,0,0,0,74.41,40.89Z"></path>
      <path class="cls-16" d="M82.51,41.33C87.38,31.11,83.8,25.67,75,19.57,73.1,28.39,74.1,36.74,82.51,41.33Z"></path>
      <path class="cls-17" d="M82.47,41.33a61.48,61.48,0,0,0-2.75-11.22A107.43,107.43,0,0,0,75,19.6l.07-.05a29.11,29.11,0,0,1,5.29,10.36,55.08,55.08,0,0,1,2.22,11.41Z"></path>
      <path class="cls-16" d="M83.23,41.62c8.83-2.58,17.74.66,24,7.05C96.23,53.37,90,50.45,83.23,41.62Z"></path>
      <path class="cls-17" d="M83.25,41.58A77.54,77.54,0,0,0,95,45.83c4,1,8.11,1.83,12.2,2.8v.08a43.78,43.78,0,0,1-12.36-2.26,69,69,0,0,1-11.62-4.8Z"></path>
      <path class="cls-16" d="M85.56,38.56c2-10.5,6.58-16.35,17.31-18.29C103.63,31.88,98.49,41.24,85.56,38.56Z"></path>
      <path class="cls-17" d="M85.55,38.52a14.9,14.9,0,0,0,5.3-3.41,41.43,41.43,0,0,0,4.27-4.7C97.68,27,100,23.5,102.83,20.24l.07.05a60.83,60.83,0,0,1-7.29,10.53,39.81,39.81,0,0,1-4.5,4.59,15.24,15.24,0,0,1-5.54,3.19Z"></path>
    </g>
  </g>
</svg>
