<?xml version="1.0" encoding="UTF-8"?>
<svg xmlns="http://www.w3.org/2000/svg" xmlns:xlink="http://www.w3.org/1999/xlink" viewBox="0 0 101.86 216.92">
  <defs>
    <style>.cls-1{fill:#63411e;}.cls-2{fill:#956d4b;}.cls-3{fill:#44281c;}.cls-4{fill:#714d31;}.cls-5{fill:#613922;}.cls-6{fill:#7f5637;}.cls-7{fill:#a07850;}.cls-8{fill:url(#Безымянный_градиент_26);}.cls-9{fill:url(#Безымянный_градиент_7);}.cls-10{fill:#c5ba9f;}.cls-11{fill:#d7b389;}.cls-12{fill:#a96f30;}.cls-13{fill:#5e3e1a;}.cls-14{fill:#809870;}.cls-15{fill:#668050;}</style>
    <radialGradient id="Безымянный_градиент_26" cx="47.79" cy="198.83" r="54.35" gradientTransform="translate(97.33 308.57) rotate(179.09) scale(1 0.56)" gradientUnits="userSpaceOnUse">
      <stop offset="0.02" stop-color="#a07450"></stop>
      <stop offset="0.27" stop-color="#9a6d4a"></stop>
      <stop offset="0.62" stop-color="#8a5b39"></stop>
      <stop offset="1" stop-color="#72401f"></stop>
    </radialGradient>
    <linearGradient id="Безымянный_градиент_7" x1="33.91" y1="310.76" x2="55.06" y2="175.31" gradientUnits="userSpaceOnUse">
      <stop offset="0.38" stop-color="#a17551"></stop>
      <stop offset="0.91" stop-color="#794826"></stop>
      <stop offset="1" stop-color="#72401f"></stop>
    </linearGradient>
  </defs>
  <g id="Слой_2" data-name="Слой 2">
    <g id="Слой_1-2" data-name="Слой 1">
      <path class="cls-1" d="M3.09,131.94,100,133.51s.91-17,0-19.84c-1.32-4.2-8.72-16.58-45.38-17.48S4.53,106.79,2.48,112.62,3.09,131.94,3.09,131.94Z"></path>
      <polygon class="cls-2" points="8.29 172.1 3.09 137.12 98.7 137.12 95 171.85 8.29 172.1"></polygon>
      <path class="cls-3" d="M39.12,167.06a7.6,7.6,0,0,0-2.47-1.45h0s-3.28-1-5.07,1.23-1.48,4.59-.67,5a8.87,8.87,0,0,0,1.41.3s.05,0,.09,0a24.11,24.11,0,0,0,3-.69,1.37,1.37,0,0,0,.52-.14l.57-.16c1.28-.4,1.44-.11,2.33-.88a3.5,3.5,0,0,0,.95-2.22,2.68,2.68,0,0,0-.18-.43h0l0,0A.87.87,0,0,0,39.12,167.06Z"></path>
      <path class="cls-3" d="M21.5,170A9.4,9.4,0,0,0,18,171.1v0s-3.73,2.34-3.12,5.94,3.18,5.32,4.24,4.86a13.38,13.38,0,0,0,1.49-1.11s0-.08,0-.11c.79-.92,1.38-2.75,1.91-3.52a1.89,1.89,0,0,0,.31-.63c.09-.17.18-.36.33-.68.7-1.58,1.11-1.49,1.12-3A4.41,4.41,0,0,0,23,170a2.9,2.9,0,0,0-.57-.19v0h-.07A1.11,1.11,0,0,0,21.5,170Z"></path>
      <path class="cls-3" d="M37.29,176.29A3,3,0,0,0,36.2,176h0a2,2,0,0,0-1.77,1c-.43,1,0,1.89.3,2a4.72,4.72,0,0,0,.57-.05s0,0,0,0a11.38,11.38,0,0,0,1.07-.6l.18-.11.19-.13c.44-.29.53-.2.78-.59a1.36,1.36,0,0,0,.11-.94l-.12-.14h0A.36.36,0,0,0,37.29,176.29Z"></path>
      <path class="cls-3" d="M78.17,167.92a1.88,1.88,0,0,0-.1-.77h0s-.33-.88-1.1-.9-1.24.44-1.19.68a2.18,2.18,0,0,0,.17.36h0a7.12,7.12,0,0,0,.65.54.29.29,0,0,0,.12.09l.13.1c.3.21.26.29.57.36a1,1,0,0,0,.64-.16l.06-.11h0v0A.27.27,0,0,0,78.17,167.92Z"></path>
      <path class="cls-3" d="M89.82,182a9.53,9.53,0,0,0-1.65-3.31h0s-2.87-3.39-6.38-2.25-4.86,3.94-4.24,4.93a12.48,12.48,0,0,0,1.32,1.32s.09,0,.12,0c1,.66,2.94,1,3.79,1.4a2,2,0,0,0,.67.22c.19.06.39.13.73.22,1.68.48,1.65.9,3.16.69A4.45,4.45,0,0,0,90,183.46a2.49,2.49,0,0,0,.11-.59h0l0-.07A1.09,1.09,0,0,0,89.82,182Z"></path>
      <path class="cls-3" d="M67.15,170.44a7.06,7.06,0,0,0-1.62,2.33h0s-1.21,3.18.84,5.12,4.44,1.81,4.88,1a10.62,10.62,0,0,0,.4-1.38s0-.05,0-.08a24.68,24.68,0,0,0-.46-3.07,1.38,1.38,0,0,0-.1-.53c0-.15-.06-.31-.12-.57-.3-1.3,0-1.44-.7-2.38a3.43,3.43,0,0,0-2.12-1.1,3.85,3.85,0,0,0-.44.15h0l0,0A.84.84,0,0,0,67.15,170.44Z"></path>
      <path class="cls-4" d="M67.31,194.21a1.36,1.36,0,0,0,1.36-.36c.47-.61.37-1.25.15-1.34a2.25,2.25,0,0,0-.38-.08c-.26,0-.28.6-.29.61Z"></path>
      <path class="cls-5" d="M66.49,193.71s.76.68,1.07.48.7-.41.7-.41l0-.21s-.68-.32-.83-.27-.43.15-.5.16A2.9,2.9,0,0,0,66.49,193.71Z"></path>
      <path class="cls-6" d="M66.44,193.59c0,.09.11.31.34.23a4,4,0,0,0,.46-.19s.23-.72.28-.84.13-.17-.21,0-.39,0-.63.25A1,1,0,0,0,66.44,193.59Z"></path>
      <path class="cls-7" d="M67.24,193.63a4.06,4.06,0,0,0,.11-.61c0-.27,0-.34.25-.37s.72-.29,1-.2.22.08.22.38a1.11,1.11,0,0,1-.33.76.63.63,0,0,1-.66.28A1.52,1.52,0,0,1,67.24,193.63Z"></path>
      <path class="cls-4" d="M58,188.89s2.08.11,2.82-1.45.22-2.92-.31-3a5.61,5.61,0,0,0-.88,0c-.57,0-.32,1.45-.34,1.48S58,188.89,58,188.89Z"></path>
      <path class="cls-5" d="M56,188.18s2,1.14,2.59.53,1.34-1.22,1.34-1.22l-.14-.45a6.4,6.4,0,0,0-2-.21c-.32.17-.86.54-1,.6A7.88,7.88,0,0,0,56,188.18Z"></path>
      <path class="cls-6" d="M55.83,187.94c.1.18.38.63.86.35a8.34,8.34,0,0,0,.91-.65s.16-1.68.22-2,.2-.42-.5,0-.84.27-1.25.85A2.06,2.06,0,0,0,55.83,187.94Z"></path>
      <path class="cls-7" d="M57.6,187.64a11,11,0,0,0,0-1.39c-.08-.6-.14-.75.36-.94s1.46-1,2-.89.52.06.67.74a2.48,2.48,0,0,1-.36,1.82,1.41,1.41,0,0,1-1.32.93A3.68,3.68,0,0,1,57.6,187.64Z"></path>
      <path class="cls-4" d="M49.38,195.64a3,3,0,0,0,3.08.37c1.45-.85,1.77-2.24,1.4-2.62a5.38,5.38,0,0,0-.72-.46c-.48-.29-1,1-1.09,1Z"></path>
      <path class="cls-5" d="M48.12,193.94s1,2,1.81,1.85,1.74-.25,1.74-.25l.14-.44s-1.13-1.22-1.48-1.25-1,0-1.14-.07A9.21,9.21,0,0,0,48.12,193.94Z"></path>
      <path class="cls-6" d="M48.12,193.66c0,.2,0,.72.51.75a8.48,8.48,0,0,0,1.09,0s1.05-1.28,1.27-1.49.39-.23-.41-.28-.82-.24-1.47,0A2,2,0,0,0,48.12,193.66Z"></path>
      <path class="cls-7" d="M49.72,194.39a8.28,8.28,0,0,0,.72-1.15c.27-.53.31-.68.81-.56s1.72,0,2.12.39.39.33.14,1a2.42,2.42,0,0,1-1.29,1.27,1.33,1.33,0,0,1-1.57,0A3.54,3.54,0,0,1,49.72,194.39Z"></path>
      <path class="cls-4" d="M45.66,190.05a2.32,2.32,0,0,0,.08-2.37c-.75-1.05-1.83-1.21-2.09-.9a3.31,3.31,0,0,0-.31.58c-.18.39.83.74.84.76S45.66,190.05,45.66,190.05Z"></path>
      <path class="cls-5" d="M44.45,191.12s1.48-.89,1.29-1.5-.31-1.31-.31-1.31l-.34-.08s-.85.94-.86,1.21,0,.76,0,.88A6,6,0,0,0,44.45,191.12Z"></path>
      <path class="cls-6" d="M44.23,191.14c.16,0,.56,0,.54-.43a5.9,5.9,0,0,0-.09-.84s-1-.71-1.21-.87-.21-.28-.19.33-.13.65.1,1.13A1.58,1.58,0,0,0,44.23,191.14Z"></path>
      <path class="cls-7" d="M44.68,189.87a7.15,7.15,0,0,0-.92-.47c-.42-.17-.54-.19-.48-.58s-.11-1.31.15-1.65.23-.32.73-.17a1.85,1.85,0,0,1,1.05.9,1,1,0,0,1,.13,1.2A2.53,2.53,0,0,1,44.68,189.87Z"></path>
      <path class="cls-4" d="M38.3,191.79a1,1,0,0,0,.34-1c-.17-.53-.6-.73-.75-.64a2.12,2.12,0,0,0-.2.21c-.13.13.25.41.25.42S38.3,191.79,38.3,191.79Z"></path>
      <path class="cls-5" d="M37.67,192.08s.72-.18.72-.45,0-.58,0-.58L38.3,191s-.47.28-.51.39-.08.32-.1.37A2.3,2.3,0,0,0,37.67,192.08Z"></path>
      <path class="cls-6" d="M37.57,192.06c.07,0,.24.07.28-.11a2.34,2.34,0,0,0,.07-.35s-.34-.43-.39-.52-.05-.14-.12.11-.13.25-.1.48A.66.66,0,0,0,37.57,192.06Z"></path>
      <path class="cls-7" d="M37.92,191.6a2.85,2.85,0,0,0-.32-.32c-.15-.12-.2-.14-.12-.3s.12-.56.27-.66.14-.1.32,0a.8.8,0,0,1,.32.51.44.44,0,0,1-.1.51A1.14,1.14,0,0,1,37.92,191.6Z"></path>
      <path class="cls-4" d="M36.05,195.85s1.42-2.29.12-4.1-3.18-2.08-3.64-1.54a8.32,8.32,0,0,0-.52,1c-.32.67,1.45,1.27,1.47,1.31S36.05,195.85,36.05,195.85Z"></path>
      <path class="cls-5" d="M34,197.72s2.55-1.56,2.23-2.61-.55-2.27-.55-2.27l-.6-.13s-1.46,1.64-1.47,2.1.07,1.32.06,1.52A9.91,9.91,0,0,0,34,197.72Z"></path>
      <path class="cls-6" d="M33.59,197.76c.27,0,1,0,.94-.76a10.79,10.79,0,0,0-.17-1.44s-1.81-1.23-2.12-1.5-.35-.48-.32.57-.21,1.12.19,2A2.7,2.7,0,0,0,33.59,197.76Z"></path>
      <path class="cls-7" d="M34.36,195.56a12.11,12.11,0,0,0-1.6-.82c-.73-.28-.94-.31-.84-1s-.2-2.26.25-2.84.39-.56,1.25-.31a3.26,3.26,0,0,1,1.84,1.55,1.81,1.81,0,0,1,.24,2.07A4.72,4.72,0,0,1,34.36,195.56Z"></path>
      <path class="cls-8" d="M9.8,197.72,8.29,172.1s43-22.09,86.71-.25l-1.68,25.87Z"></path>
      <ellipse class="cls-9" cx="51.56" cy="197.72" rx="41.76" ry="19.2"></ellipse>
      <path class="cls-4" d="M70.56,194.05a1.36,1.36,0,0,0,1.36-.36c.47-.6.37-1.24.15-1.34a1.61,1.61,0,0,0-.39-.07c-.25-.05-.27.59-.28.6Z"></path>
      <path class="cls-5" d="M69.74,193.55s.76.69,1.07.48a8,8,0,0,1,.7-.4l0-.21s-.68-.33-.83-.28-.43.15-.5.16A4.23,4.23,0,0,0,69.74,193.55Z"></path>
      <path class="cls-6" d="M69.69,193.43c0,.09.1.31.34.23a4,4,0,0,0,.46-.19s.23-.72.28-.84.13-.17-.22,0-.38,0-.62.25A1,1,0,0,0,69.69,193.43Z"></path>
      <path class="cls-7" d="M70.49,193.47a4.06,4.06,0,0,0,.11-.61c0-.27,0-.34.25-.37s.72-.29,1-.2.22.08.22.39a1.1,1.1,0,0,1-.33.75.63.63,0,0,1-.66.28A1.52,1.52,0,0,1,70.49,193.47Z"></path>
      <path class="cls-4" d="M61.28,188.73s2.08.11,2.82-1.45.22-2.91-.31-3a7.19,7.19,0,0,0-.88,0c-.57,0-.32,1.45-.34,1.48S61.28,188.73,61.28,188.73Z"></path>
      <path class="cls-5" d="M59.24,188s2,1.14,2.59.53,1.33-1.21,1.33-1.21l-.13-.46a6.4,6.4,0,0,0-2-.21c-.32.17-.86.54-1,.6A9.2,9.2,0,0,0,59.24,188Z"></path>
      <path class="cls-6" d="M59.08,187.78c.1.18.38.64.86.35a8.34,8.34,0,0,0,.91-.65s.16-1.68.22-2,.2-.42-.5,0-.84.27-1.25.85A2.06,2.06,0,0,0,59.08,187.78Z"></path>
      <path class="cls-7" d="M60.85,187.48a9.76,9.76,0,0,0-.05-1.38c-.07-.61-.13-.76.37-.95s1.46-1,2-.88.52,0,.67.73a2.53,2.53,0,0,1-.37,1.82,1.39,1.39,0,0,1-1.31.93A3.68,3.68,0,0,1,60.85,187.48Z"></path>
      <path class="cls-4" d="M52.63,195.48s1.62,1.23,3.08.37,1.77-2.24,1.4-2.62a5.38,5.38,0,0,0-.72-.46c-.48-.29-1,1-1.09,1Z"></path>
      <path class="cls-5" d="M51.37,193.78s1,2,1.81,1.86,1.74-.26,1.74-.26l.14-.44s-1.13-1.21-1.48-1.25-1,0-1.14-.07A9.21,9.21,0,0,0,51.37,193.78Z"></path>
      <path class="cls-6" d="M51.37,193.5c0,.2,0,.72.51.75a8.57,8.57,0,0,0,1.09,0S54,193,54.24,192.74s.39-.23-.41-.28-.82-.23-1.48,0A2,2,0,0,0,51.37,193.5Z"></path>
      <path class="cls-7" d="M53,194.23a9.88,9.88,0,0,0,.72-1.14c.27-.54.31-.69.81-.57s1.72,0,2.12.39.39.33.14,1a2.39,2.39,0,0,1-1.29,1.27,1.35,1.35,0,0,1-1.57,0A3.67,3.67,0,0,1,53,194.23Z"></path>
      <path class="cls-4" d="M48.91,189.89a2.32,2.32,0,0,0,.08-2.37c-.75-1.05-1.83-1.21-2.1-.9a6,6,0,0,0-.3.58c-.19.39.83.74.84.76S48.91,189.89,48.91,189.89Z"></path>
      <path class="cls-5" d="M47.7,191s1.47-.89,1.29-1.5-.31-1.31-.31-1.31l-.34-.07s-.86.93-.86,1.2,0,.76,0,.88A6,6,0,0,0,47.7,191Z"></path>
      <path class="cls-6" d="M47.48,191c.16,0,.56,0,.54-.43a5.9,5.9,0,0,0-.09-.84s-1-.71-1.21-.87-.21-.28-.19.33-.13.65.1,1.13A1.58,1.58,0,0,0,47.48,191Z"></path>
      <path class="cls-7" d="M47.93,189.71a7.15,7.15,0,0,0-.92-.47c-.42-.17-.54-.19-.48-.58s-.11-1.31.15-1.64.23-.32.73-.17a1.8,1.8,0,0,1,1.05.89,1,1,0,0,1,.13,1.2A2.53,2.53,0,0,1,47.93,189.71Z"></path>
      <path class="cls-4" d="M41.55,191.64a1,1,0,0,0,.34-1c-.18-.54-.6-.74-.75-.64a1.24,1.24,0,0,0-.2.2c-.13.13.25.41.25.42S41.55,191.64,41.55,191.64Z"></path>
      <path class="cls-5" d="M40.91,191.93s.73-.18.73-.46a5.09,5.09,0,0,1,0-.58l-.13-.08s-.47.28-.51.39-.08.32-.1.37A2.73,2.73,0,0,0,40.91,191.93Z"></path>
      <path class="cls-6" d="M40.82,191.91c.07,0,.23.06.28-.12a2.34,2.34,0,0,0,.07-.35s-.34-.43-.39-.52-.05-.14-.12.11-.14.26-.1.48A.7.7,0,0,0,40.82,191.91Z"></path>
      <path class="cls-7" d="M41.17,191.44a2.85,2.85,0,0,0-.32-.32c-.15-.12-.2-.14-.12-.3s.12-.55.27-.66.13-.1.32,0a.8.8,0,0,1,.32.51.43.43,0,0,1-.1.51A1.14,1.14,0,0,1,41.17,191.44Z"></path>
      <path class="cls-4" d="M39.3,195.69s1.42-2.29.12-4.1-3.18-2.07-3.64-1.54a8.32,8.32,0,0,0-.52,1c-.32.67,1.44,1.27,1.47,1.31S39.3,195.69,39.3,195.69Z"></path>
      <path class="cls-5" d="M37.21,197.56S39.76,196,39.44,195s-.55-2.27-.55-2.27l-.6-.12s-1.46,1.63-1.47,2.09.07,1.32.06,1.52A9.91,9.91,0,0,0,37.21,197.56Z"></path>
      <path class="cls-6" d="M36.84,197.6c.27,0,1,0,.93-.76a9.9,9.9,0,0,0-.16-1.44s-1.81-1.23-2.12-1.49-.36-.49-.32.56-.21,1.12.19,2A2.72,2.72,0,0,0,36.84,197.6Z"></path>
      <path class="cls-7" d="M37.61,195.4a11.34,11.34,0,0,0-1.6-.81c-.74-.29-.94-.32-.84-1s-.2-2.27.25-2.85.39-.56,1.25-.3A3.2,3.2,0,0,1,38.51,192a1.8,1.8,0,0,1,.23,2.08A4.64,4.64,0,0,1,37.61,195.4Z"></path>
      <path class="cls-3" d="M23.64,158a7.55,7.55,0,0,0-2.46-1.45h0s-3.29-1-5.08,1.22-1.48,4.6-.67,5a10.68,10.68,0,0,0,1.42.3s.05,0,.08,0a25.53,25.53,0,0,0,3-.69,1.49,1.49,0,0,0,.53-.14l.56-.16c1.29-.4,1.45-.11,2.34-.89a3.43,3.43,0,0,0,.94-2.21,2,2,0,0,0-.18-.43h0l0,0A.87.87,0,0,0,23.64,158Z"></path>
      <path class="cls-3" d="M59.48,166.57a5,5,0,0,0-1.76.58h0s-1.88,1.18-1.57,3,1.6,2.68,2.13,2.45A6,6,0,0,0,59,172s0,0,0-.06a15.05,15.05,0,0,0,1-1.77.94.94,0,0,0,.16-.32c0-.09.09-.18.16-.34.36-.8.57-.75.57-1.52a2.26,2.26,0,0,0-.67-1.4l-.29-.1h0A.55.55,0,0,0,59.48,166.57Z"></path>
      <path class="cls-10" d="M53.26,141.12q.29,12.51.19,25c-.05,8.32-.2,16.64-.5,24.94,0,.23-.15.4-.32.39s-.28-.19-.28-.4c-.07-8.3-.28-16.6-.58-24.89s-.72-16.56-1.26-24.8a1.77,1.77,0,0,1,1.24-2c.76-.09,1.43.66,1.5,1.67A.37.37,0,0,0,53.26,141.12Z"></path>
      <path class="cls-10" d="M51.44,146.93A17.38,17.38,0,0,1,46.9,151a17.53,17.53,0,0,0-4.32,3.77,59.59,59.59,0,0,0-3.37,5.4l-3.28,5.58a.08.08,0,0,1-.14,0,.19.19,0,0,1,0-.18h0c.95-2,2-3.93,3-5.88A50.93,50.93,0,0,1,42,154a19.06,19.06,0,0,1,4.41-4.23,17.6,17.6,0,0,0,4.13-4v0a.51.51,0,0,1,.87-.06,1,1,0,0,1,.05,1.17Z"></path>
      <path class="cls-10" d="M52.27,147a11.3,11.3,0,0,1,4.62,2.71,19.15,19.15,0,0,1,3.5,4.8c1,1.8,1.85,3.68,2.76,5.54l2.69,5.57a.16.16,0,0,1,0,.2s-.11,0-.15,0l-2.77-5.5c-.94-1.83-1.83-3.7-2.83-5.44a18.2,18.2,0,0,0-3.46-4.57,10.62,10.62,0,0,0-4.45-2.47.42.42,0,0,1-.24-.48c0-.22.19-.36.35-.32Z"></path>
      <path class="cls-10" d="M52.52,156.91a6.06,6.06,0,0,1-.71,2c-.28.54-.58,1-.87,1.46-.55.86-1.12,1.81-1.68,2.71l-3.36,5.47-1.69,2.73a21,21,0,0,0-1.49,2.81,35.19,35.19,0,0,0-1.8,6.55h0c0,.14-.13.21-.23.18a.26.26,0,0,1-.13-.3,36.87,36.87,0,0,1,1.65-6.78,22,22,0,0,1,1.47-3l1.6-2.82,3.21-5.64c.54-.93,1-1.88,1.62-2.81.27-.46.54-.91.78-1.39a4.73,4.73,0,0,0,.49-1.44v0c0-.42.35-.71.67-.63a.8.8,0,0,1,.47.9Z"></path>
      <path class="cls-10" d="M53.74,167.19a15,15,0,0,0,1.72,4.14c.72,1.32,1.41,2.69,2,4.11a52.87,52.87,0,0,1,3,9,.08.08,0,0,1,0,.1s-.06,0-.07-.05a50.75,50.75,0,0,0-3.15-8.78c-.64-1.38-1.34-2.7-2.09-4a15.35,15.35,0,0,1-1.91-4.3.45.45,0,0,1,.19-.51c.16-.07.33.05.39.26Z"></path>
      <path class="cls-10" d="M52.64,177a46.67,46.67,0,0,0-3.58,12.58h0c0,.11-.09.19-.18.17a.22.22,0,0,1-.12-.24,48.63,48.63,0,0,1,3.18-13h0a.35.35,0,0,1,.54-.21.64.64,0,0,1,.16.72Z"></path>
      <path class="cls-10" d="M57.26,175.16l.19,7.05c0,.07,0,.13-.1.13s-.09-.05-.09-.12l-.33-7a.21.21,0,0,1,.15-.24.21.21,0,0,1,.18.21Z"></path>
      <path class="cls-10" d="M57.87,176.49a19.69,19.69,0,0,1,2,1.77,11.15,11.15,0,0,1,1.77,2.21.13.13,0,0,1,0,.16.07.07,0,0,1-.12,0,11,11,0,0,0-1.77-2.1,18.53,18.53,0,0,0-2-1.67.24.24,0,0,1-.06-.27.12.12,0,0,1,.19-.08Z"></path>
      <path class="cls-10" d="M55.09,170.79l4.48,3.73a.09.09,0,0,1,0,.11.05.05,0,0,1-.08,0l-4.63-3.39a.33.33,0,0,1-.09-.37c.06-.14.18-.19.28-.11h0Z"></path>
      <path class="cls-10" d="M62.07,158a16.55,16.55,0,0,1,1,7.42.13.13,0,0,1-.12.13.13.13,0,0,1-.09-.16,16.16,16.16,0,0,0-1-7.24.2.2,0,0,1,0-.22c.05,0,.13,0,.16.07Z"></path>
      <path class="cls-10" d="M58.1,151.13c.87,3.35.9,6.87,1.76,10.14a.08.08,0,0,1,0,.07s0,0,0,0c-1-3.24-1.12-6.81-2.06-10h0a.31.31,0,0,1,.11-.35c.11-.05.22,0,.26.15Z"></path>
      <path class="cls-10" d="M60.83,155.51a29.15,29.15,0,0,0,3.28,1.23,5.87,5.87,0,0,1,1.57,1,2.9,2.9,0,0,1,1,1.92c0,.06,0,.11-.06.11s-.08,0-.08-.08a2.7,2.7,0,0,0-1-1.69,6.16,6.16,0,0,0-1.52-1,21.63,21.63,0,0,1-3.32-1.23.23.23,0,0,1-.07-.25.13.13,0,0,1,.18-.09Z"></path>
      <path class="cls-10" d="M57.13,150a23.89,23.89,0,0,1,6.9,2.81.1.1,0,0,1,0,.12c0,.05-.06.07-.09.05a23.18,23.18,0,0,0-6.91-2.35h0a.31.31,0,0,1-.2-.36c0-.17.13-.3.26-.27Z"></path>
      <path class="cls-10" d="M53.34,147.56a22.7,22.7,0,0,1,4-1.49,14.35,14.35,0,0,1,4.16-.52.07.07,0,0,1,.05.09s0,.07-.05.07a14.19,14.19,0,0,0-4.09.84,23,23,0,0,0-3.9,1.76c-.15.09-.33,0-.4-.21a.46.46,0,0,1,.16-.54Z"></path>
      <path class="cls-10" d="M59.11,150.71a15.73,15.73,0,0,1,2.79-2.05,11.51,11.51,0,0,1,1.5-.73,4.59,4.59,0,0,1,1.59-.35c.06,0,.11.06.11.15s0,.15-.11.15h0a4.4,4.4,0,0,0-1.52.37A11.12,11.12,0,0,0,62,149a15.58,15.58,0,0,0-2.72,2.06h0a.14.14,0,0,1-.22-.05.28.28,0,0,1,0-.29Z"></path>
      <path class="cls-10" d="M58.6,154.16a14.27,14.27,0,0,1-1.36,2.89,29.7,29.7,0,0,0-1.46,2.73c0,.05-.07.07-.1.05a.12.12,0,0,1,0-.14,29.6,29.6,0,0,1,1.4-2.82A14.81,14.81,0,0,0,58.29,154h0c0-.11.12-.17.21-.13a.24.24,0,0,1,.09.28Z"></path>
      <path class="cls-10" d="M55.94,171.43a21.79,21.79,0,0,1,2.48-.7,11.29,11.29,0,0,1,2.52-.31.13.13,0,0,1,.1.14c0,.07,0,.13-.1.13h0a10.64,10.64,0,0,0-2.48.42,20.92,20.92,0,0,0-2.43.8c-.09,0-.2,0-.23-.16a.28.28,0,0,1,.13-.32h0Z"></path>
      <path class="cls-10" d="M50.93,180.8a4.22,4.22,0,0,0-1.84,1.29c-.54.59-1,1.37-1.48,2a.07.07,0,0,1-.11,0,.14.14,0,0,1,0-.15h0c.5-.66.91-1.46,1.43-2.14a18.42,18.42,0,0,1,1.74-1.79.26.26,0,0,1,.44.08.51.51,0,0,1-.06.58A.42.42,0,0,1,50.93,180.8Z"></path>
      <path class="cls-10" d="M49.48,186.42a3.2,3.2,0,0,0-.47.72,3.34,3.34,0,0,1-.52.8.09.09,0,0,1-.15,0,.17.17,0,0,1,0-.19,2.72,2.72,0,0,0,.44-.77,3.42,3.42,0,0,1,.49-.85h0a.14.14,0,0,1,.23,0,.27.27,0,0,1,0,.3Z"></path>
      <path class="cls-10" d="M50,184.2c0,1.29.5,2.58.54,4,0,0,0,.1-.07.1s-.08,0-.08-.09c-.12-1.33-.66-2.51-.79-3.95a.27.27,0,0,1,.18-.3c.11,0,.21.08.22.23v0Z"></path>
      <path class="cls-10" d="M43.7,172.22a9.22,9.22,0,0,0-.37,3,8.61,8.61,0,0,1-.25,1.69,6.32,6.32,0,0,1-.63,1.5.15.15,0,0,1-.25.05.28.28,0,0,1,0-.33h0a5.92,5.92,0,0,0,.51-1.39,7.06,7.06,0,0,0,.17-1.54c0-.53,0-1.08,0-1.65a6.13,6.13,0,0,1,.31-1.74h0a.27.27,0,0,1,.41-.18.46.46,0,0,1,.13.54Z"></path>
      <path class="cls-10" d="M46.91,166.86a21.88,21.88,0,0,0-.56,4.48c-.06,1.53,0,3.09-.13,4.65,0,.07,0,.12-.11.11A.14.14,0,0,1,46,176c0-1.54-.06-3.08-.07-4.64a22.48,22.48,0,0,1,.37-4.7c0-.22.21-.35.37-.29a.42.42,0,0,1,.21.49Z"></path>
      <path class="cls-10" d="M47.27,171.79a15.13,15.13,0,0,1,.34,4.14c0,1.39-.17,2.75-.23,4.12a.12.12,0,0,1-.1.13.13.13,0,0,1-.1-.14c0-1.38.16-2.75.19-4.12a15.1,15.1,0,0,0-.37-4,.2.2,0,0,1,.09-.25c.07,0,.15,0,.18.12Z"></path>
      <path class="cls-10" d="M49.22,163.22c0,.87,0,1.73,0,2.59s.09,1.72.16,2.57.14,1.71.15,2.58,0,1.72,0,2.58c0,.09-.06.16-.13.16a.16.16,0,0,1-.11-.16c0-1.71-.17-3.41-.26-5.11,0-.86-.13-1.71-.25-2.55s-.26-1.69-.45-2.52a.65.65,0,0,1,.29-.76c.24-.1.5.08.57.4A.53.53,0,0,1,49.22,163.22Z"></path>
      <path class="cls-10" d="M49.25,167A34.35,34.35,0,0,1,47,172.46c-.84,1.74-1.74,3.44-2.44,5.28a.09.09,0,0,1-.12.06.15.15,0,0,1,0-.16c.69-1.88,1.57-3.6,2.4-5.36A35,35,0,0,0,49,166.82c0-.12.12-.18.2-.14a.24.24,0,0,1,.1.28Z"></path>
      <path class="cls-10" d="M40.13,158.64c-.14,1.1-.19,2.26-.31,3.41a21.63,21.63,0,0,1-.59,3.42c0,.11-.12.17-.2.13a.24.24,0,0,1-.1-.26,22.06,22.06,0,0,0,.41-3.35c.06-1.14,0-2.29.14-3.48,0-.24.18-.41.36-.39a.45.45,0,0,1,.3.49Z"></path>
      <path class="cls-10" d="M42.38,154.87a36.24,36.24,0,0,0-7.12,6.77s0,0-.06,0a.09.09,0,0,1,0-.07A39.79,39.79,0,0,1,42,154h0a.34.34,0,0,1,.55.16.67.67,0,0,1-.12.73Z"></path>
      <path class="cls-10" d="M46.75,150.59a35.37,35.37,0,0,1-1,7.8,28.4,28.4,0,0,1-2.58,7.06c0,.08-.13.1-.19,0a.23.23,0,0,1,0-.25,28.08,28.08,0,0,0,2.39-7,35.4,35.4,0,0,0,.79-7.62h0c0-.23.13-.41.3-.42s.3.18.31.4Z"></path>
      <path class="cls-10" d="M46.13,156.41a24.67,24.67,0,0,1-2,3.65,18.71,18.71,0,0,0-2,3.56c0,.06-.07.08-.11,0a.12.12,0,0,1,0-.15,19.4,19.4,0,0,1,2-3.7,23.82,23.82,0,0,0,1.91-3.65c0-.12.16-.17.25-.1a.3.3,0,0,1,.08.33Z"></path>
      <path class="cls-10" d="M46.67,152.31a30.31,30.31,0,0,0,.46,3.39c.21,1.13.45,2.27.57,3.44,0,.08,0,.16-.09.17s-.11,0-.13-.12c-.16-1.13-.44-2.24-.69-3.36a29.77,29.77,0,0,1-.6-3.44h0a.32.32,0,0,1,.21-.37c.13,0,.25.1.27.28Z"></path>
      <path class="cls-10" d="M47.92,148.2a21.36,21.36,0,0,0-11.27-.46c-.06,0-.12,0-.13-.13a.17.17,0,0,1,.09-.18,21.77,21.77,0,0,1,11.44,0,.43.43,0,0,1,.24.48c0,.22-.2.37-.36.32Z"></path>
      <path class="cls-10" d="M45.31,147.66a19.72,19.72,0,0,1-3.15,1.64,19.26,19.26,0,0,1-3.25,1.13c-.07,0-.14-.05-.16-.15a.19.19,0,0,1,.11-.21h0A21,21,0,0,0,42,148.75a21.28,21.28,0,0,0,3-1.8h0c.15-.11.33,0,.41.16a.49.49,0,0,1-.12.56Z"></path>
      <path class="cls-10" d="M48.85,149c-1-.88-2-1.78-3.07-2.62a16.79,16.79,0,0,0-1.58-1.16,4.62,4.62,0,0,0-1.69-.72h0a.18.18,0,0,1-.12-.2c0-.1.07-.17.14-.16a4.67,4.67,0,0,1,1.82.61A18.69,18.69,0,0,1,46,145.78c1.08.76,2.14,1.59,3.2,2.38a.59.59,0,0,1,.14.65c-.1.22-.32.31-.49.18Z"></path>
      <path class="cls-3" d="M32.06,171.74a3,3,0,0,0-1.09-.27h0a2,2,0,0,0-1.77,1c-.43,1-.05,1.89.3,1.95a4.72,4.72,0,0,0,.57-.05l0,0a10.24,10.24,0,0,0,1.07-.6.56.56,0,0,0,.18-.11l.2-.13c.43-.29.53-.2.77-.59a1.33,1.33,0,0,0,.11-.93.71.71,0,0,0-.12-.15h0A.34.34,0,0,0,32.06,171.74Z"></path>
      <path class="cls-3" d="M83.3,161.35a1.86,1.86,0,0,0-.1-.77h0s-.33-.88-1.11-.9-1.24.44-1.18.68a2.15,2.15,0,0,0,.17.35h0a5.14,5.14,0,0,0,.65.55.41.41,0,0,0,.12.09l.13.1c.29.21.26.29.57.36a1,1,0,0,0,.64-.17.36.36,0,0,0,.06-.11h0A.27.27,0,0,0,83.3,161.35Z"></path>
      <path class="cls-3" d="M88.18,178.76a9.53,9.53,0,0,0-1.65-3.31h0s-2.87-3.39-6.38-2.25-4.86,3.94-4.24,4.93a11.57,11.57,0,0,0,1.32,1.33s.09,0,.12,0c1,.66,2.94,1,3.79,1.4a1.78,1.78,0,0,0,.67.22c.19.07.39.13.73.23,1.68.47,1.65.89,3.16.68a4.45,4.45,0,0,0,2.59-1.73,2.69,2.69,0,0,0,.11-.6h0l0-.07A1.09,1.09,0,0,0,88.18,178.76Z"></path>
      <path class="cls-3" d="M16.81,173.32a7.19,7.19,0,0,0-1.61,2.33h0s-1.22,3.18.84,5.12,4.44,1.81,4.88,1a10.62,10.62,0,0,0,.4-1.38s0,0,0-.08a24.77,24.77,0,0,0-.45-3.07,1.38,1.38,0,0,0-.1-.53c0-.15-.06-.31-.12-.57-.3-1.3,0-1.44-.7-2.38a3.43,3.43,0,0,0-2.12-1.1,2.29,2.29,0,0,0-.44.15h0l0,0A.9.9,0,0,0,16.81,173.32Z"></path>
      <ellipse class="cls-3" cx="50.9" cy="138.94" rx="47.8" ry="19.2"></ellipse>
      <path class="cls-1" d="M0,115.83l9.8,81.89s-1.51,11.56,25.92,17.77c0,0,22.94,4.87,45.19-4.12,0,0,9.11-4.53,12.41-10.73l8.47-84.81s1.87,6.83-13.35,14l-7.53,68.58s-24.2,13.2-52.15,1.07l-9.19-67.92S0,126.9,0,115.83Z"></path>
      <path class="cls-11" d="M50.9,95.39C22.79,95.39,0,104.54,0,115.83c0,6.54,7.66,12.37,19.57,16.11h0a5.5,5.5,0,0,1,.75-.39c-11.26-3.61-18.49-9.49-18.49-15.72,0-10.89,22-19.7,49.07-19.7S100,104.94,100,115.83c0,5.25-5,10.3-13.39,13.83.49.18,1.87.49,1.87.49,8.33-3.64,13.35-9,13.35-14.32C101.79,104.54,79,95.39,50.9,95.39Z"></path>
      <path class="cls-11" d="M19.57,131.88l9.19,67.93s23.33,12.35,52.15-1.08l7.53-68.58-1.87-.49-6.36,68.71s-24.77,13.11-50.62.9l-9.27-67.72Z"></path>
      <path class="cls-12" d="M46.51,62.17a19.57,19.57,0,0,0-4.92-2.82c-1.35-.56-1.38.66-2.43-.34s-.2-3.86,1.68-3.43c.59.13.44.93.86,1.37A6,6,0,0,0,43.81,58a14.92,14.92,0,0,1,2.68.79"></path>
      <path class="cls-13" d="M46.51,62.17a19.52,19.52,0,0,0-4.41-2.48,3.73,3.73,0,0,0-1.16-.37,1.5,1.5,0,0,0-.57.12,1,1,0,0,1-.7.06,1.66,1.66,0,0,1-1-1,2.42,2.42,0,0,1-.09-1.33,2.67,2.67,0,0,1,.57-1.2,1.69,1.69,0,0,1,1.19-.61,1.94,1.94,0,0,1,.34,0,.81.81,0,0,1,.35.1,1,1,0,0,1,.38.6,1.49,1.49,0,0,0,.62,1,6.93,6.93,0,0,0,2.3,1l1.22.37.6.19.31.11a.59.59,0,0,1,.14.06s-.1,0-.15,0h.15l-.15,0-.31-.08-.61-.16-1.24-.3A7.18,7.18,0,0,1,42,57.3a1.49,1.49,0,0,1-.49-.48,2.75,2.75,0,0,1-.24-.61.76.76,0,0,0-.28-.46,1.21,1.21,0,0,0-.55-.08,1.81,1.81,0,0,0-1.49,1.61A2.25,2.25,0,0,0,39,58.46a1.47,1.47,0,0,0,.79.8c.31.14.71-.22,1.2-.18a3.36,3.36,0,0,1,1.24.41A17,17,0,0,1,46.51,62.17Z"></path>
      <path class="cls-14" d="M39.72,59.05c-14.67-.88-27-5-39.58-12.47C12.4,52.79,24.24,56.43,38,57,38.89,57.45,40,57.91,39.72,59.05Z"></path>
      <path class="cls-15" d="M39.74,59.07a74.57,74.57,0,0,1-10.46-1,73,73,0,0,1-10.2-2.51,89.08,89.08,0,0,1-9.72-4c-3.16-1.5-6.28-3.08-9.3-4.86l.15-.27q4.44,2.19,9,4c3.06,1.22,6.19,2.26,9.35,3.17a95.44,95.44,0,0,0,9.61,2.19A92.5,92.5,0,0,0,38,56.93h0a6,6,0,0,1,1.25.76A1.28,1.28,0,0,1,39.74,59.07Zm0,0a1.32,1.32,0,0,0-.05-.68,1.33,1.33,0,0,0-.42-.55A5.66,5.66,0,0,0,38,57.12h0a82,82,0,0,1-9.88-.85,74.9,74.9,0,0,1-9.71-2.08A95.34,95.34,0,0,1,.07,46.72l.15-.27a89.67,89.67,0,0,0,9.22,4.94,81.85,81.85,0,0,0,9.79,3.68A92,92,0,0,0,29.36,57.6C32.78,58.26,36.25,58.71,39.7,59Z"></path>
      <path class="cls-14" d="M40.36,55.51C26.18,48.37,13.23,40.9,2.13,29.39,10.49,42.74,24.38,49,37.62,56.69,39.1,57.2,40.54,57.54,40.36,55.51Z"></path>
      <path class="cls-15" d="M40.34,55.52c-3.48-1.66-7-3.41-10.36-5.27s-6.77-3.82-10-5.92A100.42,100.42,0,0,1,2,29.55l.37-.29A45.79,45.79,0,0,0,9.41,38a65.15,65.15,0,0,0,8.78,7.09c6.22,4.26,12.94,7.75,19.45,11.56h0a4.48,4.48,0,0,0,1.9.38.81.81,0,0,0,.7-.55A2.36,2.36,0,0,0,40.34,55.52Zm0,0a2.39,2.39,0,0,1-.08,1,.91.91,0,0,1-.76.61,4.75,4.75,0,0,1-1.94-.37h0C31.05,53,24.3,49.56,18,45.34a64.91,64.91,0,0,1-8.88-7.06,47.11,47.11,0,0,1-7.21-8.77L.74,27.62,2.3,29.23a107.37,107.37,0,0,0,18,14.63c3.22,2.15,6.54,4.16,9.9,6.07S36.94,53.66,40.39,55.49Z"></path>
      <path class="cls-12" d="M45.7,54.57a19.88,19.88,0,0,0-2.41-5.13c-.79-1.24-1.51-.26-1.8-1.68s2-3.27,3.35-1.85c.4.45-.18,1-.09,1.62a6.12,6.12,0,0,0,1.11,2.1c.72.84,2.3,2.75,1.74,2.18"></path>
      <path class="cls-13" d="M45.7,54.57A19.35,19.35,0,0,0,43.51,50a3.51,3.51,0,0,0-.74-1,1.32,1.32,0,0,0-.54-.23,1,1,0,0,1-.61-.35,1.74,1.74,0,0,1-.24-1.33A2.56,2.56,0,0,1,42.07,46a2.64,2.64,0,0,1,1.16-.66,1.66,1.66,0,0,1,1.32.19.93.93,0,0,1,.27.21.72.72,0,0,1,.23.28,1,1,0,0,1,0,.71A1.47,1.47,0,0,0,45,47.88,6.84,6.84,0,0,0,46.28,50l.78,1,.39.51.19.25a1,1,0,0,1,.08.14s-.08-.07-.12-.1l.11.1a.51.51,0,0,0-.09-.13l-.2-.24L47,51.05l-.84-.95A6.87,6.87,0,0,1,44.76,48a1.49,1.49,0,0,1-.13-.67,3,3,0,0,1,.16-.64.79.79,0,0,0,0-.54,1.2,1.2,0,0,0-.4-.37,1.82,1.82,0,0,0-2.15.45,2.19,2.19,0,0,0-.62,1,1.44,1.44,0,0,0,.18,1.11c.18.3.72.23,1.09.54a3.59,3.59,0,0,1,.78,1.06A17.07,17.07,0,0,1,45.7,54.57Z"></path>
      <path class="cls-14" d="M41.93,48.12C30.42,39,22.71,28.55,16.68,15.18c6.47,12.12,14.08,21.9,25,30.3C42.17,46.33,42.8,47.34,41.93,48.12Z"></path>
      <path class="cls-15" d="M41.93,48.14a75.57,75.57,0,0,1-8-6.85,73.26,73.26,0,0,1-6.91-7.92,88.77,88.77,0,0,1-5.69-8.81c-1.73-3-3.38-6.13-4.83-9.32l.28-.13q2.37,4.34,5.1,8.46c1.8,2.76,3.76,5.4,5.82,8a95.31,95.31,0,0,0,6.62,7.31,92,92,0,0,0,7.39,6.55l0,0h0a6.28,6.28,0,0,1,.59,1.35A1.27,1.27,0,0,1,41.93,48.14Zm0,0a1.52,1.52,0,0,0,.35-.59,1.35,1.35,0,0,0,0-.69,6.66,6.66,0,0,0-.64-1.28l0,0A84,84,0,0,1,34,39.19a75,75,0,0,1-6.75-7.28A95.39,95.39,0,0,1,16.55,15.25l.27-.13a88.81,88.81,0,0,0,4.72,9.34,80.19,80.19,0,0,0,5.9,8.63A89.92,89.92,0,0,0,34.28,41C36.7,43.48,39.29,45.85,41.93,48.09Z"></path>
      <path class="cls-14" d="M44.49,45.58C37,31.59,30.66,18.05,28.18,2.25,27.36,18,35.12,31.12,41.57,45,42.48,46.24,43.46,47.35,44.49,45.58Z"></path>
      <path class="cls-15" d="M44.46,45.58c-1.89-3.35-3.74-6.79-5.45-10.27s-3.35-7-4.82-10.6A100.83,100.83,0,0,1,28,2.28l.47,0a46.44,46.44,0,0,0,.77,11.22,66.1,66.1,0,0,0,3.12,10.84C35,31.38,38.46,38.1,41.61,45h0a4.84,4.84,0,0,0,1.34,1.4.82.82,0,0,0,.9-.05A2.52,2.52,0,0,0,44.46,45.58Zm.06,0a2.58,2.58,0,0,1-.64.78.92.92,0,0,1-1,.06A4.67,4.67,0,0,1,41.53,45h0C38.31,38.17,34.75,31.49,32,24.43a65.31,65.31,0,0,1-3.21-10.88A46.7,46.7,0,0,1,28,2.23L28.06,0l.36,2.21A106.66,106.66,0,0,0,34.71,24.5c1.4,3.61,3,7.16,4.62,10.66S42.74,42.11,44.52,45.58Z"></path>
      <path class="cls-12" d="M49.2,55a21.31,21.31,0,0,0-4.42-5c-1.3-1.13-1.79.2-2.58-1.31s1.29-4.31,3.19-3.13c.59.37.11,1.19.41,1.84a6.76,6.76,0,0,0,1.92,2,24.55,24.55,0,0,1,2.72,1.87"></path>
      <path class="cls-13" d="M49.2,55a12.46,12.46,0,0,0-1.82-2.34c-.68-.72-1.4-1.4-2.15-2.06a4.74,4.74,0,0,0-1.15-.85,1.9,1.9,0,0,0-.68-.09,1.13,1.13,0,0,1-.8-.19,2.05,2.05,0,0,1-.72-1.41,2.72,2.72,0,0,1,.42-1.5,3.05,3.05,0,0,1,1.09-1.11A2,2,0,0,1,45,45.27a1.31,1.31,0,0,1,.37.15.88.88,0,0,1,.35.25,1.3,1.3,0,0,1,.18.81,3.34,3.34,0,0,0,0,.71,1.58,1.58,0,0,0,.3.61,7.87,7.87,0,0,0,2.18,2l1.22.86.61.43.3.23s.1.06.13.13a.83.83,0,0,1-.16-.09l.16.08-.15-.11-.31-.2-.62-.41-1.27-.79A7.87,7.87,0,0,1,46,48a1.68,1.68,0,0,1-.37-.7,3.46,3.46,0,0,1,0-.78.9.9,0,0,0-.12-.61,1.39,1.39,0,0,0-.58-.3,2.14,2.14,0,0,0-2.28,1.2,2.41,2.41,0,0,0-.38,1.32,1.64,1.64,0,0,0,.58,1.18c.29.28.88,0,1.4.26a4.24,4.24,0,0,1,1.22.93A18,18,0,0,1,49.2,55Z"></path>
      <path class="cls-14" d="M42.78,48.93C26.59,41.78,16.3,30.64,5.46,17,16.09,29.68,26.72,39.58,42,46.33,42.75,47.14,43.31,47.83,42.78,48.93Z"></path>
      <path class="cls-15" d="M42.79,49a66.87,66.87,0,0,1-11-5.75,72.7,72.7,0,0,1-9.84-7.63,121.35,121.35,0,0,1-8.59-9c-2.72-3.13-5.41-6.28-8-9.51l.28-.22A143.34,143.34,0,0,0,22.19,33.61a96.35,96.35,0,0,0,9.49,7A90.21,90.21,0,0,0,42,46.24h0v0a4.16,4.16,0,0,1,.86,1.21,1.5,1.5,0,0,1,.11.75A1.75,1.75,0,0,1,42.79,49Zm0-.06a2.42,2.42,0,0,0,.16-.68,1.37,1.37,0,0,0-.13-.69,4.31,4.31,0,0,0-.88-1.13l0,0A79.31,79.31,0,0,1,31.4,41a78,78,0,0,1-9.65-6.9,122.43,122.43,0,0,1-16.42-17l.27-.23c2.56,3.25,5.11,6.51,7.89,9.58a109.7,109.7,0,0,0,8.79,8.73A88.6,88.6,0,0,0,32,42.79,86.31,86.31,0,0,0,42.77,48.9Z"></path>
      <path class="cls-14" d="M44.29,45.51C31.36,36,20.59,25.67,11.62,12.27c7,14.35,17.72,23.83,29.67,34C42.74,47,43.89,47.41,44.29,45.51Z"></path>
      <path class="cls-15" d="M44.26,45.52C41.1,43.28,38,40.9,35,38.39s-5.92-5.11-8.71-7.86A115.33,115.33,0,0,1,11.42,12.4l.41-.24A75.66,75.66,0,0,0,24.71,30.75,199.72,199.72,0,0,0,41.32,46.26h0a4.35,4.35,0,0,0,1.82.6,1,1,0,0,0,.78-.46A2.84,2.84,0,0,0,44.26,45.52Zm.06,0a2.68,2.68,0,0,1-.35.93,1,1,0,0,1-.83.49,4.27,4.27,0,0,1-1.87-.58h0A196.65,196.65,0,0,1,24.48,31,76.07,76.07,0,0,1,11.4,12.38l.42-.24a124.28,124.28,0,0,0,14.86,18c2.73,2.78,5.58,5.43,8.54,8S41.21,43.09,44.32,45.5Z"></path>
      <path class="cls-12" d="M51.59,53.78a19.44,19.44,0,0,1,2.74-5c.86-1.18,1.52-.16,1.9-1.56S54.4,43.86,53,45.2c-.43.41.11,1,0,1.62a5.79,5.79,0,0,1-1.25,2c-.77.79-2.47,2.59-1.88,2.06"></path>
      <path class="cls-13" d="M51.59,53.78a16.54,16.54,0,0,1,2.3-4.53,3.32,3.32,0,0,1,.84-1c.4-.29.93-.19,1.12-.47a1.44,1.44,0,0,0,.26-1.1,2.21,2.21,0,0,0-.56-1,1.81,1.81,0,0,0-2.11-.59,1.16,1.16,0,0,0-.43.35.8.8,0,0,0,0,.53,3.26,3.26,0,0,1,.12.65,1.57,1.57,0,0,1-.17.66,7.3,7.3,0,0,1-1.55,2l-.9.89-.45.46-.21.23a.53.53,0,0,0-.1.12l.11-.09s-.07.08-.12.09a.6.6,0,0,1,.09-.13l.21-.24.42-.48.85-1a7,7,0,0,0,1.45-2,1.46,1.46,0,0,0,0-1.16,1,1,0,0,1,0-.71A.82.82,0,0,1,53,45a1.07,1.07,0,0,1,.28-.19,1.67,1.67,0,0,1,1.33-.1,2.63,2.63,0,0,1,1.11.73,2.48,2.48,0,0,1,.62,1.19,1.7,1.7,0,0,1-.33,1.3,1,1,0,0,1-.63.32,1.38,1.38,0,0,0-.55.19,3.61,3.61,0,0,0-.8.92A19.35,19.35,0,0,0,51.59,53.78Z"></path>
      <path class="cls-14" d="M55.77,47.59c12.08-8.38,20.46-18.27,27.35-31.21C75.87,28.05,67.64,37.31,56.18,45,55.65,45.79,55,46.75,55.77,47.59Z"></path>
      <path class="cls-15" d="M55.77,47.56c2.78-2.07,5.52-4.26,8.1-6.59a88.72,88.72,0,0,0,7.34-7.43,80.39,80.39,0,0,0,6.46-8.23,88.39,88.39,0,0,0,5.32-9l.26.16a95.93,95.93,0,0,1-11.8,15.92,74.94,74.94,0,0,1-7.22,6.81,80.41,80.41,0,0,1-8,5.86l0,0a6.24,6.24,0,0,0-.72,1.24,1.36,1.36,0,0,0-.08.69A1.47,1.47,0,0,0,55.77,47.56Zm0,0a1.26,1.26,0,0,1-.35-1.39,6,6,0,0,1,.68-1.3v0h0a93,93,0,0,0,7.8-6.06A95.52,95.52,0,0,0,71,32c2.23-2.42,4.36-4.93,6.34-7.56S81.22,19.08,83,16.3l.27.15c-1.66,3.08-3.51,6.05-5.43,9a89.56,89.56,0,0,1-6.26,8.42,70.34,70.34,0,0,1-7.41,7.44A75.14,75.14,0,0,1,55.77,47.61Z"></path>
      <path class="cls-14" d="M53.38,44.89C61.8,31.43,69,18.32,72.49,2.72c-.21,15.74-8.81,28.35-16.15,41.76C55.34,45.68,54.29,46.72,53.38,44.89Z"></path>
      <path class="cls-15" d="M53.35,44.89c2-3.36,4-6.68,5.86-10.06S62.89,28,64.52,24.5A106.6,106.6,0,0,0,72.26,2.67L72.77.48l0,2.24A47.43,47.43,0,0,1,71.12,14,65.87,65.87,0,0,1,67.2,24.6C64,31.47,60,37.9,56.38,44.5h0a4.77,4.77,0,0,1-1.47,1.32.89.89,0,0,1-1-.13A2.42,2.42,0,0,1,53.35,44.89Zm.06,0a2.49,2.49,0,0,0,.57.76.83.83,0,0,0,.89.11,4.7,4.7,0,0,0,1.43-1.31h0c3.59-6.63,7.51-13.1,10.62-20a64.93,64.93,0,0,0,3.83-10.61A46.65,46.65,0,0,0,72.26,2.71l.46.06a100.73,100.73,0,0,1-7.7,22c-1.7,3.49-3.55,6.91-5.5,10.26S55.52,41.67,53.41,44.89Z"></path>
      <path class="cls-12" d="M50.52,74.12a19.44,19.44,0,0,1,2.74-5c.86-1.18,1.52-.16,1.9-1.56s-1.83-3.4-3.22-2.07c-.43.42.11,1,0,1.63a5.79,5.79,0,0,1-1.25,2c-.77.79-2.47,2.59-1.87,2.06"></path>
      <path class="cls-13" d="M50.52,74.12a16.54,16.54,0,0,1,2.3-4.53,3.32,3.32,0,0,1,.84-1c.4-.29.93-.19,1.12-.47A1.44,1.44,0,0,0,55,67a2.13,2.13,0,0,0-.56-1,1.81,1.81,0,0,0-2.11-.59,1.16,1.16,0,0,0-.43.35.8.8,0,0,0,0,.53,3.26,3.26,0,0,1,.12.65,1.57,1.57,0,0,1-.17.66,7.3,7.3,0,0,1-1.55,2l-.9.89L49,71l-.21.23a.53.53,0,0,0-.1.12l.12-.09s-.08.08-.13.09a.6.6,0,0,1,.09-.13L49,71l.42-.48.85-1a7,7,0,0,0,1.45-2,1.46,1.46,0,0,0,0-1.16,1,1,0,0,1,0-.71.82.82,0,0,1,.25-.27,1.07,1.07,0,0,1,.28-.19,1.67,1.67,0,0,1,1.33-.1,2.63,2.63,0,0,1,1.11.73A2.48,2.48,0,0,1,55.31,67a1.7,1.7,0,0,1-.33,1.3,1,1,0,0,1-.63.32,1.38,1.38,0,0,0-.55.19,3.61,3.61,0,0,0-.8.92A19.35,19.35,0,0,0,50.52,74.12Z"></path>
      <path class="cls-14" d="M54.7,67.93c12.08-8.38,20.46-18.27,27.35-31.21C74.8,48.39,66.57,57.65,55.11,65.31,54.58,66.13,53.88,67.09,54.7,67.93Z"></path>
      <path class="cls-15" d="M54.7,67.9c2.78-2.07,5.52-4.26,8.1-6.59a90.4,90.4,0,0,0,7.35-7.43,81.71,81.71,0,0,0,6.45-8.23,88.39,88.39,0,0,0,5.32-9l.26.16a95.93,95.93,0,0,1-11.8,15.92,74.94,74.94,0,0,1-7.22,6.81,80.41,80.41,0,0,1-8,5.86l0,0a6.24,6.24,0,0,0-.72,1.24,1.36,1.36,0,0,0-.08.69A1.47,1.47,0,0,0,54.7,67.9Zm0,0a1.26,1.26,0,0,1-.35-1.39,6,6,0,0,1,.68-1.3v0h0a93,93,0,0,0,7.8-6.06,95.52,95.52,0,0,0,7.08-6.86c2.23-2.42,4.36-4.93,6.34-7.56s3.87-5.33,5.64-8.11l.27.15c-1.66,3.08-3.51,6.05-5.43,9a89.56,89.56,0,0,1-6.26,8.42,71.3,71.3,0,0,1-7.41,7.44A75.14,75.14,0,0,1,54.7,68Z"></path>
      <path class="cls-14" d="M52.31,65.23c8.42-13.47,15.6-26.57,19.11-42.17-.21,15.74-8.81,28.35-16.15,41.76C54.27,66,53.22,67.06,52.31,65.23Z"></path>
      <path class="cls-15" d="M52.28,65.23c2-3.36,4-6.68,5.86-10.06s3.68-6.83,5.31-10.33A106.6,106.6,0,0,0,71.19,23l.51-2.19,0,2.24A47.43,47.43,0,0,1,70.05,34.3a66.22,66.22,0,0,1-3.92,10.64C63,51.81,59,58.24,55.31,64.84h0a4.77,4.77,0,0,1-1.47,1.32.89.89,0,0,1-1-.13A2.42,2.42,0,0,1,52.28,65.23Zm.06,0a2.49,2.49,0,0,0,.57.76.83.83,0,0,0,.89.11,4.7,4.7,0,0,0,1.43-1.31h0c3.59-6.63,7.51-13.11,10.62-20A64.93,64.93,0,0,0,69.68,34.2a46.65,46.65,0,0,0,1.51-11.15l.46.06a100.21,100.21,0,0,1-7.7,22c-1.7,3.49-3.55,6.91-5.5,10.26S54.45,62,52.34,65.23Z"></path>
      <path class="cls-12" d="M49.12,56.53a21.41,21.41,0,0,1,4.75-4.67c1.36-1,1.77.32,2.65-1.13s-1-4.39-3-3.34c-.62.33-.19,1.18-.53,1.81a6.78,6.78,0,0,1-2,1.86,22.35,22.35,0,0,0-2.84,1.69"></path>
      <path class="cls-13" d="M49.12,56.53a18.08,18.08,0,0,1,4.1-4.32,4.47,4.47,0,0,1,1.28-.85c.53-.2,1.1.09,1.42-.16a1.67,1.67,0,0,0,.65-1.14,2.56,2.56,0,0,0-.29-1.35,2.13,2.13,0,0,0-2.2-1.34,1.27,1.27,0,0,0-.59.25,1,1,0,0,0-.17.61,3,3,0,0,1-.08.77,1.56,1.56,0,0,1-.41.68,8,8,0,0,1-2.42,1.79l-1.31.7-.65.37-.33.18-.15.1.17-.07a1,1,0,0,1-.18.08c0-.07.1-.08.15-.12l.31-.21.64-.4,1.27-.77a8,8,0,0,0,2.31-1.81,1.77,1.77,0,0,0,.34-.59,3.26,3.26,0,0,0,.05-.71,1.17,1.17,0,0,1,.24-.79.85.85,0,0,1,.36-.23,1.9,1.9,0,0,1,.38-.13,2,2,0,0,1,1.54.32,3.11,3.11,0,0,1,1,1.17,2.88,2.88,0,0,1,.32,1.53,1.92,1.92,0,0,1-.27.77,2,2,0,0,1-.54.59,1.14,1.14,0,0,1-.81.14,1.75,1.75,0,0,0-.69,0,4.56,4.56,0,0,0-1.2.78,29.55,29.55,0,0,0-2.28,1.91A12.62,12.62,0,0,0,49.12,56.53Z"></path>
      <path class="cls-14" d="M55.93,50.87C72.56,44.8,83.55,34.36,95.27,21.43c-11.44,12-22.69,21.16-38.38,26.9C56.08,49.09,55.48,49.73,55.93,50.87Z"></path>
      <path class="cls-15" d="M56,50.84a87.69,87.69,0,0,0,11.12-5.4,88.37,88.37,0,0,0,10.22-6.95,106.11,106.11,0,0,0,9.34-8.14c3-2.87,5.74-6,8.51-9l.26.24A123.64,123.64,0,0,1,77.89,37.49a77.58,77.58,0,0,1-10.08,6.25,80.32,80.32,0,0,1-10.88,4.68l0,0a4.42,4.42,0,0,0-1,1.07,1.46,1.46,0,0,0-.17.68A2.56,2.56,0,0,0,56,50.84Zm0,.06a1.74,1.74,0,0,1-.19-.75,1.48,1.48,0,0,1,.16-.74,4.2,4.2,0,0,1,.94-1.15v0h0a91,91,0,0,0,10.7-5,95.25,95.25,0,0,0,9.92-6.34A142.17,142.17,0,0,0,95.14,21.31l.26.24c-2.8,3.06-5.69,6-8.6,9a123.67,123.67,0,0,1-9.17,8.4,73.07,73.07,0,0,1-10.31,7A67,67,0,0,1,55.92,50.9Z"></path>
      <path class="cls-14" d="M54.65,47.35c13.53-8.69,24.95-18.24,34.79-31-7.89,13.86-19.25,22.61-31.85,32C56.1,49,54.93,49.27,54.65,47.35Z"></path>
      <path class="cls-15" d="M54.62,47.34c3.27-2.2,6.45-4.43,9.57-6.77s6.14-4.81,9-7.41a124.24,124.24,0,0,0,16-17l.41.27A76.4,76.4,0,0,1,75.37,34.14,197.53,197.53,0,0,1,57.62,48.38h0a4.16,4.16,0,0,1-1.9.46,1,1,0,0,1-.8-.55A2.77,2.77,0,0,1,54.62,47.34Zm.06,0a2.87,2.87,0,0,0,.29.9,1,1,0,0,0,.75.5,4.06,4.06,0,0,0,1.85-.47h0a199.23,199.23,0,0,0,17.6-14.39,75.68,75.68,0,0,0,14.07-17.7l.4.27a115.35,115.35,0,0,1-16,17.11c-3,2.56-6,5-9.2,7.27S58,45.34,54.68,47.36Z"></path>
      <path class="cls-12" d="M47.72,49.45s1.82,71.5,2.16,84"></path>
      <path class="cls-12" d="M50.31,49.38c-.49,3.52-.18,7-.15,10.52l.23,10.5c.17,7,.29,14,.52,21l.67,21c.23,7,.56,14,1.3,21h0a3,3,0,1,1-6,.64,2.58,2.58,0,0,1,0-.48c.38-7,.34-14,.21-21l-.4-21c-.14-7-.38-14-.57-21L45.81,60c-.15-3.5,0-7-.69-10.5a2.63,2.63,0,0,1,5.16-1A2.71,2.71,0,0,1,50.31,49.38Z"></path>
      <path class="cls-4" d="M48.77,143.4a1.38,1.38,0,0,0-1.33-.49c-.74.23-1,.81-.9,1a1.71,1.71,0,0,0,.27.28c.19.18.58-.33.59-.33Z"></path>
      <path class="cls-5" d="M49.16,144.29s-.23-1-.61-1-.81-.07-.81-.07l-.1.18s.37.66.52.72.44.12.5.15S49.16,144.29,49.16,144.29Z"></path>
      <path class="cls-6" d="M49.13,144.41A.27.27,0,0,0,49,144a3.49,3.49,0,0,0-.49-.1s-.6.46-.72.53-.2.06.15.17.34.19.66.15A.94.94,0,0,0,49.13,144.41Z"></path>
      <path class="cls-7" d="M48.49,143.92a4.69,4.69,0,0,0-.44.43c-.18.21-.21.28-.42.17s-.77-.18-.91-.39-.13-.19,0-.45a1.17,1.17,0,0,1,.71-.43.64.64,0,0,1,.71.15A1.67,1.67,0,0,1,48.49,143.92Z"></path>
      <path class="cls-4" d="M45.75,126.34a2,2,0,0,0-2.06-.3c-1,.56-1.23,1.48-1,1.75a2.87,2.87,0,0,0,.48.31c.31.2.72-.65.74-.66Z"></path>
      <path class="cls-5" d="M46.57,127.5s-.64-1.38-1.19-1.27-1.17.14-1.17.14l-.1.3s.74.83,1,.86.67,0,.77.06A5.39,5.39,0,0,0,46.57,127.5Z"></path>
      <path class="cls-6" d="M46.57,127.69c0-.14,0-.49-.33-.52a4.49,4.49,0,0,0-.74,0s-.72.83-.87,1-.27.15.27.2.55.17,1,0A1.39,1.39,0,0,0,46.57,127.69Z"></path>
      <path class="cls-7" d="M45.5,127.18a6.7,6.7,0,0,0-.5.75c-.19.35-.21.46-.55.37s-1.15,0-1.42-.29-.26-.23-.08-.65a1.65,1.65,0,0,1,.88-.84.93.93,0,0,1,1.06,0A2.48,2.48,0,0,1,45.5,127.18Z"></path>
      <path class="cls-4" d="M41.67,132.6s-4.25-2.12-7.22.47-3.11,5.91-2.1,6.63a13.76,13.76,0,0,0,1.86.74c1.23.45,2-2.74,2.06-2.78S41.67,132.6,41.67,132.6Z"></path>
      <path class="cls-5" d="M45.29,136s-3.15-4.22-4.94-3.48-3.9,1.34-3.9,1.34l-.12,1.07s3.11,2.3,3.93,2.23,2.29-.34,2.65-.34A17.85,17.85,0,0,0,45.29,136Z"></path>
      <path class="cls-6" d="M45.42,136.59c0-.47-.22-1.67-1.49-1.51a18.41,18.41,0,0,0-2.5.54s-1.86,3.37-2.27,3.95-.79.71,1.05.47,2,.19,3.4-.65A4.84,4.84,0,0,0,45.42,136.59Z"></path>
      <path class="cls-7" d="M41.43,135.62a21.11,21.11,0,0,0-1.16,2.93c-.38,1.34-.4,1.71-1.62,1.64s-3.94.72-5,0-1-.59-.74-2.14,1-2.28,2.41-3.48a3.16,3.16,0,0,1,3.6-.76A8.13,8.13,0,0,1,41.43,135.62Z"></path>
      <path class="cls-4" d="M56.36,133.49s-3.57-2.1-6.3,0-3.06,4.95-2.22,5.63a12.28,12.28,0,0,0,1.57.76c1,.46,1.89-2.26,2-2.3S56.36,133.49,56.36,133.49Z"></path>
      <path class="cls-5" d="M59.3,136.62s-2.48-3.85-4.08-3.32-3.46.92-3.46.92l-.17.93s2.55,2.19,3.27,2.17,2-.15,2.32-.13A15.54,15.54,0,0,0,59.3,136.62Z"></path>
      <path class="cls-6" d="M59.37,137.18c0-.41-.09-1.46-1.2-1.4a15.68,15.68,0,0,0-2.2.32s-1.82,2.81-2.21,3.29-.73.57.88.47,1.72.29,3-.36A4.19,4.19,0,0,0,59.37,137.18Z"></path>
      <path class="cls-7" d="M56,136.1a19.19,19.19,0,0,0-1.19,2.47c-.41,1.14-.45,1.46-1.5,1.33s-3.47.39-4.37-.28-.87-.58-.51-1.9,1-1.92,2.3-2.88a2.75,2.75,0,0,1,3.17-.44A7.15,7.15,0,0,1,56,136.1Z"></path>
      <path class="cls-4" d="M65.79,129.73s-3.51-2.72-6.7-.88-3.92,4.86-3.12,5.7a12.7,12.7,0,0,0,1.57,1c1,.63,2.32-2.15,2.39-2.18S65.79,129.73,65.79,129.73Z"></path>
      <path class="cls-5" d="M68.51,133.45s-2.13-4.43-3.91-4.08-3.81.52-3.81.52l-.3,1s2.43,2.68,3.19,2.76,2.17.1,2.5.17A17.31,17.31,0,0,0,68.51,133.45Z"></path>
      <path class="cls-6" d="M68.5,134.07c0-.44.11-1.58-1.08-1.66a18.18,18.18,0,0,0-2.39,0s-2.32,2.76-2.8,3.21-.85.51.88.62,1.8.54,3.23,0A4.46,4.46,0,0,0,68.5,134.07Z"></path>
      <path class="cls-7" d="M65,132.45a20.77,20.77,0,0,0-1.6,2.48c-.59,1.16-.67,1.49-1.78,1.21s-3.74,0-4.62-.88-.84-.73-.29-2.1,1.35-1.9,2.84-2.75a3,3,0,0,1,3.44,0A7.7,7.7,0,0,1,65,132.45Z"></path>
      <path class="cls-4" d="M68.51,141.09a2.14,2.14,0,0,0,1.95-1c.53-1.06.19-2-.18-2.08a4.16,4.16,0,0,0-.6,0c-.39,0-.24,1-.25,1S68.51,141.09,68.51,141.09Z"></path>
      <path class="cls-5" d="M67.12,140.57s1.36.81,1.78.4.92-.82.92-.82l-.09-.31a4.46,4.46,0,0,0-1.34-.17c-.22.11-.6.36-.7.4A5.29,5.29,0,0,0,67.12,140.57Z"></path>
      <path class="cls-6" d="M67,140.41c.07.13.26.44.59.25a5.13,5.13,0,0,0,.63-.44s.13-1.15.18-1.36.14-.29-.35,0-.58.18-.87.58A1.42,1.42,0,0,0,67,140.41Z"></path>
      <path class="cls-7" d="M68.23,140.22a7.53,7.53,0,0,0,0-.95c0-.41-.09-.52.26-.64s1-.66,1.39-.59.36,0,.45.51a1.68,1.68,0,0,1-.27,1.25.94.94,0,0,1-.91.62A2.35,2.35,0,0,1,68.23,140.22Z"></path>
      <path class="cls-4" d="M35.06,141.84a2.72,2.72,0,0,0,2.57-1.05c.76-1.31.41-2.53-.05-2.67a4.3,4.3,0,0,0-.77,0c-.5,0-.38,1.24-.41,1.26Z"></path>
      <path class="cls-5" d="M33.33,141.07s1.67,1.15,2.23.66,1.25-1,1.25-1l-.09-.4A5.43,5.43,0,0,0,35,140c-.29.12-.79.4-.92.45A6.57,6.57,0,0,0,33.33,141.07Z"></path>
      <path class="cls-6" d="M33.21,140.85c.07.17.29.58.73.37a7.6,7.6,0,0,0,.84-.5s.26-1.46.34-1.72.2-.35-.44,0-.75.17-1.15.65A1.82,1.82,0,0,0,33.21,140.85Z"></path>
      <path class="cls-7" d="M34.78,140.72a7.79,7.79,0,0,0,.06-1.21c0-.54-.06-.67.39-.8s1.34-.74,1.82-.63.45.09.54.69a2.15,2.15,0,0,1-.45,1.56,1.22,1.22,0,0,1-1.22.72A3.1,3.1,0,0,1,34.78,140.72Z"></path>
      <path class="cls-4" d="M46.83,135.13a1.56,1.56,0,0,0,1.58.27c.78-.4,1-1.11.8-1.32a2.62,2.62,0,0,0-.36-.26c-.24-.16-.57.49-.59.5S46.83,135.13,46.83,135.13Z"></path>
      <path class="cls-5" d="M46.22,134.21s.46,1.08.89,1,.91-.08.91-.08l.08-.23s-.55-.66-.73-.69-.52,0-.59-.06A3.86,3.86,0,0,0,46.22,134.21Z"></path>
      <path class="cls-6" d="M46.22,134.07c0,.1,0,.37.25.4a4.65,4.65,0,0,0,.57,0s.57-.64.69-.74.21-.11-.2-.16-.42-.14-.77,0A1.11,1.11,0,0,0,46.22,134.07Z"></path>
      <path class="cls-7" d="M47,134.49a5,5,0,0,0,.4-.58c.15-.27.18-.35.44-.27s.89.05,1.09.26.19.18.05.5a1.28,1.28,0,0,1-.71.63.7.7,0,0,1-.82,0A1.76,1.76,0,0,1,47,134.49Z"></path>
      <path class="cls-4" d="M61.13,141.17s4,1,6-1.78,1.49-5.59.5-6a12.55,12.55,0,0,0-1.71-.26c-1.12-.15-1.15,2.69-1.2,2.74S61.13,141.17,61.13,141.17Z"></path>
      <path class="cls-5" d="M57.43,139s3.47,3,4.84,2,3-1.87,3-1.87l-.1-.93s-3.06-1.34-3.74-1.13-1.87.73-2.17.8A15.85,15.85,0,0,0,57.43,139Z"></path>
      <path class="cls-6" d="M57.2,138.52c.13.39.51,1.37,1.54,1a15.34,15.34,0,0,0,2-.93s.92-3.2,1.15-3.77.54-.75-1-.19-1.72.22-2.74,1.2A4.16,4.16,0,0,0,57.2,138.52Z"></path>
      <path class="cls-7" d="M60.75,138.58a19,19,0,0,0,.42-2.7c.06-1.2,0-1.51,1-1.69s3.19-1.37,4.24-1,1,.29,1,1.66-.41,2.12-1.36,3.4a2.74,2.74,0,0,1-2.89,1.33A7.14,7.14,0,0,1,60.75,138.58Z"></path>
      <path class="cls-4" d="M42.73,138.86s2.39,1.35,4.18-.06,2-3.33,1.4-3.77a7.22,7.22,0,0,0-1.05-.48c-.7-.3-1.23,1.52-1.27,1.55S42.73,138.86,42.73,138.86Z"></path>
      <path class="cls-5" d="M40.73,136.82s1.7,2.53,2.76,2.16,2.28-.67,2.28-.67l.1-.61s-1.72-1.42-2.2-1.4-1.33.13-1.54.12A10.4,10.4,0,0,0,40.73,136.82Z"></path>
      <path class="cls-6" d="M40.68,136.45c0,.27.07,1,.81.91a11.2,11.2,0,0,0,1.46-.23s1.17-1.9,1.43-2.22.48-.39-.6-.3-1.15-.17-2,.28A2.72,2.72,0,0,0,40.68,136.45Z"></path>
      <path class="cls-7" d="M43,137.13a12.41,12.41,0,0,0,.76-1.66c.26-.77.28-1,1-.91s2.3-.3,2.91.13.58.37.36,1.26a3.24,3.24,0,0,1-1.49,1.94,1.84,1.84,0,0,1-2.1.34A4.76,4.76,0,0,1,43,137.13Z"></path>
    </g>
  </g>
</svg>
