<?xml version="1.0" encoding="UTF-8"?>
<svg xmlns="http://www.w3.org/2000/svg" viewBox="0 0 97.83 120.15">
  <defs>
    <style>.cls-1{fill:#a5a5a5;}.cls-2{fill:#a29274;}.cls-3{fill:#e3e0c9;}.cls-4{fill:#fcedce;}.cls-5{fill:#bda885;}.cls-6{fill:#d0c5a6;}.cls-7{fill:#8f8267;}.cls-8{fill:#ab967a;opacity:0.25;}.cls-9{fill:#9b8d71;}.cls-10{fill:#7c705b;}.cls-11{fill:#cacac9;}.cls-12{fill:#817870;}.cls-13{fill:#789f5a;}</style>
  </defs>
  <g id="Слой_2" data-name="Слой 2">
    <g id="Слой_1-2" data-name="Слой 1">
      <polygon class="cls-1" points="84.5 107.95 84.55 107.86 84.47 107.86 84.5 107.95"></polygon>
      <polygon class="cls-2" points="48.99 55.79 97.83 34.99 90.51 91.24 48.99 120.15 48.99 55.79"></polygon>
      <polygon class="cls-3" points="48.99 20.93 97.83 34.99 48.99 55.79 0 34.99 48.99 20.93"></polygon>
      <polygon class="cls-4" points="48.99 20.93 0 34.99 0.86 35.36 97.38 34.86 48.99 20.93"></polygon>
      <polygon class="cls-5" points="7.33 91.24 0 34.99 48.99 55.79 48.99 120.15 7.33 91.24"></polygon>
      <path class="cls-6" d="M30.79,35.68a29.77,29.77,0,0,1,2.31-2.47,26.16,26.16,0,0,1,2.7-2.08,26.88,26.88,0,0,1,6.12-3,31.07,31.07,0,0,1,6.66-1.39c1.13-.14,2.26-.12,3.39-.18s2.25.1,3.37.2c-1.12.13-2.24.17-3.35.29s-2.22.23-3.31.45-2.18.37-3.25.68-2.13.58-3.19.9a35.43,35.43,0,0,0-6,2.69A32.91,32.91,0,0,0,30.79,35.68Z"></path>
      <polygon class="cls-7" points="48.99 55.79 97.83 34.99 90.51 91.24 48.99 120.15 48.99 55.79"></polygon>
      <polygon class="cls-8" points="7.33 91.24 0 34.99 48.99 55.79 48.99 120.15 7.33 91.24"></polygon>
      <polygon class="cls-9" points="48.99 120.15 7.33 91.24 49.18 75.42 90.51 91.24 48.99 120.15"></polygon>
      <path class="cls-10" d="M16.18,66.51a15,15,0,0,1-1.26-8.16,13,13,0,0,1,3.61-7.55,18,18,0,0,1,7.19-4.28,30.68,30.68,0,0,1,8.15-1.45l-2,.42c-.67.15-1.33.34-2,.5s-1.31.38-2,.56-1.28.45-1.91.69a19.72,19.72,0,0,0-6.74,4.26,13.24,13.24,0,0,0-3.57,7,18.09,18.09,0,0,0,.51,8Z"></path>
      <path class="cls-10" d="M61.7,65.73c.13.21.41.28.62.39s.46.2.7.29c.47.19.94.34,1.42.5,1,.31,1.92.59,2.89.86,1.93.52,3.88,1,5.85,1.39,3.93.81,7.91,1.32,11.94,1.79A44.24,44.24,0,0,1,73,70.14a44.69,44.69,0,0,1-5.89-1.63c-1-.34-1.9-.72-2.83-1.15-.46-.23-.91-.46-1.36-.71A3.3,3.3,0,0,1,61.7,65.73Z"></path>
      <path class="cls-10" d="M35.46,62.8a35.67,35.67,0,0,1-3.24,10.79,30.36,30.36,0,0,1-2.94,4.86,18.54,18.54,0,0,1-4.07,3.94A31.86,31.86,0,0,0,28.64,78a51.78,51.78,0,0,0,2.68-4.84c.81-1.66,1.52-3.37,2.21-5.1S34.86,64.58,35.46,62.8Z"></path>
      <path class="cls-10" d="M50.61,107.56c2-1,4.07-1.73,6.07-2.61s4-1.77,5.94-2.78a39.2,39.2,0,0,0,5.52-3.44,17.7,17.7,0,0,0,2.41-2.17c.35-.41.72-.81,1.06-1.24s.58-.92.88-1.39q-.3.76-.66,1.53c-.28.48-.6.94-.9,1.42a18.3,18.3,0,0,1-2.3,2.44,27.71,27.71,0,0,1-5.55,3.74,49.07,49.07,0,0,1-6.12,2.6c-1.05.36-2.1.7-3.16,1Z"></path>
      <path class="cls-10" d="M27.7,101.39c-2.21-1.06-4.43-2.59-5.45-5.09a4.66,4.66,0,0,1,.32-3.94,9.17,9.17,0,0,1,2.65-2.85A25.27,25.27,0,0,1,32,86.15a51.94,51.94,0,0,1,7.23-1.89c-1.16.46-2.35.81-3.5,1.28s-2.32.87-3.46,1.33a31.2,31.2,0,0,0-6.43,3.44,8.41,8.41,0,0,0-2.43,2.51A4,4,0,0,0,23,96.05a7.44,7.44,0,0,0,1.9,3A16.49,16.49,0,0,0,27.7,101.39Z"></path>
      <path class="cls-10" d="M72.49,64.6l3.64-5c1.2-1.67,2.37-3.36,3.48-5.08a52,52,0,0,0,3.06-5.3,17.36,17.36,0,0,0,1.93-5.79,13.22,13.22,0,0,1-1.21,6.11,34.76,34.76,0,0,1-2.94,5.52A51.71,51.71,0,0,1,72.49,64.6Z"></path>
      <polygon class="cls-1" points="47.2 87.66 47.25 87.57 47.17 87.56 47.2 87.66"></polygon>
      <path class="cls-11" d="M48.55,46.66c.81.07,1.2-.4,1.44-1.08a13.45,13.45,0,0,1,.41,1.75c.19,1.85.36,3.71.46,5.57a3,3,0,0,0,1,2.14,8.18,8.18,0,0,1,1.65,2.22c1.41,2.92,3.31,5.24,6.67,6,.16,0,.28.28.42.42-.22.12-.45.37-.65.34a8.54,8.54,0,0,1-6.06-3.92c-.62-1-1.13-2-1.74-2.93a6.17,6.17,0,0,0-1.07-.94,10.35,10.35,0,0,0,0,1.52c1,6.06-.6,11.71-2.63,17.3,0,.14-.25.23-.38.34-.18-.22-.53-.47-.5-.66.16-.91.42-1.81.64-2.71.77-3,1.65-6,1.57-9.14a7.34,7.34,0,0,0-.28-1.2,21.41,21.41,0,0,0-2.74,6.87,4.57,4.57,0,0,1-.17.91.54.54,0,0,1-.39.31c-.18,0-.47-.19-.48-.33A6.82,6.82,0,0,1,45.66,67c.41-1.6,1.05-3.14,1.6-4.69.17-.48.39-.95.56-1.39-.53-.68-1-.19-1.37,0-1.1.56-2.17,1.21-3.29,1.75-2,.93-4,1.8-5.12,4A7.94,7.94,0,0,1,38.49,65a7,7,0,0,1,3-2.59c1.62-.91,3.3-1.73,4.89-2.71,2.78-1.7,3-2.47,2.61-5.63C48.71,51.61,48.7,49.13,48.55,46.66Z"></path>
      <polygon class="cls-4" points="0.86 35.36 48.99 55.79 97.83 34.99 97.38 34.86 0.86 35.36"></polygon>
      <ellipse class="cls-2" cx="50.53" cy="35.97" rx="11.28" ry="4.41"></ellipse>
      <ellipse class="cls-12" cx="50.82" cy="37.46" rx="9.3" ry="3.64"></ellipse>
      <path class="cls-13" d="M49.45,40.38q-.37-4.65-.76-9.28c-.13-1.45-.51-1.83-2-1.69q-2.94.27-5.85.75a12.67,12.67,0,0,1-7-.91,6.16,6.16,0,0,1-3.33-3.06c-.82-1.65-1.78-3.24-2.74-5A5.43,5.43,0,0,1,31.71,20a20.91,20.91,0,0,1,14.21,4.4c.63.48,1.2,1,1.72,1.51.76-.24.58-.73.59-1.09,0-1.87,0-3.73,0-5.6,0-.7-.4-1-1-.64s-1.24.75-1.87,1.1a1.57,1.57,0,0,1-2-.3,7.48,7.48,0,0,1-1.73-8,11.45,11.45,0,0,1,4.9-5.83,31.82,31.82,0,0,1,3.55-1.9c2.33-1.13,4.68-2.21,7-3.32.47-.22,1.05-.47,1.38,0a2.22,2.22,0,0,1,.19,1.43,9,9,0,0,1-.52,1.45,10.47,10.47,0,0,0,.47,8.14,9.84,9.84,0,0,1,.91,2.3c.39,1.78-.23,2.8-2,3.2s-3.87.65-5.8.95c-.31.05-.62,0-.93.08A.92.92,0,0,0,50,18.91c0,1.43.06,2.86.1,4.58,1.46-.54,2.05-1.74,3.06-2.34a20.86,20.86,0,0,1,3.29-1.69A17.26,17.26,0,0,1,60,18.52a19.18,19.18,0,0,1,3.71-.25,27.11,27.11,0,0,1,3.69.44,9.32,9.32,0,0,1,3.46,1.19c-2.23,2-4.3,3.87-6.35,5.75A13.56,13.56,0,0,1,54,29.3c-4.19-.32-3.91.13-3.71,3.83.11,2.06.4,4.11.61,6.17A1.32,1.32,0,0,1,49.45,40.38Z"></path>
    </g>
  </g>
</svg>
