<?xml version="1.0" encoding="UTF-8"?>
<svg xmlns="http://www.w3.org/2000/svg" viewBox="0 0 94.94 151.08">
  <defs>
    <style>.cls-1{fill:#a29274;}.cls-2{fill:#e3e0c9;}.cls-3{fill:#fcedce;}.cls-4{fill:#bda885;}.cls-5{fill:#d0c5a6;}.cls-6{fill:#8f8267;}.cls-7{fill:#ab967a;opacity:0.25;}.cls-8{fill:#9b8d71;}.cls-9{fill:#7c705b;}.cls-10{fill:#deebdd;}.cls-11{fill:#817870;}.cls-12{fill:#e6f5b2;}.cls-13{fill:#bce27d;}.cls-14{fill:#a8d459;}.cls-15{fill:#81b651;}.cls-16{fill:#93c63e;}.cls-17,.cls-19,.cls-20,.cls-25,.cls-26,.cls-27{fill:none;stroke:#3f6c3e;stroke-miterlimit:10;}.cls-17{stroke-width:0.32px;}.cls-18{fill:#3f6c3e;}.cls-19{stroke-width:0.08px;}.cls-20{stroke-width:0.24px;}.cls-21{fill:#a8d45c;}.cls-22{fill:#cfe77d;}.cls-23{fill:#9ecb3f;}.cls-24{fill:#e3f4ad;}.cls-25{stroke-width:0.27px;}.cls-26{stroke-width:0.13px;}.cls-27{stroke-width:0.2px;}</style>
  </defs>
  <g id="Слой_2" data-name="Слой 2">
    <g id="Слой_1-2" data-name="Слой 1">
      <polygon class="cls-1" points="41.66 96.34 83.2 78.66 76.97 126.49 41.66 151.08 41.66 96.34"></polygon>
      <polygon class="cls-2" points="41.66 66.7 83.2 78.66 41.66 96.34 0 78.66 41.66 66.7"></polygon>
      <polygon class="cls-3" points="41.66 66.7 0 78.66 0.73 78.97 82.81 78.55 41.66 66.7"></polygon>
      <polygon class="cls-4" points="6.23 126.49 0 78.66 41.66 96.34 41.66 151.08 6.23 126.49"></polygon>
      <path class="cls-5" d="M26.18,79.25a23,23,0,0,1,2-2.1,19.68,19.68,0,0,1,2.29-1.77,22.86,22.86,0,0,1,5.21-2.54,26.89,26.89,0,0,1,5.66-1.18c1-.13,1.93-.11,2.88-.15s1.92.08,2.87.16c-1,.12-1.9.15-2.85.26s-1.88.2-2.81.38-1.86.32-2.77.57-1.81.5-2.71.77a30.24,30.24,0,0,0-5.14,2.28A28.83,28.83,0,0,0,26.18,79.25Z"></path>
      <polygon class="cls-6" points="41.66 96.34 83.2 78.66 76.97 126.49 41.66 151.08 41.66 96.34"></polygon>
      <polygon class="cls-7" points="6.23 126.49 0 78.66 41.66 96.34 41.66 151.08 6.23 126.49"></polygon>
      <polygon class="cls-8" points="41.66 151.08 6.23 126.49 41.82 113.04 76.97 126.49 41.66 151.08"></polygon>
      <path class="cls-9" d="M13.76,105.46a12.83,12.83,0,0,1-1.08-6.93,11.29,11.29,0,0,1,3.07-6.42,15.84,15.84,0,0,1,6.12-3.65,26.08,26.08,0,0,1,6.93-1.23,38.91,38.91,0,0,0-6.71,1.85,16,16,0,0,0-5.73,3.62,10.93,10.93,0,0,0-3,5.92,13.11,13.11,0,0,0-.18,3.43A12.87,12.87,0,0,0,13.76,105.46Z"></path>
      <path class="cls-9" d="M52.47,104.8c.11.18.34.24.53.34l.59.24c.4.16.8.29,1.21.42.81.27,1.63.52,2.45.74,1.65.44,3.31.85,5,1.17,3.35.69,6.73,1.13,10.16,1.53a38.1,38.1,0,0,1-15.33-2.08c-.82-.3-1.62-.62-2.41-1-.39-.19-.78-.38-1.16-.6A2.81,2.81,0,0,1,52.47,104.8Z"></path>
      <path class="cls-9" d="M30.16,102.31a27.1,27.1,0,0,1-1,4.69,31,31,0,0,1-1.73,4.49,26.7,26.7,0,0,1-2.5,4.13A15.65,15.65,0,0,1,21.44,119a28.78,28.78,0,0,0,2.92-3.72,43.42,43.42,0,0,0,2.27-4.12c.69-1.42,1.29-2.87,1.89-4.34.3-.73.57-1.47.84-2.22S29.89,103.06,30.16,102.31Z"></path>
      <path class="cls-9" d="M43,140.37c1.69-.84,3.46-1.47,5.16-2.22s3.41-1.5,5-2.36a33.22,33.22,0,0,0,4.69-2.93,13.42,13.42,0,0,0,3.71-4.08,10.93,10.93,0,0,1-3.28,4.59,24.83,24.83,0,0,1-4.72,3.17,38.94,38.94,0,0,1-5.21,2.21c-.89.31-1.79.6-2.69.87Z"></path>
      <path class="cls-9" d="M23.56,135.13a8.81,8.81,0,0,1-4.64-4.34,3.92,3.92,0,0,1,.28-3.34A7.82,7.82,0,0,1,21.45,125a22.45,22.45,0,0,1,5.74-2.85,44.17,44.17,0,0,1,6.15-1.61c-2,.73-4,1.41-5.91,2.22A24.79,24.79,0,0,0,22,125.7a7,7,0,0,0-2.07,2.13,3.39,3.39,0,0,0-.34,2.76,6.24,6.24,0,0,0,1.61,2.53A14.21,14.21,0,0,0,23.56,135.13Z"></path>
      <path class="cls-9" d="M61.65,103.84c1-1.43,2.08-2.83,3.1-4.26s2-2.86,3-4.33a45,45,0,0,0,2.61-4.5,14.94,14.94,0,0,0,1.63-4.92,11.1,11.1,0,0,1-1,5.19,28.85,28.85,0,0,1-2.5,4.69A43.9,43.9,0,0,1,65.26,100,41.13,41.13,0,0,1,61.65,103.84Z"></path>
      <path class="cls-10" d="M42.85,88.67c-.37.65-.91-.17-1.29.37s.59,3.25,1.24,4.85c.35.86,1.41,6.54.94,8a20.14,20.14,0,0,0-1,4.2c0,.8.1,3.69.49,3.21s.23-2.17.38-3.49c.08-.69.93-2.68,1.16-4A23.21,23.21,0,0,0,44,93.34C43.52,91.51,43.19,90.45,42.85,88.67Z"></path>
      <path class="cls-10" d="M41.63,90.85a11.58,11.58,0,0,1-4.84,2.78c-1.93.52-5.34,3.15-6,4.43s.89-.8,1.65-1.21,2.83-2.5,4.38-2.69A12.25,12.25,0,0,0,42,91.77C42.84,90.9,41.87,91,41.63,90.85Z"></path>
      <path class="cls-10" d="M43.4,92a13,13,0,0,0,4.36,3.06,9.57,9.57,0,0,1,4.31,5c.3,1.43-.69-.92-1.25-1.5s-1.86-2.73-3.26-3A10.87,10.87,0,0,1,43.1,93C42.26,92,43,92.33,43.4,92Z"></path>
      <path class="cls-10" d="M43.41,105a7,7,0,0,1-3.21.81,5,5,0,0,0-3.4,2.3c-.39.87.58-.47,1-.74s1.5-1.38,2.38-1.19a5.53,5.53,0,0,0,3-.41C43.91,105.37,43.55,105.34,43.41,105Z"></path>
      <path class="cls-10" d="M43.53,96c-1.74.66-3.39,1.18-5.16,1.73a7.88,7.88,0,0,0-4.07,3.15c-1.08,1.48,0-.75.39-1.21a9.85,9.85,0,0,1,3.48-2.31c1.91-.59,3.7-1,4.88-2.22S43.5,95.59,43.53,96Z"></path>
      <path class="cls-10" d="M44.39,100.84c1.16.56,2.09.72,3.29,1.35A15.32,15.32,0,0,1,51,105.34c.92,1-.36-.89-.63-1.22a11.38,11.38,0,0,0-2.53-2.31,9.36,9.36,0,0,1-3.19-1.88C43.73,99,44.38,100.46,44.39,100.84Z"></path>
      <polygon class="cls-3" points="0.73 78.97 41.66 96.34 83.2 78.66 82.81 78.55 0.73 78.97"></polygon>
      <ellipse class="cls-1" cx="42.97" cy="79.49" rx="9.59" ry="3.75"></ellipse>
      <ellipse class="cls-11" cx="43.22" cy="80.76" rx="7.91" ry="3.09"></ellipse>
      <path class="cls-12" d="M44.39,75.24c.15-.71-.76-1.5-.1-.52.16-.1.29-.12.52-1.56a29.54,29.54,0,0,0,.86-6.23c0-.42-.07.73.08-2s1.46-14.75,1.49-18.57.63-5.57.4-8.7-1.93-4-3.29-.8a27.88,27.88,0,0,1-.44,7.4,18.72,18.72,0,0,0-.62,6.46c0,3.55,0,11.93-.11,15.85S42.31,72.15,44.39,75.24Z"></path>
      <path class="cls-13" d="M35.76,20.68c-.66-1.71-1.25-3.43-1.94-5.14,1.23-.47,1.26-.78,2.78-1.29s4.53-1.16,6.31-1.73c.67,1.77.94,2.62,1.64,4.62s1.79,5.16,2.56,7.38c-1.57.37-3.16.67-4.74,1Z"></path>
      <path class="cls-13" d="M45.64,66.5c.16-.23.18-.35.35-.6a10,10,0,0,1,.77-.93,1.22,1.22,0,0,1,.59-.26c.15-.53-.19.09.09-.7a33.73,33.73,0,0,1,1.2-3.79,22.91,22.91,0,0,0,2-4.24c.32-1.42.77-2.91,1.15-4.32-.33-.59-.24-.94.37-1.36a3.81,3.81,0,0,0,1.42-1.92c-.17-1.4-.36-2.81-.53-4.19A6.73,6.73,0,0,1,54,42c.47-.86.32-1.12,0-2.48s.48-5.59-.86-6.92a9.29,9.29,0,0,1-2.48-4.62c-.52-1.93-3.13-3.7-5-2,.16,1.84.3,3.33.5,5.28a43.34,43.34,0,0,1,.51,6c-.07,2.23.32,5.32-.15,7.67a41.38,41.38,0,0,0-.45,7.64c0,2.26.11,5.91,0,7.44s-.21.94-.14,1.74a5.4,5.4,0,0,1-.15,1.71,14.61,14.61,0,0,0-.15,2.2C45.69,66.16,45.66,66.08,45.64,66.5Z"></path>
      <path class="cls-14" d="M43.93,15.42c-.41-.76-1.82-1.93-.92-2.9s.84-2.9,1.58-4,2.39-4,3.65-3.94,2.48,2,3.25,3a8,8,0,0,0,3.32,2.39c1.21.4,1,1.69,1.83,2.66s1.23,2.85,1.61,4.14c-.26,1.39-.9,3.67-1.07,4.84a18.69,18.69,0,0,0,0,2.15c1,.31,1.92.69,2.88,1l-.63,1.16a1.42,1.42,0,0,0,.41.84,3.42,3.42,0,0,0,1.18.58,6.53,6.53,0,0,0,.84.12c-.08.29-.06.36-.16.71a3.46,3.46,0,0,1-.66,1.46,2.62,2.62,0,0,1-1,.47c-.3.09-.9,0-1,.24s0,.54-.11.82a3.54,3.54,0,0,1-.81,1.15,7.58,7.58,0,0,0-1.18,1c-.21.33-.28.47-.15.81a4.88,4.88,0,0,0,.88,1.07c.19.23.19.19.35.37a3.73,3.73,0,0,0-.39.4c-.14.19-.25.45-.43.69s-.44.48-.64.75-.43.55-.61.87-.08.49-.22.79-.27.78-.46,1.09a4.17,4.17,0,0,1-.52.87c-.29.3-.08.29-.63.68s-.28.54-1.57,1.16S51.52,40.63,52,40s2.18-3.76.77-3.68-3-.62-2.76-2,.62-3.21-.23-3.79.48-2.22.45-2.78-1.28.31-1.65-.12-.89-2.54-1.68-2.18-1.35,2.4-1.1,1.84-.49-6.09-.87-7.54S44.3,16.81,43.93,15.42Z"></path>
      <path class="cls-13" d="M45.53,24a24,24,0,0,1,.15-2.74c.13-.73.33-1,.43-1.63a6.92,6.92,0,0,0,.17-1.87,10.69,10.69,0,0,0-.73-2.88c-.33-.72-.76-1.47-1.06-2s-.39-.55-.67-1c-.7.7-1.42,1.37-2.14,2.06.12.37.18.69.32,1.08s.35,1,.51,1.34.35.57.49.89a7.33,7.33,0,0,1,.38.8c.12.33,0,.46.19.91s.34,1.23.53,1.8.6,1.55.78,2.08.23.68.38,1.13C45.35,24,45.44,24.06,45.53,24Z"></path>
      <path class="cls-15" d="M37.48,18.06a18.81,18.81,0,0,1-1.43-1.25,9.74,9.74,0,0,1-.92-1.29c-.3-.5-.54-1.17-.84-1.73-.84-.33-2.06-1-2.81-1.22s-1-.1-1.68-.28a4.62,4.62,0,0,1,.08.65,3.11,3.11,0,0,1-.13.81,12,12,0,0,1-.63,1.55A9.33,9.33,0,0,1,28,16.86a8.48,8.48,0,0,1-1,.79l.23.4a5.37,5.37,0,0,0,1,.12c.41,0,.89-.12,1.36-.14a4.18,4.18,0,0,1,1.66.22c.41.21.15.31.45.56s-.52.3.46.29A38.64,38.64,0,0,0,37.48,18.06Z"></path>
      <path class="cls-16" d="M31.7,12.76a6.58,6.58,0,0,1,.78.46c.3.19.82.54,1.11.76a9.8,9.8,0,0,1,.74.65,7.45,7.45,0,0,1,.53.58c.23.24.26.46.61.78a2,2,0,0,0,1.3.12c.61-.15,2.23-.2,3.14-.91s1.44-.16,3-1,3.19-7,4.5-8.14,1.49.83,1.91,1.7,1,3.18,2.78,3.11,3.33-.62,4,1.68-.16,5.83-.8,7.75-1.56,2.65-.59,4.19,3.69,1.11,5.25,1.24c.54-.28,1.17-.49,1.65-.75a1.43,1.43,0,0,0,.6-1.2c.06-.45-.33-1.28,0-1.63a12.25,12.25,0,0,1,1.19-.85c.46-.35,0-.52-.55-.88s-.38-1,.17-1.3a2.18,2.18,0,0,0,1-1.11c.23-.49.22-.86.42-1.38s-.49-.32-.82-.17-1.22.42-1.42-.07S62,15.27,61.61,15s-.66-.12-.83-.62.44-1.29.76-1.69c.19-.21-.15-.5-.39-.72a3.57,3.57,0,0,1-.79-1.29c-.13-.42-.25-.32-.61-.38s-1,.06-1.22-.39a1.17,1.17,0,0,1,.38-1.56c.57-.27.52-.27,0-.53a2.6,2.6,0,0,1-1.27-1.37A3.46,3.46,0,0,0,57,5.2c-.34-.53-.75-1-1.26-.88s-2.58.79-2.24-.09.85-1.17-.07-1.54-1.08-.34-1.31-1.08S51.82.5,50.85.38A42.32,42.32,0,0,0,46.61.13c-.85,0-.48,0-1,.39s-.51.56-1.23.4A4.82,4.82,0,0,0,42,1.18a18.1,18.1,0,0,0-2.12.76c-.45.29-.45.49-.62.82s-.08.86-.36,1.14-.51.22-.84.29-.84.08-1,.37-.24.33-.24.63a2.72,2.72,0,0,0,.1.89c.1.41,0,.65-.53.4s-2.88-.37-2,.68c0,.37.07.56,0,.95s-.12.76-.22,1.29a1.2,1.2,0,0,0,.27.86,1.4,1.4,0,0,1-.86,1.85,17,17,0,0,1-2.65.41C31.17,12.63,31.43,12.63,31.7,12.76Z"></path>
      <path class="cls-14" d="M32.61,36.45c-.24-.18-.55-.09-.94-.26a1.33,1.33,0,0,0-.82-.13,11.58,11.58,0,0,0-1.26.36c.08-.22.21-.4.28-.63s.15-.61.19-.83,0-.3,0-.49c-.22,0-.39,0-.62,0a1.17,1.17,0,0,0-.72.31c-.16.2-.39.37-.4.65a5.06,5.06,0,0,0,.09.89c.06.25.27.68.31.82s0,.27-.08.23c-.26-.12-.46-.11-.7-.52s-.68-1.54-.91-2a2.36,2.36,0,0,0-1-1.21,4.39,4.39,0,0,1-.69-.26c.17-.17.32-.18.49-.41a2.45,2.45,0,0,0,.36-1.46,6.59,6.59,0,0,0-.22-1,3.7,3.7,0,0,0,.45,0,5.36,5.36,0,0,0,1.72-.31A1.53,1.53,0,0,0,29,28.86a1.51,1.51,0,0,0-.67-1.13c-.33-.23-.74-.29-1-.49s-.23-.29-.44-.5c.63-.1.13-.15,1-.26s2.22.28,3.59-.08,3.86-1.39,5.43-1.85c.88,0,1.68,0,2.53,0,.91.81,1.8,1.09,2.72,2a39.54,39.54,0,0,1,2.88,3.56c-2.75,1.46-8.37,4.51-10.45,5.57S34,35.77,32.61,36.45Z"></path>
      <path class="cls-13" d="M43.81,29.63a4.9,4.9,0,0,1-.26-2.55c.16-.73.66-2.67,1.35-2.88a5.54,5.54,0,0,0-1.12-.91,7.33,7.33,0,0,0-2.49-.87,3.33,3.33,0,0,0-1.72.23,3.19,3.19,0,0,1-1.3.44c-.48.72-1,1.44-1.46,2.15l1.14.1c.39,0,.94-.06,1.29,0a2.71,2.71,0,0,1,.89.22c.23.1.3.26.51.49s.51.84.72,1.13a4.89,4.89,0,0,0,.49.66,8.28,8.28,0,0,0,1,.81C43.15,28.93,43.49,29.34,43.81,29.63Z"></path>
      <path class="cls-16" d="M30.11,19.94c.49-.26,1.25-.77,1.66-1a8.11,8.11,0,0,1,.89-.38c.33-.14.58-.23.9-.34s.66-.24,1-.34l.84-.23a1.64,1.64,0,0,1,.88,0,2.64,2.64,0,0,1,.81.22c.26.17.31-.13.63.26s.74-.26,1,1,1.53,3-.45,5.36S30.55,28.91,27,26.7a2.86,2.86,0,0,0,.81-.24,2.27,2.27,0,0,0,.89-.47,3.16,3.16,0,0,0,.52-1.51,6.48,6.48,0,0,0-.11-1.72c-.09-.41-.09-.56.23-.67a5,5,0,0,1,1.22,0c.25,0,.88.38.88.11s-.93-1.39-1.07-1.71A4.4,4.4,0,0,1,30.11,19.94Z"></path>
      <path class="cls-13" d="M43.31,61.53A83.21,83.21,0,0,1,43.43,53,49,49,0,0,0,43,46.47c-1.13-1.15-2.24-2.36-3.37-3.54l-2.75.64a2.27,2.27,0,0,1,.48.84A1.66,1.66,0,0,1,37,45.67c-.27.21-.39.24-.61.44.2,0,.38.18.59.21s.5,0,.74,0c0,.37,0,.89-.06,1.23s0,.56,0,.85,0,.5-.14.78a2.77,2.77,0,0,1-.68.77c-.34.28-1,.68-1.44,1,0,.11.1.21.14.32l1.28.19c.25.47.47,1,.75,1.44.08.14.3.16.4.28l-.63.92c.07.37.21.74.27,1.11a9.72,9.72,0,0,0,.1,1.06,2.62,2.62,0,0,0,.24.76c.24.52.87,1.76,1.22,2.4.77.41,1.69.91,2.4,1.25S42.67,61.19,43.31,61.53Z"></path>
      <path class="cls-16" d="M43.17,58.76c.24-.08.46-.23.7-.33.09-.49.25-1.06.33-1.53s.15-.6.21-1.12.06-1.4.09-2a8.5,8.5,0,0,0,0-1.74,12,12,0,0,1-.18-1.32c0-.52-.07-1-.08-1.63a19.33,19.33,0,0,1,.16-2.06c.06-.55.41-.42.25-1.06a10.18,10.18,0,0,0-.9-2.84,20.12,20.12,0,0,0-1.43-1.48c-.76.25-2.68.67-3,1.22s.29.74.16,1.21c.31.19.63.33.91.54a7.15,7.15,0,0,1,.78.66,5.14,5.14,0,0,1,.65.75c.17.28.13.27.23.74s.29,1.73.38,2.24.09.37.16.91a17.71,17.71,0,0,1,.18,2.12,2.22,2.22,0,0,0,.09.87,2.27,2.27,0,0,1,.29,1.28c-.1.46-.34.4-.2,1.14A29.18,29.18,0,0,1,43.17,58.76Z"></path>
      <path class="cls-16" d="M44.71,46.06c-.36-.7-.81-1.87-1.16-2.44a6.78,6.78,0,0,0-.85-1c-.35-.44-.81-.81-1.17-1.27a13.05,13.05,0,0,1,.11-4.48c.39-1,1,0,1.41-.8s-1-4.06-.69-4.94a1.26,1.26,0,0,1,1.5-.81c.27.07.4.19.38.07-.09-.48-.32-.44-.51-1a5.43,5.43,0,0,1-.61-2.21,9.84,9.84,0,0,1,.79-2.78c.32-.49.36-.2.61-.57.16.33.45.37.59.72a3.89,3.89,0,0,1,.48,1.16c.13.68.16,1.83.28,2.81s.4,3.4.49,4.23.08.92.11,1.35,0,.62-.23.76a.49.49,0,0,0-.28.41c-.05.24-.16.44-.22.7s-.16.6-.2.89a4.61,4.61,0,0,0-.07.78c0,.35,0,.87,0,1.29s0,.81,0,1.3.09,1.13.08,1.67a13.22,13.22,0,0,1-.11,1.66c-.09.53-.33,1.34-.45,1.76S44.82,45.74,44.71,46.06Z"></path>
      <path class="cls-13" d="M33.94,44.11c.22.19.32.35.68.28a8,8,0,0,0,1.11-.4,4,4,0,0,1,1.46-.41,6.06,6.06,0,0,1,2,.38c.64.24.64-.32,1.19-.59s1.13.59,1.64-.41-.21-4.5.3-5.37,1-.33,1.44-.17.82-.9.52-1.64-1.82-4.35-1.23-5.06.7-.11,1.17-.16c-.31-.17-.59-.53-.88-.71a7.7,7.7,0,0,0-.94-.43c-.27-.11-.35-.08-.61-.17s-.76-.3-1-.38-.27-.07-.46-.13l-.67-.19a2.9,2.9,0,0,0-.34-.09,1.14,1.14,0,0,0-.41,0c-.16,0-.2.11-.42.16s-.67.18-.91.22-.43,0-.66.05-.49,0-.69,0-.33-.08-.52,0,0,0-.18.18-.61.65-.78.83-.31.38-.42.53a2.31,2.31,0,0,0-.21.35c-.07.13-.1.24-.16.37s-.09.26-.16.4a3.74,3.74,0,0,1-.22.45,3.52,3.52,0,0,1-.35.31l.66-.29c.27-.11.77-.37,1-.47a5,5,0,0,1,.65-.22,1.93,1.93,0,0,1,.53,0,1.9,1.9,0,0,1,.48.14,2.38,2.38,0,0,1,.43.3c.13.1.21.21.35.34s.25.39.41.54.31.19.45.3c-.13,0-.07.07-.24.13s-.65.13-.85.2a3.39,3.39,0,0,0-.51.2c-.18.1-.38.27-.54.37l-.38.27-.39.28c-.18.12-.59.42-.78.53l-.35.21a5.57,5.57,0,0,1-.54.26c-.24.12-.69.3-1,.44s-.74.26-1,.41a2.85,2.85,0,0,0-.58.48,3.21,3.21,0,0,0-.42.59c0,.07-.06.21,0,.27a1.32,1.32,0,0,0,.5.33,1,1,0,0,0,1-.07,8.66,8.66,0,0,1,1.5-.94,9.37,9.37,0,0,1,1.13-.22c-.13.13-.37.23-.48.36s-.46.68-.59.87-.06.16-.16.3a5,5,0,0,1,.77-.09,2.93,2.93,0,0,1,.86.21,4.67,4.67,0,0,1,.81.48c.18.13.23.35.4.49-.27.08-.19,0-.55.13s-1.13.39-1.57.52c.18.15.33.17.55.34a6.15,6.15,0,0,1,.82.58,1.65,1.65,0,0,1,.37.62,2.89,2.89,0,0,1,0,1.1,1.22,1.22,0,0,1-.36.6,7.79,7.79,0,0,1-1.08.72C34.33,44.06,34.2,44,33.94,44.11Z"></path>
      <path class="cls-13" d="M47.62,64.59c-.38,0-.82,0-1-.63a4.24,4.24,0,0,1,.79-2.69c.81-1.16,1.63-3.16,2.28-4.18s-.06-1.2,0-2,1.69-2.25,1.76-3.47,1.78-2.43,1.46-3.49-2.36-.64-3.15-.73c.46-.67,1.25-1.83,1.67-2.42s.7-1,1-1.34.35-.45.56-.72.36-.4.57-.67c0,.19.09.08,0,.33s-.26.72,0,1.08a1.88,1.88,0,0,0,1.53.72,5.78,5.78,0,0,0,1.28-.5c0,.24.1.32,0,.59a5.07,5.07,0,0,1-.51,1.09,4.71,4.71,0,0,1-.91.78c-.27.2-.31.18-.27.55s.46.77.24,1.25a3.41,3.41,0,0,1-1.21,1.3c-.47.3-1.22.66-1.65.9s-.71.73-.32,1a1.6,1.6,0,0,0,1.43.27c.45-.13.26.2.2.63a1.65,1.65,0,0,1-1.08,1c-.44.07-.89.59-.65.9s.27.26.46.51l.58-.19c-.07.21,0,.31-.14.54a3.08,3.08,0,0,1-.5.79c-.21.21-.62.27-.32.65s.78.76.84,1.32a2.88,2.88,0,0,1-.42,1.73c-.12-.24-.17-.42-.28-.68s-.34-.66-.66-.74a1.18,1.18,0,0,0-1,.06.72.72,0,0,0-.18.91c.17.28.85.57.82.85s-.18.29-.43.5-1,.51-1.34.68-.29.22-.31.51,0,.64,0,.93a.83.83,0,0,1-.42.68c-.25.11-.32.16-.25.39s.6.64.29.76A1.93,1.93,0,0,1,47.62,64.59Z"></path>
      <path class="cls-12" d="M44.4,75.23a20.9,20.9,0,0,0-.82-2.57,11.35,11.35,0,0,1-.32-4.39c.22-1.17.29-1.54.44-2.68s.25-2.75.45-4a1.7,1.7,0,0,0,0-1.13c-.12-.59-.19-1.78-.41-2.51s-.6-2-.76-2.65a1.31,1.31,0,0,0-.61-.95c-.31-.22-.51,0-.79-.2a1.65,1.65,0,0,1-.6-.69A6.29,6.29,0,0,0,40,52.18a3.27,3.27,0,0,0-.87-.69,1.93,1.93,0,0,0-1.54-.11c-.41.18-.71.21-.95.52s-.33.73-.55,1.06c.26,0,.46-.1.72-.09a2.34,2.34,0,0,1,.78.19c.29.12.09.39-.08.47s-.5.35-.38.45c.31.27.11-.08.66.24a8,8,0,0,1,2.33,1.89c.23.33.94,1.16,1.24,1.57s.63.9.86,1.29.43.74.61,1.1a9,9,0,0,1,.35,1.08c-.2-.22-.3-.41-.51-.63s-.23-.44-.65-.56-1.25-.32-1.74-.51a9.57,9.57,0,0,1-1.53-.79c-.39-.26-.32-.39-.83-.47s-1.34-.06-1.92-.12c.21.24.17.2.46.51s.9,1,1.27,1.39.78.71,1.15,1,.77.55,1.14.86l-.95.28a4.61,4.61,0,0,1-.52.23c.23.32,0,.33.43.68s1.31,1,1.53,1.68.39,1.09.63,1.68.25.9.58,1.59a7.81,7.81,0,0,1,.85,2.68,11.2,11.2,0,0,0,.77,3A7.91,7.91,0,0,0,44.4,75.23Z"></path>
      <path class="cls-17" d="M44.39,75.21c-1.18-1.53-1.65-4-2-5.59a29.8,29.8,0,0,0-1.25-3.36,5.63,5.63,0,0,0-1.58-2.73,1.9,1.9,0,0,1-.89-1.13c-.19-.47,1.64-.42,1.38-.58s-2.28-1.53-2.43-2S36,58.22,36.12,58.07a7,7,0,0,1,2.33.22c.61.15-.71-1.56-.78-2.21s-.09-1.82-.67-2,1.34-.64,1-.67-1.17-.7-1.92-.26a3.21,3.21,0,0,1,1-1.63c-.33-.26-1.66.09-1.71-.51s2-1.22,2.19-2.13a16.15,16.15,0,0,1,.14-2.55,2,2,0,0,1-1.42-.14A1.72,1.72,0,0,0,37.09,44c-.05-.14-.26-.41-.78-.23s-1.73,1-2.35.36c.87-.38,1.63-.38,2.08-1.53s-.59-2.38-1.89-2.55c.56-.58,1.85-.35,2.31-.86s-2.48-1.33-2.82-1c.34-.67.57-1.38,1.41-1.58s-1.84.67-2.89,1.23c-.11.06-.73.24-1,0s-.45-.25-.62-.46c.22-.48.86-.8,1.07-1.26s-1.89.17-2.08.42.41-1.5.5-2.14c-1.94,0-1.78,1.43-1.24,2.91-.76.07-1.5-1.13-1.56-2.1s-1.55-1.45-1.84-2,1.5-1.44.54-2.8c1.24,0,2.91-.12,2.92-1.58S27.44,27.81,27,26.74a2.65,2.65,0,0,0,2.13-1.62c.34-.95,0-1.67,0-2.62s1.81-.35,2.48-.08S30.61,20.79,30.1,20c.49-.51,1.23-.29,1.57-1.09s-1.92-1-2.52-.81-1.82.36-2.11-.42a6.13,6.13,0,0,0,2.3-2.83,2.8,2.8,0,0,0,.24-2.63,3.74,3.74,0,0,0,2.64.25c1.24-.19,3.22-1,1.83-2.74a3.86,3.86,0,0,0,.11-2.83c-.39-.86,2.36-.32,2.64-.18s-.28-1.67.27-2.14a2.81,2.81,0,0,1,1.6-.41c.55,0,.52-2,1.42-2.28A14.83,14.83,0,0,1,43.53.77c.84,0,.79.24,1.48.21s.24-.84,1.1-.82,3.49.13,4.36.17,1.1.12,1.48.55,0,1,.46,1.31a7.64,7.64,0,0,0,1.9.8c-.19.43-1.1,1-.62,1.6s1.71-.51,2.46-.27,1.37,1.77,1.68,2.51,1.35,1,1.88,1.5c-.58-.08-1-.15-1.3.52s.4,1.38.94,1.42.66,0,.75-.35a8,8,0,0,1,.45,1.46c.12.52.9.62,1.21,1-.43.4-1.25,1.38-1,1.94s1,.48,1.15,1,.22,1.13.73,1.3,1.67-.56,1.88-.36-.42,2.32-1,2.53-1.33,1-1,1.44,1.2.36,1.12.83-1.67.52-1.52,1.35A2.86,2.86,0,0,1,61.66,25c-.66.61-1.56.39-2.16,1s2,1.59,2.36,1.42A3.19,3.19,0,0,1,60.47,30c-.71.35-1.36,0-1.44.82a2.76,2.76,0,0,1-1.29,1.87c-.65.45-1.2,1-.82,1.71s.9.77,1.32,1.32c-.46.26-.7.18-.94.83s-1.22,1.22-1.4,2.08a7.42,7.42,0,0,1-1.31,2.73c-.58.7-1.5,1.32-.9,2.3s1.84.84,2.76.23a2.7,2.7,0,0,1-1.63,2.55c-.09.55-.13.45.14,1.15s-.66,1.8-1.5,2-2.41,1.19-1.65,1.76a1.27,1.27,0,0,0,1.48.27c.57-.14-.11,1.19-.37,1.38s-1.44.22-1.26.89.51.93,1.21.49a5.76,5.76,0,0,1-.58,1.2c-.21.46-1,.34-.32,1.06a2.16,2.16,0,0,1,.15,2.93,1.55,1.55,0,0,0-.83-1.49c-.55-.21-1.18-.08-1.28.5s.58,1,.9,1.23-.91.94-1.2,1.06-.86.23-.87.68a4.44,4.44,0,0,1-.05,1.38c-.15.37-.54.07-.61.39s.19.61.31.9-1.38.4-1.79.81a2.94,2.94,0,0,0-1,2.16,10.07,10.07,0,0,1-.29,3.44c-.35,1.1-.53,3.23-.91,4.15S43.79,72.27,44.39,75.21Z"></path>
      <path class="cls-18" d="M43.65.73a21.34,21.34,0,0,1,.24,2.13A11,11,0,0,1,43.78,5a12.76,12.76,0,0,0-.16,4.22c-.1,3,2.37,5.07,2.75,8a6.64,6.64,0,0,1,0,2.18c-.11.72-.33,1.41-.47,2.09a7.67,7.67,0,0,0-.17,2.08l.21,2.12c.29,2.82.54,5.71.86,8.48.06.34.16.66.25,1a3.2,3.2,0,0,1,.09,1.15c-.1.77-.24,1.4-.29,2.12A17.19,17.19,0,0,0,47,42.67,15.2,15.2,0,0,1,46.69,47c-.07.67-.07,1.41-.15,2.12s-.13,1.41-.14,2.11c0,2.81.44,5.66.05,8.57a11.6,11.6,0,0,0-.31,2.09c0,.71-.11,1.43-.18,2.14a23.25,23.25,0,0,0-.23,4.24h-.06a10.27,10.27,0,0,1-.1-2.15l.1-2.13c0-.72.09-1.42.09-2.13A14,14,0,0,1,46,59.73c.28-2.77-.23-5.62-.25-8.5,0-.73.08-1.45.14-2.16s.07-1.39.15-2.13a14.9,14.9,0,0,0,.29-4.16,17.61,17.61,0,0,1-.09-4.35c0-.7.23-1.46.32-2.11a6.65,6.65,0,0,0-.31-2c-.3-2.89-.51-5.69-.77-8.54l-.18-2.13a8,8,0,0,1,.2-2.18c.16-.7.37-1.38.49-2.07a6.25,6.25,0,0,0,0-2.07,11.89,11.89,0,0,0-1.46-3.94,7.41,7.41,0,0,1-.85-2,17.64,17.64,0,0,1-.31-2.13A12.75,12.75,0,0,1,43.66,5a12.52,12.52,0,0,0,.14-2.12c0-.71-.13-1.42-.21-2.12Z"></path>
      <path class="cls-18" d="M36.83,6.7a9.37,9.37,0,0,1,1.92,1.8,8.65,8.65,0,0,1,.66,1.14c.21.39.42.77.65,1.15s.45.75.69,1.12A9.69,9.69,0,0,1,41.46,13a23.5,23.5,0,0,1,.77,2.52c.23.84.83,1.52,1.11,2.38s.42,1.72.75,2.53a43.33,43.33,0,0,1,1.73,5l-.31.06a41.48,41.48,0,0,0-1.65-5c-.32-.83-.45-1.72-.71-2.54s-.84-1.53-1.08-2.4a22.24,22.24,0,0,0-.72-2.52A9.29,9.29,0,0,0,40.67,12c-.24-.37-.47-.75-.68-1.13s-.43-.77-.63-1.16a8,8,0,0,0-.65-1.14A8.82,8.82,0,0,0,36.83,6.7Z"></path>
      <path class="cls-18" d="M33.85,12a14.3,14.3,0,0,1,3.1.61,8.15,8.15,0,0,1,2.74,1.57,9.15,9.15,0,0,1,1.94,2.49c.56.87,1.58,1.39,2,2.45l-.22.08c-.37-.94-1.37-1.51-2-2.43a9,9,0,0,0-1.87-2.5,8,8,0,0,0-2.68-1.6A14.11,14.11,0,0,0,33.85,12Z"></path>
      <path class="cls-18" d="M31.73,19c.65-.31,1.32-.59,2-.84a7,7,0,0,1,2.11-.51c.76-.07,1.39.4,2.1.52a4.77,4.77,0,0,0,2.11.26,3.91,3.91,0,0,1,2.17,0,1.46,1.46,0,0,1,.81.77,5.51,5.51,0,0,1,.37,1,6.56,6.56,0,0,0,.35,1,3.4,3.4,0,0,0,.67.82,7.31,7.31,0,0,1,1,2l-.22.1a7.62,7.62,0,0,0-.91-1.93,3.23,3.23,0,0,1-.68-.86,6.06,6.06,0,0,1-.35-1c-.2-.67-.39-1.45-1.06-1.71a3.74,3.74,0,0,0-2.1,0,5.1,5.1,0,0,1-2.16-.29c-.71-.13-1.33-.61-2.07-.55a7.34,7.34,0,0,0-2.1.47C33.05,18.38,32.39,18.66,31.73,19Z"></path>
      <path class="cls-19" d="M31.3,12.52A18.52,18.52,0,0,1,33.62,14a9.64,9.64,0,0,1,2,2.25,5.14,5.14,0,0,0,2.67,2"></path>
      <path class="cls-20" d="M46.78,36.83a21.7,21.7,0,0,0-1.38-4.17,16.14,16.14,0,0,0-1.49-2.89,5.8,5.8,0,0,0-1.54-1.43c-.78-.54-1.23-1.71-1.88-2.47s-1.52-.54-2.61-.57a7.34,7.34,0,0,1-3.82-1c-1-.74-1.74-1.7-2.91-1.89a20.35,20.35,0,0,0,6.6.94c1.94-.22,2.48-1.29,4.44-.68a4.62,4.62,0,0,1,3.59,4.07,3.64,3.64,0,0,1,1.34-3,7,7,0,0,0,1.67-4.36c-.08-1.35-.8-1.85-.12-3s2.36-1.69,2.6-3.07-.62-2.83,0-4,1.58-1.65,1.86-2.91,0-2.54,1.23-3.35"></path>
      <path class="cls-18" d="M44.47,31a4.69,4.69,0,0,0-1.77-1.39c-.73-.23-1.48-.5-2.21-.75a9.67,9.67,0,0,0-1.12-.3.8.8,0,0,0-.52.06l-.57.16a6.58,6.58,0,0,1-2.34.19,3.54,3.54,0,0,1-1.11-.37,7.44,7.44,0,0,0-1.1-.36,16.41,16.41,0,0,0-2.3-.36A9.65,9.65,0,0,1,27,26.74a9.66,9.66,0,0,0,4.48,1.09,18,18,0,0,1,2.32.33,7.63,7.63,0,0,1,1.12.35,3.48,3.48,0,0,0,1.09.35,6.28,6.28,0,0,0,2.28-.22l.56-.16a1,1,0,0,1,.61-.07,9.07,9.07,0,0,1,1.14.29c.75.24,1.46.5,2.22.72a4.86,4.86,0,0,1,1.88,1.44Z"></path>
      <path class="cls-20" d="M43.62,72.71a11.2,11.2,0,0,1-.23-5.07c.21-1.43.29-2.71.45-3.86a11,11,0,0,0,.3-2.9,6.81,6.81,0,0,1-.28-2.34,21.2,21.2,0,0,0,.6-3.27,24.47,24.47,0,0,0,0-3.52,15.26,15.26,0,0,1,.26-5.65,10.56,10.56,0,0,0,.83-4.47,19.7,19.7,0,0,1,.19-5.57,3.45,3.45,0,0,0,0-2.75"></path>
      <path class="cls-18" d="M45.59,36A7.27,7.27,0,0,0,42,33.58a10.6,10.6,0,0,0-2.19-.42L38.7,33c-.35,0-.83-.08-1.05-.47a1.78,1.78,0,0,0-.71-.82,2,2,0,0,0-1-.37,2.22,2.22,0,0,0-1.06.26l-1,.44a12.6,12.6,0,0,0-2,1c-.62.42-1.16,1-1.76,1.41.59-.47,1.12-1,1.74-1.44a12.33,12.33,0,0,1,2-1l1-.45a2.31,2.31,0,0,1,1.1-.29,2.1,2.1,0,0,1,1.09.38,1.79,1.79,0,0,1,.76.85c.17.3.57.34.94.37l1.12.1a10.73,10.73,0,0,1,2.24.39,7.58,7.58,0,0,1,3.78,2.51Z"></path>
      <path class="cls-18" d="M38.84,33.07a6,6,0,0,0-1.91.36,12.88,12.88,0,0,0-1.65,1.07,15.23,15.23,0,0,1-3.57,1.71,14.52,14.52,0,0,0,3.5-1.81,12,12,0,0,1,1.64-1.14,6.38,6.38,0,0,1,2-.43Z"></path>
      <path class="cls-19" d="M35.75,28.86a13.72,13.72,0,0,0-1.38,1.57c-.4.59-.46,1.47-1.1,1.87"></path>
      <path class="cls-20" d="M44.73,46.08a9.14,9.14,0,0,0-1.91-3.38A20.43,20.43,0,0,1,39.67,39c-1-1.55-2.58-2.9-4.63-2.33"></path>
      <path class="cls-20" d="M44.35,51.15a26.62,26.62,0,0,0-2.5-5c-1.52-1.93-3.2-2.77-5.47-2.42"></path>
      <path class="cls-18" d="M43.66,58.62c-.17-1.09-.62-2.14-.83-3.26a6.14,6.14,0,0,1,0-1.71,2.8,2.8,0,0,0-.49-1.53v0a13.79,13.79,0,0,1-1.37-1.29,9.3,9.3,0,0,1-.83-1.71,6.33,6.33,0,0,0-.88-1.64c-.41-.47-.84-.94-1.21-1.44.39.5.82.95,1.24,1.41a6.2,6.2,0,0,1,.93,1.64A9.26,9.26,0,0,0,41,50.77,13,13,0,0,0,42.43,52h0A2.93,2.93,0,0,1,43,53.65a6.1,6.1,0,0,0,.07,1.66c.23,1.08.7,2.12.91,3.25Z"></path>
      <path class="cls-18" d="M42.78,55.18a1.88,1.88,0,0,0-.45-.67,3.12,3.12,0,0,0-.8-.28,1.19,1.19,0,0,1-.61-.66c-.14-.26-.27-.51-.43-.75a4.19,4.19,0,0,0-1.23-1.18,1.87,1.87,0,0,0-1.65-.23,1.92,1.92,0,0,1,1.68.17,4.38,4.38,0,0,1,1.29,1.17,5.87,5.87,0,0,1,.47.75,1,1,0,0,0,.55.56,3.19,3.19,0,0,1,.85.27,2,2,0,0,1,.54.73Z"></path>
      <path class="cls-20" d="M43.88,63.78a29.55,29.55,0,0,0-1-3.55c-.74-1.87-3.33-5.81-5.91-6.17"></path>
      <path class="cls-20" d="M43.57,62.42c-.43-.86-.52-2.11-1.63-2.47s-2.65-.68-3.52-1.64"></path>
      <path class="cls-20" d="M45.9,62.75a13.71,13.71,0,0,1,1.31-4.33A17.23,17.23,0,0,0,48.48,55a8.9,8.9,0,0,1,3-4"></path>
      <path class="cls-18" d="M47.67,57.42a12.26,12.26,0,0,1-.36-4c.1-.67.25-1.31.37-2A11.3,11.3,0,0,0,48,49.56h0a4.16,4.16,0,0,1-.17,2,5.87,5.87,0,0,0-.43,1.93c0,1.31.29,2.61.26,4Z"></path>
      <path class="cls-18" d="M46,51a16.74,16.74,0,0,0,2.39-1.92,17.41,17.41,0,0,0,1.79-2.5c.57-.86,1.15-1.72,1.77-2.54.31-.41.64-.82,1-1.2a3,3,0,0,1,1.2-.95,3.13,3.13,0,0,0-1.17,1c-.33.4-.65.81-.94,1.23-.6.84-1.16,1.7-1.71,2.58a18.14,18.14,0,0,1-1.74,2.57,17.17,17.17,0,0,1-2.37,2Z"></path>
      <path class="cls-18" d="M49.1,48.18a27,27,0,0,0,5.72-1.77,27.44,27.44,0,0,1-5.66,2.09Z"></path>
      <path class="cls-17" d="M46.43,46.48c.46-1.45.61-3.1,1.52-4.41a32.52,32.52,0,0,0,3-4.84,3.21,3.21,0,0,1,1.58-1.95,2.11,2.11,0,0,1,1-.38,8.45,8.45,0,0,1,4.68.78"></path>
      <path class="cls-17" d="M59.43,26c-2.2,1-3.33,4.59-4.15,6.27s-1.12,2.18-2.49,2.92"></path>
      <path class="cls-18" d="M50.24,38.53a12.42,12.42,0,0,0,1-2.56,5.68,5.68,0,0,0,.22-1.36,10.85,10.85,0,0,1,.06-1.39c0-.47.14-.93.23-1.38a3.08,3.08,0,0,1,.47-1.34c.31-.39.75-.6,1-1s.43-.81.67-1.21a5.46,5.46,0,0,1,.85-1.14c.37-.34.75-.56,1.11-.86a8,8,0,0,0,1-.92,6,6,0,0,1,1-1c.79-.54,1.63-.9,2.43-1.38s1.62-.9,2.44-1.33l0,0c-1.53,1-3.2,1.94-4.7,2.94a5.86,5.86,0,0,0-1,1,7.82,7.82,0,0,1-1,.95c-.37.29-.79.53-1.11.82a4.81,4.81,0,0,0-.83,1.06c-.24.4-.42.81-.7,1.22s-.75.61-1,.95A2.92,2.92,0,0,0,52,31.88c-.1.45-.19.9-.25,1.36a10.54,10.54,0,0,0-.09,1.38A5.9,5.9,0,0,1,51.38,36a12.55,12.55,0,0,1-1.11,2.55Z"></path>
      <path class="cls-20" d="M46.79,35.89c.1-.86-.18-1.9.48-2.64s1.74-1.53,1.93-2.7a20.68,20.68,0,0,1,.79-4c.42-1.06.86-1.42,1.33-2.4A24.61,24.61,0,0,0,52.62,21a11,11,0,0,1,2-3.29c.83-1,1.2-1.51,2.27-2.66A15.1,15.1,0,0,0,60.06,10"></path>
      <path class="cls-20" d="M55.48,25.73c-.12.43-.23.87-.32,1.32"></path>
      <path class="cls-20" d="M57.74,21.68A14.53,14.53,0,0,1,56.6,23a7.16,7.16,0,0,0-1.12,2.73"></path>
      <path class="cls-20" d="M59.08,19.7a7.83,7.83,0,0,1-1.35,2"></path>
      <path class="cls-20" d="M61.88,16a6.65,6.65,0,0,0-2.8,3.68"></path>
      <path class="cls-20" d="M56.62,22.94a12.25,12.25,0,0,1-.21-3.57,7.38,7.38,0,0,0-.22-3.53"></path>
      <path class="cls-20" d="M52,31.16A2.85,2.85,0,0,0,52.16,29a6.49,6.49,0,0,1-.42-2.67c.13-.95-.22-2.14,0-3.11"></path>
      <path class="cls-18" d="M43.58,10.83a16.89,16.89,0,0,0-.7-2,6.64,6.64,0,0,0-1.27-1.68,17.83,17.83,0,0,1-1.28-1.72c-.38-.62-1.15-.8-1.69-1.26.55.45,1.31.61,1.73,1.24a15.06,15.06,0,0,0,1.3,1.68A7.26,7.26,0,0,1,43,8.78a17.76,17.76,0,0,1,.74,2Z"></path>
      <path class="cls-20" d="M48.63,16.3a31.1,31.1,0,0,0-1-5.2,7.35,7.35,0,0,1,1-5.49c.88-1.22,1.73-1.64,1.92-2.87S50.37.51,52,.88"></path>
      <path class="cls-18" d="M48.16,6.28a4.67,4.67,0,0,0-.88-3.12,8.3,8.3,0,0,1-.93-1.4A3.48,3.48,0,0,1,46,.12a3.47,3.47,0,0,0,.41,1.61,8,8,0,0,0,1,1.36,3.89,3.89,0,0,1,.8,1.5,7.4,7.4,0,0,1,.24,1.68Z"></path>
      <path class="cls-18" d="M47.32,10.18a9.52,9.52,0,0,0-.45-2.11c-.23-.69-.92-1-1.51-1.47a3.35,3.35,0,0,1-1.2-1.84,9.5,9.5,0,0,1-.33-2.18,9.61,9.61,0,0,0,.4,2.15,3.22,3.22,0,0,0,1.23,1.74l.91.61a2.16,2.16,0,0,1,.72.89,9.29,9.29,0,0,1,.54,2.15Z"></path>
      <path class="cls-17" d="M51.12,13.82a4.56,4.56,0,0,0,2-2.19c.51-1.07,1.66-2,2.11-3.22a8,8,0,0,0,.14-4"></path>
      <path class="cls-20" d="M58.39,8.84c-1.16.87-2.78,2.48-3.8,3.27a6,6,0,0,1-2.53,1,9.65,9.65,0,0,1,.18,2.42c0,1.16,1.27,3,.9,4.33"></path>
      <path class="cls-18" d="M55.11,8.57a2.56,2.56,0,0,1-1-1.82,7.27,7.27,0,0,1-.06-2,7.1,7.1,0,0,0,.22,2,2.33,2.33,0,0,0,1,1.59Z"></path>
      <path class="cls-20" d="M55.27,11.54A18.15,18.15,0,0,1,52.59,17"></path>
      <path class="cls-20" d="M50,26.5a5.92,5.92,0,0,1-.61-2.72,4,4,0,0,0-.77-2.9"></path>
      <path class="cls-18" d="M42.77,52.94a14.7,14.7,0,0,1-.12-1.75,10.06,10.06,0,0,0-.19-1.72,15,15,0,0,0-.64-3.41,15,15,0,0,1,.72,3.4,11.07,11.07,0,0,1,.23,1.73,16.16,16.16,0,0,0,.16,1.72Z"></path>
      <path class="cls-18" d="M53.45,34.77a12.13,12.13,0,0,1,1.65-.83,3.32,3.32,0,0,0,1.31-1.16,15.4,15.4,0,0,1,1.14-1.42,3.46,3.46,0,0,1,1.5-1,3.43,3.43,0,0,0-1.44,1.05,15.31,15.31,0,0,0-1.07,1.47,3.63,3.63,0,0,1-1.33,1.28,11.06,11.06,0,0,0-1.56.87Z"></path>
      <path class="cls-21" d="M85.91,36.57a9.57,9.57,0,0,1,2.46-1.89c1.1-.48,2.63-.85,3.46,0s-.35-1-.33-1.14A2.85,2.85,0,0,0,90,33c-.61,0-2.3,0-2.31-.71s.55-1.83,0-2.26A1.82,1.82,0,0,0,86,29.78a2.6,2.6,0,0,1-.78-1.08c-.26-.55-.79-.52-1.59-.44a3,3,0,0,0-2.24,1c-.15.48,0,1.24-.63,1.44s-1.44,0-1.09-1a4.2,4.2,0,0,1,.59-.83c.23-.26.77-1,.32-1.32A2.15,2.15,0,0,0,79,27c-.65.06-2.18.08-2.56.66s-.22,1.17-1,1.18-.9-.29-1.33-.84-1.22-.92-1.51-.32-.44,1.31-.85,1.59-.05.51-.4,1.51-1.44,4.61-2.2,5.68-1.15,3.08.31,3.88,5.92.84,7.79.38,4.84-.87,6.06-1.89S85,37.36,85.91,36.57Z"></path>
      <path class="cls-21" d="M44.68,73.56a15.68,15.68,0,0,1-1.09,1.87c-.22.38-.07.27-.25.4s-.07,0-.29.13a2.24,2.24,0,0,1-.81.4c-.44.13-.7-.27-.19-1a5.43,5.43,0,0,0,.44-2.51,6.54,6.54,0,0,1,.6-3c.34-.78,1-1.83,1.26-2.42s0-1.06.37-1.35.66-.28.29-.73-.19-.77.18-1.1c-.14-.39,0-.19-.43-.6a2.74,2.74,0,0,1-.77-2.4c.06-.18.44-.3.73-.2a2.41,2.41,0,0,0,.93.12.45.45,0,0,0,.42-.64c-.12-.4-.4-1.21-.11-1.6a1.54,1.54,0,0,0,.33-1.27c-.11-.31-.41-.69-.16-.8s.67.59.8.76.25.72.52.67.14-.34.31-.58.7-.67.76-1-.1-.76,0-1,.48-.07.6-.32-.2-.41-.05-.71.62-.55.85-.93a2.31,2.31,0,0,0,.49-1.31,5,5,0,0,0-.36-1.52c-.18-.49-.22-.69.37-1a3,3,0,0,0,1.81-1.38c.37-.86,1.31-2.67,1.07-3.75a1.22,1.22,0,0,0-.06-1c-.17-.27-.44-.66-.35-.94s.57-.11.77-.16.3-.25.39-.47.13-.53-.17-.61-.71-.28-.7-.59.05-.49.36-.44.81.37,1.11.24.47-.3.24-.62-.48-.64-.26-1.09a9.94,9.94,0,0,1,.64-1.43c.26-.34.51.26.79.42.06,0,.61.32.84.25s.3,0,.28-.32a1,1,0,0,1,.5-1c.42-.22.6-.33.7-.86a.64.64,0,0,1,1.22-.11,2.78,2.78,0,0,1,.09.91.57.57,0,0,0,.72.43,1.17,1.17,0,0,0,.7-.81c.1-.41.12-1.17.21-1.64a1.48,1.48,0,0,1,.71-1c.34-.18.86-.46.5-.57s-.69.24-.7-.33a1.34,1.34,0,0,1,1.24-1.26c.16,0,.65.14.7.5a.48.48,0,0,0,.65.37,1.65,1.65,0,0,0-.07-.72c-.08-.32-.2-.64.19-.92a3.74,3.74,0,0,1,1.54-.71c.49,0,.87.27,1.28.21s.65-.57,1.08-.37,1.07,0,1.15-.37.3.8.45,1.41.84,1,.29,2.15.2,0-1.27,2,1.3-2.28-2.48,3.55S48.5,64.08,44.68,73.56Z"></path>
      <path class="cls-22" d="M79.53,41.26A21.48,21.48,0,0,1,83.19,39,14.64,14.64,0,0,0,85,37.78,3.37,3.37,0,0,0,86,36.28c.11-.52.24-.54.53-1s1.4-1,1.24-1.6-.35-1-1-1.06-.72.17-1.34.83-2.14,2.63-2.87,3.38a11.17,11.17,0,0,1-2,1.79,9.16,9.16,0,0,1-2.77,1.16c-.73.14-1.49.46-1.75-.26s.74-1.71,1.28-2.29a12.16,12.16,0,0,1,2.35-1.71,1.72,1.72,0,0,0,.92-1.36c-.1-.48-.37-.79-.25-1.35a8,8,0,0,1,1-1.76,1.7,1.7,0,0,0,0-1.8c-.12.34-.3.82-.42,1.13s-.38.62-.67.44-.83-.27-.74-.75a3.42,3.42,0,0,1,1-1.56c.4-.32,0-.77-.12-1.11-.37.35-.78.41-1.09.9s-.48,1.66-1,2a4,4,0,0,1-1.47.35,1.42,1.42,0,0,1,.07-.86,4.21,4.21,0,0,0,.21-1.09,5.46,5.46,0,0,1,.11-1c.34-.21.6-.27,1-.46s.94,0,1.11-.67-.86-.63-1.66-.54c-.13,0-1,.19-1,.77a3.57,3.57,0,0,1-.9,1.88.74.74,0,0,1-1,.05c-.24-.16-.21-.26-.39-.41,0,.3.12.48.15.81a4,4,0,0,1-.1,1.25,4,4,0,0,0-.28.91,5.39,5.39,0,0,0,0,1c0,.3,0,.72,0,.94a1.37,1.37,0,0,1,0,.33c0,.15,0-.09,0,.14a3,3,0,0,1-.3.87A3.24,3.24,0,0,1,72.39,36,14.71,14.71,0,0,1,69.8,37c.1-.18.11-.27.25-.49a5.31,5.31,0,0,1,.55-.78,4.11,4.11,0,0,1,.67-.65,1.82,1.82,0,0,1,.71-.32,3,3,0,0,0,.71-.09,2.32,2.32,0,0,0,.85-.45c.2-.23.19-.05.38-.43a1.77,1.77,0,0,0,0-1.7,11.87,11.87,0,0,0-1.35-1.38,2.75,2.75,0,0,1-.78-.71.7.7,0,0,1-.09-.7c.08-.22-.42-.38-.62-.49s-.9-.5-1.13-.23a1.57,1.57,0,0,0-.29,1,1.71,1.71,0,0,0,.14.8,6.76,6.76,0,0,1,.72,2,2.87,2.87,0,0,1-.5,1.75c-.43.58-1.37,1.59-1.76,2.12s-.41.79-.69,1.19-.69-.24-1-.45-.92-.08-1.45,0-1.2-.25-1.83-.23a2.06,2.06,0,0,0-1.57.65,6.4,6.4,0,0,0-.67.33c-.26.2,1.07.81,1.45,1.18-.58,0-.14-.07-1-.15a3.68,3.68,0,0,0-3,1c-.93.92-.93,1.51-1.37,2.84a8.27,8.27,0,0,0-.39,3.85c.1,2,1.36,7.63-.19,9.78s-4.55,3.41-6,5.71a15.31,15.31,0,0,0-3.25,4.17,41,41,0,0,0-3,6.68c-.34,1.34-1,2.6-.39,2a12.27,12.27,0,0,0,2-2.76c.75-1.36,2.43-4.62,3.53-6.16A49,49,0,0,1,53,61.3c1.13-1.23,2.12-2.27,3.09-3.23a12.87,12.87,0,0,1,2.56-2c1-.65,1.74-1,2.81-1.81s1.47-1,2.92-2.1S69,48.43,70.63,47.2s2.92-2.1,4.39-3.14S78.19,42.24,79.53,41.26Z"></path>
      <path class="cls-23" d="M85.08,28.18a3.83,3.83,0,0,1,2.14.81,8,8,0,0,0,2.9.9,6.4,6.4,0,0,1,3.17,1.85c.68.86,1.8,2.79,1.46,3.8s-1.61.55-2.06.19-.94-.85-.8-1.34c-.11-.31,0-.65-.43-.86A4.11,4.11,0,0,0,90,33a12.68,12.68,0,0,1-1.78-.06.74.74,0,0,1-.55-.72,8.6,8.6,0,0,1,.21-1.37c0-.37.12-.66-.2-.85a1.77,1.77,0,0,0-1.07-.33c-.33.07-.56.16-.84,0a2.06,2.06,0,0,1-.53-.86A2.49,2.49,0,0,1,85.08,28.18Z"></path>
      <path class="cls-24" d="M93.81,36.42a28.05,28.05,0,0,1-2.58,1.19,12.79,12.79,0,0,0-1.66.6,7,7,0,0,1-1.65.72c-1.15.37-5.35,1.29-6.49,1.6s-.82.26-1.48.46-1.2.42-1.74.6a11.83,11.83,0,0,1-1.85.68c-.3,0,.4-.43.73-.72a7.68,7.68,0,0,1,2.36-1.3c.73-.15,1.58-.37,2.32-.51.07,0,0-.05.12-.09l.33-.17.51-.26.39-.21c.18-.11.44-.25.67-.4s.61-.4.84-.57a7.45,7.45,0,0,0,.65-.54,5.58,5.58,0,0,0,.42-.5c.12-.15.1-.25.19-.38s0,0,.08,0c.21-.18.26-.29.52-.5s.84-.72,1.1-.91a4.3,4.3,0,0,1,.56-.36,4.83,4.83,0,0,1,.68-.35,6.45,6.45,0,0,1,.85-.27,4.31,4.31,0,0,1,.68-.08,3,3,0,0,1,.62,0,1.22,1.22,0,0,1,.42.14c.14.07.21.21.32.32s.17.27.27.38.2.18.31.3.22.3.34.41.28.2.4.31a1.08,1.08,0,0,0,.45.21c.14,0,.52,0,.54,0S94.23,36.22,93.81,36.42Z"></path>
      <path class="cls-24" d="M78.84,40.43a10.67,10.67,0,0,1-2.21-.49,1,1,0,0,1-.42-.14.57.57,0,0,1-.18-.49c0-.18,0-.24-.17-.26-.27.32-.37.58-.81.77s-1.14.46-1.59.72-.84.53-1.26.83-1.29,1-1.57,1.25-.47.37-.54.2,0-.42,0-.66,0-.52-.3-.67-.52-.56-.75-.89a13.91,13.91,0,0,1-.88-1.36c-.13-.26-1.06,2.08-1.36,2.29a3,3,0,0,0-.38.6A7,7,0,0,0,66,43.26a5.59,5.59,0,0,0-.2,1,3.24,3.24,0,0,0,0,.54c-.12-.14-.11-.05-.22-.27s-.23-.52-.39-.85-.6-1.2-.77-1.48a2.26,2.26,0,0,0-.28-.44s0,0-.08.11-.2.38-.29.52-.21.38-.3.52-.16.27-.26.41-.19.25-.28.4-.17.27-.26.44l-.27.55-.26.58c-.1.24-.26.59-.37.85a2.08,2.08,0,0,0-.24.74,2.78,2.78,0,0,1-.12,1,4.26,4.26,0,0,1-.51.91,4,4,0,0,1-.75.79c-.26.16-.76.72-.9.72s0-.59-.17-.81-.3-.59-.58-.9-.66-.85-1-1.19-.3-.71-.7-1.1-1.67.45-1.81,1.2a12.47,12.47,0,0,0,.56,3.56c.18.53-.7-1.33-.83-1.77s-.56-1.51-.76-2.06-.38-1.63-.5-2-.21,0-.42,0-.69.42-1,.5-.33.14-.68.26-.53.42,0,.4.9-.09,1.11.29.32.72,0,1a2.2,2.2,0,0,1-1.18.58,2.48,2.48,0,0,1-1.09-.08c-.55-.12-.51.13-.1.4s1.17.56,1.11.92a.56.56,0,0,1-.74.49c-.37-.14-1.08-.51-.81.08s.39.82.89,1,1.35.19,1.7.52a.88.88,0,0,1,.29,1c-.09.3-.28.86-.56.83s-.77-.55-.85,0,.08,1-.2,1.53-.48,1.46-.7,1.89-.14.43-.65.36-.86.39-.56.75.52.67.2.69-.3-.15-.66-.11-.53.38-.39.84.49,1.37-.41,1-.95-.28-.63.7.67,1.2-.29,1.55c-.36-.18-.76-.25-1,.14s.31.52.06.89-.93.81,0,1.22a1.07,1.07,0,0,1,.2,1.3,17.41,17.41,0,0,0-1.9,3.54c-.11.34-.18,0-.09.9a6.62,6.62,0,0,1-1.34,4c.21-.11,1.15-1,1.14-.24.5-1.6-.2-.83.82-2.89s1.92-5.18,4.4-8a66.16,66.16,0,0,1,11.14-9.61,22.7,22.7,0,0,0,3-2.3,46.11,46.11,0,0,1,5.78-4.21c2.06-1.27,4.69-4,7.09-5.05a13.26,13.26,0,0,1,1.4-1.26C78.11,40.78,78.42,40.68,78.84,40.43Z"></path>
      <path class="cls-24" d="M86,32.85c-.72.92-1.24,1.41-2,2.43A18.28,18.28,0,0,1,80.12,39c-1,.49-4,1.65-4,.49a4.93,4.93,0,0,1,2.41-3.21c1.21-.77,4.64-2.22,5.61-2.75a10,10,0,0,1,1-.52C85.68,32.77,85.58,33,86,32.85Z"></path>
      <path class="cls-25" d="M45.75,72.46a43.84,43.84,0,0,0,2.72-4.68,30.39,30.39,0,0,1,4.69-6.57c2-2.1,3.55-4,6.51-5.86a111.16,111.16,0,0,0,10-7.41c3-2.43,7.6-5.69,10.69-7s6.2-1.25,8.4-2.32,5-1.35,5.82-3-.92-3.42-1.89-4.38a6.73,6.73,0,0,0-3.59-1.56c-1.35-.28-2.82-1.36-4.19-1.47s-2.82-.11-3.55,1.1-.51,2.23-1.92.85c.18-.71.45-.83,1-1.53s-.38-1.57-1.1-1.67-.06-.26,0-.44.06-.44-.5-.43-2-.22-2.24.75-1.08,2.86-2.08,1.68-1.69-1.44-2.23-.33-.37,1.18-1.05.76-1.4-.86-1.6.21-.48.88-1.39,1c-.33,0-.3.19-.7.31s-1.53-.19-2.08,0-1.35.7-1.26,1.1.51,1.28-.09,1-.8-1.08-1.58-.63-1,1.31-.32,1.4.57.22,0,.48a1.57,1.57,0,0,0-1,1.62c0,.87-.49,2.65-1.64,1.61.11-.6,0-1.4-.75-1.34s-.53.92-1.06,1.22a1,1,0,0,0-.65,1c-.06.5.23.51-.39.47a1.17,1.17,0,0,1-1.11-.71c-.25-.47-.52.22-.67.58s-.81,1.28-.35,1.72.38,1-.23.87-1.38-.62-1.24.36c0,.14.11.28.45.39s.72.25.28.84-.38-.09-.88.27.2.65.24,1.47-.47,1.3-1.9,1.78,0,.32.68.49a.72.72,0,0,1,.32,1.23,2.09,2.09,0,0,1-1.82.59c-.66-.17-1.51-.3-.53.3s1.63,1.1.36,1.42c-.15,0-.19.08-.48-.18s-.64-.3-.25.43a4.05,4.05,0,0,1,.7,2.36,2.75,2.75,0,0,1-1,1.73c-.47.38-.34.32-.26.8s-.26.24-.53.47-.08.56-.08.92-.68.92-.83,1.23-.25.79-.48.42S46.09,56.39,46.15,57s.37.89.11,1.43-.56.82-.38,1.5.32,1.35-.61,1.18-1.34-.18-1.33.77a2.13,2.13,0,0,0,.8,1.72c.43.45.57.41.25.84s-.26.62.09.93.22.26-.18.57,0,.17-.39,1.07-1.66,3.11-1.85,4.35-.09,2.84-.58,3.75-.51,1.1.24,1.1.53-.32,1-.46.63-1,1.05-1.41A9.82,9.82,0,0,0,45.75,72.46Z"></path>
      <path class="cls-18" d="M56.51,56.53l2.83-2.11a32.88,32.88,0,0,0,2.9-2A37.39,37.39,0,0,1,67.72,48a24.09,24.09,0,0,0,2.87-2c.93-.72,1.84-1.46,2.79-2.17A17.91,17.91,0,0,1,79.85,41l0,0a22.64,22.64,0,0,0-6.17,3.21A46.05,46.05,0,0,1,68,48.35a37.39,37.39,0,0,0-5.54,4.3,30.53,30.53,0,0,1-3,1.9l-2.89,2Z"></path>
      <path class="cls-18" d="M92.27,37.14A15.57,15.57,0,0,1,88,38.36c-.37,0-.74.06-1.11.08a9.91,9.91,0,0,0-1.09.18c-.72.17-1.42.41-2.13.64-1.39.52-2.89.67-4.3,1.1s-2.47,1.53-3.69,2.39l-.11-.16c1.19-.82,2.26-2,3.76-2.37s2.92-.55,4.31-1.06c.71-.22,1.42-.45,2.14-.61a8.51,8.51,0,0,1,1.11-.17c.37,0,.74,0,1.11-.07A15.22,15.22,0,0,0,92.27,37.14Z"></path>
      <path class="cls-18" d="M44,74.61a15.49,15.49,0,0,1,1.84-5.72,31.41,31.41,0,0,1,3.06-5.22c.64-.8,1.4-1.46,2-2.28a2.84,2.84,0,0,0,.36-.62,2.62,2.62,0,0,1,.18-.75c.23-.46.52-.87.76-1.31a2.17,2.17,0,0,0,.34-1.35A7.62,7.62,0,0,0,51.82,56a9.64,9.64,0,0,1-.69-1.36A3.91,3.91,0,0,1,51,53.14h.27a3.62,3.62,0,0,0,.11,1.45A10.35,10.35,0,0,0,52,55.91a8.21,8.21,0,0,1,.66,1.4,2.31,2.31,0,0,1-.37,1.51c-.25.45-.54.87-.76,1.3-.14.21-.09.42-.17.72a2.9,2.9,0,0,1-.4.67c-.58.85-1.36,1.52-2,2.29A30.81,30.81,0,0,0,46,69,20.48,20.48,0,0,0,44,74.61Z"></path>
      <path class="cls-18" d="M50.43,56.14A3.41,3.41,0,0,1,50.74,55a2.09,2.09,0,0,0,.27-.48c.05-.17.06-.37.12-.55a2.73,2.73,0,0,1,0,.57,1.3,1.3,0,0,1-.25.53A6.85,6.85,0,0,0,50.43,56.14Z"></path>
      <path class="cls-18" d="M44,74a1.52,1.52,0,0,0-1.14.58l0,0,0,0a11.82,11.82,0,0,0,1.27-2.84c.11-.51,0-1,0-1.57a5.24,5.24,0,0,1,.5-1.49c.43-1,1.09-1.81,1.48-2.76a1.08,1.08,0,0,0,.11-.71c-.11-.18-.41-.27-.6-.45a.74.74,0,0,1-.26-.34.47.47,0,0,1,.1-.42c.16-.23.46-.37.41-.58a1.22,1.22,0,0,1-.11-.38,1,1,0,0,1,.07-.42.46.46,0,0,1,.34-.29.85.85,0,0,1,.42.07.47.47,0,0,0,.63-.07.7.7,0,0,0,.11-.67c-.08-.21-.25-.45-.35-.69a1.2,1.2,0,0,1-.13-.83c.09-.19.33-.15.44-.11s.26.1.37.14.54.18.56,0c.09-.46-.35-1-.14-1.56.2-.31.56-.23.81-.21a.82.82,0,0,0,.33,0c0,.08,0-.12-.12-.2a1.52,1.52,0,0,1-.34-.76.42.42,0,0,1,.28-.38.92.92,0,0,1,.43,0c.26,0,.51,0,.63-.19a6.76,6.76,0,0,0,.3-.72,2.65,2.65,0,0,1-.2.77c-.12.3-.5.33-.74.31s-.49.05-.51.25a1.52,1.52,0,0,0,.3.65.78.78,0,0,1,.11.18.83.83,0,0,1,0,.12c0,.06,0,.16-.1.17a.88.88,0,0,1-.44,0c-.24,0-.54,0-.63.12-.17.42.23.93.16,1.51a.33.33,0,0,1-.39.25,1.8,1.8,0,0,1-.4-.1l-.36-.15c-.11,0-.23,0-.25,0a1.18,1.18,0,0,0,.14.68c.09.25.24.44.35.71a.85.85,0,0,1-.15.81.63.63,0,0,1-.8.12c-.53-.33-.8.41-.53.85,0,.38-.32.48-.43.68a.39.39,0,0,0,.13.59c.18.18.45.23.63.5a1.09,1.09,0,0,1-.1.8c-.42,1-1.07,1.81-1.51,2.76a5.55,5.55,0,0,0-.5,1.47c-.09.5.06,1-.06,1.56a11.84,11.84,0,0,1-1.32,2.84h0A1.5,1.5,0,0,1,44,74Z"></path>
      <path class="cls-18" d="M51.06,61.07a3.54,3.54,0,0,1,1.33-1.22,3.38,3.38,0,0,0-1.16,1.33Z"></path>
      <path class="cls-18" d="M54.42,58.17a5.94,5.94,0,0,0,1.35-3.23,9.68,9.68,0,0,0-.31-3.51,24.36,24.36,0,0,0-1.37-3.27,7.47,7.47,0,0,1-.83-3.48h.27a7.29,7.29,0,0,0,.74,3.39,23.18,23.18,0,0,1,1.32,3.32A9.67,9.67,0,0,1,55.83,55,5.82,5.82,0,0,1,54.42,58.17Z"></path>
      <path class="cls-18" d="M57.45,55.86c.17-1,.19-2,.46-3a4.73,4.73,0,0,1,.63-1.37,2.62,2.62,0,0,0,.51-1.38c0-1-.88-1.76-1.48-2.54a3.66,3.66,0,0,1-.74-1.32,3.76,3.76,0,0,1,0-1.53c.18-1,.27-2,.51-3a4,4,0,0,1,.59-1.41,5.27,5.27,0,0,1,1.13-1,3.52,3.52,0,0,1,3-.48l.17,0s.14,0,.07,0,0,0-.07,0a.68.68,0,0,0-.12-.12,6.41,6.41,0,0,0-.58-.45,8.36,8.36,0,0,0-1.25-.76l.08-.26a9.36,9.36,0,0,1,1.31.81,6.75,6.75,0,0,1,.61.48l.14.14c0,.07.14.08.08.31s-.22.06-.3.07l-.2,0a3.3,3.3,0,0,0-2.8.41,5.42,5.42,0,0,0-1.1,1,3.66,3.66,0,0,0-.56,1.34c-.25,1-.36,2-.54,3a3.64,3.64,0,0,0,0,1.47,3.89,3.89,0,0,0,.71,1.29c.58.78,1.43,1.53,1.46,2.6a2.68,2.68,0,0,1-.53,1.41A4.5,4.5,0,0,0,58,52.89,27.07,27.07,0,0,0,57.45,55.86Z"></path>
      <path class="cls-18" d="M54.73,39a1.28,1.28,0,0,0,.62,1,5.63,5.63,0,0,1,.88.88A3,3,0,0,1,56.84,42a2.17,2.17,0,0,1,.29,1.19h0a2.56,2.56,0,0,0-.4-1.14,3.93,3.93,0,0,0-.57-1.07,7,7,0,0,0-.84-.89,1.25,1.25,0,0,1-.59-1Z"></path>
      <path class="cls-18" d="M51.11,53.16a.64.64,0,0,1,.33-.13.59.59,0,0,1,.32.14c.19.2.36,0,.48-.14.21-.36.45-.84.13-1.16a1.8,1.8,0,0,0-1.13-.53,2.23,2.23,0,0,1-1.25-.6l0,0a3.31,3.31,0,0,0,1.29.36,1.76,1.76,0,0,1,1.25.67,1.06,1.06,0,0,1,.16.34,1,1,0,0,1,0,.39,1.88,1.88,0,0,1-.32.63.72.72,0,0,1-.28.24c-.15.07-.28-.05-.35-.12a.67.67,0,0,0-.29-.15.63.63,0,0,0-.31.1Z"></path>
      <path class="cls-18" d="M62.34,52.46a3.85,3.85,0,0,1,.37-3.19c.66-.9,1.57-1.49,2.26-2.29a2.83,2.83,0,0,0,.77-1.32,3,3,0,0,0,0-.78,5.48,5.48,0,0,1,0-.81,7.48,7.48,0,0,1,1.24-3,3.82,3.82,0,0,0,.44-1.5A8.72,8.72,0,0,1,67.43,38a6.57,6.57,0,0,1,1.62-2.75,6.6,6.6,0,0,0,1-1.22,2.93,2.93,0,0,0,.39-1.53A4.16,4.16,0,0,0,70.05,31a3,3,0,0,1-.38-1.54A3.09,3.09,0,0,0,70.06,31a3.91,3.91,0,0,1,.44,1.53,2.81,2.81,0,0,1-.38,1.55,6.07,6.07,0,0,1-1,1.24A6.64,6.64,0,0,0,67.53,38a9.33,9.33,0,0,0,0,1.59,4,4,0,0,1-.44,1.56,7.36,7.36,0,0,0-1.19,2.91,5.21,5.21,0,0,0,0,.79,2.76,2.76,0,0,1,0,.82,3,3,0,0,1-.8,1.42c-.7.82-1.62,1.45-2.21,2.29a3.59,3.59,0,0,0-.31,3Z"></path>
      <path class="cls-18" d="M57.18,47a5.06,5.06,0,0,1,2.06-4.3l.5-.36c.15-.12.36-.24.4-.39a10.31,10.31,0,0,0-.27-1.18,2,2,0,0,1,.2-1.25,2.76,2.76,0,0,1,.91-.89l.11.18a2.29,2.29,0,0,0-.86.8A1.79,1.79,0,0,0,60,40.75,7.25,7.25,0,0,1,60.26,42c-.09.25-.3.32-.46.45l-.5.35A5,5,0,0,0,57.18,47Z"></path>
      <path class="cls-18" d="M59.2,50.28a7.24,7.24,0,0,0,1.64-1.58,2.79,2.79,0,0,0,.48-2.15c-.2-1.51-1.06-2.87-1.19-4.42.24,1.52,1.07,2.86,1.33,4.4a2.92,2.92,0,0,1-.55,2.22A6.25,6.25,0,0,1,59.2,50.28Z"></path>
      <path class="cls-26" d="M65.84,45.22C65.38,44,64.42,41.67,63.41,41s-1-1.09-1.44-2"></path>
      <path class="cls-18" d="M61.46,46.73c.32-.72.58-1.48.93-2.2s.89-1.32,1.23-2a10.4,10.4,0,0,1,1.21-2.06,3.17,3.17,0,0,0,.36-.46.54.54,0,0,0-.07-.53,5.93,5.93,0,0,0-.79-.88l-.07-.07h.1a3.42,3.42,0,0,0,1.14-.42,2.41,2.41,0,0,0,.92-.74c.12-.18,0-.32-.13-.48a3.51,3.51,0,0,0-.42-.44,1.38,1.38,0,0,0-.49-.32,1.1,1.1,0,0,0-.57,0,2.72,2.72,0,0,1-.64,0c-.1,0-.24,0-.33-.16a.35.35,0,0,1,.09-.36,3.73,3.73,0,0,1,.47-.4c0,.06,0,0-.14,0l-.3,0a5,5,0,0,1-1.24-.25.85.85,0,0,1-.49-.46,1,1,0,0,1,.07-.67l.18.08a.74.74,0,0,0-.06.52.62.62,0,0,0,.38.36A4.5,4.5,0,0,0,64,35l.31,0a.55.55,0,0,1,.17.05.18.18,0,0,1,.1.08.14.14,0,0,1,0,.16,5.94,5.94,0,0,0-.48.4c-.15.17-.1.25.13.26a3,3,0,0,0,.6,0,1.16,1.16,0,0,1,.64,0,1.79,1.79,0,0,1,.54.35,4.69,4.69,0,0,1,.42.47.81.81,0,0,1,.19.27.4.4,0,0,1,0,.34,2.49,2.49,0,0,1-1,.79,3.69,3.69,0,0,1-1.18.42l0-.08a4.86,4.86,0,0,1,.79.9.59.59,0,0,1,.07.6,2.59,2.59,0,0,1-.38.48,10.93,10.93,0,0,0-1.22,2c-.34.73-.92,1.31-1.25,2S61.79,46,61.46,46.73Z"></path>
      <path class="cls-26" d="M66.45,36.89a6.18,6.18,0,0,1-3.14-.09c-.21-.11-.39-.08-.73.07s-1.1.93-1.66.76"></path>
      <path class="cls-27" d="M65.92,36.46A1.61,1.61,0,0,1,66,34.77a2.09,2.09,0,0,0,.47-2c-.33-.67-1.4-1.7-1-2.29"></path>
      <path class="cls-26" d="M63.35,40.91a4.92,4.92,0,0,0-2.92,2.8"></path>
      <path class="cls-18" d="M67.59,37.51c-.07-.33-.07-.67-.16-1s-.28-.58-.39-.93a3.76,3.76,0,0,1,.23-2,3.58,3.58,0,0,1,.48-.93c.22-.26.42-.52.61-.79a4.86,4.86,0,0,0,.53-.83.8.8,0,0,0,0-.89l0,0c.3.24.22.68.11,1a4.43,4.43,0,0,1-.49.91c-.19.28-.41.54-.62.8a3,3,0,0,0-.49.84,3.61,3.61,0,0,0-.3,1.91c.07.3.28.61.34.94s.06.68.1,1Z"></path>
      <path class="cls-18" d="M71.69,29.25a1.3,1.3,0,0,0,.1.71,4.18,4.18,0,0,0,.53.5,11.33,11.33,0,0,1,1.11,1,2.5,2.5,0,0,1,.73,1.29,1.68,1.68,0,0,1-.47,1.4,2.21,2.21,0,0,1-1.33.69,2,2,0,0,0-1.29.54,4.64,4.64,0,0,0-.92,1.1,4.88,4.88,0,0,0-.29.66,2,2,0,0,1-.45.64,1.77,1.77,0,0,0-.34,2.48c.26.41.56.81.81,1.23A2.17,2.17,0,0,1,70.14,43a9.9,9.9,0,0,1-1,2.82,10.35,10.35,0,0,1-1.61,2.48l0,0A12.59,12.59,0,0,0,69,45.72a10,10,0,0,0,.84-2.78,1.87,1.87,0,0,0-.22-1.34c-.25-.41-.54-.8-.81-1.23a2.15,2.15,0,0,1-.35-1.48,1.63,1.63,0,0,1,.25-.74,2.81,2.81,0,0,1,.52-.56,1.51,1.51,0,0,0,.41-.56,3.73,3.73,0,0,1,.32-.67,4.86,4.86,0,0,1,1-1.15,2.65,2.65,0,0,1,.64-.4,2.22,2.22,0,0,1,.74-.15A2.06,2.06,0,0,0,73.59,34a1.61,1.61,0,0,0,.47-1.29,2.43,2.43,0,0,0-.69-1.25,12.67,12.67,0,0,0-1.08-1,4.34,4.34,0,0,1-.53-.52,1.22,1.22,0,0,1-.09-.73Z"></path>
      <path class="cls-18" d="M69.82,37a11.36,11.36,0,0,0,2.64-1.05A3.19,3.19,0,0,0,74,33.71c.18-.91-.18-1.89.13-2.86a3.06,3.06,0,0,0,0-2.72h0a3,3,0,0,1,.15,2.79c-.29.88.06,1.86-.16,2.83A3.36,3.36,0,0,1,72.51,36a11.43,11.43,0,0,1-2.69,1Z"></path>
      <path class="cls-18" d="M81.66,39.73A12.91,12.91,0,0,0,84,38.46a4.76,4.76,0,0,0,1.82-1.88,6.18,6.18,0,0,1,.65-1.18c.28-.36.7-.57,1-.9a1,1,0,0,0,.18-1.17.85.85,0,0,0-1-.59c-.44,0-.72.4-1,.72a8.12,8.12,0,0,0-.86,1c-.55.72-1.18,1.34-1.72,2a9.77,9.77,0,0,1-1.88,1.92,7.91,7.91,0,0,1-2.4,1.23,5.39,5.39,0,0,1-1.33.25,2.2,2.2,0,0,1-.71-.09.69.69,0,0,1-.48-.57,2.2,2.2,0,0,1,.5-1.31,9.49,9.49,0,0,1,.86-1c1.33-1.31,3-1.86,4.65-2.66a23,23,0,0,0,2.4-1.15A2,2,0,0,1,86,32.76l0,0c.11.23-.12.18-.07.18H85.9l-.08,0-.16,0-.33-.07a3.72,3.72,0,0,1-.65-.19,1.34,1.34,0,0,1-.59-.38.9.9,0,0,1-.2-.68,4.49,4.49,0,0,1,.47-1.27,1.86,1.86,0,0,0,.28-1.24,1.59,1.59,0,0,0-1-.78v0a1.62,1.62,0,0,1,1.06.78,2,2,0,0,1-.24,1.32A4.4,4.4,0,0,0,84,31.59a.86.86,0,0,0,.7.89,3.25,3.25,0,0,0,.63.17l.33.06.16,0,.08,0h0c.06,0-.17-.06-.06.18h0a1.77,1.77,0,0,0-1.18.33,22.24,22.24,0,0,1-2.39,1.2L80,35.61l-1.16.67a3.1,3.1,0,0,0-1,.8,8.92,8.92,0,0,0-.85,1,2,2,0,0,0-.47,1.12c0,.39.54.48.94.47a4.73,4.73,0,0,0,1.28-.23A7.72,7.72,0,0,0,81,38.28,10,10,0,0,0,82.9,36.4c.54-.71,1.19-1.33,1.72-2a9.47,9.47,0,0,1,.88-1l.49-.46a1.31,1.31,0,0,1,.64-.28,1,1,0,0,1,.69.12,1.14,1.14,0,0,1,.42.55,1.23,1.23,0,0,1,.11.68,1.2,1.2,0,0,1-.32.62c-.31.34-.72.54-1,.88a6,6,0,0,0-.65,1.16A4.89,4.89,0,0,1,84,38.51a13.64,13.64,0,0,1-2.36,1.25Z"></path>
      <path class="cls-18" d="M94.81,35.59a1.75,1.75,0,0,1-1.18.59,2.08,2.08,0,0,1-1.18-.63l-.94-.93a1.3,1.3,0,0,0-.51-.35,1.54,1.54,0,0,0-.61,0,5.38,5.38,0,0,0-2.42.86,13.38,13.38,0,0,0-2.08,1.6l0,0a8.46,8.46,0,0,1,2-1.81,7.18,7.18,0,0,1,1.21-.6A5.1,5.1,0,0,1,90.37,34a1.87,1.87,0,0,1,.7.06,1.46,1.46,0,0,1,.56.41l.92,1a1.88,1.88,0,0,0,1.08.65,1.65,1.65,0,0,0,1.16-.53Z"></path>
      <path class="cls-27" d="M92,35a2.11,2.11,0,0,0-2-2c-1-.11-2.32.35-2.34-.92s.83-2.16-.89-2.4c-.2,0-.54.1-.82.1s-.5-.25-.6-.6-.25-.88-.71-1"></path>
      <path class="cls-25" d="M82.16,34.42a3.07,3.07,0,0,0,.4-2c-.16-.6-.46-.38.12-1.14s1.51-2.14-.09-2.94"></path>
      <path class="cls-25" d="M79.8,35.55c.6-.63,1.09-1.12.7-2.09s.93-2.11,1-2.87-.12-.7-.19-1.33"></path>
      <path class="cls-25" d="M70,43.14a33.93,33.93,0,0,1,3-2.35c1-.6,3.22-1,2.8-2.4A3.15,3.15,0,0,1,77,34.93c1-.49,2.22-2.06,1.38-2.37s-1.15-.51-1.44-1.24a3.16,3.16,0,0,1,.09-2.13c.2-.61-.2-.94.2-1.46s1.4-.63,2-.77"></path>
      <path class="cls-25" d="M80.41,27.45a3.67,3.67,0,0,0-1.21,1c-.44.64-.33,1.32-1,1.89a2.19,2.19,0,0,1-1.4.29"></path>
      <path class="cls-24" d="M43.88,79.61c.3-1.45.22-2.21.64-3.86s.75-4,3.2-6a10.12,10.12,0,0,1,4-2.18c1.51-.5,2,2.32,4.14,4.73,2.79,3.1,9.18,5.28,12.08,2.34a3.47,3.47,0,0,0,.57-4c-.92-2.09-.23-1.26.85-2.81,0,0,1.64-2.12.43-4-1.79-2.84-6.89-3.85-9.63-3.28a14.23,14.23,0,0,0-7.73,5.06c-.83,1.24-3.46,1.67-5.5,3.63-1.56,1.49-3.84,3.89-3.69,5.46-.92-3.7-2.75-6.1-5.56-8.79-.16-3.07-2.68-5.71-3.14-6.23a11.19,11.19,0,0,0-7.33-2.92c-2.9.19-6.17,1.49-7.34,4-.85,1.83,1.56,2.91,1.06,3.59-.86,1.17-1.86,1.5-1.91,3.08-.09,2.68,1.82,4.1,4.34,4.73s8.2-1.26,9.57-1.92c2.53-1.21,3-1.21,4.18-2.83,3.57,2.69,5,8.46,5.49,12.22S43.58,81.07,43.88,79.61Z"></path>
      <path class="cls-18" d="M52.29,68.2A11.67,11.67,0,0,0,56,72.42c.75.58,1.54,1.1,2.34,1.6a10.84,10.84,0,0,0,2.53,1.2,9,9,0,0,0,5.42.22,3.91,3.91,0,0,0,2-1.62,10.36,10.36,0,0,0,.34-2.75h.06a7.71,7.71,0,0,1,0,2.91,3.12,3.12,0,0,1-.93,1.21A4.43,4.43,0,0,1,66.5,76a8.56,8.56,0,0,1-5.78-.33,11.22,11.22,0,0,1-2.58-1.32,27.6,27.6,0,0,1-2.32-1.7,11.85,11.85,0,0,1-3.59-4.42Z"></path>
      <path class="cls-18" d="M69.78,63.73a7.52,7.52,0,0,0-3.1-2.35,11,11,0,0,0-11.15,1.29,15,15,0,0,0-2.79,2.72,3.24,3.24,0,0,1-.62.81,3.72,3.72,0,0,1-.9.48,13.68,13.68,0,0,0-1.79.79,18.65,18.65,0,0,0-3.23,2.21,7.3,7.3,0,0,0-2.28,3.12h0a6.88,6.88,0,0,1,2.16-3.28,15.36,15.36,0,0,1,3.24-2.3,12.73,12.73,0,0,1,1.83-.78A3.69,3.69,0,0,0,52,66a3,3,0,0,0,.58-.75,15.57,15.57,0,0,1,2.87-2.75,11.1,11.1,0,0,1,11.3-1.19,7.34,7.34,0,0,1,3.09,2.41Z"></path>
      <path class="cls-18" d="M43.31,74.56a22.24,22.24,0,0,0-2.23-4.76,16.13,16.13,0,0,0-3.5-3.87l0,0,0-.06A12.64,12.64,0,0,0,34.4,59.9,9.77,9.77,0,0,0,28.47,57a10.56,10.56,0,0,0-3.36.16A9.69,9.69,0,0,0,22,58.51,5.06,5.06,0,0,0,19.87,61a2,2,0,0,0,.23,1.59A8.81,8.81,0,0,1,21,64.05h0A9.42,9.42,0,0,0,20,62.62,2.07,2.07,0,0,1,19.76,61a5,5,0,0,1,2.16-2.61,9.9,9.9,0,0,1,3.14-1.42,11,11,0,0,1,3.44-.2,9.78,9.78,0,0,1,6.08,3,13,13,0,0,1,3.13,6.08h0a15.62,15.62,0,0,1,3.49,3.94,22.46,22.46,0,0,1,2.15,4.83Z"></path>
      <path class="cls-18" d="M20.29,64.85a19.35,19.35,0,0,0-1,2.05,3.44,3.44,0,0,0,.36,2.1A5,5,0,0,0,23,71.6a7.32,7.32,0,0,0,2.21.14c.76,0,1.52-.15,2.28-.24s1.52-.25,2.28-.42,1.52-.35,2.27-.57v0a25.27,25.27,0,0,1-4.49,1.29,20.34,20.34,0,0,1-2.33.3A7.68,7.68,0,0,1,22.85,72a5.3,5.3,0,0,1-3.52-2.89,3.65,3.65,0,0,1-.27-2.3,20,20,0,0,1,1.19-2Z"></path>
    </g>
  </g>
</svg>
