<?xml version="1.0" encoding="UTF-8"?>
<svg xmlns="http://www.w3.org/2000/svg" xmlns:xlink="http://www.w3.org/1999/xlink" viewBox="0 0 112.9 130.95">
  <defs>
    <style>.cls-1{fill:#8e6848;}.cls-2{fill:url(#Безымянный_градиент_7);}.cls-3{fill:#713e21;}.cls-4{fill:#3d271f;}.cls-5{fill:#69391e;}.cls-6{fill:#6b482f;}.cls-7{fill:#5c3624;}.cls-8{fill:#795135;}.cls-9{fill:#9a734f;}.cls-10{fill:#fff;}.cls-11{fill:#85563a;}.cls-12{fill:#789f5a;}</style>
    <linearGradient id="Безымянный_градиент_7" x1="53.83" y1="170.2" x2="59.12" y2="71.72" gradientUnits="userSpaceOnUse">
      <stop offset="0.38" stop-color="#9b714f"></stop>
      <stop offset="0.91" stop-color="#754427"></stop>
      <stop offset="1" stop-color="#6e3c20"></stop>
    </linearGradient>
  </defs>
  <g id="Слой_2" data-name="Слой 2">
    <g id="Слой_1-2" data-name="Слой 1">
      <path class="cls-1" d="M59.15,63.12S69,74.71,76.64,75.18s33.64-7.75,33.64-7.75l2.62-27.1-53.75-19Z"></path>
      <path class="cls-1" d="M0,38.41,5.36,73.75s19.05,2.86,22.38,1.91S46.32,69,50.6,69s8.55-5.87,8.55-5.87V21.37Z"></path>
      <polygon class="cls-2" points="7.92 106.83 59.15 130.95 106.54 106.95 57.27 86.08 7.92 106.83"></polygon>
      <path class="cls-3" d="M7.92,106.84,5.36,73.75s24.29-.47,31-3.8,22.83-6.83,22.83-6.83l-1.88,23Z"></path>
      <path class="cls-4" d="M42.54,75.81a8.81,8.81,0,0,0-2.91-1.71v0s-3.88-1.16-6,1.45S31.9,81,32.86,81.41a12.79,12.79,0,0,0,1.67.35s.06-.05.1-.05a29.56,29.56,0,0,0,3.59-.81,1.87,1.87,0,0,0,.62-.17c.17,0,.36-.09.67-.19,1.52-.47,1.7-.13,2.75-1a4.11,4.11,0,0,0,1.12-2.61,3.13,3.13,0,0,0-.21-.52h0l0,0A1,1,0,0,0,42.54,75.81Z"></path>
      <path class="cls-4" d="M21.74,79.22a11.18,11.18,0,0,0-4.12,1.36v0s-4.41,2.76-3.69,7,3.75,6.28,5,5.74A16,16,0,0,0,20.69,92s0-.1,0-.14c.94-1.08,1.63-3.24,2.26-4.16a2.26,2.26,0,0,0,.37-.73l.38-.81c.83-1.87,1.32-1.76,1.33-3.55a5.22,5.22,0,0,0-1.58-3.28,3,3,0,0,0-.67-.23v0h-.08A1.31,1.31,0,0,0,21.74,79.22Z"></path>
      <path class="cls-5" d="M59.15,63.12l-1.88,23L106.54,107l3.74-39.53s-15.36-1.77-22-.82S70,70.42,66.48,68.52A46,46,0,0,1,59.15,63.12Z"></path>
      <path class="cls-4" d="M40.38,86.71a3.22,3.22,0,0,0-1.28-.32h0A2.37,2.37,0,0,0,37,87.59c-.5,1.22,0,2.24.36,2.3a3.65,3.65,0,0,0,.67-.06l0,0a12.89,12.89,0,0,0,1.26-.71.63.63,0,0,0,.21-.13l.23-.15c.52-.34.63-.24.92-.7a1.61,1.61,0,0,0,.13-1.1,1,1,0,0,0-.14-.17h0A.35.35,0,0,0,40.38,86.71Z"></path>
      <path class="cls-4" d="M88.65,76.82a2.21,2.21,0,0,0-.11-.91h0s-.39-1-1.3-1.06-1.47.52-1.41.8c0,.08.14.29.2.42l0,0a7,7,0,0,0,.77.64.42.42,0,0,0,.14.11l.15.11c.35.25.31.35.68.42a1.1,1.1,0,0,0,.75-.19,1.05,1.05,0,0,0,.08-.13h0A.24.24,0,0,0,88.65,76.82Z"></path>
      <path class="cls-4" d="M102.42,93.42a11.2,11.2,0,0,0-2-3.92h0s-3.39-4-7.53-2.66-5.74,4.66-5,5.83a15.37,15.37,0,0,0,1.57,1.56s.1,0,.14,0c1.22.78,3.47,1.16,4.48,1.66a2.65,2.65,0,0,0,.79.26c.22.07.46.15.86.26,2,.56,2,1.06,3.73.81a5.29,5.29,0,0,0,3.06-2,4.35,4.35,0,0,0,.13-.71h0l0-.07A1.27,1.27,0,0,0,102.42,93.42Z"></path>
      <path class="cls-4" d="M75.64,79.8a8.47,8.47,0,0,0-1.91,2.75l0,0s-1.44,3.76,1,6,5.24,2.14,5.76,1.22a11.23,11.23,0,0,0,.47-1.63s0-.06,0-.1a29,29,0,0,0-.53-3.62,1.67,1.67,0,0,0-.12-.63c0-.17-.07-.36-.14-.67-.35-1.54,0-1.7-.83-2.81a4.05,4.05,0,0,0-2.5-1.29,2.26,2.26,0,0,0-.53.17v0l0,0A1,1,0,0,0,75.64,79.8Z"></path>
      <path class="cls-6" d="M75.83,107.87a1.61,1.61,0,0,0,1.6-.43c.56-.71.45-1.47.18-1.59a2.88,2.88,0,0,0-.45-.08c-.29,0-.33.71-.34.72Z"></path>
      <path class="cls-7" d="M74.86,107.27s.9.81,1.27.57a9.15,9.15,0,0,1,.82-.48l0-.24a3.38,3.38,0,0,0-1-.33c-.19,0-.51.18-.59.19A4.83,4.83,0,0,0,74.86,107.27Z"></path>
      <path class="cls-8" d="M74.81,107.13c0,.11.12.37.4.28a5.55,5.55,0,0,0,.54-.23s.27-.85.33-1,.15-.19-.25-.05-.46,0-.74.29A1.08,1.08,0,0,0,74.81,107.13Z"></path>
      <path class="cls-9" d="M75.75,107.18a5.83,5.83,0,0,0,.13-.72c0-.31,0-.4.29-.44s.86-.34,1.14-.23.26.09.26.45a1.28,1.28,0,0,1-.39.89.7.7,0,0,1-.78.33A1.86,1.86,0,0,1,75.75,107.18Z"></path>
      <path class="cls-6" d="M64.87,101.58s2.46.14,3.33-1.7.26-3.45-.37-3.58a6.32,6.32,0,0,0-1,0c-.68,0-.38,1.71-.41,1.74Z"></path>
      <path class="cls-7" d="M62.46,100.74s2.37,1.35,3.07.63,1.57-1.43,1.57-1.43l-.16-.54a7.56,7.56,0,0,0-2.32-.25c-.38.2-1,.64-1.19.71A10.3,10.3,0,0,0,62.46,100.74Z"></path>
      <path class="cls-8" d="M62.27,100.46c.12.22.45.75,1,.41a9.34,9.34,0,0,0,1.08-.77s.18-2,.26-2.34.23-.5-.6,0-1,.32-1.47,1A2.49,2.49,0,0,0,62.27,100.46Z"></path>
      <path class="cls-9" d="M64.37,100.1a10.76,10.76,0,0,0-.06-1.63c-.09-.71-.16-.89.43-1.11s1.73-1.15,2.39-1,.61.07.79.86a3,3,0,0,1-.43,2.15,1.62,1.62,0,0,1-1.55,1.1A4.08,4.08,0,0,1,64.37,100.1Z"></path>
      <path class="cls-6" d="M54.66,109.55s1.92,1.45,3.63.44,2.1-2.64,1.66-3.1a8.73,8.73,0,0,0-.85-.54c-.57-.34-1.24,1.18-1.28,1.19Z"></path>
      <path class="cls-7" d="M53.18,107.55s1.17,2.39,2.13,2.19,2.06-.3,2.06-.3l.16-.52s-1.33-1.44-1.74-1.48-1.18,0-1.35-.08A9.49,9.49,0,0,0,53.18,107.55Z"></path>
      <path class="cls-8" d="M53.18,107.22c0,.23,0,.85.59.89a9.51,9.51,0,0,0,1.29,0s1.24-1.5,1.5-1.75.46-.27-.48-.33-1-.28-1.74,0A2.38,2.38,0,0,0,53.18,107.22Z"></path>
      <path class="cls-9" d="M55.06,108.07a9.9,9.9,0,0,0,.85-1.34c.32-.63.36-.81,1-.67s2,0,2.5.46.46.39.17,1.13a2.86,2.86,0,0,1-1.52,1.5,1.59,1.59,0,0,1-1.86,0A4.14,4.14,0,0,1,55.06,108.07Z"></path>
      <path class="cls-6" d="M50.26,103a2.74,2.74,0,0,0,.1-2.8c-.88-1.24-2.16-1.42-2.47-1.06a5.29,5.29,0,0,0-.36.69c-.22.46,1,.87,1,.9S50.26,103,50.26,103Z"></path>
      <path class="cls-7" d="M48.83,104.22s1.75-1,1.53-1.77S50,100.9,50,100.9l-.41-.09s-1,1.11-1,1.42,0,.9,0,1A7.6,7.6,0,0,0,48.83,104.22Z"></path>
      <path class="cls-8" d="M48.58,104.24c.18,0,.66,0,.64-.51a8,8,0,0,0-.11-1s-1.23-.84-1.43-1-.25-.33-.22.39-.16.76.12,1.33A1.82,1.82,0,0,0,48.58,104.24Z"></path>
      <path class="cls-9" d="M49.11,102.74a8.37,8.37,0,0,0-1.08-.56c-.5-.19-.65-.22-.57-.68s-.13-1.55.18-1.94.26-.38.85-.2a2.16,2.16,0,0,1,1.25,1.06,1.22,1.22,0,0,1,.15,1.41A3.14,3.14,0,0,1,49.11,102.74Z"></path>
      <path class="cls-6" d="M41.58,105a1.18,1.18,0,0,0,.4-1.14c-.21-.63-.71-.87-.89-.76a2.68,2.68,0,0,0-.24.24c-.15.16.3.49.3.5S41.58,105,41.58,105Z"></path>
      <path class="cls-7" d="M40.83,105.36s.85-.22.86-.54,0-.69,0-.69l-.16-.09s-.55.33-.6.46-.09.38-.12.43A3.56,3.56,0,0,0,40.83,105.36Z"></path>
      <path class="cls-8" d="M40.72,105.33a.22.22,0,0,0,.33-.13,2.46,2.46,0,0,0,.08-.42s-.4-.51-.46-.61-.06-.17-.15.13-.15.3-.12.57A.8.8,0,0,0,40.72,105.33Z"></path>
      <path class="cls-9" d="M41.13,104.78a4.62,4.62,0,0,0-.38-.37c-.18-.15-.24-.17-.15-.36s.15-.65.33-.78.15-.12.37,0a1,1,0,0,1,.39.6.54.54,0,0,1-.12.6A1.31,1.31,0,0,1,41.13,104.78Z"></path>
      <path class="cls-6" d="M38.92,109.8s1.68-2.7.14-4.84-3.75-2.45-4.3-1.81a9.78,9.78,0,0,0-.61,1.19c-.38.79,1.7,1.5,1.73,1.55S38.92,109.8,38.92,109.8Z"></path>
      <path class="cls-7" d="M36.45,112s3-1.84,2.64-3.08a25.61,25.61,0,0,1-.65-2.68l-.71-.15S36,108,36,108.58s.09,1.55.07,1.79A12.52,12.52,0,0,0,36.45,112Z"></path>
      <path class="cls-8" d="M36,112.05c.31,0,1.13,0,1.1-.89a11.88,11.88,0,0,0-.2-1.7s-2.14-1.45-2.5-1.76-.42-.58-.38.67-.25,1.32.23,2.3A3.15,3.15,0,0,0,36,112.05Z"></path>
      <path class="cls-9" d="M36.92,109.46a14.72,14.72,0,0,0-1.89-1c-.86-.34-1.11-.38-1-1.18s-.23-2.68.3-3.36.45-.66,1.47-.36A3.76,3.76,0,0,1,38,105.42a2.11,2.11,0,0,1,.28,2.45A5.34,5.34,0,0,1,36.92,109.46Z"></path>
      <path class="cls-10" d="M57.93,57.55c.77.07,1.14-.38,1.37-1a10.8,10.8,0,0,1,.39,1.66c.18,1.77.34,3.53.44,5.3a2.87,2.87,0,0,0,1,2,7.35,7.35,0,0,1,1.57,2.11c1.35,2.78,3.15,5,6.36,5.68.15,0,.26.26.39.4-.2.11-.43.34-.61.31a8.12,8.12,0,0,1-5.77-3.72c-.59-.9-1.08-1.88-1.66-2.79a5.25,5.25,0,0,0-1-.89,10.78,10.78,0,0,0,0,1.44c1,5.77-.57,11.14-2.5,16.46,0,.14-.24.22-.36.33-.17-.21-.51-.45-.48-.63.15-.87.4-1.72.62-2.58.72-2.86,1.57-5.7,1.49-8.7a9,9,0,0,0-.27-1.14,20.43,20.43,0,0,0-2.61,6.54,4.3,4.3,0,0,1-.16.87.53.53,0,0,1-.37.29c-.17,0-.45-.18-.46-.31a6.68,6.68,0,0,1-.12-2.3c.4-1.52,1-3,1.53-4.46.17-.46.37-.9.54-1.32-.51-.65-.92-.19-1.31,0-1,.54-2.06,1.16-3.13,1.67-1.88.89-3.79,1.72-4.87,3.78A7.35,7.35,0,0,1,48.36,75a6.58,6.58,0,0,1,2.88-2.46c1.54-.87,3.14-1.66,4.65-2.58,2.64-1.62,2.86-2.36,2.49-5.36C58.09,62.27,58.07,59.9,57.93,57.55Z"></path>
      <polygon class="cls-11" points="0 38.41 59.15 63.12 112.9 40.33 59.15 21.37 0 38.41"></polygon>
      <path class="cls-12" d="M55.68,38.43c-.24-3-.47-5.89-.72-8.84-.12-1.38-.49-1.74-1.89-1.61-1.86.18-3.72.42-5.56.73a12.09,12.09,0,0,1-6.64-.88,5.76,5.76,0,0,1-3.17-2.91c-.79-1.57-1.7-3.08-2.61-4.7A5.12,5.12,0,0,1,38.8,19a19.89,19.89,0,0,1,13.52,4.18c.6.46,1.14,1,1.64,1.44.72-.23.55-.7.56-1,0-1.77,0-3.55,0-5.32,0-.67-.38-.91-.92-.62s-1.18.72-1.78,1.05A1.48,1.48,0,0,1,50,18.4a7.12,7.12,0,0,1-1.65-7.64A10.9,10.9,0,0,1,53,5.21a32.11,32.11,0,0,1,3.38-1.8C58.56,2.33,60.79,1.3,63,.25c.45-.21,1-.45,1.31,0a2.18,2.18,0,0,1,.19,1.37A9.56,9.56,0,0,1,64,3a10,10,0,0,0,.45,7.75A9.73,9.73,0,0,1,65.34,13c.36,1.69-.23,2.67-1.93,3s-3.68.62-5.52.91c-.3.05-.59,0-.89.08a.87.87,0,0,0-.81,1c0,1.36.06,2.71.09,4.35,1.39-.51,2-1.65,2.91-2.22a19.39,19.39,0,0,1,3.14-1.61,17.49,17.49,0,0,1,3.41-.9,19,19,0,0,1,3.53-.24,26.42,26.42,0,0,1,3.52.43,8.83,8.83,0,0,1,3.29,1.13C74,20.86,72,22.62,70,24.41a12.87,12.87,0,0,1-10,3.47c-4-.3-3.72.13-3.53,3.64.1,2,.39,3.92.59,5.88C56.83,38.05,56.45,38.5,55.68,38.43Z"></path>
      <path class="cls-6" d="M55.56,48.54A1.63,1.63,0,0,0,54,48c-.87.27-1.22,1-1.07,1.21a4.57,4.57,0,0,0,.32.33c.22.21.68-.4.7-.4S55.56,48.54,55.56,48.54Z"></path>
      <path class="cls-7" d="M56,49.59s-.27-1.19-.72-1.2-.95-.08-.95-.08l-.13.21s.45.78.63.84.51.14.59.18A4.86,4.86,0,0,0,56,49.59Z"></path>
      <path class="cls-8" d="M56,49.73c0-.1.11-.37-.18-.45a3.83,3.83,0,0,0-.58-.13s-.71.54-.85.63-.23.07.18.2.41.22.78.18A1.11,1.11,0,0,0,56,49.73Z"></path>
      <path class="cls-9" d="M55.22,49.15a5.68,5.68,0,0,0-.52.52c-.2.24-.24.32-.49.19s-.91-.22-1.07-.46-.17-.23,0-.53a1.33,1.33,0,0,1,.84-.51.74.74,0,0,1,.83.18A1.85,1.85,0,0,1,55.22,49.15Z"></path>
      <path class="cls-6" d="M52,28.39A2.42,2.42,0,0,0,49.55,28c-1.16.66-1.44,1.75-1.16,2.06a5.07,5.07,0,0,0,.57.38c.38.23.85-.77.88-.78Z"></path>
      <path class="cls-7" d="M53,29.76s-.76-1.62-1.4-1.5-1.39.17-1.39.17l-.12.35s.87,1,1.15,1,.79.05.91.08A6.88,6.88,0,0,0,53,29.76Z"></path>
      <path class="cls-8" d="M53,30c0-.16,0-.57-.39-.6a5.45,5.45,0,0,0-.87,0s-.85,1-1,1.15-.31.18.32.23.65.21,1.17,0A1.59,1.59,0,0,0,53,30Z"></path>
      <path class="cls-9" d="M51.69,29.38a8.37,8.37,0,0,0-.59.89c-.22.42-.25.54-.65.43s-1.36,0-1.67-.34-.31-.27-.1-.76a1.93,1.93,0,0,1,1-1,1.07,1.07,0,0,1,1.24,0A2.82,2.82,0,0,1,51.69,29.38Z"></path>
      <path class="cls-6" d="M47.17,35.78s-5-2.5-8.53.56-3.67,7-2.47,7.83a16.48,16.48,0,0,0,2.2.87c1.44.54,2.34-3.23,2.43-3.28S47.17,35.78,47.17,35.78Z"></path>
      <path class="cls-7" d="M51.45,39.74s-3.72-5-5.84-4.11S41,37.21,41,37.21l-.14,1.27s3.66,2.72,4.63,2.63,2.71-.39,3.14-.4A21.3,21.3,0,0,0,51.45,39.74Z"></path>
      <path class="cls-8" d="M51.59,40.5c0-.55-.25-2-1.75-1.78a20.49,20.49,0,0,0-3,.63s-2.2,4-2.68,4.67-.94.83,1.24.55,2.36.23,4-.77A5.62,5.62,0,0,0,51.59,40.5Z"></path>
      <path class="cls-9" d="M46.89,39.35a25.24,25.24,0,0,0-1.37,3.46c-.46,1.58-.48,2-1.91,1.94s-4.66.85-6,0-1.23-.69-.87-2.52,1.2-2.7,2.85-4.12a3.73,3.73,0,0,1,4.25-.89A9.72,9.72,0,0,1,46.89,39.35Z"></path>
      <path class="cls-6" d="M64.51,36.84s-4.2-2.48-7.43,0-3.61,5.84-2.62,6.65a14.82,14.82,0,0,0,1.85.89c1.23.56,2.23-2.66,2.31-2.71S64.51,36.84,64.51,36.84Z"></path>
      <path class="cls-7" d="M68,40.53S65.06,36,63.17,36.61s-4.09,1.09-4.09,1.09l-.2,1.09s3,2.59,3.86,2.57,2.38-.18,2.75-.16A19.22,19.22,0,0,0,68,40.53Z"></path>
      <path class="cls-8" d="M68.07,41.2c0-.49-.1-1.73-1.41-1.65a17.94,17.94,0,0,0-2.61.36s-2.14,3.33-2.6,3.89-.87.67,1,.56,2,.34,3.52-.43A4.87,4.87,0,0,0,68.07,41.2Z"></path>
      <path class="cls-9" d="M64.05,39.91a22.42,22.42,0,0,0-1.4,2.93c-.48,1.34-.53,1.72-1.77,1.56s-4.1.46-5.16-.33-1-.67-.61-2.24,1.21-2.27,2.72-3.4a3.25,3.25,0,0,1,3.75-.52A8.35,8.35,0,0,1,64.05,39.91Z"></path>
      <path class="cls-6" d="M75.65,32.39s-4.15-3.2-7.91-1-4.63,5.74-3.68,6.73a15.83,15.83,0,0,0,1.85,1.2c1.23.75,2.74-2.54,2.82-2.58S75.65,32.39,75.65,32.39Z"></path>
      <path class="cls-7" d="M78.86,36.79S76.35,31.55,74.25,32s-4.5.62-4.5.62l-.36,1.13s2.87,3.16,3.77,3.26,2.56.12,3,.19A19.2,19.2,0,0,0,78.86,36.79Z"></path>
      <path class="cls-8" d="M78.86,37.52c0-.52.12-1.86-1.29-2a19,19,0,0,0-2.82,0S72,38.87,71.45,39.4s-1,.6,1,.74,2.12.63,3.81,0A5.23,5.23,0,0,0,78.86,37.52Z"></path>
      <path class="cls-9" d="M74.75,35.61a23.93,23.93,0,0,0-1.88,2.93c-.7,1.36-.8,1.76-2.1,1.43s-4.43-.06-5.46-1-1-.86-.34-2.47,1.59-2.25,3.35-3.26a3.52,3.52,0,0,1,4.06,0A9,9,0,0,1,74.75,35.61Z"></path>
      <path class="cls-6" d="M78.87,45.81a2.52,2.52,0,0,0,2.3-1.14c.62-1.25.22-2.36-.21-2.46a4.31,4.31,0,0,0-.71,0c-.47,0-.28,1.17-.3,1.19Z"></path>
      <path class="cls-7" d="M77.23,45.2s1.6,1,2.09.47a14.45,14.45,0,0,1,1.1-1l-.11-.37a5.27,5.27,0,0,0-1.59-.2c-.26.14-.71.43-.83.48A7.19,7.19,0,0,0,77.23,45.2Z"></path>
      <path class="cls-8" d="M77.1,45c.08.15.3.52.69.29a7.22,7.22,0,0,0,.75-.52s.15-1.35.2-1.6.17-.34-.41,0-.68.21-1,.68A1.7,1.7,0,0,0,77.1,45Z"></path>
      <path class="cls-9" d="M78.54,44.78a7.16,7.16,0,0,0,0-1.11c-.06-.5-.1-.62.3-.76s1.2-.78,1.65-.7.42,0,.53.6a2,2,0,0,1-.31,1.47,1.12,1.12,0,0,1-1.08.74A2.83,2.83,0,0,1,78.54,44.78Z"></path>
      <path class="cls-6" d="M39.37,46.7s2.13.29,3-1.25.48-3-.06-3.15a7.27,7.27,0,0,0-.91,0c-.59,0-.45,1.47-.48,1.5S39.37,46.7,39.37,46.7Z"></path>
      <path class="cls-7" d="M37.33,45.79s2,1.35,2.63.77,1.47-1.14,1.47-1.14l-.1-.47a6.55,6.55,0,0,0-2-.39c-.34.15-.93.47-1.09.53A8.17,8.17,0,0,0,37.33,45.79Z"></path>
      <path class="cls-8" d="M37.18,45.53c.09.19.34.69.86.43a7.41,7.41,0,0,0,1-.59s.31-1.72.41-2,.23-.41-.52,0-.89.2-1.37.77A2.2,2.2,0,0,0,37.18,45.53Z"></path>
      <path class="cls-9" d="M39,45.37a9.38,9.38,0,0,0,.08-1.43c0-.63-.08-.79.45-.94s1.59-.88,2.16-.74.53.1.63.81a2.62,2.62,0,0,1-.53,1.85,1.42,1.42,0,0,1-1.44.84A3.69,3.69,0,0,1,39,45.37Z"></path>
      <path class="cls-6" d="M53.26,38.77a1.88,1.88,0,0,0,1.87.33c.92-.48,1.17-1.32.95-1.57a3.09,3.09,0,0,0-.43-.3c-.29-.19-.68.57-.7.58Z"></path>
      <path class="cls-7" d="M52.54,37.69s.55,1.27,1.05,1.2,1.08-.11,1.08-.11l.09-.26s-.65-.78-.86-.82-.61-.05-.7-.07A5.17,5.17,0,0,0,52.54,37.69Z"></path>
      <path class="cls-8" d="M52.55,37.52c0,.12,0,.44.29.48a5.16,5.16,0,0,0,.67,0s.68-.74.82-.87.25-.13-.24-.18-.5-.17-.91,0A1.28,1.28,0,0,0,52.55,37.52Z"></path>
      <path class="cls-9" d="M53.51,38a7.74,7.74,0,0,0,.48-.67c.18-.32.2-.41.51-.32s1,.06,1.29.3.23.21.05.59a1.46,1.46,0,0,1-.83.74.8.8,0,0,1-1,0A2.08,2.08,0,0,1,53.51,38Z"></path>
      <path class="cls-6" d="M70.15,45.9s4.71,1.15,7.08-2.1,1.76-6.59.58-7.08a14,14,0,0,0-2-.31c-1.32-.18-1.35,3.17-1.42,3.24S70.15,45.9,70.15,45.9Z"></path>
      <path class="cls-7" d="M65.78,43.39s4.1,3.49,5.72,2.34,3.57-2.21,3.57-2.21l-.13-1.1s-3.61-1.59-4.41-1.33S68.32,42,68,42A20,20,0,0,0,65.78,43.39Z"></path>
      <path class="cls-8" d="M65.51,42.78c.15.46.6,1.62,1.82,1.17a19.45,19.45,0,0,0,2.37-1.1s1.08-3.79,1.36-4.45.63-.89-1.15-.23-2,.26-3.23,1.42A4.86,4.86,0,0,0,65.51,42.78Z"></path>
      <path class="cls-9" d="M69.7,42.85a22.71,22.71,0,0,0,.49-3.19c.08-1.41,0-1.78,1.24-2s3.76-1.61,5-1.17,1.17.35,1.22,2-.49,2.5-1.6,4A3.24,3.24,0,0,1,72.64,44,8.42,8.42,0,0,1,69.7,42.85Z"></path>
      <path class="cls-6" d="M48.42,43.18s2.83,1.59,4.94-.07,2.32-3.93,1.65-4.46a9.49,9.49,0,0,0-1.24-.57c-.82-.35-1.45,1.81-1.5,1.83Z"></path>
      <path class="cls-7" d="M46.06,40.77s2,3,3.26,2.54,2.7-.78,2.7-.78l.12-.72s-2-1.68-2.6-1.66-1.58.15-1.83.14A12.73,12.73,0,0,0,46.06,40.77Z"></path>
      <path class="cls-8" d="M46,40.33c0,.32.09,1.15,1,1.08a12.33,12.33,0,0,0,1.72-.28s1.39-2.24,1.69-2.62.56-.46-.71-.35-1.35-.2-2.33.33A3.24,3.24,0,0,0,46,40.33Z"></path>
      <path class="cls-9" d="M48.68,41.13a14.75,14.75,0,0,0,.9-2c.3-.9.33-1.15,1.15-1.07s2.72-.35,3.44.15.69.44.43,1.49A3.84,3.84,0,0,1,52.84,42a2.15,2.15,0,0,1-2.48.4A5.59,5.59,0,0,1,48.68,41.13Z"></path>
    </g>
  </g>
</svg>
