<?xml version="1.0" encoding="UTF-8"?>
<svg xmlns="http://www.w3.org/2000/svg" xmlns:xlink="http://www.w3.org/1999/xlink" viewBox="0 0 121.1 176.68">
  <defs>
    <style>.cls-1{fill:none;}.cls-2{fill:#956d4b;}.cls-3{clip-path:url(#clip-path);}.cls-4{fill:url(#Безымянный_градиент_4);}.cls-5{fill:#754120;}.cls-6{fill:#44281c;}.cls-7{fill:#6c3c1d;}.cls-8{fill:#714d31;}.cls-9{fill:#613822;}.cls-10{fill:#7f5637;}.cls-11{fill:#a07850;}.cls-12{fill:#dec97e;}.cls-13{fill:#ceb874;}.cls-14{fill:#8b5b3c;}.cls-15{fill:#5a973e;}.cls-16{fill:#487832;}.cls-17{fill:#abc552;}.cls-18{fill:#75ad40;}.cls-19{fill:#528938;}.cls-20{fill:#613922;}</style>
    <clipPath id="clip-path">
      <polygon class="cls-1" points="14.66 148 64.63 171.52 110.85 148.11 62.79 127.75 14.66 148"></polygon>
    </clipPath>
    <linearGradient id="Безымянный_градиент_4" x1="-4107.61" y1="-322.26" x2="-4104.81" y2="-322.26" gradientTransform="matrix(34.36, 0, 0, -34.36, 141125.44, -10921.96)" gradientUnits="userSpaceOnUse">
      <stop offset="0" stop-color="#a17551"></stop>
      <stop offset="0.38" stop-color="#a17551"></stop>
      <stop offset="0.89" stop-color="#7a4928"></stop>
      <stop offset="1" stop-color="#72401f"></stop>
    </linearGradient>
  </defs>
  <g id="Слой_2" data-name="Слой 2">
    <g id="Слой_1-2" data-name="Слой 1">
      <path class="cls-2" d="M64.63,105.36s9.62,11.3,17.05,11.77,32.82-7.57,32.82-7.57l2.55-26.43L64.63,64.64Z"></path>
      <path class="cls-2" d="M6.93,81.26l5.23,34.47S30.74,118.52,34,117.6s18.12-6.51,22.3-6.51,8.33-5.73,8.33-5.73V64.64Z"></path>
      <g class="cls-3">
        <rect class="cls-4" x="38.32" y="100.44" width="48.87" height="98.4" transform="translate(-90.04 204.27) rotate(-86.92)"></rect>
      </g>
      <path class="cls-5" d="M14.66,148l-2.5-32.26s23.69-.47,30.2-3.72,22.27-6.66,22.27-6.66l-1.84,22.4Z"></path>
      <path class="cls-6" d="M48.43,117.74a8.66,8.66,0,0,0-2.84-1.67v0s-3.78-1.13-5.85,1.41-1.7,5.29-.77,5.74a11.08,11.08,0,0,0,1.63.34l.1,0a29.92,29.92,0,0,0,3.5-.8,1.62,1.62,0,0,0,.61-.16c.17,0,.35-.09.65-.19,1.48-.46,1.66-.12,2.69-1a4,4,0,0,0,1.08-2.55l-.2-.5h0l0,0a1,1,0,0,0-.58-.5"></path>
      <path class="cls-6" d="M28.14,121.07a10.76,10.76,0,0,0-4,1.32v0s-4.3,2.7-3.58,6.85,3.65,6.13,4.87,5.6a15.58,15.58,0,0,0,1.72-1.28l0-.14c.92-1,1.6-3.16,2.21-4a2.27,2.27,0,0,0,.36-.72c.1-.2.21-.42.37-.79.81-1.81,1.28-1.71,1.29-3.45a5.09,5.09,0,0,0-1.54-3.21,3.4,3.4,0,0,0-.65-.23v0h-.07a1.26,1.26,0,0,0-1,.14"></path>
      <path class="cls-7" d="M64.63,105.36l-1.84,22.39,48.06,20.37,3.65-38.56s-15-1.72-21.49-.8-17.83,3.72-21.24,1.87a45.06,45.06,0,0,1-7.14-5.27"></path>
      <path class="cls-6" d="M46.32,128.37a3.29,3.29,0,0,0-1.25-.31h0a2.32,2.32,0,0,0-2,1.19c-.49,1.18,0,2.17.36,2.23l.65-.05,0,0a12.56,12.56,0,0,0,1.23-.69l.2-.13.23-.14c.5-.34.61-.23.89-.68a1.52,1.52,0,0,0,.12-1.08l-.13-.16h0Z"></path>
      <path class="cls-6" d="M93.41,118.73a2.48,2.48,0,0,0-.11-.89h0s-.38-1-1.27-1-1.43.5-1.37.78l.2.41h0l.75.63.14.1.15.11c.34.25.3.34.66.41a1.06,1.06,0,0,0,.73-.18l.08-.13h0Z"></path>
      <path class="cls-6" d="M106.83,134.91a10.93,10.93,0,0,0-1.91-3.81h0s-3.31-3.91-7.35-2.6S92,133,92.71,134.17a14.54,14.54,0,0,0,1.53,1.53h.13c1.19.77,3.39,1.14,4.37,1.62a2.24,2.24,0,0,0,.77.25c.22.08.45.15.84.26,1.94.54,1.9,1,3.64.79a5.14,5.14,0,0,0,3-2,3.35,3.35,0,0,0,.12-.69h0v-.07a1.31,1.31,0,0,0-.28-1"></path>
      <path class="cls-6" d="M80.71,121.63a8.19,8.19,0,0,0-1.86,2.69l0,0s-1.4,3.66,1,5.89,5.11,2.09,5.62,1.19a10.66,10.66,0,0,0,.46-1.59l0-.09a27.58,27.58,0,0,0-.52-3.53,1.7,1.7,0,0,0-.11-.61c0-.17-.07-.36-.14-.66-.34-1.5,0-1.66-.81-2.74a3.92,3.92,0,0,0-2.44-1.26l-.51.16h0l0,0a1,1,0,0,0-.54.54"></path>
      <path class="cls-8" d="M80.89,149a1.59,1.59,0,0,0,1.57-.42c.54-.7.43-1.43.17-1.55L82.2,147c-.3-.05-.32.69-.34.7Z"></path>
      <path class="cls-9" d="M80,148.43s.88.79,1.24.55.8-.47.8-.47l0-.24L81,148l-.57.19Z"></path>
      <path class="cls-10" d="M79.9,148.29c0,.1.12.36.39.27a3.87,3.87,0,0,0,.53-.23l.32-1c.07-.15.15-.19-.25-.06s-.45,0-.71.29a1,1,0,0,0-.28.69"></path>
      <path class="cls-11" d="M80.82,148.33a5.25,5.25,0,0,0,.13-.69c0-.31,0-.39.28-.43s.84-.33,1.1-.23.26.09.26.44a1.23,1.23,0,0,1-.38.87.7.7,0,0,1-.76.32,1.61,1.61,0,0,1-.63-.28"></path>
      <path class="cls-8" d="M70.21,142.88s2.39.13,3.25-1.67.25-3.36-.37-3.49a7.46,7.46,0,0,0-1,0c-.65,0-.37,1.67-.39,1.7Z"></path>
      <path class="cls-9" d="M67.86,142.06s2.3,1.32,3,.61,1.53-1.4,1.53-1.4l-.16-.52a7.22,7.22,0,0,0-2.26-.24c-.37.19-1,.61-1.16.69Z"></path>
      <path class="cls-10" d="M67.67,141.78c.12.21.44.74,1,.4a9.36,9.36,0,0,0,1-.75s.18-1.93.25-2.28.23-.49-.58,0-1,.31-1.44,1a2.45,2.45,0,0,0-.28,1.65"></path>
      <path class="cls-11" d="M69.71,141.43a9.53,9.53,0,0,0,0-1.58c-.09-.7-.15-.88.42-1.09s1.68-1.13,2.33-1,.6.06.77.84a2.85,2.85,0,0,1-.42,2.09,1.58,1.58,0,0,1-1.51,1.07,4,4,0,0,1-1.54-.31"></path>
      <path class="cls-8" d="M60.25,150.65s1.87,1.41,3.54.43,2.05-2.58,1.62-3a5.77,5.77,0,0,0-.83-.53c-.56-.33-1.22,1.15-1.25,1.16Z"></path>
      <path class="cls-9" d="M58.8,148.7s1.14,2.32,2.08,2.13,2-.29,2-.29L63,150s-1.29-1.4-1.69-1.44-1.15-.05-1.32-.07Z"></path>
      <path class="cls-10" d="M58.8,148.37c0,.23,0,.83.58.87a10.13,10.13,0,0,0,1.26,0l1.46-1.71c.25-.24.45-.27-.47-.32s-.94-.27-1.7,0a2.4,2.4,0,0,0-1.13,1.19"></path>
      <path class="cls-11" d="M60.64,149.21a9.52,9.52,0,0,0,.83-1.32c.31-.61.35-.79.93-.64s2,0,2.44.44.46.38.17,1.11a2.77,2.77,0,0,1-1.49,1.46,1.54,1.54,0,0,1-1.81,0,3.92,3.92,0,0,1-1.07-1.09"></path>
      <path class="cls-8" d="M56,144.21a2.66,2.66,0,0,0,.09-2.73c-.86-1.2-2.1-1.39-2.41-1l-.35.67c-.21.44,1,.85,1,.88Z"></path>
      <path class="cls-9" d="M54.56,145.45s1.71-1,1.5-1.73-.36-1.51-.36-1.51l-.4-.09s-1,1.08-1,1.4,0,.87,0,1Z"></path>
      <path class="cls-10" d="M54.32,145.47c.18,0,.64,0,.62-.5a6.74,6.74,0,0,0-.1-1l-1.4-1c-.21-.18-.24-.32-.22.38s-.15.74.12,1.3a1.8,1.8,0,0,0,1,.78"></path>
      <path class="cls-11" d="M54.83,144a7.51,7.51,0,0,0-1-.54c-.49-.2-.63-.22-.56-.68s-.12-1.5.18-1.89.26-.37.83-.19a2.12,2.12,0,0,1,1.22,1,1.2,1.2,0,0,1,.15,1.38,3.12,3.12,0,0,1-.77.89"></path>
      <path class="cls-8" d="M47.49,146.22a1.15,1.15,0,0,0,.39-1.11c-.2-.61-.69-.85-.87-.74l-.23.23.29.49Z"></path>
      <path class="cls-9" d="M46.75,146.56s.84-.21.84-.53a5.52,5.52,0,0,1,0-.67l-.15-.08-.59.44-.12.43Z"></path>
      <path class="cls-10" d="M46.65,146.54l.32-.13.08-.41-.45-.6c-.06-.09-.06-.16-.14.13s-.15.29-.11.56a.76.76,0,0,0,.3.45"></path>
      <path class="cls-11" d="M47.05,146l-.37-.36-.14-.35.31-.76.37,0a.91.91,0,0,1,.37.58.52.52,0,0,1-.11.6Z"></path>
      <path class="cls-8" d="M44.89,150.9s1.64-2.64.14-4.73-3.66-2.39-4.19-1.77a8.35,8.35,0,0,0-.59,1.17c-.37.77,1.66,1.45,1.68,1.5Z"></path>
      <path class="cls-9" d="M42.49,153.05s2.94-1.8,2.57-3a26.06,26.06,0,0,1-.64-2.61l-.69-.15S42,149.16,42,149.7s.08,1.52.06,1.75Z"></path>
      <path class="cls-10" d="M42.07,153.09c.3,0,1.1,0,1.07-.87a11.34,11.34,0,0,0-.2-1.66s-2.08-1.42-2.43-1.72-.41-.56-.37.65-.24,1.29.22,2.25a3.12,3.12,0,0,0,1.71,1.35"></path>
      <path class="cls-11" d="M42.94,150.55a14.53,14.53,0,0,0-1.83-.93c-.85-.33-1.09-.36-1-1.15s-.23-2.61.28-3.28.45-.64,1.44-.35A3.69,3.69,0,0,1,44,146.62a2.09,2.09,0,0,1,.28,2.39,5.2,5.2,0,0,1-1.32,1.54"></path>
      <path class="cls-12" d="M49.9,94.62c-.58,6.67,4.83,19.52,6.74,31.53,2.18,13.73,2.18,44.68,2.18,44.68,1.09-.22.87-12.86.87-12.86,0-17.66,7.85-52.31,9.37-58.41a12.65,12.65,0,0,0,.18-4.94Z"></path>
      <path class="cls-13" d="M63,94.62c-1.67,8.38-3.72,16.19-8,23.69.64,2.61,1.22,5.24,1.63,7.84,2.18,13.73,2.18,44.68,2.18,44.68,1.09-.22.87-12.86.87-12.86,0-17.66,7.85-52.31,9.37-58.41a12.46,12.46,0,0,0,.18-4.94Z"></path>
      <path class="cls-13" d="M59.36,157.85a12.16,12.16,0,0,1,3.92,3.44,10.25,10.25,0,0,1,2.09,4.64,10,10,0,0,0-2.43-4.37A11.67,11.67,0,0,0,59,158.63Z"></path>
      <path class="cls-13" d="M59.32,148.46a5.15,5.15,0,0,1,2.51,2.11,14.22,14.22,0,0,1,1.36,2.77,18.33,18.33,0,0,0,1.18,2.71,4.55,4.55,0,0,0,2.12,2,4.71,4.71,0,0,1-2.41-1.79,14.19,14.19,0,0,1-1.5-2.65,13.1,13.1,0,0,0-1.48-2.49A4.2,4.2,0,0,0,59,149.55Z"></path>
      <path class="cls-13" d="M60.42,142.54a14.67,14.67,0,0,0,3,1.93c1.08.56,2.19,1.07,3.31,1.58a5.79,5.79,0,0,1,1.65,1,2.4,2.4,0,0,1,.72,1.8l-.09,3.7-.22-3.68a2,2,0,0,0-.72-1.48,5.34,5.34,0,0,0-1.57-.77c-1.15-.43-2.31-.86-3.46-1.35a15.73,15.73,0,0,1-3.34-1.85Z"></path>
      <path class="cls-13" d="M58.86,143.8a11.92,11.92,0,0,0-3.63,2.06A5.32,5.32,0,0,0,54,147.47a6.58,6.58,0,0,0-.5,2,14.19,14.19,0,0,1-.34,2.19,5.83,5.83,0,0,1-1,2,14.87,14.87,0,0,1-3.3,2.89,14.32,14.32,0,0,0,3.06-3.06,5.26,5.26,0,0,0,.82-1.94,15,15,0,0,0,.19-2.15,7.12,7.12,0,0,1,.41-2.24,6.06,6.06,0,0,1,1.28-1.95,13,13,0,0,1,3.78-2.5Z"></path>
      <path class="cls-13" d="M59.37,153.19a4.93,4.93,0,0,0-2,1.13,11.66,11.66,0,0,0-1.73,1.78c-.49.64-.89,1.42-1.35,2.15a8.56,8.56,0,0,1-1.63,2A8.36,8.36,0,0,0,54,158.09a22.65,22.65,0,0,1,1.11-2.35,11.94,11.94,0,0,1,1.66-2.08,5.91,5.91,0,0,1,2.32-1.59Z"></path>
      <path class="cls-13" d="M62.06,132.4a7.11,7.11,0,0,1,3.42,1.5,8.18,8.18,0,0,1,1.63,3.27,10.36,10.36,0,0,0,1.62,3,5.7,5.7,0,0,0,2.8,2,5.88,5.88,0,0,1-3-1.77,11,11,0,0,1-1.93-3,7.59,7.59,0,0,0-1.68-2.85,6.35,6.35,0,0,0-3.05-1Z"></path>
      <path class="cls-13" d="M62.86,122.84a7.93,7.93,0,0,1,3.51,2.51,9.72,9.72,0,0,1,1.77,3.82,12.52,12.52,0,0,0,1.52,3.72,25,25,0,0,0,2.52,3.2,25,25,0,0,1-2.76-3,12.94,12.94,0,0,1-1.82-3.71,9.31,9.31,0,0,0-1.88-3.43,6.91,6.91,0,0,0-3.21-2Z"></path>
      <path class="cls-13" d="M57.83,129.36c-1.12-.17-2.29-.19-2.71.67a7.32,7.32,0,0,0-.46,1.61c-.13.59-.27,1.17-.43,1.75a12,12,0,0,1-1.42,3.34,6.4,6.4,0,0,1-2.64,2.39,6.15,6.15,0,0,0,2.39-2.54,11.7,11.7,0,0,0,1.11-3.32c.11-.58.2-1.16.28-1.75a8.07,8.07,0,0,1,.39-1.85A2.39,2.39,0,0,1,56,128.32a6.8,6.8,0,0,1,1.94-.11Z"></path>
      <path class="cls-13" d="M56.91,120.47a3.52,3.52,0,0,1-2,1.12c-.65.17-1.34.26-1.84.44s-.58.66-.78,1.29l-.62,1.86a14,14,0,0,1-1.79,3.54,38.28,38.28,0,0,1-2.42,3.09,39,39,0,0,0,2.15-3.26A13.37,13.37,0,0,0,51.05,125l.46-1.9a8,8,0,0,1,.31-1,2.27,2.27,0,0,1,.32-.53,1.62,1.62,0,0,1,.55-.4,16.92,16.92,0,0,1,1.94-.58A2.54,2.54,0,0,0,56,119.8Z"></path>
      <polygon class="cls-14" points="6.74 81.56 64.67 107.08 117.31 83.55 64.67 63.97 6.74 81.56"></polygon>
      <path class="cls-15" d="M72.85,53.38a6.6,6.6,0,0,1-3.75.06c-1.76-.6-.59-.22-2.63.18s-4.37,1.76-4.85,0,.5-.92-1.47-2.92S55.85,47,58,45.87s4.11-1,3.91-3.72-.48-4.49,1.29-5.52-.11-4.7,2.26-5.17,6.61-.42,7.27-1.24.39-1.17.37-2.26a4.82,4.82,0,0,1,6.35-3.51,7,7,0,0,0,1.24-1c.68-.68.92-.18,2-1.22s.46-2.83,2.15-2.61,4.25-1.33,5.24.94,0-1.44,1.27-1.89.66.55,2.13-.63,2.42-1.58,2.92-.79,3,1.32,3.72,1.18,1.13.87,2.09.88.7-1.3,2-.68,3,.44,3.41,2.33.86,2.29,1.1,2.45a3.16,3.16,0,0,1,1.08,3.41c-.43,2.27.76,1.08,1.17,2.43s.13,3.4-.74,4.18,1.25,1.12-.2,3.12-2.43,2.94-2.8,5.55-.21,5.51-1.88,6-1.62,1.83-2.3,2.17-2.28,1.27-2.71.81-.29,1.63-.79,2.55-2.22,1.6-2.47,2.4,2.41,2.47-.82,3.79-6.08,1.75-6.18,1.57A1.82,1.82,0,0,1,88,63c-2.22-.18-4.38,3.4-7.16,1.08S79.23,57,78.4,55.5,72.85,53.38,72.85,53.38Z"></path>
      <path class="cls-16" d="M78.4,55.5c0,.06,0,.17.08.26a57,57,0,0,1,4.85-13.2l.07-.14a46.29,46.29,0,0,1,3.55-9,32.61,32.61,0,0,0,3.23-10.76l.21-1.55c-.07-.12-.15-.29-.27-.55-1-2.27-3.56-.73-5.24-.94s-1.06,1.57-2.15,2.61-1.33.54-2,1.22a7,7,0,0,1-1.24,1A4.82,4.82,0,0,0,73.13,28c0,1.09.29,1.45-.37,2.26s-4.9.77-7.27,1.24-.48,4.13-2.26,5.17-1.5,2.76-1.29,5.52S60.2,44.75,58,45.87s.15,2.84,2.12,4.84,1,1.17,1.47,2.92,2.81.4,4.85,0,.87-.78,2.63-.18a6.6,6.6,0,0,0,3.75-.06S77.56,54,78.4,55.5Z"></path>
      <path class="cls-17" d="M99.59,26.49a19.3,19.3,0,0,1-.66,2.08,19.77,19.77,0,0,1-.94,2,18.7,18.7,0,0,1-1.09,1.9,20.68,20.68,0,0,1-1.21,1.83A53.66,53.66,0,0,1,90.07,41c-4,4.2-8.38,8-12.12,12.38A42.31,42.31,0,0,0,73,60.28a43.55,43.55,0,0,0-3.35,7.81A112.77,112.77,0,0,0,66,84.89l-2.36-.41a113.57,113.57,0,0,1,4.14-17,44.7,44.7,0,0,1,3.74-8,43.75,43.75,0,0,1,5.34-7c4-4.33,8.44-8,12.56-12.07a54.79,54.79,0,0,0,5.75-6.43,19.86,19.86,0,0,0,1.24-1.76,21.41,21.41,0,0,0,1.13-1.83c.33-.64.72-1.25,1-1.9A17.65,17.65,0,0,1,99.59,26.49Z"></path>
      <path class="cls-17" d="M77.83,51.55A6.42,6.42,0,0,0,79,47.88a12.7,12.7,0,0,0-.57-4.08,26.83,26.83,0,0,0-4-7.4,27.31,27.31,0,0,1,4.62,7.21,13.68,13.68,0,0,1,.9,4.28,7.46,7.46,0,0,1-1.13,4.38Z"></path>
      <path class="cls-17" d="M78,42.44a20.08,20.08,0,0,0-3.8-2.13,12.47,12.47,0,0,1-1.9-1.12,4.81,4.81,0,0,1-1.47-1.64,7.1,7.1,0,0,0,3.46,2.58,20.12,20.12,0,0,1,4,2Z"></path>
      <path class="cls-17" d="M78.91,45.06a24.66,24.66,0,0,1,1-4.7,10,10,0,0,0,.47-4.67,7.54,7.54,0,0,1,.19,2.37,17.18,17.18,0,0,1-.37,2.37,24,24,0,0,0-.67,4.66Z"></path>
      <path class="cls-17" d="M88.2,41.91a19.08,19.08,0,0,0-.56-7.24,25.47,25.47,0,0,0-2.89-6.77A25.7,25.7,0,0,1,88,34.58a19.46,19.46,0,0,1,.88,7.4Z"></path>
      <path class="cls-17" d="M87.94,35.71a9.25,9.25,0,0,0-1.7-1.54c-.62-.47-1.28-.9-1.89-1.41A8.32,8.32,0,0,1,82.78,31a3.83,3.83,0,0,1-.67-2.24,4.34,4.34,0,0,0,.83,2.14,8.07,8.07,0,0,0,1.61,1.64c1.18,1,2.64,1.7,3.62,3Z"></path>
      <path class="cls-17" d="M88.25,37.75a7.81,7.81,0,0,0,1-4.14,13.2,13.2,0,0,0-.85-4.29,13.35,13.35,0,0,1,1.08,4.28A8.12,8.12,0,0,1,88.64,38Z"></path>
      <path class="cls-17" d="M95.63,33.46A15.84,15.84,0,0,0,94.49,25a16.13,16.13,0,0,1,1.65,8.55Z"></path>
      <path class="cls-17" d="M95.7,29.4a10.58,10.58,0,0,1-2.13-2.3,7.27,7.27,0,0,1-1.28-2.83A7.23,7.23,0,0,0,93.7,27a10.28,10.28,0,0,0,2.18,2.14Z"></path>
      <path class="cls-17" d="M91.3,38.68c2.16-.6,4.36-.93,6.43-1.63a16.91,16.91,0,0,0,3-1.37,5.4,5.4,0,0,0,2.24-2.32,5,5,0,0,1-2,2.65,13.65,13.65,0,0,1-3,1.56,44.05,44.05,0,0,1-6.49,1.56Z"></path>
      <path class="cls-17" d="M97.91,37.12a17,17,0,0,1,3.42-.07c1.14.07,2.26.21,3.39.35a26.82,26.82,0,0,0-6.76,0Z"></path>
      <path class="cls-17" d="M81.89,47.42c1.56-.21,3.1-.3,4.65-.36s3.08-.1,4.64-.07,3.07.17,4.59.1a9.24,9.24,0,0,0,4.39-1.15,9.45,9.45,0,0,1-4.36,1.48c-1.54.18-3.09.17-4.62.23s-3.05.2-4.57.35-3,.35-4.51.64Z"></path>
      <path class="cls-17" d="M87.59,47.25a12.94,12.94,0,0,0,3.29,2.31c1.21.67,2.47,1.27,3.62,2-1.21-.66-2.51-1.14-3.78-1.7-.64-.28-1.27-.57-1.89-.91a7.72,7.72,0,0,1-1.78-1.22Z"></path>
      <path class="cls-18" d="M60.26,48.61a7.68,7.68,0,0,1-3,2.2c-1.19.51-1.23.79-1.93,1.88s-2.14,4.06-3.59,3.25-1.25-1.23-3-1.21-5.35.1-4.63-2.16,2.22-3.69.52-5.48S41.53,44.24,41.7,42s-2.92-3.35-1.93-5.3,4.12-3.93,4.08-5.83-.34-.52-1.46-2.26S41.5,23.17,44.3,22a14.53,14.53,0,0,0,.08-1.64c0-.75.51-1.22.55-2.25s-1.43-2.15-.12-3.22,2.44-3.29,4.49-2.59-.69-1.23-.33-2.17,1-.79,1.05-1.88.26-2.62,1.52-2.55A5,5,0,0,0,55,4c.7-.81,1.44-.21,2.09-1s-.2-1.31,1-1.95S60.68-.39,61.89.21s1.37,1,2.63.91a3.36,3.36,0,0,1,3.16,1.6c.92,1.23,1.24.29,2.5.8a4.65,4.65,0,0,1,2.52,3.3c.22,1.29,1.68.61,2.13,2.42s.84,4.29,2.29,5.87,3.78,4.21,3.46,6.13.22,2.67.24,4a5.49,5.49,0,0,1-.95,3.28c-.54.61,1.1,2.19,1.48,3.24s-.59,3.17.53,4.54,2.7,1.59,2.31,4.24A29.7,29.7,0,0,1,82,48.28c-1,1.88,1.12,1.15-.66,3.44s-4.73,4.15-8.17,3-4-4.57-6.39-6.23S62.52,48.23,60.26,48.61Z"></path>
      <path class="cls-19" d="M83.09,45.45l-.37-.5a14.71,14.71,0,0,0-5.88-4.72A25.37,25.37,0,0,1,63,25.57a59.63,59.63,0,0,1-2.43-8.72,14.3,14.3,0,0,0-5.85-8.77,27,27,0,0,1-3.08-2.41h-.09C50.28,5.61,50.12,7.15,50,8.23s-.68.94-1.05,1.88,2.39,2.87.33,2.17-3.18,1.52-4.49,2.59.15,2.2.12,3.23-.55,1.49-.55,2.24A12.51,12.51,0,0,1,44.3,22c-2.8,1.19-3,4.86-1.91,6.61s1.43.35,1.46,2.26-3.08,3.88-4.08,5.83,2.1,3,1.93,5.3,1.2,3.32,2.9,5.11.2,3.21-.52,5.48,2.9,2.18,4.63,2.16,1.52.4,3,1.21,2.89-2.15,3.59-3.25.74-1.37,1.93-1.88a7.68,7.68,0,0,0,3-2.2c2.26-.38,4.17-1.77,6.55-.1s3,5.11,6.39,6.23,6.38-.73,8.17-3-.29-1.56.66-3.44A18.41,18.41,0,0,0,83.09,45.45Z"></path>
      <path class="cls-17" d="M61.91,9.73A69,69,0,0,1,64.22,26.9c.12,5.8-.25,11.6-.67,17.36s-.88,11.51-1,17.24a79.73,79.73,0,0,0,1.32,17l-3,.54a82.9,82.9,0,0,1-.59-17.58c.35-5.82,1.07-11.56,1.74-17.29s1.3-11.46,1.44-17.22A68.4,68.4,0,0,0,61.91,9.73Z"></path>
      <path class="cls-17" d="M62.09,45.78a38.07,38.07,0,0,1,2-3.64A13.2,13.2,0,0,1,66.82,39a20.64,20.64,0,0,0,3.06-2.66,22.86,22.86,0,0,0,2.24-3.39,22.51,22.51,0,0,1-2,3.58,20.55,20.55,0,0,1-2.89,2.93c-2,1.85-3,4.36-4,6.87Z"></path>
      <path class="cls-17" d="M64.37,41.78A2.61,2.61,0,0,1,65.93,41a5.81,5.81,0,0,1,1.67,0,28.58,28.58,0,0,1,3.06.86c1,.31,2,.7,3,1a8.82,8.82,0,0,0,3,.53,7.62,7.62,0,0,1-3.15-.15c-1-.24-2-.56-3-.8a29.22,29.22,0,0,0-3-.75,2.9,2.9,0,0,0-2.63.51Z"></path>
      <path class="cls-17" d="M70.51,42.1a6.91,6.91,0,0,1,2.16-1.36,5.34,5.34,0,0,0,2.13-1.25,5.37,5.37,0,0,1-2,1.45,6.55,6.55,0,0,0-1.94,1.47Z"></path>
      <path class="cls-17" d="M63.38,32.18A17.74,17.74,0,0,1,68,24.93,26.05,26.05,0,0,1,75,20.12a25.83,25.83,0,0,0-6.81,5.05A17.14,17.14,0,0,0,64,32.38Z"></path>
      <path class="cls-17" d="M67.78,25.32a11.74,11.74,0,0,0,2-4.82A19.23,19.23,0,0,1,70.67,18a6.11,6.11,0,0,1,1.51-2.18A6,6,0,0,0,70.72,18a18.63,18.63,0,0,0-.78,2.54,12,12,0,0,1-2,4.93Z"></path>
      <path class="cls-17" d="M63.19,17.83a12.24,12.24,0,0,0,1-2.4c.24-.83.45-1.69.64-2.54.37-1.71.68-3.44,1.09-5.14-.34,1.72-.59,3.45-.9,5.18-.16.86-.33,1.72-.55,2.58A11.56,11.56,0,0,1,63.53,18Z"></path>
      <path class="cls-17" d="M62.69,40.12a79.71,79.71,0,0,1-6-6.73c-.93-1.17-1.83-2.38-2.69-3.6a7.2,7.2,0,0,0-3.26-2.92,7.41,7.41,0,0,1,3.52,2.72c.94,1.16,1.9,2.29,2.91,3.39a78.08,78.08,0,0,0,6.38,6.23Z"></path>
      <path class="cls-17" d="M59.17,36.06a13.47,13.47,0,0,0-6-1.12c-2.06,0-4.13.39-6.2.21a61.3,61.3,0,0,0,6.19-.43,13.73,13.73,0,0,1,6.17,1Z"></path>
      <path class="cls-17" d="M56.85,35.18A20.37,20.37,0,0,1,53.61,37,9.07,9.07,0,0,1,50,38a8.9,8.9,0,0,0,3.52-1.07,19.9,19.9,0,0,0,3.14-2Z"></path>
      <path class="cls-17" d="M63.46,29.36A14.67,14.67,0,0,0,61.1,26c-.92-1-1.91-2-2.9-3s-2-1.95-2.91-3a15.45,15.45,0,0,1-2.4-3.41,15,15,0,0,0,2.52,3.29c1,1,2,1.93,3,2.87s2.06,1.87,3,2.89a15.55,15.55,0,0,1,2.58,3.4Z"></path>
      <path class="cls-17" d="M56.71,21.49a10.8,10.8,0,0,0-3.24-7.65,10.87,10.87,0,0,1,3.39,7.65Z"></path>
      <path class="cls-17" d="M60.71,25.49a5.35,5.35,0,0,1-2.92-.31c-.9-.33-1.72-.81-2.63-1.09.93.18,1.81.59,2.72.82a4.74,4.74,0,0,0,2.69,0Z"></path>
      <path class="cls-15" d="M55.09,32.72c2.72,3.67,5.82,9.68,5.62,13.9s3.34,7.36.53,10S55.07,59.24,51.73,60c-3.62-2.66-6.29-4.78-10.76-6.22a16.24,16.24,0,0,1-9.75-9.76c4.51,1,9.67.91,13.14-2.61S50.31,34.57,55.09,32.72Z"></path>
      <path class="cls-17" d="M45.84,43.09a83.86,83.86,0,0,1,6,7.53,38.6,38.6,0,0,1,4.41,8.66A31.92,31.92,0,0,1,58,69a60.5,60.5,0,0,1-.57,9.72l-2.59-.4a57.18,57.18,0,0,0,.9-9.28,30.15,30.15,0,0,0-1.3-9.11,46.87,46.87,0,0,0-3.85-8.5C49.07,48.59,47.41,45.87,45.84,43.09Z"></path>
      <path class="cls-17" d="M52.74,53.75a14,14,0,0,0,1.77-4.36,13.62,13.62,0,0,0,.09-4.81,13.87,13.87,0,0,1,.6,4.9A15.35,15.35,0,0,1,54,54.37Z"></path>
      <polygon class="cls-17" points="51.99 53.77 44.71 49.16 52.24 53.35 51.99 53.77"></polygon>
      <path class="cls-18" d="M37.33,34.31c0-.73-.58-1-1.06-1.25s-.67-.16-.15-.56,1.53-.85.49-1.46-1.94-.19-2.49-1.66-2-5.55-4.06-4.49-3,2.71-5.16,1.83-4-1.73-6-.84-4.37-.25-5.42,1.77S14,33,12.8,34.78s-1,0-2.78,1A4.4,4.4,0,0,0,8.86,42c-.42.54-.38.72-.84,1.29S7.85,44.46,6.87,45s-2.57.48-3.16,2-1.41,3.72-.07,5.12-1.31,1-1.86,1.7-.27,1.6-.87,2.45-1.4,2.24-.52,3.23A8.94,8.94,0,0,1,2.25,63c.28,1.11,1,1.16,1.25,2.09s-.57,1.19,0,2.16,1.57,2.35,2.75,2.66S8,70,9.08,70.65A3.8,3.8,0,0,0,12.5,71c1.26-.41,1.29.41,2.85.25a7.33,7.33,0,0,0,4.58-3.32c1-1.65,3-2.15,4.07-4.12s2.4-6.73,4.59-7.62,5.4,0,6.68-1.45a27.76,27.76,0,0,1,2.4-2.39c1-.88.41-1.11.9-2.12s2.1-.93,3.07-1.57.87-1.92,2.25-2.43,3.22-.22,4-2,.67-5.27,1.5-6.73,2.64-.69,2.66-2c0-2.78,5.3-1.55,1.88-3.47-2.68-1.5-8.78,1.64-11.41,3.17S39.55,34.85,37.33,34.31Z"></path>
      <path class="cls-17" d="M38.07,34.61c-6.27,3.18-11.66,5.47-16.45,10.93s-9,12.16-13.35,18.07C12.8,57.83,17.09,51.18,22.19,46s11.09-7,17.29-10.36A7.4,7.4,0,0,1,38.07,34.61Z"></path>
      <path class="cls-17" d="M35.61,37.32a5.4,5.4,0,0,0-.84,2.81,7,7,0,0,0,.76,3c.46,1,1,1.93,1.5,3a7.72,7.72,0,0,1,.76,3.22,7.47,7.47,0,0,0-1.07-3.06c-.55-.94-1.21-1.82-1.8-2.78a7.75,7.75,0,0,1-1.18-3.26,6.53,6.53,0,0,1,.65-3.53h0a.69.69,0,1,1,1.24.6Z"></path>
      <path class="cls-17" d="M34.5,40.82a13.09,13.09,0,0,0-1.47,4A9.93,9.93,0,0,0,33.24,49a10.12,10.12,0,0,1-.51-4.27A13.24,13.24,0,0,1,34,40.55a.3.3,0,0,1,.4-.16.31.31,0,0,1,.16.41Z"></path>
      <path class="cls-17" d="M30.81,38.93a22.58,22.58,0,0,0-7.08-2.59,21.52,21.52,0,0,0-7.63.16,21.79,21.79,0,0,1,7.72-.84,23.47,23.47,0,0,1,7.6,2,.71.71,0,0,1,.36.92.68.68,0,0,1-.91.35Z"></path>
      <path class="cls-17" d="M22.48,35.88a16.79,16.79,0,0,1-3.34,2.91,17.69,17.69,0,0,1-4,1.91A17.22,17.22,0,0,0,19,38.54a15.78,15.78,0,0,0,3-3.07.33.33,0,0,1,.45,0,.31.31,0,0,1,0,.44Z"></path>
      <path class="cls-17" d="M22.56,45.3A13.6,13.6,0,0,0,22,48.83c0,1.2,0,2.43,0,3.67a32.62,32.62,0,0,1-.15,3.69,9.89,9.89,0,0,1-1,3.56,11.8,11.8,0,0,0,.61-3.58c0-1.22,0-2.44-.05-3.66s-.16-2.44-.13-3.69a11.92,11.92,0,0,1,.67-3.7.29.29,0,0,1,.37-.17A.28.28,0,0,1,22.56,45.3Z"></path>
      <path class="cls-17" d="M22.89,44.7a53.63,53.63,0,0,0,4.51,5.8,53.68,53.68,0,0,1-5-5.4.33.33,0,0,1,.05-.47.32.32,0,0,1,.46,0Z"></path>
      <path class="cls-17" d="M21.34,46.44a45,45,0,0,0-6.25,1.48C13,48.57,11,49.35,9,50.13a35.49,35.49,0,0,1,12.26-4.24.28.28,0,0,1,.31.24A.27.27,0,0,1,21.34,46.44Z"></path>
      <path class="cls-17" d="M13.91,48.1a17.49,17.49,0,0,1-3.4,4,29.83,29.83,0,0,1-4.26,3.06A30.7,30.7,0,0,0,10.43,52,17.47,17.47,0,0,0,13.69,48a.12.12,0,0,1,.17,0,.13.13,0,0,1,.05.17Z"></path>
      <path class="cls-12" d="M62.12,76.72c-5-.44-8.5,1.08-11.33,6.53a6.63,6.63,0,0,0-.65,2.47H69.49C68.78,81.14,65.81,77,62.12,76.72Z"></path>
      <path class="cls-13" d="M64.77,77.64c-.5,2.76-1,5.45-1.52,8.08h6.24C69,82.31,67.18,79.16,64.77,77.64Z"></path>
      <path class="cls-18" d="M121.09,81.63c0-1.23-.93-.81-1.28-1.59s.39-1.17,0-1.94a3.63,3.63,0,0,1-.4-3.07c.49-.93-1.26-1.55-2-1.85s-.92-.76-1.53-1.22-3.57.8-2.32-.41-.2-3.49-.57-5-2.12-.77-3-1.2-.91-1.28-1.53-1.66-.69-.57-1.24-1c.46-2.73-2.14-5.27-4.13-5.06s-.8,1-2.39.23-1.73-4.36-3-6-3.19.89-5.11,0-3.17.25-5.15,1.41-2.8-.47-4.54-1.85-2.69,2-3.35,3.27-1,.7-2.15,1.18.72,2.28,1.26,3.08a2.42,2.42,0,0,1,.71,2.08,4.35,4.35,0,0,0,.73,3c-.39,1.66.61,3.39-1.25,4.74s-6,.93-7.29,3.72,1.81,3.74,2.35,5.81S75,78.73,75.67,80a19.91,19.91,0,0,0,2.93,4.57C80,86,80.8,84.43,82,84s2,1.13,2.76,1.19,2.48-.81,2.71,0a4.63,4.63,0,0,0,2.28,2.31c1.14.59,2,.4,3.58,1.58s5.68.28,7.78-.16,4.13.79,5.75,1.53,1.76-.76,2.83-.18a3.86,3.86,0,0,0,3.77-.09c1-.73.41-1.45,1.84-1.55a3,3,0,0,0,2.79-1.71c.53-1,1-1,2-1.69S121.13,82.86,121.09,81.63Z"></path>
      <path class="cls-17" d="M65.41,78c1.79-4.42,4.62-8.69,8.84-11.29a16.22,16.22,0,0,1,6.92-2.43,16.76,16.76,0,0,1,7.24,1C93,66.91,96.88,69.9,100.47,73s7.22,6.1,11.61,8a25.79,25.79,0,0,1-6.43-3c-2-1.27-3.9-2.74-5.77-4.18s-3.72-2.9-5.68-4.17A27.84,27.84,0,0,0,88,66.4a15.88,15.88,0,0,0-6.71-.87A14.92,14.92,0,0,0,75,67.78a22.71,22.71,0,0,0-8.44,10.63Z"></path>
      <path class="cls-17" d="M81.1,65.16a11.34,11.34,0,0,1-.92,3.22,5.19,5.19,0,0,0-.38,3c.17,1,.57,2,.84,3.06a4.94,4.94,0,0,1,0,3.18,4.83,4.83,0,0,0-.25-3.09c-.35-1-.85-2-1.14-3A5.59,5.59,0,0,1,79,69.77a8.86,8.86,0,0,1,.3-1.66,10.59,10.59,0,0,0,.58-3Z"></path>
      <path class="cls-17" d="M81.81,65a4.37,4.37,0,0,1,2-2.73,9.64,9.64,0,0,1,3-1.1,17,17,0,0,0,2.94-.79,4.7,4.7,0,0,0,2.34-1.83,4.88,4.88,0,0,1-2.22,2.11A18.89,18.89,0,0,1,87,61.79a8.72,8.72,0,0,0-2.64,1.26A3.26,3.26,0,0,0,83,65.23Z"></path>
      <path class="cls-17" d="M89.55,66a6.87,6.87,0,0,1,.64,3.69,7.05,7.05,0,0,1-1.34,3.39c-.67,1-1.46,1.83-2,2.82A4.77,4.77,0,0,0,86,79.22a5,5,0,0,1,.5-3.43c.52-1.07,1.24-2,1.81-3a6.3,6.3,0,0,0,.94-3.13,5.79,5.79,0,0,0-.8-3.06Z"></path>
      <path class="cls-17" d="M89.87,69.89a6.37,6.37,0,0,1,1,3.26,9.83,9.83,0,0,1-.54,3.29,10,10,0,0,0,.22-3.27,5.81,5.81,0,0,0-1.19-2.92Z"></path>
      <path class="cls-17" d="M88.36,66a11.43,11.43,0,0,0,2-1.6,25.83,25.83,0,0,0,1.7-2,5.16,5.16,0,0,1,2.16-1.67,5.49,5.49,0,0,1,2.67,0,5.19,5.19,0,0,0-2.55.32,4.72,4.72,0,0,0-1.8,1.75c-.48.71-.93,1.5-1.5,2.22a13.31,13.31,0,0,1-1.93,2Z"></path>
      <path class="cls-17" d="M90.66,64.44A9,9,0,0,0,97.92,63a10.45,10.45,0,0,1-3.43,1.93,8.69,8.69,0,0,1-4,.34Z"></path>
      <path class="cls-17" d="M95.45,69.38a21.37,21.37,0,0,0,4.84-2.45,10.15,10.15,0,0,1,2.3-1.57,3.12,3.12,0,0,1,2.7.3,3,3,0,0,0-2.61-.09,9.38,9.38,0,0,0-2.11,1.71,21.78,21.78,0,0,1-4.76,2.91Z"></path>
      <path class="cls-17" d="M98.19,68.31a4.84,4.84,0,0,1,2.09-.25,16.81,16.81,0,0,1,2,.27c.68.13,1.32.33,2,.44a3.45,3.45,0,0,0,2-.13,3.17,3.17,0,0,1-2,.34c-.68-.06-1.35-.21-2-.28a19.1,19.1,0,0,0-2-.18,5.15,5.15,0,0,0-1.89.26Z"></path>
      <path class="cls-17" d="M98,72.63a2.92,2.92,0,0,1-.37,2.26c-.35.65-.8,1.2-1.17,1.77s-.82,1.14-1.22,1.7a9.66,9.66,0,0,0-1.07,1.78,6.67,6.67,0,0,1,.74-2l1-1.82c.36-.62.75-1.19,1.06-1.78a2.58,2.58,0,0,0,.37-1.75Z"></path>
      <path class="cls-17" d="M97.46,71a22.4,22.4,0,0,1,.84,2.87,15.49,15.49,0,0,1,.39,3,8.62,8.62,0,0,1-.59,3,10.31,10.31,0,0,0-.67,2.84,8.15,8.15,0,0,1,.28-3,9.61,9.61,0,0,0,.36-2.83,16.56,16.56,0,0,0-.45-2.85c-.22-.94-.46-1.89-.76-2.81Z"></path>
      <path class="cls-17" d="M101.87,74.31a6.11,6.11,0,0,0,3.92.23c1.33-.35,2.62-.89,4-1.14-1.34.35-2.58,1-3.9,1.44a6.52,6.52,0,0,1-4.23.06Z"></path>
      <path class="cls-17" d="M103.52,75.58a7,7,0,0,1,1.19,3.3,9.87,9.87,0,0,1-.27,3.43,9.83,9.83,0,0,0-.06-3.38A6.36,6.36,0,0,0,103,76Z"></path>
      <path class="cls-8" d="M40.8,88.92a1,1,0,0,0-1-.37c-.55.17-.77.61-.67.77a1.24,1.24,0,0,0,.2.2c.14.14.43-.24.44-.25Z"></path>
      <path class="cls-20" d="M41.09,89.58s-.18-.75-.46-.76a4.57,4.57,0,0,1-.6,0l-.08.14s.28.49.39.53l.38.11A2.86,2.86,0,0,0,41.09,89.58Z"></path>
      <path class="cls-10" d="M41.06,89.67a.2.2,0,0,0-.11-.29,2.35,2.35,0,0,0-.36-.07s-.45.34-.54.39-.15,0,.11.13.26.14.5.11A.69.69,0,0,0,41.06,89.67Z"></path>
      <path class="cls-11" d="M40.59,89.31a2.57,2.57,0,0,0-.33.32c-.13.16-.15.2-.31.12s-.57-.13-.68-.29-.1-.14,0-.33a.82.82,0,0,1,.53-.32.46.46,0,0,1,.53.11A1.37,1.37,0,0,1,40.59,89.31Z"></path>
      <path class="cls-8" d="M48.85,82.79s-1.82-2.48-4.3-1.87-3.55,2.49-3.18,3.2a9.07,9.07,0,0,0,.86,1c.57.63,2-1,2-1S48.85,82.79,48.85,82.79Z"></path>
      <path class="cls-20" d="M50,85.8s-.57-3.37-1.82-3.48a26.2,26.2,0,0,1-2.65-.38l-.38.58s1.1,2.25,1.6,2.45,1.42.49,1.63.59A11.35,11.35,0,0,0,50,85.8Z"></path>
      <path class="cls-10" d="M49.83,86.2c.11-.28.37-1-.41-1.31a11.6,11.6,0,0,0-1.6-.43s-2.07,1.4-2.48,1.61-.67.17.47.58,1.09.7,2.15.63A3.09,3.09,0,0,0,49.83,86.2Z"></path>
      <path class="cls-11" d="M47.82,84.46a14.24,14.24,0,0,0-1.54,1.35c-.62.66-.74.86-1.42.47S42.37,85.52,42,84.8s-.43-.65.21-1.45a3.63,3.63,0,0,1,2.42-1.3,2.05,2.05,0,0,1,2.3.63A5.43,5.43,0,0,1,47.82,84.46Z"></path>
      <path class="cls-8" d="M54,88.67A1.59,1.59,0,0,0,55.45,88c.39-.79.14-1.49-.14-1.55a3.18,3.18,0,0,0-.44,0c-.3,0-.18.74-.19.76S54,88.67,54,88.67Z"></path>
      <path class="cls-20" d="M53,88.29s1,.6,1.32.29A9.17,9.17,0,0,1,55,88l-.06-.23a3.44,3.44,0,0,0-1-.13c-.16.09-.44.27-.52.3A4.29,4.29,0,0,0,53,88.29Z"></path>
      <path class="cls-10" d="M52.88,88.16c0,.1.19.33.44.19s.47-.33.47-.33.09-.86.13-1,.1-.22-.26,0-.43.13-.65.43A1.09,1.09,0,0,0,52.88,88.16Z"></path>
      <path class="cls-11" d="M53.79,88a5.7,5.7,0,0,0,0-.7c0-.31-.07-.39.19-.48s.75-.49,1-.44.26,0,.33.38a1.22,1.22,0,0,1-.19.92.72.72,0,0,1-.68.47A1.81,1.81,0,0,1,53.79,88Z"></path>
      <path class="cls-8" d="M36.34,87.82a1.29,1.29,0,0,1,1.18-.19c.58.27.74.74.6.88l-.27.17c-.18.1-.43-.33-.44-.33Z"></path>
      <path class="cls-20" d="M35.89,88.42s.34-.71.66-.67a6.27,6.27,0,0,0,.68.06l.06.15s-.41.43-.55.45l-.44,0A3.88,3.88,0,0,1,35.89,88.42Z"></path>
      <path class="cls-10" d="M35.89,88.51c0-.07,0-.24.18-.26a3.54,3.54,0,0,1,.43,0s.43.41.52.48.15.07-.15.1-.32.1-.58,0A.73.73,0,0,1,35.89,88.51Z"></path>
      <path class="cls-11" d="M36.5,88.24s.18.2.3.37.13.23.32.18.67,0,.82-.17.14-.12,0-.33a.89.89,0,0,0-.52-.41.59.59,0,0,0-.61,0A1.25,1.25,0,0,0,36.5,88.24Z"></path>
      <path class="cls-8" d="M47,84.81S44.56,83,42.39,84.3s-2.63,3.41-2.07,4a9.61,9.61,0,0,0,1.1.68c.73.42,1.57-1.52,1.62-1.54S47,84.81,47,84.81Z"></path>
      <path class="cls-20" d="M49,87.34s-1.53-3-2.75-2.76-2.62.42-2.62.42l-.2.66s1.72,1.81,2.25,1.86,1.49,0,1.72.08A11.36,11.36,0,0,0,49,87.34Z"></path>
      <path class="cls-10" d="M49,87.76c0-.3,0-1.08-.77-1.12a11.14,11.14,0,0,0-1.65.06S45,88.64,44.66,89s-.59.36.61.41,1.25.34,2.23,0A3,3,0,0,0,49,87.76Z"></path>
      <path class="cls-11" d="M46.54,86.7a15.28,15.28,0,0,0-1.07,1.73c-.39.81-.44,1-1.21.86s-2.58,0-3.19-.54-.6-.49-.23-1.44a3.64,3.64,0,0,1,1.91-1.94,2,2,0,0,1,2.37-.08A5.16,5.16,0,0,1,46.54,86.7Z"></path>
      <path class="cls-8" d="M62.21,93.58a1.26,1.26,0,0,0-1.2-.44c-.66.21-.92.73-.81.92a1.46,1.46,0,0,0,.25.26c.16.16.51-.3.53-.31Z"></path>
      <path class="cls-20" d="M62.56,94.39s-.21-.91-.55-.92-.73-.06-.73-.06l-.09.16s.33.59.47.64.39.11.45.14S62.56,94.39,62.56,94.39Z"></path>
      <path class="cls-10" d="M62.53,94.5c0-.08.08-.29-.13-.35a3,3,0,0,0-.44-.1s-.55.42-.65.48-.18.06.13.15.31.17.6.14A.88.88,0,0,0,62.53,94.5Z"></path>
      <path class="cls-11" d="M62,94.05a5.43,5.43,0,0,0-.4.39c-.16.19-.19.25-.38.15s-.69-.16-.82-.35-.12-.17,0-.4a1,1,0,0,1,.64-.39.55.55,0,0,1,.63.14A1.42,1.42,0,0,1,62,94.05Z"></path>
      <path class="cls-8" d="M55.81,83.85s-3.83-1.91-6.51.42-2.8,5.33-1.89,6a12.67,12.67,0,0,0,1.68.67c1.1.41,1.79-2.47,1.85-2.51S55.81,83.85,55.81,83.85Z"></path>
      <path class="cls-20" d="M59.08,86.87s-2.85-3.8-4.46-3.13-3.51,1.2-3.51,1.2l-.11,1s2.8,2.07,3.54,2,2.06-.31,2.39-.31A16.4,16.4,0,0,0,59.08,86.87Z"></path>
      <path class="cls-10" d="M59.19,87.45c0-.42-.2-1.51-1.34-1.36a16.61,16.61,0,0,0-2.26.48s-1.67,3-2,3.56-.72.64,1,.43,1.79.17,3-.59A4.33,4.33,0,0,0,59.19,87.45Z"></path>
      <path class="cls-11" d="M55.59,86.57a19.42,19.42,0,0,0-1,2.64c-.35,1.21-.36,1.54-1.46,1.48s-3.56.65-4.54,0-.93-.53-.66-1.93.91-2.05,2.17-3.14A2.85,2.85,0,0,1,53.3,85,7.36,7.36,0,0,1,55.59,86.57Z"></path>
      <path class="cls-8" d="M69,84.65s-3.21-1.89-5.67,0-2.76,4.45-2,5.07a10.09,10.09,0,0,0,1.42.68c.93.42,1.7-2,1.76-2.06S69,84.65,69,84.65Z"></path>
      <path class="cls-20" d="M71.7,87.47S69.46,84,68,84.48s-3.12.84-3.12.84l-.15.83s2.3,2,2.94,2,1.82-.14,2.1-.12A15.55,15.55,0,0,0,71.7,87.47Z"></path>
      <path class="cls-10" d="M71.76,88c0-.37-.08-1.32-1.08-1.26a14.52,14.52,0,0,0-2,.28s-1.63,2.54-2,3-.66.51.8.42,1.55.26,2.69-.32A3.74,3.74,0,0,0,71.76,88Z"></path>
      <path class="cls-11" d="M68.69,87a17.51,17.51,0,0,0-1.06,2.23c-.38,1-.41,1.32-1.36,1.2s-3.12.35-3.94-.25-.78-.52-.46-1.72A4.45,4.45,0,0,1,64,85.87a2.48,2.48,0,0,1,2.85-.4A6.44,6.44,0,0,1,68.69,87Z"></path>
      <path class="cls-8" d="M77.55,81.26s-3.17-2.44-6-.79S68,84.85,68.7,85.61a11.19,11.19,0,0,0,1.41.92c.94.57,2.09-1.94,2.15-2S77.55,81.26,77.55,81.26Z"></path>
      <path class="cls-20" d="M80,84.62s-1.92-4-3.52-3.68-3.44.47-3.44.47l-.27.87s2.19,2.41,2.88,2.48,1.95.1,2.24.15A14.94,14.94,0,0,0,80,84.62Z"></path>
      <path class="cls-10" d="M80,85.17c.05-.39.1-1.42-1-1.49a14.79,14.79,0,0,0-2.15,0s-2.09,2.48-2.52,2.89-.77.46.79.56,1.62.48,2.91,0A4,4,0,0,0,80,85.17Z"></path>
      <path class="cls-11" d="M76.86,83.72A19,19,0,0,0,75.42,86c-.53,1-.61,1.34-1.6,1.09s-3.38,0-4.17-.79-.76-.66-.26-1.89A4.8,4.8,0,0,1,72,81.87a2.68,2.68,0,0,1,3.1,0A6.73,6.73,0,0,1,76.86,83.72Z"></path>
      <path class="cls-8" d="M80,91.5a1.91,1.91,0,0,0,1.76-.87c.47-.95.16-1.8-.17-1.88a5.19,5.19,0,0,0-.54,0c-.35,0-.21.89-.22.91S80,91.5,80,91.5Z"></path>
      <path class="cls-20" d="M78.75,91s1.22.73,1.6.35.83-.74.83-.74l-.08-.28a4,4,0,0,0-1.21-.15c-.2.11-.54.33-.63.37A4.13,4.13,0,0,0,78.75,91Z"></path>
      <path class="cls-10" d="M78.65,90.89c.06.11.23.4.53.22a4.71,4.71,0,0,0,.57-.39s.11-1,.15-1.22.13-.26-.31,0-.52.16-.78.51A1.31,1.31,0,0,0,78.65,90.89Z"></path>
      <path class="cls-11" d="M79.75,90.72a5.22,5.22,0,0,0,0-.85c0-.38-.07-.47.24-.58s.91-.59,1.25-.53.32,0,.41.45a1.55,1.55,0,0,1-.24,1.13.85.85,0,0,1-.82.56A2.28,2.28,0,0,1,79.75,90.72Z"></path>
      <path class="cls-8" d="M49.86,92.18a2.43,2.43,0,0,0,2.31-1c.68-1.18.37-2.28-.05-2.4a3.4,3.4,0,0,0-.69,0c-.45,0-.35,1.12-.37,1.14Z"></path>
      <path class="cls-20" d="M48.3,91.48s1.5,1,2,.6,1.13-.87,1.13-.87l-.08-.37a4.83,4.83,0,0,0-1.53-.29c-.26.11-.71.36-.83.4A6,6,0,0,0,48.3,91.48Z"></path>
      <path class="cls-10" d="M48.19,91.29a.47.47,0,0,0,.65.33,7,7,0,0,0,.76-.45s.24-1.32.31-1.55.18-.32-.4,0-.67.16-1,.59A1.68,1.68,0,0,0,48.19,91.29Z"></path>
      <path class="cls-11" d="M49.6,91.17a7.66,7.66,0,0,0,.06-1.09c0-.48-.06-.61.35-.72s1.21-.67,1.64-.57.41.08.48.62a1.94,1.94,0,0,1-.41,1.41,1.09,1.09,0,0,1-1.09.65A2.8,2.8,0,0,1,49.6,91.17Z"></path>
      <path class="cls-8" d="M60.46,86.13a1.43,1.43,0,0,0,1.43.25c.7-.37.88-1,.72-1.2a3,3,0,0,0-.33-.23c-.22-.14-.52.44-.53.45Z"></path>
      <path class="cls-20" d="M59.91,85.31s.41,1,.8.91.82-.08.82-.08l.08-.2s-.5-.6-.66-.62-.47,0-.54-.06A3.11,3.11,0,0,0,59.91,85.31Z"></path>
      <path class="cls-10" d="M59.91,85.17c0,.1,0,.34.22.37a3.1,3.1,0,0,0,.52,0s.52-.57.62-.66.19-.1-.18-.14-.38-.13-.69,0A1,1,0,0,0,59.91,85.17Z"></path>
      <path class="cls-11" d="M60.65,85.55A4.81,4.81,0,0,0,61,85c.14-.25.16-.32.39-.25s.81,0,1,.23.17.17,0,.46a1.17,1.17,0,0,1-.63.56.64.64,0,0,1-.74,0A1.62,1.62,0,0,1,60.65,85.55Z"></path>
      <path class="cls-8" d="M73.35,91.57s3.59.88,5.4-1.6,1.34-5,.44-5.4a10.25,10.25,0,0,0-1.54-.24c-1-.14-1,2.42-1.08,2.47S73.35,91.57,73.35,91.57Z"></path>
      <path class="cls-20" d="M70,89.66s3.13,2.66,4.36,1.78,2.73-1.69,2.73-1.69l-.1-.83s-2.75-1.21-3.36-1-1.69.66-2,.72A15.34,15.34,0,0,0,70,89.66Z"></path>
      <path class="cls-10" d="M69.81,89.19c.11.35.45,1.24,1.39.89a14.88,14.88,0,0,0,1.8-.84s.83-2.89,1-3.4.49-.67-.88-.17-1.54.2-2.46,1.08A3.71,3.71,0,0,0,69.81,89.19Z"></path>
      <path class="cls-11" d="M73,89.24a16.75,16.75,0,0,0,.38-2.43c.06-1.08,0-1.36.94-1.53s2.87-1.23,3.82-.89.89.27.93,1.5A4.37,4.37,0,0,1,77.85,89a2.46,2.46,0,0,1-2.61,1.2A6.52,6.52,0,0,1,73,89.24Z"></path>
      <path class="cls-8" d="M56.76,89.5s2.16,1.21,3.77-.06,1.78-3,1.27-3.4a8.23,8.23,0,0,0-.95-.43C60.22,85.34,59.74,87,59.7,87S56.76,89.5,56.76,89.5Z"></path>
      <path class="cls-20" d="M55,87.66s1.53,2.28,2.49,1.94,2.06-.6,2.06-.6l.09-.55s-1.56-1.28-2-1.27-1.2.12-1.39.11A9.45,9.45,0,0,0,55,87.66Z"></path>
      <path class="cls-10" d="M54.91,87.32c0,.25.07.88.74.82A9.47,9.47,0,0,0,57,87.93s1.05-1.71,1.28-2,.43-.35-.54-.27-1-.15-1.78.25A2.53,2.53,0,0,0,54.91,87.32Z"></path>
      <path class="cls-11" d="M57,87.93a11.24,11.24,0,0,0,.67-1.5c.24-.68.26-.87.89-.81s2.07-.27,2.62.12.53.33.33,1.13a3,3,0,0,1-1.35,1.75,1.65,1.65,0,0,1-1.89.3A4.17,4.17,0,0,1,57,87.93Z"></path>
    </g>
  </g>
</svg>
