<?xml version="1.0" encoding="UTF-8"?>
<svg xmlns="http://www.w3.org/2000/svg" viewBox="0 0 32.34 41.06">
  <defs>
    <style>.cls-1{fill:#e9c671;}.cls-2{fill:#d9a458;}.cls-3{fill:#84a63c;}</style>
  </defs>
  <g id="Слой_2" data-name="Слой 2">
    <g id="Слой_1-2" data-name="Слой 1">
      <path class="cls-1" d="M12.43,25.56S8,24,6.09,23.26s-5.68.5-6,3.24S1.34,37.22,8,39.6s8.13,1.15,9.57,1.08,2.95-2.67,5.33-2.52,2.73.36,3.81.07,5.19-.86,5.55-4.75-1.53-11-10.59-9.58C17.4,24.6,16.53,27.43,12.43,25.56Z"></path>
      <ellipse class="cls-2" cx="23.55" cy="30.74" rx="1.19" ry="0.58"></ellipse>
      <ellipse class="cls-2" cx="16.28" cy="34.67" rx="1.48" ry="0.61"></ellipse>
      <ellipse class="cls-2" cx="7.82" cy="31.11" rx="1.51" ry="0.94"></ellipse>
      <path class="cls-3" d="M13.47,27a.59.59,0,0,1-.22-.05c-6.34-2.65-3.91-8.87-2.61-12.22l.09-.23A17.58,17.58,0,0,0,12,8.44a.58.58,0,0,1,.56-.59.54.54,0,0,1,.59.56,18.38,18.38,0,0,1-1.32,6.53l-.09.23c-1.75,4.49-2.91,8.69,2,10.74A.58.58,0,0,1,13.47,27Z"></path>
      <path class="cls-3" d="M12.2,0s-4.46,4,.43,9.21C12.63,9.21,17,5.33,12.2,0Z"></path>
    </g>
  </g>
</svg>
