<?xml version="1.0" encoding="UTF-8"?>
<svg xmlns="http://www.w3.org/2000/svg" viewBox="0 0 115.7 276.84">
  <defs>
    <style>.cls-1{fill:#a0cae7;}.cls-2{fill:#d0e6f5;}.cls-3{fill:#b8d8ee;}.cls-4{fill:#85563a;}.cls-5{fill:#8e6848;}.cls-6{fill:#713e21;}.cls-7{fill:#9b714f;}.cls-8{fill:#3d271f;}.cls-9{fill:#69391e;}.cls-10{fill:#6b482f;}.cls-11{fill:#5c3624;}.cls-12{fill:#795135;}.cls-13{fill:#9a734f;}</style>
  </defs>
  <g id="Слой_2" data-name="Слой 2">
    <g id="Слой_1-2" data-name="Слой 1">
      <path class="cls-1" d="M40.27,53.58S27.5,66.5,33.75,73.46c6.1,6.78,15.74.6,12.23-8.62C42.83,56.56,40.27,53.58,40.27,53.58Z"></path>
      <path class="cls-2" d="M36.05,65.7c.45-1.33,1.44-4.37,1.83-5.47a29.3,29.3,0,0,1,1.73-3.57s1.23-2.34-1.88,1-5,9.55-4.1,9.91C34.39,67.88,35.62,67,36.05,65.7Z"></path>
      <path class="cls-3" d="M43.19,70.16c-.37,1.26-.2,2.43.4,2.6A2.3,2.3,0,0,0,45.91,71c.38-1.5-.37-2.71-1-2.85S43.56,68.9,43.19,70.16Z"></path>
      <path class="cls-1" d="M61.57,53.58S48.8,66.5,55.05,73.46c6.1,6.78,15.74.6,12.23-8.62C64.14,56.56,61.57,53.58,61.57,53.58Z"></path>
      <path class="cls-2" d="M57.36,65.7c.44-1.33,1.43-4.37,1.82-5.47a28.78,28.78,0,0,1,1.74-3.57s1.22-2.34-1.89,1-5,9.55-4.09,9.91C55.69,67.88,56.92,67,57.36,65.7Z"></path>
      <path class="cls-3" d="M64.49,70.16c-.37,1.26-.19,2.43.4,2.6A2.3,2.3,0,0,0,67.21,71c.38-1.5-.37-2.71-1-2.85S64.87,68.9,64.49,70.16Z"></path>
      <path class="cls-1" d="M82.88,53.58S70.1,66.5,76.36,73.46c6.1,6.78,15.73.6,12.22-8.62C85.44,56.56,82.88,53.58,82.88,53.58Z"></path>
      <path class="cls-2" d="M78.66,65.7c.44-1.33,1.43-4.37,1.83-5.47a29.3,29.3,0,0,1,1.73-3.57s1.22-2.34-1.89,1-5,9.55-4.09,9.91C77,67.88,78.22,67,78.66,65.7Z"></path>
      <path class="cls-3" d="M85.79,70.16c-.37,1.26-.19,2.43.4,2.6A2.3,2.3,0,0,0,88.51,71c.38-1.5-.37-2.71-1-2.85S86.17,68.9,85.79,70.16Z"></path>
      <path class="cls-1" d="M53.34,25.27S40.56,38.18,46.82,45.14c6.1,6.78,15.73.61,12.22-8.62C55.9,28.24,53.34,25.27,53.34,25.27Z"></path>
      <path class="cls-2" d="M49.12,37.38c.44-1.33,1.43-4.37,1.83-5.47a29.3,29.3,0,0,1,1.73-3.57s1.22-2.34-1.89,1-5,9.55-4.09,9.91C47.46,39.56,48.68,38.69,49.12,37.38Z"></path>
      <path class="cls-3" d="M56.25,41.84c-.37,1.26-.19,2.43.4,2.61A2.31,2.31,0,0,0,59,42.72c.38-1.49-.37-2.71-1-2.84S56.63,40.58,56.25,41.84Z"></path>
      <path class="cls-1" d="M74.64,25.27S61.87,38.18,68.12,45.14c6.1,6.78,15.73.61,12.23-8.62C77.2,28.24,74.64,25.27,74.64,25.27Z"></path>
      <path class="cls-2" d="M70.42,37.38c.44-1.33,1.44-4.37,1.83-5.47A29.3,29.3,0,0,1,74,28.34s1.22-2.34-1.88,1-5,9.55-4.1,9.91C68.76,39.56,70,38.69,70.42,37.38Z"></path>
      <path class="cls-3" d="M77.56,41.84c-.38,1.26-.2,2.43.39,2.61a2.33,2.33,0,0,0,2.33-1.73c.37-1.49-.38-2.71-1-2.84S77.93,40.58,77.56,41.84Z"></path>
      <path class="cls-1" d="M65.11,0S52.33,12.92,58.59,19.87c6.1,6.79,15.73.61,12.23-8.62C67.67,3,65.11,0,65.11,0Z"></path>
      <path class="cls-2" d="M60.89,12.11c.44-1.33,1.44-4.37,1.83-5.47a29.68,29.68,0,0,1,1.73-3.56s1.22-2.35-1.88,1-5,9.55-4.1,9.91C59.23,14.29,60.46,13.42,60.89,12.11Z"></path>
      <path class="cls-3" d="M68,16.58c-.38,1.26-.2,2.42.39,2.6a2.3,2.3,0,0,0,2.32-1.73c.38-1.49-.37-2.71-1-2.84S68.4,15.31,68,16.58Z"></path>
      <polygon class="cls-4" points="8.12 252.13 60.62 276.84 109.18 252.25 58.69 230.86 8.12 252.13"></polygon>
      <polygon class="cls-4" points="0 182 60.62 207.33 115.7 183.97 60.62 164.54 0 182"></polygon>
      <path class="cls-5" d="M60.62,207.33v31.82s16.75-12.37,23.55-13,20.07,25.46,25,26.08L115.7,184Z"></path>
      <path class="cls-6" d="M4.43,220l3.68,32.15,52.51,24.71V239.15s-29-12.37-32.08-16.69S4.43,220,4.43,220Z"></path>
      <path class="cls-7" d="M0,182l4.43,38s5.66.46,11.75.62c7.62.21,14.83,5.15,20.6,10.92,6.7,6.71,23.84,7.63,23.84,7.63V207.33Z"></path>
      <path class="cls-8" d="M40.4,243.17a2.3,2.3,0,0,0-.12-.93h0s-.4-1.06-1.34-1.09-1.5.53-1.44.82a3.29,3.29,0,0,0,.21.43h0a8.83,8.83,0,0,0,.79.67.6.6,0,0,0,.14.11l.15.11c.36.26.32.36.7.44a1.19,1.19,0,0,0,.77-.2l.08-.13h0v0A.28.28,0,0,0,40.4,243.17Z"></path>
      <path class="cls-8" d="M17.49,238.79a4.79,4.79,0,0,0-1.56.86h0s-1.58,1.45-1,3.12,2,2.26,2.45,2A6.21,6.21,0,0,0,18,244s0,0,0,0a16.68,16.68,0,0,0,.61-1.86,1,1,0,0,0,.09-.32c0-.09.05-.19.09-.36.2-.81.4-.81.27-1.53a2.12,2.12,0,0,0-.88-1.21l-.29-.05h0A.54.54,0,0,0,17.49,238.79Z"></path>
      <path class="cls-8" d="M54.5,260.17a11.53,11.53,0,0,0-2-4h0s-3.48-4.1-7.73-2.72-5.87,4.77-5.13,6a15.9,15.9,0,0,0,1.6,1.6s.1,0,.15,0c1.24.8,3.56,1.19,4.59,1.7a2.47,2.47,0,0,0,.81.26c.22.08.47.16.88.27,2,.57,2,1.09,3.82.83a5.34,5.34,0,0,0,3.13-2.1,3.53,3.53,0,0,0,.14-.72h0l0-.08A1.31,1.31,0,0,0,54.5,260.17Z"></path>
      <path class="cls-8" d="M27.06,246.22a8.91,8.91,0,0,0-2,2.82l0,0s-1.47,3.85,1,6.2,5.37,2.19,5.9,1.25a11.82,11.82,0,0,0,.48-1.67s0-.06,0-.1c.09-1.14-.51-2.83-.55-3.71a1.9,1.9,0,0,0-.11-.64l-.15-.7c-.36-1.57,0-1.74-.85-2.87a4.1,4.1,0,0,0-2.56-1.33,2.7,2.7,0,0,0-.54.17h0l0,0A1,1,0,0,0,27.06,246.22Z"></path>
      <path class="cls-9" d="M60.62,239.15S72.42,222.46,86,222s27-10.3,27-10.3l-3.83,40.51L60.62,276.84Z"></path>
      <path class="cls-8" d="M77.94,245.5a11.23,11.23,0,0,0-4.22,1.39v0s-4.52,2.83-3.77,7.19,3.84,6.44,5.12,5.89a16.05,16.05,0,0,0,1.8-1.35s0-.1,0-.14c1-1.11,1.68-3.32,2.32-4.26a2.66,2.66,0,0,0,.38-.76l.39-.82c.85-1.91,1.35-1.8,1.36-3.64a5.37,5.37,0,0,0-1.62-3.37,3.68,3.68,0,0,0-.69-.23v0H79A1.32,1.32,0,0,0,77.94,245.5Z"></path>
      <path class="cls-8" d="M100.24,244.19a3.51,3.51,0,0,0-1.31-.33h0a2.43,2.43,0,0,0-2.14,1.25c-.51,1.24-.05,2.29.37,2.35a3.68,3.68,0,0,0,.68-.06s0,0,0,0a11,11,0,0,0,1.29-.72.85.85,0,0,0,.22-.13l.23-.15c.53-.36.64-.25.94-.72a1.63,1.63,0,0,0,.13-1.13,1.5,1.5,0,0,0-.14-.18h0A.41.41,0,0,0,100.24,244.19Z"></path>
      <path class="cls-8" d="M96.22,232.49a8.79,8.79,0,0,0-3-1.75v0s-4-1.19-6.14,1.48-1.8,5.56-.81,6a11.56,11.56,0,0,0,1.71.36s.06,0,.1-.05a28.81,28.81,0,0,0,3.68-.83,1.72,1.72,0,0,0,.64-.17l.68-.19c1.56-.49,1.75-.14,2.82-1.07a4.17,4.17,0,0,0,1.14-2.68,2.45,2.45,0,0,0-.21-.52h0l0,0A1,1,0,0,0,96.22,232.49Z"></path>
      <path class="cls-10" d="M56.93,192.39a1.68,1.68,0,0,0-1.61-.6c-.89.28-1.24,1-1.09,1.24,0,.07.23.23.33.34s.7-.4.72-.41S56.93,192.39,56.93,192.39Z"></path>
      <path class="cls-11" d="M57.4,193.46s-.28-1.22-.74-1.23-1-.08-1-.08l-.13.22s.45.8.63.86l.61.18A5.15,5.15,0,0,0,57.4,193.46Z"></path>
      <path class="cls-12" d="M57.36,193.61a.32.32,0,0,0-.17-.47,5,5,0,0,0-.6-.12s-.72.55-.87.64-.24.07.18.2.42.23.8.18A1.11,1.11,0,0,0,57.36,193.61Z"></path>
      <path class="cls-13" d="M56.59,193a5.23,5.23,0,0,0-.53.52c-.21.25-.25.33-.51.2s-.92-.22-1.09-.48-.17-.22,0-.53a1.31,1.31,0,0,1,.86-.52.74.74,0,0,1,.85.18A1.87,1.87,0,0,1,56.59,193Z"></path>
      <path class="cls-10" d="M53.27,171.74a2.45,2.45,0,0,0-2.49-.36c-1.19.67-1.48,1.79-1.19,2.11a5.21,5.21,0,0,0,.58.39c.39.24.88-.79.9-.8Z"></path>
      <path class="cls-11" d="M54.27,173.14s-.77-1.66-1.44-1.54a13,13,0,0,1-1.42.18l-.12.35s.9,1,1.18,1.05.81,0,.93.07A5.67,5.67,0,0,0,54.27,173.14Z"></path>
      <path class="cls-12" d="M54.26,173.37c0-.16.05-.59-.39-.62a5.66,5.66,0,0,0-.89,0s-.88,1-1.06,1.19-.32.18.33.23.66.21,1.2,0A1.68,1.68,0,0,0,54.26,173.37Z"></path>
      <path class="cls-13" d="M53,172.75a7.89,7.89,0,0,0-.61.92c-.23.42-.26.55-.67.44s-1.39,0-1.71-.35-.32-.28-.1-.78A2,2,0,0,1,51,172a1.1,1.1,0,0,1,1.28,0A3,3,0,0,1,53,172.75Z"></path>
      <path class="cls-10" d="M48.34,179.32s-5.15-2.57-8.74.56-3.77,7.16-2.54,8a16.74,16.74,0,0,0,2.26.9c1.48.54,2.4-3.32,2.49-3.38S48.34,179.32,48.34,179.32Z"></path>
      <path class="cls-11" d="M52.73,183.37s-3.82-5.1-6-4.21S42,180.78,42,180.78l-.15,1.29s3.76,2.79,4.75,2.71,2.78-.41,3.21-.42A21.62,21.62,0,0,0,52.73,183.37Z"></path>
      <path class="cls-12" d="M52.87,184.15c0-.57-.26-2-1.79-1.83a21.62,21.62,0,0,0-3,.65s-2.25,4.08-2.75,4.78-1,.86,1.28.57,2.41.23,4.1-.79A5.78,5.78,0,0,0,52.87,184.15Z"></path>
      <path class="cls-13" d="M48.05,183a26.93,26.93,0,0,0-1.41,3.55c-.46,1.62-.48,2.06-2,2s-4.78.88-6.1,0-1.25-.72-.89-2.59,1.23-2.76,2.92-4.22a3.83,3.83,0,0,1,4.35-.91A9.93,9.93,0,0,1,48.05,183Z"></path>
      <path class="cls-10" d="M66.11,180.39s-4.31-2.54-7.61,0-3.71,6-2.69,6.81a14.86,14.86,0,0,0,1.9.92c1.25.56,2.28-2.74,2.36-2.78S66.11,180.39,66.11,180.39Z"></path>
      <path class="cls-11" d="M69.68,184.18s-3-4.66-5-4-4.18,1.12-4.18,1.12l-.21,1.12s3.09,2.65,4,2.63,2.44-.19,2.81-.16A19.84,19.84,0,0,0,69.68,184.18Z"></path>
      <path class="cls-12" d="M69.76,184.86c0-.49-.11-1.77-1.45-1.69a18.8,18.8,0,0,0-2.67.38s-2.2,3.41-2.67,4-.89.69,1.07.57,2.08.35,3.61-.43A5.07,5.07,0,0,0,69.76,184.86Z"></path>
      <path class="cls-13" d="M65.64,183.55a23.36,23.36,0,0,0-1.43,3c-.5,1.38-.55,1.77-1.82,1.61s-4.2.47-5.29-.34-1.05-.69-.62-2.3,1.23-2.32,2.79-3.48a3.32,3.32,0,0,1,3.83-.54A8.74,8.74,0,0,1,65.64,183.55Z"></path>
      <path class="cls-10" d="M77.53,175.84s-4.25-3.28-8.11-1.06-4.75,5.88-3.78,6.9a16.74,16.74,0,0,0,1.9,1.23c1.27.77,2.81-2.61,2.9-2.64S77.53,175.84,77.53,175.84Z"></path>
      <path class="cls-11" d="M80.82,180.35s-2.58-5.37-4.73-4.94-4.61.63-4.61.63l-.37,1.16s2.94,3.24,3.87,3.34,2.62.13,3,.2A21.56,21.56,0,0,0,80.82,180.35Z"></path>
      <path class="cls-12" d="M80.81,181.09c.06-.53.13-1.91-1.31-2a21,21,0,0,0-2.9,0s-2.79,3.33-3.38,3.89-1,.61,1.07.74,2.17.65,3.9,0A5.37,5.37,0,0,0,80.81,181.09Z"></path>
      <path class="cls-13" d="M76.6,179.14a23.63,23.63,0,0,0-1.92,3c-.72,1.41-.82,1.81-2.16,1.47s-4.53-.06-5.59-1.07-1-.88-.35-2.53,1.63-2.31,3.44-3.34a3.56,3.56,0,0,1,4.15,0A9,9,0,0,1,76.6,179.14Z"></path>
      <path class="cls-10" d="M80.83,189.59a2.6,2.6,0,0,0,2.36-1.17c.63-1.28.22-2.42-.23-2.52a4.57,4.57,0,0,0-.73,0c-.47,0-.28,1.2-.3,1.22Z"></path>
      <path class="cls-11" d="M79.14,189s1.65,1,2.15.48,1.12-1,1.12-1l-.11-.37a5.16,5.16,0,0,0-1.63-.21c-.27.14-.72.44-.84.49A5.76,5.76,0,0,0,79.14,189Z"></path>
      <path class="cls-12" d="M79,188.77c.08.15.31.53.71.3a6.15,6.15,0,0,0,.76-.53s.16-1.39.21-1.65.17-.34-.41,0-.7.22-1,.7A1.75,1.75,0,0,0,79,188.77Z"></path>
      <path class="cls-13" d="M80.48,188.54a7.68,7.68,0,0,0,0-1.15c0-.5-.1-.63.32-.78s1.22-.79,1.69-.71.43,0,.54.62a2,2,0,0,1-.32,1.5,1.15,1.15,0,0,1-1.1.76A3,3,0,0,1,80.48,188.54Z"></path>
      <path class="cls-10" d="M40.34,190.5s2.19.3,3.11-1.28.49-3.06-.06-3.22a5,5,0,0,0-.93-.05c-.61,0-.47,1.49-.49,1.53S40.34,190.5,40.34,190.5Z"></path>
      <path class="cls-11" d="M38.25,189.56s2,1.39,2.7.8,1.51-1.17,1.51-1.17l-.11-.48a6.45,6.45,0,0,0-2.05-.4c-.35.15-1,.49-1.12.54A9.15,9.15,0,0,0,38.25,189.56Z"></path>
      <path class="cls-12" d="M38.1,189.3c.09.2.35.7.88.44a9,9,0,0,0,1-.6s.32-1.76.41-2.08.25-.43-.53-.05-.9.21-1.39.79A2.25,2.25,0,0,0,38.1,189.3Z"></path>
      <path class="cls-13" d="M40,189.14a9.81,9.81,0,0,0,.08-1.46c0-.65-.08-.81.46-1s1.63-.9,2.21-.76.55.11.65.84a2.65,2.65,0,0,1-.55,1.89,1.47,1.47,0,0,1-1.47.86A3.78,3.78,0,0,1,40,189.14Z"></path>
      <path class="cls-10" d="M54.58,182.38a1.91,1.91,0,0,0,1.92.33c.94-.49,1.19-1.35,1-1.6a4.28,4.28,0,0,0-.44-.32c-.29-.19-.69.6-.72.6Z"></path>
      <path class="cls-11" d="M53.84,181.27s.56,1.3,1.08,1.22a10.9,10.9,0,0,1,1.1-.1l.1-.27s-.66-.8-.88-.84-.63-.05-.72-.08A5.12,5.12,0,0,0,53.84,181.27Z"></path>
      <path class="cls-12" d="M53.85,181.09c0,.13-.05.45.3.49a4.42,4.42,0,0,0,.68,0s.7-.77.85-.89.25-.14-.25-.19-.51-.18-.93,0A1.27,1.27,0,0,0,53.85,181.09Z"></path>
      <path class="cls-13" d="M54.83,181.6a5.56,5.56,0,0,0,.49-.69c.19-.33.22-.43.53-.33s1.08.06,1.32.31.24.22.06.61a1.57,1.57,0,0,1-.85.76.88.88,0,0,1-1,0A2.22,2.22,0,0,1,54.83,181.6Z"></path>
      <path class="cls-10" d="M71.89,189.69s4.83,1.17,7.25-2.16,1.81-6.76.6-7.25a14.29,14.29,0,0,0-2.07-.33c-1.36-.17-1.39,3.26-1.45,3.32S71.89,189.69,71.89,189.69Z"></path>
      <path class="cls-11" d="M67.41,187.11s4.2,3.57,5.86,2.4,3.66-2.27,3.66-2.27l-.13-1.12s-3.7-1.63-4.52-1.37-2.26.88-2.63,1A19.35,19.35,0,0,0,67.41,187.11Z"></path>
      <path class="cls-12" d="M67.14,186.49c.15.46.61,1.65,1.86,1.19a19.59,19.59,0,0,0,2.43-1.13s1.11-3.87,1.39-4.56.65-.9-1.18-.23-2.08.27-3.31,1.45A5,5,0,0,0,67.14,186.49Z"></path>
      <path class="cls-13" d="M71.43,186.55a22.73,22.73,0,0,0,.5-3.26c.08-1.45,0-1.83,1.27-2s3.86-1.65,5.13-1.2,1.2.36,1.25,2-.51,2.56-1.65,4.12a3.29,3.29,0,0,1-3.49,1.6A8.46,8.46,0,0,1,71.43,186.55Z"></path>
      <path class="cls-10" d="M49.62,186.9s2.9,1.63,5.06-.08,2.38-4,1.7-4.56a10.09,10.09,0,0,0-1.28-.59c-.84-.36-1.48,1.85-1.53,1.88S49.62,186.9,49.62,186.9Z"></path>
      <path class="cls-11" d="M47.2,184.43s2.06,3.06,3.34,2.6,2.77-.8,2.77-.8l.12-.74s-2.09-1.72-2.67-1.7-1.61.16-1.87.15A12.91,12.91,0,0,0,47.2,184.43Z"></path>
      <path class="cls-12" d="M47.14,184c0,.33.09,1.18,1,1.11a12.06,12.06,0,0,0,1.77-.29s1.42-2.29,1.72-2.68.58-.47-.71-.36-1.39-.21-2.4.33A3.31,3.31,0,0,0,47.14,184Z"></path>
      <path class="cls-13" d="M49.89,184.79a14.3,14.3,0,0,0,.91-2c.32-.92.34-1.17,1.19-1.09s2.78-.36,3.52.16.71.45.44,1.52a4,4,0,0,1-1.8,2.35,2.21,2.21,0,0,1-2.54.4A5.59,5.59,0,0,1,49.89,184.79Z"></path>
    </g>
  </g>
</svg>
