<?xml version="1.0" encoding="UTF-8"?>
<svg xmlns="http://www.w3.org/2000/svg" xmlns:xlink="http://www.w3.org/1999/xlink" viewBox="0 0 110.57 142.36">
  <defs>
    <style>.cls-1{fill:none;}.cls-2{fill:#956d4b;}.cls-3{clip-path:url(#clip-path);}.cls-4{fill:url(#Безымянный_градиент_4);}.cls-5{fill:#754120;}.cls-6{fill:#44281c;}.cls-7{fill:#6c3c1d;}.cls-8{fill:#714d31;}.cls-9{fill:#613822;}.cls-10{fill:#7f5637;}.cls-11{fill:#a07850;}.cls-12{fill:#772f46;}.cls-13{fill:#8b5b3c;}.cls-14{fill:#85a93c;}.cls-15{fill:#613922;}</style>
    <clipPath id="clip-path">
      <polygon class="cls-1" points="7.92 113.69 57.88 137.21 104.11 113.8 56.05 93.44 7.92 113.69"></polygon>
    </clipPath>
    <linearGradient id="Безымянный_градиент_4" x1="-3856.18" y1="-716.34" x2="-3853.38" y2="-716.34" gradientTransform="matrix(34.36, 0, 0, -34.36, 132480.31, -24495.35)" gradientUnits="userSpaceOnUse">
      <stop offset="0" stop-color="#a17551"></stop>
      <stop offset="0.38" stop-color="#a17551"></stop>
      <stop offset="0.89" stop-color="#7a4928"></stop>
      <stop offset="1" stop-color="#72401f"></stop>
    </linearGradient>
  </defs>
  <g id="Слой_2" data-name="Слой 2">
    <g id="Слой_1-2" data-name="Слой 1">
      <path class="cls-2" d="M57.88,71.05s9.63,11.3,17.06,11.76,32.81-7.56,32.81-7.56l2.56-26.43L57.88,30.33Z"></path>
      <path class="cls-2" d="M.19,47,5.42,81.42S24,84.21,27.25,83.28s18.12-6.51,22.3-6.51,8.33-5.72,8.33-5.72V30.33Z"></path>
      <g class="cls-3">
        <rect class="cls-4" x="31.58" y="66.12" width="48.87" height="98.4" transform="translate(-62.15 165.06) rotate(-86.92)"></rect>
      </g>
      <path class="cls-5" d="M7.92,113.69,5.42,81.42S29.11,81,35.62,77.7s22.26-6.65,22.26-6.65L56.05,93.44Z"></path>
      <path class="cls-6" d="M41.68,83.42a8.33,8.33,0,0,0-2.83-1.66v0S35.08,80.61,33,83.15s-1.7,5.29-.77,5.73a12.35,12.35,0,0,0,1.63.35l.1,0a28.09,28.09,0,0,0,3.5-.79,2.11,2.11,0,0,0,.61-.16l.65-.19c1.48-.46,1.66-.13,2.69-1a4,4,0,0,0,1.08-2.55l-.21-.5h0l0,0a1,1,0,0,0-.59-.51"></path>
      <path class="cls-6" d="M21.4,86.75a11,11,0,0,0-4,1.33v0s-4.3,2.69-3.59,6.84,3.66,6.13,4.88,5.6a13.64,13.64,0,0,0,1.71-1.28l0-.13c.92-1,1.6-3.16,2.21-4a2.38,2.38,0,0,0,.36-.72c.1-.21.21-.42.37-.79.81-1.82,1.28-1.71,1.29-3.46a5.12,5.12,0,0,0-1.54-3.21,3.47,3.47,0,0,0-.65-.22v0h-.07a1.3,1.3,0,0,0-1,.14"></path>
      <path class="cls-7" d="M57.88,71.05,56.05,93.44l48.06,20.36,3.64-38.55s-15-1.73-21.48-.8S68.44,78.17,65,76.31a45.07,45.07,0,0,1-7.15-5.26"></path>
      <path class="cls-6" d="M39.58,94.05a3.48,3.48,0,0,0-1.25-.31h0a2.29,2.29,0,0,0-2,1.18c-.49,1.18,0,2.18.35,2.24l.65-.06,0,0a12.3,12.3,0,0,0,1.23-.69l.21-.13.23-.14c.5-.34.61-.24.89-.69A1.52,1.52,0,0,0,40,94.35l-.13-.16h0Z"></path>
      <path class="cls-6" d="M86.66,84.41a2.32,2.32,0,0,0-.11-.89h0s-.38-1-1.27-1-1.43.5-1.37.78l.2.41h0l.75.63.14.11.14.11c.35.24.31.34.67.41a1,1,0,0,0,.73-.19l.07-.12h0v-.23Z"></path>
      <path class="cls-6" d="M100.09,100.6a11.07,11.07,0,0,0-1.91-3.82h0s-3.31-3.91-7.35-2.59-5.6,4.53-4.89,5.68a13.68,13.68,0,0,0,1.53,1.52l.13,0c1.19.77,3.39,1.13,4.37,1.61a2.24,2.24,0,0,0,.77.26l.84.26c1.94.54,1.9,1,3.64.79a5.19,5.19,0,0,0,3-2,3,3,0,0,0,.13-.68h0v-.07a1.3,1.3,0,0,0-.28-1"></path>
      <path class="cls-6" d="M74,87.31A8.48,8.48,0,0,0,72.1,90v0s-1.4,3.67,1,5.9,5.11,2.09,5.62,1.19a11,11,0,0,0,.46-1.59l0-.1a27.85,27.85,0,0,0-.52-3.53,1.8,1.8,0,0,0-.11-.61c0-.17-.07-.35-.14-.66-.34-1.5,0-1.65-.81-2.74a4,4,0,0,0-2.44-1.26l-.51.17h0l0,0a1,1,0,0,0-.54.54"></path>
      <path class="cls-8" d="M74.15,114.69a1.58,1.58,0,0,0,1.57-.41c.54-.7.43-1.44.17-1.55l-.44-.09c-.29,0-.32.69-.33.71Z"></path>
      <path class="cls-9" d="M73.21,114.11s.88.79,1.24.55a8.71,8.71,0,0,1,.8-.46l0-.24-1-.32-.57.19Z"></path>
      <path class="cls-10" d="M73.15,114c0,.1.12.35.4.26a4.65,4.65,0,0,0,.53-.22l.32-1c.07-.14.15-.19-.25-.06s-.45.05-.72.29a1.11,1.11,0,0,0-.28.7"></path>
      <path class="cls-11" d="M74.08,114a4.61,4.61,0,0,0,.12-.7c0-.31,0-.39.29-.43s.83-.33,1.1-.22.26.08.26.44a1.26,1.26,0,0,1-.38.87.72.72,0,0,1-.76.32,1.79,1.79,0,0,1-.63-.28"></path>
      <path class="cls-8" d="M63.47,108.57s2.39.12,3.24-1.67.26-3.36-.36-3.49a6.11,6.11,0,0,0-1,0c-.65,0-.37,1.66-.39,1.7Z"></path>
      <path class="cls-9" d="M61.12,107.74s2.3,1.32,3,.62,1.53-1.4,1.53-1.4l-.16-.52a7.5,7.5,0,0,0-2.26-.25c-.37.2-1,.62-1.16.69Z"></path>
      <path class="cls-10" d="M60.93,107.47c.11.21.44.73,1,.4a8.38,8.38,0,0,0,1-.75s.19-1.94.26-2.29.23-.48-.58,0-1,.31-1.44,1a2.41,2.41,0,0,0-.28,1.66"></path>
      <path class="cls-11" d="M63,107.12a11.07,11.07,0,0,0,0-1.59c-.09-.7-.15-.87.42-1.09s1.68-1.12,2.33-1,.6.06.77.84a2.89,2.89,0,0,1-.42,2.1,1.6,1.6,0,0,1-1.51,1.07,4,4,0,0,1-1.54-.31"></path>
      <path class="cls-8" d="M53.51,116.33s1.87,1.42,3.54.43,2.05-2.58,1.62-3a7.68,7.68,0,0,0-.83-.53c-.56-.33-1.22,1.15-1.25,1.17Z"></path>
      <path class="cls-9" d="M52.06,114.38s1.14,2.33,2.08,2.14,2-.3,2-.3l.15-.5s-1.29-1.4-1.69-1.44-1.15,0-1.32-.08Z"></path>
      <path class="cls-10" d="M52.06,114.06c0,.23-.05.83.58.87a10.13,10.13,0,0,0,1.26,0l1.46-1.71c.25-.25.45-.27-.47-.33s-1-.27-1.7,0a2.36,2.36,0,0,0-1.13,1.19"></path>
      <path class="cls-11" d="M53.9,114.89a11.08,11.08,0,0,0,.83-1.31c.31-.61.35-.79.93-.65s2,0,2.44.44.45.39.17,1.11A2.81,2.81,0,0,1,56.78,116,1.58,1.58,0,0,1,55,116a4,4,0,0,1-1.07-1.1"></path>
      <path class="cls-8" d="M49.22,109.9a2.68,2.68,0,0,0,.09-2.73c-.86-1.21-2.1-1.39-2.41-1l-.35.68c-.21.44,1,.84,1,.87Z"></path>
      <path class="cls-9" d="M47.82,111.13s1.7-1,1.49-1.72A15.08,15.08,0,0,1,49,107.9l-.4-.09s-1,1.08-1,1.39,0,.87,0,1Z"></path>
      <path class="cls-10" d="M47.58,111.15c.18,0,.64,0,.62-.5a6,6,0,0,0-.11-1l-1.4-1c-.2-.17-.23-.32-.21.38s-.15.74.12,1.3a1.75,1.75,0,0,0,1,.78"></path>
      <path class="cls-11" d="M48.09,109.69a7.93,7.93,0,0,0-1.06-.54c-.48-.19-.62-.21-.55-.67s-.12-1.51.18-1.89.26-.37.83-.2a2.14,2.14,0,0,1,1.22,1,1.18,1.18,0,0,1,.14,1.38,3,3,0,0,1-.76.88"></path>
      <path class="cls-8" d="M40.75,111.91a1.17,1.17,0,0,0,.39-1.12c-.21-.61-.7-.84-.87-.73l-.23.23.29.48Z"></path>
      <path class="cls-9" d="M40,112.24s.84-.2.84-.52a5.52,5.52,0,0,1,0-.67l-.16-.09-.58.45-.12.42Z"></path>
      <path class="cls-10" d="M39.91,112.22l.32-.13.08-.41-.45-.59c-.06-.1-.06-.17-.14.13s-.15.29-.12.55a.76.76,0,0,0,.31.45"></path>
      <path class="cls-11" d="M40.31,111.68l-.37-.36-.15-.35.32-.76.37,0a.91.91,0,0,1,.37.59.51.51,0,0,1-.11.59Z"></path>
      <path class="cls-8" d="M38.15,116.58s1.64-2.64.14-4.72-3.66-2.39-4.19-1.77a8.62,8.62,0,0,0-.6,1.16c-.37.77,1.66,1.46,1.69,1.51Z"></path>
      <path class="cls-9" d="M35.75,118.74s2.94-1.8,2.57-3a26.63,26.63,0,0,1-.64-2.62L37,113s-1.69,1.88-1.69,2.42.08,1.51.06,1.75Z"></path>
      <path class="cls-10" d="M35.32,118.77c.31,0,1.1,0,1.08-.87a11.58,11.58,0,0,0-.2-1.66s-2.08-1.41-2.43-1.72-.41-.56-.37.66-.25,1.29.22,2.25a3.07,3.07,0,0,0,1.7,1.34"></path>
      <path class="cls-11" d="M36.2,116.24a14.53,14.53,0,0,0-1.83-.93c-.85-.33-1.09-.37-1-1.16s-.22-2.61.29-3.27.45-.65,1.44-.35a3.69,3.69,0,0,1,2.12,1.78,2.07,2.07,0,0,1,.28,2.38,5.3,5.3,0,0,1-1.32,1.55"></path>
      <path class="cls-12" d="M66.92,98.87a19.36,19.36,0,0,0-2.56-4.07A26.15,26.15,0,0,0,61.66,92c-.34-.37-.69-.74-1.06-1.08a18.36,18.36,0,0,0-1.67-1.39l-.34-.23L57.85,88c.46-2.35,1.09-4.7,1.79-7,.17.2.35.39.51.6a10.59,10.59,0,0,1,1.25,2.32,13.39,13.39,0,0,1,.74,2.56,15,15,0,0,1,.25,2.68h0v0a.29.29,0,0,0,.58,0c-.08-.92-.15-1.84-.29-2.75a23.82,23.82,0,0,0-.58-2.71,21.45,21.45,0,0,0-1-2.63,13.13,13.13,0,0,0-.65-1.3l-.29-.48c.27-.88.56-1.75.84-2.63a35,35,0,0,0,1.64-7.27,35.94,35.94,0,0,0,.22-3.75,24.88,24.88,0,0,0-.27-3.87.25.25,0,0,0,0-.08,1.59,1.59,0,0,0-3.12.65v.07a21,21,0,0,1,.38,3.29,30.38,30.38,0,0,1,0,3.44,32.43,32.43,0,0,1-1.19,6.8c-.23.86-.46,1.71-.68,2.57,0,0-.06.06-.07.1a.91.91,0,0,0-.08.48c-.3,1.18-.59,2.36-.86,3.56a18.88,18.88,0,0,0-4.66,3.28c-.23.23-.45.48-.67.72a9.17,9.17,0,0,0-2.72,1.43,10.79,10.79,0,0,0-2.34,2.43,12.09,12.09,0,0,0-1.45,3c-.2.52-.28,1.07-.43,1.59s-.17,1.08-.25,1.62a.21.21,0,0,0,.16.24.21.21,0,0,0,.26-.16v0c.12-.52.22-1,.35-1.55s.3-1,.52-1.49A11.74,11.74,0,0,1,47.3,91a9.53,9.53,0,0,1,2.26-2c.23-.15.48-.29.73-.42a9.28,9.28,0,0,0-1,3.15c-.32,2.09-.41,4.19-.58,6.22a15.2,15.2,0,0,1-.46,2.93,4.87,4.87,0,0,1-.55,1.22c-.22.29-.65.7-1,1.08a18.13,18.13,0,0,0-3.58,5.27,9.17,9.17,0,0,0-.36,6.42c.67,2.06,1.7,3.81,1.94,5.79a18.92,18.92,0,0,1,0,3l-.07,1.54a8.09,8.09,0,0,0,0,1.64v0a.43.43,0,0,0,.5.32.42.42,0,0,0,.31-.5,8.24,8.24,0,0,1,0-1.45l.09-1.55a18.73,18.73,0,0,0,0-3.18c-.23-2.17-1.31-4.09-1.88-6a8,8,0,0,1,.42-5.68A16.93,16.93,0,0,1,47.61,104c.36-.38.69-.66,1.11-1.18a5.59,5.59,0,0,0,.76-1.58A16.37,16.37,0,0,0,50,98.07c.21-2.09.32-4.13.67-6.12a7.72,7.72,0,0,1,.87-2.7A9.54,9.54,0,0,1,53.36,87a17,17,0,0,1,3.17-2.33c-.21,1.09-.4,2.18-.55,3.28-.75,1.35-1.47,2.71-2.33,4a16.72,16.72,0,0,0-2.12,4.91,10.61,10.61,0,0,0-.29,2.67c0,.88,0,1.75.09,2.62s.13,1.73.23,2.59a15.63,15.63,0,0,0,.45,2.62.2.2,0,0,0,.23.13.2.2,0,0,0,.14-.23l0-.06a16.36,16.36,0,0,1-.27-2.5c-.05-.86-.07-1.72-.08-2.58a17.6,17.6,0,0,1,.46-5,15.69,15.69,0,0,1,2.23-4.44c.34-.44.66-.9,1-1.35,0,.26,0,.52,0,.8A13.63,13.63,0,0,0,55.82,94c.1.75.17,1.52.23,2.3l-.1.5c-.05.26-.09.52-.15.77a3.57,3.57,0,0,1-.1.35c0,.07-.1.26-.14.41a7.73,7.73,0,0,0-.15,1.7,11.22,11.22,0,0,0,.13,1.64c.08-.54.2-1.07.3-1.6a11.12,11.12,0,0,1,.37-1.38c.11,2,.18,4,.11,6a13.36,13.36,0,0,1-.17,1.72c0,.13-.07.23-.1.35a4.58,4.58,0,0,0-.14.53,5.43,5.43,0,0,0-.06,1,25.78,25.78,0,0,0,.33,3.64,44.09,44.09,0,0,0,1.6,7.05.17.17,0,0,0,.19.1.16.16,0,0,0,.1-.19h0a42.86,42.86,0,0,1-1.23-7,24.71,24.71,0,0,1-.15-3.53,5.28,5.28,0,0,1,.09-.82c0-.13.07-.21.1-.33a3.81,3.81,0,0,0,.17-.51,13.88,13.88,0,0,0,.29-1.85c.2-2.35.22-4.68.19-7a13.84,13.84,0,0,1,3,2.65,7.19,7.19,0,0,1,1.84,4.54,26.52,26.52,0,0,1-.62,5.12c-.33,1.71-.71,3.42-1.08,5.13s-.74,3.42-1,5.16a23.09,23.09,0,0,0-.27,2.65,5.86,5.86,0,0,0,.12,1.37,12.54,12.54,0,0,0,.4,1.27c.59,1.66,1.23,3.28,1.87,4.91l1,2.45a18.46,18.46,0,0,1,.81,2.41v.07a.2.2,0,0,0,.22.15.19.19,0,0,0,.17-.22,6.75,6.75,0,0,0-.37-1.33l-.45-1.23-.92-2.46c-.63-1.63-1.25-3.27-1.82-4.92a11.49,11.49,0,0,1-.37-1.23,5,5,0,0,1-.09-1.23,18.9,18.9,0,0,1,.29-2.57c.29-1.71.68-3.41,1.06-5.12s.79-3.41,1.14-5.13a27,27,0,0,0,.69-5.27,8,8,0,0,0-2-5,15.2,15.2,0,0,0-3.59-3.15c0-1-.06-1.92-.14-2.89a12.68,12.68,0,0,1-.08-1.7c0-.18,0-.36.05-.54l.29.26a13.11,13.11,0,0,1,1.73,1.92A9.43,9.43,0,0,1,60.61,96,4.91,4.91,0,0,1,61,98.4h0v0a.41.41,0,0,0,.81.06,8.52,8.52,0,0,0-.3-2.81,18.71,18.71,0,0,0-1-2.62c-.19-.42-.4-.85-.61-1.27l.06,0a13.18,13.18,0,0,1,2.83,2.8,11.07,11.07,0,0,1,1.78,3.67,12,12,0,0,1,.32,4.1h0a.18.18,0,0,0,.16.18.17.17,0,0,0,.17-.16,14.59,14.59,0,0,0-.29-4.22,13.1,13.1,0,0,0-1-2.78,19.12,19.12,0,0,1,2.52,3.65A15.6,15.6,0,0,1,68,103.51h0a.13.13,0,0,0,.26,0A15.78,15.78,0,0,0,66.92,98.87Z"></path>
      <polygon class="cls-13" points="0 47.25 57.93 72.76 110.57 49.23 57.93 29.66 0 47.25"></polygon>
      <path class="cls-14" d="M58.88,48.32s.4-6.24,0-8.5a15.81,15.81,0,0,1,.18-4.51c0-.66-1.64-2.65-2.7-2.78A4.47,4.47,0,0,0,53.18,34c-.53.67-.93,3.46-4.78,1.33s-2.26,1.2-3,2.26-2,3-5.05,1.46-1.19,1-3.58,1.39-6.9,1.93-8.36,1.26,3.45-7.7,5.44-7.56,2.66-1.2,3.32-2.26,3.18-1.72,5.44-1.33,4.11-1.46,5.18-2.12,5.3,0,6.9,1.2,3.45,3.58,3.32,2.25-1.07-4.91-3.19-5S36.32,29.07,38.71,16.07c0,0-.22,2.52,4.87,3.85s12,0,14.11,6.63,2.65,5.64,2.65,5.64a15.62,15.62,0,0,0-1.19-9c-2.12-4.37-5-5.7-9.42-6.1s-4.65.93-6.37-3-2.39-.27-4.65-.8S31,4.12,28.09,3.86A71,71,0,0,0,38.58.41c4-1.86,4.51,3.18,7.56,4s5.44-3.19,7.7,1.86S58,7.71,59.15,11s1.33,15.79,2.12,15.79S63.13,23.9,63.13,23s-1.46-8.23,1.59-10.22.53-2.92,3.59-4.38,9.55-1.86,10.88-4.25S81.45,4,80.25,7.31s-2,7.17-4.64,8.49-.14,1.06-1.86,2.79S64.59,22,63.93,24.16s-2.92,9.56-1.6,8.76,3.72-3.05,4.12-4.64,2.79-4.52,4.91-4.12S74.28,23.1,75.47,22s2.79,1.33,6.11-1.06,8.49-8,14.33,3.18c0,0,3.19,6.24-1.72,9.69,0,0,.13-1.86-2.13-3.85s-3.58-1.06-5.7-.13-4,.66-5.18-.8-2.26,2-3.72,2.26S73.08,30,70.3,30.8s-3.19-.4-4.25,1.19-1.59,2,1.2,2.39,5.44-.53,9.55,8c0,0,.53,3.71,6.24,3.31s-2.79,3.85-5.18,3.72S70.71,49.29,70,42s-4.91-6.9-5.44-6.77a5.54,5.54,0,0,0-3.72,6,45.68,45.68,0,0,1,0,9C60.74,50.84,58.88,48.32,58.88,48.32Z"></path>
      <path class="cls-8" d="M55.05,56.83a1.12,1.12,0,0,0-1.07-.4c-.59.19-.82.65-.72.82a2.22,2.22,0,0,0,.22.23c.15.14.46-.27.47-.27Z"></path>
      <path class="cls-15" d="M55.36,57.54s-.19-.81-.49-.82-.65,0-.65,0l-.08.14s.3.53.42.57.35.1.4.12A2.15,2.15,0,0,0,55.36,57.54Z"></path>
      <path class="cls-10" d="M55.33,57.64c0-.07.08-.26-.11-.31a3.28,3.28,0,0,0-.4-.09s-.48.37-.58.43-.16,0,.13.13.27.16.52.12A.73.73,0,0,0,55.33,57.64Z"></path>
      <path class="cls-11" d="M54.82,57.24a3.43,3.43,0,0,0-.35.35c-.14.17-.17.22-.34.13s-.61-.14-.72-.31-.12-.15,0-.36a.87.87,0,0,1,.57-.34.48.48,0,0,1,.56.12A1.18,1.18,0,0,1,54.82,57.24Z"></path>
      <path class="cls-8" d="M52.62,43.14A1.62,1.62,0,0,0,51,42.91c-.79.44-1,1.18-.79,1.39a3.26,3.26,0,0,0,.39.26c.25.16.58-.52.59-.53Z"></path>
      <path class="cls-15" d="M53.28,44.07s-.51-1.1-1-1-.94.12-.94.12l-.08.24s.59.66.78.69.53,0,.62,0A5.2,5.2,0,0,0,53.28,44.07Z"></path>
      <path class="cls-10" d="M53.28,44.22c0-.1,0-.38-.26-.41a5,5,0,0,0-.59,0s-.58.68-.7.79-.22.12.21.15.44.14.8,0A1.15,1.15,0,0,0,53.28,44.22Z"></path>
      <path class="cls-11" d="M52.43,43.81a5.1,5.1,0,0,0-.41.61c-.15.28-.17.37-.44.29s-.92,0-1.14-.23-.2-.18-.06-.52a1.34,1.34,0,0,1,.71-.67.75.75,0,0,1,.85,0A2.16,2.16,0,0,1,52.43,43.81Z"></path>
      <path class="cls-8" d="M49.35,48.16s-3.41-1.7-5.79.38-2.49,4.74-1.68,5.32a10.72,10.72,0,0,0,1.49.59c1,.37,1.6-2.19,1.65-2.23S49.35,48.16,49.35,48.16Z"></path>
      <path class="cls-15" d="M52.26,50.85s-2.53-3.38-4-2.79-3.12,1.07-3.12,1.07l-.1.86s2.49,1.85,3.15,1.79,1.84-.27,2.13-.27A14.24,14.24,0,0,0,52.26,50.85Z"></path>
      <path class="cls-10" d="M52.36,51.37c0-.38-.17-1.35-1.19-1.21a14.87,14.87,0,0,0-2,.42s-1.49,2.71-1.82,3.17-.64.57.84.38,1.6.15,2.73-.52A3.83,3.83,0,0,0,52.36,51.37Z"></path>
      <path class="cls-11" d="M49.16,50.58a17.79,17.79,0,0,0-.93,2.36c-.31,1.07-.32,1.36-1.3,1.31s-3.16.58-4,0-.84-.48-.6-1.72a4.53,4.53,0,0,1,1.94-2.79,2.52,2.52,0,0,1,2.88-.61A6.59,6.59,0,0,1,49.16,50.58Z"></path>
      <path class="cls-8" d="M61.13,48.88s-2.86-1.68-5.05,0-2.45,4-1.78,4.52a11.64,11.64,0,0,0,1.26.61c.83.37,1.52-1.81,1.57-1.84S61.13,48.88,61.13,48.88Z"></path>
      <path class="cls-15" d="M63.49,51.39s-2-3.09-3.27-2.67-2.78.75-2.78.75l-.13.74s2,1.75,2.62,1.74,1.61-.12,1.86-.11A11.89,11.89,0,0,0,63.49,51.39Z"></path>
      <path class="cls-10" d="M63.55,51.84c0-.33-.07-1.18-1-1.12a12,12,0,0,0-1.77.25s-1.46,2.26-1.77,2.64-.59.45.71.38,1.38.23,2.39-.29A3.37,3.37,0,0,0,63.55,51.84Z"></path>
      <path class="cls-11" d="M60.82,51a14.94,14.94,0,0,0-1,2c-.33.92-.36,1.17-1.21,1.07s-2.78.31-3.5-.23-.7-.46-.41-1.52A3.89,3.89,0,0,1,56.59,50a2.21,2.21,0,0,1,2.54-.35A5.67,5.67,0,0,1,60.82,51Z"></path>
      <path class="cls-8" d="M56.85,45.78s-2.82-2.18-5.38-.7S48.33,49,49,49.65a12.3,12.3,0,0,0,1.26.81c.84.51,1.86-1.72,1.92-1.75S56.85,45.78,56.85,45.78Z"></path>
      <path class="cls-15" d="M59,48.77s-1.71-3.56-3.14-3.28a29.6,29.6,0,0,1-3,.42l-.24.77s1.94,2.15,2.56,2.21,1.73.09,2,.14A13.8,13.8,0,0,0,59,48.77Z"></path>
      <path class="cls-10" d="M59,49.26c0-.35.09-1.26-.87-1.33a14,14,0,0,0-1.91,0S54.38,50.18,54,50.54s-.68.41.71.5,1.44.43,2.59,0A3.56,3.56,0,0,0,59,49.26Z"></path>
      <path class="cls-11" d="M56.24,48A15.47,15.47,0,0,0,55,50c-.48.93-.55,1.2-1.43,1s-3,0-3.7-.71-.68-.58-.24-1.68a4.29,4.29,0,0,1,2.28-2.21,2.36,2.36,0,0,1,2.75,0A6.15,6.15,0,0,1,56.24,48Z"></path>
      <path class="cls-8" d="M70.88,55a1.7,1.7,0,0,0,1.56-.77c.42-.85.15-1.61-.14-1.67a4,4,0,0,0-.49,0c-.31,0-.19.8-.2.81Z"></path>
      <path class="cls-15" d="M69.76,54.56s1.1.65,1.43.32.74-.66.74-.66L71.86,54a3.54,3.54,0,0,0-1.08-.14l-.56.33A4.11,4.11,0,0,0,69.76,54.56Z"></path>
      <path class="cls-10" d="M69.68,54.43a.33.33,0,0,0,.47.2,5.93,5.93,0,0,0,.5-.35s.1-.93.14-1.09.11-.23-.27,0-.47.14-.7.46A1.16,1.16,0,0,0,69.68,54.43Z"></path>
      <path class="cls-11" d="M70.65,54.28a4.83,4.83,0,0,0,0-.76c0-.34-.07-.42.21-.52s.81-.52,1.12-.47.28,0,.36.41a1.32,1.32,0,0,1-.22,1,.75.75,0,0,1-.73.51A2,2,0,0,1,70.65,54.28Z"></path>
      <path class="cls-8" d="M44.06,55.58a2.16,2.16,0,0,0,2-.85c.61-1,.33-2,0-2.14a3.58,3.58,0,0,0-.61,0c-.4,0-.31,1-.33,1Z"></path>
      <path class="cls-15" d="M42.67,55s1.33.92,1.78.52a12.64,12.64,0,0,1,1-.77l-.07-.32A4.53,4.53,0,0,0,44,54.12c-.23.1-.63.33-.74.36A6.55,6.55,0,0,0,42.67,55Z"></path>
      <path class="cls-10" d="M42.57,54.78c.06.13.23.47.58.29a5,5,0,0,0,.68-.4s.21-1.16.27-1.37.16-.29-.35,0-.6.14-.93.53A1.48,1.48,0,0,0,42.57,54.78Z"></path>
      <path class="cls-11" d="M43.83,54.67a6.66,6.66,0,0,0,.05-1c0-.42-.05-.53.31-.63s1.08-.6,1.46-.51.36.07.43.55a1.76,1.76,0,0,1-.36,1.26,1,1,0,0,1-1,.57A2.42,2.42,0,0,1,43.83,54.67Z"></path>
      <path class="cls-8" d="M53.49,50.19a1.25,1.25,0,0,0,1.27.22c.62-.32.79-.89.64-1.06a2.22,2.22,0,0,0-.29-.21c-.19-.13-.46.4-.47.4Z"></path>
      <path class="cls-15" d="M53,49.46s.37.86.71.81.73-.07.73-.07l.07-.18s-.44-.53-.59-.55l-.47,0A2.68,2.68,0,0,0,53,49.46Z"></path>
      <path class="cls-10" d="M53,49.34a.24.24,0,0,0,.19.33,4,4,0,0,0,.46,0s.46-.51.56-.59.16-.09-.17-.13-.33-.11-.61,0A.85.85,0,0,0,53,49.34Z"></path>
      <path class="cls-11" d="M53.66,49.68a4.38,4.38,0,0,0,.32-.46c.12-.22.14-.28.35-.22s.72,0,.88.21.15.14,0,.4-.27.35-.56.5a.56.56,0,0,1-.66,0A1.44,1.44,0,0,1,53.66,49.68Z"></path>
      <path class="cls-8" d="M69.46,48.78s-2.65-2-5-.55-2.83,3.67-2.23,4.28a8.87,8.87,0,0,0,1.19.73c.78.46,1.68-1.63,1.73-1.66S69.46,48.78,69.46,48.78Z"></path>
      <path class="cls-15" d="M71.53,51.5s-1.65-3.26-3-3-2.82.45-2.82.45l-.21.72s1.84,1.94,2.41,2,1.61.05,1.86.09A12.86,12.86,0,0,0,71.53,51.5Z"></path>
      <path class="cls-10" d="M71.54,52c0-.33,0-1.17-.84-1.21a12.93,12.93,0,0,0-1.77.06s-1.67,2.08-2,2.43-.63.39.66.44,1.34.37,2.4,0A3.34,3.34,0,0,0,71.54,52Z"></path>
      <path class="cls-11" d="M68.93,50.81a15.53,15.53,0,0,0-1.14,1.86c-.43.87-.48,1.12-1.3.93s-2.78,0-3.45-.58-.63-.53-.24-1.55a3.85,3.85,0,0,1,2.06-2.09,2.2,2.2,0,0,1,2.55-.09A5.71,5.71,0,0,1,68.93,50.81Z"></path>
      <path class="cls-8" d="M50.2,53.19s1.92,1.08,3.36,0,1.57-2.67,1.12-3a5.49,5.49,0,0,0-.85-.38c-.55-.24-1,1.22-1,1.24S50.2,53.19,50.2,53.19Z"></path>
      <path class="cls-15" d="M48.6,51.55s1.36,2,2.21,1.73,1.83-.53,1.83-.53l.09-.5S51.34,51.11,51,51.13s-1.07.1-1.24.1A8,8,0,0,0,48.6,51.55Z"></path>
      <path class="cls-10" d="M48.56,51.25c0,.22.06.78.65.73a7.33,7.33,0,0,0,1.17-.19s.94-1.52,1.14-1.77.39-.31-.47-.25-.92-.13-1.59.23A2.19,2.19,0,0,0,48.56,51.25Z"></path>
      <path class="cls-11" d="M50.38,51.79A10,10,0,0,0,51,50.46c.2-.61.22-.78.78-.72s1.85-.24,2.34.1.46.3.29,1a2.64,2.64,0,0,1-1.2,1.56,1.48,1.48,0,0,1-1.68.27A3.92,3.92,0,0,1,50.38,51.79Z"></path>
    </g>
  </g>
</svg>
