<?xml version="1.0" encoding="UTF-8"?>
<svg xmlns="http://www.w3.org/2000/svg" xmlns:xlink="http://www.w3.org/1999/xlink" viewBox="0 0 110.12 145.04">
  <defs>
    <style>.cls-1{fill:none;}.cls-2{fill:#956d4b;}.cls-3{clip-path:url(#clip-path);}.cls-4{fill:url(#Безымянный_градиент_2);}.cls-5{fill:#754120;}.cls-6{fill:#44281c;}.cls-7{fill:#6c3c1d;}.cls-8{fill:#714d31;}.cls-9{fill:#613822;}.cls-10{fill:#7f5637;}.cls-11{fill:#a07850;}.cls-12{fill:#ca571c;}.cls-13{fill:#ce6426;}.cls-14{fill:#d67f29;}.cls-15{fill:#cd5b1b;}.cls-16{fill:#8b5b3c;}.cls-17,.cls-19,.cls-20{fill:#88af3c;}.cls-18{fill:#7a9c36;}.cls-19,.cls-20{stroke:#88af3c;stroke-linecap:round;stroke-linejoin:round;}.cls-19{stroke-width:0.14px;}.cls-20{stroke-width:0.18px;}.cls-21{fill:#613922;}</style>
    <clipPath id="clip-path">
      <polygon class="cls-1" points="7.72 116.36 57.69 139.88 103.91 116.47 55.86 96.11 7.72 116.36"></polygon>
    </clipPath>
    <linearGradient id="Безымянный_градиент_2" x1="-2655.78" y1="-23.12" x2="-2652.98" y2="-23.12" gradientTransform="matrix(34.36, 0, 0, -34.36, 91238.82, -676.18)" gradientUnits="userSpaceOnUse">
      <stop offset="0" stop-color="#a17551"></stop>
      <stop offset="0.38" stop-color="#a17551"></stop>
      <stop offset="0.89" stop-color="#7a4928"></stop>
      <stop offset="1" stop-color="#72401f"></stop>
    </linearGradient>
  </defs>
  <g id="Слой_2" data-name="Слой 2">
    <g id="Слой_2-2" data-name="Слой 2">
      <g id="Слой_1-2" data-name="Слой 1">
        <path class="cls-2" d="M57.69,73.72S67.31,85,74.75,85.49s32.81-7.57,32.81-7.57l2.56-26.43L57.69,33Z"></path>
        <path class="cls-2" d="M0,49.62,5.23,84.09S23.81,86.88,27.06,86s18.12-6.5,22.29-6.5,8.34-5.73,8.34-5.73V33Z"></path>
        <g class="cls-3">
          <rect class="cls-4" x="31.38" y="68.8" width="48.87" height="98.4" transform="translate(-65 167.4) rotate(-86.92)"></rect>
        </g>
        <path class="cls-5" d="M7.72,116.36,5.23,84.09s23.69-.46,30.19-3.71,22.27-6.66,22.27-6.66L55.86,96.11Z"></path>
        <path class="cls-6" d="M41.49,86.1a8.56,8.56,0,0,0-2.84-1.67l0,0s-3.79-1.13-5.85,1.41-1.71,5.29-.77,5.73a10.92,10.92,0,0,0,1.63.35l.09-.05a28.27,28.27,0,0,0,3.51-.79,1.76,1.76,0,0,0,.6-.16,6.26,6.26,0,0,0,.65-.19c1.49-.46,1.67-.12,2.69-1a4,4,0,0,0,1.09-2.55l-.21-.5h0l0,0a1,1,0,0,0-.58-.5"></path>
        <path class="cls-6" d="M21.2,89.43a10.77,10.77,0,0,0-4,1.32v0s-4.3,2.7-3.59,6.84,3.66,6.14,4.88,5.61a13.86,13.86,0,0,0,1.71-1.29l0-.13c.92-1,1.59-3.16,2.21-4a2,2,0,0,0,.35-.72c.11-.2.21-.42.38-.79.8-1.81,1.28-1.71,1.29-3.46a5.08,5.08,0,0,0-1.54-3.2,3.29,3.29,0,0,0-.66-.23v0h-.08a1.27,1.27,0,0,0-1,.14"></path>
        <path class="cls-7" d="M57.69,73.72,55.86,96.11l48.06,20.37,3.64-38.56s-15-1.72-21.48-.8S68.24,80.84,64.84,79a44.41,44.41,0,0,1-7.15-5.26"></path>
        <path class="cls-6" d="M39.39,96.73a3.29,3.29,0,0,0-1.26-.31h0a2.31,2.31,0,0,0-2,1.18c-.49,1.19-.05,2.18.35,2.24l.65,0,0,0a10.59,10.59,0,0,0,1.23-.69l.21-.13.22-.14c.51-.34.61-.24.9-.68A1.59,1.59,0,0,0,39.81,97l-.13-.16h0Z"></path>
        <path class="cls-6" d="M86.47,87.09a2.27,2.27,0,0,0-.11-.89h0s-.38-1-1.27-1-1.43.5-1.38.78l.2.4,0,0,.75.63.13.1.15.11c.35.24.3.34.66.41a1.08,1.08,0,0,0,.74-.18l.07-.13h0v-.22Z"></path>
        <path class="cls-6" d="M99.89,103.27A11,11,0,0,0,98,99.45h0s-3.32-3.9-7.36-2.59-5.59,4.54-4.88,5.68a15.32,15.32,0,0,0,1.52,1.53h.14c1.19.77,3.39,1.14,4.37,1.62a2.18,2.18,0,0,0,.77.25c.22.07.45.15.84.26,1.93.54,1.9,1,3.64.79a5.15,5.15,0,0,0,3-2,4.06,4.06,0,0,0,.13-.69h0l0-.07a1.27,1.27,0,0,0-.28-1"></path>
        <path class="cls-6" d="M73.78,90a8.44,8.44,0,0,0-1.87,2.68h0s-1.4,3.66,1,5.89,5.11,2.09,5.62,1.19a12.49,12.49,0,0,0,.46-1.59l0-.09a27.32,27.32,0,0,0-.52-3.53,1.78,1.78,0,0,0-.12-.62c0-.16-.07-.35-.13-.65-.35-1.5,0-1.66-.81-2.74a3.94,3.94,0,0,0-2.44-1.26l-.51.16h0l0,0a.93.93,0,0,0-.54.54"></path>
        <path class="cls-8" d="M74,117.37a1.59,1.59,0,0,0,1.57-.42c.54-.7.43-1.43.17-1.55l-.44-.08c-.29,0-.32.69-.33.7Z"></path>
        <path class="cls-9" d="M73,116.79s.87.79,1.23.54.8-.46.8-.46l0-.24-1-.32-.56.19Z"></path>
        <path class="cls-10" d="M73,116.65c0,.1.12.36.4.27a4.1,4.1,0,0,0,.52-.23l.33-1c.06-.15.14-.19-.25-.06s-.45,0-.72.29a1.07,1.07,0,0,0-.28.69"></path>
        <path class="cls-11" d="M73.88,116.69A5.25,5.25,0,0,0,74,116c0-.31,0-.4.28-.43s.84-.34,1.11-.23.26.09.26.44a1.24,1.24,0,0,1-.39.87.68.68,0,0,1-.75.32,1.87,1.87,0,0,1-.64-.28"></path>
        <path class="cls-8" d="M63.28,111.24s2.39.12,3.24-1.67.26-3.36-.36-3.49a7.39,7.39,0,0,0-1,0c-.66,0-.37,1.67-.39,1.7Z"></path>
        <path class="cls-9" d="M60.93,110.42s2.3,1.31,3,.61,1.53-1.4,1.53-1.4l-.15-.52a7.53,7.53,0,0,0-2.27-.25c-.36.2-1,.62-1.16.7Z"></path>
        <path class="cls-10" d="M60.74,110.14c.11.21.43.74,1,.4a8.38,8.38,0,0,0,1.05-.75s.18-1.93.26-2.28.22-.49-.58,0-1,.32-1.44,1a2.41,2.41,0,0,0-.28,1.66"></path>
        <path class="cls-11" d="M62.78,109.79a11.07,11.07,0,0,0-.05-1.59c-.09-.69-.16-.87.42-1.08s1.68-1.13,2.32-1,.6.07.77.85a2.85,2.85,0,0,1-.41,2.09,1.59,1.59,0,0,1-1.52,1.07,4,4,0,0,1-1.53-.31"></path>
        <path class="cls-8" d="M53.32,119s1.86,1.41,3.54.43,2-2.58,1.62-3a6,6,0,0,0-.84-.53c-.55-.33-1.21,1.15-1.25,1.16Z"></path>
        <path class="cls-9" d="M51.86,117.05s1.15,2.33,2.08,2.14a18.88,18.88,0,0,1,2-.29l.16-.51s-1.29-1.4-1.7-1.44-1.14,0-1.32-.08Z"></path>
        <path class="cls-10" d="M51.86,116.73c0,.23,0,.83.59.87a10.13,10.13,0,0,0,1.26,0l1.46-1.71c.25-.24.45-.27-.47-.32s-1-.28-1.7,0a2.35,2.35,0,0,0-1.14,1.19"></path>
        <path class="cls-11" d="M53.71,117.57a10.69,10.69,0,0,0,.83-1.32c.3-.61.35-.79.93-.64s2,0,2.44.44.45.38.17,1.1a2.82,2.82,0,0,1-1.49,1.47,1.54,1.54,0,0,1-1.81,0,4.06,4.06,0,0,1-1.07-1.09"></path>
        <path class="cls-8" d="M49,112.57a2.67,2.67,0,0,0,.1-2.73c-.86-1.21-2.11-1.39-2.41-1l-.35.67c-.22.44,1,.84,1,.88Z"></path>
        <path class="cls-9" d="M47.63,113.81s1.7-1,1.49-1.73a15.08,15.08,0,0,1-.35-1.51l-.4-.09s-1,1.08-1,1.39,0,.87,0,1Z"></path>
        <path class="cls-10" d="M47.39,113.83c.18,0,.63,0,.62-.5a7.43,7.43,0,0,0-.11-1l-1.4-1c-.2-.18-.23-.33-.21.37s-.15.75.12,1.3a1.79,1.79,0,0,0,1,.79"></path>
        <path class="cls-11" d="M47.9,112.37a8.8,8.8,0,0,0-1.06-.55c-.49-.19-.62-.21-.55-.67s-.13-1.51.17-1.89.26-.37.84-.2a2.16,2.16,0,0,1,1.21,1,1.18,1.18,0,0,1,.15,1.38,3,3,0,0,1-.76.89"></path>
        <path class="cls-8" d="M40.56,114.58a1.15,1.15,0,0,0,.38-1.11c-.2-.62-.69-.85-.86-.74l-.23.23.29.49Z"></path>
        <path class="cls-9" d="M39.82,114.92s.83-.21.84-.53,0-.67,0-.67l-.15-.09-.58.45-.12.43Z"></path>
        <path class="cls-10" d="M39.71,114.89l.33-.12.08-.41-.46-.6c-.06-.09,0-.16-.13.13s-.16.29-.12.55a.77.77,0,0,0,.3.45"></path>
        <path class="cls-11" d="M40.12,114.36l-.37-.37-.15-.35.32-.75.37,0a.92.92,0,0,1,.37.58.5.5,0,0,1-.12.59Z"></path>
        <path class="cls-8" d="M38,119.26s1.64-2.64.13-4.73-3.65-2.39-4.18-1.77a8.24,8.24,0,0,0-.6,1.17c-.37.76,1.66,1.45,1.69,1.5Z"></path>
        <path class="cls-9" d="M35.56,121.41s2.94-1.8,2.56-3-.63-2.61-.63-2.61l-.69-.15s-1.69,1.88-1.69,2.42.08,1.52.06,1.75Z"></path>
        <path class="cls-10" d="M35.13,121.45c.31,0,1.1,0,1.07-.87a12.45,12.45,0,0,0-.19-1.67s-2.09-1.41-2.44-1.72-.41-.56-.36.66-.25,1.29.21,2.25a3.15,3.15,0,0,0,1.71,1.35"></path>
        <path class="cls-11" d="M36,118.91a14.22,14.22,0,0,0-1.84-.93c-.85-.33-1.08-.37-1-1.15s-.23-2.61.29-3.28.45-.64,1.44-.35A3.69,3.69,0,0,1,37.05,115a2.07,2.07,0,0,1,.27,2.39A5.23,5.23,0,0,1,36,118.91"></path>
        <path class="cls-12" d="M60.15,69a62.54,62.54,0,0,1,.28,12c-.66,12.41-1.13,17.94-1.65,20.87,0,0,0,0,0,0,.62,0,4-26.37,2.59-32.93Z"></path>
        <path class="cls-1" d="M61.05,68.09c.61,1.11.75,4.31.62,8.33"></path>
        <path class="cls-1" d="M61.67,76.42c-.32,10.19-2.36,25.64-2.79,25.58-.6-.08-.77-1.28-1.14-4.09s-2.49-26.77-1-29.82"></path>
        <path class="cls-12" d="M59.66,107.31a6.17,6.17,0,0,0,.23-1.47,1.53,1.53,0,0,0-.13-.68c-.1-.22-.21-.47-.3-.71A14.41,14.41,0,0,1,59,103a8.16,8.16,0,0,1-.39-1.47.2.2,0,0,1,.18-.21.19.19,0,0,1,.19.11,9.31,9.31,0,0,1,.44,1.45l.42,1.45a7.43,7.43,0,0,0,.24.71,2,2,0,0,1,.08.8,5.14,5.14,0,0,1-.4,1.49s0,0,0,0S59.65,107.33,59.66,107.31Z"></path>
        <path class="cls-12" d="M58.92,101.53a13.53,13.53,0,0,0-.35,1.68,5.11,5.11,0,0,0,0,1.7s0,0,0,0a0,0,0,0,1,0,0,5.37,5.37,0,0,1-.13-1.74,11.36,11.36,0,0,1,.23-1.74.16.16,0,0,1,.19-.13.17.17,0,0,1,.13.2Z"></path>
        <path class="cls-13" d="M60.36,69H58.05c-.1.74-.21,1.74-.31,3.19-.5,7,.58,22.84.66,24,.05.76.25,3.83.37,5.77h0a7.64,7.64,0,0,0,.57-2.42,1.07,1.07,0,0,0,0-.25c.5-7.74,1.18-18.09,1.3-21.18.2-5,.12-6.44-.32-9A.3.3,0,0,0,60.36,69Z"></path>
        <path class="cls-12" d="M59.06,101.42a13.79,13.79,0,0,1,.19,2,14.28,14.28,0,0,1-.1,2c-.07.65-.14,1.29-.17,1.94a5.81,5.81,0,0,0,.12,1.91.05.05,0,0,1-.1,0,6.23,6.23,0,0,1-.23-2c0-.65,0-1.3.06-2a12.44,12.44,0,0,0,0-1.93,11.23,11.23,0,0,0-.28-1.87v0a.27.27,0,0,1,.2-.33.27.27,0,0,1,.33.2Z"></path>
        <path class="cls-14" d="M58.21,69H56.6a10.11,10.11,0,0,0-.37,1.91c-.68,7.19,1.17,24.59,1.48,27,.35,2.61.55,3.84,1.06,4.06.06,0,.12-.07.11-.19-.09-1.4-.82-8.56-1-21.18A106.14,106.14,0,0,1,58.21,69Z"></path>
        <path class="cls-15" d="M57.26,70a3.31,3.31,0,0,0,1.72.27,5.31,5.31,0,0,0,1.68-.57.07.07,0,0,1,.1,0,.07.07,0,0,1,0,.09,3.41,3.41,0,0,1-.8.54,3.3,3.3,0,0,1-.93.26,2.52,2.52,0,0,1-1.84-.5.06.06,0,0,1,0-.1.08.08,0,0,1,.09,0Z"></path>
        <path class="cls-12" d="M59.38,72.23a4.38,4.38,0,0,0,.72-.15,3.19,3.19,0,0,0,.33-.11l.31-.18h0a.07.07,0,0,1,.11,0,.1.1,0,0,1,0,.09.89.89,0,0,1-.3.31,1.46,1.46,0,0,1-.38.18,1.9,1.9,0,0,1-.82,0,.11.11,0,0,1-.07-.12.09.09,0,0,1,.07-.06Z"></path>
        <path class="cls-15" d="M56.42,74a2.44,2.44,0,0,0,.74.2c.27.06.54,0,.83.06a.08.08,0,0,1,.08.09.09.09,0,0,1,0,.07,2.28,2.28,0,0,1-.9.11,1,1,0,0,1-.82-.45.08.08,0,0,1,0-.1.09.09,0,0,1,.07,0Z"></path>
        <path class="cls-12" d="M58.91,77.29a3.38,3.38,0,0,0,1,.07,1.4,1.4,0,0,0,.83-.39h0a.09.09,0,0,1,.12,0,.1.1,0,0,1,0,.09,1.06,1.06,0,0,1-.36.48,1.26,1.26,0,0,1-.58.2,1.75,1.75,0,0,1-1.1-.28.09.09,0,0,1,0-.13.09.09,0,0,1,.09,0Z"></path>
        <path class="cls-12" d="M59.71,80.27a1,1,0,0,0,.62.09c.23,0,.46-.08.72-.1a.06.06,0,0,1,.08.06.14.14,0,0,1,0,.07,1.26,1.26,0,0,1-.75.31.84.84,0,0,1-.78-.33.07.07,0,0,1,0-.11.09.09,0,0,1,.07,0Z"></path>
        <path class="cls-15" d="M57.37,84a1.32,1.32,0,0,0,.6.14,1.22,1.22,0,0,0,.6-.14.08.08,0,0,1,.11,0,.11.11,0,0,1,0,.08,1,1,0,0,1-.7.34.93.93,0,0,1-.71-.34.08.08,0,0,1,0-.12.09.09,0,0,1,.07,0Z"></path>
        <path class="cls-12" d="M58.68,87.89a1.72,1.72,0,0,0,.88.2,3.47,3.47,0,0,0,.91-.2.09.09,0,0,1,.11,0,.08.08,0,0,1,0,.08,1.55,1.55,0,0,1-.44.32,1.47,1.47,0,0,1-.55.12,1.31,1.31,0,0,1-1-.43.09.09,0,0,1,0-.13.1.1,0,0,1,.1,0Z"></path>
        <path class="cls-15" d="M58,92a.56.56,0,0,0,.36.19,1.77,1.77,0,0,0,.48,0,.08.08,0,0,1,0,.15.94.94,0,0,1-.58.09c-.2-.06-.43-.2-.45-.44a.09.09,0,0,1,.07-.09A.07.07,0,0,1,58,92Z"></path>
        <path class="cls-12" d="M59.16,95.18A4.81,4.81,0,0,0,60,95a0,0,0,0,1,0,0s0,0,0,0a.88.88,0,0,1-.39.21.76.76,0,0,1-.47,0s0-.05,0-.08,0,0,0,0Z"></path>
        <path class="cls-15" d="M58.36,97.43a.77.77,0,0,0,.47.23.91.91,0,0,0,.52-.09s.06,0,.06,0a0,0,0,0,1,0,.05.78.78,0,0,1-.61.25.67.67,0,0,1-.52-.42s0,0,0-.06Z"></path>
        <path class="cls-15" d="M58.72,100.65a1.17,1.17,0,0,0,.3-.1s.08,0,.12-.07l.14-.09h0a.24.24,0,0,1-.06.19c0,.05-.09.12-.17.13a.46.46,0,0,1-.38,0,0,0,0,0,1,0,0Z"></path>
        <polygon class="cls-16" points="0 49.62 57.69 73.72 110.12 51.49 57.69 33 0 49.62"></polygon>
        <path class="cls-17" d="M69.91,3.39a1.3,1.3,0,0,1,.2-1,1.4,1.4,0,0,0,.16-1.28,2,2,0,0,0-.29.71A2.13,2.13,0,0,0,70,.43a1.64,1.64,0,0,1-.27.47,1.82,1.82,0,0,0-.18,1c0,.36-.32.31,0,.88a1.07,1.07,0,0,1,.09.19,1,1,0,0,1,0,.81l-.8,1.66a3.8,3.8,0,0,1,0-.88,10.41,10.41,0,0,1,.67-1,1.67,1.67,0,0,0,0-.56,1,1,0,0,0-.36.45c-.07.27-.06-.15,0-.27s.18-.65,0-.85a1,1,0,0,0-.25.52s-.23,0-.19.56,0,.68-.08.66a1.83,1.83,0,0,1-.12-.7c0-.1,0-.23.08-.42S69,2,68.59,1.7a3.25,3.25,0,0,0-.18.37,1,1,0,0,0-.23-.69,1.21,1.21,0,0,0-.17.55,1.51,1.51,0,0,0-.17-.34.64.64,0,0,0,0,.69c.25.34.13.52.13.52A7.88,7.88,0,0,0,67.68,2a1.17,1.17,0,0,0,0,.86c.17.48.48,1.28.49,1.35a10.93,10.93,0,0,1,.44,1.46c0,.14-.38.81-.38.81s0,.47.21.12.41-.73.41-.73,0,0,.45-.23A5.55,5.55,0,0,1,71,5a5.4,5.4,0,0,0,1.63-.24c.12-.13-1.2,0-1.27,0a.87.87,0,0,1,.43-.2,1,1,0,0,0,1-.36.8.8,0,0,0-.44,0s.67-.25.75-.45a3.89,3.89,0,0,0-.74,0,2.3,2.3,0,0,0-.57.36,1.88,1.88,0,0,1,.27-.3,2.19,2.19,0,0,0,.33-.41s-.41,0-.44.06a5.7,5.7,0,0,0-.51.41,5.48,5.48,0,0,1-.34.46,5.28,5.28,0,0,1-.92.64c-.2.06.08-.27.08-.27l.49-.37s.26-.18.28-.3.3-.54.28-.57-.57,0-1.05.75c0,0-.2.16,0-.13a1.7,1.7,0,0,0,.2-.53,1,1,0,0,0-.55.78c-.09.57-.4.74-.42.71s0-.31.19-.35.13-.24.13-.24-.63-.13-.78.91Z"></path>
        <path class="cls-17" d="M69.8,4.3a1.49,1.49,0,0,1,1-.87c.66-.12,1.72-1,1.56-1.31a1.32,1.32,0,0,0-.4.16c-.05.06.23-.49.22-.58s-.42.18-.45.24-.22-.26-.51.14a6.62,6.62,0,0,0-.5.94,6.1,6.1,0,0,1-.52.62A2.71,2.71,0,0,0,69.8,4.3Z"></path>
        <path class="cls-17" d="M70.05,3.35s0,.32.23,0l.53-.84s1,.17,1.46-1.3c0,0,0-.07-.2.09,0,0,.27-.4.19-.56a2.35,2.35,0,0,0-1.12,1.1s-.17,0,.42-.67A1.27,1.27,0,0,0,71.8.27s-.72.14-1,1.49c0,0,0,.08-.08-.05a2.1,2.1,0,0,1,.12-.59V0s-.22.23-.21.28V.23s-.47.56-.23,1A3.42,3.42,0,0,1,70.05,3.35Z"></path>
        <path class="cls-17" d="M68.53,6.51a53.4,53.4,0,0,0-3.94,9.4,41.57,41.57,0,0,0-1.89,10c-.21,3.4-.24,6.81-.24,10.22v5.11l0,2.57a13.69,13.69,0,0,1-.22,2.64.3.3,0,0,1-.37.23.31.31,0,0,1-.23-.36h0l0-.08a15.43,15.43,0,0,0,.21-2.45l0-2.55,0-5.12c0-3.41.08-6.83.33-10.24a41.22,41.22,0,0,1,2-10.08,53.35,53.35,0,0,1,4-9.43.14.14,0,1,1,.24.13Z"></path>
        <path class="cls-18" d="M74.53,27.72a23.34,23.34,0,0,0-2.24-4.36A10.32,10.32,0,0,0,69,19.86a2.25,2.25,0,0,0-2.23-.06,4.54,4.54,0,0,0-1.56,1.77,16.47,16.47,0,0,0-1.46,4.65A89.26,89.26,0,0,0,62.54,36q-.18,2.46-.3,4.92c-.08,1.65-.1,3.29-.25,4.93a.19.19,0,0,1-.21.18.19.19,0,0,1-.17-.19,47.86,47.86,0,0,1,.13-4.94c.1-1.65.21-3.3.35-4.94a90.39,90.39,0,0,1,1.3-9.82,16.54,16.54,0,0,1,1.54-4.72,4.69,4.69,0,0,1,1.69-1.85,2.48,2.48,0,0,1,2.46.07,10.58,10.58,0,0,1,3.37,3.61,23.79,23.79,0,0,1,2.21,4.43.07.07,0,0,1,0,.09.07.07,0,0,1-.08,0Z"></path>
        <path class="cls-17" d="M55.94,6.71a6.82,6.82,0,0,0-.44,2.47c0,.83,0,1.67.06,2.51.1,1.67.28,3.33.51,5,.45,3.32,1,6.62,1.65,9.92s1.32,6.57,2.09,9.84L61,41.32c.2.82.4,1.63.58,2.46.09.42.18.84.23,1.27a3.66,3.66,0,0,1,0,.67l0,.36c0,.14-.09.27-.14.4a.3.3,0,0,1-.57-.14v-.13a9.59,9.59,0,0,0-.29-2.27c-.16-.81-.35-1.63-.54-2.45l-1.13-4.91q-1.1-4.92-2-9.88c-.58-3.31-1.09-6.64-1.47-10-.19-1.67-.34-3.34-.41-5,0-.84,0-1.69,0-2.53a6.69,6.69,0,0,1,.49-2.45l0,0a.05.05,0,0,1,.07,0A.06.06,0,0,1,55.94,6.71Z"></path>
        <path class="cls-17" d="M64,9.17s-.32.26-.43.2-1-1-1.53-.72a4.19,4.19,0,0,0,.84.54c.31.1-.27.08-.39-.16s-.81-.33-.86-.27.07.19.54.38c0,0,.11.09,0,.06s-.39-.38-.69-.19c0,0,.32.16.31.2s-.13,0-.14,0-.24,0-.31.08a1.13,1.13,0,0,0,.21.17.58.58,0,0,0,.26,0s-.19.17-.22.18,0,.08.25,0a2.91,2.91,0,0,0,.55-.18c.07,0,.16,0,.12,0s-.41.2-.49.38a1.17,1.17,0,0,0,.58-.11,2.47,2.47,0,0,1,.52-.29.34.34,0,0,1,.26,0s-.06.13-.12.19a.94.94,0,0,1-.66.46,3.3,3.3,0,0,1-.47-.11,3.25,3.25,0,0,0-.83-.19c-.11,0,.23.3.43.29s-.05.1-.12.07a1,1,0,0,0-.71-.13,1.11,1.11,0,0,0,.25.14s-.37,0-.38.17a1,1,0,0,0,.24.1,1.77,1.77,0,0,0,.44,0c.11,0,.18,0,0,.07l-.29.16a.45.45,0,0,0,.43,0,2.24,2.24,0,0,1,.81-.21s-.08.2-.31.25-1-.07-1.24.19c0,0,0,.05.14,0s.27,0,.19,0-.38.18-.38.36.74-.12.82-.16.28,0,.2,0-.87.12-1,.62c0,0-.09.13.16,0s.39-.22.35-.16-.4.34-.27.43a.27.27,0,0,0,.37-.07c0-.09.19-.32.2-.25s-.16.28-.21.39-.12.28.1.15.31-.21.33-.31.15-.68.34-.78-.21.69-.21.73-.19.46-.15.54.45-.15.44-.29.09-.44.13-.38,0,.39.12.44.1-.4.06-.75a1.11,1.11,0,0,1,.08-.8.87.87,0,0,1,.33-.32,1.28,1.28,0,0,1-.08.56c-.12.24-.73,1.44-.2,1a2.9,2.9,0,0,0,.19-.41c.06-.18.11.05.06.13s-.27.42-.24.55,0,.14.13,0,.1,0,.07,0-.1.28,0,.4.25-.17.25-.24,0-.41.08-.31,0,.28.09.44a.5.5,0,0,0,.13-.42c-.06-.23-.16-.56-.19-.63s0-.24.08-.13,0,.42.44.79a.94.94,0,0,0,0-.68c-.16-.35-.46-.65-.53-.88a.68.68,0,0,1,.13-.78c.28-.33.4-.27.4-.27s.27.11.22.32a3.08,3.08,0,0,0-.14.7A3.46,3.46,0,0,0,64,11s.25-.36.23-.47,0-.37.06-.33,0,.44,0,.48a.71.71,0,0,0,.13.74.52.52,0,0,0,.13-.37c0-.19.06-.16.07-.13a1.39,1.39,0,0,1,0,.38.5.5,0,0,0,.09.37s.09-.17.07-.23.07-.09.08,0a.32.32,0,0,0,.21.28s.11-.3,0-.42-.06-.22,0-.14.16.32.25.36,0-.52-.18-.62a.74.74,0,0,1-.37-.37c0-.07.2,0,.27.25a1.37,1.37,0,0,0,.43.51s.06-.62-.2-.75a3.5,3.5,0,0,1-.84-.66c0-.11.19,0,.22.06s1.29.8,1,.47a2.11,2.11,0,0,0-1-.82c-.57-.14-.68-.19-.67-.25s.24-.17.24-.17S64.05,9.13,64,9.17Z"></path>
        <path class="cls-17" d="M63.2,8.7a2.86,2.86,0,0,0-.1-.52,1.74,1.74,0,0,0-.47-.36c-.08,0-.5-.24-.49-.41a.5.5,0,0,1,.44.11s.16.07,0-.11-.29-.38-.12-.61c0,0,.3.13.33.23s.16-.19.21-.13,0,.58.09.68,0,.12.06.1,0-.17,0-.18a4.87,4.87,0,0,1-.54-.71,1.54,1.54,0,0,1,0-.56,1.15,1.15,0,0,1,.51.76s.12.12,0-.1-.38-.45-.28-.68.17-.28.19-.19,0,.36.08.39,0-.1,0-.18-.11-.28,0-.37,0,.15.07.17,0-.25.15-.22.27.14.11.4.14.08.1,0,.08-.24.16-.17.14.33-.19.57c0,0-.12.07-.13.12s0,.18.11,0,0-.35.48-.44c0,0,.11,0,0,.22a3,3,0,0,1-.55.67c-.18.16-.16.35-.1.28s.2-.17.23-.3.28-1,.45-.54v.1s.16-.16.3-.13.15.17-.24.52c0,0,.33-.16.38-.07s-.29.29-.39.35l-.09.06s.16.06,0,.11-.29,0-.48.11-.25.41-.21.44.21-.21.21-.21l.22-.53s.18,0,.21.13.13.09.14.07,0-.27,0-.31.3-.13.33,0,.61,0,0,.32c0,0-.15.13,0,.1s.23-.25.42-.19c0,0,.07.26-.45.37s-.3.15-.2.12.52-.11.51,0,0,.13-.8.31c0,0-.39,0-.5.16a.4.4,0,0,0-.09.34S63.23,8.84,63.2,8.7Z"></path>
        <path class="cls-17" d="M61.77,8.38s-.26-.59-.16-.81a4.67,4.67,0,0,0,.49-1.2c0-.39-.14.1-.14.1s-.09.3-.16.3,0-.42,0-.49a2.6,2.6,0,0,0-.17-.39,3,3,0,0,0-.15.43c0,.07-.15-.18-.15-.18s-.07-.17,0,.17.19.86,0,1-.08-.39-.08-.39.21-.92-.17-1.19a.75.75,0,0,0-.15.81s0,.16-.05.06-.08-1-.47-.83a1,1,0,0,1,.07.33c0,.12-.08-.06-.08-.06s-.23-.39-.55-.17c0,0,.09.22.19.26s-.21,0-.21,0a.44.44,0,0,0,0,.22l0,.06s-.11,0-.12,0a.55.55,0,0,0,.47.52c.47.11.58.19.59.24s-.08,0-.18,0-.43-.36-.78-.18a.35.35,0,0,0,.36.32s-.2,0-.22.07.06.21.5.17,1,.76,1,.83S61.63,8.41,61.77,8.38Z"></path>
        <path class="cls-17" d="M61.35,8.35s0,1.16-.09,1.28-.07-.16-.1-.14-.13.39-.17.44-.19-.44-.09-.57-.14,0-.14,0,.37-.83.23-.84-.25.07-.34.27a1.24,1.24,0,0,1-.37.48c-.09,0-.47.6-.71.57,0,0-.13-.22.26-.65,0,0,0-.25-.11,0s-.25.58-.44.63-.53.19-.36-.05.45-.45.37-.46-.25.17-.25.17-.34.31-.54.24a.19.19,0,0,1,.13-.19c.14-.06-.16,0-.21.05s-.29,0-.08-.2.34-.12.37-.2-.28-.06-.37-.05-.14-.09,0-.17a5.87,5.87,0,0,1,1.57-.51c.5,0,1.29-.25,1.34-.24S61.4,8.2,61.35,8.35Z"></path>
        <path class="cls-17" d="M60.06,8a.46.46,0,0,1-.41-.13.79.79,0,0,1-.24-.6s0-.58-.28-.7c0,0-.17.13,0,.55A.43.43,0,0,1,59,6.87c0-.16-.42-.3-.48-.28s0,.24.1.34.1.12,0,.13,0,.2.08.26.4.34.33.43-.31-.16-.32-.29-.13-.54-.28-.59l-.11.18s0-.25-.25-.23c0,0-.12.3.35.79,0,0,.09.16-.13,0s-.31-.32-.39-.3,0,.17,0,.17-.25,0-.32.07.24.2.25.22a.92.92,0,0,1-.28.09s0,.26.67.08c0,0,.38-.05,0,.08s-.63,0-.64.09.27.23.39.19,0,.07,0,.1-.12.22,0,.16.54-.29.69-.33a1.81,1.81,0,0,1,.59-.1c.09,0,0,.15-.17.17s-.7,0-.75,0a.13.13,0,0,0,0,.21c.09.08-.39-.06-.24.16,0,0-.34.09-.31.21s.17.14.59,0c0,0-.28.12-.26.19a2.8,2.8,0,0,0,1.14-.19c.19-.1.39-.49.47-.52a1.32,1.32,0,0,1,.4-.11C60.2,8.25,60.33,7.93,60.06,8Z"></path>
        <path class="cls-17" d="M60.1,8.08a7.06,7.06,0,0,0-.51-.67A2,2,0,0,1,59.1,7c-.06-.12-.05-.36,0-.39s.42.4.44.46.24,0,0-.17-.37-.28-.32-.44c0,0,.16,0,.2.1s-.2-.34,0-.44.33,0,.38.39c0,0-.09-.39,0-.38s.24.06.26.21c0,0,.23-.13.28-.05s-.16.86-.06,1.17a1.56,1.56,0,0,0,.36.69C60.71,8.18,60.1,8.08,60.1,8.08Z"></path>
        <path class="cls-17" d="M59.69,8.07a6.6,6.6,0,0,1,1.78.14,15.69,15.69,0,0,1,1.69.5,11.69,11.69,0,0,1,3.2,1.5.13.13,0,0,1,0,.18.12.12,0,0,1-.17,0h0a11.09,11.09,0,0,0-3.09-1.56c-.55-.19-1.11-.36-1.68-.5a4.11,4.11,0,0,0-1.71,0h0a.14.14,0,0,1-.15-.09.13.13,0,0,1,.09-.15Z"></path>
        <path class="cls-17" d="M75.66,17.66a3.8,3.8,0,0,0-1.71,0,16.16,16.16,0,0,0-1.68.49,10.85,10.85,0,0,0-3.09,1.57h0a.12.12,0,0,1-.17,0,.11.11,0,0,1,0-.17h0a11.51,11.51,0,0,1,3.19-1.51c.56-.19,1.12-.36,1.7-.5a6.6,6.6,0,0,1,1.78-.14.14.14,0,0,1,.12.13.13.13,0,0,1-.13.12Z"></path>
        <path class="cls-17" d="M55.38,9.05s.38-.17.37-.29-.44-1.31.08-1.69a4.16,4.16,0,0,1,.08,1c0,.32.2-.2,0-.43s.09-.86.17-.88.13.15.08.65c0,0,0,.15.06,0s-.16-.52.15-.7c0,0,0,.36,0,.37s0-.11,0-.13.07-.23.22-.24a1.9,1.9,0,0,1,.05.27.54.54,0,0,1-.12.24s.25-.09.27-.11,0,.06-.07.24a3.36,3.36,0,0,1-.42.4c0,.06-.1.13-.06.1s.37-.26.56-.25a1.06,1.06,0,0,1-.37.46,2.71,2.71,0,0,0-.49.32.31.31,0,0,0-.08.26.36.36,0,0,0,.22,0,.91.91,0,0,0,.72-.38,3,3,0,0,0,.12-.46A2.65,2.65,0,0,1,57.27,7c.08-.09.15.34,0,.51s.11,0,.12-.07a1,1,0,0,1,.22-.69,2.27,2.27,0,0,1,0,.28s.2-.3.31-.25A.8.8,0,0,1,58,7a2.36,2.36,0,0,1-.23.37c-.08.09-.09.16,0,.07s.28-.19.28-.19a.44.44,0,0,1-.21.37c-.22.18-.58.57-.56.63s.22,0,.36-.16.38-.88.75-1c0,0,0,0,0,.13s-.16.23-.08.18.34-.25.49-.17-.44.6-.52.65-.17.23-.1.17.51-.71,1-.59c0,0,.16,0-.1.13s-.38.25-.31.24.5-.19.51,0a.28.28,0,0,1-.23.3c-.1,0-.37,0-.32.06s.33,0,.44,0,.31,0,.09.16-.33.18-.42.14-.67-.17-.85,0,.7.13.74.15.49,0,.55.12-.34.32-.47.25-.42-.12-.39-.06.34.19.33.31-.4-.1-.68-.3a1.15,1.15,0,0,0-.75-.29.83.83,0,0,0-.44.14,1.08,1.08,0,0,0,.53.18c.27,0,1.62,0,1,.31a2.8,2.8,0,0,1-.45,0c-.19,0,0,.11.08.1s.51,0,.61.05.09.11-.05.12-.08.07,0,.08.29,0,.36.17-.27.15-.33.11-.37-.18-.31-.07.26.09.35.28A.5.5,0,0,1,58.2,10c-.17-.15-.42-.4-.47-.46s-.18-.15-.15,0,.36.22.5.75a.94.94,0,0,1-.59-.34c-.23-.31-.37-.71-.54-.88a.69.69,0,0,0-.75-.25c-.42.1-.42.23-.42.23s0,.29.17.35a2.59,2.59,0,0,1,.69.2,2.4,2.4,0,0,1,.39.36,1,1,0,0,1-.53,0c-.09-.07-.32-.19-.31-.1s.4.17.44.18a.7.7,0,0,1,.6.45.51.51,0,0,1-.39,0c-.16-.11-.17,0-.15,0a1.12,1.12,0,0,0,.35.16.55.55,0,0,1,.29.25s-.2,0-.25,0-.1,0,0,.07a.3.3,0,0,1,.15.31s-.32,0-.36-.21-.17-.16-.14,0,.21.29.2.39-.48-.21-.46-.45a.76.76,0,0,0-.16-.5c-.06,0-.06.19.1.36a1.42,1.42,0,0,1,.25.61s-.58-.23-.57-.52a3.62,3.62,0,0,0-.2-1c-.07-.1-.06.18-.05.22s.11,1.52,0,1.11a2.18,2.18,0,0,1-.25-1.29c.14-.57.15-.69.09-.71s-.26.14-.26.14S55.32,9.08,55.38,9.05Z"></path>
        <path class="cls-17" d="M55.91,6.89s0-.18.26-.36a.85.85,0,0,1,.65,0s.54.21.74,0c0,0-.06-.21-.51-.19a.44.44,0,0,1,.29-.06c.16,0,.43-.3.43-.36s-.23-.08-.36,0-.15.06-.13,0-.19-.07-.27,0-.45.27-.51.17.24-.24.37-.21.55.06.65-.07l-.14-.16a.26.26,0,0,0,.31-.16s-.25-.22-.87.07c0,0-.18,0,0-.12s.41-.2.42-.28-.18,0-.18,0,.1-.23,0-.32-.27.15-.29.16a.94.94,0,0,1,0-.29s-.23-.11-.28.61c0,0-.08.37-.1,0s.22-.6.13-.64-.31.18-.31.31-.06,0-.08-.07-.16-.19-.15,0,.09.6.09.76a2.18,2.18,0,0,1-.1.59c-.06.07-.13-.09-.11-.22a6.89,6.89,0,0,1,.26-.71A.13.13,0,0,0,56,5.08c-.1.06.18-.35-.07-.27,0,0,0-.36-.1-.37s-.19.12-.21.56c0,0,0-.31-.09-.31a3,3,0,0,0-.19,1.13c0,.22.34.53.35.62a1.51,1.51,0,0,1,0,.42C55.64,6.94,55.9,7.17,55.91,6.89Z"></path>
        <path class="cls-18" d="M60.39,9.82a3.66,3.66,0,0,1,.42-.54,1.9,1.9,0,0,0,.39-.35c0-.1,0-.3,0-.33s-.34.33-.35.38-.2,0,0-.14.3-.23.26-.35a.35.35,0,0,0-.17.07s.17-.27,0-.35-.27,0-.31.31c0,0,.07-.31,0-.31s-.2,0-.21.18-.19-.12-.23-.05a6.23,6.23,0,0,1,0,1,1.22,1.22,0,0,1-.29.56C59.89,9.9,60.39,9.82,60.39,9.82Z"></path>
        <path class="cls-18" d="M57.21,10.71s.27.21.36.16.77-.82,1.24-.59a3,3,0,0,1-.68.44c-.26.09.22.07.32-.13s.65-.26.7-.21-.06.15-.44.3c0,0-.1.08,0,.05s.31-.31.56-.15c0,0-.26.13-.26.16s.11,0,.12,0,.19,0,.26.07l-.18.14a.49.49,0,0,1-.21,0s.15.15.18.16,0,.05-.21,0a1.66,1.66,0,0,1-.44-.15c-.06,0-.14,0-.1,0s.33.16.4.31a.93.93,0,0,1-.47-.1,3.31,3.31,0,0,0-.43-.23.27.27,0,0,0-.21,0s.05.11.09.15a.76.76,0,0,0,.55.38,2.53,2.53,0,0,0,.38-.09,2.64,2.64,0,0,1,.67-.15c.1,0-.18.24-.35.23s0,.08.11.06a.81.81,0,0,1,.57-.1.89.89,0,0,1-.2.11s.3,0,.31.13a.77.77,0,0,1-.2.09,1.21,1.21,0,0,1-.36,0c-.08,0-.14,0,0,.06l.24.13a.37.37,0,0,1-.35,0,2.18,2.18,0,0,0-.67-.17s.07.17.25.21.79-.06,1,.15c0,0,0,0-.11,0s-.23,0-.16,0,.31.14.31.29-.6-.1-.67-.14-.23,0-.16,0,.71.1.8.51c0,0,.08.1-.13,0s-.32-.18-.28-.13.32.28.21.35a.21.21,0,0,1-.3-.06c0-.07-.15-.26-.16-.2s.13.23.17.32.1.23-.08.12S59,13.05,59,13s-.13-.55-.28-.63.16.55.17.59.15.37.12.44-.37-.12-.36-.24-.07-.36-.11-.31,0,.32-.09.36-.08-.33,0-.61a.87.87,0,0,0-.07-.65.65.65,0,0,0-.27-.26,1.06,1.06,0,0,0,.07.45c.1.2.59,1.18.16.84a2.28,2.28,0,0,1-.16-.34c0-.14-.08,0,0,.1s.22.35.19.46,0,.11-.1,0-.08,0-.06,0,.09.23,0,.33-.21-.14-.2-.2,0-.34-.07-.25,0,.22-.07.36a.42.42,0,0,1-.11-.35c0-.18.13-.46.15-.51s0-.2-.06-.11,0,.35-.36.64a.72.72,0,0,1,0-.55c.13-.28.37-.53.43-.72a.56.56,0,0,0-.11-.64c-.23-.26-.32-.21-.32-.21s-.22.09-.19.25a2.5,2.5,0,0,1,.12.58c0,.11-.09.39-.11.42s-.21-.3-.19-.39,0-.3-.05-.27,0,.36,0,.39a.57.57,0,0,1-.1.61.4.4,0,0,1-.11-.3c0-.16,0-.14,0-.11a.79.79,0,0,0,0,.31.39.39,0,0,1-.07.3s-.08-.14-.06-.19-.06-.07-.07,0a.24.24,0,0,1-.17.22s-.09-.24,0-.34.05-.18,0-.11-.14.26-.21.29,0-.43.15-.51a.56.56,0,0,0,.3-.3c0-.05-.16,0-.22.21a1.17,1.17,0,0,1-.35.41s0-.51.16-.61a2.76,2.76,0,0,0,.68-.54c0-.09-.15,0-.18,0s-1.05.65-.81.39a1.68,1.68,0,0,1,.83-.68c.47-.11.56-.15.55-.2s-.2-.13-.2-.13S57.17,10.68,57.21,10.71Z"></path>
        <path class="cls-18" d="M57.59,10.46a2.45,2.45,0,0,1,.08-.42,1.57,1.57,0,0,1,.39-.3c.06,0,.4-.19.39-.33a.38.38,0,0,0-.35.09s-.13.06,0-.09.24-.3.1-.49c0,0-.25.1-.27.18S57.81,9,57.77,9s0,.48-.08.56,0,.1,0,.08,0-.13,0-.15a3.82,3.82,0,0,0,.44-.57,1.33,1.33,0,0,0,0-.46.91.91,0,0,0-.42.62s-.1.09,0-.08.31-.37.23-.55-.14-.24-.15-.17,0,.3-.06.32,0-.08,0-.14.1-.23,0-.3,0,.12-.06.13,0-.2-.12-.18-.22.12-.09.34-.11.06-.08,0-.06-.2-.13-.14-.12.27.16.46c0,0,.09.06.1.1s0,.15-.09,0,0-.29-.39-.36c0,0-.09,0,0,.18a2.21,2.21,0,0,0,.45.55c.14.13.13.28.07.22s-.16-.13-.18-.24-.23-.8-.36-.44a.38.38,0,0,0,0,.08s-.13-.13-.24-.11-.12.15.2.43c0,0-.28-.13-.32-.06s.24.24.32.29l.07,0s-.12.06,0,.09.24,0,.4.1.2.33.17.35-.17-.17-.17-.17l-.18-.43s-.15,0-.17.11-.11.07-.12,0,0-.22,0-.25-.25-.1-.27,0-.51,0,0,.26c0,0,.13.11,0,.08s-.19-.2-.34-.15-.06.21.37.3.25.12.16.09-.43-.08-.42,0,0,.11.65.26c0,0,.33,0,.41.13a.32.32,0,0,1,.08.28S57.57,10.57,57.59,10.46Z"></path>
        <path class="cls-18" d="M59,10.06s.21-.47.13-.66a3.67,3.67,0,0,1-.41-1c0-.32.12.08.12.08s.07.24.13.24,0-.34,0-.4A2.69,2.69,0,0,1,59.15,8a2.79,2.79,0,0,1,.12.35c0,.06.12-.14.12-.14s.06-.14,0,.14-.15.7,0,.81.07-.32.07-.32-.17-.74.13-1a.61.61,0,0,1,.13.66s0,.14,0,.06.07-.82.38-.69a.63.63,0,0,0,0,.27c0,.11.06,0,.06,0s.19-.33.45-.14c0,0-.08.18-.15.21s.17,0,.17,0a.4.4,0,0,1,0,.17l0,.05s.09,0,.1,0a.45.45,0,0,1-.38.42c-.39.09-.48.16-.49.2s.07,0,.15,0,.35-.3.63-.15a.28.28,0,0,1-.29.26s.16,0,.18.06,0,.17-.41.13-.78.62-.8.68A.17.17,0,0,1,59,10.06Z"></path>
        <path class="cls-18" d="M59.37,10s0,.94.08,1.05,0-.14.07-.12.11.32.14.36.15-.36.07-.46.12,0,.12,0-.3-.68-.19-.69.21.06.28.23a1,1,0,0,0,.3.38c.07,0,.39.49.58.47,0,0,.11-.18-.21-.53,0,0,0-.2.09,0s.2.47.36.52.43.15.29-.05S61,10.82,61,10.8s.21.14.21.14.28.25.45.2a.16.16,0,0,0-.11-.15c-.12-.05.13,0,.17,0s.24,0,.06-.16-.27-.1-.3-.17.23,0,.3,0,.12-.07,0-.14a5.39,5.39,0,0,0-1.29-.42c-.4,0-1-.2-1.09-.19S59.33,9.92,59.37,10Z"></path>
        <path class="cls-18" d="M60.52,9.69a.38.38,0,0,0,.34-.11.71.71,0,0,0,.2-.49s0-.47.22-.57c0,0,.15.11,0,.45a.32.32,0,0,0,.12-.21c0-.13.35-.25.39-.23s0,.2-.08.28-.08.1,0,.1,0,.17-.06.22-.33.27-.27.34.25-.12.26-.23.1-.44.22-.48l.09.15s0-.21.21-.2c0,0,.1.25-.29.65,0,0-.07.14.11,0s.26-.26.32-.24,0,.14,0,.14.21,0,.26.05-.19.17-.2.18.2.08.23.08,0,.21-.55.06c0,0-.31,0,0,.07s.51,0,.52.07-.22.19-.32.15,0,.06,0,.08.1.18,0,.13-.44-.23-.57-.26a1.33,1.33,0,0,0-.48-.08c-.07,0,0,.12.14.14s.58,0,.62,0a.1.1,0,0,1,0,.17c-.08.06.31-.05.19.13,0,0,.28.07.25.17s-.14.12-.48,0c0,0,.23.09.21.16a2.53,2.53,0,0,1-.92-.16c-.16-.08-.32-.4-.39-.43a1.59,1.59,0,0,0-.33-.09C60.41,9.88,60.31,9.62,60.52,9.69Z"></path>
        <path class="cls-18" d="M60.72,9.81H60a5.67,5.67,0,0,0-.72.1c-.47.12-.93.26-1.38.41s-.9.32-1.34.52a7.21,7.21,0,0,0-1.27.71.1.1,0,0,0,.12.16h0a3.93,3.93,0,0,1,.57-.41,6.25,6.25,0,0,1,.63-.33,10.15,10.15,0,0,1,1.32-.54c.44-.16.9-.29,1.36-.41a4.19,4.19,0,0,1,.7-.09,2.69,2.69,0,0,1,.7.07h0a.1.1,0,0,0,.13-.07.1.1,0,0,0-.07-.12Z"></path>
        <g id="_4" data-name="4">
          <path class="cls-17" d="M53.46,14.05s-.33.26-.44.2-1-1-1.53-.73a3.77,3.77,0,0,0,.84.54c.31.11-.27.08-.39-.16s-.81-.32-.87-.26.07.19.55.37c0,0,.11.1,0,.07s-.39-.38-.7-.19c0,0,.33.16.32.2s-.13,0-.15,0-.23-.05-.31.08a1.63,1.63,0,0,0,.21.17.63.63,0,0,0,.27,0s-.19.17-.22.18,0,.07.25.05a2.24,2.24,0,0,0,.55-.19c.07,0,.16,0,.12,0s-.41.2-.49.38a1.17,1.17,0,0,0,.58-.11,2.75,2.75,0,0,1,.52-.29.34.34,0,0,1,.26.05s-.06.13-.11.19a1,1,0,0,1-.67.46,3.3,3.3,0,0,1-.47-.11,3.25,3.25,0,0,0-.83-.19c-.12,0,.23.3.43.29s-.06.1-.13.07a1,1,0,0,0-.71-.13,1.39,1.39,0,0,0,.25.14s-.36,0-.37.17a1.25,1.25,0,0,0,.23.11,2.55,2.55,0,0,0,.44,0c.11,0,.19,0,0,.07l-.3.16a.46.46,0,0,0,.43,0,2.28,2.28,0,0,1,.82-.21s-.08.2-.31.25-1-.07-1.25.19c0,0,0,0,.14,0s.28,0,.2,0-.39.18-.39.35.74-.11.83-.16.28,0,.19,0-.87.12-1,.63c0,0-.09.13.16,0s.4-.23.36-.17-.4.35-.27.44a.28.28,0,0,0,.37-.07c0-.09.19-.32.2-.25s-.16.28-.21.39-.12.28.1.15.31-.22.32-.31.16-.68.35-.78-.21.69-.21.73-.19.45-.15.54.45-.15.44-.3.09-.43.13-.38,0,.4.12.45.1-.41.06-.75a1.1,1.1,0,0,1,.08-.8.85.85,0,0,1,.33-.33,1.28,1.28,0,0,1-.08.56c-.12.24-.73,1.45-.2,1a2,2,0,0,0,.19-.41c.06-.18.11.05.06.12s-.27.43-.24.56,0,.14.13,0,.1,0,.07,0-.1.28,0,.4.26-.17.25-.24,0-.42.08-.31,0,.27.09.44a.51.51,0,0,0,.13-.43c-.06-.22-.16-.55-.18-.63s-.06-.23.08-.12,0,.42.43.79a.89.89,0,0,0,0-.68c-.16-.35-.46-.66-.53-.89a.68.68,0,0,1,.13-.78c.28-.33.4-.27.4-.27s.27.11.23.31a2.39,2.39,0,0,0-.14.71,2.67,2.67,0,0,0,.14.52.9.9,0,0,0,.23-.48c0-.11,0-.37.06-.33s0,.45,0,.48a.72.72,0,0,0,.12.75A.55.55,0,0,0,54,16c0-.18.05-.16.06-.13a1,1,0,0,1,0,.39.47.47,0,0,0,.09.37s.09-.18.07-.24.07-.08.08,0a.31.31,0,0,0,.21.27s.11-.3,0-.42-.06-.22,0-.13.16.32.25.35,0-.52-.18-.62a.7.7,0,0,1-.37-.37c0-.07.2,0,.27.26a1.47,1.47,0,0,0,.43.51s.06-.63-.2-.76a3.5,3.5,0,0,1-.84-.66c-.06-.11.19,0,.22.06s1.29.8,1,.47a2.11,2.11,0,0,0-1-.82c-.57-.14-.69-.2-.68-.26s.25-.16.25-.16S53.51,14,53.46,14.05Z"></path>
          <path class="cls-17" d="M53,13.74a3,3,0,0,0-.1-.52,2,2,0,0,0-.47-.36c-.08,0-.5-.24-.49-.41a.5.5,0,0,1,.44.11s.16.07,0-.11-.29-.38-.12-.61c0,0,.3.13.33.23s.16-.19.22-.13,0,.59.09.68,0,.12.06.1,0-.17,0-.18a4.3,4.3,0,0,1-.53-.71,1.46,1.46,0,0,1,0-.57,1.16,1.16,0,0,1,.51.77s.12.11,0-.1-.38-.46-.28-.68.16-.29.18-.2,0,.36.08.39,0-.09,0-.17-.12-.28,0-.38.05.16.07.17.05-.24.14-.22.27.14.12.41.14.08.1,0,.07-.24.15-.17.15.32-.19.56c0,0-.11.08-.13.13s0,.18.12,0,0-.35.47-.45c0,0,.12,0,0,.22a2.68,2.68,0,0,1-.56.68c-.18.16-.15.35-.09.28s.2-.17.23-.3.28-1,.44-.54a.45.45,0,0,1,0,.1c0,.05.16-.17.29-.14s.16.18-.24.53c0,0,.34-.16.39-.07s-.3.29-.39.35l-.09.06s.15.06,0,.11-.29-.05-.48.11-.26.41-.22.44.21-.21.21-.21l.22-.53s.19,0,.21.14.14.08.15.06a1.05,1.05,0,0,1,0-.31s.31-.13.33,0,.63-.05,0,.32c0,0-.16.13,0,.1s.23-.25.42-.18c0,0,.07.25-.45.36s-.31.16-.2.12.52-.11.51,0,0,.13-.8.32c0,0-.39,0-.5.15a.4.4,0,0,0-.1.35C53.18,13.84,53,13.88,53,13.74Z"></path>
          <path class="cls-17" d="M51.22,13.25s-.25-.59-.16-.81a4.33,4.33,0,0,0,.5-1.2c0-.4-.15.1-.15.1s-.08.29-.16.29,0-.41,0-.49-.17-.39-.17-.39a3.33,3.33,0,0,0-.16.43c0,.07-.14-.17-.14-.17s-.08-.17,0,.17.19.86,0,1-.07-.38-.07-.38.2-.92-.17-1.19a.75.75,0,0,0-.16.8s0,.17,0,.07-.09-1-.48-.84a.76.76,0,0,1,.07.33c0,.13-.07-.05-.07-.05s-.24-.4-.56-.17c0,0,.09.22.19.26s-.21,0-.21,0a.41.41,0,0,0,0,.21l0,.06s-.11,0-.12,0a.55.55,0,0,0,.47.52c.47.11.58.19.59.24s-.07,0-.17,0-.44-.36-.79-.18a.35.35,0,0,0,.36.32s-.2,0-.22.07.06.21.51.17,1,.76,1,.83A.2.2,0,0,0,51.22,13.25Z"></path>
          <path class="cls-17" d="M50.8,13.22s.06,1.16-.09,1.29-.07-.17-.09-.14-.14.39-.18.44-.18-.44-.08-.57-.15,0-.15,0,.37-.84.23-.85-.25.07-.34.28a1.19,1.19,0,0,1-.37.47c-.09.05-.47.61-.71.58,0,0-.13-.22.26-.65,0,0,0-.25-.11,0s-.25.58-.44.63-.54.19-.37,0,.45-.45.38-.46-.26.16-.26.16-.33.31-.54.25a.18.18,0,0,1,.13-.19c.15-.06-.16,0-.21,0s-.29,0-.08-.2.34-.12.38-.2-.28-.06-.37,0-.15-.09,0-.17a5.69,5.69,0,0,1,1.58-.52c.51,0,1.29-.25,1.35-.24S50.85,13.07,50.8,13.22Z"></path>
          <path class="cls-17" d="M49.51,12.88a.48.48,0,0,1-.42-.13c-.24-.18-.23-.58-.24-.6s0-.58-.27-.7c0,0-.18.13,0,.54a.39.39,0,0,1-.15-.25c0-.16-.42-.31-.48-.29s0,.25.1.35.1.12,0,.13,0,.2.07.26.41.34.34.43-.31-.16-.33-.29-.12-.54-.27-.59l-.11.18s0-.25-.26-.24c0,0-.12.31.35.8,0,0,.09.16-.12,0s-.32-.32-.4-.3,0,.17,0,.17-.25,0-.32.07.24.21.25.22a.92.92,0,0,1-.28.09s0,.26.67.08c0,0,.38-.05.05.09s-.64,0-.65.08.27.24.4.19,0,.07-.05.1-.13.22,0,.16.54-.28.7-.33a2.13,2.13,0,0,1,.59-.1c.08,0-.05.15-.17.18s-.71,0-.76,0a.13.13,0,0,0-.05.21c.1.08-.39,0-.23.16,0,0-.35.1-.32.22s.17.14.6,0c0,0-.29.11-.27.19a2.93,2.93,0,0,0,1.14-.19c.2-.1.4-.5.48-.53a1.68,1.68,0,0,1,.4-.11C49.65,13.12,49.78,12.8,49.51,12.88Z"></path>
          <path class="cls-17" d="M49.55,13a7.06,7.06,0,0,0-.51-.67,1.87,1.87,0,0,1-.49-.43c-.06-.12,0-.36,0-.4s.42.41.44.47.24-.05,0-.17-.38-.28-.32-.44a.45.45,0,0,1,.2.09c0,.07-.2-.33-.05-.43s.33,0,.38.39c0,0-.09-.39,0-.39a.25.25,0,0,1,.26.22s.23-.14.28-.06-.16.87-.06,1.18a1.61,1.61,0,0,0,.36.7A3.07,3.07,0,0,1,49.55,13Z"></path>
          <path class="cls-17" d="M49.14,13a6.31,6.31,0,0,1,1.79.13c.57.14,1.14.31,1.69.5a12.08,12.08,0,0,1,3.21,1.51.13.13,0,0,1,0,.18.12.12,0,0,1-.17,0h0a10.56,10.56,0,0,0-3.1-1.58c-.55-.19-1.12-.35-1.68-.49a3.85,3.85,0,0,0-1.72,0h0A.12.12,0,0,1,49,13.1a.13.13,0,0,1,.09-.15Z"></path>
        </g>
        <g id="_5" data-name="5">
          <path class="cls-18" d="M71.4,18.51s.32.26.43.2,1-1,1.53-.72a4.19,4.19,0,0,1-.84.54c-.32.1.26.08.39-.16s.8-.32.86-.27-.07.19-.54.38c0,0-.12.09,0,.06s.39-.38.69-.19c0,0-.32.17-.31.2s.12,0,.14,0,.24,0,.31.08a1.63,1.63,0,0,1-.21.17.63.63,0,0,1-.27,0s.2.17.23.19,0,.07-.26,0a2.75,2.75,0,0,1-.54-.18c-.07,0-.16,0-.12,0s.41.21.49.38a1.17,1.17,0,0,1-.58-.11,3.52,3.52,0,0,0-.52-.29.39.39,0,0,0-.26.05s.06.14.11.19a1,1,0,0,0,.67.46,2.28,2.28,0,0,0,.47-.11,2.7,2.7,0,0,1,.83-.18c.11,0-.23.29-.43.28s0,.1.12.07a1,1,0,0,1,.71-.12,1.14,1.14,0,0,1-.25.13s.36,0,.38.17a1.42,1.42,0,0,1-.24.11,2.55,2.55,0,0,1-.44,0c-.11,0-.18,0,0,.07l.29.16a.46.46,0,0,1-.43,0,2.24,2.24,0,0,0-.81-.21s.08.2.31.25,1-.07,1.24.19c0,0,0,0-.14,0s-.27,0-.19,0,.38.18.38.36-.74-.11-.82-.16-.29-.05-.2,0,.87.12,1,.62c0,0,.09.13-.16,0s-.39-.22-.35-.16.4.35.26.43a.28.28,0,0,1-.37-.07c0-.09-.18-.32-.2-.25s.17.29.22.39.12.28-.11.16-.31-.22-.32-.32-.16-.67-.34-.77.2.68.21.72.19.46.15.54-.45-.15-.44-.29S73,21,73,21.1s0,.39-.12.44-.1-.4-.06-.75a1.13,1.13,0,0,0-.08-.79.85.85,0,0,0-.33-.33,1.13,1.13,0,0,0,.08.56c.12.24.72,1.44.19,1a2.28,2.28,0,0,1-.18-.41c-.06-.18-.11.05-.06.13s.27.42.24.55-.05.14-.13,0-.1,0-.07,0,.1.27,0,.39-.26-.17-.25-.24,0-.41-.08-.3,0,.27-.09.43a.5.5,0,0,1-.13-.42l.18-.63c0-.07.06-.23-.08-.12s0,.41-.43.78a.94.94,0,0,1,0-.68c.16-.35.46-.65.53-.88a.68.68,0,0,0-.13-.78c-.28-.33-.4-.27-.4-.27s-.27.12-.23.32a2.68,2.68,0,0,1,.15.7c0,.13-.11.48-.14.51s-.25-.36-.24-.47,0-.37-.06-.33,0,.45,0,.48a.7.7,0,0,1-.12.74.56.56,0,0,1-.14-.37c0-.18-.05-.16-.06-.13a1.39,1.39,0,0,0,0,.38.53.53,0,0,1-.09.38s-.1-.18-.07-.24-.07-.08-.09,0a.28.28,0,0,1-.2.27s-.11-.3,0-.42.06-.22,0-.14-.16.33-.25.36,0-.52.18-.62a.74.74,0,0,0,.37-.37c0-.07-.2,0-.27.26a1.32,1.32,0,0,1-.43.5s-.06-.62.2-.75a3.42,3.42,0,0,0,.83-.66c.06-.11-.18,0-.22.06s-1.28.8-1,.47a2.12,2.12,0,0,1,1-.82c.57-.14.68-.19.67-.25s-.25-.17-.25-.17S71.34,18.47,71.4,18.51Z"></path>
          <path class="cls-18" d="M71.86,18.21a2.86,2.86,0,0,1,.1-.52,1.74,1.74,0,0,1,.47-.36c.07,0,.5-.24.49-.4a.46.46,0,0,0-.44.11s-.16.06,0-.11.29-.38.12-.61c0,0-.3.12-.33.22s-.16-.19-.22-.13,0,.59-.09.68,0,.12-.06.1,0-.16,0-.18a3.76,3.76,0,0,0,.53-.7,1.46,1.46,0,0,0,0-.57,1.16,1.16,0,0,0-.51.77s-.12.11-.05-.11.38-.45.28-.67-.16-.29-.18-.2,0,.36-.08.39,0-.1,0-.17.12-.29,0-.38,0,.15-.07.17,0-.25-.14-.22-.27.14-.12.41-.13.08-.09,0-.08-.24-.16-.16-.15.32.19.56c0,0,.12.07.13.12s0,.18-.12,0,0-.36-.47-.45c0,0-.12,0,0,.22a3.07,3.07,0,0,0,.56.67c.18.16.16.35.09.28s-.2-.17-.22-.3-.29-1-.45-.54a.29.29,0,0,0,0,.1c0,.05-.16-.16-.3-.13s-.15.18.24.52c0,0-.34-.16-.38-.07s.29.29.38.35L71,17s-.15.06,0,.11.29,0,.48.11.26.41.22.44-.21-.21-.21-.21l-.22-.52s-.18,0-.21.13-.14.08-.14.06,0-.27,0-.3-.3-.14-.33,0-.62-.05,0,.31c0,0,.15.13,0,.1s-.22-.25-.41-.18c0,0-.07.25.45.36s.3.15.19.12-.52-.11-.51,0,0,.13.8.31c0,0,.4,0,.5.16s.13.29.1.34S71.83,18.35,71.86,18.21Z"></path>
          <path class="cls-18" d="M73.62,17.72s.26-.59.16-.81a5,5,0,0,1-.5-1.2c0-.39.15.1.15.1s.09.3.16.3,0-.41,0-.49a3.93,3.93,0,0,1,.18-.39,3,3,0,0,1,.15.43c0,.07.15-.18.15-.18s.07-.16,0,.17-.19.87,0,1,.08-.39.08-.39-.21-.91.16-1.19a.76.76,0,0,1,.16.81s0,.16,0,.07.09-1,.47-.84a.82.82,0,0,0-.06.33c0,.12.07-.06.07-.06s.24-.39.56-.16a.77.77,0,0,1-.19.26c-.09,0,.21,0,.21-.05a.44.44,0,0,1,0,.22l0,.06s.1,0,.12,0a.56.56,0,0,1-.47.52c-.47.11-.58.19-.59.24s.07,0,.17,0,.43-.35.79-.18a.35.35,0,0,1-.36.32s.19,0,.22.07-.06.22-.51.17-1,.76-1,.83A.21.21,0,0,1,73.62,17.72Z"></path>
          <path class="cls-18" d="M74,17.69S74,18.85,74.13,19s.07-.16.09-.14.14.39.18.45.18-.44.08-.58.15,0,.15,0-.37-.84-.23-.85.25.07.34.27a1.24,1.24,0,0,0,.37.48c.09,0,.47.6.71.57,0,0,.13-.22-.26-.65,0,0,0-.25.11,0s.25.58.44.64.53.18.36-.06-.45-.45-.38-.46.26.17.26.17.33.31.54.24a.19.19,0,0,0-.13-.19c-.14-.06.16,0,.21,0s.29,0,.08-.19-.34-.12-.38-.21.29-.06.37-.05.15-.09,0-.17a6.09,6.09,0,0,0-1.58-.51c-.5,0-1.28-.25-1.33-.24S74,17.54,74,17.69Z"></path>
          <path class="cls-18" d="M75.32,17.35a.48.48,0,0,0,.42-.13.78.78,0,0,0,.24-.6s0-.58.28-.7c0,0,.17.14,0,.55a.39.39,0,0,0,.14-.26c0-.15.43-.3.48-.28s0,.24-.09.34-.1.12,0,.13,0,.2-.08.26-.4.34-.33.43.31-.16.32-.29.13-.54.28-.59l.1.18s0-.24.26-.23c0,0,.12.3-.35.79,0,0-.09.16.12,0s.32-.32.4-.3,0,.17,0,.17.25,0,.32.07-.24.21-.25.22.25.09.27.09,0,.26-.66.08c0,0-.38-.05,0,.09s.64,0,.64.08-.26.23-.39.19,0,.07,0,.1.13.22,0,.16-.54-.29-.69-.33a1.82,1.82,0,0,0-.6-.1c-.08,0,0,.15.18.18s.7,0,.75,0a.13.13,0,0,1,0,.21c-.09.08.39-.05.23.16,0,0,.35.09.32.21s-.17.14-.59,0c0,0,.28.11.26.19a3,3,0,0,1-1.14-.19c-.19-.11-.39-.5-.47-.53a1.4,1.4,0,0,0-.4-.11C75.18,17.59,75.06,17.27,75.32,17.35Z"></path>
          <path class="cls-18" d="M75.29,17.42a6,6,0,0,1,.51-.66,2.56,2.56,0,0,0,.49-.43.49.49,0,0,0,0-.4c-.06,0-.42.4-.44.46s-.24-.05,0-.17.37-.28.32-.43c0,0-.16,0-.21.09s.21-.34,0-.44c0,0-.32,0-.37.39,0,0,.09-.39,0-.38a.24.24,0,0,0-.26.21s-.23-.13-.28-.05a8.67,8.67,0,0,1,.06,1.17,1.5,1.5,0,0,1-.36.69C74.68,17.52,75.29,17.42,75.29,17.42Z"></path>
        </g>
        <g id="_3" data-name="3">
          <path class="cls-17" d="M66.79,18.36s.28.47.45.44,1.65-.8,2.24-.18a5,5,0,0,1-1.3.28c-.44,0,.3.23.57,0s1.15,0,1.19.07-.17.2-.85.21c0,0-.18.06,0,.09s.67-.3,1,.09c0,0-.48,0-.49.1s.16.05.18.05.32.05.36.24a2.24,2.24,0,0,1-.35.12.91.91,0,0,1-.33-.11c-.05,0,.16.3.19.33s-.08.07-.34-.06a3.73,3.73,0,0,1-.6-.49c-.08-.05-.18-.11-.14-.06s.41.45.43.7a1.46,1.46,0,0,1-.67-.41,3.9,3.9,0,0,0-.51-.6.45.45,0,0,0-.35-.06s0,.19.06.29a1.21,1.21,0,0,0,.61.88,3.86,3.86,0,0,0,.64.09,3.78,3.78,0,0,1,1.12.16c.13.08-.43.25-.67.15s0,.15.12.15a1.38,1.38,0,0,1,.94.17,2.6,2.6,0,0,1-.37.06c-.06,0,.43.22.39.38a1.63,1.63,0,0,1-.35,0,2.71,2.71,0,0,1-.53-.25c-.12-.08-.23-.08-.08.07l.3.34a.61.61,0,0,1-.53-.21,3.26,3.26,0,0,0-.92-.65c-.07,0,0,.29.26.46s1.24.36,1.47.82c0,0,0,.06-.19,0s-.32-.17-.25-.07.4.4.31.62-.86-.49-.95-.59-.33-.19-.24-.1,1,.56.94,1.24c0,0,.05.21-.18-.11s-.39-.46-.36-.37.33.62.12.67a.37.37,0,0,1-.42-.27c0-.12-.09-.48-.14-.4s.07.43.09.58,0,.41-.2.15-.29-.42-.26-.54.12-.92-.07-1.13-.06.95-.08,1,0,.66-.06.75-.49-.4-.41-.58.09-.58,0-.53-.19.49-.35.49.06-.54.28-1a1.56,1.56,0,0,0,.27-1,1.2,1.2,0,0,0-.26-.56,1.63,1.63,0,0,0-.16.74c0,.35.23,2.14-.24,1.37a4.29,4.29,0,0,1,0-.61c0-.25-.16,0-.13.13a1.82,1.82,0,0,1,0,.81c-.1.14-.13.15-.17-.05s-.11-.09-.1,0,0,.39-.17.5-.24-.33-.2-.42.17-.52,0-.42-.09.36-.33.51a.7.7,0,0,1,0-.6c.18-.25.46-.61.53-.69s.17-.27,0-.2-.25.51-.92.78a1.21,1.21,0,0,1,.36-.83c.37-.36.88-.6,1.07-.86a.9.9,0,0,0,.21-1c-.2-.54-.38-.52-.38-.52s-.38,0-.42.29a3.81,3.81,0,0,1-.16.94,4.53,4.53,0,0,1-.41.58c-.06,0-.14-.57-.07-.7s.19-.46.08-.44-.17.56-.18.62a.92.92,0,0,1-.5.86.73.73,0,0,1,0-.53c.13-.22,0-.22,0-.19a1.65,1.65,0,0,0-.16.49.66.66,0,0,1-.29.42s0-.26,0-.33,0-.13-.11,0a.38.38,0,0,1-.38.24s0-.42.22-.51.18-.25,0-.18-.36.32-.48.32.19-.67.51-.69a.9.9,0,0,0,.64-.29c0-.08-.27,0-.46.2a2,2,0,0,1-.77.43s.21-.81.6-.85A4.46,4.46,0,0,0,66,19.09c.12-.1-.24-.05-.3,0s-2,.4-1.47.12a2.82,2.82,0,0,1,1.66-.55c.78.1,1,.09,1,0s-.23-.32-.23-.32S66.74,18.28,66.79,18.36Z"></path>
          <path class="cls-17" d="M67.51,18.19a4.06,4.06,0,0,1,.36-.59,2.29,2.29,0,0,1,.77-.24c.1,0,.73-.07.79-.27a.65.65,0,0,0-.6-.07s-.23,0,.08-.13.54-.34.44-.7c0,0-.44,0-.53.13s-.11-.32-.2-.27-.31.72-.43.81-.07.14-.12.09.05-.21.06-.23a5.79,5.79,0,0,0,1-.63,1.92,1.92,0,0,0,.26-.71,1.5,1.5,0,0,0-1,.72s-.21.08,0-.15.68-.39.66-.71-.07-.44-.13-.34-.19.45-.28.45,0-.13,0-.22.28-.3.14-.49-.13.17-.17.18.06-.33-.07-.34-.4,0-.34.45-.21,0-.1-.09,0-.33-.12-.28-.33.34,0,.79c0,0,.11.15.1.22s0,.23-.15,0,.16-.44-.38-.78c0,0-.14-.07-.1.28a3.74,3.74,0,0,0,.38,1.11c.14.28,0,.5,0,.38a1.13,1.13,0,0,1-.14-.48c0-.18.11-1.35-.3-.88a.55.55,0,0,0,0,.12c0,.07-.12-.27-.31-.3,0,0-.27.15.06.76,0,0-.35-.35-.45-.27s.23.5.32.62l.08.12s-.22,0-.06.13.38.08.54.37a.68.68,0,0,1,.07.65c-.07,0-.17-.36-.17-.36l0-.76s-.21-.11-.32.06-.21.05-.21,0S67,16,67,16s-.32-.31-.39-.21-.75-.35-.14.4c0,0,.13.24,0,.12s-.17-.41-.43-.42c0,0-.21.28.39.66s.3.34.19.24-.6-.37-.64-.24-.08.15.85.77c0,0,.48.2.55.43a.54.54,0,0,1,0,.47C67.23,18.22,67.41,18.35,67.51,18.19Z"></path>
          <path class="cls-17" d="M69.93,18.41s.6-.61.59-.94a5.94,5.94,0,0,1-.06-1.72c.14-.51.13.19.13.19s0,.41.07.44.17-.52.23-.6a4,4,0,0,1,.4-.41,3.32,3.32,0,0,1,0,.61c0,.09.27-.16.27-.16s.17-.17-.05.23-.64,1-.49,1.23.28-.45.28-.45.17-1.23.76-1.4a1,1,0,0,1-.18,1.08s-.1.2,0,.1.58-1.2,1-.82a1.14,1.14,0,0,0-.23.38c0,.17.12,0,.12,0s.48-.39.76.05c0,0-.21.22-.35.24s.27.07.28,0a.58.58,0,0,1-.15.25l-.08.06s.13,0,.16,0a.73.73,0,0,1-.82.43c-.64-.09-.82,0-.86,0s.09.07.23.06.71-.25,1.06.14a.46.46,0,0,1-.6.23s.24.11.24.19-.16.24-.7,0-1.56.5-1.62.58S70.09,18.52,69.93,18.41Z"></path>
          <path class="cls-17" d="M70.48,18.57S69.86,20,70,20.21c0,0,.16-.17.18-.13s0,.55,0,.64.43-.47.37-.68.17.1.17.1-.07-1.22.11-1.17.28.2.3.5a1.7,1.7,0,0,0,.24.77c.09.1.3,1,.62,1.05,0,0,.26-.22,0-.93,0,0,.13-.3.15,0s0,.85.25,1,.58.49.48.11-.35-.77-.26-.76.25.34.25.34.27.54.56.56a.26.26,0,0,0-.07-.3c-.16-.15.18.12.23.15s.35.17.19-.2-.36-.31-.37-.43.38.05.48.11.23,0,.07-.22a7.89,7.89,0,0,0-1.73-1.38c-.61-.27-1.48-.91-1.56-.93S70.48,18.36,70.48,18.57Z"></path>
          <path class="cls-17" d="M72.23,18.75a.67.67,0,0,0,.59,0c.39-.11.56-.61.58-.64s.25-.73.67-.73c0,0,.15.24-.24.68a.52.52,0,0,0,.3-.25c.09-.19.67-.18.73-.13s-.1.3-.28.39-.18.1-.1.14-.09.25-.21.29-.67.23-.62.38.45-.05.54-.22.41-.6.62-.6l0,.28a.33.33,0,0,1,.43-.18s0,.44-.82.83c0,0-.18.16.16.06s.55-.25.64-.19-.12.2-.12.2.32.1.36.24-.39.14-.41.16.26.23.3.24-.09.33-.87-.22c0,0-.45-.24-.09.09s.79.28.76.4-.45.17-.58.05,0,.09,0,.15,0,.33-.1.19-.53-.6-.71-.73a2.42,2.42,0,0,0-.69-.4c-.12,0,0,.21.13.3s.89.3,1,.33a.18.18,0,0,1,0,.29c-.15.05.52.11.22.3,0,0,.38.28.29.42s-.28.1-.74-.26c0,0,.3.27.23.36a3.82,3.82,0,0,1-1.32-.77c-.2-.22-.26-.8-.34-.88a2.89,2.89,0,0,0-.45-.33C72,19,71.94,18.53,72.23,18.75Z"></path>
          <path class="cls-17" d="M72.16,18.82a7.84,7.84,0,0,1,1-.59,3,3,0,0,0,.81-.31c.13-.12.23-.43.17-.5s-.71.3-.76.37-.28-.17.11-.2.6-.17.61-.39a.54.54,0,0,0-.3,0c-.09.06.41-.32.27-.52,0,0-.39-.2-.66.31,0,0,.3-.44.13-.5a.32.32,0,0,0-.42.15s-.22-.28-.32-.2-.21,1.15-.48,1.49-.63.69-.77.7S72.16,18.82,72.16,18.82Z"></path>
          <path class="cls-17" d="M72.52,19.28a3.84,3.84,0,0,0-1-.5,4.92,4.92,0,0,0-1.07-.26,18.44,18.44,0,0,0-2.23-.17,16.57,16.57,0,0,0-2.23.07,10.56,10.56,0,0,0-1.11.15,7.51,7.51,0,0,0-1.06.28h0a.16.16,0,0,1-.2-.1.16.16,0,0,1,.09-.21h0A9.7,9.7,0,0,1,66,18.18c.75-.05,1.5,0,2.25,0s1.5.07,2.25.16a8.65,8.65,0,0,1,2.19.67.17.17,0,0,1,.09.22.16.16,0,0,1-.2.09l0,0Z"></path>
        </g>
        <path class="cls-18" d="M73.55,25.29s-.23.34-.16.45,1.07.87.83,1.47a4.15,4.15,0,0,1-.6-.8c-.13-.3-.06.27.19.38s.38.78.33.84-.2-.06-.42-.52c0,0-.1-.1-.06,0s.41.36.24.68c0,0-.19-.31-.23-.3s0,.12,0,.14.06.23-.06.32a1.31,1.31,0,0,1-.18-.2.51.51,0,0,1,0-.27s-.16.21-.17.24-.07,0-.07-.25a2.79,2.79,0,0,1,.15-.56c0-.07,0-.16,0-.11s-.17.42-.34.51a1.16,1.16,0,0,1,.07-.58,3.9,3.9,0,0,0,.25-.54.35.35,0,0,0-.07-.26s-.13.07-.18.13a.93.93,0,0,0-.41.7,2.73,2.73,0,0,0,.15.46,3.18,3.18,0,0,1,.24.81c0,.11-.31-.21-.31-.41s-.1.06-.07.13a1,1,0,0,1,.18.7,2.08,2.08,0,0,1-.15-.24s0,.36-.14.39a.79.79,0,0,1-.12-.23,2.14,2.14,0,0,1,0-.44c0-.11,0-.18-.08,0l-.13.31a.45.45,0,0,1,0-.43,2.47,2.47,0,0,0,.16-.83s-.2.1-.23.32.14,1-.1,1.26c0,0,0,0,0-.14s0-.27,0-.19-.15.4-.32.41.06-.75.1-.83,0-.29,0-.2-.06.88-.55,1c0,0-.12.1,0-.16s.2-.41.14-.36-.32.42-.42.3A.29.29,0,0,1,71,28c.09,0,.3-.21.23-.22s-.27.19-.37.25-.27.14-.16-.1.19-.32.29-.34.66-.21.75-.4-.67.25-.71.26-.44.22-.53.19.12-.46.26-.46.43-.12.37-.16-.39,0-.45-.09.39-.12.74-.11a1.11,1.11,0,0,0,.79-.14.93.93,0,0,0,.3-.35,1.22,1.22,0,0,0-.55.12c-.23.14-1.39.83-1,.27a2.47,2.47,0,0,1,.4-.22c.17-.07-.06-.1-.13,0s-.41.29-.54.27-.14,0,0-.12,0-.11,0-.07-.26.12-.39,0,.15-.27.22-.26.41-.05.3-.11-.27.06-.45-.06a.53.53,0,0,1,.42-.16c.23,0,.57.12.64.14s.24,0,.12-.09-.42,0-.82-.38a1,1,0,0,1,.68,0c.36.14.69.41.92.47A.7.7,0,0,0,73,26c.3-.31.24-.42.24-.42s-.14-.26-.33-.2a2.84,2.84,0,0,1-.7.19,3.44,3.44,0,0,1-.52-.1s.34-.27.46-.27.37,0,.32-.08-.44.07-.48.08a.69.69,0,0,1-.74-.07.55.55,0,0,1,.36-.17c.18,0,.15-.06.12-.07a1.21,1.21,0,0,0-.38.05.51.51,0,0,1-.38-.06s.17-.11.24-.09.07-.08,0-.09a.29.29,0,0,1-.28-.18s.28-.13.41,0,.23,0,.14,0-.34-.14-.38-.23.52-.08.63.14a.73.73,0,0,0,.4.34c.07,0,0-.2-.27-.25A1.28,1.28,0,0,1,71.3,24s.62-.11.76.14a3.59,3.59,0,0,0,.73.79c.1.05-.05-.19-.08-.22s-.9-1.22-.55-1a2.07,2.07,0,0,1,.9,1c.18.55.24.66.3.65s.15-.26.15-.26S73.59,25.23,73.55,25.29Z"></path>
        <path class="cls-18" d="M73.81,25.73a4,4,0,0,1,.6.06,1.71,1.71,0,0,1,.4.45c0,.07.27.47.44.45a.48.48,0,0,0-.15-.43s-.07-.15.11,0,.4.26.62.08c0,0-.15-.3-.25-.32s.18-.17.12-.22-.59,0-.69,0-.12,0-.1-.05.16,0,.18,0a3.78,3.78,0,0,0,.74.48,1.54,1.54,0,0,0,.56,0,1.15,1.15,0,0,0-.8-.46s-.12-.11.1-.05.48.35.7.23.27-.19.18-.2-.36,0-.39,0,.09,0,.16,0,.3.1.38-.06-.16,0-.18-.05.24-.07.21-.16-.16-.26-.41-.09-.09-.13,0-.1.24-.09.16-.17-.34-.12-.55.24c0,0-.06.12-.11.13s-.18,0,0-.11.36,0,.42-.51c0,0,0-.11-.22,0a3.1,3.1,0,0,0-.64.61c-.14.19-.33.18-.26.11s.15-.21.28-.25.95-.35.5-.48a.27.27,0,0,0-.1,0s.15-.17.11-.3-.19-.14-.5.28c0,0,.13-.35,0-.39s-.27.31-.32.41l0,.09s-.08-.14-.11,0,.07.29-.08.49-.38.28-.42.25.19-.23.19-.23l.51-.26s0-.18-.14-.2-.1-.13-.08-.13.28,0,.31,0,.11-.32,0-.33,0-.63-.32,0c0,0-.11.17-.09,0s.23-.25.15-.43c0,0-.26-.05-.33.48s-.13.31-.1.2.06-.53,0-.51-.13,0-.26.82c0,0,0,.4-.12.51a.48.48,0,0,1-.4.12C73.71,25.55,73.67,25.71,73.81,25.73Z"></path>
        <path class="cls-18" d="M74.5,27.45s.61.21.83.1A4.91,4.91,0,0,1,76.48,27c.39-.06-.09.16-.09.16s-.28.11-.28.18.41,0,.49,0a3.46,3.46,0,0,1,.4.14,2.5,2.5,0,0,1-.42.18c-.07,0,.19.14.19.14s.17.06-.17,0-.87-.13-1,.05.39.05.39.05.9-.28,1.2.07a.76.76,0,0,1-.79.22s-.17,0-.07.05,1,0,.87.41a.88.88,0,0,0-.33-.05c-.13,0,.06.07.06.07s.41.21.21.54a.69.69,0,0,1-.28-.16c-.05-.09,0,.2.06.2a.43.43,0,0,1-.21,0l-.07,0s0,.11,0,.12a.55.55,0,0,1-.56-.43c-.14-.46-.23-.57-.28-.57s0,.08,0,.17.39.41.24.77a.35.35,0,0,1-.34-.33s0,.19-.06.22-.21,0-.2-.49-.84-.9-.9-.92S74.48,27.59,74.5,27.45Z"></path>
        <path class="cls-18" d="M74.57,27.87s-1.16,0-1.28.19c0,0,.18.05.15.07s-.37.17-.43.21.46.15.58.05,0,.14,0,.14.8-.43.83-.29,0,.25-.25.36a1.3,1.3,0,0,0-.45.4c0,.09-.56.52-.51.76,0,0,.22.11.62-.31,0,0,.25,0,.05.1s-.56.29-.6.49-.15.54.08.36.42-.49.43-.42-.14.27-.14.27-.29.36-.21.56a.18.18,0,0,0,.18-.14c.06-.15,0,.16,0,.21s0,.29.2.06.09-.34.18-.39.08.28.07.37.1.14.17,0a6.13,6.13,0,0,0,.4-1.61c0-.5.15-1.29.13-1.35S74.72,27.8,74.57,27.87Z"></path>
        <path class="cls-18" d="M75,29.12a.51.51,0,0,0,.16.41.82.82,0,0,0,.62.19s.58-.06.71.23c0,0-.11.18-.54.05a.4.4,0,0,0,.27.12c.16,0,.33.4.32.46s-.24,0-.35-.07-.13-.09-.13,0-.2,0-.27-.06-.36-.38-.45-.3.18.3.31.3.55.09.61.23l-.17.13s.25,0,.25.23c0,0-.29.14-.82-.29,0,0-.17-.07,0,.13s.34.29.33.37-.18,0-.18,0,0,.25,0,.32-.22-.22-.24-.23a.82.82,0,0,0-.06.28s-.26.05-.13-.65c0,0,0-.39-.09,0s.06.63,0,.64-.25-.25-.21-.37-.07,0-.1.05-.21.14-.16,0,.24-.55.28-.71a1.9,1.9,0,0,0,0-.6c0-.08-.15.06-.16.19a6.67,6.67,0,0,0,.07.74c0,.05-.12.15-.2.07s.08.38-.14.24c0,0-.07.35-.19.33s-.16-.16-.06-.59c0,0-.09.29-.17.28a3.08,3.08,0,0,1,.1-1.15c.09-.2.47-.43.49-.51a1.75,1.75,0,0,0,.08-.41C74.75,29,75.06,28.85,75,29.12Z"></path>
        <path class="cls-18" d="M74.93,29.09a6.76,6.76,0,0,1,.7.46,2,2,0,0,0,.47.46.48.48,0,0,0,.39,0c0-.06-.43-.39-.49-.41s0-.24.17,0,.31.35.46.29,0-.16-.11-.2.35.18.44,0c0,0,0-.33-.42-.35,0,0,.4.06.38-.07s-.08-.23-.23-.24c0,0,.12-.24,0-.28s-.85.22-1.17.14a1.54,1.54,0,0,1-.71-.3C74.79,28.49,74.93,29.09,74.93,29.09Z"></path>
        <path class="cls-18" d="M74.72,29.48a3.92,3.92,0,0,0-.15-1.7,16.1,16.1,0,0,0-.65-1.62,21.5,21.5,0,0,0-1.72-3,.05.05,0,0,1,0-.08.05.05,0,0,1,.08,0,20,20,0,0,1,1.75,3,13.06,13.06,0,0,1,.66,1.64A6.41,6.41,0,0,1,75,29.5a.13.13,0,0,1-.12.13.12.12,0,0,1-.13-.12v0Z"></path>
        <path class="cls-18" d="M66.45,28.84s0-.1.18,0l.53.43a3.42,3.42,0,0,1,.37.47.66.66,0,0,0,.35.18c.06,0-.21-.16-.3-.23s-.15-.22-.07-.16.53.33.56.29-.27-.22-.29-.24a3.51,3.51,0,0,0-.51-.38c-.17-.07-.22-.2-.14-.16s.65.46.72.46-.09-.1-.12-.14a1.57,1.57,0,0,0-.47-.45c-.17-.06-.43-.18-.47-.2a.53.53,0,0,0-.28,0c-.06,0-.18,0-.13.1S66.45,28.84,66.45,28.84Z"></path>
        <path class="cls-17" d="M53.58,10.26a.84.84,0,0,0,.15.67,9.7,9.7,0,0,1,.76,1.12h-.07a.63.63,0,0,1,.09.24l-.11,0a1.77,1.77,0,0,1,0,.24s-.14-.19-.17-.2a1.63,1.63,0,0,1-.17-.38,1.58,1.58,0,0,0,0,.19s-.24-.53-.29-.7a2.93,2.93,0,0,0-.16-.39,1.66,1.66,0,0,0,.11.51c.09.12.54.69.49,1h-.07a.64.64,0,0,1,0,.21s-.08-.06-.08-.06,0,.17,0,.19-.21-.22-.21-.24,0,0,0,0-.25,0-.21-.31a.81.81,0,0,0-.06.2c0,.07-.17-.2-.16-.26a.19.19,0,0,1,.09-.18c.08,0,.18-.15.14-.16s-.09,0-.11.08a.39.39,0,0,1-.23.24l-.11,0s0-.45.2-.51a.32.32,0,0,0,.19-.38s-.13,0-.17.14-.11.52-.26.43c0,0-.35.15-.18-.2,0,0-.09,0-.11,0s0-.16.05-.21l-.16,0s.09-.18.36-.26.39-.19.43-.42a2.88,2.88,0,0,0,0-.55.22.22,0,0,0-.16.16c0,.14,0,.59-.17.62s-.08-.22-.08-.22,0,.29-.25.29c0,0,0-.12,0-.15s-.14.1-.22,0,.09-.21.07-.22h-.18a.33.33,0,0,1,.31-.24c.27,0-.25.07-.27,0s-.09-.13,0-.18a1,1,0,0,1,.36-.06c.13,0,.19-.07.1-.08s-.41,0-.43-.1.18-.22.22-.22.24,0,.3,0,.09.11.13.07S53.51,9.92,53.58,10.26Z"></path>
        <path class="cls-17" d="M53.58,10s0-.11.18,0l.65.21a3.8,3.8,0,0,1,.51.31.79.79,0,0,0,.4,0s-.26-.08-.37-.12-.22-.15-.12-.12a2.29,2.29,0,0,0,.63.08s-.33-.12-.36-.13a2.77,2.77,0,0,0-.61-.17c-.18,0-.28-.11-.19-.1s.77.19.83.17-.12-.06-.16-.09a1.65,1.65,0,0,0-.59-.25l-.52,0a.54.54,0,0,0-.26.09c-.05,0-.15.1-.09.14S53.58,10,53.58,10Z"></path>
        <path class="cls-17" d="M53.5,9.88a.45.45,0,0,1,.25-.16l.51,0s.3,0,.32-.08-.19-.22-.26-.22l-.25,0s-.17,0-.15,0a1,1,0,0,1,.43-.11.76.76,0,0,0,.42-.21.17.17,0,0,0,0-.12.81.81,0,0,0-.36,0c-.14.08-.16.07-.16.07s0,0,.05,0a2.82,2.82,0,0,0,.44-.23s.12-.15.11-.21-.45,0-.59.17a7.57,7.57,0,0,0-.54.62c0,.06-.12,0-.11,0s.17-.56.53-.65a1.27,1.27,0,0,0,.66-.52s-.12-.14-.47.17c0,0-.15,0,0-.05s.45-.33.49-.5c0,0-.09,0-.21.09s.16-.25.07-.33-.29.08-.36.27a.7.7,0,0,0-.06-.17s-.19.28-.25.61-.15.35-.2.36,0-.33.15-.45.5-.54.5-.75c0,0,0,0-.19.13,0,0,0,0,0-.06a.5.5,0,0,0-.1-.24A.15.15,0,0,0,54,7.5c0,.1-.06.45-.14.51s-.12,0-.06-.11a.76.76,0,0,0,.13-.71s-.12,0-.21.27c0,0-.08-.29-.26-.33a.8.8,0,0,0,0,.23s-.19-.1-.21-.07a1,1,0,0,0,0,.32,1.73,1.73,0,0,0,.22.31.86.86,0,0,1,.1.26s0,.22-.05.07-.15-.32-.2-.4-.15-.38-.23-.29a.34.34,0,0,0,0,.39c.07.14.18.23.12.2S53,7.92,53,7.92s-.19-.11-.11.07.51.47.52.5.22.2.22.3,0,.32-.06.31-.16-.33-.16-.37,0-.33,0-.38-.14,0-.14.14c0,0-.14-.31-.31-.28a.31.31,0,0,0,0,.37s-.13-.11-.19-.08-.05.18.28.39c0,0-.24-.11-.33,0s-.09.08.15.2.49.17.56.36a1.3,1.3,0,0,1,0,.58A.11.11,0,0,0,53.5,9.88Z"></path>
        <path class="cls-17" d="M52.13,8.92a.34.34,0,0,1,0-.32,2.08,2.08,0,0,1,.41-.44,1.64,1.64,0,0,0,.45-.5,2,2,0,0,0-.45.25c-.2.14,0-.11.05-.13a1,1,0,0,0,.25-.65.51.51,0,0,0-.26.26.68.68,0,0,1,0-.12.71.71,0,0,0-.25.43,1,1,0,0,1-.14.43s-.06,0,0-.11a2.86,2.86,0,0,1,.21-.59,1.29,1.29,0,0,0,.1-.81c0-.14-.24.42-.27.61s-.07.14-.07.13a2.37,2.37,0,0,0,.16-.6.83.83,0,0,0-.14-.42.8.8,0,0,0-.08.4c0,.2-.09,0-.09,0a.33.33,0,0,0-.14-.37s-.22.25-.06.45a.82.82,0,0,1-.12-.15c0-.05-.14,0-.14,0a.71.71,0,0,0,0,.19c0,.07-.07,0-.12,0s0,.11,0,.2a4.56,4.56,0,0,0,.41.51c.1.15.14.38.05.28s0-.47-.46-.65a.77.77,0,0,0,.12.52s0,.06-.12,0,.09.17.16.27.28.2.32.34.15.38.1.5S52.15,9,52.13,8.92Z"></path>
        <path class="cls-17" d="M51.38,8.35a.38.38,0,0,1-.14-.43,5.31,5.31,0,0,1,.34-.78,1.27,1.27,0,0,0,0-.58s-.3.17-.28.38a.57.57,0,0,1-.1.4s0-.16,0-.28.31-.5.07-.8c0,0,0-.14-.07.16s-.08.32-.1.34,0,0,0-.21a.42.42,0,0,0-.27-.37.79.79,0,0,1,0,.13s-.08.06-.08.11-.13-.11-.16-.13-.09.13-.09.17a2.4,2.4,0,0,0,.29.87,1,1,0,0,1,.27.52c0,.06-.21,0-.29-.45a3.25,3.25,0,0,0-.44-1.24s0,0-.07,0A.45.45,0,0,0,50.14,6s-.1.22,0,.41.16.26.06.18-.06-.56-.41-.76a1,1,0,0,0-.07.32.54.54,0,0,0,.15.45s.11.33,0,.09.14-.36-.33-.65c0,0-.19-.13-.11.06s.2.24.15.28-.12-.14-.15-.15a.47.47,0,0,0-.21-.07.27.27,0,0,0,.11.32c.2.14,0,.11,0,.06a1,1,0,0,0-.39-.13c-.13,0,.2.25.24.29s.41.09.47.13.27.18.07.13-.23-.33-.79-.25c0,0,0,.25.41.36s.62.13.69.15.27.17.26.2a.23.23,0,0,1-.2,0,6.13,6.13,0,0,0-.6-.44c-.07,0-.09.14-.08.17s-.25-.15-.3-.11a.11.11,0,0,0,0,.1s-.17,0-.17.06a.44.44,0,0,0,.42.24s.13,0,0,0a.84.84,0,0,1-.26,0s-.05,0,0,.08.13.19.44.11.32,0,.22,0-.42,0-.31.05a.78.78,0,0,0,.6.12c.21-.07.31-.22.52-.09a1.78,1.78,0,0,1,.46.37s0,.09-.07.08-.18,0-.29-.05a3.93,3.93,0,0,0-.82-.41c-.11,0-.13.18.11.32s.15.24,0,.16-.36-.64-.69-.48c0,0-.14.13.28.38,0,0,.1.11-.06,0S49.25,8,49,8a.19.19,0,0,0,.08.1c.07.06-.19,0-.23,0s0,.2.25.22.12.08,0,.08-.22,0-.17.08.14.16.43,0,.34-.13.31-.08a.19.19,0,0,1-.21.09.72.72,0,0,0-.47.16c-.11.13.5.14.58.12s.57-.4.67-.36-.21.18-.3.18a1.18,1.18,0,0,0-.55.25c-.08.12.47.15.78,0s.34-.41.68-.43.35,0,.4,0S51.54,8.54,51.38,8.35Z"></path>
        <path class="cls-17" d="M52.09,9.09l-.38.05a1.76,1.76,0,0,1-.33,0c-.12,0-.43-.36-.76-.36a.62.62,0,0,0,.15.18c.06,0-.43-.18-.56,0l.23.15c.1.08.5.07.51.14s-.11.11-.18.1a1.07,1.07,0,0,1-.37-.08A1,1,0,0,0,49.79,9s.09.11.09.16-.14-.1-.4,0a1,1,0,0,0,.46.26c.25.05.27.08.22.09s-.13,0-.37-.08-.4-.18-.56-.08c0,0,0,.08.16.11a.3.3,0,0,1,.19.11s-.23-.08-.32,0a.73.73,0,0,0-.18.19.33.33,0,0,0,.33.07c.09-.06-.13.12-.22.13s0,.06,0,.07a.53.53,0,0,0,.41-.09c.21-.14.31-.18.35-.16s0,.07-.09.09a1.31,1.31,0,0,0-.47.32.48.48,0,0,0,.39,0c.2-.1.26-.23.37-.3a1.41,1.41,0,0,1,.45-.22c.07,0-.13.14-.16.16a1.18,1.18,0,0,0-.57.53.44.44,0,0,0,.46-.13l0,.23s0,.15.14-.07a4.47,4.47,0,0,1,.42-.67,2.34,2.34,0,0,1,.58-.28c.09,0-.06.11-.1.14s-.64.32-.68.56a.29.29,0,0,0,.21,0c.08-.05,0,.09-.12.14s-.13.35-.1.37A.58.58,0,0,0,51,10.3c0-.09.06,0,0,0s0,.2,0,.21.11,0,.2-.28.16-.44.16-.33a2.84,2.84,0,0,1-.08.34.48.48,0,0,0,0,.18,1.28,1.28,0,0,0,.29-.5c0-.21.12-.77.61-.73S52.09,9.09,52.09,9.09Z"></path>
        <path class="cls-19" d="M51.1,8.21s1.67,1.27,2.09,1.61,2.13,1.83,2.16,1.89"></path>
        <path class="cls-17" d="M68.6,22.66a1.11,1.11,0,0,0,.63-.62,13.24,13.24,0,0,1,.71-1.61l0,.08s.12-.22.2-.25l0,.15s.22-.17.25-.18-.12.29-.1.33a2.19,2.19,0,0,1-.31.44,2,2,0,0,0,.2-.14,8.51,8.51,0,0,1-.57.8,3.78,3.78,0,0,0-.31.43,1.91,1.91,0,0,0,.48-.46c.07-.18.39-1.07.72-1.19l0,.08s.19-.12.26-.11,0,.13,0,.13.18-.12.25-.08-.11.38-.13.4,0,0,.08,0,.14.28-.19.44a1.13,1.13,0,0,0,.26-.07c.07,0-.11.32-.18.36s-.19.07-.26,0-.29-.09-.28,0a.12.12,0,0,0,.17.07.42.42,0,0,1,.41.09l.11.11s-.47.34-.7.13a.41.41,0,0,0-.55.05s.1.13.27.09.65-.24.66,0c0,0,.4.28-.11.34,0,0,.1.07.1.1s-.16.13-.27.09a.93.93,0,0,1,.07.2s-.25,0-.53-.21-.47-.31-.75-.2a4,4,0,0,0-.63.36.32.32,0,0,0,.3.07c.17-.06.67-.35.79-.24s-.19.23-.19.23.34-.16.5.08c0,0-.13.1-.18.09s.2.08.18.22-.3.05-.28.07a2.2,2.2,0,0,0,.12.19.41.41,0,0,1-.47-.18c-.21-.27.24.24.21.28s-.09.19-.2.12a1.24,1.24,0,0,1-.31-.36c-.1-.14-.22-.16-.16-.06s.27.46.18.55-.36-.05-.39-.09-.18-.26-.16-.36.06-.18,0-.19S68.27,23,68.6,22.66Z"></path>
        <path class="cls-17" d="M68.3,22.84s-.09.09-.17-.17-.17-.71-.2-.86a4.12,4.12,0,0,1,0-.78.83.83,0,0,0-.22-.46c-.07,0,.08.34.12.47s0,.35,0,.22a2.87,2.87,0,0,0-.34-.74c-.07,0,.1.44.11.48a4.15,4.15,0,0,0,.22.8c.12.19.08.37,0,.27s-.31-1-.38-1,0,.18,0,.24a2.4,2.4,0,0,0,.13.83,6.35,6.35,0,0,1,.33.58.81.81,0,0,0,.28.23c.08,0,.21.1.22,0S68.3,22.84,68.3,22.84Z"></path>
        <path class="cls-17" d="M68.22,23a.49.49,0,0,1-.33-.16c-.1-.14-.28-.53-.32-.58s-.18-.35-.3-.3-.12.36-.08.43.18.19.22.24.14.18.1.17a1.36,1.36,0,0,1-.41-.4,1,1,0,0,0-.51-.31.31.31,0,0,0-.15.06.91.91,0,0,0,.3.37c.18.1.19.13.19.13s0,.06-.08,0a4.07,4.07,0,0,0-.55-.32s-.25,0-.31,0,.34.48.59.54,1,.14,1,.16.12.11.05.14-.73.19-1.07-.15a1.58,1.58,0,0,0-1-.36s-.08.22.51.4c0,0,.15.13,0,.06s-.68-.27-.89-.19c0,0,0,.12.25.17,0,0-.38,0-.41.14s.29.27.54.22a1.14,1.14,0,0,0-.15.18c0,.06.44,0,.84-.14s.49-.07.53,0-.38.19-.59.15-.94-.19-1.17-.05c0,0,0,.08.28.13,0,0,.09,0,0,.09a.64.64,0,0,0-.2.27.22.22,0,0,0,.21,0c.12,0,.54-.24.65-.2s.09.14-.08.15a1,1,0,0,0-.87.33.58.58,0,0,0,.45.06s-.27.28-.19.5a1.24,1.24,0,0,0,.29-.1s0,.28,0,.28a1.1,1.1,0,0,0,.35-.25c.06-.08.14-.36.19-.45a1,1,0,0,1,.21-.29c.05,0,.22-.19.11,0s-.25.38-.31.49-.31.42-.16.45a.46.46,0,0,0,.45-.26c.1-.18.12-.35.14-.26a1.85,1.85,0,0,1-.1.42s0,.28.15.07a3.69,3.69,0,0,0,.2-.91s.07-.38.18-.46.36-.19.38-.13-.25.39-.3.43-.38.19-.4.29.09.15.26.05c0,0-.25.38-.11.53s.24,0,.37-.31c0,0,0,.23,0,.27s.25-.07.25-.57c0,0,0,.34.18.39s.15,0,.12-.3-.14-.66,0-.87a1.67,1.67,0,0,1,.66-.36A.16.16,0,0,0,68.22,23Z"></path>
        <path class="cls-17" d="M68.11,25.17a.43.43,0,0,1-.36.21,2.38,2.38,0,0,1-.76-.15,2,2,0,0,0-.86-.15,3.34,3.34,0,0,0,.58.33c.3.12-.13,0-.18,0a1.22,1.22,0,0,0-.88.17.63.63,0,0,0,.46.1s-.07.1-.12.12a1.09,1.09,0,0,0,.66,0,1.26,1.26,0,0,1,.57-.14s0,.07-.11.11a3,3,0,0,1-.79.17,1.69,1.69,0,0,0-1,.45c-.12.14.63,0,.86-.12s.2,0,.19,0a3.7,3.7,0,0,0-.77.22,1,1,0,0,0-.36.44,1,1,0,0,0,.48-.18c.21-.15.12.07,0,.12a.41.41,0,0,0-.3.4s.42.08.54-.24a2.18,2.18,0,0,1-.09.24c0,.08,0,.17,0,.17a.64.64,0,0,0,.23-.1c.06-.06.09.06.12.11s.12-.08.2-.17a7.59,7.59,0,0,0,.29-.8c.09-.21.31-.43.27-.26s-.52.34-.41,1c0,0,.42-.21.5-.5,0,0,.08,0,.1.12s.13-.22.18-.36,0-.44.16-.59.31-.42.48-.45S68.18,25.09,68.11,25.17Z"></path>
        <path class="cls-17" d="M68,26.39s0,.29-.38.45a6.77,6.77,0,0,1-1.09.16,1.69,1.69,0,0,0-.64.41s.39.21.61,0A.71.71,0,0,1,67,27.3s-.15.15-.33.15-.76,0-.93.47c0,0-.14.13.23,0s.4-.12.44-.11,0,0-.21.17a.54.54,0,0,0-.23.55.7.7,0,0,1,.17,0c.07,0,.13,0,.18,0s0,.22,0,.26.19,0,.25,0a3.24,3.24,0,0,0,.75-.92,1.29,1.29,0,0,1,.4-.65c.07,0,.12.24-.3.63a4.06,4.06,0,0,0-1.07,1.33s0,0,.06.06-.1.13-.09.17.3,0,.44-.29.17-.35.15-.18-.57.44-.55,1a1.47,1.47,0,0,0,.4-.13.71.71,0,0,0,.39-.48s.29-.34.13,0-.5.1-.49.81c0,0,0,.3.14.08s.13-.38.21-.36-.07.24-.07.28a.64.64,0,0,0,.07.28.35.35,0,0,0,.27-.35c0-.31.12-.09.1,0a1,1,0,0,0,.12.51c.08.15.14-.4.15-.46s-.18-.51-.17-.6,0-.43.08-.17-.19.47.28,1c0,0,.26-.19.11-.7s-.28-.77-.3-.86,0-.42,0-.42.12.11.13.22a8,8,0,0,0-.07,1c0,.08.21,0,.24,0s0,.39.08.42a.17.17,0,0,0,.14,0s.16.16.18.15a.57.57,0,0,0,0-.63s0-.17,0-.07a1.64,1.64,0,0,1,.15.32s.07,0,.09,0,.13-.27-.18-.55-.24-.35-.15-.24.26.47.27.29a1,1,0,0,0-.28-.73c-.22-.19-.45-.19-.46-.52a2,2,0,0,1,.1-.76s.1-.05.13,0a.64.64,0,0,1,.15.35,5.68,5.68,0,0,0,.1,1.19c.08.11.3,0,.28-.35s.16-.33.15-.13-.44.82-.05,1.07c0,0,.25.07.22-.56,0,0,.07-.18.08.05s-.09.33.13.64a.38.38,0,0,0,.06-.16c0-.11.08.24.16.25s.2-.16.07-.43,0-.18,0-.11.18.22.21.13.08-.26-.26-.49-.38-.28-.31-.29a.26.26,0,0,1,.25.17.9.9,0,0,0,.5.4c.21,0-.19-.64-.27-.71s-.83-.35-.85-.49.33.1.4.2a1.53,1.53,0,0,0,.65.44c.19,0-.15-.62-.55-.85s-.68-.09-.94-.44-.27-.37-.27-.45S68.1,26.08,68,26.39Z"></path>
        <path class="cls-17" d="M68.33,25.1s.29.35.31.39a1.49,1.49,0,0,1,.23.36c.06.14-.1.72.12,1.08a1.15,1.15,0,0,0,.1-.28c0-.11.09.58.42.58a3.22,3.22,0,0,1,0-.35c0-.16-.27-.6-.2-.66s.19,0,.23.13a1.19,1.19,0,0,1,.16.46,1.26,1.26,0,0,0,.06.9s.06-.18.11-.2,0,.22.29.43a1.28,1.28,0,0,0,0-.69c-.13-.32-.11-.35-.06-.3s.13.11.16.46.08.56.3.67c0,0,.07-.08,0-.26a.4.4,0,0,1,0-.28s.07.31.18.37a.73.73,0,0,0,.33.08s0-.35-.15-.41.22.06.3.15.08,0,0-.08a.65.65,0,0,0-.38-.39c-.29-.13-.41-.22-.42-.27s.1,0,.17,0a1.76,1.76,0,0,0,.67.29A.59.59,0,0,0,71,26.9a3.3,3.3,0,0,0-.59-.21,1.94,1.94,0,0,1-.55-.33c0-.09.25,0,.29.06a1.59,1.59,0,0,0,1,.27.59.59,0,0,0-.46-.42l.27-.12s.18-.09-.18-.11a6.44,6.44,0,0,1-1,0,3.07,3.07,0,0,1-.72-.45c-.07-.09.17,0,.24,0s.78.49,1.07.37a.43.43,0,0,0-.17-.22c-.12-.05.12,0,.23,0s.47-.09.48-.14a.73.73,0,0,0-.5-.17c-.11,0-.08-.05,0-.08l.26-.1s-.05-.13-.44,0-.6.13-.48.06.34-.11.43-.16a.56.56,0,0,0,.18-.13,1.54,1.54,0,0,0-.74,0c-.24.12-.94.4-1.22-.17S68.33,25.1,68.33,25.1Z"></path>
        <path class="cls-20" d="M68,26.79s.26-2.7.34-3.4.56-3.59.62-3.67"></path>
        <path class="cls-17" d="M59.59,24.12l.23.15s.14.09.18-.1a1.83,1.83,0,0,0,.06-.57A6,6,0,0,1,60,23c0-.07.12-.76.14-.8s.14-.26.33,0a2.11,2.11,0,0,1,.06,1.12s-.08.37,0,.36.16-.29.18-.32.07-.9.08-1a2,2,0,0,1,.27-.71c.08-.05.18-.07.17.15a8.56,8.56,0,0,1-.12.88c0,.13,0,.18.08.12s.26-.82.31-.89.26-.32.31-.32,0,.16,0,.23-.09.27,0,.23.26-.37.44-.33a2.5,2.5,0,0,1,0,.32c0,.08-.13.38-.23.44s-.3.22-.3.28.06.06.12,0a2.69,2.69,0,0,1,.48-.24c.07,0,.1.16,0,.24s-.43.42-.64.46-.39.1-.39.18.05.08.13,0,.65-.37.83-.25,0,.22-.08.27-.64.39-.71.42-.28,0-.38.08-.53.39-.62.41.52.18.62.19l.5.08a1.55,1.55,0,0,0,.31,0s1.13-.77,1.19-.8l.2-.09s.08,0,.11,0a.11.11,0,0,1,0,.14l-.22.2s-.06.1,0,.06.48-.3.59-.35.19,0,.21,0-.08.16-.15.2l-.34.25s0,.06,0,.06.38-.1.43-.1a5.44,5.44,0,0,1,.61.15.88.88,0,0,1-.33.3,1.47,1.47,0,0,1-.71,0c-.1-.05-.19,0-.06.08a.93.93,0,0,1,.39.24c0,.08-.2.08-.22.08s-.93-.14-1-.15A2.49,2.49,0,0,0,62,25c-.07,0-.19,0-.1.07l.3.2a.71.71,0,0,0,.44.14,4.72,4.72,0,0,0,.51-.09,3,3,0,0,1,.68-.12s.1,0,.09,0a.89.89,0,0,1-.24.18s.56.07.6.11-.25.2-.25.2c.06.24,0,.29,0,.29s-.45-.17-.55-.19a2.14,2.14,0,0,0-.55,0s0,.16.11.17a5,5,0,0,0,.8.26,1.58,1.58,0,0,1,.6.37.17.17,0,0,1-.2.24.48.48,0,0,0-.2,0s.23.39.15.49a.52.52,0,0,1-.47-.24,1.81,1.81,0,0,0,.12.38.63.63,0,0,1-.49-.46c-.12-.41-.15-.47-.22-.55s-.19.08.27.79c0,0,.2.39.1.55s-.73-.73-.79-1.06a3.22,3.22,0,0,0-.13-.7c-.07-.11-.32-.31-.28-.21a3.23,3.23,0,0,0,.23.66c.1.1.47,1.12.5,1.16s-.58.14-.79-.82c0,0-.12-.3-.15,0s-.08.59-.08.59-.27,0-.22-.48.09-.95.08-1a2.39,2.39,0,0,0-.19-.48,4.75,4.75,0,0,0-.62-.38l1,1.71s-.15.22-.44-.36-.16,0-.09.13.17.49.06.56-.28.05-.31,0-.21-.2-.19-.32a1.17,1.17,0,0,0,0-.37.78.78,0,0,0-.21.54c0,.2-.23,0-.17-.29a4.3,4.3,0,0,1,.18-.62c0-.1,0-.38-.06-.18a1.69,1.69,0,0,1-.2.51s-.18-.2-.15-.33.17-.54.2-.69.09-.23,0-.39-.54-.33-.63-.36a1.32,1.32,0,0,1-.28-.09S59.27,24,59.59,24.12Z"></path>
        <path class="cls-17" d="M59.74,26a3.38,3.38,0,0,0,.44.51,1.23,1.23,0,0,0,1-.06,1.6,1.6,0,0,1,1,0s-.58.32-.65.34,0,.16.06.09a1,1,0,0,1,1.16.52,1,1,0,0,1-.94-.09c-.42-.32,0,.13.05.17s.15.18.1.2a3.49,3.49,0,0,1-.65-.39,7,7,0,0,0-.69-.27,2.47,2.47,0,0,0,.28.4,3.83,3.83,0,0,0,.72.49,2.53,2.53,0,0,1,1.25.55c.3.38-.46-.09-.53-.07s.07.15.15.2.33.29.35.42,0,.3-.08.19-.46-.15-.64-.39a1.86,1.86,0,0,0-.39-.43c-.18-.14-.3-.19-.27-.13a1.76,1.76,0,0,0,.2.34c.08.07.2.23.26.25a1.32,1.32,0,0,1,.44.35c.11.16.36.62.32.74s-.27-.07-.4-.21S62,29.4,62,29.39s-.08.08,0,.17.4.6.16.9c0,0-.35.1-.41-.87,0,0,0-.37-.08-.11s.06.52,0,.61-.12.26-.16.21a1.65,1.65,0,0,1-.22-.36,2.09,2.09,0,0,1,0-.56,1,1,0,0,0,.08-.39c0-.11-.08-.37-.12-.26a2.53,2.53,0,0,0,0,.46,3.72,3.72,0,0,1-.14.71s-.14,0-.19-.19a3.49,3.49,0,0,1-.12-.9,3.51,3.51,0,0,0,.11-.51,1.24,1.24,0,0,0-.1-.46c-.07-.15-.14-.36-.15-.22a7.17,7.17,0,0,0,.1.81c0,.12-.08.54-.08.64s-.21-.22-.23-.32a1.14,1.14,0,0,0-.07-.21.09.09,0,0,0-.08.1c0,.09,0,.41-.06.28s-.17-.51-.1-.59.07-.26.08-.29-.18.11-.24.29-.17,0-.08-.26a3.07,3.07,0,0,0,.36-.84,4.56,4.56,0,0,0-.48-1C59.68,26.15,59.58,25.89,59.74,26Z"></path>
        <path class="cls-17" d="M59.63,28.08a.58.58,0,0,0,.25.41,11.93,11.93,0,0,1,1.59.44,1.25,1.25,0,0,1,.46.46.73.73,0,0,1-.57-.05,3.35,3.35,0,0,0-.79-.13c-.07,0,.19.22.27.31s.89.33,1.07.54.29.37-.12.18L61,29.89s.6.57.75.67.27.33-.19.11c0,0,.35.41.31.67,0,0-.33,0-.65-.68,0,0,0,.36-.06.43s-.21.07-.34-.71-.32-.7-.25-.49a2,2,0,0,1,.12.94,1,1,0,0,1-.51-.76c-.06-.55,0-.43-.07-.62s-.37-.6-.42-.7C59.57,28.42,59.47,28.49,59.63,28.08Z"></path>
        <path class="cls-17" d="M59.66,29.67a.79.79,0,0,0,.22.37,2.21,2.21,0,0,1,1.06.79c.32.54-.21.13-.22.13s-.47-.29-.41-.19a2.55,2.55,0,0,0,.32.38c.07.06.37.51.15.4s-.24-.16-.15,0a.54.54,0,0,1,0,.41l-.34-.57c-.09-.15-.15-.05-.14,0s-.11.26-.11.26a.85.85,0,0,1-.19-.32c-.07-.22,0-.45,0-.58s-.15-.49-.23-.4a.41.41,0,0,0,0,.4c.06.1.54.67.73.87s.07.28.07.28l-.32-.14s.32.54.17.68-.4-.06-.64-.84a.84.84,0,0,0-.13-.25c-.07-.06-.12.13-.11.16a3.56,3.56,0,0,1,.22.51,2.26,2.26,0,0,1-.12.89c-.08.09-.24-.57-.23-.68s-.1-.21-.14,0,.06.36-.46.58a.33.33,0,0,1,0-.35.26.26,0,0,0-.17,0c-.08.07,0-.2.2-.44s.3-.3.28-.36-.17.05-.25.14a1.72,1.72,0,0,1-.59.33c-.13,0,.09-.31.09-.31s0-.23.51-.54.47-.63.47-.63a.51.51,0,0,0-.38.34c-.09.29-.73.6-.91.63a.73.73,0,0,1,.14-.53,1.68,1.68,0,0,1,.44-.4l-.53.22a.26.26,0,0,1-.22,0,.72.72,0,0,1,.48-.49c.41-.12.53.05.68-.05a.83.83,0,0,0,.57-.85C59.43,29.33,59.56,28.72,59.66,29.67Z"></path>
        <path class="cls-17" d="M59.37,29.54a4.35,4.35,0,0,0-.55.66,1.07,1.07,0,0,1-.57.66s0-.25,0-.33-.43.52-.73.44c0,0-.1-.34.35-.54,0,0-.34.14-.48.06s.39-.49.42-.5l-.37,0a1.17,1.17,0,0,1,1.24-.58.52.52,0,0,0,.51-.12c.2-.22.22-.31.25-.27A.64.64,0,0,1,59.37,29.54Z"></path>
        <path class="cls-17" d="M59.54,27.83s-.42.22-.47.38a6.71,6.71,0,0,1-.59,1.44c-.17.11-.32-.71,0-1.13,0,0-.4.2-.16.73s-.33.88-.39.61.07-.62,0-.65-.18.17-.09.39-.16.37-.26.41-.17,0-.1-.17.11-.23,0-.23-.13.18-.17.23-.33.21-.31-.11c0,0,0,0,.1-.15s.18-.24.07-.17-.16.18-.21.21-.14.08-.12,0,0-.4.31-.49.61-.23.58-.31-.32.09-.51.25-.43.3-.33-.06a1.06,1.06,0,0,1,.55-.57c.07,0,.84-.08,1-.24s-.68.06-.8.14-.56-.1-.61-.13.1-.16.36-.26a3.87,3.87,0,0,1,1.28-.22c.25,0,.65,0,.79-.16s.12-.12.12,0A.66.66,0,0,1,59.54,27.83Z"></path>
        <path class="cls-17" d="M59.58,25.67s-.43.18-.5.47-.21,1-.27,1.13-.15.14-.15.14a2.22,2.22,0,0,1,.05-.52c0-.09-.09-.16-.12,0a.68.68,0,0,1-.55.61,1.22,1.22,0,0,1,.34-1.1c.49-.46.25-.36.1-.25a2.43,2.43,0,0,0-.56,1,.6.6,0,0,1-.65.39.56.56,0,0,1,.09-.38c.12-.14.49-.44.47-.53s-.27.13-.29.24a1.06,1.06,0,0,1-.62.52c-.22,0,.25-.45.36-.53s-.08-.11-.18,0a.55.55,0,0,1-.51.16s0-.3.43-.43c0,0,.17-.05,0-.08s-.35.18-.5.08.14-.32.23-.36.56.1.68.07.22-.06,0-.14-.49.18-.54.2-.46,0-.29-.36,1.2-.05,1.25-.07.48.11.44-.11-.66.1-1.22-.31.09-.39.2-.36.35.18.36.1-.51-.46-.5-.52.33,0,.83.42.94.49,1.08.43.31-.11.14-.16-1.13-.09-1.25-.16-.31-.17.11-.23.19-.11.11-.11-.51-.08-.52-.5c0,0,.21-.23.54.1s.08,0,0-.1a1,1,0,0,0-.29-.16s-.13-.27.29,0,.61.66.65.56-.39-.76-.31-.78a1,1,0,0,1,.66.51c.21.37.29.8.36.86s.07,0,.16.12S59.58,25.67,59.58,25.67Z"></path>
        <path class="cls-17" d="M59.43,29.65c.09-1.1.09-2.2.17-3.29a7.3,7.3,0,0,0-.05-1.62c-.07-.52-.38-1-.45-1.61a.14.14,0,0,1,.13-.16.16.16,0,0,1,.17.13h0v0c0,.48.28,1,.36,1.57a7.68,7.68,0,0,1,0,1.66A15,15,0,0,0,59.67,28c0,.55,0,1.1,0,1.64a.11.11,0,0,1-.1.11.1.1,0,0,1-.11-.1Z"></path>
        <path class="cls-17" d="M67.57,10.59l.18.19s.1.11-.07.18a2.28,2.28,0,0,1-.5.14,3.79,3.79,0,0,0-.58,0,5.52,5.52,0,0,0-.69.26s-.22.16.08.29a2,2,0,0,0,1-.12s.33-.13.33-.07-.24.18-.26.21-.8.2-.89.23a2.14,2.14,0,0,0-.59.35c0,.09,0,.18.16.14s.66-.21.77-.25.16,0,.12,0-.69.37-.75.43-.25.28-.24.33.15,0,.21,0,.23-.13.2-.07-.29.29-.23.45a1.7,1.7,0,0,0,.29-.09c.06,0,.32-.17.35-.27s.15-.3.21-.31.06,0,0,.1a1.47,1.47,0,0,0-.14.47c0,.06.15.07.21,0s.31-.45.31-.64,0-.37.11-.38.08,0,0,.11-.23.64-.09.79.19-.07.23-.12a7.26,7.26,0,0,0,.27-.7c0-.06,0-.26,0-.36s.26-.53.27-.61.24.43.26.52.15.38.16.43,0,.25,0,.29-.52,1.14-.53,1.2,0,.16,0,.19,0,.08,0,.1a.11.11,0,0,0,.13,0,2.11,2.11,0,0,1,.14-.22s.08-.07.06,0l-.23.59c0,.1,0,.17,0,.18s.13-.09.16-.16.16-.35.16-.35.06,0,.06,0,0,.36,0,.41.23.52.23.52a.86.86,0,0,0,.22-.34,1.45,1.45,0,0,0-.08-.65c0-.08,0-.17.06-.07a.9.9,0,0,0,.28.32c.08,0,0-.19,0-.21s-.27-.82-.3-.91a2.65,2.65,0,0,1-.07-.44c0-.06,0-.17.05-.1l.23.24a.69.69,0,0,1,.2.37c0,.17,0,.46,0,.48a2.09,2.09,0,0,0,0,.62s0,.1,0,.08a.67.67,0,0,0,.12-.24c0-.05.15.49.19.52s.15-.26.15-.26c.21,0,.25-.05.25-.05s-.22-.38-.25-.46a1.74,1.74,0,0,1-.12-.49c0-.05.15,0,.17.07a4.31,4.31,0,0,1,.36.68,1.28,1.28,0,0,0,.43.47c.09,0,.25-.08.18-.21a.41.41,0,0,1-.07-.17s.39.14.47.06a.47.47,0,0,0-.29-.39,1.72,1.72,0,0,1,.36.05.57.57,0,0,0-.49-.36,1.52,1.52,0,0,1-.53-.11c-.08-.05,0-.19.75.11,0,0,.38.11.51,0S70.64,13,70.34,13a3.34,3.34,0,0,1-.65,0c-.12-.05-.34-.24-.24-.22a2.37,2.37,0,0,1,.64.1c.1.07,1.08.24,1.11.26s0-.54-.86-.58c0,0-.28-.05,0-.13l.52-.16s-.06-.24-.47-.12-.83.22-.92.23a1.9,1.9,0,0,1-.46-.1,3.64,3.64,0,0,1-.44-.49l1.69.58s.17-.17-.39-.34,0-.14.09-.1.48.08.52,0,0-.27,0-.28-.21-.15-.32-.12a1.13,1.13,0,0,1-.34,0,.76.76,0,0,1,.45-.27c.2,0,0-.21-.28-.11a3.23,3.23,0,0,0-.53.26c-.08,0-.34,0-.17,0a1.79,1.79,0,0,0,.43-.27S69.42,11,69.3,11s-.45.24-.58.29-.19.11-.35.06S68,11,68,10.87a1.29,1.29,0,0,0-.13-.24S67.37,10.34,67.57,10.59Z"></path>
        <path class="cls-17" d="M69.32,10.43a2.93,2.93,0,0,1,.53.31,1.12,1.12,0,0,1,.09.87,1.51,1.51,0,0,0,.16.92s.19-.57.2-.64.14-.07.1,0a.9.9,0,0,0,.64,1,.88.88,0,0,0-.22-.82c-.36-.33.11,0,.15,0s.18.1.2.05-.4-.47-.45-.52a4.71,4.71,0,0,1-.35-.58,2.32,2.32,0,0,1,.4.19,2.74,2.74,0,0,1,.55.57c.09.19.31.82.69,1s-.15-.39-.15-.46.15,0,.21.1.31.26.43.25.28,0,.16-.09-.21-.4-.45-.52a1.66,1.66,0,0,1-.45-.28c-.15-.14-.22-.24-.16-.23a1.46,1.46,0,0,1,.34.13,1.26,1.26,0,0,1,.27.2,1.25,1.25,0,0,0,.37.34c.17.07.62.22.72.16s-.1-.22-.25-.32-.36-.17-.37-.23.06-.08.16,0,.6.27.83,0c0,0,0-.33-.85-.24,0,0-.33.06-.11-.05s.48,0,.55-.05.22-.15.17-.18a1.13,1.13,0,0,0-.36-.14,1.53,1.53,0,0,0-.5.08,1.11,1.11,0,0,1-.34.14c-.1,0-.34,0-.26-.06a1.87,1.87,0,0,1,.42-.11A3.37,3.37,0,0,0,73,11s0-.12-.2-.14a3.57,3.57,0,0,0-.83,0,3.65,3.65,0,0,1-.44.18,1.3,1.3,0,0,1-.43,0c-.14,0-.34-.08-.22-.1a6.28,6.28,0,0,1,.75,0c.11,0,.47-.16.56-.17s-.24-.16-.33-.16a.91.91,0,0,1-.2,0,.08.08,0,0,1,.08-.08c.08,0,.37-.06.24-.11s-.48-.07-.54,0a.51.51,0,0,1-.25.11s.07-.18.23-.25-.08-.15-.25,0-.54.44-.7.45a4.42,4.42,0,0,1-1-.28C69.41,10.35,69.17,10.3,69.32,10.43Z"></path>
        <path class="cls-17" d="M71.14,10s.29,0,.4.16a12.33,12.33,0,0,0,.65,1.35,1.19,1.19,0,0,0,.48.35.62.62,0,0,0-.12-.5,3.13,3.13,0,0,1-.25-.7c0-.06.23.14.32.2s.44.74.66.88.37.2.14-.14S73,11,73,11a7.43,7.43,0,0,1,.72.57c.11.12.34.19.07-.19,0,0,.42.25.65.17,0,0,0-.29-.71-.47l.38-.12c.06,0,0-.21-.69-.2s-.68-.17-.49-.14.75.06.86-.05a.88.88,0,0,0-.76-.33c-.5,0-.38.07-.56,0s-.6-.24-.7-.26C71.44,9.9,71.48,9.8,71.14,10Z"></path>
        <path class="cls-17" d="M72.57,9.78a.75.75,0,0,1,.37.15c.12.11.34.63.87.82s.09-.2.08-.21-.33-.38-.23-.34.33.18.4.22.51.26.37.08-.18-.2,0-.15a.51.51,0,0,0,.37-.07l-.57-.21c-.15-.07-.07-.13,0-.14s.22-.13.22-.13a.62.62,0,0,0-.31-.12c-.21,0-.4.1-.53.09s-.46-.06-.39-.15a.39.39,0,0,1,.36-.08c.09,0,.68.38.89.52s.27,0,.27,0l-.18-.26s.54.2.63,0c0,0-.11-.35-.85-.44a.8.8,0,0,1-.24-.08c-.07-.05.09-.13.12-.12a4.33,4.33,0,0,0,.49.11,1.94,1.94,0,0,0,.78-.25C75.58,9,75,9,74.87,9s-.2-.06,0-.13.33,0,.45-.51a.29.29,0,0,0-.32,0,.25.25,0,0,1,0-.16c0-.08-.17,0-.36.26s-.22.31-.28.3,0-.16.09-.24a1.79,1.79,0,0,0,.2-.59c0-.11-.26.13-.26.13s-.21.06-.41.55-.5.52-.5.52a.51.51,0,0,1,.25-.4c.25-.12.42-.75.43-.92a.73.73,0,0,0-.46.21,1.84,1.84,0,0,0-.29.46s.09-.4.11-.51a.21.21,0,0,0-.06-.19.65.65,0,0,0-.36.51c0,.38.13.46.06.62a.76.76,0,0,1-.67.64C72.23,9.64,71.7,9.84,72.57,9.78Z"></path>
        <path class="cls-17" d="M72.41,9.54a4.09,4.09,0,0,1,.51-.6,1,1,0,0,0,.5-.61s-.23,0-.3.08.4-.48.29-.74c0,0-.33,0-.44.4,0,0,.08-.32,0-.43s-.38.42-.38.45-.07-.33-.07-.33A1.07,1.07,0,0,0,72.17,9a.45.45,0,0,1,0,.47c-.16.21-.24.24-.2.27A.56.56,0,0,0,72.41,9.54Z"></path>
        <path class="cls-17" d="M70.9,10s.13-.42.27-.49a5.79,5.79,0,0,0,1.2-.76c.07-.17-.69-.16-1,.21,0,0,.12-.39.63-.26s.74-.43.49-.45-.55.17-.58.12.12-.18.33-.13.31-.21.33-.31,0-.15-.17-.06-.19.14-.2.09.15-.15.18-.19.14-.34-.14-.27c0,0,0,0-.12.12s-.19.2-.15.08a.85.85,0,0,1,.16-.21s0-.14-.06-.1-.35.07-.39.35-.11.58-.18.57,0-.3.14-.5.2-.43-.1-.28a1,1,0,0,0-.43.58c0,.06.06.77-.07.89s-.06-.62,0-.74-.17-.49-.21-.53-.13.12-.18.36a3.64,3.64,0,0,0,0,1.19c.08.22.13.58,0,.73s-.1.13,0,.11A.61.61,0,0,0,70.9,10Z"></path>
        <path class="cls-17" d="M69,10.34s.09-.41.34-.53.85-.34,1-.42.1-.15.1-.15a2.35,2.35,0,0,0-.45.12c-.08.05-.16,0,0-.1a.62.62,0,0,0,.46-.6,1.12,1.12,0,0,0-.93.48c-.17.26-.24.33-.26.32s0-.11,0-.19a2.23,2.23,0,0,1,.82-.66A.57.57,0,0,0,70.32,8a.56.56,0,0,0-.33.15c-.11.13-.32.51-.4.5s.07-.27.17-.29a1.06,1.06,0,0,0,.37-.65c0-.2-.37.3-.43.41s-.1-.06,0-.16a.51.51,0,0,0,.06-.49s-.27,0-.32.46c0,0,0,.16-.07,0s.1-.34,0-.46-.26.18-.29.26.19.48.17.6,0,.21-.11.05.08-.47.09-.52-.06-.41-.37-.2S69,8.69,69,8.74s.18.42,0,.41,0-.6-.47-1.05-.33.15-.29.24.21.29.15.31-.49-.38-.55-.37.06.3.51.69.59.76.55.89,0,.3-.11.16-.26-1-.34-1.1-.21-.25-.19.14-.08.19-.09.12a.49.49,0,0,0-.53-.39s-.18.21.18.47,0,.07-.09,0A.76.76,0,0,1,67.5,9s-.27-.07,0,.27.68.45.6.5-.74-.23-.74-.16a.86.86,0,0,0,.55.51c.37.13.77.14.84.19s0,.06.13.13S69,10.34,69,10.34Z"></path>
        <path class="cls-17" d="M72.55,9.77c-.5.08-1,.18-1.5.29a15.14,15.14,0,0,0-1.48.35,7.19,7.19,0,0,1-1.53.25,8.74,8.74,0,0,0-1.5-.08h0a.15.15,0,0,1-.16-.12.14.14,0,0,1,.12-.16h0a12,12,0,0,1,1.55.15,6.93,6.93,0,0,0,1.49-.2c1-.25,2-.43,3-.68a.09.09,0,0,1,.11.07.08.08,0,0,1-.07.11Z"></path>
        <path class="cls-17" d="M58.72,16.22a2.44,2.44,0,0,1,.21-.73c.11-.1.94-.82,1-1s-.7,0-.92.44c0,0,0-.4.54-.4s.6-.58.36-.53-.48.28-.52.24.07-.2.28-.2.25-.27.25-.37-.07-.13-.18,0-.15.18-.17.13.1-.18.13-.22,0-.35-.2-.22c0,0,0,0-.08.14s-.14.23-.12.11a.69.69,0,0,1,.1-.24s0-.14-.08-.08-.32.15-.29.43,0,.58,0,.58-.05-.3,0-.51.08-.45-.17-.24a.92.92,0,0,0-.27.65c0,.07.24.71.15.86s-.2-.58-.17-.7-.29-.42-.33-.45-.09.14-.09.38a3.75,3.75,0,0,0,.28,1.13c.13.18.27.51.16.7s-.07.06.05.09Z"></path>
        <path class="cls-17" d="M62.31,18.14a3.34,3.34,0,0,0-.43.47.68.68,0,0,0,.1.25,4.61,4.61,0,0,0,.56.6,5.61,5.61,0,0,1,.37.6c.07.12.3.3,0,.26a1.42,1.42,0,0,1-.68-.55c0-.07-.1-.11-.09,0a1.71,1.71,0,0,0,.37.49c.09.05.43.53.3.82,0,0-.49-.29-.53-.53s-.12,0,0,.16.38.58,0,.82a.49.49,0,0,1-.33-.5s0-.17-.09.06-.12.35-.17.37-.19-.39,0-.68a1.12,1.12,0,0,0,.14-.58c0-.09-.12.09-.13.17s-.15.43-.32.5a.91.91,0,0,1,0-.82,2.58,2.58,0,0,0,.32-1.08s-.52.44-.64.56a1.09,1.09,0,0,0-.21.55c0,.08.25,1.25.26,1.42a3.58,3.58,0,0,1-.06.59c0,.06-.39-.39-.39-.76s-.08-.41-.14-.26.13,1-.7,1.37a2.06,2.06,0,0,1,.16-.86c.16-.2-.1-.06-.13,0l-.52.3c-.07,0,.11-.29.25-.37s.45-.54.51-.58a4.13,4.13,0,0,0,.35-.76c0-.11-.25,0-.29.07a2.17,2.17,0,0,0-.44.52c-.11.26-.35,1.77-.49,1.39a.59.59,0,0,1,0-.31c0-.17-.27.35-.62.36s0-.28,0-.44.65-.87.66-1-.19,0-.28,0-.41.72-.84.8-.78,0-.68,0a2.39,2.39,0,0,1,.48-.24c.09,0,.27-.16.24-.23s-.43.18-.57.16-.47-.11-.41-.18.19-.21.32-.21a1.3,1.3,0,0,0,.23,0,1.1,1.1,0,0,0-.45-.06c-.15,0-.18,0-.18,0a1.54,1.54,0,0,1,.4-.17l.63.09c.21,0,.41-.14.22-.14s-.84.15-1.14-.1A.94.94,0,0,1,58,20c.54.06.73.31,1,.29s.78-.21.43-.24-1,.13-1.18.11.15-.26-.09-.27a1.63,1.63,0,0,1-.7-.2l0-.06a1.31,1.31,0,0,1,1.07-.07s-.43-.32-.43-.42.47,0,.6,0,.67.4.84.47a1.9,1.9,0,0,0,.75,0c.06,0,.64-.48.7-.51a1.74,1.74,0,0,0-1.2.36.94.94,0,0,1-1.13,0s.45-.09.54-.12.54-.18.36-.21-.48.26-.8.23-.3-.14-.3-.14a2.9,2.9,0,0,1,.45-.16s-.45,0-.56-.19c0,0,.14-.33.85-.18s.1-.16.07-.19-.32-.28-.31-.32.38-.08.86.28.46.22.29.11-.66-.28-.73-.5a1.16,1.16,0,0,1,.89.15c.35.29.66.59,1,.58s.94-.85.94-.85Z"></path>
        <path class="cls-17" d="M60.07,17.13s-.3-.1-.45,0a1.26,1.26,0,0,0-.35.66,2,2,0,0,1-.2.82c-.14.2-.36.32-.3.14a3.84,3.84,0,0,0,.17-.54c0-.08-.25.07-.33.5s-.55.22-.64.36a1.8,1.8,0,0,1,.75-1.44s.3-.25-.29.05-.33,1-.79,1.42-.43.29-.3,0-.1,0-.2.09-.69.22-.32-.19a5.31,5.31,0,0,1,.74-.76c.14-.08.08-.25-.14-.05s-.51.73-.73.82-.78.39-.53.1a6.23,6.23,0,0,0,.57-.61c0-.05-.18,0-.26.11s-.53.45-.78.32c0,0,.22-.19.26-.24s-.5.09-.5,0,0-.38.67-.3c0,0,.16,0,0-.08s-.55-.06-.57-.11a.7.7,0,0,1,.67-.19c.49.06.78.08.79,0s-.66.06-1-.25a1.89,1.89,0,0,1,1-.22c.5.06.75.17.82.14s.58-.23.46-.28-1.28,0-1.43-.2a.9.9,0,0,1,.87-.22s-.29-.24-.29-.31.63,0,.81.14a1.08,1.08,0,0,0,.63.25l.72-.13C59.76,17,59.93,16.91,60.07,17.13Z"></path>
        <path class="cls-17" d="M58.58,16.35a1.16,1.16,0,0,0-1,0,7.91,7.91,0,0,0-1.15,1.4s-.11-.18-.07-.29-.56.27-.77.14a3.3,3.3,0,0,1,.85-.7c.32-.12.34-.29.33-.32s-.79.84-1.19.89-.62,0-.59,0a3,3,0,0,1,.7-.42c.2-.07.27-.22.11-.19s-.51.59-1.17.43c0,0,.47-.33.52-.34s-.46.07-.62-.17a1.81,1.81,0,0,1,.84-.18c.39,0,.13-.17,0-.17a2.16,2.16,0,0,1-.51,0s.55-.64,1.36,0c0,0,.38,0,.06-.12s-.65-.11-.8-.41a.66.66,0,0,1,.5-.14A5.85,5.85,0,0,1,57,16c0,.09.62,0,.74,0s-.69-.28-.73-.28a.62.62,0,0,0-.72.27c-.24.4-1.18.34-1.32.37s.55-.53.75-.56a4.13,4.13,0,0,0-.58.16,2.65,2.65,0,0,1-.81.14c-.12,0,.41-.39.54-.36s-.53.1-.63-.2a2.12,2.12,0,0,1,.84-.06s-.4-.33-.4-.39.39-.08,1,.17.65,0,.65,0a.41.41,0,0,0-.49-.2,4.74,4.74,0,0,1-1.55,0,.76.76,0,0,1-.48-.34,6.25,6.25,0,0,1,.85-.06l.42.1c.1,0,.44,0,.27-.1s-.8,0-1.05-.1a1.57,1.57,0,0,1-.52-.38,1.89,1.89,0,0,1,.78,0c.18.11.16,0,.09-.09s-.31.07-.49-.2-.13-.38-.13-.38.52.08.61.26.16,0,0-.22a.77.77,0,0,1-.2-.49,1,1,0,0,1,.74.77c.19.67.38.23.19.11a1.58,1.58,0,0,1-.4-1c.08-.15.43.24.48.5a1.57,1.57,0,0,0,.06-.3,1.23,1.23,0,0,1,.38,1c0,.67.34.62.36.65a2.7,2.7,0,0,0-.22-.6.91.91,0,0,1-.22-.74.27.27,0,0,1,.24.19,2.92,2.92,0,0,1,0-.68s.56.15.47,1c0,0,.17-.58.33-.59a5.2,5.2,0,0,1,0,.9c0,.29,0,.84.11,1a4.87,4.87,0,0,0,.43.31,2,2,0,0,0-.3-.78,1.7,1.7,0,0,1-.44-1.49,2.08,2.08,0,0,0,.29.19.74.74,0,0,1-.14-.6s.46.16.55.41l.16-.19a.92.92,0,0,1,.21.71s.3-.09.31,0a3.17,3.17,0,0,1,0,.81c-.08.17-.32.36-.31.51a1,1,0,0,0,.18.6,4.81,4.81,0,0,0,1.11.69C59.25,16.42,58.76,16.42,58.58,16.35Z"></path>
        <path class="cls-17" d="M61.31,17.54s0-.62-.2-.76-1-.53-1.11-.67a4,4,0,0,1,.44,0c.11,0-.45-.33-.39-.76a.89.89,0,0,1,.62.26c.18.25.42.63.52.64s0-.49-.28-.56A2.78,2.78,0,0,1,60,14.31a2.28,2.28,0,0,1,1,.76A2.66,2.66,0,0,1,60.48,14a1.4,1.4,0,0,1,.42.28c.15.16-.26-.28-.12-.64,0,0,.43,0,.53.61,0,0,.33.07.32.3s.2.06.17.3-.42.5-.28.91.31-.88.39-.9a.11.11,0,0,1,.11.06s.38-.67.47-.54a.43.43,0,0,1,0,.33s.25-.07.27,0-.26.31-.28.38a3.28,3.28,0,0,1-.51.8c-.16.12-.6.8-.5,1.05s.62-1,.62-1,.19-.35.32-.29-.13.35-.06.4.53-.48.69-.31S63,16,63,16s.15,0,.15.1-.28.29-.34.34.3,0,.32,0-.46.48-.55.57a8.57,8.57,0,0,1-.91.28c-.09.06-.24.1-.18.24S61.33,17.77,61.31,17.54Z"></path>
        <path class="cls-17" d="M57.93,15.76c.9.5,1.81,1,2.73,1.45s1.9.81,2.88,1.17a.18.18,0,0,1-.12.34h0c-.92-.46-1.86-.88-2.8-1.29s-1.83-1-2.76-1.44a.12.12,0,0,1,.11-.21Z"></path>
        <path class="cls-12" d="M63.9,47.4a3.76,3.76,0,0,0-1.43-1.55,22,22,0,0,1,.52,2.6h1.25A4.17,4.17,0,0,0,63.9,47.4Z"></path>
        <path class="cls-13" d="M62.6,46a.22.22,0,0,0-.13-.15l0,0c-.08,0-.14.08-.18.21a1,1,0,0,0-.05.12.65.65,0,0,1-.77.31c-.07,0-.14.06-.18.18a13.79,13.79,0,0,0-.35,1.8h2.32A13.1,13.1,0,0,0,62.6,46Z"></path>
        <path class="cls-14" d="M61.38,46.47c-.36-.08-.24-.55-.24-.55s-1.07.44-1.69,2.53h1.61C61.27,46.48,61.49,46.5,61.38,46.47Z"></path>
        <path class="cls-15" d="M60.55,48.05a4.87,4.87,0,0,0,1.2.15,3,3,0,0,0,1.19-.15.05.05,0,0,1,.07,0,.06.06,0,0,1,0,.07,3.65,3.65,0,0,1-2.46,0s-.05,0,0-.06A.06.06,0,0,1,60.55,48.05Z"></path>
        <path class="cls-8" d="M61.82,54.84a1.44,1.44,0,0,0-1.38-.51c-.77.24-1.07.84-.94,1.06a3.54,3.54,0,0,0,.28.29c.2.19.6-.34.62-.35Z"></path>
        <path class="cls-21" d="M62.22,55.76s-.24-1-.64-1.06-.83-.07-.83-.07l-.11.19s.39.69.54.74.46.13.53.16A3.44,3.44,0,0,0,62.22,55.76Z"></path>
        <path class="cls-10" d="M62.19,55.89c0-.09.1-.33-.15-.4a3.06,3.06,0,0,0-.51-.11l-.75.55c-.13.07-.21.06.15.17s.36.2.69.16A1,1,0,0,0,62.19,55.89Z"></path>
        <path class="cls-11" d="M61.53,55.38a3.93,3.93,0,0,0-.46.45c-.18.22-.22.28-.44.17s-.79-.19-.94-.41-.14-.19,0-.46a1.19,1.19,0,0,1,.74-.45.64.64,0,0,1,.73.16A1.8,1.8,0,0,1,61.53,55.38Z"></path>
        <path class="cls-8" d="M42.21,47.71a2.13,2.13,0,0,0-2.14-.31c-1,.58-1.28,1.54-1,1.81a4.67,4.67,0,0,0,.5.34c.33.2.75-.68.78-.69Z"></path>
        <path class="cls-21" d="M43.06,48.91s-.66-1.42-1.23-1.32a11.13,11.13,0,0,1-1.22.15l-.11.31s.77.86,1,.89.7.05.8.07A5.5,5.5,0,0,0,43.06,48.91Z"></path>
        <path class="cls-10" d="M43.06,49.11c0-.14,0-.5-.35-.53a5.52,5.52,0,0,0-.76,0s-.75.87-.91,1-.27.15.28.2.57.18,1,0A1.51,1.51,0,0,0,43.06,49.11Z"></path>
        <path class="cls-11" d="M42,48.58a6,6,0,0,0-.52.79c-.19.36-.22.47-.57.38s-1.2,0-1.48-.31-.27-.23-.08-.67a1.71,1.71,0,0,1,.92-.87,1,1,0,0,1,1.1,0A2.48,2.48,0,0,1,42,48.58Z"></path>
        <path class="cls-8" d="M56.06,44.88s-4.42-2.21-7.5.48-3.24,6.15-2.18,6.9a15.06,15.06,0,0,0,1.93.77c1.28.47,2.07-2.85,2.14-2.9S56.06,44.88,56.06,44.88Z"></path>
        <path class="cls-21" d="M59.83,48.36S56.55,44,54.69,44.74s-4,1.39-4,1.39l-.13,1.12s3.23,2.39,4.08,2.32,2.39-.35,2.76-.36A18.42,18.42,0,0,0,59.83,48.36Z"></path>
        <path class="cls-10" d="M60,49c-.05-.49-.23-1.74-1.55-1.57a19,19,0,0,0-2.6.55s-1.93,3.51-2.36,4.11-.82.74,1.1.49,2.07.2,3.52-.68A4.93,4.93,0,0,0,60,49Z"></path>
        <path class="cls-11" d="M55.81,48a21.91,21.91,0,0,0-1.2,3.05c-.4,1.39-.42,1.78-1.69,1.71s-4.1.75-5.23,0-1.08-.61-.76-2.23,1-2.37,2.5-3.62a3.28,3.28,0,0,1,3.74-.78A8.36,8.36,0,0,1,55.81,48Z"></path>
        <path class="cls-8" d="M73.05,46.29s-2.55-3.46-6-2.61-4.95,3.47-4.43,4.47a12,12,0,0,0,1.19,1.37c.8.87,2.73-1.39,2.81-1.39Z"></path>
        <path class="cls-21" d="M74.58,50.48s-.79-4.69-2.54-4.84-3.69-.53-3.69-.53l-.54.81s1.55,3.13,2.24,3.42,2,.67,2.27.82A16,16,0,0,0,74.58,50.48Z"></path>
        <path class="cls-10" d="M74.41,51.05c.16-.39.52-1.44-.57-1.83a16.38,16.38,0,0,0-2.23-.6s-2.89,2-3.46,2.24-.93.24.65.81,1.53,1,3,.88A4.32,4.32,0,0,0,74.41,51.05Z"></path>
        <path class="cls-11" d="M71.61,48.62a19.2,19.2,0,0,0-2.15,1.88c-.86.92-1,1.2-2,.65s-3.47-1-4.06-2.06-.59-.9.29-2,1.76-1.42,3.38-1.81a2.87,2.87,0,0,1,3.21.88A7.44,7.44,0,0,1,71.61,48.62Z"></path>
        <path class="cls-8" d="M61.22,48.08s-3.65-2.82-7-.91-4.07,5-3.24,5.93a15.07,15.07,0,0,0,1.63,1.06c1.09.66,2.41-2.24,2.49-2.27S61.22,48.08,61.22,48.08Z"></path>
        <path class="cls-21" d="M64.05,52S61.83,47.35,60,47.71s-4,.55-4,.55l-.31,1S58.23,52,59,52.12s2.25.11,2.59.17A17.05,17.05,0,0,0,64.05,52Z"></path>
        <path class="cls-10" d="M64,52.59c0-.45.11-1.63-1.13-1.71a17.66,17.66,0,0,0-2.48,0S58,53.78,57.52,54.26s-.89.52.92.64,1.86.56,3.35,0A4.67,4.67,0,0,0,64,52.59Z"></path>
        <path class="cls-11" d="M60.43,50.92a21.38,21.38,0,0,0-1.66,2.57c-.62,1.2-.7,1.55-1.85,1.26s-3.89,0-4.8-.92-.88-.75-.3-2.17,1.39-2,3-2.87a3.07,3.07,0,0,1,3.57,0A8.11,8.11,0,0,1,60.43,50.92Z"></path>
        <path class="cls-8" d="M80.22,54.49a2.21,2.21,0,0,0,2-1c.55-1.1.19-2.08-.19-2.16a4.6,4.6,0,0,0-.63,0c-.4,0-.24,1-.25,1.05S80.22,54.49,80.22,54.49Z"></path>
        <path class="cls-21" d="M78.78,54s1.41.84,1.84.41,1-.85,1-.85l-.09-.32a4.45,4.45,0,0,0-1.4-.18c-.23.12-.62.38-.72.42A5.79,5.79,0,0,0,78.78,54Z"></path>
        <path class="cls-10" d="M78.66,53.78c.07.13.27.46.61.26a5.72,5.72,0,0,0,.66-.45s.13-1.2.18-1.42.15-.3-.36,0-.6.19-.9.6A1.5,1.5,0,0,0,78.66,53.78Z"></path>
        <path class="cls-11" d="M79.93,53.59a7.08,7.08,0,0,0,0-1c0-.43-.08-.54.27-.67s1.06-.68,1.45-.61.37,0,.47.53a1.78,1.78,0,0,1-.27,1.29,1,1,0,0,1-1,.65A2.53,2.53,0,0,1,79.93,53.59Z"></path>
        <path class="cls-8" d="M31.55,57a2.2,2.2,0,0,0,2-1c.54-1.1.19-2.08-.19-2.16a3.4,3.4,0,0,0-.63,0c-.41,0-.24,1-.26,1.05S31.55,57,31.55,57Z"></path>
        <path class="cls-21" d="M30.1,56.49s1.42.84,1.85.41,1-.85,1-.85l-.09-.32a4.45,4.45,0,0,0-1.4-.18c-.23.12-.62.38-.73.42A5.66,5.66,0,0,0,30.1,56.49Z"></path>
        <path class="cls-10" d="M30,56.32c.07.13.26.46.61.26a5.16,5.16,0,0,0,.66-.46s.13-1.19.18-1.41.14-.3-.36,0-.6.19-.9.6A1.5,1.5,0,0,0,30,56.32Z"></path>
        <path class="cls-11" d="M31.26,56.12a6.94,6.94,0,0,0,0-1c0-.43-.09-.54.27-.67s1.05-.68,1.45-.61.37,0,.47.53a1.74,1.74,0,0,1-.28,1.29,1,1,0,0,1-.95.65A2.44,2.44,0,0,1,31.26,56.12Z"></path>
        <path class="cls-8" d="M45.46,55.27a2.8,2.8,0,0,0,2.66-1.1c.79-1.35.42-2.63,0-2.77a5.79,5.79,0,0,0-.8,0c-.52,0-.4,1.29-.42,1.31S45.46,55.27,45.46,55.27Z"></path>
        <path class="cls-21" d="M43.66,54.47s1.73,1.19,2.31.68,1.3-1,1.3-1l-.09-.42a5.55,5.55,0,0,0-1.77-.34c-.3.13-.82.42-1,.46A8.14,8.14,0,0,0,43.66,54.47Z"></path>
        <path class="cls-10" d="M43.53,54.24c.08.17.3.6.75.38a6.73,6.73,0,0,0,.88-.52s.27-1.51.35-1.78.21-.37-.45,0-.78.19-1.2.68A1.92,1.92,0,0,0,43.53,54.24Z"></path>
        <path class="cls-11" d="M45.16,54.1a9.27,9.27,0,0,0,.07-1.26c0-.55-.07-.69.4-.82s1.4-.78,1.9-.65.46.09.55.71a2.28,2.28,0,0,1-.47,1.62,1.25,1.25,0,0,1-1.26.75A3.21,3.21,0,0,1,45.16,54.1Z"></path>
        <path class="cls-8" d="M55.6,53.3a1.8,1.8,0,0,1,1.65-.25c.81.37,1,1,.83,1.21a2.57,2.57,0,0,1-.38.24c-.25.15-.59-.45-.61-.46S55.6,53.3,55.6,53.3Z"></path>
        <path class="cls-21" d="M55,54.14s.48-1,.92-.93,1,.08,1,.08l.09.21s-.58.6-.77.63-.53,0-.61.06S55,54.14,55,54.14Z"></path>
        <path class="cls-10" d="M55,54.27a.27.27,0,0,1,.25-.37,4,4,0,0,1,.59,0s.6.58.72.67.22.1-.21.14-.44.14-.8,0A1,1,0,0,1,55,54.27Z"></path>
        <path class="cls-11" d="M55.82,53.89a5.07,5.07,0,0,1,.42.52c.16.25.18.32.45.25s.93,0,1.14-.23.2-.17.05-.46a1.28,1.28,0,0,0-.74-.58.82.82,0,0,0-.85,0A1.71,1.71,0,0,0,55.82,53.89Z"></path>
        <path class="cls-8" d="M70.5,49.11S67.07,46.57,64,48.4s-3.68,4.75-2.89,5.54a12.89,12.89,0,0,0,1.53,1c1,.59,2.19-2.12,2.26-2.15S70.5,49.11,70.5,49.11Z"></path>
        <path class="cls-21" d="M73.19,52.64s-2.14-4.23-3.84-3.85-3.65.58-3.65.58l-.28.93s2.39,2.52,3.13,2.58,2.08.06,2.4.11A15.62,15.62,0,0,0,73.19,52.64Z"></path>
        <path class="cls-10" d="M73.2,53.23c0-.43.07-1.52-1.08-1.57a16.91,16.91,0,0,0-2.3.08s-2.17,2.7-2.62,3.15-.82.5.86.58,1.73.48,3.1,0A4.29,4.29,0,0,0,73.2,53.23Z"></path>
        <path class="cls-11" d="M69.82,51.74a19.88,19.88,0,0,0-1.48,2.42c-.55,1.12-.62,1.45-1.69,1.2s-3.6,0-4.46-.76-.83-.68-.32-2,1.25-1.86,2.68-2.7a2.85,2.85,0,0,1,3.3-.12A7.46,7.46,0,0,1,69.82,51.74Z"></path>
        <path class="cls-8" d="M52.19,53.07s-2.81-.51-4.09,1.49-.8,3.93-.09,4.18a8.2,8.2,0,0,0,1.19.11c.79.06.69-1.91.72-2S52.19,53.07,52.19,53.07Z"></path>
        <path class="cls-21" d="M54.85,54.4s-2.53-1.91-3.44-1.18-2,1.43-2,1.43l.11.64a8.66,8.66,0,0,0,2.64.63c.46-.18,1.27-.58,1.48-.65A10.6,10.6,0,0,0,54.85,54.4Z"></path>
        <path class="cls-10" d="M55,54.75c-.1-.26-.4-.93-1.11-.62a11.23,11.23,0,0,0-1.35.73s-.51,2.26-.65,2.66-.34.54.69.09,1.18-.22,1.85-.94A2.89,2.89,0,0,0,55,54.75Z"></path>
        <path class="cls-11" d="M52.56,54.86a13.43,13.43,0,0,0-.18,1.88c0,.84.06,1.06-.66,1.22s-2.15,1.08-2.9.87-.7-.17-.78-1.12a3.38,3.38,0,0,1,.8-2.41,1.9,1.9,0,0,1,1.95-1A4.82,4.82,0,0,1,52.56,54.86Z"></path>
      </g>
    </g>
  </g>
</svg>
