<?xml version="1.0" encoding="UTF-8"?>
<svg xmlns="http://www.w3.org/2000/svg" xmlns:xlink="http://www.w3.org/1999/xlink" viewBox="0 0 110.57 173.27">
  <defs>
    <style>.cls-1,.cls-19{fill:none;}.cls-2{fill:#956d4b;}.cls-3{clip-path:url(#clip-path);}.cls-4{fill:url(#Безымянный_градиент_2);}.cls-5{fill:#754120;}.cls-6{fill:#44281c;}.cls-7{fill:#6c3c1d;}.cls-8{fill:#714d31;}.cls-9{fill:#613822;}.cls-10{fill:#7f5637;}.cls-11{fill:#a07850;}.cls-12{fill:#faf7cd;}.cls-13{fill:#f5daa5;}.cls-14{fill:#d3b473;}.cls-15{fill:#8b5b3c;}.cls-16{fill:#8cb63c;}.cls-17{fill:#559d42;}.cls-18{fill:#6eaa41;}.cls-19{stroke:#6eaa41;stroke-linecap:round;stroke-linejoin:round;stroke-width:0.72px;}.cls-20{fill:#613922;}</style>
    <clipPath id="clip-path">
      <polygon class="cls-1" points="7.92 144.6 57.88 168.12 104.11 144.71 56.05 124.35 7.92 144.6"></polygon>
    </clipPath>
    <linearGradient id="Безымянный_градиент_2" x1="-3213.97" y1="-430.63" x2="-3211.17" y2="-430.63" gradientTransform="matrix(34.36, 0, 0, -34.36, 110416.25, -14648.68)" gradientUnits="userSpaceOnUse">
      <stop offset="0" stop-color="#a17551"></stop>
      <stop offset="0.38" stop-color="#a17551"></stop>
      <stop offset="0.89" stop-color="#7a4928"></stop>
      <stop offset="1" stop-color="#72401f"></stop>
    </linearGradient>
  </defs>
  <g id="Слой_2" data-name="Слой 2">
    <g id="Слой_1-2" data-name="Слой 1">
      <path class="cls-2" d="M57.88,102s9.63,11.3,17.06,11.77,32.81-7.57,32.81-7.57l2.56-26.43L57.88,61.24Z"></path>
      <path class="cls-2" d="M.19,77.86l5.23,34.47s18.58,2.79,21.83,1.86,18.12-6.51,22.3-6.51S57.88,102,57.88,102V61.24Z"></path>
      <g class="cls-3">
        <rect class="cls-4" x="31.58" y="97.03" width="48.87" height="98.4" transform="translate(-93.02 194.31) rotate(-86.92)"></rect>
      </g>
      <path class="cls-5" d="M7.92,144.6l-2.5-32.27s23.69-.46,30.2-3.72S57.88,102,57.88,102l-1.83,22.39Z"></path>
      <path class="cls-6" d="M41.68,114.34a8.35,8.35,0,0,0-2.83-1.67v0s-3.78-1.13-5.85,1.41-1.7,5.29-.77,5.73a10.92,10.92,0,0,0,1.63.35l.1,0a28.09,28.09,0,0,0,3.5-.79,1.83,1.83,0,0,0,.61-.16l.65-.19c1.48-.46,1.66-.13,2.69-1a4,4,0,0,0,1.08-2.54l-.21-.51h0l0,0a1,1,0,0,0-.59-.5"></path>
      <path class="cls-6" d="M21.4,117.66a11,11,0,0,0-4,1.33v0s-4.3,2.7-3.59,6.84,3.66,6.13,4.88,5.6a13.64,13.64,0,0,0,1.71-1.28l0-.13c.92-1.05,1.6-3.16,2.21-4.05a2.38,2.38,0,0,0,.36-.72c.1-.21.21-.42.37-.79.81-1.82,1.28-1.71,1.29-3.46a5.12,5.12,0,0,0-1.54-3.21,3.47,3.47,0,0,0-.65-.22v0h-.07a1.26,1.26,0,0,0-1,.13"></path>
      <path class="cls-7" d="M57.88,102l-1.83,22.39,48.06,20.36,3.64-38.55s-15-1.73-21.48-.8S68.44,109.08,65,107.22A45.07,45.07,0,0,1,57.88,102"></path>
      <path class="cls-6" d="M39.58,125a3.48,3.48,0,0,0-1.25-.31h0a2.29,2.29,0,0,0-2,1.18c-.49,1.19,0,2.18.35,2.24l.65-.06,0,0a12.3,12.3,0,0,0,1.23-.69l.21-.13L39,127c.5-.34.61-.24.89-.69a1.5,1.5,0,0,0,.12-1.07l-.13-.17h0Z"></path>
      <path class="cls-6" d="M86.66,115.32a2.32,2.32,0,0,0-.11-.89h0s-.38-1-1.27-1-1.43.51-1.37.78l.2.41,0,0,.75.63.14.1.14.11c.35.24.31.34.67.41a1,1,0,0,0,.73-.19l.07-.12h0v-.23Z"></path>
      <path class="cls-6" d="M100.09,131.51a11.07,11.07,0,0,0-1.91-3.82h0s-3.31-3.9-7.35-2.59-5.6,4.53-4.89,5.68a13.68,13.68,0,0,0,1.53,1.52l.13,0c1.19.77,3.39,1.13,4.37,1.61a2.24,2.24,0,0,0,.77.26c.22.07.45.15.84.26,1.94.54,1.9,1,3.64.79a5.19,5.19,0,0,0,3-2,3,3,0,0,0,.13-.68h0v-.07a1.31,1.31,0,0,0-.28-1"></path>
      <path class="cls-6" d="M74,118.22a8.59,8.59,0,0,0-1.87,2.69v0s-1.4,3.67,1,5.9,5.11,2.09,5.62,1.19a11,11,0,0,0,.46-1.59l0-.09a27.75,27.75,0,0,0-.52-3.54,1.8,1.8,0,0,0-.11-.61c0-.17-.07-.35-.14-.66-.34-1.49,0-1.65-.81-2.73a4,4,0,0,0-2.44-1.27l-.51.17h0l0,0a.91.91,0,0,0-.54.53"></path>
      <path class="cls-8" d="M74.15,145.6a1.58,1.58,0,0,0,1.57-.41c.54-.7.43-1.44.17-1.55l-.44-.09c-.29,0-.32.7-.33.71Z"></path>
      <path class="cls-9" d="M73.21,145s.88.79,1.24.55a8.71,8.71,0,0,1,.8-.46l0-.24-1-.32-.57.19Z"></path>
      <path class="cls-10" d="M73.15,144.89c0,.1.12.36.4.27s.53-.23.53-.23l.32-1c.07-.14.15-.19-.25-.06s-.45,0-.72.3a1.07,1.07,0,0,0-.28.69"></path>
      <path class="cls-11" d="M74.08,144.93a4.61,4.61,0,0,0,.12-.7c0-.3,0-.39.29-.42s.83-.34,1.1-.23.26.09.26.44a1.26,1.26,0,0,1-.38.87.72.72,0,0,1-.76.32,1.79,1.79,0,0,1-.63-.28"></path>
      <path class="cls-8" d="M63.47,139.48s2.39.12,3.24-1.67.26-3.36-.36-3.49a7.46,7.46,0,0,0-1,0c-.65,0-.37,1.67-.39,1.7Z"></path>
      <path class="cls-9" d="M61.12,138.65s2.3,1.32,3,.62,1.53-1.4,1.53-1.4l-.16-.52a7.5,7.5,0,0,0-2.26-.25c-.37.2-1,.62-1.16.69Z"></path>
      <path class="cls-10" d="M60.93,138.38c.11.21.44.73,1,.4a8.38,8.38,0,0,0,1-.75s.19-1.94.26-2.29.23-.48-.58,0-1,.31-1.44,1a2.41,2.41,0,0,0-.28,1.66"></path>
      <path class="cls-11" d="M63,138a11.07,11.07,0,0,0,0-1.59c-.09-.7-.15-.87.42-1.08s1.68-1.13,2.33-1,.6.07.77.84a2.89,2.89,0,0,1-.42,2.1,1.58,1.58,0,0,1-1.51,1.07A4,4,0,0,1,63,138"></path>
      <path class="cls-8" d="M53.51,147.24s1.87,1.42,3.54.43,2.05-2.58,1.62-3a7.68,7.68,0,0,0-.83-.53c-.56-.33-1.22,1.15-1.25,1.17Z"></path>
      <path class="cls-9" d="M52.06,145.29s1.14,2.33,2.08,2.14,2-.3,2-.3l.15-.5s-1.29-1.4-1.69-1.44-1.15-.05-1.32-.08Z"></path>
      <path class="cls-10" d="M52.06,145c0,.23-.05.83.58.87a10.13,10.13,0,0,0,1.26,0l1.46-1.71c.25-.25.45-.27-.47-.33s-1-.27-1.7,0A2.36,2.36,0,0,0,52.06,145"></path>
      <path class="cls-11" d="M53.9,145.81a11.63,11.63,0,0,0,.83-1.32c.31-.61.35-.79.93-.65s2,0,2.44.45.45.38.17,1.1a2.81,2.81,0,0,1-1.49,1.47,1.58,1.58,0,0,1-1.81,0,4.06,4.06,0,0,1-1.07-1.09"></path>
      <path class="cls-8" d="M49.22,140.81a2.68,2.68,0,0,0,.09-2.73c-.86-1.21-2.1-1.39-2.41-1l-.35.68c-.21.44,1,.84,1,.87Z"></path>
      <path class="cls-9" d="M47.82,142s1.7-1,1.49-1.72a15.08,15.08,0,0,1-.35-1.51l-.4-.09s-1,1.08-1,1.39,0,.87,0,1Z"></path>
      <path class="cls-10" d="M47.58,142.07c.18,0,.64,0,.62-.51a6,6,0,0,0-.11-1l-1.4-1c-.2-.17-.23-.32-.21.38s-.15.74.12,1.3a1.79,1.79,0,0,0,1,.79"></path>
      <path class="cls-11" d="M48.09,140.61a8.8,8.8,0,0,0-1.06-.55c-.48-.19-.62-.21-.55-.67s-.12-1.51.18-1.89.26-.37.83-.2a2.14,2.14,0,0,1,1.22,1,1.18,1.18,0,0,1,.14,1.38,3,3,0,0,1-.76.89"></path>
      <path class="cls-8" d="M40.75,142.82a1.17,1.17,0,0,0,.39-1.12c-.21-.61-.7-.84-.87-.73l-.23.23.29.49Z"></path>
      <path class="cls-9" d="M40,143.15s.84-.2.84-.52a5.52,5.52,0,0,1,0-.67l-.16-.09-.58.45-.12.42Z"></path>
      <path class="cls-10" d="M39.91,143.13l.32-.13.08-.41-.45-.59c-.06-.1-.06-.16-.14.13s-.15.29-.12.55a.76.76,0,0,0,.31.45"></path>
      <path class="cls-11" d="M40.31,142.59l-.37-.36-.15-.35.32-.76.37,0a.89.89,0,0,1,.37.58.51.51,0,0,1-.11.59Z"></path>
      <path class="cls-8" d="M38.15,147.49s1.64-2.63.14-4.72-3.66-2.39-4.19-1.77a8.62,8.62,0,0,0-.6,1.16c-.37.77,1.66,1.46,1.69,1.51Z"></path>
      <path class="cls-9" d="M35.75,149.65s2.94-1.8,2.57-3a26.63,26.63,0,0,1-.64-2.62l-.69-.14s-1.69,1.88-1.69,2.42.08,1.51.06,1.75Z"></path>
      <path class="cls-10" d="M35.32,149.69c.31,0,1.1,0,1.08-.88a11.58,11.58,0,0,0-.2-1.66s-2.08-1.41-2.43-1.72-.41-.56-.37.66-.25,1.29.22,2.25a3.11,3.11,0,0,0,1.7,1.35"></path>
      <path class="cls-11" d="M36.2,147.15a14.53,14.53,0,0,0-1.83-.93c-.85-.33-1.09-.37-1-1.16s-.22-2.61.29-3.27.45-.64,1.44-.35a3.69,3.69,0,0,1,2.12,1.78,2.09,2.09,0,0,1,.28,2.39,5.35,5.35,0,0,1-1.32,1.54"></path>
      <path class="cls-12" d="M62,106.42a10.64,10.64,0,0,1,2.58,0A9.66,9.66,0,0,1,67,107a7.46,7.46,0,0,1,3.82,3.37c1.61,3,1.24,6.31.92,9.15l-1.07,8.69a22.42,22.42,0,0,0,.12,8.64c-1-2.76-1-5.8-.86-8.7l.32-8.74a25.67,25.67,0,0,0-.1-4.23l-.15-1-.28-1a3.39,3.39,0,0,0-.36-.9,3.74,3.74,0,0,0-.45-.81,5,5,0,0,0-2.79-2.07,7.13,7.13,0,0,0-1.8-.29,8.18,8.18,0,0,0-1.78.16Z"></path>
      <ellipse class="cls-13" cx="56.71" cy="106.64" rx="7.74" ry="6.05"></ellipse>
      <path class="cls-14" d="M49,106.64A7,7,0,0,0,53,111.15a8.39,8.39,0,0,0,8.77-.56,5.64,5.64,0,0,0,2-2.29,2.83,2.83,0,0,0-.67-2.78,6.36,6.36,0,0,0-2.73-1.6l0-.11a6.55,6.55,0,0,1,2.95,1.48,3.86,3.86,0,0,1,.9,1.44,2.65,2.65,0,0,1,.06,1.76,6.22,6.22,0,0,1-2.1,2.69,9.54,9.54,0,0,1-3,1.58,8.94,8.94,0,0,1-3.42.4,8.32,8.32,0,0,1-1.71-.32,12.26,12.26,0,0,1-1.59-.68,6.31,6.31,0,0,1-3.54-5.52Z"></path>
      <path class="cls-12" d="M70.42,113.27a12.93,12.93,0,0,1-4.13,2.22c-1.49.49-3,.52-4.45,1.11,1.34-.75,2.92-.95,4.27-1.58a11.81,11.81,0,0,0,3.64-2.5Z"></path>
      <path class="cls-12" d="M71.53,113.67c2.77.87,5,2.65,7.12,4.36a22.11,22.11,0,0,0-7.36-3.39Z"></path>
      <path class="cls-12" d="M71.18,121.09a4.17,4.17,0,0,1-2,1.41c-.71.23-1.45.45-2.14.7a15.69,15.69,0,0,0-3.73,2.42,15.62,15.62,0,0,1,3.52-2.87c.68-.34,1.36-.62,2-.94a3.37,3.37,0,0,0,1.5-1.26Z"></path>
      <path class="cls-12" d="M71.07,124.44a6.73,6.73,0,0,0,2.52,1.89,9.19,9.19,0,0,1,2.78,1.91,8.88,8.88,0,0,0-3-1.45,7.54,7.54,0,0,1-3.09-1.71Z"></path>
      <polygon class="cls-15" points="0 78.16 57.93 103.67 110.57 80.14 57.93 60.57 0 78.16"></polygon>
      <path class="cls-16" d="M61.21,41.71s3-9,11.34-6.46c0,0,3.26,1.59,4.53,3.23s4.2.25,5.44,3.63,4.4,6.46,3.84,7.29S63.16,46.62,61.21,41.71Z"></path>
      <path class="cls-17" d="M61.17,41.8s2.81-8.41,10.6-6a15.21,15.21,0,0,1,4.23,3c1.19,1.52,3.93.23,5.09,3.39s4.11,6,3.58,6.82S63,46.39,61.17,41.8Z"></path>
      <path class="cls-18" d="M63.76,43.47A11.59,11.59,0,0,0,66,43a13.4,13.4,0,0,0,2.19-.89,12,12,0,0,0,3.71-3,12.15,12.15,0,0,1-3.54,3.27,12.89,12.89,0,0,1-4.55,1.73.34.34,0,0,1-.11-.67h0Z"></path>
      <path class="cls-18" d="M70.53,46.53a7.44,7.44,0,0,0,2.25-.42,13.31,13.31,0,0,0,2.15-1,16.08,16.08,0,0,0,2-1.33,22.22,22.22,0,0,0,1.77-1.6A22.59,22.59,0,0,1,77,43.92a15,15,0,0,1-1.91,1.45,12.1,12.1,0,0,1-2.15,1.1,8.2,8.2,0,0,1-2.39.58.26.26,0,1,1,0-.52h0Z"></path>
      <path class="cls-18" d="M56.48,39.89a7.5,7.5,0,0,1,4,1,10.28,10.28,0,0,1,1.62,1.23,15.8,15.8,0,0,0,1.54,1.15,28.08,28.08,0,0,0,7,3.33,65.14,65.14,0,0,0,15.38,2.86,65.89,65.89,0,0,1-15.53-2.37,29.51,29.51,0,0,1-7.26-3.18,18.56,18.56,0,0,1-1.64-1.15,9.35,9.35,0,0,0-1.54-1.1,6.59,6.59,0,0,0-3.5-.79h0a.51.51,0,0,1-.54-.47.52.52,0,0,1,.48-.54Z"></path>
      <path class="cls-16" d="M50.4,42.05s-.9-9.44-9.58-8.85c0,0-3.54.82-5.14,2.13s-4.16-.7-6.13,2.31S23.81,43,24.17,43.88,47.4,46.39,50.4,42.05Z"></path>
      <path class="cls-17" d="M50.42,42.15s-.84-8.83-9-8.28a15.24,15.24,0,0,0-4.8,2c-1.5,1.22-3.89-.65-5.73,2.16s-5.36,5-5,5.83S47.62,46.21,50.42,42.15Z"></path>
      <path class="cls-18" d="M47.2,44.15A12.3,12.3,0,0,1,45,42.88a13.92,13.92,0,0,1-1.87-1.63,12.37,12.37,0,0,1-2.59-4.12A12,12,0,0,0,43.37,41a12.61,12.61,0,0,0,4,2.51h0a.34.34,0,0,1,.19.44.33.33,0,0,1-.43.19Z"></path>
      <path class="cls-18" d="M40.13,45.15a7.82,7.82,0,0,1-2.2-1.1,12,12,0,0,1-1.84-1.56,15,15,0,0,1-1.54-1.84,23.63,23.63,0,0,1-1.26-2c.43.67.87,1.33,1.36,2a14.84,14.84,0,0,0,1.62,1.74,12.28,12.28,0,0,0,1.87,1.42,7.64,7.64,0,0,0,2.1.92h0a.27.27,0,0,1,.19.31.26.26,0,0,1-.31.2Z"></path>
      <path class="cls-18" d="M55.1,42.3a6.63,6.63,0,0,0-3.59,0,8.87,8.87,0,0,0-1.75.72,18.36,18.36,0,0,1-1.85.75,29,29,0,0,1-7.79,1.46A65.8,65.8,0,0,1,24.45,44a65.55,65.55,0,0,0,15.63.69,28.87,28.87,0,0,0,7.56-1.67c.61-.23,1.19-.5,1.76-.78a9.88,9.88,0,0,1,1.86-.83,7.44,7.44,0,0,1,4.16-.1.51.51,0,1,1-.26,1h0Z"></path>
      <path class="cls-18" d="M55.5,30.26c0,4,.25,8,.46,12l.74,12,.72,12q.13,3,.2,6c0,1,0,2,0,3a12.16,12.16,0,0,1-.41,3.2l0-.07a3.38,3.38,0,0,1-.25.61,3.19,3.19,0,0,1-.37.56,1.85,1.85,0,0,1-1.41.69.67.67,0,0,1,0-1.33h0a.55.55,0,0,0,.38-.23,1.51,1.51,0,0,0,.2-.31,1.59,1.59,0,0,0,.14-.35l0-.07a11.9,11.9,0,0,0,.29-2.75c0-1,0-2,0-3,0-2-.09-4-.17-6l-.46-12C55.32,46.31,55,38.28,55.5,30.26Z"></path>
      <path class="cls-19" d="M74.55,71.91A18.58,18.58,0,0,0,56.6,60.25"></path>
      <path class="cls-18" d="M60.67,59.92S57.09,62,64.29,67.59s10.26,4.32,10.26,4.32S75,56.79,60.67,59.92Z"></path>
      <path class="cls-16" d="M74.31,72a1.6,1.6,0,0,0,.24-.06s.46-15.12-13.88-12a1.92,1.92,0,0,0-.45.41A18.22,18.22,0,0,1,74.31,72Z"></path>
      <path class="cls-19" d="M35.28,64.22s9.46-10.61,20.6-3.47"></path>
      <path class="cls-18" d="M50.7,59.28s.09-3.46-4.81-3.92S35.14,59.53,34.67,62.9s2.42,3.73,3.67,4.11S50.26,68,50.7,59.28Z"></path>
      <path class="cls-16" d="M47.91,58.33a16.81,16.81,0,0,1,2.68.21c-.28-1-1.25-2.86-4.7-3.18C41,54.9,35.14,59.53,34.67,62.9a4.45,4.45,0,0,0,0,1.32A18.79,18.79,0,0,1,47.91,58.33Z"></path>
      <path class="cls-17" d="M52.08,5.46s-4,11.18,3,27.82C55.06,33.28,54.07,15.89,52.08,5.46Z"></path>
      <path class="cls-18" d="M59.29,0s-9.44,17.88-4.72,29.06l.74,7.45S60.28,25.58,59.29,0Z"></path>
      <path class="cls-8" d="M59.38,87.92a1.62,1.62,0,0,0-1.58-.58c-.88.27-1.22,1-1.07,1.21a3.14,3.14,0,0,0,.32.33c.22.22.68-.39.7-.4S59.38,87.92,59.38,87.92Z"></path>
      <path class="cls-20" d="M59.84,89s-.28-1.19-.73-1.21-1-.08-1-.08L58,87.9s.44.78.62.85.53.14.6.17A3.5,3.5,0,0,0,59.84,89Z"></path>
      <path class="cls-10" d="M59.8,89.12c0-.1.11-.38-.17-.46a5.11,5.11,0,0,0-.58-.12s-.72.54-.86.63-.24.07.18.19.41.23.78.19A1.11,1.11,0,0,0,59.8,89.12Z"></path>
      <path class="cls-11" d="M59.05,88.54a4.66,4.66,0,0,0-.53.51c-.21.25-.25.33-.5.2S57.11,89,57,88.78s-.17-.22,0-.53a1.29,1.29,0,0,1,.84-.51.74.74,0,0,1,.84.18A2,2,0,0,1,59.05,88.54Z"></path>
      <path class="cls-8" d="M36.94,79.77a2.43,2.43,0,0,0-2.45-.36c-1.17.66-1.45,1.76-1.16,2.07a3.49,3.49,0,0,0,.57.38c.37.24.85-.77.88-.78Z"></path>
      <path class="cls-20" d="M37.92,81.14s-.76-1.63-1.41-1.51-1.4.17-1.4.17l-.11.35s.87,1,1.15,1,.79,0,.92.07A6.88,6.88,0,0,0,37.92,81.14Z"></path>
      <path class="cls-10" d="M37.92,81.37c0-.16,0-.58-.39-.61a5.56,5.56,0,0,0-.88,0s-.86,1-1,1.16-.31.18.32.23.66.21,1.18,0A1.63,1.63,0,0,0,37.92,81.37Z"></path>
      <path class="cls-11" d="M36.65,80.76a7.45,7.45,0,0,0-.59.9c-.23.42-.26.54-.66.43s-1.37,0-1.69-.34-.3-.27-.09-.77a2,2,0,0,1,1.05-1,1.11,1.11,0,0,1,1.26,0A2.8,2.8,0,0,1,36.65,80.76Z"></path>
      <path class="cls-8" d="M52.79,76.52s-5-2.52-8.58.56-3.7,7-2.49,7.88a15.16,15.16,0,0,0,2.21.89c1.46.54,2.36-3.26,2.44-3.31S52.79,76.52,52.79,76.52Z"></path>
      <path class="cls-20" d="M57.1,80.51s-3.74-5-5.88-4.14S46.59,78,46.59,78l-.14,1.27s3.69,2.74,4.66,2.66,2.73-.4,3.16-.41A21.2,21.2,0,0,0,57.1,80.51Z"></path>
      <path class="cls-10" d="M57.25,81.27c0-.55-.26-2-1.77-1.79a22.91,22.91,0,0,0-3,.63s-2.21,4-2.7,4.7-1,.84,1.25.56,2.37.23,4-.78A5.66,5.66,0,0,0,57.25,81.27Z"></path>
      <path class="cls-11" d="M52.51,80.11a25.24,25.24,0,0,0-1.38,3.49c-.46,1.59-.48,2-1.92,2s-4.7.86-6,0S42,84.88,42.34,83s1.21-2.71,2.87-4.14a3.77,3.77,0,0,1,4.28-.9A9.74,9.74,0,0,1,52.51,80.11Z"></path>
      <path class="cls-8" d="M72.22,78.14s-2.91-4-6.86-3-5.66,4-5.07,5.11a15.49,15.49,0,0,0,1.37,1.56c.91,1,3.12-1.58,3.21-1.59S72.22,78.14,72.22,78.14Z"></path>
      <path class="cls-20" d="M74,82.94s-.91-5.38-2.91-5.55-4.22-.61-4.22-.61l-.61.93S68,81.3,68.79,81.62s2.27.78,2.61.95A20.12,20.12,0,0,0,74,82.94Z"></path>
      <path class="cls-10" d="M73.79,83.59c.18-.46.59-1.65-.66-2.1a19.89,19.89,0,0,0-2.55-.69s-3.31,2.23-4,2.57-1.07.27.75.93,1.74,1.12,3.43,1A4.94,4.94,0,0,0,73.79,83.59Z"></path>
      <path class="cls-11" d="M70.58,80.8A22.83,22.83,0,0,0,68.12,83c-1,1-1.17,1.38-2.26.75s-4-1.2-4.65-2.36-.68-1,.33-2.31,2-1.62,3.87-2.07a3.27,3.27,0,0,1,3.67,1A8.44,8.44,0,0,1,70.58,80.8Z"></path>
      <path class="cls-8" d="M58.7,80.19s-4.18-3.22-8-1S46.06,84.93,47,85.93a16,16,0,0,0,1.86,1.21c1.24.75,2.76-2.56,2.85-2.6S58.7,80.19,58.7,80.19Z"></path>
      <path class="cls-20" d="M61.93,84.62s-2.53-5.27-4.65-4.85-4.53.62-4.53.62l-.36,1.14s2.89,3.18,3.8,3.28,2.57.12,3,.2A20.83,20.83,0,0,0,61.93,84.62Z"></path>
      <path class="cls-10" d="M61.92,85.35c.06-.52.13-1.87-1.29-2a19.3,19.3,0,0,0-2.84,0S55,86.71,54.46,87.25s-1,.6,1,.74,2.13.63,3.84,0A5.32,5.32,0,0,0,61.92,85.35Z"></path>
      <path class="cls-11" d="M57.79,83.43a24.36,24.36,0,0,0-1.9,2.95c-.7,1.37-.8,1.77-2.11,1.44s-4.46-.06-5.5-1-1-.87-.34-2.49S49.54,82,51.31,81a3.52,3.52,0,0,1,4.09,0A9.07,9.07,0,0,1,57.79,83.43Z"></path>
      <path class="cls-8" d="M80.44,87.51a2.51,2.51,0,0,0,2.31-1.14c.63-1.26.22-2.38-.21-2.48a6,6,0,0,0-.72,0c-.47,0-.28,1.18-.3,1.2Z"></path>
      <path class="cls-20" d="M78.78,86.91s1.62,1,2.11.47,1.1-1,1.1-1L81.88,86a5.34,5.34,0,0,0-1.6-.2c-.26.14-.71.43-.83.48A6.24,6.24,0,0,0,78.78,86.91Z"></path>
      <path class="cls-10" d="M78.65,86.71c.08.15.3.52.7.3a7.22,7.22,0,0,0,.75-.52s.15-1.37.21-1.62.16-.34-.41,0-.69.21-1,.68A1.73,1.73,0,0,0,78.65,86.71Z"></path>
      <path class="cls-11" d="M80.1,86.49a7.43,7.43,0,0,0,0-1.13c-.06-.5-.1-.62.31-.77s1.2-.77,1.66-.7.42.06.53.61A2,2,0,0,1,82.27,86a1.13,1.13,0,0,1-1.09.74A3,3,0,0,1,80.1,86.49Z"></path>
      <path class="cls-8" d="M40.66,88.41s2.15.3,3.05-1.25.49-3-.06-3.17a5.75,5.75,0,0,0-.91,0c-.6,0-.46,1.47-.48,1.5S40.66,88.41,40.66,88.41Z"></path>
      <path class="cls-20" d="M38.61,87.49s2,1.37,2.64.79a17.9,17.9,0,0,1,1.49-1.15l-.11-.48a6.56,6.56,0,0,0-2-.39c-.34.15-.94.48-1.1.53A9.6,9.6,0,0,0,38.61,87.49Z"></path>
      <path class="cls-10" d="M38.46,87.23c.08.2.34.7.86.44a8.76,8.76,0,0,0,1-.6s.31-1.73.41-2,.24-.42-.52,0-.9.2-1.38.77A2.16,2.16,0,0,0,38.46,87.23Z"></path>
      <path class="cls-11" d="M40.32,87.07a9.38,9.38,0,0,0,.08-1.43c0-.64-.08-.8.46-1s1.6-.88,2.17-.74.53.1.63.81a2.63,2.63,0,0,1-.53,1.86,1.46,1.46,0,0,1-1.45.85A3.7,3.7,0,0,1,40.32,87.07Z"></path>
      <path class="cls-8" d="M52.27,86.16a2,2,0,0,1,1.88-.29c.93.42,1.17,1.17,1,1.39a3.54,3.54,0,0,1-.44.27C54.39,87.7,54,87,54,87Z"></path>
      <path class="cls-20" d="M51.54,87.12s.55-1.13,1.06-1.06,1.08.09,1.08.09l.1.23s-.65.7-.87.72-.61.05-.7.07A5.43,5.43,0,0,1,51.54,87.12Z"></path>
      <path class="cls-10" d="M51.55,87.27a.31.31,0,0,1,.29-.42,4.42,4.42,0,0,1,.68,0s.68.66.83.77.24.12-.25.17-.5.15-.91,0A1.19,1.19,0,0,1,51.55,87.27Z"></path>
      <path class="cls-11" d="M52.52,86.83a5.14,5.14,0,0,1,.48.6c.18.28.21.37.52.29s1.06-.06,1.29-.27.23-.2.06-.53-.4-.46-.84-.66a.9.9,0,0,0-1,0A1.93,1.93,0,0,0,52.52,86.83Z"></path>
      <path class="cls-8" d="M69.31,81.36s-3.92-2.9-7.39-.81-4.2,5.44-3.3,6.35A14.71,14.71,0,0,0,60.37,88c1.16.67,2.5-2.42,2.58-2.46S69.31,81.36,69.31,81.36Z"></path>
      <path class="cls-20" d="M72.39,85.4S70,80.57,68,81s-4.18.66-4.18.66l-.32,1.06s2.74,2.89,3.58,3,2.38.07,2.75.13A18.85,18.85,0,0,0,72.39,85.4Z"></path>
      <path class="cls-10" d="M72.4,86.07c0-.48.08-1.73-1.24-1.79a18.15,18.15,0,0,0-2.63.1s-2.48,3.09-3,3.6-.93.57,1,.66,2,.55,3.55-.06A4.91,4.91,0,0,0,72.4,86.07Z"></path>
      <path class="cls-11" d="M68.53,84.38a21.51,21.51,0,0,0-1.69,2.76c-.63,1.29-.71,1.66-1.93,1.38s-4.12,0-5.1-.87-1-.78-.37-2.3,1.43-2.13,3.06-3.1a3.25,3.25,0,0,1,3.78-.12A8.27,8.27,0,0,1,68.53,84.38Z"></path>
      <path class="cls-8" d="M48.37,85.9s-3.22-.58-4.68,1.7-.92,4.5-.11,4.78a10.28,10.28,0,0,0,1.37.13c.9.06.78-2.19.82-2.23S48.37,85.9,48.37,85.9Z"></path>
      <path class="cls-20" d="M51.4,87.42s-2.89-2.18-3.93-1.35-2.32,1.63-2.32,1.63l.13.73s2.49.93,3,.72,1.45-.66,1.69-.73A12.07,12.07,0,0,0,51.4,87.42Z"></path>
      <path class="cls-10" d="M51.61,87.82c-.12-.3-.47-1.07-1.27-.71a12,12,0,0,0-1.55.83s-.58,2.59-.74,3-.39.62.78.1S50.19,90.84,51,90A3.28,3.28,0,0,0,51.61,87.82Z"></path>
      <path class="cls-11" d="M48.79,87.94a15.08,15.08,0,0,0-.21,2.16c0,1,.07,1.2-.75,1.39s-2.46,1.24-3.32,1-.8-.19-.89-1.27a3.86,3.86,0,0,1,.92-2.76,2.18,2.18,0,0,1,2.23-1.2A5.8,5.8,0,0,1,48.79,87.94Z"></path>
    </g>
  </g>
</svg>
