<?xml version="1.0" encoding="UTF-8"?>
<svg xmlns="http://www.w3.org/2000/svg" viewBox="0 0 97.83 150.54">
  <defs>
    <style>.cls-1{fill:#a29274;}.cls-2{fill:#e3e0c9;}.cls-3{fill:#fcedce;}.cls-4{fill:#bda885;}.cls-5{fill:#d0c5a6;}.cls-6{fill:#8f8267;}.cls-7{fill:#ab967a;opacity:0.25;}.cls-8{fill:#9b8d71;}.cls-9{fill:#7c705b;}.cls-10{fill:#a5a5a5;}.cls-11{fill:#cacac9;}.cls-12{fill:#817870;}.cls-13{fill:#789f5b;}</style>
  </defs>
  <g id="Слой_2" data-name="Слой 2">
    <g id="Слой_1-2" data-name="Слой 1">
      <polygon class="cls-1" points="48.99 86.18 97.83 65.38 90.51 121.63 48.99 150.54 48.99 86.18"></polygon>
      <polygon class="cls-2" points="48.99 51.32 97.83 65.38 48.99 86.18 0 65.38 48.99 51.32"></polygon>
      <polygon class="cls-3" points="48.99 51.32 0 65.38 0.86 65.75 97.38 65.25 48.99 51.32"></polygon>
      <polygon class="cls-4" points="7.33 121.63 0 65.38 48.99 86.18 48.99 150.54 7.33 121.63"></polygon>
      <path class="cls-5" d="M30.79,66.07A29.77,29.77,0,0,1,33.1,63.6a26.16,26.16,0,0,1,2.7-2.08,27.3,27.3,0,0,1,6.12-3,31.07,31.07,0,0,1,6.66-1.39C49.71,57,50.84,57,52,57s2.25.1,3.37.2c-1.12.13-2.24.17-3.35.29s-2.22.23-3.31.45-2.18.38-3.25.68-2.13.58-3.19.9a35.43,35.43,0,0,0-6,2.69A32.91,32.91,0,0,0,30.79,66.07Z"></path>
      <path class="cls-5" d="M22.44,68.05a6.14,6.14,0,0,0,1.93.39,19.09,19.09,0,0,0,2,.06,29.4,29.4,0,0,0,4-.34c2.64-.37,5.24-1,7.91-1.63a22.83,22.83,0,0,1-7.77,2.62,17.38,17.38,0,0,1-4.14.13,11.73,11.73,0,0,1-2.05-.36c-.34-.1-.67-.22-1-.35A2.07,2.07,0,0,1,22.44,68.05Z"></path>
      <path class="cls-5" d="M56.15,80a36.7,36.7,0,0,1,4.62-5.85,35.34,35.34,0,0,1,5.68-4.88A25.92,25.92,0,0,1,73.17,66c.6-.18,1.23-.29,1.84-.44a9.59,9.59,0,0,1,1.86-.27,16.58,16.58,0,0,1,3.73.12,21.74,21.74,0,0,0-7.18,1.32A32.22,32.22,0,0,0,67,70.14a50.08,50.08,0,0,0-5.7,4.6c-.92.82-1.79,1.69-2.64,2.58S57,79.11,56.15,80Z"></path>
      <polygon class="cls-6" points="48.99 86.18 97.83 65.38 90.51 121.63 48.99 150.54 48.99 86.18"></polygon>
      <polygon class="cls-7" points="7.33 121.63 0 65.38 48.99 86.18 48.99 150.54 7.33 121.63"></polygon>
      <polygon class="cls-8" points="48.99 150.54 7.33 121.63 49.18 105.81 90.51 121.63 48.99 150.54"></polygon>
      <path class="cls-9" d="M16.18,96.9a15,15,0,0,1-1.26-8.16,13,13,0,0,1,3.61-7.55,18,18,0,0,1,7.19-4.28,30.68,30.68,0,0,1,8.15-1.45l-2,.42c-.67.15-1.33.34-2,.5s-1.31.38-2,.57-1.28.45-1.91.69a19.55,19.55,0,0,0-6.74,4.25,13.24,13.24,0,0,0-3.57,7,18.09,18.09,0,0,0,.51,8Z"></path>
      <path class="cls-9" d="M61.7,96.13c.13.2.41.27.62.39l.7.29c.47.18.94.33,1.42.49,1,.31,1.92.59,2.89.86,1.93.53,3.88,1,5.85,1.39,3.93.81,7.91,1.32,11.94,1.79A44.24,44.24,0,0,1,73,100.53a44.69,44.69,0,0,1-5.89-1.63,30,30,0,0,1-2.83-1.15c-.46-.22-.91-.45-1.36-.71A3.39,3.39,0,0,1,61.7,96.13Z"></path>
      <path class="cls-9" d="M35.46,93.19A35.82,35.82,0,0,1,32.22,104a30.71,30.71,0,0,1-2.94,4.85,18.32,18.32,0,0,1-4.07,3.94,31.86,31.86,0,0,0,3.43-4.39,51.78,51.78,0,0,0,2.68-4.84c.81-1.66,1.52-3.37,2.21-5.1S34.86,95,35.46,93.19Z"></path>
      <path class="cls-9" d="M50.61,138c2-1,4.07-1.73,6.07-2.61s4-1.77,5.94-2.78a39.2,39.2,0,0,0,5.52-3.44A18.31,18.31,0,0,0,70.55,127c.35-.42.72-.82,1.06-1.25s.58-.92.88-1.39q-.3.77-.66,1.53c-.28.48-.6.94-.9,1.42a18.3,18.3,0,0,1-2.3,2.44,27.71,27.71,0,0,1-5.55,3.74,47.61,47.61,0,0,1-6.12,2.6c-1.05.36-2.1.7-3.16,1Z"></path>
      <path class="cls-9" d="M27.7,131.78c-2.21-1.06-4.43-2.59-5.45-5.09a4.66,4.66,0,0,1,.32-3.94,9.17,9.17,0,0,1,2.65-2.85A25.27,25.27,0,0,1,32,116.54a51.94,51.94,0,0,1,7.23-1.89c-1.16.46-2.35.81-3.5,1.28s-2.32.87-3.46,1.33a31.2,31.2,0,0,0-6.43,3.44,8.41,8.41,0,0,0-2.43,2.51,4,4,0,0,0-.42,3.23,7.37,7.37,0,0,0,1.9,3A16.49,16.49,0,0,0,27.7,131.78Z"></path>
      <path class="cls-9" d="M72.49,95l3.64-5c1.2-1.67,2.37-3.36,3.48-5.08a50.89,50.89,0,0,0,3.06-5.3,17.36,17.36,0,0,0,1.93-5.79,13.19,13.19,0,0,1-1.21,6.11,34.76,34.76,0,0,1-2.94,5.52A51.71,51.71,0,0,1,72.49,95Z"></path>
      <polygon class="cls-10" points="47.2 118.05 47.25 117.96 47.17 117.95 47.2 118.05"></polygon>
      <path class="cls-11" d="M48.44,76.73l2.3,0q1.5,2.53,3,5.06a8.53,8.53,0,0,0,4.44,3.69c.48.18,1,.33,1.45.51.06,0,.15.23.12.26s-.26.34-.38.32a8.83,8.83,0,0,1-6.54-4.22c-.54-.83-.75-1.89-1.71-2.54a12.66,12.66,0,0,0,.35,7q2,6,3.88,12.11a5.36,5.36,0,0,1,.25,1.19c0,.11-.2.27-.33.36s-.23-.06-.26-.13c-.17-.37-.33-.74-.48-1.12a32.34,32.34,0,0,0-2.93-6.17c-.28.81-.5,1.32-.64,1.85-.74,2.8-1.45,5.6-2.22,8.39a6.17,6.17,0,0,1-.82,1.35c-.65-1.25-.1-2.2.16-3.18A36.38,36.38,0,0,0,49.68,93a16.2,16.2,0,0,0-.43-5.23,20.58,20.58,0,0,1-.43-3c-1,.07-1.45.89-2,1.41S45.68,87.41,45.1,88a1.11,1.11,0,0,1-.74.11.75.75,0,0,1-.08-.55,12,12,0,0,1,1.31-2c.75-.85,1.65-1.57,2.43-2.39.16-.17.1-.54.15-.81a2.52,2.52,0,0,0-.79.14c-1.73.93-3.43,1.92-5.18,2.81s-3.71,1.86-5,3.77a3.34,3.34,0,0,1,.15-1.12A7.39,7.39,0,0,1,40.58,85c1.63-.88,3.24-1.83,4.89-2.68,2.06-1.06,3.15-2.63,2.84-5A2,2,0,0,1,48.44,76.73Z"></path>
      <polygon class="cls-3" points="0.86 65.75 48.99 86.18 97.83 65.38 97.38 65.25 0.86 65.75"></polygon>
      <ellipse class="cls-1" cx="50.53" cy="66.36" rx="11.28" ry="4.41"></ellipse>
      <ellipse class="cls-12" cx="50.82" cy="67.85" rx="9.3" ry="3.64"></ellipse>
      <path class="cls-13" d="M64.69,11.31c.54-.6,1.08-1.18,1.6-1.8a4.89,4.89,0,0,0,.79-5.24,4.7,4.7,0,0,0-4-3.08A7.32,7.32,0,0,0,56.8,3.07a13.54,13.54,0,0,0-3.13,4.2C51,13,51.2,18.69,53.75,24.38a1.14,1.14,0,0,0,1.49.74,12.65,12.65,0,0,0,1.52-.23,1.37,1.37,0,0,0,.76-.81c.3-1.65,1.47-2.42,2.84-3a11.67,11.67,0,0,1,5.43-1c.83.06.9.17.64,1.2-.07.29-.12.58-.19.91a22.38,22.38,0,0,1,2.65,1,13.74,13.74,0,0,1,2.57,1.69c1,.84,1,1.13.22,2.34a1.72,1.72,0,0,0-.27,1.7c.59,1.65,1.18,3.32,1.62,5a11.8,11.8,0,0,1,.13,5.88,25,25,0,0,1-6.64-1.68c-.61-.2-1,.06-.89.79a.62.62,0,0,1-.69.79c-2.86-.29-5.79-.37-8.54-2.1-.61,1.35-1.2,2.62-1.76,3.91A16.8,16.8,0,0,0,53,45.35c2.82-.57,5.44-.77,7.95.64a10.75,10.75,0,0,1,4.77,6.2c2.3-1.32,2.77-1.34,4.87-.21a12.88,12.88,0,0,1,1.82,1.18c2.45,1.91,3.07,3.83,2,6.8a22.38,22.38,0,0,1-1.71,3.29c-.64,1.15-1.31,2.29-2.1,3.66a23.54,23.54,0,0,1-2.2-1.19c-.85-.38-1.68-.82-2.53-1.2s-1.52-.64-2.28-1a25.27,25.27,0,0,1-2.51-1.22,10,10,0,0,1-4.69-5.18,6.12,6.12,0,0,1,0-4.26,4.34,4.34,0,0,1,4.74-3.17,16.61,16.61,0,0,1,2.12.38c0-1.12-.85-1.61-1.5-2.18a7.52,7.52,0,0,0-6.63-1.85,5,5,0,0,0-4.37,3.85,23.82,23.82,0,0,0-.88,6.76c.08,3.2.29,6.41.41,9.61,0,1.14,0,2.28,0,3.42l-2.3,0c-.1-4.45-.26-8.9-.26-13.35a33.08,33.08,0,0,1,.58-5.24A11.36,11.36,0,0,0,48,45.54a8,8,0,0,0-6-5.69c-1.26-.27-1.69,0-1.83,1.31a5.7,5.7,0,0,1-1.8,3.51C37.21,45.84,36,47,34.84,48.16c-.58.56-1.13,1.28-2.13.59-.16-.11-.75.2-1,.46a12.35,12.35,0,0,0-3.11,5.3c-.2.66-.43,1.32-.79,2.44a18.9,18.9,0,0,1-1-2,33.5,33.5,0,0,1-1.61-9.15c0-.86-.23-1.41-1.27-1.14a.56.56,0,0,1-.42-.32,3.61,3.61,0,0,1-.1-1.22,12.41,12.41,0,0,1,6.23-8.83,3.76,3.76,0,0,1,5.63,2.44c.19.83.45,1.39,1.4,1.13,1.25-.33,2.13.65,3.23.84a33.15,33.15,0,0,1,3.34.48,8.76,8.76,0,0,1,5.24,4.56c.36.62.59,1.32,1,1.94a.77.77,0,0,0,.71,0,3.09,3.09,0,0,0,.62-2.63c-.25-1.43-.56-2.84-.85-4.26s-.61-2.62-.77-3.95A8.46,8.46,0,0,1,51.7,27.2a1.89,1.89,0,0,0,.47-2.47,22.76,22.76,0,0,1-1.6-12.47,16.26,16.26,0,0,0,.14-2.79,6.56,6.56,0,0,0-.43-2.11c-.86-2.05-2.48-2.63-4.57-1.8A5.84,5.84,0,0,0,43,8a4.15,4.15,0,0,0-.33,1.15,3,3,0,0,0,1.09.26,3.34,3.34,0,0,1,2.41.09,5.49,5.49,0,0,1,2.19,2.55c.62,1.41.31,2.12-1.29,2.72a6.44,6.44,0,0,0-3.94,3.7,1.08,1.08,0,0,1-1.49.67c-1.39-.39-2.79-.78-4.21-1a1.83,1.83,0,0,0-1.38.42c-1.29,1.19-2.5,2.48-3.74,3.72a5.49,5.49,0,0,0-1.56,2.63c-.11.48-.61.52-1,.16a9,9,0,0,1-2.4-5.28,15.46,15.46,0,0,1,0-4,19.43,19.43,0,0,0,.22-4.58C27.4,8.73,29,7.13,31,6.1a8,8,0,0,1,5.15-.72c2,.38,4.06.61,5.74,1.85,4.1-4.31,7.8-3.86,9.93.56A18.58,18.58,0,0,1,52.93,6a31,31,0,0,1,2.88-3.63A8.4,8.4,0,0,1,63.26.12a6.29,6.29,0,0,1,5,4.9,5.71,5.71,0,0,1-3,6.22c-.15.09-.4,0-.6,0ZM51.89,42.38c.58-1,.89-1.5,1.18-2a3.69,3.69,0,0,0,0-4.29,6.47,6.47,0,0,1-.18-6.55,6.15,6.15,0,0,0,.43-1.15.64.64,0,0,0-.18-.55.58.58,0,0,0-.54,0,5.67,5.67,0,0,0-2.43,4.49,27.24,27.24,0,0,0,.39,4.93C50.86,38.8,51.35,40.28,51.89,42.38Z"></path>
      <path class="cls-13" d="M64.65,11.25c-.83,1.17-2,.61-3.06.61a1.79,1.79,0,0,1-1.9-1.21l0,0a11.57,11.57,0,0,0,5,.62Z"></path>
      <path class="cls-13" d="M59,6.91c-.36,1.35.35,2.53.6,3.78l0,0c-1.41-1.32-1.54-2.13-.6-3.69Z"></path>
      <path class="cls-13" d="M59.09,7c0-.43.19-.65.63-.61l0,0L59,6.91Z"></path>
      <path class="cls-13" d="M59.72,6.35l.16-.46c.46.4-.15.27-.21.41Z"></path>
    </g>
  </g>
</svg>
