<?xml version="1.0" encoding="UTF-8"?>
<svg xmlns="http://www.w3.org/2000/svg" viewBox="0 0 110.23 198.89">
  <defs>
    <style>.cls-1{fill:#a29274;}.cls-2{fill:#e3e0c9;}.cls-3{fill:#fcedce;}.cls-4{fill:#bda885;}.cls-5{fill:#d0c5a6;}.cls-6{fill:#8f8267;}.cls-7{fill:#ab967a;opacity:0.25;}.cls-8{fill:#9b8d71;}.cls-9{fill:#7c705b;}.cls-10{fill:#a5a5a5;}.cls-11{fill:#e7e6e3;}.cls-12{fill:#817870;}.cls-13{fill:#91b33d;}.cls-14{fill:#81a135;}</style>
  </defs>
  <g id="Слой_2" data-name="Слой 2">
    <g id="Слой_1-2" data-name="Слой 1">
      <polygon class="cls-1" points="54.32 127.51 108.49 104.45 100.36 166.82 54.32 198.89 54.32 127.51"></polygon>
      <polygon class="cls-2" points="54.32 88.86 108.49 104.45 54.32 127.51 0 104.45 54.32 88.86"></polygon>
      <polygon class="cls-3" points="54.32 88.86 0 104.45 0.95 104.86 107.99 104.31 54.32 88.86"></polygon>
      <polygon class="cls-4" points="8.13 166.82 0 104.45 54.32 127.51 54.32 198.89 8.13 166.82"></polygon>
      <path class="cls-5" d="M34.14,105.22a30.11,30.11,0,0,1,2.57-2.74,24,24,0,0,1,3-2.31,30.11,30.11,0,0,1,6.8-3.3,34.76,34.76,0,0,1,7.38-1.55c1.25-.17,2.51-.13,3.76-.19s2.5.11,3.74.21c-1.24.15-2.48.19-3.71.33l-1.84.24a18.33,18.33,0,0,0-1.83.27c-1.21.23-2.43.41-3.61.74s-2.37.64-3.54,1a38.87,38.87,0,0,0-6.69,3A37.59,37.59,0,0,0,34.14,105.22Z"></path>
      <path class="cls-5" d="M24.89,107.41a6.47,6.47,0,0,0,2.14.43c.73.07,1.47.08,2.21.08a34.23,34.23,0,0,0,4.4-.38c2.93-.41,5.81-1.15,8.78-1.81a25.64,25.64,0,0,1-8.62,2.91,20.21,20.21,0,0,1-4.6.14,13.51,13.51,0,0,1-2.27-.41,10.82,10.82,0,0,1-1.09-.38A2.38,2.38,0,0,1,24.89,107.41Z"></path>
      <path class="cls-5" d="M62.26,120.7a42.93,42.93,0,0,1,11.42-11.9,28,28,0,0,1,7.46-3.72,20.55,20.55,0,0,1,4.1-.82,17.89,17.89,0,0,1,4.14.18,22.07,22.07,0,0,0-8,1.46,32.94,32.94,0,0,0-7.11,3.82A55.05,55.05,0,0,0,68,114.83C66,116.69,64.07,118.63,62.26,120.7Z"></path>
      <polygon class="cls-6" points="54.32 127.51 108.49 104.45 100.36 166.82 54.32 198.89 54.32 127.51"></polygon>
      <polygon class="cls-7" points="8.13 166.82 0 104.45 54.32 127.51 54.32 198.89 8.13 166.82"></polygon>
      <polygon class="cls-8" points="54.32 198.89 8.13 166.82 54.54 149.29 100.36 166.82 54.32 198.89"></polygon>
      <path class="cls-9" d="M17.94,139.4a16.61,16.61,0,0,1-1.4-9,14.32,14.32,0,0,1,4-8.37,19.88,19.88,0,0,1,8-4.75,34.08,34.08,0,0,1,9-1.61l-2.23.47c-.74.16-1.48.37-2.21.55s-1.45.42-2.18.63-1.42.49-2.12.76a21.68,21.68,0,0,0-7.47,4.72,14.7,14.7,0,0,0-4,7.73,19.82,19.82,0,0,0,.56,8.91Z"></path>
      <path class="cls-9" d="M68.42,138.55c.14.23.45.3.69.43l.77.32c.52.2,1.05.38,1.58.54,1.06.35,2.13.66,3.2,1,2.15.58,4.31,1.11,6.49,1.54,4.36.9,8.77,1.47,13.24,2a50.22,50.22,0,0,1-20-2.7c-1.06-.38-2.11-.81-3.14-1.28-.51-.25-1-.51-1.51-.79A3.79,3.79,0,0,1,68.42,138.55Z"></path>
      <path class="cls-9" d="M39.32,135.29a39.69,39.69,0,0,1-3.59,12,33.61,33.61,0,0,1-3.26,5.39A20.71,20.71,0,0,1,28,157a36.6,36.6,0,0,0,3.8-4.86,55,55,0,0,0,3-5.37c.9-1.85,1.69-3.74,2.45-5.66S38.66,137.27,39.32,135.29Z"></path>
      <path class="cls-9" d="M56.13,184.93c2.2-1.08,4.49-1.94,6.72-2.91s4.45-2,6.59-3.07a43.26,43.26,0,0,0,6.12-3.82,17.46,17.46,0,0,0,4.83-5.32,14.08,14.08,0,0,1-4.28,6A32.2,32.2,0,0,1,70,179.93a53.71,53.71,0,0,1-6.78,2.89c-1.16.42-2.33.78-3.51,1.12Z"></path>
      <path class="cls-9" d="M30.72,178.09a15.44,15.44,0,0,1-3.51-2.23,8.49,8.49,0,0,1-2.55-3.42,4.91,4.91,0,0,1-.3-2.22,5.57,5.57,0,0,1,.67-2.15A10.1,10.1,0,0,1,28,164.91a28.42,28.42,0,0,1,7.5-3.73,57.3,57.3,0,0,1,8-2.09c-2.6.94-5.18,1.86-7.71,2.9a34.1,34.1,0,0,0-7.14,3.8,9.51,9.51,0,0,0-2.69,2.79,4.38,4.38,0,0,0-.46,3.58,8.55,8.55,0,0,0,2.1,3.31A18.9,18.9,0,0,0,30.72,178.09Z"></path>
      <path class="cls-9" d="M80.39,137.29l4-5.56c1.32-1.86,2.62-3.73,3.85-5.64a59.23,59.23,0,0,0,3.4-5.87,19.06,19.06,0,0,0,2.13-6.42,14.56,14.56,0,0,1-1.34,6.77,36.61,36.61,0,0,1-3.26,6.12A57.57,57.57,0,0,1,80.39,137.29Z"></path>
      <polygon class="cls-10" points="52.34 162.85 52.4 162.76 52.3 162.75 52.34 162.85"></polygon>
      <path class="cls-11" d="M57.23,115.72a19.6,19.6,0,0,1,.83,8.48,55.35,55.35,0,0,1-1.56,8.11,50.61,50.61,0,0,0-1.49,8,17.94,17.94,0,0,0,.9,8,18.28,18.28,0,0,1-1.42-8,50.42,50.42,0,0,1,1-8.15,55.24,55.24,0,0,0,1-8,17.89,17.89,0,0,0-1.2-7.59h0a1,1,0,0,1,1.9-.84A.14.14,0,0,0,57.23,115.72Z"></path>
      <path class="cls-11" d="M55.36,137a2.49,2.49,0,0,0,.78,1.24,8.33,8.33,0,0,0,1.24,1c.43.3.94.56,1.38.9a2.71,2.71,0,0,1,1,1.3,2.62,2.62,0,0,0-1.14-1.14c-.47-.28-1-.45-1.48-.76a8.94,8.94,0,0,1-1.36-1,2.92,2.92,0,0,1-1-1.5Z"></path>
      <path class="cls-11" d="M56.7,131.37a5,5,0,0,0,1.49,1.6,7.12,7.12,0,0,0,2.07,1,12.51,12.51,0,0,1,2.25.92,2.62,2.62,0,0,1,1.43,1.88,2.47,2.47,0,0,0-1.54-1.67,13,13,0,0,0-2.27-.68,7.1,7.1,0,0,1-2.32-.89,5.53,5.53,0,0,1-1.89-1.76Z"></path>
      <path class="cls-11" d="M59.07,133.6a3.88,3.88,0,0,1,2-.93,5.12,5.12,0,0,1,2.1.24,4.93,4.93,0,0,0-2.06,0,3.52,3.52,0,0,0-1.68,1Z"></path>
      <path class="cls-11" d="M61.37,134.48a14.06,14.06,0,0,1,.34,1.81,6.23,6.23,0,0,1,0,1.83,6.12,6.12,0,0,0-.17-1.81,17.21,17.21,0,0,0-.48-1.74Z"></path>
      <path class="cls-11" d="M57.87,121.36a4.83,4.83,0,0,0,1.72,1.24,12.9,12.9,0,0,0,2.07,1,14.48,14.48,0,0,1,2.14.94,4.22,4.22,0,0,1,1.68,1.59,4.29,4.29,0,0,0-1.78-1.4,14.22,14.22,0,0,0-2.18-.7,13.81,13.81,0,0,1-2.21-.79,5.61,5.61,0,0,1-2.12-1.27Z"></path>
      <path class="cls-11" d="M61.64,123.85a5.31,5.31,0,0,0-.19,3.79,5.54,5.54,0,0,1-.22-4Z"></path>
      <path class="cls-11" d="M58.81,122.17A16.58,16.58,0,0,1,61.58,121a3.12,3.12,0,0,1,1.52.27,2.88,2.88,0,0,1,1.19.91,2.79,2.79,0,0,0-1.24-.77,3.16,3.16,0,0,0-1.42-.13,4.83,4.83,0,0,0-1.32.58c-.44.24-.85.51-1.34.72Z"></path>
      <path class="cls-11" d="M57.1,126.84a16.57,16.57,0,0,1-2.73,1.81,22.73,22.73,0,0,1-3,1.26,4.82,4.82,0,0,0-2.5,1.75,7.29,7.29,0,0,0-.84,3,7.43,7.43,0,0,1,.65-3.14,5.18,5.18,0,0,1,2.52-2.05A21.24,21.24,0,0,0,54,128.08a15.83,15.83,0,0,0,2.48-1.9Z"></path>
      <path class="cls-11" d="M51.11,129.83a9.17,9.17,0,0,1-.72,3.38,9.15,9.15,0,0,0,.4-3.35Z"></path>
      <path class="cls-11" d="M54.74,128a2.71,2.71,0,0,0-1.1-.79,3.4,3.4,0,0,0-1.37-.29,7.58,7.58,0,0,0-2.74.91,8.78,8.78,0,0,1,2.72-1.07,3.75,3.75,0,0,1,1.49.17,3.58,3.58,0,0,1,1.37.73Z"></path>
      <path class="cls-11" d="M55.92,134.66a8.42,8.42,0,0,0-.91.88,5.82,5.82,0,0,1-1,1c-.74.56-1.48,1-2.16,1.58A8,8,0,0,0,50.1,140a4.7,4.7,0,0,0-.78,2.5,5,5,0,0,1,.58-2.61,8.44,8.44,0,0,1,1.65-2.15c.65-.64,1.39-1.19,2-1.75a4.94,4.94,0,0,0,.82-1,9.29,9.29,0,0,1,.94-1Z"></path>
      <path class="cls-11" d="M51.47,138.3a3.48,3.48,0,0,1,.14,1.56,10.18,10.18,0,0,1-.28,1.48,5.21,5.21,0,0,0-.23-2.87Z"></path>
      <path class="cls-11" d="M54.11,136.09a11,11,0,0,0-2.07,0,6.78,6.78,0,0,0-2,.4,7,7,0,0,1,2-.63,11.45,11.45,0,0,1,2.12-.2Z"></path>
      <polygon class="cls-3" points="0.95 104.86 54.32 127.51 108.49 104.45 107.99 104.31 0.95 104.86"></polygon>
      <ellipse class="cls-1" cx="56.04" cy="105.54" rx="12.51" ry="4.89"></ellipse>
      <ellipse class="cls-12" cx="56.35" cy="107.19" rx="10.31" ry="4.03"></ellipse>
      <path class="cls-13" d="M56.53,89.21C66.74,81.54,75.2,72.14,82.79,61.86c1.07-1.46,1.46-3.06,2.24-4.93s1.45-4.54,2.12-6.66A2,2,0,0,0,87,48.71c-1.83-3.33-2.27-6.75-2.39-10.5a28.73,28.73,0,0,1,.41-4,.85.85,0,0,1,.86.61c1.18,2.59,2.66,3.82,3.37,7.38a28.62,28.62,0,0,1-.07,6.12,14.25,14.25,0,0,1,3.25-4.76c2-1.58,6.29-2,8.66-2.1,3.41-.09,5.65-2.4,7.89-4.92.25-.29.4-.73.85-.63s.45.57.34.94c-1.9,6.49-4,11.61-9.83,15.55-3.28,2.23-6.8,1.58-10.2.07-1.08-.48-1.31-.44-1.72.58-1,2.5-1.64,5-2.82,7.51s-1.82,3.66,1.14,4.89c1.84,2.42,2.72,4.78,2,7.81S85.86,77.55,83,78.25c-2.07.5-4.23.7-6.25,1.38-.28.1-.56.09-.71-.21s0-.59.21-.88a25.67,25.67,0,0,1,2.72-3,13.7,13.7,0,0,0,4.25-8.66c0-.27.09-.63-.22-.71s-.39.19-.55.39a238.68,238.68,0,0,1-16.5,17.76s0,.07-.11.15-.47.2-.29.46.38-.1.56-.1c3.87,0,7,.49,8.84,4.09a3.31,3.31,0,0,0,2.88,2.22c.27,0,.41.21.15.46a1.59,1.59,0,0,1-1,.42,19.48,19.48,0,0,1-7.18-.19,18.66,18.66,0,0,0-9.3-.26A50.74,50.74,0,0,1,66,94.47c.6.36,1.77.11,2.17.11,2.31,0,5.61-.31,6.23,2.28a16.59,16.59,0,0,0,3.05,6.67c.12.17.4.59.1.88s-.65.07-.92-.07a20.18,20.18,0,0,0-7.71-1.83,8.79,8.79,0,0,1-6.36-2.77c-1.71-1.86-.17-3.16,1.39-4.32.26-.19.86-.35.35-.62a26.09,26.09,0,0,0-4.94-2.44,1.2,1.2,0,0,0-1.21.44c-1.36,2.32-.7,4.21-.34,6.74a59.35,59.35,0,0,1,.86,10.83,1.55,1.55,0,0,1-2,.31c-.7-.38-.53-1.31-.55-1.79s0-.85-.08-1.12c-.41-2.92-.78-6-1-8.77-.13-1.38-.29-2.9-.38-4a1.64,1.64,0,0,0-1.44-1.68c-3.54-.61-7.21-1.14-9.91-3.48s-4.41-4.66-6.89-7.22a34.77,34.77,0,0,1-2-3.22,1.45,1.45,0,0,0-1.69-.32A10.93,10.93,0,0,1,23.82,78c-.27-.14-.69-.33-.54-.73s.59-.37,1-.31a7.83,7.83,0,0,0,4.13-.35,8.7,8.7,0,0,1,3.75-.36c-.26-.69-.46-.89-1.23-.92-4-.15-6.37-2.22-8-5.79S21,62.27,20.75,58.37c-.07-1,0-2.22,0-3.3a.74.74,0,0,1,.36-.78.58.58,0,0,1,.71.35c1.59,2.88,4.13,4.73,6.65,6.6a17.53,17.53,0,0,1,4.36,4.22c1.66,2.46,1.43,5.28,1.17,7.9a3.85,3.85,0,0,0,.64,3.25s.18-.12.19-.17c1-3,2.81-5.51,4.37-8.21.19-.32.34-.62.71-.54s.28.4.23.75a18,18,0,0,1-3.69,9.16c-.45.57-.61.69-.37,1.39a12.91,12.91,0,0,0,1.86,2.57c4.75,5.64,8.47,9.17,16,9.44,0-8.57.27-17.09-1.19-25.5a5.48,5.48,0,0,0-1.08-2.32,26.54,26.54,0,0,0-4.29-4.62c-1-.88-2.12-1.81-3-2.67A1.87,1.87,0,0,0,42,55.47c-.94.34-1.79.86-2.64,1.19a12.82,12.82,0,0,1-5.09.78c-.67,0-.59-.43-.23-.78,2.28-2.19,4.17-3.61,7.45-3.11a2.58,2.58,0,0,0-2.61-1.4,8.79,8.79,0,0,1-6.26-2.09,13.48,13.48,0,0,1-4.49-9.93,87.28,87.28,0,0,1,.44-10.06c0-.3-.07-.59.28-.74s.58.23.73.49C31,32.29,33,33.56,35.43,34.9c3.59,2,6.39,4.07,8,8,.95,2.35.24,4.5-.74,6.67-.61,1.35-.44,1.92.78,2.67.31-2.62,1.65-3.94,3.79-5.3.39-.25.76-.59,1.17-.33s.17.68,0,1a41.39,41.39,0,0,1-2.74,5.69,1.19,1.19,0,0,0,.08,1.45c1.88,1.85,3.77,3.55,5.67,5.35.15.14.3.33.53.21s.21-.35.23-.58c.41-5,1-10.06,1.7-15.08a2.46,2.46,0,0,0-1.24-2.56c-3.35-2.61-6-5.1-6.82-9.45-.53-2.79-.14-5.56,0-8.41a1.07,1.07,0,0,1,.92-1c.53,0,.68.42.85.78,1,2.21,2.85,3.72,4.57,5.24.71.62.86,0,1-.43.83-3.34,2.2-6.47,3-9.74A69.07,69.07,0,0,0,57.66,5.3a32.94,32.94,0,0,0-.29-3.7c-.08-1,0-1.28.75-1.53s1,.26,1.31.85c3,6.55,7,12.61,9.68,19.33,2.09,5.17,2.84,10.1.5,15.39-2,4.61-6.44,6.09-10.93,7.54-1.13.37-1.71.7-1.9,1.89-.52,3.19-1.18,6.36-1.57,9.59a26.59,26.59,0,0,0,0,4.28c0,.32,0,.72.63.46a3.9,3.9,0,0,0,1.61-2.59,8.92,8.92,0,0,1,1.06-5.67,7.13,7.13,0,0,1,4.59-3.37c4-1.13,7.46-2.35,10.69-5a6.66,6.66,0,0,0,1.09-1.3c.34-.45.47-.91,1.07-.72s.56.86.39,1.32a13.45,13.45,0,0,1-1.82,4c-3.21,4-7.14,7-11.09,10.19-1.84,1.49-4.11,2.06-5.76,3.89a7.41,7.41,0,0,0-1.92,6.37,116.58,116.58,0,0,1,.84,15.89c0,2.24.07,4.56-.06,6.82m7.62-71a31.92,31.92,0,0,0-1.65-6.11,24.28,24.28,0,0,0-2.78-5c-.16-.26-.47-.55-.78-.31s-.18.46,0,.75A29.55,29.55,0,0,1,62,13.89a18.31,18.31,0,0,1,1,9.59c-.77,4.25-2.75,7.67-4.93,11.34a14.1,14.1,0,0,0-2.2,5.34c0,.29,0,.72.36.78s.51-.33.65-.62c1.14-2.29,2.43-4.4,3.72-6.61A23.89,23.89,0,0,0,64.15,18.22ZM89.43,49.65a1,1,0,0,0,.93-.16c2.53-1.63,5.23-2.11,8.09-2.62a13.57,13.57,0,0,0,8.91-5,3.12,3.12,0,0,0,.49-2.93,13.29,13.29,0,0,1-10,6.64c-2,.33-4.09.46-5.69,1.26A4.94,4.94,0,0,0,89.43,49.65ZM32.51,73.47a4.7,4.7,0,0,0-1.7-3.13c-3.83-3.42-6.47-6.85-7.93-11.87-.1-.34-.08-.91-.62-.83s-.43.74-.36,1.1a20.49,20.49,0,0,0,3.58,8.4C27.38,69.74,30.05,71.45,32.51,73.47ZM29.94,34.11a27.24,27.24,0,0,0,4.62,8.14c1.93,2.35,3.65,4.16,4.86,6.89.2.44.42.81.94.61s.29-.85.11-1.2a39.48,39.48,0,0,0-5.37-7.69,17.08,17.08,0,0,1-4-7.15c-.11-.43-.05-1.06-.71-.94S29.75,33.59,29.94,34.11ZM66,95.19c-.32,0-.31.26-.22.44a11,11,0,0,0,2.34,2.88A15.73,15.73,0,0,0,74,102c.19.06.42.39.71,0s-.12-.41-.31-.49a17.68,17.68,0,0,1-5.87-3.82,21.73,21.73,0,0,0-1.94-2.25A.82.82,0,0,0,66,95.19Zm-6.22-4.93c1.9,0,2.45,0,2.38-2A10.9,10.9,0,0,0,59.73,90.26Z"></path>
      <path class="cls-14" d="M64.15,18.22a23.89,23.89,0,0,1-3.54,15.49C59.32,35.92,58,38,56.89,40.32c-.14.29-.26.67-.65.62s-.4-.49-.36-.78a14.1,14.1,0,0,1,2.2-5.34c2.18-3.67,4.16-7.09,4.93-11.34a18.21,18.21,0,0,0-1-9.59,29.55,29.55,0,0,0-3.08-6.38c-.18-.29-.31-.5,0-.75s.62,0,.78.31a24.28,24.28,0,0,1,2.78,5A31.92,31.92,0,0,1,64.15,18.22Z"></path>
      <path class="cls-14" d="M89.43,49.65a4.94,4.94,0,0,1,2.72-2.78c1.6-.8,3.74-.93,5.69-1.26a13.29,13.29,0,0,0,10-6.64,3.12,3.12,0,0,1-.49,2.93,13.57,13.57,0,0,1-8.91,5c-2.86.51-5.56,1-8.09,2.62A1,1,0,0,1,89.43,49.65Z"></path>
      <path class="cls-14" d="M32.51,73.47c-2.46-2-5.13-3.73-7-6.33a20.49,20.49,0,0,1-3.58-8.4c-.07-.36-.18-1,.36-1.1s.52.49.62.83c1.46,5,4.1,8.45,7.93,11.87A4.66,4.66,0,0,1,32.51,73.47Z"></path>
      <path class="cls-14" d="M29.94,34.11c-.19-.52-.19-1.21.47-1.34s.6.51.71.94a17.08,17.08,0,0,0,4,7.15,39.48,39.48,0,0,1,5.37,7.69c.18.35.41,1-.11,1.2s-.74-.17-.94-.61c-1.21-2.73-2.93-4.54-4.86-6.89A27.24,27.24,0,0,1,29.94,34.11Z"></path>
      <path class="cls-14" d="M66,95.19a.82.82,0,0,1,.68.26,21.73,21.73,0,0,1,1.94,2.25,17.68,17.68,0,0,0,5.87,3.82c.19.08.6.12.31.49s-.52,0-.71,0a15.73,15.73,0,0,1-6-3.47,11,11,0,0,1-2.34-2.88C65.64,95.45,65.63,95.23,66,95.19Z"></path>
    </g>
  </g>
</svg>
