<?xml version="1.0" encoding="UTF-8"?>
<svg xmlns="http://www.w3.org/2000/svg" viewBox="0 0 117.66 158.22">
  <defs>
    <style>.cls-1{fill:#a29274;}.cls-2{fill:#e3e0c9;}.cls-3{fill:#fcedce;}.cls-4{fill:#bda885;}.cls-5{fill:#d0c5a6;}.cls-6{fill:#8f8267;}.cls-7{fill:#ab967a;opacity:0.25;}.cls-8{fill:#9b8d71;}.cls-9{fill:#7c705b;}.cls-10{fill:#a5a5a5;}.cls-11{fill:#e7e6e3;}.cls-12{fill:#817870;}.cls-13{fill:#769b57;}.cls-14,.cls-15,.cls-16{fill:none;stroke:#79a05b;stroke-miterlimit:10;}.cls-14{stroke-width:0.48px;}.cls-15{stroke-width:0.42px;}.cls-16{stroke-width:1.5px;}</style>
  </defs>
  <g id="Слой_2" data-name="Слой 2">
    <g id="Слой_1-2" data-name="Слой 1">
      <polygon class="cls-1" points="58.91 80.81 117.66 55.8 108.85 123.45 58.91 158.22 58.91 80.81"></polygon>
      <polygon class="cls-2" points="58.91 38.89 117.66 55.8 58.91 80.81 0 55.8 58.91 38.89"></polygon>
      <polygon class="cls-3" points="58.91 38.89 0 55.8 1.03 56.24 117.12 55.65 58.91 38.89"></polygon>
      <polygon class="cls-4" points="8.81 123.45 0 55.8 58.91 80.81 58.91 158.22 8.81 123.45"></polygon>
      <path class="cls-5" d="M37,56.64a32.49,32.49,0,0,1,2.78-3A27.1,27.1,0,0,1,43,51.15a31.67,31.67,0,0,1,7.38-3.58c1.3-.42,2.62-.77,4-1.07a39.6,39.6,0,0,1,4-.62,38.75,38.75,0,0,1,8.13,0c-2.7.18-5.37.46-8,.89a49.81,49.81,0,0,0-7.75,1.9,40.36,40.36,0,0,0-7.27,3.23A40.94,40.94,0,0,0,37,56.64Z"></path>
      <path class="cls-5" d="M27,59c.09.11.36.15.53.2l.6.12c.4.06.79.12,1.19.15.8.07,1.6.08,2.4.08a36.56,36.56,0,0,0,4.78-.41c3.17-.45,6.3-1.25,9.51-2a27.68,27.68,0,0,1-9.34,3.15,21.35,21.35,0,0,1-5,.15,14.56,14.56,0,0,1-2.46-.43c-.4-.12-.8-.25-1.19-.41A2.62,2.62,0,0,1,27,59Z"></path>
      <path class="cls-5" d="M67.53,73.43A46.57,46.57,0,0,1,79.91,60.52a30.49,30.49,0,0,1,8.09-4,21.78,21.78,0,0,1,4.45-.88,19.25,19.25,0,0,1,4.49.19,23.75,23.75,0,0,0-8.63,1.58,36.8,36.8,0,0,0-7.72,4.14,61.55,61.55,0,0,0-6.86,5.54C71.58,69.07,69.49,71.18,67.53,73.43Z"></path>
      <polygon class="cls-6" points="58.91 80.81 117.66 55.8 108.85 123.45 58.91 158.22 58.91 80.81"></polygon>
      <polygon class="cls-7" points="8.81 123.45 0 55.8 58.91 80.81 58.91 158.22 8.81 123.45"></polygon>
      <polygon class="cls-8" points="58.91 158.22 8.81 123.45 59.15 104.43 108.85 123.45 58.91 158.22"></polygon>
      <path class="cls-9" d="M19.46,93.71a10.93,10.93,0,0,1-.9-2.32A20.6,20.6,0,0,1,18,88.94a18.1,18.1,0,0,1-.09-5,15.64,15.64,0,0,1,4.35-9.08,21.84,21.84,0,0,1,8.65-5.16,37,37,0,0,1,9.8-1.74,54.9,54.9,0,0,0-9.48,2.63,23.28,23.28,0,0,0-8.11,5.11A15.74,15.74,0,0,0,18.86,84a20,20,0,0,0-.26,4.84A18.65,18.65,0,0,0,19.46,93.71Z"></path>
      <path class="cls-9" d="M74.2,92.78c.16.25.49.33.75.47l.84.35c.56.21,1.14.4,1.71.59,1.15.38,2.31.71,3.47,1,2.33.63,4.68,1.2,7,1.66,4.73,1,9.52,1.6,14.37,2.16a53.13,53.13,0,0,1-14.61-1,54.58,54.58,0,0,1-7.08-1.95c-1.15-.41-2.29-.87-3.4-1.39-.56-.27-1.1-.55-1.64-.85A4.26,4.26,0,0,1,74.2,92.78Z"></path>
      <path class="cls-9" d="M42.65,89.25a43.34,43.34,0,0,1-3.9,13,36.2,36.2,0,0,1-3.54,5.84,22.2,22.2,0,0,1-4.89,4.74,40,40,0,0,0,4.13-5.28,61,61,0,0,0,3.22-5.82c1-2,1.83-4.06,2.66-6.14S41.93,91.39,42.65,89.25Z"></path>
      <path class="cls-9" d="M60.87,143.08c2.4-1.17,4.88-2.1,7.3-3.15s4.82-2.12,7.14-3.33A46.15,46.15,0,0,0,82,132.46a19.05,19.05,0,0,0,5.24-5.77,15.3,15.3,0,0,1-4.64,6.49,34.68,34.68,0,0,1-6.68,4.48,57.91,57.91,0,0,1-7.36,3.14c-1.26.45-2.53.84-3.8,1.22Z"></path>
      <path class="cls-9" d="M33.32,135.66a16.55,16.55,0,0,1-3.81-2.41,9.24,9.24,0,0,1-2.76-3.71,5.46,5.46,0,0,1-.34-2.41,6.05,6.05,0,0,1,.73-2.33,11,11,0,0,1,3.19-3.43,30.43,30.43,0,0,1,8.13-4,62.51,62.51,0,0,1,8.7-2.27c-2.82,1-5.62,2-8.37,3.14a37.72,37.72,0,0,0-7.74,4.13,10.35,10.35,0,0,0-2.92,3,4.75,4.75,0,0,0-.49,3.89,9.09,9.09,0,0,0,2.27,3.58A19.48,19.48,0,0,0,33.32,135.66Z"></path>
      <path class="cls-9" d="M87.19,91.41l4.37-6c1.44-2,2.85-4,4.18-6.12a61.26,61.26,0,0,0,3.69-6.37,20.56,20.56,0,0,0,2.31-7,15.82,15.82,0,0,1-1.45,7.34,40.6,40.6,0,0,1-3.54,6.64A62,62,0,0,1,87.19,91.41Z"></path>
      <polygon class="cls-10" points="56.77 119.14 56.83 119.04 56.73 119.03 56.77 119.14"></polygon>
      <path class="cls-11" d="M61.2,72.91a107.26,107.26,0,0,0-.66,12.28c0,1,0,2,.13,3a10,10,0,0,0,.22,1.43c.11.49.26,1,.37,1.52a11.52,11.52,0,0,1-.85,6.23c.3-2,.61-4.14,0-6-.15-.47-.34-.94-.53-1.44a10,10,0,0,1-.3-1.62c-.12-1-.18-2.1-.22-3.14a82.28,82.28,0,0,1,.56-12.46.67.67,0,0,1,.73-.58.66.66,0,0,1,.57.72Z"></path>
      <path class="cls-11" d="M60.66,90.07a4.37,4.37,0,0,1,1.63,2.17,6.22,6.22,0,0,1,.36,2.55,6.16,6.16,0,0,0-.75-2.37,3.76,3.76,0,0,0-1.65-1.59Z"></path>
      <path class="cls-11" d="M60.15,83.12l1.85,2a13.79,13.79,0,0,1,1.76,2.1,7.15,7.15,0,0,1,.93,2.58c.16.89.22,1.79.29,2.68-.28-1.75-.53-3.62-1.58-5a14.41,14.41,0,0,0-1.86-1.89l-2-1.81Z"></path>
      <path class="cls-11" d="M64,87.75a9.2,9.2,0,0,1-.16,1.9,10.43,10.43,0,0,1-.46,1.83,11.77,11.77,0,0,0,.33-1.85,10.52,10.52,0,0,0,0-1.86Z"></path>
      <path class="cls-11" d="M61.9,85.29a2.58,2.58,0,0,1,2.19.19,3.55,3.55,0,0,1,1.44,1.58A3.42,3.42,0,0,0,64,85.65a2.26,2.26,0,0,0-2,0Z"></path>
      <path class="cls-11" d="M60,89.07a2.94,2.94,0,0,0-2.1,1.07,3.47,3.47,0,0,0-.74,2.34A3.58,3.58,0,0,1,57.73,90,3.21,3.21,0,0,1,60,88.65Z"></path>
      <path class="cls-11" d="M59.25,89.18a3.93,3.93,0,0,0-.3,1.37,10.14,10.14,0,0,0,0,1.46c0,1,.33,1.94.31,2.94-.1-1-.48-1.91-.55-2.92a10.73,10.73,0,0,1,0-1.5A3.74,3.74,0,0,1,59,89Z"></path>
      <path class="cls-11" d="M59.78,84.32a14.47,14.47,0,0,0-3,2.44,9.75,9.75,0,0,0-2,3.31,9.94,9.94,0,0,1,1.67-3.58,15.22,15.22,0,0,1,2.8-2.87Z"></path>
      <path class="cls-11" d="M56.85,86.45A9.21,9.21,0,0,1,56.8,88a10,10,0,0,1-.28,1.53A10,10,0,0,0,56.65,88a7.77,7.77,0,0,0-.09-1.53Z"></path>
      <path class="cls-11" d="M58.71,84.83a11.64,11.64,0,0,0-2.6-.52,3.87,3.87,0,0,0-2.55.57,4,4,0,0,1,2.55-.82,11.79,11.79,0,0,1,2.72.27Z"></path>
      <polygon class="cls-3" points="1.03 56.24 58.91 80.81 117.66 55.8 117.12 55.65 1.03 56.24"></polygon>
      <ellipse class="cls-1" cx="60.77" cy="56.98" rx="13.57" ry="5.31"></ellipse>
      <ellipse class="cls-12" cx="61.12" cy="58.77" rx="11.18" ry="4.37"></ellipse>
      <path class="cls-13" d="M69.92,11.44c4.44-6.34-.62-5.13-.62-5.13S68.89-.25,67.88,0s-1.42,6.32-1.42,6.32c-4-.54-3.41,3.84-2.87,5.27a2.59,2.59,0,0,1,.12,2.15,3,3,0,0,0-1.19.25,1.28,1.28,0,0,1-1.28.9,1.31,1.31,0,0,1-.83-.27c-.17.12-.46,0-.84-.58-.78-1.12-1.72-2.25-2.12-1.9s.39,1.36.16,2.47-1,1-2.66-1.79-5.2-3-5.28-1.1-1.33.71-1.33.71c-5.58-4.66-6.28-1.34-6.18-.47s0,0-3.69-.09-2.48,1.06-1,1,10.8,1.75,9.42,2.4-.8,2.3,1.38,2.56,5.47.58,4.64.95S51.54,20.47,51.76,22s2.52-.1,4.67-.27,3.91,3.53,5.42,4.11c.55-1.24,1.83-5.28,1.83-5.28l1.52-1.07C69,17.21,70.87,14,70.09,12.79S69.92,11.44,69.92,11.44Z"></path>
      <path class="cls-13" d="M64.9,29.28c.32-.55.25-2.28,2.55-3.8s1.77-4.86,4.34-2.53c0,0,2.37-1.71,2.48-2.71s1.32-.39,1,.78,1,2.08-2.08,5.32c0,0-.31.28.28.77s0,1.45-1.65,1.82-8.16,2.4-9.59,6.56Z"></path>
      <path class="cls-13" d="M61.71,29.4a8,8,0,0,0-7-2.28c-4.31.69-2.26,2.28-2.26,2.28S46.28,32,50,39.27c0,0,.94,1,1.24-.39s-.05-1.74.55-3,1.49-3.22,1.93-3,1,2.09,1.89.25S58.88,28.6,61.71,29.4Z"></path>
      <path class="cls-13" d="M56.48,58.55c0,2.66,2.06-5.79,4.52-4.26,0,0-.41-3.46-3.47-3.12a2.52,2.52,0,0,0-2.26,2.16C55.13,54.43,56.45,55.84,56.48,58.55Z"></path>
      <path class="cls-13" d="M69.16,42.18c.1-.07.07-.36.11-.48.38-1.09,1.64-5.81,2.87-6.85s1.52-2.28,2-.2c.07.29-.11.53-.24.8,0,0,.26-.15,1.25-.8,2.13-1.41,5.29-3.72,4.79-1.91s-1.15,1.65,0,1.65,3.44-.5,4.81-.3,2.82.81-.64,1.21c-2.84.33-1.64.55-1.12.63a.8.8,0,0,1,.42.18c.36.32.82,1-1.66.89-3.27-.1-2.36,0-2.21.26s1,2.25-1.21,1.85a7.92,7.92,0,0,0-3.76.1c-.2,0,3.16,1.36.53,1.71s-3.8,1.36-5.25,1.26C69.27,42.13,69.07,42.25,69.16,42.18Z"></path>
      <path class="cls-13" d="M66.81,45.18c3.13-.32,12.06-.33,4.39,11.35a.14.14,0,0,1-.25-.05c-.11-.63-.35-2-.41-3-.08-1.33-1.68,1.05-.63-3.33a.13.13,0,0,0-.11-.17c-.49,0-2-.45-1-3.5a.12.12,0,0,0-.06-.15,8.17,8.17,0,0,0-1.91-.85A.13.13,0,0,1,66.81,45.18Z"></path>
      <path class="cls-13" d="M66.93,45.31a19.53,19.53,0,0,0,1.79-5.49,45.15,45.15,0,0,0-.43-6.43c-.11-.7-1.36,1.35-1.36,3.7s.92,2.63,0,2.36-1.46-.62-1.89.66S66.93,45.31,66.93,45.31Z"></path>
      <path class="cls-14" d="M70.52,40.83c-4.35,4.62-8.88,9.59-10.07,15.82"></path>
      <path class="cls-13" d="M55.26,43.29s-12.6-5.9-12,9.28c0,0,1,1.9,2.6-4,0,0-.49-.28,1.41-.42S51.56,41.89,55.26,43.29Z"></path>
      <path class="cls-15" d="M51.88,43c5.2-.42,6.61,3.59,9,3.63"></path>
      <path class="cls-16" d="M61.35,17.83c.85,21.32.71,11.28-.45,32.59-.59,10.91.4.38-.2,11.29"></path>
    </g>
  </g>
</svg>
