<?xml version="1.0" encoding="UTF-8"?>
<svg xmlns="http://www.w3.org/2000/svg" xmlns:xlink="http://www.w3.org/1999/xlink" viewBox="0 0 110.12 155.61">
  <defs>
    <style>.cls-1{fill:none;}.cls-2{fill:#8e6848;}.cls-3{clip-path:url(#clip-path);}.cls-4{fill:url(#Безымянный_градиент_2);}.cls-5{fill:#713e21;}.cls-6{fill:#3d271f;}.cls-7{fill:#69391e;}.cls-8{fill:#6b472f;}.cls-9{fill:#5c3624;}.cls-10{fill:#795135;}.cls-11{fill:#9a734f;}.cls-12{fill:#fff;}.cls-13{fill:#f0f5ad;}.cls-14{fill:#85563a;}.cls-15{fill:#cae36f;}.cls-16{fill:#6b482f;}</style>
    <clipPath id="clip-path">
      <polygon class="cls-1" points="7.72 126.94 57.69 150.45 103.91 127.05 55.86 106.69 7.72 126.94"></polygon>
    </clipPath>
    <linearGradient id="Безымянный_градиент_2" x1="-2758.2" y1="-56.34" x2="-2755.4" y2="-56.34" gradientTransform="matrix(34.36, 0, 0, -34.36, 94757.69, -1807.08)" gradientUnits="userSpaceOnUse">
      <stop offset="0" stop-color="#9b714e"></stop>
      <stop offset="0.38" stop-color="#9b714e"></stop>
      <stop offset="0.89" stop-color="#764528"></stop>
      <stop offset="1" stop-color="#6e3c20"></stop>
    </linearGradient>
  </defs>
  <g id="Слой_2" data-name="Слой 2">
    <g id="Слой_1-2" data-name="Слой 1">
      <path class="cls-2" d="M57.69,84.3s9.62,11.3,17.06,11.76,32.81-7.56,32.81-7.56l2.56-26.43L57.69,43.57Z"></path>
      <path class="cls-2" d="M0,60.19,5.23,94.67s18.58,2.79,21.83,1.86S45.18,90,49.35,90s8.34-5.72,8.34-5.72V43.57Z"></path>
      <g class="cls-3">
        <rect class="cls-4" x="31.38" y="79.37" width="48.87" height="98.4" transform="translate(-75.56 177.41) rotate(-86.92)"></rect>
      </g>
      <path class="cls-5" d="M7.72,126.93,5.23,94.67S28.92,94.2,35.42,91,57.69,84.3,57.69,84.3l-1.83,22.39Z"></path>
      <path class="cls-6" d="M41.49,96.67A8.56,8.56,0,0,0,38.65,95l0,0s-3.79-1.13-5.85,1.42-1.71,5.29-.77,5.73a11.08,11.08,0,0,0,1.63.34l.09,0a28.19,28.19,0,0,0,3.51-.8,1.79,1.79,0,0,0,.6-.15l.65-.19c1.49-.46,1.67-.13,2.69-1a4,4,0,0,0,1.09-2.55l-.21-.5h0l0,0a1,1,0,0,0-.58-.51"></path>
      <path class="cls-6" d="M21.2,100a10.79,10.79,0,0,0-4,1.33v0s-4.3,2.69-3.59,6.84,3.66,6.13,4.88,5.6a13.64,13.64,0,0,0,1.71-1.28l0-.13c.92-1.06,1.59-3.16,2.21-4.06a2,2,0,0,0,.35-.72c.11-.2.21-.42.38-.79.8-1.81,1.28-1.71,1.29-3.45a5.09,5.09,0,0,0-1.54-3.21,3.36,3.36,0,0,0-.66-.22v0h-.08a1.31,1.31,0,0,0-1,.14"></path>
      <path class="cls-7" d="M57.69,84.3l-1.83,22.39,48.06,20.36,3.64-38.55s-15-1.73-21.48-.8-17.84,3.71-21.24,1.86a45.07,45.07,0,0,1-7.15-5.26"></path>
      <path class="cls-6" d="M39.39,107.3a3.49,3.49,0,0,0-1.26-.31h0a2.31,2.31,0,0,0-2,1.19c-.49,1.18-.05,2.17.35,2.23l.65-.05,0,0a10.61,10.61,0,0,0,1.23-.68l.21-.13.22-.15c.51-.34.61-.23.9-.68a1.59,1.59,0,0,0,.12-1.08l-.13-.16h0Z"></path>
      <path class="cls-6" d="M86.47,97.66a2.3,2.3,0,0,0-.11-.89h0s-.38-1-1.27-1-1.43.5-1.38.78l.2.41h0l.75.63.13.11.15.11c.35.24.3.33.66.41a1.06,1.06,0,0,0,.74-.19l.07-.12h0v-.23Z"></path>
      <path class="cls-6" d="M99.89,113.85A11,11,0,0,0,98,110h0s-3.32-3.91-7.36-2.6-5.59,4.54-4.88,5.68a14.32,14.32,0,0,0,1.52,1.53l.14,0c1.19.76,3.39,1.13,4.37,1.61a2.47,2.47,0,0,0,.77.26l.84.25c1.93.55,1.9,1,3.64.79a5.15,5.15,0,0,0,3-2,3.7,3.7,0,0,0,.13-.69h0l0-.08a1.25,1.25,0,0,0-.28-1"></path>
      <path class="cls-6" d="M73.78,100.56a8.37,8.37,0,0,0-1.87,2.69l0,0s-1.4,3.67,1,5.9,5.11,2.08,5.62,1.19a12.49,12.49,0,0,0,.46-1.59l0-.1a27.58,27.58,0,0,0-.52-3.53,1.72,1.72,0,0,0-.12-.61c0-.17-.07-.36-.13-.66-.35-1.5,0-1.65-.81-2.74a3.94,3.94,0,0,0-2.44-1.26l-.51.17v0l0,0a1,1,0,0,0-.54.54"></path>
      <path class="cls-8" d="M74,127.94a1.59,1.59,0,0,0,1.57-.42c.54-.69.43-1.43.17-1.54l-.44-.09c-.29,0-.32.69-.33.71Z"></path>
      <path class="cls-9" d="M73,127.36s.87.79,1.23.55.8-.46.8-.46l0-.24-1-.32-.56.19Z"></path>
      <path class="cls-10" d="M73,127.22c0,.1.12.36.4.27a5,5,0,0,0,.52-.22l.33-1c.06-.15.14-.19-.25-.06s-.45.05-.72.29a1.09,1.09,0,0,0-.28.69"></path>
      <path class="cls-11" d="M73.88,127.26a5.25,5.25,0,0,0,.13-.69c0-.31,0-.39.28-.43s.84-.33,1.11-.22.26.08.26.44a1.24,1.24,0,0,1-.39.86.69.69,0,0,1-.75.33,1.82,1.82,0,0,1-.64-.29"></path>
      <path class="cls-8" d="M63.28,121.81s2.39.13,3.24-1.67.26-3.36-.36-3.48a6.06,6.06,0,0,0-1,0c-.66,0-.37,1.66-.39,1.7Z"></path>
      <path class="cls-9" d="M60.93,121s2.3,1.32,3,.62,1.53-1.4,1.53-1.4l-.15-.52a7.22,7.22,0,0,0-2.27-.25c-.36.2-1,.62-1.16.69Z"></path>
      <path class="cls-10" d="M60.74,120.72c.11.2.43.73,1,.4a9.74,9.74,0,0,0,1.05-.75s.18-1.94.26-2.29.22-.49-.58,0-1,.31-1.44,1a2.41,2.41,0,0,0-.28,1.66"></path>
      <path class="cls-11" d="M62.78,120.37a11.05,11.05,0,0,0-.05-1.59c-.09-.7-.16-.87.42-1.09s1.68-1.12,2.32-1,.6.06.77.84a2.88,2.88,0,0,1-.41,2.1,1.61,1.61,0,0,1-1.52,1.07,4.19,4.19,0,0,1-1.53-.31"></path>
      <path class="cls-8" d="M53.32,129.58s1.86,1.42,3.54.43,2-2.58,1.62-3a7,7,0,0,0-.84-.53c-.55-.33-1.21,1.15-1.25,1.16Z"></path>
      <path class="cls-9" d="M51.86,127.63S53,130,53.94,129.76s2-.29,2-.29l.16-.51s-1.29-1.4-1.7-1.44-1.14,0-1.32-.07Z"></path>
      <path class="cls-10" d="M51.86,127.31c0,.23,0,.83.59.86a8.3,8.3,0,0,0,1.26,0l1.46-1.7c.25-.25.45-.28-.47-.33s-1-.27-1.7,0a2.35,2.35,0,0,0-1.14,1.19"></path>
      <path class="cls-11" d="M53.71,128.14a11.08,11.08,0,0,0,.83-1.31c.3-.61.35-.79.93-.65s2,0,2.44.44.45.38.17,1.11a2.85,2.85,0,0,1-1.49,1.47,1.56,1.56,0,0,1-1.81,0,3.92,3.92,0,0,1-1.07-1.09"></path>
      <path class="cls-8" d="M49,123.14a2.67,2.67,0,0,0,.1-2.73c-.86-1.2-2.11-1.38-2.41-1l-.35.67c-.22.45,1,.85,1,.88Z"></path>
      <path class="cls-9" d="M47.63,124.38s1.7-1,1.49-1.73a15.08,15.08,0,0,1-.35-1.51l-.4-.09s-1,1.09-1,1.4,0,.87,0,1Z"></path>
      <path class="cls-10" d="M47.39,124.4c.18,0,.63,0,.62-.5a7.72,7.72,0,0,0-.11-1l-1.4-1c-.2-.17-.23-.32-.21.38s-.15.74.12,1.3a1.75,1.75,0,0,0,1,.78"></path>
      <path class="cls-11" d="M47.9,122.94a7.93,7.93,0,0,0-1.06-.54c-.49-.2-.62-.22-.55-.67s-.13-1.51.17-1.89.26-.37.84-.2a2.14,2.14,0,0,1,1.21,1,1.19,1.19,0,0,1,.15,1.38,3,3,0,0,1-.76.89"></path>
      <path class="cls-8" d="M40.56,125.16a1.17,1.17,0,0,0,.38-1.12c-.2-.61-.69-.85-.86-.74l-.23.24.29.48Z"></path>
      <path class="cls-9" d="M39.82,125.49s.83-.21.84-.52,0-.67,0-.67l-.15-.09-.58.45-.12.42Z"></path>
      <path class="cls-10" d="M39.71,125.47l.33-.13.08-.41-.46-.59c-.06-.1,0-.17-.13.13s-.16.28-.12.55a.81.81,0,0,0,.3.45"></path>
      <path class="cls-11" d="M40.12,124.93l-.37-.36-.15-.35.32-.76.37,0a1,1,0,0,1,.37.59.51.51,0,0,1-.12.59Z"></path>
      <path class="cls-8" d="M38,129.83s1.64-2.64.13-4.73-3.65-2.38-4.18-1.77a8.24,8.24,0,0,0-.6,1.17C32.94,125.27,35,126,35,126Z"></path>
      <path class="cls-9" d="M35.56,132s2.94-1.79,2.56-3-.63-2.62-.63-2.62l-.69-.14s-1.69,1.88-1.69,2.42.08,1.51.06,1.75Z"></path>
      <path class="cls-10" d="M35.13,132c.31,0,1.1,0,1.07-.87a12.17,12.17,0,0,0-.19-1.66s-2.09-1.42-2.44-1.72-.41-.56-.36.66-.25,1.29.21,2.24A3.1,3.1,0,0,0,35.13,132"></path>
      <path class="cls-11" d="M36,129.49a14.22,14.22,0,0,0-1.84-.93c-.85-.33-1.08-.37-1-1.16s-.23-2.61.29-3.28.45-.64,1.44-.34a3.62,3.62,0,0,1,2.12,1.78,2.05,2.05,0,0,1,.27,2.38A5.33,5.33,0,0,1,36,129.49"></path>
      <path class="cls-12" d="M56.9,84.26a1.91,1.91,0,0,1,.68,1.9,5,5,0,0,1-.64,1.75c-.59,1.08-1.47,1.92-2.09,2.88a4.38,4.38,0,0,0-.69,1.53,2.24,2.24,0,0,0,.31,1.59c.58,1,1.46,1.82,2.13,2.8a.12.12,0,0,1,0,.15.11.11,0,0,1-.16,0c-.69-1-1.57-1.74-2.23-2.77a2.55,2.55,0,0,1-.4-1.81,4.55,4.55,0,0,1,.69-1.7c.63-1,1.46-1.89,2-2.91A4.21,4.21,0,0,0,57,86.09a1.39,1.39,0,0,0-.42-1.29l0,0a.31.31,0,0,1-.08-.43.31.31,0,0,1,.44-.09Z"></path>
      <path class="cls-12" d="M57.31,86.48a2,2,0,0,1,.64.28,5.17,5.17,0,0,1,.51.42,5.85,5.85,0,0,1,.81,1,0,0,0,0,1,0,.07.06.06,0,0,1-.07,0,5.24,5.24,0,0,0-.87-.89,2.83,2.83,0,0,0-.51-.34,1.36,1.36,0,0,0-.53-.19h0a.17.17,0,0,1,0-.33Z"></path>
      <path class="cls-12" d="M54.83,90.35a1.22,1.22,0,0,1,.93.24c.28.24.26.61.31.87s0,.24.17.29a3,3,0,0,1,.39.22,5.37,5.37,0,0,1,.69.55,0,0,0,0,1,0,.06.06.06,0,0,1-.07,0,4.72,4.72,0,0,0-.7-.5l-.39-.19a.48.48,0,0,1-.28-.4c-.08-.3-.09-.59-.29-.73a1.07,1.07,0,0,0-.73-.14h0a.16.16,0,0,1-.17-.13.15.15,0,0,1,.13-.16Z"></path>
      <path class="cls-12" d="M54.22,91.67a2.68,2.68,0,0,0-1.27.4,1.06,1.06,0,0,0-.39.5,1.16,1.16,0,0,1-.29.68,3.63,3.63,0,0,1-1.34.52c-.5.12-.52.72-.71,1.13h0l.2-.69a.74.74,0,0,1,.48-.51,3.72,3.72,0,0,0,1.26-.56c.16-.17.16-.35.21-.63a1.27,1.27,0,0,1,.44-.63,2.91,2.91,0,0,1,1.39-.52.17.17,0,0,1,.18.13.16.16,0,0,1-.14.18h0Z"></path>
      <path class="cls-12" d="M54.13,93.85a1.47,1.47,0,0,0-.75.19,1.51,1.51,0,0,0-.58.57,3.34,3.34,0,0,0-.44,1.63s0,.05,0,0a0,0,0,0,1-.05,0,3.47,3.47,0,0,1,.37-1.73,1.75,1.75,0,0,1,1.53-1,.15.15,0,0,1,.14.15.14.14,0,0,1-.14.14h0Z"></path>
      <path class="cls-12" d="M54.05,92.49c.38.07.76.15,1.14.25.19.05.38.1.57.17a1.32,1.32,0,0,1,.53.31.06.06,0,0,1-.09.08h0a1.19,1.19,0,0,0-.48-.23,5.05,5.05,0,0,0-.56-.12c-.38-.07-.76-.12-1.14-.16a.15.15,0,0,1-.14-.16.15.15,0,0,1,.16-.13Z"></path>
      <path class="cls-12" d="M55.32,84.1a1.67,1.67,0,0,0-.91.88,3.61,3.61,0,0,0-.17,1.42,2.28,2.28,0,0,1-.15.87,1,1,0,0,1-.76.63c-.6.09-1,0-1.25.41a1.84,1.84,0,0,0-.1,1.35,1,1,0,0,1-.06.5,2.68,2.68,0,0,1-.26.33,6.82,6.82,0,0,0-.39.64c-.24.45-.48.91-.7,1.37l-.33.69a1.54,1.54,0,0,0-.05.17s0,0,0,.06,0,0,.06.09-.12.12-.17.18l-.17.11a0,0,0,0,1,0,0,0,0,0,0,1,0,0l.14-.14s.11-.14.1-.08-.06,0-.07-.06a.35.35,0,0,1,0-.13,1.5,1.5,0,0,1,0-.22,5.37,5.37,0,0,1,.26-.74A15.31,15.31,0,0,1,50.93,91c.12-.23.24-.46.39-.7s.24-.28.22-.27a.59.59,0,0,0,0-.27A2.25,2.25,0,0,1,51.68,88a1.23,1.23,0,0,1,.76-.54c.3-.07.57-.07.77-.12a.49.49,0,0,0,.37-.32,1.73,1.73,0,0,0,.09-.66,3.82,3.82,0,0,1,.23-1.64,1.46,1.46,0,0,1,1.4-1,.15.15,0,0,1,.15.17.19.19,0,0,1-.1.14Z"></path>
      <path class="cls-12" d="M51.3,90.86a.23.23,0,0,1-.12.24l-.17.05-.3.08a3,3,0,0,0-.55.24,6.22,6.22,0,0,0-1,.69.08.08,0,0,1-.11,0,.08.08,0,0,1,0-.11,7.59,7.59,0,0,1,1-.74,3.79,3.79,0,0,1,.58-.26A1.81,1.81,0,0,1,51,91l.12,0s0,0,0,0a.11.11,0,0,1,.12-.1A.11.11,0,0,1,51.3,90.86Z"></path>
      <path class="cls-12" d="M54.11,85.13l1.34.9c.22.15.44.3.66.48s.22.55.32.74l0,0a.07.07,0,0,1,0,.07.06.06,0,0,1-.07,0c-.17-.26-.18-.54-.36-.69s-.44-.29-.67-.43l-1.39-.8a.16.16,0,1,1,.16-.28Z"></path>
      <path class="cls-12" d="M54.65,84.36a4.17,4.17,0,0,1-1.12-.06,3.86,3.86,0,0,0-1.07,0,.42.42,0,0,0-.2.08,1.82,1.82,0,0,1-.27.15c-.18.09-.36.15-.54.22-.36.12-.76.21-1.08.32h0a.06.06,0,0,1-.08,0,.07.07,0,0,1,0-.08c.37-.19.71-.31,1.06-.47a4.52,4.52,0,0,0,.49-.25,1.1,1.1,0,0,0,.21-.14.88.88,0,0,1,.32-.16,4.46,4.46,0,0,1,1.19-.1,2.7,2.7,0,0,1,1.15.21.19.19,0,0,1,.07.24.2.2,0,0,1-.12.08Z"></path>
      <path class="cls-12" d="M52.93,84.19a1.35,1.35,0,0,0-.81.57,10,10,0,0,1-.3,1.08,1.94,1.94,0,0,1-.77.9,7.06,7.06,0,0,1-1,.53.07.07,0,0,1-.06-.12,5.87,5.87,0,0,0,1-.57,1.63,1.63,0,0,0,.66-.83c.14-.35.14-.68.26-1.11a1.62,1.62,0,0,1,1-.76.17.17,0,0,1,.12.31h0Z"></path>
      <path class="cls-12" d="M57.54,83.51l2.9,2.74a4.13,4.13,0,0,1,.82,1.92,5.59,5.59,0,0,1,0,2c-.21,1.29-.58,2.67.19,3.78a16.29,16.29,0,0,1,1,1.72,4.19,4.19,0,0,1,.42,2,.08.08,0,0,1-.16,0,4,4,0,0,0-.44-1.89,16,16,0,0,0-1.06-1.67,3.31,3.31,0,0,1-.54-2c0-.69.16-1.35.24-2a5.18,5.18,0,0,0-.08-1.92,3.86,3.86,0,0,0-.75-1.71L57.2,83.86a.24.24,0,1,1,.33-.36h0Z"></path>
      <path class="cls-12" d="M62.72,96.39a4.79,4.79,0,0,0-.67.68,1.78,1.78,0,0,0-.43.81,0,0,0,0,1,0,.05.06.06,0,0,1,0-.06A1.79,1.79,0,0,1,62,97a5.55,5.55,0,0,1,.66-.71.07.07,0,1,1,.1.1Z"></path>
      <path class="cls-12" d="M61.64,94.43a2.43,2.43,0,0,0-.87,1.91,0,0,0,0,1-.1,0,2.58,2.58,0,0,1,.84-2.07.1.1,0,0,1,.14,0,.11.11,0,0,1,0,.15h0Z"></path>
      <path class="cls-12" d="M60.48,86.6a1.15,1.15,0,0,1,1.09.36,4.18,4.18,0,0,1,.68.78,6.78,6.78,0,0,1,.52.86c.15.31.27.55.57.63.59.18,1.29.2,1.93.4a6.33,6.33,0,0,1,1.83.8.06.06,0,0,1,0,.08.05.05,0,0,1-.08,0h0a6.56,6.56,0,0,0-1.8-.71c-.63-.18-1.28-.16-2-.33a1,1,0,0,1-.47-.3,2.46,2.46,0,0,1-.28-.44,6.6,6.6,0,0,0-.52-.81,4.35,4.35,0,0,0-.65-.7.94.94,0,0,0-.68-.29l-.06,0a.19.19,0,0,1-.25-.11.2.2,0,0,1,.11-.25Z"></path>
      <path class="cls-12" d="M63.87,89.38a8.2,8.2,0,0,1,1.66.93,2.86,2.86,0,0,1,.63.72,4.92,4.92,0,0,0,.62.67.07.07,0,0,1,0,.1.06.06,0,0,1-.1,0,5.38,5.38,0,0,1-.66-.69,2.64,2.64,0,0,0-.6-.68,7.53,7.53,0,0,0-1.63-.88.1.1,0,0,1,0-.13.1.1,0,0,1,.12-.05Z"></path>
      <path class="cls-13" d="M54,82.16a3.57,3.57,0,0,0,1.09,2.24,1.93,1.93,0,0,0,2.8-.16,2.41,2.41,0,0,0,.18-2.08Z"></path>
      <polygon class="cls-14" points="0 60.19 57.69 84.3 110.12 62.07 57.69 43.57 0 60.19"></polygon>
      <path class="cls-15" d="M65.55,3.73a11.05,11.05,0,0,0-3.44-2.06,4.79,4.79,0,0,0-3.58-.12,5.72,5.72,0,0,0-2.64,2.39A20.3,20.3,0,0,0,54.25,7.5a32.14,32.14,0,0,0-2,7.88,27,27,0,0,0,.35,8,18.29,18.29,0,0,0,.7,1.9,16.62,16.62,0,0,1,.49,2.16c.25,1.41.41,2.81.56,4.21.29,2.8.49,5.58.67,8.37l.48,8.35c.08,1.39.18,2.78.28,4.16L56,54.63c.07.65.15,1.42.24,1.84v0a1.59,1.59,0,0,1-3.09.72v-.07A10,10,0,0,1,53,55.92l-.07-1.09-.1-2.11-.13-4.19-.26-8.34c-.1-2.77-.22-5.54-.43-8.28-.11-1.37-.24-2.74-.43-4.06A15.3,15.3,0,0,0,51.2,26a19,19,0,0,1-.68-2.06,21.27,21.27,0,0,1-.42-4.43,38.51,38.51,0,0,1,.24-4.31,36.25,36.25,0,0,1,2-8.37,16.14,16.14,0,0,1,2.07-3.88A7.3,7.3,0,0,1,58.08.2a6.07,6.07,0,0,1,4.43.57,11.8,11.8,0,0,1,3.36,2.66.22.22,0,0,1,0,.31.21.21,0,0,1-.28,0Z"></path>
      <path class="cls-15" d="M42.25,29.4a4.64,4.64,0,0,1,4.28.52,8.29,8.29,0,0,1,3,3.26,11.24,11.24,0,0,1,.84,2c.18.7.37,1.42.49,2,.27,1.27.61,2.55.93,3.83.64,2.55,1.36,5.1,2.12,7.65s1.46,5.1,2.25,7.62l0,.06a1.53,1.53,0,0,1-2.93.91.19.19,0,0,0,0-.07c-1.33-5.21-2.56-10.41-3.55-15.69-.23-1.33-.47-2.65-.65-4-.08-.68-.2-1.29-.3-1.92a10.14,10.14,0,0,0-.59-1.79,6.63,6.63,0,0,0-5.91-4.1.19.19,0,0,1-.07-.35Z"></path>
      <path class="cls-13" d="M57,57.53a11.9,11.9,0,0,1-1-3.7,15.58,15.58,0,0,1-.12-2.21s-2.36,3.05-3.09,3.71c.07.23.27,1.43.74,3.68,0,.21.08.42.13.63h4.07A10.69,10.69,0,0,0,57,57.53Z"></path>
      <path class="cls-16" d="M58,66.5a1.43,1.43,0,0,0-1.36-.5c-.76.24-1,.83-.92,1a2.4,2.4,0,0,0,.28.29c.18.18.58-.35.6-.35Z"></path>
      <path class="cls-9" d="M58.37,67.41s-.23-1-.62-1-.82-.07-.82-.07l-.11.19s.38.67.54.73l.51.15A3.41,3.41,0,0,0,58.37,67.41Z"></path>
      <path class="cls-10" d="M58.34,67.54c0-.09.1-.32-.15-.4a3.48,3.48,0,0,0-.5-.1s-.61.47-.74.54-.2.06.16.17.35.2.67.16A.93.93,0,0,0,58.34,67.54Z"></path>
      <path class="cls-11" d="M57.69,67a4.85,4.85,0,0,0-.45.44c-.18.22-.21.28-.43.17s-.78-.19-.92-.4-.15-.2,0-.46a1.18,1.18,0,0,1,.73-.44.63.63,0,0,1,.72.16A1.58,1.58,0,0,1,57.69,67Z"></path>
      <path class="cls-16" d="M38.66,59.49a2.08,2.08,0,0,0-2.1-.31c-1,.57-1.26,1.52-1,1.78a3.42,3.42,0,0,0,.49.33c.33.21.74-.67.76-.68Z"></path>
      <path class="cls-9" d="M39.5,60.67s-.65-1.41-1.21-1.3-1.2.15-1.2.15l-.1.3s.75.85,1,.88.68,0,.79.06A5.57,5.57,0,0,0,39.5,60.67Z"></path>
      <path class="cls-10" d="M39.5,60.86c0-.13,0-.49-.34-.52a5.4,5.4,0,0,0-.75,0s-.74.86-.89,1-.27.16.27.2.57.18,1,0A1.43,1.43,0,0,0,39.5,60.86Z"></path>
      <path class="cls-11" d="M38.41,60.34a6.29,6.29,0,0,0-.51.77c-.19.37-.22.47-.57.38s-1.18,0-1.45-.3-.26-.23-.08-.66a1.69,1.69,0,0,1,.9-.86,1,1,0,0,1,1.09,0A2.39,2.39,0,0,1,38.41,60.34Z"></path>
      <path class="cls-16" d="M52.31,56.69s-4.35-2.17-7.39.48S41.73,63.23,42.77,64a14,14,0,0,0,1.91.76c1.25.47,2-2.8,2.1-2.85S52.31,56.69,52.31,56.69Z"></path>
      <path class="cls-9" d="M56,60.13S52.79,55.81,51,56.56a42.08,42.08,0,0,1-4,1.37L46.85,59s3.17,2.36,4,2.29S53.21,61,53.58,61A19.81,19.81,0,0,0,56,60.13Z"></path>
      <path class="cls-10" d="M56.15,60.78c0-.48-.22-1.71-1.52-1.54a19.62,19.62,0,0,0-2.57.54s-1.9,3.46-2.32,4-.81.73,1.08.48,2,.2,3.47-.67A4.91,4.91,0,0,0,56.15,60.78Z"></path>
      <path class="cls-11" d="M52.06,59.78a22.72,22.72,0,0,0-1.18,3c-.4,1.37-.42,1.74-1.66,1.68s-4,.74-5.15,0-1.07-.61-.76-2.2,1-2.33,2.47-3.56A3.24,3.24,0,0,1,49.46,58,8.5,8.5,0,0,1,52.06,59.78Z"></path>
      <path class="cls-16" d="M69,58.08s-2.51-3.41-5.91-2.56-4.88,3.41-4.36,4.4a11.76,11.76,0,0,0,1.17,1.34c.79.86,2.69-1.36,2.76-1.37S69,58.08,69,58.08Z"></path>
      <path class="cls-9" d="M70.55,62.22s-.78-4.63-2.51-4.78-3.63-.52-3.63-.52l-.53.8s1.52,3.09,2.2,3.37,2,.66,2.25.81A16.85,16.85,0,0,0,70.55,62.22Z"></path>
      <path class="cls-10" d="M70.38,62.77c.16-.38.51-1.41-.56-1.8a16.59,16.59,0,0,0-2.2-.59s-2.84,1.92-3.41,2.21-.91.23.65.8,1.5,1,3,.86A4.25,4.25,0,0,0,70.38,62.77Z"></path>
      <path class="cls-11" d="M67.62,60.38a20.14,20.14,0,0,0-2.11,1.85c-.85.9-1,1.19-2,.64s-3.42-1-4-2-.59-.89.28-2,1.74-1.39,3.33-1.78a2.8,2.8,0,0,1,3.16.87A7.3,7.3,0,0,1,67.62,60.38Z"></path>
      <path class="cls-16" d="M57.39,59.85s-3.6-2.77-6.86-.89-4,5-3.19,5.83a12.44,12.44,0,0,0,1.6,1c1.07.65,2.37-2.2,2.45-2.23S57.39,59.85,57.39,59.85Z"></path>
      <path class="cls-9" d="M60.17,63.67s-2.17-4.54-4-4.18-3.9.53-3.9.53L52,61s2.49,2.73,3.27,2.82,2.22.1,2.56.17A18,18,0,0,0,60.17,63.67Z"></path>
      <path class="cls-10" d="M60.17,64.29c0-.44.11-1.61-1.11-1.69a17.2,17.2,0,0,0-2.45,0s-2.37,2.83-2.86,3.29-.88.52.9.63,1.83.55,3.3,0A4.56,4.56,0,0,0,60.17,64.29Z"></path>
      <path class="cls-11" d="M56.61,62.64A19.68,19.68,0,0,0,55,65.18c-.61,1.18-.7,1.52-1.82,1.24s-3.84,0-4.74-.91-.86-.74-.29-2.14S49.5,61.42,51,60.55a3,3,0,0,1,3.51,0A7.76,7.76,0,0,1,56.61,62.64Z"></path>
      <path class="cls-16" d="M76.11,66.16a2.16,2.16,0,0,0,2-1c.54-1.09.19-2.05-.18-2.13a4.44,4.44,0,0,0-.62,0c-.4,0-.24,1-.26,1S76.11,66.16,76.11,66.16Z"></path>
      <path class="cls-9" d="M74.68,65.63s1.4.83,1.82.41,1-.84,1-.84l-.09-.32A4.39,4.39,0,0,0,76,64.71c-.23.11-.62.37-.72.41A5.48,5.48,0,0,0,74.68,65.63Z"></path>
      <path class="cls-10" d="M74.57,65.47c.07.12.26.45.6.25a6.17,6.17,0,0,0,.65-.45s.13-1.18.18-1.39.14-.3-.36,0-.59.18-.88.59A1.47,1.47,0,0,0,74.57,65.47Z"></path>
      <path class="cls-11" d="M75.82,65.27a6.79,6.79,0,0,0,0-1c0-.42-.08-.53.27-.66s1-.67,1.43-.6.36,0,.46.52a1.75,1.75,0,0,1-.27,1.28,1,1,0,0,1-.94.64A2.58,2.58,0,0,1,75.82,65.27Z"></path>
      <path class="cls-16" d="M28.17,68.66a2.18,2.18,0,0,0,2-1c.53-1.09.18-2-.19-2.13a4.44,4.44,0,0,0-.62,0c-.4,0-.24,1-.25,1S28.17,68.66,28.17,68.66Z"></path>
      <path class="cls-9" d="M26.74,68.13s1.4.83,1.82.41,1-.84,1-.84l-.09-.32A4.39,4.39,0,0,0,28,67.21c-.23.12-.61.37-.72.41A5.48,5.48,0,0,0,26.74,68.13Z"></path>
      <path class="cls-10" d="M26.63,68c.07.12.26.45.6.25a6.17,6.17,0,0,0,.65-.45s.13-1.18.18-1.39.14-.29-.36,0-.59.18-.88.59A1.47,1.47,0,0,0,26.63,68Z"></path>
      <path class="cls-11" d="M27.88,67.77a6.79,6.79,0,0,0,0-1c-.05-.42-.08-.53.27-.66s1-.67,1.43-.6.36,0,.46.52a1.75,1.75,0,0,1-.27,1.28,1,1,0,0,1-.94.64A2.58,2.58,0,0,1,27.88,67.77Z"></path>
      <path class="cls-16" d="M41.86,66.93a2.77,2.77,0,0,0,2.63-1.08c.78-1.34.42-2.59-.05-2.73a4.48,4.48,0,0,0-.79,0c-.51,0-.39,1.27-.41,1.29S41.86,66.93,41.86,66.93Z"></path>
      <path class="cls-9" d="M40.09,66.14s1.71,1.17,2.28.67,1.28-1,1.28-1l-.09-.42a5.62,5.62,0,0,0-1.74-.34c-.29.13-.81.42-.94.46A7.15,7.15,0,0,0,40.09,66.14Z"></path>
      <path class="cls-10" d="M40,65.92c.07.16.29.59.74.37a7.12,7.12,0,0,0,.86-.51s.27-1.49.35-1.76.21-.36-.45,0-.77.18-1.18.67A1.9,1.9,0,0,0,40,65.92Z"></path>
      <path class="cls-11" d="M41.57,65.78a9,9,0,0,0,.07-1.24c0-.54-.07-.68.39-.81s1.38-.77,1.87-.65.46.09.55.71a2.28,2.28,0,0,1-.46,1.6,1.26,1.26,0,0,1-1.25.73A3.19,3.19,0,0,1,41.57,65.78Z"></path>
      <path class="cls-16" d="M51.86,65a1.75,1.75,0,0,1,1.62-.25c.8.37,1,1,.82,1.2a3.13,3.13,0,0,1-.37.23c-.25.15-.59-.44-.61-.45Z"></path>
      <path class="cls-9" d="M51.23,65.81s.48-1,.91-.91.94.08.94.08l.08.2s-.56.6-.75.62-.53,0-.61.06A4,4,0,0,1,51.23,65.81Z"></path>
      <path class="cls-10" d="M51.24,66a.27.27,0,0,1,.25-.37,3.86,3.86,0,0,1,.58,0s.59.57.72.66.21.1-.21.14-.43.14-.79,0A1.05,1.05,0,0,1,51.24,66Z"></path>
      <path class="cls-11" d="M52.07,65.57a4.07,4.07,0,0,1,.42.52c.15.24.18.31.44.24s.91,0,1.12-.23.2-.17.05-.45a1.25,1.25,0,0,0-.72-.57.8.8,0,0,0-.84,0A1.73,1.73,0,0,0,52.07,65.57Z"></path>
      <path class="cls-16" d="M66.53,60.86s-3.38-2.5-6.36-.7-3.62,4.68-2.85,5.46a13.38,13.38,0,0,0,1.51.94c1,.58,2.15-2.09,2.22-2.12S66.53,60.86,66.53,60.86Z"></path>
      <path class="cls-9" d="M69.18,64.34s-2.1-4.16-3.78-3.79-3.6.57-3.6.57l-.27.91s2.35,2.49,3.08,2.55,2,.06,2.37.11A16.71,16.71,0,0,0,69.18,64.34Z"></path>
      <path class="cls-10" d="M69.19,64.92c0-.42.07-1.5-1.06-1.55a15.56,15.56,0,0,0-2.27.09s-2.13,2.65-2.58,3.1-.8.49.84.56,1.71.48,3.06,0A4.26,4.26,0,0,0,69.19,64.92Z"></path>
      <path class="cls-11" d="M65.86,63.46a19.69,19.69,0,0,0-1.46,2.37c-.54,1.11-.61,1.43-1.66,1.19s-3.55,0-4.39-.75-.82-.67-.32-2,1.24-1.83,2.64-2.66a2.78,2.78,0,0,1,3.25-.11A7.09,7.09,0,0,1,65.86,63.46Z"></path>
      <path class="cls-16" d="M48.5,64.77s-2.77-.5-4,1.46-.79,3.87-.09,4.11a7.85,7.85,0,0,0,1.18.12c.77.05.67-1.89.71-1.92Z"></path>
      <path class="cls-9" d="M51.11,66.07s-2.49-1.87-3.39-1.16a23.84,23.84,0,0,1-2,1.41l.11.63a8.77,8.77,0,0,0,2.6.62c.46-.18,1.25-.57,1.45-.64A10.22,10.22,0,0,0,51.11,66.07Z"></path>
      <path class="cls-10" d="M51.29,66.42c-.1-.26-.4-.92-1.09-.61a10.53,10.53,0,0,0-1.34.71s-.5,2.23-.63,2.63-.34.53.67.09,1.17-.22,1.82-.93A2.81,2.81,0,0,0,51.29,66.42Z"></path>
      <path class="cls-11" d="M48.86,66.52a12.29,12.29,0,0,0-.17,1.86c0,.83.05,1-.65,1.2s-2.13,1.07-2.86.85-.69-.16-.77-1.09A3.33,3.33,0,0,1,45.2,67a1.88,1.88,0,0,1,1.92-1A4.93,4.93,0,0,1,48.86,66.52Z"></path>
    </g>
  </g>
</svg>
