<?xml version="1.0" encoding="UTF-8"?>
<svg xmlns="http://www.w3.org/2000/svg" viewBox="0 0 101.58 161.64">
  <defs>
    <style>.cls-1{fill:#a29274;}.cls-2{fill:#e3e0c9;}.cls-3{fill:#fcedce;}.cls-4{fill:#bda885;}.cls-5{fill:#d0c5a6;}.cls-6{fill:#8f8267;}.cls-7{fill:#ab967a;opacity:0.25;}.cls-8{fill:#9b8d71;}.cls-9{fill:#7c705b;}.cls-10{fill:#deebdd;}.cls-11{fill:#817870;}.cls-12{fill:#e6f5b2;}.cls-13{fill:#bce27d;}.cls-14{fill:#a8d459;}.cls-15{fill:#81b651;}.cls-16{fill:#93c63e;}.cls-17,.cls-19,.cls-20,.cls-25,.cls-26,.cls-27{fill:none;stroke:#3f6c3e;stroke-miterlimit:10;}.cls-17{stroke-width:0.34px;}.cls-18{fill:#3f6c3e;}.cls-19{stroke-width:0.09px;}.cls-20{stroke-width:0.26px;}.cls-21{fill:#a8d45c;}.cls-22{fill:#cfe77d;}.cls-23{fill:#9ecb3f;}.cls-24{fill:#e3f4ad;}.cls-25{stroke-width:0.29px;}.cls-26{stroke-width:0.14px;}.cls-27{stroke-width:0.22px;}</style>
  </defs>
  <g id="Слой_2" data-name="Слой 2">
    <g id="Слой_1-2" data-name="Слой 1">
      <polygon class="cls-1" points="44.57 103.08 89.01 84.16 82.34 135.33 44.57 161.64 44.57 103.08"></polygon>
      <polygon class="cls-2" points="44.57 71.36 89.01 84.16 44.57 103.08 0 84.16 44.57 71.36"></polygon>
      <polygon class="cls-3" points="44.57 71.36 0 84.16 0.78 84.49 88.6 84.04 44.57 71.36"></polygon>
      <polygon class="cls-4" points="6.67 135.33 0 84.16 44.57 103.08 44.57 161.64 6.67 135.33"></polygon>
      <path class="cls-5" d="M28,84.79a24.87,24.87,0,0,1,2.11-2.25,18.86,18.86,0,0,1,2.45-1.9,25,25,0,0,1,5.57-2.71,29.31,29.31,0,0,1,6.06-1.27c1-.13,2.06-.11,3.08-.15s2,.09,3.07.17c-1,.12-2,.16-3.05.27s-2,.22-3,.42-2,.33-3,.61a29.8,29.8,0,0,0-2.9.82,31.67,31.67,0,0,0-5.49,2.44A30.94,30.94,0,0,0,28,84.79Z"></path>
      <polygon class="cls-6" points="44.57 103.08 89.01 84.16 82.34 135.33 44.57 161.64 44.57 103.08"></polygon>
      <polygon class="cls-7" points="6.67 135.33 0 84.16 44.57 103.08 44.57 161.64 6.67 135.33"></polygon>
      <polygon class="cls-8" points="44.57 161.64 6.67 135.33 44.74 120.94 82.34 135.33 44.57 161.64"></polygon>
      <path class="cls-9" d="M14.72,112.83a13.72,13.72,0,0,1-1.15-7.42,11.75,11.75,0,0,1,3.29-6.87,16.26,16.26,0,0,1,6.54-3.89,28.1,28.1,0,0,1,7.41-1.33q-.91.21-1.83.39c-.61.14-1.21.3-1.81.45s-1.2.35-1.79.52-1.17.41-1.74.62a17.88,17.88,0,0,0-6.13,3.88,12,12,0,0,0-3.25,6.34,14,14,0,0,0-.19,3.66A14.21,14.21,0,0,0,14.72,112.83Z"></path>
      <path class="cls-9" d="M56.14,112.13c.11.19.36.25.56.35l.63.27c.43.16.86.3,1.3.44.87.29,1.75.54,2.63.79,1.76.48,3.53.91,5.32,1.26,3.58.74,7.2,1.21,10.87,1.63a39.82,39.82,0,0,1-11-.74A38.71,38.71,0,0,1,61,114.65a27.08,27.08,0,0,1-2.57-1c-.42-.21-.84-.42-1.24-.65A3.1,3.1,0,0,1,56.14,112.13Z"></path>
      <path class="cls-9" d="M32.26,109.46a32.73,32.73,0,0,1-2.94,9.82,28.44,28.44,0,0,1-2.68,4.42,17,17,0,0,1-3.7,3.58,29.61,29.61,0,0,0,3.12-4,47.16,47.16,0,0,0,2.44-4.41c.73-1.51,1.38-3.07,2-4.64S31.72,111.08,32.26,109.46Z"></path>
      <path class="cls-9" d="M46.05,150.18c1.81-.88,3.69-1.59,5.52-2.38s3.64-1.61,5.4-2.52a34.62,34.62,0,0,0,5-3.14,14.14,14.14,0,0,0,4-4.36,11.43,11.43,0,0,1-3.51,4.91,25.94,25.94,0,0,1-5,3.39,44.83,44.83,0,0,1-5.57,2.38C49.93,149.15,48,149.63,46.05,150.18Z"></path>
      <path class="cls-9" d="M25.21,144.57a9.38,9.38,0,0,1-5-4.64,4.25,4.25,0,0,1,.29-3.58,8.58,8.58,0,0,1,2.41-2.6,23.69,23.69,0,0,1,6.15-3.05A49,49,0,0,1,35.67,129c-2.12.78-4.25,1.52-6.33,2.38a28.73,28.73,0,0,0-5.85,3.12,7.76,7.76,0,0,0-2.21,2.29,3.66,3.66,0,0,0-.38,2.94,6.68,6.68,0,0,0,1.73,2.71A14.51,14.51,0,0,0,25.21,144.57Z"></path>
      <path class="cls-9" d="M66,111.09c2.23-3,4.46-6,6.48-9.18a48.23,48.23,0,0,0,2.79-4.82A15.68,15.68,0,0,0,77,91.82a12,12,0,0,1-1.1,5.56,31,31,0,0,1-2.68,5A46.43,46.43,0,0,1,66,111.09Z"></path>
      <path class="cls-10" d="M45.85,94.87c-.4.69-1-.19-1.38.39s.63,3.48,1.32,5.19c.37.92,1.51,7,1,8.57a21.12,21.12,0,0,0-1.06,4.49c0,.86.1,3.95.52,3.44s.25-2.32.41-3.73c.08-.74,1-2.88,1.24-4.29.45-2.59-.16-6.52-.83-9.07C46.56,97.91,46.21,96.77,45.85,94.87Z"></path>
      <path class="cls-10" d="M44.54,97.2a12.47,12.47,0,0,1-5.18,3c-2.06.55-5.71,3.36-6.37,4.73s.95-.85,1.76-1.29,3-2.67,4.68-2.88a13,13,0,0,0,5.46-2.56C45.83,97.26,44.79,97.38,44.54,97.2Z"></path>
      <path class="cls-10" d="M46.43,98.43a13.64,13.64,0,0,0,4.67,3.28,10.26,10.26,0,0,1,4.61,5.38c.31,1.52-.74-1-1.34-1.61s-2-2.92-3.48-3.26a11.69,11.69,0,0,1-4.78-2.76C45.21,98.44,46,98.78,46.43,98.43Z"></path>
      <path class="cls-10" d="M46.44,112.29a7.4,7.4,0,0,1-3.43.87,5.28,5.28,0,0,0-3.63,2.46c-.42.93.62-.5,1.06-.79s1.6-1.48,2.55-1.27a5.9,5.9,0,0,0,3.26-.44C47,112.74,46.6,112.7,46.44,112.29Z"></path>
      <path class="cls-10" d="M46.58,102.74c-1.87.7-3.64,1.26-5.52,1.85A8.46,8.46,0,0,0,36.7,108c-1.16,1.58,0-.8.41-1.29a10.46,10.46,0,0,1,3.73-2.47c2-.64,3.95-1.11,5.22-2.38S46.54,102.27,46.58,102.74Z"></path>
      <path class="cls-10" d="M47.5,107.88c1.23.61,2.23.78,3.51,1.46s2.53,2.29,3.52,3.37-.39-1-.67-1.31a12.32,12.32,0,0,0-2.71-2.48c-1.44-.7-2.46-1-3.41-2S47.48,107.48,47.5,107.88Z"></path>
      <polygon class="cls-3" points="0.78 84.49 44.57 103.08 89.01 84.16 88.6 84.04 0.78 84.49"></polygon>
      <ellipse class="cls-1" cx="45.97" cy="85.05" rx="10.26" ry="4.01"></ellipse>
      <ellipse class="cls-11" cx="46.24" cy="86.4" rx="8.46" ry="3.31"></ellipse>
      <path class="cls-12" d="M47.5,80.5c.15-.76-.82-1.61-.11-.55.17-.12.3-.14.56-1.67a31.94,31.94,0,0,0,.91-6.68c0-.44-.07.78.08-2.15s1.57-15.78,1.6-19.87.67-6,.43-9.31-2.06-4.27-3.52-.86A29.69,29.69,0,0,1,47,47.33a20.21,20.21,0,0,0-.67,6.92c0,3.79,0,12.76-.12,17S45.27,77.19,47.5,80.5Z"></path>
      <path class="cls-13" d="M38.26,22.13c-.7-1.83-1.33-3.67-2.07-5.5,1.31-.5,1.35-.84,3-1.38S44,14,45.91,13.39c.72,1.9,1,2.81,1.76,4.95s1.91,5.52,2.73,7.89c-1.67.4-3.38.72-5.07,1.09Z"></path>
      <path class="cls-13" d="M48.83,71.15c.17-.25.19-.38.38-.64a8.84,8.84,0,0,1,.81-1,1.17,1.17,0,0,1,.64-.27c.16-.57-.2.09.09-.76a38.64,38.64,0,0,1,1.29-4,24.9,24.9,0,0,0,2.11-4.54c.34-1.52.82-3.11,1.23-4.62-.36-.63-.26-1,.39-1.46a4,4,0,0,0,1.52-2.05c-.18-1.49-.38-3-.56-4.48a7,7,0,0,1,1-2.4c.5-.92.34-1.2,0-2.65s.52-6-.91-7.41a9.89,9.89,0,0,1-2.66-4.94c-.55-2.06-3.35-3.95-5.31-2.16.17,2,.32,3.56.53,5.65A43.24,43.24,0,0,1,50,39.84c-.07,2.38.34,5.68-.15,8.2a43.66,43.66,0,0,0-.49,8.17c0,2.42.12,6.33,0,8s-.22,1-.15,1.87a5.26,5.26,0,0,1-.16,1.82,16.86,16.86,0,0,0-.16,2.35A7.81,7.81,0,0,1,48.83,71.15Z"></path>
      <path class="cls-14" d="M47,16.5c-.44-.82-2-2.07-1-3.1s.91-3.1,1.7-4.26,2.55-4.26,3.9-4.22,2.66,2.13,3.48,3.15a8.49,8.49,0,0,0,3.55,2.57c1.3.42,1.11,1.81,2,2.84s1.31,3.05,1.72,4.43c-.28,1.49-1,3.93-1.14,5.18a17.24,17.24,0,0,0,0,2.3c1,.33,2,.74,3.07,1.1l-.66,1.24a1.5,1.5,0,0,0,.43.9,3.9,3.9,0,0,0,1.26.62,8.13,8.13,0,0,0,.9.13c-.08.31-.06.39-.16.76a4.1,4.1,0,0,1-.71,1.56,3.09,3.09,0,0,1-1,.5c-.33.1-1,0-1.09.26s0,.58-.12.88a3.63,3.63,0,0,1-.87,1.23A8.64,8.64,0,0,0,61,35.67c-.23.36-.29.51-.16.87a5.55,5.55,0,0,0,.94,1.14,4.84,4.84,0,0,0,.38.39,5.75,5.75,0,0,0-.42.43c-.15.2-.27.49-.46.74s-.48.52-.68.81a8.9,8.9,0,0,0-.65.92c-.15.26-.1.53-.24.85s-.3.83-.5,1.17a4.28,4.28,0,0,1-.55.93c-.31.32-.09.31-.67.73s-.31.57-1.69,1.23-1.12-2.41-.63-3.13,2.32-4,.82-3.93-3.19-.66-3-2.12.66-3.44-.24-4.05.51-2.38.48-3S52.34,30,52,29.54s-1-2.72-1.8-2.33-1.43,2.57-1.17,2-.52-6.51-.93-8.07S47.4,18,47,16.5Z"></path>
      <path class="cls-13" d="M48.71,25.72a27.45,27.45,0,0,1,.16-2.94c.14-.78.35-1,.47-1.73a7.54,7.54,0,0,0,.17-2A11.43,11.43,0,0,0,48.73,16c-.36-.77-.81-1.57-1.13-2.13s-.42-.59-.71-1c-.76.75-1.53,1.47-2.3,2.2.14.4.2.75.34,1.16s.38,1.05.55,1.44.37.61.52.95a7.57,7.57,0,0,1,.41.86c.13.35.06.49.2,1s.37,1.31.57,1.93.64,1.66.84,2.22.24.73.41,1.21C48.52,25.71,48.62,25.74,48.71,25.72Z"></path>
      <path class="cls-15" d="M40.09,19.32A18.93,18.93,0,0,1,38.57,18a10.38,10.38,0,0,1-1-1.37c-.32-.55-.57-1.26-.9-1.85-.89-.36-2.2-1-3-1.31a17.74,17.74,0,0,0-1.8-.3,5,5,0,0,1,.09.69,3.22,3.22,0,0,1-.14.87,12.42,12.42,0,0,1-.68,1.66A10.08,10.08,0,0,1,30,18a8.7,8.7,0,0,1-1,.84c.08.14.17.29.24.44a5.34,5.34,0,0,0,1.08.11c.43,0,.94-.11,1.45-.14a4.32,4.32,0,0,1,1.77.24c.44.22.16.33.48.6s-.54.31.5.3A40,40,0,0,0,40.09,19.32Z"></path>
      <path class="cls-16" d="M33.92,13.65a8.49,8.49,0,0,1,.83.49c.32.2.88.59,1.19.82s.53.46.78.69a7,7,0,0,1,.58.63c.24.25.27.48.65.82a2.14,2.14,0,0,0,1.39.14c.65-.16,2.38-.22,3.36-1s1.53-.18,3.23-1,3.41-7.47,4.81-8.7,1.6.89,2,1.82,1.1,3.39,3,3.32S59.33,11,60,13.47s-.17,6.24-.85,8.3-1.67,2.82-.63,4.48,3.94,1.18,5.61,1.32c.58-.3,1.26-.52,1.77-.8a1.52,1.52,0,0,0,.64-1.29c.07-.47-.36-1.36,0-1.74a14,14,0,0,1,1.27-.91c.5-.37,0-.56-.59-.94s-.4-1.08.19-1.4a2.23,2.23,0,0,0,1.11-1.18c.25-.52.23-.92.45-1.48s-.53-.34-.88-.18-1.3.45-1.51-.08A4.42,4.42,0,0,0,65.92,16c-.39-.32-.71-.13-.89-.66s.47-1.38.81-1.81c.2-.22-.16-.53-.42-.77a4.1,4.1,0,0,1-.85-1.37c-.13-.45-.26-.35-.64-.41s-1,.06-1.31-.42A1.26,1.26,0,0,1,63,8.9c.61-.29.56-.28,0-.56A2.81,2.81,0,0,1,61.7,6.87,3.73,3.73,0,0,0,61,5.57c-.37-.57-.81-1.07-1.36-1s-2.76.85-2.39-.09.91-1.26-.08-1.65S56,2.51,55.78,1.73,55.44.53,54.4.4A45.26,45.26,0,0,0,49.86.14c-.9,0-.51,0-1,.41s-.54.6-1.32.44a5,5,0,0,0-2.6.27,19.39,19.39,0,0,0-2.27.81A1.59,1.59,0,0,0,42,3c-.19.38-.09.92-.38,1.22s-.55.24-.9.31-.9.09-1.08.39-.26.36-.26.69a2.83,2.83,0,0,0,.11.94c.11.44,0,.71-.57.43s-3.08-.4-2.2.73c0,.39.09.6,0,1s-.13.81-.24,1.38a1.42,1.42,0,0,0,.29.92,1.49,1.49,0,0,1-.92,2,19.36,19.36,0,0,1-2.83.44C33.35,13.52,33.63,13.51,33.92,13.65Z"></path>
      <path class="cls-14" d="M34.88,39c-.25-.19-.58-.1-1-.28a1.38,1.38,0,0,0-.88-.14c-.35.1-1,.23-1.35.38.08-.23.22-.43.29-.67a8,8,0,0,0,.21-.88c0-.23,0-.33,0-.54-.24,0-.42,0-.67,0a1.19,1.19,0,0,0-.76.33c-.18.22-.42.4-.43.7a5.76,5.76,0,0,0,.1.95c.06.26.28.73.32.87s0,.29-.07.25c-.28-.13-.5-.12-.76-.56s-.73-1.64-1-2.18a2.65,2.65,0,0,0-1.06-1.31,3.88,3.88,0,0,1-.74-.27c.19-.19.35-.2.53-.44A2.69,2.69,0,0,0,28,33.67a6.13,6.13,0,0,0-.23-1,4.24,4.24,0,0,0,.48,0,5.88,5.88,0,0,0,1.84-.33,1.64,1.64,0,0,0,.9-1.41,1.69,1.69,0,0,0-.72-1.22c-.36-.24-.79-.3-1-.51s-.24-.32-.47-.54c.68-.11.14-.16,1.07-.28s2.38.3,3.85-.08,4.12-1.49,5.8-2c.94,0,1.8,0,2.7,0,1,.87,1.93,1.17,2.92,2.17a40.91,40.91,0,0,1,3.08,3.81c-2.94,1.56-9,4.82-11.18,6S36.38,38.27,34.88,39Z"></path>
      <path class="cls-13" d="M46.87,31.7A5.38,5.38,0,0,1,46.59,29c.18-.78.71-2.85,1.45-3.08a6.37,6.37,0,0,0-1.2-1A8.1,8.1,0,0,0,44.18,24a3.44,3.44,0,0,0-1.84.25,4,4,0,0,1-1.39.47L39.38,27l1.23.1c.41,0,1-.06,1.37,0a3.46,3.46,0,0,1,1,.23c.24.12.32.28.54.53s.55.9.77,1.21a6.77,6.77,0,0,0,.52.71c.26.29.71.57,1,.87S46.53,31.39,46.87,31.7Z"></path>
      <path class="cls-16" d="M32.22,21.33c.51-.27,1.33-.82,1.77-1.06a10.07,10.07,0,0,1,.95-.4c.35-.15.63-.25,1-.37s.71-.26,1-.36.59-.17.9-.24a1.76,1.76,0,0,1,.94,0,3.31,3.31,0,0,1,.87.24c.28.18.33-.14.68.27s.78-.27,1,1.12,1.64,3.25-.48,5.74-8.21,4.66-12,2.3a3.21,3.21,0,0,0,.87-.26,2.22,2.22,0,0,0,.95-.51,3.26,3.26,0,0,0,.56-1.61,7,7,0,0,0-.12-1.84c-.1-.44-.09-.59.25-.72a5.13,5.13,0,0,1,1.3,0c.27,0,.94.41.94.12s-1-1.48-1.14-1.83A3.31,3.31,0,0,1,32.22,21.33Z"></path>
      <path class="cls-13" d="M46.34,65.83c-.16-2.85,0-6.47.12-9.14s-.35-4.48-.5-7c-1.22-1.23-2.41-2.53-3.61-3.79l-2.94.69a2.35,2.35,0,0,1,.51.9,1.74,1.74,0,0,1-.37,1.34,7.91,7.91,0,0,0-.65.47c.21.05.41.19.63.22s.53,0,.8,0c0,.4,0,1-.07,1.32s0,.6,0,.91,0,.53-.15.83a3,3,0,0,1-.73.83c-.36.3-1.11.73-1.54,1,0,.12.1.23.15.35l1.36.2c.28.5.51,1,.81,1.54.09.15.32.17.43.3l-.67,1c.07.4.22.79.28,1.18a10.55,10.55,0,0,0,.12,1.13,2.74,2.74,0,0,0,.25.82c.25.56.93,1.88,1.31,2.57.81.44,1.8,1,2.56,1.33S45.65,65.46,46.34,65.83Z"></path>
      <path class="cls-16" d="M46.19,62.87c.25-.09.49-.25.75-.36.1-.52.26-1.13.35-1.63s.16-.65.22-1.2.06-1.5.1-2.11a9.72,9.72,0,0,0,0-1.86,13.63,13.63,0,0,1-.19-1.41c0-.56-.08-1.13-.09-1.75a19.76,19.76,0,0,1,.18-2.21c.06-.58.43-.45.26-1.13a11,11,0,0,0-1-3,21,21,0,0,0-1.54-1.58c-.8.27-2.85.72-3.24,1.31s.31.79.17,1.29a9.21,9.21,0,0,1,1,.58,6.33,6.33,0,0,1,.83.71,5.21,5.21,0,0,1,.7.79c.19.31.14.3.25.8s.31,1.85.4,2.4.1.39.18,1a20.15,20.15,0,0,1,.19,2.27,2,2,0,0,0,.1.93,2.4,2.4,0,0,1,.3,1.37c-.1.5-.36.42-.21,1.22A33.06,33.06,0,0,1,46.19,62.87Z"></path>
      <path class="cls-16" d="M47.84,49.28c-.39-.75-.87-2-1.24-2.61a7.23,7.23,0,0,0-.92-1.11c-.37-.47-.86-.87-1.25-1.36-.13-1.33-.29-3.74.12-4.8s1.12,0,1.51-.85-1-4.34-.74-5.29a1.35,1.35,0,0,1,1.6-.87c.3.09.44.21.41.08-.1-.51-.34-.47-.54-1a5.9,5.9,0,0,1-.66-2.37,10.66,10.66,0,0,1,.85-3c.34-.53.38-.22.65-.62.17.36.48.4.64.78a4.15,4.15,0,0,1,.5,1.23c.15.73.18,2,.31,3s.42,3.64.52,4.52.08,1,.12,1.45,0,.66-.24.82a.53.53,0,0,0-.31.43c-.06.26-.17.47-.24.76s-.17.64-.21,1a6.32,6.32,0,0,0-.08.83c0,.37,0,.93,0,1.38s0,.87,0,1.39.09,1.21.08,1.78a12,12,0,0,1-.12,1.79c-.09.56-.35,1.42-.48,1.88S48,48.94,47.84,49.28Z"></path>
      <path class="cls-13" d="M36.31,47.19c.23.21.34.38.72.3a8.6,8.6,0,0,0,1.19-.42,4.2,4.2,0,0,1,1.57-.45A7,7,0,0,1,42,47c.68.25.68-.34,1.26-.63S44.45,47,45,46s-.22-4.81.32-5.75,1.09-.34,1.54-.17.88-1,.55-1.76-1.94-4.65-1.31-5.41.75-.13,1.25-.18c-.32-.18-.63-.56-.94-.75a8,8,0,0,0-1-.47c-.29-.12-.38-.08-.66-.18l-1.06-.4-.5-.14-.72-.2a2,2,0,0,0-.36-.1,1,1,0,0,0-.44,0c-.16,0-.22.12-.44.17s-.73.19-1,.23a5.68,5.68,0,0,1-.69.06c-.24,0-.53,0-.75,0s-.34-.08-.55,0,0,0-.2.19-.65.69-.83.89-.33.4-.44.56a2.75,2.75,0,0,0-.23.38c-.08.14-.11.25-.18.39s-.09.28-.16.43a4.44,4.44,0,0,1-.24.49c-.1.13-.26.21-.37.33l.7-.31c.29-.12.82-.4,1.1-.5a6.53,6.53,0,0,1,.7-.24,1.84,1.84,0,0,1,.57,0,1.86,1.86,0,0,1,.51.15,2.65,2.65,0,0,1,.46.31c.14.11.22.23.37.37s.28.42.44.58.33.2.48.32c-.13.05-.07.07-.25.14s-.69.14-.91.22a3,3,0,0,0-.55.21,6.36,6.36,0,0,0-.57.4l-.41.28-.42.3c-.19.13-.64.45-.83.57a3.07,3.07,0,0,1-.38.22c-.19.11-.31.16-.57.29l-1,.46c-.31.15-.79.28-1.05.44a2.71,2.71,0,0,0-.62.52,2.78,2.78,0,0,0-.45.62c0,.08-.07.23,0,.29a1.54,1.54,0,0,0,.54.36,1.12,1.12,0,0,0,1.07-.08,10.14,10.14,0,0,1,1.6-1c.4-.16.81-.11,1.21-.23-.14.14-.4.25-.51.39s-.5.72-.64.93-.06.17-.17.32a5.74,5.74,0,0,1,.82-.1,3.17,3.17,0,0,1,.93.23,5,5,0,0,1,.86.51c.19.14.24.38.43.53-.3.08-.21,0-.59.13s-1.21.42-1.68.56c.2.16.36.18.59.36a8,8,0,0,1,.88.63,1.72,1.72,0,0,1,.4.66,3.1,3.1,0,0,1,0,1.18,1.45,1.45,0,0,1-.39.64A8.87,8.87,0,0,1,37,47C36.73,47.14,36.59,47.05,36.31,47.19Z"></path>
      <path class="cls-13" d="M51,69.1c-.4,0-.88.05-1.08-.67a4.46,4.46,0,0,1,.85-2.88c.86-1.24,1.74-3.38,2.43-4.47s-.06-1.28.05-2.17S55,56.5,55.07,55.2s1.91-2.6,1.57-3.74-2.52-.68-3.37-.78c.49-.72,1.34-2,1.78-2.58s.76-1,1.06-1.45l.61-.77c.23-.29.38-.43.6-.71,0,.2.1.09,0,.36s-.28.76,0,1.15a2,2,0,0,0,1.64.77,5.67,5.67,0,0,0,1.37-.54c0,.26.1.34,0,.64a5.79,5.79,0,0,1-.55,1.16,5.14,5.14,0,0,1-1,.84c-.29.21-.32.19-.28.58s.48.83.26,1.34a3.67,3.67,0,0,1-1.3,1.39c-.51.32-1.3.7-1.77,1S55,54.6,55.44,55a1.72,1.72,0,0,0,1.53.29c.49-.14.28.22.21.67A1.75,1.75,0,0,1,56,57c-.47.08-1,.63-.69,1a7.29,7.29,0,0,0,.49.54c.2-.08.41-.13.62-.21a5.25,5.25,0,0,1-.16.59,3,3,0,0,1-.53.84c-.22.23-.66.29-.34.7s.83.8.9,1.41a3.07,3.07,0,0,1-.46,1.85c-.12-.26-.17-.45-.29-.73s-.36-.71-.7-.79a1.26,1.26,0,0,0-1.06.06.77.77,0,0,0-.2,1c.19.29.91.61.88.91s-.19.31-.46.53-1.12.54-1.43.73-.31.24-.34.54.06.69,0,1a.88.88,0,0,1-.46.72c-.26.12-.33.17-.26.42s.64.68.31.81A2.07,2.07,0,0,1,51,69.1Z"></path>
      <path class="cls-12" d="M47.5,80.49a22,22,0,0,0-.87-2.75,12,12,0,0,1-.34-4.7c.22-1.25.3-1.64.46-2.87s.27-2.94.48-4.24a1.87,1.87,0,0,0,0-1.21c-.14-.63-.22-1.91-.44-2.69s-.65-2.19-.82-2.83a1.38,1.38,0,0,0-.65-1c-.34-.24-.55,0-.85-.21a1.73,1.73,0,0,1-.63-.74,7.29,7.29,0,0,0-1-1.41,4,4,0,0,0-.93-.73A2.07,2.07,0,0,0,40.25,55c-.44.2-.76.23-1,.56s-.36.78-.59,1.13c.28,0,.49-.1.78-.09a2.19,2.19,0,0,1,.83.2c.31.13.1.41-.08.51s-.54.36-.41.48c.33.28.11-.09.71.25A8.61,8.61,0,0,1,43,60c.24.36,1,1.24,1.32,1.68s.67,1,.92,1.38.46.79.66,1.18a10.23,10.23,0,0,1,.37,1.15c-.22-.23-.32-.44-.55-.67s-.24-.47-.69-.6-1.34-.34-1.87-.55a10.28,10.28,0,0,1-1.62-.84c-.43-.28-.36-.42-.9-.51s-1.43-.06-2.05-.13c.23.27.18.22.49.56s1,1.08,1.36,1.48.83.76,1.23,1.1.82.59,1.22.92c-.3.09-.75.21-1,.3a5.25,5.25,0,0,1-.55.25c.24.34,0,.35.45.73s1.41,1.11,1.64,1.79.42,1.17.68,1.8a15.77,15.77,0,0,0,.62,1.7,8.41,8.41,0,0,1,.9,2.87,12.12,12.12,0,0,0,.83,3.16A8.1,8.1,0,0,0,47.5,80.49Z"></path>
      <path class="cls-17" d="M47.49,80.47c-1.26-1.64-1.76-4.33-2.14-6A33.76,33.76,0,0,0,44,70.89,6.06,6.06,0,0,0,42.31,68a2,2,0,0,1-1-1.21c-.2-.5,1.76-.45,1.48-.62S40.4,64.5,40.24,64s-1.75-1.7-1.6-1.85a7.54,7.54,0,0,1,2.5.23c.65.17-.76-1.66-.83-2.36s-.1-2-.73-2.19,1.44-.69,1.08-.72-1.25-.75-2-.28a3.53,3.53,0,0,1,1-1.74c-.35-.29-1.77.09-1.83-.54s2.2-1.32,2.35-2.28-.15-1.87.15-2.74a2.22,2.22,0,0,1-1.53-.14,1.86,1.86,0,0,0,.88-2.31c0-.15-.28-.44-.83-.24s-1.85,1.07-2.52.38c.94-.4,1.74-.4,2.23-1.63s-.63-2.55-2-2.73c.6-.62,2-.37,2.48-.92s-2.66-1.42-3-1c.37-.72.61-1.47,1.51-1.69s-2,.71-3.1,1.32c-.11.06-.78.26-1,.05s-.48-.27-.67-.49c.25-.51.93-.86,1.15-1.35s-2,.18-2.23.45a22.38,22.38,0,0,1,.54-2.3c-2.08,0-1.9,1.54-1.33,3.13-.8.07-1.6-1.22-1.67-2.26s-1.65-1.54-2-2.08,1.61-1.54.59-3c1.32,0,3.11-.13,3.12-1.68s-1.55-1.23-2.07-2.37a2.84,2.84,0,0,0,2.27-1.73c.37-1,0-1.79,0-2.8S33,23.7,33.75,24s-1-1.75-1.54-2.63c.52-.54,1.31-.31,1.67-1.16s-2.05-1-2.7-.87-1.94.39-2.25-.45a6.46,6.46,0,0,0,2.46-3A3,3,0,0,0,31.65,13a4,4,0,0,0,2.82.27c1.33-.2,3.44-1.06,2-2.93a4.19,4.19,0,0,0,.12-3c-.42-.92,2.52-.35,2.82-.2s-.3-1.78.29-2.28a3.09,3.09,0,0,1,1.71-.44c.59,0,.55-2.11,1.53-2.44A16,16,0,0,1,46.57.82c.9,0,.85.26,1.58.23s.27-.9,1.18-.88L54,.35c.93,0,1.17.13,1.58.6s0,1,.49,1.39a8.32,8.32,0,0,0,2,.86c-.19.46-1.17,1.1-.66,1.71s1.84-.54,2.63-.29,1.47,1.9,1.8,2.69,1.44,1,2,1.6c-.62-.08-1.05-.16-1.38.56s.42,1.47,1,1.52.71,0,.8-.37a7.43,7.43,0,0,1,.48,1.56c.12.55,1,.66,1.29,1.09-.46.43-1.33,1.47-1,2.07s1.11.52,1.23,1.11.24,1.22.78,1.4,1.79-.6,2-.39-.45,2.48-1,2.71-1.43,1.11-1,1.54,1.28.38,1.2.88-1.79.56-1.63,1.45A3.09,3.09,0,0,1,66,26.76c-.7.65-1.67.41-2.31,1.09s2.1,1.7,2.52,1.52a3.38,3.38,0,0,1-1.48,2.68c-.77.38-1.46,0-1.55.88a2.91,2.91,0,0,1-1.38,2c-.69.48-1.28,1.08-.88,1.83s1,.83,1.42,1.41c-.49.28-.75.2-1,.89S60,40.36,59.8,41.28a7.57,7.57,0,0,1-1.4,2.93c-.62.75-1.6,1.41-1,2.45s2,.9,3,.26a2.89,2.89,0,0,1-1.75,2.72c-.1.59-.14.48.15,1.23s-.71,1.93-1.6,2.18-2.58,1.28-1.77,1.88a1.32,1.32,0,0,0,1.58.29c.61-.14-.11,1.28-.4,1.48s-1.53.24-1.34.95.55,1,1.29.53a5.66,5.66,0,0,1-.62,1.29c-.22.49-1,.36-.33,1.13a2.32,2.32,0,0,1,.15,3.14,1.68,1.68,0,0,0-.88-1.61c-.6-.22-1.27-.07-1.38.54s.62,1,1,1.32-1,1-1.29,1.13-.92.25-.93.73a4.5,4.5,0,0,1,0,1.48c-.16.39-.58.07-.65.42s.2.65.33,1-1.48.43-1.92.86a3.19,3.19,0,0,0-1.11,2.31,10.7,10.7,0,0,1-.31,3.68c-.38,1.18-.57,3.46-1,4.44S46.85,77.32,47.49,80.47Z"></path>
      <path class="cls-18" d="M46.7.78c.1.75.23,1.51.26,2.27a11.79,11.79,0,0,1-.12,2.3,13.75,13.75,0,0,0-.17,4.52c-.11,3.18,2.53,5.42,2.94,8.59a7.29,7.29,0,0,1,0,2.33c-.12.77-.35,1.5-.51,2.24a8.26,8.26,0,0,0-.17,2.22l.22,2.27c.3,3,.58,6.11.92,9.07.06.36.17.71.27,1.1a3.56,3.56,0,0,1,.09,1.22c-.1.82-.26,1.5-.3,2.27a18.05,18.05,0,0,0,.14,4.47A15.82,15.82,0,0,1,50,50.29c-.08.72-.07,1.51-.15,2.27s-.14,1.51-.16,2.26c0,3,.47,6.06.06,9.17a13.22,13.22,0,0,0-.34,2.23c0,.76-.12,1.53-.19,2.29L49,70.79a10.75,10.75,0,0,0,0,2.27h-.07a10.29,10.29,0,0,1-.1-2.29l.1-2.29c0-.76.1-1.51.1-2.27a14.46,14.46,0,0,1,.26-2.3c.3-3-.24-6-.26-9.1,0-.78.08-1.55.15-2.31s.08-1.49.16-2.28a15.46,15.46,0,0,0,.3-4.45,19.06,19.06,0,0,1-.09-4.65c.06-.76.25-1.57.34-2.26a7.22,7.22,0,0,0-.32-2.17c-.33-3.1-.55-6.09-.83-9.14l-.19-2.28a8.3,8.3,0,0,1,.21-2.33c.17-.75.4-1.48.53-2.21a6.9,6.9,0,0,0,.05-2.22A12.71,12.71,0,0,0,47.7,14.3a8.4,8.4,0,0,1-.91-2.13,17.71,17.71,0,0,1-.32-2.27,13.49,13.49,0,0,1,.24-4.57,13.26,13.26,0,0,0,.15-2.27c0-.76-.14-1.51-.23-2.27Z"></path>
      <path class="cls-18" d="M39.4,7.17A9.4,9.4,0,0,1,41.45,9.1a7.82,7.82,0,0,1,.72,1.22c.22.41.45.82.69,1.22s.48.81.74,1.2a8.64,8.64,0,0,1,.75,1.2,22.08,22.08,0,0,1,.83,2.7c.25.9.89,1.62,1.19,2.55s.45,1.83.8,2.7A43.27,43.27,0,0,1,49,27.24l-.33.06A48.15,48.15,0,0,0,46.93,22c-.34-.88-.48-1.84-.76-2.71s-.91-1.64-1.15-2.57a25.55,25.55,0,0,0-.78-2.7,10.56,10.56,0,0,0-.73-1.19c-.25-.4-.5-.8-.73-1.21s-.46-.83-.67-1.24a8.24,8.24,0,0,0-.69-1.23A9.59,9.59,0,0,0,39.4,7.17Z"></path>
      <path class="cls-18" d="M36.21,12.79a14.46,14.46,0,0,1,3.32.65,8.58,8.58,0,0,1,2.93,1.68,9.73,9.73,0,0,1,2.08,2.66c.59.93,1.69,1.49,2.16,2.62l-.24.09c-.39-1-1.46-1.62-2.08-2.6a9.47,9.47,0,0,0-2-2.68,8.58,8.58,0,0,0-2.86-1.71A14.82,14.82,0,0,0,36.21,12.79Z"></path>
      <path class="cls-18" d="M34,20.29c.69-.33,1.41-.64,2.13-.91a7.62,7.62,0,0,1,2.26-.54c.81-.07,1.48.43,2.24.56a5.3,5.3,0,0,0,2.26.28,4.07,4.07,0,0,1,2.32,0,1.59,1.59,0,0,1,.86.83,5.58,5.58,0,0,1,.4,1.1,7.66,7.66,0,0,0,.38,1.08,3.57,3.57,0,0,0,.71.87,7.35,7.35,0,0,1,1,2.1l-.24.1a7.51,7.51,0,0,0-1-2.06,3.75,3.75,0,0,1-.73-.92,6.68,6.68,0,0,1-.37-1.12c-.21-.72-.41-1.55-1.14-1.83a4.05,4.05,0,0,0-2.24,0,5.49,5.49,0,0,1-2.31-.32c-.76-.14-1.43-.65-2.21-.58a7.33,7.33,0,0,0-2.25.5C35.36,19.67,34.65,20,34,20.29Z"></path>
      <path class="cls-19" d="M33.49,13.4A19.91,19.91,0,0,1,36,15a10.52,10.52,0,0,1,2.13,2.4A5.47,5.47,0,0,0,41,19.57"></path>
      <path class="cls-20" d="M50,39.41a23.19,23.19,0,0,0-1.47-4.47A18.08,18.08,0,0,0,47,31.85a6.3,6.3,0,0,0-1.65-1.53c-.83-.58-1.31-1.83-2-2.64s-1.63-.58-2.79-.61A7.87,7.87,0,0,1,36.44,26c-1-.79-1.86-1.81-3.12-2a21.61,21.61,0,0,0,7.07,1c2.07-.22,2.65-1.37,4.75-.72A4.94,4.94,0,0,1,49,28.57a3.9,3.9,0,0,1,1.43-3.23,7.56,7.56,0,0,0,1.79-4.67c-.08-1.45-.86-2-.13-3.21s2.53-1.81,2.78-3.28-.66-3,0-4.28,1.7-1.76,2-3.11,0-2.71,1.32-3.58"></path>
      <path class="cls-18" d="M47.58,33.18a5,5,0,0,0-1.9-1.49c-.78-.24-1.58-.54-2.36-.81a12.23,12.23,0,0,0-1.19-.31.88.88,0,0,0-.57.06l-.6.17a6.84,6.84,0,0,1-2.51.2,3.78,3.78,0,0,1-1.19-.39,6.8,6.8,0,0,0-1.18-.39,18.25,18.25,0,0,0-2.46-.38,10.49,10.49,0,0,1-4.79-1.23,10.63,10.63,0,0,0,4.8,1.17,17.42,17.42,0,0,1,2.48.35,7.13,7.13,0,0,1,1.19.37,3.39,3.39,0,0,0,1.17.37,6.56,6.56,0,0,0,2.45-.23l.59-.17a1,1,0,0,1,.65-.07,9.88,9.88,0,0,1,1.22.3c.81.26,1.57.54,2.38.78a5.26,5.26,0,0,1,2,1.53Z"></path>
      <path class="cls-20" d="M46.67,77.79a12.07,12.07,0,0,1-.25-5.43c.23-1.52.31-2.9.49-4.12a12.1,12.1,0,0,0,.31-3.1,7.59,7.59,0,0,1-.3-2.51,21.63,21.63,0,0,0,.64-3.5,26.37,26.37,0,0,0,0-3.77,16,16,0,0,1,.28-6,11.46,11.46,0,0,0,.88-4.79c-.09-1.75-.27-4.46.2-6a3.62,3.62,0,0,0,0-2.94"></path>
      <path class="cls-18" d="M48.78,38.56a7.72,7.72,0,0,0-3.84-2.63,10.65,10.65,0,0,0-2.34-.45l-1.2-.13c-.37,0-.89-.08-1.12-.51a1.89,1.89,0,0,0-.76-.87,2.13,2.13,0,0,0-1.08-.4,2.59,2.59,0,0,0-1.14.28l-1.11.47A13.85,13.85,0,0,0,34,35.38c-.67.45-1.25,1-1.89,1.51.63-.5,1.2-1.08,1.86-1.54a13.25,13.25,0,0,1,2.15-1.11l1.1-.49a2.66,2.66,0,0,1,1.18-.31,2.26,2.26,0,0,1,1.16.41,1.9,1.9,0,0,1,.82.91c.19.33.61.36,1,.4l1.21.1a12.22,12.22,0,0,1,2.39.42,8.08,8.08,0,0,1,4,2.69Z"></path>
      <path class="cls-18" d="M41.55,35.38a6.89,6.89,0,0,0-2,.38,13,13,0,0,0-1.76,1.15,16.05,16.05,0,0,1-3.83,1.83,15.69,15.69,0,0,0,3.75-1.94,13,13,0,0,1,1.76-1.21,6.67,6.67,0,0,1,2.09-.47Z"></path>
      <path class="cls-19" d="M38.25,30.88a13.18,13.18,0,0,0-1.48,1.68c-.43.62-.5,1.57-1.17,2"></path>
      <path class="cls-20" d="M47.86,49.3a9.72,9.72,0,0,0-2-3.62,21.53,21.53,0,0,1-3.37-4c-1-1.65-2.76-3.1-5-2.49"></path>
      <path class="cls-20" d="M47.45,54.72a28.24,28.24,0,0,0-2.68-5.36c-1.63-2.06-3.41-3-5.85-2.58"></path>
      <path class="cls-18" d="M46.71,62.71c-.18-1.16-.66-2.28-.88-3.49a6.55,6.55,0,0,1,0-1.82,2.81,2.81,0,0,0-.53-1.63h0A14.59,14.59,0,0,1,43.8,54.4a9.84,9.84,0,0,1-.88-1.82,7.12,7.12,0,0,0-1-1.76c-.44-.5-.89-1-1.3-1.54.42.53.88,1,1.34,1.51a7,7,0,0,1,1,1.75,9.33,9.33,0,0,0,.91,1.78,12.81,12.81,0,0,0,1.49,1.33h0A3.14,3.14,0,0,1,46,57.4a6.6,6.6,0,0,0,.07,1.78c.24,1.16.75,2.26,1,3.48Z"></path>
      <path class="cls-18" d="M45.77,59a2,2,0,0,0-.49-.71,3,3,0,0,0-.84-.3,1.24,1.24,0,0,1-.66-.71,7.83,7.83,0,0,0-.47-.79A4.32,4.32,0,0,0,42,55.24,2,2,0,0,0,40.24,55a2,2,0,0,1,1.79.19,4.62,4.62,0,0,1,1.39,1.25,6.56,6.56,0,0,1,.5.79,1.09,1.09,0,0,0,.58.61,3.19,3.19,0,0,1,.91.29,2.27,2.27,0,0,1,.59.78Z"></path>
      <path class="cls-20" d="M47,68.24c-.55-1.72-.24-1.81-1.05-3.8s-3.57-6.22-6.33-6.6"></path>
      <path class="cls-20" d="M46.61,66.78c-.46-.92-.55-2.26-1.74-2.64S42,63.42,41.1,62.38"></path>
      <path class="cls-20" d="M49.11,67.13A15,15,0,0,1,50.5,62.5a18.2,18.2,0,0,0,1.37-3.68,9.58,9.58,0,0,1,3.19-4.29"></path>
      <path class="cls-18" d="M51,61.43a12.85,12.85,0,0,1-.39-4.24c.1-.71.26-1.4.39-2.1A12.14,12.14,0,0,0,51.38,53h0a4.53,4.53,0,0,1-.18,2.13,6.1,6.1,0,0,0-.46,2.05c0,1.41.3,2.79.27,4.23Z"></path>
      <path class="cls-18" d="M49.19,54.56a19.38,19.38,0,0,0,2.56-2.06,12.34,12.34,0,0,0,1-1.28l.9-1.4c.61-.92,1.24-1.83,1.9-2.71a16.4,16.4,0,0,1,1-1.29,3.22,3.22,0,0,1,1.28-1,3.14,3.14,0,0,0-1.25,1c-.36.42-.69.86-1,1.31-.64.89-1.24,1.82-1.82,2.76l-.87,1.41a10.85,10.85,0,0,1-1,1.34,19.6,19.6,0,0,1-2.53,2.15Z"></path>
      <path class="cls-18" d="M52.53,51.55a29.47,29.47,0,0,0,6.12-1.89,30.07,30.07,0,0,1-6,2.23Z"></path>
      <path class="cls-17" d="M49.68,49.73c.49-1.55.65-3.32,1.62-4.72a35.53,35.53,0,0,0,3.22-5.18,3.37,3.37,0,0,1,1.68-2.08,2.41,2.41,0,0,1,1.1-.42,9.25,9.25,0,0,1,5,.84"></path>
      <path class="cls-17" d="M63.59,27.79c-2.36,1-3.57,4.91-4.44,6.7s-1.21,2.33-2.67,3.13"></path>
      <path class="cls-18" d="M53.75,41.23a13.12,13.12,0,0,0,1.12-2.75A5.94,5.94,0,0,0,55.11,37a12.46,12.46,0,0,1,.06-1.49c.06-.5.15-1,.25-1.48a3.36,3.36,0,0,1,.5-1.43c.34-.42.8-.64,1.07-1s.46-.86.71-1.29a5.31,5.31,0,0,1,.91-1.22c.4-.36.8-.6,1.19-.92a8.29,8.29,0,0,0,1.07-1A6.44,6.44,0,0,1,62,26.12c1.74-1.05,3.46-2,5.22-2.9l0,0c-1.64,1.09-3.41,2.09-5,3.14a6.27,6.27,0,0,0-1,1,9.82,9.82,0,0,1-1.12,1c-.39.3-.85.57-1.19.87a5,5,0,0,0-.88,1.14c-.26.42-.45.86-.75,1.3s-.8.66-1.1,1a3,3,0,0,0-.47,1.34c-.11.48-.21,1-.28,1.45A12.12,12.12,0,0,0,55.25,37,6.7,6.7,0,0,1,55,38.51a13.28,13.28,0,0,1-1.19,2.73Z"></path>
      <path class="cls-20" d="M50.06,38.4c.11-.92-.2-2,.51-2.82s1.87-1.65,2.07-2.9a22.84,22.84,0,0,1,.84-4.28c.46-1.13.93-1.52,1.43-2.56a29.83,29.83,0,0,0,1.39-3.32A11.73,11.73,0,0,1,58.42,19c.88-1,1.28-1.62,2.43-2.84a16.44,16.44,0,0,0,3.41-5.5"></path>
      <path class="cls-20" d="M59.35,27.52c-.12.47-.24.94-.34,1.42"></path>
      <path class="cls-20" d="M61.78,23.2c-.46.59-.67.77-1.23,1.39a7.69,7.69,0,0,0-1.19,2.92"></path>
      <path class="cls-20" d="M63.21,21.07a8.3,8.3,0,0,1-1.44,2.14"></path>
      <path class="cls-20" d="M66.2,17.14a7.08,7.08,0,0,0-3,3.93"></path>
      <path class="cls-20" d="M60.58,24.54a12.92,12.92,0,0,1-.23-3.82,7.8,7.8,0,0,0-.23-3.78"></path>
      <path class="cls-20" d="M55.68,33.33a3.11,3.11,0,0,0,.13-2.27,6.89,6.89,0,0,1-.46-2.85c.14-1-.23-2.3,0-3.34"></path>
      <path class="cls-18" d="M46.62,11.59a16.91,16.91,0,0,0-.75-2.14,6.94,6.94,0,0,0-1.36-1.8,20.3,20.3,0,0,1-1.36-1.84c-.41-.67-1.23-.85-1.81-1.35.58.49,1.41.65,1.85,1.33a17.26,17.26,0,0,0,1.39,1.8A7.07,7.07,0,0,1,46,9.39a18.52,18.52,0,0,1,.8,2.15Z"></path>
      <path class="cls-20" d="M52,17.44a33.31,33.31,0,0,0-1-5.57A7.8,7.8,0,0,1,52.11,6c.94-1.31,1.84-1.76,2-3.06s-.27-2.4,1.48-2"></path>
      <path class="cls-18" d="M51.53,6.72A7.36,7.36,0,0,0,51.35,5a4,4,0,0,0-.77-1.57,9.35,9.35,0,0,1-1-1.51A3.55,3.55,0,0,1,49.21.13a3.66,3.66,0,0,0,.44,1.72,7.78,7.78,0,0,0,1,1.45,4.12,4.12,0,0,1,.86,1.61,7.37,7.37,0,0,1,.25,1.8Z"></path>
      <path class="cls-18" d="M50.63,10.89a10.32,10.32,0,0,0-.49-2.26c-.25-.74-1-1.09-1.61-1.57a3.59,3.59,0,0,1-1.29-2,10.08,10.08,0,0,1-.34-2.32,9.53,9.53,0,0,0,.43,2.3,3.38,3.38,0,0,0,1.3,1.85l1,.66a2.28,2.28,0,0,1,.77.94A10.16,10.16,0,0,1,51,10.83Z"></path>
      <path class="cls-17" d="M54.69,14.79a4.94,4.94,0,0,0,2.12-2.34c.54-1.15,1.77-2.13,2.26-3.45a8.66,8.66,0,0,0,.15-4.28"></path>
      <path class="cls-20" d="M62.47,9.46c-1.24.93-3,2.65-4.07,3.5s-1.61.72-2.7,1.08a10.94,10.94,0,0,1,.19,2.59c0,1.24,1.36,3.2,1,4.63"></path>
      <path class="cls-18" d="M59,9.17a2.83,2.83,0,0,1-1-1.95,8.31,8.31,0,0,1-.06-2.17,7.72,7.72,0,0,0,.23,2.14,2.52,2.52,0,0,0,1.06,1.7Z"></path>
      <path class="cls-20" d="M59.13,12.35a19.35,19.35,0,0,1-2.86,5.86"></path>
      <path class="cls-20" d="M53.48,28.35a6.23,6.23,0,0,1-.65-2.91,4.32,4.32,0,0,0-.82-3.1"></path>
      <path class="cls-18" d="M45.76,56.64a14.79,14.79,0,0,1-.12-1.87,12.64,12.64,0,0,0-.21-1.84,16.57,16.57,0,0,0-.68-3.65,16.63,16.63,0,0,1,.76,3.63,11.58,11.58,0,0,1,.25,1.85,16.3,16.3,0,0,0,.17,1.85Z"></path>
      <path class="cls-18" d="M57.19,37.2A11.12,11.12,0,0,1,59,36.32a3.57,3.57,0,0,0,1.4-1.25,17.64,17.64,0,0,1,1.22-1.52,3.72,3.72,0,0,1,1.61-1.07,3.63,3.63,0,0,0-1.55,1.13,17.82,17.82,0,0,0-1.14,1.56,3.74,3.74,0,0,1-1.42,1.37,11.78,11.78,0,0,0-1.68.94Z"></path>
      <path class="cls-21" d="M91.92,39.13a10,10,0,0,1,2.63-2c1.17-.51,2.81-.91,3.7,0s-.38-1.08-.35-1.22a3,3,0,0,0-1.64-.59c-.66,0-2.46,0-2.47-.76s.58-2,0-2.43a2,2,0,0,0-1.8-.24,2.64,2.64,0,0,1-.83-1.15c-.29-.59-.86-.56-1.7-.48a3.18,3.18,0,0,0-2.4,1.1c-.16.52,0,1.33-.68,1.55s-1.54,0-1.17-1.06a4.75,4.75,0,0,1,.64-.88c.24-.28.82-1,.34-1.41a2.31,2.31,0,0,0-1.7-.62c-.69.07-2.34.08-2.74.71s-.24,1.25-1,1.26-1-.31-1.42-.9-1.31-1-1.61-.35-.48,1.4-.92,1.71,0,.55-.43,1.61S74.8,37.89,74,39s-1.23,3.29.33,4.15,6.34.9,8.34.4,5.17-.92,6.48-2S90.92,40,91.92,39.13Z"></path>
      <path class="cls-21" d="M47.8,78.7a17.06,17.06,0,0,1-1.17,2c-.23.4-.07.28-.26.42s-.08,0-.32.14a2.52,2.52,0,0,1-.86.43c-.47.13-.75-.29-.21-1.09a5.73,5.73,0,0,0,.48-2.69,7.05,7.05,0,0,1,.64-3.18c.36-.83,1-2,1.35-2.59s0-1.13.39-1.45.71-.29.31-.77-.2-.82.2-1.18c-.16-.41,0-.2-.46-.64a3,3,0,0,1-.83-2.57c.07-.19.47-.32.78-.22a2.27,2.27,0,0,0,1,.13.47.47,0,0,0,.45-.68c-.13-.43-.43-1.3-.11-1.71a1.73,1.73,0,0,0,.35-1.36c-.13-.33-.44-.74-.17-.86s.71.63.85.81.27.78.56.72.15-.36.33-.61.75-.72.82-1.08-.12-.81,0-1.07.51-.07.64-.33-.21-.44,0-.77.66-.59.91-1a2.57,2.57,0,0,0,.52-1.4,5.64,5.64,0,0,0-.39-1.62c-.19-.53-.24-.74.39-1A3.16,3.16,0,0,0,55.94,52c.39-.92,1.39-2.85,1.14-4A1.34,1.34,0,0,0,57,46.88c-.19-.28-.48-.71-.38-1s.61-.12.82-.18.33-.27.42-.5.14-.56-.18-.65-.76-.3-.75-.63.06-.53.39-.48.86.41,1.19.26.49-.32.25-.66-.52-.69-.28-1.16a10.83,10.83,0,0,1,.68-1.53c.29-.37.56.28.85.45.07,0,.66.34.9.26s.32.06.3-.34a1.11,1.11,0,0,1,.54-1.11,1.1,1.1,0,0,0,.75-.92.68.68,0,0,1,1.29-.12,2.62,2.62,0,0,1,.11,1c0,.27.41.57.77.45a1.27,1.27,0,0,0,.75-.86c.1-.44.12-1.26.22-1.76a1.57,1.57,0,0,1,.76-1.09c.36-.19.92-.49.53-.61s-.74.26-.75-.35A1.44,1.44,0,0,1,67.53,34a.77.77,0,0,1,.75.53.51.51,0,0,0,.69.4,1.73,1.73,0,0,0-.07-.77c-.09-.34-.21-.68.21-1a3.63,3.63,0,0,1,1.64-.76c.53,0,.93.28,1.37.22s.7-.61,1.16-.4,1.14,0,1.22-.39.32.86.49,1.51.89,1.11.31,2.3.21,0-1.36,2.15,1.39-2.44-2.65,3.8S51.89,68.56,47.8,78.7Z"></path>
      <path class="cls-22" d="M85.08,44.15A23.55,23.55,0,0,1,89,41.7a15.09,15.09,0,0,0,1.9-1.28A3.7,3.7,0,0,0,92,38.82c.11-.56.24-.58.56-1s1.49-1,1.32-1.71-.37-1.12-1-1.14-.77.19-1.44.9-2.28,2.8-3.07,3.61a12.28,12.28,0,0,1-2.11,1.91,9.81,9.81,0,0,1-3,1.24c-.77.15-1.59.5-1.87-.27s.8-1.83,1.37-2.46A13.42,13.42,0,0,1,85.32,38a1.84,1.84,0,0,0,1-1.45c-.11-.52-.4-.85-.27-1.45a7.91,7.91,0,0,1,1-1.88,1.84,1.84,0,0,0,0-1.93c-.14.37-.32.89-.46,1.22s-.4.66-.71.46-.89-.28-.79-.79a3.63,3.63,0,0,1,1.1-1.68c.43-.34,0-.82-.13-1.18-.4.38-.83.44-1.16,1s-.52,1.77-1.11,2.12a4.09,4.09,0,0,1-1.57.37,1.54,1.54,0,0,1,.07-.92,4.34,4.34,0,0,0,.23-1.16,5.48,5.48,0,0,1,.12-1.07c.36-.22.64-.28,1-.48s1-.05,1.19-.72-.92-.67-1.77-.58c-.14,0-1,.2-1.08.82a3.87,3.87,0,0,1-1,2,.8.8,0,0,1-1,.05c-.25-.17-.21-.28-.42-.44a7.45,7.45,0,0,1,.17.87,4.34,4.34,0,0,1-.11,1.34,3.94,3.94,0,0,0-.3,1,6.33,6.33,0,0,0,0,1.06,9.14,9.14,0,0,1,0,1,1.11,1.11,0,0,1,0,.36c0,.16,0-.1,0,.15A3.57,3.57,0,0,1,79,37a3.49,3.49,0,0,1-1.51,1.55,14.92,14.92,0,0,1-2.77,1c.1-.19.12-.29.26-.52a7.67,7.67,0,0,1,.59-.84,4.27,4.27,0,0,1,.72-.69,1.86,1.86,0,0,1,.76-.34,3.45,3.45,0,0,0,.76-.1,2.38,2.38,0,0,0,.9-.48c.22-.24.21-.05.41-.46a1.87,1.87,0,0,0,0-1.82,12.6,12.6,0,0,0-1.43-1.47,2.9,2.9,0,0,1-.84-.76.73.73,0,0,1-.1-.75c.09-.24-.45-.41-.66-.53s-1-.53-1.21-.25a1.68,1.68,0,0,0-.31,1.09,1.89,1.89,0,0,0,.15.87,7.22,7.22,0,0,1,.77,2.17,3,3,0,0,1-.54,1.87c-.46.61-1.47,1.7-1.88,2.27s-.44.84-.74,1.26-.73-.25-1.07-.47a2.42,2.42,0,0,0-1.55,0c-.57.12-1.28-.26-2-.25a2.27,2.27,0,0,0-1.68.7,7.91,7.91,0,0,0-.71.36c-.28.2,1.14.86,1.55,1.26-.63-.06-.15-.08-1-.17a4,4,0,0,0-3.18,1.08c-1,1-1,1.62-1.47,3a8.85,8.85,0,0,0-.41,4.12c.1,2.13,1.45,8.17-.2,10.47s-4.87,3.64-6.44,6.11a16.41,16.41,0,0,0-3.47,4.46A44.08,44.08,0,0,0,47.41,78c-.35,1.44-1,2.78-.41,2.16a12.65,12.65,0,0,0,2.16-3c.8-1.45,2.6-4.94,3.78-6.59a56.61,56.61,0,0,1,3.75-5C57.9,64.27,59,63.16,60,62.13a13.71,13.71,0,0,1,2.74-2.2c1.11-.69,1.86-1.11,3-1.93s1.58-1.07,3.12-2.25,5-3.94,6.7-5.25,3.12-2.25,4.7-3.36S83.66,45.19,85.08,44.15Z"></path>
      <path class="cls-23" d="M91,30.15a4.16,4.16,0,0,1,2.3.86,8.55,8.55,0,0,0,3.1,1,6.81,6.81,0,0,1,3.39,2c.72.92,1.93,3,1.56,4.07s-1.72.58-2.2.2-1-.91-.86-1.44c-.12-.33,0-.69-.46-.92a4.68,4.68,0,0,0-1.58-.6,13.07,13.07,0,0,1-1.91-.06c-.43-.14-.52-.39-.58-.77A8.61,8.61,0,0,1,94,33c0-.4.13-.72-.21-.91a1.84,1.84,0,0,0-1.15-.36c-.35.08-.6.17-.9,0a2.12,2.12,0,0,1-.56-.92A2.9,2.9,0,0,1,91,30.15Z"></path>
      <path class="cls-24" d="M100.37,39c-.44.22-2.06,1-2.77,1.27a13,13,0,0,0-1.77.64,7.43,7.43,0,0,1-1.77.77c-1.23.39-5.72,1.38-6.94,1.72s-.88.27-1.58.49-1.29.44-1.86.64a14.52,14.52,0,0,1-2,.73c-.33,0,.42-.47.78-.78A8.1,8.1,0,0,1,85,43.06c.78-.16,1.68-.39,2.47-.54.08,0,0-.06.13-.1l.36-.18.54-.28c.16-.09.22-.11.42-.23s.47-.26.72-.42.65-.43.89-.61a7.23,7.23,0,0,0,.69-.58,5.12,5.12,0,0,0,.46-.54c.13-.15.1-.26.21-.4s0,0,.07,0c.23-.2.29-.31.56-.54s.9-.76,1.18-1a4.61,4.61,0,0,1,.6-.39,6.1,6.1,0,0,1,.72-.37,6.51,6.51,0,0,1,.92-.29,3.88,3.88,0,0,1,.73-.08,3.53,3.53,0,0,1,.66,0,1.4,1.4,0,0,1,.45.15c.14.08.22.23.34.35s.18.28.29.4.22.2.33.32.23.32.36.45.3.21.43.33a1.26,1.26,0,0,0,.49.22c.14,0,.54,0,.57,0S100.81,38.75,100.37,39Z"></path>
      <path class="cls-24" d="M84.35,43.25A10.93,10.93,0,0,1,82,42.73a1,1,0,0,1-.44-.15.59.59,0,0,1-.2-.53c0-.19,0-.25-.18-.27-.28.34-.4.62-.87.83s-1.22.49-1.7.76-.89.57-1.34.89-1.39,1.11-1.68,1.34-.5.39-.58.22.05-.46,0-.71,0-.56-.32-.72-.56-.6-.81-1A15.81,15.81,0,0,1,72.94,42c-.13-.29-1.13,2.21-1.46,2.44a4.68,4.68,0,0,0-.4.65,9.76,9.76,0,0,0-.53,1.2,7.5,7.5,0,0,0-.21,1c0,.27,0,.32,0,.57-.12-.15-.12-.06-.23-.29s-.24-.56-.42-.91-.64-1.28-.82-1.59a3.27,3.27,0,0,0-.3-.47s0,0-.09.12-.21.41-.3.56l-.32.56-.28.44c-.1.15-.21.26-.31.42s-.17.29-.27.48l-.29.59c-.1.2-.18.37-.28.62s-.28.62-.39.9a2,2,0,0,0-.26.8,2.8,2.8,0,0,1-.14,1.1,3.83,3.83,0,0,1-.54,1,4.59,4.59,0,0,1-.8.84c-.28.17-.81.78-1,.77s.06-.62-.18-.86-.31-.63-.62-1-.7-.91-1.06-1.28-.33-.76-.75-1.17-1.8.48-1.94,1.27a13.12,13.12,0,0,0,.6,3.82c.19.57-.75-1.43-.89-1.9s-.6-1.61-.82-2.2-.4-1.75-.53-2.18-.22-.06-.45,0-.74.45-1,.54a7.71,7.71,0,0,0-.73.27c-.38.13-.57.45,0,.43s1-.1,1.18.31.35.77,0,1.07a2.35,2.35,0,0,1-1.27.62,2.57,2.57,0,0,1-1.17-.09c-.58-.12-.53.14-.1.43s1.25.6,1.19,1a.59.59,0,0,1-.79.52c-.4-.15-1.15-.55-.87.09s.42.87.95,1.05,1.45.19,1.82.55a1,1,0,0,1,.31,1c-.1.33-.3.93-.6.89s-.82-.58-.9,0,.08,1.1-.22,1.63-.52,1.56-.75,2-.15.46-.69.4-.92.4-.61.79.57.72.22.74-.32-.16-.71-.11-.56.4-.41.89.52,1.47-.44,1.12-1-.29-.68.76.72,1.28-.31,1.65c-.38-.19-.81-.27-1,.15s.32.55.07,1-1,.87,0,1.32a1.11,1.11,0,0,1,.21,1.38,18.83,18.83,0,0,0-2,3.79c-.11.36-.19,0-.09,1a7.17,7.17,0,0,1-1.44,4.29c.23-.12,1.23-1.07,1.22-.25.54-1.71-.21-.9.88-3.1s2.05-5.54,4.71-8.5A71,71,0,0,1,64.57,57.65a24.12,24.12,0,0,0,3.25-2.45A48.09,48.09,0,0,1,74,50.69c2.21-1.36,5-4.24,7.59-5.41a15.07,15.07,0,0,1,1.5-1.34C83.57,43.63,83.9,43.53,84.35,43.25Z"></path>
      <path class="cls-24" d="M92,35.15c-.78,1-1.32,1.51-2.15,2.6a19.56,19.56,0,0,1-4.13,4c-1,.51-4.33,1.76-4.23.51s1.28-2.61,2.58-3.43,5-2.37,6-2.94a11.56,11.56,0,0,1,1.11-.55C91.66,35.07,91.56,35.26,92,35.15Z"></path>
      <path class="cls-25" d="M48.94,77.53a44.93,44.93,0,0,0,2.91-5,32.89,32.89,0,0,1,5-7c2.15-2.25,3.8-4.29,7-6.27a120.38,120.38,0,0,0,10.72-7.93c3.18-2.6,8.13-6.08,11.44-7.49s6.64-1.33,9-2.48,5.38-1.45,6.22-3.22-1-3.66-2-4.69a7.14,7.14,0,0,0-3.84-1.67c-1.45-.3-3-1.45-4.48-1.57s-3-.11-3.81,1.18-.53,2.38-2,.91c.2-.76.49-.89,1.09-1.64s-.4-1.68-1.18-1.78-.06-.29,0-.48,0-.46-.55-.46-2.1-.23-2.39.81-1.16,3.05-2.23,1.79S78,29,77.43,30.15,77,31.41,76.31,31s-1.5-.91-1.72.23-.51.94-1.49,1c-.34,0-.32.21-.74.34s-1.64-.2-2.23,0-1.44.76-1.35,1.18.55,1.37-.09,1.12-.86-1.16-1.7-.68-1.06,1.4-.34,1.5.61.24,0,.51a1.71,1.71,0,0,0-1.05,1.74c.06.93-.52,2.83-1.75,1.72.12-.64,0-1.5-.8-1.43s-.57,1-1.13,1.31a1.06,1.06,0,0,0-.7,1c-.06.53.24.54-.42.5a1.22,1.22,0,0,1-1.18-.76c-.27-.5-.56.23-.72.62s-.86,1.37-.37,1.84.4,1-.25.93S56.83,43,57,44.07c0,.15.12.3.48.41s.77.27.31.9-.41-.09-.94.29.21.69.25,1.57-.5,1.4-2,1.91,0,.35.73.53A.76.76,0,0,1,56.11,51a2.25,2.25,0,0,1-1.94.63c-.7-.18-1.61-.32-.57.33s1.75,1.17.39,1.51c-.16,0-.21.08-.52-.19s-.68-.32-.27.45A4.44,4.44,0,0,1,54,56.25a3,3,0,0,1-1,1.86c-.5.4-.37.33-.28.85s-.28.26-.57.51-.08.59-.08,1-.74,1-.89,1.31-.27.85-.51.46-1.28-1.89-1.21-1.2.39,1,.11,1.53-.6.88-.4,1.61.34,1.44-.66,1.26S47,65.23,47,66.25a2.29,2.29,0,0,0,.86,1.84c.46.47.6.44.27.9s-.28.66.09,1,.24.28-.19.61,0,.18-.42,1.14-1.78,3.33-2,4.66-.1,3-.62,4-.54,1.18.26,1.18.57-.35,1.08-.5.67-1,1.12-1.5A10,10,0,0,0,48.94,77.53Z"></path>
      <path class="cls-18" d="M60.46,60.48l3-2.26a33.76,33.76,0,0,0,3.1-2.11,39.33,39.33,0,0,1,5.87-4.77,72.91,72.91,0,0,0,6.05-4.46A14.84,14.84,0,0,1,81.83,45a36.85,36.85,0,0,1,3.61-1.15l0,0c-2.33,1-4.7,1.81-6.61,3.44a48.87,48.87,0,0,1-6.15,4.38,40.25,40.25,0,0,0-5.93,4.6,31.73,31.73,0,0,1-3.19,2l-3.09,2.16Z"></path>
      <path class="cls-18" d="M98.71,39.73a16.46,16.46,0,0,1-4.56,1.32c-.39,0-.79.05-1.19.08a7.58,7.58,0,0,0-1.16.19c-.77.18-1.52.44-2.28.68-1.49.56-3.1.73-4.6,1.19s-2.64,1.63-4,2.55l-.12-.18c1.28-.87,2.42-2.14,4-2.53s3.12-.59,4.62-1.13c.75-.24,1.51-.49,2.29-.66A9.33,9.33,0,0,1,93,41.06c.4,0,.79,0,1.19-.07A16.54,16.54,0,0,0,98.71,39.73Z"></path>
      <path class="cls-18" d="M47,79.83a16.65,16.65,0,0,1,2-6.13,33.3,33.3,0,0,1,3.28-5.58c.68-.86,1.49-1.56,2.09-2.44a3.07,3.07,0,0,0,.39-.67,2.58,2.58,0,0,1,.19-.79c.25-.5.56-.94.81-1.41a2.24,2.24,0,0,0,.36-1.44A8.34,8.34,0,0,0,55.44,60a11.61,11.61,0,0,1-.74-1.45,4.25,4.25,0,0,1-.15-1.64h.29A3.94,3.94,0,0,0,55,58.4a12.54,12.54,0,0,0,.71,1.42,7.87,7.87,0,0,1,.71,1.49,2.48,2.48,0,0,1-.4,1.63c-.26.48-.58.92-.81,1.38-.14.23-.09.45-.18.77a3,3,0,0,1-.42.72c-.62.9-1.46,1.63-2.12,2.45a32.93,32.93,0,0,0-3.28,5.52A22.15,22.15,0,0,0,47,79.83Z"></path>
      <path class="cls-18" d="M54,60.06a3.59,3.59,0,0,1,.33-1.18,1.76,1.76,0,0,0,.28-.52c.06-.18.07-.39.13-.59a2.15,2.15,0,0,1,0,.62,1.52,1.52,0,0,1-.26.56A6.44,6.44,0,0,0,54,60.06Z"></path>
      <path class="cls-18" d="M47.08,79.21a1.6,1.6,0,0,0-1.22.63l0,0,0,0a12.35,12.35,0,0,0,1.37-3c.11-.55-.06-1.11,0-1.68a6,6,0,0,1,.54-1.6c.46-1,1.16-1.93,1.59-3a1.16,1.16,0,0,0,.11-.76c-.12-.19-.43-.29-.64-.48a.87.87,0,0,1-.28-.37.55.55,0,0,1,.11-.45c.17-.24.49-.39.44-.61a1.49,1.49,0,0,1-.12-.42,1,1,0,0,1,.08-.44.46.46,0,0,1,.36-.31.81.81,0,0,1,.44.08.52.52,0,0,0,.68-.09.72.72,0,0,0,.12-.71c-.09-.22-.27-.48-.37-.74a1.3,1.3,0,0,1-.15-.88c.1-.21.35-.16.48-.13l.39.16c.24.09.58.19.61,0,.08-.5-.38-1-.16-1.67.22-.33.6-.25.86-.23a1,1,0,0,0,.36,0c0,.08,0-.13-.13-.22a1.63,1.63,0,0,1-.36-.81.47.47,0,0,1,.3-.41,1,1,0,0,1,.46,0c.27,0,.55,0,.67-.21a7.54,7.54,0,0,0,.32-.76,2.75,2.75,0,0,1-.21.82c-.13.32-.54.35-.79.33s-.52.05-.55.27a1.51,1.51,0,0,0,.33.69,1.18,1.18,0,0,1,.11.19.29.29,0,0,1,0,.14.17.17,0,0,1-.11.18,1,1,0,0,1-.47,0c-.25,0-.57-.06-.67.12-.18.45.25,1,.17,1.62a.35.35,0,0,1-.41.27,1.94,1.94,0,0,1-.43-.11c-.14-.06-.26-.12-.38-.16s-.25,0-.27,0a1.19,1.19,0,0,0,.14.73c.1.27.26.47.38.76a.89.89,0,0,1-.16.87.66.66,0,0,1-.85.12c-.57-.35-.86.44-.57.92a.47.47,0,0,1-.18.43,2.51,2.51,0,0,0-.28.29.41.41,0,0,0,.13.63c.2.19.49.25.68.53a1.29,1.29,0,0,1-.11.87c-.45,1-1.14,1.93-1.61,3a5.9,5.9,0,0,0-.54,1.56c-.1.54.06,1.12-.06,1.68a12.76,12.76,0,0,1-1.42,3l0,0A1.64,1.64,0,0,1,47.08,79.21Z"></path>
      <path class="cls-18" d="M54.63,65.34A3.8,3.8,0,0,1,56.05,64a3.69,3.69,0,0,0-1.24,1.42Z"></path>
      <path class="cls-18" d="M58.23,62.24a6.34,6.34,0,0,0,1.43-3.46A9.88,9.88,0,0,0,59.33,55a24.19,24.19,0,0,0-1.46-3.5A8.14,8.14,0,0,1,57,47.8h.29a7.82,7.82,0,0,0,.8,3.63A25.92,25.92,0,0,1,59.47,55a10.15,10.15,0,0,1,.26,3.8A6.31,6.31,0,0,1,58.23,62.24Z"></path>
      <path class="cls-18" d="M61.47,59.76A28.39,28.39,0,0,1,62,56.58a4.67,4.67,0,0,1,.67-1.47,2.78,2.78,0,0,0,.54-1.48c0-1.09-.94-1.88-1.57-2.71a3.84,3.84,0,0,1-.8-1.42,3.9,3.9,0,0,1,0-1.63c.19-1.06.29-2.12.55-3.19A4.1,4.1,0,0,1,62,43.16a6.05,6.05,0,0,1,1.21-1.1,3.77,3.77,0,0,1,3.18-.5l.18,0s.14,0,.06,0,0,0-.06,0a.8.8,0,0,0-.13-.13,7.47,7.47,0,0,0-.63-.48,9.1,9.1,0,0,0-1.34-.82l.09-.27a9.8,9.8,0,0,1,1.41.86,8,8,0,0,1,.64.51,1.21,1.21,0,0,1,.16.16c0,.07.15.08.08.33s-.24.07-.32.08l-.21-.05a3.51,3.51,0,0,0-3,.44,5.38,5.38,0,0,0-1.18,1,4.32,4.32,0,0,0-.61,1.44c-.26,1-.37,2.11-.58,3.16a4,4,0,0,0,0,1.58,3.83,3.83,0,0,0,.76,1.38c.33.42.69.83,1,1.27a2.69,2.69,0,0,1,.56,1.51,2.78,2.78,0,0,1-.57,1.51A5.07,5.07,0,0,0,62,56.59,28.3,28.3,0,0,0,61.47,59.76Z"></path>
      <path class="cls-18" d="M58.56,41.74a1.33,1.33,0,0,0,.66,1.06,6.88,6.88,0,0,1,.94.93,3.18,3.18,0,0,1,.65,1.16,2.3,2.3,0,0,1,.31,1.28h0A2.64,2.64,0,0,0,60.68,45a3.85,3.85,0,0,0-.61-1.15,6.72,6.72,0,0,0-.9-.95,1.39,1.39,0,0,1-.63-1.12Z"></path>
      <path class="cls-18" d="M54.68,56.87a.83.83,0,0,1,.35-.14.79.79,0,0,1,.35.15c.2.22.38.06.51-.14.23-.39.48-.9.14-1.24a1.92,1.92,0,0,0-1.21-.57,2.47,2.47,0,0,1-1.34-.64l0,0a3.83,3.83,0,0,0,1.38.38,1.81,1.81,0,0,1,1.34.72,1.09,1.09,0,0,1,.17.36.9.9,0,0,1,0,.41,2,2,0,0,1-.34.69.78.78,0,0,1-.31.25c-.15.07-.29-.06-.37-.13a.63.63,0,0,0-.3-.16.68.68,0,0,0-.33.11Z"></path>
      <path class="cls-18" d="M66.7,56.13a4.15,4.15,0,0,1,.39-3.42c.71-1,1.68-1.59,2.42-2.45a3,3,0,0,0,.82-1.41,2.93,2.93,0,0,0,0-.83,6.32,6.32,0,0,1,0-.87A8,8,0,0,1,71.62,44a4,4,0,0,0,.47-1.61,9.83,9.83,0,0,1,0-1.71,7.08,7.08,0,0,1,1.74-2.95A6.78,6.78,0,0,0,75,36.4a3,3,0,0,0,.42-1.63,4.27,4.27,0,0,0-.45-1.63,3.28,3.28,0,0,1-.4-1.65A3.16,3.16,0,0,0,75,33.13a4.48,4.48,0,0,1,.47,1.64A3.1,3.1,0,0,1,75,36.43a7,7,0,0,1-1.09,1.33,7,7,0,0,0-1.68,2.92,9.57,9.57,0,0,0,0,1.7,4.09,4.09,0,0,1-.46,1.67,7.94,7.94,0,0,0-1.28,3.11,4.72,4.72,0,0,0,0,.84,3.2,3.2,0,0,1,0,.88,3.28,3.28,0,0,1-.86,1.53c-.75.87-1.73,1.54-2.37,2.44a3.85,3.85,0,0,0-.32,3.2Z"></path>
      <path class="cls-18" d="M61.18,50.29a5.37,5.37,0,0,1,2.2-4.6l.53-.39c.17-.13.39-.26.43-.42a12.18,12.18,0,0,0-.28-1.26,2.08,2.08,0,0,1,.21-1.34,2.84,2.84,0,0,1,1-1l.12.19a2.46,2.46,0,0,0-.92.86,1.83,1.83,0,0,0-.22,1.22,9.25,9.25,0,0,1,.25,1.31c-.09.27-.32.35-.49.49l-.54.37A5.35,5.35,0,0,0,61.18,50.29Z"></path>
      <path class="cls-18" d="M63.34,53.79a7.59,7.59,0,0,0,1.75-1.69,3,3,0,0,0,.52-2.29c-.22-1.62-1.14-3.08-1.28-4.74.26,1.63,1.14,3.07,1.42,4.72a3.07,3.07,0,0,1-.58,2.36A6.51,6.51,0,0,1,63.34,53.79Z"></path>
      <path class="cls-26" d="M70.44,48.38c-.49-1.34-1.52-3.8-2.6-4.54s-1.07-1.16-1.54-2.18"></path>
      <path class="cls-18" d="M65.75,50c.35-.78.63-1.59,1-2.35s1-1.42,1.32-2.19a11,11,0,0,1,1.29-2.2,3.47,3.47,0,0,0,.38-.5.55.55,0,0,0-.07-.56,5.78,5.78,0,0,0-.85-.94l-.07-.08h.11a4,4,0,0,0,1.22-.45,2.58,2.58,0,0,0,1-.8c.13-.19,0-.33-.14-.51a4.89,4.89,0,0,0-.44-.47A1.77,1.77,0,0,0,70,38.6a1.06,1.06,0,0,0-.61,0,3.87,3.87,0,0,1-.68,0c-.11,0-.26,0-.36-.16a.41.41,0,0,1,.1-.4,5.31,5.31,0,0,1,.5-.42c.06.07-.05,0-.15,0l-.32,0a4.68,4.68,0,0,1-1.32-.26.9.9,0,0,1-.53-.5,1.11,1.11,0,0,1,.07-.72l.2.09a.88.88,0,0,0-.07.57.69.69,0,0,0,.41.37,4.35,4.35,0,0,0,1.26.26l.34.06a.64.64,0,0,1,.17,0,.19.19,0,0,1,.11.08.17.17,0,0,1,0,.18c-.2.19-.38.26-.51.42s-.11.27.13.29a4.57,4.57,0,0,0,.64,0,1.34,1.34,0,0,1,.69,0,1.94,1.94,0,0,1,.58.38,5.23,5.23,0,0,1,.45.49,1.42,1.42,0,0,1,.2.3.48.48,0,0,1,0,.37,2.76,2.76,0,0,1-1.05.84,3.71,3.71,0,0,1-1.26.44l0-.08a5.56,5.56,0,0,1,.85,1,.66.66,0,0,1,.07.65,4.09,4.09,0,0,1-.4.51,11.16,11.16,0,0,0-1.31,2.18c-.37.77-1,1.39-1.34,2.17S66.11,49.22,65.75,50Z"></path>
      <path class="cls-26" d="M71.1,39.47a6.86,6.86,0,0,1-3.37-.09c-.23-.13-.41-.09-.78.07s-1.18,1-1.77.81"></path>
      <path class="cls-27" d="M70.52,39a1.74,1.74,0,0,1,.08-1.81A2.26,2.26,0,0,0,71.09,35c-.34-.72-1.49-1.82-1-2.46"></path>
      <path class="cls-26" d="M67.78,43.77a5.23,5.23,0,0,0-3.12,3"></path>
      <path class="cls-18" d="M72.31,40.13c-.07-.35-.07-.72-.17-1.06s-.3-.61-.42-1A4,4,0,0,1,72,35.91a3.76,3.76,0,0,1,.52-1c.22-.27.45-.55.65-.84a6.4,6.4,0,0,0,.57-.89c.14-.3.29-.67.05-1l0,0a.92.92,0,0,1,.11,1.06,5.26,5.26,0,0,1-.51,1c-.21.3-.44.59-.67.86a3.21,3.21,0,0,0-.52.9,3.84,3.84,0,0,0-.33,2,10.49,10.49,0,0,1,.37,1c.07.36.06.72.11,1.08Z"></path>
      <path class="cls-18" d="M76.7,31.29c0,.26,0,.55.11.76a4.21,4.21,0,0,0,.57.54,11.55,11.55,0,0,1,1.18,1A2.7,2.7,0,0,1,79.35,35a1.82,1.82,0,0,1-.51,1.5,2.36,2.36,0,0,1-1.42.73,2.13,2.13,0,0,0-1.38.58,4.64,4.64,0,0,0-1,1.18,4.15,4.15,0,0,0-.32.71,1.79,1.79,0,0,1-.48.67A1.9,1.9,0,0,0,73.9,43c.27.44.59.87.87,1.32A2.33,2.33,0,0,1,75,46a10.46,10.46,0,0,1-1,3,11.38,11.38,0,0,1-1.72,2.65l0,0a13.33,13.33,0,0,0,1.58-2.71,10.52,10.52,0,0,0,.91-3,2.07,2.07,0,0,0-.24-1.43c-.27-.45-.58-.86-.87-1.32a2.31,2.31,0,0,1-.38-1.58,1.9,1.9,0,0,1,.27-.8,3.53,3.53,0,0,1,.56-.59,1.83,1.83,0,0,0,.44-.6,4.28,4.28,0,0,1,.34-.72,4.88,4.88,0,0,1,1-1.22,2.73,2.73,0,0,1,.68-.44,2.33,2.33,0,0,1,.8-.16,2.24,2.24,0,0,0,1.33-.67,1.65,1.65,0,0,0,.5-1.38,2.58,2.58,0,0,0-.73-1.34,11.66,11.66,0,0,0-1.16-1.06,4.94,4.94,0,0,1-.57-.55,1.34,1.34,0,0,1-.09-.79Z"></path>
      <path class="cls-18" d="M74.7,39.55a12.32,12.32,0,0,0,2.82-1.13,3.4,3.4,0,0,0,1.69-2.36c.2-1-.19-2,.15-3.05a3.27,3.27,0,0,0,0-2.91h0a3.21,3.21,0,0,1,.16,3c-.31.94.06,2-.18,3a3.51,3.51,0,0,1-1.81,2.42,11.79,11.79,0,0,1-2.87,1.06Z"></path>
      <path class="cls-18" d="M87.37,42.51a14.74,14.74,0,0,0,2.5-1.36,5.22,5.22,0,0,0,1.95-2,6.18,6.18,0,0,1,.69-1.26c.3-.39.75-.62,1-1a1.06,1.06,0,0,0,.19-1.25.9.9,0,0,0-1-.63c-.48,0-.78.43-1.12.76a10.5,10.5,0,0,0-.92,1.08c-.58.77-1.26,1.43-1.83,2.2a11.47,11.47,0,0,1-2,2,8.68,8.68,0,0,1-2.57,1.31,5.31,5.31,0,0,1-1.43.26,2,2,0,0,1-.76-.09.72.72,0,0,1-.51-.61,2.34,2.34,0,0,1,.53-1.4A9.76,9.76,0,0,1,83,39.48c1.42-1.4,3.26-2,5-2.85a22.42,22.42,0,0,0,2.57-1.23A2.12,2.12,0,0,1,92,35.05l.05,0c.12.25-.13.19-.07.19H91.9l-.08,0-.17,0-.36-.08a6.06,6.06,0,0,1-.7-.19,1.43,1.43,0,0,1-.62-.42,1,1,0,0,1-.22-.72,4.7,4.7,0,0,1,.5-1.36,1.89,1.89,0,0,0,.3-1.33,1.67,1.67,0,0,0-1.07-.84v0a1.76,1.76,0,0,1,1.14.83,2,2,0,0,1-.26,1.41,4.72,4.72,0,0,0-.46,1.32.92.92,0,0,0,.75,1,4.7,4.7,0,0,0,.67.18l.35.06.18,0,.09,0h0c.06,0-.18-.06-.06.19h0a1.91,1.91,0,0,0-1.27.36,22.64,22.64,0,0,1-2.56,1.28L85.53,38.1l-1.23.71a3.48,3.48,0,0,0-1.08.87,9.34,9.34,0,0,0-.91,1.07,2.12,2.12,0,0,0-.49,1.2c0,.42.57.51,1,.5a5.4,5.4,0,0,0,1.37-.24A8.23,8.23,0,0,0,86.7,41a10.47,10.47,0,0,0,2-2c.58-.76,1.27-1.43,1.85-2.18a9.66,9.66,0,0,1,.94-1.09l.52-.49a1.27,1.27,0,0,1,.68-.3,1,1,0,0,1,.74.13,1.19,1.19,0,0,1,.45.59,1.38,1.38,0,0,1,.12.73,1.32,1.32,0,0,1-.34.65c-.33.37-.77.58-1.06.95a6,6,0,0,0-.69,1.24,5.31,5.31,0,0,1-2,2,14.11,14.11,0,0,1-2.52,1.33Z"></path>
      <path class="cls-18" d="M101.43,38.08a1.78,1.78,0,0,1-1.26.62A2.09,2.09,0,0,1,98.91,38l-1-1a1.25,1.25,0,0,0-.54-.38,1.57,1.57,0,0,0-.65,0,5.61,5.61,0,0,0-2.59.92,13.48,13.48,0,0,0-2.23,1.71l0,0A9.19,9.19,0,0,1,94,37.3a6.28,6.28,0,0,1,1.3-.64,5.45,5.45,0,0,1,1.43-.26,1.71,1.71,0,0,1,.74.06,1.63,1.63,0,0,1,.61.44l1,1a2.06,2.06,0,0,0,1.17.69,1.8,1.8,0,0,0,1.23-.56Z"></path>
      <path class="cls-27" d="M98.41,37.42a2.25,2.25,0,0,0-2.12-2.12c-1.1-.13-2.48.37-2.51-1s.9-2.31-1-2.56c-.21,0-.57.1-.87.1s-.54-.27-.65-.65-.26-.94-.75-1.05"></path>
      <path class="cls-25" d="M87.91,36.82a3.34,3.34,0,0,0,.42-2.11c-.17-.64-.49-.41.12-1.23s1.62-2.28-.09-3.14"></path>
      <path class="cls-25" d="M85.37,38c.65-.67,1.17-1.2.76-2.23s1-2.26,1.11-3.08S87.12,32,87,31.3"></path>
      <path class="cls-25" d="M74.91,46.15a35.83,35.83,0,0,1,3.22-2.51c1-.64,3.43-1.12,3-2.57a3.35,3.35,0,0,1,1.3-3.7c1-.53,2.37-2.2,1.47-2.53s-1.23-.55-1.54-1.33a3.41,3.41,0,0,1,.09-2.28c.22-.66-.21-1,.22-1.56s1.5-.68,2.17-.83"></path>
      <path class="cls-25" d="M86,29.37a3.82,3.82,0,0,0-1.29,1.1c-.48.69-.35,1.42-1,2a2.29,2.29,0,0,1-1.5.31"></path>
      <path class="cls-24" d="M47,85.18c.32-1.56.23-2.37.68-4.14s.81-4.33,3.43-6.44a10.72,10.72,0,0,1,4.27-2.34c1.62-.54,2.11,2.48,4.43,5.06,3,3.32,9.82,5.64,12.93,2.5a3.7,3.7,0,0,0,.61-4.3c-1-2.24-.25-1.35.91-3,0,0,1.76-2.27.46-4.32-1.92-3.05-7.38-4.12-10.31-3.51a15.18,15.18,0,0,0-8.26,5.41c-.9,1.33-3.7,1.78-5.89,3.88-1.67,1.6-4.11,4.17-4,5.85-1-4-2.94-6.53-5.95-9.42-.16-3.27-2.87-6.1-3.36-6.66a12,12,0,0,0-7.84-3.12c-3.1.2-6.6,1.59-7.86,4.29-.9,1.95,1.68,3.11,1.14,3.84-.92,1.25-2,1.6-2,3.3-.09,2.86,1.95,4.39,4.64,5s8.77-1.35,10.25-2c2.7-1.29,3.14-1.29,4.46-3,3.82,2.87,5.39,9,5.87,13.07S46.63,86.73,47,85.18Z"></path>
      <path class="cls-18" d="M55.94,73a12.48,12.48,0,0,0,4,4.51c.81.62,1.65,1.18,2.51,1.72a12,12,0,0,0,2.71,1.28,9.74,9.74,0,0,0,5.79.24A4.2,4.2,0,0,0,73.1,79c.41-.84.21-1.94.37-2.94h.07a8.63,8.63,0,0,1,0,3.12,3.41,3.41,0,0,1-1,1.29,4.82,4.82,0,0,1-1.37.86A9.2,9.2,0,0,1,65,81a11.82,11.82,0,0,1-2.76-1.42,29.1,29.1,0,0,1-2.48-1.81A12.76,12.76,0,0,1,55.88,73Z"></path>
      <path class="cls-18" d="M74.66,68.18a8,8,0,0,0-3.32-2.51,11.93,11.93,0,0,0-4.06-1,11.78,11.78,0,0,0-7.87,2.38,16.16,16.16,0,0,0-3,2.91,3.4,3.4,0,0,1-.65.87,4.52,4.52,0,0,1-1,.51,15.75,15.75,0,0,0-1.92.85,19.69,19.69,0,0,0-3.45,2.36A7.72,7.72,0,0,0,47,77.89h0a7.35,7.35,0,0,1,2.31-3.51,16.28,16.28,0,0,1,3.47-2.46,12,12,0,0,1,1.95-.84,3.89,3.89,0,0,0,.91-.46,3.24,3.24,0,0,0,.61-.8,16.18,16.18,0,0,1,3.08-2.94,11.89,11.89,0,0,1,8-2.33,11.56,11.56,0,0,1,4.08,1.06,8,8,0,0,1,3.31,2.57Z"></path>
      <path class="cls-18" d="M46.34,79.78A23.51,23.51,0,0,0,44,74.68a17.37,17.37,0,0,0-3.74-4.14l-.05,0v-.06a13.65,13.65,0,0,0-3.35-6.36A10.54,10.54,0,0,0,30.46,61a11.4,11.4,0,0,0-3.59.17,10.76,10.76,0,0,0-3.3,1.44,5.32,5.32,0,0,0-2.31,2.65A2.11,2.11,0,0,0,21.5,67a10,10,0,0,1,1,1.56h0a9.41,9.41,0,0,0-1-1.53,2.2,2.2,0,0,1-.29-1.78,5.25,5.25,0,0,1,2.32-2.79,10.37,10.37,0,0,1,3.35-1.52,11.67,11.67,0,0,1,3.68-.22A10.54,10.54,0,0,1,37,63.89a13.86,13.86,0,0,1,3.34,6.51v0a16.78,16.78,0,0,1,3.74,4.23,23.42,23.42,0,0,1,2.3,5.16Z"></path>
      <path class="cls-18" d="M21.71,69.38a20.35,20.35,0,0,0-1.09,2.2A3.74,3.74,0,0,0,21,73.82a5.38,5.38,0,0,0,3.55,2.78,7.66,7.66,0,0,0,2.36.15c.82,0,1.63-.15,2.45-.25S31,76.23,31.81,76s1.62-.36,2.42-.6l0,0a27.77,27.77,0,0,1-4.81,1.37,22.9,22.9,0,0,1-2.49.32,7.78,7.78,0,0,1-2.5-.12A5.64,5.64,0,0,1,20.68,74a3.94,3.94,0,0,1-.29-2.46,20.93,20.93,0,0,1,1.27-2.15Z"></path>
    </g>
  </g>
</svg>
