<?xml version="1.0" encoding="UTF-8"?>
<svg xmlns="http://www.w3.org/2000/svg" viewBox="0 0 145.5 231">
  <defs>
    <style>.cls-1{fill:#a29274;}.cls-2{fill:#e3e0c9;}.cls-3{fill:#fcedce;}.cls-4{fill:#bda885;}.cls-5{fill:#d0c5a6;}.cls-6{fill:#8f8267;}.cls-7{fill:#ab967a;opacity:0.25;}.cls-8{fill:#9b8d71;}.cls-9{fill:#7c705b;}.cls-10{fill:#a5a5a5;}.cls-11{fill:#e7e6e3;}.cls-12{fill:#745831;}.cls-13{fill:#917448;}.cls-14{fill:#554020;}.cls-15{fill:#817870;}.cls-16{fill:#c2d744;}.cls-17{fill:#a5c32f;}.cls-18{fill:#7fb843;}</style>
  </defs>
  <g id="Слой_2" data-name="Слой 2">
    <g id="Слой_1-2" data-name="Слой 1">
      <polygon class="cls-1" points="72.85 135.28 145.5 104.36 134.6 188 72.85 231 72.85 135.28"></polygon>
      <polygon class="cls-2" points="72.85 83.44 145.5 104.36 72.85 135.28 0 104.36 72.85 83.44"></polygon>
      <polygon class="cls-3" points="72.85 83.44 0 104.36 1.28 104.9 144.82 104.16 72.85 83.44"></polygon>
      <polygon class="cls-4" points="10.9 188 0 104.36 72.85 135.28 72.85 231 10.9 188"></polygon>
      <path class="cls-5" d="M45.79,105.38a39.56,39.56,0,0,1,3.44-3.67,31.63,31.63,0,0,1,4-3.11,38.7,38.7,0,0,1,9.13-4.42,49.08,49.08,0,0,1,4.89-1.33,44.88,44.88,0,0,1,5-.76,47,47,0,0,1,10.06,0c-3.35.21-6.65.57-9.91,1.1a61.17,61.17,0,0,0-9.58,2.35,49.44,49.44,0,0,0-9,4A50.74,50.74,0,0,0,45.79,105.38Z"></path>
      <path class="cls-5" d="M33.38,108.32c0,.07.19.11.29.15l.36.09c.24.06.49.11.74.15.49.08,1,.15,1.48.19a29.18,29.18,0,0,0,3,.1,45,45,0,0,0,5.91-.51c2-.27,3.91-.67,5.86-1.08l5.9-1.35a31.36,31.36,0,0,1-5.59,2.47,34.5,34.5,0,0,1-6,1.43,26,26,0,0,1-6.17.19,17.73,17.73,0,0,1-3-.54,12.56,12.56,0,0,1-1.46-.5l-.7-.34-.33-.2C33.54,108.5,33.35,108.42,33.38,108.32Z"></path>
      <path class="cls-5" d="M83.5,126.15a55.37,55.37,0,0,1,6.86-8.71,54.8,54.8,0,0,1,8.46-7.25,37.3,37.3,0,0,1,10-5,27.22,27.22,0,0,1,5.5-1.1,23.93,23.93,0,0,1,5.55.24,29.18,29.18,0,0,0-5.46.48,32.27,32.27,0,0,0-5.21,1.48,44,44,0,0,0-9.54,5.11,73.09,73.09,0,0,0-8.48,6.86A107.9,107.9,0,0,0,83.5,126.15Z"></path>
      <polygon class="cls-6" points="72.85 135.28 145.5 104.36 134.6 188 72.85 231 72.85 135.28"></polygon>
      <polygon class="cls-7" points="10.9 188 0 104.36 72.85 135.28 72.85 231 10.9 188"></polygon>
      <polygon class="cls-8" points="72.85 231 10.9 188 73.14 164.48 134.6 188 72.85 231"></polygon>
      <path class="cls-9" d="M24.06,151.23A13.41,13.41,0,0,1,23,148.35a23.93,23.93,0,0,1-.67-3,22.41,22.41,0,0,1-.11-6.23,19.73,19.73,0,0,1,1.75-6,20.15,20.15,0,0,1,3.63-5.18,27,27,0,0,1,10.69-6.38,45.81,45.81,0,0,1,12.12-2.15,68.17,68.17,0,0,0-11.72,3.25,28.65,28.65,0,0,0-10,6.32,19.48,19.48,0,0,0-5.3,10.36,24.39,24.39,0,0,0-.32,6A23.12,23.12,0,0,0,24.06,151.23Z"></path>
      <path class="cls-9" d="M91.76,150.08c.19.3.6.41.92.57s.69.3,1,.44c.69.26,1.4.5,2.12.73,1.41.47,2.85.88,4.29,1.28,2.88.79,5.78,1.49,8.7,2.07,5.85,1.2,11.77,2,17.76,2.66a65.19,65.19,0,0,1-18-1.21,66,66,0,0,1-8.76-2.41c-1.43-.51-2.84-1.08-4.21-1.72-.69-.33-1.36-.68-2-1.05-.33-.19-.66-.38-1-.59l-.46-.34C92,150.38,91.78,150.27,91.76,150.08Z"></path>
      <path class="cls-9" d="M52.74,145.71a45.94,45.94,0,0,1-1.78,8.2,57.23,57.23,0,0,1-3,7.86A45.85,45.85,0,0,1,43.54,169a27.24,27.24,0,0,1-6,5.85,49.34,49.34,0,0,0,5.09-6.52,73.19,73.19,0,0,0,4-7.2c1.2-2.48,2.26-5,3.29-7.59S51.83,148.36,52.74,145.71Z"></path>
      <path class="cls-9" d="M75.27,212.28c3-1.45,6-2.6,9-3.89s6-2.63,8.83-4.13c1.44-.74,2.85-1.54,4.23-2.38a43.25,43.25,0,0,0,4-2.73,23.27,23.27,0,0,0,6.46-7.14,18.91,18.91,0,0,1-5.72,8,42.33,42.33,0,0,1-8.27,5.53,69.87,69.87,0,0,1-9.1,3.88c-1.56.55-3.13,1-4.71,1.5S76.84,211.82,75.27,212.28Z"></path>
      <path class="cls-9" d="M41.2,203.1a20.24,20.24,0,0,1-4.71-3,11.22,11.22,0,0,1-3.41-4.59,6.67,6.67,0,0,1-.42-3,6.81,6.81,0,0,1,.31-1.49,7.44,7.44,0,0,1,.59-1.39,13.81,13.81,0,0,1,3.94-4.24,38.13,38.13,0,0,1,10.06-5,77.21,77.21,0,0,1,10.75-2.8c-3.48,1.26-7,2.5-10.34,3.89a46,46,0,0,0-9.58,5.1,12.67,12.67,0,0,0-3.6,3.74,5.53,5.53,0,0,0-.53,1.13,4.59,4.59,0,0,0-.3,1.2,5.94,5.94,0,0,0,.21,2.47,8.87,8.87,0,0,0,1.13,2.34A13.45,13.45,0,0,0,37,199.59,24.14,24.14,0,0,0,41.2,203.1Z"></path>
      <path class="cls-9" d="M107.81,148.39l5.42-7.45c1.77-2.5,3.53-5,5.17-7.56A81.47,81.47,0,0,0,123,125.5a37.38,37.38,0,0,0,1.79-4.17,17.74,17.74,0,0,0,1-4.44A19.64,19.64,0,0,1,124,126a52,52,0,0,1-4.38,8.2,79.3,79.3,0,0,1-5.51,7.46A69.63,69.63,0,0,1,107.81,148.39Z"></path>
      <polygon class="cls-10" points="70.2 182.68 70.27 182.55 70.15 182.54 70.2 182.68"></polygon>
      <path class="cls-11" d="M72.82,132.42c-1.27,2.72-3.65,4.43-5.89,5.76l-6.75,3.91L53.47,146a11.17,11.17,0,0,0-3,2.34,3.35,3.35,0,0,0-.53,3.58,3.47,3.47,0,0,1,.32-3.74,11.2,11.2,0,0,1,2.92-2.62l6.44-4.4,6.45-4.36c2.08-1.42,4-3.11,4.77-5.24Z"></path>
      <path class="cls-11" d="M61.11,141.15a8.54,8.54,0,0,0-2.1,5.23c-.25,2-.17,4-.6,5.93.29-2,.07-4,.18-6a9.13,9.13,0,0,1,1.89-5.77Z"></path>
      <path class="cls-11" d="M61.93,140.71a28.74,28.74,0,0,0-12.15,4.36,20.51,20.51,0,0,0-4.84,4.31,10.42,10.42,0,0,0-2.69,5.82c-.19-2.25,1-4.38,2.28-6.14a20.9,20.9,0,0,1,4.88-4.55,29.77,29.77,0,0,1,12.4-4.77Z"></path>
      <path class="cls-11" d="M74.81,132.2a27.88,27.88,0,0,1,1.61,5.53,14.16,14.16,0,0,1-.46,5.79,22.75,22.75,0,0,0-.94,5.41,11.54,11.54,0,0,0,1.3,5.31A11.85,11.85,0,0,1,74.48,149a23.49,23.49,0,0,1,.42-5.64,12.83,12.83,0,0,0-.06-5.28,26.06,26.06,0,0,0-2-5Z"></path>
      <path class="cls-11" d="M76.05,139.53c2.39,3.31,4.46,7.33,3.94,11.5.18-4.19-2.14-7.86-4.71-10.9Z"></path>
      <path class="cls-11" d="M76.23,137.84a57.12,57.12,0,0,1,7.34,9.84A36.07,36.07,0,0,1,88,159,35.67,35.67,0,0,0,83.13,148a55.7,55.7,0,0,0-7.63-9.41Z"></path>
      <path class="cls-11" d="M73.4,126.66a13.35,13.35,0,0,1,7.68,5.42,37.46,37.46,0,0,1,4.08,8.09,36.74,36.74,0,0,0-4.91-7.4,11.71,11.71,0,0,0-7.2-4Z"></path>
      <path class="cls-11" d="M73.08,126.66a19.5,19.5,0,0,1,7.68.74,30.49,30.49,0,0,1,6.81,3.25c2.12,1.29,4.15,2.66,6.34,3.72a24.79,24.79,0,0,1,6.32,3.82,24.38,24.38,0,0,0-6.55-3.28c-2.32-.93-4.48-2.18-6.65-3.29a28.47,28.47,0,0,0-6.7-2.64,17.51,17.51,0,0,0-7-.19Z"></path>
      <path class="cls-12" d="M70.23,138.21c-.88-1.61-1.6-3.25-2.3-4.9a6.29,6.29,0,0,1-.9-2.5,5.13,5.13,0,0,1,.84-2.9l.32-.07a5.16,5.16,0,0,1,2,2.24,6.36,6.36,0,0,1,.27,2.65,53.89,53.89,0,0,1,.07,5.4Z"></path>
      <ellipse class="cls-13" cx="65.97" cy="151.27" rx="1.63" ry="2.59" transform="translate(-98.45 165.48) rotate(-71.38)"></ellipse>
      <path class="cls-12" d="M63.82,149c-1.52,3.24,3.3,6.09,4.84,2.82a90.08,90.08,0,0,0,7.67-28.5,13.2,13.2,0,0,1-5.31-1A85.71,85.71,0,0,1,63.82,149Z"></path>
      <path class="cls-14" d="M76.3,123.31l0,.32A89.24,89.24,0,0,1,74,137a62.24,62.24,0,0,1-4.8,12.7l.12.08a49.24,49.24,0,0,0,5.55-12.54,85.54,85.54,0,0,0,2.84-13.45c0-.18,0-.36,0-.54Q77,123.31,76.3,123.31Z"></path>
      <path class="cls-13" d="M64.91,148.22s.76-.35,2.46.59c0,0,4.5-9.73,6.43-25.69a12.52,12.52,0,0,1-1.58-.38C71.06,133.46,68.7,143.55,64.91,148.22Z"></path>
      <path class="cls-11" d="M68.2,151.66c-2.3,6.71-2.23,14.29-2.34,21.8S65.41,188.88,62,195.7c2.71-7.12,2.27-14.74,1.69-22.17s-1.49-15.17.34-23.05a2.16,2.16,0,0,1,4.21,1Z"></path>
      <path class="cls-11" d="M65.38,180.24a31.68,31.68,0,0,1,4.07,15.83,31,31,0,0,0-4.89-15.33Z"></path>
      <path class="cls-11" d="M66.94,151.74a21.17,21.17,0,0,1,6.84,12.7,51.87,51.87,0,0,1,.3,14.18,51.66,51.66,0,0,0-1.35-14c-1.15-4.47-3.49-8.66-7.12-11.24Z"></path>
      <path class="cls-11" d="M71,156.51a9.71,9.71,0,0,1,5.41,5.18,26.55,26.55,0,0,1,1.87,6.85,25.87,25.87,0,0,0-2.81-6.31,8.06,8.06,0,0,0-5-3.63Z"></path>
      <path class="cls-11" d="M65.18,164.33A9.23,9.23,0,0,1,61,167.47a15.33,15.33,0,0,0-3.92,2.24,12.14,12.14,0,0,0-3.83,8.16,12.7,12.7,0,0,1,3-8.94,16.21,16.21,0,0,1,4-2.9,7.7,7.7,0,0,0,3.05-2.72Z"></path>
      <path class="cls-11" d="M65.21,155.63a11.05,11.05,0,0,1-3.61.65,7.34,7.34,0,0,0-2.88.58,15.2,15.2,0,0,0-5.23,3.47c-2.84,3.17-3.54,7.8-4.12,12.08a45.68,45.68,0,0,1,.65-6.58,14.94,14.94,0,0,1,2.58-6.23,16.59,16.59,0,0,1,5.32-4.26,8.88,8.88,0,0,1,3.47-1,9.94,9.94,0,0,0,2.82-.63Z"></path>
      <polygon class="cls-3" points="1.28 104.9 72.85 135.28 145.5 104.36 144.82 104.16 1.28 104.9"></polygon>
      <ellipse class="cls-1" cx="75.15" cy="105.81" rx="16.78" ry="6.56"></ellipse>
      <ellipse class="cls-15" cx="75.58" cy="108.03" rx="13.83" ry="5.41"></ellipse>
      <path class="cls-16" d="M107.56,40.75c-.54.14-1.08.27-1.62.43a.82.82,0,0,0-.54.3.47.47,0,0,0,.4.7,1.76,1.76,0,0,0,1.2-.46.44.44,0,0,0,0-.47c-.23-.35-.67-.21-1-.16-1.23.21-2.44.48-3.66.7a38.93,38.93,0,0,1-10.16.71c-.6,0-.6.88,0,.93a36.63,36.63,0,0,0,8.93-.49c1.4-.23,2.79-.5,4.19-.77l1-.19.2,0c.19-.14.33.71-.28-.23v-.47c.18-.24.3-.15.12-.15a1.11,1.11,0,0,0-.26.07c-.1,0-.46.07-.26.08l.4.7c-.11.16-.36.16-.15.17a1.22,1.22,0,0,0,.34-.1l1.42-.37a.47.47,0,0,0-.25-.9Z"></path>
      <path class="cls-17" d="M107.22,41.54s14.23,5.31,16.17-10.22C123.39,31.32,111.34,26.72,107.22,41.54Z"></path>
      <path class="cls-17" d="M105,41.92c.35.43,9.62-11.27-.73-22.4C104.28,19.52,97.68,32.84,105,41.92Z"></path>
      <path class="cls-17" d="M105,41.92a18.09,18.09,0,0,1,2,.35c3.83.84,12.13,3.54,16.62,11.66C123.68,53.93,111,57.43,105,41.92Z"></path>
      <path class="cls-18" d="M123.43,31.35A57.64,57.64,0,0,1,116,38a30.41,30.41,0,0,1-4.19,2.73,17.72,17.72,0,0,1-4.74,1.62l0-.09c3-1.49,5.73-3.13,8.53-4.87a69.81,69.81,0,0,0,7.79-6.06Z"></path>
      <path class="cls-18" d="M104.33,19.5a45.16,45.16,0,0,1,1.79,10.2,28.34,28.34,0,0,1,0,5.21,21,21,0,0,1-1.2,5.06l-.09,0c.1-1.73.33-3.41.36-5.12s.2-3.4.2-5.1a51.66,51.66,0,0,0-1.14-10.2Z"></path>
      <path class="cls-18" d="M105.05,41.89a20.24,20.24,0,0,0,4.15,3.68,47.68,47.68,0,0,0,4.7,3c3.27,1.76,6.58,3.39,9.79,5.35l0,.08a39.84,39.84,0,0,1-5.26-2,46.11,46.11,0,0,1-4.88-2.78,49.39,49.39,0,0,1-4.6-3.24,20.23,20.23,0,0,1-4-4Z"></path>
      <path class="cls-12" d="M82,85.42a11.16,11.16,0,0,1-3.83,9.16,10.18,10.18,0,0,1,.84-5A10.38,10.38,0,0,1,82,85.42Z"></path>
      <path class="cls-17" d="M95.85,29.89c-1.09-8.55-6.57-11.73-14.73-11.73C83.72,25.26,88.22,29.35,95.85,29.89Z"></path>
      <path class="cls-18" d="M95.83,29.92c-2.36-2.13-4.53-4.45-6.91-6.52a36.68,36.68,0,0,0-7.81-5.21l0-.06a16.47,16.47,0,0,1,4.4,1.9,23.46,23.46,0,0,1,3.73,3c2.33,2.18,4.38,4.59,6.61,6.84Z"></path>
      <path class="cls-17" d="M99.67,22.57c-1.15-8.81-5.83-10.88-14.23-11.14C87.94,18.05,92.17,23.13,99.67,22.57Z"></path>
      <path class="cls-18" d="M99.64,22.59A48,48,0,0,0,93,16.36a81.51,81.51,0,0,0-7.61-4.9l0-.06A23.07,23.07,0,0,1,93.36,16a43.29,43.29,0,0,1,6.33,6.58Z"></path>
      <path class="cls-17" d="M100.5,19.44C97.31,11.68,97.86,5.85,104.1,0,109.56,7.34,110.16,15.7,100.5,19.44Z"></path>
      <path class="cls-18" d="M100.47,19.42a11.69,11.69,0,0,0,2-4.51,31.24,31.24,0,0,0,.81-4.91c.13-1.66.22-3.33.3-5s.2-3.34.45-5h.06a47.58,47.58,0,0,1-.31,10.05,31,31,0,0,1-1,4.95,11.84,11.84,0,0,1-2.29,4.46Z"></path>
      <path class="cls-17" d="M100.26,22.45c4.73-5.46,12-7.13,18.82-5.57C113.84,24.66,108.5,25.39,100.26,22.45Z"></path>
      <path class="cls-18" d="M100.26,22.42a62.36,62.36,0,0,0,9.57-2.21c3.09-1.08,6.14-2.22,9.24-3.36l0,.06A35,35,0,0,1,110,20.69a53.7,53.7,0,0,1-9.71,1.79Z"></path>
      <path class="cls-17" d="M96.6,30.34c6-5.57,9.29-6.42,17.29-2.72C107.2,33.66,104.45,33,96.6,30.34Z"></path>
      <path class="cls-18" d="M96.6,30.31a24.26,24.26,0,0,0,4.34-.41c1.45-.23,2.88-.49,4.31-.78a83.77,83.77,0,0,1,8.63-1.53v.06a45.51,45.51,0,0,1-8.55,2,44.27,44.27,0,0,1-8.75.75Z"></path>
      <path class="cls-17" d="M100.57,18.58C98.05,27,93.76,35,90.87,43.38A351.56,351.56,0,0,0,79.09,87.24c-.13.6.79.85.91.26A353,353,0,0,1,91.78,43.63c2.9-8.38,7.18-16.34,9.7-24.8a.47.47,0,0,0-.91-.25Z"></path>
      <path class="cls-17" d="M107.2,65.3c9.48-3.66,15-11,10.31-20.86C108.07,47,106.9,56.94,107.2,65.3Z"></path>
      <path class="cls-17" d="M106.25,65.54c.53-.06-2.66-20.74-13.7-17.2C95.46,53.46,95.33,66.72,106.25,65.54Z"></path>
      <path class="cls-17" d="M97.53,73.77c1.92-9.62-.8-17.71-11.08-20.16C86,62.12,90.59,69.22,97.53,73.77Z"></path>
      <path class="cls-17" d="M109.56,86c.1-.09-16-8.89-19.5-4.28C93.17,88.88,102.49,92.39,109.56,86Z"></path>
      <path class="cls-17" d="M97.53,73.77C105.7,72,115.17,71.16,122,76.9,112.45,83.82,104.47,84,97.53,73.77Z"></path>
      <path class="cls-17" d="M105,67.35a23.83,23.83,0,0,1,2.65-1.29c7.25-3.11,12.68-1.44,19.89,2.75C120.15,75.54,112,73.51,105,67.35Z"></path>
      <path class="cls-18" d="M117.56,44.45a39.51,39.51,0,0,1-3.32,10.66A32.18,32.18,0,0,1,108,64.34l-.08-.06c1.8-3.28,3.87-6.31,5.69-9.51a43.57,43.57,0,0,0,3.89-10.34Z"></path>
      <path class="cls-18" d="M92.58,48.3a93.7,93.7,0,0,1,8.26,7.07,21.06,21.06,0,0,1,3.43,4.3,12.26,12.26,0,0,1,1.63,5.24l-.1,0a28.68,28.68,0,0,0-5.52-9c-2.38-2.68-5.13-5-7.76-7.51Z"></path>
      <path class="cls-18" d="M97.57,73.74A9.56,9.56,0,0,0,103,76.6a30.41,30.41,0,0,0,6.26.6c4.21-.09,8.41-.53,12.69-.35V77a50.24,50.24,0,0,1-12.72,1,29.72,29.72,0,0,1-6.36-.89,9.86,9.86,0,0,1-5.42-3.26Z"></path>
      <path class="cls-18" d="M86.49,53.58A50.09,50.09,0,0,1,94,62.63a19.23,19.23,0,0,1,3.6,11.13h-.09A42.79,42.79,0,0,0,93.32,63a56.13,56.13,0,0,0-6.9-9.37Z"></path>
      <path class="cls-18" d="M91.28,81.94a24.82,24.82,0,0,0,8.88,2.94,76,76,0,0,1,9.4,1.06V86a32,32,0,0,1-9.51-.41A23.22,23.22,0,0,1,91.23,82Z"></path>
      <path class="cls-18" d="M105.06,67.29a17.43,17.43,0,0,0,5.48,1.26,53.16,53.16,0,0,0,5.65.25c3.78-.12,7.54-.28,11.36,0v.09a43,43,0,0,1-11.38.72,54.47,54.47,0,0,1-5.69-.54A17.62,17.62,0,0,1,105,67.37Z"></path>
      <path class="cls-17" d="M81.64,61.83c9.38,3.65,11.5,10.4,7.61,19.51C83,76.44,81.36,69.53,81.64,61.83Z"></path>
      <path class="cls-18" d="M82.07,62.3a28.19,28.19,0,0,1,5.32,8.29,20.76,20.76,0,0,1,1.87,9.69h-.09c-.81-3.2-1.49-6.33-2.49-9.41A29.79,29.79,0,0,0,82,62.36Z"></path>
      <path class="cls-17" d="M107.59,64A145.64,145.64,0,0,1,94.87,76.23,118.07,118.07,0,0,1,80.48,87.14.47.47,0,0,0,81,88,118.9,118.9,0,0,0,95.15,77.23a144.32,144.32,0,0,0,13.11-12.59c.41-.44-.26-1.11-.67-.66Z"></path>
      <path class="cls-17" d="M57.62,24.32C52.94,14.7,53.14,6.94,62.66.9,67.38,10,62.6,16.52,57.62,24.32Z"></path>
      <path class="cls-17" d="M59,24c-.28-.42,16.27-14.17,19.71-3.38C72.57,22.58,64.91,32.57,59,24Z"></path>
      <path class="cls-17" d="M59.87,37.35c4.82-9,10.09-13.19,20.22-9.1A25.81,25.81,0,0,1,59.87,37.35Z"></path>
      <path class="cls-17" d="M44.94,40c0-.13,16.47,2.75,14.65,8.38C53.62,51.2,42.31,48.49,44.94,40Z"></path>
      <path class="cls-17" d="M59.87,37.35c-4.8-6.74-11.61-12.46-20.18-12.88C45.07,36.07,46.65,41.3,59.87,37.35Z"></path>
      <path class="cls-17" d="M58.26,27.53c-.92-1.66-.22-1-1.5-3-3.86-6.33-9.51-10.25-17.24-11.83C41.5,22.55,48.12,28.38,58.26,27.53Z"></path>
      <path class="cls-18" d="M62.7.92a58.73,58.73,0,0,0-3.43,10.83c-.67,3.73-1.1,7.45-1.65,11.24h-.09a29.35,29.35,0,0,1,1-11.41A52,52,0,0,1,62.61.88Z"></path>
      <path class="cls-18" d="M79,20.24A81.53,81.53,0,0,0,68.44,21a27.58,27.58,0,0,0-9.6,3.86l-.06-.07A13.27,13.27,0,0,1,63.1,21.6a18,18,0,0,1,5.22-1.35A66.37,66.37,0,0,1,79,20.14Z"></path>
      <path class="cls-18" d="M59.88,37.39a13.47,13.47,0,0,1-6.15-.83,22.06,22.06,0,0,1-5.43-3.13,43.47,43.47,0,0,1-8.64-8.92l.06-.07c3.26,2.61,6,5.72,9.05,8.4s6.92,4.66,11.1,4.46Z"></path>
      <path class="cls-18" d="M80.09,28.29a44,44,0,0,0-10.83,3,47.72,47.72,0,0,0-9.35,6.11l-.07-.07a19.63,19.63,0,0,1,4-4A21.52,21.52,0,0,1,69,30.58,39.47,39.47,0,0,1,80.08,28.2Z"></path>
      <path class="cls-18" d="M58.85,47.9A24,24,0,0,1,50.78,45,26.87,26.87,0,0,1,44,39.8l.06-.08a55.73,55.73,0,0,1,7.15,4.63,25.94,25.94,0,0,0,7.7,3.45Z"></path>
      <path class="cls-18" d="M58.18,27.47a26.51,26.51,0,0,1-10.42-6,59.91,59.91,0,0,1-8.3-8.78l.06-.07c3.25,2.46,5.92,5.48,8.75,8.29a27.69,27.69,0,0,0,9.94,6.51Z"></path>
      <path class="cls-17" d="M78.1,37.49c-9.82-2.32-14,2.24-17.36,11.13C68.64,48,73.11,43.22,78.1,37.49Z"></path>
      <path class="cls-18" d="M77.51,37.67a26.63,26.63,0,0,0-8.58,4.13c-2.53,1.93-4.84,4.1-7.45,6l-.07-.07a24.16,24.16,0,0,1,7.09-6.6,24.87,24.87,0,0,1,9-3.59Z"></path>
      <path class="cls-17" d="M57.12,23.12c1.68,12,2.06,24.27,5.65,36a.47.47,0,0,0,.91-.26C60.1,47.14,59.71,34.9,58,22.87c-.08-.6-1-.34-.91.25Z"></path>
      <path class="cls-17" d="M77.26,97.56C65,70,63.83,64.34,62.49,57.82a103.71,103.71,0,0,0-2.81-11l1.08-.33A102.22,102.22,0,0,1,63.6,57.59c1.33,6.45,2.48,12,14.7,39.5Z"></path>
      <path class="cls-12" d="M80.83,40.7c.47-3.52-4.92-5.05-5.4-1.49-3.06,22.6.59,46.51-2.09,69.15a13.23,13.23,0,0,0,5.31,1C81.21,86.87,77.74,63.56,80.83,40.7Z"></path>
      <path class="cls-12" d="M74.3,61.67A5,5,0,0,1,71.84,60a6.72,6.72,0,0,1-1-2.57A26.83,26.83,0,0,1,69.7,52l.26-.09c1,1.55,1.92,3,2.9,4.51a8.18,8.18,0,0,1,1.43,2.19,6.26,6.26,0,0,1,.25,2.9Z"></path>
      <path class="cls-14" d="M80.46,39.17v0l0,0Z"></path>
      <path class="cls-14" d="M79.7,87.14s.33.14.35.34v-.3c0-.06,0-.13,0-.19l-.17.09C79.77,87.13,79.64,87.14,79.7,87.14Z"></path>
      <path class="cls-14" d="M82.2,86.81s.16-.07-.15,0c-.52,0-.52-.36-.5-.24a2.16,2.16,0,0,1,.08.71,2.78,2.78,0,0,0,.27-.21Z"></path>
      <path class="cls-14" d="M80,109.3a113.94,113.94,0,0,0,.71-13.19l-.08-3.43v-.34l.07-.2c.1-.21.24-.45.38-.69L82,90a8.21,8.21,0,0,0,.72-1.71,2.92,2.92,0,0,0,.11-1,4,4,0,0,0-.17-1,.69.69,0,0,0-.76-.52c-.45.13-.38.21-.5.27l-.3.31a3.17,3.17,0,0,1-.57.47A4.3,4.3,0,0,1,80,87c0,.06,0,.13,0,.19v.3h0c0,.15,0,.09,0,.13v-.14c0-.2-.33-.38-.35-.34s.07,0,.17-.06L80,87c-.52-3.66-.81-7.8-1.11-11.69s-.6-8.06-.53-12L80.7,39.2v-.05l0,0A2.73,2.73,0,0,0,78.6,37.8a2.7,2.7,0,0,0-2,1.34l.11.08A2.55,2.55,0,0,1,78.6,38a2.5,2.5,0,0,1,1.85,1.23v0l0,.08,0,0-2.78,24c-.14,4.08.14,8.1.34,12.14s.41,7.76,1,11.92a1.66,1.66,0,0,1,.06-.16l0,.44,0-.28a.82.82,0,0,0,0,.39.73.73,0,0,0,.65.58,1.66,1.66,0,0,0,.67-.12,5,5,0,0,0,.87-.43,3.65,3.65,0,0,0,.49-.39,2.16,2.16,0,0,0-.08-.71c0-.12,0,.24.5.24.31-.1.14-.06.15,0l-.3.29a2.78,2.78,0,0,1-.27.21,4.57,4.57,0,0,1-.72,2L80,90.79a8.45,8.45,0,0,0-.46.8,1.94,1.94,0,0,0-.21.61v3.91a117.17,117.17,0,0,1-.75,13.25Q79.33,109.36,80,109.3Z"></path>
      <path class="cls-14" d="M79.05,87.12a1.66,1.66,0,0,0-.06.16l0,.28Z"></path>
      <path class="cls-13" d="M75.87,78.07s-2.72-4.9,0-38.11c0,0-4.2,24-1.58,37.49,1.37,7.07,1.53,19.59.25,31.34a12.52,12.52,0,0,0,1.58.38A121.25,121.25,0,0,0,75.87,78.07Z"></path>
      <polygon class="cls-17" points="64.04 61.6 60.79 62.64 64.78 63.51 64.04 61.6"></polygon>
      <path class="cls-17" d="M65,63.71l-4.76-1.05,3.89-1.24Zm-3.66-1.1,3.21.71L64,61.77Z"></path>
    </g>
  </g>
</svg>
