<?xml version="1.0" encoding="UTF-8"?>
<svg xmlns="http://www.w3.org/2000/svg" xmlns:xlink="http://www.w3.org/1999/xlink" viewBox="0 0 93.24 121.26">
  <defs>
    <style>.cls-1{fill:#8e6848;}.cls-2{fill:url(#Безымянный_градиент_7);}.cls-3{fill:#713e21;}.cls-4{fill:#3d271f;}.cls-5{fill:#69391e;}.cls-6{fill:#6b482f;}.cls-7{fill:#5c3624;}.cls-8{fill:#795135;}.cls-9{fill:#9a734f;}.cls-10{fill:#cacac9;}.cls-11{fill:#85563a;}.cls-12{fill:#769b57;}.cls-13,.cls-14,.cls-15{fill:none;stroke:#79a05b;stroke-miterlimit:10;}.cls-13{stroke-width:0.35px;}.cls-14{stroke-width:0.31px;}.cls-15{stroke-width:1.1px;}</style>
    <linearGradient id="Безымянный_градиент_7" x1="44.45" y1="153.68" x2="48.83" y2="72.35" gradientUnits="userSpaceOnUse">
      <stop offset="0.38" stop-color="#9b714f"></stop>
      <stop offset="0.91" stop-color="#754427"></stop>
      <stop offset="1" stop-color="#6e3c20"></stop>
    </linearGradient>
  </defs>
  <g id="Слой_2" data-name="Слой 2">
    <g id="Слой_1-2" data-name="Слой 1">
      <path class="cls-1" d="M48.85,65.25s8.15,9.56,14.44,10S91.08,68.8,91.08,68.8l2.16-22.38L48.85,30.76Z"></path>
      <path class="cls-1" d="M0,44.83,4.43,74s15.73,2.36,18.48,1.57,15.34-5.51,18.88-5.51,7.06-4.84,7.06-4.84V30.76Z"></path>
      <polygon class="cls-2" points="6.54 101.35 48.85 121.26 87.99 101.44 47.3 84.2 6.54 101.35"></polygon>
      <path class="cls-3" d="M6.54,101.35,4.43,74s20.06-.4,25.56-3.15,18.86-5.63,18.86-5.63l-1.55,19Z"></path>
      <path class="cls-4" d="M35.13,75.72a7.18,7.18,0,0,0-2.4-1.41v0s-3.2-1-5,1.2-1.45,4.48-.65,4.85a8.54,8.54,0,0,0,1.38.29s.05,0,.08,0a27,27,0,0,0,3-.67,1.59,1.59,0,0,0,.51-.14l.55-.16c1.25-.39,1.41-.11,2.27-.86a3.37,3.37,0,0,0,.92-2.16,2.46,2.46,0,0,0-.17-.42h0l0,0A.81.81,0,0,0,35.13,75.72Z"></path>
      <path class="cls-4" d="M18,78.54a9.46,9.46,0,0,0-3.4,1.12v0s-3.64,2.28-3,5.79,3.09,5.19,4.13,4.75a13.27,13.27,0,0,0,1.45-1.09s0-.08,0-.11c.78-.89,1.35-2.68,1.87-3.43a1.87,1.87,0,0,0,.3-.61c.09-.17.18-.36.32-.67.68-1.54,1.08-1.45,1.09-2.93a4.31,4.31,0,0,0-1.3-2.71,2.26,2.26,0,0,0-.56-.19v0h-.07A1.07,1.07,0,0,0,18,78.54Z"></path>
      <path class="cls-5" d="M48.85,65.25l-1.55,19L88,101.44,91.08,68.8s-12.69-1.46-18.2-.68-15.1,3.15-18,1.58A38.18,38.18,0,0,1,48.85,65.25Z"></path>
      <path class="cls-4" d="M33.35,84.72a2.9,2.9,0,0,0-1.06-.26h0a1.94,1.94,0,0,0-1.72,1c-.42,1-.05,1.84.29,1.89.1,0,.38,0,.55,0l0,0a9,9,0,0,0,1-.58.7.7,0,0,0,.18-.11l.19-.12c.42-.29.51-.2.75-.58a1.28,1.28,0,0,0,.11-.91,1.1,1.1,0,0,0-.11-.14h0A.32.32,0,0,0,33.35,84.72Z"></path>
      <path class="cls-4" d="M73.22,76.56a1.94,1.94,0,0,0-.1-.75h0s-.32-.86-1.08-.88-1.21.43-1.16.66a2.7,2.7,0,0,0,.17.35s0,0,0,0a5.78,5.78,0,0,0,.64.53.27.27,0,0,0,.11.09l.13.1c.29.2.25.28.56.35a.93.93,0,0,0,.62-.16l.06-.11h0A.28.28,0,0,0,73.22,76.56Z"></path>
      <path class="cls-4" d="M84.58,90.26A9.42,9.42,0,0,0,83,87h0s-2.8-3.3-6.22-2.19S72,88.67,72.63,89.64a12.91,12.91,0,0,0,1.29,1.29s.08,0,.12,0c1,.65,2.87,1,3.7,1.37a1.83,1.83,0,0,0,.65.22l.71.21c1.64.46,1.61.88,3.08.67a4.34,4.34,0,0,0,2.53-1.69,3.16,3.16,0,0,0,.11-.58h0v-.07A1.07,1.07,0,0,0,84.58,90.26Z"></path>
      <path class="cls-4" d="M62.47,79a7.11,7.11,0,0,0-1.58,2.27h0s-1.19,3.1.81,5,4.33,1.76,4.76,1a9.21,9.21,0,0,0,.39-1.35s0-.05,0-.08a23.66,23.66,0,0,0-.45-3,1.63,1.63,0,0,0-.09-.52c0-.14-.06-.3-.12-.56-.29-1.26,0-1.4-.68-2.31A3.31,3.31,0,0,0,63.4,78.4a2.11,2.11,0,0,0-.43.14h0l0,0A.8.8,0,0,0,62.47,79Z"></path>
      <path class="cls-6" d="M62.62,102.2a1.35,1.35,0,0,0,1.33-.35c.46-.59.36-1.22.15-1.31a1.62,1.62,0,0,0-.38-.07c-.24,0-.27.58-.28.59Z"></path>
      <path class="cls-7" d="M61.83,101.71s.74.67,1,.46.68-.39.68-.39l0-.2s-.66-.32-.81-.27-.41.14-.48.16A2.79,2.79,0,0,0,61.83,101.71Z"></path>
      <path class="cls-8" d="M61.78,101.59c0,.09.1.31.33.23a4.35,4.35,0,0,0,.45-.19s.22-.7.28-.82.12-.16-.22,0-.38,0-.61.25A.86.86,0,0,0,61.78,101.59Z"></path>
      <path class="cls-9" d="M62.56,101.63a5.91,5.91,0,0,0,.11-.59c0-.26,0-.33.24-.37s.71-.27.93-.19.22.08.22.38a1.07,1.07,0,0,1-.32.73.61.61,0,0,1-.64.28A1.63,1.63,0,0,1,62.56,101.63Z"></path>
      <path class="cls-6" d="M53.58,97a3,3,0,0,0,2.75-1.41c.72-1.52.21-2.85-.31-3a5.25,5.25,0,0,0-.85,0c-.56,0-.32,1.41-.34,1.44S53.58,97,53.58,97Z"></path>
      <path class="cls-7" d="M51.59,96.31s1.95,1.12,2.53.53,1.3-1.19,1.3-1.19l-.14-.44A6.1,6.1,0,0,0,53.36,95c-.31.17-.84.52-1,.59A7.55,7.55,0,0,0,51.59,96.31Z"></path>
      <path class="cls-8" d="M51.43,96.08c.1.18.37.62.84.34a7.93,7.93,0,0,0,.89-.63s.15-1.64.21-1.94.2-.41-.49,0-.81.26-1.22.83A2,2,0,0,0,51.43,96.08Z"></path>
      <path class="cls-9" d="M53.16,95.79a9.35,9.35,0,0,0,0-1.35c-.07-.59-.13-.74.36-.92s1.42-1,2-.87.5.06.65.72a2.43,2.43,0,0,1-.35,1.77,1.35,1.35,0,0,1-1.28.91A3.6,3.6,0,0,1,53.16,95.79Z"></path>
      <path class="cls-6" d="M45.14,103.59a2.94,2.94,0,0,0,3,.36c1.42-.83,1.73-2.18,1.37-2.56a5.86,5.86,0,0,0-.7-.44c-.47-.28-1,1-1.06,1S45.14,103.59,45.14,103.59Z"></path>
      <path class="cls-7" d="M43.92,101.93s1,2,1.76,1.81,1.7-.25,1.7-.25l.13-.43s-1.1-1.18-1.44-1.21-1,0-1.11-.07A8.84,8.84,0,0,0,43.92,101.93Z"></path>
      <path class="cls-8" d="M43.92,101.66c0,.2-.05.71.49.73a8.26,8.26,0,0,0,1.07,0s1-1.24,1.23-1.45.38-.23-.39-.27-.81-.23-1.45,0A2,2,0,0,0,43.92,101.66Z"></path>
      <path class="cls-9" d="M45.48,102.37a9.86,9.86,0,0,0,.7-1.11c.26-.52.29-.67.79-.55s1.67,0,2.06.37.38.33.14.94-.59.85-1.26,1.24a1.3,1.3,0,0,1-1.53,0A3.29,3.29,0,0,1,45.48,102.37Z"></path>
      <path class="cls-6" d="M41.51,98.14a2.26,2.26,0,0,0,.08-2.31c-.73-1-1.78-1.18-2-.88a4.73,4.73,0,0,0-.3.57c-.18.37.81.72.82.74S41.51,98.14,41.51,98.14Z"></path>
      <path class="cls-7" d="M40.33,99.19s1.44-.87,1.26-1.47-.3-1.28-.3-1.28L41,96.37s-.83.91-.83,1.18,0,.74,0,.85A5.77,5.77,0,0,0,40.33,99.19Z"></path>
      <path class="cls-8" d="M40.12,99.2c.15,0,.54,0,.53-.42a5.39,5.39,0,0,0-.09-.81s-1-.7-1.19-.85-.2-.28-.18.32-.12.63.1,1.1A1.5,1.5,0,0,0,40.12,99.2Z"></path>
      <path class="cls-9" d="M40.56,98a7,7,0,0,0-.9-.47c-.41-.16-.53-.18-.47-.56s-.1-1.28.15-1.6.22-.32.71-.17a1.85,1.85,0,0,1,1,.88,1,1,0,0,1,.12,1.17A2.69,2.69,0,0,1,40.56,98Z"></path>
      <path class="cls-6" d="M34.34,99.84a1,1,0,0,0,.33-.94c-.17-.52-.59-.72-.74-.63a1.92,1.92,0,0,0-.19.2c-.12.13.24.4.24.41Z"></path>
      <path class="cls-7" d="M33.72,100.12s.7-.17.71-.44,0-.57,0-.57L34.33,99s-.46.27-.49.38-.08.31-.1.36A2.18,2.18,0,0,0,33.72,100.12Z"></path>
      <path class="cls-8" d="M33.63,100.11a.19.19,0,0,0,.27-.11,2.34,2.34,0,0,0,.07-.35l-.39-.5c0-.09,0-.14-.11.11s-.13.24-.1.46A.66.66,0,0,0,33.63,100.11Z"></path>
      <path class="cls-9" d="M34,99.65a3.27,3.27,0,0,0-.32-.31c-.15-.12-.19-.14-.12-.29s.12-.54.27-.65.13-.1.31,0a.79.79,0,0,1,.32.49.44.44,0,0,1-.1.5A1.24,1.24,0,0,1,34,99.65Z"></path>
      <path class="cls-6" d="M32.14,103.8s1.39-2.24.11-4-3.09-2-3.54-1.5a9.35,9.35,0,0,0-.51,1c-.31.66,1.41,1.24,1.43,1.28S32.14,103.8,32.14,103.8Z"></path>
      <path class="cls-7" d="M30.11,105.62s2.48-1.52,2.17-2.54a22.58,22.58,0,0,1-.54-2.22l-.58-.12s-1.43,1.59-1.43,2.05.06,1.28.05,1.48A9.53,9.53,0,0,0,30.11,105.62Z"></path>
      <path class="cls-8" d="M29.75,105.66c.26,0,.93,0,.9-.74a9.61,9.61,0,0,0-.16-1.41s-1.76-1.2-2.06-1.45-.35-.48-.31.55-.21,1.09.18,1.9A2.63,2.63,0,0,0,29.75,105.66Z"></path>
      <path class="cls-9" d="M30.49,103.51a12.05,12.05,0,0,0-1.56-.79c-.71-.28-.92-.31-.82-1s-.19-2.21.25-2.77.37-.54,1.21-.3a3.15,3.15,0,0,1,1.8,1.51,1.76,1.76,0,0,1,.23,2A4.55,4.55,0,0,1,30.49,103.51Z"></path>
      <path class="cls-10" d="M46.76,59.65c-.86,1-2.35,2.06-1.74,3.56.07.18.37.1.3-.08-.56-1.38.88-2.36,1.66-3.26.12-.15-.09-.37-.22-.22Z"></path>
      <path class="cls-10" d="M47,61c-.41.93-.84,1.85-1.24,2.78a3.48,3.48,0,0,0-.38,1.92c0,.19.32.11.3-.08a4.89,4.89,0,0,1,.76-2.61l.83-1.85c.08-.18-.19-.34-.27-.16Z"></path>
      <path class="cls-10" d="M47.24,63.17a6.87,6.87,0,0,1-.34,2.51,5,5,0,0,0-.51,1.77.16.16,0,0,0,.31,0,9.17,9.17,0,0,1,.67-2.22,8.36,8.36,0,0,0,.18-2.06.16.16,0,0,0-.31,0Z"></path>
      <path class="cls-10" d="M44.14,70.29c.59-1.57,1.68-2.34,2.91-3.36a2.59,2.59,0,0,0,1-2.33c0-.2-.29-.2-.31,0a2.76,2.76,0,0,1-.94,2.11c-.44.36-.93.66-1.35,1a6.08,6.08,0,0,0-1.65,2.47c-.07.18.23.26.3.08Z"></path>
      <path class="cls-10" d="M45.86,70c.29-.47.61-.93.94-1.37A3.9,3.9,0,0,1,48,67.48l0,0a6,6,0,0,1-1,1.31c-.37.41-.74.82-1.09,1.25Z"></path>
      <path class="cls-10" d="M45.85,73.43a23,23,0,0,1,1.35-2.32c.39-.8.43-1.73.81-2.55.08-.18-.19-.34-.27-.16a18.32,18.32,0,0,1-1.17,3,8.66,8.66,0,0,0-1,1.9c-.07.18.23.26.29.08Z"></path>
      <path class="cls-10" d="M47.1,60.07a1.82,1.82,0,0,0,2.08,1.72c.19,0,.11-.33-.08-.3a1.51,1.51,0,0,1-1.7-1.42c0-.19-.31-.19-.3,0Z"></path>
      <path class="cls-10" d="M47.41,61.34c.26.49.85.54,1.37.64s1.08.26,1.61.4a9.63,9.63,0,0,1,3.06,1.29l0,0a10.31,10.31,0,0,0-3.1-1c-.54-.11-1.09-.19-1.63-.34a4.29,4.29,0,0,1-.8-.29.92.92,0,0,1-.52-.68Z"></path>
      <path class="cls-10" d="M47.87,61.81A4.86,4.86,0,0,1,49,63.05L50,64.41a4.27,4.27,0,0,0,1.13,1.15,2.24,2.24,0,0,0,1.54.43A2.3,2.3,0,0,1,51,65.65a4.27,4.27,0,0,1-1.24-1.12l-1-1.32a5,5,0,0,0-1.13-1.11Z"></path>
      <path class="cls-10" d="M47.76,66.7a9.78,9.78,0,0,1,1.45,2.53c.07.19.36.11.3-.08A10.25,10.25,0,0,0,48,66.54c-.11-.16-.38,0-.26.16Z"></path>
      <path class="cls-10" d="M47.83,66.58a67.6,67.6,0,0,1-.37,8.17c0,.19.28.19.3,0a65.62,65.62,0,0,0,.37-8.17.15.15,0,1,0-.3,0Z"></path>
      <path class="cls-10" d="M47,59.36l0,2.06a.15.15,0,1,0,.3,0l0-2.06a.16.16,0,0,0-.31,0Z"></path>
      <path class="cls-10" d="M47.17,58.56c-.79,1.25-.07,2.75-.4,4.12-.05.19.25.27.29.08.33-1.32-.38-2.86.37-4,.11-.17-.16-.32-.26-.15Z"></path>
      <path class="cls-10" d="M47.63,64a.15.15,0,0,0,0-.3.15.15,0,0,0,0,.3Z"></path>
      <path class="cls-10" d="M47.78,64.6A8.64,8.64,0,0,1,47.66,67l.3,0v-.21c0-.19-.32-.19-.31,0V67c0,.17.27.22.31,0a9.2,9.2,0,0,0,.13-2.46c0-.19-.32-.2-.31,0Z"></path>
      <path class="cls-10" d="M47.55,64.28a43.18,43.18,0,0,1-.11,5,.15.15,0,0,0,.3.05c.14-.51.21-1,.35-1.54a.16.16,0,0,0-.3-.08c-.14.5-.2,1-.34,1.53l.3,0a43.18,43.18,0,0,0,.1-5,.15.15,0,1,0-.3,0Z"></path>
      <path class="cls-10" d="M47.51,65.23a1.64,1.64,0,0,1-.11.82c-.08.17.18.33.26.15a2,2,0,0,0,.16-1c0-.19-.33-.19-.31,0Z"></path>
      <path class="cls-10" d="M46.81,59.73s.54-2.18.81-.75a53.49,53.49,0,0,1,.62,5.89,9.22,9.22,0,0,0-.1,2.4,3.2,3.2,0,0,0-.32,1.18c0,.39-.13.25-.17-1.06s-.4-4.21-.49-4.79S46.81,59.73,46.81,59.73Z"></path>
      <path class="cls-10" d="M47,59.77c.25-1,.41-1.16.63-.05s.26,2.07.36,3.1a19,19,0,0,1-.24,5.32c-.09.47,0,.56.12-.19a7.42,7.42,0,0,0-.07-1.33c-.07-1-.19-2-.31-3-.17-1.3-.34-2.59-.48-3.88,0-.19-.33-.2-.31,0,.15,1.29.32,2.58.48,3.88.12,1,.24,2,.31,3a7.1,7.1,0,0,0,.19,2.06.16.16,0,0,0,.28,0,4.63,4.63,0,0,0,.32-2,16.14,16.14,0,0,0,.09-3c-.11-1.29.08-4.2-.81-5.25a.16.16,0,0,0-.15,0c-.47.16-.59.92-.7,1.34A.15.15,0,0,0,47,59.77Z"></path>
      <polygon class="cls-11" points="0 44.83 48.85 65.25 93.24 46.42 48.85 30.76 0 44.83"></polygon>
      <path class="cls-12" d="M56,8.43c3.27-4.67-.46-3.78-.46-3.78s-.3-4.83-1-4.64-1.05,4.66-1.05,4.66c-3-.4-2.52,2.82-2.11,3.88a1.93,1.93,0,0,1,.09,1.58,2.22,2.22,0,0,0-.88.19,1,1,0,0,1-.94.66,1,1,0,0,1-.62-.19c-.12.08-.34,0-.62-.43C47.82,9.53,47.13,8.7,46.83,9s.29,1,.12,1.82-.72.7-2-1.31-3.83-2.23-3.89-.82-1,.53-1,.53c-4.1-3.44-4.62-1-4.55-.35s0,0-2.72-.07-1.82.79-.76.74,8,1.29,6.94,1.77-.58,1.7,1,1.89,4,.43,3.42.7a2.21,2.21,0,0,0-.83,2.35c.17,1.12,1.86-.07,3.45-.2s2.88,2.6,4,3c.4-.92,1.34-3.89,1.34-3.89l1.12-.79c2.84-1.67,4.18-4,3.61-4.93S56,8.43,56,8.43Z"></path>
      <path class="cls-12" d="M52.32,21.58a4.38,4.38,0,0,1,1.88-2.8c1.7-1.12,1.3-3.58,3.2-1.87,0,0,1.74-1.26,1.83-2s1-.29.7.58.71,1.53-1.54,3.91c0,0-.22.21.21.57s0,1.07-1.22,1.34-6,1.77-7.07,4.84Z"></path>
      <path class="cls-12" d="M50,21.67A5.89,5.89,0,0,0,44.85,20c-3.18.51-1.67,1.68-1.67,1.68S38.6,23.57,41.34,29c0,0,.69.76.91-.3s0-1.28.41-2.23,1.09-2.37,1.42-2.23.73,1.54,1.39.19S47.88,21.08,50,21.67Z"></path>
      <path class="cls-12" d="M46.11,43.15c0,2,1.52-4.26,3.33-3.13,0,0-.3-2.56-2.55-2.31a1.88,1.88,0,0,0-1.67,1.6C45.12,40.11,46.09,41.15,46.11,43.15Z"></path>
      <path class="cls-12" d="M55.46,31.09c.08-.05,0-.27.08-.35.28-.81,1.21-4.29,2.11-5.06s1.13-1.67,1.5-.14c.06.21-.08.39-.17.59,0,0,.19-.11.91-.6,1.58-1,3.91-2.73,3.54-1.4s-.85,1.22,0,1.22A26.59,26.59,0,0,1,67,25.13c1,.15,2.08.59-.48.89-2.08.24-1.2.41-.81.46a.49.49,0,0,1,.3.14c.27.23.61.7-1.22.65-2.41-.07-1.74,0-1.63.19s.77,1.66-.89,1.37a5.78,5.78,0,0,0-2.78.07c-.14,0,2.34,1,.39,1.26s-2.79,1-3.86.92C55.54,31.05,55.4,31.14,55.46,31.09Z"></path>
      <path class="cls-12" d="M53.73,33.3c2.3-.24,8.89-.24,3.23,8.36a.1.1,0,0,1-.18,0c-.08-.46-.26-1.5-.31-2.24,0-1-1.23.77-.46-2.46a.09.09,0,0,0-.08-.12c-.36,0-1.46-.33-.76-2.58a.12.12,0,0,0-.05-.12,6.54,6.54,0,0,0-1.4-.62A.1.1,0,0,1,53.73,33.3Z"></path>
      <path class="cls-12" d="M53.82,33.4a14.47,14.47,0,0,0,1.31-4,32.78,32.78,0,0,0-.31-4.74c-.08-.52-1,1-1,2.73s.68,1.93,0,1.73-1.08-.45-1.39.49S53.82,33.4,53.82,33.4Z"></path>
      <path class="cls-13" d="M56.47,30.09C53.26,33.5,49.92,37.16,49,41.76"></path>
      <path class="cls-12" d="M45.22,31.91s-9.29-4.35-8.88,6.84c0,0,.74,1.4,1.92-3,0,0-.36-.2,1-.31S42.49,30.87,45.22,31.91Z"></path>
      <path class="cls-14" d="M42.72,31.66c3.84-.31,4.87,2.65,6.65,2.67"></path>
      <path class="cls-15" d="M49.71,13.14c.62,15.72.52,8.31-.34,24-.44,8,.3.28-.14,8.32"></path>
      <path class="cls-6" d="M45.88,53.2a1.35,1.35,0,0,0-1.29-.48c-.72.23-1,.79-.88,1A2.1,2.1,0,0,0,44,54c.18.18.56-.32.58-.32Z"></path>
      <path class="cls-7" d="M46.26,54.07s-.23-1-.6-1a7.74,7.74,0,0,1-.78-.07l-.11.18s.37.64.52.69l.49.15C45.84,54.05,46.26,54.07,46.26,54.07Z"></path>
      <path class="cls-8" d="M46.23,54.19c0-.09.09-.31-.14-.38a3.5,3.5,0,0,0-.48-.1s-.59.45-.71.51-.19.07.15.17.34.19.65.15A.94.94,0,0,0,46.23,54.19Z"></path>
      <path class="cls-9" d="M45.61,53.71a4.44,4.44,0,0,0-.43.42c-.17.21-.21.27-.41.16s-.75-.18-.88-.38-.14-.19,0-.43a1.09,1.09,0,0,1,.69-.42.59.59,0,0,1,.69.14A1.66,1.66,0,0,1,45.61,53.71Z"></path>
      <path class="cls-6" d="M42.93,36.56a2,2,0,0,0-2-.28c-1,.53-1.19,1.44-1,1.69a3,3,0,0,0,.46.31c.31.2.71-.63.73-.64Z"></path>
      <path class="cls-7" d="M43.73,37.69s-.62-1.34-1.15-1.24a11.51,11.51,0,0,1-1.15.14l-.09.29s.72.81.94.84.65,0,.75.06A5,5,0,0,0,43.73,37.69Z"></path>
      <path class="cls-8" d="M43.73,37.88c0-.14,0-.48-.32-.5a5,5,0,0,0-.72,0s-.7.82-.85.95-.26.15.26.19.54.17,1,0A1.35,1.35,0,0,0,43.73,37.88Z"></path>
      <path class="cls-9" d="M42.69,37.38a6.7,6.7,0,0,0-.49.74c-.18.34-.2.44-.53.35s-1.13,0-1.39-.28S40,38,40.2,37.56a1.63,1.63,0,0,1,.87-.82.9.9,0,0,1,1,0A2.34,2.34,0,0,1,42.69,37.38Z"></path>
      <path class="cls-6" d="M39,42.67s-4.14-2.07-7,.45-3,5.77-2.05,6.47a14.23,14.23,0,0,0,1.81.73c1.2.44,1.94-2.68,2-2.72S39,42.67,39,42.67Z"></path>
      <path class="cls-7" d="M42.49,45.94s-3.07-4.12-4.82-3.4-3.8,1.31-3.8,1.31l-.12,1s3,2.25,3.83,2.18,2.24-.33,2.59-.33A19,19,0,0,0,42.49,45.94Z"></path>
      <path class="cls-8" d="M42.61,46.56c0-.45-.21-1.63-1.45-1.47a17.52,17.52,0,0,0-2.44.52s-1.81,3.29-2.21,3.86-.78.69,1,.45,1.95.19,3.31-.63A4.63,4.63,0,0,0,42.61,46.56Z"></path>
      <path class="cls-9" d="M38.72,45.61a21.09,21.09,0,0,0-1.13,2.86c-.37,1.31-.39,1.66-1.58,1.6s-3.84.71-4.91,0-1-.57-.72-2.09,1-2.22,2.35-3.39a3.08,3.08,0,0,1,3.51-.74A8,8,0,0,1,38.72,45.61Z"></path>
      <path class="cls-6" d="M53.28,43.54s-3.48-2-6.14,0S44.16,48.33,45,49a13.37,13.37,0,0,0,1.54.74c1,.45,1.84-2.21,1.9-2.24S53.28,43.54,53.28,43.54Z"></path>
      <path class="cls-7" d="M56.15,46.59s-2.42-3.76-4-3.24-3.38.9-3.38.9l-.16.9s2.49,2.14,3.19,2.12,2-.15,2.27-.13A15.53,15.53,0,0,0,56.15,46.59Z"></path>
      <path class="cls-8" d="M56.22,47.14c0-.4-.09-1.43-1.17-1.37a15.68,15.68,0,0,0-2.15.31s-1.77,2.75-2.15,3.21-.72.55.86.46,1.68.28,2.91-.35A4.07,4.07,0,0,0,56.22,47.14Z"></path>
      <path class="cls-9" d="M52.9,46.08a19,19,0,0,0-1.16,2.41c-.4,1.11-.44,1.42-1.46,1.3s-3.38.37-4.27-.28-.84-.56-.49-1.85,1-1.87,2.24-2.81a2.69,2.69,0,0,1,3.09-.43A6.92,6.92,0,0,1,52.9,46.08Z"></path>
      <path class="cls-6" d="M62.48,39.87s-3.43-2.65-6.54-.86-3.82,4.74-3,5.56a12.46,12.46,0,0,0,1.53,1c1,.62,2.26-2.1,2.33-2.12S62.48,39.87,62.48,39.87Z"></path>
      <path class="cls-7" d="M65.13,43.5s-2.07-4.33-3.81-4S57.6,40,57.6,40l-.29.94s2.37,2.6,3.11,2.68,2.11.11,2.44.17A16.68,16.68,0,0,0,65.13,43.5Z"></path>
      <path class="cls-8" d="M65.13,44.1c0-.43.1-1.54-1.06-1.61a16.54,16.54,0,0,0-2.34,0S59.48,45.21,59,45.66s-.84.49.86.6,1.75.52,3.14,0A4.39,4.39,0,0,0,65.13,44.1Z"></path>
      <path class="cls-9" d="M61.73,42.52a20.29,20.29,0,0,0-1.55,2.42c-.58,1.13-.66,1.45-1.74,1.18s-3.65,0-4.5-.86-.83-.71-.28-2,1.31-1.86,2.77-2.69a2.87,2.87,0,0,1,3.35,0A7.42,7.42,0,0,1,61.73,42.52Z"></path>
      <path class="cls-6" d="M65.14,50.94A2.07,2.07,0,0,0,67,50c.51-1,.18-2-.18-2-.1,0-.4,0-.59,0-.38,0-.23,1-.24,1S65.14,50.94,65.14,50.94Z"></path>
      <path class="cls-7" d="M63.78,50.45s1.33.78,1.73.38.9-.8.9-.8l-.09-.3A4.25,4.25,0,0,0,65,49.56l-.68.4A4.89,4.89,0,0,0,63.78,50.45Z"></path>
      <path class="cls-8" d="M63.67,50.29c.07.12.25.42.57.24a5.1,5.1,0,0,0,.62-.43S65,49,65,48.78s.14-.29-.34,0-.56.17-.84.56A1.37,1.37,0,0,0,63.67,50.29Z"></path>
      <path class="cls-9" d="M64.86,50.1a7.08,7.08,0,0,0,0-.92c0-.41-.09-.51.25-.63s1-.64,1.36-.57.35,0,.44.49a1.69,1.69,0,0,1-.26,1.22.94.94,0,0,1-.89.61A2.48,2.48,0,0,1,64.86,50.1Z"></path>
      <path class="cls-6" d="M32.51,51.68a2.67,2.67,0,0,0,2.51-1c.74-1.27.39-2.47-.05-2.6a5.2,5.2,0,0,0-.75,0c-.49,0-.38,1.21-.4,1.23S32.51,51.68,32.51,51.68Z"></path>
      <path class="cls-7" d="M30.83,50.93s1.62,1.12,2.17.64,1.22-.94,1.22-.94l-.09-.39a5.44,5.44,0,0,0-1.66-.33c-.28.13-.77.4-.9.44A8.42,8.42,0,0,0,30.83,50.93Z"></path>
      <path class="cls-8" d="M30.71,50.71c.07.17.27.57.7.36a7.08,7.08,0,0,0,.83-.49s.25-1.42.33-1.67.2-.35-.43,0-.73.17-1.12.64A1.74,1.74,0,0,0,30.71,50.71Z"></path>
      <path class="cls-9" d="M32.24,50.58a8.75,8.75,0,0,0,.06-1.17c0-.52-.06-.66.37-.78S34,47.9,34.46,48s.43.08.51.67a2.06,2.06,0,0,1-.44,1.52,1.18,1.18,0,0,1-1.18.7A2.94,2.94,0,0,1,32.24,50.58Z"></path>
      <path class="cls-6" d="M44,45.13a1.51,1.51,0,0,0,1.54.27c.76-.39,1-1.09.78-1.29a3.28,3.28,0,0,0-.35-.25c-.24-.16-.56.48-.58.48Z"></path>
      <path class="cls-7" d="M43.39,44.24s.45,1,.87,1a8.26,8.26,0,0,1,.89-.09l.08-.22s-.54-.64-.72-.67-.5,0-.57-.06A3.71,3.71,0,0,0,43.39,44.24Z"></path>
      <path class="cls-8" d="M43.4,44.1c0,.1,0,.36.23.39a4.5,4.5,0,0,0,.56,0s.56-.62.68-.72.2-.11-.2-.15-.41-.14-.75,0A1,1,0,0,0,43.4,44.1Z"></path>
      <path class="cls-9" d="M44.19,44.51a4.13,4.13,0,0,0,.39-.56c.15-.26.18-.34.43-.26s.87,0,1.06.25.19.17,0,.49-.33.42-.69.61a.66.66,0,0,1-.79,0A1.77,1.77,0,0,1,44.19,44.51Z"></path>
      <path class="cls-6" d="M57.93,51s3.9.94,5.85-1.74,1.45-5.45.48-5.85a11.84,11.84,0,0,0-1.67-.26c-1.09-.14-1.12,2.63-1.17,2.68S57.93,51,57.93,51Z"></path>
      <path class="cls-7" d="M54.33,49s3.38,2.88,4.72,1.93S62,49.05,62,49.05l-.1-.9s-3-1.31-3.64-1.1-1.82.71-2.12.78A15,15,0,0,0,54.33,49Z"></path>
      <path class="cls-8" d="M54.1,48.45c.13.37.49,1.33,1.51,1a16,16,0,0,0,2-.91s.9-3.12,1.13-3.68.52-.73-.95-.18-1.68.21-2.67,1.17A4,4,0,0,0,54.1,48.45Z"></path>
      <path class="cls-9" d="M57.56,48.5A19,19,0,0,0,58,45.87c.06-1.17,0-1.48,1-1.65s3.11-1.33,4.13-1,1,.29,1,1.62a4.79,4.79,0,0,1-1.33,3.32A2.65,2.65,0,0,1,60,49.48,6.88,6.88,0,0,1,57.56,48.5Z"></path>
      <path class="cls-6" d="M40,48.78s2.33,1.31,4.08-.07S46,45.47,45.43,45a7.27,7.27,0,0,0-1-.47c-.68-.29-1.2,1.48-1.24,1.51S40,48.78,40,48.78Z"></path>
      <path class="cls-7" d="M38,46.79s1.66,2.46,2.69,2.1S43,48.24,43,48.24l.1-.6s-1.69-1.38-2.15-1.37-1.3.13-1.51.12A10.06,10.06,0,0,0,38,46.79Z"></path>
      <path class="cls-8" d="M38,46.42c0,.27.07.95.79.89a9.29,9.29,0,0,0,1.43-.23s1.14-1.85,1.38-2.16.47-.38-.57-.29-1.12-.17-1.93.27A2.63,2.63,0,0,0,38,46.42Z"></path>
      <path class="cls-9" d="M40.21,47.08a11.7,11.7,0,0,0,.73-1.62c.26-.74.28-1,1-.88s2.24-.29,2.84.13.57.36.35,1.22a3.16,3.16,0,0,1-1.45,1.9,1.79,1.79,0,0,1-2,.33A4.73,4.73,0,0,1,40.21,47.08Z"></path>
    </g>
  </g>
</svg>
