<?xml version="1.0" encoding="UTF-8"?>
<svg xmlns="http://www.w3.org/2000/svg" viewBox="0 0 98.38 167.21">
  <defs>
    <style>.cls-1{fill:#a29274;}.cls-2{fill:#e3e0c9;}.cls-3{fill:#fcedce;}.cls-4{fill:#bda885;}.cls-5{fill:#d0c5a6;}.cls-6{fill:#8f8267;}.cls-7{fill:#ab967a;opacity:0.25;}.cls-8{fill:#9b8d71;}.cls-9{fill:#7c705b;}.cls-10{fill:#cacac9;}.cls-11{fill:#817870;}.cls-12{fill:#e6f5b2;}.cls-13{fill:#bce27d;}.cls-14{fill:#a8d459;}.cls-15{fill:#81b651;}.cls-16{fill:#93c63e;}.cls-17,.cls-19,.cls-20,.cls-25,.cls-26,.cls-27,.cls-34,.cls-35,.cls-36,.cls-37,.cls-38,.cls-39{fill:none;stroke:#3f6c3e;}.cls-17,.cls-19,.cls-20,.cls-25,.cls-26,.cls-27,.cls-34,.cls-39{stroke-miterlimit:10;}.cls-17{stroke-width:0.37px;}.cls-18{fill:#3f6c3e;}.cls-19{stroke-width:0.09px;}.cls-20{stroke-width:0.27px;}.cls-21{fill:#a8d45c;}.cls-22{fill:#cfe77d;}.cls-23{fill:#9ecb3f;}.cls-24{fill:#e3f4ad;}.cls-25{stroke-width:0.31px;}.cls-26{stroke-width:0.15px;}.cls-27{stroke-width:0.23px;}.cls-28{fill:#80b64f;}.cls-29{fill:#e5f4af;}.cls-30{fill:#bce074;}.cls-31{fill:#d6eb8a;}.cls-32{fill:#d3ea85;}.cls-33{fill:#94c83f;}.cls-34,.cls-38{stroke-width:0.29px;}.cls-35,.cls-36,.cls-37,.cls-38{stroke-linecap:round;stroke-linejoin:round;}.cls-35{stroke-width:0.07px;}.cls-36{stroke-width:0.22px;}.cls-37,.cls-39{stroke-width:0.14px;}</style>
  </defs>
  <g id="Слой_2" data-name="Слой 2">
    <g id="Слой_1-2" data-name="Слой 1">
      <polygon class="cls-1" points="44.81 112.48 86.35 94.79 80.12 142.62 44.81 167.21 44.81 112.48"></polygon>
      <polygon class="cls-2" points="44.81 82.84 86.35 94.79 44.81 112.48 3.16 94.79 44.81 82.84"></polygon>
      <polygon class="cls-3" points="44.81 82.84 3.16 94.79 3.88 95.1 85.97 94.68 44.81 82.84"></polygon>
      <polygon class="cls-4" points="9.39 142.62 3.16 94.79 44.81 112.48 44.81 167.21 9.39 142.62"></polygon>
      <path class="cls-5" d="M29.34,95.38a24.24,24.24,0,0,1,2-2.1,20.68,20.68,0,0,1,2.3-1.77A23.07,23.07,0,0,1,38.81,89a27.39,27.39,0,0,1,5.66-1.18c1-.13,1.92-.1,2.88-.15s1.92.09,2.87.17c-1,.11-1.91.14-2.85.25s-1.89.21-2.81.39-1.86.31-2.77.57-1.82.49-2.71.76a30.28,30.28,0,0,0-5.14,2.29A27.9,27.9,0,0,0,29.34,95.38Z"></path>
      <polygon class="cls-6" points="44.81 112.48 86.35 94.79 80.12 142.62 44.81 167.21 44.81 112.48"></polygon>
      <polygon class="cls-7" points="9.39 142.62 3.16 94.79 44.81 112.48 44.81 167.21 9.39 142.62"></polygon>
      <polygon class="cls-8" points="44.81 167.21 9.39 142.62 44.98 129.17 80.12 142.62 44.81 167.21"></polygon>
      <path class="cls-9" d="M16.91,121.59a12.71,12.71,0,0,1-1.07-6.93,11.23,11.23,0,0,1,3.07-6.42A15.73,15.73,0,0,1,25,104.6,25.84,25.84,0,0,1,32,103.36a38.8,38.8,0,0,0-6.7,1.85,16.07,16.07,0,0,0-5.73,3.62,11,11,0,0,0-3,5.93,13.46,13.46,0,0,0-.17,3.42A13.2,13.2,0,0,0,16.91,121.59Z"></path>
      <path class="cls-9" d="M55.62,120.94c.11.17.35.23.53.33s.39.17.59.24c.4.16.81.29,1.22.42.81.28,1.62.52,2.45.74,1.65.44,3.3.85,5,1.18,3.34.69,6.72,1.12,10.15,1.52a37.28,37.28,0,0,1-10.32-.69,34.76,34.76,0,0,1-5-1.39c-.81-.29-1.62-.61-2.41-1-.39-.19-.77-.39-1.15-.6A3,3,0,0,1,55.62,120.94Z"></path>
      <path class="cls-9" d="M33.31,118.44a27.07,27.07,0,0,1-1,4.69,33,33,0,0,1-1.73,4.49,26,26,0,0,1-2.51,4.13,15.88,15.88,0,0,1-3.45,3.35,28.6,28.6,0,0,0,2.91-3.73,42.31,42.31,0,0,0,2.28-4.12c.69-1.41,1.29-2.87,1.88-4.34q.45-1.09.84-2.22C32.8,120,33.05,119.2,33.31,118.44Z"></path>
      <path class="cls-9" d="M46.2,156.51c1.69-.84,3.45-1.48,5.16-2.23s3.4-1.5,5-2.36A32.88,32.88,0,0,0,61.1,149a13.4,13.4,0,0,0,3.7-4.08,10.64,10.64,0,0,1-3.28,4.59,24.07,24.07,0,0,1-4.72,3.17,40.35,40.35,0,0,1-5.21,2.22c-.89.3-1.78.59-2.68.86Z"></path>
      <path class="cls-9" d="M26.71,151.26a8.81,8.81,0,0,1-4.64-4.34,3.93,3.93,0,0,1,.29-3.34,8,8,0,0,1,2.24-2.43,22.52,22.52,0,0,1,5.75-2.85,43.8,43.8,0,0,1,6.15-1.61c-2,.73-4,1.41-5.92,2.22a24.94,24.94,0,0,0-5.47,2.92A7.23,7.23,0,0,0,23,144a3.43,3.43,0,0,0-.35,2.76,6.35,6.35,0,0,0,1.61,2.53A14.61,14.61,0,0,0,26.71,151.26Z"></path>
      <path class="cls-9" d="M64.8,120c1-1.42,2.09-2.83,3.1-4.26s2-2.86,2.95-4.32a45.09,45.09,0,0,0,2.61-4.51A14.65,14.65,0,0,0,75.1,102a11.22,11.22,0,0,1-1,5.19,29.37,29.37,0,0,1-2.5,4.7,45.47,45.47,0,0,1-3.15,4.26A40,40,0,0,1,64.8,120Z"></path>
      <path class="cls-10" d="M44.29,102.59c.15.42.56,1.08-.15,1.46s-2.51.84-2.74,2.3.42,3.93-2.09,6.25c0,0-.31.75.36.45a5,5,0,0,0,2-2.61c.26-.94.89-3.23,1.51-3.4s1.36-.08.63,1.46a15.26,15.26,0,0,0-1.49,4c-.11,1,.53,1.07.58.2a2.43,2.43,0,0,1,1-1.88c.48-.27,1.24-1.34,1.37-1.19.48.51.24,1,.07,1.53s.25.81-1.27,2a7.65,7.65,0,0,1-2.47,1.3c-.68.35-3-.27-3.5.28s-.57,1.18-.09.91.92-.87,1.26-.56,2.58.19,2.53.32a8.63,8.63,0,0,0,2.59-1c.73-.48,2-.3,1.15.49a7,7,0,0,1-2.79,1.88c-.69.06-1.35-.56-1.18-.13s.75.59,1,.62a10,10,0,0,0,1.77-.73c.15,0,1-.35,1.4-.45s.93-.18.55.56-.16,1.1-1,1.33-.72.43-1.37.17-1-.18-.83,0,.61-.1.13.17-1.13-.72-1-.1a1.37,1.37,0,0,0,1.1,1,2.58,2.58,0,0,0,2.84-.34c1.45-1,1.52-1,.75.22,0,0-.07,0-.25.64s.1,1.1-.86,1.64-1.41,1.24-2.11.75-.15.68.18.76.6,0,1.27.13,2.48-1.4,2.64-1.79.59-3,1.08-3.08.86.74.9,1.11a5.55,5.55,0,0,1-.46,1.85,14.21,14.21,0,0,1-1.08,2.61c-.46.79-1.57.3-1.38,1s1.55.26,1.75.19,1.15-2.65,1.43-3.18,1.23-2,.94-2.86-1.49-2.56-1.29-3,.24-.11.55.47,1.21,2.45,1.86,2.33a9.44,9.44,0,0,0,2.95-.84c.73-.48,2.06-1,2.7.15s1.67,3,2,3-.29-.77-.27-1-1.05-1.82-1.11-2.29a2.45,2.45,0,0,0-3.13-1.35c-2,.52-2.16,1.2-2.72.77a3.14,3.14,0,0,1-1.81-2.76c-.14-1.93-.23-2.08.35-1.93a5.19,5.19,0,0,0,3,.46c1.27-.33,2-.94,2.25-1.75s.16-2.15.29-2.65a2.81,2.81,0,0,1,.62-1.18c.16-.12.44-1-.81.1,0,0-.6.67-.68,2.88s-4.84.5-4.84.5a15.27,15.27,0,0,1-1.61-2.16c-.24-.58.39-.47.81-.24a1.8,1.8,0,0,0,1.37-.13c.28-.11.53-.68,1.22-.1s1,1.27,1.47,1-.89-.79-.93-1.16a1.93,1.93,0,0,0-1.72-1.21c-.76.11-1.87.64-2.07-.36s-.36-3.27-.77-3.69S43.77,101.15,44.29,102.59Z"></path>
      <path class="cls-5" d="M48.38,104.08s.34-.71.11-1.1-3.54-1.18-3.58-.76a5.43,5.43,0,0,1-.19,1.77c-.25.47-2,1.14-2,1.14s-1.09.1-1,2.54.12.82.42.29.92-2,1.66-1.42.63,1.18.44,2a16.76,16.76,0,0,0-.28,1.69s1.53-2.11,1.69-1.23.57,2.59-.22,3.43a11.83,11.83,0,0,1-2.77,2c-.37.15-.17.6.79.09s2.28-1.11,2.28-1.11,1.19-.8.65.93a5.4,5.4,0,0,1-.71,1c-.46.51-.17.6.64.07s.55.5.55.5a10.66,10.66,0,0,0-.63,2.14c.07.32,1.2-.92,1.2-.92s.81-.5.38,1.14-.2,1.47-.1,1.42.58-2.71,1.18-2.34A6.22,6.22,0,0,1,50,118.43s.82.34-.56-1.79a2.38,2.38,0,0,1,.46-3.4s.4-1.39-.14-2-1.53,1.67-2.32-1.25S45.4,104.68,48.38,104.08Z"></path>
      <polygon class="cls-3" points="3.88 95.1 44.81 112.48 86.35 94.79 85.97 94.68 3.88 95.1"></polygon>
      <ellipse class="cls-1" cx="46.13" cy="95.63" rx="9.59" ry="3.75"></ellipse>
      <ellipse class="cls-11" cx="46.37" cy="96.89" rx="7.91" ry="3.09"></ellipse>
      <path class="cls-12" d="M47.82,97.48c.14-.92-.77-2-.11-.67.16-.14.29-.16.53-2a50.22,50.22,0,0,0,.85-8.08c0-.53-.06,1,.08-2.61S50.63,65,50.66,60s.63-7.21.4-11.27-1.92-5.18-3.29-1a46.65,46.65,0,0,1-.44,9.59,31.22,31.22,0,0,0-.62,8.38c0,4.6,0,15.46-.11,20.54S45.74,93.47,47.82,97.48Z"></path>
      <path class="cls-13" d="M39.18,26.77c-.65-2.21-1.24-4.44-1.94-6.65,1.24-.61,1.27-1,2.78-1.68s4.53-1.5,6.31-2.24c.68,2.3.94,3.39,1.65,6s1.78,6.69,2.55,9.57c-1.56.48-3.16.87-4.74,1.31Z"></path>
      <path class="cls-13" d="M49.07,86.15c.15-.3.17-.46.35-.77a10.5,10.5,0,0,1,.76-1.22c.21-.25.4-.24.59-.33.15-.68-.19.12.09-.91s.65-3.39,1.21-4.91a35,35,0,0,0,2-5.49c.32-1.84.77-3.77,1.15-5.6a1.31,1.31,0,0,1,.37-1.76A5,5,0,0,0,57,62.67c-.17-1.81-.35-3.64-.53-5.43a10.77,10.77,0,0,1,.94-2.91c.47-1.11.32-1.45,0-3.21s.48-7.24-.86-9a13.4,13.4,0,0,1-2.48-6c-.52-2.5-3.13-4.79-5-2.62.16,2.39.3,4.31.5,6.84a70.23,70.23,0,0,1,.51,7.83c-.07,2.89.32,6.89-.15,9.94a69.2,69.2,0,0,0-.45,9.9c0,2.92.11,7.66,0,9.64A18.9,18.9,0,0,0,49.42,80a8.54,8.54,0,0,1-.15,2.21A24.45,24.45,0,0,0,49.12,85C49.11,85.71,49.09,85.6,49.07,86.15Z"></path>
      <path class="cls-14" d="M47.35,20c-.41-1-1.82-2.51-.92-3.76S47.27,12.45,48,11s2.39-5.16,3.66-5.1,2.47,2.57,3.24,3.81a8.5,8.5,0,0,0,3.32,3.11c1.21.51,1,2.19,1.84,3.44s1.22,3.7,1.6,5.36c-.26,1.81-.89,4.77-1.07,6.28a27.81,27.81,0,0,0,0,2.79c1,.39,1.91.89,2.87,1.32-.21.51-.41,1-.63,1.51a2.13,2.13,0,0,0,.41,1.09,3.31,3.31,0,0,0,1.18.76,7.12,7.12,0,0,0,.84.15c-.08.38-.06.47-.16.92a5.3,5.3,0,0,1-.66,1.9,2.65,2.65,0,0,1-1,.6c-.3.12-.9,0-1,.31s0,.7-.11,1.07a4.77,4.77,0,0,1-.81,1.49,8.53,8.53,0,0,0-1.18,1.33,1.2,1.2,0,0,0-.15,1,6.94,6.94,0,0,0,.88,1.38c.2.3.19.26.35.48a6.39,6.39,0,0,0-.39.52c-.14.24-.25.59-.43.9s-.44.62-.64,1-.43.7-.61,1.11-.08.64-.22,1-.27,1-.46,1.43a5.94,5.94,0,0,1-.52,1.12c-.28.39-.08.37-.63.88s-.28.7-1.57,1.5-1-2.92-.6-3.79,2.18-4.87.78-4.77a2.38,2.38,0,0,1-2.77-2.56c.22-1.77.62-4.17-.23-4.91s.48-2.89.46-3.62-1.29.41-1.66-.14-.89-3.29-1.68-2.83S49,36,49.2,35.31s-.49-7.89-.87-9.77S47.72,21.76,47.35,20Z"></path>
      <path class="cls-13" d="M49,31.12c0-1.06,0-2.6.15-3.55s.33-1.25.43-2.1A11,11,0,0,0,49.7,23,17.23,17.23,0,0,0,49,19.31c-.33-.94-.76-1.91-1.06-2.59s-.39-.71-.67-1.25c-.7.91-1.42,1.78-2.14,2.67.13.48.18.9.32,1.4s.36,1.26.51,1.73.35.75.49,1.16a10.63,10.63,0,0,1,.38,1c.12.43.05.6.19,1.18s.34,1.59.53,2.33.6,2,.79,2.69.22.89.37,1.47A2.45,2.45,0,0,0,49,31.12Z"></path>
      <path class="cls-15" d="M40.9,23.38a20.41,20.41,0,0,1-1.43-1.62,12.76,12.76,0,0,1-.92-1.67c-.3-.66-.54-1.52-.84-2.24-.84-.43-2.06-1.26-2.81-1.58s-1-.13-1.68-.37a5.83,5.83,0,0,1,.08.84,5.13,5.13,0,0,1-.13,1.05,18.09,18.09,0,0,1-.63,2,13.09,13.09,0,0,1-1.11,2,12,12,0,0,1-1,1c.08.16.16.34.23.52a3.68,3.68,0,0,0,1,.14c.4,0,.88-.14,1.35-.17a3.14,3.14,0,0,1,1.66.29c.41.26.15.4.45.73s-.51.38.46.36A30.4,30.4,0,0,0,40.9,23.38Z"></path>
      <path class="cls-16" d="M35.13,16.51a6.92,6.92,0,0,1,.77.59c.3.25.82.71,1.11,1a11,11,0,0,1,.74.83c.23.28.31.45.54.76a8.18,8.18,0,0,0,.6,1,1.62,1.62,0,0,0,1.3.16c.61-.19,2.23-.26,3.15-1.17s1.43-.22,3-1.25,3.19-9.06,4.5-10.55S52.34,9,52.76,10.09s1,4.11,2.78,4,3.34-.8,4,2.18-.16,7.56-.8,10.05-1.56,3.42-.59,5.43,3.69,1.43,5.25,1.6c.54-.36,1.17-.63,1.65-1a2,2,0,0,0,.6-1.56c.06-.58-.33-1.65,0-2.11a11.64,11.64,0,0,1,1.19-1.1c.46-.46,0-.68-.55-1.14a1.08,1.08,0,0,1,.17-1.69,2.62,2.62,0,0,0,1-1.44c.23-.63.22-1.11.42-1.79s-.49-.41-.82-.21-1.21.54-1.42-.1A5.82,5.82,0,0,0,65,19.37c-.36-.39-.66-.16-.83-.8s.44-1.67.76-2.19c.19-.27-.14-.64-.39-.93a5.09,5.09,0,0,1-.79-1.67c-.13-.55-.25-.42-.6-.5s-1,.08-1.23-.51a1.78,1.78,0,0,1,.38-2c.57-.36.52-.35,0-.68a3.2,3.2,0,0,1-1.28-1.79,5.16,5.16,0,0,0-.64-1.57c-.35-.69-.76-1.29-1.27-1.15s-2.58,1-2.24-.11.85-1.52-.07-2S55.79,3,55.56,2.07,55.24.62,54.27.46A33.55,33.55,0,0,0,50,.14c-.84,0-.48.06-1,.5s-.51.73-1.23.53a3.77,3.77,0,0,0-2.44.33,15.14,15.14,0,0,0-2.12,1,2,2,0,0,0-.62,1.06c-.18.45-.08,1.12-.36,1.47s-.51.29-.84.38-.84.11-1,.48a1.53,1.53,0,0,0-.24.82,4.5,4.5,0,0,0,.1,1.15c.11.53,0,.85-.53.52s-2.88-.48-2,.88c0,.48.08.72,0,1.24s-.12,1-.22,1.66a2,2,0,0,0,.27,1.12c.29.56,0,2.17-.86,2.4a13.53,13.53,0,0,1-2.65.53C34.59,16.35,34.85,16.34,35.13,16.51Z"></path>
      <path class="cls-14" d="M36,47.21c-.24-.23-.55-.12-.93-.33a1,1,0,0,0-.83-.17,11.52,11.52,0,0,0-1.26.46c.08-.29.21-.52.28-.82s.15-.78.19-1.07,0-.39,0-.64c-.22,0-.39,0-.62,0a1.07,1.07,0,0,0-.72.41,1.56,1.56,0,0,0-.39.84,6.09,6.09,0,0,0,.09,1.15c0,.32.26.89.3,1.06s0,.35-.08.3-.46-.14-.7-.67-.68-2-.91-2.65a3.06,3.06,0,0,0-1-1.58c-.38-.2-.4-.11-.69-.33.17-.22.32-.24.49-.53a3.92,3.92,0,0,0,.36-1.89,10.78,10.78,0,0,0-.22-1.27,2.19,2.19,0,0,0,.45,0,4.68,4.68,0,0,0,1.72-.4,2,2,0,0,0,.17-3.18c-.33-.3-.73-.38-1-.63s-.22-.38-.44-.65c.63-.14.13-.19,1-.34s2.23.36,3.6-.1,3.85-1.8,5.42-2.4c.88-.05,1.68,0,2.53,0,.91,1.05,1.8,1.41,2.73,2.62A52.1,52.1,0,0,1,48.48,39c-2.75,1.89-8.37,5.84-10.45,7.21S37.42,46.33,36,47.21Z"></path>
      <path class="cls-13" d="M47.23,38.37A8.32,8.32,0,0,1,47,35.06c.17-.94.66-3.45,1.36-3.72a6.31,6.31,0,0,0-1.13-1.19A6.47,6.47,0,0,0,44.71,29a2.5,2.5,0,0,0-1.71.3,2.89,2.89,0,0,1-1.3.57l-1.47,2.79,1.14.12c.39,0,.94-.07,1.29,0a2.51,2.51,0,0,1,.89.28c.23.14.3.34.51.65s.51,1.08.72,1.45a6.86,6.86,0,0,0,.49.87,13.31,13.31,0,0,0,1,1C46.57,37.47,46.91,38,47.23,38.37Z"></path>
      <path class="cls-16" d="M33.53,25.82c.49-.34,1.25-1,1.66-1.29s.57-.3.89-.49.58-.3.9-.45.66-.31,1-.43.55-.2.84-.3a1.33,1.33,0,0,1,.88,0c.29.11.54.07.81.29s.31-.17.63.33.74-.33,1,1.35,1.53,3.94-.45,7S34,37.43,30.4,34.57a2.4,2.4,0,0,0,.81-.3c.29-.18.61-.22.89-.62a5,5,0,0,0,.53-1.95,11.56,11.56,0,0,0-.12-2.23c-.09-.54-.09-.72.24-.88s1,0,1.21,0,.88.5.88.14a21.14,21.14,0,0,0-1.07-2.22A5.88,5.88,0,0,1,33.53,25.82Z"></path>
      <path class="cls-13" d="M46.74,79.71c-.16-3.46,0-7.83.11-11.06a84.58,84.58,0,0,0-.47-8.45c-1.14-1.5-2.25-3.06-3.37-4.59l-2.76.83a3.18,3.18,0,0,1,.48,1.09,2.58,2.58,0,0,1-.34,1.62c-.27.28-.39.31-.61.58.2.05.38.23.59.26s.5-.05.74,0c0,.48,0,1.15-.06,1.6s0,.72,0,1.1a2.6,2.6,0,0,1-.13,1,3.75,3.75,0,0,1-.69,1c-.34.36-1,.89-1.44,1.27,0,.15.1.28.15.42l1.27.24c.25.61.47,1.28.75,1.87.09.18.3.21.41.37L40.69,70c.07.48.21,1,.27,1.43a12.64,12.64,0,0,0,.11,1.37,4,4,0,0,0,.23,1c.24.68.87,2.28,1.23,3.12.76.52,1.68,1.17,2.39,1.61S46.09,79.26,46.74,79.71Z"></path>
      <path class="cls-16" d="M46.59,76.12c.24-.1.46-.3.7-.43.1-.64.25-1.37.33-2s.16-.78.21-1.45.06-1.82.09-2.56a14.19,14.19,0,0,0,0-2.25c-.08-.67-.14-1-.18-1.71s-.07-1.36-.08-2.12.11-2,.16-2.67.41-.54.25-1.37a16.21,16.21,0,0,0-.9-3.68c-.44-.8-1-1.2-1.43-1.91-.75.31-2.68.87-3,1.57s.3,1,.16,1.58a6.22,6.22,0,0,1,1.69,1.55,6.56,6.56,0,0,1,.65,1,2.81,2.81,0,0,1,.24,1c.1.59.28,2.24.37,2.91s.09.47.16,1.17.17,1.82.18,2.75a3.7,3.7,0,0,0,.09,1.13,3.53,3.53,0,0,1,.29,1.66c-.09.6-.34.51-.2,1.47S46.58,74.92,46.59,76.12Z"></path>
      <path class="cls-16" d="M48.14,59.67c-.37-.91-.82-2.43-1.16-3.17a8.67,8.67,0,0,0-.86-1.34c-.35-.57-.81-1-1.17-1.65a21.85,21.85,0,0,1,.12-5.81c.38-1.28,1,0,1.41-1s-1-5.26-.7-6.41a1.22,1.22,0,0,1,1.5-1c.27.1.4.25.38.1-.09-.62-.32-.57-.51-1.26a8.79,8.79,0,0,1-.61-2.86,15.57,15.57,0,0,1,.79-3.6c.32-.64.36-.27.61-.75.16.43.45.48.6.94A6.41,6.41,0,0,1,49,33.27c.13.88.16,2.38.29,3.65s.39,4.41.48,5.48.08,1.19.11,1.75,0,.8-.22,1a.66.66,0,0,0-.29.53c-.05.31-.16.56-.22.91s-.16.77-.2,1.15a9.61,9.61,0,0,0-.07,1c0,.45,0,1.12,0,1.67s0,1.05,0,1.68.09,1.47.08,2.16a19.41,19.41,0,0,1-.11,2.16c-.09.69-.33,1.73-.45,2.28S48.24,59.25,48.14,59.67Z"></path>
      <path class="cls-13" d="M37.36,57.14c.22.25.32.45.68.35A5.85,5.85,0,0,0,39.15,57a3.44,3.44,0,0,1,1.46-.54,5.13,5.13,0,0,1,2,.5c.63.31.63-.41,1.18-.77s1.13.77,1.64-.53-.2-5.83.3-7,1-.42,1.44-.21.82-1.18.52-2.13-1.81-5.63-1.23-6.55.7-.16,1.17-.21c-.3-.23-.59-.69-.88-.92a6,6,0,0,0-.94-.56,5.65,5.65,0,0,0-.61-.22l-1-.49c-.23-.1-.27-.09-.46-.17s-.5-.19-.67-.24a2.11,2.11,0,0,0-.34-.13.84.84,0,0,0-.41,0c-.15,0-.2.14-.41.21s-.68.23-.92.28a5.11,5.11,0,0,1-.66.07c-.22,0-.49,0-.69,0s-.33-.1-.52,0,0,.05-.18.23-.61.84-.78,1.08-.3.49-.41.68a3.73,3.73,0,0,0-.22.46c-.07.17-.1.3-.16.47s-.08.34-.15.52a6,6,0,0,1-.23.59,4.47,4.47,0,0,1-.34.4l.65-.37c.27-.15.77-.48,1-.61a3.74,3.74,0,0,1,.65-.28,1.27,1.27,0,0,1,1,.15,3,3,0,0,1,.43.38,3.53,3.53,0,0,1,.35.45c.13.18.26.5.41.69a5.73,5.73,0,0,0,.45.39c-.13.07-.06.09-.24.17s-.64.17-.85.27a3.06,3.06,0,0,0-.51.26,4.88,4.88,0,0,0-.54.48l-.37.34c-.15.13-.21.2-.4.36s-.59.54-.78.7a2.63,2.63,0,0,1-.35.26c-.18.13-.29.19-.54.35s-.69.38-1,.56-.73.34-1,.53a3.42,3.42,0,0,0-.58.63,3.76,3.76,0,0,0-.42.76c0,.09-.06.27,0,.34a1.45,1.45,0,0,0,.5.44.84.84,0,0,0,1-.1,9.78,9.78,0,0,1,1.49-1.22,8.1,8.1,0,0,1,1.13-.28c-.13.16-.37.3-.47.47s-.47.88-.6,1.13-.06.2-.16.39c.28,0,.5-.16.77-.13a2.35,2.35,0,0,1,.86.28,4.36,4.36,0,0,1,.81.62c.18.17.23.46.4.64-.27.1-.19,0-.55.16s-1.13.51-1.57.68c.18.19.33.22.55.43a8.21,8.21,0,0,1,.82.76,2.56,2.56,0,0,1,.38.8,5.66,5.66,0,0,1,0,1.43,1.83,1.83,0,0,1-.37.78,8,8,0,0,1-1.08.93C37.75,57.07,37.62,57,37.36,57.14Z"></path>
      <path class="cls-13" d="M51.05,83.67c-.38,0-.83.06-1-.82a6.56,6.56,0,0,1,.8-3.47c.8-1.51,1.63-4.1,2.27-5.42s-.06-1.55,0-2.64,1.69-2.92,1.76-4.49,1.78-3.15,1.46-4.53-2.36-.82-3.15-.95l1.67-3.12c.41-.76.71-1.25,1-1.75s.35-.57.56-.93.36-.52.57-.86c0,.24.09.1,0,.43a2,2,0,0,0,0,1.39c.29.47,1,1.1,1.54.94a5.08,5.08,0,0,0,1.27-.65c0,.31.1.41,0,.77a6.79,6.79,0,0,1-.51,1.4,5.33,5.33,0,0,1-.91,1c-.27.25-.31.23-.27.7s.46,1,.25,1.62A4.26,4.26,0,0,1,57.21,64c-.47.39-1.21.85-1.65,1.17a1,1,0,0,0-.32,1.36,1.36,1.36,0,0,0,1.43.36c.46-.18.26.25.2.81A1.91,1.91,0,0,1,55.79,69c-.44.09-.89.75-.65,1.17s.27.33.46.65c.19-.1.39-.16.59-.25-.08.28-.06.4-.15.71a4.38,4.38,0,0,1-.5,1c-.21.28-.62.35-.32.84a3.87,3.87,0,0,1,.84,1.71,4.62,4.62,0,0,1-.42,2.24c-.12-.3-.17-.54-.28-.88s-.34-.85-.66-1a.94.94,0,0,0-1,.08,1.11,1.11,0,0,0-.19,1.18c.17.36.85.74.82,1.11s-.18.37-.43.64-1.05.66-1.34.89-.29.28-.31.65,0,.83,0,1.2a1.13,1.13,0,0,1-.42.88c-.25.14-.32.21-.25.51s.61.83.29,1S51.43,83.69,51.05,83.67Z"></path>
      <path class="cls-12" d="M47.82,97.47A32.14,32.14,0,0,0,47,94.14a19.34,19.34,0,0,1-.32-5.7c.22-1.51.29-2,.44-3.47s.25-3.57.45-5.14a2.85,2.85,0,0,0,0-1.47c-.12-.76-.19-2.31-.41-3.25s-.6-2.66-.76-3.43a1.83,1.83,0,0,0-.6-1.24c-.32-.28-.52,0-.8-.25a2,2,0,0,1-.59-.9,8.74,8.74,0,0,0-.92-1.7,3.68,3.68,0,0,0-.87-.89A1.56,1.56,0,0,0,41,66.55c-.41.24-.71.28-.95.68s-.33.94-.55,1.37c.26,0,.46-.12.73-.11a1.9,1.9,0,0,1,.77.24c.3.16.09.51-.07.62s-.51.44-.39.58c.31.35.11-.11.67.31a8.62,8.62,0,0,1,2.32,2.45c.23.43.94,1.5,1.24,2s.63,1.16.86,1.67.43,1,.61,1.43a13.64,13.64,0,0,1,.35,1.4c-.2-.28-.3-.54-.51-.82s-.23-.56-.65-.73-1.25-.41-1.74-.66a9.16,9.16,0,0,1-1.52-1c-.4-.34-.33-.5-.84-.61s-1.34-.08-1.92-.16c.22.32.17.27.46.67s.9,1.32,1.27,1.79S42,78.6,42.33,79s.77.72,1.14,1.12c-.28.11-.7.25-.95.36s-.29.21-.51.3c.22.41,0,.43.42.88A6.51,6.51,0,0,1,44,83.86c.22.83.39,1.41.63,2.18s.25,1.16.59,2A12.89,12.89,0,0,1,46,91.56a18.65,18.65,0,0,0,.77,3.84A11.1,11.1,0,0,0,47.82,97.47Z"></path>
      <path class="cls-17" d="M47.81,97.44c-1.18-2-1.65-5.24-2-7.24s-.91-2.88-1.26-4.36A8,8,0,0,0,43,82.3a2.47,2.47,0,0,1-.89-1.46c-.18-.61,1.64-.55,1.38-.75s-2.28-2-2.43-2.62-1.64-2.06-1.49-2.24a5.5,5.5,0,0,1,2.34.28c.6.2-.72-2-.79-2.86S41,70.28,40.42,70s1.34-.83,1-.87-1.17-.9-1.92-.33a4.53,4.53,0,0,1,1-2.12c-.33-.34-1.66.12-1.71-.65s2-1.59,2.2-2.76A23.63,23.63,0,0,1,41.12,60a1.71,1.71,0,0,1-1.43-.18A2.56,2.56,0,0,0,40.51,57c0-.18-.26-.54-.78-.29S38,58,37.38,57.14c.87-.49,1.63-.49,2.08-2a2.64,2.64,0,0,0-1.89-3.3c.56-.76,1.85-.46,2.32-1.12S37.4,49,37.06,49.48c.34-.86.57-1.77,1.42-2s-1.85.87-2.9,1.6c-.11.07-.73.31-.95.06s-.46-.33-.63-.59c.22-.62.86-1,1.07-1.63s-1.89.21-2.08.53.41-1.94.5-2.77c-1.94,0-1.78,1.85-1.24,3.78-.75.09-1.49-1.47-1.56-2.73s-1.55-1.87-1.84-2.53,1.5-1.85.54-3.63c1.24,0,2.91-.15,2.93-2S30.87,36,30.37,34.63a2.85,2.85,0,0,0,2.13-2.1c.35-1.24,0-2.16,0-3.39S34.3,28.68,35,29s-.94-2.11-1.45-3.18c.5-.65,1.23-.38,1.57-1.41s-1.92-1.24-2.52-1.05-1.82.47-2.1-.54a7.91,7.91,0,0,0,2.29-3.68,4.55,4.55,0,0,0,.24-3.4,3,3,0,0,0,2.64.33c1.24-.25,3.22-1.29,1.83-3.55a6.39,6.39,0,0,0,.11-3.67c-.39-1.12,2.36-.42,2.64-.24s-.28-2.17.27-2.77a2.36,2.36,0,0,1,1.6-.53c.56,0,.52-2.55,1.43-2.95S46.12,1,47,1s.79.31,1.48.27S48.68.15,49.53.18,53,.35,53.9.4s1.09.16,1.47.72,0,1.22.46,1.69a7.23,7.23,0,0,0,1.9,1c-.18.55-1.09,1.32-.62,2.07s1.72-.66,2.46-.36,1.37,2.3,1.68,3.26,1.35,1.25,1.88,1.94c-.58-.1-1-.2-1.3.68a1.45,1.45,0,0,0,.94,1.83c.55.06.67,0,.75-.45a11.45,11.45,0,0,1,.45,1.9c.12.66.9.8,1.21,1.31-.43.53-1.25,1.79-1,2.51s1,.63,1.16,1.35.21,1.47.72,1.7,1.67-.73,1.88-.48-.42,3-1,3.28-1.34,1.35-1,1.87,1.21.46,1.13,1.07-1.67.68-1.53,1.76a4.56,4.56,0,0,1-.54,3.28c-.66.8-1.56.51-2.16,1.32s2,2.07,2.36,1.85a4.5,4.5,0,0,1-1.38,3.24c-.72.47-1.37,0-1.45,1.07a3.66,3.66,0,0,1-1.29,2.42c-.65.58-1.2,1.31-.82,2.22s.9,1,1.32,1.71c-.46.33-.7.24-.93,1.08S59.5,48.86,59.32,50A10.88,10.88,0,0,1,58,53.53c-.58.9-1.49,1.7-.9,3s1.84,1.1,2.77.31a3.67,3.67,0,0,1-1.64,3.3,2.23,2.23,0,0,0,.14,1.49,2.71,2.71,0,0,1-1.5,2.65c-.83.31-2.41,1.54-1.65,2.27s.92.53,1.48.35-.1,1.55-.37,1.79-1.44.29-1.26,1.15.52,1.22,1.21.64A8.6,8.6,0,0,1,55.71,72c-.21.6-1,.44-.31,1.37a3.42,3.42,0,0,1,.14,3.8,2.22,2.22,0,0,0-.82-1.94.84.84,0,0,0-1.29.65c-.11.75.58,1.26.9,1.6s-.91,1.22-1.2,1.37-.86.3-.87.89a7,7,0,0,1,0,1.79c-.15.47-.54.09-.61.5s.2.79.32,1.17-1.39.52-1.8,1a4.34,4.34,0,0,0-1,2.8,16.78,16.78,0,0,1-.29,4.46c-.35,1.43-.53,4.18-.91,5.37S47.21,93.62,47.81,97.44Z"></path>
      <path class="cls-18" d="M47.08.92c.09.91.21,1.83.24,2.75a18.21,18.21,0,0,1-.11,2.76,21.82,21.82,0,0,0-.16,5.47c.1.92.16,1.84.34,2.73a11.52,11.52,0,0,0,.89,2.57,18.5,18.5,0,0,1,1.55,5.32,11.32,11.32,0,0,1-.06,2.79c-.13.93-.35,1.82-.48,2.72a22.63,22.63,0,0,0,.08,5.45c.3,3.65.54,7.37.88,11,.06.44.17.88.26,1.35a5.89,5.89,0,0,1,.05,1.45c-.11,1-.24,1.81-.28,2.73a28.24,28.24,0,0,0,.16,5.44A27,27,0,0,1,50.15,61c-.07.88-.07,1.83-.15,2.74s-.13,1.83-.13,2.74c0,3.64.43,7.31,0,11A54.75,54.75,0,0,0,49.4,83a37.43,37.43,0,0,0-.24,5.49h-.08a39.12,39.12,0,0,1,0-5.52c0-.92.09-1.83.09-2.75a21.26,21.26,0,0,1,.23-2.77c.28-3.6-.22-7.28-.26-11,0-.93.08-1.86.15-2.78s.07-1.8.14-2.75a26.33,26.33,0,0,0,.3-5.42,30.49,30.49,0,0,1-.1-5.57c.06-.91.21-1.88.32-2.74a8.85,8.85,0,0,0-.27-2.66c-.32-3.72-.51-7.35-.77-11l-.19-2.75a13.77,13.77,0,0,1,.16-2.8c.15-.92.38-1.81.51-2.7a11.19,11.19,0,0,0,.09-2.71A18.36,18.36,0,0,0,48,17.31a11,11,0,0,1-.87-2.63,26,26,0,0,1-.3-2.75,21.7,21.7,0,0,1,.23-5.52,19.27,19.27,0,0,0,.14-2.74c0-.91-.12-1.83-.2-2.74Z"></path>
      <path class="cls-18" d="M40.25,8.66a10,10,0,0,1,2,2.55c.47,1,.83,2,1.31,3,.23.5.47,1,.72,1.47a7.47,7.47,0,0,1,.67,1.5c.32,1.05.45,2.15.73,3.19s.88,2,1.12,3.08.4,2.14.72,3.18A64.33,64.33,0,0,1,49.27,33L48.9,33a62.21,62.21,0,0,0-1.6-6.32c-.31-1.05-.46-2.16-.69-3.21s-.79-2-1.07-3.08-.38-2.16-.68-3.2a7.52,7.52,0,0,0-.64-1.49c-.25-.49-.48-1-.71-1.48-.46-1-.81-2-1.26-3A10.17,10.17,0,0,0,40.25,8.66Z"></path>
      <path class="cls-18" d="M37.27,15.46a10.58,10.58,0,0,1,3.4.95,7.89,7.89,0,0,1,2.74,2.23,12.35,12.35,0,0,1,1,1.49c.3.52.49,1.08.78,1.59.56,1,1.55,1.78,1.92,3l-.26.07c-.31-1.1-1.26-1.9-1.84-3-.29-.52-.47-1.1-.75-1.6a10.88,10.88,0,0,0-.94-1.48,7.83,7.83,0,0,0-2.66-2.26A10.68,10.68,0,0,0,37.27,15.46Z"></path>
      <path class="cls-18" d="M35.15,24.55a19.26,19.26,0,0,1,2.09-1.14,4.65,4.65,0,0,1,2.3-.6,2.66,2.66,0,0,1,1.12.41c.36.15.74.27,1.11.41a4.62,4.62,0,0,0,1.15.24,5.27,5.27,0,0,0,1.16-.18,2.75,2.75,0,0,1,1.21,0,1.6,1.6,0,0,1,1,.74,10.15,10.15,0,0,1,.7,2.3,4.4,4.4,0,0,0,.38,1.09,9.49,9.49,0,0,1,.67,1,13.56,13.56,0,0,1,.81,2.26l-.26.08A13.61,13.61,0,0,0,47.8,29c-.16-.36-.44-.62-.65-1a4.88,4.88,0,0,1-.39-1.15,10.18,10.18,0,0,0-.64-2.26,1.84,1.84,0,0,0-2-.73,5.18,5.18,0,0,1-1.19.17,3.91,3.91,0,0,1-1.17-.27c-.38-.14-.75-.26-1.12-.42a2.61,2.61,0,0,0-1.09-.42,4.57,4.57,0,0,0-2.27.56A18.43,18.43,0,0,0,35.15,24.55Z"></path>
      <path class="cls-19" d="M34.72,16.2A17.89,17.89,0,0,1,37,18.12,12,12,0,0,1,39,21a5.53,5.53,0,0,0,2.67,2.65"></path>
      <path class="cls-20" d="M50.2,47.71a32.9,32.9,0,0,0-1.38-5.41,24.17,24.17,0,0,0-1.49-3.75,6.58,6.58,0,0,0-1.54-1.85c-.78-.7-1.23-2.22-1.88-3.2s-1.52-.71-2.61-.74a6.14,6.14,0,0,1-3.82-1.34c-1-1-1.73-2.19-2.91-2.44,2,.7,4.66,1.48,6.6,1.21s2.48-1.67,4.44-.88,3.29,2.33,3.59,5.27a5.46,5.46,0,0,1,1.34-3.92A10.77,10.77,0,0,0,52.21,25c-.07-1.75-.8-2.39-.12-3.89s2.36-2.19,2.6-4-.62-3.67,0-5.18,1.59-2.14,1.86-3.77,0-3.28,1.23-4.34"></path>
      <path class="cls-18" d="M47.87,40.14a5.46,5.46,0,0,0-1.6-1.71A10.67,10.67,0,0,0,45.19,38l-1.1-.51A8.77,8.77,0,0,0,43,37c-.22-.06-.35-.14-.53,0l-.57.21a5.15,5.15,0,0,1-2.4.32,2.69,2.69,0,0,1-1.14-.44,6,6,0,0,0-1.09-.49,12.4,12.4,0,0,0-2.35-.48,8.22,8.22,0,0,1-4.52-1.49,8.07,8.07,0,0,0,4.53,1.42,12,12,0,0,1,2.37.46,5,5,0,0,1,1.12.48,2.57,2.57,0,0,0,1.1.4,5.06,5.06,0,0,0,2.33-.34l.56-.22a.54.54,0,0,1,.34,0l.3.08a7.83,7.83,0,0,1,1.15.4l1.1.48a10.88,10.88,0,0,1,1.12.49A5.53,5.53,0,0,1,48.1,40Z"></path>
      <path class="cls-20" d="M47,94.19a18.68,18.68,0,0,1-.23-6.57c.21-1.84.29-3.51.45-5a18.29,18.29,0,0,0,.3-3.76,11.34,11.34,0,0,1-.28-3,35.07,35.07,0,0,0,.6-4.25,43.4,43.4,0,0,0,0-4.56,24.73,24.73,0,0,1,.26-7.31,17.59,17.59,0,0,0,.82-5.8,33,33,0,0,1,.19-7.22,5.62,5.62,0,0,0,0-3.56"></path>
      <path class="cls-18" d="M49,46.65a7.47,7.47,0,0,0-3.46-3.13,7.79,7.79,0,0,0-2.3-.59L42,42.77a1.85,1.85,0,0,1-.62-.19,1,1,0,0,1-.4-.51,1.92,1.92,0,0,0-.65-1,1.69,1.69,0,0,0-1-.49,2.07,2.07,0,0,0-1.1.37l-1.06.59a10.48,10.48,0,0,0-2,1.32c-.6.54-1.1,1.18-1.68,1.74.57-.57,1.06-1.22,1.65-1.77a10.43,10.43,0,0,1,2-1.37l1.05-.61a2.26,2.26,0,0,1,1.16-.41,1.86,1.86,0,0,1,1.13.5,2.15,2.15,0,0,1,.72,1,.87.87,0,0,0,.88.56l1.2.14a8.27,8.27,0,0,1,2.38.57,7.74,7.74,0,0,1,3.67,3.21Z"></path>
      <path class="cls-18" d="M42.26,42.81a4.68,4.68,0,0,0-2,.51,14.32,14.32,0,0,0-1.59,1.36,14.33,14.33,0,0,1-3.57,2.22,14.19,14.19,0,0,0,3.48-2.32,13.4,13.4,0,0,1,1.57-1.43,4.87,4.87,0,0,1,2-.61Z"></path>
      <path class="cls-19" d="M39.17,37.37a17.35,17.35,0,0,0-1.38,2c-.4.76-.46,1.9-1.1,2.42"></path>
      <path class="cls-20" d="M48.16,59.69c-.59-1.69-.82-3-1.92-4.38a25.81,25.81,0,0,1-3.15-4.84c-1-2-2.58-3.76-4.63-3"></path>
      <path class="cls-20" d="M47.77,66.26a39.07,39.07,0,0,0-2.5-6.5c-1.52-2.5-3.19-3.59-5.47-3.13"></path>
      <path class="cls-18" d="M47.06,75.92c-.17-1.4-.62-2.78-.82-4.22a9.87,9.87,0,0,1,0-2.17,4.4,4.4,0,0,0-.49-2v0a12.28,12.28,0,0,1-1.42-1.76,15.12,15.12,0,0,1-.78-2.13,9.39,9.39,0,0,0-.85-2.07c-.42-.63-.85-1.24-1.23-1.89.39.64.84,1.25,1.27,1.86a9.48,9.48,0,0,1,.9,2.07,15.88,15.88,0,0,0,.81,2.09,12.84,12.84,0,0,0,1.45,1.72h0a4.67,4.67,0,0,1,.56,2.11,10.06,10.06,0,0,0,.07,2.13c.22,1.4.71,2.77.91,4.22Z"></path>
      <path class="cls-18" d="M46.18,71.46a2.8,2.8,0,0,0-.41-.83c-.19-.23-.49-.25-.83-.4a1.39,1.39,0,0,1-.6-.82c-.12-.3-.24-.6-.39-.89A5.26,5.26,0,0,0,42.8,67,1.58,1.58,0,0,0,41,66.6a1.62,1.62,0,0,1,1.82.33,5.35,5.35,0,0,1,1.22,1.53,9,9,0,0,1,.43.88,1.23,1.23,0,0,0,.53.71c.24.1.66.13.91.41a3.19,3.19,0,0,1,.5.89Z"></path>
      <path class="cls-20" d="M47.3,82.63a44.74,44.74,0,0,0-1-4.61c-.75-2.41-3.34-7.53-5.92-8"></path>
      <path class="cls-20" d="M47,80.86c-.43-1.11-.52-2.73-1.63-3.19s-2.65-.88-3.52-2.14"></path>
      <path class="cls-20" d="M49.32,81.29a22.41,22.41,0,0,1,1.31-5.62,26.43,26.43,0,0,0,1.27-4.45c.5-1.7,1.71-4.2,3-5.19"></path>
      <path class="cls-18" d="M51.09,74.38a19.08,19.08,0,0,1-.37-5.12c.11-.85.25-1.69.36-2.54a19.6,19.6,0,0,0,.36-2.52h0a6.9,6.9,0,0,1-.16,2.56,8.72,8.72,0,0,0-.44,2.51c0,1.7.3,3.39.25,5.11Z"></path>
      <path class="cls-18" d="M49.37,66.09a18,18,0,0,0,2.48-2.62,25.67,25.67,0,0,0,1.74-3.18c.55-1.08,1.12-2.16,1.73-3.21.3-.52.62-1,1-1.54.18-.25.35-.5.55-.73a1.52,1.52,0,0,1,.7-.56,1.56,1.56,0,0,0-.68.57c-.19.24-.36.49-.53.74-.33.51-.63,1-.92,1.57-.58,1.06-1.12,2.15-1.65,3.24a25.57,25.57,0,0,1-1.67,3.25,18.25,18.25,0,0,1-2.45,2.72Z"></path>
      <path class="cls-18" d="M52.5,62.44a23.35,23.35,0,0,0,5.74-2.32,23.71,23.71,0,0,1-5.64,2.67Z"></path>
      <path class="cls-17" d="M49.85,60.21c.46-1.88.61-4,1.52-5.72a45.26,45.26,0,0,0,3-6.27A4.05,4.05,0,0,1,56,45.69a2,2,0,0,1,1-.5,6.86,6.86,0,0,1,4.68,1"></path>
      <path class="cls-17" d="M62.85,33.63c-2.2,1.23-3.33,5.95-4.14,8.12s-1.13,2.83-2.5,3.79"></path>
      <path class="cls-18" d="M53.66,49.91a14.69,14.69,0,0,0,1.28-6.4,25.84,25.84,0,0,1,.44-3.28,2.81,2.81,0,0,1,.89-1.44A3.7,3.7,0,0,0,57,37.4a6.5,6.5,0,0,1,1.77-2.82,11.24,11.24,0,0,0,1.12-1.17c.35-.4.6-.89,1-1.33A16,16,0,0,1,63.52,30c.88-.65,1.78-1.29,2.68-1.91l0,0Q65,29.18,63.65,30.2a16.94,16.94,0,0,0-2.47,2.11c-.33.4-.6.9-1,1.33a12,12,0,0,1-1.15,1.21,6.08,6.08,0,0,0-1.75,2.67A4,4,0,0,1,56.46,39a2.6,2.6,0,0,0-.85,1.31,27.55,27.55,0,0,0-.49,3.24,15,15,0,0,1-1.43,6.41Z"></path>
      <path class="cls-20" d="M50.21,46.48c.1-1.11-.18-2.46.48-3.42s1.75-2,1.93-3.5a35.6,35.6,0,0,1,.79-5.19c.42-1.36.86-1.83,1.34-3.1a40.47,40.47,0,0,0,1.29-4A15.12,15.12,0,0,1,58,23c.82-1.28,1.19-2,2.26-3.45a21.14,21.14,0,0,0,3.19-6.66"></path>
      <path class="cls-20" d="M58.9,33.31c-.12.57-.23,1.14-.32,1.72"></path>
      <path class="cls-20" d="M61.16,28.07c-.42.72-.62.94-1.14,1.69a10.68,10.68,0,0,0-1.11,3.53"></path>
      <path class="cls-20" d="M62.5,25.5a10.76,10.76,0,0,1-1.34,2.59"></path>
      <path class="cls-20" d="M65.3,20.73c-1.35.91-2.3,2.95-2.8,4.77"></path>
      <path class="cls-20" d="M60,29.7a20.52,20.52,0,0,1-.21-4.63,12.08,12.08,0,0,0-.22-4.57"></path>
      <path class="cls-20" d="M55.46,40.35a4.67,4.67,0,0,0,.12-2.75,10.78,10.78,0,0,1-.42-3.46c.13-1.23-.22-2.79,0-4"></path>
      <path class="cls-18" d="M47,14c-.2-.82-.38-1.65-.65-2.45a5.09,5.09,0,0,0-.51-1.14l-.72-1.05a21,21,0,0,1-1.28-2.2,2.5,2.5,0,0,0-.78-1,6.93,6.93,0,0,1-1-.8,6.25,6.25,0,0,0,1,.78,2.49,2.49,0,0,1,.81,1,20.92,20.92,0,0,0,1.32,2.17l.74,1a5.64,5.64,0,0,1,.54,1.17c.29.8.48,1.63.69,2.45Z"></path>
      <path class="cls-20" d="M52.05,21.09a51,51,0,0,0-1-6.73,11.92,11.92,0,0,1,1-7.12C53,5.66,53.85,5.11,54,3.53s-.25-2.9,1.38-2.42"></path>
      <path class="cls-18" d="M51.57,8.11a7.54,7.54,0,0,0-.86-4,11.1,11.1,0,0,1-1-1.88A5.47,5.47,0,0,1,49.42.13a5.28,5.28,0,0,0,.4,2.05,10.93,10.93,0,0,0,1,1.84,7.59,7.59,0,0,1,1,4.09Z"></path>
      <path class="cls-18" d="M50.72,13.16a16.28,16.28,0,0,0-.42-2.65,2.63,2.63,0,0,0-.6-1.13l-1-.93A4.67,4.67,0,0,1,47.54,6a17.55,17.55,0,0,1-.29-2.7A17,17,0,0,0,47.63,6a4.67,4.67,0,0,0,1.21,2.34l1,.89a2.92,2.92,0,0,1,.71,1.21,16.74,16.74,0,0,1,.51,2.67Z"></path>
      <path class="cls-17" d="M54.54,17.88a5.58,5.58,0,0,0,2-2.83c.51-1.39,1.66-2.57,2.11-4.18a13.34,13.34,0,0,0,.14-5.18"></path>
      <path class="cls-20" d="M61.81,11.43C60.66,12.56,59,14.65,58,15.67s-1.5.87-2.53,1.31a16.1,16.1,0,0,1,.18,3.14c0,1.5,1.28,3.88.9,5.6"></path>
      <path class="cls-18" d="M58.5,11.05a3.72,3.72,0,0,1-.94-2.41,12.08,12.08,0,0,1,0-2.55,11.81,11.81,0,0,0,.22,2.52,3.48,3.48,0,0,0,1,2.17Z"></path>
      <path class="cls-20" d="M58.69,14.93A27.25,27.25,0,0,1,56,22"></path>
      <path class="cls-20" d="M53.41,34.31a9.59,9.59,0,0,1-.61-3.52A6.43,6.43,0,0,0,52,27"></path>
      <path class="cls-18" d="M46.18,68.57c-.09-.75-.09-1.5-.11-2.25a18.64,18.64,0,0,0-.19-2.23,25.42,25.42,0,0,0-.63-4.43A25.31,25.31,0,0,1,46,64.08a18.68,18.68,0,0,1,.23,2.24c0,.74.06,1.49.16,2.22Z"></path>
      <path class="cls-18" d="M56.84,45.07a12.07,12.07,0,0,1,1.74-1.14,4,4,0,0,0,1.27-1.52c.35-.59.68-1.2,1.09-1.76a3.68,3.68,0,0,1,1.54-1.33A3.58,3.58,0,0,0,61,40.71c-.37.57-.68,1.18-1,1.79a4.24,4.24,0,0,1-1.27,1.65,12.31,12.31,0,0,0-1.64,1.18Z"></path>
      <path class="cls-21" d="M89.33,47.36a10.18,10.18,0,0,1,2.47-2.44c1.09-.62,2.62-1.11,3.45,0s-.35-1.31-.33-1.48c-.5-.35-.92-.75-1.53-.71s-2.3.05-2.31-.93.55-2.37,0-2.93a1.51,1.51,0,0,0-1.69-.3,3.3,3.3,0,0,1-.77-1.39c-.27-.71-.8-.67-1.6-.57a2.7,2.7,0,0,0-2.24,1.33c-.15.62,0,1.6-.63,1.87s-1.44,0-1.09-1.28a5.3,5.3,0,0,1,.59-1.06c.23-.34.77-1.25.32-1.72A1.88,1.88,0,0,0,82.38,35c-.65.08-2.18.1-2.56.86s-.22,1.51-.95,1.52S78,37,77.54,36.29,76.32,35.1,76,35.87a6.2,6.2,0,0,1-.85,2.07c-.41.37-.05.66-.4,2s-1.44,6-2.2,7.36-1.15,4,.31,5,5.93,1.1,7.79.49,4.84-1.11,6.06-2.44S88.4,48.39,89.33,47.36Z"></path>
      <path class="cls-21" d="M48.1,95.3A24.42,24.42,0,0,1,47,97.73c-.22.49-.07.35-.25.51s-.07,0-.29.17a2.22,2.22,0,0,1-.81.52c-.44.16-.7-.35-.19-1.32a8.91,8.91,0,0,0,.44-3.26,10.69,10.69,0,0,1,.6-3.85c.34-1,1-2.37,1.27-3.13s0-1.38.36-1.76.66-.35.29-.94a1.06,1.06,0,0,1,.18-1.43c-.14-.49,0-.24-.43-.77a4.3,4.3,0,0,1-.77-3.12.56.56,0,0,1,.73-.26,1.66,1.66,0,0,0,.93.16c.32,0,.55-.31.43-.83s-.41-1.57-.11-2.07a2.5,2.5,0,0,0,.32-1.64c-.11-.41-.41-.9-.16-1s.67.76.81,1,.24.94.52.87.13-.44.3-.74A4.82,4.82,0,0,0,52,73.47c.06-.43-.11-1,0-1.29s.48-.09.6-.41-.2-.53-.05-.93.62-.71.86-1.2a3.64,3.64,0,0,0,.48-1.7,8.15,8.15,0,0,0-.36-2c-.18-.64-.22-.9.37-1.25a3.2,3.2,0,0,0,1.81-1.79c.38-1.12,1.31-3.46,1.07-4.86a2.07,2.07,0,0,0-.05-1.31,2.11,2.11,0,0,1-.36-1.22c.1-.35.57-.14.77-.21s.31-.33.39-.61.13-.68-.16-.79-.72-.36-.71-.76.05-.64.36-.58.81.49,1.11.32a.51.51,0,0,0,.24-.8,1.53,1.53,0,0,1-.26-1.41,15.89,15.89,0,0,1,.64-1.85c.27-.45.52.33.79.54.07,0,.61.42.84.32s.3.07.28-.41A1.51,1.51,0,0,1,61.16,48a1.28,1.28,0,0,0,.69-1.12c.11-.69.84-1,1.22-.14a4.64,4.64,0,0,1,.09,1.18c0,.33.39.7.72.56a1.44,1.44,0,0,0,.7-1c.1-.53.12-1.52.21-2.13a2,2,0,0,1,.71-1.32c.34-.23.86-.6.5-.74s-.69.31-.7-.43a1.61,1.61,0,0,1,1.24-1.63.77.77,0,0,1,.71.64c0,.46.36.6.64.49a2.79,2.79,0,0,0-.07-.94c-.08-.41-.2-.82.19-1.19a3.33,3.33,0,0,1,1.54-.91c.49,0,.87.34,1.28.26s.66-.73,1.08-.48a.81.81,0,0,0,1.15-.47c.08-.43.3,1,.45,1.82s.84,1.35.29,2.8.2.06-1.27,2.59,1.3-3-2.48,4.61S51.93,83,48.1,95.3Z"></path>
      <path class="cls-22" d="M83,53.45a21.72,21.72,0,0,1,3.66-3,14.54,14.54,0,0,0,1.77-1.55A4.56,4.56,0,0,0,89.45,47,2.8,2.8,0,0,1,90,45.74c.29-.54,1.4-1.24,1.24-2.07s-.34-1.35-1-1.37-.72.22-1.34,1.08-2.14,3.4-2.87,4.38a13.88,13.88,0,0,1-2,2.32,8.66,8.66,0,0,1-2.78,1.5c-.72.18-1.49.59-1.75-.33s.75-2.22,1.28-3a13.21,13.21,0,0,1,2.35-2.22,2.3,2.3,0,0,0,.92-1.75,4.58,4.58,0,0,1-.25-1.76,11.62,11.62,0,0,1,1-2.28,2.79,2.79,0,0,0,0-2.33c-.13.44-.3,1.07-.43,1.47s-.38.8-.66.56-.84-.34-.75-1a4.83,4.83,0,0,1,1-2c.41-.41,0-1-.12-1.43-.37.45-.78.53-1.09,1.16s-.48,2.15-1,2.56-.92.31-1.47.46a2.34,2.34,0,0,1,.07-1.11,7.15,7.15,0,0,0,.21-1.41,9,9,0,0,1,.11-1.29c.34-.27.6-.35,1-.6s.94-.05,1.11-.87-.86-.81-1.66-.7c-.13,0-.95.25-1,1a5.3,5.3,0,0,1-.9,2.44.63.63,0,0,1-1,.07c-.24-.21-.2-.35-.39-.54,0,.39.13.63.15,1.06a6.23,6.23,0,0,1-.1,1.61,6.5,6.5,0,0,0-.28,1.18,9,9,0,0,0,0,1.27c0,.39,0,.93,0,1.22a1.6,1.6,0,0,1,0,.43c0,.19,0-.12,0,.18a4.94,4.94,0,0,1-.29,1.12,4,4,0,0,1-1.42,1.88,12.87,12.87,0,0,1-2.59,1.24c.1-.24.12-.36.25-.64a10.33,10.33,0,0,1,.55-1,4.67,4.67,0,0,1,.67-.83A1.57,1.57,0,0,1,75.4,45a3,3,0,0,0,.71-.12,2.18,2.18,0,0,0,.85-.59c.2-.29.19-.06.38-.56a2.86,2.86,0,0,0,0-2.19A13.64,13.64,0,0,0,76,39.75a3.35,3.35,0,0,1-.79-.92,1.15,1.15,0,0,1-.09-.91c.08-.29-.42-.5-.61-.64s-.91-.64-1.14-.3a2.52,2.52,0,0,0-.29,1.32,3.09,3.09,0,0,0,.14,1.05A10.48,10.48,0,0,1,73.94,42a4.46,4.46,0,0,1-.5,2.26C73,45,72.07,46.31,71.68,47s-.41,1-.69,1.53-.68-.3-1-.57-.92-.11-1.45,0-1.2-.32-1.83-.3a1.89,1.89,0,0,0-1.57.84c-.1.11-.41.18-.67.43s1.07,1,1.45,1.53c-.58-.07-.14-.1-1-.2a3.19,3.19,0,0,0-3,1.31c-.93,1.2-.93,2-1.37,3.68a13.73,13.73,0,0,0-.39,5c.1,2.58,1.36,9.89-.19,12.68s-4.55,4.42-6,7.4a19.75,19.75,0,0,0-3.25,5.4,62,62,0,0,0-3,8.65c-.33,1.75-1,3.37-.38,2.62a16.56,16.56,0,0,0,2-3.57c.75-1.76,2.43-6,3.53-8s2.38-4.46,3.51-6,2.12-2.94,3.09-4.19a14.51,14.51,0,0,1,2.56-2.66c1-.84,1.74-1.34,2.81-2.34s1.47-1.29,2.92-2.71,4.64-4.78,6.26-6.37,2.92-2.73,4.39-4.07S81.62,54.71,83,53.45Z"></path>
      <path class="cls-23" d="M88.5,36.5a3.29,3.29,0,0,1,2.14,1,6.84,6.84,0,0,0,2.9,1.17,6.29,6.29,0,0,1,3.17,2.39c.68,1.12,1.81,3.62,1.46,4.94s-1.61.7-2.06.24a2.17,2.17,0,0,1-.8-1.74c-.11-.4,0-.84-.43-1.12a3.72,3.72,0,0,0-1.48-.72,10.14,10.14,0,0,1-1.78-.08c-.4-.16-.49-.47-.54-.93a12.3,12.3,0,0,1,.2-1.77c0-.49.12-.87-.2-1.11s-.74-.52-1.07-.42-.56.2-.84,0a2.7,2.7,0,0,1-.52-1.11A3.39,3.39,0,0,1,88.5,36.5Z"></path>
      <path class="cls-24" d="M97.23,47.17a27,27,0,0,1-2.58,1.55,10.68,10.68,0,0,0-1.66.77,6.18,6.18,0,0,1-1.65.93c-1.15.48-5.35,1.68-6.48,2.08s-.83.33-1.49.59-1.2.55-1.74.78a10.9,10.9,0,0,1-1.85.88c-.3,0,.4-.56.73-.94a7.53,7.53,0,0,1,2.36-1.67c.74-.21,1.58-.48,2.32-.67.07,0,0-.06.12-.12l.33-.21.51-.34c.15-.11.21-.14.39-.28s.44-.32.67-.51.62-.52.84-.74.47-.49.65-.7.3-.46.42-.65a4.44,4.44,0,0,0,.19-.49s0,0,.08,0c.21-.24.26-.38.52-.66s.84-.92,1.1-1.17a4.23,4.23,0,0,1,.56-.47,4.45,4.45,0,0,1,.68-.45,6.1,6.1,0,0,1,.85-.35,3.49,3.49,0,0,1,.68-.1,3.17,3.17,0,0,1,.63,0,.92.92,0,0,1,.41.19c.14.09.21.27.32.41s.17.35.28.49.2.24.3.39.22.39.34.54.28.26.4.4a1.05,1.05,0,0,0,.46.27c.13.05.51-.06.53,0S97.65,46.91,97.23,47.17Z"></path>
      <path class="cls-24" d="M82.26,52.36a9,9,0,0,1-2.21-.62c-.1-.05-.29,0-.42-.19a.87.87,0,0,1-.18-.64c0-.23,0-.3-.17-.33-.27.41-.37.75-.81,1a17.68,17.68,0,0,0-1.59.93c-.45.34-.84.69-1.26,1.07s-1.29,1.35-1.56,1.63-.47.47-.55.26,0-.55,0-.86,0-.67-.3-.87-.52-.73-.75-1.16a17.92,17.92,0,0,1-.88-1.75c-.13-.35-1,2.68-1.36,3a5.4,5.4,0,0,0-.38.79A10.67,10.67,0,0,0,69.37,56a9,9,0,0,0-.2,1.27c0,.33,0,.39,0,.69-.12-.18-.11-.07-.22-.35s-.23-.68-.39-1.11S68,55,67.79,54.62a3,3,0,0,0-.28-.57s0,0-.08.14-.2.49-.28.68l-.31.68c-.09.19-.16.35-.25.53s-.2.32-.29.51a6.09,6.09,0,0,0-.25.57c-.09.22-.19.47-.28.72s-.16.45-.26.75l-.37,1.09a3.37,3.37,0,0,0-.24,1A4.68,4.68,0,0,1,64.78,62a6.18,6.18,0,0,1-.51,1.17,4.81,4.81,0,0,1-.75,1c-.26.21-.76.94-.9.93s.05-.75-.17-1-.29-.77-.58-1.17-.65-1.1-1-1.54-.3-.93-.7-1.42-1.67.58-1.81,1.54a20.58,20.58,0,0,0,.56,4.62,12.91,12.91,0,0,1-.83-2.3c-.14-.57-.56-2-.76-2.66s-.38-2.12-.5-2.64-.21-.07-.42,0-.69.54-1,.65-.32.18-.68.33-.53.54,0,.52.91-.12,1.11.38.33.92,0,1.3a2,2,0,0,1-1.18.74,1.94,1.94,0,0,1-1.09-.1c-.55-.15-.51.17-.1.52s1.17.72,1.11,1.19-.37.81-.74.63-1.07-.66-.81.11.39,1.06.89,1.27,1.35.24,1.7.67A1.37,1.37,0,0,1,56,68c-.09.39-.28,1.12-.56,1.08s-.77-.71-.84,0a6.35,6.35,0,0,1-.21,2c-.28.65-.48,1.89-.7,2.45s-.14.56-.65.48a.61.61,0,0,0-.56,1c.3.48.53.88.2.9s-.3-.19-.66-.14-.53.49-.39,1.08.5,1.78-.41,1.36-1-.35-.63.91.67,1.56-.29,2c-.36-.24-.76-.33-1,.18s.31.67.07,1.15-.94,1.06,0,1.59a1.67,1.67,0,0,1,.2,1.68,25.14,25.14,0,0,0-1.9,4.58c-.11.44-.18.07-.09,1.18a10.41,10.41,0,0,1-1.34,5.19c.22-.14,1.15-1.3,1.14-.31.51-2.07-.2-1.08.82-3.74s1.92-6.72,4.4-10.3A75.31,75.31,0,0,1,63.78,69.8a23.39,23.39,0,0,0,3-3,49.32,49.32,0,0,1,5.78-5.46c2.06-1.64,4.7-5.13,7.09-6.55a15.57,15.57,0,0,1,1.4-1.62C81.53,52.82,81.84,52.69,82.26,52.36Z"></path>
      <path class="cls-24" d="M89.41,42.55c-.72,1.19-1.24,1.83-2,3.15a21.72,21.72,0,0,1-3.87,4.82c-1,.62-4,2.13-4,.62A6.49,6.49,0,0,1,82,47c1.2-1,4.63-2.88,5.6-3.57a8.18,8.18,0,0,1,1-.66C89.1,42.45,89,42.68,89.41,42.55Z"></path>
      <path class="cls-25" d="M49.17,93.88a63.89,63.89,0,0,0,2.72-6.07,40.69,40.69,0,0,1,4.69-8.51c2-2.73,3.55-5.2,6.52-7.59a121.89,121.89,0,0,0,10-9.61c3-3.14,7.6-7.37,10.7-9.07s6.2-1.62,8.4-3,5-1.75,5.81-3.9-.92-4.43-1.89-5.68a6.14,6.14,0,0,0-3.58-2c-1.36-.37-2.83-1.75-4.2-1.9s-2.82-.14-3.55,1.42-.51,2.89-1.92,1.11a4.7,4.7,0,0,1,1-2c.57-.91-.37-2-1.1-2.17s-.06-.34,0-.57.05-.57-.51-.56-2-.28-2.24,1S79,38.45,78,36.92s-1.69-1.86-2.23-.43-.36,1.53-1.05,1-1.39-1.11-1.6.27S72.67,38.9,71.75,39c-.32,0-.3.25-.7.41s-1.53-.25-2.08,0-1.34.92-1.26,1.43.51,1.66-.09,1.35-.8-1.4-1.58-.82-1,1.7-.32,1.82.57.29,0,.62a2.14,2.14,0,0,0-1,2.1c0,1.13-.49,3.44-1.64,2.09.11-.78,0-1.82-.75-1.74s-.53,1.19-1.06,1.59a1.34,1.34,0,0,0-.65,1.25c-.06.64.23.66-.39.6s-.85-.32-1.11-.92-.52.29-.67.76-.8,1.66-.35,2.23.38,1.24-.23,1.13-1.38-.81-1.24.46c0,.19.11.37.45.51s.72.32.28,1.09-.38-.12-.87.34.19.84.23,1.9-.47,1.7-1.9,2.31,0,.43.69.64.66,1.11.31,1.6a1.85,1.85,0,0,1-1.82.76c-.65-.21-1.5-.39-.53.39s1.64,1.42.36,1.84c-.14,0-.19.1-.48-.23s-.64-.39-.25.55a6.44,6.44,0,0,1,.7,3.06,4,4,0,0,1-1,2.25c-.46.49-.34.4-.26,1s-.25.32-.53.61-.08.72-.08,1.19-.68,1.19-.83,1.59-.24,1-.47.55-1.2-2.28-1.14-1.44.37,1.15.11,1.85a2.85,2.85,0,0,0-.38,2c.19.88.32,1.75-.61,1.52s-1.34-.22-1.33,1a3.09,3.09,0,0,0,.8,2.22c.43.58.57.54.26,1.1s-.27.8.08,1.2.22.34-.18.73,0,.22-.39,1.39-1.66,4-1.85,5.63-.09,3.68-.57,4.87-.52,1.42.23,1.42.53-.42,1-.6.63-1.26,1-1.82A12.57,12.57,0,0,0,49.17,93.88Z"></path>
      <path class="cls-18" d="M59.93,73.23l2.79-2.7A33.88,33.88,0,0,0,65.62,68,42.43,42.43,0,0,1,71,62.33,66.92,66.92,0,0,0,76.56,57a13.66,13.66,0,0,1,3.13-2.37,28.81,28.81,0,0,1,3.58-1.54l0,0C82.17,53.79,81,54.3,79.91,55A14.8,14.8,0,0,0,77,57.44a43.94,43.94,0,0,1-5.71,5.27,41.36,41.36,0,0,0-5.43,5.48,33.44,33.44,0,0,1-3,2.48L60,73.27Z"></path>
      <path class="cls-18" d="M95.69,48.1a12.65,12.65,0,0,1-4.32,1.59c-.39.06-.78.06-1.15.11a6.07,6.07,0,0,0-1.12.26c-.74.23-1.44.54-2.15.84-1.4.68-3,.85-4.38,1.46s-2.29,2-3.44,3L79,55.18c1.15-1,2-2.38,3.54-3s3-.76,4.4-1.41c.71-.29,1.42-.6,2.16-.83a6.24,6.24,0,0,1,1.14-.24c.38,0,.77,0,1.15-.09A13,13,0,0,0,95.69,48.1Z"></path>
      <path class="cls-18" d="M47.38,96.66a23.76,23.76,0,0,1,1.77-7.26,45.58,45.58,0,0,1,3.08-6.84c.66-1.09,1.49-2,2.05-3.12a2.88,2.88,0,0,0,.33-.83,2.67,2.67,0,0,1,.19-.94c.24-.59.54-1.13.76-1.71a3,3,0,0,0,.28-1.74,12.06,12.06,0,0,0-.65-1.72,13.34,13.34,0,0,1-.68-1.76,6.87,6.87,0,0,1-.12-1.9h.31a6.49,6.49,0,0,0,.09,1.83,17.48,17.48,0,0,0,.66,1.73,12.92,12.92,0,0,1,.67,1.77,3.41,3.41,0,0,1-.3,1.9c-.24.59-.54,1.14-.77,1.71a2.1,2.1,0,0,0-.18.88,3,3,0,0,1-.37.91c-.57,1.12-1.43,2.08-2.07,3.12a45.18,45.18,0,0,0-3.09,6.79A32.19,32.19,0,0,0,47.38,96.66Z"></path>
      <path class="cls-18" d="M53.86,72.73a4.61,4.61,0,0,1,.29-1.42,3,3,0,0,0,.28-.65c0-.23.06-.47.12-.71a3.59,3.59,0,0,1,0,.73,1.74,1.74,0,0,1-.25.68A10.36,10.36,0,0,0,53.86,72.73Z"></path>
      <path class="cls-18" d="M47.42,95.92a.87.87,0,0,0-.65.23,2.68,2.68,0,0,0-.48.53l0,0,0-.06a19.31,19.31,0,0,0,1.25-3.56,10.8,10.8,0,0,0,0-1.89,7.44,7.44,0,0,1,.4-1.86c.4-1.2,1-2.32,1.47-3.49a5.44,5.44,0,0,0,.25-.9.64.64,0,0,0-.28-.75,1.4,1.4,0,0,1-.6-.78,1.24,1.24,0,0,1,.41-.88.44.44,0,0,0,.1-.39,3.8,3.8,0,0,1-.1-.47,1.61,1.61,0,0,1,.06-.49.52.52,0,0,1,.34-.41c.42-.06.64.34.88.16a.86.86,0,0,0,.33-.74,2.28,2.28,0,0,0-.26-.87,4.67,4.67,0,0,1-.28-.92.83.83,0,0,1,0-.53.29.29,0,0,1,.3-.12.82.82,0,0,1,.25.08,3.29,3.29,0,0,0,.42.21c.13.06.28.08.33,0a1.42,1.42,0,0,0,0-.84,4.93,4.93,0,0,1-.15-1,.73.73,0,0,1,.17-.51.67.67,0,0,1,.53-.14c.17,0,.34.08.46.08s0,0,0,0a.4.4,0,0,0-.07-.19,3.47,3.47,0,0,1-.37-.9.67.67,0,0,1,.12-.54.61.61,0,0,1,.53-.16c.74.26.78-.63,1-1.18a4.4,4.4,0,0,1-.16.94.64.64,0,0,1-.34.4,1.25,1.25,0,0,1-.5,0c-.16,0-.28,0-.34.11a.41.41,0,0,0-.09.36,4,4,0,0,0,.35.84.67.67,0,0,1,.09.26.21.21,0,0,1-.08.2.33.33,0,0,1-.18,0c-.19,0-.32-.07-.47-.08-.31-.06-.49.13-.48.44a5.13,5.13,0,0,0,.14.92,1.39,1.39,0,0,1,0,1,.49.49,0,0,1-.55,0,2.87,2.87,0,0,1-.43-.22c-.13-.07-.28-.1-.31,0a.75.75,0,0,0,0,.4,4.76,4.76,0,0,0,.26.89,2.3,2.3,0,0,1,.28.93,1,1,0,0,1-.43.89.5.5,0,0,1-.53,0,.62.62,0,0,0-.39-.11c-.22.06-.28.47-.28.73a2,2,0,0,0,.1.45.62.62,0,0,1-.14.51,1.14,1.14,0,0,0-.38.77,1.26,1.26,0,0,0,.54.68.85.85,0,0,1,.32.4,1,1,0,0,1,0,.5,4.86,4.86,0,0,1-.27.92c-.47,1.18-1.08,2.29-1.48,3.48a7.69,7.69,0,0,0-.41,1.83,12,12,0,0,1,0,1.89,20.14,20.14,0,0,1-1.31,3.55h0a3.43,3.43,0,0,1,.49-.52A.86.86,0,0,1,47.42,95.92Z"></path>
      <path class="cls-18" d="M54.46,79.13a4.37,4.37,0,0,1,1.35-1.6,4.26,4.26,0,0,0-1.14,1.7Z"></path>
      <path class="cls-18" d="M57.85,75.36a9,9,0,0,0,1.34-4.26,16,16,0,0,0-.32-4.47,35.14,35.14,0,0,0-1.39-4.29,12.33,12.33,0,0,1-.82-4.46H57a12,12,0,0,0,.73,4.39A35.5,35.5,0,0,1,59,66.6a15.86,15.86,0,0,1,.25,4.51A9.18,9.18,0,0,1,57.85,75.36Z"></path>
      <path class="cls-18" d="M60.88,72.36c.14-1.2.18-2.41.4-3.61A7.6,7.6,0,0,1,61.81,67a5.46,5.46,0,0,0,.62-1.69c.19-1.22-.57-2.3-1.21-3.3a7.8,7.8,0,0,1-.85-1.62,4.67,4.67,0,0,1-.21-1.82c.1-1.22.28-2.4.41-3.61a15.52,15.52,0,0,1,.37-1.8,3,3,0,0,1,.34-.87,6.76,6.76,0,0,1,.55-.74,4.17,4.17,0,0,1,1.44-1.16,2.71,2.71,0,0,1,1.86-.17c.31.08.69.24.45.13a4.39,4.39,0,0,0-.59-.64,9.71,9.71,0,0,0-1.37-1.1l.11-.29a9.17,9.17,0,0,1,1.46,1.18,4.74,4.74,0,0,1,.63.7c0,.08.15.13,0,.38s-.26,0-.35,0l-.44-.14A3,3,0,0,0,62,51.71,5.82,5.82,0,0,0,60.76,55c-.14,1.2-.33,2.41-.45,3.6a4.6,4.6,0,0,0,.19,1.77,7.34,7.34,0,0,0,.82,1.6c.62,1,1.39,2.11,1.19,3.38a5.73,5.73,0,0,1-.64,1.7,6.9,6.9,0,0,0-.55,1.72C61.08,70,61,71.16,60.88,72.36Z"></path>
      <path class="cls-18" d="M58.15,50.53a1.8,1.8,0,0,0,.63,1.3A7.18,7.18,0,0,1,59.71,53a4.62,4.62,0,0,1,.58,1.4,3.12,3.12,0,0,1,.26,1.48h0a3.82,3.82,0,0,0-.39-1.42,5.38,5.38,0,0,0-.55-1.38,6.52,6.52,0,0,0-.87-1.21,1.82,1.82,0,0,1-.59-1.36Z"></path>
      <path class="cls-18" d="M54.53,68.87a.51.51,0,0,1,.36-.17.81.81,0,0,1,.33.21c.18.26.35,0,.45-.24a1.65,1.65,0,0,0,.17-1.37,1.48,1.48,0,0,0-1.1-.79,2.23,2.23,0,0,1-1.33-.78l0,0a3,3,0,0,0,1.39.5,2.46,2.46,0,0,1,.75.32,1.54,1.54,0,0,1,.49.67,1.19,1.19,0,0,1,0,.81,3.16,3.16,0,0,1-.29.74,1.08,1.08,0,0,1-.26.31.26.26,0,0,1-.23.06.79.79,0,0,1-.16-.14.8.8,0,0,0-.28-.22.5.5,0,0,0-.33.13Z"></path>
      <path class="cls-18" d="M65.74,67.94a6.32,6.32,0,0,1,.32-4c.65-1.23,1.7-2.09,2.41-3.2a3.75,3.75,0,0,0,.7-1.78,13.26,13.26,0,0,1,0-2,12.54,12.54,0,0,1,1.26-3.79,6.07,6.07,0,0,0,.42-1.92,13.41,13.41,0,0,1,0-2,9.51,9.51,0,0,1,1.65-3.63,7.21,7.21,0,0,0,1.06-1.68A4.59,4.59,0,0,0,73.88,42a6.56,6.56,0,0,0-.43-1.94,4.82,4.82,0,0,1-.36-2,4.68,4.68,0,0,0,.38,2A6.77,6.77,0,0,1,73.92,42a4.59,4.59,0,0,1-.32,2,7.29,7.29,0,0,1-1,1.7,9.42,9.42,0,0,0-1.6,3.6,14.51,14.51,0,0,0,0,2,6.28,6.28,0,0,1-.4,2A12.36,12.36,0,0,0,69.31,57a14.94,14.94,0,0,0,.07,2,4,4,0,0,1-.72,1.89c-.72,1.15-1.77,2-2.36,3.2A6,6,0,0,0,66,67.88Z"></path>
      <path class="cls-18" d="M60.6,60.88a7.71,7.71,0,0,1,.43-3,6.64,6.64,0,0,1,1.58-2.55l.55-.52c.18-.17.4-.34.4-.56,0-.46-.22-1-.27-1.46a3,3,0,0,1,.16-1.53,2.93,2.93,0,0,1,.94-1.23l.14.18a2.67,2.67,0,0,0-1.07,2.56c0,.49.22,1,.24,1.49,0,.31-.28.48-.45.64l-.56.51a6.51,6.51,0,0,0-1.6,2.49A7.63,7.63,0,0,0,60.6,60.88Z"></path>
      <path class="cls-18" d="M62.62,65.13a8.15,8.15,0,0,0,1.74-2.23,4.68,4.68,0,0,0,.36-2.76c-.22-1.87-1.06-3.65-1.17-5.57.24,1.89,1,3.65,1.32,5.55a4.8,4.8,0,0,1-.42,2.82A7,7,0,0,1,62.62,65.13Z"></path>
      <path class="cls-26" d="M69.26,58.57c-.45-1.62-1.42-4.6-2.43-5.49s-1-1.42-1.44-2.65"></path>
      <path class="cls-18" d="M64.88,60.54c.32-.93.57-1.87.9-2.79S66.68,56,67,55.1a16.49,16.49,0,0,1,1.2-2.68,5.6,5.6,0,0,0,.38-.61.82.82,0,0,0,0-.67,6,6,0,0,0-.81-1.2l-.06-.08.1,0A3,3,0,0,0,69,49.27a2.54,2.54,0,0,0,.88-1,.57.57,0,0,0-.13-.57,5.44,5.44,0,0,0-.39-.55,2,2,0,0,0-.48-.44c-.18-.12-.36-.06-.6,0a2.1,2.1,0,0,1-.71,0c-.11,0-.31-.09-.32-.28a.67.67,0,0,1,.13-.38,4.5,4.5,0,0,1,.46-.49s0,0,0,0a.32.32,0,0,0-.13-.05,3,3,0,0,0-.32-.06,3.38,3.38,0,0,1-1.35-.4.94.94,0,0,1-.39-.64,1.74,1.74,0,0,1,.09-.72l.22.08a.91.91,0,0,0,.21,1.11,3.15,3.15,0,0,0,1.25.37l.35.07a.83.83,0,0,1,.18.07c.09,0,.14.22.06.28-.17.22-.35.31-.46.5-.37.46.31.42.71.34l.34-.06a.73.73,0,0,1,.37.11,1.84,1.84,0,0,1,.52.48,4.49,4.49,0,0,1,.4.57.73.73,0,0,1,.14.7,2.64,2.64,0,0,1-.94,1,3.18,3.18,0,0,1-1.26.59l0-.09a6.54,6.54,0,0,1,.81,1.23.91.91,0,0,1,0,.74,4,4,0,0,1-.4.63,15.5,15.5,0,0,0-1.21,2.65c-.35.92-.95,1.71-1.26,2.64S65.2,59.62,64.88,60.54Z"></path>
      <path class="cls-26" d="M69.87,47.78a5,5,0,0,1-3.14-.11c-.21-.15-.38-.11-.73.08s-1.1,1.21-1.65,1"></path>
      <path class="cls-27" d="M69.34,47.23a2.64,2.64,0,0,1,.07-2.2,3.35,3.35,0,0,0,.46-2.64c-.32-.87-1.4-2.2-1-3"></path>
      <path class="cls-26" d="M66.77,53a5.76,5.76,0,0,0-2.91,3.64"></path>
      <path class="cls-18" d="M71,48.59c-.07-.42-.08-.85-.16-1.26s-.27-.77-.39-1.2a5.88,5.88,0,0,1,.19-2.54,5.34,5.34,0,0,1,.46-1.22c.22-.36.44-.71.64-1.08a7.17,7.17,0,0,0,.55-1.11A1.37,1.37,0,0,0,72.36,39l0,0a1.37,1.37,0,0,1,.12,1.26A6.92,6.92,0,0,1,72,41.44c-.2.38-.43.74-.66,1.09a5.73,5.73,0,0,0-.48,1.13,5.8,5.8,0,0,0-.27,2.44c.08.39.28.8.33,1.22s0,.84.1,1.26Z"></path>
      <path class="cls-18" d="M75.12,37.88a2.53,2.53,0,0,0,.07.87,3.63,3.63,0,0,0,.55.69,12.58,12.58,0,0,1,1.17,1.35,3.56,3.56,0,0,1,.69,1.65,2.6,2.6,0,0,1-.47,1.73,2.1,2.1,0,0,1-1.54.93,2.1,2.1,0,0,0-1.34,1,6,6,0,0,0-.82,1.54,4.72,4.72,0,0,1-.31.86,5.75,5.75,0,0,1-.54.73,2.41,2.41,0,0,0-.43,1.6,3.39,3.39,0,0,0,.51,1.62A16.21,16.21,0,0,1,73.45,54a4.07,4.07,0,0,1,.11,1.83,16.86,16.86,0,0,1-1,3.46A14.7,14.7,0,0,1,71,62.52l0,0a17.14,17.14,0,0,0,1.45-3.24,16.28,16.28,0,0,0,.84-3.42,4,4,0,0,0-.09-1.69c-.21-.54-.51-1.06-.78-1.59a3.25,3.25,0,0,1,0-3.51,5.61,5.61,0,0,0,.53-.7,5.47,5.47,0,0,0,.3-.81A6,6,0,0,1,74.09,46a2.24,2.24,0,0,1,1.48-1A1.93,1.93,0,0,0,77,44.08a2.45,2.45,0,0,0,.48-1.63,3.46,3.46,0,0,0-.64-1.61,14.92,14.92,0,0,0-1.14-1.36,3.46,3.46,0,0,1-.55-.71,2.24,2.24,0,0,1-.06-.89Z"></path>
      <path class="cls-18" d="M73.24,47.88a9.18,9.18,0,0,0,3-1.64,4.5,4.5,0,0,0,1.29-3,13.82,13.82,0,0,1,.13-3.45,4.86,4.86,0,0,0,0-3.32h0a4.64,4.64,0,0,1,.21,3.4,16.47,16.47,0,0,0-.17,3.39,4.66,4.66,0,0,1-1.39,3.11,9.1,9.1,0,0,1-3,1.58Z"></path>
      <path class="cls-18" d="M85.08,51.46a12.09,12.09,0,0,0,2.45-1.74,5.53,5.53,0,0,0,1.73-2.41,9.46,9.46,0,0,1,.59-1.4,10.91,10.91,0,0,1,1-1.15,1.56,1.56,0,0,0,.28-1.38c-.1-.46-.34-1-.83-1a1.14,1.14,0,0,0-.64.24,6.69,6.69,0,0,0-.48.56,11.26,11.26,0,0,0-.84,1.24c-.49.89-1.12,1.68-1.64,2.54a15.22,15.22,0,0,1-1.75,2.48,7.82,7.82,0,0,1-2.46,1.8,4.76,4.76,0,0,1-1.48.43,1.62,1.62,0,0,1-.81-.09,1,1,0,0,1-.36-.25c-.06-.13-.17-.26-.16-.41A2.66,2.66,0,0,1,80,49.38a9.69,9.69,0,0,1,.79-1.31,5.27,5.27,0,0,1,1-1.18L83,46c.85-.55,1.72-1.06,2.58-1.59l1.32-.75c.42-.25.81-.56,1.24-.84a2.26,2.26,0,0,1,.71-.36,1.39,1.39,0,0,1,.41,0l.12,0,0,0h0c.05-.12,0,.29-.06.22l-.08,0-.18,0A3.39,3.39,0,0,1,87.72,42a1.46,1.46,0,0,1-.37-1.48,11.58,11.58,0,0,1,.48-1.44,2.79,2.79,0,0,0,.23-1.44,1.7,1.7,0,0,0-1-1v0a1.73,1.73,0,0,1,1.07,1A2.77,2.77,0,0,1,88,39.14a12.54,12.54,0,0,0-.44,1.44,1.24,1.24,0,0,0,.33,1.29,3.15,3.15,0,0,0,1.35.52l.18,0s.06,0,0,0-.11.32-.06.2,0,0,0,0h-.08a1,1,0,0,0-.34,0,2,2,0,0,0-.62.33c-.41.29-.8.61-1.24.88l-1.3.77c-.85.52-1.72,1-2.56,1.58l-1.2.9a4.9,4.9,0,0,0-.94,1.12,9.1,9.1,0,0,0-.78,1.26,2.45,2.45,0,0,0-.36,1.35c0,.47.58.58,1,.54A4.7,4.7,0,0,0,82.36,51a7.59,7.59,0,0,0,2.4-1.73,15.56,15.56,0,0,0,1.74-2.43c.53-.87,1.16-1.65,1.66-2.53A9.57,9.57,0,0,1,89,43.07a6.69,6.69,0,0,1,.5-.58,1.23,1.23,0,0,1,.75-.27.84.84,0,0,1,.68.41,2.14,2.14,0,0,1,.29.72,1.7,1.7,0,0,1-.32,1.48,12.88,12.88,0,0,0-1,1.14,9,9,0,0,0-.59,1.38,5.69,5.69,0,0,1-1.78,2.42,12.61,12.61,0,0,1-2.48,1.72Z"></path>
      <path class="cls-18" d="M98.23,46.1a1.6,1.6,0,0,1-1.21.75A2.08,2.08,0,0,1,95.84,46L95,44.86a1.78,1.78,0,0,0-.48-.47,1,1,0,0,0-.64-.07,4.61,4.61,0,0,0-2.5,1.17,15.5,15.5,0,0,0-2,2l0,0a9.44,9.44,0,0,1,1.85-2.24,6.4,6.4,0,0,1,1.22-.83,4.34,4.34,0,0,1,1.45-.35,1.24,1.24,0,0,1,.77.11,2.29,2.29,0,0,1,.53.55L96,45.91a2,2,0,0,0,1.07.85,1.57,1.57,0,0,0,1.18-.68Z"></path>
      <path class="cls-27" d="M95.41,45.29a2.48,2.48,0,0,0-2-2.56c-1-.15-2.33.45-2.35-1.2s.83-2.79-.89-3.1c-.19,0-.54.12-.82.12s-.5-.32-.6-.78-.24-1.14-.7-1.28"></path>
      <path class="cls-25" d="M85.59,44.57A5,5,0,0,0,86,42c-.16-.78-.45-.5.12-1.49s1.51-2.77-.09-3.8"></path>
      <path class="cls-25" d="M83.22,46a2.63,2.63,0,0,0,.7-2.71c-.38-1.25.93-2.73,1-3.72s-.12-.91-.19-1.72"></path>
      <path class="cls-25" d="M73.44,55.88a37.73,37.73,0,0,1,3-3.05c1-.77,3.22-1.35,2.8-3.11s.27-3.84,1.22-4.48,2.21-2.67,1.38-3.07a2.15,2.15,0,0,1-1.45-1.6,5.37,5.37,0,0,1,.09-2.77c.2-.79-.2-1.21.2-1.89s1.4-.82,2-1"></path>
      <path class="cls-25" d="M83.83,35.55a4.21,4.21,0,0,0-1.21,1.33c-.44.83-.33,1.72-1,2.45a1.73,1.73,0,0,1-1.4.37"></path>
      <path class="cls-18" d="M73.73,80.34A7.42,7.42,0,0,0,70.63,78a11.35,11.35,0,0,0-3.8-.94,11,11,0,0,0-7.35,2.23A14.72,14.72,0,0,0,56.68,82a3.19,3.19,0,0,1-.61.81,3.72,3.72,0,0,1-.9.48,13.68,13.68,0,0,0-1.79.79,18.65,18.65,0,0,0-3.23,2.21,7.14,7.14,0,0,0-2.28,3.12h0A6.81,6.81,0,0,1,50,86.12a15.36,15.36,0,0,1,3.24-2.3A12.73,12.73,0,0,1,55.07,83a3.91,3.91,0,0,0,.84-.43,3,3,0,0,0,.58-.75,15.57,15.57,0,0,1,2.87-2.75,11.1,11.1,0,0,1,11.3-1.19,7.52,7.52,0,0,1,3.09,2.4Z"></path>
      <path class="cls-24" d="M47.76,96.26c.46-1.61.13-2.18.73-4S49.65,88,51.75,86.3a6.35,6.35,0,0,1,4-2c1.09,0,2.5,3,4.07,4.87,2,2.38,8.33,5.34,11.68,2.2,1.25-1.16,1.12-2.55.68-3.95-.63-2-.3-1.22.91-3,.64-1,1.5-2.3.3-4-1.76-2.51-6.58-3.77-9.34-3.23-3.56.69-5.87,2.79-7.77,4.89s-3.59,2-5.52,3.74c-1.48,1.35-3.42,3.22-3.64,5.39A23.36,23.36,0,0,0,42,82.44a10.06,10.06,0,0,0-2.5-5.86,8.34,8.34,0,0,0-7-2.52,8.14,8.14,0,0,0-6.66,4.44c-.7,1.7,1.65,2.64,1.27,3.51-.66,1.52-1.76,1.73-1.65,3.3.18,2.64,2.05,3.84,4.39,4.33s6.55-1.75,7.82-2.52A13.34,13.34,0,0,0,41.44,84c3,2.95,4.52,8.31,5,11.88S47.31,97.86,47.76,96.26Z"></path>
      <path class="cls-18" d="M47.23,91.18A26.66,26.66,0,0,0,45,86.58a23.68,23.68,0,0,0-3.14-4l0,0v0A13,13,0,0,0,39,76.82a7.7,7.7,0,0,0-5.69-2.39,11.69,11.69,0,0,0-3.17.41,7.12,7.12,0,0,0-2.72,1.61,5.09,5.09,0,0,0-1.63,2.67,1.86,1.86,0,0,0,.49,1.45A4.45,4.45,0,0,1,27.13,82h0a4.72,4.72,0,0,0-.91-1.35,1.87,1.87,0,0,1-.55-1.5,5,5,0,0,1,1.61-2.8A7.38,7.38,0,0,1,30,74.61a11.8,11.8,0,0,1,3.24-.46,8.4,8.4,0,0,1,3.21.61,7.81,7.81,0,0,1,2.67,1.88A13.24,13.24,0,0,1,42,82.47h0a21.5,21.5,0,0,1,3.12,4.06,26.4,26.4,0,0,1,2.13,4.65Z"></path>
      <path class="cls-18" d="M26.47,82.75a21.33,21.33,0,0,1-.77,2A2.67,2.67,0,0,0,26,86.66a4.92,4.92,0,0,0,3,2.48,8.18,8.18,0,0,0,4-.33,18.53,18.53,0,0,0,2-.64c.68-.22,1.35-.47,2-.74l0,0a23.87,23.87,0,0,1-4,1.68,15.36,15.36,0,0,1-2.11.49,4.92,4.92,0,0,1-2.16-.08,5.12,5.12,0,0,1-3.18-2.77,2.87,2.87,0,0,1-.24-2.11,19.27,19.27,0,0,0,.93-2Z"></path>
      <path class="cls-28" d="M40.5,81.73l-.69-.92-4.32-.62s-.33-.8-.36-.92-.43-1.62-.5-1.73-.12-.31-.37-.25a4.37,4.37,0,0,0-1.27.56l-.49.4a3.71,3.71,0,0,0-.39-1.36,12.27,12.27,0,0,0-1.35-1.19.66.66,0,0,1-.11-.51,1.89,1.89,0,0,0,0-1c-.12-.19-.31-.5-.65-.45A3.53,3.53,0,0,1,29,73.55c-.36-.06-.56-.14-.87.09a5.88,5.88,0,0,0-.73.67c-.12.13,0,.5-.3.15a2.56,2.56,0,0,1-.45-1.18,7.83,7.83,0,0,1-.06-.85s-.09-.29-.35-.2a3,3,0,0,1-1.54.27c-.4-.16-1-.35-1-.35-.18-.19,0-.73,0-.73a5,5,0,0,0-.15-.73c0-.06-.52-.91-.52-.91L22.42,68l1.19-6.31,1.95-2.38,2.7-7,1.92,1.84S36.9,68.11,37,68.27s3.45,8.56,3.44,8.91S41.3,82,41.3,82Z"></path>
      <path class="cls-29" d="M32.24,67.58l.89,1a65.16,65.16,0,0,1,4.75,6c.84,1.55,5.35,7.79,5.5,8.68s5.72,10,5.72,10l-3,4s-.61.57-.84.29.1-1.37.1-1.37l-.88-3.79-3.25-9.24a80.81,80.81,0,0,0-4.77-8.63,61.31,61.31,0,0,1-4-6.2C32.41,68.19,32,67.7,32.24,67.58Z"></path>
      <path class="cls-16" d="M45.77,76.15l.28,2.92-.86,3.31s-.73-.1-.81-.22S42,76.56,42,76.56l-2.12-5.5,2.9-1.43s1.51,1.11,1.49,1.31a20.5,20.5,0,0,0,.32,2.54C44.68,73.71,45.77,76.15,45.77,76.15Z"></path>
      <path class="cls-30" d="M38.21,63s.64,1.64.73,1.82A25.13,25.13,0,0,0,41,67.68a9.62,9.62,0,0,1,.72,2.14L41.93,71s.13.37.37.23a5.73,5.73,0,0,1,.77-.29s.48-.16.63.2a2.73,2.73,0,0,1,.4,1.24,3.34,3.34,0,0,0,.17,1.44c.18.21.43.33.48.65s.65,2.61.65,2.61l.29.73.3-.68s.32-.71.4-.83a2.14,2.14,0,0,1,.39-.51c.1,0,.18-.07.12-.23s-.62-.35-.66-.37-1-.56-1.09-1A9.69,9.69,0,0,1,45.44,72a10.8,10.8,0,0,0,.37-2.49,15.18,15.18,0,0,0-.62-2.34c-.21-.25-.58-.61-.84.14s-.33.19-.33.19l.07-1.18.65-1a5.45,5.45,0,0,0,.7-2,4.36,4.36,0,0,0-.91-2.61c-.62-.58-.82-.62-.82-.62a2.11,2.11,0,0,1,0,.93c-.13.37-.35.88-.46,1.1a5,5,0,0,1-.86,1.06,3.49,3.49,0,0,1-1.2.82,1.42,1.42,0,0,1-1.39.09c-.63-.3-.95-.79-1.27-.91Z"></path>
      <path class="cls-31" d="M37.36,73.81s-4-13.15-5.27-15.14-3.62-5.75-3.62-5.75l-.19-2-.19-1.27s-.2-.26.22-.82a18,18,0,0,0,1.42-2.62c0-.17.1-1.08.1-1.08l.26,0s.31.73.35.77,4.27,4.63,4.51,4.47a2.66,2.66,0,0,0,.45-.4,5.34,5.34,0,0,1,1.52-1.17c.57-.15,1.37-.27,1.59.06s.53.44.64.66a3.92,3.92,0,0,1,.38,1.4c0,.41-.1.54-.63,1.33s-.65.91-.55,1.2.31.51.48.44-.28.3-.28.3a2.4,2.4,0,0,0-.74,1,8.13,8.13,0,0,0-.24,2.24s-.13.6-.47.78-.53.36-.65,1a7.23,7.23,0,0,0-.15,1.36,1.69,1.69,0,0,1,.06,1c-.13.31-.59.6-.45.86s1.48,0,1.48,0l.44.05s.68.59.69.63.24.53.24.53.43.8.48.87a7.36,7.36,0,0,0,1.35,1.31,6,6,0,0,1,1.2,1.4,8.35,8.35,0,0,1,.83,1.51,1.78,1.78,0,0,1-.38,2,2.75,2.75,0,0,1-1.05.67l-.23,0,.4.32a3.14,3.14,0,0,0,.52.65c.2.16,1.41.83,1.33,1.62A9,9,0,0,1,43,75.91c-.19.68-.48,1.33-.57,1.68a1.65,1.65,0,0,0-.09.74c0,.21.89,4.19.89,4.19s0,.43-.59-.54-1.79-3-1.79-3Z"></path>
      <path class="cls-30" d="M31.71,55.55a5.16,5.16,0,0,1,.47-1,9.47,9.47,0,0,1,.69-.82l.74-.67.66-.52s.58-.38.76-.36a.79.79,0,0,1,.66.34,1.35,1.35,0,0,1,.34.88,3.06,3.06,0,0,1-.12,1c-.06.17-.29.72-.3.82a.55.55,0,0,0,.22.54,1.2,1.2,0,0,0,.64.3,1,1,0,0,0,.66-.27c.19-.22.47-.67.55-.73s.15,0,.13.12-.15.79-.17.88a13.1,13.1,0,0,1-.1,1.69.88.88,0,0,1-.44.45.77.77,0,0,0-.53.46,7.48,7.48,0,0,0-.19,2.11,1.5,1.5,0,0,1-.1,1c-.15.33-.41.6-.26.68a1.41,1.41,0,0,0,.62.13c.15,0,.69-.24,1,.21a13.84,13.84,0,0,1,.88,1.76s.34.07.1,2a22.14,22.14,0,0,0-.3,4l.09.67-.55-1.55a10.26,10.26,0,0,0-.82-2.06,17.45,17.45,0,0,1-1.69-3.68L35,63a5.11,5.11,0,0,1-.5-1.1l-.21-.68-.35-1.47-.2-.93-.27-1.28a7.27,7.27,0,0,0-.34-1.06,2.12,2.12,0,0,0-.62-.87c-.23-.11-.55-.32-.88.25Z"></path>
      <path class="cls-16" d="M35,50.38s-.15.23-.38-.11a5.5,5.5,0,0,1-.73-1.47c-.16-.65-.37-1.46-.39-1.56a6.61,6.61,0,0,1-.06-2,4.45,4.45,0,0,0,0-3c-.52-1.12-.71-1.11-1-1.1s-.88.07-1.1.39a7.73,7.73,0,0,0-1,1.91c-.05.46.23,1.08.17,1.33s-.37.37-.37.37a5.67,5.67,0,0,1,.32.53,1.62,1.62,0,0,1-.16.87,3.17,3.17,0,0,0-.45,1.23A5.82,5.82,0,0,0,29.91,49a8.73,8.73,0,0,1,.16,1.74c0,.44-.27,1.49-.24,1.83s.26,1.08.56,1.2A1.44,1.44,0,0,0,32,53.48,4.33,4.33,0,0,0,33,52.3a1.39,1.39,0,0,1,.45-.53c.17-.1.83-.44,1.06-.59a2.07,2.07,0,0,0,.64-.65.8.8,0,0,0,0-.31Z"></path>
      <path class="cls-16" d="M28.19,52.82s-.43-.71-.51-.79-1.84-7.11-1.84-7.11a12.78,12.78,0,0,0,.83,2.53c.25.16.35-.46.32-.64s-.08-1.73-.08-1.73,0-.6.39-.66A4.82,4.82,0,0,0,28.5,44c.08-.06.65-.54.92-.05a2.32,2.32,0,0,1,.41,1.17,5.72,5.72,0,0,1-1,2.86c-.93,1.54-.72,1.39-.6,2.22s.26,2.32.28,2.73l0,.41Z"></path>
      <path class="cls-31" d="M28.72,52.77l-.58.91-5.45-6.62s1.95-5,2-5.12a10.09,10.09,0,0,1,1.58.52,6.11,6.11,0,0,0-.13,2.77,12.36,12.36,0,0,0,.64,2.2l.38.64Z"></path>
      <path class="cls-16" d="M39.12,53.75l.36-.17.59-.33.72-.2a1.91,1.91,0,0,1,1,.41,4.61,4.61,0,0,1,.53.86,2.25,2.25,0,0,1,.41,1.07,2.54,2.54,0,0,0,.21,1c.13.24.58,1,.49,1.34a1.13,1.13,0,0,1-.54.82c-.31.12-.87.25-1,.35s-1.06.93-1,1.23,0,.69.18,1.3.38,1.41.66,1.57a1.35,1.35,0,0,0,.67.13s-.3.43-.48.49-.93.44-1.08.49a1.52,1.52,0,0,1-1-.07,11.47,11.47,0,0,1-1.27-.91c-.24-.24-.38-.82-1.13-.68a3.9,3.9,0,0,1-1.37,0s.08-.19.17-.43a2.59,2.59,0,0,0,.19-1.28,4.75,4.75,0,0,1,.19-2.11c.2-.23.1,0,.53-.46s.49-.17.52-1.15,0-2,.46-2.41S39.12,53.75,39.12,53.75Z"></path>
      <path class="cls-30" d="M47,83l.39.06a3.32,3.32,0,0,0,.78-.38,5.16,5.16,0,0,1,.52-.36s-.08.92-.08.93-.18,1.11-.18,1.11.1.48.18.93a6.37,6.37,0,0,1,.11,1.31,3.59,3.59,0,0,1-.06.39,4,4,0,0,0,.48-.44,6.2,6.2,0,0,0,.38-.69l0-.08s.2.66.22.85a11.82,11.82,0,0,1-.14,1.9,1.38,1.38,0,0,0-.09.68c0,.18.3.85.54.9s.42-.19.61-.28,0,.73,0,.73-.39,1.06-.46,1.19-.63.77-.63.77l0,.31.91-.08s.09.23.05.3a6.32,6.32,0,0,1-1.23,1.53,5.36,5.36,0,0,0-1.41,1.21,2.53,2.53,0,0,1-.66.69l-1.15.79c-.09.07-.58.31-.58.31A13.52,13.52,0,0,1,48.16,94c1.23-.86.16-3.4.16-3.4S47,85.6,47,85.5s-.54-2-.29-2.24Z"></path>
      <path class="cls-30" d="M32.54,68.78l-1.18-.3L29,67.61,27.79,67l-.49-.44-1.14-.68-1.05-.68-.67-.54-.78-.53S21.35,63,21.19,63a6.37,6.37,0,0,1-1.1-.13c-.11-.06-1-.72-1.19-.88s-.48-.47-.7-.33a3.66,3.66,0,0,0-.42.32l.12.83a9.25,9.25,0,0,1,.39,1.28,3.42,3.42,0,0,0,.46,1.22c.12.05.68.06.79.33a.86.86,0,0,1-.13.79,5.12,5.12,0,0,0-.51.91A5,5,0,0,0,19.28,69c.21.3.33.46.4.38s1-1.08,1.66-.57a3.35,3.35,0,0,0,1.27.64,1.54,1.54,0,0,0,.71.06,7.64,7.64,0,0,1,2.21-.41,2.71,2.71,0,0,1,1.34.64,5.6,5.6,0,0,0,1.18.75c.15.06,2,.56,2.4.61s1.14,0,1.37,0,3.08,1.26,3.08,1.26L33.4,70Z"></path>
      <path class="cls-29" d="M43.38,83.25s-.26-1.34-.34-1.69l-.54-2.77a1.43,1.43,0,0,1,0-1.2,19.75,19.75,0,0,0,.79-2.72A12,12,0,0,0,44,77.93a17.4,17.4,0,0,1,.78,3.91s.09-2.17.06-2.35-.15-.51.41-1a4.35,4.35,0,0,0,.9-1.76s.37-1,.64-1,.34.12.54,0,.53-.4.53-.4.25-.59.37-.1a4.61,4.61,0,0,1-.16,2.65s-.07,0,0,.56A2.62,2.62,0,0,1,48,80.31c-.35.84-1,1.59-1.05,2.14s-.27.51-.28.81a17.78,17.78,0,0,0,.51,3.11c.34,1.28,1.7,6.19,1.7,6.19s-1.27-1.48-1.44-1.76-3.36-6-3.39-6.08S43.38,83.25,43.38,83.25Z"></path>
      <path class="cls-32" d="M35.81,82.57s-.11-1.19-.12-1.23-.2-1.15-.2-1.15l.78,0,1.15-.42a1.49,1.49,0,0,1,1,0,3.35,3.35,0,0,1,1,.67,11.27,11.27,0,0,1,1.47,2c.38.71,4.62,13,4.9,14,0,0-.16,1-.56,1.2l-.42-1.11-.57-2.14-.48-1.07-1.2-.51s-1.23-.3-1.45-.38a6.12,6.12,0,0,1-1.17-.8c-.05-.11.29-.1.29-.1a5.11,5.11,0,0,0,.82-.27c.12-.08.91-1,.74-1.56s.05-1.46-.54-1.92a16.18,16.18,0,0,0-3-1.23s.87-.32.89-.71-.62-3.14-.62-3.14-.25-.89-1-.71-1.3.27-1.52.63S35.81,82.57,35.81,82.57Z"></path>
      <path class="cls-30" d="M5.55,50.74s.35.45.64.38.82-.34.72-.91A2.69,2.69,0,0,0,6.7,49c-.25-.33-.54-1.07-.65-1.07s.31-.76.46-1A4.89,4.89,0,0,1,8,45.75a8,8,0,0,1,1.48-.15c.3,0,.51-.24.85-.31l.34-.07.81,2.14s.43.88.92,1a4,4,0,0,0,1.71-.1c.2-.12.61-.39,1.24-1.65s.76-1.55,1.06-1.22,1.16,1.4,1.37,1.39a4.58,4.58,0,0,1,.59,0s.43.05,0-.69-1-1.74-.58-2.39a11.45,11.45,0,0,1,1.37-1.53s.5-.16.55-.48.4-2.07.4-2.07.33-1,.37-1.06.37-.6.56-.67a1.11,1.11,0,0,1,.67,0,9.2,9.2,0,0,0,1.16.32c.14,0,.79.12,1.92-1.2l.45.2a1,1,0,0,1,.6,1,8.54,8.54,0,0,1-.09,2.05c-.09.09-.45.4-.23.69a3,3,0,0,1,.51.79,1.47,1.47,0,0,1-.63,1.43,4.15,4.15,0,0,0-1,1.12c-.13.24-.42.94-.45,1a5.6,5.6,0,0,0-.19,1.33,4.2,4.2,0,0,0,.93,2.25c.66.63.71.9,1.25,1.42s1.43,1.36,1.43,1.36l.69.93a4.4,4.4,0,0,1,.74,1.52,5.3,5.3,0,0,1,0,1.78,4.74,4.74,0,0,0-.3,2.37c.23,1,.68,2.65.68,2.65l.18.6s-2.22.21-2.31.19-2.19,0-2.19,0l-3.69-.45L16.5,59.33a3.29,3.29,0,0,0-.72.67,3.25,3.25,0,0,1-1,.93,5.76,5.76,0,0,1-1-.25c-.06,0-1.92-1.09-2.1-1.15s-1.42-.23-1.42-.23L9.2,58.81a2.71,2.71,0,0,0-1.48.64,3.49,3.49,0,0,0-1,1.18c-.2.43-.7,1.35-1.26,1.53a1.81,1.81,0,0,1-1.83-.1c-.85-.48-2.88-1.28-3.47-.71a8.29,8.29,0,0,1,.7-4.75c.1-.18.3-.3.43-.47A8.31,8.31,0,0,0,1.37,54,1.48,1.48,0,0,1,2,52.22c1-.6,1.07-.52,1.31-.83s0-.77.39-1.11,1.09-.74,1.49-.14Z"></path>
      <path class="cls-33" d="M18.33,46.79l-.38,0-.56-.27-.59-.58-.43-.52s-.15-.24-.25-.14-.23.13-.29.24-.29.59-.29.59l-.34.77s-.35.64-.39.7-.47.64-.74.71-.8.15-.8.15a2.76,2.76,0,0,1-.91,0,1.55,1.55,0,0,1-.82-.79l-.1-.21-.12-.27-.13-.35-.56-1.52a.94.94,0,0,0-.19-.63c-.22-.3-.94-1.08-.94-1.08l-.58-.37L8.68,43l1.51-1.24s2.35-.35,2.43-.35,1.87-.16,2-.12,1.45,0,1.5.06,1.83.9,1.87,1a7.51,7.51,0,0,1,0,1s-.51.71-.37,1.16.05.77.38,1.22.53.7.51.93S18.33,46.79,18.33,46.79Z"></path>
      <path class="cls-31" d="M18,43.28a2.52,2.52,0,0,0-.83-.09l-.54.05-.11,0h-.08l-.08-.07L16.26,43l-.15-.22L16,42.62l-.2-.16-.17,0-.37.11-.64.16-.33,0-.57,0-.29-.13L13,42.45l-.28,0-.31.11L12,43l-.59.21-.48-.29-.5-.31H10l-.52.1L8.78,43l-.1,0,.15-.75.45-.76L9.86,41l.71-.36s.47-.12.58-.17a5.25,5.25,0,0,0,.74-.38,9.94,9.94,0,0,1,.94-.55,2.11,2.11,0,0,1,.76-.14c.23.05.45.3.54.34a3.37,3.37,0,0,1,.46.4s.34.26.37.27.29.14.44,0a2.64,2.64,0,0,0,.47-.54,2.74,2.74,0,0,0-.08-.7,2.21,2.21,0,0,0-.52-.44c-.09,0-.64-.31-.67-.34a4.21,4.21,0,0,1-.61-1s-.11-.79-.1-1a3.67,3.67,0,0,1,.19-.88c.06,0,.06.17.25.18a3,3,0,0,0,.49.08,3.14,3.14,0,0,1,.52,0l.58.09.53.17a1.24,1.24,0,0,1,.32.2c.12.12.13.39.37.33a1.15,1.15,0,0,0,.54-.38l.6-.73c.06-.07.6-.71.75-.86a1.66,1.66,0,0,1,.58-.33c.13,0,.62-.12.71,0l.65.27a1.19,1.19,0,0,0,.38.13c.12,0,.68-.3.88-.36s.79-.13.93,0A5.54,5.54,0,0,1,24,35.62c.25.55.14.82.38,1.06a4.13,4.13,0,0,0,.35.3l-.34.37a4.18,4.18,0,0,1-.85.64,1.64,1.64,0,0,1-1.13.13c-.37-.13-1.19-.53-1.54-.12a4,4,0,0,0-.66,1.08c0,.16-.39,1.5-.42,1.66s-.13.89-.14,1,0,.11-.21.25A7.55,7.55,0,0,0,18,43.28Z"></path>
      <path class="cls-16" d="M.17,61.35s6.14-2.19,7.94-2.18a1.83,1.83,0,0,1,.6-.32,1.36,1.36,0,0,1,.49,0c.06,0,1.71.55,2,.61A11.76,11.76,0,0,0,13,58.89c.4-.08,1.23-.15,1.23-.15a9.54,9.54,0,0,1,2.31.59s.23,0,.32.52a6.37,6.37,0,0,0,.74,1.77c.1.15.12.31.33.25a.88.88,0,0,1,1.06.21,5.38,5.38,0,0,0,.86.68,2.59,2.59,0,0,0,1,.27,1.15,1.15,0,0,1,.84.19c.55.28,1.36.7,1.46.74s.75.29.88.37.66.55.8.66.67.48.72.51l1.31.82.84.49s-.48-.6-.57-.75a3.77,3.77,0,0,0-.43-.54,1.11,1.11,0,0,1-.27-.29c-.1-.18-.54-1.24-.54-1.24s-1-2.16-1-2.27a3.21,3.21,0,0,0-.48-.4l-.93-.72L22.29,60l-.55-.24-1-.36-1-.28-.5-.1-.62-.07-.47-.1-.64-.38-1.1-.7-.48-.31L15.51,57l-.5-.5-.66-.66-1.14-1-.76-.56-.64-.43-.68-.38-.76-.28-.67-.11-.6.18-.71.42L8,54l-.65.59L6.91,55s-.43.38-.49.42L6,55.7s-.48.23-.48.23L5,56.06H4l-.56,0L2.92,56l-.55,0L1.71,56l-.41.12-.43.47L.63,57l-.21.67s-.19.75-.18.8-.08,1-.08,1v1.89Z"></path>
      <path class="cls-16" d="M30.83,66.18l-.58-.45-.71-.47-.81-.74L28,63.88,26.84,63l-.9-.64-.78-.45a.71.71,0,0,1-.51-.32,3.29,3.29,0,0,0-.3-.46l-.94-.87-.71-.56-.92-1a9.87,9.87,0,0,1-1-1.39c-.26-.5-.61-1.37-.75-1.68a11.16,11.16,0,0,0-.8-1.39c-.21-.27-.85-.86-1-1.05a1.22,1.22,0,0,1-.36-.94c0-.51,0-.78-.29-1.11l-.82-.74c-.12-.08-.84-.65-1-.78s-.9-.91-.9-.91a2.23,2.23,0,0,0,.63.39c.23.06,1.37.13,1.37.13l1.4.09s.94,0,1.05-.06a1.77,1.77,0,0,1,.34,0,.76.76,0,0,1,.44.38,2.46,2.46,0,0,0,.21.38,6.84,6.84,0,0,0,.48.64c.14.14.47.42.47.42l.36.35.22.28.28.53.18.5L23,54.45l.44,1L24.19,57l.74,1.44s.63.84.77,1,.84.7.84.7.17.19.41.41a1.88,1.88,0,0,0,1.27.53c.48-.07.87.28,1.25.73a10.47,10.47,0,0,1,1,2.17c0,.07.52,2.3.52,2.3Z"></path>
      <path class="cls-31" d="M1.3,56.13s.21-.21.16-.83-.2-1.35-.2-1.61a1.29,1.29,0,0,1,.32-1.09c.37-.38.78-.76,1-.75a3.07,3.07,0,0,1,.52.06,2,2,0,0,1,.92.65A5.61,5.61,0,0,0,5.2,53.8a2.68,2.68,0,0,0,.9.41l1.57.12-.55.56s-.77.63-.93.72a2.84,2.84,0,0,1-1.35.45L3.45,56,2.67,56A8.9,8.9,0,0,0,1.3,56.13Z"></path>
      <path class="cls-34" d="M47.9,96s-1.11.79-1.23.85-1.15,1-1.43.71-.4-1.28-.72-2.1-.16-1.64-.8-2.27-3.3-.53-3.82-1.75c0,0,1.93.33,1.91-2.13s-2.32-2.38-3.55-2.84c0,0,1.06-.23.92-1.1s-.55-3.24-1.11-3.44-2.18.38-2.25,1A11,11,0,0,0,35.37,80c-.38-.81-.5-2.79-1.11-2.7a3.13,3.13,0,0,0-1.8,1.08c-.1.34.18-.9-.49-1.65a4.14,4.14,0,0,0-1.28-1.06c-.16-.1.36-1.6-.26-1.75a8.15,8.15,0,0,1-1.35-.31,1.09,1.09,0,0,0-1.37.37l-.57.59a3.87,3.87,0,0,1-.57-2c.07-1-.95.24-1.89-.08S24,72,23.44,72.25c0,0,.1-.33.22-.83s-.13-.68-.33-1a1.5,1.5,0,0,1-.36-.83c0-.29-1-.07-1.53-.74s-1.52.1-1.82.56a2.8,2.8,0,0,1-.74-1.93c.16-.94,1-1.15.73-1.68s-.91-.2-1-.68-.28-.75-.63-1.78.19-.6-.2-1.41-.84-1.1-.9-1.88-.13-.83-.53-.63-1,1.6-1.73,1.52a10.44,10.44,0,0,1-2.72-1.33c-.42-.28-1.64-.2-1.95-.43a1.4,1.4,0,0,0-1.1-.37,4.08,4.08,0,0,0-2.08,1.82c-.34.9-1.49,2.56-3.44,1.24s-3-.4-3-.4-.49-3.14.73-5c0,0,.48,0,.49-1.12S1.08,53.69,1.34,53a3,3,0,0,1,1.6-1.4c.66-.34.31-.58.48-1s1-1.52,1.88-.21,1.62.46,1.61-.22a4.29,4.29,0,0,0-1-2.28,5.13,5.13,0,0,1,1.54-2,3.21,3.21,0,0,1,2.07-.37,1.93,1.93,0,0,0,1-.55c.11-.09-.08-.61-.76-1.16s-1-.89-1.13-.85.16-1.38,1.05-1.95.72-.29,1.34-.59,1-.49,1.43-.76.85-.65,1.52-.09,1.06,1.06,1.42.73.66-.57.28-1.23-1-.34-1.53-1.24a2.87,2.87,0,0,1-.11-2.33s.4.39.71.27a3.07,3.07,0,0,1,1.84.32c.43.27.46.78,1,.12s1.45-1.83,2-2,1.5.31,1.72.37.77-.37,1.09-.41,1.12-.28,1.83,2c0,0-.07.61,1,1s.54,2.8.42,3.15-.32.58.07.88A2,2,0,0,1,26,43a2.94,2.94,0,0,0-.14,2.15,9.29,9.29,0,0,1,.38,1.56c.09.36.43,1.16.64.68s0-.57,0-1.21-.22-1.68.37-1.71a2.34,2.34,0,0,0,1.39-.58c.31-.27.54-.12.83.21s.34,1.15.57,1.09.5-.14.33-.48a1.75,1.75,0,0,1,0-1.54c.28-.55.8-1.75,1.23-1.88s1.14-.25,1.46.31a4.42,4.42,0,0,1,.34,3.57c-.59,1.36.75,4.51.83,4.68s.42,1.07,1,.28,2-1.92,3.2-1.21a2.55,2.55,0,0,1,.91,2.77,12,12,0,0,1-.91,1c-.13.12-.34,1.1.1,1.15a3.19,3.19,0,0,0,1.46-.58,1.46,1.46,0,0,1,2.09.7c.77,1.25.45,1.73.64,2.26s1,1.32.31,2.2a1.71,1.71,0,0,1-.71.33,1.6,1.6,0,0,0-1.29,1c-.45.83.14,2.55.34,2.92s.88,1.11,1.68-.38.69-1.9.58-2.25,2.11,1.32,1.7,3.47-1.17,1.87-1.32,2.74-.12,1.4.13,1.72c0,0-.15-.36.32-1.07,0,0,.81-1,1.3,2.78a26.87,26.87,0,0,1-.55,2.91c-.43,1.81,0,1.61.14,2s1.12.61,1.4.85.09.62.69.09.56,0,.61-.53h0s.67,1-.17,3.12c0,0,.88,1.17-.6,3.55s1,1.07,1.23.51c0,0,.24-.26-.23,2.34a4.74,4.74,0,0,1,.23,2.57s1.08-1,.95-1.77c0,0,.49,2.25.05,3.17s.59,2.31,1.1,1.22-.24,2.25-1.07,2.72.65.43,1,.22-.83,1.72-1.9,2.31S47.9,96,47.9,96Z"></path>
      <path class="cls-18" d="M49,93.66a54.85,54.85,0,0,1-3.41-5.8L42.4,82l-.8-1.46c-.28-.47-.59-.93-.89-1.4l-1.82-2.79A64.44,64.44,0,0,0,35.05,71a49.57,49.57,0,0,0-4.48-4.89c-1.84-1.24-3.32-3-5.25-4.05-1-.52-1.76-1.38-2.75-1.88A12.17,12.17,0,0,0,19.46,59a6.44,6.44,0,0,0-1.64-.11,9.21,9.21,0,0,1-1.66.12,15.66,15.66,0,0,0-1.64-.29,5.12,5.12,0,0,0-1.65.16,4.84,4.84,0,0,1,1.65-.18,12.76,12.76,0,0,1,1.64.28,11.48,11.48,0,0,0,1.65-.14,6.23,6.23,0,0,1,1.67.09,12.65,12.65,0,0,1,3.15,1.09c1,.51,1.77,1.37,2.76,1.85,2,1.08,3.46,2.8,5.31,4a50,50,0,0,1,4.57,4.87,63.92,63.92,0,0,1,3.92,5.4L41,79c.3.47.62.92.91,1.4l.82,1.45,3.28,5.81,1.63,2.89a24.89,24.89,0,0,0,1.76,2.75l0,0a.28.28,0,0,1,0,.4.29.29,0,0,1-.4,0Z"></path>
      <path class="cls-18" d="M41.28,83.1a13.2,13.2,0,0,0-1-1.64,5.77,5.77,0,0,0-1.34-1.36A1.44,1.44,0,0,0,37.2,80a4.17,4.17,0,0,1-.94.32,1.29,1.29,0,0,1-.52,0,.58.58,0,0,1-.51-.33.14.14,0,0,1,.26-.12h0l0,0c.05.14.43.2.71.14a4.17,4.17,0,0,0,.89-.28A1.62,1.62,0,0,1,39,80a5.83,5.83,0,0,1,1.32,1.44A13.26,13.26,0,0,1,41.28,83.1Z"></path>
      <path class="cls-18" d="M38.16,77.15l-3.69-5.4A32.35,32.35,0,0,1,32.71,69a7.06,7.06,0,0,0-1.82-2.62s0,0-.05-.07A17.85,17.85,0,0,0,30,63a3.94,3.94,0,0,0-.83-1.42,1.29,1.29,0,0,0-.71-.32c-.27,0-.55-.07-.85-.15a1.94,1.94,0,0,1-1.2-1.31,11.32,11.32,0,0,1-.46-1.68,21.3,21.3,0,0,0-.81-3.33,4.17,4.17,0,0,0-.86-1.43,3.91,3.91,0,0,1-1-1.39c-.23-.54-.38-1.09-.6-1.62a2.07,2.07,0,0,0-1-1.24,2.94,2.94,0,0,0-1.65.11,9.1,9.1,0,0,1-1.73.12c-.58,0-1.14-.11-1.72-.13a4.93,4.93,0,0,1-.85-.1,1.9,1.9,0,0,1-.74-.43,1.8,1.8,0,0,0,.74.41,4.91,4.91,0,0,0,.86.07c.57,0,1.14.08,1.71.08a7.43,7.43,0,0,0,1.7-.17A3.3,3.3,0,0,1,21.64,49a2.19,2.19,0,0,1,1.11,1.33c.23.53.39,1.09.62,1.6a3.65,3.65,0,0,0,1,1.33,4.27,4.27,0,0,1,.92,1.49,19.82,19.82,0,0,1,.85,3.35,10.92,10.92,0,0,0,.47,1.63,1.68,1.68,0,0,0,1,1.15c.51.15,1.18.06,1.67.55a4.44,4.44,0,0,1,.89,1.52,18.62,18.62,0,0,1,.86,3.36l0-.07a7.24,7.24,0,0,1,1.86,2.7,28.21,28.21,0,0,0,1.72,2.76Z"></path>
      <path class="cls-18" d="M32.52,68.93a20.7,20.7,0,0,1-4.11-1.45,4.33,4.33,0,0,1-.9-.64,4.87,4.87,0,0,1-.65-.9,1.7,1.7,0,0,0-.33-.38,1.31,1.31,0,0,1-.35-.46,7.92,7.92,0,0,1-.41-1,7.72,7.72,0,0,0-2.17-3.61,9.42,9.42,0,0,1-2.87-3.21,8.09,8.09,0,0,1-.48-1,8.53,8.53,0,0,0-.4-1,6.1,6.1,0,0,0-1.23-1.74c-.25-.24-.59-.44-.73-.8s0-.75-.06-1.08c-.19-.69-.87-1.09-1.42-1.53a11,11,0,0,1-1.57-1.48,1,1,0,0,0-.95-.33,7.61,7.61,0,0,1-1.07.11,1.26,1.26,0,0,1-1-.42,3.38,3.38,0,0,1-.54-.94l-.74-2,.76,2a3.42,3.42,0,0,0,.54.92,1.23,1.23,0,0,0,1,.41,7.81,7.81,0,0,0,1.07-.13,1.24,1.24,0,0,1,.54,0,1.17,1.17,0,0,1,.45.31,12.1,12.1,0,0,0,1.57,1.47c.55.43,1.26.81,1.47,1.56.09.37-.09.74.06,1.06a2.33,2.33,0,0,0,.71.76A6,6,0,0,1,20,55.24a9.63,9.63,0,0,1,.42,1,7.1,7.1,0,0,0,.47,1,9.18,9.18,0,0,0,2.87,3.14A7.91,7.91,0,0,1,26,64a8.44,8.44,0,0,0,.41,1,1.16,1.16,0,0,0,.3.39,2.16,2.16,0,0,1,.38.42,4,4,0,0,0,.62.85,3.72,3.72,0,0,0,.85.6,19.27,19.27,0,0,0,4,1.38h0a.15.15,0,0,1,.11.18.16.16,0,0,1-.17.11Z"></path>
      <path class="cls-18" d="M34.9,72.28c-.48-.23-1-.46-1.45-.66-.25-.1-.5-.16-.76-.25a4.5,4.5,0,0,0-.73-.3,7.5,7.5,0,0,1-3.15-.3,6.1,6.1,0,0,1-1.51-.6,5,5,0,0,0-1.26-.9,4.94,4.94,0,0,0-3,.46h0a.14.14,0,0,1-.09-.27h0a5.14,5.14,0,0,1,3.19-.4,5.1,5.1,0,0,1,1.29,1,5.85,5.85,0,0,0,1.45.61A7.33,7.33,0,0,0,32,71a4.13,4.13,0,0,1,.74.32c.24.09.51.16.75.27C34,71.8,34.43,72,34.9,72.28Z"></path>
      <path class="cls-18" d="M26.3,72.26A1.54,1.54,0,0,1,26.65,71a2.57,2.57,0,0,1,1-.72,2.47,2.47,0,0,0-.92.8,1.33,1.33,0,0,0-.19,1.1h0a.13.13,0,0,1-.09.18.14.14,0,0,1-.18-.09Z"></path>
      <path class="cls-18" d="M27,74.55a2.13,2.13,0,0,1,.78-1.37,1.5,1.5,0,0,1,.74-.29,2.33,2.33,0,0,1,.79,0h0a1.45,1.45,0,0,0,1.05,0,1.89,1.89,0,0,1,1.12.32,7.21,7.21,0,0,0,2.1.79,4.79,4.79,0,0,1,2.14.73,5.55,5.55,0,0,1,1.77,1.42,5.38,5.38,0,0,0-1.79-1.38,4.82,4.82,0,0,0-2.13-.69,7.18,7.18,0,0,1-2.15-.77,1.8,1.8,0,0,0-1-.28,1.61,1.61,0,0,1-1.16,0h0a1.77,1.77,0,0,0-1.39.27,1.89,1.89,0,0,0-.67,1.24h0a.1.1,0,0,1-.12.09.11.11,0,0,1-.09-.13Z"></path>
      <path class="cls-18" d="M32.32,78.34a2.55,2.55,0,0,1,1.18-1.53,2,2,0,0,1,1.87.16,7,7,0,0,1,1.48,1.17,5.15,5.15,0,0,1,1.09,1.53A5,5,0,0,0,36.8,78.2a6.6,6.6,0,0,0-1.49-1.1A1.8,1.8,0,0,0,33.6,77a2.3,2.3,0,0,0-1,1.41v0a.14.14,0,1,1-.27-.09Z"></path>
      <path class="cls-18" d="M28,67.14a.74.74,0,0,0-.37,0,3.92,3.92,0,0,1-.43.1,4.93,4.93,0,0,1-.87-.1,1.62,1.62,0,0,0-.82,0,2.34,2.34,0,0,1-.8.33,10,10,0,0,1-1.72.22c-.3,0-.56-.18-.84-.22l-.86,0h0a2.32,2.32,0,0,0-1.16.7,2.16,2.16,0,0,0-.48,1.27,2.08,2.08,0,0,1,.47-1.28,2.29,2.29,0,0,1,1.16-.73h0l.86,0c.3,0,.55.19.83.2a9.94,9.94,0,0,0,1.7-.24,2.32,2.32,0,0,0,.78-.33,1.65,1.65,0,0,1,.88-.06,4.84,4.84,0,0,0,.84.07c.25,0,.55-.21.89-.06a.08.08,0,0,1,0,.1.07.07,0,0,1-.1,0h0Z"></path>
      <path class="cls-18" d="M17.68,61.8a1.5,1.5,0,0,1,.76-.15,1,1,0,0,1,.67.4,4,4,0,0,0,1.11.8,1.21,1.21,0,0,0,.66.08,1.59,1.59,0,0,1,.72.17c.45.2.84.47,1.26.68a8.84,8.84,0,0,1,1.3.59,3,3,0,0,1,.53.48,5.89,5.89,0,0,0,.55.44c.78.54,1.59,1,2.41,1.52-.83-.47-1.65-.94-2.45-1.46a5.67,5.67,0,0,1-.57-.43,2.81,2.81,0,0,0-.53-.45,8.35,8.35,0,0,0-1.3-.56c-.44-.2-.84-.46-1.27-.64a1.34,1.34,0,0,0-.65-.14,1.46,1.46,0,0,1-.74-.08,4.17,4.17,0,0,1-1.21-.82c-.18-.18-.3-.31-.51-.31a1.19,1.19,0,0,0-.61.14h0a.14.14,0,1,1-.13-.25Z"></path>
      <path class="cls-35" d="M1.3,56.13A3.94,3.94,0,0,1,2.87,56a11.74,11.74,0,0,0,1.88.1,2.62,2.62,0,0,0,1.53-.5c.63-.37,2.11-2.21,3.14-2.35s1.74.18,3.42,1.39,2.64,2.61,3.44,3a21.25,21.25,0,0,0,2.1,1.25"></path>
      <path class="cls-35" d="M2.49,51.86a1.68,1.68,0,0,1,1.54.7A3.69,3.69,0,0,0,6.1,54.21c.63.06,1.57.12,1.57.12"></path>
      <path class="cls-35" d="M5.3,50.43s.72,2,2.05,2.3,2.3.38,2.73.46"></path>
      <path class="cls-35" d="M11.22,46.82s-.44,1,.68,2.54a6.88,6.88,0,0,1,1.32,3,23.47,23.47,0,0,0,1,2.77,5.86,5.86,0,0,0,1,1.63"></path>
      <path class="cls-18" d="M8.6,42.94a2.38,2.38,0,0,1,1.87-.4c.34.08.58.4.79.52s.5,0,.73-.2a2.08,2.08,0,0,1,.83-.49,2.36,2.36,0,0,1,.91.27,3.35,3.35,0,0,0,1.78-.23h0a.55.55,0,0,1,.64.3c.07.11.12.21.18.32s.09.24.22.2a3.67,3.67,0,0,1,1.44,0,3.82,3.82,0,0,0-1.43,0,.18.18,0,0,1-.19-.06l-.09-.16a1.83,1.83,0,0,0-.18-.3c-.12-.19-.35-.36-.56-.27h0a3.34,3.34,0,0,1-1.85.27c-.3-.08-.59-.27-.85-.23a1.82,1.82,0,0,0-.73.48,2.48,2.48,0,0,1-.42.26.65.65,0,0,1-.53,0c-.32-.19-.47-.42-.75-.49a2.21,2.21,0,0,0-1.65.41h0a.16.16,0,0,1-.2,0,.15.15,0,0,1,0-.2Z"></path>
      <path class="cls-18" d="M13.74,48.33a1.46,1.46,0,0,0,1-.77,7.38,7.38,0,0,0,.58-1.2l.26-.62c.05-.1.1-.2.16-.3a.49.49,0,0,1,.29-.27.43.43,0,0,1,.38.15,2.61,2.61,0,0,1,.23.25c.15.18.28.35.43.51a1.69,1.69,0,0,0,1.08.58c.08,0,.22,0,.22,0s0-.06,0-.15-.22-.38-.33-.57a3.44,3.44,0,0,1-.5-1.29,2,2,0,0,1,.33-1.37,6.07,6.07,0,0,1,1-1,4.62,4.62,0,0,1,.55-.41c.1-.08.17-.09.17-.14a2.79,2.79,0,0,0,0-.32,11.93,11.93,0,0,1,.66-2.63,1.53,1.53,0,0,1,1-1,2.92,2.92,0,0,1,1.33.3,1.45,1.45,0,0,0,1.23-.23,4,4,0,0,0,1-.86,4.24,4.24,0,0,1-1,.92,1.61,1.61,0,0,1-1.31.31A2.92,2.92,0,0,0,21.23,38c-.4.09-.63.52-.79.91a14.78,14.78,0,0,0-.6,2.57c0,.11,0,.21,0,.35a.38.38,0,0,1-.14.21l-.15.1a4.7,4.7,0,0,0-.52.39,6.13,6.13,0,0,0-.9.94,2.09,2.09,0,0,0,.16,2.37,6.52,6.52,0,0,1,.33.59.38.38,0,0,1,0,.45.32.32,0,0,1-.22.08.6.6,0,0,1-.19,0,1.88,1.88,0,0,1-1.22-.68c-.15-.17-.29-.36-.42-.53s-.3-.38-.42-.35-.25.29-.34.46l-.28.61a8,8,0,0,1-.65,1.18A1.49,1.49,0,0,1,13.74,48.33Z"></path>
      <path class="cls-18" d="M34.54,70.14a26.69,26.69,0,0,1-1-3.87c-.12-.65-.15-1.32-.21-2a10.81,10.81,0,0,0-.45-1.93,29.27,29.27,0,0,0-1.5-3.68c-.57-1.19-1.27-2.33-1.92-3.49a32.65,32.65,0,0,0-2.11-3.35A24.27,24.27,0,0,1,24.61,49a4.62,4.62,0,0,1-.93-1.8,3.79,3.79,0,0,1,.14-2,4.81,4.81,0,0,1,1-1.76c.25-.25.59-.4.77-.61a1.8,1.8,0,0,0,.3-.86h0a.15.15,0,0,1,.17-.12.14.14,0,0,1,.12.16h0a2,2,0,0,1-.38,1c-.26.29-.57.4-.79.62a4.6,4.6,0,0,0-1,1.66,3.48,3.48,0,0,0-.15,1.89,4.52,4.52,0,0,0,.87,1.72,26.42,26.42,0,0,0,2.74,2.87,32.5,32.5,0,0,1,2.11,3.4c.63,1.17,1.32,2.3,1.89,3.51A29.5,29.5,0,0,1,33,62.34a10.77,10.77,0,0,1,.43,2,19,19,0,0,0,.2,2A25.91,25.91,0,0,0,34.54,70.14Z"></path>
      <path class="cls-18" d="M26.7,60.36a5.82,5.82,0,0,1-2.26-2.58c-.48-1.05-.91-2.1-1.37-3.14-.22-.53-.46-1-.67-1.57a4.71,4.71,0,0,0-.71-1.54c-.34-.45-.87-.73-1.18-1.22-.17-.23-.28-.5-.44-.74a.76.76,0,0,0-.73-.34.75.75,0,0,1,.74.34c.16.23.28.5.45.73.31.47.84.75,1.2,1.2A4.69,4.69,0,0,1,22.48,53c.21.52.46,1,.69,1.56.47,1,.92,2.08,1.42,3.1a5.64,5.64,0,0,0,2.19,2.46h0a.11.11,0,0,1,.05.15.11.11,0,0,1-.15,0Z"></path>
      <path class="cls-18" d="M29.25,61.68c-.21-.66-.41-1.33-.6-2a11.86,11.86,0,0,1-.43-2c.09-.73.37-1.36.42-2.05a4.12,4.12,0,0,0-.24-2,.06.06,0,0,1,0,0c0-.83-.11-1.66-.21-2.48A9.56,9.56,0,0,0,28,49.85a2,2,0,0,1-.07-.34,1.28,1.28,0,0,1,.06-.35,2.7,2.7,0,0,1,.29-.59,14.66,14.66,0,0,0,1.28-2.13,2.9,2.9,0,0,0,0-2.38s0,0,0,0h0a2.8,2.8,0,0,1,.15,2.46,12.29,12.29,0,0,1-1.2,2.2c-.21.37-.42.7-.25,1.06A9.2,9.2,0,0,1,28.45,51c.08.83.13,1.67.16,2.5v0a4.3,4.3,0,0,1,.22,2.1c-.07.7-.37,1.38-.46,2a11.12,11.12,0,0,0,.37,2c.17.67.35,1.34.55,2v0Z"></path>
      <path class="cls-36" d="M30.09,45.14a1.08,1.08,0,0,1,.16,1.4A3,3,0,0,0,30,49.19a8.35,8.35,0,0,1-.11,3.22c-.13.72.45,2.27,2.1,1.07s.51-1.2,1.89-1.92,1.21-.77,1.47-1.48"></path>
      <path class="cls-37" d="M39.12,53.75a7.48,7.48,0,0,0-1.75,1.77,1,1,0,0,1-1.73,0c-.17-.34.28-.86.39-1.6s-.42-2.31-1.6-1.46-2.49,2.07-2.72,3.09-.46,1.62-.59-.34c0,0,.1-1-.43-1.3"></path>
      <path class="cls-18" d="M31.6,56c.08-.25.29-.55.6-.5a1.07,1.07,0,0,1,.67.49,5.2,5.2,0,0,1,.62,1.57c.25,1.11.45,2.22.74,3.32a8.79,8.79,0,0,0,.55,1.59A15.42,15.42,0,0,1,35.47,64c.23.52.34,1.09.6,1.58s.54,1,.81,1.49a13.61,13.61,0,0,1,.76,1.53l.53,1.61,1.06,3.23c.33,1.08.74,2.14,1.11,3.21s.74,2.17,1.19,3.14l0,0a.14.14,0,1,1-.26.12h0c-.5-1.08-.8-2.14-1.18-3.22s-.76-2.13-1.08-3.21l-1-3.25-.52-1.61a12.4,12.4,0,0,0-.72-1.52c-.27-.5-.55-1-.8-1.5s-.37-1.08-.59-1.6a15.26,15.26,0,0,0-.67-1.56,9.33,9.33,0,0,1-.54-1.62c-.28-1.09-.47-2.21-.71-3.32a4.91,4.91,0,0,0-.6-1.57,1,1,0,0,0-.65-.49C31.9,55.45,31.68,55.74,31.6,56Z"></path>
      <path class="cls-36" d="M37.91,54.83a8.3,8.3,0,0,0-.34,2.53c0,1.43-1,.18-1.18,2.14s.24,1.5-.06,2.21-.59.85.13.9,1.09-.46,1.71.16,1.61,1.47,2.17,1.48a4.66,4.66,0,0,0,2.43-1.39"></path>
      <path class="cls-36" d="M37.24,62.5a1.93,1.93,0,0,1,.85,1,5.35,5.35,0,0,1,.69,2.54c-.11,1-.89,3.7-.15,6"></path>
      <path class="cls-36" d="M38.5,63.09a7.27,7.27,0,0,0,1.35,2.24c.74.65.88.41,1.59,1.46S43.08,69.1,42.72,70A2.65,2.65,0,0,1,41,71.45c-.2,0,.17-.12.64.66s2,.74,1.57,3.09-1.11,2.4-.7,3.62.48,3.3,1.11,4.63"></path>
      <path class="cls-18" d="M46.93,75.88s0,0,0,0a.69.69,0,0,0-.14.12,2.24,2.24,0,0,0-.27.39c-.16.29-.3.6-.43.9a6.69,6.69,0,0,1-.46.93A5.33,5.33,0,0,1,45,79a10.74,10.74,0,0,0,0,2,10.37,10.37,0,0,0,0,2,16.91,16.91,0,0,0,1.28,3.83,16.73,16.73,0,0,1,.54,2,11.65,11.65,0,0,0,.66,1.91,40.12,40.12,0,0,1-1.27-3.84A18.37,18.37,0,0,1,44.83,83a10.72,10.72,0,0,1,0-2c0-.34,0-.67-.05-1a2.51,2.51,0,0,1,.05-1,2.17,2.17,0,0,1,.34-.41,2.21,2.21,0,0,0,.28-.4,6.73,6.73,0,0,0,.42-.9c.13-.32.27-.63.43-.94a3.11,3.11,0,0,1,.3-.44.65.65,0,0,1,.25-.2.29.29,0,0,1,.39.16.12.12,0,0,1-.08.16.11.11,0,0,1-.11,0Z"></path>
      <path class="cls-18" d="M46.86,83.07c.1,0,0,0,0,.11a2.54,2.54,0,0,0,0,.29,4.26,4.26,0,0,0,0,.61c0,.41.12.83.2,1.24.17.83.38,1.65.6,2.47s.42,1.64.61,2.47a17.45,17.45,0,0,1,.45,2.5,17.47,17.47,0,0,0-.52-2.49c-.21-.82-.44-1.63-.68-2.44s-.48-1.63-.67-2.46c-.1-.42-.18-.83-.24-1.26a4.62,4.62,0,0,1-.06-.65,1.45,1.45,0,0,1,0-.35.43.43,0,0,1,.08-.19.25.25,0,0,1,.3-.11.14.14,0,1,1-.11.26Z"></path>
      <path class="cls-38" d="M41,71.45A15.28,15.28,0,0,0,42.88,71c.7-.26,1.17.2,1.23,1.55s0,1,.47,1.66.1.11.47,1.57.48,1.62.53,1.88"></path>
      <path class="cls-37" d="M43.24,74.44a11.21,11.21,0,0,0,.67,3.25,25.9,25.9,0,0,1,.94,4.76"></path>
      <path class="cls-39" d="M27.85,52.31a16.21,16.21,0,0,0-3.14-2.39c-1.27-.59-1.7-1.68-2.2-1.87a13.2,13.2,0,0,0-2.82-.53c-.68,0-1-.68-1.18-.8"></path>
    </g>
  </g>
</svg>
