<?xml version="1.0" encoding="UTF-8"?>
<svg xmlns="http://www.w3.org/2000/svg" xmlns:xlink="http://www.w3.org/1999/xlink" viewBox="0 0 112.9 160.11">
  <defs>
    <style>.cls-1{fill:#8e6848;}.cls-2{fill:url(#Безымянный_градиент_7);}.cls-3{fill:#713e21;}.cls-4{fill:#3d271f;}.cls-5{fill:#69391e;}.cls-6{fill:#6b482f;}.cls-7{fill:#5c3624;}.cls-8{fill:#795135;}.cls-9{fill:#9a734f;}.cls-10{fill:#fff;}.cls-11{fill:#85563a;}.cls-12{fill:#789f5b;}</style>
    <linearGradient id="Безымянный_градиент_7" x1="53.83" y1="199.36" x2="59.12" y2="100.88" gradientUnits="userSpaceOnUse">
      <stop offset="0.38" stop-color="#9b714f"></stop>
      <stop offset="0.91" stop-color="#754427"></stop>
      <stop offset="1" stop-color="#6e3c20"></stop>
    </linearGradient>
  </defs>
  <g id="Слой_2" data-name="Слой 2">
    <g id="Слой_1-2" data-name="Слой 1">
      <path class="cls-1" d="M59.15,92.28S69,103.87,76.64,104.35s33.64-7.76,33.64-7.76l2.62-27.1-53.75-19Z"></path>
      <path class="cls-1" d="M0,67.57l5.36,35.35s19.05,2.85,22.38,1.9,18.58-6.67,22.86-6.67,8.55-5.87,8.55-5.87V50.53Z"></path>
      <polygon class="cls-2" points="7.92 136 59.15 160.11 106.54 136.12 57.27 115.24 7.92 136"></polygon>
      <path class="cls-3" d="M7.92,136,5.36,102.92s24.29-.48,31-3.81,22.83-6.83,22.83-6.83l-1.88,23Z"></path>
      <path class="cls-4" d="M42.54,105a8.81,8.81,0,0,0-2.91-1.71v0s-3.88-1.16-6,1.45-1.75,5.42-.79,5.88a12.79,12.79,0,0,0,1.67.35s.06,0,.1,0a29.56,29.56,0,0,0,3.59-.81,1.9,1.9,0,0,0,.62-.16l.67-.2c1.52-.47,1.7-.13,2.75-1a4.09,4.09,0,0,0,1.12-2.61,3.08,3.08,0,0,0-.21-.51h0l0,0A1,1,0,0,0,42.54,105Z"></path>
      <path class="cls-4" d="M21.74,108.38a11.37,11.37,0,0,0-4.12,1.36v0s-4.41,2.77-3.69,7,3.75,6.28,5,5.74a16,16,0,0,0,1.75-1.31s0-.1,0-.14c.94-1.08,1.63-3.24,2.26-4.15a2.39,2.39,0,0,0,.37-.74c.1-.21.21-.43.38-.81.83-1.86,1.32-1.76,1.33-3.54a5.23,5.23,0,0,0-1.58-3.29,3,3,0,0,0-.67-.23v0h-.08A1.31,1.31,0,0,0,21.74,108.38Z"></path>
      <path class="cls-5" d="M59.15,92.28l-1.88,23,49.27,20.88,3.74-39.53s-15.36-1.77-22-.82S70,99.58,66.48,97.68A46,46,0,0,1,59.15,92.28Z"></path>
      <path class="cls-4" d="M40.38,115.87a3.4,3.4,0,0,0-1.28-.32h0A2.36,2.36,0,0,0,37,116.76c-.5,1.21,0,2.23.36,2.29a4.58,4.58,0,0,0,.67,0l0,0a11.1,11.1,0,0,0,1.26-.71.51.51,0,0,0,.21-.13l.23-.15c.52-.34.63-.24.92-.7a1.61,1.61,0,0,0,.13-1.1,1,1,0,0,0-.14-.17h0A.36.36,0,0,0,40.38,115.87Z"></path>
      <path class="cls-4" d="M88.65,106a2.24,2.24,0,0,0-.11-.92h0s-.39-1-1.3-1.06-1.47.52-1.41.8c0,.08.14.29.2.42l0,0a7,7,0,0,0,.77.64A.42.42,0,0,0,87,106l.15.11c.35.25.31.35.68.43a1.16,1.16,0,0,0,.75-.19l.08-.14h0v0A.22.22,0,0,0,88.65,106Z"></path>
      <path class="cls-4" d="M102.42,122.58a11.29,11.29,0,0,0-2-3.92h0s-3.39-4-7.53-2.66-5.74,4.66-5,5.83a15.37,15.37,0,0,0,1.57,1.56s.1,0,.14,0c1.22.78,3.47,1.16,4.48,1.66a2.38,2.38,0,0,0,.79.26c.22.07.46.15.86.26,2,.56,2,1.06,3.73.81a5.29,5.29,0,0,0,3.06-2,4.15,4.15,0,0,0,.13-.71h0l0-.07A1.28,1.28,0,0,0,102.42,122.58Z"></path>
      <path class="cls-4" d="M75.64,109a8.69,8.69,0,0,0-1.91,2.75h0s-1.44,3.75,1,6,5.24,2.14,5.76,1.22a11.23,11.23,0,0,0,.47-1.63s0-.06,0-.1a29,29,0,0,0-.53-3.62,1.58,1.58,0,0,0-.12-.62c0-.18-.07-.37-.14-.68-.35-1.54,0-1.7-.83-2.8a4,4,0,0,0-2.5-1.3,2.26,2.26,0,0,0-.53.17h0l0,0A1,1,0,0,0,75.64,109Z"></path>
      <path class="cls-6" d="M75.83,137a1.61,1.61,0,0,0,1.6-.43c.56-.71.45-1.47.18-1.58a2,2,0,0,0-.45-.09c-.29-.05-.33.71-.34.72Z"></path>
      <path class="cls-7" d="M74.86,136.43s.9.82,1.27.57a7.93,7.93,0,0,1,.82-.47l0-.25a3.38,3.38,0,0,0-1-.33c-.19.05-.51.18-.59.19A4.83,4.83,0,0,0,74.86,136.43Z"></path>
      <path class="cls-8" d="M74.81,136.29c0,.11.12.37.4.28a3.68,3.68,0,0,0,.54-.23s.27-.85.33-1,.15-.2-.25-.06-.46,0-.74.29A1.08,1.08,0,0,0,74.81,136.29Z"></path>
      <path class="cls-9" d="M75.75,136.34a5.92,5.92,0,0,0,.13-.71c0-.32,0-.41.29-.45s.86-.33,1.14-.23.26.09.26.45a1.32,1.32,0,0,1-.39.9.73.73,0,0,1-.78.33A1.81,1.81,0,0,1,75.75,136.34Z"></path>
      <path class="cls-6" d="M64.87,130.75s2.46.13,3.33-1.71.26-3.45-.37-3.58a6.32,6.32,0,0,0-1,0c-.68,0-.38,1.71-.41,1.75S64.87,130.75,64.87,130.75Z"></path>
      <path class="cls-7" d="M62.46,129.9s2.37,1.36,3.07.64,1.57-1.44,1.57-1.44l-.16-.53a7.52,7.52,0,0,0-2.32-.26c-.38.21-1,.64-1.19.71A10.3,10.3,0,0,0,62.46,129.9Z"></path>
      <path class="cls-8" d="M62.27,129.62c.12.22.45.75,1,.41a9.34,9.34,0,0,0,1.08-.77s.18-2,.26-2.34.23-.5-.6,0-1,.32-1.47,1A2.49,2.49,0,0,0,62.27,129.62Z"></path>
      <path class="cls-9" d="M64.37,129.26a10.76,10.76,0,0,0-.06-1.63c-.09-.71-.16-.89.43-1.11s1.73-1.15,2.39-1,.61.07.79.87a3,3,0,0,1-.43,2.15,1.65,1.65,0,0,1-1.55,1.1A4.22,4.22,0,0,1,64.37,129.26Z"></path>
      <path class="cls-6" d="M54.66,138.71s1.92,1.45,3.63.44,2.1-2.64,1.66-3.09a7.06,7.06,0,0,0-.85-.55c-.57-.34-1.24,1.18-1.28,1.2S54.66,138.71,54.66,138.71Z"></path>
      <path class="cls-7" d="M53.18,136.71s1.17,2.39,2.13,2.19,2.06-.3,2.06-.3l.16-.52s-1.33-1.44-1.74-1.48-1.18,0-1.35-.08A9.49,9.49,0,0,0,53.18,136.71Z"></path>
      <path class="cls-8" d="M53.18,136.38c0,.24,0,.85.59.89a10.56,10.56,0,0,0,1.29,0s1.24-1.51,1.5-1.76.46-.27-.48-.33-1-.28-1.74,0A2.38,2.38,0,0,0,53.18,136.38Z"></path>
      <path class="cls-9" d="M55.06,137.24a10.34,10.34,0,0,0,.85-1.35c.32-.63.36-.81,1-.67s2,0,2.5.46.46.39.17,1.13A2.91,2.91,0,0,1,58,138.32a1.62,1.62,0,0,1-1.86,0A4.29,4.29,0,0,1,55.06,137.24Z"></path>
      <path class="cls-6" d="M50.26,132.11a2.73,2.73,0,0,0,.1-2.79c-.88-1.25-2.16-1.43-2.47-1.07a5.29,5.29,0,0,0-.36.69c-.22.46,1,.87,1,.9S50.26,132.11,50.26,132.11Z"></path>
      <path class="cls-7" d="M48.83,133.38s1.75-1,1.53-1.77-.36-1.55-.36-1.55l-.41-.09s-1,1.11-1,1.43,0,.89,0,1A7.6,7.6,0,0,0,48.83,133.38Z"></path>
      <path class="cls-8" d="M48.58,133.4c.18,0,.66,0,.64-.51a7.74,7.74,0,0,0-.11-1s-1.23-.85-1.43-1-.25-.33-.22.39-.16.76.12,1.33A1.82,1.82,0,0,0,48.58,133.4Z"></path>
      <path class="cls-9" d="M49.11,131.91a8.37,8.37,0,0,0-1.08-.56c-.5-.2-.65-.22-.57-.69s-.13-1.55.18-1.94.26-.38.85-.2a2.2,2.2,0,0,1,1.25,1.06,1.23,1.23,0,0,1,.15,1.42A3.3,3.3,0,0,1,49.11,131.91Z"></path>
      <path class="cls-6" d="M41.58,134.18A1.21,1.21,0,0,0,42,133c-.21-.63-.71-.87-.89-.76s-.16.17-.24.24.3.49.3.5S41.58,134.18,41.58,134.18Z"></path>
      <path class="cls-7" d="M40.83,134.52s.85-.21.86-.54,0-.69,0-.69l-.16-.09s-.55.33-.6.46-.09.38-.12.44A3.32,3.32,0,0,0,40.83,134.52Z"></path>
      <path class="cls-8" d="M40.72,134.49a.22.22,0,0,0,.33-.13,2.46,2.46,0,0,0,.08-.42s-.4-.5-.46-.61-.06-.16-.15.14-.15.29-.12.56A.8.8,0,0,0,40.72,134.49Z"></path>
      <path class="cls-9" d="M41.13,133.94a4.62,4.62,0,0,0-.38-.37c-.18-.14-.24-.17-.15-.35s.15-.66.33-.78.15-.13.37,0a1,1,0,0,1,.39.6.56.56,0,0,1-.12.61A1.4,1.4,0,0,1,41.13,133.94Z"></path>
      <path class="cls-6" d="M38.92,139s1.68-2.71.14-4.85-3.75-2.45-4.3-1.81a9.78,9.78,0,0,0-.61,1.19c-.38.79,1.7,1.5,1.73,1.55S38.92,139,38.92,139Z"></path>
      <path class="cls-7" d="M36.45,141.17s3-1.83,2.64-3.08a25.61,25.61,0,0,1-.65-2.68l-.71-.15S36,137.19,36,137.74s.09,1.55.07,1.79A12.13,12.13,0,0,0,36.45,141.17Z"></path>
      <path class="cls-8" d="M36,141.22c.31,0,1.13,0,1.1-.9a11.88,11.88,0,0,0-.2-1.7s-2.14-1.45-2.5-1.76-.42-.58-.38.67-.25,1.32.23,2.3A3.18,3.18,0,0,0,36,141.22Z"></path>
      <path class="cls-9" d="M36.92,138.62a14.72,14.72,0,0,0-1.89-1c-.86-.34-1.11-.37-1-1.18s-.23-2.68.3-3.36.45-.66,1.47-.36A3.74,3.74,0,0,1,38,134.59a2.1,2.1,0,0,1,.28,2.44A5.34,5.34,0,0,1,36.92,138.62Z"></path>
      <path class="cls-10" d="M57.58,87.47l2.19,0c.95,1.6,1.9,3.21,2.86,4.81a8.08,8.08,0,0,0,4.23,3.51l1.38.49c.06,0,.14.21.11.25s-.25.32-.35.3a8.39,8.39,0,0,1-6.23-4c-.51-.79-.72-1.8-1.63-2.42a12.11,12.11,0,0,0,.33,6.69q1.86,5.76,3.7,11.52a6.24,6.24,0,0,1,.24,1.14c0,.1-.19.25-.32.34a.34.34,0,0,1-.25-.13c-.16-.34-.31-.7-.45-1.06a30.82,30.82,0,0,0-2.8-5.87c-.26.77-.47,1.25-.6,1.76-.71,2.66-1.38,5.33-2.11,8a6.06,6.06,0,0,1-.79,1.29c-.61-1.19-.09-2.1.16-3A35.06,35.06,0,0,0,58.76,103a15.73,15.73,0,0,0-.41-5,20.24,20.24,0,0,1-.41-2.87c-1,.07-1.38.84-1.94,1.34s-1,1.18-1.6,1.73c-.14.14-.46.13-.7.11a.74.74,0,0,1-.08-.52,11.48,11.48,0,0,1,1.25-1.94c.72-.81,1.57-1.5,2.31-2.28.15-.16.1-.51.14-.77a2.21,2.21,0,0,0-.74.14c-1.65.88-3.27,1.82-4.94,2.67s-3.53,1.76-4.71,3.58a3,3,0,0,1,.15-1.06,7,7,0,0,1,3-2.74c1.56-.84,3.08-1.74,4.66-2.55,2-1,3-2.5,2.7-4.77A1.72,1.72,0,0,1,57.58,87.47Z"></path>
      <polygon class="cls-11" points="0 67.57 59.15 92.28 112.9 69.49 59.15 50.53 0 67.57"></polygon>
      <path class="cls-12" d="M74.85,10.76c.51-.57,1-1.12,1.52-1.71a4.66,4.66,0,0,0,.76-5,4.48,4.48,0,0,0-3.78-2.92,6.93,6.93,0,0,0-6,1.78,13,13,0,0,0-3,4,18.63,18.63,0,0,0,.08,16.29,1.1,1.1,0,0,0,1.42.7,13.69,13.69,0,0,0,1.45-.23,1.28,1.28,0,0,0,.72-.76,3.85,3.85,0,0,1,2.7-2.86,11.07,11.07,0,0,1,5.17-1c.79.06.85.16.61,1.15-.07.27-.12.55-.19.86a19.67,19.67,0,0,1,2.52.95,12.91,12.91,0,0,1,2.45,1.6c.94.8,1,1.07.22,2.23a1.6,1.6,0,0,0-.26,1.61c.55,1.58,1.11,3.16,1.54,4.78a11.12,11.12,0,0,1,.12,5.59,23.75,23.75,0,0,1-6.32-1.6c-.58-.19-.93.06-.84.75.06.47-.21.8-.66.76-2.73-.28-5.51-.36-8.13-2-.58,1.29-1.15,2.5-1.67,3.72a15.45,15.45,0,0,0-1.57,3.71c2.68-.54,5.18-.74,7.56.61a10.19,10.19,0,0,1,4.54,5.9c2.19-1.26,2.64-1.28,4.63-.2a12.59,12.59,0,0,1,1.74,1.12c2.33,1.82,2.92,3.64,1.94,6.47a20.71,20.71,0,0,1-1.63,3.13c-.6,1.1-1.25,2.18-2,3.48a22,22,0,0,1-2.09-1.12c-.81-.37-1.6-.78-2.4-1.15s-1.46-.6-2.18-.93-1.62-.72-2.39-1.16A9.47,9.47,0,0,1,67,54.38a5.88,5.88,0,0,1,0-4.05,4.13,4.13,0,0,1,4.51-3,19.19,19.19,0,0,1,2,.37c0-1.07-.81-1.53-1.42-2.08a7.16,7.16,0,0,0-6.32-1.75,4.78,4.78,0,0,0-4.16,3.66,23,23,0,0,0-.84,6.43c.08,3,.28,6.1.4,9.15,0,1.08,0,2.17,0,3.25l-2.2,0c-.09-4.23-.24-8.47-.24-12.71a32.29,32.29,0,0,1,.55-5A10.87,10.87,0,0,0,59,43.34a7.52,7.52,0,0,0-5.71-5.41c-1.2-.26-1.61,0-1.74,1.24a5.42,5.42,0,0,1-1.72,3.34q-1.66,1.68-3.37,3.32c-.55.54-1.07,1.22-2,.56-.16-.1-.71.2-1,.44a11.81,11.81,0,0,0-3,5.05c-.19.63-.4,1.25-.75,2.32a16.17,16.17,0,0,1-.93-1.91,31.73,31.73,0,0,1-1.53-8.7c0-.82-.22-1.35-1.21-1.09a.54.54,0,0,1-.4-.3,3.29,3.29,0,0,1-.1-1.16,11.81,11.81,0,0,1,5.93-8.4A3.57,3.57,0,0,1,46.87,35c.18.8.43,1.32,1.33,1.08,1.19-.31,2,.62,3.07.8a30.62,30.62,0,0,1,3.19.46,8.35,8.35,0,0,1,5,4.33c.33.6.55,1.26.89,1.85a.71.71,0,0,0,.68,0,2.9,2.9,0,0,0,.59-2.5c-.23-1.36-.53-2.71-.8-4.06s-.59-2.49-.74-3.76a8,8,0,0,1,2.41-7.27,1.81,1.81,0,0,0,.46-2.36,21.51,21.51,0,0,1-1.52-11.86A15.8,15.8,0,0,0,61.54,9a5.89,5.89,0,0,0-.4-2c-.82-2-2.36-2.51-4.35-1.72A5.54,5.54,0,0,0,54.2,7.62a3.89,3.89,0,0,0-.31,1.1,2.85,2.85,0,0,0,1,.24,3.23,3.23,0,0,1,2.29.09,5.2,5.2,0,0,1,2.09,2.43c.59,1.34.3,2-1.23,2.58a6.18,6.18,0,0,0-3.75,3.53,1,1,0,0,1-1.42.63c-1.32-.37-2.65-.73-4-1a1.73,1.73,0,0,0-1.32.4C46.35,18.77,45.21,20,44,21.18a5.19,5.19,0,0,0-1.49,2.49c-.11.46-.58.5-.91.16a8.62,8.62,0,0,1-2.29-5,14.88,14.88,0,0,1,0-3.83,19.22,19.22,0,0,0,.21-4.36c-.2-2.31,1.3-3.83,3.27-4.82a7.66,7.66,0,0,1,4.89-.68c1.92.36,3.87.58,5.47,1.76,3.9-4.1,7.42-3.67,9.45.53.38-.63.65-1.2,1-1.69A28.82,28.82,0,0,1,66.4,2.27,8,8,0,0,1,73.49.12a6,6,0,0,1,4.78,4.66,5.46,5.46,0,0,1-2.88,5.92c-.15.08-.39,0-.58,0ZM62.67,40.34l1.12-1.92a3.51,3.51,0,0,0,.05-4.09,6.14,6.14,0,0,1-.17-6.23,5.5,5.5,0,0,0,.4-1.09.61.61,0,0,0-.17-.53.52.52,0,0,0-.51,0,5.38,5.38,0,0,0-2.31,4.26,25.55,25.55,0,0,0,.38,4.7C61.69,36.92,62.16,38.33,62.67,40.34Z"></path>
      <path class="cls-12" d="M74.81,10.71c-.78,1.11-1.92.58-2.91.58a1.72,1.72,0,0,1-1.81-1.16l0,0a10.94,10.94,0,0,0,4.81.59Z"></path>
      <path class="cls-12" d="M69.47,6.58c-.34,1.28.33,2.4.57,3.59l0,0c-1.34-1.25-1.46-2-.57-3.51Z"></path>
      <path class="cls-12" d="M69.52,6.62c0-.41.18-.61.6-.58l0,0-.61.58Z"></path>
      <path class="cls-12" d="M70.12,6l.15-.43c.44.38-.14.25-.2.39Z"></path>
      <path class="cls-6" d="M55.56,77.7A1.63,1.63,0,0,0,54,77.12c-.87.27-1.22,1-1.07,1.21a3.14,3.14,0,0,0,.32.33c.22.21.68-.39.7-.4S55.56,77.7,55.56,77.7Z"></path>
      <path class="cls-7" d="M56,78.75s-.27-1.19-.72-1.2-.95-.08-.95-.08l-.13.21s.45.78.63.84l.59.18A4.86,4.86,0,0,0,56,78.75Z"></path>
      <path class="cls-8" d="M56,78.9c0-.11.11-.38-.18-.46a3.22,3.22,0,0,0-.58-.12s-.71.54-.85.62-.23.07.18.2.41.22.78.18A1.12,1.12,0,0,0,56,78.9Z"></path>
      <path class="cls-9" d="M55.22,78.32a5,5,0,0,0-.52.51c-.2.24-.24.32-.49.19s-.91-.21-1.07-.46-.17-.23,0-.53a1.38,1.38,0,0,1,.84-.51.74.74,0,0,1,.83.18A2,2,0,0,1,55.22,78.32Z"></path>
      <path class="cls-6" d="M52,57.55a2.41,2.41,0,0,0-2.44-.34c-1.16.65-1.44,1.74-1.16,2a5.07,5.07,0,0,0,.57.38c.38.23.85-.77.88-.78Z"></path>
      <path class="cls-7" d="M53,58.92s-.76-1.62-1.4-1.5-1.39.17-1.39.17l-.12.35s.87,1,1.15,1,.79,0,.91.07A6.88,6.88,0,0,0,53,58.92Z"></path>
      <path class="cls-8" d="M53,59.14c0-.15,0-.57-.39-.6a5.45,5.45,0,0,0-.87,0s-.85,1-1,1.16-.31.18.32.22.65.21,1.17,0A1.63,1.63,0,0,0,53,59.14Z"></path>
      <path class="cls-9" d="M51.69,58.54a9.73,9.73,0,0,0-.59.89c-.22.42-.25.54-.65.44s-1.36,0-1.67-.35-.31-.26-.1-.76a1.93,1.93,0,0,1,1-1,1.07,1.07,0,0,1,1.24,0A2.82,2.82,0,0,1,51.69,58.54Z"></path>
      <path class="cls-6" d="M47.17,65s-5-2.51-8.53.55-3.67,7-2.47,7.83a16.32,16.32,0,0,0,2.2.88c1.44.53,2.34-3.24,2.43-3.29S47.17,65,47.17,65Z"></path>
      <path class="cls-7" d="M51.45,68.9s-3.72-5-5.84-4.11A48.1,48.1,0,0,1,41,66.37l-.14,1.27s3.66,2.72,4.63,2.64,2.71-.4,3.14-.41A21.3,21.3,0,0,0,51.45,68.9Z"></path>
      <path class="cls-8" d="M51.59,69.66c0-.55-.25-2-1.75-1.78a22.18,22.18,0,0,0-3,.63s-2.2,4-2.68,4.67-.94.83,1.24.55,2.36.23,4-.77A5.59,5.59,0,0,0,51.59,69.66Z"></path>
      <path class="cls-9" d="M46.89,68.51A25.24,25.24,0,0,0,45.52,72c-.46,1.58-.48,2-1.91,1.94s-4.66.85-6,0-1.23-.7-.87-2.53,1.2-2.69,2.85-4.12a3.73,3.73,0,0,1,4.25-.89A9.72,9.72,0,0,1,46.89,68.51Z"></path>
      <path class="cls-6" d="M64.51,66s-4.2-2.48-7.43,0-3.61,5.84-2.62,6.65a13.53,13.53,0,0,0,1.85.89c1.23.56,2.23-2.66,2.31-2.7S64.51,66,64.51,66Z"></path>
      <path class="cls-7" d="M68,69.69s-2.93-4.55-4.82-3.92-4.09,1.1-4.09,1.1L58.88,68s3,2.58,3.86,2.56,2.38-.18,2.75-.16A17.74,17.74,0,0,0,68,69.69Z"></path>
      <path class="cls-8" d="M68.07,70.36c0-.48-.1-1.73-1.41-1.65a18.79,18.79,0,0,0-2.61.37S61.91,72.4,61.45,73s-.87.66,1,.55,2,.34,3.52-.43A4.87,4.87,0,0,0,68.07,70.36Z"></path>
      <path class="cls-9" d="M64.05,69.08A22,22,0,0,0,62.65,72c-.48,1.34-.53,1.72-1.77,1.57s-4.1.45-5.16-.33-1-.68-.61-2.25,1.21-2.26,2.72-3.4a3.27,3.27,0,0,1,3.75-.52A8.32,8.32,0,0,1,64.05,69.08Z"></path>
      <path class="cls-6" d="M75.65,61.55s-4.15-3.2-7.91-1-4.63,5.74-3.68,6.73a13.6,13.6,0,0,0,1.85,1.2c1.23.75,2.74-2.54,2.82-2.57S75.65,61.55,75.65,61.55Z"></path>
      <path class="cls-7" d="M78.86,66s-2.51-5.24-4.61-4.83-4.5.62-4.5.62l-.36,1.13s2.87,3.16,3.77,3.26,2.56.12,3,.2A20.74,20.74,0,0,0,78.86,66Z"></path>
      <path class="cls-8" d="M78.86,66.68c0-.52.12-1.86-1.29-2a20.75,20.75,0,0,0-2.82,0S72,68,71.45,68.57s-1,.59,1,.73,2.12.63,3.81,0A5.27,5.27,0,0,0,78.86,66.68Z"></path>
      <path class="cls-9" d="M74.75,64.77a23.93,23.93,0,0,0-1.88,2.93c-.7,1.36-.8,1.76-2.1,1.43s-4.43-.06-5.46-1-1-.86-.34-2.48,1.59-2.25,3.35-3.25a3.5,3.5,0,0,1,4.06-.06A9,9,0,0,1,74.75,64.77Z"></path>
      <path class="cls-6" d="M78.87,75a2.52,2.52,0,0,0,2.3-1.14c.62-1.25.22-2.36-.21-2.46a4.31,4.31,0,0,0-.71,0c-.47,0-.28,1.17-.3,1.2S78.87,75,78.87,75Z"></path>
      <path class="cls-7" d="M77.23,74.36s1.6,1,2.09.47a14.45,14.45,0,0,1,1.1-1l-.11-.37a5,5,0,0,0-1.59-.19c-.26.13-.71.42-.83.47A7.19,7.19,0,0,0,77.23,74.36Z"></path>
      <path class="cls-8" d="M77.1,74.17c.08.15.3.52.69.29a6.35,6.35,0,0,0,.75-.51s.15-1.36.2-1.61.17-.34-.41,0-.68.21-1,.68A1.7,1.7,0,0,0,77.1,74.17Z"></path>
      <path class="cls-9" d="M78.54,74a7.29,7.29,0,0,0,0-1.12c-.06-.49-.1-.62.3-.76s1.2-.78,1.65-.7.42,0,.53.6a2,2,0,0,1-.31,1.47,1.12,1.12,0,0,1-1.08.74A2.9,2.9,0,0,1,78.54,74Z"></path>
      <path class="cls-6" d="M39.37,75.86s2.13.29,3-1.25.48-3-.06-3.15a5.93,5.93,0,0,0-.91,0c-.59,0-.45,1.46-.48,1.49S39.37,75.86,39.37,75.86Z"></path>
      <path class="cls-7" d="M37.33,75s2,1.35,2.63.77,1.47-1.13,1.47-1.13l-.1-.48a6.55,6.55,0,0,0-2-.39c-.34.15-.93.48-1.09.53A8.17,8.17,0,0,0,37.33,75Z"></path>
      <path class="cls-8" d="M37.18,74.69c.09.19.34.69.86.43a7.41,7.41,0,0,0,1-.59s.31-1.72.41-2,.23-.42-.52-.05-.89.2-1.37.77A2.2,2.2,0,0,0,37.18,74.69Z"></path>
      <path class="cls-9" d="M39,74.53a9.38,9.38,0,0,0,.08-1.43c0-.63-.08-.79.45-.93s1.59-.89,2.16-.75.53.11.63.82a2.59,2.59,0,0,1-.53,1.84,1.45,1.45,0,0,1-1.44.85A3.83,3.83,0,0,1,39,74.53Z"></path>
      <path class="cls-6" d="M53.26,67.93a1.85,1.85,0,0,0,1.87.33c.92-.48,1.17-1.32.95-1.57a4.27,4.27,0,0,0-.43-.3c-.29-.19-.68.58-.7.58Z"></path>
      <path class="cls-7" d="M52.54,66.85s.55,1.27,1.05,1.2a10.27,10.27,0,0,1,1.08-.1l.09-.27s-.65-.78-.86-.81-.61-.06-.7-.08A5.17,5.17,0,0,0,52.54,66.85Z"></path>
      <path class="cls-8" d="M52.55,66.68c0,.12,0,.44.29.48a6.42,6.42,0,0,0,.67,0s.68-.75.82-.87.25-.14-.24-.19-.5-.17-.91,0A1.28,1.28,0,0,0,52.55,66.68Z"></path>
      <path class="cls-9" d="M53.51,67.18A7,7,0,0,0,54,66.5c.18-.32.2-.41.51-.32s1,.06,1.29.3.23.22.05.59a1.51,1.51,0,0,1-.83.75.83.83,0,0,1-1,0A2.22,2.22,0,0,1,53.51,67.18Z"></path>
      <path class="cls-6" d="M70.15,75.07s4.71,1.14,7.08-2.11,1.76-6.59.58-7.07a12.61,12.61,0,0,0-2-.32c-1.32-.17-1.35,3.18-1.42,3.24S70.15,75.07,70.15,75.07Z"></path>
      <path class="cls-7" d="M65.78,72.55s4.1,3.49,5.72,2.34,3.57-2.21,3.57-2.21l-.13-1.09S71.33,70,70.53,70.25s-2.21.86-2.57,1A18.69,18.69,0,0,0,65.78,72.55Z"></path>
      <path class="cls-8" d="M65.51,71.94c.15.46.6,1.62,1.82,1.17A19.45,19.45,0,0,0,69.7,72s1.08-3.78,1.36-4.45.63-.89-1.15-.23-2,.26-3.23,1.42A4.88,4.88,0,0,0,65.51,71.94Z"></path>
      <path class="cls-9" d="M69.7,72a22.74,22.74,0,0,0,.49-3.18c.08-1.42,0-1.79,1.24-2s3.76-1.61,5-1.17,1.17.35,1.22,2-.49,2.5-1.6,4a3.24,3.24,0,0,1-3.41,1.57A8.42,8.42,0,0,1,69.7,72Z"></path>
      <path class="cls-6" d="M48.42,72.34s2.83,1.59,4.94-.07,2.32-3.93,1.65-4.45a8.33,8.33,0,0,0-1.24-.57c-.82-.35-1.45,1.8-1.5,1.83S48.42,72.34,48.42,72.34Z"></path>
      <path class="cls-7" d="M46.06,69.93s2,3,3.26,2.55,2.7-.79,2.7-.79l.12-.72s-2-1.68-2.6-1.66-1.58.15-1.83.15A12.9,12.9,0,0,0,46.06,69.93Z"></path>
      <path class="cls-8" d="M46,69.49c0,.32.09,1.15,1,1.08a12.33,12.33,0,0,0,1.72-.28s1.39-2.24,1.69-2.62.56-.45-.71-.35-1.35-.2-2.33.33A3.27,3.27,0,0,0,46,69.49Z"></path>
      <path class="cls-9" d="M48.68,70.29a14.75,14.75,0,0,0,.9-2c.3-.9.33-1.15,1.15-1.06s2.72-.36,3.44.15.69.43.43,1.48a3.89,3.89,0,0,1-1.76,2.3,2.16,2.16,0,0,1-2.48.39A5.59,5.59,0,0,1,48.68,70.29Z"></path>
    </g>
  </g>
</svg>
