<?xml version="1.0" encoding="UTF-8"?>
<svg xmlns="http://www.w3.org/2000/svg" xmlns:xlink="http://www.w3.org/1999/xlink" viewBox="0 0 143.09 300.41">
  <defs>
    <style>.cls-1{fill:none;}.cls-2{fill:#956d4b;}.cls-3{clip-path:url(#clip-path);}.cls-4{fill:url(#Безымянный_градиент_2);}.cls-5{fill:#754120;}.cls-6{fill:#44281c;}.cls-7{fill:#6c3c1d;}.cls-8{fill:#714d31;}.cls-9{fill:#613822;}.cls-10{fill:#7f5637;}.cls-11{fill:#a07850;}.cls-12{fill:#c5ba9f;}.cls-13{fill:#8b5b3c;}.cls-14{fill:#d3712e;}.cls-15{fill:#a37e4e;}.cls-16{fill:#de982d;}.cls-17{fill:#a2a732;}.cls-18{fill:#613922;}</style>
    <clipPath id="clip-path">
      <polygon class="cls-1" points="23.41 271.74 73.38 295.25 119.6 271.85 71.54 251.49 23.41 271.74"></polygon>
    </clipPath>
    <linearGradient id="Безымянный_градиент_2" x1="-2336.61" y1="-174.23" x2="-2333.81" y2="-174.23" gradientTransform="matrix(34.36, 0, 0, -34.36, 80289.02, -5712.52)" gradientUnits="userSpaceOnUse">
      <stop offset="0" stop-color="#a17551"></stop>
      <stop offset="0.38" stop-color="#a17551"></stop>
      <stop offset="0.89" stop-color="#7a4928"></stop>
      <stop offset="1" stop-color="#72401f"></stop>
    </linearGradient>
  </defs>
  <g id="Слой_2" data-name="Слой 2">
    <g id="Слой_1-2" data-name="Слой 1">
      <path class="cls-2" d="M73.37,229.1S83,240.4,90.43,240.86s32.81-7.56,32.81-7.56l2.56-26.43-52.43-18.5Z"></path>
      <path class="cls-2" d="M15.68,205l5.23,34.48s18.58,2.79,21.83,1.86,18.12-6.51,22.3-6.51,8.33-5.72,8.33-5.72V188.37Z"></path>
      <g class="cls-3">
        <rect class="cls-4" x="47.07" y="224.17" width="48.87" height="98.4" transform="translate(-205.31 330.09) rotate(-86.92)"></rect>
      </g>
      <path class="cls-5" d="M23.41,271.73l-2.5-32.26s23.69-.47,30.2-3.72,22.27-6.65,22.27-6.65l-1.84,22.39Z"></path>
      <path class="cls-6" d="M57.17,241.47a8.52,8.52,0,0,0-2.83-1.67v0s-3.78-1.13-5.85,1.42-1.7,5.29-.77,5.73a11.08,11.08,0,0,0,1.63.34l.1,0a28,28,0,0,0,3.5-.8,1.86,1.86,0,0,0,.61-.15l.65-.19c1.48-.46,1.66-.13,2.69-1A4,4,0,0,0,58,242.52l-.21-.5h0l0,0a1,1,0,0,0-.59-.51"></path>
      <path class="cls-6" d="M36.89,244.8a11,11,0,0,0-4,1.33v0s-4.3,2.69-3.59,6.84,3.66,6.13,4.88,5.6a13.64,13.64,0,0,0,1.71-1.28l0-.13c.92-1.06,1.6-3.16,2.21-4.06a2.18,2.18,0,0,0,.36-.72c.1-.2.21-.42.37-.79.81-1.81,1.28-1.71,1.29-3.45a5.12,5.12,0,0,0-1.54-3.21,3.47,3.47,0,0,0-.65-.22v0h-.07a1.3,1.3,0,0,0-1,.14"></path>
      <path class="cls-7" d="M73.37,229.1l-1.83,22.39,48.06,20.36,3.64-38.55s-15-1.73-21.48-.8-17.83,3.71-21.24,1.86a45.07,45.07,0,0,1-7.15-5.26"></path>
      <path class="cls-6" d="M55.07,252.1a3.48,3.48,0,0,0-1.25-.31h0a2.31,2.31,0,0,0-2,1.19c-.49,1.18-.05,2.17.35,2.24l.65-.06,0,0a11.31,11.31,0,0,0,1.22-.68l.21-.13.23-.15c.5-.33.61-.23.89-.68a1.52,1.52,0,0,0,.12-1.08l-.13-.16h0Z"></path>
      <path class="cls-6" d="M102.15,242.46a2.3,2.3,0,0,0-.11-.89h0s-.38-1-1.27-1-1.43.5-1.37.78l.2.41h0l.75.63.14.11.14.11c.35.24.31.33.67.41a1,1,0,0,0,.73-.19l.07-.12h0v-.23Z"></path>
      <path class="cls-6" d="M115.58,258.65a11,11,0,0,0-1.91-3.82h0s-3.31-3.91-7.35-2.6-5.6,4.54-4.89,5.68a13.64,13.64,0,0,0,1.53,1.53l.13,0c1.19.76,3.39,1.13,4.37,1.61a2.47,2.47,0,0,0,.77.26l.84.25c1.94.55,1.9,1,3.64.79a5.15,5.15,0,0,0,3-2,3,3,0,0,0,.13-.69h0v-.08a1.29,1.29,0,0,0-.28-1"></path>
      <path class="cls-6" d="M89.46,245.36a8.37,8.37,0,0,0-1.87,2.69v0s-1.4,3.67,1,5.9,5.11,2.08,5.62,1.19a11,11,0,0,0,.46-1.59l0-.1a27.58,27.58,0,0,0-.52-3.53,1.75,1.75,0,0,0-.11-.61c0-.17-.07-.36-.14-.66-.34-1.5,0-1.65-.81-2.74a3.92,3.92,0,0,0-2.44-1.26l-.51.17v0l0,0a1,1,0,0,0-.54.54"></path>
      <path class="cls-8" d="M89.64,272.74a1.59,1.59,0,0,0,1.57-.42c.54-.69.43-1.43.17-1.54l-.44-.09c-.29,0-.31.69-.33.71Z"></path>
      <path class="cls-9" d="M88.7,272.16s.88.79,1.24.55a8.71,8.71,0,0,1,.8-.46l0-.24-1-.32-.57.19Z"></path>
      <path class="cls-10" d="M88.64,272c0,.11.12.36.4.27a4.65,4.65,0,0,0,.53-.22l.32-1c.07-.15.15-.19-.25-.06s-.45,0-.72.29a1.09,1.09,0,0,0-.28.69"></path>
      <path class="cls-11" d="M89.57,272.07a4.61,4.61,0,0,0,.12-.7c0-.31,0-.39.29-.43s.83-.33,1.1-.22.26.08.26.44A1.22,1.22,0,0,1,91,272a.71.71,0,0,1-.76.33,1.79,1.79,0,0,1-.63-.28"></path>
      <path class="cls-8" d="M79,266.61s2.39.13,3.25-1.67.25-3.36-.37-3.48a6.11,6.11,0,0,0-1,0c-.65,0-.37,1.66-.39,1.7Z"></path>
      <path class="cls-9" d="M76.61,265.79s2.3,1.32,3,.62a19.37,19.37,0,0,1,1.53-1.4l-.16-.52a7.19,7.19,0,0,0-2.26-.25c-.37.2-1,.62-1.16.69Z"></path>
      <path class="cls-10" d="M76.42,265.52c.11.2.44.73,1,.4a9.74,9.74,0,0,0,1-.75s.19-1.94.26-2.29.23-.48-.58,0-1,.31-1.44,1a2.41,2.41,0,0,0-.28,1.66"></path>
      <path class="cls-11" d="M78.46,265.17a11.05,11.05,0,0,0,0-1.59c-.09-.7-.15-.87.42-1.09s1.68-1.12,2.33-1,.6.06.77.84a2.89,2.89,0,0,1-.42,2.1A1.6,1.6,0,0,1,80,265.48a4.2,4.2,0,0,1-1.54-.31"></path>
      <path class="cls-8" d="M69,274.38s1.87,1.42,3.54.43,2-2.58,1.62-3a7.68,7.68,0,0,0-.83-.53c-.56-.33-1.22,1.15-1.25,1.16Z"></path>
      <path class="cls-9" d="M67.55,272.43s1.14,2.33,2.08,2.14,2-.3,2-.3l.15-.51s-1.29-1.4-1.69-1.43-1.15-.05-1.32-.08Z"></path>
      <path class="cls-10" d="M67.55,272.11c0,.23,0,.83.58.86a8.3,8.3,0,0,0,1.26,0l1.46-1.7c.25-.25.45-.28-.47-.33s-.95-.27-1.7,0a2.36,2.36,0,0,0-1.13,1.19"></path>
      <path class="cls-11" d="M69.39,272.94a11.08,11.08,0,0,0,.83-1.31c.31-.61.35-.79.93-.65s2,0,2.44.44.45.38.17,1.11A2.81,2.81,0,0,1,72.27,274a1.56,1.56,0,0,1-1.81,0,3.92,3.92,0,0,1-1.07-1.09"></path>
      <path class="cls-8" d="M64.71,267.94a2.66,2.66,0,0,0,.09-2.72c-.86-1.21-2.1-1.39-2.41-1l-.35.67c-.21.45,1,.85,1,.88Z"></path>
      <path class="cls-9" d="M63.31,269.18s1.7-1,1.5-1.73-.36-1.51-.36-1.51l-.4-.09s-1,1.09-1,1.4,0,.87,0,1Z"></path>
      <path class="cls-10" d="M63.07,269.2c.18,0,.64,0,.62-.5a6,6,0,0,0-.11-1l-1.4-1c-.2-.17-.23-.32-.21.38s-.15.74.12,1.3a1.75,1.75,0,0,0,1,.78"></path>
      <path class="cls-11" d="M63.58,267.74a7.93,7.93,0,0,0-1.06-.54c-.48-.2-.62-.22-.55-.67s-.12-1.51.18-1.89.26-.37.83-.2a2.15,2.15,0,0,1,1.22,1,1.2,1.2,0,0,1,.14,1.39,3,3,0,0,1-.76.88"></path>
      <path class="cls-8" d="M56.24,270a1.17,1.17,0,0,0,.39-1.12c-.21-.61-.7-.85-.87-.74l-.23.24.29.48Z"></path>
      <path class="cls-9" d="M55.5,270.29s.84-.21.84-.52a5.52,5.52,0,0,1,0-.67l-.16-.09-.58.45-.12.42Z"></path>
      <path class="cls-10" d="M55.4,270.27l.32-.13.08-.41-.45-.59c-.06-.1-.06-.17-.14.13s-.15.29-.12.55a.8.8,0,0,0,.31.45"></path>
      <path class="cls-11" d="M55.8,269.73l-.37-.36-.15-.35.32-.76.37,0a.91.91,0,0,1,.37.59.51.51,0,0,1-.11.59Z"></path>
      <path class="cls-8" d="M53.64,274.63s1.64-2.64.14-4.73-3.66-2.38-4.19-1.77a10.23,10.23,0,0,0-.6,1.17c-.37.77,1.66,1.46,1.69,1.51Z"></path>
      <path class="cls-9" d="M51.24,276.78s2.94-1.79,2.57-3a26.63,26.63,0,0,1-.64-2.62l-.69-.14s-1.69,1.88-1.69,2.42.08,1.51.06,1.75Z"></path>
      <path class="cls-10" d="M50.81,276.82c.31,0,1.11,0,1.08-.87a11.34,11.34,0,0,0-.2-1.66s-2.08-1.41-2.43-1.72-.41-.56-.37.66-.25,1.29.22,2.24a3.06,3.06,0,0,0,1.7,1.35"></path>
      <path class="cls-11" d="M51.69,274.29a14.53,14.53,0,0,0-1.83-.93c-.85-.33-1.09-.37-1-1.16s-.22-2.61.29-3.28.45-.64,1.44-.34a3.62,3.62,0,0,1,2.12,1.78,2.07,2.07,0,0,1,.28,2.38,5.3,5.3,0,0,1-1.32,1.55"></path>
      <path class="cls-12" d="M116.37,252.66a7.24,7.24,0,0,0-1.29-2.35,5.89,5.89,0,0,0-2.58-1.73,4.45,4.45,0,0,0-1.84-.21,4.26,4.26,0,0,0-1.77.58,18.44,18.44,0,0,0-2,1.73,5.76,5.76,0,0,1-4,1,10.07,10.07,0,0,1-4.32-1.47,40.45,40.45,0,0,1-4-2.83l-4-3.09q-7.51-6-14.6-12.37c.06-.29.12-.59.17-.89.2-1.09.33-2.18.43-3.28l1,1.53c.71,1.13,1.35,2.19,2.17,3.44a16.1,16.1,0,0,0,3.44,3.84,13.14,13.14,0,0,0,5.77,2.53,16.31,16.31,0,0,0,6.1-.14,23.3,23.3,0,0,0,5.06-1.69,31.52,31.52,0,0,0,4.2-2.41c.66-.44,1.28-.91,1.89-1.37l.9-.72c.25-.21.42-.35.6-.48h0c.32.24.63.49,1,.7a16,16,0,0,0,2.35,1.31c.54.25,1.09.47,1.64.67a4.89,4.89,0,0,1,2.72-1.09,48.41,48.41,0,0,0,11.58-2.36c-4.72-.41-9.31-.88-12.43-2.55a10.17,10.17,0,0,1-1.29-.82c-.22-.14-.37-.32-.57-.47s-.39-.37-.9-.77a23.11,23.11,0,0,1,3.37-1.45c.79-.28,1.61-.52,2.44-.75a4.7,4.7,0,0,1-.65-1.94c-.89.22-1.78.45-2.67.73a26.39,26.39,0,0,0-5.16,2.21,7.25,7.25,0,0,0-2.72,0,9.5,9.5,0,0,0-3.36,1.48c-.39.26-.77.55-1.07.78l-.74.55c-.51.35-1,.7-1.54,1a26.8,26.8,0,0,1-3.21,1.7,10.4,10.4,0,0,1-5.83,1.06,4.45,4.45,0,0,1-2-.92,10.66,10.66,0,0,1-1.89-2.2c-.63-1-1.35-2.14-2-3.24l-2.1-3.35-2.09-3.35a3.46,3.46,0,0,0-.62-.87c1.63.31,3.3.75,5,1.24a68.48,68.48,0,0,0,10.42,2.52,31.12,31.12,0,0,0,11-.76,85.84,85.84,0,0,0,9.93-3.15.5.5,0,0,0,.34-.61.61.61,0,0,0-.73-.35,87.37,87.37,0,0,1-10,2,27.46,27.46,0,0,1-9.73-.36,63.48,63.48,0,0,1-9.25-3.39,38,38,0,0,0-10.76-3.11H76a3,3,0,0,0-.42,0,3.5,3.5,0,0,0-1.49.34,3.48,3.48,0,0,0-.56-.34A2.47,2.47,0,0,0,72,210.65a2.94,2.94,0,0,0-3.63,1.16l-.13.24a12.13,12.13,0,0,0-.59,1.34l-.68,1.3c-.29.41-.55.84-.85,1.25s-.64.8-1,1.18a23.71,23.71,0,0,1-5.22,4.09l-.79.44-.06-.11a5.66,5.66,0,0,0-1.5-1.31,8.05,8.05,0,0,0-3.65-1,8.71,8.71,0,0,0-1.9.12,7.9,7.9,0,0,0-1.76.55,10.6,10.6,0,0,0-2.77,1.73,33,33,0,0,0-3.82,4.17l-.84,1a12.57,12.57,0,0,1-1.52-.92c-1-.69-2.11-1.5-3.28-2.28a9,9,0,0,1-3.87-.3,24.6,24.6,0,0,0-2.37-.68c-1.3-.31-1.54-.34-.74-.12l-.79,0a12,12,0,0,0-1.32.43c-.17.29-.33.58-.48.88a8.35,8.35,0,0,1,4.35.89,42.52,42.52,0,0,1,5.82,4c.51.35,1.06.76,1.71,1.14l-.06.07a74.57,74.57,0,0,0-6.13,8.84c-1.82,3.09-3,6.33-5.18,9.05a.48.48,0,0,0,.13.7.66.66,0,0,0,.83-.09c2.49-2.8,3.88-6.07,5.81-8.94q1.37-2.07,2.93-4.06l-.19,6.9a31.72,31.72,0,0,1-.33,4.86,6.77,6.77,0,0,1-2.13,4,40.11,40.11,0,0,1-4.43,3,15.79,15.79,0,0,0-4,3.94,32.86,32.86,0,0,0-4.2,9.51v0a.5.5,0,0,0,.42.62.61.61,0,0,0,.73-.35,32.18,32.18,0,0,1,4.13-9.21,14.47,14.47,0,0,1,3.77-3.62,43.37,43.37,0,0,0,4.6-3.13,7.89,7.89,0,0,0,2.54-4.57,32.78,32.78,0,0,0,.39-5l.32-8.9c.65-.78,1.32-1.56,2-2.34l.31-.35.17.06a7.69,7.69,0,0,0,2.89.13,16.87,16.87,0,0,0,2.23-.49,67.78,67.78,0,0,0,14.9-5.63,29.14,29.14,0,0,0,6.54-4.78q.6-.61,1.17-1.29l0,.38c.07.74.08,1.49.13,2.24a62.3,62.3,0,0,1-.33,9l-.12.82c-.15.28-.31.56-.47.83q-1,1.6-2.1,3.15A46.09,46.09,0,0,1,62.47,241a23.68,23.68,0,0,1-6.32,4.52,10.91,10.91,0,0,1-7.59.83,15.87,15.87,0,0,0-2.24-.44,6.42,6.42,0,0,0-2.54.24,7.42,7.42,0,0,0-3.67,2.7c-1.75,2.35-1.9,5-2.81,7.18s-2.65,4-4.58,5.87a28.67,28.67,0,0,0-2.75,3,8.93,8.93,0,0,0-1.77,3.6.52.52,0,0,0,.43.58.62.62,0,0,0,.73-.36v0a8.1,8.1,0,0,1,1.91-3A27.78,27.78,0,0,1,34.13,263a39.22,39.22,0,0,0,3.09-2.76,12.74,12.74,0,0,0,2.49-3.51c1.09-2.53,1.48-5,2.83-6.54a4.56,4.56,0,0,1,2.26-1.56,2.9,2.9,0,0,1,1.14,0,17.61,17.61,0,0,1,1.73.44,15.18,15.18,0,0,0,2.52.5h.11a130,130,0,0,1-8.58,17.61c-1.87,2.93-3.18,6.35-6.73,7.42-1.71.64-3.68,1-5.56,1.84A8.47,8.47,0,0,0,27,278.09a3.92,3.92,0,0,0-1.19,2.65.55.55,0,0,0,.58.51.56.56,0,0,0,.61-.49c.05-1.46,1.5-2.66,3.11-3.36s3.58-1,5.49-1.65a10,10,0,0,0,2.76-1.37,10.92,10.92,0,0,0,2.07-2.06c1.12-1.5,2-3,3-4.47a132.57,132.57,0,0,0,9.59-18.36,16.59,16.59,0,0,0,4.85-1.32,27.11,27.11,0,0,0,7.43-5.06c1.06-1,2.06-2,3-3.09a52.62,52.62,0,0,1-3.07,7.84,48.38,48.38,0,0,1-5,8c-1.9,2.56-4.28,5-6.31,7.69a26.32,26.32,0,0,0-4.37,8.93,67,67,0,0,0-1.74,9.37.54.54,0,0,0,.48.57.6.6,0,0,0,.7-.41c1.34-6.13,2.82-12.36,7.12-17.17,2.08-2.44,4.6-4.69,6.83-7.28a30.32,30.32,0,0,0-.05,9.46,37.17,37.17,0,0,0,4.32,12.69.65.65,0,0,0,.79.24.49.49,0,0,0,.28-.69,35.74,35.74,0,0,1-4-12.38,26.67,26.67,0,0,1,1.11-12.33A58.89,58.89,0,0,0,69,249.44a59.8,59.8,0,0,0,3.41-6.36,6.74,6.74,0,0,1-.5,5.24c-.39.78-.91,1.56-1.36,2.43a7.85,7.85,0,0,0-.93,2.84,8.34,8.34,0,0,0,1.49,5.66A9.88,9.88,0,0,0,76.15,263c2.08.68,4.19.88,5.93,1.58a4.47,4.47,0,0,1,2,1.49,5.6,5.6,0,0,1,.88,2.33,25.45,25.45,0,0,0,.58,2.71,4.26,4.26,0,0,0,1.88,2.52.65.65,0,0,0,.82-.12.47.47,0,0,0-.13-.71h0a3.23,3.23,0,0,1-1.35-2c-.23-.81-.32-1.7-.48-2.61a6.72,6.72,0,0,0-1-2.78,5.84,5.84,0,0,0-2.61-2c-2-.85-4.18-1.08-6-1.73a8.09,8.09,0,0,1-4.15-3.23,6.9,6.9,0,0,1-1.14-4.72c.2-1.6,1.29-3,2.27-4.71a8.38,8.38,0,0,0,.94-5.8,11.83,11.83,0,0,0-1.07-3c.6-1.54,1.13-3.11,1.57-4.69q6.56,5.49,13.42,10.68l4.08,3A42.17,42.17,0,0,0,97,252.15c.26.14.53.28.81.41a8.46,8.46,0,0,0-.12,2.74,25.64,25.64,0,0,0,.86,3.8c.7,2.42,1.36,4.86.51,7.07s-3.09,4.17-3.65,6.9a8.58,8.58,0,0,0,2,7.57.66.66,0,0,0,.83.1.48.48,0,0,0,.12-.72h0a7.6,7.6,0,0,1-1.68-6.73c.47-2.33,2.63-4.16,3.72-6.72a8.07,8.07,0,0,0,.47-4,25.72,25.72,0,0,0-.8-3.79,13.87,13.87,0,0,1-.71-5.57,11.52,11.52,0,0,0,3.23.65,8.44,8.44,0,0,0,5.89-1.69c.77-.67,1.24-1.3,1.71-1.59a1.72,1.72,0,0,1,1.48-.18,3.73,3.73,0,0,1,1.61,1.05,5.31,5.31,0,0,1,1,1.78c.29.69.53,1.44.88,2.21a7.39,7.39,0,0,0,1.49,2.23,13.15,13.15,0,0,0,4.56,2.79c.22-.48.46-1,.69-1.44a11.13,11.13,0,0,1-3.73-2.41C117.26,255.59,116.93,254.21,116.37,252.66Zm-70-25.88-.3.09a28,28,0,0,1,3.44-3.38,7.85,7.85,0,0,1,2.06-1.16,4.43,4.43,0,0,1,1-.27,4.51,4.51,0,0,1,1,0,3.91,3.91,0,0,1,1.85.62,1.63,1.63,0,0,1,.54.54A76.14,76.14,0,0,1,46.36,226.78Z"></path>
      <path class="cls-12" d="M107,231.69s-.09-.05-.07-.05Z"></path>
      <polygon class="cls-13" points="15.68 204.99 73.37 229.1 125.8 206.87 73.37 188.37 15.68 204.99"></polygon>
      <path class="cls-14" d="M34.13,90.79a.2.2,0,0,0-.05-.09s0,0-.2,0-.21,0-.41,0c0,0-.06,0-.15.16S33,91,33,91a.3.3,0,0,0-.3,0,.18.18,0,0,0-.06.14c0,.06,0,.17,0,.19s-.17,0-.26-.06-.62-.32-.8.08a.29.29,0,0,0,0,.25c0,.06,0,.09-.08.11a.55.55,0,0,1-.31,0,2.51,2.51,0,0,1-.43-.22c-.3-.19-.76,0-.69.32s0,.3-.08.31-.78-.09-1.08.13-.25.46-.14.59,0,.17-.05.19-.57.21-.41.58a.28.28,0,0,0,.1.14s.11.11,0,.17-.25.25-.13.37a.53.53,0,0,1,.15.37c0,.07.06.08.23.11a.38.38,0,0,1,.2.2c.09.17.31,0,.37,0s.1.09.14.14a.41.41,0,0,0,.49.22.59.59,0,0,0,.18-.13c.07-.07.2-.19.35-.14a.65.65,0,0,1,.3.28c.16.24.57,0,.66-.3a4.34,4.34,0,0,1,.41-1,.29.29,0,0,1,.39,0c.21.12.52-.15.5-.54s0-1,.25-.86.27.17.35.16.22-.1.22-.41-.06-.33,0-.38.19,0,.28,0,.09-.21.1-.26.1-.15.16-.18.06-.06.1-.22.11-.12.13-.2,0-.09-.05-.13A.25.25,0,0,1,34.13,90.79Z"></path>
      <path class="cls-15" d="M69.12,207.32q-1.56-18.21-3-36.43-.69-9.1-1.29-18.25c-.19-3-.37-6.09-.5-9.18q0-1.16-.06-2.34c0-.41,0-.8,0-1.25,0-.22,0-.45,0-.75l0-.38h0v-.08c0-.23,0-.58,0-.93l0-1.09-.11-2.25c-.77-12.15-1.14-24.51,0-36.77A112.1,112.1,0,0,1,67.3,79.37a56.36,56.36,0,0,1,7.36-17.05,1,1,0,0,1,1.73,1.11h0A54.2,54.2,0,0,0,70,80a107.43,107.43,0,0,0-2.33,17.83c-.33,6-.29,12,0,18.07S68.38,128,69,134l.19,2.3.08,1.19c0,.41,0,.82,0,1.35v.2l0,.28c0,.27,0,.15,0,.19v.39c0,.31,0,.68,0,1,0,.73.08,1.47.13,2.22.22,3,.51,6,.8,9q.89,9.06,1.89,18.13,1.94,18.14,4,36.27h0a3.51,3.51,0,0,1-7,.8S69.12,207.35,69.12,207.32Z"></path>
      <path class="cls-15" d="M113.53,91.18a28,28,0,0,0-5.26,3.9,55,55,0,0,0-4.57,4.72A84.72,84.72,0,0,0,96,110.43,144.49,144.49,0,0,0,84.48,134l0,.09,0,.06c-1.88,3.57-3.81,7.08-5.84,10.57-1,1.75-2,3.48-3.17,5.21-.56.86-1.14,1.72-1.78,2.58-.33.43-.67.86-1.07,1.31a9.21,9.21,0,0,1-.7.7l-.24.19-.28.21a3.55,3.55,0,0,1-1,.44,2.15,2.15,0,1,1-1-4.18.8.8,0,0,0-.31.13h0l.06,0a3.36,3.36,0,0,0,.38-.34c.28-.28.57-.62.87-1,.59-.71,1.16-1.49,1.73-2.27,1.14-1.59,2.23-3.23,3.31-4.9,2.14-3.33,4.23-6.73,6.24-10.15l-.08.15a146.78,146.78,0,0,1,13-23.31A86.18,86.18,0,0,1,103,99.12a55.21,55.21,0,0,1,4.89-4.53,28.69,28.69,0,0,1,5.57-3.67.15.15,0,0,1,.19.07.15.15,0,0,1-.06.18Z"></path>
      <path class="cls-15" d="M75.11,62.22a75.07,75.07,0,0,0,8.06-5.95c1.28-1.08,2.5-2.22,3.69-3.39a44.92,44.92,0,0,0,3.31-3.74,44,44,0,0,1,3.34-3.89,38.68,38.68,0,0,1,3.81-3.43,48.32,48.32,0,0,1,4.2-2.91c1.43-.91,2.9-1.75,4.28-2.69h0a.32.32,0,0,1,.37.52c-1.39,1-2.85,1.87-4.25,2.8a47.33,47.33,0,0,0-4.06,3,36.81,36.81,0,0,0-3.64,3.42,45.43,45.43,0,0,0-3.17,3.88,46.13,46.13,0,0,1-3.32,3.92C86.54,55,85.32,56.14,84,57.27a76.05,76.05,0,0,1-8.1,6.27.78.78,0,0,1-.87-1.3h0Z"></path>
      <path class="cls-15" d="M72.38,51.3a49.18,49.18,0,0,1-7.2-2.94,23.81,23.81,0,0,1-6.4-4.45,10.36,10.36,0,0,1-1.24-1.56c-.36-.59-.62-1.15-.93-1.7a27.31,27.31,0,0,0-2.12-3.13,33.2,33.2,0,0,0-5.34-5.39h0a.16.16,0,1,1,.19-.25A33.39,33.39,0,0,1,55,37.15a27.19,27.19,0,0,1,2.29,3.12c.33.56.65,1.14,1,1.63a9.82,9.82,0,0,0,1.19,1.39,22.63,22.63,0,0,0,6.29,4,47.66,47.66,0,0,0,7.08,2.59h0a.75.75,0,0,1,.51.91.74.74,0,0,1-.9.5Z"></path>
      <path class="cls-15" d="M45,40.59c1.19,0,2.36.17,3.54.32a28.48,28.48,0,0,1,3.5.69,14.8,14.8,0,0,1,1.71.55c.54.21,1.09.39,1.65.55a14.12,14.12,0,0,0,1.69.36,7.06,7.06,0,0,0,1.64.06h0a.4.4,0,1,1,.1.8h0a7.65,7.65,0,0,1-1.88-.13,14.63,14.63,0,0,1-1.76-.45c-.57-.19-1.13-.4-1.68-.64s-1.08-.43-1.63-.6A34.34,34.34,0,0,0,45,40.82a.11.11,0,0,1-.11-.12A.12.12,0,0,1,45,40.59Z"></path>
      <path class="cls-15" d="M41.49,48.59a25.74,25.74,0,0,0,3.17-1.19c1-.46,2-1,3-1.52s2-1.14,2.89-1.77,1.86-1.29,2.76-2h0a.32.32,0,0,1,.45.06.33.33,0,0,1-.07.45h0c-.93.67-1.87,1.32-2.84,1.92s-2,1.18-3,1.72-2,1-3.11,1.45a22.53,22.53,0,0,1-3.24,1.12.13.13,0,0,1-.17-.1.13.13,0,0,1,.1-.16Z"></path>
      <path class="cls-15" d="M96.71,43.2a.34.34,0,0,1-.25-.13.32.32,0,0,1,.06-.44,17.54,17.54,0,0,0,4.08-5c1.64-3.1,9.31-13.79,10.38-14.48a.31.31,0,0,1,.44.09.32.32,0,0,1-.1.44c-.86.55-8.5,11.12-10.16,14.25a17.74,17.74,0,0,1-4.25,5.16A.37.37,0,0,1,96.71,43.2Z"></path>
      <path class="cls-15" d="M58.83,84.4c-3.64,0-7.27,0-10.91-.12S40.66,84,37,83.66c-1.81-.17-3.63-.38-5.43-.68a41.69,41.69,0,0,1-5.32-1.3,107.16,107.16,0,0,0-10.54-2.57h0a.2.2,0,0,1-.16-.23.19.19,0,0,1,.22-.16c3.61.59,7.14,1.46,10.65,2.4a39,39,0,0,0,5.27,1.21c1.78.26,3.58.45,5.38.58,3.61.27,7.23.39,10.85.45s7.25,0,10.87-.06h0a.55.55,0,0,1,.56.54.56.56,0,0,1-.54.56Z"></path>
      <path class="cls-15" d="M22.55,86.7a37.33,37.33,0,0,0,5.34,1.37,20.76,20.76,0,0,0,2.72.3,9,9,0,0,0,2.66-.23A20.42,20.42,0,0,0,35.74,87l2.5-1.23,5-2.47a.39.39,0,0,1,.52.18.38.38,0,0,1-.17.52h0l-5,2.42-2.5,1.21a20.15,20.15,0,0,1-2.61,1.16,9.39,9.39,0,0,1-2.88.24,20.32,20.32,0,0,1-2.81-.33,37.86,37.86,0,0,1-5.44-1.43.32.32,0,0,1-.19-.4.31.31,0,0,1,.4-.2Z"></path>
      <path class="cls-15" d="M31.26,77.66a20.9,20.9,0,0,1,3.43,2.4,17.29,17.29,0,0,1,1.52,1.45,16.23,16.23,0,0,1,1.34,1.62.31.31,0,1,1-.5.38h0a15.7,15.7,0,0,0-1.24-1.61,16.43,16.43,0,0,0-1.42-1.47,20,20,0,0,0-3.26-2.47h0a.15.15,0,0,1-.05-.22A.16.16,0,0,1,31.26,77.66Z"></path>
      <path class="cls-15" d="M24,75a20.4,20.4,0,0,0,2.23,1.46,25.23,25.23,0,0,0,2.38,1.2c.82.36,1.64.7,2.49,1s1.71.52,2.58.73h0a.23.23,0,1,1-.11.44h0A26.05,26.05,0,0,1,31,79c-.86-.29-1.7-.64-2.52-1s-1.62-.8-2.41-1.26a19.33,19.33,0,0,1-2.26-1.51.16.16,0,0,1,0-.23A.15.15,0,0,1,24,75Z"></path>
      <path class="cls-15" d="M19.74,79.84a26.58,26.58,0,0,1-2.41,1.85,22.14,22.14,0,0,1-2.61,1.55,14.38,14.38,0,0,1-2.83,1.12,8,8,0,0,1-3,.25.12.12,0,0,1-.11-.14.13.13,0,0,1,.14-.11h0a7.8,7.8,0,0,0,2.92-.29,13.76,13.76,0,0,0,2.75-1.14,23.78,23.78,0,0,0,2.54-1.57,28,28,0,0,0,2.34-1.85h0a.22.22,0,0,1,.32,0,.23.23,0,0,1,0,.32Z"></path>
      <path class="cls-15" d="M9.43,78.85a22.7,22.7,0,0,1,3.5,1.05,9.66,9.66,0,0,1,1.64.82A3.54,3.54,0,0,1,15.91,82a.16.16,0,0,1-.07.21.15.15,0,0,1-.21-.07h0a3.26,3.26,0,0,0-1.19-1.23,11.47,11.47,0,0,0-1.59-.84A21.93,21.93,0,0,0,9.4,79a.06.06,0,0,1-.05-.08A.08.08,0,0,1,9.43,78.85Z"></path>
      <path class="cls-15" d="M37.69,86.87a10.66,10.66,0,0,1-.94,2.7,9.66,9.66,0,0,1-1.62,2.32,7.3,7.3,0,0,1-2.3,1.63,8.43,8.43,0,0,1-2.7.71.11.11,0,0,1-.12-.1A.11.11,0,0,1,30.1,94h0a8.08,8.08,0,0,0,2.56-.82,6.52,6.52,0,0,0,2.08-1.64,9.12,9.12,0,0,0,1.41-2.26,10,10,0,0,0,.74-2.53v0a.4.4,0,0,1,.79.11Z"></path>
      <path class="cls-15" d="M83.82,56.61a53.6,53.6,0,0,0,10.34.85c3.47,0,6.91-.51,10.3-.82a41.12,41.12,0,0,1,5.07-.18,23.26,23.26,0,0,1,4.93.8,32.65,32.65,0,0,0,5.38.83,20.74,20.74,0,0,0,3-.07,9.66,9.66,0,0,0,3-.68h0a.22.22,0,0,1,.3.07c.05.09,0,.21-.13.27l-.09,0c-1.06.13-2.07.39-3.11.5a19.82,19.82,0,0,1-3.06.12,32.44,32.44,0,0,1-5.43-.72,22.39,22.39,0,0,0-4.87-.68,40.51,40.51,0,0,0-5,.3c-3.36.37-6.81.93-10.33,1a53.85,53.85,0,0,1-10.53-.64h0a.52.52,0,0,1-.44-.59.53.53,0,0,1,.6-.43Z"></path>
      <path class="cls-15" d="M117.61,52a20.2,20.2,0,0,0-2.41-.59c-.83-.16-1.69-.31-2.6-.4a14.42,14.42,0,0,0-2.79,0,8.4,8.4,0,0,0-2.66.61A15.3,15.3,0,0,0,105,53.09l-2.09,1.6c-1.37,1.07-2.73,2.14-4.17,3.2a.37.37,0,0,1-.52-.08.36.36,0,0,1,.08-.51l0,0h0c1.51-.91,2.94-1.88,4.36-2.88l2.14-1.51a18,18,0,0,1,2.27-1.46,8.65,8.65,0,0,1,2.73-.59,16.54,16.54,0,0,1,2.82,0c.91.09,1.78.24,2.61.4s1.63.38,2.43.5a.12.12,0,0,1,.1.14.11.11,0,0,1-.13.1Z"></path>
      <path class="cls-15" d="M110.47,61.29c-.51-.36-1.06-.59-1.59-.92s-1.07-.65-1.61-1a18.5,18.5,0,0,1-1.58-1.09,12.07,12.07,0,0,0-1.63-1.13.26.26,0,0,1-.1-.35.25.25,0,0,1,.34-.1.19.19,0,0,1,.08.07l0,0a7.35,7.35,0,0,0,1.38,1.35c.5.39,1,.77,1.55,1.11s1.07.67,1.6,1a8,8,0,0,0,1.62.78h0a.16.16,0,0,1,.11.18.13.13,0,0,1-.16.11Z"></path>
      <path class="cls-15" d="M117.24,63.29c-.18-.14-.39-.24-.56-.4s-.41-.21-.6-.32L114.9,62c-.77-.36-1.51-.71-2.23-1a15,15,0,0,0-2.15-.7,9.81,9.81,0,0,0-2.31-.29.09.09,0,0,1-.09-.08.09.09,0,0,1,.09-.09h0c.79.13,1.57.21,2.31.39a14,14,0,0,1,2.17.69c.72.28,1.47.62,2.25,1l1.19.58c.2.09.4.21.62.29a5.69,5.69,0,0,1,.69.25.16.16,0,0,1,.09.22.21.21,0,0,1-.25.08l-.05,0Z"></path>
      <path class="cls-15" d="M121.34,58.09a2.09,2.09,0,0,0,.63-.54l.51-.59,1-1.19c.65-.8,1.24-1.59,1.84-2.37s1.19-1.52,1.82-2.22a11.22,11.22,0,0,1,2.06-1.84s0,0,0,0,0,0,0,0a11.47,11.47,0,0,0-2,1.89c-.61.7-1.15,1.49-1.75,2.25s-1.23,1.56-1.84,2.35-1.32,1.58-2,2.37l0,.06a.23.23,0,0,1-.27,0,.14.14,0,0,1,0-.22Z"></path>
      <path class="cls-15" d="M132.21,53.71a13.62,13.62,0,0,1-4,1.44,8.11,8.11,0,0,1-2,.14,3,3,0,0,1-1.81-.57.09.09,0,0,1,0-.14.11.11,0,0,1,.15,0h0a2.89,2.89,0,0,0,1.69.55,8.22,8.22,0,0,0,2-.1,13.27,13.27,0,0,0,4-1.36s0,0,0,0S132.23,53.7,132.21,53.71Z"></path>
      <path class="cls-15" d="M103.48,53.72c.06-.46.08-.88.17-1.32a11,11,0,0,1,.27-1.27A7.92,7.92,0,0,1,105,48.74a7,7,0,0,1,.85-1,6.61,6.61,0,0,1,1.09-.87,8.35,8.35,0,0,1,2.74-1.11.12.12,0,0,1,.15.07.13.13,0,0,1-.09.13h0a8.25,8.25,0,0,0-2.68,1,5.94,5.94,0,0,0-1.91,1.85,7.82,7.82,0,0,0-1,2.35,6.39,6.39,0,0,0-.22,2.53h0a.2.2,0,0,1-.4.06Z"></path>
      <path class="cls-15" d="M105.67,36.33a36.88,36.88,0,0,1,3.55-1.91q.91-.42,1.86-.75a9.74,9.74,0,0,1,1.91-.49,5.16,5.16,0,0,1,1-.06c.32,0,.61.07.91.09a14.44,14.44,0,0,0,3.76-.25,7.08,7.08,0,0,0,2.24-.92h0s.1,0,.11,0,0,.1-.09.14h0a7.51,7.51,0,0,1-2.26.85,18.59,18.59,0,0,1-1.91.26,16.91,16.91,0,0,1-1.88,0c-.31,0-.62-.05-.92-.05a5.85,5.85,0,0,0-.92.09,13.34,13.34,0,0,0-3.62,1.39A26.71,26.71,0,0,0,106,36.86h0a.36.36,0,0,1-.5,0,.34.34,0,0,1,.12-.47Z"></path>
      <path class="cls-15" d="M116.22,35.53l-1.57-.13-1.57-.16a9.89,9.89,0,0,1-1.54-.25,3.74,3.74,0,0,1-.72-.29,2.26,2.26,0,0,1-.31-.23,1,1,0,0,1-.25-.35v0a.23.23,0,0,1,.13-.27.19.19,0,0,1,.27.08.28.28,0,0,1,0,.09.57.57,0,0,0,.09.27,1.27,1.27,0,0,0,.22.25,1.82,1.82,0,0,0,.63.34,10.21,10.21,0,0,0,1.5.3c.51.07,1,.12,1.56.17s1,.08,1.58.1c0,0,0,0,0,0a.06.06,0,0,1-.06.05Z"></path>
      <path class="cls-15" d="M118.69,28.48a6,6,0,0,1-1.13,1.41A14.64,14.64,0,0,1,116.11,31c-.51.37-1.06.63-1.56,1a4.84,4.84,0,0,0-.7.57,2.76,2.76,0,0,0-.55.66h0a.25.25,0,0,1-.28.12.16.16,0,0,1-.07-.24l0-.06a8.83,8.83,0,0,1,1.51-1.16c.53-.35,1.08-.61,1.58-.95a10.7,10.7,0,0,0,1.45-1.14,4.86,4.86,0,0,0,1.09-1.4.05.05,0,0,1,.07,0,0,0,0,0,1,0,.07Z"></path>
      <path class="cls-15" d="M115.77,26.14a1,1,0,0,1,.36.84,5.69,5.69,0,0,1-.12,1.37c-.09.5-.23,1-.33,1.54s-.2,1.06-.29,1.58a.05.05,0,0,1,0,.05,0,0,0,0,1,0,0c.07-.53.16-1.06.28-1.59s.27-1.05.36-1.55a5,5,0,0,0,.15-1.38,1.06,1.06,0,0,0-.4-.87l.07,0h0Z"></path>
      <path class="cls-15" d="M67.07,25.57a30.06,30.06,0,0,1,2,3.89,43.42,43.42,0,0,1,1.46,4.25c.85,2.91,1.48,5.93,2.08,9s1.12,6.14,1.71,9.24c.31,1.55.62,3.1,1,4.64.19.78.35,1.55.57,2.32l.29,1.16c.1.4.22.74.32,1.26a1,1,0,0,1-.79,1,.9.9,0,0,1-1.11-.64v0l0-.13c0-.27-.14-.71-.21-1.1l-.21-1.2c-.17-.79-.29-1.59-.42-2.39-.26-1.59-.49-3.17-.71-4.74l-1.2-9.34a72.79,72.79,0,0,0-1.66-9,39.84,39.84,0,0,0-1.39-4.25,19,19,0,0,0-2.08-3.8c-.07-.09,0-.19.09-.24a.28.28,0,0,1,.33.07Z"></path>
      <path class="cls-15" d="M88.12,10.21c0,.17.07.22,0,.34s-.09.31-.14.46l-.3.9c-.2.6-.39,1.2-.6,1.78-.41,1.17-.82,2.32-1.23,3.44-.83,2.24-1.73,4.39-2.58,6.5-1.74,4.22-3.56,8.17-5,12.2A51.56,51.56,0,0,0,75,48.24,25,25,0,0,0,76.58,61v0a1.05,1.05,0,0,1-.68,1.36,1.14,1.14,0,0,1-1.51-.52l0-.06a22.86,22.86,0,0,1-1.26-6.95,35.18,35.18,0,0,1,.49-6.77c.22-1.09.44-2.18.69-3.25s.62-2.1.94-3.14.72-2,1.09-3.07.76-2,1.21-3c1.67-4,3.66-7.89,5.47-12.09.91-2.09,1.81-4.23,2.64-6.48.44-1.11.81-2.27,1.2-3.44.2-.59.37-1.19.56-1.79l.28-.91.13-.47a1.75,1.75,0,0,1,.31-.59.18.18,0,0,1,0,.35Z"></path>
      <path class="cls-15" d="M99.25,25.2a14.13,14.13,0,0,0-2.72,1.2l-2.65,1.28c-1.79.81-3.56,1.62-5.35,2.34S85,31.49,83.26,32.31a18,18,0,0,0-4.62,2.85v0a.47.47,0,0,1-.57,0,.3.3,0,0,1-.06-.47l0,0A22.72,22.72,0,0,1,83,32c1.76-.77,3.53-1.52,5.33-2.24s3.59-1.52,5.38-2.32c.89-.41,1.77-.84,2.65-1.26A12.83,12.83,0,0,0,99,24.69h0a.31.31,0,0,1,.44,0,.29.29,0,0,1,0,.43A.27.27,0,0,1,99.25,25.2Z"></path>
      <path class="cls-15" d="M71.73,42a23.13,23.13,0,0,0-2.5-.67c-.82-.2-1.63-.45-2.43-.73a24.36,24.36,0,0,1-4.53-2.12,18.81,18.81,0,0,1-3.78-2.94A13,13,0,0,1,57,33.83L55.81,32a.18.18,0,0,1,.1-.28.33.33,0,0,1,.37.09h0l0,0c.18.29.22.63.41.93a10.61,10.61,0,0,0,.58.9,14.15,14.15,0,0,0,1.42,1.71,18,18,0,0,0,3.7,2.93,23.88,23.88,0,0,0,4.5,2.06c.79.27,1.59.5,2.41.7a7.34,7.34,0,0,0,2.51.31h0a.38.38,0,0,1,.44.28.34.34,0,0,1-.33.36A.42.42,0,0,1,71.73,42Z"></path>
      <path class="cls-15" d="M79.51,31.52a7.54,7.54,0,0,1-1.24-2,15.77,15.77,0,0,1-.83-2,40.43,40.43,0,0,1-1.13-4.07c-.6-2.72-1-5.42-1.51-8.07a79.21,79.21,0,0,0-1.75-7.77c-.18-.63-.34-1.27-.55-1.87l-.29-.93-.31-.92A33.19,33.19,0,0,1,70.73.12.13.13,0,0,1,70.81,0a.07.07,0,0,1,.1,0h0v0a33.93,33.93,0,0,0,1.15,3.78l.32.92.28.94c.22.6.37,1.25.56,1.87A77.5,77.5,0,0,1,75,15.37c.51,2.65,1,5.35,1.57,8.06a40.21,40.21,0,0,0,1.15,4.05,13.56,13.56,0,0,0,.84,2,5.07,5.07,0,0,0,1.31,1.71l0,0a.22.22,0,0,1,0,.35.35.35,0,0,1-.42,0A.08.08,0,0,1,79.51,31.52Z"></path>
      <path class="cls-15" d="M65.68,90c-3.65-3-7.66-6.21-11.43-9.92a55.93,55.93,0,0,1-5.18-5.9,31.49,31.49,0,0,1-4-6.75,18.59,18.59,0,0,1-1.18-3.82c-.24-1.35-.34-2.65-.49-3.95A63.73,63.73,0,0,0,41.73,52,61.42,61.42,0,0,0,36,38.13h0a.34.34,0,0,1,.12-.44.28.28,0,0,1,.42.07h0a92.73,92.73,0,0,1,5.59,14.13,72.6,72.6,0,0,1,1.84,7.6c.21,1.3.38,2.64.66,3.87A18.08,18.08,0,0,0,45.87,67a38,38,0,0,0,9.61,11.72,110.09,110.09,0,0,0,12,8.74l0,0a1.44,1.44,0,0,1,.25,2.06,1.51,1.51,0,0,1-2,.56Z"></path>
      <path class="cls-15" d="M51.6,49.11q.4,3.31.85,6.66c.3,2.25.6,4.47.89,6.7a49.57,49.57,0,0,1,.58,6.85,17.48,17.48,0,0,1-.39,3.56,10,10,0,0,1-.59,1.8,5.73,5.73,0,0,1-1.13,1.82l-.05,0a.87.87,0,0,1-1.25.07,1,1,0,0,1,.36-1.52,3.15,3.15,0,0,0,1-1,8.16,8.16,0,0,0,.76-1.47,10.92,10.92,0,0,0,.69-3.31A49.76,49.76,0,0,0,53,62.55c-.21-2.26-.52-4.48-.81-6.71s-.64-4.42-1-6.61a.27.27,0,0,1,.19-.3.21.21,0,0,1,.26.16Z"></path>
      <path class="cls-15" d="M21,51.84c2.14,1.06,4.2,2.2,6.27,3.36s4,2.44,6,3.81,3.58,3.09,5.51,4.4a17.85,17.85,0,0,0,3.05,1.7,9.45,9.45,0,0,0,3.24.85h.07a.78.78,0,0,1,.75.88.87.87,0,0,1-1.16.79,23.85,23.85,0,0,1-6.3-3.73c-1.91-1.45-3.5-3.21-5.39-4.59a52.32,52.32,0,0,0-5.9-3.84,66.92,66.92,0,0,0-6.33-3.19.24.24,0,0,1-.11-.31.25.25,0,0,1,.32-.13Z"></path>
      <path class="cls-15" d="M7.61,65a36.72,36.72,0,0,0,7.12.33,67.69,67.69,0,0,0,7.11-.73c2.36-.39,4.69-.86,7-1.47s4.57-1.31,6.84-2a.2.2,0,0,1,.25.14.24.24,0,0,1-.15.27,65.16,65.16,0,0,1-6.86,2c-2.33.58-4.67,1-7,1.38s-4.75.57-7.15.68a60,60,0,0,1-7.22,0,.29.29,0,0,1-.26-.32A.3.3,0,0,1,7.57,65h0Z"></path>
      <path class="cls-15" d="M67.18,173c-3.1-4.54-6.1-9.12-9-13.8s-5.57-9.44-8-14.36A80.86,80.86,0,0,1,47,137.35a49.77,49.77,0,0,1-2.12-7.87q-.82-3.91-1.65-7.86c-.27-1.31-.56-2.64-.9-4A15.88,15.88,0,0,0,41,113.57h0a.33.33,0,0,1,.1-.44.31.31,0,0,1,.43.13.29.29,0,0,1,0,.13,41.82,41.82,0,0,0,1.06,4.18c.37,1.35.69,2.67,1,4,.61,2.62,1.22,5.22,1.83,7.83a48,48,0,0,0,2.27,7.73c1,2.51,2.15,5,3.39,7.37,2.49,4.82,5.29,9.5,8.24,14.08s6,9.1,9.21,13.54h0a.83.83,0,1,1-1.34,1Z"></path>
      <path class="cls-15" d="M35.11,128.08a26.23,26.23,0,0,0,.75,4.2c.33,1.39.73,2.76,1.19,4.11a27.39,27.39,0,0,0,1.67,3.94,13.61,13.61,0,0,0,2.45,3.44,26.65,26.65,0,0,0,3.46,2.41c1.21.74,2.4,1.49,3.61,2.21,2.41,1.46,4.85,2.85,7.31,4.19a.58.58,0,0,1,.24.79.59.59,0,0,1-.8.24l-.05,0h0l-7-4.68c-1.19-.78-2.35-1.57-3.52-2.37A30.48,30.48,0,0,1,41,144a14.51,14.51,0,0,1-2.46-3.56,34.54,34.54,0,0,1-1.67-4c-.46-1.37-.87-2.74-1.2-4.14s-.58-2.8-.9-4.21a.2.2,0,1,1,.39-.08Z"></path>
      <path class="cls-15" d="M53.57,133c-.18,1-.17,2-.33,3.07s-.31,2-.5,3-.43,2-.72,3a19.82,19.82,0,0,0-.77,3.08.4.4,0,0,1-.45.35.4.4,0,0,1-.36-.45.44.44,0,0,1,.06-.16l0-.06A11.49,11.49,0,0,0,51.77,142c.3-1,.56-2,.76-3s.37-2,.48-3a11,11,0,0,0,.09-3h0a.24.24,0,0,1,.2-.28.23.23,0,0,1,.27.18A.14.14,0,0,1,53.57,133Z"></path>
      <path class="cls-15" d="M52.11,121.83c-.12.3-.17.62-.31.93a6.38,6.38,0,0,0-.15,1c-.07.65-.13,1.3-.16,2a36.52,36.52,0,0,0,.06,3.91,34.43,34.43,0,0,0,.52,3.9,18.84,18.84,0,0,0,1.06,3.8.14.14,0,0,1-.26.1v0c-.31-1.29-.66-2.56-.91-3.86a33.69,33.69,0,0,1-.62-7.83c0-.66.08-1.31.15-2,0-.32.1-.64.1-1a5.49,5.49,0,0,1,0-1,.26.26,0,0,1,.27-.24.23.23,0,0,1,.24.25.13.13,0,0,1,0,.06Z"></path>
      <path class="cls-15" d="M42.77,119.65a3.16,3.16,0,0,0-1-.62c-.34-.17-.69-.32-1-.5q-1-.51-2-1.08c-1.34-.76-2.67-1.55-3.94-2.43a28.73,28.73,0,0,1-3.6-2.85,16.19,16.19,0,0,1-2.88-3.42,0,0,0,0,1,0-.06,0,0,0,0,1,.07,0A16.14,16.14,0,0,0,31.33,112,39.63,39.63,0,0,0,35,114.73a44.69,44.69,0,0,0,3.9,2.44,39.86,39.86,0,0,0,4.09,2l.09,0a.23.23,0,0,1,.13.32.25.25,0,0,1-.32.14Z"></path>
      <path class="cls-15" d="M35.51,104.16a23.58,23.58,0,0,1,2,6.21,15.06,15.06,0,0,1,.21,3,5.23,5.23,0,0,1-.8,2.82.16.16,0,0,1-.23,0,.19.19,0,0,1,0-.24h0a5.07,5.07,0,0,0,.79-2.65,14.57,14.57,0,0,0-.16-3,22.88,22.88,0,0,0-1.89-6.19.06.06,0,0,1,0-.07S35.49,104.14,35.51,104.16Z"></path>
      <path class="cls-15" d="M46.43,148.05c-.72.17-1.37.37-2.07.48a16.36,16.36,0,0,1-2.08.33,13.49,13.49,0,0,1-4.2-.24,13.32,13.32,0,0,1-2-.65,11,11,0,0,1-1.9-1,13.43,13.43,0,0,1-3.12-3,.17.17,0,0,1,0-.24.15.15,0,0,1,.23,0h0a12.83,12.83,0,0,0,3,3,10,10,0,0,0,3.82,1.67,13,13,0,0,0,4.12.2,10.17,10.17,0,0,0,3.92-1.11h0a.32.32,0,0,1,.44.12.33.33,0,0,1-.12.45Z"></path>
      <path class="cls-15" d="M89.38,119.39c-.21-2.44-.59-5-.93-7.62-.16-1.33-.29-2.69-.32-4.07a19.47,19.47,0,0,1,.29-4.1,10.56,10.56,0,0,1,.58-2c.28-.64.6-1.23.89-1.83A30.2,30.2,0,0,0,91.26,96a29.71,29.71,0,0,0,1.13-8h0a.17.17,0,0,1,.17-.16.16.16,0,0,1,.16.16h0a41.83,41.83,0,0,1-1.27,8,33,33,0,0,1-1.29,3.86c-.27.63-.57,1.25-.8,1.86a9.07,9.07,0,0,0-.47,1.93,24.07,24.07,0,0,0,.46,7.94c.49,2.6,1.08,5.11,1.56,7.53v0a.73.73,0,0,1-.64.84.75.75,0,0,1-.88-.55Z"></path>
      <path class="cls-15" d="M96.2,97.92l-1.48,3.17c-.48,1-1,2.09-1.51,3.14a22.54,22.54,0,0,1-1.72,3.06,8,8,0,0,1-1.2,1.34,4.52,4.52,0,0,1-.75.55,2.62,2.62,0,0,1-1,.37h0a.46.46,0,0,1-.52-.38.45.45,0,0,1,.38-.52.5.5,0,0,1,.21,0,1.47,1.47,0,0,0,.69-.07,4.43,4.43,0,0,0,.73-.35,5.41,5.41,0,0,0,1.24-1.15,21,21,0,0,0,1.79-3c.56-1,1-2.07,1.55-3.12s1-2.12,1.4-3.2a.12.12,0,0,1,.15-.07.12.12,0,0,1,.07.16Z"></path>
      <path class="cls-15" d="M82.52,89.61c.64,1.08,1.23,2.18,1.8,3.3a33.84,33.84,0,0,1,1.51,3.44c.47,1.18.67,2.43,1.11,3.59a10.2,10.2,0,0,0,.79,1.67,5.16,5.16,0,0,0,1.1,1.39l0,0a.43.43,0,0,1-.54.67.28.28,0,0,1-.09-.1A14.41,14.41,0,0,1,86.66,100c-.4-1.2-.58-2.44-1-3.61A24.93,24.93,0,0,0,84.18,93a33.52,33.52,0,0,0-1.86-3.24.12.12,0,0,1,0-.17.13.13,0,0,1,.17,0Z"></path>
      <path class="cls-15" d="M73.48,91.55a21,21,0,0,0,2.92,2.1c1,.62,2.1,1.18,3.18,1.71s2.19,1,3.31,1.42,2.27.81,3.4,1.21a.1.1,0,1,1-.06.2A34.65,34.65,0,0,1,82.81,97c-1.12-.44-2.22-.95-3.31-1.47s-2.14-1.12-3.18-1.74a34.55,34.55,0,0,1-3-2,.14.14,0,0,1,0-.2.13.13,0,0,1,.2,0Z"></path>
      <path class="cls-15" d="M124.44,92.52a36.31,36.31,0,0,1-7.86,2.08c-1.34.23-2.69.4-4,.54l-2,.18-1,.07-.51,0c-.18,0-.33,0-.56,0a.36.36,0,0,1-.34-.37.36.36,0,0,1,.36-.34h.07l.46,0h1.51c.68,0,1.35,0,2-.07,1.35-.08,2.7-.19,4-.35a33.55,33.55,0,0,0,4-.67,17.6,17.6,0,0,0,3.83-1.28.08.08,0,0,1,.12,0,.08.08,0,0,1,0,.12Z"></path>
      <path class="cls-15" d="M131,100.53c-.09,0-.12,0-.17,0l-.22-.05-.44-.11c-.29-.07-.56-.15-.83-.24-.53-.17-1-.36-1.51-.54-1-.38-1.81-.77-2.7-1.11a54.68,54.68,0,0,0-5.41-1.84,36.77,36.77,0,0,0-5.57-1.17,20.59,20.59,0,0,0-5.6,0h0a.44.44,0,0,1-.5-.36.43.43,0,0,1,.36-.5h0a21.62,21.62,0,0,1,5.8.32l1.41.27,1.4.34c.47.11.93.26,1.39.38s.92.27,1.37.42c1.82.58,3.61,1.28,5.37,2,.88.37,1.73.75,2.69,1.13.48.19,1,.37,1.53.53.26.08.54.16.83.22l.44.1.23,0a.78.78,0,0,1,.28.11.09.09,0,0,1-.1.06S131,100.56,131,100.53Z"></path>
      <path class="cls-15" d="M124.28,104.33a4.82,4.82,0,0,0-.44-1l-.49-1-1-2c-.33-.65-.66-1.3-1-1.92A6.09,6.09,0,0,0,120,96.79h0a.15.15,0,0,1,0-.21.16.16,0,0,1,.21,0h0a7.82,7.82,0,0,1,1.3,1.81c.35.64.69,1.29,1,1.95l1,2,.48,1a5,5,0,0,0,.54,1h0a.11.11,0,1,1-.17.15A.09.09,0,0,1,124.28,104.33Z"></path>
      <path class="cls-15" d="M116.86,94.3a6.45,6.45,0,0,0,.28-.92c.09-.31.19-.6.3-.9a8.62,8.62,0,0,1,.89-1.67,6.28,6.28,0,0,1,1.26-1.41,8.35,8.35,0,0,1,1.6-1,.11.11,0,0,1,.14,0,.1.1,0,0,1,0,.13h0c-.14.06-.3.08-.44.15s-.28.14-.41.22a5.91,5.91,0,0,0-.77.54,6.33,6.33,0,0,0-1.25,1.38,8.42,8.42,0,0,0-.86,1.66,9.24,9.24,0,0,0-.29.89,2.23,2.23,0,0,0-.12.92h0a.14.14,0,0,1-.12.17.14.14,0,0,1-.16-.12A.19.19,0,0,1,116.86,94.3Z"></path>
      <path class="cls-15" d="M121.65,97.08a3.53,3.53,0,0,1,.87-.47c.3-.12.6-.21.91-.3a16.74,16.74,0,0,1,1.87-.38c1.26-.18,2.53-.22,3.71-.34a10.49,10.49,0,0,0,3.33-.8,7.4,7.4,0,0,0,1.41-.84A12.93,12.93,0,0,0,135,92.82h0s0,0,0,.05h0A12.83,12.83,0,0,1,133.8,94a7.39,7.39,0,0,1-1.43.85,10.63,10.63,0,0,1-3.35.83c-1.19.13-2.45.18-3.71.36a16.86,16.86,0,0,0-1.85.38,7.22,7.22,0,0,0-.89.31,2.12,2.12,0,0,0-.75.49l0,0a.11.11,0,0,1-.15,0,.11.11,0,0,1,0-.16Z"></path>
      <path class="cls-15" d="M105.85,95.4a54.32,54.32,0,0,1,2.3-7.37,32.37,32.37,0,0,1,1.61-3.49,17.09,17.09,0,0,1,2.14-3.21A8.82,8.82,0,0,1,113.3,80c.53-.38,1.06-.7,1.59-1,1-.68,2-1.4,3-2.09a43.28,43.28,0,0,1,5-3.36h0a.23.23,0,0,1,.2,0c.06,0,.07.12,0,.14h0A26.42,26.42,0,0,0,118,77c-.92.72-1.9,1.45-2.91,2.18-.52.36-1,.71-1.53,1.09a8.49,8.49,0,0,0-1.28,1.33A21.74,21.74,0,0,0,109,88.32a43.3,43.3,0,0,0-1.67,7.32v0a.72.72,0,0,1-.82.62.71.71,0,0,1-.62-.81Z"></path>
      <path class="cls-15" d="M120.85,80.51c-.88.53-1.77,1.11-2.66,1.71l-2.68,1.84a21.1,21.1,0,0,1-2.82,1.7,8.6,8.6,0,0,1-1.6.54,4.14,4.14,0,0,1-.87.09,2.55,2.55,0,0,1-1-.15h0a.43.43,0,0,1-.25-.55.42.42,0,0,1,.55-.25.39.39,0,0,1,.17.11,1.41,1.41,0,0,0,.59.25,3.21,3.21,0,0,0,.76,0,4.92,4.92,0,0,0,1.54-.35,21.24,21.24,0,0,0,2.83-1.58c.93-.58,1.82-1.21,2.71-1.81l2.61-1.75a.14.14,0,0,1,.16,0,.09.09,0,0,1,0,.14Z"></path>
      <path class="cls-15" d="M115.65,67.62A31.26,31.26,0,0,0,114.43,71c-.34,1.12-.65,2.25-1,3.37s-.8,2.21-1,3.34a8.4,8.4,0,0,0-.18,1.73,4.73,4.73,0,0,0,.24,1.63v0a.4.4,0,0,1-.24.52.4.4,0,0,1-.52-.23l0-.12a12.15,12.15,0,0,1,.45-3.62c.28-1.16.79-2.22,1.12-3.33s.65-2.24,1-3.36.72-2.25,1.14-3.38a.12.12,0,0,1,.15-.08.12.12,0,0,1,.07.15Z"></path>
      <path class="cls-15" d="M109.56,61.39a13,13,0,0,0-.62,4.42,14.85,14.85,0,0,0,.65,3.87A16.88,16.88,0,0,0,111,73a26.14,26.14,0,0,0,1.9,2.85.1.1,0,0,1,0,.14.09.09,0,0,1-.13,0,17.77,17.77,0,0,1-1.94-2.84,17.54,17.54,0,0,1-1.41-3.34,15.44,15.44,0,0,1-.64-3.9,15,15,0,0,1,.46-4.45.28.28,0,0,1,.21-.21c.09,0,.14.06.11.17h0Z"></path>
      <path class="cls-15" d="M107.4,94.33c1.59-1,3.19-2.13,4.9-3.2.86-.52,1.74-1,2.66-1.47a12.48,12.48,0,0,1,2.89-1,6,6,0,0,1,1.52-.15c.52,0,1,.09,1.49.14,1,.1,1.93.13,2.85.18,1.84.07,3.55.14,4.94.26h0a.15.15,0,0,1,.11.13c0,.06,0,.11-.06.1h0a37.42,37.42,0,0,0-5-.35c-.92,0-1.89-.06-2.87-.1a14.64,14.64,0,0,0-1.47-.08,6.51,6.51,0,0,0-1.45.21,16.76,16.76,0,0,0-5.25,2.73c-1.61,1.15-3.13,2.38-4.58,3.56h0a.55.55,0,0,1-.79-.11.57.57,0,0,1,.06-.79Z"></path>
      <path class="cls-15" d="M123.83,92.5c-.8-.12-1.61-.21-2.44-.28s-1.68-.12-2.53-.16a19.1,19.1,0,0,1-2.59-.26,5.82,5.82,0,0,1-1.27-.39,4.16,4.16,0,0,1-.61-.35,2,2,0,0,1-.55-.55l0,0a.34.34,0,0,1,.1-.47.34.34,0,0,1,.47.1.3.3,0,0,1,0,.15,1.14,1.14,0,0,0,.27.44,2.5,2.5,0,0,0,.46.39,3.8,3.8,0,0,0,1.15.49,18.2,18.2,0,0,0,2.54.33l2.53.19c.83.08,1.64.14,2.43.23a.11.11,0,0,1,.09.1.07.07,0,0,1-.08.07Z"></path>
      <path class="cls-15" d="M126.89,81.86c-.82.5-1.6,1-2.36,1.55L122.27,85c-.75.55-1.59,1-2.29,1.58a6.36,6.36,0,0,0-1,1,3.72,3.72,0,0,0-.64,1.14v0a.32.32,0,0,1-.4.22.32.32,0,0,1-.21-.4.25.25,0,0,1,0-.09,9,9,0,0,1,2-2c.75-.58,1.59-1,2.35-1.51s1.51-1.06,2.27-1.6,1.53-1.08,2.33-1.61a.09.09,0,0,1,.13,0,.1.1,0,0,1,0,.12Z"></path>
      <path class="cls-15" d="M125.75,75.06a10.6,10.6,0,0,0-2.25,2.47,13,13,0,0,0-1.37,2.71,13.88,13.88,0,0,0-.7,2.75,20.79,20.79,0,0,0-.23,2.7.08.08,0,0,1-.08.08.09.09,0,0,1-.08-.08,15.13,15.13,0,0,1,.95-5.48,14.06,14.06,0,0,1,3.56-5.29.18.18,0,0,1,.21,0c.06,0,.06.1,0,.15h0Z"></path>
      <path class="cls-16" d="M123.34,103.52a.69.69,0,0,0,.24,0,.29.29,0,0,1,.39.13c.17.3.19.72.37.87s.37.21.25.46-.22.22,0,.49.37.39.29.65-.55,0-.46.3.69.81.84,1.31,0,.94-.42,1l-.24-.06c-.11,0-.2,0-.21.5s-.06.83-.44.76c0,0-.16-.14-.18,0s-.24,0-.28-.06-.22,0-.29.29a.35.35,0,0,1-.56.16c-.19-.14-.24-.12-.43,0s-.14,0-.31,0-.23,0-.26-.1a.26.26,0,0,0-.15-.19h0c-.12,0,0-.23,0-.3s0-.14-.15-.2,0-.45,0-.53.11-.2-.11-.28-.39-.29-.14-.58.53-.44.32-.53-.56-.17-.53-.56.85-.53,1-.81c0,0,.17-.18,0-.25s-.44-.21-.13-.49.88-.35.92-.44,0-.11-.11-.14-.27-.09-.15-.24a4,4,0,0,0,.42-.81A.51.51,0,0,1,123.34,103.52Z"></path>
      <path class="cls-16" d="M126,57.86a.92.92,0,0,0,.09-.23.29.29,0,0,1,.3-.25c.32,0,.66.2.87.12s.34-.21.49,0,.08.29.41.19.48-.15.66,0-.25.46.05.51,1-.28,1.43-.25.78.31.65.69a1.85,1.85,0,0,1-.14.19c-.07.08-.08.17.36.33s.7.28.51.6c0,0-.17.11-.07.16s0,.23-.14.23-.06.21.17.34a.33.33,0,0,1,0,.55c-.18.13-.18.19-.07.4s-.06.12-.12.27,0,.23-.15.22A.29.29,0,0,0,131,62h0c-.07.1-.2-.06-.26-.11s-.13-.07-.23.09-.44-.09-.5-.18-.15-.16-.29,0-.38.27-.59-.07-.26-.65-.42-.5-.33.46-.7.26-.21-1-.42-1.25c0,0-.1-.22-.24-.07s-.38.28-.51-.12.07-.92,0-1-.11,0-.17,0-.21.17-.29,0a4.68,4.68,0,0,0-.48-.75A.48.48,0,0,1,126,57.86Z"></path>
      <path class="cls-16" d="M126.85,51.14a.69.69,0,0,0-.2,0,.23.23,0,0,1-.27-.18c-.06-.25,0-.54-.14-.68s-.26-.18-.15-.34.19-.15,0-.34-.3-.26-.25-.44.44,0,.35-.22-.63-.49-.84-.76-.21-.53.1-.64h.19c.09,0,.16,0,0-.35s-.26-.46,0-.55c0,0,.16,0,.13-.05s.14-.11.21-.06.15-.1.08-.28.1-.32.28-.32.22,0,.23-.23.1-.06.21-.13.12-.15.21-.09a.22.22,0,0,0,.19,0h0c.09,0,.11.15.13.21s0,.12.2.06.25.29.24.4,0,.2.2.16.39,0,.33.44-.23.63-.05.64.48-.07.55.37-.55.82-.64,1.1c0,0-.11.2.05.24s.37.2.11.51-.73.33-.76.41,0,.1.07.13.2.12.09.25-.3.4-.48.64A.39.39,0,0,1,126.85,51.14Z"></path>
      <path class="cls-16" d="M128.74,88.91a.5.5,0,0,0,.08-.12.17.17,0,0,1,.2-.09c.16,0,.32.17.44.14s.2-.1.26,0,0,.16.2.11.25-.09.34,0-.14.27,0,.29.5-.23.72-.27.38,0,.35.26l0,.13s0,.11.2.11.36,0,.32.19c0,0-.06.09,0,.09s0,.13,0,.15,0,.12.14.13.17.16.11.28,0,.14.07.21,0,.08,0,.16.06.13,0,.16a.13.13,0,0,0-.08.1h0c0,.06-.13,0-.17,0s-.09,0-.1.1-.26.06-.32,0-.13,0-.16.07-.15.23-.37.07-.31-.35-.38-.24-.11.31-.4.21-.32-.6-.46-.74-.08-.13-.16,0-.24.16-.35-.1,0-.54,0-.59-.07,0-.1,0-.14.08-.18,0-.14-.32-.22-.5A.23.23,0,0,1,128.74,88.91Z"></path>
      <path class="cls-16" d="M29.94,96a1.18,1.18,0,0,0,.19.11.26.26,0,0,1,.18.29c0,.28-.23.55-.17.74s.18.3,0,.42-.25.05-.16.33.16.41,0,.56-.43-.21-.45.05.35.8.4,1.17-.1.64-.45.58l-.19-.09c-.08,0-.17,0-.19.34s0,.6-.36.52c0,0-.14-.12-.15,0s-.2,0-.24-.06-.18,0-.22.21a.28.28,0,0,1-.45.14c-.17-.11-.22-.09-.35.07s-.13,0-.27,0-.2.07-.24,0a.18.18,0,0,0-.15-.14h0c-.11,0,0-.19,0-.26s0-.14-.15-.17-.06-.41,0-.5.1-.19-.08-.26-.35-.25-.07-.57.55-.43.38-.54-.48-.2-.32-.63.93-.44,1.15-.66c0,0,.2-.13.06-.25s-.26-.36.13-.52.85,0,.92,0,0-.11,0-.16-.15-.21,0-.28.47-.25.75-.41A.4.4,0,0,1,29.94,96Z"></path>
      <path class="cls-16" d="M41.33,85.92l.24,0a.27.27,0,0,1,.35.15c.14.28.14.65.32.79s.35.18.24.4-.2.21.06.42.37.31.34.53-.53.06-.4.32.78.59,1,.95.24.73-.13.86h-.24c-.1,0-.19,0,0,.45s.25.66-.11.73c0,0-.19-.06-.16,0s-.19.12-.27,0-.18.09-.13.33-.18.39-.4.35-.26,0-.32.23-.13,0-.28.11-.17.15-.26,0a.27.27,0,0,0-.22-.09h0c-.12,0-.1-.2-.11-.27s0-.15-.22-.11-.24-.38-.21-.5,0-.23-.2-.21-.46-.09-.34-.52.34-.66.11-.68-.56,0-.63-.43.67-.85.76-1.17c0,0,.12-.22-.08-.26s-.45-.18-.18-.54.81-.44.84-.54,0-.11-.11-.13-.25-.1-.14-.26a8.51,8.51,0,0,0,.42-.82A.46.46,0,0,1,41.33,85.92Z"></path>
      <path class="cls-14" d="M35.25,92.08a.13.13,0,0,0-.08,0s0,0,0,.17-.07.15,0,.32c0,0,0,0,.11.13s0,.26,0,.3a.27.27,0,0,0,0,.24.17.17,0,0,0,.1.06s.13,0,.15.07,0,.13-.1.19-.34.43-.07.63a.28.28,0,0,0,.21,0s.06,0,.07.07a.4.4,0,0,1-.07.24,2.24,2.24,0,0,1-.24.29c-.21.2-.12.59.12.58s.24,0,.22.12-.22.57-.11.85.29.27.42.21.13,0,.13.08,0,.47.36.43a.29.29,0,0,0,.13,0s.11-.06.14,0,.14.25.26.19a.41.41,0,0,1,.31,0c.06,0,.08,0,.14-.15s0-.07.2-.11.06-.24.06-.29.08-.06.14-.08a.32.32,0,0,0,.27-.33.36.36,0,0,0-.07-.17.31.31,0,0,1,0-.31.5.5,0,0,1,.27-.17c.22-.08.09-.47-.1-.59a4.68,4.68,0,0,1-.68-.52.24.24,0,0,1,.07-.31c.13-.14,0-.44-.34-.5s-.8-.19-.63-.34.17-.19.18-.25,0-.2-.3-.24-.27,0-.29-.1,0-.14,0-.22-.15-.11-.18-.12a.32.32,0,0,1-.13-.15s0-.06-.16-.12-.08-.1-.14-.13a.13.13,0,0,0-.11,0A.25.25,0,0,1,35.25,92.08Z"></path>
      <path class="cls-14" d="M131,54.4a.21.21,0,0,0,.06.1s.05,0,.23,0,.22.05.44,0c0,0,.07,0,.16-.19s.34-.07.41,0a.33.33,0,0,0,.32,0,.19.19,0,0,0,.06-.15c0-.07,0-.19.05-.21s.18,0,.28.08.64.4.84,0a.39.39,0,0,0,0-.29c0-.06,0-.08.09-.1a.49.49,0,0,1,.31.07,2.21,2.21,0,0,1,.41.32c.28.26.73.17.7-.16s0-.32.12-.3.69.38,1,.3a.38.38,0,0,0,.27-.51c0-.19.07-.16.11-.15s.51.12.57-.31a.59.59,0,0,0,0-.19c0-.07,0-.17,0-.19s.34-.06.32-.25a.55.55,0,0,1,.12-.42c.06-.06,0-.11-.12-.26a.38.38,0,0,1-.05-.3c0-.21-.3-.21-.37-.22s-.05-.14-.05-.22a.43.43,0,0,0-.39-.49.57.57,0,0,0-.29,0,.62.62,0,0,1-.5,0,.67.67,0,0,1-.2-.42c0-.33-.76-.18-1,.09s-.78.92-.88,1a.42.42,0,0,1-.49-.06c-.21-.17-.68.12-.72.56s-.16,1.15-.39,1-.3-.2-.4-.19-.26.11-.27.46.06.37-.07.43-.21,0-.31,0-.11.23-.12.28-.11.18-.17.22-.07.07-.11.25-.12.14-.14.22a.15.15,0,0,0,.07.14A.31.31,0,0,1,131,54.4Z"></path>
      <path class="cls-14" d="M124.77,54.16l.07,0s0,0,0-.16,0-.17-.06-.33c0,0,0,0-.16-.1s-.1-.24-.1-.3a.29.29,0,0,0-.08-.24.17.17,0,0,0-.12,0c-.05,0-.14,0-.17,0s0-.14,0-.22,0-.56-.32-.6a.25.25,0,0,0-.19.09s-.07,0-.11,0a.44.44,0,0,1-.11-.24,3.07,3.07,0,0,1,0-.38c0-.29-.4-.56-.58-.39s-.2.14-.26.07-.38-.57-.75-.65-.47.08-.47.22-.12.09-.16.07-.53-.19-.63.12a.28.28,0,0,0,0,.13c0,.05,0,.12,0,.13s-.31,0-.29.17a.33.33,0,0,1-.07.29s0,.08.09.18a.27.27,0,0,1,0,.21c0,.15.18.14.22.16s0,.1,0,.16,0,.29.16.37l.14,0a.2.2,0,0,1,.23.1.7.7,0,0,1,0,.32c0,.21.22.28.39.2a1.86,1.86,0,0,1,.67-.21c.06,0,.14.07.12.24s.21.27.46.12.71-.3.63-.1-.06.23,0,.29.1.12.33.05.23-.11.28,0,0,.15,0,.2.16,0,.2,0a.27.27,0,0,1,.15.09s0,0,.18.06.1.08.16.09a.08.08,0,0,0,.09,0A.29.29,0,0,1,124.77,54.16Z"></path>
      <path class="cls-14" d="M129.55,49.2a.19.19,0,0,0,.06.07s0,0,.17,0,.17,0,.33-.06c0,0,0,0,.1-.16s.25-.08.31-.06.17,0,.24,0a.12.12,0,0,0,0-.12.24.24,0,0,1,0-.17c.06,0,.15,0,.22.05s.52.26.65-.06a.27.27,0,0,0,0-.22s0-.07.07-.09a.43.43,0,0,1,.25,0,2.64,2.64,0,0,1,.35.21c.23.18.59,0,.55-.2s0-.25.07-.25.61.18.86.06a.32.32,0,0,0,.17-.46c-.07-.13,0-.14.06-.14s.48,0,.42-.39a.5.5,0,0,0,0-.13c0-.05-.07-.12,0-.16s.26-.14.19-.27a.48.48,0,0,1,0-.34c0-.06,0-.08-.16-.15s-.08,0-.12-.21-.26-.06-.32-.06-.06-.09-.08-.14-.09-.32-.38-.28a.41.41,0,0,0-.19.08.42.42,0,0,1-.35.07.6.6,0,0,1-.21-.29c-.1-.23-.54,0-.67.2a7.53,7.53,0,0,1-.51.81.29.29,0,0,1-.36,0c-.18-.12-.5.13-.49.48s0,.89-.23.76-.24-.13-.32-.12-.2.11-.18.38.08.28,0,.34-.16,0-.24,0-.06.19-.06.24a.32.32,0,0,1-.12.17s0,.07-.06.21-.08.12-.08.19,0,.07.06.09A.25.25,0,0,1,129.55,49.2Z"></path>
      <path class="cls-14" d="M127.52,51.37a.12.12,0,0,0,0,.1s0,.05.19.08.16.13.37.16c0,0,.06,0,.21-.09s.3.09.35.13.15.15.27.12a.16.16,0,0,0,.11-.1c0-.05.09-.15.14-.15s.14.1.19.19.38.58.72.33a.36.36,0,0,0,.11-.24c0-.07.05-.07.11,0a.44.44,0,0,1,.26.17,2.62,2.62,0,0,1,.24.41c.15.33.64.39.73.1s.14-.27.22-.22.58.53.93.52.45-.22.44-.4.1-.13.15-.12.56.18.66-.22a.32.32,0,0,0,0-.17c0-.06,0-.16.06-.17s.35,0,.33-.21a.53.53,0,0,1,.12-.39c.06,0,0-.09-.11-.23a.37.37,0,0,1,0-.29c0-.19-.25-.19-.31-.21s0-.13,0-.2a.4.4,0,0,0-.27-.48.44.44,0,0,0-.23,0,.42.42,0,0,1-.39-.1.68.68,0,0,1-.08-.41c0-.3-.53-.32-.78-.15a5.38,5.38,0,0,1-.93.59.33.33,0,0,1-.36-.21c-.11-.22-.56-.15-.76.2s-.56.89-.67.64-.16-.29-.24-.32-.26,0-.41.27-.11.32-.23.32-.16-.12-.27-.11-.18.15-.21.19a.49.49,0,0,1-.23.1c-.07,0-.09,0-.2.15s-.15.07-.2.13,0,.09,0,.14A.3.3,0,0,1,127.52,51.37Z"></path>
      <path class="cls-17" d="M131,55.06a.47.47,0,0,0,.1-.1.07.07,0,0,1,.12,0,.52.52,0,0,0,.21.17c.11.05.07.15.16.18s.29,0,.23.18.33.32.51.33.44.09.37.3-.32.1-.2.24c.25.31,1.11.15,1.4.9a.14.14,0,0,1-.05.16.64.64,0,0,1-.38,0c-.49-.08.11.26.35.29s.32.13.31.24,0,0,.19.19.18.52-.1.53-.43-.09-.39,0,.21.21.22.36.08.16.06.27-.1.12-.39.11c0,0-.13,0,0,.16s-.07.34-.14.27a.09.09,0,0,0-.15.1c0,.09,0,.11-.09.11s0,.24-.19.1-.06,0-.13,0-.1-.11-.15-.16-.1-.08-.25,0-.21-.13-.21-.22,0-.15-.12-.1-.3.17-.39-.13a.61.61,0,0,1,0-.33c0-.1-.09,0-.18,0a.38.38,0,0,1-.11.08c-.33.11-.36-.07-.36-.3a0,0,0,0,0,0,0c-.06-.19.35-.54.41-.59s.15-.25,0-.25-.17.18-.36.19a.18.18,0,0,1-.21-.2,1.12,1.12,0,0,1,0-.13.85.85,0,0,0,.05-.2c0-.09.24-.21.34-.47s-.08-.15-.13-.12-.35.21-.32-.14.4-.55.41-.87-.08-.21-.17-.22-.14-.06-.09-.33-.09-.22-.13-.3,0-.14-.09-.28S131,55.08,131,55.06Z"></path>
      <path class="cls-17" d="M135.1,93a.58.58,0,0,0-.07-.21s-.05-.13.08-.16a.61.61,0,0,0,.35-.17c.14-.1.25,0,.35-.08s.21-.37.39-.18.66-.2.8-.41.46-.49.68-.26-.11.47.16.44.55-.36.9-.63a1.52,1.52,0,0,1,1.38-.36.2.2,0,0,1,.16.18c0,.1-.07.25-.3.48-.51.52.41.09.66-.17s.45-.27.57-.15-.06,0,.41,0,.82.28.57.59-.5.42-.29.5.43,0,.63.09.26,0,.38.19,0,.22-.24.53c0,0-.15.13.15.19s.33.41.18.42-.15.18,0,.25.09.14,0,.21.25.23-.07.3c-.07,0-.09,0-.14.12s-.22,0-.32,0-.18,0-.24.28-.33.11-.43,0-.16-.15-.21,0-.1.49-.5.33a.72.72,0,0,1-.34-.28c-.08-.13-.14.06-.13.23a.62.62,0,0,1,0,.19c-.17.48-.38.36-.61.17l-.05,0c-.25-.08-.28-.85-.3-1s-.16-.4-.26-.23.06.35-.07.58-.27.22-.39.09a.74.74,0,0,1-.1-.16,1.16,1.16,0,0,0-.19-.21c-.1-.09-.07-.46-.29-.79s-.24,0-.24.07,0,.6-.4.29-.38-.91-.76-1.15-.32,0-.4.06-.17.14-.48-.1-.34,0-.47,0-.18-.09-.42-.06C135.12,93,135.11,93,135.1,93Z"></path>
      <path class="cls-17" d="M125.24,88.5a.32.32,0,0,0-.1-.1s-.07-.07,0-.14a1,1,0,0,0,.2-.22c.09-.1.18-.06.25-.14s.15-.27.3-.16.5-.13.62-.25.36-.28.48-.11-.11.3.06.3c.37,0,.78-.71,1.14-.68,0,0,.06,0,.07.09a.74.74,0,0,1-.08.35c-.18.4.21,0,.24-.22s.11-.25.17-.21,0,0,.11-.14.26-.09.3.16,0,.4.07.37.12-.18.22-.19.08-.08.16-.07.11.08.17.34c0,0,0,.13.13,0s.27,0,.25.06a.08.08,0,0,0,.13.1c.06,0,.09,0,.12,0s.2-.08.16.13c0,0,0,.06,0,.12s-.07.13-.1.19-.05.12.07.23-.09.25-.19.27-.17,0-.09.15.25.24-.13.41a.85.85,0,0,1-.43.06c-.12,0-.09.09,0,.17s.08.06.1.1c.12.31-.18.37-.52.36h-.06c-.33,0-.62-.42-.65-.48s-.23-.22-.29-.11.13.22.05.39a.29.29,0,0,1-.39.09.6.6,0,0,1-.14-.11l-.2-.14c-.09-.07-.08-.3-.23-.54s-.17,0-.18,0,0,.38-.3.15-.16-.62-.39-.8-.2,0-.25,0-.09.09-.3,0-.21,0-.29,0-.13,0-.26.09S125.25,88.51,125.24,88.5Z"></path>
      <path class="cls-14" d="M130.89,100.47a.22.22,0,0,0,0,.11s0,0,.2.1.16.16.39.2c0,0,.07,0,.23-.08s.33.12.37.18.15.18.28.16a.17.17,0,0,0,.13-.1c0-.06.11-.16.16-.16s.14.13.2.23.34.67.74.44a.36.36,0,0,0,.13-.26c0-.07.07-.06.14,0a.53.53,0,0,1,.25.22,2.43,2.43,0,0,1,.21.49c.12.37.62.5.76.2s.18-.28.27-.21.53.65.9.7.51-.17.53-.37.13-.13.18-.1.56.28.74-.12a.41.41,0,0,0,0-.19c0-.07,0-.17.09-.17s.39,0,.4-.17a.64.64,0,0,1,.2-.4c.07,0,0-.1-.07-.27a.38.38,0,0,1,0-.31c.07-.21-.24-.26-.31-.3s0-.14,0-.22a.43.43,0,0,0-.21-.57.56.56,0,0,0-.25,0,.47.47,0,0,1-.42-.18.7.7,0,0,1,0-.45c.06-.32-.54-.44-.84-.29a6.77,6.77,0,0,1-1.12.5.37.37,0,0,1-.38-.28c-.1-.25-.61-.23-.87.13s-.72.91-.81.62-.16-.33-.24-.37-.29,0-.48.25-.15.35-.29.33-.16-.14-.28-.15-.22.15-.25.19a.43.43,0,0,1-.26.09c-.08,0-.1,0-.23.16s-.17.06-.23.12a.15.15,0,0,0,0,.16A.3.3,0,0,1,130.89,100.47Z"></path>
      <path class="cls-14" d="M126.68,98.77a.17.17,0,0,0,0,.07s0,0,.15,0,.12.08.28.07c0,0,0,0,.14-.08s.23,0,.27,0a.22.22,0,0,0,.21,0,.16.16,0,0,0,.07-.09s0-.12.07-.12.11,0,.17.09.37.32.58.08a.22.22,0,0,0,0-.19s0,0,.08-.06a.39.39,0,0,1,.21.06,1.67,1.67,0,0,1,.28.21c.18.18.56.08.54-.14s0-.21.11-.21a1.42,1.42,0,0,0,.81,0c.25-.13.24-.3.17-.4s0-.13.05-.13.44-.12.36-.4a.33.33,0,0,0-.06-.1s-.07-.09,0-.12.2-.17.12-.26a.37.37,0,0,1-.08-.27s0-.06-.16-.09a.31.31,0,0,1-.13-.15c0-.13-.21,0-.26,0s-.06-.07-.09-.11a.29.29,0,0,0-.32-.19.33.33,0,0,0-.13.07.24.24,0,0,1-.25.07.54.54,0,0,1-.18-.23c-.09-.18-.39,0-.47.13a2.52,2.52,0,0,1-.37.6.19.19,0,0,1-.26-.05c-.13-.12-.37,0-.41.28s-.18.7-.3.55-.15-.17-.21-.18-.16,0-.22.24,0,.24-.1.25-.12-.06-.19,0-.11.12-.12.15-.1.08-.14.09-.06,0-.12.13-.1,0-.13.1a.08.08,0,0,0,0,.1A.22.22,0,0,1,126.68,98.77Z"></path>
      <path class="cls-16" d="M128.29,100.55a.66.66,0,0,0,.24-.11.3.3,0,0,1,.42,0c.24.25.37.65.59.74s.43.09.38.37-.15.28.18.45.48.24.5.51-.54.17-.35.44,1,.51,1.28.89.37.84,0,1l-.26,0c-.11,0-.19.07,0,.53s.32.76-.06.86c0,0-.22,0-.18.06s-.2.14-.28.07-.21.11-.14.39-.19.44-.43.4-.28,0-.35.25-.14,0-.3.12-.19.15-.29,0a.27.27,0,0,0-.23-.11h0c-.13,0-.1-.2-.11-.28s0-.16-.24-.12-.27-.39-.24-.51,0-.24-.23-.21-.49-.08-.39-.51.31-.67.06-.68-.6.09-.73-.33.6-.92.63-1.26c0,0,.09-.24-.13-.23s-.51-.07-.31-.47.74-.66.75-.76-.06-.1-.14-.1-.3,0-.23-.21a5,5,0,0,0,.18-1A.53.53,0,0,1,128.29,100.55Z"></path>
      <path class="cls-16" d="M110.22,73.66a.66.66,0,0,0-.12.17.26.26,0,0,1-.29.15c-.24-.07-.48-.24-.65-.18s-.28.15-.37,0,0-.23-.3-.13-.35.15-.48,0,.17-.4-.06-.41-.68.39-1,.49-.54,0-.53-.32l.06-.19c0-.08,0-.16-.3-.11s-.51.09-.49-.21c0,0,.08-.15,0-.14s0-.17,0-.23,0-.16-.22-.15-.27-.19-.21-.37,0-.22-.15-.29,0-.11-.06-.24-.11-.16,0-.22a.2.2,0,0,0,.09-.18h0c0-.1.18-.06.25-.06s.13,0,.11-.18.37-.14.47-.1.2.06.22-.13.16-.36.54-.16.53.44.61.27.1-.47.56-.37.59.85.82,1c0,0,.14.18.25,0s.34-.25.53.13,0,.8,0,.86.1,0,.15,0,.2-.13.27,0,.23.46.36.73A.38.38,0,0,1,110.22,73.66Z"></path>
      <path class="cls-16" d="M84.66,98.55a1.14,1.14,0,0,0,.06.25.32.32,0,0,1-.12.41c-.28.18-.67.24-.78.45s-.12.41-.37.34-.26-.18-.42.13-.23.47-.46.48-.18-.54-.42-.35-.38,1-.65,1.34-.61.45-.86.11l-.09-.24c0-.11-.1-.18-.44.12s-.51.49-.72.15c0,0,0-.22-.11-.15s-.19-.15-.15-.25-.17-.15-.38,0-.44,0-.5-.25-.12-.26-.37-.22-.1-.11-.23-.23-.23-.11-.17-.24a.25.25,0,0,0,0-.25h0c-.08-.11.15-.19.22-.24s.13-.1,0-.27.29-.41.43-.43.25-.08.14-.3-.1-.5.42-.56.86.09.81-.15-.25-.58.26-.82,1.19.41,1.58.41c0,0,.28.07.27-.15s.1-.53.58-.33.68.77.79.78.12-.06.13-.14.07-.3.27-.21.62.21,1,.33A.49.49,0,0,1,84.66,98.55Z"></path>
      <path class="cls-16" d="M82.59,89.37a1.68,1.68,0,0,0-.09.32.41.41,0,0,1-.36.4c-.42,0-.9-.1-1.15.08s-.37.39-.61.16-.19-.34-.56-.08-.52.4-.8.27.12-.71-.26-.63-1,.86-1.52,1.1-1,.14-1-.39a2.49,2.49,0,0,1,0-.32c0-.14,0-.27-.57-.14s-.87.22-.9-.28c0,0,.11-.26,0-.23s-.11-.29,0-.38-.09-.27-.41-.23-.48-.31-.41-.6,0-.36-.26-.48,0-.19-.12-.39-.18-.27,0-.38a.31.31,0,0,0,.14-.28h0c0-.16.28-.1.39-.1s.2,0,.17-.3.57-.26.73-.2.32.07.33-.24.21-.61.81-.35.88.62,1,.32.07-.78.77-.74,1.07,1.16,1.5,1.39c0,0,.27.24.39,0s.42-.54.83-.05.31,1.26.43,1.33.17,0,.23-.09.25-.29.42-.08.57.58.91.9A.61.61,0,0,1,82.59,89.37Z"></path>
      <path class="cls-16" d="M95.71,97.13a.44.44,0,0,0-.16,0,.21.21,0,0,1-.22-.16c0-.2,0-.45-.1-.56s-.22-.16-.12-.3.16-.11,0-.28-.23-.24-.18-.38.36,0,.3-.17-.48-.46-.63-.71-.12-.48.14-.54h.16c.07,0,.13,0,0-.3s-.16-.43.09-.47c0,0,.14,0,.12,0s.13-.07.18,0,.13-.06.09-.22.13-.25.28-.23.18,0,.22-.15.09,0,.19-.08.12-.1.18,0a.18.18,0,0,0,.15.06h0c.08,0,.06.13.07.18s0,.11.15.08.17.27.14.35,0,.17.14.16.32.07.22.38-.26.46-.11.49.4,0,.42.34-.52.59-.61.81c0,0-.1.15,0,.19s.29.18.07.41-.61.23-.64.29,0,.08.06.11.16.1.06.2-.25.31-.4.5A.33.33,0,0,1,95.71,97.13Z"></path>
      <path class="cls-14" d="M94.72,101.17h.06s0,0,.09-.1.1-.06.17-.17a.21.21,0,0,0,0-.14c0-.1.12-.15.15-.16s.12,0,.14-.11a.16.16,0,0,0,0-.09s-.07-.08-.06-.11.1,0,.16,0,.43,0,.38-.26a.21.21,0,0,0-.1-.13s0,0,0-.07a.23.23,0,0,1,.17-.07,1.3,1.3,0,0,1,.3,0c.21,0,.39-.13.28-.28s-.08-.17,0-.18.45,0,.57-.15a.22.22,0,0,0,0-.34c-.08-.08,0-.1,0-.11s.3-.12.19-.35a.24.24,0,0,0-.06-.08s-.07-.08,0-.11.15-.14.07-.23a.33.33,0,0,1-.08-.24s0,0-.14-.08a.25.25,0,0,1-.13-.13c0-.11-.2,0-.24,0s-.07,0-.1-.09a.24.24,0,0,0-.33-.12.32.32,0,0,0-.13.1.32.32,0,0,1-.25.14.38.38,0,0,1-.22-.15c-.12-.14-.42.14-.46.35s-.11.69-.15.75a.24.24,0,0,1-.25.13c-.16,0-.31.28-.19.52s.29.61.12.6-.21,0-.26,0-.08.16,0,.33.16.15.12.23-.11.06-.13.13a.21.21,0,0,0,.06.17.32.32,0,0,1,0,.17s0,.06,0,.15,0,.11,0,.15,0,0,.08,0A.15.15,0,0,1,94.72,101.17Z"></path>
      <path class="cls-14" d="M93.24,97.09a.07.07,0,0,0,.06,0s0,0,0-.13.06-.12,0-.26,0,0-.09-.11,0-.2,0-.24a.2.2,0,0,0,0-.19.14.14,0,0,0-.08,0s-.11,0-.12,0,0-.1.06-.16.25-.36,0-.51a.2.2,0,0,0-.17,0s0,0-.06-.06a.32.32,0,0,1,0-.19,1.25,1.25,0,0,1,.17-.26c.14-.18,0-.5-.17-.47s-.19,0-.19-.07a1.39,1.39,0,0,0,0-.72c-.14-.21-.29-.18-.37-.12s-.11,0-.12,0-.12-.38-.37-.29a.16.16,0,0,0-.08.06s-.08.06-.11,0-.16-.17-.24-.1a.29.29,0,0,1-.24.08s0,0-.07.15,0,.06-.13.12,0,.19,0,.23-.06.06-.09.09a.25.25,0,0,0-.16.3.41.41,0,0,0,.07.11.24.24,0,0,1,.08.23.49.49,0,0,1-.2.17c-.15.1,0,.36.15.42a3,3,0,0,1,.58.3.19.19,0,0,1,0,.25c-.09.12,0,.33.3.34s.64.1.51.22-.13.15-.13.21,0,.14.24.17.21,0,.23.07,0,.11,0,.17.12.08.15.09a.31.31,0,0,1,.1.12s0,0,.12.09.07.07.11.1a.1.1,0,0,0,.09,0A.26.26,0,0,1,93.24,97.09Z"></path>
      <path class="cls-14" d="M76,93.58a.19.19,0,0,0,0-.15s0-.07-.26-.14-.21-.23-.52-.3c0,0-.1,0-.32.09s-.45-.16-.52-.23-.2-.24-.39-.2a.27.27,0,0,0-.18.13c0,.09-.13.22-.21.21s-.2-.15-.28-.27-.57-.85-1.1-.48a.49.49,0,0,0-.16.35c0,.09-.08.1-.17.08a.68.68,0,0,1-.4-.23,3.66,3.66,0,0,1-.42-.57c-.26-.46-1.06-.48-1.16,0s-.17.41-.31.36-1-.62-1.59-.51-.64.46-.56.71-.12.22-.19.22-.93,0-.93.56a.46.46,0,0,0,.06.23c0,.08.08.22,0,.26s-.5.2-.4.44a.75.75,0,0,1,0,.58c0,.09,0,.13.25.27a.56.56,0,0,1,.16.38c0,.28.41.16.51.17s.08.17.11.27.07.56.53.58a.63.63,0,0,0,.3-.07.51.51,0,0,1,.54,0,1,1,0,0,1,.22.55c.07.42.74.31,1,0a5.85,5.85,0,0,1,1.1-1c.14,0,.32-.05.49.26s.74.16,1-.35.75-1.28.9-.91.22.41.32.46.35,0,.57-.36.17-.46.35-.44.2.19.35.19.28-.18.32-.24a.68.68,0,0,1,.34-.11c.09,0,.12,0,.3-.18s.23-.07.32-.14a.19.19,0,0,0,0-.21A.48.48,0,0,1,76,93.58Z"></path>
      <path class="cls-14" d="M82.76,90a.1.1,0,0,0,.08,0s0,0,.13-.11.17-.06.27-.21,0,0,0-.19.18-.2.24-.22.16-.06.19-.17a.17.17,0,0,0,0-.12s-.08-.12-.07-.16.13-.08.21-.1.57-.13.48-.5a.28.28,0,0,0-.16-.15s0-.06,0-.11a.41.41,0,0,1,.2-.17,2.19,2.19,0,0,1,.39-.13c.29,0,.45-.5.23-.63s-.19-.17-.13-.24.51-.45.54-.8-.14-.44-.29-.43-.1-.1-.09-.14.17-.52-.16-.61a.29.29,0,0,0-.13,0c-.06,0-.14,0-.14-.06s0-.3-.18-.28a.38.38,0,0,1-.32-.09s-.08,0-.19.1a.28.28,0,0,1-.23,0c-.16,0-.15.2-.17.25s-.11,0-.16,0-.32,0-.4.2a.49.49,0,0,0,0,.17.27.27,0,0,1-.1.28.57.57,0,0,1-.34,0c-.23,0-.28.33-.17.52a3,3,0,0,1,.34.74c0,.08,0,.18-.22.22s-.23.34,0,.57.54.64.31.64-.26,0-.31.08-.08.17.08.37.21.18.16.27-.14.07-.17.14a.29.29,0,0,0,0,.22.35.35,0,0,1,0,.2s0,.07,0,.2,0,.13,0,.19a.14.14,0,0,0,.1.07A.21.21,0,0,1,82.76,90Z"></path>
      <path class="cls-14" d="M81.77,90a.24.24,0,0,0-.13,0s-.06,0-.16.17-.22.11-.36.3c0,0,0,.05,0,.24s-.27.24-.34.25-.25,0-.3.15a.22.22,0,0,0,0,.17c0,.07.1.19.06.23s-.2,0-.32,0-.82-.2-.85.27a.45.45,0,0,0,.13.3c.06.06,0,.1-.06.14a.55.55,0,0,1-.36,0,2.67,2.67,0,0,1-.55-.25c-.37-.23-.84,0-.72.38s.06.37-.06.38-.94-.18-1.32.07-.34.57-.2.75,0,.22-.08.23-.77.25-.6.75a.57.57,0,0,0,.12.18c.07.06.14.16.07.22s-.36.33-.21.49a.65.65,0,0,1,.18.49c0,.09.07.1.3.15a.47.47,0,0,1,.25.27c.11.22.39,0,.48,0s.12.12.17.19a.53.53,0,0,0,.62.32.61.61,0,0,0,.24-.15.48.48,0,0,1,.47-.16s.18.06.37.39.78,0,.94-.39a9.67,9.67,0,0,1,.63-1.34.51.51,0,0,1,.57-.09c.3.13.79-.38.69-.91s-.21-1.38.12-1.27.43.06.54,0,.27-.3.1-.7-.25-.36-.15-.51.25-.1.32-.24,0-.33-.07-.39a.67.67,0,0,1,0-.34c0-.09,0-.13-.08-.33s0-.22-.07-.31a.14.14,0,0,0-.17,0A.41.41,0,0,1,81.77,90Z"></path>
      <path class="cls-16" d="M8.17,83.56a1.07,1.07,0,0,0,.19.28.4.4,0,0,1,.06.54c-.25.35-.7.61-.73.92s0,.54-.31.57-.39-.1-.46.36-.08.66-.37.78-.44-.58-.66-.25-.1,1.35-.31,1.91-.63.81-1.06.48c0,0-.12-.15-.2-.27s-.19-.19-.53.32-.51.79-.88.44c0,0-.1-.27-.18-.15s-.29-.13-.27-.27-.26-.14-.48.12-.57.11-.71-.16S1.05,88.89.75,89s-.16-.11-.35-.22-.32-.07-.28-.25A.35.35,0,0,0,0,88.22H0c-.12-.12.14-.27.22-.35s.13-.16-.07-.34.24-.58.4-.65.28-.17.08-.41-.27-.6.33-.81,1.05-.16.91-.43-.5-.63,0-1.08,1.55.09,2,0c0,0,.36,0,.25-.29s-.11-.67.53-.62,1.14.65,1.27.61.12-.12.09-.22,0-.39.22-.37a11,11,0,0,0,1.3-.06A.64.64,0,0,1,8.17,83.56Z"></path>
      <path class="cls-16" d="M9.5,79.58a.9.9,0,0,0-.06.22.28.28,0,0,1-.25.27c-.29,0-.62-.09-.79,0s-.26.26-.42.1-.12-.24-.38-.07-.37.26-.56.16.1-.48-.16-.44-.72.57-1.08.72-.68.06-.71-.3c0,0,0-.12,0-.22s0-.18-.39-.11-.61.13-.61-.22c0,0,.08-.17,0-.16s-.07-.19,0-.25,0-.19-.28-.17-.32-.23-.26-.42,0-.25-.16-.34,0-.12-.06-.27-.12-.18,0-.25a.2.2,0,0,0,.11-.19h0c0-.12.2-.07.27-.07s.15,0,.14-.19.39-.17.5-.12.22.06.24-.15.16-.41.56-.22.57.44.64.24.08-.53.55-.49.69.82,1,1c0,0,.18.17.27,0s.29-.36.56,0,.18.86.26.92.12,0,.16-.06.17-.2.28,0,.38.41.61.65A.43.43,0,0,1,9.5,79.58Z"></path>
      <path class="cls-16" d="M26.18,76.52a1.4,1.4,0,0,0,0,.29.35.35,0,0,1-.24.4c-.38.11-.84,0-1.05.2s-.32.36-.57.17-.2-.3-.55-.08-.52.32-.79.19.14-.61-.23-.59-1.06.59-1.64.66-1.05-.21-1-.69c0,0,.06-.15.12-.26s.06-.21-.52-.33-.9-.22-.72-.62c0,0,.18-.16.07-.19s0-.25.13-.29,0-.25-.2-.3-.19-.32-.07-.55.13-.29-.05-.42,0-.16,0-.34-.13-.24,0-.32a.27.27,0,0,0,.16-.23h0c0-.15.3,0,.4,0s.21,0,.23-.2.65,0,.77.11.26.18.38-.06.43-.37.77,0,.38.68.54.47.31-.6.73-.47.42,1.07.7,1.29c0,0,.17.22.29,0s.33-.45.58,0,.2,1.07.29,1.13.14,0,.18-.09.17-.28.31-.11a4.66,4.66,0,0,0,.8.66A.57.57,0,0,1,26.18,76.52Z"></path>
      <path class="cls-16" d="M12.57,65.8a1.31,1.31,0,0,0,.09.28.36.36,0,0,1-.08.47c-.3.23-.73.34-.84.59s-.1.46-.4.41-.3-.18-.47.18-.23.54-.5.57-.23-.6-.5-.37S9.45,69,9.13,69.45s-.73.52-1,.13c0,0-.06-.14-.1-.27s-.11-.2-.52.13-.64.54-.85.15c0,0,0-.25-.12-.17s-.2-.18-.16-.29-.17-.18-.43,0-.5-.06-.55-.32-.11-.3-.39-.28-.11-.13-.24-.27-.24-.15-.17-.29a.31.31,0,0,0,0-.28h0c-.07-.13.19-.2.27-.24s.16-.1,0-.3.35-.43.5-.44.28-.08.17-.32-.07-.57.48-.6.92.14.86-.13-.25-.65.28-.9,1.28.47,1.69.46c0,0,.31.07.29-.17s.07-.6.59-.39.79.82.91.82.13-.07.13-.17,0-.33.28-.25a11.08,11.08,0,0,0,1.1.27A.56.56,0,0,1,12.57,65.8Z"></path>
      <path class="cls-16" d="M29.61,57.39a.59.59,0,0,0-.05.23.28.28,0,0,1-.24.28c-.29,0-.62,0-.78.1s-.23.29-.41.15-.14-.23-.37,0-.32.31-.51.26,0-.51-.23-.42-.58.71-.87,1-.58.24-.7-.12a1.59,1.59,0,0,1,0-.22c0-.1-.05-.19-.38,0s-.51.31-.62,0c0,0,0-.2-.06-.15s-.13-.17-.08-.25S24.18,58,24,58.1s-.37-.1-.38-.32-.06-.24-.27-.25-.07-.11-.17-.23-.18-.14-.11-.24a.25.25,0,0,0,0-.22h0c0-.1.16-.13.24-.16s.13-.07.05-.24.33-.31.46-.3.24,0,.19-.23,0-.46.5-.4.75.26.77,0-.09-.55.44-.63,1,.65,1.31.77c0,0,.23.13.29,0s.25-.42.61-.1.34.86.43.9.12,0,.16-.07.16-.22.3-.08.45.38.7.61A.44.44,0,0,1,29.61,57.39Z"></path>
      <path class="cls-14" d="M11.66,64.88a.18.18,0,0,0,0-.11s0-.06-.16-.16-.11-.21-.32-.33c0,0-.05,0-.25,0s-.28-.21-.31-.28-.09-.22-.23-.24a.19.19,0,0,0-.16.06c-.06,0-.16.12-.21.1s-.11-.16-.13-.27-.16-.76-.63-.63a.35.35,0,0,0-.21.21c0,.06-.08,0-.15,0a.45.45,0,0,1-.2-.27,2.41,2.41,0,0,1-.11-.53c0-.4-.56-.66-.77-.38s-.24.23-.32.15-.46-.77-.86-.89-.57.09-.61.28-.15.11-.2.08-.58-.37-.8,0a.53.53,0,0,0-.05.18c0,.07,0,.18-.11.17s-.4-.07-.42.12a.54.54,0,0,1-.23.38c-.07,0,0,.11,0,.29a.38.38,0,0,1,0,.32c-.09.19.22.28.28.32s0,.15,0,.23a.46.46,0,0,0,.14.59.53.53,0,0,0,.24.08c.11,0,.31.06.37.23a.74.74,0,0,1,0,.46c-.11.31.43.5.73.4a5.89,5.89,0,0,1,1.14-.3.34.34,0,0,1,.29.34c0,.28.5.36.84.07s.92-.72.93-.41.05.36.11.42.26.12.53-.11.24-.29.37-.24.11.19.22.22.25-.07.3-.1a.45.45,0,0,1,.28,0c.07,0,.1,0,.27-.08s.18,0,.27,0,.07-.07.06-.14A.33.33,0,0,1,11.66,64.88Z"></path>
      <path class="cls-14" d="M10.88,79.09A.12.12,0,0,0,11,79s0,0,0-.17,0-.17,0-.34c0,0,0,0-.15-.12s-.06-.26,0-.31,0-.17,0-.25a.14.14,0,0,0-.11,0c-.06,0-.15,0-.17,0s0-.14.06-.21.27-.52-.05-.67a.32.32,0,0,0-.22,0s-.07,0-.09-.07a.43.43,0,0,1,0-.25,2,2,0,0,1,.2-.35c.16-.24,0-.63-.25-.57s-.25,0-.25-.07.12-.63,0-.89a.31.31,0,0,0-.48-.13c-.11.09-.14,0-.15,0s-.14-.48-.46-.37a.37.37,0,0,0-.12.07s-.1.08-.14,0-.19-.22-.31-.13a.45.45,0,0,1-.32.09c-.06,0-.07,0-.11.18a.29.29,0,0,1-.18.15c-.15.06,0,.26,0,.31s-.07.07-.12.11a.32.32,0,0,0-.22.39.44.44,0,0,0,.1.16.36.36,0,0,1,.11.32.62.62,0,0,1-.26.23c-.21.12,0,.49.24.59a4.6,4.6,0,0,1,.8.39.26.26,0,0,1,0,.34c-.11.17.12.46.45.45s.86,0,.72.22-.14.23-.13.3.09.19.35.19.28-.06.32,0,0,.16,0,.23.18.08.22.08a.38.38,0,0,1,.16.13s.05,0,.19.09.1.08.16.1.08,0,.11-.06A.25.25,0,0,1,10.88,79.09Z"></path>
      <path class="cls-17" d="M9.35,83.75a.34.34,0,0,0,.12-.06s.07,0,.11,0a.43.43,0,0,0,.14.2c.07.07,0,.15.09.2s.25.08.15.22.21.37.36.43.36.2.24.37-.3,0-.24.15c.14.34.93.45,1,1.19a.11.11,0,0,1-.08.13c-.06,0-.16,0-.34-.09-.41-.22,0,.26.22.35s.24.22.19.31,0,0,.11.23,0,.51-.24.43-.35-.21-.36-.07.12.24.08.38,0,.16,0,.25-.12.07-.37,0c0,0-.1-.05-.07.13s-.17.28-.21.2-.14,0-.15,0-.07.09-.12.07-.08.2-.2,0c0,0,0,0-.1,0s0-.13-.07-.19-.07-.1-.22-.08-.14-.18-.11-.25.05-.13-.07-.12-.31,0-.3-.24a.53.53,0,0,1,.1-.27c.06-.08-.06-.08-.16,0a.34.34,0,0,1-.12,0c-.32,0-.29-.17-.22-.36,0,0,0,0,0,0,0-.18.46-.35.53-.38s.21-.17.09-.2-.2.1-.37.06a.16.16,0,0,1-.12-.23l.08-.1a.63.63,0,0,0,.1-.16c0-.08.27-.12.44-.31s0-.15-.09-.14-.36.09-.24-.21.51-.37.6-.64,0-.2-.09-.24-.1-.09,0-.31,0-.21,0-.3,0-.12,0-.26S9.33,83.76,9.35,83.75Z"></path>
      <path class="cls-17" d="M10.64,79.88a.3.3,0,0,0,.13.09s.08.06,0,.13a.47.47,0,0,0-.13.25c0,.11-.15.09-.17.2s.06.29-.13.27-.26.4-.24.58,0,.48-.21.45-.19-.3-.3-.15c-.26.33.12,1.17-.54,1.64a.14.14,0,0,1-.17,0A.62.62,0,0,1,8.77,83c-.06-.52-.24.18-.19.43s0,.36-.15.38,0-.06-.13.24-.46.33-.55.06-.06-.47-.18-.39-.14.28-.29.33-.12.14-.25.15-.14-.07-.23-.36c0,0,0-.14-.17,0s-.36,0-.32,0-.06-.16-.15-.11-.12,0-.14-.06-.24.07-.17-.16c0-.05,0-.06,0-.13s.07-.14.11-.21,0-.12-.09-.25.07-.26.16-.29.16,0,.06-.15-.27-.25,0-.45a.57.57,0,0,1,.34-.11c.11,0,0-.11-.08-.18a.31.31,0,0,1-.11-.08c-.22-.31,0-.4.21-.47l0,0c.19-.13.66.19.73.23s.31.09.27,0-.23-.13-.3-.32a.2.2,0,0,1,.17-.27h.15a1.43,1.43,0,0,0,.22,0c.11,0,.29.18.59.23s.14-.13.09-.17-.3-.32.08-.38.67.29,1,.24.2-.13.2-.23,0-.16.32-.17.22-.12.3-.18.14,0,.27-.15S10.62,79.86,10.64,79.88Z"></path>
      <path class="cls-14" d="M42.52,48.69l-.08-.06s0,0-.18.1-.2,0-.35.18c0,0,0,0,0,.21s-.25.17-.32.18-.2,0-.25.12a.14.14,0,0,0,0,.14c0,.06.06.16,0,.19s-.16,0-.26,0-.66-.1-.69.31a.38.38,0,0,0,.11.23c.05,0,0,.08,0,.11a.43.43,0,0,1-.29.07,2.25,2.25,0,0,1-.46-.09c-.32-.11-.67.18-.52.44s.1.27,0,.3-.74,0-1,.28a.36.36,0,0,0,0,.57c.13.11,0,.16,0,.18s-.49.26-.29.6a.4.4,0,0,0,.11.12s.12.1.07.15-.21.27-.08.38a.51.51,0,0,1,.18.34c0,.08.06.08.23.09a.39.39,0,0,1,.22.18c.1.16.3,0,.37-.07s.1.07.15.12a.38.38,0,0,0,.52.14.59.59,0,0,0,.17-.15.39.39,0,0,1,.34-.21.57.57,0,0,1,.33.22c.2.21.59-.17.64-.46a6.32,6.32,0,0,1,.22-1.07.33.33,0,0,1,.39-.12c.23.06.48-.33.35-.7s-.28-1,0-.9.32.06.39,0,.18-.19.06-.48-.17-.28-.09-.37.19,0,.25-.13,0-.23,0-.28a.43.43,0,0,1,.07-.23s0-.09,0-.25,0-.15,0-.23,0-.07-.11-.09A.29.29,0,0,1,42.52,48.69Z"></path>
      <path class="cls-14" d="M51,34.72a.28.28,0,0,0,0-.13s0-.06-.22-.11-.17-.19-.43-.25c0,0-.07,0-.26.08s-.37-.13-.42-.19-.17-.2-.32-.17a.22.22,0,0,0-.15.11c0,.07-.11.18-.17.18s-.17-.13-.23-.23-.46-.71-.9-.41a.38.38,0,0,0-.13.29c0,.08-.07.08-.15.07a.57.57,0,0,1-.32-.2,2.9,2.9,0,0,1-.34-.48c-.2-.38-.85-.41-.94-.05s-.15.33-.27.29-.81-.54-1.28-.46-.53.36-.48.57-.1.18-.16.17-.76-.06-.77.43a.36.36,0,0,0,0,.2c0,.07.06.18,0,.21s-.41.15-.34.35a.68.68,0,0,1,0,.48c-.05.07,0,.11.19.23A.44.44,0,0,1,43,36c0,.23.34.15.42.16s.06.14.08.23a.49.49,0,0,0,.42.49.56.56,0,0,0,.25,0,.44.44,0,0,1,.45,0,.85.85,0,0,1,.17.46c0,.35.61.28.84,0a4.88,4.88,0,0,1,.94-.8.36.36,0,0,1,.41.22c.14.26.62.15.82-.27s.63-1,.76-.74.18.34.26.38.29,0,.48-.3.14-.37.29-.36.16.16.29.16.23-.15.27-.2a.44.44,0,0,1,.27-.09c.08,0,.11,0,.25-.16s.19-.05.26-.11,0-.1,0-.17A.33.33,0,0,1,51,34.72Z"></path>
      <path class="cls-16" d="M43.05,48.87a.66.66,0,0,0,.19-.09.24.24,0,0,1,.33,0c.19.18.31.48.5.53s.33,0,.32.25-.1.22.17.32.4.12.44.32-.4.2-.22.37.8.23,1.11.45.42.51.16.73l-.19.08c-.08,0-.13.09.12.37s.4.45.13.62c0,0-.17,0-.11.08s-.12.15-.2.12-.12.13,0,.31a.28.28,0,0,1-.22.4c-.18,0-.21.08-.19.28s-.09.08-.19.17-.1.17-.2.12a.21.21,0,0,0-.19,0h0c-.09.06-.13-.12-.16-.18s-.08-.1-.21,0-.31-.23-.32-.33-.06-.19-.23-.11-.39.06-.43-.31.07-.63-.11-.58-.45.2-.64-.14.27-.89.24-1.17c0,0,0-.22-.14-.18s-.41,0-.31-.37.51-.61.51-.7-.07-.08-.13-.07-.24,0-.2-.16a6.1,6.1,0,0,0,.08-.78A.42.42,0,0,1,43.05,48.87Z"></path>
      <path class="cls-16" d="M46,46.77a.87.87,0,0,0-.12.14.23.23,0,0,1-.28.11c-.22-.08-.43-.27-.6-.24s-.28.11-.35-.06,0-.22-.26-.18-.36.08-.47,0,.23-.34,0-.39-.72.2-1,.19-.52-.16-.42-.44a1.17,1.17,0,0,1,.1-.15c0-.07.06-.14-.25-.21s-.5-.1-.39-.36c0,0,.11-.11,0-.12s0-.18.08-.2,0-.16-.15-.22a.24.24,0,0,1-.06-.4c.11-.13.1-.17,0-.3s0-.11,0-.23,0-.18.07-.2a.19.19,0,0,0,.14-.11h0c0-.09.16,0,.22,0s.11,0,.16-.11.35,0,.41.07.15.12.23,0,.25-.26.49,0,.3.53.41.4.23-.38.58-.19.26.85.42,1.06c0,0,.08.19.2.09s.34-.17.43.18-.15.71-.1.78.08,0,.13,0,.2-.09.24.06a6.39,6.39,0,0,0,.24.67A.35.35,0,0,1,46,46.77Z"></path>
      <path class="cls-14" d="M40.84,47.45a.22.22,0,0,0,.07-.09s0,0-.1-.2,0-.23-.18-.4c0,0,0-.06-.23-.08s-.2-.29-.2-.36,0-.23-.14-.3a.2.2,0,0,0-.17,0c-.07,0-.18.07-.22,0s-.05-.18,0-.29.06-.75-.41-.77a.35.35,0,0,0-.25.13c0,.06-.09,0-.14,0a.47.47,0,0,1-.12-.31,3.72,3.72,0,0,1,0-.53c.07-.38-.36-.75-.62-.55s-.29.15-.34,0-.26-.82-.62-1-.56,0-.64.12-.18.07-.21,0-.48-.48-.78-.15a.44.44,0,0,0-.08.15c0,.07-.07.17-.15.14s-.36-.15-.43,0a.5.5,0,0,1-.3.31c-.07,0,0,.09,0,.28a.41.41,0,0,1-.11.29c-.13.16.14.3.19.35s0,.13-.08.2a.44.44,0,0,0,0,.58.53.53,0,0,0,.2.13c.1,0,.28.11.29.28a.7.7,0,0,1-.15.42c-.16.27.28.55.58.52a5.26,5.26,0,0,1,1.12,0,.32.32,0,0,1,.18.39c0,.26.36.46.74.27s1-.4,1-.12,0,.35,0,.43.2.18.51,0,.31-.19.41-.1,0,.2.13.27a.38.38,0,0,0,.3,0,.45.45,0,0,1,.25.09c.05,0,.08,0,.26,0s.17.06.26.06.08,0,.1-.11A.3.3,0,0,1,40.84,47.45Z"></path>
      <path class="cls-14" d="M38.07,40.15a.28.28,0,0,0,.13,0s.07,0,.15-.21.22-.16.31-.41c0,0,0-.07,0-.28s.2-.35.27-.39.23-.14.23-.29a.2.2,0,0,0-.09-.17c-.06-.06-.16-.15-.14-.21s.16-.14.28-.19.84-.27.64-.77a.41.41,0,0,0-.27-.2c-.07,0-.06-.09,0-.16a.55.55,0,0,1,.29-.25,2.33,2.33,0,0,1,.6-.17c.44-.07.68-.63.35-.84s-.28-.26-.19-.34.84-.51.95-.94-.11-.61-.33-.66-.13-.18-.09-.22.41-.62,0-.89a.66.66,0,0,0-.2-.06c-.08,0-.21,0-.19-.14s.09-.44-.13-.48a.71.71,0,0,1-.43-.29c0-.09-.11-.05-.32,0a.47.47,0,0,1-.36-.07c-.22-.12-.33.24-.38.31s-.17,0-.25-.05a.52.52,0,0,0-.69.15.77.77,0,0,0-.1.29c0,.13-.07.37-.26.45a.84.84,0,0,1-.53,0c-.36-.13-.58.54-.46.91a8.11,8.11,0,0,1,.39,1.36.42.42,0,0,1-.38.38c-.31.07-.37.65,0,1s.91,1,.56,1-.4.11-.46.2-.1.32.2.59.37.23.33.39-.2.16-.22.29.13.28.17.32a.54.54,0,0,1,0,.32c0,.08,0,.11.14.29s0,.21.1.29a.14.14,0,0,0,.17,0A.4.4,0,0,1,38.07,40.15Z"></path>
      <path class="cls-14" d="M35.6,38.19a.17.17,0,0,0-.06-.12s0,0-.22,0-.2-.12-.38-.14c0,0,0,0-.17.13s-.3-.13-.34-.2-.12-.22-.25-.21a.24.24,0,0,0-.14.11c0,.07-.13.17-.19.16s-.13-.17-.17-.29-.23-.86-.81-.66a.42.42,0,0,0-.22.27c0,.08-.1.06-.18,0a.7.7,0,0,1-.32-.29,4,4,0,0,1-.27-.6c-.15-.45-.93-.63-1.1-.25s-.23.33-.36.26-.88-.71-1.46-.66-.68.36-.63.58-.14.19-.21.18-.9-.09-.93.46a.39.39,0,0,0,0,.21c0,.08.06.2,0,.24s-.48.16-.39.38a.67.67,0,0,1,0,.52c-.05.08,0,.12.21.26a.48.48,0,0,1,.14.35c0,.25.36.16.44.18s.07.16.09.25,0,.5.42.55a.57.57,0,0,0,.26,0,.39.39,0,0,1,.45.07.92.92,0,0,1,.14.52c0,.38.56.36.81.14a3.84,3.84,0,0,1,1-.71c.12,0,.28,0,.36.32s.55.29.86-.11.94-1,1-.59.12.41.22.48.36.12.66-.21.23-.39.41-.36.22.18.39.18a.5.5,0,0,0,.34-.25.84.84,0,0,1,.34-.18c.09,0,.12-.06.23-.27s.16-.16.2-.26,0-.12-.07-.17A.5.5,0,0,1,35.6,38.19Z"></path>
      <path class="cls-14" d="M24.74,53.34a.19.19,0,0,0,.1-.05s0,0,0-.23.07-.23,0-.46c0,0,0-.06-.19-.16s-.07-.35-.05-.42.07-.23,0-.34a.23.23,0,0,0-.16-.06c-.07,0-.19,0-.21,0s0-.19.06-.29.32-.71-.14-.9a.34.34,0,0,0-.28,0c-.06,0-.1,0-.13-.08a.6.6,0,0,1,0-.35,2.13,2.13,0,0,1,.2-.5c.18-.35-.13-.87-.45-.75s-.33,0-.36-.06,0-.9-.33-1.22-.56-.22-.68-.07-.2,0-.22,0-.37-.6-.74-.36a.57.57,0,0,0-.13.14c0,.06-.1.14-.17.09s-.33-.23-.44-.06a.57.57,0,0,1-.37.24c-.07,0-.06.07-.07.27a.39.39,0,0,1-.16.26c-.17.13.07.32.1.39s-.07.12-.13.18a.46.46,0,0,0-.14.57.52.52,0,0,0,.17.16c.08.06.23.18.2.35a.69.69,0,0,1-.26.36c-.23.22.1.59.4.64a4.55,4.55,0,0,1,1.06.29.32.32,0,0,1,0,.42c-.13.23.18.53.6.48s1.12,0,.94.2-.17.31-.16.39.11.24.45.22.36-.07.42,0,0,.21,0,.3.22.11.28.11a.48.48,0,0,1,.2.18c0,.06.06.07.24.12s.13.12.21.15.1,0,.14-.06A.32.32,0,0,1,24.74,53.34Z"></path>
      <path class="cls-17" d="M12.14,66.52a.57.57,0,0,0,.18,0s.12,0,.09.12a.56.56,0,0,0,0,.31c0,.13-.1.17-.06.28s.2.27,0,.34-.06.53.06.7.26.46,0,.55-.34-.21-.38,0c-.07.46.74,1.08.36,1.88a.15.15,0,0,1-.17.09c-.08,0-.19-.1-.34-.31-.35-.47-.13.3.06.52s.17.37.06.44,0,0,0,.31-.24.56-.49.35-.32-.42-.4-.27,0,.34-.08.47,0,.2-.15.28-.18,0-.44-.21c0,0-.1-.11-.14.12s-.33.25-.34.14a.11.11,0,0,0-.21,0c0,.09-.11.07-.17,0s-.18.21-.25,0a.17.17,0,0,0-.1-.11c-.12-.06,0-.18,0-.26s0-.15-.23-.2-.09-.29,0-.37.12-.14,0-.19-.41-.08-.24-.44A.71.71,0,0,1,9,70.73c.11-.06,0-.13-.17-.13a.47.47,0,0,1-.17,0c-.38-.17-.25-.38-.05-.59a.13.13,0,0,0,0,0c.11-.24.76-.19.85-.19s.35-.09.24-.2-.3,0-.46-.15a.23.23,0,0,1,0-.37A.84.84,0,0,1,9.42,69a2,2,0,0,0,.22-.13c.09-.07.38,0,.7-.09s.07-.2,0-.22-.46-.15-.11-.42.82-.06,1.12-.29.14-.23.09-.33,0-.17.24-.33.15-.23.21-.33.13-.1.2-.28C12.11,66.52,12.12,66.51,12.14,66.52Z"></path>
      <path class="cls-17" d="M11.94,65.55l-.12,0s-.09,0-.1,0a.28.28,0,0,0-.07-.21c-.05-.08,0-.13,0-.2s-.21-.12-.09-.22-.12-.36-.25-.42-.31-.21-.18-.34.29,0,.24-.12c-.09-.31-.82-.42-.86-1a.12.12,0,0,1,.08-.11.58.58,0,0,1,.32.06c.39.16,0-.22-.22-.28s-.25-.15-.21-.23,0,0-.12-.17-.07-.4.16-.38.36.12.34,0-.15-.18-.14-.3,0-.12,0-.21.09-.09.34-.06c0,0,.11,0,0-.12s.08-.28.14-.22a.08.08,0,0,0,.13-.08c0-.08,0-.09.08-.09s0-.2.17-.08,0,0,.1,0,.09.1.13.15.08.07.21,0,.18.14.17.22,0,.14.1.1.27-.13.32.17a.48.48,0,0,1,0,.31c0,.09.07.07.15,0l.11-.06c.3,0,.3.15.26.37v0c0,.21-.38.44-.44.47s-.19.19-.08.22.19-.12.35-.08a.19.19,0,0,1,.12.26l-.07.11a1.23,1.23,0,0,0-.1.16c0,.09-.24.12-.41.31s0,.16.07.15.35-.06.21.24-.5.31-.64.55,0,.2,0,.24.09.11-.06.29,0,.2-.05.28-.06.1-.06.25A0,0,0,0,1,11.94,65.55Z"></path>
      <path class="cls-17" d="M16.47,65.79a.33.33,0,0,0,.17,0c.05,0,.12,0,.1.11a.59.59,0,0,0,0,.32c0,.14-.09.18-.06.29s.2.28,0,.35-.09.55,0,.73.19.51-.06.58-.3-.25-.38,0c-.15.45.52,1.24-.14,2a.18.18,0,0,1-.2,0c-.07,0-.14-.15-.22-.39-.18-.57-.22.26-.14.54s0,.41-.11.46,0-.06-.13.32-.52.47-.65.17-.09-.51-.24-.4-.13.34-.31.42-.14.17-.29.19-.17,0-.28-.38c0,0,0-.15-.19,0s-.42.07-.37,0S12.9,71,12.81,71s-.14,0-.16-.07-.27.09-.19-.17c0-.06,0-.07,0-.14s.08-.16.12-.23,0-.14-.1-.28,0-.28.15-.31.16,0,.05-.17-.3-.26,0-.47a.59.59,0,0,1,.32-.13c.12,0,0-.12-.1-.18a.48.48,0,0,1-.14-.09c-.26-.31-.1-.4.11-.49l0,0c.14-.15.7.12.79.15s.34,0,.26-.09-.28-.09-.39-.28-.06-.27.07-.3h.16a.89.89,0,0,0,.22,0c.1,0,.35.12.67.08s.1-.16,0-.19-.42-.22-.06-.39.79.06,1.1-.14.14-.21.1-.3,0-.17.24-.32.15-.23.19-.33.13-.1.19-.28S16.44,65.79,16.47,65.79Z"></path>
      <path class="cls-8" d="M73.44,210.45a.61.61,0,0,0-.59-.22c-.33.11-.46.36-.4.46a1.33,1.33,0,0,0,.12.12c.08.08.26-.15.26-.15Z"></path>
      <path class="cls-18" d="M73.61,210.85s-.1-.45-.27-.46a2.7,2.7,0,0,1-.36,0l0,.08s.16.3.23.32a1.44,1.44,0,0,1,.22.07Z"></path>
      <path class="cls-10" d="M73.6,210.9s0-.14-.07-.17l-.21,0-.32.24c-.06,0-.09,0,.06.07s.15.09.3.07A.42.42,0,0,0,73.6,210.9Z"></path>
      <path class="cls-11" d="M73.32,210.68a1.67,1.67,0,0,0-.2.2c-.08.09-.09.12-.19.07s-.34-.08-.4-.18-.06-.08,0-.19a.44.44,0,0,1,.31-.19.29.29,0,0,1,.32.06A.83.83,0,0,1,73.32,210.68Z"></path>
      <path class="cls-8" d="M65.06,207.41a.89.89,0,0,0-.91-.13c-.44.24-.55.65-.44.77l.21.14c.14.09.32-.29.33-.29Z"></path>
      <path class="cls-18" d="M65.42,207.92s-.28-.61-.52-.56-.52.06-.52.06l0,.13s.33.37.43.38.3,0,.35,0A2.15,2.15,0,0,0,65.42,207.92Z"></path>
      <path class="cls-10" d="M65.42,208c0-.06,0-.21-.14-.22a1.55,1.55,0,0,0-.33,0s-.32.37-.39.43-.12.07.12.09.25.07.44,0A.6.6,0,0,0,65.42,208Z"></path>
      <path class="cls-11" d="M65,207.78a2.83,2.83,0,0,0-.22.33c-.08.16-.1.21-.25.17s-.51,0-.63-.13-.11-.1,0-.29a.68.68,0,0,1,.39-.37.39.39,0,0,1,.47,0A1,1,0,0,1,65,207.78Z"></path>
      <path class="cls-8" d="M71,206.2s-1.89-.95-3.21.2-1.38,2.63-.93,2.95a6.2,6.2,0,0,0,.83.33c.54.2.88-1.22.91-1.24S71,206.2,71,206.2Z"></path>
      <path class="cls-18" d="M72.59,207.68s-1.4-1.87-2.2-1.54a17.05,17.05,0,0,1-1.73.59l0,.48s1.38,1,1.74,1,1-.15,1.18-.15A7.9,7.9,0,0,0,72.59,207.68Z"></path>
      <path class="cls-10" d="M72.64,208c0-.21-.09-.74-.65-.67a7.39,7.39,0,0,0-1.12.24s-.82,1.5-1,1.75-.36.32.46.21.89.08,1.51-.29A2.09,2.09,0,0,0,72.64,208Z"></path>
      <path class="cls-11" d="M70.87,207.54a9.51,9.51,0,0,0-.51,1.3c-.17.59-.18.76-.72.73s-1.75.32-2.24,0-.46-.26-.32-1a2.5,2.5,0,0,1,1.07-1.55,1.41,1.41,0,0,1,1.6-.33A3.51,3.51,0,0,1,70.87,207.54Z"></path>
      <path class="cls-8" d="M78.24,206.8a2.75,2.75,0,0,0-2.57-1.12c-1.47.37-2.11,1.49-1.89,1.91a4.56,4.56,0,0,0,.51.59c.34.37,1.17-.59,1.2-.6S78.24,206.8,78.24,206.8Z"></path>
      <path class="cls-18" d="M78.89,208.59s-.34-2-1.08-2.07a15.3,15.3,0,0,1-1.58-.23l-.23.35s.66,1.34,1,1.46.84.29,1,.35A7.4,7.4,0,0,0,78.89,208.59Z"></path>
      <path class="cls-10" d="M78.82,208.83a.53.53,0,0,0-.24-.78,9,9,0,0,0-1-.26s-1.23.84-1.47,1-.4.11.27.35.66.42,1.29.37A1.8,1.8,0,0,0,78.82,208.83Z"></path>
      <path class="cls-11" d="M77.62,207.79a7.44,7.44,0,0,0-.91.81c-.37.39-.44.51-.85.28s-1.48-.45-1.74-.88-.25-.39.13-.87a2.19,2.19,0,0,1,1.44-.77,1.22,1.22,0,0,1,1.37.37A3.21,3.21,0,0,1,77.62,207.79Z"></path>
      <path class="cls-8" d="M73.18,207.57a2.91,2.91,0,0,0-3-.39c-1.42.81-1.74,2.15-1.39,2.53a6.22,6.22,0,0,0,.7.45c.46.28,1-1,1.06-1S73.18,207.57,73.18,207.57Z"></path>
      <path class="cls-18" d="M74.39,209.22s-.94-2-1.73-1.81-1.7.23-1.7.23l-.13.43s1.08,1.18,1.42,1.22,1,.05,1.11.07A7.35,7.35,0,0,0,74.39,209.22Z"></path>
      <path class="cls-10" d="M74.39,209.49c0-.19,0-.7-.48-.73a6.46,6.46,0,0,0-1.06,0s-1,1.22-1.25,1.42-.38.23.39.28.8.24,1.44,0A2,2,0,0,0,74.39,209.49Z"></path>
      <path class="cls-11" d="M72.85,208.78a8,8,0,0,0-.71,1.1c-.27.51-.3.66-.79.54s-1.67,0-2.06-.4-.37-.32-.12-.93.59-.84,1.26-1.22a1.3,1.3,0,0,1,1.52,0A3.42,3.42,0,0,1,72.85,208.78Z"></path>
      <path class="cls-8" d="M81.31,210.3a.94.94,0,0,0,.86-.43c.23-.47.08-.89-.08-.92h-.27c-.17,0-.1.44-.11.45S81.31,210.3,81.31,210.3Z"></path>
      <path class="cls-18" d="M80.69,210.07s.6.36.79.18.41-.37.41-.37l0-.13a1.93,1.93,0,0,0-.6-.08l-.31.18A2,2,0,0,0,80.69,210.07Z"></path>
      <path class="cls-10" d="M80.64,210c0,.06.11.2.26.11a1.82,1.82,0,0,0,.28-.19s.06-.51.08-.61.06-.12-.16,0-.25.08-.38.25A.64.64,0,0,0,80.64,210Z"></path>
      <path class="cls-11" d="M81.18,209.92a3.36,3.36,0,0,0,0-.42c0-.19,0-.24.12-.29s.45-.29.62-.26.16,0,.2.22a.78.78,0,0,1-.12.56.44.44,0,0,1-.41.28A1.09,1.09,0,0,1,81.18,209.92Z"></path>
      <path class="cls-8" d="M60.51,211.39a.94.94,0,0,0,.86-.43c.24-.47.08-.89-.08-.93a1.32,1.32,0,0,0-.27,0c-.17,0-.1.44-.11.45S60.51,211.39,60.51,211.39Z"></path>
      <path class="cls-18" d="M59.89,211.16s.6.36.79.17a5.29,5.29,0,0,1,.41-.36l0-.14a2,2,0,0,0-.6-.07l-.31.18A1.94,1.94,0,0,0,59.89,211.16Z"></path>
      <path class="cls-10" d="M59.84,211.09s.11.19.26.11a2.42,2.42,0,0,0,.28-.2s.06-.51.08-.6.06-.13-.15,0-.26.08-.39.26A.64.64,0,0,0,59.84,211.09Z"></path>
      <path class="cls-11" d="M60.38,211a2,2,0,0,0,0-.42c0-.18,0-.23.12-.28s.45-.3.62-.27.16,0,.2.23a.76.76,0,0,1-.12.55.42.42,0,0,1-.4.28A1.11,1.11,0,0,1,60.38,211Z"></path>
      <path class="cls-8" d="M66.45,210.64a1.21,1.21,0,0,0,1.14-.47c.34-.58.18-1.13,0-1.19l-.35,0c-.22,0-.17.56-.18.57Z"></path>
      <path class="cls-18" d="M65.68,210.29s.74.51,1,.3.55-.43.55-.43l0-.18a2.67,2.67,0,0,0-.76-.15L66,210A2.94,2.94,0,0,0,65.68,210.29Z"></path>
      <path class="cls-10" d="M65.63,210.2a.23.23,0,0,0,.32.16c.19-.1.37-.22.37-.22s.12-.65.15-.77.09-.15-.19,0-.33.07-.51.29A.81.81,0,0,0,65.63,210.2Z"></path>
      <path class="cls-11" d="M66.32,210.14a3.73,3.73,0,0,0,0-.54c0-.24,0-.3.17-.35s.6-.33.81-.28.2,0,.24.3a1,1,0,0,1-.2.7.52.52,0,0,1-.54.31A1.47,1.47,0,0,1,66.32,210.14Z"></path>
      <path class="cls-8" d="M70.78,209.79a.78.78,0,0,1,.71-.1c.34.16.44.43.35.52l-.16.1c-.1.06-.25-.2-.26-.2Z"></path>
      <path class="cls-18" d="M70.51,210.15s.21-.42.4-.39l.4,0,0,.09s-.25.26-.33.27l-.26,0A1.69,1.69,0,0,1,70.51,210.15Z"></path>
      <path class="cls-10" d="M70.52,210.21a.12.12,0,0,1,.1-.16,1.94,1.94,0,0,1,.26,0s.25.24.31.28.09,0-.09.07-.19,0-.34,0A.41.41,0,0,1,70.52,210.21Z"></path>
      <path class="cls-11" d="M70.88,210.05a1.54,1.54,0,0,1,.18.22c.06.11.07.14.19.11s.4,0,.48-.1.09-.08,0-.2-.15-.17-.32-.25a.35.35,0,0,0-.36,0A.67.67,0,0,0,70.88,210.05Z"></path>
      <path class="cls-8" d="M77.15,208a2.72,2.72,0,0,0-2.76-.3c-1.29.78-1.57,2-1.23,2.37a5.14,5.14,0,0,0,.65.4c.43.26.93-.9,1-.91S77.15,208,77.15,208Z"></path>
      <path class="cls-18" d="M78.3,209.51s-.91-1.8-1.64-1.64a15.42,15.42,0,0,1-1.56.24l-.12.4s1,1.08,1.34,1.11.89,0,1,0A6.08,6.08,0,0,0,78.3,209.51Z"></path>
      <path class="cls-10" d="M78.3,209.76c0-.18,0-.64-.46-.67a6.91,6.91,0,0,0-1,0s-.93,1.15-1.12,1.34-.35.22.37.25.74.21,1.32,0A1.82,1.82,0,0,0,78.3,209.76Z"></path>
      <path class="cls-11" d="M76.86,209.13a8,8,0,0,0-.63,1c-.24.48-.27.62-.72.51s-1.54,0-1.91-.32-.35-.29-.14-.86a2.18,2.18,0,0,1,1.15-1.15,1.2,1.2,0,0,1,1.41-.05A3.22,3.22,0,0,1,76.86,209.13Z"></path>
      <path class="cls-8" d="M69.33,209.7a1.82,1.82,0,0,0-1.75.63c-.55.85-.34,1.68,0,1.79a3.12,3.12,0,0,0,.51,0c.34,0,.29-.82.31-.84S69.33,209.7,69.33,209.7Z"></path>
      <path class="cls-18" d="M70.46,210.26s-1.08-.81-1.47-.5-.86.61-.86.61l0,.27a3.6,3.6,0,0,0,1.13.27c.2-.07.54-.25.63-.27A5,5,0,0,0,70.46,210.26Z"></path>
      <path class="cls-10" d="M70.54,210.41c-.05-.11-.18-.39-.48-.26a4.65,4.65,0,0,0-.58.31s-.21,1-.27,1.14-.15.23.29,0,.51-.1.79-.41A1.2,1.2,0,0,0,70.54,210.41Z"></path>
      <path class="cls-11" d="M69.48,210.46a6.34,6.34,0,0,0-.07.81c0,.35,0,.45-.28.52s-.92.46-1.24.37-.3-.07-.34-.48a1.48,1.48,0,0,1,.35-1,.81.81,0,0,1,.83-.45A2.16,2.16,0,0,1,69.48,210.46Z"></path>
    </g>
  </g>
</svg>
