<?xml version="1.0" encoding="UTF-8"?>
<svg xmlns="http://www.w3.org/2000/svg" xmlns:xlink="http://www.w3.org/1999/xlink" viewBox="0 0 93.67 147.75">
  <defs>
    <style>.cls-1{fill:#8e6848;}.cls-2{fill:url(#Безымянный_градиент_7);}.cls-3{fill:#713e21;}.cls-4{fill:#3d271f;}.cls-5{fill:#69391e;}.cls-6{fill:#6b482f;}.cls-7{fill:#5c3624;}.cls-8{fill:#795135;}.cls-9{fill:#9a734f;}.cls-10{fill:#e7e6e3;}.cls-11{fill:#85563a;}.cls-12{fill:#91b33d;}.cls-13{fill:#81a135;}</style>
    <linearGradient id="Безымянный_градиент_7" x1="44.66" y1="180.32" x2="49.05" y2="98.61" gradientUnits="userSpaceOnUse">
      <stop offset="0.38" stop-color="#9b714f"></stop>
      <stop offset="0.91" stop-color="#754427"></stop>
      <stop offset="1" stop-color="#6e3c20"></stop>
    </linearGradient>
  </defs>
  <g id="Слой_2" data-name="Слой 2">
    <g id="Слой_1-2" data-name="Слой 1">
      <path class="cls-1" d="M49.08,91.48s8.18,9.61,14.5,10S91.5,95.05,91.5,95.05l2.17-22.49L49.08,56.84Z"></path>
      <path class="cls-1" d="M0,71,4.45,100.3s15.8,2.37,18.57,1.58,15.41-5.53,19-5.53,7.1-4.87,7.1-4.87V56.84Z"></path>
      <polygon class="cls-2" points="6.57 127.75 49.08 147.75 88.39 127.84 47.52 110.52 6.57 127.75"></polygon>
      <path class="cls-3" d="M6.57,127.75,4.45,100.3s20.15-.4,25.68-3.16,19-5.66,19-5.66l-1.56,19Z"></path>
      <path class="cls-4" d="M35.29,102a7.25,7.25,0,0,0-2.41-1.42h0s-3.22-1-5,1.2-1.45,4.5-.66,4.88a10.3,10.3,0,0,0,1.39.29s.05,0,.08,0a24.59,24.59,0,0,0,3-.67,1.74,1.74,0,0,0,.52-.14l.55-.16c1.26-.39,1.41-.11,2.29-.87A3.35,3.35,0,0,0,36,102.9a2,2,0,0,0-.18-.43h0l0,0A.86.86,0,0,0,35.29,102Z"></path>
      <path class="cls-4" d="M18,104.84A9.12,9.12,0,0,0,14.62,106v0s-3.66,2.29-3.06,5.82,3.11,5.21,4.15,4.76a12.07,12.07,0,0,0,1.46-1.09s0-.08,0-.11c.78-.89,1.35-2.69,1.88-3.45a1.87,1.87,0,0,0,.3-.61c.09-.17.18-.36.32-.67.68-1.55,1.09-1.46,1.1-2.94a4.35,4.35,0,0,0-1.31-2.73,3,3,0,0,0-.56-.19v0h-.06A1,1,0,0,0,18,104.84Z"></path>
      <path class="cls-5" d="M49.08,91.48l-1.56,19L88.4,127.84l3.1-32.79s-12.75-1.47-18.28-.68S58.05,97.53,55.15,96A38.49,38.49,0,0,1,49.08,91.48Z"></path>
      <path class="cls-4" d="M33.5,111.05a2.86,2.86,0,0,0-1.06-.27h0a2,2,0,0,0-1.73,1c-.42,1,0,1.85.3,1.91a4.61,4.61,0,0,0,.55,0s0,0,0,0c.34-.11.78-.48,1-.59a.7.7,0,0,0,.18-.11l.19-.12c.43-.29.52-.2.76-.58a1.34,1.34,0,0,0,.1-.92.92.92,0,0,0-.11-.14h0A.3.3,0,0,0,33.5,111.05Z"></path>
      <path class="cls-4" d="M73.56,102.85a2,2,0,0,0-.1-.76h0s-.33-.86-1.08-.88-1.22.43-1.17.66a2.7,2.7,0,0,0,.17.35s0,0,0,0a5.93,5.93,0,0,0,.64.54l.11.09.13.09c.29.21.26.29.56.35a.91.91,0,0,0,.63-.16.44.44,0,0,0,.06-.1h0v0A.2.2,0,0,0,73.56,102.85Z"></path>
      <path class="cls-4" d="M85,116.61a9.44,9.44,0,0,0-1.62-3.25h0s-2.82-3.33-6.26-2.21S72.37,115,73,116a12.36,12.36,0,0,0,1.31,1.3s.08,0,.11,0c1,.66,2.88,1,3.72,1.38a2.15,2.15,0,0,0,.65.22l.72.21c1.64.47,1.61.88,3.09.68a4.38,4.38,0,0,0,2.54-1.71,3,3,0,0,0,.11-.58h0l0-.06A1.05,1.05,0,0,0,85,116.61Z"></path>
      <path class="cls-4" d="M62.76,105.31a7.18,7.18,0,0,0-1.59,2.29v0s-1.2,3.12.82,5,4.34,1.77,4.78,1a9.21,9.21,0,0,0,.39-1.35s0-.05,0-.08a26,26,0,0,0-.45-3,1.37,1.37,0,0,0-.1-.52c0-.14,0-.3-.11-.56-.3-1.27,0-1.4-.69-2.32a3.36,3.36,0,0,0-2.08-1.08,2.11,2.11,0,0,0-.43.14h0l0,0A.83.83,0,0,0,62.76,105.31Z"></path>
      <path class="cls-6" d="M62.91,128.6a1.36,1.36,0,0,0,1.34-.35c.46-.59.36-1.22.14-1.32a2.23,2.23,0,0,0-.37-.07c-.25,0-.27.59-.28.6S62.91,128.6,62.91,128.6Z"></path>
      <path class="cls-7" d="M62.11,128.11s.75.67,1.06.47a6.71,6.71,0,0,1,.67-.4V128s-.67-.32-.82-.27l-.48.16A3,3,0,0,0,62.11,128.11Z"></path>
      <path class="cls-8" d="M62.07,128c0,.09.1.31.33.23a4.35,4.35,0,0,0,.45-.19s.22-.7.28-.82.12-.17-.22,0-.38,0-.61.24A.89.89,0,0,0,62.07,128Z"></path>
      <path class="cls-9" d="M62.85,128a5.91,5.91,0,0,0,.11-.59c0-.27,0-.34.24-.37s.71-.28.94-.19.22.07.22.37A1,1,0,0,1,64,128a.6.6,0,0,1-.64.28A1.63,1.63,0,0,1,62.85,128Z"></path>
      <path class="cls-6" d="M53.83,123.39A3,3,0,0,0,56.59,122c.72-1.52.21-2.86-.31-3a5.37,5.37,0,0,0-.86,0c-.56,0-.31,1.42-.33,1.45S53.83,123.39,53.83,123.39Z"></path>
      <path class="cls-7" d="M51.83,122.69s2,1.12,2.54.52,1.3-1.19,1.3-1.19l-.13-.44a6.16,6.16,0,0,0-1.93-.21c-.31.17-.85.53-1,.59A7.5,7.5,0,0,0,51.83,122.69Z"></path>
      <path class="cls-8" d="M51.67,122.46c.09.17.37.62.84.34a7.34,7.34,0,0,0,.89-.64s.16-1.65.22-1.94.19-.42-.49,0-.82.27-1.23.84A2.07,2.07,0,0,0,51.67,122.46Z"></path>
      <path class="cls-9" d="M53.4,122.16a8.69,8.69,0,0,0,0-1.35c-.08-.59-.13-.74.36-.93s1.43-.95,2-.87.51.06.66.72a2.42,2.42,0,0,1-.36,1.78,1.36,1.36,0,0,1-1.28.92A3.59,3.59,0,0,1,53.4,122.16Z"></path>
      <path class="cls-6" d="M45.35,130a3,3,0,0,0,3,.36c1.43-.83,1.74-2.19,1.38-2.57a6.49,6.49,0,0,0-.71-.45c-.47-.28-1,1-1.06,1S45.35,130,45.35,130Z"></path>
      <path class="cls-7" d="M44.12,128.34s1,2,1.77,1.81,1.71-.25,1.71-.25l.13-.43s-1.1-1.19-1.45-1.22-1,0-1.12-.07A8.91,8.91,0,0,0,44.12,128.34Z"></path>
      <path class="cls-8" d="M44.12,128.06c0,.2,0,.71.49.74a7.45,7.45,0,0,0,1.08,0s1-1.24,1.24-1.45.38-.23-.4-.27-.81-.24-1.45,0A2,2,0,0,0,44.12,128.06Z"></path>
      <path class="cls-9" d="M45.69,128.77a8.91,8.91,0,0,0,.7-1.11c.26-.53.3-.68.79-.56s1.69,0,2.08.38.38.33.14.94a2.4,2.4,0,0,1-1.26,1.25,1.33,1.33,0,0,1-1.55,0A3.42,3.42,0,0,1,45.69,128.77Z"></path>
      <path class="cls-6" d="M41.7,124.52a2.25,2.25,0,0,0,.08-2.32c-.73-1-1.79-1.18-2.05-.88a3.7,3.7,0,0,0-.29.57c-.19.38.81.72.82.75Z"></path>
      <path class="cls-7" d="M40.52,125.57s1.44-.87,1.27-1.47-.31-1.28-.31-1.28l-.34-.07s-.83.91-.83,1.18,0,.74,0,.86A6,6,0,0,0,40.52,125.57Z"></path>
      <path class="cls-8" d="M40.31,125.59c.15,0,.54,0,.53-.42a7.87,7.87,0,0,0-.09-.82s-1-.7-1.19-.85-.21-.28-.19.32-.12.63.1,1.11A1.54,1.54,0,0,0,40.31,125.59Z"></path>
      <path class="cls-9" d="M40.75,124.35a6.91,6.91,0,0,0-.9-.46c-.42-.17-.54-.19-.48-.57s-.1-1.29.15-1.61.23-.31.71-.17a1.83,1.83,0,0,1,1,.88,1,1,0,0,1,.12,1.18A2.53,2.53,0,0,1,40.75,124.35Z"></path>
      <path class="cls-6" d="M34.5,126.23a1,1,0,0,0,.33-1c-.17-.52-.59-.71-.74-.62a1.25,1.25,0,0,0-.19.2c-.13.13.24.4.24.41S34.5,126.23,34.5,126.23Z"></path>
      <path class="cls-7" d="M33.87,126.52s.71-.18.72-.45,0-.57,0-.57l-.13-.07s-.46.27-.49.38a3.56,3.56,0,0,0-.1.36A2.47,2.47,0,0,0,33.87,126.52Z"></path>
      <path class="cls-8" d="M33.78,126.5c.07,0,.23.06.28-.11a3.4,3.4,0,0,0,.06-.35s-.33-.42-.38-.5-.05-.14-.12.11-.13.24-.1.47A.71.71,0,0,0,33.78,126.5Z"></path>
      <path class="cls-9" d="M34.12,126a4,4,0,0,0-.31-.31c-.15-.12-.2-.14-.12-.29s.12-.55.27-.65.13-.1.31,0a.81.81,0,0,1,.32.5.44.44,0,0,1-.1.5A1,1,0,0,1,34.12,126Z"></path>
      <path class="cls-6" d="M32.29,130.21s1.39-2.24.11-4-3.11-2-3.56-1.51a10,10,0,0,0-.51,1c-.31.65,1.42,1.24,1.44,1.28S32.29,130.21,32.29,130.21Z"></path>
      <path class="cls-7" d="M30.25,132s2.49-1.53,2.18-2.56a22.58,22.58,0,0,1-.54-2.22l-.59-.12s-1.43,1.6-1.44,2,.07,1.29.05,1.49A11.15,11.15,0,0,0,30.25,132Z"></path>
      <path class="cls-8" d="M29.88,132.08c.27,0,.94,0,.92-.75a10.49,10.49,0,0,0-.17-1.41s-1.77-1.2-2.07-1.46-.35-.48-.31.56-.21,1.09.18,1.91A2.67,2.67,0,0,0,29.88,132.08Z"></path>
      <path class="cls-9" d="M30.63,129.92a13,13,0,0,0-1.56-.8c-.72-.28-.93-.31-.83-1s-.19-2.22.25-2.78.38-.55,1.22-.3a3.15,3.15,0,0,1,1.8,1.51,1.76,1.76,0,0,1,.24,2A4.62,4.62,0,0,1,30.63,129.92Z"></path>
      <path class="cls-10" d="M52.91,94.35a2.19,2.19,0,0,0-1.37-.55c-.41,0-.72-.06-.86-.52,0-.18-.19-.4-.43-.39-.42,0-.71-.25-1.06-.38s-.31-.47-.22-.7c.16-.44.06-1.25.24-2a3.16,3.16,0,0,0,.21-1.85.73.73,0,0,1-.82.11c-.3-.17-.19-.48-.18-.75s0-.29,0-.44c0,.28-.26.48-.29.77a14.3,14.3,0,0,0-.22,2.61c0,.18,0,.38-.26.33-1-.18-1.63.51-2.44.75a.78.78,0,0,0-.46.4,1.71,1.71,0,0,1-1.86,1c-.63,0-1.65,1-1.69,1.56,0,.12-.06.28.11.34s.24-.05.28-.2a1.59,1.59,0,0,1,2-1.22,1.18,1.18,0,0,0,1.25-.66c.47-.93,1.43-1.06,2.2-1.47.53-.27.9.07.9.68q0,.39,0,.78c0,.1.1,1.14.12,1.2a3.25,3.25,0,0,0,.93,1.35c.11.09.32.15.23.33s-.28.08-.42,0a1,1,0,0,0-1,.21,1.7,1.7,0,0,1-1,.49A.88.88,0,0,0,46,97.32c.36-1.13,1.65-.51,2.17-1.32,0-.06.28,0,.43,0s.31.12.47.16a.44.44,0,0,1,.24.79,1.6,1.6,0,0,1-.55.38c-.5.19-1,.8-1.16.92s-4.3,2.42-.15.53a1.76,1.76,0,0,0,.4-.27,4.92,4.92,0,0,1,1.3-.84c.14-.06.29-.33.42-.15a2.06,2.06,0,0,1,.22.8,2.68,2.68,0,0,1,0,1.17c-.12.42-.81,1.56-.92,1.85a2.3,2.3,0,0,0,.25,1.31,1.53,1.53,0,0,1-.25,1.83c-.41.48-.72,1.06-.28,1.67,0,0,.45.43.66.68a6,6,0,0,1,.64.68.88.88,0,0,0,.88.31.44.44,0,0,1,.48.17c.08.13.57,1.71.74,1.51s-.29-1.09-.42-1.45a.74.74,0,0,0-.65-.5c-.35,0-.62.15-.81-.18-.28-.48-1.1-.85-1.19-1.75-.05-.54.08-.45.45-.87a1.68,1.68,0,0,0,.43-2,.2.2,0,0,1,0-.26c.08-.07.22-.06.25,0,.26.61,1.08.23,1.39.78a.31.31,0,0,0,.49,0c.13-.22-.15-.23-.25-.34-.43-.44-1.21-.28-1.53-.9,0,0-.06,0-.1,0-.64-.2-.72-.34-.38-1,.61-1.17,1.2-2.33.46-3.68-.08-.14-.16-.4,0-.51s1,.4,1.08.53,1.86,1.76,1.63,1.23l-1.28-1.36-.51-.47a2.62,2.62,0,0,1-1.22-1.69,1.08,1.08,0,0,0-.58-.73,1,1,0,0,1-.44-1.06c0-.08,0-.2.08-.24s.2,0,.28.1.34.37.58.23.48.05.6.27a1.06,1.06,0,0,0,.86.64,3.73,3.73,0,0,1,1.51.33c.1,0,.23.1.29-.05S53,94.4,52.91,94.35Z"></path>
      <polygon class="cls-11" points="0 70.97 49.08 91.48 93.67 72.56 49.08 56.84 0 70.97"></polygon>
      <path class="cls-12" d="M44.88,57.72a84.37,84.37,0,0,0,17-17.7,13.89,13.89,0,0,0,1.45-3.18c.51-1.22.94-3,1.37-4.32a1.22,1.22,0,0,0-.1-1A14.52,14.52,0,0,1,63,24.72a18.2,18.2,0,0,1,.26-2.56.56.56,0,0,1,.56.4c.77,1.68,1.72,2.47,2.18,4.77a18.67,18.67,0,0,1-.05,4,9.44,9.44,0,0,1,2.11-3.09c1.29-1,4.07-1.31,5.6-1.35,2.21-.06,3.66-1.56,5.1-3.19.17-.19.27-.47.56-.4s.29.36.22.6c-1.23,4.2-2.63,7.52-6.36,10.06-2.13,1.45-4.4,1-6.6,0-.7-.31-.85-.29-1.11.37-.66,1.62-1.06,3.27-1.83,4.87s-1.18,2.36.74,3.16a5.59,5.59,0,0,1,1.28,5c-.49,2-1.85,2.75-3.71,3.2-1.34.32-2.73.45-4,.89-.18.06-.36.06-.46-.14s0-.38.13-.57a17,17,0,0,1,1.77-1.94,8.89,8.89,0,0,0,2.75-5.6c0-.17,0-.4-.15-.46s-.25.13-.35.25A154.65,154.65,0,0,1,51,54.55s0,.05-.07.1-.3.13-.19.3.25-.07.37-.07c2.5,0,4.5.32,5.71,2.65A2.13,2.13,0,0,0,58.65,59c.17,0,.26.14.1.31a1.06,1.06,0,0,1-.67.26,12.33,12.33,0,0,1-4.65-.12,12.11,12.11,0,0,0-6-.17A34.6,34.6,0,0,1,51,61.12c.38.23,1.14.07,1.4.07,1.5,0,3.63-.2,4,1.48a10.64,10.64,0,0,0,2,4.31c.09.11.27.39.07.57s-.42,0-.6,0a12.83,12.83,0,0,0-5-1.18,5.71,5.71,0,0,1-4.12-1.8c-1.11-1.21-.11-2,.9-2.79.17-.13.56-.23.23-.4a16.14,16.14,0,0,0-3.2-1.58.74.74,0,0,0-.78.28c-.88,1.5-.46,2.73-.22,4.36a39.08,39.08,0,0,1,.56,7,1,1,0,0,1-1.28.2c-.46-.25-.35-.85-.36-1.16a5.41,5.41,0,0,0-.06-.72c-.26-1.89-.5-3.87-.66-5.68-.08-.89-.18-1.88-.24-2.57a1.07,1.07,0,0,0-.93-1.09c-2.29-.39-4.67-.74-6.42-2.25s-2.84-3-4.45-4.67a22.18,22.18,0,0,1-1.32-2.08.93.93,0,0,0-1.09-.21,7.1,7.1,0,0,1-5.73-.71c-.17-.09-.45-.22-.35-.48s.38-.24.62-.2a5,5,0,0,0,2.67-.22,5.76,5.76,0,0,1,2.43-.24c-.17-.44-.3-.57-.8-.59-2.58-.1-4.12-1.44-5.2-3.75s-1.2-4.7-1.36-7.23c0-.67,0-1.43,0-2.13,0-.19,0-.42.23-.5a.38.38,0,0,1,.47.22,13.9,13.9,0,0,0,4.3,4.27,11.64,11.64,0,0,1,2.82,2.73c1.08,1.6.92,3.42.76,5.11a2.47,2.47,0,0,0,.41,2.1s.12-.07.13-.1a28.14,28.14,0,0,1,2.82-5.31c.12-.21.22-.41.46-.36s.18.27.15.49a11.76,11.76,0,0,1-2.39,5.93c-.29.36-.39.45-.24.9a8.53,8.53,0,0,0,1.21,1.66c3.07,3.65,5.48,5.93,10.34,6.11,0-5.55.17-11.06-.77-16.5a3.42,3.42,0,0,0-.7-1.5,16.78,16.78,0,0,0-2.77-3c-.63-.57-1.37-1.18-1.92-1.73a1.22,1.22,0,0,0-1.55-.27c-.61.22-1.16.56-1.71.77a8.32,8.32,0,0,1-3.29.5c-.44,0-.38-.28-.15-.5,1.47-1.42,2.7-2.34,4.82-2a1.68,1.68,0,0,0-1.69-.91,5.68,5.68,0,0,1-4.05-1.35A8.68,8.68,0,0,1,26.51,26a55.65,55.65,0,0,1,.28-6.51c0-.19-.05-.38.18-.47s.38.14.48.32a8.7,8.7,0,0,0,3.77,3.28c2.32,1.29,4.13,2.63,5.15,5.15a5.25,5.25,0,0,1-.49,4.32c-.39.87-.28,1.24.51,1.73a4.39,4.39,0,0,1,2.45-3.43c.25-.16.49-.38.76-.21s.11.44,0,.66a26,26,0,0,1-1.77,3.68.76.76,0,0,0,.06.93c1.21,1.21,2.43,2.3,3.66,3.47.1.09.2.21.35.13s.13-.23.14-.37c.27-3.27.63-6.51,1.11-9.76a1.59,1.59,0,0,0-.81-1.65c-2.16-1.69-3.87-3.3-4.41-6.12a24.72,24.72,0,0,1,0-5.44.7.7,0,0,1,.6-.65c.34,0,.44.27.55.5a11,11,0,0,0,3,3.39c.45.41.55,0,.62-.28.54-2.16,1.42-4.18,1.92-6.3a44,44,0,0,0,1-8.9A21,21,0,0,0,45.42,1c-.06-.64,0-.82.48-1s.67.17.85.56c1.93,4.24,4.5,8.15,6.26,12.5,1.35,3.35,1.84,6.54.33,10C52,26,49.17,27,46.26,27.94c-.73.23-1.1.45-1.23,1.22-.33,2.06-.76,4.12-1,6.2a17.08,17.08,0,0,0,0,2.77c0,.21,0,.47.4.3a2.51,2.51,0,0,0,1-1.67,5.74,5.74,0,0,1,.69-3.67,4.65,4.65,0,0,1,3-2.19A17.42,17.42,0,0,0,56,27.66a4.39,4.39,0,0,0,.71-.85c.21-.28.3-.58.69-.46s.36.56.25.85a8.36,8.36,0,0,1-1.18,2.59,45.33,45.33,0,0,1-7.17,6.6c-1.19,1-2.66,1.33-3.73,2.51A4.81,4.81,0,0,0,44.37,43a76.46,76.46,0,0,1,.54,10.28c0,1.46.05,3,0,4.42M49.8,11.79a19.58,19.58,0,0,0-1.07-3.95,15.42,15.42,0,0,0-1.79-3.26c-.11-.17-.31-.36-.51-.2s-.12.29,0,.48a18.28,18.28,0,0,1,2,4.13,11.75,11.75,0,0,1,.65,6.2,21.84,21.84,0,0,1-3.19,7.34A9.13,9.13,0,0,0,44.45,26c0,.19,0,.47.24.51s.32-.21.42-.4c.73-1.48,1.57-2.85,2.4-4.28A15.41,15.41,0,0,0,49.8,11.79ZM66.16,32.12a.61.61,0,0,0,.6-.1A13.59,13.59,0,0,1,72,30.32a8.78,8.78,0,0,0,5.77-3.21,2,2,0,0,0,.32-1.9,8.63,8.63,0,0,1-6.48,4.3,13.57,13.57,0,0,0-3.68.81A3.2,3.2,0,0,0,66.16,32.12ZM29.33,47.53a3,3,0,0,0-1.1-2,15.81,15.81,0,0,1-5.13-7.68c-.06-.22-.05-.59-.4-.53s-.28.47-.23.7a13.13,13.13,0,0,0,2.32,5.44A23.58,23.58,0,0,0,29.33,47.53ZM27.67,22.07a17.57,17.57,0,0,0,3,5.27,19,19,0,0,1,3.14,4.45c.13.29.27.53.61.4s.19-.55.07-.78a25.76,25.76,0,0,0-3.47-5,11,11,0,0,1-2.58-4.62c-.07-.28,0-.69-.46-.61S27.55,21.73,27.67,22.07ZM51,61.59c-.21,0-.2.17-.14.28a6.78,6.78,0,0,0,1.51,1.86A10.11,10.11,0,0,0,56.2,66c.12,0,.28.25.46,0s-.08-.27-.2-.32a11.39,11.39,0,0,1-3.8-2.47,14.2,14.2,0,0,0-1.25-1.46A.55.55,0,0,0,51,61.59Zm-4-3.19c1.23,0,1.59,0,1.54-1.31A7.42,7.42,0,0,0,46.94,58.4Z"></path>
      <path class="cls-13" d="M49.8,11.79a15.41,15.41,0,0,1-2.29,10c-.83,1.43-1.67,2.8-2.4,4.28-.1.19-.17.43-.42.4s-.26-.32-.24-.51a9.13,9.13,0,0,1,1.43-3.45,21.84,21.84,0,0,0,3.19-7.34A11.75,11.75,0,0,0,48.42,9a18.28,18.28,0,0,0-2-4.13c-.12-.19-.2-.33,0-.48s.4,0,.51.2a15.42,15.42,0,0,1,1.79,3.26A19.58,19.58,0,0,1,49.8,11.79Z"></path>
      <path class="cls-13" d="M66.16,32.12a3.2,3.2,0,0,1,1.76-1.8,13.57,13.57,0,0,1,3.68-.81,8.63,8.63,0,0,0,6.48-4.3,2,2,0,0,1-.32,1.9A8.78,8.78,0,0,1,72,30.32,13.59,13.59,0,0,0,66.76,32,.61.61,0,0,1,66.16,32.12Z"></path>
      <path class="cls-13" d="M29.33,47.53a23.58,23.58,0,0,1-4.54-4.09A13.13,13.13,0,0,1,22.47,38c0-.23-.12-.65.23-.7s.34.31.4.53a15.81,15.81,0,0,0,5.13,7.68A3,3,0,0,1,29.33,47.53Z"></path>
      <path class="cls-13" d="M27.67,22.07c-.12-.34-.13-.79.3-.87s.39.33.46.61A11,11,0,0,0,31,26.43a25.76,25.76,0,0,1,3.47,5c.12.23.26.65-.07.78s-.48-.11-.61-.4a19,19,0,0,0-3.14-4.45A17.57,17.57,0,0,1,27.67,22.07Z"></path>
      <path class="cls-13" d="M51,61.59a.55.55,0,0,1,.44.16,14.2,14.2,0,0,1,1.25,1.46,11.39,11.39,0,0,0,3.8,2.47c.12,0,.39.08.2.32s-.34,0-.46,0a10.11,10.11,0,0,1-3.86-2.25,6.78,6.78,0,0,1-1.51-1.86C50.77,61.76,50.76,61.62,51,61.59Z"></path>
      <path class="cls-6" d="M46.09,79.38a1.34,1.34,0,0,0-1.3-.48c-.72.22-1,.79-.88,1a1.7,1.7,0,0,0,.27.27c.18.18.56-.32.57-.33S46.09,79.38,46.09,79.38Z"></path>
      <path class="cls-7" d="M46.47,80.25s-.22-1-.6-1a7.74,7.74,0,0,1-.78-.07l-.11.18s.37.65.52.7l.49.15C46.05,80.23,46.47,80.25,46.47,80.25Z"></path>
      <path class="cls-8" d="M46.44,80.37c0-.09.09-.31-.14-.38a3.5,3.5,0,0,0-.48-.1s-.59.45-.71.52-.19.06.15.16.34.19.65.15A.9.9,0,0,0,46.44,80.37Z"></path>
      <path class="cls-9" d="M45.82,79.89a4.44,4.44,0,0,0-.43.42c-.18.21-.21.27-.42.17s-.74-.19-.88-.39-.14-.19,0-.43a1.05,1.05,0,0,1,.69-.43.61.61,0,0,1,.69.15A1.66,1.66,0,0,1,45.82,79.89Z"></path>
      <path class="cls-6" d="M43.13,62.66a2,2,0,0,0-2-.29c-1,.55-1.2,1.45-1,1.71a3.83,3.83,0,0,0,.47.31c.31.2.71-.64.73-.65Z"></path>
      <path class="cls-7" d="M43.94,63.8s-.63-1.35-1.17-1.25a11.17,11.17,0,0,1-1.15.14l-.09.29s.72.82.95.85.65,0,.75.06A5.22,5.22,0,0,0,43.94,63.8Z"></path>
      <path class="cls-8" d="M43.93,64c0-.13,0-.47-.32-.5a5,5,0,0,0-.72,0s-.71.82-.85,1-.26.15.26.19.54.17,1,0A1.31,1.31,0,0,0,43.93,64Z"></path>
      <path class="cls-9" d="M42.89,63.48a6.26,6.26,0,0,0-.49.74c-.18.35-.21.45-.54.36s-1.13,0-1.39-.28-.25-.23-.08-.64a1.56,1.56,0,0,1,.87-.82.9.9,0,0,1,1,0A2.27,2.27,0,0,1,42.89,63.48Z"></path>
      <path class="cls-6" d="M39.14,68.8s-4.17-2.08-7.08.45S29,75.05,30,75.75a13.09,13.09,0,0,0,1.82.73c1.2.44,2-2.69,2-2.73S39.14,68.8,39.14,68.8Z"></path>
      <path class="cls-7" d="M42.69,72.08S39.6,68,37.84,68.67,34,70,34,70l-.12,1s3,2.26,3.84,2.19,2.25-.33,2.6-.34A17.34,17.34,0,0,0,42.69,72.08Z"></path>
      <path class="cls-8" d="M42.81,72.71c0-.46-.21-1.64-1.46-1.48a17.86,17.86,0,0,0-2.45.52s-1.82,3.31-2.22,3.88-.78.69,1,.45,1.95.19,3.32-.63A4.71,4.71,0,0,0,42.81,72.71Z"></path>
      <path class="cls-9" d="M38.9,71.75a22.17,22.17,0,0,0-1.14,2.88c-.37,1.31-.39,1.67-1.58,1.6s-3.87.71-4.93,0-1-.58-.73-2.09,1-2.24,2.37-3.42A3.09,3.09,0,0,1,36.41,70,7.91,7.91,0,0,1,38.9,71.75Z"></path>
      <path class="cls-6" d="M53.53,69.67s-3.49-2.06-6.17,0-3,4.84-2.18,5.52a14.24,14.24,0,0,0,1.54.74c1,.45,1.85-2.22,1.92-2.25S53.53,69.67,53.53,69.67Z"></path>
      <path class="cls-7" d="M56.41,72.73S54,69,52.41,69.48s-3.39.91-3.39.91l-.17.9s2.51,2.15,3.21,2.13,2-.15,2.28-.13A15.56,15.56,0,0,0,56.41,72.73Z"></path>
      <path class="cls-8" d="M56.48,73.29c0-.4-.09-1.44-1.18-1.37a15.08,15.08,0,0,0-2.16.3S51.36,75,51,75.45s-.72.55.87.46,1.68.28,2.92-.35A4.1,4.1,0,0,0,56.48,73.29Z"></path>
      <path class="cls-9" d="M53.14,72.22A19.16,19.16,0,0,0,52,74.65c-.4,1.11-.44,1.42-1.47,1.3s-3.4.38-4.28-.28-.85-.56-.5-1.86A4.83,4.83,0,0,1,48,71a2.71,2.71,0,0,1,3.11-.43A6.92,6.92,0,0,1,53.14,72.22Z"></path>
      <path class="cls-6" d="M62.77,66s-3.44-2.66-6.57-.86-3.84,4.76-3.05,5.59a11.27,11.27,0,0,0,1.54,1c1,.63,2.26-2.1,2.34-2.13S62.77,66,62.77,66Z"></path>
      <path class="cls-7" d="M65.43,69.63s-2.08-4.34-3.83-4a37.27,37.27,0,0,1-3.73.51l-.3,1S60,69.7,60.7,69.79s2.12.1,2.45.16A16.86,16.86,0,0,0,65.43,69.63Z"></path>
      <path class="cls-8" d="M65.43,70.23c0-.43.1-1.54-1.07-1.62a17.47,17.47,0,0,0-2.34,0s-2.27,2.7-2.74,3.15-.84.49.86.61,1.76.52,3.17,0A4.39,4.39,0,0,0,65.43,70.23Z"></path>
      <path class="cls-9" d="M62,68.65a19.4,19.4,0,0,0-1.56,2.43c-.58,1.13-.66,1.46-1.74,1.19s-3.68,0-4.53-.87-.83-.71-.28-2.05,1.31-1.87,2.78-2.7a2.89,2.89,0,0,1,3.36-.05A7.56,7.56,0,0,1,62,68.65Z"></path>
      <path class="cls-6" d="M65.44,77.11a2.08,2.08,0,0,0,1.91-.94c.51-1,.18-2-.18-2a3,3,0,0,0-.59,0c-.39,0-.23,1-.25,1S65.44,77.11,65.44,77.11Z"></path>
      <path class="cls-7" d="M64.07,76.61s1.34.79,1.74.39.91-.81.91-.81l-.09-.3a4.27,4.27,0,0,0-1.32-.17c-.21.12-.58.36-.68.4A5.12,5.12,0,0,0,64.07,76.61Z"></path>
      <path class="cls-8" d="M64,76.45c.06.12.24.43.57.24a5.1,5.1,0,0,0,.62-.43s.12-1.12.17-1.33.14-.28-.34,0-.56.18-.85.56A1.43,1.43,0,0,0,64,76.45Z"></path>
      <path class="cls-9" d="M65.16,76.26a7.22,7.22,0,0,0,0-.93c-.05-.4-.09-.5.25-.62s1-.65,1.37-.58.34,0,.44.5A1.7,1.7,0,0,1,67,75.85a1,1,0,0,1-.9.61A2.48,2.48,0,0,1,65.16,76.26Z"></path>
      <path class="cls-6" d="M32.66,77.85a2.66,2.66,0,0,0,2.52-1c.74-1.28.4-2.48,0-2.62a7.37,7.37,0,0,0-.75,0c-.49,0-.38,1.22-.4,1.24S32.66,77.85,32.66,77.85Z"></path>
      <path class="cls-7" d="M31,77.09s1.63,1.13,2.18.65,1.23-.95,1.23-.95l-.09-.39a5.51,5.51,0,0,0-1.67-.33c-.28.13-.77.4-.9.45A6.26,6.26,0,0,0,31,77.09Z"></path>
      <path class="cls-8" d="M30.85,76.88c.07.16.28.57.71.36a7.08,7.08,0,0,0,.83-.49s.25-1.43.33-1.68.2-.35-.43,0-.73.17-1.13.64A1.77,1.77,0,0,0,30.85,76.88Z"></path>
      <path class="cls-9" d="M32.39,76.75a9,9,0,0,0,.06-1.19c0-.52-.06-.65.38-.77s1.31-.74,1.78-.62.45.09.52.67a2.07,2.07,0,0,1-.44,1.53,1.19,1.19,0,0,1-1.19.71A3.23,3.23,0,0,1,32.39,76.75Z"></path>
      <path class="cls-6" d="M44.19,71.27a1.53,1.53,0,0,0,1.55.27c.77-.39,1-1.09.79-1.29a2.62,2.62,0,0,0-.36-.26c-.24-.16-.56.48-.58.49Z"></path>
      <path class="cls-7" d="M43.59,70.38s.45,1.05.87,1a8.58,8.58,0,0,1,.9-.09l.08-.22s-.54-.64-.72-.67-.5,0-.58-.07A5.42,5.42,0,0,0,43.59,70.38Z"></path>
      <path class="cls-8" d="M43.6,70.23c0,.11,0,.37.24.4a4.33,4.33,0,0,0,.55,0s.57-.63.69-.73.2-.11-.2-.15-.41-.14-.75,0A1.06,1.06,0,0,0,43.6,70.23Z"></path>
      <path class="cls-9" d="M44.39,70.65a4.46,4.46,0,0,0,.4-.57c.15-.26.17-.34.43-.26s.87.05,1.07.25.19.18,0,.49a1.25,1.25,0,0,1-.69.62.7.7,0,0,1-.8,0A1.77,1.77,0,0,1,44.39,70.65Z"></path>
      <path class="cls-6" d="M58.2,77.19s3.91,1,5.88-1.74,1.45-5.47.48-5.87a10.35,10.35,0,0,0-1.68-.27c-1.1-.14-1.12,2.64-1.17,2.69S58.2,77.19,58.2,77.19Z"></path>
      <path class="cls-7" d="M54.58,75.11S58,78,59.32,77.05s3-1.84,3-1.84l-.1-.91s-3-1.31-3.66-1.1-1.83.71-2.13.78A15.11,15.11,0,0,0,54.58,75.11Z"></path>
      <path class="cls-8" d="M54.35,74.6c.13.38.5,1.34,1.51,1a15.54,15.54,0,0,0,2-.92S58.73,71.52,59,71s.52-.73-1-.19S56.32,71,55.32,72A4.08,4.08,0,0,0,54.35,74.6Z"></path>
      <path class="cls-9" d="M57.83,74.65A19,19,0,0,0,58.24,72c.06-1.17,0-1.48,1-1.66s3.13-1.33,4.16-1,1,.29,1,1.63a4.78,4.78,0,0,1-1.34,3.33,2.66,2.66,0,0,1-2.83,1.3A6.82,6.82,0,0,1,57.83,74.65Z"></path>
      <path class="cls-6" d="M40.17,74.93s2.35,1.32,4.1-.06,1.93-3.26,1.37-3.69a8.7,8.7,0,0,0-1-.48c-.68-.29-1.2,1.5-1.24,1.52S40.17,74.93,40.17,74.93Z"></path>
      <path class="cls-7" d="M38.21,72.93s1.67,2.48,2.71,2.11,2.24-.65,2.24-.65l.1-.6s-1.7-1.39-2.16-1.37-1.31.12-1.51.12A10.17,10.17,0,0,0,38.21,72.93Z"></path>
      <path class="cls-8" d="M38.16,72.57c0,.26.08,1,.8.89a10.94,10.94,0,0,0,1.43-.23s1.15-1.86,1.4-2.17.47-.38-.58-.3-1.13-.16-1.94.28A2.71,2.71,0,0,0,38.16,72.57Z"></path>
      <path class="cls-9" d="M40.39,73.23a11.58,11.58,0,0,0,.74-1.63c.26-.74.28-.95,1-.88s2.26-.3,2.85.13.58.36.36,1.23A3.17,3.17,0,0,1,43.84,74a1.8,1.8,0,0,1-2.06.33A4.65,4.65,0,0,1,40.39,73.23Z"></path>
    </g>
  </g>
</svg>
