<?xml version="1.0" encoding="UTF-8"?>
<svg xmlns="http://www.w3.org/2000/svg" xmlns:xlink="http://www.w3.org/1999/xlink" viewBox="0 0 152.93 370.99">
  <defs>
    <style>.cls-1{fill:none;}.cls-2{fill:#8e6848;}.cls-3{clip-path:url(#clip-path);}.cls-4{fill:url(#Безымянный_градиент_2);}.cls-5{fill:#713e21;}.cls-6{fill:#3d271f;}.cls-7{fill:#69391e;}.cls-8{fill:#6b472f;}.cls-9{fill:#5c3624;}.cls-10{fill:#795135;}.cls-11{fill:#9a734f;}.cls-12{fill:#f9dec0;}.cls-13{fill:#85563a;}.cls-14{fill:url(#Безымянный_градиент_58);}.cls-15{fill:url(#Безымянный_градиент_55);}.cls-16{fill:#517731;}.cls-17{fill:#658933;}.cls-18{fill:url(#Безымянный_градиент_49);}.cls-19{fill:#6b482f;}</style>
    <clipPath id="clip-path">
      <polygon class="cls-1" points="10.73 331.16 80.12 363.83 144.32 331.32 77.58 303.04 10.73 331.16"></polygon>
    </clipPath>
    <linearGradient id="Безымянный_градиент_2" x1="-862.17" y1="-2796.71" x2="-858.28" y2="-2796.71" gradientTransform="matrix(34.36, 0, 0, -34.36, 29615.1, -95751.46)" gradientUnits="userSpaceOnUse">
      <stop offset="0" stop-color="#9b714e"></stop>
      <stop offset="0.38" stop-color="#9b714e"></stop>
      <stop offset="0.89" stop-color="#764528"></stop>
      <stop offset="1" stop-color="#6e3c20"></stop>
    </linearGradient>
    <linearGradient id="Безымянный_градиент_58" x1="1134.51" y1="307.06" x2="1175.48" y2="215.56" gradientTransform="matrix(-0.96, -0.27, -0.27, 0.96, 1262.31, 98.14)" gradientUnits="userSpaceOnUse">
      <stop offset="0.18" stop-color="#658933"></stop>
      <stop offset="0.79" stop-color="#517731"></stop>
    </linearGradient>
    <linearGradient id="Безымянный_градиент_55" x1="1949.11" y1="138.89" x2="1973.13" y2="133.75" gradientTransform="matrix(-1, 0, 0, 1, 2040.79, 0)" gradientUnits="userSpaceOnUse">
      <stop offset="0.23" stop-color="#44682f"></stop>
      <stop offset="0.45" stop-color="#bee070"></stop>
      <stop offset="0.7" stop-color="#f9f2d7"></stop>
    </linearGradient>
    <linearGradient id="Безымянный_градиент_49" x1="1954.67" y1="198.01" x2="1989.34" y2="198.72" gradientTransform="matrix(-1, 0, 0, 1, 2040.79, 0)" gradientUnits="userSpaceOnUse">
      <stop offset="0.18" stop-color="#44682f"></stop>
      <stop offset="0.43" stop-color="#bee070"></stop>
      <stop offset="0.7" stop-color="#f9f2d7"></stop>
    </linearGradient>
  </defs>
  <g id="Слой_2" data-name="Слой 2">
    <g id="Слой_1-2" data-name="Слой 1">
      <path class="cls-2" d="M80.12,272s13.37,15.69,23.69,16.34,45.57-10.51,45.57-10.51l3.55-36.71L80.12,215.39Z"></path>
      <path class="cls-2" d="M0,238.47l7.26,47.88s25.81,3.87,30.32,2.58,25.16-9,31-9S80.12,272,80.12,272V215.39Z"></path>
      <g class="cls-3">
        <rect class="cls-4" x="43.59" y="265.1" width="67.87" height="136.66" transform="translate(-259.59 392.94) rotate(-86.92)"></rect>
      </g>
      <path class="cls-5" d="M10.73,331.16,7.26,286.35s32.9-.64,41.94-5.16S80.12,272,80.12,272L77.58,303Z"></path>
      <path class="cls-6" d="M57.62,289.13a11.71,11.71,0,0,0-3.94-2.31l0,0s-5.25-1.57-8.12,2-2.37,7.35-1.07,8a15.33,15.33,0,0,0,2.27.48l.12-.06c1.52,0,3.71-1,4.88-1.11a2.49,2.49,0,0,0,.84-.21l.9-.27c2.06-.64,2.31-.17,3.73-1.41a5.55,5.55,0,0,0,1.51-3.54l-.29-.69,0,0-.06-.05a1.41,1.41,0,0,0-.81-.7"></path>
      <path class="cls-6" d="M29.45,293.75a15.19,15.19,0,0,0-5.58,1.85v0s-6,3.74-5,9.5,5.07,8.51,6.77,7.78A19.33,19.33,0,0,0,28,311.06l0-.18c1.28-1.47,2.22-4.39,3.07-5.63a2.91,2.91,0,0,0,.49-1c.15-.28.29-.59.52-1.1,1.12-2.52,1.78-2.38,1.8-4.8s-2.14-4.46-2.14-4.46a5,5,0,0,0-.91-.31v0h-.1a1.82,1.82,0,0,0-1.36.19"></path>
      <path class="cls-7" d="M80.12,272,77.58,303l66.74,28.28,5.06-53.54s-20.81-2.4-29.84-1.11-24.76,5.16-29.49,2.58a62.14,62.14,0,0,1-9.93-7.3"></path>
      <path class="cls-6" d="M54.7,303.89a4.54,4.54,0,0,0-1.74-.42v0s-2.15,0-2.83,1.65-.07,3,.49,3.11l.9-.08,0,0a16.6,16.6,0,0,0,1.71-.95l.28-.18.32-.2c.7-.47.84-.33,1.24-.95a2.14,2.14,0,0,0,.17-1.5l-.18-.22h0l0,0Z"></path>
      <path class="cls-6" d="M120.09,290.51a3.13,3.13,0,0,0-.15-1.24h0s-.53-1.4-1.77-1.43-2,.7-1.9,1.08l.28.57,0,0,1,.87.19.15.2.15c.48.34.42.47.93.57a1.49,1.49,0,0,0,1-.26l.1-.17h0v0Z"></path>
      <path class="cls-6" d="M138.73,313a15.33,15.33,0,0,0-2.64-5.3h0s-4.6-5.43-10.21-3.61-7.77,6.31-6.79,7.89a19.06,19.06,0,0,0,2.12,2.12l.19,0c1.65,1.06,4.71,1.57,6.07,2.24a3.19,3.19,0,0,0,1.07.35c.3.1.62.21,1.16.36,2.69.76,2.64,1.44,5.06,1.1s4.14-2.78,4.14-2.78a5.33,5.33,0,0,0,.18-1h0l0-.11a1.79,1.79,0,0,0-.39-1.33"></path>
      <path class="cls-6" d="M102.46,294.53a11.75,11.75,0,0,0-2.59,3.74l0,0s-1.95,5.09,1.34,8.19,7.1,2.9,7.81,1.65a15.87,15.87,0,0,0,.63-2.2l0-.14c.1-1.49-.67-3.74-.72-4.9a2.66,2.66,0,0,0-.16-.85c0-.23-.1-.5-.19-.91-.48-2.09,0-2.3-1.13-3.81a5.5,5.5,0,0,0-3.39-1.75l-.71.23v0l-.06.06a1.33,1.33,0,0,0-.75.74"></path>
      <path class="cls-8" d="M102.72,332.56a2.19,2.19,0,0,0,2.17-.58c.75-1,.6-2,.25-2.15l-.62-.12c-.4-.06-.44,1-.46,1Z"></path>
      <path class="cls-9" d="M101.41,331.75s1.21,1.1,1.72.77,1.11-.65,1.11-.65l0-.33-1.33-.44-.79.26Z"></path>
      <path class="cls-10" d="M101.33,331.56c0,.14.17.5.55.38a6.22,6.22,0,0,0,.73-.32l.45-1.34c.09-.2.2-.26-.35-.08s-.62.06-1,.4a1.47,1.47,0,0,0-.39,1"></path>
      <path class="cls-11" d="M102.61,331.62a7.11,7.11,0,0,0,.18-1c0-.43,0-.55.39-.6s1.17-.46,1.54-.31.35.12.35.61a1.7,1.7,0,0,1-.53,1.2,1,1,0,0,1-1.05.45,2.44,2.44,0,0,1-.88-.39"></path>
      <path class="cls-8" d="M87.88,324.05s3.32.17,4.51-2.32.35-4.66-.5-4.84a8.86,8.86,0,0,0-1.41,0c-.91.05-.51,2.31-.54,2.36Z"></path>
      <path class="cls-9" d="M84.62,322.91s3.2,1.83,4.14.85,2.13-1.94,2.13-1.94l-.22-.73s-2.63-.61-3.14-.34-1.39.86-1.61,1Z"></path>
      <path class="cls-10" d="M84.36,322.53c.15.28.6,1,1.37.55a12.8,12.8,0,0,0,1.46-1s.25-2.69.36-3.17.31-.68-.81,0-1.33.44-2,1.36a3.38,3.38,0,0,0-.38,2.31"></path>
      <path class="cls-11" d="M87.19,322a14.52,14.52,0,0,0-.07-2.2c-.13-1-.22-1.22.58-1.51s2.33-1.57,3.23-1.43.83.09,1.07,1.17a4,4,0,0,1-.58,2.92,2.2,2.2,0,0,1-2.1,1.48,5.59,5.59,0,0,1-2.13-.43"></path>
      <path class="cls-8" d="M74.05,334.84s2.59,2,4.91.6,2.84-3.59,2.25-4.2a8.7,8.7,0,0,0-1.15-.73c-.77-.46-1.69,1.59-1.74,1.61Z"></path>
      <path class="cls-9" d="M72,332.13s1.59,3.23,2.89,3a28,28,0,0,1,2.79-.4l.22-.71s-1.8-1.94-2.36-2-1.59-.06-1.83-.1Z"></path>
      <path class="cls-10" d="M72,331.68c0,.32-.07,1.15.81,1.2a12.61,12.61,0,0,0,1.75,0l2-2.37c.35-.34.62-.38-.65-.45s-1.32-.38-2.37,0A3.29,3.29,0,0,0,72,331.68"></path>
      <path class="cls-11" d="M74.59,332.84A14.41,14.41,0,0,0,75.74,331c.43-.84.49-1.09,1.3-.9s2.74,0,3.39.62.62.53.23,1.53a3.89,3.89,0,0,1-2.07,2,2.14,2.14,0,0,1-2.51.06,5.56,5.56,0,0,1-1.49-1.52"></path>
      <path class="cls-8" d="M68.09,325.9s1.33-2.11.13-3.79-2.93-1.93-3.35-1.44l-.49.94c-.3.61,1.33,1.17,1.35,1.21Z"></path>
      <path class="cls-9" d="M66.15,327.62s2.36-1.43,2.07-2.4-.49-2.1-.49-2.1l-.55-.12s-1.37,1.5-1.37,1.93.06,1.21,0,1.4Z"></path>
      <path class="cls-10" d="M65.81,327.65c.25,0,.89,0,.86-.7a10.21,10.21,0,0,0-.14-1.33l-2-1.39c-.28-.24-.32-.45-.29.52s-.21,1,.16,1.81a2.49,2.49,0,0,0,1.36,1.09"></path>
      <path class="cls-11" d="M66.52,325.62a10.81,10.81,0,0,0-1.46-.76c-.68-.27-.87-.3-.77-.93s-.18-2.1.24-2.62.36-.52,1.16-.28a3,3,0,0,1,1.69,1.44,1.66,1.66,0,0,1,.2,1.92,4.19,4.19,0,0,1-1.06,1.23"></path>
      <path class="cls-8" d="M56.33,328.69a1.6,1.6,0,0,0,.53-1.55c-.28-.85-1-1.17-1.2-1l-.32.32.4.68Z"></path>
      <path class="cls-9" d="M55.3,329.16s1.16-.29,1.17-.73a9,9,0,0,1,.06-.93l-.21-.12-.81.62-.17.59Z"></path>
      <path class="cls-10" d="M55.16,329.13l.44-.18.12-.57-.63-.82c-.09-.14-.08-.23-.19.17s-.22.41-.16.77a1.08,1.08,0,0,0,.42.63"></path>
      <path class="cls-11" d="M55.71,328.38l-.51-.5-.2-.49.44-1.05.51,0a1.27,1.27,0,0,1,.52.81.71.71,0,0,1-.16.82Z"></path>
      <path class="cls-8" d="M52.72,335.18s2.27-3.66.18-6.56-5.07-3.32-5.81-2.46a13.13,13.13,0,0,0-.83,1.62c-.51,1.07,2.31,2,2.34,2.1Z"></path>
      <path class="cls-9" d="M49.38,338.18s4.08-2.5,3.57-4.18-.89-3.63-.89-3.63l-1-.2s-2.35,2.6-2.35,3.36.11,2.1.08,2.43Z"></path>
      <path class="cls-10" d="M48.79,338.23c.43,0,1.53-.05,1.49-1.21a16.37,16.37,0,0,0-.27-2.31s-2.89-2-3.38-2.39-.57-.78-.51.92-.34,1.78.3,3.11a4.35,4.35,0,0,0,2.37,1.88"></path>
      <path class="cls-11" d="M50,334.71a20.07,20.07,0,0,0-2.55-1.3c-1.18-.46-1.51-.51-1.35-1.6s-.31-3.63.4-4.55.62-.89,2-.48,2,1.1,2.94,2.47a2.85,2.85,0,0,1,.38,3.31A7.33,7.33,0,0,1,50,334.71"></path>
      <path class="cls-12" d="M80.33,262.57a10.28,10.28,0,0,1-.65,4.72c-.52,1.45-1.13,2.8-1.62,4.18s-.83,2.85-1.24,4.28a34.47,34.47,0,0,1-1.4,4.28,30.42,30.42,0,0,1-2.4,3.79,19.84,19.84,0,0,0-2,4,18.72,18.72,0,0,0-1,8.78,19.76,19.76,0,0,1,.84-8.83,20.6,20.6,0,0,1,1.87-4.08A30.41,30.41,0,0,0,75,279.85a33.15,33.15,0,0,0,1.23-4.26l1.1-4.34c.4-1.47,1-2.85,1.32-4.26a7.6,7.6,0,0,0,.08-4.09.8.8,0,0,1,.53-1,.82.82,0,0,1,1,.53l0,.14Z"></path>
      <path class="cls-12" d="M79.75,263.51a25.18,25.18,0,0,1,0,4.07,24.88,24.88,0,0,1-.52,4,5.56,5.56,0,0,1-.79,2l-1.24,1.57a39.84,39.84,0,0,1-2.67,3,24.89,24.89,0,0,1-6.43,4.74,31.57,31.57,0,0,0-3.42,2,6.65,6.65,0,0,0-2.52,3,6.72,6.72,0,0,1,2.44-3.09A32.87,32.87,0,0,1,68,282.64a24.58,24.58,0,0,0,6.17-4.88c.89-1,1.72-2,2.52-3l1.18-1.6a5,5,0,0,0,.6-1.71,29.15,29.15,0,0,0,.32-7.76v0a.51.51,0,0,1,.43-.56.49.49,0,0,1,.55.43Z"></path>
      <path class="cls-12" d="M79.73,263.14a93.74,93.74,0,0,0-4.22,12.43q-.84,3.18-1.46,6.42c-.41,2.15-.69,4.33-1,6.51.25-2.19.44-4.38.78-6.56s.74-4.34,1.22-6.49a95.61,95.61,0,0,1,3.78-12.68.5.5,0,0,1,.63-.29.49.49,0,0,1,.29.64Z"></path>
      <path class="cls-12" d="M79.29,263.11a32.36,32.36,0,0,1-.16,7.62c-.29,2.51-.69,5-1.06,7.47s-.74,5-1.15,7.44c-.21,1.24-.37,2.49-.67,3.73a9.24,9.24,0,0,1-1.5,3.46c1.3-2.21,1.25-4.78,1.53-7.27s.46-5,.73-7.5.52-5,.82-7.48a66,66,0,0,0,.47-7.41.49.49,0,0,1,.49-.5A.5.5,0,0,1,79.29,263.11Z"></path>
      <path class="cls-12" d="M79.88,264.14a14.87,14.87,0,0,0,1.76,8.16c1.25,2.59,2.84,5.06,4.23,7.67a18.66,18.66,0,0,1,2.54,8.48c.09,3-.54,5.87-.31,8.8-.39-2.92,0-5.88-.17-8.77a18,18,0,0,0-2.78-8.11c-1.44-2.52-3.2-4.9-4.51-7.59A14.18,14.18,0,0,1,78.9,264a.49.49,0,0,1,.58-.39A.5.5,0,0,1,79.88,264.14Z"></path>
      <path class="cls-12" d="M80.27,262.93l.88,3.27.43,1.64c.17.53.35,1.05.56,1.58a66,66,0,0,1,2.57,6.47,26.77,26.77,0,0,1,.65,7,11.79,11.79,0,0,0,1.72,6.5,8.37,8.37,0,0,1-1.69-3,17.41,17.41,0,0,1-.68-3.42,32,32,0,0,0-1.09-6.69,67.11,67.11,0,0,0-2.88-6.2c-.25-.53-.48-1.08-.69-1.64l-.53-1.68-1-3.35a.92.92,0,1,1,1.75-.54v0Z"></path>
      <path class="cls-12" d="M80.18,265.5c0,1.79-.4,3.46-.59,5.14a21,21,0,0,0-.15,2.53,4.13,4.13,0,0,1-.86,2.55,21,21,0,0,0-1.69,1.9,7.54,7.54,0,0,0-1.06,2.26,7,7,0,0,0,.44,4.95,7.14,7.14,0,0,1-.69-5,7.92,7.92,0,0,1,1-2.41,20.66,20.66,0,0,1,1.61-2c1-1.29.42-3.11.65-4.84a49.57,49.57,0,0,0,.36-5.05v0a.5.5,0,0,1,.48-.51.51.51,0,0,1,.51.48Z"></path>
      <path class="cls-12" d="M80.37,265.12a16.52,16.52,0,0,1,2.34,3.43,10.43,10.43,0,0,1,1.14,3.95,10.18,10.18,0,0,0-1.42-3.79,16,16,0,0,0-2.52-3.15.32.32,0,0,1,.44-.46Z"></path>
      <path class="cls-12" d="M79.41,263.36a14.07,14.07,0,0,0-1.21,7.83,38.9,38.9,0,0,0,1.92,8,66.5,66.5,0,0,1,2.31,8,16.25,16.25,0,0,1-.32,8.28,16.5,16.5,0,0,0-.08-8.2,62.56,62.56,0,0,0-2.59-7.88,36.58,36.58,0,0,1-2.22-8.11,13.72,13.72,0,0,1,1.31-8.39h0a.49.49,0,0,1,.67-.19A.48.48,0,0,1,79.41,263.36Z"></path>
      <path class="cls-12" d="M78.08,267.46a57.49,57.49,0,0,0,5.13,13.85l1.72,3.3a9.6,9.6,0,0,1,1,3.63c.19,2.49-.31,5,.46,7.41-.85-2.38-.44-5-.71-7.39a9.08,9.08,0,0,0-1.09-3.48c-.59-1.07-1.23-2.15-1.8-3.25a57.76,57.76,0,0,1-5.46-13.9.38.38,0,0,1,.28-.46.38.38,0,0,1,.47.28Z"></path>
      <path class="cls-12" d="M78.94,263.89A7.29,7.29,0,0,0,81.05,267,9.42,9.42,0,0,0,84.43,269c.63.21,1.3.37,1.94.62a6.63,6.63,0,0,1,1.78,1.05,13.9,13.9,0,0,1,2.59,3.14,13.52,13.52,0,0,0-2.71-3,6.17,6.17,0,0,0-1.75-.94c-.63-.22-1.3-.34-2-.52a10.09,10.09,0,0,1-3.64-1.87,8,8,0,0,1-2.46-3.32.37.37,0,0,1,.21-.49.39.39,0,0,1,.5.21Z"></path>
      <polygon class="cls-13" points="0 238.47 80.12 271.94 152.93 241.07 80.12 215.39 0 238.47"></polygon>
      <path class="cls-14" d="M89,118.15s4.34-52.35-.14-62.22S76.93,21.72,66.34,0c0,0,16.94,50.75,18.62,56.24,1.46,4.76,3,48.26,3.42,61.18C88.44,119.39,89.05,117.69,89,118.15Z"></path>
      <path class="cls-15" d="M87.58,116.88a5.91,5.91,0,0,1,.2,1.4,6.63,6.63,0,0,1-.15,1.37c-.2,1-.24,1.31-.55,2.76s-.63,3-1.18,5.2-1.81,7.29-2.31,9.57-.85,3.75-1.23,5.55-.79,3.83-1,5.28c-.69,3.89-1.26,7.11-1.88,10.83a.92.92,0,0,0,.78,1.12,1,1,0,0,0,1.15-.78.43.43,0,0,1,0-.05h0c.5-3.73.9-7,1.53-10.83.24-1.45.59-3.46,1-5.26s.69-3.25,1.18-5.53,1.79-7.39,2.35-9.57.92-3.77,1.25-5.22S89,121,89.22,120a9.35,9.35,0,0,1,.37-1.32,4.72,4.72,0,0,1,.62-1.16c.16-.26.05-.06.06-.1a1.6,1.6,0,0,0-.25-2.17,1.5,1.5,0,0,0-2.15.21A1.57,1.57,0,0,0,87.58,116.88Z"></path>
      <path class="cls-16" d="M103.3,104.71s14.8,45.19,16.31,47.38c0,0-20.11-43.07-20.6-46s1.8-2,1.8-2Z"></path>
      <path class="cls-17" d="M79,163.29s9.08-19,18.15-59.31a1.49,1.49,0,0,1,2-.47c1.43.66,4,.57,4.21,1.36s-1.68-1-2.76,3.4-18.29,52.77-20,55.25Z"></path>
      <path class="cls-18" d="M78.38,161.43a11.93,11.93,0,0,1,.41,2.17,15.39,15.39,0,0,1-.11,2.44c-.18,1.71-.31,2.78-.58,5s-.76,6.08-1.08,8.74c-.85,7.11-1.54,14-2,21.24-.17,2.73-.32,6.81-.39,9.6s0,6.64,0,8.94c.12,6.15.13,11.23.33,17A1.24,1.24,0,0,0,76.2,238c.81.1,1.09-.65,1.27-1.3a.22.22,0,0,0,0-.08v0c-.27-5.89-.54-10.94-.73-17.1-.07-2.32-.16-6.06-.11-8.85s.19-6.84.35-9.56c.43-7.26,1.15-14.1,2.07-21.18.34-2.66.86-6.46,1.16-8.7s.41-3.29.64-5a23.41,23.41,0,0,1,.41-2.35,13.32,13.32,0,0,1,.77-2.11s.09,0,.14-.5.27-2.38-.82-2.75a2.11,2.11,0,0,0-2.76.68A2.82,2.82,0,0,0,78.38,161.43Z"></path>
      <path class="cls-19" d="M81.47,240.93a.91.91,0,0,0-.88-.33c-.49.15-.68.54-.59.68a1,1,0,0,0,.18.18c.12.12.38-.22.39-.22Z"></path>
      <path class="cls-9" d="M81.73,241.51s-.16-.66-.41-.67a4.39,4.39,0,0,1-.53,0l-.07.12s.25.43.35.47l.33.1A2.06,2.06,0,0,0,81.73,241.51Z"></path>
      <path class="cls-10" d="M81.71,241.6a.18.18,0,0,0-.1-.26,2.09,2.09,0,0,0-.32-.07l-.48.35c-.08,0-.13,0,.1.11s.23.13.44.1A.59.59,0,0,0,81.71,241.6Z"></path>
      <path class="cls-11" d="M81.29,241.27a3,3,0,0,0-.3.29c-.11.14-.13.18-.27.11s-.51-.12-.6-.26-.09-.13,0-.3a.77.77,0,0,1,.47-.28.41.41,0,0,1,.47.1A1.11,1.11,0,0,1,81.29,241.27Z"></path>
      <path class="cls-19" d="M69,236.39a1.35,1.35,0,0,0-1.36-.2c-.66.37-.81,1-.65,1.16a3.59,3.59,0,0,0,.32.21c.21.13.47-.44.49-.44Z"></path>
      <path class="cls-9" d="M69.53,237.15s-.43-.9-.79-.84a7.66,7.66,0,0,1-.78.1l-.06.19s.49.55.64.57l.51,0A2.71,2.71,0,0,0,69.53,237.15Z"></path>
      <path class="cls-10" d="M69.52,237.28c0-.09,0-.32-.21-.34a3.42,3.42,0,0,0-.49,0s-.48.56-.58.65-.18.1.18.13.36.11.66,0A.89.89,0,0,0,69.52,237.28Z"></path>
      <path class="cls-11" d="M68.82,236.94a4,4,0,0,0-.33.5c-.13.24-.14.3-.37.24s-.76,0-.94-.19-.17-.15-.05-.43a1.12,1.12,0,0,1,.58-.55.6.6,0,0,1,.7,0A1.55,1.55,0,0,1,68.82,236.94Z"></path>
      <path class="cls-19" d="M77.8,234.58s-2.81-1.4-4.77.31-2.07,3.92-1.39,4.39a8,8,0,0,0,1.23.49c.81.3,1.31-1.81,1.36-1.84S77.8,234.58,77.8,234.58Z"></path>
      <path class="cls-9" d="M80.21,236.8s-2.09-2.79-3.28-2.3a27.25,27.25,0,0,1-2.58.88l-.08.71s2.06,1.53,2.6,1.48,1.52-.22,1.76-.22A13.3,13.3,0,0,0,80.21,236.8Z"></path>
      <path class="cls-10" d="M80.29,237.23c0-.31-.15-1.11-1-1a12.23,12.23,0,0,0-1.65.35s-1.23,2.24-1.5,2.62-.53.47.69.31,1.32.13,2.25-.43A3.2,3.2,0,0,0,80.29,237.23Z"></path>
      <path class="cls-11" d="M77.65,236.58a14.08,14.08,0,0,0-.77,1.94c-.26.89-.27,1.13-1.07,1.09s-2.61.48-3.34,0-.68-.39-.48-1.42a3.7,3.7,0,0,1,1.59-2.3,2.09,2.09,0,0,1,2.38-.5A5.28,5.28,0,0,1,77.65,236.58Z"></path>
      <path class="cls-19" d="M88.62,235.48s-1.62-2.2-3.82-1.66S81.65,236,82,236.67a8,8,0,0,0,.76.87c.51.55,1.74-.88,1.79-.89S88.62,235.48,88.62,235.48Z"></path>
      <path class="cls-9" d="M89.6,238.15s-.51-3-1.62-3.08-2.35-.34-2.35-.34l-.34.52s1,2,1.42,2.17,1.27.43,1.45.53A11.07,11.07,0,0,0,89.6,238.15Z"></path>
      <path class="cls-10" d="M89.49,238.52c.1-.26.33-.92-.36-1.17a10.21,10.21,0,0,0-1.42-.38s-1.84,1.24-2.21,1.42-.59.16.42.52,1,.62,1.91.56A2.71,2.71,0,0,0,89.49,238.52Z"></path>
      <path class="cls-11" d="M87.71,237a12.7,12.7,0,0,0-1.37,1.19c-.55.59-.65.77-1.26.42s-2.21-.67-2.59-1.31-.38-.58.19-1.29a3.22,3.22,0,0,1,2.15-1.15,1.82,1.82,0,0,1,2,.56A4.76,4.76,0,0,1,87.71,237Z"></path>
      <path class="cls-19" d="M81.09,236.63s-2.32-1.8-4.44-.58-2.59,3.21-2.06,3.77a8.29,8.29,0,0,0,1,.67c.69.42,1.53-1.42,1.58-1.44S81.09,236.63,81.09,236.63Z"></path>
      <path class="cls-9" d="M82.89,239.09s-1.41-2.93-2.59-2.7-2.52.35-2.52.35l-.2.63s1.61,1.77,2.11,1.83,1.44.07,1.66.11A11.3,11.3,0,0,0,82.89,239.09Z"></path>
      <path class="cls-10" d="M82.89,239.5c0-.29.07-1-.72-1.1a11,11,0,0,0-1.58,0s-1.54,1.83-1.85,2.13-.57.33.58.41,1.19.35,2.13,0A3,3,0,0,0,82.89,239.5Z"></path>
      <path class="cls-11" d="M80.59,238.43a12.55,12.55,0,0,0-1.06,1.64c-.39.77-.45,1-1.18.8s-2.48,0-3.06-.58-.56-.48-.19-1.39A3.49,3.49,0,0,1,77,237.08a1.94,1.94,0,0,1,2.28,0A5.13,5.13,0,0,1,80.59,238.43Z"></path>
      <path class="cls-19" d="M93.19,240.7a1.39,1.39,0,0,0,1.29-.64c.35-.7.13-1.32-.12-1.37a2.62,2.62,0,0,0-.4,0c-.25,0-.15.66-.16.67Z"></path>
      <path class="cls-9" d="M92.27,240.36s.9.54,1.18.27a7.25,7.25,0,0,1,.61-.55l-.06-.2a2.76,2.76,0,0,0-.89-.11c-.15.07-.4.23-.46.26A3.59,3.59,0,0,0,92.27,240.36Z"></path>
      <path class="cls-10" d="M92.2,240.26c0,.08.17.29.39.16a4.15,4.15,0,0,0,.42-.29s.08-.76.11-.9.09-.19-.23,0-.38.12-.57.38A1,1,0,0,0,92.2,240.26Z"></path>
      <path class="cls-11" d="M93,240.13a4.61,4.61,0,0,0,0-.63c0-.27-.06-.34.17-.42s.67-.44.92-.39.24,0,.3.33a1.13,1.13,0,0,1-.18.83.6.6,0,0,1-.6.41A1.54,1.54,0,0,1,93,240.13Z"></path>
      <path class="cls-19" d="M62.2,242.32a1.42,1.42,0,0,0,1.29-.64c.34-.7.12-1.32-.12-1.38a2.83,2.83,0,0,0-.4,0c-.26,0-.16.65-.17.67Z"></path>
      <path class="cls-9" d="M61.27,242s.91.54,1.18.26.61-.54.61-.54l-.06-.21a3,3,0,0,0-.89-.11l-.46.27A3.59,3.59,0,0,0,61.27,242Z"></path>
      <path class="cls-10" d="M61.2,241.87c0,.08.17.29.39.17a4.15,4.15,0,0,0,.42-.29s.08-.77.11-.9.1-.19-.22,0-.39.12-.58.38A1,1,0,0,0,61.2,241.87Z"></path>
      <path class="cls-11" d="M62,241.75a4.62,4.62,0,0,0,0-.63c0-.28-.06-.35.17-.43s.67-.43.92-.39.24,0,.3.34a1.09,1.09,0,0,1-.17.82.65.65,0,0,1-.61.42A1.54,1.54,0,0,1,62,241.75Z"></path>
      <path class="cls-19" d="M71.05,241.2a1.78,1.78,0,0,0,1.7-.7c.5-.86.27-1.67,0-1.76a3.58,3.58,0,0,0-.51,0c-.33,0-.26.82-.27.84S71.05,241.2,71.05,241.2Z"></path>
      <path class="cls-9" d="M69.91,240.69s1.1.76,1.47.44a9.06,9.06,0,0,1,.83-.64l-.06-.27A3.75,3.75,0,0,0,71,240c-.19.09-.52.27-.61.3A5.2,5.2,0,0,0,69.91,240.69Z"></path>
      <path class="cls-10" d="M69.83,240.55a.33.33,0,0,0,.47.24,3.81,3.81,0,0,0,.56-.33s.18-1,.23-1.14.13-.23-.29,0-.5.12-.77.44A1.23,1.23,0,0,0,69.83,240.55Z"></path>
      <path class="cls-11" d="M70.86,240.46a5.11,5.11,0,0,0,0-.8c0-.36,0-.45.26-.53s.89-.49,1.21-.41.3.05.35.45a1.43,1.43,0,0,1-.3,1,.79.79,0,0,1-.8.48A2.09,2.09,0,0,1,70.86,240.46Z"></path>
      <path class="cls-19" d="M77.51,240a1.14,1.14,0,0,1,1-.16c.52.23.65.65.53.77a2.75,2.75,0,0,1-.24.15c-.16.09-.38-.29-.39-.29Z"></path>
      <path class="cls-9" d="M77.11,240.48s.3-.63.59-.59.6.05.6.05l.06.13s-.37.39-.49.4l-.39,0A3.25,3.25,0,0,1,77.11,240.48Z"></path>
      <path class="cls-10" d="M77.11,240.57a.18.18,0,0,1,.16-.24,2.76,2.76,0,0,1,.38,0s.38.37.46.43.14.07-.13.09-.28.09-.51,0A.66.66,0,0,1,77.11,240.57Z"></path>
      <path class="cls-11" d="M77.65,240.32a2.66,2.66,0,0,1,.27.34c.1.15.12.2.29.15s.59,0,.72-.15.13-.1,0-.29a.75.75,0,0,0-.46-.36.53.53,0,0,0-.55,0A1.11,1.11,0,0,0,77.65,240.32Z"></path>
      <path class="cls-19" d="M87,237.28s-2.18-1.62-4.11-.45-2.34,3-1.84,3.53a7.74,7.74,0,0,0,1,.6c.65.38,1.39-1.35,1.44-1.37S87,237.28,87,237.28Z"></path>
      <path class="cls-9" d="M88.71,239.53s-1.36-2.69-2.44-2.46-2.33.37-2.33.37l-.17.6s1.52,1.6,2,1.64,1.33,0,1.53.07A9.73,9.73,0,0,0,88.71,239.53Z"></path>
      <path class="cls-10" d="M88.72,239.9c0-.27,0-1-.69-1a10.23,10.23,0,0,0-1.46.06s-1.38,1.72-1.67,2-.52.32.54.37,1.11.3,2,0A2.76,2.76,0,0,0,88.72,239.9Z"></path>
      <path class="cls-11" d="M86.57,239a12.52,12.52,0,0,0-.95,1.53c-.34.72-.39.93-1.07.77s-2.3,0-2.84-.48-.53-.44-.2-1.28a3.18,3.18,0,0,1,1.7-1.73,1.81,1.81,0,0,1,2.1-.07A4.74,4.74,0,0,1,86.57,239Z"></path>
      <path class="cls-19" d="M75.34,239.8a2.71,2.71,0,0,0-2.6.95c-.82,1.27-.52,2.51-.06,2.66a4.7,4.7,0,0,0,.76.07c.5,0,.44-1.22.46-1.24S75.34,239.8,75.34,239.8Z"></path>
      <path class="cls-9" d="M77,240.65s-1.61-1.22-2.19-.75-1.29.91-1.29.91l.07.4a5.38,5.38,0,0,0,1.68.4c.3-.11.81-.37.94-.41A6.48,6.48,0,0,0,77,240.65Z"></path>
      <path class="cls-10" d="M77.15,240.87c-.07-.17-.26-.59-.71-.39a6.11,6.11,0,0,0-.86.46s-.33,1.44-.42,1.7-.21.34.44.05.75-.14,1.18-.6A1.86,1.86,0,0,0,77.15,240.87Z"></path>
      <path class="cls-11" d="M75.58,240.94a8.22,8.22,0,0,0-.12,1.2c0,.53,0,.67-.42.78s-1.37.68-1.84.55-.45-.11-.5-.71a2.16,2.16,0,0,1,.51-1.54,1.19,1.19,0,0,1,1.24-.66A3.1,3.1,0,0,1,75.58,240.94Z"></path>
    </g>
  </g>
</svg>
