<?xml version="1.0" encoding="UTF-8"?>
<svg xmlns="http://www.w3.org/2000/svg" xmlns:xlink="http://www.w3.org/1999/xlink" viewBox="0 0 110.12 287.31">
  <defs>
    <style>.cls-1{fill:none;}.cls-2{fill:#956d4b;}.cls-3{clip-path:url(#clip-path);}.cls-4{fill:url(#Безымянный_градиент_2);}.cls-5{fill:#754120;}.cls-6{fill:#44281c;}.cls-7{fill:#6c3c1d;}.cls-8{fill:#714d31;}.cls-9{fill:#613822;}.cls-10{fill:#7f5637;}.cls-11{fill:#a07850;}.cls-12{fill:#f7e8c5;}.cls-13{fill:#8b5b3c;}.cls-14{fill:#476532;}.cls-15{fill:#5b6e22;}.cls-16{fill:#6f882b;}.cls-17{opacity:0.47;}.cls-18{fill:#d5e1a7;}.cls-19{fill:#405d30;}.cls-20{opacity:0.53;}.cls-21,.cls-24{fill:#b9cc51;}.cls-22{fill:#6e8c3a;}.cls-23,.cls-25{fill:#a3b034;}.cls-24,.cls-31{opacity:0.58;}.cls-25{opacity:0.54;}.cls-26{opacity:0.61;}.cls-27{opacity:0.6;}.cls-28{opacity:0.67;}.cls-29{fill:#bcbf37;}.cls-30{fill:#c2cf37;}.cls-32{fill:#613922;}</style>
    <clipPath id="clip-path">
      <polygon class="cls-1" points="7.72 258.64 57.69 282.16 103.91 258.75 55.86 238.39 7.72 258.64"></polygon>
    </clipPath>
    <linearGradient id="Безымянный_градиент_2" x1="-4321.57" y1="630.51" x2="-4318.77" y2="630.51" gradientTransform="matrix(34.36, 0, 0, -34.36, 148469.21, 21922.51)" gradientUnits="userSpaceOnUse">
      <stop offset="0" stop-color="#a17551"></stop>
      <stop offset="0.38" stop-color="#a17551"></stop>
      <stop offset="0.89" stop-color="#7a4928"></stop>
      <stop offset="1" stop-color="#72401f"></stop>
    </linearGradient>
  </defs>
  <g id="Слой_2" data-name="Слой 2">
    <g id="Слой_1-2" data-name="Слой 1">
      <path class="cls-2" d="M57.69,216s9.62,11.3,17.06,11.77,32.81-7.57,32.81-7.57l2.56-26.43L57.69,175.28Z"></path>
      <path class="cls-2" d="M0,191.9l5.23,34.47s18.58,2.79,21.83,1.86,18.12-6.5,22.29-6.5S57.69,216,57.69,216V175.28Z"></path>
      <g class="cls-3">
        <rect class="cls-4" x="31.38" y="211.07" width="48.87" height="98.4" transform="translate(-207.08 302.04) rotate(-86.92)"></rect>
      </g>
      <path class="cls-5" d="M7.72,258.64,5.23,226.37s23.69-.46,30.19-3.72S57.69,216,57.69,216l-1.83,22.39Z"></path>
      <path class="cls-6" d="M41.49,228.38a8.4,8.4,0,0,0-2.84-1.67l0,0s-3.79-1.13-5.85,1.41-1.71,5.29-.77,5.73a10.92,10.92,0,0,0,1.63.35l.09-.05a28.27,28.27,0,0,0,3.51-.79,1.76,1.76,0,0,0,.6-.16,6.26,6.26,0,0,0,.65-.19c1.49-.46,1.67-.13,2.69-1a3.94,3.94,0,0,0,1.09-2.54l-.21-.51h0l0,0a1,1,0,0,0-.58-.5"></path>
      <path class="cls-6" d="M21.2,231.7a11,11,0,0,0-4,1.33v0s-4.3,2.7-3.59,6.84,3.66,6.13,4.88,5.6a12.71,12.71,0,0,0,1.71-1.28l0-.13c.92-1.05,1.59-3.16,2.21-4.05a2,2,0,0,0,.35-.72c.11-.2.21-.42.38-.79.8-1.82,1.28-1.71,1.29-3.46a5.12,5.12,0,0,0-1.54-3.21,3.36,3.36,0,0,0-.66-.22v0h-.08a1.26,1.26,0,0,0-1,.13"></path>
      <path class="cls-7" d="M57.69,216l-1.83,22.39,48.06,20.36,3.64-38.55s-15-1.73-21.48-.8-17.84,3.72-21.24,1.86A44.41,44.41,0,0,1,57.69,216"></path>
      <path class="cls-6" d="M39.39,239a3.28,3.28,0,0,0-1.26-.3h0a2.29,2.29,0,0,0-2,1.18c-.49,1.19-.05,2.18.35,2.24l.65-.05,0,0a12.3,12.3,0,0,0,1.23-.69l.21-.13.22-.14c.51-.34.61-.24.9-.69a1.56,1.56,0,0,0,.12-1.07l-.13-.17h0Z"></path>
      <path class="cls-6" d="M86.47,229.37a2.27,2.27,0,0,0-.11-.89h0s-.38-1-1.27-1-1.43.5-1.38.77l.2.41,0,0,.75.63.13.1.15.11c.35.24.3.34.66.41a1.08,1.08,0,0,0,.74-.18l.07-.13h0v-.22Z"></path>
      <path class="cls-6" d="M99.89,245.55a11,11,0,0,0-1.9-3.82h0s-3.32-3.9-7.36-2.59-5.59,4.53-4.88,5.68a14.36,14.36,0,0,0,1.52,1.52l.14,0c1.19.77,3.39,1.13,4.37,1.62a2.18,2.18,0,0,0,.77.25c.22.07.45.15.84.26,1.93.54,1.9,1,3.64.79a5.19,5.19,0,0,0,3-2,4.06,4.06,0,0,0,.13-.69h0l0-.07a1.27,1.27,0,0,0-.28-1"></path>
      <path class="cls-6" d="M73.78,232.26A8.59,8.59,0,0,0,71.91,235l0,0s-1.4,3.67,1,5.9S78,242.92,78.48,242a12.49,12.49,0,0,0,.46-1.59l0-.09a27.32,27.32,0,0,0-.52-3.53,1.78,1.78,0,0,0-.12-.62c0-.17-.07-.35-.13-.66-.35-1.49,0-1.65-.81-2.73a4,4,0,0,0-2.44-1.27l-.51.17h0l0,0a.94.94,0,0,0-.54.53"></path>
      <path class="cls-8" d="M74,259.64a1.58,1.58,0,0,0,1.57-.41c.54-.7.43-1.44.17-1.55l-.44-.09c-.29,0-.32.7-.33.71Z"></path>
      <path class="cls-9" d="M73,259.06s.87.79,1.23.55.8-.46.8-.46l0-.24-1-.32-.56.19Z"></path>
      <path class="cls-10" d="M73,258.93c0,.1.12.36.4.27s.52-.23.52-.23l.33-1c.06-.14.14-.19-.25-.06s-.45.05-.72.3a1.07,1.07,0,0,0-.28.69"></path>
      <path class="cls-11" d="M73.88,259a5.18,5.18,0,0,0,.13-.7c0-.3,0-.39.28-.42s.84-.34,1.11-.23.26.09.26.44a1.28,1.28,0,0,1-.39.87.7.7,0,0,1-.75.32,1.87,1.87,0,0,1-.64-.28"></path>
      <path class="cls-8" d="M63.28,253.52s2.39.12,3.24-1.67.26-3.36-.36-3.49a7.39,7.39,0,0,0-1,0c-.66,0-.37,1.67-.39,1.7Z"></path>
      <path class="cls-9" d="M60.93,252.69s2.3,1.32,3,.62,1.53-1.4,1.53-1.4l-.15-.52a7.53,7.53,0,0,0-2.27-.25c-.36.2-1,.62-1.16.69Z"></path>
      <path class="cls-10" d="M60.74,252.42c.11.21.43.73,1,.4a8.38,8.38,0,0,0,1.05-.75s.18-1.93.26-2.28.22-.49-.58,0-1,.31-1.44,1a2.41,2.41,0,0,0-.28,1.66"></path>
      <path class="cls-11" d="M62.78,252.07a11.07,11.07,0,0,0-.05-1.59c-.09-.69-.16-.87.42-1.08s1.68-1.13,2.32-1,.6.07.77.84a2.88,2.88,0,0,1-.41,2.1,1.59,1.59,0,0,1-1.52,1.07,4,4,0,0,1-1.53-.31"></path>
      <path class="cls-8" d="M53.32,261.28s1.86,1.42,3.54.44,2-2.59,1.62-3a7.16,7.16,0,0,0-.84-.52c-.55-.34-1.21,1.14-1.25,1.16Z"></path>
      <path class="cls-9" d="M51.86,259.33s1.15,2.33,2.08,2.14,2-.3,2-.3l.16-.5s-1.29-1.4-1.7-1.44-1.14-.05-1.32-.08Z"></path>
      <path class="cls-10" d="M51.86,259c0,.23,0,.83.59.87a10.13,10.13,0,0,0,1.26,0l1.46-1.71c.25-.24.45-.27-.47-.33s-1-.27-1.7,0A2.35,2.35,0,0,0,51.86,259"></path>
      <path class="cls-11" d="M53.71,259.85a11.63,11.63,0,0,0,.83-1.32c.3-.61.35-.79.93-.65s2,0,2.44.45.45.38.17,1.1a2.85,2.85,0,0,1-1.49,1.47,1.56,1.56,0,0,1-1.81,0,4.06,4.06,0,0,1-1.07-1.09"></path>
      <path class="cls-8" d="M49,254.85a2.67,2.67,0,0,0,.1-2.73c-.86-1.21-2.11-1.39-2.41-1l-.35.67c-.22.44,1,.84,1,.87Z"></path>
      <path class="cls-9" d="M47.63,256.08s1.7-1,1.49-1.72a15.08,15.08,0,0,1-.35-1.51l-.4-.09s-1,1.08-1,1.39,0,.87,0,1Z"></path>
      <path class="cls-10" d="M47.39,256.11c.18,0,.63,0,.62-.51a7.72,7.72,0,0,0-.11-1l-1.4-1c-.2-.17-.23-.32-.21.38s-.15.74.12,1.3a1.79,1.79,0,0,0,1,.79"></path>
      <path class="cls-11" d="M47.9,254.65a8.8,8.8,0,0,0-1.06-.55c-.49-.19-.62-.21-.55-.67s-.13-1.51.17-1.89.26-.37.84-.2a2.16,2.16,0,0,1,1.21,1,1.18,1.18,0,0,1,.15,1.38,3,3,0,0,1-.76.89"></path>
      <path class="cls-8" d="M40.56,256.86a1.17,1.17,0,0,0,.38-1.12c-.2-.61-.69-.84-.86-.73l-.23.23.29.49Z"></path>
      <path class="cls-9" d="M39.82,257.19s.83-.2.84-.52,0-.67,0-.67l-.15-.09-.58.45-.12.43Z"></path>
      <path class="cls-10" d="M39.71,257.17,40,257l.08-.41-.46-.59c-.06-.1,0-.16-.13.13s-.16.29-.12.55a.77.77,0,0,0,.3.45"></path>
      <path class="cls-11" d="M40.12,256.63l-.37-.36-.15-.35.32-.76.37,0a.92.92,0,0,1,.37.58.5.5,0,0,1-.12.59Z"></path>
      <path class="cls-8" d="M38,261.53s1.64-2.63.13-4.72-3.65-2.39-4.18-1.77a8.24,8.24,0,0,0-.6,1.17c-.37.76,1.66,1.45,1.69,1.5Z"></path>
      <path class="cls-9" d="M35.56,263.69s2.94-1.8,2.56-3-.63-2.61-.63-2.61l-.69-.15s-1.69,1.88-1.69,2.42.08,1.51.06,1.75Z"></path>
      <path class="cls-10" d="M35.13,263.73c.31,0,1.1,0,1.07-.87a12.45,12.45,0,0,0-.19-1.67s-2.09-1.41-2.44-1.72-.41-.56-.36.66-.25,1.29.21,2.25a3.15,3.15,0,0,0,1.71,1.35"></path>
      <path class="cls-11" d="M36,261.19a14.22,14.22,0,0,0-1.84-.93c-.85-.33-1.08-.37-1-1.15s-.23-2.62.29-3.28.45-.64,1.44-.35a3.69,3.69,0,0,1,2.12,1.78,2.07,2.07,0,0,1,.27,2.39A5.38,5.38,0,0,1,36,261.19"></path>
      <path class="cls-12" d="M91.32,228.7a2.73,2.73,0,0,1,.86.41c.52.39.7,1.1,1.19,1.55a3.44,3.44,0,0,1-.53-.83,2.57,2.57,0,0,0-.58-.81,3,3,0,0,0-.89-.48c-.32-.11-.65-.18-1-.26a15.21,15.21,0,0,1-1.91-.47,8.74,8.74,0,0,1-1.77-.78h0a.17.17,0,0,0-.12,0h0a27,27,0,0,0-4.48-3.08l-1.2-.63-1.23-.59-1.24-.54-1.27-.5c-1.17-.44-2.36-.84-3.55-1.2l.66,0a8.5,8.5,0,0,0,.87-.07,7.52,7.52,0,0,0,.85-.16,1.38,1.38,0,0,1,.2,0l.2,0h.43c.3,0,.57-.12.84-.12a4.17,4.17,0,0,1,.82.18,1.82,1.82,0,0,1,.77.33,1.64,1.64,0,0,0-.75-.39,4.24,4.24,0,0,0-.83-.26c-.3,0-.59.05-.86.05h-.15l.21-.06c.25-.08.49-.19.75-.26l.38-.08.39,0h.4a.67.67,0,0,1,.37.11h0s0,0,0,0a.66.66,0,0,0-.37-.17,2.73,2.73,0,0,0-.4,0,2.8,2.8,0,0,0-.41,0l-.41,0a3.56,3.56,0,0,0-.79.22,5,5,0,0,0-.52.25h-.1l-.23,0c-.29,0-.56.08-.83.09h-.84c-.57,0-1.13-.07-1.71-.1h0a.3.3,0,0,0-.18.08h-.06l-.08,0-.16,0a18.34,18.34,0,0,1-3-2.16,28.56,28.56,0,0,1-2.69-2.7q-.63-.71-1.23-1.44l.27.17a25.41,25.41,0,0,0,5.36,2.32,56.26,56.26,0,0,0,5.63,1.37c1.88.37,3.76.72,5.62,1.11H82a5.6,5.6,0,0,1,1.4.22,12.33,12.33,0,0,1,1.21.41.25.25,0,0,0,.06.14,12,12,0,0,1,.92,1.09l.44.59a4.3,4.3,0,0,1,.41.57,1.69,1.69,0,0,1,.13.31,2.63,2.63,0,0,1,.06.34,5.86,5.86,0,0,0,.19.72l.11.34.11.35.13.34a.83.83,0,0,1,.06.35.88.88,0,0,0,0-.36l-.09-.35c0-.12-.05-.24-.08-.36l-.08-.35a4.41,4.41,0,0,1-.11-.7c0-.11,0-.25,0-.38a2.29,2.29,0,0,0-.12-.37l-.12-.23.27.18a3.31,3.31,0,0,0,.56.29l.59.22a4.72,4.72,0,0,1,.56.24,2.43,2.43,0,0,1,.51.32,1.88,1.88,0,0,1,.4.44,1.83,1.83,0,0,1,.16.26.59.59,0,0,1,.07.29h0s0,0,0,0a.58.58,0,0,0,0-.32,2.44,2.44,0,0,0-.14-.28,2.1,2.1,0,0,0-.38-.52,4.31,4.31,0,0,0-1.07-.68c-.2-.09-.38-.16-.56-.26l-.54-.28c-.23-.12-.46-.24-.7-.34l-.37-.6c-.13-.22-.28-.44-.42-.65l.69.24.14,0a.27.27,0,0,0,.12.09c.3.1.6.18.88.28l.41.16a2.75,2.75,0,0,1,.38.2,6.25,6.25,0,0,1,.69.56c.22.21.43.43.64.66l.32.34.33.32.31.34.15.17a1.22,1.22,0,0,1,.12.19c.08.12.14.26.22.4l.21.41c.15.27.29.55.45.81-.14-.27-.26-.55-.38-.84l-.19-.42a4,4,0,0,0-.19-.43,1.13,1.13,0,0,0-.12-.21,1.33,1.33,0,0,0-.14-.19l-.29-.36c-.1-.13-.2-.24-.3-.35l-.29-.36a7.32,7.32,0,0,0-1.3-1.37,1.88,1.88,0,0,0-.23-.16c.24,0,.47,0,.71-.06a10.28,10.28,0,0,1,1.11,0,5.11,5.11,0,0,1,1.1.15,3.36,3.36,0,0,1,1,.43,3.43,3.43,0,0,0-1-.53,5.83,5.83,0,0,0-1.1-.24,12.93,12.93,0,0,0-2.24-.06l-.37-.06c-.24-.1-.49-.19-.71-.29h0a.26.26,0,0,0-.21,0l-.08,0-.3-.12h0l.87.07c.29,0,.59,0,.88,0h.87a1.08,1.08,0,0,0,.64,0,4.83,4.83,0,0,1,.86-.17h.26a0,0,0,0,0,0,0,2.1,2.1,0,0,0,.37.18l.38.14c.13,0,.25.07.38.09l.36.1a1.09,1.09,0,0,1,.31.18,3.73,3.73,0,0,1,.3.26c.2.17.38.37.57.55h0a0,0,0,0,0,0,0c-.16-.21-.3-.44-.48-.65s-.17-.2-.27-.3l0,0,.09.06a.27.27,0,0,1,.08.07.18.18,0,0,1,.07.08h0a0,0,0,0,0,0,0,.18.18,0,0,0-.07-.1.3.3,0,0,0-.08-.08l-.18-.14c-.06-.05-.13-.09-.18-.14L92,219.4a1.5,1.5,0,0,0-.4-.25,1.31,1.31,0,0,0-.47-.07h-.45l-.46,0a5.36,5.36,0,0,0-.92.14h0a.84.84,0,0,1-.52,0h0l-.87,0H87l-.88,0-.47,0-.64-.28a13.57,13.57,0,0,0-1.42-.57,6.25,6.25,0,0,0-1.5-.31c-1.59-.4-3.19-.74-4.79-1.1l.26-.08a4.45,4.45,0,0,0,1.23-.62,3.38,3.38,0,0,0,.71-.1,3.93,3.93,0,0,0,.8-.32l.38-.19.19-.09.1,0,.09,0c.13,0,.27,0,.42,0a1.56,1.56,0,0,1,.41-.08h0a0,0,0,0,0,0,0,.54.54,0,0,0-.22,0l-.21,0c-.13,0-.27,0-.43,0a.35.35,0,0,0-.11,0l-.11,0-.2.08-.39.16c-.26.1-.53.17-.8.27l-.46.16a4,4,0,0,0,.43-.39.86.86,0,0,0,.13-.14l.11-.16a.74.74,0,0,1,.08-.13.58.58,0,0,1,.12-.1c.19-.11.44-.15.65-.27l.31-.17a.67.67,0,0,1,.34-.07.7.7,0,0,0-.35,0l-.33.14c-.21.09-.45.11-.68.21a.62.62,0,0,0-.17.11.79.79,0,0,0-.12.15.4.4,0,0,1-.1.12l-.13.12a4.75,4.75,0,0,1-.56.41,4,4,0,0,1-1.26.5c-.39.1-.79.16-1.2.24-1.71-.4-3.41-.83-5.06-1.37a3.43,3.43,0,0,1,.57-.76l.1-.09c.28-.1.54-.23.8-.3l.24,0h.24a4.38,4.38,0,0,1,.52,0c.18,0,.35.06.52.09l.53.06a9.45,9.45,0,0,0,1.06,0h0s0,0,0,0a7.19,7.19,0,0,1-1-.11,4.35,4.35,0,0,1-.52-.1L73.7,214a4.51,4.51,0,0,0-.53-.09l-.28,0a1.27,1.27,0,0,0-.28.06,3.34,3.34,0,0,0-.38.17l0,0c.16-.15.32-.3.49-.43a2.62,2.62,0,0,1,.54-.35,3.74,3.74,0,0,1,.62-.18,8.2,8.2,0,0,1,1.32-.14,8.56,8.56,0,0,0-1.34,0,2.53,2.53,0,0,0-1.3.44,5.52,5.52,0,0,0-.55.4l-.54.4-.14.11a.8.8,0,0,0-.13.13,3,3,0,0,0-.24.26l-.31.39A23.31,23.31,0,0,1,65.93,213a17.32,17.32,0,0,1-2.27-1.62,19.1,19.1,0,0,1-2-1.94c-.31-.69-1.45-3-3-3.74-1.84-.84-5.85-.17-6.69,2.42a2.62,2.62,0,0,0-.13.67,7.73,7.73,0,0,1-.65,1.47A7.07,7.07,0,0,1,49.76,212a11.18,11.18,0,0,1-4.12,2.1c-.32.1-.64.19-1,.27L43.9,214l-.5-.24a3.17,3.17,0,0,1-.48-.25l-.27-.13-.27-.1-.19-.06h0v0c-.13-.12-.28-.22-.41-.32l-.2-.15-.17-.14-.09-.19,0-.07,0-.05-.07-.11a5,5,0,0,0-.3-.45,1.48,1.48,0,0,0-.44-.35,4.25,4.25,0,0,0-.49-.21l-.26-.08-.26,0c-.16,0-.32-.1-.5-.11h0a0,0,0,0,0,0,0c.17,0,.31.13.49.18l.25.07a1.09,1.09,0,0,1,.23.09,2,2,0,0,1,.78.57,2.69,2.69,0,0,1,.22.45l.06.12,0,.06,0,0a.76.76,0,0,0,.16.26,1.11,1.11,0,0,0,.25.17h0l-.68-.17a3.45,3.45,0,0,0-.56-.1l-.56,0c-.38,0-.75,0-1.11,0a2.35,2.35,0,0,1-.53-.09l-.27-.08-.27-.06c-.36-.07-.67-.33-1-.37a1.62,1.62,0,0,1,.51.21,2.64,2.64,0,0,0,.51.23l.27.07.25.09a2.78,2.78,0,0,0,.55.14c.37.06.75.07,1.11.11a4.41,4.41,0,0,1,.54.07,5,5,0,0,1,.53.12,9.84,9.84,0,0,1,1,.36,4.4,4.4,0,0,1,.5.21l.25.11a1.55,1.55,0,0,1,.22.12c.15.09.31.21.49.3l.49.26.2.11c-1,.21-2,.38-2.94.53-1.29.2-2.59.37-3.89.57l-.84-.25-.5-.18-.26-.1c-.09,0-.19-.06-.28-.09l-.56-.1-.52-.12a2.7,2.7,0,0,0-.58-.08h-.29l-.42-.16h0a.24.24,0,0,0-.07-.12l-.15-.1a.77.77,0,0,1-.19-.14l-.23-.18-.07,0-.08,0-.15,0-.27-.06-.26-.08-.54-.14a4.26,4.26,0,0,0-1.12-.11c-.37,0-.74,0-1.1.07h0a0,0,0,0,0,0,0c.37,0,.74,0,1.1,0a4.82,4.82,0,0,1,1.06.19l.52.18.26.09.26.09.11,0,0,0,0,0,.19.17a1,1,0,0,0,.26.18l.08,0h0l0,.07a.18.18,0,0,0,.05.07h-.17l-.29,0-.27.08a1.36,1.36,0,0,1-.25.07l-.27.06-.54.1-.26.05-.27,0c-.18,0-.36,0-.55,0l-.55,0H28.9a.45.45,0,0,1-.25-.09.47.47,0,0,0,.25.11,1.23,1.23,0,0,0,.27,0c.19,0,.37,0,.55,0l.55,0h.28a2.4,2.4,0,0,0,.28,0l.54-.07.27,0,.28-.06.25-.06h.4l.15,0,.26,0h.53a1.8,1.8,0,0,1,.5.11l.26.08.28.07.51.13a3.26,3.26,0,0,1,.48.2l.46.2c-.76.13-1.52.28-2.28.47l-.58.15c-.19.05-.39.1-.58.13-.39.08-.78.14-1.18.19l-.59,0-.62.05-.74.11a9.55,9.55,0,0,0-1.06-.06H27.3c-.36,0-.72,0-1.07,0l-.51,0-.27,0h-.18a6.92,6.92,0,0,0-2.12-.3l-.3,0-.29,0a3.29,3.29,0,0,0-.55.21,4.19,4.19,0,0,0-.5.31l-.23.18-.1.1a.19.19,0,0,0-.05.14.22.22,0,0,1,.06-.13l.11-.1a1.88,1.88,0,0,1,.23-.16l.51-.27a3.74,3.74,0,0,1,.54-.17,2.18,2.18,0,0,1,.57,0,7,7,0,0,1,2.06.43h.06l0,0h.17l.19,0a5.21,5.21,0,0,0,.55.08l1.08.07.6,0-.14.05c-.2.07-.39.16-.58.24s-.38.17-.56.27l-.54.31c-.18.11-.35.21-.52.33s-.32.22-.47.34a.31.31,0,0,0-.28,0h0c-.36.13-.71.28-1.05.44h-.06l-.1,0-.23,0-.44.07a2.77,2.77,0,0,0-.47.09l-.44.12-.21.06h0l-.22.09a2.91,2.91,0,0,0-.42.25c-.25.18-.48.37-.72.57A13.58,13.58,0,0,1,19,221.73c-.26.16-.51.34-.75.51a2.76,2.76,0,0,1-.8.41h0v0a2.77,2.77,0,0,0,.83-.35c.26-.16.51-.32.78-.46a13.32,13.32,0,0,0,1.5-1l.36-.26-.19.21c-.32.37-.6.77-.9,1.15s-.63.76-1,1.11c-.16.19-.33.35-.5.54s-.16.2-.24.28A1.59,1.59,0,0,0,18,224a.25.25,0,0,0-.08.18,0,0,0,0,0,0,0s0,0,0,0h0c0-.06.05-.1.09-.14l.14-.12a3.19,3.19,0,0,0,.26-.26l.55-.49c.36-.34.7-.69,1-1.06A12.73,12.73,0,0,0,21,221c.19-.26.38-.53.55-.8l.14-.07a2.45,2.45,0,0,1,.41-.11l.44-.09c.12,0,.28,0,.43-.06l.45,0,.23,0h.29l.25-.08a15,15,0,0,0-1.36,1.4A36.65,36.65,0,0,0,20,225c.5-.64,1-1.29,1.49-1.92s1-1.25,1.58-1.83c.28-.3.57-.58.86-.85s.6-.54.91-.79.64-.48,1-.69l.51-.31h0a2.92,2.92,0,0,0-.28.71l0,.15-.38,1c-.14.37-.27.74-.42,1.1a2,2,0,0,1-.28.48,3.68,3.68,0,0,0-.32.51c0,.1-.07.2-.1.29l-.08.29,0,.14a.69.69,0,0,1-.05.13.63.63,0,0,0,0,.3.58.58,0,0,1,.09-.28s0-.08.07-.13l.06-.13.12-.27a2.06,2.06,0,0,1,.12-.26c.19-.32.51-.57.71-1s.32-.72.47-1.08l.06-.15,0,.38,0,.36c0,.12,0,.24.05.36a1.91,1.91,0,0,1,0,.67,1.26,1.26,0,0,1-.1.33,2.3,2.3,0,0,1-.15.32,4.29,4.29,0,0,1-.39.59,3.45,3.45,0,0,0,.45-.56,3.21,3.21,0,0,0,.19-.31,1.73,1.73,0,0,0,.14-.34,2.56,2.56,0,0,0,0-.73c0-.12,0-.23,0-.35v-.35c0-.24,0-.47,0-.7s0-.23,0-.34a1.55,1.55,0,0,1,.07-.31,3.74,3.74,0,0,1,.72-1.12l0,0a.56.56,0,0,0,0-.12l.17-.07c.19-.07.37-.15.56-.21a8.71,8.71,0,0,1,1.14-.31l.31-.06h.05a.28.28,0,0,0,.18,0l.63-.07c.2,0,.39,0,.6,0l.62,0c.41,0,.82-.09,1.23-.16l.61-.12.6-.14c.77-.18,1.57-.31,2.36-.43,1.6-.23,3.21-.39,4.83-.6a34.05,34.05,0,0,0,4.84-.91,15.79,15.79,0,0,0,2.35-.86,11.79,11.79,0,0,0,1.39-.78l-.3.36-.42.49c-.15.17-.3.32-.45.48a12.77,12.77,0,0,1-1.92,1.69,9.08,9.08,0,0,1-2.22,1.17,13.8,13.8,0,0,1-2.5.59c-.86.12-1.75.2-2.65.3s-1.79.21-2.69.37l-.67.13-.67.14-.34.07-.34.09c-.23.06-.46.13-.68.21a9.36,9.36,0,0,0-2.49,1.34,10.65,10.65,0,0,0-1.07.93l-.92,1c-.62.64-1.26,1.25-1.91,1.85l-.69.63-.07,0-.24.11-.19.08H26l-.25,0-.25.05-.26.05a8.74,8.74,0,0,1-1,.24,1.88,1.88,0,0,0-.52.15,1.36,1.36,0,0,0-.4.35l-.16.2a.87.87,0,0,0-.08.1l-.08.11a2.43,2.43,0,0,1-.14.2.66.66,0,0,1-.19.15h0s0,0,0,0h0a.45.45,0,0,0,.23-.14l.17-.19.09-.1.08-.08.19-.18a1.28,1.28,0,0,1,.38-.29,1.3,1.3,0,0,1,.46-.08c.35,0,.69-.11,1-.16l.24,0,.25,0,.25,0,.12,0c-.91.8-1.82,1.59-2.73,2.41-.66.6-1.32,1.21-2,1.85s-1.24,1.3-1.82,2c.81-.75,1.65-1.45,2.5-2.13a5,5,0,0,0-.29.67c-.07.18-.12.38-.19.56a3.59,3.59,0,0,1-.24.53,5.36,5.36,0,0,1-.69.95,5.59,5.59,0,0,0,.79-.89,5.39,5.39,0,0,0,.3-.52c.09-.19.16-.37.25-.54a4.82,4.82,0,0,1,.6-1,8.43,8.43,0,0,1,.57-.64l1.72-1.33c-.06.16-.12.31-.17.48s-.08.36-.12.54a4.37,4.37,0,0,1-.12.52,4.1,4.1,0,0,0-.16.53,2.48,2.48,0,0,0,0,.27,2.61,2.61,0,0,0,0,.28l.05.54,0-.54,0-.26a1.25,1.25,0,0,1,.07-.26c.06-.16.13-.32.21-.49a5.55,5.55,0,0,0,.2-.52,4.24,4.24,0,0,1,.18-.5c.06-.15.15-.31.23-.47s.31-.53.47-.79c.73-.57,1.46-1.16,2.17-1.76l0,0a.07.07,0,0,0,0,.05l0,.31a1.82,1.82,0,0,0,0,.32c0,.1,0,.21.05.32a3,3,0,0,0,.11.32l0,0h0a3.85,3.85,0,0,0-.27.87,1.06,1.06,0,0,1,0,.2.29.29,0,0,1,0,.09l0,.11c-.06.13-.11.27-.16.4l-.18.4-.2.39c-.06.14-.12.27-.19.4a1.74,1.74,0,0,1-.11.18.23.23,0,0,0-.05.21.23.23,0,0,1,.07-.2,1.09,1.09,0,0,0,.13-.17l.24-.37c.07-.13.15-.25.23-.37s.15-.26.22-.39.14-.26.21-.39l.05-.1a1.17,1.17,0,0,0,.05-.11c0-.08,0-.16.06-.23a2.27,2.27,0,0,1,.21-.52,4,4,0,0,1,.34.64,2.82,2.82,0,0,1,.11,1.17c0,.4-.13.8-.17,1.21.08-.4.22-.79.28-1.2a3.1,3.1,0,0,0,0-1.25c-.12-.43-.37-.77-.48-1.13a1.31,1.31,0,0,1-.06-.27,2.66,2.66,0,0,1,0-.28c0-.1,0-.2,0-.3v-.23l.53-.81v0a.25.25,0,0,0,0-.19c.33-.29.66-.6,1-.91l.95-.95a8.33,8.33,0,0,1,1-.81,5.65,5.65,0,0,1,.57-.38v.19l0,.23-.16.25v0c-.11.2-.19.39-.29.55s-.23.38-.34.56a3.7,3.7,0,0,1-.72,1c-.15.15-.31.29-.46.46a2,2,0,0,0-.36.55c0,.1-.08.2-.12.3l-.12.3a1.35,1.35,0,0,0-.1.63,1.41,1.41,0,0,1,.15-.61c0-.1.09-.19.14-.29l.14-.28a2.11,2.11,0,0,1,.39-.49c.15-.14.32-.27.49-.41a2.32,2.32,0,0,0,.25-.21c.08-.08.15-.17.22-.25s.26-.36.38-.53.24-.35.37-.52l.12-.16-.15,2.28,0,0s0,0,0,.05a.88.88,0,0,0-.05.15c0,.1,0,.2-.08.3s0,.2-.07.29l-.06.15a.19.19,0,0,1-.11.09.15.15,0,0,0,.12-.09l.08-.13c0-.1.07-.2.11-.29s.07-.2.11-.29l0-.06h0a.07.07,0,0,0,.08-.05h0l.65-3.73.08-.32h0a8,8,0,0,1,1-.43,9.21,9.21,0,0,1,1.23-.31L36,220l.45-.08c-.08.26-.14.51-.22.75s-.12.36-.18.53l-.06.13a.6.6,0,0,1-.06.11c0,.08-.1.15-.15.24a1.74,1.74,0,0,0-.15.26l-.13.26a1.14,1.14,0,0,1-.15.23l-.19.21a5.33,5.33,0,0,0-.4.42l-.2.2-.1.11a.33.33,0,0,0-.07.13c0-.05,0-.08.08-.12l.11-.09a2,2,0,0,0,.23-.18,5.07,5.07,0,0,1,.44-.37l.23-.2a2.2,2.2,0,0,0,.2-.23c0-.08.1-.17.16-.25s.1-.14.16-.22.13-.14.19-.22l.09-.14.08-.13c.09-.17.18-.35.26-.53.15-.34.28-.67.42-1,.74-.1,1.49-.19,2.24-.26s1.79-.15,2.7-.28a14.13,14.13,0,0,0,2.73-.62,10.41,10.41,0,0,0,2.52-1.31,14.87,14.87,0,0,0,2.1-1.85,23.55,23.55,0,0,0,1.76-2.12c.62-.85,1.21-1.72,1.76-2.61-.06.16-.12.33-.19.49a13.3,13.3,0,0,1-1,2,19,19,0,0,1-2.94,3.54,41.79,41.79,0,0,1-3.58,3c-1.05.82-2.13,1.61-3.2,2.42a.31.31,0,0,0-.2.11.22.22,0,0,1-.14,0h-.26c-.1,0-.2,0-.31,0a.74.74,0,0,0-.25,0,.64.64,0,0,0-.2-.08l-.24,0c-.15,0-.31-.11-.48-.15l-.14,0-.12,0-.24-.05a3,3,0,0,0-.51-.09h-.27a1.76,1.76,0,0,1-.23,0,1.57,1.57,0,0,1-.46-.16,4.14,4.14,0,0,1-.87-.49,4,4,0,0,0,.82.59,1.51,1.51,0,0,0,.48.22,1.09,1.09,0,0,0,.26,0l.24,0,.08,0c-.2.18-.39.37-.59.54a2.58,2.58,0,0,1-.7.41l-.39.16-.19.08-.1,0-.09,0a3.59,3.59,0,0,0-.41.11.71.71,0,0,0-.18.12.24.24,0,0,0-.06.2.23.23,0,0,1,.08-.18.4.4,0,0,1,.18-.1,2.7,2.7,0,0,1,.41-.07l.11,0,.1,0,.2-.06.4-.13a2.63,2.63,0,0,0,.78-.36c.24-.16.46-.34.68-.5h0a.16.16,0,0,0,0-.14l.08,0,.24.09.13,0,.11,0c.14.06.29.14.46.2l.24.09c.07,0,.1,0,.11.07a.19.19,0,0,0,.2.07l.05,0h.29c-1.18.91-2.36,1.85-3.47,2.88-.33.3-.65.61-1,.94l-.3.27-.35.3-.35.31a2.86,2.86,0,0,1-.33.29l-.17.11-.2.11-.82.42a5.56,5.56,0,0,0-.81.48,4.18,4.18,0,0,0-.66.67c-.19.25-.36.5-.55.74a3.51,3.51,0,0,0-.29.36,1.2,1.2,0,0,0-.22.4,1.36,1.36,0,0,1,.24-.38c.1-.12.21-.23.32-.34s.4-.46.61-.69a3.42,3.42,0,0,1,.67-.59,5.54,5.54,0,0,1,.81-.4l.23-.1-.32.4a5.92,5.92,0,0,0-.35.48l-.33.5c-.23.33-.46.66-.67,1a5.74,5.74,0,0,0-.54,1.08h0a.08.08,0,0,0,0,0s0,0,0,0a.16.16,0,0,1,.07-.07h0a0,0,0,0,0,0,0h0a7.67,7.67,0,0,1,.58-.9c.24-.32.49-.63.74-.94l.38-.46c.12-.16.24-.32.35-.5a4.49,4.49,0,0,0,.29-.53,1.63,1.63,0,0,0,.09-.19l.29-.12.09,0c-.27.34-.52.7-.76,1.06a13.89,13.89,0,0,0-1.15,2.15c-.16.39-.3.77-.43,1.17l0,0c-.51.86-1.14,1.66-1.71,2.51a7.35,7.35,0,0,0-.76,1.34,3.35,3.35,0,0,0-.31,1.49,3.4,3.4,0,0,1,.43-1.43,7.61,7.61,0,0,1,.86-1.24c.39-.48.8-.94,1.2-1.42a12.91,12.91,0,0,0,0,4.68,15.58,15.58,0,0,1,.05-2.37,12.71,12.71,0,0,1,.42-2.31,13,13,0,0,1,2-4.14l.09-.13h0a.61.61,0,0,0,0,.14v.34c0,.16,0,.32,0,.48.11.66.39,1.21.51,1.8a8.2,8.2,0,0,1,.11.9c0,.08,0,.16,0,.23a1.55,1.55,0,0,1,0,.22,1.68,1.68,0,0,1,0,.44c0,.16-.05.31-.07.46a3.58,3.58,0,0,1-.09.45,3.74,3.74,0,0,1-.12.45,1.34,1.34,0,0,0-.09.45,1.12,1.12,0,0,1,.13-.44l.15-.44a3.74,3.74,0,0,0,.12-.45c0-.15.07-.3.11-.45a3.29,3.29,0,0,0,.08-.47v-.24a1.79,1.79,0,0,1,0-.23c0-.29,0-.61,0-.93-.08-.64-.32-1.22-.36-1.79,0-.14,0-.29,0-.45v-.35a.28.28,0,0,1,0-.09.9.9,0,0,1,.11-.34L36,229v0a.27.27,0,0,0,0-.26c.19-.23.39-.44.59-.66.5-.53,1-1,1.58-1.51,0,.14,0,.28,0,.42a13,13,0,0,0,.18,1.56l.07.38c0,.13,0,.25,0,.38a4.71,4.71,0,0,1,0,.75,3.27,3.27,0,0,1-.13.76l-.06.18-.08.17a1.34,1.34,0,0,1-.07.18.3.3,0,0,1-.12.15c.07,0,.1-.09.14-.14l.09-.17a1.4,1.4,0,0,1,.09-.17l.08-.18a3.86,3.86,0,0,0,.2-.76,4.91,4.91,0,0,0,.1-.77c0-.14,0-.27,0-.4l0-.39a11.11,11.11,0,0,1,0-1.52,4,4,0,0,1,.18-.94c1-.87,2.13-1.7,3.24-2.5,1.27-.94,2.57-1.85,3.85-2.81a41.6,41.6,0,0,0,3.71-3.09,19.58,19.58,0,0,0,3.11-3.78A13.11,13.11,0,0,0,54,211.1a8.1,8.1,0,0,1-.24.94,14.3,14.3,0,0,1-.85,2c-.17.33-.35.66-.54,1s-.39.63-.6.93-.44.59-.67.88-.48.56-.73.83-.52.53-.79.78-.27.25-.41.37l-.44.4-.87.8-.83.85c-.13.14-.28.28-.41.43l-.39.45-.39.45a5.63,5.63,0,0,0-.38.45l0,0a.28.28,0,0,0-.34.11h0a4.14,4.14,0,0,1-.44.69l-.06.07,0,0,0,0a1.35,1.35,0,0,0-.17.17.68.68,0,0,1-.13.12A.83.83,0,0,1,44,224l-.1.06-.1.07,0,0a.27.27,0,0,0-.18.08l-.29.29v0c-.23.18-.45.38-.66.57a9.68,9.68,0,0,0-1.24,1.24,6.47,6.47,0,0,0-.45.75l-.11.19a1.18,1.18,0,0,0-.11.19,1.41,1.41,0,0,1-.21.38,1.41,1.41,0,0,0,.24-.36.71.71,0,0,1,.12-.18l.13-.18a5.83,5.83,0,0,1,.49-.7,8.37,8.37,0,0,1,.89-.79c0,.09-.1.18-.14.27-.17.32-.29.65-.45,1s-.16.31-.25.46l-.06.12-.06.12a.61.61,0,0,1,0,.12.19.19,0,0,1-.1.08.26.26,0,0,0,.11-.07,1,1,0,0,0,.08-.11l.06-.11a.76.76,0,0,1,.08-.11c.11-.14.21-.28.31-.43.2-.3.37-.61.56-.89a2.55,2.55,0,0,1,.32-.4c.11-.12.24-.25.36-.36s.52-.44.8-.65l-.26.39-.31.51-.3.51c-.1.17-.21.34-.3.52l-.54,1.06c-.09.17-.17.35-.25.53l-.24.55-.23.54c-.08.18-.14.37-.21.56l-.21.55-.1.28-.09.28-.34,1.13-.09.28-.07.29-.14.57a.75.75,0,0,1,0,.16c-.06.13-.12.26-.19.39A12.49,12.49,0,0,1,39,235.34h0a.09.09,0,0,0-.11.08l0,.18-.16.21a10.13,10.13,0,0,0-.69,1A7.43,7.43,0,0,0,37.5,238c-.06.19-.11.39-.16.59l-.12.6a7.1,7.1,0,0,0-.12,1.22,6.17,6.17,0,0,1,.16-1.21c0-.2.09-.4.14-.6a5.5,5.5,0,0,1,.16-.58c.07-.19.15-.38.23-.56s.17-.38.26-.55c.2-.34.47-.64.71-1,0,.19-.06.37-.08.56,0,.36-.06.71-.07,1.06s0,.71,0,1.06l0,.53a2.39,2.39,0,0,0,.13.51,3,3,0,0,1-.11-.52v-.52c0-.35,0-.7.05-1a8.94,8.94,0,0,1,.12-1c.05-.31.11-.61.18-.91.36-.46.74-.93,1.07-1.44-.09.47-.17,1-.26,1.42s-.11.77-.16,1.16l-.07.58-.05.58L39.45,239l0,1.17c0,.19,0,.38,0,.58v.58c0,.39,0,.78,0,1.16l.15-1.15.07-.57.09-.58.18-1.14.21-1.13.1-.57.13-.56.26-1.12c.2-.73.38-1.48.63-2.2l.17-.54.08-.27.1-.27.4-1.07a.78.78,0,0,1,.05-.14v0c0,.19,0,.37.07.56s.07.38.11.56.11.37.16.55.06.18.08.26a.14.14,0,0,0,0,.06h0a1.17,1.17,0,0,1,0,.2c0,.17.08.36.11.54a5.54,5.54,0,0,0,.14.55c0,.09.06.18.1.27l.1.26a7.44,7.44,0,0,1,.34,1,5.23,5.23,0,0,1,.12.54c0,.18,0,.36.07.55a5,5,0,0,1,.07.54,2,2,0,0,1-.06.55,2.68,2.68,0,0,1,.07-.27,1.27,1.27,0,0,0,0-.28c0-.18,0-.37,0-.55s0-.37,0-.56-.05-.37-.08-.55A9.49,9.49,0,0,0,43.2,235l-.09-.27a2,2,0,0,1-.08-.26c0-.12-.05-.26-.07-.39a9.9,9.9,0,0,0,.63,1l.33.41c.12.13.24.25.35.38a5.74,5.74,0,0,0,.69.79,4.65,4.65,0,0,1-.63-.83l-.33-.4a4.15,4.15,0,0,1-.3-.43,10.47,10.47,0,0,1-.84-1.54v0c0-.19-.08-.38-.13-.56s-.09-.35-.12-.53,0-.35-.07-.53,0-.36,0-.54v-.27c0-.08,0-.17,0-.26a8.18,8.18,0,0,1,.17-.92l.23-.48.25-.5c.08-.17.16-.34.26-.51l.55-1c.09-.17.2-.33.29-.49l.3-.48.3-.47.33-.46.28-.39a4.6,4.6,0,0,0-.06.52l0,.57a9,9,0,0,0,0,1.16c0,.15,0,.3,0,.45a2.08,2.08,0,0,0-.06.36,1.22,1.22,0,0,0,0,.27,2,2,0,0,0,.08.26l.06.12.06.1a1.74,1.74,0,0,0,.11.18l.11.53a8.62,8.62,0,0,0,.32,1.1,5.3,5.3,0,0,1,.31,1.08c0,.1,0,.19,0,.29l0,.28a5.35,5.35,0,0,1,.07.56c0-.19,0-.38,0-.56a2.83,2.83,0,0,1,0-.29c0-.09,0-.19,0-.28a5.2,5.2,0,0,0-.25-1.12,8.55,8.55,0,0,1-.26-1.22l.05.06c.22.24.46.46.69.69s.25.21.36.32a1.19,1.19,0,0,1,.15.18.34.34,0,0,1,.06.21h0s0,0,0,0,0,0,0,0a.32.32,0,0,0,0-.25,1,1,0,0,0-.13-.22c-.1-.13-.22-.25-.32-.37s-.42-.49-.61-.74a2.43,2.43,0,0,1-.14-.2l-.11-.19-.11-.21h0c0-.1,0-.2,0-.3a6,6,0,0,1-.1-1.11,8.29,8.29,0,0,1,.08-1.11l.07-.56c0-.19.06-.37.1-.54A8.54,8.54,0,0,1,46.3,224v0a.17.17,0,0,0,0-.07c.56-.69,1.14-1.34,1.75-2l.8-.81.83-.76.42-.39.45-.41c.29-.28.57-.56.85-.86A16.17,16.17,0,0,0,52.74,217l-.14.31c-1.12,2.56-2.4,5.1-3.34,7.82-.24.68-.43,1.37-.62,2.06l-.25,1.06c-.07.35-.13.72-.17,1.09a10.78,10.78,0,0,0,0,2.2c0,.22.06.44.09.65s-.06.29-.08.43,0,.24-.05.36a.26.26,0,0,0-.09.17v0a2.58,2.58,0,0,1-.07.34l-.08.35c0,.24-.11.48-.15.72l0,.11a2.5,2.5,0,0,1-.21.35l-.5.72c-.17.25-.32.5-.48.75a3.52,3.52,0,0,0-.36.82,3.31,3.31,0,0,0,0,.89,3.14,3.14,0,0,1,.06-.87,3,3,0,0,1,.42-.76c.17-.23.35-.47.53-.69l.51-.62v.07a.43.43,0,0,1,0,.16c0,.06,0,.12,0,.19s0,.25,0,.37a11.81,11.81,0,0,1,0,1.45c0,.25,0,.49,0,.73a3.45,3.45,0,0,0-.07.72,3.75,3.75,0,0,1,.15-.71c0-.24,0-.49.08-.72.09-.49.08-1,.12-1.46,0-.12,0-.24,0-.35a1.13,1.13,0,0,1,0-.18c0-.07,0-.13,0-.2v-.19c0-.06,0-.11,0-.16s0-.22.07-.33a2.45,2.45,0,0,0,.08-.29,5.43,5.43,0,0,0,.17-.53,1.87,1.87,0,0,1,.07-.22c0-.05,0-.1,0-.15l0,.16c.15.68.3,1.37.42,2.06s.24,1.38.32,2.07a21.91,21.91,0,0,1,.09,4.21,17.64,17.64,0,0,0,.32-4.24c0-.71-.08-1.42-.16-2.13s-.18-1.41-.3-2.11l-.18-1c0-.17,0-.34-.07-.51.05.09.09.18.14.28a7.59,7.59,0,0,0,.44.79,3.28,3.28,0,0,0,.27.38c.09.13.19.24.28.35l.12.17.09.19a2,2,0,0,0,.1.21,1.73,1.73,0,0,0,.15.2.75.75,0,0,1,.15.16,1,1,0,0,1,.1.17,2,2,0,0,0,.1.21.61.61,0,0,0,.07.1l.07.09c.18.24.36.47.53.71s.19.24.28.36a.59.59,0,0,1,.18.39.63.63,0,0,0-.15-.41c-.08-.13-.18-.24-.25-.37s-.32-.51-.48-.76l-.06-.09a.41.41,0,0,1-.05-.09c0-.06,0-.13-.08-.2a.91.91,0,0,0-.11-.22,1.33,1.33,0,0,0-.14-.19l-.11-.16c0-.06,0-.13-.08-.2a2,2,0,0,0-.08-.22,1.48,1.48,0,0,0-.13-.21c-.08-.13-.17-.25-.25-.37S50,233,50,232.9s-.25-.52-.37-.8c-.18-.44-.35-.91-.57-1.37a10.69,10.69,0,0,1,.1-1.26,6.91,6.91,0,0,1,.19-1l.26-1c.2-.66.41-1.32.66-2s.42-1.08.65-1.62l.06.07.05,0,.07.06.11.06,0,0,.09.07.35.25.26.2a6.45,6.45,0,0,1,.27,1.07,4.26,4.26,0,0,1-.07,1.23,5.34,5.34,0,0,1-.39,1.21c0,.1-.08.19-.13.29a2.09,2.09,0,0,0-.14.3,2.63,2.63,0,0,0-.15.63,2.23,2.23,0,0,1,.19-.62l.15-.28c.06-.09.11-.19.16-.28a6,6,0,0,0,.47-1.21,4.28,4.28,0,0,0,.16-1.28,3.2,3.2,0,0,0-.09-.62,5.23,5.23,0,0,1,.4.56,4.31,4.31,0,0,1,.56,1.55,7.33,7.33,0,0,1-.16,1.67c.05-.27.13-.55.2-.82a3.11,3.11,0,0,0,.1-.86,4.31,4.31,0,0,0-.15-.86,3.47,3.47,0,0,0-.31-.81,5.73,5.73,0,0,0-.45-.75c-.09-.12-.19-.23-.29-.34s-.23-.21-.33-.3l-.32-.28-.08-.06-.12-.09-.07,0h0l0,0a1,1,0,0,1-.16-.31h0c.8-1.84,1.71-3.64,2.55-5.5.41-.92.8-1.85,1.15-2.81-.22,1.32-.39,2.66-.49,4a26.71,26.71,0,0,0,0,4.1,22,22,0,0,0,.66,4c0,.14,0,.29,0,.44a.28.28,0,0,0-.12.2h0a4,4,0,0,1-.09.9v.05l0,0,0,.11-.09.22-.2.44c-.13.3-.26.58-.4.88l-.43.87c-.14.29-.28.58-.41.88a5.94,5.94,0,0,0-.36.91c-.09.31-.16.63-.22,1a2,2,0,0,0,0,.24,1,1,0,0,0,0,.25.86.86,0,0,1,0,.23,2.1,2.1,0,0,0-.06.24,1,1,0,0,1,.08-.23,2,2,0,0,0,0-.24,1.94,1.94,0,0,1,0-.24c0-.08,0-.16,0-.24.09-.31.18-.62.29-.92a6.78,6.78,0,0,1,.41-.86,1,1,0,0,1,.1-.17c-.05.22-.07.45-.1.68v.28c0,.09,0,.18,0,.27s0,.35,0,.52v1.06s0,0,0,0h0c0-.35.09-.71.13-1.06,0-.18,0-.35,0-.53a2.44,2.44,0,0,0,0-.27,2.13,2.13,0,0,1,0-.25,3.29,3.29,0,0,1,.12-.5,4.7,4.7,0,0,0,.12-.51,6,6,0,0,0,.1-.61l.35-.6.24-.43.23-.43.23-.43.06-.1v1.33c0,1.16-.06,2.32-.06,3.49v.88l0,.88.06.88.09.88c0,.29.09.58.14.87l.19.86.24.84.3.83-.21-.85-.16-.86-.11-.86-.07-.86,0-.87v-.86l0-.87,0-.87c.07-1.16.16-2.32.22-3.49,0-.52.05-1.05.05-1.58l0,0c.13.15.26.29.37.43l.08.1,0,.06,0,.06.16.23a3.4,3.4,0,0,1,.29.48,3.92,3.92,0,0,1,.22.51,2.31,2.31,0,0,1,.15.53c0,.18.06.37.09.56s0,.38.08.58,0,.18,0,.27a2.72,2.72,0,0,1,0,.28,2.64,2.64,0,0,1,0,.28c0,.09,0,.19,0,.29a5.76,5.76,0,0,0,0,.59v.29c0,.09,0,.19,0,.29a2.74,2.74,0,0,0,.11.57l.08.28a1,1,0,0,0,.08.28c.1.17.29.26.36.45,0-.19-.24-.3-.33-.47a1.07,1.07,0,0,1-.06-.27l-.06-.28a3.72,3.72,0,0,1-.08-.57c0-.09,0-.19,0-.29v-.29a5.12,5.12,0,0,1,0-.56,2.74,2.74,0,0,1,0-.28,1.05,1.05,0,0,0,.06.24v0a.12.12,0,0,0,.07.07.32.32,0,0,1,.1.09.86.86,0,0,1,.11.19,1.57,1.57,0,0,0,.3.38,1.37,1.37,0,0,0,.18.16l.2.13.18.13A.52.52,0,0,1,59,235h0s0,0,0,0a0,0,0,0,0,0,0,.42.42,0,0,0-.11-.22c0-.06-.11-.11-.17-.17l-.16-.15-.14-.17a2,2,0,0,1-.21-.37,1.28,1.28,0,0,0-.09-.22.67.67,0,0,0-.13-.2,2.48,2.48,0,0,0-.13-.35,1,1,0,0,0-.09-.21,1,1,0,0,0-.11-.2h0l0-.22c0-.19,0-.38,0-.57s0-.39,0-.59a3,3,0,0,0-.13-.59,5.37,5.37,0,0,0-.21-.56,3.4,3.4,0,0,0-.27-.54l-.15-.25,0-.06,0-.07-.09-.13c-.12-.16-.25-.31-.37-.46a3.28,3.28,0,0,1-.32-.44l-.1-.17c0-.36,0-.71-.05-1.06V227a22.29,22.29,0,0,1-.52-3.9c0-.71,0-1.42,0-2.13l.36.56.25.36.08.09L56,222l.12.16.25.36.14.16a.17.17,0,0,0,0,.07l.29.86.07.22.06.21a3.47,3.47,0,0,1,.06.45c0,.15,0,.29,0,.45l0,.45a1.77,1.77,0,0,1,0,.23l0,.23a2.26,2.26,0,0,0,0,.45,3.47,3.47,0,0,1,.06-.45l0-.22a1,1,0,0,0,0-.23c0-.16,0-.31,0-.46s0-.31,0-.46a3.71,3.71,0,0,0,0-.47c0-.08,0-.15,0-.23l-.06-.22-.11-.47.35.37a2.84,2.84,0,0,1,.44.7,4.37,4.37,0,0,1,.38,1.64,4.3,4.3,0,0,0-.23-1.7,2.88,2.88,0,0,0-.4-.78c-.17-.25-.36-.46-.54-.68a3.43,3.43,0,0,1-.24-.33q-.11-.16-.21-.36l-.12-.19a.36.36,0,0,0-.07-.1l-.05-.08c-.08-.11-.15-.23-.22-.35s-.28-.49-.41-.74-.2-.36-.29-.54.05-.57.07-.86c.12-1.32.33-2.63.55-3.95.19-1.16.41-2.32.62-3.48a.68.68,0,0,1,1.17.05c0,.35.09.71.11,1.08,0,.62,0,1.25,0,1.89v1.94c0,.64,0,1.29,0,1.94s0,1.31.09,2,.11,1.31.2,2a17.55,17.55,0,0,0,.93,3.88c.05.16.12.32.18.48s.13.31.21.46l.41.88c.14.28.26.57.39.86l.14.32a.29.29,0,0,0-.06.35,1.82,1.82,0,0,1,.15.45c0,.18.06.36.1.55s0,.2.07.3,0,.15,0,.23,0,.19,0,.3l.05.27a5.12,5.12,0,0,1,.12,1.09,5.89,5.89,0,0,1-.13,1.09c-.08.36-.18.72-.25,1.1a7.31,7.31,0,0,0-.1,1.14,6.08,6.08,0,0,0,.08,1.13c0,.19.06.37.09.56a1.34,1.34,0,0,0,.07.27.31.31,0,0,0,.06.13.17.17,0,0,0,.11.09.19.19,0,0,1-.11-.09s0-.09-.05-.13a2.74,2.74,0,0,1,0-.28c0-.18,0-.37,0-.56a6,6,0,0,1,0-1.12,6.8,6.8,0,0,1,.17-1.1.19.19,0,0,0,0-.08c0,.11,0,.23,0,.34a3.07,3.07,0,0,0,.27.77,2.53,2.53,0,0,0,.18.37l.12.17.06.09.05.07c.07.11.12.23.21.35a.66.66,0,0,0,.14.15.32.32,0,0,1,.12.14h0s0,0,0,0a.4.4,0,0,0-.1-.18.57.57,0,0,1-.11-.16c0-.11-.09-.24-.15-.37l0-.09-.05-.09a.89.89,0,0,1-.08-.17c0-.12-.1-.24-.14-.36s-.1-.51-.19-.76a4.12,4.12,0,0,0-.25-.63l.18-.63a5.23,5.23,0,0,0,.21-1.14,6.4,6.4,0,0,0-.05-1.16l0-.28v0c.24.7.48,1.4.7,2.11.39,1.22.75,2.46,1.09,3.7l.25.93.24.94.12.47.11.47c.07.32.14.63.2.95,0-.65-.09-1.3-.17-1.94s-.18-1.28-.29-1.92c-.22-1.28-.48-2.55-.78-3.82v0l.09.14,0,0,0,.06.06.12a6.18,6.18,0,0,1,.45.89,3.87,3.87,0,0,0,.59.88c.11.14.22.27.34.4s.24.25.36.37a8,8,0,0,1,.69.74,4.31,4.31,0,0,1,.68,1.89h0s0,0,0,0c0-.17,0-.34,0-.51s0-.17,0-.26a2.41,2.41,0,0,0-.08-.25,4,4,0,0,0-.41-1,7.39,7.39,0,0,0-.66-.8,3.9,3.9,0,0,1-.33-.38c-.11-.13-.21-.27-.31-.41a5.23,5.23,0,0,1-.51-.84,4.16,4.16,0,0,0-.24-.47l-.13-.22c0-.08-.11-.15-.16-.22l-.08-.1,0,0,0-.06-.16-.21-.27-.36c-.27-1.06-.57-2.12-.93-3.17-.1-.31-.21-.62-.33-.92s-.23-.62-.37-.93l-.38-.88c-.07-.14-.12-.28-.18-.43s-.11-.29-.15-.43a16,16,0,0,1-.49-1.8l-.12-.66.4.53c.14.17.27.35.42.51a2.73,2.73,0,0,0,.23.25l.22.23.69.71q.31.45.6.9c.28.43.56.86.83,1.3h0a2,2,0,0,1,.19.29l0,.06a.08.08,0,0,0,0,0,.07.07,0,0,0,0,.05l0,.2.13.77c0,.25.09.51.15.77s.17.49.24.74c0-.13-.05-.26-.08-.38s0-.25-.07-.38,0-.52-.07-.78l-.09-.77,0-.19v-.09a.59.59,0,0,0,0-.13,1.57,1.57,0,0,0-.22-.36c-.21-.37-.42-.74-.65-1.11l.16.16a11.13,11.13,0,0,1,.85,1,4.49,4.49,0,0,1,.65,1.09l.4,1.22-.33-1.24a4.53,4.53,0,0,0-.59-1.16c-.25-.36-.52-.71-.8-1l-.88-.95a4.59,4.59,0,0,1-.36-.41.71.71,0,0,1-.1-.14l-.06,0-.33-.39-.21-.24-.21-.24c-.13-.16-.25-.33-.38-.51-.32-.45-.63-.92-.93-1.39v-.07c-.1-.89-.17-1.78-.21-2.69v0a2.05,2.05,0,0,0,.23.2l.22.2.1.09.1.1a1.19,1.19,0,0,0,.22.23,2.26,2.26,0,0,0,.26.17l.1.07a.31.31,0,0,1,.07.09c0,.07.09.17.15.26a2,2,0,0,1,.14.25,1.69,1.69,0,0,1,.1.27c0,.09.06.18.1.28a1.54,1.54,0,0,1,.14.56,1.48,1.48,0,0,0-.08-.59,2.3,2.3,0,0,1-.06-.28,1.57,1.57,0,0,0-.08-.29,2.33,2.33,0,0,0-.11-.28l-.11-.27a.49.49,0,0,0-.1-.15.68.68,0,0,0-.12-.12l-.21-.17a2.11,2.11,0,0,1-.17-.22l-.09-.13-.1-.11-.2-.22c-.06-.07-.14-.15-.18-.21a2.56,2.56,0,0,1-.36-.72.66.66,0,0,1,0-.14l0-1.92c0-.65,0-1.3,0-2s0-1.3-.11-2a11,11,0,0,0-.25-1.56.58.58,0,0,1,.37,0c.16.32.31.64.46,1,0,.07.05.15.08.22.14.37.29.72.44,1.08,0,.13.1.25.16.37a.5.5,0,0,0,.05.13l.36,1.06L61,216l.65,2.16.33,1.08.33,1.09.36,1.09c.14.36.26.72.4,1.08a22,22,0,0,0,2,4.16l0,0,0,0c.48.59,1,1.15,1.53,1.69a23.73,23.73,0,0,1,0,3.77c-.12.63-.21,1.26-.29,1.9h0a4,4,0,0,0,.09.85c.06.28.12.55.19.83a3,3,0,0,0,.3.79c.14.25.3.48.46.72a7.68,7.68,0,0,1-.41-.74,3.18,3.18,0,0,1-.26-.79c0-.28-.09-.56-.14-.83a3.73,3.73,0,0,1,0-.82c.11-.63.24-1.25.4-1.87h0a25.7,25.7,0,0,0,.23-3.28l.21.21a4.91,4.91,0,0,1,.1.5c0,.19.08.37.12.53a4.48,4.48,0,0,1,.11.5c0,.17,0,.35.07.52.06.36.13.7.22,1.05,0,.17.08.34.13.51s.11.35.15.51.08.34.12.51a3.13,3.13,0,0,0,.19.51c.15.32.33.61.47.94a3.07,3.07,0,0,0,.27.46l.07.11.09.09.09.1a.23.23,0,0,1,.06.12.29.29,0,0,0,0-.13l-.08-.1-.09-.1-.06-.11a3,3,0,0,1-.24-.47c-.11-.33-.28-.65-.41-1a5.32,5.32,0,0,1-.23-1c0-.18-.08-.34-.11-.52s-.07-.34-.1-.51-.06-.33-.08-.5a.36.36,0,0,0,0,.09c.08.18.15.36.22.54a2.19,2.19,0,0,0,.34.53c.11.14.18.33.31.5s.27.3.4.44.26.3.41.44a1.25,1.25,0,0,0,.49.33,1.25,1.25,0,0,1-.46-.36c-.13-.15-.24-.31-.36-.47s-.26-.31-.37-.46-.15-.35-.27-.53a2,2,0,0,1-.27-.5l-.18-.57c-.13-.36-.26-.72-.41-1.07a4,4,0,0,0-.07-.5c0-.15,0-.29-.07-.43l.57.52.91.8.92.77.56.46c.21.66.47,1.27.62,1.91a6,6,0,0,1,.09.61q0,.32,0,.63c0,.43,0,.86-.06,1.28s-.08.86-.13,1.3-.1.85-.12,1.29a3.35,3.35,0,0,0,.16,1.3,6.39,6.39,0,0,0,.26.6l.15.29c0,.1.12.18.16.28a2.64,2.64,0,0,0-.15-.29l-.13-.3c-.08-.2-.16-.4-.22-.6a3.19,3.19,0,0,1-.09-1.27c0-.43.13-.85.19-1.28,0-.16,0-.32.08-.48a8.34,8.34,0,0,0,.26.89c.06.18.12.35.19.53s.11.34.18.52l.12.26.08.12.09.11c0,.07.11.14.16.22a.57.57,0,0,1,.12.23h0v0l0,0a.51.51,0,0,0-.09-.27c0-.08-.09-.16-.14-.24l-.07-.11-.06-.12a2,2,0,0,1-.08-.26c0-.17-.09-.35-.14-.53s-.09-.35-.13-.53c-.09-.35-.14-.72-.23-1.06,0-.18-.09-.36-.15-.53l0-.08c.06-.41.11-.83.13-1.26v-.21c.07.16.14.32.2.49s.11.24.17.36.14.23.2.33l.2.32c.06.11.11.23.17.35a8,8,0,0,0,.89,1.26,7.27,7.27,0,0,1-.76-1.32l-.14-.36-.18-.35a3.4,3.4,0,0,1-.16-.34,3.62,3.62,0,0,1-.13-.35,5.87,5.87,0,0,0-.25-.74l0-.09,0-.08-.06-.17a3.59,3.59,0,0,1-.08-.35l-.07-.38a1.42,1.42,0,0,0,0-.2.87.87,0,0,0,0-.19,2.41,2.41,0,0,1-.07-.35.28.28,0,0,1,0-.09l.44.37.92.77.91.77.89.79.87.82A25.09,25.09,0,0,1,79,240a21.23,21.23,0,0,0-2.82-3.91l-.82-.89-.84-.86-.87-.84-.88-.82L71,231.09l-.87-.81-.87-.82a34.38,34.38,0,0,1-2.69-2.85l.15.07.49.23a4,4,0,0,0,.51.23l.52.17a3,3,0,0,1,.47.25c.07.05.13.12.2.18l.1.09a.37.37,0,0,0,.12.07s-.07-.05-.11-.08l-.09-.1-.17-.21a2.72,2.72,0,0,0-.46-.32l-.5-.24a4.34,4.34,0,0,1-.46-.28l-.46-.3c-.16-.1-.33-.18-.49-.27l-.36-.17a23.44,23.44,0,0,1-1.79-3.87c-.13-.35-.25-.7-.37-1.05L63.52,220l-.09-.29a25.75,25.75,0,0,0,2,2.69c.26.3.5.6.78.88l.41.42.43.4c.56.53,1.15,1,1.74,1.53,2.07,1.71,4.31,3.15,6.47,4.65,0,.47.1.94.18,1.41a5.89,5.89,0,0,0,.54,1.68,5,5,0,0,0,.45.74l.48.71a5,5,0,0,0,.56.66l.63.58-.58-.62a4.19,4.19,0,0,1-.49-.7l-.43-.74a5.51,5.51,0,0,1-.75-2.36c0-.33,0-.65,0-1l.46.32c.61.44,1.22.9,1.8,1.38a20.2,20.2,0,0,1,1.68,1.52,15,15,0,0,1,1.47,1.72,12.51,12.51,0,0,1,1.15,2A12.65,12.65,0,0,0,80,233.58l-.66-.71.91.26,1.71.44.58.14a2.5,2.5,0,0,0,.36.24l.39.22a3,3,0,0,1,.35.22,1.32,1.32,0,0,1,.26.32,8.62,8.62,0,0,1,.6.68,2.9,2.9,0,0,1,.43.79h0s0,0,0,0h0a1.36,1.36,0,0,0-.12-.45l-.19-.42a6.57,6.57,0,0,0-.53-.75l-.11-.2-.06-.11-.09-.11a1.44,1.44,0,0,0-.25-.18l.07,0,.87.18.11,0,.11,0,.22,0h0a.1.1,0,0,0,.07,0h.2a1.8,1.8,0,0,1,.5.11l.33.13a1.14,1.14,0,0,1,.31.16,2,2,0,0,1,.5.5c.15.19.28.4.43.59-.13-.2-.25-.41-.38-.62a2.33,2.33,0,0,0-.49-.55,1.32,1.32,0,0,0-.32-.2,2.52,2.52,0,0,0-.33-.15,1.64,1.64,0,0,0-.49-.15h-.11L85,234l-.22-.05-.21,0-.84-.22-1.69-.48-1.68-.52c-.56-.18-1.11-.37-1.65-.58h0a.25.25,0,0,0-.17,0c-.62-.59-1.27-1.14-1.94-1.67l-.19-.15.4.15.47.15a1.74,1.74,0,0,0,.53.07H78l.11,0,.23,0h.45a7,7,0,0,1,.92.13c.29.07.57.23.88.34a2.84,2.84,0,0,1,.85.38.49.49,0,0,1,.16.16l.14.19c.11.14.27.18.39.28-.11-.11-.27-.17-.36-.3s-.07-.14-.12-.21a.69.69,0,0,0-.16-.18,2.79,2.79,0,0,0-.84-.47c-.28-.12-.55-.31-.87-.42a6.77,6.77,0,0,0-1-.21,2.83,2.83,0,0,0-.5,0H77.8a1.62,1.62,0,0,1-.4-.09A3.75,3.75,0,0,1,77,230l-.88-.38-.46-.17a1.11,1.11,0,0,0-.26-.07.76.76,0,0,0-.16,0c-.75-.57-1.51-1.13-2.27-1.69l-.15-.12.47,0h.37l.09,0,.21.07.4.16.81.31.39.18.19.09,0,0h0v0l.06.07c0,.06.07.13.11.2l.13.18a2.21,2.21,0,0,1,.23.36,2,2,0,0,0-.18-.4l-.1-.19c0-.06,0-.13-.07-.2l-.06-.11,0,0,0,0a.1.1,0,0,1,0,0l-.2-.12-.38-.2-.58-.28h.13a2.77,2.77,0,0,1,.5.1l.51.13.5.12c.35.23.69.48,1,.74-.31-.3-.63-.58-1-.85h0l-.49-.17-.49-.19a4.44,4.44,0,0,0-.52-.15l-.5-.11-.26-.07-.27-.05-.54-.06-1,0h-.09c-.94-.71-1.86-1.44-2.75-2.21-.57-.49-1.12-1-1.66-1.52l-.4-.4-.37-.41c-.26-.26-.49-.56-.73-.84s-.23-.29-.34-.44l-.28-.37a4.78,4.78,0,0,0,1,.4l.23.21c.14.12.29.23.44.34l.46.31.48.28.45.3a2.69,2.69,0,0,1,.39.36.66.66,0,0,1,.11.2,2.68,2.68,0,0,1,.07.27,1.29,1.29,0,0,0,.18.53h0s0,0,0,0a1.61,1.61,0,0,1-.08-.54,2.64,2.64,0,0,0,0-.28.7.7,0,0,0-.13-.29,2,2,0,0,0-.4-.43l-.44-.35a5.79,5.79,0,0,0-.93-.62l-.38-.2a5.16,5.16,0,0,0,.54,0,8.46,8.46,0,0,1,.88.09,4.28,4.28,0,0,1,.85.23,2,2,0,0,1,.4.18L70,222c.06,0,.13.08.15.15S70,222,70,222l-.18-.13a2.46,2.46,0,0,0-.39-.22,4,4,0,0,0-.84-.29c-.29-.07-.59-.12-.88-.17a5.94,5.94,0,0,1-.86-.16,5.22,5.22,0,0,1-1.51-.8l-.34-.28,0-.08c-.42-.62-.82-1.25-1.2-1.9q-1.05-1.82-2-3.72l-.29-.8a22.92,22.92,0,0,0-1-2.33c-.06-.16-.11-.32-.17-.47a2.32,2.32,0,0,1,1.09.2l0,0,1.61,2c.81,1,1.65,2,2.53,3a30.76,30.76,0,0,0,2.83,2.76,18.45,18.45,0,0,0,3.28,2.24l.06,0h0l.63.16a14,14,0,0,0,.92,1.86,2.5,2.5,0,0,0,.09.25c0,.1.09.2.14.3l.11.15a.61.61,0,0,0,.15.13l0,0,.07.11c.18.27.37.54.57.8s.39.52.61.77a6.51,6.51,0,0,0,.69.7c.12.11.23.23.36.33a.8.8,0,0,0,.42.23.8.8,0,0,1-.4-.25c-.12-.12-.22-.24-.33-.36a6.32,6.32,0,0,1-.63-.74c-.2-.26-.37-.53-.55-.8l-.33-.53,0,0,.58.26A4,4,0,0,1,76,225a3.77,3.77,0,0,1,.46.43,2.12,2.12,0,0,1,.2.24s0,.09.07.14a.13.13,0,0,0,.07.06h.09s0,0,0,0,0,0,0,0-.1,0-.11,0a.94.94,0,0,0-.06-.15,1.27,1.27,0,0,0-.18-.27,4.93,4.93,0,0,0-.42-.49,4,4,0,0,0-.51-.41,6.32,6.32,0,0,0-.56-.33l-.55-.31-.13-.08-.07,0-.07,0L74,223.5a15.63,15.63,0,0,1-.73-1.48c-.11-.26-.21-.53-.31-.8,1.32.35,2.63.74,3.92,1.19,1,.34,1.93.71,2.88,1.12a.27.27,0,0,0-.21.3h0c0,.14,0,.31,0,.48a2.56,2.56,0,0,0,.05.27l0,.14a.59.59,0,0,0,.06.14,3.05,3.05,0,0,0,.3.42,2.14,2.14,0,0,1,.13.19l.14.2c.37.53.77,1.05,1.17,1.55a.76.76,0,0,1,.08.11.33.33,0,0,0,0,.14.28.28,0,0,0,.26.29h.11c.63.85,1.2,1.74,1.76,2.65-.47-.9-1-1.79-1.49-2.65h.74a2.19,2.19,0,0,1,1,.24,3,3,0,0,1,.83.68,2.77,2.77,0,0,1,.31.45c0,.08.06.17.1.25a.54.54,0,0,0,.07.13.16.16,0,0,0,.12.06c-.09,0-.13-.11-.16-.2a1.54,1.54,0,0,0-.07-.27,2.65,2.65,0,0,0-.26-.5,3.42,3.42,0,0,0-.78-.83,2.44,2.44,0,0,0-1.11-.42c-.38-.06-.76-.08-1.1-.14h0l-.09-.15c-.37-.53-.72-1.06-1-1.61l-.12-.21-.13-.21c-.09-.14-.18-.27-.24-.39a1.29,1.29,0,0,1-.07-.38c0-.15,0-.3,0-.48v0a.3.3,0,0,0,0-.1q.89.38,1.74.81a28.56,28.56,0,0,1,4.54,2.8l1,.84,1,.9.94,1,.87,1c-.26-.37-.53-.73-.79-1.09l-.88-1-.94-1-.14-.11c.32.12.64.22,1,.31l.17.05.07,0,.11.07.22.12.44.23.88.42c.29.14.59.28.87.43a4.16,4.16,0,0,1,.42.23l.19.13,0,.07,0,.1a3.18,3.18,0,0,1,.16.93,3.89,3.89,0,0,1,0,.48c0,.16-.05.32-.08.48a2.16,2.16,0,0,0,0,1,1.23,1.23,0,0,0,.09.23c0,.08,0,.16.08.23a.8.8,0,0,0,.24.42.78.78,0,0,1-.22-.42,2.17,2.17,0,0,0-.07-.24,2,2,0,0,1-.07-.23,1.54,1.54,0,0,1,0-.48,4.2,4.2,0,0,1,.08-.47,4.1,4.1,0,0,0,.1-.48,4.26,4.26,0,0,0,0-.5,3.12,3.12,0,0,0-.12-1,.61.61,0,0,0,0-.12v-.07l-.06-.06a1.46,1.46,0,0,0-.21-.16l-.43-.25-.87-.45-.88-.43-.1-.06.93.16C90.68,228.55,91,228.61,91.32,228.7Zm-.15-9.46a1.23,1.23,0,0,1,.43,0,1.3,1.3,0,0,1,.38.21l.08.06a2.41,2.41,0,0,0-.71-.25l-.39,0Zm-65.8-2.42Zm-1.77,2.66a.19.19,0,0,1,0-.1.2.2,0,0,1,.08-.08l0,0h0Zm.16-.21h0Zm.17.45Zm20.2,4.71-.06.1s0,0,0-.06l.05,0Zm41.1,9.63Zm-11.57-6.53h0Z"></path>
      <polygon class="cls-13" points="0 191.9 57.69 216 110.12 193.77 57.69 175.28 0 191.9"></polygon>
      <path class="cls-14" d="M34,103.87s-.43,2.95,1.79,9.07,1.16,13.17,1.16,13.17l-.64-5A16.92,16.92,0,0,0,34.51,115a17.86,17.86,0,0,1-1.47-9.9C33.46,102.72,34,103.87,34,103.87Z"></path>
      <path class="cls-15" d="M55.58,107.88s-4,1.68-6.32-1.06-4.63-10.22-8-9.48a6.8,6.8,0,0,0-5.38,4.74A36,36,0,0,0,34,107c-.43,1.9-1.37,3-.53,5.48s2,5.06,2,5.06S32,112,32.09,109.88s-1.05-3.69-.63-5.58.1-4.11,1.68-7.06S38.2,90.28,40,90s5.37.63,8.43,5.9S53,106.09,55.58,107.88Z"></path>
      <path class="cls-16" d="M51.59,106a22.74,22.74,0,0,0-2.74-5.37c-2.21-3.48-3.8-7-6.32-7.48-1.36-.27-2.32.21-4,1.48a16.79,16.79,0,0,0-5.17,7.69,10.57,10.57,0,0,0-.42,4s0,1.58,1.37-1.79A27.59,27.59,0,0,1,37,98.9c.84-1.27,3.49-2.38,4.59-2.48,1.59-.16,2.17.1,3.75,2.21S49.7,107.48,51.59,106Z"></path>
      <path class="cls-16" d="M32.12,104s.43-4.22.71-5.13a30.2,30.2,0,0,1,3.93-6.11c.84-.7,2.6-2.88,4.78-2.39s3.79,2.25,5.55,4.5,3.44,7.51,3.58,8.08-3-5.41-3.87-6.61-2-3.3-4.14-4.14c-1.25-.49-2.74,0-4.78,2C34.93,97.17,34.51,98.29,32.12,104Z"></path>
      <g class="cls-17">
        <path class="cls-18" d="M48.42,99.18c-.64-1.06-1.3-2.11-2-3.13a18.85,18.85,0,0,0-2.29-2.87,3.12,3.12,0,0,0-1.5-.93,3.4,3.4,0,0,0-1.76-.09,8.62,8.62,0,0,0-3,2.06,7.55,7.55,0,0,1,2.94-2.29,3.41,3.41,0,0,1,1.9,0,3.58,3.58,0,0,1,1.64,1,17.06,17.06,0,0,1,2.27,3A31.26,31.26,0,0,1,48.42,99.18Z"></path>
      </g>
      <path class="cls-14" d="M37.91,62.84s-1.49-.22-4,2-6.11,6-7,8.57-2.06,2-3.05,4.71-3.23,9.22-1.41,12.49c0,0,.25-4.14,1.24-6s6-5.66,6.36-6A20.61,20.61,0,0,0,33.78,75a90.93,90.93,0,0,1,7.6-7.47c1.16-1,5-.87,6.36.58,0,0-4.38-4.64-6.61-5A16,16,0,0,0,37.91,62.84Z"></path>
      <path class="cls-16" d="M35.47,63.64c2.63-.56,3.6-1.14,6,0s2.46,1.77,3.72,3.64c.74,1.1,2,2.62,2,3.49a4.68,4.68,0,0,0,1.49,2.72c.74.76,2.73-.76,3.47,4s2.6-2.29,3.35-2.94a1.39,1.39,0,0,0,.49-1.42s1.74-1.74-2-7.18-4.28-1.18-5.21-1c-.46.1-.49.55-5.13-1a9.63,9.63,0,0,1-1.48-.62A7,7,0,0,0,35.47,63.64Z"></path>
      <path class="cls-15" d="M27.25,77.57s-1.81,3.2-2.47,3.34.33-3,1.65-4.64,2.64-5.66,4.13-6.82,3.3-4.94,7.43-5.52-1.15,4.65-1.15,4.65-4.63,4.2-5.62,5.22S27.25,77.57,27.25,77.57Z"></path>
      <path class="cls-15" d="M41.22,66.91s.91-2.69-.91-1.24-7.11,8-8.18,8.71-4.46,3.41-5.29,5-1.57,1.89-.25,1.45,5.46-4.64,6.53-5.51,5-5.3,5.87-5.81A10.7,10.7,0,0,0,41.22,66.91Z"></path>
      <path class="cls-15" d="M53.2,77.14S53,74,51.3,73.08s-2.07-.22-3-2.18-2.15-3.56-1.24-3.78,3.22-.43,3.8,1A47.38,47.38,0,0,1,53.2,74C53.44,75.4,52,69.23,52,68.94s-1.33-2.47-.5-2.61,2.4-.29,2.81,1.52,1.4,2.9,1.4,4.14S53.11,76.56,53.2,77.14Z"></path>
      <path class="cls-19" d="M52.82,72.13c-.67-1.17-1.19-2.41-1.76-3.63a5.94,5.94,0,0,0-.91-1.71,15.76,15.76,0,0,0-1.42-1.41,6.67,6.67,0,0,1,1.68,1.17,2.65,2.65,0,0,1,.63.85c.16.3.3.61.44.92A25.3,25.3,0,0,1,52.82,72.13Z"></path>
      <g class="cls-20">
        <path class="cls-21" d="M33.86,64.8a7.07,7.07,0,0,1,4.62-1.91,7.26,7.26,0,0,1,4.78,1.64A8.7,8.7,0,0,1,45,66.46a12,12,0,0,1,.65,1.09c.11.18.21.37.31.53s.27.29.4.47C47.5,69.93,47,72,48.4,73.08A3.43,3.43,0,0,1,47.08,71a5.29,5.29,0,0,0-1-2.22c-.12-.16-.29-.26-.44-.48s-.22-.37-.33-.55c-.21-.36-.42-.72-.66-1A8.22,8.22,0,0,0,43,64.84a7.13,7.13,0,0,0-4.52-1.64A7.47,7.47,0,0,0,33.86,64.8Z"></path>
      </g>
      <path class="cls-22" d="M62.13,164.41s-3.27.28-5,2.46-1.5,7.7-1.5,7.7l3.74-6.83A18.81,18.81,0,0,1,62.13,164.41Z"></path>
      <path class="cls-22" d="M61.86,130.16s-3.27.29-5,2.47-1.49,7.69-1.49,7.69l3.73-6.83A19.28,19.28,0,0,1,61.86,130.16Z"></path>
      <path class="cls-16" d="M58.61,190.68a3.06,3.06,0,0,0-1.33-1.27l-.7-146,.08-9.4c0-.58,0-1.16.09-1.74l.54-5.47h-4.6l.59,4.7a25.38,25.38,0,0,1,.22,3.15l.07,7.69L52.7,188.76a3.33,3.33,0,0,1-1.38,1.92C49.86,191.53,59.28,192.17,58.61,190.68Z"></path>
      <path class="cls-14" d="M55.6,92.78s-1.06-.54-1.59-.3-.53,21.41-.53,21.41l2.48.37Z"></path>
      <path class="cls-14" d="M54.9,118.26s.88.64,1.24-.18.53,14.1.53,14.1H54.9Z"></path>
      <path class="cls-14" d="M54.24,32.87a2.34,2.34,0,0,0,2.25-1.58L56.4,82.92s-1.06,3.54-1.77,3.29S55.52,44.59,54.24,32.87Z"></path>
      <path class="cls-23" d="M53.31,132.83s1.24-12.81.53-14.3.71-1.24.88.5.5,14.57.5,14.57Z"></path>
      <path class="cls-14" d="M53.57,143.59s2.39-.9,2.12,2.85-.39,21.64-1.59,23.44,3.19,0,3.19,0-.67-26.81-.8-27.49S54.37,140.89,53.57,143.59Z"></path>
      <path class="cls-24" d="M53.66,170.7s3.89-21.95,1.06-23.48S54,157.84,53.31,160.7,52.6,172.13,53.66,170.7Z"></path>
      <path class="cls-14" d="M52.78,189.34s-.8,1.66,2.91,2,2.21-1.93,1.59-4.06-.44-7.87-.44-7.87.09.31-2,1.21S55.35,184.44,52.78,189.34Z"></path>
      <path class="cls-23" d="M72.42,1.3s3.76-.85,5.43,2,1.94,2.68,2.22,4.15a11.1,11.1,0,0,1,.45,2.31c-.08.36.48-3.38-.31-5.6A4.42,4.42,0,0,0,76.66,1,15.31,15.31,0,0,0,72.42,1.3Z"></path>
      <path class="cls-16" d="M53.38,25.6s1.3-11.12,4.49-15.4S65.34.45,71.31.08s7.93,1.83,8.76,3.3.56,5.86.56,5.86S81.27.08,75.3,1.3,66.59,6.92,64.78,13.76s-8.06,11.48-8.06,11.48S54.49,26.34,53.38,25.6Z"></path>
      <path class="cls-25" d="M69.27.81S65.84,1,61.4,6.68s-6.12,11.23-6.31,13.84-2.08,5-.23,4.56,6-5.47,7.65-9.61C64.36,10.67,66,7.13,68,5.33,71.78,1.83,71.5.81,69.27.81Z"></path>
      <g class="cls-26">
        <path class="cls-14" d="M74,0a10.4,10.4,0,0,0-7.1,3.71c-1.66,2.22-3.66,4.21-5,6.58A22.15,22.15,0,0,0,60.13,14c-.52,1.29-1,2.59-1.62,3.85a29.3,29.3,0,0,1-4.16,7.22,18.34,18.34,0,0,0,2.08-3.59c.6-1.25,1.16-2.52,1.68-3.8s1-2.57,1.53-3.87A23.49,23.49,0,0,1,61.38,10a25.89,25.89,0,0,1,2.5-3.38l2.69-3.18A10,10,0,0,1,74,0Z"></path>
      </g>
      <g class="cls-27">
        <path class="cls-18" d="M69.37,1.19a9.27,9.27,0,0,0-2.16,1.36,10.93,10.93,0,0,0-1.64,1.93c-1.06,1.36-2.19,2.63-3.22,4a14.69,14.69,0,0,0-1.47,2.07,20.12,20.12,0,0,0-1.05,2.31q-.93,2.38-2,4.73l1.74-4.84a13.33,13.33,0,0,1,2.5-4.51C63.1,6.89,64.24,5.6,65.34,4.3A10.48,10.48,0,0,1,67.1,2.41,9.38,9.38,0,0,1,69.37,1.19Z"></path>
      </g>
      <g class="cls-28">
        <path class="cls-14" d="M56.39,25.32a37.72,37.72,0,0,0,4-3.71,16.35,16.35,0,0,0,3.12-4.39c.69-1.67,1.2-3.42,1.73-5.15A20.83,20.83,0,0,1,67.31,7,17,17,0,0,1,71,3a8,8,0,0,1,5.06-1.93l.69.09c.23,0,.45.12.67.18A3.55,3.55,0,0,1,78.68,2,4.92,4.92,0,0,1,80.14,4.3a13.23,13.23,0,0,1,.38,5.42A13.26,13.26,0,0,0,80,4.36a4.81,4.81,0,0,0-1.42-2.22,3.34,3.34,0,0,0-1.17-.6c-.22-.06-.43-.14-.65-.18l-.66-.07A7.77,7.77,0,0,0,71.2,3.22a16.86,16.86,0,0,0-3.6,4,20.15,20.15,0,0,0-2.12,5c-.55,1.73-1.08,3.48-1.79,5.15a16.17,16.17,0,0,1-3.21,4.42A37.76,37.76,0,0,1,56.39,25.32Z"></path>
      </g>
      <path class="cls-16" d="M52.87,177.28s-.36-2.81,1.22-4.08c3.26-2.64,3.82-5.3,4.9-6.92s5.94-5.76,11.22-3.62a11.65,11.65,0,0,1,3.65,2.09c1.1,1,1.26,1.86,3.44,2.73a14.84,14.84,0,0,1,5.47,3.74s.73-3.83-5.62-6.2a6.8,6.8,0,0,0-2.48-.2,17,17,0,0,0-3.83.62c-3.38.81-5.48.37-7.7.7C58.2,166.88,52.76,175.42,52.87,177.28Z"></path>
      <path class="cls-16" d="M58.31,170.65a25.34,25.34,0,0,1,.28,4.12c-.16.91-.44,1-.44,1s0,1.75-.48,2-2.4-1.95-4.75.06a10.61,10.61,0,0,1,2.39-3.08C57,173.16,58.38,171.67,58.31,170.65Z"></path>
      <path class="cls-23" d="M53.17,178a3.79,3.79,0,0,1,.23-3.79c1.07-1.54,2.36-1.5,4.27-5.48s4.57-5.21,4.57-5.21S59.17,166.41,59,168s0,3.61-.79,4.73-1.9,1.6-3.24,2.92A7,7,0,0,0,53.17,178Z"></path>
      <path class="cls-29" d="M53.15,177.94a3.9,3.9,0,0,1-.46-1.71,4.21,4.21,0,0,1,.35-1.75v0a15.64,15.64,0,0,1,2.45-2.83,12.51,12.51,0,0,0,2-3,18.28,18.28,0,0,1,1.94-3.15,10.76,10.76,0,0,1,3-2.16,12.62,12.62,0,0,0-2.83,2.3,22.42,22.42,0,0,0-1.83,3.16,11.47,11.47,0,0,1-2.1,3.07l-1.31,1.3a8.26,8.26,0,0,0-1.15,1.35v0A4.07,4.07,0,0,0,53.15,177.94Z"></path>
      <path class="cls-23" d="M69.89,162.54a22.24,22.24,0,0,1,2.33.94,6.84,6.84,0,0,1,1.06.68,8.41,8.41,0,0,1,1,.82c.3.31.52.67.81,1a6.45,6.45,0,0,0,.94.79c.69.43,1.47.77,2.21,1.15a17.39,17.39,0,0,1-2.31-1,6.13,6.13,0,0,1-1-.79c-.31-.29-.54-.65-.83-.93a8.54,8.54,0,0,0-1.94-1.5C71.41,163.24,70.65,162.89,69.89,162.54Z"></path>
      <path class="cls-23" d="M76,165.82a13.5,13.5,0,0,1,4,1.93,10.33,10.33,0,0,1,1.64,1.53,6.69,6.69,0,0,1,1.11,1.94,7.85,7.85,0,0,0-1.17-1.89A10.63,10.63,0,0,0,80,167.84,15.26,15.26,0,0,0,76,165.82Z"></path>
      <path class="cls-16" d="M52.46,149.42s-.36-2.88,1.25-4.18c3.34-2.7,3.91-5.42,5-7.09s6.08-5.88,11.48-3.7a11.76,11.76,0,0,1,3.73,2.15c1.13,1,1.29,1.89,3.53,2.78a15.33,15.33,0,0,1,5.59,3.83s.74-3.92-5.76-6.34a6.64,6.64,0,0,0-2.53-.2,17.3,17.3,0,0,0-3.92.63c-3.45.83-5.61.37-7.88.71C57.91,138.77,52.35,147.51,52.46,149.42Z"></path>
      <path class="cls-16" d="M58,142.63a26.44,26.44,0,0,1,.28,4.22c-.16.93-.45,1-.45,1s0,1.79-.49,2.08-2.45-2-4.85.07A10.92,10.92,0,0,1,55,146.83C56.73,145.19,58.1,143.67,58,142.63Z"></path>
      <path class="cls-23" d="M52.77,150.13a3.87,3.87,0,0,1,.23-3.88c1.1-1.58,2.42-1.53,4.37-5.61s4.68-5.32,4.68-5.32-3.14,3-3.35,4.62,0,3.7-.8,4.83-1.95,1.65-3.32,3A7.15,7.15,0,0,0,52.77,150.13Z"></path>
      <path class="cls-29" d="M52.75,150.09a3.81,3.81,0,0,1-.47-1.75,4.48,4.48,0,0,1,.35-1.8v0a15.25,15.25,0,0,1,2.5-2.89,13.22,13.22,0,0,0,2.09-3.07,18,18,0,0,1,2-3.23,10.91,10.91,0,0,1,3.07-2.21,12.77,12.77,0,0,0-2.9,2.35,23.59,23.59,0,0,0-1.88,3.24,11.73,11.73,0,0,1-2.14,3.14L54,145.23a8.67,8.67,0,0,0-1.18,1.38v0A4.14,4.14,0,0,0,52.75,150.09Z"></path>
      <path class="cls-23" d="M69.88,134.33a20.46,20.46,0,0,1,2.38,1,6.47,6.47,0,0,1,1.09.69,8.63,8.63,0,0,1,1,.84c.3.32.53.68.83,1a7.48,7.48,0,0,0,1,.81c.71.44,1.5.79,2.26,1.17a17.51,17.51,0,0,1-2.36-1,6.52,6.52,0,0,1-1-.81c-.32-.31-.56-.67-.85-1a9.3,9.3,0,0,0-2-1.54C71.43,135.05,70.66,134.69,69.88,134.33Z"></path>
      <path class="cls-23" d="M76.12,137.69a13.87,13.87,0,0,1,4.12,2,10.36,10.36,0,0,1,1.68,1.56,7,7,0,0,1,1.14,2,8,8,0,0,0-1.2-1.93,10.19,10.19,0,0,0-1.69-1.52A15.2,15.2,0,0,0,76.12,137.69Z"></path>
      <path class="cls-23" d="M50.33,136a7.93,7.93,0,0,0-3.41-1,7.6,7.6,0,0,0-2.81,1.1A38.8,38.8,0,0,0,39.54,138c-1.16.69-4.57,3.58-5.43,5.29s-2.16,5.14-2.46,5.83a14.08,14.08,0,0,0-1.8,3.62c-.46,1.83-1.41,3.38-.36,6.15a3.89,3.89,0,0,1,0-2.2c.41-.69,1.91-2.65,2.41-3.58a12.23,12.23,0,0,1,2.36-2.69,5.2,5.2,0,0,0,1.91-1.51,5,5,0,0,1,2.36-1.58,52.31,52.31,0,0,0,4.32-3.79,53.65,53.65,0,0,0,5-4.72C49.18,137.18,50.33,136,50.33,136Z"></path>
      <path class="cls-16" d="M49,136s-3.16-1.29-4.18.55,2.94,1,3.5.49A2.34,2.34,0,0,0,49,136Z"></path>
      <path class="cls-16" d="M44,139.33s.68-2.39-1.58-1.75a7.81,7.81,0,0,0-4.29,2.48c-.8,1-2.49,2.38-2.94,3.21a52.74,52.74,0,0,0-2.94,5.49c-.56,1.56,2.83-2,3.73-3S43.35,140.33,44,139.33Z"></path>
      <path class="cls-16" d="M43.62,140.53a3.4,3.4,0,0,1,1.62-.62c.81-.1,1.69-.11.71.51a24.55,24.55,0,0,0-3,2.52,19,19,0,0,1-3.71,2.74,42.74,42.74,0,0,0-3.7,2.26c-.91.73-2,1.46-2,1.46s-.56-.36,2.6-3C38.6,144.3,42.18,141.61,43.62,140.53Z"></path>
      <path class="cls-19" d="M46.27,138.24a37.41,37.41,0,0,0-3.51,2.19c-1.14.79-2.24,1.63-3.32,2.49s-2.14,1.74-3.17,2.66a23.76,23.76,0,0,0-2.89,3l0,0a18.74,18.74,0,0,1,2.72-3.17c1-1,2.07-1.86,3.13-2.75s2.22-1.68,3.39-2.42a23.22,23.22,0,0,1,3.68-2Z"></path>
      <path class="cls-30" d="M48.23,137.22a37.51,37.51,0,0,0-5.49,3.36c-1.73,1.28-3.46,2.56-5.11,3.93a20.18,20.18,0,0,0-2.33,2.19c-.69.82-1.44,1.61-2.19,2.38-.39.38-.78.75-1.14,1.14a2.64,2.64,0,0,0-.46.61l-.34.72c-.42,1-.86,2-1.26,3h0c.31-1,.68-2,1.08-3l.31-.75a3.14,3.14,0,0,1,.48-.69c.36-.41.73-.8,1.1-1.19.75-.77,1.49-1.54,2.18-2.36a19.86,19.86,0,0,1,2.42-2.18c1.68-1.35,3.43-2.6,5.19-3.85a36.57,36.57,0,0,1,5.58-3.25Z"></path>
      <path class="cls-16" d="M57.44,136.79S55,133,51.34,134.23s-2.56,2.93-3.62,4.39A17.53,17.53,0,0,1,44.48,142c-1.5,1.35-4.22,3.73-4.22,3.73s3.36-2.41,4.05-2.94,1.89-1.24,2.6-1.73,4.35-3.78,4.8-4.09.15,0,.76.05.85.3,1.33-.15.62-.55,1.4-.24A4,4,0,0,0,57.44,136.79Z"></path>
      <path class="cls-14" d="M51.34,134.23a7.29,7.29,0,0,0-1.22.5,1.63,1.63,0,0,1,.3.07,7.1,7.1,0,0,1,2.31-.48,1.08,1.08,0,0,1,1.05.65.85.85,0,0,1-.5,1,13,13,0,0,0-1.5,1c.35-.23.12,0,.69.09s.85.3,1.33-.15.62-.55,1.4-.24a4,4,0,0,0,2.24.12S55,133,51.34,134.23Z"></path>
      <path class="cls-30" d="M57.44,136.79a6.89,6.89,0,0,0-2.1-2,5.05,5.05,0,0,0-2.78-.67,7.11,7.11,0,0,0-2.73.91,2.19,2.19,0,0,0-1,.9,3.73,3.73,0,0,0-.33,1.37,2.64,2.64,0,0,1-.61,1.44l-1,1.09c-.67.73-1.34,1.46-2,2.15a59.1,59.1,0,0,1-4.56,3.82l2.21-2a29.47,29.47,0,0,0,2.15-2c.68-.72,1.35-1.44,2-2.18l1-1.1a2.28,2.28,0,0,0,.5-1.26,4.39,4.39,0,0,1,.39-1.49,2.57,2.57,0,0,1,1.17-1,7.15,7.15,0,0,1,2.87-.9,5.22,5.22,0,0,1,2.88.8A7,7,0,0,1,57.44,136.79Z"></path>
      <path class="cls-16" d="M54.8,23.88s-2.34,1.88-1.25,3.65c0,0,.28,1.09,1.65.46s1.26.06,1.94.11A4.62,4.62,0,0,0,59,27.48S58.23,23.31,54.8,23.88Z"></path>
      <path class="cls-14" d="M53.55,27.53s.28,1.09,1.65.46,1.26.06,1.94.11A4.62,4.62,0,0,0,59,27.48a6,6,0,0,1-2.4-.56c-.52-.33.15-1.19-.34-1.29S55.2,26.87,55,26.73c-.42-.26-.16-1.37-.54-1.39C53.39,25.28,53.13,26.85,53.55,27.53Z"></path>
      <path class="cls-23" d="M54.52,24.22s0-1,3.36-.57,3.26.17,3.26.17,2.34-1.94,3.31-.62,1.08,3.19,1.65,4.39,1.6,5.54,1,7.65-.62,2.17,0,3.19a11.37,11.37,0,0,1,1.19,5.94,13.69,13.69,0,0,1-1,4.17,11.5,11.5,0,0,0-.8,2.68A37.29,37.29,0,0,1,64.85,55s-.23-3.31-.57-5.31-.23-2.57-1.09-3.6-.57-1.82-.91-2.85-1.49-1.48-1.6-3.2.17-4.28-.8-5.76-2.4-7.42-3.08-8.62S55.49,23.48,54.52,24.22Z"></path>
      <path class="cls-16" d="M61.48,25a40.89,40.89,0,0,1,1.77,5,32.23,32.23,0,0,1,1,7.36c0,1.09,1.88,7.19,1.82,9.25s1,1.14,1.26-1.43.17-5-.57-6.1a3.82,3.82,0,0,1-.52-3.89c.69-1.42,0-5.59-.62-7.07s-1.32-4.57-1.89-4.57S61.48,24.62,61.48,25Z"></path>
      <path class="cls-16" d="M61.77,26.85S61.19,25.31,60.4,25s-3.66-1.31-3.37-.63a13.79,13.79,0,0,1,1.25,3.31,31.27,31.27,0,0,0,2.34,6.05c.92,2,1.32,2.74,1.2,4.8S62.68,41.23,63,42s-.05,2.06.57,3.14S65,47.51,65,47.51s1.14,1.31.69-2.28a33.34,33.34,0,0,0-1.72-6.74A66,66,0,0,0,61.77,26.85Z"></path>
      <path class="cls-19" d="M62,26.11a40.58,40.58,0,0,1,1.5,4.17A13.12,13.12,0,0,1,64,32.47l.19,2.21.16,2.21c0,.37,0,.74.1,1.09s.13.71.21,1.07c.35,1.42.83,2.83,1.07,4.29-.36-1.43-.92-2.79-1.32-4.23A9.19,9.19,0,0,1,64,36.9l-.19-2.2-.17-2.2a16,16,0,0,0-.42-2.15C62.87,28.93,62.44,27.51,62,26.11Z"></path>
      <path class="cls-29" d="M65.91,47.85c-.06,1-.21,2-.28,2.94a13.76,13.76,0,0,1-.52,2.92c.08-.49.12-1,.16-1.47l.14-1.47c.06-.49.09-1,.19-1.47S65.8,48.33,65.91,47.85Z"></path>
      <g class="cls-31">
        <path class="cls-18" d="M53.58,25.44a2.89,2.89,0,0,1,1-1.41,1,1,0,0,1,.89-.09,2.19,2.19,0,0,1,.75.48A3.08,3.08,0,0,1,57.11,26c.16.56.29,1.12.48,1.66a26.45,26.45,0,0,1,1.1,3.29,18.66,18.66,0,0,0,1.13,3.25l-.76-1.55A12.33,12.33,0,0,1,58.5,31a32.37,32.37,0,0,0-1.15-3.26c-.41-1.09-.42-2.34-1.25-3.13a1.2,1.2,0,0,0-1.45-.42A2.86,2.86,0,0,0,53.58,25.44Z"></path>
      </g>
      <path class="cls-23" d="M54.65,89.54s2.63-3.7,2.9-4.13,1.94-2.47,3.44-2.35a6.66,6.66,0,0,0,3.76-.36c1.36-.6,1.22-1.19,2.31-1.47a6.79,6.79,0,0,1,5.43,1.47,20.92,20.92,0,0,0,4.62,2.51,12.33,12.33,0,0,1,4.22,4.69A8.49,8.49,0,0,1,79,89.23c-.86-.48-6-2.39-6.43-2.79s-4.71-2.9-6.48-2.74A9.87,9.87,0,0,0,61.31,86c-.82.76-3.08,3.27-3.08,3.27S55.64,90.06,54.65,89.54Z"></path>
      <path class="cls-16" d="M56.1,88.89a20.56,20.56,0,0,0,4.6-3.2S59.36,89.72,56.1,88.89Z"></path>
      <path class="cls-16" d="M75.48,84.73a7,7,0,0,1,3.17,2A20.59,20.59,0,0,1,81,89.74a22.26,22.26,0,0,1-3.4-1.23c-.77-.48-2.67-1.67-3-1.91s2.35,1.39,2.67.92S77.61,86.4,75.48,84.73Z"></path>
      <path class="cls-16" d="M54.92,89.31l.25-.38,2.38-3.52s-1,1.79-.09,1.63a6.73,6.73,0,0,0,2.26-1.2l.82-.55C60.68,85.46,56.42,88.48,54.92,89.31Z"></path>
      <path class="cls-14" d="M53,90.77A2,2,0,0,1,55.45,89c2.24.36,3.16.8,4.59-2.24s4.89-5.46,7.44-5.1,5.6,4.29,6.52,4.92a49.54,49.54,0,0,0,6.42,3c.92.27,3.36.63,4,3.76,0,0,.31.45,1.53,2.06s.51,4.75.61,5.91-1.22,2.69-1.32,3.4.51-3.49-.51-5.1-1.63-2.42-1.83-4.3-.21-3.58-1.84-4.83S72,86.65,72,86.65a12.62,12.62,0,0,0-9.88-.36s-3.67,1.26-5.51,6.18C56.57,92.47,56.78,88,53,90.77Z"></path>
      <path class="cls-16" d="M64.49,85.07a3.83,3.83,0,0,1-1.26.26c-.65,0-1.24-.17-.29-1.12,1.63-1.63,3-2.46,4.62-2s4.16,2.75,3.44,2.95S66.21,84.41,64.49,85.07Z"></path>
      <path class="cls-16" d="M57.49,29.26s.35-2.81-1.22-4.08c-3.27-2.64-3.82-5.3-4.9-6.93s-5.94-5.75-11.22-3.61a11.65,11.65,0,0,0-3.65,2.09c-1.1,1-1.26,1.85-3.45,2.73a15,15,0,0,0-5.47,3.74s-.72-3.83,5.63-6.2a6.78,6.78,0,0,1,2.48-.2,17,17,0,0,1,3.83.62c3.38.81,5.48.36,7.7.7C52.16,18.86,57.6,27.4,57.49,29.26Z"></path>
      <path class="cls-16" d="M52.05,22.63a24.22,24.22,0,0,0-.28,4.12c.16.91.44,1,.44,1s0,1.75.48,2,2.4-2,4.74.06a10.45,10.45,0,0,0-2.38-3.08C53.32,25.13,52,23.65,52.05,22.63Z"></path>
      <path class="cls-23" d="M57.19,30A3.79,3.79,0,0,0,57,26.17c-1.08-1.54-2.37-1.5-4.27-5.48s-4.57-5.21-4.57-5.21,3.07,2.91,3.27,4.52,0,3.61.79,4.72,1.9,1.61,3.23,2.93A7,7,0,0,1,57.19,30Z"></path>
      <path class="cls-29" d="M57.21,29.91a4,4,0,0,0-.09-3.37v0A7.94,7.94,0,0,0,56,25.17l-1.3-1.3a11.24,11.24,0,0,1-2.1-3.07,21.92,21.92,0,0,0-1.84-3.16,11.94,11.94,0,0,0-2.83-2.3,10.66,10.66,0,0,1,3,2.16,18.28,18.28,0,0,1,1.94,3.15,12.42,12.42,0,0,0,2,3,15.57,15.57,0,0,1,2.45,2.82v0a4.12,4.12,0,0,1,.34,1.76A3.68,3.68,0,0,1,57.21,29.91Z"></path>
      <path class="cls-23" d="M40.47,14.52c-.76.35-1.52.7-2.25,1.09a9.47,9.47,0,0,0-1.95,1.5c-.28.29-.51.64-.83.94a5.37,5.37,0,0,1-1,.79,18,18,0,0,1-2.3,1c.74-.38,1.52-.73,2.21-1.15a7.15,7.15,0,0,0,.94-.79c.29-.29.51-.64.81-.95a8.41,8.41,0,0,1,1-.82,6.84,6.84,0,0,1,1.06-.68A20.26,20.26,0,0,1,40.47,14.52Z"></path>
      <path class="cls-23" d="M34.37,17.8a15.26,15.26,0,0,0-4,2,10.15,10.15,0,0,0-1.65,1.49,8,8,0,0,0-1.18,1.89,7,7,0,0,1,1.12-1.94,10.33,10.33,0,0,1,1.64-1.53A13.5,13.5,0,0,1,34.37,17.8Z"></path>
      <path class="cls-8" d="M56.22,194.78a1.16,1.16,0,0,0-1.11-.41c-.61.19-.86.68-.75.85a1.64,1.64,0,0,0,.23.23c.15.15.47-.27.49-.28Z"></path>
      <path class="cls-32" d="M56.54,195.52s-.19-.84-.51-.85-.67-.06-.67-.06l-.09.15s.31.55.44.6l.42.12A3.73,3.73,0,0,0,56.54,195.52Z"></path>
      <path class="cls-10" d="M56.51,195.62a.22.22,0,0,0-.12-.32,3.22,3.22,0,0,0-.41-.09s-.5.38-.6.44-.16,0,.13.14.28.16.55.13A.81.81,0,0,0,56.51,195.62Z"></path>
      <path class="cls-11" d="M56,195.21a3.65,3.65,0,0,0-.36.36c-.15.18-.18.23-.35.14s-.64-.15-.76-.33-.11-.16,0-.37a1,1,0,0,1,.59-.36.52.52,0,0,1,.59.13A1.2,1.2,0,0,1,56,195.21Z"></path>
      <path class="cls-8" d="M40.5,189.06a1.71,1.71,0,0,0-1.72-.24c-.82.46-1,1.23-.82,1.45.06.06.27.18.4.27S39,190,39,190Z"></path>
      <path class="cls-32" d="M41.18,190s-.53-1.15-1-1.06-1,.12-1,.12l-.08.25s.62.69.81.71.56,0,.64,0A4,4,0,0,0,41.18,190Z"></path>
      <path class="cls-10" d="M41.18,190.19c0-.12,0-.41-.28-.43a5.36,5.36,0,0,0-.61,0s-.6.7-.73.82-.22.12.23.16.46.14.83,0A1.18,1.18,0,0,0,41.18,190.19Z"></path>
      <path class="cls-11" d="M40.29,189.76a6.16,6.16,0,0,0-.42.63c-.15.3-.17.38-.46.31s-1,0-1.18-.25-.21-.19-.06-.53a1.32,1.32,0,0,1,.73-.7.76.76,0,0,1,.88,0A2,2,0,0,1,40.29,189.76Z"></path>
      <path class="cls-8" d="M51.6,186.79s-3.54-1.76-6,.39-2.6,4.93-1.75,5.53a12.66,12.66,0,0,0,1.55.62c1,.37,1.66-2.29,1.72-2.32S51.6,186.79,51.6,186.79Z"></path>
      <path class="cls-32" d="M54.62,189.59s-2.62-3.52-4.12-2.9-3.24,1.11-3.24,1.11l-.1.89s2.58,1.92,3.27,1.86,1.91-.28,2.21-.28A14.86,14.86,0,0,0,54.62,189.59Z"></path>
      <path class="cls-10" d="M54.72,190.12c0-.39-.17-1.39-1.23-1.26a15.22,15.22,0,0,0-2.09.45s-1.54,2.81-1.89,3.29-.66.59.88.39,1.66.16,2.83-.54A4,4,0,0,0,54.72,190.12Z"></path>
      <path class="cls-11" d="M51.4,189.31a18.84,18.84,0,0,0-1,2.44c-.32,1.12-.34,1.42-1.35,1.37s-3.29.6-4.2,0-.86-.49-.61-1.78a4.7,4.7,0,0,1,2-2.9,2.63,2.63,0,0,1,3-.63A6.8,6.8,0,0,1,51.4,189.31Z"></path>
      <path class="cls-8" d="M65.22,187.92s-2-2.77-4.81-2.08-4,2.78-3.55,3.58a9.57,9.57,0,0,0,1,1.09c.64.7,2.19-1.11,2.25-1.11S65.22,187.92,65.22,187.92Z"></path>
      <path class="cls-32" d="M66.44,191.29s-.63-3.77-2-3.89-3-.42-3-.42l-.43.65s1.24,2.51,1.79,2.74,1.59.54,1.83.66A14.38,14.38,0,0,0,66.44,191.29Z"></path>
      <path class="cls-10" d="M66.31,191.74c.13-.31.42-1.15-.46-1.46a12.54,12.54,0,0,0-1.79-.49s-2.31,1.56-2.77,1.8-.75.19.52.65,1.23.78,2.41.7A3.45,3.45,0,0,0,66.31,191.74Z"></path>
      <path class="cls-11" d="M64.06,189.79a15.45,15.45,0,0,0-1.72,1.51c-.69.73-.82,1-1.58.52S58,191,57.5,190.17s-.48-.72.23-1.62a4.08,4.08,0,0,1,2.71-1.45,2.31,2.31,0,0,1,2.57.7A5.81,5.81,0,0,1,64.06,189.79Z"></path>
      <path class="cls-8" d="M55.74,189.36s-2.93-2.26-5.59-.73-3.26,4.05-2.6,4.75a10.75,10.75,0,0,0,1.31.85c.87.53,1.93-1.79,2-1.82S55.74,189.36,55.74,189.36Z"></path>
      <path class="cls-32" d="M58,192.47s-1.77-3.7-3.25-3.4-3.18.43-3.18.43l-.25.8s2,2.23,2.66,2.3,1.8.09,2.08.14A14.61,14.61,0,0,0,58,192.47Z"></path>
      <path class="cls-10" d="M58,193c0-.37.09-1.31-.91-1.38a15.19,15.19,0,0,0-2,0s-1.93,2.3-2.33,2.68-.71.42.74.52,1.49.44,2.68,0A3.7,3.7,0,0,0,58,193Z"></path>
      <path class="cls-11" d="M55.1,191.63a17.35,17.35,0,0,0-1.33,2.07c-.49,1-.56,1.24-1.48,1s-3.12-.05-3.85-.74-.7-.6-.24-1.74a4.38,4.38,0,0,1,2.37-2.3,2.47,2.47,0,0,1,2.86,0A6.48,6.48,0,0,1,55.1,191.63Z"></path>
      <path class="cls-8" d="M71,194.49a1.74,1.74,0,0,0,1.62-.8c.44-.88.16-1.66-.15-1.73a4.11,4.11,0,0,0-.5,0c-.33,0-.2.83-.21.85S71,194.49,71,194.49Z"></path>
      <path class="cls-32" d="M69.81,194.07s1.13.67,1.48.33a9.25,9.25,0,0,1,.77-.69l-.08-.26a3.78,3.78,0,0,0-1.12-.14l-.58.34A4.25,4.25,0,0,0,69.81,194.07Z"></path>
      <path class="cls-10" d="M69.72,193.93a.34.34,0,0,0,.49.21,4.49,4.49,0,0,0,.52-.37s.11-1,.15-1.13.11-.24-.29,0-.48.15-.72.48A1.21,1.21,0,0,0,69.72,193.93Z"></path>
      <path class="cls-11" d="M70.73,193.77a5.21,5.21,0,0,0,0-.79c0-.34-.07-.43.22-.53s.84-.55,1.16-.49.3,0,.37.42a1.4,1.4,0,0,1-.22,1,.78.78,0,0,1-.76.52A2.08,2.08,0,0,1,70.73,193.77Z"></path>
      <path class="cls-8" d="M32,196.53a1.77,1.77,0,0,0,1.62-.8c.44-.89.15-1.67-.15-1.74a2.9,2.9,0,0,0-.5,0c-.33,0-.2.82-.21.84S32,196.53,32,196.53Z"></path>
      <path class="cls-32" d="M30.8,196.1s1.13.68,1.48.33.77-.68.77-.68l-.08-.26a3.47,3.47,0,0,0-1.12-.14c-.18.09-.5.3-.58.33A5.59,5.59,0,0,0,30.8,196.1Z"></path>
      <path class="cls-10" d="M30.71,196a.34.34,0,0,0,.49.2,5.2,5.2,0,0,0,.52-.36s.11-1,.15-1.13.11-.24-.29,0-.48.15-.72.48A1.15,1.15,0,0,0,30.71,196Z"></path>
      <path class="cls-11" d="M31.72,195.81a5.23,5.23,0,0,0,0-.79c0-.35-.07-.43.21-.54s.85-.54,1.17-.49.29,0,.37.43a1.38,1.38,0,0,1-.22,1,.78.78,0,0,1-.76.52A2,2,0,0,1,31.72,195.81Z"></path>
      <path class="cls-8" d="M43.1,195.12a2.25,2.25,0,0,0,2.14-.88c.63-1.08.34-2.1,0-2.22a4,4,0,0,0-.64,0c-.42,0-.32,1-.34,1Z"></path>
      <path class="cls-32" d="M41.66,194.48s1.39,1,1.86.55a12.47,12.47,0,0,1,1-.81l-.08-.33a4.72,4.72,0,0,0-1.41-.28c-.24.11-.66.34-.77.38A6.11,6.11,0,0,0,41.66,194.48Z"></path>
      <path class="cls-10" d="M41.56,194.3c.06.14.23.48.6.3a6.61,6.61,0,0,0,.71-.41s.21-1.22.28-1.43.17-.3-.37,0-.62.15-1,.55A1.49,1.49,0,0,0,41.56,194.3Z"></path>
      <path class="cls-11" d="M42.87,194.19a7.31,7.31,0,0,0,.05-1c0-.45-.06-.56.32-.66s1.12-.62,1.52-.53.38.08.44.58a1.78,1.78,0,0,1-.37,1.3,1,1,0,0,1-1,.59A2.59,2.59,0,0,1,42.87,194.19Z"></path>
      <path class="cls-8" d="M51.23,193.54a1.45,1.45,0,0,1,1.33-.2c.64.3.81.82.66,1a1.3,1.3,0,0,1-.3.19c-.2.12-.48-.35-.49-.36Z"></path>
      <path class="cls-32" d="M50.73,194.22s.38-.8.74-.75.76.07.76.07l.07.16s-.46.49-.62.51l-.49,0A3,3,0,0,1,50.73,194.22Z"></path>
      <path class="cls-10" d="M50.73,194.32a.22.22,0,0,1,.2-.29,3.31,3.31,0,0,1,.48,0s.48.47.58.55.17.08-.17.11-.35.11-.64,0A.84.84,0,0,1,50.73,194.32Z"></path>
      <path class="cls-11" d="M51.41,194a4.06,4.06,0,0,1,.34.43c.12.19.14.25.36.2s.74,0,.91-.19.16-.14,0-.37a1,1,0,0,0-.59-.46.65.65,0,0,0-.68,0A1.55,1.55,0,0,0,51.41,194Z"></path>
      <path class="cls-8" d="M63.18,190.18s-2.76-2-5.18-.56-3,3.8-2.32,4.44a9.43,9.43,0,0,0,1.23.76c.81.47,1.75-1.7,1.81-1.72S63.18,190.18,63.18,190.18Z"></path>
      <path class="cls-32" d="M65.33,193s-1.71-3.38-3.08-3.08-2.92.46-2.92.46l-.22.75s1.91,2,2.5,2.07,1.67,0,1.93.09A13.39,13.39,0,0,0,65.33,193Z"></path>
      <path class="cls-10" d="M65.34,193.48c0-.33,0-1.21-.87-1.25a13,13,0,0,0-1.84.07s-1.74,2.16-2.1,2.52-.65.4.69.46,1.39.39,2.48,0A3.44,3.44,0,0,0,65.34,193.48Z"></path>
      <path class="cls-11" d="M62.63,192.3a15.64,15.64,0,0,0-1.19,1.93c-.44.9-.49,1.16-1.35,1s-2.89,0-3.58-.61-.66-.55-.25-1.61a4.07,4.07,0,0,1,2.14-2.17,2.29,2.29,0,0,1,2.65-.09A5.84,5.84,0,0,1,62.63,192.3Z"></path>
      <path class="cls-8" d="M48.5,193.36s-2.25-.41-3.28,1.19-.64,3.16-.07,3.35a6.6,6.6,0,0,0,1,.1c.62,0,.55-1.54.57-1.57S48.5,193.36,48.5,193.36Z"></path>
      <path class="cls-32" d="M50.63,194.43s-2-1.53-2.76-1a19.68,19.68,0,0,1-1.62,1.15l.09.51a6.74,6.74,0,0,0,2.11.5c.37-.14,1-.46,1.19-.51A9.42,9.42,0,0,0,50.63,194.43Z"></path>
      <path class="cls-10" d="M50.77,194.71c-.08-.21-.32-.75-.89-.5a9.65,9.65,0,0,0-1.08.58s-.41,1.81-.52,2.14-.27.43.55.07,1-.18,1.48-.76A2.29,2.29,0,0,0,50.77,194.71Z"></path>
      <path class="cls-11" d="M48.8,194.79a10.37,10.37,0,0,0-.15,1.52c0,.67.05.84-.52,1s-1.73.87-2.33.69-.56-.13-.63-.89a2.67,2.67,0,0,1,.65-1.93,1.52,1.52,0,0,1,1.56-.84A4,4,0,0,1,48.8,194.79Z"></path>
    </g>
  </g>
</svg>
