<?xml version="1.0" encoding="UTF-8"?>
<svg xmlns="http://www.w3.org/2000/svg" xmlns:xlink="http://www.w3.org/1999/xlink" viewBox="0 0 108.59 125.95">
  <defs>
    <style>.cls-1{fill:#8e6848;}.cls-2{fill:url(#Безымянный_градиент_7);}.cls-3{fill:#713e21;}.cls-4{fill:#3d271f;}.cls-5{fill:#69391e;}.cls-6{fill:#6b482f;}.cls-7{fill:#5c3624;}.cls-8{fill:#795135;}.cls-9{fill:#9a734f;}.cls-10{fill:#fff;}.cls-11{fill:#85563a;}.cls-12{fill:#789f5a;}</style>
    <linearGradient id="Безымянный_градиент_7" x1="51.77" y1="163.7" x2="56.86" y2="68.98" gradientUnits="userSpaceOnUse">
      <stop offset="0.38" stop-color="#9b714f"></stop>
      <stop offset="0.91" stop-color="#754427"></stop>
      <stop offset="1" stop-color="#6e3c20"></stop>
    </linearGradient>
  </defs>
  <g id="Слой_2" data-name="Слой 2">
    <g id="Слой_1-2" data-name="Слой 1">
      <path class="cls-1" d="M56.89,60.71s9.49,11.15,16.82,11.6,32.36-7.46,32.36-7.46l2.52-26.06L56.89,20.55Z"></path>
      <path class="cls-1" d="M0,36.94l5.16,34s18.32,2.75,21.53,1.83,17.86-6.41,22-6.41,8.22-5.65,8.22-5.65V20.55Z"></path>
      <polygon class="cls-2" points="7.62 102.76 56.89 125.95 102.47 102.87 55.08 82.79 7.62 102.76"></polygon>
      <path class="cls-3" d="M7.62,102.76,5.16,70.94s23.36-.46,29.77-3.66,22-6.57,22-6.57L55.08,82.79Z"></path>
      <path class="cls-4" d="M40.91,72.92a8.22,8.22,0,0,0-2.79-1.65v0s-3.73-1.11-5.76,1.4-1.69,5.21-.77,5.65a12.53,12.53,0,0,0,1.61.34s.06,0,.09,0a27.07,27.07,0,0,0,3.46-.78,1.56,1.56,0,0,0,.6-.16l.64-.18c1.46-.46,1.64-.13,2.65-1A3.9,3.9,0,0,0,41.72,74a2.19,2.19,0,0,0-.2-.49h0l0,0A1,1,0,0,0,40.91,72.92Z"></path>
      <path class="cls-4" d="M20.91,76.2a10.8,10.8,0,0,0-4,1.3v0s-4.24,2.65-3.54,6.74,3.61,6,4.81,5.53a13.43,13.43,0,0,0,1.69-1.27s0-.09,0-.12c.9-1,1.57-3.12,2.17-4a2.35,2.35,0,0,0,.36-.71c.1-.2.2-.42.36-.78.8-1.79,1.27-1.69,1.28-3.41a5,5,0,0,0-1.52-3.16,2.87,2.87,0,0,0-.65-.22v0h-.08A1.22,1.22,0,0,0,20.91,76.2Z"></path>
      <path class="cls-5" d="M56.89,60.71,55.08,82.79l47.39,20.08,3.6-38s-14.78-1.7-21.19-.78S67.3,67.73,63.94,65.9A44.21,44.21,0,0,1,56.89,60.71Z"></path>
      <path class="cls-4" d="M38.84,83.4a3.33,3.33,0,0,0-1.23-.31h0a2.27,2.27,0,0,0-2,1.17c-.48,1.17-.05,2.15.34,2.21a4.34,4.34,0,0,0,.65,0s0,0,0,0a11.12,11.12,0,0,0,1.21-.68.46.46,0,0,0,.2-.13l.22-.14c.5-.33.61-.23.89-.67a1.53,1.53,0,0,0,.12-1.06,1.55,1.55,0,0,0-.13-.17h0A.34.34,0,0,0,38.84,83.4Z"></path>
      <path class="cls-4" d="M85.27,73.89a2.25,2.25,0,0,0-.11-.88h0s-.37-1-1.25-1-1.41.49-1.35.77a2.26,2.26,0,0,0,.19.4s0,0,0,0a9,9,0,0,0,.74.62.54.54,0,0,0,.14.11l.14.1c.34.24.3.34.66.41a1,1,0,0,0,.72-.18.76.76,0,0,0,.07-.13h0A.26.26,0,0,0,85.27,73.89Z"></path>
      <path class="cls-4" d="M98.51,89.85a10.81,10.81,0,0,0-1.88-3.76h0s-3.27-3.85-7.25-2.56-5.52,4.47-4.82,5.6a14.91,14.91,0,0,0,1.5,1.51s.1,0,.14,0c1.17.76,3.34,1.12,4.31,1.6a2.29,2.29,0,0,0,.76.25l.83.25c1.9.54,1.87,1,3.58.78a5.08,5.08,0,0,0,2.94-2,3.16,3.16,0,0,0,.13-.68h0l0-.08A1.23,1.23,0,0,0,98.51,89.85Z"></path>
      <path class="cls-4" d="M72.75,76.75a8.36,8.36,0,0,0-1.83,2.65l0,0s-1.38,3.62.95,5.82,5,2,5.54,1.17a10.63,10.63,0,0,0,.45-1.56s0-.06,0-.1a28.57,28.57,0,0,0-.52-3.48,1.69,1.69,0,0,0-.11-.6c0-.17-.07-.36-.14-.65-.34-1.48,0-1.64-.79-2.7A3.89,3.89,0,0,0,73.84,76a2.4,2.4,0,0,0-.51.16h0l0,0A1,1,0,0,0,72.75,76.75Z"></path>
      <path class="cls-6" d="M72.93,103.75a1.57,1.57,0,0,0,1.55-.41c.53-.69.42-1.41.17-1.53-.07,0-.29,0-.43-.08s-.32.68-.33.69Z"></path>
      <path class="cls-7" d="M72,103.18s.87.78,1.23.54.78-.45.78-.45l0-.24a3.2,3.2,0,0,0-.94-.32c-.18.05-.49.17-.56.19A3.4,3.4,0,0,0,72,103.18Z"></path>
      <path class="cls-8" d="M72,103c0,.1.12.36.39.27a4.09,4.09,0,0,0,.52-.22s.26-.82.32-1,.14-.19-.25,0-.44,0-.71.28A1.08,1.08,0,0,0,72,103Z"></path>
      <path class="cls-9" d="M72.86,103.09a4.37,4.37,0,0,0,.12-.69c0-.31,0-.39.28-.42s.83-.33,1.1-.22.25.08.25.43a1.26,1.26,0,0,1-.38.86.69.69,0,0,1-.75.31A1.86,1.86,0,0,1,72.86,103.09Z"></path>
      <path class="cls-6" d="M62.4,97.71s2.36.12,3.2-1.65.25-3.31-.36-3.44a9.11,9.11,0,0,0-1,0c-.65,0-.37,1.65-.39,1.68S62.4,97.71,62.4,97.71Z"></path>
      <path class="cls-7" d="M60.08,96.9s2.27,1.3,3,.6,1.51-1.38,1.51-1.38l-.16-.51a7,7,0,0,0-2.23-.24c-.36.19-1,.61-1.15.68A9.07,9.07,0,0,0,60.08,96.9Z"></path>
      <path class="cls-8" d="M59.9,96.63c.11.2.43.72,1,.39a9.34,9.34,0,0,0,1-.74s.18-1.91.25-2.25.23-.48-.57,0-1,.31-1.42,1A2.39,2.39,0,0,0,59.9,96.63Z"></path>
      <path class="cls-9" d="M61.91,96.28a10.79,10.79,0,0,0,0-1.57c-.09-.68-.16-.85.41-1.06s1.66-1.12,2.29-1,.59.06.76.83a2.78,2.78,0,0,1-.41,2.06,1.55,1.55,0,0,1-1.49,1.06A4.1,4.1,0,0,1,61.91,96.28Z"></path>
      <path class="cls-6" d="M52.58,105.37s1.84,1.39,3.49.42,2-2.54,1.59-3a5.89,5.89,0,0,0-.82-.53c-.54-.32-1.19,1.13-1.23,1.15S52.58,105.37,52.58,105.37Z"></path>
      <path class="cls-7" d="M51.15,103.44s1.12,2.3,2.05,2.11,2-.29,2-.29l.15-.5s-1.28-1.38-1.67-1.42-1.13,0-1.3-.07A7.8,7.8,0,0,0,51.15,103.44Z"></path>
      <path class="cls-8" d="M51.15,103.13c0,.22,0,.81.57.85A9.81,9.81,0,0,0,53,104s1.19-1.45,1.44-1.69.44-.26-.46-.31-.94-.27-1.68,0A2.33,2.33,0,0,0,51.15,103.13Z"></path>
      <path class="cls-9" d="M53,104a9.8,9.8,0,0,0,.82-1.3c.3-.6.34-.78.92-.64s1.95,0,2.41.44.44.38.16,1.09A2.78,2.78,0,0,1,55.8,105,1.53,1.53,0,0,1,54,105,4,4,0,0,1,53,104Z"></path>
      <path class="cls-6" d="M48.34,99a2.62,2.62,0,0,0,.1-2.69c-.85-1.19-2.08-1.37-2.38-1a5.58,5.58,0,0,0-.34.66c-.22.44.94.84,1,.87S48.34,99,48.34,99Z"></path>
      <path class="cls-7" d="M47,100.24s1.68-1,1.47-1.7a14.67,14.67,0,0,1-.35-1.49L47.7,97s-1,1.07-1,1.37,0,.87,0,1A7.19,7.19,0,0,0,47,100.24Z"></path>
      <path class="cls-8" d="M46.73,100.26c.17,0,.63,0,.61-.49a6.49,6.49,0,0,0-.1-1s-1.19-.81-1.38-1-.24-.32-.22.37-.14.73.12,1.28A1.75,1.75,0,0,0,46.73,100.26Z"></path>
      <path class="cls-9" d="M47.24,98.82a10,10,0,0,0-1.05-.54c-.48-.19-.61-.21-.55-.65s-.12-1.49.18-1.87.26-.36.82-.19a2.06,2.06,0,0,1,1.2,1A1.19,1.19,0,0,1,48,98,3,3,0,0,1,47.24,98.82Z"></path>
      <path class="cls-6" d="M40,101a1.15,1.15,0,0,0,.38-1.11c-.19-.6-.68-.83-.85-.72a1.64,1.64,0,0,0-.23.23c-.14.15.29.46.29.48S40,101,40,101Z"></path>
      <path class="cls-7" d="M39.27,101.34s.82-.21.82-.52,0-.66,0-.66l-.15-.09s-.54.32-.58.44-.09.37-.12.42A3.18,3.18,0,0,0,39.27,101.34Z"></path>
      <path class="cls-8" d="M39.16,101.31c.08,0,.27.08.32-.12a2.44,2.44,0,0,0,.08-.41s-.39-.49-.45-.58,0-.17-.13.12-.16.29-.12.55A.77.77,0,0,0,39.16,101.31Z"></path>
      <path class="cls-9" d="M39.56,100.78a4.14,4.14,0,0,0-.36-.35c-.18-.15-.23-.17-.15-.35s.14-.63.31-.75.16-.12.37,0a.89.89,0,0,1,.36.57.51.51,0,0,1-.11.59A1.39,1.39,0,0,1,39.56,100.78Z"></path>
      <path class="cls-6" d="M37.43,105.61s1.62-2.6.13-4.66S34,98.6,33.44,99.21a8.53,8.53,0,0,0-.59,1.15c-.37.76,1.64,1.44,1.66,1.49Z"></path>
      <path class="cls-7" d="M35.06,107.74s2.9-1.77,2.53-3-.62-2.58-.62-2.58l-.68-.14s-1.67,1.86-1.67,2.39.08,1.49.06,1.72A11.91,11.91,0,0,0,35.06,107.74Z"></path>
      <path class="cls-8" d="M34.64,107.78c.31,0,1.09,0,1.06-.86a11.89,11.89,0,0,0-.19-1.64s-2.06-1.4-2.4-1.7-.41-.55-.36.65-.25,1.27.21,2.22A3.07,3.07,0,0,0,34.64,107.78Z"></path>
      <path class="cls-9" d="M35.51,105.28a13.54,13.54,0,0,0-1.81-.92c-.84-.33-1.07-.36-1-1.14s-.22-2.57.29-3.23.44-.63,1.41-.35a3.64,3.64,0,0,1,2.09,1.76,2,2,0,0,1,.27,2.35A5.18,5.18,0,0,1,35.51,105.28Z"></path>
      <path class="cls-10" d="M55.72,55.35c.74.07,1.1-.36,1.32-1a12.82,12.82,0,0,1,.38,1.6c.17,1.7.32,3.4.42,5.1a2.77,2.77,0,0,0,.95,2,7.31,7.31,0,0,1,1.51,2c1.3,2.68,3,4.8,6.11,5.46.15,0,.26.25.38.39-.19.1-.41.33-.59.3a7.84,7.84,0,0,1-5.55-3.58c-.57-.87-1-1.81-1.59-2.69a5.46,5.46,0,0,0-1-.85,8.71,8.71,0,0,0,0,1.39C59,71,57.54,76.19,55.68,81.31c0,.13-.23.21-.35.31-.16-.2-.48-.43-.45-.6.14-.84.38-1.66.59-2.48a30.92,30.92,0,0,0,1.43-8.37,6.37,6.37,0,0,0-.26-1.1,19.54,19.54,0,0,0-2.5,6.29,5.54,5.54,0,0,1-.16.83c0,.13-.25.3-.36.28s-.43-.17-.44-.29A6.45,6.45,0,0,1,53.07,74c.38-1.46,1-2.86,1.47-4.29.16-.44.35-.87.51-1.27-.48-.62-.88-.18-1.25,0-1,.52-2,1.11-3,1.6-1.81.86-3.65,1.65-4.69,3.63a6.72,6.72,0,0,1,.41-1.51,6.39,6.39,0,0,1,2.77-2.37c1.49-.84,3-1.59,4.48-2.48,2.54-1.56,2.75-2.27,2.39-5.16C55.87,59.89,55.85,57.62,55.72,55.35Z"></path>
      <polygon class="cls-11" points="0 36.94 56.89 60.71 108.59 38.79 56.89 20.55 0 36.94"></polygon>
      <path class="cls-12" d="M53.56,37c-.23-2.83-.46-5.67-.7-8.5-.12-1.32-.47-1.67-1.81-1.54-1.79.16-3.58.4-5.35.69a11.66,11.66,0,0,1-6.39-.84A5.55,5.55,0,0,1,36.26,24c-.76-1.51-1.63-3-2.51-4.52a5,5,0,0,1,3.57-1.19,19.13,19.13,0,0,1,13,4c.58.44,1.1,1,1.58,1.38.69-.22.53-.67.54-1,0-1.71,0-3.41,0-5.12,0-.64-.37-.88-.89-.59s-1.13.69-1.71,1A1.44,1.44,0,0,1,48,17.7a6.86,6.86,0,0,1-1.59-7.35A10.56,10.56,0,0,1,50.94,5a28.07,28.07,0,0,1,3.25-1.73c2.13-1,4.28-2,6.42-3,.44-.21,1-.43,1.27,0a2.09,2.09,0,0,1,.17,1.32,7.79,7.79,0,0,1-.48,1.32A9.6,9.6,0,0,0,62,10.36a9.37,9.37,0,0,1,.83,2.1c.35,1.63-.21,2.57-1.85,2.93s-3.54.6-5.31.88c-.28,0-.57,0-.85.07a.85.85,0,0,0-.79,1c0,1.31.06,2.61.09,4.19,1.34-.49,1.88-1.59,2.8-2.14a19.57,19.57,0,0,1,3-1.55A16.17,16.17,0,0,1,63.23,17a18.46,18.46,0,0,1,3.4-.23,24.17,24.17,0,0,1,3.38.41,8.5,8.5,0,0,1,3.16,1.09c-2,1.84-3.93,3.54-5.81,5.26a12.43,12.43,0,0,1-9.65,3.34c-3.84-.29-3.57.12-3.4,3.5.1,1.89.38,3.77.57,5.65C54.66,36.6,54.3,37,53.56,37Z"></path>
      <path class="cls-6" d="M53.44,46.69a1.58,1.58,0,0,0-1.51-.56c-.84.26-1.17.92-1,1.16a3,3,0,0,0,.31.32c.21.2.65-.38.67-.38Z"></path>
      <path class="cls-7" d="M53.87,47.7s-.26-1.15-.69-1.16a8.8,8.8,0,0,1-.91-.08l-.12.21s.42.75.59.81l.57.17A4.58,4.58,0,0,0,53.87,47.7Z"></path>
      <path class="cls-8" d="M53.84,47.84c0-.1.11-.36-.17-.44a3,3,0,0,0-.55-.12s-.69.52-.82.6-.23.07.17.19.39.22.75.17A1,1,0,0,0,53.84,47.84Z"></path>
      <path class="cls-9" d="M53.12,47.28a3.81,3.81,0,0,0-.5.49c-.2.24-.24.31-.48.19s-.87-.21-1-.45-.16-.21,0-.5a1.29,1.29,0,0,1,.81-.49.7.7,0,0,1,.8.17A1.83,1.83,0,0,1,53.12,47.28Z"></path>
      <path class="cls-6" d="M50,27.31A2.32,2.32,0,0,0,47.66,27c-1.12.63-1.39,1.68-1.11,2a4.55,4.55,0,0,0,.54.36c.36.23.82-.74.85-.75Z"></path>
      <path class="cls-7" d="M50.93,28.62s-.72-1.56-1.34-1.44-1.34.16-1.34.16l-.11.34s.84.94,1.11,1,.75,0,.87.07A6.38,6.38,0,0,0,50.93,28.62Z"></path>
      <path class="cls-8" d="M50.93,28.84c0-.15,0-.55-.37-.58a5.06,5.06,0,0,0-.84,0s-.82.95-1,1.11-.3.17.31.22.62.19,1.12,0A1.56,1.56,0,0,0,50.93,28.84Z"></path>
      <path class="cls-9" d="M49.72,28.26a8.41,8.41,0,0,0-.57.86c-.21.4-.24.52-.62.41s-1.31,0-1.61-.33-.3-.26-.1-.73a1.82,1.82,0,0,1,1-.95,1,1,0,0,1,1.2,0A2.76,2.76,0,0,1,49.72,28.26Z"></path>
      <path class="cls-6" d="M45.37,34.42S40.54,32,37.17,35s-3.54,6.72-2.38,7.53a16,16,0,0,0,2.11.85c1.39.51,2.26-3.12,2.34-3.17S45.37,34.42,45.37,34.42Z"></path>
      <path class="cls-7" d="M49.49,38.23s-3.58-4.8-5.62-4-4.42,1.52-4.42,1.52L39.31,37s3.52,2.62,4.45,2.54,2.61-.39,3-.39A21.93,21.93,0,0,0,49.49,38.23Z"></path>
      <path class="cls-8" d="M49.63,39c-.05-.53-.25-1.9-1.69-1.71a20.77,20.77,0,0,0-2.84.61S43,41.68,42.52,42.34s-.9.8,1.19.53,2.27.22,3.86-.74A5.43,5.43,0,0,0,49.63,39Z"></path>
      <path class="cls-9" d="M45.1,37.85a23.82,23.82,0,0,0-1.32,3.33c-.44,1.52-.46,1.93-1.84,1.86s-4.48.82-5.72,0-1.18-.66-.83-2.43,1.15-2.59,2.73-4a3.59,3.59,0,0,1,4.09-.86A9.31,9.31,0,0,1,45.1,37.85Z"></path>
      <path class="cls-6" d="M62.05,35.43s-4-2.38-7.15,0S51.43,41,52.38,41.79a13,13,0,0,0,1.78.86c1.18.53,2.15-2.56,2.22-2.6S62.05,35.43,62.05,35.43Z"></path>
      <path class="cls-7" d="M65.4,39s-2.82-4.37-4.64-3.77-3.93,1-3.93,1l-.2,1.05s2.91,2.49,3.72,2.47,2.29-.17,2.64-.15A18.2,18.2,0,0,0,65.4,39Z"></path>
      <path class="cls-8" d="M65.47,39.63c0-.47-.09-1.67-1.36-1.59a17.37,17.37,0,0,0-2.5.35s-2.06,3.2-2.51,3.74-.83.65,1,.54,2,.32,3.4-.41A4.74,4.74,0,0,0,65.47,39.63Z"></path>
      <path class="cls-9" d="M61.61,38.39a21.44,21.44,0,0,0-1.35,2.81c-.47,1.29-.51,1.66-1.7,1.51s-3.94.44-5-.32-1-.65-.58-2.16,1.16-2.18,2.62-3.27a3.11,3.11,0,0,1,3.59-.5A8,8,0,0,1,61.61,38.39Z"></path>
      <path class="cls-6" d="M72.77,31.16s-4-3.08-7.62-1-4.45,5.52-3.54,6.48a14.52,14.52,0,0,0,1.79,1.15c1.18.72,2.63-2.44,2.71-2.48S72.77,31.16,72.77,31.16Z"></path>
      <path class="cls-7" d="M75.85,35.39s-2.41-5-4.43-4.64-4.33.6-4.33.6l-.35,1.09s2.76,3,3.63,3.13,2.46.12,2.84.19A19.45,19.45,0,0,0,75.85,35.39Z"></path>
      <path class="cls-8" d="M75.85,36.08c.05-.49.12-1.78-1.24-1.87a19.2,19.2,0,0,0-2.71,0s-2.63,3.13-3.18,3.65-1,.57,1,.7,2,.61,3.67,0A5.06,5.06,0,0,0,75.85,36.08Z"></path>
      <path class="cls-9" d="M71.9,34.25a22.77,22.77,0,0,0-1.81,2.81c-.68,1.32-.77,1.7-2,1.38s-4.26-.06-5.25-1-1-.83-.33-2.38,1.53-2.17,3.23-3.13a3.35,3.35,0,0,1,3.9-.05A8.73,8.73,0,0,1,71.9,34.25Z"></path>
      <path class="cls-6" d="M75.86,44.06A2.4,2.4,0,0,0,78.07,43c.6-1.2.21-2.27-.2-2.36a4.08,4.08,0,0,0-.69,0c-.44,0-.26,1.12-.28,1.15S75.86,44.06,75.86,44.06Z"></path>
      <path class="cls-7" d="M74.28,43.48s1.55.91,2,.45S77.35,43,77.35,43l-.11-.35a4.93,4.93,0,0,0-1.53-.19c-.25.13-.68.41-.79.46A5.61,5.61,0,0,0,74.28,43.48Z"></path>
      <path class="cls-8" d="M74.16,43.29c.07.14.28.5.66.28a6.8,6.8,0,0,0,.72-.49s.14-1.31.2-1.55.16-.33-.4,0-.65.2-1,.65A1.62,1.62,0,0,0,74.16,43.29Z"></path>
      <path class="cls-9" d="M75.54,43.08a6.78,6.78,0,0,0,0-1.08c0-.47-.1-.59.3-.73s1.15-.75,1.58-.67.4,0,.51.58a1.91,1.91,0,0,1-.3,1.41,1.08,1.08,0,0,1-1,.71A2.8,2.8,0,0,1,75.54,43.08Z"></path>
      <path class="cls-6" d="M37.87,44.92s2.05.28,2.91-1.2.46-2.88-.06-3a6.58,6.58,0,0,0-.87,0c-.57,0-.44,1.41-.46,1.44S37.87,44.92,37.87,44.92Z"></path>
      <path class="cls-7" d="M35.9,44s1.89,1.3,2.53.75,1.42-1.1,1.42-1.1l-.1-.46a6.11,6.11,0,0,0-1.93-.37c-.33.14-.9.46-1,.51A7.67,7.67,0,0,0,35.9,44Z"></path>
      <path class="cls-8" d="M35.76,43.79c.09.19.33.66.83.42a8.19,8.19,0,0,0,.95-.57s.3-1.65.39-2,.23-.4-.5,0-.85.2-1.31.74A2.1,2.1,0,0,0,35.76,43.79Z"></path>
      <path class="cls-9" d="M37.54,43.64a10.22,10.22,0,0,0,.08-1.37c0-.61-.08-.76.43-.91s1.53-.84,2.08-.71.51.1.6.78a2.45,2.45,0,0,1-.51,1.77,1.39,1.39,0,0,1-1.38.82A3.72,3.72,0,0,1,37.54,43.64Z"></path>
      <path class="cls-6" d="M51.23,37.29a1.79,1.79,0,0,0,1.8.31c.88-.46,1.12-1.26.91-1.5a3.46,3.46,0,0,0-.41-.29c-.28-.19-.66.55-.68.56Z"></path>
      <path class="cls-7" d="M50.54,36.25s.52,1.23,1,1.15,1-.1,1-.1l.09-.25s-.62-.75-.83-.78-.58-.06-.67-.08A4.65,4.65,0,0,0,50.54,36.25Z"></path>
      <path class="cls-8" d="M50.54,36.09c0,.11,0,.42.28.46a4.86,4.86,0,0,0,.65,0s.65-.72.79-.83.24-.13-.23-.18-.48-.17-.88,0A1.2,1.2,0,0,0,50.54,36.09Z"></path>
      <path class="cls-9" d="M51.47,36.56a5.06,5.06,0,0,0,.45-.65c.18-.3.2-.39.5-.31s1,.06,1.24.3.22.2.05.57a1.39,1.39,0,0,1-.8.71.8.8,0,0,1-.93,0A2.15,2.15,0,0,1,51.47,36.56Z"></path>
      <path class="cls-6" d="M67.47,44.15s4.54,1.11,6.81-2,1.69-6.34.56-6.81A13.12,13.12,0,0,0,72.9,35c-1.27-.17-1.31,3-1.36,3.11S67.47,44.15,67.47,44.15Z"></path>
      <path class="cls-7" d="M63.27,41.74s3.94,3.35,5.5,2.25,3.43-2.13,3.43-2.13l-.12-1.06s-3.47-1.52-4.24-1.28-2.12.83-2.47.91A18.06,18.06,0,0,0,63.27,41.74Z"></path>
      <path class="cls-8" d="M63,41.15c.14.44.57,1.55,1.75,1.12A18.42,18.42,0,0,0,67,41.21s1-3.64,1.31-4.28.61-.85-1.11-.22-1.95.25-3.1,1.37A4.67,4.67,0,0,0,63,41.15Z"></path>
      <path class="cls-9" d="M67,41.21a20.8,20.8,0,0,0,.47-3.06c.08-1.36,0-1.72,1.19-1.93s3.62-1.55,4.82-1.12,1.12.34,1.17,1.89-.47,2.4-1.55,3.86a3.12,3.12,0,0,1-3.28,1.51A8.1,8.1,0,0,1,67,41.21Z"></path>
      <path class="cls-6" d="M46.57,41.53s2.72,1.53,4.75-.07,2.24-3.78,1.59-4.28a8.1,8.1,0,0,0-1.19-.55c-.79-.34-1.39,1.73-1.44,1.76S46.57,41.53,46.57,41.53Z"></path>
      <path class="cls-7" d="M44.3,39.22s1.93,2.87,3.13,2.44,2.6-.75,2.6-.75l.12-.7s-2-1.61-2.51-1.59-1.51.14-1.75.14A11.86,11.86,0,0,0,44.3,39.22Z"></path>
      <path class="cls-8" d="M44.24,38.79c0,.31.09,1.11.93,1a12.7,12.7,0,0,0,1.66-.27s1.32-2.15,1.61-2.52.55-.44-.67-.34-1.3-.19-2.25.32A3.14,3.14,0,0,0,44.24,38.79Z"></path>
      <path class="cls-9" d="M46.83,39.56a13.83,13.83,0,0,0,.85-1.89c.3-.86.32-1.1,1.12-1s2.61-.35,3.3.14.66.43.42,1.43a3.73,3.73,0,0,1-1.7,2.21,2.07,2.07,0,0,1-2.38.38A5.34,5.34,0,0,1,46.83,39.56Z"></path>
    </g>
  </g>
</svg>
