<?xml version="1.0" encoding="UTF-8"?>
<svg xmlns="http://www.w3.org/2000/svg" xmlns:xlink="http://www.w3.org/1999/xlink" viewBox="0 0 116.87 180.3">
  <defs>
    <style>.cls-1,.cls-19,.cls-21,.cls-22,.cls-27,.cls-28,.cls-29{fill:none;}.cls-2{fill:#8e6848;}.cls-3{clip-path:url(#clip-path);}.cls-4{fill:url(#Безымянный_градиент_2);}.cls-5{fill:#713e21;}.cls-6{fill:#3d271f;}.cls-7{fill:#69391e;}.cls-8{fill:#6b472f;}.cls-9{fill:#5c3624;}.cls-10{fill:#795135;}.cls-11{fill:#9a734f;}.cls-12{fill:#deebdd;}.cls-13{fill:#85563a;}.cls-14{fill:#e6f5b2;}.cls-15{fill:#bce27d;}.cls-16{fill:#a8d459;}.cls-17{fill:#81b651;}.cls-18{fill:#93c63e;}.cls-19,.cls-21,.cls-22,.cls-27,.cls-28,.cls-29{stroke:#3f6c3e;stroke-miterlimit:10;}.cls-19{stroke-width:0.36px;}.cls-20{fill:#3f6c3e;}.cls-21{stroke-width:0.09px;}.cls-22{stroke-width:0.27px;}.cls-23{fill:#a8d45c;}.cls-24{fill:#cfe77d;}.cls-25{fill:#9ecb3f;}.cls-26{fill:#e3f4ad;}.cls-27{stroke-width:0.3px;}.cls-28{stroke-width:0.15px;}.cls-29{stroke-width:0.22px;}.cls-30{fill:#6b482f;}</style>
    <clipPath id="clip-path">
      <polygon class="cls-1" points="7.72 151.63 57.69 175.15 103.91 151.74 55.86 131.38 7.72 151.63"></polygon>
    </clipPath>
    <linearGradient id="Безымянный_градиент_2" x1="-3159.39" y1="-354.51" x2="-3156.59" y2="-354.51" gradientTransform="matrix(34.36, 0, 0, -34.36, 108540.96, -12026.23)" gradientUnits="userSpaceOnUse">
      <stop offset="0" stop-color="#9b714e"></stop>
      <stop offset="0.38" stop-color="#9b714e"></stop>
      <stop offset="0.89" stop-color="#764528"></stop>
      <stop offset="1" stop-color="#6e3c20"></stop>
    </linearGradient>
  </defs>
  <g id="Слой_2" data-name="Слой 2">
    <g id="Слой_1-2" data-name="Слой 1">
      <path class="cls-2" d="M57.69,109s9.62,11.3,17.06,11.77,32.81-7.57,32.81-7.57l2.56-26.43L57.69,68.27Z"></path>
      <path class="cls-2" d="M0,84.89l5.23,34.47s18.58,2.79,21.83,1.86,18.12-6.5,22.29-6.5S57.69,109,57.69,109V68.27Z"></path>
      <g class="cls-3">
        <rect class="cls-4" x="31.38" y="104.06" width="48.87" height="98.4" transform="translate(-100.22 200.77) rotate(-86.92)"></rect>
      </g>
      <path class="cls-5" d="M7.72,151.63,5.23,119.36s23.69-.46,30.19-3.72S57.69,109,57.69,109l-1.83,22.39Z"></path>
      <path class="cls-6" d="M41.49,121.37a8.4,8.4,0,0,0-2.84-1.67l0,0s-3.79-1.13-5.85,1.41-1.71,5.29-.77,5.73a10.92,10.92,0,0,0,1.63.35l.09,0a28.27,28.27,0,0,0,3.51-.79,1.76,1.76,0,0,0,.6-.16l.65-.19c1.49-.46,1.67-.13,2.69-1a3.94,3.94,0,0,0,1.09-2.54l-.21-.51h0l0,0a1,1,0,0,0-.58-.5"></path>
      <path class="cls-6" d="M21.2,124.69a11,11,0,0,0-4,1.33v0s-4.3,2.7-3.59,6.84,3.66,6.13,4.88,5.6a13.64,13.64,0,0,0,1.71-1.28l0-.13c.92-1.05,1.59-3.16,2.21-4.05a2,2,0,0,0,.35-.72c.11-.2.21-.42.38-.79.8-1.82,1.28-1.71,1.29-3.46a5.12,5.12,0,0,0-1.54-3.21,3.36,3.36,0,0,0-.66-.22v0h-.08a1.26,1.26,0,0,0-1,.13"></path>
      <path class="cls-7" d="M57.69,109l-1.83,22.39,48.06,20.36,3.64-38.55s-15-1.73-21.48-.8-17.84,3.72-21.24,1.86A44.41,44.41,0,0,1,57.69,109"></path>
      <path class="cls-6" d="M39.39,132a3.28,3.28,0,0,0-1.26-.3h0a2.29,2.29,0,0,0-2,1.18c-.49,1.19-.05,2.18.35,2.24l.65-.06,0,0a12.3,12.3,0,0,0,1.23-.69l.21-.13.22-.14c.51-.34.61-.24.9-.69a1.56,1.56,0,0,0,.12-1.07l-.13-.17h0Z"></path>
      <path class="cls-6" d="M86.47,122.36a2.35,2.35,0,0,0-.11-.9h0s-.38-1-1.27-1-1.43.51-1.38.78l.2.41,0,0,.75.63.13.1.15.11c.35.24.3.34.66.41a1.08,1.08,0,0,0,.74-.18l.07-.13h0v-.22Z"></path>
      <path class="cls-6" d="M99.89,138.54a11,11,0,0,0-1.9-3.82h0s-3.32-3.9-7.36-2.59-5.59,4.53-4.88,5.68a14.36,14.36,0,0,0,1.52,1.52l.14,0c1.19.77,3.39,1.13,4.37,1.61a2.24,2.24,0,0,0,.77.26c.22.07.45.15.84.26,1.93.54,1.9,1,3.64.79a5.19,5.19,0,0,0,3-2,3.74,3.74,0,0,0,.13-.68h0l0-.07a1.27,1.27,0,0,0-.28-1"></path>
      <path class="cls-6" d="M73.78,125.25a8.59,8.59,0,0,0-1.87,2.69l0,0s-1.4,3.67,1,5.9S78,135.91,78.48,135a12.49,12.49,0,0,0,.46-1.59l0-.09a27.75,27.75,0,0,0-.52-3.54,1.77,1.77,0,0,0-.12-.61c0-.17-.07-.35-.13-.66-.35-1.49,0-1.65-.81-2.73a4,4,0,0,0-2.44-1.27l-.51.17h0l0,0a.94.94,0,0,0-.54.53"></path>
      <path class="cls-8" d="M74,152.63a1.58,1.58,0,0,0,1.57-.41c.54-.7.43-1.44.17-1.55l-.44-.09c-.29,0-.32.7-.33.71Z"></path>
      <path class="cls-9" d="M73,152.05s.87.79,1.23.55.8-.46.8-.46l0-.24-1-.32-.56.19Z"></path>
      <path class="cls-10" d="M73,151.92c0,.1.12.36.4.27s.52-.23.52-.23l.33-1c.06-.14.14-.19-.25-.06s-.45,0-.72.3a1.07,1.07,0,0,0-.28.69"></path>
      <path class="cls-11" d="M73.88,152a5.57,5.57,0,0,0,.13-.7c0-.3,0-.39.28-.42s.84-.34,1.11-.23.26.09.26.44a1.28,1.28,0,0,1-.39.87.7.7,0,0,1-.75.32,1.87,1.87,0,0,1-.64-.28"></path>
      <path class="cls-8" d="M63.28,146.51s2.39.12,3.24-1.67.26-3.36-.36-3.49a7.39,7.39,0,0,0-1,0c-.66,0-.37,1.67-.39,1.7Z"></path>
      <path class="cls-9" d="M60.93,145.68s2.3,1.32,3,.62,1.53-1.4,1.53-1.4l-.15-.52a7.53,7.53,0,0,0-2.27-.25c-.36.2-1,.62-1.16.69Z"></path>
      <path class="cls-10" d="M60.74,145.41c.11.21.43.73,1,.4a8.38,8.38,0,0,0,1.05-.75s.18-1.94.26-2.28.22-.49-.58,0-1,.31-1.44,1a2.41,2.41,0,0,0-.28,1.66"></path>
      <path class="cls-11" d="M62.78,145.06a11.07,11.07,0,0,0-.05-1.59c-.09-.69-.16-.87.42-1.08s1.68-1.13,2.32-1,.6.07.77.84a2.88,2.88,0,0,1-.41,2.1,1.59,1.59,0,0,1-1.52,1.07,4,4,0,0,1-1.53-.31"></path>
      <path class="cls-8" d="M53.32,154.27s1.86,1.42,3.54.43,2-2.58,1.62-3a7,7,0,0,0-.84-.53c-.55-.33-1.21,1.15-1.25,1.17Z"></path>
      <path class="cls-9" d="M51.86,152.32s1.15,2.33,2.08,2.14,2-.3,2-.3l.16-.5s-1.29-1.4-1.7-1.44-1.14-.05-1.32-.08Z"></path>
      <path class="cls-10" d="M51.86,152c0,.23,0,.83.59.87a10.13,10.13,0,0,0,1.26,0l1.46-1.71c.25-.25.45-.27-.47-.33s-1-.27-1.7,0A2.35,2.35,0,0,0,51.86,152"></path>
      <path class="cls-11" d="M53.71,152.84a11.63,11.63,0,0,0,.83-1.32c.3-.61.35-.79.93-.65s2,0,2.44.45.45.38.17,1.1a2.85,2.85,0,0,1-1.49,1.47,1.58,1.58,0,0,1-1.81,0,4.06,4.06,0,0,1-1.07-1.09"></path>
      <path class="cls-8" d="M49,147.84a2.67,2.67,0,0,0,.1-2.73c-.86-1.21-2.11-1.39-2.41-1l-.35.68c-.22.44,1,.84,1,.87Z"></path>
      <path class="cls-9" d="M47.63,149.07s1.7-1,1.49-1.72a15.08,15.08,0,0,1-.35-1.51l-.4-.09s-1,1.08-1,1.39,0,.87,0,1Z"></path>
      <path class="cls-10" d="M47.39,149.1c.18,0,.63,0,.62-.51a7.72,7.72,0,0,0-.11-1l-1.4-1c-.2-.17-.23-.32-.21.38s-.15.74.12,1.3a1.79,1.79,0,0,0,1,.79"></path>
      <path class="cls-11" d="M47.9,147.64a8.8,8.8,0,0,0-1.06-.55c-.49-.19-.62-.21-.55-.67s-.13-1.51.17-1.89.26-.37.84-.2a2.16,2.16,0,0,1,1.21,1,1.18,1.18,0,0,1,.15,1.38,3,3,0,0,1-.76.89"></path>
      <path class="cls-8" d="M40.56,149.85a1.17,1.17,0,0,0,.38-1.12c-.2-.61-.69-.84-.86-.73l-.23.23.29.49Z"></path>
      <path class="cls-9" d="M39.82,150.18s.83-.2.84-.52,0-.67,0-.67l-.15-.09-.58.45-.12.42Z"></path>
      <path class="cls-10" d="M39.71,150.16,40,150l.08-.41-.46-.59c-.06-.1,0-.16-.13.13s-.16.29-.12.55a.77.77,0,0,0,.3.45"></path>
      <path class="cls-11" d="M40.12,149.62l-.37-.36-.15-.35.32-.76.37,0a.92.92,0,0,1,.37.58.51.51,0,0,1-.12.59Z"></path>
      <path class="cls-8" d="M38,154.52s1.64-2.63.13-4.72-3.65-2.39-4.18-1.77a8.62,8.62,0,0,0-.6,1.16c-.37.77,1.66,1.46,1.69,1.51Z"></path>
      <path class="cls-9" d="M35.56,156.68s2.94-1.8,2.56-3-.63-2.61-.63-2.61l-.69-.15s-1.69,1.88-1.69,2.42.08,1.51.06,1.75Z"></path>
      <path class="cls-10" d="M35.13,156.72c.31,0,1.1,0,1.07-.88a12.44,12.44,0,0,0-.19-1.66s-2.09-1.41-2.44-1.72-.41-.56-.36.66-.25,1.29.21,2.25a3.15,3.15,0,0,0,1.71,1.35"></path>
      <path class="cls-11" d="M36,154.18a14.22,14.22,0,0,0-1.84-.93c-.85-.33-1.08-.37-1-1.16s-.23-2.61.29-3.27.45-.64,1.44-.35a3.69,3.69,0,0,1,2.12,1.78,2.07,2.07,0,0,1,.27,2.39A5.38,5.38,0,0,1,36,154.18"></path>
      <path class="cls-12" d="M55.58,102.8c-.58,1-1.43-.27-2,.58s.92,5.07,1.94,7.58c.54,1.34,2.2,10.2,1.47,12.5A30.62,30.62,0,0,0,55.42,130c0,1.25.15,5.76.76,5s.37-3.39.59-5.46c.12-1.07,1.47-4.19,1.82-6.26.65-3.78-.23-9.52-1.22-13.24C56.62,107.24,56.11,105.58,55.58,102.8Z"></path>
      <path class="cls-12" d="M53.66,106.21a18.13,18.13,0,0,1-7.56,4.34c-3,.81-8.34,4.92-9.3,6.91s1.39-1.24,2.58-1.88,4.41-3.9,6.83-4.21a19.07,19.07,0,0,0,8-3.73C55.56,106.29,54,106.47,53.66,106.21Z"></path>
      <path class="cls-12" d="M56.43,108a19.87,19.87,0,0,0,6.82,4.78c2.74,1.12,6.27,5.63,6.73,7.86s-1.08-1.45-2-2.35-2.91-4.27-5.09-4.77a17,17,0,0,1-7-4C54.65,108,55.76,108.52,56.43,108Z"></path>
      <path class="cls-12" d="M56.45,128.25a11,11,0,0,1-5,1.26c-1.92,0-4.7,2.23-5.31,3.59s.91-.73,1.55-1.14,2.34-2.17,3.72-1.86a8.66,8.66,0,0,0,4.76-.65C57.23,128.89,56.67,128.84,56.45,128.25Z"></path>
      <path class="cls-12" d="M56.64,114.3c-2.72,1-5.3,1.83-8.06,2.7a12.3,12.3,0,0,0-6.36,4.92c-1.7,2.31,0-1.17.6-1.89a15.48,15.48,0,0,1,5.44-3.61c3-.92,5.78-1.61,7.62-3.46S56.58,113.61,56.64,114.3Z"></path>
      <path class="cls-12" d="M58,121.81c1.81.88,3.26,1.13,5.14,2.12s3.69,3.34,5.13,4.92-.56-1.39-1-1.91a17.85,17.85,0,0,0-3.95-3.62c-2.1-1-3.58-1.43-5-2.93S58,121.22,58,121.81Z"></path>
      <polygon class="cls-13" points="0 84.89 57.69 108.99 110.12 86.76 57.69 68.27 0 84.89"></polygon>
      <path class="cls-14" d="M60.92,83.28c.16-.79-.85-1.67-.11-.57.18-.12.31-.14.58-1.73a32.54,32.54,0,0,0,.94-6.91c0-.45-.07.81.09-2.23S64,55.52,64.07,51.29s.7-6.16.45-9.63-2.14-4.42-3.64-.89A31.28,31.28,0,0,1,60.39,49a20.79,20.79,0,0,0-.69,7.16c0,3.93,0,13.2-.12,17.54S58.62,79.85,60.92,83.28Z"></path>
      <path class="cls-15" d="M51.36,22.89C50.64,21,50,19.09,49.22,17.2c1.36-.52,1.4-.86,3.07-1.43s5-1.28,7-1.91c.75,2,1,2.9,1.82,5.11s2,5.71,2.83,8.17c-1.73.41-3.5.74-5.24,1.12Z"></path>
      <path class="cls-15" d="M62.31,73.6c.17-.25.19-.39.38-.66a8.46,8.46,0,0,1,.85-1,1.41,1.41,0,0,1,.66-.29c.16-.58-.22.11.09-.78a40.62,40.62,0,0,1,1.34-4.19A25.54,25.54,0,0,0,67.8,62c.36-1.57.86-3.22,1.28-4.78-.37-.65-.27-1,.4-1.51a4.18,4.18,0,0,0,1.57-2.12c-.18-1.55-.39-3.11-.58-4.64a7.45,7.45,0,0,1,1-2.48c.52-1,.35-1.24,0-2.75s.53-6.18-1-7.65a10.4,10.4,0,0,1-2.75-5.11c-.57-2.14-3.46-4.1-5.49-2.25.18,2,.34,3.69.56,5.85a46.27,46.27,0,0,1,.56,6.69c-.08,2.47.36,5.88-.16,8.49a44.94,44.94,0,0,0-.5,8.45c0,2.5.12,6.55,0,8.24s-.22,1-.16,1.93a5.6,5.6,0,0,1-.16,1.88,18.23,18.23,0,0,0-.17,2.44C62.36,73.22,62.33,73.14,62.31,73.6Z"></path>
      <path class="cls-16" d="M60.41,17.07c-.46-.85-2-2.14-1-3.21s.93-3.21,1.75-4.41,2.64-4.4,4-4.36,2.75,2.2,3.6,3.26A8.74,8.74,0,0,0,72.45,11c1.34.44,1.15,1.88,2,2.94s1.35,3.16,1.77,4.59c-.28,1.54-1,4.06-1.17,5.35s.12,1.33,0,2.39c1.08.33,2.12.76,3.18,1.13l-.69,1.29a1.6,1.6,0,0,0,.45.93,3.94,3.94,0,0,0,1.3.64,6.61,6.61,0,0,0,.94.13c-.09.32-.07.4-.18.79a3.9,3.9,0,0,1-.73,1.62,3.1,3.1,0,0,1-1.08.51c-.33.11-1,0-1.13.27s0,.6-.11.91a3.91,3.91,0,0,1-.91,1.27,9.29,9.29,0,0,0-1.3,1.14c-.23.37-.3.52-.17.9a6,6,0,0,0,1,1.18,5.41,5.41,0,0,0,.39.41,4.51,4.51,0,0,0-.43.44c-.16.21-.29.5-.48.77s-.49.53-.71.83a10.15,10.15,0,0,0-.67,1c-.15.26-.1.54-.25.87A12.24,12.24,0,0,1,73,44.48a4.51,4.51,0,0,1-.57,1c-.32.34-.09.32-.7.76s-.31.6-1.74,1.28-1.17-2.5-.66-3.24,2.41-4.16.86-4.07-3.3-.69-3.06-2.19.68-3.56-.26-4.2.53-2.46.5-3.08-1.42.34-1.83-.13-1-2.81-1.86-2.41-1.49,2.65-1.21,2-.54-6.74-1-8.35S60.82,18.61,60.41,17.07Z"></path>
      <path class="cls-15" d="M62.18,26.61a26.78,26.78,0,0,1,.17-3c.14-.81.36-1.07.47-1.8A7.52,7.52,0,0,0,63,19.7a11.87,11.87,0,0,0-.81-3.19c-.37-.8-.84-1.63-1.18-2.2a12.54,12.54,0,0,0-.73-1.08c-.78.78-1.58,1.52-2.37,2.28.14.41.2.77.35,1.2s.39,1.08.57,1.48.38.64.54,1,.29.52.42.89.06.51.21,1,.38,1.35.59,2,.66,1.72.87,2.29.24.76.41,1.26C62,26.6,62.08,26.63,62.18,26.61Z"></path>
      <path class="cls-17" d="M53.26,20a20.28,20.28,0,0,1-1.57-1.39,10.21,10.21,0,0,1-1-1.42c-.34-.56-.6-1.3-.93-1.91-.93-.37-2.28-1.08-3.11-1.36a18.74,18.74,0,0,0-1.86-.3,5.29,5.29,0,0,1,.09.71,3,3,0,0,1-.15.89,12,12,0,0,1-.7,1.72,9.33,9.33,0,0,1-1.23,1.73,10.36,10.36,0,0,1-1.07.88L42,20a6.49,6.49,0,0,0,1.11.13c.45,0,1-.13,1.5-.15a4.51,4.51,0,0,1,1.84.24c.45.23.16.34.49.62s-.57.33.51.32A41.68,41.68,0,0,0,53.26,20Z"></path>
      <path class="cls-18" d="M46.88,14.12a9.08,9.08,0,0,1,.85.51c.33.21.91.6,1.23.85a8.56,8.56,0,0,1,.82.71c.26.24.34.38.59.65s.29.5.67.86a2.36,2.36,0,0,0,1.45.13c.67-.16,2.46-.22,3.47-1s1.59-.18,3.34-1.07,3.53-7.73,5-9,1.65.91,2.12,1.88,1.14,3.51,3.08,3.43,3.68-.68,4.42,1.87-.18,6.45-.88,8.58-1.73,2.92-.65,4.63,4.08,1.23,5.8,1.37c.6-.31,1.3-.54,1.83-.83a1.56,1.56,0,0,0,.67-1.33c.06-.49-.38-1.41,0-1.8A12.16,12.16,0,0,1,82,23.62c.51-.39,0-.58-.61-1s-.42-1.12.2-1.45A2.4,2.4,0,0,0,82.75,20c.25-.54.23-.94.46-1.52s-.55-.35-.91-.19-1.34.46-1.57-.08-.35-1.28-.75-1.61-.74-.14-.92-.69.48-1.43.84-1.87c.21-.23-.16-.55-.43-.8a4,4,0,0,1-.88-1.42c-.14-.46-.27-.36-.67-.42s-1.07.06-1.35-.44A1.29,1.29,0,0,1,77,9.21c.63-.3.57-.3,0-.58a3,3,0,0,1-1.42-1.52,3.61,3.61,0,0,0-.71-1.35c-.38-.59-.83-1.1-1.4-1s-2.86.88-2.48-.09S72,3.39,70.94,3,69.75,2.6,69.5,1.79,69.14.55,68.07.42a45.69,45.69,0,0,0-4.7-.27c-.93,0-.53.05-1,.42S61.76,1.19,61,1a5.24,5.24,0,0,0-2.69.28,18.32,18.32,0,0,0-2.35.85c-.5.32-.5.54-.69.91s-.09.95-.4,1.25-.56.25-.93.32-.93.1-1.12.41-.27.37-.26.71a3.05,3.05,0,0,0,.11,1c.11.45,0,.72-.59.44s-3.19-.41-2.27.75a9.13,9.13,0,0,1,0,1.06,12.38,12.38,0,0,1-.24,1.42,1.42,1.42,0,0,0,.3,1,1.54,1.54,0,0,1-.95,2,18.34,18.34,0,0,1-2.94.46C46.29,14,46.58,14,46.88,14.12Z"></path>
      <path class="cls-16" d="M47.87,40.35c-.26-.2-.6-.11-1-.29a1.38,1.38,0,0,0-.91-.15c-.35.11-1,.24-1.39.4.08-.24.22-.45.3-.7a8.43,8.43,0,0,0,.21-.91c0-.24,0-.34,0-.55-.25,0-.44,0-.69,0a1.2,1.2,0,0,0-.79.35c-.19.22-.44.4-.44.72a4.46,4.46,0,0,0,.1,1,9.52,9.52,0,0,0,.33.9c0,.15,0,.3-.08.26-.29-.13-.51-.12-.78-.58s-.76-1.7-1-2.26a2.72,2.72,0,0,0-1.1-1.35,5.19,5.19,0,0,1-.77-.27c.2-.2.36-.21.55-.46a2.73,2.73,0,0,0,.39-1.62,6.62,6.62,0,0,0-.23-1.08,2.58,2.58,0,0,0,.49,0A6.37,6.37,0,0,0,43,33.41,1.73,1.73,0,0,0,43.89,32a1.7,1.7,0,0,0-.75-1.26c-.37-.25-.81-.32-1.09-.54s-.24-.32-.48-.55c.7-.12.15-.17,1.11-.29s2.46.3,4-.08,4.26-1.55,6-2.06c1,0,1.86,0,2.8,0,1,.89,2,1.2,3,2.24a43.7,43.7,0,0,1,3.18,3.94c-3,1.61-9.27,5-11.56,6.16S49.42,39.6,47.87,40.35Z"></path>
      <path class="cls-15" d="M60.28,32.79A5.3,5.3,0,0,1,60,30c.18-.81.73-2.95,1.5-3.18a6.22,6.22,0,0,0-1.25-1,8.41,8.41,0,0,0-2.75-.95,3.56,3.56,0,0,0-1.9.25,3.79,3.79,0,0,1-1.44.49l-1.63,2.38,1.27.1c.43,0,1-.06,1.43,0a3.42,3.42,0,0,1,1,.23c.24.13.32.29.56.56s.56.92.79,1.24a7.33,7.33,0,0,0,.54.74,13.42,13.42,0,0,0,1.09.9C59.54,32,59.92,32.47,60.28,32.79Z"></path>
      <path class="cls-18" d="M45.11,22.07c.54-.29,1.38-.86,1.84-1.1a8.47,8.47,0,0,1,1-.41c.36-.16.64-.26,1-.39s.73-.26,1.06-.37l.93-.25a1.81,1.81,0,0,1,1,0,2.8,2.8,0,0,1,.89.24c.3.19.35-.14.7.28s.82-.28,1.1,1.16,1.69,3.36-.5,5.94S45.6,32,41.65,29.55a3.44,3.44,0,0,0,.89-.26,2.47,2.47,0,0,0,1-.53,3.46,3.46,0,0,0,.58-1.66A7.43,7.43,0,0,0,44,25.19c-.1-.45-.09-.61.26-.75a5.5,5.5,0,0,1,1.35,0c.28,0,1,.42,1,.12s-1-1.53-1.18-1.9A5.5,5.5,0,0,1,45.11,22.07Z"></path>
      <path class="cls-15" d="M59.73,68.1a92.39,92.39,0,0,1,.12-9.45c.15-2.76-.36-4.64-.52-7.21-1.25-1.28-2.49-2.62-3.73-3.92l-3.05.71a2.38,2.38,0,0,1,.53.93,1.75,1.75,0,0,1-.38,1.38c-.29.24-.43.27-.67.5.22,0,.42.19.65.22s.55,0,.83,0c0,.41,0,1-.08,1.37s0,.62,0,.94,0,.55-.15.86a3.21,3.21,0,0,1-.76.85c-.37.31-1.14.75-1.59,1.08a3.92,3.92,0,0,0,.16.36l1.41.21c.28.52.52,1.09.83,1.59.1.16.33.18.45.32l-.7,1c.07.42.23.82.29,1.23a11.6,11.6,0,0,0,.12,1.17,3.05,3.05,0,0,0,.26.85c.26.57,1,1.94,1.36,2.66.84.44,1.86,1,2.65,1.37S59,67.72,59.73,68.1Z"></path>
      <path class="cls-18" d="M59.57,65c.26-.09.51-.26.78-.37.1-.54.27-1.17.36-1.69s.17-.67.23-1.24.06-1.55.1-2.19a9.53,9.53,0,0,0,0-1.92,11.9,11.9,0,0,1-.19-1.46c0-.57-.09-1.16-.1-1.81s.12-1.67.18-2.28.45-.46.28-1.17a11.67,11.67,0,0,0-1-3.14,22.64,22.64,0,0,0-1.6-1.64c-.83.27-2.95.75-3.36,1.35s.33.82.18,1.34a10.58,10.58,0,0,1,1,.6,7.64,7.64,0,0,1,.87.73,5.57,5.57,0,0,1,.72.82,1.84,1.84,0,0,1,.26.82c.12.51.32,1.92.41,2.49s.1.41.19,1,.18,1.55.2,2.34a2.21,2.21,0,0,0,.1,1A2.45,2.45,0,0,1,59.53,60c-.1.51-.37.43-.22,1.25A33,33,0,0,1,59.57,65Z"></path>
      <path class="cls-18" d="M61.28,51c-.41-.77-.91-2.07-1.29-2.7a7.74,7.74,0,0,0-.94-1.15c-.39-.49-.9-.9-1.3-1.41-.14-1.37-.3-3.86.13-5s1.15,0,1.56-.88-1.07-4.49-.77-5.47a1.41,1.41,0,0,1,1.66-.9c.3.09.45.22.42.08-.1-.53-.35-.48-.56-1.07a6,6,0,0,1-.68-2.44A11,11,0,0,1,60.38,27c.36-.54.4-.23.68-.64.18.37.5.41.66.81a4.42,4.42,0,0,1,.52,1.27c.15.75.19,2,.32,3.11s.44,3.77.53,4.68.09,1,.13,1.5,0,.68-.25.84a.54.54,0,0,0-.31.46c-.06.26-.18.48-.25.78a9.39,9.39,0,0,0-.22,1,7,7,0,0,0-.08.86c0,.39,0,1,0,1.43s0,.9,0,1.43.1,1.26.09,1.85a14.37,14.37,0,0,1-.12,1.85c-.1.58-.37,1.47-.5,1.94S61.39,50.63,61.28,51Z"></path>
      <path class="cls-15" d="M49.35,48.82c.24.22.35.39.75.31a9.82,9.82,0,0,0,1.23-.44A4.41,4.41,0,0,1,53,48.23a6.93,6.93,0,0,1,2.26.43c.71.26.71-.36,1.31-.66s1.25.66,1.82-.45-.23-5,.33-5.95,1.13-.36,1.59-.18.91-1,.58-1.82-2-4.81-1.36-5.59.77-.14,1.29-.19c-.34-.19-.65-.58-1-.78a6.81,6.81,0,0,0-1-.48c-.3-.12-.38-.08-.67-.19L57,32c-.26-.09-.3-.08-.51-.15l-.75-.21a3.47,3.47,0,0,0-.37-.1,1,1,0,0,0-.45,0c-.18,0-.23.12-.46.18s-.75.19-1,.24-.48,0-.72.06-.54,0-.77,0-.36-.09-.58,0,0,0-.2.19-.67.72-.86.93a6.42,6.42,0,0,0-.46.58,2.33,2.33,0,0,0-.23.39,3.52,3.52,0,0,0-.18.4c-.07.15-.1.29-.17.45a4,4,0,0,1-.26.5,3.16,3.16,0,0,1-.38.34l.73-.32c.3-.13.85-.41,1.14-.52a4.66,4.66,0,0,1,.72-.24,2,2,0,0,1,.59,0,1.68,1.68,0,0,1,.53.15,3,3,0,0,1,.47.32,4.78,4.78,0,0,1,.39.39c.15.15.28.43.46.59a3.49,3.49,0,0,0,.49.33c-.14.06-.07.08-.26.15s-.72.15-.94.22a4.23,4.23,0,0,0-.57.23,6.19,6.19,0,0,0-.59.41c-.18.11-.26.18-.42.29l-.43.31c-.21.13-.66.46-.87.59l-.39.23c-.2.11-.32.16-.59.29s-.77.33-1.09.49-.81.28-1.09.45a3.47,3.47,0,0,0-.64.53,3.37,3.37,0,0,0-.46.65c0,.08-.07.24,0,.3a1.65,1.65,0,0,0,.56.37,1.13,1.13,0,0,0,1.1-.09,10.12,10.12,0,0,1,1.66-1c.42-.17.84-.12,1.25-.25-.14.15-.41.26-.53.41s-.51.75-.66,1-.06.17-.17.33a8.24,8.24,0,0,1,.85-.11,3.58,3.58,0,0,1,.95.24,4.65,4.65,0,0,1,.89.53c.21.15.26.39.45.55-.3.09-.21,0-.61.14s-1.25.43-1.74.58c.21.16.37.18.61.37a6.09,6.09,0,0,1,.91.65,1.73,1.73,0,0,1,.42.68,3.31,3.31,0,0,1,0,1.22,1.35,1.35,0,0,1-.4.66,8.93,8.93,0,0,1-1.2.8C49.78,48.77,49.64,48.68,49.35,48.82Z"></path>
      <path class="cls-15" d="M64.5,71.48c-.42,0-.92.06-1.12-.69a4.61,4.61,0,0,1,.87-3c.9-1.29,1.81-3.5,2.52-4.63s-.06-1.33,0-2.25,1.87-2.49,1.94-3.84,2-2.69,1.62-3.87-2.61-.7-3.48-.81c.5-.74,1.38-2,1.84-2.66s.78-1.07,1.1-1.49.38-.5.62-.8.4-.45.63-.74c0,.21.1.09,0,.37s-.28.79.05,1.19a2.08,2.08,0,0,0,1.7.8,6,6,0,0,0,1.41-.56c0,.27.11.36,0,.66a6.14,6.14,0,0,1-.56,1.2,5.54,5.54,0,0,1-1,.87c-.3.21-.34.2-.29.6s.5.86.27,1.38a3.89,3.89,0,0,1-1.35,1.45c-.52.33-1.34.72-1.83,1s-.78.81-.35,1.16a1.77,1.77,0,0,0,1.58.31c.51-.15.29.22.22.69a1.85,1.85,0,0,1-1.19,1.08c-.48.08-1,.64-.72,1s.29.28.51.56c.21-.09.43-.14.65-.22-.09.24-.06.35-.17.61a3,3,0,0,1-.55.87c-.23.24-.68.3-.35.72s.86.83.93,1.46a3.1,3.1,0,0,1-.47,1.91c-.13-.26-.19-.46-.31-.75s-.37-.73-.72-.82a1.32,1.32,0,0,0-1.1.07.8.8,0,0,0-.2,1c.19.3.94.63.91.94s-.2.32-.48.55-1.16.56-1.48.76-.32.24-.35.55.06.71,0,1a.92.92,0,0,1-.47.75c-.28.13-.35.18-.27.43s.66.71.31.85A2,2,0,0,1,64.5,71.48Z"></path>
      <path class="cls-14" d="M60.93,83.27A24.35,24.35,0,0,0,60,80.42a12.58,12.58,0,0,1-.35-4.86c.24-1.29.32-1.7.48-3s.28-3,.5-4.39a1.93,1.93,0,0,0,0-1.25c-.14-.65-.22-2-.45-2.78s-.67-2.26-.84-2.93a1.44,1.44,0,0,0-.68-1.05c-.35-.25-.57,0-.88-.22a1.81,1.81,0,0,1-.66-.77,6.89,6.89,0,0,0-1-1.45,3.62,3.62,0,0,0-1-.76,2.2,2.2,0,0,0-1.7-.13c-.46.21-.79.24-1.06.59s-.37.8-.61,1.16c.29,0,.51-.1.81-.09a2.45,2.45,0,0,1,.86.21c.32.13.1.43-.09.52s-.56.38-.42.5c.34.3.11-.09.73.27a8.59,8.59,0,0,1,2.58,2.09c.25.36,1,1.28,1.36,1.73s.7,1,1,1.43.47.81.68,1.22.22.78.38,1.19c-.22-.24-.33-.45-.57-.7s-.25-.48-.71-.62S56.94,66,56.4,65.8a10.73,10.73,0,0,1-1.69-.88c-.43-.28-.36-.43-.92-.52s-1.48-.07-2.12-.13c.23.27.18.23.5.57s1,1.12,1.41,1.53.86.79,1.27,1.14.85.62,1.26,1c-.3.09-.77.21-1,.31s-.31.18-.57.25c.25.36,0,.37.47.76s1.45,1.14,1.7,1.85.43,1.21.69,1.87.28,1,.65,1.75a8.7,8.7,0,0,1,.93,3,13,13,0,0,0,.86,3.27A8.28,8.28,0,0,0,60.93,83.27Z"></path>
      <path class="cls-19" d="M60.91,83.25c-1.29-1.7-1.81-4.48-2.21-6.19a37.66,37.66,0,0,0-1.39-3.72,6.26,6.26,0,0,0-1.75-3c-.76-.58-.79-.72-1-1.24s1.82-.47,1.54-.65-2.53-1.69-2.7-2.23-1.81-1.76-1.65-1.91a7.81,7.81,0,0,1,2.59.23c.67.17-.79-1.72-.87-2.44s-.1-2-.74-2.27,1.48-.71,1.11-.74-1.29-.77-2.12-.29A3.64,3.64,0,0,1,52.81,57c-.36-.3-1.83.09-1.89-.56s2.27-1.36,2.43-2.36-.15-1.93.16-2.83a2.3,2.3,0,0,1-1.58-.15,1.92,1.92,0,0,0,.91-2.38c-.05-.16-.29-.46-.86-.25s-1.92,1.1-2.6.39c1-.42,1.79-.42,2.3-1.69s-.66-2.63-2.1-2.82c.62-.65,2.05-.39,2.57-1S49.39,41.89,49,42.29c.38-.74.63-1.52,1.56-1.75s-2,.74-3.2,1.37c-.12.06-.81.26-1.06.05s-.5-.28-.69-.5c.25-.54,1-.89,1.19-1.4s-2.09.18-2.31.46.46-1.66.56-2.37c-2.15,0-2,1.58-1.38,3.23-.83.07-1.65-1.26-1.72-2.33s-1.72-1.6-2-2.16,1.66-1.59.6-3.1c1.37,0,3.22-.14,3.24-1.74s-1.61-1.27-2.15-2.45A3,3,0,0,0,44,27.81c.38-1.06,0-1.85,0-2.9s2-.39,2.74-.09-1-1.81-1.6-2.72c.55-.56,1.37-.32,1.74-1.2S44.71,19.83,44,20s-2,.4-2.32-.47a6.72,6.72,0,0,0,2.54-3.13c.53-1.21.72-1.77.27-2.91a4.11,4.11,0,0,0,2.92.28c1.37-.21,3.56-1.1,2-3a4.25,4.25,0,0,0,.13-3.13c-.44-1,2.61-.37,2.92-.21s-.31-1.85.3-2.36a3.08,3.08,0,0,1,1.76-.46c.62,0,.58-2.18,1.58-2.52S59,.83,60,.85s.87.26,1.63.23.27-.93,1.22-.9,3.87.14,4.83.18S68.87.5,69.28,1s0,1,.51,1.44a8.51,8.51,0,0,0,2.1.89c-.2.48-1.21,1.14-.68,1.77s1.9-.56,2.72-.3,1.52,2,1.86,2.78,1.49,1.07,2.08,1.66c-.64-.09-1.09-.17-1.43.58s.44,1.52,1,1.57.73,0,.82-.39a8.73,8.73,0,0,1,.51,1.62c.12.57,1,.68,1.33,1.12-.48.45-1.38,1.53-1.08,2.15s1.15.54,1.28,1.15.24,1.26.8,1.45,1.85-.63,2.08-.41-.46,2.57-1.08,2.81S80.66,22,81.07,22.46s1.34.39,1.25.91-1.85.58-1.69,1.5a3.16,3.16,0,0,1-.6,2.81c-.72.68-1.72.43-2.39,1.13s2.18,1.76,2.61,1.58a3.5,3.5,0,0,1-1.53,2.77c-.79.39-1.51,0-1.6.91a3,3,0,0,1-1.43,2.07c-.71.49-1.32,1.12-.91,1.89s1,.86,1.47,1.46c-.51.29-.78.2-1,.92s-1.35,1.35-1.56,2.3a8,8,0,0,1-1.45,3c-.64.77-1.65,1.45-1,2.53s2,.94,3.06.27a3,3,0,0,1-1.81,2.82c-.1.61-.14.49.15,1.27s-.73,2-1.65,2.26-2.67,1.31-1.83,1.94a1.4,1.4,0,0,0,1.64.3c.63-.15-.12,1.32-.42,1.53s-1.59.24-1.38,1,.56,1,1.33.55a6.5,6.5,0,0,1-.64,1.33c-.23.51-1.07.38-.35,1.17a2.41,2.41,0,0,1,.17,3.25,1.75,1.75,0,0,0-.92-1.66c-.62-.23-1.31-.08-1.43.56s.65,1.06,1,1.35-1,1-1.33,1.18-1,.25-1,.76a4.81,4.81,0,0,1,0,1.53c-.17.4-.6.07-.68.43s.22.67.35,1-1.53.44-2,.89a3.31,3.31,0,0,0-1.15,2.39A11,11,0,0,1,62,78.17c-.39,1.22-.59,3.58-1,4.59S60.25,80,60.91,83.25Z"></path>
      <path class="cls-20" d="M60.1.81c.11.78.23,1.56.27,2.35a13.4,13.4,0,0,1-.12,2.37,13.91,13.91,0,0,0-.18,4.68c-.12,3.29,2.62,5.6,3,8.88a7.56,7.56,0,0,1,0,2.42c-.13.79-.37,1.55-.52,2.31a8.11,8.11,0,0,0-.19,2.3l.23,2.35c.32,3.12.6,6.32.95,9.38.07.38.18.73.28,1.14a3.61,3.61,0,0,1,.1,1.27c-.11.84-.27,1.54-.32,2.34a18.38,18.38,0,0,0,.16,4.63,16.92,16.92,0,0,1-.31,4.8c-.08.74-.07,1.56-.16,2.35s-.14,1.56-.16,2.33c0,3.11.49,6.27.06,9.49a13.17,13.17,0,0,0-.35,2.31c0,.79-.12,1.58-.19,2.36l-.24,2.36a11.52,11.52,0,0,0,0,2.35h-.07a11,11,0,0,1-.1-2.37l.11-2.36c0-.8.1-1.57.1-2.36a13.45,13.45,0,0,1,.27-2.38c.31-3.07-.25-6.22-.28-9.41,0-.8.09-1.6.16-2.38s.08-1.55.17-2.37a16.19,16.19,0,0,0,.31-4.61,19.29,19.29,0,0,1-.09-4.8c.06-.78.25-1.63.35-2.34A7.24,7.24,0,0,0,63,38c-.33-3.2-.57-6.29-.85-9.45l-.2-2.36a8.4,8.4,0,0,1,.22-2.4c.17-.79.41-1.54.54-2.3a7,7,0,0,0,.06-2.29,13.38,13.38,0,0,0-1.62-4.36,8.47,8.47,0,0,1-1-2.2,19.24,19.24,0,0,1-.33-2.35,14.17,14.17,0,0,1,.24-4.73,12.33,12.33,0,0,0,.16-2.35c0-.78-.14-1.56-.23-2.35Z"></path>
      <path class="cls-20" d="M52.55,7.42a10.27,10.27,0,0,1,2.12,2,8.84,8.84,0,0,1,.74,1.26c.23.43.46.85.71,1.27s.51.83.77,1.24a9.26,9.26,0,0,1,.78,1.24,22.3,22.3,0,0,1,.85,2.79c.26.93.93,1.68,1.24,2.64s.46,1.89.82,2.79a47,47,0,0,1,1.92,5.54l-.35.06a45.52,45.52,0,0,0-1.82-5.51c-.35-.91-.49-1.9-.78-2.81s-.94-1.69-1.19-2.65a25.14,25.14,0,0,0-.81-2.8,9.87,9.87,0,0,0-.75-1.23c-.26-.41-.51-.83-.76-1.25s-.47-.85-.69-1.29a9.71,9.71,0,0,0-.71-1.26A10.26,10.26,0,0,0,52.55,7.42Z"></path>
      <path class="cls-20" d="M49.25,13.23a14.9,14.9,0,0,1,3.43.68,8.72,8.72,0,0,1,3,1.73,10.12,10.12,0,0,1,2.16,2.76c.61,1,1.74,1.54,2.23,2.71l-.25.08c-.4-1-1.51-1.67-2.15-2.68a9.79,9.79,0,0,0-2.08-2.77,8.74,8.74,0,0,0-3-1.77A15.26,15.26,0,0,0,49.25,13.23Z"></path>
      <path class="cls-20" d="M46.9,21c.73-.35,1.46-.66,2.21-.94a7.85,7.85,0,0,1,2.34-.56c.83-.08,1.53.45,2.32.58a5.47,5.47,0,0,0,2.33.29,4.3,4.3,0,0,1,2.41,0,1.72,1.72,0,0,1,.89.85,6.85,6.85,0,0,1,.41,1.15,8.09,8.09,0,0,0,.39,1.11,4.11,4.11,0,0,0,.74.91A7.83,7.83,0,0,1,62,26.57l-.24.1a7.89,7.89,0,0,0-1-2.13,3.75,3.75,0,0,1-.75-.95,7.19,7.19,0,0,1-.39-1.16c-.21-.74-.42-1.6-1.18-1.89a4.15,4.15,0,0,0-2.32-.05,5.49,5.49,0,0,1-2.38-.33c-.79-.14-1.48-.67-2.29-.6a7.44,7.44,0,0,0-2.32.52C48.37,20.35,47.63,20.65,46.9,21Z"></path>
      <path class="cls-21" d="M46.43,13.86A18.81,18.81,0,0,1,49,15.5,10.6,10.6,0,0,1,51.2,18a5.6,5.6,0,0,0,2.95,2.26"></path>
      <path class="cls-22" d="M63.56,40.77A23,23,0,0,0,62,36.15,18.26,18.26,0,0,0,60.39,33a6.41,6.41,0,0,0-1.71-1.58c-.86-.6-1.36-1.89-2.08-2.73S54.92,28,53.71,28a8.11,8.11,0,0,1-4.23-1.14C48.4,26,47.56,25,46.26,24.77a22.57,22.57,0,0,0,7.31,1c2.14-.24,2.75-1.43,4.92-.76a5.14,5.14,0,0,1,4,4.51c-.13-1.38.45-2.25,1.48-3.35a7.83,7.83,0,0,0,1.85-4.82c-.08-1.5-.89-2.05-.14-3.33s2.62-1.87,2.88-3.39-.68-3.14,0-4.43S70.25,8.42,70.56,7s0-2.81,1.36-3.71"></path>
      <path class="cls-20" d="M61,34.33a5.29,5.29,0,0,0-2-1.55c-.8-.25-1.63-.56-2.43-.83-.41-.14-.82-.23-1.24-.33a1,1,0,0,0-.59.07l-.62.17a6.85,6.85,0,0,1-2.59.21,3.85,3.85,0,0,1-1.24-.41,8.53,8.53,0,0,0-1.21-.39,16.91,16.91,0,0,0-2.55-.4,10.94,10.94,0,0,1-5-1.27,11,11,0,0,0,5,1.21,17,17,0,0,1,2.56.36,7.75,7.75,0,0,1,1.24.39,3.71,3.71,0,0,0,1.21.38,7,7,0,0,0,2.53-.24l.61-.18a1.1,1.1,0,0,1,.68-.07,11.57,11.57,0,0,1,1.26.31c.83.27,1.61.55,2.46.81a5.39,5.39,0,0,1,2.08,1.58Z"></path>
      <path class="cls-22" d="M60.06,80.47a12.57,12.57,0,0,1-.25-5.61c.24-1.57.32-3,.5-4.26a12.19,12.19,0,0,0,.33-3.21c-.12-1-.49-1.5-.31-2.6A22.72,22.72,0,0,0,61,61.17a28.22,28.22,0,0,0,0-3.9c-.17-1.64-.34-4.49.29-6.24a11.91,11.91,0,0,0,.91-5c-.09-1.82-.28-4.62.2-6.17a3.78,3.78,0,0,0,0-3"></path>
      <path class="cls-20" d="M62.25,39.89a8,8,0,0,0-4-2.72,11.52,11.52,0,0,0-2.42-.47l-1.24-.13c-.39,0-.92-.08-1.17-.52a1.86,1.86,0,0,0-.78-.9,2.16,2.16,0,0,0-1.12-.42,2.44,2.44,0,0,0-1.17.29l-1.15.48A13.63,13.63,0,0,0,47,36.61c-.7.46-1.29,1-2,1.55.66-.51,1.24-1.11,1.93-1.59a14.14,14.14,0,0,1,2.22-1.15l1.14-.5a2.74,2.74,0,0,1,1.23-.32,2.35,2.35,0,0,1,1.2.42,2.1,2.1,0,0,1,.5.4,2.43,2.43,0,0,1,.34.54c.19.34.64.37,1,.41l1.24.11a11.94,11.94,0,0,1,2.49.44,8.32,8.32,0,0,1,4.18,2.77Z"></path>
      <path class="cls-20" d="M54.77,36.6a6.7,6.7,0,0,0-2.11.4,13.77,13.77,0,0,0-1.82,1.18,16.78,16.78,0,0,1-4,1.9,16.42,16.42,0,0,0,3.88-2,13.92,13.92,0,0,1,1.82-1.25,7.06,7.06,0,0,1,2.16-.49Z"></path>
      <path class="cls-21" d="M51.35,31.94a15.65,15.65,0,0,0-1.52,1.74c-.45.65-.52,1.62-1.22,2.07"></path>
      <path class="cls-22" d="M61.3,51c-.65-1.44-.9-2.54-2.12-3.74a22.33,22.33,0,0,1-3.49-4.13c-1.06-1.71-2.85-3.21-5.13-2.58"></path>
      <path class="cls-22" d="M60.87,56.61a28.76,28.76,0,0,0-2.77-5.55c-1.68-2.13-3.53-3.06-6.05-2.67"></path>
      <path class="cls-20" d="M60.11,64.88c-.19-1.21-.69-2.36-.92-3.61a7.06,7.06,0,0,1,0-1.89,3,3,0,0,0-.55-1.69l0,0a14.56,14.56,0,0,1-1.52-1.43,10,10,0,0,1-.91-1.89,7,7,0,0,0-1-1.81c-.46-.53-.93-1-1.34-1.6.42.55.9,1.05,1.37,1.56a7.12,7.12,0,0,1,1,1.82,10.52,10.52,0,0,0,.94,1.83,14.85,14.85,0,0,0,1.54,1.39h0a3.28,3.28,0,0,1,.62,1.8,6.55,6.55,0,0,0,.08,1.83c.25,1.2.77,2.34,1,3.6Z"></path>
      <path class="cls-20" d="M59.14,61.07a2.16,2.16,0,0,0-.51-.74,2.87,2.87,0,0,0-.87-.3,1.38,1.38,0,0,1-.69-.74,6.68,6.68,0,0,0-.47-.82,4.75,4.75,0,0,0-1.36-1.32,2.09,2.09,0,0,0-1.83-.25,2.11,2.11,0,0,1,1.86.19,4.68,4.68,0,0,1,1.43,1.3,7.07,7.07,0,0,1,.52.82,1.18,1.18,0,0,0,.61.63,3.1,3.1,0,0,1,.94.3,2.25,2.25,0,0,1,.6.8Z"></path>
      <path class="cls-22" d="M60.36,70.59c-.58-1.77-.26-1.86-1.09-3.93s-3.69-6.43-6.55-6.82"></path>
      <path class="cls-22" d="M60,69.09c-.48-1-.57-2.34-1.8-2.73s-2.94-.75-3.9-1.83"></path>
      <path class="cls-22" d="M62.59,69.45A15.76,15.76,0,0,1,64,64.66a19.42,19.42,0,0,0,1.42-3.8,9.73,9.73,0,0,1,3.3-4.44"></path>
      <path class="cls-20" d="M64.55,63.55a13.45,13.45,0,0,1-.4-4.38c.11-.74.28-1.45.41-2.18a12.78,12.78,0,0,0,.38-2.14h0a4.68,4.68,0,0,1-.19,2.2,6,6,0,0,0-.47,2.13c0,1.45.31,2.89.28,4.37Z"></path>
      <path class="cls-20" d="M62.67,56.44a19.3,19.3,0,0,0,2.65-2.13A12,12,0,0,0,66.37,53l.93-1.44c.63-.95,1.28-1.89,2-2.81.34-.46.7-.9,1.08-1.33a3.21,3.21,0,0,1,1.33-1,3.36,3.36,0,0,0-1.3,1.07c-.37.44-.71.89-1,1.35-.67.93-1.29,1.89-1.89,2.86l-.89,1.46a12.89,12.89,0,0,1-1,1.39,19.5,19.5,0,0,1-2.62,2.22Z"></path>
      <path class="cls-20" d="M66.13,53.33a30.3,30.3,0,0,0,6.33-2,30.51,30.51,0,0,1-6.26,2.31Z"></path>
      <path class="cls-19" d="M63.18,51.45c.51-1.61.67-3.44,1.67-4.89a34.88,34.88,0,0,0,3.33-5.35,3.48,3.48,0,0,1,1.75-2.16,2.43,2.43,0,0,1,1.13-.43,9.51,9.51,0,0,1,5.19.87"></path>
      <path class="cls-19" d="M77.57,28.75c-2.44,1.05-3.7,5.08-4.59,6.93s-1.25,2.41-2.77,3.24"></path>
      <path class="cls-20" d="M67.39,42.65a13.24,13.24,0,0,0,1.16-2.84,6.36,6.36,0,0,0,.25-1.5,13.22,13.22,0,0,1,.06-1.54c.06-.52.16-1,.26-1.53a3.55,3.55,0,0,1,.52-1.49c.35-.43.83-.66,1.1-1.06s.48-.89.74-1.33a5.72,5.72,0,0,1,.94-1.27c.41-.37.83-.62,1.23-.95a8.22,8.22,0,0,0,1.11-1A6.54,6.54,0,0,1,75.88,27c1.79-1.09,3.57-2,5.4-3l0,0c-1.7,1.13-3.53,2.17-5.21,3.26A6.24,6.24,0,0,0,75,28.36a8.34,8.34,0,0,1-1.16,1.06c-.4.32-.87.59-1.22.9a5.3,5.3,0,0,0-.91,1.18c-.28.44-.47.89-.78,1.35s-.83.68-1.13,1a3.4,3.4,0,0,0-.5,1.38c-.11.5-.21,1-.28,1.51a13,13,0,0,0-.1,1.53,6.47,6.47,0,0,1-.28,1.52,14,14,0,0,1-1.24,2.83Z"></path>
      <path class="cls-22" d="M63.57,39.72c.12-.95-.2-2.1.54-2.92s1.93-1.7,2.13-3a24.47,24.47,0,0,1,.87-4.43c.47-1.17,1-1.57,1.48-2.65A30.4,30.4,0,0,0,70,23.29a11.94,11.94,0,0,1,2.19-3.64c.91-1.1,1.33-1.68,2.51-2.95A16.55,16.55,0,0,0,78.26,11"></path>
      <path class="cls-22" d="M73.19,28.47c-.13.49-.25,1-.35,1.47"></path>
      <path class="cls-22" d="M75.7,24c-.48.61-.69.8-1.27,1.44a7.83,7.83,0,0,0-1.23,3"></path>
      <path class="cls-22" d="M77.17,21.8A8.39,8.39,0,0,1,75.69,24"></path>
      <path class="cls-22" d="M80.27,17.73a7.39,7.39,0,0,0-3.1,4.07"></path>
      <path class="cls-22" d="M74.46,25.39a13.2,13.2,0,0,1-.24-4,8.16,8.16,0,0,0-.24-3.9"></path>
      <path class="cls-22" d="M69.39,34.48a3.22,3.22,0,0,0,.13-2.35,7.18,7.18,0,0,1-.47-3c.14-1.05-.24-2.38,0-3.45"></path>
      <path class="cls-20" d="M60,12a18.82,18.82,0,0,0-.78-2.22,7.39,7.39,0,0,0-1.4-1.86A18.68,18.68,0,0,1,56.43,6c-.43-.69-1.28-.88-1.88-1.39.61.5,1.46.67,1.91,1.37A20,20,0,0,0,57.9,7.85c.26.3.53.58.81.87a4,4,0,0,1,.65,1,18.13,18.13,0,0,1,.83,2.23Z"></path>
      <path class="cls-22" d="M65.61,18a35.8,35.8,0,0,0-1.07-5.76,8.12,8.12,0,0,1,1.15-6.07c1-1.35,1.91-1.82,2.12-3.17S67.54.56,69.34,1"></path>
      <path class="cls-20" d="M65.1,7a7.87,7.87,0,0,0-.19-1.82,4.19,4.19,0,0,0-.79-1.63,8.6,8.6,0,0,1-1-1.56,3.76,3.76,0,0,1-.4-1.8,3.76,3.76,0,0,0,.46,1.77,8.79,8.79,0,0,0,1.07,1.51,4.31,4.31,0,0,1,.89,1.66,7.86,7.86,0,0,1,.25,1.86Z"></path>
      <path class="cls-20" d="M64.16,11.27a10.35,10.35,0,0,0-.5-2.34c-.26-.77-1-1.12-1.67-1.63a3.71,3.71,0,0,1-1.33-2,10.88,10.88,0,0,1-.36-2.41,10,10,0,0,0,.45,2.38A3.49,3.49,0,0,0,62.1,7.16l1,.68a2.4,2.4,0,0,1,.8,1,10.79,10.79,0,0,1,.6,2.38Z"></path>
      <path class="cls-19" d="M68.36,15.3a5.07,5.07,0,0,0,2.19-2.42c.57-1.19,1.84-2.2,2.34-3.57a8.78,8.78,0,0,0,.16-4.43"></path>
      <path class="cls-22" d="M76.42,9.78c-1.29,1-3.08,2.75-4.22,3.63s-1.66.74-2.79,1.11a10.7,10.7,0,0,1,.19,2.68c.05,1.29,1.42,3.32,1,4.79"></path>
      <path class="cls-20" d="M72.78,9.49A2.64,2.64,0,0,1,72,8.57a3.62,3.62,0,0,1-.31-1.1,8,8,0,0,1-.06-2.24,8.27,8.27,0,0,0,.23,2.21A2.61,2.61,0,0,0,73,9.2Z"></path>
      <path class="cls-22" d="M73,12.77a20.06,20.06,0,0,1-3,6.07"></path>
      <path class="cls-22" d="M67.11,29.33a6.5,6.5,0,0,1-.67-3,4.48,4.48,0,0,0-.85-3.21"></path>
      <path class="cls-20" d="M59.13,58.59A13.91,13.91,0,0,1,59,56.66a12.42,12.42,0,0,0-.22-1.91,17.07,17.07,0,0,0-.7-3.77,17.11,17.11,0,0,1,.79,3.76,12.19,12.19,0,0,1,.26,1.91,16.94,16.94,0,0,0,.17,1.91Z"></path>
      <path class="cls-20" d="M71,38.49a11.11,11.11,0,0,1,1.82-.92,3.66,3.66,0,0,0,1.45-1.29,18.82,18.82,0,0,1,1.26-1.57,3.84,3.84,0,0,1,1.67-1.11,3.81,3.81,0,0,0-1.6,1.17,17.78,17.78,0,0,0-1.19,1.62,3.83,3.83,0,0,1-1.47,1.41,13,13,0,0,0-1.73,1Z"></path>
      <path class="cls-23" d="M106.88,40.48a10,10,0,0,1,2.72-2.09c1.21-.53,2.91-1,3.83,0s-.39-1.12-.37-1.27a3.15,3.15,0,0,0-1.7-.6c-.67,0-2.54,0-2.55-.79s.6-2,0-2.51a2,2,0,0,0-1.86-.25,2.82,2.82,0,0,1-.86-1.19c-.29-.61-.88-.58-1.76-.49a3.21,3.21,0,0,0-2.48,1.14c-.17.53,0,1.37-.7,1.6s-1.6,0-1.21-1.1a4.34,4.34,0,0,1,.66-.91c.25-.29.84-1.06.35-1.46a2.36,2.36,0,0,0-1.76-.64c-.72.07-2.42.08-2.83.73s-.25,1.29-1.06,1.3-1-.31-1.47-.92-1.35-1-1.67-.36-.49,1.44-.94,1.76,0,.57-.45,1.67-1.59,5.1-2.43,6.29-1.27,3.4.35,4.29,6.55.93,8.62.42,5.35-1,6.7-2.09S105.84,41.36,106.88,40.48Z"></path>
      <path class="cls-23" d="M61.24,81.42A19.25,19.25,0,0,1,60,83.49c-.24.42-.07.3-.27.44s-.08,0-.33.15a2.7,2.7,0,0,1-.89.44c-.49.14-.77-.3-.22-1.13a5.82,5.82,0,0,0,.49-2.78,7.28,7.28,0,0,1,.67-3.29c.37-.86,1.09-2,1.4-2.68s0-1.17.4-1.49.73-.31.32-.81-.21-.85.2-1.22c-.16-.43,0-.21-.47-.66a3.05,3.05,0,0,1-.86-2.66c.07-.2.49-.33.81-.22a2.54,2.54,0,0,0,1,.13.5.5,0,0,0,.47-.71c-.13-.44-.44-1.34-.12-1.77a1.71,1.71,0,0,0,.36-1.4c-.13-.35-.45-.77-.17-.89s.73.66.88.84.28.8.58.74.15-.37.34-.63.77-.75.84-1.12-.11-.83.05-1.1.53-.08.67-.35-.22-.45,0-.79.68-.61.94-1a2.67,2.67,0,0,0,.54-1.45,5.74,5.74,0,0,0-.41-1.68c-.19-.55-.24-.77.41-1.07a3.33,3.33,0,0,0,2-1.53c.42-1,1.45-3,1.19-4.15a1.39,1.39,0,0,0-.07-1.12c-.19-.3-.49-.73-.39-1s.63-.12.86-.18.33-.28.42-.52.15-.58-.18-.67-.79-.31-.78-.66.06-.54.4-.49.89.42,1.23.27.52-.33.26-.68-.53-.71-.28-1.2a10.69,10.69,0,0,1,.7-1.59c.3-.38.57.29.88.46.07,0,.68.36.93.28s.33.06.31-.35A1.16,1.16,0,0,1,75.69,41a1.12,1.12,0,0,0,.77-.95.7.7,0,0,1,1.34-.12,2.82,2.82,0,0,1,.11,1c0,.28.43.59.8.48a1.32,1.32,0,0,0,.77-.9c.11-.45.13-1.3.23-1.82a1.62,1.62,0,0,1,.79-1.12c.37-.2,1-.52.55-.64s-.77.27-.77-.36a1.47,1.47,0,0,1,1.36-1.4.83.83,0,0,1,.79.55.52.52,0,0,0,.71.42,1.86,1.86,0,0,0-.08-.8c-.08-.36-.21-.7.22-1a3.89,3.89,0,0,1,1.7-.78c.54,0,1,.29,1.41.23s.73-.63,1.2-.42,1.18,0,1.27-.4.33.88.5,1.56.93,1.15.32,2.38.22.06-1.4,2.22,1.44-2.52-2.75,3.93S65.47,70.92,61.24,81.42Z"></path>
      <path class="cls-24" d="M99.81,45.67a24.7,24.7,0,0,1,4-2.53,14.21,14.21,0,0,0,2-1.33A3.72,3.72,0,0,0,107,40.16c.12-.58.25-.6.58-1.07S109.13,38,109,37.32s-.38-1.15-1.06-1.17-.8.19-1.49.92S104,40,103.23,40.81a13.11,13.11,0,0,1-2.18,2A10.26,10.26,0,0,1,98,44.07c-.8.16-1.64.51-1.93-.28s.82-1.89,1.42-2.54a13.33,13.33,0,0,1,2.6-1.9,1.88,1.88,0,0,0,1-1.5c-.11-.53-.41-.87-.28-1.5a8.46,8.46,0,0,1,1.06-1.94,1.9,1.9,0,0,0,0-2c-.14.37-.33.91-.47,1.25s-.42.68-.74.48-.93-.29-.82-.82a3.81,3.81,0,0,1,1.14-1.73c.45-.35,0-.85-.14-1.23-.4.39-.86.46-1.2,1s-.53,1.83-1.14,2.19a4.17,4.17,0,0,1-1.63.38A1.57,1.57,0,0,1,96.9,33a4.64,4.64,0,0,0,.23-1.2,5.8,5.8,0,0,1,.13-1.1c.37-.23.66-.29,1.08-.51s1,0,1.23-.74-1-.69-1.84-.6c-.14,0-1,.21-1.12.85a4.09,4.09,0,0,1-1,2.09.83.83,0,0,1-1.07,0c-.26-.17-.22-.29-.43-.46a8.17,8.17,0,0,1,.17.91,4.6,4.6,0,0,1-.11,1.38,4,4,0,0,0-.31,1,5.74,5.74,0,0,0,0,1.09,9.85,9.85,0,0,1,0,1,1.7,1.7,0,0,1,0,.37c0,.16,0-.11,0,.15a3.71,3.71,0,0,1-.34,1,3.67,3.67,0,0,1-1.56,1.61,17,17,0,0,1-2.86,1c.1-.2.12-.3.26-.54a7.67,7.67,0,0,1,.61-.87,4.64,4.64,0,0,1,.75-.72,2.18,2.18,0,0,1,.78-.35,3.64,3.64,0,0,0,.79-.1,2.59,2.59,0,0,0,.94-.5c.22-.25.21-.05.42-.48a1.94,1.94,0,0,0,0-1.87A12.13,12.13,0,0,0,92.11,34a3.2,3.2,0,0,1-.86-.78.77.77,0,0,1-.11-.78c.1-.25-.46-.43-.68-.55s-1-.54-1.25-.25a1.71,1.71,0,0,0-.32,1.13,1.87,1.87,0,0,0,.16.89,7.79,7.79,0,0,1,.79,2.24,3.07,3.07,0,0,1-.56,1.94c-.47.64-1.51,1.76-1.94,2.34s-.46.88-.76,1.32-.76-.26-1.12-.49a2.44,2.44,0,0,0-1.6,0c-.59.13-1.33-.27-2-.26a2.36,2.36,0,0,0-1.74.72c-.1.09-.44.16-.73.37s1.18.9,1.6,1.3c-.64,0-.15-.08-1-.17a4.11,4.11,0,0,0-3.29,1.12c-1,1-1,1.68-1.52,3.15a9.24,9.24,0,0,0-.43,4.26c.11,2.2,1.51,8.45-.2,10.83s-5,3.77-6.66,6.32a16.63,16.63,0,0,0-3.59,4.61,44.94,44.94,0,0,0-3.38,7.39c-.37,1.49-1.06,2.88-.43,2.23a12.87,12.87,0,0,0,2.23-3c.83-1.5,2.7-5.11,3.91-6.82a58.79,58.79,0,0,1,3.88-5.16c1.25-1.36,2.36-2.51,3.43-3.58A14.24,14.24,0,0,1,76.69,62c1.15-.72,1.92-1.14,3.11-2s1.63-1.11,3.23-2.32S88.17,53.6,90,52.24s3.23-2.33,4.86-3.47S98.33,46.75,99.81,45.67Z"></path>
      <path class="cls-25" d="M106,31.19a4.2,4.2,0,0,1,2.38.9,8.59,8.59,0,0,0,3.2,1A7.17,7.17,0,0,1,115,35.13c.75,1,2,3.09,1.61,4.21s-1.78.61-2.27.21-1-.94-.89-1.49c-.12-.34-.06-.71-.47-1a4.82,4.82,0,0,0-1.64-.62,15.53,15.53,0,0,1-2-.06.83.83,0,0,1-.61-.8,9.06,9.06,0,0,1,.23-1.51c0-.42.14-.74-.22-.95a1.94,1.94,0,0,0-1.18-.36c-.37.08-.63.17-.94,0a2.21,2.21,0,0,1-.58-1A3.07,3.07,0,0,1,106,31.19Z"></path>
      <path class="cls-26" d="M115.62,40.31c-.46.23-2.13,1.07-2.86,1.32a13.43,13.43,0,0,0-1.83.66,7.73,7.73,0,0,1-1.83.8c-1.28.41-5.92,1.43-7.18,1.77s-.92.28-1.64.51-1.33.46-1.93.67a16.47,16.47,0,0,1-2,.75c-.34,0,.44-.48.8-.81a8.68,8.68,0,0,1,2.62-1.43c.81-.17,1.74-.41,2.56-.57.08,0,0,0,.13-.1l.37-.18.56-.29.43-.24c.21-.12.49-.27.75-.44s.68-.44.93-.63a7.43,7.43,0,0,0,.71-.6,5.34,5.34,0,0,0,.47-.55c.13-.16.11-.27.21-.42s.06,0,.09,0c.23-.21.29-.32.57-.56s.93-.79,1.22-1a4,4,0,0,1,.62-.4,5.34,5.34,0,0,1,.75-.39,8.52,8.52,0,0,1,.94-.3,4.28,4.28,0,0,1,.76-.08,3.09,3.09,0,0,1,.69,0,1.25,1.25,0,0,1,.46.16c.15.08.23.24.35.36s.19.29.31.41.22.21.34.34.24.33.37.46.31.22.44.34a1.37,1.37,0,0,0,.51.23c.14,0,.56,0,.59,0S116.08,40.08,115.62,40.31Z"></path>
      <path class="cls-26" d="M99.05,44.74a11.66,11.66,0,0,1-2.45-.53c-.11,0-.32,0-.46-.16a.6.6,0,0,1-.2-.55c0-.19,0-.26-.19-.28-.3.35-.41.64-.9.86s-1.26.51-1.76.79-.93.59-1.39.92S90.27,46.94,90,47.18s-.52.4-.61.22,0-.47,0-.74,0-.57-.34-.74-.57-.62-.83-1a16.09,16.09,0,0,1-1-1.49c-.14-.3-1.17,2.29-1.51,2.53a4.07,4.07,0,0,0-.42.66,8.54,8.54,0,0,0-.54,1.25A6.68,6.68,0,0,0,84.56,49a3.87,3.87,0,0,0,0,.59c-.13-.16-.13-.06-.24-.3s-.26-.58-.44-.94S83.22,47,83,46.67a2.48,2.48,0,0,0-.31-.49s0,0-.09.12-.22.43-.31.59-.24.41-.34.58l-.28.45c-.1.15-.22.27-.32.43s-.18.31-.28.49-.2.4-.3.62l-.3.64-.4.93a2.12,2.12,0,0,0-.26.83A3.19,3.19,0,0,1,79.7,53a4.47,4.47,0,0,1-.57,1,4.31,4.31,0,0,1-.83.87c-.28.18-.83.8-1,.8s0-.65-.19-.89-.33-.66-.64-1-.73-.94-1.1-1.32-.34-.79-.78-1.21-1.85.49-2,1.32a14,14,0,0,0,.62,3.94c.2.6-.77-1.47-.92-2s-.62-1.67-.84-2.27S71,50.47,70.9,50s-.23-.06-.46,0-.77.46-1.1.55-.36.15-.75.29-.59.46,0,.44,1-.1,1.22.32.37.79,0,1.11a2.39,2.39,0,0,1-1.31.64,2.74,2.74,0,0,1-1.21-.09c-.6-.13-.55.14-.1.44s1.29.62,1.23,1a.61.61,0,0,1-.82.53c-.41-.15-1.19-.56-.9.1s.43.9,1,1.08,1.5.21,1.88.57a1,1,0,0,1,.33,1.05c-.1.34-.31,1-.62.92s-.86-.6-.94,0,.09,1.14-.22,1.69-.54,1.61-.78,2.09-.15.48-.72.41-1,.42-.62.82.58.75.22.76-.33-.16-.73-.12-.58.42-.43.93.55,1.52-.45,1.16-1.05-.3-.7.78.74,1.33-.32,1.71c-.4-.2-.84-.28-1.06.16s.34.57.07,1-1,.9,0,1.36a1.17,1.17,0,0,1,.21,1.43,20.14,20.14,0,0,0-2.1,3.92c-.11.37-.2.06-.09,1a7.41,7.41,0,0,1-1.49,4.44c.24-.13,1.27-1.12,1.26-.27.56-1.77-.22-.92.91-3.2s2.12-5.73,4.87-8.79A73.52,73.52,0,0,1,78.59,59.64a23.86,23.86,0,0,0,3.35-2.54,52.16,52.16,0,0,1,6.4-4.66c2.29-1.41,5.2-4.39,7.85-5.59a13.87,13.87,0,0,1,1.55-1.39C98.24,45.13,98.58,45,99.05,44.74Z"></path>
      <path class="cls-26" d="M107,36.36c-.8,1-1.37,1.56-2.22,2.69a20.22,20.22,0,0,1-4.28,4.12c-1.07.53-4.47,1.82-4.38.53s1.34-2.7,2.67-3.55,5.13-2.45,6.21-3a10.36,10.36,0,0,1,1.14-.57C106.62,36.28,106.51,36.48,107,36.36Z"></path>
      <path class="cls-27" d="M62.42,80.2a48.54,48.54,0,0,0,3-5.18,33.52,33.52,0,0,1,5.19-7.27c2.22-2.33,3.94-4.44,7.22-6.48a125.38,125.38,0,0,0,11.09-8.21c3.29-2.68,8.41-6.29,11.84-7.74s6.86-1.39,9.29-2.57,5.58-1.5,6.44-3.34-1-3.78-2.09-4.85a7.46,7.46,0,0,0-4-1.72c-1.5-.32-3.12-1.5-4.64-1.62s-3.12-.13-3.93,1.21-.56,2.47-2.13.94c.2-.78.5-.92,1.13-1.69s-.41-1.74-1.22-1.85-.06-.29,0-.49.06-.48-.56-.48-2.17-.24-2.47.84-1.2,3.16-2.31,1.86-1.86-1.59-2.46-.37-.41,1.31-1.16.84-1.55-1-1.78.23-.52,1-1.54,1.07c-.36,0-.33.21-.77.35s-1.69-.21-2.3,0-1.49.78-1.4,1.22.57,1.41-.1,1.15-.88-1.2-1.75-.7S80,36.8,80.74,36.9s.63.25,0,.53a1.77,1.77,0,0,0-1.09,1.79c.06,1-.54,2.94-1.8,1.79.11-.66,0-1.56-.83-1.48s-.6,1-1.18,1.35A1.11,1.11,0,0,0,75.15,42c-.06.55.25.56-.43.51a1.28,1.28,0,0,1-1.23-.78c-.27-.52-.58.24-.74.64s-.89,1.42-.38,1.91.41,1.06-.27,1-1.52-.68-1.37.4c0,.16.13.31.5.43s.8.28.32.93-.42-.1-1,.3.22.71.26,1.62-.51,1.45-2.1,2,0,.36.76.55a.8.8,0,0,1,.35,1.36,2.32,2.32,0,0,1-2,.65c-.73-.18-1.67-.33-.59.34s1.81,1.21.4,1.56c-.16,0-.22.09-.53-.19s-.72-.33-.28.47a4.54,4.54,0,0,1,.77,2.61,3,3,0,0,1-1.07,1.92c-.52.42-.38.35-.28.89s-.29.27-.59.52-.09.61-.09,1-.76,1-.92,1.35-.27.88-.53.47-1.32-2-1.25-1.23.41,1,.11,1.58-.61.91-.41,1.67.35,1.49-.68,1.3-1.49-.19-1.47.86a2.34,2.34,0,0,0,.89,1.9c.47.49.62.46.28.93s-.29.69.09,1,.24.29-.19.62-.05.19-.44,1.19S59.21,77.65,59,79s-.1,3.14-.63,4.16-.57,1.21.26,1.21.59-.35,1.12-.51.69-1.08,1.16-1.56A10.43,10.43,0,0,0,62.42,80.2Z"></path>
      <path class="cls-20" d="M74.33,62.56l3.13-2.33A34.83,34.83,0,0,0,80.67,58a41.9,41.9,0,0,1,6.07-4.93A72.42,72.42,0,0,0,93,48.5a15.11,15.11,0,0,1,3.44-1.93,36.74,36.74,0,0,1,3.73-1.2l0,.06c-2.41,1-4.86,1.87-6.83,3.55A49,49,0,0,1,87,53.52a41.63,41.63,0,0,0-6.13,4.76,36,36,0,0,1-3.3,2.1l-3.19,2.23Z"></path>
      <path class="cls-20" d="M113.91,41.11a17.24,17.24,0,0,1-4.72,1.35c-.41,0-.82.06-1.23.09a8.25,8.25,0,0,0-1.21.2c-.8.18-1.57.45-2.35.7-1.55.58-3.21.75-4.77,1.23s-2.73,1.69-4.07,2.64l-.13-.19c1.32-.9,2.5-2.21,4.16-2.61s3.23-.61,4.77-1.17c.79-.25,1.57-.51,2.37-.68a8.58,8.58,0,0,1,1.22-.19c.42,0,.82,0,1.23-.07A17.77,17.77,0,0,0,113.91,41.11Z"></path>
      <path class="cls-20" d="M60.44,82.58a12.68,12.68,0,0,1,.71-3.26c.39-1,.84-2.07,1.33-3.08a34.48,34.48,0,0,1,3.39-5.77c.71-.89,1.54-1.61,2.16-2.53a2.86,2.86,0,0,0,.41-.68,2.88,2.88,0,0,1,.19-.83c.26-.51.58-1,.84-1.45a2.35,2.35,0,0,0,.38-1.49A8.61,8.61,0,0,0,69.14,62a12.45,12.45,0,0,1-.77-1.5,4.36,4.36,0,0,1-.15-1.7h.3a3.3,3.3,0,0,1,0,.44,2.51,2.51,0,0,0,0,.39,2,2,0,0,0,.14.77,12.77,12.77,0,0,0,.74,1.48,7.82,7.82,0,0,1,.73,1.54,2.57,2.57,0,0,1-.41,1.68c-.27.5-.6,1-.84,1.44-.15.23-.09.45-.18.79a4.22,4.22,0,0,1-.44.75c-.64.93-1.51,1.67-2.19,2.53a34.15,34.15,0,0,0-3.4,5.71A22.83,22.83,0,0,0,60.44,82.58Z"></path>
      <path class="cls-20" d="M67.61,62.14A3.59,3.59,0,0,1,68,60.91a2,2,0,0,0,.29-.53c.06-.2.08-.41.14-.61a2.67,2.67,0,0,1,0,.63,1.35,1.35,0,0,1-.27.58A6.23,6.23,0,0,0,67.61,62.14Z"></path>
      <path class="cls-20" d="M60.49,82a1.64,1.64,0,0,0-1.26.65l0,0,0-.06a12.61,12.61,0,0,0,1.41-3.14c.12-.57,0-1.15,0-1.74a5.94,5.94,0,0,1,.55-1.65c.49-1.06,1.21-2,1.65-3.06a1.16,1.16,0,0,0,.11-.78c-.12-.2-.44-.3-.66-.5a.72.72,0,0,1-.28-.38.52.52,0,0,1,.11-.47c.17-.25.5-.4.45-.63a1.57,1.57,0,0,1-.12-.43,1,1,0,0,1,.08-.46.49.49,0,0,1,.37-.32,1,1,0,0,1,.46.08.53.53,0,0,0,.7-.08.79.79,0,0,0,.13-.74c-.09-.23-.29-.5-.39-.77a1.32,1.32,0,0,1-.15-.91c.11-.22.36-.17.49-.13a3.89,3.89,0,0,1,.41.16c.25.1.6.2.62,0,.1-.51-.39-1-.16-1.73.23-.34.63-.26.9-.23a1.41,1.41,0,0,0,.37,0c0,.08,0-.14-.14-.23a1.67,1.67,0,0,1-.37-.84.49.49,0,0,1,.31-.43,1.1,1.1,0,0,1,.47,0c.29,0,.57,0,.7-.21a6.23,6.23,0,0,0,.33-.79,3.21,3.21,0,0,1-.21.85c-.14.33-.57.37-.83.34s-.54,0-.56.28a1.5,1.5,0,0,0,.33.72,1,1,0,0,1,.12.2.26.26,0,0,1,0,.14.16.16,0,0,1-.11.18,1.06,1.06,0,0,1-.48,0c-.27,0-.6-.06-.7.13-.18.47.26,1,.18,1.67a.37.37,0,0,1-.43.28,1.76,1.76,0,0,1-.45-.12l-.39-.16c-.13,0-.26,0-.28,0a1.3,1.3,0,0,0,.15.76c.11.28.26.48.39.79a.93.93,0,0,1-.16.89.69.69,0,0,1-.89.13c-.58-.36-.89.45-.58,1a.5.5,0,0,1-.19.45,2,2,0,0,0-.29.3c-.2.22-.09.48.14.65s.5.25.7.55A1.28,1.28,0,0,1,63,73c-.47,1.09-1.19,2-1.67,3.06a6.1,6.1,0,0,0-.56,1.62c-.1.56.07,1.15-.07,1.73a12.64,12.64,0,0,1-1.46,3.14h0A1.64,1.64,0,0,1,60.49,82Z"></path>
      <path class="cls-20" d="M68.3,67.59a4,4,0,0,1,1.47-1.35,3.85,3.85,0,0,0-1.28,1.47Z"></path>
      <path class="cls-20" d="M72,64.39a6.57,6.57,0,0,0,1.49-3.58,10.59,10.59,0,0,0-.34-3.88,25.93,25.93,0,0,0-1.52-3.62,8.44,8.44,0,0,1-.92-3.86H71a8.22,8.22,0,0,0,.83,3.76,25.93,25.93,0,0,1,1.45,3.67,10.42,10.42,0,0,1,.27,3.93A6.57,6.57,0,0,1,72,64.39Z"></path>
      <path class="cls-20" d="M75.38,61.83a28.28,28.28,0,0,1,.51-3.3A5,5,0,0,1,76.58,57a2.94,2.94,0,0,0,.56-1.53,2.72,2.72,0,0,0-.59-1.5c-.32-.45-.69-.87-1-1.31a3.91,3.91,0,0,1-.82-1.46,3.85,3.85,0,0,1,0-1.69c.19-1.09.3-2.19.56-3.3a4.37,4.37,0,0,1,.65-1.57,6.22,6.22,0,0,1,1.26-1.14A3.89,3.89,0,0,1,80.41,43l.19,0c.05,0,.15,0,.07,0s0,0-.07,0l-.13-.13a8,8,0,0,0-.65-.5,10.28,10.28,0,0,0-1.39-.84l.09-.29a10.33,10.33,0,0,1,1.46.9c.23.17.45.34.67.53l.16.16a.52.52,0,0,1,.07.11.19.19,0,0,1,0,.23c-.18.16-.24.07-.33.08l-.21,0a3.66,3.66,0,0,0-3.1.46A5.74,5.74,0,0,0,76,44.79a4.2,4.2,0,0,0-.63,1.48c-.27,1.06-.39,2.19-.6,3.28a3.84,3.84,0,0,0,0,1.62,4.15,4.15,0,0,0,.79,1.44c.34.43.71.85,1,1.31a2.79,2.79,0,0,1,.58,1.56A2.85,2.85,0,0,1,76.62,57a5.55,5.55,0,0,0-.7,1.5A30.08,30.08,0,0,0,75.38,61.83Z"></path>
      <path class="cls-20" d="M72.37,43.18a1.38,1.38,0,0,0,.68,1.1,6.84,6.84,0,0,1,1,1,3.56,3.56,0,0,1,.67,1.2A2.44,2.44,0,0,1,75,47.76h0a2.86,2.86,0,0,0-.45-1.26,3.94,3.94,0,0,0-.63-1.18,6.69,6.69,0,0,0-.93-1,1.44,1.44,0,0,1-.65-1.15Z"></path>
      <path class="cls-20" d="M68.36,58.84a.69.69,0,0,1,.36-.15.78.78,0,0,1,.36.16c.21.22.39.06.53-.15.23-.4.49-.94.14-1.29a1.93,1.93,0,0,0-1.25-.58,2.58,2.58,0,0,1-1.38-.66l0,0a3.46,3.46,0,0,0,1.42.39,2,2,0,0,1,1.39.75,1.34,1.34,0,0,1,.18.38,1,1,0,0,1,0,.42,2.14,2.14,0,0,1-.35.71.83.83,0,0,1-.32.26c-.16.07-.31-.06-.38-.13a.64.64,0,0,0-.31-.17.76.76,0,0,0-.35.11Z"></path>
      <path class="cls-20" d="M80.79,58.06a4.26,4.26,0,0,1,.4-3.53c.73-1,1.74-1.65,2.51-2.53a3.25,3.25,0,0,0,.85-1.46,3.16,3.16,0,0,0,0-.86,6.76,6.76,0,0,1,0-.9,8.38,8.38,0,0,1,1.38-3.28,4.07,4.07,0,0,0,.48-1.66,9.67,9.67,0,0,1,.06-1.78A7.28,7.28,0,0,1,88.22,39a7.23,7.23,0,0,0,1.13-1.35A3.23,3.23,0,0,0,89.78,36a4.41,4.41,0,0,0-.47-1.69,3.4,3.4,0,0,1-.41-1.71,3.26,3.26,0,0,0,.43,1.7,4.44,4.44,0,0,1,.49,1.7,3.23,3.23,0,0,1-.42,1.72,7.42,7.42,0,0,1-1.13,1.37,7.3,7.3,0,0,0-1.74,3,10.28,10.28,0,0,0,0,1.76A4.19,4.19,0,0,1,86,45.57a8.06,8.06,0,0,0-1.32,3.22,5.06,5.06,0,0,0,0,.87,3.4,3.4,0,0,1,0,.91,3.48,3.48,0,0,1-.88,1.58c-.78.9-1.8,1.59-2.46,2.53A4,4,0,0,0,81.08,58Z"></path>
      <path class="cls-20" d="M75.07,52a5.6,5.6,0,0,1,2.28-4.76l.55-.4c.17-.13.4-.26.45-.43a10.84,10.84,0,0,0-.3-1.3,2.17,2.17,0,0,1,.23-1.39,2.84,2.84,0,0,1,1-1l.12.19a2.62,2.62,0,0,0-1,.89,1.9,1.9,0,0,0-.23,1.26,10.23,10.23,0,0,1,.27,1.36c-.1.28-.34.36-.51.5l-.56.39A5.56,5.56,0,0,0,75.07,52Z"></path>
      <path class="cls-20" d="M77.31,55.65a8,8,0,0,0,1.82-1.75,3.13,3.13,0,0,0,.53-2.37c-.22-1.67-1.18-3.19-1.32-4.9.27,1.68,1.18,3.17,1.47,4.87a3.23,3.23,0,0,1-.6,2.45A6.7,6.7,0,0,1,77.31,55.65Z"></path>
      <path class="cls-28" d="M84.66,50.05c-.51-1.39-1.58-3.93-2.69-4.7s-1.11-1.2-1.6-2.25"></path>
      <path class="cls-20" d="M79.81,51.73c.36-.81.64-1.65,1-2.44s1-1.46,1.36-2.26a11.86,11.86,0,0,1,1.34-2.28,3.73,3.73,0,0,0,.4-.51.58.58,0,0,0-.08-.58,5.76,5.76,0,0,0-.87-1l-.08-.08H83a3.82,3.82,0,0,0,1.26-.46,2.71,2.71,0,0,0,1-.83c.13-.19,0-.35-.14-.53s-.3-.34-.46-.49a1.9,1.9,0,0,0-.55-.35,1.13,1.13,0,0,0-.63,0,4.11,4.11,0,0,1-.71,0,.44.44,0,0,1-.37-.18.38.38,0,0,1,.11-.4,3.69,3.69,0,0,1,.52-.44c.05.07,0,0-.16,0l-.33,0a5.54,5.54,0,0,1-1.37-.27.89.89,0,0,1-.54-.52,1,1,0,0,1,.07-.74l.2.09a.93.93,0,0,0-.07.58.75.75,0,0,0,.42.4,5.54,5.54,0,0,0,1.31.27l.35,0a.76.76,0,0,1,.18.06.19.19,0,0,1,.11.08.17.17,0,0,1,0,.19,4.43,4.43,0,0,0-.53.43c-.16.19-.11.28.14.3a3.71,3.71,0,0,0,.66,0,1.36,1.36,0,0,1,.72,0,1.84,1.84,0,0,1,.59.39,4.51,4.51,0,0,1,.47.51,1.76,1.76,0,0,1,.21.3.48.48,0,0,1-.06.39,2.68,2.68,0,0,1-1.08.87A3.93,3.93,0,0,1,83,42.7l0-.09a6,6,0,0,1,.87,1,.67.67,0,0,1,.08.67,3.08,3.08,0,0,1-.42.52,11.17,11.17,0,0,0-1.35,2.26c-.38.8-1,1.44-1.39,2.24S80.18,50.92,79.81,51.73Z"></path>
      <path class="cls-28" d="M85.34,40.83a6.94,6.94,0,0,1-3.48-.1c-.24-.12-.43-.09-.81.08s-1.22,1-1.83.84"></path>
      <path class="cls-29" d="M84.75,40.36a1.78,1.78,0,0,1,.07-1.88,2.34,2.34,0,0,0,.51-2.26c-.36-.73-1.54-1.88-1-2.53"></path>
      <path class="cls-28" d="M81.91,45.28a5.38,5.38,0,0,0-3.23,3.1"></path>
      <path class="cls-20" d="M86.59,41.52c-.07-.37-.07-.75-.17-1.1s-.31-.64-.44-1a4.28,4.28,0,0,1,.26-2.24,3.72,3.72,0,0,1,.54-1c.23-.29.46-.58.67-.88a5.89,5.89,0,0,0,.59-.91c.15-.31.3-.7.06-1l0,0c.33.27.24.76.11,1.1a4.91,4.91,0,0,1-.54,1c-.21.31-.45.6-.69.89a3.46,3.46,0,0,0-.53.92,3.9,3.9,0,0,0-.34,2.12c.08.33.31.67.38,1s.06.75.11,1.12Z"></path>
      <path class="cls-20" d="M91.14,32.38a1.46,1.46,0,0,0,.1.78,5.12,5.12,0,0,0,.59.55,12.67,12.67,0,0,1,1.23,1.08,2.81,2.81,0,0,1,.81,1.43,1.87,1.87,0,0,1-.52,1.55,2.53,2.53,0,0,1-1.47.76,2.15,2.15,0,0,0-1.43.59,5,5,0,0,0-1,1.23,4.87,4.87,0,0,0-.32.73,2.08,2.08,0,0,1-.5.7,2,2,0,0,0-.38,2.75c.29.45.62.89.9,1.36a2.4,2.4,0,0,1,.29,1.67,13.23,13.23,0,0,1-2.84,5.86l0,0a14.22,14.22,0,0,0,1.63-2.8,11,11,0,0,0,.93-3.07,2.09,2.09,0,0,0-.24-1.48c-.28-.47-.6-.89-.9-1.37A2.36,2.36,0,0,1,87.59,43a1.79,1.79,0,0,1,.28-.82,3.07,3.07,0,0,1,.58-.61A1.93,1.93,0,0,0,88.9,41a3.91,3.91,0,0,1,.35-.75A4.84,4.84,0,0,1,90.33,39a2.89,2.89,0,0,1,.71-.46,2.65,2.65,0,0,1,.81-.16,2.34,2.34,0,0,0,1.39-.69,1.77,1.77,0,0,0,.51-1.44A2.69,2.69,0,0,0,93,34.85a13.72,13.72,0,0,0-1.2-1.09,4,4,0,0,1-.59-.58c-.17-.24-.09-.54-.1-.81Z"></path>
      <path class="cls-20" d="M89.06,40.91A13,13,0,0,0,92,39.75a3.53,3.53,0,0,0,1.75-2.44c.21-1-.2-2.09.15-3.16a3.39,3.39,0,0,0,0-3h0a3.29,3.29,0,0,1,.16,3.08c-.32,1,.06,2.06-.18,3.13A3.65,3.65,0,0,1,92,39.84a12.77,12.77,0,0,1-3,1.09Z"></path>
      <path class="cls-20" d="M102.17,44a14.07,14.07,0,0,0,2.59-1.4,5.35,5.35,0,0,0,2-2.08,7,7,0,0,1,.72-1.31c.31-.4.77-.63,1.09-1a1.11,1.11,0,0,0,.19-1.3.92.92,0,0,0-1.08-.65c-.49,0-.8.44-1.15.79a10.19,10.19,0,0,0-1,1.11c-.6.8-1.3,1.49-1.89,2.27a11.34,11.34,0,0,1-2.08,2.13A8.79,8.79,0,0,1,99,43.89a5.62,5.62,0,0,1-1.48.28,2.12,2.12,0,0,1-.78-.1.77.77,0,0,1-.53-.63A2.48,2.48,0,0,1,96.71,42a10.45,10.45,0,0,1,1-1.15c1.47-1.45,3.37-2.06,5.14-3a21.62,21.62,0,0,0,2.66-1.27,2.18,2.18,0,0,1,1.49-.36l0,0c.13.26-.13.2-.07.2h-.07l-.08,0-.18,0-.37-.07a5.94,5.94,0,0,1-.72-.21,1.56,1.56,0,0,1-.65-.42,1,1,0,0,1-.22-.76,4.69,4.69,0,0,1,.51-1.4,2,2,0,0,0,.31-1.38,1.73,1.73,0,0,0-1.1-.86v0a1.78,1.78,0,0,1,1.17.87,2.09,2.09,0,0,1-.26,1.45A4.77,4.77,0,0,0,104.8,35a1,1,0,0,0,.77,1,5.56,5.56,0,0,0,.7.19l.37.06.18,0,.09,0h0c.06,0-.18-.06-.06.2h0a1.9,1.9,0,0,0-1.31.37,24.22,24.22,0,0,1-2.65,1.32l-2.67,1.26L99,40.15a3.55,3.55,0,0,0-1.11.9,11,11,0,0,0-.94,1.11,2.19,2.19,0,0,0-.51,1.24c0,.43.59.53,1,.52a5.31,5.31,0,0,0,1.41-.26,8.43,8.43,0,0,0,2.6-1.29,11.27,11.27,0,0,0,2.06-2.08c.6-.79,1.32-1.48,1.91-2.25a10.39,10.39,0,0,1,1-1.12c.18-.18.35-.35.54-.52a1.46,1.46,0,0,1,.71-.31,1.08,1.08,0,0,1,.76.14,1.18,1.18,0,0,1,.47.61,1.47,1.47,0,0,1,.12.75,1.35,1.35,0,0,1-.35.68c-.35.38-.8.6-1.1,1a6.64,6.64,0,0,0-.71,1.28,5.47,5.47,0,0,1-2.07,2.09A14.78,14.78,0,0,1,102.18,44Z"></path>
      <path class="cls-20" d="M116.72,39.4a1.87,1.87,0,0,1-1.3.64,2.18,2.18,0,0,1-1.31-.69c-.35-.34-.69-.7-1-1a1.47,1.47,0,0,0-.56-.38,1.69,1.69,0,0,0-.68,0,5.88,5.88,0,0,0-2.68,1,15.64,15.64,0,0,0-2.3,1.77l0,0a9.44,9.44,0,0,1,2.18-2,6.46,6.46,0,0,1,1.34-.67,5.77,5.77,0,0,1,1.47-.27,2,2,0,0,1,.77.07,1.64,1.64,0,0,1,.63.46c.34.35.66.72,1,1.06a2.08,2.08,0,0,0,1.2.71,1.81,1.81,0,0,0,1.28-.58Z"></path>
      <path class="cls-29" d="M113.6,38.71a2.35,2.35,0,0,0-2.2-2.2c-1.14-.12-2.57.39-2.59-1s.92-2.38-1-2.65c-.21,0-.59.11-.9.11s-.55-.28-.67-.67-.27-1-.78-1.09"></path>
      <path class="cls-27" d="M102.73,38.09a3.42,3.42,0,0,0,.43-2.18c-.18-.67-.5-.42.13-1.27s1.67-2.36-.09-3.25"></path>
      <path class="cls-27" d="M100.11,39.35c.67-.7,1.2-1.25.78-2.32s1-2.33,1.15-3.18-.12-.77-.21-1.46"></path>
      <path class="cls-27" d="M89.28,47.75a36.14,36.14,0,0,1,3.33-2.6c1-.67,3.56-1.16,3.1-2.66a3.46,3.46,0,0,1,1.34-3.83c1-.55,2.45-2.28,1.53-2.62s-1.28-.57-1.6-1.37a3.52,3.52,0,0,1,.09-2.36c.23-.68-.22-1,.23-1.62s1.55-.7,2.24-.86"></path>
      <path class="cls-27" d="M100.79,30.38a4,4,0,0,0-1.34,1.14c-.5.71-.37,1.47-1.06,2.09a2.35,2.35,0,0,1-1.55.32"></path>
      <path class="cls-26" d="M60.36,88.12c.33-1.61.23-2.45.7-4.28s.83-4.48,3.55-6.67A11.14,11.14,0,0,1,69,74.75c1.67-.55,2.18,2.57,4.58,5.24C76.7,83.42,83.77,85.83,87,82.58a3.83,3.83,0,0,0,.64-4.46c-1-2.31-.26-1.39.94-3.11,0,0,1.81-2.35.47-4.48-2-3.15-7.63-4.26-10.66-3.63a15.77,15.77,0,0,0-8.55,5.6c-.92,1.37-3.83,1.85-6.09,4-1.73,1.66-4.25,4.31-4.09,6-1-4.09-3-6.75-6.15-9.74-.17-3.38-3-6.31-3.47-6.89a12.34,12.34,0,0,0-8.11-3.22c-3.21.2-6.84,1.64-8.13,4.43-1,2,1.73,3.21,1.17,4-1,1.3-2.06,1.66-2.11,3.41-.1,3,2,4.54,4.8,5.23s9.08-1.39,10.6-2.12c2.8-1.34,3.25-1.33,4.62-3.13,4,3,5.58,9.37,6.07,13.53S60,89.73,60.36,88.12Z"></path>
      <path class="cls-20" d="M69.66,75.49a13,13,0,0,0,4.11,4.67c.83.63,1.7,1.22,2.59,1.77a11.93,11.93,0,0,0,2.8,1.32,10,10,0,0,0,6,.25,4.28,4.28,0,0,0,2.25-1.8,3.42,3.42,0,0,0,.29-1.45c0-.53,0-1.06.1-1.59h.06c0,1,.37,2.09,0,3.23a3.46,3.46,0,0,1-1,1.33,5,5,0,0,1-1.42.9,9.5,9.5,0,0,1-6.4-.37,12.65,12.65,0,0,1-2.86-1.46c-.88-.59-1.74-1.2-2.57-1.88a13.23,13.23,0,0,1-4-4.89Z"></path>
      <path class="cls-20" d="M89,70.54a8.18,8.18,0,0,0-3.43-2.6,12.52,12.52,0,0,0-4.2-1,12.21,12.21,0,0,0-8.14,2.46,16.08,16.08,0,0,0-3.09,3,3.9,3.9,0,0,1-.68.89,4.43,4.43,0,0,1-1,.54,13.5,13.5,0,0,0-2,.87,20.2,20.2,0,0,0-3.58,2.44,8,8,0,0,0-2.52,3.46h0a7.39,7.39,0,0,1,2.39-3.63,16.41,16.41,0,0,1,3.58-2.55,14.3,14.3,0,0,1,2-.87,3.94,3.94,0,0,0,.94-.47,3.5,3.5,0,0,0,.64-.83,17,17,0,0,1,3.18-3,12.36,12.36,0,0,1,8.28-2.42,12.54,12.54,0,0,1,4.22,1.1,8.32,8.32,0,0,1,3.43,2.66Z"></path>
      <path class="cls-20" d="M59.73,82.53a25.1,25.1,0,0,0-2.47-5.27A18,18,0,0,0,53.38,73l-.05,0v-.07a13.88,13.88,0,0,0-3.46-6.58,10.85,10.85,0,0,0-6.56-3.2,11.57,11.57,0,0,0-3.71.18,10.8,10.8,0,0,0-3.41,1.49,5.55,5.55,0,0,0-2.4,2.74A2.17,2.17,0,0,0,34,69.27a9.58,9.58,0,0,1,1,1.62h0a10.16,10.16,0,0,0-1-1.59,2.3,2.3,0,0,1-.31-1.84,5.5,5.5,0,0,1,2.4-2.89A10.84,10.84,0,0,1,39.53,63a11.55,11.55,0,0,1,3.8-.23,10.83,10.83,0,0,1,6.74,3.32,14.23,14.23,0,0,1,3.45,6.73v0a17.54,17.54,0,0,1,3.87,4.37,24.8,24.8,0,0,1,2.38,5.34Z"></path>
      <path class="cls-20" d="M34.24,71.77a22.73,22.73,0,0,0-1.12,2.28,3.86,3.86,0,0,0,.4,2.32,5.6,5.6,0,0,0,3.68,2.88,8.17,8.17,0,0,0,2.44.15c.85,0,1.69-.16,2.53-.26s1.69-.28,2.52-.47,1.68-.38,2.51-.63l0,0a28,28,0,0,1-5,1.42,22.32,22.32,0,0,1-2.57.34,8.35,8.35,0,0,1-2.59-.13,5.84,5.84,0,0,1-3.9-3.2,4,4,0,0,1-.3-2.54,20.74,20.74,0,0,1,1.32-2.23Z"></path>
      <path class="cls-30" d="M55.21,100.37a1.36,1.36,0,0,0-1.3-.48c-.72.23-1,.8-.89,1a3.4,3.4,0,0,0,.27.27c.18.18.57-.32.58-.33Z"></path>
      <path class="cls-9" d="M55.59,101.25s-.22-1-.6-1-.79-.07-.79-.07l-.1.18s.36.65.51.7l.5.15C55.17,101.23,55.59,101.25,55.59,101.25Z"></path>
      <path class="cls-10" d="M55.56,101.37c0-.09.09-.31-.14-.38a3.5,3.5,0,0,0-.48-.1s-.59.45-.71.51-.19.07.15.17.33.19.65.15A.9.9,0,0,0,55.56,101.37Z"></path>
      <path class="cls-11" d="M54.94,100.89a5.39,5.39,0,0,0-.44.42c-.17.21-.2.27-.41.16s-.75-.18-.89-.38-.13-.19,0-.44a1.09,1.09,0,0,1,.7-.42.61.61,0,0,1,.69.15A1.66,1.66,0,0,1,54.94,100.89Z"></path>
      <path class="cls-30" d="M39.54,88.77a2,2,0,0,0-2-.29c-1,.54-1.2,1.45-1,1.71a3.83,3.83,0,0,0,.47.31c.31.2.71-.64.73-.64Z"></path>
      <path class="cls-9" d="M40.35,89.91s-.62-1.35-1.16-1.25A11.54,11.54,0,0,1,38,88.8l-.09.29s.72.82,1,.85.66,0,.76.06A5,5,0,0,0,40.35,89.91Z"></path>
      <path class="cls-10" d="M40.35,90.09c0-.13,0-.47-.32-.5a5.12,5.12,0,0,0-.73,0s-.71.83-.85,1-.26.15.26.19.54.17,1,0A1.36,1.36,0,0,0,40.35,90.09Z"></path>
      <path class="cls-11" d="M39.3,89.59a8,8,0,0,0-.49.74c-.18.35-.21.45-.54.36s-1.13,0-1.39-.28-.25-.22-.08-.63a1.55,1.55,0,0,1,.87-.83.91.91,0,0,1,1,0A2.34,2.34,0,0,1,39.3,89.59Z"></path>
      <path class="cls-30" d="M48.24,89.78s-4.17-2.08-7.08.46S38.1,96,39.1,96.74a12.13,12.13,0,0,0,1.83.73c1.2.45,2-2.69,2-2.73S48.24,89.78,48.24,89.78Z"></path>
      <path class="cls-9" d="M51.8,93.07S48.71,88.93,47,89.65,43.13,91,43.13,91L43,92s3,2.27,3.85,2.2,2.25-.34,2.6-.34A17.34,17.34,0,0,0,51.8,93.07Z"></path>
      <path class="cls-10" d="M51.92,93.7c0-.46-.21-1.65-1.45-1.48a17.79,17.79,0,0,0-2.46.52s-1.82,3.31-2.23,3.88-.78.69,1,.46,2,.18,3.33-.64A4.65,4.65,0,0,0,51.92,93.7Z"></path>
      <path class="cls-11" d="M48,92.74a21.52,21.52,0,0,0-1.14,2.88c-.38,1.31-.39,1.67-1.59,1.61s-3.87.7-4.94,0-1-.58-.72-2.11,1-2.23,2.37-3.41A3.11,3.11,0,0,1,45.52,91,8.18,8.18,0,0,1,48,92.74Z"></path>
      <path class="cls-30" d="M62.66,90.65s-3.5-2.06-6.18,0-3,4.85-2.18,5.53a12.57,12.57,0,0,0,1.54.74c1,.46,1.86-2.22,1.92-2.25S62.66,90.65,62.66,90.65Z"></path>
      <path class="cls-9" d="M65.55,93.72s-2.44-3.78-4-3.26a34.92,34.92,0,0,1-3.4.91l-.16.91s2.5,2.14,3.21,2.13,2-.15,2.28-.13A15.34,15.34,0,0,0,65.55,93.72Z"></path>
      <path class="cls-10" d="M65.61,94.28c0-.41-.08-1.44-1.17-1.38a16.28,16.28,0,0,0-2.17.31S60.49,96,60.11,96.44s-.72.56.86.46,1.69.28,2.93-.35A4.1,4.1,0,0,0,65.61,94.28Z"></path>
      <path class="cls-11" d="M62.27,93.21a19.16,19.16,0,0,0-1.16,2.43c-.4,1.11-.44,1.43-1.47,1.3s-3.41.38-4.29-.27-.85-.57-.5-1.87,1-1.88,2.25-2.83a2.71,2.71,0,0,1,3.11-.43A6.84,6.84,0,0,1,62.27,93.21Z"></path>
      <path class="cls-30" d="M71.91,87s-3.44-2.66-6.57-.86-3.85,4.77-3.06,5.59a11.2,11.2,0,0,0,1.54,1c1,.63,2.27-2.11,2.34-2.14S71.91,87,71.91,87Z"></path>
      <path class="cls-9" d="M74.58,90.62s-2.09-4.36-3.83-4-3.74.51-3.74.51l-.3.94s2.38,2.63,3.13,2.71,2.13.1,2.45.16A17,17,0,0,0,74.58,90.62Z"></path>
      <path class="cls-10" d="M74.58,91.22c0-.43.1-1.55-1.07-1.62a16.72,16.72,0,0,0-2.35,0s-2.27,2.71-2.74,3.16-.84.49.86.6,1.77.53,3.17,0A4.38,4.38,0,0,0,74.58,91.22Z"></path>
      <path class="cls-11" d="M71.16,89.63a20.29,20.29,0,0,0-1.56,2.43c-.58,1.14-.66,1.47-1.75,1.19s-3.67,0-4.53-.86-.83-.72-.28-2.06,1.31-1.87,2.78-2.71a2.92,2.92,0,0,1,3.37,0A7.56,7.56,0,0,1,71.16,89.63Z"></path>
      <path class="cls-30" d="M74.59,98.11a2.1,2.1,0,0,0,1.91-1c.51-1,.18-2-.18-2a3.82,3.82,0,0,0-.59,0c-.39,0-.23,1-.25,1S74.59,98.11,74.59,98.11Z"></path>
      <path class="cls-9" d="M73.22,97.6s1.34.8,1.74.39.91-.8.91-.8l-.09-.31a4.06,4.06,0,0,0-1.32-.16c-.22.11-.59.35-.68.39A5.12,5.12,0,0,0,73.22,97.6Z"></path>
      <path class="cls-10" d="M73.11,97.44c.07.13.25.43.58.24a4.47,4.47,0,0,0,.62-.42s.12-1.13.17-1.34.14-.28-.34,0-.56.18-.85.57A1.37,1.37,0,0,0,73.11,97.44Z"></path>
      <path class="cls-11" d="M74.31,97.26a6.25,6.25,0,0,0,0-.93c0-.41-.08-.51.26-.63s1-.65,1.37-.58.35,0,.44.5a1.7,1.7,0,0,1-.26,1.22.94.94,0,0,1-.9.61A2.33,2.33,0,0,1,74.31,97.26Z"></path>
      <path class="cls-30" d="M41.76,98.85a2.67,2.67,0,0,0,2.52-1c.75-1.28.4-2.48-.05-2.62a7,7,0,0,0-.75,0c-.49,0-.38,1.22-.4,1.24S41.76,98.85,41.76,98.85Z"></path>
      <path class="cls-9" d="M40.07,98.09s1.63,1.12,2.18.64a14.76,14.76,0,0,1,1.23-.94l-.09-.4a5.25,5.25,0,0,0-1.67-.32c-.28.12-.77.39-.9.44A6.2,6.2,0,0,0,40.07,98.09Z"></path>
      <path class="cls-10" d="M40,97.87c.07.17.27.57.71.36a6.5,6.5,0,0,0,.82-.49s.26-1.43.34-1.68.2-.35-.43,0-.74.17-1.13.64A1.77,1.77,0,0,0,40,97.87Z"></path>
      <path class="cls-11" d="M41.48,97.74a8.2,8.2,0,0,0,.07-1.18c0-.53-.07-.66.37-.78s1.32-.74,1.8-.62.44.08.52.67a2.15,2.15,0,0,1-.44,1.54,1.22,1.22,0,0,1-1.2.7A3.09,3.09,0,0,1,41.48,97.74Z"></path>
      <path class="cls-30" d="M53.31,92.26a1.53,1.53,0,0,0,1.55.27c.77-.4,1-1.1.79-1.3a2,2,0,0,0-.36-.25c-.24-.16-.56.48-.58.48Z"></path>
      <path class="cls-9" d="M52.71,91.36s.45,1.06.87,1,.9-.08.9-.08l.08-.22s-.55-.65-.72-.68-.51,0-.58-.06A3.71,3.71,0,0,0,52.71,91.36Z"></path>
      <path class="cls-10" d="M52.71,91.22c0,.1,0,.36.24.39a4.5,4.5,0,0,0,.56,0s.57-.62.69-.72.2-.11-.2-.16-.42-.14-.76,0A1,1,0,0,0,52.71,91.22Z"></path>
      <path class="cls-11" d="M53.51,91.63a4.86,4.86,0,0,0,.4-.56c.15-.27.17-.35.43-.27s.87,0,1.07.25.19.18,0,.5a1.2,1.2,0,0,1-.69.61.68.68,0,0,1-.8,0A1.76,1.76,0,0,1,53.51,91.63Z"></path>
      <path class="cls-30" d="M67.34,98.19s3.92,1,5.88-1.75,1.46-5.48.49-5.88A11.82,11.82,0,0,0,72,90.29c-1.1-.14-1.13,2.64-1.18,2.7S67.34,98.19,67.34,98.19Z"></path>
      <path class="cls-9" d="M63.71,96.1S67.11,99,68.46,98s3-1.84,3-1.84l-.11-.91s-3-1.32-3.66-1.1-1.84.71-2.14.78A16,16,0,0,0,63.71,96.1Z"></path>
      <path class="cls-10" d="M63.49,95.59c.12.38.49,1.35,1.51,1a15.54,15.54,0,0,0,2-.92s.9-3.14,1.13-3.69.52-.74-1-.19-1.69.22-2.68,1.18A4,4,0,0,0,63.49,95.59Z"></path>
      <path class="cls-11" d="M67,95.64A19,19,0,0,0,67.38,93c.06-1.18,0-1.49,1-1.66s3.13-1.34,4.16-1,1,.3,1,1.64-.42,2.07-1.34,3.33a2.7,2.7,0,0,1-2.83,1.31A7,7,0,0,1,67,95.64Z"></path>
      <path class="cls-30" d="M49.28,95.92s2.35,1.33,4.11-.06,1.93-3.26,1.37-3.7a7.47,7.47,0,0,0-1-.47c-.68-.29-1.2,1.49-1.25,1.52S49.28,95.92,49.28,95.92Z"></path>
      <path class="cls-9" d="M47.32,93.92S49,96.4,50,96s2.24-.65,2.24-.65l.1-.6s-1.69-1.39-2.16-1.38-1.31.13-1.51.12A11.65,11.65,0,0,0,47.32,93.92Z"></path>
      <path class="cls-10" d="M47.27,93.55c0,.27.08,1,.8.9a10.94,10.94,0,0,0,1.43-.23s1.15-1.86,1.4-2.18.47-.38-.58-.29-1.13-.17-1.94.27A2.71,2.71,0,0,0,47.27,93.55Z"></path>
      <path class="cls-11" d="M49.5,94.22a11.58,11.58,0,0,0,.74-1.63c.26-.75.28-1,1-.89s2.25-.29,2.85.13.57.36.36,1.23A3.21,3.21,0,0,1,53,95a1.8,1.8,0,0,1-2.06.33A4.65,4.65,0,0,1,49.5,94.22Z"></path>
    </g>
  </g>
</svg>
