<?xml version="1.0" encoding="UTF-8"?>
<svg xmlns="http://www.w3.org/2000/svg" viewBox="0 0 108.89 324.2">
  <defs>
    <style>.cls-1{fill:#93c6ee;}.cls-2{fill:#c9e2f6;}.cls-3{fill:#aed4f2;}.cls-4{fill:#5d6266;}.cls-5{fill:#c8cbd2;}.cls-6{fill:#a8a7a8;}.cls-7{fill:#a79677;}.cls-8{fill:#bfaa86;}.cls-9{fill:#95876b;}.cls-10{fill:#af997c;opacity:0.25;}.cls-11{fill:#a09274;}.cls-12{fill:#837660;}.cls-13{fill:#fff;}.cls-14{fill:#a0753e;}.cls-15{fill:#50331b;}.cls-16{fill:#633f1a;}.cls-17{fill:#e3e0c9;}.cls-18{fill:#f9eacb;}.cls-19{fill:#d2c7a7;}.cls-20{fill:#877e75;}.cls-21{fill:#7daf40;}.cls-22{fill:#74ac40;}.cls-23{fill:#6aa241;}.cls-24{fill:#bc1856;}.cls-25{fill:#c83b6e;}.cls-26{opacity:0.15;}.cls-27{fill:#e8bbba;}.cls-28{fill:#a0c159;}.cls-29{fill:#93ba4b;}</style>
  </defs>
  <g id="Слой_2" data-name="Слой 2">
    <g id="Слой_1-2" data-name="Слой 1">
      <path class="cls-1" d="M31.43,56.07s-16.6,2.36-15.89,11c.7,8.39,11.22,9.22,13.8.49C31.65,59.69,31.43,56.07,31.43,56.07Z"></path>
      <path class="cls-2" d="M21.56,62.62c1.07-.73,3.5-2.41,4.4-3A27.18,27.18,0,0,1,29.23,58s2.2-1-2-.31-9,4.21-8.54,5C19.13,63.29,20.51,63.34,21.56,62.62Z"></path>
      <path class="cls-3" d="M24.32,69.88c-1,.72-1.5,1.68-1.16,2.14a2.13,2.13,0,0,0,2.67,0c1.11-.88,1.23-2.2.87-2.62S25.3,69.16,24.32,69.88Z"></path>
      <path class="cls-1" d="M91.25,54.26s2.36,16.6,11,15.88c8.39-.7,9.22-11.23.48-13.79C94.86,54,91.25,54.26,91.25,54.26Z"></path>
      <path class="cls-2" d="M97.8,64.12c-.73-1.06-2.42-3.49-3-4.39a27.18,27.18,0,0,1-1.65-3.27s-1-2.2-.3,2,4.21,9,5,8.54C98.47,66.56,98.52,65.17,97.8,64.12Z"></path>
      <path class="cls-3" d="M105.06,61.37c.72,1,1.67,1.49,2.13,1.16a2.13,2.13,0,0,0,0-2.67c-.89-1.12-2.2-1.24-2.63-.88S104.34,60.39,105.06,61.37Z"></path>
      <path class="cls-1" d="M62.62,58.54s-11.79,11.92-6,18.34c5.62,6.26,14.52.56,11.28-8C65,61.29,62.62,58.54,62.62,58.54Z"></path>
      <path class="cls-2" d="M58.73,69.72c.41-1.23,1.32-4,1.69-5A26.53,26.53,0,0,1,62,61.38s1.12-2.17-1.74.94-4.65,8.81-3.78,9.14C57.2,71.73,58.33,70.92,58.73,69.72Z"></path>
      <path class="cls-3" d="M65.32,73.83c-.35,1.17-.19,2.24.36,2.41a2.12,2.12,0,0,0,2.14-1.6c.35-1.38-.34-2.5-.89-2.62S65.66,72.67,65.32,73.83Z"></path>
      <rect class="cls-4" x="59.72" y="18.55" width="6.88" height="19.08" transform="translate(126.32 56.19) rotate(180)"></rect>
      <rect class="cls-4" x="57.95" y="38.7" width="10.43" height="4.95" rx="1.1" transform="translate(126.32 82.34) rotate(180)"></rect>
      <rect class="cls-4" x="56.72" y="11.66" width="12.9" height="5.83" transform="translate(126.34 29.16) rotate(180)"></rect>
      <rect class="cls-4" x="57.95" width="10.43" height="10.43" transform="translate(126.32 10.43) rotate(180)"></rect>
      <rect class="cls-5" x="60.55" y="38.85" width="2" height="4.64" transform="translate(123.1 82.34) rotate(180)"></rect>
      <rect class="cls-5" x="61.55" y="19.73" width="1.61" height="16.85" transform="translate(124.71 56.31) rotate(180)"></rect>
      <rect class="cls-5" x="59.72" y="12.19" width="1.83" height="4.59" transform="translate(121.27 28.98) rotate(180)"></rect>
      <rect class="cls-5" x="60.63" y="0.48" width="2.52" height="9.16" transform="translate(123.79 10.11) rotate(180)"></rect>
      <polygon class="cls-6" points="92.25 310.88 92.31 310.79 92.22 310.78 92.25 310.88"></polygon>
      <polygon class="cls-7" points="53.48 253.94 106.81 231.23 98.81 292.64 53.48 324.2 53.48 253.94"></polygon>
      <polygon class="cls-8" points="8 292.64 0 231.23 53.48 253.94 53.48 324.2 8 292.64"></polygon>
      <polygon class="cls-9" points="53.48 253.94 106.81 231.23 98.81 292.64 53.48 324.2 53.48 253.94"></polygon>
      <polygon class="cls-10" points="8 292.64 0 231.23 53.48 253.94 53.48 324.2 8 292.64"></polygon>
      <polygon class="cls-11" points="53.48 324.2 8 292.64 53.69 275.37 98.81 292.64 53.48 324.2"></polygon>
      <path class="cls-12" d="M17.66,265.64a16.4,16.4,0,0,1-1.38-8.9,14.14,14.14,0,0,1,3.95-8.25,19.69,19.69,0,0,1,7.85-4.67A33.44,33.44,0,0,1,37,242.23c-.73.17-1.47.32-2.2.47s-1.45.36-2.17.54-1.43.41-2.15.62-1.4.49-2.09.75A21.25,21.25,0,0,0,21,249.26a14.41,14.41,0,0,0-3.9,7.6,17.43,17.43,0,0,0-.23,4.39A16.87,16.87,0,0,0,17.66,265.64Z"></path>
      <path class="cls-12" d="M67.36,264.8c.14.22.44.3.68.42l.76.32c.51.2,1,.37,1.55.54,1,.34,2.1.64,3.15.94,2.12.57,4.25,1.09,6.39,1.51,4.3.89,8.64,1.45,13,2a48.34,48.34,0,0,1-13.25-.89,47.41,47.41,0,0,1-6.43-1.77q-1.57-.56-3.09-1.26c-.51-.25-1-.5-1.49-.77A3.72,3.72,0,0,1,67.36,264.8Z"></path>
      <path class="cls-12" d="M38.71,261.59a39.23,39.23,0,0,1-3.53,11.79,33.75,33.75,0,0,1-3.22,5.3,20.52,20.52,0,0,1-4.43,4.3,36.34,36.34,0,0,0,3.74-4.79,55.49,55.49,0,0,0,2.92-5.29c.88-1.81,1.66-3.68,2.42-5.57S38.06,263.54,38.71,261.59Z"></path>
      <path class="cls-12" d="M55.25,310.46c2.18-1.06,4.43-1.91,6.63-2.86s4.37-1.93,6.48-3a42,42,0,0,0,6-3.76,17.13,17.13,0,0,0,4.75-5.23,13.85,13.85,0,0,1-4.21,5.89,31.5,31.5,0,0,1-6.06,4.07,55.16,55.16,0,0,1-6.68,2.85c-1.14.41-2.3.76-3.45,1.1Z"></path>
      <path class="cls-12" d="M30.24,303.72a14.85,14.85,0,0,1-3.46-2.19,8.47,8.47,0,0,1-2.5-3.37A4.74,4.74,0,0,1,24,296a5.42,5.42,0,0,1,.66-2.12,9.91,9.91,0,0,1,2.89-3.11,28,28,0,0,1,7.38-3.67,57,57,0,0,1,7.9-2.06c-2.56.93-5.11,1.84-7.6,2.86a33.76,33.76,0,0,0-7,3.74,9.33,9.33,0,0,0-2.64,2.75,4.27,4.27,0,0,0-.45,3.52,8.24,8.24,0,0,0,2.06,3.25A17.42,17.42,0,0,0,30.24,303.72Z"></path>
      <path class="cls-12" d="M79.14,263.56l4-5.47c1.3-1.83,2.58-3.67,3.79-5.55a57.6,57.6,0,0,0,3.35-5.79,18.85,18.85,0,0,0,2.1-6.32A14.4,14.4,0,0,1,91,247.1a36.66,36.66,0,0,1-3.21,6A57.13,57.13,0,0,1,79.14,263.56Z"></path>
      <polygon class="cls-6" points="51.53 288.73 51.58 288.63 51.49 288.63 51.53 288.73"></polygon>
      <path class="cls-13" d="M48.39,284.55A29.53,29.53,0,0,1,44.22,288a31.31,31.31,0,0,0-4.1,3.43,36.71,36.71,0,0,0-6.53,8.51l-.09,0a32.73,32.73,0,0,1,6-9.06c.62-.67,1.27-1.32,2-1.93a13.43,13.43,0,0,1,2.14-1.7,30,30,0,0,1,4.73-2.74Z"></path>
      <path class="cls-13" d="M48.64,287a1.43,1.43,0,0,1-.51,1.36c-.29.35-.6.67-.92,1-.66.62-1.35,1.22-2,1.88q-1.85,2-3.66,4l-3.68,4c-1.22,1.32-2.47,2.63-3.65,4l0,0c1.11-1.43,2.29-2.8,3.45-4.19l3.53-4.11,3.56-4.08c.59-.68,1.11-1.43,1.66-2.15.28-.35.57-.7.88-1a1.47,1.47,0,0,1,1.31-.65Z"></path>
      <path class="cls-13" d="M50.28,287.91a4,4,0,0,1-1,2.42c-.5.7-1.06,1.37-1.58,2.07-1,1.4-2,2.79-3.16,4.12a35.42,35.42,0,0,1-3.68,3.67c-1.3,1.14-2.62,2.25-4,3.3l0-.05c1.31-1.12,2.57-2.3,3.8-3.5a34.49,34.49,0,0,0,3.49-3.77c1.08-1.33,2.07-2.74,3-4.16.47-.72.88-1.48,1.33-2.21s.81-1.52,1.77-1.93Z"></path>
      <path class="cls-13" d="M51.92,288.41a1.94,1.94,0,0,1-.24,1.25,6.72,6.72,0,0,1-.64,1c-.47.66-1,1.25-1.5,1.87-1,1.23-2,2.42-3.11,3.6-2.15,2.33-4.36,4.6-6.71,6.72l0-.05c1.11-1.12,2.17-2.29,3.23-3.47S45,297,46,295.79s2-2.41,3-3.66c.48-.63.9-1.29,1.33-1.94a5.6,5.6,0,0,1,1.52-1.8Z"></path>
      <path class="cls-13" d="M52.88,288.41a4.09,4.09,0,0,1-.32,2.1c-.21.66-.46,1.31-.69,2-.44,1.33-.86,2.66-1.38,4A7.83,7.83,0,0,1,48.1,300a15.82,15.82,0,0,1-3.76,1.9l0-.06a15.31,15.31,0,0,0,3.57-2.1A7.5,7.5,0,0,0,50,296.27c.46-1.31.83-2.65,1.24-4,.19-.67.37-1.35.59-2a4,4,0,0,1,1-1.88Z"></path>
      <path class="cls-13" d="M54.63,288.4a1.73,1.73,0,0,1,.39,1.47,9.87,9.87,0,0,1-.19,1.42c-.2.94-.47,1.86-.72,2.79a26.81,26.81,0,0,1-1.91,5.39,17.33,17.33,0,0,1-3.32,4.65,12.59,12.59,0,0,1-4.94,2.76l0-.06a12.29,12.29,0,0,0,4.72-2.95,16.67,16.67,0,0,0,3.07-4.63,24.75,24.75,0,0,0,1.75-5.32,19.9,19.9,0,0,0,.33-2.78c.06-.46.09-.92.17-1.38a1.86,1.86,0,0,1,.6-1.36Z"></path>
      <path class="cls-13" d="M56.43,288.39c.43,0,.47.17.55.33s.15.3.22.46.26.63.38.95l.71,1.92.76,1.9.38,1a4.51,4.51,0,0,1,.27,1,11.18,11.18,0,0,1-.27,4.16,8.45,8.45,0,0,1-1.88,3.65l0,0A8.22,8.22,0,0,0,59.1,300a10.72,10.72,0,0,0,.07-4,5.07,5.07,0,0,0-.27-.91l-.41-.94-.82-1.88-.87-1.86c-.14-.32-.29-.63-.41-.95l-.17-.48c-.06-.16-.14-.31.15-.62Z"></path>
      <path class="cls-13" d="M57.73,287.87c.64,0,.74.38,1,.67a9.11,9.11,0,0,1,.52.92c.31.64.6,1.28.92,1.91.66,1.25,1.31,2.51,1.9,3.8a11.33,11.33,0,0,1,.71,2,13.73,13.73,0,0,1,.32,2.12,9.87,9.87,0,0,1-.81,4.16l-.06,0a9.63,9.63,0,0,0,.53-4.11,14.7,14.7,0,0,0-.4-2,11.51,11.51,0,0,0-.78-1.9c-.61-1.26-1.3-2.48-2-3.7-.37-.59-.78-1.17-1.18-1.75-.2-.29-.38-.59-.55-.89s-.41-.57-.13-1.15Z"></path>
      <path class="cls-13" d="M59.07,287.24a3,3,0,0,1,1.91.81,19.72,19.72,0,0,1,1.58,1.32,12.28,12.28,0,0,1,2.64,3.19A19,19,0,0,1,67,300.47H67a20,20,0,0,0-2.24-7.65,11.41,11.41,0,0,0-2.6-2.94c-.52-.42-1.09-.77-1.64-1.15a9.19,9.19,0,0,1-.81-.58,1.76,1.76,0,0,1-.65-.86Z"></path>
      <path class="cls-14" d="M47.43,283.93s-1.74.42-1.27,1.48,3.38,3.6,6.56,3.85,5.54-.38,6.81-1.65.59-1.52-.93-1.65S48.19,284.44,47.43,283.93Z"></path>
      <path class="cls-15" d="M52.68,247.49s-2.92-2.62-3.22-2.71-.08,5.8,0,6.22S52.76,248.42,52.68,247.49Z"></path>
      <path class="cls-15" d="M49.46,250c-2.18,2.23-7.9,7.68-10.16,14.22s-.9,11.51,2.94,16.59,10.27,7.45,18.17,5.3,14-10.49,12-19.07-7.68-17.49-13.32-21.55S53.35,246.05,49.46,250Z"></path>
      <path class="cls-16" d="M46.71,252.87s-10.57,10.76-2.46,21.37c4.85,6.35,15.48,5.81,19.43,3s9.2-11.91,1-23.31-8.43-9.7-9.2-10-1.88.81-1.88.81-1.83,2.37-2.06,2.69a40.82,40.82,0,0,1-2.79,3.3C47.73,251.8,46.71,252.87,46.71,252.87Z"></path>
      <path class="cls-14" d="M55.13,249.88c0-2-1.07-1.38-1.82-.88a8.63,8.63,0,0,0-1.71,1.6c-1.58,1.91-5.78,5.36-7,10.15-.7,2.75-.57,9.37,2,9.37s3-7.39,4.74-10.89C52.55,256.8,55.11,252.8,55.13,249.88Z"></path>
      <path class="cls-15" d="M60,246.94a5.24,5.24,0,0,0,1-1.9c.09-.76,1.47,3.55,1.15,4.27S60,246.94,60,246.94Z"></path>
      <polygon class="cls-17" points="53.48 215.88 106.81 231.23 53.48 253.94 0 231.23 53.48 215.88"></polygon>
      <polygon class="cls-18" points="53.48 215.88 0 231.23 0.94 231.63 106.31 231.09 53.48 215.88"></polygon>
      <path class="cls-19" d="M33.61,232a30.63,30.63,0,0,1,2.53-2.7A22.35,22.35,0,0,1,39.08,227a30,30,0,0,1,6.69-3.26A34.83,34.83,0,0,1,53,222.24c1.22-.16,2.47-.13,3.69-.19s2.47.11,3.69.22c-1.23.14-2.45.18-3.66.32s-2.42.26-3.61.5-2.39.4-3.55.73-2.33.63-3.49,1a38.85,38.85,0,0,0-6.59,2.94A36.8,36.8,0,0,0,33.61,232Z"></path>
      <polygon class="cls-18" points="0.94 231.63 53.48 253.94 106.81 231.23 106.31 231.09 0.94 231.63"></polygon>
      <ellipse class="cls-7" cx="55.17" cy="232.3" rx="12.32" ry="4.82"></ellipse>
      <ellipse class="cls-20" cx="55.48" cy="233.93" rx="10.15" ry="3.97"></ellipse>
      <path class="cls-21" d="M53.6,156.1s-4.89-11.55-13.7-16.16c0,0,9.17,47,11.84,52.24S59.57,160.68,53.6,156.1Z"></path>
      <path class="cls-22" d="M60,160.85s7.57-33.11-3.91-46.14c0,0-18.8,21.12-2.48,80.44Z"></path>
      <path class="cls-23" d="M56.09,114.71s-.91,80.47-1.38,82.72S74.2,136.16,56.09,114.71Z"></path>
      <path class="cls-24" d="M55,86.94s10,10.9,6.46,30.43S50.82,96.58,55,86.94Z"></path>
      <path class="cls-25" d="M54.41,86.88s.18,9.61,2.94,14.46,4.87,11.72,3.77,16.37-3.69,13-8.28,8.65C46.86,120.77,45.85,101.24,54.41,86.88Z"></path>
      <g class="cls-26">
        <path class="cls-27" d="M54.76,87.57A43.65,43.65,0,0,0,55.22,95a21,21,0,0,0,.86,3.58c.4,1.14,1.07,2.2,1.6,3.33a52.68,52.68,0,0,1,2.9,6.88,17,17,0,0,1,1.09,7.33,18.56,18.56,0,0,0-1.37-7.24,60.24,60.24,0,0,0-3-6.8,29.91,29.91,0,0,1-1.6-3.38A18.47,18.47,0,0,1,54.91,95,35,35,0,0,1,54.76,87.57Z"></path>
      </g>
      <path class="cls-28" d="M53.6,156.1c-.36-17.9-.78-28-.85-28.53-.12-1-1.92-3.77-2.49-5.13,1.37,1.81,1.8,3.91,7.25,3.1,0,0-1.29,10.34-.92,15.2S54.52,156.62,53.6,156.1Z"></path>
      <path class="cls-22" d="M64,84.05s-.2,4.61,3.6,11.28,5,27.18,0,34.53-11,16.4-11,16.4-4.39-21.7,2.4-31.1,7.18-18,5.58-22.91S64,84.05,64,84.05Z"></path>
      <path class="cls-29" d="M85.45,119.83s-1.82,6.25-4.7,14.65c-3.2,9.33-7.72,21.3-12.53,30.29a79.33,79.33,0,0,0-7.15,19.39,109.59,109.59,0,0,0-2.77,24.65V231s-4.7,7.49-7,0,.79-38.65,0-46.74-4.17-25.16,3.92-37.15S71.09,121.93,85.45,119.83Z"></path>
      <path class="cls-28" d="M59.67,185.29s3.46-22.32,8-31.08S79.45,133.54,80,131.51,57.71,179.75,59.67,185.29Z"></path>
    </g>
  </g>
</svg>
