<?xml version="1.0" encoding="UTF-8"?>
<svg xmlns="http://www.w3.org/2000/svg" xmlns:xlink="http://www.w3.org/1999/xlink" viewBox="0 0 129.88 169.34">
  <defs>
    <style>.cls-1{fill:none;}.cls-2{fill:#956d4b;}.cls-3{clip-path:url(#clip-path);}.cls-4{fill:url(#Безымянный_градиент_4);}.cls-5{fill:#754120;}.cls-6{fill:#44281c;}.cls-7{fill:#6c3c1d;}.cls-8{fill:#714d31;}.cls-9{fill:#613822;}.cls-10{fill:#7f5637;}.cls-11{fill:#a07850;}.cls-12{fill:#dec97e;}.cls-13{fill:#ceb874;}.cls-14{fill:#8b5b3c;}.cls-15{fill:#75ad40;}.cls-16{fill:#568f3b;}.cls-17{fill:#abc552;}.cls-18{fill:#5a973e;}.cls-19{fill:#613922;}</style>
    <clipPath id="clip-path">
      <polygon class="cls-1" points="17.83 140.66 67.8 164.18 114.02 140.77 65.97 120.41 17.83 140.66"></polygon>
    </clipPath>
    <linearGradient id="Безымянный_градиент_4" x1="-4248.1" y1="-333.78" x2="-4245.3" y2="-333.78" gradientTransform="matrix(34.36, 0, 0, -34.36, 145955.4, -11325.21)" gradientUnits="userSpaceOnUse">
      <stop offset="0" stop-color="#a17551"></stop>
      <stop offset="0.38" stop-color="#a17551"></stop>
      <stop offset="0.89" stop-color="#7a4928"></stop>
      <stop offset="1" stop-color="#72401f"></stop>
    </linearGradient>
  </defs>
  <g id="Слой_2" data-name="Слой 2">
    <g id="Слой_1-2" data-name="Слой 1">
      <path class="cls-2" d="M67.8,98s9.62,11.3,17.06,11.77,32.81-7.57,32.81-7.57l2.56-26.43L67.8,57.3Z"></path>
      <path class="cls-2" d="M10.11,73.92l5.23,34.47s18.58,2.79,21.83,1.86,18.12-6.5,22.29-6.5S67.8,98,67.8,98V57.3Z"></path>
      <g class="cls-3">
        <rect class="cls-4" x="41.49" y="93.1" width="48.87" height="98.4" transform="translate(-79.7 200.49) rotate(-86.92)"></rect>
      </g>
      <path class="cls-5" d="M17.83,140.66l-2.49-32.27s23.69-.46,30.19-3.71S67.8,98,67.8,98L66,120.41Z"></path>
      <path class="cls-6" d="M51.6,110.4a8.56,8.56,0,0,0-2.84-1.67l0,0s-3.79-1.13-5.85,1.41-1.71,5.29-.77,5.73a10.92,10.92,0,0,0,1.63.35l.09,0a28.27,28.27,0,0,0,3.51-.79,1.76,1.76,0,0,0,.6-.16,6.26,6.26,0,0,0,.65-.19c1.49-.46,1.67-.12,2.69-1a4,4,0,0,0,1.09-2.55l-.21-.5h0l0,0a1,1,0,0,0-.58-.5"></path>
      <path class="cls-6" d="M31.31,113.73a10.77,10.77,0,0,0-4,1.32v0s-4.3,2.7-3.59,6.84,3.66,6.14,4.88,5.61a13.86,13.86,0,0,0,1.71-1.29l0-.13c.92-1,1.59-3.16,2.21-4a2.21,2.21,0,0,0,.35-.72c.11-.2.21-.42.37-.79.81-1.81,1.29-1.71,1.3-3.46a5.08,5.08,0,0,0-1.54-3.2,3.29,3.29,0,0,0-.66-.23v0h-.08a1.27,1.27,0,0,0-1,.14"></path>
      <path class="cls-7" d="M67.8,98,66,120.41,114,140.78l3.65-38.56s-15-1.72-21.49-.8S78.35,105.14,75,103.28A44.41,44.41,0,0,1,67.8,98"></path>
      <path class="cls-6" d="M49.5,121a3.29,3.29,0,0,0-1.26-.31h0a2.31,2.31,0,0,0-2,1.18c-.49,1.19-.05,2.18.35,2.24l.65,0,0,0a10.59,10.59,0,0,0,1.23-.69l.21-.13.22-.14c.51-.34.61-.24.89-.68a1.55,1.55,0,0,0,.13-1.08l-.13-.16h0Z"></path>
      <path class="cls-6" d="M96.58,111.39a2.27,2.27,0,0,0-.11-.89h0s-.38-1-1.27-1-1.43.5-1.38.78l.2.4,0,0,.75.63.13.1.15.11c.35.24.3.34.66.41a1.08,1.08,0,0,0,.74-.18l.07-.13h0v-.22Z"></path>
      <path class="cls-6" d="M110,127.57a10.91,10.91,0,0,0-1.9-3.81l0,0s-3.32-3.9-7.36-2.59-5.59,4.54-4.88,5.68a15.32,15.32,0,0,0,1.52,1.53h.14c1.19.77,3.39,1.14,4.37,1.62a2.18,2.18,0,0,0,.77.25c.21.07.45.15.84.26,1.93.54,1.9,1,3.64.79a5.15,5.15,0,0,0,3-2,4.06,4.06,0,0,0,.13-.69h0l0-.07a1.27,1.27,0,0,0-.28-1"></path>
      <path class="cls-6" d="M83.89,114.29A8.44,8.44,0,0,0,82,117h0s-1.4,3.66,1,5.89,5.11,2.09,5.62,1.19a12.49,12.49,0,0,0,.46-1.59l0-.09a31.3,31.3,0,0,0-.52-3.53,1.78,1.78,0,0,0-.12-.62c0-.16-.07-.35-.13-.65-.35-1.5,0-1.66-.81-2.74A3.94,3.94,0,0,0,85,113.56l-.51.16h0l0,0a.93.93,0,0,0-.54.54"></path>
      <path class="cls-8" d="M84.07,141.67a1.59,1.59,0,0,0,1.57-.42c.54-.7.42-1.43.17-1.55l-.44-.08c-.29-.05-.32.69-.33.7Z"></path>
      <path class="cls-9" d="M83.13,141.09s.87.79,1.23.54.8-.46.8-.46l0-.24-1-.32-.56.19Z"></path>
      <path class="cls-10" d="M83.07,141c0,.1.12.36.4.27A4.1,4.1,0,0,0,84,141l.33-1c.06-.15.14-.19-.25-.06s-.45,0-.72.29a1.07,1.07,0,0,0-.28.69"></path>
      <path class="cls-11" d="M84,141a5.25,5.25,0,0,0,.13-.69c0-.31,0-.4.28-.43s.84-.34,1.11-.23.25.09.25.44a1.23,1.23,0,0,1-.38.87.68.68,0,0,1-.75.32A1.87,1.87,0,0,1,84,141"></path>
      <path class="cls-8" d="M73.39,135.54s2.39.12,3.24-1.67.26-3.36-.36-3.49a7.39,7.39,0,0,0-1,0c-.66,0-.37,1.67-.39,1.7Z"></path>
      <path class="cls-9" d="M71,134.72s2.3,1.31,3,.61,1.53-1.4,1.53-1.4l-.15-.52a7.53,7.53,0,0,0-2.27-.25c-.36.2-1,.62-1.16.7Z"></path>
      <path class="cls-10" d="M70.85,134.44c.11.21.43.74,1,.4a9.36,9.36,0,0,0,1-.75s.18-1.93.25-2.28.23-.49-.57,0-1,.32-1.44,1a2.41,2.41,0,0,0-.28,1.66"></path>
      <path class="cls-11" d="M72.89,134.09a11.07,11.07,0,0,0,0-1.59c-.09-.69-.16-.87.42-1.08s1.68-1.13,2.32-1,.6.07.77.85a2.82,2.82,0,0,1-.42,2.09,1.57,1.57,0,0,1-1.51,1.07,4,4,0,0,1-1.53-.31"></path>
      <path class="cls-8" d="M63.43,143.31s1.86,1.41,3.53.43,2.05-2.58,1.63-3a6,6,0,0,0-.84-.53c-.55-.33-1.21,1.15-1.25,1.16Z"></path>
      <path class="cls-9" d="M62,141.35s1.15,2.33,2.08,2.14a18.88,18.88,0,0,1,2-.29l.16-.51s-1.3-1.4-1.7-1.44-1.14-.05-1.32-.08Z"></path>
      <path class="cls-10" d="M62,141c0,.23,0,.83.59.87a10.13,10.13,0,0,0,1.26,0l1.45-1.71c.26-.24.46-.27-.46-.32s-1-.28-1.71,0A2.36,2.36,0,0,0,62,141"></path>
      <path class="cls-11" d="M63.82,141.87a10.69,10.69,0,0,0,.83-1.32c.3-.61.35-.79.93-.64s2,0,2.44.44.45.38.16,1.1a2.79,2.79,0,0,1-1.48,1.47,1.54,1.54,0,0,1-1.81,0,4.06,4.06,0,0,1-1.07-1.09"></path>
      <path class="cls-8" d="M59.13,136.87a2.67,2.67,0,0,0,.1-2.73c-.86-1.21-2.11-1.39-2.41-1l-.35.67c-.22.44,1,.84,1,.88Z"></path>
      <path class="cls-9" d="M57.74,138.11s1.7-1,1.49-1.73a15.08,15.08,0,0,1-.35-1.51l-.4-.09s-1,1.08-1,1.39,0,.87,0,1Z"></path>
      <path class="cls-10" d="M57.5,138.13c.17,0,.63,0,.62-.5a7.43,7.43,0,0,0-.11-1l-1.4-1c-.2-.18-.23-.33-.21.37s-.15.75.12,1.3a1.79,1.79,0,0,0,1,.79"></path>
      <path class="cls-11" d="M58,136.67a8.8,8.8,0,0,0-1.06-.55c-.49-.19-.62-.21-.55-.67s-.13-1.51.17-1.89.26-.37.83-.2a2.14,2.14,0,0,1,1.22,1,1.18,1.18,0,0,1,.15,1.38,3,3,0,0,1-.76.89"></path>
      <path class="cls-8" d="M50.67,138.88a1.15,1.15,0,0,0,.38-1.11c-.2-.62-.69-.85-.86-.74l-.23.23.29.49Z"></path>
      <path class="cls-9" d="M49.93,139.22s.83-.21.84-.53,0-.67,0-.67l-.15-.09-.58.45-.12.43Z"></path>
      <path class="cls-10" d="M49.82,139.19l.33-.12.08-.41-.46-.6c-.06-.09-.05-.16-.13.13s-.16.29-.12.55a.77.77,0,0,0,.3.45"></path>
      <path class="cls-11" d="M50.23,138.66l-.37-.37-.15-.35.32-.75.37,0a.92.92,0,0,1,.37.58.5.5,0,0,1-.12.59Z"></path>
      <path class="cls-8" d="M48.07,143.56s1.64-2.64.13-4.73-3.65-2.39-4.18-1.77a8.24,8.24,0,0,0-.6,1.17c-.37.76,1.66,1.45,1.69,1.5Z"></path>
      <path class="cls-9" d="M45.66,145.71s2.94-1.8,2.57-3-.63-2.61-.63-2.61l-.69-.15s-1.69,1.88-1.69,2.42.08,1.52.06,1.75Z"></path>
      <path class="cls-10" d="M45.24,145.75c.31,0,1.1,0,1.07-.87a12.45,12.45,0,0,0-.19-1.67S44,141.8,43.68,141.5s-.41-.56-.36.65-.25,1.29.21,2.25a3.15,3.15,0,0,0,1.71,1.35"></path>
      <path class="cls-11" d="M46.12,143.21a14.22,14.22,0,0,0-1.84-.93c-.85-.33-1.08-.37-1-1.15s-.23-2.61.29-3.28.45-.64,1.44-.35a3.69,3.69,0,0,1,2.12,1.78,2.08,2.08,0,0,1,.27,2.39,5.23,5.23,0,0,1-1.31,1.54"></path>
      <path class="cls-12" d="M53,88.36a20.86,20.86,0,0,0,1.17,12c2.76,5.67,4.65,9.46,5.38,12.22s2.91,6,3.78,10.62,7,21.37,6.55,32.86c0,0,2.76-16.87,2.91-22.1s1.45-7.42,3.2-12.66,4.94-8,5.67-12.36,7.57-13.4,4.12-20.58Z"></path>
      <path class="cls-13" d="M83.51,88.36A107.42,107.42,0,0,1,80.28,101a10.27,10.27,0,0,1-3.54,5.19A11.38,11.38,0,0,0,72.41,113c-.46,2.4-1,5.25-1.41,7.7a23.86,23.86,0,0,0-.24,5.6c.16,2.43.06,4.84,0,7.36a10.48,10.48,0,0,1-2.37,6.51c-.09.35-.19.77-.28,1.12a60.82,60.82,0,0,1,1.77,14.76s2.76-16.87,2.91-22.1,1.45-7.42,3.2-12.66,4.94-8,5.67-12.36,7.57-13.4,4.12-20.58Z"></path>
      <path class="cls-13" d="M74.33,88.36c0,.77.11,1.56.06,2.31a35.64,35.64,0,0,1-1.28,6.71c-.43,1.59-.92,3.27-.47,4.84q1.2-2.91,2.38-5.82a14.65,14.65,0,0,0,1-3,9.4,9.4,0,0,0-.73-5Z"></path>
      <path class="cls-13" d="M64.88,103c.36-1.74,1.15-3.44,1-5.21a24.84,24.84,0,0,1,.4,5.7c-.08,1-.26,1.91-.29,2.87-.06,2.12.67,4.18,1,6.28a7.83,7.83,0,0,1-.31,4.55c-1.2-1-1.17-5.08-1.42-6.65C64.9,108.06,64.38,105.53,64.88,103Z"></path>
      <path class="cls-13" d="M82.33,105.29a6,6,0,0,1,3.37,1.92A10.7,10.7,0,0,1,87,110.8a24.63,24.63,0,0,0,1,3.59,7.16,7.16,0,0,0,2.13,3,7.4,7.4,0,0,1-2.29-3,25.55,25.55,0,0,1-1.21-3.58,10.46,10.46,0,0,0-1.41-3.37,5.42,5.42,0,0,0-3.14-1.57Z"></path>
      <path class="cls-13" d="M85.77,107.66a4.18,4.18,0,0,1,1.56.82,5.26,5.26,0,0,1,1.1,1.35,2.42,2.42,0,0,0,1.3,1,7.32,7.32,0,0,0,1.68.31,7,7,0,0,1-1.7-.24,2.47,2.47,0,0,1-1.41-1,5,5,0,0,0-1.12-1.25,4,4,0,0,0-1.49-.71Z"></path>
      <path class="cls-13" d="M78.84,114.44a5.39,5.39,0,0,1,2.25,3.34,13.06,13.06,0,0,1,.26,4,21.49,21.49,0,0,0,0,3.93,6.16,6.16,0,0,0,1.55,3.55,6.22,6.22,0,0,1-1.68-3.53,20.9,20.9,0,0,1-.15-3.95,13.13,13.13,0,0,0-.38-3.87,5,5,0,0,0-2.14-3Z"></path>
      <path class="cls-13" d="M80.9,117.17a11.75,11.75,0,0,1-.74,3.33,14.38,14.38,0,0,1-.73,1.53,2.09,2.09,0,0,0-.25,1.61,2.12,2.12,0,0,1,.15-1.65,15.81,15.81,0,0,0,.62-1.56,11.47,11.47,0,0,0,.52-3.28Z"></path>
      <path class="cls-13" d="M75.51,122.21a10,10,0,0,1,1.16,3.1,13.35,13.35,0,0,1,.16,3.27c-.06,1.08-.16,2.15-.13,3.22a6.91,6.91,0,0,0,.72,3.09,7.05,7.05,0,0,1-.9-3.08c-.08-1.08,0-2.17,0-3.24a13.08,13.08,0,0,0-.32-3.14,9.42,9.42,0,0,0-1.24-2.85Z"></path>
      <path class="cls-13" d="M76.67,125.89a4.64,4.64,0,0,1,1.38,1.17,5.09,5.09,0,0,1,.87,1.52c.2.54.29,1.11.53,1.62a1.78,1.78,0,0,0,1.21,1.09,1.91,1.91,0,0,1-1.28-1.06c-.28-.51-.41-1.07-.64-1.58a4.61,4.61,0,0,0-1-1.35,3.55,3.55,0,0,0-1.33-.88Z"></path>
      <path class="cls-13" d="M73.06,129.48a6.24,6.24,0,0,1,1.62,2.85,13.36,13.36,0,0,1,.46,3.19,27.63,27.63,0,0,0,.18,3.16,6.5,6.5,0,0,0,1.07,2.94,6.55,6.55,0,0,1-1.23-2.92,28,28,0,0,1-.33-3.16,13.13,13.13,0,0,0-.59-3.07,5.73,5.73,0,0,0-1.59-2.54Z"></path>
      <path class="cls-13" d="M75,133.94a13.73,13.73,0,0,0-.93,2.51,5.54,5.54,0,0,0-.16,2.65,5.56,5.56,0,0,1,0-2.69,13.58,13.58,0,0,1,.78-2.62Z"></path>
      <path class="cls-13" d="M74.36,131.61a12.2,12.2,0,0,1,1.42,1.88,3.86,3.86,0,0,1,.7,2.21,3.89,3.89,0,0,0-.87-2.1,13.75,13.75,0,0,0-1.54-1.7Z"></path>
      <path class="cls-13" d="M71.8,141.18c.65.82,1.39,1.54,2,2.39a4.21,4.21,0,0,1,.82,2.93,3.73,3.73,0,0,0-1-2.76,9.6,9.6,0,0,0-2.36-1.92Z"></path>
      <path class="cls-13" d="M71.6,142.55a8.47,8.47,0,0,1,1.1,2.73,11.09,11.09,0,0,1,.26,2.87A14.76,14.76,0,0,0,73,151a4.77,4.77,0,0,0,1.08,2.56,4.67,4.67,0,0,1-1.2-2.54,15.1,15.1,0,0,1-.17-2.84,10.2,10.2,0,0,0-.44-2.75,7.4,7.4,0,0,0-1.19-2.46Z"></path>
      <path class="cls-13" d="M69.59,143.31a5.86,5.86,0,0,0-1.26,3.35,17.49,17.49,0,0,0,.21,3.75,21.5,21.5,0,0,1-.49-3.76,7,7,0,0,1,1-3.76Z"></path>
      <path class="cls-12" d="M67.91,137.83a3.3,3.3,0,0,0-1,2.15,20.06,20.06,0,0,0-.07,2.58,7,7,0,0,1-.33,2.64A4.29,4.29,0,0,1,64.64,147a4.48,4.48,0,0,0,1.67-1.9,6.93,6.93,0,0,0,.14-2.54,21.12,21.12,0,0,1,0-2.64,3.61,3.61,0,0,1,1.13-2.51Z"></path>
      <path class="cls-12" d="M67,139a1.31,1.31,0,0,1-.38,1.11,4.37,4.37,0,0,1-.85.76c-.62.39-1.31.69-1.63,1.37a1.63,1.63,0,0,1,.59-.93,10.92,10.92,0,0,1,.88-.68,4.08,4.08,0,0,0,.79-.7,1.29,1.29,0,0,0,.36-.89Z"></path>
      <path class="cls-12" d="M66.18,130.31a10.79,10.79,0,0,0-1.34,2.56,4.74,4.74,0,0,0-.25,1.4,5.32,5.32,0,0,1-.15,1.48,10,10,0,0,1-1.56,2.49c-.59.78-1.21,1.54-1.86,2.26q.94-1.11,1.8-2.31a10,10,0,0,0,1.46-2.49,5.22,5.22,0,0,0,.11-1.43,5.18,5.18,0,0,1,.22-1.47,16.83,16.83,0,0,1,1.21-2.7Z"></path>
      <path class="cls-12" d="M64.57,134.91a6.13,6.13,0,0,1,.22,2.17,8.44,8.44,0,0,1-.39,2.12,7.52,7.52,0,0,0,0-4.23Z"></path>
      <path class="cls-12" d="M65.16,132c-.41.27-.86.44-1.26.69a3,3,0,0,0-1,1,3,3,0,0,1,.95-1.08c.39-.29.82-.51,1.18-.8Z"></path>
      <path class="cls-12" d="M63.74,122.86a4,4,0,0,0-2.08,1.44,5.28,5.28,0,0,0-.46,2.56,6.56,6.56,0,0,1-2.12,4.87A6.49,6.49,0,0,0,61,126.85a5.53,5.53,0,0,1,.39-2.73,4.39,4.39,0,0,1,2.2-1.71Z"></path>
      <path class="cls-12" d="M62.94,123.2c0,.71.08,1.45.05,2.2a6.89,6.89,0,0,1-.46,2.16,7.26,7.26,0,0,0,.29-2.16c0-.73-.21-1.45-.23-2.2Z"></path>
      <path class="cls-12" d="M62.55,123.39a12,12,0,0,0-2.22,1.9,2.83,2.83,0,0,0-.43,1.33,2.07,2.07,0,0,0,.4,1.38,1.91,1.91,0,0,1-.66-1.37,2.92,2.92,0,0,1,.35-1.55,4,4,0,0,1,1.1-1.12c.41-.31.85-.56,1.25-.85Z"></path>
      <path class="cls-12" d="M62.37,115.73c-.66.85-1.07,1.7-1.62,2.51a10.51,10.51,0,0,1-2,2.15,10.12,10.12,0,0,1-2.44,1.51,7.84,7.84,0,0,0-2.5,1.38,8.05,8.05,0,0,1,2.47-1.44,9.85,9.85,0,0,0,2.34-1.61,10.71,10.71,0,0,0,1.8-2.17,4.29,4.29,0,0,0,.79-2.67Z"></path>
      <path class="cls-12" d="M60.26,119a2.33,2.33,0,0,0-1.38.13,8.56,8.56,0,0,0-1.28.56c-.84.43-1.62,1-2.46,1.4.82-.46,1.59-1,2.42-1.47a8.77,8.77,0,0,1,1.28-.6,12.27,12.27,0,0,0,1.37-.52Z"></path>
      <path class="cls-12" d="M58.55,106.19c-.54,1-1.09,1.87-1.68,2.77s-1.16,1.78-1.83,2.62S53.58,113.12,53,114a3.92,3.92,0,0,0-.81,3,3.93,3.93,0,0,1,.71-3c.58-.89,1.35-1.64,2-2.48a17.13,17.13,0,0,0,1.68-2.67,13.67,13.67,0,0,0,1.13-2.92Z"></path>
      <path class="cls-12" d="M56.05,110.13a10.46,10.46,0,0,1-.54,3.14A8.28,8.28,0,0,1,54,116a8.38,8.38,0,0,0,1.38-2.81,10.19,10.19,0,0,0,.41-3.09Z"></path>
      <polygon class="cls-14" points="9.92 74.22 67.84 99.73 120.49 76.21 67.84 56.63 9.92 74.22"></polygon>
      <path class="cls-15" d="M28.11,50.16a124.93,124.93,0,0,1,14.37,3.51,2.26,2.26,0,0,1,.13-1.2c.18-.61-1-.8-.88-1.41s2-.63,2.46-.49,2.83-.66,2.22-1.09-.83-.84-.25-1.13,1.74-.13,1.41-.86a2.15,2.15,0,0,1-.1-2c.3-.86.43-2,.77-2.89-.63-.85-1-1.9-1.89-2.51s-2.06,0-2.85-.85-.52-2.08-2-2.38-2.69,2.34-4.18,1.39S37,36,36.72,34.49s-2.31-1.72-3.4-2a3.36,3.36,0,0,0-2.39-.07,3.64,3.64,0,0,1-1.94.4c-.79-.07-1.11-.62-2-.57a8.73,8.73,0,0,1-2.83-.59,3.44,3.44,0,0,0-2.24,0c-.75.22-.49.93-.85,1.4s-1.17.38-1.21,1-.53.54-1,.76a4.64,4.64,0,0,0-1.45.62,5.47,5.47,0,0,1-1.45.8c-.57.25-1,0-1.51.73s0,1.88,0,2.69-.47,1.08-1.23,1.4-1.55-.53-2.4-.57-1,1-1.68,1.48-1.71.34-2.53.62A4.21,4.21,0,0,0,4.66,44C4,44.69,3,45.45,2.24,46.11a12.14,12.14,0,0,0-2.05,2,.72.72,0,0,0-.13.63C9.26,46.48,19,48.57,28.11,50.16Z"></path>
      <path class="cls-16" d="M47.45,57.29a3.68,3.68,0,0,0,.37-2.87c-.54-1-2-2.26-1.33-3.2s2.21-.83,1.43-2-2.58-1.54-3.83-2.09c0-.12.28-.22.23-.35s-.65,0-.71-.24.44-.94,0-1-.66.29-1,.73-.66.9-1.36.32-.83.89-1.5,0-.58-3.48-1.3-4.38-1-1.76-2-1.9S35.7,42,35.1,42.15s-1.52-1.65-1.84-1-.29,2.24-1.17,1.69-.68-1.2-1.13-1.83.08-.51-.51-1.3-2.67-1.88-3.64-1.62-1,.41-1.75.36-.83-.53-1.65-.12a11.93,11.93,0,0,0-2.82,2.33c-.46.6-.14.75-.65.73s-.62-.81-1.17-.48-.51,1-1,1.5-.93.46-1.48-.08A5.3,5.3,0,0,0,14.38,41a4.22,4.22,0,0,0-3.06.08c-.63.48-.28.64-.92.5s-2.3-.85-2.56-.06.79,1,.25,1.8a4.52,4.52,0,0,1-3,1.38c-1,.11-2.2.49-2.56,1.35A3.13,3.13,0,0,1,1.43,47.6c-.64.55-1.84,1.19-1.29,2.16A7.48,7.48,0,0,0,1.46,51.4C17.12,50.63,32,54.71,47.45,57.29Z"></path>
      <path class="cls-17" d="M1.46,51.4a115.1,115.1,0,0,1,17.61.72c5.86.6,11.68,1.53,17.46,2.61,2.89.55,5.77,1.13,8.65,1.76A61.34,61.34,0,0,1,53.73,59a38.63,38.63,0,0,1,8,4.07,31.49,31.49,0,0,1,6.7,6.08A1,1,0,0,1,67,70.35h0v0a30.06,30.06,0,0,0-6.19-5.83,37,37,0,0,0-7.59-4C47.81,58.26,42,57.16,36.3,55.87s-11.5-2.28-17.31-3c-2.91-.37-5.82-.69-8.74-.9S4.4,51.58,1.46,51.4Z"></path>
      <path class="cls-17" d="M41,56a29.12,29.12,0,0,1,1.09-7.89A28.55,28.55,0,0,0,41.58,56Z"></path>
      <path class="cls-17" d="M35.61,55a27.6,27.6,0,0,0,.79-4.61,16,16,0,0,0-.23-4.69,16.16,16.16,0,0,1,.53,4.7,26.12,26.12,0,0,1-.5,4.74Z"></path>
      <path class="cls-17" d="M36.41,50.14a15,15,0,0,0-3.88-5.43A15.17,15.17,0,0,1,36.67,50Z"></path>
      <path class="cls-17" d="M29.24,53.89a32.62,32.62,0,0,0-1.52-5.53A21,21,0,0,0,25,43.28a21.08,21.08,0,0,1,3.12,4.91,33.14,33.14,0,0,1,2,5.5Z"></path>
      <path class="cls-17" d="M27.83,48.33a12.93,12.93,0,0,0-2.91-2.45c-1.08-.7-2.23-1.3-3.28-2.05,1.08.7,2.25,1.25,3.37,1.9a13.32,13.32,0,0,1,3.08,2.37Z"></path>
      <path class="cls-17" d="M18.56,52.22a16.17,16.17,0,0,0-2.92-4.54,11.74,11.74,0,0,0-4.37-3.2,11.81,11.81,0,0,1,4.54,3A16.54,16.54,0,0,1,19,52Z"></path>
      <path class="cls-17" d="M16.47,48.61A37.82,37.82,0,0,1,7.93,46.2a38,38,0,0,0,8.56,2.23Z"></path>
      <path class="cls-15" d="M70.82,45.37A7,7,0,0,1,68,47.42c-1.11.48-1.14.74-1.8,1.77s-2,3.78-3.35,3S61.66,51.07,60,51.09s-5,.09-4.32-2,2.07-3.45.48-5.11-2.86-2.67-2.7-4.78-2.73-3.12-1.8-5,3.84-3.66,3.8-5.44-.32-.48-1.36-2.11-.83-5.05,1.78-6.16A15.2,15.2,0,0,0,56,19c0-.7.47-1.15.51-2.1s-1.34-2-.11-3,2.28-3.07,4.19-2.42-.65-1.14-.31-2,.89-.74,1-1.75.24-2.45,1.42-2.39a4.6,4.6,0,0,0,3.19-1.59c.65-.75,1.35-.19,1.95-.88S67.63,1.6,68.73,1,71.22-.37,72.34.2s1.28.94,2.46.85a3.1,3.1,0,0,1,2.94,1.49c.87,1.14,1.16.27,2.34.74a4.35,4.35,0,0,1,2.35,3.09c.2,1.2,1.57.56,2,2.25s.78,4,2.13,5.49,3.53,3.92,3.23,5.72.21,2.49.23,3.71a5,5,0,0,1-.89,3.06c-.5.57,1,2,1.38,3s-.55,3,.5,4.24,2.52,1.48,2.15,4a27,27,0,0,1-2,7.23c-.89,1.76,1,1.07-.62,3.22S86.1,52.15,82.9,51.1s-3.74-4.27-6-5.82S72.93,45,70.82,45.37Z"></path>
      <path class="cls-18" d="M92.13,42.42,91.78,42a13.58,13.58,0,0,0-5.49-4.41A23.7,23.7,0,0,1,73.37,23.87a55.46,55.46,0,0,1-2.27-8.14,13.3,13.3,0,0,0-5.46-8.19,25.42,25.42,0,0,1-2.88-2.25h-.08c-1.18-.06-1.33,1.38-1.42,2.39s-.63.87-1,1.75,2.23,2.68.31,2-3,1.42-4.19,2.42.14,2.06.11,3S56,18.29,56,19a15.2,15.2,0,0,1-.08,1.53c-2.61,1.11-2.82,4.54-1.78,6.16s1.33.34,1.36,2.11-2.87,3.62-3.8,5.44,1.95,2.85,1.8,5,1.11,3.11,2.7,4.78.19,3-.48,5.11,2.7,2,4.32,2,1.42.37,2.78,1.12,2.7-2,3.35-3,.69-1.29,1.8-1.77a7,7,0,0,0,2.85-2.05c2.11-.35,3.89-1.65,6.12-.09s2.75,4.77,6,5.82,5.95-.68,7.62-2.82-.27-1.46.62-3.22A17.36,17.36,0,0,0,92.13,42.42Z"></path>
      <path class="cls-17" d="M72.36,9.08a64.16,64.16,0,0,1,2.16,16c.11,5.42-.24,10.82-.63,16.2s-.82,10.75-.9,16.1a75.16,75.16,0,0,0,1.23,15.82l-2.84.5a77.16,77.16,0,0,1-.55-16.41c.32-5.43,1-10.79,1.63-16.14s1.21-10.7,1.33-16.07A64,64,0,0,0,72.36,9.08Z"></path>
      <path class="cls-17" d="M72.52,42.73a37.6,37.6,0,0,1,1.86-3.4,12.46,12.46,0,0,1,2.56-3,19.59,19.59,0,0,0,2.86-2.48,20.78,20.78,0,0,0,2.09-3.18A20.75,20.75,0,0,1,80,34.06a18.92,18.92,0,0,1-2.7,2.74c-1.81,1.72-2.79,4.07-3.75,6.41Z"></path>
      <path class="cls-17" d="M74.65,39a2.44,2.44,0,0,1,1.46-.77,5.07,5.07,0,0,1,1.56.05,22.91,22.91,0,0,1,2.85.79c.94.29,1.86.66,2.77,1a8.15,8.15,0,0,0,2.85.5,7.12,7.12,0,0,1-2.94-.14c-1-.22-1.89-.52-2.84-.74s-1.87-.55-2.8-.71a2.74,2.74,0,0,0-2.45.48Z"></path>
      <path class="cls-17" d="M80.38,39.3a6.32,6.32,0,0,1,2-1.27,5.07,5.07,0,0,0,2-1.17,5.27,5.27,0,0,1-1.9,1.36,6.11,6.11,0,0,0-1.81,1.36Z"></path>
      <path class="cls-17" d="M73.73,30A16.49,16.49,0,0,1,78,23.27a24.2,24.2,0,0,1,6.59-4.49,24.06,24.06,0,0,0-6.36,4.71,16.1,16.1,0,0,0-3.91,6.73Z"></path>
      <path class="cls-17" d="M77.84,23.64a11.24,11.24,0,0,0,1.92-4.5,16.8,16.8,0,0,1,.77-2.37,5.89,5.89,0,0,1,1.41-2,5.88,5.88,0,0,0-1.36,2,18,18,0,0,0-.72,2.37A11.4,11.4,0,0,1,78,23.77Z"></path>
      <path class="cls-17" d="M73.55,16.65A18.21,18.21,0,0,0,75,12c.36-1.59.64-3.21,1-4.8-.33,1.61-.55,3.23-.85,4.84a18.7,18.7,0,0,1-1.33,4.75Z"></path>
      <path class="cls-17" d="M73.09,37.45a75.7,75.7,0,0,1-5.62-6.28C66.6,30.07,65.76,29,65,27.8a6.76,6.76,0,0,0-3-2.72,7,7,0,0,1,3.29,2.54c.88,1.08,1.78,2.14,2.72,3.16a72.58,72.58,0,0,0,6,5.82Z"></path>
      <path class="cls-17" d="M69.8,33.66a12.53,12.53,0,0,0-5.59-1,55.91,55.91,0,0,1-5.79.2c1.94.1,3.84-.31,5.79-.4a12.89,12.89,0,0,1,5.75.88Z"></path>
      <path class="cls-17" d="M67.64,32.84a18.9,18.9,0,0,1-3,1.72,8.38,8.38,0,0,1-3.34.88,8.13,8.13,0,0,0,3.28-1,19.13,19.13,0,0,0,2.93-1.82Z"></path>
      <path class="cls-17" d="M73.81,27.4a14.09,14.09,0,0,0-2.21-3.13c-.85-1-1.78-1.88-2.7-2.78s-1.86-1.83-2.72-2.8a14.38,14.38,0,0,1-2.24-3.18,14.44,14.44,0,0,0,2.35,3.08c.9.93,1.86,1.8,2.82,2.67S71,23,72,24a14.82,14.82,0,0,1,2.41,3.17Z"></path>
      <path class="cls-17" d="M67.5,20.06a10.1,10.1,0,0,0-3-7.14,10.09,10.09,0,0,1,3.16,7.14Z"></path>
      <path class="cls-17" d="M71.23,23.79a4.88,4.88,0,0,1-2.71-.29c-.85-.31-1.61-.76-2.47-1,.88.17,1.7.54,2.55.76a4.47,4.47,0,0,0,2.51,0Z"></path>
      <path class="cls-16" d="M83.53,50.84a5.87,5.87,0,0,1-3.4-.79,3.15,3.15,0,0,0-2.42-.42c-1.23.06-4.11.49-4.31-1.07s.18-1.71-.73-3-3-4.18-.84-4.79,3.94-.24,4.43-2.47.6-3.79,2.49-4.75,1.18-3.89,3.25-4.05,5.27,1.41,6.81.5.24-.47,1.13-2.17a4.59,4.59,0,0,1,6.28-1.4,10.87,10.87,0,0,0,1.33-.65c.59-.35,1.2-.14,2-.64s.93-2.2,2.38-1.75,3.69.23,4.13,2.14.6-1.11,1.49-1.27,1,.38,1.92,0,2.15-1,2.63.07a4.53,4.53,0,0,0,2.78,2.07c.94.24.75,1.12,1.61,1.36s.92-.73,1.93,0,2.27,1.66,2.26,2.92-.26,1.6.3,2.65a3.33,3.33,0,0,1-.07,3.39c-.68,1.31.16,1.2.34,2.45a4.07,4.07,0,0,1-1.59,3.46c-.94.68.19,1.69-1,2.72s-2.82,2.33-3.27,3.94-1.08,4.37-2.53,4.7-1.44.89-2.31,1.29a3.26,3.26,0,0,1-2.39.08c-.53-.2-.76,1.46-1.2,2.06s-2.2.34-2.44,1.58.63,2.61-1.47,3a24.91,24.91,0,0,1-6,.16c-1.54,0-.34,1.33-2.48.8s-4.67,1.71-6.5-.73.3-5.75-.24-8S85,51.91,83.53,50.84Z"></path>
      <path class="cls-17" d="M112.36,33.41a17.1,17.1,0,0,1-2.42,3.13c-.44.5-.91,1-1.39,1.42s-.94.93-1.45,1.35a56.42,56.42,0,0,1-6.32,4.79c-4.39,2.94-9,5.5-13.23,8.54a47.61,47.61,0,0,0-6,4.94,35.2,35.2,0,0,0-4.68,6.09c-2.74,4.39-4.8,9.2-7.1,14l-2-1c2.39-4.64,4.6-9.48,7.55-14a37.5,37.5,0,0,1,5.11-6.22,49.25,49.25,0,0,1,6.33-4.91c4.41-3,9.1-5.36,13.54-8.14a57.19,57.19,0,0,0,6.39-4.53c.52-.4,1-.85,1.47-1.29s1-.88,1.42-1.35C110.55,35.31,111.36,34.3,112.36,33.41Z"></path>
      <path class="cls-17" d="M88.44,50.39a7.94,7.94,0,0,0,2-3.07,10.59,10.59,0,0,0,.58-3.77c0-2.6-1.06-5.1-1.93-7.58.52,1.21,1.09,2.41,1.56,3.65a14.35,14.35,0,0,1,.94,3.9,11.17,11.17,0,0,1-.33,4.06,9,9,0,0,1-2,3.62Z"></path>
      <path class="cls-17" d="M91.05,42.28a33.39,33.39,0,0,0-3-2.82,9.27,9.27,0,0,1-2.47-3.29,9.07,9.07,0,0,0,2.6,3.14A33.42,33.42,0,0,1,91.33,42Z"></path>
      <path class="cls-17" d="M91.17,44.79c.61-1.37,1.39-2.63,2.07-3.93a13.24,13.24,0,0,0,1.47-4.13A13,13,0,0,1,93.48,41c-.6,1.35-1.29,2.66-1.8,4Z"></path>
      <path class="cls-17" d="M100.11,44.18a20.37,20.37,0,0,0,1-6.67,26.79,26.79,0,0,0-1-6.75,26.67,26.67,0,0,1,1.33,6.74,20.7,20.7,0,0,1-.78,6.86Z"></path>
      <path class="cls-17" d="M101.31,38.56A28.2,28.2,0,0,0,98.9,35a8.56,8.56,0,0,1-1-2,4.72,4.72,0,0,1-.21-2.17A5.79,5.79,0,0,0,98.08,33a9,9,0,0,0,1.06,1.85,21,21,0,0,1,2.41,3.63Z"></path>
      <path class="cls-17" d="M101.11,40.48a8.69,8.69,0,0,0,1.61-3.55,15.14,15.14,0,0,0,.18-4,15,15,0,0,1,0,4,9.12,9.12,0,0,1-1.48,3.77Z"></path>
      <path class="cls-17" d="M107.72,38.56a19.37,19.37,0,0,0,1-7.9,19.52,19.52,0,0,1-.5,8Z"></path>
      <path class="cls-17" d="M108.64,35a10.66,10.66,0,0,1-1.57-5.5,10.55,10.55,0,0,0,1.82,5.35Z"></path>
      <path class="cls-17" d="M103.36,42c1.79,0,3.55.27,5.29.2a9.56,9.56,0,0,0,2.56-.39,5.06,5.06,0,0,0,2.19-1.36,4.43,4.43,0,0,1-2.06,1.71,8.78,8.78,0,0,1-2.66.56,36.32,36.32,0,0,1-5.34-.28Z"></path>
      <path class="cls-17" d="M108.78,42.38a24.23,24.23,0,0,1,5.28,2.13,24.07,24.07,0,0,0-5.33-1.85Z"></path>
      <path class="cls-17" d="M93.23,47.61a52.91,52.91,0,0,1,7.88,1.7c1.28.4,2.52.86,3.81,1.17a10,10,0,0,0,3.94.2,10.35,10.35,0,0,1-4,.11c-1.34-.21-2.63-.58-3.92-.87a53.22,53.22,0,0,0-7.83-1.17Z"></path>
      <path class="cls-17" d="M98.25,48.74c1.18,2.08,3.16,3.66,4.8,5.47-1.8-1.65-3.91-3-5.39-5.09Z"></path>
      <path class="cls-18" d="M100.12,44.47c-3.67,1-8.8,3.27-10.86,6.12s-6,3.07-5.54,6.26,2.67,4.88,4.43,7.14c3.74.14,6.57.15,10.23,1.52a13.51,13.51,0,0,0,11.4-1.3c-3.48-1.66-6.76-4.42-7.2-8.51S102.27,48.14,100.12,44.47Z"></path>
      <path class="cls-17" d="M100.77,56c-2.46,1-5,1.91-7.36,3a38.68,38.68,0,0,0-6.9,3.54c-4.29,2.88-7.28,7.22-9.79,11.77l-1.89-1.09a50,50,0,0,1,4.66-6.62,26.56,26.56,0,0,1,6.14-5.39A31.67,31.67,0,0,1,93,57.82,70.17,70.17,0,0,1,100.77,56Z"></path>
      <path class="cls-17" d="M89.63,59.13a12.47,12.47,0,0,1,1.74-3.82,11.45,11.45,0,0,1,2.93-2.88,11.3,11.3,0,0,0-2.44,3.18,11.56,11.56,0,0,0-1.1,3.75Z"></path>
      <polygon class="cls-17" points="91.29 59.36 98.36 60.54 91.23 59.77 91.29 59.36"></polygon>
      <path class="cls-15" d="M110.85,54.69c.37-.49.9-.34,1.35-.26s.52.24.38-.28-.55-1.35.43-1.21,1.37.88,2.49.21,4.18-2.57,5-.82.52,3.3,2.41,3.86,3.5,1,4.35,2.58,3,2.1,2.61,3.95-3.13,3.23-3.26,5,.66.48,1.29,2.09a3.64,3.64,0,0,1-2.44,4.62c0,.57-.12.67-.12,1.28s-.53.89-.16,1.73,1.43,1.64,1,2.93-1,3.14-2.61,3.37.36,1.29.33,2.07-.65,1.17-.7,2S123,90,121.87,90.2a7.59,7.59,0,0,0-3,1.34c-.76.58-1.29.21-1.9.71s-.24,1.07-1.11,1.41a4.58,4.58,0,0,1-3.17.31c-.93-.41-1.18-.86-2.23-1A3.18,3.18,0,0,1,108,91.42c-.6-.92-1-.4-2-1.32a6.1,6.1,0,0,1-1.27-4.53c.19-1.61-.85-3-.51-4.79s1.93-5.62,1-7.34-3.48-2.83-3.59-4.4a24.1,24.1,0,0,0-.33-2.8c-.17-1.08.31-.94.51-1.85s-.89-1.69-1.18-2.61.42-1.71-.21-2.75-2-1.81-1.58-3.34,2.29-3.78,2.51-5.16-1.36-1.82-.7-2.67c1.41-1.82-2.65-3.75.57-3.23,2.52.41,4.86,5.62,5.78,8S109.13,53.9,110.85,54.69Z"></path>
      <path class="cls-17" d="M110.22,54.51c2.43,5.31,4.75,9.6,5,15.64s-.43,12.57-.67,18.67c0-6.11.7-12.66.08-18.69s-3.59-10.3-5.88-15.7A6.72,6.72,0,0,0,110.22,54.51Z"></path>
      <path class="cls-17" d="M111.55,57.75a5.44,5.44,0,0,1-1.4,2.63,6.62,6.62,0,0,1-2.46,1.52c-.88.32-1.77.54-2.61.87a6.34,6.34,0,0,0-2.29,1.44A6.72,6.72,0,0,1,105,62.5c.83-.42,1.7-.74,2.5-1.13a5.7,5.7,0,0,0,2-1.56,4.38,4.38,0,0,0,.92-2.27.57.57,0,1,1,1.14.14.13.13,0,0,1,0,.06Z"></path>
      <path class="cls-17" d="M109.83,60.51a11.54,11.54,0,0,1-1.37,3.35,8.62,8.62,0,0,1-2.55,2.52,8.45,8.45,0,0,0,2.33-2.65,11,11,0,0,0,1.09-3.33.25.25,0,1,1,.5.09Z"></path>
      <path class="cls-17" d="M113,60a19.47,19.47,0,0,1,6,2.61,18.21,18.21,0,0,1,4.59,4.55,17.93,17.93,0,0,0-4.89-4.06,18.75,18.75,0,0,0-5.94-2A.57.57,0,1,1,112.9,60Z"></path>
      <path class="cls-17" d="M120.24,63.4a13,13,0,0,0,.39,3.57A14.54,14.54,0,0,0,122,70.34a15.25,15.25,0,0,1-1.6-3.3,14.43,14.43,0,0,1-.66-3.63.26.26,0,0,1,.25-.28.27.27,0,0,1,.28.25Z"></path>
      <path class="cls-17" d="M115.22,69.66a9.49,9.49,0,0,1-1.48,2.75c-.63.84-1.34,1.57-2,2.34s-1.33,1.54-1.92,2.36a9.64,9.64,0,0,0-1.46,2.65,8.21,8.21,0,0,1,1.19-2.83,26.43,26.43,0,0,1,1.83-2.48c.64-.8,1.32-1.57,1.92-2.37a11.59,11.59,0,0,0,1.48-2.58.23.23,0,0,1,.31-.13A.23.23,0,0,1,115.22,69.66Z"></path>
      <path class="cls-17" d="M115,69.48a44.8,44.8,0,0,1-6.08.9,46.31,46.31,0,0,0,5.94-1.44.28.28,0,0,1,.35.18.29.29,0,0,1-.19.35Z"></path>
      <path class="cls-17" d="M115.31,70.56a26.46,26.46,0,0,1,3.31,4.3,31.25,31.25,0,0,1,2.48,4.81c-.91-1.56-1.82-3.1-2.81-4.59A34.65,34.65,0,0,0,115,70.87a.23.23,0,1,1,.33-.31Z"></path>
      <path class="cls-17" d="M119.17,75.84a14.22,14.22,0,0,0,0,4.32,24.65,24.65,0,0,0,1.08,4.22,25.18,25.18,0,0,1-1.19-4.2,14.56,14.56,0,0,1-.12-4.37.09.09,0,0,1,.11-.09.11.11,0,0,1,.1.11Z"></path>
      <path class="cls-15" d="M51.37,77.5c1.17-1.17,1.87-3,2.64-4.31s1.12.17,1.73-1.63,3.18-3.13,2.15-5.47-4.49-2-6.18-3.22-.53-2.49-.81-4.08A4.49,4.49,0,0,0,52,56.32a2.35,2.35,0,0,1,1-1.71c.6-.51,2.57-1.87,1.69-2.58s-1.54-.13-1.88-1.39-1-4.28-2.7-3.42-2.88,2.37-4.45,1.18-2.59-2.34-4.36-2-3.16-1.82-4.41-.59-.91,4.32-2.4,5.07-.41-.28-2.12-.43-3.49,2.18-3,4.26c-.47.3-.51.47-1,.78s-.42,1.08-1.2,1.35-2-.55-2.42.78-1.36,3.16-.62,4.49S22.59,61.86,22,62a6.47,6.47,0,0,1-1.68.62c-.68,0-2.37-.1-2.39.9a2.44,2.44,0,0,1-1.64,2c-.74.37-.44.84-1.11,1.22s-1.33-.19-1.89.66A3.06,3.06,0,0,0,13,70.62,7.65,7.65,0,0,1,14.47,73a4.45,4.45,0,0,0,2.27,2.69c1.16.64,1,1.36,1.9,2.36a5.65,5.65,0,0,0,4.17,1.52c1.45-.09,1.5,1.13,3.18,1s4.2-1,6.05-.21,5.18,1.77,6.75,1A32.41,32.41,0,0,1,42,80a4.23,4.23,0,0,0,2-2.08c.53-.86,1.47.17,2.26.08s1.19-1.52,2.23-1S50.2,78.67,51.37,77.5Z"></path>
      <path class="cls-17" d="M62.55,71.85a36.27,36.27,0,0,0-2.72-5.26,14.77,14.77,0,0,0-4-4.13,12.67,12.67,0,0,0-5.24-2.25,16,16,0,0,0-5.77.09,16.34,16.34,0,0,0-5.33,2.29c-1.67,1.06-3.21,2.32-4.81,3.56a26.37,26.37,0,0,1-5.1,3.34,13.55,13.55,0,0,1-2.89,1,13.46,13.46,0,0,1-3,.27,16,16,0,0,0,2.94-.59A15.35,15.35,0,0,0,29.3,69a32.54,32.54,0,0,0,4.8-3.53,47,47,0,0,1,4.79-3.76,17.54,17.54,0,0,1,5.66-2.53A16.74,16.74,0,0,1,50.78,59a14,14,0,0,1,5.76,2.45,17,17,0,0,1,2.4,2,15.22,15.22,0,0,1,1.93,2.47,37.47,37.47,0,0,1,2.74,5.49Z"></path>
      <path class="cls-17" d="M51,59.69a11.89,11.89,0,0,0,.26,2.7,5.92,5.92,0,0,1-.2,3c-.32.94-.75,1.76-1,2.67a5.58,5.58,0,0,0-.24,2.78,5.73,5.73,0,0,1,0-2.85c.16-.94.53-1.87.74-2.75a5.22,5.22,0,0,0-.1-2.66,12.81,12.81,0,0,1-.57-2.92Z"></path>
      <path class="cls-17" d="M48.19,59.66a3.24,3.24,0,0,0-1-2A8.49,8.49,0,0,0,45,56.24a11.67,11.67,0,0,1-2.31-1.4,5.33,5.33,0,0,1-1.59-2.15,5.16,5.16,0,0,0,1.76,1.92,11.5,11.5,0,0,0,2.38,1.11A9,9,0,0,1,47.74,57a4.23,4.23,0,0,1,1.58,2.5Z"></path>
      <path class="cls-17" d="M43.8,60.43a6.28,6.28,0,0,0-.72,2.83,6.76,6.76,0,0,0,.62,2.94A31.1,31.1,0,0,1,45,69.12a6.13,6.13,0,0,1,.31,3.17,6.09,6.09,0,0,0-.58-3.07,30.79,30.79,0,0,0-1.56-2.77,7.38,7.38,0,0,1-1-3.17,7.26,7.26,0,0,1,.55-3.36Z"></path>
      <path class="cls-17" d="M43,63.72a6.84,6.84,0,0,0-1,2.75,12.05,12.05,0,0,0,0,3,12.79,12.79,0,0,1-.33-3,7.4,7.4,0,0,1,.76-3Z"></path>
      <path class="cls-17" d="M43.1,60.76a14.52,14.52,0,0,1-1.38-1.95c-.41-.69-.71-1.43-1-2.11a5.63,5.63,0,0,0-1.24-1.85,3.66,3.66,0,0,0-2.1-.75,3.74,3.74,0,0,1,2.27.52,6.31,6.31,0,0,1,1.58,1.8,22.49,22.49,0,0,0,1.25,1.91A13.09,13.09,0,0,0,44,60Z"></path>
      <path class="cls-17" d="M42.13,59.06a6.9,6.9,0,0,1-3.19-.88,10,10,0,0,1-2.46-2.1,9.62,9.62,0,0,0,2.63,1.74,6.37,6.37,0,0,0,3,.46Z"></path>
      <path class="cls-17" d="M37.88,63.09a22.43,22.43,0,0,1-3.45-3.23A13.84,13.84,0,0,0,33,58.07a2,2,0,0,0-2.13-.37,2.13,2.13,0,0,1,2.26.2,14.41,14.41,0,0,1,1.65,1.67,21.31,21.31,0,0,0,3.63,2.83Z"></path>
      <path class="cls-17" d="M36.06,61.5a5.91,5.91,0,0,0-2.9-.52c-.51,0-1,0-1.56,0a2.61,2.61,0,0,1-1.45-.55,2.88,2.88,0,0,0,1.46.34c.51,0,1-.09,1.53-.14a8.35,8.35,0,0,1,1.58,0,4.21,4.21,0,0,1,1.55.46Z"></path>
      <path class="cls-17" d="M36.87,65.35a7.9,7.9,0,0,0,1,3.57c.24.61.47,1.22.67,1.86a10.52,10.52,0,0,1,.41,1.93,31.58,31.58,0,0,0-1.61-3.55,18.89,18.89,0,0,1-.81-1.82,4.13,4.13,0,0,1-.23-2.07Z"></path>
      <path class="cls-17" d="M37.24,64a38.43,38.43,0,0,0-1.05,5.38,16.59,16.59,0,0,0,0,2.73,10.85,10.85,0,0,1-.11,2.79,15,15,0,0,0-.27-2.75,13.11,13.11,0,0,1-.2-2.81,23.66,23.66,0,0,1,1-5.5Z"></path>
      <path class="cls-17" d="M33.54,66.94a4.79,4.79,0,0,1-1.73,0,4.62,4.62,0,0,1-1.57-.68c-.94-.59-1.8-1.27-2.78-1.76A31,31,0,0,1,30.38,66a3.94,3.94,0,0,0,1.49.48,4,4,0,0,0,1.54-.15Z"></path>
      <path class="cls-17" d="M32.6,67.76a15.41,15.41,0,0,0-2.11,5.89,15.86,15.86,0,0,1,1.56-6.22Z"></path>
      <path class="cls-18" d="M83.79,50.08c-1.05-1.28-.15-3.26-.5-4.25s-1.88-2.45-1.38-3a5.13,5.13,0,0,0,.89-3.06c0-1.22-.53-1.91-.23-3.71a4.35,4.35,0,0,0-.9-2.82c-1.08,0-2.16-.08-3.25-.16-5.5.12-11,.22-16.49.24-4,0-8.43.43-12.7.25a8.47,8.47,0,0,0-.45,1.64,12.84,12.84,0,0,1-.07,1.54c-2.61,1.11-2.82,4.54-1.78,6.16s1.33.34,1.36,2.11-2.88,3.62-3.81,5.44,2,2.85,1.8,5S47.4,58.5,49,60.16s.19,3-.49,5.11,2.71,2,4.32,2,1.43.37,2.78,1.13,2.7-2,3.36-3,.69-1.28,1.8-1.76a7.08,7.08,0,0,0,2.84-2.05c2.11-.35,3.9-1.65,6.12-.09s2.76,4.77,6,5.82,6-.69,7.62-2.83S83,63,83.92,61.27a27.44,27.44,0,0,0,2-7.24C86.31,51.56,84.84,51.35,83.79,50.08Z"></path>
      <path class="cls-17" d="M65.88,50.32a80.62,80.62,0,0,0,2.29,9.88,51,51,0,0,1,1.88,10.31l-3.22,0a49.12,49.12,0,0,0-.72-9.9c-.5-3.35-1.13-6.75-1.31-10.2Z"></path>
      <polygon class="cls-17" points="66.67 57.25 78.1 48.26 67.42 58.12 66.67 57.25"></polygon>
      <path class="cls-17" d="M71.68,53.37a39.93,39.93,0,0,1,3.47-8.69,39.52,39.52,0,0,0-2.92,8.82Z"></path>
      <path class="cls-17" d="M70.15,54.79a29.88,29.88,0,0,0,8.78-.67,29.65,29.65,0,0,1-8.8,1.27Z"></path>
      <path class="cls-17" d="M72.9,54.91a8.93,8.93,0,0,1,3.35,1.21c1,.56,2,1.21,3.1,1.69-1.1-.43-2.12-1-3.18-1.55a8.74,8.74,0,0,0-3.28-1Z"></path>
      <path class="cls-17" d="M66.53,58.08a22,22,0,0,1-8-3.8,18.9,18.9,0,0,1-5.66-6.6,18.57,18.57,0,0,0,6,6.13A21.57,21.57,0,0,0,66.76,57Z"></path>
      <path class="cls-17" d="M59.34,54.7a23,23,0,0,1-3.26-8.91,22.73,22.73,0,0,0,3.66,8.67Z"></path>
      <path class="cls-17" d="M58.07,52.11a28.25,28.25,0,0,0,.58-6.31,27.84,27.84,0,0,1-.29,6.38Z"></path>
      <path class="cls-17" d="M60.84,55.57a17.08,17.08,0,0,1-3.92,2c-1.36.51-2.74.91-4.13,1.31,1.36-.5,2.71-1,4-1.6a16.56,16.56,0,0,0,3.66-2.16Z"></path>
      <path class="cls-17" d="M57.07,57.4A15.82,15.82,0,0,1,55.73,61a34,34,0,0,1-1.91,3.32,33,33,0,0,0,1.74-3.4,15.38,15.38,0,0,0,1.14-3.6Z"></path>
      <polygon class="cls-17" points="63.12 37.04 60.83 42.09 62.03 36.67 63.12 37.04"></polygon>
      <path class="cls-15" d="M72.66,31.53c-8.21-.29-15.75.77-23.68,1.86-.47,0-.16,1.28.07,1.59.42.59,0,.89.76,1.46s.51.57,1,1.42.05.88.9,1.51,2.61-.09,3-.12,1,.12,1.72,1.16-.62,1.45-.59,2.57,1.17.74,2.21,1.58.19,1.36.89,2.67.71,1.1,1.89,1.88a18,18,0,0,1,2.71,2.54c.67.67,1.78,1.57,2.38,2.12s1.2-.21,2.33-1.12.82-.74,1.79-.86,1.51-1.24,2.15-2.36,2.17-2.69,2.8-2.79,1,.35,1.69.65.73-1.23,1-2.41.13-.29.89-.73a4.81,4.81,0,0,0,1.7-3c.3-1.27-.25-1.28-.5-2.12s-.07-1.17.68-1.42a11.31,11.31,0,0,0,1.83-.49c.35-.25,0-.68,0-1.18s.36-.26.78-.32.19-1.52.75-2.15c.39-.43.45-1,.2-1.06C79.43,32.07,77.21,31.69,72.66,31.53Z"></path>
      <path class="cls-17" d="M66.29,31.56a51.3,51.3,0,0,1,.15,14.69,52.8,52.8,0,0,0-1.32-14.64Z"></path>
      <path class="cls-17" d="M66.32,32.93A18,18,0,0,1,63,37.18a25.56,25.56,0,0,1-4.18,3.31,25.4,25.4,0,0,0,3.85-3.62,17.17,17.17,0,0,0,2.85-4.33Z"></path>
      <polygon class="cls-17" points="66.19 32.26 75.43 40.56 65.46 33.16 66.19 32.26"></polygon>
      <path class="cls-17" d="M69.94,35.72a23.44,23.44,0,0,1,1.81,6.36A22.78,22.78,0,0,0,69.47,36Z"></path>
      <path class="cls-12" d="M85.1,78.81c-4.22-7.27-5.53-10-20.07-9.75-7.87.16-11.31,5-12.37,10.4H85.44C85.34,79.24,85.22,79,85.1,78.81Z"></path>
      <path class="cls-13" d="M85.1,78.81c-.53-.91-1-1.72-1.47-2.49a17.53,17.53,0,0,1-.21,1.78c-.08.46-.18.91-.26,1.36h2.28C85.34,79.24,85.22,79,85.1,78.81Z"></path>
      <path class="cls-13" d="M74.08,78.22a5.62,5.62,0,0,0-.1,1.24h.92A5,5,0,0,0,74.08,78.22Z"></path>
      <path class="cls-8" d="M54.24,82.53a1,1,0,0,0-1-.37c-.55.17-.76.61-.67.77l.21.21c.13.13.42-.25.43-.25Z"></path>
      <path class="cls-19" d="M54.53,83.19s-.17-.75-.45-.76a4.37,4.37,0,0,1-.6-.05l-.08.14s.28.49.39.53l.37.11A2.86,2.86,0,0,0,54.53,83.19Z"></path>
      <path class="cls-10" d="M54.51,83.28c0-.06.07-.23-.11-.28a2,2,0,0,0-.37-.08s-.44.34-.53.39-.15,0,.11.13.25.14.49.11A.69.69,0,0,0,54.51,83.28Z"></path>
      <path class="cls-11" d="M54,82.92a4.31,4.31,0,0,0-.32.32c-.13.16-.16.21-.32.12s-.57-.13-.67-.29-.11-.14,0-.33a.82.82,0,0,1,.52-.32.46.46,0,0,1,.53.11A1.15,1.15,0,0,1,54,82.92Z"></path>
      <path class="cls-8" d="M62.3,76.4S60.47,73.92,58,74.53s-3.55,2.49-3.17,3.2a7.88,7.88,0,0,0,.85,1c.57.63,2-1,2-1S62.3,76.4,62.3,76.4Z"></path>
      <path class="cls-19" d="M63.39,79.41s-.56-3.37-1.82-3.48a26.28,26.28,0,0,1-2.64-.38l-.39.58s1.11,2.25,1.6,2.46,1.43.48,1.64.59A12.6,12.6,0,0,0,63.39,79.41Z"></path>
      <path class="cls-10" d="M63.27,79.81c.12-.28.38-1-.4-1.31a11.94,11.94,0,0,0-1.61-.43s-2.07,1.4-2.48,1.61-.67.17.47.58,1.1.7,2.15.63A3.06,3.06,0,0,0,63.27,79.81Z"></path>
      <path class="cls-11" d="M61.26,78.07a14.24,14.24,0,0,0-1.54,1.35c-.61.66-.73.86-1.41.47s-2.49-.76-2.92-1.48S55,77.76,55.6,77A3.65,3.65,0,0,1,58,75.66a2,2,0,0,1,2.3.63A5.23,5.23,0,0,1,61.26,78.07Z"></path>
      <path class="cls-8" d="M53.81,77.69s-2.61-2-5-.66-2.92,3.63-2.33,4.25a9.07,9.07,0,0,0,1.18.76c.77.48,1.72-1.6,1.78-1.63S53.81,77.69,53.81,77.69Z"></path>
      <path class="cls-19" d="M55.84,80.47s-1.59-3.31-2.91-3-2.84.39-2.84.39l-.23.72s1.81,2,2.38,2,1.62.08,1.86.13A13.8,13.8,0,0,0,55.84,80.47Z"></path>
      <path class="cls-10" d="M55.84,80.92c0-.32.08-1.17-.81-1.23a12.13,12.13,0,0,0-1.78,0s-1.73,2-2.09,2.39-.64.38.66.46,1.34.4,2.4,0A3.35,3.35,0,0,0,55.84,80.92Z"></path>
      <path class="cls-11" d="M53.25,79.72a14.65,14.65,0,0,0-1.19,1.84c-.45.87-.51,1.12-1.33.91s-2.79,0-3.44-.66-.63-.54-.22-1.56a4,4,0,0,1,2.12-2.06,2.22,2.22,0,0,1,2.56,0A5.73,5.73,0,0,1,53.25,79.72Z"></path>
      <path class="cls-8" d="M67.44,82.28a1.61,1.61,0,0,0,1.46-.72c.39-.79.13-1.49-.14-1.55a3.35,3.35,0,0,0-.45,0c-.29,0-.17.74-.19.76Z"></path>
      <path class="cls-19" d="M66.4,81.9s1,.6,1.33.29a9.17,9.17,0,0,1,.69-.61l-.07-.23a3.37,3.37,0,0,0-1-.13c-.17.09-.45.27-.52.3A3.57,3.57,0,0,0,66.4,81.9Z"></path>
      <path class="cls-10" d="M66.32,81.77c.05.1.19.33.44.19a4.51,4.51,0,0,0,.47-.33s.1-.86.13-1,.11-.22-.26,0-.43.14-.64.43A1.05,1.05,0,0,0,66.32,81.77Z"></path>
      <path class="cls-11" d="M67.23,81.63a4.09,4.09,0,0,0,0-.7c0-.31-.06-.39.19-.48s.76-.49,1-.44.27,0,.34.38a1.26,1.26,0,0,1-.2.93.71.71,0,0,1-.68.46A1.81,1.81,0,0,1,67.23,81.63Z"></path>
      <path class="cls-8" d="M42.51,82.84a2,2,0,0,0,1.91-.79c.57-1,.31-1.88,0-2a4.1,4.1,0,0,0-.57,0c-.37,0-.29.93-.3,1S42.51,82.84,42.51,82.84Z"></path>
      <path class="cls-19" d="M41.22,82.26s1.24.86,1.66.49.93-.71.93-.71l-.06-.3a4,4,0,0,0-1.27-.25c-.22.09-.59.3-.69.33A5.81,5.81,0,0,0,41.22,82.26Z"></path>
      <path class="cls-10" d="M41.13,82.1c0,.12.21.44.54.27A5.25,5.25,0,0,0,42.3,82s.19-1.08.25-1.28.15-.26-.33,0-.55.13-.86.49A1.35,1.35,0,0,0,41.13,82.1Z"></path>
      <path class="cls-11" d="M42.3,82a7.5,7.5,0,0,0,.05-.9c0-.4-.05-.5.28-.59S43.64,80,44,80s.34.06.4.51a1.63,1.63,0,0,1-.34,1.17.9.9,0,0,1-.9.53A2.3,2.3,0,0,1,42.3,82Z"></path>
      <path class="cls-8" d="M49.79,81.43A1.27,1.27,0,0,1,51,81.25c.58.26.73.73.59.87s-.18.11-.27.17-.42-.33-.44-.33Z"></path>
      <path class="cls-19" d="M49.33,82s.35-.71.66-.67a6.27,6.27,0,0,0,.68.06l.07.15s-.42.43-.55.45l-.44,0A4.1,4.1,0,0,1,49.33,82Z"></path>
      <path class="cls-10" d="M49.34,82.12a.2.2,0,0,1,.18-.26,3.37,3.37,0,0,1,.42,0s.43.41.52.48.16.08-.15.1-.31.1-.57,0A.73.73,0,0,1,49.34,82.12Z"></path>
      <path class="cls-11" d="M49.94,81.85a2.78,2.78,0,0,1,.3.38c.12.17.13.22.33.17s.66,0,.81-.17.15-.12,0-.33-.26-.28-.53-.41a.59.59,0,0,0-.61,0A1.25,1.25,0,0,0,49.94,81.85Z"></path>
      <path class="cls-8" d="M60.47,78.42S58,76.6,55.84,77.91s-2.64,3.41-2.07,4a8.57,8.57,0,0,0,1.09.68c.73.42,1.57-1.52,1.62-1.54S60.47,78.42,60.47,78.42Z"></path>
      <path class="cls-19" d="M62.4,81s-1.53-3-2.75-2.76-2.62.42-2.62.42l-.2.66s1.71,1.81,2.24,1.86,1.5,0,1.72.08A11.54,11.54,0,0,0,62.4,81Z"></path>
      <path class="cls-10" d="M62.4,81.37c0-.3.05-1.08-.77-1.12a11.24,11.24,0,0,0-1.65.06s-1.55,1.94-1.88,2.26-.58.36.62.41,1.24.35,2.22,0A3.09,3.09,0,0,0,62.4,81.37Z"></path>
      <path class="cls-11" d="M60,80.31A14.36,14.36,0,0,0,58.92,82c-.39.81-.45,1-1.21.86s-2.58,0-3.2-.54-.59-.49-.23-1.44A3.66,3.66,0,0,1,56.2,79a2,2,0,0,1,2.37-.08A5.22,5.22,0,0,1,60,80.31Z"></path>
      <path class="cls-8" d="M47.34,81.27s-2-.37-2.93,1.06-.58,2.82-.07,3a7.46,7.46,0,0,0,.86.08c.56,0,.49-1.37.51-1.4S47.34,81.27,47.34,81.27Z"></path>
      <path class="cls-19" d="M49.24,82.22s-1.81-1.37-2.46-.85-1.45,1-1.45,1l.08.46a6.16,6.16,0,0,0,1.89.45c.33-.12.91-.41,1.06-.46A7.13,7.13,0,0,0,49.24,82.22Z"></path>
      <path class="cls-10" d="M49.37,82.47c-.07-.19-.29-.67-.79-.45a7.9,7.9,0,0,0-1,.52s-.36,1.62-.46,1.91-.24.39.49.07.85-.16,1.33-.68A2,2,0,0,0,49.37,82.47Z"></path>
      <path class="cls-11" d="M47.6,82.54a8.86,8.86,0,0,0-.12,1.36c0,.6,0,.75-.47.87s-1.55.78-2.09.62-.5-.12-.56-.8a2.45,2.45,0,0,1,.58-1.73,1.37,1.37,0,0,1,1.4-.75A3.55,3.55,0,0,1,47.6,82.54Z"></path>
      <path class="cls-8" d="M75.66,87.2a1.27,1.27,0,0,0-1.2-.45c-.67.21-.93.74-.82.92a1.94,1.94,0,0,0,.25.26c.17.16.52-.3.53-.3Z"></path>
      <path class="cls-19" d="M76,88s-.21-.91-.55-.92-.72-.06-.72-.06l-.1.16s.34.6.47.64.4.11.46.14S76,88,76,88Z"></path>
      <path class="cls-10" d="M76,88.11c0-.08.09-.29-.13-.35a2.2,2.2,0,0,0-.44-.09s-.54.41-.65.47-.18.06.14.15.31.18.59.14A.84.84,0,0,0,76,88.11Z"></path>
      <path class="cls-11" d="M75.4,87.67a3.81,3.81,0,0,0-.4.39c-.15.18-.18.24-.38.14s-.68-.16-.81-.35-.13-.17,0-.4a1,1,0,0,1,.64-.39.57.57,0,0,1,.64.14A1.33,1.33,0,0,1,75.4,87.67Z"></path>
      <path class="cls-8" d="M69.25,77.46s-3.83-1.91-6.5.42-2.81,5.33-1.89,6a12.13,12.13,0,0,0,1.68.67c1.1.41,1.79-2.47,1.85-2.51S69.25,77.46,69.25,77.46Z"></path>
      <path class="cls-19" d="M72.52,80.48s-2.84-3.8-4.46-3.13-3.51,1.2-3.51,1.2l-.1,1s2.79,2.07,3.53,2,2.07-.3,2.39-.31A15.9,15.9,0,0,0,72.52,80.48Z"></path>
      <path class="cls-10" d="M72.63,81.06c0-.42-.19-1.51-1.34-1.36a16.68,16.68,0,0,0-2.25.48s-1.68,3-2.05,3.57-.71.63,1,.42,1.8.17,3.06-.59A4.29,4.29,0,0,0,72.63,81.06Z"></path>
      <path class="cls-11" d="M69,80.18A20.32,20.32,0,0,0,68,82.82c-.34,1.21-.36,1.54-1.46,1.48S63,85,62,84.33s-.94-.53-.67-1.93.92-2.05,2.18-3.14a2.85,2.85,0,0,1,3.24-.68A7.36,7.36,0,0,1,69,80.18Z"></path>
      <path class="cls-8" d="M82.49,78.27s-3.21-1.9-5.67,0-2.76,4.45-2,5.07a10.46,10.46,0,0,0,1.41.68c.94.42,1.7-2,1.76-2.06S82.49,78.27,82.49,78.27Z"></path>
      <path class="cls-19" d="M85.14,81.08s-2.23-3.47-3.68-3-3.12.84-3.12.84l-.15.83s2.3,2,3,2,1.81-.14,2.1-.12A15.34,15.34,0,0,0,85.14,81.08Z"></path>
      <path class="cls-10" d="M85.2,81.59c0-.37-.07-1.32-1.07-1.26a14.23,14.23,0,0,0-2,.28s-1.64,2.54-2,3-.66.51.8.43,1.55.25,2.69-.33A3.7,3.7,0,0,0,85.2,81.59Z"></path>
      <path class="cls-11" d="M82.14,80.61a16.94,16.94,0,0,0-1.07,2.23c-.37,1-.41,1.32-1.35,1.2s-3.13.35-3.94-.25-.78-.52-.46-1.72a4.46,4.46,0,0,1,2.07-2.59,2.49,2.49,0,0,1,2.86-.4A6.44,6.44,0,0,1,82.14,80.61Z"></path>
      <path class="cls-8" d="M91,74.87s-3.16-2.44-6-.78-3.53,4.37-2.81,5.13a11.42,11.42,0,0,0,1.42.92c.94.57,2.08-1.94,2.15-2S91,74.87,91,74.87Z"></path>
      <path class="cls-19" d="M93.44,78.23s-1.92-4-3.52-3.68-3.43.47-3.43.47l-.28.87s2.19,2.41,2.88,2.48,2,.1,2.25.15A14.77,14.77,0,0,0,93.44,78.23Z"></path>
      <path class="cls-10" d="M93.44,78.78c0-.39.09-1.42-1-1.48a15.75,15.75,0,0,0-2.16,0s-2.08,2.48-2.51,2.89-.78.46.79.56,1.61.49,2.91,0A4,4,0,0,0,93.44,78.78Z"></path>
      <path class="cls-11" d="M90.3,77.33a18.13,18.13,0,0,0-1.43,2.23c-.54,1-.61,1.35-1.61,1.09s-3.37,0-4.16-.79-.76-.66-.26-1.89a4.72,4.72,0,0,1,2.56-2.48,2.65,2.65,0,0,1,3.09,0A6.73,6.73,0,0,1,90.3,77.33Z"></path>
      <path class="cls-8" d="M93.45,85.11a1.9,1.9,0,0,0,1.75-.87c.48-.95.17-1.8-.16-1.87a4.8,4.8,0,0,0-.54,0c-.36,0-.22.9-.23.91S93.45,85.11,93.45,85.11Z"></path>
      <path class="cls-19" d="M92.19,84.65s1.23.73,1.6.36a9,9,0,0,1,.84-.74L94.54,84a3.93,3.93,0,0,0-1.21-.16c-.2.11-.54.33-.63.37A4.13,4.13,0,0,0,92.19,84.65Z"></path>
      <path class="cls-10" d="M92.09,84.5c.06.11.23.4.53.22a4.71,4.71,0,0,0,.57-.39s.12-1,.16-1.22.12-.26-.31,0-.52.16-.78.51A1.28,1.28,0,0,0,92.09,84.5Z"></path>
      <path class="cls-11" d="M93.19,84.33a6,6,0,0,0,0-.85c-.05-.38-.08-.47.23-.58s.91-.59,1.26-.53.32,0,.41.46A1.54,1.54,0,0,1,94.83,84a.85.85,0,0,1-.82.56A2.28,2.28,0,0,1,93.19,84.33Z"></path>
      <path class="cls-8" d="M63.3,85.79a2.43,2.43,0,0,0,2.31-1c.69-1.18.37-2.28,0-2.4a4.41,4.41,0,0,0-.69,0c-.46,0-.35,1.12-.37,1.14S63.3,85.79,63.3,85.79Z"></path>
      <path class="cls-19" d="M61.74,85.09s1.5,1,2,.6,1.13-.87,1.13-.87l-.08-.37a4.84,4.84,0,0,0-1.54-.29c-.26.11-.71.36-.83.4A7.09,7.09,0,0,0,61.74,85.09Z"></path>
      <path class="cls-10" d="M61.63,84.9c.07.15.26.52.66.33a8.43,8.43,0,0,0,.76-.45s.23-1.31.3-1.55.18-.32-.39,0-.68.16-1,.59A1.65,1.65,0,0,0,61.63,84.9Z"></path>
      <path class="cls-11" d="M63.05,84.78a8.44,8.44,0,0,0,.05-1.09c0-.48-.06-.61.35-.72s1.21-.67,1.65-.56.4.07.47.62a1.92,1.92,0,0,1-.4,1.4,1.1,1.1,0,0,1-1.1.65A2.79,2.79,0,0,1,63.05,84.78Z"></path>
      <path class="cls-8" d="M73.9,79.74a1.43,1.43,0,0,0,1.43.25c.7-.37.89-1,.72-1.19a1.89,1.89,0,0,0-.32-.24c-.22-.14-.52.44-.54.45Z"></path>
      <path class="cls-19" d="M73.35,78.92s.42,1,.8.91.83-.08.83-.08l.07-.2s-.5-.6-.66-.62-.46-.05-.53-.06A3.25,3.25,0,0,0,73.35,78.92Z"></path>
      <path class="cls-10" d="M73.36,78.79c0,.09,0,.33.22.36a3,3,0,0,0,.51,0s.52-.57.63-.66.19-.1-.18-.14-.38-.13-.7,0A.92.92,0,0,0,73.36,78.79Z"></path>
      <path class="cls-11" d="M74.09,79.16a4.28,4.28,0,0,0,.37-.51c.13-.25.15-.32.39-.25s.8,0,1,.23.18.17,0,.46a1.14,1.14,0,0,1-.63.56.64.64,0,0,1-.74,0A1.62,1.62,0,0,1,74.09,79.16Z"></path>
      <path class="cls-8" d="M86.79,85.19s3.6.87,5.4-1.61,1.35-5,.45-5.4a10.47,10.47,0,0,0-1.54-.24c-1-.13-1,2.42-1.08,2.47S86.79,85.19,86.79,85.19Z"></path>
      <path class="cls-19" d="M83.46,83.27s3.12,2.66,4.36,1.78,2.72-1.69,2.72-1.69l-.09-.83s-2.76-1.21-3.37-1-1.68.66-2,.72A15.08,15.08,0,0,0,83.46,83.27Z"></path>
      <path class="cls-10" d="M83.25,82.8c.11.35.46,1.24,1.39.89a14.59,14.59,0,0,0,1.81-.84s.83-2.88,1-3.39.48-.68-.88-.18-1.55.2-2.47,1.08A3.77,3.77,0,0,0,83.25,82.8Z"></path>
      <path class="cls-11" d="M86.45,82.85a17.14,17.14,0,0,0,.37-2.43c.06-1.08,0-1.36,1-1.52s2.87-1.24,3.82-.9.89.27.93,1.5a4.38,4.38,0,0,1-1.23,3.06,2.45,2.45,0,0,1-2.6,1.2A6.42,6.42,0,0,1,86.45,82.85Z"></path>
      <path class="cls-8" d="M70.21,83.11s2.16,1.21,3.77-.06,1.77-3,1.26-3.4a6.9,6.9,0,0,0-.95-.43c-.63-.27-1.1,1.37-1.14,1.39S70.21,83.11,70.21,83.11Z"></path>
      <path class="cls-19" d="M68.41,81.27s1.53,2.28,2.48,1.94,2.06-.6,2.06-.6l.09-.55s-1.55-1.28-2-1.27-1.2.12-1.39.11A10.63,10.63,0,0,0,68.41,81.27Z"></path>
      <path class="cls-10" d="M68.36,80.93c0,.25.07.88.73.83a10.07,10.07,0,0,0,1.32-.22s1-1.71,1.28-2,.44-.35-.53-.27-1-.15-1.79.25A2.55,2.55,0,0,0,68.36,80.93Z"></path>
      <path class="cls-11" d="M70.41,81.54a10.94,10.94,0,0,0,.68-1.49c.23-.69.25-.88.88-.82s2.08-.27,2.63.12.52.33.32,1.13a2.89,2.89,0,0,1-1.34,1.75,1.65,1.65,0,0,1-1.89.3A4.27,4.27,0,0,1,70.41,81.54Z"></path>
    </g>
  </g>
</svg>
