<?xml version="1.0" encoding="UTF-8"?>
<svg xmlns="http://www.w3.org/2000/svg" xmlns:xlink="http://www.w3.org/1999/xlink" viewBox="0 0 110.12 150.22">
  <defs>
    <style>.cls-1,.cls-13{fill:none;}.cls-2{fill:#956d4b;}.cls-3{clip-path:url(#clip-path);}.cls-4{fill:url(#Безымянный_градиент_2);}.cls-5{fill:#754120;}.cls-6{fill:#44281c;}.cls-7{fill:#6c3c1d;}.cls-8{fill:#714d31;}.cls-9{fill:#613822;}.cls-10{fill:#7f5637;}.cls-11{fill:#a07850;}.cls-12{fill:#8b5b3c;}.cls-13{stroke:#d7d7d7;stroke-linecap:round;stroke-linejoin:round;stroke-width:0.86px;}.cls-14{fill:#e9c671;}.cls-15{fill:#d9a458;}.cls-16{fill:#84a63c;}.cls-17{fill:#613922;}</style>
    <clipPath id="clip-path">
      <polygon class="cls-1" points="7.72 121.55 57.69 145.07 103.91 121.66 55.86 101.3 7.72 121.55"></polygon>
    </clipPath>
    <linearGradient id="Безымянный_градиент_2" x1="-2616.63" y1="422.41" x2="-2613.83" y2="422.41" gradientTransform="matrix(34.36, 0, 0, -34.36, 89893.67, 14635.82)" gradientUnits="userSpaceOnUse">
      <stop offset="0" stop-color="#a17551"></stop>
      <stop offset="0.38" stop-color="#a17551"></stop>
      <stop offset="0.89" stop-color="#7a4928"></stop>
      <stop offset="1" stop-color="#72401f"></stop>
    </linearGradient>
  </defs>
  <g id="Слой_2" data-name="Слой 2">
    <g id="Слой_1-2" data-name="Слой 1">
      <path class="cls-2" d="M57.69,78.91s9.62,11.3,17.06,11.76,32.81-7.56,32.81-7.56l2.56-26.43L57.69,38.19Z"></path>
      <path class="cls-2" d="M0,54.81,5.23,89.28s18.58,2.79,21.83,1.86,18.12-6.51,22.29-6.51,8.34-5.72,8.34-5.72V38.19Z"></path>
      <g class="cls-3">
        <rect class="cls-4" x="31.38" y="73.98" width="48.87" height="98.4" transform="translate(-70.18 172.31) rotate(-86.92)"></rect>
      </g>
      <path class="cls-5" d="M7.72,121.55,5.23,89.28s23.69-.46,30.19-3.72,22.27-6.65,22.27-6.65L55.86,101.3Z"></path>
      <path class="cls-6" d="M41.49,91.28a8.37,8.37,0,0,0-2.84-1.66l0,0S34.88,88.46,32.82,91s-1.71,5.29-.77,5.73a12.35,12.35,0,0,0,1.63.35l.09,0a28.27,28.27,0,0,0,3.51-.79,2,2,0,0,0,.6-.16l.65-.19c1.49-.46,1.67-.13,2.69-1a4,4,0,0,0,1.09-2.55l-.21-.5h0l0,0a1,1,0,0,0-.58-.51"></path>
      <path class="cls-6" d="M21.2,94.61a11,11,0,0,0-4,1.33v0s-4.3,2.69-3.59,6.84,3.66,6.13,4.88,5.6a13.64,13.64,0,0,0,1.71-1.28l0-.13c.92-1,1.59-3.16,2.21-4a2.1,2.1,0,0,0,.35-.72c.11-.21.21-.42.38-.79.8-1.82,1.28-1.71,1.29-3.46a5.12,5.12,0,0,0-1.54-3.21,3.36,3.36,0,0,0-.66-.22v0h-.08a1.31,1.31,0,0,0-1,.14"></path>
      <path class="cls-7" d="M57.69,78.91,55.86,101.3l48.06,20.36,3.64-38.55s-15-1.73-21.48-.8S68.24,86,64.84,84.17a45.07,45.07,0,0,1-7.15-5.26"></path>
      <path class="cls-6" d="M39.39,101.91a3.49,3.49,0,0,0-1.26-.31h0a2.29,2.29,0,0,0-2,1.18c-.49,1.18-.05,2.18.35,2.24l.65-.06,0,0a12.3,12.3,0,0,0,1.23-.69l.21-.13.22-.14c.51-.34.61-.24.9-.69a1.59,1.59,0,0,0,.12-1.08l-.13-.16h0Z"></path>
      <path class="cls-6" d="M86.47,92.27a2.3,2.3,0,0,0-.11-.89h0s-.38-1-1.27-1-1.43.5-1.38.78l.2.41h0l.75.63.13.11.15.11c.35.24.3.34.66.41a1.06,1.06,0,0,0,.74-.19l.07-.12h0v-.23Z"></path>
      <path class="cls-6" d="M99.89,108.46a11,11,0,0,0-1.9-3.82h0s-3.32-3.91-7.36-2.6-5.59,4.54-4.88,5.69a15.38,15.38,0,0,0,1.52,1.52l.14,0c1.19.77,3.39,1.13,4.37,1.61a2.24,2.24,0,0,0,.77.26l.84.26c1.93.54,1.9,1,3.64.79a5.19,5.19,0,0,0,3-2,3.74,3.74,0,0,0,.13-.68h0l0-.07a1.26,1.26,0,0,0-.28-1"></path>
      <path class="cls-6" d="M73.78,95.17a8.48,8.48,0,0,0-1.87,2.69l0,0s-1.4,3.67,1,5.9,5.11,2.09,5.62,1.19a12.49,12.49,0,0,0,.46-1.59l0-.1a27.85,27.85,0,0,0-.52-3.53,1.77,1.77,0,0,0-.12-.61c0-.17-.07-.36-.13-.66-.35-1.5,0-1.65-.81-2.74a4,4,0,0,0-2.44-1.26l-.51.17h0l0,0a1,1,0,0,0-.54.54"></path>
      <path class="cls-8" d="M74,122.55a1.58,1.58,0,0,0,1.57-.41c.54-.7.43-1.44.17-1.55l-.44-.09c-.29,0-.32.69-.33.71Z"></path>
      <path class="cls-9" d="M73,122s.87.79,1.23.55.8-.46.8-.46l0-.24-1-.32-.56.19Z"></path>
      <path class="cls-10" d="M73,121.84c0,.1.12.35.4.26a5,5,0,0,0,.52-.22l.33-1c.06-.14.14-.19-.25-.06s-.45.05-.72.29a1.11,1.11,0,0,0-.28.7"></path>
      <path class="cls-11" d="M73.88,121.88a5.57,5.57,0,0,0,.13-.7c0-.31,0-.39.28-.43s.84-.33,1.11-.22.26.08.26.44a1.28,1.28,0,0,1-.39.87.7.7,0,0,1-.75.32,1.87,1.87,0,0,1-.64-.28"></path>
      <path class="cls-8" d="M63.28,116.43s2.39.12,3.24-1.67.26-3.36-.36-3.49a6.06,6.06,0,0,0-1,0c-.66,0-.37,1.66-.39,1.7Z"></path>
      <path class="cls-9" d="M60.93,115.6s2.3,1.32,3,.62,1.53-1.4,1.53-1.4l-.15-.52a7.53,7.53,0,0,0-2.27-.25c-.36.2-1,.62-1.16.69Z"></path>
      <path class="cls-10" d="M60.74,115.33c.11.21.43.73,1,.4a8.38,8.38,0,0,0,1.05-.75S63,113,63,112.69s.22-.48-.58,0-1,.31-1.44,1a2.41,2.41,0,0,0-.28,1.66"></path>
      <path class="cls-11" d="M62.78,115a11.07,11.07,0,0,0-.05-1.59c-.09-.7-.16-.87.42-1.09s1.68-1.12,2.32-1,.6.06.77.84a2.88,2.88,0,0,1-.41,2.1,1.61,1.61,0,0,1-1.52,1.07,4,4,0,0,1-1.53-.31"></path>
      <path class="cls-8" d="M53.32,124.19s1.86,1.42,3.54.43,2-2.58,1.62-3a7,7,0,0,0-.84-.53c-.55-.33-1.21,1.15-1.25,1.17Z"></path>
      <path class="cls-9" d="M51.86,122.24s1.15,2.33,2.08,2.14,2-.3,2-.3l.16-.5s-1.29-1.4-1.7-1.44-1.14,0-1.32-.08Z"></path>
      <path class="cls-10" d="M51.86,121.92c0,.23,0,.83.59.87a10.13,10.13,0,0,0,1.26,0l1.46-1.71c.25-.25.45-.27-.47-.33s-1-.27-1.7,0a2.35,2.35,0,0,0-1.14,1.19"></path>
      <path class="cls-11" d="M53.71,122.75a11.08,11.08,0,0,0,.83-1.31c.3-.61.35-.79.93-.65s2,0,2.44.44.45.39.17,1.11a2.85,2.85,0,0,1-1.49,1.47,1.58,1.58,0,0,1-1.81,0,4,4,0,0,1-1.07-1.1"></path>
      <path class="cls-8" d="M49,117.76a2.67,2.67,0,0,0,.1-2.73c-.86-1.21-2.11-1.39-2.41-1l-.35.68c-.22.44,1,.84,1,.87Z"></path>
      <path class="cls-9" d="M47.63,119s1.7-1,1.49-1.72a15.08,15.08,0,0,1-.35-1.51l-.4-.09s-1,1.08-1,1.39,0,.87,0,1Z"></path>
      <path class="cls-10" d="M47.39,119c.18,0,.63,0,.62-.5a7.72,7.72,0,0,0-.11-1l-1.4-1c-.2-.17-.23-.32-.21.38s-.15.74.12,1.3a1.75,1.75,0,0,0,1,.78"></path>
      <path class="cls-11" d="M47.9,117.55a7.93,7.93,0,0,0-1.06-.54c-.49-.19-.62-.21-.55-.67s-.13-1.51.17-1.89.26-.37.84-.2a2.12,2.12,0,0,1,1.21,1,1.18,1.18,0,0,1,.15,1.38,3,3,0,0,1-.76.88"></path>
      <path class="cls-8" d="M40.56,119.77a1.17,1.17,0,0,0,.38-1.12c-.2-.61-.69-.84-.86-.73l-.23.23.29.48Z"></path>
      <path class="cls-9" d="M39.82,120.1s.83-.2.84-.52,0-.67,0-.67l-.15-.09-.58.45-.12.42Z"></path>
      <path class="cls-10" d="M39.71,120.08,40,120l.08-.41-.46-.59c-.06-.1,0-.17-.13.13s-.16.29-.12.55a.77.77,0,0,0,.3.45"></path>
      <path class="cls-11" d="M40.12,119.54l-.37-.36-.15-.35.32-.76.37,0a1,1,0,0,1,.37.59.51.51,0,0,1-.12.59Z"></path>
      <path class="cls-8" d="M38,124.44s1.64-2.64.13-4.72-3.65-2.39-4.18-1.77a8.62,8.62,0,0,0-.6,1.16c-.37.77,1.66,1.46,1.69,1.51Z"></path>
      <path class="cls-9" d="M35.56,126.6s2.94-1.8,2.56-3-.63-2.62-.63-2.62l-.69-.14s-1.69,1.88-1.69,2.42.08,1.51.06,1.75Z"></path>
      <path class="cls-10" d="M35.13,126.63c.31,0,1.1,0,1.07-.87A12.44,12.44,0,0,0,36,124.1s-2.09-1.41-2.44-1.72-.41-.56-.36.66-.25,1.29.21,2.24a3.1,3.1,0,0,0,1.71,1.35"></path>
      <path class="cls-11" d="M36,124.1a14.22,14.22,0,0,0-1.84-.93c-.85-.33-1.08-.37-1-1.16s-.23-2.61.29-3.27.45-.65,1.44-.35a3.69,3.69,0,0,1,2.12,1.78,2.05,2.05,0,0,1,.27,2.38A5.33,5.33,0,0,1,36,124.1"></path>
      <polygon class="cls-12" points="0 54.8 57.69 78.91 110.12 56.68 57.69 38.19 0 54.8"></polygon>
      <path class="cls-13" d="M50.3,78.65S48,81.22,45.8,81.12s-5.25-.53-6.16,0"></path>
      <path class="cls-13" d="M50.62,83.06c-.1.31-.8,3.68-6.16,4.59s-13,1.4-15,6.33"></path>
      <path class="cls-13" d="M41,88.19a7.61,7.61,0,0,0-2.77,7.88"></path>
      <path class="cls-13" d="M57.16,88.19A8.82,8.82,0,0,1,53.63,94c-3.27,2.46-8.15,1.18-10.83,8.89"></path>
      <path class="cls-13" d="M51.55,95.09s2.16,2.21,0,5.53a7.54,7.54,0,0,0-.66,3.38"></path>
      <path class="cls-13" d="M61.07,88.83s-4,4.22-1,7.24c3.85,3.86-.54,10.23-.54,10.23"></path>
      <path class="cls-13" d="M61,97.25s5.2,1.55,4.19,8.73"></path>
      <path class="cls-13" d="M67.72,86.69s7.13,3.48,7.93,8,1.07,7.39,2,8.14"></path>
      <path class="cls-13" d="M71.68,89.23s7.24,2.68,8.74,5.86"></path>
      <path class="cls-13" d="M71.25,82.08s.76.64,5.69.43,8.3-1.29,11.52,2.49"></path>
      <path class="cls-13" d="M79.86,82.31s.77,4.11,4.26,4"></path>
      <path class="cls-14" d="M57.75,78.22S54.43,77,53,76.51s-4.24.37-4.51,2.41,1,8,5.95,9.75,6.06.86,7.13.81,2.2-2,4-1.88,2,.27,2.84.05,3.86-.64,4.13-3.53S71.4,75.91,64.66,77C61.45,77.51,60.81,79.62,57.75,78.22Z"></path>
      <ellipse class="cls-15" cx="66.03" cy="82.08" rx="0.88" ry="0.43"></ellipse>
      <ellipse class="cls-15" cx="60.62" cy="85" rx="1.1" ry="0.46"></ellipse>
      <ellipse class="cls-15" cx="54.32" cy="82.35" rx="1.13" ry="0.7"></ellipse>
      <path class="cls-16" d="M52.59,0c0,.43.57,10.43,6.29,10.43,0,0,.57-8-6.29-10"></path>
      <path class="cls-16" d="M58.88,10.43s-1.29-5.29,4.86-7c0,0-.72,2.57-1.29,4.57S58.88,10.43,58.88,10.43Z"></path>
      <path class="cls-16" d="M58.88,10.43s-4.57-1-6.29,5.43c0,0,4,1.43,5.15-2Z"></path>
      <path class="cls-16" d="M72.45,4.14s-4.14,1-5.28,7a3,3,0,0,0,3.57-.77C72.6,8.57,72,5.72,72.45,4.14Z"></path>
      <path class="cls-16" d="M65,12.43A8.36,8.36,0,0,1,66,6S68.31,11.86,65,12.43Z"></path>
      <path class="cls-16" d="M65,12.43s4.72-1.28,6.29,2.72C71.31,15.15,67.6,16.86,65,12.43Z"></path>
      <path class="cls-16" d="M55.22,19.76s-3.75,3.8.91,6.48C56.13,26.24,60.25,24.69,55.22,19.76Z"></path>
      <path class="cls-16" d="M53.56,26s-4.88-5.73-9.92.59c0,0,2.74,2.41,3.91,3.16S53.32,29.13,53.56,26Z"></path>
      <path class="cls-16" d="M56.13,26.76s-2.63.6-2.57,2.75-.16,2.62-.59,3.11S59.29,31.35,56.13,26.76Z"></path>
      <path class="cls-16" d="M66.58,19.76s-2.07,3.91,1.59,5.14C68.17,24.9,71.08,22.17,66.58,19.76Z"></path>
      <path class="cls-16" d="M71,24.9s-1.63-1.23.28-3S74.4,20,74.78,20,74.72,24.26,71,24.9Z"></path>
      <path class="cls-16" d="M72.45,24.9s6.08-2.27,5.81,5a8.93,8.93,0,0,1-2.9-.2C74.13,29.35,71.74,26.94,72.45,24.9Z"></path>
      <path class="cls-16" d="M70.81,25.7s2.36,1,0,5.15c0,0-2.48-1.07-1-3.81S70.81,25.7,70.81,25.7Z"></path>
      <path class="cls-16" d="M69.34,34.33c0-.13-5,.91-1.8,6.86a2.35,2.35,0,0,0,2.27-2.47C69.74,36.37,69,35.19,69.34,34.33Z"></path>
      <path class="cls-16" d="M69.34,41.19s7.69-6.64,8.49,2.09c0,0-1.77-1.13-3.11-.64C74,42.88,70.17,44.89,69.34,41.19Z"></path>
      <path class="cls-16" d="M68.14,41.94s-3.55,3.38,2.19,6.11A8.43,8.43,0,0,1,70.86,45C71.46,43.44,68.63,41.33,68.14,41.94Z"></path>
      <path class="cls-16" d="M56.4,44.24s3.75-1.39,1-8.52A21.82,21.82,0,0,1,55,38.4C54.09,39.1,52.54,41.46,56.4,44.24Z"></path>
      <path class="cls-16" d="M54.15,43.4s-1.5-10.42-8.1-4.63a8.74,8.74,0,0,1,3.75,4C50.77,45.37,54.15,43.4,54.15,43.4Z"></path>
      <path class="cls-16" d="M55,44.24s-4.14-1-3.71,3.27a3.2,3.2,0,0,1-.86,3.33S58.2,50.62,55,44.24Z"></path>
      <path class="cls-16" d="M58.56,9.13c1.19,1.88,2.28,3.8,3.37,5.74a26.64,26.64,0,0,1,2.47,6.29,27.56,27.56,0,0,1,.8,6.71l-.07,1.7L65,31.26l-.26,1.67-.32,1.65c-.47,2.19-1.09,4.34-1.63,6.47a38.82,38.82,0,0,0-1.16,6.45,52.93,52.93,0,0,0,.85,13.09h0a.64.64,0,0,1-1.27.22h0a53.71,53.71,0,0,1-.82-13.41,39.59,39.59,0,0,1,1.25-6.63c.57-2.16,1.2-4.28,1.67-6.43l.35-1.61.27-1.61.19-1.62.08-1.63a25.45,25.45,0,0,0-3-12.59c-1-1.95-2-3.94-3-6a.19.19,0,0,1,.33-.17Z"></path>
      <path class="cls-16" d="M63.41,20.13a10.06,10.06,0,0,1-.38-3,7.66,7.66,0,0,1,.68-2.94,6.37,6.37,0,0,1,1.83-2.37A8,8,0,0,1,66.78,11c.43-.24.9-.42,1.34-.63a.13.13,0,0,1,.16.06.13.13,0,0,1,0,.15h0c-.43.22-.88.41-1.29.66a7.49,7.49,0,0,0-1.15.86,6.09,6.09,0,0,0-1.64,2.29,6.92,6.92,0,0,0-.52,2.77,8.94,8.94,0,0,0,.45,2.78v0a.34.34,0,0,1-.22.43.33.33,0,0,1-.43-.21Z"></path>
      <path class="cls-16" d="M64.19,30.23a6.51,6.51,0,0,1,1.06-2.72,6.38,6.38,0,0,1,2.13-1.94,7.93,7.93,0,0,1,2.72-.82c.47-.06.94-.05,1.41-.07l1.4.1a.12.12,0,0,1,.12.13.13.13,0,0,1-.13.11h0l-1.38,0c-.45,0-.91.05-1.36.12a7.75,7.75,0,0,0-2.54.88,5.8,5.8,0,0,0-1.87,1.85,6,6,0,0,0-.85,2.46v0a.35.35,0,0,1-.38.31.35.35,0,0,1-.31-.39Z"></path>
      <path class="cls-16" d="M52,26a21.82,21.82,0,0,1,3.79.15,10.49,10.49,0,0,1,1.88.45c.15.05.3.12.45.18a3.21,3.21,0,0,1,.45.24c.28.18.55.36.8.55a28.39,28.39,0,0,1,2.77,2.6,19,19,0,0,1,1.25,1.44,5.53,5.53,0,0,1,1,1.75.35.35,0,0,1-.23.45.37.37,0,0,1-.46-.24h0v0a5.5,5.5,0,0,0-.88-1.48c-.37-.48-.78-1-1.19-1.4a32.34,32.34,0,0,0-2.67-2.57c-.23-.21-.46-.42-.69-.6a2,2,0,0,0-.37-.22,2.52,2.52,0,0,0-.41-.17,8.76,8.76,0,0,0-1.76-.46,18.31,18.31,0,0,0-3.7-.22h0a.21.21,0,0,1-.22-.2A.2.2,0,0,1,52,26Z"></path>
      <path class="cls-16" d="M53.13,42.43l2.47,1.43c.83.48,1.63.93,2.48,1.45A7,7,0,0,1,60,47.58a23.14,23.14,0,0,1,1.26,2.61.44.44,0,0,1-.24.58.43.43,0,0,1-.57-.23v0h0a20.86,20.86,0,0,0-1.09-2.57,6.21,6.21,0,0,0-1.6-2.15c-.75-.52-1.57-1-2.35-1.58L53,42.63a.11.11,0,0,1,0-.16A.1.1,0,0,1,53.13,42.43Z"></path>
      <path class="cls-16" d="M60.52,46.86a15.2,15.2,0,0,1,1.73-2.3,13,13,0,0,1,2.14-1.92A8.36,8.36,0,0,1,67,41.4a6.76,6.76,0,0,1,1.42-.21,6.24,6.24,0,0,1,1.43.13.08.08,0,0,1,.07.1.08.08,0,0,1-.1.07h0a6.47,6.47,0,0,0-1.39-.05,6.11,6.11,0,0,0-1.34.26A8,8,0,0,0,64.65,43a11.93,11.93,0,0,0-2,1.93,14.24,14.24,0,0,0-1.55,2.27h0a.35.35,0,0,1-.62-.33Z"></path>
      <path class="cls-8" d="M60.94,63.15a1.25,1.25,0,0,0-1.2-.44c-.66.2-.93.73-.81.92a2.58,2.58,0,0,0,.24.25c.17.16.52-.3.54-.3Z"></path>
      <path class="cls-17" d="M61.28,64s-.2-.91-.55-.92A5.41,5.41,0,0,1,60,63l-.1.17s.34.59.48.64l.45.13A2.64,2.64,0,0,0,61.28,64Z"></path>
      <path class="cls-10" d="M61.26,64.06a.24.24,0,0,0-.13-.35,3.86,3.86,0,0,0-.45-.09s-.54.41-.65.48-.17.05.14.15.31.17.6.13A.83.83,0,0,0,61.26,64.06Z"></path>
      <path class="cls-11" d="M60.68,63.62a3.21,3.21,0,0,0-.39.39c-.16.19-.19.25-.38.15s-.69-.17-.82-.36-.12-.17,0-.39a1,1,0,0,1,.64-.39.55.55,0,0,1,.63.13A1.42,1.42,0,0,1,60.68,63.62Z"></path>
      <path class="cls-8" d="M43.93,57a1.86,1.86,0,0,0-1.86-.27c-.89.5-1.1,1.34-.88,1.57a3.15,3.15,0,0,0,.43.29c.29.18.65-.59.67-.6Z"></path>
      <path class="cls-17" d="M44.67,58s-.57-1.23-1.07-1.14-1.06.13-1.06.13l-.09.26s.67.75.88.78.6,0,.69.05A4.6,4.6,0,0,0,44.67,58Z"></path>
      <path class="cls-10" d="M44.67,58.18c0-.12,0-.43-.3-.46a6.24,6.24,0,0,0-.66,0s-.65.76-.79.88-.24.14.24.18.5.15.9,0A1.25,1.25,0,0,0,44.67,58.18Z"></path>
      <path class="cls-11" d="M43.71,57.72a6.77,6.77,0,0,0-.45.68c-.17.32-.2.42-.5.33s-1,0-1.28-.26-.23-.2-.07-.58a1.46,1.46,0,0,1,.79-.75.82.82,0,0,1,1,0A2.09,2.09,0,0,1,43.71,57.72Z"></path>
      <path class="cls-8" d="M55.94,54.51s-3.83-1.91-6.5.42-2.81,5.33-1.89,6a12.45,12.45,0,0,0,1.67.67c1.11.41,1.79-2.47,1.86-2.51S55.94,54.51,55.94,54.51Z"></path>
      <path class="cls-17" d="M59.21,57.53s-2.84-3.8-4.46-3.13-3.51,1.2-3.51,1.2l-.1,1s2.79,2.08,3.53,2,2.07-.3,2.4-.31A16.2,16.2,0,0,0,59.21,57.53Z"></path>
      <path class="cls-10" d="M59.32,58.11c0-.42-.19-1.51-1.34-1.36a16.68,16.68,0,0,0-2.25.48s-1.68,3.05-2,3.57-.71.63,1,.42,1.8.17,3.06-.59A4.29,4.29,0,0,0,59.32,58.11Z"></path>
      <path class="cls-11" d="M55.73,57.23a20.09,20.09,0,0,0-1,2.65c-.34,1.2-.36,1.53-1.45,1.48s-3.56.65-4.54,0-.94-.53-.67-1.93.92-2.05,2.18-3.14a2.85,2.85,0,0,1,3.24-.68A7.36,7.36,0,0,1,55.73,57.23Z"></path>
      <path class="cls-8" d="M70.67,55.74s-2.2-3-5.2-2.26-4.29,3-3.84,3.87a12.35,12.35,0,0,0,1,1.19c.7.75,2.37-1.2,2.44-1.21S70.67,55.74,70.67,55.74Z"></path>
      <path class="cls-17" d="M72,59.37s-.68-4.07-2.2-4.2-3.2-.46-3.2-.46l-.46.71s1.33,2.72,1.93,3,1.72.59,2,.71A13.76,13.76,0,0,0,72,59.37Z"></path>
      <path class="cls-10" d="M71.86,59.87c.14-.35.45-1.25-.5-1.59a13.7,13.7,0,0,0-1.93-.52s-2.51,1.69-3,1.94-.81.21.56.7,1.33.85,2.6.77A3.77,3.77,0,0,0,71.86,59.87Z"></path>
      <path class="cls-11" d="M69.43,57.76a16,16,0,0,0-1.86,1.63c-.75.79-.9,1-1.72.56s-3-.91-3.52-1.78-.52-.79.25-1.76a4.47,4.47,0,0,1,2.93-1.57,2.48,2.48,0,0,1,2.78.77A6.36,6.36,0,0,1,69.43,57.76Z"></path>
      <path class="cls-8" d="M60.42,57.29s-3.17-2.44-6-.79-3.54,4.38-2.81,5.14a11.19,11.19,0,0,0,1.41.92c.94.57,2.09-1.94,2.16-2S60.42,57.29,60.42,57.29Z"></path>
      <path class="cls-17" d="M62.87,60.65S61,56.65,59.35,57s-3.44.47-3.44.47l-.27.87s2.19,2.41,2.88,2.48,1.95.1,2.25.15A14.77,14.77,0,0,0,62.87,60.65Z"></path>
      <path class="cls-10" d="M62.87,61.2c0-.39.09-1.41-1-1.48a15.65,15.65,0,0,0-2.15,0s-2.08,2.49-2.52,2.9-.77.45.79.55,1.62.49,2.91,0A4,4,0,0,0,62.87,61.2Z"></path>
      <path class="cls-11" d="M59.73,59.75A19,19,0,0,0,58.29,62c-.53,1.05-.61,1.35-1.6,1.1s-3.38,0-4.17-.8-.76-.66-.26-1.89a4.79,4.79,0,0,1,2.56-2.48,2.66,2.66,0,0,1,3.1,0A6.73,6.73,0,0,1,59.73,59.75Z"></path>
      <path class="cls-8" d="M76.9,62.84A1.93,1.93,0,0,0,78.66,62c.47-1,.16-1.81-.17-1.88a3.37,3.37,0,0,0-.54,0c-.35,0-.21.89-.23.91Z"></path>
      <path class="cls-17" d="M75.64,62.38s1.23.73,1.6.36.84-.74.84-.74L78,61.72a4,4,0,0,0-1.22-.15c-.19.1-.54.32-.63.36A5.17,5.17,0,0,0,75.64,62.38Z"></path>
      <path class="cls-10" d="M75.55,62.24c.06.11.22.39.52.22a4,4,0,0,0,.58-.4s.11-1,.15-1.22.13-.26-.31,0-.52.16-.78.52A1.3,1.3,0,0,0,75.55,62.24Z"></path>
      <path class="cls-11" d="M76.65,62.06a6.89,6.89,0,0,0,0-.85c0-.37-.08-.47.23-.58s.92-.59,1.26-.53.32,0,.41.46a1.56,1.56,0,0,1-.24,1.12.87.87,0,0,1-.82.57A2.14,2.14,0,0,1,76.65,62.06Z"></path>
      <path class="cls-8" d="M34.69,65.05a1.94,1.94,0,0,0,1.76-.87c.47-1,.16-1.81-.17-1.88a3.37,3.37,0,0,0-.54,0c-.35,0-.21.89-.23.91Z"></path>
      <path class="cls-17" d="M33.43,64.59s1.23.72,1.6.35.84-.74.84-.74l-.08-.28a4,4,0,0,0-1.22-.15c-.19.1-.54.32-.63.36A5.09,5.09,0,0,0,33.43,64.59Z"></path>
      <path class="cls-10" d="M33.34,64.44c.06.11.22.39.53.22a4.71,4.71,0,0,0,.57-.39s.11-1,.15-1.23.13-.26-.31,0-.52.16-.78.52A1.31,1.31,0,0,0,33.34,64.44Z"></path>
      <path class="cls-11" d="M34.44,64.27a7.05,7.05,0,0,0,0-.86c0-.37-.08-.47.23-.58s.92-.59,1.26-.53.32,0,.41.46a1.56,1.56,0,0,1-.24,1.12.87.87,0,0,1-.82.57A2.28,2.28,0,0,1,34.44,64.27Z"></path>
      <path class="cls-8" d="M46.75,63.53a2.45,2.45,0,0,0,2.31-1c.69-1.17.37-2.28-.05-2.4a6,6,0,0,0-.69,0c-.45,0-.35,1.12-.36,1.14S46.75,63.53,46.75,63.53Z"></path>
      <path class="cls-17" d="M45.19,62.83s1.5,1,2,.59,1.13-.87,1.13-.87l-.08-.36a5.09,5.09,0,0,0-1.53-.3c-.26.11-.71.37-.83.41A6,6,0,0,0,45.19,62.83Z"></path>
      <path class="cls-10" d="M45.08,62.63c.06.15.25.53.65.33a5.56,5.56,0,0,0,.76-.45s.24-1.31.31-1.55.18-.31-.4,0-.67.16-1,.59A1.65,1.65,0,0,0,45.08,62.63Z"></path>
      <path class="cls-11" d="M46.49,62.51a7.66,7.66,0,0,0,.06-1.09c0-.48-.06-.6.35-.71s1.21-.68,1.64-.57.41.08.48.62a2,2,0,0,1-.4,1.41,1.11,1.11,0,0,1-1.1.64A2.8,2.8,0,0,1,46.49,62.51Z"></path>
      <path class="cls-8" d="M55.55,61.82A1.57,1.57,0,0,1,57,61.6c.7.32.88.88.72,1a3.28,3.28,0,0,1-.33.21c-.22.12-.52-.39-.53-.4Z"></path>
      <path class="cls-17" d="M55,62.54s.41-.85.8-.8.82.07.82.07l.07.18s-.49.52-.66.54-.46,0-.53.06A4.93,4.93,0,0,1,55,62.54Z"></path>
      <path class="cls-10" d="M55,62.66c0-.08,0-.3.22-.32a3.1,3.1,0,0,1,.52,0s.52.5.62.58.19.09-.18.13-.38.11-.69,0A.91.91,0,0,1,55,62.66Z"></path>
      <path class="cls-11" d="M55.74,62.33a4.53,4.53,0,0,1,.36.45c.14.22.16.28.39.22s.81,0,1-.21.17-.14,0-.4a1.07,1.07,0,0,0-.64-.49.7.7,0,0,0-.73,0A1.57,1.57,0,0,0,55.74,62.33Z"></path>
      <path class="cls-8" d="M68.47,58.18s-3-2.2-5.61-.61-3.18,4.12-2.5,4.81a10.74,10.74,0,0,0,1.33.82c.88.51,1.89-1.84,2-1.86S68.47,58.18,68.47,58.18Z"></path>
      <path class="cls-17" d="M70.8,61.24S69,57.58,67.47,57.9s-3.17.51-3.17.51l-.24.8s2.08,2.19,2.72,2.25,1.8,0,2.08.09A13.63,13.63,0,0,0,70.8,61.24Z"></path>
      <path class="cls-10" d="M70.81,61.75c0-.36.06-1.31-.94-1.36a14.19,14.19,0,0,0-2,.08S66,62.81,65.6,63.2s-.7.43.75.5,1.5.41,2.69-.05A3.72,3.72,0,0,0,70.81,61.75Z"></path>
      <path class="cls-11" d="M67.88,60.47a17.77,17.77,0,0,0-1.29,2.09c-.47,1-.54,1.26-1.46,1s-3.13,0-3.87-.65-.72-.6-.28-1.75a4.37,4.37,0,0,1,2.32-2.34,2.47,2.47,0,0,1,2.87-.1A6.49,6.49,0,0,1,67.88,60.47Z"></path>
      <path class="cls-8" d="M52.59,61.62s-2.44-.44-3.55,1.29-.69,3.41-.08,3.62a6.53,6.53,0,0,0,1,.1c.68.05.59-1.66.62-1.69S52.59,61.62,52.59,61.62Z"></path>
      <path class="cls-17" d="M54.89,62.77s-2.19-1.65-3-1S50.15,63,50.15,63l.1.55a7.68,7.68,0,0,0,2.29.55c.4-.16,1.1-.51,1.28-.56A10.28,10.28,0,0,0,54.89,62.77Z"></path>
      <path class="cls-10" d="M55.05,63.07c-.09-.22-.36-.8-1-.53a8.42,8.42,0,0,0-1.17.63s-.44,2-.56,2.31-.3.47.59.08,1-.2,1.61-.82A2.56,2.56,0,0,0,55.05,63.07Z"></path>
      <path class="cls-11" d="M52.91,63.17a11.36,11.36,0,0,0-.16,1.63c0,.73,0,.92-.57,1.06s-1.87.94-2.51.75-.61-.14-.68-1a2.88,2.88,0,0,1,.7-2.09,1.64,1.64,0,0,1,1.69-.9A4.28,4.28,0,0,1,52.91,63.17Z"></path>
    </g>
  </g>
</svg>
