<?xml version="1.0" encoding="UTF-8"?>
<svg xmlns="http://www.w3.org/2000/svg" xmlns:xlink="http://www.w3.org/1999/xlink" viewBox="0 0 110.57 165.47">
  <defs>
    <style>.cls-1{fill:none;}.cls-2{fill:#956d4b;}.cls-3{clip-path:url(#clip-path);}.cls-4{fill:url(#Безымянный_градиент_4);}.cls-5{fill:#754120;}.cls-6{fill:#44281c;}.cls-7{fill:#6c3c1d;}.cls-8{fill:#714d31;}.cls-9{fill:#613822;}.cls-10{fill:#7f5637;}.cls-11{fill:#a07850;}.cls-12{fill:#772f46;}.cls-13{fill:#8b5b3c;}.cls-14{fill:#85a93c;}.cls-15{fill:#6f5c6c;}.cls-16{fill:#613922;}</style>
    <clipPath id="clip-path">
      <polygon class="cls-1" points="7.92 135.91 57.88 159.43 104.11 136.03 56.05 115.67 7.92 135.91"></polygon>
    </clipPath>
    <linearGradient id="Безымянный_градиент_4" x1="-3991.86" y1="-703.92" x2="-3989.06" y2="-703.92" gradientTransform="matrix(34.36, 0, 0, -34.36, 137141.87, -24046.57)" gradientUnits="userSpaceOnUse">
      <stop offset="0" stop-color="#a17551"></stop>
      <stop offset="0.38" stop-color="#a17551"></stop>
      <stop offset="0.89" stop-color="#7a4928"></stop>
      <stop offset="1" stop-color="#72401f"></stop>
    </linearGradient>
  </defs>
  <g id="Слой_2" data-name="Слой 2">
    <g id="Слой_1-2" data-name="Слой 1">
      <path class="cls-2" d="M57.88,93.28s9.63,11.3,17.06,11.76,32.81-7.56,32.81-7.56l2.56-26.43L57.88,52.55Z"></path>
      <path class="cls-2" d="M.19,69.17l5.23,34.48s18.58,2.78,21.83,1.86S45.37,99,49.55,99s8.33-5.73,8.33-5.73V52.55Z"></path>
      <g class="cls-3">
        <rect class="cls-4" x="31.58" y="88.35" width="48.87" height="98.4" transform="translate(-84.35 186.1) rotate(-86.92)"></rect>
      </g>
      <path class="cls-5" d="M7.92,135.91l-2.5-32.26s23.69-.47,30.2-3.72,22.26-6.66,22.26-6.66l-1.83,22.4Z"></path>
      <path class="cls-6" d="M41.68,105.65A8.52,8.52,0,0,0,38.85,104v0s-3.78-1.13-5.85,1.42-1.7,5.29-.77,5.73a11.08,11.08,0,0,0,1.63.34l.1,0a28,28,0,0,0,3.5-.8,1.86,1.86,0,0,0,.61-.15l.65-.2c1.48-.45,1.66-.12,2.69-1a4,4,0,0,0,1.08-2.55l-.21-.5h0l0,0a1,1,0,0,0-.59-.5"></path>
      <path class="cls-6" d="M21.4,109a10.78,10.78,0,0,0-4,1.33v0s-4.3,2.7-3.59,6.85,3.66,6.13,4.88,5.6a14.71,14.71,0,0,0,1.71-1.28l0-.13c.92-1.06,1.6-3.17,2.21-4.06a2.27,2.27,0,0,0,.36-.72c.1-.2.21-.42.37-.79.81-1.81,1.28-1.71,1.29-3.45a5.09,5.09,0,0,0-1.54-3.21,3.47,3.47,0,0,0-.65-.22v0h-.07a1.26,1.26,0,0,0-1,.14"></path>
      <path class="cls-7" d="M57.88,93.28l-1.83,22.39L104.11,136l3.64-38.55s-15-1.73-21.48-.81S68.44,100.39,65,98.54a45.07,45.07,0,0,1-7.15-5.26"></path>
      <path class="cls-6" d="M39.58,116.28a3.29,3.29,0,0,0-1.25-.31h0a2.31,2.31,0,0,0-2,1.19c-.49,1.18,0,2.17.35,2.23l.65,0,0,0a9.3,9.3,0,0,0,1.23-.69l.21-.13.23-.14c.5-.34.61-.23.89-.68a1.52,1.52,0,0,0,.12-1.08l-.13-.16h0Z"></path>
      <path class="cls-6" d="M86.66,106.64a2.27,2.27,0,0,0-.11-.89h0s-.38-1-1.27-1-1.43.5-1.37.78l.2.41h0l.75.63.14.1.14.11c.35.25.31.34.67.42a1.1,1.1,0,0,0,.73-.19l.07-.13h0Z"></path>
      <path class="cls-6" d="M100.09,122.82A11,11,0,0,0,98.18,119h0s-3.31-3.91-7.35-2.6-5.6,4.54-4.89,5.68a14.54,14.54,0,0,0,1.53,1.53h.13c1.19.77,3.39,1.14,4.37,1.62a2.18,2.18,0,0,0,.77.25c.22.08.45.15.84.26,1.94.55,1.9,1,3.64.79a5.15,5.15,0,0,0,3-2,3.14,3.14,0,0,0,.13-.69h0v-.07a1.31,1.31,0,0,0-.28-1"></path>
      <path class="cls-6" d="M74,109.54a8.37,8.37,0,0,0-1.87,2.69v0s-1.4,3.66,1,5.9,5.11,2.08,5.62,1.19a11,11,0,0,0,.46-1.59l0-.1a27.58,27.58,0,0,0-.52-3.53,1.75,1.75,0,0,0-.11-.61c0-.17-.07-.36-.14-.66-.34-1.5,0-1.66-.81-2.74a3.92,3.92,0,0,0-2.44-1.26l-.51.17v0l0,0a1,1,0,0,0-.54.54"></path>
      <path class="cls-8" d="M74.15,136.92a1.59,1.59,0,0,0,1.57-.42c.54-.7.43-1.43.17-1.54l-.44-.09c-.29-.05-.32.69-.33.7Z"></path>
      <path class="cls-9" d="M73.21,136.34s.88.79,1.24.55a8.71,8.71,0,0,1,.8-.46l0-.25-1-.31-.57.19Z"></path>
      <path class="cls-10" d="M73.15,136.2c0,.1.12.36.4.27a3.87,3.87,0,0,0,.53-.23l.32-1c.07-.15.15-.19-.25-.06s-.45,0-.72.29a1.07,1.07,0,0,0-.28.69"></path>
      <path class="cls-11" d="M74.08,136.24a4.37,4.37,0,0,0,.12-.69c0-.31,0-.39.29-.43s.83-.33,1.1-.23.26.09.26.44a1.23,1.23,0,0,1-.38.87.71.71,0,0,1-.76.33,1.73,1.73,0,0,1-.63-.29"></path>
      <path class="cls-8" d="M63.47,130.79s2.39.13,3.24-1.67.26-3.36-.36-3.49a9.59,9.59,0,0,0-1,0c-.65,0-.37,1.67-.39,1.7Z"></path>
      <path class="cls-9" d="M61.12,130s2.3,1.32,3,.61,1.53-1.4,1.53-1.4l-.16-.52a7.22,7.22,0,0,0-2.26-.24c-.37.2-1,.62-1.16.69Z"></path>
      <path class="cls-10" d="M60.93,129.69c.11.21.44.74,1,.41a9.08,9.08,0,0,0,1-.76s.19-1.93.26-2.28.23-.49-.58,0-1,.31-1.44,1a2.38,2.38,0,0,0-.28,1.65"></path>
      <path class="cls-11" d="M63,129.34a10.92,10.92,0,0,0,0-1.58c-.09-.7-.15-.88.42-1.09s1.68-1.12,2.33-1,.6.06.77.84a2.89,2.89,0,0,1-.42,2.1,1.6,1.6,0,0,1-1.51,1.07,4.13,4.13,0,0,1-1.54-.32"></path>
      <path class="cls-8" d="M53.51,138.56s1.87,1.42,3.54.43,2.05-2.58,1.62-3a7.68,7.68,0,0,0-.83-.53c-.56-.33-1.22,1.15-1.25,1.16Z"></path>
      <path class="cls-9" d="M52.06,136.61s1.14,2.33,2.08,2.13,2-.29,2-.29l.15-.51s-1.29-1.4-1.69-1.44-1.15,0-1.32-.07Z"></path>
      <path class="cls-10" d="M52.06,136.28c0,.23-.05.84.58.87a8.3,8.3,0,0,0,1.26,0l1.46-1.71c.25-.24.45-.27-.47-.32s-1-.27-1.7,0a2.4,2.4,0,0,0-1.13,1.19"></path>
      <path class="cls-11" d="M53.9,137.12a11.08,11.08,0,0,0,.83-1.31c.31-.62.35-.79.93-.65s2,0,2.44.44.45.38.17,1.11a2.77,2.77,0,0,1-1.49,1.46,1.54,1.54,0,0,1-1.81,0,3.92,3.92,0,0,1-1.07-1.09"></path>
      <path class="cls-8" d="M49.22,132.12a2.67,2.67,0,0,0,.09-2.73c-.86-1.2-2.1-1.39-2.41-1l-.35.67c-.21.44,1,.85,1,.88Z"></path>
      <path class="cls-9" d="M47.82,133.36s1.7-1,1.49-1.73a15.08,15.08,0,0,1-.35-1.51l-.4-.09s-1,1.08-1,1.4,0,.87,0,1Z"></path>
      <path class="cls-10" d="M47.58,133.38c.18,0,.64,0,.62-.5a6,6,0,0,0-.11-1l-1.4-1c-.2-.17-.23-.32-.21.38s-.15.74.12,1.3a1.8,1.8,0,0,0,1,.78"></path>
      <path class="cls-11" d="M48.09,131.92a7.93,7.93,0,0,0-1.06-.54c-.48-.2-.62-.22-.55-.67s-.12-1.51.18-1.89.26-.37.83-.2a2.12,2.12,0,0,1,1.22,1,1.18,1.18,0,0,1,.14,1.38,3,3,0,0,1-.76.89"></path>
      <path class="cls-8" d="M40.75,134.14a1.17,1.17,0,0,0,.39-1.12c-.21-.61-.7-.85-.87-.74l-.23.23.29.49Z"></path>
      <path class="cls-9" d="M40,134.47s.84-.21.84-.52a5.8,5.8,0,0,1,0-.68l-.16-.08-.58.44-.12.43Z"></path>
      <path class="cls-10" d="M39.91,134.45l.32-.13.08-.41-.45-.59c-.06-.1-.06-.17-.14.12s-.15.29-.12.56a.8.8,0,0,0,.31.45"></path>
      <path class="cls-11" d="M40.31,133.91l-.37-.36-.15-.35.32-.76.37,0a.91.91,0,0,1,.37.59.51.51,0,0,1-.11.59Z"></path>
      <path class="cls-8" d="M38.15,138.81s1.64-2.64.14-4.73-3.66-2.39-4.19-1.77a8.24,8.24,0,0,0-.6,1.17c-.37.77,1.66,1.46,1.69,1.51Z"></path>
      <path class="cls-9" d="M35.75,141s2.94-1.8,2.57-3a26.63,26.63,0,0,1-.64-2.62l-.69-.15s-1.69,1.88-1.69,2.42.08,1.52.06,1.75Z"></path>
      <path class="cls-10" d="M35.32,141c.31,0,1.1,0,1.08-.87a11.34,11.34,0,0,0-.2-1.66s-2.08-1.42-2.43-1.72-.41-.56-.37.66-.25,1.28.22,2.24a3.11,3.11,0,0,0,1.7,1.35"></path>
      <path class="cls-11" d="M36.2,138.47a14,14,0,0,0-1.83-.94c-.85-.33-1.09-.36-1-1.15s-.22-2.61.29-3.28.45-.64,1.44-.35a3.68,3.68,0,0,1,2.12,1.79,2.07,2.07,0,0,1,.28,2.38,5.3,5.3,0,0,1-1.32,1.55"></path>
      <path class="cls-12" d="M63,86.6l-.14-.16c0-1.67-.06-3.18-.12-4.47H56.29c-.13,1.57-.22,3.62-.26,6a17.16,17.16,0,0,0-2.61,3c-.2.2-2.57,2.5-3.17,3.32a.28.28,0,0,0,.06.4.34.34,0,0,0,.17,0,.28.28,0,0,0,.22-.11c.3-.4,1.08-1.22,1.79-1.94A5.54,5.54,0,0,0,52,95a19.49,19.49,0,0,1-.69,6,.28.28,0,0,0,.18.36h.09a.29.29,0,0,0,.27-.2,19,19,0,0,0,.71-4.51A6.52,6.52,0,0,1,54.68,100a.28.28,0,0,0,.28.25h0a.28.28,0,0,0,.25-.31c-.18-1.84-2.18-3.68-2.63-4.07,0-.3,0-.6,0-.92-.1-2.39,2.21-5,3.42-6.18,0,1.14,0,2.34,0,3.61.12,6.51,1.94,15.16,2.31,17.14.07.38.14.8.21,1.23l-.06,0a16.58,16.58,0,0,0-2.44,3.67,7.07,7.07,0,0,0-4.24,4.77.28.28,0,0,0,.21.34h.07a.28.28,0,0,0,.27-.22,6.39,6.39,0,0,1,3.33-4.1,11.67,11.67,0,0,0-1,4.89.29.29,0,0,0,.28.28h0a.3.3,0,0,0,.28-.3c-.16-4.09,2.52-7.65,3.35-8.66a46.46,46.46,0,0,1,.45,5.28,2.18,2.18,0,0,1,0,.27c-.36.66-2.31,4.38-1.77,7a.29.29,0,0,0,.28.23h.06a.28.28,0,0,0,.22-.33c-.38-1.8.59-4.28,1.24-5.67-.08,2.84-.07,5.66,0,8.49h-.08a8.92,8.92,0,0,0-3.21,3.6c-.63.23-3.48,1.36-4,2.68a.28.28,0,0,0,.15.37l.11,0a.28.28,0,0,0,.26-.17c.35-.82,2.08-1.69,3.19-2.16a9.58,9.58,0,0,0-.47,4.83.28.28,0,0,0,.28.24h0a.3.3,0,0,0,.24-.32,8.81,8.81,0,0,1,.67-5.12,0,0,0,0,1,0,0,8.15,8.15,0,0,1,2.86-3.33c0,1.6.08,3.21.13,4.81a18.68,18.68,0,0,0-3,8.1.27.27,0,0,0,.23.32h0a.3.3,0,0,0,.28-.24,19.77,19.77,0,0,1,2.51-7.21c.07,1.95.17,3.9.27,5.85-.21.27-.59.74-1,1.32a7.73,7.73,0,0,0-4.32,6,.28.28,0,0,0,.25.32h0a.27.27,0,0,0,.28-.24,7.18,7.18,0,0,1,3.06-5,4.68,4.68,0,0,0-.9,2.75.3.3,0,0,0,.28.24h.05a.28.28,0,0,0,.23-.33c-.18-1,1.15-3,2.08-4.17V140c.11,2.11.19,4.2.13,6.29,0,1.28-.11,2.57-.18,3.86-.88.47-3.27,1.86-3.27,3.12a.29.29,0,1,0,.57,0c0-.71,1.45-1.77,2.66-2.45,0,.59-.07,1.18-.11,1.77a86.78,86.78,0,0,0-.19,12.7.22.22,0,0,0,.23.2.22.22,0,0,0,.21-.23c0-3.51.3-7,.61-10.54a3.12,3.12,0,0,1,1.38,2.53.28.28,0,0,0,.28.27h0a.28.28,0,0,0,.28-.28,3.69,3.69,0,0,0-1.9-3.15l.12-1.43c.17-2.1.36-4.21.43-6.34,0-.61,0-1.22,0-1.83a5.25,5.25,0,0,1,2.73,3.47.28.28,0,0,0,.27.21H64a.29.29,0,0,0,.21-.35,6.15,6.15,0,0,0-1-2.15c.68-.16,2.23-.22,3.43,2a.29.29,0,0,0,.25.15.25.25,0,0,0,.14,0,.29.29,0,0,0,.11-.38c-1.52-2.79-3.65-2.39-4.32-2.18a5.35,5.35,0,0,0-1.86-1.33c0-1.31-.06-2.63-.13-3.93-.12-2.29-.24-4.57-.33-6.86a7.54,7.54,0,0,0,2.17.4,1.22,1.22,0,0,0,.24-.11l0,0s1.84.16,3.15,3.32a.29.29,0,0,0,.27.18l.11,0a.28.28,0,0,0,.15-.37c-1-2.35-2.24-3.19-3-3.49.87-.34,2.38-.51,4.65,1a.21.21,0,0,0,.15.05.3.3,0,0,0,.24-.12.29.29,0,0,0-.08-.4c-3.31-2.2-5.2-1.11-5.91-.7l-.17.1a11.13,11.13,0,0,1-2.06-.44c-.07-1.73-.14-3.46-.19-5.19-.06-2.54-.13-5.09-.16-7.63.06-.44.1-.92.13-1.36.77,1.31,2.37,4.41,1.47,6.55a.28.28,0,0,0,.15.37.23.23,0,0,0,.11,0,.27.27,0,0,0,.26-.17c1.28-3-1.78-7.52-1.91-7.71l0,0c0-.34,0-.56,0-.56s0-1.84.22-3.75c0-.35.1-.81.17-1.36A7.8,7.8,0,0,1,62.44,116a.28.28,0,0,0,.28.26h0A.28.28,0,0,0,63,116a8.43,8.43,0,0,0-2.28-5.06c.34-2.6.92-6.8,1.54-12.26a99,99,0,0,0,.6-11.32c1,1.14,1.81,2.13,2.56,3a24.56,24.56,0,0,1,1,3.54,4.87,4.87,0,0,1-.09.71,4.29,4.29,0,0,0,.13,2.6.27.27,0,0,0,.24.14.32.32,0,0,0,.14,0,.28.28,0,0,0,.11-.39,3.91,3.91,0,0,1-.06-2.23c0-.16,0-.31.07-.44a12.34,12.34,0,0,1,1.73,2.87,4.57,4.57,0,0,1,0,1.85.29.29,0,0,0,.2.35h.07a.3.3,0,0,0,.28-.22,5,5,0,0,0,0-2.11C69,95.84,67,93.31,66.9,93.2l0,0c-.12-.55-.34-1.3-.53-1.93a11.79,11.79,0,0,0,2.78,2.41l.11,0a.28.28,0,0,0,.12-.54C68.68,92.84,67,91.45,63,86.6Z"></path>
      <polygon class="cls-13" points="0 69.48 57.93 94.99 110.57 71.46 57.93 51.89 0 69.48"></polygon>
      <path class="cls-14" d="M40.87,38.12a4.7,4.7,0,0,0,1.71-.64A5,5,0,0,0,40.87,38.12Z"></path>
      <path class="cls-14" d="M106.08,27.42c-7-4.08-10-6.47-14.73-1.69s-5,.5-8.06,1.39-3,3.78-4.58,4.58-7.66.8-8.76,2a13,13,0,0,0-3,7,54.9,54.9,0,0,0-4.08,4.68c-.4.79,1-12.15,1.89-13.14s5.07-4.28,8.76-5,3.08-3,4-4.14,4.58-1.93,5-3.72S87.07,7,87.47,5.42s1.2-2.59-3.68,0S72.44,8.31,71.25,9.5,70.65,12,68.76,14s-4.18.1-5.18,3-1.49,9.16-1.49,11.84a61.46,61.46,0,0,1-1.19,8.46S60.3,33,59.6,31.8s.1-14.23-1.89-16.22-3.28,2-6.07-3.89-2.79-5.77-6.77-5.57-3.68-1.2-7.27-4-5.67-2.59-12.54-.9-10.15.9-10.45,1.4-1,.59,1.1,2.19,7,5.07,8.36,9.75,5.37,4.58,6.27,4.38,3.78-1.39,4.68-.3.89,2.79,1.59,3.68-.6,2,7,2.89S58.31,28.71,59,40.36c0,0,.6,2.19-2.19-2a17.9,17.9,0,0,0-9-6.57,18.87,18.87,0,0,1-8.36-4.18c-3.89-3.19-4.28-3.78-8.37-4.28s-3-1.39-4.08-2.69.4-1.19-3.38-1.59S15.11,21,10.13,10.6c0,0-.89-1.79-1.29,1.49s-4.78,9-4.18,12.05,4.88,4.18,6.47,5.57S13.82,32.5,14,34s.3,3.68,5.08,2.69a10.79,10.79,0,0,1,7.76,1c.4.1,1.4,1.5,4.48-.4s5-.49,6.37.2a5.08,5.08,0,0,0,3.17.65,5,5,0,0,1,1.71-.64,8,8,0,0,0,1.59-1.3c2.79-2.89,9.36,1.69,10.95,4.88s.6,2.09-1.59,1.09-4.08-3-5.67-3.68a9.33,9.33,0,0,0-5.28-1,4.7,4.7,0,0,1-1.71.64,5.51,5.51,0,0,0-1.08.85C37,41.75,37.41,41.85,34,41.75s-7.17-1.09-8.46,1.5.2,3.18-3.09,3.88-8.95,6-9.35,7.86-1.69,2.49,1.09,2.59,9.66-1.29,11.15-2.39,2.49-2.49,4.78-1.49,4.58,2,6.57-1,1.59-5.57,5.17-4.48,2.89,2,5.88-.1,6.67-6.27,8.66-1.69.95,3.68,1.12,5.08-.37,10.55,0,11.94a11.36,11.36,0,0,0,1.27,2.79l1.69-3.68s-.4-12.35,3.38-12.74a5.2,5.2,0,0,1,6,4.57c.2,2.19-1.39,5.18,2.79,6.18s4,2.19,4.38,4.57,5.38,2.39,5.77,6,1.2,9.75,3.79,7,10.55-9.55,8.36-20.5a8.43,8.43,0,0,0-2-3.38c-1.4-1.3-2.29-1.5-2.89-3.29a4.62,4.62,0,0,0-4.48-3c-1.79.2-3.28,1.4-4.18,1.4s-2.49-3-6.87-3.19a61.1,61.1,0,0,0-7.86,0c-.9.1.7-1.89,1.19-2.09s3.49-1.09,4.68-1.49.6-.6,4.28,0,5.77.9,7.86-1.29,2.19-3.19,4.09-2.09S90.36,42,93.54,42s4.08-3.08,5.18-3.23,4.78-2.84,8.16,7.81c0,0,.5,2.49,1.79-1S113.05,31.5,106.08,27.42Z"></path>
      <path class="cls-15" d="M86,63.1a17.3,17.3,0,0,0-5.72-9.43,21.92,21.92,0,0,0-10-4.65c-1.86-.23-3.73-.75-5.45-.45a2.63,2.63,0,0,0-2,1.14,13.58,13.58,0,0,0-1.1,2.47,33.15,33.15,0,0,0-1.37,5.38A20.4,20.4,0,0,0,60.09,63v0a.8.8,0,0,1-1.59.18v0A21.16,21.16,0,0,1,59,57.31a33.74,33.74,0,0,1,1.6-5.57,14.26,14.26,0,0,1,1.3-2.67A3,3,0,0,1,63.11,48a4.84,4.84,0,0,1,1.53-.44,9.26,9.26,0,0,1,3,.11l2.82.51a22.72,22.72,0,0,1,10.21,5.12,17.68,17.68,0,0,1,5.56,9.81.1.1,0,0,1-.08.12.1.1,0,0,1-.11-.08Z"></path>
      <path class="cls-15" d="M102.11,32.34a6.64,6.64,0,0,0-3.22-1.2A17.75,17.75,0,0,0,97.1,31c-.6,0-1.2,0-1.8,0a39.59,39.59,0,0,0-7.14,1.27q-3.51,1-6.92,2.29c-2.28.85-4.5,1.84-6.73,2.82l0,0A18.29,18.29,0,0,0,68,42.05a22.91,22.91,0,0,0-2.37,3.28c-.77,1.16-1.56,2.27-2.2,3.44a21.83,21.83,0,0,0-2.3,7.63c-.39,2.69-.6,5.43-.77,8.16h0a.8.8,0,0,1-.84.75.81.81,0,0,1-.75-.85h0c.22-2.76.48-5.53.93-8.28a23.21,23.21,0,0,1,2.59-8.06c.71-1.24,1.54-2.36,2.31-3.48a24.11,24.11,0,0,1,2.53-3.37,19.21,19.21,0,0,1,7-4.81h0c2.26-.95,4.52-1.91,6.84-2.73s4.65-1.57,7-2.19a40.85,40.85,0,0,1,7.3-1.18c.62,0,1.24,0,1.86,0a16.75,16.75,0,0,1,1.86.19A6.94,6.94,0,0,1,102.5,32a.26.26,0,0,1,0,.37.26.26,0,0,1-.36,0Z"></path>
      <path class="cls-15" d="M78.41,12.42a76.81,76.81,0,0,0-9.87,10.13,33.5,33.5,0,0,0-3.83,5.88A12.75,12.75,0,0,0,64,30l-.65,1.63C63,32.77,62.6,33.89,62.28,35A72.48,72.48,0,0,0,60,48.92,96.15,96.15,0,0,0,60.1,63v0a.8.8,0,1,1-1.59.13h0a98,98,0,0,1,.23-14.34,73.32,73.32,0,0,1,2.58-14.08c.35-1.15.76-2.28,1.16-3.4l.7-1.66A15.16,15.16,0,0,1,63.94,28a35.08,35.08,0,0,1,4-5.93,77.48,77.48,0,0,1,10.16-10,.21.21,0,0,1,.29,0,.2.2,0,0,1,0,.28Z"></path>
      <path class="cls-15" d="M29.34,8.33a55.79,55.79,0,0,1,7.84,2.4,46.34,46.34,0,0,1,7.36,3.67,41.13,41.13,0,0,1,6.56,5,42.89,42.89,0,0,1,5.47,6.18v0h0a31.62,31.62,0,0,1,2.33,4.92,14.9,14.9,0,0,1,.72,2.68c.13.92.21,1.79.32,2.69a49,49,0,0,1,.24,10.83c-.15,1.79-.31,3.57-.42,5.35a31.45,31.45,0,0,0,0,5.22A46.24,46.24,0,0,1,60,62.75c0,1.8,0,3.6,0,5.4a.79.79,0,0,1-.8.79.81.81,0,0,1-.79-.81v0c.06-1.78.1-3.57.11-5.35a45.62,45.62,0,0,0-.16-5.27A31.56,31.56,0,0,1,58.49,52c.15-1.79.34-3.58.52-5.36A47.74,47.74,0,0,0,59,36c-.09-.88-.16-1.81-.27-2.66a13.47,13.47,0,0,0-.63-2.52A31.05,31.05,0,0,0,55.91,26l0,0a41.4,41.4,0,0,0-5.27-6.17,38.87,38.87,0,0,0-6.38-5A45.07,45.07,0,0,0,37.06,11a56.57,56.57,0,0,0-7.78-2.54.09.09,0,0,1-.06-.1.08.08,0,0,1,.1-.06Z"></path>
      <path class="cls-15" d="M15.83,23.71A21.54,21.54,0,0,0,24.32,28c3.07.89,6.29,1.07,9.46,1.73a91.12,91.12,0,0,1,9.38,2.33,59.39,59.39,0,0,1,9.08,3.44,16.51,16.51,0,0,1,4,2.83,12.06,12.06,0,0,1,2.79,4.14,15.43,15.43,0,0,1,1.08,4.85c.11,1.63.14,3.24.16,4.86,0,3.22,0,6.44-.09,9.66l-.11,4.82-.07,2.41c0,.77,0,1.65,0,2.32v.09a.8.8,0,0,1-1.59,0h0c0-.93,0-1.66.08-2.49l.1-2.41.2-4.81c.13-3.2.23-6.41.26-9.61s.18-6.44-1-9.31A11.21,11.21,0,0,0,55.59,39a15.66,15.66,0,0,0-3.78-2.73,59,59,0,0,0-8.87-3.54,92.41,92.41,0,0,0-9.27-2.48c-3.11-.7-6.35-.94-9.46-1.9a21.89,21.89,0,0,1-8.5-4.48l0,0a.1.1,0,0,1,0-.15A.11.11,0,0,1,15.83,23.71Z"></path>
      <path class="cls-15" d="M24.91,49.92a46.6,46.6,0,0,1,13-6.15A30.07,30.07,0,0,1,45,42.55a32.54,32.54,0,0,1,7.24.6,16.55,16.55,0,0,1,3.52,1.06,7.27,7.27,0,0,1,3,2.27A6.77,6.77,0,0,1,60,50.12c.09,1.25.08,2.43.09,3.64L60,68.13v0a.8.8,0,1,1-1.59,0v0l.47-14.38c0-1.19.06-2.4,0-3.55a5.79,5.79,0,0,0-.9-3.12,6.37,6.37,0,0,0-2.61-2A15.56,15.56,0,0,0,52.08,44a31.44,31.44,0,0,0-7-.77,29.39,29.39,0,0,0-7,1A46.27,46.27,0,0,0,25,50a0,0,0,1,1,0-.06Z"></path>
      <path class="cls-12" d="M62.2,70.89A26.06,26.06,0,0,0,61,64.49a11,11,0,0,0,0-2.2c0-.12-.12-.68-.34,0s-3.45.7-3.45.7c-.64,0-.47,2.36-.43,3.49a16.69,16.69,0,0,1-.59,3.62c-.1.56-.21,1.51-.31,2.74h6.47C62.28,72.12,62.24,71.46,62.2,70.89Z"></path>
      <path class="cls-8" d="M56.48,80.78a1.1,1.1,0,0,0-1.07-.39c-.59.18-.82.65-.72.81a1.13,1.13,0,0,0,.22.23c.14.14.46-.27.47-.27Z"></path>
      <path class="cls-16" d="M56.78,81.49s-.18-.81-.49-.81-.64-.06-.64-.06l-.09.15s.3.52.43.57.35.09.4.12A3.14,3.14,0,0,0,56.78,81.49Z"></path>
      <path class="cls-10" d="M56.76,81.59c0-.07.08-.25-.12-.31a2.21,2.21,0,0,0-.39-.08s-.48.36-.58.42-.16,0,.12.13.28.16.53.13A.77.77,0,0,0,56.76,81.59Z"></path>
      <path class="cls-11" d="M56.25,81.2a4.13,4.13,0,0,0-.35.34c-.14.17-.17.22-.34.14s-.61-.15-.73-.32-.11-.15,0-.35a.89.89,0,0,1,.57-.35.51.51,0,0,1,.57.12A1.28,1.28,0,0,1,56.25,81.2Z"></path>
      <path class="cls-8" d="M54.05,67.1a1.64,1.64,0,0,0-1.65-.24c-.79.44-1,1.19-.79,1.4a2.42,2.42,0,0,0,.39.25c.25.16.57-.52.59-.53Z"></path>
      <path class="cls-16" d="M54.71,68s-.51-1.11-1-1a9.23,9.23,0,0,1-.94.11l-.08.24s.59.67.78.69.53,0,.61,0A3.83,3.83,0,0,0,54.71,68Z"></path>
      <path class="cls-10" d="M54.71,68.18c0-.11,0-.39-.27-.41a3.35,3.35,0,0,0-.59,0s-.58.67-.7.78-.21.12.22.16.44.14.8,0A1.11,1.11,0,0,0,54.71,68.18Z"></path>
      <path class="cls-11" d="M53.85,67.77a5.07,5.07,0,0,0-.4.6c-.15.29-.17.37-.44.3s-.92,0-1.14-.23-.2-.19-.06-.52a1.27,1.27,0,0,1,.71-.67.7.7,0,0,1,.84,0A1.81,1.81,0,0,1,53.85,67.77Z"></path>
      <path class="cls-8" d="M50.78,72.12s-3.41-1.7-5.79.37-2.5,4.74-1.68,5.32a10.81,10.81,0,0,0,1.49.6c1,.36,1.59-2.2,1.65-2.24S50.78,72.12,50.78,72.12Z"></path>
      <path class="cls-16" d="M53.69,74.81s-2.53-3.39-4-2.8-3.12,1.08-3.12,1.08l-.1.86s2.49,1.84,3.15,1.79,1.84-.27,2.13-.28A14.39,14.39,0,0,0,53.69,74.81Z"></path>
      <path class="cls-10" d="M53.79,75.32c0-.38-.18-1.34-1.19-1.21a14.07,14.07,0,0,0-2,.43s-1.49,2.71-1.82,3.17-.64.57.84.37,1.6.16,2.72-.52A3.87,3.87,0,0,0,53.79,75.32Z"></path>
      <path class="cls-11" d="M50.59,74.54a18,18,0,0,0-.93,2.35c-.31,1.07-.32,1.37-1.3,1.32s-3.16.57-4,0-.83-.47-.59-1.72a4.51,4.51,0,0,1,1.94-2.79,2.53,2.53,0,0,1,2.88-.61A6.55,6.55,0,0,1,50.59,74.54Z"></path>
      <path class="cls-8" d="M62.56,72.83s-2.86-1.68-5.05,0-2.45,4-1.78,4.51a9.38,9.38,0,0,0,1.26.61c.83.37,1.51-1.81,1.57-1.84S62.56,72.83,62.56,72.83Z"></path>
      <path class="cls-16" d="M64.92,75.34s-2-3.09-3.28-2.66a28.23,28.23,0,0,1-2.77.74l-.14.74s2.05,1.76,2.63,1.75,1.61-.13,1.86-.11A13.67,13.67,0,0,0,64.92,75.34Z"></path>
      <path class="cls-10" d="M65,75.79c0-.32-.06-1.17-1-1.12a13.78,13.78,0,0,0-1.76.25s-1.46,2.26-1.77,2.64-.59.46.7.38,1.38.23,2.4-.29A3.33,3.33,0,0,0,65,75.79Z"></path>
      <path class="cls-11" d="M62.25,74.92a14.67,14.67,0,0,0-1,2c-.34.91-.37,1.16-1.21,1.06s-2.78.31-3.51-.22-.69-.46-.41-1.53A4,4,0,0,1,58,73.91a2.21,2.21,0,0,1,2.54-.35A5.67,5.67,0,0,1,62.25,74.92Z"></path>
      <path class="cls-8" d="M58.28,69.73s-2.82-2.17-5.38-.7-3.14,3.9-2.5,4.57a9.91,9.91,0,0,0,1.26.82c.84.51,1.86-1.73,1.92-1.75S58.28,69.73,58.28,69.73Z"></path>
      <path class="cls-16" d="M60.46,72.72s-1.71-3.56-3.14-3.27-3,.42-3,.42l-.25.77s1.95,2.14,2.56,2.21,1.74.08,2,.13A13.8,13.8,0,0,0,60.46,72.72Z"></path>
      <path class="cls-10" d="M60.45,73.21c0-.35.09-1.26-.87-1.32a14.11,14.11,0,0,0-1.92,0s-1.85,2.21-2.24,2.57-.68.41.71.5,1.44.43,2.59,0A3.52,3.52,0,0,0,60.45,73.21Z"></path>
      <path class="cls-11" d="M57.66,71.92a17.17,17.17,0,0,0-1.28,2c-.47.93-.54,1.2-1.42,1s-3,0-3.71-.71-.68-.59-.23-1.68a4.22,4.22,0,0,1,2.28-2.21,2.35,2.35,0,0,1,2.75,0A6,6,0,0,1,57.66,71.92Z"></path>
      <path class="cls-8" d="M72.31,78.92a1.7,1.7,0,0,0,1.56-.77c.42-.85.15-1.6-.15-1.67a2.67,2.67,0,0,0-.48,0c-.31,0-.19.79-.2.81Z"></path>
      <path class="cls-16" d="M71.19,78.51s1.09.65,1.42.32.75-.66.75-.66l-.08-.25a3.53,3.53,0,0,0-1.08-.13c-.17.09-.48.29-.56.32A3.9,3.9,0,0,0,71.19,78.51Z"></path>
      <path class="cls-10" d="M71.1,78.38c.06.1.21.35.47.2a3.78,3.78,0,0,0,.51-.35s.1-.92.14-1.09.11-.23-.28,0-.46.14-.69.46A1.19,1.19,0,0,0,71.1,78.38Z"></path>
      <path class="cls-11" d="M72.08,78.23a4.83,4.83,0,0,0,0-.76c0-.33-.07-.42.21-.52s.81-.52,1.11-.47.29,0,.37.41a1.4,1.4,0,0,1-.22,1,.76.76,0,0,1-.73.5A2,2,0,0,1,72.08,78.23Z"></path>
      <path class="cls-8" d="M45.48,79.53a2.18,2.18,0,0,0,2.06-.85c.61-1,.33-2,0-2.14a5.11,5.11,0,0,0-.62,0c-.4,0-.3,1-.32,1Z"></path>
      <path class="cls-16" d="M44.1,78.91s1.33.92,1.78.53a12.13,12.13,0,0,1,1-.78l-.07-.32a4.46,4.46,0,0,0-1.36-.27c-.23.11-.63.33-.74.37A5.26,5.26,0,0,0,44.1,78.91Z"></path>
      <path class="cls-10" d="M44,78.73c.06.14.23.47.58.3s.68-.4.68-.4.21-1.17.27-1.38.16-.28-.35,0-.6.14-.93.52A1.48,1.48,0,0,0,44,78.73Z"></path>
      <path class="cls-11" d="M45.26,78.63a6.66,6.66,0,0,0,.05-1c0-.43-.05-.54.31-.64s1.07-.6,1.46-.5.36.07.43.55a1.8,1.8,0,0,1-.36,1.25,1,1,0,0,1-1,.57A2.49,2.49,0,0,1,45.26,78.63Z"></path>
      <path class="cls-8" d="M54.92,74.15a1.27,1.27,0,0,0,1.27.22c.62-.33.79-.9.64-1.07a3.43,3.43,0,0,0-.29-.2c-.19-.13-.46.39-.47.39Z"></path>
      <path class="cls-16" d="M54.43,73.41s.37.87.71.81.73-.07.73-.07l.07-.18s-.44-.53-.59-.55l-.47,0A2.58,2.58,0,0,0,54.43,73.41Z"></path>
      <path class="cls-10" d="M54.43,73.3c0,.08,0,.29.2.32a3.87,3.87,0,0,0,.45,0s.47-.51.56-.59.17-.09-.16-.12-.34-.12-.61,0A.85.85,0,0,0,54.43,73.3Z"></path>
      <path class="cls-11" d="M55.08,73.63a3.11,3.11,0,0,0,.33-.46c.12-.21.14-.28.35-.22s.71,0,.87.21.16.15,0,.4a1,1,0,0,1-.56.51.58.58,0,0,1-.66,0A1.69,1.69,0,0,1,55.08,73.63Z"></path>
      <path class="cls-8" d="M70.88,72.73s-2.64-2-5-.54-2.84,3.66-2.23,4.27a9.34,9.34,0,0,0,1.18.73c.79.46,1.69-1.63,1.74-1.65S70.88,72.73,70.88,72.73Z"></path>
      <path class="cls-16" d="M73,75.46s-1.65-3.26-3-3-2.82.44-2.82.44l-.21.72s1.84,1.95,2.41,2,1.61,0,1.85.08A13,13,0,0,0,73,75.46Z"></path>
      <path class="cls-10" d="M73,75.91c0-.33.06-1.17-.83-1.21a12.08,12.08,0,0,0-1.77.07s-1.67,2.08-2,2.42-.63.39.66.45,1.34.37,2.39,0A3.29,3.29,0,0,0,73,75.91Z"></path>
      <path class="cls-11" d="M70.36,74.77a15.48,15.48,0,0,0-1.15,1.86c-.42.87-.47,1.11-1.3.93s-2.78,0-3.44-.59-.64-.53-.24-1.55a3.91,3.91,0,0,1,2.06-2.09,2.2,2.2,0,0,1,2.55-.08A5.56,5.56,0,0,1,70.36,74.77Z"></path>
      <path class="cls-8" d="M51.63,77.14s1.92,1.08,3.35,0,1.58-2.67,1.13-3a7.17,7.17,0,0,0-.85-.39c-.55-.24-1,1.22-1,1.24S51.63,77.14,51.63,77.14Z"></path>
      <path class="cls-16" d="M50,75.5s1.36,2,2.21,1.73,1.83-.53,1.83-.53l.08-.49s-1.38-1.14-1.76-1.13-1.07.11-1.24.1A8,8,0,0,0,50,75.5Z"></path>
      <path class="cls-10" d="M50,75.2c0,.22.07.79.66.74a8.92,8.92,0,0,0,1.17-.19S52.75,74.23,53,74s.39-.31-.48-.24-.92-.14-1.58.22A2.23,2.23,0,0,0,50,75.2Z"></path>
      <path class="cls-11" d="M51.81,75.75a9.26,9.26,0,0,0,.6-1.33c.21-.61.23-.78.79-.73s1.84-.24,2.33.11.47.29.3,1a2.62,2.62,0,0,1-1.2,1.56,1.46,1.46,0,0,1-1.68.27A3.78,3.78,0,0,1,51.81,75.75Z"></path>
    </g>
  </g>
</svg>
