<?xml version="1.0" encoding="UTF-8"?>
<svg xmlns="http://www.w3.org/2000/svg" xmlns:xlink="http://www.w3.org/1999/xlink" viewBox="0 0 93.24 144.72">
  <defs>
    <style>.cls-1{fill:#8e6848;}.cls-2{fill:url(#Безымянный_градиент_7);}.cls-3{fill:#713e21;}.cls-4{fill:#3d271f;}.cls-5{fill:#69391e;}.cls-6{fill:#6b482f;}.cls-7{fill:#5c3624;}.cls-8{fill:#795135;}.cls-9{fill:#9a734f;}.cls-10{fill:#cacac9;}.cls-11{fill:#85563a;}.cls-12{fill:#79a05b;}.cls-13{fill:#769b57;}.cls-14,.cls-15{fill:none;stroke:#79a05b;stroke-miterlimit:10;}.cls-14{stroke-width:0.47px;}.cls-15{stroke-width:1.27px;}</style>
    <linearGradient id="Безымянный_градиент_7" x1="44.45" y1="177.14" x2="48.83" y2="95.81" gradientUnits="userSpaceOnUse">
      <stop offset="0.38" stop-color="#9b714f"></stop>
      <stop offset="0.91" stop-color="#754427"></stop>
      <stop offset="1" stop-color="#6e3c20"></stop>
    </linearGradient>
  </defs>
  <g id="Слой_2" data-name="Слой 2">
    <g id="Слой_1-2" data-name="Слой 1">
      <path class="cls-1" d="M48.85,88.71s8.15,9.56,14.44,10,27.79-6.41,27.79-6.41l2.16-22.38L48.85,54.23Z"></path>
      <path class="cls-1" d="M0,68.3,4.43,97.49s15.73,2.36,18.48,1.57,15.34-5.51,18.88-5.51,7.06-4.84,7.06-4.84V54.23Z"></path>
      <polygon class="cls-2" points="6.54 124.81 48.85 144.72 87.99 124.91 47.3 107.67 6.54 124.81"></polygon>
      <path class="cls-3" d="M6.54,124.81,4.43,97.49s20.06-.4,25.56-3.15,18.86-5.63,18.86-5.63l-1.55,19Z"></path>
      <path class="cls-4" d="M35.13,99.18a7.18,7.18,0,0,0-2.4-1.41h0s-3.2-1-5,1.19-1.45,4.48-.65,4.86a11.46,11.46,0,0,0,1.38.29s.05,0,.08,0a27,27,0,0,0,3-.67,1.59,1.59,0,0,0,.51-.14l.55-.16c1.25-.39,1.41-.11,2.27-.86a3.35,3.35,0,0,0,.92-2.16,2.83,2.83,0,0,0-.17-.42h0l0,0A.81.81,0,0,0,35.13,99.18Z"></path>
      <path class="cls-4" d="M18,102a9.46,9.46,0,0,0-3.4,1.12v0s-3.64,2.28-3,5.79,3.09,5.2,4.13,4.75a13.27,13.27,0,0,0,1.45-1.09s0-.08,0-.11c.78-.89,1.35-2.68,1.87-3.43a1.87,1.87,0,0,0,.3-.61c.09-.17.18-.36.32-.67.68-1.54,1.08-1.45,1.09-2.93a4.31,4.31,0,0,0-1.3-2.71,2.77,2.77,0,0,0-.56-.19v0h-.07A1.07,1.07,0,0,0,18,102Z"></path>
      <path class="cls-5" d="M48.85,88.71l-1.55,19L88,124.91l3.09-32.65s-12.69-1.46-18.2-.68-15.1,3.15-18,1.58A38.18,38.18,0,0,1,48.85,88.71Z"></path>
      <path class="cls-4" d="M33.35,108.18a3.11,3.11,0,0,0-1.06-.26h0a1.94,1.94,0,0,0-1.72,1c-.42,1-.05,1.84.29,1.89a2.89,2.89,0,0,0,.55,0s0,0,0,0a9,9,0,0,0,1-.58.7.7,0,0,0,.18-.11l.19-.12c.42-.29.51-.2.75-.58a1.28,1.28,0,0,0,.11-.91,1.1,1.1,0,0,0-.11-.14h0A.32.32,0,0,0,33.35,108.18Z"></path>
      <path class="cls-4" d="M73.22,100a1.94,1.94,0,0,0-.1-.75h0s-.32-.85-1.08-.88-1.21.43-1.16.66a2.7,2.7,0,0,0,.17.35h0a4.84,4.84,0,0,0,.64.53.27.27,0,0,0,.11.09l.13.1c.29.2.25.28.56.35a.93.93,0,0,0,.62-.16.36.36,0,0,0,.06-.11h0A.27.27,0,0,0,73.22,100Z"></path>
      <path class="cls-4" d="M84.58,113.72A9.51,9.51,0,0,0,83,110.49h0s-2.8-3.3-6.22-2.19-4.74,3.84-4.14,4.81a11.93,11.93,0,0,0,1.29,1.29s.08,0,.12,0c1,.65,2.87,1,3.7,1.37a1.83,1.83,0,0,0,.65.22l.71.21c1.64.47,1.61.88,3.08.68a4.39,4.39,0,0,0,2.53-1.7,3.16,3.16,0,0,0,.11-.58h0v-.06A1.09,1.09,0,0,0,84.58,113.72Z"></path>
      <path class="cls-4" d="M62.47,102.48a7.11,7.11,0,0,0-1.58,2.27h0s-1.19,3.1.81,5,4.33,1.77,4.76,1a9.21,9.21,0,0,0,.39-1.35s0,0,0-.08a23.66,23.66,0,0,0-.45-3,1.63,1.63,0,0,0-.09-.52c0-.14-.06-.3-.12-.55-.29-1.27,0-1.41-.68-2.32a3.31,3.31,0,0,0-2.07-1.07A2.11,2.11,0,0,0,63,102h0l0,0A.8.8,0,0,0,62.47,102.48Z"></path>
      <path class="cls-6" d="M62.62,125.66a1.35,1.35,0,0,0,1.33-.35c.46-.59.36-1.22.15-1.31a2.38,2.38,0,0,0-.38-.07c-.24,0-.27.58-.28.59Z"></path>
      <path class="cls-7" d="M61.83,125.17s.74.67,1,.47a7.61,7.61,0,0,1,.68-.4l0-.2s-.66-.32-.81-.27l-.48.16A2.79,2.79,0,0,0,61.83,125.17Z"></path>
      <path class="cls-8" d="M61.78,125.05c0,.09.1.31.33.23a4.35,4.35,0,0,0,.45-.19s.22-.7.28-.82.12-.16-.22,0-.38,0-.61.25A.86.86,0,0,0,61.78,125.05Z"></path>
      <path class="cls-9" d="M62.56,125.09a5.91,5.91,0,0,0,.11-.59c0-.26,0-.33.24-.36s.71-.28.93-.19.22.07.22.37a1.07,1.07,0,0,1-.32.73.61.61,0,0,1-.64.28A1.63,1.63,0,0,1,62.56,125.09Z"></path>
      <path class="cls-6" d="M53.58,120.47a3,3,0,0,0,2.75-1.41c.72-1.52.21-2.85-.31-3a6.44,6.44,0,0,0-.85,0c-.56,0-.32,1.41-.34,1.44S53.58,120.47,53.58,120.47Z"></path>
      <path class="cls-7" d="M51.59,119.77s1.95,1.12,2.53.53,1.3-1.19,1.3-1.19l-.14-.44a6.1,6.1,0,0,0-1.92-.21c-.31.17-.84.52-1,.59A7.55,7.55,0,0,0,51.59,119.77Z"></path>
      <path class="cls-8" d="M51.43,119.54c.1.18.37.62.84.34a7.93,7.93,0,0,0,.89-.63s.15-1.64.21-1.94.2-.41-.49,0-.81.26-1.22.83A2,2,0,0,0,51.43,119.54Z"></path>
      <path class="cls-9" d="M53.16,119.25a9.35,9.35,0,0,0,0-1.35c-.07-.59-.13-.74.36-.92s1.42-1,2-.86.5,0,.65.71a2.42,2.42,0,0,1-.35,1.77,1.35,1.35,0,0,1-1.28.91A3.38,3.38,0,0,1,53.16,119.25Z"></path>
      <path class="cls-6" d="M45.14,127.05a2.94,2.94,0,0,0,3,.36c1.42-.83,1.73-2.18,1.37-2.55a4.76,4.76,0,0,0-.7-.45c-.47-.28-1,1-1.06,1S45.14,127.05,45.14,127.05Z"></path>
      <path class="cls-7" d="M43.92,125.4s1,2,1.76,1.8,1.7-.24,1.7-.24l.13-.43s-1.1-1.19-1.44-1.22-1,0-1.11-.07A8.58,8.58,0,0,0,43.92,125.4Z"></path>
      <path class="cls-8" d="M43.92,125.12c0,.2-.05.71.49.74a7.36,7.36,0,0,0,1.07,0s1-1.24,1.23-1.45.38-.22-.39-.27-.81-.23-1.45,0A2,2,0,0,0,43.92,125.12Z"></path>
      <path class="cls-9" d="M45.48,125.83a8.91,8.91,0,0,0,.7-1.11c.26-.52.29-.67.79-.55s1.67,0,2.06.37.38.33.14.94a2.32,2.32,0,0,1-1.26,1.24,1.32,1.32,0,0,1-1.53,0A3.42,3.42,0,0,1,45.48,125.83Z"></path>
      <path class="cls-6" d="M41.51,121.6a2.26,2.26,0,0,0,.08-2.31c-.73-1-1.78-1.18-2-.88a5.65,5.65,0,0,0-.3.57c-.18.38.81.72.82.74S41.51,121.6,41.51,121.6Z"></path>
      <path class="cls-7" d="M40.33,122.65s1.44-.87,1.26-1.47-.3-1.28-.3-1.28l-.34-.07s-.83.92-.83,1.18,0,.74,0,.85A5.77,5.77,0,0,0,40.33,122.65Z"></path>
      <path class="cls-8" d="M40.12,122.67c.15,0,.54,0,.53-.43a5.39,5.39,0,0,0-.09-.81s-1-.7-1.19-.85-.2-.27-.18.32-.12.63.1,1.1A1.54,1.54,0,0,0,40.12,122.67Z"></path>
      <path class="cls-9" d="M40.56,121.43a6.24,6.24,0,0,0-.9-.46c-.41-.17-.53-.19-.47-.57s-.1-1.28.15-1.6.22-.31.71-.17a1.85,1.85,0,0,1,1,.88,1,1,0,0,1,.12,1.17A2.69,2.69,0,0,1,40.56,121.43Z"></path>
      <path class="cls-6" d="M34.34,123.3a1,1,0,0,0,.33-.94c-.17-.52-.59-.72-.74-.63s-.13.14-.19.2.24.4.24.41Z"></path>
      <path class="cls-7" d="M33.72,123.59s.7-.18.71-.45,0-.57,0-.57l-.13-.07s-.46.27-.49.38-.08.31-.1.36A2.3,2.3,0,0,0,33.72,123.59Z"></path>
      <path class="cls-8" d="M33.63,123.57a.19.19,0,0,0,.27-.11,2.34,2.34,0,0,0,.07-.35l-.39-.5c0-.09,0-.14-.11.11s-.13.24-.1.47A.66.66,0,0,0,33.63,123.57Z"></path>
      <path class="cls-9" d="M34,123.11s-.17-.18-.32-.31-.19-.14-.12-.29.12-.54.27-.64.13-.1.31,0a.79.79,0,0,1,.32.49.44.44,0,0,1-.1.5A1,1,0,0,1,34,123.11Z"></path>
      <path class="cls-6" d="M32.14,127.26s1.39-2.23.11-4-3.09-2-3.54-1.5a8.7,8.7,0,0,0-.51,1c-.31.65,1.41,1.23,1.43,1.27S32.14,127.26,32.14,127.26Z"></path>
      <path class="cls-7" d="M30.11,129.08s2.48-1.52,2.17-2.54a22.58,22.58,0,0,1-.54-2.22l-.58-.12s-1.43,1.59-1.43,2,.06,1.28.05,1.48A9.53,9.53,0,0,0,30.11,129.08Z"></path>
      <path class="cls-8" d="M29.75,129.12c.26,0,.93,0,.9-.74a9.61,9.61,0,0,0-.16-1.41s-1.76-1.2-2.06-1.45-.35-.48-.31.55-.21,1.09.18,1.91A2.65,2.65,0,0,0,29.75,129.12Z"></path>
      <path class="cls-9" d="M30.49,127a12.05,12.05,0,0,0-1.56-.79c-.71-.28-.92-.31-.82-1s-.19-2.21.25-2.77.37-.54,1.21-.3a3.15,3.15,0,0,1,1.8,1.51,1.76,1.76,0,0,1,.23,2A4.55,4.55,0,0,1,30.49,127Z"></path>
      <path class="cls-10" d="M48.84,76.07c-1.76,2-4.84,4.24-3.59,7.33.16.37.77.21.61-.17-1.15-2.84,1.82-4.86,3.42-6.71.27-.31-.18-.76-.44-.45Z"></path>
      <path class="cls-10" d="M49.84,77.83c-1.89,1.13-4.15,1.38-6,2.52s-2.47,2.89-3,4.84a.32.32,0,0,0,.61.16c.72-2.58,1.8-4.25,4.39-5.21a25.15,25.15,0,0,0,4.37-1.77.31.31,0,0,0-.32-.54Z"></path>
      <path class="cls-10" d="M49.31,78.94c-.85,1.9-1.72,3.79-2.55,5.71A7.05,7.05,0,0,0,46,88.59c.05.41.66.23.61-.16-.27-1.94.81-3.68,1.57-5.37l1.7-3.81c.16-.36-.38-.69-.55-.31Z"></path>
      <path class="cls-10" d="M49,80.28a5.76,5.76,0,0,1-1.85,3.64,19.88,19.88,0,0,0-2.37,1.92A7.84,7.84,0,0,0,43,90.18c-.05.4.58.4.63,0,.33-2.82,1.93-4.11,4-5.76a6.22,6.22,0,0,0,2-4c.08-.4-.53-.57-.61-.17Z"></path>
      <path class="cls-10" d="M47.22,83.93c-2.21,1.29-4.44,2.54-6.63,3.85a6.64,6.64,0,0,0-3,3.32l.62.08,0-.53c0-.41-.6-.41-.63,0l0,.53c0,.39.5.39.62.09.85-2.09,2.73-2.94,4.56-4l4.8-2.78a.32.32,0,0,0-.32-.55Z"></path>
      <path class="cls-10" d="M49.57,79.51a3.72,3.72,0,0,1-.71,3.33c-.41.51-1,.85-1.37,1.39a5.41,5.41,0,0,0-.56,3.63l.4-.31-.53-.11c-.39-.08-.56.53-.16.61l.53.11a.32.32,0,0,0,.4-.3,5.27,5.27,0,0,1,.33-3.12c.42-.68,1.18-1.08,1.65-1.73a4.42,4.42,0,0,0,.63-3.67c-.09-.4-.7-.23-.61.17Z"></path>
      <path class="cls-10" d="M49.82,83.31a14.1,14.1,0,0,1-.69,5.16,10.65,10.65,0,0,0-1.06,3.65.32.32,0,0,0,.64,0c0-1.66,1-3,1.39-4.56a17.29,17.29,0,0,0,.36-4.25.32.32,0,0,0-.64,0Z"></path>
      <path class="cls-10" d="M43.44,98c1.16-3.08,3.22-4.75,5.72-6.72a7.9,7.9,0,0,0,3.17-4.93c.08-.4-.53-.57-.61-.17-.61,3.2-2.94,4.42-5.23,6.35a12.4,12.4,0,0,0-3.66,5.3c-.14.38.47.55.61.17Z"></path>
      <path class="cls-10" d="M48.57,99.63c1.36-1.16,1.52-2.76,1.79-4.44a33.52,33.52,0,0,1,2-7.17c.15-.38-.46-.55-.61-.17A33.52,33.52,0,0,0,50,93.47c-.4,1.93-.28,4.33-1.91,5.71-.31.27.14.71.45.45Z"></path>
      <path class="cls-10" d="M47.28,97.63a33.65,33.65,0,0,1,3.27-4c.29-.3-.16-.74-.44-.45a34.8,34.8,0,0,0-3.37,4.1c-.24.33.31.65.54.32Z"></path>
      <path class="cls-10" d="M47,104.42c.66-1.85,1.94-3.07,2.77-4.77s.89-3.56,1.66-5.25c.17-.37-.37-.69-.54-.32-1,2.09-1.11,4.37-2.4,6.28a16.87,16.87,0,0,0-2.1,3.9c-.13.38.48.55.61.16Z"></path>
      <path class="cls-10" d="M49.53,76.94a3.74,3.74,0,0,0,4.29,3.52c.4-.06.23-.67-.17-.61a3.1,3.1,0,0,1-3.49-2.91c0-.4-.64-.41-.63,0Z"></path>
      <path class="cls-10" d="M50.18,79.54a1.88,1.88,0,0,0,1.21,1,13.07,13.07,0,0,0,1.61.37c1.11.21,2.21.52,3.31.82a19.18,19.18,0,0,1,6.3,2.66l0,.06a21.17,21.17,0,0,0-6.39-2.16c-1.11-.22-2.24-.37-3.34-.68A7.09,7.09,0,0,1,51.18,81a1.85,1.85,0,0,1-1.07-1.4Z"></path>
      <path class="cls-10" d="M51.12,80.51a10.47,10.47,0,0,1,2.39,2.55c.67.93,1.27,1.89,1.92,2.81a8.72,8.72,0,0,0,2.32,2.37,4.66,4.66,0,0,0,3.17.87,4.82,4.82,0,0,1-3.28-.69,8.89,8.89,0,0,1-2.54-2.31c-.7-.9-1.34-1.83-2-2.71a9.82,9.82,0,0,0-2.32-2.28Z"></path>
      <path class="cls-10" d="M51.21,84a14.39,14.39,0,0,0,1,4.12,19.12,19.12,0,0,1,1,5.5c0,.41.65.41.64,0a18.12,18.12,0,0,0-.64-4.32c-.5-1.79-1.33-3.41-1.43-5.3,0-.41-.65-.41-.63,0Z"></path>
      <path class="cls-10" d="M50.45,85.12c1.81,2.87,5.93,3.26,7.36,6.38.17.37.72,0,.55-.32C56.9,88,52.8,87.67,51,84.8c-.22-.34-.76,0-.55.32Z"></path>
      <path class="cls-10" d="M51.46,90.32c.8,1.57,2.5,1.71,4.11,2,2.62.42,6.53.08,8.62,1.8.31.26.76-.19.44-.45A6.36,6.36,0,0,0,61,92.34c-2.11-.24-7.79,0-9-2.34-.18-.37-.73,0-.54.32Z"></path>
      <path class="cls-10" d="M57.33,92.61a15.27,15.27,0,0,1,2.86,5.81.32.32,0,0,0,.61-.17,16,16,0,0,0-3-6.08c-.25-.32-.7.13-.45.44Z"></path>
      <path class="cls-10" d="M50.89,90.57a20.24,20.24,0,0,1,3,5.22c.13.38.74.21.61-.17a20.76,20.76,0,0,0-3.07-5.37c-.23-.33-.78,0-.54.32Z"></path>
      <path class="cls-10" d="M51,90.32a137,137,0,0,1-.76,16.82c0,.4.59.4.63,0a139,139,0,0,0,.77-16.82.32.32,0,0,0-.64,0Z"></path>
      <path class="cls-10" d="M49.38,75.47l.07,4.25c0,.4.64.4.63,0L50,75.47c0-.4-.64-.4-.63,0Z"></path>
      <path class="cls-10" d="M49.68,73.81c-1.63,2.59-.14,5.68-.83,8.49a.32.32,0,0,0,.61.16c.67-2.7-.78-5.88.76-8.33.22-.34-.33-.66-.54-.32Z"></path>
      <path class="cls-10" d="M50.07,80.33a11.42,11.42,0,0,1,.71,4.45.32.32,0,0,0,.63,0,11.91,11.91,0,0,0-.73-4.62c-.13-.38-.75-.22-.61.17Z"></path>
      <path class="cls-10" d="M49.67,81V85.1a.32.32,0,0,0,.64,0V81a.32.32,0,0,0-.64,0Z"></path>
      <path class="cls-10" d="M50.69,81.84l-.17,3a5.4,5.4,0,0,1-.57,3c-.24.33.31.64.54.31a4,4,0,0,0,.62-2.33l.21-3.94c0-.41-.61-.41-.63,0Z"></path>
      <path class="cls-10" d="M50.32,84.69a14.17,14.17,0,0,1-1.55,4.83c-.19.36.35.68.54.32a14.56,14.56,0,0,0,1.62-5c0-.39-.56-.57-.61-.16Z"></path>
      <path class="cls-10" d="M50,81.76l.59,3.9c.06.4.67.23.61-.16l-.59-3.91c-.06-.4-.67-.23-.61.17Z"></path>
      <path class="cls-10" d="M50,80.21a27.73,27.73,0,0,0,.61,4.44.32.32,0,0,0,.61,0l.12-.6c.07-.4-.54-.57-.61-.17l-.12.6h.61a26.75,26.75,0,0,1-.59-4.27c0-.41-.66-.41-.63,0Z"></path>
      <path class="cls-10" d="M50.62,81.19A9.52,9.52,0,0,0,51.39,84a.31.31,0,0,0,.49.07,1.91,1.91,0,0,0,.5-1.72c0-.29-.44-.27-.57-.07l-.38.55.58.07-.63-2.18c-.09-.28-.55-.31-.61,0a5.18,5.18,0,0,0,0,2c.05.31.43.27.58.08a2.44,2.44,0,0,0,.52-1.67l-.62.09.23,1.24c.07.37.6.25.62-.08a4.29,4.29,0,0,0-1-3c-.26-.31-.7.14-.45.45a3.6,3.6,0,0,1,.81,2.56l.62-.09L51.82,81a.32.32,0,0,0-.63.08,1.89,1.89,0,0,1-.43,1.35l.58.08a4.26,4.26,0,0,1,0-1.63h-.61L51.4,83a.32.32,0,0,0,.58.08l.37-.55-.58-.08a1.12,1.12,0,0,1-.33,1.1l.49.07a8.48,8.48,0,0,1-.67-2.46c0-.4-.69-.41-.64,0Z"></path>
      <path class="cls-10" d="M51,86.26a17.52,17.52,0,0,1-.26,4.9l.62.08,0-.43c0-.4-.65-.41-.63,0l0,.43c0,.34.55.46.62.09a18.38,18.38,0,0,0,.28-5.07c0-.41-.67-.41-.63,0Z"></path>
      <path class="cls-10" d="M50.46,85.6a89.18,89.18,0,0,1-.22,10.21c0,.38.51.41.62.09l1-3.06c.13-.39-.48-.55-.61-.17l-1,3.06.62.08a89.18,89.18,0,0,0,.22-10.21c0-.41-.65-.41-.63,0Z"></path>
      <path class="cls-10" d="M50.38,87.56a3.29,3.29,0,0,1-.23,1.67c-.16.37.38.69.54.32a3.79,3.79,0,0,0,.32-2c0-.4-.67-.4-.63,0Z"></path>
      <path class="cls-10" d="M51.47,86.89a18.65,18.65,0,0,0,.62,5,.32.32,0,0,0,.61-.17,18.62,18.62,0,0,1-.6-4.82c0-.4-.62-.4-.63,0Z"></path>
      <path class="cls-10" d="M51.36,90.9a9.05,9.05,0,0,0-.43,3.1.32.32,0,0,0,.62.08,13.51,13.51,0,0,0,.06-9.46c-.14-.38-.75-.21-.61.17a12.9,12.9,0,0,1-.06,9.12l.62.09A8.55,8.55,0,0,1,52,91.07c.12-.39-.49-.55-.61-.17Z"></path>
      <path class="cls-10" d="M50.7,84.37l-.21,1.27a.32.32,0,0,0,.61.16,3.9,3.9,0,0,0,.18-1.52c0-.4-.66-.4-.63,0a3.68,3.68,0,0,1-.16,1.36l.61.16.21-1.26c.07-.4-.54-.57-.61-.17Z"></path>
      <path class="cls-10" d="M49.53,78.49A12.61,12.61,0,0,0,50.66,81a.32.32,0,0,0,.59-.16,4.77,4.77,0,0,0-.25-2,.31.31,0,0,0-.46-.18,3.3,3.3,0,0,0-1.87,3.11.32.32,0,0,0,.48.27,1.74,1.74,0,0,0,.92-1.13.32.32,0,0,0-.46-.36,2.75,2.75,0,0,0-.9.83l.57.25a16.11,16.11,0,0,0,.2-3.47c0-.4-.65-.4-.63,0a15.86,15.86,0,0,1-.18,3.3.32.32,0,0,0,.58.24,2.06,2.06,0,0,1,.68-.6l-.47-.36a1.15,1.15,0,0,1-.63.75l.47.28a2.69,2.69,0,0,1,1.56-2.57l-.47-.19a4.3,4.3,0,0,1,.23,1.88l.58-.16a11.66,11.66,0,0,1-1.06-2.33c-.13-.38-.74-.22-.61.17Z"></path>
      <polygon class="cls-11" points="0 68.3 48.85 88.71 93.24 69.88 48.85 54.23 0 68.3"></polygon>
      <path class="cls-12" d="M57.71,35c0,.39-.16.57-.55.55l0,0c0-.39.16-.58.55-.55Z"></path>
      <path class="cls-13" d="M30.37,25.73a5.28,5.28,0,0,1-2.2-3.38c-.43-2.39-3.33-3.11-.55-4.39,0,0-.57-2.5-1.34-2.94s.14-1.21,1-.5,2-.07,3.59,3.52c0,0,.11.34.71,0s1.18.51.91,2-.87,7.44,2,10Z"></path>
      <path class="cls-13" d="M24.24,26.59a15.11,15.11,0,0,1-2,.45c-.45.08-3.47,2-4.44,2.15s-2.06.5-2.56-.93c0,0-1.38-.82-2.14-.52s-1.79.12-2-.31-.58-.83-.47-1.06-.38-.51-.37-.67-1.16-.7-.53-.91a4.72,4.72,0,0,1,2,.18s.08-1.61,2.26-.14c0,0,.39.35.72-.43s1.46-1.93,3.29.12c0,0,3.37.83,2.91,1.3s2.6-.33,3,.22S24.5,26.34,24.24,26.59Z"></path>
      <path class="cls-13" d="M48.63,23.83c-.2-.54-3.75-7.69-6.62-8.53,0,0-1.52-.1-.61-1.38s-5.34-3.35-5.49-3.59S34.76,9,35.64,8.14s-5.31-2.76-5.31-2.76-.77-.69-.26-1.36-6-2.34-6-2.34-1-1.24,2-.56L32,2.39S31.37-.46,33,.06c0,0,2.47,3.86,3.78,4.53,0,0,1.15-2.14,2.49-1.12l2.78,4.76a1.75,1.75,0,0,1,3,.26A11.59,11.59,0,0,1,46.37,14,3.13,3.13,0,0,0,47,12.34s.09-.56,1.47-.17c0,0-.52-7.88,2.55-4.75,0,0,2.66-5.67,3.85-5.06,0,0,.88.06-.1,1.57A37.53,37.53,0,0,0,50.2,22.18s.38.49-.35,1.73a4.39,4.39,0,0,0,0,1.35c.14.48.23-.24,1.44-.27a1.91,1.91,0,0,0-.09-1.57c-.4-1-.84-4.23,2.1-3.84,0,0,.3-4.43,1-4.61s1,4.59,1,4.59,3.68-.88.44,3.74c0,0-.43.09.13,1s-.76,3.22-3.57,4.87l-1.1.78s-.93,2.94-1.33,3.85c-1.11-.43-2.39-3.13-4-3s-3.25,1.3-3.41.2a2.17,2.17,0,0,1,.82-2.32c.61-.28-1.79-.52-3.38-.7s-2-1.39-1-1.86-5.81-1.8-6.86-1.76-1.94-.79.75-.73,2.76.7,2.69.07.44-3.05,4.5.34c0,0,.92.88,1-.52s2.62-1.19,3.85.81,1.77,2.11,1.94,1.3-.4-1.55-.11-1.8,1,.57,1.54,1.39.91.45.62-.46Z"></path>
      <path class="cls-13" d="M52.28,35.55c.4-.68.31-2.79,3.13-4.65s2.16-5.94,5.3-3.09c0,0,2.89-2.09,3-3.31s1.62-.48,1.17,1S66.08,28,62.36,32c0,0-.37.33.35.93s0,1.78-2,2.23-9,2.27-10.75,7.36Z"></path>
      <path class="cls-13" d="M44.05,39.84a9.37,9.37,0,0,0-8.17-2.69c-5.08.82-2.67,2.69-2.67,2.69s-7.32,3-2.94,11.62c0,0,1.11,1.22,1.46-.47s-.06-2,.64-3.56,1.76-3.8,2.28-3.56,1.17,2.45,2.22.29S40.73,38.9,44.05,39.84Z"></path>
      <path class="cls-13" d="M42.52,38.84c0,3.12,2.41-6.77,5.29-5,0,0-.48-4.05-4.06-3.66a2.94,2.94,0,0,0-2.64,2.54C40.94,34,42.48,35.67,42.52,38.84Z"></path>
      <path class="cls-13" d="M42.78,51.78s-14-6.54-13.33,10.28c0,0,1.11,2.1,2.88-4.44,0,0-.55-.31,1.55-.46S38.68,50.23,42.78,51.78Z"></path>
      <path class="cls-13" d="M55.46,53.89a.74.74,0,0,0,.26-.32c.44-1.26,1.9-6.7,3.31-7.9s1.75-2.62,2.34-.23a1.36,1.36,0,0,1-.28.93s.3-.18,1.44-.93c2.45-1.62,6.1-4.28,5.52-2.2s-1.33,1.91.06,1.91,4-.58,5.53-.35,3.26.93-.73,1.39c-3.27.38-1.89.64-1.29.72a1,1,0,0,1,.49.22c.41.36.94,1.1-1.92,1-3.76-.11-2.72,0-2.55.29s1.22,2.61-1.38,2.14a9.09,9.09,0,0,0-4.34.12c-.23.06,3.65,1.56.61,2s-4.37,1.5-6.05,1.44C55.4,54.07,55.35,54,55.46,53.89Z"></path>
      <path class="cls-13" d="M53.15,56.41s10.76-2,3.79,8.38a23.44,23.44,0,0,1-.35-2.46c-.05-1-1.25.82-.42-2.54,0,0-1.72.09-.85-2.63A4.77,4.77,0,0,0,53.15,56.41Z"></path>
      <path class="cls-13" d="M54,56.41s1.79-3.67,1.91-5.87a47.47,47.47,0,0,0-.46-6.88c-.12-.76-1.45,1.44-1.45,4s1,2.8,0,2.51-1.56-.66-2,.71S54,56.41,54,56.41Z"></path>
      <path class="cls-12" d="M56.22,52.77c-3.19,3.39-6.55,7.06-7.48,11.77-.13.66.87.94,1,.28.9-4.54,4.14-8,7.21-11.31.46-.49-.27-1.22-.73-.74Z"></path>
      <path class="cls-14" d="M39,51.4c5.76-.46,7.32,4,10,4"></path>
      <path class="cls-13" d="M31.59,28.46a8.13,8.13,0,0,0-8,2.75s-.86,1.14.44,1.47c0,0-3.79,3-3.84,4.74s0,1.23.39,1.61-.14,4.32,1.17,5.31,1.5-4.79,1.5-4.79,1.48,2.26,2.65-5.2c0,0,2.92,1.6,3.55-1.58s2.33-3.65,3.4-3.51S31.59,28.46,31.59,28.46Z"></path>
      <path class="cls-12" d="M23.54,26.84c5.95-.1,11.26,3.28,15.29,7.4A44.2,44.2,0,0,1,49.13,52c.17.53,1,.31.84-.23a45,45,0,0,0-10.79-18.4C35,29.22,29.59,25.88,23.54,26a.43.43,0,0,0,0,.86Z"></path>
      <path class="cls-15" d="M49.9,25.28c.61,20.93.52,11.07-.33,32-.44,10.71.29.37-.15,11.08"></path>
      <path class="cls-6" d="M45.88,76.66a1.35,1.35,0,0,0-1.29-.48c-.72.23-1,.8-.88,1a2.1,2.1,0,0,0,.26.27c.18.18.56-.32.58-.32Z"></path>
      <path class="cls-7" d="M46.26,77.53s-.23-1-.6-1a7.74,7.74,0,0,1-.78-.07l-.11.18s.37.64.52.69l.49.15C45.84,77.51,46.26,77.53,46.26,77.53Z"></path>
      <path class="cls-8" d="M46.23,77.65c0-.08.09-.31-.14-.38a3.5,3.5,0,0,0-.48-.1s-.59.45-.71.52-.19.06.15.16.34.19.65.15A.94.94,0,0,0,46.23,77.65Z"></path>
      <path class="cls-9" d="M45.61,77.17a4.44,4.44,0,0,0-.43.42c-.17.21-.21.27-.41.16s-.75-.17-.88-.38-.14-.18,0-.43a1.09,1.09,0,0,1,.69-.42.59.59,0,0,1,.69.14A1.66,1.66,0,0,1,45.61,77.17Z"></path>
      <path class="cls-6" d="M42.93,60a2,2,0,0,0-2-.29c-1,.54-1.19,1.44-1,1.69a3,3,0,0,0,.46.32c.31.19.71-.64.73-.65Z"></path>
      <path class="cls-7" d="M43.73,61.15s-.62-1.34-1.15-1.24-1.15.15-1.15.15l-.09.28s.72.81.94.84.65,0,.75.06A5,5,0,0,0,43.73,61.15Z"></path>
      <path class="cls-8" d="M43.73,61.34c0-.13,0-.47-.32-.5a5,5,0,0,0-.72,0s-.7.82-.85.95-.26.15.26.19.54.17,1,0A1.35,1.35,0,0,0,43.73,61.34Z"></path>
      <path class="cls-9" d="M42.69,60.84a6.7,6.7,0,0,0-.49.74c-.18.34-.2.44-.53.35s-1.13,0-1.39-.28S40,61.43,40.2,61a1.63,1.63,0,0,1,.87-.82.9.9,0,0,1,1,0A2.34,2.34,0,0,1,42.69,60.84Z"></path>
      <path class="cls-6" d="M39,66.13s-4.14-2.07-7,.46-3,5.76-2.05,6.46a12.89,12.89,0,0,0,1.81.73c1.2.44,1.94-2.67,2-2.72S39,66.13,39,66.13Z"></path>
      <path class="cls-7" d="M42.49,69.4s-3.07-4.12-4.82-3.4-3.8,1.31-3.8,1.31l-.12,1s3,2.25,3.83,2.18,2.24-.33,2.59-.33A19,19,0,0,0,42.49,69.4Z"></path>
      <path class="cls-8" d="M42.61,70c0-.45-.21-1.63-1.45-1.47a17.52,17.52,0,0,0-2.44.52s-1.81,3.3-2.21,3.86-.78.69,1,.45,1.95.19,3.31-.63A4.63,4.63,0,0,0,42.61,70Z"></path>
      <path class="cls-9" d="M38.72,69.07a21.09,21.09,0,0,0-1.13,2.86c-.37,1.31-.39,1.67-1.58,1.6s-3.84.71-4.91,0-1-.57-.72-2.09,1-2.22,2.35-3.39a3.08,3.08,0,0,1,3.51-.74A8,8,0,0,1,38.72,69.07Z"></path>
      <path class="cls-6" d="M53.28,67s-3.48-2-6.14,0-3,4.82-2.17,5.49a11.89,11.89,0,0,0,1.54.74c1,.45,1.84-2.2,1.9-2.24S53.28,67,53.28,67Z"></path>
      <path class="cls-7" d="M56.15,70.05s-2.42-3.76-4-3.24-3.38.9-3.38.9l-.16.9s2.49,2.14,3.19,2.13,2-.15,2.27-.14A15.53,15.53,0,0,0,56.15,70.05Z"></path>
      <path class="cls-8" d="M56.22,70.6c0-.4-.09-1.43-1.17-1.36a14.81,14.81,0,0,0-2.15.3s-1.77,2.75-2.15,3.21-.72.55.86.46,1.68.28,2.91-.35A4.07,4.07,0,0,0,56.22,70.6Z"></path>
      <path class="cls-9" d="M52.9,69.54A19,19,0,0,0,51.74,72c-.4,1.11-.44,1.42-1.46,1.3S46.9,73.63,46,73s-.84-.56-.49-1.86,1-1.87,2.24-2.81a2.71,2.71,0,0,1,3.09-.43A6.92,6.92,0,0,1,52.9,69.54Z"></path>
      <path class="cls-6" d="M62.48,63.33s-3.43-2.65-6.54-.86-3.82,4.74-3,5.56a12.46,12.46,0,0,0,1.53,1c1,.63,2.26-2.09,2.33-2.12S62.48,63.33,62.48,63.33Z"></path>
      <path class="cls-7" d="M65.13,67s-2.07-4.32-3.81-4-3.72.51-3.72.51l-.29.94s2.37,2.6,3.11,2.68,2.11.11,2.44.17A16.68,16.68,0,0,0,65.13,67Z"></path>
      <path class="cls-8" d="M65.13,67.56c0-.43.1-1.54-1.06-1.61a16.54,16.54,0,0,0-2.34,0s-2.25,2.7-2.72,3.14-.84.49.86.6,1.75.52,3.14,0A4.39,4.39,0,0,0,65.13,67.56Z"></path>
      <path class="cls-9" d="M61.73,66a20.29,20.29,0,0,0-1.55,2.42c-.58,1.13-.66,1.46-1.74,1.18s-3.65,0-4.5-.86-.83-.71-.28-2S55,64.82,56.43,64a2.89,2.89,0,0,1,3.35,0A7.42,7.42,0,0,1,61.73,66Z"></path>
      <path class="cls-6" d="M65.14,74.41a2.08,2.08,0,0,0,1.9-.94c.51-1,.18-2-.18-2a3.82,3.82,0,0,0-.59,0c-.38,0-.23,1-.24,1S65.14,74.41,65.14,74.41Z"></path>
      <path class="cls-7" d="M63.78,73.91s1.33.78,1.73.38.9-.8.9-.8l-.09-.3A4,4,0,0,0,65,73c-.21.11-.58.35-.68.39A4.89,4.89,0,0,0,63.78,73.91Z"></path>
      <path class="cls-8" d="M63.67,73.75c.07.12.25.43.57.24a5.1,5.1,0,0,0,.62-.43s.12-1.12.17-1.32.14-.28-.34,0-.56.17-.84.56A1.37,1.37,0,0,0,63.67,73.75Z"></path>
      <path class="cls-9" d="M64.86,73.56a7.08,7.08,0,0,0,0-.92c0-.41-.09-.51.25-.63s1-.64,1.36-.57.35,0,.44.49a1.69,1.69,0,0,1-.26,1.22.94.94,0,0,1-.89.61A2.48,2.48,0,0,1,64.86,73.56Z"></path>
      <path class="cls-6" d="M32.51,75.14a2.64,2.64,0,0,0,2.51-1c.74-1.27.39-2.46-.05-2.6a7.2,7.2,0,0,0-.75,0c-.49,0-.38,1.21-.4,1.24S32.51,75.14,32.51,75.14Z"></path>
      <path class="cls-7" d="M30.83,74.39S32.45,75.51,33,75s1.22-.94,1.22-.94l-.09-.39a5.44,5.44,0,0,0-1.66-.33c-.28.13-.77.4-.9.44A8.42,8.42,0,0,0,30.83,74.39Z"></path>
      <path class="cls-8" d="M30.71,74.18c.07.16.27.56.7.35a7.08,7.08,0,0,0,.83-.49s.25-1.41.33-1.67.2-.34-.43,0-.73.17-1.12.64A1.76,1.76,0,0,0,30.71,74.18Z"></path>
      <path class="cls-9" d="M32.24,74a8.75,8.75,0,0,0,.06-1.17c0-.52-.06-.66.37-.78s1.32-.73,1.79-.61.43.08.51.67a2,2,0,0,1-.44,1.52,1.17,1.17,0,0,1-1.18.7A2.94,2.94,0,0,1,32.24,74Z"></path>
      <path class="cls-6" d="M44,68.6a1.51,1.51,0,0,0,1.54.26c.76-.39,1-1.08.78-1.29-.05,0-.24-.17-.35-.25s-.56.48-.58.48Z"></path>
      <path class="cls-7" d="M43.39,67.7s.45,1,.87,1,.89-.08.89-.08l.08-.22s-.54-.65-.72-.68-.5,0-.57-.06A3.71,3.71,0,0,0,43.39,67.7Z"></path>
      <path class="cls-8" d="M43.4,67.56c0,.1,0,.37.23.4a3.6,3.6,0,0,0,.56,0s.56-.62.68-.72.2-.11-.2-.15-.41-.14-.75,0A1,1,0,0,0,43.4,67.56Z"></path>
      <path class="cls-9" d="M44.19,68a4.13,4.13,0,0,0,.39-.56c.15-.26.18-.34.43-.26s.87,0,1.06.25.19.17,0,.49a1.2,1.2,0,0,1-.69.61.68.68,0,0,1-.79,0A1.9,1.9,0,0,1,44.19,68Z"></path>
      <path class="cls-6" d="M57.93,74.49s3.9.94,5.85-1.74,1.45-5.45.48-5.85a11.84,11.84,0,0,0-1.67-.26c-1.09-.14-1.12,2.63-1.17,2.68S57.93,74.49,57.93,74.49Z"></path>
      <path class="cls-7" d="M54.33,72.41s3.38,2.88,4.72,1.94A33.76,33.76,0,0,1,62,72.52l-.1-.91s-3-1.31-3.64-1.1-1.82.71-2.12.78A15,15,0,0,0,54.33,72.41Z"></path>
      <path class="cls-8" d="M54.1,71.91c.13.37.49,1.33,1.51,1a16,16,0,0,0,2-.91s.9-3.12,1.13-3.67.52-.73-.95-.19-1.68.22-2.67,1.17A4.06,4.06,0,0,0,54.1,71.91Z"></path>
      <path class="cls-9" d="M57.56,72A19,19,0,0,0,58,69.33c.06-1.17,0-1.47,1-1.65s3.11-1.33,4.13-1,1,.29,1,1.62a4.77,4.77,0,0,1-1.33,3.32A2.67,2.67,0,0,1,60,73,7,7,0,0,1,57.56,72Z"></path>
      <path class="cls-6" d="M40,72.24s2.33,1.31,4.08-.06S46,68.93,45.43,68.5a7.27,7.27,0,0,0-1-.47c-.68-.29-1.2,1.49-1.24,1.51S40,72.24,40,72.24Z"></path>
      <path class="cls-7" d="M38,70.25s1.66,2.46,2.69,2.1S43,71.7,43,71.7l.1-.6s-1.69-1.38-2.15-1.37-1.3.13-1.51.12A10.06,10.06,0,0,0,38,70.25Z"></path>
      <path class="cls-8" d="M38,69.88c0,.27.07,1,.79.9a10.08,10.08,0,0,0,1.43-.24s1.14-1.85,1.38-2.16.47-.38-.57-.29-1.12-.17-1.93.27A2.66,2.66,0,0,0,38,69.88Z"></path>
      <path class="cls-9" d="M40.21,70.54a11.7,11.7,0,0,0,.73-1.62c.26-.74.28-.94,1-.88s2.24-.29,2.84.13.57.36.35,1.23a3.17,3.17,0,0,1-1.45,1.89,1.79,1.79,0,0,1-2,.33A4.56,4.56,0,0,1,40.21,70.54Z"></path>
    </g>
  </g>
</svg>
