<?xml version="1.0" encoding="UTF-8"?>
<svg xmlns="http://www.w3.org/2000/svg" viewBox="0 0 108.49 210.58">
  <defs>
    <style>.cls-1{fill:#a29274;}.cls-2{fill:#e3e0c9;}.cls-3{fill:#fcedce;}.cls-4{fill:#bda885;}.cls-5{fill:#d0c5a6;}.cls-6{fill:#8f8267;}.cls-7{fill:#ab967a;opacity:0.25;}.cls-8{fill:#9b8d71;}.cls-9{fill:#7c705b;}.cls-10{fill:#e7e6e3;}.cls-11{fill:#817870;}.cls-12{fill:#81a135;}.cls-13{fill:#91b33d;}</style>
  </defs>
  <g id="Слой_2" data-name="Слой 2">
    <g id="Слой_1-2" data-name="Слой 1">
      <polygon class="cls-1" points="54.32 139.21 108.49 116.15 100.36 178.52 54.32 210.58 54.32 139.21"></polygon>
      <polygon class="cls-2" points="54.32 100.56 108.49 116.15 54.32 139.21 0 116.15 54.32 100.56"></polygon>
      <polygon class="cls-3" points="54.32 100.56 0 116.15 0.95 116.55 107.99 116 54.32 100.56"></polygon>
      <polygon class="cls-4" points="8.13 178.52 0 116.15 54.32 139.21 54.32 210.58 8.13 178.52"></polygon>
      <path class="cls-5" d="M34.14,116.91a30,30,0,0,1,2.57-2.73,23.11,23.11,0,0,1,3-2.32,30.54,30.54,0,0,1,6.8-3.3A36,36,0,0,1,53.87,107c1.25-.16,2.51-.13,3.76-.19s2.5.11,3.74.22c-1.24.14-2.48.19-3.71.33l-1.84.24a18.32,18.32,0,0,0-1.83.26c-1.21.23-2.43.41-3.61.75s-2.37.64-3.54,1a38.91,38.91,0,0,0-6.69,3A37.53,37.53,0,0,0,34.14,116.91Z"></path>
      <polygon class="cls-6" points="54.32 139.21 108.49 116.15 100.36 178.52 54.32 210.58 54.32 139.21"></polygon>
      <polygon class="cls-7" points="8.13 178.52 0 116.15 54.32 139.21 54.32 210.58 8.13 178.52"></polygon>
      <polygon class="cls-8" points="54.32 210.58 8.13 178.52 54.54 160.98 100.36 178.52 54.32 210.58"></polygon>
      <path class="cls-9" d="M17.94,151.1a16.65,16.65,0,0,1-1.4-9,14.32,14.32,0,0,1,4-8.37,20.11,20.11,0,0,1,8-4.75,34.08,34.08,0,0,1,9-1.61c-.74.17-1.49.33-2.23.47s-1.48.37-2.21.56-1.45.41-2.18.62-1.42.5-2.12.77a21.53,21.53,0,0,0-7.47,4.72,14.64,14.64,0,0,0-4,7.72,19.87,19.87,0,0,0,.56,8.92Z"></path>
      <path class="cls-9" d="M68.42,150.24c.14.23.45.31.69.43s.51.22.77.32c.52.2,1.05.38,1.58.55,1.06.35,2.13.66,3.2,1,2.15.58,4.31,1.1,6.49,1.53,4.36.9,8.77,1.47,13.24,2a50.22,50.22,0,0,1-20-2.7A33.88,33.88,0,0,1,71.26,152c-.51-.25-1-.5-1.51-.78A3.94,3.94,0,0,1,68.42,150.24Z"></path>
      <path class="cls-9" d="M39.32,147a39.86,39.86,0,0,1-3.59,12,33.52,33.52,0,0,1-3.26,5.38A20.76,20.76,0,0,1,28,168.71a36.6,36.6,0,0,0,3.8-4.86,55.19,55.19,0,0,0,3-5.38c.9-1.84,1.69-3.74,2.45-5.65S38.66,149,39.32,147Z"></path>
      <path class="cls-9" d="M56.13,196.62c2.2-1.08,4.49-1.94,6.72-2.9s4.45-2,6.59-3.08a41.51,41.51,0,0,0,6.12-3.82,17.31,17.31,0,0,0,4.83-5.31,14,14,0,0,1-4.28,6A31.79,31.79,0,0,1,70,191.63a55.21,55.21,0,0,1-6.78,2.89c-1.16.41-2.33.77-3.51,1.12Z"></path>
      <path class="cls-9" d="M30.72,189.78a15.1,15.1,0,0,1-3.51-2.23,8.49,8.49,0,0,1-2.55-3.42,4.89,4.89,0,0,1-.3-2.22,5.41,5.41,0,0,1,.67-2.15A10.32,10.32,0,0,1,28,176.6a28.73,28.73,0,0,1,7.5-3.73,58.72,58.72,0,0,1,8-2.09c-2.6.94-5.18,1.87-7.71,2.9a34.61,34.61,0,0,0-7.14,3.81,9.48,9.48,0,0,0-2.69,2.78,4.4,4.4,0,0,0-.46,3.59,8.52,8.52,0,0,0,2.1,3.3A18.43,18.43,0,0,0,30.72,189.78Z"></path>
      <path class="cls-9" d="M80.39,149l4-5.55c1.32-1.86,2.62-3.73,3.85-5.64a59.38,59.38,0,0,0,3.4-5.88,19.06,19.06,0,0,0,2.13-6.42,14.6,14.6,0,0,1-1.34,6.78,37.4,37.4,0,0,1-3.26,6.12A57.84,57.84,0,0,1,80.39,149Z"></path>
      <path class="cls-10" d="M56.06,130.46a8.9,8.9,0,0,1,.16,4.87c-.32,1.53-.74,2.92-1.06,4.37a39.85,39.85,0,0,0-1.24,8.64,26,26,0,0,0,1.29,8.59,28,28,0,0,0,4,7.87,23.81,23.81,0,0,1-4.95-7.52,25.46,25.46,0,0,1-1.91-8.93,37.61,37.61,0,0,1,1.06-9.06c.32-1.46.75-2.94,1-4.32a7.65,7.65,0,0,0,.05-4h0a.81.81,0,0,1,.53-1A.82.82,0,0,1,56.06,130.46Z"></path>
      <path class="cls-10" d="M55.58,158.31c.9.88,1.85,1.73,2.82,2.54a21,21,0,0,0,3.08,2.23,20.89,20.89,0,0,1-3.26-2c-1-.75-2.06-1.52-3-2.35Z"></path>
      <path class="cls-10" d="M55.07,156.71a14.09,14.09,0,0,1-1.42,2.1,15,15,0,0,1-1.9,1.6,5.23,5.23,0,0,0-1.35,1.92,5.66,5.66,0,0,0-.35,1.15c0,.38-.14.84.14,1.15a1.44,1.44,0,0,1-.25-1.17,5.64,5.64,0,0,1,.24-1.21,5.56,5.56,0,0,1,1.24-2.17A15.2,15.2,0,0,0,53,158.33a14.23,14.23,0,0,0,1.06-2.1Z"></path>
      <path class="cls-10" d="M53.86,147.72a12.45,12.45,0,0,0,2.5,2.27,9.53,9.53,0,0,0,1.46.87c.48.22,1.09.39,1.64.59a8.14,8.14,0,0,1,3.16,1.75,5.6,5.6,0,0,1,1.63,3.15,5.49,5.49,0,0,0-1.83-2.92,7.7,7.7,0,0,0-3.14-1.4,17.9,17.9,0,0,1-1.75-.48,10.12,10.12,0,0,1-1.64-.84A13.39,13.39,0,0,1,53,148.39Z"></path>
      <path class="cls-10" d="M59.87,151.77a16.9,16.9,0,0,1,.28,2.65,8,8,0,0,1-.28,2.63,7.83,7.83,0,0,0-.06-2.6,15.31,15.31,0,0,0-.61-2.51Z"></path>
      <path class="cls-10" d="M56.25,149.92a4.27,4.27,0,0,1,5.37.7,3.9,3.9,0,0,0-4.91-.08Z"></path>
      <path class="cls-10" d="M54.82,140c1.13.76,2,1.66,3.1,2.3a19,19,0,0,0,3.48,1.49,13.66,13.66,0,0,1,3.53,1.69,5.25,5.25,0,0,1,2.21,3.12,5.09,5.09,0,0,0-2.36-2.89,13.28,13.28,0,0,0-3.54-1.4,19.6,19.6,0,0,1-3.72-1.3c-1.2-.63-2.2-1.48-3.27-2.08Z"></path>
      <path class="cls-10" d="M56.22,131.8a2.18,2.18,0,0,0,1.62,1.2,24.79,24.79,0,0,0,2.48.48,8.48,8.48,0,0,1,2.57.74c.79.39,1.55.81,2.3,1.25l2.2,1.35a16.4,16.4,0,0,1,2.17,1.45A6.28,6.28,0,0,1,72,142.7a6.15,6.15,0,0,0-2.64-4.21,14.63,14.63,0,0,0-2.2-1.3L64.91,136c-.76-.39-1.52-.77-2.31-1.1a7.59,7.59,0,0,0-2.4-.56,21.07,21.07,0,0,1-2.61-.38,4.4,4.4,0,0,1-1.34-.53,2.48,2.48,0,0,1-1-1.21Z"></path>
      <path class="cls-10" d="M67.51,137.12a11.12,11.12,0,0,0,0,3.31,10.17,10.17,0,0,0,.94,3.23,10.29,10.29,0,0,1-1.2-3.18A11.31,11.31,0,0,1,67,137Z"></path>
      <path class="cls-10" d="M65.1,135.42a7,7,0,0,1,4.14.19,11.41,11.41,0,0,1,3.55,2,11.34,11.34,0,0,0-3.62-1.79,6.71,6.71,0,0,0-3.92,0Z"></path>
      <path class="cls-10" d="M55.74,131.44a5,5,0,0,1-1.47,2.35,9.23,9.23,0,0,1-2.09,1.57A28.57,28.57,0,0,1,47.43,137a12.47,12.47,0,0,0-4.22,2.42,9.43,9.43,0,0,0-2.9,3.93A9.59,9.59,0,0,1,43,139.23a12.91,12.91,0,0,1,4.22-2.74,29.12,29.12,0,0,0,4.52-1.87,8.7,8.7,0,0,0,1.81-1.51,4,4,0,0,0,1.09-1.83Z"></path>
      <path class="cls-10" d="M43.68,138.92a4,4,0,0,0-2.55.53A10.54,10.54,0,0,0,38.85,141a11.2,11.2,0,0,1,2.2-1.67,8.17,8.17,0,0,1,1.28-.57,3,3,0,0,1,1.43-.12Z"></path>
      <path class="cls-10" d="M52.73,134.46l-3.12-.89a23.75,23.75,0,0,0-3.13-.76,6.89,6.89,0,0,0-3.15.35,11,11,0,0,0-2.83,1.54A11.2,11.2,0,0,1,43.28,133a6.83,6.83,0,0,1,3.23-.5,22.76,22.76,0,0,1,3.21.62l3.16.74Z"></path>
      <path class="cls-10" d="M54.59,140.67a13.32,13.32,0,0,1-3.21,3.47c-1.22,1-2.51,1.78-3.76,2.64a20.21,20.21,0,0,0-3.47,2.91A8.64,8.64,0,0,0,42,153.63a8.68,8.68,0,0,1,2-4.11,20.11,20.11,0,0,1,3.35-3.17c1.2-.95,2.44-1.84,3.56-2.84a12.43,12.43,0,0,0,2.79-3.37Z"></path>
      <path class="cls-10" d="M45.4,148.29a4.68,4.68,0,0,0-3.88-.06,7.59,7.59,0,0,0-3.35,2.35A7.73,7.73,0,0,1,41.43,148a6.53,6.53,0,0,1,2.06-.54,4.19,4.19,0,0,1,2.14.39Z"></path>
      <path class="cls-10" d="M48.55,146a10.51,10.51,0,0,1,1,2.26,9.72,9.72,0,0,1,.4,2.39,10.45,10.45,0,0,1-.91,4.65,9.72,9.72,0,0,0,.67-4.64,8.81,8.81,0,0,0-.52-2.27,8.45,8.45,0,0,0-1.08-2Z"></path>
      <polygon class="cls-3" points="0.95 116.55 54.32 139.21 108.49 116.15 107.99 116 0.95 116.55"></polygon>
      <ellipse class="cls-1" cx="56.04" cy="117.24" rx="12.51" ry="4.89"></ellipse>
      <ellipse class="cls-11" cx="56.35" cy="118.89" rx="10.31" ry="4.03"></ellipse>
      <path class="cls-12" d="M63,19a23.55,23.55,0,0,1-5,15.48c-1.54,2-2.76,4.25-4.13,6.39-.17.27-.25.71-.68.59s-.3-.58-.25-.88a11.77,11.77,0,0,1,2.62-5.17,31.43,31.43,0,0,0,5.77-11.12,20.18,20.18,0,0,0,.39-9.92c-.58-2.3-.9-4.66-2.21-6.71-.19-.29-.22-.55.07-.74s.61.13.73.4a19.71,19.71,0,0,1,2.08,5.23A26.52,26.52,0,0,1,63,19Z"></path>
      <path class="cls-12" d="M84.65,49.78c.12-1.43,1.22-2.19,2.23-2.88,1.6-1.11,3.54-1.36,5.39-1.77,4.31-1,7.8-2.91,9.33-7.6a3,3,0,0,1-.27,3.06c-1.81,3.26-4.72,4.92-8.32,5.69-2.68.58-5.38,1.27-7.49,3.24C85.32,49.71,85.14,50,84.65,49.78Z"></path>
      <path class="cls-12" d="M91,24.88A18.89,18.89,0,0,1,88,35.16a8.86,8.86,0,0,0-1.41,3.26c0,.24-.07.5-.38.52s-.45-.27-.47-.57a5.93,5.93,0,0,1,.63-3,29.23,29.23,0,0,0,3.18-8.68,22.83,22.83,0,0,0,.09-5.72c0-.4-.41-1,.19-1.06s.82.49.79,1C90.55,22.27,91.17,23.61,91,24.88Z"></path>
      <path class="cls-12" d="M24.36,67.15c-1.78-2.9-4.13-5.49-5.16-8.75a18,18,0,0,1-1-8.83c.06-.34-.09-1,.59-.91.51.08.36.62.34,1-.39,5.15,1.68,9.52,4.37,13.69A4.69,4.69,0,0,1,24.36,67.15Z"></path>
      <path class="cls-12" d="M15.85,90.12c1-.55,1.88-.15,2.81,0a22.91,22.91,0,0,0,13.05-2.63c1.55-.78,3.12-1.71,5-1.68.32,0,.75-.09.83.36s-.38.43-.68.53c-3.12,1-5.89,2.76-9,3.67A18.9,18.9,0,0,1,15.85,90.12Z"></path>
      <path class="cls-12" d="M30.06,29.67c.13-.54-.21-1.3.66-1.26s.52.7.51,1.13c-.06,2.91,1.38,5.26,2.65,7.72C35.34,40.07,37,42.82,37.54,46c.07.41.35,1.09-.32,1.2-.41.07-.73-.43-.76-.91-.21-2.94-1.94-5.26-3.24-7.75A29.89,29.89,0,0,1,30.06,29.67Z"></path>
      <path class="cls-12" d="M67.54,100.23c.41.09.48.41.64.72a32.78,32.78,0,0,1,1.66,5.29A22.59,22.59,0,0,0,76.2,116.7c.25.23.87.41.49.84s-.62-.16-.9-.36c-3.39-2.42-5.27-5.86-6.58-9.7a32.1,32.1,0,0,1-1.94-6.42C67.23,100.72,66.85,100.3,67.54,100.23Z"></path>
      <path class="cls-13" d="M55.16,118.11c0-4.08-.07-8.17-.16-12.25,0-2-.17-4-.38-6a2.22,2.22,0,0,0-2-2.16,27.89,27.89,0,0,1-14.57-6c-.46-.36-.73-.3-1,.17-3.72,5.83-12.26,6.13-18,3a54.76,54.76,0,0,1-8.55-5.81c-.37-.3-.88-.57-.6-1.16s.84-.4,1.28-.26c4.28,1.37,7.9,0,11.21-2.67a27.22,27.22,0,0,1,5.3-3.94c.58-.28.46-.64.23-1a39,39,0,0,1-2.49-5.17,2,2,0,0,0-1.91-1.33c-3.9-.09-6.52-2.48-9.08-5-.22-.22-.57-.51-.33-.85s.7-.24,1-.06a8.36,8.36,0,0,0,4.2.8c1.45,0,2.63.7,3.95,1.47-.06-.92-.3-1.42-1.08-1.65-4.05-1.18-5.7-4.32-6.29-8.12s.34-7.55,1.29-11.23c.25-1,.51-2,.78-2.93.07-.26.14-.59.5-.6a.6.6,0,0,1,.57.56c.43,3.36,2.75,5.62,4.68,8.11a20.7,20.7,0,0,1,3.13,5.63c1.08,3,.24,5.65-1,8.33-.8,1.76-.78,1.77.1,3.7.09,0,.24,0,.26-.06,1.15-3.09,4.35-4.21,6.3-6.53a.67.67,0,0,1,.89-.23c.34.23.23.58.13.91-1,3.3-2.2,6.5-5.64,8.1-.72.34-.71.79-.46,1.4a36.8,36.8,0,0,0,2.41,4.4c.33.57.81.56,1.35.6,3,.26,5.5,1.33,6.88,4.22a.79.79,0,0,0,.75.54,19.31,19.31,0,0,1,13.94,6.37c.42-.59.15-1.1,0-1.56-1.48-5.91-2.45-11.94-3.75-17.89-.62-2.79-1-5.7-2.39-8.21A59.35,59.35,0,0,0,42.59,58c-.88-1.2-1.83-2.35-2.59-3.62a1.91,1.91,0,0,0-2.24-1.07c-.9.16-1.81.21-2.71.34a9.57,9.57,0,0,1-5-1c-.62-.26-.38-.62,0-.81,2.36-1.24,4.68-2.94,7.63-.65-.43-1.42-1-2-2.24-2.17-2.55-.37-4.25-2.13-5.65-4.12A13.3,13.3,0,0,1,27.6,34.64a77,77,0,0,1,1.8-9.17c.07-.26,0-.65.36-.7s.53.37.6.66c.64,2.78,2.66,4.45,4.73,6.14,3.09,2.5,5.49,5.46,6.11,9.59a7.66,7.66,0,0,1-1.8,6.56c-1,1.12-.88,1.82.31,2.8.34-2.66,2.19-3.78,4.37-4.57.4-.14.79-.53,1.17-.1s0,.75-.17,1.07a28.77,28.77,0,0,1-3.4,5.32,1,1,0,0,0-.13,1.46,83,83,0,0,0,5.21,6.89c.14.17.24.46.54.34s.23-.37.26-.6a136.05,136.05,0,0,1,3-15.37,2.62,2.62,0,0,0-.84-2.81c-2.93-3-5.21-6.25-5.19-10.69a45.63,45.63,0,0,1,1-8.41c.08-.44.27-1,.93-.91s.56.57.63,1c.45,2.45,2.17,4.13,3.64,5.94.61.75.77,0,.89-.4,1-3.27,2.65-6.27,3.73-9.5A59.24,59.24,0,0,0,58.51,5.3a38.79,38.79,0,0,0,.06-3.89c0-.7.15-1.31.89-1.4s1,.42,1.18,1c2.15,6.75,5.08,13.25,6.72,20.16,1.27,5.32,1.56,10.64-1.13,15.71-2.35,4.42-6.24,6.49-11,7-1.2.13-1.71.48-2,1.71-.67,3.28-1.6,6.51-2.28,9.79a31.16,31.16,0,0,0-.36,4.44c0,.33,0,.71.5.67a4,4,0,0,0,1.94-2.68,8.56,8.56,0,0,1,1.34-5.76,6.4,6.4,0,0,1,4.84-3.19c3.85-.72,7.48-2,10.34-4.94a9.79,9.79,0,0,0,1-1.36c.25-.36.35-1,1-.8s.45.94.31,1.39a13.29,13.29,0,0,1-1.75,4.06c-3,4.2-7,7.34-11.05,10.4-1.89,1.43-4.23,2-6,3.67a6.36,6.36,0,0,0-2.08,6.53c1.09,5.65,2.29,11.28,3.53,16.89.52,2.38,1.08,4.75,1.72,7.57a31.17,31.17,0,0,0,2.9-6.14,23.82,23.82,0,0,0,1.47-6.88A1.09,1.09,0,0,0,60,78.12a6.06,6.06,0,0,1-2.88-6.72c.13-.51.17-1,.3-1.55.44-1.81,2-2.48,3.83-2,1.15.34,2.19.62,2.8,1.73a9.27,9.27,0,0,1,1.47,4.59,4,4,0,0,1-2.05,3.56A1.33,1.33,0,0,0,62.75,79a19.94,19.94,0,0,1-1,6.22c-.12.38-.43.93,0,1.19s.69-.34.94-.65c4.26-5.37,8.24-11,12-16.67.79-1.2,1.63-2.37,2.45-3.55.55-.79.52-1.31-.6-1.42a9.79,9.79,0,0,1-1.39-.36c-1.75-.41-3.39-.45-4.78,1a8.22,8.22,0,0,1-6,2.58c-.61,0-1.24,0-1.47-.65s.41-.83.85-1.1A5.51,5.51,0,0,0,66,62.42c1.75-5.16,6.19-5.56,9.15-4.15a3.32,3.32,0,0,1,2,3.62c-.08.41-.54.92.27,1.14a1,1,0,0,0,1.35-.65c.59-1.66,1.28-3.29,1.79-5,.69-2.24,1.26-4.53,1.88-6.79a1.55,1.55,0,0,0-.2-1.5c-2.48-3-2.55-6.53-2.52-10.09a30,30,0,0,1,.53-3.92c.66-.11.65.35.73.61.58,1.94,2.05,3.34,3,5.07.09.16.14.38.39.32a.5.5,0,0,0,.37-.55,2.65,2.65,0,0,0-.31-1.09c-3.36-5.13-1.63-9.81,1.34-14.32,1.64-2.49,3.37-4.9,3.66-8,0-.28.07-.61.44-.66s.51.2.61.49c1.57,4.61,3.6,9.09,3.36,14.17-.19,4.19-2.18,7.28-6.1,8.84-.18.08-.36.13-.53.22A1.47,1.47,0,0,0,86.56,42c.2.75.87.24,1.31.1,2.39-.8,4.95-.63,7.36-1.3a11.65,11.65,0,0,0,7.27-5.67c.19-.34.31-.8.77-.74s.43.56.39.93c-.73,6.49-2.69,12.34-8.3,16.39a8.86,8.86,0,0,1-10,.82c-1.09-.57-1.33-.31-1.63.72-.72,2.54-1.55,5-2.32,7.57-.11.33-.37.71,0,1.16,1.2-.8,2.66-1.08,3.26-2.85s4-1.89,5.17-.55a2,2,0,0,1-.3,3.27,3.69,3.69,0,0,1-4.18.54,1.6,1.6,0,0,0-2,.11c-.08.06-.17.09-.25.15-.67.52-1.85.78-1.88,1.64s1.22.78,1.86,1.2a7.69,7.69,0,0,1,3.4,7.32c-.16,3-2,4.85-4.75,5.87-2,.74-4.15.83-6.09,1.72a.67.67,0,0,1-.79-.17c-.26-.31-.13-.63,0-.94a14,14,0,0,1,2.22-3.18,10.53,10.53,0,0,0,2.69-8.92c0-.26.05-.63-.35-.67s-.35.25-.48.45C75,73.39,70.44,79.53,66,85.7a.7.7,0,0,0,0,.14c-.19.11-.45.25-.22.5s.4,0,.55-.17c5-1.08,8.13.68,9.86,5.48.67,1.88,1.14,3.91,3.32,4.77.36.14.38.64.23,1a.93.93,0,0,1-1,.58,10,10,0,0,1-7.28-2.87,7.84,7.84,0,0,0-10-.74A10.09,10.09,0,0,1,67.6,99c.52.76,1.46.66,2.2.9C74,101.25,76,103.55,76,108s.92,8.44,4,11.75c.24.26.62.58.29,1s-.69.18-1,0c-3.21-1.9-6.46-3.75-9.63-5.72a15.27,15.27,0,0,1-6.53-7.43,5.69,5.69,0,0,1,2.29-7.27c.43-.29,1-.54.44-1.06-1.68-1.68-3.2-3.65-6-3.5-.67,0-.85.33-1.19.91-1.92,3.3-.48,6.73-.54,10.08-.09,4.74.44,9.49-.34,14.21a1.88,1.88,0,0,1-2.13.28c-.78-.43-.47-1.24-.46-1.94C55.21,118.86,55.17,118.49,55.16,118.11ZM52,95.14c.44,0,1.06.17,1.29-.34s-.35-.82-.64-1.17a18.43,18.43,0,0,0-12.47-6.9c-.53-.06-1.31-.45-1.4.42s-1,1.69,0,2.5A25.4,25.4,0,0,0,52,95.14ZM63,19a26.52,26.52,0,0,0-.62-6.45,19.71,19.71,0,0,0-2.08-5.23c-.12-.27-.29-.7-.73-.4s-.26.45-.07.74c1.31,2.05,1.63,4.41,2.21,6.71a20.18,20.18,0,0,1-.39,9.92,31.43,31.43,0,0,1-5.77,11.12,11.77,11.77,0,0,0-2.62,5.17c0,.3-.18.75.25.88s.51-.32.68-.59c1.37-2.14,2.59-4.39,4.13-6.39A23.55,23.55,0,0,0,63,19ZM84.65,49.78c.49.2.67-.07.87-.26,2.11-2,4.81-2.66,7.49-3.24,3.6-.77,6.51-2.43,8.32-5.69a3,3,0,0,0,.27-3.06c-1.53,4.69-5,6.62-9.33,7.6-1.85.41-3.79.66-5.39,1.77C85.87,47.59,84.77,48.35,84.65,49.78ZM91,24.88c.21-1.27-.41-2.61-.3-4,0-.51-.29-1.08-.79-1s-.22.66-.19,1.06a22.83,22.83,0,0,1-.09,5.72,29.23,29.23,0,0,1-3.18,8.68,5.93,5.93,0,0,0-.63,3c0,.3.08.59.47.57s.35-.28.38-.52A8.86,8.86,0,0,1,88,35.16,18.89,18.89,0,0,0,91,24.88ZM24.36,67.15a4.69,4.69,0,0,0-.87-3.83c-2.69-4.17-4.76-8.54-4.37-13.69,0-.35.17-.89-.34-1-.68-.11-.53.57-.59.91a18,18,0,0,0,1,8.83C20.23,61.66,22.58,64.25,24.36,67.15Zm-8.51,23a18.9,18.9,0,0,0,12,.21c3.13-.91,5.9-2.72,9-3.67.3-.1.75,0,.68-.53s-.51-.36-.83-.36c-1.85,0-3.42.9-5,1.68a22.91,22.91,0,0,1-13,2.63C17.73,90,16.82,89.57,15.85,90.12ZM30.06,29.67a29.89,29.89,0,0,0,3.16,8.9c1.3,2.49,3,4.81,3.24,7.75,0,.48.35,1,.76.91.67-.11.39-.79.32-1.2-.51-3.21-2.2-6-3.66-8.77-1.27-2.46-2.71-4.81-2.65-7.72,0-.43.22-1.1-.51-1.13S30.19,29.13,30.06,29.67Zm37.48,70.56c-.69.07-.31.49-.27.83a32.1,32.1,0,0,0,1.94,6.42c1.31,3.84,3.19,7.28,6.58,9.7.28.2.54.79.9.36s-.24-.61-.49-.84a22.59,22.59,0,0,1-6.36-10.46A32.78,32.78,0,0,0,68.18,101C68,100.64,68,100.32,67.54,100.23ZM60.35,93c3.33-.62,3.33-.62,2.46-3A16.13,16.13,0,0,0,60.35,93Z"></path>
    </g>
  </g>
</svg>
