<?xml version="1.0" encoding="UTF-8"?>
<svg xmlns="http://www.w3.org/2000/svg" xmlns:xlink="http://www.w3.org/1999/xlink" viewBox="0 0 110.12 194.37">
  <defs>
    <style>.cls-1,.cls-14{fill:none;}.cls-2{fill:#956d4b;}.cls-3{clip-path:url(#clip-path);}.cls-4{fill:url(#Безымянный_градиент_2);}.cls-5{fill:#754120;}.cls-6{fill:#44281c;}.cls-7{fill:#6c3c1d;}.cls-8{fill:#714d31;}.cls-9{fill:#613822;}.cls-10{fill:#7f5637;}.cls-11{fill:#a07850;}.cls-12{fill:#8b5b3c;}.cls-13{fill:#84a63c;}.cls-14{stroke:#d7d7d7;stroke-linecap:round;stroke-linejoin:round;stroke-width:0.86px;}.cls-15{fill:#e9c671;}.cls-16{fill:#d9a458;}.cls-17{fill:#613922;}</style>
    <clipPath id="clip-path">
      <polygon class="cls-1" points="7.72 165.69 57.69 189.21 103.91 165.8 55.86 145.44 7.72 165.69"></polygon>
    </clipPath>
    <linearGradient id="Безымянный_градиент_2" x1="-2758.34" y1="462.43" x2="-2755.54" y2="462.43" gradientTransform="matrix(34.36, 0, 0, -34.36, 94762.32, 16054.88)" gradientUnits="userSpaceOnUse">
      <stop offset="0" stop-color="#a17551"></stop>
      <stop offset="0.38" stop-color="#a17551"></stop>
      <stop offset="0.89" stop-color="#7a4928"></stop>
      <stop offset="1" stop-color="#72401f"></stop>
    </linearGradient>
  </defs>
  <g id="Слой_2" data-name="Слой 2">
    <g id="Слой_1-2" data-name="Слой 1">
      <path class="cls-2" d="M57.69,123.05s9.62,11.3,17.06,11.77,32.81-7.57,32.81-7.57l2.56-26.43L57.69,82.33Z"></path>
      <path class="cls-2" d="M0,99l5.23,34.47s18.58,2.79,21.83,1.87,18.12-6.51,22.29-6.51,8.34-5.73,8.34-5.73V82.33Z"></path>
      <g class="cls-3">
        <rect class="cls-4" x="31.38" y="118.13" width="48.87" height="98.4" transform="translate(-114.26 214.08) rotate(-86.92)"></rect>
      </g>
      <path class="cls-5" d="M7.72,165.69,5.23,133.43s23.69-.47,30.19-3.72,22.27-6.66,22.27-6.66l-1.83,22.4Z"></path>
      <path class="cls-6" d="M41.49,135.43a8.56,8.56,0,0,0-2.84-1.67l0,0s-3.79-1.13-5.85,1.41-1.71,5.29-.77,5.74a12.57,12.57,0,0,0,1.63.34l.09,0a30.11,30.11,0,0,0,3.51-.8,1.56,1.56,0,0,0,.6-.16,6.26,6.26,0,0,0,.65-.19c1.49-.46,1.67-.12,2.69-1a4,4,0,0,0,1.09-2.55l-.21-.5h0l0,0a1,1,0,0,0-.58-.5"></path>
      <path class="cls-6" d="M21.2,138.76a10.77,10.77,0,0,0-4,1.32v0s-4.3,2.7-3.59,6.85,3.66,6.13,4.88,5.6a14.71,14.71,0,0,0,1.71-1.28l0-.14c.92-1.05,1.59-3.16,2.21-4.05a2,2,0,0,0,.35-.72c.11-.2.21-.42.38-.79.8-1.81,1.28-1.71,1.29-3.45a5.09,5.09,0,0,0-1.54-3.21,3.29,3.29,0,0,0-.66-.23v0h-.08a1.27,1.27,0,0,0-1,.14"></path>
      <path class="cls-7" d="M57.69,123.05l-1.83,22.39,48.06,20.37,3.64-38.56s-15-1.72-21.48-.8-17.84,3.72-21.24,1.86a44.41,44.41,0,0,1-7.15-5.26"></path>
      <path class="cls-6" d="M39.39,146.06a3.29,3.29,0,0,0-1.26-.31h0a2.31,2.31,0,0,0-2,1.18c-.49,1.19-.05,2.18.35,2.24l.65,0,0,0a10.59,10.59,0,0,0,1.23-.69l.21-.13.22-.14c.51-.34.61-.24.9-.68a1.59,1.59,0,0,0,.12-1.08l-.13-.16h0Z"></path>
      <path class="cls-6" d="M86.47,136.42a2.27,2.27,0,0,0-.11-.89h0s-.38-1-1.27-1-1.43.5-1.38.78l.2.4,0,0,.75.63.13.1.15.11c.35.25.3.34.66.41a1.08,1.08,0,0,0,.74-.18l.07-.13h0Z"></path>
      <path class="cls-6" d="M99.89,152.6a10.91,10.91,0,0,0-1.9-3.81l0,0s-3.32-3.9-7.36-2.59-5.59,4.54-4.88,5.68a15.32,15.32,0,0,0,1.52,1.53h.14c1.19.77,3.39,1.14,4.37,1.62a2.18,2.18,0,0,0,.77.25c.22.08.45.15.84.26,1.93.54,1.9,1,3.64.79a5.15,5.15,0,0,0,3-2,4.06,4.06,0,0,0,.13-.69h0l0-.07a1.27,1.27,0,0,0-.28-1"></path>
      <path class="cls-6" d="M73.78,139.32A8.44,8.44,0,0,0,71.91,142h0s-1.4,3.66,1,5.89S78,150,78.48,149.07a12.49,12.49,0,0,0,.46-1.59l0-.09a27.58,27.58,0,0,0-.52-3.53,1.78,1.78,0,0,0-.12-.62l-.13-.65c-.35-1.5,0-1.66-.81-2.74a3.94,3.94,0,0,0-2.44-1.26l-.51.16h0l0,0a1,1,0,0,0-.54.54"></path>
      <path class="cls-8" d="M74,166.7a1.59,1.59,0,0,0,1.57-.42c.54-.7.43-1.43.17-1.55l-.44-.08c-.29-.05-.32.69-.33.7Z"></path>
      <path class="cls-9" d="M73,166.12s.87.79,1.23.55.8-.47.8-.47l0-.24-1-.32-.56.19Z"></path>
      <path class="cls-10" d="M73,166c0,.1.12.36.4.27a4.1,4.1,0,0,0,.52-.23l.33-1c.06-.15.14-.19-.25-.06s-.45,0-.72.29A1.07,1.07,0,0,0,73,166"></path>
      <path class="cls-11" d="M73.88,166a5.25,5.25,0,0,0,.13-.69c0-.31,0-.39.28-.43s.84-.33,1.11-.23.26.09.26.44a1.24,1.24,0,0,1-.39.87.68.68,0,0,1-.75.32,1.87,1.87,0,0,1-.64-.28"></path>
      <path class="cls-8" d="M63.28,160.57s2.39.13,3.24-1.67.26-3.36-.36-3.49a7.39,7.39,0,0,0-1,0c-.66,0-.37,1.67-.39,1.7Z"></path>
      <path class="cls-9" d="M60.93,159.75s2.3,1.32,3,.61,1.53-1.4,1.53-1.4l-.15-.52A7.25,7.25,0,0,0,63,158.2c-.36.19-1,.61-1.16.69Z"></path>
      <path class="cls-10" d="M60.74,159.47c.11.21.43.74,1,.4a8.38,8.38,0,0,0,1.05-.75s.18-1.93.26-2.28.22-.49-.58,0-1,.31-1.44,1a2.38,2.38,0,0,0-.28,1.65"></path>
      <path class="cls-11" d="M62.78,159.12a10.92,10.92,0,0,0-.05-1.58c-.09-.7-.16-.88.42-1.09s1.68-1.13,2.32-1,.6.07.77.85a2.85,2.85,0,0,1-.41,2.09,1.59,1.59,0,0,1-1.52,1.07,4,4,0,0,1-1.53-.31"></path>
      <path class="cls-8" d="M53.32,168.34s1.86,1.41,3.54.43,2-2.58,1.62-3a6,6,0,0,0-.84-.53c-.55-.33-1.21,1.15-1.25,1.16Z"></path>
      <path class="cls-9" d="M51.86,166.38s1.15,2.33,2.08,2.14,2-.29,2-.29l.16-.51s-1.29-1.4-1.7-1.44-1.14-.05-1.32-.07Z"></path>
      <path class="cls-10" d="M51.86,166.06c0,.23,0,.83.59.87a10.13,10.13,0,0,0,1.26,0l1.46-1.71c.25-.24.45-.27-.47-.32s-1-.27-1.7,0a2.39,2.39,0,0,0-1.14,1.19"></path>
      <path class="cls-11" d="M53.71,166.9a10.69,10.69,0,0,0,.83-1.32c.3-.61.35-.79.93-.64s2,0,2.44.44.45.38.17,1.1A2.78,2.78,0,0,1,56.59,168a1.54,1.54,0,0,1-1.81,0,4.06,4.06,0,0,1-1.07-1.09"></path>
      <path class="cls-8" d="M49,161.9a2.67,2.67,0,0,0,.1-2.73c-.86-1.21-2.11-1.39-2.41-1l-.35.67c-.22.44,1,.85,1,.88Z"></path>
      <path class="cls-9" d="M47.63,163.14s1.7-1,1.49-1.73a15.08,15.08,0,0,1-.35-1.51l-.4-.09s-1,1.08-1,1.4,0,.87,0,1Z"></path>
      <path class="cls-10" d="M47.39,163.16c.18,0,.63,0,.62-.5a7.72,7.72,0,0,0-.11-1l-1.4-1c-.2-.18-.23-.32-.21.38s-.15.74.12,1.29a1.79,1.79,0,0,0,1,.79"></path>
      <path class="cls-11" d="M47.9,161.7a7.93,7.93,0,0,0-1.06-.54c-.49-.2-.62-.22-.55-.68s-.13-1.51.17-1.89.26-.37.84-.2a2.16,2.16,0,0,1,1.21,1,1.19,1.19,0,0,1,.15,1.38,3,3,0,0,1-.76.89"></path>
      <path class="cls-8" d="M40.56,163.91a1.15,1.15,0,0,0,.38-1.11c-.2-.61-.69-.85-.86-.74l-.23.23.29.49Z"></path>
      <path class="cls-9" d="M39.82,164.25s.83-.21.84-.53,0-.67,0-.67l-.15-.09-.58.45-.12.43Z"></path>
      <path class="cls-10" d="M39.71,164.23l.33-.13.08-.41-.46-.6c-.06-.09,0-.16-.13.13s-.16.29-.12.55a.81.81,0,0,0,.3.46"></path>
      <path class="cls-11" d="M40.12,163.69l-.37-.36L39.6,163l.32-.76.37,0a.92.92,0,0,1,.37.58.5.5,0,0,1-.12.59Z"></path>
      <path class="cls-8" d="M38,168.59s1.64-2.64.13-4.73-3.65-2.39-4.18-1.77a8.24,8.24,0,0,0-.6,1.17c-.37.77,1.66,1.45,1.69,1.5Z"></path>
      <path class="cls-9" d="M35.56,170.74s2.94-1.8,2.56-3-.63-2.61-.63-2.61L36.8,165s-1.69,1.88-1.69,2.42.08,1.52.06,1.75Z"></path>
      <path class="cls-10" d="M35.13,170.78c.31,0,1.1,0,1.07-.87a12.45,12.45,0,0,0-.19-1.67s-2.09-1.41-2.44-1.71-.41-.56-.36.65-.25,1.29.21,2.25a3.15,3.15,0,0,0,1.71,1.35"></path>
      <path class="cls-11" d="M36,168.24a14.22,14.22,0,0,0-1.84-.93c-.85-.33-1.08-.36-1-1.15s-.23-2.61.29-3.28.45-.64,1.44-.35a3.69,3.69,0,0,1,2.12,1.78,2.07,2.07,0,0,1,.27,2.39A5.23,5.23,0,0,1,36,168.24"></path>
      <polygon class="cls-12" points="0 98.95 57.69 123.05 110.12 100.82 57.69 82.33 0 98.95"></polygon>
      <path class="cls-13" d="M80.08,39.14s-2.4-5.5,1.52-6.79a27.66,27.66,0,0,0,.25,3C82,36.12,83.29,38.49,80.08,39.14Z"></path>
      <path class="cls-13" d="M80.79,39.74a3.92,3.92,0,0,0,3.75,3.6,15.71,15.71,0,0,0-1.22-3.6C82.66,38.73,80.48,38.52,80.79,39.74Z"></path>
      <path class="cls-13" d="M81.6,38.73s5.14-7.18,7.34-.33a16,16,0,0,0-3.18.74C85,39.55,84.7,40.45,81.6,38.73Z"></path>
      <path class="cls-13" d="M58.94,11.78S59.59,9,55.43,9.5c0,0-1.06.65-3.18-.74C52.25,8.76,54.29,15.29,58.94,11.78Z"></path>
      <path class="cls-13" d="M59.27,10.8s2.93-3,4.73-2,2.2,1.55,3.1,1.39S62.2,16,59.27,10.8Z"></path>
      <path class="cls-13" d="M61.34,33.44a1.27,1.27,0,0,0-.27-1.1c-.38-.47-1.21-1-3-1.11-3.83-.32-3.51-1.14-3.51-1.14S55.47,38.25,61.34,33.44Z"></path>
      <path class="cls-13" d="M78.5,32.35s1.06-2.35-2.69-3.08-3.18-1.8-3.18-1.8S72.3,35.44,78.5,32.35Z"></path>
      <path class="cls-13" d="M79.67,29.27s1.63-2.61-1.55-3.88a9.22,9.22,0,0,1-1.55-1.18C76.24,23.8,74.28,29.18,79.67,29.27Z"></path>
      <path class="cls-13" d="M77.08,59.37s-2-7.07-7.88-3A5.59,5.59,0,0,0,77.08,59.37Z"></path>
      <path class="cls-13" d="M60.17,6.75c1-1.48-.73,3.88-1,5.56a7.46,7.46,0,0,0-.12,1.41,9.67,9.67,0,0,0,.51,2.8c.14.46.32.91.49,1.36s.37.89.58,1.33l.65,1.3.7,1.27a14,14,0,0,1,1.25,2.76,11,11,0,0,1,.5,3,15.62,15.62,0,0,1-1.21,5.92c-.72,1.86-1.6,3.62-2.38,5.4-.38.89-.75,1.78-1.05,2.68a15,15,0,0,0-.66,2.72,15.36,15.36,0,0,0,.48,5.57c.45,1.86,1.07,3.7,1.69,5.55s1.24,3.74,1.72,5.69a25.07,25.07,0,0,1,.79,6c0,.52,0,1-.07,1.55l-.09.77-.12.74c-.15,1-.37,2-.59,2.94-.45,1.93-1,3.81-1.36,5.69a35.31,35.31,0,0,0-.77,5.66,34.9,34.9,0,0,0,.2,5.69l.19,1.42L60.75,93l.45,2.9.45,2.91.23,1.45L62,101l0,.36,0,.19v.17c-1,.08,2.27-.18-2.26.35a1.16,1.16,0,0,1,.94-1.32,1.14,1.14,0,0,1,1.31.94c-4.52.54-1.24.25-2.26.32h0v0l0-.08,0-.18-.05-.37-.11-.72-.2-1.46-.4-2.9-.4-2.91-.2-1.46-.18-1.5a38,38,0,0,1-.12-6,37,37,0,0,1,.91-6c.44-1.95,1-3.84,1.46-5.71.23-.94.45-1.87.61-2.81l.13-.7.09-.69c0-.46.08-.92.08-1.39a22.86,22.86,0,0,0-.65-5.61c-.42-1.87-1-3.72-1.59-5.59s-1.2-3.75-1.64-5.7a17,17,0,0,1-.41-6.08A22.79,22.79,0,0,1,59,38.36c.82-1.8,1.72-3.53,2.44-5.31a15.17,15.17,0,0,0,1.28-5.49,10,10,0,0,0-.35-2.77,13.16,13.16,0,0,0-1.06-2.63l-.68-1.32L60,19.49c-.2-.45-.37-.92-.56-1.38s-.33-.94-.46-1.42a10.62,10.62,0,0,1-.44-3,8.2,8.2,0,0,1,.18-1.5C58.87,11.73,60.17,6.75,60.17,6.75Z"></path>
      <g id="_4" data-name="4">
        <path class="cls-13" d="M46.8,33.58a14.1,14.1,0,0,1,1.47,2.15,17.36,17.36,0,0,1,1.09,2.36c.15.41.27.83.4,1.24s.24.79.39,1.18a14.82,14.82,0,0,0,1.06,2.24,15.28,15.28,0,0,0,3.17,3.77,17.94,17.94,0,0,0,4.13,2.65h0a.73.73,0,1,1-.63,1.31l0,0A22.2,22.2,0,0,1,55.64,49a17.91,17.91,0,0,1-2-1.68,17.43,17.43,0,0,1-3.16-4.18,16.36,16.36,0,0,1-1-2.4c-.14-.41-.26-.83-.36-1.25s-.21-.81-.34-1.21a14.07,14.07,0,0,0-2.32-4.38v0a.26.26,0,0,1,.41-.33Z"></path>
      </g>
      <g id="_2" data-name="2">
        <path class="cls-13" d="M59.69,55.92A10.06,10.06,0,0,0,61,54.45a11.23,11.23,0,0,0,1-1.58c.36-.68.68-1.42,1.11-2.26a28.6,28.6,0,0,0,1.47-3l0,0c.09-.23.32-.45.56-.39s.42.25.33.52C65.08,48.68,64.38,50,64,51s-.73,1.69-1.08,2.43a14.51,14.51,0,0,1-1,1.76,9,9,0,0,1-1.36,1.67.61.61,0,0,1-.85,0,.6.6,0,0,1,0-.84h0Z"></path>
      </g>
      <path class="cls-13" d="M61.76,64.23A26.24,26.24,0,0,0,66,60.6a15,15,0,0,0,1.69-2.16,10.53,10.53,0,0,0,.66-1.17l.26-.61.25-.68c1.36-3.58,2.83-7.11,4.3-10.63s3.06-7,4.51-10.52c.72-1.77,1.44-3.54,2-5.32a6.3,6.3,0,0,0,.2-.67,6.75,6.75,0,0,0,.18-.68c.12-.48.26-.94.42-1.4A13.33,13.33,0,0,1,81,25.4a8.55,8.55,0,0,1,.75-1.3.31.31,0,0,1,.51.36v0a8.49,8.49,0,0,0-.66,1.19c-.19.42-.35.86-.5,1.3a13.55,13.55,0,0,0-.37,1.35c0,.23-.11.46-.17.7a7.36,7.36,0,0,1-.21.71c-.58,1.84-1.27,3.62-2,5.4-1.38,3.56-2.87,7.1-4.32,10.61S71.26,52.83,70,56.41l-.24.67-.28.71a12.26,12.26,0,0,1-.72,1.34A16,16,0,0,1,67,61.5a27.69,27.69,0,0,1-4.37,3.93.73.73,0,1,1-.86-1.17h0Z"></path>
      <path class="cls-13" d="M76.08,39.37a14.12,14.12,0,0,0,2.43,0,16.58,16.58,0,0,0,2.42-.43c.81-.2,1.57-.49,2.38-.76.4-.13.8-.25,1.22-.35a4.14,4.14,0,0,1,.63-.11,1.29,1.29,0,0,1,.34,0,.37.37,0,0,1,.2.08.21.21,0,0,1,.07.26h0L85.59,38l0,0-.1,0a1.36,1.36,0,0,0-.28,0,4.34,4.34,0,0,0-.6.14c-.39.12-.78.26-1.17.41-.76.31-1.54.66-2.35.91a17.32,17.32,0,0,1-2.49.58,13.6,13.6,0,0,1-2.57.16.38.38,0,1,1,0-.76h0Z"></path>
      <path class="cls-13" d="M59.09,89.17a5.32,5.32,0,0,0,.56-.19,5,5,0,0,0,.57-.28A6.94,6.94,0,0,0,61.3,88a8.57,8.57,0,0,0,1.79-1.91,14.05,14.05,0,0,0,2-5,28.21,28.21,0,0,1,1.69-5.44,11.35,11.35,0,0,1,3.68-4.42l0,0a4,4,0,0,1,.59-.37,6.27,6.27,0,0,1,.58-.29c.39-.17.79-.32,1.19-.46.8-.26,1.62-.48,2.44-.66.41-.09.82-.16,1.23-.24L77.7,69l1.24-.16,1.25-.12a.25.25,0,0,1,.27.22.25.25,0,0,1-.22.26h0L79,69.4l-1.23.18-1.21.22c-.4.09-.81.17-1.2.27a22.77,22.77,0,0,0-2.35.7c-.39.14-.76.3-1.12.47-.18.09-.36.17-.53.27a3.06,3.06,0,0,0-.46.3l0,0A10.46,10.46,0,0,0,67.57,76a27.64,27.64,0,0,0-1.49,5.3,21.84,21.84,0,0,1-.74,2.77,12,12,0,0,1-1.28,2.65,10.17,10.17,0,0,1-2,2.22,8.84,8.84,0,0,1-1.24.86,7.37,7.37,0,0,1-.69.34,1.94,1.94,0,0,1-.36.15,2.69,2.69,0,0,1-.4.13.65.65,0,1,1-.34-1.26h0Z"></path>
      <path class="cls-13" d="M50.43,43.38s-4.81-.9-4.4,5.39a4.23,4.23,0,0,0,2.69,3.67s-.76-1.72.6-2.37S52.39,46,50.43,43.38Z"></path>
      <path class="cls-13" d="M70.78,51s4.51-4.38,8.32,1C79.1,52,72.46,55.54,70.78,51Z"></path>
      <path class="cls-13" d="M64.77,49.34s5,2.09,2,7.42C66.81,56.76,60.77,53.65,64.77,49.34Z"></path>
      <path class="cls-13" d="M62.15,72.35s1.36-6.1,4.19-6.53C66.34,65.82,67.13,74.44,62.15,72.35Z"></path>
      <path class="cls-13" d="M59,88.42s.32-2.59-3-2.53a1.63,1.63,0,0,1-2.15-1.33S53.42,92,59,88.42Z"></path>
      <path class="cls-13" d="M80.38,68.67s-2.61,4.9,3.18,8.11C83.56,76.78,86,70.09,80.38,68.67Z"></path>
      <path class="cls-13" d="M79.91,77.57a8.87,8.87,0,0,1-1.57-4.84c-.16-2.45-1.8-2.86-2.72-2.89a2.86,2.86,0,0,0-.63,0S71.76,78.33,79.91,77.57Z"></path>
      <path class="cls-13" d="M70,72s4.71-.69,3.37,5.6c0,0-1.22-1.94-2.15-2.11S70.53,72.29,70,72Z"></path>
      <path class="cls-13" d="M66.72,76s-2.55,6.47,6,5.55a4.87,4.87,0,0,1-2.36-3.13A3.3,3.3,0,0,0,66.72,76Z"></path>
      <path class="cls-13" d="M64.52,85.48s3.35-1.28,3.32,3.29.84,4.19.84,4.19S62,92.88,64.52,85.48Z"></path>
      <path class="cls-13" d="M64.49,48.19a16.81,16.81,0,0,0-2.31-3.53,10.48,10.48,0,0,1-1.33-3.43s-1.18.25-.87,4.65S62.19,50.44,64.49,48.19Z"></path>
      <path class="cls-13" d="M73.39,46.07s.82-2.93,5.25-1.22c0,0-.1.8,2.12-.54C80.76,44.31,78.57,52.93,73.39,46.07Z"></path>
      <path class="cls-13" d="M80,30.31s5.86,3.25,7-3a30.77,30.77,0,0,1-4.24.24A3,3,0,0,0,80,30.31Z"></path>
      <path class="cls-13" d="M56,36.73s1.09,8.28-4.51,7.14c0,0-1.69-4.29,1.41-5.71S55.17,37.76,56,36.73Z"></path>
      <path class="cls-13" d="M48.73,37.77s-.4-2.29-4.24-1.23-2.85-.15-3.42-.28S43.76,44.54,48.73,37.77Z"></path>
      <path class="cls-13" d="M41,50.6s-2.28,7.71,5.32,7.14c0,0,1.54-4.55-1.64-5.69C42.23,51.18,41,50.6,41,50.6Z"></path>
      <path class="cls-13" d="M53,56s-7.4.81-4.84,6.63c0,0,3.31.71,3.83-2.17S52.09,56.46,53,56Z"></path>
      <path class="cls-13" d="M47.63,62.55a5.7,5.7,0,0,1-8.22-1.84s3.15-.52,4.29-1.75S48.46,60.16,47.63,62.55Z"></path>
      <path class="cls-13" d="M51,68.76s-2.3-3.71,4.07-6a23.73,23.73,0,0,0-.31,4.36C55,68.1,52.11,70.44,51,68.76Z"></path>
      <path class="cls-13" d="M49.31,68.21s-2,3-2.61,3.79-4,1.47-5.21,0a4.92,4.92,0,0,0,2.87-3.12A2.79,2.79,0,0,1,49.31,68.21Z"></path>
      <path class="cls-13" d="M54.32,72.67s-1.91-2.61,1.25-4.4,3-3.69,3-3.69S62.53,72.18,54.32,72.67Z"></path>
      <path class="cls-13" d="M53.54,72.73a3.07,3.07,0,0,0-3.22.59c-1.71,1.36-2.57.4-2.57.4S51.29,78.22,53.54,72.73Z"></path>
      <path class="cls-13" d="M56.73,74.75a4.73,4.73,0,0,0-2.92,2.85c-1.11,2.75-2.63,2.05-2.79,1.89A4,4,0,0,0,56.73,79,3,3,0,0,0,56.73,74.75Z"></path>
      <path class="cls-13" d="M45.4,56.34a1.12,1.12,0,0,1,0-.45s.08,0,.09,0l0,0a.36.36,0,0,1,.07.1l.11.19a8.75,8.75,0,0,1,.37.83c.23.55.43,1.11.63,1.67.41,1.13.76,2.27,1.12,3.4a27.67,27.67,0,0,0,1.24,3.3,16.42,16.42,0,0,0,1.77,3,17.31,17.31,0,0,0,2.39,2.53c.87.77,1.82,1.48,2.75,2.25a13.21,13.21,0,0,1,2.54,2.68A11.41,11.41,0,0,1,60,79.27a.49.49,0,1,1-.94.28v0a10.38,10.38,0,0,0-1.36-3.1,13.19,13.19,0,0,0-2.34-2.51c-.89-.76-1.84-1.49-2.74-2.31a17.1,17.1,0,0,1-2.45-2.71,20.69,20.69,0,0,1-2.92-6.61l-.92-3.45c-.15-.58-.31-1.15-.47-1.72-.08-.28-.17-.57-.27-.85,0-.06,0-.13-.08-.2s-.09-.14-.07-.13A1,1,0,0,0,45.4,56.34Z"></path>
      <path class="cls-13" d="M64.5,0s-8.14,3.05-4.57,7.66c0,0,3.83,1.72,4.57-2C65,3,64.21,3.11,64.5,0Z"></path>
      <path class="cls-13" d="M59.44,16S62.37,12,67,16.4C67,16.4,62.2,20.54,59.44,16Z"></path>
      <path class="cls-13" d="M59,16.69s-1.26-1.53-3.94,0-2.41.56-2.41.56.48,3.81,4.66,2.74A3.31,3.31,0,0,0,59,16.69Z"></path>
      <path class="cls-13" d="M62.72,22.88s1.47-5.2,7.53-3.21A4.14,4.14,0,0,0,69,22.4C69.07,23.79,65.43,25.56,62.72,22.88Z"></path>
      <path class="cls-13" d="M62.39,24.79s-1.47-1.91-5.06-1.1A3.73,3.73,0,0,1,54.57,23s.17,4.56,4.16,4.82S62.39,24.79,62.39,24.79Z"></path>
      <path class="cls-13" d="M39.38,28.35s.87,7.65,8.23,6.32C47.61,34.67,48.44,29.31,39.38,28.35Z"></path>
      <path class="cls-13" d="M52.94,33.06s-6.5.62-4.21,4.71c0,0,2.61.94,3.28-1.51S52.94,33.06,52.94,33.06Z"></path>
      <path class="cls-13" d="M69.2,38.54s-6.84,1.13-4.9,8.63c0,0-.62,2.62,2.65,1s2.36-6.29,2.25-7.38S69.31,39.12,69.2,38.54Z"></path>
      <path class="cls-13" d="M81.63,68.27S86,61,91.17,69.35a10.88,10.88,0,0,0-3.86,1.28C85.74,71.63,81.18,68.89,81.63,68.27Z"></path>
      <path class="cls-13" d="M80.46,60s-3.68,5-.08,8.64a3.75,3.75,0,0,0,1.85-3.33C82.2,63,80.15,60.79,80.46,60Z"></path>
      <path class="cls-13" d="M74.1,69.74s-6.25-2.9-1.51-8.26a22.33,22.33,0,0,0,2.35,4.09C76,66.77,75.41,69.35,74.1,69.74Z"></path>
      <path class="cls-13" d="M85.84,16.73c0-.2-6.17,1.44-5.18,5.44s1.38,2.41,3.15,2.19S86,19.61,85.84,16.73Z"></path>
      <path class="cls-14" d="M49.1,122.32s-2.36,2.57-4.5,2.47-5.25-.53-6.16,0"></path>
      <path class="cls-14" d="M49.42,126.73c-.1.31-.8,3.68-6.16,4.59s-13,1.4-15,6.33"></path>
      <path class="cls-14" d="M39.82,131.86A7.62,7.62,0,0,0,37,139.74"></path>
      <path class="cls-14" d="M56,131.86a8.81,8.81,0,0,1-3.54,5.79c-3.27,2.46-8.14,1.18-10.82,8.89"></path>
      <path class="cls-14" d="M50.35,138.76s2.16,2.21,0,5.53a7.54,7.54,0,0,0-.66,3.38"></path>
      <path class="cls-14" d="M59.87,132.5s-4,4.22-1,7.24c3.86,3.85-.53,10.23-.53,10.23"></path>
      <path class="cls-14" d="M59.75,140.92s5.21,1.55,4.19,8.73"></path>
      <path class="cls-14" d="M66.52,130.36s7.12,3.48,7.93,8,1.07,7.39,2,8.14"></path>
      <path class="cls-14" d="M70.48,132.9s7.24,2.68,8.74,5.86"></path>
      <path class="cls-14" d="M70.05,125.75s.75.64,5.68.43,8.31-1.29,11.52,2.49"></path>
      <path class="cls-14" d="M78.65,126s.78,4.11,4.26,4"></path>
      <path class="cls-15" d="M37.83,125c-.24-.23-.3-1.62,1-1.23S39,126.2,37.83,125Z"></path>
      <ellipse class="cls-15" cx="27.95" cy="138.23" rx="3.28" ry="1.9" transform="translate(-103.17 86.29) rotate(-56.96)"></ellipse>
      <path class="cls-15" d="M86.47,129.85s-.13-2.6,2-1.65,2.19,4.1,1.33,4.38S86.92,133.1,86.47,129.85Z"></path>
      <path class="cls-15" d="M42.13,147.37c.32-.47,1.31-2.18-.76-2.06a.85.85,0,0,0-.73,1.22v0c.4.73.47,1.62,1.26,1A.8.8,0,0,0,42.13,147.37Z"></path>
      <path class="cls-15" d="M76.92,145.33a1,1,0,0,0-1.37,1.14c.19.8.64,2,1.54.68C77.73,146.22,77.43,145.58,76.92,145.33Z"></path>
      <path class="cls-15" d="M59.29,150s.45-2-1.22-1.09S58.39,152.26,59.29,150Z"></path>
      <path class="cls-15" d="M56.55,121.89s-3.32-1.18-4.72-1.71-4.23.37-4.5,2.41,1,8,6,9.75,6.06.86,7.13.81,2.2-2,4-1.88,2,.27,2.84,0,3.86-.64,4.13-3.53-1.14-8.21-7.88-7.13C60.25,121.18,59.6,123.29,56.55,121.89Z"></path>
      <ellipse class="cls-16" cx="64.83" cy="125.75" rx="0.88" ry="0.43"></ellipse>
      <ellipse class="cls-16" cx="59.42" cy="128.67" rx="1.1" ry="0.46"></ellipse>
      <ellipse class="cls-16" cx="53.12" cy="126.02" rx="1.13" ry="0.7"></ellipse>
      <path class="cls-8" d="M60.94,107.29a1.27,1.27,0,0,0-1.2-.44c-.66.21-.93.73-.81.92a1.79,1.79,0,0,0,.24.26c.17.16.52-.3.54-.31Z"></path>
      <path class="cls-17" d="M61.28,108.1s-.2-.91-.55-.92-.72-.06-.72-.06l-.1.16s.34.59.48.64.39.11.45.14S61.28,108.1,61.28,108.1Z"></path>
      <path class="cls-10" d="M61.26,108.21c0-.08.08-.29-.13-.35a3,3,0,0,0-.45-.1s-.54.42-.65.48-.17.06.14.15.31.18.6.14A.88.88,0,0,0,61.26,108.21Z"></path>
      <path class="cls-11" d="M60.68,107.76a3.7,3.7,0,0,0-.39.4c-.16.18-.19.24-.38.14s-.69-.16-.82-.35-.12-.17,0-.4a1,1,0,0,1,.64-.39.55.55,0,0,1,.63.14A1.32,1.32,0,0,1,60.68,107.76Z"></path>
      <path class="cls-8" d="M43.93,101.11a1.84,1.84,0,0,0-1.86-.26c-.89.5-1.1,1.33-.88,1.57a4.45,4.45,0,0,0,.43.29c.29.18.65-.59.67-.6Z"></path>
      <path class="cls-17" d="M44.67,102.16s-.57-1.24-1.07-1.15-1.06.13-1.06.13l-.09.27s.67.75.88.77.6,0,.69.06A4.6,4.6,0,0,0,44.67,102.16Z"></path>
      <path class="cls-10" d="M44.67,102.33c0-.12,0-.44-.3-.46a4.17,4.17,0,0,0-.66,0s-.65.75-.79.88-.24.14.24.17.5.16.9,0A1.24,1.24,0,0,0,44.67,102.33Z"></path>
      <path class="cls-11" d="M43.71,101.87a5.67,5.67,0,0,0-.45.68c-.17.32-.2.41-.5.33s-1,0-1.28-.26-.23-.21-.07-.58a1.47,1.47,0,0,1,.79-.76.84.84,0,0,1,1,0A2.07,2.07,0,0,1,43.71,101.87Z"></path>
      <path class="cls-8" d="M55.94,98.66s-3.83-1.91-6.5.42-2.81,5.33-1.89,6a14,14,0,0,0,1.67.67c1.11.4,1.79-2.47,1.86-2.52S55.94,98.66,55.94,98.66Z"></path>
      <path class="cls-17" d="M59.21,101.68s-2.84-3.81-4.46-3.14-3.51,1.21-3.51,1.21l-.1,1s2.79,2.08,3.53,2,2.07-.31,2.4-.31A17.8,17.8,0,0,0,59.21,101.68Z"></path>
      <path class="cls-10" d="M59.32,102.26c0-.43-.19-1.51-1.34-1.36a16.68,16.68,0,0,0-2.25.48s-1.68,3-2,3.56-.71.64,1,.42,1.8.18,3.06-.58A4.29,4.29,0,0,0,59.32,102.26Z"></path>
      <path class="cls-11" d="M55.73,101.38a19.67,19.67,0,0,0-1,2.64c-.34,1.21-.36,1.54-1.45,1.48s-3.56.65-4.54,0-.94-.53-.67-1.93.92-2.06,2.18-3.14a2.83,2.83,0,0,1,3.24-.68A7.19,7.19,0,0,1,55.73,101.38Z"></path>
      <path class="cls-8" d="M70.67,99.88s-2.2-3-5.2-2.26-4.29,3-3.84,3.87a12.35,12.35,0,0,0,1,1.19c.7.76,2.37-1.2,2.44-1.21S70.67,99.88,70.67,99.88Z"></path>
      <path class="cls-17" d="M72,103.52s-.68-4.08-2.2-4.2-3.2-.46-3.2-.46l-.46.7s1.33,2.72,1.93,3,1.72.59,2,.72A15.4,15.4,0,0,0,72,103.52Z"></path>
      <path class="cls-10" d="M71.86,104c.14-.34.45-1.25-.5-1.58a14.58,14.58,0,0,0-1.93-.53s-2.51,1.69-3,1.95-.81.2.56.7,1.33.85,2.6.76A3.77,3.77,0,0,0,71.86,104Z"></path>
      <path class="cls-11" d="M69.43,101.9a16,16,0,0,0-1.86,1.63c-.75.8-.9,1-1.72.57s-3-.91-3.52-1.79-.52-.78.25-1.76A4.46,4.46,0,0,1,65.51,99a2.49,2.49,0,0,1,2.78.76A6.36,6.36,0,0,1,69.43,101.9Z"></path>
      <path class="cls-8" d="M60.42,101.44s-3.17-2.45-6-.79-3.54,4.38-2.81,5.14a11.29,11.29,0,0,0,1.41.91c.94.58,2.09-1.94,2.16-2S60.42,101.44,60.42,101.44Z"></path>
      <path class="cls-17" d="M62.87,104.8s-1.92-4-3.52-3.68-3.44.47-3.44.47l-.27.86s2.19,2.41,2.88,2.49,1.95.09,2.25.15A16.38,16.38,0,0,0,62.87,104.8Z"></path>
      <path class="cls-10" d="M62.87,105.35c0-.4.09-1.42-1-1.49a15.65,15.65,0,0,0-2.15,0s-2.08,2.49-2.52,2.9-.77.45.79.56,1.62.48,2.91,0A4,4,0,0,0,62.87,105.35Z"></path>
      <path class="cls-11" d="M59.73,103.89a18.56,18.56,0,0,0-1.44,2.24c-.53,1-.61,1.34-1.6,1.09s-3.38,0-4.17-.8-.76-.65-.26-1.89a4.82,4.82,0,0,1,2.56-2.48,2.66,2.66,0,0,1,3.1,0A6.87,6.87,0,0,1,59.73,103.89Z"></path>
      <path class="cls-8" d="M76.9,107a1.92,1.92,0,0,0,1.76-.87c.47-1,.16-1.8-.17-1.88a3.37,3.37,0,0,0-.54,0c-.35,0-.21.89-.23.91Z"></path>
      <path class="cls-17" d="M75.64,106.53s1.23.73,1.6.35.84-.74.84-.74l-.08-.28a4,4,0,0,0-1.22-.15c-.19.11-.54.33-.63.36A5.09,5.09,0,0,0,75.64,106.53Z"></path>
      <path class="cls-10" d="M75.55,106.38c.06.11.22.4.52.22a4.38,4.38,0,0,0,.58-.39s.11-1,.15-1.23.13-.26-.31,0-.52.16-.78.51A1.31,1.31,0,0,0,75.55,106.38Z"></path>
      <path class="cls-11" d="M76.65,106.21a7.05,7.05,0,0,0,0-.86c0-.37-.08-.46.23-.57s.92-.6,1.26-.54.32,0,.41.46a1.6,1.6,0,0,1-.24,1.13.86.86,0,0,1-.82.56A2.22,2.22,0,0,1,76.65,106.21Z"></path>
      <path class="cls-8" d="M34.69,109.19a1.92,1.92,0,0,0,1.76-.87c.47-.95.16-1.8-.17-1.87a3.21,3.21,0,0,0-.54,0c-.35,0-.21.89-.23.91Z"></path>
      <path class="cls-17" d="M33.43,108.73s1.23.73,1.6.36a10.73,10.73,0,0,1,.84-.74l-.08-.29a4,4,0,0,0-1.22-.15c-.19.11-.54.33-.63.37A4.13,4.13,0,0,0,33.43,108.73Z"></path>
      <path class="cls-10" d="M33.34,108.58c.06.11.22.4.53.22a4.71,4.71,0,0,0,.57-.39s.11-1,.15-1.22.13-.26-.31,0-.52.16-.78.51A1.31,1.31,0,0,0,33.34,108.58Z"></path>
      <path class="cls-11" d="M34.44,108.41a6.89,6.89,0,0,0,0-.85c0-.38-.08-.47.23-.58s.92-.59,1.26-.53.32,0,.41.45a1.6,1.6,0,0,1-.24,1.13.86.86,0,0,1-.82.56A2.28,2.28,0,0,1,34.44,108.41Z"></path>
      <path class="cls-8" d="M46.75,107.67a2.46,2.46,0,0,0,2.31-1c.69-1.18.37-2.28-.05-2.41a4.52,4.52,0,0,0-.69,0c-.45,0-.35,1.11-.36,1.14S46.75,107.67,46.75,107.67Z"></path>
      <path class="cls-17" d="M45.19,107s1.5,1,2,.6,1.13-.87,1.13-.87l-.08-.37a4.83,4.83,0,0,0-1.53-.29c-.26.11-.71.36-.83.4A6,6,0,0,0,45.19,107Z"></path>
      <path class="cls-10" d="M45.08,106.78a.47.47,0,0,0,.65.33,6.28,6.28,0,0,0,.76-.46s.24-1.31.31-1.54.18-.32-.4,0-.67.16-1,.59A1.68,1.68,0,0,0,45.08,106.78Z"></path>
      <path class="cls-11" d="M46.49,106.65a7.46,7.46,0,0,0,.06-1.08c0-.48-.06-.61.35-.72s1.21-.67,1.64-.57.41.08.48.62a2,2,0,0,1-.4,1.41,1.11,1.11,0,0,1-1.1.65A2.94,2.94,0,0,1,46.49,106.65Z"></path>
      <path class="cls-8" d="M55.55,106a1.57,1.57,0,0,1,1.43-.22c.7.32.88.89.72,1.05a2.12,2.12,0,0,1-.33.21c-.22.13-.52-.39-.53-.39Z"></path>
      <path class="cls-17" d="M55,106.69s.41-.86.8-.81a7.22,7.22,0,0,0,.82.07l.07.18s-.49.53-.66.55l-.53,0C55.43,106.74,55,106.69,55,106.69Z"></path>
      <path class="cls-10" d="M55,106.8a.25.25,0,0,1,.22-.32,5.17,5.17,0,0,1,.52,0l.62.59c.11.08.19.08-.18.12s-.38.12-.69,0A1,1,0,0,1,55,106.8Z"></path>
      <path class="cls-11" d="M55.74,106.47a4,4,0,0,1,.36.46c.14.21.16.27.39.21s.81,0,1-.2.17-.15,0-.4-.31-.35-.64-.5a.7.7,0,0,0-.73,0A1.45,1.45,0,0,0,55.74,106.47Z"></path>
      <path class="cls-8" d="M68.47,102.33s-3-2.2-5.61-.62-3.18,4.12-2.5,4.81a10.74,10.74,0,0,0,1.33.82c.88.51,1.89-1.83,2-1.86S68.47,102.33,68.47,102.33Z"></path>
      <path class="cls-17" d="M70.8,105.39s-1.85-3.67-3.33-3.34-3.17.5-3.17.5l-.24.81s2.08,2.18,2.72,2.24,1.8.05,2.08.1A15.23,15.23,0,0,0,70.8,105.39Z"></path>
      <path class="cls-10" d="M70.81,105.9c0-.37.06-1.32-.94-1.36a13.36,13.36,0,0,0-2,.07S66,107,65.6,107.34s-.7.44.75.5,1.5.42,2.69,0A3.72,3.72,0,0,0,70.81,105.9Z"></path>
      <path class="cls-11" d="M67.88,104.61a17.37,17.37,0,0,0-1.29,2.1c-.47,1-.54,1.25-1.46,1s-3.13,0-3.87-.66-.72-.59-.28-1.74A4.42,4.42,0,0,1,63.3,103a2.48,2.48,0,0,1,2.87-.1A6.49,6.49,0,0,1,67.88,104.61Z"></path>
      <path class="cls-8" d="M52.59,105.77s-2.44-.45-3.55,1.28-.69,3.42-.08,3.63a10.21,10.21,0,0,0,1,.1c.68,0,.59-1.66.62-1.7S52.59,105.77,52.59,105.77Z"></path>
      <path class="cls-17" d="M54.89,106.92s-2.19-1.66-3-1a19.85,19.85,0,0,1-1.76,1.24l.1.55a7.38,7.38,0,0,0,2.29.55c.4-.15,1.1-.5,1.28-.56A9,9,0,0,0,54.89,106.92Z"></path>
      <path class="cls-10" d="M55.05,107.22c-.09-.23-.36-.81-1-.54a9.84,9.84,0,0,0-1.17.63s-.44,2-.56,2.31-.3.47.59.08,1-.19,1.61-.82A2.52,2.52,0,0,0,55.05,107.22Z"></path>
      <path class="cls-11" d="M52.91,107.31a11.39,11.39,0,0,0-.16,1.64c0,.72,0,.91-.57,1.06s-1.87.93-2.51.74-.61-.14-.68-1a2.91,2.91,0,0,1,.7-2.1,1.65,1.65,0,0,1,1.69-.9A4.28,4.28,0,0,1,52.91,107.31Z"></path>
    </g>
  </g>
</svg>
