<?xml version="1.0" encoding="UTF-8"?>
<svg xmlns="http://www.w3.org/2000/svg" xmlns:xlink="http://www.w3.org/1999/xlink" viewBox="0 0 185.27 210.36">
  <defs>
    <style>.cls-1{fill:none;}.cls-2{fill:#956d4b;}.cls-3{clip-path:url(#clip-path);}.cls-4{fill:url(#Безымянный_градиент_4);}.cls-5{fill:#754120;}.cls-6{fill:#44281c;}.cls-7{fill:#6c3c1d;}.cls-8{fill:#714d31;}.cls-9{fill:#613822;}.cls-10{fill:#7f5637;}.cls-11{fill:#a07850;}.cls-12{fill:#dec97e;}.cls-13{fill:#ceb874;}.cls-14{fill:#8b5b3c;}.cls-15{fill:#75ad40;}.cls-16{fill:#5a973e;}.cls-17{fill:#abc552;}.cls-18{fill:#568f3b;}.cls-19{fill:#613922;}</style>
    <clipPath id="clip-path">
      <polygon class="cls-1" points="42.78 176.52 92.75 200.04 138.97 176.63 90.91 156.27 42.78 176.52"></polygon>
    </clipPath>
    <linearGradient id="Безымянный_градиент_4" x1="-4424.28" y1="-304.42" x2="-4421.48" y2="-304.42" gradientTransform="matrix(34.36, 0, 0, -34.36, 152033.02, -10280.62)" gradientUnits="userSpaceOnUse">
      <stop offset="0" stop-color="#a17551"></stop>
      <stop offset="0.38" stop-color="#a17551"></stop>
      <stop offset="0.89" stop-color="#7a4928"></stop>
      <stop offset="1" stop-color="#72401f"></stop>
    </linearGradient>
  </defs>
  <g id="Слой_2" data-name="Слой 2">
    <g id="Слой_1-2" data-name="Слой 1">
      <path class="cls-2" d="M92.75,133.88s9.62,11.3,17,11.77,32.81-7.57,32.81-7.57l2.56-26.43L92.75,93.16Z"></path>
      <path class="cls-2" d="M35.05,109.78l5.23,34.47s18.58,2.79,21.83,1.86,18.12-6.5,22.3-6.5,8.33-5.73,8.33-5.73V93.16Z"></path>
      <g class="cls-3">
        <rect class="cls-4" x="66.44" y="128.95" width="48.87" height="98.4" transform="translate(-91.9 259.33) rotate(-86.92)"></rect>
      </g>
      <path class="cls-5" d="M42.78,176.52l-2.5-32.27s23.69-.46,30.2-3.71,22.27-6.66,22.27-6.66l-1.84,22.39Z"></path>
      <path class="cls-6" d="M76.55,146.26a8.49,8.49,0,0,0-2.84-1.67v0s-3.78-1.13-5.85,1.41-1.7,5.29-.77,5.73a10.92,10.92,0,0,0,1.63.35l.1-.05a28.09,28.09,0,0,0,3.5-.79,1.83,1.83,0,0,0,.61-.16c.17,0,.35-.09.65-.19,1.48-.46,1.66-.12,2.69-1a4,4,0,0,0,1.08-2.54l-.2-.5h0l0,0a1,1,0,0,0-.58-.5"></path>
      <path class="cls-6" d="M56.26,149.58a11,11,0,0,0-4,1.33v0s-4.3,2.7-3.58,6.84,3.65,6.14,4.87,5.61A14.64,14.64,0,0,0,55.24,162l0-.13c.92-1,1.6-3.16,2.21-4a2.27,2.27,0,0,0,.36-.72c.1-.2.21-.42.37-.79.81-1.82,1.28-1.71,1.29-3.46a5.08,5.08,0,0,0-1.54-3.2,3.4,3.4,0,0,0-.65-.23v0h-.07a1.3,1.3,0,0,0-1,.13"></path>
      <path class="cls-7" d="M92.75,133.88l-1.84,22.39L139,176.64l3.64-38.56s-15-1.73-21.48-.8S103.3,141,99.89,139.14a44.62,44.62,0,0,1-7.14-5.26"></path>
      <path class="cls-6" d="M74.44,156.88a3.28,3.28,0,0,0-1.25-.3h0a2.32,2.32,0,0,0-2,1.18c-.49,1.19,0,2.18.36,2.24l.65-.05,0,0a12.56,12.56,0,0,0,1.23-.69l.2-.13.23-.14c.5-.34.61-.24.89-.69a1.5,1.5,0,0,0,.12-1.07l-.13-.17h0Z"></path>
      <path class="cls-6" d="M121.53,147.25a2.48,2.48,0,0,0-.11-.89h0s-.38-1-1.27-1-1.43.5-1.37.77l.2.41,0,0,.75.63.14.1.15.11c.34.24.3.34.66.41a1.06,1.06,0,0,0,.73-.18l.08-.13h0v0Z"></path>
      <path class="cls-6" d="M135,163.43a11.07,11.07,0,0,0-1.91-3.82h0s-3.31-3.9-7.35-2.59-5.6,4.54-4.89,5.68a13.68,13.68,0,0,0,1.53,1.52l.13,0c1.19.77,3.39,1.13,4.37,1.62a2.24,2.24,0,0,0,.77.25c.22.07.45.15.84.26,1.94.54,1.9,1,3.64.79a5.23,5.23,0,0,0,3-2,3.35,3.35,0,0,0,.12-.69h0v-.07a1.31,1.31,0,0,0-.28-1"></path>
      <path class="cls-6" d="M108.83,150.15a8.25,8.25,0,0,0-1.86,2.68h0s-1.4,3.66,1,5.89,5.11,2.09,5.62,1.19a11,11,0,0,0,.46-1.59l0-.09a27.32,27.32,0,0,0-.52-3.53,1.81,1.81,0,0,0-.11-.62c0-.16-.07-.35-.14-.65-.34-1.5,0-1.66-.81-2.74a4,4,0,0,0-2.44-1.27l-.51.17h0l0,0a1,1,0,0,0-.54.54"></path>
      <path class="cls-8" d="M109,177.52a1.58,1.58,0,0,0,1.57-.41c.54-.7.43-1.44.17-1.55l-.43-.08c-.3,0-.32.69-.34.7Z"></path>
      <path class="cls-9" d="M108.07,177s.88.78,1.24.54.8-.46.8-.46l0-.24-1-.32-.57.19Z"></path>
      <path class="cls-10" d="M108,176.81c0,.1.12.36.39.27s.53-.23.53-.23l.32-1c.07-.14.15-.19-.25,0s-.45,0-.71.29a1,1,0,0,0-.28.69"></path>
      <path class="cls-11" d="M108.94,176.85a5.25,5.25,0,0,0,.13-.69c0-.31,0-.4.28-.43s.84-.34,1.1-.23.26.09.26.44a1.23,1.23,0,0,1-.38.87.7.7,0,0,1-.76.32,1.79,1.79,0,0,1-.63-.28"></path>
      <path class="cls-8" d="M98.33,171.4s2.39.12,3.25-1.67.25-3.36-.37-3.49a7.46,7.46,0,0,0-1,0c-.65,0-.37,1.67-.39,1.7Z"></path>
      <path class="cls-9" d="M96,170.57s2.3,1.32,3,.62,1.53-1.4,1.53-1.4l-.16-.52a7.5,7.5,0,0,0-2.26-.25c-.37.2-1,.62-1.16.7Z"></path>
      <path class="cls-10" d="M95.79,170.3c.12.21.44.73,1,.4a8.38,8.38,0,0,0,1-.75s.19-1.93.26-2.28.23-.49-.58,0-1,.31-1.44,1a2.48,2.48,0,0,0-.28,1.66"></path>
      <path class="cls-11" d="M97.83,170a9.65,9.65,0,0,0,0-1.59c-.09-.69-.15-.87.42-1.08s1.68-1.13,2.33-1,.6.07.77.85a2.86,2.86,0,0,1-.42,2.09,1.58,1.58,0,0,1-1.51,1.07,4,4,0,0,1-1.54-.31"></path>
      <path class="cls-8" d="M88.37,179.17s1.87,1.41,3.54.43,2-2.58,1.62-3a6.4,6.4,0,0,0-.83-.53c-.56-.33-1.22,1.14-1.25,1.16Z"></path>
      <path class="cls-9" d="M86.92,177.21s1.14,2.33,2.08,2.14a18.88,18.88,0,0,1,2-.29l.15-.51s-1.29-1.4-1.69-1.44-1.15-.05-1.32-.08Z"></path>
      <path class="cls-10" d="M86.92,176.89c0,.23,0,.83.58.87a10.13,10.13,0,0,0,1.26,0L90.22,176c.25-.24.45-.27-.47-.32s-.94-.28-1.7,0a2.36,2.36,0,0,0-1.13,1.19"></path>
      <path class="cls-11" d="M88.76,177.73a10.26,10.26,0,0,0,.83-1.32c.31-.61.35-.79.93-.65s2,0,2.44.45.45.38.17,1.1a2.78,2.78,0,0,1-1.49,1.47,1.54,1.54,0,0,1-1.81,0,4.06,4.06,0,0,1-1.07-1.09"></path>
      <path class="cls-8" d="M84.08,172.73a2.66,2.66,0,0,0,.09-2.73c-.86-1.21-2.1-1.39-2.41-1l-.35.67c-.21.44,1,.84,1,.87Z"></path>
      <path class="cls-9" d="M82.68,174s1.71-1,1.5-1.73-.36-1.51-.36-1.51l-.4-.09s-1,1.08-1,1.39,0,.87,0,1Z"></path>
      <path class="cls-10" d="M82.44,174c.18,0,.64,0,.62-.5a6.52,6.52,0,0,0-.1-1l-1.4-1c-.21-.18-.24-.33-.22.37s-.15.75.12,1.3a1.79,1.79,0,0,0,1,.79"></path>
      <path class="cls-11" d="M83,172.53a8.3,8.3,0,0,0-1-.55c-.49-.19-.63-.21-.56-.67s-.12-1.51.18-1.89.26-.37.83-.2a2.17,2.17,0,0,1,1.22,1,1.2,1.2,0,0,1,.15,1.38,3.12,3.12,0,0,1-.77.89"></path>
      <path class="cls-8" d="M75.61,174.74a1.17,1.17,0,0,0,.39-1.12c-.21-.61-.69-.84-.87-.73l-.23.23.29.49Z"></path>
      <path class="cls-9" d="M74.87,175.08s.84-.21.84-.53a5.52,5.52,0,0,1,.05-.67l-.15-.09-.59.45-.12.43Z"></path>
      <path class="cls-10" d="M74.77,175.05l.32-.13.08-.4-.45-.6c-.06-.1-.06-.16-.14.13s-.15.29-.11.55a.72.72,0,0,0,.3.45"></path>
      <path class="cls-11" d="M75.17,174.51l-.37-.36-.15-.35L75,173l.37,0a.89.89,0,0,1,.37.58.5.5,0,0,1-.11.59Z"></path>
      <path class="cls-8" d="M73,179.41s1.64-2.63.14-4.72-3.66-2.39-4.19-1.77a8.35,8.35,0,0,0-.59,1.17c-.37.76,1.66,1.45,1.68,1.5Z"></path>
      <path class="cls-9" d="M70.61,181.57s2.94-1.8,2.57-3a26.06,26.06,0,0,1-.64-2.61l-.69-.15s-1.69,1.88-1.69,2.42.08,1.51.06,1.75Z"></path>
      <path class="cls-10" d="M70.19,181.61c.3,0,1.1,0,1.07-.87a11.59,11.59,0,0,0-.2-1.67s-2.08-1.41-2.43-1.72-.41-.56-.37.66-.24,1.29.22,2.25a3.12,3.12,0,0,0,1.71,1.35"></path>
      <path class="cls-11" d="M71.06,179.07a14.53,14.53,0,0,0-1.83-.93c-.85-.33-1.09-.37-1-1.15s-.23-2.62.28-3.28.45-.64,1.44-.35a3.69,3.69,0,0,1,2.12,1.78,2.09,2.09,0,0,1,.28,2.39,5.2,5.2,0,0,1-1.32,1.54"></path>
      <path class="cls-12" d="M69.75,126.39a24.54,24.54,0,0,0,2,8.61c3.74,7.68,6.3,12.79,7.28,16.53s3.93,8.07,5.11,14.36,9.45,28.92,8.86,44.47c0,0,3.74-22.83,3.93-29.91s2-10,4.33-17.12S108,152.51,109,146.61c.72-4.3,6.13-12.36,6.81-20.22Z"></path>
      <path class="cls-13" d="M109.78,126.39q-1.19,4.76-2.69,9.43a14,14,0,0,1-4.79,7,15.34,15.34,0,0,0-5.86,9.27c-.63,3.25-1.35,7.11-1.91,10.42a32.51,32.51,0,0,0-.33,7.57c.22,3.29.08,6.55,0,10a14.25,14.25,0,0,1-3.2,8.81l-.39,1.51c1.52,6.81,2.63,13.93,2.4,20,0,0,3.74-22.83,3.93-29.91s2-10,4.33-17.12S108,152.51,109,146.61c.72-4.3,6.13-12.36,6.81-20.22Z"></path>
      <path class="cls-13" d="M98.48,126.39c-.31,1.55-.69,3.08-1.1,4.59-.57,2.14-1.24,4.41-.62,6.54,1.07-2.63,2.14-5.25,3.2-7.88a22.75,22.75,0,0,0,1.13-3.25Z"></path>
      <path class="cls-13" d="M86.26,138.6c.48-2.36,1.54-4.65,1.35-7a34.53,34.53,0,0,1,.54,7.72c-.11,1.29-.36,2.57-.39,3.87-.08,2.88.9,5.67,1.38,8.51a10.62,10.62,0,0,1-.43,6.14c-1.61-1.32-1.58-6.87-1.91-9C86.27,145.42,85.57,142,86.26,138.6Z"></path>
      <path class="cls-13" d="M109.86,141.68a14.53,14.53,0,0,1,2.46.89,5.44,5.44,0,0,1,2.09,1.69,14.4,14.4,0,0,1,1.8,4.86,34.78,34.78,0,0,0,1.42,4.86,10,10,0,0,0,2.9,4.09,10,10,0,0,1-3.11-4,33.5,33.5,0,0,1-1.64-4.83,13.91,13.91,0,0,0-1.91-4.57c-1-1.26-2.63-1.72-4.25-2.12Z"></path>
      <path class="cls-13" d="M114.52,144.87a5.76,5.76,0,0,1,2.1,1.12,6.84,6.84,0,0,1,1.49,1.82,3.23,3.23,0,0,0,1.76,1.35,9.69,9.69,0,0,0,2.27.43,10,10,0,0,1-2.3-.33,3.44,3.44,0,0,1-1.91-1.33,6.63,6.63,0,0,0-1.51-1.69,5.49,5.49,0,0,0-2-1Z"></path>
      <path class="cls-13" d="M105.14,154.05a7.41,7.41,0,0,1,3,4.52,18.15,18.15,0,0,1,.35,5.39,29.42,29.42,0,0,0,0,5.31,8.42,8.42,0,0,0,2.1,4.8,8.45,8.45,0,0,1-2.28-4.77,29.94,29.94,0,0,1-.2-5.35,17.49,17.49,0,0,0-.51-5.23,6.82,6.82,0,0,0-2.89-4.06Z"></path>
      <path class="cls-13" d="M107.92,157.74a16.12,16.12,0,0,1-1,4.51,17.1,17.1,0,0,1-1,2.07,2.84,2.84,0,0,0-.33,2.18,2.88,2.88,0,0,1,.2-2.24,18.91,18.91,0,0,0,.84-2.11,16,16,0,0,0,.71-4.43Z"></path>
      <path class="cls-13" d="M100.64,164.56a13.86,13.86,0,0,1,1.57,4.2,17.3,17.3,0,0,1,.2,4.42c-.07,1.46-.2,2.9-.17,4.35a9.53,9.53,0,0,0,1,4.19,9.53,9.53,0,0,1-1.2-4.18c-.12-1.46-.07-2.92-.07-4.37a17.22,17.22,0,0,0-.43-4.26,12.49,12.49,0,0,0-1.68-3.85Z"></path>
      <path class="cls-13" d="M102.2,169.54a6.15,6.15,0,0,1,1.87,1.58,7.24,7.24,0,0,1,1.18,2c.26.74.39,1.5.71,2.2a2.43,2.43,0,0,0,1.64,1.48,2.63,2.63,0,0,1-1.73-1.43c-.38-.69-.56-1.46-.87-2.15a6,6,0,0,0-1.3-1.82,4.57,4.57,0,0,0-1.8-1.19Z"></path>
      <path class="cls-13" d="M97.31,174.39a8.44,8.44,0,0,1,2.2,3.86,18.16,18.16,0,0,1,.62,4.31,38,38,0,0,0,.24,4.28,8.92,8.92,0,0,0,1.45,4,9,9,0,0,1-1.66-3.95,38.83,38.83,0,0,1-.45-4.28,17.52,17.52,0,0,0-.8-4.15A7.73,7.73,0,0,0,96.76,175Z"></path>
      <path class="cls-13" d="M99.88,180.43a19.11,19.11,0,0,0-1.25,3.39,7.67,7.67,0,0,0-.22,3.59,7.72,7.72,0,0,1,0-3.64,19.17,19.17,0,0,1,1-3.54Z"></path>
      <path class="cls-13" d="M99.08,177.28a16.93,16.93,0,0,1,1.92,2.54,5.38,5.38,0,0,1,1,3,5.32,5.32,0,0,0-1.18-2.84,18.23,18.23,0,0,0-2.09-2.3Z"></path>
      <path class="cls-13" d="M95.62,190.22c.44.55.9,1.09,1.37,1.61s.93,1,1.34,1.63a5.84,5.84,0,0,1,1.12,3.95,5,5,0,0,0-1.39-3.74,13.63,13.63,0,0,0-3.2-2.58Z"></path>
      <path class="cls-13" d="M95.34,192.08a11.15,11.15,0,0,1,1.49,3.68,14.58,14.58,0,0,1,.35,3.89,19.39,19.39,0,0,0,0,3.81,6.29,6.29,0,0,0,1.45,3.47A6.5,6.5,0,0,1,97,203.49a20.63,20.63,0,0,1-.22-3.84,13.76,13.76,0,0,0-.59-3.72,10.61,10.61,0,0,0-1.61-3.33Z"></path>
      <path class="cls-13" d="M92.63,193.11a7.87,7.87,0,0,0-1.71,4.53,24.06,24.06,0,0,0,.29,5.07,27.82,27.82,0,0,1-.67-5.09,9.37,9.37,0,0,1,1.31-5.08Z"></path>
      <path class="cls-12" d="M90.36,185.7A4.4,4.4,0,0,0,89,188.6a26.87,26.87,0,0,0-.1,3.49,9.49,9.49,0,0,1-.45,3.57,5.77,5.77,0,0,1-2.56,2.45,6.09,6.09,0,0,0,2.27-2.57,9.61,9.61,0,0,0,.19-3.44,26.71,26.71,0,0,1,0-3.58,4.77,4.77,0,0,1,1.53-3.38Z"></path>
      <path class="cls-12" d="M89.06,187.28a1.88,1.88,0,0,1-.51,1.52,5.79,5.79,0,0,1-1.15,1c-.43.28-.87.51-1.26.79a2.68,2.68,0,0,0-1,1.07,2.33,2.33,0,0,1,.8-1.27,13.78,13.78,0,0,1,1.19-.9,5.77,5.77,0,0,0,1.06-1,1.65,1.65,0,0,0,.5-1.19Z"></path>
      <path class="cls-12" d="M88,175.52A14.15,14.15,0,0,0,86.2,179a6.78,6.78,0,0,0-.34,1.9,6.78,6.78,0,0,1-.21,2,13.79,13.79,0,0,1-2.1,3.38c-.8,1.05-1.64,2.07-2.52,3.05.85-1,1.67-2,2.43-3.12a13.25,13.25,0,0,0,2-3.37,6.57,6.57,0,0,0,.14-1.94,7.51,7.51,0,0,1,.31-2,22.6,22.6,0,0,1,1.64-3.65Z"></path>
      <path class="cls-12" d="M85.84,181.74a8.32,8.32,0,0,1,.29,2.93,11.26,11.26,0,0,1-.53,2.88,11.71,11.71,0,0,0,.41-2.88,8.27,8.27,0,0,0-.4-2.85Z"></path>
      <path class="cls-12" d="M86.63,177.76c-.56.37-1.16.6-1.71.94A4,4,0,0,0,83.55,180a4.08,4.08,0,0,1,1.28-1.46c.53-.4,1.11-.69,1.6-1.08Z"></path>
      <path class="cls-12" d="M84.71,165.44a5.49,5.49,0,0,0-2.82,1.95,7.32,7.32,0,0,0-.62,3.46,9,9,0,0,1-.75,3.61,8.6,8.6,0,0,1-2.12,3,8.62,8.62,0,0,0,2-3,8.92,8.92,0,0,0,.57-3.55,7.56,7.56,0,0,1,.52-3.7,6,6,0,0,1,3-2.31Z"></path>
      <path class="cls-12" d="M83.63,165.89c0,1,.11,2,.07,3a9.65,9.65,0,0,1-.63,2.93,9.45,9.45,0,0,0,.39-2.93c0-1-.27-2-.3-3Z"></path>
      <path class="cls-12" d="M83.1,166.15c-.53.46-1.09.84-1.62,1.24a5.34,5.34,0,0,0-1.38,1.34,3.65,3.65,0,0,0-.58,1.8,2.81,2.81,0,0,0,.53,1.86,2.62,2.62,0,0,1-.89-1.86,3.82,3.82,0,0,1,.48-2.08,5.27,5.27,0,0,1,1.49-1.52c.55-.42,1.14-.77,1.68-1.15Z"></path>
      <path class="cls-12" d="M82.85,155.79c-.88,1.15-1.44,2.31-2.18,3.4a14.29,14.29,0,0,1-2.64,2.9,14,14,0,0,1-3.31,2.06A10.46,10.46,0,0,0,71.35,166a11.23,11.23,0,0,1,3.33-1.94,13.6,13.6,0,0,0,3.17-2.17,13.74,13.74,0,0,0,2.43-2.95,5.76,5.76,0,0,0,1.08-3.6Z"></path>
      <path class="cls-12" d="M80,160.18a3.19,3.19,0,0,0-1.86.17,12.17,12.17,0,0,0-1.74.75c-1.14.58-2.2,1.29-3.32,1.9,1.12-.61,2.15-1.36,3.27-2a11.06,11.06,0,0,1,1.74-.82c.6-.22,1.21-.39,1.84-.69Z"></path>
      <path class="cls-12" d="M77.69,142.89c-.74,1.3-1.48,2.53-2.28,3.74s-1.57,2.42-2.46,3.55-2,2.09-2.8,3.25a5.22,5.22,0,0,0-1.1,4,5.32,5.32,0,0,1,1-4.09c.8-1.22,1.84-2.23,2.69-3.36A24.91,24.91,0,0,0,75,146.37a19.44,19.44,0,0,0,1.53-4Z"></path>
      <path class="cls-12" d="M74.31,148.22a14.15,14.15,0,0,1-.74,4.24,11,11,0,0,1-2,3.76,11.11,11.11,0,0,0,1.87-3.81,13.82,13.82,0,0,0,.56-4.18Z"></path>
      <polygon class="cls-14" points="34.86 110.08 92.79 135.59 145.43 112.06 92.79 92.49 34.86 110.08"></polygon>
      <path class="cls-15" d="M184.35,118.77c-.36-1.29-1-2.92-1.25-4.18a5.67,5.67,0,0,0-1.25-3c-.74-.91-2.09-1.46-2.46-2.52s.14-2.33-.87-2.9-2.52-.16-3.16-1.07-1-1.53-.41-2.48,2-2,1.93-3.09-.73-1.22-1.21-1.93a7.3,7.3,0,0,1-1.09-2,6.59,6.59,0,0,0-1.22-1.76c-.42-.6-1.06-.82-.64-1.6s-.56-1.26-.64-2,.72-1.43,0-2.22a4.75,4.75,0,0,0-2.57-1.61,11.41,11.41,0,0,1-3.66-1.34c-1-.69-1.73-.28-2.69-.76a5.05,5.05,0,0,1-1.94-1.86c-.72-.95-1.33-1.16-2.79-1.63s-3.92-1.61-5.34-.14-1,3.93-3.42,3.94-1.9-3.87-3.8-4.59-2.45.87-4,1.31-2.41-1.12-3.88-1.07-2.63,1-4,1.52c-.25,1.27-.91,2.67-1.19,3.86a2.85,2.85,0,0,1-1.5,2.17c-.91.61.54,1.25,1,2s-.1,1-1.1,1.11,1.11,2.68,1.77,2.86,2.8,1.55,2.47,2.32-1.79.16-2,1a3.08,3.08,0,0,1-.71,1.49,168.17,168.17,0,0,1,19,6.26c11.65,4.74,24.27,9.28,33.2,18.47a1,1,0,0,0,.31-.82A16.06,16.06,0,0,0,184.35,118.77Z"></path>
      <path class="cls-16" d="M184.21,121.05a4.19,4.19,0,0,1-.12-2.59c.2-1.25-.91-2.53-2-3.38s-2.44-2.4-2.47-3.73,1.3-.8,1.57-1.89-2.13-1.47-3-1.77-.32-.22-.7-1.23-2.3-2-3.46-2.28a6.89,6.89,0,0,0-3.21.2c-1,.23-1.58-.08-1.76-1s.34-1.65-.05-2.43-1.09.05-1.68-.29-.13-.28-.22-1.3a16.1,16.1,0,0,0-1.57-4.69c-.65-1-1-.56-2-1S162.8,93,161.88,92s-4.12-1.23-5.35-.75S156,92,155,92.37s-1.2,1.28-2.6,1.29-.26-1.74-.14-2.77-2.23.4-2.8-.22,1.13-2.56-.07-3.08-2.2.25-3.67.75-3.26,3.58-4.64,4.09-.48-1.26-1.69-1.1-1.22-.57-1.33-1.35,0-1.34-.67-1.58-.61,1-.81,1.15-.82-.34-1-.23.11.43,0,.56c-1.82-.25-4.12-1.17-5.89-.33s.13,1.85.17,3.37-2.46,1.92-3.82,2.71c-1,.57-1.43,2.16-1.63,3.57,19.6,8.12,39.58,14.08,57,26.19a10.2,10.2,0,0,0,2.7-.94C185.47,123.72,184.55,122.13,184.21,121.05Z"></path>
      <path class="cls-17" d="M181.45,125.39c-3.5-1.9-7-3.83-10.47-5.68s-7.07-3.58-10.67-5.23c-7.21-3.31-14.59-6.22-22-8.93s-14.92-5.5-22.63-6.82a50.84,50.84,0,0,0-11.6-.79,40.43,40.43,0,0,0-11.28,2.25h0a1.3,1.3,0,1,1-.86-2.45h0a43,43,0,0,1,12-2.18,52.11,52.11,0,0,1,12.1,1.06,84.75,84.75,0,0,1,11.59,3.28c3.76,1.35,7.48,2.74,11.19,4.18,7.41,2.91,14.75,6,21.9,9.51,3.57,1.75,7.12,3.56,10.59,5.51A112.42,112.42,0,0,1,181.45,125.39Z"></path>
      <path class="cls-17" d="M132.11,102A42.91,42.91,0,0,0,135,97.43a32.38,32.38,0,0,0,2.2-4.88,33.37,33.37,0,0,1-1.85,5.06,42.8,42.8,0,0,1-2.54,4.77Z"></path>
      <path class="cls-17" d="M138.91,104.78A36.44,36.44,0,0,1,141.73,99a22,22,0,0,1,4-5,21.72,21.72,0,0,0-3.62,5.21,35.89,35.89,0,0,0-2.4,5.86Z"></path>
      <path class="cls-17" d="M142,98.58a20.69,20.69,0,0,1,8.55-3.14,20.44,20.44,0,0,0-8.33,3.46Z"></path>
      <path class="cls-17" d="M146.9,107.47a45,45,0,0,1,6.24-4.88,27.77,27.77,0,0,1,7.1-3.4,27.94,27.94,0,0,0-6.74,3.9,44.44,44.44,0,0,0-5.71,5.25Z"></path>
      <path class="cls-17" d="M153.26,102.52a17.85,17.85,0,0,1,5.24-.51c1.74,0,3.47.26,5.22.23-1.74.11-3.49,0-5.23,0a17.2,17.2,0,0,0-5.1.74Z"></path>
      <path class="cls-17" d="M160.88,113.54a22.68,22.68,0,0,1,6.89-2.89,16,16,0,0,1,7.38-.23,15.83,15.83,0,0,0-7.3.54,22.14,22.14,0,0,0-6.61,3.11Z"></path>
      <path class="cls-17" d="M166.33,111.2a52,52,0,0,0,11.43,3.58,49.19,49.19,0,0,1-5.86-1.34,47.12,47.12,0,0,1-5.67-2Z"></path>
      <path class="cls-15" d="M38,67.86a168.35,168.35,0,0,1,19.43,4.75A3.16,3.16,0,0,1,57.65,71c.23-.82-1.33-1.08-1.2-1.9s2.67-.86,3.32-.66,3.84-.9,3-1.49-1.12-1.13-.34-1.53,2.35-.16,1.9-1.16a2.9,2.9,0,0,1-.13-2.64c.4-1.15.58-2.69,1-3.9-.85-1.15-1.34-2.57-2.56-3.39s-2.78,0-3.86-1.15-.7-2.82-2.69-3.22-3.63,3.15-5.65,1.88-.39-3.17-.82-5.16S46.56,44.34,45.07,44s-2.11-.51-3.22-.09a4.9,4.9,0,0,1-2.63.54c-1.07-.09-1.5-.84-2.68-.77a11.49,11.49,0,0,1-3.82-.8,4.79,4.79,0,0,0-3,0c-1,.3-.66,1.26-1.16,1.89s-1.58.52-1.63,1.4-.71.73-1.39,1a6.81,6.81,0,0,0-2,.84,7.33,7.33,0,0,1-2,1.08c-.78.35-1.4.08-2,1s0,2.54,0,3.64-.63,1.46-1.66,1.89-2.1-.72-3.25-.77-1.39,1.3-2.27,2-2.31.45-3.42.83A5.69,5.69,0,0,0,6.3,59.5c-.86,1-2.29,2-3.27,2.88a16.17,16.17,0,0,0-2.78,2.7,1.07,1.07,0,0,0-.17.86C12.52,62.88,25.63,65.71,38,67.86Z"></path>
      <path class="cls-18" d="M64.19,77.51c.58-1.31,1-2.89.5-3.9-.73-1.38-2.64-3-1.8-4.32s3-1.12,1.93-2.77-3.49-2.08-5.17-2.83c0-.17.37-.3.3-.48s-.87-.06-1-.32.6-1.27-.07-1.4-.9.39-1.41,1-.89,1.21-1.84.43-1.13,1.2-2,0-.79-4.72-1.77-5.92-1.42-2.39-2.71-2.58S48.3,56.8,47.49,57s-2.06-2.23-2.5-1.29-.39,3-1.58,2.27-.92-1.61-1.53-2.47.11-.69-.68-1.75-3.62-2.55-4.94-2.2-1.33.56-2.36.49-1.12-.71-2.23-.16a15.78,15.78,0,0,0-3.81,3.15c-.62.81-.2,1-.88,1s-.84-1.1-1.58-.64-.7,1.38-1.32,2-1.26.62-2-.12a6.82,6.82,0,0,0-2.62-1.87c-1.11-.39-3.29-.54-4.14.11s-.37.86-1.25.67-3.1-1.15-3.45-.07,1.06,1.32.33,2.43-2.72,1.7-4.07,1.86-3,.66-3.46,1.83a4.19,4.19,0,0,1-1.48,2.12C1.07,65.13-.55,66,.19,67.32A10.08,10.08,0,0,0,2,69.54C23.16,68.49,43.26,74,64.19,77.51Z"></path>
      <path class="cls-17" d="M2,69.54a112.85,112.85,0,0,1,11.92,0c4,.19,8,.52,11.9.93,7.92.82,15.79,2.08,23.62,3.54,3.91.74,7.8,1.53,11.7,2.38a83.36,83.36,0,0,1,11.57,3.35,51.83,51.83,0,0,1,10.82,5.52,42.38,42.38,0,0,1,9.06,8.22,1.3,1.3,0,1,1-2,1.66v0l0,0a40.45,40.45,0,0,0-8.37-7.89,51.24,51.24,0,0,0-10.26-5.47c-7.23-3-15.07-4.44-22.8-6.2s-15.56-3.08-23.42-4.09c-3.93-.5-7.87-.93-11.83-1.22S6,69.78,2,69.54Z"></path>
      <path class="cls-17" d="M55.46,75.81a42.36,42.36,0,0,1,.38-5.4,33.79,33.79,0,0,1,1.1-5.27,32.88,32.88,0,0,0-.71,5.31,41.21,41.21,0,0,0,0,5.33Z"></path>
      <path class="cls-17" d="M48.17,74.4a35.4,35.4,0,0,0,1.07-6.24,21.69,21.69,0,0,0-.31-6.33,21.86,21.86,0,0,1,.72,6.35A35.5,35.5,0,0,1,49,74.59Z"></path>
      <path class="cls-17" d="M49.25,67.83A20.33,20.33,0,0,0,44,60.48a20.52,20.52,0,0,1,5.59,7.19Z"></path>
      <path class="cls-17" d="M39.56,72.91a43.45,43.45,0,0,0-2.07-7.48,27.37,27.37,0,0,0-3.65-6.88,28,28,0,0,1,4.22,6.64,43.87,43.87,0,0,1,2.71,7.45Z"></path>
      <path class="cls-17" d="M37.65,65.39a17.5,17.5,0,0,0-3.94-3.33c-1.46-.94-3-1.75-4.43-2.77,1.46,1,3,1.69,4.55,2.57A18,18,0,0,1,38,65.07Z"></path>
      <path class="cls-17" d="M25.11,70.64a22.3,22.3,0,0,0-3.95-6.14,15.8,15.8,0,0,0-5.91-4.32,16,16,0,0,1,6.14,4.1,22.63,22.63,0,0,1,4.31,6.1Z"></path>
      <path class="cls-17" d="M22.28,65.76a46.92,46.92,0,0,1-5.87-1.3,49.52,49.52,0,0,1-5.68-2,49.37,49.37,0,0,0,5.71,1.85,49.15,49.15,0,0,0,5.87,1.17Z"></path>
      <path class="cls-15" d="M95.8,61.38A9.67,9.67,0,0,1,92,64.16c-1.5.64-1.55,1-2.43,2.38s-2.7,5.11-4.54,4.09-1.57-1.54-3.76-1.52-6.76.13-5.85-2.73,2.81-4.66.66-6.92-3.88-3.6-3.66-6.45-3.69-4.23-2.43-6.7,5.19-5,5.15-7.36-.44-.65-1.85-2.85-1.12-6.84,2.41-8.34a17.57,17.57,0,0,0,.1-2.08c0-.94.65-1.54.69-2.83s-1.8-2.72-.15-4.07,3.09-4.16,5.68-3.27-.88-1.56-.42-2.74,1.2-1,1.32-2.37.33-3.32,1.92-3.23A6.21,6.21,0,0,0,89.11,5c.88-1,1.82-.26,2.64-1.19S91.5,2.17,93,1.36,96.34-.5,97.86.27s1.73,1.28,3.33,1.15a4.23,4.23,0,0,1,4,2c1.17,1.55,1.57.37,3.16,1a5.93,5.93,0,0,1,3.18,4.18c.27,1.63,2.12.76,2.69,3s1.06,5.43,2.89,7.42,4.77,5.31,4.37,7.75.28,3.37.3,5a6.9,6.9,0,0,1-1.2,4.15c-.67.77,1.4,2.76,1.87,4.09s-.75,4,.67,5.74,3.41,2,2.92,5.35A37.06,37.06,0,0,1,123.29,61c-1.19,2.38,1.42,1.45-.83,4.35s-6,5.24-10.31,3.82-5.06-5.78-8.07-7.88S98.65,60.9,95.8,61.38Z"></path>
      <path class="cls-16" d="M124.63,57.39l-.47-.63a18.52,18.52,0,0,0-7.42-6A32,32,0,0,1,99.25,32.29a74.54,74.54,0,0,1-3.07-11A18,18,0,0,0,88.79,10.2a33.65,33.65,0,0,1-3.88-3h-.12C83.2,7.08,83,9,82.87,10.4s-.85,1.18-1.32,2.37,3,3.62.42,2.74-4,1.92-5.68,3.27.19,2.78.15,4.07-.69,1.89-.69,2.83a17.57,17.57,0,0,1-.1,2.08c-3.53,1.5-3.81,6.14-2.41,8.34s1.8.45,1.85,2.85-3.9,4.9-5.15,7.36,2.64,3.85,2.43,6.7,1.51,4.2,3.66,6.45.25,4-.66,6.92,3.66,2.75,5.85,2.73,1.92.5,3.76,1.52,3.65-2.71,4.54-4.09.93-1.74,2.43-2.38a9.67,9.67,0,0,0,3.85-2.78c2.85-.48,5.27-2.23,8.28-.13s3.73,6.45,8.07,7.87,8-.92,10.31-3.81-.36-2,.83-4.35A22.43,22.43,0,0,0,124.63,57.39Z"></path>
      <path class="cls-17" d="M97.88,12.29A86.54,86.54,0,0,1,100.81,34c.15,7.33-.32,14.64-.85,21.92s-1.11,14.54-1.22,21.77a101.15,101.15,0,0,0,1.67,21.41l-3.85.67a104.49,104.49,0,0,1-.75-22.19c.44-7.35,1.36-14.61,2.21-21.84S99.66,41.24,99.83,34A86.37,86.37,0,0,0,97.88,12.29Z"></path>
      <path class="cls-17" d="M98.11,57.81a50.34,50.34,0,0,1,2.51-4.6,16.78,16.78,0,0,1,3.46-4A25.65,25.65,0,0,0,108,45.84a28.93,28.93,0,0,0,2.83-4.29,28.41,28.41,0,0,1-2.53,4.53,25.06,25.06,0,0,1-3.65,3.7c-2.46,2.33-3.78,5.51-5.07,8.67Z"></path>
      <path class="cls-17" d="M101,52.76a3.3,3.3,0,0,1,2-1,6.75,6.75,0,0,1,2.11.07,32.59,32.59,0,0,1,3.86,1.08c1.27.39,2.51.88,3.75,1.28a11.18,11.18,0,0,0,3.85.67,9.56,9.56,0,0,1-4-.18c-1.31-.3-2.56-.71-3.84-1s-2.54-.74-3.79-.95-2.55-.19-3.32.64Z"></path>
      <path class="cls-17" d="M108.74,53.16a8.92,8.92,0,0,1,2.73-1.72,6.6,6.6,0,0,0,2.69-1.58,6.86,6.86,0,0,1-2.57,1.84,8.29,8.29,0,0,0-2.45,1.85Z"></path>
      <path class="cls-17" d="M99.75,40.64a22.1,22.1,0,0,1,5.81-9.16,32.75,32.75,0,0,1,8.91-6.08,32.78,32.78,0,0,0-8.6,6.38,21.65,21.65,0,0,0-5.29,9.11Z"></path>
      <path class="cls-17" d="M105.3,32a9.17,9.17,0,0,0,1.63-2.87c.39-1,.67-2.13,1-3.21a22.63,22.63,0,0,1,1.06-3.2,7.72,7.72,0,0,1,1.9-2.75A7.72,7.72,0,0,0,109,22.72a22.3,22.3,0,0,0-1,3.2,33.32,33.32,0,0,1-.91,3.25,9.38,9.38,0,0,1-1.61,3Z"></path>
      <path class="cls-17" d="M99.5,22.52a14.49,14.49,0,0,0,1.2-3c.31-1.06.57-2.13.81-3.21.47-2.16.86-4.35,1.38-6.5-.44,2.17-.74,4.36-1.14,6.55-.2,1.09-.42,2.17-.69,3.25a15.43,15.43,0,0,1-1.12,3.18Z"></path>
      <path class="cls-17" d="M98.87,50.66a100,100,0,0,1-7.59-8.5q-1.78-2.22-3.41-4.55c-1.08-1.5-2.3-3-4.12-3.68,1.87.5,3.25,2,4.45,3.43s2.41,2.9,3.68,4.28a97.94,97.94,0,0,0,8.05,7.87Z"></path>
      <path class="cls-17" d="M94.42,45.54a16.92,16.92,0,0,0-7.55-1.42c-2.61,0-5.22.5-7.84.27,2.62.13,5.2-.42,7.83-.54A17.29,17.29,0,0,1,94.64,45Z"></path>
      <path class="cls-17" d="M91.5,44.42a25.22,25.22,0,0,1-4.1,2.34,17.71,17.71,0,0,1-2.2.83,7.38,7.38,0,0,1-2.32.35,7.5,7.5,0,0,0,2.29-.44,16.89,16.89,0,0,0,2.15-.91,24.78,24.78,0,0,0,4-2.47Z"></path>
      <path class="cls-17" d="M99.84,37.07a19.52,19.52,0,0,0-3-4.24c-1.16-1.31-2.42-2.54-3.67-3.77s-2.51-2.46-3.68-3.77a20.12,20.12,0,0,1-3-4.3,19.58,19.58,0,0,0,3.19,4.16c1.21,1.26,2.51,2.43,3.81,3.61s2.61,2.37,3.84,3.65a19.75,19.75,0,0,1,3.26,4.29Z"></path>
      <path class="cls-17" d="M91.32,27.14a13.66,13.66,0,0,0-4.09-9.67,13.79,13.79,0,0,1,4.28,9.67Z"></path>
      <path class="cls-17" d="M96.37,32.18a6.48,6.48,0,0,1-3.68-.39c-1.15-.42-2.18-1-3.33-1.37,1.18.23,2.29.74,3.44,1a6,6,0,0,0,3.39,0Z"></path>
      <path class="cls-18" d="M115.07,59.85a8.34,8.34,0,0,1-4.66-.85c-2-1.19-.68-.42-3.31-.42s-5.85,1.1-6-1.19.85-1-1.1-4-4.41-5.68-1.44-6.52,5.34-.17,5.77-3.65.5-5.68,3-6.53,1-5.85,4.07-5.85,8.31,1.1,9.33.25.76-1.35,1-2.71,3.64-5.34,8.73-2.8a8,8,0,0,0,1.78-.93c1-.68,1.19,0,2.8-1s1.27-3.39,3.31-2.71,5.59-.6,6.27,2.46.34-1.78,2-2,.68.85,2.8-.25,3.39-1.36,3.81-.26,3.39,2.38,4.33,2.38,1.18,1.35,2.37,1.61,1.19-1.44,2.71-.34,3.57,1.27,3.65,3.73.51,3.05.76,3.31,1.61,1.78.51,4.49.68,1.53.85,3.31-.68,4.24-1.95,5,1.27,1.7-1,3.82-3.73,3.05-4.83,6.19-1.61,6.78-3.82,7-2.46,1.86-3.39,2.12-3.14,1-3.56.33-.76,2-1.61,3-3.14,1.44-3.65,2.38,2.38,3.64-2,4.49-8,.68-8,.42a2.3,2.3,0,0,1-3.06,1.45c-2.71-.77-6.27,3.13-9.15-.43s-.26-9.24-.94-11.28S115.07,59.85,115.07,59.85Z"></path>
      <path class="cls-17" d="M154.87,33.08c-.4.83-.85,1.63-1.33,2.42s-1.11,1.47-1.66,2.21a24.1,24.1,0,0,1-1.82,2.09c-.62.68-1.25,1.35-1.94,2a69.76,69.76,0,0,1-8.62,6.91c-6,4.21-12.38,7.91-18.09,12.38a53.77,53.77,0,0,0-7.84,7.38,55.55,55.55,0,0,0-6.07,8.86c-3.52,6.29-6.1,13.1-8.66,20L96,96.15c2.73-6.79,5.52-13.68,9.33-20.1A57.61,57.61,0,0,1,112,67a55.3,55.3,0,0,1,8.36-7.4c6-4.39,12.45-7.88,18.55-11.88a67.9,67.9,0,0,0,8.71-6.55,25,25,0,0,0,2-1.88,23.3,23.3,0,0,0,1.85-2c.57-.7,1.21-1.36,1.73-2.1A24.9,24.9,0,0,1,154.87,33.08Z"></path>
      <path class="cls-17" d="M121.7,58.81a8.09,8.09,0,0,0,2.4-4.26,15.87,15.87,0,0,0,.31-5.2c-.32-3.52-1.76-6.88-3.18-10.17,1.65,3.18,3.35,6.42,4,10.07a16.81,16.81,0,0,1,.07,5.53,9.49,9.49,0,0,1-2.48,5.16Z"></path>
      <path class="cls-17" d="M124.18,47.55A25.93,25.93,0,0,0,120,44a16.65,16.65,0,0,1-2.08-1.86,6.11,6.11,0,0,1-1.41-2.39A6.08,6.08,0,0,0,118,42a15.79,15.79,0,0,0,2.15,1.75,25,25,0,0,1,4.42,3.45Z"></path>
      <path class="cls-17" d="M124.64,51A30.37,30.37,0,0,1,127,45.43a22.1,22.1,0,0,0,1.2-2.74,9.77,9.77,0,0,0,.52-2.94,9.79,9.79,0,0,1-.34,3,21.39,21.39,0,0,1-1,2.84,30.59,30.59,0,0,0-2,5.62Z"></path>
      <path class="cls-17" d="M136.94,49.4A24.17,24.17,0,0,0,138,40.28a32.5,32.5,0,0,0-1.93-9.11,32.67,32.67,0,0,1,2.34,9.07,24.68,24.68,0,0,1-.73,9.4Z"></path>
      <path class="cls-17" d="M138.15,41.64a11.4,11.4,0,0,0-1.75-2.32c-.66-.72-1.35-1.44-2-2.21a10.3,10.3,0,0,1-1.52-2.6,5.06,5.06,0,0,1-.28-2.95,5.37,5.37,0,0,0,.52,2.85,10.91,10.91,0,0,0,1.58,2.45c1.24,1.49,2.86,2.76,3.75,4.63Z"></path>
      <path class="cls-17" d="M138,44.25a9.9,9.9,0,0,0,2.24-4.9,16.5,16.5,0,0,0,0-5.52,17.06,17.06,0,0,1,.28,5.57,10.34,10.34,0,0,1-2.1,5.22Z"></path>
      <path class="cls-17" d="M148.24,40.74a19.86,19.86,0,0,0,.67-10.81,20.29,20.29,0,0,1-.06,11Z"></path>
      <path class="cls-17" d="M149.32,35.73a13.35,13.35,0,0,1-2.07-3.38,9.1,9.1,0,0,1-.89-3.82,9.11,9.11,0,0,0,1.07,3.74,13.15,13.15,0,0,0,2.18,3.19Z"></path>
      <path class="cls-17" d="M141.59,46.16c2.82-.21,5.62-.08,8.36-.45a20.3,20.3,0,0,0,4-1,6.9,6.9,0,0,0,3.35-2.33,6.21,6.21,0,0,1-3.16,2.79,16.45,16.45,0,0,1-4.1,1.19,57.12,57.12,0,0,1-8.45.35Z"></path>
      <path class="cls-17" d="M150.16,45.85a21.82,21.82,0,0,1,4.27.75c1.39.37,2.75.82,4.11,1.27-1.38-.39-2.76-.78-4.16-1.08a21,21,0,0,0-4.23-.55Z"></path>
      <path class="cls-17" d="M127.75,54.68c2,.13,3.93.39,5.86.69s3.85.64,5.77,1.07,3.77,1,5.68,1.25a11.81,11.81,0,0,0,5.72-.34,12,12,0,0,1-5.77.75c-2-.15-3.88-.55-5.79-.84s-3.83-.51-5.76-.7-3.85-.32-5.75-.32Z"></path>
      <path class="cls-17" d="M134.87,55.87a9.27,9.27,0,0,0,1.58,1.94c.61.61,1.27,1.18,1.94,1.74,1.33,1.12,2.74,2.18,4,3.42-1.35-1.12-2.84-2-4.27-3-.72-.5-1.44-1-2.13-1.58a10.41,10.41,0,0,1-1.9-2Z"></path>
      <path class="cls-16" d="M136.32,45.07s-11.87,8.2-12.92,14.33-7.44,5.93-5.16,11.47,8.43,7.7,8.43,7.7,8.58-4.83,14.42-4.61,15.23-7.13,15.23-7.13-11.67-3.4-12.84-8.4S141.66,49.74,136.32,45.07Z"></path>
      <path class="cls-17" d="M141,60.14c-3.47,3.1-6.92,6.19-10.25,9.41s-6.72,6.33-9.9,9.68a190.66,190.66,0,0,0-17.64,21.27l-2.37-1.75a194.47,194.47,0,0,1,18.47-21c3.34-3.25,6.73-6.47,10.36-9.4A131.13,131.13,0,0,1,141,60.14Z"></path>
      <path class="cls-17" d="M127.22,70.58a16.78,16.78,0,0,1,3.7-11.53,15.93,15.93,0,0,0-2.15,11.34Z"></path>
      <polygon class="cls-17" points="129.48 70.09 139.35 67.84 129.6 70.63 129.48 70.09"></polygon>
      <path class="cls-15" d="M156.59,53.43c.47-.74,1.25-.48,1.88-.37s.78.37.47-.36-1.06-1.94.38-1.67,1.83,1.25,3.42.35,5.84-3.82,6.91-1.16.93,4.55,3.69,5.37,5.14,1.39,6.28,3.86,4.55,3,4.08,5.75-4.23,5-4.19,7.58.7.63,1.89,3,0,6.78-3.29,7.87c-.07,1-.26,1.12-.31,2.16s-.88,1.69-.54,3.17,1.73,3.42.91,5.29-2.06,5.49-4.39,5.22.34,2.28,0,3.38-1.23,1.7-1.47,2.9-.66,3.21-2.19,3.14a7.83,7.83,0,0,0-4.25,1.17c-1.08.67-1.63-.11-2.51.47s-.25,1.42-1.53,1.7-3.13.56-4.27-.24-1.26-1.45-2.68-1.79a4.07,4.07,0,0,1-2.91-2.62c-.63-1.43-1.1-.61-2.35-2s-1.39-4.38-.83-6.57-.73-4.24.09-6.75,3.75-8.64,2.4-11-4.88-3-5.08-5.1-.55-2-1-3.25,0-1.59.2-2.64-1.8-1.63-2.49-2.53.22-2.46-1.22-3.43-3.42-.65-3.49-3.25,2.17-6.66,2-9-3-1.12-2-3c2.25-4-5.84-3.17-.58-4.57,4.11-1.09,9.57,4.58,12.22,7.29S153.83,52.66,156.59,53.43Z"></path>
      <path class="cls-17" d="M155.56,53.31c5.07,7.21,8.2,13.26,8.89,22.53s-1.82,20.22-3.64,29.52c1.56-9.33,4-20.33,2.86-29.58s-5-15.32-10.44-22.28A20.89,20.89,0,0,0,155.56,53.31Z"></path>
      <path class="cls-17" d="M158,57.41a6.58,6.58,0,0,1-1.88,4.17,15.37,15.37,0,0,1-3.49,2.55,29.46,29.46,0,0,0-3.51,2.24,8.4,8.4,0,0,0-2.58,3.2,8.81,8.81,0,0,1,2.32-3.5,30.58,30.58,0,0,1,3.35-2.59,15.06,15.06,0,0,0,3-2.67,5.17,5.17,0,0,0,1.2-3.44.78.78,0,1,1,1.56,0v.09Z"></path>
      <path class="cls-17" d="M155.85,61.44a17.68,17.68,0,0,1-1.42,5.26,15.41,15.41,0,0,1-3.1,4.41,15.09,15.09,0,0,0,2.78-4.54,17.12,17.12,0,0,0,1-5.19.35.35,0,0,1,.36-.33.35.35,0,0,1,.33.37Z"></path>
      <path class="cls-17" d="M160.23,60.58a24.87,24.87,0,0,1,8.86,3.88,22.16,22.16,0,0,1,6.3,7.13,21.89,21.89,0,0,0-6.73-6.48,23.63,23.63,0,0,0-8.72-3,.78.78,0,0,1-.66-.88.79.79,0,0,1,.89-.66Z"></path>
      <path class="cls-17" d="M170.54,65.66a23,23,0,0,0,.83,5.63,33.92,33.92,0,0,0,2,5.37A33,33,0,0,1,171,71.39a23.43,23.43,0,0,1-1.2-5.7.36.36,0,0,1,.33-.38.36.36,0,0,1,.38.32Z"></path>
      <path class="cls-17" d="M164.31,75.07a13,13,0,0,1-.66,2.32,13.88,13.88,0,0,1-1.13,2.12c-.87,1.34-1.88,2.53-2.8,3.79s-1.91,2.48-2.82,3.75a18,18,0,0,0-2.29,4,15,15,0,0,1,1.94-4.28c.83-1.35,1.77-2.61,2.65-3.89s1.86-2.53,2.69-3.82a12.64,12.64,0,0,0,1.79-4.17.32.32,0,0,1,.63.13Z"></path>
      <path class="cls-17" d="M164,74.74l-8,1.72L163.8,74h0a.39.39,0,0,1,.48.25.38.38,0,0,1-.25.47Z"></path>
      <path class="cls-17" d="M164.5,76.63A27.6,27.6,0,0,1,169,84.11a44.38,44.38,0,0,1,2.47,8.32c-.9-2.74-1.81-5.48-3-8.1A31.09,31.09,0,0,0,164,77a.32.32,0,0,1,0-.44A.31.31,0,0,1,164.5,76.63Z"></path>
      <path class="cls-17" d="M169.46,85.65a39.71,39.71,0,0,0-.27,14.34,40.05,40.05,0,0,1,0-14.4.14.14,0,0,1,.17-.11.13.13,0,0,1,.11.16Z"></path>
      <path class="cls-15" d="M68.61,110c1.63.18,3.16,1.85,4.43-.43a25.57,25.57,0,0,0,2.1-6.73c.43-1.77,1.8.19,1.78-2.59s3.61-5,1-8.09-7.6-1.1-10.4-2.16-2.13-3.57-3.2-5.51a5.7,5.7,0,0,0-.1-4c-.5-1.24-.24-1.66.17-2.84s2.18-4.1.53-4.29-1.82.64-3.09-.75-3.61-5.26-5.32-2.94-2.18,4.64-5,3.86-4.84-1.72-6.94,0-5.35-.75-6.41,1.71,0,7-1.75,8.51-.52.11-3.07.52S28.31,88.76,29.82,92a19.35,19.35,0,0,1-1.23,1.63c-.64.69-.35,1.76-1.34,2.61s-3.45.53-3.4,2.54-1,5.36,1,6.44-2.16.54-2.77,1.31-.64,1.41-1.49,2-2.84,2-1.9,3,.81,2.88.55,4,.79,1.34.63,2.44-1.43.88-1.06,2.43,1,3.56,2.49,4.06,2.06.3,3.08,1.44a3.88,3.88,0,0,0,4.07,1.18c1.83-.37,1.3.76,2.84,1.32A5,5,0,0,0,36,127.28c1.15-1.09,1.85.74,3.62-.74s3.89-3.72,6.67-3.89,8.25-.43,9.81-2.45,2.72-2.08,3.94-3.21a6,6,0,0,0,2.07-3.67c0-1,2.43-.54,3.41-.89S67,109.82,68.61,110Z"></path>
      <path class="cls-17" d="M86.09,97.77c-3.7-4.74-8.52-8.72-14.21-10.44a19.41,19.41,0,0,0-8.72-.64,20.52,20.52,0,0,0-8.11,3.37,36.38,36.38,0,0,0-6.7,6c-2,2.26-3.83,4.71-5.69,7.16a92.25,92.25,0,0,1-5.79,7.21,33.25,33.25,0,0,1-7,6,40.8,40.8,0,0,0,6.41-6.53c1.9-2.39,3.64-4.9,5.41-7.41,3.45-5,7.29-10.11,12.47-13.77A21.86,21.86,0,0,1,62.87,85a20.9,20.9,0,0,1,9.5.68,25.36,25.36,0,0,1,8.39,4.4,36.61,36.61,0,0,1,6.56,6.72Z"></path>
      <path class="cls-17" d="M64.77,85.71a14.29,14.29,0,0,0,1.75,3.53,10.83,10.83,0,0,1,.94,2,7.18,7.18,0,0,1,.34,2.18c0,1.45-.3,2.82-.4,4.18a6.34,6.34,0,0,0,.75,4,6.51,6.51,0,0,1-1.14-4c0-1.41.15-2.8,0-4.12a6.88,6.88,0,0,0-1.48-3.57,14.86,14.86,0,0,1-2.26-3.72Z"></path>
      <path class="cls-17" d="M60.93,86.89a4.26,4.26,0,0,0-2.47-2.26A11.14,11.14,0,0,0,54.71,84a25,25,0,0,1-4-.39,6.28,6.28,0,0,1-3.5-1.88,6.09,6.09,0,0,0,3.57,1.5,24.82,24.82,0,0,0,3.95,0,11.94,11.94,0,0,1,4.13.35,5.67,5.67,0,0,1,3.5,2.71Z"></path>
      <path class="cls-17" d="M54.51,90.48a7.56,7.56,0,0,0,.05,4.11,8.1,8.1,0,0,0,2.25,3.59c1,1,2.27,2,3.28,3.15a6.37,6.37,0,0,1,1.81,4.12,6.18,6.18,0,0,0-2.09-3.85c-1.07-1-2.34-1.84-3.53-2.84A9.18,9.18,0,0,1,53.45,95,9,9,0,0,1,53,90.13Z"></path>
      <path class="cls-17" d="M54.69,95.35a7.59,7.59,0,0,0-.48,4.07,12.9,12.9,0,0,0,1.39,4,13,13,0,0,1-1.8-4,8.3,8.3,0,0,1,.11-4.42Z"></path>
      <path class="cls-17" d="M53.93,91.18a17,17,0,0,1-3.09-1.81c-1-.7-1.8-1.54-2.64-2.27a6.24,6.24,0,0,0-2.85-1.57A6.92,6.92,0,0,0,42,86a7.09,7.09,0,0,1,3.35-.85,6.72,6.72,0,0,1,3.28,1.35c1,.66,1.85,1.37,2.81,1.9a15.54,15.54,0,0,0,3,1.34Z"></path>
      <path class="cls-17" d="M51.54,89.46a11.13,11.13,0,0,1-5.13.94,13.33,13.33,0,0,1-4.95-1.24,13.36,13.36,0,0,0,4.95.71,10.38,10.38,0,0,0,4.65-1.36Z"></path>
      <path class="cls-17" d="M46.57,97.48a28.57,28.57,0,0,1-7-2A12.52,12.52,0,0,0,36.39,94a3.92,3.92,0,0,0-3.25,1,4,4,0,0,1,3.28-1.29,12.45,12.45,0,0,1,3.42,1.17,27.55,27.55,0,0,0,6.91,1.41Z"></path>
      <path class="cls-17" d="M42.88,96.58a6.8,6.8,0,0,0-2.46.33,25.58,25.58,0,0,0-2.43.91c-.8.32-1.58.73-2.42,1a4.19,4.19,0,0,1-2.61.25,4.55,4.55,0,0,0,2.51-.51c.78-.36,1.52-.83,2.32-1.23a24.29,24.29,0,0,1,2.45-1A6.32,6.32,0,0,1,43,96Z"></path>
      <path class="cls-17" d="M45.55,101.29a3.4,3.4,0,0,0,1.07,2.07c.58.63,1.26,1.21,1.93,1.86l1.92,1.93a8.58,8.58,0,0,1,1.61,2.22A32.4,32.4,0,0,0,48,105.8c-.65-.59-1.4-1.13-2.06-1.82a3.84,3.84,0,0,1-1.24-2.71Z"></path>
      <path class="cls-17" d="M45.62,99.17c-.06,1.25,0,2.52,0,3.78a24.06,24.06,0,0,0,.41,3.72,12.82,12.82,0,0,0,1.43,3.42,10.93,10.93,0,0,1,1.36,3.6A13.43,13.43,0,0,0,47,110.37a11.2,11.2,0,0,1-1.74-3.51,19.79,19.79,0,0,1-.53-3.87,28,28,0,0,1,.06-3.88Z"></path>
      <path class="cls-17" d="M40.87,105.38a8.59,8.59,0,0,1-5.33,1.38c-1.81-.13-3.57-.5-5.37-.48,1.79-.16,3.61.08,5.39.07a8,8,0,0,0,4.83-1.64Z"></path>
      <path class="cls-17" d="M39.55,107.2a8.29,8.29,0,0,0-.72,4.17,12.38,12.38,0,0,0,1.07,4.24,12.51,12.51,0,0,1-1.5-4.19,9,9,0,0,1,.36-4.55Z"></path>
      <path class="cls-16" d="M113.35,67.74c-1.42-1.73-.2-4.41-.67-5.74s-2.55-3.31-1.88-4.09A6.84,6.84,0,0,0,112,53.77c0-1.65-.72-2.59-.31-5a5.87,5.87,0,0,0-1.21-3.8c-1.46,0-2.93-.12-4.41-.23-7.43.16-14.86.3-22.3.33-5.39,0-11.4.59-17.19.34A11.32,11.32,0,0,0,66,47.61a20.09,20.09,0,0,1-.11,2.08c-3.53,1.49-3.81,6.13-2.4,8.33s1.79.45,1.84,2.86-3.89,4.89-5.15,7.36,2.65,3.84,2.43,6.69,1.51,4.2,3.66,6.46.26,4-.66,6.91,3.66,2.76,5.85,2.73,1.92.51,3.76,1.53,3.65-2.71,4.54-4.1.93-1.73,2.43-2.38A9.65,9.65,0,0,0,86,83.31c2.86-.48,5.28-2.24,8.28-.13s3.73,6.45,8.07,7.87,8-.92,10.31-3.82-.36-2,.83-4.34a37.28,37.28,0,0,0,2.73-9.79C116.75,69.74,114.77,69.47,113.35,67.74Z"></path>
      <path class="cls-17" d="M89.12,68.08a109.33,109.33,0,0,0,3.1,13.36,69.75,69.75,0,0,1,2.55,14l-4.37,0a65.75,65.75,0,0,0-1-13.39c-.69-4.53-1.5-9.14-1.77-13.8Z"></path>
      <polygon class="cls-17" points="90.19 77.44 105.66 65.29 91.21 78.63 90.19 77.44"></polygon>
      <path class="cls-17" d="M97,72.2a54,54,0,0,1,4.69-11.76,53.88,53.88,0,0,0-4,11.93Z"></path>
      <path class="cls-17" d="M94.9,74.12a39.91,39.91,0,0,0,11.87-.91,40.79,40.79,0,0,1-11.9,1.73Z"></path>
      <path class="cls-17" d="M98.62,74.28a8.19,8.19,0,0,1,2.36.6,18.86,18.86,0,0,1,2.17,1.05c1.4.75,2.73,1.63,4.19,2.28-1.48-.58-2.86-1.41-4.29-2.1a11.68,11.68,0,0,0-4.45-1.4Z"></path>
      <path class="cls-17" d="M90,78.58a30,30,0,0,1-10.78-5.15,25.4,25.4,0,0,1-7.66-8.93,25.11,25.11,0,0,0,8.11,8.29,28.68,28.68,0,0,0,10.65,4.26Z"></path>
      <path class="cls-17" d="M80.27,74a40.43,40.43,0,0,1-2.84-5.8,25.45,25.45,0,0,1-1.56-6.25,25.11,25.11,0,0,0,1.86,6.13,40.58,40.58,0,0,0,3.08,5.6Z"></path>
      <path class="cls-17" d="M78.55,70.5A37.56,37.56,0,0,0,79.34,62,37.91,37.91,0,0,1,79,70.59Z"></path>
      <path class="cls-17" d="M82.3,75.18A23.63,23.63,0,0,1,77,77.82c-1.83.68-3.71,1.23-5.58,1.77,1.83-.68,3.66-1.36,5.42-2.16a22.91,22.91,0,0,0,5-2.93Z"></path>
      <path class="cls-17" d="M77.2,77.65a21.34,21.34,0,0,1-1.81,4.88A47.6,47.6,0,0,1,72.81,87a48.57,48.57,0,0,0,2.35-4.6,20.76,20.76,0,0,0,1.55-4.87Z"></path>
      <polygon class="cls-17" points="85.39 50.11 82.29 56.94 83.91 49.61 85.39 50.11"></polygon>
      <path class="cls-15" d="M98.3,42.65c-11.11-.39-21.31,1-32,2.52-.63.07-.22,1.72.1,2.15.57.79,0,1.21,1,2s.69.77,1.34,1.91.07,1.2,1.21,2,3.54-.12,4.08-.16,1.3.16,2.33,1.57-.85,1.95-.8,3.48,1.59,1,3,2.13.25,1.84,1.21,3.61,1,1.48,2.55,2.54A24.44,24.44,0,0,1,86,69.87c.92.91,2.42,2.13,3.22,2.87s1.62-.29,3.16-1.51,1.1-1,2.42-1.16,2-1.69,2.91-3.2,2.94-3.64,3.79-3.77,1.4.47,2.29.87,1-1.66,1.35-3.25.17-.4,1.2-1,1.89-2.29,2.3-4-.34-1.74-.68-2.86-.1-1.59.92-1.93a15.17,15.17,0,0,0,2.48-.66c.47-.34,0-.92-.06-1.6s.5-.35,1.06-.43.26-2.05,1-2.9c.52-.59.61-1.37.27-1.44C107.45,43.38,104.46,42.87,98.3,42.65Z"></path>
      <path class="cls-17" d="M89.68,42.69a70,70,0,0,1,.2,19.87,70.65,70.65,0,0,0-1.79-19.8Z"></path>
      <path class="cls-17" d="M89.72,44.55A24.71,24.71,0,0,1,85.2,50.3a34.78,34.78,0,0,1-5.66,4.47,35.08,35.08,0,0,0,5.22-4.89A23.75,23.75,0,0,0,88.61,44Z"></path>
      <polygon class="cls-17" points="89.54 43.65 102.04 54.87 88.56 44.85 89.54 43.65"></polygon>
      <path class="cls-17" d="M94.61,48.32a31.22,31.22,0,0,1,2.45,8.61A30.9,30.9,0,0,0,94,48.65Z"></path>
      <path class="cls-12" d="M115.12,106.61C109.42,96.78,107.65,93,88,93.43c-14.4.29-17.83,12.27-17.17,21.68h46A14.13,14.13,0,0,0,115.12,106.61Z"></path>
      <path class="cls-13" d="M115.12,106.61c-.71-1.22-1.35-2.32-2-3.36-.08.91-.17,1.73-.28,2.41-.57,3.17-1.25,6.33-2,9.45h6A14.13,14.13,0,0,0,115.12,106.61Z"></path>
      <path class="cls-13" d="M102.31,114.29c.41-2.6-.25-6.52-2.09-8.47-.35,1.49,0,3.23-.06,4.79a34.54,34.54,0,0,1-.63,4.5h2.61C102.2,114.84,102.27,114.57,102.31,114.29Z"></path>
      <path class="cls-15" d="M68.61,110c1.63.18,3.16,1.85,4.43-.43a25.57,25.57,0,0,0,2.1-6.73c.43-1.77,1.8.19,1.78-2.59,0-2,1.9-3.78,1.93-5.75l-.52,0c-.53,0-1.26,0-2.1-.07a13.39,13.39,0,0,1-1,2.2,11,11,0,0,1-2.1,2.73,12.65,12.65,0,0,1-9.52,7.84l-2.16,7.33c-.13.46-.28.92-.43,1.38a5,5,0,0,0,1.13-2.61c0-1,2.43-.54,3.41-.89S67,109.82,68.61,110Z"></path>
      <path class="cls-8" d="M79,116.87a1.05,1.05,0,0,0-1-.36c-.54.17-.76.6-.67.76s.14.14.21.21.42-.25.44-.25Z"></path>
      <path class="cls-19" d="M79.23,117.54s-.17-.75-.45-.76-.6,0-.6,0l-.08.13s.28.49.39.53l.38.11A1.71,1.71,0,0,0,79.23,117.54Z"></path>
      <path class="cls-10" d="M79.21,117.63c0-.07.07-.24-.11-.29s-.36-.08-.36-.08l-.54.4c-.09,0-.15,0,.11.12s.26.14.49.11A.7.7,0,0,0,79.21,117.63Z"></path>
      <path class="cls-11" d="M78.74,117.26a3.06,3.06,0,0,0-.33.33c-.13.15-.16.2-.32.12s-.57-.14-.67-.3-.1-.14,0-.32a.83.83,0,0,1,.53-.33.47.47,0,0,1,.52.11A1.26,1.26,0,0,1,78.74,117.26Z"></path>
      <path class="cls-8" d="M74.82,109.73s-3.17-1.58-5.38.35-2.33,4.41-1.57,4.94a10.4,10.4,0,0,0,1.39.56c.91.33,1.48-2,1.53-2.08S74.82,109.73,74.82,109.73Z"></path>
      <path class="cls-19" d="M77.52,112.23s-2.35-3.15-3.69-2.59-2.9,1-2.9,1l-.09.8s2.31,1.72,2.92,1.67,1.71-.26,2-.26A13.36,13.36,0,0,0,77.52,112.23Z"></path>
      <path class="cls-10" d="M77.61,112.71c0-.35-.16-1.25-1.11-1.13a14.74,14.74,0,0,0-1.86.4s-1.39,2.52-1.69,3-.6.53.78.35,1.49.14,2.53-.49A3.57,3.57,0,0,0,77.61,112.71Z"></path>
      <path class="cls-11" d="M74.64,112a16.57,16.57,0,0,0-.87,2.19c-.28,1-.3,1.27-1.2,1.22s-2.94.54-3.76,0-.77-.44-.54-1.59a4.18,4.18,0,0,1,1.79-2.6,2.34,2.34,0,0,1,2.68-.56A6.06,6.06,0,0,1,74.64,112Z"></path>
      <path class="cls-8" d="M87,110.74s-1.83-2.48-4.31-1.87-3.55,2.49-3.17,3.21a8.67,8.67,0,0,0,.85,1c.57.62,2-1,2-1S87,110.74,87,110.74Z"></path>
      <path class="cls-19" d="M88.1,113.75s-.57-3.37-1.83-3.47-2.64-.38-2.64-.38l-.39.58s1.11,2.25,1.6,2.45,1.43.48,1.64.59A12.72,12.72,0,0,0,88.1,113.75Z"></path>
      <path class="cls-10" d="M88,114.16c.11-.28.37-1-.41-1.31a12.43,12.43,0,0,0-1.61-.44s-2.07,1.4-2.48,1.61-.66.17.47.58,1.1.71,2.15.63A3.1,3.1,0,0,0,88,114.16Z"></path>
      <path class="cls-11" d="M86,112.41a13.58,13.58,0,0,0-1.53,1.35c-.62.66-.74.87-1.42.47s-2.49-.75-2.92-1.48-.42-.64.21-1.45A3.68,3.68,0,0,1,82.73,110a2,2,0,0,1,2.3.63A5.23,5.23,0,0,1,86,112.41Z"></path>
      <path class="cls-8" d="M78.52,112s-2.62-2-5-.65S70.6,115,71.2,115.63a9.32,9.32,0,0,0,1.17.75c.77.48,1.72-1.6,1.78-1.62S78.52,112,78.52,112Z"></path>
      <path class="cls-19" d="M80.54,114.81s-1.58-3.31-2.91-3a27.7,27.7,0,0,1-2.84.39l-.23.72s1.81,2,2.38,2,1.62.08,1.86.13A12.17,12.17,0,0,0,80.54,114.81Z"></path>
      <path class="cls-10" d="M80.54,115.26c0-.32.08-1.17-.81-1.23a14,14,0,0,0-1.78,0s-1.73,2.06-2.09,2.4-.63.37.66.46,1.34.4,2.41,0A3.36,3.36,0,0,0,80.54,115.26Z"></path>
      <path class="cls-11" d="M78,114.06a15.14,15.14,0,0,0-1.19,1.85c-.44.86-.51,1.11-1.33.9s-2.79,0-3.44-.66-.63-.54-.22-1.56a3.91,3.91,0,0,1,2.12-2,2.2,2.2,0,0,1,2.56,0A5.88,5.88,0,0,1,78,114.06Z"></path>
      <path class="cls-8" d="M92.14,116.62a1.6,1.6,0,0,0,1.46-.72c.39-.79.13-1.49-.14-1.55a2.35,2.35,0,0,0-.45,0c-.29,0-.17.74-.18.75S92.14,116.62,92.14,116.62Z"></path>
      <path class="cls-19" d="M91.11,116.24s1,.6,1.32.29.69-.61.69-.61l-.07-.23a3.1,3.1,0,0,0-1-.12c-.17.08-.45.26-.52.3A3.4,3.4,0,0,0,91.11,116.24Z"></path>
      <path class="cls-10" d="M91,116.12c0,.09.19.33.44.18a3.71,3.71,0,0,0,.47-.32s.1-.86.13-1,.11-.21-.25,0-.43.13-.65.42A1.08,1.08,0,0,0,91,116.12Z"></path>
      <path class="cls-11" d="M91.93,116a4.22,4.22,0,0,0,0-.71c0-.31-.06-.39.19-.48s.76-.49,1-.44.27,0,.34.38a1.25,1.25,0,0,1-.2.93.71.71,0,0,1-.68.47A2,2,0,0,1,91.93,116Z"></path>
      <path class="cls-8" d="M67.21,117.18a2,2,0,0,0,1.91-.78c.57-1,.31-1.89,0-2a3.21,3.21,0,0,0-.58,0c-.37,0-.28.92-.3.94Z"></path>
      <path class="cls-19" d="M65.92,116.61s1.24.85,1.66.49a11.36,11.36,0,0,1,.93-.72l-.06-.3a4.24,4.24,0,0,0-1.27-.25l-.69.34A5.49,5.49,0,0,0,65.92,116.61Z"></path>
      <path class="cls-10" d="M65.83,116.45c0,.12.21.43.54.27a4.66,4.66,0,0,0,.63-.38s.19-1.08.25-1.27.15-.27-.32,0-.56.13-.86.48A1.35,1.35,0,0,0,65.83,116.45Z"></path>
      <path class="cls-11" d="M67,116.34a7.5,7.5,0,0,0,0-.9c0-.39,0-.49.28-.59s1-.55,1.37-.47.33.07.39.52a1.64,1.64,0,0,1-.33,1.16.9.9,0,0,1-.91.53A2.3,2.3,0,0,1,67,116.34Z"></path>
      <path class="cls-8" d="M74.49,115.77a1.27,1.27,0,0,1,1.18-.18c.58.27.73.73.6.87a2,2,0,0,1-.28.17c-.18.11-.42-.32-.44-.33Z"></path>
      <path class="cls-19" d="M74,116.37s.35-.71.67-.66.68.05.68.05l.06.15s-.41.44-.55.45l-.44,0A3.75,3.75,0,0,1,74,116.37Z"></path>
      <path class="cls-10" d="M74,116.47c0-.07,0-.25.18-.27a3.37,3.37,0,0,1,.42,0s.43.42.52.49.16.07-.15.1-.31.09-.57,0A.73.73,0,0,1,74,116.47Z"></path>
      <path class="cls-11" d="M74.64,116.19a2.78,2.78,0,0,1,.3.38c.12.18.14.23.33.18s.66,0,.81-.17.15-.12,0-.33a.88.88,0,0,0-.53-.41.58.58,0,0,0-.61,0A1.25,1.25,0,0,0,74.64,116.19Z"></path>
      <path class="cls-8" d="M85.17,112.77s-2.46-1.82-4.63-.51-2.64,3.4-2.07,4a7.21,7.21,0,0,0,1.1.68c.72.43,1.56-1.52,1.61-1.54S85.17,112.77,85.17,112.77Z"></path>
      <path class="cls-19" d="M87.1,115.3s-1.53-3-2.75-2.76-2.62.41-2.62.41l-.2.67s1.71,1.81,2.24,1.85,1.5,0,1.73.08A11.54,11.54,0,0,0,87.1,115.3Z"></path>
      <path class="cls-10" d="M87.11,115.72c0-.3,0-1.09-.78-1.13a13.12,13.12,0,0,0-1.65.06s-1.55,1.94-1.88,2.26-.58.36.62.42,1.24.34,2.22,0A3.07,3.07,0,0,0,87.11,115.72Z"></path>
      <path class="cls-11" d="M84.68,114.65a14,14,0,0,0-1.06,1.74c-.39.8-.44,1-1.21.86s-2.58,0-3.2-.54-.59-.49-.23-1.45a3.66,3.66,0,0,1,1.92-1.94,2,2,0,0,1,2.37-.08A5.37,5.37,0,0,1,84.68,114.65Z"></path>
      <path class="cls-8" d="M72,115.61s-2-.37-2.93,1.06-.58,2.83-.07,3a5.87,5.87,0,0,0,.86.08c.56,0,.49-1.37.52-1.4S72,115.61,72,115.61Z"></path>
      <path class="cls-19" d="M74,116.56s-1.82-1.37-2.47-.84-1.45,1-1.45,1l.08.46a6.16,6.16,0,0,0,1.89.45c.33-.13.91-.42,1.06-.46A8.56,8.56,0,0,0,74,116.56Z"></path>
      <path class="cls-10" d="M74.07,116.81c-.07-.19-.29-.67-.79-.44a7.37,7.37,0,0,0-1,.52s-.37,1.62-.47,1.91-.24.39.49.06.85-.16,1.33-.67A2,2,0,0,0,74.07,116.81Z"></path>
      <path class="cls-11" d="M72.31,116.89a9.51,9.51,0,0,0-.13,1.35c0,.6,0,.76-.47.88s-1.55.77-2.08.61-.51-.11-.57-.79a2.48,2.48,0,0,1,.58-1.74,1.36,1.36,0,0,1,1.4-.74A3.43,3.43,0,0,1,72.31,116.89Z"></path>
      <path class="cls-8" d="M100.36,121.54a1.25,1.25,0,0,0-1.2-.44c-.67.2-.93.73-.82.92s.17.17.25.25.52-.3.53-.3Z"></path>
      <path class="cls-19" d="M100.7,122.34s-.2-.91-.55-.92-.72-.06-.72-.06l-.1.17s.34.59.48.64l.45.13A2.64,2.64,0,0,0,100.7,122.34Z"></path>
      <path class="cls-10" d="M100.68,122.45c0-.08.08-.28-.14-.35a3.5,3.5,0,0,0-.44-.09s-.54.41-.65.48-.18.05.14.15.31.17.59.13A.83.83,0,0,0,100.68,122.45Z"></path>
      <path class="cls-11" d="M100.1,122a3.81,3.81,0,0,0-.4.39c-.15.19-.18.25-.37.15s-.69-.17-.82-.36-.12-.17,0-.4a1,1,0,0,1,.63-.38.55.55,0,0,1,.64.13A1.42,1.42,0,0,1,100.1,122Z"></path>
      <path class="cls-8" d="M94,111.81s-3.83-1.92-6.5.42-2.81,5.33-1.89,6a12.13,12.13,0,0,0,1.68.67c1.1.41,1.79-2.47,1.85-2.51S94,111.81,94,111.81Z"></path>
      <path class="cls-19" d="M97.22,114.83s-2.84-3.81-4.46-3.14-3.5,1.21-3.5,1.21l-.11,1s2.79,2.08,3.53,2,2.07-.3,2.4-.3A17.8,17.8,0,0,0,97.22,114.83Z"></path>
      <path class="cls-10" d="M97.33,115.41c0-.43-.19-1.51-1.33-1.36a15,15,0,0,0-2.26.48s-1.67,3-2,3.56-.72.64.94.42,1.8.17,3.06-.59A4.28,4.28,0,0,0,97.33,115.41Z"></path>
      <path class="cls-11" d="M93.74,114.53a19.67,19.67,0,0,0-1,2.64c-.34,1.2-.36,1.54-1.45,1.48s-3.56.65-4.54,0-.94-.53-.67-1.93.92-2,2.18-3.13a2.86,2.86,0,0,1,3.24-.69A7.32,7.32,0,0,1,93.74,114.53Z"></path>
      <path class="cls-8" d="M107.19,112.61s-3.21-1.89-5.67,0-2.76,4.46-2,5.08a11.84,11.84,0,0,0,1.41.68c.94.42,1.71-2,1.76-2.07S107.19,112.61,107.19,112.61Z"></path>
      <path class="cls-19" d="M109.85,115.43s-2.24-3.47-3.69-3-3.11.83-3.11.83l-.16.83s2.31,2,3,2,1.81-.14,2.1-.12A14.1,14.1,0,0,0,109.85,115.43Z"></path>
      <path class="cls-10" d="M109.91,115.94c0-.37-.08-1.32-1.08-1.26a14.52,14.52,0,0,0-2,.28s-1.64,2.54-2,3-.66.51.8.42,1.55.26,2.69-.33A3.73,3.73,0,0,0,109.91,115.94Z"></path>
      <path class="cls-11" d="M106.84,115a17.65,17.65,0,0,0-1.07,2.23c-.37,1-.4,1.31-1.35,1.19s-3.13.35-3.94-.25-.78-.52-.46-1.71a4.45,4.45,0,0,1,2.07-2.6,2.49,2.49,0,0,1,2.86-.39A6.28,6.28,0,0,1,106.84,115Z"></path>
      <path class="cls-8" d="M115.69,109.22s-3.16-2.45-6-.79-3.53,4.38-2.81,5.14a12.84,12.84,0,0,0,1.42.91c.94.58,2.08-1.94,2.15-2S115.69,109.22,115.69,109.22Z"></path>
      <path class="cls-19" d="M118.14,112.58s-1.91-4-3.52-3.68-3.43.47-3.43.47l-.28.86s2.19,2.41,2.88,2.49,1.95.09,2.25.15A16.38,16.38,0,0,0,118.14,112.58Z"></path>
      <path class="cls-10" d="M118.14,113.13c0-.4.09-1.42-1-1.49a15.75,15.75,0,0,0-2.16,0s-2.08,2.49-2.51,2.9-.78.45.79.56,1.62.48,2.91,0A4,4,0,0,0,118.14,113.13Z"></path>
      <path class="cls-11" d="M115,111.67a17.76,17.76,0,0,0-1.43,2.24c-.54,1-.61,1.34-1.61,1.09s-3.37,0-4.16-.8-.76-.65-.26-1.89,1.21-1.71,2.56-2.48a2.65,2.65,0,0,1,3.09,0A6.87,6.87,0,0,1,115,111.67Z"></path>
      <path class="cls-8" d="M118.15,119.45a1.93,1.93,0,0,0,1.76-.86c.47-1,.16-1.81-.17-1.88a3.37,3.37,0,0,0-.54,0c-.36,0-.21.89-.23.91S118.15,119.45,118.15,119.45Z"></path>
      <path class="cls-19" d="M116.89,119s1.23.73,1.6.36a11.1,11.1,0,0,1,.84-.74l-.08-.28a4,4,0,0,0-1.22-.15c-.2.1-.54.32-.63.36A5.17,5.17,0,0,0,116.89,119Z"></path>
      <path class="cls-10" d="M116.8,118.85a.36.36,0,0,0,.52.22,4.21,4.21,0,0,0,.57-.4s.12-1,.16-1.22.13-.26-.31,0-.52.16-.78.52A1.3,1.3,0,0,0,116.8,118.85Z"></path>
      <path class="cls-11" d="M117.89,118.67a6,6,0,0,0,0-.85c0-.37-.08-.47.23-.58s.91-.59,1.26-.53.32,0,.41.46a1.56,1.56,0,0,1-.24,1.12.85.85,0,0,1-.83.56A2.07,2.07,0,0,1,117.89,118.67Z"></path>
      <path class="cls-8" d="M88,120.14a2.44,2.44,0,0,0,2.31-1c.69-1.17.37-2.28,0-2.4a6.12,6.12,0,0,0-.69,0c-.45,0-.35,1.12-.37,1.14Z"></path>
      <path class="cls-19" d="M86.44,119.44s1.5,1,2,.59,1.13-.87,1.13-.87l-.08-.36a5.09,5.09,0,0,0-1.53-.3c-.26.11-.72.37-.84.41A7.09,7.09,0,0,0,86.44,119.44Z"></path>
      <path class="cls-10" d="M86.33,119.24c.07.15.26.53.66.33a6.4,6.4,0,0,0,.76-.45s.23-1.31.3-1.55.19-.31-.39,0-.68.16-1,.59A1.62,1.62,0,0,0,86.33,119.24Z"></path>
      <path class="cls-11" d="M87.75,119.12a6.82,6.82,0,0,0,0-1.09c0-.48,0-.6.35-.71s1.21-.68,1.65-.57.4.08.48.62a2,2,0,0,1-.41,1.41,1.09,1.09,0,0,1-1.09.64A2.8,2.8,0,0,1,87.75,119.12Z"></path>
      <path class="cls-8" d="M98.6,114.08a1.41,1.41,0,0,0,1.43.25c.7-.36.89-1,.72-1.19a2.72,2.72,0,0,0-.32-.23c-.22-.15-.52.44-.54.44Z"></path>
      <path class="cls-19" d="M98.05,113.26s.42,1,.81.91.82-.08.82-.08l.07-.2s-.5-.59-.66-.62-.46,0-.53-.06S98.05,113.26,98.05,113.26Z"></path>
      <path class="cls-10" d="M98.06,113.13c0,.09,0,.34.22.36a3.72,3.72,0,0,0,.51,0s.52-.57.63-.67.19-.1-.18-.14-.38-.13-.69,0A1,1,0,0,0,98.06,113.13Z"></path>
      <path class="cls-11" d="M98.79,113.51a4.85,4.85,0,0,0,.37-.52c.13-.24.16-.31.39-.24s.8,0,1,.23.18.16,0,.45a1.17,1.17,0,0,1-.64.57.65.65,0,0,1-.74,0A1.63,1.63,0,0,1,98.79,113.51Z"></path>
      <path class="cls-8" d="M111.49,119.53s3.6.87,5.41-1.61,1.34-5,.44-5.4a12,12,0,0,0-1.54-.24c-1-.13-1,2.43-1.08,2.47S111.49,119.53,111.49,119.53Z"></path>
      <path class="cls-19" d="M108.16,117.61s3.12,2.66,4.36,1.79,2.72-1.69,2.72-1.69l-.09-.84s-2.76-1.21-3.37-1-1.68.65-2,.72A13.25,13.25,0,0,0,108.16,117.61Z"></path>
      <path class="cls-10" d="M108,117.15c.12.34.46,1.23,1.39.88a13.74,13.74,0,0,0,1.81-.83s.83-2.89,1-3.4.48-.68-.88-.17-1.55.2-2.46,1.08A3.73,3.73,0,0,0,108,117.15Z"></path>
      <path class="cls-11" d="M111.15,117.2a16.75,16.75,0,0,0,.38-2.43c0-1.09,0-1.37.94-1.53s2.87-1.23,3.82-.89.89.26.93,1.49a4.42,4.42,0,0,1-1.23,3.07,2.48,2.48,0,0,1-2.6,1.2A6.42,6.42,0,0,1,111.15,117.2Z"></path>
      <path class="cls-8" d="M94.91,117.45s2.16,1.21,3.77-.06,1.77-3,1.26-3.39a6.77,6.77,0,0,0-1-.44c-.62-.27-1.1,1.38-1.14,1.4S94.91,117.45,94.91,117.45Z"></path>
      <path class="cls-19" d="M93.11,115.61s1.53,2.28,2.48,1.94a21.17,21.17,0,0,1,2.07-.59l.09-.56s-1.56-1.28-2-1.26-1.2.11-1.39.11A9.17,9.17,0,0,0,93.11,115.61Z"></path>
      <path class="cls-10" d="M93.06,115.28c0,.24.07.87.73.82a9.17,9.17,0,0,0,1.32-.21s1.06-1.71,1.28-2,.44-.35-.53-.27-1-.16-1.78.25A2.5,2.5,0,0,0,93.06,115.28Z"></path>
      <path class="cls-11" d="M95.11,115.89a10.71,10.71,0,0,0,.68-1.5c.24-.69.25-.88.89-.81s2.07-.28,2.62.11.52.33.33,1.13a3,3,0,0,1-1.35,1.76,1.65,1.65,0,0,1-1.89.3A4.27,4.27,0,0,1,95.11,115.89Z"></path>
    </g>
  </g>
</svg>
