<?xml version="1.0" encoding="UTF-8"?>
<svg xmlns="http://www.w3.org/2000/svg" xmlns:xlink="http://www.w3.org/1999/xlink" viewBox="0 0 110.12 162.42">
  <defs>
    <style>.cls-1{fill:none;}.cls-2{fill:#8e6848;}.cls-3{clip-path:url(#clip-path);}.cls-4{fill:url(#Безымянный_градиент_2);}.cls-5{fill:#713e21;}.cls-6{fill:#3d271f;}.cls-7{fill:#69391e;}.cls-8{fill:#6b472f;}.cls-9{fill:#5c3624;}.cls-10{fill:#795135;}.cls-11{fill:#9a734f;}.cls-12{fill:#fff;}.cls-13{fill:#f0f5ad;}.cls-14{fill:#85563a;}.cls-15{fill:#abc847;}.cls-16{fill:#cae36f;}.cls-17{fill:#6b482f;}</style>
    <clipPath id="clip-path">
      <polygon class="cls-1" points="7.72 133.75 57.69 157.27 103.91 133.86 55.86 113.5 7.72 133.75"></polygon>
    </clipPath>
    <linearGradient id="Безымянный_градиент_2" x1="-2894.89" y1="-53.51" x2="-2892.09" y2="-53.51" gradientTransform="matrix(34.36, 0, 0, -34.36, 99453.82, -1702.89)" gradientUnits="userSpaceOnUse">
      <stop offset="0" stop-color="#9b714e"></stop>
      <stop offset="0.38" stop-color="#9b714e"></stop>
      <stop offset="0.89" stop-color="#764528"></stop>
      <stop offset="1" stop-color="#6e3c20"></stop>
    </linearGradient>
  </defs>
  <g id="Слой_2" data-name="Слой 2">
    <g id="Слой_1-2" data-name="Слой 1">
      <path class="cls-2" d="M57.69,91.11s9.62,11.3,17.06,11.77,32.81-7.57,32.81-7.57l2.56-26.43L57.69,50.39Z"></path>
      <path class="cls-2" d="M0,67l5.23,34.47s18.58,2.79,21.83,1.86,18.12-6.5,22.29-6.5,8.34-5.73,8.34-5.73V50.39Z"></path>
      <g class="cls-3">
        <rect class="cls-4" x="31.38" y="86.18" width="48.87" height="98.4" transform="translate(-82.37 183.85) rotate(-86.92)"></rect>
      </g>
      <path class="cls-5" d="M7.72,133.75,5.23,101.48s23.69-.46,30.19-3.72,22.27-6.65,22.27-6.65L55.86,113.5Z"></path>
      <path class="cls-6" d="M41.49,103.49a8.4,8.4,0,0,0-2.84-1.67l0,0s-3.79-1.13-5.85,1.41-1.71,5.29-.77,5.73a10.92,10.92,0,0,0,1.63.35l.09-.05a28.27,28.27,0,0,0,3.51-.79,1.76,1.76,0,0,0,.6-.16l.65-.19c1.49-.46,1.67-.13,2.69-1a3.94,3.94,0,0,0,1.09-2.54L42.1,104h0l0,0a1,1,0,0,0-.58-.5"></path>
      <path class="cls-6" d="M21.2,106.81a11,11,0,0,0-4,1.33v0s-4.3,2.7-3.59,6.84,3.66,6.13,4.88,5.6a13.64,13.64,0,0,0,1.71-1.28l0-.13c.92-1,1.59-3.16,2.21-4a2,2,0,0,0,.35-.72c.11-.2.21-.42.38-.79.8-1.82,1.28-1.71,1.29-3.46a5.12,5.12,0,0,0-1.54-3.21,3.36,3.36,0,0,0-.66-.22v0h-.08a1.26,1.26,0,0,0-1,.13"></path>
      <path class="cls-7" d="M57.69,91.11,55.86,113.5l48.06,20.36,3.64-38.55s-15-1.73-21.48-.8-17.84,3.72-21.24,1.86a44.41,44.41,0,0,1-7.15-5.26"></path>
      <path class="cls-6" d="M39.39,114.11a3.28,3.28,0,0,0-1.26-.3h0a2.29,2.29,0,0,0-2,1.18c-.49,1.19-.05,2.18.35,2.24l.65-.06,0,0a12.3,12.3,0,0,0,1.23-.69l.21-.13.22-.14c.51-.34.61-.24.9-.69a1.56,1.56,0,0,0,.12-1.07l-.13-.17h0Z"></path>
      <path class="cls-6" d="M86.47,104.48a2.35,2.35,0,0,0-.11-.9h0s-.38-1-1.27-1-1.43.51-1.38.78l.2.41,0,0,.75.63.13.1.15.11c.35.24.3.34.66.41a1.08,1.08,0,0,0,.74-.18l.07-.13h0v-.22Z"></path>
      <path class="cls-6" d="M99.89,120.66a11,11,0,0,0-1.9-3.82h0s-3.32-3.9-7.36-2.59-5.59,4.53-4.88,5.68a14.36,14.36,0,0,0,1.52,1.52l.14,0c1.19.77,3.39,1.13,4.37,1.61a2.24,2.24,0,0,0,.77.26c.22.07.45.15.84.26,1.93.54,1.9,1,3.64.79a5.19,5.19,0,0,0,3-2,3.74,3.74,0,0,0,.13-.68h0l0-.07a1.27,1.27,0,0,0-.28-1"></path>
      <path class="cls-6" d="M73.78,107.37a8.59,8.59,0,0,0-1.87,2.69l0,0s-1.4,3.67,1,5.9S78,118,78.48,117.13a12.49,12.49,0,0,0,.46-1.59l0-.09a27.75,27.75,0,0,0-.52-3.54,1.77,1.77,0,0,0-.12-.61c0-.17-.07-.35-.13-.66-.35-1.49,0-1.65-.81-2.73a4,4,0,0,0-2.44-1.27l-.51.17h0l0,0a.94.94,0,0,0-.54.53"></path>
      <path class="cls-8" d="M74,134.75a1.58,1.58,0,0,0,1.57-.41c.54-.7.43-1.44.17-1.55l-.44-.09c-.29,0-.32.7-.33.71Z"></path>
      <path class="cls-9" d="M73,134.17s.87.79,1.23.55.8-.46.8-.46l0-.24-1-.32-.56.19Z"></path>
      <path class="cls-10" d="M73,134c0,.1.12.36.4.27s.52-.23.52-.23l.33-1c.06-.14.14-.19-.25-.06s-.45,0-.72.3A1.07,1.07,0,0,0,73,134"></path>
      <path class="cls-11" d="M73.88,134.08a5.57,5.57,0,0,0,.13-.7c0-.3,0-.39.28-.42s.84-.34,1.11-.23.26.09.26.44a1.28,1.28,0,0,1-.39.87.7.7,0,0,1-.75.32,1.87,1.87,0,0,1-.64-.28"></path>
      <path class="cls-8" d="M63.28,128.63s2.39.12,3.24-1.67.26-3.36-.36-3.49a7.39,7.39,0,0,0-1,0c-.66,0-.37,1.67-.39,1.7Z"></path>
      <path class="cls-9" d="M60.93,127.8s2.3,1.32,3,.62,1.53-1.4,1.53-1.4l-.15-.52a7.53,7.53,0,0,0-2.27-.25c-.36.2-1,.62-1.16.69Z"></path>
      <path class="cls-10" d="M60.74,127.53c.11.21.43.73,1,.4a8.38,8.38,0,0,0,1.05-.75s.18-1.93.26-2.28.22-.49-.58,0-1,.31-1.44,1a2.41,2.41,0,0,0-.28,1.66"></path>
      <path class="cls-11" d="M62.78,127.18a11.07,11.07,0,0,0-.05-1.59c-.09-.69-.16-.87.42-1.08s1.68-1.13,2.32-1,.6.07.77.84a2.88,2.88,0,0,1-.41,2.1,1.59,1.59,0,0,1-1.52,1.07,4,4,0,0,1-1.53-.31"></path>
      <path class="cls-8" d="M53.32,136.39s1.86,1.42,3.54.44,2-2.59,1.62-3a7,7,0,0,0-.84-.53c-.55-.33-1.21,1.15-1.25,1.17Z"></path>
      <path class="cls-9" d="M51.86,134.44s1.15,2.33,2.08,2.14,2-.3,2-.3l.16-.5s-1.29-1.4-1.7-1.44-1.14-.05-1.32-.08Z"></path>
      <path class="cls-10" d="M51.86,134.12c0,.23,0,.83.59.87a10.13,10.13,0,0,0,1.26,0l1.46-1.71c.25-.25.45-.27-.47-.33s-1-.27-1.7,0a2.35,2.35,0,0,0-1.14,1.19"></path>
      <path class="cls-11" d="M53.71,135a11.63,11.63,0,0,0,.83-1.32c.3-.61.35-.79.93-.65s2,0,2.44.45.45.38.17,1.1A2.85,2.85,0,0,1,56.59,136a1.58,1.58,0,0,1-1.81,0A4.06,4.06,0,0,1,53.71,135"></path>
      <path class="cls-8" d="M49,130a2.67,2.67,0,0,0,.1-2.73c-.86-1.21-2.11-1.39-2.41-1l-.35.68c-.22.44,1,.84,1,.87Z"></path>
      <path class="cls-9" d="M47.63,131.19s1.7-1,1.49-1.72a15.08,15.08,0,0,1-.35-1.51l-.4-.09s-1,1.08-1,1.39,0,.87,0,1Z"></path>
      <path class="cls-10" d="M47.39,131.22c.18,0,.63,0,.62-.51a7.72,7.72,0,0,0-.11-1l-1.4-1c-.2-.17-.23-.32-.21.38s-.15.74.12,1.3a1.79,1.79,0,0,0,1,.79"></path>
      <path class="cls-11" d="M47.9,129.76a8.8,8.8,0,0,0-1.06-.55c-.49-.19-.62-.21-.55-.67s-.13-1.51.17-1.89.26-.37.84-.2a2.16,2.16,0,0,1,1.21,1,1.18,1.18,0,0,1,.15,1.38,3,3,0,0,1-.76.89"></path>
      <path class="cls-8" d="M40.56,132a1.17,1.17,0,0,0,.38-1.12c-.2-.61-.69-.84-.86-.73l-.23.23.29.49Z"></path>
      <path class="cls-9" d="M39.82,132.3s.83-.2.84-.52,0-.67,0-.67l-.15-.09-.58.45-.12.42Z"></path>
      <path class="cls-10" d="M39.71,132.28l.33-.13.08-.41-.46-.59c-.06-.1,0-.16-.13.13s-.16.29-.12.55a.77.77,0,0,0,.3.45"></path>
      <path class="cls-11" d="M40.12,131.74l-.37-.36L39.6,131l.32-.76.37,0a.92.92,0,0,1,.37.58.51.51,0,0,1-.12.59Z"></path>
      <path class="cls-8" d="M38,136.64s1.64-2.63.13-4.72-3.65-2.39-4.18-1.77a8.62,8.62,0,0,0-.6,1.16c-.37.77,1.66,1.46,1.69,1.51Z"></path>
      <path class="cls-9" d="M35.56,138.8s2.94-1.8,2.56-3-.63-2.61-.63-2.61L36.8,133s-1.69,1.88-1.69,2.42.08,1.51.06,1.75Z"></path>
      <path class="cls-10" d="M35.13,138.84c.31,0,1.1,0,1.07-.88A12.44,12.44,0,0,0,36,136.3s-2.09-1.41-2.44-1.72-.41-.56-.36.66-.25,1.29.21,2.25a3.15,3.15,0,0,0,1.71,1.35"></path>
      <path class="cls-11" d="M36,136.3a14.22,14.22,0,0,0-1.84-.93c-.85-.33-1.08-.37-1-1.15s-.23-2.62.29-3.28.45-.64,1.44-.35a3.69,3.69,0,0,1,2.12,1.78,2.07,2.07,0,0,1,.27,2.39A5.38,5.38,0,0,1,36,136.3"></path>
      <path class="cls-12" d="M57.87,87.91a2.29,2.29,0,0,1,.68,1.45,4.73,4.73,0,0,1-.1,1.46,9.48,9.48,0,0,1-1.06,2.59c-.45.81-1,1.55-1.41,2.32a6.34,6.34,0,0,0-.88,2.45,4,4,0,0,0,.63,2.47c.44.77,1,1.51,1.44,2.29a12.45,12.45,0,0,1,1.2,2.46,4.43,4.43,0,0,1,.26,1.35,1.57,1.57,0,0,1-.46,1.29,0,0,0,0,1-.07,0,.05.05,0,0,1,0-.08h0a1.55,1.55,0,0,0,.37-1.2,4.81,4.81,0,0,0-.29-1.3A12.29,12.29,0,0,0,57,103.08c-.49-.76-1-1.47-1.52-2.26a6.34,6.34,0,0,1-.6-1.26,3.79,3.79,0,0,1-.15-1.42c.16-1.93,1.4-3.47,2.21-5a9,9,0,0,0,.93-2.44,4,4,0,0,0,.06-1.24,1.79,1.79,0,0,0-.43-1l-.05,0a.35.35,0,1,1,.46-.54Z"></path>
      <path class="cls-12" d="M58.23,90.07a1.71,1.71,0,0,1,.64.28,3,3,0,0,1,.51.41,5.91,5.91,0,0,1,.81,1,0,0,0,0,1,0,.07s0,0-.06,0a6.25,6.25,0,0,0-.88-.9,4.52,4.52,0,0,0-.51-.34,1.51,1.51,0,0,0-.53-.18h0a.15.15,0,0,1-.14-.18.16.16,0,0,1,.18-.14Z"></path>
      <path class="cls-12" d="M57.63,92.1a1.51,1.51,0,0,1,.84.45,1.23,1.23,0,0,1,.3.86,6.63,6.63,0,0,0,.07.79c0,.25.13.52.36.61a.06.06,0,0,1,0,.07.07.07,0,0,1-.07,0,.88.88,0,0,1-.53-.66,4.93,4.93,0,0,1-.18-.81.84.84,0,0,0-.28-.61,1,1,0,0,0-.6-.23h0a.26.26,0,1,1,0-.51Z"></path>
      <path class="cls-12" d="M55.74,95.54a1.07,1.07,0,0,1,1,.38,2.27,2.27,0,0,1,.25,1c0,.16,0,.31.14.37a4.85,4.85,0,0,1,.4.28,6.71,6.71,0,0,1,.71.7s0,.06,0,.07a0,0,0,0,1-.07,0,5.49,5.49,0,0,0-.72-.64,2.8,2.8,0,0,0-.41-.25.71.71,0,0,1-.26-.49,1.82,1.82,0,0,0-.25-.87.74.74,0,0,0-.74-.22h0a.17.17,0,0,1-.19-.13.16.16,0,0,1,.13-.19Z"></path>
      <path class="cls-12" d="M55.15,97.18a2.23,2.23,0,0,0-1.33.57,1.32,1.32,0,0,0-.33.63,1.54,1.54,0,0,1-.28.78c-.39.46-1,.47-1.43.72a.87.87,0,0,0-.42.62l-.22.76h0l.18-.78a.94.94,0,0,1,.41-.67c.46-.29,1.05-.35,1.34-.75a1.41,1.41,0,0,0,.2-.72,1.52,1.52,0,0,1,.36-.77,2.48,2.48,0,0,1,1.49-.75.18.18,0,0,1,.2.15.17.17,0,0,1-.15.2h0Z"></path>
      <path class="cls-12" d="M55.05,99.92a1.26,1.26,0,0,0-.82.3,2.2,2.2,0,0,0-.55.78,5.55,5.55,0,0,0-.39,2,.06.06,0,0,1-.06,0,0,0,0,0,1,0,0,5.71,5.71,0,0,1,.3-2,1.79,1.79,0,0,1,1.6-1.31.16.16,0,0,1,.17.16.16.16,0,0,1-.16.16h0Z"></path>
      <path class="cls-12" d="M57.82,104.5a.38.38,0,0,1,0-.1.12.12,0,0,1,.12-.06.31.31,0,0,1,.14.06,1.12,1.12,0,0,1,.2.17q.16.17.33.36c.21.24.41.5.61.75v0h0c-.22-.24-.43-.49-.65-.72s-.23-.23-.35-.33a1.33,1.33,0,0,0-.19-.14s-.06,0-.08,0,0,0,0,0v0a.07.07,0,0,1-.08,0S57.83,104.53,57.82,104.5Z"></path>
      <path class="cls-12" d="M58.54,106.19l1.16.68s0,0,0,0,0,0,0,0l-1.21-.6a.06.06,0,0,1,0-.09.07.07,0,0,1,.09,0Z"></path>
      <path class="cls-12" d="M56,101.1a3.59,3.59,0,0,1,1.72.35,5.75,5.75,0,0,1,1.43,1,9.14,9.14,0,0,1,1.16,1.25,14.46,14.46,0,0,1,.92,1.43.07.07,0,0,1,0,.09.07.07,0,0,1-.1,0,12.86,12.86,0,0,0-.95-1.37A8.17,8.17,0,0,0,59,102.58a5.49,5.49,0,0,0-1.39-.87,3.33,3.33,0,0,0-1.56-.29h0a.17.17,0,0,1-.18-.15.16.16,0,0,1,.15-.17Z"></path>
      <path class="cls-12" d="M56.57,101.17a4.86,4.86,0,0,1,1.89-1.82,2.4,2.4,0,0,1,1.29-.21,2.74,2.74,0,0,1,1.2.51s0,0,0,0a0,0,0,0,1-.05,0h0a2.82,2.82,0,0,0-1.17-.43,2.15,2.15,0,0,0-1.19.26,4.42,4.42,0,0,0-1.69,1.79h0a.16.16,0,0,1-.22.06.16.16,0,0,1-.06-.22Z"></path>
      <path class="cls-12" d="M58.29,101.81s-.11,0-.12,0h0l0,0,.11-.07.23-.13a1.85,1.85,0,0,1,.5-.17,1.38,1.38,0,0,1,1,.17s0,0,0,0,0,0,0,0a1.28,1.28,0,0,0-1-.08,1.51,1.51,0,0,0-.45.2,1.37,1.37,0,0,0-.2.13l-.1.08-.05,0,0,0h0s-.12,0-.15,0a.11.11,0,1,1,.15-.15Z"></path>
      <path class="cls-12" d="M59.3,102.68a2.49,2.49,0,0,0-.29.76.58.58,0,0,0,.23.68.06.06,0,0,1,0,.06s0,0,0,0a.7.7,0,0,1-.32-.77,2.68,2.68,0,0,1,.26-.83.09.09,0,1,1,.16.08Z"></path>
      <path class="cls-12" d="M60.13,103.58a2.51,2.51,0,0,1,2,.55,0,0,0,0,1,0,.05s0,0,0,0a3.22,3.22,0,0,0-.91-.45,2,2,0,0,0-1,0h0a.07.07,0,0,1-.09,0,.07.07,0,0,1,.05-.08Z"></path>
      <path class="cls-12" d="M55,98.25a10.11,10.11,0,0,1,1.17.31,3.83,3.83,0,0,1,.56.22,1.16,1.16,0,0,1,.51.38.07.07,0,0,1-.11.07h0a1.09,1.09,0,0,0-.47-.28,3.58,3.58,0,0,0-.56-.16,11.58,11.58,0,0,0-1.15-.21.16.16,0,1,1,0-.32Z"></path>
      <path class="cls-12" d="M56.24,87.69a1.65,1.65,0,0,0-1,1,8.35,8.35,0,0,0-.15,1.69,1.23,1.23,0,0,1-.53.93,2.34,2.34,0,0,1-1,.21.8.8,0,0,0-.6.28,1,1,0,0,0-.22.67c0,.26.06.53.08.86a.69.69,0,0,1-.2.56,1.66,1.66,0,0,0-.23.31c-.3.48-.56,1-.82,1.51A11.08,11.08,0,0,0,51,97.34a3,3,0,0,1-.87,1.52,0,0,0,0,1,0,0s0,0,0,0a3,3,0,0,0,.73-1.53,10.92,10.92,0,0,1,.56-1.67,14.66,14.66,0,0,1,.77-1.6,2.3,2.3,0,0,1,.29-.39c.06-.06.06-.1,0-.24s-.1-.56-.1-.88a1.53,1.53,0,0,1,.3-1,1.28,1.28,0,0,1,.91-.49,2.28,2.28,0,0,0,.74-.16.72.72,0,0,0,.26-.55,6.36,6.36,0,0,1,.17-1.78,1.53,1.53,0,0,1,1.47-1.2.17.17,0,0,1,.15.18.16.16,0,0,1-.1.14Z"></path>
      <path class="cls-12" d="M51.47,95.79a2.07,2.07,0,0,0-1.59.29,4.49,4.49,0,0,0-1.25,1.17.08.08,0,0,1-.11,0,.07.07,0,0,1,0-.1,4.55,4.55,0,0,1,1.27-1.24,2.28,2.28,0,0,1,1.77-.34.12.12,0,0,1,.08.14.12.12,0,0,1-.14.07h0Z"></path>
      <path class="cls-12" d="M52.49,93.86a2.77,2.77,0,0,1,.87,1.46,3.4,3.4,0,0,1,.06.84,1.52,1.52,0,0,1-.06.42c0,.14-.11.26,0,.35a0,0,0,0,1,0,.07,0,0,0,0,1-.07,0h0c-.1-.16,0-.32,0-.43a2.55,2.55,0,0,0,0-.39,5.06,5.06,0,0,0-.12-.78,2.44,2.44,0,0,0-.82-1.25l0,0a.17.17,0,0,1,0-.23.17.17,0,0,1,.24,0Z"></path>
      <path class="cls-12" d="M52.76,92.5c-.13.42-.19.8-.37,1.25a2.12,2.12,0,0,1-1.17.61c-.44.08-.85,0-1.26.06a7.81,7.81,0,0,0-1.22.16h0s0,0,0,0,0,0,0,0A6.13,6.13,0,0,1,50,94.29c.41-.07.85,0,1.23-.12a2,2,0,0,0,1-.57c.1-.33.18-.78.27-1.17v0a.17.17,0,0,1,.2-.12.16.16,0,0,1,.12.2Z"></path>
      <path class="cls-12" d="M52.71,92.12a4.67,4.67,0,0,0-1.57.31,1.51,1.51,0,0,0-1,1.09s0,.07-.08.06A.08.08,0,0,1,50,93.5,1.67,1.67,0,0,1,51,92.22a5,5,0,0,1,1.65-.43.17.17,0,0,1,.18.15.16.16,0,0,1-.14.18h0Z"></path>
      <path class="cls-12" d="M55,88.72l1.33.9a7.37,7.37,0,0,1,.66.48c.22.23.22.55.33.74v0a.05.05,0,0,1,0,.08.06.06,0,0,1-.07,0c-.17-.27-.18-.55-.36-.7s-.44-.28-.66-.42L54.87,89a.16.16,0,1,1,.15-.29Z"></path>
      <path class="cls-12" d="M55.57,87.94a3.51,3.51,0,0,1-1.12-.06,3.84,3.84,0,0,0-1.07,0,.36.36,0,0,0-.19.08,2.49,2.49,0,0,1-.28.15q-.27.12-.54.21c-.36.13-.76.22-1.08.33h0a.07.07,0,0,1-.08,0,.06.06,0,0,1,0-.08c.38-.19.71-.31,1.06-.47.17-.08.34-.16.49-.25a1.18,1.18,0,0,0,.22-.14.92.92,0,0,1,.31-.17,4.13,4.13,0,0,1,1.2-.09,2.49,2.49,0,0,1,1.14.21.17.17,0,0,1-.05.32Z"></path>
      <path class="cls-12" d="M53.85,87.78a1.35,1.35,0,0,0-.81.57,8.58,8.58,0,0,1-.3,1.08,1.81,1.81,0,0,1-.77.89,5.53,5.53,0,0,1-1,.54s-.07,0-.09,0a.07.07,0,0,1,0-.09,6.16,6.16,0,0,0,1-.56,1.58,1.58,0,0,0,.66-.83,11.33,11.33,0,0,0,.27-1.11,1.59,1.59,0,0,1,1-.76.17.17,0,0,1,.21.09.17.17,0,0,1-.1.22h0Z"></path>
      <path class="cls-12" d="M58.46,87.1l2.91,2.74a4.22,4.22,0,0,1,.81,1.92,5.38,5.38,0,0,1,0,2c-.22,1.29-.59,2.67.18,3.78a18.25,18.25,0,0,1,1,1.72,4.32,4.32,0,0,1,.42,2,.1.1,0,0,1-.09.08.08.08,0,0,1-.07-.08,4.26,4.26,0,0,0-.44-1.89,18.69,18.69,0,0,0-1.06-1.67,3.17,3.17,0,0,1-.54-2,16.08,16.08,0,0,1,.24-2,5,5,0,0,0-.09-1.92,3.85,3.85,0,0,0-.74-1.71l-3-2.67a.25.25,0,0,1,0-.35.24.24,0,0,1,.34,0h0Z"></path>
      <path class="cls-12" d="M63.64,100a6,6,0,0,0-.66.68,1.76,1.76,0,0,0-.43.82.06.06,0,0,1-.06,0,.07.07,0,0,1,0-.06,1.82,1.82,0,0,1,.43-.88,5.63,5.63,0,0,1,.67-.71.07.07,0,0,1,.1,0,.08.08,0,0,1,0,.1Z"></path>
      <path class="cls-12" d="M62.56,98a2.46,2.46,0,0,0-.87,1.91s0,0,0,.06a0,0,0,0,1,0,0,2.57,2.57,0,0,1,.83-2.07.11.11,0,0,1,.15,0,.11.11,0,0,1,0,.14h0Z"></path>
      <path class="cls-12" d="M61.4,90.18a1.17,1.17,0,0,1,1.1.37,4.87,4.87,0,0,1,.67.77,6.45,6.45,0,0,1,.52.87c.15.31.27.55.58.63.59.17,1.29.19,1.92.4A6.39,6.39,0,0,1,68,94a.06.06,0,0,1-.07.1h0a6.21,6.21,0,0,0-1.81-.71c-.63-.18-1.27-.16-2-.34a1,1,0,0,1-.48-.29,4.54,4.54,0,0,1-.28-.44,5.4,5.4,0,0,0-.52-.82,4.22,4.22,0,0,0-.64-.69,1,1,0,0,0-.69-.3l-.06,0a.2.2,0,0,1-.25-.11.19.19,0,0,1,.11-.25Z"></path>
      <path class="cls-12" d="M64.8,93a8.59,8.59,0,0,1,1.65.92,3,3,0,0,1,.63.72,4.53,4.53,0,0,0,.63.68.08.08,0,0,1,0,.1.08.08,0,0,1-.11,0,5.31,5.31,0,0,1-.65-.69,2.67,2.67,0,0,0-.61-.68,8.23,8.23,0,0,0-1.62-.89.09.09,0,0,1-.06-.12.09.09,0,0,1,.12,0Z"></path>
      <path class="cls-13" d="M55.06,87.15a1.85,1.85,0,0,0,.62,1.47,1.89,1.89,0,0,0,2.61-.25,2.08,2.08,0,0,0,.24-1.22Z"></path>
      <polygon class="cls-14" points="0 67.01 57.69 91.11 110.12 68.88 57.69 50.39 0 67.01"></polygon>
      <path class="cls-15" d="M38.27,33.75A39.91,39.91,0,0,1,38,22.3a24.48,24.48,0,0,1,1.4-5.7,14.09,14.09,0,0,1,3.37-5.06,11.93,11.93,0,0,1,2.57-1.75,10.19,10.19,0,0,1,1.37-.66,9.23,9.23,0,0,1,1.48-.51,7.93,7.93,0,0,1,6.39.74,10.13,10.13,0,0,1,3.92,4.91A24.8,24.8,0,0,1,60.14,20c1.29,7.67.79,15.32,0,22.87-.38,3.83-1.09,7.49-1.48,11.19a51.9,51.9,0,0,0-.35,11v.05a.92.92,0,0,1-1.83.22,53.13,53.13,0,0,1,.19-11.5c.34-3.79,1.05-7.52,1.39-11.22.71-7.42,1.16-15,0-22.3a22.64,22.64,0,0,0-1.43-5.24,11.09,11.09,0,0,0-1.27-2.31,6.75,6.75,0,0,0-1.83-1.71c-2.85-1.81-6.85-.25-9.51,1.83a12.34,12.34,0,0,0-3,4.35,24,24,0,0,0-1.53,5.27A46,46,0,0,0,39,33.66h0a.36.36,0,0,1-.34.4A.37.37,0,0,1,38.27,33.75Z"></path>
      <path class="cls-16" d="M68.11,20.14A32,32,0,0,0,62,29.71a51.39,51.39,0,0,0-3.22,11l-.44,2.84c-.14.94-.18,1.9-.28,2.85-.22,1.91-.2,3.83-.26,5.74s.12,3.84.17,5.75l.55,5.74v.07a1.21,1.21,0,1,1-2.41.23v0L55.7,58c0-2-.11-3.94,0-5.91s.13-3.94.41-5.9c.12-1,.19-2,.36-2.94L57,40.33a53.23,53.23,0,0,1,3.6-11.27,33.39,33.39,0,0,1,6.6-9.85h0a.66.66,0,0,1,.94.93Z"></path>
      <path class="cls-15" d="M68.14,50.36a.87.87,0,0,1-.37-.18l-.2-.15-.32-.29-.6-.56c-.4-.36-.8-.71-1.21-1a4.37,4.37,0,0,0-2.57-1.11,1.64,1.64,0,0,0-1,.49A5,5,0,0,0,61,48.68a13,13,0,0,0-1.1,2.89,34.76,34.76,0,0,0-1,6.3,55.37,55.37,0,0,0-.12,6.44,1.06,1.06,0,0,1-2.12.09v-.05a59.22,59.22,0,0,1,.4-6.66,36.65,36.65,0,0,1,1.34-6.57A14.82,14.82,0,0,1,59.75,48a6.5,6.5,0,0,1,1.17-1.43,2.94,2.94,0,0,1,1.91-.75,5.38,5.38,0,0,1,3.3,1.51c.44.37.85.76,1.24,1.15l.57.58.28.28.12.1s.08,0,0,0a.48.48,0,0,1,.38.56A.48.48,0,0,1,68.14,50.36Z"></path>
      <path class="cls-16" d="M59.22.73a130.34,130.34,0,0,0-5.07,16,40.24,40.24,0,0,0-1.23,8.06,24.61,24.61,0,0,0,.15,3.93c.16,1.37.36,2.74.59,4.11.9,5.5,2.39,10.9,3.63,16.45.32,1.39.63,2.79.88,4.24a41.48,41.48,0,0,1,.49,4.34c.17,2.87.29,5.71.22,8.58v0a1,1,0,0,1-2,0c-.14-2.79-.35-5.61-.66-8.39-.16-1.38-.3-2.79-.56-4.11s-.58-2.72-.92-4.09c-1.36-5.47-2.8-11-3.73-16.63-.24-1.41-.44-2.83-.61-4.25a21.68,21.68,0,0,1-.1-4.41,42.26,42.26,0,0,1,1.6-8.5A80.84,80.84,0,0,1,58.32.27a.5.5,0,0,1,.92.41Z"></path>
      <path class="cls-13" d="M59.21,66.55c-.06-.63-.44-1.92-.44-2.61V59.63S56.09,62.81,56,63.49s0,2.5,0,3.31c0,.43-.1,1.15-.06,1.83h3.48C59.43,67.83,59.25,66.93,59.21,66.55Z"></path>
      <path class="cls-17" d="M59.1,74.89a1.39,1.39,0,0,0-1.36-.5c-.75.23-1.05.83-.92,1a2.4,2.4,0,0,0,.28.29c.19.18.58-.34.6-.34Z"></path>
      <path class="cls-9" d="M59.49,75.8s-.23-1-.62-1-.82-.07-.82-.07l-.11.18s.38.68.54.73l.51.15A3.64,3.64,0,0,0,59.49,75.8Z"></path>
      <path class="cls-10" d="M59.47,75.92c0-.08.09-.32-.15-.39a3.06,3.06,0,0,0-.51-.11s-.61.47-.73.54-.21.07.15.17.35.2.68.16A1,1,0,0,0,59.47,75.92Z"></path>
      <path class="cls-11" d="M58.81,75.42a4.25,4.25,0,0,0-.45.45c-.18.21-.21.28-.43.16s-.78-.18-.92-.4-.15-.19,0-.45a1.14,1.14,0,0,1,.73-.44.62.62,0,0,1,.72.15A1.68,1.68,0,0,1,58.81,75.42Z"></path>
      <path class="cls-17" d="M39.78,67.87a2.06,2.06,0,0,0-2.1-.3c-1,.56-1.26,1.51-1,1.78a4.52,4.52,0,0,0,.49.33c.33.2.74-.67.76-.68Z"></path>
      <path class="cls-9" d="M40.62,69.05s-.65-1.4-1.21-1.3a10.76,10.76,0,0,1-1.2.15l-.1.3s.75.85,1,.88.68,0,.79.07A5.37,5.37,0,0,0,40.62,69.05Z"></path>
      <path class="cls-10" d="M40.62,69.25c0-.14,0-.5-.34-.53a5.4,5.4,0,0,0-.75,0s-.74.86-.89,1-.27.15.27.19.57.18,1,0A1.43,1.43,0,0,0,40.62,69.25Z"></path>
      <path class="cls-11" d="M39.53,68.72a6.82,6.82,0,0,0-.51.78c-.19.36-.22.47-.57.37s-1.18,0-1.45-.29-.26-.24-.08-.67a1.66,1.66,0,0,1,.91-.85.92.92,0,0,1,1.08,0A2.27,2.27,0,0,1,39.53,68.72Z"></path>
      <path class="cls-17" d="M53.43,65.08s-4.35-2.17-7.39.48-3.19,6-2.15,6.79a15.4,15.4,0,0,0,1.91.76c1.25.46,2-2.81,2.1-2.86S53.43,65.08,53.43,65.08Z"></path>
      <path class="cls-9" d="M57.14,68.51S53.91,64.19,52.08,65s-4,1.37-4,1.37L48,67.41s3.18,2.36,4,2.29,2.35-.35,2.72-.35A18.26,18.26,0,0,0,57.14,68.51Z"></path>
      <path class="cls-10" d="M57.27,69.17c0-.48-.22-1.72-1.52-1.55a18.42,18.42,0,0,0-2.56.55s-1.91,3.45-2.33,4-.81.72,1.08.47,2,.2,3.47-.66A4.93,4.93,0,0,0,57.27,69.17Z"></path>
      <path class="cls-11" d="M53.19,68.17a21.74,21.74,0,0,0-1.19,3c-.4,1.37-.41,1.75-1.66,1.68s-4,.74-5.15,0-1.07-.6-.76-2.19,1-2.34,2.47-3.57a3.24,3.24,0,0,1,3.68-.77A8.42,8.42,0,0,1,53.19,68.17Z"></path>
      <path class="cls-17" d="M70.16,66.47s-2.51-3.41-5.91-2.57-4.88,3.42-4.36,4.4a12.65,12.65,0,0,0,1.17,1.35c.79.85,2.69-1.37,2.77-1.37S70.16,66.47,70.16,66.47Z"></path>
      <path class="cls-9" d="M71.67,70.6s-.78-4.63-2.51-4.77-3.62-.53-3.62-.53l-.54.8s1.53,3.09,2.2,3.37,2,.67,2.25.81A16.85,16.85,0,0,0,71.67,70.6Z"></path>
      <path class="cls-10" d="M71.5,71.16c.16-.39.52-1.42-.56-1.8a15.77,15.77,0,0,0-2.2-.6S65.9,70.68,65.34,71s-.92.24.64.8,1.5,1,3,.86A4.21,4.21,0,0,0,71.5,71.16Z"></path>
      <path class="cls-11" d="M68.74,68.76a20.14,20.14,0,0,0-2.11,1.85c-.85.91-1,1.19-1.95.65s-3.42-1-4-2-.59-.89.29-2,1.73-1.39,3.32-1.78a2.83,2.83,0,0,1,3.16.87A7.1,7.1,0,0,1,68.74,68.76Z"></path>
      <path class="cls-17" d="M58.51,68.24s-3.6-2.78-6.86-.9-4,5-3.19,5.83a12.56,12.56,0,0,0,1.61,1c1.06.65,2.37-2.21,2.44-2.24S58.51,68.24,58.51,68.24Z"></path>
      <path class="cls-9" d="M61.29,72.05s-2.17-4.54-4-4.18-3.9.54-3.9.54l-.31,1s2.49,2.74,3.27,2.82,2.22.11,2.56.17A16.43,16.43,0,0,0,61.29,72.05Z"></path>
      <path class="cls-10" d="M61.29,72.68c.05-.45.11-1.61-1.11-1.69a17.2,17.2,0,0,0-2.45,0s-2.37,2.82-2.86,3.29-.88.51.9.63,1.84.55,3.3,0A4.56,4.56,0,0,0,61.29,72.68Z"></path>
      <path class="cls-11" d="M57.73,71a20,20,0,0,0-1.63,2.53c-.61,1.19-.69,1.53-1.82,1.24s-3.84,0-4.73-.9-.87-.75-.3-2.15,1.38-2,2.91-2.82a3,3,0,0,1,3.51,0A7.76,7.76,0,0,1,57.73,71Z"></path>
      <path class="cls-17" d="M77.23,74.54a2.18,2.18,0,0,0,2-1c.53-1.08.18-2-.19-2.13a4.44,4.44,0,0,0-.62,0c-.4,0-.24,1-.25,1S77.23,74.54,77.23,74.54Z"></path>
      <path class="cls-9" d="M75.8,74s1.4.82,1.82.4.95-.84.95-.84l-.09-.32a4.39,4.39,0,0,0-1.38-.17c-.23.12-.61.37-.72.41A6.78,6.78,0,0,0,75.8,74Z"></path>
      <path class="cls-10" d="M75.69,73.85c.07.13.26.45.6.25a5.34,5.34,0,0,0,.65-.44s.13-1.18.18-1.4.14-.29-.36,0-.59.18-.88.58A1.48,1.48,0,0,0,75.69,73.85Z"></path>
      <path class="cls-11" d="M76.94,73.66a6.94,6.94,0,0,0,0-1c0-.42-.08-.53.27-.65s1-.67,1.43-.61.36,0,.46.53a1.74,1.74,0,0,1-.27,1.27,1,1,0,0,1-.94.64A2.44,2.44,0,0,1,76.94,73.66Z"></path>
      <path class="cls-17" d="M29.29,77a2.19,2.19,0,0,0,2-1c.53-1.09.18-2-.19-2.14a4.45,4.45,0,0,0-.62,0c-.4,0-.24,1-.25,1S29.29,77,29.29,77Z"></path>
      <path class="cls-9" d="M27.86,76.52s1.4.82,1.82.4.95-.84.95-.84l-.09-.32a4.39,4.39,0,0,0-1.38-.17c-.23.12-.61.37-.72.41A6.78,6.78,0,0,0,27.86,76.52Z"></path>
      <path class="cls-10" d="M27.75,76.35c.07.13.26.45.6.25a5.34,5.34,0,0,0,.65-.44s.13-1.18.18-1.4.14-.29-.35,0-.59.18-.89.58A1.48,1.48,0,0,0,27.75,76.35Z"></path>
      <path class="cls-11" d="M29,76.16a6.8,6.8,0,0,0,0-1c0-.43-.08-.54.27-.66s1-.67,1.43-.61.36,0,.46.53a1.74,1.74,0,0,1-.27,1.27,1,1,0,0,1-.94.64A2.44,2.44,0,0,1,29,76.16Z"></path>
      <path class="cls-17" d="M43,75.31a2.77,2.77,0,0,0,2.63-1.08c.78-1.33.42-2.59,0-2.73-.13,0-.54,0-.79,0-.51,0-.39,1.27-.41,1.3S43,75.31,43,75.31Z"></path>
      <path class="cls-9" d="M41.21,74.52s1.71,1.18,2.28.68,1.28-1,1.28-1l-.09-.41a5.62,5.62,0,0,0-1.74-.34c-.29.13-.81.41-.94.46A6.15,6.15,0,0,0,41.21,74.52Z"></path>
      <path class="cls-10" d="M41.09,74.3c.07.17.29.6.74.37a7.12,7.12,0,0,0,.86-.51s.27-1.49.35-1.75.21-.37-.45,0-.76.18-1.18.67A1.9,1.9,0,0,0,41.09,74.3Z"></path>
      <path class="cls-11" d="M42.69,74.16a9,9,0,0,0,.07-1.24c0-.54-.07-.68.39-.81s1.38-.76,1.87-.64.46.09.55.7a2.26,2.26,0,0,1-.46,1.6,1.24,1.24,0,0,1-1.25.73A3.19,3.19,0,0,1,42.69,74.16Z"></path>
      <path class="cls-17" d="M53,73.37a1.78,1.78,0,0,1,1.62-.25c.8.37,1,1,.82,1.2a3.13,3.13,0,0,1-.37.23c-.25.15-.59-.44-.61-.44Z"></path>
      <path class="cls-9" d="M52.35,74.2s.48-1,.91-.91.94.07.94.07l.08.21s-.56.59-.75.62-.52,0-.6.06S52.35,74.2,52.35,74.2Z"></path>
      <path class="cls-10" d="M52.36,74.33c0-.09,0-.34.25-.36a4.83,4.83,0,0,1,.58,0s.59.57.72.67.21.1-.21.14-.43.13-.79,0A1.05,1.05,0,0,1,52.36,74.33Z"></path>
      <path class="cls-11" d="M53.19,74a5.07,5.07,0,0,1,.42.52c.15.24.18.31.44.24s.91,0,1.12-.23.2-.16,0-.45a1.25,1.25,0,0,0-.72-.57.8.8,0,0,0-.84,0A1.73,1.73,0,0,0,53.19,74Z"></path>
      <path class="cls-17" d="M67.65,69.25s-3.38-2.5-6.36-.7S57.67,73.23,58.45,74a12.4,12.4,0,0,0,1.5.93c1,.58,2.15-2.08,2.22-2.11S67.65,69.25,67.65,69.25Z"></path>
      <path class="cls-9" d="M70.3,72.72s-2.1-4.16-3.78-3.79-3.6.57-3.6.57l-.27.92S65,72.9,65.73,73s2,.06,2.37.11A16.71,16.71,0,0,0,70.3,72.72Z"></path>
      <path class="cls-10" d="M70.31,73.3c0-.41.07-1.49-1.06-1.54a16.41,16.41,0,0,0-2.27.08s-2.13,2.66-2.58,3.1-.8.49.84.57S67,76,68.3,75.46A4.22,4.22,0,0,0,70.31,73.3Z"></path>
      <path class="cls-11" d="M67,71.84a19.31,19.31,0,0,0-1.46,2.38c-.54,1.11-.61,1.42-1.66,1.18s-3.55,0-4.39-.74-.82-.68-.32-2,1.24-1.83,2.64-2.67A2.8,2.8,0,0,1,65,69.9,7.23,7.23,0,0,1,67,71.84Z"></path>
      <path class="cls-17" d="M49.62,73.15s-2.77-.5-4,1.46-.79,3.88-.09,4.12a8,8,0,0,0,1.18.11c.77.06.67-1.88.71-1.92S49.62,73.15,49.62,73.15Z"></path>
      <path class="cls-9" d="M52.23,74.46s-2.49-1.88-3.39-1.16-2,1.4-2,1.4l.11.63a8.47,8.47,0,0,0,2.6.62c.46-.17,1.25-.57,1.46-.63A10.87,10.87,0,0,0,52.23,74.46Z"></path>
      <path class="cls-10" d="M52.41,74.8c-.1-.26-.4-.91-1.09-.61a9.91,9.91,0,0,0-1.34.72s-.5,2.22-.63,2.62-.34.53.67.09,1.17-.22,1.82-.93A2.81,2.81,0,0,0,52.41,74.8Z"></path>
      <path class="cls-11" d="M50,74.91a12.12,12.12,0,0,0-.17,1.86c0,.82,0,1-.65,1.2S47,79,46.3,78.82s-.69-.17-.77-1.1a3.34,3.34,0,0,1,.79-2.38,1.87,1.87,0,0,1,1.92-1A4.72,4.72,0,0,1,50,74.91Z"></path>
    </g>
  </g>
</svg>
