<?xml version="1.0" encoding="UTF-8"?>
<svg xmlns="http://www.w3.org/2000/svg" xmlns:xlink="http://www.w3.org/1999/xlink" viewBox="0 0 112.9 192.69">
  <defs>
    <style>.cls-1{fill:#8e6848;}.cls-2{fill:url(#Безымянный_градиент_7);}.cls-3{fill:#713e21;}.cls-4{fill:#3d271f;}.cls-5{fill:#69391e;}.cls-6{fill:#6b482f;}.cls-7{fill:#5c3624;}.cls-8{fill:#795135;}.cls-9{fill:#9a734f;}.cls-10{fill:#fff;}.cls-11{fill:#85563a;}.cls-12{fill:#79a05b;}.cls-13{fill:#779f5a;}.cls-14{fill:#b1c595;}.cls-15{fill:#b3c695;}</style>
    <linearGradient id="Безымянный_градиент_7" x1="53.83" y1="231.94" x2="59.12" y2="133.46" gradientUnits="userSpaceOnUse">
      <stop offset="0.38" stop-color="#9b714f"></stop>
      <stop offset="0.91" stop-color="#754427"></stop>
      <stop offset="1" stop-color="#6e3c20"></stop>
    </linearGradient>
  </defs>
  <g id="Слой_2" data-name="Слой 2">
    <g id="Слой_1-2" data-name="Слой 1">
      <path class="cls-1" d="M59.15,124.86S69,136.45,76.64,136.92s33.64-7.75,33.64-7.75l2.62-27.1-53.75-19Z"></path>
      <path class="cls-1" d="M0,100.15,5.36,135.5s19.05,2.85,22.38,1.9,18.58-6.67,22.86-6.67,8.55-5.87,8.55-5.87V83.11Z"></path>
      <polygon class="cls-2" points="7.92 168.58 59.15 192.69 106.54 168.7 57.27 147.82 7.92 168.58"></polygon>
      <path class="cls-3" d="M7.92,168.58,5.36,135.5s24.29-.48,31-3.81,22.83-6.83,22.83-6.83l-1.88,23Z"></path>
      <path class="cls-4" d="M42.54,137.55a8.81,8.81,0,0,0-2.91-1.71v0s-3.88-1.16-6,1.45-1.75,5.42-.79,5.88a12.79,12.79,0,0,0,1.67.35s.06-.05.1-.05a29.56,29.56,0,0,0,3.59-.81,1.66,1.66,0,0,0,.62-.17c.17,0,.36-.09.67-.19,1.52-.47,1.7-.13,2.75-1a4.09,4.09,0,0,0,1.12-2.61,3.52,3.52,0,0,0-.21-.52h0l0-.05A1,1,0,0,0,42.54,137.55Z"></path>
      <path class="cls-4" d="M21.74,141a11.18,11.18,0,0,0-4.12,1.36v0s-4.41,2.76-3.69,7,3.75,6.28,5,5.74a16,16,0,0,0,1.75-1.31s0-.1,0-.14c.94-1.08,1.63-3.24,2.26-4.16a2.26,2.26,0,0,0,.37-.73c.1-.21.21-.43.38-.81.83-1.86,1.32-1.76,1.33-3.55a5.22,5.22,0,0,0-1.58-3.28,3,3,0,0,0-.67-.23v0h-.08A1.31,1.31,0,0,0,21.74,141Z"></path>
      <path class="cls-5" d="M59.15,124.86l-1.88,23,49.27,20.88,3.74-39.53s-15.36-1.77-22-.82S70,132.16,66.48,130.26A46,46,0,0,1,59.15,124.86Z"></path>
      <path class="cls-4" d="M40.38,148.45a3.22,3.22,0,0,0-1.28-.32h0A2.36,2.36,0,0,0,37,149.34c-.5,1.21,0,2.23.36,2.29a4.58,4.58,0,0,0,.67,0l0,0a11.1,11.1,0,0,0,1.26-.71.63.63,0,0,0,.21-.13l.23-.15c.52-.34.63-.24.92-.7a1.61,1.61,0,0,0,.13-1.1,1,1,0,0,0-.14-.17h0A.35.35,0,0,0,40.38,148.45Z"></path>
      <path class="cls-4" d="M88.65,138.56a2.21,2.21,0,0,0-.11-.91h0s-.39-1-1.3-1.06-1.47.52-1.41.8c0,.08.14.29.2.42l0,0a7,7,0,0,0,.77.64.42.42,0,0,0,.14.11l.15.11c.35.25.31.35.68.43a1.14,1.14,0,0,0,.75-.2.6.6,0,0,0,.08-.13h0v0A.24.24,0,0,0,88.65,138.56Z"></path>
      <path class="cls-4" d="M102.42,155.16a11.2,11.2,0,0,0-2-3.92h0s-3.39-4-7.53-2.66-5.74,4.66-5,5.83A15.37,15.37,0,0,0,89.51,156s.1,0,.14,0c1.22.78,3.47,1.16,4.48,1.66a2.38,2.38,0,0,0,.79.26c.22.07.46.15.86.26,2,.56,2,1.06,3.73.81a5.29,5.29,0,0,0,3.06-2.05,4.35,4.35,0,0,0,.13-.71h0l0-.07A1.28,1.28,0,0,0,102.42,155.16Z"></path>
      <path class="cls-4" d="M75.64,141.54a8.58,8.58,0,0,0-1.91,2.75h0s-1.44,3.75,1,6,5.24,2.14,5.76,1.22a11.23,11.23,0,0,0,.47-1.63s0-.06,0-.1a29,29,0,0,0-.53-3.62,1.58,1.58,0,0,0-.12-.62c0-.18-.07-.37-.14-.68-.35-1.54,0-1.7-.83-2.81a4.05,4.05,0,0,0-2.5-1.29,2.26,2.26,0,0,0-.53.17v0l0,0A1,1,0,0,0,75.64,141.54Z"></path>
      <path class="cls-6" d="M75.83,169.61a1.61,1.61,0,0,0,1.6-.43c.56-.71.45-1.47.18-1.58a2,2,0,0,0-.45-.09c-.29,0-.33.71-.34.72Z"></path>
      <path class="cls-7" d="M74.86,169s.9.82,1.27.57a9.15,9.15,0,0,1,.82-.48l0-.24a3.38,3.38,0,0,0-1-.33c-.19.05-.51.18-.59.19A4.83,4.83,0,0,0,74.86,169Z"></path>
      <path class="cls-8" d="M74.81,168.87c0,.11.12.37.4.28a5.55,5.55,0,0,0,.54-.23s.27-.85.33-1,.15-.2-.25-.06-.46,0-.74.29A1.08,1.08,0,0,0,74.81,168.87Z"></path>
      <path class="cls-9" d="M75.75,168.92a5.83,5.83,0,0,0,.13-.72c0-.31,0-.4.29-.44s.86-.33,1.14-.23.26.09.26.45a1.32,1.32,0,0,1-.39.9.73.73,0,0,1-.78.33A1.81,1.81,0,0,1,75.75,168.92Z"></path>
      <path class="cls-6" d="M64.87,163.33s2.46.13,3.33-1.71.26-3.45-.37-3.58a6.32,6.32,0,0,0-1,0c-.68,0-.38,1.71-.41,1.75S64.87,163.33,64.87,163.33Z"></path>
      <path class="cls-7" d="M62.46,162.48s2.37,1.35,3.07.63,1.57-1.43,1.57-1.43l-.16-.53a7.52,7.52,0,0,0-2.32-.26c-.38.21-1,.64-1.19.71A10.3,10.3,0,0,0,62.46,162.48Z"></path>
      <path class="cls-8" d="M62.27,162.2c.12.22.45.75,1,.41a9.34,9.34,0,0,0,1.08-.77s.18-2,.26-2.34.23-.5-.6,0-1,.32-1.47,1A2.49,2.49,0,0,0,62.27,162.2Z"></path>
      <path class="cls-9" d="M64.37,161.84a10.76,10.76,0,0,0-.06-1.63c-.09-.71-.16-.89.43-1.11s1.73-1.15,2.39-1,.61.07.79.87a3,3,0,0,1-.43,2.14,1.62,1.62,0,0,1-1.55,1.1A4.08,4.08,0,0,1,64.37,161.84Z"></path>
      <path class="cls-6" d="M54.66,171.29s1.92,1.45,3.63.44,2.1-2.64,1.66-3.09a7.06,7.06,0,0,0-.85-.55c-.57-.34-1.24,1.18-1.28,1.19Z"></path>
      <path class="cls-7" d="M53.18,169.29s1.17,2.39,2.13,2.19,2.06-.3,2.06-.3l.16-.52s-1.33-1.44-1.74-1.48-1.18,0-1.35-.08A9.49,9.49,0,0,0,53.18,169.29Z"></path>
      <path class="cls-8" d="M53.18,169c0,.24,0,.85.59.89a9.51,9.51,0,0,0,1.29,0s1.24-1.5,1.5-1.75.46-.27-.48-.33-1-.28-1.74,0A2.38,2.38,0,0,0,53.18,169Z"></path>
      <path class="cls-9" d="M55.06,169.81a9.9,9.9,0,0,0,.85-1.34c.32-.63.36-.81,1-.67s2,0,2.5.46.46.39.17,1.13a2.86,2.86,0,0,1-1.52,1.5,1.59,1.59,0,0,1-1.86,0A4.14,4.14,0,0,1,55.06,169.81Z"></path>
      <path class="cls-6" d="M50.26,164.69a2.73,2.73,0,0,0,.1-2.79c-.88-1.25-2.16-1.43-2.47-1.07a5.29,5.29,0,0,0-.36.69c-.22.46,1,.87,1,.9S50.26,164.69,50.26,164.69Z"></path>
      <path class="cls-7" d="M48.83,166s1.75-1.05,1.53-1.77-.36-1.55-.36-1.55l-.41-.09s-1,1.11-1,1.43,0,.89,0,1A7.6,7.6,0,0,0,48.83,166Z"></path>
      <path class="cls-8" d="M48.58,166c.18,0,.66,0,.64-.51a8,8,0,0,0-.11-1s-1.23-.84-1.43-1-.25-.33-.22.39-.16.76.12,1.33A1.82,1.82,0,0,0,48.58,166Z"></path>
      <path class="cls-9" d="M49.11,164.48a7.59,7.59,0,0,0-1.08-.55c-.5-.2-.65-.22-.57-.69s-.13-1.55.18-1.94.26-.38.85-.2a2.16,2.16,0,0,1,1.25,1.06,1.22,1.22,0,0,1,.15,1.41A3.14,3.14,0,0,1,49.11,164.48Z"></path>
      <path class="cls-6" d="M41.58,166.76a1.21,1.21,0,0,0,.4-1.15c-.21-.63-.71-.87-.89-.76a2.68,2.68,0,0,0-.24.24c-.15.16.3.49.3.5S41.58,166.76,41.58,166.76Z"></path>
      <path class="cls-7" d="M40.83,167.1s.85-.22.86-.54,0-.69,0-.69l-.16-.09s-.55.33-.6.46-.09.38-.12.44A3.32,3.32,0,0,0,40.83,167.1Z"></path>
      <path class="cls-8" d="M40.72,167.07a.22.22,0,0,0,.33-.13,2.46,2.46,0,0,0,.08-.42s-.4-.51-.46-.61-.06-.17-.15.14-.15.29-.12.56A.8.8,0,0,0,40.72,167.07Z"></path>
      <path class="cls-9" d="M41.13,166.52a4.62,4.62,0,0,0-.38-.37c-.18-.14-.24-.17-.15-.36s.15-.65.33-.78.15-.12.37,0a1,1,0,0,1,.39.6.54.54,0,0,1-.12.6A1.31,1.31,0,0,1,41.13,166.52Z"></path>
      <path class="cls-6" d="M38.92,171.54s1.68-2.7.14-4.84-3.75-2.45-4.3-1.81a9.78,9.78,0,0,0-.61,1.19c-.38.79,1.7,1.5,1.73,1.55S38.92,171.54,38.92,171.54Z"></path>
      <path class="cls-7" d="M36.45,173.75s3-1.84,2.64-3.08a25.61,25.61,0,0,1-.65-2.68l-.71-.15S36,169.77,36,170.32s.09,1.55.07,1.79A12.52,12.52,0,0,0,36.45,173.75Z"></path>
      <path class="cls-8" d="M36,173.8c.31,0,1.13,0,1.1-.9a11.88,11.88,0,0,0-.2-1.7s-2.14-1.45-2.5-1.76-.42-.58-.38.67-.25,1.32.23,2.3A3.18,3.18,0,0,0,36,173.8Z"></path>
      <path class="cls-9" d="M36.92,171.2a14.72,14.72,0,0,0-1.89-1c-.86-.34-1.11-.38-1-1.18s-.23-2.68.3-3.36.45-.66,1.47-.36A3.76,3.76,0,0,1,38,167.16a2.11,2.11,0,0,1,.28,2.45A5.34,5.34,0,0,1,36.92,171.2Z"></path>
      <path class="cls-10" d="M56.35,117.89l2.43.07a5.85,5.85,0,0,1,0,1.18,5.12,5.12,0,0,0,1.56,4.77c1.19,1.23,1.8,3,2.65,4.58a11.56,11.56,0,0,0,8,6,10.83,10.83,0,0,1,1.16.24c.16,0,.26.26.39.39-.17.16-.34.44-.52.45a9.51,9.51,0,0,1-6.29-2.21,8.32,8.32,0,0,0-5.37-2c-.52.6,0,1.11.19,1.61,1,3.59,2.14,7.16,3.18,10.75a8.8,8.8,0,0,1,.06,5.11c-.55-3.39-1-6.8-2.49-9.93a25.25,25.25,0,0,0-1.86-3.54c-.77.09-.54.6-.58.91a36,36,0,0,1-2.51,9.4c-.06.16-.41.2-.63.3-.07-.17-.22-.38-.18-.53.37-1.53.77-3.05,1.17-4.57a22.26,22.26,0,0,0,.87-7.26c-.72,0-.86.54-1,1a19.26,19.26,0,0,0-2,6.15.47.47,0,0,1-.36.26c-.17,0-.44-.21-.44-.33a13.47,13.47,0,0,1,.08-3.18,30,30,0,0,1,1.36-3.59c.56-1.47,1.15-2.94,1.63-4.43a2.65,2.65,0,0,0-.14-2.36,13.77,13.77,0,0,1-1.51,1.47A4.88,4.88,0,0,0,52.91,134c0,.14-.13.33-.22.54-1.43-.65-.61-2.15-1.14-3.12a74,74,0,0,0-8.72,4.28A8.7,8.7,0,0,0,40,139.35c0,.13-.32.16-.49.24-.07-.18-.22-.36-.2-.53A5.48,5.48,0,0,1,40.91,136a15.62,15.62,0,0,1,4.36-3c2.24-1.24,4.45-2.55,6.7-3.76,3.28-1.76,4.22-4.72,4.36-8.16C56.37,120,55.79,118.94,56.35,117.89Zm2.6,6.74a6.54,6.54,0,0,0-.07,3.39,2.46,2.46,0,0,0,2.46,2.41,1.23,1.23,0,0,0,.8-.1c.13-.11.11-.54,0-.75-.68-1.29-1.39-2.56-2.14-3.82A7.82,7.82,0,0,0,59,124.63Z"></path>
      <polygon class="cls-11" points="0 100.15 59.15 124.86 112.9 102.07 59.15 83.11 0 100.15"></polygon>
      <path class="cls-12" d="M67.67,65c.3-.36.53-.85.91-1a8.8,8.8,0,0,1,5.71-1,30.73,30.73,0,0,1,5.63,1.71,6.28,6.28,0,0,1,2.89,2.87c.43.77.81,1.58,1.25,2.34a.77.77,0,0,0,1.41,0c.37-.58.63-1.22,1-1.81.9-1.52,1.66-1.84,3.44-1.39A18.25,18.25,0,0,1,99.26,73a4.49,4.49,0,0,1,.71,2.49,15,15,0,0,1-2.16,8.46,16.7,16.7,0,0,1-1.16,1.72c-1.48,1.93-3.13,3.78-2.65,6.81a59.53,59.53,0,0,0-11.85-6.09,24.15,24.15,0,0,1-9.07-5.93A11.28,11.28,0,0,1,70,71.5a7.91,7.91,0,0,1,4-6.55c.33-.2.65-.43,1-.66,0,0,0-.18,0-.27-2.61-.55-3.74-.49-5.63.29-.54.22-1.08.41-1.63.61Z"></path>
      <path class="cls-12" d="M55.24,43.61a6.13,6.13,0,0,1,1.11.82c.51.58.92,1.23,1.54,2.07,2.33-6.46,6.78-9.73,13.38-9.91a7.51,7.51,0,0,1,.4-2.23,4.69,4.69,0,0,1,1.57-1.74,15.8,15.8,0,0,1,10.12-2.53.58.58,0,0,1,.46.88c-.25.6-.56,1.18-.91,1.92,1.09.37,2,.65,2.93,1a12.14,12.14,0,0,1,5,3.12c.91,1,.94,1.45.06,2.54-.3.38-.65.73-1.06,1.17.63,1.74,1.3,3.47,1.89,5.23A25.56,25.56,0,0,1,93,55.25c-.06,1.45-.34,2-1.92,1.6a51.53,51.53,0,0,1-7.9-2.43c-.72-.29-1,0-.92.85,0,.19.08.38.1.58.08.62-.26.91-.83.9a30.26,30.26,0,0,1-8.73-1.36,23.92,23.92,0,0,1-3.51-1.89,1.33,1.33,0,0,0-.49.32c-1.15,1.38-1.44,1.42-2.37.18a11.33,11.33,0,0,1-2.33-5.67c-.43-4.31,1.52-7.4,5.06-9.63.47-.3,1-.52,1.91-1-4.88-.35-8,1.73-10.4,5.15a15,15,0,0,0-1.65,3.77,4.91,4.91,0,0,0,0,3.48,2.31,2.31,0,0,1,.1.28A30.33,30.33,0,0,0,63,60.21a34.27,34.27,0,0,1,2.21,5.15c.32.77.31.77,1.53.25a1.5,1.5,0,0,1,.29-.06l0,0a9.75,9.75,0,0,0-.72,5.68,15.76,15.76,0,0,1-.82,7C64.68,81,63.81,83.8,63,86.62a109.4,109.4,0,0,0-3.24,13.13,14.22,14.22,0,0,1-.39,1.42l-2.44-.07c.55-3.3.92-6.63,2.21-9.77a3.51,3.51,0,0,0,.3-1.71,12.32,12.32,0,0,0-4.22-8.21,5.54,5.54,0,0,0-5.85-.8,5.62,5.62,0,0,0-3.71,4.6c-.28,1.93,0,3.76,1.65,5.08a2.84,2.84,0,0,0,3.3.42,2.23,2.23,0,0,0,1.3-2.92c0-.13.1-.34.16-.5.19.17.52.31.57.51a3.28,3.28,0,0,1-4,4,5.23,5.23,0,0,1-3.87-4.69A7,7,0,0,1,53,79.48c.85.16,1.67.46,2.81.78a16.42,16.42,0,0,0-4.2-5.71c-1.78,1.83-3.47,3.59-5.19,5.32-.54.55-1,1.24-2,.59-.16-.11-.71.19-1,.42a11.38,11.38,0,0,0-2.9,4.75c-.27.71-.5,1.44-.87,2.52a9.73,9.73,0,0,1-.91-1.81c-.51-2.31-1-4.62-1.4-6.94-.14-.77-.16-1.57-.31-2.34,0-.2-.39-.54-.5-.51-1,.34-1.25-.25-1.08-1a17,17,0,0,1,1-3.38,12.76,12.76,0,0,1,4.13-4.94c2.61-1.91,5.15-1.08,6.29,2,.1.27.17.55.28.9.39,0,.78,0,1.16,0a2.73,2.73,0,0,1,3,1.9,6.69,6.69,0,0,0,1.25,2A33,33,0,0,1,60,86.52a3.31,3.31,0,0,0,.38.62,5.17,5.17,0,0,0,.66-1c1-3.09,2.09-6.16,3-9.27A19.13,19.13,0,0,0,63.77,65a23.46,23.46,0,0,0-2-4.59c-1.94-3.2-4-6.3-6.08-9.44-.44-.7-.92-.65-1.72-.46-3.91.94-6.07,3.42-6.92,7.24-.23,1-.4,1.08-1.41.95l-7.32-.9a1.72,1.72,0,0,0-2,1.25,10.28,10.28,0,0,1-2.5,3.62c-1.92,2-3.73,4.11-3.89,7.11a.57.57,0,0,1-.9.35,25.54,25.54,0,0,1-2.79-3c-2.71-3.92-3.37-8.34-2.88-13a5.18,5.18,0,0,0-.26-2.85c-1.29-2.93-.57-5.62,1.42-8a11.25,11.25,0,0,1,8.05-3.87,28.47,28.47,0,0,1,8.23.55c1.58.33,1.58.32,1.89,2.08a8.29,8.29,0,0,0,.26.88,2.66,2.66,0,0,0,.81-.38A7.91,7.91,0,0,1,48,40.17a.87.87,0,0,0,.46-1.52,23.61,23.61,0,0,0-2-1.69c1.32-1,1.32-1,.51-2.23l-1.32-4.66c1.35-.64,1.35-.64,1.22-1.91a14.46,14.46,0,0,1,2.07-7.56,10.31,10.31,0,0,1,5.92-5c1.82-.59,3.66-.76,5.28.62a3.13,3.13,0,0,1,1,3.45A1.83,1.83,0,0,1,59.37,21c-.82,0-1.6,0-1.76-1.09l-.06,0c.39,0,.78.06,1.17.13a1.52,1.52,0,0,0,1.6-.48,2.09,2.09,0,0,0-.15-2.22A3.6,3.6,0,0,0,56.23,16a9.77,9.77,0,0,0-6.42,4.83,17.21,17.21,0,0,0-2,12,43.39,43.39,0,0,0,1.92,5.88,3.36,3.36,0,0,0,2,2c.84.37,1.95.53,2.28,1.66h0c-.54-.18-1.08-.39-1.63-.54a.62.62,0,0,0-.51.13.56.56,0,0,0-.08.51q2.56,3.94,5.2,7.86c0,.07.32,0,.5-.05a4.93,4.93,0,0,0-.8-3.92c-.52-.92-1-1.87-1.49-2.8Zm-4.56-.37c0-.84-1.38-2.52-2.16-2.54a1.38,1.38,0,0,0-.29,0c-1.64.46-3.18,1.07-4,2.68a.7.7,0,0,0,0,.56.58.58,0,0,0,.48.25,4.78,4.78,0,0,0,1.43-.28c1.35-.63,2.68-1.25,4.18-.43C50.31,43.53,50.53,43.33,50.68,43.24Z"></path>
      <path class="cls-13" d="M40.92,17a5.85,5.85,0,0,1,.8,4,2.07,2.07,0,0,1-2.22,1.92,8.47,8.47,0,0,1-2.62-.29c-2.52-.83-5-1.77-7.49-2.68a1.28,1.28,0,0,1-.93-1.35c.11-1.21-.6-1.77-1.58-2.19a14,14,0,0,0-5.13-1.21c-1,0-2-.07-3.07-.11a12.32,12.32,0,0,1,2.54-6.84c.59-.8,1.3-1.48.82-2.63-.27-.65.22-1.12.69-1.49a7.31,7.31,0,0,1,5.21-1.67c.88.06,1.76.21,2.64.22,1.12,0,1.32-.2,1.69-1.52.25-.88.61-1.2,1.39-1.12,5.19.57,8.39,5.08,8.11,9a6.29,6.29,0,0,1-2,4.46c-.32.33-.85.63-.92,1a1.78,1.78,0,0,0,.54,1.22A15,15,0,0,0,40.92,17Z"></path>
      <path class="cls-13" d="M62.78,5.53a9.42,9.42,0,0,1,.44-1.7A3,3,0,0,1,66,2,13.63,13.63,0,0,1,72,3.56c.15.06.36.32.33.44-.32,1.27.78,1.35,1.47,1.78s1.7,1,2.5,1.54a5.53,5.53,0,0,1,2.2,4c0,.28.06.76-.08.84-1.34.72-.66,1.88-.69,2.88a5,5,0,0,1-1.8,4.15c-.21-.15-.39-.21-.46-.34C74.34,16.74,74,16.48,71.81,17c-1.53.38-3,.9-4.6.22-.09,0-.23-.08-.29,0-1.88,1.19-2.89-.34-4-1.34-.73-.65-1.36-1.41-2-2.13a8.34,8.34,0,0,0-.74.57c-.34.34-.78.38-1,0a7.68,7.68,0,0,1-1.46-5.58,2.73,2.73,0,0,1,2.81-2.51C61.32,6.3,62.28,6.66,62.78,5.53Z"></path>
      <path class="cls-14" d="M62.78,5.53c-.5,1.13-1.46.77-2.33.72a1.69,1.69,0,0,0-1.34-1A10.58,10.58,0,0,0,49.3,8.63a14.5,14.5,0,0,0-2.86,4.75,22.68,22.68,0,0,0-1.07,10.11c.12,1.27.36,2.52.53,3.78a.94.94,0,0,0,1,.89c.13,1.27.13,1.27-1.22,1.91a15.71,15.71,0,0,1-1.18-4.47C44,23,43.71,20.35,42.28,18a8,8,0,0,0-.85-1.16c-.06-.06-.34.08-.51.13a15,15,0,0,1-1.5-1.36,1.78,1.78,0,0,1-.54-1.22c.07-.38.6-.68.92-1,0,.19,0,.46.11.57,1.41,1.43,3.18,2.51,3.91,4.6l.53-.27c.09-.74.13-1.49.27-2.21a17.81,17.81,0,0,1,.61-2.28A14.17,14.17,0,0,1,50.8,6.08c3.34-2.18,6.85-2.84,10.6-1A13.35,13.35,0,0,0,62.78,5.53Z"></path>
      <path class="cls-15" d="M47,34.73c.81,1.19.81,1.19-.51,2.23a28.39,28.39,0,0,0-12.53-2.75,9,9,0,0,1-6.81-3A5.17,5.17,0,0,1,25.8,28,4,4,0,0,1,28,24.12a3,3,0,0,1,4.36.95,3.06,3.06,0,0,1-1.08,4.11.59.59,0,0,1-.53-.05.52.52,0,0,1-.12-.48c.23-.31.58-.54.79-.86a1.72,1.72,0,0,0-.12-2.4,2.35,2.35,0,0,0-3-.31,3.54,3.54,0,0,0-.83,5,6.31,6.31,0,0,0,4.33,2.81,31.52,31.52,0,0,0,5.55.6,17,17,0,0,1,8.78,2C47,35.93,46.81,35.09,47,34.73Z"></path>
      <path class="cls-12" d="M57.61,19.92c-.83-.62-.83-1.07,0-1.74l-.05-.06V20Z"></path>
      <path class="cls-12" d="M54.06,42.41a1.1,1.1,0,0,1,1.18,1.2h0a1.09,1.09,0,0,1-1.19-1.19Z"></path>
      <path class="cls-12" d="M58.8,18.14l-1.25,0,.05.06c.48-.7.72-.7,1.14,0Z"></path>
      <path class="cls-12" d="M58.74,18.19l.41.15-.25.23-.1-.43Z"></path>
      <path class="cls-12" d="M67.63,64.92c0,.43-.17.62-.59.6l0,0c0-.42.17-.62.6-.59Z"></path>
      <path class="cls-6" d="M55.56,110.28A1.63,1.63,0,0,0,54,109.7c-.87.27-1.22,1-1.07,1.21a3.14,3.14,0,0,0,.32.33c.22.21.68-.39.7-.4S55.56,110.28,55.56,110.28Z"></path>
      <path class="cls-7" d="M56,111.33s-.27-1.19-.72-1.2-.95-.08-.95-.08l-.13.21s.45.78.63.84l.59.18A4.86,4.86,0,0,0,56,111.33Z"></path>
      <path class="cls-8" d="M56,111.48c0-.11.11-.38-.18-.46a3.22,3.22,0,0,0-.58-.12s-.71.54-.85.62-.23.07.18.2.41.22.78.18A1.12,1.12,0,0,0,56,111.48Z"></path>
      <path class="cls-9" d="M55.22,110.9a5,5,0,0,0-.52.51c-.2.24-.24.32-.49.19s-.91-.22-1.07-.46-.17-.23,0-.53a1.33,1.33,0,0,1,.84-.51.74.74,0,0,1,.83.18A2,2,0,0,1,55.22,110.9Z"></path>
      <path class="cls-6" d="M52,90.13a2.42,2.42,0,0,0-2.44-.35c-1.16.66-1.44,1.75-1.16,2.06a5.07,5.07,0,0,0,.57.38c.38.23.85-.77.88-.78Z"></path>
      <path class="cls-7" d="M53,91.5s-.76-1.62-1.4-1.5-1.39.17-1.39.17l-.12.35s.87,1,1.15,1,.79,0,.91.08A6.88,6.88,0,0,0,53,91.5Z"></path>
      <path class="cls-8" d="M53,91.72c0-.16,0-.57-.39-.6a5.45,5.45,0,0,0-.87,0s-.85,1-1,1.15-.31.18.32.23.65.21,1.17,0A1.59,1.59,0,0,0,53,91.72Z"></path>
      <path class="cls-9" d="M51.69,91.12a9.73,9.73,0,0,0-.59.89c-.22.42-.25.54-.65.44s-1.36,0-1.67-.35-.31-.27-.1-.76a1.93,1.93,0,0,1,1-1,1.07,1.07,0,0,1,1.24,0A2.82,2.82,0,0,1,51.69,91.12Z"></path>
      <path class="cls-6" d="M47.17,97.53s-5-2.51-8.53.55-3.67,7-2.47,7.83a17.77,17.77,0,0,0,2.2.88c1.44.53,2.34-3.24,2.43-3.29S47.17,97.53,47.17,97.53Z"></path>
      <path class="cls-7" d="M51.45,101.48s-3.72-5-5.84-4.11A48.1,48.1,0,0,1,41,99l-.14,1.27s3.66,2.72,4.63,2.64,2.71-.4,3.14-.41A21.3,21.3,0,0,0,51.45,101.48Z"></path>
      <path class="cls-8" d="M51.59,102.24c0-.55-.25-2-1.75-1.78a22.18,22.18,0,0,0-3,.63s-2.2,4-2.68,4.67-.94.83,1.24.55,2.36.23,4-.77A5.59,5.59,0,0,0,51.59,102.24Z"></path>
      <path class="cls-9" d="M46.89,101.09a25.24,25.24,0,0,0-1.37,3.46c-.46,1.58-.48,2-1.91,1.94s-4.66.85-6,0-1.23-.69-.87-2.52,1.2-2.69,2.85-4.12A3.73,3.73,0,0,1,43.89,99,9.72,9.72,0,0,1,46.89,101.09Z"></path>
      <path class="cls-6" d="M64.51,98.58s-4.2-2.48-7.43,0-3.61,5.84-2.62,6.65a13.53,13.53,0,0,0,1.85.89c1.23.56,2.23-2.66,2.31-2.7S64.51,98.58,64.51,98.58Z"></path>
      <path class="cls-7" d="M68,102.27s-2.93-4.55-4.82-3.92-4.09,1.09-4.09,1.09l-.2,1.09s3,2.59,3.86,2.57,2.38-.18,2.75-.16A17.74,17.74,0,0,0,68,102.27Z"></path>
      <path class="cls-8" d="M68.07,102.94c0-.48-.1-1.73-1.41-1.65a19.69,19.69,0,0,0-2.61.36s-2.14,3.33-2.6,3.9-.87.66,1,.55,2,.34,3.52-.43A4.87,4.87,0,0,0,68.07,102.94Z"></path>
      <path class="cls-9" d="M64.05,101.65a22.42,22.42,0,0,0-1.4,2.93c-.48,1.34-.53,1.72-1.77,1.57s-4.1.45-5.16-.33-1-.68-.61-2.25,1.21-2.27,2.72-3.4a3.27,3.27,0,0,1,3.75-.52A8.35,8.35,0,0,1,64.05,101.65Z"></path>
      <path class="cls-6" d="M75.65,94.13s-4.15-3.2-7.91-1-4.63,5.74-3.68,6.73a14.63,14.63,0,0,0,1.85,1.2c1.23.75,2.74-2.54,2.82-2.57S75.65,94.13,75.65,94.13Z"></path>
      <path class="cls-7" d="M78.86,98.54s-2.51-5.24-4.61-4.83-4.5.62-4.5.62l-.36,1.13s2.87,3.16,3.77,3.26,2.56.12,3,.2A20.74,20.74,0,0,0,78.86,98.54Z"></path>
      <path class="cls-8" d="M78.86,99.26c0-.52.12-1.86-1.29-2a20.75,20.75,0,0,0-2.82,0s-2.73,3.26-3.3,3.8-1,.59,1,.73,2.12.63,3.81,0A5.23,5.23,0,0,0,78.86,99.26Z"></path>
      <path class="cls-9" d="M74.75,97.35a23.93,23.93,0,0,0-1.88,2.93c-.7,1.36-.8,1.76-2.1,1.43s-4.43-.06-5.46-1-1-.86-.34-2.48,1.59-2.25,3.35-3.25a3.5,3.5,0,0,1,4.06-.06A9,9,0,0,1,74.75,97.35Z"></path>
      <path class="cls-6" d="M78.87,107.55a2.52,2.52,0,0,0,2.3-1.14c.62-1.25.22-2.36-.21-2.46a4.31,4.31,0,0,0-.71,0c-.47,0-.28,1.17-.3,1.19Z"></path>
      <path class="cls-7" d="M77.23,106.94s1.6,1,2.09.47a14.45,14.45,0,0,1,1.1-1l-.11-.37a5,5,0,0,0-1.59-.19c-.26.13-.71.42-.83.47A7.19,7.19,0,0,0,77.23,106.94Z"></path>
      <path class="cls-8" d="M77.1,106.75c.08.15.3.52.69.29a8.11,8.11,0,0,0,.75-.51s.15-1.36.2-1.61.17-.34-.41,0-.68.21-1,.68A1.7,1.7,0,0,0,77.1,106.75Z"></path>
      <path class="cls-9" d="M78.54,106.53a7.29,7.29,0,0,0,0-1.12c-.06-.49-.1-.62.3-.76s1.2-.78,1.65-.7.42,0,.53.6a2,2,0,0,1-.31,1.47,1.12,1.12,0,0,1-1.08.74A2.9,2.9,0,0,1,78.54,106.53Z"></path>
      <path class="cls-6" d="M39.37,108.44s2.13.29,3-1.25.48-3-.06-3.15a7.27,7.27,0,0,0-.91-.05c-.59,0-.45,1.47-.48,1.5S39.37,108.44,39.37,108.44Z"></path>
      <path class="cls-7" d="M37.33,107.53s2,1.35,2.63.77,1.47-1.13,1.47-1.13l-.1-.48a6.55,6.55,0,0,0-2-.39c-.34.15-.93.48-1.09.53A8.17,8.17,0,0,0,37.33,107.53Z"></path>
      <path class="cls-8" d="M37.18,107.27c.09.19.34.69.86.43a7.41,7.41,0,0,0,1-.59s.31-1.72.41-2,.23-.41-.52,0-.89.2-1.37.77A2.2,2.2,0,0,0,37.18,107.27Z"></path>
      <path class="cls-9" d="M39,107.11a9.38,9.38,0,0,0,.08-1.43c0-.63-.08-.79.45-.94s1.59-.88,2.16-.74.53.11.63.81a2.62,2.62,0,0,1-.53,1.85,1.42,1.42,0,0,1-1.44.84A3.69,3.69,0,0,1,39,107.11Z"></path>
      <path class="cls-6" d="M53.26,100.51a1.85,1.85,0,0,0,1.87.33c.92-.48,1.17-1.32.95-1.57a3.09,3.09,0,0,0-.43-.3c-.29-.19-.68.57-.7.58Z"></path>
      <path class="cls-7" d="M52.54,99.43s.55,1.27,1.05,1.2,1.08-.11,1.08-.11l.09-.26s-.65-.78-.86-.82-.61,0-.7-.07A5.17,5.17,0,0,0,52.54,99.43Z"></path>
      <path class="cls-8" d="M52.55,99.26c0,.12,0,.44.29.48a5.16,5.16,0,0,0,.67,0s.68-.74.82-.87.25-.13-.24-.18-.5-.17-.91,0A1.28,1.28,0,0,0,52.55,99.26Z"></path>
      <path class="cls-9" d="M53.51,99.75a6.3,6.3,0,0,0,.48-.67c.18-.32.2-.41.51-.32s1,.06,1.29.3.23.22.05.59a1.46,1.46,0,0,1-.83.74.82.82,0,0,1-1,0A2.2,2.2,0,0,1,53.51,99.75Z"></path>
      <path class="cls-6" d="M70.15,107.65s4.71,1.14,7.08-2.11S79,99,77.81,98.46a14,14,0,0,0-2-.31c-1.32-.17-1.35,3.18-1.42,3.24S70.15,107.65,70.15,107.65Z"></path>
      <path class="cls-7" d="M65.78,105.13s4.1,3.49,5.72,2.34,3.57-2.21,3.57-2.21l-.13-1.1s-3.61-1.58-4.41-1.33-2.21.86-2.57,1A18.69,18.69,0,0,0,65.78,105.13Z"></path>
      <path class="cls-8" d="M65.51,104.52c.15.46.6,1.62,1.82,1.17a19.45,19.45,0,0,0,2.37-1.1s1.08-3.78,1.36-4.45.63-.89-1.15-.23-2,.26-3.23,1.42A4.88,4.88,0,0,0,65.51,104.52Z"></path>
      <path class="cls-9" d="M69.7,104.59a22.71,22.71,0,0,0,.49-3.19c.08-1.41,0-1.78,1.24-2s3.76-1.61,5-1.17,1.17.35,1.22,2-.49,2.49-1.6,4a3.24,3.24,0,0,1-3.41,1.57A8.42,8.42,0,0,1,69.7,104.59Z"></path>
      <path class="cls-6" d="M48.42,104.92s2.83,1.59,4.94-.07,2.32-3.93,1.65-4.46a11,11,0,0,0-1.24-.57c-.82-.35-1.45,1.81-1.5,1.84S48.42,104.92,48.42,104.92Z"></path>
      <path class="cls-7" d="M46.06,102.51s2,3,3.26,2.55,2.7-.79,2.7-.79l.12-.72s-2-1.68-2.6-1.66S48,102,47.71,102A12.73,12.73,0,0,0,46.06,102.51Z"></path>
      <path class="cls-8" d="M46,102.07c0,.32.09,1.15,1,1.08a12.33,12.33,0,0,0,1.72-.28s1.39-2.24,1.69-2.62.56-.45-.71-.35-1.35-.2-2.33.33A3.24,3.24,0,0,0,46,102.07Z"></path>
      <path class="cls-9" d="M48.68,102.87a14.75,14.75,0,0,0,.9-2c.3-.9.33-1.15,1.15-1.07s2.72-.35,3.44.16.69.43.43,1.48a3.89,3.89,0,0,1-1.76,2.3,2.16,2.16,0,0,1-2.48.39A5.59,5.59,0,0,1,48.68,102.87Z"></path>
    </g>
  </g>
</svg>
