<?xml version="1.0" encoding="UTF-8"?>
<svg xmlns="http://www.w3.org/2000/svg" xmlns:xlink="http://www.w3.org/1999/xlink" viewBox="0 0 110.12 325.78">
  <defs>
    <style>.cls-1{fill:none;}.cls-2{fill:#956d4b;}.cls-3{clip-path:url(#clip-path);}.cls-4{fill:url(#Безымянный_градиент_2);}.cls-5{fill:#754120;}.cls-6{fill:#44281c;}.cls-7{fill:#6c3c1d;}.cls-8{fill:#714d31;}.cls-9{fill:#613822;}.cls-10{fill:#7f5637;}.cls-11{fill:#a07850;}.cls-12{fill:#f7e8c5;}.cls-13{fill:#8b5b3c;}.cls-14{fill:#476532;}.cls-15{fill:#5b6e22;}.cls-16,.cls-32{fill:#6f882b;}.cls-17{opacity:0.47;}.cls-18{fill:#d5e1a7;}.cls-19{fill:#405d30;}.cls-20{opacity:0.53;}.cls-21,.cls-27{fill:#b9cc51;}.cls-22{fill:#6e8c3a;}.cls-23{fill:#f3f4d1;}.cls-24{fill:#d7dbac;}.cls-25{fill:#899d2c;}.cls-26,.cls-28{fill:#a3b034;}.cls-27,.cls-41{opacity:0.58;}.cls-28,.cls-33{opacity:0.54;}.cls-29{opacity:0.61;}.cls-30{opacity:0.6;}.cls-31{opacity:0.67;}.cls-32{opacity:0.32;}.cls-34{opacity:0.42;}.cls-35{fill:#567a2d;}.cls-36{fill:#99a628;}.cls-37{fill:#94a336;}.cls-38{fill:url(#Безымянный_градиент_3);}.cls-39{fill:#bcbf37;}.cls-40{fill:#c2cf37;}.cls-42{fill:#613922;}</style>
    <clipPath id="clip-path">
      <polygon class="cls-1" points="7.72 297.1 57.69 320.62 103.91 297.22 55.86 276.86 7.72 297.1"></polygon>
    </clipPath>
    <linearGradient id="Безымянный_градиент_2" x1="-4483.31" y1="664.27" x2="-4480.51" y2="664.27" gradientTransform="matrix(34.36, 0, 0, -34.36, 154026.26, 23120.73)" gradientUnits="userSpaceOnUse">
      <stop offset="0" stop-color="#a17551"></stop>
      <stop offset="0.38" stop-color="#a17551"></stop>
      <stop offset="0.89" stop-color="#7a4928"></stop>
      <stop offset="1" stop-color="#72401f"></stop>
    </linearGradient>
    <linearGradient id="Безымянный_градиент_3" x1="8.99" y1="-1620.67" x2="12.2" y2="-1613.9" gradientTransform="matrix(0.84, 0.54, -0.54, 0.84, -822.55, 1480.28)" gradientUnits="userSpaceOnUse">
      <stop offset="0" stop-color="#d0d857"></stop>
      <stop offset="0.58" stop-color="#fff" stop-opacity="0"></stop>
    </linearGradient>
  </defs>
  <g id="Слой_2" data-name="Слой 2">
    <g id="Слой_1-2" data-name="Слой 1">
      <path class="cls-2" d="M57.69,254.47s9.62,11.3,17.06,11.76,32.81-7.56,32.81-7.56l2.56-26.43-52.43-18.5Z"></path>
      <path class="cls-2" d="M0,230.36l5.23,34.48s18.58,2.78,21.83,1.86,18.12-6.51,22.29-6.51,8.34-5.73,8.34-5.73V213.74Z"></path>
      <g class="cls-3">
        <rect class="cls-4" x="31.38" y="249.54" width="48.87" height="98.4" transform="translate(-245.49 338.44) rotate(-86.92)"></rect>
      </g>
      <path class="cls-5" d="M7.72,297.1,5.23,264.84s23.69-.47,30.19-3.72,22.27-6.66,22.27-6.66l-1.83,22.4Z"></path>
      <path class="cls-6" d="M41.49,266.84a8.56,8.56,0,0,0-2.84-1.67l0,0s-3.79-1.13-5.85,1.42-1.71,5.28-.77,5.73a11.08,11.08,0,0,0,1.63.34l.09,0a28.19,28.19,0,0,0,3.51-.8,1.56,1.56,0,0,0,.6-.16,6.26,6.26,0,0,0,.65-.19c1.49-.45,1.67-.12,2.69-1a4,4,0,0,0,1.09-2.55l-.21-.5h0l0,0a1,1,0,0,0-.58-.5"></path>
      <path class="cls-6" d="M21.2,270.17a10.79,10.79,0,0,0-4,1.33v0s-4.3,2.7-3.59,6.85,3.66,6.13,4.88,5.6a14.71,14.71,0,0,0,1.71-1.28l0-.13c.92-1.06,1.59-3.17,2.21-4.06a2,2,0,0,0,.35-.72c.11-.2.21-.42.38-.79.8-1.81,1.28-1.71,1.29-3.45a5.09,5.09,0,0,0-1.54-3.21,4.07,4.07,0,0,0-.66-.23v0h-.08a1.27,1.27,0,0,0-1,.14"></path>
      <path class="cls-7" d="M57.69,254.47l-1.83,22.39,48.06,20.36,3.64-38.55s-15-1.73-21.48-.81-17.84,3.72-21.24,1.87a45.07,45.07,0,0,1-7.15-5.26"></path>
      <path class="cls-6" d="M39.39,277.47a3.29,3.29,0,0,0-1.26-.31h0a2.31,2.31,0,0,0-2,1.19c-.49,1.18-.05,2.17.35,2.23l.65-.05,0,0a10.59,10.59,0,0,0,1.23-.69l.21-.13.22-.14c.51-.34.61-.23.9-.68a1.59,1.59,0,0,0,.12-1.08l-.13-.16h0Z"></path>
      <path class="cls-6" d="M86.47,267.83a2.27,2.27,0,0,0-.11-.89h0s-.38-1-1.27-1-1.43.5-1.38.78l.2.41h0l.75.63.13.1L85,268c.35.25.3.34.66.42a1.12,1.12,0,0,0,.74-.19l.07-.13h0Z"></path>
      <path class="cls-6" d="M99.89,284A11,11,0,0,0,98,280.2h0s-3.32-3.91-7.36-2.6-5.59,4.54-4.88,5.68a15.32,15.32,0,0,0,1.52,1.53h.14c1.19.77,3.39,1.14,4.37,1.62a2.18,2.18,0,0,0,.77.25c.22.08.45.15.84.26,1.93.55,1.9,1,3.64.79a5.15,5.15,0,0,0,3-2,3.87,3.87,0,0,0,.13-.69h0l0-.07a1.27,1.27,0,0,0-.28-1"></path>
      <path class="cls-6" d="M73.78,270.73a8.37,8.37,0,0,0-1.87,2.69l0,0s-1.4,3.66,1,5.9,5.11,2.08,5.62,1.19a12.49,12.49,0,0,0,.46-1.59l0-.1a27.58,27.58,0,0,0-.52-3.53,1.72,1.72,0,0,0-.12-.61c0-.17-.07-.36-.13-.66-.35-1.5,0-1.66-.81-2.74A3.94,3.94,0,0,0,74.88,270l-.51.17v0l0,0a1,1,0,0,0-.54.54"></path>
      <path class="cls-8" d="M74,298.11a1.59,1.59,0,0,0,1.57-.42c.54-.7.43-1.43.17-1.54l-.44-.09c-.29-.05-.32.69-.33.7Z"></path>
      <path class="cls-9" d="M73,297.53s.87.79,1.23.55.8-.46.8-.46l0-.25-1-.31-.56.19Z"></path>
      <path class="cls-10" d="M73,297.39c0,.1.12.36.4.27a4.1,4.1,0,0,0,.52-.23l.33-1c.06-.15.14-.19-.25-.06s-.45,0-.72.29a1.07,1.07,0,0,0-.28.69"></path>
      <path class="cls-11" d="M73.88,297.43a5.25,5.25,0,0,0,.13-.69c0-.31,0-.39.28-.43s.84-.33,1.11-.23.26.09.26.44a1.24,1.24,0,0,1-.39.87.69.69,0,0,1-.75.33,1.82,1.82,0,0,1-.64-.29"></path>
      <path class="cls-8" d="M63.28,292s2.39.13,3.24-1.67.26-3.36-.36-3.49a9.47,9.47,0,0,0-1,0c-.66,0-.37,1.67-.39,1.7Z"></path>
      <path class="cls-9" d="M60.93,291.16s2.3,1.32,3,.61,1.53-1.4,1.53-1.4l-.15-.52a7.25,7.25,0,0,0-2.27-.24c-.36.2-1,.62-1.16.69Z"></path>
      <path class="cls-10" d="M60.74,290.88c.11.21.43.74,1,.41a9.08,9.08,0,0,0,1.05-.76s.18-1.93.26-2.28.22-.49-.58,0-1,.31-1.44,1a2.38,2.38,0,0,0-.28,1.65"></path>
      <path class="cls-11" d="M62.78,290.53a10.92,10.92,0,0,0-.05-1.58c-.09-.7-.16-.88.42-1.09s1.68-1.12,2.32-1,.6.06.77.84a2.88,2.88,0,0,1-.41,2.1,1.61,1.61,0,0,1-1.52,1.07,4.11,4.11,0,0,1-1.53-.32"></path>
      <path class="cls-8" d="M53.32,299.75s1.86,1.42,3.54.43,2-2.58,1.62-3a7,7,0,0,0-.84-.53c-.55-.33-1.21,1.15-1.25,1.16Z"></path>
      <path class="cls-9" d="M51.86,297.8s1.15,2.33,2.08,2.13,2-.29,2-.29l.16-.51s-1.29-1.4-1.7-1.44-1.14,0-1.32-.07Z"></path>
      <path class="cls-10" d="M51.86,297.47c0,.23,0,.84.59.87a8.3,8.3,0,0,0,1.26,0l1.46-1.71c.25-.24.45-.27-.47-.32s-1-.27-1.7,0a2.39,2.39,0,0,0-1.14,1.19"></path>
      <path class="cls-11" d="M53.71,298.31a10.69,10.69,0,0,0,.83-1.32c.3-.61.35-.78.93-.64s2,0,2.44.44.45.38.17,1.11a2.8,2.8,0,0,1-1.49,1.46,1.54,1.54,0,0,1-1.81,0,3.92,3.92,0,0,1-1.07-1.09"></path>
      <path class="cls-8" d="M49,293.31a2.67,2.67,0,0,0,.1-2.73c-.86-1.2-2.11-1.39-2.41-1l-.35.67c-.22.44,1,.85,1,.88Z"></path>
      <path class="cls-9" d="M47.63,294.55s1.7-1,1.49-1.73a15.08,15.08,0,0,1-.35-1.51l-.4-.09s-1,1.08-1,1.4,0,.87,0,1Z"></path>
      <path class="cls-10" d="M47.39,294.57c.18,0,.63,0,.62-.5a7.72,7.72,0,0,0-.11-1l-1.4-1c-.2-.17-.23-.32-.21.38s-.15.74.12,1.3a1.8,1.8,0,0,0,1,.78"></path>
      <path class="cls-11" d="M47.9,293.11a7.93,7.93,0,0,0-1.06-.54c-.49-.2-.62-.22-.55-.67s-.13-1.51.17-1.89.26-.37.84-.2a2.1,2.1,0,0,1,1.21,1,1.19,1.19,0,0,1,.15,1.38,3,3,0,0,1-.76.89"></path>
      <path class="cls-8" d="M40.56,295.32a1.15,1.15,0,0,0,.38-1.11c-.2-.61-.69-.85-.86-.74l-.23.23.29.49Z"></path>
      <path class="cls-9" d="M39.82,295.66s.83-.21.84-.52,0-.68,0-.68l-.15-.08-.58.44-.12.43Z"></path>
      <path class="cls-10" d="M39.71,295.64l.33-.13.08-.41-.46-.59c-.06-.1,0-.17-.13.12s-.16.29-.12.56a.81.81,0,0,0,.3.45"></path>
      <path class="cls-11" d="M40.12,295.1l-.37-.36-.15-.35.32-.76.37,0a1,1,0,0,1,.37.59.51.51,0,0,1-.12.59Z"></path>
      <path class="cls-8" d="M38,300s1.64-2.64.13-4.73-3.65-2.39-4.18-1.77a8.24,8.24,0,0,0-.6,1.17c-.37.77,1.66,1.46,1.69,1.51Z"></path>
      <path class="cls-9" d="M35.56,302.15s2.94-1.8,2.56-3-.63-2.62-.63-2.62l-.69-.15s-1.69,1.88-1.69,2.42.08,1.52.06,1.75Z"></path>
      <path class="cls-10" d="M35.13,302.19c.31,0,1.1,0,1.07-.87a12.17,12.17,0,0,0-.19-1.66s-2.09-1.42-2.44-1.72-.41-.56-.36.66-.25,1.28.21,2.24a3.15,3.15,0,0,0,1.71,1.35"></path>
      <path class="cls-11" d="M36,299.66a13.69,13.69,0,0,0-1.84-.94c-.85-.33-1.08-.36-1-1.15s-.23-2.61.29-3.28.45-.64,1.44-.35a3.68,3.68,0,0,1,2.12,1.79,2.05,2.05,0,0,1,.27,2.38A5.33,5.33,0,0,1,36,299.66"></path>
      <path class="cls-12" d="M106.32,280a4.08,4.08,0,0,1,1.19.57c.7.53,1,1.5,1.63,2.12a4.65,4.65,0,0,1-.73-1.13,3.65,3.65,0,0,0-.8-1.12,4.13,4.13,0,0,0-1.22-.66,13,13,0,0,0-1.33-.35,25.06,25.06,0,0,1-2.62-.65,12.63,12.63,0,0,1-2.44-1.07h0a.25.25,0,0,0-.17,0l0,0a38.07,38.07,0,0,0-6.15-4.22L92,272.59l-1.69-.8L88.6,271l-1.73-.69q-2.41-.9-4.89-1.64c.31,0,.61,0,.91,0s.8,0,1.19-.09a10.1,10.1,0,0,0,1.17-.23l.28,0,.28,0c.19,0,.38,0,.59,0,.41,0,.78-.17,1.15-.17a5.17,5.17,0,0,1,1.12.26,2.28,2.28,0,0,1,1.06.45,2.33,2.33,0,0,0-1-.54,5.84,5.84,0,0,0-1.14-.36c-.41,0-.81.08-1.17.08h-.22l.29-.08c.35-.11.68-.26,1-.35a5,5,0,0,1,.53-.11,4.93,4.93,0,0,1,.54-.05h.54a1,1,0,0,1,.51.16h0s0,0,0,0a1,1,0,0,0-.51-.23,3.57,3.57,0,0,0-.56-.07H88l-.56.07a4.94,4.94,0,0,0-1.08.3,7.94,7.94,0,0,0-.72.34H85.5l-.31,0c-.4.05-.77.12-1.15.13s-.76,0-1.15,0c-.77,0-1.55-.09-2.34-.13h0a.44.44,0,0,0-.25.11h-.08l-.11.06-.22-.06a24.79,24.79,0,0,1-4.16-3,40.49,40.49,0,0,1-3.7-3.71c-.57-.64-1.13-1.3-1.68-2,.12.08.24.16.37.23a34.09,34.09,0,0,0,7.37,3.19,77.29,77.29,0,0,0,7.71,1.88c2.59.51,5.17,1,7.73,1.52h.09a7.85,7.85,0,0,1,1.91.31,17,17,0,0,1,1.66.56.34.34,0,0,0,.09.19c.45.48.86,1,1.26,1.51l.6.8a5.18,5.18,0,0,1,.56.79,2,2,0,0,1,.19.42,2.86,2.86,0,0,1,.08.47,7.83,7.83,0,0,0,.26,1l.15.48c.05.15.09.31.15.47l.18.47a1.36,1.36,0,0,1,.08.49,1.4,1.4,0,0,0,0-.5c0-.16-.09-.32-.13-.48s-.06-.33-.1-.49l-.11-.49a8,8,0,0,1-.16-1,2.41,2.41,0,0,0,0-.52,2.78,2.78,0,0,0-.17-.51,3,3,0,0,0-.15-.31l.37.25a5.1,5.1,0,0,0,.77.4c.27.11.55.2.81.29s.52.21.77.33a4.49,4.49,0,0,1,.69.44,3,3,0,0,1,.56.61,2.6,2.6,0,0,1,.21.36.67.67,0,0,1,.1.39h0a0,0,0,0,0,0,0s0,0,0,0a.74.74,0,0,0-.05-.44,2.35,2.35,0,0,0-.19-.39,2.9,2.9,0,0,0-.51-.71,5.75,5.75,0,0,0-1.48-.93c-.26-.13-.52-.24-.76-.37l-.74-.39c-.32-.15-.64-.32-1-.46l-.5-.82c-.19-.3-.38-.6-.59-.9l1,.34.19.06a.31.31,0,0,0,.16.11c.42.14.83.25,1.22.39a5.37,5.37,0,0,1,.56.21,3.7,3.7,0,0,1,.51.29,7,7,0,0,1,1,.76c.3.29.59.59.88.91.14.15.28.31.43.46s.31.3.45.45.29.31.43.47l.21.23.17.25c.1.18.19.37.29.56l.3.56c.2.37.39.75.62,1.11-.2-.37-.37-.76-.54-1.15l-.25-.58a6.21,6.21,0,0,0-.26-.59,2.69,2.69,0,0,0-.16-.29c-.07-.09-.14-.17-.2-.26l-.39-.5c-.15-.17-.29-.32-.42-.48l-.4-.49a9.93,9.93,0,0,0-1.79-1.88,2.49,2.49,0,0,0-.31-.23c.33,0,.65-.06,1-.07a12.82,12.82,0,0,1,1.52,0,6.87,6.87,0,0,1,1.5.21,4.59,4.59,0,0,1,1.41.59,4.51,4.51,0,0,0-1.37-.73,7.77,7.77,0,0,0-1.52-.33,17.5,17.5,0,0,0-3.07-.07l-.5-.09c-.34-.14-.67-.26-1-.4h0a.41.41,0,0,0-.29,0l-.11,0-.41-.17h.06l1.21.1c.4,0,.8,0,1.2,0h1.19a1.5,1.5,0,0,0,.89-.05,7.73,7.73,0,0,1,1.18-.24h.35s0,0,0,0a2.67,2.67,0,0,0,.51.25l.51.18.52.13a3.31,3.31,0,0,1,.5.13,1.59,1.59,0,0,1,.43.26c.14.1.28.23.41.34s.51.52.78.77h0a0,0,0,0,0,0,0c-.21-.3-.41-.6-.65-.89s-.24-.28-.38-.42l0,0,.11.07a.58.58,0,0,1,.12.1.31.31,0,0,1,.09.11h0s0,0,0,0a0,0,0,0,0,0,0,.26.26,0,0,0-.09-.14l-.11-.11-.25-.19a2.51,2.51,0,0,1-.24-.19l-.24-.21a1.58,1.58,0,0,0-1.2-.43h-.62l-.63,0a7,7,0,0,0-1.25.19h0a1.12,1.12,0,0,1-.7,0h0l-1.21-.07c-.4,0-.8,0-1.2,0s-.81,0-1.21,0l-.65,0-.88-.39a19.62,19.62,0,0,0-1.94-.78,8.38,8.38,0,0,0-2.06-.42c-2.19-.55-4.39-1-6.58-1.51l.36-.12a6,6,0,0,0,1.68-.85,5.15,5.15,0,0,0,1-.13,6.26,6.26,0,0,0,1.11-.44l.52-.26L92,262l.13-.06.13,0c.17,0,.37,0,.58,0a1.92,1.92,0,0,1,.57-.11v0h0a.76.76,0,0,0-.3,0c-.1,0-.19,0-.28,0s-.38,0-.59,0a.41.41,0,0,0-.16,0l-.15.05-.27.11-.54.22c-.36.14-.73.23-1.09.37l-.64.22a7.7,7.7,0,0,0,.6-.54l.17-.19a1.07,1.07,0,0,0,.15-.22,1.42,1.42,0,0,1,.11-.18,1.09,1.09,0,0,1,.17-.13c.26-.16.6-.21.89-.38s.28-.16.43-.23a.81.81,0,0,1,.46-.09.88.88,0,0,0-.48.05,3.57,3.57,0,0,0-.45.19c-.29.13-.62.14-.94.29a1,1,0,0,0-.23.15.78.78,0,0,0-.16.21l-.14.17-.18.15a6.05,6.05,0,0,1-.77.56,5.25,5.25,0,0,1-1.73.7c-.53.13-1.08.22-1.65.32-2.35-.54-4.68-1.14-7-1.88a5,5,0,0,1,.79-1l.14-.13c.38-.13.74-.32,1.1-.41L81,260a2,2,0,0,1,.34,0c.24,0,.47,0,.71.06l.72.11.72.1a11.86,11.86,0,0,0,1.46,0s0,0,0,0h0a11.33,11.33,0,0,1-1.44-.15l-.71-.14-.71-.16c-.24-.05-.48-.09-.73-.12s-.23,0-.38,0a1.59,1.59,0,0,0-.39.08,2.78,2.78,0,0,0-.52.25l0,0c.22-.21.44-.41.67-.59a3.9,3.9,0,0,1,.74-.48,5.59,5.59,0,0,1,.85-.25,12.07,12.07,0,0,1,1.81-.19,12.56,12.56,0,0,0-1.84,0,5,5,0,0,0-.92.18,3.84,3.84,0,0,0-.86.43c-.26.17-.51.35-.76.54l-.74.55-.19.15-.18.18a3.73,3.73,0,0,0-.32.36l-.43.54a32.82,32.82,0,0,1-6.53-3,25.11,25.11,0,0,1-3.11-2.22,26.37,26.37,0,0,1-2.72-2.67c-.42-1-2-4.16-4.13-5.14-2.53-1.15-8-.23-9.19,3.33a3.83,3.83,0,0,0-.18.91,10.51,10.51,0,0,1-.89,2,9.59,9.59,0,0,1-2,2.38,15.38,15.38,0,0,1-5.65,2.89c-.44.14-.88.26-1.33.37l-1.06-.49-.69-.32a7,7,0,0,1-.66-.34l-.37-.18-.36-.13-.27-.09h0s0,0,0,0c-.19-.17-.39-.3-.57-.44l-.28-.2a.89.89,0,0,1-.22-.21,1.21,1.21,0,0,1-.14-.25.47.47,0,0,0-.05-.1l0-.07-.09-.14a7.36,7.36,0,0,0-.41-.62,2.12,2.12,0,0,0-.61-.48,4.37,4.37,0,0,0-.67-.29,1.7,1.7,0,0,0-.36-.11l-.35,0a6.56,6.56,0,0,0-.7-.16,0,0,0,0,0,0,0s0,0,0,0c.23,0,.42.18.67.25l.34.08a2,2,0,0,1,.31.13,2.76,2.76,0,0,1,1.08.79,5,5,0,0,1,.3.61l.08.16,0,.09,0,.06a1.29,1.29,0,0,0,.23.35,1.32,1.32,0,0,0,.33.23l0,0q-.47-.14-.93-.24a6.53,6.53,0,0,0-.77-.14c-.26,0-.52,0-.78,0-.51,0-1,0-1.51-.05a3.6,3.6,0,0,1-.73-.13l-.37-.11-.38-.08c-.48-.09-.91-.45-1.42-.5a2.23,2.23,0,0,1,.7.28,3.73,3.73,0,0,0,.7.32l.37.09.35.13a3.3,3.3,0,0,0,.75.19c.51.08,1,.1,1.53.15.25,0,.5.05.74.09a4.46,4.46,0,0,1,.72.18,14.12,14.12,0,0,1,1.43.48l.69.29.34.15.31.17c.2.13.42.28.67.41l.67.36.28.15c-1.33.29-2.69.52-4,.73-1.77.27-3.56.51-5.34.78-.39-.11-.78-.22-1.15-.34l-.7-.25-.35-.14-.39-.12c-.26-.06-.52-.1-.76-.14a6.2,6.2,0,0,1-.72-.16,3,3,0,0,0-.8-.11h-.39l-.58-.22v0a.58.58,0,0,0-.11-.15.82.82,0,0,0-.2-.14,2,2,0,0,1-.26-.2l-.32-.24-.09,0-.11-.06-.21-.06-.37-.09-.36-.1c-.24-.07-.49-.14-.74-.19a5.65,5.65,0,0,0-1.53-.16c-.51,0-1,.08-1.52.1l0,0,0,0c.51,0,1,0,1.51,0a6.48,6.48,0,0,1,1.46.26c.24.07.48.15.71.24l.36.13.36.12.15.06.06,0,.06,0,.27.24a2,2,0,0,0,.35.24l.12.06h0l0,.1a.2.2,0,0,0,.08.08l-.23,0a3,3,0,0,0-.4,0,3.4,3.4,0,0,0-.38.12,2.14,2.14,0,0,1-.34.09l-.37.08-.74.14a2.83,2.83,0,0,1-.36.07,2.31,2.31,0,0,1-.37,0h-.75l-.75.07h-.38a.59.59,0,0,1-.34-.13.62.62,0,0,0,.34.15,2.34,2.34,0,0,0,.38,0c.25,0,.5,0,.75,0s.5,0,.75,0h.38l.38-.05.75-.1.37,0,.39-.08a2.25,2.25,0,0,1,.35-.09h.54l.21,0,.36,0a5.77,5.77,0,0,1,.72,0,3.32,3.32,0,0,1,.68.15l.37.11.38.1c.24.06.48.11.7.18a4.07,4.07,0,0,1,.66.28l.63.26c-1.05.19-2.09.4-3.13.66l-.8.21-.8.17c-.53.11-1.07.2-1.61.26l-.82.07-.84.07c-.34,0-.69.09-1,.15a12,12,0,0,0-1.45-.08c-.5,0-1,0-1.48,0s-1,0-1.46,0c-.24,0-.48,0-.71-.06l-.37-.05-.1,0h-.15a9.53,9.53,0,0,0-2.91-.41l-.4,0a2.7,2.7,0,0,0-.41.08,4,4,0,0,0-.75.29,4.29,4.29,0,0,0-.68.42,3.92,3.92,0,0,0-.32.25l-.14.14a.3.3,0,0,0-.08.18.28.28,0,0,1,.09-.17l.15-.13a1.94,1.94,0,0,1,.33-.23,4.58,4.58,0,0,1,.69-.37,3.83,3.83,0,0,1,.75-.23,3.94,3.94,0,0,1,.77,0,9.54,9.54,0,0,1,2.83.6h0l0,0h0l.05,0,.1,0h0a.25.25,0,0,0,.12,0l.26.05a6.79,6.79,0,0,0,.75.11c.5.05,1,.07,1.49.09l.82,0-.2.07c-.27.09-.53.21-.79.32s-.52.24-.77.38l-.74.41c-.24.16-.48.3-.71.47l-.64.46a.41.41,0,0,0-.39-.06h0c-.49.18-1,.38-1.44.59h-.08l-.15,0-.3.05-.62.09a6.06,6.06,0,0,0-.64.13l-.6.16-.29.09s0,0,0,0h0l-.3.13a3,3,0,0,0-.57.34c-.35.25-.66.51-1,.78A20.26,20.26,0,0,1,7,270.46c-.36.21-.7.46-1,.69a3.32,3.32,0,0,1-1.11.56h0v.1l0-.09A3.61,3.61,0,0,0,6,271.23c.36-.22.71-.44,1.08-.63a18.72,18.72,0,0,0,2.05-1.43l.5-.36-.26.3c-.45.5-.83,1.06-1.25,1.58s-.85,1-1.31,1.52c-.22.25-.46.48-.69.74s-.21.27-.32.39l-.18.18a.3.3,0,0,0-.11.24l0,0,0,0h0a.26.26,0,0,1,.12-.19l.19-.16c.14-.12.24-.25.36-.36s.51-.45.75-.68c.5-.46,1-.95,1.43-1.45a17.44,17.44,0,0,0,1.32-1.53c.27-.36.52-.72.75-1.1l.2-.09a4.12,4.12,0,0,1,.56-.16l.61-.12a4.78,4.78,0,0,1,.59-.07l.62-.06.31,0,.16,0h.24l.34-.11a22.58,22.58,0,0,0-1.87,1.92,48.18,48.18,0,0,0-3.94,5.41c.67-.89,1.34-1.78,2-2.65s1.41-1.71,2.17-2.52c.39-.4.77-.79,1.18-1.16s.82-.74,1.25-1.08a15.48,15.48,0,0,1,1.34-.95c.23-.15.47-.28.7-.42h0a3.46,3.46,0,0,0-.39,1,1.55,1.55,0,0,0,0,.21c-.18.44-.35.88-.52,1.32s-.38,1-.58,1.5a2.75,2.75,0,0,1-.38.66,3.67,3.67,0,0,0-.44.71,3,3,0,0,0-.14.39l-.11.39-.06.2c0,.06,0,.12-.06.19a.68.68,0,0,0-.06.4.68.68,0,0,1,.12-.37c0-.06.07-.12.1-.19l.08-.18.16-.37a2.37,2.37,0,0,1,.17-.36c.26-.43.7-.78,1-1.31s.45-1,.66-1.49a1.67,1.67,0,0,1,.08-.2c0,.17,0,.35,0,.52l0,.49a3.85,3.85,0,0,0,.07.49,2.94,2.94,0,0,1,.05.93,1.47,1.47,0,0,1-.14.45,3.42,3.42,0,0,1-.21.43,4.34,4.34,0,0,1-.53.81,5.71,5.71,0,0,0,.62-.76,4.23,4.23,0,0,0,.25-.42,2.22,2.22,0,0,0,.2-.47,3.37,3.37,0,0,0,0-1c0-.16,0-.32,0-.48v-.48c0-.33,0-.65,0-1a3.59,3.59,0,0,1,0-.46,2.07,2.07,0,0,1,.1-.43,5.19,5.19,0,0,1,1-1.54l0,0a.3.3,0,0,0,0-.16l.24-.1c.26-.1.51-.2.77-.28a11.72,11.72,0,0,1,1.57-.43l.42-.08h.06a.35.35,0,0,0,.25-.05l.87-.1.83-.05.85-.05c.56-.05,1.13-.12,1.69-.22l.83-.17.82-.18c1.07-.25,2.16-.43,3.25-.59,2.19-.32,4.41-.53,6.62-.82A48.06,48.06,0,0,0,44,261.15,20.29,20.29,0,0,0,47.2,260a14.87,14.87,0,0,0,1.9-1.07l-.4.49-.59.68c-.2.23-.41.44-.61.66a18.06,18.06,0,0,1-2.64,2.32,12.92,12.92,0,0,1-3,1.61,18.24,18.24,0,0,1-3.43.8c-1.19.17-2.41.29-3.63.42s-2.47.29-3.71.51l-.92.17-.92.19-.46.1-.47.12-.93.3a12.55,12.55,0,0,0-3.42,1.84,12.72,12.72,0,0,0-1.47,1.28l-1.27,1.34c-.84.87-1.72,1.71-2.62,2.54l-.94.86-.09,0a3.49,3.49,0,0,0-.34.15l-.27.11a1.9,1.9,0,0,0-.34,0l-.35.05-.34.06-.36.08a13.76,13.76,0,0,1-1.34.33,2.48,2.48,0,0,0-.72.19,2.21,2.21,0,0,0-.55.5l-.22.26a1.71,1.71,0,0,0-.11.14l-.11.15-.2.28a.6.6,0,0,1-.25.2h0s0,0,0,0,0,0,0,0a.58.58,0,0,0,.31-.19,2,2,0,0,0,.24-.26l.11-.13.13-.12.25-.24a1.77,1.77,0,0,1,.52-.4,2.08,2.08,0,0,1,.64-.12c.47,0,.94-.15,1.39-.21L16,276l.35,0,.34-.07.16,0c-1.24,1.1-2.5,2.19-3.74,3.31-.91.83-1.81,1.67-2.69,2.54s-1.71,1.78-2.5,2.73c1.11-1,2.26-2,3.43-2.93a8.26,8.26,0,0,0-.4.92c-.09.26-.17.53-.26.78a5.17,5.17,0,0,1-.33.72,6.73,6.73,0,0,1-1,1.31A7.92,7.92,0,0,0,10.45,284a6.37,6.37,0,0,0,.41-.72c.13-.25.22-.5.34-.74A7,7,0,0,1,12,281.2a7.22,7.22,0,0,1,.78-.88c.78-.62,1.57-1.22,2.36-1.83-.08.21-.16.42-.23.65s-.12.5-.17.74a4.09,4.09,0,0,1-.17.71c-.07.24-.15.48-.2.73a2.5,2.5,0,0,0-.06.38c0,.13,0,.26,0,.38l.06.75,0-.75c0-.12,0-.25,0-.36a2.3,2.3,0,0,1,.1-.35c.08-.23.19-.45.29-.68a6.09,6.09,0,0,0,.27-.71c.08-.24.16-.47.25-.69s.21-.43.32-.64c.2-.37.42-.73.65-1.09,1-.79,2-1.58,3-2.42l0,0a.13.13,0,0,0,0,.06l0,.44c0,.13,0,.28,0,.43a2.14,2.14,0,0,0,.08.44,2.25,2.25,0,0,0,.14.44l0,.06h0a5.92,5.92,0,0,0-.37,1.19,1.88,1.88,0,0,1,0,.28.56.56,0,0,1,0,.12l0,.14c-.07.19-.14.38-.22.56s-.16.37-.25.54-.18.37-.26.55l-.26.54a2.13,2.13,0,0,1-.16.25.35.35,0,0,0-.07.29.34.34,0,0,1,.09-.27,1.12,1.12,0,0,0,.19-.24c.11-.17.22-.34.32-.51l.32-.51c.11-.17.21-.35.31-.53s.19-.36.28-.54l.07-.13a.77.77,0,0,0,.07-.16,2,2,0,0,0,.08-.31,3.54,3.54,0,0,1,.29-.71,5.67,5.67,0,0,1,.47.87,3.92,3.92,0,0,1,.15,1.61c0,.55-.17,1.1-.23,1.66.11-.55.3-1.08.38-1.64a4,4,0,0,0,0-1.73c-.17-.58-.5-1.05-.66-1.55a1.55,1.55,0,0,1-.08-.36c0-.13,0-.26,0-.39s0-.27,0-.41v-.32l.72-1.11,0,0a.37.37,0,0,0,0-.25c.45-.41.89-.83,1.33-1.25l1.29-1.31a11.87,11.87,0,0,1,1.34-1.12q.38-.27.78-.51l0,.26,0,.32-.22.34v0c-.16.28-.26.54-.4.76s-.32.52-.46.77a5.33,5.33,0,0,1-1,1.38c-.21.2-.43.4-.64.63a3,3,0,0,0-.5.76c-.06.14-.11.27-.16.41s-.11.27-.16.41a1.86,1.86,0,0,0-.14.87,1.74,1.74,0,0,1,.21-.84c.06-.13.13-.26.19-.4l.2-.39a2.61,2.61,0,0,1,.53-.66c.21-.2.44-.37.67-.56s.23-.19.34-.3.21-.22.31-.34.36-.49.52-.73.33-.48.51-.7l.16-.23-.2,3.13,0,0,0,.06a1.72,1.72,0,0,0-.07.21c0,.14-.07.28-.1.41s-.07.28-.11.41a.64.64,0,0,1-.08.19.22.22,0,0,1-.15.13.25.25,0,0,0,.17-.11,1.74,1.74,0,0,0,.1-.19c.06-.13.1-.27.15-.4s.1-.27.15-.4l0-.07h0a.09.09,0,0,0,.1-.08h0l.9-5.13.11-.43h0a11,11,0,0,1,1.43-.59,13.21,13.21,0,0,1,1.7-.43l.89-.17.61-.11c-.1.35-.19.69-.29,1s-.16.5-.26.73l-.07.18c0,.05-.05.1-.08.16s-.14.2-.21.32a1.88,1.88,0,0,0-.21.36l-.18.36a2,2,0,0,1-.2.31l-.26.28a6.1,6.1,0,0,0-.55.59l-.28.28a.86.86,0,0,0-.13.14.36.36,0,0,0-.1.18.57.57,0,0,1,.11-.16l.15-.13a3.49,3.49,0,0,0,.32-.25,7.64,7.64,0,0,1,.6-.51,3.88,3.88,0,0,0,.31-.26,1.7,1.7,0,0,0,.27-.33l.22-.33a1.82,1.82,0,0,1,.23-.3l.26-.32a1.18,1.18,0,0,0,.13-.18l.1-.18c.13-.24.25-.49.36-.74.2-.45.38-.91.57-1.34,1-.15,2-.27,3.09-.37,1.21-.11,2.45-.21,3.7-.38a20,20,0,0,0,3.74-.85,14,14,0,0,0,3.47-1.8,19.46,19.46,0,0,0,2.88-2.54A31.63,31.63,0,0,0,51.12,259c.86-1.17,1.66-2.37,2.42-3.59-.08.23-.17.45-.26.67a18.25,18.25,0,0,1-1.43,2.78,25.89,25.89,0,0,1-4,4.86,58,58,0,0,1-4.91,4.17c-1.45,1.12-2.93,2.21-4.4,3.32a.42.42,0,0,0-.27.14.33.33,0,0,1-.19.06h-.36a3,3,0,0,0-.43,0,1.14,1.14,0,0,0-.35,0,.85.85,0,0,0-.27-.11c-.14,0-.23,0-.32-.07l-.67-.21-.18,0-.17,0-.33-.08a5.26,5.26,0,0,0-.71-.12h-.68a2.13,2.13,0,0,1-.63-.21,5.43,5.43,0,0,1-1.19-.69,5.29,5.29,0,0,0,1.12.82,2.41,2.41,0,0,0,.65.3,2.35,2.35,0,0,0,.37,0,1.58,1.58,0,0,1,.32,0l.12,0c-.28.25-.54.51-.82.74a3.26,3.26,0,0,1-.95.56l-.53.23-.27.11-.13,0-.13.05c-.18.05-.38.09-.56.16a.82.82,0,0,0-.25.16.4.4,0,0,0-.09.27.34.34,0,0,1,.11-.25A.58.58,0,0,1,31,273a3.47,3.47,0,0,1,.56-.11l.15,0,.14,0,.27-.08.55-.17a3.8,3.8,0,0,0,1.08-.5c.33-.23.63-.47.94-.69l0,0a.23.23,0,0,0,.07-.19l.11,0,.33.11.17.06.16,0c.19.07.39.18.62.27l.35.12a.39.39,0,0,1,.15.09.22.22,0,0,0,.26.1l.07,0a1.19,1.19,0,0,1,.28,0h.13c-1.63,1.26-3.25,2.55-4.78,4-.45.42-.88.85-1.31,1.29l-.42.38c-.15.14-.31.27-.47.4s-.34.3-.49.44a4,4,0,0,1-.45.39,1.14,1.14,0,0,1-.23.15l-.28.15-1.12.58a7.38,7.38,0,0,0-1.11.66,5.65,5.65,0,0,0-.91.92c-.26.34-.5.69-.76,1-.13.16-.27.32-.4.49a2.17,2.17,0,0,0-.3.56,1.85,1.85,0,0,1,.34-.53c.14-.16.28-.3.43-.46.29-.31.55-.64.84-.94a5.1,5.1,0,0,1,.92-.82A9.55,9.55,0,0,1,28,280.1l.32-.14-.44.55q-.25.33-.48.66l-.46.69c-.31.45-.62.91-.91,1.38a8.23,8.23,0,0,0-.75,1.48h0a0,0,0,0,0,0,0,0,0,0,0,0,.06,0,.22.22,0,0,1,.09-.1h0s0,0,0,0l0,0a9.78,9.78,0,0,1,.79-1.22c.33-.44.67-.87,1-1.3l.53-.63c.17-.22.33-.45.48-.68s.28-.48.41-.73l.12-.27.38-.16.14-.06q-.55.7-1.05,1.47a18.17,18.17,0,0,0-1.58,3,15.12,15.12,0,0,0-.58,1.59l0,0c-.71,1.17-1.57,2.28-2.36,3.44a10.12,10.12,0,0,0-1,1.84,4.71,4.71,0,0,0-.42,2.05,4.56,4.56,0,0,1,.59-2,10.27,10.27,0,0,1,1.17-1.7c.54-.65,1.11-1.29,1.66-1.94a17.54,17.54,0,0,0,0,6.42,23.63,23.63,0,0,1,.07-3.26,17.46,17.46,0,0,1,3.38-8.86l.13-.17h0v.2l0,.15,0,.31c0,.22,0,.44,0,.66.15.91.54,1.66.7,2.46.09.39.09.81.15,1.25,0,.11,0,.22.05.31a1.53,1.53,0,0,1,0,.3,4.2,4.2,0,0,1-.06.61c0,.21-.08.42-.1.63A6.18,6.18,0,0,1,30,289c-.05.2-.1.41-.16.61a1.65,1.65,0,0,0-.14.62,1.6,1.6,0,0,1,.18-.6,6.26,6.26,0,0,0,.21-.61,6.09,6.09,0,0,0,.17-.61c0-.21.09-.41.14-.62a3.43,3.43,0,0,0,.11-.64,1.93,1.93,0,0,0,0-.34l0-.31c0-.41,0-.84-.05-1.28-.12-.87-.45-1.68-.51-2.46,0-.2,0-.4,0-.61v-.48s0-.09,0-.13a1.31,1.31,0,0,1,.16-.47l.31-.55s0,0,0,0a.37.37,0,0,0,0-.37l.8-.9c.69-.72,1.42-1.41,2.17-2.08,0,.2,0,.39,0,.59a16.47,16.47,0,0,0,.25,2.14l.08.52a4.43,4.43,0,0,1,.06.51,9.21,9.21,0,0,1,0,1,5.19,5.19,0,0,1-.19,1,2.25,2.25,0,0,1-.08.24l-.1.25a2.56,2.56,0,0,1-.11.24c0,.08-.07.17-.16.2a.39.39,0,0,0,.19-.19l.12-.23.12-.24a2.56,2.56,0,0,0,.11-.24,5.33,5.33,0,0,0,.28-1,7.45,7.45,0,0,0,.14-1.07,3.25,3.25,0,0,0,0-.54l0-.53a16.34,16.34,0,0,1-.05-2.09,6.64,6.64,0,0,1,.24-1.29c1.43-1.2,2.93-2.33,4.45-3.44,1.75-1.28,3.54-2.54,5.3-3.85A58.46,58.46,0,0,0,49,264.86a26.53,26.53,0,0,0,4.28-5.19A18.83,18.83,0,0,0,55,255.85a12.28,12.28,0,0,1-.34,1.29,18.31,18.31,0,0,1-1.17,2.79c-.23.45-.48.9-.73,1.34s-.54.85-.83,1.27-.6.81-.92,1.2-.65.78-1,1.15-.71.73-1.08,1.07l-.57.51-.6.54-1.19,1.11-1.14,1.16c-.19.2-.39.39-.57.59l-.53.62-.54.61c-.18.21-.36.41-.52.63l0,0a.38.38,0,0,0-.46.15h0a6.55,6.55,0,0,1-.6.95l-.09.08a.1.1,0,0,1,0,0l-.06.05-.23.24a1.22,1.22,0,0,1-.18.16,1.54,1.54,0,0,1-.23.14l-.15.1-.12.09-.05,0a.41.41,0,0,0-.24.11l-.4.41,0,0-.91.79a14.37,14.37,0,0,0-1.7,1.7,9.2,9.2,0,0,0-.62,1l-.15.25a2.2,2.2,0,0,0-.15.26,2,2,0,0,1-.28.52,1.77,1.77,0,0,0,.32-.5,2.07,2.07,0,0,1,.17-.24,2.2,2.2,0,0,0,.17-.25,9.77,9.77,0,0,1,.69-1,9.05,9.05,0,0,1,1.22-1.08c-.07.12-.14.24-.2.36-.23.45-.4.9-.61,1.33-.11.21-.22.42-.35.63l-.09.16c0,.06,0,.12-.07.17a.8.8,0,0,1-.08.16.2.2,0,0,1-.13.11.29.29,0,0,0,.15-.09.86.86,0,0,0,.1-.16l.09-.15.11-.14c.15-.2.29-.39.43-.6.28-.4.51-.84.77-1.22a6.17,6.17,0,0,1,.43-.55c.16-.17.33-.33.51-.49a13.71,13.71,0,0,1,1.09-.9l-.36.54-.42.7-.42.7c-.13.24-.28.47-.4.71l-.75,1.45c-.12.24-.23.49-.34.74l-.33.75-.32.75c-.1.25-.19.5-.29.76l-.28.76-.14.38-.13.39-.47,1.55-.11.39-.1.39-.19.79-.06.22a5.2,5.2,0,0,1-.26.53,19.47,19.47,0,0,1-1.45,2.13l-.06,0a.13.13,0,0,0-.15.11,2.17,2.17,0,0,0,0,.25l-.22.29a15,15,0,0,0-1,1.4,12.27,12.27,0,0,0-.63,1.55,5.8,5.8,0,0,0-.21.82c-.06.27-.12.54-.17.82a10.4,10.4,0,0,0-.18,1.67,10.36,10.36,0,0,1,.23-1.66c0-.28.12-.55.18-.82a7.36,7.36,0,0,1,.24-.8,7.28,7.28,0,0,1,.31-.77c.11-.25.23-.52.36-.75a13.34,13.34,0,0,1,1-1.34c0,.26-.08.52-.11.78-.06.48-.08,1-.1,1.45s0,1,0,1.45c0,.24,0,.49,0,.73a3.43,3.43,0,0,0,.18.7,2.79,2.79,0,0,1-.14-.71c0-.24,0-.48,0-.72,0-.48,0-1,.07-1.44a13.59,13.59,0,0,1,.16-1.43c.07-.42.16-.83.25-1.24.5-.64,1-1.28,1.47-2-.13.65-.23,1.3-.36,1.94s-.14,1.07-.21,1.6l-.1.8-.07.8c0,.53-.09,1.07-.12,1.6l-.05,1.6c0,.27,0,.53,0,.8v.8c0,.53,0,1.07,0,1.6l.21-1.58.1-.79c0-.27.08-.53.12-.79l.24-1.57.29-1.56.15-.77.17-.77.35-1.54c.28-1,.52-2,.87-3l.23-.75.12-.37.14-.37.54-1.46c0-.07,0-.14.07-.2v0q0,.39.09.78c0,.26.09.52.15.77s.14.51.22.75.08.24.11.36a.24.24,0,0,0,0,.08h0c0,.09,0,.18.08.27l.15.75a6.87,6.87,0,0,0,.19.75c0,.13.08.25.13.37l.14.36a10,10,0,0,1,.47,1.43,6.08,6.08,0,0,1,.16.74c0,.24,0,.5.1.75s.08.5.1.75a2.7,2.7,0,0,1-.09.75c0-.12.06-.24.09-.37a1.2,1.2,0,0,0,.05-.38c0-.25,0-.51-.06-.76s0-.5,0-.76-.06-.51-.11-.76a12.54,12.54,0,0,0-.39-1.49l-.12-.36c0-.12-.07-.24-.1-.36a4.29,4.29,0,0,1-.11-.54,13.08,13.08,0,0,0,.87,1.32c.15.19.3.38.46.56s.33.35.48.53a8,8,0,0,0,.94,1.08,7.46,7.46,0,0,1-.87-1.14c-.15-.19-.31-.37-.45-.56s-.28-.38-.41-.58a15.5,15.5,0,0,1-1.15-2.12v0c0-.26-.1-.51-.16-.76a7,7,0,0,1-.17-.73,5.83,5.83,0,0,1-.1-.73c0-.24,0-.49,0-.74v-.37c0-.12,0-.24,0-.36a9.8,9.8,0,0,1,.22-1.26l.32-.66.35-.69a7.43,7.43,0,0,1,.35-.69l.76-1.36c.12-.23.27-.44.4-.66l.41-.66.42-.66.45-.63c.12-.18.24-.36.37-.53,0,.24-.06.48-.08.71l0,.79a12,12,0,0,0,0,1.59c0,.21,0,.41.07.62a2.64,2.64,0,0,0-.08.49,1.15,1.15,0,0,0,0,.37,1.6,1.6,0,0,0,.12.37l.07.15.08.15.15.24.16.72a11.48,11.48,0,0,0,.44,1.52,7.05,7.05,0,0,1,.43,1.49c0,.12,0,.25,0,.38s0,.26,0,.39a6.9,6.9,0,0,1,.09.78c0-.26,0-.52,0-.78l0-.39a2.55,2.55,0,0,0,0-.39,7.3,7.3,0,0,0-.34-1.54,12.16,12.16,0,0,1-.37-1.67l.07.08c.32.33.64.63,1,.94s.34.29.49.45a1.64,1.64,0,0,1,.21.25.44.44,0,0,1,.08.29h0s0,0,0,0,0,0,0,0a.47.47,0,0,0,0-.35,1.75,1.75,0,0,0-.18-.29c-.14-.18-.3-.35-.44-.51-.28-.34-.57-.68-.84-1l-.19-.26-.15-.27L43.9,280h0l-.06-.41a8.77,8.77,0,0,1-.14-1.52,13.12,13.12,0,0,1,.11-1.53l.1-.77c0-.26.08-.5.13-.74a11.58,11.58,0,0,1,.48-1.44v0a.38.38,0,0,0,0-.1c.76-.94,1.57-1.85,2.41-2.73l1.09-1.1,1.15-1,.57-.53.61-.57c.4-.38.79-.77,1.17-1.18A21.85,21.85,0,0,0,53.34,264l-.18.42c-1.54,3.52-3.3,7-4.59,10.74-.33.93-.6,1.88-.86,2.83l-.34,1.45a15.05,15.05,0,0,0-.22,1.5,15.24,15.24,0,0,0,0,3c0,.3.08.6.13.9s-.08.39-.11.58-.05.33-.07.5a.41.41,0,0,0-.13.24v.05c0,.14-.06.3-.09.46l-.12.49c-.07.32-.14.65-.2,1l0,.15c-.09.16-.18.32-.28.48-.22.33-.46.65-.69,1s-.45.68-.66,1a4.51,4.51,0,0,0-.5,1.12,4.15,4.15,0,0,0,0,1.22,4.26,4.26,0,0,1,.08-1.19,4.8,4.8,0,0,1,.57-1c.24-.33.48-.65.73-1s.47-.55.7-.84v.31a2.17,2.17,0,0,0,0,.26,4.34,4.34,0,0,0,0,.51,16.72,16.72,0,0,1,.06,2c0,.35,0,.68,0,1a5.27,5.27,0,0,0-.1,1,5.68,5.68,0,0,1,.2-1c0-.34.06-.67.11-1,.12-.66.11-1.35.17-2,0-.16,0-.32,0-.48s0-.16,0-.24a1.33,1.33,0,0,0,0-.28V289c0-.09,0-.17,0-.22s.06-.3.1-.46.07-.27.11-.4a4.06,4.06,0,0,0,.22-.73c0-.1.07-.2.1-.3a1.72,1.72,0,0,1,.07-.21l0,.22c.2.94.41,1.88.58,2.83s.32,1.89.43,2.85a30.13,30.13,0,0,1,.13,5.78,24.64,24.64,0,0,0,.44-5.82c0-1-.11-2-.23-2.93s-.24-1.93-.41-2.9l-.24-1.43c0-.23-.07-.46-.1-.7l.19.38c.19.37.38.74.61,1.1a6,6,0,0,0,.36.52c.13.17.27.32.39.48a1.6,1.6,0,0,1,.16.23,1.58,1.58,0,0,1,.13.26l.14.29a1.94,1.94,0,0,0,.21.27l.2.22a2.55,2.55,0,0,1,.14.24,1.83,1.83,0,0,0,.14.28.42.42,0,0,0,.09.14l.09.13c.25.32.5.64.74,1,.11.17.26.32.38.48a.87.87,0,0,1,.24.55.89.89,0,0,0-.2-.58A5.65,5.65,0,0,1,52,290c-.21-.35-.44-.69-.66-1l-.09-.13-.06-.12-.12-.28a1.35,1.35,0,0,0-.14-.3,2.93,2.93,0,0,0-.19-.26.65.65,0,0,1-.15-.23,1.69,1.69,0,0,1-.11-.27c0-.09-.07-.19-.12-.3l-.17-.28c-.12-.18-.25-.34-.35-.51a4.27,4.27,0,0,1-.3-.51,10.73,10.73,0,0,1-.5-1.09c-.26-.62-.49-1.26-.79-1.89a14.23,14.23,0,0,1,.13-1.73,12.54,12.54,0,0,1,.26-1.36l.36-1.38c.28-.91.56-1.81.91-2.7s.58-1.49.89-2.22l.08.1.07.07.1.07.15.09.08,0,.12.09.48.35.35.27a7.54,7.54,0,0,1,.37,1.47,5.67,5.67,0,0,1-.09,1.69,8.25,8.25,0,0,1-.54,1.66l-.18.4c-.07.13-.13.27-.19.41a3.73,3.73,0,0,0-.21.86,3.17,3.17,0,0,1,.27-.84c.06-.14.13-.26.2-.39s.15-.26.22-.39a8.71,8.71,0,0,0,.65-1.65,5.88,5.88,0,0,0,.21-1.77,5.67,5.67,0,0,0-.11-.84,8.78,8.78,0,0,1,.54.77,5.62,5.62,0,0,1,.77,2.13,10,10,0,0,1-.22,2.29c.07-.38.18-.75.27-1.13a4.24,4.24,0,0,0,.14-1.18,6.5,6.5,0,0,0-.2-1.17,5.16,5.16,0,0,0-.43-1.13,7.12,7.12,0,0,0-.62-1c-.13-.17-.26-.33-.4-.48s-.32-.29-.45-.41l-.44-.37-.11-.09a.66.66,0,0,0-.16-.12l-.1-.07v0l0,0a1.73,1.73,0,0,1-.23-.43v0c1.11-2.52,2.36-5,3.5-7.55.56-1.26,1.1-2.54,1.58-3.85-.29,1.81-.53,3.64-.67,5.49a37.77,37.77,0,0,0,0,5.63,29.43,29.43,0,0,0,.9,5.52l.06.62a.37.37,0,0,0-.16.27h0a7.14,7.14,0,0,1-.12,1.24l0,.06,0,.08-.06.15-.13.3-.28.6c-.18.41-.35.81-.55,1.21l-.58,1.19c-.2.4-.39.8-.57,1.21a9,9,0,0,0-.49,1.25,11.86,11.86,0,0,0-.31,1.31,2.88,2.88,0,0,0,0,.33c0,.11,0,.22,0,.33a1.17,1.17,0,0,1,0,.33,1.87,1.87,0,0,0-.08.32,2.81,2.81,0,0,1,.1-.31,1.32,1.32,0,0,0,0-.33,3.11,3.11,0,0,1,0-.33,3,3,0,0,1,.07-.32,11,11,0,0,1,.4-1.27,9.19,9.19,0,0,1,.56-1.19l.13-.23c-.06.31-.1.62-.13.94a2.54,2.54,0,0,0,0,.39c0,.12,0,.24,0,.36s0,.48,0,.72v1.46l0,0,0,0,.18-1.45.06-.73c0-.12,0-.25,0-.37s0-.23,0-.34.11-.46.17-.69a5.49,5.49,0,0,0,.17-.7,7.36,7.36,0,0,0,.14-.84l.48-.82.33-.59.31-.59.32-.59.07-.13c0,.6,0,1.21,0,1.82,0,1.59-.08,3.19-.08,4.8v1.2l0,1.21.08,1.21.13,1.2c.06.4.12.8.19,1.2l.26,1.18.32,1.16.42,1.13-.29-1.17-.22-1.17-.15-1.18-.09-1.19,0-1.19v-1.19l0-1.19.06-1.19c.1-1.59.23-3.18.31-4.79,0-.72.06-1.44.07-2.17l.05.06.51.58.11.14.06.07,0,.09.22.32a5.59,5.59,0,0,1,.39.65,7.13,7.13,0,0,1,.31.7,4.68,4.68,0,0,1,.21.73c0,.25.08.51.12.77s.06.53.1.8a2.5,2.5,0,0,1,.06.38,2.36,2.36,0,0,1,0,.38c0,.12,0,.25,0,.38s0,.26-.05.4a5.48,5.48,0,0,0,0,.81l0,.39c0,.13,0,.27,0,.4a4.1,4.1,0,0,0,.16.79l.1.38a1.1,1.1,0,0,0,.12.39c.14.24.4.36.49.62-.08-.27-.34-.42-.45-.64a1.62,1.62,0,0,1-.09-.38l-.08-.39a4.17,4.17,0,0,1-.1-.78c0-.12,0-.25,0-.39v-.4a5.1,5.1,0,0,1,0-.78c0-.12,0-.25.06-.38,0,.11,0,.23.08.34l0,.05a.12.12,0,0,0,.1.09.48.48,0,0,1,.13.13,1.53,1.53,0,0,1,.16.25,2.41,2.41,0,0,0,.41.54,2.76,2.76,0,0,0,.25.21l.26.18a2.4,2.4,0,0,1,.26.18.67.67,0,0,1,.19.22h0l0,0,0,0a.59.59,0,0,0-.16-.29,1.61,1.61,0,0,0-.22-.23l-.22-.22-.19-.23a2,2,0,0,1-.29-.51c0-.09-.07-.19-.12-.3a.75.75,0,0,0-.19-.27,4.75,4.75,0,0,0-.17-.49c0-.09-.08-.19-.13-.28a1.91,1.91,0,0,0-.15-.28h0c0-.11,0-.22,0-.31,0-.26,0-.52-.05-.78s0-.54-.07-.81a5.58,5.58,0,0,0-.18-.81,6.43,6.43,0,0,0-.29-.77,5.68,5.68,0,0,0-.37-.74l-.21-.35-.05-.08-.06-.09-.12-.18c-.17-.23-.35-.43-.51-.63a7.09,7.09,0,0,1-.44-.61,1.41,1.41,0,0,1-.13-.24c0-.49,0-1-.07-1.46v-.09a30.17,30.17,0,0,1-.72-5.36c0-1,0-1.94,0-2.92l.48.77.35.49a1.13,1.13,0,0,1,.1.13l.09.1c0,.07.11.14.16.22a5.1,5.1,0,0,0,.36.49,2,2,0,0,0,.19.22.14.14,0,0,0,0,.09l.39,1.19.1.3c0,.09,0,.19.08.29a6,6,0,0,1,.09.61l0,.62c0,.21,0,.42,0,.63a1.51,1.51,0,0,1,0,.3l0,.31q0,.31,0,.63a4.38,4.38,0,0,1,.08-.62l.07-.3c0-.11,0-.22,0-.32s0-.43,0-.63,0-.42,0-.63a4.58,4.58,0,0,0,0-.64,3,3,0,0,0-.06-.32l-.07-.31-.16-.63c.17.16.33.33.48.5a4.34,4.34,0,0,1,.61,1,6,6,0,0,1,.52,2.25,6.17,6.17,0,0,0-.31-2.33,4.43,4.43,0,0,0-.56-1.08c-.23-.33-.49-.63-.73-.93a4.43,4.43,0,0,1-.34-.45c-.1-.15-.19-.32-.29-.5l-.16-.26-.09-.13-.08-.11c-.1-.15-.2-.32-.3-.48-.2-.33-.38-.67-.57-1l-.38-.76q0-.58.09-1.17c.17-1.81.45-3.61.75-5.42.26-1.59.56-3.18.85-4.78a1,1,0,0,1,1.61.07q.11.72.15,1.47c0,.86.06,1.73.07,2.61v2.65c0,.89,0,1.78,0,2.68s.06,1.79.12,2.69.15,1.8.27,2.7a24.79,24.79,0,0,0,1.28,5.33c.08.22.17.43.26.65a5.92,5.92,0,0,0,.28.64l.57,1.2c.19.38.35.79.53,1.19.06.14.13.29.19.44a.38.38,0,0,0-.08.47,2.26,2.26,0,0,1,.2.62c0,.25.09.5.14.76s.06.27.1.41a1.4,1.4,0,0,1,.06.32c0,.13,0,.26.05.4l.07.39a7.55,7.55,0,0,1,.16,1.49,7,7,0,0,1-.18,1.49c-.11.5-.24,1-.33,1.51a9.17,9.17,0,0,0-.15,1.57,9,9,0,0,0,.11,1.55l.12.77c0,.12.06.25.1.37a.75.75,0,0,0,.08.18.29.29,0,0,0,.15.12.25.25,0,0,1-.14-.13.87.87,0,0,1-.07-.17c0-.13,0-.25-.07-.38s0-.51-.08-.77a8.8,8.8,0,0,1,0-1.54,8.61,8.61,0,0,1,.23-1.51l0-.11c0,.15,0,.31,0,.46a4,4,0,0,0,.37,1.06c.08.18.16.35.25.51l.16.24.08.11.08.11c.09.14.17.31.28.47a.77.77,0,0,0,.19.21.51.51,0,0,1,.17.19h0l0,0s0,0,0,0a.48.48,0,0,0-.14-.25,1,1,0,0,1-.14-.21c-.08-.16-.13-.33-.21-.51a.75.75,0,0,0-.06-.13l-.06-.12-.12-.24a4.84,4.84,0,0,1-.18-.49c-.11-.34-.15-.7-.27-1a5.8,5.8,0,0,0-.34-.87c.08-.29.17-.57.25-.86a8.06,8.06,0,0,0,.29-1.57,9.32,9.32,0,0,0-.07-1.59l0-.38v-.05c.34,1,.66,1.92,1,2.89.54,1.68,1,3.38,1.5,5.09l.34,1.28c.11.43.23.86.33,1.29l.17.64.15.65c.1.43.2.86.27,1.3a26.27,26.27,0,0,0-.23-2.66c-.12-.88-.25-1.76-.4-2.64-.29-1.76-.66-3.5-1.07-5.24v-.05l.12.19,0,.08a.59.59,0,0,0,0,.08l.09.16a9.43,9.43,0,0,1,.62,1.23,5.23,5.23,0,0,0,.81,1.21l.46.54c.16.18.33.35.49.52a8.19,8.19,0,0,1,.95,1,6.44,6.44,0,0,1,.62,1.23,6.13,6.13,0,0,1,.32,1.36s0,0,0,0a0,0,0,0,0,0,0c0-.23,0-.46-.06-.7a2,2,0,0,0-.06-.35,2,2,0,0,0-.1-.35,5.56,5.56,0,0,0-.56-1.31,9,9,0,0,0-.92-1.11l-.45-.52-.42-.56a7.24,7.24,0,0,1-.69-1.16c-.1-.22-.21-.43-.33-.64s-.13-.21-.19-.31l-.22-.29-.1-.14-.05-.06,0-.08-.22-.29c-.12-.17-.25-.33-.37-.49-.38-1.46-.78-2.92-1.28-4.35-.14-.43-.28-.86-.45-1.28s-.32-.84-.51-1.26l-.53-1.22c-.09-.19-.16-.39-.24-.58s-.15-.4-.21-.6a18.71,18.71,0,0,1-.66-2.47c-.07-.3-.12-.6-.18-.91l.56.74c.18.23.37.47.57.7l.32.34.3.31c.31.32.63.66.95,1l.82,1.23c.39.59.77,1.18,1.14,1.78h0a2.82,2.82,0,0,1,.27.4s0,.05,0,.08v.07s0,.05,0,.08l0,.26L68,281c.06.35.13.7.2,1.06s.23.68.33,1a4.94,4.94,0,0,0-.1-.53,3.18,3.18,0,0,1-.1-.52c0-.35-.07-.71-.1-1.06l-.12-1.06,0-.27v-.12a.53.53,0,0,0,0-.18,2.52,2.52,0,0,0-.28-.49c-.3-.51-.59-1-.9-1.52l.22.22a14.6,14.6,0,0,1,1.16,1.32,6.42,6.42,0,0,1,.9,1.51l.54,1.66-.44-1.7a6.65,6.65,0,0,0-.82-1.59,15.34,15.34,0,0,0-1.1-1.42c-.4-.45-.81-.88-1.21-1.31l-.49-.56-.14-.19a.16.16,0,0,0-.08-.06l-.45-.53-.29-.34a4.09,4.09,0,0,1-.28-.33c-.18-.22-.36-.46-.53-.69-.44-.63-.87-1.27-1.28-1.91,0,0,0-.07,0-.1-.14-1.22-.23-2.45-.29-3.69l0,0c.11.11.21.19.31.28l.3.27.14.13a.86.86,0,0,1,.13.14,3,3,0,0,0,.31.31,3.06,3.06,0,0,0,.36.23.71.71,0,0,1,.14.1l.1.12c.06.1.11.24.19.36a2.27,2.27,0,0,1,.19.34,2.35,2.35,0,0,1,.14.37c0,.13.09.26.14.38a2.08,2.08,0,0,1,.19.77,2.18,2.18,0,0,0-.1-.8,2.74,2.74,0,0,1-.09-.39c0-.13-.06-.27-.1-.4a3.2,3.2,0,0,0-.16-.39c-.06-.11-.09-.23-.15-.37a.86.86,0,0,0-.13-.2,1.2,1.2,0,0,0-.17-.16,2.09,2.09,0,0,1-.3-.24l-.22-.3-.13-.17-.14-.16-.27-.3a3,3,0,0,1-.25-.3,4.09,4.09,0,0,1-.5-1v-.19l0-2.64c0-.89,0-1.77,0-2.67s-.06-1.79-.15-2.71a13.77,13.77,0,0,0-.34-2.14.93.93,0,0,1,.5-.06c.22.44.43.88.63,1.33l.12.31c.19.5.4,1,.6,1.48l.22.51a1.34,1.34,0,0,0,.07.18l.5,1.45.47,1.46.89,3L66,267l.46,1.5c.17.5.33,1,.5,1.49l.54,1.49a31.76,31.76,0,0,0,2.81,5.7l0,.05,0,0c.67.81,1.37,1.58,2.1,2.33a33.17,33.17,0,0,1,0,5.18c-.17.86-.3,1.73-.4,2.6h0a5.17,5.17,0,0,0,.12,1.17c.08.38.16.76.25,1.14a4.85,4.85,0,0,0,.43,1.09,8.87,8.87,0,0,0,.62,1,11,11,0,0,1-.56-1,4.33,4.33,0,0,1-.35-1.09c-.07-.38-.13-.76-.19-1.14a5.35,5.35,0,0,1,0-1.13c.15-.86.33-1.71.55-2.56h0a33.8,33.8,0,0,0,.31-4.5l.3.29c0,.23.1.46.14.69s.1.5.16.73a5.72,5.72,0,0,1,.14.67c0,.25.07.49.11.73.08.48.18,1,.29,1.43.06.24.12.47.19.71s.14.47.2.69.11.46.17.7a4.16,4.16,0,0,0,.25.7c.22.44.47.85.65,1.29a3.59,3.59,0,0,0,.37.63l.1.15.13.13.12.14a.29.29,0,0,1,.07.16.35.35,0,0,0-.06-.17l-.11-.14-.12-.14-.09-.15a4.25,4.25,0,0,1-.32-.64c-.16-.46-.39-.9-.56-1.34a6.17,6.17,0,0,1-.32-1.38c0-.25-.11-.48-.16-.71s-.1-.47-.14-.71-.07-.45-.1-.68a.54.54,0,0,0,0,.11c.11.25.21.5.31.75a3.06,3.06,0,0,0,.46.72c.16.19.25.45.43.69s.37.41.55.61.36.41.56.6a1.71,1.71,0,0,0,.67.46,1.79,1.79,0,0,1-.63-.5c-.18-.2-.33-.43-.5-.64s-.35-.43-.5-.64-.2-.48-.37-.73a2.67,2.67,0,0,1-.37-.68c-.08-.26-.16-.52-.25-.78-.17-.5-.36-1-.56-1.47,0-.24-.06-.48-.1-.7s-.07-.39-.1-.58l.79.72,1.25,1.09,1.26,1.06.76.63c.29.9.65,1.75.85,2.62a4.74,4.74,0,0,1,.13.84,8.44,8.44,0,0,1,0,.87,17.4,17.4,0,0,1-.08,1.76c0,.59-.11,1.18-.17,1.77s-.14,1.18-.17,1.78a4.92,4.92,0,0,0,.22,1.79,8.5,8.5,0,0,0,.36.82l.19.4a3,3,0,0,1,.23.38c0-.14-.15-.26-.2-.39l-.18-.41c-.11-.28-.23-.55-.31-.83a4.65,4.65,0,0,1-.12-1.74c.06-.59.18-1.17.27-1.76,0-.22.06-.44.1-.66a10.07,10.07,0,0,0,.36,1.22c.08.25.17.49.25.72l.26.72a3.73,3.73,0,0,0,.16.35,1,1,0,0,0,.11.17l.12.16a3.25,3.25,0,0,1,.23.29.88.88,0,0,1,.16.32h0s0,0,0,0a0,0,0,0,0,0,0,.81.81,0,0,0-.12-.37c-.06-.11-.13-.22-.2-.33l-.09-.16a.8.8,0,0,1-.08-.16l-.12-.34-.18-.74c-.07-.24-.13-.48-.19-.73-.12-.48-.18-1-.31-1.46-.07-.24-.13-.48-.2-.72l0-.1c.08-.58.14-1.16.17-1.74a2.81,2.81,0,0,0,0-.29c.1.22.18.44.28.67a5.27,5.27,0,0,0,.22.49c.09.17.19.32.28.47s.19.29.28.44.14.31.23.47a10.56,10.56,0,0,0,1.22,1.73,10.64,10.64,0,0,1-1-1.81c-.07-.16-.12-.33-.19-.5s-.16-.32-.24-.48-.16-.3-.23-.46-.12-.31-.17-.48a7.25,7.25,0,0,0-.35-1l0-.12a1.17,1.17,0,0,0,0-.11A2,2,0,0,1,80,288a3.88,3.88,0,0,1-.11-.49l-.1-.52a2.56,2.56,0,0,0,0-.27c0-.09,0-.19-.07-.27a4.15,4.15,0,0,1-.11-.48s0-.07,0-.11l.61.5,1.27,1.05,1.24,1.07,1.23,1.08,1.19,1.12a35.58,35.58,0,0,1,4.31,4.94,29,29,0,0,0-3.87-5.36L84.4,289l-1.16-1.18-1.19-1.15-1.21-1.14-2.43-2.22-1.2-1.11L76,281.06a50.27,50.27,0,0,1-3.7-3.9l.21.08.67.33a7.41,7.41,0,0,0,.7.31,7.39,7.39,0,0,1,.71.24,2.09,2.09,0,0,1,.92.59l.15.12a.37.37,0,0,0,.16.09c-.06,0-.1-.06-.15-.1l-.12-.14a3.31,3.31,0,0,0-.25-.3,3,3,0,0,0-.63-.43c-.22-.13-.46-.23-.68-.34a5.16,5.16,0,0,1-.63-.37l-.63-.42c-.22-.13-.45-.25-.68-.37l-.49-.24a32.33,32.33,0,0,1-2.46-5.3c-.18-.48-.34-1-.51-1.45L68.15,268l-.12-.39a34.51,34.51,0,0,0,2.7,3.69c.35.41.69.82,1.08,1.21l.56.58.58.55c.78.72,1.58,1.43,2.4,2.1,2.84,2.34,5.91,4.32,8.88,6.38.07.64.13,1.29.25,1.94a8.12,8.12,0,0,0,.73,2.3,8.27,8.27,0,0,0,.62,1l.67,1a6.09,6.09,0,0,0,.76.92l.87.79-.8-.86a5.8,5.8,0,0,1-.67-.95l-.59-1a6.58,6.58,0,0,1-.51-1A7.27,7.27,0,0,1,85,284c0-.44-.06-.89-.07-1.34l.63.44c.84.61,1.67,1.23,2.48,1.89a28.51,28.51,0,0,1,2.3,2.09,19.68,19.68,0,0,1,2,2.37,17.39,17.39,0,0,1,1.59,2.7,17.31,17.31,0,0,0-3.24-5.4c-.29-.34-.59-.67-.89-1,.41.13.83.25,1.25.36.78.21,1.56.42,2.35.61l.79.19a3.51,3.51,0,0,0,.49.33l.54.3a4.81,4.81,0,0,1,.47.3,1.81,1.81,0,0,1,.37.45c.28.35.61.59.83.93a4.24,4.24,0,0,1,.58,1.09h0s0,0,0,0a1.89,1.89,0,0,0-.16-.62c-.08-.19-.18-.38-.27-.57a8.81,8.81,0,0,0-.72-1l-.15-.27a.6.6,0,0,0-.09-.15.64.64,0,0,0-.13-.15,1.35,1.35,0,0,0-.33-.26l.1,0,1.19.25.15,0,.16,0,.29,0h.06a.13.13,0,0,0,.1.06H98a2.67,2.67,0,0,1,.68.15l.46.18a2.49,2.49,0,0,1,.43.22,3.22,3.22,0,0,1,.69.69c.2.26.38.54.58.81-.18-.28-.34-.57-.53-.85a3,3,0,0,0-.66-.76,2,2,0,0,0-.44-.27l-.45-.22a2.73,2.73,0,0,0-.69-.2h0l0,0H98l-.3-.07-.3-.06c-.1,0-.19,0-.29-.06l-1.16-.3c-.78-.21-1.55-.44-2.32-.66s-1.54-.47-2.31-.72-1.52-.5-2.26-.79h0a.37.37,0,0,0-.23,0c-.85-.8-1.75-1.55-2.66-2.28l-.26-.21.55.21.64.2a2.45,2.45,0,0,0,.74.1H88l.15,0,.31,0h.63a8.69,8.69,0,0,1,1.26.18,11.41,11.41,0,0,1,1.21.46,4.26,4.26,0,0,1,1.17.52,1.14,1.14,0,0,1,.22.22c.07.09.12.19.19.27s.37.24.54.39c-.16-.16-.38-.24-.49-.42L93,284a1.12,1.12,0,0,0-.22-.26,4.27,4.27,0,0,0-1.16-.64,10.3,10.3,0,0,0-1.2-.57,7.63,7.63,0,0,0-1.3-.3,4,4,0,0,0-.69-.06h-.65a2,2,0,0,1-.55-.12,6,6,0,0,1-.59-.22l-1.2-.52c-.21-.09-.42-.17-.64-.24l-.36-.1-.22,0c-1-.79-2.08-1.56-3.11-2.33l-.21-.15c.22,0,.43,0,.64,0H82l.13.05.28.11.56.21,1.11.43.54.24.25.13,0,0h0l0,0,.08.1.14.27c.06.09.12.16.18.24a3.32,3.32,0,0,1,.33.5,3.06,3.06,0,0,0-.26-.55c0-.08-.1-.17-.13-.25s-.06-.19-.1-.29a1.09,1.09,0,0,0-.08-.15l0,0,0,0L85,279.4a1.92,1.92,0,0,0-.26-.17l-.54-.28-.79-.39.19,0a4,4,0,0,1,.68.12l.69.18c.23.07.46.12.69.17.49.32,1,.65,1.41,1-.42-.41-.86-.79-1.32-1.16h0l-.67-.23-.68-.26a5.29,5.29,0,0,0-.71-.2L83,278l-.35-.09-.37-.08c-.25,0-.5-.06-.74-.08-.5,0-1,0-1.44-.05h0l-.08,0c-1.29-1-2.55-2-3.77-3-.79-.68-1.54-1.38-2.28-2.1l-.55-.55c-.18-.18-.34-.37-.52-.55-.35-.37-.66-.77-1-1.16-.17-.19-.32-.4-.47-.6l-.39-.51a7.45,7.45,0,0,0,1.42.55l.31.28.61.47c.21.15.42.29.64.42l.64.39a5.6,5.6,0,0,1,.62.42,3.14,3.14,0,0,1,.54.48.76.76,0,0,1,.16.29,3.21,3.21,0,0,1,.08.36,2.06,2.06,0,0,0,.26.73s0,0,0,0,0,0,0,0a2.23,2.23,0,0,1-.11-.73,2.8,2.8,0,0,0,0-.4,1.05,1.05,0,0,0-.17-.39,3.88,3.88,0,0,0-.55-.59c-.2-.17-.4-.33-.61-.48a8.36,8.36,0,0,0-1.28-.85l-.52-.27.75.06c.4,0,.8.06,1.2.13a5.32,5.32,0,0,1,1.17.31,3.76,3.76,0,0,1,.54.25c.08.06.18.11.26.16s.18.11.21.21c0-.1-.12-.17-.2-.23l-.24-.18a3.55,3.55,0,0,0-.54-.3,6.65,6.65,0,0,0-1.16-.41c-.4-.09-.81-.16-1.21-.22a7.13,7.13,0,0,1-1.17-.23,6.93,6.93,0,0,1-2.08-1.1l-.47-.38-.07-.1c-.57-.86-1.12-1.73-1.64-2.62q-1.45-2.49-2.68-5.1l-.4-1.1c-.42-1.08-.88-2.16-1.41-3.21-.08-.21-.16-.43-.23-.64a3.17,3.17,0,0,1,1.48.28l.06,0,2.22,2.78c1.11,1.4,2.26,2.78,3.47,4.11a40.76,40.76,0,0,0,3.88,3.78,24.79,24.79,0,0,0,4.51,3.08l.08,0,.07,0,.87.22a20.13,20.13,0,0,0,1.26,2.55,2.3,2.3,0,0,0,.12.34,2.22,2.22,0,0,0,.2.41,1.37,1.37,0,0,0,.15.21,1.12,1.12,0,0,0,.2.18l.07,0,.09.15c.26.37.52.74.79,1.09s.54.72.83,1.06a9.58,9.58,0,0,0,1,1c.16.15.32.32.49.46a1.15,1.15,0,0,0,.59.32,1.27,1.27,0,0,1-.56-.35c-.16-.16-.3-.33-.45-.49a10.32,10.32,0,0,1-.87-1q-.39-.54-.75-1.11l-.45-.72,0,0,.81.36a5.85,5.85,0,0,1,1.47.86,7,7,0,0,1,.63.59,2.91,2.91,0,0,1,.26.33.67.67,0,0,1,.1.19.2.2,0,0,0,.1.08.25.25,0,0,0,.12,0l0,0,0,0c-.08,0-.13,0-.15-.08s0-.14-.08-.2a3.11,3.11,0,0,0-.25-.38,7.21,7.21,0,0,0-.58-.66,4.84,4.84,0,0,0-.7-.57c-.25-.16-.51-.31-.76-.45l-.76-.43-.18-.1L83,273.1l-.1-.06-.33-.16a22.46,22.46,0,0,1-1-2c-.15-.36-.3-.72-.43-1.1,1.82.49,3.61,1,5.38,1.64q2,.69,4,1.53a.37.37,0,0,0-.29.41h0c0,.19,0,.42.07.66s0,.24.07.36l.06.2c0,.06.06.14.09.19a4.85,4.85,0,0,0,.41.58,2.4,2.4,0,0,1,.18.26l.2.27c.51.73,1.05,1.45,1.6,2.13l.11.15a.38.38,0,0,0,.3.59h.15c.87,1.17,1.66,2.4,2.42,3.64-.64-1.23-1.31-2.46-2-3.64h1a3,3,0,0,1,1.36.33,4.43,4.43,0,0,1,1.14.93,3.75,3.75,0,0,1,.42.62,3.65,3.65,0,0,1,.14.35,1,1,0,0,0,.1.17.22.22,0,0,0,.17.09c-.14,0-.19-.16-.22-.27a3.12,3.12,0,0,0-.46-1.07,4.5,4.5,0,0,0-1.08-1.14,3.33,3.33,0,0,0-1.51-.57c-.53-.09-1-.12-1.52-.2h0l-.13-.2c-.51-.73-1-1.46-1.44-2.22l-.17-.28-.18-.29c-.12-.19-.24-.37-.32-.53a1.56,1.56,0,0,1-.1-.53c0-.2,0-.41,0-.66v0a.27.27,0,0,0,0-.14c.81.36,1.61.73,2.39,1.12a40.43,40.43,0,0,1,6.24,3.85l1.43,1.16,1.36,1.23,1.29,1.32,1.21,1.4c-.37-.49-.73-1-1.1-1.49l-1.2-1.42c-.44-.44-.86-.89-1.3-1.33l-.18-.16c.43.16.88.31,1.32.43l.24.06.09.08.16.09.3.17.6.31,1.21.58c.41.19.81.38,1.2.59.2.1.39.21.58.32l.25.18s0,0,.07.09l.06.14a4.14,4.14,0,0,1,.22,1.28,4.7,4.7,0,0,1,0,.65,5,5,0,0,1-.09.66,2.93,2.93,0,0,0,0,1.35c0,.12.09.21.12.32s.07.21.11.32a1.18,1.18,0,0,0,.33.57,1.16,1.16,0,0,1-.3-.58l-.09-.33c0-.11-.08-.21-.1-.32a1.77,1.77,0,0,1,0-.65,4.9,4.9,0,0,1,.11-.65c0-.22.11-.44.14-.67a5.16,5.16,0,0,0,0-.68,4.33,4.33,0,0,0-.17-1.37s0-.11-.07-.17l0,0v0l0,0a.71.71,0,0,0-.07-.09,2.32,2.32,0,0,0-.29-.21c-.2-.13-.4-.24-.59-.34-.4-.22-.8-.42-1.2-.62l-1.2-.6-.15-.07,1.28.22A11.45,11.45,0,0,1,106.32,280Zm-.2-13a1.59,1.59,0,0,1,.58.05,1.9,1.9,0,0,1,.53.27l.11.09a3.57,3.57,0,0,0-1-.34l-.53-.05Zm-90.35-3.32h0Zm-2.44,3.65a.48.48,0,0,1,.05-.14.29.29,0,0,1,.11-.11l0,0h0Zm.23-.28h0Zm.23.61Zm27.74,6.47-.09.13s0-.05,0-.08l.07,0ZM98,287.38h0Zm-15.89-9h0Z"></path>
      <polygon class="cls-13" points="0 230.36 57.69 254.47 110.12 232.23 57.69 213.74 0 230.36"></polygon>
      <path class="cls-14" d="M37.82,114.7s-.42,3,1.79,9.06,1.16,13.17,1.16,13.17l-.63-5a16.92,16.92,0,0,0-1.79-6.11,17.87,17.87,0,0,1-1.48-9.9C37.3,113.54,37.82,114.7,37.82,114.7Z"></path>
      <path class="cls-15" d="M59.42,118.71s-4,1.68-6.32-1.06-4.64-10.22-8-9.48a6.8,6.8,0,0,0-5.37,4.74c-.74,2-1.48,3.06-1.9,5s-1.37,3-.52,5.48,2,5.06,2,5.06-3.48-5.59-3.37-7.69-1.06-3.69-.64-5.59S35.4,111,37,108.06s5.06-7,6.85-7.27,5.37.64,8.43,5.9S56.79,116.91,59.42,118.71Z"></path>
      <path class="cls-16" d="M55.43,116.83a23.27,23.27,0,0,0-2.74-5.37c-2.21-3.48-3.8-7-6.32-7.48-1.36-.27-2.32.21-4,1.47a16.81,16.81,0,0,0-5.17,7.7,10.34,10.34,0,0,0-.42,4s0,1.58,1.37-1.79a27.59,27.59,0,0,1,2.73-5.63c.84-1.27,3.49-2.38,4.59-2.49,1.59-.15,2.16.11,3.74,2.22S53.53,118.31,55.43,116.83Z"></path>
      <path class="cls-16" d="M36,114.81s.42-4.22.7-5.13a30.25,30.25,0,0,1,3.94-6.11c.84-.7,2.6-2.88,4.77-2.39s3.8,2.25,5.55,4.5,3.44,7.51,3.59,8.07-3-5.4-3.87-6.6-2-3.3-4.14-4.14c-1.25-.49-2.74,0-4.78,2C38.77,108,38.35,109.12,36,114.81Z"></path>
      <g class="cls-17">
        <path class="cls-18" d="M52.26,110c-.64-1.06-1.3-2.11-2-3.13A18.32,18.32,0,0,0,48,104a3.09,3.09,0,0,0-1.49-.93,3.4,3.4,0,0,0-1.76-.09,8.73,8.73,0,0,0-3,2.05,7.44,7.44,0,0,1,2.94-2.28,3.41,3.41,0,0,1,1.9,0,3.46,3.46,0,0,1,1.63,1,17.63,17.63,0,0,1,2.28,3A30.27,30.27,0,0,1,52.26,110Z"></path>
      </g>
      <path class="cls-14" d="M42.1,54.39s-1.48-.25-4,2.23-6.12,6.77-7,9.75S29,68.6,28,71.74,24.76,82.23,26.57,86c0,0,.25-4.71,1.24-6.78s6-6.44,6.36-6.77A22,22,0,0,0,38,68.27a96.6,96.6,0,0,1,7.6-8.51c1.16-1.16,5-1,6.37.66,0,0-4.38-5.29-6.61-5.7A14.16,14.16,0,0,0,42.1,54.39Z"></path>
      <path class="cls-16" d="M39.67,55.3c2.63-.64,3.59-1.3,5.95-.07s2.45,2,3.71,4.16c.74,1.24,2,3,2,4a5.59,5.59,0,0,0,1.48,3.1c.75.87,2.73-.87,3.47,4.58s2.6-2.6,3.35-3.34a1.72,1.72,0,0,0,.49-1.61s1.74-2-2-8.18-4.27-1.34-5.2-1.12c-.47.12-.5.64-5.14-1.11a9,9,0,0,1-1.47-.7C45.36,54.39,42.9,53.37,39.67,55.3Z"></path>
      <path class="cls-15" d="M31.45,71.16S29.63,74.79,29,75s.33-3.47,1.65-5.29,2.64-6.44,4.13-7.76,3.31-5.62,7.44-6.28S41,60.91,41,60.91s-4.63,4.8-5.62,6S31.45,71.16,31.45,71.16Z"></path>
      <path class="cls-15" d="M45.41,59s.91-3-.91-1.4-7.1,9.09-8.18,9.91-4.46,3.89-5.29,5.7-1.57,2.15-.24,1.66,5.45-5.29,6.52-6.28,5-6,5.87-6.61A11.69,11.69,0,0,0,45.41,59Z"></path>
      <path class="cls-15" d="M57.39,70.66s-.25-3.55-1.9-4.62-2.07-.25-3-2.48-2.14-4.05-1.24-4.3,3.23-.49,3.8,1.16a58.56,58.56,0,0,1,2.32,6.69c.25,1.57-1.24-5.45-1.24-5.78s-1.32-2.81-.5-3a2.08,2.08,0,0,1,2.81,1.74c.41,2.06,1.41,3.3,1.41,4.71S57.31,70,57.39,70.66Z"></path>
      <path class="cls-19" d="M57,65c-.69-1.32-1.2-2.71-1.76-4.08a8.13,8.13,0,0,0-.88-2,14.8,14.8,0,0,0-1.45-1.64,7.33,7.33,0,0,1,1.75,1.41,3.48,3.48,0,0,1,.61,1c.15.34.29.68.43,1A31.14,31.14,0,0,1,57,65Z"></path>
      <g class="cls-20">
        <path class="cls-21" d="M38.06,56.62a6.57,6.57,0,0,1,4.8-2.17,6.9,6.9,0,0,1,4.9,2.16,10.73,10.73,0,0,1,1.58,2.21c.22.39.42.8.61,1.2a3.42,3.42,0,0,0,.3.52,3.28,3.28,0,0,1,.42.58c1,1.57.54,3.66,1.93,4.92a2.31,2.31,0,0,1-.85-1,6.43,6.43,0,0,1-.46-1.27,7.09,7.09,0,0,0-.91-2.45A2.34,2.34,0,0,0,50,60.8a2.92,2.92,0,0,1-.37-.61c-.21-.4-.41-.79-.63-1.18a10,10,0,0,0-1.55-2.1,6.62,6.62,0,0,0-4.58-2.12A6.83,6.83,0,0,0,38.06,56.62Z"></path>
      </g>
      <path class="cls-22" d="M65.26,209.3s-3.27.29-5,2.47-1.49,7.69-1.49,7.69,3-5.45,3.73-6.83A19.16,19.16,0,0,1,65.26,209.3Z"></path>
      <path class="cls-22" d="M65,175.06s-3.27.28-5,2.46-1.49,7.7-1.49,7.7l3.73-6.83A18.81,18.81,0,0,1,65,175.06Z"></path>
      <path class="cls-16" d="M45,86.2s1.29,14.81,5,21.74,4.84,5.55,5.94,5.44S50.77,97,49.1,94.11A88.67,88.67,0,0,1,45,86.2Z"></path>
      <path class="cls-21" d="M45,86.2S45.92,95,46.8,97.29s1.27-2.24.12-5.34S45,86.2,45,86.2Z"></path>
      <path class="cls-23" d="M48.51,90.72l.61.67s-.46,0-.24.37c0,0-.64-.61-.57-.42s-.5-.27-.5,0-.37-.6-.4-.38.13-.79.31-1S48.51,90.72,48.51,90.72Z"></path>
      <path class="cls-23" d="M50.24,91.44a2.41,2.41,0,0,1-1.75-.85,2.3,2.3,0,0,1,0-2c.21-.63.48-1.22.7-1.82A3.59,3.59,0,0,0,49.41,85h0a1.6,1.6,0,0,0-.72-1.12,1.9,1.9,0,0,0-1.34-.26,1.26,1.26,0,0,0-1.06.8,1.73,1.73,0,0,0,.29,1.35h0a1.72,1.72,0,0,1-.34-1.38,1.35,1.35,0,0,1,1.11-.9,2.06,2.06,0,0,1,1.45.24,1.8,1.8,0,0,1,.82,1.23h0a3.8,3.8,0,0,1-.2,2c-.2.62-.47,1.22-.67,1.82a2.24,2.24,0,0,0-.07,1.79,2.63,2.63,0,0,0,1.58.93Z"></path>
      <path class="cls-23" d="M48.26,91.56a3.92,3.92,0,0,1-.88-2.3,7.69,7.69,0,0,0-.48-2.37,1.63,1.63,0,0,0-1.85-1,2,2,0,0,0-1.58,1.53,2.1,2.1,0,0,0,.09,1.16,2.16,2.16,0,0,0,.67,1c.3.27.62.53.93.81a2.62,2.62,0,0,1,.79,1,.81.81,0,0,1-.58,1,.88.88,0,0,1-1-.55,1,1,0,0,1,.41-1.13c.42-.22.84.12,1.08.42l0,0c-.25-.3-.66-.6-1-.39a.93.93,0,0,0-.36,1,.78.78,0,0,0,.94.47.68.68,0,0,0,.48-.89c-.33-.71-1.12-1.14-1.71-1.7a2.39,2.39,0,0,1-.85-2.3A2.26,2.26,0,0,1,45,85.6a2.05,2.05,0,0,1,1.29.2,1.42,1.42,0,0,1,.52.42,3.14,3.14,0,0,1,.34.55,7.89,7.89,0,0,1,.41,2.47,4.17,4.17,0,0,0,.72,2.3Z"></path>
      <path class="cls-23" d="M47.57,93a10.71,10.71,0,0,0-.37-5.34,3.77,3.77,0,0,0-1.68-2,2,2,0,0,0-2.37.34,2.47,2.47,0,0,0-.33,2.47,8,8,0,0,0,1.36,2.32,1.34,1.34,0,0,1,.06,1.38,1.48,1.48,0,0,1-1.23.62,1.54,1.54,0,0,1-1.28-.5A1.36,1.36,0,0,1,41.67,91h0a1,1,0,0,1,.65-.53,1,1,0,0,1,.81.16A1.27,1.27,0,0,1,43.7,92h0a1.26,1.26,0,0,0-.57-1.4.92.92,0,0,0-1.36.37h0a1.29,1.29,0,0,0,.06,1.25,1.46,1.46,0,0,0,1.19.44,1.38,1.38,0,0,0,1.11-.57A1.2,1.2,0,0,0,44,90.9a8.21,8.21,0,0,1-1.41-2.35,3.84,3.84,0,0,1-.2-1.39,2.13,2.13,0,0,1,3.21-1.72,3.81,3.81,0,0,1,1.79,2.1A10.2,10.2,0,0,1,47.6,93Z"></path>
      <path class="cls-23" d="M47.17,91.61a5.22,5.22,0,0,0,.4-1.87,8.23,8.23,0,0,0-.1-1.92,2.44,2.44,0,0,0-.82-1.59,1,1,0,0,0-1.37.61,2.69,2.69,0,0,0,.32,1.77c.26.58.59,1.14.89,1.72a4.54,4.54,0,0,1,.58,1.88A2.16,2.16,0,0,1,46.2,94h0a2,2,0,0,1-2,.38,1.82,1.82,0,0,1-1.26-1.57,1.23,1.23,0,0,1,.42-1,.86.86,0,0,1,1,0,1.43,1.43,0,0,1,.5,1.85h0a1.38,1.38,0,0,0-.5-1.79.8.8,0,0,0-.93,0,1.16,1.16,0,0,0-.37.88,1.72,1.72,0,0,0,1.21,1.45,1.83,1.83,0,0,0,1.85-.36h0a2,2,0,0,0,.79-1.61,4.35,4.35,0,0,0-.59-1.79c-.3-.57-.64-1.12-.92-1.71a2.73,2.73,0,0,1-.34-2A1.25,1.25,0,0,1,46.79,86a2.63,2.63,0,0,1,.88,1.79,6.6,6.6,0,0,1-.48,3.83Z"></path>
      <path class="cls-24" d="M49.37,93.06a4,4,0,0,1-1-1.89A5.34,5.34,0,0,1,48.43,89c.16-.71.4-1.4.54-2.11a2,2,0,0,0-.54-2h0a2,2,0,0,1,.57,2c-.12.72-.36,1.41-.51,2.12a5.33,5.33,0,0,0-.09,2.14,3.89,3.89,0,0,0,1,1.9Z"></path>
      <path class="cls-24" d="M48.4,92.44a2.75,2.75,0,0,1-.55-2.18A17,17,0,0,1,48.4,88a5.35,5.35,0,0,0,.26-2.24,2.34,2.34,0,0,0-1.48-1.61h0a2.34,2.34,0,0,1,1.53,1.6A5.29,5.29,0,0,1,48.47,88,15.67,15.67,0,0,0,48,90.27a2.71,2.71,0,0,0,.45,2.16Z"></path>
      <path class="cls-24" d="M48.24,92.41a3.78,3.78,0,0,1-.6-1.34,6.13,6.13,0,0,1-.07-1.48c.1-1,.33-2,.37-2.94a4.73,4.73,0,0,0-.18-1.45,4.56,4.56,0,0,0-.7-1.28,2.93,2.93,0,0,0-2.48-1.33h0a3,3,0,0,1,2.53,1.31A4,4,0,0,1,48,86.66c0,1-.26,2-.35,2.93a6,6,0,0,0,0,1.47,3.72,3.72,0,0,0,.56,1.35Z"></path>
      <path class="cls-24" d="M48.27,92.21a4,4,0,0,1,.25-2.77,17.15,17.15,0,0,0,1-2.61h0A1.83,1.83,0,0,0,49,84.87a1.67,1.67,0,0,0-1-.4,1.42,1.42,0,0,0-1,.38h0a1.54,1.54,0,0,1,1-.4,1.7,1.7,0,0,1,1,.4,1.88,1.88,0,0,1,.66,2h0a17.54,17.54,0,0,1-1,2.63,6.47,6.47,0,0,0-.41,1.34,3.31,3.31,0,0,0,.09,1.4Z"></path>
      <path class="cls-24" d="M47.6,92.38a5.6,5.6,0,0,0-.41-2.89,3,3,0,0,0-.84-1.18A1.89,1.89,0,0,0,45,87.86h0a.9.9,0,0,0-.55.46,1,1,0,0,0,0,.72c.09.22.34.42.58.3a1.09,1.09,0,0,0,.46-.57h0a1.16,1.16,0,0,1-.46.58.48.48,0,0,1-.62-.31A.88.88,0,0,1,45,87.8h0a2,2,0,0,1,1.4.45,3.1,3.1,0,0,1,.88,1.21,5.13,5.13,0,0,1,.34,2.92Z"></path>
      <path class="cls-24" d="M47.5,91.75a8.92,8.92,0,0,0,.23-2.62,5.08,5.08,0,0,0-.82-2.46,2.85,2.85,0,0,0-.94-.89,1.49,1.49,0,0,0-1.23-.17,1.34,1.34,0,0,0-.78,1,3.5,3.5,0,0,0-.06,1.29h0A10.46,10.46,0,0,0,46,90.48a4.81,4.81,0,0,1,1,1.4,1.55,1.55,0,0,1-.12,1.62,1.75,1.75,0,0,1-1.57.47,1.29,1.29,0,0,1-1.2-1c-.06-.54.3-1.22.92-1.19a1,1,0,0,1,.75.35.82.82,0,0,1,.11.8h0a.83.83,0,0,0-.11-.79,1,1,0,0,0-.74-.34c-.61,0-1,.64-.9,1.17a1.27,1.27,0,0,0,1.18,1,1.71,1.71,0,0,0,1.53-.46,1.52,1.52,0,0,0,.11-1.57,4.66,4.66,0,0,0-.95-1.38,10.68,10.68,0,0,1-2.09-2.64h0a3.66,3.66,0,0,1,.07-1.32,1.42,1.42,0,0,1,.82-1,1.56,1.56,0,0,1,1.3.17,2.82,2.82,0,0,1,1,.92,5,5,0,0,1,.8,2.51,8.59,8.59,0,0,1-.26,2.62Z"></path>
      <path class="cls-24" d="M47.11,91.77a12.24,12.24,0,0,0,.49-3.39,5,5,0,0,0-.94-3.21,2.5,2.5,0,0,0-1.4-.89,1.57,1.57,0,0,0-1.55.46,1.74,1.74,0,0,0-.24,1.61,4.85,4.85,0,0,0,.77,1.52h0a5.25,5.25,0,0,1-.79-1.52,1.8,1.8,0,0,1,.24-1.65,1.63,1.63,0,0,1,1.59-.49,2.64,2.64,0,0,1,1.45.91,5.08,5.08,0,0,1,1,3.25,12.16,12.16,0,0,1-.57,3.39Z"></path>
      <path class="cls-24" d="M48,92.63A10.54,10.54,0,0,1,47.7,89a8.73,8.73,0,0,0-.32-3.6,2.24,2.24,0,0,0-1.18-1.29,1.92,1.92,0,0,0-1.73.09,1.38,1.38,0,0,0-.62,1.56,3.49,3.49,0,0,0,1,1.5h0a3.49,3.49,0,0,1-1-1.51,1.4,1.4,0,0,1,.61-1.6,2,2,0,0,1,1.78-.11,2.35,2.35,0,0,1,1.23,1.32A8.91,8.91,0,0,1,47.79,89,10.54,10.54,0,0,0,48,92.63Z"></path>
      <path class="cls-24" d="M48.06,91.41a2.84,2.84,0,0,0-.06-2,4.33,4.33,0,0,0-1.12-1.64,2.54,2.54,0,0,0-1.79-.74,2.11,2.11,0,0,0-1.6,1h0a1.52,1.52,0,0,0-.05,1.11,1.77,1.77,0,0,0,.68.89,1.23,1.23,0,0,0,1.09.19,1.4,1.4,0,0,0,.76-.82h0a1.4,1.4,0,0,1-.76.84,1.25,1.25,0,0,1-1.12-.18,1.81,1.81,0,0,1-.71-.9,1.58,1.58,0,0,1,0-1.15h0A2.21,2.21,0,0,1,45.08,87a2.66,2.66,0,0,1,1.86.76,4,4,0,0,1,1.12,1.68,2.9,2.9,0,0,1,0,2Z"></path>
      <path class="cls-24" d="M47.29,91a10.26,10.26,0,0,0,.33-2.58,3.15,3.15,0,0,0-.91-2.35,2.33,2.33,0,0,0-2.42-.31,2,2,0,0,0-1.34,2,3.17,3.17,0,0,0,1.49,2,2.11,2.11,0,0,1,.77,1.06A1.53,1.53,0,0,1,45,92.07a1.81,1.81,0,0,1-1.07.73.87.87,0,0,1-1-.59.85.85,0,0,1,.42-1.12.79.79,0,0,1,1.07.48h0a.76.76,0,0,0-1-.46.82.82,0,0,0-.41,1.09.85.85,0,0,0,1,.57,1.79,1.79,0,0,0,1-.73,1.4,1.4,0,0,0,.22-1.22,2,2,0,0,0-.75-1,3.23,3.23,0,0,1-1.52-2.07,2,2,0,0,1,1.38-2.06,2.4,2.4,0,0,1,2.51.31,3.22,3.22,0,0,1,.9,2.41A9.82,9.82,0,0,1,47.3,91Z"></path>
      <path class="cls-24" d="M47.49,92.32a2.5,2.5,0,0,1-.18-1.21,4.63,4.63,0,0,1,.32-1.2,8.06,8.06,0,0,0,.73-2.34h0a2.53,2.53,0,0,0,0-1.31,1.69,1.69,0,0,0-.79-1,1.29,1.29,0,0,0-1.25,0,2.35,2.35,0,0,0-.84,1h0a2.73,2.73,0,0,0,.14,2.22,12.12,12.12,0,0,0,1.24,2h0a7.28,7.28,0,0,1,.82,3,3,3,0,0,1-.28,1.5,1.71,1.71,0,0,1-3.17-1.07.8.8,0,0,1,.39-.64,1,1,0,0,1,.75,0,1,1,0,0,1,.75,1.17h0a1.07,1.07,0,0,0-1.48-1.11.78.78,0,0,0-.38.62,1.68,1.68,0,0,0,1.88,1.84,1.65,1.65,0,0,0,1.22-.8,2.85,2.85,0,0,0,.28-1.47,7.07,7.07,0,0,0-.83-2.91h0a11.8,11.8,0,0,1-1.26-2,2.9,2.9,0,0,1-.15-2.29h0a2.41,2.41,0,0,1,.87-1,1.34,1.34,0,0,1,1.33-.06,1.72,1.72,0,0,1,.83,1,2.58,2.58,0,0,1,0,1.35h0a7.53,7.53,0,0,1-.76,2.35,3.06,3.06,0,0,0-.16,2.39Z"></path>
      <path class="cls-24" d="M47.61,91.75a7.75,7.75,0,0,1-.12-2.84,5.16,5.16,0,0,0-.35-2.78h0a1.8,1.8,0,0,0-.77-1.19,1.68,1.68,0,0,0-1.42-.07,2.39,2.39,0,0,0-1.16.89,2,2,0,0,0-.33,1.42h0a2,2,0,0,1,.32-1.44,2.46,2.46,0,0,1,1.16-.92,1.72,1.72,0,0,1,1.47.07,1.86,1.86,0,0,1,.82,1.23h0a5.21,5.21,0,0,1,.38,2.81,7.74,7.74,0,0,0,0,2.84Z"></path>
      <path class="cls-23" d="M47.64,93.58c-.08-1.12.12-2.23.15-3.33a4.46,4.46,0,0,0-.8-3.06h0a1.32,1.32,0,0,0-1.52-.09,1,1,0,0,0-.48.61,1,1,0,0,0,.2.76l0,0a5.06,5.06,0,0,1,1.18,1.42,3.27,3.27,0,0,1,.39,1.79,1.72,1.72,0,0,1-1,1.51,1.2,1.2,0,0,1-.93-.07,3.37,3.37,0,0,1-.38-.28l-.31-.34h0a1.64,1.64,0,0,1-.25-.81.68.68,0,0,1,.51-.63.76.76,0,0,1,.76.3,1.34,1.34,0,0,1,.21.8h0a1.3,1.3,0,0,0-.21-.77.71.71,0,0,0-.71-.27.6.6,0,0,0-.45.57,1.45,1.45,0,0,0,.26.76h0l.31.32a2.9,2.9,0,0,0,.36.25,1,1,0,0,0,.83,0,1.57,1.57,0,0,0,.87-1.39A3,3,0,0,0,46.2,90a4.76,4.76,0,0,0-1.15-1.34h0a1.13,1.13,0,0,1,.32-1.72,1.56,1.56,0,0,1,1.84.11h0a3.35,3.35,0,0,1,.72,1.55A6.41,6.41,0,0,1,48,90.26c-.07,1.12-.3,2.21-.32,3.32Z"></path>
      <path class="cls-23" d="M47.35,91.7c0-1.86.4-3.74,0-5.55a5.3,5.3,0,0,0-.4-1.3A1.88,1.88,0,0,0,46,84a1.91,1.91,0,0,0-2.37.52,1.44,1.44,0,0,0-.13,1.25,6.42,6.42,0,0,0,.6,1.24,12,12,0,0,1,.69,1.22,1.4,1.4,0,0,1,.08,1.4,2.1,2.1,0,0,1-.24.27l-.31.2a1,1,0,0,1-.71.13,1.45,1.45,0,0,1-1-1A1.07,1.07,0,0,1,43.09,88a.64.64,0,0,1,.68,0,.71.71,0,0,1,.25.64h0a.68.68,0,0,0-.24-.61.62.62,0,0,0-.63,0,1,1,0,0,0-.37,1.21,1.32,1.32,0,0,0,.91.91,1.26,1.26,0,0,0,1.13-.56,1.3,1.3,0,0,0-.11-1.26,12.09,12.09,0,0,0-.7-1.2,6.57,6.57,0,0,1-.64-1.27,1.64,1.64,0,0,1,.14-1.43,2.14,2.14,0,0,1,2.65-.65,2.17,2.17,0,0,1,1.08,1,5.59,5.59,0,0,1,.43,1.37,23.79,23.79,0,0,1-.27,5.6Z"></path>
      <path class="cls-23" d="M51.47,92.76a6.59,6.59,0,0,0-1.77-.91h0a2.56,2.56,0,0,1-1.54-1.4A2.1,2.1,0,0,1,48,89.37a2.44,2.44,0,0,1,.44-1,4.08,4.08,0,0,0,.63-1.87,1.49,1.49,0,0,0-.77-1.63h0a1.39,1.39,0,0,0-1.28.2,2.07,2.07,0,0,0-.73,1.15,2.11,2.11,0,0,0,.08,1.36,1.48,1.48,0,0,0,1.08.82v0a1.52,1.52,0,0,1-1.13-.82A2.32,2.32,0,0,1,47,85a1.58,1.58,0,0,1,1.42-.26h0a1.37,1.37,0,0,1,.76.75,2.23,2.23,0,0,1,.16,1.05,4.39,4.39,0,0,1-.63,2,1.81,1.81,0,0,0-.27,1.82,2.36,2.36,0,0,0,1.34,1.34h0a5.35,5.35,0,0,1,1.72,1Z"></path>
      <path class="cls-23" d="M50.86,93.44l-1.41-1.52a9.48,9.48,0,0,1-1.3-1.64A6.2,6.2,0,0,1,48,86.14a2.37,2.37,0,0,0-.31-1.91,1.45,1.45,0,0,0-1.72-.6,1.91,1.91,0,0,0-1.25,1.45A2.72,2.72,0,0,0,45.18,87h0a2.76,2.76,0,0,1-.55-2A2,2,0,0,1,45.9,83.5a1.59,1.59,0,0,1,1.9.63,2.57,2.57,0,0,1,.38,2.05c-.2,1.33-.44,2.78.21,4a37.66,37.66,0,0,0,2.49,3.27Z"></path>
      <path class="cls-23" d="M49.81,93.23A12.93,12.93,0,0,0,48,90.94h0v0a5,5,0,0,1-.38-3,12.9,12.9,0,0,0,.1-1.51A1.71,1.71,0,0,0,47.31,85,1.32,1.32,0,0,0,46,84.64a1.56,1.56,0,0,0-1,1,2.36,2.36,0,0,0,.74,2.71l0,0a2.44,2.44,0,0,1-.83-2.77A1.69,1.69,0,0,1,46,84.49a1.53,1.53,0,0,1,1.49.39A2,2,0,0,1,48,86.35a13,13,0,0,1-.06,1.54,5.37,5.37,0,0,0,.32,2.93v0a10.49,10.49,0,0,1,1.63,2.42Z"></path>
      <path class="cls-23" d="M48.91,93.24a21.68,21.68,0,0,1-1.22-4.53,4.28,4.28,0,0,0-.37-1.06,1.94,1.94,0,0,0-.82-.71,1.56,1.56,0,0,0-2,.46h0a.94.94,0,0,0-.26.91,2.57,2.57,0,0,0,.52.9,2,2,0,0,1,.55,1,1.08,1.08,0,1,1-2.16.11c0-.36.2-.81.62-.79s.62.43.66.77h0c0-.34-.26-.73-.63-.73a.63.63,0,0,0-.54.74,1,1,0,0,0,1.52.77,1,1,0,0,0,.4-.87c0-.34-.3-.58-.53-.87a3,3,0,0,1-.57-1,1.17,1.17,0,0,1,.29-1.1h0a1.82,1.82,0,0,1,2.24-.57,2.09,2.09,0,0,1,.94.8,3.94,3.94,0,0,1,.4,1.15,30.57,30.57,0,0,0,1,4.58Z"></path>
      <path class="cls-25" d="M47.31,83.58a16.89,16.89,0,0,1,.31,7.5c-.73,4.43.22,13.82,3.79,18.88s5.67,3.77,6.26,2.94.8-9.05-2.53-17S48.74,85.23,47.31,83.58Z"></path>
      <path class="cls-21" d="M54.62,100.93c1.3,4.29,1.64,8.69.89,9.12-1.72,1-3.11-2.67-4.41-7s-1.1-8.34-.28-8.59S53.32,96.63,54.62,100.93Z"></path>
      <path class="cls-16" d="M61.74,235.35a3.47,3.47,0,0,0-1.33-1.58l-.7-182.34.08-11.72q0-1.1.09-2.19l.53-6.82H55.82l.59,5.86c.14,1.31.21,2.62.22,3.94l.07,9.61L55.83,233a4.24,4.24,0,0,1-1.38,2.39C53,236.41,62.4,237.21,61.74,235.35Z"></path>
      <path class="cls-14" d="M59.27,80.7s-1.07-1.59-1.6-.88-.53,62.25-.53,62.25l2.48,1.06Z"></path>
      <path class="cls-14" d="M58,145.07s.88,1.24,1.24-.35.53,27.41.53,27.41H58Z"></path>
      <path class="cls-14" d="M57.36,37.46a2.58,2.58,0,0,0,2.26-1.15l-.09,37.41s-1.06,2.56-1.77,2.38S58.65,46,57.36,37.46Z"></path>
      <path class="cls-26" d="M56.44,165.76s1.23-18.21.53-20.33.7-1.77.88.7.5,20.72.5,20.72Z"></path>
      <path class="cls-14" d="M56.7,177.52s2.39-1.59,2.12,5-.39,38.33-1.59,41.52,3.18,0,3.18,0-.66-47.49-.79-48.68S57.5,172.75,56.7,177.52Z"></path>
      <path class="cls-27" d="M56.79,221.82s3.89-38,1.06-40.67-.71,18.39-1.41,23.34S55.73,224.3,56.79,221.82Z"></path>
      <path class="cls-14" d="M55.91,235s-.8,1,2.91,1.15S61,235,60.41,233.77s-.44-4.61-.44-4.61.09.18-2,.71S58.48,232.13,55.91,235Z"></path>
      <path class="cls-26" d="M75.15,1.48s3.76-1,5.42,2.23,2,3.06,2.23,4.72a15.39,15.39,0,0,1,.45,2.63c-.08.42.48-3.85-.31-6.36a4.62,4.62,0,0,0-3.55-3.54A13.5,13.5,0,0,0,75.15,1.48Z"></path>
      <path class="cls-16" d="M56.11,29.15s1.3-12.67,4.49-17.53S68.06.51,74,.09,82,2.18,82.8,3.85s.55,6.67.55,6.67S84,.09,78,1.48s-8.72,6.4-10.52,14.18-8.06,13.07-8.06,13.07S57.22,30,56.11,29.15Z"></path>
      <path class="cls-28" d="M72,.93s-3.43.18-7.87,6.67S58,20.39,57.82,23.35s-2.08,5.75-.23,5.19,6-6.22,7.65-10.93c1.85-5.47,3.51-9.49,5.47-11.54C74.5,2.09,74.23.93,72,.93Z"></path>
      <g class="cls-29">
        <path class="cls-14" d="M76.73,0a10,10,0,0,0-7.34,4.56c-1.67,2.53-3.68,4.81-5,7.5a32.92,32.92,0,0,0-1.66,4.17c-.5,1.43-1,2.85-1.57,4.25a34.84,34.84,0,0,1-4.12,8.06,21.66,21.66,0,0,0,2.05-4c.58-1.39,1.12-2.8,1.63-4.21s1-2.84,1.49-4.27a33,33,0,0,1,1.63-4.26c1.37-2.76,3.39-5,5.13-7.5A10.46,10.46,0,0,1,72.37,1.2,9.21,9.21,0,0,1,76.73,0Z"></path>
      </g>
      <g class="cls-30">
        <path class="cls-18" d="M72.1,1.36A8.87,8.87,0,0,0,69.85,3a15.11,15.11,0,0,0-1.64,2.25C67.14,6.78,66,8.25,65,9.81a16.71,16.71,0,0,0-2.45,4.95q-1,2.66-2,5.26c.54-1.8,1.09-3.58,1.68-5.36a16.3,16.3,0,0,1,2.41-5.09c1.06-1.53,2.2-3,3.32-4.52a16,16,0,0,1,1.76-2.21A9.09,9.09,0,0,1,72.1,1.36Z"></path>
      </g>
      <g class="cls-31">
        <path class="cls-14" d="M59.12,28.82a40.1,40.1,0,0,0,4-4.31,18.5,18.5,0,0,0,3.07-5c.66-1.85,1.16-3.76,1.67-5.66a26.4,26.4,0,0,1,2-5.61,19.13,19.13,0,0,1,3.67-4.68A11.05,11.05,0,0,1,76,1.86a5.65,5.65,0,0,1,2.92-.63,4.09,4.09,0,0,1,2.7,1.25,6.5,6.5,0,0,1,1.3,2.68,17.48,17.48,0,0,1,.31,5.9,17.41,17.41,0,0,0-.48-5.85,6.32,6.32,0,0,0-1.29-2.59,3.84,3.84,0,0,0-2.56-1.14c-2-.13-3.74,1-5.15,2.32a18.87,18.87,0,0,0-3.56,4.63,26.12,26.12,0,0,0-2,5.51c-.53,1.9-1,3.81-1.73,5.67a18.54,18.54,0,0,1-3.16,5A39.47,39.47,0,0,1,59.12,28.82Z"></path>
      </g>
      <path class="cls-14" d="M23.19,41.13s-2,2.13-1.85,8A11.9,11.9,0,0,0,21,53a48.79,48.79,0,0,1,.56,6A43.5,43.5,0,0,1,21,65s1.85-3.15,1.48-10.84c0,0-.46-.84.47-3s1.29-6.3,1.39-7.88,2.41-5.46,2.59-6.39S23.19,41.13,23.19,41.13Z"></path>
      <path class="cls-16" d="M55.07,33s-1.11-9.83-5-10.29-6.39-2-9.55,1.57-2.87,2.32-5,4-3.34,3.06-5.28,4.82S28,34.83,27.09,37,24.77,40,23.66,41.32a7.79,7.79,0,0,0-2.32,5.28c0,2.41-.28-3.34,1.85-5.65,0,0,.75-1.86,1.39-3.15s3.25-7,3.25-7,.83-5,2.69-7.5a43.45,43.45,0,0,1,10.19-8.81c3.34-1.94,9.45-3.15,12.51-2.41A6.59,6.59,0,0,1,58,19.17c-.28,3.43-.93,14-.93,14Z"></path>
      <path class="cls-25" d="M26.9,33.35s4.64-7.79,7.42-10.57,7.59-7.6,14.27-7,8.71,8.52,7.6,15-.41-8.7-4.58-8.83c-3.83-.13-7.1-1.55-9.08-.19-4.39,3-3.33,3.89-6.36,5.19-1.89.81-5.56,5.13-8.71,8.1S26.9,33.35,26.9,33.35Z"></path>
      <path class="cls-25" d="M29.19,28.1a18.68,18.68,0,0,1,1.54-4.39c2-3.09,6.79-6.68,9.08-8.22a19.05,19.05,0,0,1,9.58-3.27c2.47-.06,6.12-.62,7.41,4s.5,7.85-1.23,4.39-3.28-4.51-7.11-5.38S40.12,17.28,38,19A40.39,40.39,0,0,0,29.19,28.1Z"></path>
      <path class="cls-26" d="M51.37,12.71S44.45,11.78,40,15.8s1.81.46,3.63-.34a18.86,18.86,0,0,1,7.74-.71C53.65,15.12,54.52,13.08,51.37,12.71Z"></path>
      <path class="cls-26" d="M53.45,20.23c0-1-3.27-4.12-7.76-4.12s-9.24,5.13-9.24,6.12,4.75-2.55,9.24-2.55S53.45,21.22,53.45,20.23Z"></path>
      <ellipse class="cls-32" cx="41.02" cy="19.66" rx="2.93" ry="1.82" transform="translate(-4.16 24.93) rotate(-32.26)"></ellipse>
      <path class="cls-32" d="M54.21,20.06c0,1.66-2.7,1.55-5,1.55s-4.23-1.34-4.23-3,1.9-3,4.23-3S54.21,18.41,54.21,20.06Z"></path>
      <path class="cls-32" d="M54.89,14.67c0,.62-2.31.33-4.63.33s-4.55-.73-4.55-1.35,2.36-1.29,4.68-1.29S54.89,14.06,54.89,14.67Z"></path>
      <path class="cls-32" d="M44,14.37c-.27-.61-1.49-.14-2.94.49s-3.88,2.82-3.61,3.43,3-1.37,4.4-2S44.24,15,44,14.37Z"></path>
      <g class="cls-17">
        <path class="cls-18" d="M53.82,17.87a9.76,9.76,0,0,0-4.93-2.47,10.82,10.82,0,0,0-5.46.58,17.46,17.46,0,0,0-2.53,1.16,23.59,23.59,0,0,0-2.31,1.58c-1.47,1.17-3,2.32-4.46,3.46q2.1-1.87,4.26-3.72l.54-.46c.19-.14.4-.26.59-.4l1.19-.79a17.38,17.38,0,0,1,2.58-1.22,10.7,10.7,0,0,1,5.66-.5,10.65,10.65,0,0,1,2.67,1A8.78,8.78,0,0,1,53.82,17.87Z"></path>
      </g>
      <g class="cls-17">
        <path class="cls-18" d="M37.47,26.86a11.83,11.83,0,0,0,2-1.75c.62-.63,1.2-1.3,1.76-2a4.69,4.69,0,0,1,2.24-1.56,5.26,5.26,0,0,1,2.73.08c1.65.59,3.53.29,5.22,1.13a2.74,2.74,0,0,1,1.05.92,9.67,9.67,0,0,1,.61,1.2A23,23,0,0,1,54,27.42,23.1,23.1,0,0,0,52.89,25a11.58,11.58,0,0,0-.65-1.14,2.26,2.26,0,0,0-1-.78,8.49,8.49,0,0,0-2.53-.58c-.44,0-.88-.07-1.33-.13s-.89-.2-1.32-.3a4.85,4.85,0,0,0-2.53-.13,4.59,4.59,0,0,0-2.1,1.41A17,17,0,0,1,37.47,26.86Z"></path>
      </g>
      <path class="cls-26" d="M53.5,26.28s0,.58,1.48,6.51c1.25,5.1,2.55,3.75,4.26,2.46a.63.63,0,0,0-.07-1A9.07,9.07,0,0,0,57.25,33C55.31,32.33,55.81,31.84,53.5,26.28Z"></path>
      <path class="cls-16" d="M55.32,28.54C56,32.07,57.4,30,59.63,31.6c1,.85,1.34-2.68,1.78-3.26C62,26,63.83,24.18,65.6,22.58c-1.85-2.26-5.43-1.22-7.21.64a7.6,7.6,0,0,0-3.07,5.58C55.34,28.89,55.41,29,55.32,28.54Z"></path>
      <path class="cls-14" d="M58.39,23.22a7.7,7.7,0,0,0-3.06,5.37v0a1.48,1.48,0,0,1,0,.21c0,.08.07.14,0-.14a6.77,6.77,0,0,0,.19.75.43.43,0,0,0,0-.05l0-.06A3.93,3.93,0,0,1,56,28.23C56.19,28,58.3,25,59.49,25a2.53,2.53,0,0,1,2.45,2,15.39,15.39,0,0,1,3.66-4.38C63.75,20.32,60.17,21.36,58.39,23.22Z"></path>
      <path class="cls-26" d="M78,62.51c-7.46-5.84-7-46.68-19.19-39-3.37,2.47-3.45,5.11-3.45,5.11-.18-2.54,1.81-5.71,3.41-8.06a15.42,15.42,0,0,1,2.83-3.15c.66-.56,1.33-1.11,2-1.65C81.85,1,79.58,36.5,79.32,47.06c1.21,11,5.77,21.54,2.78,32.66-.65-5.83-.74-12.14-4.07-17.21"></path>
      <path class="cls-16" d="M65.05,20.32a7.57,7.57,0,0,0,.67-.42c1-.94,1.25-2.77,3-2.71.64-.13,1.53,1.1,1.84,1.56,1.91,2.58,2.09,5.88,2.62,8.94a44.64,44.64,0,0,0,1.26,5,51.5,51.5,0,0,1,1.06,6.54c.56,4.7.78,9.51,2.32,14,.32,1.2.69,2.4,1,3.61s.75,2.51.4,3.74c-.22.27-.74-.17-.91-.38-1.31-1.29-1.76-3-2.33-4.72a45.77,45.77,0,0,0-1.81-4.95,62.85,62.85,0,0,1-1.78-7.22c-.6-3.2-1.39-6.38-2.26-9.52A46.51,46.51,0,0,0,67.91,27C66.81,24.34,63.2,21.59,65.05,20.32Z"></path>
      <path class="cls-16" d="M69.6,16.49c0-.38.47-.38.69-.54a8.23,8.23,0,0,0,2-1.54c1.13-.75,2.52-1.14,3.22.39A24.72,24.72,0,0,1,77.25,20c.84,2.7.91,5.58,1.26,8.37.2,2,.62,3.88.63,5.84A48.44,48.44,0,0,1,79,40.31c-.16,1.29.09,2.65-.11,3.94-.31,3.46,1.7,6.88.36,10.28-1.82-1.23-2.27-8-2.63-10.25-.19-2.88-1-5.68-1.3-8.55-.23-2.27-.54-4.54-.87-6.8A37,37,0,0,0,70.61,18.3,5.2,5.2,0,0,1,69.6,16.49Z"></path>
      <path class="cls-16" d="M66.86,16.17a4.55,4.55,0,0,0-5.68,2.64A8.94,8.94,0,0,0,60,21.27a1.12,1.12,0,0,0,1.48.95c1.37-.55,1.26-.34,2.29-1.38.18-.16,1.51-1.48,1.72-1.63,2.26-1.58,2.18-2.31,1.89-2.7A1.06,1.06,0,0,0,66.86,16.17Z"></path>
      <path class="cls-16" d="M64.5,15.62s2.82-2.51,5-2.92,3.8-.28,2.55.92a20,20,0,0,1-3.85,2.51A9.55,9.55,0,0,0,64.5,15.62Z"></path>
      <path class="cls-19" d="M65.79,15.93a5.19,5.19,0,0,1,3.95,1.78,10.91,10.91,0,0,1,2.34,3.79,64.55,64.55,0,0,1,2,8.65c1,5.84,1.73,11.7,2.41,17.58h0c-.38-2.93-.77-5.86-1.2-8.79l-.82-4.36c-.32-1.44-.6-2.89-.89-4.33s-.5-2.91-.8-4.35a38.79,38.79,0,0,0-1-4.29,10.74,10.74,0,0,0-2.14-3.78A5.1,5.1,0,0,0,65.79,16Z"></path>
      <g class="cls-33">
        <path class="cls-18" d="M56.06,30.45a3.14,3.14,0,0,1-.83-2.29,9.24,9.24,0,0,1,.62-2.39,6.25,6.25,0,0,1,3.58-3.25A5.56,5.56,0,0,1,61.82,22a4.71,4.71,0,0,1,1.22.2,3.74,3.74,0,0,1,1.09.6,15.18,15.18,0,0,1,3,3.81h0a18.68,18.68,0,0,0-3.15-3.58,3.53,3.53,0,0,0-1-.58,4.4,4.4,0,0,0-1.14-.2,5.2,5.2,0,0,0-2.3.42,6.1,6.1,0,0,0-3.28,3.23,9.52,9.52,0,0,0-.72,2.25,3.43,3.43,0,0,0,.56,2.25Z"></path>
      </g>
      <g class="cls-34">
        <path class="cls-18" d="M59.88,31.27c.19-.53.41-1,.59-1.54L61,28.18a15.15,15.15,0,0,1,.69-1.53,5.74,5.74,0,0,1,.95-1.38l0,0a5.45,5.45,0,0,0-.79,1.44c-.21.5-.4,1-.56,1.54a8.75,8.75,0,0,1-.49,1.61,5.46,5.46,0,0,1-.94,1.4Z"></path>
      </g>
      <path class="cls-18" d="M67.53,16a1.58,1.58,0,0,1,1.08.18,1.12,1.12,0,0,1,.45.35,1.06,1.06,0,0,1,.18.55l0,0a4,4,0,0,1-.43-.33c-.12-.11-.21-.24-.33-.35a1.73,1.73,0,0,0-.92-.38Z"></path>
      <path class="cls-16" d="M69.84,115.64s-1.11,12.79-4.35,18.77-4.18,4.79-5.13,4.69,4.49-14.16,5.93-16.63A76.62,76.62,0,0,0,69.84,115.64Z"></path>
      <path class="cls-21" d="M69.84,115.64s-.81,7.56-1.57,9.57-1.09-1.93-.1-4.6S69.84,115.64,69.84,115.64Z"></path>
      <path class="cls-23" d="M67.16,118.45l-.53.57s.41,0,.21.32c0,0,.55-.53.5-.36s.43-.23.43,0,.32-.52.34-.33-.11-.68-.27-.84S67.16,118.45,67.16,118.45Z"></path>
      <path class="cls-23" d="M65.67,119.05a2.33,2.33,0,0,0,1.37-.8,1.93,1.93,0,0,0-.07-1.54c-.17-.53-.41-1-.58-1.58a3.3,3.3,0,0,1-.17-1.71h0a1.55,1.55,0,0,1,.71-1.06,1.83,1.83,0,0,1,1.25-.21,1.19,1.19,0,0,1,1,.78,1.49,1.49,0,0,1-.29,1.19h0a1.52,1.52,0,0,0,.25-1.16,1.07,1.07,0,0,0-.91-.69,1.62,1.62,0,0,0-1.16.22,1.37,1.37,0,0,0-.62,1h0a2.94,2.94,0,0,0,.21,1.59c.18.52.42,1,.59,1.57a2,2,0,0,1,0,1.7,2.11,2.11,0,0,1-1.51.74Z"></path>
      <path class="cls-23" d="M67.36,119.15a3.63,3.63,0,0,0,.63-2,6.56,6.56,0,0,1,.35-2.13,1.72,1.72,0,0,1,.74-.84,1.77,1.77,0,0,1,1.11-.17,2,2,0,0,1,1.5,1.51,2,2,0,0,1-.73,2c-.51.49-1.19.85-1.47,1.47a.59.59,0,0,0,.41.77.67.67,0,0,0,.81-.41.8.8,0,0,0-.31-.9c-.32-.19-.68.08-.89.33h0c.21-.26.57-.56.94-.37a.89.89,0,0,1,.35,1,.76.76,0,0,1-.91.47.68.68,0,0,1-.49-.89c.31-.71,1-1.06,1.48-1.55a1.88,1.88,0,0,0,.58-.83,1.81,1.81,0,0,0,.07-1,1.75,1.75,0,0,0-1.36-1.32,1.51,1.51,0,0,0-1,.15,1.44,1.44,0,0,0-.64.73,6.5,6.5,0,0,0-.41,2,3.39,3.39,0,0,1-.76,2Z"></path>
      <path class="cls-23" d="M68,120.4a8.83,8.83,0,0,1,.14-4.7,3.28,3.28,0,0,1,1.55-1.81,1.94,1.94,0,0,1,2.31.35,2.36,2.36,0,0,1,.29,2.33,7.14,7.14,0,0,1-1.22,2,1,1,0,0,0-.06,1,1.17,1.17,0,0,0,1,.49,1.24,1.24,0,0,0,1-.38,1.09,1.09,0,0,0,.06-1.08h0a.9.9,0,0,0-.51-.43.83.83,0,0,0-.67.11,1.08,1.08,0,0,0-.49,1.21h0a1.12,1.12,0,0,1,.49-1.26.91.91,0,0,1,.7-.13.93.93,0,0,1,.56.45h0a1.19,1.19,0,0,1,0,1.17,1.37,1.37,0,0,1-1.11.43,1.3,1.3,0,0,1-1.06-.53,1.16,1.16,0,0,1,.05-1.19,7,7,0,0,0,1.17-2,2.13,2.13,0,0,0-.28-2.13,1.75,1.75,0,0,0-2.05-.29,3.28,3.28,0,0,0-1.45,1.68A9.37,9.37,0,0,0,68,120.4Z"></path>
      <path class="cls-23" d="M68.3,119.23a5.69,5.69,0,0,1-.41-3.31,2.24,2.24,0,0,1,.76-1.55,1.08,1.08,0,0,1,1.52.65,2.43,2.43,0,0,1-.3,1.7c-.24.51-.53,1-.79,1.48a3.65,3.65,0,0,0-.51,1.54,1.73,1.73,0,0,0,.68,1.39h0a1.6,1.6,0,0,0,1.6.31,1.46,1.46,0,0,0,1-1.25,1,1,0,0,0-.32-.76.69.69,0,0,0-.8,0,1.18,1.18,0,0,0-.43,1.54h0a1.23,1.23,0,0,1,.43-1.59.75.75,0,0,1,.88,0,1.06,1.06,0,0,1,.36.82,1.57,1.57,0,0,1-1.09,1.36,1.68,1.68,0,0,1-1.74-.32h0a1.86,1.86,0,0,1-.76-1.5,3.85,3.85,0,0,1,.51-1.63c.25-.5.54-1,.77-1.48A2.35,2.35,0,0,0,70,115.1a.85.85,0,0,0-1.18-.53,2.1,2.1,0,0,0-.71,1.38A7,7,0,0,0,68,117.6a4.65,4.65,0,0,0,.35,1.61Z"></path>
      <path class="cls-24" d="M66.41,120.46a3.48,3.48,0,0,0,.84-1.64,4.62,4.62,0,0,0-.08-1.85c-.13-.61-.33-1.21-.44-1.83a1.69,1.69,0,0,1,.5-1.72h0a1.67,1.67,0,0,0-.46,1.71c.11.62.32,1.21.46,1.82a4.42,4.42,0,0,1,.09,1.88,3.45,3.45,0,0,1-.9,1.64Z"></path>
      <path class="cls-24" d="M67.26,119.92a2.36,2.36,0,0,0,.39-1.86,13.74,13.74,0,0,0-.45-1.92,4.72,4.72,0,0,1-.21-2,2,2,0,0,1,1.32-1.38h0A2,2,0,0,0,67,114.18a4.59,4.59,0,0,0,.23,1.94,15.1,15.1,0,0,1,.47,1.93,2.39,2.39,0,0,1-.47,1.88Z"></path>
      <path class="cls-24" d="M67.39,119.9a3.21,3.21,0,0,0,.48-1.16,4.9,4.9,0,0,0,0-1.27c-.07-.84-.27-1.67-.3-2.53a3.46,3.46,0,0,1,.79-2.39,2.57,2.57,0,0,1,2.18-1.13h0a2.54,2.54,0,0,0-2.15,1.15,3.85,3.85,0,0,0-.6,1.11,4,4,0,0,0-.15,1.25c0,.84.23,1.68.31,2.53a5,5,0,0,1-.06,1.28,3.29,3.29,0,0,1-.52,1.16Z"></path>
      <path class="cls-24" d="M67.36,119.73a3.46,3.46,0,0,0-.28-2.36,15.27,15.27,0,0,1-.89-2.27h0a1.63,1.63,0,0,1,.56-1.73,1.44,1.44,0,0,1,.88-.34,1.29,1.29,0,0,1,.87.34h0a1.23,1.23,0,0,0-.86-.33,1.4,1.4,0,0,0-.85.35,1.58,1.58,0,0,0-.54,1.68h0a13.59,13.59,0,0,0,.91,2.25,3.47,3.47,0,0,1,.21,2.39Z"></path>
      <path class="cls-24" d="M67.94,119.88a4.45,4.45,0,0,1,.29-2.52,2.8,2.8,0,0,1,.76-1,1.72,1.72,0,0,1,1.21-.39h0a.81.81,0,0,1,.5.42.82.82,0,0,1,0,.65.41.41,0,0,1-.53.27,1,1,0,0,1-.4-.51h0a1,1,0,0,0,.4.49c.2.1.42-.07.49-.27a.72.72,0,0,0,0-.61.75.75,0,0,0-.47-.4h0a1.66,1.66,0,0,0-1.17.4,2.66,2.66,0,0,0-.73,1,4.81,4.81,0,0,0-.35,2.49Z"></path>
      <path class="cls-24" d="M68,119.33a7.46,7.46,0,0,1-.22-2.26,4.38,4.38,0,0,1,.69-2.16,2.42,2.42,0,0,1,.83-.79,1.34,1.34,0,0,1,1.12-.15,1.21,1.21,0,0,1,.71.87,3.19,3.19,0,0,1,.06,1.15h0a9.53,9.53,0,0,1-1.81,2.28,3.85,3.85,0,0,0-.82,1.18,1.3,1.3,0,0,0,.09,1.36,1.51,1.51,0,0,0,1.32.4,1.1,1.1,0,0,0,1-.86c0-.46-.25-1-.77-1a.85.85,0,0,0-.64.3.69.69,0,0,0-.1.68h0a.69.69,0,0,1,.09-.69.85.85,0,0,1,.65-.3c.53,0,.84.56.79,1a1.11,1.11,0,0,1-1,.89,1.48,1.48,0,0,1-1.36-.41,1.33,1.33,0,0,1-.1-1.4,3.91,3.91,0,0,1,.81-1.2,9.33,9.33,0,0,0,1.8-2.27h0a3.24,3.24,0,0,0,0-1.12,1.17,1.17,0,0,0-.67-.82,1.76,1.76,0,0,0-1.87.91,4.32,4.32,0,0,0-.71,2.12,7.47,7.47,0,0,0,.19,2.26Z"></path>
      <path class="cls-24" d="M68.36,119.35a10.33,10.33,0,0,1-.49-2.92,4.34,4.34,0,0,1,.84-2.81,2.18,2.18,0,0,1,1.25-.78,1.4,1.4,0,0,1,1.37.42,1.53,1.53,0,0,1,.21,1.42,4.54,4.54,0,0,1-.68,1.31h0a4.33,4.33,0,0,0,.67-1.32,1.53,1.53,0,0,0-.22-1.39,1.36,1.36,0,0,0-1.33-.39,2.16,2.16,0,0,0-1.21.77,4.33,4.33,0,0,0-.81,2.77,10.36,10.36,0,0,0,.42,2.92Z"></path>
      <path class="cls-24" d="M67.64,120.09a9.39,9.39,0,0,0,.15-3.13,7.38,7.38,0,0,1,.29-3.13,2,2,0,0,1,1.06-1.14,1.69,1.69,0,0,1,1.53.09,1.21,1.21,0,0,1,.53,1.39,3,3,0,0,1-.86,1.3h0a3,3,0,0,0,.85-1.3,1.18,1.18,0,0,0-.53-1.34,1.63,1.63,0,0,0-1.49-.08,1.91,1.91,0,0,0-1,1.12,7.51,7.51,0,0,0-.28,3.1,9.22,9.22,0,0,1-.21,3.14Z"></path>
      <path class="cls-24" d="M67.55,119a2.48,2.48,0,0,1,0-1.72,3.57,3.57,0,0,1,1-1.45,2.34,2.34,0,0,1,1.6-.65,1.9,1.9,0,0,1,1.42,1h0A1.45,1.45,0,0,1,71,118a1.12,1.12,0,0,1-1,.15,1.22,1.22,0,0,1-.65-.72h0a1.2,1.2,0,0,0,.66.7,1,1,0,0,0,.94-.16,1.39,1.39,0,0,0,.54-1.72h0a1.86,1.86,0,0,0-1.37-.92,2.27,2.27,0,0,0-1.55.65,3.75,3.75,0,0,0-1,1.41,2.48,2.48,0,0,0,0,1.7Z"></path>
      <path class="cls-24" d="M68.21,118.67a8.35,8.35,0,0,1-.32-2.23,2.8,2.8,0,0,1,.77-2.08,2.06,2.06,0,0,1,2.17-.27A1.76,1.76,0,0,1,72,115.86a2.78,2.78,0,0,1-1.31,1.79,1.78,1.78,0,0,0-.65.88,1.25,1.25,0,0,0,.19,1.06,1.55,1.55,0,0,0,.9.62.73.73,0,0,0,.88-.49.71.71,0,0,0-.35-.94.67.67,0,0,0-.91.4h0a.67.67,0,0,1,.92-.41.72.72,0,0,1,.37,1,.76.76,0,0,1-.91.51,1.56,1.56,0,0,1-.92-.63,1.32,1.32,0,0,1-.21-1.09,1.85,1.85,0,0,1,.67-.91A2.72,2.72,0,0,0,72,115.86a1.71,1.71,0,0,0-1.16-1.71,2,2,0,0,0-2.08.27,2.71,2.71,0,0,0-.79,2,8.43,8.43,0,0,0,.29,2.23Z"></path>
      <path class="cls-24" d="M68,119.83a2.63,2.63,0,0,0-.15-2.07,6.52,6.52,0,0,1-.65-2h0a2.21,2.21,0,0,1,0-1.17,1.49,1.49,0,0,1,.72-.91,1.18,1.18,0,0,1,1.14,0,2.14,2.14,0,0,1,.76.9h0a2.46,2.46,0,0,1-.13,2,10.22,10.22,0,0,1-1.08,1.68h0a6.19,6.19,0,0,0-.71,2.52,2.43,2.43,0,0,0,.24,1.27,1.39,1.39,0,0,0,1,.68,1.44,1.44,0,0,0,1.62-1.58.65.65,0,0,0-.32-.53.79.79,0,0,0-.64,0,.83.83,0,0,0-.64,1h0a.93.93,0,0,1,1.3-1,.68.68,0,0,1,.33.55,1.47,1.47,0,0,1-1.65,1.62,1.44,1.44,0,0,1-1.08-.7,2.55,2.55,0,0,1-.25-1.3,6.32,6.32,0,0,1,.71-2.54h0a10.22,10.22,0,0,0,1.08-1.68,2.42,2.42,0,0,0,.11-1.92h0a2,2,0,0,0-.72-.86,1.1,1.1,0,0,0-1.08,0,1.46,1.46,0,0,0-.68.86,2.28,2.28,0,0,0,0,1.13h0a6.66,6.66,0,0,0,.62,2,2.69,2.69,0,0,1,.13,2.08Z"></path>
      <path class="cls-24" d="M67.93,119.33a6.67,6.67,0,0,0,0-2.44,4.4,4.4,0,0,1,.32-2.43h0a1.61,1.61,0,0,1,.7-1.07,1.49,1.49,0,0,1,1.27-.05,1.9,1.9,0,0,1,1.28,2h0a1.86,1.86,0,0,0-1.28-2,1.43,1.43,0,0,0-1.23.06,1.53,1.53,0,0,0-.67,1h0a4.42,4.42,0,0,0-.31,2.39,6.72,6.72,0,0,1-.1,2.45Z"></path>
      <path class="cls-23" d="M67.89,120.91c0-1-.22-1.89-.28-2.86a6,6,0,0,1,.06-1.46,3,3,0,0,1,.62-1.34h0a1.35,1.35,0,0,1,1.59-.1,1.06,1.06,0,0,1,.5.68,1.08,1.08,0,0,1-.22.8h0a4.07,4.07,0,0,0-1,1.16,2.66,2.66,0,0,0-.35,1.46,1.39,1.39,0,0,0,.75,1.2,1.18,1.18,0,0,0,1.29-.53h0a1.21,1.21,0,0,0,.22-.65.52.52,0,0,0-.38-.5.6.6,0,0,0-.61.24,1,1,0,0,0-.19.66h0A1.21,1.21,0,0,1,70,119a.67.67,0,0,1,.66-.26.57.57,0,0,1,.44.55,1.31,1.31,0,0,1-.22.69h0l-.27.29a4,4,0,0,1-.33.24,1.06,1.06,0,0,1-.8.06,1.5,1.5,0,0,1-.85-1.3,2.78,2.78,0,0,1,.34-1.55,4.47,4.47,0,0,1,1-1.23l0,0a.83.83,0,0,0,.17-.65.8.8,0,0,0-.41-.53,1.13,1.13,0,0,0-1.31.08h0a3.86,3.86,0,0,0-.69,2.64c0,.95.2,1.91.14,2.88Z"></path>
      <path class="cls-23" d="M68.14,119.3a21.14,21.14,0,0,1-.23-4.84,5.39,5.39,0,0,1,.37-1.18A1.93,1.93,0,0,1,71.5,113c.87,1.78-1.62,2.92-1.12,4.44a1.06,1.06,0,0,0,1,.49,1.13,1.13,0,0,0,.78-.79.87.87,0,0,0-.31-1,.52.52,0,0,0-.55,0,.56.56,0,0,0-.2.52h0a.61.61,0,0,1,.21-.55.57.57,0,0,1,.59,0,.93.93,0,0,1,.36,1.1,1.22,1.22,0,0,1-.83.86,1.14,1.14,0,0,1-1.09-.51,1.21,1.21,0,0,1,.06-1.21c.18-.37.4-.71.6-1.06a5,5,0,0,0,.52-1.06,1.24,1.24,0,0,0-.11-1.08,1.66,1.66,0,0,0-2-.46,1.71,1.71,0,0,0-.82.75,5.21,5.21,0,0,0-.35,1.12c-.32,1.56,0,3.18,0,4.79Z"></path>
      <path class="cls-23" d="M64.59,120.19a4.81,4.81,0,0,1,1.48-.91h0a2,2,0,0,0,1.16-1.16,1.53,1.53,0,0,0-.23-1.56,3.7,3.7,0,0,1-.54-1.72,1.47,1.47,0,0,1,.78-1.56h0a1.39,1.39,0,0,1,1.23.22,1.84,1.84,0,0,1,.64,1.06,1.86,1.86,0,0,1-.11,1.23,1.28,1.28,0,0,1-1,.7v0a1.25,1.25,0,0,0,.93-.7,1.8,1.8,0,0,0,.07-1.19,1.75,1.75,0,0,0-.63-1,1.18,1.18,0,0,0-1.1-.18h0a1.28,1.28,0,0,0-.66,1.4,3.6,3.6,0,0,0,.55,1.62,1.76,1.76,0,0,1,.26,1.77,2.18,2.18,0,0,1-1.33,1.21h0a6.06,6.06,0,0,0-1.54.79Z"></path>
      <path class="cls-23" d="M65.12,120.78A29.61,29.61,0,0,0,67.26,118a5.45,5.45,0,0,0,.19-3.42,2.21,2.21,0,0,1,.32-1.77,1.4,1.4,0,0,1,1.65-.55,1.74,1.74,0,0,1,1.11,1.36,2.42,2.42,0,0,1-.47,1.7l0,0a2.38,2.38,0,0,0,.42-1.67,1.67,1.67,0,0,0-1.08-1.26,1.26,1.26,0,0,0-1.48.52,2,2,0,0,0-.27,1.65,5.34,5.34,0,0,1-.16,3.57,7.79,7.79,0,0,1-1.12,1.42l-1.21,1.31Z"></path>
      <path class="cls-23" d="M66,120.61a8.5,8.5,0,0,1,1.4-2.09h0a4.58,4.58,0,0,0,.28-2.52,11.83,11.83,0,0,1,0-1.33,1.66,1.66,0,0,1,.44-1.27,1.31,1.31,0,0,1,1.29-.34,1.45,1.45,0,0,1,.93.94,2.09,2.09,0,0,1-.71,2.39l0,0a2,2,0,0,0,.64-2.34,1.36,1.36,0,0,0-.88-.84,1.13,1.13,0,0,0-1.13.32,1.46,1.46,0,0,0-.37,1.16,11.66,11.66,0,0,0,.08,1.31,4.27,4.27,0,0,1-.32,2.63h0a10.86,10.86,0,0,0-1.54,2Z"></path>
      <path class="cls-23" d="M66.8,120.61a25.9,25.9,0,0,0,.84-4,3.78,3.78,0,0,1,.35-1,2,2,0,0,1,.81-.7,1.56,1.56,0,0,1,1.93.5h0a1,1,0,0,1,.24,1,2.4,2.4,0,0,1-.49.83A1.62,1.62,0,0,0,70,118a.84.84,0,0,0,.36.75.86.86,0,0,0,1.31-.66c0-.3-.15-.65-.47-.64s-.51.33-.55.62h0c0-.3.21-.66.57-.67s.56.38.54.69a1,1,0,0,1-1.45.76,1,1,0,0,1-.42-.86,1.68,1.68,0,0,1,.48-.84,2.29,2.29,0,0,0,.44-.77.81.81,0,0,0-.22-.79h0a1.35,1.35,0,0,0-1.7-.4,1.74,1.74,0,0,0-.7.62,3.16,3.16,0,0,0-.32.91,19,19,0,0,1-1.05,3.91Z"></path>
      <path class="cls-25" d="M68.2,113.38a14.58,14.58,0,0,0-.27,6.48c.63,3.81-.19,11.92-3.27,16.29s-4.89,3.26-5.41,2.54-.68-7.81,2.19-14.67A31.16,31.16,0,0,1,68.2,113.38Z"></path>
      <path class="cls-21" d="M61.89,128.35c-1.12,3.71-1.42,7.51-.77,7.88,1.48.85,2.69-2.3,3.81-6s.95-7.2.24-7.42S63,124.65,61.89,128.35Z"></path>
      <path class="cls-35" d="M62.82,120.54s-.59.62-.26,6.5S60.9,137.76,60,138.38s-1.37.86-2-.32-1-6,.63-10.38c0,0,1.32-2.64,2-3.66S61.8,121,62.82,120.54Z"></path>
      <path class="cls-36" d="M62.82,120.54s-3.45,2-3.54,11.32,2.57,2.4,2.67,1,.16-8.57.22-10A4.38,4.38,0,0,1,62.82,120.54Z"></path>
      <path class="cls-37" d="M59.31,126.57s-2.28,4.22-1.66,8.29c.22,1.44,1.59.15,1.47-1.11A34.48,34.48,0,0,1,59.31,126.57Z"></path>
      <path class="cls-38" d="M62.11,121.5s-1.19,6.22-.34,8.58a4.11,4.11,0,0,0-1-1.22S59.68,124.63,62.11,121.5Z"></path>
      <path class="cls-16" d="M55.05,223.54s-.35-2.82,1.22-4.09c3.27-2.64,3.82-5.3,4.9-6.92s5.94-5.75,11.22-3.62A11.42,11.42,0,0,1,76,211c1.1,1,1.26,1.85,3.45,2.72A15.09,15.09,0,0,1,85,217.47s.72-3.83-5.63-6.19a6.37,6.37,0,0,0-2.48-.2,17,17,0,0,0-3.83.62c-3.37.8-5.48.36-7.7.69C60.38,213.13,54.94,221.67,55.05,223.54Z"></path>
      <path class="cls-16" d="M60.49,216.91a24,24,0,0,1,.28,4.12c-.16.9-.44,1-.44,1s0,1.75-.48,2-2.4-1.94-4.74.06A10.59,10.59,0,0,1,57.49,221C59.22,219.41,60.56,217.92,60.49,216.91Z"></path>
      <path class="cls-26" d="M55.35,224.23a3.77,3.77,0,0,1,.23-3.78c1.08-1.55,2.37-1.51,4.27-5.49s4.57-5.2,4.57-5.2-3.07,2.9-3.27,4.51,0,3.62-.79,4.73-1.9,1.61-3.23,2.92A7.11,7.11,0,0,0,55.35,224.23Z"></path>
      <path class="cls-39" d="M55.33,224.19a3.71,3.71,0,0,1-.45-1.7,4.1,4.1,0,0,1,.34-1.76v0a15.24,15.24,0,0,1,2.45-2.82,12.61,12.61,0,0,0,2-3,18.75,18.75,0,0,1,1.94-3.16,10.66,10.66,0,0,1,3-2.16,12.45,12.45,0,0,0-2.83,2.3A22.47,22.47,0,0,0,60,215.07a11.24,11.24,0,0,1-2.1,3.07l-1.3,1.3a8,8,0,0,0-1.16,1.36v0A4,4,0,0,0,55.33,224.19Z"></path>
      <path class="cls-26" d="M72.07,208.8a20.26,20.26,0,0,1,2.33.94,5.62,5.62,0,0,1,1.06.68,6.8,6.8,0,0,1,1,.82c.3.31.52.66.81.94a7.22,7.22,0,0,0,.94.8c.69.42,1.47.76,2.21,1.14a18.73,18.73,0,0,1-2.31-1,6.78,6.78,0,0,1-1-.79c-.32-.3-.55-.66-.83-.94a9.47,9.47,0,0,0-2-1.5C73.59,209.5,72.83,209.15,72.07,208.8Z"></path>
      <path class="cls-26" d="M78.17,212.08a13.5,13.5,0,0,1,4,1.93,10.33,10.33,0,0,1,1.64,1.53A6.91,6.91,0,0,1,85,217.47a7.94,7.94,0,0,0-1.18-1.88,9.71,9.71,0,0,0-1.65-1.49A15,15,0,0,0,78.17,212.08Z"></path>
      <path class="cls-16" d="M55.12,189.76s-.45-3.62,1.57-5.25c4.21-3.41,4.93-6.84,6.32-8.93s7.66-7.41,14.46-4.66a14.84,14.84,0,0,1,4.7,2.7c1.42,1.32,1.63,2.39,4.44,3.51a19.37,19.37,0,0,1,7,4.82s.93-4.93-7.26-8a8.37,8.37,0,0,0-3.19-.26,21.6,21.6,0,0,0-4.93.8c-4.35,1-7.06.47-9.92.89C62,176.36,55,187.37,55.12,189.76Z"></path>
      <path class="cls-16" d="M62.13,181.22a31.45,31.45,0,0,1,.36,5.31c-.2,1.17-.56,1.25-.56,1.25s0,2.25-.62,2.62-3.09-2.5-6.11.08a13.61,13.61,0,0,1,3.07-4C60.5,184.45,62.22,182.53,62.13,181.22Z"></path>
      <path class="cls-26" d="M55.51,190.66a4.88,4.88,0,0,1,.3-4.88c1.38-2,3-1.94,5.5-7.06S67.2,172,67.2,172s-4,3.74-4.22,5.82,0,4.66-1,6.09-2.45,2.07-4.17,3.76A9.05,9.05,0,0,0,55.51,190.66Z"></path>
      <path class="cls-39" d="M55.49,190.61a4.55,4.55,0,0,1-.59-2.2,5.33,5.33,0,0,1,.44-2.26v0a4.53,4.53,0,0,1,.7-1c.26-.31.52-.61.79-.9l1.67-1.7a16.21,16.21,0,0,0,2.63-3.87,22.74,22.74,0,0,1,2.5-4.06,13.59,13.59,0,0,1,3.87-2.79,16,16,0,0,0-3.65,3,28.66,28.66,0,0,0-2.37,4.07c-.37.7-.74,1.41-1.17,2.09a12.49,12.49,0,0,1-1.53,1.87l-1.68,1.67a10.7,10.7,0,0,0-1.49,1.74v0A5.2,5.2,0,0,0,55.49,190.61Z"></path>
      <path class="cls-26" d="M77.06,170.77a27.5,27.5,0,0,1,3,1.21,7.89,7.89,0,0,1,1.38.88,9.52,9.52,0,0,1,1.24,1.06c.39.39.67.85,1,1.22a9.16,9.16,0,0,0,1.22,1c.89.54,1.89,1,2.84,1.47a22.79,22.79,0,0,1-3-1.29,7.78,7.78,0,0,1-1.27-1c-.4-.38-.7-.84-1.07-1.21a9.85,9.85,0,0,0-1.19-1,9.54,9.54,0,0,0-1.32-.89C79,171.68,78,171.22,77.06,170.77Z"></path>
      <path class="cls-26" d="M84.92,175a17.33,17.33,0,0,1,5.18,2.49,12.77,12.77,0,0,1,2.12,2A8.61,8.61,0,0,1,93.66,182a10.31,10.31,0,0,0-1.51-2.43A13.85,13.85,0,0,0,90,177.6a19,19,0,0,0-2.45-1.49A21.19,21.19,0,0,0,84.92,175Z"></path>
      <path class="cls-26" d="M51.39,172.71s-2.77-1.54-4.6-1.37-2.57,1-3.79,1.48a53,53,0,0,0-6.16,2.47c-1.56.93-6.16,4.83-7.31,7.14s-2.91,6.91-3.32,7.85-1.83,2.41-2.44,4.88-1.89,4.56-.47,8.29c0,0-.54-2,0-3s2.57-3.57,3.25-4.83A16.23,16.23,0,0,1,29.73,192a7.09,7.09,0,0,0,2.57-2,6.74,6.74,0,0,1,3.18-2.14c.88-.38,5-4.34,5.83-5.1a72,72,0,0,0,6.76-6.37C49.83,174.25,51.39,172.71,51.39,172.71Z"></path>
      <path class="cls-16" d="M49.6,172.7s-4.27-1.73-5.64.74,4,1.4,4.72.66A3.28,3.28,0,0,0,49.6,172.7Z"></path>
      <path class="cls-16" d="M42.9,177.14s.91-3.21-2.14-2.34-4.72,2-5.78,3.33-3.35,3.21-4,4.32a72,72,0,0,0-4,7.41c-.76,2.1,3.8-2.71,5-4.07S42,178.5,42.9,177.14Z"></path>
      <path class="cls-16" d="M42.34,178.77a4.54,4.54,0,0,1,2.18-.84c1.1-.13,2.28-.14,1,.7a31.93,31.93,0,0,0-4,3.39,26.37,26.37,0,0,1-5,3.69c-2,1.12-4.31,2.5-5,3-1.21,1-2.74,2-2.74,2s-.76-.49,3.51-4.08C35.57,183.85,40.4,180.22,42.34,178.77Z"></path>
      <path class="cls-19" d="M45.92,175.69a44.6,44.6,0,0,0-4.74,2.95c-1.53,1.06-3,2.19-4.47,3.35s-2.89,2.35-4.28,3.59a32.48,32.48,0,0,0-3.89,4l-.05,0a24,24,0,0,1,3.66-4.26c1.35-1.31,2.79-2.51,4.23-3.71s3-2.26,4.56-3.27a31.07,31.07,0,0,1,5-2.65Z"></path>
      <path class="cls-40" d="M48.56,174.31a49,49,0,0,0-7.4,4.53c-2.33,1.72-4.67,3.44-6.9,5.29a28.26,28.26,0,0,0-3.13,3c-.93,1.12-1.95,2.17-3,3.21-.51.51-1,1-1.52,1.54a3.62,3.62,0,0,0-.62.82l-.45,1c-.58,1.32-1.18,2.65-1.71,4h-.05c.42-1.39.92-2.75,1.45-4.11.13-.34.26-.68.42-1a3.93,3.93,0,0,1,.65-.94c.48-.55,1-1.07,1.48-1.6,1-1,2-2.07,2.95-3.18A27.31,27.31,0,0,1,34,183.83c2.27-1.82,4.63-3.5,7-5.19a49.44,49.44,0,0,1,7.52-4.37Z"></path>
      <path class="cls-16" d="M61,173.73s-3.25-5.11-8.23-3.46-3.45,3.95-4.87,5.93a24.34,24.34,0,0,1-4.36,4.61c-2,1.81-5.69,5-5.69,5s4.52-3.24,5.46-4,2.54-1.67,3.5-2.34,5.86-5.09,6.47-5.5.21-.06,1,.05,1.15.42,1.79-.19.85-.74,1.9-.33A5.34,5.34,0,0,0,61,173.73Z"></path>
      <path class="cls-14" d="M52.74,170.27a11,11,0,0,0-1.64.68,2.71,2.71,0,0,1,.41.09,9.74,9.74,0,0,1,3.11-.64,1.48,1.48,0,0,1,1.42.87,1.14,1.14,0,0,1-.68,1.34,18.76,18.76,0,0,0-2,1.36c.48-.31.16,0,.93.11s1.15.42,1.79-.19.85-.74,1.9-.33a5.34,5.34,0,0,0,3,.17S57.72,168.62,52.74,170.27Z"></path>
      <path class="cls-40" d="M61,173.73A9.13,9.13,0,0,0,58.14,171a6.77,6.77,0,0,0-3.74-.91,9.82,9.82,0,0,0-3.69,1.23,3,3,0,0,0-1.37,1.22,5.13,5.13,0,0,0-.45,1.85,3.47,3.47,0,0,1-.82,1.93l-1.35,1.48c-.9,1-1.8,2-2.77,2.89a79.14,79.14,0,0,1-6.13,5.15l3-2.67a37.56,37.56,0,0,0,2.9-2.74c.91-1,1.82-1.93,2.7-2.93L47.73,176a3.06,3.06,0,0,0,.68-1.71,6,6,0,0,1,.52-2,3.57,3.57,0,0,1,1.58-1.38,9.64,9.64,0,0,1,3.86-1.21,7.07,7.07,0,0,1,3.89,1.08A9.28,9.28,0,0,1,61,173.73Z"></path>
      <path class="cls-16" d="M58.55,135.44s-2.34,1.88-1.25,3.65c0,0,.28,1.09,1.65.46s1.26.06,1.94.11a4.62,4.62,0,0,0,1.89-.62S62,134.87,58.55,135.44Z"></path>
      <path class="cls-14" d="M57.3,139.09s.28,1.09,1.65.46,1.26.06,1.94.11a4.62,4.62,0,0,0,1.89-.62,6,6,0,0,1-2.4-.56c-.52-.33.15-1.19-.34-1.29s-1.09,1.24-1.32,1.1c-.42-.26-.16-1.37-.54-1.39C57.14,136.84,56.88,138.41,57.3,139.09Z"></path>
      <path class="cls-26" d="M58.27,135.78s0-1,3.36-.57,3.26.17,3.26.17,2.34-1.94,3.31-.62,1.08,3.19,1.65,4.39,1.6,5.54,1,7.65-.62,2.17,0,3.19a11.46,11.46,0,0,1,1.2,5.94,13.93,13.93,0,0,1-1,4.17,11.5,11.5,0,0,0-.8,2.68,37.29,37.29,0,0,1-1.54,3.77s-.23-3.31-.57-5.31-.23-2.57-1.09-3.6-.57-1.82-.91-2.85-1.48-1.49-1.6-3.2.17-4.28-.8-5.76-2.39-7.42-3.08-8.62S59.24,135,58.27,135.78Z"></path>
      <path class="cls-16" d="M65.23,136.52a41.47,41.47,0,0,1,1.77,5,32.23,32.23,0,0,1,1,7.36c0,1.09,1.88,7.19,1.82,9.25s1,1.14,1.26-1.43.17-5-.57-6.11a3.8,3.8,0,0,1-.52-3.88c.69-1.42,0-5.59-.62-7.07S68.08,135,67.51,135,65.23,136.18,65.23,136.52Z"></path>
      <path class="cls-16" d="M65.52,138.41s-.58-1.54-1.37-1.83-3.66-1.31-3.37-.63A13.79,13.79,0,0,1,62,139.26a31.94,31.94,0,0,0,2.34,6.05c.92,1.94,1.32,2.74,1.2,4.8s.86,2.68,1.14,3.48,0,2,.58,3.14,1.42,2.34,1.42,2.34,1.14,1.31.69-2.28a33.12,33.12,0,0,0-1.72-6.74A66,66,0,0,0,65.52,138.41Z"></path>
      <path class="cls-19" d="M65.74,137.67a40.58,40.58,0,0,1,1.5,4.17,13.12,13.12,0,0,1,.48,2.19l.19,2.21.16,2.21c0,.37,0,.74.1,1.09s.13.71.22,1.07c.34,1.42.82,2.83,1.06,4.29-.36-1.43-.92-2.8-1.32-4.23a9.19,9.19,0,0,1-.36-2.21l-.19-2.2-.16-2.2a17.78,17.78,0,0,0-.43-2.15C66.62,140.49,66.19,139.07,65.74,137.67Z"></path>
      <path class="cls-39" d="M69.66,159.41c-.06,1-.21,2-.27,2.94a14.43,14.43,0,0,1-.53,2.92c.08-.49.12-1,.17-1.47l.13-1.47c.06-.49.09-1,.19-1.47S69.55,159.89,69.66,159.41Z"></path>
      <g class="cls-41">
        <path class="cls-18" d="M57.33,137a2.89,2.89,0,0,1,1-1.41,1,1,0,0,1,.89-.09A2.19,2.19,0,0,1,60,136a3.08,3.08,0,0,1,.88,1.53c.16.56.29,1.12.48,1.66a26.45,26.45,0,0,1,1.1,3.29,17.91,17.91,0,0,0,1.14,3.25l-.77-1.55a12.33,12.33,0,0,1-.56-1.65,32.37,32.37,0,0,0-1.15-3.26c-.41-1.09-.42-2.34-1.25-3.13a1.2,1.2,0,0,0-1.45-.42A2.86,2.86,0,0,0,57.33,137Z"></path>
      </g>
      <path class="cls-26" d="M57.78,77.11s2.62-4.21,2.89-4.71,1.95-2.81,3.45-2.67a6,6,0,0,0,3.76-.41c1.36-.68,1.22-1.36,2.31-1.68a6.21,6.21,0,0,1,5.43,1.68,19.88,19.88,0,0,0,4.62,2.85,13.34,13.34,0,0,1,4.21,5.35,7.62,7.62,0,0,1-2.35-.77c-.86-.55-6-2.72-6.43-3.17S71,70.27,69.19,70.45a9.54,9.54,0,0,0-4.76,2.67c-.81.86-3.08,3.72-3.08,3.72S58.77,77.7,57.78,77.11Z"></path>
      <path class="cls-16" d="M59.23,76.36a20.36,20.36,0,0,0,4.6-3.64S62.49,77.31,59.23,76.36Z"></path>
      <path class="cls-16" d="M78.61,71.63a6.77,6.77,0,0,1,3.17,2.22,23.27,23.27,0,0,1,2.36,3.48,21.14,21.14,0,0,1-3.4-1.4c-.77-.54-2.67-1.9-3-2.17s2.35,1.58,2.67,1S80.74,73.53,78.61,71.63Z"></path>
      <path class="cls-16" d="M58.05,76.84l.25-.43,2.37-4s-1,2-.09,1.86a6.65,6.65,0,0,0,2.27-1.36l.81-.64C63.81,72.46,59.55,75.9,58.05,76.84Z"></path>
      <path class="cls-14" d="M56.13,78.5s.21-2.44,2.45-2,3.16.92,4.59-2.54,4.89-6.22,7.44-5.81,5.6,4.89,6.52,5.6a47.63,47.63,0,0,0,6.42,3.36,4.82,4.82,0,0,1,4,4.28s.31.51,1.53,2.35.51,5.4.61,6.72-1.22,3.06-1.32,3.88.51-4-.51-5.81S86.2,85.74,86,83.6s-.2-4.08-1.83-5.51-9.07-4.28-9.07-4.28S70.2,71,65.2,73.41c0,0-3.66,1.42-5.5,7C59.7,80.44,59.9,75.34,56.13,78.5Z"></path>
      <path class="cls-16" d="M67.62,72a3.23,3.23,0,0,1-1.26.3c-.66,0-1.25-.19-.3-1.27,1.64-1.86,3-2.81,4.62-2.31s4.17,3.12,3.45,3.35S69.34,71.26,67.62,72Z"></path>
      <path class="cls-8" d="M59.71,238.67a1.17,1.17,0,0,0-1.11-.4c-.62.19-.86.67-.75.85a1.5,1.5,0,0,0,.22.23c.16.15.48-.28.5-.28Z"></path>
      <path class="cls-42" d="M60,239.41s-.19-.83-.5-.84-.67-.06-.67-.06l-.09.15s.31.55.44.59.36.11.41.13A3.58,3.58,0,0,0,60,239.41Z"></path>
      <path class="cls-10" d="M60,239.52c0-.07.08-.27-.12-.32a3.22,3.22,0,0,0-.41-.09s-.5.38-.6.44-.17,0,.13.14.28.16.55.13A.81.81,0,0,0,60,239.52Z"></path>
      <path class="cls-11" d="M59.47,239.11a4.6,4.6,0,0,0-.37.36c-.14.17-.17.23-.35.14s-.63-.16-.75-.33-.12-.16,0-.37a.94.94,0,0,1,.59-.36.51.51,0,0,1,.59.13A1.39,1.39,0,0,1,59.47,239.11Z"></path>
      <path class="cls-8" d="M44,233a1.69,1.69,0,0,0-1.71-.24c-.82.46-1,1.23-.82,1.45a3.51,3.51,0,0,0,.4.26c.26.17.6-.54.62-.55Z"></path>
      <path class="cls-42" d="M44.67,233.93s-.53-1.15-1-1.06-1,.12-1,.12l-.08.24s.61.7.81.72l.64.05A4.14,4.14,0,0,0,44.67,233.93Z"></path>
      <path class="cls-10" d="M44.67,234.08c0-.11,0-.4-.28-.42a3.58,3.58,0,0,0-.61,0s-.6.7-.73.81-.22.13.23.16.45.15.82,0A1.18,1.18,0,0,0,44.67,234.08Z"></path>
      <path class="cls-11" d="M43.78,233.66a5.1,5.1,0,0,0-.42.63c-.15.29-.18.38-.46.3s-1,0-1.18-.24-.21-.19-.07-.54a1.36,1.36,0,0,1,.74-.69.74.74,0,0,1,.88,0A2,2,0,0,1,43.78,233.66Z"></path>
      <path class="cls-8" d="M55.09,230.69s-3.54-1.77-6,.39-2.6,4.93-1.75,5.53a11.38,11.38,0,0,0,1.55.61c1,.38,1.65-2.28,1.71-2.32S55.09,230.69,55.09,230.69Z"></path>
      <path class="cls-42" d="M58.11,233.48S55.48,230,54,230.58s-3.25,1.12-3.25,1.12l-.1.89s2.59,1.92,3.27,1.86,1.91-.28,2.22-.28A16.26,16.26,0,0,0,58.11,233.48Z"></path>
      <path class="cls-10" d="M58.21,234c0-.39-.18-1.4-1.24-1.26a15.29,15.29,0,0,0-2.08.45S53.34,236,53,236.5s-.66.59.88.39,1.66.16,2.82-.54A4,4,0,0,0,58.21,234Z"></path>
      <path class="cls-11" d="M54.89,233.21a17.61,17.61,0,0,0-1,2.44c-.32,1.11-.33,1.42-1.34,1.37s-3.29.6-4.2,0-.87-.49-.61-1.78a4.64,4.64,0,0,1,2-2.9,2.61,2.61,0,0,1,3-.63A6.76,6.76,0,0,1,54.89,233.21Z"></path>
      <path class="cls-8" d="M68.7,231.82s-2-2.77-4.81-2.09-4,2.78-3.54,3.58a8.77,8.77,0,0,0,.95,1.1c.64.7,2.19-1.11,2.25-1.11S68.7,231.82,68.7,231.82Z"></path>
      <path class="cls-42" d="M69.93,235.19s-.63-3.77-2-3.89-3-.43-3-.43l-.43.66s1.24,2.51,1.79,2.74,1.59.54,1.82.66A14.76,14.76,0,0,0,69.93,235.19Z"></path>
      <path class="cls-10" d="M69.8,235.64c.13-.32.41-1.15-.46-1.47a13.33,13.33,0,0,0-1.79-.48s-2.32,1.56-2.77,1.8-.75.19.52.65,1.22.78,2.4.7A3.49,3.49,0,0,0,69.8,235.64Z"></path>
      <path class="cls-11" d="M67.55,233.69a15.45,15.45,0,0,0-1.72,1.51c-.69.73-.82,1-1.59.52s-2.78-.84-3.25-1.65-.48-.72.23-1.62A4.08,4.08,0,0,1,63.93,231a2.28,2.28,0,0,1,2.57.7A6,6,0,0,1,67.55,233.69Z"></path>
      <path class="cls-8" d="M59.22,233.26s-2.92-2.26-5.58-.73-3.27,4.05-2.6,4.75a12.09,12.09,0,0,0,1.31.85c.87.53,1.93-1.79,2-1.82S59.22,233.26,59.22,233.26Z"></path>
      <path class="cls-42" d="M61.49,236.37s-1.77-3.7-3.26-3.41a31.92,31.92,0,0,1-3.17.44l-.25.8s2,2.23,2.66,2.3,1.8.08,2.08.14A14.61,14.61,0,0,0,61.49,236.37Z"></path>
      <path class="cls-10" d="M61.49,236.88c0-.37.08-1.32-.91-1.38a15.19,15.19,0,0,0-2,0s-1.93,2.3-2.33,2.68-.71.42.73.51,1.5.45,2.69,0A3.74,3.74,0,0,0,61.49,236.88Z"></path>
      <path class="cls-11" d="M58.59,235.53a16.07,16.07,0,0,0-1.33,2.07c-.49,1-.56,1.24-1.48,1s-3.12-.05-3.85-.74-.71-.61-.24-1.75a4.41,4.41,0,0,1,2.36-2.29,2.45,2.45,0,0,1,2.86,0A6.41,6.41,0,0,1,58.59,235.53Z"></path>
      <path class="cls-8" d="M74.46,238.39a1.77,1.77,0,0,0,1.62-.8c.44-.88.15-1.67-.15-1.74-.09,0-.34,0-.5,0-.33,0-.2.83-.21.84S74.46,238.39,74.46,238.39Z"></path>
      <path class="cls-42" d="M73.3,238s1.13.67,1.48.33a9.25,9.25,0,0,1,.77-.69l-.08-.26a3.78,3.78,0,0,0-1.12-.14l-.58.34A3.49,3.49,0,0,0,73.3,238Z"></path>
      <path class="cls-10" d="M73.21,237.83c.05.1.21.37.48.21a4.13,4.13,0,0,0,.53-.37s.11-1,.15-1.13.11-.24-.29,0-.48.15-.72.48A1.15,1.15,0,0,0,73.21,237.83Z"></path>
      <path class="cls-11" d="M74.22,237.67a5.21,5.21,0,0,0,0-.79c0-.34-.07-.43.21-.53s.85-.55,1.17-.49.29,0,.37.42a1.4,1.4,0,0,1-.22,1,.79.79,0,0,1-.76.52A2.08,2.08,0,0,1,74.22,237.67Z"></path>
      <path class="cls-8" d="M35.44,240.43a1.78,1.78,0,0,0,1.63-.81c.44-.88.15-1.66-.15-1.73a3,3,0,0,0-.51,0c-.32,0-.19.82-.2.84S35.44,240.43,35.44,240.43Z"></path>
      <path class="cls-42" d="M34.28,240s1.14.67,1.48.33.77-.68.77-.68l-.07-.26a3.47,3.47,0,0,0-1.12-.14c-.19.09-.5.3-.58.33A4.6,4.6,0,0,0,34.28,240Z"></path>
      <path class="cls-10" d="M34.19,239.86c.06.11.21.37.49.21a4.71,4.71,0,0,0,.53-.36s.1-1,.14-1.14.12-.24-.28,0-.48.14-.73.47A1.21,1.21,0,0,0,34.19,239.86Z"></path>
      <path class="cls-11" d="M35.21,239.71a5.23,5.23,0,0,0,0-.79c0-.35-.08-.44.21-.54s.85-.54,1.16-.49.3,0,.38.42a1.44,1.44,0,0,1-.22,1,.8.8,0,0,1-.76.52A2.1,2.1,0,0,1,35.21,239.71Z"></path>
      <path class="cls-8" d="M46.59,239a2.26,2.26,0,0,0,2.14-.88c.63-1.08.34-2.11,0-2.22a3.84,3.84,0,0,0-.64,0c-.41,0-.32,1-.33,1.05S46.59,239,46.59,239Z"></path>
      <path class="cls-42" d="M45.15,238.38s1.38,1,1.85.55,1-.81,1-.81l-.07-.33a4.72,4.72,0,0,0-1.41-.28c-.25.11-.67.34-.77.38A5,5,0,0,0,45.15,238.38Z"></path>
      <path class="cls-10" d="M45.05,238.2c.06.13.23.48.6.3a5.3,5.3,0,0,0,.7-.42s.22-1.21.29-1.43.16-.29-.37,0-.62.15-1,.54A1.52,1.52,0,0,0,45.05,238.2Z"></path>
      <path class="cls-11" d="M46.35,238.08a5.75,5.75,0,0,0,0-1c0-.45,0-.56.33-.67s1.12-.62,1.52-.52.37.07.44.57a1.84,1.84,0,0,1-.37,1.31,1,1,0,0,1-1,.59A2.6,2.6,0,0,1,46.35,238.08Z"></path>
      <path class="cls-8" d="M54.72,237.44a1.44,1.44,0,0,1,1.32-.2c.65.3.82.82.67,1s-.21.13-.3.19-.48-.36-.5-.36Z"></path>
      <path class="cls-42" d="M54.21,238.11s.39-.79.74-.74.76.06.76.06l.07.17s-.46.49-.61.51l-.49,0A2.84,2.84,0,0,1,54.21,238.11Z"></path>
      <path class="cls-10" d="M54.22,238.22c0-.08,0-.27.2-.3a4.4,4.4,0,0,1,.48,0s.48.47.58.54.17.09-.17.12-.35.11-.64,0A.88.88,0,0,1,54.22,238.22Z"></path>
      <path class="cls-11" d="M54.9,237.91a3.73,3.73,0,0,1,.33.42c.13.2.15.26.37.2s.74,0,.9-.19.17-.13,0-.36a1,1,0,0,0-.58-.47.67.67,0,0,0-.68,0A1.37,1.37,0,0,0,54.9,237.91Z"></path>
      <path class="cls-8" d="M66.66,234.08s-2.75-2-5.18-.56-2.94,3.8-2.31,4.44a10.66,10.66,0,0,0,1.23.76c.81.47,1.75-1.7,1.8-1.72S66.66,234.08,66.66,234.08Z"></path>
      <path class="cls-42" d="M68.82,236.91s-1.71-3.38-3.08-3.08-2.93.46-2.93.46l-.22.75s1.92,2,2.51,2.07,1.67,0,1.93.09A13.67,13.67,0,0,0,68.82,236.91Z"></path>
      <path class="cls-10" d="M68.83,237.38c0-.33,0-1.21-.87-1.25a13.91,13.91,0,0,0-1.84.06s-1.74,2.17-2.1,2.53-.66.4.68.46,1.4.38,2.49,0A3.44,3.44,0,0,0,68.83,237.38Z"></path>
      <path class="cls-11" d="M66.12,236.19a16.15,16.15,0,0,0-1.19,1.94c-.44.9-.5,1.16-1.35,1s-2.89,0-3.58-.6-.66-.55-.25-1.61,1-1.49,2.14-2.17a2.29,2.29,0,0,1,2.65-.09A5.86,5.86,0,0,1,66.12,236.19Z"></path>
      <path class="cls-8" d="M52,237.26s-2.26-.41-3.28,1.19-.64,3.16-.08,3.35a7.14,7.14,0,0,0,1,.09c.63.05.55-1.53.58-1.56S52,237.26,52,237.26Z"></path>
      <path class="cls-42" d="M54.12,238.32s-2-1.52-2.76-.94-1.62,1.14-1.62,1.14l.09.51a7,7,0,0,0,2.11.51c.37-.14,1-.47,1.18-.52A8.7,8.7,0,0,0,54.12,238.32Z"></path>
      <path class="cls-10" d="M54.26,238.6c-.08-.21-.33-.74-.89-.49a7.83,7.83,0,0,0-1.09.58s-.4,1.81-.51,2.13-.28.44.54.08.95-.18,1.49-.76A2.32,2.32,0,0,0,54.26,238.6Z"></path>
      <path class="cls-11" d="M52.28,238.69a11.06,11.06,0,0,0-.14,1.51c0,.67,0,.85-.53,1s-1.72.87-2.32.69-.56-.13-.63-.89a2.7,2.7,0,0,1,.65-1.94,1.52,1.52,0,0,1,1.56-.83A4,4,0,0,1,52.28,238.69Z"></path>
    </g>
  </g>
</svg>
