<?xml version="1.0" encoding="UTF-8"?>
<svg xmlns="http://www.w3.org/2000/svg" xmlns:xlink="http://www.w3.org/1999/xlink" viewBox="0 0 152.93 407.16">
  <defs>
    <style>.cls-1{fill:none;}.cls-2{fill:#8e6848;}.cls-3{clip-path:url(#clip-path);}.cls-4{fill:url(#Безымянный_градиент_2);}.cls-5{fill:#713e21;}.cls-6{fill:#3d271f;}.cls-7{fill:#69391e;}.cls-8{fill:#6b472f;}.cls-9{fill:#5c3624;}.cls-10{fill:#795135;}.cls-11{fill:#9a734f;}.cls-12{fill:#f9dec0;}.cls-13{fill:#85563a;}.cls-14{fill:#efdfc3;}.cls-15{fill:url(#Безымянный_градиент_50);}.cls-16{fill:url(#Безымянный_градиент_53);}.cls-17{fill:url(#Безымянный_градиент_31);}.cls-18{fill:url(#Безымянный_градиент_53-2);}.cls-19{fill:url(#Безымянный_градиент_31-2);}.cls-20{fill:url(#Безымянный_градиент_53-3);}.cls-21{fill:url(#Безымянный_градиент_37);}.cls-22{fill:url(#Безымянный_градиент_53-4);}.cls-23{fill:url(#Безымянный_градиент_37-2);}.cls-24{fill:url(#Безымянный_градиент_53-5);}.cls-25{fill:url(#Безымянный_градиент_37-3);}.cls-26{fill:url(#Безымянный_градиент_53-6);}.cls-27{fill:url(#Безымянный_градиент_37-4);}.cls-28{fill:url(#Безымянный_градиент_53-7);}.cls-29{fill:url(#Безымянный_градиент_37-5);}.cls-30{opacity:0.75;}.cls-31{fill:#8e9d54;}.cls-32{fill:url(#Безымянный_градиент_53-8);}.cls-33{fill:url(#Безымянный_градиент_31-3);}.cls-34{fill:url(#Безымянный_градиент_53-9);}.cls-35{fill:url(#Безымянный_градиент_31-4);}.cls-36{fill:url(#Безымянный_градиент_53-10);}.cls-37{fill:url(#Безымянный_градиент_37-6);}.cls-38{fill:url(#Безымянный_градиент_53-11);}.cls-39{fill:url(#Безымянный_градиент_37-7);}.cls-40{fill:url(#Безымянный_градиент_53-12);}.cls-41{fill:url(#Безымянный_градиент_37-8);}.cls-42{fill:url(#Безымянный_градиент_53-13);}.cls-43{fill:url(#Безымянный_градиент_37-9);}.cls-44{fill:url(#Безымянный_градиент_53-14);}.cls-45{fill:url(#Безымянный_градиент_37-10);}.cls-46{fill:url(#Безымянный_градиент_53-15);}.cls-47{fill:url(#Безымянный_градиент_33);}.cls-48{fill:url(#Безымянный_градиент_52);}.cls-49{fill:url(#Безымянный_градиент_33-2);}.cls-50{fill:url(#Безымянный_градиент_52-2);}.cls-51{fill:url(#Безымянный_градиент_33-3);}.cls-52{fill:url(#Безымянный_градиент_52-3);}.cls-53{fill:url(#Безымянный_градиент_32);}.cls-54{fill:url(#Безымянный_градиент_52-4);}.cls-55{fill:url(#Безымянный_градиент_31-5);}.cls-56{fill:url(#Безымянный_градиент_52-5);}.cls-57{fill:url(#Безымянный_градиент_31-6);}.cls-58{fill:url(#Безымянный_градиент_52-6);}.cls-59{fill:url(#Безымянный_градиент_31-7);}.cls-60{fill:url(#Безымянный_градиент_52-7);}.cls-61{fill:url(#Безымянный_градиент_31-8);}.cls-62{fill:#517731;}.cls-63{fill:#658933;}.cls-64{fill:url(#Безымянный_градиент_49);}.cls-65{fill:url(#Безымянный_градиент_49-2);}.cls-66{fill:url(#Безымянный_градиент_49-3);}.cls-67{fill:#6b482f;}</style>
    <clipPath id="clip-path">
      <polygon class="cls-1" points="10.73 367.33 80.12 400 144.32 367.49 77.58 339.21 10.73 367.33"></polygon>
    </clipPath>
    <linearGradient id="Безымянный_градиент_2" x1="-1082.79" y1="-2766.96" x2="-1078.9" y2="-2766.96" gradientTransform="matrix(34.36, 0, 0, -34.36, 37194.84, -94693.26)" gradientUnits="userSpaceOnUse">
      <stop offset="0" stop-color="#9b714e"></stop>
      <stop offset="0.38" stop-color="#9b714e"></stop>
      <stop offset="0.89" stop-color="#764528"></stop>
      <stop offset="1" stop-color="#6e3c20"></stop>
    </linearGradient>
    <linearGradient id="Безымянный_градиент_50" x1="82.85" y1="166.43" x2="86.12" y2="166.43" gradientUnits="userSpaceOnUse">
      <stop offset="0.18" stop-color="#44682f"></stop>
      <stop offset="0.63" stop-color="#bee070"></stop>
      <stop offset="0.99" stop-color="#f9f2d7"></stop>
    </linearGradient>
    <linearGradient id="Безымянный_градиент_53" x1="-1702.24" y1="-618.36" x2="-1699.5" y2="-627.11" gradientTransform="matrix(-0.51, -0.86, -0.86, 0.51, -1318.5, -1111.73)" gradientUnits="userSpaceOnUse">
      <stop offset="0" stop-color="#658933"></stop>
      <stop offset="0.33" stop-color="#89bd2d"></stop>
      <stop offset="0.7" stop-color="#f9f2d7"></stop>
    </linearGradient>
    <radialGradient id="Безымянный_градиент_31" cx="-1700.15" cy="-622.82" r="3.47" gradientTransform="matrix(0.46, -0.89, -0.49, -0.25, 563.45, -1636.12)" gradientUnits="userSpaceOnUse">
      <stop offset="0.19" stop-color="#f9f2d7"></stop>
      <stop offset="0.26" stop-color="#f8f0d3" stop-opacity="0.96"></stop>
      <stop offset="0.37" stop-color="#f5e9c6" stop-opacity="0.87"></stop>
      <stop offset="0.52" stop-color="#f0dfb3" stop-opacity="0.71"></stop>
      <stop offset="0.68" stop-color="#e9d097" stop-opacity="0.5"></stop>
      <stop offset="0.86" stop-color="#e1be74" stop-opacity="0.22"></stop>
      <stop offset="1" stop-color="#daaf58" stop-opacity="0"></stop>
    </radialGradient>
    <linearGradient id="Безымянный_градиент_53-2" x1="-1402.33" y1="-365.09" x2="-1398.85" y2="-376.42" gradientTransform="matrix(-0.61, -0.79, -0.79, 0.61, -1057.19, -851.98)" xlink:href="#Безымянный_градиент_53"></linearGradient>
    <radialGradient id="Безымянный_градиент_31-2" cx="-1400.85" cy="-370" r="3.85" gradientTransform="matrix(0.42, -0.91, -0.41, -0.19, 519.8, -1305.83)" xlink:href="#Безымянный_градиент_31"></radialGradient>
    <linearGradient id="Безымянный_градиент_53-3" x1="-980.11" y1="-135.21" x2="-978.56" y2="-147.85" gradientTransform="matrix(-0.71, -0.7, -0.7, 0.71, -708.63, -544.28)" xlink:href="#Безымянный_градиент_53"></linearGradient>
    <radialGradient id="Безымянный_градиент_37" cx="-979.26" cy="-140.15" r="4.41" gradientTransform="matrix(0.45, -0.9, -0.48, -0.24, 455.74, -865.94)" gradientUnits="userSpaceOnUse">
      <stop offset="0.19" stop-color="#f9f2d7"></stop>
      <stop offset="0.25" stop-color="#f8f0d3" stop-opacity="0.96"></stop>
      <stop offset="0.34" stop-color="#f5e9c6" stop-opacity="0.87"></stop>
      <stop offset="0.46" stop-color="#f0dfb3" stop-opacity="0.71"></stop>
      <stop offset="0.59" stop-color="#e9d097" stop-opacity="0.5"></stop>
      <stop offset="0.74" stop-color="#e1be74" stop-opacity="0.22"></stop>
      <stop offset="0.86" stop-color="#daaf58" stop-opacity="0"></stop>
    </radialGradient>
    <linearGradient id="Безымянный_градиент_53-4" x1="-252.17" y1="145.61" x2="-251.52" y2="135.98" gradientTransform="matrix(-0.85, -0.52, -0.52, 0.85, -54.99, -200.69)" xlink:href="#Безымянный_градиент_53"></linearGradient>
    <radialGradient id="Безымянный_градиент_37-2" cx="-251.7" cy="140.71" r="4.18" gradientTransform="matrix(0.49, -0.87, -0.5, -0.28, 280.4, -129.7)" xlink:href="#Безымянный_градиент_37"></radialGradient>
    <linearGradient id="Безымянный_градиент_53-5" x1="179" y1="215.46" x2="177.56" y2="201.37" gradientTransform="matrix(-0.92, -0.4, -0.4, 0.92, 334.32, -61.59)" xlink:href="#Безымянный_градиент_53"></linearGradient>
    <radialGradient id="Безымянный_градиент_37-3" cx="178.22" cy="208.69" r="4.31" gradientTransform="matrix(0.49, -0.87, -0.44, -0.24, 91.91, 264.32)" xlink:href="#Безымянный_градиент_37"></radialGradient>
    <linearGradient id="Безымянный_градиент_53-6" x1="854.57" y1="216.13" x2="850.97" y2="205.09" gradientTransform="matrix(-0.98, -0.21, -0.21, 0.98, 964.47, 37.5)" xlink:href="#Безымянный_градиент_53"></linearGradient>
    <radialGradient id="Безымянный_градиент_37-4" cx="852.75" cy="210.28" r="4.04" gradientTransform="matrix(0.47, -0.88, -0.58, -0.31, -195.68, 882.42)" xlink:href="#Безымянный_градиент_37"></radialGradient>
    <linearGradient id="Безымянный_градиент_53-7" x1="1050.96" y1="251.48" x2="1044" y2="240" gradientTransform="matrix(-0.7, -0.14, -0.19, 0.97, 862.79, -18.9)" xlink:href="#Безымянный_градиент_53"></linearGradient>
    <radialGradient id="Безымянный_градиент_37-5" cx="1048" cy="246.63" r="4.7" gradientTransform="matrix(0.46, -0.83, -0.39, -0.36, -295.85, 1036.56)" xlink:href="#Безымянный_градиент_37"></radialGradient>
    <linearGradient id="Безымянный_градиент_53-8" x1="-2438.41" y1="-1851.16" x2="-2435.66" y2="-1859.91" gradientTransform="translate(2921.56 -1111.73) rotate(-59.25)" xlink:href="#Безымянный_градиент_53"></linearGradient>
    <radialGradient id="Безымянный_градиент_31-3" cx="-2436.32" cy="-1855.62" r="3.47" gradientTransform="matrix(-0.46, -0.89, 0.49, -0.25, -133.54, -2598.4)" xlink:href="#Безымянный_градиент_31"></radialGradient>
    <linearGradient id="Безымянный_градиент_53-9" x1="-2275.47" y1="-1504.99" x2="-2271.99" y2="-1516.32" gradientTransform="translate(2660.25 -851.98) rotate(-52.65)" xlink:href="#Безымянный_градиент_53"></linearGradient>
    <radialGradient id="Безымянный_градиент_31-4" cx="-2273.99" cy="-1509.9" r="3.85" gradientTransform="matrix(-0.42, -0.91, 0.41, -0.19, -246.62, -2313.45)" xlink:href="#Безымянный_градиент_31"></radialGradient>
    <linearGradient id="Безымянный_градиент_53-10" x1="-2003.41" y1="-1142.49" x2="-2001.85" y2="-1155.13" gradientTransform="translate(2311.69 -544.28) rotate(-44.64)" xlink:href="#Безымянный_градиент_53"></linearGradient>
    <radialGradient id="Безымянный_градиент_37-6" cx="-2002.56" cy="-1147.43" r="4.41" gradientTransform="matrix(-0.45, -0.9, 0.48, -0.24, -264.07, -2018.49)" xlink:href="#Безымянный_градиент_37"></radialGradient>
    <linearGradient id="Безымянный_градиент_53-11" x1="-1479.69" y1="-599.35" x2="-1479.03" y2="-608.98" gradientTransform="matrix(0.85, -0.52, 0.52, 0.85, 1658.05, -200.69)" xlink:href="#Безымянный_градиент_53"></linearGradient>
    <radialGradient id="Безымянный_градиент_37-7" cx="-1479.22" cy="-604.25" r="4.18" gradientTransform="matrix(-0.49, -0.87, 0.5, -0.28, -336.92, -1408.45)" xlink:href="#Безымянный_градиент_37"></radialGradient>
    <linearGradient id="Безымянный_градиент_53-12" x1="-1136.17" y1="-360.82" x2="-1137.6" y2="-374.91" gradientTransform="matrix(0.92, -0.4, 0.4, 0.92, 1268.74, -61.59)" xlink:href="#Безымянный_градиент_53"></linearGradient>
    <radialGradient id="Безымянный_градиент_37-8" cx="-1136.94" cy="-367.59" r="4.31" gradientTransform="matrix(-0.49, -0.87, 0.44, -0.24, -312.21, -1022.95)" xlink:href="#Безымянный_градиент_37"></radialGradient>
    <linearGradient id="Безымянный_градиент_53-13" x1="-550.47" y1="-79.84" x2="-554.08" y2="-90.88" gradientTransform="matrix(0.98, -0.21, 0.21, 0.98, 638.59, 37.5)" xlink:href="#Безымянный_градиент_53"></linearGradient>
    <radialGradient id="Безымянный_градиент_37-9" cx="-552.29" cy="-85.69" r="4.04" gradientTransform="translate(-131.48 -444.63) rotate(-118.26) scale(1 0.66)" xlink:href="#Безымянный_градиент_37"></radialGradient>
    <linearGradient id="Безымянный_градиент_53-14" x1="-935.71" y1="-31.4" x2="-942.68" y2="-42.88" gradientTransform="matrix(0.7, -0.14, 0.19, 0.97, 740.27, -18.9)" xlink:href="#Безымянный_градиент_53"></linearGradient>
    <radialGradient id="Безымянный_градиент_37-10" cx="-938.67" cy="-36.25" r="4.7" gradientTransform="matrix(-0.46, -0.83, 0.39, -0.36, -333.08, -719.21)" xlink:href="#Безымянный_градиент_37"></radialGradient>
    <linearGradient id="Безымянный_градиент_53-15" x1="-2668.17" y1="-2622.93" x2="-2658.2" y2="-2625.57" gradientTransform="matrix(0.29, -0.96, 0.96, 0.29, 3363.6, -1767.1)" xlink:href="#Безымянный_градиент_53"></linearGradient>
    <radialGradient id="Безымянный_градиент_33" cx="-2661.8" cy="-2624.88" r="3.54" gradientTransform="matrix(-0.07, -1, 0.58, -0.04, 1403.57, -2736.31)" gradientUnits="userSpaceOnUse">
      <stop offset="0.19" stop-color="#f9f2d7"></stop>
      <stop offset="0.25" stop-color="#f8f0d3" stop-opacity="0.96"></stop>
      <stop offset="0.34" stop-color="#f5e9c6" stop-opacity="0.87"></stop>
      <stop offset="0.45" stop-color="#f0dfb3" stop-opacity="0.71"></stop>
      <stop offset="0.58" stop-color="#e9d097" stop-opacity="0.5"></stop>
      <stop offset="0.73" stop-color="#e1be74" stop-opacity="0.22"></stop>
      <stop offset="0.84" stop-color="#daaf58" stop-opacity="0"></stop>
    </radialGradient>
    <radialGradient id="Безымянный_градиент_52" cx="-2655" cy="-3115.4" r="6.95" gradientTransform="translate(3553.18 -2137.71) rotate(-81.66)" xlink:href="#Безымянный_градиент_53"></radialGradient>
    <radialGradient id="Безымянный_градиент_33-2" cx="-2652.02" cy="-3114.94" r="5.22" gradientTransform="matrix(0.28, -0.96, 0.36, 0.1, 1948.8, -2191.11)" xlink:href="#Безымянный_градиент_33"></radialGradient>
    <radialGradient id="Безымянный_градиент_52-2" cx="-2456.47" cy="-1988.5" r="5.66" gradientTransform="matrix(0.48, -0.88, 0.88, 0.48, 3010.54, -1157.91)" xlink:href="#Безымянный_градиент_53"></radialGradient>
    <radialGradient id="Безымянный_градиент_33-3" cx="-2453.32" cy="-1988.3" r="5.66" gradientTransform="matrix(0.58, -0.81, 0.29, 0.21, 2098.96, -1538.43)" xlink:href="#Безымянный_градиент_33"></radialGradient>
    <radialGradient id="Безымянный_градиент_52-3" cx="-2337.02" cy="-1726.51" fx="-2344.8991345766417" r="7.88" gradientTransform="translate(2816.17 -951.48) rotate(-56.55)" xlink:href="#Безымянный_градиент_53"></radialGradient>
    <radialGradient id="Безымянный_градиент_32" cx="-2336.08" cy="-1727.25" r="7.88" gradientTransform="matrix(0.55, -0.83, 0.3, 0.2, 1896.7, -1558.91)" gradientUnits="userSpaceOnUse">
      <stop offset="0.19" stop-color="#f9f2d7"></stop>
      <stop offset="0.23" stop-color="#f8f0d3" stop-opacity="0.96"></stop>
      <stop offset="0.28" stop-color="#f5e9c6" stop-opacity="0.87"></stop>
      <stop offset="0.36" stop-color="#f0dfb3" stop-opacity="0.71"></stop>
      <stop offset="0.44" stop-color="#e9d097" stop-opacity="0.5"></stop>
      <stop offset="0.54" stop-color="#e1be74" stop-opacity="0.22"></stop>
      <stop offset="0.61" stop-color="#daaf58" stop-opacity="0"></stop>
    </radialGradient>
    <radialGradient id="Безымянный_градиент_52-4" cx="-2106.75" cy="-1558.82" r="9.52" gradientTransform="matrix(0.65, -0.79, 0.84, 0.7, 2772.9, -514.32)" xlink:href="#Безымянный_градиент_53"></radialGradient>
    <radialGradient id="Безымянный_градиент_31-5" cx="-2103.37" cy="-1559.67" r="4.18" gradientTransform="matrix(0.55, -0.86, 0.5, 0.33, 2031.81, -1238.62)" xlink:href="#Безымянный_градиент_31"></radialGradient>
    <radialGradient id="Безымянный_градиент_52-5" cx="-1979.18" cy="-1150.31" r="11" gradientTransform="translate(2301.61 -511.38) rotate(-44.72)" xlink:href="#Безымянный_градиент_53"></radialGradient>
    <radialGradient id="Безымянный_градиент_31-6" cx="-1975.21" cy="-1151.84" r="4.03" gradientTransform="translate(1628.3 -1295.4) rotate(-57.07) scale(1 0.48)" xlink:href="#Безымянный_градиент_31"></radialGradient>
    <radialGradient id="Безымянный_градиент_52-6" cx="-1574.81" cy="-711.58" r="12.25" gradientTransform="matrix(0.83, -0.56, 0.56, 0.83, 1787.6, -224.44)" xlink:href="#Безымянный_градиент_53"></radialGradient>
    <radialGradient id="Безымянный_градиент_31-7" cx="-1570.7" cy="-713.76" r="2.86" gradientTransform="translate(1348.23 -965.56) rotate(-54.99) scale(1 0.62)" xlink:href="#Безымянный_градиент_31"></radialGradient>
    <radialGradient id="Безымянный_градиент_52-7" cx="-1579.38" cy="-704.86" r="12.25" gradientTransform="matrix(0.83, -0.56, 0.56, 0.83, 1787.6, -224.44)" xlink:href="#Безымянный_градиент_53"></radialGradient>
    <radialGradient id="Безымянный_градиент_31-8" cx="-1574.95" cy="-707.39" r="2.86" gradientTransform="translate(1347.53 -963.62) rotate(-54.99) scale(1 0.62)" xlink:href="#Безымянный_градиент_31"></radialGradient>
    <linearGradient id="Безымянный_градиент_49" x1="80.31" y1="124.98" x2="99.84" y2="125.38" gradientUnits="userSpaceOnUse">
      <stop offset="0.18" stop-color="#44682f"></stop>
      <stop offset="0.43" stop-color="#bee070"></stop>
      <stop offset="0.7" stop-color="#f9f2d7"></stop>
    </linearGradient>
    <linearGradient id="Безымянный_градиент_49-2" x1="81.93" y1="171.51" x2="91.66" y2="171.34" xlink:href="#Безымянный_градиент_49"></linearGradient>
    <linearGradient id="Безымянный_градиент_49-3" x1="79.08" y1="234.59" x2="98.61" y2="234.99" xlink:href="#Безымянный_градиент_49"></linearGradient>
  </defs>
  <g id="Слой_2" data-name="Слой 2">
    <g id="Слой_1-2" data-name="Слой 1">
      <path class="cls-2" d="M80.12,308.12s13.37,15.69,23.69,16.34S149.38,314,149.38,314l3.55-36.71L80.12,251.56Z"></path>
      <path class="cls-2" d="M0,274.64l7.26,47.88s25.81,3.87,30.32,2.58,25.16-9,31-9,11.57-7.95,11.57-7.95V251.56Z"></path>
      <g class="cls-3">
        <rect class="cls-4" x="43.59" y="301.27" width="67.87" height="136.66" transform="translate(-295.71 427.17) rotate(-86.92)"></rect>
      </g>
      <path class="cls-5" d="M10.73,367.33,7.26,322.52s32.9-.64,41.94-5.16,30.92-9.25,30.92-9.25l-2.54,31.1Z"></path>
      <path class="cls-6" d="M57.62,325.3A11.71,11.71,0,0,0,53.68,323l0,0s-5.25-1.57-8.12,2-2.37,7.35-1.07,8a15.33,15.33,0,0,0,2.27.48l.12-.06c1.52,0,3.71-1,4.88-1.11a2.49,2.49,0,0,0,.84-.21l.9-.27c2.06-.64,2.31-.17,3.73-1.41a5.55,5.55,0,0,0,1.51-3.54l-.29-.69,0,0-.06-.05a1.41,1.41,0,0,0-.81-.7"></path>
      <path class="cls-6" d="M29.45,329.92a15.19,15.19,0,0,0-5.58,1.85v0s-6,3.74-5,9.5S24,349.74,25.65,349A19.33,19.33,0,0,0,28,347.23l0-.18c1.28-1.47,2.22-4.39,3.07-5.63a2.91,2.91,0,0,0,.49-1c.15-.28.29-.59.52-1.1,1.12-2.52,1.78-2.38,1.8-4.8s-2.14-4.46-2.14-4.46a5,5,0,0,0-.91-.31v0h-.1a1.82,1.82,0,0,0-1.36.19"></path>
      <path class="cls-7" d="M80.12,308.12l-2.54,31.09,66.74,28.28L149.38,314s-20.81-2.4-29.84-1.11S94.78,318,90.05,315.42a62.14,62.14,0,0,1-9.93-7.3"></path>
      <path class="cls-6" d="M54.7,340.06a4.54,4.54,0,0,0-1.74-.42v0s-2.15,0-2.83,1.65-.07,3,.49,3.11l.9-.08,0,0a16.6,16.6,0,0,0,1.71-.95l.28-.18.32-.2c.7-.47.84-.33,1.24-.95a2.14,2.14,0,0,0,.17-1.5l-.18-.22h0l0,0Z"></path>
      <path class="cls-6" d="M120.09,326.68a3.13,3.13,0,0,0-.15-1.24h0s-.53-1.4-1.77-1.43-2,.7-1.9,1.08l.28.57,0,0,1,.87.19.15.2.15c.48.34.42.47.93.57a1.49,1.49,0,0,0,1-.26l.1-.17h0v0Z"></path>
      <path class="cls-6" d="M138.73,349.15a15.24,15.24,0,0,0-2.64-5.3h0s-4.6-5.43-10.21-3.61-7.77,6.31-6.79,7.89a19.06,19.06,0,0,0,2.12,2.12l.19,0c1.65,1.06,4.71,1.57,6.07,2.24a3.19,3.19,0,0,0,1.07.35c.3.1.62.21,1.16.36,2.69.76,2.64,1.44,5.06,1.1s4.14-2.78,4.14-2.78a5.33,5.33,0,0,0,.18-1h0l0-.11a1.79,1.79,0,0,0-.39-1.33"></path>
      <path class="cls-6" d="M102.46,330.7a11.75,11.75,0,0,0-2.59,3.74l0,0s-1.95,5.09,1.34,8.19,7.1,2.9,7.81,1.65a15.87,15.87,0,0,0,.63-2.2l0-.14c.1-1.49-.67-3.74-.72-4.9a2.66,2.66,0,0,0-.16-.85c0-.23-.1-.5-.19-.92-.48-2.08,0-2.29-1.13-3.8a5.44,5.44,0,0,0-3.39-1.75l-.71.23v0l-.06.06a1.33,1.33,0,0,0-.75.74"></path>
      <path class="cls-8" d="M102.72,368.73a2.19,2.19,0,0,0,2.17-.58c.75-1,.6-2,.25-2.15l-.62-.12c-.4-.06-.44,1-.46,1Z"></path>
      <path class="cls-9" d="M101.41,367.92s1.21,1.1,1.72.77,1.11-.65,1.11-.65l0-.33-1.33-.44-.79.26Z"></path>
      <path class="cls-10" d="M101.33,367.73c0,.14.17.5.55.38a6.22,6.22,0,0,0,.73-.32l.45-1.34c.09-.2.2-.26-.35-.08s-.62.06-1,.4a1.47,1.47,0,0,0-.39,1"></path>
      <path class="cls-11" d="M102.61,367.79a7.11,7.11,0,0,0,.18-1c0-.43,0-.55.39-.6s1.17-.46,1.54-.31.35.12.35.61a1.7,1.7,0,0,1-.53,1.2,1,1,0,0,1-1.05.45,2.44,2.44,0,0,1-.88-.39"></path>
      <path class="cls-8" d="M87.88,360.22s3.32.17,4.51-2.32.35-4.66-.5-4.84a8.86,8.86,0,0,0-1.41,0c-.91,0-.51,2.31-.54,2.36Z"></path>
      <path class="cls-9" d="M84.62,359.08s3.2,1.83,4.14.85S90.89,358,90.89,358l-.22-.73s-2.63-.61-3.14-.34-1.39.86-1.61,1Z"></path>
      <path class="cls-10" d="M84.36,358.7c.15.28.6,1,1.37.55a12.8,12.8,0,0,0,1.46-1s.25-2.69.36-3.17.31-.68-.81,0-1.33.44-2,1.36a3.38,3.38,0,0,0-.38,2.31"></path>
      <path class="cls-11" d="M87.19,358.21a14.52,14.52,0,0,0-.07-2.2c-.13-1-.22-1.22.58-1.51s2.33-1.57,3.23-1.43.83.09,1.07,1.17a4,4,0,0,1-.58,2.92,2.2,2.2,0,0,1-2.1,1.48,5.59,5.59,0,0,1-2.13-.43"></path>
      <path class="cls-8" d="M74.05,371s2.59,2,4.91.6,2.84-3.59,2.25-4.2a8.7,8.7,0,0,0-1.15-.73c-.77-.46-1.69,1.59-1.74,1.61Z"></path>
      <path class="cls-9" d="M72,368.3s1.59,3.23,2.89,3,2.79-.41,2.79-.41l.22-.7s-1.8-1.94-2.36-2-1.59-.06-1.83-.1Z"></path>
      <path class="cls-10" d="M72,367.85c0,.32-.07,1.15.81,1.2a12.61,12.61,0,0,0,1.75,0l2-2.37c.35-.34.62-.38-.65-.45s-1.32-.38-2.37,0A3.29,3.29,0,0,0,72,367.85"></path>
      <path class="cls-11" d="M74.59,369a14.41,14.41,0,0,0,1.15-1.83c.43-.85.49-1.09,1.3-.9s2.74,0,3.39.62.62.53.23,1.53a3.89,3.89,0,0,1-2.07,2,2.14,2.14,0,0,1-2.51.06A5.56,5.56,0,0,1,74.59,369"></path>
      <path class="cls-8" d="M68.09,362.07s1.33-2.11.13-3.79-2.93-1.93-3.35-1.44l-.49.94c-.3.61,1.33,1.17,1.35,1.21Z"></path>
      <path class="cls-9" d="M66.15,363.79s2.36-1.43,2.07-2.4-.49-2.1-.49-2.1l-.55-.12s-1.37,1.5-1.37,1.93.06,1.21,0,1.4Z"></path>
      <path class="cls-10" d="M65.81,363.82c.25,0,.89,0,.86-.7a10.21,10.21,0,0,0-.14-1.33l-2-1.39c-.28-.24-.32-.45-.29.52s-.21,1,.16,1.81a2.49,2.49,0,0,0,1.36,1.09"></path>
      <path class="cls-11" d="M66.52,361.79a10.81,10.81,0,0,0-1.46-.76c-.68-.27-.87-.3-.77-.93s-.18-2.1.24-2.62.36-.52,1.16-.28a3,3,0,0,1,1.69,1.44,1.66,1.66,0,0,1,.2,1.92,4.19,4.19,0,0,1-1.06,1.23"></path>
      <path class="cls-8" d="M56.33,364.86a1.6,1.6,0,0,0,.53-1.55c-.28-.85-1-1.17-1.2-1l-.32.32.4.68Z"></path>
      <path class="cls-9" d="M55.3,365.33s1.16-.29,1.17-.73a9,9,0,0,1,.06-.93l-.21-.12-.81.62-.17.59Z"></path>
      <path class="cls-10" d="M55.16,365.3l.44-.18.12-.57-.63-.82c-.09-.14-.08-.23-.19.17s-.22.41-.16.77a1.08,1.08,0,0,0,.42.63"></path>
      <path class="cls-11" d="M55.71,364.55l-.51-.5-.2-.49.44-1.05.51,0a1.27,1.27,0,0,1,.52.81.71.71,0,0,1-.16.82Z"></path>
      <path class="cls-8" d="M52.72,371.35s2.27-3.66.18-6.56-5.07-3.32-5.81-2.46a13.13,13.13,0,0,0-.83,1.62c-.51,1.07,2.31,2,2.34,2.1Z"></path>
      <path class="cls-9" d="M49.38,374.35s4.08-2.5,3.57-4.18-.89-3.63-.89-3.63l-1-.2s-2.35,2.6-2.35,3.35.11,2.11.08,2.44Z"></path>
      <path class="cls-10" d="M48.79,374.4c.43,0,1.53,0,1.49-1.21a16.37,16.37,0,0,0-.27-2.31s-2.89-2-3.38-2.39-.57-.78-.51.92-.34,1.78.3,3.11a4.35,4.35,0,0,0,2.37,1.88"></path>
      <path class="cls-11" d="M50,370.88a20.07,20.07,0,0,0-2.55-1.3c-1.18-.46-1.51-.51-1.35-1.6s-.31-3.63.4-4.55.62-.89,2-.48,2,1.1,2.94,2.47a2.85,2.85,0,0,1,.38,3.31A7.33,7.33,0,0,1,50,370.88"></path>
      <path class="cls-12" d="M82.23,296.86a11.38,11.38,0,0,0-1.32,6.25c0,2.28.46,4.62.4,7a31.39,31.39,0,0,1-1.16,7c-.59,2.24-.87,4.58-1.67,6.84a42.71,42.71,0,0,1-3.25,6.27,31.18,31.18,0,0,0-2.6,6.46,29.44,29.44,0,0,0-.46,13.87,30.63,30.63,0,0,1,.24-13.93,31.39,31.39,0,0,1,2.45-6.6,39.57,39.57,0,0,0,3-6.27c.68-2.19.88-4.54,1.39-6.84a27.7,27.7,0,0,0,.85-6.82c-.1-2.27-.57-4.55-.87-6.93a15.09,15.09,0,0,1,.72-7.47v0a1.27,1.27,0,1,1,2.35.94A1.11,1.11,0,0,1,82.23,296.86Z"></path>
      <path class="cls-12" d="M81.72,303.15a29,29,0,0,1,8,17.61,16.6,16.6,0,0,0,.88,4.6A8.74,8.74,0,0,0,93.5,329c1.24,1,2.61,1.82,4,2.7l4,2.61-4.17-2.41c-1.38-.81-2.79-1.57-4.12-2.52A9.35,9.35,0,0,1,90,325.64a17.46,17.46,0,0,1-1.17-4.76,27.56,27.56,0,0,0-8.43-16.33,1,1,0,1,1,1.32-1.43Z"></path>
      <path class="cls-12" d="M80.75,295.6a22.49,22.49,0,0,1,.33,3.3c0,1.07,0,2.15,0,3.22a53.3,53.3,0,0,1-.45,6.43,17,17,0,0,1-.71,3.23,5.93,5.93,0,0,1-.37.82c-.16.29-.3.46-.45.7l-.88,1.33c-1.2,1.77-2.45,3.51-3.81,5.16A43.36,43.36,0,0,1,70,324.46a38.63,38.63,0,0,1-5.12,3.84,59.22,59.22,0,0,0-5.22,3.63A10.3,10.3,0,0,0,56,337a10.39,10.39,0,0,1,3.51-5.23,59.15,59.15,0,0,1,5.11-3.83,38.31,38.31,0,0,0,4.91-4,41.71,41.71,0,0,0,4.18-4.73c1.28-1.67,2.45-3.43,3.57-5.22l.83-1.35a5.44,5.44,0,0,0,.66-1.29,16.84,16.84,0,0,0,.6-3,54.68,54.68,0,0,0,.31-6.28,35.41,35.41,0,0,0-.46-6.17v-.05a.77.77,0,0,1,1.51-.29Z"></path>
      <path class="cls-12" d="M80.59,295.86a73.6,73.6,0,0,0,4.18,12c1.7,3.93,3.57,7.78,5.53,11.59q1.47,2.86,3,5.68c.52.94,1,1.9,1.46,2.9a14,14,0,0,1,.89,3.15c.68,4.3-.37,8.66,1,12.81-1.5-4.1-.6-8.58-1.41-12.74a13.31,13.31,0,0,0-1-3,31.65,31.65,0,0,0-1.52-2.8c-1.09-1.86-2.12-3.74-3.14-5.63-2-3.79-4-7.63-5.74-11.56a73,73,0,0,1-4.46-12.15.6.6,0,0,1,1.17-.29Z"></path>
      <path class="cls-12" d="M80.25,305.18A28.34,28.34,0,0,0,79,310.39a10.49,10.49,0,0,0,.43,5.14,10.3,10.3,0,0,0,1.22,2.29c.24.36.51.71.79,1.06A11.65,11.65,0,0,1,82.3,320a6.55,6.55,0,0,1,1.07,2.75,11.49,11.49,0,0,1-.09,2.88c-.54,3.81-2.53,7-3.7,10.34a15.69,15.69,0,0,0-1,5.19,8.44,8.44,0,0,0,1.59,5,8.24,8.24,0,0,1-2.2-5,14.81,14.81,0,0,1,.61-5.54c1-3.56,2.78-6.8,3.44-10.22a10.13,10.13,0,0,0,.17-2.56,5.42,5.42,0,0,0-.83-2.32,10.65,10.65,0,0,0-.73-1.07c-.29-.36-.58-.72-.85-1.11a11.94,11.94,0,0,1-1.37-2.51,11.73,11.73,0,0,1-.55-5.65,34,34,0,0,1,1.16-5.45.62.62,0,0,1,.78-.43.64.64,0,0,1,.43.78h0Z"></path>
      <path class="cls-12" d="M80.71,295.47a10.76,10.76,0,0,1,.85,6.48,12.77,12.77,0,0,1-3.24,5.59,38.56,38.56,0,0,0-3.84,4.7,12,12,0,0,0-1.25,2.64,2.56,2.56,0,0,0,.64,2.29,5.85,5.85,0,0,0,1,1,9,9,0,0,1,1.27,1,1.69,1.69,0,0,1,.43,1,2.14,2.14,0,0,1-.15,1,3.49,3.49,0,0,1-1,1.43c-1.72,1.42-3.84,1.85-5.21,3.26A4.59,4.59,0,0,0,69,328.45a7.8,7.8,0,0,0,.28,3c.55,2,1.59,3.8,2,5.83-.51-2-1.62-3.77-2.28-5.75a8.15,8.15,0,0,1-.43-3.11,5,5,0,0,1,1.19-3c1.49-1.64,3.66-2.21,5.05-3.52.67-.59,1.07-1.64.58-2A10.09,10.09,0,0,0,74.2,319,7,7,0,0,1,73,317.9a4.77,4.77,0,0,1-.89-1.5,3,3,0,0,1-.09-1.91,12.62,12.62,0,0,1,1.36-3,39.2,39.2,0,0,1,3.91-4.91,11.49,11.49,0,0,0,2.87-5,9.24,9.24,0,0,0-.83-5.57h0a.77.77,0,0,1,1.41-.61Z"></path>
      <path class="cls-12" d="M81.16,295.63a51.52,51.52,0,0,1-3.59,11,64,64,0,0,1-5.8,9.9A112.61,112.61,0,0,0,65.48,326a23.82,23.82,0,0,0-2.13,5.24c-.43,1.84-.47,3.76-.72,5.64.19-1.89.15-3.8.53-5.68a23.93,23.93,0,0,1,2-5.38,110.71,110.71,0,0,1,6-9.72,63.26,63.26,0,0,0,5.38-9.94,50.09,50.09,0,0,0,3.15-10.78.75.75,0,0,1,.88-.62.76.76,0,0,1,.63.88Z"></path>
      <path class="cls-12" d="M81.68,296.05a48,48,0,0,0,.56,7.33,12.76,12.76,0,0,0,1.05,3.32,12.35,12.35,0,0,0,.91,1.51,7.49,7.49,0,0,1,1,1.92,6.92,6.92,0,0,1,.2,1.07l.06.53,0,.47a15.62,15.62,0,0,0,.19,1.75A5.22,5.22,0,0,0,87,316.81c.76.84,1.75,1.61,2.66,2.58a17.18,17.18,0,0,1,2.39,3.18,22.48,22.48,0,0,1,2.54,7.35,57.68,57.68,0,0,1,.73,7.57c.23,5,.36,10,.25,15-.79-5-1.34-9.94-1.79-14.93-.23-2.49-.43-5-.89-7.36a20.54,20.54,0,0,0-2.43-6.73,15.07,15.07,0,0,0-2.16-2.79c-.82-.84-1.81-1.61-2.73-2.64a7.19,7.19,0,0,1-1.2-1.76,7.86,7.86,0,0,1-.63-2c-.24-1.35-.14-2.7-.4-3.62a5.81,5.81,0,0,0-.72-1.43,13.78,13.78,0,0,1-1-1.71,15.16,15.16,0,0,1-1.13-3.84,43.75,43.75,0,0,1-.35-7.65.75.75,0,0,1,.78-.74.77.77,0,0,1,.75.75Z"></path>
      <path class="cls-12" d="M81.24,299.88c.05,4.28,0,8.56-.1,12.81a44.07,44.07,0,0,0,1.29,12.55c1.09,4.1,2.54,8.14,3.46,12.32s1.27,8.59,0,12.68c1.19-4.13.72-8.5-.32-12.59s-2.6-8.09-3.83-12.2A45.15,45.15,0,0,1,80,312.7c-.08-4.28-.11-8.53-.29-12.78a.77.77,0,0,1,1.54-.06Z"></path>
      <path class="cls-12" d="M81.77,296.54a5.11,5.11,0,0,1-1.13,3,24.38,24.38,0,0,1-2,2.06,6.11,6.11,0,0,0-1.43,2,3.42,3.42,0,0,0-.21,1.17l0,1.36a23.89,23.89,0,0,0,.44,5.39,32.62,32.62,0,0,1,.62,5.53,31,31,0,0,1-2,10.89,53.7,53.7,0,0,1-4.9,9.87,54.49,54.49,0,0,0,4.55-10A30.58,30.58,0,0,0,77.32,317a30.14,30.14,0,0,0-.8-5.38,25.83,25.83,0,0,1-.64-5.56v-1.39a4.65,4.65,0,0,1,.23-1.54,7,7,0,0,1,1.62-2.52,23.58,23.58,0,0,0,1.76-2,3.6,3.6,0,0,0,.74-2.14.77.77,0,0,1,1.54,0v0Z"></path>
      <path class="cls-12" d="M84.85,303A89.4,89.4,0,0,0,93,324.45c.87,1.73,1.84,3.39,2.73,5.13a14.47,14.47,0,0,1,1.61,5.63c.35,3.88-.4,7.81.83,11.54-1.36-3.69-.75-7.71-1.21-11.5a14.12,14.12,0,0,0-1.75-5.4c-.93-1.67-1.95-3.34-2.86-5.05a90.53,90.53,0,0,1-8.7-21.57h0a.6.6,0,0,1,1.17-.28Z"></path>
      <path class="cls-12" d="M81.33,297.09a14.9,14.9,0,0,1-1.66,7.06c-1,2.2-2.19,4.29-3.38,6.36s-2.45,4.1-3.47,6.22a27.35,27.35,0,0,0-1.9,6.78c-.91,4.79-3.37,9-5.55,13.22a47.42,47.42,0,0,0-2.9,6.52,17.85,17.85,0,0,0-1,7,18,18,0,0,1,.68-7.13,41.73,41.73,0,0,1,2.66-6.7c2-4.32,4.3-8.55,5-13.15.2-1.16.37-2.35.62-3.55a16.42,16.42,0,0,1,.47-1.83c.2-.61.44-1.19.69-1.76A71.66,71.66,0,0,1,75,309.76c1.21-2.05,2.34-4.12,3.37-6.2a25.17,25.17,0,0,0,1.3-3.17,9.68,9.68,0,0,0,.59-3.23v0a.54.54,0,0,1,1.08,0Z"></path>
      <path class="cls-12" d="M83.32,302.14A11.53,11.53,0,0,0,86.66,307,15,15,0,0,0,92,310c1,.32,2,.55,3,.94a10.47,10.47,0,0,1,2.78,1.63,21.73,21.73,0,0,1,4.08,4.85,21.54,21.54,0,0,0-4.26-4.62,9.9,9.9,0,0,0-2.75-1.44c-1-.33-2-.51-3-.79a15.81,15.81,0,0,1-5.7-2.87,12.6,12.6,0,0,1-3.88-5.14h0a.59.59,0,1,1,1.1-.43Z"></path>
      <path class="cls-12" d="M74.64,311.79c1.36,1.45,2.56,3,3.83,4.42s2.68,2.82,3.85,4.41a10.37,10.37,0,0,1,2.26,5.44,6,6,0,0,1-2.24,5.2,5.79,5.79,0,0,0,1.86-5.17,9.8,9.8,0,0,0-2.48-5,56.15,56.15,0,0,0-4.07-4.1c-1.4-1.38-2.7-2.82-4.09-4.11a.77.77,0,0,1,0-1.09.76.76,0,0,1,1.08,0l0,0Z"></path>
      <path class="cls-12" d="M82.49,296.39a3.17,3.17,0,0,0,.16,1.83,10.14,10.14,0,0,0,1,2.26,7.84,7.84,0,0,0,1.49,1.85,1.9,1.9,0,0,0,.37.27l.16.08.39.16a7.2,7.2,0,0,1,3.57,3.43,11.52,11.52,0,0,1,1,2.93,47.43,47.43,0,0,1,.68,5.73,26,26,0,0,0,.36,2.71,26.17,26.17,0,0,1,.39,2.88c.17,1.92.15,3.81.22,5.68a32.12,32.12,0,0,0,.54,5.55A14.19,14.19,0,0,0,95,336.88a13.45,13.45,0,0,1-2.72-5,28.54,28.54,0,0,1-1-5.62c-.19-1.89-.34-3.76-.61-5.59a26.6,26.6,0,0,0-.51-2.69,26.48,26.48,0,0,1-.55-2.85,49,49,0,0,0-.94-5.45,6.71,6.71,0,0,0-2.47-4,4.7,4.7,0,0,0-1-.51l-.27-.1a3.54,3.54,0,0,1-.48-.2,4.5,4.5,0,0,1-.81-.51,10.12,10.12,0,0,1-2.14-2.44,12.44,12.44,0,0,1-1.4-2.83,8.13,8.13,0,0,1-.39-1.65,4.55,4.55,0,0,1,.19-2.05l.06-.15a1.43,1.43,0,1,1,2.7,1A1.89,1.89,0,0,1,82.49,296.39Z"></path>
      <path class="cls-12" d="M83.87,302.24a21,21,0,0,0-1.31,4.31,8.74,8.74,0,0,0,.24,4.14,11.87,11.87,0,0,0,.88,1.93A10.93,10.93,0,0,1,84.79,315a4.28,4.28,0,0,1,.16,1.62,3.75,3.75,0,0,1-.52,1.54,16.69,16.69,0,0,1-1.54,2,36.35,36.35,0,0,1-7.19,6.51,42.51,42.51,0,0,1-4.11,2.5A12.76,12.76,0,0,0,67.78,332a13,13,0,0,1,3.54-3.22,44.22,44.22,0,0,0,3.77-2.84A35.08,35.08,0,0,0,81.38,319a16.27,16.27,0,0,0,1.16-1.87,1.68,1.68,0,0,0,0-1.45,15.24,15.24,0,0,0-1-1.88,11.71,11.71,0,0,1-1-2.43,10.52,10.52,0,0,1-.15-5.28,19.83,19.83,0,0,1,1.75-4.68,1,1,0,0,1,1.78.78Z"></path>
      <path class="cls-12" d="M81.73,295.35a39,39,0,0,1,.55,9.42,17.91,17.91,0,0,1-1,4.68,13.52,13.52,0,0,1-2.39,4.13A59.37,59.37,0,0,1,72,319.87a26.58,26.58,0,0,0-3.26,3.28,9.94,9.94,0,0,0-2.06,4.1A10.06,10.06,0,0,1,68.58,323a26.42,26.42,0,0,1,3.16-3.44,59.28,59.28,0,0,0,6.57-6.49,14.2,14.2,0,0,0,2.83-8.4,38.78,38.78,0,0,0-.92-9.08.77.77,0,0,1,1.5-.31Z"></path>
      <polygon class="cls-13" points="0 274.64 80.12 308.12 152.93 277.24 80.12 251.56 0 274.64"></polygon>
      <path class="cls-14" d="M81.43,39.06a10.29,10.29,0,0,1-1.61-3.34,20.33,20.33,0,0,1-.75-3.51,39.46,39.46,0,0,1-.27-7.12c0-1.19.16-2.37.27-3.55s.27-2.35.46-3.52.38-2.33.61-3.49l.74-3.47-.63,3.49c-.2,1.16-.34,2.33-.51,3.5s-.24,2.35-.36,3.52-.14,2.35-.16,3.53a39.1,39.1,0,0,0,.48,7,21.36,21.36,0,0,0,.82,3.38,10.08,10.08,0,0,0,1.52,3Z"></path>
      <path class="cls-14" d="M84.31,40.56a9.79,9.79,0,0,0,1.52-3,21.51,21.51,0,0,0,.83-3.39,39,39,0,0,0,.47-7c0-1.17-.09-2.35-.16-3.53s-.2-2.35-.36-3.51-.31-2.35-.5-3.51l-.63-3.49.73,3.47c.23,1.16.41,2.33.61,3.5s.31,2.34.47,3.52.21,2.36.26,3.54a40.39,40.39,0,0,1-.26,7.12,22.51,22.51,0,0,1-.75,3.52,10.37,10.37,0,0,1-1.62,3.33Z"></path>
      <path class="cls-14" d="M83.18,36.22a10,10,0,0,0,1.52-3,21.51,21.51,0,0,0,.83-3.39,39,39,0,0,0,.47-7c0-1.17-.09-2.35-.16-3.53s-.2-2.34-.36-3.51-.3-2.34-.5-3.51l-.63-3.48.73,3.46c.24,1.16.41,2.33.62,3.5s.3,2.34.46,3.52.22,2.36.27,3.54A39.46,39.46,0,0,1,86.16,30a22.51,22.51,0,0,1-.75,3.52A10.34,10.34,0,0,1,83.8,36.8Z"></path>
      <path class="cls-14" d="M88.32,68.66a11.92,11.92,0,0,0,1.39-2.89c.38-1,.67-2.12,1-3.2.53-2.17.9-4.38,1.22-6.6s.52-4.47.68-6.71.26-4.49.34-6.74c0,2.25,0,4.5-.13,6.75s-.25,4.5-.47,6.75-.55,4.48-1,6.69a34,34,0,0,1-.86,3.3A12.24,12.24,0,0,1,89,69.22Z"></path>
      <path class="cls-14" d="M88.54,75.53a11.92,11.92,0,0,0,1.39-2.89,31,31,0,0,0,.94-3.2,63.87,63.87,0,0,0,1.22-6.6c.29-2.23.52-4.46.68-6.71s.26-4.49.35-6.73c0,2.25,0,4.5-.14,6.75s-.25,4.49-.46,6.74-.56,4.48-1,6.7c-.25,1.1-.51,2.21-.87,3.29a11.89,11.89,0,0,1-1.45,3.21Z"></path>
      <path class="cls-14" d="M88,61.72a23.2,23.2,0,0,0,2.27-6.42,61,61,0,0,0,1.11-6.87c.14-1.16.21-2.32.32-3.48l.17-3.49L91.92,38l0-3.5L92,38l0,3.5L92,45c-.07,1.16-.1,2.33-.21,3.5a58.66,58.66,0,0,1-.91,7,23.21,23.21,0,0,1-2.19,6.77Z"></path>
      <path class="cls-14" d="M88.34,49a9.79,9.79,0,0,0,1.52-3,21.48,21.48,0,0,0,.82-3.39,39,39,0,0,0,.48-7c0-1.17-.1-2.35-.16-3.53s-.2-2.35-.36-3.52-.31-2.34-.51-3.5l-.63-3.49.74,3.47c.23,1.16.4,2.33.61,3.5s.31,2.34.47,3.51.21,2.36.26,3.55a39.46,39.46,0,0,1-.27,7.12,20.44,20.44,0,0,1-.75,3.52A10.34,10.34,0,0,1,89,49.58Z"></path>
      <path class="cls-14" d="M87.73,55.73a5.78,5.78,0,0,0,.88-1.27,12.15,12.15,0,0,0,.68-1.52,24.25,24.25,0,0,0,1-3.25,49.54,49.54,0,0,0,1-6.76c.15-2.28.23-4.57.21-6.86s-.11-4.57-.22-6.86c.18,2.28.36,4.57.43,6.86s.09,4.59,0,6.88a52.86,52.86,0,0,1-.75,6.87A25,25,0,0,1,90,53.19a12.14,12.14,0,0,1-.67,1.63,5.71,5.71,0,0,1-1,1.56Z"></path>
      <path class="cls-14" d="M86.83,41.69a9.69,9.69,0,0,0,1.52-3,20.46,20.46,0,0,0,.83-3.39,39,39,0,0,0,.47-7c0-1.18-.09-2.35-.16-3.53s-.2-2.35-.35-3.52-.31-2.34-.51-3.5L88,14.28l.73,3.47c.24,1.16.41,2.33.62,3.49s.3,2.35.46,3.52.22,2.36.27,3.55a39.46,39.46,0,0,1-.27,7.12A22.76,22.76,0,0,1,89.06,39a10.34,10.34,0,0,1-1.61,3.33Z"></path>
      <path class="cls-14" d="M86.92,47.09a12,12,0,0,0,1.33-3,28.37,28.37,0,0,0,.81-3.33,55.71,55.71,0,0,0,.78-6.84c.06-1.15.09-2.3.11-3.45s0-2.31,0-3.46-.07-2.31-.13-3.46l-.22-3.46.32,3.45c.1,1.15.16,2.3.24,3.46s.09,2.31.13,3.46,0,2.32,0,3.48a53.81,53.81,0,0,1-.57,6.93A31.24,31.24,0,0,1,89,44.29a12.19,12.19,0,0,1-1.38,3.33Z"></path>
      <path class="cls-14" d="M86.08,36.75a9.91,9.91,0,0,0,1.52-3,21.51,21.51,0,0,0,.83-3.39,39,39,0,0,0,.47-7c0-1.18-.09-2.35-.16-3.53s-.2-2.35-.36-3.52-.3-2.34-.5-3.5l-.63-3.49L88,12.81c.24,1.16.41,2.33.61,3.49s.31,2.35.47,3.52.21,2.36.27,3.55a40.4,40.4,0,0,1-.27,7.12A22.51,22.51,0,0,1,88.31,34a10.17,10.17,0,0,1-1.62,3.33Z"></path>
      <path class="cls-14" d="M80.89,45.07A12.62,12.62,0,0,1,79,41.68,24.59,24.59,0,0,1,77.94,38a35,35,0,0,1-.73-7.49c0-1.26.07-2.51.12-3.76s.24-2.49.37-3.73.38-2.47.59-3.7l.76-3.67-.65,3.68c-.18,1.24-.32,2.48-.48,3.71s-.21,2.49-.28,3.73-.09,2.49,0,3.73a34.34,34.34,0,0,0,.93,7.36,23.46,23.46,0,0,0,1.14,3.5,11.48,11.48,0,0,0,1.81,3.09Z"></path>
      <path class="cls-14" d="M83.47,38a12.47,12.47,0,0,1-1.88-3.39A24.82,24.82,0,0,1,80.52,31a35.73,35.73,0,0,1-.74-7.5c0-1.25.08-2.5.12-3.75s.24-2.5.38-3.74.37-2.47.59-3.7l.76-3.67L81,12.28c-.19,1.23-.32,2.47-.49,3.71s-.2,2.48-.27,3.72-.09,2.49,0,3.73a34.18,34.18,0,0,0,.93,7.36,22.48,22.48,0,0,0,1.14,3.51,12.05,12.05,0,0,0,1.8,3.09Z"></path>
      <path class="cls-14" d="M81.42,51.4a15.3,15.3,0,0,1-2-3.52c-.29-.61-.48-1.25-.72-1.87s-.38-1.27-.56-1.91a36.54,36.54,0,0,1-1.07-7.84,54.5,54.5,0,0,1,.31-7.88l.57-3.9.78-3.86-.68,3.87L77.6,28.4a54,54,0,0,0-.11,7.84,36.21,36.21,0,0,0,1.26,7.69c.2.62.39,1.24.61,1.85s.45,1.22.74,1.79a14.67,14.67,0,0,0,2,3.26Z"></path>
      <path class="cls-14" d="M81.11,57a22.77,22.77,0,0,1-3.85-7.36,36,36,0,0,1-1.59-8.08l-.14-2v-2c0-1.37.13-2.74.19-4.1s.35-2.71.51-4.07l.79-4-.68,4c-.13,1.35-.32,2.71-.4,4.06s-.17,2.73-.09,4.09l.06,2,.19,2a36,36,0,0,0,1.77,7.91,22.21,22.21,0,0,0,3.86,7Z"></path>
      <path class="cls-14" d="M81.86,64.51A22.77,22.77,0,0,1,78,57.15a36.7,36.7,0,0,1-1.59-8.08l-.14-2V45c0-1.37.13-2.73.2-4.09s.34-2.72.5-4.07l.79-4-.68,4c-.13,1.36-.32,2.71-.4,4.07s-.17,2.72-.09,4.08l.06,2,.19,2a35.68,35.68,0,0,0,1.78,7.91,22.3,22.3,0,0,0,3.85,7Z"></path>
      <path class="cls-14" d="M86.69,39.22a22.75,22.75,0,0,1-3.84-7.36,36,36,0,0,1-1.6-8.08l-.14-2.05V19.68c0-1.37.13-2.74.2-4.1s.34-2.72.51-4.07l.79-4-.69,4c-.13,1.36-.32,2.71-.4,4.07s-.17,2.72-.09,4.08l.06,2,.2,2a35.54,35.54,0,0,0,1.77,7.91,22,22,0,0,0,3.86,7Z"></path>
      <path class="cls-14" d="M81.94,71.25a34.18,34.18,0,0,1-4-7.93A55.93,55.93,0,0,1,75.6,54.8c-.25-1.45-.5-2.89-.65-4.36s-.27-2.92-.38-4.38-.07-2.94-.11-4.4.09-2.93.14-4.4c0,1.47,0,2.93,0,4.4s.08,2.92.21,4.38S75,49,75.27,50.4s.46,2.89.75,4.32a55.18,55.18,0,0,0,2.5,8.37,33.36,33.36,0,0,0,4.08,7.62Z"></path>
      <path class="cls-14" d="M81.62,78.17a34,34,0,0,1-4-7.93,56.09,56.09,0,0,1-2.32-8.51c-.25-1.45-.51-2.9-.65-4.36s-.28-2.92-.38-4.39-.07-2.93-.11-4.4.09-2.93.13-4.39c0,1.46,0,2.93,0,4.39s.08,2.93.22,4.39.24,2.92.48,4.36.47,2.88.76,4.32A55.18,55.18,0,0,0,78.2,70a33.79,33.79,0,0,0,4.08,7.62Z"></path>
      <path class="cls-14" d="M83.59,31.39l-.31-15.7C83.13,10.46,83,5.23,82.7,0c.45,5.22.72,10.45,1,15.68l.74,15.69Z"></path>
      <path class="cls-15" d="M83.72,270.05h0c-.39,0-.72-.23-.71-.52l.58-206.2c0-.29.32-.52.72-.52h0c.39,0,.72.24.72.53l-.59,206.19C84.44,269.82,84.12,270.05,83.72,270.05Z"></path>
      <path class="cls-16" d="M87.47,28.17S89.08,35,83,36.73C83,36.73,80.45,33,87.47,28.17Z"></path>
      <path class="cls-17" d="M87.47,28.17S89.08,35,83,36.73C83,36.73,80.45,33,87.47,28.17Z"></path>
      <path class="cls-18" d="M88.29,33.8s.71,6-1.67,7.56-3.9,1-3.9,1-.24-4,.83-5S88.29,33.8,88.29,33.8Z"></path>
      <path class="cls-19" d="M88.29,34.16s.71,6-1.67,7.55-3.9,1-3.9,1-.24-4,.83-5S88.29,34.16,88.29,34.16Z"></path>
      <path class="cls-20" d="M88.3,40.55s2.16,9.07-5.66,9c0,0-.8-4.09,1.56-5.75A43.84,43.84,0,0,0,88.3,40.55Z"></path>
      <path class="cls-21" d="M88.3,40.55s2.16,9.07-5.66,9c0,0-.8-4.09,1.56-5.75A43.84,43.84,0,0,0,88.3,40.55Z"></path>
      <path class="cls-22" d="M88.24,47.64s1.65,9.53-5.21,9.44a6.62,6.62,0,0,1,2-7.19A19.17,19.17,0,0,0,88.24,47.64Z"></path>
      <path class="cls-23" d="M88.24,47.64s1.65,9.53-5.21,9.44a6.62,6.62,0,0,1,2-7.19A19.17,19.17,0,0,0,88.24,47.64Z"></path>
      <path class="cls-24" d="M88.38,54.88s2,9.2-5.66,9.6a7.73,7.73,0,0,1,1.39-6.71S87.94,55.57,88.38,54.88Z"></path>
      <path class="cls-25" d="M88.38,54.88s2,9.2-5.66,9.6a7.73,7.73,0,0,1,1.39-6.71S87.94,55.57,88.38,54.88Z"></path>
      <path class="cls-26" d="M88,62.8s2.82,10.09-5.19,9.07c0,0-.77-4.33.62-5.67A41.32,41.32,0,0,1,88,62.8Z"></path>
      <path class="cls-27" d="M88,62.8s2.82,10.09-5.19,9.07c0,0-.77-4.33.62-5.67A41.32,41.32,0,0,1,88,62.8Z"></path>
      <path class="cls-28" d="M81.92,80.38s6.71,2.1,6.33-9.9c0,0-4.41,3-5.14,3.94S81.92,79.11,81.92,80.38Z"></path>
      <path class="cls-29" d="M81.92,80.38s6.71,2.1,6.33-9.9c0,0-4.41,3-5.14,3.94S81.92,79.11,81.92,80.38Z"></path>
      <g class="cls-30">
        <path class="cls-31" d="M87.47,28.17S89.08,35,83,36.73C83,36.73,80.45,33,87.47,28.17Z"></path>
        <path class="cls-31" d="M87.47,28.17S89.08,35,83,36.73C83,36.73,80.45,33,87.47,28.17Z"></path>
        <path class="cls-31" d="M88.29,33.8s.71,6-1.67,7.56-3.9,1-3.9,1-.24-4,.83-5S88.29,33.8,88.29,33.8Z"></path>
        <path class="cls-31" d="M88.29,34.16s.71,6-1.67,7.55-3.9,1-3.9,1-.24-4,.83-5S88.29,34.16,88.29,34.16Z"></path>
        <path class="cls-31" d="M88.3,40.55s2.16,9.07-5.66,9c0,0-.8-4.09,1.56-5.75A43.84,43.84,0,0,0,88.3,40.55Z"></path>
        <path class="cls-31" d="M88.3,40.55s2.16,9.07-5.66,9c0,0-.8-4.09,1.56-5.75A43.84,43.84,0,0,0,88.3,40.55Z"></path>
        <path class="cls-31" d="M88.24,47.64s1.65,9.53-5.21,9.44a6.62,6.62,0,0,1,2-7.19A19.17,19.17,0,0,0,88.24,47.64Z"></path>
        <path class="cls-31" d="M88.24,47.64s1.65,9.53-5.21,9.44a6.62,6.62,0,0,1,2-7.19A19.17,19.17,0,0,0,88.24,47.64Z"></path>
        <path class="cls-31" d="M88.38,54.88s2,9.2-5.66,9.6a7.73,7.73,0,0,1,1.39-6.71S87.94,55.57,88.38,54.88Z"></path>
        <path class="cls-31" d="M88.38,54.88s2,9.2-5.66,9.6a7.73,7.73,0,0,1,1.39-6.71S87.94,55.57,88.38,54.88Z"></path>
        <path class="cls-31" d="M88,62.8s2.82,10.09-5.19,9.07c0,0-.77-4.33.62-5.67A41.32,41.32,0,0,1,88,62.8Z"></path>
        <path class="cls-31" d="M88,62.8s2.82,10.09-5.19,9.07c0,0-.77-4.33.62-5.67A41.32,41.32,0,0,1,88,62.8Z"></path>
        <path class="cls-31" d="M81.92,80.38s6.71,2.1,6.33-9.9c0,0-4.41,3-5.14,3.94S81.92,79.11,81.92,80.38Z"></path>
        <path class="cls-31" d="M81.92,80.38s6.71,2.1,6.33-9.9c0,0-4.41,3-5.14,3.94S81.92,79.11,81.92,80.38Z"></path>
      </g>
      <path class="cls-32" d="M79.7,30.59s-1.6,6.85,4.52,8.56C84.22,39.15,86.73,35.37,79.7,30.59Z"></path>
      <path class="cls-33" d="M79.7,30.59s-1.6,6.85,4.52,8.56C84.22,39.15,86.73,35.37,79.7,30.59Z"></path>
      <path class="cls-34" d="M78.89,36.22s-.71,6,1.67,7.55,3.9,1,3.9,1,.24-4-.83-5S78.89,36.22,78.89,36.22Z"></path>
      <path class="cls-35" d="M78.89,36.58s-.71,6,1.67,7.55,3.9,1,3.9,1,.24-4-.83-5S78.89,36.58,78.89,36.58Z"></path>
      <path class="cls-36" d="M78.88,43S76.72,52,84.54,52c0,0,.8-4.09-1.56-5.74A44.16,44.16,0,0,1,78.88,43Z"></path>
      <path class="cls-37" d="M78.88,43S76.72,52,84.54,52c0,0,.8-4.09-1.56-5.74A44.16,44.16,0,0,1,78.88,43Z"></path>
      <path class="cls-38" d="M78.94,50.05s-1.65,9.53,5.21,9.45a6.63,6.63,0,0,0-2-7.2A18.58,18.58,0,0,1,78.94,50.05Z"></path>
      <path class="cls-39" d="M78.94,50.05s-1.65,9.53,5.21,9.45a6.63,6.63,0,0,0-2-7.2A18.58,18.58,0,0,1,78.94,50.05Z"></path>
      <path class="cls-40" d="M78.8,57.3s-2,9.2,5.66,9.6a7.75,7.75,0,0,0-1.39-6.72S79.23,58,78.8,57.3Z"></path>
      <path class="cls-41" d="M78.8,57.3s-2,9.2,5.66,9.6a7.75,7.75,0,0,0-1.39-6.72S79.23,58,78.8,57.3Z"></path>
      <path class="cls-42" d="M79.17,65.21s-2.81,10.09,5.2,9.08c0,0,.77-4.33-.62-5.67A41.65,41.65,0,0,0,79.17,65.21Z"></path>
      <path class="cls-43" d="M79.17,65.21s-2.81,10.09,5.2,9.08c0,0,.77-4.33-.62-5.67A41.65,41.65,0,0,0,79.17,65.21Z"></path>
      <path class="cls-44" d="M85.26,82.79s-6.71,2.1-6.34-9.9c0,0,4.42,3,5.15,4S85.26,81.52,85.26,82.79Z"></path>
      <path class="cls-45" d="M85.26,82.79s-6.71,2.1-6.34-9.9c0,0,4.42,3,5.15,4S85.26,81.52,85.26,82.79Z"></path>
      <path class="cls-46" d="M84.55,34s-5.29-4.1-.87-11c0,0,2.37,4.25,2.36,6.1A16.19,16.19,0,0,1,84.55,34Z"></path>
      <path class="cls-47" d="M84.55,34s-5.29-4.1-.87-11c0,0,2.37,4.25,2.36,6.1A16.19,16.19,0,0,1,84.55,34Z"></path>
      <path class="cls-48" d="M84.64,39.36s-1.87-3.46.22-5.41,2.57-1.71,2.57-1.71S89.94,37.59,84.64,39.36Z"></path>
      <path class="cls-49" d="M84.64,39.36s-1.87-3.46.22-5.41,2.57-1.71,2.57-1.71S89.94,37.59,84.64,39.36Z"></path>
      <path class="cls-50" d="M84.64,45.09s-2.26-4.83,1.94-5.93l2.35-1.07S90.3,43.94,84.64,45.09Z"></path>
      <path class="cls-51" d="M84.52,45.09s-2.26-4.83,1.94-5.93l2.35-1.07S90.18,43.94,84.52,45.09Z"></path>
      <path class="cls-52" d="M84.43,51.39s-2.32-4.26,1.86-6.45L89.1,43.7S89.92,51.2,84.43,51.39Z"></path>
      <path class="cls-53" d="M83.92,51.66s-2.33-4.26,1.86-6.45L88.58,44S89.4,51.47,83.92,51.66Z"></path>
      <path class="cls-54" d="M84.43,58.92s-3.58-6.16,4.46-8.48C88.89,50.44,91.11,57.3,84.43,58.92Z"></path>
      <path class="cls-55" d="M84.43,58.9s-3.58-6.16,4.46-8.48C88.89,50.42,91.11,57.28,84.43,58.9Z"></path>
      <path class="cls-56" d="M84.38,67s-2.29-4.83,1.17-7.53,3.33-2.33,3.33-2.33S92.06,63.17,84.38,67Z"></path>
      <path class="cls-57" d="M84.38,67s-2.29-4.83,1.17-7.53,3.33-2.33,3.33-2.33S92.06,63.17,84.38,67Z"></path>
      <path class="cls-58" d="M84.17,75s-2.06-4.49,1.08-7,4.43-3.4,4.43-3.4S90.83,73.88,84.17,75Z"></path>
      <path class="cls-59" d="M84.1,75.47S82,71,85.17,68.43,89.6,65,89.6,65,90.76,74.34,84.1,75.47Z"></path>
      <path class="cls-60" d="M84.17,83.14s-2.06-4.5,1.08-7,4.43-3.39,4.43-3.39S90.83,82,84.17,83.14Z"></path>
      <path class="cls-61" d="M84.17,83.14s-2.06-4.5,1.08-7,4.43-3.39,4.43-3.39S90.83,82,84.17,83.14Z"></path>
      <path class="cls-62" d="M101.14,29.33s37.57,75.28,40.78,78.72c0,0-46.32-70.19-47.94-75.23s2.64-4,2.64-4Z"></path>
      <path class="cls-63" d="M101.34,29.6c-.54-1.33-5-.51-7.71-1.29s-3.45,1.34-3.45,1.34c-1.85,24.64-4.34,45-6.82,61.2a3.42,3.42,0,0,1,.64.62c.3.35.58.71.86,1.07a6,6,0,0,1,2-.66C92,66.94,97,40.44,97.39,36.26,98.15,28.28,101.88,30.92,101.34,29.6Z"></path>
      <path class="cls-62" d="M70.69,100.47S29,188.16,19.37,198.5c0,0,54.65-91.55,57.88-94.5S74.22,96.89,70.69,100.47Z"></path>
      <path class="cls-64" d="M87.47,91.42a9,9,0,0,0-.75,2.19,12.19,12.19,0,0,0-.2,2.22c0,1.54,0,2.41-.07,4.46s-.12,6.14-.17,8.43c-.11,6.11-.22,11.31-.33,17.52,0,2.32-.11,6-.15,8.55s-.09,6.24-.12,8.55c-.09,6.17-.05,11.54-.06,17.49a1.55,1.55,0,0,1-1.58,1.6,1.63,1.63,0,0,1-1.63-1.58v-.13c.24-5.95.43-11.3.63-17.46.07-2.3.19-6,.26-8.54s.16-6.21.22-8.54c.14-6.2.22-11.39.29-17.49,0-2.3,0-6.38,0-8.43s0-2.91,0-4.45a10.77,10.77,0,0,0-.17-2.22A7.57,7.57,0,0,0,83,91.36s.18.44-.06-.16-.28-2.76,1.12-3.26a2.62,2.62,0,0,1,3.43,1A2.53,2.53,0,0,1,87.47,91.42Z"></path>
      <path class="cls-63" d="M84.73,145.3,80.34,100s-1.43-3.29-3.15-3.07-6.5,3.59-6.5,3.59,2.69-2.44,4.08,5.16S82.61,145,82.61,145Z"></path>
      <path class="cls-65" d="M85.87,146a5.64,5.64,0,0,0-.54,1.67,7.6,7.6,0,0,0-.12,1.68c0,1.29,0,1.57,0,3.42s0,3.82.06,6.65.08,9.79.07,12.69,0,4.52,0,6.76,0,4.74,0,6.52c0,4.76,0,8.67,0,13.22a1.19,1.19,0,0,1-1.21,1.22,1.24,1.24,0,0,1-1.24-1.2v-.07h0c.18-4.55.31-8.44.43-13.2,0-1.78.11-4.27.14-6.51s0-3.84.07-6.74-.05-9.84-.09-12.67-.11-4.81-.15-6.64,0-2.15-.07-3.41a11.25,11.25,0,0,0-.16-1.67,6.37,6.37,0,0,0-.55-1.58c-.11-.23,0-.05,0-.05a2,2,0,0,1,.75-2.66,1.89,1.89,0,0,1,2.62.71A2,2,0,0,1,85.87,146Z"></path>
      <path class="cls-62" d="M109.67,92.16s37.57,75.28,40.77,78.72c0,0-46.31-70.19-47.93-75.23s2.64-4,2.64-4Z"></path>
      <path class="cls-63" d="M82.24,201s11-35.65,16.47-108.49c0,0,.79-2.13,3.45-1.34s7.17,0,7.71,1.29-3.19-1.31-4,6.66S87.53,196.17,85.16,201Z"></path>
      <path class="cls-66" d="M86.24,201a9,9,0,0,0-.74,2.19,12.14,12.14,0,0,0-.21,2.22c0,1.55,0,2.41-.07,4.46s-.12,6.14-.16,8.43c-.12,6.12-.22,11.31-.34,17.52,0,2.33-.11,6-.15,8.55s-.09,6.25-.12,8.56c-.09,6.16,0,11.53-.06,17.49A1.54,1.54,0,0,1,82.81,272a1.62,1.62,0,0,1-1.63-1.57v-.14c.24-5.95.43-11.29.63-17.45.07-2.31.19-6,.26-8.54s.17-6.22.22-8.54c.14-6.2.23-11.39.29-17.5,0-2.29,0-6.37,0-8.42s0-2.91,0-4.46a11.63,11.63,0,0,0-.16-2.22,8.12,8.12,0,0,0-.74-2.23l-.06-.15c-.24-.6-.27-2.77,1.12-3.26a2.61,2.61,0,0,1,3.43,1A2.53,2.53,0,0,1,86.24,201Z"></path>
      <path class="cls-67" d="M83.71,275.19a.92.92,0,0,0-.88-.32c-.49.15-.68.54-.6.68l.18.18c.12.12.38-.22.39-.22Z"></path>
      <path class="cls-9" d="M84,275.78s-.15-.66-.4-.67-.53-.05-.53-.05l-.07.12s.24.44.34.48l.34.09A2.11,2.11,0,0,0,84,275.78Z"></path>
      <path class="cls-10" d="M83.94,275.87c0-.06.07-.21-.09-.26a2.09,2.09,0,0,0-.33-.07l-.47.35c-.08.05-.14,0,.1.11s.22.13.43.1A.63.63,0,0,0,83.94,275.87Z"></path>
      <path class="cls-11" d="M83.52,275.54a3.52,3.52,0,0,0-.29.29c-.12.13-.14.18-.28.11s-.5-.13-.6-.27-.09-.12,0-.29a.73.73,0,0,1,.47-.28.39.39,0,0,1,.46.1A.93.93,0,0,1,83.52,275.54Z"></path>
      <path class="cls-67" d="M71.22,270.66a1.34,1.34,0,0,0-1.37-.2c-.65.37-.81,1-.65,1.15a2.54,2.54,0,0,0,.32.21c.21.14.48-.43.49-.43Z"></path>
      <path class="cls-9" d="M71.76,271.42s-.42-.91-.78-.84-.78.1-.78.1l-.07.19s.49.55.65.57l.51,0A2.71,2.71,0,0,0,71.76,271.42Z"></path>
      <path class="cls-10" d="M71.76,271.55c0-.09,0-.32-.22-.34a3.47,3.47,0,0,0-.49,0s-.47.55-.57.65-.18.1.17.12.37.12.66,0A.92.92,0,0,0,71.76,271.55Z"></path>
      <path class="cls-11" d="M71.05,271.21a5.86,5.86,0,0,0-.33.5c-.12.23-.14.3-.36.24s-.77,0-.94-.19-.17-.15,0-.43a1,1,0,0,1,.58-.55.6.6,0,0,1,.7,0A1.47,1.47,0,0,1,71.05,271.21Z"></path>
      <path class="cls-67" d="M80,268.85s-2.81-1.4-4.78.31-2.06,3.92-1.39,4.39a8.63,8.63,0,0,0,1.24.49c.81.3,1.31-1.81,1.36-1.84S80,268.85,80,268.85Z"></path>
      <path class="cls-9" d="M82.44,271.07s-2.09-2.79-3.27-2.3-2.58.88-2.58.88l-.08.71s2,1.53,2.6,1.48,1.52-.22,1.75-.23A11.86,11.86,0,0,0,82.44,271.07Z"></path>
      <path class="cls-10" d="M82.52,271.49c0-.31-.14-1.1-1-1a12.59,12.59,0,0,0-1.66.35s-1.23,2.23-1.5,2.62-.53.46.7.31,1.32.12,2.24-.44A3.12,3.12,0,0,0,82.52,271.49Z"></path>
      <path class="cls-11" d="M79.88,270.85a14.93,14.93,0,0,0-.77,1.94c-.25.89-.26,1.13-1.07,1.09s-2.61.47-3.33,0-.69-.39-.49-1.42a3.76,3.76,0,0,1,1.6-2.31,2.1,2.1,0,0,1,2.38-.5A5.32,5.32,0,0,1,79.88,270.85Z"></path>
      <path class="cls-67" d="M90.86,269.75s-1.62-2.21-3.82-1.66-3.15,2.21-2.82,2.85a8,8,0,0,0,.76.87c.5.55,1.73-.89,1.78-.89Z"></path>
      <path class="cls-9" d="M91.83,272.42s-.5-3-1.61-3.08-2.35-.34-2.35-.34l-.34.51s1,2,1.42,2.18,1.26.43,1.45.53A10.73,10.73,0,0,0,91.83,272.42Z"></path>
      <path class="cls-10" d="M91.73,272.78c.1-.25.33-.91-.36-1.16a11.05,11.05,0,0,0-1.43-.39s-1.84,1.24-2.2,1.43-.59.16.41.52,1,.62,1.92.56A2.79,2.79,0,0,0,91.73,272.78Z"></path>
      <path class="cls-11" d="M89.94,271.23a12.64,12.64,0,0,0-1.36,1.2c-.55.59-.66.77-1.26.42s-2.22-.67-2.59-1.31-.38-.58.18-1.3a3.29,3.29,0,0,1,2.16-1.15,1.82,1.82,0,0,1,2,.56A4.66,4.66,0,0,1,89.94,271.23Z"></path>
      <path class="cls-67" d="M83.33,270.89s-2.33-1.79-4.44-.58-2.6,3.22-2.06,3.78a8.7,8.7,0,0,0,1,.67c.69.42,1.53-1.42,1.58-1.44Z"></path>
      <path class="cls-9" d="M85.13,273.36s-1.41-2.94-2.59-2.7S80,271,80,271l-.2.64s1.6,1.77,2.11,1.82,1.43.07,1.65.11A11.68,11.68,0,0,0,85.13,273.36Z"></path>
      <path class="cls-10" d="M85.12,273.77c0-.29.07-1-.72-1.1a11,11,0,0,0-1.58,0s-1.53,1.82-1.85,2.12-.57.34.58.41,1.19.36,2.14,0A2.91,2.91,0,0,0,85.12,273.77Z"></path>
      <path class="cls-11" d="M82.82,272.7a13,13,0,0,0-1,1.64c-.4.76-.45,1-1.18.8s-2.48,0-3.06-.59-.56-.48-.19-1.38a3.51,3.51,0,0,1,1.88-1.83,2,2,0,0,1,2.27,0A5.09,5.09,0,0,1,82.82,272.7Z"></path>
      <path class="cls-67" d="M95.43,275a1.39,1.39,0,0,0,1.29-.64c.35-.7.12-1.32-.12-1.38a2.85,2.85,0,0,0-.4,0c-.26,0-.15.65-.16.67S95.43,275,95.43,275Z"></path>
      <path class="cls-9" d="M94.51,274.63s.9.54,1.17.26.62-.54.62-.54l-.06-.21a3.07,3.07,0,0,0-.89-.11c-.15.08-.4.24-.47.27A4.63,4.63,0,0,0,94.51,274.63Z"></path>
      <path class="cls-10" d="M94.44,274.52a.26.26,0,0,0,.38.17,3.12,3.12,0,0,0,.42-.29s.09-.76.12-.9.09-.19-.23,0-.38.12-.57.38A.9.9,0,0,0,94.44,274.52Z"></path>
      <path class="cls-11" d="M95.24,274.4a4.61,4.61,0,0,0,0-.63c0-.28,0-.34.17-.43s.67-.43.93-.39.23,0,.3.34a1.18,1.18,0,0,1-.18.83.64.64,0,0,1-.6.41A1.62,1.62,0,0,1,95.24,274.4Z"></path>
      <path class="cls-67" d="M64.43,276.59a1.41,1.41,0,0,0,1.29-.64c.35-.7.12-1.33-.12-1.38a2.85,2.85,0,0,0-.4,0c-.26,0-.15.65-.16.67S64.43,276.59,64.43,276.59Z"></path>
      <path class="cls-9" d="M63.51,276.25s.9.53,1.18.26.61-.54.61-.54l-.06-.21a2.76,2.76,0,0,0-.89-.11l-.46.27A2.72,2.72,0,0,0,63.51,276.25Z"></path>
      <path class="cls-10" d="M63.44,276.14c0,.08.17.29.39.16a2.87,2.87,0,0,0,.42-.29s.08-.76.11-.9.09-.19-.23,0-.38.12-.57.38A1,1,0,0,0,63.44,276.14Z"></path>
      <path class="cls-11" d="M64.25,276a3.67,3.67,0,0,0,0-.62c0-.28,0-.35.18-.43s.67-.43.92-.39.24,0,.3.34a1.1,1.1,0,0,1-.18.82.63.63,0,0,1-.6.42A1.68,1.68,0,0,1,64.25,276Z"></path>
      <path class="cls-67" d="M73.29,275.47a1.79,1.79,0,0,0,1.7-.7c.5-.86.26-1.67,0-1.76a2.43,2.43,0,0,0-.51,0c-.33,0-.25.82-.27.84Z"></path>
      <path class="cls-9" d="M72.14,275s1.1.76,1.48.43.82-.63.82-.63l0-.27a3.82,3.82,0,0,0-1.13-.22c-.19.08-.52.27-.61.3A4.41,4.41,0,0,0,72.14,275Z"></path>
      <path class="cls-10" d="M72.06,274.81c0,.11.19.39.48.25a5.53,5.53,0,0,0,.56-.34s.17-1,.22-1.13.14-.24-.29,0-.49.12-.76.43A1.21,1.21,0,0,0,72.06,274.81Z"></path>
      <path class="cls-11" d="M73.1,274.72a4.94,4.94,0,0,0,0-.79c0-.36,0-.45.26-.53s.89-.49,1.21-.42.29.06.35.46a1.43,1.43,0,0,1-.3,1,.81.81,0,0,1-.8.48A2.24,2.24,0,0,1,73.1,274.72Z"></path>
      <path class="cls-67" d="M79.75,274.22a1.15,1.15,0,0,1,1-.17c.51.24.65.66.53.78a2.75,2.75,0,0,1-.24.15c-.16.09-.38-.29-.39-.29Z"></path>
      <path class="cls-9" d="M79.35,274.75s.3-.63.58-.59.61,0,.61,0l0,.13s-.36.39-.48.4l-.39,0A3.06,3.06,0,0,1,79.35,274.75Z"></path>
      <path class="cls-10" d="M79.35,274.83a.17.17,0,0,1,.16-.23,2.76,2.76,0,0,1,.38,0s.38.37.46.43.14.06-.14.09-.27.09-.5,0A.66.66,0,0,1,79.35,274.83Z"></path>
      <path class="cls-11" d="M79.89,274.59s.16.18.27.33.11.21.28.16.59,0,.73-.15.12-.1,0-.29a.82.82,0,0,0-.47-.37.51.51,0,0,0-.54,0A1.11,1.11,0,0,0,79.89,274.59Z"></path>
      <path class="cls-67" d="M89.24,271.55s-2.19-1.62-4.12-.45-2.34,3-1.84,3.53a8,8,0,0,0,1,.6c.65.38,1.39-1.35,1.44-1.37S89.24,271.55,89.24,271.55Z"></path>
      <path class="cls-9" d="M91,273.79s-1.36-2.69-2.44-2.45-2.33.37-2.33.37l-.18.59s1.53,1.61,2,1.65,1.32,0,1.53.07A11.1,11.1,0,0,0,91,273.79Z"></path>
      <path class="cls-10" d="M91,274.17c0-.27,0-1-.69-1a11.36,11.36,0,0,0-1.47.05s-1.38,1.72-1.67,2-.51.32.55.37,1.11.3,2,0A2.72,2.72,0,0,0,91,274.17Z"></path>
      <path class="cls-11" d="M88.8,273.22a13.63,13.63,0,0,0-.94,1.54c-.35.72-.39.92-1.07.77s-2.3,0-2.84-.48-.53-.44-.21-1.28a3.25,3.25,0,0,1,1.7-1.73,1.82,1.82,0,0,1,2.11-.07A4.66,4.66,0,0,1,88.8,273.22Z"></path>
      <path class="cls-67" d="M77.58,274.07A2.73,2.73,0,0,0,75,275c-.81,1.27-.51,2.5-.06,2.66a6.4,6.4,0,0,0,.76.07c.5,0,.44-1.22.46-1.24S77.58,274.07,77.58,274.07Z"></path>
      <path class="cls-9" d="M79.27,274.92s-1.61-1.22-2.19-.75-1.29.9-1.29.9l.07.41a5.38,5.38,0,0,0,1.68.4c.29-.11.81-.37.94-.41A7.38,7.38,0,0,0,79.27,274.92Z"></path>
      <path class="cls-10" d="M79.38,275.14c-.06-.17-.26-.59-.71-.4a7.8,7.8,0,0,0-.86.47s-.32,1.44-.41,1.69-.22.35.44.06.75-.14,1.17-.6A1.8,1.8,0,0,0,79.38,275.14Z"></path>
      <path class="cls-11" d="M77.81,275.21a8.94,8.94,0,0,0-.11,1.2c0,.53,0,.67-.42.78s-1.37.68-1.85.54-.44-.1-.5-.7a2.15,2.15,0,0,1,.52-1.54,1.19,1.19,0,0,1,1.24-.66A3.1,3.1,0,0,1,77.81,275.21Z"></path>
    </g>
  </g>
</svg>
