<?xml version="1.0" encoding="UTF-8"?>
<svg xmlns="http://www.w3.org/2000/svg" xmlns:xlink="http://www.w3.org/1999/xlink" viewBox="0 0 113.86 193.57">
  <defs>
    <style>.cls-1,.cls-16,.cls-17{fill:none;}.cls-2{fill:#8e6848;}.cls-3{clip-path:url(#clip-path);}.cls-4{fill:url(#Безымянный_градиент_2);}.cls-5{fill:#713e21;}.cls-6{fill:#3d271f;}.cls-7{fill:#69391e;}.cls-8{fill:#6b472f;}.cls-9{fill:#5c3624;}.cls-10{fill:#795135;}.cls-11{fill:#9a734f;}.cls-12{fill:#cacac9;}.cls-13{fill:#85563a;}.cls-14{fill:#79a05b;}.cls-15{fill:#769b57;}.cls-16,.cls-17{stroke:#79a05b;stroke-miterlimit:10;}.cls-16{stroke-width:0.71px;}.cls-17{stroke-width:1.92px;}.cls-18{fill:#6b482f;}</style>
    <clipPath id="clip-path">
      <polygon class="cls-1" points="11.2 164.9 61.17 188.42 107.39 165.01 59.34 144.65 11.2 164.9"></polygon>
    </clipPath>
    <linearGradient id="Безымянный_градиент_2" x1="-2391.25" y1="-1097.36" x2="-2388.45" y2="-1097.36" gradientTransform="matrix(34.36, 0, 0, -34.36, 82153.89, -37534.76)" gradientUnits="userSpaceOnUse">
      <stop offset="0" stop-color="#9b714e"></stop>
      <stop offset="0.38" stop-color="#9b714e"></stop>
      <stop offset="0.89" stop-color="#764528"></stop>
      <stop offset="1" stop-color="#6e3c20"></stop>
    </linearGradient>
  </defs>
  <g id="Слой_2" data-name="Слой 2">
    <g id="Слой_1-2" data-name="Слой 1">
      <path class="cls-2" d="M61.17,122.26s9.62,11.3,17.06,11.76S111,126.46,111,126.46L113.6,100,61.17,81.54Z"></path>
      <path class="cls-2" d="M3.48,98.16l5.23,34.47s18.58,2.79,21.83,1.86S48.66,128,52.84,128s8.33-5.72,8.33-5.72V81.54Z"></path>
      <g class="cls-3">
        <rect class="cls-4" x="34.87" y="117.33" width="48.87" height="98.4" transform="translate(-110.18 216.81) rotate(-86.92)"></rect>
      </g>
      <path class="cls-5" d="M11.2,164.9,8.71,132.63s23.69-.46,30.19-3.72,22.27-6.65,22.27-6.65l-1.83,22.39Z"></path>
      <path class="cls-6" d="M45,134.63A8.44,8.44,0,0,0,42.13,133l0,0s-3.79-1.13-5.85,1.41-1.71,5.29-.77,5.73a12.35,12.35,0,0,0,1.63.35l.09-.05a28.27,28.27,0,0,0,3.51-.79,2.11,2.11,0,0,0,.61-.16l.64-.19c1.49-.46,1.67-.13,2.69-1a4,4,0,0,0,1.09-2.55l-.21-.5h0l-.05,0a1,1,0,0,0-.58-.51"></path>
      <path class="cls-6" d="M24.68,138a11,11,0,0,0-4,1.33v0s-4.3,2.69-3.59,6.84,3.66,6.13,4.88,5.6a13.64,13.64,0,0,0,1.71-1.28l0-.13c.92-1,1.59-3.16,2.21-4a2.1,2.1,0,0,0,.35-.72c.11-.21.21-.42.38-.79.8-1.82,1.28-1.71,1.29-3.46a5.12,5.12,0,0,0-1.54-3.21,3.36,3.36,0,0,0-.66-.22v0h-.08a1.31,1.31,0,0,0-1,.14"></path>
      <path class="cls-7" d="M61.17,122.26l-1.83,22.39L107.4,165,111,126.46s-15-1.73-21.48-.8-17.84,3.72-21.24,1.86a45.07,45.07,0,0,1-7.15-5.26"></path>
      <path class="cls-6" d="M42.87,145.26a3.49,3.49,0,0,0-1.26-.31h0a2.29,2.29,0,0,0-2,1.18c-.49,1.18,0,2.18.35,2.24l.65-.06,0,0a12.3,12.3,0,0,0,1.23-.69l.21-.13.22-.14c.51-.34.61-.24.9-.69a1.59,1.59,0,0,0,.12-1.08l-.13-.16h0Z"></path>
      <path class="cls-6" d="M90,135.62a2.32,2.32,0,0,0-.11-.89h0s-.38-1-1.27-1-1.43.5-1.38.78l.2.41h0l.75.63.13.11.15.11c.35.24.3.34.67.41a1,1,0,0,0,.73-.19l.07-.12h0v-.23Z"></path>
      <path class="cls-6" d="M103.37,151.81a11,11,0,0,0-1.9-3.82h0s-3.32-3.91-7.35-2.59-5.6,4.53-4.89,5.68a13.68,13.68,0,0,0,1.53,1.52l.13,0c1.19.77,3.39,1.13,4.37,1.61a2.24,2.24,0,0,0,.77.26l.84.26c1.93.54,1.9,1,3.64.79a5.19,5.19,0,0,0,3-2,3,3,0,0,0,.13-.68h0l0-.07a1.23,1.23,0,0,0-.28-1"></path>
      <path class="cls-6" d="M77.26,138.52a8.48,8.48,0,0,0-1.87,2.69v0s-1.41,3.67,1,5.9,5.11,2.09,5.62,1.19a12.49,12.49,0,0,0,.46-1.59l0-.1a27.85,27.85,0,0,0-.52-3.53,1.56,1.56,0,0,0-.12-.61c0-.17-.07-.35-.13-.66-.35-1.5,0-1.65-.81-2.74a4,4,0,0,0-2.44-1.26l-.51.17h0l0,0a.91.91,0,0,0-.54.53"></path>
      <path class="cls-8" d="M77.44,165.9a1.58,1.58,0,0,0,1.57-.41c.54-.7.43-1.44.17-1.55l-.44-.09c-.29,0-.32.69-.33.71Z"></path>
      <path class="cls-9" d="M76.5,165.32s.87.79,1.23.55.8-.46.8-.46l0-.24-1-.32L77,165Z"></path>
      <path class="cls-10" d="M76.44,165.19c0,.1.12.35.4.26a4.09,4.09,0,0,0,.52-.22l.33-1c.06-.14.14-.19-.25-.06s-.45.05-.72.29a1.11,1.11,0,0,0-.28.7"></path>
      <path class="cls-11" d="M77.36,165.23a5.57,5.57,0,0,0,.13-.7c0-.31,0-.39.28-.43s.84-.33,1.11-.22.26.08.26.44a1.28,1.28,0,0,1-.39.87.7.7,0,0,1-.75.32,1.87,1.87,0,0,1-.64-.28"></path>
      <path class="cls-8" d="M66.76,159.78s2.39.12,3.24-1.67.26-3.36-.36-3.49a6.06,6.06,0,0,0-1,0c-.65,0-.37,1.66-.39,1.7Z"></path>
      <path class="cls-9" d="M64.41,159s2.3,1.32,3,.62,1.53-1.4,1.53-1.4l-.15-.52a7.53,7.53,0,0,0-2.27-.25c-.36.2-1,.62-1.16.69Z"></path>
      <path class="cls-10" d="M64.22,158.68c.11.21.43.73,1,.4a8.38,8.38,0,0,0,1.05-.75s.18-1.94.26-2.29.22-.48-.58,0-1,.31-1.44,1a2.41,2.41,0,0,0-.28,1.66"></path>
      <path class="cls-11" d="M66.26,158.33a11.07,11.07,0,0,0-.05-1.59c-.09-.7-.16-.87.42-1.08s1.68-1.13,2.32-1,.6.06.77.84a2.88,2.88,0,0,1-.41,2.1,1.61,1.61,0,0,1-1.52,1.07,4,4,0,0,1-1.53-.31"></path>
      <path class="cls-8" d="M56.8,167.54s1.86,1.42,3.54.43,2-2.58,1.62-3a7,7,0,0,0-.84-.53c-.55-.33-1.21,1.15-1.25,1.17Z"></path>
      <path class="cls-9" d="M55.34,165.59s1.15,2.33,2.09,2.14a20,20,0,0,1,2-.3l.16-.5s-1.29-1.4-1.7-1.44-1.14-.05-1.32-.08Z"></path>
      <path class="cls-10" d="M55.34,165.27c0,.23-.05.83.59.87a10.13,10.13,0,0,0,1.26,0l1.46-1.71c.25-.25.45-.27-.47-.33s-1-.27-1.7,0a2.35,2.35,0,0,0-1.14,1.19"></path>
      <path class="cls-11" d="M57.19,166.1a11.08,11.08,0,0,0,.83-1.31c.3-.61.35-.79.93-.65s2,0,2.44.44.45.39.17,1.11a2.85,2.85,0,0,1-1.49,1.47,1.58,1.58,0,0,1-1.81,0,4,4,0,0,1-1.07-1.1"></path>
      <path class="cls-8" d="M52.5,161.11a2.67,2.67,0,0,0,.1-2.73c-.86-1.21-2.11-1.39-2.41-1l-.35.68c-.22.44,1,.84,1,.87Z"></path>
      <path class="cls-9" d="M51.11,162.34s1.7-1,1.49-1.72a15.08,15.08,0,0,1-.35-1.51l-.4-.09s-1,1.08-1,1.39,0,.87,0,1Z"></path>
      <path class="cls-10" d="M50.87,162.36c.18,0,.63,0,.62-.5a7.72,7.72,0,0,0-.11-1l-1.4-1c-.2-.17-.23-.32-.21.38s-.15.74.12,1.3a1.75,1.75,0,0,0,1,.78"></path>
      <path class="cls-11" d="M51.38,160.9a7.93,7.93,0,0,0-1.06-.54c-.49-.19-.62-.21-.55-.67s-.13-1.51.17-1.89.26-.37.84-.2a2.12,2.12,0,0,1,1.21,1,1.18,1.18,0,0,1,.15,1.38,3,3,0,0,1-.76.88"></path>
      <path class="cls-8" d="M44,163.12a1.17,1.17,0,0,0,.38-1.12c-.2-.61-.69-.84-.86-.73l-.23.23.29.49Z"></path>
      <path class="cls-9" d="M43.3,163.45s.84-.2.84-.52,0-.67,0-.67l-.15-.09-.58.45-.12.42Z"></path>
      <path class="cls-10" d="M43.19,163.43l.33-.13.08-.41-.46-.59c-.06-.1,0-.17-.13.13s-.16.29-.12.55a.77.77,0,0,0,.3.45"></path>
      <path class="cls-11" d="M43.6,162.89l-.37-.36-.15-.35.32-.76.37,0a1,1,0,0,1,.37.59.51.51,0,0,1-.12.59Z"></path>
      <path class="cls-8" d="M41.44,167.79s1.64-2.64.13-4.72-3.65-2.39-4.18-1.77a8.62,8.62,0,0,0-.6,1.16c-.37.77,1.66,1.46,1.69,1.51Z"></path>
      <path class="cls-9" d="M39,170s2.94-1.8,2.56-3-.63-2.62-.63-2.62l-.69-.14s-1.69,1.88-1.69,2.42.08,1.51.06,1.75Z"></path>
      <path class="cls-10" d="M38.61,170c.31,0,1.1,0,1.07-.87a12.44,12.44,0,0,0-.19-1.66s-2.08-1.41-2.43-1.72-.42-.56-.37.66-.25,1.29.21,2.25A3.11,3.11,0,0,0,38.61,170"></path>
      <path class="cls-11" d="M39.49,167.45a14.22,14.22,0,0,0-1.84-.93c-.85-.33-1.08-.37-1-1.16s-.23-2.61.29-3.27.45-.65,1.44-.35a3.69,3.69,0,0,1,2.12,1.78,2.05,2.05,0,0,1,.27,2.38,5.33,5.33,0,0,1-1.31,1.55"></path>
      <path class="cls-12" d="M58.29,117.36c-3.19,3.71-8.78,7.71-6.51,13.33.28.68,1.39.38,1.11-.3-2.09-5.17,3.3-8.84,6.22-12.21.48-.56-.33-1.38-.82-.82Z"></path>
      <path class="cls-12" d="M59.16,122.58C57.62,126,56,129.48,54.52,133c-1,2.39-1.79,4.57-1.43,7.18.11.73,1.21.42,1.11-.3-.48-3.52,1.49-6.69,2.86-9.76l3.09-6.92c.3-.67-.69-1.26-1-.58Z"></path>
      <path class="cls-12" d="M60.09,130.53a25.74,25.74,0,0,1-1.26,9.39c-.85,2.23-1.88,4.19-1.92,6.63a.58.58,0,0,0,1.15,0c0-3,1.79-5.44,2.53-8.29a30.81,30.81,0,0,0,.65-7.73.58.58,0,0,0-1.15,0Z"></path>
      <path class="cls-12" d="M48.49,157.19c2.2-5.86,6.29-8.77,10.9-12.59,3.37-2.8,3.59-4.55,3.89-8.71.06-.74-1.09-.73-1.15,0-.23,3.17-1,5.8-3.55,7.89-1.63,1.35-3.46,2.46-5,3.87a22.61,22.61,0,0,0-6.15,9.24c-.26.69.85,1,1.11.3Z"></path>
      <path class="cls-12" d="M54.94,156.26a62.1,62.1,0,0,1,3.51-5.14,20.69,20.69,0,0,1,1.93-2.44,12.39,12.39,0,0,1,2.43-2l.07.07a20.48,20.48,0,0,1-1.73,2.59c-.62.83-1.38,1.53-2.07,2.3-1.38,1.54-2.75,3.07-4.06,4.68Z"></path>
      <path class="cls-12" d="M54.91,168.94c1.2-3.38,3.53-5.59,5-8.69s1.61-6.47,3-9.54c.31-.67-.68-1.26-1-.58-1.74,3.78-2,8-4.36,11.42a30.43,30.43,0,0,0-3.81,7.08c-.25.7.86,1,1.11.31Z"></path>
      <path class="cls-12" d="M59.56,119a6.81,6.81,0,0,0,7.8,6.41c.72-.12.42-1.23-.31-1.11a5.65,5.65,0,0,1-6.34-5.3c0-.74-1.18-.74-1.15,0Z"></path>
      <path class="cls-12" d="M60.74,123.67A3.46,3.46,0,0,0,63,125.42a21.15,21.15,0,0,0,2.92.67c2,.38,4,1,6,1.5a57.3,57.3,0,0,1,6,1.9,27.63,27.63,0,0,1,5.5,2.93l-.07.11a38.5,38.5,0,0,0-11.63-3.92c-2-.41-4.08-.67-6.08-1.24a13.72,13.72,0,0,1-3-1.11,4.85,4.85,0,0,1-1.31-1,2.78,2.78,0,0,1-.64-1.52Z"></path>
      <path class="cls-12" d="M62.46,125.43a19.25,19.25,0,0,1,4.34,4.65c1.21,1.69,2.31,3.44,3.48,5.11a16.21,16.21,0,0,0,4.23,4.31,8.54,8.54,0,0,0,5.77,1.59,8.72,8.72,0,0,1-6-1.27,16.22,16.22,0,0,1-4.62-4.19C68.42,134,67.25,132.3,66,130.7a18.27,18.27,0,0,0-4.22-4.16Z"></path>
      <path class="cls-12" d="M62,143.73a36.67,36.67,0,0,1,5.45,9.5c.24.69,1.35.39,1.11-.31A37.6,37.6,0,0,0,63,143.15c-.43-.59-1.43,0-1,.58Z"></path>
      <path class="cls-12" d="M62.29,143.29a246,246,0,0,1-1.39,30.58c-.08.73,1.07.73,1.15,0a246,246,0,0,0,1.39-30.58.58.58,0,0,0-1.15,0Z"></path>
      <path class="cls-12" d="M59.28,116.28l.13,7.72a.58.58,0,0,0,1.15,0l-.13-7.72a.58.58,0,0,0-1.15,0Z"></path>
      <path class="cls-12" d="M59.83,113.26c-3,4.7-.25,10.32-1.51,15.43-.17.72.94,1,1.11.31,1.21-4.93-1.42-10.7,1.39-15.16.4-.63-.6-1.21-1-.58Z"></path>
      <path class="cls-12" d="M61.55,133.76a.58.58,0,0,0,0-1.15.58.58,0,0,0,0,1.15Z"></path>
      <path class="cls-12" d="M62.13,135.89a32.16,32.16,0,0,1-.46,8.92l1.13.15,0-.78c0-.74-1.2-.74-1.15,0l0,.78c0,.61,1,.82,1.13.15a33.15,33.15,0,0,0,.5-9.22c-.06-.73-1.21-.74-1.15,0Z"></path>
      <path class="cls-12" d="M61.25,134.69a162.44,162.44,0,0,1-.4,18.59c-.06.65,1,.76,1.13.15.52-1.9.76-3.86,1.28-5.76a.57.57,0,0,0-1.1-.31c-.53,1.91-.77,3.86-1.29,5.76l1.13.16a162.44,162.44,0,0,0,.4-18.59c0-.74-1.18-.74-1.15,0Z"></path>
      <path class="cls-12" d="M61.11,138.26a6,6,0,0,1-.43,3c-.29.67.7,1.26,1,.58a7.15,7.15,0,0,0,.59-3.62c-.08-.73-1.23-.73-1.15,0Z"></path>
      <path class="cls-12" d="M58.5,117.66s2-8.15,3-2.8a204.09,204.09,0,0,1,2.31,22c-.23,3-.92,6-.37,9a11.93,11.93,0,0,0-1.2,4.44c0,1.44-.48.92-.63-4s-1.52-15.77-1.85-17.94S58.5,117.66,58.5,117.66Z"></path>
      <path class="cls-12" d="M59.06,117.81a11.58,11.58,0,0,1,.6-2c1.23-2.54,1.24-.6,1.63,1.07.89,3.82,1,8,1.41,11.92.62,6.55.79,13.19-.71,19.54-.31,1.32,0,3.66.39.91a27.33,27.33,0,0,0-.31-5.4c-.26-3.7-.69-7.39-1.13-11.08-.62-5-1.3-10-1.86-15.08-.08-.73-1.23-.74-1.15,0,.54,4.85,1.19,9.69,1.79,14.53.43,3.49.83,7,1.11,10.48.22,2.68-.18,5.91.73,8.46a.6.6,0,0,0,.55.42h.08a.6.6,0,0,0,.56-.42c2.41-10,1.51-20.29.21-30.52-.19-1.47-.09-8-2.25-8.15-1.78-.11-2.48,3.92-2.76,5A.58.58,0,0,0,59.06,117.81Z"></path>
      <polygon class="cls-13" points="3.29 98.46 61.22 123.97 113.86 100.44 61.22 80.87 3.29 98.46"></polygon>
      <path class="cls-14" d="M72.89,52.94c0,.6-.24.87-.84.84l0,0c0-.59.24-.87.84-.83Z"></path>
      <path class="cls-15" d="M31.51,39c-.51-.69-2.67-1.5-3.33-5.12s-5-4.71-.84-6.64c0,0-.86-3.8-2-4.46s.21-1.82,1.46-.76,3-.09,5.43,5.33c0,0,.18.52,1.09.06s1.78.76,1.37,3-1.32,11.26,3,15.19Z"></path>
      <path class="cls-15" d="M22.23,40.25a22.37,22.37,0,0,1-3,.68c-.68.12-5.26,3-6.72,3.25s-3.12.76-3.87-1.41c0,0-2.1-1.23-3.24-.79s-2.72.19-3-.47-.89-1.25-.72-1.6-.57-.77-.56-1S-.67,37.84.29,37.52a7.22,7.22,0,0,1,3,.27s.14-2.43,3.43-.21c0,0,.58.53,1.09-.64s2.2-2.93,5,.17c0,0,5.11,1.25,4.42,2s3.93-.51,4.49.33S22.62,39.87,22.23,40.25Z"></path>
      <path class="cls-15" d="M59.14,36.07c-.3-.82-5.68-11.64-10-12.91,0,0-2.29-.15-.92-2.1S40.13,16,39.88,15.63s-1.72-2-.39-3.31-8-4.17-8-4.17-1.17-1.06-.39-2.07S22,2.55,22,2.55,20.43.67,25.06,1.69,34,3.62,34,3.62,33-.69,35.53.1c0,0,3.74,5.83,5.72,6.85C41.25,7,43,3.7,45,5.26l4.2,7.19s2.51-2.93,4.58.4,1.92,8.37,1.92,8.37a4.73,4.73,0,0,0,.88-2.54s.14-.85,2.23-.26c0,0-.79-11.93,3.85-7.18,0,0,4-8.59,5.84-7.67,0,0,1.32.09-.16,2.38S61.2,20,61.53,33.57c0,0,.57.75-.54,2.62a6.63,6.63,0,0,0,0,2c.22.72.35-.36,2.19-.41a2.92,2.92,0,0,0-.14-2.37c-.6-1.58-1.28-6.41,3.17-5.81,0,0,.45-6.71,1.57-7s1.56,7,1.56,7,5.59-1.33.68,5.66c0,0-.66.13.2,1.49s-1.16,4.88-5.4,7.37l-1.68,1.19s-1.41,4.45-2,5.82c-1.67-.64-3.61-4.73-6-4.53s-4.92,2-5.16.3.33-3.11,1.25-3.52-2.73-.78-5.13-1.06-3-2.09-1.52-2.82-8.8-2.72-10.39-2.65-2.94-1.2,1.13-1.1,4.18,1.05,4.07.09.67-4.62,6.82.52c0,0,1.38,1.34,1.47-.78s4-1.8,5.82,1.22,2.68,3.19,2.94,2-.61-2.34-.17-2.73,1.48.87,2.34,2.11,1.37.68.93-.71Z"></path>
      <path class="cls-15" d="M64.68,53.8c.6-1,.46-4.22,4.72-7s3.27-9,8-4.68c0,0,4.37-3.16,4.59-5s2.44-.72,1.76,1.45,1.78,3.84-3.85,9.84c0,0-.57.51.52,1.41s0,2.7-3.06,3.38S63.76,56.58,61.12,64.29Z"></path>
      <path class="cls-15" d="M52.22,60.29a14.23,14.23,0,0,0-12.38-4.06c-7.68,1.24-4,4.06-4,4.06s-11.08,4.6-4.45,17.59c0,0,1.68,1.86,2.21-.7s-.09-3.1,1-5.39S37.19,66,38,66.39s1.77,3.72,3.36.45S47.18,58.88,52.22,60.29Z"></path>
      <path class="cls-15" d="M49.89,58.79c0,4.72,3.65-10.25,8-7.54,0,0-.72-6.13-6.14-5.54a4.46,4.46,0,0,0-4,3.84C47.51,51.49,49.84,54,49.89,58.79Z"></path>
      <path class="cls-15" d="M50.29,78.38s-21.12-9.9-20.18,15.55c0,0,1.68,3.19,4.36-6.71,0,0-.83-.48,2.36-.71S44.08,76,50.29,78.38Z"></path>
      <path class="cls-15" d="M69.47,81.57a1,1,0,0,0,.41-.49c.66-1.91,2.87-10.14,5-12s2.65-4,3.55-.34c.12.51-.19.93-.42,1.4,0,0,.44-.27,2.17-1.41,3.71-2.45,9.23-6.48,8.35-3.32s-2,2.88.1,2.88,6-.87,8.37-.52,4.92,1.4-1.11,2.1C91,70.48,93,70.88,94,71a1.43,1.43,0,0,1,.73.33c.63.55,1.42,1.67-2.91,1.55-5.69-.17-4.11-.08-3.85.44s1.84,3.94-2.1,3.24a13.71,13.71,0,0,0-6.56.18c-.35.08,5.52,2.36.92,3S73.57,82,71,81.9C69.4,81.84,69.32,81.68,69.47,81.57Z"></path>
      <path class="cls-15" d="M66,85.38s16.29-3.07,5.74,12.69a34.2,34.2,0,0,1-.52-3.72c-.09-1.49-1.9,1.22-.65-3.85,0,0-2.59.13-1.28-4A7.21,7.21,0,0,0,66,85.38Z"></path>
      <path class="cls-15" d="M67.26,85.38s2.71-5.56,2.89-8.89a72.93,72.93,0,0,0-.7-10.41c-.18-1.14-2.19,2.18-2.19,6s1.49,4.25,0,3.81-2.36-1-3.06,1.07S67.26,85.38,67.26,85.38Z"></path>
      <path class="cls-14" d="M70.63,79.88C65.8,85,60.72,90.55,59.31,97.69c-.2,1,1.32,1.41,1.52.42C62.19,91.23,67.09,85.93,71.74,81c.69-.74-.42-1.85-1.11-1.11Z"></path>
      <path class="cls-16" d="M44.63,77.8c8.71-.7,11.07,6,15.12,6.09"></path>
      <path class="cls-15" d="M33.35,43.07s-6.53-2-12.18,4.17c0,0-1.31,1.72.66,2.22,0,0-5.73,4.52-5.8,7.18s-.07,1.86.59,2.44-.22,6.53,1.76,8,2.27-7.24,2.27-7.24,2.24,3.41,4-7.88c0,0,4.42,2.42,5.37-2.39s3.53-5.52,5.14-5.31S33.35,43.07,33.35,43.07Z"></path>
      <path class="cls-14" d="M21.17,40.63c14.83-.3,26.62,13,33.16,24.9a71.42,71.42,0,0,1,5.58,13.18c.24.8,1.51.46,1.25-.35A70.62,70.62,0,0,0,49.4,55.67C44.78,49.79,39,44.49,32,41.53a26.55,26.55,0,0,0-10.86-2.21.66.66,0,0,0,0,1.31Z"></path>
      <path class="cls-17" d="M61.06,38.26c.93,31.68.79,16.76-.5,48.44-.65,16.2.44.56-.21,16.77"></path>
      <path class="cls-18" d="M61.55,106.36a1.32,1.32,0,0,0-1.26-.47c-.69.22-1,.77-.85,1,0,0,.18.18.26.27s.54-.32.56-.32Z"></path>
      <path class="cls-9" d="M61.92,107.2s-.22-1-.58-1a7.38,7.38,0,0,1-.76-.07l-.1.17s.35.63.5.68.41.11.47.14S61.92,107.2,61.92,107.2Z"></path>
      <path class="cls-10" d="M61.89,107.32c0-.09.09-.3-.14-.37a3.23,3.23,0,0,0-.46-.1s-.57.43-.69.5-.18.06.15.16.32.18.62.14A.86.86,0,0,0,61.89,107.32Z"></path>
      <path class="cls-11" d="M61.29,106.85a3.28,3.28,0,0,0-.42.41c-.17.2-.2.26-.4.16s-.72-.18-.85-.38-.14-.17,0-.42a1,1,0,0,1,.67-.4.58.58,0,0,1,.67.14A1.45,1.45,0,0,1,61.29,106.85Z"></path>
      <path class="cls-18" d="M43.69,99.86a1.94,1.94,0,0,0-1.95-.28c-.94.53-1.16,1.41-.93,1.65a3.72,3.72,0,0,0,.45.31c.3.19.68-.62.7-.63Z"></path>
      <path class="cls-9" d="M44.46,101s-.6-1.3-1.12-1.2-1.11.13-1.11.13l-.09.28s.69.79.92.82.63,0,.72.06A4.71,4.71,0,0,0,44.46,101Z"></path>
      <path class="cls-10" d="M44.46,101.14c0-.13,0-.46-.31-.49a5.62,5.62,0,0,0-.7,0s-.68.79-.82.92-.25.15.25.19.52.16.94,0A1.28,1.28,0,0,0,44.46,101.14Z"></path>
      <path class="cls-11" d="M43.45,100.66a6.72,6.72,0,0,0-.47.71c-.18.34-.2.43-.52.35s-1.09,0-1.35-.28-.24-.21-.07-.61a1.53,1.53,0,0,1,.83-.79.88.88,0,0,1,1,0A2.2,2.2,0,0,1,43.45,100.66Z"></path>
      <path class="cls-18" d="M56.31,97.28s-4-2-6.84.45-2.95,5.6-2,6.27a12.17,12.17,0,0,0,1.76.71c1.16.43,1.88-2.6,2-2.64S56.31,97.28,56.31,97.28Z"></path>
      <path class="cls-9" d="M59.74,100.46s-3-4-4.68-3.3-3.69,1.27-3.69,1.27l-.11,1s2.93,2.18,3.71,2.12,2.17-.32,2.52-.33A17,17,0,0,0,59.74,100.46Z"></path>
      <path class="cls-10" d="M59.86,101.06c0-.44-.21-1.58-1.41-1.42a16.7,16.7,0,0,0-2.37.5s-1.76,3.2-2.15,3.74-.75.67,1,.45,1.89.18,3.21-.62A4.57,4.57,0,0,0,59.86,101.06Z"></path>
      <path class="cls-11" d="M56.08,100.14a21.57,21.57,0,0,0-1.1,2.78c-.36,1.26-.38,1.61-1.53,1.55s-3.73.69-4.77,0-1-.56-.69-2,1-2.16,2.28-3.3a3,3,0,0,1,3.41-.71A7.78,7.78,0,0,1,56.08,100.14Z"></path>
      <path class="cls-18" d="M71.78,98.57s-2.32-3.16-5.47-2.38-4.5,3.17-4,4.07a10.31,10.31,0,0,0,1.09,1.25c.72.79,2.48-1.26,2.55-1.27S71.78,98.57,71.78,98.57Z"></path>
      <path class="cls-9" d="M73.18,102.39s-.73-4.28-2.32-4.41-3.36-.49-3.36-.49l-.49.74s1.41,2.86,2,3.12,1.81.61,2.07.74A14.36,14.36,0,0,0,73.18,102.39Z"></path>
      <path class="cls-10" d="M73,102.91c.15-.36.48-1.31-.52-1.67a16.1,16.1,0,0,0-2-.55s-2.63,1.78-3.15,2-.85.22.59.74,1.39.89,2.74.8A3.9,3.9,0,0,0,73,102.91Z"></path>
      <path class="cls-11" d="M70.47,100.69a18.26,18.26,0,0,0-2,1.71c-.79.84-.94,1.1-1.81.6s-3.16-1-3.7-1.88-.54-.82.27-1.84a4.62,4.62,0,0,1,3.07-1.65,2.62,2.62,0,0,1,2.93.8A6.75,6.75,0,0,1,70.47,100.69Z"></path>
      <path class="cls-18" d="M61,100.2s-3.33-2.56-6.35-.82S51,104,51.71,104.77a13,13,0,0,0,1.49,1c1,.6,2.19-2,2.26-2.07S61,100.2,61,100.2Z"></path>
      <path class="cls-9" d="M63.58,103.73s-2-4.2-3.7-3.86-3.61.49-3.61.49l-.28.91s2.3,2.53,3,2.61,2.05.1,2.36.16A15.83,15.83,0,0,0,63.58,103.73Z"></path>
      <path class="cls-10" d="M63.58,104.31c0-.41.1-1.49-1-1.56a17.44,17.44,0,0,0-2.27,0s-2.19,2.62-2.64,3-.81.47.83.58,1.7.51,3.06,0A4.29,4.29,0,0,0,63.58,104.31Z"></path>
      <path class="cls-11" d="M60.28,102.78a20.15,20.15,0,0,0-1.51,2.35c-.56,1.1-.64,1.41-1.68,1.15s-3.55,0-4.37-.84-.81-.69-.28-2,1.27-1.81,2.69-2.61a2.78,2.78,0,0,1,3.25,0A7.07,7.07,0,0,1,60.28,102.78Z"></path>
      <path class="cls-18" d="M78.32,106a2,2,0,0,0,1.85-.92c.49-1,.17-1.89-.18-2a3.76,3.76,0,0,0-.57,0c-.37,0-.22.94-.23,1S78.32,106,78.32,106Z"></path>
      <path class="cls-9" d="M77,105.55s1.29.77,1.68.38a9.92,9.92,0,0,1,.88-.78l-.09-.3a4,4,0,0,0-1.27-.15c-.21.1-.57.34-.66.38A4.77,4.77,0,0,0,77,105.55Z"></path>
      <path class="cls-10" d="M76.9,105.4c.06.11.24.41.55.23a4.74,4.74,0,0,0,.6-.41s.12-1.09.17-1.29.13-.27-.33,0-.55.17-.82.54A1.35,1.35,0,0,0,76.9,105.4Z"></path>
      <path class="cls-11" d="M78.05,105.22a6.78,6.78,0,0,0,0-.9c-.05-.39-.08-.49.24-.61s1-.62,1.32-.56.34,0,.43.48a1.62,1.62,0,0,1-.25,1.18.93.93,0,0,1-.87.6A2.45,2.45,0,0,1,78.05,105.22Z"></path>
      <path class="cls-18" d="M34,108.35a2,2,0,0,0,1.85-.91c.49-1,.17-1.9-.18-2-.09,0-.39,0-.57,0-.37,0-.22.94-.23,1S34,108.35,34,108.35Z"></path>
      <path class="cls-9" d="M32.66,107.86s1.29.77,1.68.38.88-.78.88-.78l-.09-.29a4,4,0,0,0-1.27-.16c-.21.11-.57.34-.66.38A4.77,4.77,0,0,0,32.66,107.86Z"></path>
      <path class="cls-10" d="M32.56,107.71c.06.12.24.42.55.23a4.74,4.74,0,0,0,.6-.41s.12-1.09.17-1.29.13-.27-.33,0-.54.17-.82.55A1.32,1.32,0,0,0,32.56,107.71Z"></path>
      <path class="cls-11" d="M33.71,107.53a6.76,6.76,0,0,0,0-.9c-.05-.39-.08-.49.24-.61s1-.62,1.32-.55.34,0,.43.48a1.63,1.63,0,0,1-.25,1.18.92.92,0,0,1-.86.59A2.46,2.46,0,0,1,33.71,107.53Z"></path>
      <path class="cls-18" d="M46.65,106.75a2.56,2.56,0,0,0,2.43-1c.72-1.23.38-2.39,0-2.52a3.84,3.84,0,0,0-.73,0c-.47,0-.36,1.17-.38,1.19S46.65,106.75,46.65,106.75Z"></path>
      <path class="cls-9" d="M45,106s1.57,1.08,2.11.62,1.18-.91,1.18-.91l-.08-.38a5.24,5.24,0,0,0-1.61-.32c-.28.12-.75.39-.88.43A6.53,6.53,0,0,0,45,106Z"></path>
      <path class="cls-10" d="M44.89,105.81c.07.16.27.55.69.35a6.92,6.92,0,0,0,.8-.48s.25-1.37.32-1.62.19-.33-.42,0-.7.17-1.09.62A1.75,1.75,0,0,0,44.89,105.81Z"></path>
      <path class="cls-11" d="M46.38,105.68a8.26,8.26,0,0,0,.06-1.14c0-.5-.06-.63.36-.75s1.28-.71,1.73-.6.43.09.5.65a2,2,0,0,1-.42,1.48,1.15,1.15,0,0,1-1.15.68A2.91,2.91,0,0,1,46.38,105.68Z"></path>
      <path class="cls-18" d="M55.89,105a1.63,1.63,0,0,1,1.5-.23c.74.33.93.93.76,1.1a3.42,3.42,0,0,1-.34.22c-.23.13-.55-.41-.56-.42S55.89,105,55.89,105Z"></path>
      <path class="cls-9" d="M55.31,105.72s.44-.9.84-.85.87.08.87.08l.08.18s-.53.56-.7.58l-.56.05A3.71,3.71,0,0,1,55.31,105.72Z"></path>
      <path class="cls-10" d="M55.32,105.84a.25.25,0,0,1,.23-.34c.27,0,.54,0,.54,0s.55.53.66.62.2.09-.19.13-.4.12-.73,0A.94.94,0,0,1,55.32,105.84Z"></path>
      <path class="cls-11" d="M56.09,105.49a3.39,3.39,0,0,1,.38.48c.15.22.17.29.41.23s.85,0,1-.22.18-.15,0-.42a1.15,1.15,0,0,0-.66-.52.74.74,0,0,0-.78,0A1.59,1.59,0,0,0,56.09,105.49Z"></path>
      <path class="cls-18" d="M69.46,101.14s-3.13-2.31-5.88-.65-3.35,4.33-2.63,5.05a11.26,11.26,0,0,0,1.39.87c.93.53,2-1.93,2-2S69.46,101.14,69.46,101.14Z"></path>
      <path class="cls-9" d="M71.91,104.35s-1.94-3.85-3.5-3.5-3.32.52-3.32.52l-.25.85s2.17,2.3,2.84,2.36,1.9,0,2.19.1A14.49,14.49,0,0,0,71.91,104.35Z"></path>
      <path class="cls-10" d="M71.92,104.89c0-.39.06-1.38-1-1.43a15.86,15.86,0,0,0-2.1.08s-2,2.46-2.39,2.86-.74.46.79.53,1.58.44,2.82-.05A3.9,3.9,0,0,0,71.92,104.89Z"></path>
      <path class="cls-11" d="M68.84,103.54a17.6,17.6,0,0,0-1.35,2.2c-.5,1-.56,1.32-1.53,1.09s-3.29,0-4.07-.69-.75-.62-.29-1.83A4.57,4.57,0,0,1,64,101.85a2.59,2.59,0,0,1,3-.11A6.73,6.73,0,0,1,68.84,103.54Z"></path>
      <path class="cls-18" d="M52.78,104.75s-2.56-.46-3.72,1.35-.73,3.59-.09,3.81a7.13,7.13,0,0,0,1.09.1c.72.06.63-1.74.66-1.77S52.78,104.75,52.78,104.75Z"></path>
      <path class="cls-9" d="M55.2,106s-2.3-1.74-3.13-1.07-1.84,1.29-1.84,1.29l.1.59a8,8,0,0,0,2.4.57c.42-.16,1.16-.53,1.34-.59A9.25,9.25,0,0,0,55.2,106Z"></path>
      <path class="cls-10" d="M55.36,106.28c-.09-.24-.37-.85-1-.57a10,10,0,0,0-1.23.66s-.46,2.06-.59,2.43-.31.49.62.09,1.08-.21,1.69-.87A2.55,2.55,0,0,0,55.36,106.28Z"></path>
      <path class="cls-11" d="M53.12,106.37a11.06,11.06,0,0,0-.16,1.72c0,.77,0,1-.6,1.11s-2,1-2.65.79-.63-.15-.71-1a3.07,3.07,0,0,1,.73-2.2,1.74,1.74,0,0,1,1.78-1A4.47,4.47,0,0,1,53.12,106.37Z"></path>
    </g>
  </g>
</svg>
