<?xml version="1.0" encoding="UTF-8"?>
<svg xmlns="http://www.w3.org/2000/svg" xmlns:xlink="http://www.w3.org/1999/xlink" viewBox="0 0 108.59 154">
  <defs>
    <style>.cls-1{fill:#8e6848;}.cls-2{fill:url(#Безымянный_градиент_7);}.cls-3{fill:#713e21;}.cls-4{fill:#3d271f;}.cls-5{fill:#69391e;}.cls-6{fill:#6b482f;}.cls-7{fill:#5c3624;}.cls-8{fill:#795135;}.cls-9{fill:#9a734f;}.cls-10{fill:#fff;}.cls-11{fill:#85563a;}.cls-12{fill:#789f5b;}</style>
    <linearGradient id="Безымянный_градиент_7" x1="51.77" y1="191.75" x2="56.86" y2="97.03" gradientUnits="userSpaceOnUse">
      <stop offset="0.38" stop-color="#9b714f"></stop>
      <stop offset="0.91" stop-color="#754427"></stop>
      <stop offset="1" stop-color="#6e3c20"></stop>
    </linearGradient>
  </defs>
  <g id="Слой_2" data-name="Слой 2">
    <g id="Слой_1-2" data-name="Слой 1">
      <path class="cls-1" d="M56.89,88.76s9.49,11.14,16.82,11.6,32.36-7.46,32.36-7.46l2.52-26.06L56.89,48.6Z"></path>
      <path class="cls-1" d="M0,65,5.16,99s18.32,2.75,21.53,1.83,17.86-6.41,22-6.41,8.22-5.65,8.22-5.65V48.6Z"></path>
      <polygon class="cls-2" points="7.62 130.81 56.89 154 102.47 130.92 55.08 110.84 7.62 130.81"></polygon>
      <path class="cls-3" d="M7.62,130.81,5.16,99s23.36-.46,29.77-3.67,22-6.56,22-6.56l-1.81,22.08Z"></path>
      <path class="cls-4" d="M40.91,101a8.36,8.36,0,0,0-2.79-1.64v0s-3.73-1.11-5.76,1.4-1.69,5.21-.77,5.65a12.53,12.53,0,0,0,1.61.34s.06,0,.09,0a27.07,27.07,0,0,0,3.46-.78,1.76,1.76,0,0,0,.6-.16l.64-.18c1.46-.46,1.64-.13,2.65-1A3.92,3.92,0,0,0,41.72,102a2.19,2.19,0,0,0-.2-.49h0l0,0A1,1,0,0,0,40.91,101Z"></path>
      <path class="cls-4" d="M20.91,104.25a10.8,10.8,0,0,0-4,1.3v0s-4.24,2.66-3.54,6.75,3.61,6,4.81,5.53a14.48,14.48,0,0,0,1.69-1.27s0-.09,0-.13c.9-1,1.57-3.11,2.17-4a2.21,2.21,0,0,0,.36-.7c.1-.2.2-.42.36-.78.8-1.79,1.27-1.69,1.28-3.41a5,5,0,0,0-1.52-3.16,3.4,3.4,0,0,0-.65-.23v0h-.08A1.22,1.22,0,0,0,20.91,104.25Z"></path>
      <path class="cls-5" d="M56.89,88.76l-1.81,22.08,47.39,20.08,3.6-38s-14.78-1.7-21.19-.79S67.3,95.78,63.94,94A44.21,44.21,0,0,1,56.89,88.76Z"></path>
      <path class="cls-4" d="M38.84,111.45a3.15,3.15,0,0,0-1.23-.31h0a2.27,2.27,0,0,0-2,1.17c-.48,1.17-.05,2.15.34,2.21a4.58,4.58,0,0,0,.65-.06s0,0,0,0a11.12,11.12,0,0,0,1.21-.68.57.57,0,0,0,.2-.13l.22-.14c.5-.33.61-.23.89-.67a1.56,1.56,0,0,0,.12-1.07l-.13-.16h0A.34.34,0,0,0,38.84,111.45Z"></path>
      <path class="cls-4" d="M85.27,101.94a2.25,2.25,0,0,0-.11-.88h0s-.37-1-1.25-1-1.41.5-1.35.77a2,2,0,0,0,.19.41s0,0,0,0a9,9,0,0,0,.74.62.46.46,0,0,0,.14.1l.14.11c.34.24.3.34.66.41a1.09,1.09,0,0,0,.72-.18.76.76,0,0,0,.07-.13h0A.26.26,0,0,0,85.27,101.94Z"></path>
      <path class="cls-4" d="M98.51,117.9a10.94,10.94,0,0,0-1.88-3.77h0s-3.27-3.85-7.25-2.55-5.52,4.47-4.82,5.6a14,14,0,0,0,1.5,1.5s.1,0,.14,0c1.17.76,3.34,1.12,4.31,1.59a2.08,2.08,0,0,0,.76.25c.21.08.44.15.83.26,1.9.53,1.87,1,3.58.78a5.08,5.08,0,0,0,2.94-2,3.05,3.05,0,0,0,.13-.67h0l0-.08A1.23,1.23,0,0,0,98.51,117.9Z"></path>
      <path class="cls-4" d="M72.75,104.8a8.36,8.36,0,0,0-1.83,2.65l0,0s-1.38,3.62.95,5.82,5,2,5.54,1.17a10.45,10.45,0,0,0,.45-1.57s0-.06,0-.09a28.28,28.28,0,0,0-.52-3.48,1.8,1.8,0,0,0-.11-.61c0-.16-.07-.35-.14-.65-.34-1.47,0-1.63-.79-2.69a3.89,3.89,0,0,0-2.41-1.25,2.4,2.4,0,0,0-.51.16h0l0,0A1,1,0,0,0,72.75,104.8Z"></path>
      <path class="cls-6" d="M72.93,131.8a1.57,1.57,0,0,0,1.55-.41c.53-.69.42-1.41.17-1.53a2.78,2.78,0,0,0-.43-.08c-.29,0-.32.68-.33.69Z"></path>
      <path class="cls-7" d="M72,131.23s.87.78,1.23.54a8.29,8.29,0,0,1,.78-.46l0-.23a3.2,3.2,0,0,0-.94-.32c-.18.05-.49.17-.56.19A3.4,3.4,0,0,0,72,131.23Z"></path>
      <path class="cls-8" d="M72,131.09c0,.1.12.36.39.27a3.45,3.45,0,0,0,.52-.23s.26-.81.32-.95.14-.19-.25-.06-.44,0-.71.29A1.08,1.08,0,0,0,72,131.09Z"></path>
      <path class="cls-9" d="M72.86,131.13a4.14,4.14,0,0,0,.12-.68c0-.31,0-.39.28-.43s.83-.32,1.1-.22.25.09.25.44a1.24,1.24,0,0,1-.38.85.7.7,0,0,1-.75.32A1.8,1.8,0,0,1,72.86,131.13Z"></path>
      <path class="cls-6" d="M62.4,125.76s2.36.12,3.2-1.65.25-3.31-.36-3.44a7.11,7.11,0,0,0-1,0c-.65,0-.37,1.64-.39,1.68S62.4,125.76,62.4,125.76Z"></path>
      <path class="cls-7" d="M60.08,124.94s2.27,1.31,3,.61,1.51-1.38,1.51-1.38l-.16-.51a7,7,0,0,0-2.23-.24c-.36.19-1,.61-1.15.68A9.13,9.13,0,0,0,60.08,124.94Z"></path>
      <path class="cls-8" d="M59.9,124.68c.11.2.43.72,1,.39a9.34,9.34,0,0,0,1-.74s.18-1.91.25-2.25.23-.48-.57,0-1,.31-1.42,1A2.39,2.39,0,0,0,59.9,124.68Z"></path>
      <path class="cls-9" d="M61.91,124.33a10.79,10.79,0,0,0,0-1.57c-.09-.68-.16-.85.41-1.07s1.66-1.11,2.29-1,.59.07.76.83a2.8,2.8,0,0,1-.41,2.07,1.55,1.55,0,0,1-1.49,1.06A4.1,4.1,0,0,1,61.91,124.33Z"></path>
      <path class="cls-6" d="M52.58,133.42s1.84,1.39,3.49.42,2-2.54,1.59-3a6,6,0,0,0-.82-.52c-.54-.32-1.19,1.13-1.23,1.15S52.58,133.42,52.58,133.42Z"></path>
      <path class="cls-7" d="M51.15,131.49s1.12,2.3,2.05,2.11,2-.29,2-.29l.15-.5s-1.28-1.38-1.67-1.42-1.13,0-1.3-.08A9,9,0,0,0,51.15,131.49Z"></path>
      <path class="cls-8" d="M51.15,131.17c0,.23,0,.82.57.86A9.81,9.81,0,0,0,53,132s1.19-1.45,1.44-1.69.44-.26-.46-.31-.94-.27-1.68,0A2.32,2.32,0,0,0,51.15,131.17Z"></path>
      <path class="cls-9" d="M53,132a9.8,9.8,0,0,0,.82-1.3c.3-.6.34-.78.92-.64s1.95,0,2.41.44.44.38.16,1.09A2.78,2.78,0,0,1,55.8,133a1.53,1.53,0,0,1-1.78,0A4.15,4.15,0,0,1,53,132Z"></path>
      <path class="cls-6" d="M48.34,127.07a2.63,2.63,0,0,0,.1-2.69c-.85-1.19-2.08-1.37-2.38-1a5.58,5.58,0,0,0-.34.66c-.22.44.94.84,1,.87Z"></path>
      <path class="cls-7" d="M47,128.29s1.68-1,1.47-1.7-.35-1.49-.35-1.49L47.7,125s-1,1.07-1,1.37,0,.86,0,1A7.19,7.19,0,0,0,47,128.29Z"></path>
      <path class="cls-8" d="M46.73,128.31c.17,0,.63,0,.61-.49a6.49,6.49,0,0,0-.1-.95s-1.19-.81-1.38-1-.24-.33-.22.37-.14.73.12,1.28A1.75,1.75,0,0,0,46.73,128.31Z"></path>
      <path class="cls-9" d="M47.24,126.87a8.22,8.22,0,0,0-1.05-.54c-.48-.19-.61-.21-.55-.66s-.12-1.48.18-1.86.26-.37.82-.2a2.08,2.08,0,0,1,1.2,1A1.19,1.19,0,0,1,48,126,3,3,0,0,1,47.24,126.87Z"></path>
      <path class="cls-6" d="M40,129.05a1.13,1.13,0,0,0,.38-1.1c-.19-.6-.68-.83-.85-.72a1.64,1.64,0,0,0-.23.23c-.14.15.29.46.29.48S40,129.05,40,129.05Z"></path>
      <path class="cls-7" d="M39.27,129.38s.82-.2.82-.51,0-.67,0-.67l-.15-.08s-.54.32-.58.44-.09.36-.12.42A3,3,0,0,0,39.27,129.38Z"></path>
      <path class="cls-8" d="M39.16,129.36c.08,0,.27.07.32-.12a2.44,2.44,0,0,0,.08-.41s-.39-.49-.45-.58,0-.17-.13.12-.16.29-.12.55A.77.77,0,0,0,39.16,129.36Z"></path>
      <path class="cls-9" d="M39.56,128.83a3.65,3.65,0,0,0-.36-.36c-.18-.14-.23-.16-.15-.34s.14-.63.31-.75.16-.12.37,0a.89.89,0,0,1,.36.57.49.49,0,0,1-.11.58A1.29,1.29,0,0,1,39.56,128.83Z"></path>
      <path class="cls-6" d="M37.43,133.66s1.62-2.6.13-4.66-3.6-2.35-4.12-1.74a8.53,8.53,0,0,0-.59,1.15c-.37.76,1.64,1.44,1.66,1.48S37.43,133.66,37.43,133.66Z"></path>
      <path class="cls-7" d="M35.06,135.79s2.9-1.77,2.53-3-.62-2.58-.62-2.58l-.68-.14s-1.67,1.85-1.67,2.38.08,1.5.06,1.73A11.91,11.91,0,0,0,35.06,135.79Z"></path>
      <path class="cls-8" d="M34.64,135.83c.31,0,1.09,0,1.06-.87a11.87,11.87,0,0,0-.19-1.63s-2.06-1.4-2.4-1.7-.41-.55-.36.65-.25,1.27.21,2.22A3.12,3.12,0,0,0,34.64,135.83Z"></path>
      <path class="cls-9" d="M35.51,133.33a13.54,13.54,0,0,0-1.81-.92c-.84-.33-1.07-.36-1-1.14s-.22-2.58.29-3.23.44-.64,1.41-.35a3.64,3.64,0,0,1,2.09,1.76,2,2,0,0,1,.27,2.35A5.18,5.18,0,0,1,35.51,133.33Z"></path>
      <path class="cls-10" d="M55.38,84.13l2.11,0c.92,1.54,1.82,3.09,2.75,4.63a7.83,7.83,0,0,0,4.07,3.38c.44.16.89.3,1.32.47.06,0,.14.2.11.23s-.24.31-.34.3a8.07,8.07,0,0,1-6-3.87c-.49-.76-.69-1.73-1.56-2.32a11.47,11.47,0,0,0,.32,6.43Q60,99,61.72,104.5a6,6,0,0,1,.23,1.1c0,.1-.18.24-.31.32s-.2,0-.23-.11c-.16-.34-.31-.68-.44-1a29.94,29.94,0,0,0-2.69-5.64c-.26.73-.45,1.2-.58,1.69-.68,2.55-1.33,5.12-2,7.68a5.72,5.72,0,0,1-.76,1.23c-.58-1.14-.09-2,.15-2.91A33.36,33.36,0,0,0,56.52,99a14.86,14.86,0,0,0-.4-4.79,20.16,20.16,0,0,1-.39-2.76c-.95.07-1.33.81-1.87,1.29s-1,1.14-1.54,1.67c-.13.13-.44.12-.67.1a.68.68,0,0,1-.08-.5,11.08,11.08,0,0,1,1.21-1.87c.68-.78,1.5-1.44,2.22-2.19.15-.16.09-.49.13-.74a2.3,2.3,0,0,0-.71.13c-1.59.85-3.15,1.76-4.75,2.57s-3.4,1.7-4.53,3.45a3.1,3.1,0,0,1,.14-1,6.71,6.71,0,0,1,2.9-2.63c1.5-.81,3-1.67,4.49-2.46a4.2,4.2,0,0,0,2.6-4.58A1.64,1.64,0,0,1,55.38,84.13Z"></path>
      <polygon class="cls-11" points="0 64.99 56.89 88.76 108.59 66.84 56.89 48.6 0 64.99"></polygon>
      <path class="cls-12" d="M72,10.35c.48-.55,1-1.08,1.46-1.64a4.5,4.5,0,0,0,.73-4.8,4.32,4.32,0,0,0-3.64-2.82,6.68,6.68,0,0,0-5.78,1.72A12.76,12.76,0,0,0,61.9,6.66,17.93,17.93,0,0,0,62,22.32a1.06,1.06,0,0,0,1.36.68c.46-.12,1-.06,1.4-.22a1.2,1.2,0,0,0,.69-.74A3.71,3.71,0,0,1,68,19.29a10.75,10.75,0,0,1,5-1c.76.06.82.16.59,1.1-.07.27-.12.53-.18.83a22.31,22.31,0,0,1,2.43.91,12.74,12.74,0,0,1,2.35,1.55c.91.77.93,1,.2,2.14a1.56,1.56,0,0,0-.24,1.55c.53,1.52,1.07,3,1.48,4.6a10.86,10.86,0,0,1,.12,5.38,22.72,22.72,0,0,1-6.08-1.54c-.56-.19-.9,0-.81.72,0,.45-.2.77-.63.73C69.6,36,66.92,36,64.41,34.37c-.56,1.24-1.11,2.4-1.61,3.58a15.38,15.38,0,0,0-1.52,3.56c2.59-.52,5-.71,7.28.59a9.8,9.8,0,0,1,4.37,5.67c2.1-1.2,2.53-1.23,4.45-.19a12.31,12.31,0,0,1,1.68,1.08c2.24,1.75,2.8,3.5,1.86,6.22a21,21,0,0,1-1.56,3c-.59,1.06-1.21,2.1-1.93,3.35a19.35,19.35,0,0,1-2-1.08c-.78-.35-1.54-.75-2.31-1.1s-1.4-.58-2.09-.9-1.57-.69-2.31-1.11a9.08,9.08,0,0,1-4.28-4.75,5.6,5.6,0,0,1,0-3.89,4,4,0,0,1,4.34-2.91,15.72,15.72,0,0,1,2,.35c0-1-.79-1.47-1.37-2a6.9,6.9,0,0,0-6.08-1.69,4.6,4.6,0,0,0-4,3.53,22,22,0,0,0-.8,6.18c.07,2.93.26,5.87.37,8.8.05,1,0,2.09,0,3.13l-2.11,0c-.08-4.07-.23-8.15-.23-12.22A30.93,30.93,0,0,1,57,46.75a10.47,10.47,0,0,0-.27-5.07,7.25,7.25,0,0,0-5.49-5.2c-1.16-.25-1.55,0-1.68,1.2a5.19,5.19,0,0,1-1.65,3.21C46.84,42,45.77,43,44.67,44.08c-.53.52-1,1.17-2,.54-.15-.1-.68.19-.92.42A11.29,11.29,0,0,0,39,49.9c-.19.6-.39,1.2-.73,2.23a15.58,15.58,0,0,1-.89-1.83,30.22,30.22,0,0,1-1.47-8.38c0-.79-.22-1.29-1.16-1.05-.11,0-.36-.16-.39-.28a3.06,3.06,0,0,1-.09-1.12,11.32,11.32,0,0,1,5.7-8.08,3.44,3.44,0,0,1,5.15,2.23c.17.76.42,1.27,1.28,1,1.15-.31,2,.59,3,.76a30.87,30.87,0,0,1,3.06.44A8.08,8.08,0,0,1,57.18,40c.32.58.53,1.21.86,1.78a.71.71,0,0,0,.65,0,2.8,2.8,0,0,0,.57-2.41c-.23-1.3-.51-2.6-.78-3.9s-.55-2.4-.7-3.61a7.73,7.73,0,0,1,2.32-7,1.75,1.75,0,0,0,.44-2.27,20.74,20.74,0,0,1-1.47-11.41,14.48,14.48,0,0,0,.12-2.55,5.72,5.72,0,0,0-.39-1.93C58,4.86,56.54,4.33,54.62,5.09a5.37,5.37,0,0,0-2.49,2.24,3.85,3.85,0,0,0-.3,1.06,2.84,2.84,0,0,0,1,.23A3.06,3.06,0,0,1,55,8.71,5.06,5.06,0,0,1,57,11c.57,1.29.28,1.94-1.18,2.49a5.88,5.88,0,0,0-3.61,3.39,1,1,0,0,1-1.37.61c-1.27-.36-2.55-.71-3.85-1a1.65,1.65,0,0,0-1.26.38c-1.19,1.09-2.29,2.27-3.42,3.41a5,5,0,0,0-1.43,2.4c-.11.44-.56.48-.88.15a8.28,8.28,0,0,1-2.2-4.83,13.74,13.74,0,0,1,0-3.68,18.39,18.39,0,0,0,.2-4.2C37.86,8,39.3,6.53,41.19,5.58a7.3,7.3,0,0,1,4.71-.65c1.84.34,3.72.56,5.26,1.68,3.75-3.94,7.14-3.52,9.09.52a16.69,16.69,0,0,1,1-1.63,27.48,27.48,0,0,1,2.64-3.32A7.68,7.68,0,0,1,70.68.11a5.76,5.76,0,0,1,4.6,4.48,5.25,5.25,0,0,1-2.77,5.7c-.14.08-.37,0-.56,0ZM60.28,38.8,61.36,37a3.37,3.37,0,0,0,0-3.93,5.91,5.91,0,0,1-.16-6A5.78,5.78,0,0,0,61.63,26a.63.63,0,0,0-.17-.51.54.54,0,0,0-.49,0,5.18,5.18,0,0,0-2.22,4.11,25.33,25.33,0,0,0,.36,4.51C59.34,35.51,59.79,36.87,60.28,38.8Z"></path>
      <path class="cls-12" d="M72,10.3c-.75,1.07-1.84.56-2.79.56a1.65,1.65,0,0,1-1.74-1.12l0,0a10.7,10.7,0,0,0,4.63.57Z"></path>
      <path class="cls-12" d="M66.82,6.33c-.33,1.23.32,2.31.55,3.45l0,0C66.13,8.54,66,7.8,66.86,6.37Z"></path>
      <path class="cls-12" d="M66.86,6.37c0-.4.18-.59.59-.56l0,0-.58.56Z"></path>
      <path class="cls-12" d="M67.45,5.81l.14-.42c.42.37-.13.25-.19.38Z"></path>
      <path class="cls-6" d="M53.44,74.73a1.58,1.58,0,0,0-1.51-.55c-.84.26-1.17.92-1,1.16a4.28,4.28,0,0,0,.31.32c.21.2.65-.38.67-.38Z"></path>
      <path class="cls-7" d="M53.87,75.74s-.26-1.14-.69-1.15a8.8,8.8,0,0,1-.91-.08l-.12.21s.42.75.59.81a5.3,5.3,0,0,1,.57.17A4.29,4.29,0,0,0,53.87,75.74Z"></path>
      <path class="cls-8" d="M53.84,75.89c0-.1.11-.36-.17-.45a3.54,3.54,0,0,0-.55-.11s-.69.52-.82.6-.23.07.17.19.39.22.75.17A1.09,1.09,0,0,0,53.84,75.89Z"></path>
      <path class="cls-9" d="M53.12,75.33a3.81,3.81,0,0,0-.5.49c-.2.24-.24.31-.48.19s-.87-.21-1-.45-.16-.22,0-.5a1.25,1.25,0,0,1,.81-.49.7.7,0,0,1,.8.17A1.83,1.83,0,0,1,53.12,75.33Z"></path>
      <path class="cls-6" d="M50,55.36A2.3,2.3,0,0,0,47.66,55c-1.12.63-1.39,1.68-1.11,2a4.55,4.55,0,0,0,.54.36c.36.23.82-.74.85-.75Z"></path>
      <path class="cls-7" d="M50.93,56.67s-.72-1.56-1.34-1.44-1.34.16-1.34.16l-.11.34s.84.94,1.11,1,.75,0,.87.06A5.09,5.09,0,0,0,50.93,56.67Z"></path>
      <path class="cls-8" d="M50.93,56.89c0-.16,0-.55-.37-.59a5.79,5.79,0,0,0-.84,0s-.82.95-1,1.11-.3.17.31.22.62.19,1.12,0A1.56,1.56,0,0,0,50.93,56.89Z"></path>
      <path class="cls-9" d="M49.72,56.31a7.3,7.3,0,0,0-.57.86c-.21.4-.24.51-.62.41s-1.31,0-1.61-.33-.3-.26-.1-.73a1.82,1.82,0,0,1,1-1,1,1,0,0,1,1.2,0A2.62,2.62,0,0,1,49.72,56.31Z"></path>
      <path class="cls-6" d="M45.37,62.47s-4.83-2.41-8.2.53-3.54,6.72-2.38,7.53a14.84,14.84,0,0,0,2.11.84c1.39.52,2.26-3.11,2.34-3.16S45.37,62.47,45.37,62.47Z"></path>
      <path class="cls-7" d="M49.49,66.27s-3.58-4.79-5.62-3.95-4.42,1.52-4.42,1.52l-.14,1.22s3.52,2.61,4.45,2.53,2.61-.38,3-.38A21.75,21.75,0,0,0,49.49,66.27Z"></path>
      <path class="cls-8" d="M49.63,67c-.05-.53-.25-1.9-1.69-1.71a20.77,20.77,0,0,0-2.84.61S43,69.73,42.52,70.39s-.9.8,1.19.53,2.27.21,3.86-.74A5.43,5.43,0,0,0,49.63,67Z"></path>
      <path class="cls-9" d="M45.1,65.9a23.82,23.82,0,0,0-1.32,3.33c-.44,1.52-.46,1.93-1.84,1.86s-4.48.82-5.72,0-1.18-.67-.83-2.43,1.15-2.59,2.73-4a3.59,3.59,0,0,1,4.09-.86A9.13,9.13,0,0,1,45.1,65.9Z"></path>
      <path class="cls-6" d="M62.05,63.48s-4-2.38-7.15,0-3.47,5.61-2.52,6.39a14.33,14.33,0,0,0,1.78.86c1.18.53,2.15-2.57,2.22-2.61S62.05,63.48,62.05,63.48Z"></path>
      <path class="cls-7" d="M65.4,67s-2.82-4.37-4.64-3.77-3.93,1.05-3.93,1.05l-.2,1s2.91,2.49,3.72,2.47,2.29-.17,2.64-.15A18.2,18.2,0,0,0,65.4,67Z"></path>
      <path class="cls-8" d="M65.47,67.67c0-.46-.09-1.66-1.36-1.59a18.25,18.25,0,0,0-2.5.36s-2.06,3.2-2.51,3.74-.83.64,1,.53,2,.33,3.4-.41A4.7,4.7,0,0,0,65.47,67.67Z"></path>
      <path class="cls-9" d="M61.61,66.44a21.44,21.44,0,0,0-1.35,2.81c-.47,1.29-.51,1.65-1.7,1.51s-3.94.44-5-.32-1-.65-.58-2.16S54.17,66.1,55.63,65a3.11,3.11,0,0,1,3.59-.5A8,8,0,0,1,61.61,66.44Z"></path>
      <path class="cls-6" d="M72.77,59.21s-4-3.09-7.62-1-4.45,5.52-3.54,6.47a13.35,13.35,0,0,0,1.79,1.16c1.18.72,2.63-2.44,2.71-2.48S72.77,59.21,72.77,59.21Z"></path>
      <path class="cls-7" d="M75.85,63.44s-2.41-5-4.43-4.64-4.33.59-4.33.59l-.35,1.09s2.76,3,3.63,3.13,2.46.12,2.84.19A19.65,19.65,0,0,0,75.85,63.44Z"></path>
      <path class="cls-8" d="M75.85,64.13c.05-.49.12-1.79-1.24-1.87a19.2,19.2,0,0,0-2.71,0S69.27,65.43,68.72,66s-1,.57,1,.7,2,.61,3.67,0A5.06,5.06,0,0,0,75.85,64.13Z"></path>
      <path class="cls-9" d="M71.9,62.3a22.77,22.77,0,0,0-1.81,2.81c-.68,1.32-.77,1.7-2,1.38s-4.26-.06-5.25-1-1-.83-.33-2.38S64,60.94,65.72,60a3.35,3.35,0,0,1,3.9,0A8.73,8.73,0,0,1,71.9,62.3Z"></path>
      <path class="cls-6" d="M75.86,72.11A2.4,2.4,0,0,0,78.07,71c.6-1.2.21-2.27-.2-2.36a4.08,4.08,0,0,0-.69,0c-.44,0-.26,1.12-.28,1.15S75.86,72.11,75.86,72.11Z"></path>
      <path class="cls-7" d="M74.28,71.53s1.55.91,2,.44S77.35,71,77.35,71l-.11-.35a4.93,4.93,0,0,0-1.53-.19c-.25.13-.68.41-.79.45A6.69,6.69,0,0,0,74.28,71.53Z"></path>
      <path class="cls-8" d="M74.16,71.34c.07.14.28.5.66.28a6.12,6.12,0,0,0,.72-.5s.14-1.3.2-1.54.16-.33-.4,0-.65.2-1,.65A1.62,1.62,0,0,0,74.16,71.34Z"></path>
      <path class="cls-9" d="M75.54,71.12a6.66,6.66,0,0,0,0-1.07c0-.47-.1-.59.3-.73s1.15-.75,1.58-.67.4,0,.51.58a1.91,1.91,0,0,1-.3,1.41,1.08,1.08,0,0,1-1,.71A2.73,2.73,0,0,1,75.54,71.12Z"></path>
      <path class="cls-6" d="M37.87,73s2.05.29,2.91-1.19.46-2.88-.06-3a5.21,5.21,0,0,0-.87,0c-.57,0-.44,1.41-.46,1.44S37.87,73,37.87,73Z"></path>
      <path class="cls-7" d="M35.9,72.09s1.89,1.3,2.53.74,1.42-1.09,1.42-1.09l-.1-.46a6.11,6.11,0,0,0-1.93-.37c-.33.14-.9.45-1,.51A7.67,7.67,0,0,0,35.9,72.09Z"></path>
      <path class="cls-8" d="M35.76,71.84c.09.19.33.66.83.41a7.39,7.39,0,0,0,.95-.56s.3-1.66.39-2,.23-.4-.5,0-.85.2-1.31.74A2.1,2.1,0,0,0,35.76,71.84Z"></path>
      <path class="cls-9" d="M37.54,71.69a10.28,10.28,0,0,0,.08-1.38c0-.6-.08-.76.43-.9s1.53-.85,2.08-.71.51.1.6.78a2.45,2.45,0,0,1-.51,1.77,1.39,1.39,0,0,1-1.38.82A3.72,3.72,0,0,1,37.54,71.69Z"></path>
      <path class="cls-6" d="M51.23,65.34a1.79,1.79,0,0,0,1.8.31c.88-.46,1.12-1.27.91-1.5a3.38,3.38,0,0,0-.41-.3c-.28-.18-.66.56-.68.57Z"></path>
      <path class="cls-7" d="M50.54,64.3s.52,1.22,1,1.15a9.42,9.42,0,0,1,1-.1l.09-.25s-.62-.76-.83-.79-.58,0-.67-.07A4.65,4.65,0,0,0,50.54,64.3Z"></path>
      <path class="cls-8" d="M50.54,64.14c0,.11,0,.42.28.45a4,4,0,0,0,.65,0s.65-.72.79-.84.24-.12-.23-.17-.48-.17-.88,0A1.2,1.2,0,0,0,50.54,64.14Z"></path>
      <path class="cls-9" d="M51.47,64.61a5.06,5.06,0,0,0,.45-.65c.18-.31.2-.4.5-.31s1,.06,1.24.29.22.21.05.57-.38.5-.8.72a.8.8,0,0,1-.93,0A2.15,2.15,0,0,1,51.47,64.61Z"></path>
      <path class="cls-6" d="M67.47,72.2s4.54,1.1,6.81-2,1.69-6.34.56-6.81a13.12,13.12,0,0,0-1.94-.3c-1.27-.17-1.31,3.05-1.36,3.11S67.47,72.2,67.47,72.2Z"></path>
      <path class="cls-7" d="M63.27,69.78s3.94,3.36,5.5,2.26,3.43-2.13,3.43-2.13l-.12-1.06s-3.47-1.53-4.24-1.28-2.12.83-2.47.91A18.16,18.16,0,0,0,63.27,69.78Z"></path>
      <path class="cls-8" d="M63,69.2c.14.44.57,1.55,1.75,1.12A18.42,18.42,0,0,0,67,69.26s1-3.64,1.31-4.28.61-.85-1.11-.22-1.95.25-3.1,1.37A4.67,4.67,0,0,0,63,69.2Z"></path>
      <path class="cls-9" d="M67,69.26a20.8,20.8,0,0,0,.47-3.06c.08-1.37,0-1.72,1.19-1.93s3.62-1.55,4.82-1.12,1.12.33,1.17,1.89-.47,2.4-1.55,3.86a3.12,3.12,0,0,1-3.28,1.51A8.1,8.1,0,0,1,67,69.26Z"></path>
      <path class="cls-6" d="M46.57,69.58s2.72,1.53,4.75-.07,2.24-3.78,1.59-4.28a8.1,8.1,0,0,0-1.19-.55c-.79-.34-1.39,1.73-1.44,1.76S46.57,69.58,46.57,69.58Z"></path>
      <path class="cls-7" d="M44.3,67.26s1.93,2.88,3.13,2.45S50,69,50,69l.12-.7s-2-1.61-2.51-1.59-1.51.14-1.75.13A11.86,11.86,0,0,0,44.3,67.26Z"></path>
      <path class="cls-8" d="M44.24,66.84c0,.31.09,1.11.93,1a12.7,12.7,0,0,0,1.66-.27s1.32-2.16,1.61-2.52.55-.44-.67-.34-1.3-.19-2.25.32A3.14,3.14,0,0,0,44.24,66.84Z"></path>
      <path class="cls-9" d="M46.83,67.61a13.83,13.83,0,0,0,.85-1.89c.3-.86.32-1.1,1.12-1s2.61-.35,3.3.14.66.42.42,1.43a3.75,3.75,0,0,1-1.7,2.21,2.09,2.09,0,0,1-2.38.38A5.34,5.34,0,0,1,46.83,67.61Z"></path>
    </g>
  </g>
</svg>
