<?xml version="1.0" encoding="UTF-8"?>
<svg xmlns="http://www.w3.org/2000/svg" viewBox="0 0 164 370.55">
  <defs>
    <style>.cls-1{fill:#a29274;}.cls-2{fill:#e3e0c9;}.cls-3{fill:#fcedce;}.cls-4{fill:#bda885;}.cls-5{fill:#d0c5a6;}.cls-6{fill:#8f8267;}.cls-7{fill:#ab967a;opacity:0.25;}.cls-8{fill:#9b8d71;}.cls-9{fill:#7c705b;}.cls-10{fill:#a5a5a5;}.cls-11{fill:#e7e6e3;}.cls-12{fill:#745831;}.cls-13{fill:#917448;}.cls-14{fill:#554020;}.cls-15{fill:#817870;}.cls-16{fill:#c2d744;}.cls-17{fill:#a5c32f;}.cls-18{fill:#7fb843;}</style>
  </defs>
  <g id="Слой_2" data-name="Слой 2">
    <g id="Слой_1-2" data-name="Слой 1">
      <polygon class="cls-1" points="72.85 274.83 145.5 243.9 134.6 327.55 72.85 370.55 72.85 274.83"></polygon>
      <polygon class="cls-2" points="72.85 222.99 145.5 243.9 72.85 274.83 0 243.9 72.85 222.99"></polygon>
      <polygon class="cls-3" points="72.85 222.99 0 243.9 1.28 244.44 144.82 243.71 72.85 222.99"></polygon>
      <polygon class="cls-4" points="10.9 327.55 0 243.9 72.85 274.83 72.85 370.55 10.9 327.55"></polygon>
      <path class="cls-5" d="M45.79,244.93a38.44,38.44,0,0,1,3.44-3.68,32.58,32.58,0,0,1,4-3.11,39.5,39.5,0,0,1,9.13-4.42c1.61-.53,3.24-1,4.89-1.33a50.06,50.06,0,0,1,5-.76,48.32,48.32,0,0,1,10.06.05c-3.35.22-6.65.57-9.91,1.1a62.31,62.31,0,0,0-9.58,2.35,48,48,0,0,0-17,9.8Z"></path>
      <path class="cls-5" d="M33.38,247.87c0,.06.19.11.29.14l.36.1c.24.06.49.11.74.15a14.58,14.58,0,0,0,1.48.18,26.53,26.53,0,0,0,3,.1,45,45,0,0,0,5.91-.5c2-.27,3.91-.67,5.86-1.09l5.9-1.34a31.32,31.32,0,0,1-5.59,2.46,34.52,34.52,0,0,1-6,1.44,26.53,26.53,0,0,1-6.17.19,17.73,17.73,0,0,1-3-.54,13.31,13.31,0,0,1-1.46-.51c-.24-.1-.47-.21-.7-.33l-.33-.21C33.54,248,33.35,248,33.38,247.87Z"></path>
      <path class="cls-5" d="M83.5,265.69a57.41,57.41,0,0,1,15.32-16,37.6,37.6,0,0,1,10-5,27.92,27.92,0,0,1,5.5-1.1,23.39,23.39,0,0,1,5.55.25,29.18,29.18,0,0,0-5.46.48,32.24,32.24,0,0,0-5.21,1.47A44.51,44.51,0,0,0,99.66,251a74.06,74.06,0,0,0-8.48,6.85A110,110,0,0,0,83.5,265.69Z"></path>
      <polygon class="cls-6" points="72.85 274.83 145.5 243.9 134.6 327.55 72.85 370.55 72.85 274.83"></polygon>
      <polygon class="cls-7" points="10.9 327.55 0 243.9 72.85 274.83 72.85 370.55 10.9 327.55"></polygon>
      <polygon class="cls-8" points="72.85 370.55 10.9 327.55 73.14 304.03 134.6 327.55 72.85 370.55"></polygon>
      <path class="cls-9" d="M24.06,290.77A13.13,13.13,0,0,1,23,287.9a23.93,23.93,0,0,1-.67-3,22.48,22.48,0,0,1-.11-6.24,19.89,19.89,0,0,1,1.75-6.05,20.32,20.32,0,0,1,3.63-5.18A27,27,0,0,1,38.24,261a45.42,45.42,0,0,1,12.12-2.16,69.08,69.08,0,0,0-11.72,3.25,28.79,28.79,0,0,0-10,6.32,19.51,19.51,0,0,0-5.3,10.37,24.36,24.36,0,0,0-.32,6A23,23,0,0,0,24.06,290.77Z"></path>
      <path class="cls-9" d="M91.76,289.62c.19.31.6.42.92.58s.69.3,1,.43c.69.27,1.4.51,2.12.73,1.41.47,2.85.89,4.29,1.29,2.88.78,5.78,1.48,8.7,2.06,5.85,1.21,11.77,2,17.76,2.67a65.57,65.57,0,0,1-18-1.21,64.53,64.53,0,0,1-8.76-2.42A45.22,45.22,0,0,1,95.57,292c-.69-.33-1.36-.68-2-1.05-.33-.19-.66-.38-1-.59-.16-.11-.31-.23-.46-.35S91.78,289.82,91.76,289.62Z"></path>
      <path class="cls-9" d="M52.74,285.26a46.13,46.13,0,0,1-1.78,8.2,57.1,57.1,0,0,1-3,7.85,45.94,45.94,0,0,1-4.38,7.23,27.46,27.46,0,0,1-6,5.85,50,50,0,0,0,5.09-6.52,73.34,73.34,0,0,0,4-7.21c1.2-2.47,2.26-5,3.29-7.58S51.83,287.9,52.74,285.26Z"></path>
      <path class="cls-9" d="M75.27,351.83c3-1.45,6-2.6,9-3.9s6-2.62,8.83-4.12q2.16-1.11,4.23-2.39a43.15,43.15,0,0,0,4-2.72,23.42,23.42,0,0,0,6.46-7.15,18.88,18.88,0,0,1-5.72,8.05,42.33,42.33,0,0,1-8.27,5.53,71.27,71.27,0,0,1-9.1,3.88c-1.56.55-3.13,1-4.71,1.5S76.84,351.36,75.27,351.83Z"></path>
      <path class="cls-9" d="M41.2,342.65a20.28,20.28,0,0,1-4.71-3,11.22,11.22,0,0,1-3.41-4.59,6.58,6.58,0,0,1-.11-4.46,7.44,7.44,0,0,1,.59-1.39A13.85,13.85,0,0,1,37.5,325a38.4,38.4,0,0,1,10.06-5,75.87,75.87,0,0,1,10.75-2.81c-3.48,1.26-7,2.51-10.34,3.89a46,46,0,0,0-9.58,5.11,12.52,12.52,0,0,0-3.6,3.73,5.61,5.61,0,0,0-.53,1.14,4.5,4.5,0,0,0-.3,1.2,5.94,5.94,0,0,0,.21,2.47,9.17,9.17,0,0,0,1.13,2.34A13.93,13.93,0,0,0,37,339.14,24.14,24.14,0,0,0,41.2,342.65Z"></path>
      <path class="cls-9" d="M107.81,287.93l5.42-7.45c1.77-2.49,3.53-5,5.17-7.56A81.47,81.47,0,0,0,123,265a37.38,37.38,0,0,0,1.79-4.17,17.53,17.53,0,0,0,1-4.44,19.59,19.59,0,0,1-1.78,9.09,52.08,52.08,0,0,1-4.38,8.21,80.62,80.62,0,0,1-5.51,7.46A69.52,69.52,0,0,1,107.81,287.93Z"></path>
      <polygon class="cls-10" points="70.2 322.22 70.27 322.09 70.15 322.08 70.2 322.22"></polygon>
      <path class="cls-11" d="M69.8,276a32,32,0,0,1-14.42,4.72,36.44,36.44,0,0,1-7.54-.27c-2.41-.24-5.09-.4-7.13,1.15,1.93-1.7,4.72-1.74,7.16-1.66a35.67,35.67,0,0,0,7.39-.22,30.51,30.51,0,0,0,13.41-5.4Z"></path>
      <path class="cls-11" d="M55.58,280.51c-4,2.62-8.27,4.64-12.37,7,4-2.52,8.19-4.74,12-7.5Z"></path>
      <path class="cls-11" d="M59.46,280c-3.92-1.36-8.1-2.3-12-3.83a20.24,20.24,0,0,0-6.07-1.36,9.09,9.09,0,0,0-5.89,1.73,9.25,9.25,0,0,1,5.89-2.09,20.62,20.62,0,0,1,6.29,1c2,.62,4,1.21,6.06,1.73s4.08,1,6.13,1.68Z"></path>
      <path class="cls-11" d="M43.92,274.92c.25-.93-.59-1.92-1.45-2.64a9.13,9.13,0,0,0-2.94-1.81c-2.21-.75-4.56-1.17-6.84-1.76,2.31.49,4.65.79,7,1.44a10.55,10.55,0,0,1,3.16,1.72c.89.69,2.09,1.67,1.88,3.21Z"></path>
      <path class="cls-11" d="M89.22,303.35c2.91,1.37,6.51,1.44,9.24,3.66a13,13,0,0,1,4.75,8.56,12.78,12.78,0,0,0-5.06-8.18c-2.55-2.07-6.09-2.13-9.17-3.53Z"></path>
      <path class="cls-11" d="M97.12,306.22a8.83,8.83,0,0,1,5.4-.23,5.88,5.88,0,0,1,4,3.31,5.78,5.78,0,0,0-4.11-3.07,8.4,8.4,0,0,0-5.15.45Z"></path>
      <path class="cls-11" d="M72.55,287.32c.51,3.5,3,6.54,5.93,8.83s6.46,4,9.72,6.16a22.46,22.46,0,0,1,8,8.43A21.12,21.12,0,0,1,98.65,322a20.78,20.78,0,0,0-2.88-11,21.51,21.51,0,0,0-8.11-7.82c-3.28-2-6.85-3.48-10.09-5.8s-6.18-5.47-7-9.71Z"></path>
      <path class="cls-11" d="M83.11,299.74c-1.89,5.73.54,12.53,5.55,16.16a15.59,15.59,0,0,1-5.82-7.12,14.69,14.69,0,0,1-.66-9.31Z"></path>
      <path class="cls-11" d="M74.84,275.88a29.21,29.21,0,0,1,2.37,14.22c-.18,2.41-.82,4.7-1,7A8.64,8.64,0,0,0,78,303.69c-1.75-1.66-2.32-4.22-2.3-6.58s.49-4.75.49-7.06A27.8,27.8,0,0,0,73,276.76Z"></path>
      <path class="cls-11" d="M75.19,276.7a12.91,12.91,0,0,0,3,6c1.49,1.85,3.22,3.56,4.82,5.43a32.42,32.42,0,0,1,4.24,6,12.65,12.65,0,0,1,1.59,7.07,12.4,12.4,0,0,0-2-6.82,32.7,32.7,0,0,0-4.55-5.56c-1.68-1.71-3.53-3.3-5.22-5.13a14.68,14.68,0,0,1-3.86-6.64Z"></path>
      <path class="cls-11" d="M74.8,275.81c1.57,3,3.09,6.05,4.42,9.18a43,43,0,0,1,3,9.69,42.85,42.85,0,0,0-3.92-9.25c-1.61-2.95-3.41-5.78-5.25-8.59Z"></path>
      <path class="cls-11" d="M81.23,286.13c2.38,2.07,5.63,3,8.83,3.29,1.59.17,3.39.53,4.52,1.83a10.57,10.57,0,0,1,2,4.46,10.54,10.54,0,0,0-2.14-4.31,6.41,6.41,0,0,0-4.4-1.55,16.29,16.29,0,0,1-9.34-3.06Z"></path>
      <path class="cls-11" d="M78.92,273.17c1.26,1.7,3,3.19,4.4,5A13.93,13.93,0,0,1,86,284.45a13.41,13.41,0,0,0-3.41-5.57c-1.55-1.52-3.45-2.7-5.15-4.37Z"></path>
      <path class="cls-11" d="M76.6,272.62a85.09,85.09,0,0,1,14.93,4.68,42.76,42.76,0,0,1,7,3.5c2.2,1.66,3,4.3,3.81,6.72-.91-2.37-2-4.92-4.11-6.31a41.23,41.23,0,0,0-7.06-3,83.17,83.17,0,0,0-14.93-3.64Z"></path>
      <path class="cls-12" d="M70,282.73a52.63,52.63,0,0,1-2.29-4.89,6.2,6.2,0,0,1-.91-2.51,5.15,5.15,0,0,1,.84-2.9l.32-.07a5.27,5.27,0,0,1,2,2.24,6.2,6.2,0,0,1,.27,2.65,51.26,51.26,0,0,1,.07,5.41Z"></path>
      <ellipse class="cls-13" cx="65.77" cy="295.79" rx="1.63" ry="2.59" transform="translate(-235.54 263.66) rotate(-71.38)"></ellipse>
      <path class="cls-12" d="M70.91,266.09a86.22,86.22,0,0,1-7.29,27.42c-1.52,3.24,3.3,6.09,4.84,2.83a90.17,90.17,0,0,0,7.7-28.78A22.75,22.75,0,0,1,70.91,266.09Z"></path>
      <path class="cls-14" d="M76.12,267.56c0,.19,0,.39-.05.59a87.77,87.77,0,0,1-2.32,13.37A62.55,62.55,0,0,1,69,294.23l.12.07a49.24,49.24,0,0,0,5.55-12.54,85.54,85.54,0,0,0,2.84-13.45c0-.19,0-.39.05-.58C77,267.69,76.58,267.62,76.12,267.56Z"></path>
      <path class="cls-13" d="M72.1,266.55c-1.13,11-3.52,21.42-7.39,26.2,0,0,.76-.35,2.47.58,0,0,4.6-10,6.49-26.29C73.16,266.9,72.64,266.74,72.1,266.55Z"></path>
      <path class="cls-11" d="M67.65,295.4A70.06,70.06,0,0,0,64.86,317c.08,3.66.63,7.32.87,11s.06,7.57-1.58,10.94c1.42-3.46,1.37-7.26.91-10.88s-1.24-7.29-1.54-11A71.62,71.62,0,0,1,65,294.72a1.35,1.35,0,1,1,2.63.6S67.66,295.38,67.65,295.4Z"></path>
      <path class="cls-11" d="M64.67,316a42.52,42.52,0,0,0,3.79,9.75c.85,1.5,2,2.84,2.79,4.53a9.93,9.93,0,0,1,.44,5.33,11.41,11.41,0,0,0-.94-5.09c-.81-1.49-2.13-2.74-3-4.31a36.16,36.16,0,0,1-4.09-9.91Z"></path>
      <path class="cls-11" d="M64.92,322.38a20.87,20.87,0,0,0-4,3.81c-1.23,1.42-2.38,2.91-3.64,4.3,1.13-1.49,2.15-3.07,3.26-4.6a21.33,21.33,0,0,1,3.79-4.31Z"></path>
      <path class="cls-11" d="M64.81,308.85a39.31,39.31,0,0,0-6,5.79A18.17,18.17,0,0,0,54.93,322,18.59,18.59,0,0,1,58,314a41.46,41.46,0,0,1,5.43-6.7Z"></path>
      <path class="cls-11" d="M59.29,313.76a14.05,14.05,0,0,0-6,2.11,12.57,12.57,0,0,0-4.65,4.48,12.68,12.68,0,0,1,4.4-4.86,14.79,14.79,0,0,1,6.16-2.64Z"></path>
      <path class="cls-11" d="M66,298.24c-2.65,1.84-5.54,2.6-8.33,3.43a75.53,75.53,0,0,0-8.26,2.6,19,19,0,0,0-7.3,4.34c-1,1-1.94,2.16-3,3.15a6.23,6.23,0,0,1-3.88,1.85,6.12,6.12,0,0,0,3.7-2c1-1,1.86-2.21,2.83-3.31A19.9,19.9,0,0,1,49,303.31a75,75,0,0,1,8.21-3.1c2.7-.95,5.48-1.93,7.54-3.57Z"></path>
      <path class="cls-11" d="M46,305.6a20.52,20.52,0,0,0-13,1.95,21,21,0,0,1,13.08-2.72Z"></path>
      <path class="cls-11" d="M57.65,301.51a42.52,42.52,0,0,0-6.68,14,43,43,0,0,1,5.79-14.63Z"></path>
      <path class="cls-11" d="M66.68,297.56a16,16,0,0,1,5.89,6.27,24.28,24.28,0,0,1,2.4,8.08,37.16,37.16,0,0,1,0,8.3c-.13,1.37-.45,2.73-.49,4.07a3.08,3.08,0,0,0,2,3.2,3.2,3.2,0,0,1-2.22-3.19c0-1.41.2-2.76.24-4.12a37.25,37.25,0,0,0-.51-8.11,23,23,0,0,0-2.71-7.48,14.2,14.2,0,0,0-5.55-5.25Z"></path>
      <path class="cls-11" d="M74.85,316.67A21.07,21.07,0,0,1,80.5,326a21,21,0,0,0-5.93-9Z"></path>
      <path class="cls-11" d="M74.33,311.42a23.11,23.11,0,0,1,7.07,5.4A22,22,0,0,1,86,324.37a21.88,21.88,0,0,0-4.8-7.33,22.91,22.91,0,0,0-7.1-5Z"></path>
      <path class="cls-11" d="M71.15,301.8a51.66,51.66,0,0,1,4.64,4.38,14.27,14.27,0,0,1,3.09,5.54,13.86,13.86,0,0,0-3.54-5.11,49.17,49.17,0,0,0-5-3.83Z"></path>
      <polygon class="cls-3" points="1.28 244.44 72.85 274.83 145.5 243.9 144.82 243.71 1.28 244.44"></polygon>
      <ellipse class="cls-1" cx="75.15" cy="245.36" rx="16.78" ry="6.56"></ellipse>
      <ellipse class="cls-15" cx="75.58" cy="247.57" rx="13.83" ry="5.41"></ellipse>
      <path class="cls-16" d="M81.37,230.87l-2.12-.8C89.92,201.86,89.44,47.29,88.25,32l2.27-.18C91.75,47.58,92.44,201.64,81.37,230.87Z"></path>
      <path class="cls-12" d="M82.55,225.11a11.19,11.19,0,0,1-3.83,9.17,10.09,10.09,0,0,1,.84-5A10.25,10.25,0,0,1,82.55,225.11Z"></path>
      <path class="cls-17" d="M99.25,148.13c3.73-7.77.86-13.42-6-17.85C91.58,137.65,93.14,143.53,99.25,148.13Z"></path>
      <path class="cls-18" d="M99.22,148.14c-.82-3.07-1.39-6.19-2.26-9.22a36.62,36.62,0,0,0-3.73-8.62l0,0a16.78,16.78,0,0,1,2.66,4,23.81,23.81,0,0,1,1.51,4.55c.76,3.09,1.18,6.23,1.83,9.33Z"></path>
      <path class="cls-17" d="M106.43,144.05c3.82-8,1-12.3-5.89-17.08C99,133.89,99.83,140.45,106.43,144.05Z"></path>
      <path class="cls-18" d="M106.4,144.06a48.34,48.34,0,0,0-2.16-8.82,81.17,81.17,0,0,0-3.73-8.25l0,0a23.08,23.08,0,0,1,4.16,8.13,43.66,43.66,0,0,1,1.75,9Z"></path>
      <path class="cls-17" d="M108.83,141.88c1.54-8.25,5.17-12.84,13.58-14.37C123,136.64,119,144,108.83,141.88Z"></path>
      <path class="cls-18" d="M108.82,141.85a11.85,11.85,0,0,0,4.16-2.68,32.52,32.52,0,0,0,3.35-3.69c1-1.32,2-2.67,3-4s2-2.69,3.1-4l0,0a48.75,48.75,0,0,1-5.72,8.27,32.52,32.52,0,0,1-3.53,3.61,12,12,0,0,1-4.35,2.5Z"></path>
      <path class="cls-17" d="M107,144.28c6.93-2,13.92.52,18.82,5.54C117.2,153.5,112.31,151.21,107,144.28Z"></path>
      <path class="cls-18" d="M107,144.25a62.14,62.14,0,0,0,9.24,3.34c3.18.77,6.36,1.47,9.58,2.2v.06a34.6,34.6,0,0,1-9.71-1.78,53.84,53.84,0,0,1-9.12-3.76Z"></path>
      <path class="cls-17" d="M99.63,148.91c8.09-1.4,11.29-.34,16,7.1C106.73,157.45,104.76,155.44,99.63,148.91Z"></path>
      <path class="cls-18" d="M99.65,148.89a24.58,24.58,0,0,0,3.88,2c1.33.59,2.68,1.15,4,1.69a82.62,82.62,0,0,1,8.08,3.39l0,.06a45.42,45.42,0,0,1-8.25-3,43.63,43.63,0,0,1-7.76-4.11Z"></path>
      <path class="cls-17" d="M109.34,141.21a59.12,59.12,0,0,1-5.08,4c-1.8,1.23-3.73,2.25-5.56,3.42a124.11,124.11,0,0,0-10.54,7.56c-.48.38.2,1,.67.67a122.52,122.52,0,0,1,11-7.83c1.78-1.11,3.64-2.1,5.36-3.31s3.26-2.5,4.82-3.84c.46-.4-.21-1.07-.67-.67Z"></path>
      <path class="cls-17" d="M136.23,141.35c5-6.87,5.3-12.1.06-18.88C133.39,128.94,132.1,135.18,136.23,141.35Z"></path>
      <path class="cls-18" d="M136.2,141.34c.2-3.16.66-6.32.8-9.47a41.1,41.1,0,0,0-.12-4.71,34.1,34.1,0,0,0-.62-4.68l.06,0a19.42,19.42,0,0,1,1.19,4.64,24.83,24.83,0,0,1,0,4.8c-.26,3.19-.85,6.3-1.24,9.45Z"></path>
      <path class="cls-17" d="M143.72,138.86c5.07-7,5.47-11.28.63-18.52C141.06,126.62,139.53,132.71,143.72,138.86Z"></path>
      <path class="cls-18" d="M143.69,138.86a78.05,78.05,0,0,0,1-9.25,92.6,92.6,0,0,0-.37-9.26h.06a24.73,24.73,0,0,1,.81,9.3,66.6,66.6,0,0,1-1.43,9.23Z"></path>
      <path class="cls-17" d="M146.31,137.45c5.13-7.65,10.16-7,17.68-2.92C159.09,140.74,153,141.38,146.31,137.45Z"></path>
      <path class="cls-18" d="M146.3,137.41c3-.35,5.94-.76,8.87-1.28S161,135,164,134.5l0,.06a35.27,35.27,0,0,1-8.75,2.06c-3,.42-5.95.69-8.94.86Z"></path>
      <path class="cls-17" d="M144.1,139.22c5.24.6,11,4.48,15,7.89C150.63,150,146.88,147.38,144.1,139.22Z"></path>
      <path class="cls-18" d="M144.13,139.2a28,28,0,0,0,6.8,5.25,44.17,44.17,0,0,0,8.16,2.63v.06a22.67,22.67,0,0,1-4.33-.59,16.59,16.59,0,0,1-4.07-1.66,26,26,0,0,1-6.61-5.65Z"></path>
      <path class="cls-17" d="M136.42,142.18c7.08.45,9.43,2.61,11.11,9.45C140.46,150.44,139.53,148.51,136.42,142.18Z"></path>
      <path class="cls-18" d="M136.44,142.16c1.8,1.63,3.67,3.19,5.56,4.71a50,50,0,0,1,5.55,4.74l0,0a33.45,33.45,0,0,1-5.83-4.41c-1.83-1.61-3.61-3.28-5.29-5.05Z"></path>
      <path class="cls-17" d="M146.88,137c-2,.88-3.88,1.92-5.88,2.74a58.33,58.33,0,0,0-6.09,2.6,58.77,58.77,0,0,0-10.52,8c-.46.4.21,1.07.66.67,3.34-2.95,6.71-5.93,10.66-8,1.93-1,4-1.66,6-2.51s3.76-1.81,5.67-2.65c.55-.25.07-1.07-.48-.82Z"></path>
      <path class="cls-17" d="M31.88,119.68c-8.41,1.12-13.16-1.09-16.63-8.93C22.32,111.28,28.43,113.12,31.88,119.68Z"></path>
      <path class="cls-18" d="M31.87,119.71c-2.95-1.16-6-2.12-8.9-3.41A24.15,24.15,0,0,1,18.75,114a19.46,19.46,0,0,1-3.52-3.26l0,0a35.08,35.08,0,0,0,3.83,2.77,41.11,41.11,0,0,0,4.08,2.35c2.84,1.37,5.83,2.47,8.71,3.8Z"></path>
      <path class="cls-17" d="M26.13,125.09c-8.52,1.15-12.53-.56-16.58-8.27C16.63,116.92,22.71,118.47,26.13,125.09Z"></path>
      <path class="cls-18" d="M26.12,125.12a66.28,66.28,0,0,1-8.8-3.13,24.35,24.35,0,0,1-7.79-5.14l0,0a89.3,89.3,0,0,0,8,4.73,76.83,76.83,0,0,0,8.6,3.53Z"></path>
      <path class="cls-17" d="M23.66,126.69c-9.17.87-11,5.61-11,14.16C20.47,139.5,23.92,134.47,23.66,126.69Z"></path>
      <path class="cls-18" d="M23.68,126.7c-1.57,2.55-3.23,5-5,7.46a35.72,35.72,0,0,1-6,6.72l0,0c1.85-2.36,3.69-4.69,5.62-7s3.63-4.74,5.35-7.19Z"></path>
      <path class="cls-17" d="M26.27,125.6c-2,4.89-1.31,11.82-.2,16.93C32.64,136.46,32.12,131.92,26.27,125.6Z"></path>
      <path class="cls-18" d="M26.3,125.59a26.16,26.16,0,0,1,1.82,8.5,16.8,16.8,0,0,1-.47,4.36,23.94,23.94,0,0,1-1.55,4.09l-.06,0a43.4,43.4,0,0,0,1.58-8.44,28.23,28.23,0,0,0-1.38-8.47Z"></path>
      <path class="cls-17" d="M32.53,120.24c-3,6.44-2.2,9.54,3,14.28C37.86,127.72,36.61,126,32.53,120.24Z"></path>
      <path class="cls-18" d="M32.56,120.23c.75,2.32,1.38,4.68,1.93,7a34,34,0,0,1,1.09,7.23h-.06A51.75,51.75,0,0,1,34,127.39c-.43-2.39-.92-4.78-1.5-7.14Z"></path>
      <path class="cls-17" d="M23.45,127.78c1.54-1.19,3.17-2.27,4.71-3.47,1.84-1.43,3.49-3.08,5.45-4.37a57,57,0,0,1,12-5.5c.57-.21.32-1.12-.25-.91a59.73,59.73,0,0,0-12,5.4,53.51,53.51,0,0,0-5.1,4c-1.72,1.42-3.6,2.63-5.36,4-.48.37,0,1.19.48.82Z"></path>
      <path class="cls-17" d="M71,99s-13.88-6.78-3.78-19.09C67.26,79.88,79.09,85.56,71,99Z"></path>
      <path class="cls-17" d="M72.31,100.87c-.57,0,1.57-15,17-15.15C89.35,85.72,84.14,99.92,72.31,100.87Z"></path>
      <path class="cls-17" d="M76.72,107.34s3.79-15.63,17-14.68C93.77,92.66,91.24,105.28,76.72,107.34Z"></path>
      <path class="cls-16" d="M77,205.36l-2.27-.16c.78-10.94-1.64-21.71-4.11-30.79A250.91,250.91,0,0,0,16.51,74.29l1.71-1.5a253.21,253.21,0,0,1,54.59,101C75.33,183.08,77.79,194.08,77,205.36Z"></path>
      <path class="cls-17" d="M60,114c-.16-.16,6.07-5.2,20.79,1.42C80.79,115.38,70.73,124.85,60,114Z"></path>
      <path class="cls-17" d="M76.72,107.34S63.78,100.08,53.05,104C53.05,104,61.89,116.76,76.72,107.34Z"></path>
      <path class="cls-17" d="M72.31,100.87a19.78,19.78,0,0,0-1.7-1.27c-3.3-2.24-11.1-6.47-20.24-4.1C50.37,95.5,56.68,107.34,72.31,100.87Z"></path>
      <path class="cls-18" d="M67.3,79.88a70.86,70.86,0,0,0,1,10c.68,3.28,1.41,6.47,2.38,9.71l-.09,0A18.16,18.16,0,0,1,68.45,95a31.76,31.76,0,0,1-.92-5,57.83,57.83,0,0,1-.32-10.1Z"></path>
      <path class="cls-18" d="M89.37,85.76a52.28,52.28,0,0,0-8.32,6.3c-1.26,1.19-2.47,2.44-3.63,3.71s-2.32,2.57-3.53,3.86l-.08,0a21.34,21.34,0,0,1,2.9-4.44,29.46,29.46,0,0,1,3.84-3.65,45.82,45.82,0,0,1,8.78-5.82Z"></path>
      <path class="cls-18" d="M76.75,107.38a15.23,15.23,0,0,1-6,.93,38.76,38.76,0,0,1-6.08-.59,44.73,44.73,0,0,1-6-1.36A42.55,42.55,0,0,1,53,104.07l0-.09c4,.89,7.81,2.07,11.72,3a40.18,40.18,0,0,0,6,.86,14.92,14.92,0,0,0,6-.55Z"></path>
      <path class="cls-18" d="M93.79,92.7c-3.06,2.2-6.05,4.5-8.93,6.91-1.42,1.23-2.82,2.48-4.18,3.75a31.45,31.45,0,0,0-3.91,4l-.09,0A15.34,15.34,0,0,1,80,102.68,42.23,42.23,0,0,1,84.39,99a111.9,111.9,0,0,1,9.35-6.4Z"></path>
      <path class="cls-18" d="M80.8,115.43a49.4,49.4,0,0,1-10.52.79,31.35,31.35,0,0,1-5.28-.5A21.72,21.72,0,0,1,60,114l0-.09c1.75.28,3.43.66,5.16.86s3.42.52,5.16.68a57,57,0,0,0,10.45-.12Z"></path>
      <path class="cls-18" d="M72.32,100.91a20.67,20.67,0,0,1-5.72-.11A48.44,48.44,0,0,1,61,99.67,47.94,47.94,0,0,1,55.51,98a40.07,40.07,0,0,1-5.16-2.48l0-.08c3.69,1,7.22,2.3,10.8,3.48a49.57,49.57,0,0,0,5.49,1.39,20.44,20.44,0,0,0,5.62.49Z"></path>
      <path class="cls-17" d="M95.4,100.36S80.19,101.62,81.27,115C81.27,115,92.28,114.64,95.4,100.36Z"></path>
      <path class="cls-18" d="M94.91,100.77a46.13,46.13,0,0,0-7.26,6.09c-1.05,1.17-2.09,2.34-3,3.59s-1.87,2.5-2.79,3.82l-.09,0a15.76,15.76,0,0,1,2.12-4.34,23,23,0,0,1,3.26-3.57,39.47,39.47,0,0,1,7.74-5.63Z"></path>
      <path class="cls-17" d="M70.32,98.4q3.62,6.52,7.59,12.86c2.41,3.84,4.93,7.66,8.33,10.7.46.41,1.13-.26.67-.67-3.45-3.09-6-7-8.42-10.88q-3.85-6.15-7.36-12.49c-.29-.53-1.11-.06-.81.48Z"></path>
      <path class="cls-17" d="M116.31,199.19c10.12-.82,17.49-6.25,15.81-17.08C122.34,181.87,118.39,191.09,116.31,199.19Z"></path>
      <path class="cls-17" d="M115.33,199.15c.52.09,3.34-20.64-8.25-20.38C108.42,184.51,104.52,197.18,115.33,199.15Z"></path>
      <path class="cls-17" d="M104.63,204.56c4.57-8.68,4.26-17.2-4.9-22.47C96.85,190.11,99.27,198.23,104.63,204.56Z"></path>
      <path class="cls-17" d="M112.69,219.7c.13-.06-12.77-13.06-17.48-9.65C96.16,217.81,104.1,223.82,112.69,219.7Z"></path>
      <path class="cls-17" d="M104.63,204.56c8.34.62,17.66,2.52,22.56,9.95C116.08,218.43,108.37,216.35,104.63,204.56Z"></path>
      <path class="cls-17" d="M113.6,200.53a21.36,21.36,0,0,1,2.9-.49c7.84-.92,12.57,2.22,18.29,8.28C125.81,212.68,118.57,208.42,113.6,200.53Z"></path>
      <path class="cls-18" d="M132.16,182.13a40,40,0,0,1-6.2,9.28,32.34,32.34,0,0,1-8.65,7.07l-.06-.07c2.66-2.64,5.5-5,8.15-7.51a44,44,0,0,0,6.68-8.81Z"></path>
      <path class="cls-18" d="M107.12,178.74a92.34,92.34,0,0,1,5.91,9.12,21.41,21.41,0,0,1,2.07,5.1,12.41,12.41,0,0,1,.07,5.49h-.1a28.86,28.86,0,0,0-2.72-10.24c-1.52-3.24-3.49-6.29-5.31-9.41Z"></path>
      <path class="cls-18" d="M104.67,204.54a9.61,9.61,0,0,0,4.43,4.3,30.13,30.13,0,0,0,5.83,2.35c4.06,1.11,8.22,1.88,12.27,3.27l0,.1a50.51,50.51,0,0,1-12.48-2.65,30.46,30.46,0,0,1-5.84-2.66,9.89,9.89,0,0,1-4.28-4.67Z"></path>
      <path class="cls-18" d="M99.78,182.07a50.29,50.29,0,0,1,4.6,10.8,19.4,19.4,0,0,1,.3,11.7l-.1,0a42.14,42.14,0,0,0-.94-11.49,55.56,55.56,0,0,0-4-10.95Z"></path>
      <path class="cls-18" d="M96.31,210.62A24.85,24.85,0,0,0,104,216a74.73,74.73,0,0,1,8.71,3.69l0,.09a31.5,31.5,0,0,1-9-3.1,23.27,23.27,0,0,1-7.43-5.95Z"></path>
      <path class="cls-18" d="M113.69,200.49a17.56,17.56,0,0,0,4.9,2.77c1.74.71,3.53,1.3,5.34,1.84,3.66,1,7.31,1.87,10.91,3.17l0,.09a42.86,42.86,0,0,1-11.12-2.54,56.53,56.53,0,0,1-5.31-2.13,17.8,17.8,0,0,1-4.76-3.14Z"></path>
      <path class="cls-17" d="M92.78,188.61c8,6.16,8.07,13.23,1.76,20.86C89.93,203,90.33,195.9,92.78,188.61Z"></path>
      <path class="cls-18" d="M93.06,189.17a28,28,0,0,1,2.75,9.47,20.8,20.8,0,0,1-1,9.81h-.1c.14-3.31.38-6.5.29-9.74A30,30,0,0,0,93,189.21Z"></path>
      <path class="cls-17" d="M117,198a145.08,145.08,0,0,1-15.55,8.09,118.3,118.3,0,0,1-17,6.42.48.48,0,0,0,.25.92,120,120,0,0,0,16.67-6.28,144.51,144.51,0,0,0,16.12-8.33A.48.48,0,0,0,117,198Z"></path>
      <path class="cls-17" d="M28.35,172.94C17.7,171.89,11.2,167.65,11,156.38,21.22,157.1,24.32,164.61,28.35,172.94Z"></path>
      <path class="cls-17" d="M28.75,171.58c-.5,0-3.54-21.28,7.45-18.56C34.7,159.29,39.2,171.06,28.75,171.58Z"></path>
      <path class="cls-17" d="M40.63,177.84c-5.17-8.83-6-15.49,2.84-22A25.77,25.77,0,0,1,40.63,177.84Z"></path>
      <path class="cls-17" d="M35,191.93c-.09-.1,11-12.59,14.82-8.09C49.15,190.43,40.91,198.64,35,191.93Z"></path>
      <path class="cls-17" d="M40.63,177.84c-8.26.57-16.7,3.37-21.54,10.45C31.78,189.78,37.07,191.18,40.63,177.84Z"></path>
      <path class="cls-17" d="M31.42,174.08c-1.9-.09-.93-.31-3.37-.32-7.42,0-13.72,2.73-19.11,8.49C18.4,185.75,26.83,183.16,31.42,174.08Z"></path>
      <path class="cls-18" d="M11.08,156.35a58.16,58.16,0,0,0,7.43,8.6c2.82,2.53,5.77,4.84,8.71,7.29l0,.08A29.38,29.38,0,0,1,18,165.49a51.56,51.56,0,0,1-7-9.09Z"></path>
      <path class="cls-18" d="M36.05,152.63A80.69,80.69,0,0,0,31.19,162a27.72,27.72,0,0,0-1.74,10.2h-.09a13.39,13.39,0,0,1-.45-5.35,17.77,17.77,0,0,1,1.59-5.16A65.81,65.81,0,0,1,36,152.58Z"></path>
      <path class="cls-18" d="M40.67,177.87a13.63,13.63,0,0,1-3.94,4.8,21.7,21.7,0,0,1-5.5,3,43.47,43.47,0,0,1-12.13,2.69l0-.09c3.93-1.41,8-2.09,11.89-3.31s7.6-3.45,9.62-7.12Z"></path>
      <path class="cls-18" d="M43.51,155.88a43.54,43.54,0,0,0-3.14,10.79,48,48,0,0,0,.3,11.16l-.09,0a19.35,19.35,0,0,1-1.32-5.57,22.08,22.08,0,0,1,.36-5.74,40.2,40.2,0,0,1,3.8-10.71Z"></path>
      <path class="cls-18" d="M49.08,184.24a23.89,23.89,0,0,1-6.7,5.36,26.6,26.6,0,0,1-8,3.08l0-.08A55.11,55.11,0,0,1,42,188.93a26.45,26.45,0,0,0,7-4.75Z"></path>
      <path class="cls-18" d="M31.33,174.11a26.54,26.54,0,0,1-10.61,5.72A60.61,60.61,0,0,1,8.9,182.3l0-.09a87.76,87.76,0,0,1,11.64-3.11A27.69,27.69,0,0,0,31.27,174Z"></path>
      <path class="cls-17" d="M50.3,162.39c-7.12,7.15-5.43,13.11.39,20.63C54.29,176,52.56,169.65,50.3,162.39Z"></path>
      <path class="cls-18" d="M50.14,163a26.87,26.87,0,0,0-1,9.47c.33,3.16,1,6.26,1.25,9.51l-.09,0a23.82,23.82,0,0,1-1.91-9.5A24.86,24.86,0,0,1,50.05,163Z"></path>
      <path class="cls-17" d="M27,172.7c11.17,4.89,21.82,11,33.7,14.07a.48.48,0,0,0,.25-.92c-11.79-3-22.38-9.12-33.47-14-.55-.24-1,.57-.48.82Z"></path>
      <polygon class="cls-17" points="87.1 181.94 91.25 184.35 86.16 184.35 87.1 181.94"></polygon>
      <path class="cls-17" d="M92,184.55H85.86l1.14-2.9.2.12Zm-5.55-.4h4l-3.3-1.92Z"></path>
      <polygon class="cls-17" points="90.13 87.85 93.39 89.74 89.39 89.74 90.13 87.85"></polygon>
      <path class="cls-17" d="M94,89.9H89.16l.89-2.28Zm-4.35-.32H92.8l-2.59-1.5Z"></path>
      <polygon class="cls-17" points="91.34 62.45 94.6 64.34 90.6 64.34 91.34 62.45"></polygon>
      <path class="cls-17" d="M95.19,64.5H90.37l.89-2.28Zm-4.36-.31H94l-2.6-1.51Z"></path>
      <polygon class="cls-17" points="89.57 69.45 86.31 71.35 90.31 71.35 89.57 69.45"></polygon>
      <path class="cls-17" d="M90.54,71.51H85.73l3.92-2.28Zm-3.64-.32h3.18l-.59-1.51Z"></path>
      <polygon class="cls-17" points="86.2 133.96 82.94 135.85 86.94 135.85 86.2 133.96"></polygon>
      <path class="cls-17" d="M87.17,136H82.35l3.93-2.28Zm-3.65-.32H86.7l-.58-1.51Z"></path>
      <polygon class="cls-17" points="87.3 164.93 82.52 165.4 87.15 167.52 87.3 164.93"></polygon>
      <path class="cls-17" d="M87.34,167.82l-5.58-2.55,5.76-.56Zm-4.06-2.29L87,167.21l.12-2.06Z"></path>
      <path class="cls-16" d="M100,64.47c-.3.48-.6,1-.88,1.43-.14.23-.28.44-.14.71a.48.48,0,0,0,.73.1,2.13,2.13,0,0,0,.42-.65.7.7,0,0,0,.13-.52.48.48,0,0,0-.81-.18,2.65,2.65,0,0,0-.44.56c-.39.52-.77,1-1.15,1.58-1.08,1.51-2.18,3-3.38,4.42A31.06,31.06,0,0,1,90,76.33c-.46.37.2,1,.66.66a35.87,35.87,0,0,0,6-6.31c.86-1.12,1.68-2.27,2.51-3.42.23-.33.46-.65.7-1a1.1,1.1,0,0,0,.14-.18c.06-.13.24-.12-.09,0l-.36,0h0l-.21-.28c0-.2.1-.36,0-.21a1.09,1.09,0,0,0-.14.23c0,.07-.1.14-.14.21s-.12.12,0,0l.73.09h0l0,.36c-.07.2,0,0,0,0a2.82,2.82,0,0,0,.18-.29c.25-.43.52-.85.78-1.27s-.49-1-.8-.47Z"></path>
      <path class="cls-17" d="M100.28,65.28s14-5.93,4.72-18.54C105,46.74,93.09,51.69,100.28,65.28Z"></path>
      <path class="cls-17" d="M98.94,67.07c.55.07-.76-14.8-15.93-15.77C83,51.3,87.37,65.51,98.94,67.07Z"></path>
      <path class="cls-17" d="M98.94,67.07a20.53,20.53,0,0,1,1.72-1.15c3.37-2,11.25-5.77,20.09-3C120.75,63,113.93,74.24,98.94,67.07Z"></path>
      <path class="cls-18" d="M105.05,46.74a56.81,56.81,0,0,1-.85,9.9A31.51,31.51,0,0,1,103,61.5a18.45,18.45,0,0,1-2.33,4.44l-.09,0c1.13-3.12,2-6.21,2.85-9.4A69.47,69.47,0,0,0,105,46.73Z"></path>
      <path class="cls-18" d="M83,51.26a45.34,45.34,0,0,1,8.31,6.17,29.12,29.12,0,0,1,3.57,3.79,21.28,21.28,0,0,1,2.61,4.5l-.08,0c-1.12-1.33-2.11-2.71-3.26-4S92,59.2,90.83,58A51.74,51.74,0,0,0,83,51.34Z"></path>
      <path class="cls-18" d="M99,67a20.19,20.19,0,0,0,5.54-.18A48.31,48.31,0,0,0,110,65.77c3.58-1,7.11-2.07,10.78-2.85l0,.08a41.3,41.3,0,0,1-5.2,2.16,48.31,48.31,0,0,1-5.46,1.34,49.8,49.8,0,0,1-5.57.8,20.28,20.28,0,0,1-5.61-.19Z"></path>
      <path class="cls-16" d="M85.34,212l-2.14-.77c3.94-10.93,10.77-19.08,18-27.7a150.77,150.77,0,0,0,12.73-16.73,85.18,85.18,0,0,0,11.49-59.36l2.24-.4a87.55,87.55,0,0,1-11.8,61,151.49,151.49,0,0,1-12.92,17C95.84,193.43,89.14,201.42,85.34,212Z"></path>
      <path class="cls-16" d="M77.29,237.47A326.94,326.94,0,0,1,52.41,81.6l2.27.2A324.52,324.52,0,0,0,79.39,236.57Z"></path>
      <path class="cls-12" d="M81.39,180.39c.48-3.52-4.92-5-5.4-1.49-3,22.36.52,46-2,68.41a22.46,22.46,0,0,0,5.26,1.47C81.75,226.37,78.31,203.16,81.39,180.39Z"></path>
      <path class="cls-12" d="M74.86,201.36a5.18,5.18,0,0,1-2.46-1.7,6.83,6.83,0,0,1-1-2.57,27.82,27.82,0,0,1-1.14-5.39l.27-.09c1,1.55,1.92,3,2.89,4.51a8.55,8.55,0,0,1,1.44,2.19,6.27,6.27,0,0,1,.24,2.9Z"></path>
      <path class="cls-14" d="M80.27,226.83s.33.14.34.34l0-.3,0-.18-.17.08C80.34,226.82,80.21,226.83,80.27,226.83Z"></path>
      <path class="cls-14" d="M79.61,226.81l-.06.16c0,.1,0,.19,0,.29Z"></path>
      <path class="cls-14" d="M81,178.86v0l0,0Z"></path>
      <path class="cls-14" d="M81.31,235.81l-.08-3.43V232l.08-.19a6.85,6.85,0,0,1,.38-.69l.88-1.5a7.49,7.49,0,0,0,.71-1.71,3.16,3.16,0,0,0,.12-1,4.55,4.55,0,0,0-.17-1,.71.71,0,0,0-.77-.52.84.84,0,0,0-.49.27l-.31.32a3.42,3.42,0,0,1-.56.46,4.48,4.48,0,0,1-.49.26l0,.18,0,.3h0c0,.15,0,.1,0,.13v-.14c0-.2-.33-.38-.34-.34s.07,0,.16-.06l.17-.08c-.52-3.67-.8-7.81-1.11-11.7s-.59-8.05-.52-12l2.29-24.06v0l0,0a2.75,2.75,0,0,0-2.08-1.31,2.71,2.71,0,0,0-2,1.35l.12.07a2.56,2.56,0,0,1,1.92-1.23A2.51,2.51,0,0,1,81,178.91v0l0,.09,0,0-2.78,24c-.13,4.08.14,8.09.34,12.13s.41,7.76,1,11.92l.06-.16,0,.45c0-.1,0-.19,0-.29a.89.89,0,0,0,0,.39.74.74,0,0,0,.65.59,1.46,1.46,0,0,0,.66-.13,5.37,5.37,0,0,0,.87-.42,4.87,4.87,0,0,0,.5-.4,2.2,2.2,0,0,0-.09-.71c0-.12,0,.24.51.25.3-.1.13-.07.14,0l-.3.29c-.08.08-.18.14-.26.21a4.63,4.63,0,0,1-.73,2.05l-.88,1.43c-.15.25-.31.5-.46.8a2.41,2.41,0,0,0-.2.61v3.92a117,117,0,0,1-.72,13c.46.07.92.13,1.39.18A115.63,115.63,0,0,0,81.31,235.81Z"></path>
      <path class="cls-14" d="M82.76,226.5s.16-.06-.14,0c-.53,0-.52-.37-.51-.25a2.2,2.2,0,0,1,.09.71c.08-.07.18-.13.26-.21Z"></path>
      <path class="cls-13" d="M76.43,217.76s-2.72-4.9,0-38.11c0,0-4.2,24-1.58,37.5,1.34,6.92,1.53,19.08.34,30.63.54.19,1.06.34,1.57.48A122,122,0,0,0,76.43,217.76Z"></path>
      <polygon class="cls-17" points="127.01 140.8 130.27 142.69 126.27 142.69 127.01 140.8"></polygon>
      <path class="cls-17" d="M130.85,142.85H126l.89-2.28Zm-4.35-.32h3.18l-2.59-1.5Z"></path>
      <polygon class="cls-17" points="116.26 166.5 119.01 169.08 115.12 168.18 116.26 166.5"></polygon>
      <path class="cls-17" d="M119.55,169.36l-4.7-1.08,1.38-2Zm-4.17-1.28,3.09.71-2.18-2Z"></path>
      <polygon class="cls-17" points="127.32 125.73 123.55 125.56 126.91 127.72 127.32 125.73"></polygon>
      <path class="cls-17" d="M127,128l-.19-.13L123,125.38l4.54.2Zm-2.89-2.24,2.68,1.72.31-1.58Z"></path>
      <polygon class="cls-17" points="111.59 171.41 107.16 169.54 110.22 173.61 111.59 171.41"></polygon>
      <path class="cls-17" d="M110.24,174l-.17-.24-3.52-4.66,5.33,2.25ZM107.77,170l2.44,3.24,1.08-1.76Z"></path>
      <polygon class="cls-17" points="62.23 191.43 58.08 193.84 63.17 193.84 62.23 191.43"></polygon>
      <path class="cls-17" d="M63.46,194.05H57.33l5-2.91Zm-4.64-.41h4l-.74-1.91Z"></path>
      <polygon class="cls-17" points="54.35 150.97 51.09 152.86 55.09 152.86 54.35 150.97"></polygon>
      <path class="cls-17" d="M55.32,153H50.5l3.93-2.28Zm-3.65-.31h3.19l-.59-1.51Z"></path>
      <polygon class="cls-17" points="66.61 160.28 63.35 162.18 67.34 162.18 66.61 160.28"></polygon>
      <path class="cls-17" d="M67.58,162.34H62.76l3.93-2.29ZM63.93,162h3.18l-.58-1.51Z"></path>
      <polygon class="cls-17" points="48.8 119.4 45.53 121.29 49.53 121.29 48.8 119.4"></polygon>
      <path class="cls-17" d="M49.76,121.45H45l3.93-2.28Zm-3.64-.32H49.3l-.59-1.51Z"></path>
      <polygon class="cls-17" points="39.71 102.2 43.43 101.57 40.36 104.13 39.71 102.2"></polygon>
      <path class="cls-17" d="M40.28,104.4l-.77-2.33,4.47-.76Zm-.36-2.07.51,1.53,2.45-2Z"></path>
      <path class="cls-17" d="M68.69,139.58s1.9-11.68-12.3-13.89C56.39,125.69,57.65,138.73,68.69,139.58Z"></path>
      <path class="cls-18" d="M68.67,139.59q-2.73-3.79-5.72-7.38c-1-1.17-2.05-2.33-3.12-3.45a15.43,15.43,0,0,0-3.46-3l0-.06a11.63,11.63,0,0,1,3.88,2.66,39.77,39.77,0,0,1,3.06,3.57q2.88,3.71,5.38,7.67Z"></path>
      <path class="cls-17" d="M74.48,133.72s2-11.36-11.89-13.15C62.59,120.57,64.27,134.25,74.48,133.72Z"></path>
      <path class="cls-18" d="M74.45,133.74a62.21,62.21,0,0,0-5.4-7.09,52.28,52.28,0,0,0-6.48-6.05l0-.06A18,18,0,0,1,66.36,123a28.9,28.9,0,0,1,3.07,3.29,53.2,53.2,0,0,1,5.08,7.39Z"></path>
      <path class="cls-17" d="M76,131s-3.69-12.84,7.26-16.63C83.28,114.36,90.54,129.41,76,131Z"></path>
      <path class="cls-18" d="M76,131a11,11,0,0,0,2.62-3.68,43.17,43.17,0,0,0,1.76-4.22l1.38-4.36c.54-1.43.92-2.91,1.49-4.34h.06c-.21,1.53-.59,3-.94,4.51a45,45,0,0,1-1.52,4.36,42.87,42.87,0,0,1-1.95,4.18A10.91,10.91,0,0,1,76,131Z"></path>
      <path class="cls-17" d="M75.2,133.72s11.78-7.78,20.51-4.1C95.71,129.62,88.66,139.82,75.2,133.72Z"></path>
      <path class="cls-18" d="M75.2,133.69a50,50,0,0,0,10.42-1.19c1.71-.39,3.4-.83,5.06-1.34s3.33-1.06,5-1.57l0,.06a33.7,33.7,0,0,1-4.85,2.11A36.43,36.43,0,0,1,85.72,133a45.93,45.93,0,0,1-10.53.75Z"></path>
      <path class="cls-17" d="M69.29,140.14s11-6.52,21.57-2.32C90.86,137.82,80.45,148.56,69.29,140.14Z"></path>
      <path class="cls-18" d="M69.3,140.11a19.6,19.6,0,0,0,5.41.17c1.81-.13,3.61-.36,5.4-.64l5.36-1c1.8-.25,3.57-.64,5.38-.87l0,.07c-1.73.58-3.51,1-5.28,1.42s-3.59.65-5.41.86-3.63.39-5.45.46a20,20,0,0,1-5.45-.43Z"></path>
      <path class="cls-17" d="M76.27,130.17c-1.63,3.44-4.45,6.11-7,8.83l-7,7.36c-.41.44.25,1.11.67.67l7.17-7.56c2.58-2.72,5.37-5.39,7-8.83.26-.54-.56-1-.82-.47Z"></path>
      <path class="cls-16" d="M53.33,77.69s-5.18-11.28,4.53-24.61C57.86,53.08,66.34,70.24,53.33,77.69Z"></path>
      <path class="cls-17" d="M53.57,83.32a13,13,0,0,0,6.94-7.75c2.12-5.95,1.24-7.41,2.29-8S59.63,70,57,72.66c0,0-2.81-8.89-6.27-10C50.22,73.21,48,79.56,53.57,83.32Z"></path>
      <path class="cls-16" d="M10.81,68.45S8.06,59.29,9.12,56.38c0,0,6.94,4.23,8.05,7.64a21.25,21.25,0,0,1,.9,7.9C18,73.26,10.81,68.45,10.81,68.45Z"></path>
      <path class="cls-17" d="M6.61,59s3.84,4.88,6.38,5.59,5,3.55,5.08,4.07-1.38-6.38-5.4-9.82c0,0,9.55,2,7.09,12.78,0,0,1.71,2.95-1,4.85-1.57,1.13-3.82-1.32-3.54-1.7S11.93,76,8.92,70.41,6,64.73,4.19,63.8s3.25-.45,3.47.12S6,61.27,6.61,59Z"></path>
      <path class="cls-16" d="M129.71,91.3s-3.84-8.46-4.64-8.94S120,97.9,120.43,99.15s4.73,6.29,6.8,4.49S131.73,92.34,129.71,91.3Z"></path>
      <path class="cls-17" d="M129.37,104.74s1.18,5-4.22,4.8c0,0-1.9-.2-1.61-4,0,0-9-4-5.2-16.4,0,0,.48,8.16,4.9,11,0,0,1.41.91,1.12-.87-1-6,5.34-11.81,4.8-14.69s2.31,3.3,2.27,4.29a5.67,5.67,0,0,1,2.21-2,15.49,15.49,0,0,0-.54,7.74C133.86,99.1,133.55,102.79,129.37,104.74Z"></path>
      <path class="cls-16" d="M85.38,11.2s5-10.6,6-11.19,6.07,19.71,5.52,21.29-6.11,7.83-8.69,5.52S82.81,12.47,85.38,11.2Z"></path>
      <path class="cls-17" d="M85.54,28.17S84,34.41,90.77,34.3c0,0,2.4-.2,2.11-5,0,0,11.47-4.87,6.89-20.59,0,0-.77,10.29-6.41,13.81,0,0-1.79,1.11-1.4-1.13,1.33-7.54-6.5-15-5.75-18.63s-3,4.12-3,5.37a7.11,7.11,0,0,0-2.74-2.61A19.68,19.68,0,0,1,81,15.32C80,21,80.31,25.62,85.54,28.17Z"></path>
    </g>
  </g>
</svg>
