<?xml version="1.0" encoding="UTF-8"?>
<svg xmlns="http://www.w3.org/2000/svg" xmlns:xlink="http://www.w3.org/1999/xlink" viewBox="0 0 117.08 201.75">
  <defs>
    <style>.cls-1,.cls-20,.cls-22,.cls-23,.cls-28,.cls-29,.cls-30,.cls-37,.cls-38,.cls-39,.cls-40,.cls-41,.cls-42{fill:none;}.cls-2{fill:#8e6848;}.cls-3{clip-path:url(#clip-path);}.cls-4{fill:url(#Безымянный_градиент_2);}.cls-5{fill:#713e21;}.cls-6{fill:#3d271f;}.cls-7{fill:#69391e;}.cls-8{fill:#6b472f;}.cls-9{fill:#5c3624;}.cls-10{fill:#795135;}.cls-11{fill:#9a734f;}.cls-12{fill:#cacac9;}.cls-13{fill:#d0c5a6;}.cls-14{fill:#85563a;}.cls-15{fill:#e6f5b2;}.cls-16{fill:#bce27d;}.cls-17{fill:#a8d459;}.cls-18{fill:#81b651;}.cls-19{fill:#93c63e;}.cls-20,.cls-22,.cls-23,.cls-28,.cls-29,.cls-30,.cls-37,.cls-38,.cls-39,.cls-40,.cls-41,.cls-42{stroke:#3f6c3e;}.cls-20,.cls-22,.cls-23,.cls-28,.cls-29,.cls-30,.cls-37,.cls-42{stroke-miterlimit:10;}.cls-20{stroke-width:0.4px;}.cls-21{fill:#3f6c3e;}.cls-22{stroke-width:0.1px;}.cls-23{stroke-width:0.3px;}.cls-24{fill:#a8d45c;}.cls-25{fill:#cfe77d;}.cls-26{fill:#9ecb3f;}.cls-27{fill:#e3f4ad;}.cls-28{stroke-width:0.34px;}.cls-29{stroke-width:0.17px;}.cls-30{stroke-width:0.25px;}.cls-31{fill:#80b64f;}.cls-32{fill:#e5f4af;}.cls-33{fill:#bce074;}.cls-34{fill:#d6eb8a;}.cls-35{fill:#d3ea85;}.cls-36{fill:#94c83f;}.cls-37,.cls-41{stroke-width:0.32px;}.cls-38,.cls-39,.cls-40,.cls-41{stroke-linecap:round;stroke-linejoin:round;}.cls-38{stroke-width:0.08px;}.cls-39{stroke-width:0.24px;}.cls-40,.cls-42{stroke-width:0.16px;}.cls-43{fill:#6b482f;}</style>
    <clipPath id="clip-path">
      <polygon class="cls-1" points="7.72 173.07 57.69 196.59 103.91 173.19 55.86 152.82 7.72 173.07"></polygon>
    </clipPath>
    <linearGradient id="Безымянный_градиент_2" x1="-3333.64" y1="-338.13" x2="-3330.84" y2="-338.13" gradientTransform="matrix(34.36, 0, 0, -34.36, 114527.7, -11442.28)" gradientUnits="userSpaceOnUse">
      <stop offset="0" stop-color="#9b714e"></stop>
      <stop offset="0.38" stop-color="#9b714e"></stop>
      <stop offset="0.89" stop-color="#764528"></stop>
      <stop offset="1" stop-color="#6e3c20"></stop>
    </linearGradient>
  </defs>
  <g id="Слой_2" data-name="Слой 2">
    <g id="Слой_1-2" data-name="Слой 1">
      <path class="cls-2" d="M57.69,130.44s9.62,11.3,17.06,11.76,32.81-7.56,32.81-7.56l2.56-26.43L57.69,89.71Z"></path>
      <path class="cls-2" d="M0,106.33,5.23,140.8s18.58,2.79,21.83,1.87,18.12-6.51,22.29-6.51,8.34-5.73,8.34-5.73V89.71Z"></path>
      <g class="cls-3">
        <rect class="cls-4" x="31.38" y="125.51" width="48.87" height="98.4" transform="translate(-121.63 221.07) rotate(-86.92)"></rect>
      </g>
      <path class="cls-5" d="M7.72,173.07,5.23,140.81s23.69-.47,30.19-3.72,22.27-6.66,22.27-6.66l-1.83,22.4Z"></path>
      <path class="cls-6" d="M41.49,142.81a8.56,8.56,0,0,0-2.84-1.67l0,0s-3.79-1.13-5.85,1.42-1.71,5.28-.77,5.73a11.08,11.08,0,0,0,1.63.34l.09,0a28.19,28.19,0,0,0,3.51-.8,1.56,1.56,0,0,0,.6-.16,6.26,6.26,0,0,0,.65-.19c1.49-.45,1.67-.12,2.69-1a4,4,0,0,0,1.09-2.55l-.21-.5h0l0,0a1,1,0,0,0-.58-.5"></path>
      <path class="cls-6" d="M21.2,146.14a11,11,0,0,0-4,1.32v0s-4.3,2.7-3.59,6.85,3.66,6.13,4.88,5.6a14.71,14.71,0,0,0,1.71-1.28l0-.13c.92-1.06,1.59-3.17,2.21-4.06a2,2,0,0,0,.35-.72c.11-.2.21-.42.38-.79.8-1.81,1.28-1.71,1.29-3.45a5.09,5.09,0,0,0-1.54-3.21,4.07,4.07,0,0,0-.66-.23v0h-.08a1.27,1.27,0,0,0-1,.14"></path>
      <path class="cls-7" d="M57.69,130.44l-1.83,22.39,48.06,20.36,3.64-38.55s-15-1.73-21.48-.81-17.84,3.72-21.24,1.87a45.07,45.07,0,0,1-7.15-5.26"></path>
      <path class="cls-6" d="M39.39,153.44a3.29,3.29,0,0,0-1.26-.31h0a2.31,2.31,0,0,0-2,1.19c-.49,1.18-.05,2.17.35,2.23l.65,0,0,0a10.59,10.59,0,0,0,1.23-.69l.21-.13.22-.14c.51-.34.61-.23.9-.68a1.59,1.59,0,0,0,.12-1.08l-.13-.16h0Z"></path>
      <path class="cls-6" d="M86.47,143.8a2.27,2.27,0,0,0-.11-.89h0s-.38-1-1.27-1-1.43.5-1.38.78l.2.41h0l.75.63.13.1.15.11c.35.25.3.34.66.41a1.08,1.08,0,0,0,.74-.18l.07-.13h0Z"></path>
      <path class="cls-6" d="M99.89,160a10.91,10.91,0,0,0-1.9-3.81h0s-3.32-3.91-7.36-2.6-5.59,4.54-4.88,5.68a15.32,15.32,0,0,0,1.52,1.53h.14c1.19.77,3.39,1.14,4.37,1.62a2.18,2.18,0,0,0,.77.25c.22.08.45.15.84.26,1.93.55,1.9,1,3.64.79a5.15,5.15,0,0,0,3-2,3.87,3.87,0,0,0,.13-.69h0l0-.07a1.27,1.27,0,0,0-.28-1"></path>
      <path class="cls-6" d="M73.78,146.7a8.37,8.37,0,0,0-1.87,2.69l0,0s-1.4,3.66,1,5.9,5.11,2.08,5.62,1.19a13,13,0,0,0,.46-1.59l0-.1a27.58,27.58,0,0,0-.52-3.53,1.67,1.67,0,0,0-.12-.61c0-.17-.07-.36-.13-.66-.35-1.5,0-1.66-.81-2.74A3.94,3.94,0,0,0,74.88,146l-.51.17v0l0,0a1,1,0,0,0-.54.54"></path>
      <path class="cls-8" d="M74,174.08a1.59,1.59,0,0,0,1.57-.42c.54-.7.43-1.43.17-1.54l-.44-.09c-.29-.05-.32.69-.33.7Z"></path>
      <path class="cls-9" d="M73,173.5s.87.79,1.23.55.8-.46.8-.46l0-.25-1-.31-.56.19Z"></path>
      <path class="cls-10" d="M73,173.36c0,.1.12.36.4.27a4.1,4.1,0,0,0,.52-.23l.33-1c.06-.15.14-.19-.25-.06s-.45,0-.72.29a1.07,1.07,0,0,0-.28.69"></path>
      <path class="cls-11" d="M73.88,173.4a5.25,5.25,0,0,0,.13-.69c0-.31,0-.39.28-.43s.84-.33,1.11-.23.26.09.26.44a1.24,1.24,0,0,1-.39.87.71.71,0,0,1-.75.33,1.82,1.82,0,0,1-.64-.29"></path>
      <path class="cls-8" d="M63.28,168s2.39.13,3.24-1.67.26-3.36-.36-3.49a7.39,7.39,0,0,0-1,0c-.66,0-.37,1.67-.39,1.7Z"></path>
      <path class="cls-9" d="M60.93,167.13s2.3,1.32,3,.61,1.53-1.4,1.53-1.4l-.15-.52a7.25,7.25,0,0,0-2.27-.24c-.36.2-1,.62-1.16.69Z"></path>
      <path class="cls-10" d="M60.74,166.85c.11.21.43.74,1,.4a8.38,8.38,0,0,0,1.05-.75s.18-1.93.26-2.28.22-.49-.58,0-1,.31-1.44,1a2.38,2.38,0,0,0-.28,1.65"></path>
      <path class="cls-11" d="M62.78,166.5a10.92,10.92,0,0,0-.05-1.58c-.09-.7-.16-.88.42-1.09s1.68-1.12,2.32-1,.6.06.77.84a2.88,2.88,0,0,1-.41,2.1,1.62,1.62,0,0,1-1.52,1.07,4.11,4.11,0,0,1-1.53-.32"></path>
      <path class="cls-8" d="M53.32,175.72s1.86,1.42,3.54.43,2-2.58,1.62-3a7,7,0,0,0-.84-.53c-.55-.33-1.21,1.15-1.25,1.16Z"></path>
      <path class="cls-9" d="M51.86,173.77s1.15,2.33,2.08,2.13,2-.29,2-.29l.16-.51s-1.29-1.4-1.7-1.44-1.14,0-1.32-.07Z"></path>
      <path class="cls-10" d="M51.86,173.44c0,.23,0,.84.59.87a8.3,8.3,0,0,0,1.26,0l1.46-1.71c.25-.24.45-.27-.47-.32s-1-.27-1.7,0a2.39,2.39,0,0,0-1.14,1.19"></path>
      <path class="cls-11" d="M53.71,174.28a10.69,10.69,0,0,0,.83-1.32c.3-.61.35-.78.93-.64s2,0,2.44.44.45.38.17,1.11a2.8,2.8,0,0,1-1.49,1.46,1.54,1.54,0,0,1-1.81,0,3.92,3.92,0,0,1-1.07-1.09"></path>
      <path class="cls-8" d="M49,169.28a2.67,2.67,0,0,0,.1-2.73c-.86-1.2-2.11-1.39-2.41-1l-.35.67c-.22.44,1,.85,1,.88Z"></path>
      <path class="cls-9" d="M47.63,170.52s1.7-1,1.49-1.73a15.08,15.08,0,0,1-.35-1.51l-.4-.09s-1,1.08-1,1.4,0,.87,0,1Z"></path>
      <path class="cls-10" d="M47.39,170.54c.18,0,.63,0,.62-.5a7.72,7.72,0,0,0-.11-1l-1.4-1c-.2-.17-.23-.32-.21.38s-.15.74.12,1.3a1.8,1.8,0,0,0,1,.78"></path>
      <path class="cls-11" d="M47.9,169.08a7.93,7.93,0,0,0-1.06-.54c-.49-.2-.62-.22-.55-.67s-.13-1.51.17-1.89.26-.37.84-.2a2.1,2.1,0,0,1,1.21,1,1.19,1.19,0,0,1,.15,1.38,3,3,0,0,1-.76.89"></path>
      <path class="cls-8" d="M40.56,171.29a1.15,1.15,0,0,0,.38-1.11c-.2-.61-.69-.85-.86-.74l-.23.23.29.49Z"></path>
      <path class="cls-9" d="M39.82,171.63s.83-.21.84-.53,0-.67,0-.67l-.15-.08-.58.44-.12.43Z"></path>
      <path class="cls-10" d="M39.71,171.61l.33-.13.08-.41-.46-.59c-.06-.1,0-.17-.13.12s-.16.29-.12.56a.81.81,0,0,0,.3.45"></path>
      <path class="cls-11" d="M40.12,171.07l-.37-.36-.15-.35.32-.76.37,0a1,1,0,0,1,.37.59.51.51,0,0,1-.12.59Z"></path>
      <path class="cls-8" d="M38,176s1.64-2.64.13-4.73-3.65-2.39-4.18-1.77a8.24,8.24,0,0,0-.6,1.17c-.37.77,1.66,1.46,1.69,1.51Z"></path>
      <path class="cls-9" d="M35.56,178.12s2.94-1.8,2.56-3-.63-2.62-.63-2.62l-.69-.15s-1.69,1.88-1.69,2.42.08,1.52.06,1.75Z"></path>
      <path class="cls-10" d="M35.13,178.16c.31,0,1.1,0,1.07-.87a12.17,12.17,0,0,0-.19-1.66s-2.09-1.42-2.44-1.72-.41-.56-.36.66-.25,1.28.21,2.24a3.15,3.15,0,0,0,1.71,1.35"></path>
      <path class="cls-11" d="M36,175.63a13.69,13.69,0,0,0-1.84-.94c-.85-.33-1.08-.36-1-1.15s-.23-2.61.29-3.28.45-.64,1.44-.35a3.69,3.69,0,0,1,2.12,1.78,2.07,2.07,0,0,1,.27,2.39A5.33,5.33,0,0,1,36,175.63"></path>
      <path class="cls-12" d="M52.06,120.57c.23.66.87,1.69-.25,2.29s-3.91,1.31-4.27,3.59.66,6.13-3.27,9.76c0,0-.49,1.18.56.71a7.9,7.9,0,0,0,3.07-4.08c.41-1.47,1.38-5,2.35-5.31s2.13-.13,1,2.27a23.26,23.26,0,0,0-2.32,6.33c-.18,1.64.82,1.68.91.31a3.73,3.73,0,0,1,1.6-2.93c.76-.43,1.93-2.1,2.15-1.87.73.81.36,1.56.09,2.4s.4,1.27-2,3a12.3,12.3,0,0,1-3.87,2c-1.06.54-4.66-.43-5.46.43s-.9,1.85-.15,1.42,1.44-1.36,2-.87,4,.29,3.94.5A13.57,13.57,0,0,0,52.2,139c1.14-.75,3-.47,1.8.77s-3.31,2.83-4.38,2.93-2.1-.88-1.84-.2,1.18.92,1.64,1a16.61,16.61,0,0,0,2.77-1.15c.24,0,1.59-.55,2.2-.7s1.44-.28.84.88-.24,1.71-1.63,2.07-1.13.67-2.15.27-1.49-.29-1.29,0,1-.16.21.27-1.76-1.13-1.51-.16a2.12,2.12,0,0,0,1.71,1.55A4,4,0,0,0,55,146c2.28-1.64,2.38-1.55,1.18.34,0,0-.11-.08-.4,1s.17,1.71-1.33,2.56-2.21,1.93-3.31,1.16-.23,1.06.29,1.19.94,0,2,.21,3.88-2.18,4.12-2.81.92-4.74,1.69-4.8,1.35,1.16,1.4,1.74a8.28,8.28,0,0,1-.72,2.88,20.91,20.91,0,0,1-1.67,4.09c-.72,1.22-2.46.46-2.17,1.57s2.43.4,2.74.29,1.79-4.14,2.23-5S63,147.24,62.51,146s-2.33-4-2-4.7.37-.18.86.74,1.88,3.82,2.9,3.64a15.2,15.2,0,0,0,4.61-1.31c1.14-.75,3.23-1.54,4.21.23s2.61,4.76,3.09,4.67-.46-1.21-.43-1.5S74.1,144.9,74,144.16s-1.74-2.93-4.89-2.11-3.38,1.88-4.25,1.21S62.23,142,62,139s-.36-3.26.56-3,2.63,1.22,4.63.72,3.21-1.47,3.52-2.73.25-3.37.45-4.14a4.49,4.49,0,0,1,1-1.85c.26-.19.7-1.59-1.25.15,0,0-.94,1.06-1.07,4.51s-7.56.78-7.56.78A24.09,24.09,0,0,1,59.75,130c-.37-.9.61-.73,1.28-.36a2.9,2.9,0,0,0,2.14-.21c.43-.17.82-1.07,1.9-.16s1.55,2,2.29,1.62-1.39-1.23-1.45-1.81a3,3,0,0,0-2.68-1.88c-1.19.16-2.93,1-3.23-.56s-.57-5.12-1.21-5.77S51.24,118.32,52.06,120.57Z"></path>
      <path class="cls-13" d="M58.44,122.89s.53-1.1.18-1.71S53.09,119.33,53,120a8.3,8.3,0,0,1-.3,2.76c-.39.73-3.17,1.78-3.17,1.78s-1.7.16-1.6,4,.18,1.27.66.46,1.43-3.12,2.59-2.23,1,1.84.68,3.16a25.43,25.43,0,0,0-.44,2.65s2.39-3.31,2.64-1.94.9,4-.34,5.36a18.93,18.93,0,0,1-4.33,3.1c-.58.23-.26.94,1.24.13s3.56-1.72,3.56-1.72,1.86-1.26,1,1.44a8.08,8.08,0,0,1-1.12,1.62c-.71.79-.25.93,1,.11s.86.78.86.78a17,17,0,0,0-1,3.35c.11.49,1.88-1.44,1.88-1.44s1.26-.78.6,1.77-.33,2.3-.16,2.23.9-4.24,1.83-3.66A9.55,9.55,0,0,1,61,145.32s1.28.52-.87-2.79a3.73,3.73,0,0,1,.72-5.32s.63-2.17-.22-3.07-2.39,2.6-3.63-2S53.78,123.84,58.44,122.89Z"></path>
      <polygon class="cls-14" points="0 106.33 57.69 130.43 110.12 108.2 57.69 89.71 0 106.33"></polygon>
      <path class="cls-15" d="M61.11,107.89c.16-1-.85-2.16-.11-.74.17-.16.31-.18.57-2.24a53.78,53.78,0,0,0,1-9c0-.59-.07,1.05.09-2.89s1.61-21.15,1.64-26.63.71-8,.45-12.48-2.13-5.73-3.64-1.15a51.63,51.63,0,0,1-.48,10.61c-.69,3.73-.73,4.19-.7,9.28s0,17.11-.12,22.73S58.81,103.45,61.11,107.89Z"></path>
      <path class="cls-16" d="M51.55,29.63c-.72-2.45-1.38-4.92-2.14-7.36,1.36-.68,1.4-1.13,3.07-1.86s5-1.66,7-2.48c.74,2.54,1,3.75,1.82,6.62s2,7.4,2.83,10.59c-1.74.54-3.5,1-5.25,1.45Z"></path>
      <path class="cls-16" d="M62.49,95.35c.17-.33.2-.51.39-.85a11.43,11.43,0,0,1,.85-1.35c.23-.28.43-.27.65-.36.17-.76-.21.13.1-1s.72-3.75,1.33-5.44,1.83-4,2.18-6.08.85-4.17,1.28-6.19a1.43,1.43,0,0,1,.4-1.95,5.56,5.56,0,0,0,1.57-2.75c-.18-2-.39-4-.58-6a11.07,11.07,0,0,1,1-3.21c.52-1.24.35-1.61,0-3.56s.53-8-1-9.92A14.87,14.87,0,0,1,68,40c-.57-2.77-3.46-5.3-5.49-2.9.18,2.65.34,4.78.55,7.57a77.45,77.45,0,0,1,.57,8.68c-.08,3.19.35,7.62-.16,11a74,74,0,0,0-.5,11c0,3.24.12,8.48,0,10.67s-.23,1.35-.16,2.5A9.43,9.43,0,0,1,62.72,91a30.22,30.22,0,0,0-.17,3.15C62.55,94.86,62.52,94.75,62.49,95.35Z"></path>
      <path class="cls-17" d="M60.59,22.09c-.45-1.1-2-2.77-1-4.16s.94-4.16,1.76-5.71,2.64-5.71,4-5.65S68.11,9.42,69,10.79a9.34,9.34,0,0,0,3.67,3.44c1.35.57,1.16,2.43,2,3.81S76,22.14,76.44,24c-.28,2-1,5.27-1.18,6.94a30.79,30.79,0,0,0,0,3.09c1.07.44,2.11,1,3.18,1.47l-.69,1.67a2.24,2.24,0,0,0,.45,1.21,3.73,3.73,0,0,0,1.3.83,5.56,5.56,0,0,0,.93.17c-.08.41-.07.52-.17,1a6,6,0,0,1-.73,2.09,2.8,2.8,0,0,1-1.08.67c-.33.14-1,0-1.13.35s0,.78-.12,1.18a5.39,5.39,0,0,1-.9,1.65A9.79,9.79,0,0,0,75,47.79,1.29,1.29,0,0,0,74.86,49a7.18,7.18,0,0,0,1,1.53c.21.33.21.28.38.54a6,6,0,0,0-.43.57c-.16.27-.28.65-.47,1s-.49.69-.71,1.08-.48.79-.67,1.24-.1.7-.25,1.13-.3,1.12-.51,1.58a6,6,0,0,1-.58,1.24c-.31.44-.08.41-.69,1s-.31.77-1.74,1.66-1.17-3.24-.66-4.2,2.4-5.4.85-5.28a2.64,2.64,0,0,1-3.06-2.84c.24-2,.69-4.61-.25-5.43s.53-3.19.5-4-1.43.44-1.83-.16-1-3.65-1.86-3.13-1.49,3.44-1.22,2.63-.54-8.73-1-10.81S61,24.09,60.59,22.09Z"></path>
      <path class="cls-16" d="M62.37,34.45c0-1.18,0-2.89.17-3.93s.35-1.39.47-2.33a12.67,12.67,0,0,0,.19-2.69,19.13,19.13,0,0,0-.82-4.13c-.36-1-.83-2.11-1.17-2.86s-.42-.79-.73-1.39c-.78,1-1.58,2-2.37,2.95.13.54.2,1,.35,1.55s.39,1.41.56,1.93.39.82.54,1.27.3.68.43,1.15.06.67.21,1.32.37,1.75.59,2.57.66,2.23.86,3,.25,1,.42,1.63C62.16,34.44,62.27,34.48,62.37,34.45Z"></path>
      <path class="cls-18" d="M53.45,25.88a23,23,0,0,1-1.57-1.8,14.81,14.81,0,0,1-1-1.84c-.33-.73-.59-1.69-.93-2.48-.92-.48-2.27-1.4-3.1-1.76s-1.14-.14-1.86-.4a7,7,0,0,1,.08.93,5,5,0,0,1-.14,1.16,19.2,19.2,0,0,1-.7,2.23A14.51,14.51,0,0,1,43,24.16a11.79,11.79,0,0,1-1.08,1.13,5.06,5.06,0,0,1,.25.58,5,5,0,0,0,1.12.16c.45,0,1-.16,1.5-.19a3.47,3.47,0,0,1,1.83.31c.46.3.17.44.5.81s-.57.42.51.4A33.89,33.89,0,0,0,53.45,25.88Z"></path>
      <path class="cls-19" d="M47.06,18.27a6.61,6.61,0,0,1,.86.66c.33.27.91.78,1.23,1.1A11.3,11.3,0,0,1,50,21c.26.31.34.5.59.84a8.82,8.82,0,0,0,.67,1.11,1.78,1.78,0,0,0,1.44.18c.68-.21,2.47-.29,3.48-1.3s1.59-.24,3.34-1.39,3.52-10,5-11.66,1.66,1.19,2.12,2.44,1.15,4.54,3.08,4.45,3.69-.89,4.43,2.41-.18,8.36-.89,11.12-1.72,3.79-.65,6,4.08,1.59,5.81,1.77c.6-.4,1.3-.69,1.82-1.07a2.25,2.25,0,0,0,.67-1.73c.07-.63-.37-1.82,0-2.34a14.38,14.38,0,0,1,1.32-1.21c.51-.5,0-.75-.61-1.26a1.19,1.19,0,0,1,.19-1.87,2.88,2.88,0,0,0,1.15-1.6c.25-.69.24-1.22.46-2s-.54-.45-.9-.24-1.35.59-1.57-.11a6.33,6.33,0,0,0-.75-2.09c-.4-.44-.74-.17-.92-.89s.48-1.85.84-2.42c.21-.3-.16-.71-.44-1a5.9,5.9,0,0,1-.87-1.85c-.14-.6-.27-.46-.67-.55s-1.07.09-1.35-.56a2,2,0,0,1,.41-2.23c.63-.4.58-.39,0-.76a3.63,3.63,0,0,1-1.41-2,5.78,5.78,0,0,0-.71-1.75c-.39-.76-.83-1.42-1.4-1.27S70.83,7.31,71.21,6s.94-1.68-.08-2.21-1.19-.49-1.45-1.54S69.33.68,68.25.51A35.3,35.3,0,0,0,63.56.16c-.93,0-.53.07-1.05.55s-.56.81-1.36.59a4.09,4.09,0,0,0-2.7.36,17.31,17.31,0,0,0-2.34,1.09,2.11,2.11,0,0,0-.69,1.18c-.21.5-.09,1.24-.4,1.63s-.57.32-.94.42-.93.12-1.11.53a1.67,1.67,0,0,0-.27.91,5.57,5.57,0,0,0,.11,1.27c.12.59,0,.94-.58.57S49,8.73,50,10.24c0,.53.08.8,0,1.37s-.13,1.08-.24,1.84a2.16,2.16,0,0,0,.3,1.24c.32.61,0,2.4-1,2.65a15,15,0,0,1-2.94.59C46.47,18.09,46.76,18.09,47.06,18.27Z"></path>
      <path class="cls-17" d="M48.06,52.26c-.26-.26-.61-.14-1-.38a1.17,1.17,0,0,0-.91-.19c-.35.14-1,.31-1.4.51.09-.31.23-.57.31-.9s.17-.87.21-1.18,0-.43,0-.71c-.24,0-.43,0-.68,0a1.2,1.2,0,0,0-.8.45,1.79,1.79,0,0,0-.44.93,10.23,10.23,0,0,0,.1,1.28c.06.35.3,1,.34,1.17s0,.39-.08.33c-.29-.17-.51-.15-.78-.74s-.76-2.21-1-2.93a3.39,3.39,0,0,0-1.09-1.75c-.43-.22-.45-.12-.77-.36.19-.26.36-.27.54-.6a4.25,4.25,0,0,0,.4-2.09,11,11,0,0,0-.24-1.4c.3,0,.09,0,.5,0a4.91,4.91,0,0,0,1.9-.44,2.35,2.35,0,0,0,.94-1.89,2.41,2.41,0,0,0-.75-1.63c-.37-.32-.82-.41-1.09-.7s-.25-.42-.48-.71c.7-.15.15-.22,1.11-.38s2.46.4,4-.11,4.27-2,6-2.66c1,0,1.86,0,2.79,0,1,1.16,2,1.57,3,2.91a54.19,54.19,0,0,1,3.19,5.1c-3,2.1-9.27,6.47-11.57,8S49.61,51.28,48.06,52.26Z"></path>
      <path class="cls-16" d="M60.47,42.47a9,9,0,0,1-.3-3.66c.19-1.05.74-3.83,1.5-4.13a6.23,6.23,0,0,0-4-2.55,2.78,2.78,0,0,0-1.89.33,3.17,3.17,0,0,1-1.44.63l-1.63,3.09,1.27.13c.43,0,1-.08,1.43,0a2.45,2.45,0,0,1,1,.31c.25.15.33.37.57.71s.56,1.2.79,1.61a7.59,7.59,0,0,0,.54,1c.27.39.73.76,1.08,1.16S60.11,42.05,60.47,42.47Z"></path>
      <path class="cls-19" d="M45.3,28.57c.54-.37,1.38-1.11,1.84-1.42a8.61,8.61,0,0,1,1-.54c.37-.2.65-.33,1-.5l1.07-.48c.33-.13.61-.22.93-.32a1.44,1.44,0,0,1,1,0c.31.13.59.08.89.32s.35-.18.7.37.81-.37,1.1,1.49,1.68,4.36-.5,7.7-8.49,6.24-12.45,3.08a2.83,2.83,0,0,0,.9-.34c.32-.2.68-.25,1-.68a5.66,5.66,0,0,0,.58-2.16,12.38,12.38,0,0,0-.13-2.47c-.1-.59-.1-.8.26-1s1.06,0,1.34,0,1,.54,1,.15a24.83,24.83,0,0,0-1.19-2.46A7.85,7.85,0,0,1,45.3,28.57Z"></path>
      <path class="cls-16" d="M59.92,88.22c-.17-3.82,0-8.66.12-12.24s-.36-6-.52-9.35C58.26,65,57,63.24,55.79,61.55l-3,.92a3.45,3.45,0,0,1,.53,1.2,2.87,2.87,0,0,1-.38,1.8c-.3.31-.43.34-.68.64.23.06.43.25.66.29s.55-.06.82,0c0,.53,0,1.28-.07,1.77s0,.8,0,1.22a2.79,2.79,0,0,1-.15,1.11,3.86,3.86,0,0,1-.76,1.11c-.38.4-1.15,1-1.6,1.4,0,.16.11.31.17.46l1.4.27c.29.68.53,1.42.84,2.07.09.2.33.23.45.41l-.7,1.32c.07.53.22,1,.29,1.59s0,1,.12,1.51a4.36,4.36,0,0,0,.26,1.1c.26.75,1,2.52,1.35,3.44.85.58,1.87,1.3,2.66,1.79S59.2,87.73,59.92,88.22Z"></path>
      <path class="cls-19" d="M59.75,84.25c.27-.11.51-.33.78-.47.1-.71.28-1.52.37-2.19s.17-.87.22-1.62.07-2,.11-2.83a17.24,17.24,0,0,0,0-2.48c-.09-.75-.16-1.15-.2-1.89S61,71.26,61,70.42s.12-2.17.18-3,.45-.6.28-1.51a18,18,0,0,0-1-4.08,25.45,25.45,0,0,0-1.59-2.12c-.83.36-3,1-3.36,1.75s.33,1.07.18,1.74a9.79,9.79,0,0,1,1,.77,8.75,8.75,0,0,1,.87.95A6,6,0,0,1,58.24,66a2.83,2.83,0,0,1,.27,1.06c.11.66.32,2.48.41,3.22s.1.53.18,1.3.19,2,.2,3a4.3,4.3,0,0,0,.1,1.26,4,4,0,0,1,.32,1.83c-.1.67-.37.57-.22,1.63S59.74,82.92,59.75,84.25Z"></path>
      <path class="cls-19" d="M61.46,66c-.4-1-.9-2.69-1.28-3.51a10,10,0,0,0-1-1.48c-.38-.63-.89-1.16-1.29-1.83-.14-1.77-.3-5,.13-6.43s1.15,0,1.56-1.14-1.07-5.82-.77-7.09a1.34,1.34,0,0,1,1.66-1.16c.3.11.44.28.42.1-.1-.68-.36-.62-.57-1.38A10.06,10.06,0,0,1,59.7,39a17.57,17.57,0,0,1,.87-4c.35-.7.4-.29.68-.83.17.48.5.54.66,1a6.71,6.71,0,0,1,.52,1.65c.15,1,.18,2.62.32,4s.43,4.88.53,6.07.09,1.32.13,1.93,0,.89-.25,1.1a.72.72,0,0,0-.32.59c-.06.34-.18.62-.24,1s-.18.86-.23,1.28,0,.61-.07,1.11,0,1.25,0,1.86,0,1.16,0,1.86.1,1.63.09,2.39a21.27,21.27,0,0,1-.13,2.39c-.09.76-.36,1.91-.49,2.52S61.58,65.58,61.46,66Z"></path>
      <path class="cls-16" d="M49.54,63.24c.24.28.35.5.75.4a7.62,7.62,0,0,0,1.23-.57,3.83,3.83,0,0,1,1.61-.6A5.42,5.42,0,0,1,55.4,63c.7.33.7-.47,1.31-.86s1.25.85,1.82-.59-.23-6.44.32-7.7,1.14-.46,1.6-.23.91-1.3.57-2.36S59,45.06,59.67,44s.77-.17,1.29-.24c-.34-.25-.65-.76-1-1a6.6,6.6,0,0,0-1-.62c-.3-.16-.39-.11-.68-.25s-.84-.42-1.1-.53a4.27,4.27,0,0,0-.52-.19l-.74-.27a1.94,1.94,0,0,0-.37-.14.91.91,0,0,0-.46,0c-.17,0-.22.16-.46.23s-.75.25-1,.31a6.5,6.5,0,0,1-.73.08c-.24,0-.54,0-.77,0s-.35-.11-.57,0,0,.05-.2.25-.67.93-.86,1.2-.34.53-.46.75a4.43,4.43,0,0,0-.24.5c-.08.19-.11.34-.18.53s-.09.38-.17.58a5.78,5.78,0,0,1-.25.65c-.09.17-.27.28-.38.44l.73-.42c.29-.16.85-.53,1.13-.66a4.29,4.29,0,0,1,.73-.32,1.29,1.29,0,0,1,.58,0,1.42,1.42,0,0,1,.53.2,2.68,2.68,0,0,1,.48.42,4.34,4.34,0,0,1,.38.5c.15.19.29.55.46.76s.34.28.5.44c-.14.07-.07.1-.26.18s-.72.19-1,.29a4.21,4.21,0,0,0-.56.29c-.2.14-.42.39-.6.54s-.25.23-.41.38-.23.21-.44.39l-.86.77-.39.3c-.2.14-.33.21-.6.38s-.76.43-1.08.63a10.21,10.21,0,0,0-1.09.59,3.7,3.7,0,0,0-.64.68,4.09,4.09,0,0,0-.46.84.44.44,0,0,0,0,.39,1.69,1.69,0,0,0,.56.48.92.92,0,0,0,1.1-.11,11,11,0,0,1,1.66-1.35,12,12,0,0,1,1.25-.31c-.15.18-.41.33-.53.52s-.51,1-.66,1.25a3.37,3.37,0,0,0-.17.43c.3,0,.55-.18.85-.14a2.94,2.94,0,0,1,1,.31,5.25,5.25,0,0,1,.89.68c.2.2.26.51.45.72-.31.11-.22,0-.61.17s-1.26.56-1.74.76c.2.2.37.24.61.47a7.92,7.92,0,0,1,.91.85,2.45,2.45,0,0,1,.41.88,5.54,5.54,0,0,1,0,1.58,2.14,2.14,0,0,1-.4.87,9.6,9.6,0,0,1-1.2,1C50,63.17,49.83,63.05,49.54,63.24Z"></path>
      <path class="cls-16" d="M64.69,92.61c-.43,0-.92.07-1.13-.91a7.34,7.34,0,0,1,.88-3.85c.9-1.66,1.8-4.53,2.52-6s-.07-1.72.05-2.92,1.87-3.23,1.94-5,2-3.48,1.61-5-2.6-.91-3.48-1c.51-1,1.39-2.62,1.85-3.46s.78-1.38,1.09-1.93.39-.64.63-1,.39-.57.62-.95c0,.27.11.11,0,.47a2.25,2.25,0,0,0,0,1.55c.33.51,1.13,1.21,1.7,1a5.75,5.75,0,0,0,1.42-.72c0,.34.1.45,0,.85a7.86,7.86,0,0,1-.56,1.55,6.16,6.16,0,0,1-1,1.12c-.3.28-.34.26-.29.79s.5,1.11.26,1.79a4.6,4.6,0,0,1-1.34,1.87c-.53.43-1.35.94-1.83,1.29s-.78,1-.35,1.5a1.48,1.48,0,0,0,1.58.4c.5-.19.29.29.22.9a2.16,2.16,0,0,1-1.19,1.4c-.49.09-1,.83-.72,1.29s.29.37.51.72c.21-.11.43-.17.64-.27-.08.3-.05.44-.16.78A4.47,4.47,0,0,1,69.66,80c-.23.31-.69.4-.36.94a4.32,4.32,0,0,1,.94,1.89,5.1,5.1,0,0,1-.47,2.48c-.13-.34-.19-.6-.31-1s-.37-.94-.73-1a1,1,0,0,0-1.09.09,1.21,1.21,0,0,0-.2,1.3c.19.4.94.82.9,1.22s-.2.42-.47.71a16.58,16.58,0,0,1-1.48,1c-.32.25-.32.31-.35.72s.06.92,0,1.33a1.19,1.19,0,0,1-.47,1c-.27.16-.34.24-.27.56s.67.92.32,1.09S65.11,92.62,64.69,92.61Z"></path>
      <path class="cls-15" d="M61.11,107.88a35.08,35.08,0,0,0-.9-3.69,20.69,20.69,0,0,1-.35-6.3c.23-1.68.31-2.2.48-3.85s.28-3.94.5-5.68a3.24,3.24,0,0,0,0-1.63c-.14-.84-.22-2.56-.46-3.6s-.66-2.94-.84-3.79-.32-1.06-.67-1.37-.57,0-.88-.29a2.29,2.29,0,0,1-.66-1,9.22,9.22,0,0,0-1-1.88,4.3,4.3,0,0,0-1-1,1.73,1.73,0,0,0-1.71-.16c-.46.27-.79.31-1,.76s-.37,1-.61,1.51a7.36,7.36,0,0,1,.8-.12,1.76,1.76,0,0,1,.86.27c.33.17.11.55-.08.68s-.56.49-.43.64c.34.38.12-.12.74.34a9.51,9.51,0,0,1,2.57,2.71c.25.48,1,1.67,1.37,2.25s.7,1.29,1,1.85.47,1.06.68,1.58.22,1,.38,1.55c-.23-.31-.33-.59-.57-.91s-.25-.62-.71-.8-1.39-.45-1.93-.73A10.2,10.2,0,0,1,54.9,84.1c-.44-.37-.36-.55-.92-.67s-1.48-.09-2.13-.17c.24.35.19.29.51.74s1,1.45,1.41,2,.86,1,1.27,1.48.85.79,1.26,1.23c-.31.13-.78.29-1,.41s-.32.24-.57.33c.25.46,0,.47.47,1a7.3,7.3,0,0,1,1.7,2.4c.24.92.42,1.56.69,2.42s.27,1.28.65,2.27a13.76,13.76,0,0,1,.93,3.85,19.66,19.66,0,0,0,.86,4.24A12.21,12.21,0,0,0,61.11,107.88Z"></path>
      <path class="cls-20" d="M61.1,107.85c-1.3-2.2-1.82-5.8-2.21-8s-1-3.18-1.4-4.82a8.78,8.78,0,0,0-1.75-3.92,2.74,2.74,0,0,1-1-1.61c-.2-.68,1.82-.61,1.53-.84s-2.53-2.19-2.69-2.89S51.79,83.47,52,83.27a6,6,0,0,1,2.58.3c.67.22-.78-2.23-.86-3.16s-.1-2.62-.75-2.94,1.49-.92,1.12-1-1.3-1-2.13-.36A5.33,5.33,0,0,1,53,73.79c-.36-.38-1.83.13-1.89-.72s2.27-1.76,2.43-3.06-.16-2.5.15-3.66a1.83,1.83,0,0,1-1.58-.2A2.8,2.8,0,0,0,53,63.06a.54.54,0,0,0-.85-.32c-.57.27-1.92,1.43-2.61.51,1-.54,1.8-.54,2.3-2.19a2.91,2.91,0,0,0-2.09-3.65c.62-.84,2-.51,2.56-1.24s-2.75-1.91-3.13-1.4c.39-1,.64-2,1.57-2.26s-2,1-3.2,1.77c-.13.08-.81.34-1.06.06s-.5-.36-.69-.65c.25-.69,1-1.15,1.19-1.81s-2.1.24-2.31.6.46-2.15.56-3.07c-2.15,0-2,2.05-1.38,4.18-.83.1-1.65-1.63-1.73-3s-1.71-2.07-2-2.8,1.66-2.05.6-4c1.37,0,3.22-.18,3.23-2.26s-1.6-1.64-2.15-3.17A3.18,3.18,0,0,0,44.16,36c.38-1.36,0-2.39,0-3.75s2-.51,2.74-.12-1-2.34-1.6-3.52c.55-.72,1.36-.42,1.74-1.56s-2.13-1.38-2.8-1.16-2,.52-2.32-.6a8.7,8.7,0,0,0,2.54-4.07,5.08,5.08,0,0,0,.27-3.77,3.31,3.31,0,0,0,2.92.37c1.37-.27,3.55-1.43,2-3.93a7.13,7.13,0,0,0,.12-4.06c-.43-1.24,2.62-.47,2.92-.27S52.39,7.17,53,6.5a2.6,2.6,0,0,1,1.76-.59c.62,0,.57-2.82,1.58-3.27s2.88-1.59,3.8-1.57.88.34,1.64.31S62.06.17,63,.2l4.83.24c1,.06,1.21.18,1.63.8s0,1.35.51,1.87a8,8,0,0,0,2.1,1.16c-.2.61-1.21,1.46-.68,2.29s1.9-.73,2.72-.4S75.64,8.71,76,9.77s1.49,1.38,2.08,2.15c-.64-.11-1.09-.22-1.43.75a1.59,1.59,0,0,0,1,2c.6.06.73,0,.82-.5a12.87,12.87,0,0,1,.5,2.1c.13.74,1,.89,1.34,1.46-.48.58-1.38,2-1.08,2.77s1.15.7,1.27,1.5.24,1.62.8,1.87,1.86-.81,2.09-.52-.47,3.33-1.08,3.63-1.48,1.49-1.07,2.07,1.33.51,1.24,1.18-1.84.75-1.68,1.95a5,5,0,0,1-.6,3.63c-.73.88-1.72.56-2.39,1.46s2.18,2.29,2.61,2.05a5,5,0,0,1-1.53,3.59c-.8.51-1.51,0-1.6,1.18a4.12,4.12,0,0,1-1.43,2.68c-.72.64-1.33,1.45-.91,2.45s1,1.11,1.47,1.9c-.51.37-.78.26-1,1.19s-1.36,1.74-1.56,3a11.83,11.83,0,0,1-1.45,3.92c-.64,1-1.65,1.88-1,3.29s2,1.21,3.06.34a4.06,4.06,0,0,1-1.82,3.65,2.6,2.6,0,0,0,.16,1.65,3,3,0,0,1-1.65,2.93c-.93.34-2.67,1.71-1.84,2.52s1,.58,1.65.38-.12,1.72-.42,2-1.59.32-1.39,1.28.57,1.34,1.34.71a9.71,9.71,0,0,1-.64,1.73c-.24.66-1.07.48-.35,1.51a3.8,3.8,0,0,1,.16,4.21,2.44,2.44,0,0,0-.91-2.15.93.93,0,0,0-1.43.72c-.11.82.64,1.39,1,1.76s-1,1.36-1.33,1.52-.95.33-1,1a8,8,0,0,1-.06,2c-.16.52-.59.09-.67.56s.21.86.35,1.28-1.54.58-2,1.16a4.78,4.78,0,0,0-1.15,3.1,18.28,18.28,0,0,1-.32,4.93c-.39,1.58-.59,4.63-1,6S60.44,103.63,61.1,107.85Z"></path>
      <path class="cls-21" d="M60.29,1c.11,1,.24,2,.27,3a20.88,20.88,0,0,1-.12,3.06,24.06,24.06,0,0,0-.17,6.05c.11,1,.17,2,.36,3a13,13,0,0,0,1,2.85,20.62,20.62,0,0,1,1.72,5.88,12.86,12.86,0,0,1-.07,3.1c-.14,1-.38,2-.53,3a24.87,24.87,0,0,0,.09,6c.33,4,.59,8.16,1,12.14.07.49.2,1,.29,1.49a6.21,6.21,0,0,1,0,1.61c-.12,1.05-.26,2-.31,3a31.86,31.86,0,0,0,.19,6,29.83,29.83,0,0,1-.33,6.16c-.07,1-.08,2-.16,3s-.14,2-.15,3c0,2,.11,4,.16,6.08a40.83,40.83,0,0,1-.12,6.15,23.6,23.6,0,0,0-.36,3c0,1-.12,2-.19,3a41.32,41.32,0,0,0-.28,6.08h-.08a19.36,19.36,0,0,1-.11-3l.1-3c0-1,.09-2,.1-3a22.3,22.3,0,0,1,.26-3.07c.31-4-.25-8.06-.29-12.16,0-1,.08-2.05.16-3.06s.08-2,.16-3.06a29.06,29.06,0,0,0,.33-6,32.63,32.63,0,0,1-.11-6.17c.06-1,.23-2.07.35-3a5.34,5.34,0,0,0,0-1.44c-.08-.48-.2-1-.27-1.5-.35-4.12-.57-8.13-.86-12.21l-.2-3A14.54,14.54,0,0,1,62.28,31c.16-1,.41-2,.56-3a12,12,0,0,0,.1-3,20.15,20.15,0,0,0-1.62-5.8,12.66,12.66,0,0,1-1-2.92c-.19-1-.24-2-.33-3a24,24,0,0,1,.25-6.1,20.58,20.58,0,0,0,.16-3c0-1-.14-2-.23-3Z"></path>
      <path class="cls-21" d="M52.73,9.59A10.8,10.8,0,0,1,55,12.41c.53,1.09.92,2.23,1.45,3.32.25.55.52,1.09.8,1.62A8.24,8.24,0,0,1,58,19c.36,1.17.5,2.38.81,3.54s1,2.19,1.23,3.4.45,2.38.81,3.53a68.36,68.36,0,0,1,1.88,7l-.4.06a67.67,67.67,0,0,0-1.77-7c-.35-1.16-.51-2.38-.76-3.55s-.88-2.21-1.19-3.41-.42-2.39-.75-3.54a7.79,7.79,0,0,0-.72-1.65c-.27-.54-.53-1.09-.77-1.64-.52-1.09-.9-2.25-1.4-3.34A11.3,11.3,0,0,0,52.73,9.59Z"></path>
      <path class="cls-21" d="M49.44,17.11a11.71,11.71,0,0,1,3.76,1.05,8.85,8.85,0,0,1,3,2.47,13.08,13.08,0,0,1,1.09,1.65c.33.57.54,1.19.86,1.75.62,1.11,1.71,2,2.13,3.31l-.29.08c-.35-1.22-1.4-2.11-2-3.28-.32-.58-.52-1.21-.83-1.77a11.64,11.64,0,0,0-1-1.64,8.74,8.74,0,0,0-2.94-2.5A11.84,11.84,0,0,0,49.44,17.11Z"></path>
      <path class="cls-21" d="M47.09,27.17a22.59,22.59,0,0,1,2.32-1.26A5.12,5.12,0,0,1,52,25.25a3,3,0,0,1,1.24.45c.39.17.82.3,1.23.45a4.65,4.65,0,0,0,1.27.27,5.77,5.77,0,0,0,1.28-.2,3.24,3.24,0,0,1,1.35,0,1.8,1.8,0,0,1,1.07.82,11.16,11.16,0,0,1,.77,2.55,5,5,0,0,0,.43,1.21c.2.34.54.68.74,1.09a14.94,14.94,0,0,1,.89,2.5l-.29.09A14.36,14.36,0,0,0,61.09,32c-.18-.39-.48-.68-.72-1.1a5.29,5.29,0,0,1-.43-1.27,10.62,10.62,0,0,0-.71-2.5,2,2,0,0,0-2.23-.8,5.68,5.68,0,0,1-1.32.18,4.81,4.81,0,0,1-1.3-.29c-.41-.16-.82-.29-1.23-.47a2.91,2.91,0,0,0-1.21-.47,5.34,5.34,0,0,0-2.52.62A23.57,23.57,0,0,0,47.09,27.17Z"></path>
      <path class="cls-22" d="M46.62,17.94a19.18,19.18,0,0,1,2.56,2.12,13.24,13.24,0,0,1,2.21,3.22,6.12,6.12,0,0,0,3,2.93"></path>
      <path class="cls-23" d="M63.75,52.8a37.72,37.72,0,0,0-1.53-6,26.58,26.58,0,0,0-1.65-4.14,7.53,7.53,0,0,0-1.7-2.05c-.86-.77-1.36-2.45-2.08-3.54s-1.68-.78-2.89-.82a6.78,6.78,0,0,1-4.23-1.48c-1.09-1.06-1.92-2.43-3.22-2.71,2.22.78,5.16,1.65,7.31,1.34s2.74-1.84,4.91-1,3.65,2.58,4,5.84a6.09,6.09,0,0,1,1.48-4.34A11.94,11.94,0,0,0,66,27.69c-.09-2-.89-2.65-.14-4.32S68.46,21,68.72,19s-.68-4.06,0-5.73,1.76-2.37,2.06-4.17,0-3.64,1.37-4.81"></path>
      <path class="cls-21" d="M61.17,44.43a5.94,5.94,0,0,0-1.77-1.89A11.11,11.11,0,0,0,58.2,42L57,41.44A7.29,7.29,0,0,0,55.74,41c-.23-.07-.38-.15-.58,0l-.63.23a5.72,5.72,0,0,1-2.66.36,3,3,0,0,1-1.26-.49,6.13,6.13,0,0,0-1.2-.54A14.38,14.38,0,0,0,46.8,40a9.08,9.08,0,0,1-5-1.65,9,9,0,0,0,5,1.57,13.89,13.89,0,0,1,2.63.51,5.65,5.65,0,0,1,1.24.53,2.78,2.78,0,0,0,1.21.45A5.72,5.72,0,0,0,54.47,41l.62-.25a.68.68,0,0,1,.38,0,3.18,3.18,0,0,1,.33.09,7.07,7.07,0,0,1,1.27.44l1.23.53c.39.19.83.3,1.24.54a6.25,6.25,0,0,1,1.88,1.95Z"></path>
      <path class="cls-23" d="M60.25,104.25A20.74,20.74,0,0,1,60,97c.23-2,.32-3.89.5-5.52a21,21,0,0,0,.33-4.17,12.84,12.84,0,0,1-.32-3.35,35.89,35.89,0,0,0,.67-4.7,47.29,47.29,0,0,0,0-5,27.63,27.63,0,0,1,.28-8.09,19.5,19.5,0,0,0,.92-6.42c-.1-2.35-.28-6,.2-8a6.24,6.24,0,0,0,0-3.94"></path>
      <path class="cls-21" d="M62.41,51.63a8.22,8.22,0,0,0-3.83-3.46A9.12,9.12,0,0,0,56,47.51l-1.33-.17a2,2,0,0,1-.68-.21,1.07,1.07,0,0,1-.44-.57,2.21,2.21,0,0,0-.72-1.05A1.87,1.87,0,0,0,51.72,45a2.28,2.28,0,0,0-1.22.41L49.32,46a11.73,11.73,0,0,0-2.23,1.46c-.66.6-1.22,1.31-1.86,1.93.63-.63,1.17-1.35,1.83-2a12.34,12.34,0,0,1,2.21-1.51l1.17-.67a2.3,2.3,0,0,1,1.28-.45,2,2,0,0,1,1.25.55,2.42,2.42,0,0,1,.79,1.11,1,1,0,0,0,1,.63l1.34.15a9.18,9.18,0,0,1,2.64.64,8.58,8.58,0,0,1,4.06,3.54Z"></path>
      <path class="cls-21" d="M55,47.38a5.3,5.3,0,0,0-2.19.57A15.37,15.37,0,0,0,51,49.45a10.57,10.57,0,0,1-1.88,1.38c-.68.39-1.37.74-2.07,1.08a15.51,15.51,0,0,0,3.85-2.57,14.58,14.58,0,0,1,1.74-1.58,5.43,5.43,0,0,1,2.26-.68Z"></path>
      <path class="cls-22" d="M51.54,41.37A19.3,19.3,0,0,0,50,43.62c-.44.84-.51,2.1-1.21,2.68"></path>
      <path class="cls-23" d="M61.49,66.06c-.65-1.87-.91-3.29-2.12-4.85a28,28,0,0,1-3.49-5.35c-1.06-2.21-2.86-4.16-5.13-3.34"></path>
      <path class="cls-23" d="M61.06,73.34a42.3,42.3,0,0,0-2.77-7.2c-1.68-2.76-3.53-4-6-3.46"></path>
      <path class="cls-21" d="M60.27,84c-.18-1.55-.69-3.08-.91-4.67a12.07,12.07,0,0,1,0-2.4,4.82,4.82,0,0,0-.54-2.25v0a13.64,13.64,0,0,1-1.58-1.94,18.47,18.47,0,0,1-.85-2.36,10.32,10.32,0,0,0-1-2.3c-.46-.69-.94-1.37-1.36-2.09.44.71.93,1.38,1.41,2.06a10.82,10.82,0,0,1,1,2.29,17.94,17.94,0,0,0,.89,2.32A14.84,14.84,0,0,0,59,74.6h0A5,5,0,0,1,59.58,77a10.79,10.79,0,0,0,.09,2.35c.24,1.56.78,3.07,1,4.67Z"></path>
      <path class="cls-21" d="M59.3,79.09a3.58,3.58,0,0,0-.45-.92c-.22-.25-.55-.27-.93-.44a1.56,1.56,0,0,1-.66-.91c-.13-.33-.27-.66-.43-1a5.74,5.74,0,0,0-1.27-1.7,1.73,1.73,0,0,0-2-.43,1.77,1.77,0,0,1,2,.37A5.89,5.89,0,0,1,57,75.77c.17.32.32.65.47,1a1.39,1.39,0,0,0,.58.78A2.49,2.49,0,0,1,59,78a3.4,3.4,0,0,1,.54,1Z"></path>
      <path class="cls-23" d="M60.54,91.45c-.57-2.29-.25-2.42-1.08-5.09S55.77,78,52.91,77.51"></path>
      <path class="cls-23" d="M60.19,89.5c-.47-1.23-.57-3-1.8-3.54s-2.93-1-3.89-2.36"></path>
      <path class="cls-23" d="M62.78,90a24.09,24.09,0,0,1,1.44-6.21,29,29,0,0,0,1.41-4.93c.55-1.88,1.89-4.65,3.31-5.75"></path>
      <path class="cls-21" d="M64.74,82.33a21.15,21.15,0,0,1-.41-5.67c.11-.94.27-1.88.4-2.82a21.78,21.78,0,0,0,.39-2.79h0A7.34,7.34,0,0,1,65,73.89a10.2,10.2,0,0,0-.48,2.78c0,1.88.33,3.75.28,5.65Z"></path>
      <path class="cls-21" d="M62.83,73.15a20.16,20.16,0,0,0,2.74-2.9,27.84,27.84,0,0,0,1.93-3.52c.61-1.2,1.24-2.39,1.91-3.55.34-.58.69-1.16,1.07-1.71a9.53,9.53,0,0,1,.61-.81,1.69,1.69,0,0,1,.78-.62,1.75,1.75,0,0,0-.76.64c-.21.26-.4.54-.59.82-.36.56-.69,1.14-1,1.73-.64,1.18-1.24,2.38-1.82,3.59a29.84,29.84,0,0,1-1.85,3.6,19.44,19.44,0,0,1-2.71,3Z"></path>
      <path class="cls-21" d="M66.3,69.11a25.8,25.8,0,0,0,6.35-2.57,26.34,26.34,0,0,1-6.25,3Z"></path>
      <path class="cls-20" d="M63.36,66.64c.52-2.08.68-4.45,1.68-6.33a49.75,49.75,0,0,0,3.33-6.94,4.43,4.43,0,0,1,1.75-2.79A2.09,2.09,0,0,1,71.25,50a7.56,7.56,0,0,1,5.18,1.13"></path>
      <path class="cls-20" d="M77.75,37.23c-2.44,1.36-3.69,6.58-4.59,9s-1.24,3.13-2.76,4.2"></path>
      <path class="cls-21" d="M67.58,55.24A16.61,16.61,0,0,0,69,48.16a31.8,31.8,0,0,1,.48-3.64,3.18,3.18,0,0,1,1-1.58,4,4,0,0,0,.85-1.54,7.2,7.2,0,0,1,2-3.12A13.76,13.76,0,0,0,74.52,37c.39-.45.67-1,1.07-1.48a17.84,17.84,0,0,1,2.9-2.28c1-.72,2-1.43,3-2.12l0,0c-.94.78-1.89,1.55-2.85,2.3a17.27,17.27,0,0,0-2.73,2.33c-.37.44-.67,1-1.08,1.47a12.49,12.49,0,0,1-1.28,1.34,6.84,6.84,0,0,0-1.94,3,4.41,4.41,0,0,1-.93,1.62,2.82,2.82,0,0,0-.94,1.44,31.09,31.09,0,0,0-.54,3.59,16.57,16.57,0,0,1-1.59,7.09Z"></path>
      <path class="cls-23" d="M63.76,51.45c.12-1.24-.2-2.72.53-3.79s1.93-2.2,2.14-3.87a38.46,38.46,0,0,1,.87-5.74c.47-1.52,1-2,1.48-3.44a44,44,0,0,0,1.43-4.45,17.22,17.22,0,0,1,2.2-4.72c.91-1.42,1.32-2.18,2.51-3.82a23.32,23.32,0,0,0,3.53-7.38"></path>
      <path class="cls-23" d="M73.37,36.87c-.12.63-.24,1.26-.34,1.9"></path>
      <path class="cls-23" d="M75.88,31.07a20.66,20.66,0,0,1-1.27,1.87,12,12,0,0,0-1.22,3.91"></path>
      <path class="cls-23" d="M77.36,28.22a11.65,11.65,0,0,1-1.49,2.87"></path>
      <path class="cls-23" d="M80.46,22.94c-1.49,1-2.54,3.26-3.1,5.28"></path>
      <path class="cls-23" d="M74.64,32.87a22.49,22.49,0,0,1-.23-5.12,13.48,13.48,0,0,0-.25-5.07"></path>
      <path class="cls-23" d="M69.57,44.66a5.25,5.25,0,0,0,.14-3,11.52,11.52,0,0,1-.47-3.82c.14-1.37-.25-3.09,0-4.48"></path>
      <path class="cls-21" d="M60.19,15.5c-.22-.91-.41-1.83-.71-2.71a6.07,6.07,0,0,0-.57-1.27l-.8-1.16A25.74,25.74,0,0,1,56.7,7.92a2.85,2.85,0,0,0-.87-1.08A7.77,7.77,0,0,1,54.74,6a7.15,7.15,0,0,0,1.11.86,2.83,2.83,0,0,1,.89,1.08,24.36,24.36,0,0,0,1.46,2.4L59,11.45a6.59,6.59,0,0,1,.6,1.29c.32.89.53,1.81.77,2.71Z"></path>
      <path class="cls-23" d="M65.8,23.35a56.81,56.81,0,0,0-1.08-7.46A13.14,13.14,0,0,1,65.88,8c1-1.76,1.91-2.36,2.12-4.11S67.72.7,69.53,1.23"></path>
      <path class="cls-21" d="M65.26,9a8.21,8.21,0,0,0-1-4.45,12.43,12.43,0,0,1-1.06-2.09A6.15,6.15,0,0,1,62.88.15a6.07,6.07,0,0,0,.44,2.27,12.16,12.16,0,0,0,1.12,2A8.52,8.52,0,0,1,65.57,9Z"></path>
      <path class="cls-21" d="M64.32,14.56a17.55,17.55,0,0,0-.46-2.93,2.73,2.73,0,0,0-.67-1.24l-1.08-1a5.18,5.18,0,0,1-1.3-2.7,17.64,17.64,0,0,1-.32-3,17.19,17.19,0,0,0,.42,2.95,5,5,0,0,0,1.34,2.58l1.12,1a3.11,3.11,0,0,1,.78,1.33,18.38,18.38,0,0,1,.57,3Z"></path>
      <path class="cls-20" d="M68.55,19.8a6.26,6.26,0,0,0,2.19-3.14c.57-1.54,1.84-2.85,2.34-4.63a14.59,14.59,0,0,0,.15-5.73"></path>
      <path class="cls-23" d="M76.6,12.65c-1.28,1.25-3.08,3.56-4.21,4.69s-1.66,1-2.8,1.45a18.75,18.75,0,0,1,.2,3.48c0,1.66,1.41,4.29,1,6.2"></path>
      <path class="cls-21" d="M72.94,12.23a4.15,4.15,0,0,1-1-2.67,12.66,12.66,0,0,1,0-2.82,13.18,13.18,0,0,0,.23,2.8,3.79,3.79,0,0,0,1.13,2.39Z"></path>
      <path class="cls-23" d="M73.15,16.52c-.77,2.69-1.53,5.65-3,7.87"></path>
      <path class="cls-23" d="M67.3,38a10.51,10.51,0,0,1-.67-3.89,7.2,7.2,0,0,0-.85-4.16"></path>
      <path class="cls-21" d="M59.3,75.89a23.06,23.06,0,0,1-.12-2.49A20.43,20.43,0,0,0,59,70.94a26.9,26.9,0,0,0-.7-4.91,26.93,26.93,0,0,1,.8,4.9,20.28,20.28,0,0,1,.27,2.47,22.6,22.6,0,0,0,.17,2.47Z"></path>
      <path class="cls-21" d="M71.1,49.88A14.36,14.36,0,0,1,73,48.62a4.45,4.45,0,0,0,1.41-1.68A20.22,20.22,0,0,1,75.63,45a4,4,0,0,1,1.71-1.48,4,4,0,0,0-1.63,1.53c-.41.63-.75,1.31-1.1,2a4.86,4.86,0,0,1-1.41,1.84,13.42,13.42,0,0,0-1.82,1.3Z"></path>
      <path class="cls-24" d="M107.06,52.42c1-1.14,1.52-2,2.73-2.71s2.9-1.22,3.82,0-.38-1.44-.36-1.63c-.56-.39-1-.84-1.7-.79s-2.54.06-2.55-1,.6-2.63,0-3.25a1.65,1.65,0,0,0-1.86-.33,3.72,3.72,0,0,1-.86-1.54c-.3-.79-.88-.75-1.76-.64A3,3,0,0,0,102,42c-.17.68,0,1.77-.71,2.07s-1.59,0-1.2-1.41a5.55,5.55,0,0,1,.66-1.18c.25-.38.84-1.38.34-1.9a2,2,0,0,0-1.75-.83c-.72.09-2.42.11-2.83.94s-.25,1.68-1.06,1.69-1-.4-1.47-1.2-1.35-1.31-1.67-.46a6.74,6.74,0,0,1-1,2.29c-.45.41,0,.73-.44,2.16s-1.59,6.61-2.43,8.15-1.27,4.41.34,5.56,6.56,1.21,8.62.54,5.36-1.24,6.71-2.7S106,53.56,107.06,52.42Z"></path>
      <path class="cls-24" d="M61.43,105.48c-.51,1.39-1,2.14-1.21,2.69s-.07.38-.28.57-.07,0-.32.18a2.36,2.36,0,0,1-.89.58c-.49.18-.78-.39-.22-1.47a9.47,9.47,0,0,0,.49-3.6,12,12,0,0,1,.66-4.26c.38-1.12,1.1-2.63,1.41-3.47s0-1.52.4-1.94.73-.4.32-1.05a1.17,1.17,0,0,1,.2-1.58c-.16-.55,0-.26-.47-.85a4.69,4.69,0,0,1-.86-3.45.62.62,0,0,1,.81-.29,1.93,1.93,0,0,0,1,.18c.36-.06.6-.34.47-.92s-.45-1.74-.12-2.3a2.78,2.78,0,0,0,.36-1.81c-.13-.45-.45-1-.18-1.15s.74.85.89,1.08.28,1,.58,1,.15-.49.34-.83a5.2,5.2,0,0,0,.84-1.44c.07-.48-.11-1.08,0-1.43s.53-.1.66-.45-.22-.59,0-1,.69-.78,1-1.34a4.19,4.19,0,0,0,.54-1.88A9.25,9.25,0,0,0,67.42,73c-.19-.71-.24-1,.41-1.39a3.51,3.51,0,0,0,2-2c.41-1.24,1.44-3.83,1.18-5.38A2.23,2.23,0,0,0,71,62.82a2.36,2.36,0,0,1-.39-1.34c.11-.4.63-.16.85-.24s.34-.36.43-.67.15-.76-.18-.88-.79-.4-.78-.84.06-.71.4-.64.89.54,1.23.35a.57.57,0,0,0,.26-.89,1.7,1.7,0,0,1-.29-1.55,19,19,0,0,1,.71-2.06c.29-.49.57.37.87.6.08.06.69.47.94.36s.33.08.3-.45a1.72,1.72,0,0,1,.56-1.5,1.42,1.42,0,0,0,.78-1.23c.12-.77.92-1.08,1.34-.16A4.64,4.64,0,0,1,78.1,53a.65.65,0,0,0,.8.61,1.6,1.6,0,0,0,.77-1.16c.11-.59.12-1.68.23-2.35a2.22,2.22,0,0,1,.78-1.46c.38-.26,1-.67.56-.82s-.77.34-.78-.48a1.8,1.8,0,0,1,1.37-1.81.84.84,0,0,1,.78.72c.07.5.41.65.72.54a3.11,3.11,0,0,0-.08-1c-.09-.46-.22-.91.21-1.32a3.68,3.68,0,0,1,1.71-1c.54,0,1,.39,1.41.3s.73-.81,1.2-.53a.91.91,0,0,0,1.27-.52c.09-.48.33,1.14.5,2s.93,1.49.32,3.09.22.07-1.41,2.88,1.45-3.27-2.74,5.1S65.66,91.88,61.43,105.48Z"></path>
      <path class="cls-25" d="M100,59.16A24.49,24.49,0,0,1,104,55.87a14.31,14.31,0,0,0,2-1.71A5.09,5.09,0,0,0,107.19,52a2.91,2.91,0,0,1,.58-1.38c.32-.6,1.54-1.37,1.37-2.29s-.38-1.49-1.06-1.52-.8.24-1.49,1.19-2.36,3.77-3.17,4.85a15.21,15.21,0,0,1-2.19,2.57,9.18,9.18,0,0,1-3.07,1.65c-.8.21-1.65.67-1.94-.36s.83-2.45,1.42-3.29a14.62,14.62,0,0,1,2.6-2.46,2.54,2.54,0,0,0,1-1.94,5.15,5.15,0,0,1-.28-2A12.55,12.55,0,0,1,102,44.56,3.1,3.1,0,0,0,102,42l-.47,1.63c-.14.44-.42.88-.74.62s-.93-.38-.82-1.07a5.14,5.14,0,0,1,1.14-2.24c.44-.46,0-1.1-.14-1.59-.41.5-.86.59-1.2,1.29s-.54,2.38-1.14,2.84-1,.34-1.63.5a2.72,2.72,0,0,1,.07-1.23,7.07,7.07,0,0,0,.24-1.56,9.62,9.62,0,0,1,.12-1.43c.38-.3.67-.38,1.08-.66s1-.06,1.23-1-1-.9-1.83-.77c-.15,0-1.06.27-1.12,1.1a5.91,5.91,0,0,1-1,2.7.68.68,0,0,1-1.06.07c-.27-.23-.23-.37-.44-.59a8.23,8.23,0,0,1,.17,1.17,7.18,7.18,0,0,1-.1,1.79,7,7,0,0,0-.32,1.3,11.16,11.16,0,0,0,0,1.41c0,.43,0,1,0,1.35a1.84,1.84,0,0,1,0,.47c0,.22,0-.13,0,.21a5.56,5.56,0,0,1-.33,1.23,4.42,4.42,0,0,1-1.57,2.09A13.93,13.93,0,0,1,89.23,53c.1-.26.13-.39.27-.7a12.69,12.69,0,0,1,.61-1.13,5.32,5.32,0,0,1,.74-.92,1.9,1.9,0,0,1,.79-.46,2.83,2.83,0,0,0,.79-.13,2.32,2.32,0,0,0,.93-.65c.23-.32.22-.06.43-.62a3.15,3.15,0,0,0,0-2.43,13.63,13.63,0,0,0-1.48-2,3.7,3.7,0,0,1-.87-1,1.27,1.27,0,0,1-.1-1c.09-.32-.46-.55-.68-.71s-1-.71-1.25-.33a2.72,2.72,0,0,0-.33,1.46,3.3,3.3,0,0,0,.16,1.16A11.22,11.22,0,0,1,90,46.46,4.88,4.88,0,0,1,89.47,49c-.47.82-1.52,2.28-1.94,3s-.46,1.14-.77,1.7-.76-.34-1.11-.64-1-.12-1.6,0-1.33-.36-2-.34a2.1,2.1,0,0,0-1.74.93c-.1.12-.45.21-.73.48s1.18,1.16,1.6,1.69c-.65-.07-.16-.1-1.05-.22a3.56,3.56,0,0,0-3.29,1.45c-1,1.33-1,2.17-1.52,4.08a15.11,15.11,0,0,0-.43,5.52c.11,2.86,1.5,11-.2,14s-5,4.89-6.66,8.19a22.08,22.08,0,0,0-3.6,6A68.93,68.93,0,0,0,61,104.49c-.36,1.93-1.06,3.72-.42,2.89a17.17,17.17,0,0,0,2.23-3.95c.83-2,2.69-6.63,3.91-8.84a76.76,76.76,0,0,1,3.88-6.7C71.87,86.13,73,84.64,74,83.26a15.75,15.75,0,0,1,2.84-3c1.14-.93,1.92-1.48,3.1-2.58s1.64-1.44,3.23-3,5.14-5.28,6.94-7,3.22-3,4.86-4.5S98.52,60.55,100,59.16Z"></path>
      <path class="cls-26" d="M106.14,40.39a3.73,3.73,0,0,1,2.37,1.16c.86.83,2.07.93,3.21,1.29a7,7,0,0,1,3.51,2.65c.75,1.24,2,4,1.61,5.46s-1.78.79-2.27.27a2.34,2.34,0,0,1-.89-1.92c-.13-.45-.06-.93-.47-1.24a4.3,4.3,0,0,0-1.65-.8,12.47,12.47,0,0,1-2-.08c-.44-.19-.54-.53-.6-1a13.7,13.7,0,0,1,.23-2c0-.53.13-1-.22-1.22s-.82-.58-1.19-.48-.62.23-.93,0a3.17,3.17,0,0,1-.58-1.23A3.49,3.49,0,0,1,106.14,40.39Z"></path>
      <path class="cls-27" d="M115.81,52.21A30.42,30.42,0,0,1,113,53.92a10.86,10.86,0,0,0-1.84.86,6.85,6.85,0,0,1-1.83,1c-1.27.53-5.92,1.85-7.17,2.3s-.92.36-1.65.65-1.32.6-1.92.87a12.76,12.76,0,0,1-2.05,1c-.33,0,.44-.62.81-1a8.4,8.4,0,0,1,2.61-1.86c.81-.22,1.75-.52,2.56-.73.09,0,0-.07.14-.13l.37-.24.56-.37.43-.31c.2-.16.49-.36.74-.57s.68-.57.93-.82a10.22,10.22,0,0,0,.72-.78,7.21,7.21,0,0,0,.47-.71,5.4,5.4,0,0,0,.21-.54s0,0,.08-.06c.24-.27.3-.42.58-.73s.93-1,1.22-1.29a4.26,4.26,0,0,1,.62-.52,4.66,4.66,0,0,1,.75-.5,6.24,6.24,0,0,1,.94-.39,3.57,3.57,0,0,1,.76-.11,2.59,2.59,0,0,1,.69,0,1.3,1.3,0,0,1,.46.21c.15.1.23.31.35.46s.19.38.3.54.23.26.35.43.23.43.37.6.31.28.44.44a1.15,1.15,0,0,0,.5.3c.15.05.57-.06.6,0S116.26,51.92,115.81,52.21Z"></path>
      <path class="cls-27" d="M99.24,58a9.07,9.07,0,0,1-2.45-.69c-.11,0-.33,0-.46-.21a.89.89,0,0,1-.2-.7c0-.26,0-.34-.19-.37-.3.46-.42.83-.9,1.11a19.09,19.09,0,0,0-1.76,1,15.6,15.6,0,0,0-1.39,1.19c-.46.43-1.44,1.49-1.74,1.8s-.52.52-.6.28,0-.61,0-1,0-.74-.33-1-.58-.81-.83-1.28-.84-1.56-1-1.94-1.16,3-1.5,3.28a5.27,5.27,0,0,0-.42.86A15.07,15.07,0,0,0,85,62a14,14,0,0,0-.22,1.41c0,.37,0,.44,0,.76-.14-.2-.13-.07-.25-.38s-.25-.76-.43-1.23-.66-1.71-.85-2.12a4.6,4.6,0,0,0-.31-.63s0,0-.09.16-.22.54-.32.75-.23.54-.33.75-.18.39-.28.59-.22.35-.32.56-.18.4-.28.64-.2.51-.31.79-.18.5-.29.83l-.4,1.21A3.37,3.37,0,0,0,80,67.17a5,5,0,0,1-.14,1.48,6.62,6.62,0,0,1-.56,1.3,5,5,0,0,1-.83,1.13c-.29.23-.84,1-1,1s.06-.83-.19-1.15-.32-.85-.63-1.3-.73-1.21-1.11-1.71-.34-1-.77-1.56-1.86.63-2,1.7a23.16,23.16,0,0,0,.62,5.12,14.55,14.55,0,0,1-.92-2.55c-.15-.63-.62-2.16-.84-3s-.42-2.34-.55-2.92-.23-.07-.47,0-.76.59-1.09.71-.36.2-.75.37-.59.6,0,.58,1-.14,1.22.41.36,1,0,1.44a2.18,2.18,0,0,1-1.31.82A2.1,2.1,0,0,1,67.53,69c-.61-.16-.56.18-.1.58s1.28.8,1.22,1.32-.41.89-.82.69-1.19-.73-.9.13.44,1.17,1,1.4,1.5.27,1.88.74a1.5,1.5,0,0,1,.32,1.36c-.1.44-.3,1.24-.62,1.19s-.85-.78-.93,0a6.86,6.86,0,0,1-.22,2.19c-.31.71-.54,2.08-.78,2.7s-.16.62-.72.53A.68.68,0,0,0,66.23,83c.33.52.58,1,.22,1s-.33-.21-.73-.16-.58.54-.43,1.2.55,2-.45,1.51-1.06-.39-.7,1,.74,1.72-.32,2.22c-.4-.26-.85-.36-1.07.2s.34.74.08,1.27-1,1.17,0,1.76a1.84,1.84,0,0,1,.22,1.86A28.51,28.51,0,0,0,61,99.89c-.12.49-.2.08-.09,1.3a11.67,11.67,0,0,1-1.49,5.75c.24-.16,1.27-1.44,1.26-.34.56-2.29-.22-1.2.91-4.15s2.12-7.43,4.87-11.4A83.31,83.31,0,0,1,78.77,77.26,26.36,26.36,0,0,0,82.13,74a55.24,55.24,0,0,1,6.4-6c2.28-1.81,5.2-5.68,7.85-7.24a17,17,0,0,1,1.55-1.8C98.43,58.46,98.77,58.32,99.24,58Z"></path>
      <path class="cls-27" d="M107.15,47.09c-.8,1.32-1.37,2-2.22,3.49s-3.2,4.64-4.28,5.33-4.47,2.37-4.38.7A7.19,7.19,0,0,1,98.94,52c1.34-1.09,5.13-3.17,6.21-3.94a11.08,11.08,0,0,1,1.14-.74C106.8,47,106.7,47.24,107.15,47.09Z"></path>
      <path class="cls-28" d="M62.61,103.9a71.69,71.69,0,0,0,3-6.71,44.78,44.78,0,0,1,5.19-9.42c2.22-3,3.93-5.75,7.21-8.4a133.06,133.06,0,0,0,11.1-10.64c3.29-3.48,8.41-8.15,11.84-10s6.86-1.8,9.29-3.33,5.57-1.95,6.44-4.32-1-4.9-2.1-6.29a6.66,6.66,0,0,0-4-2.23c-1.5-.41-3.13-2-4.64-2.11s-3.12-.16-3.94,1.57-.55,3.2-2.12,1.23a5.26,5.26,0,0,1,1.13-2.2c.63-1-.41-2.25-1.22-2.39s-.06-.38,0-.64.06-.62-.56-.61-2.18-.32-2.48,1.08-1.19,4.1-2.3,2.41-1.86-2.07-2.47-.48-.4,1.69-1.16,1.09-1.54-1.23-1.77.3-.53,1.27-1.54,1.39c-.36,0-.33.27-.77.45s-1.69-.27-2.3,0-1.49,1-1.4,1.58.57,1.84-.1,1.5-.88-1.56-1.75-.91-1.1,1.88-.35,2,.63.32,0,.68a2.39,2.39,0,0,0-1.09,2.33c.06,1.25-.54,3.81-1.81,2.31.12-.85,0-2-.83-1.92s-.59,1.32-1.17,1.76a1.46,1.46,0,0,0-.72,1.38c-.07.72.25.73-.43.67s-1-.35-1.23-1-.58.32-.74.84-.9,1.84-.39,2.47.42,1.37-.26,1.24-1.52-.88-1.37.52c0,.2.12.4.5.56s.8.36.31,1.2-.42-.13-1,.39.22.93.26,2.1-.52,1.88-2.1,2.56,0,.47.76.71.73,1.22.34,1.76a2,2,0,0,1-2,.85c-.72-.24-1.66-.43-.59.43s1.81,1.57.4,2c-.16,0-.21.11-.53-.25S66.58,71,67,72a7.18,7.18,0,0,1,.78,3.38,4.49,4.49,0,0,1-1.07,2.49c-.52.54-.38.45-.29,1.15s-.28.34-.59.67-.09.8-.08,1.32-.76,1.31-.92,1.76-.28,1.13-.53.61-1.32-2.53-1.26-1.6.41,1.28.12,2A3.13,3.13,0,0,0,62.76,86c.2,1,.35,1.93-.68,1.68s-1.49-.25-1.47,1.12a3.47,3.47,0,0,0,.88,2.46c.48.64.63.59.28,1.21s-.29.89.1,1.33.24.38-.2.81,0,.25-.43,1.54-1.84,4.46-2.05,6.23-.1,4.08-.64,5.39-.56,1.57.26,1.57.59-.46,1.12-.66.7-1.39,1.16-2A13.94,13.94,0,0,0,62.61,103.9Z"></path>
      <path class="cls-21" d="M74.51,81.05l3.09-3a35.07,35.07,0,0,0,3.21-2.83A47.19,47.19,0,0,1,86.72,69c2.31-1.69,4.09-3.91,6.2-5.89.53-.49,1.06-1,1.64-1.42a11.24,11.24,0,0,1,1.83-1.19,32,32,0,0,1,4-1.71l0,.06c-1.25.71-2.57,1.27-3.75,2.06a13.89,13.89,0,0,0-1.7,1.23c-.53.46-1,1-1.54,1.46a47.91,47.91,0,0,1-6.33,5.82,46.61,46.61,0,0,0-6,6.08,38.9,38.9,0,0,1-3.32,2.74L74.56,81.1Z"></path>
      <path class="cls-21" d="M114.09,53.24A14.27,14.27,0,0,1,109.31,55c-.42.07-.85.07-1.27.12a6.55,6.55,0,0,0-1.24.28c-.81.26-1.59.61-2.37.94-1.56.74-3.31.93-4.85,1.62s-2.54,2.17-3.82,3.3l-.17-.18c1.27-1.09,2.25-2.64,3.91-3.3s3.33-.84,4.88-1.56c.79-.32,1.57-.66,2.39-.91A7.63,7.63,0,0,1,108,55c.43,0,.85,0,1.27-.1A14.37,14.37,0,0,0,114.09,53.24Z"></path>
      <path class="cls-21" d="M60.63,107a19.7,19.7,0,0,1,.66-4.1c.37-1.33.82-2.64,1.3-3.94A49.4,49.4,0,0,1,66,91.38c.73-1.2,1.64-2.23,2.26-3.46a2.82,2.82,0,0,0,.37-.91,3,3,0,0,1,.21-1c.27-.65.59-1.26.85-1.89A3.55,3.55,0,0,0,70,82.15a16.45,16.45,0,0,0-.73-1.9,14.42,14.42,0,0,1-.75-2,7.16,7.16,0,0,1-.13-2.1h.34a4.91,4.91,0,0,1,0,.54,4.13,4.13,0,0,0,0,.5,3.51,3.51,0,0,0,.12,1,16.06,16.06,0,0,0,.73,1.92,13.9,13.9,0,0,1,.74,2A3.78,3.78,0,0,1,70,84.19c-.27.65-.6,1.26-.86,1.89a2.54,2.54,0,0,0-.2,1,3.33,3.33,0,0,1-.4,1c-.64,1.24-1.58,2.3-2.29,3.46A49,49,0,0,0,62.8,99,35.56,35.56,0,0,0,60.63,107Z"></path>
      <path class="cls-21" d="M67.79,80.49a5.71,5.71,0,0,1,.33-1.57,3,3,0,0,0,.31-.72c0-.25.07-.52.13-.78a3.67,3.67,0,0,1,0,.81,2.46,2.46,0,0,1-.27.76A12.48,12.48,0,0,0,67.79,80.49Z"></path>
      <path class="cls-21" d="M60.67,106.16a1,1,0,0,0-.72.26,3.65,3.65,0,0,0-.53.58l-.05.06,0-.07a21.63,21.63,0,0,0,1.39-3.93,7.34,7.34,0,0,0,.06-1,9.21,9.21,0,0,1,0-1,7.57,7.57,0,0,1,.44-2.06c.44-1.34,1.11-2.58,1.62-3.87a5.85,5.85,0,0,0,.28-1,1.11,1.11,0,0,0,0-.48.76.76,0,0,0-.31-.36,1.53,1.53,0,0,1-.66-.86,1.37,1.37,0,0,1,.45-1,.51.51,0,0,0,.12-.42,3.33,3.33,0,0,1-.12-.52,1.7,1.7,0,0,1,.07-.55.59.59,0,0,1,.38-.45.87.87,0,0,1,.56.14.35.35,0,0,0,.4,0,.94.94,0,0,0,.38-.82,2.33,2.33,0,0,0-.3-1,5.19,5.19,0,0,1-.3-1,.94.94,0,0,1,0-.59.33.33,0,0,1,.33-.14,1,1,0,0,1,.28.1,3.94,3.94,0,0,0,.46.23c.15.07.32.09.37,0a1.55,1.55,0,0,0,0-.93,5.21,5.21,0,0,1-.17-1.06.8.8,0,0,1,.19-.57.77.77,0,0,1,.59-.15c.18,0,.37.08.5.09s0,0,0,0a.85.85,0,0,0-.07-.21,3.69,3.69,0,0,1-.42-1,.75.75,0,0,1,.14-.59.61.61,0,0,1,.58-.18c.82.28.86-.7,1.1-1.31a4.63,4.63,0,0,1-.18,1,.67.67,0,0,1-.37.44,1.39,1.39,0,0,1-.56.05c-.17,0-.31,0-.38.12a.44.44,0,0,0-.09.39,4.08,4.08,0,0,0,.39.94.71.71,0,0,1,.09.28.22.22,0,0,1-.09.22.32.32,0,0,1-.19.05c-.22,0-.36-.08-.53-.09-.34-.06-.54.14-.52.49a4.49,4.49,0,0,0,.15,1,1.56,1.56,0,0,1,0,1.12.55.55,0,0,1-.61,0,4.12,4.12,0,0,1-.47-.25c-.14-.07-.31-.11-.34,0a.71.71,0,0,0,0,.44,4.63,4.63,0,0,0,.29,1,2.43,2.43,0,0,1,.3,1,1.12,1.12,0,0,1-.48,1,.57.57,0,0,1-.58,0,.68.68,0,0,0-.43-.12c-.25.07-.31.52-.31.81a2.68,2.68,0,0,0,.11.5.7.7,0,0,1-.15.56c-.23.27-.46.54-.42.85a1.41,1.41,0,0,0,.6.76.89.89,0,0,1,.35.43,1.18,1.18,0,0,1,0,.56,6.25,6.25,0,0,1-.3,1c-.52,1.3-1.2,2.53-1.64,3.85a8.31,8.31,0,0,0-.45,2,9.22,9.22,0,0,0,0,1,7.41,7.41,0,0,1-.07,1A22.06,22.06,0,0,1,59.42,107h0a3.29,3.29,0,0,1,.54-.58A1,1,0,0,1,60.67,106.16Z"></path>
      <path class="cls-21" d="M68.47,87.59A4.69,4.69,0,0,1,70,85.81a4.7,4.7,0,0,0-1.26,1.88Z"></path>
      <path class="cls-21" d="M72.21,83.41A10.09,10.09,0,0,0,73.7,78.7a18,18,0,0,0-.35-5A40.91,40.91,0,0,0,71.81,69a13.44,13.44,0,0,1-.91-4.94h.34a13.26,13.26,0,0,0,.81,4.85,39.52,39.52,0,0,1,1.46,4.79,17.47,17.47,0,0,1,.27,5A10,10,0,0,1,72.21,83.41Z"></path>
      <path class="cls-21" d="M75.57,80.09c.16-1.33.2-2.67.44-4a8.2,8.2,0,0,1,.59-1.92,6.12,6.12,0,0,0,.69-1.87c.21-1.36-.64-2.55-1.34-3.66A8.25,8.25,0,0,1,75,66.85a5.08,5.08,0,0,1-.24-2c.12-1.35.31-2.66.46-4a15.24,15.24,0,0,1,.4-2,3.29,3.29,0,0,1,.39-1,6,6,0,0,1,.6-.83,4.56,4.56,0,0,1,1.6-1.28,2.93,2.93,0,0,1,2.06-.18l.47.14c.06,0,.18,0,.1,0s0,0-.08,0a5.36,5.36,0,0,0-.65-.71,12,12,0,0,0-1.52-1.22l.13-.31a9.53,9.53,0,0,1,1.61,1.3,5.26,5.26,0,0,1,.69.78.74.74,0,0,1,.08.13c0,.06.07.15,0,.28s-.29,0-.39,0l-.48-.16a2.69,2.69,0,0,0-1.87.15,4.5,4.5,0,0,0-1.52,1.2c-1,1-1.13,2.33-1.37,3.64s-.37,2.66-.5,4a5,5,0,0,0,.21,2,8.24,8.24,0,0,0,.91,1.77,14.32,14.32,0,0,1,1,1.75,3.39,3.39,0,0,1,.32,2,6,6,0,0,1-.71,1.89,8.43,8.43,0,0,0-.61,1.9C75.79,77.42,75.74,78.76,75.57,80.09Z"></path>
      <path class="cls-21" d="M72.55,55.92a1.94,1.94,0,0,0,.7,1.44,8.23,8.23,0,0,1,1,1.33,5.21,5.21,0,0,1,.65,1.54,3.54,3.54,0,0,1,.29,1.64h0a4.1,4.1,0,0,0-.43-1.58,5.9,5.9,0,0,0-.61-1.52,8,8,0,0,0-1-1.34,2,2,0,0,1-.65-1.5Z"></path>
      <path class="cls-21" d="M68.54,76.22c.11-.08.22-.2.39-.18a.81.81,0,0,1,.38.23c.2.29.38,0,.5-.26a3,3,0,0,0,.25-.78,1.07,1.07,0,0,0-.07-.75,1.7,1.7,0,0,0-1.22-.87,2.43,2.43,0,0,1-1.47-.86l0,0a3.25,3.25,0,0,0,1.53.55,2.26,2.26,0,0,1,.83.36,1.66,1.66,0,0,1,.55.74,1.24,1.24,0,0,1,.1.45,1.63,1.63,0,0,1-.07.45,3.31,3.31,0,0,1-.31.81,1.21,1.21,0,0,1-.29.35.32.32,0,0,1-.26.06.66.66,0,0,1-.17-.16.9.9,0,0,0-.32-.24c-.12,0-.24.08-.36.15Z"></path>
      <path class="cls-21" d="M81,75.2a7,7,0,0,1,.35-4.43c.72-1.36,1.88-2.31,2.67-3.54a4.08,4.08,0,0,0,.77-2,16.24,16.24,0,0,1,0-2.21,13.59,13.59,0,0,1,1.4-4.2,6.76,6.76,0,0,0,.45-2.13,16.38,16.38,0,0,1,0-2.21,10.5,10.5,0,0,1,1.83-4,7.81,7.81,0,0,0,1.17-1.85A5.11,5.11,0,0,0,90,46.49a7.28,7.28,0,0,0-.48-2.15,5.31,5.31,0,0,1-.39-2.16,5.16,5.16,0,0,0,.41,2.16,7.17,7.17,0,0,1,.5,2.15,5.21,5.21,0,0,1-.35,2.17,7.87,7.87,0,0,1-1.16,1.88,10.45,10.45,0,0,0-1.77,4,14.64,14.64,0,0,0,0,2.2,6.83,6.83,0,0,1-.44,2.18,13.46,13.46,0,0,0-1.35,4.15,14.81,14.81,0,0,0,.08,2.2,4.39,4.39,0,0,1-.8,2.11c-.79,1.26-2,2.26-2.61,3.53a6.72,6.72,0,0,0-.29,4.23Z"></path>
      <path class="cls-21" d="M75.26,67.39a8.35,8.35,0,0,1,.48-3.29,7.13,7.13,0,0,1,1.75-2.83l.61-.57c.19-.19.43-.38.44-.62,0-.51-.25-1.06-.31-1.62a3.48,3.48,0,0,1,.18-1.69,3.25,3.25,0,0,1,1-1.36l.16.2a3,3,0,0,0-1.19,2.83c0,.55.25,1.06.27,1.65,0,.35-.31.53-.5.71l-.61.56a7.1,7.1,0,0,0-1.78,2.76A8.27,8.27,0,0,0,75.26,67.39Z"></path>
      <path class="cls-21" d="M77.5,72.08a8.84,8.84,0,0,0,1.92-2.47,5.12,5.12,0,0,0,.4-3,23.44,23.44,0,0,0-.69-3.07,14.92,14.92,0,0,1-.61-3.1c.27,2.09,1.15,4,1.46,6.15a5.21,5.21,0,0,1-.46,3.11A7.62,7.62,0,0,1,77.5,72.08Z"></path>
      <path class="cls-29" d="M84.84,64.83c-.5-1.8-1.57-5.09-2.68-6.09s-1.11-1.56-1.6-2.92"></path>
      <path class="cls-21" d="M80,67c.35-1,.62-2.07,1-3.08S82,62,82.36,61a17,17,0,0,1,1.32-3,4.46,4.46,0,0,0,.42-.68.91.91,0,0,0,0-.74,6.77,6.77,0,0,0-.9-1.33l-.06-.08.11,0a3.55,3.55,0,0,0,1.31-.64,2.78,2.78,0,0,0,1-1.07.64.64,0,0,0-.15-.63,6.67,6.67,0,0,0-.43-.61,2,2,0,0,0-.53-.48c-.2-.14-.4-.08-.67,0a2.5,2.5,0,0,1-.78,0c-.12,0-.34-.11-.35-.32a.74.74,0,0,1,.14-.41,4.7,4.7,0,0,1,.51-.55s0,0,0,0l-.14,0-.36-.07a3.75,3.75,0,0,1-1.49-.44,1,1,0,0,1-.43-.71,1.81,1.81,0,0,1,.1-.8l.24.08a1,1,0,0,0,.23,1.24,3.59,3.59,0,0,0,1.38.41l.39.07a.83.83,0,0,1,.2.09.21.21,0,0,1,.11.13.21.21,0,0,1,0,.17c-.19.24-.39.35-.52.55-.4.51.35.47.79.38l.38-.06a.76.76,0,0,1,.41.11,2.3,2.3,0,0,1,.58.54,5.39,5.39,0,0,1,.43.63.77.77,0,0,1,.16.77,2.87,2.87,0,0,1-1,1.14,3.63,3.63,0,0,1-1.39.65l0-.1a7.38,7.38,0,0,1,.9,1.35,1,1,0,0,1,0,.83,5.52,5.52,0,0,1-.44.7A17.31,17.31,0,0,0,82.42,61c-.38,1-1,1.89-1.39,2.92S80.36,66,80,67Z"></path>
      <path class="cls-29" d="M85.52,52.89A5.53,5.53,0,0,1,82,52.76c-.23-.16-.42-.12-.8.09S80,54.19,79.41,54"></path>
      <path class="cls-30" d="M84.93,52.27A2.91,2.91,0,0,1,85,49.84a3.73,3.73,0,0,0,.51-2.93c-.36-.95-1.54-2.43-1-3.28"></path>
      <path class="cls-29" d="M82.09,58.64a6.42,6.42,0,0,0-3.23,4"></path>
      <path class="cls-21" d="M86.78,53.78c-.07-.47-.08-.94-.17-1.39s-.31-.85-.44-1.33a6.56,6.56,0,0,1,.21-2.82,5.77,5.77,0,0,1,.51-1.34c.24-.41.49-.79.71-1.19a8.79,8.79,0,0,0,.61-1.23,1.53,1.53,0,0,0,.07-1.3l0,0a1.52,1.52,0,0,1,.13,1.39,8,8,0,0,1-.54,1.32,12,12,0,0,1-.73,1.2,5.6,5.6,0,0,0-.53,1.25,6.26,6.26,0,0,0-.3,2.71c.09.42.31.87.37,1.34s.05.94.1,1.4Z"></path>
      <path class="cls-21" d="M91.33,41.93a2.56,2.56,0,0,0,.08,1,3.4,3.4,0,0,0,.61.76,16.91,16.91,0,0,1,1.3,1.49A4,4,0,0,1,94.07,47a2.85,2.85,0,0,1-.52,1.91,2.35,2.35,0,0,1-1.69,1A2.3,2.3,0,0,0,90.37,51a6.33,6.33,0,0,0-.91,1.7,5.34,5.34,0,0,1-.34.94,6.55,6.55,0,0,1-.6.81,2.68,2.68,0,0,0-.47,1.78A3.69,3.69,0,0,0,88.61,58a19.83,19.83,0,0,1,.88,1.79,4.83,4.83,0,0,1,.12,2,18.57,18.57,0,0,1-1.06,3.83,16,16,0,0,1-1.78,3.53l0,0a12.62,12.62,0,0,0,.89-1.76c.26-.59.5-1.21.71-1.83a17.79,17.79,0,0,0,.93-3.79,4.33,4.33,0,0,0-.1-1.87,18.86,18.86,0,0,0-.86-1.75,4.13,4.13,0,0,1-.57-2,2.9,2.9,0,0,1,.57-1.94,6.47,6.47,0,0,0,.58-.77,4.64,4.64,0,0,0,.33-.91,7,7,0,0,1,1-1.75,5.36,5.36,0,0,1,.7-.73,1.63,1.63,0,0,1,.94-.4,2.14,2.14,0,0,0,1.58-.94,2.71,2.71,0,0,0,.53-1.8,3.82,3.82,0,0,0-.71-1.79A14.93,14.93,0,0,0,92,43.7a4,4,0,0,1-.61-.79,2.71,2.71,0,0,1-.07-1Z"></path>
      <path class="cls-21" d="M89.25,53a9.91,9.91,0,0,0,3.29-1.82A5,5,0,0,0,94,47.81c.07-1.23-.24-2.54.15-3.81a5.35,5.35,0,0,0,0-3.68h0a5.19,5.19,0,0,1,.24,3.76c-.37,1.19-.09,2.47-.19,3.75a5.19,5.19,0,0,1-1.54,3.45A10.14,10.14,0,0,1,89.26,53Z"></path>
      <path class="cls-21" d="M102.35,57A14.42,14.42,0,0,0,105.07,55,6.16,6.16,0,0,0,107,52.37a11,11,0,0,1,.65-1.55,12.36,12.36,0,0,1,1.08-1.28A1.73,1.73,0,0,0,109,48c-.11-.51-.38-1.11-.92-1.12a1.15,1.15,0,0,0-.71.26,6.4,6.4,0,0,0-.53.62,10.33,10.33,0,0,0-.93,1.37c-.55,1-1.25,1.87-1.81,2.82a17.23,17.23,0,0,1-1.94,2.74,8.54,8.54,0,0,1-2.73,2,5.36,5.36,0,0,1-1.64.48,1.83,1.83,0,0,1-.89-.1,1.21,1.21,0,0,1-.4-.28c-.06-.15-.18-.29-.18-.45a3,3,0,0,1,.41-1.69,10.18,10.18,0,0,1,.88-1.45,5.48,5.48,0,0,1,1.11-1.31l1.34-1c.93-.62,1.9-1.19,2.85-1.77l1.46-.82c.47-.28.9-.63,1.37-.94a2.56,2.56,0,0,1,.79-.4,1.41,1.41,0,0,1,.46,0l.12,0h.07c.06-.13,0,.33-.07.24l-.08,0-.2-.05a3.82,3.82,0,0,1-1.58-.65,1.61,1.61,0,0,1-.4-1.64,12.45,12.45,0,0,1,.52-1.6,2.86,2.86,0,0,0,.26-1.59,1.87,1.87,0,0,0-1.11-1.14l0,0a2,2,0,0,1,1.18,1.14,3.06,3.06,0,0,1-.2,1.67,13.22,13.22,0,0,0-.49,1.59,1.4,1.4,0,0,0,.37,1.44,3.62,3.62,0,0,0,1.49.57l.21,0s.06,0,0,0-.12.36-.06.23H107a.93.93,0,0,0-.37,0,2.11,2.11,0,0,0-.69.37c-.45.31-.89.67-1.37,1l-1.44.85c-1,.58-1.9,1.14-2.83,1.75l-1.33,1a5.25,5.25,0,0,0-1,1.23A10.12,10.12,0,0,0,97,54.8a2.69,2.69,0,0,0-.4,1.5c0,.52.64.64,1.15.59a5.35,5.35,0,0,0,1.55-.43A8.27,8.27,0,0,0,102,54.54a16.84,16.84,0,0,0,1.93-2.69c.58-1,1.28-1.83,1.83-2.8a10.66,10.66,0,0,1,1-1.38,4.67,4.67,0,0,1,.55-.64,1.34,1.34,0,0,1,.83-.3,1,1,0,0,1,.76.45,2.71,2.71,0,0,1,.31.8,1.89,1.89,0,0,1-.35,1.64,14,14,0,0,0-1.09,1.26,10.22,10.22,0,0,0-.65,1.52,6.24,6.24,0,0,1-2,2.68A13.72,13.72,0,0,1,102.37,57Z"></path>
      <path class="cls-21" d="M116.91,51a1.75,1.75,0,0,1-1.34.83,2.26,2.26,0,0,1-1.31-.93l-1-1.27a2,2,0,0,0-.53-.52,1.19,1.19,0,0,0-.71-.08,5.1,5.1,0,0,0-2.76,1.3A17,17,0,0,0,107,52.6l0,0a10.4,10.4,0,0,1,2-2.49,6.34,6.34,0,0,1,1.36-.91,4.71,4.71,0,0,1,1.59-.4,1.54,1.54,0,0,1,.86.13,2.1,2.1,0,0,1,.58.61l1,1.29a2.13,2.13,0,0,0,1.18.94,1.68,1.68,0,0,0,1.3-.75Z"></path>
      <path class="cls-30" d="M113.78,50.13a2.74,2.74,0,0,0-2.19-2.84c-1.15-.16-2.57.5-2.6-1.33s.93-3.08-1-3.43c-.21,0-.59.14-.9.14s-.56-.36-.67-.87-.27-1.26-.78-1.41"></path>
      <path class="cls-28" d="M102.91,49.33a5.46,5.46,0,0,0,.44-2.83c-.18-.86-.5-.54.13-1.64s1.67-3.06-.09-4.21"></path>
      <path class="cls-28" d="M100.29,51a2.91,2.91,0,0,0,.78-3c-.42-1.39,1-3,1.16-4.12s-.13-1-.21-1.9"></path>
      <path class="cls-28" d="M89.47,61.85a40.87,40.87,0,0,1,3.33-3.37c1-.86,3.55-1.51,3.1-3.45s.29-4.25,1.34-5,2.45-3,1.52-3.39a2.38,2.38,0,0,1-1.59-1.78,5.83,5.83,0,0,1,.09-3.06c.23-.88-.22-1.34.23-2.1s1.55-.9,2.24-1.11"></path>
      <path class="cls-28" d="M101,39.34a4.68,4.68,0,0,0-1.34,1.48c-.49.92-.36,1.9-1,2.71a1.89,1.89,0,0,1-1.55.41"></path>
      <path class="cls-21" d="M70.43,93.87a12.91,12.91,0,0,0,4.11,4.67,30.35,30.35,0,0,0,2.59,1.77,12,12,0,0,0,2.8,1.33,10.11,10.11,0,0,0,6,.25,4.37,4.37,0,0,0,2.25-1.8,3.34,3.34,0,0,0,.28-1.46c0-.52,0-1.06.1-1.59h.07c0,1,.37,2.09,0,3.22a3.5,3.5,0,0,1-1,1.34,5.17,5.17,0,0,1-1.42.89,9.56,9.56,0,0,1-6.4-.36,12.68,12.68,0,0,1-2.86-1.47c-.88-.58-1.74-1.2-2.57-1.87a13.29,13.29,0,0,1-4-4.9Z"></path>
      <path class="cls-21" d="M89.79,88.92a8.25,8.25,0,0,0-3.43-2.6A12.23,12.23,0,0,0,74,87.74a16.74,16.74,0,0,0-3.1,3,3.63,3.63,0,0,1-.67.9,4.82,4.82,0,0,1-1,.53,16.17,16.17,0,0,0-2,.87,20.67,20.67,0,0,0-3.57,2.44A8,8,0,0,0,61.17,99h0a7.44,7.44,0,0,1,2.39-3.63,16,16,0,0,1,3.58-2.54,13.29,13.29,0,0,1,2-.88,4.13,4.13,0,0,0,.94-.47c.27-.18.4-.52.64-.83a17,17,0,0,1,3.18-3,12.31,12.31,0,0,1,12.5-1.32,8.4,8.4,0,0,1,3.43,2.66Z"></path>
      <path class="cls-27" d="M61.05,106.54c.51-1.79.14-2.41.8-4.47s1.29-4.66,3.62-6.55a6.94,6.94,0,0,1,4.46-2.23c1.21,0,2.77,3.33,4.51,5.38,2.24,2.64,9.21,5.91,12.93,2.44,1.38-1.28,1.24-2.83.75-4.38-.7-2.2-.33-1.34,1-3.3.72-1.06,1.66-2.55.34-4.43-1.95-2.78-7.29-4.17-10.34-3.58-3.94.77-6.49,3.09-8.6,5.42S66.54,93,64.41,95c-1.63,1.5-3.78,3.57-4,6-1.14-3.83-3.11-6.62-5.73-9.69a11.1,11.1,0,0,0-2.77-6.49A9.19,9.19,0,0,0,44.13,82c-3,.17-6.32,2.33-7.38,4.92-.77,1.88,1.83,2.91,1.41,3.88-.73,1.68-1.95,1.92-1.83,3.65.21,2.93,2.27,4.25,4.87,4.8s7.24-1.94,8.65-2.79A14.93,14.93,0,0,0,54.06,93c3.32,3.27,5,9.2,5.56,13.15S60.55,108.32,61.05,106.54Z"></path>
      <path class="cls-21" d="M60.46,100.92A28.73,28.73,0,0,0,58,95.83a25.54,25.54,0,0,0-3.47-4.41l0,0,0,0A14.35,14.35,0,0,0,51.32,85,8.56,8.56,0,0,0,45,82.38a13,13,0,0,0-3.51.45,8.1,8.1,0,0,0-3,1.78,5.71,5.71,0,0,0-1.81,3,2.06,2.06,0,0,0,.55,1.6,5.26,5.26,0,0,1,1,1.53h0a5.17,5.17,0,0,0-1-1.49,2.14,2.14,0,0,1-.61-1.66,5.61,5.61,0,0,1,1.78-3.1,8.37,8.37,0,0,1,3.08-1.88A13.25,13.25,0,0,1,45,82.07a9.19,9.19,0,0,1,3.55.68,8.42,8.42,0,0,1,3,2.08,14.57,14.57,0,0,1,3.16,6.45h0a24.26,24.26,0,0,1,3.45,4.49,28.19,28.19,0,0,1,2.35,5.15Z"></path>
      <path class="cls-21" d="M37.49,91.58c-.16.79-.65,1.51-.86,2.22A3,3,0,0,0,37,95.91a5.47,5.47,0,0,0,3.33,2.75,9,9,0,0,0,4.47-.37,23.52,23.52,0,0,0,2.26-.7c.75-.25,1.5-.52,2.24-.82l0,0a27,27,0,0,1-4.4,1.86,15.44,15.44,0,0,1-2.33.54,5.36,5.36,0,0,1-2.39-.09,5.64,5.64,0,0,1-3.52-3.06,3.18,3.18,0,0,1-.27-2.34,23.46,23.46,0,0,0,1-2.15Z"></path>
      <path class="cls-31" d="M53,90.46l-.76-1-4.79-.69s-.36-.89-.39-1-.48-1.8-.56-1.91-.13-.35-.4-.29a5.26,5.26,0,0,0-1.41.63l-.54.43a3.88,3.88,0,0,0-.44-1.49,13,13,0,0,0-1.48-1.33.69.69,0,0,1-.13-.56,2.19,2.19,0,0,0,0-1.14c-.14-.21-.35-.55-.73-.49a4.37,4.37,0,0,1-1.16-.18c-.4-.07-.62-.16-1,.1a8.27,8.27,0,0,0-.8.73c-.13.15,0,.56-.33.18a3,3,0,0,1-.5-1.31,8.05,8.05,0,0,1-.07-1,.29.29,0,0,0-.38-.21,3.45,3.45,0,0,1-1.7.3c-.45-.18-1.1-.39-1.1-.39-.19-.21,0-.81,0-.81a6.06,6.06,0,0,0-.16-.81l-.57-1-.64-2,1.31-7,2.17-2.64,3-7.72,2.14,2S49,75.38,49.09,75.56s3.81,9.48,3.8,9.86,1,5.32,1,5.32Z"></path>
      <path class="cls-32" d="M43.87,74.8l1,1.06a71.59,71.59,0,0,1,5.26,6.68c.93,1.72,5.91,8.62,6.08,9.6s6.33,11.13,6.33,11.13l-3.34,4.39s-.67.63-.93.32.11-1.52.11-1.52l-1-4.19L53.8,92.05a89,89,0,0,0-5.29-9.56,71.18,71.18,0,0,1-4.45-6.86C44.06,75.48,43.64,74.94,43.87,74.8Z"></path>
      <path class="cls-19" d="M58.84,84.29l.31,3.23-.95,3.65s-.8-.1-.9-.24-2.62-6.19-2.62-6.19l-2.34-6.09,3.21-1.58s1.67,1.22,1.65,1.45a25.07,25.07,0,0,0,.35,2.81C57.64,81.58,58.84,84.29,58.84,84.29Z"></path>
      <path class="cls-33" d="M50.48,69.76s.71,1.82.8,2a29,29,0,0,0,2.32,3.13,10.27,10.27,0,0,1,.79,2.37l.21,1.29s.14.41.41.26a5.71,5.71,0,0,1,.85-.33s.53-.17.69.22A3,3,0,0,1,57,80.1a3.61,3.61,0,0,0,.19,1.59c.19.24.47.37.52.72s.73,2.89.73,2.89l.32.81.33-.75s.36-.79.44-.92a2.2,2.2,0,0,1,.44-.57c.11-.05.2-.07.12-.25s-.68-.39-.72-.41-1.08-.62-1.21-1.09a10.84,10.84,0,0,1,.32-2.47,12.18,12.18,0,0,0,.41-2.76,16.66,16.66,0,0,0-.69-2.59c-.23-.28-.64-.68-.93.15s-.36.22-.36.22L57,73.36l.72-1.11a5.71,5.71,0,0,0,.78-2.19,4.84,4.84,0,0,0-1-2.88c-.69-.65-.91-.69-.91-.69a2.46,2.46,0,0,1,0,1A10,10,0,0,1,56,68.73a5.27,5.27,0,0,1-.95,1.18,3.87,3.87,0,0,1-1.33.9,1.56,1.56,0,0,1-1.53.1c-.7-.33-1.06-.87-1.4-1Z"></path>
      <path class="cls-34" d="M49.54,81.7s-4.4-14.56-5.84-16.76-4-6.37-4-6.37l-.2-2.23-.22-1.41s-.21-.29.25-.9a20,20,0,0,0,1.57-2.91c0-.19.11-1.19.11-1.19l.29,0s.34.81.39.85,4.73,5.13,5,4.95a3,3,0,0,0,.5-.44A5.79,5.79,0,0,1,49.05,54c.63-.17,1.52-.31,1.76.06s.58.48.71.73a4.18,4.18,0,0,1,.42,1.55c0,.45-.11.6-.69,1.47s-.73,1-.62,1.33.34.56.53.49-.3.33-.3.33A2.53,2.53,0,0,0,50,61.08a9,9,0,0,0-.27,2.48s-.14.67-.52.87-.59.4-.72,1.16a7.06,7.06,0,0,0-.16,1.51,1.94,1.94,0,0,1,.06,1.12c-.14.34-.65.66-.5,1s1.64,0,1.64,0l.48,0s.76.66.78.7.26.59.26.59.47.89.53,1a8.37,8.37,0,0,0,1.5,1.45,6.72,6.72,0,0,1,1.33,1.54,10.2,10.2,0,0,1,.91,1.67,2,2,0,0,1-.42,2.17,2.9,2.9,0,0,1-1.17.73l-.25.07.44.35a4.09,4.09,0,0,0,.58.72c.22.17,1.56.91,1.47,1.79a10.24,10.24,0,0,1-.2,2.07c-.22.75-.54,1.48-.64,1.86a1.88,1.88,0,0,0-.1.82c0,.23,1,4.64,1,4.64s0,.47-.65-.6-2-3.35-2-3.35Z"></path>
      <path class="cls-33" d="M43.28,61.48a5.92,5.92,0,0,1,.52-1.06,8.6,8.6,0,0,1,.77-.9c.19-.19.81-.75.81-.75l.73-.58a3.08,3.08,0,0,1,.85-.4.91.91,0,0,1,.73.38,1.49,1.49,0,0,1,.37,1,3.06,3.06,0,0,1-.13,1.08c-.07.19-.32.8-.33.91a.63.63,0,0,0,.24.6,1.37,1.37,0,0,0,.71.33,1,1,0,0,0,.73-.3c.21-.24.52-.74.61-.81s.17,0,.15.13-.17.88-.19,1a14.2,14.2,0,0,1-.11,1.87,1,1,0,0,1-.49.5.87.87,0,0,0-.59.51,9,9,0,0,0-.21,2.33,1.66,1.66,0,0,1-.11,1.15c-.17.35-.45.65-.28.75a1.5,1.5,0,0,0,.68.13c.16,0,.77-.25,1.12.24a15,15,0,0,1,1,1.94s.38.09.11,2.18a22.72,22.72,0,0,0-.32,4.4l.09.73-.61-1.71a11.47,11.47,0,0,0-.9-2.29,18.16,18.16,0,0,1-1.87-4.06l-.42-1a5.85,5.85,0,0,1-.55-1.22l-.23-.75-.39-1.62-.22-1-.3-1.42a8.13,8.13,0,0,0-.37-1.17,2.4,2.4,0,0,0-.69-1c-.25-.12-.61-.36-1,.28Z"></path>
      <path class="cls-19" d="M46.87,55.76s-.17.26-.42-.12A6.2,6.2,0,0,1,45.64,54c-.17-.71-.41-1.62-.43-1.73a7,7,0,0,1-.06-2.17,4.89,4.89,0,0,0,0-3.36c-.57-1.23-.77-1.23-1.13-1.22s-1,.08-1.21.44a8.16,8.16,0,0,0-1.11,2.11c-.06.5.25,1.2.18,1.47s-.41.41-.41.41.34.53.35.58a1.75,1.75,0,0,1-.17,1,3.42,3.42,0,0,0-.5,1.35,7,7,0,0,0,.12,1.39,10.25,10.25,0,0,1,.18,1.92c0,.49-.3,1.65-.27,2s.29,1.2.62,1.33a1.62,1.62,0,0,0,1.72-.35,4.72,4.72,0,0,0,1.18-1.3,1.64,1.64,0,0,1,.51-.59c.18-.11.91-.49,1.16-.65a2.41,2.41,0,0,0,.71-.72.9.9,0,0,0,0-.35Z"></path>
      <path class="cls-19" d="M39.39,58.47a10.36,10.36,0,0,0-.57-.89c-.1-.09-2-7.86-2-7.86a13.63,13.63,0,0,0,.91,2.79c.28.19.39-.5.36-.7S38,49.89,38,49.89s0-.65.44-.73a5,5,0,0,0,1.32-.47c.09-.07.73-.6,1-.06a2.66,2.66,0,0,1,.45,1.3,6.24,6.24,0,0,1-1.14,3.16c-1,1.71-.81,1.54-.67,2.46s.28,2.57.3,3l0,.45Z"></path>
      <path class="cls-34" d="M40,58.4l-.64,1-6-7.32s2.15-5.58,2.24-5.67a11.21,11.21,0,0,1,1.75.57,6.69,6.69,0,0,0-.15,3.07,13.41,13.41,0,0,0,.71,2.43l.42.72Z"></path>
      <path class="cls-19" d="M51.48,59.49l.41-.19.65-.36.79-.22a2.15,2.15,0,0,1,1.08.45,5,5,0,0,1,.58,1,2.42,2.42,0,0,1,.46,1.18,2.93,2.93,0,0,0,.22,1.14c.16.27.65,1.11.55,1.48a1.21,1.21,0,0,1-.6.9c-.34.14-1,.28-1.13.39s-1.16,1-1.07,1.37,0,.76.2,1.44.42,1.55.73,1.73a1.49,1.49,0,0,0,.74.15s-.32.47-.53.53-1,.5-1.19.55a1.72,1.72,0,0,1-1.14-.08,10.93,10.93,0,0,1-1.4-1c-.28-.26-.43-.9-1.26-.75a4.57,4.57,0,0,1-1.51,0l.18-.48a2.82,2.82,0,0,0,.21-1.42,5.23,5.23,0,0,1,.21-2.33c.22-.25.11,0,.59-.51s.54-.19.57-1.28,0-2.16.51-2.66S51.48,59.49,51.48,59.49Z"></path>
      <path class="cls-33" d="M60.16,91.87l.43.07a3.56,3.56,0,0,0,.87-.43,5.57,5.57,0,0,1,.57-.4s-.08,1-.08,1-.2,1.24-.2,1.24.1.52.19,1a8.19,8.19,0,0,1,.13,1.45c0,.23-.07.43-.07.43a4.63,4.63,0,0,0,.53-.48c.09-.13.4-.69.43-.77l0-.09a8.87,8.87,0,0,1,.25.94A13.49,13.49,0,0,1,63.07,98a1.53,1.53,0,0,0-.09.75c0,.2.33.94.59,1s.46-.21.68-.31,0,.82,0,.82-.44,1.16-.52,1.31a9.83,9.83,0,0,1-.69.85l0,.34,1-.09s.09.27,0,.34a6.52,6.52,0,0,1-1.36,1.69A5.85,5.85,0,0,0,61.19,106a2.6,2.6,0,0,1-.73.76l-1.27.88c-.1.07-.64.34-.64.34s1.59-3,3-3.93.17-3.76.17-3.76-1.45-5.57-1.48-5.67-.6-2.2-.31-2.48Z"></path>
      <path class="cls-33" d="M44.2,76.13l-1.31-.34s-2.48-.89-2.64-1l-1.31-.63-.54-.48L37.14,73,36,72.21l-.74-.59c-.1-.09-.87-.59-.87-.59s-2.56-1.26-2.73-1.26a7.84,7.84,0,0,1-1.22-.14c-.12-.07-1.09-.79-1.31-1s-.53-.52-.78-.36a4,4,0,0,0-.46.35l.13.92A10.9,10.9,0,0,1,28.43,71a3.89,3.89,0,0,0,.51,1.35c.14.06.75.07.87.37a.93.93,0,0,1-.14.87,5.56,5.56,0,0,0-.56,1,5,5,0,0,0,.42,1.74c.23.34.36.52.43.42s1.07-1.19,1.85-.63a3.57,3.57,0,0,0,1.4.71,1.61,1.61,0,0,0,.79.07,8,8,0,0,1,2.44-.45,3,3,0,0,1,1.49.71,6.35,6.35,0,0,0,1.3.82,25,25,0,0,0,2.66.67,14.22,14.22,0,0,0,1.52,0c.26,0,3.4,1.4,3.4,1.4l-1.66-2.52Z"></path>
      <path class="cls-32" d="M56.2,92.14s-.29-1.48-.37-1.87-.61-3.06-.61-3.06a1.6,1.6,0,0,1,0-1.33,22.05,22.05,0,0,0,.87-3,13.72,13.72,0,0,0,.83,3.4,18.81,18.81,0,0,1,.86,4.32s.1-2.4.08-2.6-.17-.56.44-1.06a4.83,4.83,0,0,0,1-2s.4-1.15.71-1.1.37.14.59-.05l.59-.44s.27-.64.41-.11a5.11,5.11,0,0,1-.18,2.94s-.08,0,0,.62a2.86,2.86,0,0,1-.07,2c-.39.93-1.14,1.77-1.17,2.38s-.3.57-.3.9a19.15,19.15,0,0,0,.56,3.43c.37,1.43,1.88,6.86,1.88,6.86s-1.4-1.64-1.59-2S57,93.84,57,93.77Z"></path>
      <path class="cls-35" d="M47.82,91.39s-.13-1.31-.13-1.36-.23-1.27-.23-1.27h.87l1.28-.46a1.6,1.6,0,0,1,1.1,0,3.68,3.68,0,0,1,1.12.74,13.2,13.2,0,0,1,1.63,2.18c.41.78,5.11,14.45,5.42,15.46,0,0-.17,1.07-.62,1.33l-.47-1.23-.62-2.37-.54-1.18-1.32-.57s-1.37-.33-1.61-.42a6.74,6.74,0,0,1-1.29-.88c-.07-.13.31-.11.31-.11a5.57,5.57,0,0,0,.91-.3c.13-.09,1-1.14.82-1.73s.06-1.62-.6-2.13a18.34,18.34,0,0,0-3.32-1.35s1-.36,1-.79-.68-3.48-.68-3.48-.28-1-1.08-.78-1.44.29-1.68.7S47.82,91.39,47.82,91.39Z"></path>
      <path class="cls-33" d="M14.32,56.16s.39.5.72.42a.93.93,0,0,0,.8-1,3,3,0,0,0-.24-1.34c-.27-.36-.6-1.18-.71-1.18s.34-.84.5-1.06A5.05,5.05,0,0,1,17,50.64a10,10,0,0,1,1.64-.17c.33,0,.56-.26.94-.34l.37-.08.9,2.37s.47,1,1,1.11a4.43,4.43,0,0,0,1.89-.12c.22-.13.68-.43,1.37-1.83s.84-1.71,1.17-1.34,1.29,1.55,1.52,1.53a4.94,4.94,0,0,1,.66,0s.48.05,0-.77-1.11-1.92-.63-2.64a12.23,12.23,0,0,1,1.51-1.69s.55-.19.61-.54.44-2.29.44-2.29.37-1.09.41-1.16.41-.67.62-.75a1.18,1.18,0,0,1,.74,0,12.94,12.94,0,0,0,1.28.34c.16,0,.88.14,2.13-1.32l.5.22a1.1,1.1,0,0,1,.67,1.12,9.42,9.42,0,0,1-.11,2.27c-.1.1-.5.44-.26.76a3,3,0,0,1,.57.87,1.63,1.63,0,0,1-.69,1.59A4.29,4.29,0,0,0,35.15,49c-.14.27-.47,1-.5,1.12a6,6,0,0,0-.21,1.47,4.64,4.64,0,0,0,1,2.48c.73.71.79,1,1.38,1.58l1.59,1.51.76,1A4.87,4.87,0,0,1,40,59.86a6,6,0,0,1,0,2,5.11,5.11,0,0,0-.33,2.62c.25,1.12.75,2.94.75,2.94l.2.66s-2.46.23-2.56.21-2.43,0-2.43,0l-4.08-.5-5.11-2.14a3.86,3.86,0,0,0-.8.74,3.61,3.61,0,0,1-1.14,1,6,6,0,0,1-1.06-.27c-.07,0-2.13-1.2-2.32-1.28s-1.58-.24-1.58-.24l-1.18-.55a3,3,0,0,0-1.64.71,3.83,3.83,0,0,0-1.09,1.31c-.23.48-.78,1.49-1.4,1.69a2,2,0,0,1-2-.11c-1-.54-3.2-1.42-3.85-.79a10.46,10.46,0,0,1,.08-3.14,10.32,10.32,0,0,1,.7-2.11c.11-.21.33-.34.48-.52a9.18,9.18,0,0,0,.07-2.32,1.65,1.65,0,0,1,.65-2c1.09-.66,1.18-.57,1.44-.91s0-.85.44-1.23,1.2-.82,1.65-.15Z"></path>
      <path class="cls-36" d="M28.48,51.79l-.42,0-.63-.29s-.63-.62-.64-.65l-.49-.57s-.16-.26-.27-.16-.25.14-.32.27-.33.66-.33.66l-.37.85s-.38.7-.43.77-.52.7-.82.78-.89.17-.89.17a3,3,0,0,1-1,0,1.78,1.78,0,0,1-.91-.88l-.11-.23-.13-.3-.15-.38L20,50.05a1,1,0,0,0-.2-.7c-.25-.33-1.05-1.19-1.05-1.19l-.64-.41-.27-.14,1.67-1.38s2.6-.39,2.69-.38,2.08-.18,2.24-.14,1.6,0,1.66.07,2,1,2.07,1.07a7.34,7.34,0,0,1,0,1s-.56.79-.41,1.29.06.84.42,1.34.59.79.56,1S28.48,51.79,28.48,51.79Z"></path>
      <path class="cls-34" d="M28.12,47.9a2.94,2.94,0,0,0-.92-.1c-.43,0-.57.06-.59.06l-.13,0h-.09l-.08-.07-.13-.24s-.16-.24-.16-.24l-.09-.15L25.71,47l-.19,0-.41.11-.7.18-.38,0H23.4l-.31-.14L22.62,47s-.29,0-.31,0l-.34.13-.54.42-.64.24-.54-.33-.56-.34H19.2l-.58.11-.72.33-.11,0,.17-.84.5-.84.63-.54.79-.39a6,6,0,0,0,.64-.2,4.92,4.92,0,0,0,.82-.42,10,10,0,0,1,1.05-.6,2.23,2.23,0,0,1,.84-.16c.25.05.5.33.6.37a5.17,5.17,0,0,1,.51.45l.41.3s.31.15.48,0a2.41,2.41,0,0,0,.52-.59,3,3,0,0,0-.09-.78,2.69,2.69,0,0,0-.57-.48c-.1,0-.71-.35-.74-.38a4.41,4.41,0,0,1-.68-1.07s-.12-.88-.11-1.08a4.2,4.2,0,0,1,.21-1c.06,0,.07.19.27.21s.44.1.55.08a2.83,2.83,0,0,1,.57,0l.64.1.6.19a1.26,1.26,0,0,1,.35.22c.13.13.14.42.4.36a1.34,1.34,0,0,0,.61-.42l.66-.81c.06-.07.66-.79.83-.95a2,2,0,0,1,.64-.37c.15,0,.68-.12.79,0l.72.3a1.25,1.25,0,0,0,.42.15c.13,0,.75-.34,1-.4s.88-.14,1,0a5.9,5.9,0,0,1,1,1.42c.28.62.15.92.43,1.18a3,3,0,0,0,.38.33l-.37.41a4.18,4.18,0,0,1-.95.7A1.79,1.79,0,0,1,33,42.2c-.42-.15-1.32-.6-1.71-.15a4.24,4.24,0,0,0-.73,1.21c-.06.17-.43,1.66-.46,1.83s-.15,1-.16,1.06,0,.13-.23.28A8.22,8.22,0,0,0,28.12,47.9Z"></path>
      <path class="cls-19" d="M8.37,67.9s6.8-2.42,8.8-2.41a2.29,2.29,0,0,1,.65-.36,1.73,1.73,0,0,1,.55,0c.07,0,1.89.61,2.22.67a12.9,12.9,0,0,0,1.95-.58c.44-.09,1.35-.17,1.35-.17a10.39,10.39,0,0,1,2.56.66s.25-.06.35.57a7.4,7.4,0,0,0,.82,2c.12.17.14.34.36.28a1.11,1.11,0,0,1,.54-.1,1.3,1.3,0,0,1,.65.33,5.62,5.62,0,0,0,.95.75,3,3,0,0,0,1.09.31,1.24,1.24,0,0,1,.93.2c.61.32,1.51.78,1.61.82s.84.33,1,.41.73.61.89.73.73.53.79.57l1.45.9.93.54s-.53-.66-.63-.82a4.85,4.85,0,0,0-.47-.6.94.94,0,0,1-.3-.32c-.12-.2-.6-1.38-.6-1.38s-1.07-2.39-1.15-2.51a3.27,3.27,0,0,0-.52-.44l-1-.79-1.22-.72-.61-.28-1.09-.39-1.11-.32-.56-.1-.69-.08-.52-.1-.7-.43-1.21-.77-.54-.34-.48-.43-.55-.55-.73-.73-1.26-1.1L22,60.12l-.71-.47-.75-.43-.84-.3-.75-.12-.66.19-.79.47-.4.32-.72.66s-.49.45-.51.48l-.55.47-.44.26s-.53.25-.53.25l-.57.15H12.56l-.62,0L11.42,62l-.61-.05-.74.1-.44.13-.48.52-.26.48-.23.75s-.21.83-.21.88-.09,1-.09,1V67.9Z"></path>
      <path class="cls-19" d="M42.31,73.25l-.64-.5-.79-.52-.9-.82-.83-.7c-.08-.08-1.19-1-1.26-1l-1-.71-.87-.5a.73.73,0,0,1-.56-.34,3.66,3.66,0,0,0-.33-.52l-1-1L33.31,66l-1-1.1a10.76,10.76,0,0,1-1.07-1.54c-.29-.55-.68-1.51-.83-1.85A11.6,11.6,0,0,0,29.51,60c-.23-.3-.94-1-1.14-1.16a1.36,1.36,0,0,1-.39-1c0-.57,0-.86-.32-1.23,0,0-.79-.72-.92-.82s-.92-.72-1.07-.86-1-1-1-1a2.55,2.55,0,0,0,.69.44c.26,0,1.53.14,1.53.14l1.54.1s1-.05,1.17-.07a2,2,0,0,1,.36,0,.86.86,0,0,1,.5.42,3,3,0,0,0,.23.43,7.4,7.4,0,0,0,.52.7l.53.46.4.39.24.32.31.58.21.55.79,1.9.48,1.07L35,63.13l.82,1.58s.69.93.85,1.09.93.78.93.78.19.2.46.45a2,2,0,0,0,1.4.58c.53-.07,1,.31,1.39.81a11.3,11.3,0,0,1,1,2.4c0,.08.59,2.55.59,2.55Z"></path>
      <path class="cls-34" d="M9.63,62.13s.23-.23.17-.93-.22-1.49-.22-1.78a1.46,1.46,0,0,1,.35-1.2c.42-.43.87-.84,1.12-.83a3.45,3.45,0,0,1,.57.06,2.2,2.2,0,0,1,1,.72A5.92,5.92,0,0,0,14,59.54a2.86,2.86,0,0,0,1,.46l1.74.13-.62.62s-.84.7-1,.8a3.06,3.06,0,0,1-1.49.49L12,62l-.87-.09A8.72,8.72,0,0,0,9.63,62.13Z"></path>
      <path class="cls-37" d="M61.2,106.26s-1.23.87-1.36.94-1.27,1-1.58.78-.45-1.42-.79-2.33-.19-1.81-.89-2.51-3.65-.58-4.24-1.94c0,0,2.15.37,2.12-2.35s-2.56-2.63-3.93-3.14c0,0,1.18-.26,1-1.22s-.61-3.59-1.23-3.81-2.41.42-2.48,1.09a12,12,0,0,0-.51-3.24c-.42-.89-.55-3.08-1.22-3a3.56,3.56,0,0,0-2,1.21c-.1.36.2-1-.53-1.84a4.77,4.77,0,0,0-1.42-1.17c-.19-.11.39-1.77-.29-1.94a7.81,7.81,0,0,1-1.49-.34,1.24,1.24,0,0,0-1.53.41l-.63.66a4.41,4.41,0,0,1-.63-2.19c.08-1.06-1.05.26-2.08-.09s-.76-.55-1.38-.28c0,0,.11-.37.24-.92s-.14-.76-.36-1.11a1.68,1.68,0,0,1-.4-.91c0-.33-1.1-.08-1.7-.82s-1.68.1-2,.61a3.11,3.11,0,0,1-.82-2.13c.18-1,1.08-1.28.81-1.86s-1-.22-1.15-.75-.31-.83-.69-2,.2-.67-.23-1.56-.93-1.22-1-2.09-.14-.92-.58-.7-1.14,1.78-1.91,1.68a11.32,11.32,0,0,1-3-1.47c-.46-.31-1.81-.22-2.15-.47a1.52,1.52,0,0,0-1.23-.4,4.44,4.44,0,0,0-2.29,2c-.38,1-1.66,2.83-3.82,1.37S8.46,68,8.46,68s-.55-3.47.8-5.59c0,0,.54,0,.54-1.24s-.42-1.77-.13-2.52a3.31,3.31,0,0,1,1.77-1.55c.74-.37.35-.64.54-1.08s1.11-1.68,2.08-.23,1.79.51,1.78-.25a4.78,4.78,0,0,0-1.07-2.52,5.7,5.7,0,0,1,1.71-2.16,3.52,3.52,0,0,1,2.28-.41c.43,0,1-.5,1.13-.6s-.1-.68-.84-1.29-1.07-1-1.25-.94S18,46.13,19,45.49s.81-.33,1.49-.65S21.5,44.29,22,44s.94-.72,1.68-.11,1.16,1.18,1.57.82.72-.64.3-1.37S24.45,43,23.89,42a3.22,3.22,0,0,1-.12-2.58s.44.44.79.3a3.44,3.44,0,0,1,2,.35c.46.3.51.87,1.1.13s1.61-2,2.19-2.2,1.67.35,1.91.41.84-.41,1.2-.45,1.24-.31,2,2.17c0,0-.08.67,1.06,1s.6,3.1.46,3.49-.34.63.09,1A2.23,2.23,0,0,1,37,47.54a3.27,3.27,0,0,0-.16,2.38,8.8,8.8,0,0,1,.42,1.72c.1.4.48,1.28.71.75s0-.63,0-1.33-.26-1.87.41-1.9a2.48,2.48,0,0,0,1.53-.64c.35-.3.6-.14.92.24s.37,1.27.63,1.2.56-.15.36-.53a1.93,1.93,0,0,1,0-1.7c.32-.61.89-1.95,1.37-2.09s1.25-.27,1.62.35a4.92,4.92,0,0,1,.37,3.95c-.65,1.51.83,5,.92,5.17s.46,1.2,1.14.32,2.24-2.13,3.54-1.34a2.83,2.83,0,0,1,1,3.06,13.52,13.52,0,0,1-1,1.16c-.14.13-.38,1.21.11,1.27a3.5,3.5,0,0,0,1.62-.64,1.62,1.62,0,0,1,2.31.77c.85,1.39.49,1.92.71,2.5s1.15,1.46.34,2.44a1.79,1.79,0,0,1-.78.36,1.82,1.82,0,0,0-1.43,1.15c-.5.93.16,2.82.37,3.24s1,1.22,1.86-.42.77-2.1.65-2.49S58.9,68,58.45,70.33s-1.3,2.06-1.47,3a2.49,2.49,0,0,0,.15,1.91s-.17-.4.35-1.19c0,0,.9-1.12,1.44,3.07a29.64,29.64,0,0,1-.6,3.22c-.48,2,0,1.79.15,2.23s1.23.67,1.55,1,.1.68.77.09.61,0,.66-.59h0s.75,1.11-.18,3.46c0,0,1,1.29-.66,3.93S61.7,91.62,62,91c0,0,.27-.29-.26,2.59A5.29,5.29,0,0,1,62,96.44s1.2-1.11,1.05-2c0,0,.54,2.49,0,3.52s.66,2.55,1.22,1.35-.27,2.48-1.18,3,.71.47,1.1.24-.91,1.9-2.1,2.55S61.2,106.26,61.2,106.26Z"></path>
      <path class="cls-21" d="M62.45,103.66a26.27,26.27,0,0,1-2-3.18l-1.77-3.23L55.12,90.8l-.89-1.61c-.31-.53-.66-1-1-1.55l-2-3.09a70.37,70.37,0,0,0-4.25-6,54.19,54.19,0,0,0-5-5.41c-2-1.37-3.67-3.3-5.81-4.49-1.12-.56-2-1.52-3-2.08a13.59,13.59,0,0,0-3.44-1.23,7,7,0,0,0-1.82-.13,10.3,10.3,0,0,1-1.84.14A14,14,0,0,0,24.26,65a5.4,5.4,0,0,0-1.83.17A5.39,5.39,0,0,1,24.26,65a15.53,15.53,0,0,1,1.81.3,11.31,11.31,0,0,0,1.83-.16,7.07,7.07,0,0,1,1.84.11,13.5,13.5,0,0,1,3.49,1.21c1.11.56,2,1.51,3.06,2,2.19,1.2,3.83,3.1,5.88,4.45a57.11,57.11,0,0,1,5.06,5.38,72.09,72.09,0,0,1,4.33,6l2,3.07c.34.51.69,1,1,1.54l.9,1.61L59.16,97l1.8,3.21a28.26,28.26,0,0,0,1.94,3l.05,0a.33.33,0,0,1-.06.45.31.31,0,0,1-.44-.06Z"></path>
      <path class="cls-21" d="M53.87,92a13,13,0,0,0-1.13-1.81,6.16,6.16,0,0,0-1.47-1.5,2,2,0,0,0-.94-.37,1.76,1.76,0,0,0-1,.27,5.8,5.8,0,0,1-1,.36,1.84,1.84,0,0,1-.58,0,.68.68,0,0,1-.56-.37.16.16,0,0,1,.29-.14h0v0c.07.17.48.23.79.16a4.58,4.58,0,0,0,1-.3,2,2,0,0,1,1.08-.25,2.28,2.28,0,0,1,1,.43,6.83,6.83,0,0,1,1.45,1.59A15.61,15.61,0,0,1,53.87,92Z"></path>
      <path class="cls-21" d="M50.43,85.39l-4.09-6a34.49,34.49,0,0,1-2-3.06,7.78,7.78,0,0,0-2-2.9.13.13,0,0,1,0-.07,21,21,0,0,0-1-3.66,4.55,4.55,0,0,0-.92-1.57,1.37,1.37,0,0,0-.78-.35c-.3-.07-.62-.08-.95-.17a2.15,2.15,0,0,1-1.33-1.46,13.11,13.11,0,0,1-.51-1.86A23.79,23.79,0,0,0,36,60.64a4.66,4.66,0,0,0-1-1.58,4.45,4.45,0,0,1-1.16-1.54c-.25-.59-.42-1.21-.66-1.79a2.29,2.29,0,0,0-1.12-1.38,3.46,3.46,0,0,0-1.82.12,9.55,9.55,0,0,1-1.92.14c-.64,0-1.26-.12-1.9-.15a5,5,0,0,1-.95-.1,2.15,2.15,0,0,1-.81-.48,2.07,2.07,0,0,0,.82.45,5,5,0,0,0,.94.08c.64,0,1.27.09,1.91.09a9.14,9.14,0,0,0,1.88-.18,3.44,3.44,0,0,1,1.91-.13,2.41,2.41,0,0,1,1.24,1.47c.25.59.43,1.2.68,1.78a4.3,4.3,0,0,0,1.13,1.46,4.9,4.9,0,0,1,1,1.65,23.19,23.19,0,0,1,.94,3.71,11.8,11.8,0,0,0,.52,1.81,1.89,1.89,0,0,0,1.12,1.27c.56.17,1.3.07,1.85.6a4.82,4.82,0,0,1,1,1.69,20.11,20.11,0,0,1,1,3.72l0-.08a8.07,8.07,0,0,1,2.06,3,30.56,30.56,0,0,0,1.91,3.06Z"></path>
      <path class="cls-21" d="M44.18,76.29a22.15,22.15,0,0,1-4.55-1.6,4.92,4.92,0,0,1-1-.71,5,5,0,0,1-.71-1,1.67,1.67,0,0,0-.37-.42,1.73,1.73,0,0,1-.39-.51,10.57,10.57,0,0,1-.46-1.12,8.44,8.44,0,0,0-2.39-4,10.42,10.42,0,0,1-3.18-3.55,9,9,0,0,1-.53-1.08,8.31,8.31,0,0,0-.45-1.11,6.74,6.74,0,0,0-1.35-1.92,2.81,2.81,0,0,1-.82-.89c-.17-.41,0-.82-.06-1.19-.2-.76-1-1.21-1.57-1.69a13.51,13.51,0,0,1-1.74-1.64,1,1,0,0,0-1.05-.37,7.74,7.74,0,0,1-1.19.13,1.42,1.42,0,0,1-1.07-.47,3.46,3.46,0,0,1-.59-1l-.82-2.24.84,2.24a3.72,3.72,0,0,0,.59,1,1.37,1.37,0,0,0,1.05.45,8,8,0,0,0,1.19-.14,1.36,1.36,0,0,1,.6,0,1.24,1.24,0,0,1,.5.34,12.78,12.78,0,0,0,1.74,1.63c.6.48,1.38.9,1.62,1.73.1.41-.1.82.06,1.17a2.66,2.66,0,0,0,.8.84,7.05,7.05,0,0,1,1.4,2,9.63,9.63,0,0,1,.46,1.11,8.73,8.73,0,0,0,.53,1.06,10,10,0,0,0,3.17,3.47,8.76,8.76,0,0,1,2.49,4.07,9.58,9.58,0,0,0,.45,1.09,1.41,1.41,0,0,0,.33.43,1.87,1.87,0,0,1,.42.47,4.86,4.86,0,0,0,.69.94,3.75,3.75,0,0,0,1,.66A21.37,21.37,0,0,0,44.23,76h0a.16.16,0,0,1,.12.19.17.17,0,0,1-.19.12Z"></path>
      <path class="cls-21" d="M46.81,80c-.53-.26-1.06-.51-1.6-.73-.28-.12-.56-.18-.84-.28a4.6,4.6,0,0,0-.81-.33,8.14,8.14,0,0,1-3.49-.34,6.37,6.37,0,0,1-1.66-.65c-.51-.36-.86-.84-1.41-1a5.5,5.5,0,0,0-3.33.5h0a.16.16,0,0,1-.21-.1.16.16,0,0,1,.1-.2h0a5.64,5.64,0,0,1,3.53-.44,5.84,5.84,0,0,1,1.44,1.06,6.23,6.23,0,0,0,1.59.67,8,8,0,0,0,3.47.41,5.35,5.35,0,0,1,.81.35c.27.1.56.18.83.31C45.76,79.47,46.29,79.73,46.81,80Z"></path>
      <path class="cls-21" d="M37.3,80a1.72,1.72,0,0,1,.38-1.4,2.83,2.83,0,0,1,1.15-.79,2.73,2.73,0,0,0-1,.88,1.48,1.48,0,0,0-.2,1.21v0a.16.16,0,0,1-.1.2.15.15,0,0,1-.2-.1Z"></path>
      <path class="cls-21" d="M38.1,82.51A2.42,2.42,0,0,1,39,81a1.78,1.78,0,0,1,.82-.33,2.6,2.6,0,0,1,.88,0h0a1.56,1.56,0,0,0,1.17,0,2,2,0,0,1,1.23.35,7.67,7.67,0,0,0,2.33.88,5.41,5.41,0,0,1,2.37.81,6.1,6.1,0,0,1,2,1.57,6.06,6.06,0,0,0-2-1.53,5.26,5.26,0,0,0-2.36-.76A7.7,7.7,0,0,1,43,81.22a1.92,1.92,0,0,0-1.15-.31,1.75,1.75,0,0,1-1.29,0l0,0a2.45,2.45,0,0,0-.81,0,1.6,1.6,0,0,0-.72.31,2.14,2.14,0,0,0-.75,1.37h0a.12.12,0,0,1-.14.1.12.12,0,0,1-.1-.13Z"></path>
      <path class="cls-21" d="M44,86.7A2.86,2.86,0,0,1,45.26,85a2.22,2.22,0,0,1,2.08.18A7.34,7.34,0,0,1,49,86.49a5.46,5.46,0,0,1,1.21,1.69,5.75,5.75,0,0,0-1.26-1.63,7.74,7.74,0,0,0-1.65-1.22,2.07,2.07,0,0,0-1.9-.11,2.58,2.58,0,0,0-1.1,1.57h0a.16.16,0,1,1-.3-.09Z"></path>
      <path class="cls-21" d="M39.13,74.31a.78.78,0,0,0-.41,0,2.76,2.76,0,0,1-.47.1,5,5,0,0,1-1-.1,1.74,1.74,0,0,0-.91,0,2.78,2.78,0,0,1-.89.36,11.1,11.1,0,0,1-1.9.24c-.34,0-.62-.2-.93-.24l-.95,0h0a2.45,2.45,0,0,0-1.28.77,2.38,2.38,0,0,0-.54,1.4,2.33,2.33,0,0,1,.52-1.41,2.45,2.45,0,0,1,1.29-.81h0l1,0c.33,0,.61.21.92.22a10.79,10.79,0,0,0,1.87-.26,2.49,2.49,0,0,0,.87-.37,1.9,1.9,0,0,1,1-.07,5.15,5.15,0,0,0,.94.09c.27,0,.6-.24,1-.07a.08.08,0,0,1,0,.11.07.07,0,0,1-.1,0h0Z"></path>
      <path class="cls-21" d="M27.75,68.4a1.75,1.75,0,0,1,.85-.17,1,1,0,0,1,.44.16c.13.11.2.19.3.29a4.08,4.08,0,0,0,1.23.88,1.36,1.36,0,0,0,.73.09,1.72,1.72,0,0,1,.8.2c.49.21.93.52,1.39.74a10.22,10.22,0,0,1,1.43.66,3,3,0,0,1,.6.53,5.87,5.87,0,0,0,.61.48c.86.6,1.76,1.15,2.66,1.68-.92-.51-1.83-1-2.71-1.61a5.82,5.82,0,0,1-.63-.48,3.48,3.48,0,0,0-.59-.5,9.72,9.72,0,0,0-1.44-.61c-.49-.23-.92-.51-1.4-.71a1.54,1.54,0,0,0-.72-.16,1.57,1.57,0,0,1-.82-.09,4.51,4.51,0,0,1-1.34-.9c-.2-.2-.33-.35-.57-.35a1.33,1.33,0,0,0-.67.16h0a.16.16,0,0,1-.22-.07.16.16,0,0,1,.08-.21Z"></path>
      <path class="cls-38" d="M9.63,62.13a4.2,4.2,0,0,1,1.73-.19,13.25,13.25,0,0,0,2.09.11,2.94,2.94,0,0,0,1.68-.55c.71-.41,2.34-2.45,3.48-2.61s1.93.2,3.79,1.54,2.92,2.89,3.81,3.37a20.44,20.44,0,0,0,2.32,1.37"></path>
      <path class="cls-38" d="M10.94,57.4a1.86,1.86,0,0,1,1.71.77A4.09,4.09,0,0,0,14.94,60c.69.07,1.74.13,1.74.13"></path>
      <path class="cls-38" d="M14.06,55.82s.79,2.27,2.27,2.54,2.54.42,3,.51"></path>
      <path class="cls-38" d="M20.6,51.83s-.49,1.07.76,2.81A7.65,7.65,0,0,1,22.82,58,24.16,24.16,0,0,0,24,61.07a6.74,6.74,0,0,0,1.14,1.81"></path>
      <path class="cls-21" d="M17.71,47.52a2.7,2.7,0,0,1,2.07-.44c.37.1.63.45.86.58s.56,0,.82-.22a2.25,2.25,0,0,1,.91-.54,2.65,2.65,0,0,1,1,.29,3.58,3.58,0,0,0,2-.25h0c.31-.13.58.12.71.34a2.43,2.43,0,0,1,.2.35c.06.12.1.26.25.21a4.47,4.47,0,0,1,1.59,0,4.25,4.25,0,0,0-1.59,0,.2.2,0,0,1-.2-.06,1.62,1.62,0,0,1-.1-.18l-.2-.34c-.14-.21-.4-.39-.62-.29h0c-.32.1-.65.21-1,.29a1.87,1.87,0,0,1-1.05,0c-.33-.09-.65-.3-.94-.26a2,2,0,0,0-.81.53,1.8,1.8,0,0,1-.46.29.72.72,0,0,1-.59,0c-.35-.21-.52-.47-.84-.54a2.4,2.4,0,0,0-1.81.45h0a.15.15,0,0,1-.22,0,.17.17,0,0,1,.05-.22Z"></path>
      <path class="cls-21" d="M23.39,53.5a1.66,1.66,0,0,0,1.14-.86,8.58,8.58,0,0,0,.64-1.33l.29-.68a3.59,3.59,0,0,1,.17-.34A.59.59,0,0,1,26,50a.49.49,0,0,1,.42.17,3.32,3.32,0,0,1,.26.28c.16.19.31.38.48.56a1.9,1.9,0,0,0,1.18.65.56.56,0,0,0,.26,0s0-.08-.05-.18-.24-.41-.37-.63a3.71,3.71,0,0,1-.55-1.43,2.13,2.13,0,0,1,.36-1.51A6.91,6.91,0,0,1,29,46.79a5.72,5.72,0,0,1,.61-.46c.12-.08.2-.1.19-.16s0-.23.05-.35a14.07,14.07,0,0,1,.72-2.91,1.75,1.75,0,0,1,1.05-1.11,3.26,3.26,0,0,1,1.48.34,1.64,1.64,0,0,0,1.36-.26,4.42,4.42,0,0,0,1.12-1,4.56,4.56,0,0,1-1.08,1,1.76,1.76,0,0,1-1.44.34A3.16,3.16,0,0,0,31.68,42c-.44.11-.69.58-.87,1a14.56,14.56,0,0,0-.66,2.85c0,.12,0,.23,0,.38a.4.4,0,0,1-.16.24l-.16.1a7.33,7.33,0,0,0-1.57,1.48,1.83,1.83,0,0,0-.33,1.3,3.5,3.5,0,0,0,.5,1.32c.12.21.26.41.38.65,0,.07,0,.13.07.21a.31.31,0,0,1-.1.3.58.58,0,0,1-.46.08,2,2,0,0,1-1.34-.75c-.17-.19-.32-.39-.47-.59s-.34-.42-.47-.39-.27.32-.37.51l-.31.67a7.93,7.93,0,0,1-.72,1.31A1.68,1.68,0,0,1,23.39,53.5Z"></path>
      <path class="cls-21" d="M46.41,77.63a31.11,31.11,0,0,1-1.06-4.28c-.13-.72-.17-1.46-.23-2.19a12.09,12.09,0,0,0-.5-2.14A31.28,31.28,0,0,0,43,65c-.63-1.32-1.41-2.58-2.12-3.86a35.19,35.19,0,0,0-2.34-3.71,28.87,28.87,0,0,1-3.08-3.17,5.16,5.16,0,0,1-1-2A4.06,4.06,0,0,1,34.56,50a5.35,5.35,0,0,1,1.12-2c.28-.28.65-.44.85-.68a2,2,0,0,0,.34-.94h0a.17.17,0,0,1,.18-.13.16.16,0,0,1,.13.19h0a2.17,2.17,0,0,1-.42,1.09c-.29.32-.63.45-.87.7a4.94,4.94,0,0,0-1.07,1.83,3.83,3.83,0,0,0-.17,2.09,4.88,4.88,0,0,0,1,1.91,27.39,27.39,0,0,0,3,3.17A36.78,36.78,0,0,1,41,61c.7,1.29,1.47,2.55,2.09,3.89A31.52,31.52,0,0,1,44.7,69a12.15,12.15,0,0,1,.48,2.15c.06.74.09,1.47.21,2.2A31.34,31.34,0,0,0,46.41,77.63Z"></path>
      <path class="cls-21" d="M37.74,66.81A6.52,6.52,0,0,1,35.24,64c-.54-1.16-1-2.32-1.52-3.47-.24-.59-.51-1.16-.74-1.75A5.32,5.32,0,0,0,32.2,57c-.38-.5-1-.81-1.32-1.36-.18-.25-.31-.55-.48-.81a.8.8,0,0,0-.8-.38.81.81,0,0,1,.81.37c.18.26.31.55.5.81.35.53.93.83,1.33,1.33a5.25,5.25,0,0,1,.82,1.7c.24.58.52,1.15.77,1.73.53,1.14,1,2.31,1.57,3.43a6.33,6.33,0,0,0,2.43,2.73h0a.12.12,0,1,1-.11.21Z"></path>
      <path class="cls-21" d="M40.56,68.27c-.23-.74-.46-1.47-.66-2.22a13.07,13.07,0,0,1-.48-2.27c.1-.8.41-1.5.47-2.26a4.64,4.64,0,0,0-.27-2.22.06.06,0,0,1,0,0c0-.92-.12-1.84-.24-2.75a11.71,11.71,0,0,0-.23-1.34,1.38,1.38,0,0,1-.08-.37,1,1,0,0,1,.06-.39,3.66,3.66,0,0,1,.32-.66,15,15,0,0,0,1.42-2.35,3.21,3.21,0,0,0,0-2.63s0,0,0,0h0a3.13,3.13,0,0,1,.41,1.34,3.7,3.7,0,0,1-.24,1.39,14.69,14.69,0,0,1-1.33,2.44c-.23.4-.46.76-.28,1.17a8.57,8.57,0,0,1,.23,1.39c.1.92.15,1.85.18,2.77v0a4.75,4.75,0,0,1,.24,2.33c-.08.78-.4,1.52-.51,2.24A11.73,11.73,0,0,0,40,66c.18.75.39,1.49.6,2.23,0,0,0,0,0,0S40.56,68.28,40.56,68.27Z"></path>
      <path class="cls-39" d="M41.49,50a1.2,1.2,0,0,1,.18,1.56,3.29,3.29,0,0,0-.33,2.92A8.91,8.91,0,0,1,41.22,58c-.14.81.5,2.52,2.32,1.19s.58-1.33,2.1-2.13,1.34-.84,1.63-1.63"></path>
      <path class="cls-40" d="M51.48,59.49a8.64,8.64,0,0,0-1.94,2,1.06,1.06,0,0,1-1.91,0c-.19-.38.31-1,.44-1.77s-.47-2.55-1.78-1.62-2.75,2.3-3,3.42-.51,1.79-.65-.38c0,0,.12-1.07-.48-1.44"></path>
      <path class="cls-21" d="M43.16,62c.09-.28.32-.6.66-.56a1.21,1.21,0,0,1,.74.55,5.46,5.46,0,0,1,.69,1.74c.28,1.23.5,2.46.83,3.67a10,10,0,0,0,.6,1.77,15.41,15.41,0,0,1,.77,1.71c.25.58.37,1.21.66,1.76s.6,1.09.9,1.64a14.84,14.84,0,0,1,.83,1.7l.59,1.79,1.17,3.57c.37,1.19.82,2.37,1.24,3.55s.81,2.4,1.31,3.48l0,0a.15.15,0,1,1-.28.13h0A37.51,37.51,0,0,1,52.58,85c-.41-1.19-.84-2.35-1.2-3.56L50.25,77.8,49.67,76a14.29,14.29,0,0,0-.8-1.68c-.29-.55-.6-1.1-.89-1.66s-.4-1.2-.64-1.77a17.53,17.53,0,0,0-.75-1.72A10.42,10.42,0,0,1,46,67.39c-.31-1.22-.52-2.46-.79-3.68A5.4,5.4,0,0,0,44.55,62a1.19,1.19,0,0,0-.73-.55C43.49,61.37,43.25,61.69,43.16,62Z"></path>
      <path class="cls-39" d="M50.15,60.69a8.81,8.81,0,0,0-.38,2.8c0,1.58-1.15.19-1.3,2.37s.25,1.65-.08,2.44-.64.94.15,1,1.21-.51,1.89.18,1.78,1.62,2.41,1.63a5.1,5.1,0,0,0,2.68-1.54"></path>
      <path class="cls-39" d="M49.4,69.18a2.08,2.08,0,0,1,1,1.12,5.94,5.94,0,0,1,.76,2.81c-.12,1-1,4.09-.17,6.62"></path>
      <path class="cls-39" d="M50.8,69.83a7.86,7.86,0,0,0,1.49,2.47c.82.73,1,.46,1.76,1.63s1.81,2.55,1.42,3.58a3,3,0,0,1-1.95,1.58c-.22,0,.18-.14.71.72s2.2.82,1.74,3.43-1.23,2.65-.78,4,.53,3.66,1.24,5.13"></path>
      <path class="cls-21" d="M60.13,84s0,0,0,0a.43.43,0,0,0-.16.13,2.74,2.74,0,0,0-.3.43c-.18.32-.33.66-.48,1a8.86,8.86,0,0,1-.5,1,3,3,0,0,1-.35.47c-.12.15-.29.26-.35.39a13.08,13.08,0,0,0,0,2.18,12.74,12.74,0,0,0,0,2.23,19.47,19.47,0,0,0,1.41,4.23A18.42,18.42,0,0,1,60,98.24a11.55,11.55,0,0,0,.73,2.12A12.1,12.1,0,0,1,60,98.25a17.71,17.71,0,0,0-.64-2.15,19.61,19.61,0,0,1-1.5-4.24,11.31,11.31,0,0,1-.06-2.25c0-.37,0-.74-.06-1.12a2.94,2.94,0,0,1,.06-1.17,2.56,2.56,0,0,1,.38-.45,2.32,2.32,0,0,0,.31-.44,7.62,7.62,0,0,0,.46-1c.15-.35.3-.69.48-1a2.54,2.54,0,0,1,.33-.5.65.65,0,0,1,.27-.21.33.33,0,0,1,.44.17.14.14,0,0,1-.09.18.15.15,0,0,1-.13,0Z"></path>
      <path class="cls-21" d="M60.05,92c.11,0,0,0,0,.12a1.46,1.46,0,0,0,0,.31,3.94,3.94,0,0,0,0,.68c.05.46.13.92.22,1.38.19.91.43,1.82.67,2.72s.46,1.82.67,2.74a18.58,18.58,0,0,1,.5,2.76,20,20,0,0,0-.57-2.75c-.24-.9-.5-1.8-.76-2.7s-.53-1.81-.74-2.72c-.11-.46-.2-.92-.27-1.4a5.52,5.52,0,0,1-.06-.72,1.76,1.76,0,0,1,0-.38.57.57,0,0,1,.09-.22.3.3,0,0,1,.34-.12.16.16,0,0,1,.08.21A.17.17,0,0,1,60.05,92Z"></path>
      <path class="cls-41" d="M53.52,79.09a19.5,19.5,0,0,0,2.13-.53c.77-.28,1.3.22,1.36,1.72s-.06,1.1.52,1.83.11.12.51,1.74.54,1.8.6,2.08"></path>
      <path class="cls-40" d="M56.05,82.39a12.37,12.37,0,0,0,.73,3.6,26.94,26.94,0,0,1,1,5.27"></path>
      <path class="cls-42" d="M39,57.9a18,18,0,0,0-3.47-2.64c-1.41-.66-1.89-1.86-2.44-2.08A14.5,14.5,0,0,0,30,52.59c-.74,0-1.07-.75-1.3-.88"></path>
      <path class="cls-43" d="M56.05,117.19a1.34,1.34,0,0,0-1.3-.48c-.73.22-1,.79-.89,1a3.4,3.4,0,0,0,.27.27c.18.18.56-.32.58-.33Z"></path>
      <path class="cls-9" d="M56.43,118.06s-.23-1-.6-1S55,117,55,117l-.1.18s.36.65.51.7l.5.15C56,118,56.43,118.06,56.43,118.06Z"></path>
      <path class="cls-10" d="M56.4,118.18c0-.09.09-.31-.14-.38a3.5,3.5,0,0,0-.48-.1s-.59.45-.71.52-.2.06.15.16.33.19.64.15A.9.9,0,0,0,56.4,118.18Z"></path>
      <path class="cls-11" d="M55.78,117.7a4.06,4.06,0,0,0-.44.42c-.17.21-.2.27-.41.17s-.75-.19-.89-.39-.13-.19,0-.44a1.06,1.06,0,0,1,.7-.42.62.62,0,0,1,.69.15A1.66,1.66,0,0,1,55.78,117.7Z"></path>
      <path class="cls-43" d="M40.38,105.58a2,2,0,0,0-2-.29c-1,.55-1.2,1.45-1,1.71a4.11,4.11,0,0,0,.47.32c.31.19.71-.65.73-.65Z"></path>
      <path class="cls-9" d="M41.19,106.72s-.63-1.35-1.16-1.25a11.54,11.54,0,0,1-1.16.14l-.09.29s.72.82.95.85.65,0,.75.06A5.22,5.22,0,0,0,41.19,106.72Z"></path>
      <path class="cls-10" d="M41.19,106.9c0-.13,0-.47-.33-.5a5,5,0,0,0-.72,0s-.71.83-.85,1-.26.15.26.19.54.17,1,0A1.35,1.35,0,0,0,41.19,106.9Z"></path>
      <path class="cls-11" d="M40.14,106.4a5.87,5.87,0,0,0-.49.75c-.18.34-.21.44-.54.35s-1.13,0-1.39-.28-.26-.22-.08-.63a1.61,1.61,0,0,1,.87-.83.9.9,0,0,1,1,0A2.27,2.27,0,0,1,40.14,106.4Z"></path>
      <path class="cls-43" d="M49.08,106.59s-4.17-2.08-7.08.46-3.06,5.8-2.06,6.5a12.13,12.13,0,0,0,1.83.73c1.2.45,1.95-2.69,2-2.73S49.08,106.59,49.08,106.59Z"></path>
      <path class="cls-9" d="M52.64,109.88s-3.09-4.14-4.86-3.42A40.11,40.11,0,0,1,44,107.77l-.12,1.06s3,2.26,3.85,2.19,2.25-.33,2.6-.34A17.34,17.34,0,0,0,52.64,109.88Z"></path>
      <path class="cls-10" d="M52.76,110.51c0-.46-.21-1.65-1.46-1.48a17.86,17.86,0,0,0-2.45.52s-1.82,3.31-2.23,3.88-.78.69,1,.46,2,.19,3.33-.64A4.71,4.71,0,0,0,52.76,110.51Z"></path>
      <path class="cls-11" d="M48.85,109.55a21.52,21.52,0,0,0-1.14,2.88c-.38,1.31-.4,1.67-1.59,1.61s-3.87.71-4.94,0-1-.58-.72-2.1,1-2.24,2.36-3.42a3.09,3.09,0,0,1,3.53-.74A8,8,0,0,1,48.85,109.55Z"></path>
      <path class="cls-43" d="M63.49,107.46s-3.49-2.06-6.17,0-3,4.86-2.18,5.53a11.89,11.89,0,0,0,1.54.74c1,.46,1.85-2.22,1.92-2.25S63.49,107.46,63.49,107.46Z"></path>
      <path class="cls-9" d="M66.38,110.53s-2.43-3.78-4-3.26a34.92,34.92,0,0,1-3.4.91l-.17.91s2.51,2.15,3.21,2.13,2-.15,2.29-.13A15.56,15.56,0,0,0,66.38,110.53Z"></path>
      <path class="cls-10" d="M66.45,111.09c0-.41-.08-1.44-1.17-1.38a16,16,0,0,0-2.17.31s-1.78,2.76-2.16,3.23-.72.56.86.46,1.69.28,2.93-.35A4.1,4.1,0,0,0,66.45,111.09Z"></path>
      <path class="cls-11" d="M63.11,110A19.16,19.16,0,0,0,62,112.45c-.41,1.11-.44,1.43-1.47,1.3s-3.41.38-4.3-.27-.85-.57-.5-1.87a4.81,4.81,0,0,1,2.26-2.82,2.7,2.7,0,0,1,3.11-.44A7,7,0,0,1,63.11,110Z"></path>
      <path class="cls-43" d="M72.75,103.77s-3.45-2.66-6.57-.86-3.85,4.77-3.07,5.59a12.07,12.07,0,0,0,1.55,1c1,.63,2.27-2.11,2.34-2.14S72.75,103.77,72.75,103.77Z"></path>
      <path class="cls-9" d="M75.42,107.43s-2.09-4.36-3.84-4a37.27,37.27,0,0,1-3.73.51l-.3.94s2.38,2.63,3.13,2.71,2.13.1,2.45.16A17,17,0,0,0,75.42,107.43Z"></path>
      <path class="cls-10" d="M75.41,108c0-.43.11-1.55-1.06-1.62a16.72,16.72,0,0,0-2.35,0s-2.27,2.71-2.74,3.16-.84.49.86.6,1.76.53,3.17,0A4.34,4.34,0,0,0,75.41,108Z"></path>
      <path class="cls-11" d="M72,106.44a20.29,20.29,0,0,0-1.56,2.43c-.58,1.14-.67,1.47-1.75,1.19s-3.67,0-4.53-.86-.83-.72-.29-2.06,1.32-1.87,2.79-2.7a2.9,2.9,0,0,1,3.37,0A7.56,7.56,0,0,1,72,106.44Z"></path>
      <path class="cls-43" d="M75.42,114.92a2.11,2.11,0,0,0,1.92-1c.51-1,.18-2-.18-2a3,3,0,0,0-.59,0c-.39,0-.23,1-.25,1S75.42,114.92,75.42,114.92Z"></path>
      <path class="cls-9" d="M74.06,114.41s1.33.8,1.74.39.91-.8.91-.8l-.09-.31a4.06,4.06,0,0,0-1.32-.16c-.22.11-.59.35-.69.39A6,6,0,0,0,74.06,114.41Z"></path>
      <path class="cls-10" d="M74,114.25c.07.13.25.43.58.25a6.25,6.25,0,0,0,.62-.43s.12-1.13.17-1.34.13-.28-.34,0-.57.18-.85.57A1.37,1.37,0,0,0,74,114.25Z"></path>
      <path class="cls-11" d="M75.15,114.07a6.25,6.25,0,0,0,0-.93c0-.41-.08-.51.26-.63s1-.65,1.36-.58.35,0,.45.5a1.7,1.7,0,0,1-.26,1.22.93.93,0,0,1-.9.61A2.33,2.33,0,0,1,75.15,114.07Z"></path>
      <path class="cls-43" d="M42.6,115.66a2.67,2.67,0,0,0,2.52-1c.75-1.28.4-2.48,0-2.62a7.2,7.2,0,0,0-.75,0c-.5,0-.38,1.22-.4,1.24S42.6,115.66,42.6,115.66Z"></path>
      <path class="cls-9" d="M40.9,114.9s1.64,1.12,2.19.64a14.76,14.76,0,0,1,1.23-.94l-.09-.4a5.25,5.25,0,0,0-1.67-.32c-.28.12-.78.39-.9.44A6.42,6.42,0,0,0,40.9,114.9Z"></path>
      <path class="cls-10" d="M40.78,114.68c.07.17.28.58.71.36a6.21,6.21,0,0,0,.83-.49s.26-1.43.34-1.68.19-.35-.43,0-.74.17-1.14.64A1.83,1.83,0,0,0,40.78,114.68Z"></path>
      <path class="cls-11" d="M42.32,114.55a7.38,7.38,0,0,0,.06-1.18c0-.53-.06-.66.38-.78s1.32-.74,1.8-.62.44.09.52.68a2.19,2.19,0,0,1-.44,1.53,1.22,1.22,0,0,1-1.2.7A3,3,0,0,1,42.32,114.55Z"></path>
      <path class="cls-43" d="M54.14,109.07a1.55,1.55,0,0,0,1.56.27c.76-.4,1-1.1.79-1.3a2.45,2.45,0,0,0-.36-.25c-.24-.16-.56.48-.58.48Z"></path>
      <path class="cls-9" d="M53.55,108.17s.45,1.06.87,1,.89-.08.89-.08l.08-.22s-.54-.65-.71-.68-.51,0-.59-.06A3.69,3.69,0,0,0,53.55,108.17Z"></path>
      <path class="cls-10" d="M53.55,108c0,.1,0,.37.24.4a3.6,3.6,0,0,0,.56,0s.57-.62.68-.72.21-.11-.2-.16-.41-.14-.75,0A1.06,1.06,0,0,0,53.55,108Z"></path>
      <path class="cls-11" d="M54.35,108.44a4.86,4.86,0,0,0,.4-.56c.15-.27.17-.34.42-.27s.88,0,1.07.25.2.18,0,.5a1.2,1.2,0,0,1-.69.61.68.68,0,0,1-.8,0A1.76,1.76,0,0,1,54.35,108.44Z"></path>
      <path class="cls-43" d="M68.18,115s3.91,1,5.88-1.75,1.46-5.48.48-5.88a10.54,10.54,0,0,0-1.67-.26c-1.1-.15-1.13,2.64-1.18,2.69S68.18,115,68.18,115Z"></path>
      <path class="cls-9" d="M64.55,112.91s3.4,2.89,4.75,1.94,3-1.84,3-1.84l-.1-.91s-3-1.32-3.67-1.1-1.83.71-2.13.78A16,16,0,0,0,64.55,112.91Z"></path>
      <path class="cls-10" d="M64.32,112.4c.13.38.5,1.35,1.52,1a16.32,16.32,0,0,0,2-.91s.9-3.15,1.13-3.7.52-.74-1-.19-1.69.22-2.68,1.18A4.06,4.06,0,0,0,64.32,112.4Z"></path>
      <path class="cls-11" d="M67.81,112.46a18.31,18.31,0,0,0,.4-2.65c.07-1.18,0-1.48,1-1.66s3.13-1.34,4.16-1,1,.3,1,1.64-.41,2.07-1.33,3.33a2.71,2.71,0,0,1-2.84,1.31A7,7,0,0,1,67.81,112.46Z"></path>
      <path class="cls-43" d="M50.12,112.73s2.35,1.33,4.11-.06,1.93-3.26,1.37-3.7a7.47,7.47,0,0,0-1-.47c-.68-.29-1.21,1.5-1.25,1.52S50.12,112.73,50.12,112.73Z"></path>
      <path class="cls-9" d="M48.16,110.73s1.67,2.48,2.71,2.11,2.24-.64,2.24-.64l.1-.61s-1.69-1.39-2.16-1.37-1.31.12-1.52.11A12,12,0,0,0,48.16,110.73Z"></path>
      <path class="cls-10" d="M48.11,110.37c0,.26.07.95.8.89a10.94,10.94,0,0,0,1.43-.23s1.15-1.86,1.4-2.18.47-.38-.58-.29-1.13-.17-1.95.27A2.73,2.73,0,0,0,48.11,110.37Z"></path>
      <path class="cls-11" d="M50.34,111a11.58,11.58,0,0,0,.74-1.63c.26-.75.28-1,1-.88s2.26-.3,2.86.12.57.36.36,1.23a3.18,3.18,0,0,1-1.47,1.91,1.8,1.8,0,0,1-2.06.33A4.65,4.65,0,0,1,50.34,111Z"></path>
    </g>
  </g>
</svg>
