<?xml version="1.0" encoding="UTF-8"?>
<svg xmlns="http://www.w3.org/2000/svg" xmlns:xlink="http://www.w3.org/1999/xlink" viewBox="0 0 110.57 215.2">
  <defs>
    <style>.cls-1,.cls-20{fill:none;}.cls-2{fill:#956d4b;}.cls-3{clip-path:url(#clip-path);}.cls-4{fill:url(#Безымянный_градиент_2);}.cls-5{fill:#754120;}.cls-6{fill:#44281c;}.cls-7{fill:#6c3c1d;}.cls-8{fill:#714d31;}.cls-9{fill:#613822;}.cls-10{fill:#7f5637;}.cls-11{fill:#a07850;}.cls-12{fill:#faf7cd;}.cls-13{fill:#e7bf96;}.cls-14{fill:#f5daa5;}.cls-15{fill:#d3b473;}.cls-16{fill:#8b5b3c;}.cls-17{fill:#8cb63c;}.cls-18{fill:#559d42;}.cls-19{fill:#6eaa41;}.cls-20{stroke:#6eaa41;stroke-linecap:round;stroke-linejoin:round;stroke-width:0.72px;}.cls-21{fill:#613922;}</style>
    <clipPath id="clip-path">
      <polygon class="cls-1" points="7.92 186.52 57.88 210.04 104.11 186.63 56.05 166.27 7.92 186.52"></polygon>
    </clipPath>
    <linearGradient id="Безымянный_градиент_2" x1="-3350.33" y1="-392.68" x2="-3347.53" y2="-392.68" gradientTransform="matrix(34.36, 0, 0, -34.36, 115101.26, -13302.77)" gradientUnits="userSpaceOnUse">
      <stop offset="0" stop-color="#a17551"></stop>
      <stop offset="0.38" stop-color="#a17551"></stop>
      <stop offset="0.89" stop-color="#7a4928"></stop>
      <stop offset="1" stop-color="#72401f"></stop>
    </linearGradient>
  </defs>
  <g id="Слой_2" data-name="Слой 2">
    <g id="Слой_1-2" data-name="Слой 1">
      <path class="cls-2" d="M57.88,143.88s9.63,11.3,17.06,11.77,32.81-7.57,32.81-7.57l2.56-26.43L57.88,103.16Z"></path>
      <path class="cls-2" d="M.19,119.78l5.23,34.47S24,157,27.25,156.12s18.12-6.51,22.3-6.51,8.33-5.73,8.33-5.73V103.16Z"></path>
      <g class="cls-3">
        <rect class="cls-4" x="31.58" y="138.96" width="48.87" height="98.4" transform="translate(-134.88 233.99) rotate(-86.92)"></rect>
      </g>
      <path class="cls-5" d="M7.92,186.52l-2.5-32.26s23.69-.47,30.2-3.72,22.26-6.66,22.26-6.66l-1.83,22.4Z"></path>
      <path class="cls-6" d="M41.68,156.26a8.52,8.52,0,0,0-2.83-1.67v0S35.08,153.44,33,156s-1.7,5.29-.77,5.74a11.08,11.08,0,0,0,1.63.34l.1,0a29.92,29.92,0,0,0,3.5-.8,1.62,1.62,0,0,0,.61-.16c.17,0,.35-.09.65-.19,1.48-.46,1.66-.12,2.69-1a4,4,0,0,0,1.08-2.55l-.21-.5h0l0,0a1,1,0,0,0-.59-.5"></path>
      <path class="cls-6" d="M21.4,159.59a10.76,10.76,0,0,0-4,1.32v0s-4.3,2.7-3.59,6.85,3.66,6.13,4.88,5.6a14.71,14.71,0,0,0,1.71-1.28l0-.14c.92-1,1.6-3.16,2.21-4a2.27,2.27,0,0,0,.36-.72c.1-.2.21-.42.37-.79.81-1.81,1.28-1.71,1.29-3.45a5.09,5.09,0,0,0-1.54-3.21,3.4,3.4,0,0,0-.65-.23v0h-.07a1.26,1.26,0,0,0-1,.14"></path>
      <path class="cls-7" d="M57.88,143.88l-1.83,22.39,48.06,20.37,3.64-38.56s-15-1.72-21.48-.8S68.44,151,65,149.15a44.84,44.84,0,0,1-7.15-5.27"></path>
      <path class="cls-6" d="M39.58,166.89a3.29,3.29,0,0,0-1.25-.31h0a2.31,2.31,0,0,0-2,1.18c-.49,1.19,0,2.18.35,2.24l.65-.05,0,0a10.59,10.59,0,0,0,1.23-.69l.21-.13L39,169c.5-.34.61-.23.89-.68a1.52,1.52,0,0,0,.12-1.08l-.13-.16h0Z"></path>
      <path class="cls-6" d="M86.66,157.25a2.27,2.27,0,0,0-.11-.89h0s-.38-1-1.27-1-1.43.5-1.37.78l.2.41h0l.75.63.14.1.14.11c.35.25.31.34.67.41a1.06,1.06,0,0,0,.73-.18l.07-.13h0Z"></path>
      <path class="cls-6" d="M100.09,173.43a10.93,10.93,0,0,0-1.91-3.81h0s-3.31-3.91-7.35-2.6-5.6,4.54-4.89,5.68a14.54,14.54,0,0,0,1.53,1.53h.13c1.19.77,3.39,1.14,4.37,1.62a2.18,2.18,0,0,0,.77.25c.22.08.45.15.84.26,1.94.54,1.9,1,3.64.79a5.15,5.15,0,0,0,3-2,3.27,3.27,0,0,0,.13-.69h0v-.07a1.31,1.31,0,0,0-.28-1"></path>
      <path class="cls-6" d="M74,160.15a8.37,8.37,0,0,0-1.87,2.69v0s-1.4,3.66,1,5.89,5.11,2.09,5.62,1.19a10.66,10.66,0,0,0,.46-1.59l0-.09a27.58,27.58,0,0,0-.52-3.53,1.7,1.7,0,0,0-.11-.61c0-.17-.07-.36-.14-.66-.34-1.5,0-1.66-.81-2.74a3.92,3.92,0,0,0-2.44-1.26l-.51.16h0l0,0a1,1,0,0,0-.54.54"></path>
      <path class="cls-8" d="M74.15,187.53a1.59,1.59,0,0,0,1.57-.42c.54-.7.43-1.43.17-1.55l-.44-.08c-.29,0-.32.69-.33.7Z"></path>
      <path class="cls-9" d="M73.21,187s.88.79,1.24.55.8-.47.8-.47l0-.24-1-.32-.57.19Z"></path>
      <path class="cls-10" d="M73.15,186.81c0,.1.12.36.4.27a3.87,3.87,0,0,0,.53-.23l.32-1c.07-.15.15-.19-.25-.06s-.45,0-.72.29a1.07,1.07,0,0,0-.28.69"></path>
      <path class="cls-11" d="M74.08,186.85a4.37,4.37,0,0,0,.12-.69c0-.31,0-.39.29-.43s.83-.33,1.1-.23.26.09.26.44a1.23,1.23,0,0,1-.38.87.7.7,0,0,1-.76.32,1.61,1.61,0,0,1-.63-.28"></path>
      <path class="cls-8" d="M63.47,181.4s2.39.13,3.24-1.67.26-3.36-.36-3.49a7.46,7.46,0,0,0-1,0c-.65,0-.37,1.67-.39,1.7Z"></path>
      <path class="cls-9" d="M61.12,180.58s2.3,1.32,3,.61,1.53-1.4,1.53-1.4l-.16-.52a7.22,7.22,0,0,0-2.26-.24c-.37.19-1,.61-1.16.69Z"></path>
      <path class="cls-10" d="M60.93,180.3c.11.21.44.74,1,.4a8.38,8.38,0,0,0,1-.75s.19-1.93.26-2.28.23-.49-.58,0-1,.31-1.44,1a2.38,2.38,0,0,0-.28,1.65"></path>
      <path class="cls-11" d="M63,180a10.92,10.92,0,0,0,0-1.58c-.09-.7-.15-.88.42-1.09s1.68-1.13,2.33-1,.6.07.77.85a2.85,2.85,0,0,1-.42,2.09,1.58,1.58,0,0,1-1.51,1.07A4,4,0,0,1,63,180"></path>
      <path class="cls-8" d="M53.51,189.17s1.87,1.41,3.54.43,2.05-2.58,1.62-3a6.4,6.4,0,0,0-.83-.53c-.56-.33-1.22,1.15-1.25,1.16Z"></path>
      <path class="cls-9" d="M52.06,187.22s1.14,2.32,2.08,2.13,2-.29,2-.29l.15-.51s-1.29-1.4-1.69-1.44-1.15-.05-1.32-.07Z"></path>
      <path class="cls-10" d="M52.06,186.89c0,.23-.05.83.58.87a10.13,10.13,0,0,0,1.26,0L55.36,186c.25-.24.45-.27-.47-.32s-1-.27-1.7,0a2.4,2.4,0,0,0-1.13,1.19"></path>
      <path class="cls-11" d="M53.9,187.73a10.69,10.69,0,0,0,.83-1.32c.31-.61.35-.79.93-.64s2,0,2.44.44.45.38.17,1.11a2.77,2.77,0,0,1-1.49,1.46,1.54,1.54,0,0,1-1.81,0,4.06,4.06,0,0,1-1.07-1.09"></path>
      <path class="cls-8" d="M49.22,182.73a2.68,2.68,0,0,0,.09-2.73c-.86-1.2-2.1-1.39-2.41-1l-.35.67c-.21.44,1,.85,1,.88Z"></path>
      <path class="cls-9" d="M47.82,184s1.7-1,1.49-1.73a15.08,15.08,0,0,1-.35-1.51l-.4-.09s-1,1.08-1,1.4,0,.87,0,1Z"></path>
      <path class="cls-10" d="M47.58,184c.18,0,.64,0,.62-.5a6,6,0,0,0-.11-1l-1.4-1c-.2-.18-.23-.32-.21.38s-.15.74.12,1.3a1.8,1.8,0,0,0,1,.78"></path>
      <path class="cls-11" d="M48.09,182.53A7.93,7.93,0,0,0,47,182c-.48-.2-.62-.22-.55-.68s-.12-1.51.18-1.89.26-.37.83-.19a2.12,2.12,0,0,1,1.22,1,1.18,1.18,0,0,1,.14,1.38,3,3,0,0,1-.76.89"></path>
      <path class="cls-8" d="M40.75,184.74a1.15,1.15,0,0,0,.39-1.11c-.21-.61-.7-.85-.87-.74l-.23.23.29.49Z"></path>
      <path class="cls-9" d="M40,185.08s.84-.21.84-.53a5.52,5.52,0,0,1,0-.67l-.16-.08-.58.44-.12.43Z"></path>
      <path class="cls-10" d="M39.91,185.06l.32-.13.08-.41-.45-.6c-.06-.09-.06-.16-.14.13s-.15.29-.12.55a.8.8,0,0,0,.31.46"></path>
      <path class="cls-11" d="M40.31,184.52l-.37-.36-.15-.35.32-.76.37,0a.89.89,0,0,1,.37.58.52.52,0,0,1-.11.6Z"></path>
      <path class="cls-8" d="M38.15,189.42s1.64-2.64.14-4.73-3.66-2.39-4.19-1.77a8.24,8.24,0,0,0-.6,1.17c-.37.77,1.66,1.45,1.69,1.5Z"></path>
      <path class="cls-9" d="M35.75,191.57s2.94-1.8,2.57-3a26.06,26.06,0,0,1-.64-2.61L37,185.8s-1.69,1.88-1.69,2.42.08,1.52.06,1.75Z"></path>
      <path class="cls-10" d="M35.32,191.61c.31,0,1.1,0,1.08-.87a11.34,11.34,0,0,0-.2-1.66s-2.08-1.42-2.43-1.72-.41-.56-.37.65-.25,1.29.22,2.25a3.11,3.11,0,0,0,1.7,1.35"></path>
      <path class="cls-11" d="M36.2,189.07a14.53,14.53,0,0,0-1.83-.93c-.85-.33-1.09-.36-1-1.15s-.22-2.61.29-3.28.45-.64,1.44-.35a3.69,3.69,0,0,1,2.12,1.78,2.09,2.09,0,0,1,.28,2.39,5.2,5.2,0,0,1-1.32,1.54"></path>
      <path class="cls-12" d="M57.68,161.19a13.9,13.9,0,0,0-7.13,3.54,14.14,14.14,0,0,1,7-3.95Z"></path>
      <path class="cls-12" d="M57.77,161.16a11.59,11.59,0,0,0,2.92,2.16,12.07,12.07,0,0,1-3.2-1.85Z"></path>
      <path class="cls-12" d="M57.79,163.38a20.34,20.34,0,0,1-4.46,4,20.06,20.06,0,0,0,4.23-4.15Z"></path>
      <path class="cls-12" d="M57.64,159.21A11.9,11.9,0,0,0,62.42,162a12.2,12.2,0,0,1-5.06-2.43Z"></path>
      <path class="cls-12" d="M57.7,154.1a7.39,7.39,0,0,1,2.63,2,11.81,11.81,0,0,0,1,1.3,1.11,1.11,0,0,0,.69.34c.26,0,.59-.05.78.18-.21-.21-.51-.12-.78-.13a1.18,1.18,0,0,1-.77-.3,13.38,13.38,0,0,1-1.05-1.25,7,7,0,0,0-2.62-1.77Z"></path>
      <path class="cls-12" d="M57.79,152.21a24.15,24.15,0,0,1,3.74,1.12,11.9,11.9,0,0,0,3.76.82,11.85,11.85,0,0,1-3.82-.62,23.8,23.8,0,0,0-3.73-.9Z"></path>
      <path class="cls-12" d="M57.53,145.82c.57.19,1.22.21,1.86.35a4.46,4.46,0,0,1,1.75.81,4.32,4.32,0,0,0-1.79-.6,18.74,18.74,0,0,1-1.93-.15Z"></path>
      <path class="cls-12" d="M57.75,144.84a45.4,45.4,0,0,1,5.27.92,15.62,15.62,0,0,1,4.87,2.14,15.48,15.48,0,0,0-5-1.83,45.75,45.75,0,0,0-5.26-.6Z"></path>
      <path class="cls-12" d="M58.21,140.73q-.45,15.36-.31,30.77-.82-15.36-1.1-30.75Z"></path>
      <path class="cls-13" d="M58.19,140.77q-.44,15.36-.29,30.73c-.55-10.24,0-20.54-.16-30.8Z"></path>
      <path class="cls-12" d="M57.48,145.07A7.21,7.21,0,0,0,54.4,145c-1.06.13-2.11.37-3.17.6l-6.35,1.35,6.27-1.69c1-.28,2.09-.57,3.18-.76a7.57,7.57,0,0,1,3.35,0Z"></path>
      <path class="cls-12" d="M54.64,144.88a18.43,18.43,0,0,1-6.1,2.18,18.4,18.4,0,0,0,5.87-2.53Z"></path>
      <path class="cls-12" d="M54,145a40.1,40.1,0,0,0-6.1-.56,40.92,40.92,0,0,1,6.16.14Z"></path>
      <path class="cls-12" d="M59.36,145.06a14.47,14.47,0,0,1,7.07.52,14.26,14.26,0,0,0-7-.11Z"></path>
      <path class="cls-12" d="M60.58,145.26a14.53,14.53,0,0,0,2.94,2.59A17,17,0,0,0,67,149.67,16.92,16.92,0,0,1,63.41,148a14.47,14.47,0,0,1-3.14-2.49Z"></path>
      <path class="cls-12" d="M57.52,146.8a8.93,8.93,0,0,0-2.25,1c-.72.42-1.43.88-2.12,1.35-1.39,1-2.73,2-4.06,3C50.37,151.06,51.68,150,53,149c.68-.5,1.36-1,2.08-1.45a8.92,8.92,0,0,1,2.32-1.13Z"></path>
      <path class="cls-12" d="M53.56,148.84a27.87,27.87,0,0,0-4.38,1,28.26,28.26,0,0,1,4.37-1.11Z"></path>
      <path class="cls-12" d="M55,148a5.86,5.86,0,0,0-2.5-.19,14.41,14.41,0,0,0-2.5.59,14.08,14.08,0,0,1,2.47-.75,6.15,6.15,0,0,1,2.63,0Z"></path>
      <path class="cls-12" d="M54.15,148.42a11,11,0,0,1-1,3,11.06,11.06,0,0,0,.74-3.05Z"></path>
      <path class="cls-12" d="M57.49,151.41a40.18,40.18,0,0,0-11.58,4.27A40.22,40.22,0,0,1,57.41,151Z"></path>
      <path class="cls-12" d="M51.28,153.18a21.63,21.63,0,0,0-5.75,1A21.18,21.18,0,0,1,51.27,153Z"></path>
      <path class="cls-12" d="M52.83,152.65a38.79,38.79,0,0,0-4.08,3.71,39,39,0,0,1,3.93-3.89Z"></path>
      <path class="cls-12" d="M55.89,151.66a11.14,11.14,0,0,1-2.2,2.14,11.36,11.36,0,0,0,2-2.29Z"></path>
      <path class="cls-12" d="M57.69,152.8a8.49,8.49,0,0,0-5.07,3,8.79,8.79,0,0,1,5-3.45Z"></path>
      <path class="cls-12" d="M60.7,153.05A13.62,13.62,0,0,0,62,154.31a17.26,17.26,0,0,0,1.38,1.16c-.51-.33-1-.7-1.45-1.07a14,14,0,0,1-1.36-1.21Z"></path>
      <polygon class="cls-12" points="59.79 155.62 62.42 156.67 59.72 155.8 59.79 155.62"></polygon>
      <path class="cls-12" d="M57.39,156.58l-4,1.34a16.76,16.76,0,0,0-2,.74A3.52,3.52,0,0,0,49.78,160a3.69,3.69,0,0,1,1.54-1.44,18.63,18.63,0,0,1,2-.84l4-1.53Z"></path>
      <path class="cls-12" d="M55,157.3a12.88,12.88,0,0,1-3.12,2.77,12.78,12.78,0,0,0,3-2.87Z"></path>
      <path class="cls-12" d="M54.4,157.49a14.11,14.11,0,0,0-3-.58,14.44,14.44,0,0,1,3,.4Z"></path>
      <path class="cls-12" d="M57.49,159.67a12,12,0,0,0-6.39,2,12.21,12.21,0,0,1,6.37-2.37Z"></path>
      <ellipse class="cls-14" cx="58.49" cy="147.63" rx="0.74" ry="0.77"></ellipse>
      <path class="cls-15" d="M57.75,147.63a.78.78,0,0,0,1,.66.76.76,0,0,0,.44-.47.49.49,0,0,0-.33-.54h0a.52.52,0,0,1,.38.56.84.84,0,0,1-.46.56.69.69,0,0,1-.73-.1.83.83,0,0,1-.29-.66Z"></path>
      <ellipse class="cls-14" cx="58.17" cy="152.22" rx="0.46" ry="0.48"></ellipse>
      <path class="cls-15" d="M57.72,152.22a.48.48,0,0,0,.59.41.47.47,0,0,0,.28-.29.29.29,0,0,0-.2-.33h0a.33.33,0,0,1,.24.35.54.54,0,0,1-.29.34.45.45,0,0,1-.45-.06.55.55,0,0,1-.18-.41Z"></path>
      <ellipse class="cls-14" cx="60.05" cy="155.53" rx="0.33" ry="0.35"></ellipse>
      <path class="cls-15" d="M59.72,155.53c0,.21.25.38.43.3a.28.28,0,0,0,.2-.21.2.2,0,0,0-.14-.24h0a.24.24,0,0,1,.17.25.35.35,0,0,1-.21.25.29.29,0,0,1-.32,0,.41.41,0,0,1-.14-.3Z"></path>
      <ellipse class="cls-14" cx="56.64" cy="146.61" rx="0.63" ry="0.65"></ellipse>
      <path class="cls-15" d="M57.27,146.61a.66.66,0,0,1-.25.56.58.58,0,0,1-.61.08.7.7,0,0,1-.4-.47.44.44,0,0,1,.33-.47h0a.43.43,0,0,0-.28.45.65.65,0,0,0,.38.41.67.67,0,0,0,.82-.57Z"></path>
      <ellipse class="cls-14" cx="55.58" cy="151.23" rx="0.63" ry="0.65"></ellipse>
      <path class="cls-15" d="M56.21,151.23a.69.69,0,0,1-.25.57.61.61,0,0,1-.61.08.72.72,0,0,1-.4-.47.44.44,0,0,1,.33-.48h0a.42.42,0,0,0-.28.46.65.65,0,0,0,.38.4.67.67,0,0,0,.82-.57Z"></path>
      <ellipse class="cls-14" cx="56.9" cy="156.12" rx="0.53" ry="0.55"></ellipse>
      <path class="cls-15" d="M57.43,156.12a.66.66,0,0,1-.21.48.49.49,0,0,1-.52.06.57.57,0,0,1-.33-.39.37.37,0,0,1,.27-.4h0a.34.34,0,0,0-.24.38.57.57,0,0,0,.32.34.56.56,0,0,0,.69-.48Z"></path>
      <ellipse class="cls-14" cx="57.38" cy="160.67" rx="0.39" ry="0.4"></ellipse>
      <path class="cls-15" d="M57.77,160.67a.43.43,0,0,1-.15.34.37.37,0,0,1-.38.05.45.45,0,0,1-.24-.28.28.28,0,0,1,.2-.3h0a.27.27,0,0,0-.17.28.43.43,0,0,0,.23.25.42.42,0,0,0,.51-.35Z"></path>
      <polygon class="cls-16" points="0 120.08 57.93 145.6 110.57 122.07 57.93 102.49 0 120.08"></polygon>
      <path class="cls-17" d="M59.9,10.75s.78,2.75,15.59,5.79a39.41,39.41,0,0,1-4.33-6.83c-1.45-3.2-7.19-1.3-8.4-.63S59.9,10.75,59.9,10.75Z"></path>
      <path class="cls-18" d="M57.48,14.84s-3-7.61,1.3-7.29,6.19.53,7.84.3,3.53-.34,4.54,1.86c0,0-2.67-3.3-6.52-.31S60.57,14.28,57.48,14.84Z"></path>
      <path class="cls-19" d="M63.42,7.92a3.12,3.12,0,0,0-3.06,1.25,11.27,11.27,0,0,0-1.44,3.17,20.51,20.51,0,0,1-1.63,3.16,21.64,21.64,0,0,1-2.14,2.85.26.26,0,0,1-.38,0,.27.27,0,0,1,0-.39h0A20.49,20.49,0,0,0,57,15.27a19.69,19.69,0,0,0,1.72-3,11.55,11.55,0,0,1,1.58-3.16A3.21,3.21,0,0,1,63.42,7.92Z"></path>
      <path class="cls-17" d="M78.09,41.89s-1.41,2.49-16.52,1.94a40.5,40.5,0,0,0,5.83-5.61c2.16-2.77,7.28.44,8.3,1.37S78.09,41.89,78.09,41.89Z"></path>
      <path class="cls-18" d="M79.47,46.44s4.72-6.68.46-7.39-6.13-.95-7.69-1.57-3.35-1.17-4.84.74c0,0,3.37-2.58,6.4,1.24S76.6,45.16,79.47,46.44Z"></path>
      <path class="cls-19" d="M75.34,38.31a3.19,3.19,0,0,1,2.8,1.88,11.41,11.41,0,0,1,.8,3.44,18.55,18.55,0,0,0,1,3.35,20.6,20.6,0,0,0,1.48,3.15h0a.28.28,0,0,1-.1.37.27.27,0,0,1-.37-.1h0a21,21,0,0,1-1.4-3.28,19.48,19.48,0,0,1-.83-3.45A11.4,11.4,0,0,0,78,40.25,3.13,3.13,0,0,0,75.34,38.31Z"></path>
      <path class="cls-17" d="M62.34,84.05s3-9,11.33-6.46c0,0,3.26,1.59,4.53,3.23s4.21.25,5.45,3.63,4.39,6.47,3.83,7.29S64.28,89,62.34,84.05Z"></path>
      <path class="cls-18" d="M62.29,84.14s2.82-8.41,10.6-6a15.21,15.21,0,0,1,4.24,3c1.18,1.52,3.93.24,5.09,3.39s4.1,6,3.58,6.82S64.11,88.73,62.29,84.14Z"></path>
      <path class="cls-19" d="M64.88,85.81a11.69,11.69,0,0,0,2.27-.45,13.3,13.3,0,0,0,2.18-.89,11.77,11.77,0,0,0,3.71-3,12.06,12.06,0,0,1-3.54,3.28A13,13,0,0,1,65,86.48a.34.34,0,0,1-.11-.67h0Z"></path>
      <path class="cls-19" d="M71.65,88.87a7.56,7.56,0,0,0,2.26-.42,12.4,12.4,0,0,0,2.14-1,15.35,15.35,0,0,0,2-1.33,17.87,17.87,0,0,0,1.77-1.6,20.72,20.72,0,0,1-1.68,1.7,15.74,15.74,0,0,1-1.91,1.45A12.45,12.45,0,0,1,74,88.81a8.27,8.27,0,0,1-2.4.58.26.26,0,0,1-.27-.24.26.26,0,0,1,.24-.28h0Z"></path>
      <path class="cls-19" d="M57.61,82.23a7.44,7.44,0,0,1,4,1,10.43,10.43,0,0,1,1.62,1.23c.5.41,1,.8,1.54,1.16a29,29,0,0,0,7,3.33,65.64,65.64,0,0,0,15.38,2.85,66,66,0,0,1-15.53-2.37,29.67,29.67,0,0,1-7.26-3.18c-.56-.35-1.11-.74-1.64-1.15A9.46,9.46,0,0,0,61.21,84a6.59,6.59,0,0,0-3.5-.79h-.05a.51.51,0,1,1-.07-1Z"></path>
      <path class="cls-17" d="M51.53,84.39s-.91-9.44-9.59-8.85c0,0-3.53.82-5.14,2.13S32.64,77,30.68,80s-5.74,5.31-5.38,6.24S48.53,88.73,51.53,84.39Z"></path>
      <path class="cls-18" d="M51.55,84.49s-.85-8.83-9-8.28a15.26,15.26,0,0,0-4.81,2c-1.5,1.22-3.88-.65-5.72,2.16s-5.37,5-5,5.84S48.74,88.55,51.55,84.49Z"></path>
      <path class="cls-19" d="M48.32,86.49a12.05,12.05,0,0,1-2.19-1.27,13.16,13.16,0,0,1-1.86-1.63,12.06,12.06,0,0,1-2.59-4.12,11.78,11.78,0,0,0,2.82,3.87,12.4,12.4,0,0,0,4,2.51l0,0a.33.33,0,0,1,.2.43.35.35,0,0,1-.43.2Z"></path>
      <path class="cls-19" d="M41.26,87.49a7.56,7.56,0,0,1-2.2-1.1,12.46,12.46,0,0,1-1.85-1.55A15.81,15.81,0,0,1,35.68,83a18.52,18.52,0,0,1-1.26-2,20,20,0,0,0,1.36,2,15.65,15.65,0,0,0,1.61,1.74,12.36,12.36,0,0,0,1.88,1.42,7.64,7.64,0,0,0,2.1.92h0a.26.26,0,0,1-.12.51Z"></path>
      <path class="cls-19" d="M56.22,84.64a6.63,6.63,0,0,0-3.59,0,9.73,9.73,0,0,0-1.74.72A18.53,18.53,0,0,1,49,86.1a28.9,28.9,0,0,1-7.78,1.46,66.32,66.32,0,0,1-15.67-1.18,66,66,0,0,0,15.62.68,29,29,0,0,0,7.57-1.67c.6-.23,1.18-.5,1.76-.78a9.78,9.78,0,0,1,1.85-.83,7.48,7.48,0,0,1,4.17-.1.5.5,0,0,1,.35.62.51.51,0,0,1-.62.36h0Z"></path>
      <path class="cls-18" d="M40,55s-14.29.88-4.89,13.86c0,0,2,2.47,2.32,3.08S37.82,68,40.18,66,45.74,56.69,40,55Z"></path>
      <path class="cls-17" d="M40,55c-5,1.56-5.33,13.93-2.57,16.94.48.53.39-3.89,2.75-5.91S45.74,56.69,40,55Z"></path>
      <path class="cls-19" d="M37.62,72.05a19.33,19.33,0,0,1-1.82-5.28,14.21,14.21,0,0,1,0-5.59,13,13,0,0,1,.37-1.36l.55-1.3a11.74,11.74,0,0,1,1.63-2.31,12.24,12.24,0,0,1,2.11-1.89c.76-.56,1.62-1,2.43-1.45a.22.22,0,0,1,.23.38h0l0,0c-.79.47-1.65.84-2.4,1.37a12.28,12.28,0,0,0-2.08,1.8A11.07,11.07,0,0,0,37,58.65l-.56,1.26A10,10,0,0,0,36,61.23a14,14,0,0,0-.1,5.52A19.44,19.44,0,0,0,37.62,72.05Z"></path>
      <path class="cls-19" d="M38.38,56.58a6.91,6.91,0,0,1,1.78,1,4.88,4.88,0,0,1,1.33,1.5,5.75,5.75,0,0,0-3.2-2.2h0a.16.16,0,0,1-.11-.19.17.17,0,0,1,.2-.11Z"></path>
      <path class="cls-19" d="M36.47,60.26A6.63,6.63,0,0,1,38,62.08a4.3,4.3,0,0,1,.6,2.28,5.11,5.11,0,0,0-2.37-3.81h0a.18.18,0,0,1,0-.25.18.18,0,0,1,.24,0Z"></path>
      <path class="cls-19" d="M36.81,58.32A4.61,4.61,0,0,0,33.14,60a4.24,4.24,0,0,1,1.58-1.42A5.33,5.33,0,0,1,36.81,58a.18.18,0,0,1,.19.17.17.17,0,0,1-.16.19h0Z"></path>
      <path class="cls-19" d="M35.6,62.89a1.14,1.14,0,0,0-.56.28,1.63,1.63,0,0,0-.38.57,3.26,3.26,0,0,0-.21,1.43,3.41,3.41,0,0,1,0-1.49,1.58,1.58,0,0,1,1.05-1.17.2.2,0,0,1,.24.13.19.19,0,0,1-.13.24h0Z"></path>
      <path class="cls-19" d="M56,73.32a36.2,36.2,0,0,0-4.23-9.2A53.13,53.13,0,0,0,45.46,56c-1.24-1.19-2.43-2.45-3.77-3.54-.66-.55-1.3-1.14-2-1.67l-2.08-1.55-1-.77-1.09-.71-2.17-1.43c-1.48-.9-3-1.72-4.51-2.61,1.55.77,3.13,1.51,4.66,2.34l2.26,1.33,1.12.66c.37.24.72.49,1.09.74l2.15,1.49c.71.5,1.38,1.07,2.07,1.61,1.4,1,2.65,2.28,4,3.44a53.39,53.39,0,0,1,6.79,8,37.11,37.11,0,0,1,4.8,9.51.88.88,0,1,1-1.67.53v0Z"></path>
      <path class="cls-19" d="M57.11,69A179.27,179.27,0,0,0,73.45,56.86Q77.35,53.58,81,50c1.22-1.18,2.42-2.39,3.6-3.61l1.76-1.85.86-.94.43-.47a1,1,0,0,1,.58-.35,3.42,3.42,0,0,1-.75,1l-.84,1L85,46.73c-1.15,1.25-2.33,2.49-3.52,3.72Q77.85,54.1,74,57.51A182.38,182.38,0,0,1,57.91,70.18.71.71,0,0,1,57.09,69Z"></path>
      <path class="cls-18" d="M52.06,18.94s-3.69-11.6-17.41,4.64C34.65,23.58,50.87,30.29,52.06,18.94Z"></path>
      <path class="cls-17" d="M52.06,19s-7.53-2.58-17.41,4.63C34.65,23.64,50.87,30.35,52.06,19Z"></path>
      <path class="cls-19" d="M34.65,23.64a23.3,23.3,0,0,1,4.65-3,22.86,22.86,0,0,1,5.23-1.83,18.1,18.1,0,0,1,5.54-.39,19.26,19.26,0,0,1,5.45,1.24.32.32,0,0,1,.2.41.32.32,0,0,1-.41.2h0A18.73,18.73,0,0,0,50,18.92a17.45,17.45,0,0,0-5.44.23,22.35,22.35,0,0,0-5.22,1.66A23.08,23.08,0,0,0,34.65,23.64Z"></path>
      <path class="cls-19" d="M49.67,18.78a4.08,4.08,0,0,0-1.06.78,9.67,9.67,0,0,0-.9,1,15.18,15.18,0,0,0-1.46,2.3,15.56,15.56,0,0,1,1.36-2.38,8.13,8.13,0,0,1,.87-1.07,4.3,4.3,0,0,1,1.09-.88.14.14,0,0,1,.18.05.14.14,0,0,1-.06.18h0Z"></path>
      <path class="cls-19" d="M44,19.22a15.42,15.42,0,0,0-1.88,1.65,7.24,7.24,0,0,0-1.42,2.05,6.89,6.89,0,0,1,1.32-2.14A13.32,13.32,0,0,1,43.88,19a.14.14,0,0,1,.2,0,.15.15,0,0,1,0,.2h0Z"></path>
      <path class="cls-19" d="M46.06,18.58a1.3,1.3,0,0,0-.3-.71,2,2,0,0,0-.65-.53,4.45,4.45,0,0,0-1.68-.48,4.81,4.81,0,0,1,1.75.33,1.88,1.88,0,0,1,1.19,1.38.16.16,0,1,1-.31.06v-.05Z"></path>
      <path class="cls-19" d="M41,19.88a.76.76,0,0,0-.23-.15,1.82,1.82,0,0,0-.3-.11,4.72,4.72,0,0,0-.65-.15c.22,0,.45,0,.67.05a2,2,0,0,1,.33.08.71.71,0,0,1,.34.18.12.12,0,0,1,0,.14.11.11,0,0,1-.14,0h0Z"></path>
      <path class="cls-18" d="M86.2,44.18c.21.22.41.45.6.68,8,6.81,15.79-8.12,15.79-8.12C83.41,33.46,85.68,42.61,86.2,44.18Z"></path>
      <path class="cls-17" d="M86.38,44.38c.15.17.3.33.44.5,8.05,6.86,15.81-8.1,15.81-8.1C91.18,37.58,86.87,43.64,86.38,44.38Z"></path>
      <path class="cls-19" d="M102.63,36.78a22.59,22.59,0,0,0-8.69,2,19.64,19.64,0,0,0-7,5.35.31.31,0,0,1-.45,0,.32.32,0,0,1,0-.45h0a20,20,0,0,1,7.4-5.22A22.69,22.69,0,0,1,102.63,36.78Z"></path>
      <path class="cls-19" d="M87.93,42.5a4.46,4.46,0,0,1,1.41,0,8.68,8.68,0,0,1,1.35.25,16.48,16.48,0,0,1,2.57,1,15.7,15.7,0,0,0-2.6-.82,7.59,7.59,0,0,0-1.34-.19,4.37,4.37,0,0,0-1.31.08h0a.13.13,0,0,1-.16-.09.14.14,0,0,1,.09-.16Z"></path>
      <path class="cls-19" d="M92.58,39.18a14.34,14.34,0,0,1,2.54.19,6.94,6.94,0,0,1,2.39.79,7,7,0,0,0-2.41-.65,13.94,13.94,0,0,0-2.5,0h0a.14.14,0,0,1-.15-.13.14.14,0,0,1,.13-.15Z"></path>
      <path class="cls-19" d="M90.4,40.46a1.84,1.84,0,0,1,0-1.82,4.7,4.7,0,0,1,1.11-1.39,4.79,4.79,0,0,0-1,1.45,2.19,2.19,0,0,0-.16.83,1.39,1.39,0,0,0,.24.74v0a.15.15,0,0,1,0,.22.16.16,0,0,1-.22,0Z"></path>
      <path class="cls-19" d="M95.17,38a.66.66,0,0,1,.13-.36,3.17,3.17,0,0,1,.21-.27,5.32,5.32,0,0,1,.48-.47,4.09,4.09,0,0,0-.4.53,1.56,1.56,0,0,0-.16.28.83.83,0,0,0-.08.26v0a.11.11,0,0,1-.09.11.09.09,0,0,1-.1-.08Z"></path>
      <path class="cls-19" d="M56.2,120.2c.08-4.87.09-9.75.07-14.63l0-14.64c0-9.77,0-19.55.34-29.33.18-4.88.59-9.78.89-14.62a87.46,87.46,0,0,0-.71-14.54c-.66-4.83-1-9.73-2.59-14.33a54.07,54.07,0,0,0-6.52-13,54.31,54.31,0,0,1,7,12.87,39.13,39.13,0,0,1,1.81,7.14c.38,2.42.77,4.83,1.1,7.25a90,90,0,0,1,1,14.68c-.21,4.91-.52,9.74-.6,14.63-.28,9.75-.23,19.5-.13,29.27l.13,14.65c0,4.89-.05,9.77-.16,14.66a.8.8,0,0,1-.8.77A.78.78,0,0,1,56.2,120.2Z"></path>
      <path class="cls-18" d="M50.06,8.69s.48-14.32-13.33-6.2c0,0-2.65,1.74-3.29,2s3.84.75,5.62,3.3S47.8,14.23,50.06,8.69Z"></path>
      <path class="cls-17" d="M50.06,8.69C49,3.58,36.7,2.06,33.44,4.52c-.57.42,3.84.75,5.62,3.3S47.8,14.23,50.06,8.69Z"></path>
      <path class="cls-19" d="M33.28,4.69a17.09,17.09,0,0,1,9-1.17,12,12,0,0,1,4.33,1.55A10.93,10.93,0,0,1,50,8.24a.13.13,0,0,1,0,.18.14.14,0,0,1-.18,0h0a10.85,10.85,0,0,0-3.25-3.15A11.93,11.93,0,0,0,42.3,3.64,17.09,17.09,0,0,0,33.28,4.69Z"></path>
      <path class="cls-19" d="M48.65,6.77a8,8,0,0,1-1.17,1.75,5.12,5.12,0,0,1-1.66,1.26,6.17,6.17,0,0,0,2.63-3.09h0a.1.1,0,0,1,.13,0,.1.1,0,0,1,.06.14Z"></path>
      <path class="cls-19" d="M45.26,4.53a7.17,7.17,0,0,1-2,1.44,4.45,4.45,0,0,1-2.4.47,4.47,4.47,0,0,0,2.37-.54,7.53,7.53,0,0,0,1.94-1.47.08.08,0,0,1,.11,0,.08.08,0,0,1,0,.11Z"></path>
      <path class="cls-19" d="M47.08,5.42a4.84,4.84,0,0,0-1.37-4A4.07,4.07,0,0,1,47,3.21a6,6,0,0,1,.31,2.22c0,.06,0,.1-.09.09a.09.09,0,0,1-.09-.09Z"></path>
      <path class="cls-19" d="M42.73,3.6a1.49,1.49,0,0,0-.85-1.1,3.23,3.23,0,0,0-1.44-.32,3.23,3.23,0,0,1,1.47.26,1.6,1.6,0,0,1,.94,1.15.05.05,0,0,1-.05.07.05.05,0,0,1-.07-.05h0Z"></path>
      <path class="cls-18" d="M62.38,23.46s-6.23-12.9-14.68.72c0,0-1.54,2.76-2,3.32s3.75-1.12,6.52.3S63,29.42,62.38,23.46Z"></path>
      <path class="cls-17" d="M62.38,23.46c-3.33-4-14.91.34-16.66,4-.3.63,3.75-1.12,6.52.3S63,29.42,62.38,23.46Z"></path>
      <path class="cls-19" d="M45.67,27.72A19.1,19.1,0,0,1,49.86,24,14.31,14.31,0,0,1,55,21.91a13.37,13.37,0,0,1,1.4-.17h1.42a11.82,11.82,0,0,1,2.75.64,12.27,12.27,0,0,1,2.55,1.24c.8.48,1.5,1.13,2.26,1.69a.24.24,0,0,1,0,.32.23.23,0,0,1-.32,0h0l0,0c-.73-.56-1.4-1.2-2.18-1.69a12,12,0,0,0-2.44-1.25A11.63,11.63,0,0,0,57.82,22l-1.38,0a12.72,12.72,0,0,0-1.37.14,14,14,0,0,0-5.15,2A19.47,19.47,0,0,0,45.67,27.72Z"></path>
      <path class="cls-19" d="M60.27,22.57a6.82,6.82,0,0,1-.24,2,5,5,0,0,1-.9,1.81A5.75,5.75,0,0,0,60,22.6h0a.15.15,0,0,1,.14-.17.16.16,0,0,1,.17.14Z"></path>
      <path class="cls-19" d="M56.14,22.19a6.52,6.52,0,0,1-1.09,2.15,4.38,4.38,0,0,1-1.88,1.42,5.13,5.13,0,0,0,2.63-3.64v0a.18.18,0,0,1,.35.08Z"></path>
      <path class="cls-19" d="M58.07,21.77A4.59,4.59,0,0,0,55.13,19a4.14,4.14,0,0,1,1.92.92,5.39,5.39,0,0,1,1.35,1.71.18.18,0,0,1-.08.24.18.18,0,0,1-.24-.08h0Z"></path>
      <path class="cls-19" d="M53.38,22.38a1.19,1.19,0,0,0-.47-.41,1.91,1.91,0,0,0-.67-.14,3.37,3.37,0,0,0-1.41.35,3.41,3.41,0,0,1,1.4-.54,1.62,1.62,0,0,1,1.47.53.2.2,0,0,1,0,.28.2.2,0,0,1-.27,0l0,0Z"></path>
      <path class="cls-19" d="M57.63,43.6a68.37,68.37,0,0,1,4.06-11.51,60.31,60.31,0,0,1,2.78-5.43c.52-.88,1-1.75,1.62-2.59A14.52,14.52,0,0,1,68,21.67c-.45.93-1.1,1.7-1.61,2.58s-1,1.72-1.54,2.6a59.33,59.33,0,0,0-2.63,5.45Q61,35.09,60.06,38c-.64,1.91-1.23,3.85-1.69,5.8h0a.38.38,0,1,1-.74-.18Z"></path>
      <path class="cls-18" d="M67.11,22.85s-6.26-10.45,15-10C82.11,12.87,76.4,29.47,67.11,22.85Z"></path>
      <path class="cls-17" d="M67.16,22.88s3-7.35,15-10C82.15,12.9,76.45,29.5,67.16,22.88Z"></path>
      <path class="cls-19" d="M82.15,12.9a22.68,22.68,0,0,0-8.5,3.34,21.09,21.09,0,0,0-6.37,6.49.09.09,0,1,1-.15-.09,18.56,18.56,0,0,1,6.43-6.54A23,23,0,0,1,82.15,12.9Z"></path>
      <path class="cls-19" d="M68.45,20.71a4.83,4.83,0,0,1,1.39-.24,8.92,8.92,0,0,1,1.37.06,15,15,0,0,1,2.68.56,14.36,14.36,0,0,0-2.69-.43,8.69,8.69,0,0,0-1.35,0,4.49,4.49,0,0,0-1.29.28h0a.12.12,0,0,1-.17-.07.13.13,0,0,1,.06-.17Z"></path>
      <path class="cls-19" d="M72.57,16.74a14.29,14.29,0,0,1,2.53-.18,7.25,7.25,0,0,1,2.49.43,7,7,0,0,0-2.49-.29,13.8,13.8,0,0,0-2.48.32h0a.14.14,0,0,1-.17-.1.13.13,0,0,1,.11-.17Z"></path>
      <path class="cls-19" d="M70.6,18.34a1.87,1.87,0,0,1-.25-1.81A4.69,4.69,0,0,1,71.26,15a4.42,4.42,0,0,0-.75,1.58,2,2,0,0,0,0,.84,1.41,1.41,0,0,0,.34.69l0,0a.17.17,0,0,1,0,.23.16.16,0,0,1-.22,0Z"></path>
      <path class="cls-19" d="M75,15.23a.69.69,0,0,1,.09-.38,2.19,2.19,0,0,1,.16-.3c.12-.18.26-.36.4-.53-.11.19-.22.38-.32.58s-.08.2-.11.3a.76.76,0,0,0,0,.27v0a.1.1,0,0,1-.07.12.09.09,0,0,1-.11-.07Z"></path>
      <path class="cls-18" d="M68.64,26s6-10.57,16,8.2C84.68,34.24,67.41,37.39,68.64,26Z"></path>
      <path class="cls-17" d="M68.63,26.1s7.9-.93,16,8.2C84.67,34.3,67.4,37.45,68.63,26.1Z"></path>
      <path class="cls-19" d="M84.7,34.32a24.23,24.23,0,0,0-4-3.81,23.29,23.29,0,0,0-4.78-2.78A18.6,18.6,0,0,0,65.11,26.5h0a.23.23,0,1,1-.07-.45h0a19.11,19.11,0,0,1,5.6-.08A18.53,18.53,0,0,1,76,27.52a24.27,24.27,0,0,1,8.71,6.8Z"></path>
      <path class="cls-19" d="M71.16,26.17A4.53,4.53,0,0,1,72,27.26a8.93,8.93,0,0,1,.63,1.23,15.29,15.29,0,0,1,.82,2.62,16,16,0,0,0-.94-2.56,8.55,8.55,0,0,0-.67-1.18,4.39,4.39,0,0,0-.87-1h0a.14.14,0,0,1,0-.18.12.12,0,0,1,.18,0Z"></path>
      <path class="cls-19" d="M76.63,27.82A14.66,14.66,0,0,1,78,29.94a7.05,7.05,0,0,1,.84,2.38,7.21,7.21,0,0,0-1-2.31,14,14,0,0,0-1.49-2h0a.14.14,0,0,1,0-.2.15.15,0,0,1,.2,0Z"></path>
      <path class="cls-19" d="M74.28,26.88a1.87,1.87,0,0,1,1.46-1.1,4.84,4.84,0,0,1,1.78,0,4.6,4.6,0,0,0-1.74.12,2,2,0,0,0-.75.38,1.33,1.33,0,0,0-.45.64v0a.16.16,0,0,1-.2.11.16.16,0,0,1-.11-.19Z"></path>
      <path class="cls-19" d="M79.12,29.16a.73.73,0,0,1,.37-.11,1.93,1.93,0,0,1,.34,0,5,5,0,0,1,.66.09q-.33,0-.66,0l-.32.05a.76.76,0,0,0-.25.1l0,0a.1.1,0,0,1-.13,0,.1.1,0,0,1,0-.14Z"></path>
      <path class="cls-18" d="M31.19,45.06s-1.12-12.13-18,.8C13.19,45.86,27.6,55.89,31.19,45.06Z"></path>
      <path class="cls-17" d="M31.17,45.12s-6.8-4.13-18,.8C13.17,45.92,27.58,56,31.17,45.12Z"></path>
      <path class="cls-19" d="M13.14,45.92A24.16,24.16,0,0,1,18.36,44a22.92,22.92,0,0,1,5.53-.66,18.49,18.49,0,0,1,5.52.81,19.1,19.1,0,0,1,5.06,2.4.23.23,0,0,1,.08.31.23.23,0,0,1-.32.07h0a18.74,18.74,0,0,0-4.9-2.45,18.44,18.44,0,0,0-5.42-.91,23.08,23.08,0,0,0-5.5.55A24.28,24.28,0,0,0,13.14,45.92Z"></path>
      <path class="cls-19" d="M28.89,44.39a4.24,4.24,0,0,0-1.2.53,8.5,8.5,0,0,0-1.1.79,14.59,14.59,0,0,0-1.91,1.94,15.26,15.26,0,0,1,1.83-2,7.55,7.55,0,0,1,1.08-.86,4.38,4.38,0,0,1,1.26-.63.12.12,0,0,1,.15.09.13.13,0,0,1-.08.16h0Z"></path>
      <path class="cls-19" d="M23.3,43.62a14.11,14.11,0,0,0-2.19,1.2,7.09,7.09,0,0,0-1.84,1.7A7.34,7.34,0,0,1,21,44.71a15,15,0,0,1,2.16-1.35.14.14,0,0,1,.13.25Z"></path>
      <path class="cls-19" d="M25.4,43.42a1.32,1.32,0,0,0-.14-.76,2.06,2.06,0,0,0-.52-.66,4.67,4.67,0,0,0-1.54-.83,4.7,4.7,0,0,1,1.64.71,1.84,1.84,0,0,1,.87,1.6.15.15,0,0,1-.17.15.17.17,0,0,1-.15-.17h0Z"></path>
      <path class="cls-19" d="M20.18,43.61s-.11-.14-.19-.2a1.81,1.81,0,0,0-.27-.18,5.46,5.46,0,0,0-.6-.27,4.71,4.71,0,0,1,.64.19,1.73,1.73,0,0,1,.31.14.74.74,0,0,1,.29.25.09.09,0,0,1,0,.13.09.09,0,0,1-.13,0h0Z"></path>
      <path class="cls-18" d="M82.81,53.18S91,44.2,96.67,64.7C96.67,64.7,79.12,64,82.81,53.18Z"></path>
      <path class="cls-17" d="M82.79,53.24s7.92.82,13.86,11.52C96.65,64.76,79.1,64,82.79,53.24Z"></path>
      <path class="cls-19" d="M96.67,64.78a24.1,24.1,0,0,0-3.1-4.6,22.57,22.57,0,0,0-4-3.76,18.24,18.24,0,0,0-4.86-2.56,19,19,0,0,0-5.39-1h0A.23.23,0,0,1,79,52.6a.23.23,0,0,1,.25-.2h0a19.32,19.32,0,0,1,5.48,1.14,18.54,18.54,0,0,1,4.89,2.7,22.9,22.9,0,0,1,4,3.87A23.7,23.7,0,0,1,96.67,64.78Z"></path>
      <path class="cls-19" d="M85.24,53.86a4.65,4.65,0,0,1,.63,1.26,9,9,0,0,1,.34,1.33,15.71,15.71,0,0,1,.22,2.73,14.36,14.36,0,0,0-.35-2.7,9.17,9.17,0,0,0-.39-1.29A4.33,4.33,0,0,0,85.05,54h0a.13.13,0,0,1,.2-.17Z"></path>
      <path class="cls-19" d="M90.22,56.67A14.84,14.84,0,0,1,91.13,59a7.14,7.14,0,0,1,.29,2.51A7.12,7.12,0,0,0,91,59.09a14.66,14.66,0,0,0-1-2.29h0a.16.16,0,0,1,0-.2.16.16,0,0,1,.2.06Z"></path>
      <path class="cls-19" d="M88.13,55.23a1.89,1.89,0,0,1,1.67-.75,4.69,4.69,0,0,1,1.73.43,4.68,4.68,0,0,0-1.73-.27,2,2,0,0,0-.81.21,1.28,1.28,0,0,0-.57.53v0a.17.17,0,0,1-.22.07.17.17,0,0,1-.07-.22Z"></path>
      <path class="cls-19" d="M92.36,58.52a.86.86,0,0,1,.38,0l.33.08a4.29,4.29,0,0,1,.63.23,4.69,4.69,0,0,0-.65-.14l-.32,0a.53.53,0,0,0-.27,0h0a.09.09,0,0,1-.13,0,.1.1,0,0,1,0-.13Z"></path>
      <path class="cls-18" d="M42.56,50s-11.8-3,3.59-17.66C46.15,32.33,53.82,48.12,42.56,50Z"></path>
      <path class="cls-17" d="M42.62,50s-3-7.36,3.59-17.66C46.21,32.32,53.88,48.11,42.62,50Z"></path>
      <path class="cls-19" d="M46.22,32.29a24.19,24.19,0,0,0-2.59,4.9,23.81,23.81,0,0,0-1.39,5.35,18.43,18.43,0,0,0,0,5.5A18.88,18.88,0,0,0,44,53.27h0a.22.22,0,0,1-.12.3.23.23,0,0,1-.3-.11h0A19.07,19.07,0,0,1,42,48.09a18.31,18.31,0,0,1,0-5.58,23.77,23.77,0,0,1,1.52-5.36A24.26,24.26,0,0,1,46.22,32.29Z"></path>
      <path class="cls-19" d="M42,47.53a4.4,4.4,0,0,1,.81-1.15,8.92,8.92,0,0,1,1-.93A14.35,14.35,0,0,1,46.14,44a14,14,0,0,0-2.22,1.59,7.84,7.84,0,0,0-1,1,4.43,4.43,0,0,0-.72,1.1v0a.14.14,0,0,1-.17.07.12.12,0,0,1-.07-.17Z"></path>
      <path class="cls-19" d="M42.13,41.81a14.48,14.48,0,0,1,1.66-1.92,7.29,7.29,0,0,1,2.07-1.45,7.23,7.23,0,0,0-2,1.55,14.72,14.72,0,0,0-1.53,2h0a.15.15,0,0,1-.2.05.16.16,0,0,1,0-.2Z"></path>
      <path class="cls-19" d="M41.85,44.33a1.87,1.87,0,0,1-1.45-1.11A4.75,4.75,0,0,1,40,41.49a4.71,4.71,0,0,0,.58,1.65,2.11,2.11,0,0,0,.57.62,1.31,1.31,0,0,0,.73.25h0a.16.16,0,1,1,0,.32Z"></path>
      <path class="cls-19" d="M42.75,39.05a.66.66,0,0,1-.21-.32,2,2,0,0,1-.09-.33,5,5,0,0,1-.09-.66,6.52,6.52,0,0,0,.18.63,2.08,2.08,0,0,0,.13.3.88.88,0,0,0,.17.22h0a.09.09,0,0,1,0,.13.09.09,0,0,1-.13,0Z"></path>
      <path class="cls-20" d="M75.67,114.25a18.58,18.58,0,0,0-18-11.66"></path>
      <path class="cls-19" d="M61.79,102.26s-3.58,2.06,3.62,7.67,10.26,4.32,10.26,4.32S76.13,99.13,61.79,102.26Z"></path>
      <path class="cls-17" d="M75.44,114.31l.23-.06s.46-15.12-13.88-12a1.79,1.79,0,0,0-.44.41A18.23,18.23,0,0,1,75.44,114.31Z"></path>
      <path class="cls-20" d="M36.41,106.56S45.86,96,57,103.09"></path>
      <path class="cls-19" d="M51.83,101.62s.08-3.46-4.82-3.92-10.75,4.17-11.21,7.54,2.41,3.74,3.66,4.12S51.38,110.37,51.83,101.62Z"></path>
      <path class="cls-17" d="M49,100.67a18.17,18.17,0,0,1,2.68.21c-.28-1-1.26-2.85-4.71-3.18-4.9-.46-10.75,4.17-11.21,7.54a4.47,4.47,0,0,0,0,1.32A18.83,18.83,0,0,1,49,100.67Z"></path>
      <path class="cls-8" d="M59.28,126.42a1.64,1.64,0,0,0-1.58-.58c-.87.27-1.22,1-1.07,1.22a3.14,3.14,0,0,0,.32.33c.22.21.69-.4.71-.4Z"></path>
      <path class="cls-21" d="M59.74,127.48s-.27-1.2-.73-1.21-.95-.08-.95-.08l-.13.22s.44.78.63.84l.59.18A5,5,0,0,0,59.74,127.48Z"></path>
      <path class="cls-10" d="M59.7,127.63c0-.1.12-.38-.17-.46A4.13,4.13,0,0,0,59,127s-.72.55-.86.63-.24.08.18.2.41.23.78.18A1.07,1.07,0,0,0,59.7,127.63Z"></path>
      <path class="cls-11" d="M59,127a5.23,5.23,0,0,0-.53.52c-.2.25-.24.33-.5.2s-.9-.22-1.07-.47-.17-.23,0-.53a1.32,1.32,0,0,1,.85-.51.71.71,0,0,1,.83.18A1.77,1.77,0,0,1,59,127Z"></path>
      <path class="cls-8" d="M36.84,118.27a2.4,2.4,0,0,0-2.44-.35c-1.18.66-1.46,1.76-1.17,2.07a4.28,4.28,0,0,0,.57.38c.38.24.86-.78.88-.79S36.84,118.27,36.84,118.27Z"></path>
      <path class="cls-21" d="M37.82,119.65s-.76-1.63-1.41-1.51-1.39.17-1.39.17l-.12.35s.88,1,1.15,1,.8,0,.92.08A6.88,6.88,0,0,0,37.82,119.65Z"></path>
      <path class="cls-10" d="M37.82,119.87c0-.16,0-.57-.39-.61a6.35,6.35,0,0,0-.88,0s-.86,1-1,1.16-.31.18.32.23.66.2,1.18,0A1.63,1.63,0,0,0,37.82,119.87Z"></path>
      <path class="cls-11" d="M36.55,119.27a7,7,0,0,0-.59.89c-.22.42-.26.55-.66.44s-1.37,0-1.69-.35-.3-.27-.09-.76a2,2,0,0,1,1-1,1.09,1.09,0,0,1,1.26,0A2.8,2.8,0,0,1,36.55,119.27Z"></path>
      <path class="cls-8" d="M52.69,115s-5-2.52-8.58.56-3.7,7-2.49,7.88a15.28,15.28,0,0,0,2.21.88c1.46.54,2.36-3.25,2.45-3.31S52.69,115,52.69,115Z"></path>
      <path class="cls-21" d="M57,119s-3.75-5-5.89-4.14-4.63,1.59-4.63,1.59l-.14,1.27S50,120.48,51,120.4s2.72-.4,3.15-.41A21.4,21.4,0,0,0,57,119Z"></path>
      <path class="cls-10" d="M57.15,119.78c0-.56-.25-2-1.76-1.79a21.08,21.08,0,0,0-3,.63s-2.21,4-2.7,4.7-.94.84,1.25.56,2.38.22,4-.78A5.66,5.66,0,0,0,57.15,119.78Z"></path>
      <path class="cls-11" d="M52.41,118.62A26.72,26.72,0,0,0,51,122.11c-.46,1.59-.48,2-1.92,2s-4.69.86-6,0-1.24-.7-.88-2.54,1.21-2.71,2.87-4.14a3.75,3.75,0,0,1,4.28-.9A9.74,9.74,0,0,1,52.41,118.62Z"></path>
      <path class="cls-8" d="M72.13,116.65s-2.91-4-6.87-3-5.66,4-5.06,5.11a13.17,13.17,0,0,0,1.36,1.57c.91,1,3.12-1.58,3.21-1.59S72.13,116.65,72.13,116.65Z"></path>
      <path class="cls-21" d="M73.88,121.44S73,116.07,71,115.9s-4.21-.61-4.21-.61l-.62.93s1.77,3.59,2.55,3.91,2.28.78,2.61.94A18.48,18.48,0,0,0,73.88,121.44Z"></path>
      <path class="cls-10" d="M73.69,122.09c.18-.45.59-1.64-.65-2.09a18.48,18.48,0,0,0-2.56-.69s-3.31,2.23-4,2.57-1.06.27.75.92,1.74,1.12,3.43,1A5,5,0,0,0,73.69,122.09Z"></path>
      <path class="cls-11" d="M70.48,119.31A22.15,22.15,0,0,0,68,121.46c-1,1.05-1.18,1.38-2.27.75s-4-1.21-4.65-2.36-.67-1,.34-2.32,2-1.61,3.86-2.06a3.27,3.27,0,0,1,3.67,1A8.55,8.55,0,0,1,70.48,119.31Z"></path>
      <path class="cls-8" d="M58.6,118.7s-4.18-3.23-8-1-4.67,5.77-3.71,6.78a14.35,14.35,0,0,0,1.87,1.2c1.24.76,2.75-2.55,2.84-2.59S58.6,118.7,58.6,118.7Z"></path>
      <path class="cls-21" d="M61.83,123.13s-2.53-5.28-4.65-4.86-4.53.63-4.53.63L52.29,120s2.89,3.18,3.8,3.28,2.57.12,3,.19A19.53,19.53,0,0,0,61.83,123.13Z"></path>
      <path class="cls-10" d="M61.82,123.86c.06-.52.13-1.87-1.29-2a20.14,20.14,0,0,0-2.84,0s-2.75,3.28-3.32,3.82-1,.6,1,.73,2.14.64,3.84,0A5.31,5.31,0,0,0,61.82,123.86Z"></path>
      <path class="cls-11" d="M57.69,121.94a24.76,24.76,0,0,0-1.9,2.94c-.7,1.38-.8,1.78-2.11,1.45s-4.46-.07-5.5-1-1-.87-.34-2.5,1.6-2.26,3.38-3.27a3.5,3.5,0,0,1,4.08-.06A9.19,9.19,0,0,1,57.69,121.94Z"></path>
      <path class="cls-8" d="M80.34,126a2.53,2.53,0,0,0,2.32-1.14c.62-1.27.21-2.38-.22-2.48a4.44,4.44,0,0,0-.72,0c-.46,0-.28,1.18-.29,1.2S80.34,126,80.34,126Z"></path>
      <path class="cls-21" d="M78.68,125.41s1.62,1,2.11.47a14.45,14.45,0,0,1,1.1-1l-.1-.37a5.06,5.06,0,0,0-1.61-.2c-.26.13-.71.42-.83.48A7.49,7.49,0,0,0,78.68,125.41Z"></path>
      <path class="cls-10" d="M78.55,125.22c.08.15.3.52.7.29A6.13,6.13,0,0,0,80,125s.15-1.37.21-1.61.16-.35-.41,0-.69.21-1,.68A1.69,1.69,0,0,0,78.55,125.22Z"></path>
      <path class="cls-11" d="M80,125a7.29,7.29,0,0,0,0-1.12c0-.5-.1-.62.31-.77s1.2-.78,1.66-.7.42,0,.54.61a2.06,2.06,0,0,1-.32,1.48,1.13,1.13,0,0,1-1.08.74A2.92,2.92,0,0,1,80,125Z"></path>
      <path class="cls-8" d="M24.66,128.93A2.55,2.55,0,0,0,27,127.78c.62-1.26.21-2.38-.22-2.48-.12,0-.49,0-.72,0-.47,0-.28,1.18-.3,1.21S24.66,128.93,24.66,128.93Z"></path>
      <path class="cls-21" d="M23,128.32s1.62,1,2.11.47,1.1-1,1.1-1l-.1-.37a5.41,5.41,0,0,0-1.61-.2c-.26.14-.71.43-.83.48A7.4,7.4,0,0,0,23,128.32Z"></path>
      <path class="cls-10" d="M22.87,128.12c.08.15.3.53.7.3a6.13,6.13,0,0,0,.75-.52s.15-1.37.21-1.62.16-.34-.41,0-.69.21-1,.68A1.69,1.69,0,0,0,22.87,128.12Z"></path>
      <path class="cls-11" d="M24.32,127.9a7.43,7.43,0,0,0,0-1.13c-.05-.49-.1-.62.31-.76s1.2-.78,1.66-.7.42,0,.54.6a2.06,2.06,0,0,1-.32,1.48,1.13,1.13,0,0,1-1.09.74A3,3,0,0,1,24.32,127.9Z"></path>
      <path class="cls-8" d="M40.56,126.92s2.15.3,3-1.25.49-3-.06-3.18a7.27,7.27,0,0,0-.91,0c-.6,0-.46,1.48-.48,1.51S40.56,126.92,40.56,126.92Z"></path>
      <path class="cls-21" d="M38.51,126s2,1.36,2.64.78,1.49-1.14,1.49-1.14l-.1-.48a6.6,6.6,0,0,0-2-.4c-.34.15-.94.48-1.09.54A7.52,7.52,0,0,0,38.51,126Z"></path>
      <path class="cls-10" d="M38.36,125.74c.09.2.34.69.86.44a8.39,8.39,0,0,0,1-.6s.31-1.73.4-2,.24-.42-.52-.05-.89.21-1.37.78A2.14,2.14,0,0,0,38.36,125.74Z"></path>
      <path class="cls-11" d="M40.23,125.58a10.12,10.12,0,0,0,.07-1.44c0-.63-.08-.79.46-.94s1.6-.89,2.17-.75.54.11.63.82a2.6,2.6,0,0,1-.53,1.86,1.45,1.45,0,0,1-1.45.85A3.62,3.62,0,0,1,40.23,125.58Z"></path>
      <path class="cls-8" d="M52.17,124.67a2,2,0,0,1,1.89-.29c.92.42,1.17,1.17.95,1.39a4.94,4.94,0,0,1-.43.27c-.29.17-.69-.52-.71-.52Z"></path>
      <path class="cls-21" d="M51.44,125.62s.55-1.13,1.06-1.06,1.09.09,1.09.09l.09.24s-.65.69-.87.72-.61,0-.7.07A5.35,5.35,0,0,1,51.44,125.62Z"></path>
      <path class="cls-10" d="M51.45,125.78a.32.32,0,0,1,.29-.43,5.3,5.3,0,0,1,.68,0s.69.66.83.77.25.12-.24.16-.5.16-.92,0A1.19,1.19,0,0,1,51.45,125.78Z"></path>
      <path class="cls-11" d="M52.42,125.34a5.14,5.14,0,0,1,.48.6c.18.28.21.36.52.28s1.06,0,1.3-.27.23-.19.05-.52-.4-.46-.83-.66a.94.94,0,0,0-1,0A2,2,0,0,0,52.42,125.34Z"></path>
      <path class="cls-8" d="M69.21,119.87s-3.92-2.9-7.39-.81-4.2,5.44-3.3,6.34a14.6,14.6,0,0,0,1.75,1.09c1.16.67,2.5-2.42,2.58-2.46S69.21,119.87,69.21,119.87Z"></path>
      <path class="cls-21" d="M72.29,123.91s-2.44-4.83-4.39-4.41-4.18.67-4.18.67l-.31,1.06s2.73,2.89,3.57,3,2.39.07,2.75.13A18.85,18.85,0,0,0,72.29,123.91Z"></path>
      <path class="cls-10" d="M72.3,124.58c0-.48.08-1.73-1.23-1.79a18.89,18.89,0,0,0-2.63.09s-2.48,3.09-3,3.6-.93.58,1,.66,2,.55,3.55,0A5,5,0,0,0,72.3,124.58Z"></path>
      <path class="cls-11" d="M68.44,122.88a22.8,22.8,0,0,0-1.7,2.77c-.63,1.28-.71,1.65-1.93,1.37s-4.12,0-5.1-.86-1-.79-.37-2.3,1.44-2.13,3.06-3.1a3.27,3.27,0,0,1,3.78-.13A8.52,8.52,0,0,1,68.44,122.88Z"></path>
      <path class="cls-8" d="M48.27,124.41s-3.22-.59-4.68,1.69-.92,4.51-.11,4.79a10.46,10.46,0,0,0,1.37.13c.9.06.79-2.19.83-2.24S48.27,124.41,48.27,124.41Z"></path>
      <path class="cls-21" d="M51.31,125.92s-2.9-2.18-3.94-1.34-2.31,1.63-2.31,1.63l.12.73s2.49.92,3,.72,1.45-.66,1.69-.74A12.31,12.31,0,0,0,51.31,125.92Z"></path>
      <path class="cls-10" d="M51.51,126.32c-.12-.3-.46-1.06-1.27-.71a12.83,12.83,0,0,0-1.55.84s-.58,2.58-.74,3-.39.62.79.11,1.35-.26,2.11-1.08A3.31,3.31,0,0,0,51.51,126.32Z"></path>
      <path class="cls-11" d="M48.69,126.45a14.22,14.22,0,0,0-.2,2.16c0,.95.06,1.2-.76,1.39s-2.46,1.24-3.31,1-.8-.19-.9-1.27a3.87,3.87,0,0,1,.92-2.77,2.18,2.18,0,0,1,2.23-1.19A5.59,5.59,0,0,1,48.69,126.45Z"></path>
    </g>
  </g>
</svg>
