<?xml version="1.0" encoding="UTF-8"?>
<svg xmlns="http://www.w3.org/2000/svg" viewBox="0 0 97.83 186.07">
  <defs>
    <style>.cls-1{fill:#a29274;}.cls-2{fill:#e3e0c9;}.cls-3{fill:#fcedce;}.cls-4{fill:#bda885;}.cls-5{fill:#d0c5a6;}.cls-6{fill:#8f8267;}.cls-7{fill:#ab967a;opacity:0.25;}.cls-8{fill:#9b8d71;}.cls-9{fill:#7c705b;}.cls-10{fill:#a5a5a5;}.cls-11{fill:#cacac9;}.cls-12{fill:#817870;}.cls-13{fill:#79a05b;}.cls-14{fill:#779f5a;}.cls-15{fill:#b1c595;}.cls-16{fill:#b3c695;}</style>
  </defs>
  <g id="Слой_2" data-name="Слой 2">
    <g id="Слой_1-2" data-name="Слой 1">
      <polygon class="cls-1" points="48.99 121.71 97.83 100.91 90.51 157.16 48.99 186.07 48.99 121.71"></polygon>
      <polygon class="cls-2" points="48.99 86.85 97.83 100.91 48.99 121.71 0 100.91 48.99 86.85"></polygon>
      <polygon class="cls-3" points="48.99 86.85 0 100.91 0.86 101.28 97.38 100.78 48.99 86.85"></polygon>
      <polygon class="cls-4" points="7.33 157.16 0 100.91 48.99 121.71 48.99 186.07 7.33 157.16"></polygon>
      <path class="cls-5" d="M30.79,101.6a28.15,28.15,0,0,1,2.31-2.46,23.64,23.64,0,0,1,2.7-2.08,26.91,26.91,0,0,1,6.12-3,31.69,31.69,0,0,1,6.66-1.39c1.13-.13,2.26-.11,3.39-.18s2.25.1,3.37.2c-1.12.13-2.24.17-3.35.29s-2.22.23-3.31.46-2.18.37-3.25.67-2.13.58-3.19.9a35.43,35.43,0,0,0-6,2.69A33.51,33.51,0,0,0,30.79,101.6Z"></path>
      <path class="cls-5" d="M22.44,103.58a6.14,6.14,0,0,0,1.93.39c.67.06,1.33.07,2,.07a33.05,33.05,0,0,0,4-.34c2.64-.38,5.24-1,7.91-1.64a22.83,22.83,0,0,1-7.77,2.62,17.38,17.38,0,0,1-4.14.13,11.73,11.73,0,0,1-2.05-.36c-.34-.1-.67-.22-1-.35A2.07,2.07,0,0,1,22.44,103.58Z"></path>
      <path class="cls-5" d="M56.15,115.57a36.18,36.18,0,0,1,4.62-5.84,35.4,35.4,0,0,1,5.68-4.89,25.92,25.92,0,0,1,6.72-3.35c.6-.18,1.23-.29,1.84-.44a9.59,9.59,0,0,1,1.86-.27,16,16,0,0,1,3.73.13,21.48,21.48,0,0,0-7.18,1.31A32.22,32.22,0,0,0,67,105.67a50.08,50.08,0,0,0-5.7,4.6c-.92.82-1.79,1.69-2.64,2.58S57,114.64,56.15,115.57Z"></path>
      <polygon class="cls-6" points="48.99 121.71 97.83 100.91 90.51 157.16 48.99 186.07 48.99 121.71"></polygon>
      <polygon class="cls-7" points="7.33 157.16 0 100.91 48.99 121.71 48.99 186.07 7.33 157.16"></polygon>
      <polygon class="cls-8" points="48.99 186.07 7.33 157.16 49.18 141.34 90.51 157.16 48.99 186.07"></polygon>
      <path class="cls-9" d="M16.18,132.43a14.93,14.93,0,0,1-1.26-8.15,12.89,12.89,0,0,1,3.61-7.55,17.9,17.9,0,0,1,7.19-4.29A30.68,30.68,0,0,1,33.87,111l-2,.42c-.67.15-1.33.34-2,.5s-1.31.38-2,.57-1.28.45-1.91.69a19.55,19.55,0,0,0-6.74,4.25,13.24,13.24,0,0,0-3.57,7,15.45,15.45,0,0,0-.2,4A15.29,15.29,0,0,0,16.18,132.43Z"></path>
      <path class="cls-9" d="M61.7,131.66c.13.2.41.28.62.39l.7.29c.47.18.94.34,1.42.49,1,.31,1.92.59,2.89.86,1.93.53,3.88,1,5.85,1.39,3.93.81,7.91,1.32,11.94,1.79A43.85,43.85,0,0,1,73,136.06a44.65,44.65,0,0,1-5.89-1.62c-1-.34-1.9-.73-2.83-1.16-.46-.22-.91-.45-1.36-.7A3.53,3.53,0,0,1,61.7,131.66Z"></path>
      <path class="cls-9" d="M35.46,128.72a35.82,35.82,0,0,1-3.24,10.8,31.27,31.27,0,0,1-2.94,4.86,18.5,18.5,0,0,1-4.07,3.93,32.39,32.39,0,0,0,3.43-4.38,52,52,0,0,0,2.68-4.85c.81-1.66,1.52-3.37,2.21-5.1S34.86,130.5,35.46,128.72Z"></path>
      <path class="cls-9" d="M50.61,173.49c2-1,4.07-1.74,6.07-2.62s4-1.77,5.94-2.78a39.2,39.2,0,0,0,5.52-3.44,18.31,18.31,0,0,0,2.41-2.16c.35-.42.72-.82,1.06-1.25s.58-.92.88-1.39c-.21.51-.42,1-.66,1.53s-.6.94-.9,1.42a19,19,0,0,1-2.3,2.45A28.38,28.38,0,0,1,63.08,169a47.61,47.61,0,0,1-6.12,2.6c-1.05.36-2.1.7-3.16,1Z"></path>
      <path class="cls-9" d="M27.7,167.31c-2.21-1.06-4.43-2.59-5.45-5.09a4.66,4.66,0,0,1,.32-3.94,9.05,9.05,0,0,1,2.65-2.85A25.27,25.27,0,0,1,32,152.07a51.94,51.94,0,0,1,7.23-1.89c-1.16.46-2.35.81-3.5,1.28s-2.32.87-3.46,1.33a31.2,31.2,0,0,0-6.43,3.44,8.41,8.41,0,0,0-2.43,2.51A4,4,0,0,0,23,162a7.41,7.41,0,0,0,1.9,3A16.49,16.49,0,0,0,27.7,167.31Z"></path>
      <path class="cls-9" d="M72.49,130.52l3.64-5c1.2-1.67,2.37-3.36,3.48-5.08a50.89,50.89,0,0,0,3.06-5.3,17.36,17.36,0,0,0,1.93-5.79,13.19,13.19,0,0,1-1.21,6.11A34.33,34.33,0,0,1,80.45,121,51.71,51.71,0,0,1,72.49,130.52Z"></path>
      <polygon class="cls-10" points="47.2 153.58 47.25 153.49 47.17 153.49 47.2 153.58"></polygon>
      <path class="cls-11" d="M47.68,113.05l2.56.08a6.46,6.46,0,0,1,0,1.24,5.38,5.38,0,0,0,1.64,5c1.25,1.29,1.89,3.18,2.79,4.81a12.13,12.13,0,0,0,8.41,6.32,10,10,0,0,1,1.21.25c.17.05.28.27.41.41-.18.17-.36.47-.54.47a10,10,0,0,1-6.62-2.32,8.68,8.68,0,0,0-5.64-2c-.54.62.05,1.15.2,1.68,1.09,3.78,2.25,7.53,3.35,11.3a9.26,9.26,0,0,1,.06,5.37c-.58-3.56-1-7.15-2.62-10.43a26.35,26.35,0,0,0-2-3.73c-.81.1-.57.63-.6,1a37.53,37.53,0,0,1-2.64,9.87c-.07.17-.44.21-.66.32-.07-.19-.23-.4-.19-.56.39-1.61.81-3.21,1.23-4.81a23.36,23.36,0,0,0,.91-7.63c-.75,0-.9.57-1.09,1a20.12,20.12,0,0,0-2.12,6.46.49.49,0,0,1-.38.27c-.18,0-.47-.22-.47-.35a14.87,14.87,0,0,1,.09-3.34,29.73,29.73,0,0,1,1.43-3.77c.59-1.54,1.21-3.08,1.71-4.66a2.73,2.73,0,0,0-.14-2.47,14.18,14.18,0,0,1-1.59,1.54,5.14,5.14,0,0,0-2.39,5.62c0,.15-.13.34-.23.57-1.51-.69-.64-2.26-1.2-3.28a77.57,77.57,0,0,0-9.16,4.5,9.07,9.07,0,0,0-3,3.88c-.06.13-.34.17-.52.25-.07-.19-.23-.38-.21-.56a5.7,5.7,0,0,1,1.7-3.23A16.58,16.58,0,0,1,36,128.91c2.36-1.3,4.68-2.67,7.05-4,3.45-1.85,4.43-5,4.57-8.57C47.71,115.27,47.1,114.16,47.68,113.05Zm2.74,7.09a6.76,6.76,0,0,0-.07,3.56,2.57,2.57,0,0,0,2.58,2.53,1.18,1.18,0,0,0,.84-.11c.13-.11.12-.56,0-.78-.72-1.35-1.46-2.7-2.25-4A7.54,7.54,0,0,0,50.42,120.14Z"></path>
      <polygon class="cls-3" points="0.86 101.28 48.99 121.71 97.83 100.91 97.38 100.78 0.86 101.28"></polygon>
      <ellipse class="cls-1" cx="50.53" cy="101.89" rx="11.28" ry="4.41"></ellipse>
      <ellipse class="cls-12" cx="50.82" cy="103.38" rx="9.3" ry="3.64"></ellipse>
      <path class="cls-13" d="M46.85,45.82a6.55,6.55,0,0,1,1.18.87c.53.6,1,1.29,1.61,2.18,2.45-6.79,7.12-10.23,14.06-10.42a8.27,8.27,0,0,1,.42-2.35,5.05,5.05,0,0,1,1.65-1.82,16.59,16.59,0,0,1,10.64-2.66.6.6,0,0,1,.48.92c-.27.63-.59,1.25-1,2,1.14.38,2.13.68,3.08,1a12.63,12.63,0,0,1,5.21,3.28c1,1.08,1,1.53.07,2.67-.32.4-.69.76-1.12,1.23.67,1.83,1.37,3.65,2,5.49a26.87,26.87,0,0,1,1.43,9.79c-.07,1.52-.36,2.08-2,1.68a56.19,56.19,0,0,1-8.31-2.56c-.74-.3-1,0-1,.89,0,.21.09.41.11.61.08.66-.27,1-.88,1a31.64,31.64,0,0,1-9.17-1.43,25.27,25.27,0,0,1-3.68-2,1.44,1.44,0,0,0-.52.33c-1.21,1.45-1.52,1.5-2.49.19a11.87,11.87,0,0,1-2.45-6c-.45-4.52,1.6-7.77,5.32-10.11.49-.32,1-.55,2-1.05C58.4,39.25,55.1,41.44,52.6,45a15.81,15.81,0,0,0-1.73,4,5.21,5.21,0,0,0,0,3.65,2.65,2.65,0,0,1,.11.3,31.63,31.63,0,0,0,4,10.33,35.24,35.24,0,0,1,2.32,5.41c.34.8.33.81,1.62.26a1.45,1.45,0,0,1,.3-.06l0,0a10.24,10.24,0,0,0-.76,6,16.64,16.64,0,0,1-.86,7.32c-.87,3-1.78,5.93-2.67,8.89a112.51,112.51,0,0,0-3.4,13.8c-.09.5-.28,1-.41,1.49l-2.56-.08c.57-3.46,1-7,2.32-10.26a3.63,3.63,0,0,0,.3-1.8,12.93,12.93,0,0,0-4.43-8.63,5.82,5.82,0,0,0-6.14-.84,5.93,5.93,0,0,0-3.9,4.84c-.3,2-.06,3.95,1.73,5.33a3,3,0,0,0,3.47.45c1.18-.66,1.89-1.6,1.37-3.07,0-.14.1-.35.16-.53.21.18.55.33.6.54a3.44,3.44,0,0,1-4.16,4.22,5.5,5.5,0,0,1-4.07-4.93,7.36,7.36,0,0,1,8.61-8c.88.17,1.75.48,2.95.82a17.37,17.37,0,0,0-4.42-6c-1.87,1.92-3.65,3.76-5.45,5.59-.57.57-1.11,1.3-2.12.62-.17-.11-.74.2-1,.44a11.82,11.82,0,0,0-3,5c-.28.75-.53,1.52-.92,2.65a10.32,10.32,0,0,1-1-1.91c-.53-2.42-1-4.85-1.47-7.29-.15-.81-.17-1.65-.33-2.46,0-.21-.41-.56-.52-.53-1.11.36-1.32-.27-1.14-1.09a17.68,17.68,0,0,1,1-3.55,13.27,13.27,0,0,1,4.35-5.19c2.73-2,5.4-1.14,6.6,2.08.11.28.18.58.29,1,.42,0,.82,0,1.23,0a2.88,2.88,0,0,1,3.13,2,7,7,0,0,0,1.31,2,34.82,34.82,0,0,1,7.89,13.23,3.5,3.5,0,0,0,.39.66,4.54,4.54,0,0,0,.7-1c1.08-3.24,2.2-6.47,3.19-9.74a20.08,20.08,0,0,0-.32-12.52,24.6,24.6,0,0,0-2.1-4.82c-2-3.37-4.25-6.62-6.39-9.93-.47-.72-1-.68-1.81-.47-4.11,1-6.37,3.59-7.26,7.6-.25,1.09-.43,1.14-1.49,1q-3.84-.49-7.69-.94A1.8,1.8,0,0,0,26.92,62a10.61,10.61,0,0,1-2.63,3.8c-2,2.13-3.91,4.32-4.08,7.47a.6.6,0,0,1-.95.37,26.68,26.68,0,0,1-2.93-3.18c-2.84-4.11-3.54-8.76-3-13.65a5.41,5.41,0,0,0-.28-3c-1.35-3.07-.6-5.9,1.49-8.37A11.91,11.91,0,0,1,23,41.42a29.91,29.91,0,0,1,8.65.58c1.66.34,1.66.34,2,2.19.05.29.17.57.27.92a2.69,2.69,0,0,0,.85-.4,8.34,8.34,0,0,1,4.54-2.5.91.91,0,0,0,.48-1.6,24.48,24.48,0,0,0-2.13-1.78c1.39-1.09,1.39-1.09.54-2.34-.46-1.63-.93-3.26-1.39-4.89,1.42-.68,1.42-.68,1.28-2a15.31,15.31,0,0,1,2.17-7.95,10.8,10.8,0,0,1,6.23-5.24c1.92-.63,3.85-.8,5.54.65a3.28,3.28,0,0,1,1,3.62,1.94,1.94,0,0,1-1.83,1.41c-.86,0-1.68,0-1.85-1.14l-.06,0c.41.05.82.07,1.22.14a1.63,1.63,0,0,0,1.69-.5A2.2,2.2,0,0,0,52,18.29a3.77,3.77,0,0,0-4.14-1.45,10.29,10.29,0,0,0-6.75,5.08,18.08,18.08,0,0,0-2,12.6,44.13,44.13,0,0,0,2,6.18,3.47,3.47,0,0,0,2.1,2.12c.88.39,2,.56,2.38,1.75h0c-.57-.2-1.14-.41-1.72-.57a.6.6,0,0,0-.53.14.58.58,0,0,0-.09.52q2.71,4.15,5.46,8.27c.05.07.34,0,.53,0a5.13,5.13,0,0,0-.84-4.12c-.55-1-1.05-2-1.57-3Zm-4.79-.38c0-.88-1.45-2.65-2.26-2.67a1.05,1.05,0,0,0-.31,0c-1.72.48-3.34,1.12-4.25,2.82a.72.72,0,0,0,0,.59.6.6,0,0,0,.5.25,4.93,4.93,0,0,0,1.5-.29c1.42-.66,2.82-1.31,4.4-.45C41.68,45.74,41.9,45.53,42.06,45.44Z"></path>
      <path class="cls-13" d="M59.92,68.26c.31-.38.55-.89,1-1.1a9.14,9.14,0,0,1,6-1.08,32.21,32.21,0,0,1,5.91,1.79,6.52,6.52,0,0,1,3,3c.46.81.86,1.65,1.32,2.46a.81.81,0,0,0,1.48,0c.39-.6.67-1.27,1-1.89.94-1.6,1.74-1.94,3.61-1.47a19.15,19.15,0,0,1,9.84,6.68,4.68,4.68,0,0,1,.75,2.62,15.84,15.84,0,0,1-2.27,8.9A17.79,17.79,0,0,1,90.37,90c-1.56,2-3.29,4-2.79,7.15a62.11,62.11,0,0,0-12.45-6.4,25.29,25.29,0,0,1-9.52-6.23,11.82,11.82,0,0,1-3.27-9.37,8.3,8.3,0,0,1,4.14-6.88,10.22,10.22,0,0,0,1-.7s0-.18,0-.28c-2.75-.58-3.93-.52-5.92.3-.57.23-1.14.44-1.71.65Z"></path>
      <path class="cls-14" d="M31.81,17.87A6.16,6.16,0,0,1,32.65,22a2.17,2.17,0,0,1-2.33,2,9.07,9.07,0,0,1-2.76-.3c-2.64-.87-5.25-1.86-7.86-2.82a1.35,1.35,0,0,1-1-1.41c.12-1.28-.62-1.87-1.65-2.31a15,15,0,0,0-5.4-1.27c-1,0-2.05-.07-3.22-.12a12.91,12.91,0,0,1,2.67-7.18c.62-.84,1.36-1.56.86-2.77-.28-.68.23-1.17.72-1.56a7.64,7.64,0,0,1,5.48-1.75c.93.06,1.85.21,2.78.23,1.17,0,1.39-.22,1.77-1.6C23,.27,23.36-.07,24.18,0,29.63.61,33,5.35,32.7,9.42a6.54,6.54,0,0,1-2.06,4.68c-.35.35-.9.66-1,1.07a1.93,1.93,0,0,0,.57,1.28A16.47,16.47,0,0,0,31.81,17.87Z"></path>
      <path class="cls-14" d="M54.78,5.81A9.61,9.61,0,0,1,55.25,4a3.09,3.09,0,0,1,2.92-1.91,14.44,14.44,0,0,1,6.25,1.63c.15.07.37.34.34.46-.33,1.34.82,1.42,1.54,1.87.88.54,1.79,1,2.63,1.63a5.8,5.8,0,0,1,2.32,4.22c0,.3.06.81-.09.89-1.41.75-.69,2-.72,3a5.21,5.21,0,0,1-1.9,4.36c-.21-.16-.41-.23-.48-.36-1.13-2.25-1.54-2.52-3.79-2-1.61.4-3.18.95-4.84.24a.41.41,0,0,0-.3,0c-2,1.24-3-.36-4.23-1.41-.76-.68-1.42-1.48-2.15-2.24A6.45,6.45,0,0,0,52,15c-.36.35-.82.4-1.07,0A8.05,8.05,0,0,1,49.38,9.2a2.86,2.86,0,0,1,2.95-2.63C53.24,6.62,54.25,7,54.78,5.81Z"></path>
      <path class="cls-15" d="M54.78,5.81c-.53,1.19-1.54.81-2.45.76a1.77,1.77,0,0,0-1.4-1.08C46.9,5,43.38,6,40.61,9.07a15.39,15.39,0,0,0-3,5,23.67,23.67,0,0,0-1.12,10.63c.12,1.32.38,2.64.55,4a1,1,0,0,0,1,.93c.14,1.33.14,1.33-1.28,2a16.24,16.24,0,0,1-1.24-4.7c-.47-2.73-.8-5.51-2.3-7.95a8.62,8.62,0,0,0-.9-1.21c-.05-.06-.35.08-.53.13a16.47,16.47,0,0,1-1.58-1.42,1.93,1.93,0,0,1-.57-1.28c.08-.41.63-.72,1-1.07,0,.21,0,.48.11.6,1.48,1.5,3.34,2.63,4.11,4.84l.56-.29c.09-.78.13-1.56.28-2.32a19.73,19.73,0,0,1,.64-2.4,14.87,14.87,0,0,1,5.85-8.14c3.51-2.3,7.2-3,11.14-1.1A14.71,14.71,0,0,0,54.78,5.81Z"></path>
      <path class="cls-16" d="M38.17,36.49c.85,1.25.85,1.25-.54,2.34A29.91,29.91,0,0,0,24.46,36a9.48,9.48,0,0,1-7.15-3.18,5.4,5.4,0,0,1-1.39-3.37,4.21,4.21,0,0,1,2.33-4.06,3.13,3.13,0,0,1,4.58,1,3.23,3.23,0,0,1-1.14,4.33.63.63,0,0,1-.56-.07.52.52,0,0,1-.12-.5c.24-.33.61-.56.83-.9a1.8,1.8,0,0,0-.13-2.52,2.46,2.46,0,0,0-3.11-.32,3.7,3.7,0,0,0-.87,5.21,6.59,6.59,0,0,0,4.55,3,32.81,32.81,0,0,0,5.84.63,17.92,17.92,0,0,1,9.22,2.13C38.16,37.75,38,36.87,38.17,36.49Z"></path>
      <path class="cls-13" d="M49.35,20.94c-.87-.66-.87-1.13,0-1.84l0-.06V21Z"></path>
      <path class="cls-13" d="M45.61,44.57a1.14,1.14,0,0,1,1.24,1.25h0a1.14,1.14,0,0,1-1.24-1.24Z"></path>
      <path class="cls-13" d="M50.59,19.06l-1.3,0,0,.06c.51-.73.76-.73,1.21,0Z"></path>
      <path class="cls-13" d="M50.54,19.11l.42.17-.25.24-.12-.46Z"></path>
      <path class="cls-13" d="M59.88,68.22c0,.45-.18.65-.62.62l0,0c0-.45.18-.65.63-.62Z"></path>
    </g>
  </g>
</svg>
