<?xml version="1.0" encoding="UTF-8"?>
<svg xmlns="http://www.w3.org/2000/svg" viewBox="0 0 117.66 189.5">
  <defs>
    <style>.cls-1{fill:#a29274;}.cls-2{fill:#e3e0c9;}.cls-3{fill:#fcedce;}.cls-4{fill:#bda885;}.cls-5{fill:#d0c5a6;}.cls-6{fill:#8f8267;}.cls-7{fill:#ab967a;opacity:0.25;}.cls-8{fill:#9b8d71;}.cls-9{fill:#7c705b;}.cls-10{fill:#a5a5a5;}.cls-11{fill:#e7e6e3;}.cls-12{fill:#817870;}.cls-13{fill:#79a05b;}.cls-14{fill:#769b57;}.cls-15{fill:none;stroke:#79a05b;stroke-miterlimit:10;stroke-width:0.63px;}</style>
  </defs>
  <g id="Слой_2" data-name="Слой 2">
    <g id="Слой_1-2" data-name="Слой 1">
      <polygon class="cls-1" points="58.91 112.09 117.66 87.08 108.85 154.73 58.91 189.5 58.91 112.09"></polygon>
      <polygon class="cls-2" points="58.91 70.17 117.66 87.08 58.91 112.09 0 87.08 58.91 70.17"></polygon>
      <polygon class="cls-3" points="58.91 70.17 0 87.08 1.03 87.52 117.12 86.93 58.91 70.17"></polygon>
      <polygon class="cls-4" points="8.81 154.73 0 87.08 58.91 112.09 58.91 189.5 8.81 154.73"></polygon>
      <path class="cls-5" d="M37,87.92a32.49,32.49,0,0,1,2.78-3A27.1,27.1,0,0,1,43,82.43a31.67,31.67,0,0,1,7.38-3.58c1.3-.42,2.62-.77,4-1.07a39.6,39.6,0,0,1,4-.62,38.75,38.75,0,0,1,8.13,0c-2.7.18-5.37.47-8,.9A48.68,48.68,0,0,0,50.8,80a40.36,40.36,0,0,0-7.27,3.23A40.94,40.94,0,0,0,37,87.92Z"></path>
      <path class="cls-5" d="M27,90.29c.09.11.36.15.53.2s.4.09.6.12c.4.06.79.12,1.19.15.8.07,1.6.09,2.4.08a36.56,36.56,0,0,0,4.78-.41c3.17-.45,6.3-1.25,9.51-2a27.68,27.68,0,0,1-9.34,3.15,21.35,21.35,0,0,1-5,.15,14.56,14.56,0,0,1-2.46-.43c-.4-.12-.8-.25-1.19-.41A2.62,2.62,0,0,1,27,90.29Z"></path>
      <path class="cls-5" d="M67.53,104.71A46.57,46.57,0,0,1,79.91,91.8a30.16,30.16,0,0,1,8.09-4,21.15,21.15,0,0,1,4.45-.89,19.22,19.22,0,0,1,4.49.19,23.75,23.75,0,0,0-8.63,1.58,36.8,36.8,0,0,0-7.72,4.14,60.53,60.53,0,0,0-6.86,5.55A86.83,86.83,0,0,0,67.53,104.71Z"></path>
      <polygon class="cls-6" points="58.91 112.09 117.66 87.08 108.85 154.73 58.91 189.5 58.91 112.09"></polygon>
      <polygon class="cls-7" points="8.81 154.73 0 87.08 58.91 112.09 58.91 189.5 8.81 154.73"></polygon>
      <polygon class="cls-8" points="58.91 189.5 8.81 154.73 59.15 135.71 108.85 154.73 58.91 189.5"></polygon>
      <path class="cls-9" d="M19.46,125a10.93,10.93,0,0,1-.9-2.32,20.17,20.17,0,0,1-.54-2.45,18.1,18.1,0,0,1-.09-5,15.64,15.64,0,0,1,4.35-9.08A21.7,21.7,0,0,1,30.93,101a36.59,36.59,0,0,1,9.8-1.75,54.9,54.9,0,0,0-9.48,2.63,23.28,23.28,0,0,0-8.11,5.11,15.74,15.74,0,0,0-4.28,8.38,20,20,0,0,0-.26,4.84A18.65,18.65,0,0,0,19.46,125Z"></path>
      <path class="cls-9" d="M74.2,124.06c.16.25.49.33.75.47l.84.35c.56.21,1.14.4,1.71.59,1.15.38,2.31.71,3.47,1,2.33.63,4.68,1.2,7,1.66,4.73,1,9.52,1.6,14.37,2.16a54.6,54.6,0,0,1-21.69-2.93c-1.15-.41-2.29-.87-3.4-1.39-.56-.27-1.1-.54-1.64-.85A4.26,4.26,0,0,1,74.2,124.06Z"></path>
      <path class="cls-9" d="M42.65,120.53a43.26,43.26,0,0,1-3.9,13,36.2,36.2,0,0,1-3.54,5.84,22.2,22.2,0,0,1-4.89,4.74,40,40,0,0,0,4.13-5.28A61,61,0,0,0,37.67,133c1-2,1.83-4.06,2.66-6.14S41.93,122.67,42.65,120.53Z"></path>
      <path class="cls-9" d="M60.87,174.36c2.4-1.17,4.88-2.1,7.3-3.15s4.82-2.12,7.14-3.33A46.15,46.15,0,0,0,82,163.74,19.05,19.05,0,0,0,87.19,158a15.3,15.3,0,0,1-4.64,6.49A35.19,35.19,0,0,1,75.87,169a59.32,59.32,0,0,1-7.36,3.13c-1.26.45-2.53.84-3.8,1.22Z"></path>
      <path class="cls-9" d="M33.32,166.94a16.55,16.55,0,0,1-3.81-2.41,9.24,9.24,0,0,1-2.76-3.71,5.46,5.46,0,0,1-.34-2.41,6.05,6.05,0,0,1,.73-2.33,11.16,11.16,0,0,1,3.19-3.43,30.43,30.43,0,0,1,8.13-4,62.51,62.51,0,0,1,8.7-2.27c-2.82,1-5.62,2-8.37,3.14a37.72,37.72,0,0,0-7.74,4.13,10.35,10.35,0,0,0-2.92,3,4.75,4.75,0,0,0-.49,3.89,9.09,9.09,0,0,0,2.27,3.58A19.48,19.48,0,0,0,33.32,166.94Z"></path>
      <path class="cls-9" d="M87.19,122.69l4.37-6c1.44-2,2.85-4,4.18-6.12a61.26,61.26,0,0,0,3.69-6.37,20.56,20.56,0,0,0,2.31-7,15.8,15.8,0,0,1-1.45,7.34,40.6,40.6,0,0,1-3.54,6.64A62,62,0,0,1,87.19,122.69Z"></path>
      <polygon class="cls-10" points="56.77 150.42 56.83 150.32 56.73 150.31 56.77 150.42"></polygon>
      <path class="cls-11" d="M62.07,99.31a21.31,21.31,0,0,1,.9,9.19,62.19,62.19,0,0,1-1.69,8.8,54.42,54.42,0,0,0-1.62,8.63,19.39,19.39,0,0,0,1,8.68,19.71,19.71,0,0,1-1.54-8.7,55.73,55.73,0,0,1,1.08-8.85,58.74,58.74,0,0,0,1.1-8.67A19.24,19.24,0,0,0,60,100.16h0a1.12,1.12,0,1,1,2-.92Z"></path>
      <path class="cls-11" d="M60,122.39a2.79,2.79,0,0,0,.84,1.34,9.67,9.67,0,0,0,1.35,1.12c.47.33,1,.61,1.5,1a2.92,2.92,0,0,1,1.12,1.41A2.76,2.76,0,0,0,63.62,126c-.51-.31-1.08-.5-1.6-.83a10,10,0,0,1-1.48-1.1,3.15,3.15,0,0,1-1.09-1.63Z"></path>
      <path class="cls-11" d="M61.5,116.28A5.36,5.36,0,0,0,63.11,118a7.6,7.6,0,0,0,2.25,1.1,13.77,13.77,0,0,1,2.44,1,2.85,2.85,0,0,1,1.55,2,2.74,2.74,0,0,0-1.67-1.82,14.12,14.12,0,0,0-2.47-.73c-.42-.11-.85-.21-1.28-.36a8.28,8.28,0,0,1-1.23-.61,6,6,0,0,1-2.05-1.91Z"></path>
      <path class="cls-11" d="M64.07,118.69a4.29,4.29,0,0,1,2.13-1,5.63,5.63,0,0,1,2.28.25,5.77,5.77,0,0,0-2.23,0,3.93,3.93,0,0,0-1.83,1.13Z"></path>
      <path class="cls-11" d="M66.56,119.65a16.5,16.5,0,0,1,.37,2,6.58,6.58,0,0,1,0,2,6.73,6.73,0,0,0-.18-2,17,17,0,0,0-.53-1.89Z"></path>
      <path class="cls-11" d="M62.76,105.42a5.6,5.6,0,0,0,1.87,1.35,15.11,15.11,0,0,0,2.24,1,15.93,15.93,0,0,1,2.33,1A4.64,4.64,0,0,1,71,110.55,4.43,4.43,0,0,0,69.09,109a14.59,14.59,0,0,0-2.37-.77,15.18,15.18,0,0,1-2.4-.85A6,6,0,0,1,62,106Z"></path>
      <path class="cls-11" d="M66.85,108.12a5.75,5.75,0,0,0-.2,4.11A6,6,0,0,1,66.4,108Z"></path>
      <path class="cls-11" d="M63.78,106.3a18.52,18.52,0,0,1,3-1.27,3.4,3.4,0,0,1,1.65.29,3.09,3.09,0,0,1,1.29,1,3,3,0,0,0-1.34-.84,3.55,3.55,0,0,0-1.54-.14,5.9,5.9,0,0,0-1.44.63c-.47.26-.92.55-1.45.78Z"></path>
      <path class="cls-11" d="M61.93,111.36a17.12,17.12,0,0,1-3,2,24.35,24.35,0,0,1-3.23,1.36,5.24,5.24,0,0,0-2.71,1.9,8,8,0,0,0-.92,3.29,8.09,8.09,0,0,1,.71-3.41,5.61,5.61,0,0,1,2.73-2.22,23.65,23.65,0,0,0,3.06-1.54,17,17,0,0,0,2.69-2.07Z"></path>
      <path class="cls-11" d="M55.43,114.61a9.88,9.88,0,0,1-.78,3.66,9.84,9.84,0,0,0,.43-3.64Z"></path>
      <path class="cls-11" d="M59.37,112.63a2.92,2.92,0,0,0-1.2-.85,3.59,3.59,0,0,0-1.49-.32,8,8,0,0,0-3,1,9.41,9.41,0,0,1,3-1.16,4.38,4.38,0,0,1,3.1,1Z"></path>
      <path class="cls-11" d="M60.65,119.85a8,8,0,0,0-1,.94c-.14.15-.31.39-.5.57a7,7,0,0,1-.58.51c-.81.6-1.61,1.09-2.34,1.7a8.64,8.64,0,0,0-1.91,2.09,5.18,5.18,0,0,0-.84,2.71,5.32,5.32,0,0,1,.63-2.83,9.05,9.05,0,0,1,1.79-2.33c.7-.69,1.51-1.29,2.2-1.9a5.38,5.38,0,0,0,.47-.49c.15-.17.24-.34.42-.56a8.46,8.46,0,0,1,1-1.13Z"></path>
      <path class="cls-11" d="M55.82,123.8a3.89,3.89,0,0,1,.16,1.68,12.06,12.06,0,0,1-.31,1.61,10.94,10.94,0,0,0,.09-1.61,3.42,3.42,0,0,0-.34-1.51Z"></path>
      <path class="cls-11" d="M58.69,121.39a13,13,0,0,0-2.25,0,7.36,7.36,0,0,0-2.21.44,7.21,7.21,0,0,1,2.18-.69,13.59,13.59,0,0,1,2.31-.22Z"></path>
      <polygon class="cls-3" points="1.03 87.52 58.91 112.09 117.66 87.08 117.12 86.93 1.03 87.52"></polygon>
      <ellipse class="cls-1" cx="60.77" cy="88.26" rx="13.57" ry="5.31"></ellipse>
      <ellipse class="cls-12" cx="61.12" cy="90.05" rx="11.18" ry="4.37"></ellipse>
      <path class="cls-13" d="M72.57,47.46c0,.53-.21.78-.74.75l0,0q-.06-.81.75-.75Z"></path>
      <path class="cls-14" d="M35.48,34.91c-.45-.61-2.39-1.34-3-4.59s-4.52-4.21-.75-5.95c0,0-.77-3.4-1.82-4s.19-1.64,1.31-.69,2.73-.08,4.87,4.79c0,0,.16.46,1,0s1.61.69,1.23,2.68S37.13,37.29,41,40.81Z"></path>
      <path class="cls-14" d="M27.16,36.08a19.53,19.53,0,0,1-2.69.61c-.61.11-4.71,2.68-6,2.91s-2.8.68-3.47-1.26c0,0-1.88-1.1-2.91-.71s-2.43.17-2.72-.42-.8-1.12-.64-1.43-.51-.7-.5-.91-1.58-.95-.72-1.23a6.32,6.32,0,0,1,2.68.24s.12-2.18,3.07-.2c0,0,.53.48,1-.57s2-2.62,4.46.16c0,0,4.57,1.12,3.95,1.76s3.53-.45,4,.3S27.51,35.74,27.16,36.08Z"></path>
      <path class="cls-14" d="M60.25,32.33c-.27-.73-5.09-10.43-9-11.57,0,0-2.06-.14-.83-1.88S43.2,14.34,43,14s-1.55-1.77-.36-3S35.42,7.3,35.42,7.3s-1.05-.94-.35-1.85S27,2.28,27,2.28,25.55.6,29.7,1.52s8,1.73,8,1.73S36.83-.62,39.09.09c0,0,3.35,5.23,5.13,6.14,0,0,1.56-2.91,3.37-1.52l3.77,6.45s2.24-2.63,4.11.36S57.18,19,57.18,19A4.23,4.23,0,0,0,58,16.74s.13-.76,2-.23c0,0-.7-10.69,3.46-6.44,0,0,3.61-7.7,5.23-6.87,0,0,1.18.08-.15,2.13a50.93,50.93,0,0,0-6.12,24.76s.51.67-.48,2.35a5.62,5.62,0,0,0,0,1.83c.19.65.31-.32,1.95-.37a2.59,2.59,0,0,0-.12-2.13c-.54-1.41-1.14-5.74,2.84-5.2,0,0,.41-6,1.41-6.26s1.4,6.24,1.4,6.24,5-1.2.61,5.07c0,0-.59.11.18,1.33s-1,4.38-4.85,6.61l-1.5,1.06s-1.26,4-1.8,5.23c-1.5-.58-3.24-4.25-5.37-4.07s-4.41,1.76-4.62.27.29-2.79,1.11-3.16S50.75,38.2,48.6,38s-2.74-1.88-1.37-2.53S39.35,33,37.92,33s-2.63-1.08,1-1,3.74.94,3.64.09.6-4.14,6.11.47c0,0,1.24,1.19,1.32-.71s3.55-1.61,5.22,1.1,2.4,2.86,2.63,1.76-.54-2.1-.15-2.44,1.33.77,2.1,1.89,1.23.61.83-.64Z"></path>
      <path class="cls-14" d="M65.21,48.23c.54-.92.42-3.78,4.24-6.3s2.93-8.06,7.19-4.2c0,0,3.93-2.83,4.12-4.49s2.19-.65,1.58,1.3,1.59,3.44-3.46,8.82c0,0-.5.45.47,1.27s0,2.41-2.74,3S64.39,50.72,62,57.63Z"></path>
      <path class="cls-14" d="M54.05,54.05A12.75,12.75,0,0,0,43,50.41c-6.89,1.11-3.61,3.64-3.61,3.64s-9.94,4.12-4,15.77c0,0,1.5,1.66,2-.64s-.09-2.77.87-4.83,2.38-5.15,3.09-4.83,1.58,3.33,3,.39S49.53,52.78,54.05,54.05Z"></path>
      <path class="cls-14" d="M52,52.7c0,4.23,3.27-9.19,7.18-6.76,0,0-.64-5.5-5.5-5a4,4,0,0,0-3.59,3.44C49.82,46.16,51.91,48.4,52,52.7Z"></path>
      <path class="cls-14" d="M52.32,70.26S33.38,61.39,34.23,84.2c0,0,1.51,2.86,3.9-6,0,0-.74-.42,2.12-.63S46.75,68.15,52.32,70.26Z"></path>
      <path class="cls-14" d="M70,73a1,1,0,0,0,.36-.44c.6-1.71,2.57-9.09,4.48-10.72s2.38-3.55,3.18-.31c.11.46-.17.84-.37,1.26,0,0,.4-.24,1.94-1.26,3.33-2.2,8.28-5.81,7.49-3s-1.79,2.58.09,2.58,5.37-.78,7.51-.47,4.41,1.26-1,1.89c-4.43.51-2.56.87-1.74,1a1.2,1.2,0,0,1,.66.29c.56.49,1.27,1.5-2.61,1.39-5.09-.15-3.68-.07-3.45.4s1.65,3.53-1.88,2.9a12.27,12.27,0,0,0-5.88.16c-.32.08,5,2.12.82,2.66s-5.92,2-8.2,2C69.89,73.26,69.82,73.11,70,73Z"></path>
      <path class="cls-14" d="M66.83,76.42S81.43,73.68,72,87.8a32.18,32.18,0,0,1-.47-3.34c-.08-1.33-1.7,1.1-.58-3.45,0,0-2.32.12-1.14-3.57A6.63,6.63,0,0,0,66.83,76.42Z"></path>
      <path class="cls-14" d="M68,76.42s2.43-5,2.59-8a63.28,63.28,0,0,0-.63-9.34c-.15-1-2,2-2,5.37s1.33,3.81,0,3.42-2.12-.9-2.75,1S68,76.42,68,76.42Z"></path>
      <path class="cls-13" d="M71,71.49c-4.33,4.6-8.88,9.57-10.15,16-.17.89,1.19,1.27,1.37.37,1.21-6.16,5.61-10.91,9.78-15.34.62-.66-.38-1.66-1-1Z"></path>
      <path class="cls-15" d="M47.24,69.74c7.81-.63,9.93,5.41,13.56,5.46"></path>
      <path class="cls-14" d="M37.13,38.61s-5.86-1.8-10.92,3.73c0,0-1.17,1.55.6,2,0,0-5.14,4-5.2,6.43s-.07,1.67.52,2.19-.2,5.85,1.58,7.2,2-6.49,2-6.49,2,3.06,3.6-7.06c0,0,4,2.17,4.82-2.14s3.15-5,4.6-4.76S37.13,38.61,37.13,38.61Z"></path>
      <path class="cls-13" d="M26.21,36.42C39.51,36.16,50.06,48,55.93,58.73a64.13,64.13,0,0,1,5,11.83c.22.71,1.35.41,1.12-.32A63.39,63.39,0,0,0,51.57,50c-4.16-5.33-9.42-10.13-15.71-12.79a23.55,23.55,0,0,0-9.65-1.94.59.59,0,0,0,0,1.17Z"></path>
      <path class="cls-13" d="M62.91,34.5l.52,14.63c.07,2.44.15,4.89.11,7.36s-.18,4.9-.28,7.34l-.58,14.6-.12,3.65,0,1.81c0,.3,0,.59,0,.87a3.32,3.32,0,0,0,0,.35s0,0,0-.07l0-.06a1,1,0,0,0-.1-.18,1.73,1.73,0,0,1,.2.41,1.83,1.83,0,0,1,.07.32,19.82,19.82,0,0,1,0,2l0,1.85L62.58,93l-2-.08.14-3.65,0-1.81c0-.58,0-1.26,0-1.71a.06.06,0,0,0,0,0s.08.18.07.13a.94.94,0,0,1-.12-.22,1.21,1.21,0,0,1-.05-.14,1.32,1.32,0,0,1,0-.24,3.51,3.51,0,0,1,0-.54c0-.33,0-.64,0-1l0-1.84.13-3.66.65-14.63c.12-2.43.26-4.87.32-7.28s0-4.84-.08-7.27l-.45-14.63Z"></path>
    </g>
  </g>
</svg>
