<?xml version="1.0" encoding="UTF-8"?>
<svg xmlns="http://www.w3.org/2000/svg" viewBox="0 0 105.26 178.9">
  <defs>
    <style>.cls-1{fill:#a29274;}.cls-2{fill:#e3e0c9;}.cls-3{fill:#fcedce;}.cls-4{fill:#bda885;}.cls-5{fill:#d0c5a6;}.cls-6{fill:#8f8267;}.cls-7{fill:#ab967a;opacity:0.25;}.cls-8{fill:#9b8d71;}.cls-9{fill:#7c705b;}.cls-10{fill:#cacac9;}.cls-11{fill:#817870;}.cls-12{fill:#e6f5b2;}.cls-13{fill:#bce27d;}.cls-14{fill:#a8d459;}.cls-15{fill:#81b651;}.cls-16{fill:#93c63e;}.cls-17,.cls-19,.cls-20,.cls-25,.cls-26,.cls-27,.cls-34,.cls-35,.cls-36,.cls-37,.cls-38,.cls-39{fill:none;stroke:#3f6c3e;}.cls-17,.cls-19,.cls-20,.cls-25,.cls-26,.cls-27,.cls-34,.cls-39{stroke-miterlimit:10;}.cls-17{stroke-width:0.39px;}.cls-18{fill:#3f6c3e;}.cls-19{stroke-width:0.1px;}.cls-20{stroke-width:0.29px;}.cls-21{fill:#a8d45c;}.cls-22{fill:#cfe77d;}.cls-23{fill:#9ecb3f;}.cls-24{fill:#e3f4ad;}.cls-25{stroke-width:0.33px;}.cls-26{stroke-width:0.16px;}.cls-27{stroke-width:0.25px;}.cls-28{fill:#80b64f;}.cls-29{fill:#e5f4af;}.cls-30{fill:#bce074;}.cls-31{fill:#d6eb8a;}.cls-32{fill:#d3ea85;}.cls-33{fill:#94c83f;}.cls-34,.cls-38{stroke-width:0.31px;}.cls-35,.cls-36,.cls-37,.cls-38{stroke-linecap:round;stroke-linejoin:round;}.cls-35{stroke-width:0.08px;}.cls-36{stroke-width:0.23px;}.cls-37,.cls-39{stroke-width:0.15px;}</style>
  </defs>
  <g id="Слой_2" data-name="Слой 2">
    <g id="Слой_1-2" data-name="Слой 1">
      <polygon class="cls-1" points="47.94 120.34 92.39 101.42 85.72 152.59 47.94 178.9 47.94 120.34"></polygon>
      <polygon class="cls-2" points="47.94 88.62 92.39 101.42 47.94 120.34 3.38 101.42 47.94 88.62"></polygon>
      <polygon class="cls-3" points="47.94 88.62 3.38 101.42 4.16 101.75 91.97 101.3 47.94 88.62"></polygon>
      <polygon class="cls-4" points="10.04 152.59 3.38 101.42 47.94 120.34 47.94 178.9 10.04 152.59"></polygon>
      <path class="cls-5" d="M31.39,102.05a26.25,26.25,0,0,1,2.1-2.25,19.57,19.57,0,0,1,2.45-1.9,25,25,0,0,1,5.58-2.71,29.17,29.17,0,0,1,6.06-1.27c1-.13,2.05-.11,3.08-.15s2.05.09,3.07.17c-1,.12-2,.16-3,.27s-2,.22-3,.42-2,.33-3,.61a29,29,0,0,0-2.9.82,31.77,31.77,0,0,0-5.5,2.44A31.31,31.31,0,0,0,31.39,102.05Z"></path>
      <polygon class="cls-6" points="47.94 120.34 92.39 101.42 85.72 152.59 47.94 178.9 47.94 120.34"></polygon>
      <polygon class="cls-7" points="10.04 152.59 3.38 101.42 47.94 120.34 47.94 178.9 10.04 152.59"></polygon>
      <polygon class="cls-8" points="47.94 178.9 10.04 152.59 48.12 138.2 85.72 152.59 47.94 178.9"></polygon>
      <path class="cls-9" d="M18.09,130.09A13.63,13.63,0,0,1,17,122.67a11.8,11.8,0,0,1,3.28-6.87,16.28,16.28,0,0,1,6.54-3.89,28.17,28.17,0,0,1,7.42-1.33c-.61.14-1.23.27-1.84.39s-1.21.3-1.81.45-1.19.35-1.79.52l-1.74.62a18,18,0,0,0-6.13,3.88,12,12,0,0,0-3.24,6.34,14,14,0,0,0-.19,3.66A13.78,13.78,0,0,0,18.09,130.09Z"></path>
      <path class="cls-9" d="M59.51,129.39c.12.19.37.25.57.35s.42.18.63.27c.43.16.86.3,1.3.44.86.29,1.74.54,2.62.79,1.76.48,3.54.91,5.33,1.26,3.57.74,7.19,1.21,10.86,1.63a39.77,39.77,0,0,1-11-.74,38.33,38.33,0,0,1-5.36-1.48,26.22,26.22,0,0,1-2.58-1c-.41-.21-.83-.42-1.23-.65A3.14,3.14,0,0,1,59.51,129.39Z"></path>
      <path class="cls-9" d="M35.64,126.72a32.75,32.75,0,0,1-3,9.82A27,27,0,0,1,30,141a16.92,16.92,0,0,1-3.69,3.58,30.36,30.36,0,0,0,3.11-4,43,43,0,0,0,2.44-4.41c.74-1.51,1.39-3.07,2-4.64S35.09,128.34,35.64,126.72Z"></path>
      <path class="cls-9" d="M49.42,167.44c1.82-.88,3.69-1.59,5.52-2.38s3.65-1.61,5.41-2.52a34.62,34.62,0,0,0,5-3.14,14.27,14.27,0,0,0,4-4.36A11.52,11.52,0,0,1,65.82,160a25.94,25.94,0,0,1-5,3.39,46.16,46.16,0,0,1-5.57,2.38C53.31,166.41,51.35,166.89,49.42,167.44Z"></path>
      <path class="cls-9" d="M28.58,161.83a9.39,9.39,0,0,1-5-4.64,4.21,4.21,0,0,1,.29-3.58,8.58,8.58,0,0,1,2.41-2.6,23.54,23.54,0,0,1,6.15-3,48.6,48.6,0,0,1,6.58-1.72c-2.13.78-4.26,1.52-6.33,2.38a29.07,29.07,0,0,0-5.86,3.12,7.85,7.85,0,0,0-2.2,2.29,3.58,3.58,0,0,0-.38,2.94A6.66,6.66,0,0,0,26,159.68,15.26,15.26,0,0,0,28.58,161.83Z"></path>
      <path class="cls-9" d="M69.33,128.35c2.22-3,4.45-6,6.47-9.18a46.36,46.36,0,0,0,2.79-4.82,15.25,15.25,0,0,0,1.75-5.27,11.89,11.89,0,0,1-1.1,5.56,30.15,30.15,0,0,1-2.67,5A47.21,47.21,0,0,1,69.33,128.35Z"></path>
      <path class="cls-10" d="M47.39,109.76c.16.45.6,1.15-.17,1.56s-2.68.91-2.92,2.46.44,4.21-2.25,6.69c0,0-.33.8.39.48a5.39,5.39,0,0,0,2.1-2.79c.28-1,1-3.46,1.61-3.64s1.46-.09.68,1.56a16.09,16.09,0,0,0-1.59,4.33c-.12,1.13.56,1.15.62.22a2.58,2.58,0,0,1,1.1-2c.52-.29,1.32-1.44,1.47-1.28.5.55.25,1.07.06,1.64s.27.87-1.35,2.08a8.43,8.43,0,0,1-2.65,1.4c-.72.37-3.19-.29-3.73.29s-.62,1.27-.11,1,1-.93,1.36-.6,2.75.2,2.7.34a9,9,0,0,0,2.77-1.08c.78-.51,2.09-.32,1.24.52a7.57,7.57,0,0,1-3,2c-.73.07-1.44-.6-1.26-.14s.81.63,1.12.67a12.08,12.08,0,0,0,1.9-.79c.17,0,1.09-.38,1.5-.48s1-.19.58.61-.16,1.16-1.11,1.41-.78.46-1.48.19-1-.2-.88,0,.66-.11.14.19-1.2-.78-1-.12a1.44,1.44,0,0,0,1.17,1.07,2.75,2.75,0,0,0,3-.37c1.55-1.12,1.63-1.06.8.24,0,0-.07,0-.27.69s.11,1.17-.92,1.75-1.51,1.33-2.26.8-.16.73.2.81.64,0,1.35.15,2.66-1.5,2.83-1.93.63-3.24,1.16-3.29.92.8,1,1.2a5.91,5.91,0,0,1-.5,2,14.61,14.61,0,0,1-1.14,2.8c-.5.84-1.69.31-1.49,1.08s1.66.27,1.87.2,1.23-2.84,1.54-3.4,1.32-2.19,1-3.06-1.6-2.74-1.39-3.22.25-.12.59.51,1.29,2.61,2,2.49a10.24,10.24,0,0,0,3.16-.9c.78-.51,2.21-1,2.88.16s1.79,3.26,2.12,3.2-.32-.83-.3-1-1.12-2-1.18-2.45a2.63,2.63,0,0,0-3.35-1.45c-2.16.56-2.32,1.28-2.91.82a3.35,3.35,0,0,1-1.94-3c-.14-2.07-.25-2.23.38-2.06a5.55,5.55,0,0,0,3.17.49c1.37-.35,2.2-1,2.42-1.87s.16-2.31.3-2.84a3,3,0,0,1,.66-1.26c.17-.13.48-1.09-.86.1,0,0-.64.73-.73,3.09s-5.18.53-5.18.53a15.86,15.86,0,0,1-1.72-2.31c-.26-.62.41-.5.87-.25a2,2,0,0,0,1.47-.14c.29-.12.56-.73,1.3-.11s1.06,1.35,1.57,1.11-1-.85-1-1.24A2.09,2.09,0,0,0,55,114.29c-.82.11-2,.68-2.22-.39s-.38-3.5-.82-3.94S46.83,108.21,47.39,109.76Z"></path>
      <path class="cls-5" d="M51.76,111.35s.36-.75.12-1.18-3.78-1.26-3.83-.8a5.69,5.69,0,0,1-.21,1.89c-.26.5-2.17,1.22-2.17,1.22s-1.16.1-1.09,2.72.12.87.45.31,1-2.14,1.77-1.53.67,1.26.47,2.16A18,18,0,0,0,47,118s1.64-2.27,1.81-1.32.62,2.77-.23,3.67a13.05,13.05,0,0,1-3,2.12c-.39.15-.17.64.85.09s2.44-1.18,2.44-1.18,1.27-.86.7,1a5.7,5.7,0,0,1-.76,1.1c-.49.54-.18.64.69.08s.58.53.58.53a11.8,11.8,0,0,0-.67,2.29c.07.34,1.28-1,1.28-1s.87-.53.41,1.21-.22,1.58-.11,1.53.62-2.9,1.26-2.51a6.75,6.75,0,0,1,1.25,1.13s.88.35-.6-1.91a2.57,2.57,0,0,1,.5-3.65s.43-1.49-.15-2.1-1.64,1.78-2.49-1.34S48.57,112,51.76,111.35Z"></path>
      <polygon class="cls-3" points="4.16 101.75 47.94 120.34 92.39 101.42 91.97 101.3 4.16 101.75"></polygon>
      <ellipse class="cls-1" cx="49.35" cy="102.31" rx="10.26" ry="4.01"></ellipse>
      <ellipse class="cls-11" cx="49.61" cy="103.66" rx="8.46" ry="3.31"></ellipse>
      <path class="cls-12" d="M51.16,104.29c.15-1-.82-2.09-.11-.72.17-.15.3-.17.56-2.16a52.9,52.9,0,0,0,.91-8.65c0-.57-.07,1,.08-2.79s1.57-20.45,1.6-25.75.68-7.72.43-12.07S52.57,46.62,51.11,51a49.58,49.58,0,0,1-.47,10.26,34.1,34.1,0,0,0-.67,9c0,4.92,0,16.54-.11,22S48.93,100,51.16,104.29Z"></path>
      <path class="cls-13" d="M41.92,28.65c-.7-2.38-1.33-4.76-2.07-7.13,1.31-.65,1.35-1.08,3-1.79s4.84-1.6,6.75-2.4c.72,2.46,1,3.63,1.76,6.4S53.24,30.89,54.07,34c-1.68.52-3.39.93-5.08,1.4Z"></path>
      <path class="cls-13" d="M52.49,92.17c.17-.32.19-.49.38-.83a11.43,11.43,0,0,1,.82-1.3c.22-.27.42-.26.63-.35.16-.73-.2.13.09-1s.7-3.62,1.29-5.25a37.43,37.43,0,0,0,2.11-5.87c.34-2,.82-4,1.23-6a1.39,1.39,0,0,1,.39-1.89A5.32,5.32,0,0,0,61,67.05c-.18-1.94-.38-3.9-.56-5.81a11,11,0,0,1,1-3.11c.5-1.19.34-1.56,0-3.44s.52-7.74-.91-9.59a14.34,14.34,0,0,1-2.66-6.4c-.55-2.68-3.35-5.13-5.31-2.81.17,2.56.32,4.62.54,7.32a74.72,74.72,0,0,1,.54,8.38c-.07,3.1.35,7.37-.15,10.64A73.05,73.05,0,0,0,53,72.82C53,76,53.1,81,53,83.13a22.61,22.61,0,0,0-.15,2.42,8.79,8.79,0,0,1-.16,2.36,28.25,28.25,0,0,0-.16,3C52.55,91.7,52.52,91.59,52.49,92.17Z"></path>
      <path class="cls-14" d="M50.66,21.35c-.44-1.06-1.95-2.68-1-4s.91-4,1.7-5.51,2.55-5.52,3.91-5.47,2.65,2.76,3.47,4.08a9,9,0,0,0,3.55,3.33c1.3.55,1.11,2.34,2,3.68s1.31,4,1.72,5.74c-.28,1.94-1,5.09-1.14,6.71s.12,1.67,0,3c1,.43,2,1,3.07,1.43l-.66,1.61a2.25,2.25,0,0,0,.43,1.17,3.73,3.73,0,0,0,1.26.8,5.35,5.35,0,0,0,.9.16c-.08.41-.06.51-.16,1a5.7,5.7,0,0,1-.71,2,2.83,2.83,0,0,1-1,.64c-.32.13-1,0-1.09.34s0,.75-.12,1.14a5,5,0,0,1-.87,1.59,10.27,10.27,0,0,0-1.26,1.42,1.28,1.28,0,0,0-.16,1.13,6.94,6.94,0,0,0,.94,1.48c.21.32.21.27.38.51a5.44,5.44,0,0,0-.42.56c-.15.26-.27.63-.46,1s-.47.67-.68,1a11.3,11.3,0,0,0-.65,1.2c-.15.33-.1.68-.24,1.09s-.29,1.09-.5,1.53a5.79,5.79,0,0,1-.55,1.19c-.31.43-.09.4-.67.95s-.31.75-1.69,1.6-1.12-3.13-.63-4,2.32-5.22.82-5.1a2.55,2.55,0,0,1-3-2.75c.23-1.88.66-4.46-.24-5.25s.51-3.09.48-3.87-1.38.43-1.77-.15-1-3.53-1.8-3a4.67,4.67,0,0,0-1.17,2.55c.26-.78-.52-8.44-.93-10.46S51.06,23.29,50.66,21.35Z"></path>
      <path class="cls-13" d="M52.37,33.3c0-1.14,0-2.79.17-3.8s.34-1.34.46-2.25a12.58,12.58,0,0,0,.17-2.6,18.42,18.42,0,0,0-.78-4c-.35-1-.81-2-1.13-2.77s-.41-.76-.71-1.34c-.76,1-1.53,1.9-2.29,2.85.13.52.19,1,.33,1.5s.38,1.36.55,1.86.37.8.52,1.24.29.65.41,1.11.06.64.2,1.27.37,1.69.58,2.49.63,2.15.83,2.87.24.95.41,1.58C52.18,33.29,52.28,33.33,52.37,33.3Z"></path>
      <path class="cls-15" d="M43.75,25c-.43-.55-1.12-1.1-1.52-1.73a14.54,14.54,0,0,1-1-1.78c-.32-.71-.57-1.64-.9-2.4-.89-.46-2.2-1.35-3-1.7s-1.1-.13-1.8-.38a8.12,8.12,0,0,1,.09.89A5.22,5.22,0,0,1,35.49,19a18.65,18.65,0,0,1-.68,2.15,13.62,13.62,0,0,1-1.19,2.17,11.06,11.06,0,0,1-1,1.1c.08.17.17.37.24.55a4.2,4.2,0,0,0,1.08.16c.43,0,.94-.16,1.45-.19a3.43,3.43,0,0,1,1.77.31c.44.28.16.42.49.78s-.55.4.49.39A33.29,33.29,0,0,0,43.75,25Z"></path>
      <path class="cls-16" d="M37.58,17.66a8.12,8.12,0,0,1,.83.64c.32.26.88.76,1.19,1.06a10.52,10.52,0,0,1,.79.89c.25.3.33.48.57.81a8.31,8.31,0,0,0,.65,1.08,1.72,1.72,0,0,0,1.39.17c.65-.2,2.38-.28,3.36-1.26s1.54-.23,3.23-1.34S53,10,54.4,8.44s1.6,1.15,2.05,2.35,1.1,4.4,3,4.3,3.57-.85,4.28,2.34-.17,8.08-.85,10.75-1.67,3.66-.63,5.81,3.94,1.53,5.61,1.71c.58-.38,1.26-.67,1.77-1A2.16,2.16,0,0,0,70.24,33c.07-.62-.36-1.77,0-2.27a14.67,14.67,0,0,1,1.27-1.17c.5-.49,0-.72-.59-1.22a1.16,1.16,0,0,1,.19-1.81A2.72,2.72,0,0,0,72.25,25c.25-.67.23-1.18.45-1.91s-.53-.44-.87-.23-1.31.58-1.52-.1a6.52,6.52,0,0,0-.73-2c-.39-.42-.71-.16-.89-.85s.47-1.79.81-2.35c.2-.29-.15-.68-.42-1a5.62,5.62,0,0,1-.84-1.79c-.14-.58-.27-.45-.65-.53s-1,.09-1.31-.55a1.91,1.91,0,0,1,.41-2.15c.6-.38.55-.37,0-.73a3.49,3.49,0,0,1-1.36-1.91,5.18,5.18,0,0,0-.69-1.68c-.37-.74-.81-1.38-1.36-1.23s-2.76,1.1-2.39-.12.91-1.63-.08-2.13-1.15-.48-1.4-1.5S59.1.66,58.06.49A34.4,34.4,0,0,0,53.53.16c-.91,0-.52.06-1,.53s-.54.78-1.32.56a4.05,4.05,0,0,0-2.6.35,17.44,17.44,0,0,0-2.27,1.06,2.16,2.16,0,0,0-.67,1.14c-.19.48-.08,1.19-.38,1.57s-.55.31-.9.41-.9.12-1.08.51a1.58,1.58,0,0,0-.26.88,4.73,4.73,0,0,0,.11,1.23c.11.57,0,.91-.57.56s-3.08-.52-2.19.94c0,.51.08.77,0,1.32s-.13,1-.24,1.78a2.21,2.21,0,0,0,.3,1.2c.3.59,0,2.32-.93,2.56a13.93,13.93,0,0,1-2.83.57C37,17.49,37.29,17.48,37.58,17.66Z"></path>
      <path class="cls-14" d="M38.54,50.51c-.25-.25-.58-.13-1-.36a1.11,1.11,0,0,0-.88-.18,12.37,12.37,0,0,0-1.35.49c.08-.3.22-.55.3-.87s.16-.84.2-1.14,0-.42,0-.69c-.24,0-.42,0-.67,0a1.16,1.16,0,0,0-.76.44,1.69,1.69,0,0,0-.43.9,9.42,9.42,0,0,0,.1,1.23c.06.34.28.95.32,1.13s0,.38-.07.32c-.28-.16-.5-.15-.76-.72s-.73-2.13-1-2.83a3.35,3.35,0,0,0-1.06-1.69c-.41-.21-.43-.11-.74-.35.19-.24.35-.26.53-.57a4.33,4.33,0,0,0,.38-2,10.24,10.24,0,0,0-.23-1.35c.28,0,.08,0,.48,0a4.79,4.79,0,0,0,1.84-.43,2.26,2.26,0,0,0,.9-1.83A2.35,2.35,0,0,0,34,38.41c-.36-.31-.79-.39-1-.67s-.24-.41-.47-.69c.68-.15.14-.21,1.07-.37s2.38.39,3.85-.1,4.12-1.93,5.8-2.57c.94,0,1.8,0,2.7,0,1,1.12,1.93,1.51,2.92,2.81a54,54,0,0,1,3.08,4.93c-2.94,2-9,6.26-11.18,7.72S40,49.57,38.54,50.51Z"></path>
      <path class="cls-13" d="M50.53,41.05a8.92,8.92,0,0,1-.28-3.54c.18-1,.71-3.69,1.45-4a6.5,6.5,0,0,0-1.2-1.27,6.76,6.76,0,0,0-2.66-1.2,2.7,2.7,0,0,0-1.84.32,3.07,3.07,0,0,1-1.39.61L43,35l1.23.13c.41,0,1-.08,1.38,0a2.7,2.7,0,0,1,1,.29c.24.16.32.37.54.69s.55,1.17.77,1.56a9.52,9.52,0,0,0,.52.93,15.24,15.24,0,0,0,1,1.12C49.82,40.08,50.19,40.65,50.53,41.05Z"></path>
      <path class="cls-16" d="M35.88,27.62c.51-.36,1.33-1.07,1.77-1.37a9.2,9.2,0,0,1,1-.53c.35-.19.63-.32,1-.48s.71-.33,1-.46.59-.22.9-.32a1.38,1.38,0,0,1,.94,0c.31.12.58.07.87.31s.33-.18.68.35.78-.35,1.05,1.44,1.64,4.22-.48,7.44-8.21,6-12,3a2.53,2.53,0,0,0,.86-.33c.31-.19.66-.23,1-.66a5.47,5.47,0,0,0,.56-2.08,12.32,12.32,0,0,0-.13-2.39c-.1-.57-.09-.77.25-.94s1,0,1.3,0,.94.53.94.15a23,23,0,0,0-1.14-2.38A5.44,5.44,0,0,1,35.88,27.62Z"></path>
      <path class="cls-13" d="M50,85.28c-.16-3.7,0-8.38.12-11.84s-.35-5.81-.5-9c-1.21-1.6-2.41-3.28-3.61-4.91l-2.94.88a3.55,3.55,0,0,1,.51,1.17,2.76,2.76,0,0,1-.37,1.74c-.28.29-.42.33-.65.61.22.06.41.25.63.29s.53-.06.8,0c0,.51-.05,1.24-.07,1.71s0,.77,0,1.18a2.78,2.78,0,0,1-.15,1.07A3.64,3.64,0,0,1,43,69.18c-.36.39-1.11.95-1.54,1.36,0,.15.1.29.15.44l1.36.26c.28.66.51,1.37.81,2,.09.2.32.23.43.4l-.67,1.27c.07.52.22,1,.28,1.54s0,1,.12,1.46A4.39,4.39,0,0,0,44.19,79c.25.73.93,2.44,1.31,3.33.81.56,1.8,1.26,2.56,1.73S49.31,84.8,50,85.28Z"></path>
      <path class="cls-16" d="M49.85,81.44c.25-.11.49-.32.75-.46.1-.68.27-1.46.35-2.12s.16-.84.22-1.55.06-2,.1-2.74a16.27,16.27,0,0,0,0-2.41c-.09-.71-.15-1.1-.19-1.82S51,68.88,51,68.07s.12-2.1.18-2.86.43-.58.26-1.46a17.3,17.3,0,0,0-1-3.94A23.82,23.82,0,0,0,49,57.76c-.8.34-2.85.93-3.24,1.69s.31,1,.17,1.68a8.94,8.94,0,0,1,1,.75,8.19,8.19,0,0,1,.84.92,6.38,6.38,0,0,1,.69,1,2.64,2.64,0,0,1,.25,1c.11.64.31,2.4.4,3.12s.1.5.18,1.25.18,2,.19,2.94a3.46,3.46,0,0,0,.1,1.22,3.85,3.85,0,0,1,.3,1.77c-.1.64-.36.54-.21,1.57S49.83,80.15,49.85,81.44Z"></path>
      <path class="cls-16" d="M51.5,63.84c-.39-1-.87-2.6-1.24-3.39A9.49,9.49,0,0,0,49.34,59c-.37-.61-.86-1.12-1.25-1.77-.13-1.71-.29-4.84.12-6.21s1.12,0,1.51-1.1-1-5.63-.74-6.86A1.3,1.3,0,0,1,50.58,42c.3.11.44.27.41.1-.1-.66-.34-.6-.54-1.34a9.12,9.12,0,0,1-.65-3.06,16.67,16.67,0,0,1,.84-3.86c.34-.68.38-.28.65-.8.17.47.48.52.64,1a6.06,6.06,0,0,1,.5,1.6c.15.94.18,2.54.31,3.9s.42,4.72.52,5.86.08,1.28.12,1.87,0,.86-.24,1.06a.73.73,0,0,0-.31.57c0,.33-.17.6-.24,1s-.17.83-.21,1.24a10.67,10.67,0,0,0-.08,1.07c0,.49,0,1.21,0,1.8s0,1.12,0,1.79.09,1.58.08,2.32a20,20,0,0,1-.12,2.31c-.09.73-.35,1.85-.48,2.43S51.61,63.39,51.5,63.84Z"></path>
      <path class="cls-13" d="M40,61.13c.23.27.34.49.72.38A6.35,6.35,0,0,0,41.88,61a3.64,3.64,0,0,1,1.57-.58,5.36,5.36,0,0,1,2.19.53c.68.33.68-.44,1.26-.82s1.21.82,1.76-.57-.22-6.23.32-7.44,1.09-.46,1.54-.23.88-1.26.55-2.29-1.93-6-1.31-7,.75-.17,1.25-.23c-.32-.24-.62-.73-.94-1a7.34,7.34,0,0,0-1-.6c-.29-.16-.38-.11-.65-.24L47.35,40c-.26-.11-.29-.1-.5-.18l-.72-.26c-.18-.06-.2-.11-.36-.13a.84.84,0,0,0-.44,0c-.16,0-.22.15-.44.22s-.73.24-1,.3a4.37,4.37,0,0,1-.7.07c-.24,0-.53,0-.75,0s-.34-.1-.55,0,0,.06-.2.25-.65.9-.83,1.16-.33.52-.44.72a4.15,4.15,0,0,0-.23.49c-.08.18-.11.33-.18.51s-.08.37-.16.56-.14.45-.24.63-.26.27-.37.43l.7-.41c.29-.15.82-.51,1.1-.64a4,4,0,0,1,.7-.31,1.6,1.6,0,0,1,.57,0,1.39,1.39,0,0,1,.51.2,2.8,2.8,0,0,1,.46.4,4,4,0,0,1,.37.48c.15.19.28.54.44.74s.33.27.48.42c-.13.07-.07.1-.25.18s-.69.19-.91.28a4,4,0,0,0-.55.28,7.19,7.19,0,0,0-.57.52c-.17.14-.25.23-.41.37s-.22.21-.42.38-.63.58-.83.74a3,3,0,0,1-.38.29L39.7,49c-.26.16-.74.41-1.05.6a11.49,11.49,0,0,0-1,.57,3.23,3.23,0,0,0-.62.67,3.61,3.61,0,0,0-.45.81c0,.1-.07.3,0,.37a1.58,1.58,0,0,0,.54.47.91.91,0,0,0,1.07-.11,10.2,10.2,0,0,1,1.6-1.3A10.75,10.75,0,0,1,41,50.79c-.14.18-.4.33-.51.51-.21.33-.5.94-.64,1.21s-.06.21-.17.41c.29,0,.53-.17.82-.13a2.59,2.59,0,0,1,.93.3,5.32,5.32,0,0,1,.86.66c.19.19.24.49.43.69-.3.11-.21,0-.59.17s-1.21.54-1.68.73c.2.2.36.23.59.46a7.34,7.34,0,0,1,.88.81,2.61,2.61,0,0,1,.4.86,5.57,5.57,0,0,1,0,1.53,1.89,1.89,0,0,1-.4.83,9,9,0,0,1-1.15,1C40.39,61.06,40.25,61,40,61.13Z"></path>
      <path class="cls-13" d="M54.61,89.52c-.4,0-.88.06-1.08-.88a7,7,0,0,1,.85-3.72c.86-1.61,1.74-4.38,2.43-5.79s-.06-1.66,0-2.82,1.81-3.13,1.87-4.81,1.91-3.37,1.57-4.85-2.52-.87-3.37-1c.49-.93,1.34-2.53,1.78-3.34s.76-1.34,1.06-1.87.38-.62.61-1,.38-.55.6-.92c0,.26.1.11.05.46a2.08,2.08,0,0,0,0,1.49c.31.5,1.09,1.17,1.64,1a5.71,5.71,0,0,0,1.37-.7c0,.33.1.44,0,.82a8.54,8.54,0,0,1-.55,1.5,5.49,5.49,0,0,1-1,1.09c-.29.27-.32.25-.28.76s.49,1.07.26,1.73a4.47,4.47,0,0,1-1.3,1.8c-.51.42-1.3.92-1.77,1.26a1,1,0,0,0-.34,1.45,1.43,1.43,0,0,0,1.53.38c.49-.18.28.28.21.87a2.06,2.06,0,0,1-1.15,1.35c-.47.09-.95.81-.69,1.25s.28.36.49.7c.2-.11.41-.17.62-.27-.08.29,0,.43-.16.76a4.22,4.22,0,0,1-.53,1.09c-.22.3-.66.38-.34.9A4.31,4.31,0,0,1,60,80a4.93,4.93,0,0,1-.46,2.4c-.12-.33-.17-.59-.29-1s-.36-.91-.7-1a1,1,0,0,0-1.06.09,1.17,1.17,0,0,0-.2,1.25c.19.39.91.8.88,1.19s-.19.4-.46.68a15.42,15.42,0,0,1-1.43.95c-.31.25-.31.31-.34.7s.06.89,0,1.29a1.2,1.2,0,0,1-.46.94c-.26.15-.33.23-.26.54s.65.89.31,1.06S55,89.53,54.61,89.52Z"></path>
      <path class="cls-12" d="M51.16,104.28a33.92,33.92,0,0,0-.87-3.56,20.36,20.36,0,0,1-.34-6.1c.22-1.62.3-2.12.46-3.72s.27-3.81.49-5.49a3.24,3.24,0,0,0,0-1.57c-.14-.82-.22-2.48-.44-3.49s-.65-2.83-.82-3.66A1.92,1.92,0,0,0,49,75.36c-.34-.3-.55,0-.85-.27a2.14,2.14,0,0,1-.63-1,10,10,0,0,0-1-1.82,4,4,0,0,0-.93-1,1.67,1.67,0,0,0-1.65-.16c-.44.26-.76.3-1,.73s-.36,1-.59,1.46c.28,0,.49-.13.78-.11a1.74,1.74,0,0,1,.83.26c.31.16.1.54-.08.66s-.54.47-.41.62c.33.37.11-.12.71.33a9.29,9.29,0,0,1,2.49,2.62c.24.46,1,1.61,1.32,2.17s.67,1.24.92,1.79.46,1,.66,1.53.22,1,.37,1.49c-.22-.3-.32-.57-.55-.87s-.24-.61-.69-.78-1.34-.44-1.86-.71a8.91,8.91,0,0,1-1.63-1.09c-.43-.36-.36-.54-.9-.65s-1.43-.09-2-.17c.23.34.18.28.49.71s1,1.41,1.36,1.92.83,1,1.23,1.43.82.77,1.22,1.2c-.3.12-.75.27-1,.39a6.26,6.26,0,0,1-.55.31c.24.45,0,.46.45,1A6.93,6.93,0,0,1,47,89.72c.24.89.42,1.5.68,2.33s.26,1.24.62,2.2A13.27,13.27,0,0,1,49.24,98a19.68,19.68,0,0,0,.82,4.11A11.39,11.39,0,0,0,51.16,104.28Z"></path>
      <path class="cls-17" d="M51.15,104.25c-1.26-2.13-1.76-5.6-2.14-7.75s-1-3.08-1.35-4.66A8.52,8.52,0,0,0,46,88.05,2.68,2.68,0,0,1,45,86.49c-.2-.65,1.76-.59,1.48-.81s-2.44-2.12-2.6-2.79-1.75-2.21-1.6-2.4a5.94,5.94,0,0,1,2.5.29c.65.22-.76-2.15-.83-3s-.1-2.54-.72-2.85S44.68,74,44.32,74s-1.25-1-2-.35a5,5,0,0,1,1-2.27c-.35-.36-1.77.12-1.83-.7s2.2-1.7,2.35-2.95-.15-2.42.15-3.54A1.83,1.83,0,0,1,42.46,64a2.74,2.74,0,0,0,.88-3c-.05-.2-.28-.57-.83-.31S40.66,62,40,61.14c.94-.53,1.74-.53,2.23-2.12a2.82,2.82,0,0,0-2-3.53c.6-.81,2-.48,2.48-1.19s-2.66-1.85-3-1.36c.37-.92.61-1.9,1.51-2.18s-2,.92-3.1,1.71c-.11.08-.78.33-1,.06s-.49-.35-.68-.63c.25-.67.93-1.11,1.15-1.75s-2,.23-2.23.58.45-2.08.54-3c-2.08,0-1.9,2-1.33,4-.8.1-1.6-1.57-1.67-2.92s-1.65-2-2-2.7,1.61-2,.59-3.88c1.32,0,3.11-.17,3.12-2.19S33,38.53,32.5,37.05a3,3,0,0,0,2.27-2.25c.37-1.32,0-2.31,0-3.63s1.94-.49,2.65-.11-1-2.26-1.54-3.4c.52-.7,1.31-.41,1.68-1.51S35.49,24.82,34.84,25s-1.94.51-2.25-.58a8.26,8.26,0,0,0,2.46-3.93,4.89,4.89,0,0,0,.26-3.64,3.17,3.17,0,0,0,2.82.35c1.33-.26,3.44-1.37,2-3.8a6.91,6.91,0,0,0,.12-3.92c-.42-1.2,2.52-.45,2.82-.26s-.3-2.31.29-3A2.59,2.59,0,0,1,45,5.71c.6,0,.55-2.73,1.53-3.16S49.34,1,50.23,1s.85.34,1.58.3S52.08.16,53,.2s3.74.18,4.67.23,1.18.17,1.58.77,0,1.31.49,1.81a7.45,7.45,0,0,0,2,1.11c-.19.6-1.17,1.42-.66,2.22s1.84-.71,2.63-.38,1.47,2.46,1.8,3.48,1.44,1.34,2,2.08c-.62-.1-1.05-.21-1.38.73a1.54,1.54,0,0,0,1,2c.58.06.71,0,.8-.48a13,13,0,0,1,.49,2c.12.72,1,.86,1.28,1.42-.46.56-1.33,1.91-1,2.68s1.11.67,1.23,1.44.24,1.58.78,1.81,1.79-.78,2-.5-.45,3.22-1,3.51-1.43,1.44-1,2,1.28.49,1.2,1.14-1.79.72-1.63,1.88a4.93,4.93,0,0,1-.58,3.52c-.7.85-1.67.54-2.31,1.41s2.1,2.21,2.52,2a4.77,4.77,0,0,1-1.48,3.47c-.77.5-1.46,0-1.55,1.15a3.94,3.94,0,0,1-1.38,2.59c-.69.62-1.28,1.4-.87,2.36s1,1.08,1.41,1.84c-.49.36-.75.25-1,1.15s-1.31,1.69-1.51,2.88a11.41,11.41,0,0,1-1.4,3.8c-.62,1-1.59,1.82-1,3.17s2,1.17,3,.33a3.94,3.94,0,0,1-1.75,3.53,2.37,2.37,0,0,0,.15,1.6,2.88,2.88,0,0,1-1.6,2.82c-.9.34-2.58,1.66-1.77,2.44s1,.56,1.59.38-.12,1.66-.41,1.91-1.53.31-1.34,1.23.55,1.3,1.29.69A8.63,8.63,0,0,1,59.6,77c-.22.63-1,.47-.33,1.46a3.7,3.7,0,0,1,.16,4.07,2.39,2.39,0,0,0-.89-2.08.9.9,0,0,0-1.38.7c-.11.79.62,1.34,1,1.7s-1,1.31-1.29,1.47-.92.32-.93,1a7.53,7.53,0,0,1,0,1.92c-.16.5-.58.09-.65.54s.2.83.33,1.24-1.48.56-1.92,1.12a4.62,4.62,0,0,0-1.11,3,17.86,17.86,0,0,1-.31,4.77c-.38,1.53-.57,4.48-1,5.75S50.51,100.17,51.15,104.25Z"></path>
      <path class="cls-18" d="M50.37,1c.1,1,.22,2,.26,2.94a19.49,19.49,0,0,1-.12,3,23,23,0,0,0-.17,5.85c.11,1,.17,2,.36,2.92a12,12,0,0,0,.95,2.75,19.71,19.71,0,0,1,1.66,5.69,12.45,12.45,0,0,1-.06,3c-.14,1-.37,2-.52,2.91a24.25,24.25,0,0,0,.09,5.83c.32,3.9.57,7.88.94,11.73.07.47.19.93.28,1.44a5.77,5.77,0,0,1,.05,1.55c-.12,1-.25,1.94-.3,2.93A30.6,30.6,0,0,0,54,59.29a28.53,28.53,0,0,1-.32,5.95c-.07.94-.07,2-.15,2.94s-.14,1.95-.15,2.92c-.05,3.89.46,7.83,0,11.82a20.29,20.29,0,0,0-.34,2.9c0,1-.12,2-.19,3a39.86,39.86,0,0,0-.27,5.88h-.08a18.24,18.24,0,0,1-.11-3l.1-2.94c0-1,.09-2,.09-2.94a20.88,20.88,0,0,1,.26-3c.3-3.85-.24-7.79-.28-11.75,0-1,.08-2,.15-3s.08-1.93.15-3a28.59,28.59,0,0,0,.33-5.79,31.25,31.25,0,0,1-.11-6c.06-1,.22-2,.34-2.94a4.9,4.9,0,0,0,0-1.38c-.07-.47-.19-1-.26-1.46-.34-4-.55-7.86-.83-11.79l-.19-3a14.17,14.17,0,0,1,.17-3c.16-1,.4-1.94.54-2.9a11.66,11.66,0,0,0,.09-2.89,19.24,19.24,0,0,0-1.56-5.61,12.44,12.44,0,0,1-.93-2.82c-.19-1-.23-2-.32-2.94a22.85,22.85,0,0,1,.25-5.9,20.47,20.47,0,0,0,.15-2.93c0-1-.13-2-.22-2.94Z"></path>
      <path class="cls-18" d="M43.06,9.27A10.66,10.66,0,0,1,45.24,12c.51,1.05.89,2.16,1.4,3.2.25.53.51,1.06.77,1.57a7.27,7.27,0,0,1,.72,1.61c.35,1.13.48,2.3.79,3.41s.94,2.13,1.19,3.3.43,2.29.78,3.41a69,69,0,0,1,1.82,6.78l-.39.06a65.83,65.83,0,0,0-1.72-6.77c-.33-1.12-.49-2.3-.73-3.43S49,23,48.73,21.84s-.41-2.3-.74-3.42a7.93,7.93,0,0,0-.68-1.59c-.27-.52-.52-1-.76-1.58-.49-1.06-.86-2.18-1.35-3.23A10.78,10.78,0,0,0,43.06,9.27Z"></path>
      <path class="cls-18" d="M39.87,16.54a11.47,11.47,0,0,1,3.64,1A8.52,8.52,0,0,1,46.44,20a12.74,12.74,0,0,1,1.05,1.58c.32.56.53,1.16.83,1.7.61,1.07,1.66,1.91,2.07,3.2l-.29.07c-.33-1.17-1.35-2-2-3.16-.31-.57-.5-1.18-.8-1.72a11.43,11.43,0,0,0-1-1.58,8.38,8.38,0,0,0-2.84-2.42A11.33,11.33,0,0,0,39.87,16.54Z"></path>
      <path class="cls-18" d="M37.61,26.26A23,23,0,0,1,39.85,25a5,5,0,0,1,2.45-.63,3,3,0,0,1,1.2.43c.38.16.8.29,1.19.44a4.73,4.73,0,0,0,1.23.26,5.43,5.43,0,0,0,1.24-.2,3.17,3.17,0,0,1,1.3,0,1.72,1.72,0,0,1,1,.79,10.87,10.87,0,0,1,.74,2.46,5.07,5.07,0,0,0,.41,1.17c.2.33.53.66.72,1.05a15.22,15.22,0,0,1,.86,2.42l-.28.09A14.29,14.29,0,0,0,51.14,31c-.17-.38-.47-.66-.7-1.06A5.42,5.42,0,0,1,50,28.68a10.07,10.07,0,0,0-.68-2.42,2,2,0,0,0-2.16-.77,5.26,5.26,0,0,1-1.27.17,4.59,4.59,0,0,1-1.26-.28c-.4-.15-.79-.28-1.19-.45a2.72,2.72,0,0,0-1.17-.45,4.89,4.89,0,0,0-2.43.6A24.08,24.08,0,0,0,37.61,26.26Z"></path>
      <path class="cls-19" d="M37.15,17.34a18.72,18.72,0,0,1,2.48,2.05,12.8,12.8,0,0,1,2.13,3.11,5.88,5.88,0,0,0,2.85,2.83"></path>
      <path class="cls-20" d="M53.71,51a36.56,36.56,0,0,0-1.48-5.79,26.78,26.78,0,0,0-1.59-4,7.33,7.33,0,0,0-1.65-2c-.83-.75-1.31-2.38-2-3.43s-1.62-.75-2.79-.79a6.6,6.6,0,0,1-4.09-1.43c-1.05-1-1.86-2.35-3.11-2.62,2.14.76,5,1.59,7.06,1.3s2.65-1.78,4.75-.94,3.52,2.49,3.84,5.64a5.83,5.83,0,0,1,1.43-4.19,11.58,11.58,0,0,0,1.79-6.05c-.08-1.87-.86-2.56-.13-4.17s2.53-2.33,2.78-4.25-.66-3.92,0-5.54,1.7-2.28,2-4,0-3.51,1.32-4.64"></path>
      <path class="cls-18" d="M51.21,42.94a5.73,5.73,0,0,0-1.71-1.82,10.38,10.38,0,0,0-1.16-.52l-1.17-.54a7.14,7.14,0,0,0-1.2-.43c-.23-.07-.37-.15-.56-.05l-.61.23a5.5,5.5,0,0,1-2.57.34A2.8,2.8,0,0,1,41,39.68a6.13,6.13,0,0,0-1.17-.52,12.56,12.56,0,0,0-2.51-.51,8.75,8.75,0,0,1-4.84-1.6,8.68,8.68,0,0,0,4.85,1.52,13.1,13.1,0,0,1,2.54.49,5.69,5.69,0,0,1,1.19.51,2.82,2.82,0,0,0,1.18.44,5.47,5.47,0,0,0,2.49-.37l.6-.24a.61.61,0,0,1,.36,0l.33.08a9.45,9.45,0,0,1,1.23.43l1.18.52a12.11,12.11,0,0,1,1.2.52,5.94,5.94,0,0,1,1.82,1.88Z"></path>
      <path class="cls-20" d="M50.33,100.78a20.16,20.16,0,0,1-.25-7c.23-2,.31-3.75.49-5.34a21,21,0,0,0,.32-4,12,12,0,0,1-.31-3.24,34,34,0,0,0,.64-4.54,44.17,44.17,0,0,0,0-4.88,27.25,27.25,0,0,1,.28-7.83,19,19,0,0,0,.89-6.2c-.1-2.27-.28-5.78.19-7.72a6,6,0,0,0,0-3.82"></path>
      <path class="cls-18" d="M52.41,49.91a8,8,0,0,0-3.7-3.35,8.48,8.48,0,0,0-2.46-.63L45,45.76a2,2,0,0,1-.65-.2,1,1,0,0,1-.43-.55,2.09,2.09,0,0,0-.7-1,1.8,1.8,0,0,0-1.1-.52,2.17,2.17,0,0,0-1.18.4l-1.14.62a11.44,11.44,0,0,0-2.15,1.42c-.65.57-1.18,1.26-1.8,1.86.61-.61,1.13-1.31,1.76-1.9a11.16,11.16,0,0,1,2.15-1.46l1.12-.65a2.35,2.35,0,0,1,1.24-.44,2,2,0,0,1,1.21.54,2.34,2.34,0,0,1,.77,1.07.94.94,0,0,0,.93.61l1.29.14a8.73,8.73,0,0,1,2.55.62,8.25,8.25,0,0,1,3.93,3.43Z"></path>
      <path class="cls-18" d="M45.22,45.8a5,5,0,0,0-2.12.55,16.23,16.23,0,0,0-1.69,1.45,15.29,15.29,0,0,1-3.82,2.38,15.13,15.13,0,0,0,3.72-2.49A15.43,15.43,0,0,1,43,46.16a5.24,5.24,0,0,1,2.18-.65Z"></path>
      <path class="cls-19" d="M41.91,40a17,17,0,0,0-1.48,2.18c-.43.81-.49,2-1.17,2.58"></path>
      <path class="cls-20" d="M51.52,63.86c-.62-1.81-.87-3.18-2-4.69A27.05,27.05,0,0,1,46.1,54c-1-2.14-2.76-4-5-3.24"></path>
      <path class="cls-20" d="M51.11,70.89a41.37,41.37,0,0,0-2.68-7C46.8,61.26,45,60.1,42.58,60.59"></path>
      <path class="cls-18" d="M50.35,81.23c-.18-1.5-.67-3-.88-4.52a11.27,11.27,0,0,1,0-2.32,4.64,4.64,0,0,0-.53-2.17v0a14.85,14.85,0,0,1-1.52-1.88,17.83,17.83,0,0,1-.83-2.28,9.78,9.78,0,0,0-.91-2.22c-.45-.67-.91-1.33-1.32-2,.42.68.9,1.33,1.36,2a10,10,0,0,1,1,2.22,16.63,16.63,0,0,0,.87,2.23,13.18,13.18,0,0,0,1.54,1.84h0a4.92,4.92,0,0,1,.6,2.26,10.81,10.81,0,0,0,.08,2.28c.24,1.5.76,3,1,4.51Z"></path>
      <path class="cls-18" d="M49.41,76.45a3.22,3.22,0,0,0-.44-.89c-.21-.24-.53-.26-.89-.42a1.47,1.47,0,0,1-.64-.88,10.13,10.13,0,0,0-.42-1,5.52,5.52,0,0,0-1.23-1.65,1.68,1.68,0,0,0-1.89-.41,1.73,1.73,0,0,1,1.94.36,5.6,5.6,0,0,1,1.31,1.63c.17.31.32.63.46,1a1.33,1.33,0,0,0,.56.75c.27.12.71.14,1,.44a3.57,3.57,0,0,1,.52,1Z"></path>
      <path class="cls-20" d="M50.61,88.4c-.55-2.22-.24-2.34-1-4.92S46,75.42,43.23,74.92"></path>
      <path class="cls-20" d="M50.27,86.52c-.46-1.2-.55-2.93-1.74-3.43s-2.84-.94-3.77-2.28"></path>
      <path class="cls-20" d="M52.77,87a24,24,0,0,1,1.39-6,28,28,0,0,0,1.37-4.76c.53-1.82,1.82-4.49,3.19-5.56"></path>
      <path class="cls-18" d="M54.66,79.58a20.12,20.12,0,0,1-.39-5.48c.11-.91.26-1.81.38-2.72a20.4,20.4,0,0,0,.38-2.7h0a7.07,7.07,0,0,1-.17,2.75,9.48,9.48,0,0,0-.46,2.68c0,1.82.32,3.62.26,5.47Z"></path>
      <path class="cls-18" d="M52.82,70.71a18.93,18.93,0,0,0,2.65-2.81,27.19,27.19,0,0,0,1.86-3.4c.59-1.15,1.2-2.3,1.85-3.43.33-.56.67-1.12,1-1.65a8.75,8.75,0,0,1,.58-.78,1.69,1.69,0,0,1,.75-.6,1.72,1.72,0,0,0-.73.61c-.2.26-.38.52-.56.79q-.52.83-1,1.68c-.62,1.14-1.2,2.3-1.76,3.47a30.11,30.11,0,0,1-1.79,3.48A18.66,18.66,0,0,1,53.1,71Z"></path>
      <path class="cls-18" d="M56.17,66.8a24.71,24.71,0,0,0,6.14-2.48,25,25,0,0,1-6,2.86Z"></path>
      <path class="cls-17" d="M53.34,64.42c.49-2,.65-4.3,1.62-6.12a49.9,49.9,0,0,0,3.22-6.71,4.31,4.31,0,0,1,1.68-2.7,2,2,0,0,1,1.1-.54,7.34,7.34,0,0,1,5,1.09"></path>
      <path class="cls-17" d="M67.25,36c-2.36,1.32-3.57,6.36-4.44,8.69s-1.2,3-2.67,4.06"></path>
      <path class="cls-18" d="M57.41,53.4a16,16,0,0,0,1.37-6.85A29.87,29.87,0,0,1,59.25,43a3.08,3.08,0,0,1,1-1.54A3.9,3.9,0,0,0,61,40a7,7,0,0,1,1.9-3,12.81,12.81,0,0,0,1.2-1.25c.37-.44.64-1,1-1.43A16.69,16.69,0,0,1,68,32.11c.94-.7,1.9-1.38,2.87-2.05l0,0c-.9.76-1.82,1.5-2.75,2.22a17.63,17.63,0,0,0-2.64,2.26c-.36.43-.64,1-1,1.42a11.65,11.65,0,0,1-1.24,1.29,6.73,6.73,0,0,0-1.87,2.86,4.38,4.38,0,0,1-.9,1.56,2.68,2.68,0,0,0-.91,1.4A26.89,26.89,0,0,0,59,46.57a16,16,0,0,1-1.54,6.85Z"></path>
      <path class="cls-20" d="M53.72,49.73c.11-1.19-.19-2.63.51-3.66s1.87-2.13,2.07-3.74a37.42,37.42,0,0,1,.84-5.55c.46-1.47.93-2,1.43-3.32A42,42,0,0,0,60,29.15a16.47,16.47,0,0,1,2.12-4.56c.88-1.38,1.28-2.11,2.43-3.7a22.65,22.65,0,0,0,3.41-7.12"></path>
      <path class="cls-20" d="M63,35.64c-.12.61-.24,1.22-.33,1.83"></path>
      <path class="cls-20" d="M65.44,30c-.46.77-.67,1-1.23,1.81A11.74,11.74,0,0,0,63,35.62"></path>
      <path class="cls-20" d="M66.87,27.28a11.37,11.37,0,0,1-1.44,2.77"></path>
      <path class="cls-20" d="M69.86,22.18c-1.44,1-2.46,3.15-3,5.1"></path>
      <path class="cls-20" d="M64.24,31.78a21.69,21.69,0,0,1-.23-5,13,13,0,0,0-.23-4.89"></path>
      <path class="cls-20" d="M59.34,43.17a5.17,5.17,0,0,0,.13-3A11.3,11.3,0,0,1,59,36.53c.14-1.32-.23-3,0-4.33"></path>
      <path class="cls-18" d="M50.27,15c-.22-.88-.4-1.77-.69-2.62A5.92,5.92,0,0,0,49,11.13L48.26,10a24,24,0,0,1-1.37-2.35,2.75,2.75,0,0,0-.83-1A6.7,6.7,0,0,1,45,5.76a7.13,7.13,0,0,0,1.07.83,2.86,2.86,0,0,1,.87,1A23.81,23.81,0,0,0,48.34,10l.8,1.11a6.36,6.36,0,0,1,.58,1.24c.31.86.51,1.75.74,2.63Z"></path>
      <path class="cls-20" d="M55.69,22.57a54.92,54.92,0,0,0-1-7.21,12.62,12.62,0,0,1,1.12-7.61c.94-1.69,1.84-2.28,2-4S57.55.68,59.3,1.19"></path>
      <path class="cls-18" d="M55.17,8.68a8,8,0,0,0-.92-4.3,12,12,0,0,1-1-2A6,6,0,0,1,52.87.14a5.9,5.9,0,0,0,.43,2.2,11.72,11.72,0,0,0,1.08,2,8.35,8.35,0,0,1,1.09,4.37Z"></path>
      <path class="cls-18" d="M54.26,14.08a17.52,17.52,0,0,0-.44-2.84,2.81,2.81,0,0,0-.65-1.2l-1.05-1a5,5,0,0,1-1.25-2.61,15.57,15.57,0,0,1-.31-2.88A17,17,0,0,0,51,6.41a4.83,4.83,0,0,0,1.3,2.5l1.08.95a3.13,3.13,0,0,1,.76,1.3A18,18,0,0,1,54.65,14Z"></path>
      <path class="cls-17" d="M58.35,19.13a6.07,6.07,0,0,0,2.12-3c.54-1.49,1.77-2.75,2.26-4.47a14.4,14.4,0,0,0,.15-5.54"></path>
      <path class="cls-20" d="M66.13,12.23c-1.24,1.21-3,3.44-4.07,4.54s-1.6.92-2.7,1.39a18.4,18.4,0,0,1,.19,3.36c0,1.61,1.36,4.15,1,6"></path>
      <path class="cls-18" d="M62.59,11.82a4,4,0,0,1-1-2.58,13,13,0,0,1,0-2.72,12.85,12.85,0,0,0,.23,2.7,3.67,3.67,0,0,0,1.09,2.31Z"></path>
      <path class="cls-20" d="M62.79,16c-.74,2.6-1.47,5.46-2.86,7.61"></path>
      <path class="cls-20" d="M57.14,36.71a10.07,10.07,0,0,1-.65-3.77,6.9,6.9,0,0,0-.82-4"></path>
      <path class="cls-18" d="M49.41,73.36c-.1-.8-.1-1.61-.12-2.4a19.11,19.11,0,0,0-.21-2.39,26.93,26.93,0,0,0-.67-4.74,27,27,0,0,1,.77,4.73A19,19,0,0,1,49.43,71c0,.8.06,1.6.17,2.38Z"></path>
      <path class="cls-18" d="M60.81,48.22A12.62,12.62,0,0,1,62.67,47,4.36,4.36,0,0,0,64,45.37a21.49,21.49,0,0,1,1.15-1.88,4,4,0,0,1,1.65-1.42,3.85,3.85,0,0,0-1.57,1.48c-.4.61-.72,1.26-1.06,1.91a4.82,4.82,0,0,1-1.36,1.78,11.8,11.8,0,0,0-1.76,1.26Z"></path>
      <path class="cls-21" d="M95.58,50.67a10.66,10.66,0,0,1,2.63-2.61c1.17-.67,2.81-1.19,3.7,0s-.38-1.4-.35-1.59c-.55-.37-1-.8-1.64-.76s-2.46.06-2.47-1,.58-2.54,0-3.14a1.62,1.62,0,0,0-1.8-.31,3.61,3.61,0,0,1-.83-1.49c-.29-.77-.85-.72-1.7-.62a2.9,2.9,0,0,0-2.4,1.43c-.16.66,0,1.71-.68,2s-1.54,0-1.17-1.37a6.25,6.25,0,0,1,.64-1.14c.24-.36.82-1.33.34-1.83a2,2,0,0,0-1.7-.8c-.69.08-2.34.11-2.74.91s-.24,1.62-1,1.63-1-.39-1.42-1.16-1.31-1.27-1.61-.45a6.74,6.74,0,0,1-.92,2.22c-.44.4-.05.7-.43,2.09s-1.53,6.39-2.35,7.88-1.23,4.26.33,5.37,6.34,1.17,8.34.52,5.17-1.19,6.48-2.61S94.58,51.78,95.58,50.67Z"></path>
      <path class="cls-21" d="M51.46,102a24.7,24.7,0,0,1-1.17,2.6c-.23.52-.06.37-.26.55s-.08,0-.32.18a2.32,2.32,0,0,1-.86.55c-.47.18-.75-.37-.21-1.41a9.34,9.34,0,0,0,.48-3.49,11.56,11.56,0,0,1,.64-4.12c.36-1.07,1.06-2.53,1.35-3.35s0-1.47.39-1.87.71-.38.32-1A1.13,1.13,0,0,1,52,89.06c-.16-.53,0-.26-.46-.83a4.56,4.56,0,0,1-.83-3.33.6.6,0,0,1,.78-.28,1.83,1.83,0,0,0,1,.17c.35-.05.58-.33.45-.88s-.43-1.69-.11-2.23a2.71,2.71,0,0,0,.35-1.75c-.13-.43-.44-1-.17-1.11s.71.82.85,1.05.27,1,.56.93.15-.47.33-.8a4.92,4.92,0,0,0,.82-1.4c.07-.46-.12-1,0-1.38s.51-.1.64-.43-.21-.57,0-1,.66-.75.91-1.29a4,4,0,0,0,.52-1.81,9.25,9.25,0,0,0-.39-2.11c-.19-.68-.24-1,.39-1.34a3.42,3.42,0,0,0,2-1.92c.39-1.19,1.39-3.69,1.14-5.2a2.18,2.18,0,0,0-.06-1.39,2.25,2.25,0,0,1-.38-1.31c.1-.38.61-.15.83-.22s.32-.35.41-.65.14-.73-.18-.85-.76-.39-.75-.82.06-.68.39-.61.86.52,1.19.34a.55.55,0,0,0,.25-.86,1.68,1.68,0,0,1-.28-1.51,16.28,16.28,0,0,1,.69-2c.28-.48.55.36.84.58.07,0,.66.45.9.34s.32.08.3-.43a1.62,1.62,0,0,1,.54-1.45,1.38,1.38,0,0,0,.75-1.19c.11-.74.89-1,1.3-.16a4.84,4.84,0,0,1,.1,1.27c0,.35.41.74.77.59a1.57,1.57,0,0,0,.75-1.11c.1-.58.12-1.63.22-2.28A2.13,2.13,0,0,1,70.08,47c.36-.25.92-.64.54-.79s-.75.33-.75-.46A1.72,1.72,0,0,1,71.19,44a.82.82,0,0,1,.75.69c.07.49.4.64.7.53a3.21,3.21,0,0,0-.08-1c-.08-.44-.21-.88.21-1.27a3.47,3.47,0,0,1,1.64-1c.53-.05.93.37,1.37.28s.7-.78,1.16-.51a.87.87,0,0,0,1.22-.51c.09-.46.32,1.11.49,2s.89,1.44.31,3,.21.07-1.36,2.78S79,45.78,75,53.87,55.55,88.81,51.46,102Z"></path>
      <path class="cls-22" d="M88.74,57.18A24.29,24.29,0,0,1,92.66,54a15.63,15.63,0,0,0,1.9-1.66,4.87,4.87,0,0,0,1.14-2.08,2.85,2.85,0,0,1,.56-1.33c.31-.58,1.49-1.32,1.32-2.22s-.36-1.44-1-1.47-.77.24-1.44,1.16-2.28,3.64-3.06,4.69a15,15,0,0,1-2.12,2.48,8.87,8.87,0,0,1-3,1.6c-.77.19-1.59.64-1.87-.35s.8-2.37,1.37-3.19A13.94,13.94,0,0,1,89,49.27a2.47,2.47,0,0,0,1-1.88,4.79,4.79,0,0,1-.27-1.88,11.44,11.44,0,0,1,1-2.43,3,3,0,0,0,0-2.5c-.14.47-.32,1.14-.46,1.57s-.4.86-.71.61-.89-.37-.79-1a5,5,0,0,1,1.1-2.17c.43-.44,0-1.06-.13-1.53-.4.49-.83.57-1.16,1.24S88,41.56,87.43,42s-1,.33-1.57.48a2.55,2.55,0,0,1,.07-1.19,7.23,7.23,0,0,0,.23-1.5,9.09,9.09,0,0,1,.12-1.39c.36-.28.64-.36,1-.63s1-.06,1.19-.93-.92-.87-1.77-.75c-.14,0-1,.27-1.08,1.07a5.72,5.72,0,0,1-1,2.61.66.66,0,0,1-1,.07c-.26-.22-.22-.37-.43-.58.06.42.14.67.17,1.14a7.2,7.2,0,0,1-.11,1.73,6.48,6.48,0,0,0-.3,1.25,10.54,10.54,0,0,0,0,1.37c0,.41,0,1,0,1.3a1.81,1.81,0,0,1,0,.46c0,.2,0-.13,0,.19a5.12,5.12,0,0,1-.32,1.2,4.23,4.23,0,0,1-1.51,2,13.32,13.32,0,0,1-2.77,1.32c.1-.25.12-.38.26-.67a9.71,9.71,0,0,1,.59-1.09,4.66,4.66,0,0,1,.72-.9,1.8,1.8,0,0,1,.76-.44,2.64,2.64,0,0,0,.76-.13,2.12,2.12,0,0,0,.9-.63c.22-.31.22-.05.41-.59a3,3,0,0,0,0-2.35,14.14,14.14,0,0,0-1.43-1.91,3.46,3.46,0,0,1-.84-1,1.18,1.18,0,0,1-.1-1c.09-.31-.45-.53-.66-.69s-1-.68-1.21-.31A2.62,2.62,0,0,0,78.19,41a3.06,3.06,0,0,0,.15,1.12,11.25,11.25,0,0,1,.77,2.81,4.81,4.81,0,0,1-.54,2.43c-.46.79-1.47,2.2-1.88,2.93s-.44,1.1-.74,1.65-.73-.33-1.07-.62-1-.11-1.55,0-1.28-.34-2-.32a2,2,0,0,0-1.68.9c-.1.12-.43.2-.71.47s1.14,1.12,1.55,1.63c-.63-.07-.15-.1-1-.22a3.47,3.47,0,0,0-3.18,1.4c-1,1.29-1,2.1-1.47,3.95a14.59,14.59,0,0,0-.41,5.33c.11,2.77,1.45,10.59-.2,13.57S59.38,82.77,57.81,86a21.55,21.55,0,0,0-3.47,5.78A68.31,68.31,0,0,0,51.07,101c-.35,1.87-1,3.6-.41,2.8A17.13,17.13,0,0,0,52.82,100c.8-1.88,2.6-6.41,3.78-8.55A73,73,0,0,1,60.35,85c1.21-1.7,2.27-3.15,3.31-4.48a14.91,14.91,0,0,1,2.74-2.84c1.11-.91,1.86-1.44,3-2.51s1.58-1.39,3.12-2.91,5-5.1,6.71-6.81,3.12-2.92,4.69-4.35S87.32,58.53,88.74,57.18Z"></path>
      <path class="cls-23" d="M94.68,39.05A3.54,3.54,0,0,1,97,40.16c.83.81,2,.91,3.1,1.25A6.81,6.81,0,0,1,103.47,44c.72,1.2,1.93,3.87,1.56,5.27s-1.72.76-2.2.26a2.28,2.28,0,0,1-.86-1.86c-.12-.43,0-.89-.45-1.2a4.2,4.2,0,0,0-1.59-.77A10.68,10.68,0,0,1,98,45.6c-.43-.18-.52-.5-.58-1a14.2,14.2,0,0,1,.22-1.9c0-.52.13-.93-.21-1.18s-.79-.56-1.15-.46-.6.22-.9,0a2.9,2.9,0,0,1-.56-1.19A4.51,4.51,0,0,1,94.68,39.05Z"></path>
      <path class="cls-24" d="M104,50.47a29.58,29.58,0,0,1-2.76,1.65,10.93,10.93,0,0,0-1.78.83,6.63,6.63,0,0,1-1.77,1c-1.23.52-5.72,1.8-6.93,2.23s-.89.35-1.59.63-1.29.58-1.86.84a12.4,12.4,0,0,1-2,.94c-.33,0,.43-.6.78-1a7.87,7.87,0,0,1,2.53-1.79c.78-.22,1.68-.51,2.47-.71.08,0,0-.07.13-.13s.22-.13.36-.22l.54-.37.42-.3c.19-.15.47-.34.72-.55s.65-.55.89-.79a9.47,9.47,0,0,0,.7-.75c.18-.23.32-.49.45-.69s.1-.34.21-.52,0,0,.08-.06c.22-.26.28-.4.55-.7s.9-1,1.18-1.25a4.82,4.82,0,0,1,.6-.51,5.63,5.63,0,0,1,.72-.48,6.32,6.32,0,0,1,.92-.37,2.81,2.81,0,0,1,.73-.11,2.34,2.34,0,0,1,.66,0,1.09,1.09,0,0,1,.45.2c.14.1.22.3.34.44s.18.37.29.53.22.25.33.41.23.42.36.58.3.28.43.43a1.2,1.2,0,0,0,.49.29c.14,0,.55-.06.57,0S104.47,50.18,104,50.47Z"></path>
      <path class="cls-24" d="M88,56a9.35,9.35,0,0,1-2.37-.67c-.1-.05-.31,0-.44-.2a.89.89,0,0,1-.2-.68c0-.25,0-.33-.17-.36-.29.45-.41.8-.87,1.07a18,18,0,0,0-1.71,1,16,16,0,0,0-1.34,1.15c-.45.41-1.39,1.44-1.68,1.74s-.5.51-.58.27,0-.58,0-.91,0-.72-.32-.93-.56-.78-.81-1.24-.8-1.51-.94-1.88-1.13,2.87-1.45,3.17a5.47,5.47,0,0,0-.41.84,13.36,13.36,0,0,0-.52,1.55A10.62,10.62,0,0,0,74,61.3c0,.36,0,.42,0,.74-.12-.19-.12-.07-.23-.37s-.24-.73-.42-1.19-.64-1.65-.82-2a4.3,4.3,0,0,0-.3-.61s0,0-.09.16-.21.52-.3.73l-.32.72c-.1.21-.18.37-.28.56s-.21.35-.31.55-.17.38-.27.62l-.29.76c-.1.27-.18.48-.28.81s-.28.81-.39,1.17a3.12,3.12,0,0,0-.26,1,4.61,4.61,0,0,1-.14,1.43,5.7,5.7,0,0,1-.54,1.26,5.49,5.49,0,0,1-.8,1.09c-.28.22-.81,1-1,1s.06-.8-.18-1.11-.31-.82-.62-1.25-.7-1.18-1.06-1.65-.33-1-.75-1.52-1.79.62-1.94,1.65a21.72,21.72,0,0,0,.6,5,13,13,0,0,1-.89-2.46c-.15-.61-.6-2.09-.82-2.86s-.4-2.26-.53-2.82-.22-.07-.45,0-.74.57-1.05.69a7.72,7.72,0,0,0-.73.35c-.38.16-.57.58,0,.56s1-.13,1.18.4.35,1,0,1.39a2.21,2.21,0,0,1-1.27.8,2.14,2.14,0,0,1-1.17-.11c-.58-.16-.53.18-.1.55s1.25.78,1.19,1.28-.4.87-.79.67-1.15-.7-.87.12.42,1.14,1,1.36,1.45.26,1.82.71a1.5,1.5,0,0,1,.31,1.32c-.1.42-.3,1.2-.6,1.15s-.82-.75-.9,0A6.68,6.68,0,0,1,58.15,76c-.3.69-.52,2-.75,2.62s-.15.6-.69.51a.65.65,0,0,0-.6,1c.31.51.56.94.21,1s-.32-.21-.71-.15-.56.52-.41,1.16.53,1.9-.44,1.45-1-.38-.67,1,.71,1.67-.32,2.14c-.38-.25-.81-.35-1,.2s.32.71.07,1.23-1,1.13,0,1.7a1.76,1.76,0,0,1,.21,1.79,27.76,27.76,0,0,0-2,4.91c-.11.47-.19.08-.09,1.26a11.11,11.11,0,0,1-1.44,5.55c.23-.15,1.23-1.39,1.22-.33.54-2.21-.21-1.15.88-4s2-7.19,4.71-11A80.83,80.83,0,0,1,68.23,74.68a24.63,24.63,0,0,0,3.25-3.18,52.19,52.19,0,0,1,6.18-5.84c2.21-1.76,5-5.49,7.59-7a15.69,15.69,0,0,1,1.5-1.73C87.23,56.51,87.56,56.38,88,56Z"></path>
      <path class="cls-24" d="M95.66,45.52c-.78,1.27-1.32,2-2.14,3.37s-3.1,4.49-4.14,5.16-4.33,2.28-4.23.67a6.89,6.89,0,0,1,2.58-4.45c1.29-1.06,5-3.07,6-3.82a8.33,8.33,0,0,1,1.11-.7C95.33,45.41,95.23,45.67,95.66,45.52Z"></path>
      <path class="cls-25" d="M52.6,100.44a63.72,63.72,0,0,0,2.91-6.5,44.32,44.32,0,0,1,5-9.1c2.15-2.92,3.81-5.56,7-8.12A127.36,127.36,0,0,0,78.23,66.44c3.18-3.36,8.13-7.88,11.44-9.7s6.64-1.74,9-3.22,5.38-1.88,6.22-4.18-1-4.73-2-6.07A6.45,6.45,0,0,0,99,41.11c-1.45-.4-3-1.88-4.48-2s-3-.16-3.81,1.51-.53,3.1-2,1.19a5.18,5.18,0,0,1,1.09-2.12c.61-1-.4-2.18-1.18-2.32s-.06-.37,0-.61,0-.61-.55-.6-2.1-.3-2.39,1-1.16,4-2.23,2.33-1.8-2-2.38-.46S80.7,40.68,80,40.1s-1.5-1.19-1.72.29-.51,1.22-1.49,1.34c-.34,0-.32.26-.74.43s-1.64-.26-2.23,0-1.44,1-1.35,1.52.55,1.78-.09,1.45-.86-1.5-1.7-.88-1.06,1.82-.34,2,.61.3,0,.66a2.33,2.33,0,0,0-1,2.25c.06,1.21-.52,3.67-1.75,2.23.12-.83,0-2-.8-1.86s-.57,1.28-1.13,1.7a1.43,1.43,0,0,0-.7,1.34c-.06.69.25.71-.42.64s-.91-.33-1.18-1-.56.31-.72.81-.86,1.78-.37,2.38.4,1.33-.25,1.21-1.48-.86-1.33.5c0,.2.12.39.48.54s.78.35.31,1.16-.41-.12-.94.38.21.89.25,2-.5,1.82-2,2.47,0,.45.73.69.71,1.18.33,1.7a2,2,0,0,1-1.94.82c-.7-.23-1.61-.42-.57.42s1.75,1.52.39,2c-.16,0-.21.11-.52-.24s-.68-.42-.27.58a7,7,0,0,1,.76,3.28,4.31,4.31,0,0,1-1,2.4c-.5.53-.37.44-.28,1.11s-.28.34-.57.65-.08.77-.08,1.28-.74,1.27-.89,1.7-.26,1.09-.51.59S53,78.15,53,79.05s.39,1.24.11,2a3.07,3.07,0,0,0-.4,2.09c.19.94.34,1.87-.66,1.63s-1.43-.24-1.42,1.07a3.36,3.36,0,0,0,.86,2.39c.46.61.61.57.27,1.17a.9.9,0,0,0,.09,1.28c.37.43.24.36-.19.78s0,.24-.42,1.49-1.78,4.31-2,6-.1,3.94-.61,5.21-.55,1.51.25,1.52.57-.45,1.08-.64.67-1.35,1.12-2A13.2,13.2,0,0,0,52.6,100.44Z"></path>
      <path class="cls-18" d="M64.11,78.35l3-2.89a34,34,0,0,0,3.1-2.73,45.28,45.28,0,0,1,5.71-6c2.24-1.64,4-3.78,6-5.69a15.06,15.06,0,0,1,3.35-2.53,31.35,31.35,0,0,1,3.83-1.65l0,.06c-1.21.68-2.49,1.23-3.62,2a14.53,14.53,0,0,0-1.65,1.2c-.52.44-1,.92-1.49,1.41a47.32,47.32,0,0,1-6.11,5.63A44.78,44.78,0,0,0,70.44,73a33.42,33.42,0,0,1-3.21,2.65L64.16,78.4Z"></path>
      <path class="cls-18" d="M102.37,51.46a13.64,13.64,0,0,1-4.62,1.71c-.41.06-.83.06-1.23.11a7,7,0,0,0-1.2.27c-.78.25-1.53.59-2.29.91-1.5.72-3.19.9-4.69,1.56s-2.45,2.1-3.68,3.2L84.49,59c1.22-1,2.18-2.55,3.78-3.19S91.48,55,93,54.35a23.08,23.08,0,0,1,2.32-.88,6.23,6.23,0,0,1,1.21-.27c.42,0,.83,0,1.23-.09A13.73,13.73,0,0,0,102.37,51.46Z"></path>
      <path class="cls-18" d="M50.69,103.42a19.82,19.82,0,0,1,.64-4c.36-1.29.8-2.56,1.26-3.81a48.47,48.47,0,0,1,3.29-7.32c.71-1.16,1.59-2.15,2.19-3.34a2.87,2.87,0,0,0,.36-.88,2.63,2.63,0,0,1,.2-1c.26-.63.57-1.22.82-1.83a3.38,3.38,0,0,0,.3-1.86A13.91,13.91,0,0,0,59,77.57a15.34,15.34,0,0,1-.72-1.89,7.43,7.43,0,0,1-.13-2h.33a7.41,7.41,0,0,0,.1,2,17.54,17.54,0,0,0,.71,1.85,13.81,13.81,0,0,1,.71,1.9,3.69,3.69,0,0,1-.32,2c-.26.63-.58,1.22-.83,1.83a2.58,2.58,0,0,0-.19.94,3.09,3.09,0,0,1-.39,1c-.61,1.2-1.53,2.22-2.21,3.34a48,48,0,0,0-3.31,7.26A34.46,34.46,0,0,0,50.69,103.42Z"></path>
      <path class="cls-18" d="M57.62,77.81a5.27,5.27,0,0,1,.31-1.52,2.51,2.51,0,0,0,.3-.7c.05-.24.07-.5.13-.75a4.09,4.09,0,0,1,0,.78,2.27,2.27,0,0,1-.26.73A11.8,11.8,0,0,0,57.62,77.81Z"></path>
      <path class="cls-18" d="M50.74,102.62a1,1,0,0,0-.7.25,3.06,3.06,0,0,0-.52.56l0,.06,0-.07a20.21,20.21,0,0,0,1.34-3.8,13.57,13.57,0,0,0,0-2,7.14,7.14,0,0,1,.42-2c.42-1.29,1.07-2.49,1.57-3.74a6.53,6.53,0,0,0,.27-1,1,1,0,0,0,0-.46.76.76,0,0,0-.3-.35,1.54,1.54,0,0,1-.64-.83,1.31,1.31,0,0,1,.44-1,.5.5,0,0,0,.11-.4,2.4,2.4,0,0,1-.11-.51,1.92,1.92,0,0,1,.06-.53.55.55,0,0,1,.37-.43c.44-.07.68.36.93.17a.92.92,0,0,0,.36-.8,2.17,2.17,0,0,0-.28-.92,5.41,5.41,0,0,1-.3-1,.89.89,0,0,1,0-.57.32.32,0,0,1,.32-.13,1.07,1.07,0,0,1,.27.09,3.74,3.74,0,0,0,.44.23c.14.06.3.08.36,0s0-.59,0-.9a4.73,4.73,0,0,1-.15-1,.71.71,0,0,1,.18-.54.67.67,0,0,1,.56-.15c.18,0,.36.08.49.08s0,0,0,0a.69.69,0,0,0-.07-.2,4,4,0,0,1-.4-1,.72.72,0,0,1,.13-.58.59.59,0,0,1,.56-.17c.79.27.84-.68,1.06-1.27a5,5,0,0,1-.17,1,.64.64,0,0,1-.36.43,1.46,1.46,0,0,1-.54,0c-.16,0-.3,0-.36.12a.42.42,0,0,0-.1.38,4.57,4.57,0,0,0,.38.9.71.71,0,0,1,.09.28.22.22,0,0,1-.08.21.32.32,0,0,1-.19,0c-.21,0-.35-.08-.51-.09a.4.4,0,0,0-.51.47,4.85,4.85,0,0,0,.15,1,1.5,1.5,0,0,1,0,1.08.5.5,0,0,1-.58,0,3.28,3.28,0,0,1-.46-.24c-.14-.07-.3-.11-.33,0a.68.68,0,0,0,0,.43,4.69,4.69,0,0,0,.28,1,2.43,2.43,0,0,1,.29,1,1.1,1.1,0,0,1-.46,1,.58.58,0,0,1-.57,0,.61.61,0,0,0-.41-.12c-.24.07-.3.5-.3.78a2.59,2.59,0,0,0,.11.49.66.66,0,0,1-.15.53c-.22.26-.45.53-.41.83s.33.52.58.73a.84.84,0,0,1,.34.42,1.1,1.1,0,0,1,0,.54,5.49,5.49,0,0,1-.28,1c-.51,1.26-1.16,2.45-1.59,3.73A7.76,7.76,0,0,0,51,97.6a12.56,12.56,0,0,1-.06,2,19.92,19.92,0,0,1-1.4,3.8h0a3.52,3.52,0,0,1,.53-.56A.94.94,0,0,1,50.74,102.62Z"></path>
      <path class="cls-18" d="M58.27,84.66A4.68,4.68,0,0,1,59.71,83a4.51,4.51,0,0,0-1.22,1.82Z"></path>
      <path class="cls-18" d="M61.89,80.62a9.52,9.52,0,0,0,1.43-4.55A16.76,16.76,0,0,0,63,71.28,39.46,39.46,0,0,0,61.5,66.7a13,13,0,0,1-.88-4.78H61a13,13,0,0,0,.78,4.69,38.71,38.71,0,0,1,1.42,4.63,17.4,17.4,0,0,1,.26,4.83A9.74,9.74,0,0,1,61.89,80.62Z"></path>
      <path class="cls-18" d="M65.13,77.42c.16-1.29.19-2.59.43-3.86a8,8,0,0,1,.57-1.86,6,6,0,0,0,.67-1.81c.2-1.31-.62-2.47-1.3-3.54a8.14,8.14,0,0,1-.91-1.73,4.91,4.91,0,0,1-.23-1.94c.11-1.31.3-2.58.45-3.87a13.87,13.87,0,0,1,.38-1.92,3.38,3.38,0,0,1,.38-.93,6.52,6.52,0,0,1,.58-.8,4.48,4.48,0,0,1,1.55-1.24,2.84,2.84,0,0,1,2-.18l.46.14s.17,0,.09,0,0,0-.08,0a4.47,4.47,0,0,0-.63-.69A10.25,10.25,0,0,0,68.07,52l.12-.31A10.36,10.36,0,0,1,69.74,53a4.94,4.94,0,0,1,.68.75l.07.14a.27.27,0,0,1,0,.26c-.21.14-.28.05-.37.05L69.61,54a2.55,2.55,0,0,0-1.8.14,4.23,4.23,0,0,0-1.47,1.16A6.16,6.16,0,0,0,65,58.83c-.16,1.28-.36,2.58-.49,3.86a4.86,4.86,0,0,0,.21,1.89,7.7,7.7,0,0,0,.88,1.71,13.38,13.38,0,0,1,1,1.69,3.36,3.36,0,0,1,.31,1.92,6.07,6.07,0,0,1-.69,1.82,7.9,7.9,0,0,0-.59,1.84C65.35,74.83,65.3,76.14,65.13,77.42Z"></path>
      <path class="cls-18" d="M62.22,54.06a1.91,1.91,0,0,0,.67,1.39,7.68,7.68,0,0,1,1,1.28,5.14,5.14,0,0,1,.63,1.49,3.57,3.57,0,0,1,.28,1.58h0a4.22,4.22,0,0,0-.42-1.53,5.7,5.7,0,0,0-.58-1.47,8.12,8.12,0,0,0-.94-1.3,1.9,1.9,0,0,1-.63-1.44Z"></path>
      <path class="cls-18" d="M58.34,73.68a.57.57,0,0,1,.38-.18.75.75,0,0,1,.36.23c.19.28.37,0,.48-.26a2.76,2.76,0,0,0,.25-.75,1,1,0,0,0-.07-.72,1.59,1.59,0,0,0-1.17-.84,2.35,2.35,0,0,1-1.43-.84l0,0a3.31,3.31,0,0,0,1.48.54,2.25,2.25,0,0,1,.8.34,1.58,1.58,0,0,1,.53.72,1.19,1.19,0,0,1,.1.44,2,2,0,0,1-.06.43,3.73,3.73,0,0,1-.31.78,1.1,1.1,0,0,1-.28.34.28.28,0,0,1-.24.06A1,1,0,0,1,59,73.8a.74.74,0,0,0-.3-.24c-.12,0-.24.07-.35.14Z"></path>
      <path class="cls-18" d="M70.34,72.69a6.7,6.7,0,0,1,.34-4.28c.69-1.32,1.81-2.24,2.57-3.43a3.91,3.91,0,0,0,.75-1.9,16.81,16.81,0,0,1,0-2.14,13.39,13.39,0,0,1,1.35-4.06,6.27,6.27,0,0,0,.44-2.05,15.37,15.37,0,0,1,.05-2.14,10,10,0,0,1,1.77-3.88A7.67,7.67,0,0,0,78.69,47a5,5,0,0,0,.36-2.07,7.55,7.55,0,0,0-.47-2.08,5.12,5.12,0,0,1-.38-2.08,5.14,5.14,0,0,0,.4,2.08,7.1,7.1,0,0,1,.49,2.07A5.06,5.06,0,0,1,78.75,47a8.14,8.14,0,0,1-1.13,1.82,10,10,0,0,0-1.71,3.85,15,15,0,0,0,0,2.12,6.9,6.9,0,0,1-.43,2.11,13.16,13.16,0,0,0-1.31,4,15.4,15.4,0,0,0,.08,2.13,4.2,4.2,0,0,1-.77,2c-.77,1.22-1.9,2.18-2.52,3.41a6.43,6.43,0,0,0-.28,4.09Z"></path>
      <path class="cls-18" d="M64.84,65.14A8,8,0,0,1,65.3,62,7,7,0,0,1,67,59.22l.59-.55c.18-.18.42-.36.42-.59,0-.5-.24-1-.29-1.57a3.29,3.29,0,0,1,.17-1.64,3.1,3.1,0,0,1,1-1.31l.15.19a2.88,2.88,0,0,0-1.15,2.74c0,.53.24,1,.26,1.6,0,.33-.3.5-.48.68l-.6.54A6.92,6.92,0,0,0,65.36,62,7.93,7.93,0,0,0,64.84,65.14Z"></path>
      <path class="cls-18" d="M67,69.68a8.58,8.58,0,0,0,1.85-2.39,5,5,0,0,0,.39-2.94c-.24-2-1.13-3.92-1.25-6,.26,2,1.11,3.91,1.41,5.95a5,5,0,0,1-.45,3A7.6,7.6,0,0,1,67,69.68Z"></path>
      <path class="cls-26" d="M74.1,62.67c-.49-1.74-1.52-4.93-2.59-5.89S70.43,55.27,70,54"></path>
      <path class="cls-18" d="M69.41,64.77c.34-1,.61-2,1-3s1-1.86,1.32-2.84A16.65,16.65,0,0,1,73,56.09a5.81,5.81,0,0,0,.4-.66.87.87,0,0,0,0-.72,6.29,6.29,0,0,0-.87-1.28l-.06-.08.11,0a3.57,3.57,0,0,0,1.27-.62,2.72,2.72,0,0,0,.94-1,.59.59,0,0,0-.14-.61,5.19,5.19,0,0,0-.42-.59,1.89,1.89,0,0,0-.51-.47c-.19-.14-.38-.07-.64,0a2.4,2.4,0,0,1-.76,0c-.12,0-.33-.1-.34-.3a.64.64,0,0,1,.14-.4,4.46,4.46,0,0,1,.49-.54s0,0,0,0l-.14-.06c-.11,0-.23,0-.35-.06a3.33,3.33,0,0,1-1.43-.43,1,1,0,0,1-.42-.68,2,2,0,0,1,.09-.77l.24.08a1,1,0,0,0,.22,1.19,3.38,3.38,0,0,0,1.34.39,2.74,2.74,0,0,1,.37.08.75.75,0,0,1,.2.08c.09,0,.14.23.06.29-.19.24-.37.34-.5.54-.39.49.34.45.77.36l.37-.06a.84.84,0,0,1,.39.11,2.33,2.33,0,0,1,.56.52c.15.2.29.4.42.61a.77.77,0,0,1,.15.75,2.79,2.79,0,0,1-1,1.09,3.45,3.45,0,0,1-1.34.63l0-.1a7,7,0,0,1,.87,1.32,1,1,0,0,1,0,.8,6.34,6.34,0,0,1-.42.67A16.87,16.87,0,0,0,71.76,59c-.38,1-1,1.83-1.35,2.83S69.76,63.78,69.41,64.77Z"></path>
      <path class="cls-26" d="M74.76,51.12A5.32,5.32,0,0,1,71.39,51c-.22-.16-.41-.12-.78.09s-1.18,1.3-1.77,1.06"></path>
      <path class="cls-27" d="M74.19,50.53a2.8,2.8,0,0,1,.07-2.35,3.61,3.61,0,0,0,.49-2.83c-.34-.93-1.49-2.36-1-3.18"></path>
      <path class="cls-26" d="M71.44,56.69a6.14,6.14,0,0,0-3.12,3.89"></path>
      <path class="cls-18" d="M76,52c-.07-.45-.08-.9-.17-1.34a11.23,11.23,0,0,0-.42-1.28,6.31,6.31,0,0,1,.21-2.73,5.83,5.83,0,0,1,.48-1.3c.24-.39.48-.76.7-1.15A10.13,10.13,0,0,0,77.36,43a1.45,1.45,0,0,0,.06-1.25l0,0a1.45,1.45,0,0,1,.12,1.34,6.48,6.48,0,0,1-.52,1.28,12.31,12.31,0,0,1-.7,1.16,5.43,5.43,0,0,0-.51,1.21,6,6,0,0,0-.3,2.61,12.52,12.52,0,0,1,.36,1.31c.07.45.06.9.1,1.35Z"></path>
      <path class="cls-18" d="M80.37,40.53a2.42,2.42,0,0,0,.08.93,4.11,4.11,0,0,0,.58.74,14.43,14.43,0,0,1,1.26,1.44A3.76,3.76,0,0,1,83,45.41a2.78,2.78,0,0,1-.5,1.85,2.29,2.29,0,0,1-1.64,1,2.27,2.27,0,0,0-1.44,1,6.25,6.25,0,0,0-.88,1.65,5,5,0,0,1-.33.91,5.27,5.27,0,0,1-.58.78,2.57,2.57,0,0,0-.45,1.72,3.58,3.58,0,0,0,.54,1.74c.29.56.6,1.11.85,1.72a4.55,4.55,0,0,1,.11,2,17.93,17.93,0,0,1-1,3.7A15.59,15.59,0,0,1,76,66.89l0,0a11.78,11.78,0,0,0,.86-1.7,17.84,17.84,0,0,0,.69-1.76,17.56,17.56,0,0,0,.9-3.67,4.37,4.37,0,0,0-.1-1.81,17.59,17.59,0,0,0-.83-1.69,3.5,3.5,0,0,1,0-3.77,5.34,5.34,0,0,0,.56-.74,4.92,4.92,0,0,0,.32-.87,6.21,6.21,0,0,1,.94-1.69,2.42,2.42,0,0,1,1.58-1.1,2.08,2.08,0,0,0,1.53-.9,2.63,2.63,0,0,0,.51-1.75,3.57,3.57,0,0,0-.68-1.72A14.29,14.29,0,0,0,81,42.24a3.68,3.68,0,0,1-.59-.76,2.78,2.78,0,0,1-.07-.95Z"></path>
      <path class="cls-18" d="M78.36,51.22a9.51,9.51,0,0,0,3.18-1.75,4.82,4.82,0,0,0,1.37-3.26,14.27,14.27,0,0,1,.15-3.68A5.28,5.28,0,0,0,83,39h0a5,5,0,0,1,.24,3.63,16.71,16.71,0,0,0-.19,3.63,5,5,0,0,1-1.49,3.33,9.75,9.75,0,0,1-3.26,1.69Z"></path>
      <path class="cls-18" d="M91,55.06a14.14,14.14,0,0,0,2.62-1.86,6,6,0,0,0,1.85-2.58,9.74,9.74,0,0,1,.63-1.5,12.49,12.49,0,0,1,1-1.23,1.7,1.7,0,0,0,.3-1.48c-.11-.49-.37-1.07-.89-1.08a1.24,1.24,0,0,0-.69.25,7.83,7.83,0,0,0-.51.61,11.81,11.81,0,0,0-.9,1.32c-.53,1-1.2,1.8-1.75,2.72a15.72,15.72,0,0,1-1.88,2.65,8.22,8.22,0,0,1-2.63,1.93,5.31,5.31,0,0,1-1.59.46,1.73,1.73,0,0,1-.86-.1c-.15,0-.26-.17-.38-.26a1.17,1.17,0,0,1-.18-.44,2.81,2.81,0,0,1,.4-1.63,9.6,9.6,0,0,1,.85-1.41,5.51,5.51,0,0,1,1.07-1.26l1.3-1c.9-.59,1.83-1.15,2.75-1.71l1.41-.8c.46-.26.87-.6,1.33-.9a2.36,2.36,0,0,1,.76-.38,1.08,1.08,0,0,1,.44,0l.12,0h0l0,0c.06-.13.05.31-.06.23l-.09,0-.19,0A3.68,3.68,0,0,1,93.85,45a1.55,1.55,0,0,1-.39-1.59,13.19,13.19,0,0,1,.5-1.54,2.87,2.87,0,0,0,.25-1.54,1.79,1.79,0,0,0-1.07-1.1l0,0a1.85,1.85,0,0,1,1.14,1.1,3,3,0,0,1-.2,1.62,14.17,14.17,0,0,0-.47,1.53A1.39,1.39,0,0,0,94,44.8a3.48,3.48,0,0,0,1.45.55l.2.06s.06,0,0,0-.12.35-.07.23H95.5a1.1,1.1,0,0,0-.36,0,2.31,2.31,0,0,0-.67.36c-.43.3-.85.65-1.32.94l-1.39.82c-.92.56-1.84,1.1-2.74,1.69l-1.29,1a5.34,5.34,0,0,0-1,1.19A9.41,9.41,0,0,0,85.89,53a2.62,2.62,0,0,0-.39,1.45c0,.5.62.62,1.11.57a4.87,4.87,0,0,0,1.51-.42,7.92,7.92,0,0,0,2.56-1.85,15.76,15.76,0,0,0,1.87-2.6c.56-.93,1.24-1.77,1.77-2.7a10.26,10.26,0,0,1,.92-1.34,6.14,6.14,0,0,1,.54-.62,1.31,1.31,0,0,1,.8-.29.89.89,0,0,1,.73.44,2.28,2.28,0,0,1,.3.77A1.8,1.8,0,0,1,97.27,48a14.34,14.34,0,0,0-1,1.22,9.31,9.31,0,0,0-.64,1.48,6.16,6.16,0,0,1-1.9,2.59A13.49,13.49,0,0,1,91,55.09Z"></path>
      <path class="cls-18" d="M105.1,49.32a1.69,1.69,0,0,1-1.3.8,2.19,2.19,0,0,1-1.26-.9l-1-1.22a1.93,1.93,0,0,0-.52-.51,1.1,1.1,0,0,0-.68-.07,4.91,4.91,0,0,0-2.67,1.25,16.48,16.48,0,0,0-2.17,2.17l0,0a10.06,10.06,0,0,1,2-2.4,6.2,6.2,0,0,1,1.32-.88,4.41,4.41,0,0,1,1.54-.38,1.36,1.36,0,0,1,.83.12,2.27,2.27,0,0,1,.57.59l.91,1.24a2.07,2.07,0,0,0,1.14.91c.51.06.93-.35,1.26-.72Z"></path>
      <path class="cls-27" d="M102.07,48.46A2.66,2.66,0,0,0,100,45.71c-1.1-.16-2.48.49-2.51-1.28s.9-3-1-3.32c-.2,0-.57.14-.87.14s-.53-.35-.64-.84-.27-1.22-.76-1.37"></path>
      <path class="cls-25" d="M91.57,47.69A5.44,5.44,0,0,0,92,45c-.17-.83-.49-.53.12-1.59s1.62-3-.08-4.07"></path>
      <path class="cls-25" d="M89,49.26a2.83,2.83,0,0,0,.76-2.9c-.41-1.34,1-2.92,1.11-4s-.12-1-.2-1.84"></path>
      <path class="cls-25" d="M78.57,59.78a38.07,38.07,0,0,1,3.22-3.25c1-.84,3.43-1.46,3-3.34s.28-4.1,1.3-4.79,2.37-2.86,1.47-3.28A2.31,2.31,0,0,1,86,43.4a5.77,5.77,0,0,1,.09-3c.22-.85-.21-1.29.22-2s1.5-.88,2.17-1.08"></path>
      <path class="cls-25" d="M89.69,38a4.35,4.35,0,0,0-1.29,1.43c-.48.89-.35,1.83-1,2.61a1.87,1.87,0,0,1-1.5.41"></path>
      <path class="cls-18" d="M78.88,86a7.94,7.94,0,0,0-3.32-2.51,11.76,11.76,0,0,0-11.92,1.38,15.91,15.91,0,0,0-3,2.91,3.4,3.4,0,0,1-.65.87,4.45,4.45,0,0,1-1,.51,15.1,15.1,0,0,0-1.92.85,19.76,19.76,0,0,0-3.46,2.36,7.8,7.8,0,0,0-2.44,3.34h0a7.29,7.29,0,0,1,2.32-3.51A16.22,16.22,0,0,1,57,89.68a12.74,12.74,0,0,1,1.95-.84,3.89,3.89,0,0,0,.91-.46,3.52,3.52,0,0,0,.62-.8,15.84,15.84,0,0,1,3.07-2.94,11.91,11.91,0,0,1,8-2.33,11.67,11.67,0,0,1,4.09,1.06,8,8,0,0,1,3.31,2.57Z"></path>
      <path class="cls-24" d="M51.1,103c.49-1.72.13-2.33.77-4.32s1.25-4.5,3.5-6.33a6.76,6.76,0,0,1,4.32-2.16c1.16,0,2.67,3.23,4.35,5.21,2.17,2.55,8.91,5.71,12.5,2.36,1.33-1.24,1.2-2.74.72-4.24-.67-2.12-.32-1.29,1-3.19.69-1,1.6-2.46.33-4.28-1.89-2.69-7-4-10-3.46-3.81.75-6.28,3-8.31,5.23s-3.85,2.12-5.91,4c-1.58,1.45-3.66,3.46-3.9,5.77a24.7,24.7,0,0,0-5.54-9.36,10.76,10.76,0,0,0-2.67-6.28,8.88,8.88,0,0,0-7.5-2.69A8.7,8.7,0,0,0,27.61,84c-.75,1.82,1.77,2.82,1.36,3.76-.7,1.61-1.88,1.84-1.77,3.52.2,2.83,2.2,4.11,4.71,4.64s7-1.88,8.37-2.7a14.62,14.62,0,0,0,4.06-3.33c3.22,3.16,4.83,8.89,5.37,12.71S50.61,104.7,51.1,103Z"></path>
      <path class="cls-18" d="M50.53,97.55a27.86,27.86,0,0,0-2.37-4.92,24.66,24.66,0,0,0-3.35-4.26l0,0v0a13.9,13.9,0,0,0-3.07-6.1,8.28,8.28,0,0,0-6.09-2.55,12.4,12.4,0,0,0-3.38.44,7.74,7.74,0,0,0-2.92,1.72,5.42,5.42,0,0,0-1.74,2.86,2,2,0,0,0,.52,1.55,4.88,4.88,0,0,1,1,1.47h0a5,5,0,0,0-1-1.43,2.08,2.08,0,0,1-.59-1.61,5.35,5.35,0,0,1,1.72-3,8.1,8.1,0,0,1,3-1.82,13,13,0,0,1,3.47-.49A9.17,9.17,0,0,1,39,80a8.19,8.19,0,0,1,2.85,2A14.14,14.14,0,0,1,45,88.24h0a23.32,23.32,0,0,1,3.33,4.33,27.28,27.28,0,0,1,2.28,5Z"></path>
      <path class="cls-18" d="M28.32,88.53a20.7,20.7,0,0,1-.83,2.14,3,3,0,0,0,.36,2,5.28,5.28,0,0,0,3.22,2.66A8.78,8.78,0,0,0,35.4,95a21.67,21.67,0,0,0,2.17-.67c.73-.25,1.45-.51,2.17-.8l0,0a25.56,25.56,0,0,1-4.25,1.8,14.52,14.52,0,0,1-2.26.52,5.1,5.1,0,0,1-2.3-.08,5.5,5.5,0,0,1-3.41-3,3.11,3.11,0,0,1-.26-2.26,20.88,20.88,0,0,0,1-2.08Z"></path>
      <path class="cls-28" d="M43.33,87.44l-.74-1L38,85.8s-.35-.87-.38-1-.47-1.73-.54-1.85-.13-.33-.39-.27a4.72,4.72,0,0,0-1.36.6l-.53.42a3.72,3.72,0,0,0-.42-1.44A12.06,12.06,0,0,0,32.91,81a.71.71,0,0,1-.12-.55,2.11,2.11,0,0,0,0-1.09c-.14-.21-.34-.54-.71-.49A3.72,3.72,0,0,1,31,78.69c-.38-.06-.59-.15-.93.1a6.57,6.57,0,0,0-.77.71c-.14.14,0,.54-.33.17a3,3,0,0,1-.48-1.27,6.65,6.65,0,0,1-.06-.91s-.1-.31-.38-.21a3.21,3.21,0,0,1-1.64.29c-.43-.17-1.06-.37-1.06-.37-.19-.21,0-.79,0-.79a7.5,7.5,0,0,0-.15-.78c-.05-.07-.56-1-.56-1L24,72.75,25.26,66l2.09-2.55L30.23,56l2.06,2S39.48,72.87,39.53,73s3.69,9.16,3.68,9.53,1,5.15,1,5.15Z"></path>
      <path class="cls-29" d="M34.49,72.3l1,1a68.67,68.67,0,0,1,5.08,6.46c.9,1.65,5.72,8.33,5.88,9.27s6.12,10.76,6.12,10.76l-3.23,4.25s-.65.61-.9.31.11-1.47.11-1.47l-.95-4.06L44.09,89A86.58,86.58,0,0,0,39,79.74a72.46,72.46,0,0,1-4.31-6.63C34.68,73,34.27,72.44,34.49,72.3Z"></path>
      <path class="cls-16" d="M49,81.47l.29,3.13-.91,3.53s-.78-.1-.87-.23-2.54-6-2.54-6L42.68,76l3.11-1.52s1.6,1.18,1.58,1.4a23.83,23.83,0,0,0,.35,2.72C47.81,78.86,49,81.47,49,81.47Z"></path>
      <path class="cls-30" d="M40.88,67.43s.69,1.76.78,1.95a28.72,28.72,0,0,0,2.23,3,9.7,9.7,0,0,1,.78,2.29L44.86,76s.14.39.4.25a5.36,5.36,0,0,1,.82-.32s.51-.16.67.22a2.92,2.92,0,0,1,.43,1.33A3.58,3.58,0,0,0,47.37,79c.18.22.45.35.5.69s.71,2.79.71,2.79l.3.79.32-.73s.35-.76.43-.89a2.48,2.48,0,0,1,.42-.55c.11,0,.2-.07.13-.24s-.67-.38-.71-.39-1-.61-1.17-1.06A10.69,10.69,0,0,1,48.62,77,11.52,11.52,0,0,0,49,74.33a16.81,16.81,0,0,0-.66-2.51c-.22-.27-.62-.66-.9.15s-.36.21-.36.21l.08-1.26.69-1.08a5.57,5.57,0,0,0,.76-2.12,4.74,4.74,0,0,0-1-2.78c-.67-.63-.88-.67-.88-.67a2.28,2.28,0,0,1,0,1,9.65,9.65,0,0,1-.49,1.18,5.61,5.61,0,0,1-.92,1.13,3.73,3.73,0,0,1-1.29.88,1.54,1.54,0,0,1-1.48.1c-.67-.32-1-.84-1.35-1Z"></path>
      <path class="cls-31" d="M40,79s-4.25-14.07-5.64-16.2-3.87-6.15-3.87-6.15l-.21-2.16-.2-1.36s-.21-.28.23-.88a18.27,18.27,0,0,0,1.52-2.8l.12-1.16.28,0s.32.78.37.82,4.57,5,4.83,4.78a2.75,2.75,0,0,0,.47-.43,5.88,5.88,0,0,1,1.63-1.25c.61-.16,1.47-.29,1.7.06s.56.47.69.71a4.16,4.16,0,0,1,.4,1.5c0,.43-.1.58-.67,1.42s-.7,1-.59,1.28.33.55.51.48-.29.32-.29.32a2.54,2.54,0,0,0-.8,1,8.63,8.63,0,0,0-.25,2.4s-.14.64-.5.84-.58.39-.7,1.13a7.2,7.2,0,0,0-.16,1.45A1.84,1.84,0,0,1,38.9,66c-.14.33-.63.63-.48.92s1.58,0,1.58,0l.47.06s.73.63.75.67.25.57.25.57.46.86.51.93a8.16,8.16,0,0,0,1.45,1.4A6.44,6.44,0,0,1,44.71,72a9.36,9.36,0,0,1,.89,1.61,1.92,1.92,0,0,1-.41,2.09,2.79,2.79,0,0,1-1.12.72l-.25.06.43.34a3.85,3.85,0,0,0,.55.69c.22.17,1.51.89,1.43,1.73a9.64,9.64,0,0,1-.2,2c-.21.72-.51,1.42-.61,1.79a1.79,1.79,0,0,0-.1.8c0,.22,1,4.48,1,4.48s0,.46-.62-.58-1.92-3.24-1.92-3.24Z"></path>
      <path class="cls-30" d="M33.92,59.43a5.39,5.39,0,0,1,.51-1,10.61,10.61,0,0,1,.74-.87c.18-.18.78-.72.78-.72l.71-.56a3,3,0,0,1,.82-.39.87.87,0,0,1,.7.37,1.45,1.45,0,0,1,.37.94,3.37,3.37,0,0,1-.13,1,9,9,0,0,0-.32.88.61.61,0,0,0,.23.58A1.34,1.34,0,0,0,39,60a1,1,0,0,0,.71-.29c.2-.23.49-.72.58-.79s.17,0,.14.13-.16.85-.17,1a17.81,17.81,0,0,1-.11,1.81,1,1,0,0,1-.47.48.84.84,0,0,0-.58.49,8.51,8.51,0,0,0-.2,2.26,1.64,1.64,0,0,1-.1,1.1c-.17.35-.44.64-.28.73a1.42,1.42,0,0,0,.66.13c.16,0,.74-.25,1.09.23a15,15,0,0,1,.94,1.88s.37.08.11,2.11A23.73,23.73,0,0,0,41,75.45l.09.71s-.55-1.56-.58-1.66a11,11,0,0,0-.88-2.2,18.6,18.6,0,0,1-1.81-3.93l-.4-1a5.87,5.87,0,0,1-.53-1.19l-.22-.72-.38-1.57-.21-1-.29-1.37a8.65,8.65,0,0,0-.36-1.13,2.28,2.28,0,0,0-.67-.93c-.24-.12-.59-.35-.94.27Z"></path>
      <path class="cls-16" d="M37.4,53.9s-.17.25-.41-.11a6.3,6.3,0,0,1-.79-1.58c-.16-.69-.39-1.57-.41-1.67a6.86,6.86,0,0,1-.06-2.1,4.76,4.76,0,0,0,0-3.25C35.2,44,35,44,34.66,44s-.94.08-1.18.43a8.07,8.07,0,0,0-1.07,2c-.06.48.24,1.16.18,1.42a.74.74,0,0,1-.39.4s.32.5.34.56a1.76,1.76,0,0,1-.18.94,3.37,3.37,0,0,0-.48,1.31A6.6,6.6,0,0,0,32,52.45a9.8,9.8,0,0,1,.17,1.85c0,.48-.29,1.6-.25,2s.28,1.16.59,1.28a1.56,1.56,0,0,0,1.67-.33A4.59,4.59,0,0,0,35.32,56a1.55,1.55,0,0,1,.48-.56c.18-.11.89-.47,1.13-.63a2.23,2.23,0,0,0,.68-.7.64.64,0,0,0,0-.33Z"></path>
      <path class="cls-16" d="M30.16,56.52s-.46-.77-.55-.86-2-7.6-2-7.6a13.36,13.36,0,0,0,.88,2.7c.27.18.38-.48.34-.68s-.08-1.85-.08-1.85-.05-.64.42-.71a4.64,4.64,0,0,0,1.28-.46c.09-.06.7-.57,1-.05a2.69,2.69,0,0,1,.44,1.25,6.16,6.16,0,0,1-1.11,3.06c-1,1.65-.78,1.49-.65,2.38s.27,2.48.3,2.92l0,.43Z"></path>
      <path class="cls-31" d="M30.72,56.45l-.61,1-5.83-7.08s2.08-5.39,2.16-5.47a9.56,9.56,0,0,1,1.69.55,6.42,6.42,0,0,0-.14,3,12.21,12.21,0,0,0,.69,2.35l.4.69Z"></path>
      <path class="cls-16" d="M41.85,57.5l.39-.17.63-.36.77-.21a2,2,0,0,1,1,.43,4.55,4.55,0,0,1,.56.93,2.25,2.25,0,0,1,.44,1.14,3,3,0,0,0,.22,1.11c.15.25.63,1.07.53,1.43a1.2,1.2,0,0,1-.58.87c-.33.13-.93.27-1.09.38s-1.13,1-1,1.32,0,.73.2,1.39.4,1.5.7,1.67a1.36,1.36,0,0,0,.72.14s-.32.46-.51.52-1,.48-1.15.53a1.68,1.68,0,0,1-1.11-.07,12,12,0,0,1-1.35-1c-.27-.25-.41-.88-1.22-.73a4.28,4.28,0,0,1-1.46,0l.18-.47a2.63,2.63,0,0,0,.2-1.36,5.11,5.11,0,0,1,.2-2.26c.22-.24.11,0,.58-.49s.51-.19.54-1.24,0-2.08.5-2.57S41.85,57.5,41.85,57.5Z"></path>
      <path class="cls-30" d="M50.24,88.8l.42.07a3.65,3.65,0,0,0,.83-.41c.27-.21.56-.39.56-.39s-.08,1-.08,1-.2,1.19-.2,1.19.11.51.19,1a6.68,6.68,0,0,1,.12,1.41,4,4,0,0,1-.06.41,4.51,4.51,0,0,0,.51-.47,6.42,6.42,0,0,0,.41-.74l0-.09a8.72,8.72,0,0,1,.24.92,15.06,15.06,0,0,1-.15,2,1.47,1.47,0,0,0-.1.73c0,.19.32.91.58,1s.44-.2.65-.3,0,.79,0,.79-.42,1.13-.5,1.27S53,99,53,99l0,.33,1-.08s.1.25.06.32a6.53,6.53,0,0,1-1.31,1.64,6.08,6.08,0,0,0-1.52,1.29,2.48,2.48,0,0,1-.7.74l-1.23.85c-.1.07-.62.33-.62.33s1.54-2.88,2.85-3.8S51.7,97,51.7,97s-1.41-5.38-1.43-5.48-.58-2.12-.31-2.4Z"></path>
      <path class="cls-30" d="M34.82,73.59l-1.27-.33s-2.4-.86-2.55-.93l-1.27-.61-.52-.46L28,70.52l-1.12-.72-.72-.57c-.1-.09-.84-.57-.84-.57s-2.47-1.22-2.64-1.22a6.46,6.46,0,0,1-1.18-.14c-.12-.06-1.06-.76-1.27-.94s-.51-.5-.75-.35a3.65,3.65,0,0,0-.45.34l.13.89a9.86,9.86,0,0,1,.42,1.38,3.49,3.49,0,0,0,.49,1.3c.13,0,.73.06.85.35a.93.93,0,0,1-.15.85,6.15,6.15,0,0,0-.54,1,5.24,5.24,0,0,0,.41,1.69c.23.32.35.5.42.4s1-1.15,1.79-.61a3.53,3.53,0,0,0,1.35.69,1.62,1.62,0,0,0,.76.07,7.81,7.81,0,0,1,2.36-.44,3,3,0,0,1,1.44.68,5.62,5.62,0,0,0,1.25.8c.18.06,2.14.61,2.57.65s1.23,0,1.48,0,3.29,1.35,3.29,1.35l-1.61-2.44Z"></path>
      <path class="cls-29" d="M46.41,89.06s-.28-1.43-.36-1.8-.58-3-.58-3a1.55,1.55,0,0,1,0-1.29,22.67,22.67,0,0,0,.84-2.91,13.23,13.23,0,0,0,.8,3.28,18.17,18.17,0,0,1,.83,4.17S48,85.24,48,85s-.16-.54.44-1a4.75,4.75,0,0,0,1-1.89s.39-1.11.68-1.06.36.14.58,0,.57-.43.57-.43.26-.62.39-.11a4.93,4.93,0,0,1-.17,2.84s-.08,0,0,.6a2.81,2.81,0,0,1-.07,2c-.38.9-1.1,1.71-1.13,2.3s-.29.54-.3.86a19.38,19.38,0,0,0,.55,3.32c.36,1.38,1.82,6.63,1.82,6.63S51,97.44,50.79,97.15s-3.6-6.44-3.63-6.51S46.41,89.06,46.41,89.06Z"></path>
      <path class="cls-32" d="M38.31,88.34s-.12-1.27-.13-1.31S38,85.8,38,85.8h.84s.94-.35,1.23-.44a1.63,1.63,0,0,1,1.07-.05,3.48,3.48,0,0,1,1.07.72,12.23,12.23,0,0,1,1.58,2.11c.4.75,4.94,14,5.24,14.94,0,0-.17,1-.6,1.29L48,103.19l-.6-2.29-.52-1.15-1.28-.54s-1.33-.33-1.55-.41A5.92,5.92,0,0,1,42.75,98c-.07-.12.3-.11.3-.11a6,6,0,0,0,.88-.28c.12-.1,1-1.11.79-1.68s.06-1.56-.58-2.06a17.9,17.9,0,0,0-3.21-1.3s.94-.35,1-.77-.66-3.36-.66-3.36-.28-1-1-.76-1.38.29-1.62.68S38.31,88.34,38.31,88.34Z"></path>
      <path class="cls-30" d="M5.93,54.29s.38.48.69.4.88-.36.77-1a2.75,2.75,0,0,0-.23-1.3c-.26-.35-.57-1.14-.68-1.14s.33-.81.49-1A4.92,4.92,0,0,1,8.52,49a8.25,8.25,0,0,1,1.58-.16c.32,0,.55-.26.91-.33l.36-.08.87,2.29s.46.95,1,1.07a4.18,4.18,0,0,0,1.83-.11c.22-.12.66-.42,1.33-1.77s.81-1.65,1.13-1.29,1.25,1.49,1.47,1.48a5.18,5.18,0,0,1,.63,0s.47,0,0-.74-1.07-1.86-.61-2.55a11.47,11.47,0,0,1,1.46-1.64s.53-.18.58-.52.44-2.21.44-2.21.35-1.06.39-1.13.4-.64.6-.72a1.19,1.19,0,0,1,.72,0,10.78,10.78,0,0,0,1.23.33c.16,0,.85.14,2.06-1.28l.48.22a1.05,1.05,0,0,1,.65,1.08,9.48,9.48,0,0,1-.1,2.19c-.1.1-.49.43-.25.74a3.31,3.31,0,0,1,.55.84,1.61,1.61,0,0,1-.68,1.54,4.5,4.5,0,0,0-1.08,1.19c-.14.26-.45,1-.48,1.08a5.82,5.82,0,0,0-.2,1.43,4.36,4.36,0,0,0,1,2.4c.7.68.76,1,1.33,1.52s1.53,1.46,1.53,1.46l.74,1a4.69,4.69,0,0,1,.79,1.62,5.49,5.49,0,0,1,0,1.9,5,5,0,0,0-.32,2.54c.25,1.08.73,2.84.73,2.84l.19.64S29,66,28.89,66s-2.35,0-2.35,0l-3.95-.48-4.93-2.07a3.77,3.77,0,0,0-.78.71,3.41,3.41,0,0,1-1.1,1,5.38,5.38,0,0,1-1-.26c-.07,0-2.07-1.17-2.25-1.24S11,63.45,11,63.45l-1.14-.53a3,3,0,0,0-1.58.68A4,4,0,0,0,7.2,64.87c-.21.46-.75,1.44-1.35,1.63a1.91,1.91,0,0,1-1.95-.1C3,65.88.81,65,.18,65.63a10.31,10.31,0,0,1,.07-3,11,11,0,0,1,.68-2c.11-.2.32-.32.46-.51a8.91,8.91,0,0,0,.08-2.23,1.58,1.58,0,0,1,.62-2c1.05-.65,1.14-.56,1.4-.89s0-.82.42-1.19S5.07,53,5.5,53.65Z"></path>
      <path class="cls-33" d="M19.61,50.06l-.4,0-.61-.29L18,49.12l-.47-.55s-.16-.26-.26-.16-.25.14-.32.26l-.31.63-.36.83s-.37.68-.41.74-.5.68-.8.76-.86.16-.86.16a2.85,2.85,0,0,1-1,0,1.66,1.66,0,0,1-.87-.85l-.11-.22-.13-.29L12,50l-.6-1.63a1,1,0,0,0-.2-.68c-.24-.32-1-1.14-1-1.14l-.62-.4L9.29,46l1.61-1.33s2.51-.38,2.6-.37,2-.18,2.16-.13,1.55,0,1.61.06,2,1,2,1a8.49,8.49,0,0,1,0,1s-.54.76-.4,1.25.06.81.41,1.3.57.75.54,1S19.61,50.06,19.61,50.06Z"></path>
      <path class="cls-31" d="M19.27,46.3a3.08,3.08,0,0,0-.89-.1l-.57.06-.13,0H17.6l-.08-.08L17.4,46l-.16-.23-.09-.14-.21-.17-.18,0-.41.11-.67.18-.36,0h-.61l-.31-.14L14,45.42l-.3,0-.33.12L12.8,46l-.62.23-.52-.31-.54-.33-.48,0-.55.11-.7.32-.1,0,.16-.81.48-.81.61-.52.77-.39s.5-.13.62-.18a6.06,6.06,0,0,0,.79-.41,8.44,8.44,0,0,1,1-.58,2.3,2.3,0,0,1,.81-.16c.24.05.49.33.58.36a4.71,4.71,0,0,1,.49.44l.4.29s.3.14.47,0a2.33,2.33,0,0,0,.49-.57,2.46,2.46,0,0,0-.08-.76,2.49,2.49,0,0,0-.55-.46l-.72-.36a4.61,4.61,0,0,1-.65-1s-.12-.85-.11-1.05a4,4,0,0,1,.2-.93c.07,0,.07.18.27.19a2.62,2.62,0,0,0,.53.08,3.45,3.45,0,0,1,.55,0l.62.09.57.18a1.4,1.4,0,0,1,.34.22c.13.12.14.41.39.35a1.31,1.31,0,0,0,.59-.41c.08-.11.57-.71.64-.78s.64-.76.8-.91a1.62,1.62,0,0,1,.62-.36c.14,0,.66-.13.76,0l.7.29a1.18,1.18,0,0,0,.41.15c.12,0,.72-.33.93-.39s.85-.14,1,0a6,6,0,0,1,.93,1.37c.27.59.14.88.41,1.13a2.92,2.92,0,0,0,.37.32l-.36.4a4.25,4.25,0,0,1-.91.68,1.75,1.75,0,0,1-1.21.15c-.4-.14-1.27-.58-1.65-.14a4.65,4.65,0,0,0-.71,1.16c0,.17-.41,1.61-.44,1.78s-.14.95-.16,1,0,.13-.22.27A7.66,7.66,0,0,0,19.27,46.3Z"></path>
      <path class="cls-16" d="M.18,65.63s6.57-2.34,8.5-2.33A2.21,2.21,0,0,1,9.32,63a1.54,1.54,0,0,1,.52,0c.07,0,1.83.59,2.15.65A11.81,11.81,0,0,0,13.87,63c.43-.08,1.31-.15,1.31-.15a10.43,10.43,0,0,1,2.48.63s.24,0,.33.55a7.62,7.62,0,0,0,.79,1.9c.12.16.14.33.36.26a1.12,1.12,0,0,1,.52-.09,1.26,1.26,0,0,1,.62.31,5.18,5.18,0,0,0,.92.73,3,3,0,0,0,1.05.3,1.17,1.17,0,0,1,.9.2c.59.3,1.46.75,1.56.79a10.28,10.28,0,0,1,.95.4c.14.08.71.59.85.7s.72.52.77.55l1.4.87.9.52s-.51-.63-.61-.79a4.35,4.35,0,0,0-.46-.58,1,1,0,0,1-.28-.31c-.12-.19-.58-1.33-.58-1.33s-1-2.31-1.11-2.43a3,3,0,0,0-.51-.42l-1-.77-1.18-.7-.59-.26-1.05-.38-1.08-.31-.53-.1L19.93,63l-.5-.1-.69-.41-1.17-.74-.51-.33L16.59,61l-.53-.53-.7-.7-1.22-1.07-.82-.59-.69-.46-.72-.42L11.1,57l-.73-.11L9.74,57,9,57.48l-.39.31-.69.63-.5.47s-.46.41-.52.45l-.43.26-.51.24L5.38,60H4.23l-.6,0s-.45-.05-.51-.07l-.59,0-.71.09-.43.12-.46.51L.68,61l-.23.73s-.2.8-.2.85-.08,1-.08,1v2Z"></path>
      <path class="cls-16" d="M33,70.8l-.62-.48-.76-.5L30.74,69l-.81-.68-1.22-1c-.06-.06-.95-.69-.95-.69l-.84-.48a.73.73,0,0,1-.54-.34,4.66,4.66,0,0,0-.33-.5l-1-.93-.76-.59-1-1.06a11.22,11.22,0,0,1-1-1.49c-.28-.53-.65-1.46-.8-1.8A13.65,13.65,0,0,0,20.61,58c-.22-.28-.91-.91-1.1-1.12a1.28,1.28,0,0,1-.38-1c0-.55,0-.83-.31-1.19l-.88-.79c-.13-.09-.9-.7-1-.83s-1-1-1-1a2.35,2.35,0,0,0,.67.42c.25.06,1.47.14,1.47.14l1.49.1s1-.05,1.14-.07a1.91,1.91,0,0,1,.35,0,.86.86,0,0,1,.48.41,2.19,2.19,0,0,0,.22.41,7.24,7.24,0,0,0,.51.68l.51.45.38.37.24.31.3.56.2.53.76,1.84.47,1L25.88,61l.79,1.53s.67.9.82,1.05.91.75.91.75a5,5,0,0,0,.44.44,2,2,0,0,0,1.36.57c.5-.07.93.29,1.33.78a10.7,10.7,0,0,1,1,2.32c0,.07.57,2.46.57,2.46Z"></path>
      <path class="cls-31" d="M1.39,60.05s.23-.22.17-.89-.21-1.44-.22-1.72a1.47,1.47,0,0,1,.35-1.17c.4-.4.83-.81,1.08-.8a3,3,0,0,1,.55.07,2.08,2.08,0,0,1,1,.69,6,6,0,0,0,1.26,1.33,3.05,3.05,0,0,0,1,.44l1.68.12-.6.6s-.81.68-1,.78A2.9,2.9,0,0,1,5.18,60L3.7,60l-.85-.09A10.44,10.44,0,0,0,1.39,60.05Z"></path>
      <path class="cls-34" d="M51.24,102.71s-1.18.85-1.31.91-1.23,1-1.53.76-.43-1.38-.77-2.25-.17-1.75-.85-2.43-3.53-.56-4.1-1.87c0,0,2.07.35,2-2.28s-2.48-2.55-3.8-3c0,0,1.14-.26,1-1.18s-.58-3.47-1.18-3.68-2.33.4-2.4,1a11.72,11.72,0,0,0-.49-3.12c-.41-.86-.53-3-1.18-2.89a3.39,3.39,0,0,0-1.93,1.16c-.1.36.19-1-.52-1.77A4.39,4.39,0,0,0,32.84,81c-.18-.11.38-1.71-.28-1.88a7.63,7.63,0,0,1-1.44-.33,1.21,1.21,0,0,0-1.48.4l-.61.63a4.1,4.1,0,0,1-.6-2.11c.07-1-1,.25-2-.09s-.73-.53-1.33-.27c0,0,.1-.35.23-.89s-.14-.73-.35-1.07a1.63,1.63,0,0,1-.38-.88c0-.32-1.07-.08-1.64-.79s-1.63.1-2,.59a3,3,0,0,1-.79-2.07c.17-1,1-1.22.78-1.79s-1-.21-1.11-.73-.3-.8-.67-1.9.19-.65-.22-1.51-.9-1.17-1-2-.13-.89-.56-.68-1.11,1.71-1.85,1.62a11,11,0,0,1-2.91-1.42c-.45-.3-1.75-.21-2.08-.45a1.47,1.47,0,0,0-1.19-.39A4.33,4.33,0,0,0,7.2,64.87c-.36.95-1.6,2.73-3.68,1.33S.26,65.76.26,65.76s-.53-3.35.78-5.4c0,0,.51,0,.52-1.2s-.41-1.71-.13-2.44a3.21,3.21,0,0,1,1.71-1.5c.72-.36.34-.61.52-1s1.08-1.63,2-.22,1.73.49,1.71-.24a4.62,4.62,0,0,0-1-2.44A5.52,5.52,0,0,1,8,49.19a3.39,3.39,0,0,1,2.21-.39,2.19,2.19,0,0,0,1.08-.59c.11-.1-.09-.65-.81-1.24s-1-1-1.21-.91.17-1.47,1.12-2.09.77-.31,1.43-.62,1-.54,1.54-.82.91-.69,1.62-.1,1.13,1.13,1.52.79.7-.62.3-1.32-1.1-.37-1.64-1.33a3.14,3.14,0,0,1-.12-2.49s.43.42.77.28a3.33,3.33,0,0,1,2,.34c.46.3.5.85,1.07.13s1.56-1.95,2.12-2.12,1.61.33,1.85.39.81-.4,1.16-.44,1.19-.3,2,2.11c0,0-.08.64,1,1s.58,3,.45,3.37-.34.61.08.94A2.14,2.14,0,0,1,27.86,46a3.18,3.18,0,0,0-.15,2.3,9.49,9.49,0,0,1,.4,1.67c.1.39.46,1.24.69.72s0-.6,0-1.29-.25-1.8.39-1.83a2.46,2.46,0,0,0,1.48-.61c.34-.3.59-.14.9.22s.35,1.23.61,1.17.53-.15.34-.52a1.87,1.87,0,0,1,0-1.64c.31-.59.86-1.88,1.32-2s1.22-.26,1.57.33a4.77,4.77,0,0,1,.36,3.83c-.63,1.45.8,4.81.89,5s.44,1.15,1.1.3,2.16-2,3.42-1.3a2.73,2.73,0,0,1,1,3,12.16,12.16,0,0,1-1,1.11c-.14.13-.37,1.18.11,1.23A3.3,3.3,0,0,0,42.87,57a1.56,1.56,0,0,1,2.23.75c.83,1.34.48,1.86.69,2.41s1.11,1.42.34,2.37a1.91,1.91,0,0,1-.76.34A1.77,1.77,0,0,0,44,64c-.47.9.16,2.73.37,3.13s.94,1.19,1.79-.41.74-2,.63-2.4S49,65.68,48.58,68s-1.25,2-1.41,2.94a2.43,2.43,0,0,0,.14,1.84s-.16-.39.34-1.15c0,0,.87-1.08,1.39,3a26.88,26.88,0,0,1-.58,3.11c-.46,1.94,0,1.73.14,2.16s1.2.64,1.5.91.1.66.74.09.6,0,.65-.57h0s.72,1.07-.18,3.34c0,0,.94,1.25-.64,3.8s1,1.15,1.31.55c0,0,.27-.29-.24,2.5A5.09,5.09,0,0,1,52,93.22s1.16-1.07,1-1.9c0,0,.52,2.41.06,3.4s.63,2.47,1.17,1.3-.26,2.41-1.14,2.91.69.46,1.06.24-.88,1.83-2,2.47S51.24,102.71,51.24,102.71Z"></path>
      <path class="cls-18" d="M52.45,100.2a25.69,25.69,0,0,1-1.94-3.07L48.8,94l-3.43-6.23-.86-1.55c-.3-.52-.64-1-1-1.51l-1.94-3a67.93,67.93,0,0,0-4.11-5.79,54.1,54.1,0,0,0-4.8-5.23c-2-1.32-3.55-3.19-5.61-4.34-1.08-.55-1.89-1.47-2.94-2a13,13,0,0,0-3.33-1.19,6.12,6.12,0,0,0-1.76-.12,10.47,10.47,0,0,1-1.77.13,13.53,13.53,0,0,0-1.76-.31,5.22,5.22,0,0,0-1.76.16,5.53,5.53,0,0,1,1.77-.18,14.85,14.85,0,0,1,1.75.29A10.66,10.66,0,0,0,19.06,63a6.66,6.66,0,0,1,1.78.1,13.22,13.22,0,0,1,3.37,1.17c1.08.54,1.89,1.46,2.95,2,2.12,1.16,3.7,3,5.69,4.3a53.46,53.46,0,0,1,4.89,5.21,69.64,69.64,0,0,1,4.19,5.78l2,3c.32.5.66,1,1,1.49l.88,1.56,3.51,6.21L51,96.84a27.25,27.25,0,0,0,1.88,2.93l0,.06a.3.3,0,0,1,0,.43.31.31,0,0,1-.43-.05Z"></path>
      <path class="cls-18" d="M44.16,88.9a13.13,13.13,0,0,0-1.09-1.75,6.15,6.15,0,0,0-1.43-1.45,1.94,1.94,0,0,0-.91-.36,1.82,1.82,0,0,0-.93.26,4.94,4.94,0,0,1-1,.35,1.75,1.75,0,0,1-.56,0,.64.64,0,0,1-.55-.36.15.15,0,0,1,.28-.13h0v0c.06.16.46.22.76.15a4.39,4.39,0,0,0,1-.29,2,2,0,0,1,1-.24,2.16,2.16,0,0,1,1,.42,6.21,6.21,0,0,1,1.4,1.54A13.83,13.83,0,0,1,44.16,88.9Z"></path>
      <path class="cls-18" d="M40.83,82.54l-3.95-5.77a34.5,34.5,0,0,1-1.88-3A7.55,7.55,0,0,0,33,71a.13.13,0,0,1,0-.07,20.17,20.17,0,0,0-.94-3.53,4.49,4.49,0,0,0-.89-1.52,1.41,1.41,0,0,0-.76-.35c-.29-.06-.6-.07-.92-.16A2.1,2.1,0,0,1,28.21,64a11.72,11.72,0,0,1-.49-1.8,21.27,21.27,0,0,0-.87-3.56,4.35,4.35,0,0,0-.92-1.53,4.28,4.28,0,0,1-1.12-1.49c-.25-.57-.41-1.17-.64-1.73a2.2,2.2,0,0,0-1.08-1.33,3.38,3.38,0,0,0-1.77.11,8.82,8.82,0,0,1-1.85.14c-.61,0-1.22-.12-1.83-.15a4.7,4.7,0,0,1-.92-.09,2.05,2.05,0,0,1-.79-.47,2.06,2.06,0,0,0,.79.44,4.69,4.69,0,0,0,.92.07c.61,0,1.23.09,1.84.09a8.42,8.42,0,0,0,1.81-.18,3.44,3.44,0,0,1,1.86-.12,2.36,2.36,0,0,1,1.19,1.42c.25.57.42,1.17.66,1.72a4,4,0,0,0,1.09,1.42,4.63,4.63,0,0,1,1,1.59A22.76,22.76,0,0,1,28,62.12a11.67,11.67,0,0,0,.5,1.75,1.81,1.81,0,0,0,1.09,1.22c.53.17,1.25.07,1.78.58a4.69,4.69,0,0,1,1,1.64,20.34,20.34,0,0,1,.92,3.59l0-.07a7.77,7.77,0,0,1,2,2.89,33.66,33.66,0,0,0,1.84,3Z"></path>
      <path class="cls-18" d="M34.79,73.74A21.18,21.18,0,0,1,30.4,72.2a4.39,4.39,0,0,1-1-.69,5.16,5.16,0,0,1-.69-1,1.52,1.52,0,0,0-.36-.4,1.63,1.63,0,0,1-.37-.5,9.06,9.06,0,0,1-.44-1.08,8.3,8.3,0,0,0-2.32-3.86,10.18,10.18,0,0,1-3.08-3.44,9.06,9.06,0,0,1-.5-1,10,10,0,0,0-.44-1.07,6.53,6.53,0,0,0-1.31-1.86,2.49,2.49,0,0,1-.78-.86c-.17-.4,0-.79-.06-1.15-.2-.74-.93-1.16-1.52-1.63a12.64,12.64,0,0,1-1.68-1.59,1.06,1.06,0,0,0-1-.36,7.36,7.36,0,0,1-1.15.13,1.31,1.31,0,0,1-1-.46,3.44,3.44,0,0,1-.58-1l-.79-2.17.81,2.17a3.34,3.34,0,0,0,.58,1,1.3,1.3,0,0,0,1,.44,7.5,7.5,0,0,0,1.15-.13,1.26,1.26,0,0,1,.58,0,1.36,1.36,0,0,1,.48.34A13.83,13.83,0,0,0,17.6,53.6c.59.46,1.34.87,1.57,1.67.1.4-.09.8.06,1.13a2.61,2.61,0,0,0,.77.82,6.65,6.65,0,0,1,1.36,1.88,9.66,9.66,0,0,1,.44,1.07,10.28,10.28,0,0,0,3.57,4.39,8.34,8.34,0,0,1,2.41,3.93,11,11,0,0,0,.44,1.05,1.51,1.51,0,0,0,.32.42,2,2,0,0,1,.41.45,4.53,4.53,0,0,0,.66.91,4,4,0,0,0,.92.64,21.11,21.11,0,0,0,4.31,1.48h0a.15.15,0,0,1,.11.18.14.14,0,0,1-.18.12Z"></path>
      <path class="cls-18" d="M37.34,77.33c-.51-.25-1-.49-1.56-.7-.26-.12-.53-.18-.8-.28a4.79,4.79,0,0,0-.79-.31,8.07,8.07,0,0,1-3.37-.33,6.49,6.49,0,0,1-1.61-.63c-.49-.35-.83-.81-1.36-1a5.24,5.24,0,0,0-3.22.49h0a.16.16,0,0,1-.2-.09.17.17,0,0,1,.1-.2h0a5.54,5.54,0,0,1,3.41-.42,5.46,5.46,0,0,1,1.39,1,6.18,6.18,0,0,0,1.54.64,7.78,7.78,0,0,0,3.35.4,4.28,4.28,0,0,1,.79.34c.26.1.54.17.8.29C36.32,76.82,36.83,77.07,37.34,77.33Z"></path>
      <path class="cls-18" d="M28.14,77.31A1.68,1.68,0,0,1,28.51,76a2.82,2.82,0,0,1,1.11-.77,2.64,2.64,0,0,0-1,.86,1.42,1.42,0,0,0-.2,1.17h0a.16.16,0,0,1-.1.2.15.15,0,0,1-.19-.1Z"></path>
      <path class="cls-18" d="M28.92,79.76a2.29,2.29,0,0,1,.83-1.46,1.66,1.66,0,0,1,.79-.32,2.42,2.42,0,0,1,.85,0h0a1.56,1.56,0,0,0,1.13,0,1.91,1.91,0,0,1,1.19.34,7.38,7.38,0,0,0,2.25.84,5.23,5.23,0,0,1,2.29.79,5.93,5.93,0,0,1,1.89,1.51,5.86,5.86,0,0,0-1.91-1.47A5.08,5.08,0,0,0,36,79.33a7.28,7.28,0,0,1-2.3-.82,1.81,1.81,0,0,0-1.11-.3,1.7,1.7,0,0,1-1.25,0l0,0a2.33,2.33,0,0,0-.79,0,1.45,1.45,0,0,0-.7.29,2.07,2.07,0,0,0-.72,1.33h0a.12.12,0,0,1-.13.1.12.12,0,0,1-.1-.14Z"></path>
      <path class="cls-18" d="M34.58,83.81a2.75,2.75,0,0,1,1.26-1.63,2.11,2.11,0,0,1,2,.17,7.08,7.08,0,0,1,1.57,1.25,5.37,5.37,0,0,1,1.17,1.63,5.49,5.49,0,0,0-1.22-1.57,7.35,7.35,0,0,0-1.6-1.18,2,2,0,0,0-1.83-.1,2.46,2.46,0,0,0-1.06,1.51v0a.15.15,0,0,1-.19.1.15.15,0,0,1-.1-.19Z"></path>
      <path class="cls-18" d="M29.91,71.83a.83.83,0,0,0-.39,0,2.85,2.85,0,0,1-.46.1,6.82,6.82,0,0,1-.93-.09,1.74,1.74,0,0,0-.88,0,2.33,2.33,0,0,1-.86.35,9.46,9.46,0,0,1-1.84.24c-.32,0-.6-.19-.89-.23l-.92,0h0a2.3,2.3,0,0,0-1.24.74A2.27,2.27,0,0,0,21,74.26a2.34,2.34,0,0,1,.5-1.37,2.47,2.47,0,0,1,1.24-.78h0l.93,0c.31,0,.58.21.89.22a10.13,10.13,0,0,0,1.81-.26,2.36,2.36,0,0,0,.83-.36,1.89,1.89,0,0,1,.94-.06,5.8,5.8,0,0,0,.91.08c.27,0,.58-.23.95-.06a.07.07,0,0,1,0,.1.08.08,0,0,1-.1,0h0Z"></path>
      <path class="cls-18" d="M18.91,66.12a1.53,1.53,0,0,1,.82-.16.79.79,0,0,1,.42.15,2.62,2.62,0,0,1,.29.28,4.22,4.22,0,0,0,1.2.85,1.44,1.44,0,0,0,.7.09,1.68,1.68,0,0,1,.77.18c.48.21.9.51,1.35.73a10,10,0,0,1,1.38.63,3.59,3.59,0,0,1,.58.51,4.51,4.51,0,0,0,.59.47c.83.58,1.7,1.11,2.57,1.62-.89-.49-1.77-1-2.62-1.55a6.62,6.62,0,0,1-.61-.47,2.9,2.9,0,0,0-.57-.48,8.66,8.66,0,0,0-1.39-.59c-.47-.22-.89-.5-1.35-.69a1.58,1.58,0,0,0-.7-.15,1.56,1.56,0,0,1-.79-.09,4.19,4.19,0,0,1-1.29-.87c-.2-.19-.33-.33-.56-.34a1.39,1.39,0,0,0-.65.16h0a.14.14,0,0,1-.2-.07.16.16,0,0,1,.07-.21Z"></path>
      <path class="cls-35" d="M1.39,60.05a4.22,4.22,0,0,1,1.68-.18,12.36,12.36,0,0,0,2,.11,2.81,2.81,0,0,0,1.62-.53c.69-.4,2.26-2.37,3.37-2.53s1.86.2,3.66,1.49,2.82,2.79,3.68,3.26A19.67,19.67,0,0,0,19.67,63"></path>
      <path class="cls-35" d="M2.66,55.48a1.8,1.8,0,0,1,1.65.75A4,4,0,0,0,6.53,58c.67.06,1.68.12,1.68.12"></path>
      <path class="cls-35" d="M5.68,54s.76,2.19,2.19,2.45,2.45.41,2.91.49"></path>
      <path class="cls-35" d="M12,50.1s-.47,1,.74,2.71a7.54,7.54,0,0,1,1.41,3.26,22.86,22.86,0,0,0,1.1,3,6.38,6.38,0,0,0,1.11,1.74"></path>
      <path class="cls-18" d="M9.2,45.94a2.56,2.56,0,0,1,2-.43c.36.09.61.43.83.56s.54,0,.79-.21a2.12,2.12,0,0,1,.88-.53,2.68,2.68,0,0,1,1,.29,3.65,3.65,0,0,0,1.91-.24h0a.6.6,0,0,1,.69.33,3.72,3.72,0,0,1,.19.34c.06.11.1.25.24.21a4.2,4.2,0,0,1,1.54,0,4.2,4.2,0,0,0-1.54,0c-.05,0-.15,0-.19,0a1.62,1.62,0,0,1-.1-.18,2.9,2.9,0,0,0-.2-.33c-.13-.2-.37-.38-.59-.28h0a3.57,3.57,0,0,1-2,.29c-.32-.09-.63-.29-.91-.25A2.09,2.09,0,0,0,13,46a1.65,1.65,0,0,1-.44.28.67.67,0,0,1-.57,0c-.34-.2-.5-.45-.81-.52a2.34,2.34,0,0,0-1.75.44h0a.16.16,0,0,1-.21-.05.15.15,0,0,1,0-.21Z"></path>
      <path class="cls-18" d="M14.7,51.71a1.54,1.54,0,0,0,1.09-.83,7.56,7.56,0,0,0,.62-1.28l.29-.66a2.49,2.49,0,0,1,.16-.33c.07-.1.13-.24.31-.29a.45.45,0,0,1,.4.17,2.2,2.2,0,0,1,.26.27c.15.18.3.37.46.54a1.85,1.85,0,0,0,1.15.63.5.5,0,0,0,.25,0s0-.07-.05-.16-.24-.4-.36-.61a3.69,3.69,0,0,1-.54-1.38,2.13,2.13,0,0,1,.36-1.47,6,6,0,0,1,1-1.05,4.31,4.31,0,0,1,.59-.44c.11-.08.19-.11.18-.16s0-.22.05-.34a13.14,13.14,0,0,1,.7-2.81,1.65,1.65,0,0,1,1-1.07,3.15,3.15,0,0,1,1.42.32,1.58,1.58,0,0,0,1.32-.24,4.17,4.17,0,0,0,1.08-.93,4.45,4.45,0,0,1-1,1,1.7,1.7,0,0,1-1.4.33,3,3,0,0,0-1.34-.28c-.43.1-.67.56-.84,1a14.37,14.37,0,0,0-.64,2.76c0,.12,0,.22-.05.37a.38.38,0,0,1-.15.22l-.16.11a5.34,5.34,0,0,0-.55.42,6.51,6.51,0,0,0-1,1A1.83,1.83,0,0,0,19,47.71,3.45,3.45,0,0,0,19.52,49c.12.2.25.4.36.63a.59.59,0,0,1,.07.2.27.27,0,0,1-.09.29.63.63,0,0,1-.44.08,2,2,0,0,1-1.3-.73c-.17-.18-.31-.38-.46-.56s-.32-.41-.45-.39-.26.31-.36.5l-.3.65a7.71,7.71,0,0,1-.69,1.26A1.61,1.61,0,0,1,14.7,51.71Z"></path>
      <path class="cls-18" d="M37,75a29.3,29.3,0,0,1-1-4.13c-.13-.7-.17-1.42-.23-2.12a11.31,11.31,0,0,0-.48-2.07,31.25,31.25,0,0,0-1.6-3.94c-.62-1.28-1.37-2.49-2.06-3.73a33.91,33.91,0,0,0-2.26-3.59,26.88,26.88,0,0,1-3-3.06,5,5,0,0,1-1-1.92,4,4,0,0,1,.16-2.17,5.14,5.14,0,0,1,1.09-1.89c.27-.27.62-.43.82-.66a1.87,1.87,0,0,0,.32-.91h0a.14.14,0,0,1,.17-.12.15.15,0,0,1,.13.18h0A2.22,2.22,0,0,1,27.62,46c-.28.31-.61.43-.84.67a4.91,4.91,0,0,0-1,1.77,3.76,3.76,0,0,0-.16,2,4.72,4.72,0,0,0,.93,1.84,26.56,26.56,0,0,0,2.94,3.07A37.16,37.16,0,0,1,31.7,59c.68,1.25,1.42,2.47,2,3.76a30,30,0,0,1,1.57,4,11.39,11.39,0,0,1,.47,2.08c.05.71.09,1.42.21,2.12A29.31,29.31,0,0,0,37,75Z"></path>
      <path class="cls-18" d="M28.57,64.58a6.3,6.3,0,0,1-2.42-2.77c-.52-1.11-1-2.23-1.47-3.35-.24-.56-.49-1.11-.71-1.69a5.34,5.34,0,0,0-.76-1.64c-.37-.48-.94-.78-1.27-1.3-.18-.25-.3-.54-.47-.79a.77.77,0,0,0-.77-.37.8.8,0,0,1,.79.36c.17.26.29.54.47.78.34.51.91.8,1.29,1.29a5.32,5.32,0,0,1,.8,1.64c.23.56.49,1.12.74,1.67.51,1.11,1,2.24,1.51,3.32a6,6,0,0,0,2.36,2.63l0,0a.11.11,0,0,1,0,.15.11.11,0,0,1-.15,0Z"></path>
      <path class="cls-18" d="M31.29,66c-.22-.71-.44-1.42-.64-2.14a13.21,13.21,0,0,1-.46-2.2c.1-.77.39-1.45.45-2.19a4.33,4.33,0,0,0-.26-2.14s0,0,0,0c0-.88-.11-1.77-.23-2.65a11,11,0,0,0-.22-1.3,2,2,0,0,1-.08-.36,1.16,1.16,0,0,1,.06-.38,4.1,4.1,0,0,1,.31-.63,15.74,15.74,0,0,0,1.37-2.27,3.11,3.11,0,0,0,0-2.55s0,0,0,0,0,0,0,0a3,3,0,0,1,.4,1.28,3.65,3.65,0,0,1-.23,1.35,13.76,13.76,0,0,1-1.29,2.36c-.22.39-.45.74-.26,1.13a10.68,10.68,0,0,1,.22,1.34c.09.9.13,1.79.16,2.69v0a4.53,4.53,0,0,1,.23,2.25c-.07.75-.39,1.47-.49,2.16a11.92,11.92,0,0,0,.4,2.18c.18.72.37,1.44.58,2.15,0,0,0,0,0,0Z"></path>
      <path class="cls-36" d="M32.2,48.3a1.15,1.15,0,0,1,.16,1.5,3.19,3.19,0,0,0-.31,2.83,8.69,8.69,0,0,1-.12,3.44c-.13.77.49,2.43,2.25,1.15s.55-1.29,2-2.06,1.29-.82,1.57-1.58"></path>
      <path class="cls-37" d="M41.85,57.5A8.21,8.21,0,0,0,40,59.4a1,1,0,0,1-1.85,0c-.19-.37.3-.92.42-1.71s-.46-2.47-1.72-1.57-2.66,2.22-2.91,3.31-.49,1.73-.62-.37c0,0,.11-1-.47-1.39"></path>
      <path class="cls-18" d="M33.8,59.9c.09-.27.32-.58.65-.54a1.15,1.15,0,0,1,.71.53,5.38,5.38,0,0,1,.67,1.69c.27,1.18.48,2.37.8,3.54a10.13,10.13,0,0,0,.58,1.71A14.47,14.47,0,0,1,38,68.49c.24.56.36,1.17.64,1.69s.58,1.06.87,1.6a14.7,14.7,0,0,1,.81,1.64l.57,1.72L42,78.59c.36,1.16.79,2.3,1.19,3.44s.79,2.32,1.27,3.36l0,0a.15.15,0,1,1-.27.13h0c-.54-1.16-.86-2.29-1.27-3.44s-.81-2.28-1.16-3.45l-1.09-3.46-.56-1.73a12.8,12.8,0,0,0-.78-1.63c-.28-.53-.58-1.06-.85-1.61s-.39-1.15-.62-1.71a14.41,14.41,0,0,0-.73-1.66,10.31,10.31,0,0,1-.57-1.73c-.3-1.18-.5-2.37-.76-3.55a5.32,5.32,0,0,0-.64-1.69,1.16,1.16,0,0,0-.7-.53C34.13,59.32,33.9,59.63,33.8,59.9Z"></path>
      <path class="cls-36" d="M40.56,58.66a8.69,8.69,0,0,0-.36,2.71c0,1.53-1.12.19-1.27,2.29s.26,1.6-.07,2.37-.62.9.15,1,1.17-.49,1.82.17,1.73,1.57,2.33,1.58a5,5,0,0,0,2.6-1.49"></path>
      <path class="cls-36" d="M39.84,66.87A2,2,0,0,1,40.75,68a5.58,5.58,0,0,1,.74,2.72c-.12,1-1,4-.16,6.4"></path>
      <path class="cls-36" d="M41.19,67.5a7.69,7.69,0,0,0,1.44,2.39c.8.71.94.45,1.71,1.57s1.75,2.46,1.36,3.47a2.86,2.86,0,0,1-1.88,1.52c-.22,0,.18-.14.68.7s2.14.79,1.69,3.31S45,83,45.44,84.32s.51,3.54,1.19,5"></path>
      <path class="cls-18" d="M50.21,81.18s0,0,0,0a.66.66,0,0,0-.16.12,2.56,2.56,0,0,0-.28.42,8.6,8.6,0,0,0-.46,1,8.27,8.27,0,0,1-.49,1,6.88,6.88,0,0,1-.67.83,11.35,11.35,0,0,0,0,2.11,11.85,11.85,0,0,0,0,2.15,18.82,18.82,0,0,0,1.37,4.1A17,17,0,0,1,50.07,95,11.3,11.3,0,0,0,50.78,97,11.3,11.3,0,0,1,50,95a17.68,17.68,0,0,0-.62-2.07A18.51,18.51,0,0,1,48,88.8a12.29,12.29,0,0,1-.07-2.18c0-.36,0-.72,0-1.08a2.74,2.74,0,0,1,.06-1.13,1.86,1.86,0,0,1,.37-.44,2.42,2.42,0,0,0,.29-.42,6.18,6.18,0,0,0,.46-1,9.88,9.88,0,0,1,.45-1,4.45,4.45,0,0,1,.32-.48.87.87,0,0,1,.27-.21.33.33,0,0,1,.42.17.13.13,0,0,1-.09.18.17.17,0,0,1-.12,0Z"></path>
      <path class="cls-18" d="M50.14,88.88c.1,0,0,0,0,.12a1.32,1.32,0,0,0,0,.3,4.93,4.93,0,0,0,0,.66c0,.44.13.88.22,1.33.18.88.41,1.75.64,2.63s.45,1.76.65,2.64a17.51,17.51,0,0,1,.48,2.68,18.75,18.75,0,0,0-.55-2.66c-.23-.88-.48-1.75-.73-2.62s-.51-1.74-.72-2.63c-.1-.44-.19-.89-.26-1.34a5.36,5.36,0,0,1,0-.7,1.58,1.58,0,0,1,0-.37.88.88,0,0,1,.09-.21.28.28,0,0,1,.33-.11.16.16,0,0,1,.08.2A.15.15,0,0,1,50.14,88.88Z"></path>
      <path class="cls-38" d="M43.82,76.45a18.62,18.62,0,0,0,2.06-.51c.74-.27,1.25.21,1.31,1.66s0,1.06.51,1.77.11.12.49,1.68.52,1.74.58,2"></path>
      <path class="cls-37" d="M46.27,79.64a11.75,11.75,0,0,0,.7,3.48,26.18,26.18,0,0,1,1,5.1"></path>
      <path class="cls-39" d="M29.79,56a17.49,17.49,0,0,0-3.35-2.55c-1.36-.63-1.82-1.8-2.36-2a14.09,14.09,0,0,0-3-.57c-.72,0-1-.73-1.26-.86"></path>
    </g>
  </g>
</svg>
