<?xml version="1.0" encoding="UTF-8"?>
<svg xmlns="http://www.w3.org/2000/svg" viewBox="0 0 117.66 201.1">
  <defs>
    <style>.cls-1{fill:#a29274;}.cls-2{fill:#e3e0c9;}.cls-3{fill:#fcedce;}.cls-4{fill:#bda885;}.cls-5{fill:#d0c5a6;}.cls-6{fill:#8f8267;}.cls-7{fill:#ab967a;opacity:0.25;}.cls-8{fill:#9b8d71;}.cls-9{fill:#7c705b;}.cls-10{fill:#e7e6e3;}.cls-11{fill:#817870;}.cls-12{fill:#769b57;}.cls-13{fill:#79a05b;}.cls-14{fill:none;stroke:#79a05b;stroke-miterlimit:10;stroke-width:0.49px;}</style>
  </defs>
  <g id="Слой_2" data-name="Слой 2">
    <g id="Слой_1-2" data-name="Слой 1">
      <polygon class="cls-1" points="58.91 123.69 117.66 98.68 108.85 166.33 58.91 201.1 58.91 123.69"></polygon>
      <polygon class="cls-2" points="58.91 81.77 117.66 98.68 58.91 123.69 0 98.68 58.91 81.77"></polygon>
      <polygon class="cls-3" points="58.91 81.77 0 98.68 1.03 99.12 117.12 98.53 58.91 81.77"></polygon>
      <polygon class="cls-4" points="8.81 166.33 0 98.68 58.91 123.69 58.91 201.1 8.81 166.33"></polygon>
      <path class="cls-5" d="M37,99.51a32.38,32.38,0,0,1,2.78-3A27.1,27.1,0,0,1,43,94a31.67,31.67,0,0,1,7.38-3.58,38.55,38.55,0,0,1,4-1.07,37,37,0,0,1,4-.62,38.75,38.75,0,0,1,8.13,0c-2.7.18-5.37.46-8,.89a49.81,49.81,0,0,0-7.75,1.9,40.36,40.36,0,0,0-7.27,3.23A41.51,41.51,0,0,0,37,99.51Z"></path>
      <polygon class="cls-6" points="58.91 123.69 117.66 98.68 108.85 166.33 58.91 201.1 58.91 123.69"></polygon>
      <polygon class="cls-7" points="8.81 166.33 0 98.68 58.91 123.69 58.91 201.1 8.81 166.33"></polygon>
      <polygon class="cls-8" points="58.91 201.1 8.81 166.33 59.15 147.31 108.85 166.33 58.91 201.1"></polygon>
      <path class="cls-9" d="M19.46,136.59a10.8,10.8,0,0,1-.9-2.33,20,20,0,0,1-.54-2.44,18.1,18.1,0,0,1-.09-5,15.64,15.64,0,0,1,4.35-9.08,21.84,21.84,0,0,1,8.65-5.16,37,37,0,0,1,9.8-1.74,54.9,54.9,0,0,0-9.48,2.63,23.28,23.28,0,0,0-8.11,5.11,15.74,15.74,0,0,0-4.28,8.38,20,20,0,0,0-.26,4.84A18.65,18.65,0,0,0,19.46,136.59Z"></path>
      <path class="cls-9" d="M74.21,135.66c.15.25.48.33.74.47s.56.24.84.34c.56.22,1.14.41,1.71.6,1.15.37,2.31.71,3.47,1,2.33.63,4.68,1.2,7,1.66,4.73,1,9.52,1.6,14.37,2.16a53.13,53.13,0,0,1-14.61-1A54.58,54.58,0,0,1,80.69,139c-1.15-.41-2.29-.87-3.4-1.39-.56-.27-1.1-.55-1.64-.85A4.13,4.13,0,0,1,74.21,135.66Z"></path>
      <path class="cls-9" d="M42.65,132.13a43.43,43.43,0,0,1-3.9,13A36.2,36.2,0,0,1,35.21,151a22.16,22.16,0,0,1-4.89,4.73,39.25,39.25,0,0,0,4.13-5.27,61,61,0,0,0,3.22-5.82c1-2,1.83-4.06,2.66-6.14S41.93,134.27,42.65,132.13Z"></path>
      <path class="cls-9" d="M60.87,186c2.4-1.17,4.88-2.1,7.3-3.15s4.82-2.12,7.14-3.33A45.34,45.34,0,0,0,82,175.33a18.9,18.9,0,0,0,5.24-5.76,15.3,15.3,0,0,1-4.65,6.49,34.3,34.3,0,0,1-6.67,4.48,59.38,59.38,0,0,1-7.36,3.14c-1.26.45-2.53.84-3.8,1.21Z"></path>
      <path class="cls-9" d="M33.32,178.54a16.55,16.55,0,0,1-3.81-2.41,9.2,9.2,0,0,1-2.76-3.72,5.4,5.4,0,0,1-.34-2.4,6.05,6.05,0,0,1,.73-2.33,11,11,0,0,1,3.19-3.43,30.43,30.43,0,0,1,8.13-4,59.84,59.84,0,0,1,8.7-2.27c-2.82,1-5.62,2-8.37,3.14a37.24,37.24,0,0,0-7.74,4.13,10.35,10.35,0,0,0-2.92,3,4.75,4.75,0,0,0-.49,3.89,9.09,9.09,0,0,0,2.27,3.58A19.48,19.48,0,0,0,33.32,178.54Z"></path>
      <path class="cls-9" d="M87.19,134.29l4.37-6c1.44-2,2.85-4.05,4.18-6.12a62.31,62.31,0,0,0,3.69-6.37,20.56,20.56,0,0,0,2.31-7,15.82,15.82,0,0,1-1.45,7.34,40.6,40.6,0,0,1-3.54,6.64A62.37,62.37,0,0,1,87.19,134.29Z"></path>
      <path class="cls-10" d="M60.8,114.2a9.63,9.63,0,0,1,.18,5.28c-.35,1.67-.81,3.17-1.15,4.74a43,43,0,0,0-1.35,9.38,28.16,28.16,0,0,0,1.39,9.31,30.08,30.08,0,0,0,4.36,8.53,25.74,25.74,0,0,1-5.37-8.15,27.84,27.84,0,0,1-2.08-9.68,41.37,41.37,0,0,1,1.15-9.83c.36-1.59.82-3.18,1.15-4.69a8.37,8.37,0,0,0,.05-4.3h0a.87.87,0,0,1,.58-1.1A.89.89,0,0,1,60.8,114.2Z"></path>
      <path class="cls-10" d="M60.28,144.4c1,1,2,1.88,3.06,2.77a22.73,22.73,0,0,0,3.34,2.42,23.31,23.31,0,0,1-3.54-2.17c-1.13-.81-2.23-1.64-3.29-2.55Z"></path>
      <path class="cls-10" d="M59.73,142.68A16.51,16.51,0,0,1,58.19,145a16.06,16.06,0,0,1-2.07,1.74,5.6,5.6,0,0,0-1.46,2.08,6,6,0,0,0-.38,1.25,1.55,1.55,0,0,0,.15,1.25c-.34-.32-.28-.84-.27-1.27a6.56,6.56,0,0,1,.26-1.32,6.14,6.14,0,0,1,1.34-2.35,16,16,0,0,0,1.76-1.9,13.9,13.9,0,0,0,1.15-2.28Z"></path>
      <path class="cls-10" d="M58.41,132.92a13.16,13.16,0,0,0,2.72,2.46,10.34,10.34,0,0,0,1.58,1c.52.23,1.18.42,1.78.64a8.86,8.86,0,0,1,3.43,1.9,6.15,6.15,0,0,1,1.76,3.42,6,6,0,0,0-2-3.18,8.5,8.5,0,0,0-3.4-1.51,19.42,19.42,0,0,1-1.9-.52,10.68,10.68,0,0,1-1.78-.92,14.21,14.21,0,0,1-3.13-2.51Z"></path>
      <path class="cls-10" d="M64.93,137.31a18.78,18.78,0,0,1,.31,2.88,8.79,8.79,0,0,1-.31,2.85,8.55,8.55,0,0,0-.06-2.81,17.81,17.81,0,0,0-.66-2.73Z"></path>
      <path class="cls-10" d="M61,135.31a4.64,4.64,0,0,1,5.82.76A4.23,4.23,0,0,0,61.5,136Z"></path>
      <path class="cls-10" d="M59.45,124.52c1.23.82,2.23,1.8,3.37,2.49a20,20,0,0,0,3.78,1.62,14.63,14.63,0,0,1,3.82,1.84,5.71,5.71,0,0,1,2.4,3.38,5.52,5.52,0,0,0-2.57-3.14,14.32,14.32,0,0,0-3.83-1.52,21.23,21.23,0,0,1-4-1.41c-1.31-.68-2.4-1.61-3.55-2.25Z"></path>
      <path class="cls-10" d="M61,115.66a2.39,2.39,0,0,0,1.76,1.3,26.17,26.17,0,0,0,2.69.52,8.82,8.82,0,0,1,2.79.81c.85.41,1.68.87,2.49,1.35l2.39,1.47a16.3,16.3,0,0,1,2.35,1.57,6.85,6.85,0,0,1,2.69,4.79,6.71,6.71,0,0,0-2.88-4.56,16.57,16.57,0,0,0-2.38-1.41l-2.47-1.33c-.82-.43-1.65-.83-2.5-1.19a8.37,8.37,0,0,0-2.61-.61,24.44,24.44,0,0,1-2.83-.41,5,5,0,0,1-1.45-.57,2.84,2.84,0,0,1-1.14-1.32Z"></path>
      <path class="cls-10" d="M73.22,121.43a11.67,11.67,0,0,0,0,3.59,11.07,11.07,0,0,0,1,3.5,11.05,11.05,0,0,1-1.29-3.45,11.92,11.92,0,0,1-.26-3.73Z"></path>
      <path class="cls-10" d="M70.61,119.58a7.76,7.76,0,0,1,4.48.21A12.19,12.19,0,0,1,78.94,122,12,12,0,0,0,75,120.06a7.29,7.29,0,0,0-4.24,0Z"></path>
      <path class="cls-10" d="M60.45,115.27a5.2,5.2,0,0,1-1.6,2.54,10.45,10.45,0,0,1-2.25,1.71,32,32,0,0,1-5.16,1.8,13.54,13.54,0,0,0-4.58,2.62,10.37,10.37,0,0,0-3.15,4.27,10.56,10.56,0,0,1,2.95-4.5,14.08,14.08,0,0,1,4.57-3,31.77,31.77,0,0,0,4.91-2,9.49,9.49,0,0,0,2-1.63,4.43,4.43,0,0,0,1.19-2Z"></path>
      <path class="cls-10" d="M47.38,123.38a2.9,2.9,0,0,0-1.4.05,8,8,0,0,0-1.38.52,12.23,12.23,0,0,0-2.47,1.65,12.38,12.38,0,0,1,2.39-1.8,6.93,6.93,0,0,1,1.39-.62,3.1,3.1,0,0,1,1.55-.14Z"></path>
      <path class="cls-10" d="M57.19,118.54l-3.39-1a22.9,22.9,0,0,0-3.39-.82,7.25,7.25,0,0,0-3.42.38,11.61,11.61,0,0,0-3.07,1.67,11.88,11.88,0,0,1,3-1.83,7.44,7.44,0,0,1,3.5-.54,23.77,23.77,0,0,1,3.48.67l3.43.81Z"></path>
      <path class="cls-10" d="M59.2,125.28A14.38,14.38,0,0,1,55.72,129c-1.32,1-2.72,1.93-4.08,2.87a21.82,21.82,0,0,0-3.76,3.15,9.41,9.41,0,0,0-2.34,4.27,9.48,9.48,0,0,1,2.12-4.46,22.23,22.23,0,0,1,3.63-3.43c1.31-1,2.65-2,3.87-3.08a13.3,13.3,0,0,0,3-3.66Z"></path>
      <path class="cls-10" d="M49.24,133.55a5.06,5.06,0,0,0-4.21-.07A8.34,8.34,0,0,0,41.4,136a8.53,8.53,0,0,1,3.53-2.8,6.78,6.78,0,0,1,2.24-.57,4.56,4.56,0,0,1,2.32.41Z"></path>
      <path class="cls-10" d="M52.65,131a11.1,11.1,0,0,1,1.05,2.45,10.39,10.39,0,0,1,.43,2.58,11.21,11.21,0,0,1-1,5.05,10.46,10.46,0,0,0,.73-5,9.28,9.28,0,0,0-.57-2.46,8.34,8.34,0,0,0-1.17-2.19Z"></path>
      <polygon class="cls-3" points="1.03 99.12 58.91 123.69 117.66 98.68 117.12 98.53 1.03 99.12"></polygon>
      <ellipse class="cls-1" cx="60.77" cy="99.86" rx="13.57" ry="5.31"></ellipse>
      <ellipse class="cls-11" cx="61.12" cy="101.65" rx="11.18" ry="4.37"></ellipse>
      <path class="cls-12" d="M60.76,63.87a24.93,24.93,0,0,1-2.18-2.35c-.46-.55-5.44-3.17-6.43-4.36S49.83,54.75,51.4,53c0,0,0-2.54-1-3.34s-1.59-2.35-1.17-3,.66-1.46,1.07-1.49.4-.92.62-1,0-2.14.82-1.44a7.41,7.41,0,0,1,1.32,2.83s2.26-1.15,2,3c0,0-.17.8,1.15.65s3.78.45,2.43,4.57c0,0,1.54,5.25.54,5s2.5,3.27,2,4.22S61.31,64,60.76,63.87Z"></path>
      <path class="cls-12" d="M60.44,25c-.21-.56-3.94-8.06-6.95-8.94,0,0-1.59-.11-.64-1.46s-5.6-3.51-5.76-3.77-1.2-1.37-.28-2.29-5.58-2.89-5.58-2.89-.81-.73-.27-1.43-6.28-2.45-6.28-2.45S33.6.46,36.81,1.17,43,2.51,43,2.51s-.65-3,1.09-2.44c0,0,2.59,4,4,4.75,0,0,1.2-2.25,2.6-1.18l2.92,5a1.84,1.84,0,0,1,3.18.28,12,12,0,0,1,1.32,5.8A3.19,3.19,0,0,0,58.67,13s.11-.59,1.55-.18c0,0-.54-8.27,2.67-5,0,0,2.8-5.95,4-5.32,0,0,.91.07-.11,1.65a39.4,39.4,0,0,0-4.74,19.15s.4.52-.37,1.82a4.51,4.51,0,0,0,0,1.42c.15.5.24-.25,1.51-.29a2,2,0,0,0-.09-1.65c-.42-1.09-.89-4.44,2.2-4,0,0,.31-4.65,1.08-4.84s1.09,4.82,1.09,4.82,3.87-.93.47,3.92c0,0-.46.09.13,1s-.8,3.39-3.74,5.12l-1.16.82s-1,3.09-1.4,4c-1.16-.45-2.5-3.28-4.15-3.15s-3.41,1.37-3.57.21A2.27,2.27,0,0,1,55,30.08c.63-.28-1.89-.54-3.56-.73s-2.11-1.45-1.05-2-6.1-1.88-7.21-1.83-2-.84.79-.77,2.9.73,2.82.07.47-3.21,4.73.36c0,0,1,.92,1-.55s2.74-1.24,4,.85,1.85,2.21,2,1.37-.42-1.63-.12-1.9,1,.61,1.62,1.46,1,.48.65-.48Z"></path>
      <path class="cls-12" d="M61.61,46.37c-.4.85-4.72-2.85-5.79-2.68s-2.12-.14-2.13-1.21c0,0-5.44.45-6.07.16s-1.91-2,.22-3.26c0,0-5.36-1.83-6.82-4.47s2.26.48,3.78.58,1.77.25,2.26.22.21-2.2,1.9-1.72a5.12,5.12,0,0,0,1.39,1.14A33.75,33.75,0,0,1,54,36.79a2.85,2.85,0,0,0,1.38.52c.18,0-.33-3.34,2.3-1.38s3.77,3.33,3.86,4.66S62.59,44.33,61.61,46.37Z"></path>
      <path class="cls-12" d="M64.27,37.3c.42-.71.33-2.92,3.28-4.87s2.27-6.24,5.57-3.25c0,0,3-2.19,3.18-3.47s1.69-.5,1.22,1,1.23,2.67-2.67,6.82c0,0-.39.35.36,1s0,1.87-2.12,2.34-10.47,3.08-12.3,8.42Z"></path>
      <path class="cls-12" d="M55.19,72.54a9.88,9.88,0,0,0-8.58-2.82c-5.33.86-2.8,2.82-2.8,2.82s-7.68,3.19-3.08,12.2c0,0,1.16,1.28,1.53-.49s-.06-2.15.67-3.74,1.84-4,2.39-3.74,1.23,2.57,2.33.31S51.7,71.56,55.19,72.54Z"></path>
      <path class="cls-12" d="M53.58,71.5c0,3.27,2.53-7.11,5.55-5.23,0,0-.5-4.25-4.26-3.84a3.09,3.09,0,0,0-2.77,2.66C51.92,66.44,53.54,68.17,53.58,71.5Z"></path>
      <path class="cls-12" d="M53.85,85.08s-14.64-6.87-14,10.78c0,0,1.17,2.21,3-4.65,0,0-.57-.33,1.64-.49S49.55,83.44,53.85,85.08Z"></path>
      <path class="cls-13" d="M61.32,18.91l.49,10.48c.16,3.5.35,7,.37,10.51l-.31,21c-.2,13.93,1,27.89.72,42l-2.94-.1c.62-13.88-.19-27.9.38-41.95.34-7,.85-14,1.22-20.95.14-3.48.1-7,.1-10.48Z"></path>
      <path class="cls-12" d="M67.15,87.29a.77.77,0,0,0,.28-.34c.46-1.32,2-7,3.47-8.29s1.84-2.74,2.46-.24a1.52,1.52,0,0,1-.29,1s.31-.19,1.5-1c2.58-1.7,6.4-4.49,5.8-2.31s-1.39,2,.06,2,4.16-.6,5.81-.36,3.41,1-.78,1.46c-3.42.39-2,.67-1.34.76a1,1,0,0,1,.51.22c.43.38,1,1.16-2,1.07-3.94-.11-2.85-.05-2.67.31s1.28,2.73-1.46,2.25a9.53,9.53,0,0,0-4.55.12c-.24.06,3.83,1.64.64,2.06S70,87.58,68.23,87.52C67.1,87.48,67.05,87.37,67.15,87.29Z"></path>
      <path class="cls-12" d="M64.73,89.93s11.29-2.12,4,8.8a24.91,24.91,0,0,1-.36-2.58c-.06-1-1.32.85-.45-2.67,0,0-1.8.09-.89-2.76A5,5,0,0,0,64.73,89.93Z"></path>
      <path class="cls-12" d="M65.62,89.93s1.88-3.85,2-6.16a49.82,49.82,0,0,0-.49-7.22c-.12-.79-1.51,1.51-1.51,4.15s1,3,0,2.65-1.64-.7-2.13.74S65.62,89.93,65.62,89.93Z"></path>
      <path class="cls-13" d="M68,86.12c-3.34,3.55-6.87,7.4-7.85,12.34-.13.69.92,1,1.06.3.94-4.77,4.34-8.45,7.56-11.87.48-.51-.29-1.29-.77-.77Z"></path>
      <path class="cls-14" d="M49.92,84.68c6-.49,7.68,4.18,10.49,4.22"></path>
      <path class="cls-13" d="M53.53,72a18.63,18.63,0,0,1,4.11,6.07c.79,1.85,1.38,3.79,2.31,5.58.44.84,1.71.1,1.27-.74-1-1.84-1.55-3.84-2.38-5.74A19.57,19.57,0,0,0,54.57,71c-.68-.66-1.73.38-1,1Z"></path>
      <path class="cls-13" d="M84.28,43.3c-2.52,2.37-5,4.76-7.41,7.25a68.94,68.94,0,0,0-6.65,7.86,43.88,43.88,0,0,0-4.92,9,74.39,74.39,0,0,0-3.15,9.75l-1.67-.46a75.66,75.66,0,0,1,3.63-9.82,44.92,44.92,0,0,1,5.41-8.94,70.18,70.18,0,0,1,7-7.66C79.07,47.85,81.67,45.57,84.28,43.3Z"></path>
      <path class="cls-12" d="M77.46,49.65c-.43.37,7.61-10.2,9.21-12.22s4.23-3.37,5.33,0c0,0-1,1.17,2.69-.24s7.79-5,8.58-1.47c0,0,2.7-2,2.58.61s1.53,1.78,1.77,1.78,3.37,1,0,2.39c0,0-2,.49-3-.07s-.61,1.17-.12,1.41,2.08,3.31-1.29,2.09a5.2,5.2,0,0,0-4.59-1.83c-3.13.23-4.44,0-3.11,1.2s3.41,4.06-.26,3.14S84.94,43.09,77.46,49.65Z"></path>
      <path class="cls-12" d="M84.22,54.9s3.8-2.15,8.82.85c0,0,3.44,1.9.43,2.88,0,0,7.17,6.25,3.37,6.13,0,0,1.47,4.84.24,5.52,0,0-1.59-4-2.39-4.72a2.1,2.1,0,0,1-2.45-1.66c-.67-2.08-1-3.06-1.41-3s-.06.91-.36,1.31-.8,1.14-2.39-.88-3.25-3.92-3.86-4.9S84.22,54.9,84.22,54.9Z"></path>
      <path class="cls-12" d="M66.69,64.27s5.82-5.15,9-5.39,5.21-1,3.55,2.14c0,0-1.47.86,1.84,1.9a8.31,8.31,0,0,0,5.33.16c.48,0,4.11.33,2.45,2.48,0,0-1.16.37,1,1.1s4.78,2,5.58,6.07c0,0,1.84,1.59,1.1,2.08s-6.92-4.47-8.09-4.53c0,0,1.11,4.22-2.75,3.73a3.42,3.42,0,0,1-2.15-2.32c-.67-2-4-3.5-4-3.5s-.93-.43-.62.62a2.8,2.8,0,0,1-1.17,2.57c-.48.31-1.64,1.41-2.44-.43S69,63.9,66.69,64.27Z"></path>
      <path class="cls-14" d="M71.48,56.24c4.16-1.07,8.32-2.46,13.51-.81"></path>
      <path class="cls-12" d="M33.65,50.8a9.82,9.82,0,0,1-5.24-2c-2.54-1.94-5.8-4.58-6.15-4.78s-2.24,1.19-.92,4.43c0,0,1,1.29-.86.74S14.07,46,12.9,47.86s0,2.29,0,2.29A12.46,12.46,0,0,0,8,52.54C6,54.28,9.29,54.18,9.54,54.18s4.17-1,4.27-.35-.76,2.79,1.68,2.49,3.72-2.83,4.28-2.78,1.32.19,1,1.29-.4,3.08,2.34,2.43,5.24-3.58,5.39-3.13-.3.75-.76,1A21.81,21.81,0,0,0,24.09,60c-.51,1.29-4.58,3.38-4.37,9,0,0,.05,1.74,1.11,1.39,0,0-.71,4.28,2.09,5.62,0,0,.71,6.17,2.19,6.32,0,0-.41-7.21.61-9.3,0,0,.25-6.72.71-9.51s.47-9.17,7.22-12.19Z"></path>
      <path class="cls-12" d="M50.85,57a8.53,8.53,0,0,0-8.45,2.88s-.9,1.2.47,1.54c0,0-4,3.14-4,5s-.05,1.29.41,1.69-.15,4.53,1.22,5.57,1.58-5,1.58-5S43.6,71,44.83,63.15c0,0,3.07,1.68,3.73-1.66s2.44-3.83,3.56-3.68S50.85,57,50.85,57Z"></path>
      <path class="cls-12" d="M44,53.54c.25,0-8,.59-5.16,7.11,0,0,1.8,5.32-1.66,4.08a15.76,15.76,0,0,0-.61,3.93c.1,1.39-.15,2.63-1.42,2.09,0,0,.3,2.73-.51,2.73s-2.09-.3-3.26-4.67c0,0-3,.54-1.93-2.79S31.62,53.84,44,53.54Z"></path>
      <path class="cls-13" d="M31.62,51.68A35.26,35.26,0,0,1,60.55,65.81c.34.47,1.13,0,.79-.46A36.25,36.25,0,0,0,31.62,50.77a.46.46,0,0,0,0,.91Z"></path>
    </g>
  </g>
</svg>
