<?xml version="1.0" encoding="UTF-8"?>
<svg xmlns="http://www.w3.org/2000/svg" xmlns:xlink="http://www.w3.org/1999/xlink" viewBox="0 0 110.12 200.2">
  <defs>
    <style>.cls-1,.cls-16,.cls-17,.cls-18,.cls-19,.cls-21,.cls-22{fill:none;}.cls-2{fill:#956d4b;}.cls-3{clip-path:url(#clip-path);}.cls-4{fill:url(#Безымянный_градиент_2);}.cls-5{fill:#754120;}.cls-6{fill:#44281c;}.cls-7{fill:#6c3c1d;}.cls-8{fill:#714d31;}.cls-9{fill:#613822;}.cls-10{fill:#7f5637;}.cls-11{fill:#a07850;}.cls-12{fill:#8b5b3c;}.cls-13{fill:#84a63c;}.cls-14{fill:#708d34;}.cls-15{fill:#a4c044;}.cls-16,.cls-17,.cls-18{stroke:#a4c044;}.cls-16,.cls-17,.cls-18,.cls-21{stroke-linecap:round;stroke-linejoin:round;}.cls-16{stroke-width:0.43px;}.cls-17{stroke-width:0.32px;}.cls-18{stroke-width:0.3px;}.cls-19,.cls-21,.cls-22{stroke:#cfcecf;}.cls-19,.cls-22{stroke-miterlimit:10;}.cls-19,.cls-21{stroke-width:0.66px;}.cls-20{fill:#cfcecf;}.cls-22{stroke-width:0.64px;}.cls-23{fill:#e9c671;}.cls-24{fill:#d9a458;}.cls-25{fill:#613922;}</style>
    <clipPath id="clip-path">
      <polygon class="cls-1" points="7.72 171.53 57.69 195.05 103.91 171.64 55.86 151.28 7.72 171.53"></polygon>
    </clipPath>
    <linearGradient id="Безымянный_градиент_2" x1="-2897.73" y1="464.21" x2="-2894.93" y2="464.21" gradientTransform="matrix(34.36, 0, 0, -34.36, 99551.22, 16121.83)" gradientUnits="userSpaceOnUse">
      <stop offset="0" stop-color="#a17551"></stop>
      <stop offset="0.38" stop-color="#a17551"></stop>
      <stop offset="0.89" stop-color="#7a4928"></stop>
      <stop offset="1" stop-color="#72401f"></stop>
    </linearGradient>
  </defs>
  <g id="Слой_2" data-name="Слой 2">
    <g id="Слой_1-2" data-name="Слой 1">
      <path class="cls-2" d="M57.69,128.89s9.62,11.3,17.06,11.76,32.81-7.56,32.81-7.56l2.56-26.43L57.69,88.17Z"></path>
      <path class="cls-2" d="M0,104.79l5.23,34.47s18.58,2.79,21.83,1.86,18.12-6.51,22.29-6.51,8.34-5.72,8.34-5.72V88.17Z"></path>
      <g class="cls-3">
        <rect class="cls-4" x="31.38" y="123.96" width="48.87" height="98.4" transform="translate(-120.09 219.6) rotate(-86.92)"></rect>
      </g>
      <path class="cls-5" d="M7.72,171.53,5.23,139.26s23.69-.46,30.19-3.72,22.27-6.65,22.27-6.65l-1.83,22.39Z"></path>
      <path class="cls-6" d="M41.49,141.26a8.54,8.54,0,0,0-2.84-1.66l0,0s-3.79-1.13-5.85,1.41-1.71,5.29-.77,5.73a12.35,12.35,0,0,0,1.63.35l.09,0a28.27,28.27,0,0,0,3.51-.79,1.76,1.76,0,0,0,.6-.16l.65-.19c1.49-.46,1.67-.13,2.69-1a4,4,0,0,0,1.09-2.55l-.21-.5h0l0,0a1,1,0,0,0-.58-.51"></path>
      <path class="cls-6" d="M21.2,144.59a11,11,0,0,0-4,1.33v0s-4.3,2.69-3.59,6.84,3.66,6.13,4.88,5.6a13.64,13.64,0,0,0,1.71-1.28l0-.13c.92-1,1.59-3.16,2.21-4a2.1,2.1,0,0,0,.35-.72c.11-.21.21-.42.38-.79.8-1.82,1.28-1.71,1.29-3.46a5.12,5.12,0,0,0-1.54-3.21,3.36,3.36,0,0,0-.66-.22v0h-.08a1.26,1.26,0,0,0-1,.13"></path>
      <path class="cls-7" d="M57.69,128.89l-1.83,22.39,48.06,20.36,3.64-38.55s-15-1.73-21.48-.8S68.24,136,64.84,134.15a45.07,45.07,0,0,1-7.15-5.26"></path>
      <path class="cls-6" d="M39.39,151.89a3.49,3.49,0,0,0-1.26-.31h0a2.29,2.29,0,0,0-2,1.18c-.49,1.18-.05,2.18.35,2.24l.65-.06,0,0a12.3,12.3,0,0,0,1.23-.69l.21-.13.22-.14c.51-.34.61-.24.9-.69a1.59,1.59,0,0,0,.12-1.08l-.13-.16h0Z"></path>
      <path class="cls-6" d="M86.47,142.25a2.32,2.32,0,0,0-.11-.89h0s-.38-1-1.27-1-1.43.51-1.38.78l.2.41,0,0,.75.63.13.1.15.11c.35.24.3.34.66.41a1.06,1.06,0,0,0,.74-.19l.07-.12h0v-.23Z"></path>
      <path class="cls-6" d="M99.89,158.44a11,11,0,0,0-1.9-3.82h0s-3.32-3.9-7.36-2.59-5.59,4.53-4.88,5.68a14.36,14.36,0,0,0,1.52,1.52l.14,0c1.19.77,3.39,1.13,4.37,1.61a2.24,2.24,0,0,0,.77.26l.84.26c1.93.54,1.9,1,3.64.79a5.19,5.19,0,0,0,3-2,3.74,3.74,0,0,0,.13-.68h0l0-.07a1.27,1.27,0,0,0-.28-1"></path>
      <path class="cls-6" d="M73.78,145.15a8.59,8.59,0,0,0-1.87,2.69l0,0s-1.4,3.67,1,5.9,5.11,2.09,5.62,1.19a12.49,12.49,0,0,0,.46-1.59l0-.1a27.85,27.85,0,0,0-.52-3.53,1.77,1.77,0,0,0-.12-.61c0-.17-.07-.35-.13-.66-.35-1.49,0-1.65-.81-2.74a4,4,0,0,0-2.44-1.26l-.51.17h0l0,0a.91.91,0,0,0-.54.53"></path>
      <path class="cls-8" d="M74,172.53a1.58,1.58,0,0,0,1.57-.41c.54-.7.43-1.44.17-1.55l-.44-.09c-.29,0-.32.7-.33.71Z"></path>
      <path class="cls-9" d="M73,172s.87.79,1.23.55.8-.46.8-.46l0-.24-1-.32-.56.19Z"></path>
      <path class="cls-10" d="M73,171.82a.32.32,0,0,0,.4.27c.26-.1.52-.23.52-.23l.33-1c.06-.14.14-.19-.25-.06s-.45,0-.72.29a1.11,1.11,0,0,0-.28.7"></path>
      <path class="cls-11" d="M73.88,171.86a5.57,5.57,0,0,0,.13-.7c0-.3,0-.39.28-.43s.84-.33,1.11-.22.26.08.26.44a1.28,1.28,0,0,1-.39.87.7.7,0,0,1-.75.32,1.87,1.87,0,0,1-.64-.28"></path>
      <path class="cls-8" d="M63.28,166.41s2.39.12,3.24-1.67.26-3.36-.36-3.49a6.06,6.06,0,0,0-1,0c-.66,0-.37,1.67-.39,1.7Z"></path>
      <path class="cls-9" d="M60.93,165.58s2.3,1.32,3,.62,1.53-1.4,1.53-1.4l-.15-.52A7.53,7.53,0,0,0,63,164c-.36.2-1,.62-1.16.69Z"></path>
      <path class="cls-10" d="M60.74,165.31c.11.21.43.73,1,.4a8.38,8.38,0,0,0,1.05-.75S63,163,63,162.67s.22-.48-.58,0-1,.31-1.44,1a2.41,2.41,0,0,0-.28,1.66"></path>
      <path class="cls-11" d="M62.78,165a11.07,11.07,0,0,0-.05-1.59c-.09-.7-.16-.87.42-1.08s1.68-1.13,2.32-1,.6.07.77.84a2.88,2.88,0,0,1-.41,2.1,1.61,1.61,0,0,1-1.52,1.07,4,4,0,0,1-1.53-.31"></path>
      <path class="cls-8" d="M53.32,174.17s1.86,1.42,3.54.43,2-2.58,1.62-3a7,7,0,0,0-.84-.53c-.55-.33-1.21,1.15-1.25,1.17Z"></path>
      <path class="cls-9" d="M51.86,172.22s1.15,2.33,2.08,2.14,2-.3,2-.3l.16-.5s-1.29-1.4-1.7-1.44-1.14-.05-1.32-.08Z"></path>
      <path class="cls-10" d="M51.86,171.9c0,.23,0,.83.59.87a10.13,10.13,0,0,0,1.26,0L55.17,171c.25-.25.45-.27-.47-.33s-1-.27-1.7,0a2.35,2.35,0,0,0-1.14,1.19"></path>
      <path class="cls-11" d="M53.71,172.74a11.63,11.63,0,0,0,.83-1.32c.3-.61.35-.79.93-.65s2,0,2.44.44.45.39.17,1.11a2.85,2.85,0,0,1-1.49,1.47,1.58,1.58,0,0,1-1.81,0,4.06,4.06,0,0,1-1.07-1.09"></path>
      <path class="cls-8" d="M49,167.74a2.67,2.67,0,0,0,.1-2.73c-.86-1.21-2.11-1.39-2.41-1l-.35.68c-.22.44,1,.84,1,.87Z"></path>
      <path class="cls-9" d="M47.63,169s1.7-1,1.49-1.72a15.08,15.08,0,0,1-.35-1.51l-.4-.09s-1,1.08-1,1.39,0,.87,0,1Z"></path>
      <path class="cls-10" d="M47.39,169c.18,0,.63,0,.62-.5a7.72,7.72,0,0,0-.11-1l-1.4-1c-.2-.17-.23-.32-.21.38s-.15.74.12,1.3a1.75,1.75,0,0,0,1,.78"></path>
      <path class="cls-11" d="M47.9,167.53a7.93,7.93,0,0,0-1.06-.54c-.49-.19-.62-.21-.55-.67s-.13-1.51.17-1.89.26-.37.84-.2a2.12,2.12,0,0,1,1.21,1,1.18,1.18,0,0,1,.15,1.38,2.9,2.9,0,0,1-.76.88"></path>
      <path class="cls-8" d="M40.56,169.75a1.17,1.17,0,0,0,.38-1.12c-.2-.61-.69-.84-.86-.73l-.23.23.29.49Z"></path>
      <path class="cls-9" d="M39.82,170.08s.83-.2.84-.52,0-.67,0-.67l-.15-.09-.58.45-.12.42Z"></path>
      <path class="cls-10" d="M39.71,170.06l.33-.13.08-.41-.46-.59c-.06-.1,0-.16-.13.13s-.16.29-.12.55a.77.77,0,0,0,.3.45"></path>
      <path class="cls-11" d="M40.12,169.52l-.37-.36-.15-.35.32-.76.37,0a.9.9,0,0,1,.37.58.51.51,0,0,1-.12.59Z"></path>
      <path class="cls-8" d="M38,174.42s1.64-2.64.13-4.72-3.65-2.39-4.18-1.77a8.62,8.62,0,0,0-.6,1.16c-.37.77,1.66,1.46,1.69,1.51Z"></path>
      <path class="cls-9" d="M35.56,176.58s2.94-1.8,2.56-3-.63-2.62-.63-2.62l-.69-.14s-1.69,1.88-1.69,2.42.08,1.51.06,1.75Z"></path>
      <path class="cls-10" d="M35.13,176.62c.31,0,1.1,0,1.07-.88a12.44,12.44,0,0,0-.19-1.66s-2.09-1.41-2.44-1.72-.41-.56-.36.66-.25,1.29.21,2.25a3.15,3.15,0,0,0,1.71,1.35"></path>
      <path class="cls-11" d="M36,174.08a14.22,14.22,0,0,0-1.84-.93c-.85-.33-1.08-.37-1-1.16s-.23-2.61.29-3.27.45-.65,1.44-.35a3.69,3.69,0,0,1,2.12,1.78,2.05,2.05,0,0,1,.27,2.38A5.33,5.33,0,0,1,36,174.08"></path>
      <polygon class="cls-12" points="0 104.79 57.69 128.89 110.12 106.66 57.69 88.17 0 104.79"></polygon>
      <path class="cls-13" d="M82.65,40.29S80,34.18,84.34,32.75a30.44,30.44,0,0,0,.28,3.35C84.8,36.94,86.22,39.57,82.65,40.29Z"></path>
      <path class="cls-14" d="M83.45,41a4.34,4.34,0,0,0,4.16,4,17.27,17.27,0,0,0-1.36-4C85.52,39.84,83.1,39.6,83.45,41Z"></path>
      <path class="cls-13" d="M84.34,39.84s5.72-8,8.16-.37a17.94,17.94,0,0,0-3.53.82C88.06,40.74,87.79,41.75,84.34,39.84Z"></path>
      <path class="cls-15" d="M84.34,42.22c-.59.84-1,2.21,1.06,3.43,0,0,.06,0,.06,0,.41-1.81,1.86-2.62.37-3.7A1,1,0,0,0,84.34,42.22Z"></path>
      <path class="cls-15" d="M88.61,39.4c-1.55-.62-2.56,1.73-1.09,2.53a1.6,1.6,0,0,0,.71.21c1.55.11,1.76,0,2,.38S90.14,40,88.61,39.4Z"></path>
      <path class="cls-15" d="M89,38.7a2.24,2.24,0,0,0,1.2-.74,1.85,1.85,0,0,0,.38-.72,3.92,3.92,0,0,1,.71-1.58c.32-.24-2.48-.58-3.62.69A1.41,1.41,0,0,0,89,38.7Z"></path>
      <path class="cls-15" d="M86.47,36.86a3,3,0,0,0-2.61-3s0,2.8,0,3.19c0,.23.31.7.81.93C85.36,38.33,86.31,37.61,86.47,36.86Z"></path>
      <path class="cls-15" d="M89.68,17.82s1.71,3.83-1,4.64a1.4,1.4,0,0,1-1.75-1.52C86.93,19.47,88.36,19.54,89.68,17.82Z"></path>
      <path class="cls-15" d="M85.15,16.18s2.49,1.77,1,4.15a1.16,1.16,0,0,1-2.06-.19s0,0,0,0C83.51,18.53,85.26,17.5,85.15,16.18Z"></path>
      <path class="cls-15" d="M80.36,18.64a3.85,3.85,0,0,1,3.46,1.92c.45.91.33,1.81-.44,2.2a1.6,1.6,0,0,1-2-.93C81,21,81.49,20.18,80.36,18.64Z"></path>
      <path class="cls-15" d="M49.11,28.09s.71-3.43-3.22-3.25C45.89,24.84,45.68,28.84,49.11,28.09Z"></path>
      <path class="cls-15" d="M52.6,21.7s-4.31,3.72-1.19,4.85c0,0,1.8.1,1.33-2.52A7,7,0,0,1,52.6,21.7Z"></path>
      <path class="cls-15" d="M47,21.62c-.13,0,.42,1.83.46,2.47a1.33,1.33,0,0,0,1.93,1C50.34,24.55,50.59,21.41,47,21.62Z"></path>
      <path class="cls-15" d="M70.37,27.9s3.66.73,3.17-3.3a2.88,2.88,0,0,1-1.7.86C71,25.47,69.32,26.34,70.37,27.9Z"></path>
      <path class="cls-15" d="M70.58,29.48a2,2,0,0,0,.26.25c.67.57,2.5,1.72,3.89-1.05,0,0-1.54-.42-2.38-.57S70.55,28.14,70.58,29.48Z"></path>
      <path class="cls-15" d="M69.53,29s-2.81-.3-.57-3.33c0,0,.58,1.26.88,1.79A1.17,1.17,0,0,1,69.53,29Z"></path>
      <path class="cls-16" d="M84.62,24a10.6,10.6,0,0,1,3-2.26"></path>
      <path class="cls-16" d="M85.18,20.37s.4.75-.56,3.64"></path>
      <path class="cls-16" d="M83.1,21.75a4.2,4.2,0,0,1,1.24,2.61"></path>
      <path class="cls-17" d="M59.31,8.91c-.29-2.58-3-4.79-3-4.79"></path>
      <path class="cls-17" d="M59.81,4.33s-.83,5.43-.5,6.15"></path>
      <path class="cls-17" d="M70,17.44A26.32,26.32,0,0,1,69.65,12"></path>
      <path class="cls-15" d="M73.28,11.17a8.47,8.47,0,0,0-2.78,4.19.1.1,0,0,1-.12.07.09.09,0,0,1-.07-.11,7.4,7.4,0,0,1,1-2.41,10.12,10.12,0,0,1,1.71-2,.16.16,0,1,1,.21.24h0Z"></path>
      <path class="cls-17" d="M72.92,15a26.42,26.42,0,0,0-3.3,3.86"></path>
      <path class="cls-14" d="M58.89,9.89s.73-3.08-3.9-2.54c0,0-1.18.73-3.54-.81C51.45,6.54,53.72,13.79,58.89,9.89Z"></path>
      <path class="cls-13" d="M59.52,8.8s3.27-3.35,5.26-2.26,2.45,1.72,3.45,1.54S62.79,14.61,59.52,8.8Z"></path>
      <path class="cls-13" d="M59.31,13s-5.23-2.08-2.69,7.08c0,0,1.93.72,2.31-3.18Z"></path>
      <path class="cls-13" d="M67.23,11.7s-4,4.72,1.1,7.71a3.4,3.4,0,0,0,.72-3.85C68,13.43,66.87,12.61,67.23,11.7Z"></path>
      <path class="cls-13" d="M70.86,16.43s3.63-1.73,6.16,3C77,19.41,72,21,70.86,16.43Z"></path>
      <path class="cls-13" d="M66.87,23.13s-.36-4.07,7.07-3C73.94,20.1,73.85,27.12,66.87,23.13Z"></path>
      <path class="cls-14" d="M51.45,30s-.39-4.81,4.48-4.72C55.93,25.3,56.62,28.93,51.45,30Z"></path>
      <path class="cls-13" d="M62.06,33.1a1.38,1.38,0,0,0-.3-1.21c-.43-.53-1.35-1.07-3.32-1.24-4.27-.36-3.9-1.26-3.9-1.26S55.54,38.45,62.06,33.1Z"></path>
      <path class="cls-14" d="M67.58,32.38S70,29,66.87,26.66C66.87,26.66,64.47,30.38,67.58,32.38Z"></path>
      <path class="cls-13" d="M64.33,33.84s4-2.46,4.62,3.61C69,37.45,65,38.38,64.33,33.84Z"></path>
      <path class="cls-13" d="M74.64,43.28s-3-3.52,1.09-6.88C75.73,36.4,78.9,41.47,74.64,43.28Z"></path>
      <path class="cls-13" d="M80.9,32.75s1.18-2.61-3-3.43-3.54-2-3.54-2S74,36.18,80.9,32.75Z"></path>
      <path class="cls-13" d="M82.2,29.32S84,26.42,80.47,25a11,11,0,0,1-1.72-1.32C78.39,23.24,76.21,29.23,82.2,29.32Z"></path>
      <path class="cls-13" d="M79.32,62.78s-2.17-7.86-8.76-3.39C70.56,59.39,72.87,65.59,79.32,62.78Z"></path>
      <path class="cls-14" d="M59.42,8.72a1.6,1.6,0,0,1,.17.92c0,.3-.09.57-.14.83A8.41,8.41,0,0,0,59.31,12a11.21,11.21,0,0,0,.57,3.12c.15.51.36,1,.54,1.51s.42,1,.65,1.47l.72,1.45L62.58,21A15.73,15.73,0,0,1,64,24.07a11.86,11.86,0,0,1,.55,3.35A16.9,16.9,0,0,1,63.17,34c-.8,2.07-1.78,4-2.64,6-.43,1-.83,2-1.17,3a16.72,16.72,0,0,0-.74,3,17.39,17.39,0,0,0,.54,6.18c.5,2.07,1.19,4.11,1.88,6.18s1.38,4.15,1.91,6.32a27.93,27.93,0,0,1,.88,6.68c0,.57,0,1.14-.08,1.71l-.1.86-.13.83c-.17,1.1-.41,2.19-.65,3.26-.5,2.15-1.08,4.24-1.52,6.33a38.51,38.51,0,0,0-.86,6.29A39.42,39.42,0,0,0,60.72,97l.21,1.57.25,1.61.5,3.23.5,3.22.25,1.62.12.81.05.4,0,.21,0,.1v.09c-1.13.09,2.53-.2-2.51.39a1.27,1.27,0,0,1,2.51-.42c-5,.6-1.39.27-2.52.36V110l0-.2-.06-.4-.11-.81L59.7,107l-.45-3.24-.45-3.23-.22-1.62-.19-1.66a40.61,40.61,0,0,1-.14-6.71,41.81,41.81,0,0,1,1-6.62c.49-2.16,1.11-4.26,1.63-6.34.25-1,.5-2.08.68-3.13l.13-.78.1-.76c.05-.51.09-1,.1-1.54a25.51,25.51,0,0,0-.73-6.24C60.7,63,60.05,61,59.4,58.9s-1.32-4.17-1.82-6.34a18.88,18.88,0,0,1-.45-6.76,24.6,24.6,0,0,1,2.12-6.37c.91-2,1.91-3.93,2.71-5.91a16.77,16.77,0,0,0,1.43-6.09A11.41,11.41,0,0,0,63,24.35a14.19,14.19,0,0,0-1.19-2.93L61.07,20l-.69-1.5c-.22-.51-.41-1-.62-1.54s-.37-1-.51-1.58a11.77,11.77,0,0,1-.49-3.3,9.29,9.29,0,0,1,.2-1.67A2.17,2.17,0,0,0,59,8.94v0a.22.22,0,0,1,.09-.3.23.23,0,0,1,.3.1Z"></path>
      <path class="cls-14" d="M63.72,25.68a28.47,28.47,0,0,0,2.43-2.48,25.62,25.62,0,0,0,2.11-2.77,14.42,14.42,0,0,0,1.53-3.1,11.87,11.87,0,0,0,.45-1.68,11.14,11.14,0,0,0,.14-1.74,7.41,7.41,0,0,1-.11,3.56,13.73,13.73,0,0,1-1.44,3.31,20.2,20.2,0,0,1-2.1,2.92,22.65,22.65,0,0,1-2.54,2.55.37.37,0,1,1-.48-.56Z"></path>
      <path class="cls-14" d="M61.75,34.78c.75-.22,1.52-.5,2.26-.8a21.8,21.8,0,0,0,2.2-1,16.69,16.69,0,0,0,2.06-1.26A8.69,8.69,0,0,0,70,30a8.92,8.92,0,0,1-1.58,1.89,15.24,15.24,0,0,1-2,1.51,22.84,22.84,0,0,1-2.12,1.27,24.7,24.7,0,0,1-2.26,1.08.52.52,0,0,1-.7-.29.53.53,0,0,1,.29-.7l.05,0Z"></path>
      <path class="cls-17" d="M45.55,34.34a13.24,13.24,0,0,0-2-2.93"></path>
      <path class="cls-17" d="M42,33.66a3.4,3.4,0,0,1,3.65.88"></path>
      <path id="_4" data-name="4" class="cls-14" d="M45.66,34.11a14.16,14.16,0,0,1,1.64,2.4,17.77,17.77,0,0,1,1.21,2.62c.17.45.31.92.44,1.37s.28.88.44,1.32a16.29,16.29,0,0,0,4.7,6.68,20.49,20.49,0,0,0,4.59,2.94h0A.81.81,0,0,1,58,52.91l0,0a26,26,0,0,1-2.47-1.59,20,20,0,0,1-2.25-1.88,19.17,19.17,0,0,1-3.51-4.64,17.06,17.06,0,0,1-1.15-2.67c-.15-.46-.28-.92-.4-1.39s-.23-.89-.38-1.34a15.8,15.8,0,0,0-2.57-4.87l0,0a.29.29,0,0,1,0-.41A.29.29,0,0,1,45.66,34.11Z"></path>
      <path class="cls-16" d="M66.87,46.55a23.28,23.28,0,0,0-1,3.46"></path>
      <path class="cls-16" d="M65.13,45.27a7.89,7.89,0,0,1,.56,5.09"></path>
      <path class="cls-16" d="M64.33,47.35s1.28,2.62,1.43,2.82"></path>
      <path class="cls-17" d="M51.37,26s-.48,2.27-.68,2.79"></path>
      <path class="cls-17" d="M48.84,24.6s1.16,1,1.85,4.66"></path>
      <path class="cls-18" d="M48.45,27.41a19,19,0,0,0,2.24,1.85"></path>
      <path class="cls-14" d="M48.52,41.22A14.22,14.22,0,0,0,50,38.32a14.5,14.5,0,0,0,.76-3.17,22.26,22.26,0,0,0,.09-3.27,14.52,14.52,0,0,0-.14-1.63,7.72,7.72,0,0,0-.36-1.56v0a.24.24,0,1,1,.44-.17,8.69,8.69,0,0,1,.42,1.67c.08.56.14,1.12.17,1.68a23.72,23.72,0,0,1,0,3.37,15,15,0,0,1-.74,3.3,14.46,14.46,0,0,1-1.46,3.08.34.34,0,0,1-.47.11.35.35,0,0,1-.1-.47h0Z"></path>
      <g id="_2" data-name="2">
        <path class="cls-14" d="M60,58.94a10.64,10.64,0,0,0,1.44-1.63,14.39,14.39,0,0,0,1.08-1.76c.39-.75.75-1.58,1.23-2.51a32.14,32.14,0,0,0,1.64-3.38v0c.1-.26.36-.5.63-.43s.47.27.36.57c-.4,1.13-1.18,2.64-1.66,3.65s-.8,1.88-1.2,2.71a15.54,15.54,0,0,1-1.09,2,9.59,9.59,0,0,1-1.52,1.86.67.67,0,0,1-.94,0A.64.64,0,0,1,60,59v0S60,59,60,58.94Z"></path>
      </g>
      <path class="cls-14" d="M62.29,68.18a28.88,28.88,0,0,0,4.66-4,15.88,15.88,0,0,0,1.88-2.4,10.47,10.47,0,0,0,.73-1.3l.29-.68.28-.75c1.51-4,3.14-7.9,4.78-11.82s3.4-7.77,5-11.69c.8-2,1.6-3.93,2.27-5.91.08-.25.16-.5.22-.74s.14-.5.2-.76c.14-.53.29-1.05.47-1.56s.38-1,.61-1.51a9.55,9.55,0,0,1,.83-1.44.35.35,0,0,1,.57.4l0,0a8.41,8.41,0,0,0-.72,1.33,14.79,14.79,0,0,0-.56,1.44c-.16.49-.3,1-.42,1.5-.05.25-.11.51-.19.78s-.14.53-.22.78c-.65,2.05-1.42,4-2.18,6-1.54,4-3.2,7.88-4.8,11.79s-3.13,7.88-4.55,11.85l-.26.75-.32.79a11.84,11.84,0,0,1-.8,1.49,17.72,17.72,0,0,1-2,2.64,30.58,30.58,0,0,1-4.86,4.36.8.8,0,0,1-.94-1.3h0Z"></path>
      <path class="cls-14" d="M78.21,40.55a14.36,14.36,0,0,0,2.7,0,17.61,17.61,0,0,0,2.69-.47c.89-.22,1.75-.55,2.64-.85.45-.14.9-.28,1.36-.39a5.38,5.38,0,0,1,.7-.12,1.22,1.22,0,0,1,.38,0,.42.42,0,0,1,.22.08.24.24,0,0,1,.08.29s0,0,0,0h0l-.16-.1,0,0-.11,0a1.17,1.17,0,0,0-.32,0,5.23,5.23,0,0,0-.66.15c-.44.14-.87.29-1.3.46-.85.34-1.72.73-2.62,1a18.43,18.43,0,0,1-2.76.64,15,15,0,0,1-2.86.19.42.42,0,0,1-.41-.44.43.43,0,0,1,.44-.42h0Z"></path>
      <path class="cls-14" d="M59.33,95.89a4,4,0,0,0,.61-.21,4.73,4.73,0,0,0,.64-.31,6.72,6.72,0,0,0,1.2-.79,9.56,9.56,0,0,0,2-2.12A15.78,15.78,0,0,0,66,86.91a30.71,30.71,0,0,1,1.87-6A12.58,12.58,0,0,1,72,76h0a4.78,4.78,0,0,1,.65-.4c.22-.12.43-.22.65-.32.44-.19.88-.37,1.32-.51A24.21,24.21,0,0,1,77.26,74c.46-.1.92-.17,1.37-.26L80,73.52l1.38-.17,1.39-.14a.26.26,0,0,1,.29.24.27.27,0,0,1-.23.3h0l-1.37.17-1.36.2-1.35.25c-.44.1-.89.18-1.33.3a23.24,23.24,0,0,0-2.62.78c-.42.15-.84.33-1.24.51-.2.1-.4.2-.59.31a3.77,3.77,0,0,0-.51.33l0,0a11.56,11.56,0,0,0-3.68,4.66,30,30,0,0,0-1.66,5.89,27,27,0,0,1-.82,3.08,13.55,13.55,0,0,1-1.43,2.94,11,11,0,0,1-2.2,2.47,9.38,9.38,0,0,1-1.38,1c-.24.14-.5.27-.76.39l-.4.16a4.72,4.72,0,0,1-.45.15.73.73,0,0,1-.37-1.41h0Z"></path>
      <path class="cls-13" d="M49.71,45s-5.35-1-4.9,6a4.71,4.71,0,0,0,3,4.08s-.84-1.9.67-2.63S51.88,47.91,49.71,45Z"></path>
      <path class="cls-13" d="M72.31,53.5s5-4.87,9.25,1.12C81.56,54.62,74.19,58.52,72.31,53.5Z"></path>
      <path class="cls-13" d="M65.64,51.63S71.2,54,67.9,59.88C67.9,59.88,61.19,56.42,65.64,51.63Z"></path>
      <path class="cls-13" d="M62.73,77.19s1.51-6.77,4.66-7.25C67.39,69.94,68.26,79.52,62.73,77.19Z"></path>
      <path class="cls-13" d="M59.26,95.06s.36-2.87-3.33-2.81a1.81,1.81,0,0,1-2.39-1.48S53,99.05,59.26,95.06Z"></path>
      <path class="cls-13" d="M81.05,73.45s1.21-4.69,3.93-4.84,5-.3,5.2,5.53c0,0-2.87-2.93-5.56-.93S81.05,73.45,81.05,73.45Z"></path>
      <path class="cls-13" d="M83.8,73.11s-2.9,5.44,3.54,9C87.34,82.12,90.09,74.69,83.8,73.11Z"></path>
      <path class="cls-13" d="M82.47,83a9.84,9.84,0,0,1-1.75-5.38c-.18-2.72-2-3.18-3-3.21a3.39,3.39,0,0,0-.69,0S73.4,83.84,82.47,83Z"></path>
      <path class="cls-13" d="M77.88,73.75s1.78-5.41-5.66-4.53c0,0-4.68,1.6-3.26,5.89a1.91,1.91,0,0,1,2.75-1A7.61,7.61,0,0,0,77.88,73.75Z"></path>
      <path class="cls-13" d="M71.41,76.83s5.23-.77,3.75,6.22c0,0-1.36-2.15-2.39-2.34S72,77.13,71.41,76.83Z"></path>
      <path class="cls-13" d="M67.81,81.24s-2.84,7.2,6.68,6.17a5.41,5.41,0,0,1-2.63-3.48A3.65,3.65,0,0,0,67.81,81.24Z"></path>
      <path class="cls-13" d="M65.36,91.79s3.72-1.42,3.69,3.66.94,4.65.94,4.65S62.58,100,65.36,91.79Z"></path>
      <path class="cls-13" d="M65.33,50.36c.15-.15-1.7-2.94-2.57-3.93a11.85,11.85,0,0,1-1.48-3.81s-1.3.27-1,5.17S62.77,52.85,65.33,50.36Z"></path>
      <path class="cls-13" d="M75.22,48s.91-3.27,5.83-1.36c0,0-.11.89,2.36-.6C83.41,46,81,55.61,75.22,48Z"></path>
      <path class="cls-13" d="M66,49.27s3.53-1.27,2.31-4.81A5.64,5.64,0,0,1,69,38.93s3.33,1.94,3.46,5.32c.11,3-.5,6.88-4.45,6.92a2.1,2.1,0,0,1-2-1.66A1.05,1.05,0,0,0,66,49.27Z"></path>
      <path class="cls-13" d="M82.6,30.48s6.51,3.61,7.78-3.37a34.86,34.86,0,0,1-4.71.26C84.18,27.25,82.52,29.14,82.6,30.48Z"></path>
      <path class="cls-13" d="M59.25,24.07s5.12,4.57,3.94,6.66a10.14,10.14,0,0,1-3-1C59.29,29.1,57.41,26.47,59.25,24.07Z"></path>
      <path class="cls-13" d="M55.87,37.62s1.21,9.2-5,7.93c0,0-1.88-4.76,1.57-6.35S55,38.76,55.87,37.62Z"></path>
      <path class="cls-13" d="M51.34,34.55s-4.34.73-4.7-5.89a21.08,21.08,0,0,0,2.9,2.45A3.26,3.26,0,0,1,51.34,34.55Z"></path>
      <path class="cls-13" d="M48.36,38.63s-.45-2.54-4.72-1.36-3.17-.17-3.8-.31S42.83,46.16,48.36,38.63Z"></path>
      <path class="cls-13" d="M39.24,53S36.7,61.6,45.15,61c0,0,1.71-5.06-1.83-6.32C40.59,53.67,39.24,53,39.24,53Z"></path>
      <path class="cls-13" d="M52.57,59.06s-8.22.91-5.38,7.38c0,0,3.68.78,4.26-2.42S51.54,59.54,52.57,59.06Z"></path>
      <path class="cls-13" d="M46.6,66.31s-5.33,3.69-9.14-2c0,0,3.49-.57,4.76-1.94S47.51,63.65,46.6,66.31Z"></path>
      <path class="cls-13" d="M50.35,73.21s-2.55-4.13,4.52-6.69a25.63,25.63,0,0,0-.34,4.84C54.75,72.48,51.57,75.08,50.35,73.21Z"></path>
      <path class="cls-13" d="M48.46,72.6s-2.17,3.33-2.9,4.21-4.4,1.63-5.8,0A5.46,5.46,0,0,0,43,73.39C44.11,70.49,47.12,70.91,48.46,72.6Z"></path>
      <path class="cls-13" d="M54,77.56s-2.11-2.9,1.39-4.9,3.33-4.1,3.33-4.1S63.15,77,54,77.56Z"></path>
      <path class="cls-13" d="M53.16,77.62a3.43,3.43,0,0,0-3.58.66c-1.9,1.51-2.85.45-2.85.45S50.66,83.72,53.16,77.62Z"></path>
      <path class="cls-13" d="M56.4,80.94a6.86,6.86,0,0,0-4.24,4.15c-1.61,4-3.82,3-4.06,2.74a5.84,5.84,0,0,0,8.3-.78A4.37,4.37,0,0,0,56.4,80.94Z"></path>
      <path class="cls-14" d="M44.11,59.41a1.21,1.21,0,0,1,0-.51c.06-.09.15,0,.16,0a.44.44,0,0,1,.08.11l.12.22c.15.3.28.6.41.91.25.62.48,1.24.7,1.86.46,1.25.84,2.52,1.25,3.78a22.48,22.48,0,0,0,3.33,7,31.18,31.18,0,0,0,5.72,5.31,14.8,14.8,0,0,1,2.82,3,13.09,13.09,0,0,1,1.67,3.79.55.55,0,0,1-1.05.31v0a11.47,11.47,0,0,0-1.51-3.45,14.86,14.86,0,0,0-2.6-2.79,29.5,29.5,0,0,1-5.76-5.58A23,23,0,0,1,46.16,66l-1-3.84-.53-1.91c-.09-.31-.18-.63-.29-.94a1.81,1.81,0,0,0-.18-.37A1.41,1.41,0,0,0,44.11,59.41Z"></path>
      <path class="cls-15" d="M75.82,35.21s.52,3-2.59,2.59c0,0-1.07-.25-.87-1s.56-1.2,1.73-1.29A4.5,4.5,0,0,0,75.82,35.21Z"></path>
      <path class="cls-15" d="M70.51,34.86A1.46,1.46,0,0,0,71,36a1.32,1.32,0,0,0,1.61-.23c1.36-1.35-1.48-3.91-1.83-4.11C70.73,31.62,70.54,33.81,70.51,34.86Z"></path>
      <path class="cls-15" d="M67.61,36c.07,0,2.33-.67,3,.49s.2,2.2-1,1.64A4.76,4.76,0,0,1,67.61,36Z"></path>
      <path class="cls-15" d="M66.76,47.33a1.8,1.8,0,0,0,2.18-1.59,3.39,3.39,0,0,0-.71-2.12s-.22.7-1.6,1.47c-1,.58-.7,1.27-.53,1.74A.8.8,0,0,0,66.76,47.33Z"></path>
      <path class="cls-15" d="M63.25,41.64s3.32.14,2.88,3.32c0,0-.51,1.57-1.57,1a1.32,1.32,0,0,1-.69-1.34A5.63,5.63,0,0,0,63.25,41.64Z"></path>
      <path class="cls-15" d="M63.66,47.86c-.63-.34-1.22-1.09-.77-2.75,0,0,.86.58,1.68,1.09a1.2,1.2,0,0,1,.4.37C65.51,47.38,64.52,48.33,63.66,47.86Z"></path>
      <path class="cls-15" d="M43,33.36s-1.54-2-4.15.36C38.88,33.72,43.63,36.29,43,33.36Z"></path>
      <path class="cls-15" d="M44.2,32.18c0,.1-4.26,1.9-3.22-4.21,0,0,0,.69,1.9,1.27A1.91,1.91,0,0,1,44.2,32.18Z"></path>
      <path class="cls-15" d="M75.47,12s1.09,5-3,3.58a1.58,1.58,0,0,1,1-2.29C75.22,12.75,75.47,12,75.47,12Z"></path>
      <path class="cls-15" d="M72.65,11.43c.07.23,4,1.43,3.18-3.79a4,4,0,0,1-1.53.68C73,8.72,72,9.29,72.65,11.43Z"></path>
      <path class="cls-15" d="M69.58,7.64s-3.43,4,0,5.15c0,0,2.5-.72,1.25-2.93A18.34,18.34,0,0,1,69.58,7.64Z"></path>
      <path class="cls-15" d="M59.79,5.14c.9.11,3.36-.28,1.61-5.14a18.66,18.66,0,0,1-2.22,1.71c-.75.51-1.71,1.69-.45,2.9A1.77,1.77,0,0,0,59.79,5.14Z"></path>
      <path class="cls-15" d="M56.5,4.79S59.58,1.14,53.07.14a6.61,6.61,0,0,1,.86,3A1.77,1.77,0,0,0,56.5,4.79Z"></path>
      <path class="cls-17" d="M85.18,37.37s1.18,1.76-1.82,3.05"></path>
      <path class="cls-17" d="M87.93,40.42s-.53-1.33-5.27.17"></path>
      <path class="cls-17" d="M88.42,37.84a16.5,16.5,0,0,1-4.56,2.34"></path>
      <path class="cls-17" d="M84.94,42.09a1.47,1.47,0,0,0-1.58-1.67"></path>
      <path class="cls-15" d="M71.44,29.12a1,1,0,0,0-.57.16,2.44,2.44,0,0,0-.52.39,5.18,5.18,0,0,0-.8,1.06,5.16,5.16,0,0,1,.72-1.13,2.29,2.29,0,0,1,.52-.46,1.1,1.1,0,0,1,.69-.23.1.1,0,0,1,.1.11.1.1,0,0,1-.11.1h0Z"></path>
      <path class="cls-15" d="M69.89,30.08a8.23,8.23,0,0,1,.16-1.39,2.63,2.63,0,0,1,.22-.67,1,1,0,0,1,.49-.54.06.06,0,0,1,.07,0,0,0,0,0,1,0,.06h0a.91.91,0,0,0-.43.47,2.8,2.8,0,0,0-.24.65,7.91,7.91,0,0,0-.19,1.38,0,0,0,0,1,0,0A0,0,0,0,1,69.89,30.08Z"></path>
      <path class="cls-15" d="M69.52,28.76a4.28,4.28,0,0,1,.31.69,1.17,1.17,0,0,1,.06.74h0s0,0,0,0a1.09,1.09,0,0,0-.09-.71,3.64,3.64,0,0,0-.34-.65,0,0,0,1,1,.08-.06Z"></path>
      <path class="cls-17" d="M72.06,39.14A1.75,1.75,0,0,1,72.81,37"></path>
      <path class="cls-17" d="M72.33,39.84c-.67-.66-.62-4.35-.61-4.41"></path>
      <path class="cls-17" d="M70.21,37.53s1.49.42,2.44,2.89"></path>
      <path class="cls-14" d="M75.92,45.85a15.27,15.27,0,0,1-1.35-1.58,19.38,19.38,0,0,1-1.14-1.7,17.23,17.23,0,0,1-1-1.8,18.08,18.08,0,0,1-.77-1.88.23.23,0,0,1,.15-.3.24.24,0,0,1,.29.13h0A19,19,0,0,0,74,42.18a16.42,16.42,0,0,0,1.2,1.55,13.68,13.68,0,0,0,1.35,1.39h0a.51.51,0,0,1,0,.71.5.5,0,0,1-.7,0Z"></path>
      <path class="cls-19" d="M41.79,132.06s1.59-1.65,4.91-.75a8.77,8.77,0,0,0,6.44-1.15"></path>
      <path class="cls-19" d="M37.75,140.94s2.64-5.43,11.44-5.26c5,.09,4.39-4,4.39-4"></path>
      <path class="cls-20" d="M53,134.58a5.36,5.36,0,0,1-3,.74,4.42,4.42,0,0,1-1.51-.34,5.34,5.34,0,0,1-1.35-.78.33.33,0,0,1-.06-.46.32.32,0,0,1,.46-.07h0l0,0a4.92,4.92,0,0,0,1.15.74,4,4,0,0,0,1.32.36,4.88,4.88,0,0,0,2.7-.55h0a.2.2,0,0,1,.26.09A.19.19,0,0,1,53,134.58Z"></path>
      <path class="cls-19" d="M57.84,134.51a7.73,7.73,0,0,0-4.24,6.43"></path>
      <path class="cls-19" d="M53.51,141.09c-.74,3.3-.9,4-.9,4"></path>
      <path class="cls-19" d="M57.08,147.1s-5-3.62-3.14-7.08"></path>
      <path class="cls-21" d="M59.4,135.51s-1.33,2.14-.62,3.46a7.92,7.92,0,0,0,1.95,2.8,7.54,7.54,0,0,1,2,3.78,6.54,6.54,0,0,0,1.4,2.72"></path>
      <path class="cls-19" d="M62.42,144.39s1,2,5.19,3.14"></path>
      <path class="cls-19" d="M59.2,139.77s1.4,1.42.93,2.74-1.62,5.35-.93,6.5"></path>
      <path class="cls-19" d="M61.37,134s.39,4.2,2.17,4.44"></path>
      <path class="cls-22" d="M63.82,134.1a4.94,4.94,0,0,0,3.94,2.31c2.81.2,4.24,7.17,4.24,7.17"></path>
      <path class="cls-19" d="M66.13,131.11a11.46,11.46,0,0,0,6.47.53c3.67-.74,5.24,1.16,5.24,1.16"></path>
      <path class="cls-19" d="M71.62,131.8s2.28,1.38,1.82,2.71"></path>
      <path class="cls-23" d="M51.91,130s.43-2.47,3.93-.66c0,0,.25.36,1.09,0s2.8-1.37,4.79-.82c0,0,1.07-1.94,3.28,0,0,0,2.26.24,2.3,2.05l.31,1.07s0,2.62-3.38,1.92a1.72,1.72,0,0,1-2.11,1.35l-.75.54a2.17,2.17,0,0,1-3.33.47,3,3,0,0,0-1.85-.51c-1.11.06-1.38-.58-1.79-1a8,8,0,0,0-1.24-.91,2,2,0,0,1-.41-1.54C52.9,131.31,51.66,130.8,51.91,130Z"></path>
      <ellipse class="cls-23" cx="36.84" cy="140.63" rx="3.28" ry="1.9" transform="translate(-70.11 42.16) rotate(-32.69)"></ellipse>
      <path class="cls-23" d="M40.71,133.42a7.17,7.17,0,0,0-.93.29c-.77.33-2.58.83-2.91-.58-.42-1.83,3.13-2.82,3.53-3,.71-.31,3.88.24,2.12,2.37A3.47,3.47,0,0,1,40.71,133.42Z"></path>
      <path class="cls-23" d="M51.86,139.41s-2.1.31-2.42,1.39,0,1.67.47,2a1.65,1.65,0,0,0,2.32-.19,20.53,20.53,0,0,0,2.41-2.2c.14-.3.33-1.77-1.09-1.84S52.69,139.21,51.86,139.41Z"></path>
      <path class="cls-23" d="M55.38,147.75a1.47,1.47,0,0,1-.45-1,1.31,1.31,0,0,1,1-1.28,4.73,4.73,0,0,1,4.23.77c.61.59,1.87,1.69,0,2.68C58.41,149.84,56.27,148.64,55.38,147.75Z"></path>
      <path class="cls-23" d="M62.26,139.58s-.13-2.6,2-1.64,2.19,4.1,1.34,4.37S62.71,142.84,62.26,139.58Z"></path>
      <path class="cls-23" d="M75.84,132.29a2.36,2.36,0,0,1,1.49-1.84,6.63,6.63,0,0,1,3.91.92A10.16,10.16,0,0,1,84,134.92c.57,1.71,0,4.22-3.34,2.2S76,134.49,75.84,132.29Z"></path>
      <path class="cls-23" d="M70.91,143.91a1.8,1.8,0,0,1,1.35-2.7c2.44-.56,2.53.31,2.53.31s3.65,1.54,4.26,3.67S77,149.49,74,147.46,70.91,143.91,70.91,143.91Z"></path>
      <path class="cls-23" d="M58.33,142.34a2.59,2.59,0,0,0-.67,2c.06.62.38,1.21,1.45.85,2-.67,2.46-2,2.37-2.24s-.25-2.81-2.37-1.3A4.26,4.26,0,0,0,58.33,142.34Z"></path>
      <path class="cls-23" d="M53,146.12c.32-.48,1.31-2.19-.76-2.07a.85.85,0,0,0-.72,1.22v0c.39.73.46,1.62,1.25,1A1,1,0,0,0,53,146.12Z"></path>
      <path class="cls-23" d="M68,147.15s.86,1.43-.45,1.21-.82-1.78-.4-1.64S67.71,146.28,68,147.15Z"></path>
      <path class="cls-23" d="M73.54,132.75a1,1,0,0,0-1.36,1.15c.19.8.64,2,1.54.67C74.36,133.65,74.06,133,73.54,132.75Z"></path>
      <path class="cls-23" d="M46.51,134.26c-.24-.24-.31-1.62,1-1.24S47.7,135.43,46.51,134.26Z"></path>
      <ellipse class="cls-24" cx="55.65" cy="131.93" rx="0.89" ry="0.13"></ellipse>
      <ellipse class="cls-24" cx="60.12" cy="133.33" rx="0.38" ry="0.18" transform="translate(-32.8 20.38) rotate(-15.17)"></ellipse>
      <ellipse class="cls-24" cx="62.84" cy="131.24" rx="0.38" ry="0.13"></ellipse>
      <path class="cls-8" d="M60.94,113.13a1.25,1.25,0,0,0-1.2-.44c-.66.2-.93.73-.81.92a2.58,2.58,0,0,0,.24.25c.17.16.52-.3.54-.3Z"></path>
      <path class="cls-25" d="M61.28,113.93s-.2-.91-.55-.91A6.67,6.67,0,0,1,60,113l-.1.17s.34.59.48.64l.45.13A2.64,2.64,0,0,0,61.28,113.93Z"></path>
      <path class="cls-10" d="M61.26,114a.24.24,0,0,0-.13-.35,3.86,3.86,0,0,0-.45-.09s-.54.41-.65.48-.17,0,.14.15.31.17.6.14A.87.87,0,0,0,61.26,114Z"></path>
      <path class="cls-11" d="M60.68,113.6a3.21,3.21,0,0,0-.39.39c-.16.19-.19.25-.38.15s-.69-.17-.82-.36-.12-.17,0-.39a1,1,0,0,1,.64-.39.55.55,0,0,1,.63.13A1.42,1.42,0,0,1,60.68,113.6Z"></path>
      <path class="cls-8" d="M43.93,107a1.86,1.86,0,0,0-1.86-.27c-.89.5-1.1,1.34-.88,1.57a3.15,3.15,0,0,0,.43.29c.29.18.65-.59.67-.6Z"></path>
      <path class="cls-25" d="M44.67,108s-.57-1.23-1.07-1.14-1.06.13-1.06.13l-.09.26s.67.75.88.78.6,0,.69.06A6.39,6.39,0,0,0,44.67,108Z"></path>
      <path class="cls-10" d="M44.67,108.16c0-.12,0-.43-.3-.46a6.24,6.24,0,0,0-.66,0s-.65.76-.79.88-.24.14.24.18.5.15.9,0A1.25,1.25,0,0,0,44.67,108.16Z"></path>
      <path class="cls-11" d="M43.71,107.7a6.23,6.23,0,0,0-.45.69c-.17.31-.2.41-.5.33s-1,0-1.28-.27-.23-.2-.07-.58a1.46,1.46,0,0,1,.79-.75.82.82,0,0,1,1,0A2.09,2.09,0,0,1,43.71,107.7Z"></path>
      <path class="cls-8" d="M55.94,104.49s-3.83-1.91-6.5.43-2.81,5.33-1.89,6a12.45,12.45,0,0,0,1.67.67c1.11.41,1.79-2.47,1.86-2.51S55.94,104.49,55.94,104.49Z"></path>
      <path class="cls-25" d="M59.21,107.51s-2.84-3.8-4.46-3.13-3.51,1.2-3.51,1.2l-.1,1s2.79,2.08,3.53,2,2.07-.3,2.4-.31A16.2,16.2,0,0,0,59.21,107.51Z"></path>
      <path class="cls-10" d="M59.32,108.09c0-.42-.19-1.51-1.34-1.36a16.68,16.68,0,0,0-2.25.48s-1.68,3.05-2,3.57-.71.64,1,.42,1.8.17,3.06-.59A4.29,4.29,0,0,0,59.32,108.09Z"></path>
      <path class="cls-11" d="M55.73,107.21a20.09,20.09,0,0,0-1,2.65c-.34,1.2-.36,1.53-1.45,1.48s-3.56.65-4.54,0-.94-.53-.67-1.93.92-2.05,2.18-3.14a2.85,2.85,0,0,1,3.24-.68A7.36,7.36,0,0,1,55.73,107.21Z"></path>
      <path class="cls-8" d="M70.67,105.72s-2.2-3-5.2-2.26-4.29,3-3.84,3.87a12.35,12.35,0,0,0,1,1.19c.7.75,2.37-1.2,2.44-1.21S70.67,105.72,70.67,105.72Z"></path>
      <path class="cls-25" d="M72,109.36s-.68-4.08-2.2-4.21-3.2-.46-3.2-.46l-.46.71s1.33,2.72,1.93,3,1.72.59,2,.71A14,14,0,0,0,72,109.36Z"></path>
      <path class="cls-10" d="M71.86,109.85c.14-.34.45-1.25-.5-1.59a13.7,13.7,0,0,0-1.93-.52s-2.51,1.69-3,1.94-.81.21.56.71,1.33.84,2.6.76A3.77,3.77,0,0,0,71.86,109.85Z"></path>
      <path class="cls-11" d="M69.43,107.74a16,16,0,0,0-1.86,1.63c-.75.79-.9,1-1.72.56s-3-.91-3.52-1.78-.52-.79.25-1.76a4.47,4.47,0,0,1,2.93-1.57,2.48,2.48,0,0,1,2.78.77A6.36,6.36,0,0,1,69.43,107.74Z"></path>
      <path class="cls-8" d="M60.42,107.27s-3.17-2.44-6-.78-3.54,4.37-2.81,5.13a11.19,11.19,0,0,0,1.41.92c.94.57,2.09-1.94,2.16-2S60.42,107.27,60.42,107.27Z"></path>
      <path class="cls-25" d="M62.87,110.63s-1.92-4-3.52-3.68-3.44.47-3.44.47l-.27.87s2.19,2.41,2.88,2.48,1.95.1,2.25.15A14.77,14.77,0,0,0,62.87,110.63Z"></path>
      <path class="cls-10" d="M62.87,111.18c0-.39.09-1.41-1-1.48a15.65,15.65,0,0,0-2.15,0s-2.08,2.49-2.52,2.9-.77.45.79.55,1.62.49,2.91,0A4,4,0,0,0,62.87,111.18Z"></path>
      <path class="cls-11" d="M59.73,109.73A19,19,0,0,0,58.29,112c-.53,1.05-.61,1.35-1.6,1.1s-3.38,0-4.17-.8-.76-.66-.26-1.89a4.79,4.79,0,0,1,2.56-2.48,2.66,2.66,0,0,1,3.1,0A6.73,6.73,0,0,1,59.73,109.73Z"></path>
      <path class="cls-8" d="M76.9,112.83a1.94,1.94,0,0,0,1.76-.87c.47-1,.16-1.81-.17-1.88a3.37,3.37,0,0,0-.54,0c-.35,0-.21.89-.23.91Z"></path>
      <path class="cls-25" d="M75.64,112.36s1.23.73,1.6.36.84-.74.84-.74L78,111.7a4,4,0,0,0-1.22-.15c-.19.1-.54.32-.63.36A5.17,5.17,0,0,0,75.64,112.36Z"></path>
      <path class="cls-10" d="M75.55,112.22c.06.11.22.39.52.22a4.38,4.38,0,0,0,.58-.39s.11-1,.15-1.23.13-.26-.31,0-.52.16-.78.52A1.31,1.31,0,0,0,75.55,112.22Z"></path>
      <path class="cls-11" d="M76.65,112.05a7.05,7.05,0,0,0,0-.86c0-.37-.08-.47.23-.58s.92-.59,1.26-.53.32,0,.41.46a1.56,1.56,0,0,1-.24,1.12.87.87,0,0,1-.82.57A2.22,2.22,0,0,1,76.65,112.05Z"></path>
      <path class="cls-8" d="M34.69,115a1.92,1.92,0,0,0,1.76-.87c.47-1,.16-1.81-.17-1.88a3.37,3.37,0,0,0-.54,0c-.35,0-.21.89-.23.91Z"></path>
      <path class="cls-25" d="M33.43,114.57s1.23.72,1.6.35.84-.74.84-.74l-.08-.28a4,4,0,0,0-1.22-.15c-.19.1-.54.32-.63.36A5.09,5.09,0,0,0,33.43,114.57Z"></path>
      <path class="cls-10" d="M33.34,114.42c.06.11.22.39.53.22a4.71,4.71,0,0,0,.57-.39s.11-1,.15-1.23.13-.26-.31,0-.52.16-.78.52A1.31,1.31,0,0,0,33.34,114.42Z"></path>
      <path class="cls-11" d="M34.44,114.25a7.05,7.05,0,0,0,0-.86c0-.37-.08-.47.23-.58s.92-.59,1.26-.53.32,0,.41.46a1.56,1.56,0,0,1-.24,1.12.87.87,0,0,1-.82.57A2.28,2.28,0,0,1,34.44,114.25Z"></path>
      <path class="cls-8" d="M46.75,113.51a2.45,2.45,0,0,0,2.31-1c.69-1.17.37-2.28-.05-2.4a6,6,0,0,0-.69,0c-.45,0-.35,1.12-.36,1.14S46.75,113.51,46.75,113.51Z"></path>
      <path class="cls-25" d="M45.19,112.81s1.5,1,2,.59,1.13-.87,1.13-.87l-.08-.36a5.09,5.09,0,0,0-1.53-.3c-.26.12-.71.37-.83.41A6,6,0,0,0,45.19,112.81Z"></path>
      <path class="cls-10" d="M45.08,112.61c.06.15.25.53.65.33a5.56,5.56,0,0,0,.76-.45s.24-1.31.31-1.54.18-.32-.4,0-.67.16-1,.59A1.65,1.65,0,0,0,45.08,112.61Z"></path>
      <path class="cls-11" d="M46.49,112.49a7.66,7.66,0,0,0,.06-1.09c0-.48-.06-.6.35-.71s1.21-.68,1.64-.57.41.08.48.62a2,2,0,0,1-.4,1.41,1.1,1.1,0,0,1-1.1.64A2.8,2.8,0,0,1,46.49,112.49Z"></path>
      <path class="cls-8" d="M55.55,111.8a1.57,1.57,0,0,1,1.43-.22c.7.32.88.89.72,1a3.28,3.28,0,0,1-.33.21c-.22.12-.52-.39-.53-.4Z"></path>
      <path class="cls-25" d="M55,112.52s.41-.85.8-.8.82.07.82.07l.07.18s-.49.52-.66.54-.46,0-.53.06A4.93,4.93,0,0,1,55,112.52Z"></path>
      <path class="cls-10" d="M55,112.64c0-.08,0-.3.22-.32a3.1,3.1,0,0,1,.52,0s.52.5.62.58.19.09-.18.13-.38.11-.69,0A.91.91,0,0,1,55,112.64Z"></path>
      <path class="cls-11" d="M55.74,112.31a4.53,4.53,0,0,1,.36.45c.14.22.16.28.39.22s.81,0,1-.21.17-.14,0-.4a1.07,1.07,0,0,0-.64-.49.7.7,0,0,0-.73,0A1.57,1.57,0,0,0,55.74,112.31Z"></path>
      <path class="cls-8" d="M68.47,108.16s-3-2.2-5.61-.61-3.18,4.12-2.5,4.81a10.74,10.74,0,0,0,1.33.82c.88.51,1.89-1.84,2-1.86S68.47,108.16,68.47,108.16Z"></path>
      <path class="cls-25" d="M70.8,111.22s-1.85-3.66-3.33-3.33-3.17.5-3.17.5l-.24.8s2.08,2.19,2.72,2.25,1.8,0,2.08.09A13.63,13.63,0,0,0,70.8,111.22Z"></path>
      <path class="cls-10" d="M70.81,111.73c0-.36.06-1.31-.94-1.36a14.19,14.19,0,0,0-2,.08s-1.88,2.34-2.28,2.73-.7.43.75.5,1.5.41,2.69-.05A3.72,3.72,0,0,0,70.81,111.73Z"></path>
      <path class="cls-11" d="M67.88,110.45a17.77,17.77,0,0,0-1.29,2.09c-.47,1-.54,1.26-1.46,1s-3.13,0-3.87-.65-.72-.6-.28-1.75a4.37,4.37,0,0,1,2.32-2.34,2.47,2.47,0,0,1,2.87-.1A6.49,6.49,0,0,1,67.88,110.45Z"></path>
      <path class="cls-8" d="M52.59,111.6s-2.44-.44-3.55,1.29-.69,3.41-.08,3.62a6.53,6.53,0,0,0,1,.1c.68,0,.59-1.66.62-1.69S52.59,111.6,52.59,111.6Z"></path>
      <path class="cls-25" d="M54.89,112.75s-2.19-1.65-3-1S50.15,113,50.15,113l.1.55a7.68,7.68,0,0,0,2.29.55c.4-.16,1.1-.51,1.28-.56A10.28,10.28,0,0,0,54.89,112.75Z"></path>
      <path class="cls-10" d="M55.05,113.06c-.09-.23-.36-.81-1-.54a8.42,8.42,0,0,0-1.17.63s-.44,2-.56,2.31-.3.47.59.08,1-.2,1.61-.82A2.53,2.53,0,0,0,55.05,113.06Z"></path>
      <path class="cls-11" d="M52.91,113.15a11.36,11.36,0,0,0-.16,1.63c0,.73,0,.92-.57,1.06s-1.87.94-2.51.75-.61-.14-.68-1a2.89,2.89,0,0,1,.7-2.1,1.65,1.65,0,0,1,1.69-.9A4.28,4.28,0,0,1,52.91,113.15Z"></path>
    </g>
  </g>
</svg>
