<?xml version="1.0" encoding="UTF-8"?>
<svg xmlns="http://www.w3.org/2000/svg" viewBox="0 0 107.78 252.15">
  <defs>
    <style>.cls-1{fill:#a29274;}.cls-2{fill:#e3e0c9;}.cls-3{fill:#fcedce;}.cls-4{fill:#bda885;}.cls-5{fill:#d0c5a6;}.cls-6{fill:#8f8267;}.cls-7{fill:#ab967a;opacity:0.25;}.cls-8{fill:#9b8d71;}.cls-9{fill:#7c705b;}.cls-10{fill:#cacac9;}.cls-11{fill:#817870;}.cls-12{fill:#789f5a;}.cls-13{fill:#779f5a;}.cls-14{fill:#8ead6f;}.cls-15{fill:#f2d95a;}</style>
  </defs>
  <g id="Слой_2" data-name="Слой 2">
    <g id="Слой_1-2" data-name="Слой 1">
      <polygon class="cls-1" points="48.99 187.78 97.83 166.99 90.51 223.23 48.99 252.15 48.99 187.78"></polygon>
      <polygon class="cls-2" points="48.99 152.93 97.83 166.99 48.99 187.78 0 166.99 48.99 152.93"></polygon>
      <polygon class="cls-3" points="48.99 152.93 0 166.99 0.86 167.35 97.38 166.86 48.99 152.93"></polygon>
      <polygon class="cls-4" points="7.33 223.23 0 166.99 48.99 187.78 48.99 252.15 7.33 223.23"></polygon>
      <path class="cls-5" d="M30.79,167.68a28.27,28.27,0,0,1,2.31-2.47,23.64,23.64,0,0,1,2.7-2.08,26.88,26.88,0,0,1,6.12-3,31.07,31.07,0,0,1,6.66-1.39c1.13-.14,2.26-.12,3.39-.18s2.25.1,3.37.19c-1.12.14-2.24.18-3.35.3s-2.22.23-3.31.45-2.18.37-3.25.68a32.14,32.14,0,0,0-3.19.9,35.38,35.38,0,0,0-6,2.68A33.57,33.57,0,0,0,30.79,167.68Z"></path>
      <path class="cls-5" d="M22.44,169.66a6.13,6.13,0,0,0,1.93.38,19.1,19.1,0,0,0,2,.07,31.12,31.12,0,0,0,4-.34c2.64-.37,5.24-1,7.91-1.63a22.83,22.83,0,0,1-7.77,2.62,17.92,17.92,0,0,1-4.14.13,11.74,11.74,0,0,1-2.05-.37c-.34-.1-.67-.21-1-.34A2.3,2.3,0,0,1,22.44,169.66Z"></path>
      <path class="cls-5" d="M56.15,181.64a37.07,37.07,0,0,1,4.62-5.84,35.34,35.34,0,0,1,5.68-4.88,25.61,25.61,0,0,1,6.72-3.35c.6-.19,1.23-.3,1.84-.45a8.87,8.87,0,0,1,1.86-.26,16.58,16.58,0,0,1,3.73.12,21.73,21.73,0,0,0-7.18,1.31A32.22,32.22,0,0,0,67,171.74a50.17,50.17,0,0,0-5.7,4.61c-.92.82-1.79,1.69-2.64,2.58S57,180.71,56.15,181.64Z"></path>
      <polygon class="cls-6" points="48.99 187.78 97.83 166.99 90.51 223.23 48.99 252.15 48.99 187.78"></polygon>
      <polygon class="cls-7" points="7.33 223.23 0 166.99 48.99 187.78 48.99 252.15 7.33 223.23"></polygon>
      <polygon class="cls-8" points="48.99 252.15 7.33 223.23 49.18 207.42 90.51 223.23 48.99 252.15"></polygon>
      <path class="cls-9" d="M16.18,198.51a15,15,0,0,1-1.26-8.16,12.89,12.89,0,0,1,3.61-7.55,18,18,0,0,1,7.19-4.28,30.7,30.7,0,0,1,8.15-1.46c-.68.16-1.35.3-2,.43s-1.33.33-2,.5-1.31.38-2,.56-1.28.45-1.91.69a19.57,19.57,0,0,0-6.74,4.26,13.21,13.21,0,0,0-3.57,7,18.09,18.09,0,0,0,.51,8Z"></path>
      <path class="cls-9" d="M61.7,197.73c.13.21.41.28.62.39s.46.2.7.29c.47.18.94.34,1.42.49,1,.32,1.92.6,2.89.87,1.93.52,3.88,1,5.85,1.38,3.93.82,7.91,1.33,11.94,1.8A44.24,44.24,0,0,1,73,202.13a43.16,43.16,0,0,1-5.89-1.62c-1-.34-1.9-.72-2.83-1.15-.46-.23-.91-.46-1.36-.71A3.3,3.3,0,0,1,61.7,197.73Z"></path>
      <path class="cls-9" d="M35.46,194.8a35.67,35.67,0,0,1-3.24,10.79,30.81,30.81,0,0,1-2.94,4.86,18.77,18.77,0,0,1-4.07,3.94A32.48,32.48,0,0,0,28.64,210a51.78,51.78,0,0,0,2.68-4.84c.81-1.67,1.52-3.38,2.21-5.1S34.86,196.58,35.46,194.8Z"></path>
      <path class="cls-9" d="M50.61,239.56c2-1,4.07-1.73,6.07-2.62s4-1.76,5.94-2.77a40.14,40.14,0,0,0,5.52-3.44,18.39,18.39,0,0,0,2.41-2.17c.35-.41.72-.81,1.06-1.24s.58-.93.88-1.39c-.21.51-.42,1-.66,1.53s-.6.94-.9,1.41a17.79,17.79,0,0,1-2.3,2.45,28,28,0,0,1-5.55,3.73A47.67,47.67,0,0,1,57,237.66c-1.05.36-2.1.69-3.16,1Z"></path>
      <path class="cls-9" d="M27.7,233.39a10.27,10.27,0,0,1-5.45-5.1,4.64,4.64,0,0,1,.32-3.93,9.09,9.09,0,0,1,2.65-2.86A25.54,25.54,0,0,1,32,218.15a51.94,51.94,0,0,1,7.23-1.89c-1.16.45-2.35.8-3.5,1.28s-2.32.86-3.46,1.33a31.2,31.2,0,0,0-6.43,3.44,8.41,8.41,0,0,0-2.43,2.51,4,4,0,0,0-.42,3.23,7.44,7.44,0,0,0,1.9,3A16.49,16.49,0,0,0,27.7,233.39Z"></path>
      <path class="cls-9" d="M72.49,196.6l3.64-5c1.2-1.68,2.37-3.36,3.48-5.09a50.89,50.89,0,0,0,3.06-5.3,17.23,17.23,0,0,0,1.93-5.78,13.15,13.15,0,0,1-1.21,6.1A33.91,33.91,0,0,1,80.45,187,51.77,51.77,0,0,1,72.49,196.6Z"></path>
      <path class="cls-10" d="M49.3,179.61c.57,1.67.58,1.68,2.35,1.14a5.19,5.19,0,0,0,.84,1.27,19.61,19.61,0,0,1,4.72,6.47c1.89,3.69,1.32,3.52,5.46,4a12.79,12.79,0,0,1,7.74,3.61,14.33,14.33,0,0,1,1,1.19c-1.44-.16-1.89-1.11-2.66-1.5s-1.62-.92-2.48-1.28a12.22,12.22,0,0,0-2.38-.68c-.91-.15-1.84-.18-3.17-.29a9.88,9.88,0,0,0,1,1.45,15.54,15.54,0,0,0,7.42,3.68,13.61,13.61,0,0,1,1.77.48c.11,0,.15.34.19.53s-.14.15-.23.17a3.1,3.1,0,0,1-.9.12,16.11,16.11,0,0,1-9.78-4.24c-.62-.55-1.17-1.17-1.77-1.74a2.54,2.54,0,0,0-2.52-.57c1.49,2.28,4.12,3.3,5.34,5.53a1.66,1.66,0,0,1-.23.32.33.33,0,0,1-.26,0l-5.44-3.5a9.5,9.5,0,0,0,1.24,4.5,2.68,2.68,0,0,0,1.23.86c.83.42,1.73.71,2.54,1.16a7.32,7.32,0,0,1,1.39,1.17c.07.07,0,.34-.07.51a.3.3,0,0,1-.25.07l-3.87-1.7c-.32,2,.65,3.52.81,5.19s.53,3.17,0,4.91c-1-.48-.69-1.17-.69-1.68a23.89,23.89,0,0,0-1.22-7.31,5,5,0,0,0-.6-1.42,1.52,1.52,0,0,0-1-.61c-.62,0-.5.54-.5.9,0,3.94.07,7.88-.1,11.81-.24,5.69-.67,11.36-1,17a14.94,14.94,0,0,1-.36,1.61c-.7-2.29-.22-4.13-.25-6s.05-3.93.06-5.9c0-1.81,0-3.62-.07-5.86-1.81,3.5-3.39,6.57-5,9.63l0,.05c.36-2.92,1.83-5.48,2.67-8.24a7.78,7.78,0,0,0,.52-2.71l-4,3.92a7,7,0,0,1,.6-1.69c.81-.94,1.66-1.86,2.54-2.73a6.94,6.94,0,0,0,2.23-5.87c-.2-2-.2-4.1-.29-6.26-1.3.45-1,1.57-1.31,2.36s-.7,1.72-1,2.6-.54,1.74-.82,2.67c-1-.71-.5-1.52-.37-2.17.39-1.93.88-3.83,1.41-5.72.42-1.49.34-3,.86-4.65-1.93.23-2.87,1-3.23,2.49-.18.79-.47,1.55-.88,2.85-.83-5,1.89-8.56,2.83-12.74-1.5,1.24-2.8,2.35-4.13,3.42a1.38,1.38,0,0,0-.46,1.35c0,1,0,1-1,.4-.25-.15-.64-.41-.8-.32-1.72.94-3.41,1.93-5.09,2.93-.14.08-.14.4-.27.54s-.44.43-.63.4c-2.52-.35-4.2,1.4-6.11,2.49a8.14,8.14,0,0,0-3.53,4.21c-.19.48-.39.95-.61,1.41a.27.27,0,0,1-.26.09c-.16-.08-.41-.19-.42-.3a3.32,3.32,0,0,1,0-1.22,10.77,10.77,0,0,1,4.83-5.86c1.39-.89,2.9-1.61,4.37-2.36A5.56,5.56,0,0,0,38,193.57a8.93,8.93,0,0,1,3.93-3.88,12.47,12.47,0,0,0,3.63-2.84,8.18,8.18,0,0,1,.68-.64c2.94-2.53,2.86-2.09,2.93-6A2.59,2.59,0,0,1,49.3,179.61Zm2.76,4.83c0,1.08-.06,1.79,0,2.49.22,2.06,1.42,2.29,2.93,2.61.1,0,.47-.5.42-.6C54.59,187.43,54,185.74,52.06,184.44Z"></path>
      <polygon class="cls-3" points="0.86 167.35 48.99 187.78 97.83 166.99 97.38 166.86 0.86 167.35"></polygon>
      <ellipse class="cls-1" cx="50.53" cy="167.97" rx="11.28" ry="4.41"></ellipse>
      <ellipse class="cls-11" cx="50.82" cy="169.46" rx="9.3" ry="3.64"></ellipse>
      <path class="cls-12" d="M48.45,170a50.41,50.41,0,0,1,2.22-14.06,27.26,27.26,0,0,1,1.89-4.58,4.47,4.47,0,0,0,.29-3.88c-.63-1.64-1.3-3.26-2-4.88a1.27,1.27,0,0,0-1.51-.8,46.29,46.29,0,0,1-9.91.45,11.47,11.47,0,0,0-1.55,0c-2.33.27-3.16,1.12-3.49,3.53,0,.37-.15.73-.31,1.46a9.55,9.55,0,0,1-.93-1.14c-1.93-3.67-3.86-7.33-5.74-11A10.66,10.66,0,0,1,26.13,130a7.37,7.37,0,0,1,6.45-7.52,9.25,9.25,0,0,1,7.9,2.79,4.93,4.93,0,0,1,1.33,3.08c.1.71,0,1.45.1,2.17a.68.68,0,0,0,.89.6c.89-.26,1.76-.61,2.63-.93,5.22-1.93,9.66.55,11,6.28a12,12,0,0,0-4.08,3.61,1.86,1.86,0,0,0-.34,2.23c.81,1.65,1.53,3.35,2.35,5.19A5.15,5.15,0,0,0,56,144.87a30.42,30.42,0,0,0-1.32-25.29c-1.73-3.41-3.72-6.69-5.69-10-2.08-3.46-4.34-6.81-6.41-10.28a52.58,52.58,0,0,1-4.74-10.1A29.8,29.8,0,0,1,36.22,82a3.31,3.31,0,0,0-1.73-2.75A20.58,20.58,0,0,0,28,76.45a26.54,26.54,0,0,0-5.54-.66c-3,0-5.76-.47-8.15-2.42a.86.86,0,0,0-1.45.5c-.24.89-.35,1.82-.54,2.72a.61.61,0,0,1-1,.34A23.66,23.66,0,0,1,8.57,74,17.32,17.32,0,0,1,5.22,63.52c0-1.45.15-2.89.18-4.34a5.65,5.65,0,0,0-.23-1.79c-1.5-4.41-.4-8,3.38-10.55A12.35,12.35,0,0,1,14,44.69a31.7,31.7,0,0,1,10.5.63,1.31,1.31,0,0,1,1.1,1.31c0,.72.08,1.45.11,2.17,1.25,1.46,1.72,1.58,3.07.81.74-.37,1.47-.76,2.23-1.09a1.72,1.72,0,0,1,.89-.16c2.66.21,6,3.8,6.17,6.57.05.87-.17,1.28-1.16,1.5a8.49,8.49,0,0,0-5,3.47A23.87,23.87,0,0,0,30.63,62c-.9.64-.64,1.58-.65,2.46h0l-1.91.06c-.71-.08-1.43-.17-2.14-.23-1.75-.13-3.49-.29-5.23-.35a1.66,1.66,0,0,0-1.8,1.67,11.41,11.41,0,0,0,.25,1.81c.15,1.36-.43,2.34-2,3.47.38-1.08,1-1.34,1.14-1.83s.28-1.15.05-1.42c-.56-.65-.83.17-1.12.47-.87.88-1.71,1.79-2.51,2.73s-.67,1.44.24,2.07a15.8,15.8,0,0,0,2.94,1.6c2.05.85,4.26.63,6.41.7,3.77.13,7.37.74,10.47,3.13,1,.73,1,.63,1.51-.8l1.4-.11c.46-.64,1-1.26,1.39-1.93a12.94,12.94,0,0,1,3.46-4.18l.55-.67h0l1.21.53-.09.09-.49.51c-.71,1.13-1.39,2.29-2.14,3.4-2.42,3.62-3.58,7.48-1.93,11.71a58.71,58.71,0,0,0,3.88,8.45c3.88,6.58,8,13,12,19.52.85-.22.55-.84.56-1.26a11.14,11.14,0,0,1,5.34-9.92A4.46,4.46,0,0,0,63,101.86a7.65,7.65,0,0,1,4.35-3.78c2.58-.93,5-.56,6.77,1.59a29.06,29.06,0,0,1,2.44,3.93c.47.8,1.17.9,1.65.15s.66-1.29,1-1.91c1-1.61,1.82-1.94,3.63-1.48a17.85,17.85,0,0,1,6.54,3.46c.41.32.75.73,1.17,1,3,2.1,3.3,5,2.65,8.29a17.45,17.45,0,0,1-3.67,7.78c-1.46,1.79-2.69,3.67-2.41,6.48-1.21-.74-2.1-1.39-3.08-1.87-3.16-1.52-6.33-3-9.53-4.44a27.62,27.62,0,0,1-8.82-5.66,12.73,12.73,0,0,1-3.86-8.23c0-.41-.08-.82-.14-1.4A4.84,4.84,0,0,0,59,108.27a11.91,11.91,0,0,0-1.39,6.91,31.43,31.43,0,0,0,1.62,9.14,29.5,29.5,0,0,1-.6,22.12c-1.15,2.78-2.36,5.52-3.49,8.31-.93,2.3-1.87,4.6-2.63,7a24.13,24.13,0,0,0-1.37,7.3,12.8,12.8,0,0,1-.38,2.11C49,171.66,49,171.65,48.45,170Z"></path>
      <path class="cls-13" d="M56.7,67l-.29,0L56.13,67c1.25-.68,2.35-1.44,1.85-3.14a9.19,9.19,0,0,1,6.15-4.37l1.48-.67,1,0c.74.13,1.47.2,2-.52,1.55-.06,3.1-.15,4.65-.15A.79.79,0,0,1,74,59.41c-.41.71-.89,1.38-1.47,2.26,1.43.49,2.73,1,4.07,1.38s2.54,1.35,4.15,1.06c.9-.16-.46.89.36,1.16,1.24.42,1.88,1.57,2.63,2.53s.77,1.56,0,2.18c-2,1.47-1.79,3-.84,5A34.57,34.57,0,0,1,86,91.62c0,.6-.18,1.19-.28,1.89-4.88-.55-9.29-2.3-13.83-3.89a4,4,0,0,0-.11,1c.45,2.61.41,2.73-2,2.43-3-.37-5.95-.82-8.89-1.38a10,10,0,0,1-4.48-2.06c-.53-.43-.9-1.4-1.71-1-.45.21-.6,1-.93,1.55a1,1,0,0,1-1.8.13c-4.32-4.57-5.77-12.58-.66-18.06,2.07-2.22,4.38-3.76,7.47-4a12,12,0,0,0,1.52-.35l-3-.82A.57.57,0,0,0,56.7,67Z"></path>
      <path class="cls-13" d="M74.18,14.73l6.58.61c0-.75,0-1.65.15-2.53A4.67,4.67,0,0,1,85.19,8.6a9.87,9.87,0,0,1,3.39.07c2.79.75,5.53,1.68,8.26,2.62.59.21.54.69,0,1.11a.54.54,0,0,0,.12,1c.94.44,1.9.82,2.82,1.28,1.12.55,2.21,1.14,3.29,1.74a9.57,9.57,0,0,1,4.65,6.65c.25,1.13.07,1.34-1.35,1.91a.86.86,0,0,0-.47.64c.08.71.34,1.4.41,2.12.32,3.08-.43,5.73-3.29,7.65-.3-.74-.55-1.4-.85-2a3.28,3.28,0,0,0-4-2.16c-1.12.16-2.22.47-3.32.74a10.15,10.15,0,0,1-5.52.07c-1-.33-1.9-.66-2.75.39-.19.23-1,.17-1.4,0a18.71,18.71,0,0,1-5.26-3.79l-2.62-2.74A13,13,0,0,1,76,27.59c-.21.19-.74.08-1.11,0-.17,0-.33-.25-.44-.42a15.54,15.54,0,0,1-2.57-6.27c-.28-1.9-.1-3.75,1.74-5C74.12,15.72,74.19,15.25,74.18,14.73Z"></path>
      <path class="cls-13" d="M48.82,25.87a10.47,10.47,0,0,1,3.28,2.79A4.05,4.05,0,0,1,53,31.23c0,1.66-.67,2.63-2.33,2.69A68.9,68.9,0,0,1,43,33.79c-1.75-.12-3.46-.66-5.19-.92-.94-.14-1.59-.43-1.64-1.47,0-.89-.7-1.26-1.4-1.46a8.11,8.11,0,0,0-2.43-.42c-2.48.05-5,.09-7.42.36-1.39.15-1.77.12-1.74-1.6a12.87,12.87,0,0,1,1.29-5.39c.27-.56.66-1.05.91-1.62.16-.36.37-1,.2-1.16-1.44-1.63,0-2.42,1-3.21a9.81,9.81,0,0,1,5.73-2.11,22.7,22.7,0,0,0,3.65-.57,1,1,0,0,0,.79-1.41c-.5-1,.08-1.31.81-1.55a4.11,4.11,0,0,1,1.21-.17A12.19,12.19,0,0,1,48.17,15c2.48,2.66,2.75,5,1,8.47C47.85,24.57,47.81,24.87,48.82,25.87Z"></path>
      <path class="cls-14" d="M48.82,25.87c-1-1-1-1.3.35-2.44.52.72,1.08.31,1.63.06a15.21,15.21,0,0,1,7.54-1.37c1,.1,2,.29,3.29.47-.19-.59-.29-1.05-.47-1.46a21.42,21.42,0,0,1-1.84-10,12.64,12.64,0,0,1,4.34-9.28A7.3,7.3,0,0,1,68.47,0,3.66,3.66,0,0,1,72.2,3.06a2.32,2.32,0,0,1-1.74,2.58,2.26,2.26,0,0,1-2.71-.91,1.51,1.51,0,0,1,1-2.36,1.28,1.28,0,0,1,1,.49c.35.61-.31.49-.61.66s-.51.44-.47.59a1,1,0,0,0,.6.56c1.31.24,2.06-.55,1.74-1.75A2.59,2.59,0,0,0,68.88,1a5.38,5.38,0,0,0-4,1.22,10.48,10.48,0,0,0-4.24,7.32,19.1,19.1,0,0,0,1.67,11.18c.18.35.43.66.6.93.81,0,.63-.52.72-.83,1-3.58,3.49-5.51,7-6.19,1.17-.23,2.42-.78,3.59.08,0,.52-.06,1-.61,1.24-.21-.2-.4-.54-.64-.57-3.09-.41-7.32,2.26-8.19,5.43a5.71,5.71,0,0,0,.42,4.48c.25.46.59.86.85,1.3a7.52,7.52,0,0,1,.59,6.85,17.76,17.76,0,0,1-3.28,5.23c-1.77,2-3.59,4-5.37,6-.62.71-.62,1.11-.1,1.57,1,.84,1.57,1,2.06.28a4,4,0,0,1,2.53-1.64c2.22-.49,4.4-1.21,6.72-1l-.39,1.74c-2.48.68-4.94,1.47-7.45,2-1.55.32-2.38,1.53-3.68,2.22A59.51,59.51,0,0,1,62.18,54a52.79,52.79,0,0,1,3.43,4.76l-1.48.67A3.17,3.17,0,0,0,64,58.29a23,23,0,0,0-2.08-3.07,14.18,14.18,0,0,0-4.64-4,1.6,1.6,0,0,0-1.72,0,32.68,32.68,0,0,1-4.85,2.73,13,13,0,0,0-5.9,4.79c-.79,1.09-1.55,2.2-2.36,3.27s-1,1.76,0,2.71a5.94,5.94,0,0,1,1.46,3,15.62,15.62,0,0,0,.56,1.52C48.19,67,52,65.48,56.28,65.69c.82,0,1-.48,1.17-1.12.07-.27.35-.49.53-.73.5,1.7-.6,2.46-1.85,3.14-.5.06-1,.13-1.51.17a18.37,18.37,0,0,0-10.39,4.06L43,70.68c0-.62,0-1.24,0-1.86a5.24,5.24,0,0,0-1.22-3.43c-.47-.64-1-.61-1.41.11a25.07,25.07,0,0,0-2.79,12l-1.4.11a12,12,0,0,1,.55-6.3c.07.66.15,1.33.25,2.21.32-1.28.32-1.28-.25-2.21-.26-2,.86-3.57,1.47-5.3.29-.84.94-1.56.88-2.48-2.31-.88-2.33-.88-3.7-.53a6.25,6.25,0,0,0-3.23,1.74,4,4,0,0,0-1.12,3.41c.26,2.15,2.06,3.06,4,2.06a2.56,2.56,0,0,1,.53-.3c.13,0,.41.09.42.17a.8.8,0,0,1-.14.55,3.25,3.25,0,0,1-3.74.67,3.07,3.07,0,0,1-2.11-2.83,25.51,25.51,0,0,1,.53-3.94c.19,0,.45,0,.57-.15a7.72,7.72,0,0,1,8-2,1.09,1.09,0,0,0,1.28-.54l5.27-6.93a6.68,6.68,0,0,0,1.49-4.32,8.59,8.59,0,0,0-6.93-7.75,11.24,11.24,0,0,0-7.5,1.32A18.72,18.72,0,0,0,28,48.4c-.56.67-.38.92.81,1.21-1.35.77-1.82.65-3.07-.81A1.26,1.26,0,0,0,27,48.25a30,30,0,0,1,3.15-3.41,12.19,12.19,0,0,1,8.14-3.29A9.86,9.86,0,0,1,48.5,50c.07.39.15.78.25,1.26a3.48,3.48,0,0,0,.89-.45c1.54-1.52,3.06-3.07,4.69-4.72-.75-.75-1.43-1.36-2-2.06a4.77,4.77,0,0,1-.54-1.35l0,0,2.16,1.62c.86.64,1.46.67,2.16-.11,2.81-3.14,5.72-6.22,8.33-9.53,3-3.82,1.44-7.22-1.33-9.47a9.19,9.19,0,0,0-7.21-2.08A12.7,12.7,0,0,0,48.82,25.87Zm2.35,26.64c1.4-.77,2.82-1.51,4.2-2.34a20.5,20.5,0,0,0,2.23-1.63c.55-.45.42-1.08-.26-1.46-.45-.25-.94-.5-1.42-.09a16,16,0,0,0-1.34,1.26A16.08,16.08,0,0,0,51.17,52.51Z"></path>
      <path class="cls-14" d="M50.49,40.27c.6.22.64.72.63,1.24l.05,0-.63-1.24Z"></path>
      <path class="cls-15" d="M69,44.48a2.3,2.3,0,0,0,2.37-1.06c.94-1.42,4.15-4,3.73-1.36s-1.26,2.46-1.26,2.46,3.89.85.89,2.8a2.4,2.4,0,0,1-2.58,2s1.21-3.66-3.41-3.72C68.77,45.63,67.75,44.61,69,44.48Z"></path>
    </g>
  </g>
</svg>
