<?xml version="1.0" encoding="UTF-8"?>
<svg xmlns="http://www.w3.org/2000/svg" xmlns:xlink="http://www.w3.org/1999/xlink" viewBox="0 0 110.12 161.73">
  <defs>
    <style>.cls-1{fill:none;}.cls-2{fill:#8e6848;}.cls-3{clip-path:url(#clip-path);}.cls-4{fill:url(#Безымянный_градиент_2);}.cls-5{fill:#713e21;}.cls-6{fill:#3d271f;}.cls-7{fill:#69391e;}.cls-8{fill:#6b472f;}.cls-9{fill:#5c3624;}.cls-10{fill:#795135;}.cls-11{fill:#9a734f;}.cls-12{fill:#fff;}.cls-13{fill:#f0f5ad;}.cls-14{fill:#85563a;}.cls-15{fill:#98a945;}.cls-16{fill:#abc847;}.cls-17{fill:#deee86;}.cls-18{fill:#6b482f;}</style>
    <clipPath id="clip-path">
      <polygon class="cls-1" points="7.72 133.05 57.69 156.57 103.91 133.16 55.86 112.81 7.72 133.05"></polygon>
    </clipPath>
    <linearGradient id="Безымянный_градиент_2" x1="-3031.58" y1="-58.18" x2="-3028.78" y2="-58.18" gradientTransform="matrix(34.36, 0, 0, -34.36, 104149.95, -1864.17)" gradientUnits="userSpaceOnUse">
      <stop offset="0" stop-color="#9b714e"></stop>
      <stop offset="0.38" stop-color="#9b714e"></stop>
      <stop offset="0.89" stop-color="#764528"></stop>
      <stop offset="1" stop-color="#6e3c20"></stop>
    </linearGradient>
  </defs>
  <g id="Слой_2" data-name="Слой 2">
    <g id="Слой_1-2" data-name="Слой 1">
      <path class="cls-2" d="M57.69,90.42s9.62,11.3,17.06,11.76,32.81-7.56,32.81-7.56l2.56-26.43L57.69,49.69Z"></path>
      <path class="cls-2" d="M0,66.31l5.23,34.47s18.58,2.79,21.83,1.87,18.12-6.51,22.29-6.51,8.34-5.73,8.34-5.73V49.69Z"></path>
      <g class="cls-3">
        <rect class="cls-4" x="31.38" y="85.49" width="48.87" height="98.4" transform="translate(-81.67 183.2) rotate(-86.92)"></rect>
      </g>
      <path class="cls-5" d="M7.72,133.05,5.23,100.79s23.69-.47,30.19-3.72,22.27-6.66,22.27-6.66l-1.83,22.4Z"></path>
      <path class="cls-6" d="M41.49,102.79a8.56,8.56,0,0,0-2.84-1.67l0,0s-3.79-1.13-5.85,1.42-1.71,5.28-.77,5.73a11.08,11.08,0,0,0,1.63.34l.09,0a28.19,28.19,0,0,0,3.51-.8,1.56,1.56,0,0,0,.6-.16,6.26,6.26,0,0,0,.65-.19c1.49-.45,1.67-.12,2.69-1a4,4,0,0,0,1.09-2.55l-.21-.5h0l0,0a1,1,0,0,0-.58-.5"></path>
      <path class="cls-6" d="M21.2,106.12a10.79,10.79,0,0,0-4,1.33v0s-4.3,2.7-3.59,6.85,3.66,6.13,4.88,5.6a14.71,14.71,0,0,0,1.71-1.28l0-.13c.92-1.06,1.59-3.17,2.21-4.06a2,2,0,0,0,.35-.72c.11-.2.21-.42.38-.79.8-1.81,1.28-1.71,1.29-3.45a5.09,5.09,0,0,0-1.54-3.21,4.07,4.07,0,0,0-.66-.23v0h-.08a1.27,1.27,0,0,0-1,.14"></path>
      <path class="cls-7" d="M57.69,90.42l-1.83,22.39,48.06,20.36,3.64-38.55s-15-1.73-21.48-.81-17.84,3.72-21.24,1.87a45.07,45.07,0,0,1-7.15-5.26"></path>
      <path class="cls-6" d="M39.39,113.42a3.29,3.29,0,0,0-1.26-.31h0a2.31,2.31,0,0,0-2,1.19c-.49,1.18-.05,2.17.35,2.23l.65,0,0,0a10.59,10.59,0,0,0,1.23-.69l.21-.13.22-.14c.51-.34.61-.23.9-.68a1.59,1.59,0,0,0,.12-1.08l-.13-.16h0Z"></path>
      <path class="cls-6" d="M86.47,103.78a2.27,2.27,0,0,0-.11-.89h0s-.38-1-1.27-1-1.43.5-1.38.78l.2.41h0l.75.63.13.1.15.11c.35.25.3.34.66.41a1.08,1.08,0,0,0,.74-.18l.07-.13h0Z"></path>
      <path class="cls-6" d="M99.89,120a11,11,0,0,0-1.9-3.81h0s-3.32-3.91-7.36-2.6-5.59,4.54-4.88,5.68a15.32,15.32,0,0,0,1.52,1.53h.14c1.19.77,3.39,1.14,4.37,1.62a2.18,2.18,0,0,0,.77.25c.22.08.45.15.84.26,1.93.55,1.9,1,3.64.79a5.15,5.15,0,0,0,3-2,3.87,3.87,0,0,0,.13-.69h0l0-.07a1.27,1.27,0,0,0-.28-1"></path>
      <path class="cls-6" d="M73.78,106.68a8.37,8.37,0,0,0-1.87,2.69l0,0s-1.4,3.66,1,5.9,5.11,2.08,5.62,1.19a13,13,0,0,0,.46-1.59l0-.1a27.58,27.58,0,0,0-.52-3.53,1.67,1.67,0,0,0-.12-.61c0-.17-.07-.36-.13-.66-.35-1.5,0-1.66-.81-2.74A3.94,3.94,0,0,0,74.88,106l-.51.17v0l0,0a1,1,0,0,0-.54.54"></path>
      <path class="cls-8" d="M74,134.06a1.59,1.59,0,0,0,1.57-.42c.54-.7.43-1.43.17-1.54l-.44-.09c-.29,0-.32.69-.33.7Z"></path>
      <path class="cls-9" d="M73,133.48s.87.79,1.23.55.8-.46.8-.46l0-.25-1-.31-.56.19Z"></path>
      <path class="cls-10" d="M73,133.34c0,.1.12.36.4.27a4.1,4.1,0,0,0,.52-.23l.33-1c.06-.15.14-.19-.25-.06s-.45,0-.72.29a1.07,1.07,0,0,0-.28.69"></path>
      <path class="cls-11" d="M73.88,133.38a5.25,5.25,0,0,0,.13-.69c0-.31,0-.39.28-.43s.84-.33,1.11-.23.26.09.26.44a1.24,1.24,0,0,1-.39.87.71.71,0,0,1-.75.33,1.82,1.82,0,0,1-.64-.29"></path>
      <path class="cls-8" d="M63.28,127.93s2.39.13,3.24-1.67.26-3.36-.36-3.49a7.39,7.39,0,0,0-1,0c-.66,0-.37,1.67-.39,1.7Z"></path>
      <path class="cls-9" d="M60.93,127.11s2.3,1.32,3,.61,1.53-1.4,1.53-1.4l-.15-.52a7.25,7.25,0,0,0-2.27-.24c-.36.2-1,.62-1.16.69Z"></path>
      <path class="cls-10" d="M60.74,126.83c.11.21.43.74,1,.4a8.38,8.38,0,0,0,1.05-.75s.18-1.93.26-2.28.22-.49-.58,0-1,.31-1.44,1a2.38,2.38,0,0,0-.28,1.65"></path>
      <path class="cls-11" d="M62.78,126.48a10.92,10.92,0,0,0-.05-1.58c-.09-.7-.16-.88.42-1.09s1.68-1.12,2.32-1,.6.06.77.84a2.88,2.88,0,0,1-.41,2.1,1.61,1.61,0,0,1-1.52,1.07,4.11,4.11,0,0,1-1.53-.32"></path>
      <path class="cls-8" d="M53.32,135.7s1.86,1.42,3.54.43,2-2.58,1.62-3a7,7,0,0,0-.84-.53c-.55-.33-1.21,1.15-1.25,1.16Z"></path>
      <path class="cls-9" d="M51.86,133.75s1.15,2.33,2.08,2.13,2-.29,2-.29l.16-.51s-1.29-1.4-1.7-1.44-1.14,0-1.32-.07Z"></path>
      <path class="cls-10" d="M51.86,133.42c0,.23,0,.84.59.87a8.3,8.3,0,0,0,1.26,0l1.46-1.71c.25-.24.45-.27-.47-.32s-1-.27-1.7,0a2.39,2.39,0,0,0-1.14,1.19"></path>
      <path class="cls-11" d="M53.71,134.26a10.69,10.69,0,0,0,.83-1.32c.3-.61.35-.78.93-.64s2,0,2.44.44.45.38.17,1.11a2.8,2.8,0,0,1-1.49,1.46,1.54,1.54,0,0,1-1.81,0,3.92,3.92,0,0,1-1.07-1.09"></path>
      <path class="cls-8" d="M49,129.26a2.67,2.67,0,0,0,.1-2.73c-.86-1.2-2.11-1.39-2.41-1l-.35.67c-.22.44,1,.85,1,.88Z"></path>
      <path class="cls-9" d="M47.63,130.5s1.7-1,1.49-1.73a15.08,15.08,0,0,1-.35-1.51l-.4-.09s-1,1.08-1,1.4,0,.87,0,1Z"></path>
      <path class="cls-10" d="M47.39,130.52c.18,0,.63,0,.62-.5a7.72,7.72,0,0,0-.11-1l-1.4-1c-.2-.17-.23-.32-.21.38s-.15.74.12,1.3a1.8,1.8,0,0,0,1,.78"></path>
      <path class="cls-11" d="M47.9,129.06a7.93,7.93,0,0,0-1.06-.54c-.49-.2-.62-.22-.55-.67s-.13-1.51.17-1.89.26-.37.84-.2a2.1,2.1,0,0,1,1.21,1,1.19,1.19,0,0,1,.15,1.38,3,3,0,0,1-.76.89"></path>
      <path class="cls-8" d="M40.56,131.27a1.15,1.15,0,0,0,.38-1.11c-.2-.61-.69-.85-.86-.74l-.23.23.29.49Z"></path>
      <path class="cls-9" d="M39.82,131.61s.83-.21.84-.53,0-.67,0-.67l-.15-.08-.58.44-.12.43Z"></path>
      <path class="cls-10" d="M39.71,131.59l.33-.13.08-.41-.46-.59c-.06-.1,0-.17-.13.12s-.16.29-.12.56a.81.81,0,0,0,.3.45"></path>
      <path class="cls-11" d="M40.12,131.05l-.37-.36-.15-.35.32-.76.37,0a1,1,0,0,1,.37.59.51.51,0,0,1-.12.59Z"></path>
      <path class="cls-8" d="M38,136s1.64-2.64.13-4.73-3.65-2.39-4.18-1.77a8.24,8.24,0,0,0-.6,1.17c-.37.77,1.66,1.46,1.69,1.51Z"></path>
      <path class="cls-9" d="M35.56,138.1s2.94-1.8,2.56-3-.63-2.62-.63-2.62l-.69-.15s-1.69,1.88-1.69,2.42.08,1.52.06,1.75Z"></path>
      <path class="cls-10" d="M35.13,138.14c.31,0,1.1,0,1.07-.87a12.17,12.17,0,0,0-.19-1.66s-2.09-1.42-2.44-1.72-.41-.56-.36.66-.25,1.28.21,2.24a3.15,3.15,0,0,0,1.71,1.35"></path>
      <path class="cls-11" d="M36,135.61a13.69,13.69,0,0,0-1.84-.94c-.85-.33-1.08-.36-1-1.15s-.23-2.61.29-3.28.45-.64,1.44-.35a3.69,3.69,0,0,1,2.12,1.78,2.07,2.07,0,0,1,.27,2.39A5.33,5.33,0,0,1,36,135.61"></path>
      <path class="cls-12" d="M58.84,88.76a2.35,2.35,0,0,1,.69,1.64A4.81,4.81,0,0,1,59.32,92,11.4,11.4,0,0,1,58,94.87c-.29.45-.54.87-.79,1.3a6.73,6.73,0,0,0-.54,1.37,5.78,5.78,0,0,0-.06,2.92,18.3,18.3,0,0,0,2.74,5.39,16.11,16.11,0,0,1,1.45,2.72,5.49,5.49,0,0,1,.38,1.51,1.72,1.72,0,0,1-.45,1.47,0,0,0,0,1-.07,0,0,0,0,0,1,0-.07h0a1.65,1.65,0,0,0,.37-1.37,5.23,5.23,0,0,0-.41-1.45,15.42,15.42,0,0,0-1.5-2.65,18.49,18.49,0,0,1-2.92-5.43,6.3,6.3,0,0,1,0-3.14,7.21,7.21,0,0,1,.55-1.49c.25-.46.51-.92.77-1.35a11.13,11.13,0,0,0,1.19-2.72,4.27,4.27,0,0,0,.15-1.41,1.73,1.73,0,0,0-.45-1.12l0,0a.36.36,0,0,1,0-.5.35.35,0,0,1,.5,0Z"></path>
      <path class="cls-12" d="M59.2,90.92a1.86,1.86,0,0,1,.64.28,4,4,0,0,1,.51.41,5.54,5.54,0,0,1,.81,1s0,0,0,.06a0,0,0,0,1-.07,0,5.64,5.64,0,0,0-.87-.89,2.83,2.83,0,0,0-.51-.34,1.79,1.79,0,0,0-.53-.19h0a.17.17,0,1,1,0-.33Z"></path>
      <path class="cls-12" d="M58.59,93a1.49,1.49,0,0,1,.84.44,1.29,1.29,0,0,1,.31.87,5.16,5.16,0,0,0,.07.79.71.71,0,0,0,.36.6.06.06,0,0,1,0,.08s0,0-.06,0a.86.86,0,0,1-.54-.66,5.84,5.84,0,0,1-.17-.81.93.93,0,0,0-.29-.61,1.16,1.16,0,0,0-.6-.23h0a.26.26,0,1,1,0-.51Z"></path>
      <path class="cls-12" d="M58.09,94.33a3,3,0,0,0-2.67.66.1.1,0,0,1-.14,0,.09.09,0,0,1,0-.12A2.72,2.72,0,0,1,56.59,94a4,4,0,0,1,1.58-.16.24.24,0,0,1,.22.26.23.23,0,0,1-.26.22h0Z"></path>
      <path class="cls-12" d="M57,96.18a3.68,3.68,0,0,0-2.84.51,0,0,0,0,1-.07,0,0,0,0,0,1,0-.07,2.79,2.79,0,0,1,1.38-.72A5.57,5.57,0,0,1,57,95.76a.21.21,0,0,1,.2.22.2.2,0,0,1-.22.2h0Z"></path>
      <path class="cls-12" d="M56.71,96.39a1.06,1.06,0,0,1,1,.38,2.12,2.12,0,0,1,.24,1c0,.16,0,.31.15.37a4.85,4.85,0,0,1,.4.28,5.14,5.14,0,0,1,.7.7,0,0,0,0,1,0,.07,0,0,0,0,1-.07,0,5.4,5.4,0,0,0-.73-.63,3.21,3.21,0,0,0-.41-.26.66.66,0,0,1-.25-.49,2,2,0,0,0-.25-.87.77.77,0,0,0-.74-.22h0a.16.16,0,0,1-.19-.13.16.16,0,0,1,.13-.19Z"></path>
      <path class="cls-12" d="M56.29,98.25a2.36,2.36,0,0,0-1.43.36,1.13,1.13,0,0,0-.4.58,1.8,1.8,0,0,1-.26.79c-.38.49-1,.49-1.44.74a.86.86,0,0,0-.43.61l-.22.77h0l.18-.78a.9.9,0,0,1,.42-.68c.47-.28,1.06-.34,1.34-.76a1.69,1.69,0,0,0,.2-.74,1.32,1.32,0,0,1,.44-.74,2.61,2.61,0,0,1,1.61-.5.18.18,0,0,1,0,.35h0Z"></path>
      <path class="cls-12" d="M53,100.54c0-.3-.38-.45-.68-.44a3,3,0,0,0-.93.16,11.24,11.24,0,0,0-1.75.75s0,0,0,0a0,0,0,0,1,0,0,11.39,11.39,0,0,1,1.75-.78,2.86,2.86,0,0,1,.95-.18c.31,0,.73.13.77.52,0,0,0,0,0,.06a0,0,0,0,1-.05,0h0Z"></path>
      <path class="cls-12" d="M56.49,100.66A9.72,9.72,0,0,0,54.16,103a6.2,6.2,0,0,0-1.08,3.13.06.06,0,0,1-.06.06.06.06,0,0,1-.05-.06,6.25,6.25,0,0,1,1-3.24,9.83,9.83,0,0,1,2.33-2.53.17.17,0,0,1,.23,0,.17.17,0,0,1,0,.23h0Z"></path>
      <path class="cls-12" d="M57.68,103.56a2.24,2.24,0,0,0-1.38.43,1,1,0,0,0-.36.61,1.82,1.82,0,0,0,0,.73h0v0a2.21,2.21,0,0,1-.47.63c-.11.09-.23.14-.25.23s0,.18.12.24a.07.07,0,0,1,0,.1.08.08,0,0,1-.1,0h0a.37.37,0,0,1-.18-.4c.07-.17.21-.21.29-.29a1.75,1.75,0,0,0,.44-.58v0a1.91,1.91,0,0,1,0-.79,1.13,1.13,0,0,1,.39-.69,2.44,2.44,0,0,1,1.47-.48.07.07,0,0,1,.08.08.07.07,0,0,1-.07.08h0Z"></path>
      <path class="cls-12" d="M58.86,105.4a1.4,1.4,0,0,0-.73.4,2.34,2.34,0,0,0-.47.73,5.09,5.09,0,0,0-.36,1.73s0,.06-.07.06a.07.07,0,0,1-.06-.07,5.14,5.14,0,0,1,.37-1.77,1.86,1.86,0,0,1,1.31-1.21.06.06,0,0,1,.08,0s0,.08,0,.08h0Z"></path>
      <path class="cls-12" d="M59.83,106.84A4.28,4.28,0,0,0,59,107.9a1.39,1.39,0,0,0-.12,1.28s0,0,0,0,0,0,0,0a1.48,1.48,0,0,1,.09-1.34,4.43,4.43,0,0,1,.82-1.11.06.06,0,0,1,.09,0,.07.07,0,0,1,0,.09Z"></path>
      <path class="cls-12" d="M60.41,107.93a1,1,0,0,1,.72,0,2.06,2.06,0,0,1,.63.31,4.74,4.74,0,0,1,1,1s0,0,0,0h0a4.86,4.86,0,0,0-1-.92,2,2,0,0,0-.6-.27.93.93,0,0,0-.62,0h0a.07.07,0,0,1-.1,0,.06.06,0,0,1,0-.09Z"></path>
      <path class="cls-12" d="M61.1,109.7l1.63,1h0a.06.06,0,0,1,0,0,0,0,0,0,1,0,0l-1.69-1a.07.07,0,0,1,0-.1.09.09,0,0,1,.1,0Z"></path>
      <path class="cls-12" d="M56.93,101.94a3.67,3.67,0,0,1,1.72.36,5.54,5.54,0,0,1,1.44,1,9.07,9.07,0,0,1,1.15,1.25,13.33,13.33,0,0,1,.93,1.42.07.07,0,0,1,0,.1.08.08,0,0,1-.09,0,14.66,14.66,0,0,0-.95-1.38,9.32,9.32,0,0,0-1.16-1.19,5.65,5.65,0,0,0-1.4-.87,3.45,3.45,0,0,0-1.56-.28h0a.17.17,0,1,1,0-.33Z"></path>
      <path class="cls-12" d="M57.54,102a4.88,4.88,0,0,1,1.88-1.81,2.34,2.34,0,0,1,1.3-.21,2.77,2.77,0,0,1,1.2.5.07.07,0,0,1,0,.06,0,0,0,0,1,0,0h0a2.48,2.48,0,0,0-1.17-.43,2.16,2.16,0,0,0-1.19.25,4.59,4.59,0,0,0-1.68,1.79h0a.15.15,0,0,1-.22.06.16.16,0,0,1-.07-.22Z"></path>
      <path class="cls-12" d="M59.26,102.65s-.11,0-.12,0h0l0,0,.06,0,.11-.08.23-.13a2.58,2.58,0,0,1,.49-.17,1.41,1.41,0,0,1,1,.17s0,0,0,0h0a1.33,1.33,0,0,0-1-.09,2.48,2.48,0,0,0-.44.2l-.21.14-.09.07-.05,0,0,0h0s-.13,0-.15,0a.11.11,0,1,1,.15-.15Z"></path>
      <path class="cls-12" d="M60.26,103.52a2.71,2.71,0,0,0-.29.76.62.62,0,0,0,.23.69,0,0,0,0,1,0,0s0,0,0,0a.71.71,0,0,1-.33-.78,2.91,2.91,0,0,1,.26-.82.1.1,0,0,1,.13,0,.11.11,0,0,1,0,.13Z"></path>
      <path class="cls-12" d="M61.1,104.42a2.45,2.45,0,0,1,2,.56s0,0,0,0a0,0,0,0,1,0,0,3.07,3.07,0,0,0-.91-.44,1.82,1.82,0,0,0-1,0h0a.06.06,0,0,1-.08,0,.07.07,0,0,1,.05-.09Z"></path>
      <path class="cls-12" d="M56.24,99.44a6.64,6.64,0,0,1,1,.11,2.83,2.83,0,0,1,.5.13.81.81,0,0,1,.43.33.05.05,0,0,1,0,.08.06.06,0,0,1-.08,0h0a1.23,1.23,0,0,0-.85-.29,6.28,6.28,0,0,0-1,0,.17.17,0,1,1,0-.33Z"></path>
      <path class="cls-12" d="M57.21,88.54a1.6,1.6,0,0,0-1,1,8.25,8.25,0,0,0-.15,1.68,1.26,1.26,0,0,1-.53.94,2.56,2.56,0,0,1-1,.2.81.81,0,0,0-.6.29,1,1,0,0,0-.22.67c0,.26.05.52.07.85a.69.69,0,0,1-.19.57,2,2,0,0,0-.24.3c-.29.48-.55,1-.82,1.52a11.18,11.18,0,0,0-.68,1.59,3.1,3.1,0,0,1-.87,1.52s0,0,0,0a0,0,0,0,1,0,0,3,3,0,0,0,.73-1.53,11.73,11.73,0,0,1,.57-1.67,11.19,11.19,0,0,1,.77-1.6,2.26,2.26,0,0,1,.28-.4c.07,0,.06-.09.06-.23s-.1-.56-.11-.88a1.51,1.51,0,0,1,.3-1,1.37,1.37,0,0,1,.91-.5,2.39,2.39,0,0,0,.75-.15.76.76,0,0,0,.25-.56,6.84,6.84,0,0,1,.17-1.78,1.55,1.55,0,0,1,1.48-1.19.17.17,0,0,1,.15.18.17.17,0,0,1-.1.13Z"></path>
      <path class="cls-12" d="M52.44,96.63a2.1,2.1,0,0,0-1.59.29,4.39,4.39,0,0,0-1.26,1.17.07.07,0,0,1-.1,0,.08.08,0,0,1,0-.11,4.58,4.58,0,0,1,1.28-1.24,2.26,2.26,0,0,1,1.76-.33.11.11,0,1,1,0,.21h0Z"></path>
      <path class="cls-12" d="M50.63,97l-2.16.28a0,0,0,0,1,0,0s0,0,0,0l2.15-.33s.07,0,.07,0a.06.06,0,0,1,0,.08Z"></path>
      <path class="cls-12" d="M53.46,94.71a2.76,2.76,0,0,1,.94,2.09,10.56,10.56,0,0,1,0,1.13A5,5,0,0,0,54.3,99v0a.06.06,0,0,1,0,.06.07.07,0,0,1-.06,0,4.05,4.05,0,0,1,0-1.15,10.28,10.28,0,0,0,0-1.11,2.81,2.81,0,0,0-.27-1,2.35,2.35,0,0,0-.65-.81h0a.16.16,0,0,1,.2-.26Z"></path>
      <path class="cls-12" d="M53.73,93.35c-.13.42-.2.8-.38,1.24a2,2,0,0,1-1.16.61c-.45.09-.85,0-1.27.07a6.78,6.78,0,0,0-1.21.16h0s0,0,0,0,0,0,0,0a5.62,5.62,0,0,1,1.25-.24c.41-.08.86,0,1.23-.13a1.93,1.93,0,0,0,1-.56c.1-.34.17-.79.26-1.17v0a.16.16,0,0,1,.2-.12.17.17,0,0,1,.12.2Z"></path>
      <path class="cls-12" d="M53.67,93a4.71,4.71,0,0,0-1.57.31,1.51,1.51,0,0,0-1,1.09s0,.06-.08.06a.07.07,0,0,1-.05-.08A1.68,1.68,0,0,1,52,93.06a5.14,5.14,0,0,1,1.65-.42.17.17,0,1,1,0,.33h0Z"></path>
      <path class="cls-12" d="M52.41,93.09a5.82,5.82,0,0,1-.73-.07,1.5,1.5,0,0,1-.67-.24c-.19,0-.42.16-.65.21s-.44.15-.71.19c0,0,0,0,0,0a.05.05,0,0,1,0-.05h0c.19,0,.45-.14.67-.2s.41-.23.7-.22a1.47,1.47,0,0,0,.67.24c.23,0,.47,0,.71.06a.05.05,0,0,1,.05,0,.06.06,0,0,1-.05.06Z"></path>
      <path class="cls-12" d="M55.77,91.78a4.23,4.23,0,0,0,.5.84,2.65,2.65,0,0,0,.33.34.74.74,0,0,1,.25.62,2.92,2.92,0,0,1-.36,1,7.07,7.07,0,0,1-.56.9.06.06,0,0,1-.09,0,.07.07,0,0,1,0-.09h0a7.89,7.89,0,0,0,.46-.92,2.59,2.59,0,0,0,.23-1,.32.32,0,0,0-.15-.3,2.86,2.86,0,0,1-.42-.36,4.47,4.47,0,0,1-.66-.89.27.27,0,0,1,.47-.27v0Z"></path>
      <path class="cls-12" d="M56.09,92.64a1.69,1.69,0,0,1,.66.15,3.49,3.49,0,0,1,.58.29,5.77,5.77,0,0,1,1,.78,0,0,0,0,1,0,.07,0,0,0,0,1-.07,0,6.72,6.72,0,0,0-1-.67,3.83,3.83,0,0,0-.56-.22,1.34,1.34,0,0,0-.54-.08h0a.17.17,0,0,1-.18-.15.17.17,0,0,1,.15-.18Z"></path>
      <path class="cls-12" d="M56,89.57l1.34.89c.22.16.44.3.66.49s.22.55.32.74l0,0a.06.06,0,0,1,0,.07.05.05,0,0,1-.08,0c-.16-.26-.17-.54-.35-.69a6.34,6.34,0,0,0-.67-.42l-1.39-.8a.17.17,0,0,1-.06-.23.17.17,0,0,1,.22-.06Z"></path>
      <path class="cls-12" d="M56.54,88.79a4.17,4.17,0,0,1-1.12-.06,4.29,4.29,0,0,0-1.07,0,.56.56,0,0,0-.2.08,1.22,1.22,0,0,1-.27.15,4.08,4.08,0,0,1-.54.22c-.36.13-.76.21-1.08.32h0a.05.05,0,0,1-.08,0s0-.06,0-.08c.37-.18.71-.3,1-.46.18-.08.34-.16.5-.25l.21-.15a.88.88,0,0,1,.32-.16,4.06,4.06,0,0,1,1.19-.09,2.56,2.56,0,0,1,1.15.21.18.18,0,0,1,.07.23.18.18,0,0,1-.12.09Z"></path>
      <path class="cls-12" d="M54.82,88.63a1.35,1.35,0,0,0-.81.56,10.14,10.14,0,0,1-.3,1.09,1.91,1.91,0,0,1-.77.89,7.13,7.13,0,0,1-1,.54s-.08,0-.09,0a.07.07,0,0,1,0-.09,6.62,6.62,0,0,0,1-.56,1.68,1.68,0,0,0,.66-.83c.14-.35.14-.68.26-1.11a1.67,1.67,0,0,1,1-.77.17.17,0,0,1,.12.31h0Z"></path>
      <path class="cls-12" d="M59.77,88.26c1.07,1,2.1,2.09,3.26,3.07a4.83,4.83,0,0,1,.91,2.16A6.08,6.08,0,0,1,64,95.78a21.16,21.16,0,0,0-.31,2.2,3.37,3.37,0,0,0,.52,2A19.17,19.17,0,0,1,65.36,102a4.75,4.75,0,0,1,.47,2.22.09.09,0,1,1-.17,0,4.68,4.68,0,0,0-.5-2.11A19,19,0,0,0,64,100.17a3.72,3.72,0,0,1-.61-2.2c0-.77.18-1.51.27-2.24a5.6,5.6,0,0,0-.09-2.16,4.36,4.36,0,0,0-.84-1.92c-1.13-.92-2.23-2-3.31-3a.27.27,0,1,1,.37-.4Z"></path>
      <path class="cls-12" d="M65.58,102.71a6.82,6.82,0,0,0-.75.77,2.06,2.06,0,0,0-.48.91h0a0,0,0,0,1-.06,0,.05.05,0,0,1-.05-.06,2,2,0,0,1,.49-1,6.21,6.21,0,0,1,.74-.8.08.08,0,0,1,.12,0,.07.07,0,0,1,0,.11Z"></path>
      <path class="cls-12" d="M64.37,100.51a2.77,2.77,0,0,0-1,2.15.05.05,0,0,1,0,.06.06.06,0,0,1-.06,0,2.91,2.91,0,0,1,.94-2.33.11.11,0,0,1,.16.16h0Z"></path>
      <path class="cls-12" d="M63.77,99.66a.69.69,0,0,1,.85-.15,2.8,2.8,0,0,1,.68.43,8.39,8.39,0,0,1,1.11,1.12s0,0,0,.06-.05,0-.06,0a8.65,8.65,0,0,0-1.14-1.05,2.23,2.23,0,0,0-.65-.37c-.22-.09-.5-.08-.58.07h0a.12.12,0,0,1-.16,0,.13.13,0,0,1,0-.16Z"></path>
      <path class="cls-12" d="M63.83,93.79a4,4,0,0,0-1.89,2,5,5,0,0,0-.34,1.38,7,7,0,0,0,0,1.45s0,.05,0,.05-.05,0-.06,0a7.22,7.22,0,0,1-.09-1.47,4.89,4.89,0,0,1,.31-1.45,4.27,4.27,0,0,1,2-2.24.17.17,0,0,1,.22.07.16.16,0,0,1-.07.22h0Z"></path>
      <path class="cls-12" d="M61.52,96.94a3.09,3.09,0,0,0-1.89,1.49.05.05,0,0,1-.08,0,0,0,0,0,1,0-.07,3.2,3.2,0,0,1,1.95-1.63.11.11,0,0,1,.12.07.09.09,0,0,1-.07.11h0Z"></path>
      <path class="cls-12" d="M63,91.84a.71.71,0,0,1,.6-.28,1,1,0,0,1,.53.23,3.52,3.52,0,0,1,.69.76c.18.28.35.57.5.86s.28.51.59.58c.59.16,1.28.18,1.9.38a6.5,6.5,0,0,1,1.81.8.06.06,0,0,1-.07.1h0a6.42,6.42,0,0,0-1.78-.7c-.62-.18-1.25-.18-1.92-.33a1,1,0,0,1-.48-.25,1.72,1.72,0,0,1-.3-.44,6,6,0,0,0-.51-.8,3.07,3.07,0,0,0-.62-.67c-.24-.18-.5-.18-.6,0h0a.19.19,0,0,1-.32-.21Z"></path>
      <path class="cls-12" d="M66.41,94.12a8.13,8.13,0,0,1,1.65.93,2.8,2.8,0,0,1,.63.71,4.53,4.53,0,0,0,.63.68.08.08,0,0,1,0,.1.08.08,0,0,1-.11,0,5.31,5.31,0,0,1-.65-.69,2.67,2.67,0,0,0-.61-.68,8.23,8.23,0,0,0-1.62-.89.09.09,0,0,1-.06-.12.09.09,0,0,1,.12,0Z"></path>
      <path class="cls-12" d="M63.93,95.42a3.62,3.62,0,0,0,.87,1.1,2.05,2.05,0,0,1,.6.45,5.57,5.57,0,0,1,.39.61v0a.06.06,0,0,1,0,.08.07.07,0,0,1-.09,0c-.18-.22-.25-.43-.42-.6a1.9,1.9,0,0,0-.58-.39,3.81,3.81,0,0,1-1-1.12.14.14,0,0,1,0-.19.13.13,0,0,1,.18,0h0Z"></path>
      <path class="cls-12" d="M63.68,97.54a2.67,2.67,0,0,0,.76.41c.29.11.6.2.91.31a7.83,7.83,0,0,1,1.77.86,8.56,8.56,0,0,0,.76.58,5.36,5.36,0,0,0,.9.33c.3.09.61.15.94.25a3.15,3.15,0,0,1,.84.51.05.05,0,1,1-.07.08,2.91,2.91,0,0,0-.82-.47c-.29-.08-.62-.13-.94-.22a4.66,4.66,0,0,1-.93-.32,6.26,6.26,0,0,1-.8-.56,7.58,7.58,0,0,0-1.74-.78c-.3-.1-.62-.18-.93-.29a2.5,2.5,0,0,1-.93-.52.16.16,0,0,1,0-.22.16.16,0,0,1,.23,0h0Z"></path>
      <path class="cls-12" d="M68.13,99.83a11.87,11.87,0,0,1,.89,1.44,3.6,3.6,0,0,1,.45,1.64.07.07,0,0,1-.07.07.07.07,0,0,1-.06-.07h0a3.39,3.39,0,0,0-.46-1.56A10.43,10.43,0,0,0,68,99.93a.08.08,0,0,1,0-.12.09.09,0,0,1,.12,0Z"></path>
      <path class="cls-13" d="M56.79,87.36c.1,1,.51,2,1.69,2a1.74,1.74,0,0,0,1.87-1.55,2.06,2.06,0,0,0,0-.46Z"></path>
      <polygon class="cls-14" points="0 66.31 57.69 90.41 110.12 68.18 57.69 49.69 0 66.31"></polygon>
      <path class="cls-15" d="M86.86,34.29c-2.24,2.22-4.78,4.05-7,6.27A14.82,14.82,0,0,0,77,44.13c-.77,1.35-1.46,2.75-2.18,4.15s-1.47,2.78-2.26,4.16a24.34,24.34,0,0,1-2.85,3.88,24,24,0,0,1-8.1,5.79A1.7,1.7,0,1,1,60.15,59a1.74,1.74,0,0,1,.38-.14l.29-.06A15.33,15.33,0,0,0,68.35,55a31.3,31.3,0,0,0,5.34-7.3c.79-1.35,1.56-2.73,2.42-4.07a11.65,11.65,0,0,1,1.49-2c.56-.59,1.13-1.14,1.72-1.67a67.67,67.67,0,0,1,7.53-5.7h0S86.86,34.29,86.86,34.29Z"></path>
      <path class="cls-16" d="M81.9,3a39.09,39.09,0,0,0-6.81,4.52,19.32,19.32,0,0,0-4.85,6.36,23.75,23.75,0,0,0-2.11,7.73,45.48,45.48,0,0,0,.12,8.16,51.15,51.15,0,0,1,.27,8.42,31.6,31.6,0,0,1-.63,4.21c-.27,1.36-.55,2.73-.89,4.09a83.55,83.55,0,0,1-5.54,16h0A1.69,1.69,0,1,1,58.39,61a2.75,2.75,0,0,1,.17-.29A42.61,42.61,0,0,0,65.19,46c.36-1.32.67-2.66,1-4a30.05,30.05,0,0,0,.72-4,48.58,48.58,0,0,0-.17-8.16,46.52,46.52,0,0,1,0-8.43,23.91,23.91,0,0,1,2.36-8.17,20.6,20.6,0,0,1,5.33-6.61A18,18,0,0,1,77.9,4.28,12.66,12.66,0,0,1,81.9,3Z"></path>
      <path class="cls-16" d="M61.27.08a61.69,61.69,0,0,0-3,7.54,61,61,0,0,0-2.09,7.76,43,43,0,0,0-1,7.86,67.63,67.63,0,0,0,.39,7.9A59.45,59.45,0,0,0,56.83,39c.57,2.6,1.42,5.13,2.26,7.75a31.39,31.39,0,0,1,1.12,4.12c.25,1.43.39,2.78.53,4.17s.21,2.76.29,4.14.16,2.74.19,4.15v.07a1.69,1.69,0,1,1-3.38.08,1.34,1.34,0,0,1,0-.2c.12-1.31.21-2.67.28-4s0-2.69,0-4a37.27,37.27,0,0,0-.28-4A30.37,30.37,0,0,0,57,47.39c-1.63-5.15-3.37-10.47-4-16a46,46,0,0,1-.16-8.3,45.76,45.76,0,0,1,1.5-8.17A54.07,54.07,0,0,1,61.18,0a0,0,0,0,1,.07,0A.06.06,0,0,1,61.27.08Z"></path>
      <path class="cls-16" d="M32.24,9.71a12.91,12.91,0,0,1,6.28,4.54,22.86,22.86,0,0,1,3.67,6.91c.85,2.5,1.38,5,2,7.55s1.28,5,2,7.5a24.78,24.78,0,0,0,2.91,6.95c.17.26.37.48.56.73l.62.77,1.2,1.56q1.19,1.58,2.28,3.21a54.49,54.49,0,0,1,4,6.83,22.84,22.84,0,0,1,2.42,7.82,1.22,1.22,0,0,1-2.43.23s0,0,0-.07v-.06a19.59,19.59,0,0,0-1.83-7.07,54.61,54.61,0,0,0-3.57-6.76c-.68-1.09-1.39-2.16-2.12-3.22l-1.13-1.56-.57-.76c-.2-.27-.42-.55-.6-.84a25.89,25.89,0,0,1-2.86-7.44c-.65-2.53-1.21-5.07-1.76-7.61s-1-5.1-1.75-7.55a22.57,22.57,0,0,0-3.36-6.88,12.68,12.68,0,0,0-6-4.65h0a.07.07,0,0,1,0-.08A.07.07,0,0,1,32.24,9.71Z"></path>
      <path class="cls-16" d="M27.17,44.36a12.81,12.81,0,0,1,5.16-.45A26.24,26.24,0,0,1,37.45,45a44.9,44.9,0,0,1,9.48,4.41A60.64,60.64,0,0,1,55.09,56a14.68,14.68,0,0,1,3.81,3.81,18,18,0,0,1,1.17,2.47c.09.21.17.42.25.64s.26.38.34.6A6.29,6.29,0,0,1,61,65a1,1,0,0,1-.92,1.14,1.05,1.05,0,0,1-1-.43l-.1-.15c-.19-.27-.38-.66-.57-1a3,3,0,0,0-.51-1.09,11.35,11.35,0,0,0-.71-1l-.74-1c-.21-.35-.48-.66-.69-1s-.43-.7-.64-1.06a24.14,24.14,0,0,0-1.32-2.17,34.43,34.43,0,0,0-7.76-6.5,45.44,45.44,0,0,0-8.93-4.86,25.28,25.28,0,0,0-4.89-1.4,12.6,12.6,0,0,0-5.08-.05s0,0,0,0S27.15,44.37,27.17,44.36Z"></path>
      <path class="cls-17" d="M58,65.55c1.28,3.34,3.48,1.19,3.37-.82A3.53,3.53,0,0,1,62.9,61.6a26.1,26.1,0,0,0,5.29-3.74,3.71,3.71,0,0,0-3.27-.47s-1.62.77-1.56.58c.17-.48,2.31-6.19,2.31-6.19a8.21,8.21,0,0,0-3.46,2.57c-.05.19-1.31,2.5-1.31,2.5a33.24,33.24,0,0,0-.85-6.71C58.42,52,58,56.6,58,56.41A11.44,11.44,0,0,0,56,53.13a19,19,0,0,0-.43,3.38c-.07-.28-1.48-1.46-1.48-1.22S55,59.2,55,59.2C56.85,62.13,58,64.48,58,65.55Z"></path>
      <path class="cls-13" d="M60.76,55.57c-1,.18-2.25,4.77-2.58,5.28s-.09,4.45-.28,5.43a5.68,5.68,0,0,0,0,1.41l3.59,0C61.45,65.31,60.76,55.57,60.76,55.57Z"></path>
      <path class="cls-18" d="M60.09,73a1.43,1.43,0,0,0-1.36-.5c-.76.23-1.06.83-.93,1a3.54,3.54,0,0,0,.28.29c.19.18.59-.34.61-.34Z"></path>
      <path class="cls-9" d="M60.48,73.88s-.24-1-.62-1-.83-.07-.83-.07l-.11.18s.39.68.54.73.45.13.52.16S60.48,73.88,60.48,73.88Z"></path>
      <path class="cls-10" d="M60.45,74c0-.09.1-.33-.15-.4a5.11,5.11,0,0,0-.5-.11s-.62.47-.74.54-.2.07.16.18.35.19.67.15A.94.94,0,0,0,60.45,74Z"></path>
      <path class="cls-11" d="M59.8,73.5a4.25,4.25,0,0,0-.45.45c-.18.21-.22.28-.43.17s-.79-.19-.93-.41-.14-.19,0-.45a1.09,1.09,0,0,1,.73-.44.62.62,0,0,1,.72.15A1.68,1.68,0,0,1,59.8,73.5Z"></path>
      <path class="cls-18" d="M40.77,66a2.08,2.08,0,0,0-2.11-.3c-1,.56-1.25,1.51-1,1.78a3.6,3.6,0,0,0,.5.33c.32.2.73-.67.76-.68Z"></path>
      <path class="cls-9" d="M41.61,67.14S41,65.73,40.4,65.83a11.09,11.09,0,0,1-1.21.15l-.1.3s.76.86,1,.89.68,0,.78.06A5.53,5.53,0,0,0,41.61,67.14Z"></path>
      <path class="cls-10" d="M41.61,67.33c0-.14,0-.5-.34-.53a4.59,4.59,0,0,0-.75,0s-.74.86-.9,1-.27.15.28.2.56.17,1,0A1.38,1.38,0,0,0,41.61,67.33Z"></path>
      <path class="cls-11" d="M40.52,66.81a7.18,7.18,0,0,0-.52.77c-.19.36-.21.47-.56.38s-1.18,0-1.45-.3-.27-.23-.09-.66a1.71,1.71,0,0,1,.91-.86.92.92,0,0,1,1.08,0A2.5,2.5,0,0,1,40.52,66.81Z"></path>
      <path class="cls-18" d="M54.41,63.16S50.06,61,47,63.64s-3.19,6-2.15,6.79a15.16,15.16,0,0,0,1.9.76c1.26.46,2-2.81,2.11-2.85S54.41,63.16,54.41,63.16Z"></path>
      <path class="cls-9" d="M58.13,66.59S54.9,62.27,53.06,63s-4,1.37-4,1.37L49,65.49s3.18,2.36,4,2.29,2.35-.34,2.72-.35A18.26,18.26,0,0,0,58.13,66.59Z"></path>
      <path class="cls-10" d="M58.25,67.25c0-.48-.22-1.72-1.52-1.55a18.42,18.42,0,0,0-2.56.55s-1.9,3.46-2.32,4-.82.72,1.07.48,2,.19,3.48-.67A4.87,4.87,0,0,0,58.25,67.25Z"></path>
      <path class="cls-11" d="M54.17,66.25a21.74,21.74,0,0,0-1.19,3c-.39,1.37-.41,1.75-1.65,1.68s-4,.74-5.16,0-1.06-.6-.75-2.19,1-2.33,2.46-3.56a3.24,3.24,0,0,1,3.69-.78A8.32,8.32,0,0,1,54.17,66.25Z"></path>
      <path class="cls-18" d="M71.14,64.55s-2.5-3.41-5.91-2.57-4.87,3.42-4.36,4.4a12.92,12.92,0,0,0,1.18,1.35c.78.86,2.68-1.36,2.76-1.37S71.14,64.55,71.14,64.55Z"></path>
      <path class="cls-9" d="M72.65,68.68s-.78-4.63-2.5-4.77-3.63-.52-3.63-.52l-.53.8s1.52,3.08,2.2,3.36,2,.67,2.24.81A15.51,15.51,0,0,0,72.65,68.68Z"></path>
      <path class="cls-10" d="M72.49,69.24c.16-.39.51-1.41-.56-1.8a18.08,18.08,0,0,0-2.2-.6s-2.85,1.92-3.41,2.21-.92.24.64.8,1.51,1,3,.87A4.25,4.25,0,0,0,72.49,69.24Z"></path>
      <path class="cls-11" d="M69.73,66.84a19.17,19.17,0,0,0-2.12,1.86c-.84.9-1,1.18-2,.64s-3.42-1-4-2-.58-.89.29-2,1.73-1.4,3.33-1.78a2.83,2.83,0,0,1,3.16.86A7.4,7.4,0,0,1,69.73,66.84Z"></path>
      <path class="cls-18" d="M59.5,66.32s-3.6-2.78-6.86-.9-4,5-3.2,5.84a13.43,13.43,0,0,0,1.61,1c1.07.65,2.37-2.2,2.45-2.23S59.5,66.32,59.5,66.32Z"></path>
      <path class="cls-9" d="M62.28,70.13s-2.18-4.54-4-4.18-3.9.54-3.9.54l-.31,1s2.48,2.74,3.27,2.82,2.21.11,2.55.17A16.6,16.6,0,0,0,62.28,70.13Z"></path>
      <path class="cls-10" d="M62.28,70.76c0-.45.1-1.61-1.12-1.69a17.27,17.27,0,0,0-2.45,0s-2.36,2.82-2.86,3.29-.87.51.9.63,1.84.55,3.31,0A4.6,4.6,0,0,0,62.28,70.76Z"></path>
      <path class="cls-11" d="M58.71,69.11a21.34,21.34,0,0,0-1.63,2.53c-.6,1.19-.69,1.53-1.82,1.25s-3.83-.06-4.73-.91-.87-.74-.29-2.14,1.37-2,2.9-2.83a3,3,0,0,1,3.52,0A7.82,7.82,0,0,1,58.71,69.11Z"></path>
      <path class="cls-18" d="M78.21,72.62a2.19,2.19,0,0,0,2-1c.54-1.09.19-2-.19-2.13a4.09,4.09,0,0,0-.61,0c-.41,0-.24,1-.26,1S78.21,72.62,78.21,72.62Z"></path>
      <path class="cls-9" d="M76.79,72.1s1.39.83,1.82.4.94-.84.94-.84l-.09-.32a4.66,4.66,0,0,0-1.38-.17c-.22.12-.61.37-.71.41A6.78,6.78,0,0,0,76.79,72.1Z"></path>
      <path class="cls-10" d="M76.68,71.93a.41.41,0,0,0,.6.25,5.34,5.34,0,0,0,.65-.44s.12-1.18.17-1.39.15-.3-.35,0-.59.18-.89.58A1.45,1.45,0,0,0,76.68,71.93Z"></path>
      <path class="cls-11" d="M77.93,71.74a6.8,6.8,0,0,0,0-1c0-.43-.09-.54.26-.66s1-.67,1.43-.6.37,0,.46.52a1.73,1.73,0,0,1-.27,1.27,1,1,0,0,1-.93.64A2.44,2.44,0,0,1,77.93,71.74Z"></path>
      <path class="cls-18" d="M30.28,75.12a2.18,2.18,0,0,0,2-1c.54-1.09.19-2-.19-2.13a4.09,4.09,0,0,0-.61,0c-.4,0-.24,1-.26,1S30.28,75.12,30.28,75.12Z"></path>
      <path class="cls-9" d="M28.85,74.6s1.39.83,1.82.4.94-.84.94-.84l-.09-.31a4.62,4.62,0,0,0-1.38-.18c-.22.12-.61.37-.71.42A5.48,5.48,0,0,0,28.85,74.6Z"></path>
      <path class="cls-10" d="M28.74,74.43c.07.13.26.45.6.26a6.17,6.17,0,0,0,.65-.45s.13-1.18.17-1.39.15-.3-.35,0-.59.18-.89.58A1.51,1.51,0,0,0,28.74,74.43Z"></path>
      <path class="cls-11" d="M30,74.24a6.8,6.8,0,0,0,0-1c0-.43-.09-.53.27-.66s1-.67,1.42-.6.37,0,.47.52a1.74,1.74,0,0,1-.28,1.27,1,1,0,0,1-.93.64A2.44,2.44,0,0,1,30,74.24Z"></path>
      <path class="cls-18" d="M44,73.4a2.8,2.8,0,0,0,2.63-1.08c.77-1.34.41-2.59-.06-2.73a5.35,5.35,0,0,0-.78,0c-.51,0-.4,1.27-.42,1.3S44,73.4,44,73.4Z"></path>
      <path class="cls-9" d="M42.2,72.6s1.7,1.18,2.28.68,1.28-1,1.28-1l-.09-.41a5.69,5.69,0,0,0-1.74-.34c-.3.13-.81.41-1,.46A8.07,8.07,0,0,0,42.2,72.6Z"></path>
      <path class="cls-10" d="M42.07,72.38c.08.17.29.6.75.38a6.52,6.52,0,0,0,.86-.52s.27-1.49.35-1.75.2-.36-.45,0-.77.18-1.18.66A1.87,1.87,0,0,0,42.07,72.38Z"></path>
      <path class="cls-11" d="M43.68,72.24A8,8,0,0,0,43.74,71c0-.55-.06-.69.4-.82s1.38-.76,1.87-.64.46.09.54.7a2.21,2.21,0,0,1-.46,1.6,1.24,1.24,0,0,1-1.24.74A3.34,3.34,0,0,1,43.68,72.24Z"></path>
      <path class="cls-18" d="M54,71.46a1.77,1.77,0,0,1,1.63-.25c.79.36,1,1,.82,1.19s-.26.16-.38.24-.58-.45-.6-.45Z"></path>
      <path class="cls-9" d="M53.34,72.28s.47-1,.91-.91.93.08.93.08l.09.2s-.57.6-.75.62-.53,0-.61.06A4,4,0,0,1,53.34,72.28Z"></path>
      <path class="cls-10" d="M53.35,72.41c0-.09-.05-.34.24-.36a5,5,0,0,1,.59,0s.59.58.71.67.22.1-.21.14-.43.13-.78,0A1,1,0,0,1,53.35,72.41Z"></path>
      <path class="cls-11" d="M54.18,72a5.7,5.7,0,0,1,.41.52c.16.24.18.32.45.25s.91,0,1.11-.24.2-.16.05-.45a1.22,1.22,0,0,0-.72-.57.83.83,0,0,0-.84,0A1.65,1.65,0,0,0,54.18,72Z"></path>
      <path class="cls-18" d="M68.64,67.33s-3.38-2.5-6.37-.7-3.62,4.68-2.84,5.46a10.82,10.82,0,0,0,1.51.93c1,.59,2.15-2.08,2.22-2.11S68.64,67.33,68.64,67.33Z"></path>
      <path class="cls-9" d="M71.29,70.8S69.18,66.64,67.5,67s-3.59.57-3.59.57l-.27.92S66,71,66.72,71.05s2,0,2.36.1A15.13,15.13,0,0,0,71.29,70.8Z"></path>
      <path class="cls-10" d="M71.29,71.38c0-.41.07-1.49-1.06-1.54a16.32,16.32,0,0,0-2.26.08s-2.14,2.66-2.59,3.1-.8.5.85.57,1.71.47,3.06,0A4.18,4.18,0,0,0,71.29,71.38Z"></path>
      <path class="cls-11" d="M68,69.92a19.31,19.31,0,0,0-1.46,2.38c-.54,1.11-.61,1.43-1.66,1.18s-3.55,0-4.4-.74-.81-.67-.31-2,1.23-1.83,2.63-2.67A2.81,2.81,0,0,1,66,68,7.33,7.33,0,0,1,68,69.92Z"></path>
      <path class="cls-18" d="M50.6,71.23s-2.76-.5-4,1.46-.8,3.88-.1,4.12a8,8,0,0,0,1.18.12c.77,0,.68-1.89.71-1.93S50.6,71.23,50.6,71.23Z"></path>
      <path class="cls-9" d="M53.22,72.54s-2.49-1.88-3.39-1.16a24.31,24.31,0,0,1-2,1.4l.11.63a8.4,8.4,0,0,0,2.6.62c.45-.17,1.25-.57,1.45-.63A11.12,11.12,0,0,0,53.22,72.54Z"></path>
      <path class="cls-10" d="M53.39,72.88c-.1-.26-.39-.91-1.09-.61A11.75,11.75,0,0,0,51,73s-.5,2.23-.64,2.62-.33.54.68.09,1.16-.22,1.82-.93A2.84,2.84,0,0,0,53.39,72.88Z"></path>
      <path class="cls-11" d="M51,73a13,13,0,0,0-.18,1.86c0,.82.06,1-.65,1.2s-2.12,1.06-2.85.85-.69-.16-.78-1.1a3.35,3.35,0,0,1,.8-2.38,1.87,1.87,0,0,1,1.92-1A4.72,4.72,0,0,1,51,73Z"></path>
    </g>
  </g>
</svg>
