<?xml version="1.0" encoding="UTF-8"?>
<svg xmlns="http://www.w3.org/2000/svg" xmlns:xlink="http://www.w3.org/1999/xlink" viewBox="0 0 93.24 154.59">
  <defs>
    <style>.cls-1{fill:#8e6848;}.cls-2{fill:url(#Безымянный_градиент_7);}.cls-3{fill:#713e21;}.cls-4{fill:#3d271f;}.cls-5{fill:#69391e;}.cls-6{fill:#6b482f;}.cls-7{fill:#5c3624;}.cls-8{fill:#795135;}.cls-9{fill:#9a734f;}.cls-10{fill:#cacac9;}.cls-11{fill:#85563a;}.cls-12{fill:#769b57;}.cls-13{fill:#79a05b;}.cls-14{fill:none;stroke:#79a05b;stroke-miterlimit:10;stroke-width:0.36px;}</style>
    <linearGradient id="Безымянный_градиент_7" x1="44.45" y1="187.01" x2="48.83" y2="105.68" gradientUnits="userSpaceOnUse">
      <stop offset="0.38" stop-color="#9b714f"></stop>
      <stop offset="0.91" stop-color="#754427"></stop>
      <stop offset="1" stop-color="#6e3c20"></stop>
    </linearGradient>
  </defs>
  <g id="Слой_2" data-name="Слой 2">
    <g id="Слой_1-2" data-name="Слой 1">
      <path class="cls-1" d="M48.85,98.58s8.15,9.56,14.44,10,27.79-6.41,27.79-6.41l2.16-22.38L48.85,64.09Z"></path>
      <path class="cls-1" d="M0,78.16l4.43,29.2s15.73,2.36,18.48,1.57,15.34-5.51,18.88-5.51,7.06-4.84,7.06-4.84V64.09Z"></path>
      <polygon class="cls-2" points="6.54 134.68 48.85 154.59 87.99 134.78 47.3 117.53 6.54 134.68"></polygon>
      <path class="cls-3" d="M6.54,134.68,4.43,107.36S24.49,107,30,104.21s18.86-5.63,18.86-5.63l-1.55,19Z"></path>
      <path class="cls-4" d="M35.13,109.05a7.18,7.18,0,0,0-2.4-1.41v0s-3.2-1-5,1.2-1.45,4.48-.65,4.85a8.54,8.54,0,0,0,1.38.29s.05,0,.08,0a27,27,0,0,0,3-.67,1.59,1.59,0,0,0,.51-.14l.55-.16c1.25-.39,1.41-.11,2.27-.86a3.37,3.37,0,0,0,.92-2.16,2.46,2.46,0,0,0-.17-.42h0l0,0A.81.81,0,0,0,35.13,109.05Z"></path>
      <path class="cls-4" d="M18,111.87a9.46,9.46,0,0,0-3.4,1.12v0s-3.64,2.28-3,5.79,3.09,5.19,4.13,4.75a13.27,13.27,0,0,0,1.45-1.09s0-.08,0-.11c.78-.89,1.35-2.68,1.87-3.43a1.87,1.87,0,0,0,.3-.61c.09-.17.18-.36.32-.67.68-1.54,1.08-1.45,1.09-2.93A4.31,4.31,0,0,0,19.4,112a2.26,2.26,0,0,0-.56-.19v0h-.07A1.07,1.07,0,0,0,18,111.87Z"></path>
      <path class="cls-5" d="M48.85,98.58l-1.55,19L88,134.77l3.09-32.64s-12.69-1.46-18.2-.68-15.1,3.15-18,1.58A38.18,38.18,0,0,1,48.85,98.58Z"></path>
      <path class="cls-4" d="M33.35,118.05a2.9,2.9,0,0,0-1.06-.26h0a1.94,1.94,0,0,0-1.72,1c-.42,1-.05,1.84.29,1.89.1,0,.38,0,.55,0l0,0a9,9,0,0,0,1-.58.7.7,0,0,0,.18-.11l.19-.12c.42-.29.51-.2.75-.58a1.28,1.28,0,0,0,.11-.91,1.1,1.1,0,0,0-.11-.14h0A.32.32,0,0,0,33.35,118.05Z"></path>
      <path class="cls-4" d="M73.22,109.89a1.94,1.94,0,0,0-.1-.75h0s-.32-.86-1.08-.88-1.21.43-1.16.66a2.7,2.7,0,0,0,.17.35s0,0,0,0a5.78,5.78,0,0,0,.64.53.27.27,0,0,0,.11.09L72,110c.29.21.25.29.56.36a.93.93,0,0,0,.62-.16l.06-.11h0A.28.28,0,0,0,73.22,109.89Z"></path>
      <path class="cls-4" d="M84.58,123.59A9.42,9.42,0,0,0,83,120.36h0s-2.8-3.3-6.22-2.2S72,122,72.63,123a12.91,12.91,0,0,0,1.29,1.29s.08,0,.12,0c1,.65,2.87,1,3.7,1.37a1.83,1.83,0,0,0,.65.22l.71.21c1.64.46,1.61.88,3.08.67a4.34,4.34,0,0,0,2.53-1.69,3.16,3.16,0,0,0,.11-.58h0v-.07A1.07,1.07,0,0,0,84.58,123.59Z"></path>
      <path class="cls-4" d="M62.47,112.35a7.11,7.11,0,0,0-1.58,2.27h0s-1.19,3.1.81,5,4.33,1.76,4.76,1a9.21,9.21,0,0,0,.39-1.35s0-.05,0-.08a23.66,23.66,0,0,0-.45-3,1.63,1.63,0,0,0-.09-.52c0-.14-.06-.3-.12-.56-.29-1.26,0-1.4-.68-2.31a3.31,3.31,0,0,0-2.07-1.07,2.11,2.11,0,0,0-.43.14h0l0,0A.8.8,0,0,0,62.47,112.35Z"></path>
      <path class="cls-6" d="M62.62,135.53a1.35,1.35,0,0,0,1.33-.35c.46-.59.36-1.22.15-1.31a1.62,1.62,0,0,0-.38-.07c-.24,0-.27.58-.28.59Z"></path>
      <path class="cls-7" d="M61.83,135s.74.67,1,.46.68-.39.68-.39l0-.2s-.66-.32-.81-.27l-.48.16A2.79,2.79,0,0,0,61.83,135Z"></path>
      <path class="cls-8" d="M61.78,134.92c0,.09.1.31.33.23a4.35,4.35,0,0,0,.45-.19s.22-.7.28-.82.12-.16-.22,0-.38,0-.61.25A.86.86,0,0,0,61.78,134.92Z"></path>
      <path class="cls-9" d="M62.56,135a5.91,5.91,0,0,0,.11-.59c0-.26,0-.33.24-.37s.71-.27.93-.19.22.08.22.38a1.07,1.07,0,0,1-.32.73.61.61,0,0,1-.64.28A1.63,1.63,0,0,1,62.56,135Z"></path>
      <path class="cls-6" d="M53.58,130.34a3,3,0,0,0,2.75-1.41c.72-1.52.21-2.85-.31-3a5.25,5.25,0,0,0-.85,0c-.56,0-.32,1.41-.34,1.44S53.58,130.34,53.58,130.34Z"></path>
      <path class="cls-7" d="M51.59,129.64s1.95,1.12,2.53.53,1.3-1.19,1.3-1.19l-.14-.44a6.1,6.1,0,0,0-1.92-.21c-.31.17-.84.52-1,.59A7.55,7.55,0,0,0,51.59,129.64Z"></path>
      <path class="cls-8" d="M51.43,129.41c.1.18.37.62.84.34a7.93,7.93,0,0,0,.89-.63s.15-1.64.21-1.94.2-.41-.49,0-.81.26-1.22.83A2,2,0,0,0,51.43,129.41Z"></path>
      <path class="cls-9" d="M53.16,129.12a9.35,9.35,0,0,0,0-1.35c-.07-.59-.13-.74.36-.92s1.42-.95,2-.87.5.06.65.72a2.43,2.43,0,0,1-.35,1.77,1.35,1.35,0,0,1-1.28.91A3.6,3.6,0,0,1,53.16,129.12Z"></path>
      <path class="cls-6" d="M45.14,136.92a2.94,2.94,0,0,0,3,.36c1.42-.83,1.73-2.18,1.37-2.56a5.86,5.86,0,0,0-.7-.44c-.47-.28-1,1-1.06,1S45.14,136.92,45.14,136.92Z"></path>
      <path class="cls-7" d="M43.92,135.26s1,2,1.76,1.81,1.7-.25,1.7-.25l.13-.43s-1.1-1.18-1.44-1.21-1,0-1.11-.07A7.13,7.13,0,0,0,43.92,135.26Z"></path>
      <path class="cls-8" d="M43.92,135c0,.2-.05.7.49.73a8.26,8.26,0,0,0,1.07,0s1-1.24,1.23-1.45.38-.23-.39-.27-.81-.23-1.45,0A2,2,0,0,0,43.92,135Z"></path>
      <path class="cls-9" d="M45.48,135.7a9.86,9.86,0,0,0,.7-1.11c.26-.52.29-.67.79-.55s1.67,0,2.06.37.38.33.14.94-.59.85-1.26,1.24a1.3,1.3,0,0,1-1.53,0A3.29,3.29,0,0,1,45.48,135.7Z"></path>
      <path class="cls-6" d="M41.51,131.47a2.26,2.26,0,0,0,.08-2.31c-.73-1-1.78-1.18-2-.88a4.73,4.73,0,0,0-.3.57c-.18.37.81.72.82.74S41.51,131.47,41.51,131.47Z"></path>
      <path class="cls-7" d="M40.33,132.52s1.44-.87,1.26-1.47-.3-1.28-.3-1.28L41,129.7s-.83.91-.83,1.18,0,.74,0,.85A5.77,5.77,0,0,0,40.33,132.52Z"></path>
      <path class="cls-8" d="M40.12,132.53c.15,0,.54,0,.53-.42a5.39,5.39,0,0,0-.09-.81s-1-.7-1.19-.85-.2-.28-.18.32-.12.63.1,1.1A1.5,1.5,0,0,0,40.12,132.53Z"></path>
      <path class="cls-9" d="M40.56,131.3a7,7,0,0,0-.9-.47c-.41-.16-.53-.18-.47-.56s-.1-1.28.15-1.6.22-.32.71-.17a1.85,1.85,0,0,1,1,.88,1,1,0,0,1,.12,1.17A2.69,2.69,0,0,1,40.56,131.3Z"></path>
      <path class="cls-6" d="M34.34,133.17a1,1,0,0,0,.33-.94c-.17-.52-.59-.72-.74-.63a1.92,1.92,0,0,0-.19.2c-.12.13.24.4.24.41Z"></path>
      <path class="cls-7" d="M33.72,133.45s.7-.17.71-.44,0-.57,0-.57l-.13-.07s-.46.27-.49.38-.08.31-.1.36A2.18,2.18,0,0,0,33.72,133.45Z"></path>
      <path class="cls-8" d="M33.63,133.44a.19.19,0,0,0,.27-.11A2.34,2.34,0,0,0,34,133l-.39-.5c0-.09,0-.14-.11.11s-.13.24-.1.46A.66.66,0,0,0,33.63,133.44Z"></path>
      <path class="cls-9" d="M34,133a3.27,3.27,0,0,0-.32-.31c-.15-.12-.19-.14-.12-.29s.12-.54.27-.65.13-.1.31,0a.79.79,0,0,1,.32.49.44.44,0,0,1-.1.5A1.24,1.24,0,0,1,34,133Z"></path>
      <path class="cls-6" d="M32.14,137.13s1.39-2.24.11-4-3.09-2-3.54-1.5a9.35,9.35,0,0,0-.51,1c-.31.66,1.41,1.24,1.43,1.28S32.14,137.13,32.14,137.13Z"></path>
      <path class="cls-7" d="M30.11,139s2.48-1.52,2.17-2.55a22,22,0,0,1-.54-2.21l-.58-.12s-1.43,1.59-1.43,2.05.06,1.28.05,1.48A9.53,9.53,0,0,0,30.11,139Z"></path>
      <path class="cls-8" d="M29.75,139c.26,0,.93,0,.9-.74a9.61,9.61,0,0,0-.16-1.41s-1.76-1.2-2.06-1.45-.35-.48-.31.55-.21,1.09.18,1.9A2.63,2.63,0,0,0,29.75,139Z"></path>
      <path class="cls-9" d="M30.49,136.84a12.05,12.05,0,0,0-1.56-.79c-.71-.28-.92-.31-.82-1s-.19-2.21.25-2.77.37-.54,1.21-.3a3.15,3.15,0,0,1,1.8,1.51,1.76,1.76,0,0,1,.23,2A4.55,4.55,0,0,1,30.49,136.84Z"></path>
      <path class="cls-10" d="M48.27,89.61c-1.76,2-4.83,4.24-3.58,7.33.15.37.77.21.61-.17-1.15-2.84,1.82-4.86,3.42-6.71.27-.31-.18-.76-.45-.45Z"></path>
      <path class="cls-10" d="M49.28,91.36c-1.89,1.14-4.16,1.39-6,2.53s-2.48,2.89-3,4.84a.32.32,0,0,0,.61.16c.73-2.58,1.81-4.25,4.39-5.22a25.21,25.21,0,0,0,4.38-1.76.32.32,0,0,0-.32-.55Z"></path>
      <path class="cls-10" d="M48.75,92.47c-.85,1.91-1.72,3.8-2.55,5.72a7.05,7.05,0,0,0-.78,3.94c0,.4.66.23.6-.16-.26-1.94.82-3.68,1.58-5.37l1.7-3.81c.16-.36-.38-.69-.55-.32Z"></path>
      <path class="cls-10" d="M48.42,93.82a5.7,5.7,0,0,1-1.84,3.64,19.88,19.88,0,0,0-2.37,1.92,7.93,7.93,0,0,0-1.83,4.34c0,.4.59.4.64,0,.33-2.83,1.93-4.11,4-5.76a6.16,6.16,0,0,0,2-4c.09-.4-.52-.57-.61-.17Z"></path>
      <path class="cls-10" d="M46.66,97.47c-2.21,1.29-4.44,2.54-6.63,3.85a6.64,6.64,0,0,0-3,3.32l.62.08,0-.53c0-.41-.6-.41-.63,0l0,.53c0,.39.5.39.62.09.85-2.1,2.73-2.94,4.56-4L47,98a.32.32,0,0,0-.32-.55Z"></path>
      <path class="cls-10" d="M49,93.05a3.7,3.7,0,0,1-.71,3.32c-.41.52-1,.86-1.37,1.4a5.41,5.41,0,0,0-.56,3.63l.4-.31-.53-.11c-.4-.08-.57.53-.17.61l.53.11a.32.32,0,0,0,.4-.3,5.35,5.35,0,0,1,.34-3.12c.41-.69,1.18-1.08,1.65-1.73a4.42,4.42,0,0,0,.63-3.67c-.09-.4-.7-.23-.61.17Z"></path>
      <path class="cls-10" d="M49.26,96.85a14.1,14.1,0,0,1-.69,5.16,10.65,10.65,0,0,0-1.06,3.65.32.32,0,0,0,.64,0c0-1.66,1-3,1.39-4.56a17.28,17.28,0,0,0,.35-4.25.32.32,0,0,0-.63,0Z"></path>
      <path class="cls-10" d="M42.88,111.51c1.16-3.08,3.22-4.75,5.72-6.72a7.94,7.94,0,0,0,3.17-4.93c.08-.4-.53-.57-.61-.17-.61,3.19-2.94,4.42-5.23,6.35a12.4,12.4,0,0,0-3.66,5.3c-.14.38.47.54.61.17Z"></path>
      <path class="cls-10" d="M48,113.17c1.36-1.16,1.52-2.76,1.79-4.44a33.19,33.19,0,0,1,2-7.18c.15-.37-.46-.54-.61-.16A32.62,32.62,0,0,0,49.47,107c-.4,1.93-.28,4.33-1.91,5.71-.31.27.14.71.45.45Z"></path>
      <path class="cls-10" d="M46.72,111.17a33.65,33.65,0,0,1,3.27-4c.28-.3-.16-.74-.45-.45a34.72,34.72,0,0,0-3.36,4.1c-.24.33.31.65.54.32Z"></path>
      <path class="cls-10" d="M46.41,118c.66-1.85,1.94-3.07,2.77-4.77s.89-3.56,1.66-5.25c.17-.37-.38-.69-.54-.32-1,2.08-1.11,4.37-2.41,6.28a16.83,16.83,0,0,0-2.09,3.9c-.13.38.48.55.61.16Z"></path>
      <path class="cls-10" d="M49,90.48A3.74,3.74,0,0,0,53.26,94c.4-.06.23-.67-.17-.61a3.1,3.1,0,0,1-3.49-2.91c0-.41-.65-.41-.63,0Z"></path>
      <path class="cls-10" d="M49.62,93.08a1.88,1.88,0,0,0,1.21,1,13.07,13.07,0,0,0,1.61.37c1.11.21,2.21.52,3.31.82a19.18,19.18,0,0,1,6.3,2.66L62,98a21.17,21.17,0,0,0-6.39-2.16c-1.11-.22-2.24-.37-3.35-.68a7.18,7.18,0,0,1-1.65-.61,1.86,1.86,0,0,1-1.07-1.41Z"></path>
      <path class="cls-10" d="M50.56,94A10.69,10.69,0,0,1,53,96.6c.67.93,1.27,1.89,1.91,2.81a8.91,8.91,0,0,0,2.33,2.37,4.66,4.66,0,0,0,3.17.87,4.82,4.82,0,0,1-3.28-.69,8.89,8.89,0,0,1-2.54-2.31c-.7-.9-1.34-1.83-2-2.71a10,10,0,0,0-2.32-2.28Z"></path>
      <path class="cls-10" d="M50.65,97.5a14.71,14.71,0,0,0,1,4.12,18.8,18.8,0,0,1,1.05,5.5c0,.41.65.41.64,0a18.56,18.56,0,0,0-.64-4.32c-.5-1.79-1.33-3.42-1.43-5.3,0-.41-.65-.41-.63,0Z"></path>
      <path class="cls-10" d="M49.89,98.66c1.81,2.87,5.93,3.26,7.36,6.38.17.37.71,0,.55-.32-1.46-3.18-5.56-3.51-7.36-6.38-.22-.34-.77,0-.55.32Z"></path>
      <path class="cls-10" d="M50.9,103.85c.8,1.58,2.5,1.72,4.11,2,2.62.42,6.52.08,8.61,1.8.32.25.77-.19.45-.45a6.46,6.46,0,0,0-3.66-1.31c-2.11-.23-7.79,0-9-2.33-.18-.37-.73-.05-.54.31Z"></path>
      <path class="cls-10" d="M56.77,106.15A15.11,15.11,0,0,1,59.62,112a.32.32,0,0,0,.61-.17,15.85,15.85,0,0,0-3-6.08c-.25-.32-.7.13-.45.44Z"></path>
      <path class="cls-10" d="M50.33,104.11a19.92,19.92,0,0,1,3,5.22c.13.38.75.21.61-.17a20.29,20.29,0,0,0-3.06-5.37c-.24-.33-.78,0-.54.32Z"></path>
      <path class="cls-10" d="M50.47,103.86a139,139,0,0,1-.76,16.82c-.05.4.59.4.63,0a137,137,0,0,0,.76-16.82.32.32,0,0,0-.63,0Z"></path>
      <path class="cls-10" d="M48.82,89l.07,4.25c0,.4.64.4.63,0L49.45,89c0-.4-.64-.41-.63,0Z"></path>
      <path class="cls-10" d="M49.12,87.35c-1.63,2.59-.14,5.67-.83,8.49a.32.32,0,0,0,.61.16c.66-2.7-.78-5.88.76-8.33.22-.34-.33-.66-.54-.32Z"></path>
      <path class="cls-10" d="M49.51,93.87a11.61,11.61,0,0,1,.71,4.45c0,.41.62.4.63,0a11.91,11.91,0,0,0-.73-4.62c-.14-.38-.75-.22-.61.17Z"></path>
      <path class="cls-10" d="M49.11,94.56v4.08a.32.32,0,0,0,.63,0V94.56a.32.32,0,0,0-.63,0Z"></path>
      <path class="cls-10" d="M50.13,95.38l-.17,3a5.35,5.35,0,0,1-.57,2.94c-.24.34.31.65.54.32a4.1,4.1,0,0,0,.62-2.33l.21-3.94c0-.41-.61-.41-.63,0Z"></path>
      <path class="cls-10" d="M49.76,98.23a14.24,14.24,0,0,1-1.55,4.83c-.19.36.35.68.54.32a14.63,14.63,0,0,0,1.62-5c.05-.39-.56-.57-.61-.16Z"></path>
      <path class="cls-10" d="M49.41,95.3,50,99.2c.06.4.67.23.61-.17L50,95.13c-.06-.4-.67-.23-.61.17Z"></path>
      <path class="cls-10" d="M49.4,93.75A27.75,27.75,0,0,0,50,98.19a.32.32,0,0,0,.61,0l.11-.61c.08-.39-.53-.56-.61-.16L50,98h.61A26.75,26.75,0,0,1,50,93.75c0-.41-.66-.41-.64,0Z"></path>
      <path class="cls-10" d="M50.06,94.73a9.52,9.52,0,0,0,.77,2.77.31.31,0,0,0,.49.07,1.91,1.91,0,0,0,.5-1.72c0-.29-.44-.27-.58-.07l-.37.55.58.07-.64-2.18c-.08-.28-.54-.31-.6,0a5.18,5.18,0,0,0,0,2c0,.31.43.27.58.08a2.44,2.44,0,0,0,.51-1.67l-.62.09.24,1.24c.06.37.6.25.62-.08a4.29,4.29,0,0,0-1-3c-.26-.31-.7.14-.45.45a3.55,3.55,0,0,1,.8,2.56l.63-.09-.24-1.24c-.06-.35-.63-.27-.62.08a1.89,1.89,0,0,1-.43,1.35l.58.08a4.46,4.46,0,0,1,0-1.63h-.6l.63,2.18a.32.32,0,0,0,.58.08l.37-.55L51.21,96a1.13,1.13,0,0,1-.33,1.1l.49.06a8.67,8.67,0,0,1-.68-2.45c0-.4-.68-.41-.63,0Z"></path>
      <path class="cls-10" d="M50.38,99.8a17.9,17.9,0,0,1-.25,4.9l.62.08,0-.43c0-.4-.65-.41-.63,0l0,.43c0,.34.55.45.62.08A18.68,18.68,0,0,0,51,99.8c0-.41-.67-.41-.64,0Z"></path>
      <path class="cls-10" d="M49.9,99.13a89.31,89.31,0,0,1-.22,10.22c0,.37.51.41.62.09l1-3.06c.13-.39-.48-.55-.61-.17l-1,3.06.62.08a89.31,89.31,0,0,0,.22-10.22c0-.4-.65-.4-.63,0Z"></path>
      <path class="cls-10" d="M49.82,101.1a3.3,3.3,0,0,1-.24,1.67c-.15.37.39.69.55.32a3.79,3.79,0,0,0,.32-2c0-.4-.67-.41-.63,0Z"></path>
      <path class="cls-10" d="M50.91,100.43a18.65,18.65,0,0,0,.62,5,.32.32,0,0,0,.61-.17,18.2,18.2,0,0,1-.6-4.82.32.32,0,0,0-.63,0Z"></path>
      <path class="cls-10" d="M50.8,104.44a9.31,9.31,0,0,0-.44,3.1.32.32,0,0,0,.62.08A13.4,13.4,0,0,0,51,98.16c-.13-.38-.74-.21-.61.17a12.9,12.9,0,0,1,0,9.12l.62.09a8.52,8.52,0,0,1,.41-2.93c.12-.39-.49-.55-.61-.17Z"></path>
      <path class="cls-10" d="M50.14,97.91l-.22,1.27a.32.32,0,0,0,.61.16,3.91,3.91,0,0,0,.19-1.52c0-.4-.66-.4-.63,0a3.49,3.49,0,0,1-.17,1.36l.61.16.22-1.26c.07-.4-.54-.57-.61-.17Z"></path>
      <path class="cls-10" d="M49,92a12.61,12.61,0,0,0,1.13,2.48.32.32,0,0,0,.59-.16,4.91,4.91,0,0,0-.25-2,.32.32,0,0,0-.46-.19,3.3,3.3,0,0,0-1.87,3.12.32.32,0,0,0,.48.27,1.76,1.76,0,0,0,.92-1.13.32.32,0,0,0-.46-.36,2.89,2.89,0,0,0-.91.83l.58.25a16.11,16.11,0,0,0,.2-3.47c0-.4-.65-.4-.63,0a15.86,15.86,0,0,1-.18,3.3.32.32,0,0,0,.58.24,2.21,2.21,0,0,1,.68-.61l-.47-.35a1.15,1.15,0,0,1-.63.75l.47.28a2.7,2.7,0,0,1,1.55-2.57l-.46-.19a4.14,4.14,0,0,1,.22,1.88l.59-.16a11.66,11.66,0,0,1-1.06-2.33c-.13-.38-.74-.22-.61.17Z"></path>
      <polygon class="cls-11" points="0 78.16 48.85 98.58 93.24 79.75 48.85 64.09 0 78.16"></polygon>
      <path class="cls-12" d="M50.27,47.07a17.35,17.35,0,0,1-1.61-1.73c-.34-.4-4-2.33-4.74-3.21s-1.71-1.78-.55-3.11c0,0,0-1.86-.73-2.45s-1.17-1.73-.85-2.2.48-1.07.78-1.09.3-.68.46-.76,0-1.58.61-1.06a5.59,5.59,0,0,1,1,2.08s1.66-.84,1.46,2.2c0,0-.13.59.84.48s2.79.33,1.8,3.36c0,0,1.13,3.87.39,3.69s1.85,2.41,1.51,3.11S50.67,47.18,50.27,47.07Z"></path>
      <path class="cls-12" d="M50,18.43c-.15-.42-2.9-5.95-5.12-6.59,0,0-1.17-.08-.47-1.08S40.31,8.18,40.19,8,39.31,7,40,6.3s-4.11-2.14-4.11-2.14-.6-.54-.2-1.05S31.05,1.3,31.05,1.3s-.8-1,1.56-.44,4.56,1,4.56,1-.49-2.2.8-1.8c0,0,1.91,3,2.92,3.5,0,0,.89-1.66,1.92-.86L45,6.36a1.35,1.35,0,0,1,2.34.21,8.92,8.92,0,0,1,1,4.27,2.43,2.43,0,0,0,.45-1.3s.08-.43,1.14-.13c0,0-.4-6.09,2-3.67,0,0,2.06-4.39,3-3.92,0,0,.68.05-.08,1.22a28.94,28.94,0,0,0-3.49,14.11s.29.39-.27,1.34a3.34,3.34,0,0,0,0,1.05c.11.37.18-.19,1.11-.22A1.46,1.46,0,0,0,52,18.11c-.3-.8-.65-3.27,1.62-3,0,0,.24-3.42.8-3.56s.8,3.55.8,3.55,2.86-.68.35,2.89c0,0-.33.07.1.76s-.59,2.5-2.76,3.77l-.85.61s-.72,2.27-1,3c-.86-.33-1.85-2.41-3.06-2.32s-2.52,1-2.64.16a1.69,1.69,0,0,1,.64-1.8c.46-.21-1.4-.4-2.62-.54s-1.56-1.07-.78-1.44-4.49-1.39-5.31-1.35-1.5-.62.58-.57,2.14.54,2.08.05.34-2.36,3.48.27c0,0,.71.68.75-.4s2-.92,3,.62,1.37,1.63,1.5,1-.31-1.2-.09-1.4.76.45,1.2,1.08.7.35.47-.36Z"></path>
      <path class="cls-12" d="M50.9,34.18c-.3.62-3.48-2.11-4.27-2s-1.57-.1-1.57-.89a30,30,0,0,1-4.48.12,1.31,1.31,0,0,1,.16-2.4s-4-1.36-5-3.3,1.66.35,2.79.43,1.3.18,1.66.16.16-1.62,1.4-1.27a3.7,3.7,0,0,0,1,.84,26.31,26.31,0,0,1,2.68,1.23,2.18,2.18,0,0,0,1,.38c.14,0-.24-2.46,1.7-1s2.78,2.45,2.85,3.43S51.62,32.67,50.9,34.18Z"></path>
      <path class="cls-12" d="M52.86,27.49c.31-.52.23-2.15,2.41-3.59s1.67-4.6,4.1-2.39c0,0,2.24-1.62,2.35-2.56s1.25-.37.9.74.91,2-2,5c0,0-.29.25.27.72s0,1.38-1.57,1.72-7.71,2.27-9.06,6.21Z"></path>
      <path class="cls-12" d="M46.16,53.46a7.27,7.27,0,0,0-6.32-2.07c-3.93.63-2.06,2.07-2.06,2.07s-5.66,2.35-2.28,9c0,0,.86.95,1.13-.36s-.05-1.58.5-2.75,1.35-2.94,1.76-2.76.9,1.9,1.72.23S43.59,52.74,46.16,53.46Z"></path>
      <path class="cls-12" d="M45,52.7c0,2.41,1.87-5.24,4.1-3.86,0,0-.37-3.13-3.14-2.82a2.28,2.28,0,0,0-2,2C43.75,49,45,50.25,45,52.7Z"></path>
      <path class="cls-12" d="M45.18,62.71s-10.8-5.06-10.32,7.94c0,0,.87,1.63,2.23-3.43,0,0-.42-.24,1.21-.36S42,61.5,45.18,62.71Z"></path>
      <path class="cls-13" d="M50.68,13.94c.21,5.15.56,10.29.63,15.47l-.22,15.47c-.15,10.27.71,20.55.52,30.94l-2.16-.07c.46-10.23-.14-20.56.28-30.91l.9-15.45C50.78,24.26,50.66,19.09,50.68,13.94Z"></path>
      <path class="cls-12" d="M55,64.34a.63.63,0,0,0,.21-.25c.34-1,1.46-5.19,2.55-6.11s1.36-2,1.81-.18c.07.26-.09.48-.21.72l1.11-.72c1.9-1.26,4.72-3.31,4.27-1.7s-1,1.47,0,1.47a32.48,32.48,0,0,1,4.28-.26c1.21.17,2.51.71-.58,1.07-2.52.29-1.46.49-1,.56a.69.69,0,0,1,.38.17c.32.27.72.85-1.49.78-2.9-.08-2.1,0-2,.23s.93,2-1.08,1.66a6.92,6.92,0,0,0-3.35.09c-.18,0,2.82,1.2.47,1.52s-3.38,1.16-4.68,1.12C54.94,64.48,54.9,64.39,55,64.34Z"></path>
      <path class="cls-12" d="M53.19,66.28s8.33-1.56,2.94,6.49a16.65,16.65,0,0,1-.27-1.9c0-.76-1,.62-.33-2,0,0-1.33.06-.65-2A3.77,3.77,0,0,0,53.19,66.28Z"></path>
      <path class="cls-12" d="M53.85,66.28a16.26,16.26,0,0,0,1.47-4.54A38.07,38.07,0,0,0,55,56.42c-.09-.58-1.12,1.12-1.12,3.06s.76,2.17,0,2-1.21-.51-1.57.55S53.85,66.28,53.85,66.28Z"></path>
      <path class="cls-13" d="M55.57,63.47c-2.47,2.62-5.06,5.46-5.79,9.1-.1.51.68.73.78.22.7-3.52,3.2-6.23,5.58-8.75.35-.38-.22-1-.57-.57Z"></path>
      <path class="cls-14" d="M42.28,62.41c4.46-.36,5.66,3.08,7.73,3.11"></path>
      <path class="cls-13" d="M44.94,53.08a13.77,13.77,0,0,1,3,4.47c.58,1.37,1,2.8,1.7,4.12.33.62,1.26.07.94-.55-.71-1.35-1.15-2.83-1.76-4.23a14.27,14.27,0,0,0-3.15-4.57c-.5-.49-1.27.28-.76.76Z"></path>
      <path class="cls-13" d="M67.6,31.92c-3.68,3.5-7.42,7-10.36,11.13a32.89,32.89,0,0,0-3.63,6.6,56.26,56.26,0,0,0-2.31,7.19l-1.23-.34a57,57,0,0,1,2.66-7.23,33.56,33.56,0,0,1,4-6.6C59.89,38.61,63.77,35.27,67.6,31.92Z"></path>
      <path class="cls-12" d="M62.58,36.59c-.32.28,5.61-7.51,6.78-9s3.12-2.49,3.93,0c0,0-.77.86,2-.18s5.74-3.7,6.32-1.08c0,0,2-1.45,1.9.45s1.13,1.31,1.31,1.31,2.48.72,0,1.76a4,4,0,0,1-2.21-.05c-.73-.4-.46.86-.09,1s1.53,2.44-1,1.54A3.84,3.84,0,0,0,78.17,31c-2.3.17-3.27,0-2.29.89s2.52,3-.19,2.31S68.09,31.76,62.58,36.59Z"></path>
      <path class="cls-12" d="M67.56,40.46s2.8-1.58,6.5.63c0,0,2.53,1.4.32,2.13,0,0,5.28,4.6,2.48,4.51,0,0,1.08,3.57.18,4.07a16.59,16.59,0,0,0-1.76-3.48,1.56,1.56,0,0,1-1.81-1.22c-.49-1.54-.72-2.26-1-2.21s0,.67-.27,1-.58.84-1.76-.65S68,42.31,67.56,41.59,67.56,40.46,67.56,40.46Z"></path>
      <path class="cls-12" d="M54.64,47.37s4.29-3.79,6.64-4,3.84-.77,2.62,1.58c0,0-1.09.63,1.35,1.4a6.12,6.12,0,0,0,3.93.11c.35,0,3,.25,1.81,1.83,0,0-.86.27.72.81a5.47,5.47,0,0,1,4.11,4.47s1.36,1.18.81,1.54-5.1-3.3-6-3.34c0,0,.82,3.11-2,2.75a2.53,2.53,0,0,1-1.58-1.71c-.5-1.45-2.94-2.58-2.94-2.58s-.68-.32-.45.45a2.06,2.06,0,0,1-.87,1.9c-.35.23-1.21,1-1.79-.32S56.36,47.1,54.64,47.37Z"></path>
      <path class="cls-14" d="M58.17,41.45c3.07-.79,6.13-1.81,10-.6"></path>
      <path class="cls-12" d="M30.29,37.44A7.23,7.23,0,0,1,26.43,36c-1.88-1.43-4.28-3.37-4.54-3.52s-1.65.88-.67,3.27c0,0,.75,1-.64.55s-4.73-2.39-5.59-1S15,37,15,37a9.13,9.13,0,0,0-3.63,1.76c-1.43,1.29,1,1.21,1.16,1.21s3.07-.77,3.15-.25-.56,2,1.23,1.83,2.74-2.08,3.15-2,1,.14.72.95-.3,2.27,1.72,1.8,3.86-2.64,4-2.31-.23.55-.57.77a16.39,16.39,0,0,0-2.66,3.55c-.37,1-3.37,2.5-3.22,6.6,0,0,0,1.29.82,1,0,0-.52,3.15,1.54,4.14,0,0,.52,4.55,1.61,4.66,0,0-.3-5.32.45-6.86,0,0,.19-4.95.53-7s.34-6.76,5.32-9Z"></path>
      <path class="cls-12" d="M43,42a6.28,6.28,0,0,0-6.22,2.12s-.67.88.34,1.14c0,0-2.93,2.31-3,3.67s0,.95.3,1.24-.11,3.34.9,4.11,1.17-3.7,1.17-3.7,1.14,1.74,2.05-4c0,0,2.26,1.24,2.74-1.22s1.8-2.82,2.63-2.71S43,42,43,42Z"></path>
      <path class="cls-12" d="M37.9,39.46c.19,0-5.88.44-3.8,5.24,0,0,1.33,3.92-1.22,3a11.35,11.35,0,0,0-.45,2.89c.07,1-.12,1.95-1.05,1.54,0,0,.22,2-.38,2s-1.54-.22-2.4-3.45c0,0-2.21.41-1.42-2.05S28.79,39.68,37.9,39.46Z"></path>
      <path class="cls-13" d="M28.79,38.09A26,26,0,0,1,50.12,48.51c.25.34.83,0,.57-.34a26.71,26.71,0,0,0-21.9-10.75.34.34,0,0,0,0,.67Z"></path>
      <path class="cls-6" d="M45.88,86.53a1.35,1.35,0,0,0-1.29-.48c-.72.23-1,.79-.88,1a2.1,2.1,0,0,0,.26.27c.18.18.56-.32.58-.32Z"></path>
      <path class="cls-7" d="M46.26,87.4s-.23-1-.6-1a7.74,7.74,0,0,1-.78-.07l-.11.18s.37.64.52.69l.49.15C45.84,87.38,46.26,87.4,46.26,87.4Z"></path>
      <path class="cls-8" d="M46.23,87.52c0-.09.09-.31-.14-.38a3.5,3.5,0,0,0-.48-.1s-.59.45-.71.51-.19.07.15.17.34.19.65.15A.94.94,0,0,0,46.23,87.52Z"></path>
      <path class="cls-9" d="M45.61,87a4.44,4.44,0,0,0-.43.42c-.17.21-.21.27-.41.16s-.75-.18-.88-.38-.14-.19,0-.43a1.09,1.09,0,0,1,.69-.42.59.59,0,0,1,.69.14A1.66,1.66,0,0,1,45.61,87Z"></path>
      <path class="cls-6" d="M42.93,69.89a2,2,0,0,0-2-.29c-1,.54-1.19,1.45-1,1.7a3,3,0,0,0,.46.31c.31.2.71-.63.73-.64Z"></path>
      <path class="cls-7" d="M43.73,71s-.62-1.34-1.15-1.24a11.51,11.51,0,0,1-1.15.14l-.09.29s.72.81.94.84.65,0,.75.06A5,5,0,0,0,43.73,71Z"></path>
      <path class="cls-8" d="M43.73,71.21c0-.14,0-.48-.32-.5a5,5,0,0,0-.72,0s-.7.82-.85,1-.26.15.26.19.54.17,1,0A1.35,1.35,0,0,0,43.73,71.21Z"></path>
      <path class="cls-9" d="M42.69,70.71a6.7,6.7,0,0,0-.49.74c-.18.34-.2.44-.53.35s-1.13,0-1.39-.28-.25-.22-.08-.63a1.63,1.63,0,0,1,.87-.82.9.9,0,0,1,1,0A2.34,2.34,0,0,1,42.69,70.71Z"></path>
      <path class="cls-6" d="M39,76s-4.14-2.07-7,.45-3,5.77-2.05,6.47a14.23,14.23,0,0,0,1.81.73c1.2.44,1.94-2.68,2-2.72S39,76,39,76Z"></path>
      <path class="cls-7" d="M42.49,79.27s-3.07-4.12-4.82-3.4-3.8,1.31-3.8,1.31l-.12,1s3,2.25,3.83,2.18,2.24-.33,2.59-.33A19,19,0,0,0,42.49,79.27Z"></path>
      <path class="cls-8" d="M42.61,79.89c0-.45-.21-1.63-1.45-1.47a17.52,17.52,0,0,0-2.44.52s-1.81,3.29-2.21,3.86-.78.69,1,.45,1.95.19,3.31-.63A4.63,4.63,0,0,0,42.61,79.89Z"></path>
      <path class="cls-9" d="M38.72,78.94a21.09,21.09,0,0,0-1.13,2.86c-.37,1.31-.39,1.66-1.58,1.6s-3.84.71-4.91,0-1-.58-.72-2.09,1-2.22,2.35-3.39a3.08,3.08,0,0,1,3.51-.74A8,8,0,0,1,38.72,78.94Z"></path>
      <path class="cls-6" d="M53.28,76.87s-3.48-2.05-6.14,0-3,4.82-2.17,5.49a13.37,13.37,0,0,0,1.54.74c1,.45,1.84-2.21,1.9-2.24S53.28,76.87,53.28,76.87Z"></path>
      <path class="cls-7" d="M56.15,79.92s-2.42-3.76-4-3.24-3.38.9-3.38.9l-.16.9s2.49,2.14,3.19,2.12,2-.15,2.27-.13A15.53,15.53,0,0,0,56.15,79.92Z"></path>
      <path class="cls-8" d="M56.22,80.47c0-.4-.09-1.43-1.17-1.37a15.68,15.68,0,0,0-2.15.31s-1.77,2.75-2.15,3.21-.72.55.86.46,1.68.28,2.91-.35A4.07,4.07,0,0,0,56.22,80.47Z"></path>
      <path class="cls-9" d="M52.9,79.41a19,19,0,0,0-1.16,2.41c-.4,1.11-.44,1.42-1.46,1.3s-3.38.37-4.27-.28-.84-.56-.49-1.85,1-1.87,2.24-2.81a2.69,2.69,0,0,1,3.09-.43A6.92,6.92,0,0,1,52.9,79.41Z"></path>
      <path class="cls-6" d="M62.48,73.2s-3.43-2.65-6.54-.86-3.82,4.74-3,5.56a12.46,12.46,0,0,0,1.53,1c1,.62,2.26-2.1,2.33-2.12S62.48,73.2,62.48,73.2Z"></path>
      <path class="cls-7" d="M65.13,76.83s-2.07-4.33-3.81-4-3.72.51-3.72.51l-.29.93S59.68,76.9,60.42,77s2.11.11,2.44.17A16.68,16.68,0,0,0,65.13,76.83Z"></path>
      <path class="cls-8" d="M65.13,77.43c0-.43.1-1.54-1.06-1.61a16.54,16.54,0,0,0-2.34,0S59.48,78.54,59,79s-.84.49.86.6,1.75.52,3.14,0A4.39,4.39,0,0,0,65.13,77.43Z"></path>
      <path class="cls-9" d="M61.73,75.85a20.29,20.29,0,0,0-1.55,2.42c-.58,1.13-.66,1.45-1.74,1.18s-3.65,0-4.5-.86-.83-.71-.28-2,1.31-1.86,2.77-2.69a2.87,2.87,0,0,1,3.35,0A7.42,7.42,0,0,1,61.73,75.85Z"></path>
      <path class="cls-6" d="M65.14,84.27a2.07,2.07,0,0,0,1.9-.93c.51-1,.18-2-.18-2-.1,0-.4,0-.59,0-.38,0-.23,1-.24,1S65.14,84.27,65.14,84.27Z"></path>
      <path class="cls-7" d="M63.78,83.78s1.33.78,1.73.38.9-.8.9-.8l-.09-.3A4.25,4.25,0,0,0,65,82.89l-.68.4A4.89,4.89,0,0,0,63.78,83.78Z"></path>
      <path class="cls-8" d="M63.67,83.62c.07.12.25.42.57.24a5.1,5.1,0,0,0,.62-.43s.12-1.12.17-1.32.14-.29-.34,0-.56.17-.84.56A1.37,1.37,0,0,0,63.67,83.62Z"></path>
      <path class="cls-9" d="M64.86,83.43a7.08,7.08,0,0,0,0-.92c0-.41-.09-.51.25-.63s1-.64,1.36-.57.35,0,.44.49A1.69,1.69,0,0,1,66.64,83a.94.94,0,0,1-.89.61A2.48,2.48,0,0,1,64.86,83.43Z"></path>
      <path class="cls-6" d="M32.51,85A2.67,2.67,0,0,0,35,84c.74-1.27.39-2.47-.05-2.6a5.2,5.2,0,0,0-.75,0c-.49,0-.38,1.21-.4,1.23S32.51,85,32.51,85Z"></path>
      <path class="cls-7" d="M30.83,84.26s1.62,1.12,2.17.64S34.22,84,34.22,84l-.09-.39a5.44,5.44,0,0,0-1.66-.33c-.28.13-.77.4-.9.44A8.42,8.42,0,0,0,30.83,84.26Z"></path>
      <path class="cls-8" d="M30.71,84c.07.17.27.57.7.36a7.08,7.08,0,0,0,.83-.49s.25-1.42.33-1.67.2-.35-.43,0-.73.17-1.12.64A1.74,1.74,0,0,0,30.71,84Z"></path>
      <path class="cls-9" d="M32.24,83.91a9,9,0,0,0,.06-1.18c0-.52-.06-.65.37-.77s1.32-.73,1.79-.61.43.08.51.67a2.06,2.06,0,0,1-.44,1.52,1.18,1.18,0,0,1-1.18.7A2.94,2.94,0,0,1,32.24,83.91Z"></path>
      <path class="cls-6" d="M44,78.46a1.51,1.51,0,0,0,1.54.27c.76-.39,1-1.09.78-1.29a3.28,3.28,0,0,0-.35-.25c-.24-.16-.56.48-.58.48Z"></path>
      <path class="cls-7" d="M43.39,77.57s.45,1.05.87,1a8.26,8.26,0,0,1,.89-.09l.08-.22s-.54-.64-.72-.67-.5,0-.57-.06A3.71,3.71,0,0,0,43.39,77.57Z"></path>
      <path class="cls-8" d="M43.4,77.43c0,.1,0,.36.23.39a4.5,4.5,0,0,0,.56,0s.56-.62.68-.72.2-.11-.2-.15-.41-.14-.75,0A1,1,0,0,0,43.4,77.43Z"></path>
      <path class="cls-9" d="M44.19,77.84a4.13,4.13,0,0,0,.39-.56c.15-.26.18-.34.43-.27s.87,0,1.06.26.19.17,0,.49-.33.42-.69.61a.68.68,0,0,1-.79,0A1.77,1.77,0,0,1,44.19,77.84Z"></path>
      <path class="cls-6" d="M57.93,84.36s3.9.94,5.85-1.74,1.45-5.45.48-5.85a11.84,11.84,0,0,0-1.67-.26c-1.09-.14-1.12,2.63-1.17,2.68S57.93,84.36,57.93,84.36Z"></path>
      <path class="cls-7" d="M54.33,82.28s3.38,2.88,4.72,1.93S62,82.38,62,82.38l-.1-.9s-3-1.31-3.64-1.1-1.82.71-2.12.78A15,15,0,0,0,54.33,82.28Z"></path>
      <path class="cls-8" d="M54.1,81.78c.13.37.49,1.33,1.51,1a16,16,0,0,0,2-.91s.9-3.12,1.13-3.68.52-.73-.95-.18-1.68.21-2.67,1.17A4,4,0,0,0,54.1,81.78Z"></path>
      <path class="cls-9" d="M57.56,81.83A19,19,0,0,0,58,79.2c.06-1.17,0-1.48,1-1.65s3.11-1.33,4.13-1,1,.29,1,1.62a4.79,4.79,0,0,1-1.33,3.32A2.65,2.65,0,0,1,60,82.81,6.88,6.88,0,0,1,57.56,81.83Z"></path>
      <path class="cls-6" d="M40,82.11s2.33,1.31,4.08-.07S46,78.8,45.43,78.37a7.27,7.27,0,0,0-1-.47c-.68-.29-1.2,1.48-1.24,1.51S40,82.11,40,82.11Z"></path>
      <path class="cls-7" d="M38,80.12s1.66,2.46,2.69,2.1S43,81.57,43,81.57l.1-.6s-1.69-1.38-2.15-1.37-1.3.13-1.51.12A10.06,10.06,0,0,0,38,80.12Z"></path>
      <path class="cls-8" d="M38,79.75c0,.27.07,1,.79.89a9.29,9.29,0,0,0,1.43-.23s1.14-1.85,1.38-2.16.47-.38-.57-.29-1.12-.17-1.93.27A2.63,2.63,0,0,0,38,79.75Z"></path>
      <path class="cls-9" d="M40.21,80.41a11.7,11.7,0,0,0,.73-1.62c.26-.74.28-1,1-.88s2.24-.29,2.84.13.57.36.35,1.22a3.16,3.16,0,0,1-1.45,1.9,1.77,1.77,0,0,1-2,.32A4.59,4.59,0,0,1,40.21,80.41Z"></path>
    </g>
  </g>
</svg>
