<?xml version="1.0" encoding="UTF-8"?>
<svg xmlns="http://www.w3.org/2000/svg" xmlns:xlink="http://www.w3.org/1999/xlink" viewBox="0 0 113.59 210.56">
  <defs>
    <style>.cls-1,.cls-16{fill:none;}.cls-2{fill:#8e6848;}.cls-3{clip-path:url(#clip-path);}.cls-4{fill:url(#Безымянный_градиент_2);}.cls-5{fill:#713e21;}.cls-6{fill:#3d271f;}.cls-7{fill:#69391e;}.cls-8{fill:#6b472f;}.cls-9{fill:#5c3624;}.cls-10{fill:#795135;}.cls-11{fill:#9a734f;}.cls-12{fill:#cacac9;}.cls-13{fill:#85563a;}.cls-14{fill:#769b57;}.cls-15{fill:#79a05b;}.cls-16{stroke:#79a05b;stroke-miterlimit:10;stroke-width:0.55px;}.cls-17{fill:#6b482f;}</style>
    <clipPath id="clip-path">
      <polygon class="cls-1" points="9.43 181.88 59.39 205.4 105.61 182 57.56 161.64 9.43 181.88"></polygon>
    </clipPath>
    <linearGradient id="Безымянный_градиент_2" x1="-2541.68" y1="-1084.7" x2="-2538.88" y2="-1084.7" gradientTransform="matrix(34.36, 0, 0, -34.36, 87320.51, -37082.85)" gradientUnits="userSpaceOnUse">
      <stop offset="0" stop-color="#9b714e"></stop>
      <stop offset="0.38" stop-color="#9b714e"></stop>
      <stop offset="0.89" stop-color="#764528"></stop>
      <stop offset="1" stop-color="#6e3c20"></stop>
    </linearGradient>
  </defs>
  <g id="Слой_2" data-name="Слой 2">
    <g id="Слой_1-2" data-name="Слой 1">
      <path class="cls-2" d="M59.39,139.25S69,150.55,76.45,151s32.81-7.56,32.81-7.56L111.82,117,59.39,98.52Z"></path>
      <path class="cls-2" d="M1.7,115.14l5.23,34.48s18.58,2.78,21.83,1.86S46.88,145,51.06,145s8.33-5.72,8.33-5.72V98.52Z"></path>
      <g class="cls-3">
        <rect class="cls-4" x="33.09" y="134.32" width="48.87" height="98.4" transform="translate(-128.82 231.1) rotate(-86.92)"></rect>
      </g>
      <path class="cls-5" d="M9.43,181.88l-2.5-32.26s23.69-.47,30.19-3.72,22.27-6.66,22.27-6.66l-1.83,22.4Z"></path>
      <path class="cls-6" d="M43.19,151.62A8.46,8.46,0,0,0,40.35,150l0,0s-3.78-1.13-5.85,1.42-1.71,5.29-.77,5.73a11.08,11.08,0,0,0,1.63.34l.09,0a27.79,27.79,0,0,0,3.51-.8,1.86,1.86,0,0,0,.61-.15l.65-.19c1.48-.46,1.66-.13,2.68-1A4,4,0,0,0,44,152.67l-.21-.5h0l0,0a1,1,0,0,0-.59-.51"></path>
      <path class="cls-6" d="M22.91,155a10.78,10.78,0,0,0-4,1.33v0s-4.3,2.69-3.59,6.84,3.66,6.13,4.88,5.6a14.71,14.71,0,0,0,1.71-1.28l0-.13c.92-1.06,1.6-3.16,2.21-4.06a2,2,0,0,0,.35-.72c.11-.2.21-.42.38-.79.81-1.81,1.28-1.71,1.29-3.45a5.09,5.09,0,0,0-1.54-3.21,3.47,3.47,0,0,0-.65-.22v0h-.07a1.26,1.26,0,0,0-1,.14"></path>
      <path class="cls-7" d="M59.39,139.25l-1.83,22.39L105.62,182l3.64-38.55s-15-1.73-21.48-.8S70,146.36,66.54,144.51a45.07,45.07,0,0,1-7.15-5.26"></path>
      <path class="cls-6" d="M41.09,162.25a3.29,3.29,0,0,0-1.25-.31h0a2.31,2.31,0,0,0-2,1.19c-.49,1.18,0,2.17.35,2.23l.65,0,0,0a9.3,9.3,0,0,0,1.23-.69l.21-.12.22-.15c.51-.34.61-.23.9-.68a1.52,1.52,0,0,0,.12-1.08l-.13-.16h0Z"></path>
      <path class="cls-6" d="M88.17,152.61a2.3,2.3,0,0,0-.11-.89h0s-.38-1-1.27-1-1.43.5-1.37.78l.19.41h0l.75.63.13.1.15.11c.35.25.31.34.67.42a1.1,1.1,0,0,0,.73-.19l.07-.13h0Z"></path>
      <path class="cls-6" d="M101.59,168.79a11,11,0,0,0-1.9-3.81h0s-3.32-3.91-7.35-2.6-5.6,4.54-4.89,5.68A13.64,13.64,0,0,0,89,169.58l.13,0c1.19.76,3.39,1.13,4.37,1.61a2.47,2.47,0,0,0,.77.26l.84.25c1.94.55,1.9,1,3.64.79a5.15,5.15,0,0,0,3-2,3.14,3.14,0,0,0,.13-.69h0l0-.07a1.23,1.23,0,0,0-.28-1"></path>
      <path class="cls-6" d="M75.48,155.51a8.37,8.37,0,0,0-1.87,2.69v0s-1.41,3.67,1,5.9,5.11,2.08,5.62,1.19a11,11,0,0,0,.46-1.59l0-.1a27.58,27.58,0,0,0-.52-3.53,1.75,1.75,0,0,0-.11-.61c0-.17-.07-.36-.14-.66-.35-1.5,0-1.66-.81-2.74a3.92,3.92,0,0,0-2.44-1.26l-.51.17v0l0,0a1,1,0,0,0-.54.54"></path>
      <path class="cls-8" d="M75.66,182.89a1.59,1.59,0,0,0,1.57-.42c.54-.7.43-1.43.17-1.54l-.44-.09c-.29-.05-.32.69-.33.71Z"></path>
      <path class="cls-9" d="M74.72,182.31s.87.79,1.24.55a8.71,8.71,0,0,1,.8-.46l0-.24-1-.32-.57.19Z"></path>
      <path class="cls-10" d="M74.66,182.17c0,.1.12.36.4.27a3.45,3.45,0,0,0,.52-.23l.33-1c.07-.15.14-.19-.25-.06s-.45,0-.72.29a1.07,1.07,0,0,0-.28.69"></path>
      <path class="cls-11" d="M75.58,182.21a3.89,3.89,0,0,0,.13-.69c0-.31,0-.39.29-.43s.83-.33,1.1-.23.26.09.26.44a1.27,1.27,0,0,1-.38.87.71.71,0,0,1-.76.33,1.82,1.82,0,0,1-.64-.29"></path>
      <path class="cls-8" d="M65,176.76s2.39.13,3.24-1.67.26-3.36-.36-3.49a7.65,7.65,0,0,0-1,0c-.65,0-.37,1.66-.39,1.69Z"></path>
      <path class="cls-9" d="M62.63,175.94s2.3,1.32,3,.61,1.54-1.39,1.54-1.39l-.16-.53a7.25,7.25,0,0,0-2.27-.24c-.36.2-1,.62-1.15.69Z"></path>
      <path class="cls-10" d="M62.44,175.67c.11.2.44.73,1,.4a9.74,9.74,0,0,0,1.05-.75s.18-1.94.26-2.29.22-.49-.58,0-1,.31-1.44,1a2.41,2.41,0,0,0-.28,1.66"></path>
      <path class="cls-11" d="M64.48,175.32a11.05,11.05,0,0,0,0-1.59c-.09-.7-.16-.88.42-1.09s1.68-1.12,2.32-1,.6.06.77.84a2.83,2.83,0,0,1-.41,2.1A1.61,1.61,0,0,1,66,175.63a4.2,4.2,0,0,1-1.54-.31"></path>
      <path class="cls-8" d="M55,184.53s1.87,1.42,3.54.43,2-2.58,1.62-3a7,7,0,0,0-.84-.53c-.55-.33-1.21,1.15-1.24,1.16Z"></path>
      <path class="cls-9" d="M53.57,182.58s1.14,2.33,2.08,2.13,2-.29,2-.29l.16-.51s-1.29-1.4-1.7-1.44-1.14,0-1.31-.07Z"></path>
      <path class="cls-10" d="M53.57,182.25c0,.23,0,.84.58.87a8.3,8.3,0,0,0,1.26,0l1.46-1.71c.25-.24.45-.27-.47-.32s-.95-.27-1.7,0a2.35,2.35,0,0,0-1.13,1.19"></path>
      <path class="cls-11" d="M55.41,183.09a11.08,11.08,0,0,0,.83-1.31c.31-.61.35-.79.93-.65s2,0,2.44.44.45.38.17,1.11a2.77,2.77,0,0,1-1.49,1.46,1.54,1.54,0,0,1-1.81,0,3.92,3.92,0,0,1-1.07-1.09"></path>
      <path class="cls-8" d="M50.73,178.09a2.67,2.67,0,0,0,.09-2.73c-.86-1.2-2.1-1.39-2.41-1l-.35.67c-.22.44,1,.85,1,.88Z"></path>
      <path class="cls-9" d="M49.33,179.33s1.7-1,1.49-1.73a15.08,15.08,0,0,1-.35-1.51l-.4-.09s-1,1.08-1,1.4,0,.87,0,1Z"></path>
      <path class="cls-10" d="M49.09,179.35c.18,0,.64,0,.62-.5a6,6,0,0,0-.11-1l-1.4-1c-.2-.17-.23-.32-.21.38s-.15.74.12,1.3a1.8,1.8,0,0,0,1,.78"></path>
      <path class="cls-11" d="M49.6,177.89a7.93,7.93,0,0,0-1.06-.54c-.48-.2-.62-.22-.55-.67s-.12-1.51.18-1.89.26-.37.83-.2a2.15,2.15,0,0,1,1.22,1,1.18,1.18,0,0,1,.14,1.38,3,3,0,0,1-.76.89"></path>
      <path class="cls-8" d="M42.26,180.11a1.15,1.15,0,0,0,.38-1.12c-.2-.61-.69-.85-.86-.74l-.23.23.29.49Z"></path>
      <path class="cls-9" d="M41.52,180.44s.84-.21.84-.52,0-.68,0-.68l-.15-.08-.58.45-.12.42Z"></path>
      <path class="cls-10" d="M41.42,180.42l.32-.13.08-.41-.45-.59c-.07-.1-.06-.17-.14.13s-.16.28-.12.55a.8.8,0,0,0,.31.45"></path>
      <path class="cls-11" d="M41.82,179.88l-.37-.36-.15-.35.32-.76.37,0a1,1,0,0,1,.37.59.51.51,0,0,1-.11.59Z"></path>
      <path class="cls-8" d="M39.66,184.78s1.64-2.64.14-4.73-3.66-2.39-4.19-1.77a8.24,8.24,0,0,0-.6,1.17c-.37.77,1.66,1.46,1.69,1.51Z"></path>
      <path class="cls-9" d="M37.26,186.93s2.94-1.79,2.56-3-.63-2.62-.63-2.62l-.69-.14s-1.69,1.87-1.69,2.41.08,1.52.06,1.75Z"></path>
      <path class="cls-10" d="M36.83,187c.31,0,1.1,0,1.08-.87a13.18,13.18,0,0,0-.2-1.66s-2.08-1.42-2.43-1.72-.41-.56-.37.66-.25,1.28.22,2.24a3.11,3.11,0,0,0,1.7,1.35"></path>
      <path class="cls-11" d="M37.71,184.44a13.69,13.69,0,0,0-1.84-.94c-.84-.33-1.08-.36-1-1.15s-.22-2.61.29-3.28.45-.64,1.44-.34a3.62,3.62,0,0,1,2.12,1.78,2.05,2.05,0,0,1,.27,2.38,5.33,5.33,0,0,1-1.31,1.55"></path>
      <path class="cls-12" d="M57.44,133.74c-3.45,4-9.46,8.3-7,14.34.29.73,1.49.41,1.19-.33-2.25-5.56,3.55-9.5,6.69-13.13.52-.6-.35-1.48-.87-.88Z"></path>
      <path class="cls-12" d="M59.41,137.18c-3.7,2.22-8.14,2.7-11.81,4.94s-4.84,5.65-5.92,9.46a.62.62,0,0,0,1.2.33c1.42-5,3.53-8.33,8.59-10.21,2.91-1.09,5.87-1.84,8.56-3.46.68-.4.06-1.48-.62-1.06Z"></path>
      <path class="cls-12" d="M58.37,139.35c-1.66,3.72-3.37,7.43-5,11.18-1.11,2.56-1.93,4.91-1.54,7.72.11.79,1.3.45,1.19-.33-.52-3.78,1.6-7.19,3.08-10.5L59.44,140c.32-.72-.75-1.35-1.07-.62Z"></path>
      <path class="cls-12" d="M57.73,142c-.6,2.85-1.29,5.18-3.61,7.13-1.57,1.32-3.27,2.19-4.64,3.76a15.28,15.28,0,0,0-3.57,8.48c-.09.79,1.14.78,1.24,0,.65-5.52,3.77-8,7.83-11.27,2.52-2,3.3-4.71,3.94-7.77.17-.78-1-1.11-1.19-.33Z"></path>
      <path class="cls-12" d="M54.28,149.13c-4.33,2.51-8.69,5-13,7.53a12.93,12.93,0,0,0-5.91,6.49l1.22.17.07-1c.06-.8-1.18-.79-1.23,0l-.08,1c0,.75,1,.76,1.22.16,1.66-4.09,5.33-5.75,8.92-7.83l9.39-5.45a.62.62,0,0,0-.62-1.07Z"></path>
      <path class="cls-12" d="M58.88,140.47A7.28,7.28,0,0,1,57.49,147c-.81,1-1.93,1.68-2.68,2.74-1.45,2.07-1.3,4.69-1.1,7.09l.79-.6-1-.22c-.78-.16-1.11,1-.33,1.2l1,.22a.62.62,0,0,0,.78-.6c-.16-2-.41-4.32.66-6.09.81-1.35,2.31-2.12,3.22-3.39a8.65,8.65,0,0,0,1.24-7.19c-.17-.78-1.37-.45-1.19.33Z"></path>
      <path class="cls-12" d="M59.37,147.91c0,3.45-.11,6.83-1.36,10.1-.91,2.4-2,4.51-2.06,7.14a.62.62,0,0,0,1.23,0c.06-3.25,1.93-5.86,2.73-8.92a33.68,33.68,0,0,0,.7-8.32.62.62,0,0,0-1.24,0Z"></path>
      <path class="cls-12" d="M46.88,176.6c2.27-6,6.31-9.29,11.2-13.14a15.53,15.53,0,0,0,6.2-9.66c.15-.78-1.05-1.11-1.2-.33-1.19,6.25-5.75,8.64-10.24,12.42a24.43,24.43,0,0,0-7.15,10.38c-.28.75.91,1.07,1.19.33Z"></path>
      <path class="cls-12" d="M56.92,179.85c2.67-2.27,3-5.39,3.5-8.7a65.79,65.79,0,0,1,4-14c.3-.74-.9-1.06-1.19-.33a65.21,65.21,0,0,0-3.4,11C59,171.58,59.22,176.28,56,179c-.6.52.27,1.39.88.87Z"></path>
      <path class="cls-12" d="M54.4,175.94a65.34,65.34,0,0,1,6.4-7.78c.55-.57-.32-1.45-.88-.87a67.53,67.53,0,0,0-6.59,8c-.46.66.62,1.27,1.07.63Z"></path>
      <path class="cls-12" d="M53.79,189.24c1.29-3.64,3.8-6,5.43-9.35s1.72-7,3.24-10.27c.33-.72-.74-1.35-1.07-.63-1.87,4.08-2.17,8.56-4.7,12.29a33,33,0,0,0-4.09,7.63c-.27.75.93,1.07,1.19.33Z"></path>
      <path class="cls-12" d="M58.79,135.45a7.34,7.34,0,0,0,8.4,6.89c.78-.12.45-1.31-.33-1.19a6.09,6.09,0,0,1-6.83-5.7.62.62,0,0,0-1.24,0Z"></path>
      <path class="cls-12" d="M60.07,140.53a3.72,3.72,0,0,0,2.37,1.88,24.61,24.61,0,0,0,3.15.72c2.17.41,4.32,1,6.48,1.61a62.67,62.67,0,0,1,6.4,2,29.53,29.53,0,0,1,5.93,3.15l-.08.12a41.28,41.28,0,0,0-12.51-4.22c-2.17-.44-4.39-.72-6.55-1.33A15.22,15.22,0,0,1,62,143.32a5.09,5.09,0,0,1-1.41-1.13,2.86,2.86,0,0,1-.69-1.63Z"></path>
      <path class="cls-12" d="M61.92,142.42a20.47,20.47,0,0,1,4.67,5c1.3,1.81,2.48,3.7,3.74,5.49a17.65,17.65,0,0,0,4.56,4.64,9.21,9.21,0,0,0,6.21,1.71,9.44,9.44,0,0,1-6.43-1.36,17.69,17.69,0,0,1-5-4.51c-1.37-1.77-2.63-3.59-4-5.31a19.45,19.45,0,0,0-4.55-4.47Z"></path>
      <path class="cls-12" d="M62.08,149.18a28.85,28.85,0,0,0,2,8.06A37,37,0,0,1,66.12,168c0,.79,1.27.8,1.24,0a35.67,35.67,0,0,0-1.24-8.47c-1-3.49-2.61-6.68-2.8-10.37,0-.8-1.28-.8-1.24,0Z"></path>
      <path class="cls-12" d="M60.6,151.46c3.53,5.61,11.6,6.37,14.4,12.49.34.72,1.4.09,1.07-.63-2.85-6.22-10.87-6.88-14.4-12.49-.42-.67-1.5-.05-1.07.63Z"></path>
      <path class="cls-12" d="M62.57,161.62c1.57,3.09,4.89,3.36,8.05,3.87,5.12.83,12.77.15,16.86,3.52.61.5,1.49-.37.87-.88-2.15-1.77-4.41-2.25-7.17-2.55-4.13-.47-15.24-.05-17.54-4.58-.36-.71-1.43-.09-1.07.62Z"></path>
      <path class="cls-12" d="M74.07,166.12a29.72,29.72,0,0,1,5.58,11.37.62.62,0,0,0,1.19-.33,31.09,31.09,0,0,0-5.9-11.92c-.49-.62-1.36.26-.87.88Z"></path>
      <path class="cls-12" d="M61.45,162.12c2.32,3.2,4.58,6.43,5.87,10.21.26.75,1.45.43,1.19-.33a40.6,40.6,0,0,0-6-10.51c-.46-.64-1.54,0-1.07.63Z"></path>
      <path class="cls-12" d="M61.74,161.63a265.92,265.92,0,0,1-1.5,32.91c-.09.79,1.15.79,1.24,0A264,264,0,0,0,63,161.63a.62.62,0,0,0-1.23,0Z"></path>
      <path class="cls-12" d="M58.5,132.57l.14,8.31a.62.62,0,0,0,1.24,0l-.15-8.31a.62.62,0,0,0-1.23,0Z"></path>
      <path class="cls-12" d="M59.08,129.32c-3.19,5.06-.26,11.11-1.61,16.61-.19.77,1,1.1,1.19.33C60,141,57.13,134.75,60.15,130c.43-.68-.64-1.3-1.07-.63Z"></path>
      <path class="cls-12" d="M59.86,142.07a22.73,22.73,0,0,1,1.38,8.72c0,.79,1.21.79,1.24,0a23.64,23.64,0,0,0-1.43-9c-.27-.74-1.46-.42-1.19.33Z"></path>
      <path class="cls-12" d="M59.08,143.43v8a.62.62,0,0,0,1.23,0v-8a.62.62,0,0,0-1.23,0Z"></path>
      <path class="cls-12" d="M61.06,145l-.32,5.89c-.1,1.94.06,4.13-1.13,5.77-.46.65.61,1.27,1.07.62a8,8,0,0,0,1.2-4.57c.15-2.57.28-5.14.42-7.71,0-.8-1.2-.79-1.24,0Z"></path>
      <path class="cls-12" d="M60.34,150.6a27.74,27.74,0,0,1-3,9.47c-.37.71.7,1.33,1.07.63a28.8,28.8,0,0,0,3.16-9.77c.11-.77-1.08-1.11-1.19-.33Z"></path>
      <path class="cls-12" d="M59.66,144.88l1.16,7.64c.12.78,1.31.45,1.19-.33l-1.15-7.64c-.12-.78-1.32-.45-1.2.33Z"></path>
      <path class="cls-12" d="M59.65,141.84a55.39,55.39,0,0,0,1.2,8.69.62.62,0,0,0,1.19,0l.23-1.18c.15-.78-1-1.11-1.19-.33l-.23,1.19H62a53.85,53.85,0,0,1-1.16-8.37c0-.79-1.28-.8-1.23,0Z"></path>
      <path class="cls-12" d="M60.93,143.76a19,19,0,0,0,1.5,5.43.62.62,0,0,0,1,.13,3.74,3.74,0,0,0,1-3.36c-.09-.57-.86-.54-1.13-.15l-.73,1.08,1.13.15-1.24-4.27a.62.62,0,0,0-1.19,0,10.33,10.33,0,0,0-.08,3.84c.1.59.85.51,1.13.15a4.76,4.76,0,0,0,1-3.27l-1.22.17.46,2.43c.13.72,1.17.5,1.21-.16a8.28,8.28,0,0,0-1.93-5.88c-.51-.62-1.38.26-.88.88a7,7,0,0,1,1.58,5l1.21-.17-.45-2.43c-.13-.69-1.25-.53-1.22.16a3.71,3.71,0,0,1-.84,2.64l1.13.15a8.3,8.3,0,0,1,.07-3.18H61.22l1.23,4.26a.63.63,0,0,0,1.14.15l.73-1.07-1.13-.15a2.22,2.22,0,0,1-.66,2.15l1,.13a16.79,16.79,0,0,1-1.33-4.81c-.09-.79-1.33-.79-1.24,0Z"></path>
      <path class="cls-12" d="M61.57,153.68a35.06,35.06,0,0,1-.5,9.59l1.21.16-.05-.84c0-.79-1.29-.8-1.24,0l0,.84c0,.66,1.08.89,1.22.17a35.88,35.88,0,0,0,.55-9.92c-.07-.79-1.31-.8-1.24,0Z"></path>
      <path class="cls-12" d="M60.61,152.38a173.33,173.33,0,0,1-.43,20c-.06.73,1,.8,1.22.17l2-6c.26-.75-.93-1.08-1.19-.32l-2,6,1.22.16a173.33,173.33,0,0,0,.43-20c0-.79-1.27-.8-1.24,0Z"></path>
      <path class="cls-12" d="M60.46,156.23a6.39,6.39,0,0,1-.46,3.26c-.31.73.75,1.36,1.07.63a7.64,7.64,0,0,0,.63-3.89c-.09-.78-1.32-.79-1.24,0Z"></path>
      <path class="cls-12" d="M62.59,154.92a37,37,0,0,0,1.22,9.77.62.62,0,0,0,1.2-.33,35.36,35.36,0,0,1-1.18-9.44.62.62,0,0,0-1.24,0Z"></path>
      <path class="cls-12" d="M62.37,162.77a18.06,18.06,0,0,0-.84,6.06.62.62,0,0,0,1.21.16,26.33,26.33,0,0,0,.12-18.51c-.27-.74-1.47-.42-1.2.33a25.23,25.23,0,0,1-.11,17.85l1.21.17a17.36,17.36,0,0,1,.81-5.73c.23-.76-1-1.09-1.2-.33Z"></path>
      <path class="cls-12" d="M61.09,150l-.42,2.48a.62.62,0,0,0,1.19.33,7.86,7.86,0,0,0,.37-3c-.06-.79-1.29-.8-1.24,0a7,7,0,0,1-.32,2.64l1.19.33.43-2.48c.13-.78-1.06-1.11-1.2-.33Z"></path>
      <path class="cls-12" d="M58.8,138.48a24.64,24.64,0,0,0,2.2,4.85.63.63,0,0,0,1.16-.31,9.29,9.29,0,0,0-.49-4,.63.63,0,0,0-.9-.37,6.46,6.46,0,0,0-3.65,6.1.62.62,0,0,0,.93.53,3.42,3.42,0,0,0,1.81-2.22.63.63,0,0,0-.91-.7A5.52,5.52,0,0,0,57.18,144l1.13.48a32.06,32.06,0,0,0,.39-6.78c0-.79-1.27-.79-1.23,0a30.93,30.93,0,0,1-.35,6.45.62.62,0,0,0,1.13.48,4,4,0,0,1,1.33-1.19l-.91-.7a2.31,2.31,0,0,1-1.25,1.48l.93.54a5.27,5.27,0,0,1,3-5l-.91-.37a8.51,8.51,0,0,1,.44,3.68l1.15-.31A23.17,23.17,0,0,1,60,138.15c-.25-.75-1.44-.43-1.19.33Z"></path>
      <polygon class="cls-13" points="1.51 115.45 59.44 140.96 112.08 117.43 59.44 97.86 1.51 115.45"></polygon>
      <path class="cls-14" d="M59.57,71.25a27.33,27.33,0,0,1-2.42-2.62c-.52-.62-6.07-3.54-7.18-4.86s-2.58-2.69-.84-4.71c0,0,0-2.82-1.09-3.71s-1.77-2.62-1.3-3.33.73-1.62,1.19-1.65.44-1,.69-1.15,0-2.39.92-1.61A8.5,8.5,0,0,1,51,50.77s2.52-1.28,2.21,3.32c0,0-.19.89,1.28.72s4.22.51,2.72,5.1c0,0,1.71,5.86.59,5.58s2.8,3.66,2.28,4.71S60.19,71.41,59.57,71.25Z"></path>
      <path class="cls-14" d="M59.22,27.89c-.23-.63-4.4-9-7.75-10,0,0-1.78-.12-.72-1.62s-6.24-3.92-6.43-4.2S43,10.56,44,9.53,37.79,6.3,37.79,6.3s-.9-.81-.3-1.6-7-2.73-7-2.73-1.2-1.45,2.38-.66S39.74,2.8,39.74,2.8,39-.54,41,.07c0,0,2.89,4.52,4.42,5.31,0,0,1.35-2.52,2.91-1.31l3.26,5.56s1.93-2.27,3.54.31,1.48,6.47,1.48,6.47a3.62,3.62,0,0,0,.68-2s.11-.65,1.73-.2c0,0-.61-9.22,3-5.55,0,0,3.12-6.64,4.51-5.93,0,0,1,.07-.13,1.84A44,44,0,0,0,61.06,26s.44.58-.41,2a4.89,4.89,0,0,0,0,1.58c.17.56.27-.28,1.69-.32a2.25,2.25,0,0,0-.11-1.84c-.46-1.21-1-4.95,2.46-4.49,0,0,.35-5.18,1.21-5.4s1.21,5.38,1.21,5.38,4.32-1,.52,4.38c0,0-.51.1.15,1.15s-.89,3.78-4.17,5.7l-1.3.92s-1.09,3.44-1.56,4.5C59.49,39.06,58,35.9,56.15,36s-3.8,1.53-4,.24a2.55,2.55,0,0,1,1-2.72c.7-.32-2.11-.6-4-.82S46.8,31.12,48,30.56s-6.8-2.11-8-2-2.27-.93.88-.86,3.23.82,3.14.08.52-3.57,5.27.4c0,0,1.08,1,1.14-.61s3.06-1.39,4.51.95S57,30.94,57.16,30s-.47-1.81-.13-2.11,1.14.67,1.8,1.63,1.06.53.73-.54Z"></path>
      <path class="cls-14" d="M60.53,51.73c-.45.94-5.27-3.18-6.47-3s-2.36-.16-2.37-1.35c0,0-6.07.5-6.78.18s-2.13-2.24.25-3.64c0,0-6-2-7.61-5s2.52.54,4.23.65,2,.27,2.52.24.23-2.45,2.11-1.91A5.69,5.69,0,0,0,48,39.19,37.65,37.65,0,0,1,52,41a3.11,3.11,0,0,0,1.53.58c.21,0-.36-3.72,2.57-1.53s4.2,3.7,4.31,5.18S61.62,49.45,60.53,51.73Z"></path>
      <path class="cls-14" d="M63.5,41.61c.46-.79.35-3.26,3.65-5.44s2.53-7,6.21-3.62c0,0,3.38-2.44,3.55-3.87s1.89-.56,1.36,1.12,1.38,3-3,7.61c0,0-.44.39.41,1.09s0,2.09-2.37,2.61S61.65,44.54,59.61,50.5Z"></path>
      <path class="cls-14" d="M53.36,80.92a11,11,0,0,0-9.57-3.14c-5.95,1-3.12,3.14-3.12,3.14s-8.57,3.56-3.44,13.61c0,0,1.3,1.43,1.71-.55s-.07-2.39.75-4.17,2.05-4.44,2.67-4.17S43.72,88.51,45,86,49.46,79.83,53.36,80.92Z"></path>
      <path class="cls-14" d="M51.56,79.76c0,3.65,2.83-7.93,6.2-5.83,0,0-.56-4.75-4.75-4.28a3.45,3.45,0,0,0-3.1,3C49.72,74.11,51.52,76.05,51.56,79.76Z"></path>
      <path class="cls-14" d="M51.87,94.91s-16.34-7.66-15.61,12c0,0,1.3,2.46,3.37-5.2,0,0-.63-.36,1.83-.54S47.07,93.09,51.87,94.91Z"></path>
      <path class="cls-15" d="M60.2,21.09l.55,11.7c.17,3.9.39,7.79.41,11.72l-.34,23.41c-.23,15.55,1.08,31.11.79,46.84l-3.28-.11c.7-15.48-.21-31.12.43-46.79.38-7.8,1-15.6,1.36-23.37.16-3.88.11-7.79.11-11.69Z"></path>
      <path class="cls-14" d="M66.71,97.38A.89.89,0,0,0,67,97c.51-1.48,2.22-7.85,3.87-9.25s2-3.06,2.74-.27c.1.4-.15.73-.32,1.09,0,0,.34-.21,1.68-1.09,2.87-1.9,7.13-5,6.46-2.57s-1.55,2.23.07,2.23,4.64-.68,6.48-.41,3.8,1.09-.87,1.63c-3.82.44-2.21.75-1.5.85a1,1,0,0,1,.57.25c.48.42,1.1,1.29-2.25,1.19-4.4-.12-3.18-.06-3,.35s1.42,3-1.62,2.5a10.64,10.64,0,0,0-5.08.14c-.27.07,4.27,1.83.72,2.3s-5.12,1.76-7.08,1.69C66.65,97.59,66.59,97.46,66.71,97.38Z"></path>
      <path class="cls-14" d="M64,100.32S76.6,98,68.45,110.14a27.76,27.76,0,0,1-.41-2.88c-.07-1.15-1.47.95-.5-3,0,0-2,.1-1-3.08A5.71,5.71,0,0,0,64,100.32Z"></path>
      <path class="cls-14" d="M65,100.32s2.1-4.3,2.24-6.87a57.08,57.08,0,0,0-.54-8.06C66.55,84.51,65,87.08,65,90s1.15,3.28,0,3-1.82-.78-2.37.83S65,100.32,65,100.32Z"></path>
      <path class="cls-15" d="M67.6,96.07c-3.73,4-7.66,8.26-8.76,13.77-.15.77,1,1.1,1.18.33,1-5.32,4.84-9.42,8.44-13.24.54-.57-.32-1.43-.86-.86Z"></path>
      <path class="cls-16" d="M47.49,94.46c6.74-.54,8.57,4.66,11.7,4.71"></path>
      <path class="cls-15" d="M51.51,80.34a20.69,20.69,0,0,1,4.58,6.77c.89,2.07,1.54,4.23,2.59,6.23.48.94,1.9.11,1.41-.83-1.07-2.05-1.73-4.28-2.66-6.4a21.65,21.65,0,0,0-4.76-6.93c-.76-.73-1.92.43-1.16,1.16Z"></path>
      <path class="cls-15" d="M85.81,48.31C83,51,80.22,53.62,77.55,56.39a75.47,75.47,0,0,0-7.42,8.77,49.33,49.33,0,0,0-5.49,10A83.62,83.62,0,0,0,61.13,86l-1.86-.51a86.11,86.11,0,0,1,4-11,50.17,50.17,0,0,1,6-10A77.72,77.72,0,0,1,77.21,56C80,53.38,82.9,50.83,85.81,48.31Z"></path>
      <path class="cls-14" d="M78.2,55.39c-.47.41,8.5-11.38,10.28-13.63s4.71-3.76,5.94,0c0,0-1.16,1.3,3-.28s8.68-5.6,9.57-1.63c0,0,3-2.19,2.87.68s1.71,2,2,2,3.76,1.09,0,2.66c0,0-2.26.55-3.35-.06s-.69,1.3-.14,1.57,2.32,3.69-1.44,2.32a5.82,5.82,0,0,0-5.12-2c-3.49.27-5,0-3.47,1.35s3.81,4.52-.29,3.5S86.54,48.07,78.2,55.39Z"></path>
      <path class="cls-14" d="M85.74,61.24s4.24-2.39,9.85,1c0,0,3.83,2.11.48,3.21,0,0,8,7,3.75,6.83,0,0,1.65,5.4.28,6.16,0,0-1.78-4.52-2.67-5.27a2.34,2.34,0,0,1-2.73-1.84C94,69,93.6,67.87,93.13,67.94s-.07,1-.41,1.46-.89,1.27-2.67-1S86.43,64,85.74,63,85.74,61.24,85.74,61.24Z"></path>
      <path class="cls-14" d="M66.19,71.7s6.5-5.74,10-6,5.81-1.16,4,2.39c0,0-1.64,1,2.05,2.12a9.06,9.06,0,0,0,5.94.17c.53,0,4.58.38,2.74,2.77,0,0-1.3.41,1.09,1.23s5.33,2.19,6.22,6.77c0,0,2,1.78,1.23,2.33s-7.72-5-9-5.06c0,0,1.23,4.71-3.08,4.17A3.82,3.82,0,0,1,85,80c-.75-2.19-4.44-3.9-4.44-3.9s-1-.48-.69.69-.79,2.53-1.31,2.87-1.83,1.57-2.72-.48S68.79,71.29,66.19,71.7Z"></path>
      <path class="cls-16" d="M71.54,62.74c4.64-1.19,9.28-2.75,15.07-.91"></path>
      <path class="cls-14" d="M29.34,56.67a11,11,0,0,1-5.85-2.22c-2.83-2.17-6.47-5.11-6.86-5.33s-2.5,1.33-1,4.94c0,0,1.14,1.44-1,.83s-7.15-3.61-8.46-1.5,0,2.55,0,2.55a13.91,13.91,0,0,0-5.5,2.67c-2.16,1.94,1.48,1.83,1.76,1.83s4.65-1.17,4.77-.39-.85,3.11,1.87,2.78,4.14-3.16,4.77-3.11,1.47.22,1.07,1.44-.45,3.44,2.61,2.72,5.85-4,6-3.5-.34.84-.85,1.17a24.25,24.25,0,0,0-4,5.38c-.57,1.45-5.11,3.78-4.88,10,0,0,.06,2,1.25,1.56,0,0-.8,4.77,2.32,6.27,0,0,.8,6.88,2.44,7,0,0-.45-8,.68-10.38,0,0,.29-7.49.8-10.6s.53-10.24,8.06-13.6Z"></path>
      <path class="cls-14" d="M48.52,63.55S43.47,62,39.1,66.77c0,0-1,1.33.51,1.72,0,0-4.43,3.49-4.48,5.55s-.06,1.44.45,1.88-.17,5.06,1.36,6.22,1.76-5.6,1.76-5.6,1.73,2.64,3.11-6.09c0,0,3.42,1.87,4.15-1.85s2.73-4.28,4-4.11S48.52,63.55,48.52,63.55Z"></path>
      <path class="cls-14" d="M40.86,59.72c.28,0-8.91.66-5.76,7.93,0,0,2,5.94-1.85,4.56a17.73,17.73,0,0,0-.68,4.38c.12,1.55-.17,2.94-1.59,2.33,0,0,.34,3-.56,3s-2.33-.33-3.64-5.21c0,0-3.34.61-2.15-3.11S27.07,60.06,40.86,59.72Z"></path>
      <path class="cls-15" d="M27.07,57.65A39.37,39.37,0,0,1,59.35,73.42c.38.52,1.25,0,.87-.51A40.4,40.4,0,0,0,27.07,56.64c-.65,0-.65,1,0,1Z"></path>
      <path class="cls-17" d="M59.47,120.63a1.31,1.31,0,0,0-1.26-.46c-.7.22-1,.77-.86,1a3.15,3.15,0,0,0,.26.26c.18.17.54-.31.56-.31Z"></path>
      <path class="cls-9" d="M59.83,121.48s-.22-1-.58-1-.76-.06-.76-.06l-.1.17s.35.62.5.67l.47.14A3.14,3.14,0,0,0,59.83,121.48Z"></path>
      <path class="cls-10" d="M59.8,121.59c0-.08.09-.3-.14-.36a3,3,0,0,0-.46-.1s-.57.43-.68.5-.19.06.14.16.32.18.62.14A.91.91,0,0,0,59.8,121.59Z"></path>
      <path class="cls-11" d="M59.2,121.13a4.19,4.19,0,0,0-.42.41c-.16.2-.2.26-.4.15s-.72-.17-.85-.37-.14-.18,0-.42a1.07,1.07,0,0,1,.67-.41.58.58,0,0,1,.67.15A1.45,1.45,0,0,1,59.2,121.13Z"></path>
      <path class="cls-17" d="M41.6,114.14a1.94,1.94,0,0,0-2-.28c-.94.53-1.16,1.4-.93,1.65a3.48,3.48,0,0,0,.45.3c.3.19.68-.62.71-.62Z"></path>
      <path class="cls-9" d="M42.38,115.24s-.61-1.3-1.13-1.21a10.69,10.69,0,0,1-1.11.14l-.09.28s.7.79.92.82.63,0,.73,0A5.1,5.1,0,0,0,42.38,115.24Z"></path>
      <path class="cls-10" d="M42.37,115.42c0-.13,0-.46-.31-.49a4.69,4.69,0,0,0-.7,0s-.68.8-.82.93-.25.14.25.18.52.17.94,0A1.32,1.32,0,0,0,42.37,115.42Z"></path>
      <path class="cls-11" d="M41.36,114.93a6.24,6.24,0,0,0-.47.72c-.18.33-.2.43-.52.35s-1.09,0-1.34-.28-.25-.21-.08-.61a1.52,1.52,0,0,1,.84-.79.85.85,0,0,1,1,0A2.21,2.21,0,0,1,41.36,114.93Z"></path>
      <path class="cls-17" d="M54.22,111.56s-4-2-6.84.44-3,5.6-2,6.28a12.67,12.67,0,0,0,1.76.71c1.16.42,1.88-2.6,2-2.64S54.22,111.56,54.22,111.56Z"></path>
      <path class="cls-9" d="M57.65,114.73s-3-4-4.68-3.29-3.69,1.27-3.69,1.27l-.11,1s2.94,2.18,3.71,2.11,2.18-.32,2.52-.32A16.82,16.82,0,0,0,57.65,114.73Z"></path>
      <path class="cls-10" d="M57.77,115.34c0-.44-.21-1.58-1.41-1.43a17.58,17.58,0,0,0-2.37.51s-1.76,3.2-2.15,3.74-.75.67,1,.44,1.89.19,3.21-.61A4.51,4.51,0,0,0,57.77,115.34Z"></path>
      <path class="cls-11" d="M54,114.42a21.57,21.57,0,0,0-1.1,2.78c-.36,1.26-.38,1.61-1.53,1.55s-3.73.68-4.76,0-1-.56-.7-2,1-2.16,2.28-3.3a3,3,0,0,1,3.41-.71A7.61,7.61,0,0,1,54,114.42Z"></path>
      <path class="cls-17" d="M69.69,112.85s-2.31-3.16-5.46-2.38-4.51,3.16-4,4.07a11.14,11.14,0,0,0,1.09,1.25c.72.79,2.48-1.26,2.55-1.27S69.69,112.85,69.69,112.85Z"></path>
      <path class="cls-9" d="M71.09,116.67s-.72-4.28-2.32-4.42-3.35-.48-3.35-.48l-.5.74s1.41,2.86,2,3.11,1.81.62,2.07.75A14.36,14.36,0,0,0,71.09,116.67Z"></path>
      <path class="cls-10" d="M70.94,117.18c.14-.35.47-1.3-.52-1.66a14.66,14.66,0,0,0-2-.55s-2.63,1.77-3.15,2-.85.22.59.74,1.4.89,2.74.8A3.93,3.93,0,0,0,70.94,117.18Z"></path>
      <path class="cls-11" d="M68.38,115a17.07,17.07,0,0,0-1.95,1.71c-.79.84-.94,1.1-1.81.59s-3.16-1-3.7-1.87-.54-.82.27-1.85a4.65,4.65,0,0,1,3.08-1.64,2.6,2.6,0,0,1,2.92.8A6.75,6.75,0,0,1,68.38,115Z"></path>
      <path class="cls-17" d="M58.92,114.48s-3.33-2.57-6.35-.83-3.71,4.6-3,5.4a11.85,11.85,0,0,0,1.49,1c1,.61,2.19-2,2.26-2.06S58.92,114.48,58.92,114.48Z"></path>
      <path class="cls-9" d="M61.49,118s-2-4.2-3.7-3.87-3.6.5-3.6.5l-.29.91s2.3,2.53,3,2.61,2,.1,2.37.16A17.57,17.57,0,0,0,61.49,118Z"></path>
      <path class="cls-10" d="M61.49,118.59c0-.41.1-1.49-1-1.56a15.43,15.43,0,0,0-2.26,0s-2.19,2.61-2.65,3-.81.48.83.59,1.7.51,3.06,0A4.2,4.2,0,0,0,61.49,118.59Z"></path>
      <path class="cls-11" d="M58.2,117.06a18.8,18.8,0,0,0-1.51,2.35c-.57,1.09-.64,1.41-1.69,1.15s-3.55,0-4.37-.84-.8-.69-.28-2,1.28-1.8,2.69-2.61a2.81,2.81,0,0,1,3.25,0A7.3,7.3,0,0,1,58.2,117.06Z"></path>
      <path class="cls-17" d="M76.23,120.31a2,2,0,0,0,1.85-.91c.49-1,.17-1.89-.18-2a3.76,3.76,0,0,0-.57,0c-.37,0-.22.93-.23,1S76.23,120.31,76.23,120.31Z"></path>
      <path class="cls-9" d="M74.91,119.83s1.29.76,1.68.37a10.88,10.88,0,0,1,.88-.77l-.09-.3a4,4,0,0,0-1.27-.16c-.21.11-.57.34-.66.38A4.72,4.72,0,0,0,74.91,119.83Z"></path>
      <path class="cls-10" d="M74.81,119.67c.06.12.24.42.56.24a4.56,4.56,0,0,0,.59-.42s.12-1.09.17-1.28.13-.28-.33,0-.54.17-.82.54A1.39,1.39,0,0,0,74.81,119.67Z"></path>
      <path class="cls-11" d="M76,119.49a6.62,6.62,0,0,0,0-.89c0-.4-.08-.5.24-.61s1-.62,1.32-.56.34,0,.43.48a1.63,1.63,0,0,1-.25,1.18.89.89,0,0,1-.86.59A2.25,2.25,0,0,1,76,119.49Z"></path>
      <path class="cls-17" d="M31.89,122.63a2,2,0,0,0,1.85-.92c.5-1,.17-1.89-.17-2a3.89,3.89,0,0,0-.58,0c-.37,0-.22.94-.23,1S31.89,122.63,31.89,122.63Z"></path>
      <path class="cls-9" d="M30.57,122.14s1.29.77,1.68.38.88-.78.88-.78l-.08-.3a4.11,4.11,0,0,0-1.28-.15c-.21.1-.57.33-.66.38A5.86,5.86,0,0,0,30.57,122.14Z"></path>
      <path class="cls-10" d="M30.47,122c.06.11.24.41.56.23a5.79,5.79,0,0,0,.6-.41s.11-1.09.16-1.29.13-.27-.33,0-.54.17-.82.54A1.41,1.41,0,0,0,30.47,122Z"></path>
      <path class="cls-11" d="M31.63,121.81a5.85,5.85,0,0,0,0-.9c-.05-.39-.08-.49.25-.61s1-.62,1.32-.56.33,0,.42.48a1.58,1.58,0,0,1-.25,1.18.91.91,0,0,1-.86.6A2.38,2.38,0,0,1,31.63,121.81Z"></path>
      <path class="cls-17" d="M44.56,121A2.58,2.58,0,0,0,47,120c.72-1.24.38-2.4-.05-2.53a6.78,6.78,0,0,0-.73,0c-.47,0-.36,1.18-.38,1.2S44.56,121,44.56,121Z"></path>
      <path class="cls-9" d="M42.92,120.3s1.58,1.08,2.11.62,1.18-.91,1.18-.91l-.08-.39a5.27,5.27,0,0,0-1.61-.31c-.27.12-.75.38-.87.43A5.9,5.9,0,0,0,42.92,120.3Z"></path>
      <path class="cls-10" d="M42.8,120.09c.07.16.27.55.69.35a6.92,6.92,0,0,0,.8-.48s.25-1.38.32-1.62.19-.34-.41,0-.71.17-1.1.62A1.75,1.75,0,0,0,42.8,120.09Z"></path>
      <path class="cls-11" d="M44.29,120a8.4,8.4,0,0,0,.06-1.14c0-.51-.06-.64.36-.75s1.28-.71,1.73-.6.43.08.51.65a2.09,2.09,0,0,1-.43,1.48,1.15,1.15,0,0,1-1.15.68A2.91,2.91,0,0,1,44.29,120Z"></path>
      <path class="cls-17" d="M53.8,119.23a1.63,1.63,0,0,1,1.5-.23c.74.34.93.93.76,1.11a2.29,2.29,0,0,1-.34.21c-.23.14-.55-.4-.56-.41Z"></path>
      <path class="cls-9" d="M53.22,120s.44-.9.85-.85a8,8,0,0,0,.86.07l.08.19s-.52.55-.7.58l-.56.05A3.71,3.71,0,0,1,53.22,120Z"></path>
      <path class="cls-10" d="M53.23,120.12c0-.09,0-.31.23-.34s.54,0,.54,0,.55.53.66.61.2.1-.19.13-.4.12-.73,0A.94.94,0,0,1,53.23,120.12Z"></path>
      <path class="cls-11" d="M54,119.77a3.39,3.39,0,0,1,.38.48c.15.22.17.29.41.22s.85,0,1-.21.18-.15,0-.42a1.11,1.11,0,0,0-.66-.52.74.74,0,0,0-.78,0A1.59,1.59,0,0,0,54,119.77Z"></path>
      <path class="cls-17" d="M67.37,115.42s-3.12-2.32-5.88-.65-3.35,4.33-2.63,5a10.94,10.94,0,0,0,1.39.86c.93.54,2-1.93,2.06-2S67.37,115.42,67.37,115.42Z"></path>
      <path class="cls-9" d="M69.82,118.63s-1.94-3.85-3.49-3.51a33,33,0,0,1-3.33.53l-.25.85s2.18,2.3,2.85,2.35,1.9.06,2.19.1A14.75,14.75,0,0,0,69.82,118.63Z"></path>
      <path class="cls-10" d="M69.83,119.17c0-.39.06-1.39-1-1.43a14.1,14.1,0,0,0-2.1.08s-2,2.45-2.38,2.86-.75.46.78.53,1.58.43,2.83,0A3.91,3.91,0,0,0,69.83,119.17Z"></path>
      <path class="cls-11" d="M66.75,117.82A18,18,0,0,0,65.4,120c-.5,1-.56,1.32-1.53,1.1s-3.29,0-4.07-.69-.75-.62-.29-1.83A4.65,4.65,0,0,1,62,116.12a2.6,2.6,0,0,1,3-.1A6.73,6.73,0,0,1,66.75,117.82Z"></path>
      <path class="cls-17" d="M50.69,119s-2.56-.47-3.72,1.35-.73,3.58-.09,3.81a7.26,7.26,0,0,0,1.09.1c.72,0,.63-1.74.66-1.78S50.69,119,50.69,119Z"></path>
      <path class="cls-9" d="M53.11,120.24s-2.3-1.74-3.13-1.08a21.69,21.69,0,0,1-1.84,1.3l.1.58a7.94,7.94,0,0,0,2.4.58c.42-.17,1.16-.53,1.35-.59A10.25,10.25,0,0,0,53.11,120.24Z"></path>
      <path class="cls-10" d="M53.28,120.55c-.1-.24-.37-.84-1-.56a10,10,0,0,0-1.23.66s-.46,2.06-.59,2.43-.31.49.63.08,1.07-.2,1.68-.86A2.62,2.62,0,0,0,53.28,120.55Z"></path>
      <path class="cls-11" d="M51,120.65a12.62,12.62,0,0,0-.16,1.72c0,.76.05,1-.6,1.11s-2,1-2.64.79-.64-.15-.72-1a3.09,3.09,0,0,1,.74-2.2,1.71,1.71,0,0,1,1.77-.94A4.47,4.47,0,0,1,51,120.65Z"></path>
    </g>
  </g>
</svg>
