<?xml version="1.0" encoding="UTF-8"?>
<svg xmlns="http://www.w3.org/2000/svg" xmlns:xlink="http://www.w3.org/1999/xlink" viewBox="0 0 116.43 167.43">
  <defs>
    <style>.cls-1,.cls-13,.cls-14{fill:none;}.cls-2{fill:#8e6848;}.cls-3{clip-path:url(#clip-path);}.cls-4{fill:url(#Безымянный_градиент_2);}.cls-5{fill:#713e21;}.cls-6{fill:#3d271f;}.cls-7{fill:#69391e;}.cls-8{fill:#6b472f;}.cls-9{fill:#5c3624;}.cls-10{fill:#795135;}.cls-11{fill:#9a734f;}.cls-12{fill:#fbfcfe;}.cls-13,.cls-14{stroke:#fbfcfe;stroke-linecap:round;stroke-linejoin:round;}.cls-13{stroke-width:0.43px;}.cls-14{stroke-width:0.65px;}.cls-15{fill:#9fa89f;}.cls-16{fill:#85563a;}.cls-17{fill:#83c271;}.cls-18{fill:#9bd674;}.cls-19{fill:#aee28c;}.cls-20{fill:#7db868;}.cls-21{fill:#649853;}.cls-22{fill:#70a961;}.cls-23{fill:#6b482f;}</style>
    <clipPath id="clip-path">
      <polygon class="cls-1" points="17.46 143.48 59.2 163.12 97.82 143.57 57.67 126.56 17.46 143.48"></polygon>
    </clipPath>
    <linearGradient id="Безымянный_градиент_2" x1="-4851.68" y1="-124.71" x2="-4849.34" y2="-124.71" gradientTransform="matrix(34.36, 0, 0, -34.36, 166693.76, -4139.55)" gradientUnits="userSpaceOnUse">
      <stop offset="0" stop-color="#9b714e"></stop>
      <stop offset="0.38" stop-color="#9b714e"></stop>
      <stop offset="0.89" stop-color="#764528"></stop>
      <stop offset="1" stop-color="#6e3c20"></stop>
    </linearGradient>
  </defs>
  <g id="Слой_2" data-name="Слой 2">
    <g id="Слой_1-2" data-name="Слой 1">
      <path class="cls-2" d="M59.2,107.86s8,9.44,14.25,9.83,27.41-6.32,27.41-6.32L103,89.29,59.2,73.84Z"></path>
      <path class="cls-2" d="M11,87.72l4.37,28.8s15.52,2.33,18.24,1.56,15.13-5.44,18.62-5.44,7-4.78,7-4.78v-34Z"></path>
      <g class="cls-3">
        <rect class="cls-4" x="37.23" y="103.74" width="40.82" height="82.2" transform="translate(-90.09 194.62) rotate(-86.92)"></rect>
      </g>
      <path class="cls-5" d="M17.46,143.47l-2.08-26.95s19.79-.39,25.22-3.1,18.6-5.56,18.6-5.56l-1.53,18.7Z"></path>
      <path class="cls-6" d="M45.67,118.2a7.12,7.12,0,0,0-2.37-1.4v0s-3.16-.94-4.88,1.19-1.43,4.41-.64,4.78a8.24,8.24,0,0,0,1.36.29l.07,0a22.06,22.06,0,0,0,2.93-.66,1.62,1.62,0,0,0,.51-.13l.54-.16c1.24-.38,1.39-.11,2.25-.85a3.33,3.33,0,0,0,.9-2.13l-.17-.42h0l0,0a.79.79,0,0,0-.49-.42"></path>
      <path class="cls-6" d="M28.72,121a9.32,9.32,0,0,0-3.35,1.11v0s-3.59,2.25-3,5.71,3.05,5.13,4.07,4.68a11.63,11.63,0,0,0,1.43-1.07l0-.11c.77-.88,1.33-2.64,1.85-3.38a2,2,0,0,0,.29-.61,7,7,0,0,0,.31-.65c.68-1.52,1.08-1.43,1.09-2.89a4.29,4.29,0,0,0-1.29-2.68,3.8,3.8,0,0,0-.55-.19v0h-.06a1.08,1.08,0,0,0-.82.11"></path>
      <path class="cls-7" d="M59.2,107.86l-1.53,18.7,40.15,17,3-32.2s-12.51-1.45-17.94-.67-14.9,3.1-17.74,1.55a37.64,37.64,0,0,1-6-4.39"></path>
      <path class="cls-6" d="M43.91,127.07a2.74,2.74,0,0,0-1-.25h0a1.93,1.93,0,0,0-1.7,1c-.41,1,0,1.82.29,1.87l.54,0,0,0a9.7,9.7,0,0,0,1-.58l.17-.1.19-.12c.42-.29.51-.2.74-.57a1.31,1.31,0,0,0,.11-.9l-.11-.14h0Z"></path>
      <path class="cls-6" d="M83.25,119a1.89,1.89,0,0,0-.1-.74h0s-.32-.84-1.06-.86-1.2.42-1.15.65l.17.34h0l.63.53.11.08.12.09c.29.21.25.29.56.35a.91.91,0,0,0,.61-.16l.06-.1h0v0Z"></path>
      <path class="cls-6" d="M94.46,132.54a9.37,9.37,0,0,0-1.59-3.19h0s-2.77-3.26-6.14-2.16-4.67,3.79-4.08,4.74a12.48,12.48,0,0,0,1.27,1.28h.11c1,.64,2.84.95,3.66,1.35a1.89,1.89,0,0,0,.64.21l.7.22c1.62.45,1.59.86,3,.66A4.32,4.32,0,0,0,94.58,134a2.88,2.88,0,0,0,.11-.57h0l0-.06a1.07,1.07,0,0,0-.23-.8"></path>
      <path class="cls-6" d="M72.64,121.44a7.25,7.25,0,0,0-1.56,2.25v0s-1.17,3.07.81,4.93,4.26,1.74,4.69,1a10.21,10.21,0,0,0,.38-1.32l0-.08a25.09,25.09,0,0,0-.43-3,1.91,1.91,0,0,0-.1-.52c0-.14-.06-.29-.11-.55-.29-1.25,0-1.38-.68-2.28a3.32,3.32,0,0,0-2-1.06l-.43.14h0l0,0a.86.86,0,0,0-.45.45"></path>
      <path class="cls-8" d="M72.79,144.31A1.32,1.32,0,0,0,74.1,144c.46-.59.36-1.2.15-1.29l-.37-.08c-.24,0-.27.58-.28.59Z"></path>
      <path class="cls-9" d="M72,143.83s.73.66,1,.46.67-.39.67-.39l0-.2-.8-.26-.47.15Z"></path>
      <path class="cls-10" d="M72,143.72c0,.08.1.3.33.22s.44-.19.44-.19l.27-.81c.06-.12.12-.15-.21,0s-.37,0-.6.24a.92.92,0,0,0-.23.58"></path>
      <path class="cls-11" d="M72.73,143.75a5.45,5.45,0,0,0,.11-.58c0-.26,0-.33.23-.36s.7-.28.93-.19.21.08.21.37a1,1,0,0,1-.32.73.59.59,0,0,1-.63.27,1.65,1.65,0,0,1-.53-.24"></path>
      <path class="cls-8" d="M63.87,139.2a3,3,0,0,0,2.71-1.4c.71-1.49.21-2.8-.3-2.91a6.27,6.27,0,0,0-.84,0c-.55,0-.31,1.4-.33,1.42Z"></path>
      <path class="cls-9" d="M61.91,138.51s1.92,1.1,2.49.51,1.28-1.17,1.28-1.17l-.13-.43a6.23,6.23,0,0,0-1.89-.21c-.31.17-.83.52-1,.58Z"></path>
      <path class="cls-10" d="M61.75,138.28c.09.17.36.61.83.34a8.4,8.4,0,0,0,.88-.63s.15-1.62.21-1.91.19-.41-.49,0-.8.26-1.2.82a2,2,0,0,0-.23,1.38"></path>
      <path class="cls-11" d="M63.45,138a8.44,8.44,0,0,0,0-1.33c-.07-.58-.13-.73.35-.91s1.4-.94,1.94-.85.51,0,.65.7a2.37,2.37,0,0,1-.35,1.75,1.33,1.33,0,0,1-1.26.9,3.58,3.58,0,0,1-1.29-.26"></path>
      <path class="cls-8" d="M55.55,145.69a2.92,2.92,0,0,0,3,.36c1.39-.83,1.71-2.16,1.35-2.53a5.14,5.14,0,0,0-.7-.44c-.46-.28-1,1-1,1Z"></path>
      <path class="cls-9" d="M54.34,144.05s.95,1.95,1.73,1.79,1.68-.25,1.68-.25l.13-.42S56.8,144,56.47,144s-1,0-1.11-.07Z"></path>
      <path class="cls-10" d="M54.34,143.78c0,.2-.05.7.48.73a7.18,7.18,0,0,0,1.06,0l1.21-1.42c.22-.21.38-.23-.38-.27s-.8-.23-1.43,0a2,2,0,0,0-.94,1"></path>
      <path class="cls-11" d="M55.88,144.48a8.92,8.92,0,0,0,.69-1.1c.26-.51.29-.65.78-.54s1.65,0,2,.37.37.32.14.93a2.37,2.37,0,0,1-1.25,1.22,1.31,1.31,0,0,1-1.51,0,3.33,3.33,0,0,1-.89-.92"></path>
      <path class="cls-8" d="M52,140.31A2.23,2.23,0,0,0,52,138c-.71-1-1.76-1.16-2-.86l-.29.56c-.18.37.8.7.81.73Z"></path>
      <path class="cls-9" d="M50.8,141.34s1.42-.85,1.25-1.44a12.7,12.7,0,0,1-.3-1.26l-.33-.08s-.82.91-.83,1.17,0,.72,0,.84Z"></path>
      <path class="cls-10" d="M50.6,141.36c.15,0,.53,0,.51-.42a6.23,6.23,0,0,0-.08-.8l-1.17-.84c-.17-.14-.2-.27-.18.32s-.12.62.1,1.08a1.46,1.46,0,0,0,.82.66"></path>
      <path class="cls-11" d="M51,140.14a7,7,0,0,0-.89-.45c-.41-.17-.52-.18-.46-.57s-.1-1.26.15-1.57.21-.31.69-.17a1.77,1.77,0,0,1,1,.87,1,1,0,0,1,.12,1.15,2.62,2.62,0,0,1-.63.74"></path>
      <path class="cls-8" d="M44.89,142a1,1,0,0,0,.32-.93c-.17-.51-.57-.71-.72-.62l-.19.2.24.4Z"></path>
      <path class="cls-9" d="M44.28,142.27s.69-.17.7-.44,0-.56,0-.56l-.12-.07-.49.37-.1.36Z"></path>
      <path class="cls-10" d="M44.19,142.25l.27-.11.06-.34-.38-.49c0-.09,0-.14-.11.1s-.13.24-.1.46a.62.62,0,0,0,.26.38"></path>
      <path class="cls-11" d="M44.52,141.8l-.31-.3-.12-.29.27-.64.31,0a.78.78,0,0,1,.31.49.42.42,0,0,1-.1.49Z"></path>
      <path class="cls-8" d="M42.72,145.89s1.37-2.2.11-3.94-3-2-3.49-1.48a6.54,6.54,0,0,0-.5,1c-.31.64,1.39,1.22,1.41,1.26Z"></path>
      <path class="cls-9" d="M40.71,147.69s2.46-1.5,2.15-2.51-.53-2.18-.53-2.18l-.58-.13s-1.41,1.57-1.41,2,.06,1.26,0,1.46Z"></path>
      <path class="cls-10" d="M40.36,147.72c.25,0,.92,0,.89-.72a9.34,9.34,0,0,0-.16-1.39s-1.74-1.18-2-1.44-.35-.47-.31.55-.2,1.08.18,1.88a2.61,2.61,0,0,0,1.43,1.12"></path>
      <path class="cls-11" d="M41.09,145.61a11.37,11.37,0,0,0-1.53-.78c-.71-.28-.91-.31-.81-1s-.19-2.19.24-2.74.37-.54,1.2-.29A3,3,0,0,1,42,142.32a1.74,1.74,0,0,1,.23,2,4.37,4.37,0,0,1-1.1,1.29"></path>
      <g id="корни">
        <path class="cls-12" d="M53.69,96.92c-1.6,0-3.16.1-4.71.28a40.28,40.28,0,0,0-4.63.65,20,20,0,0,0-4.43,1.52,19.33,19.33,0,0,0-4,2.5l-.06-.07A19.46,19.46,0,0,1,39.73,99a21,21,0,0,1,4.45-1.81,19.57,19.57,0,0,1,4.74-.84,16.34,16.34,0,0,1,4.78.49Z"></path>
        <path class="cls-13" d="M44.14,97.54s-1.74,5-2.93,6-4.69,3.74-4.69,3.74"></path>
        <path class="cls-12" d="M30.29,107.13c1.74-1,3.5-1.92,5.28-2.83A57.09,57.09,0,0,1,41,101.84,18.58,18.58,0,0,1,44,101c1-.21,1.93-.45,2.89-.73s1.91-.57,2.93-.77a8.87,8.87,0,0,1,1.57-.18,2.14,2.14,0,0,1,1.62.43.47.47,0,0,1,0,.66.46.46,0,0,1-.26.13h-.07a6.36,6.36,0,0,1-1.31-.06,7.3,7.3,0,0,0-1.39.08c-1,.11-1.94.3-2.92.47l-3,.51a15.56,15.56,0,0,0-2.86.72,45.45,45.45,0,0,0-5.48,2.32c-1.79.87-3.54,1.83-5.26,2.83a.16.16,0,0,1-.23,0,.18.18,0,0,1,.06-.24Z"></path>
        <path class="cls-12" d="M43.19,112a9.84,9.84,0,0,1,1-3.74,10.53,10.53,0,0,1,2.42-3.09A12.5,12.5,0,0,1,49.9,103a14.11,14.11,0,0,1,3.75-.89l.42,0a.29.29,0,0,1,.32.26.4.4,0,0,1,0,.15.85.85,0,0,1-.31.34l-.07,0-.12.07-.14.09-.23.12a2.74,2.74,0,0,1-.46.15,9.28,9.28,0,0,1-.92.15,8.35,8.35,0,0,0-1.86.34A10.76,10.76,0,0,0,47,105.65,9.78,9.78,0,0,0,43.28,112s0,0-.05,0A0,0,0,0,1,43.19,112Z"></path>
        <path class="cls-12" d="M39,110.74a13.16,13.16,0,0,1,2.55-2,7.22,7.22,0,0,1,3.08-1.07.19.19,0,0,1,.19.17.19.19,0,0,1-.17.2h0a6.84,6.84,0,0,0-2.94,1,13.38,13.38,0,0,0-2.55,1.87h0a.12.12,0,0,1-.16,0A.11.11,0,0,1,39,110.74Z"></path>
        <path class="cls-12" d="M50.72,103.58a14.2,14.2,0,0,0-1.24,3,8.33,8.33,0,0,0-.22,1.62,12.39,12.39,0,0,1-.26,1.71,7.08,7.08,0,0,1-1.53,3.12,6.25,6.25,0,0,1-2.94,1.82.21.21,0,0,1-.27-.14.22.22,0,0,1,.14-.27,5.93,5.93,0,0,0,2.69-1.74,6.59,6.59,0,0,0,1.34-2.91,11.18,11.18,0,0,0,.21-1.63,9.54,9.54,0,0,1,.19-1.73,15.4,15.4,0,0,1,1.24-3.23.37.37,0,0,1,.66.33h0Z"></path>
        <path class="cls-12" d="M32.82,117.66a6.33,6.33,0,0,1,2.37-2A15.41,15.41,0,0,1,38,114.5a23.61,23.61,0,0,1,3-.68,14.25,14.25,0,0,0,2.88-.69,6.25,6.25,0,0,0,2.39-1.61,7.2,7.2,0,0,1,2.51-1.9,15.61,15.61,0,0,1,6.2-.56.64.64,0,0,1,0,1.28h-.08a13.87,13.87,0,0,0-5.78.07A6.2,6.2,0,0,0,46.72,112a6.82,6.82,0,0,1-2.66,1.62,16.74,16.74,0,0,1-3,.61,21.15,21.15,0,0,0-2.93.6A13.5,13.5,0,0,0,35.36,116a5.77,5.77,0,0,0-2.15,1.9l0,0a.21.21,0,0,1-.29.07.21.21,0,0,1-.08-.29Z"></path>
        <path class="cls-13" d="M41.59,113.94s-11.59-4.73-17.47-.75"></path>
        <path class="cls-12" d="M56.05,112.12a.53.53,0,0,1-.29.2l-.15,0-.23,0-.45.06a8,8,0,0,0-.85.17,5.74,5.74,0,0,0-1.57.66,5.22,5.22,0,0,0-2.08,2.63,6,6,0,0,1-.87,1.69,2.51,2.51,0,0,1-1.76.9c-1.3.09-2.47-.28-3.62-.2a4.42,4.42,0,0,0-1.65.38,7.54,7.54,0,0,0-1.45,1,6.7,6.7,0,0,0-1.18,1.3,3,3,0,0,1-1.64,1,14.29,14.29,0,0,1-1.8.35c-.59.1-1.25.11-1.76.25a4.47,4.47,0,0,0-2.63,2.1.21.21,0,0,1-.29.08.23.23,0,0,1-.08-.3,4.91,4.91,0,0,1,2.87-2.32,18.35,18.35,0,0,1,1.82-.28,14.1,14.1,0,0,0,1.74-.35,2.41,2.41,0,0,0,1.37-.86,7.67,7.67,0,0,1,1.24-1.38,7.57,7.57,0,0,1,1.56-1,5.18,5.18,0,0,1,1.85-.45c1.26-.08,2.47.27,3.59.17a1.8,1.8,0,0,0,1.36-.71,5.23,5.23,0,0,0,.77-1.51,5.85,5.85,0,0,1,2.3-3,6.61,6.61,0,0,1,1.75-.75,9.37,9.37,0,0,1,.92-.19l.45-.06.21,0,.07,0c.07,0-.1,0-.09.1a.33.33,0,0,1,.46-.11A.32.32,0,0,1,56.05,112.12Z"></path>
        <path class="cls-12" d="M49.59,117.26a8.49,8.49,0,0,1,.54,2.81,5.47,5.47,0,0,1-.68,2.79,4.58,4.58,0,0,1-.94,1.11l-1,.92a7.1,7.1,0,0,0-1.81,2,.14.14,0,0,1-.19.06.15.15,0,0,1-.07-.19h0a4.57,4.57,0,0,1,.79-1.19c.33-.35.67-.66,1-1a10.41,10.41,0,0,0,1.86-2,6.44,6.44,0,0,0,.11-5.2h0a.23.23,0,0,1,.14-.29A.23.23,0,0,1,49.59,117.26Z"></path>
        <path class="cls-13" d="M46.82,125.21a9.19,9.19,0,0,1-1.56,10.09"></path>
        <path class="cls-12" d="M56.79,114.22a6.9,6.9,0,0,1-2,2.49,17.18,17.18,0,0,1-2.59,1.73c-1.81,1-3.66,1.83-5.45,2.8a30.06,30.06,0,0,0-5.07,3.31,12,12,0,0,0-2,2.2,6.48,6.48,0,0,0-1,2.73h0a.21.21,0,0,1-.24.18.21.21,0,0,1-.19-.23,6.91,6.91,0,0,1,1.1-3,12.36,12.36,0,0,1,2.08-2.31,30.19,30.19,0,0,1,5.13-3.43c1.79-1,3.65-1.87,5.41-2.84a16.9,16.9,0,0,0,2.47-1.7A6.39,6.39,0,0,0,56.14,114l0-.07a.34.34,0,0,1,.44-.18.33.33,0,0,1,.19.44Z"></path>
        <path class="cls-13" d="M41.4,124.43a5.38,5.38,0,0,1-.42,4.78"></path>
        <path class="cls-12" d="M58.68,120.31a37.66,37.66,0,0,1-4.83,1.44,4,4,0,0,0-2,1.1,5.43,5.43,0,0,0-1.24,2h0a.24.24,0,0,1-.28.14.21.21,0,0,1-.13-.27,5.87,5.87,0,0,1,1.26-2.26,4.53,4.53,0,0,1,2.25-1.34,38.23,38.23,0,0,0,4.66-1.6h0a.42.42,0,1,1,.32.78Z"></path>
        <path class="cls-12" d="M59.05,122a5.68,5.68,0,0,1-1.11,1.41,10.52,10.52,0,0,1-1.31,1.09,27.05,27.05,0,0,1-2.88,1.66l-.67.41c-.21.17-.42.34-.62.52a12.27,12.27,0,0,0-1.13,1.15,6.87,6.87,0,0,0-1.47,2.8.09.09,0,0,1-.11.07.09.09,0,0,1-.08-.09,4.87,4.87,0,0,1,1.3-3.08,13.26,13.26,0,0,1,1.16-1.21l.64-.55c.23-.16.48-.31.72-.46a23,23,0,0,0,2.75-1.75,7,7,0,0,0,2-2.29l0,0a.42.42,0,0,1,.77.35Z"></path>
        <path class="cls-12" d="M59.52,122.72a29.22,29.22,0,0,0-2,4A20.2,20.2,0,0,0,56.3,131a.21.21,0,1,1-.42-.06,19.67,19.67,0,0,1,1.18-4.41,28.88,28.88,0,0,1,2-4.13.29.29,0,0,1,.4-.1.29.29,0,0,1,.11.4h0Z"></path>
        <path class="cls-12" d="M60.51,127.2a19.31,19.31,0,0,1-1.11,2.54A21.76,21.76,0,0,1,58,132.11a13,13,0,0,1-3.91,3.81.12.12,0,0,1-.17,0,.13.13,0,0,1,0-.17,12.75,12.75,0,0,0,3.61-3.88,21.59,21.59,0,0,0,2.2-4.85v0a.39.39,0,0,1,.49-.26.4.4,0,0,1,.26.49Z"></path>
        <path class="cls-12" d="M60.78,132a7.85,7.85,0,0,1-.82.76l-.79.68c-.26.23-.52.46-.76.71a3.32,3.32,0,0,0-.63.78l0,0a.16.16,0,0,1-.21.06.16.16,0,0,1-.07-.2,3.7,3.7,0,0,1,.65-.92c.23-.26.48-.51.73-.76l.76-.73a9,9,0,0,0,.69-.71l0,0a.27.27,0,0,1,.39,0,.28.28,0,0,1,0,.39Z"></path>
        <path class="cls-12" d="M61,133.78a22.81,22.81,0,0,1-.43,2.75,15.61,15.61,0,0,1-.82,2.65c-.39.88-.83,1.61-1.11,2.46a8,8,0,0,0-.47,2.59.23.23,0,0,1-.22.21.21.21,0,0,1-.21-.21v0a8.63,8.63,0,0,1,.35-2.75c.24-.89.7-1.75,1-2.54a17.92,17.92,0,0,0,.92-5.19v0a.5.5,0,1,1,1,0Z"></path>
        <path class="cls-12" d="M61.24,132.54a19.69,19.69,0,0,1,1.7,2.89,19.32,19.32,0,0,1,1.2,3.12,15.29,15.29,0,0,1,.55,3.29,11.88,11.88,0,0,1-.35,3.31.11.11,0,0,1-.14.09.12.12,0,0,1-.09-.14h0a11.23,11.23,0,0,0,.12-3.22,14.52,14.52,0,0,0-.72-3.13,20.19,20.19,0,0,0-1.34-2.91,19.74,19.74,0,0,0-1.78-2.62h0a.54.54,0,0,1,.07-.76.55.55,0,0,1,.77.07Z"></path>
        <path class="cls-12" d="M63.85,138.09a6.73,6.73,0,0,1,1.65,1.11,9.28,9.28,0,0,1,2.24,3.17,13.14,13.14,0,0,1,.62,1.83.07.07,0,0,1-.14,0,12.32,12.32,0,0,0-.68-1.78,9.83,9.83,0,0,0-1-1.62,9.37,9.37,0,0,0-1.3-1.37,6.39,6.39,0,0,0-1.56-1h0a.23.23,0,0,1-.12-.29.21.21,0,0,1,.28-.11Z"></path>
        <path class="cls-12" d="M61.2,127.67a3.29,3.29,0,0,1,1.24.32,4.57,4.57,0,0,1,1,.66,5.25,5.25,0,0,1,.84.86,9.33,9.33,0,0,1,.66,1,.22.22,0,0,1-.08.3.22.22,0,0,1-.29-.07h0a8.23,8.23,0,0,0-.65-.9,6.29,6.29,0,0,0-.8-.75,3.7,3.7,0,0,0-.92-.54,2.87,2.87,0,0,0-1-.22h0a.32.32,0,0,1,0-.63Z"></path>
        <path class="cls-12" d="M62.33,120.33a1.27,1.27,0,0,1,.74.17,1.78,1.78,0,0,1,.49.36,3.62,3.62,0,0,1,.66.88,8.25,8.25,0,0,1,.75,1.9c.19.64.3,1.32.45,1.91a14.17,14.17,0,0,0,.59,1.81,21.71,21.71,0,0,0,1.8,3.4,27.86,27.86,0,0,0,2.29,3.1h0a.21.21,0,1,1-.32.28,27,27,0,0,1-2.45-3.09,21.49,21.49,0,0,1-2-3.44,13.58,13.58,0,0,1-.68-1.88c-.19-.66-.31-1.27-.5-1.87a8.38,8.38,0,0,0-.73-1.7,3.16,3.16,0,0,0-.52-.66,1.31,1.31,0,0,0-.3-.2c-.08,0-.24-.07-.19-.07a.46.46,0,0,1-.53-.38A.46.46,0,0,1,62.33,120.33Z"></path>
        <path class="cls-13" d="M62,123.62s7.8-.54,8.63,4.37"></path>
        <path class="cls-12" d="M63.54,117.72a9.32,9.32,0,0,0,3.59,2.76c1.38.67,3.07,1,4.41,2.13.68.59,1,1.32,1.66,1.69s1.42.76,2.07,1.23a9.68,9.68,0,0,1,1.86,1.64,4.64,4.64,0,0,1,1.11,2.25.22.22,0,0,1-.18.25.21.21,0,0,1-.24-.17h0A6,6,0,0,0,75,126c-.67-.46-1.34-.75-2.1-1.18a4,4,0,0,1-1-.86,6.4,6.4,0,0,0-.79-.84c-1.17-1-2.79-1.24-4.31-1.92a10.1,10.1,0,0,1-4-3,.45.45,0,1,1,.72-.54h0Z"></path>
        <path class="cls-12" d="M74.44,125.14a17.64,17.64,0,0,0,.84,5.22,13.12,13.12,0,0,0,1.1,2.41,8.67,8.67,0,0,0,1.73,2h0a.12.12,0,0,1,0,.18.14.14,0,0,1-.18,0,9.16,9.16,0,0,1-1.87-2,12.49,12.49,0,0,1-1.23-2.45,17.24,17.24,0,0,1-.74-2.64,17.71,17.71,0,0,1-.34-2.73.34.34,0,0,1,.32-.35.35.35,0,0,1,.35.32h0Z"></path>
        <path class="cls-12" d="M63.26,115a25.16,25.16,0,0,0,3.26,1.49,5.08,5.08,0,0,0,1.57.36,3.7,3.7,0,0,0,1.44-.64c.51-.31,1-.67,1.61-1a2,2,0,0,1,1.17-.25,1,1,0,0,1,.39.17l.18.13.37.27a16.83,16.83,0,0,0,3,1.82,2.58,2.58,0,0,0,.77.2l.92,0a8.13,8.13,0,0,1,1.88.37,9.69,9.69,0,0,1,3.28,1.86,21,21,0,0,1,4.55,5.83.21.21,0,0,1-.08.29.21.21,0,0,1-.29-.08,20.54,20.54,0,0,0-4.57-5.56,8.88,8.88,0,0,0-3.1-1.66,7.13,7.13,0,0,0-1.72-.3l-.92,0a3.24,3.24,0,0,1-1-.22,17.47,17.47,0,0,1-3.28-1.85l-.38-.26-.19-.13s0,0,0,0a1.57,1.57,0,0,0-.57.19c-.49.26-1,.63-1.51,1a4.35,4.35,0,0,1-1.88.83,5.75,5.75,0,0,1-2-.37A28.37,28.37,0,0,1,62.72,116a.58.58,0,0,1-.26-.78.59.59,0,0,1,.78-.26h0Z"></path>
        <path class="cls-12" d="M63.81,111.64a4.84,4.84,0,0,1,1.89.61,3.69,3.69,0,0,1,1.4,1.45,4.57,4.57,0,0,1,.34.93,8,8,0,0,0,.21.78c.07.24.24.45.18.4a2.92,2.92,0,0,1,.84,0,4.36,4.36,0,0,1,1.62,1,12.34,12.34,0,0,1,1.2,1.31,4.77,4.77,0,0,0,1.1,1.2,1.54,1.54,0,0,0,1.41.14h0a.24.24,0,0,1,.29.11.22.22,0,0,1-.1.28,2,2,0,0,1-1.89-.06A5.12,5.12,0,0,1,71,118.57a13.1,13.1,0,0,0-1.2-1.16,3.52,3.52,0,0,0-1.33-.75.87.87,0,0,0-.28,0,1.43,1.43,0,0,1-.59,0,1,1,0,0,1-.6-.46,2.91,2.91,0,0,1-.24-.46c-.12-.3-.21-.58-.3-.87a2.79,2.79,0,0,0-.29-.68,3,3,0,0,0-2.43-1.3h0a.64.64,0,1,1,.07-1.27Z"></path>
        <path class="cls-14" d="M63.31,107.89s3.13,2.89,9.44,1.46,16.65,1.21,21.78,6.71"></path>
        <path class="cls-12" d="M64.37,101.71a37.59,37.59,0,0,0,3.78,1.83c.65.26,1.31.5,2,.7a10,10,0,0,1,1.06.31,5.12,5.12,0,0,1,1,.51,11.58,11.58,0,0,1,3.13,3.07,15.94,15.94,0,0,1,2.1,3.79.16.16,0,0,1-.1.21.17.17,0,0,1-.21-.09h0a16.83,16.83,0,0,0-2.25-3.54,11.17,11.17,0,0,0-3.07-2.76,4.23,4.23,0,0,0-.9-.39c-.29-.09-.64-.18-1-.26a21,21,0,0,1-2.08-.67,28.11,28.11,0,0,1-3.94-1.83.5.5,0,0,1,.49-.88Z"></path>
        <path class="cls-12" d="M69.3,104.06a17.14,17.14,0,0,1,1.23,2.16,11.47,11.47,0,0,1,.82,2.32,9.6,9.6,0,0,0,1,2.11,7.62,7.62,0,0,0,1.46,1.8h0a.22.22,0,0,1-.27.34A7.83,7.83,0,0,1,71.88,111a9.83,9.83,0,0,1-1.16-2.2,10.83,10.83,0,0,0-.89-2.18,16.13,16.13,0,0,0-1.25-2h0a.45.45,0,0,1,.09-.63.46.46,0,0,1,.63.1Z"></path>
        <path class="cls-12" d="M64,100.9a.82.82,0,0,1,.91-.37l.88.09c.59.07,1.17.14,1.76.23,1.16.17,2.33.4,3.48.67,2.29.57,4.53,1.27,6.75,2,4.42,1.51,8.83,3,13.28,4.51a.12.12,0,0,1,.07.15.11.11,0,0,1-.14.07c-2.27-.57-4.52-1.23-6.76-1.89l-6.7-2.1c-2.23-.68-4.44-1.42-6.7-2-1.12-.27-2.26-.49-3.41-.65-.57-.08-1.14-.16-1.72-.22l-.86-.08A.86.86,0,0,1,64,100.9Z"></path>
        <path class="cls-12" d="M79.48,105.7c-1-1.11-2.12-2.2-3.26-3.22a11.61,11.61,0,0,0-1.77-1.36,6.44,6.44,0,0,0-2.13-.56,14.55,14.55,0,0,1-2.3-.44,5.77,5.77,0,0,0-2.13-.48c-.67,0-1.4.38-2.3.36a3.63,3.63,0,0,1-2.32-1.1.46.46,0,1,1,.63-.67.1.1,0,0,1,.05.06l0,0a2.38,2.38,0,0,0,1.66,1c.66.06,1.38-.28,2.24-.31a6.29,6.29,0,0,1,2.33.56,12.91,12.91,0,0,0,2.21.46,7.09,7.09,0,0,1,2.28.67,11.84,11.84,0,0,1,1.85,1.47c1.14,1.05,2.21,2.15,3.26,3.28a.21.21,0,0,1,0,.3A.22.22,0,0,1,79.48,105.7Z"></path>
        <path class="cls-12" d="M72.93,100.26a3,3,0,0,1,1.75-1.09,3.48,3.48,0,0,1,2,.23,6.61,6.61,0,0,1,1.69,1,14.8,14.8,0,0,1,1.43,1.31.22.22,0,0,1,0,.3.23.23,0,0,1-.31,0h0a14.84,14.84,0,0,0-1.4-1.23,6,6,0,0,0-1.58-.89,2.93,2.93,0,0,0-1.72-.18,2.49,2.49,0,0,0-1.4.88l0,0a.28.28,0,0,1-.44-.33Z"></path>
        <path class="cls-12" d="M84.23,110a10.35,10.35,0,0,1,1,1.93,6.33,6.33,0,0,1,.31,1,2,2,0,0,0,.29.92,7.38,7.38,0,0,0,1.47,1.42,3.14,3.14,0,0,1,1.27,1.82.22.22,0,1,1-.43.07h0v0A2.78,2.78,0,0,0,87,115.61a7.91,7.91,0,0,1-1.56-1.51,2.41,2.41,0,0,1-.35-1.07,5.82,5.82,0,0,0-.3-1,10.91,10.91,0,0,0-.94-1.83h0a.24.24,0,0,1,.07-.33.23.23,0,0,1,.32.07Z"></path>
      </g>
      <path class="cls-15" d="M53.52,92.3s-2.16,2.86-.86,9.46,8.62,27.66,7.62,29.81-.68,6,.09,4.59S68,98.32,63.58,92.3,53.52,92.3,53.52,92.3Z"></path>
      <path class="cls-12" d="M58.41,94s-2,5.44-1.15,9,6.61,23.5,4,30.38c-1.64,4.39-1.7,2.95-1.53,1.33a19.37,19.37,0,0,0-.1-4.81c-.64-4.39-2.16-12.86-5.07-19-4.1-8.6-1.45-20-1.45-20Z"></path>
      <polygon class="cls-16" points="11.01 87.72 59.2 107.86 103 89.29 59.2 73.84 11.01 87.72"></polygon>
      <g id="качан">
        <path class="cls-17" d="M97.74,45.55s3.89-2.69,8.31,1.29c0,0,6.79-3.33,7.76,5.59,0,0,2.48,5.16,2.59,7.52a19.44,19.44,0,0,1-5.29,14.62c-5.49,5.92-10.13,7-12.29,7.53a35.68,35.68,0,0,1-17-.65c-7.66-2.25-5.61-2.15-9.17-2.25s-8.3,5.48-8.3,7.63.87-14,.87-14L77.48,56.69Z"></path>
        <path class="cls-18" d="M44,4.16a30.05,30.05,0,0,1,25.12,0c7,3.29-4.32,13.33-6.47,13.55s-13.48-2.26-14-3S42.64,5.18,44,4.16Z"></path>
        <path class="cls-19" d="M55.37,12.76s.06-2.5.56-3.12a6.21,6.21,0,0,1,1.64-1.47c.31-.11,1.6-1,1.55-3.77,0,0-.08-.55-.19,0s-.22,2.86-1.41,3.26a3.78,3.78,0,0,0-2.15,1.92A42.36,42.36,0,0,1,56.54,2.4s.28-1-.35,0a28.48,28.48,0,0,0-1.54,6.35s-.15-.42-1-.77-1.13-1.89-.51-3.5c0,0,.07-.46-.19-.08s-1.12,3.14.48,4.09.72,4.27.72,4.27Z"></path>
        <path class="cls-20" d="M23.89,23.41S27.13,7.28,42,1.26c0,0,5.44-2.52,5.39-.43S47.07,6.64,48.69,8a52.13,52.13,0,0,0,8.57,5.81c2.21,1-1,8.38-1.45,9S44,30.23,41.47,30.5s-14.72-1.61-16-4A27.74,27.74,0,0,1,23.89,23.41Z"></path>
        <path class="cls-21" d="M77,75.65c.21-.07,6.83-2.65,6.83-2.65s8-2.44,8.62-3.3-1-5-1-5.28,1.17-1.35,1.17-1.35-.85-.11-.26,1.29,1.62,3.55,1.57,4.19c0,0,3.93-2.31,4.09-3.65a12.86,12.86,0,0,0-.86-5.16c-.54-1.24-.8-4.3.9-5.7,0,0-.09.27-.47,1.62a7.38,7.38,0,0,0,.81,5,7.17,7.17,0,0,1,.92,3.07s3.66-5.38,4.09-6.4.6-.48.54.06-2.8,6.34-2.8,6.34a6.56,6.56,0,0,1,3.61-.7c1.84.27,4.85,0,5.72-3.92,0,0,.35-.78.43,0a6.23,6.23,0,0,1-1.46,3.36,5.07,5.07,0,0,1-2.59,1.15,10.86,10.86,0,0,0-6.63,1.64s-2.74,4-3.74,4.41c0,0,3.31-.24,4.23.81s-.49.94-.49.94-1.67-1.51-5.57-.3c0,0-6.38,6-17.64,5.42Z"></path>
        <path class="cls-18" d="M76.4,76.08s8.46,1.07,14.07,0a20.24,20.24,0,0,0,9.27-4.57s4.37-5.59,6.58-6.07,3.07.1,4.52-.43.65-3.87,1.89-5.16,1.62-2.8,1.24-3.71-1.4-2.69-1.4-3.87-.76-3.55-2.16-4.41a3.72,3.72,0,0,0-3.82,0c-1,.54-1.35-.2-1.84-.58a5.8,5.8,0,0,0-5.33-1.51c-3.45.48.48-.86.48-.86a6.34,6.34,0,0,1,5.93,1.61s.43.75,1.08,0,5.87-.43,6.79,3.6-.11,2.63,1.46,5.05a3,3,0,0,1-.43,4s-1.41,1.24-1.46,5.32c0,3.17-3.62,2.63-5.21,2.23a2.49,2.49,0,0,0-2,.39,32.73,32.73,0,0,0-5,4.91c-5.18,5.86-15.53,5.16-15.53,5.16s-8.37-.22-9.21-.63S76.4,76.08,76.4,76.08Z"></path>
        <path class="cls-22" d="M36.9,28.82s.15-4.45,1.4-5.56a15.2,15.2,0,0,1,4.1-2.61c.76-.18,4-1.79,3.85-6.7,0,0-.18-1-.47,0s-.54,5.08-3.52,5.8A8.78,8.78,0,0,0,37.91,22a7.06,7.06,0,0,0-1,1.15c-.1.28,1.3-9.86,2.91-12.76,0,0,.72-1.86-.86,0S35,20.9,35.11,21.69c0,0-.36-.76-2.45-1.37S29.86,17,31.4,14.09c0,0,.18-.82-.46-.14s-2.81,5.59,1.18,7.27,1.8,7.6,1.8,7.6Z"></path>
        <path class="cls-22" d="M34.67,33.4s3.13-9.06,7.66-9.21,3.45-.14,4.2-1A5.81,5.81,0,0,1,52.41,21s.29.05.2-.34.39-6.65,5.14-8.63,8.41-4.73,8.62-5.76,1-4.08,4.21-3.27,7.49,3.81,9.86,6.82,3.61,21.45,3,23.54-10.62,12.42-13,14.41S54.3,54,51.66,53.88s-4.75-2.85-5.88-4.3S35.7,36.2,35.38,35.5A17.29,17.29,0,0,1,34.67,33.4Z"></path>
        <path class="cls-20" d="M70.85,39.42s3.66-9.13.59-24.18c0,0-.38-1.67-.59,1s-.39,11.57-1.95,18.18c0,0-6.09-5.74-8.3-7.31s-3.5-6.14-2.37-8.23c0,0-.21-1-.91-.22s-1.24,6.56,2.1,9.19,8.78,7,8.84,9.62-3.88,9-3.88,9-.81,2.42-1.73.86a13.47,13.47,0,0,0-6.3-5.59,15,15,0,0,1-7.61-7.47c-1.07-2.74-.75-4.73-1-4.89s-.86-.16-.92.59.49,6.35,4.42,9.73,8.41,4.52,10.08,7.8,7.07-1.72,7.07-1.72Z"></path>
        <path class="cls-17" d="M13.47,44.48s-9.2-1.08-11.64.28c0,0,.88,2.92.29,3.67S-1,52.75.44,55.71s.44,3.65,2.32,5.43,0,2.36,0,4-.48,6.67,6.63,9.2,6.31.16,8.2,2.74,4.69,3.92,12.5,2.74,6.09-2.9,11.16-2.47,7.27,1.5,8.86,3.17,1.17,4.19,1.49,4.89.32,2.47,2.75,3.81,4.21,2.8,8.63,1,1.09-5.15,3.18-7.63c0,0,2.1-3.28,4.25-3.82s1.14-.7,3.4-1.18a22.71,22.71,0,0,0,5.34-1.88A30.36,30.36,0,0,0,86.1,71c3-2.85,6.15-5.41,9.74-12.72s4.38-10.75,4.38-17.56a57.88,57.88,0,0,0-2.73-16.84c-.93-2.44-3.23-6.6-9.12-12.19S81.9,5.49,81.32,4.2s-2.51-.43-2.3.29,1.08,2.79.65,4.37-1.37,3.29-1.15,6.3a16.76,16.76,0,0,0,.93,5.52c.65,1.87,1.3,2.44-.14,4.09s-1.58,2.94-2.3,5.16.14,4.66-1.73,6-3.37,1.72-5,3-4.09,5.23-5.1,6.52-2.59,1.36-4.17,1.36-5.89-1.36-10.56,4.73c0,0,.43-8.67-4.17-11.61s-3.24-1.24-3.83-4.53A11.1,11.1,0,0,0,36,26.92C31.73,24.7,31.8,24.55,31.15,23S26.27,18.89,25,18s-2.87-3.15-3.88-1.58.29,1.22-1.65,4.8-7,15.48-6,23.3"></path>
        <path class="cls-18" d="M65.28,77.21s-4.48-1.73-6-2.58c-1.18-.68-8.44-2.31-9.85-19.12-.07-.86,1.22-9.82-3.88-14.4a6.6,6.6,0,0,0-1.94-1.36c-.86-.29-2.52-.43-2.59-3.09S41.14,31,36,27.85a12.42,12.42,0,0,1-6-5.16A11,11,0,0,0,26.45,20,19.46,19.46,0,0,1,22,15.84a6.36,6.36,0,0,1,1.77.95,25.56,25.56,0,0,0,4,3A10.2,10.2,0,0,1,31.15,23a3.94,3.94,0,0,0,1.93,2.33,49.82,49.82,0,0,1,4.86,2.76,11.13,11.13,0,0,1,3.33,3.7A16,16,0,0,1,42.58,36c.11,1.12-.26,1.94,1,2.54a12.46,12.46,0,0,1,3.08,1.73c.77.7,3.77,3,3.79,11.1a17.57,17.57,0,0,1,4.34-3.62,6.35,6.35,0,0,1,3.49-1c.18,0,4.16.4,5.25-.15a9,9,0,0,0,3.6-3.83,16.38,16.38,0,0,1,3.34-3.94s1.67-1,2.85-1.68,3-1.46,3.13-3.26.64-5.5,1.52-7,2.7-2.71,2.07-4.43-1.79-6.74-1.58-8.5a31.91,31.91,0,0,1,.91-4.2s.92-4.56.33-5.69c0,0,.07-.44.47,0A12.07,12.07,0,0,1,81,7s1.29,10.78,1.51,11.64.79,2.22-.29,6.13-2.91,10.64-3.7,11.43-5.9,3.72-6.72,4.48-3.56,6-5.07,6.81a28.74,28.74,0,0,1-6.43,1.82c-1.51.29-5.18,1-6.76,3.12S50.77,56,50.77,56a22.47,22.47,0,0,0,1,5.23c.76,1.83.9,9.82,13.66,15.56C65.44,76.8,66.48,77,65.28,77.21Z"></path>
        <path class="cls-18" d="M40.12,76.94S27,71.08,22.55,62.21c0,0-.22-1-3-3s-4.15-8-4.32-9.83c0,0,2.38,8.11,5.88,9.56,0,0-3.61-10.42-2.37-16.12,0,0,1.24,13.28,4.8,17.06,0,0-.22-6.69,2.85-9.64s5.23-13.12,3.78-19c0,0,4.2,9.68-3.24,20.75,0,0-2.8,5-2,8.12s5.77,9.08,9,10.48c0,0-.75-4.3,2.32-10a26.56,26.56,0,0,0,3-14.57s.88,10.56-2,14.89S35.75,71.4,36,71.56a78.79,78.79,0,0,0,8.52,3.82,6.49,6.49,0,0,1,0-5.86c1.56-3.17,2.48-6.23,1.83-7.95a10.08,10.08,0,0,1-.16,6c-1.35,4.25-1.73,6.56.81,8.28s8,3.93,5.59,11.86a10.14,10.14,0,0,1-1-2.29A24.82,24.82,0,0,0,51,81.86a9.69,9.69,0,0,0-2.15-2.47c-.61-.37-2.91-1.3-2.91-1.3S40.82,77.27,40.12,76.94Z"></path>
        <path class="cls-18" d="M62.06,86.18a12,12,0,0,1,4.6-9.53,4.74,4.74,0,0,0,1.51-2.79c.21-1.72-4.64-6.45-4.53-10.25a39.75,39.75,0,0,1,.93-9.24s-.2,7.34.08,9.31c.66,4.71,6.54,8.74,5.39,10,0,0,11.64-6.3,11.71-9s-7-13.25-1.58-22.28c0,0-3.59,10.24,2.23,17.41,0,0,1.8,1.29,1.51,4.51,0,0,5.53-5.58,6.11-7.38s.2-1.69-1.37-9.59a13,13,0,0,1-.28-6.6s-.29,3.8.57,5.44,3.09,5.81,3,6.88,4.17-16.48-2.59-25.8a26.35,26.35,0,0,1,7,23.08C93.83,64.61,81.18,72,81.18,72S64.43,80,62.06,86.18Z"></path>
      </g>
      <path class="cls-23" d="M59.33,97.2a1.2,1.2,0,0,0-1.14-.42c-.63.2-.88.7-.77.88a2.37,2.37,0,0,0,.23.24c.16.15.49-.29.5-.29Z"></path>
      <path class="cls-9" d="M59.65,98s-.19-.86-.52-.87-.69-.06-.69-.06l-.09.16s.32.56.45.61.38.1.43.13A3.73,3.73,0,0,0,59.65,98Z"></path>
      <path class="cls-10" d="M59.63,98.07c0-.08.08-.27-.13-.33a3.19,3.19,0,0,0-.42-.09s-.51.39-.61.45-.17.05.13.14.29.17.56.13A.8.8,0,0,0,59.63,98.07Z"></path>
      <path class="cls-11" d="M59.08,97.65a3.83,3.83,0,0,0-.37.37c-.15.18-.18.23-.36.14s-.66-.16-.78-.34-.12-.16,0-.38a1,1,0,0,1,.6-.37.53.53,0,0,1,.6.13A1.4,1.4,0,0,1,59.08,97.65Z"></path>
      <path class="cls-23" d="M45.67,87.09a1.73,1.73,0,0,0-1.76-.25c-.85.47-1,1.26-.84,1.49a3.65,3.65,0,0,0,.41.27c.27.17.61-.56.63-.57Z"></path>
      <path class="cls-9" d="M46.37,88.08s-.54-1.17-1-1.09-1,.13-1,.13l-.08.25s.63.71.83.73.57,0,.66.06S46.37,88.08,46.37,88.08Z"></path>
      <path class="cls-10" d="M46.37,88.24c0-.11,0-.41-.28-.44a5.66,5.66,0,0,0-.63,0s-.62.72-.75.84-.22.13.23.17.47.14.85,0A1.17,1.17,0,0,0,46.37,88.24Z"></path>
      <path class="cls-11" d="M45.46,87.8a5.65,5.65,0,0,0-.43.65c-.16.3-.18.39-.47.31s-1,0-1.21-.24-.22-.2-.07-.56a1.41,1.41,0,0,1,.75-.71.78.78,0,0,1,.91,0A2,2,0,0,1,45.46,87.8Z"></path>
      <path class="cls-23" d="M53.25,88s-3.64-1.82-6.17.4-2.67,5-1.8,5.67a11.92,11.92,0,0,0,1.59.63c1.05.39,1.7-2.34,1.76-2.38S53.25,88,53.25,88Z"></path>
      <path class="cls-9" d="M56.35,90.83s-2.7-3.61-4.23-3S48.79,89,48.79,89l-.1.92s2.65,2,3.35,1.91,2-.29,2.27-.3A15.27,15.27,0,0,0,56.35,90.83Z"></path>
      <path class="cls-10" d="M56.46,91.38c0-.4-.19-1.43-1.27-1.29a14.91,14.91,0,0,0-2.14.46s-1.59,2.88-1.94,3.38-.68.6.89.4,1.71.16,2.91-.56A4.12,4.12,0,0,0,56.46,91.38Z"></path>
      <path class="cls-11" d="M53.05,90.55a18.45,18.45,0,0,0-1,2.5c-.32,1.15-.34,1.46-1.38,1.41s-3.37.62-4.31,0-.88-.5-.63-1.83a4.84,4.84,0,0,1,2.07-3A2.69,2.69,0,0,1,50.87,89,7.08,7.08,0,0,1,53.05,90.55Z"></path>
      <path class="cls-23" d="M65.81,88.73s-3.05-1.8-5.38,0-2.62,4.23-1.9,4.82a10.09,10.09,0,0,0,1.34.64c.89.4,1.62-1.93,1.67-2S65.81,88.73,65.81,88.73Z"></path>
      <path class="cls-9" d="M68.33,91.4s-2.12-3.29-3.49-2.84-3,.8-3,.8l-.15.78S63.92,92,64.53,92s1.72-.14,2-.12A14.47,14.47,0,0,0,68.33,91.4Z"></path>
      <path class="cls-10" d="M68.39,91.89c0-.35-.08-1.26-1-1.2a13.68,13.68,0,0,0-1.88.27s-1.56,2.41-1.89,2.81-.63.49.76.4,1.47.25,2.55-.3A3.58,3.58,0,0,0,68.39,91.89Z"></path>
      <path class="cls-11" d="M65.48,91a16.67,16.67,0,0,0-1,2.11c-.35,1-.38,1.25-1.28,1.14s-3,.33-3.74-.24-.74-.49-.44-1.63a4.26,4.26,0,0,1,2-2.46,2.35,2.35,0,0,1,2.71-.37A6.06,6.06,0,0,1,65.48,91Z"></path>
      <path class="cls-23" d="M73.88,85.51s-3-2.32-5.73-.75-3.36,4.16-2.67,4.87a10.47,10.47,0,0,0,1.34.87c.89.55,2-1.84,2.05-1.86Z"></path>
      <path class="cls-9" d="M76.2,88.7s-1.82-3.8-3.34-3.5a31.87,31.87,0,0,1-3.26.45l-.26.82s2.08,2.29,2.73,2.36,1.86.09,2.14.14A13.72,13.72,0,0,0,76.2,88.7Z"></path>
      <path class="cls-10" d="M76.2,89.22c0-.37.09-1.35-.93-1.41a14.06,14.06,0,0,0-2,0s-2,2.36-2.39,2.75-.74.43.75.53,1.53.45,2.76,0A3.86,3.86,0,0,0,76.2,89.22Z"></path>
      <path class="cls-11" d="M73.23,87.84A17.4,17.4,0,0,0,71.86,90c-.51,1-.58,1.27-1.52,1s-3.2,0-4-.76-.72-.62-.25-1.79a4.53,4.53,0,0,1,2.43-2.36,2.53,2.53,0,0,1,2.94,0A6.53,6.53,0,0,1,73.23,87.84Z"></path>
      <path class="cls-23" d="M76.21,95.22a1.81,1.81,0,0,0,1.67-.82c.44-.91.15-1.71-.16-1.78a3.13,3.13,0,0,0-.52,0c-.33,0-.2.84-.21.86S76.21,95.22,76.21,95.22Z"></path>
      <path class="cls-9" d="M75,94.79s1.16.69,1.52.33.79-.7.79-.7l-.08-.26A3.91,3.91,0,0,0,76.1,94c-.19.1-.51.31-.6.35A4.43,4.43,0,0,0,75,94.79Z"></path>
      <path class="cls-10" d="M74.92,94.65c.06.1.22.37.51.21a5.67,5.67,0,0,0,.54-.38s.1-1,.15-1.16.11-.25-.3,0-.49.16-.74.49A1.26,1.26,0,0,0,74.92,94.65Z"></path>
      <path class="cls-11" d="M76,94.48a6.26,6.26,0,0,0,0-.81c0-.35-.07-.44.22-.55s.87-.56,1.2-.5.3,0,.38.44a1.41,1.41,0,0,1-.22,1.06.82.82,0,0,1-.78.53A1.92,1.92,0,0,1,76,94.48Z"></path>
      <path class="cls-23" d="M47.6,95.87a2.34,2.34,0,0,0,2.2-.9c.65-1.12.34-2.17,0-2.28a4,4,0,0,0-.65,0c-.43,0-.33,1.06-.35,1.08S47.6,95.87,47.6,95.87Z"></path>
      <path class="cls-9" d="M46.12,95.21s1.43,1,1.91.56A12.81,12.81,0,0,1,49.1,95L49,94.6a4.71,4.71,0,0,0-1.45-.28c-.25.11-.68.34-.79.38A6.45,6.45,0,0,0,46.12,95.21Z"></path>
      <path class="cls-10" d="M46,95c.06.14.24.5.62.31a6.47,6.47,0,0,0,.72-.42s.22-1.25.29-1.47.17-.3-.38,0-.64.15-1,.56A1.55,1.55,0,0,0,46,95Z"></path>
      <path class="cls-11" d="M47.36,94.91a7.66,7.66,0,0,0,0-1c0-.45,0-.57.33-.68s1.15-.63,1.56-.53.39.07.46.58a1.84,1.84,0,0,1-.39,1.34,1,1,0,0,1-1,.61A2.69,2.69,0,0,1,47.36,94.91Z"></path>
      <path class="cls-23" d="M57.66,90.13a1.34,1.34,0,0,0,1.36.23c.66-.34.84-1,.68-1.13a2.58,2.58,0,0,0-.31-.22c-.2-.14-.49.42-.5.42Z"></path>
      <path class="cls-9" d="M57.14,89.35s.4.92.76.86a6.68,6.68,0,0,1,.78-.07l.07-.2s-.47-.56-.63-.58-.44,0-.5-.06A2.83,2.83,0,0,0,57.14,89.35Z"></path>
      <path class="cls-10" d="M57.15,89.22c0,.09,0,.32.2.35a4.59,4.59,0,0,0,.49,0s.5-.54.6-.63.18-.1-.18-.13-.36-.13-.65,0A.88.88,0,0,0,57.15,89.22Z"></path>
      <path class="cls-11" d="M57.84,89.58a3.87,3.87,0,0,0,.35-.49c.13-.23.15-.3.37-.23s.76,0,.93.22.17.15,0,.43-.29.37-.6.53a.59.59,0,0,1-.7,0A1.49,1.49,0,0,1,57.84,89.58Z"></path>
      <path class="cls-23" d="M69.89,95.29s3.42.83,5.13-1.52,1.27-4.77.42-5.12A9.56,9.56,0,0,0,74,88.42c-1-.13-1,2.3-1,2.34S69.89,95.29,69.89,95.29Z"></path>
      <path class="cls-9" d="M66.73,93.47s3,2.53,4.14,1.7a30.31,30.31,0,0,1,2.58-1.6l-.09-.8s-2.61-1.15-3.19-1-1.6.62-1.86.68A13.27,13.27,0,0,0,66.73,93.47Z"></path>
      <path class="cls-10" d="M66.53,93c.11.33.43,1.17,1.32.85a13.57,13.57,0,0,0,1.72-.8s.78-2.74,1-3.22.46-.64-.83-.17-1.47.19-2.34,1A3.54,3.54,0,0,0,66.53,93Z"></path>
      <path class="cls-11" d="M69.57,93.08a15.51,15.51,0,0,0,.35-2.3c.06-1,0-1.3.9-1.45s2.72-1.17,3.62-.85.85.25.89,1.42a4.21,4.21,0,0,1-1.17,2.91,2.34,2.34,0,0,1-2.47,1.13A6.06,6.06,0,0,1,69.57,93.08Z"></path>
      <path class="cls-23" d="M54.16,93.32s2,1.15,3.57,0,1.69-2.85,1.2-3.23a6.69,6.69,0,0,0-.9-.41C57.44,89.38,57,90.94,57,91S54.16,93.32,54.16,93.32Z"></path>
      <path class="cls-9" d="M52.45,91.58s1.45,2.16,2.36,1.84,1.95-.57,1.95-.57l.09-.52s-1.48-1.22-1.89-1.2-1.14.11-1.32.1A8.84,8.84,0,0,0,52.45,91.58Z"></path>
      <path class="cls-10" d="M52.4,91.26c0,.23.07.83.7.78a9.18,9.18,0,0,0,1.25-.2s1-1.62,1.22-1.9.41-.33-.51-.26-1-.14-1.69.24A2.34,2.34,0,0,0,52.4,91.26Z"></path>
      <path class="cls-11" d="M54.35,91.84A10.86,10.86,0,0,0,55,90.42c.22-.65.24-.84.84-.77s2-.26,2.49.1.5.32.31,1.08a2.82,2.82,0,0,1-1.27,1.66,1.57,1.57,0,0,1-1.8.29A4,4,0,0,1,54.35,91.84Z"></path>
    </g>
  </g>
</svg>
