<?xml version="1.0" encoding="UTF-8"?>
<svg xmlns="http://www.w3.org/2000/svg" viewBox="0 0 86.96 174.81">
  <defs>
    <style>.cls-1{fill:#84a63c;}.cls-2{fill:none;stroke:#d7d7d7;stroke-linecap:round;stroke-linejoin:round;stroke-width:1.15px;}.cls-3{fill:#e9c671;}.cls-4{fill:#d9a458;}</style>
  </defs>
  <g id="Слой_2" data-name="Слой 2">
    <g id="Слой_1-2" data-name="Слой 1">
      <path class="cls-1" d="M69.72,52.58s-3.22-7.39,2-9.12a38.69,38.69,0,0,0,.33,4C72.31,48.52,74,51.7,69.72,52.58Z"></path>
      <path class="cls-1" d="M70.68,53.39a5.26,5.26,0,0,0,5,4.83,20.81,20.81,0,0,0-1.64-4.83C73.19,52,70.26,51.74,70.68,53.39Z"></path>
      <path class="cls-1" d="M71.76,52s6.91-9.65,9.87-.44a21.47,21.47,0,0,0-4.28,1C76.26,53.12,75.93,54.34,71.76,52Z"></path>
      <path class="cls-1" d="M41.32,15.83s.88-3.73-4.71-3.07c0,0-1.43.88-4.28-1C32.33,11.77,35.07,20.54,41.32,15.83Z"></path>
      <path class="cls-1" d="M41.76,14.51s4-4,6.36-2.74,3,2.09,4.16,1.87S45.71,21.53,41.76,14.51Z"></path>
      <path class="cls-1" d="M44.55,44.92a1.71,1.71,0,0,0-.37-1.47c-.51-.64-1.62-1.29-4-1.49-5.15-.44-4.71-1.54-4.71-1.54S36.66,51.38,44.55,44.92Z"></path>
      <path class="cls-1" d="M67.6,43.46S69,40.3,64,39.31s-4.27-2.41-4.27-2.41S59.27,47.6,67.6,43.46Z"></path>
      <path class="cls-1" d="M69.17,39.31s2.19-3.5-2.09-5.2A13,13,0,0,1,65,32.52C64.56,32,61.93,39.2,69.17,39.31Z"></path>
      <path class="cls-1" d="M65.69,79.76s-2.62-9.5-10.59-4.09C55.1,75.67,57.9,83.15,65.69,79.76Z"></path>
      <path class="cls-1" d="M43,9.07c1.29-2-1,5.21-1.31,7.46a10.16,10.16,0,0,0-.16,1.9,12.92,12.92,0,0,0,.69,3.77c.18.61.43,1.21.65,1.82s.51,1.2.79,1.78l.87,1.75.94,1.71A18.7,18.7,0,0,1,47.12,33,14.32,14.32,0,0,1,47.79,37,20.43,20.43,0,0,1,46.17,45c-1,2.51-2.15,4.87-3.19,7.26-.52,1.19-1,2.39-1.41,3.6a20.47,20.47,0,0,0-.9,3.65A21,21,0,0,0,41.32,67c.61,2.5,1.44,5,2.27,7.47s1.67,5,2.31,7.63A33,33,0,0,1,47,90.14c0,.69,0,1.38-.09,2.07l-.12,1-.16,1c-.2,1.34-.49,2.65-.79,4-.6,2.6-1.3,5.12-1.83,7.65a44.42,44.42,0,0,0-.76,15.24l.25,1.91.3,2,.6,3.9.61,3.9.3,1.95.15,1,.07.49,0,.25,0,.12v.11c-1.36.12,3.06-.23-3,.47a1.54,1.54,0,0,1,3-.5c-6.09.72-1.68.32-3,.43V137l0-.12,0-.24-.07-.49-.14-1-.27-2-.54-3.9-.54-3.91-.27-2-.23-2a48.79,48.79,0,0,1-.16-8.11,49.66,49.66,0,0,1,1.21-8c.6-2.61,1.34-5.15,2-7.67.31-1.26.61-2.51.82-3.77l.17-.95.12-.92c0-.62.11-1.24.11-1.87a30.87,30.87,0,0,0-.88-7.54c-.57-2.51-1.35-5-2.14-7.5S40,70,39.42,67.4a23,23,0,0,1-.56-8.16,30.4,30.4,0,0,1,2.57-7.71c1.1-2.41,2.31-4.74,3.28-7.13A20.18,20.18,0,0,0,46.43,37,13.83,13.83,0,0,0,46,33.3a17.54,17.54,0,0,0-1.43-3.53L43.63,28l-.83-1.81c-.27-.61-.5-1.23-.75-1.85s-.45-1.26-.61-1.91a14.07,14.07,0,0,1-.6-4,10.53,10.53,0,0,1,.25-2C41.23,15.76,43,9.07,43,9.07Z"></path>
      <g id="_4" data-name="4">
        <path class="cls-1" d="M25,45.11A18,18,0,0,1,27,48a21.7,21.7,0,0,1,1.47,3.17c.2.54.37,1.12.54,1.66s.33,1.07.52,1.59a19.48,19.48,0,0,0,5.69,8.07,24,24,0,0,0,5.54,3.56l0,0a1,1,0,0,1-.84,1.76l-.06,0a32.37,32.37,0,0,1-3-1.93,23.44,23.44,0,0,1-7-7.87,21.34,21.34,0,0,1-1.38-3.23c-.19-.56-.35-1.12-.49-1.69s-.28-1.08-.46-1.61a18.71,18.71,0,0,0-3.11-5.89l0,0a.36.36,0,0,1,.06-.5A.35.35,0,0,1,25,45.11Z"></path>
      </g>
      <g id="_2" data-name="2">
        <path class="cls-1" d="M42.33,75.12a14.11,14.11,0,0,0,1.73-2A16.93,16.93,0,0,0,45.37,71c.48-.91.91-1.9,1.49-3a39.85,39.85,0,0,0,2-4.09.11.11,0,0,1,0,0,.72.72,0,0,1,.76-.52.52.52,0,0,1,.43.7c-.48,1.36-1.43,3.19-2,4.41s-1,2.27-1.45,3.26a18.85,18.85,0,0,1-1.33,2.37,11.21,11.21,0,0,1-1.83,2.25.81.81,0,0,1-1.13,0,.78.78,0,0,1,0-1.12l0,0S42.33,75.13,42.33,75.12Z"></path>
      </g>
      <path class="cls-1" d="M45.11,86.29a35.79,35.79,0,0,0,5.63-4.88A19.66,19.66,0,0,0,53,78.5a12.88,12.88,0,0,0,.89-1.57l.35-.82.33-.9c1.83-4.83,3.8-9.56,5.78-14.29s4.11-9.4,6-14.14c1-2.36,1.94-4.74,2.75-7.14.1-.3.19-.6.27-.89s.16-.61.24-.93c.16-.63.35-1.26.56-1.88A17,17,0,0,1,71,34.12a11,11,0,0,1,1-1.75.41.41,0,0,1,.58-.09.42.42,0,0,1,.1.58v0a9.92,9.92,0,0,0-.88,1.61,17.43,17.43,0,0,0-.68,1.74c-.19.6-.36,1.21-.5,1.82-.07.3-.14.61-.23.94s-.17.64-.27.95c-.78,2.47-1.71,4.86-2.64,7.26-1.86,4.78-3.86,9.52-5.8,14.25S57.87,71,56.15,75.78l-.31.9-.39,1a16.13,16.13,0,0,1-1,1.79,21.7,21.7,0,0,1-2.41,3.19,37.27,37.27,0,0,1-5.87,5.27,1,1,0,1,1-1.15-1.57h0Z"></path>
      <path class="cls-1" d="M64.35,52.89a17,17,0,0,0,3.26,0,20.23,20.23,0,0,0,3.26-.57c1.07-.26,2.11-.66,3.19-1,.53-.18,1.08-.34,1.63-.47a7.71,7.71,0,0,1,.86-.15,1.8,1.8,0,0,1,.46,0,.53.53,0,0,1,.26.1.3.3,0,0,1,.1.35,0,0,0,0,1-.05,0h0l-.2-.12s0,0,0,0a.24.24,0,0,0-.14,0,1.25,1.25,0,0,0-.38,0,5.62,5.62,0,0,0-.79.18c-.53.16-1.06.35-1.58.55-1,.41-2.07.88-3.16,1.22a23.81,23.81,0,0,1-3.34.78,18,18,0,0,1-3.46.22.52.52,0,1,1,0-1h.06Z"></path>
      <path class="cls-1" d="M41.53,119.78a5.38,5.38,0,0,0,.74-.25,7.76,7.76,0,0,0,.77-.37,9.34,9.34,0,0,0,1.45-1,12,12,0,0,0,2.41-2.56,19.25,19.25,0,0,0,2.68-6.71,37.93,37.93,0,0,1,2.26-7.3,15.09,15.09,0,0,1,4.94-5.94l0,0a6,6,0,0,1,.79-.5c.25-.14.52-.26.78-.38.53-.23,1.06-.44,1.6-.62a31.59,31.59,0,0,1,3.27-.88c.55-.13,1.11-.22,1.66-.33l1.67-.26,1.67-.21,1.67-.17a.34.34,0,0,1,.36.3.33.33,0,0,1-.29.35h0l-1.65.2-1.64.25-1.63.3c-.54.12-1.09.22-1.62.36a28.05,28.05,0,0,0-3.16.94c-.51.18-1,.4-1.5.62-.24.12-.48.24-.71.38a4.77,4.77,0,0,0-.62.4l0,0a14.08,14.08,0,0,0-4.45,5.63,35.9,35.9,0,0,0-2,7.13,30.64,30.64,0,0,1-1,3.72,16.39,16.39,0,0,1-1.72,3.55,13.45,13.45,0,0,1-2.66,3,12.13,12.13,0,0,1-1.67,1.16,9.69,9.69,0,0,1-.91.46l-.49.2c-.17.06-.32.12-.55.18a.88.88,0,0,1-.44-1.7h.05Z"></path>
      <path class="cls-1" d="M29.9,58.28S23.43,57.07,24,65.51a5.68,5.68,0,0,0,3.61,4.93s-1-2.3.81-3.18S32.53,61.78,29.9,58.28Z"></path>
      <path class="cls-1" d="M57.22,68.54s6.07-5.88,11.18,1.35C68.4,69.89,59.49,74.61,57.22,68.54Z"></path>
      <path class="cls-1" d="M49.15,66.29s6.72,2.8,2.74,10C51.89,76.25,43.78,72.07,49.15,66.29Z"></path>
      <path class="cls-1" d="M45.64,97.18s1.83-8.18,5.63-8.76C51.27,88.42,52.33,100,45.64,97.18Z"></path>
      <path class="cls-1" d="M41.44,118.78s.44-3.47-4-3.4a2.19,2.19,0,0,1-2.89-1.79S33.91,123.6,41.44,118.78Z"></path>
      <path class="cls-1" d="M70.13,92.25s-3.51,6.58,4.27,10.89C74.4,103.14,77.73,94.15,70.13,92.25Z"></path>
      <path class="cls-1" d="M69.5,104.2a11.83,11.83,0,0,1-2.12-6.5c-.21-3.29-2.41-3.84-3.65-3.89a4.78,4.78,0,0,0-.84,0S58.54,105.22,69.5,104.2Z"></path>
      <path class="cls-1" d="M56.13,96.75s6.32-.93,4.53,7.51c0,0-1.65-2.59-2.89-2.83S56.89,97.11,56.13,96.75Z"></path>
      <path class="cls-1" d="M51.78,102.08s-3.43,8.69,8.07,7.45a6.51,6.51,0,0,1-3.18-4.2C55.91,102.26,53.09,102,51.78,102.08Z"></path>
      <path class="cls-1" d="M48.82,114.83s4.49-1.72,4.46,4.42,1.13,5.63,1.13,5.63S45.46,124.77,48.82,114.83Z"></path>
      <path class="cls-1" d="M48.77,64.74c.19-.18-2-3.54-3.1-4.75s-1.78-4.6-1.78-4.6-1.58.33-1.18,6.25S45.69,67.76,48.77,64.74Z"></path>
      <path class="cls-1" d="M60.74,61.89s1.09-3.94,7-1.64c0,0-.13,1.08,2.86-.72C70.64,59.53,67.69,71.1,60.74,61.89Z"></path>
      <path class="cls-1" d="M69.65,40.71s7.88,4.37,9.41-4.07a41.12,41.12,0,0,1-5.7.32C71.57,36.81,69.55,39.1,69.65,40.71Z"></path>
      <path class="cls-1" d="M37.35,49.35s1.46,11.12-6.07,9.58c0,0-2.26-5.76,1.9-7.67S36.25,50.72,37.35,49.35Z"></path>
      <path class="cls-1" d="M27.61,50.74s-.54-3.07-5.7-1.65-3.83-.21-4.6-.38S20.93,59.83,27.61,50.74Z"></path>
      <path class="cls-1" d="M17.24,68s-3.07,10.36,7.15,9.6c0,0,2.06-6.12-2.21-7.65C18.88,68.75,17.24,68,17.24,68Z"></path>
      <path class="cls-1" d="M33.36,75.26s-9.94,1.1-6.5,8.92c0,0,4.44.95,5.14-2.92S32.12,75.85,33.36,75.26Z"></path>
      <path class="cls-1" d="M26.13,84s-6.43,4.46-11-2.48c0,0,4.22-.7,5.76-2.34S27.24,80.82,26.13,84Z"></path>
      <path class="cls-1" d="M30.67,92.36s-3.08-5,5.47-8.08c0,0-.68,4.5-.41,5.85S32.14,94.63,30.67,92.36Z"></path>
      <path class="cls-1" d="M28.39,91.63s-2.62,4-3.5,5.09-5.32,2-7,0c0,0,2.47-.66,3.86-4.18S26.77,89.59,28.39,91.63Z"></path>
      <path class="cls-1" d="M35.11,97.62s-2.55-3.5,1.68-5.92,4-5,4-5S46.15,97,35.11,97.62Z"></path>
      <path class="cls-1" d="M34.07,97.7a4.12,4.12,0,0,0-4.32.8c-2.31,1.83-3.45.54-3.45.54S31.05,105.07,34.07,97.7Z"></path>
      <path class="cls-1" d="M38.35,100.41a6.33,6.33,0,0,0-3.92,3.83c-1.49,3.69-3.53,2.76-3.75,2.54a5.4,5.4,0,0,0,7.67-.73A4,4,0,0,0,38.35,100.41Z"></path>
      <path class="cls-1" d="M23.13,75.69a1.57,1.57,0,0,1,0-.62s.11-.06.13,0a.22.22,0,0,1,.07.06l.09.13.15.27c.18.36.34.73.5,1.11.3.74.57,1.49.84,2.25.55,1.51,1,3,1.51,4.56A37.46,37.46,0,0,0,28,87.86a22.31,22.31,0,0,0,2.37,4,23.39,23.39,0,0,0,3.21,3.39c1.18,1,2.45,2,3.71,3a18,18,0,0,1,3.4,3.61,15.23,15.23,0,0,1,2,4.58.64.64,0,0,1-.44.81.65.65,0,0,1-.82-.44v0a13.8,13.8,0,0,0-1.83-4.17,18.14,18.14,0,0,0-3.14-3.37c-1.19-1-2.47-2-3.68-3.1a23.28,23.28,0,0,1-3.29-3.64,27.9,27.9,0,0,1-3.93-8.88L24.37,79c-.2-.77-.41-1.54-.63-2.3q-.16-.58-.36-1.14c0-.09-.07-.19-.11-.27s-.13-.2-.1-.18A1.75,1.75,0,0,0,23.13,75.69Z"></path>
      <path class="cls-1" d="M48.79,0S37.85,4.1,42.65,10.29c0,0,5.15,2.31,6.14-2.66C49.51,4,48.4,4.18,48.79,0Z"></path>
      <path class="cls-1" d="M42,21.54s3.93-5.49,10.12.49C52.12,22,45.7,27.6,42,21.54Z"></path>
      <path class="cls-1" d="M41.44,22.42s-1.7-2.05-5.3,0-3.24.76-3.24.76.65,5.11,6.26,3.67C39.16,26.85,42,25.31,41.44,22.42Z"></path>
      <path class="cls-1" d="M46.4,30.74s2-7,10.11-4.32c0,0-1.87,1.8-1.73,3.67S50,34.34,46.4,30.74Z"></path>
      <path class="cls-1" d="M46,33.3s-2-2.56-6.8-1.48A5,5,0,0,1,35.45,31s.24,6.13,5.6,6.48S46,33.3,46,33.3Z"></path>
      <path class="cls-1" d="M15.05,38.08s1.17,10.28,11.06,8.49C26.11,46.57,27.21,39.38,15.05,38.08Z"></path>
      <path class="cls-1" d="M33.26,44.41s-8.73.83-5.65,6.33c0,0,3.5,1.26,4.4-2S33.26,44.41,33.26,44.41Z"></path>
      <path class="cls-1" d="M55.11,51.77s-9.2,1.52-6.58,11.59c0,0-.84,3.53,3.55,1.3s3.17-8.45,3-9.91S55.25,52.56,55.11,51.77Z"></path>
      <path class="cls-1" d="M71.8,91.71s5.9-9.77,12.82,1.45a14.49,14.49,0,0,0-5.19,1.72C77.32,96.22,71.2,92.55,71.8,91.71Z"></path>
      <path class="cls-1" d="M70.23,80.64s-4.94,6.72-.1,11.61a5.06,5.06,0,0,0,2.48-4.48C72.56,84.61,69.81,81.67,70.23,80.64Z"></path>
      <path class="cls-1" d="M61.69,93.69s-8.4-3.9-2-11.1a30.17,30.17,0,0,0,3.14,5.49C64.21,89.69,63.45,93.16,61.69,93.69Z"></path>
      <path class="cls-1" d="M77.46,22.47c0-.27-8.29,1.94-7,7.32s1.85,3.23,4.23,2.93S77.64,26.35,77.46,22.47Z"></path>
      <path class="cls-2" d="M31.62,136.39s-3.17,3.46-6,3.31-7.06-.71-8.28,0"></path>
      <path class="cls-2" d="M32.05,142.31c-.14.42-1.08,4.95-8.27,6.18S6.28,150.36,3.62,157"></path>
      <path class="cls-2" d="M19.16,149.21s-5.1,3.31-3.73,10.58"></path>
      <path class="cls-2" d="M40.84,149.21A11.79,11.79,0,0,1,36.08,157c-4.39,3.31-10.94,1.58-14.54,12"></path>
      <path class="cls-2" d="M33.3,158.47s2.9,3,0,7.44a10.11,10.11,0,0,0-.89,4.53"></path>
      <path class="cls-2" d="M46.09,150.07s-5.42,5.66-1.37,9.72C49.91,165,44,173.54,44,173.54"></path>
      <path class="cls-2" d="M45.93,161.38s7,2.08,5.63,11.72"></path>
      <path class="cls-2" d="M55,147.19s9.57,4.68,10.65,10.8,1.44,9.93,2.74,10.94"></path>
      <path class="cls-2" d="M60.33,150.6s9.73,3.6,11.75,7.87"></path>
      <path class="cls-2" d="M59.77,141s1,.86,7.63.57,11.16-1.72,15.47,3.35"></path>
      <path class="cls-2" d="M71.32,141.31s1.05,5.52,5.72,5.38"></path>
      <path class="cls-3" d="M16.48,140c-.32-.31-.41-2.17,1.3-1.65S18.08,141.6,16.48,140Z"></path>
      <ellipse class="cls-3" cx="3.21" cy="157.77" rx="4.4" ry="2.55" transform="translate(-130.79 74.44) rotate(-56.96)"></ellipse>
      <path class="cls-3" d="M81.82,146.5s-.17-3.49,2.66-2.21,2.94,5.51,1.79,5.88S82.43,150.87,81.82,146.5Z"></path>
      <path class="cls-3" d="M22.26,170.05c.42-.65,1.76-2.94-1-2.78a1.14,1.14,0,0,0-1,1.64v0c.53,1,.63,2.18,1.69,1.41A1.07,1.07,0,0,0,22.26,170.05Z"></path>
      <path class="cls-3" d="M69,167.3a1.33,1.33,0,0,0-1.83,1.54c.24,1.07.85,2.66,2.06.9C70.08,168.5,69.68,167.63,69,167.3Z"></path>
      <path class="cls-3" d="M45.31,173.54s.61-2.71-1.64-1.47S44.1,176.61,45.31,173.54Z"></path>
      <path class="cls-3" d="M41.63,135.82s-4.47-1.59-6.34-2.31-5.68.51-6,3.24,1.29,10.73,8,13.1,8.13,1.15,9.57,1.08,2.95-2.66,5.33-2.52,2.73.36,3.81.08,5.19-.87,5.55-4.76-1.53-11-10.59-9.57C46.6,134.85,45.73,137.69,41.63,135.82Z"></path>
      <ellipse class="cls-4" cx="52.75" cy="141" rx="1.19" ry="0.58"></ellipse>
      <ellipse class="cls-4" cx="45.48" cy="144.92" rx="1.48" ry="0.61"></ellipse>
      <ellipse class="cls-4" cx="37.02" cy="141.37" rx="1.51" ry="0.94"></ellipse>
    </g>
  </g>
</svg>
