<?xml version="1.0" encoding="UTF-8"?>
<svg xmlns="http://www.w3.org/2000/svg" viewBox="0 0 212.27 437.93">
  <defs>
    <style>.cls-1{fill:#a29274;}.cls-2{fill:#e3e0c9;}.cls-3{fill:#fcedce;}.cls-4{fill:#bda885;}.cls-5{fill:#d0c5a6;}.cls-6{fill:#8f8267;}.cls-7{fill:#ab967a;opacity:0.25;}.cls-8{fill:#9b8d71;}.cls-9{fill:#7c705b;}.cls-10{fill:#e7e6e3;}.cls-11{fill:#745831;}.cls-12{fill:#917448;}.cls-13{fill:#554020;}.cls-14{fill:#817870;}.cls-15{fill:#8bb92c;}.cls-16{fill:#a5c32f;}.cls-17{fill:#7fb843;}.cls-18{fill:#c2d744;}.cls-19{fill:#e69175;}.cls-20{fill:#ca4b2b;}.cls-21{fill:#e7917c;}.cls-22{fill:#f3c7d2;}.cls-23{fill:#d45e3d;}</style>
  </defs>
  <g id="Слой_2" data-name="Слой 2">
    <g id="Слой_1-2" data-name="Слой 1">
      <polygon class="cls-1" points="98.74 342.2 171.39 311.28 160.49 394.92 98.74 437.93 98.74 342.2"></polygon>
      <polygon class="cls-2" points="98.74 290.37 171.39 311.28 98.74 342.2 25.89 311.28 98.74 290.37"></polygon>
      <polygon class="cls-3" points="98.74 290.37 25.89 311.28 27.16 311.82 170.71 311.08 98.74 290.37"></polygon>
      <polygon class="cls-4" points="36.79 394.92 25.89 311.28 98.74 342.2 98.74 437.93 36.79 394.92"></polygon>
      <path class="cls-5" d="M71.68,312.3a40.84,40.84,0,0,1,3.43-3.67,33.46,33.46,0,0,1,4-3.11,38.7,38.7,0,0,1,9.13-4.42c1.6-.53,3.24-1,4.89-1.33a49.63,49.63,0,0,1,5-.76,46.89,46.89,0,0,1,10,.05c-3.34.21-6.64.57-9.9,1.1a61.17,61.17,0,0,0-9.58,2.35,49.44,49.44,0,0,0-9,4A50.74,50.74,0,0,0,71.68,312.3Z"></path>
      <polygon class="cls-6" points="98.74 342.2 171.39 311.28 160.49 394.92 98.74 437.93 98.74 342.2"></polygon>
      <polygon class="cls-7" points="36.79 394.92 25.89 311.28 98.74 342.2 98.74 437.93 36.79 394.92"></polygon>
      <polygon class="cls-8" points="98.74 437.93 36.79 394.92 99.03 371.4 160.49 394.92 98.74 437.93"></polygon>
      <path class="cls-9" d="M50,358.15a13.41,13.41,0,0,1-1.11-2.88,23.55,23.55,0,0,1-.67-3,22.41,22.41,0,0,1-.11-6.23,19.81,19.81,0,0,1,1.75-6,20.32,20.32,0,0,1,3.63-5.18,26.83,26.83,0,0,1,10.69-6.37,45.35,45.35,0,0,1,12.12-2.16,68.17,68.17,0,0,0-11.72,3.25,28.65,28.65,0,0,0-10,6.32,19.52,19.52,0,0,0-5.3,10.36,24.39,24.39,0,0,0-.32,6A22.71,22.71,0,0,0,50,358.15Z"></path>
      <path class="cls-9" d="M117.65,357c.18.3.6.41.92.58l1,.43c.7.26,1.41.51,2.12.73,1.42.47,2.86.88,4.3,1.29,2.88.78,5.78,1.48,8.7,2.06,5.85,1.2,11.77,2,17.76,2.66a65.16,65.16,0,0,1-18-1.21,64.5,64.5,0,0,1-8.76-2.41c-1.43-.51-2.84-1.08-4.21-1.72-.69-.33-1.36-.68-2-1.05-.33-.19-.66-.38-1-.59l-.46-.34C117.87,357.3,117.67,357.19,117.65,357Z"></path>
      <path class="cls-9" d="M78.63,352.63a45.94,45.94,0,0,1-1.78,8.2,58.54,58.54,0,0,1-3,7.86,45.4,45.4,0,0,1-4.38,7.22,27.24,27.24,0,0,1-6,5.85,49.34,49.34,0,0,0,5.09-6.52,75.31,75.31,0,0,0,4-7.2c1.2-2.47,2.26-5,3.29-7.59S77.72,355.28,78.63,352.63Z"></path>
      <path class="cls-9" d="M101.16,419.2c3-1.45,6-2.6,9-3.89s6-2.62,8.83-4.13q2.16-1.11,4.23-2.38a45.22,45.22,0,0,0,4-2.72,23.55,23.55,0,0,0,6.46-7.15,18.91,18.91,0,0,1-5.72,8,41.45,41.45,0,0,1-8.27,5.53,70.85,70.85,0,0,1-9.11,3.89c-1.55.54-3.12,1-4.7,1.49S102.73,418.74,101.16,419.2Z"></path>
      <path class="cls-9" d="M67.09,410a20.62,20.62,0,0,1-4.71-3A11.22,11.22,0,0,1,59,402.45a6.65,6.65,0,0,1-.42-3,6.37,6.37,0,0,1,.31-1.49,7.74,7.74,0,0,1,.59-1.39,13.69,13.69,0,0,1,3.94-4.24,38.22,38.22,0,0,1,10-5,77.71,77.71,0,0,1,10.76-2.8c-3.48,1.26-7,2.5-10.34,3.89a45.72,45.72,0,0,0-9.58,5.1,12.67,12.67,0,0,0-3.6,3.74,5.53,5.53,0,0,0-.53,1.13,4.59,4.59,0,0,0-.3,1.2,5.92,5.92,0,0,0,.21,2.47,8.87,8.87,0,0,0,1.13,2.34,13.45,13.45,0,0,0,1.69,2.09A24.27,24.27,0,0,0,67.09,410Z"></path>
      <path class="cls-9" d="M133.7,355.31l5.42-7.45c1.77-2.5,3.53-5,5.16-7.56a79.54,79.54,0,0,0,4.58-7.88,39.34,39.34,0,0,0,1.79-4.17,17.64,17.64,0,0,0,1-4.44,19.61,19.61,0,0,1-1.78,9.09,51.22,51.22,0,0,1-4.39,8.2,77.48,77.48,0,0,1-5.5,7.46A69.63,69.63,0,0,1,133.7,355.31Z"></path>
      <path class="cls-10" d="M97.53,339A16.67,16.67,0,0,1,90.19,345c-3.06,1.41-6.07,1.29-8.84,1.73a11.36,11.36,0,0,0-3.91,1.18c-1.25.62-2.52,1.42-3.9,2-2.64,1-5.19,2.67-6.28,5.42.79-2.84,3.31-4.94,5.92-6.2,1.24-.65,2.36-1.53,3.63-2.33A13.08,13.08,0,0,1,81,345c2.86-.7,5.83-1,8-2.3,2.38-1.43,4.54-3.18,5.57-5.34Z"></path>
      <path class="cls-10" d="M82.51,346.23a55,55,0,0,0-11.62,14.15,55.43,55.43,0,0,1,10.67-15.16Z"></path>
      <path class="cls-10" d="M81.94,346.22a23.56,23.56,0,0,0-23.89,5.25,24.12,24.12,0,0,1,24.24-6.27Z"></path>
      <path class="cls-10" d="M69.72,345.29a18.67,18.67,0,0,0-4.82-.92,7.76,7.76,0,0,0-4.71,1.08,7.13,7.13,0,0,1,4.72-1.64,14.44,14.44,0,0,1,5,1Z"></path>
      <path class="cls-10" d="M99.33,348.35c4.84,5.49,11.24,9.62,18,12.89,3.36,1.65,7,3,10.12,5.46s5.37,6.09,4.9,10c.17-3.89-2.39-7.25-5.41-9.28s-6.73-3.17-10.29-4.59c-7.12-2.81-14.1-6.54-19.8-12.09Z"></path>
      <path class="cls-10" d="M125,365.11c2.59,2,6.09,2.86,8.55,5.35s3.64,5.73,4.8,8.86c-1.28-3.09-2.62-6.3-5.09-8.57s-5.87-3-8.74-5Z"></path>
      <path class="cls-10" d="M125.81,366.08a20.74,20.74,0,0,0,8.88,1.66,16.84,16.84,0,0,1,4.59.32,5.31,5.31,0,0,1,3.57,2.69,5.27,5.27,0,0,0-3.6-2.58,16.87,16.87,0,0,0-4.55-.21,21.05,21.05,0,0,1-9.07-1.47Z"></path>
      <path class="cls-10" d="M114.24,360.44a19.55,19.55,0,0,0,1.7,9.75,16.4,16.4,0,0,0,6.54,7.63,16.77,16.77,0,0,1-7.24-7.29,20.68,20.68,0,0,1-2.54-10.19Z"></path>
      <path class="cls-10" d="M102.77,336.7a52.16,52.16,0,0,1,2.61,8.1,21.58,21.58,0,0,1,.05,8.62,16.23,16.23,0,0,0,.15,7.93,13.76,13.76,0,0,0,4.47,6.68,14.25,14.25,0,0,1-5.28-6.38,17.57,17.57,0,0,1-1-8.41,19.18,19.18,0,0,0-.83-7.8,49.93,49.93,0,0,0-3.25-7.35Z"></path>
      <path class="cls-10" d="M103.07,336.14c2.09,4.73,6.08,8.67,9.87,12.73s7.54,8.66,8.66,14.19c-1.7-5.37-5.76-9.36-9.85-13s-8.68-7.17-11.71-12.41Z"></path>
      <path class="cls-10" d="M111,347.28a78.59,78.59,0,0,1,11.75,2.83,17.28,17.28,0,0,1,5.51,2.55,7.27,7.27,0,0,1,3,5.06A7.08,7.08,0,0,0,128,353a16.82,16.82,0,0,0-5.49-2.08,77.39,77.39,0,0,0-11.71-2Z"></path>
      <path class="cls-10" d="M109.12,344.93a10.59,10.59,0,0,1,1.33,4.64c.13,1.55.07,3.08.09,4.6-.56-3-.91-6.2-2.76-8.3Z"></path>
      <path class="cls-10" d="M104.09,332.71c2.19,2.08,4.61,4,6.74,6.28a15.8,15.8,0,0,1,4.36,8.07,15.39,15.39,0,0,0-5-7.44c-2.26-2-4.82-3.66-7.27-5.57Z"></path>
      <path class="cls-10" d="M103.06,331.67c6,.63,12.42,1.28,18.21,3.84a24.06,24.06,0,0,1,7.72,5.28,21.69,21.69,0,0,1,4.75,7.87,21.3,21.3,0,0,0-5.34-7.25,22.84,22.84,0,0,0-7.75-4.31c-5.66-1.9-11.7-2-17.78-2Z"></path>
      <path class="cls-11" d="M95.94,345.23c-.88-1.61-1.6-3.25-2.3-4.9a6.29,6.29,0,0,1-.9-2.5,5.15,5.15,0,0,1,.84-2.9l.32-.07a5.21,5.21,0,0,1,2,2.24,6.36,6.36,0,0,1,.27,2.65,54.09,54.09,0,0,1,.07,5.41Z"></path>
      <ellipse class="cls-12" cx="91.68" cy="358.29" rx="1.63" ry="2.59" transform="translate(-277.13 330.75) rotate(-71.38)"></ellipse>
      <path class="cls-11" d="M97,326.76c-1,10.05-3.1,19.88-7.5,29.25-1.52,3.24,3.3,6.09,4.84,2.83a91.39,91.39,0,0,0,7.85-30.06A6.39,6.39,0,0,1,97,326.76Z"></path>
      <path class="cls-13" d="M102.14,328.78c-.06.62-.09,1.25-.16,1.87A89,89,0,0,1,99.66,344a62.55,62.55,0,0,1-4.8,12.71l.12.07a49.24,49.24,0,0,0,5.55-12.54,85.54,85.54,0,0,0,2.84-13.45c.08-.71.11-1.42.18-2.13A10.88,10.88,0,0,1,102.14,328.78Z"></path>
      <path class="cls-12" d="M90.62,355.25s.76-.35,2.46.58c0,0,4.81-10.4,6.62-27.36a6,6,0,0,1-1.55-.75C97.07,339.19,94.65,350.27,90.62,355.25Z"></path>
      <path class="cls-10" d="M94.83,359.2a179.51,179.51,0,0,0-2.63,25.07c-.18,4.22,0,8.43-.16,12.73s-.86,8.71-3.28,12.26c2.09-3.76,2.35-8.1,2.15-12.26s-.79-8.43-1-12.7a180.7,180.7,0,0,1,.39-25.69,2.28,2.28,0,1,1,4.54.39Z"></path>
      <path class="cls-10" d="M92,385.45c1.62,3.45,4.63,6.36,6.77,10a17.32,17.32,0,0,1,2.07,5.9,9,9,0,0,1-1,6,9.42,9.42,0,0,0,.32-5.88,16.62,16.62,0,0,0-2.49-5.34c-2.15-3.3-5.47-5.88-7.41-9.84Z"></path>
      <path class="cls-10" d="M91.59,392.74a14.06,14.06,0,0,0-5.84,3.14,13,13,0,0,0-3.89,5.63,13.47,13.47,0,0,1,3.22-6.3A15.41,15.41,0,0,1,91,390.93Z"></path>
      <path class="cls-10" d="M92.64,372.92c-1.4,2.34-3.23,3.08-4.78,4.08s-3.21,1.75-4.11,2.93a12.53,12.53,0,0,0-2.35,10,13.41,13.41,0,0,1,.78-11c1.12-1.92,2.81-3,4.19-4.11s2.86-2.33,3.16-3.3Z"></path>
      <path class="cls-10" d="M83.83,379.26a41.61,41.61,0,0,0-8.52,4.63,5.57,5.57,0,0,0-2.63,3.69c-.36,1.56-.46,3.36-1.46,4.74.75-1.51.61-3.18.85-4.85a6.63,6.63,0,0,1,.79-2.5,8.7,8.7,0,0,1,1.75-2,34.18,34.18,0,0,1,4.18-2.84A28.23,28.23,0,0,1,83.35,378Z"></path>
      <path class="cls-10" d="M91.77,359.89c-3,2.73-6.73,3.47-9.93,4.37a48,48,0,0,0-9.39,3.41A20.89,20.89,0,0,0,64.9,374c-2.06,2.64-4,5.7-6.94,7.46,2.82-2,4.38-5.1,6.24-7.95a22.33,22.33,0,0,1,7.41-7.31,50.37,50.37,0,0,1,9.45-4.35c3.21-1.16,6.39-2.25,8.3-4.37a1.71,1.71,0,0,1,2.54,2.29Z"></path>
      <path class="cls-10" d="M69.42,369.27a20.76,20.76,0,0,1-2.73,0,11,11,0,0,1-1.36-.22,2.6,2.6,0,0,0-1.11,0,4.17,4.17,0,0,0-1.95,1.33,3.3,3.3,0,0,1-2.57,1.2,28,28,0,0,0-5.26,0A6.26,6.26,0,0,0,50,374a6.46,6.46,0,0,1,4.39-2.81,29.75,29.75,0,0,1,5.32-.31c1.7.12,2.15-2.18,4.28-2.84A3.36,3.36,0,0,1,65.5,368a9.6,9.6,0,0,0,1.27.13,18.41,18.41,0,0,0,2.56-.11Z"></path>
      <path class="cls-10" d="M80.09,364.27a32.37,32.37,0,0,0-8.81,15.9,33.2,33.2,0,0,1,7.6-17.05Z"></path>
      <path class="cls-10" d="M95.33,357.89a31.15,31.15,0,0,1,8.09,16.67,39.26,39.26,0,0,1,.11,9.12c-.14,2.89.26,6.12,2.6,8.15-2.54-1.78-3.33-5.17-3.45-8.14a38,38,0,0,0-.94-8.8A28.54,28.54,0,0,0,93,360.35a1.7,1.7,0,1,1,2.24-2.57Z"></path>
      <path class="cls-10" d="M103.34,380.58a19.2,19.2,0,0,1,6.11,4.92,22.2,22.2,0,0,1,4,6.6,21.93,21.93,0,0,0-4.42-6.23,18.47,18.47,0,0,0-6.12-4.29Z"></path>
      <path class="cls-10" d="M103.06,373.65a12.71,12.71,0,0,0,4.8,4.31c1.93,1.15,4,2.07,6.11,3.17a17.87,17.87,0,0,1,5.64,4.24,14.16,14.16,0,0,1,2.72,6.43,20,20,0,0,0-3.4-5.85,17.39,17.39,0,0,0-5.48-3.81c-2-1-4.19-1.85-6.27-3a13.14,13.14,0,0,1-5.36-4.8Z"></path>
      <path class="cls-10" d="M98.53,362.68c.58,1.15,2,2,3.4,2.72a12.06,12.06,0,0,1,4.12,2.93,19.68,19.68,0,0,1,2,4.55,5.27,5.27,0,0,0,3.18,3.38c-1.66-.29-2.83-1.75-3.57-3.2a19.68,19.68,0,0,0-2.27-4.19,11.23,11.23,0,0,0-4-2.32c-1.46-.66-3.19-1.32-4.31-3Z"></path>
      <polygon class="cls-3" points="27.16 311.82 98.74 342.2 171.39 311.28 170.71 311.08 27.16 311.82"></polygon>
      <ellipse class="cls-1" cx="101.04" cy="312.73" rx="16.78" ry="6.56"></ellipse>
      <ellipse class="cls-14" cx="101.47" cy="314.95" rx="13.83" ry="5.41"></ellipse>
      <path class="cls-15" d="M110.19,296.1l-4.36-.71C112.67,253.64,116.42,60.69,115,43l4.41-.34C120.83,60.42,117.07,254.17,110.19,296.1Z"></path>
      <path class="cls-11" d="M108.91,292.68a11.19,11.19,0,0,1-3.83,9.17,10.2,10.2,0,0,1,.84-5A10.35,10.35,0,0,1,108.91,292.68Z"></path>
      <path class="cls-16" d="M127.44,191.14c4.75-9.89,1.09-17.08-7.64-22.73C117.67,177.8,119.65,185.28,127.44,191.14Z"></path>
      <path class="cls-17" d="M127.4,191.15c-1.05-3.9-1.77-7.88-2.88-11.74a47.43,47.43,0,0,0-4.75-11l.07-.05a19.93,19.93,0,0,1,3.39,5.06,31.51,31.51,0,0,1,1.91,5.8c1,3.94,1.52,7.94,2.34,11.88Z"></path>
      <path class="cls-16" d="M136.59,186c4.86-10.21,1.29-15.66-7.51-21.75C127.17,173,128.18,181.37,136.59,186Z"></path>
      <path class="cls-17" d="M136.55,186a61.61,61.61,0,0,0-2.76-11.23A106.15,106.15,0,0,0,129,164.22l.07,0a28.82,28.82,0,0,1,5.29,10.35A55.07,55.07,0,0,1,136.63,186Z"></path>
      <path class="cls-16" d="M139.64,183.19c2-10.51,6.58-16.36,17.3-18.3C157.71,176.51,152.56,185.87,139.64,183.19Z"></path>
      <path class="cls-17" d="M139.63,183.15a15.11,15.11,0,0,0,5.29-3.42,40.42,40.42,0,0,0,4.27-4.69c2.57-3.38,4.92-6.92,7.72-10.17l.06,0a60.86,60.86,0,0,1-7.28,10.54,43.34,43.34,0,0,1-4.5,4.59,15.21,15.21,0,0,1-5.54,3.18Z"></path>
      <path class="cls-16" d="M137.31,186.24c8.83-2.57,17.73.66,24,7.06C150.3,198,144.08,195.07,137.31,186.24Z"></path>
      <path class="cls-17" d="M137.33,186.2a77.58,77.58,0,0,0,11.76,4.26c4,1,8.11,1.83,12.2,2.8v.07a43.43,43.43,0,0,1-12.37-2.26,69,69,0,0,1-11.62-4.8Z"></path>
      <path class="cls-16" d="M127.93,192.14c10.3-1.78,14.38-.44,20.37,9.05C137,203,134.46,200.46,127.93,192.14Z"></path>
      <path class="cls-17" d="M128,192.11a30.73,30.73,0,0,0,4.93,2.56c1.7.76,3.42,1.47,5.15,2.15a100.48,100.48,0,0,1,10.29,4.33l0,.07a55.93,55.93,0,0,1-10.51-3.81q-2.57-1.12-5.07-2.37a31.65,31.65,0,0,1-4.81-2.87Z"></path>
      <path class="cls-16" d="M140.28,182.33a73.82,73.82,0,0,1-6.46,5.1c-2.29,1.56-4.75,2.87-7.09,4.35a160.59,160.59,0,0,0-13.41,9.63c-.61.48.25,1.33.85.85a154.55,154.55,0,0,1,14-10c2.27-1.41,4.63-2.67,6.82-4.22s4.15-3.18,6.14-4.89c.59-.51-.27-1.35-.86-.85Z"></path>
      <path class="cls-16" d="M176.91,182.25c6.35-8.75,6.75-15.41.07-24C173.29,166.44,171.65,174.4,176.91,182.25Z"></path>
      <path class="cls-17" d="M176.87,182.24c.25-4,.83-8.05,1-12.06a55.28,55.28,0,0,0-.94-12l.08,0a22.7,22.7,0,0,1,1.51,5.92,31.19,31.19,0,0,1,0,6.11c-.32,4.05-1.08,8-1.57,12Z"></path>
      <path class="cls-16" d="M186.45,179.08c6.45-8.85,7-14.37.79-23.58C183.06,163.49,181.11,171.24,186.45,179.08Z"></path>
      <path class="cls-17" d="M186.41,179.07a97.3,97.3,0,0,0,1.26-11.77c.06-3.94-.14-7.84-.47-11.8h.08a30.74,30.74,0,0,1,1,11.84,84.36,84.36,0,0,1-1.83,11.76Z"></path>
      <path class="cls-16" d="M189.74,177.28c6.53-9.74,12.94-8.9,22.52-3.71C206,181.47,198.3,182.29,189.74,177.28Z"></path>
      <path class="cls-17" d="M189.73,177.24c3.79-.45,7.56-1,11.3-1.64s7.44-1.48,11.22-2.07l0,.08a44.08,44.08,0,0,1-11.14,2.62c-3.78.53-7.58.87-11.39,1.09Z"></path>
      <path class="cls-16" d="M186.93,179.54c6.68.75,14,5.7,19.09,10C195.25,193.26,190.47,189.92,186.93,179.54Z"></path>
      <path class="cls-17" d="M187,179.51a36,36,0,0,0,8.66,6.68,57.13,57.13,0,0,0,10.4,3.35v.08a22.24,22.24,0,0,1-10.69-2.86,33.21,33.21,0,0,1-8.41-7.19Z"></path>
      <path class="cls-16" d="M177.14,183.3c9,.57,12,3.33,14.16,12C182.29,193.82,181.11,191.36,177.14,183.3Z"></path>
      <path class="cls-17" d="M177.17,183.28c2.3,2.08,4.67,4.06,7.09,6a63.26,63.26,0,0,1,7.07,6l-.05.07a41.64,41.64,0,0,1-7.43-5.61c-2.34-2.05-4.6-4.19-6.74-6.44Z"></path>
      <path class="cls-16" d="M190.47,176.67c-2.52,1.12-4.95,2.44-7.5,3.49a75.33,75.33,0,0,0-7.74,3.31c-4.95,2.71-9.21,6.47-13.41,10.19-.58.51.27,1.36.85.85,4.25-3.75,8.55-7.55,13.58-10.23,2.45-1.3,5.07-2.11,7.62-3.19s4.78-2.3,7.21-3.38c.71-.31.09-1.35-.61-1Z"></path>
      <path class="cls-16" d="M44,154.66c-10.72,1.42-16.76-1.39-21.18-11.38C31.84,144,39.62,146.29,44,154.66Z"></path>
      <path class="cls-17" d="M44,154.69c-3.76-1.48-7.61-2.69-11.33-4.34a30.36,30.36,0,0,1-5.38-2.9,22.31,22.31,0,0,1-4.48-4.14l.06-.06a55.57,55.57,0,0,0,10.07,6.52c3.62,1.75,7.42,3.15,11.09,4.85Z"></path>
      <path class="cls-16" d="M36.69,161.54C25.84,163,20.74,160.82,15.57,151,24.6,151.14,32.34,153.12,36.69,161.54Z"></path>
      <path class="cls-17" d="M36.68,161.58a82.16,82.16,0,0,1-11.21-4,30.64,30.64,0,0,1-9.92-6.54l0-.06c3.33,2.17,6.65,4.2,10.15,6a96.91,96.91,0,0,0,11,4.49Z"></path>
      <path class="cls-16" d="M33.54,163.58c-11.67,1.11-14,7.15-14,18C29.49,179.89,33.88,173.49,33.54,163.58Z"></path>
      <path class="cls-17" d="M33.58,163.6c-2,3.24-4.12,6.42-6.38,9.5a44.49,44.49,0,0,1-7.61,8.55l-.06-.06c2.32-3.05,4.73-6,7.16-8.88s4.63-6,6.82-9.16Z"></path>
      <path class="cls-16" d="M36.86,162.19c-2.51,6.23-1.66,15.06-.24,21.56C45,176,44.31,170.24,36.86,162.19Z"></path>
      <path class="cls-17" d="M36.9,162.17A33.38,33.38,0,0,1,39.23,173a22.18,22.18,0,0,1-2.58,10.76l-.07,0a56.68,56.68,0,0,0,2-10.74,35.38,35.38,0,0,0-1.75-10.8Z"></path>
      <path class="cls-16" d="M44.84,155.37c-3.79,8.2-2.79,12.15,3.85,18.18C51.64,164.9,50,162.69,44.84,155.37Z"></path>
      <path class="cls-17" d="M44.88,155.35c1,3,1.76,6,2.45,9a41.45,41.45,0,0,1,1.4,9.2h-.08a64.4,64.4,0,0,1-1.95-9.08c-.55-3.05-1.17-6.08-1.9-9.09Z"></path>
      <path class="cls-16" d="M33.28,165c2-1.52,4-2.9,6-4.42,2.36-1.83,4.45-3.92,6.95-5.57,4.72-3.11,10.06-5.07,15.35-7,.72-.27.41-1.43-.32-1.17C56,148.73,50.71,150.67,46,153.69a70,70,0,0,0-6.5,5.15c-2.19,1.81-4.57,3.36-6.82,5.09-.61.46,0,1.51.61,1Z"></path>
      <path class="cls-16" d="M93.89,128.28S76.2,119.64,89.07,104C89.07,104,104.14,111.2,93.89,128.28Z"></path>
      <path class="cls-16" d="M95.5,130.69c-.72.06,2-19.09,21.7-19.29C117.2,111.4,110.57,129.49,95.5,130.69Z"></path>
      <path class="cls-16" d="M101.12,138.93S106,119,122.83,120.24C122.83,120.24,119.61,136.32,101.12,138.93Z"></path>
      <path class="cls-15" d="M23.92,97.5a319.16,319.16,0,0,1,67.2,122c4.17,14.37,7.54,29.08,6.62,44.14-.18,2.92,4.37,2.91,4.55,0,.82-13.43-1.69-26.67-5.17-39.58a315.22,315.22,0,0,0-11.61-34.91,324.61,324.61,0,0,0-33.44-62.92,327.66,327.66,0,0,0-24.93-32c-1.94-2.2-5.15,1-3.22,3.22Z"></path>
      <path class="cls-16" d="M79.82,147.37c-.2-.2,7.74-6.63,26.48,1.81C106.3,149.18,93.49,161.24,79.82,147.37Z"></path>
      <path class="cls-16" d="M101.12,138.93S84.64,129.69,71,134.71C71,134.71,82.23,150.93,101.12,138.93Z"></path>
      <path class="cls-16" d="M95.5,130.69s-.77-.66-2.16-1.61c-4.21-2.85-14.14-8.24-25.78-5.22C67.56,123.86,75.6,138.93,95.5,130.69Z"></path>
      <path class="cls-17" d="M89.13,104a90.11,90.11,0,0,0,1.24,12.73c.87,4.18,1.79,8.24,3,12.37l-.11.05a23.92,23.92,0,0,1-2.71-5.9,38.5,38.5,0,0,1-1.17-6.38A74.83,74.83,0,0,1,89,104Z"></path>
      <path class="cls-17" d="M117.23,111.45a67.08,67.08,0,0,0-10.6,8c-1.63,1.5-3.1,3.16-4.62,4.74s-3,3.27-4.5,4.91l-.1-.07a27,27,0,0,1,3.7-5.64,35.24,35.24,0,0,1,4.88-4.66,58.26,58.26,0,0,1,11.18-7.4Z"></path>
      <path class="cls-17" d="M101.15,139a19.16,19.16,0,0,1-7.65,1.2,51.63,51.63,0,0,1-7.75-.76,53.1,53.1,0,0,1-7.59-1.72,54.29,54.29,0,0,1-7.2-2.93l0-.12c2.55.53,5,1.27,7.5,1.89s4.93,1.39,7.43,1.94a51.23,51.23,0,0,0,7.59,1.1,19.19,19.19,0,0,0,7.58-.7Z"></path>
      <path class="cls-17" d="M122.86,120.29q-5.85,4.2-11.37,8.8c-1.84,1.54-3.55,3.21-5.33,4.78a39.28,39.28,0,0,0-5,5.09l-.11-.06a19.74,19.74,0,0,1,4.26-5.9,50.16,50.16,0,0,1,5.55-4.66,143.34,143.34,0,0,1,11.92-8.15Z"></path>
      <path class="cls-17" d="M106.31,149.24a63.12,63.12,0,0,1-13.39,1,29.44,29.44,0,0,1-13.12-2.81l0-.11c2.23.35,4.37.84,6.57,1.1s4.36.69,6.57.86a72.2,72.2,0,0,0,13.31-.16Z"></path>
      <path class="cls-17" d="M95.51,130.75a26.5,26.5,0,0,1-7.28-.14,64.46,64.46,0,0,1-7.14-1.44,55,55,0,0,1-7-2.11,52.1,52.1,0,0,1-6.57-3.15l0-.11c2.36.61,4.63,1.41,6.93,2.13l6.83,2.32a64.21,64.21,0,0,0,7,1.76,26.14,26.14,0,0,0,7.16.62Z"></path>
      <path class="cls-16" d="M124.91,130.05s-19.37,1.61-18,18.59C106.92,148.64,120.94,148.23,124.91,130.05Z"></path>
      <path class="cls-17" d="M124.28,130.58a56.75,56.75,0,0,0-9.24,7.75,85.21,85.21,0,0,0-7.41,9.43l-.11,0a19.58,19.58,0,0,1,2.7-5.53,27.1,27.1,0,0,1,4.15-4.54,50,50,0,0,1,9.85-7.17Z"></path>
      <path class="cls-16" d="M93,127.55q4.62,8.33,9.67,16.38c3.08,4.89,6.28,9.75,10.62,13.63.57.51,1.43-.34.85-.86-4.4-3.93-7.62-8.89-10.73-13.86Q98.46,135,94,126.94c-.37-.68-1.41-.07-1,.61Z"></path>
      <path class="cls-16" d="M151.54,255.91c12.89-1,22.28-7.95,20.13-21.75C159.22,233.86,154.19,245.59,151.54,255.91Z"></path>
      <path class="cls-16" d="M150.29,255.85c.66.12,4.25-26.28-10.51-25.95C141.48,237.21,136.53,253.34,150.29,255.85Z"></path>
      <path class="cls-16" d="M136.66,262.75c5.83-11.05,5.43-21.91-6.23-28.62C126.76,244.35,129.84,254.69,136.66,262.75Z"></path>
      <path class="cls-16" d="M146.93,282c.16-.07-16.27-16.63-22.26-12.28C125.88,279.62,136,287.28,146.93,282Z"></path>
      <path class="cls-16" d="M136.66,262.75c10.62.78,22.49,3.2,28.73,12.67C151.25,280.42,141.43,277.76,136.66,262.75Z"></path>
      <path class="cls-16" d="M148.08,257.61a28.5,28.5,0,0,1,3.7-.62c10-1.18,16,2.83,23.3,10.55C163.64,273.09,154.42,267.66,148.08,257.61Z"></path>
      <path class="cls-17" d="M171.72,234.19a50.44,50.44,0,0,1-7.9,11.82,43,43,0,0,1-5.11,5,45.37,45.37,0,0,1-5.9,4l-.07-.1c1.67-1.7,3.47-3.22,5.19-4.83s3.53-3.07,5.19-4.73a55.9,55.9,0,0,0,8.5-11.22Z"></path>
      <path class="cls-17" d="M139.83,229.87a118.23,118.23,0,0,1,7.53,11.61A25.85,25.85,0,0,1,150,248a15.57,15.57,0,0,1,.09,7H150a27.48,27.48,0,0,0-1.14-6.68,45.39,45.39,0,0,0-2.33-6.36c-1.94-4.12-4.44-8-6.76-12Z"></path>
      <path class="cls-17" d="M136.72,262.73a12.23,12.23,0,0,0,5.63,5.47,38.61,38.61,0,0,0,7.43,3c5.17,1.42,10.46,2.4,15.63,4.17l0,.12c-2.71-.26-5.38-.67-8-1.17a58.7,58.7,0,0,1-7.85-2.2,39.58,39.58,0,0,1-7.44-3.39c-2.28-1.44-4.48-3.35-5.43-6Z"></path>
      <path class="cls-17" d="M130.48,234.11a63.8,63.8,0,0,1,5.86,13.75,31.11,31.11,0,0,1,1.36,7.43,21.18,21.18,0,0,1-1,7.47l-.12,0a43.09,43.09,0,0,0-.11-7.37,58,58,0,0,0-1.08-7.27,72,72,0,0,0-5-13.94Z"></path>
      <path class="cls-17" d="M126.07,270.47a31.82,31.82,0,0,0,9.78,6.8c1.83.8,3.74,1.39,5.6,2.15A51.49,51.49,0,0,1,147,282l0,.11a40.5,40.5,0,0,1-11.47-3.94,29.63,29.63,0,0,1-9.46-7.59Z"></path>
      <path class="cls-17" d="M148.21,257.56a22.05,22.05,0,0,0,6.23,3.53,69.18,69.18,0,0,0,6.81,2.34l7,1.85c2.3.71,4.63,1.34,6.91,2.19l0,.12a54.19,54.19,0,0,1-7.18-1.14,65.68,65.68,0,0,1-7-2.1,69,69,0,0,1-6.76-2.71,22.36,22.36,0,0,1-6.07-4Z"></path>
      <path class="cls-16" d="M121.58,242.43c10.13,7.85,10.27,16.86,2.24,26.57C117.94,260.75,118.45,251.72,121.58,242.43Z"></path>
      <path class="cls-17" d="M121.93,243.15a35.74,35.74,0,0,1,3.5,12.06,28.5,28.5,0,0,1,.15,6.33,26.59,26.59,0,0,1-1.36,6.17l-.12,0c.06-2.1.25-4.16.28-6.22s.19-4.11.09-6.18a38.55,38.55,0,0,0-2.65-12.08Z"></path>
      <path class="cls-16" d="M152.47,254.44a185,185,0,0,1-19.81,10.29c-7,3.11-14.21,6.19-21.66,8.18a.61.61,0,0,0,.32,1.17c7.31-2,14.3-5,21.23-8a184.46,184.46,0,0,0,20.53-10.61.6.6,0,0,0-.61-1Z"></path>
      <path class="cls-16" d="M39.52,222.48c-13.56-1.34-21.84-6.73-22.05-21.09C30.44,202.31,34.39,211.87,39.52,222.48Z"></path>
      <path class="cls-16" d="M40,220.74c-.64,0-4.51-27.1,9.49-23.63C47.6,205.1,53.33,220.08,40,220.74Z"></path>
      <path class="cls-16" d="M55.16,228.72c-6.59-11.24-7.59-19.73,3.61-28A32.82,32.82,0,0,1,55.16,228.72Z"></path>
      <path class="cls-16" d="M48,246.66c-.1-.12,14-16,18.88-10.3C66,244.75,55.52,255.21,48,246.66Z"></path>
      <path class="cls-16" d="M55.16,228.72C44.64,229.45,33.9,233,27.73,242,43.89,243.93,50.62,245.71,55.16,228.72Z"></path>
      <path class="cls-16" d="M43.43,223.93c-2.42-.12-1.18-.39-4.3-.41-9.45,0-17.46,3.48-24.33,10.82C26.85,238.79,37.58,235.49,43.43,223.93Z"></path>
      <path class="cls-17" d="M17.52,201.36A75,75,0,0,0,27,212.3c1.76,1.65,3.65,3.13,5.49,4.68l5.61,4.61-.07.1a37.68,37.68,0,0,1-6.28-3.76A43.85,43.85,0,0,1,26.31,213a66.78,66.78,0,0,1-8.89-11.57Z"></path>
      <path class="cls-17" d="M49.33,196.61a102.18,102.18,0,0,0-6.19,11.92,35.27,35.27,0,0,0-2.22,13l-.12,0a17,17,0,0,1-.57-6.82,21.93,21.93,0,0,1,2-6.56,83.27,83.27,0,0,1,7-11.61Z"></path>
      <path class="cls-17" d="M55.21,228.75a17.24,17.24,0,0,1-5,6.12,28.33,28.33,0,0,1-7,3.8A44.74,44.74,0,0,1,35.57,241c-2.6.48-5.19.89-7.83,1.14l0-.12c2.49-.92,5.07-1.51,7.59-2.2s5.09-1.18,7.56-2c4.88-1.62,9.67-4.39,12.24-9.06Z"></path>
      <path class="cls-17" d="M58.82,200.75a55.81,55.81,0,0,0-4,13.74,61.08,61.08,0,0,0,.38,14.22l-.11,0a25,25,0,0,1-1.69-7.09,26.65,26.65,0,0,1,.47-7.3,50.55,50.55,0,0,1,4.83-13.65Z"></path>
      <path class="cls-17" d="M65.92,236.87a30.59,30.59,0,0,1-8.53,6.83,33.47,33.47,0,0,1-4.94,2.38,40,40,0,0,1-5.25,1.54l-.05-.11A44.68,44.68,0,0,1,52,245c1.63-.77,3.33-1.36,5-2.13a33.42,33.42,0,0,0,8.88-6.05Z"></path>
      <path class="cls-17" d="M43.31,224c-3.74,3.57-8.6,5.76-13.5,7.28a63,63,0,0,1-7.46,2c-2.53.45-5,.89-7.6,1.19l0-.12A60.1,60.1,0,0,1,22.09,232c2.48-.63,5-1.07,7.45-1.72,4.89-1.29,9.74-3.16,13.69-6.44Z"></path>
      <path class="cls-16" d="M67.48,209.05c-9.08,9.1-6.92,16.69.48,26.26C72.56,226.32,70.36,218.29,67.48,209.05Z"></path>
      <path class="cls-17" d="M67.27,209.82A34,34,0,0,0,66,221.88c.15,2,.54,4,.81,6s.61,4,.77,6.1l-.12,0a34.07,34.07,0,0,1-1.83-5.92,31.2,31.2,0,0,1-.6-6.18,31.7,31.7,0,0,1,2.1-12.14Z"></path>
      <path class="cls-16" d="M37.75,222.17c14.23,6.23,27.79,14,42.91,17.92a.61.61,0,0,0,.33-1.17c-15-3.88-28.5-11.61-42.63-17.79-.7-.31-1.32.73-.61,1Z"></path>
      <polygon class="cls-16" points="113.46 249.51 117.61 251.92 112.52 251.92 113.46 249.51"></polygon>
      <path class="cls-16" d="M118.36,252.12h-6.13l1.13-2.9Zm-5.54-.4h4.05l-3.31-1.92Z"></path>
      <polygon class="cls-16" points="118.19 114.11 122.35 116.52 117.26 116.52 118.19 114.11"></polygon>
      <path class="cls-16" d="M123.1,116.72H117l1.13-2.9.21.12Zm-5.55-.4h4l-3.3-1.92Z"></path>
      <polygon class="cls-16" points="119.74 81.77 123.89 84.18 118.8 84.18 119.74 81.77"></polygon>
      <path class="cls-16" d="M124.64,84.38h-6.13l1.13-2.9.2.11Zm-5.55-.4h4.06l-3.31-1.92Z"></path>
      <polygon class="cls-16" points="115.28 93.26 111.13 95.67 116.22 95.67 115.28 93.26"></polygon>
      <path class="cls-16" d="M116.52,95.87h-6.14l5-2.9Zm-4.65-.4h4.06l-.75-1.92Z"></path>
      <polygon class="cls-16" points="113.19 172.83 109.04 175.24 114.13 175.24 113.19 172.83"></polygon>
      <path class="cls-16" d="M114.42,175.44h-6.13l5-2.9Zm-4.64-.4h4l-.74-1.92Z"></path>
      <polygon class="cls-16" points="111.78 226.32 107.63 228.73 112.72 228.73 111.78 226.32"></polygon>
      <path class="cls-16" d="M113,228.94h-6.14l5-2.91Zm-4.64-.41h4.05l-.75-1.92Z"></path>
      <path class="cls-18" d="M130.75,84.35c-.38.6-.76,1.2-1.12,1.81-.17.29-.36.56-.18.91a.6.6,0,0,0,.93.12,2.59,2.59,0,0,0,.54-.83.81.81,0,0,0,.16-.65.61.61,0,0,0-1-.24,4.27,4.27,0,0,0-.56.71c-.5.67-1,1.35-1.46,2-1.37,1.92-2.78,3.82-4.3,5.62A41.4,41.4,0,0,1,118,99.45c-.6.47.24,1.31.84.84a46.42,46.42,0,0,0,7.63-8c1.1-1.43,2.15-2.9,3.19-4.36.3-.42.6-.84.91-1.24a2.68,2.68,0,0,0,.17-.23c.08-.16.3-.16-.12,0l-.45-.06h0l-.27-.35c-.05-.25.13-.46,0-.27a3,3,0,0,0-.18.3,2.46,2.46,0,0,0-.17.27c-.05.12-.16.15,0,0l.93.12h0l.06.46c-.09.25,0,.06,0,0s.15-.26.23-.38c.32-.54.66-1.07,1-1.6s-.62-1.25-1-.6Z"></path>
      <path class="cls-16" d="M131.12,85.37s17.81-7.55,6-23.61C137.14,61.76,122,68.06,131.12,85.37Z"></path>
      <path class="cls-16" d="M129.42,87.65c.7.09-1-18.84-20.29-20.08C109.13,67.57,114.69,85.67,129.42,87.65Z"></path>
      <path class="cls-16" d="M129.42,87.65a25.22,25.22,0,0,1,2.19-1.47c4.29-2.58,14.32-7.34,25.58-3.76C157.19,82.42,148.51,96.79,129.42,87.65Z"></path>
      <path class="cls-17" d="M137.2,61.76a73.2,73.2,0,0,1-1.08,12.61,37.46,37.46,0,0,1-1.49,6.19,22.9,22.9,0,0,1-3,5.65l-.11,0c1.43-4,2.55-7.92,3.63-12a89.06,89.06,0,0,0,1.89-12.42Z"></path>
      <path class="cls-17" d="M109.16,67.52a57.47,57.47,0,0,1,10.59,7.86,35.11,35.11,0,0,1,4.54,4.82,27,27,0,0,1,3.33,5.74l-.1.06c-1.43-1.69-2.68-3.45-4.15-5.06s-2.77-3.33-4.29-4.89a65,65,0,0,0-10-8.43Z"></path>
      <path class="cls-17" d="M129.43,87.59a25.25,25.25,0,0,0,7-.23,60.94,60.94,0,0,0,7-1.36l6.83-1.92c2.29-.58,4.56-1.25,6.91-1.72l0,.11a51.47,51.47,0,0,1-6.61,2.75,55.6,55.6,0,0,1-7,1.7,62.74,62.74,0,0,1-7.09,1,26,26,0,0,1-7.15-.24Z"></path>
      <path class="cls-15" d="M162.37,139.37a107.89,107.89,0,0,1-14.6,74.87c-12.29,19.67-31,34.65-39.23,56.85-1,2.75,3.38,3.94,4.39,1.21,8.64-23.32,29.5-38.87,41.43-60.26a113.07,113.07,0,0,0,12.4-73.88c-.49-2.88-4.88-1.66-4.39,1.21Z"></path>
      <path class="cls-15" d="M69.33,106.28A418.91,418.91,0,0,0,85.87,263.12a421.91,421.91,0,0,0,15.35,42.11c1.14,2.69,5.06.38,3.93-2.29A413.23,413.23,0,0,1,73.88,106.28c.25-2.92-4.3-2.9-4.55,0Z"></path>
      <path class="cls-11" d="M105.76,315.07c2.24-22-1-44.77,2-67.11.47-3.52-4.92-5.05-5.4-1.49-3,21.75.35,44.71-1.79,66.58A6.35,6.35,0,0,0,105.76,315.07Z"></path>
      <path class="cls-11" d="M101.23,268.93a5.08,5.08,0,0,1-2.46-1.7,6.69,6.69,0,0,1-1-2.57,27.82,27.82,0,0,1-1.14-5.39l.27-.09q1.44,2.32,2.89,4.51a8.3,8.3,0,0,1,1.44,2.19,6.26,6.26,0,0,1,.25,2.9Z"></path>
      <path class="cls-13" d="M107.38,246.43v0l0,0Z"></path>
      <path class="cls-13" d="M106.63,294.4s.33.14.34.34l0-.3c0-.06,0-.13,0-.18l-.17.08C106.7,294.39,106.57,294.4,106.63,294.4Z"></path>
      <path class="cls-13" d="M106,294.38a.64.64,0,0,0-.06.16l0,.29Z"></path>
      <path class="cls-13" d="M109.12,294.07l0,0-.16.06c-.52,0-.52-.37-.5-.25a2.18,2.18,0,0,1,.08.71,2.78,2.78,0,0,0,.27-.21Z"></path>
      <path class="cls-13" d="M107.67,303.37l-.08-3.42v-.35l.08-.19a6.85,6.85,0,0,1,.38-.69l.88-1.5a8,8,0,0,0,.72-1.71,3.46,3.46,0,0,0,.11-1,4,4,0,0,0-.17-1,.71.71,0,0,0-.77-.52c-.45.13-.37.21-.49.27l-.3.32a3.48,3.48,0,0,1-.57.46,5.42,5.42,0,0,1-.48.26c0,.05,0,.12,0,.18l0,.3h0c0,.15,0,.1,0,.13v-.14c0-.2-.32-.38-.34-.34s.07,0,.17-.06l.17-.08c-.52-3.67-.81-7.81-1.12-11.7s-.59-8.05-.52-12l2.29-24.06v-.05l0,0a2.25,2.25,0,0,0-4.11,0l.12.07a2.56,2.56,0,0,1,1.92-1.23,2.5,2.5,0,0,1,1.85,1.23v0l0,.09,0,0-2.78,24c-.14,4.08.13,8.09.34,12.13s.41,7.76,1,11.92a.64.64,0,0,1,.06-.16l0,.45,0-.29a.72.72,0,0,0,0,.39.76.76,0,0,0,.65.59,1.57,1.57,0,0,0,.66-.13,5.37,5.37,0,0,0,.87-.42,4,4,0,0,0,.5-.4,2.18,2.18,0,0,0-.08-.71c0-.12,0,.24.5.25l.16-.06h0l0,0-.29.29a2.78,2.78,0,0,1-.27.21,4.55,4.55,0,0,1-.73,2.05l-.88,1.43c-.15.25-.31.5-.46.8a2.41,2.41,0,0,0-.2.61V300l0,3.41c0,3.91-.23,7.81-.62,11.7.48,0,.95-.05,1.41-.1A112.54,112.54,0,0,0,107.67,303.37Z"></path>
      <path class="cls-12" d="M102.8,285.33s-2.73-4.9,0-38.11c0,0-4.21,24-1.59,37.5,1.3,6.65,1.52,18.16.48,29.3a5.94,5.94,0,0,0,1.55.74A121.75,121.75,0,0,0,102.8,285.33Z"></path>
      <path class="cls-19" d="M157.21,110.05c-.14-1-1.42-8,7.11-7.68,0,0,.86,1.41,5.55,0s7,3.65,6.55,5.25-7.26,11.22-13.09,10.89S157.21,110.05,157.21,110.05Z"></path>
      <path class="cls-20" d="M154.08,120.29s2.14-12.94,1.71-13.94,8.53,7,8.53,7,10.1-8.39,11-7.82,5.12,10.24,0,16.36-11.24,11.66-15.37,9S153.77,122.26,154.08,120.29Z"></path>
      <path class="cls-16" d="M170.44,135.09s6-1.29,6.68-5.55.15-9.67,1.71-11.52c0,0-3.13.71-4.19,2.13a11.46,11.46,0,0,0-4.2-9.1s-2.42,5.69-5.12,8.25-3.13,7-3.13,8.25-6.83-3.56-7.25-14.65a31.61,31.61,0,0,1-2.56,6.68c-1.71,3.13,2,13.66,7.11,13.8C159.49,133.38,165.32,145.47,170.44,135.09Z"></path>
      <polygon class="cls-16" points="165.16 181.55 169.31 183.96 164.22 183.96 165.16 181.55"></polygon>
      <path class="cls-16" d="M170.06,184.16h-6.13l1.13-2.9Zm-5.54-.4h4l-3.31-1.92Z"></path>
      <polygon class="cls-16" points="151.47 214.28 154.98 217.56 150.02 216.42 151.47 214.28"></polygon>
      <path class="cls-16" d="M155.66,217.92l-6-1.37,1.75-2.58Zm-5.31-1.63,4,.91-2.8-2.61Z"></path>
      <polygon class="cls-16" points="163.88 163.73 159.08 163.51 163.37 166.26 163.88 163.73"></polygon>
      <path class="cls-16" d="M163.51,166.59l-5.17-3.31,5.78.26Zm-3.69-2.84,3.41,2.19.41-2Z"></path>
      <polygon class="cls-16" points="135.74 231.51 131.31 229.65 134.38 233.71 135.74 231.51"></polygon>
      <path class="cls-16" d="M134.39,234.07l-.17-.24-3.52-4.66,5.33,2.25Zm-2.47-3.95,2.44,3.24,1.08-1.76Z"></path>
      <polygon class="cls-16" points="84.28 254.51 80.13 256.92 85.22 256.92 84.28 254.51"></polygon>
      <path class="cls-16" d="M85.52,257.12H79.39l5-2.9Zm-4.64-.4h4.05l-.75-1.92Z"></path>
      <polygon class="cls-16" points="71.69 192.09 67.54 194.5 72.63 194.5 71.69 192.09"></polygon>
      <path class="cls-16" d="M72.93,194.7H66.79l5-2.9Zm-4.64-.4h4l-.75-1.92Z"></path>
      <polygon class="cls-16" points="88.24 206.36 84.09 208.77 89.18 208.77 88.24 206.36"></polygon>
      <path class="cls-16" d="M89.47,209H83.34l5-2.9Zm-4.64-.4h4l-.74-1.92Z"></path>
      <polygon class="cls-16" points="65.56 154.29 61.4 156.7 66.49 156.7 65.56 154.29"></polygon>
      <path class="cls-16" d="M66.79,156.9H60.66l5-2.9Zm-4.64-.4H66.2l-.75-1.92Z"></path>
      <polygon class="cls-16" points="55.15 132.39 59.88 131.59 55.97 134.84 55.15 132.39"></polygon>
      <path class="cls-16" d="M55.87,135.19l-1-3,5.7-1Zm-.46-2.64.66,1.95,3.11-2.59Z"></path>
      <path class="cls-16" d="M92.77,178.53s2.41-14.88-15.67-17.69C77.1,160.84,78.7,177.45,92.77,178.53Z"></path>
      <path class="cls-17" d="M92.74,178.55c-2.32-3.22-4.75-6.37-7.29-9.4-1.3-1.49-2.61-3-4-4.4a21.37,21.37,0,0,0-4.4-3.87l0-.08a14.07,14.07,0,0,1,5,3.39A49.43,49.43,0,0,1,86,168.74q3.67,4.72,6.86,9.76Z"></path>
      <path class="cls-16" d="M100.14,171.07S102.68,156.6,85,154.32C85,154.32,87.14,171.75,100.14,171.07Z"></path>
      <path class="cls-17" d="M100.1,171.09a78.37,78.37,0,0,0-6.88-9A70,70,0,0,0,85,154.35l0-.07a24.72,24.72,0,0,1,8.69,7.37,67.53,67.53,0,0,1,6.46,9.4Z"></path>
      <path class="cls-16" d="M102.1,167.59s-4.69-16.35,9.24-21.17C111.34,146.42,120.59,165.58,102.1,167.59Z"></path>
      <path class="cls-17" d="M102.08,167.55a13.88,13.88,0,0,0,3.33-4.69,50.63,50.63,0,0,0,2.24-5.37c1.21-3.69,2.29-7.41,3.65-11.08l.08,0a45.75,45.75,0,0,1-3.13,11.29,52.57,52.57,0,0,1-2.48,5.33,14.11,14.11,0,0,1-3.65,4.57Z"></path>
      <path class="cls-16" d="M101.05,171.07s15-9.92,26.13-5.23C127.18,165.84,118.2,178.84,101.05,171.07Z"></path>
      <path class="cls-17" d="M101.05,171a64.36,64.36,0,0,0,13.28-1.51c2.17-.5,4.32-1.06,6.44-1.72s4.24-1.33,6.39-2l0,.07a36.91,36.91,0,0,1-6.18,2.69,46.07,46.07,0,0,1-6.56,1.58,59.08,59.08,0,0,1-13.4,1Z"></path>
      <path class="cls-16" d="M93.53,179.24s14.07-8.31,27.47-3C121,176.29,107.74,190,93.53,179.24Z"></path>
      <path class="cls-17" d="M93.55,179.2a24.83,24.83,0,0,0,6.89.22c2.3-.16,4.59-.46,6.87-.81,4.55-.81,9.07-1.72,13.68-2.36l0,.08a68.78,68.78,0,0,1-6.72,1.82q-3.42.69-6.89,1.1c-2.3.27-4.62.49-6.94.57a25.25,25.25,0,0,1-6.94-.54Z"></path>
      <path class="cls-16" d="M102.42,166.54c-2.07,4.38-5.67,7.78-9,11.25l-8.89,9.37c-.53.57.32,1.42.85.85l9.13-9.62c3.28-3.46,6.84-6.87,8.91-11.24.33-.7-.71-1.31-1-.61Z"></path>
      <path class="cls-19" d="M2.33,79.17S-.15,67.9.06,66.71l2.3.82c1.16.41,2.31-4.9,6.73-5s8.54,4.79,11.33,8S27,79.17,27.16,81.46,21.45,95.15,13.8,89.9,5.92,86.56,2.33,79.17Z"></path>
      <path class="cls-20" d="M16.93,75.24s-12.51-13-14.31-14.3c0,0,5,17.35,4.68,19.89s5.26,9.94,10.14,9.31S18.83,77.2,16.93,75.24Z"></path>
      <path class="cls-16" d="M18,94.23S3.81,95,0,73.34c0,0,8.32,14.66,15.65,14.24,0,0-3.93-8.37-2.86-13.79S11.22,66.56,11,65.7,14,65.12,21.4,74.2a3.27,3.27,0,0,1,1.3-4.1,5.76,5.76,0,0,0,.95,4.62c1.62,2.46,7.46,8.31,4,15.78,0,0,3.78,6.73-.76,8.17S20,95.81,18,94.23Z"></path>
      <path class="cls-19" d="M104.14,23.83S105.46,4,108.42,1.13s9.55.46,10,1.28S128.84,21,126,25,107.93,36.69,104.14,23.83Z"></path>
      <path class="cls-20" d="M115.34,12c.66-.66,1.69-5.7,5-6s4.68-1.1,6.16,1,4.61,11.49,4,14.15-.35,11.64-7.53,10.56S115.34,12,115.34,12Z"></path>
      <path class="cls-16" d="M107.43,23.44s1.1-8.13,3.52-12.08,3.29-6.15,3.07-7.69,7,6.59,7,9.88,1.21-2.25,1.21-2.9,5.1,3,4.77,10.54c0,0,3.46-2.15,4.45-1.65A7.53,7.53,0,0,0,130,25.8c.82,3.62-1,11.2-6.59,12.68,0,0-5.6,12.84-11.36,0,0,0-16.31-8.57-8.9-25.2C103.15,13.28,106.45,16.63,107.43,23.44Z"></path>
      <path class="cls-21" d="M70.62,63.91s-4.62-1.13-5.14.58-.4,9.51-.82,11.76.69,12.54,5,14.19,7.74-4.7,7.74-8.6S77.66,67,76.92,66.1,70.62,63.91,70.62,63.91Z"></path>
      <path class="cls-22" d="M65.28,70.09c-.29-1.9-.57-3.92.31-5.87a2,2,0,0,1,1.32-1,7,7,0,0,1,1.56.08l2.9.39c1,.17,1.92.37,2.87.63A5.51,5.51,0,0,1,77,65.62a6.71,6.71,0,0,1,.29,3.06,7.49,7.49,0,0,1-.76,2.83,7.26,7.26,0,0,0,.37-2.85A7.39,7.39,0,0,0,76.52,66c-1.31-1-3.46-1.23-5.29-1.56L68.37,64A7.72,7.72,0,0,0,67,63.86a1.56,1.56,0,0,0-.91.67A11.92,11.92,0,0,0,65.28,70.09Z"></path>
      <path class="cls-23" d="M75.87,66.35c-.06.94-1.92,1.57-4.15,1.42s-4.35-2.1-4.29-3,2.3-.51,4.53-.36S75.94,65.41,75.87,66.35Z"></path>
      <path class="cls-22" d="M74.85,66.29c0,.62-1.37,1-2.95.93s-3.11-1.41-3.07-2,1.64-.34,3.22-.23S74.89,65.66,74.85,66.29Z"></path>
      <path class="cls-20" d="M63.24,65.14s-.79,9.12-2.91,13c-3.54,6.4-5.59,18.55,7.35,21.73,12,3,20.42-9.79,10-30.59,0,0-1.14,6.77-2.84,10A85,85,0,0,0,71,88.12s.76-3.18-3.05-12S64.56,69.4,63.24,65.14Z"></path>
      <path class="cls-17" d="M86.39,80.91s-2.52,9.86-3.91,13.43c-2.92,7.52-7.9,8.57-7.9,8.57s-5.89,1-9.62-.67A13.44,13.44,0,0,1,58,94.05c-1.29-4.53-3.73-8.19-4.63-8.79s2.67-.21,7.12,7.62C63.61,98.34,73.38,109,86.39,80.91Z"></path>
      <path class="cls-16" d="M75.43,99.69a24.83,24.83,0,0,0-2.21-11.64c-2.79-6.24-.64-8.1-.64-8.1s-3.45,3.18-3.91,7-.89,9.81,0,12.28a4.39,4.39,0,0,1-1.15,3.35c-1.41,1.51-.8,4.37,1.72,5.76a4.43,4.43,0,0,0,5.69-.61,4.38,4.38,0,0,0,.37-5.42C74.23,101.11,75.43,99.69,75.43,99.69Z"></path>
    </g>
  </g>
</svg>
