<?xml version="1.0" encoding="UTF-8"?>
<svg xmlns="http://www.w3.org/2000/svg" xmlns:xlink="http://www.w3.org/1999/xlink" viewBox="0 0 113.94 177.82">
  <defs>
    <style>.cls-1,.cls-14{fill:none;}.cls-2{fill:#956d4b;}.cls-3{clip-path:url(#clip-path);}.cls-4{fill:url(#Безымянный_градиент_4);}.cls-5{fill:#754120;}.cls-6{fill:#44281c;}.cls-7{fill:#6c3c1d;}.cls-8{fill:#714d31;}.cls-9{fill:#613822;}.cls-10{fill:#7f5637;}.cls-11{fill:#a07850;}.cls-12{fill:#772f46;}.cls-13{fill:#97385c;}.cls-14{stroke:#772f46;stroke-linecap:round;stroke-linejoin:round;stroke-width:0.57px;}.cls-15{fill:#8b5b3c;}.cls-16{fill:#75923a;}.cls-17{fill:#85a93c;}.cls-18{fill:#613922;}</style>
    <clipPath id="clip-path">
      <polygon class="cls-1" points="11.29 145.66 61.25 169.18 107.48 145.77 59.42 125.41 11.29 145.66"></polygon>
    </clipPath>
    <linearGradient id="Безымянный_градиент_4" x1="-4132.27" y1="-703.38" x2="-4129.47" y2="-703.38" gradientTransform="matrix(34.36, 0, 0, -34.36, 141969.4, -24018.13)" gradientUnits="userSpaceOnUse">
      <stop offset="0" stop-color="#a17551"></stop>
      <stop offset="0.38" stop-color="#a17551"></stop>
      <stop offset="0.89" stop-color="#7a4928"></stop>
      <stop offset="1" stop-color="#72401f"></stop>
    </linearGradient>
  </defs>
  <g id="Слой_2" data-name="Слой 2">
    <g id="Слой_1-2" data-name="Слой 1">
      <path class="cls-2" d="M61.25,103s9.63,11.3,17.06,11.77,32.81-7.57,32.81-7.57l2.56-26.43L61.25,62.3Z"></path>
      <path class="cls-2" d="M3.56,78.92l5.23,34.47s18.58,2.79,21.83,1.86,18.12-6.5,22.3-6.5S61.25,103,61.25,103V62.3Z"></path>
      <g class="cls-3">
        <rect class="cls-4" x="34.95" y="98.09" width="48.87" height="98.4" transform="translate(-90.89 198.68) rotate(-86.92)"></rect>
      </g>
      <path class="cls-5" d="M11.29,145.66l-2.5-32.27s23.69-.46,30.19-3.72S61.25,103,61.25,103l-1.83,22.39Z"></path>
      <path class="cls-6" d="M45.05,115.4a8.3,8.3,0,0,0-2.84-1.67l0,0s-3.78-1.13-5.85,1.41-1.71,5.29-.77,5.73a10.92,10.92,0,0,0,1.63.35l.09,0a27.86,27.86,0,0,0,3.51-.79,1.83,1.83,0,0,0,.61-.16l.65-.19c1.48-.46,1.66-.13,2.68-1a3.94,3.94,0,0,0,1.09-2.54l-.21-.51h0l0,0a1,1,0,0,0-.59-.5"></path>
      <path class="cls-6" d="M24.77,118.72a11,11,0,0,0-4,1.33v0s-4.3,2.7-3.59,6.84,3.66,6.13,4.88,5.6a12.71,12.71,0,0,0,1.71-1.28l0-.13c.92-1.05,1.6-3.16,2.21-4.05a2.27,2.27,0,0,0,.36-.72c.1-.2.21-.42.37-.79.81-1.82,1.28-1.71,1.29-3.46a5.12,5.12,0,0,0-1.54-3.21,3.47,3.47,0,0,0-.65-.22v0h-.07a1.26,1.26,0,0,0-1,.13"></path>
      <path class="cls-7" d="M61.25,103l-1.83,22.39,48.06,20.36,3.64-38.55s-15-1.73-21.48-.8-17.83,3.72-21.24,1.86A44.41,44.41,0,0,1,61.25,103"></path>
      <path class="cls-6" d="M43,126a3.28,3.28,0,0,0-1.25-.3h0a2.29,2.29,0,0,0-2,1.18c-.49,1.19,0,2.18.35,2.24l.65,0,0,0a12.3,12.3,0,0,0,1.23-.69l.21-.13.22-.14c.51-.34.61-.24.9-.69a1.5,1.5,0,0,0,.12-1.07l-.13-.17h0Z"></path>
      <path class="cls-6" d="M90,116.39a2.27,2.27,0,0,0-.11-.89h0s-.38-1-1.27-1-1.43.51-1.37.78l.2.41,0,0,.75.63.14.1.14.11c.35.24.31.34.67.41a1.06,1.06,0,0,0,.73-.18l.07-.13h0v-.22Z"></path>
      <path class="cls-6" d="M103.46,132.57a11.24,11.24,0,0,0-1.91-3.82h0s-3.32-3.9-7.35-2.59-5.6,4.53-4.89,5.68a13.68,13.68,0,0,0,1.53,1.52l.13,0c1.19.77,3.39,1.13,4.37,1.62a2.41,2.41,0,0,0,.77.25c.22.07.45.15.84.26,1.94.54,1.9,1,3.64.79a5.19,5.19,0,0,0,3-2,3.27,3.27,0,0,0,.13-.69h0v-.07a1.31,1.31,0,0,0-.28-1"></path>
      <path class="cls-6" d="M77.34,119.28A8.59,8.59,0,0,0,75.47,122v0s-1.41,3.67,1,5.9S81.53,129.94,82,129a11,11,0,0,0,.46-1.59l0-.09a27.75,27.75,0,0,0-.52-3.54,1.8,1.8,0,0,0-.11-.61c0-.17-.07-.35-.14-.66-.35-1.49,0-1.65-.81-2.73a4,4,0,0,0-2.44-1.27l-.51.17h0l0,0a.94.94,0,0,0-.54.53"></path>
      <path class="cls-8" d="M77.52,146.66a1.58,1.58,0,0,0,1.57-.41c.54-.7.43-1.44.17-1.55l-.44-.09c-.29,0-.32.7-.33.71Z"></path>
      <path class="cls-9" d="M76.58,146.08s.87.79,1.24.55a8.71,8.71,0,0,1,.8-.46l0-.24-1-.32-.57.19Z"></path>
      <path class="cls-10" d="M76.52,146c0,.1.12.36.4.27a5.2,5.2,0,0,0,.52-.23l.33-1c.07-.14.14-.19-.25-.06s-.45,0-.72.3a1.07,1.07,0,0,0-.28.69"></path>
      <path class="cls-11" d="M77.45,146a4.61,4.61,0,0,0,.12-.7c0-.3,0-.39.29-.42s.83-.34,1.1-.23.26.09.26.44a1.31,1.31,0,0,1-.38.87.72.72,0,0,1-.76.32,1.79,1.79,0,0,1-.63-.28"></path>
      <path class="cls-8" d="M66.84,140.54s2.39.12,3.24-1.67.26-3.36-.36-3.49a7.39,7.39,0,0,0-1,0c-.65,0-.37,1.67-.39,1.7Z"></path>
      <path class="cls-9" d="M64.49,139.71s2.3,1.32,3,.62,1.53-1.4,1.53-1.4l-.16-.52a7.5,7.5,0,0,0-2.26-.25c-.37.2-1,.62-1.16.69Z"></path>
      <path class="cls-10" d="M64.3,139.44c.11.21.44.73,1,.4a8.38,8.38,0,0,0,1-.75s.19-1.93.26-2.28.22-.49-.58,0-1,.31-1.44,1a2.41,2.41,0,0,0-.28,1.66"></path>
      <path class="cls-11" d="M66.34,139.09a11.07,11.07,0,0,0,0-1.59c-.09-.69-.16-.87.42-1.08s1.68-1.13,2.33-1,.59.07.77.84a2.89,2.89,0,0,1-.42,2.1,1.59,1.59,0,0,1-1.51,1.07,4,4,0,0,1-1.54-.31"></path>
      <path class="cls-8" d="M56.88,148.3s1.87,1.42,3.54.44,2-2.59,1.62-3a6,6,0,0,0-.84-.52c-.55-.34-1.21,1.14-1.24,1.16Z"></path>
      <path class="cls-9" d="M55.43,146.35s1.14,2.33,2.08,2.14a20,20,0,0,1,2-.3l.16-.5s-1.29-1.4-1.7-1.44-1.14-.05-1.31-.08Z"></path>
      <path class="cls-10" d="M55.43,146c0,.23,0,.83.58.87a10.13,10.13,0,0,0,1.26,0l1.46-1.71c.25-.25.45-.27-.47-.33s-.95-.27-1.7,0A2.31,2.31,0,0,0,55.43,146"></path>
      <path class="cls-11" d="M57.27,146.87a11.63,11.63,0,0,0,.83-1.32c.31-.61.35-.79.93-.65s2,0,2.44.45.45.38.17,1.1a2.81,2.81,0,0,1-1.49,1.47,1.58,1.58,0,0,1-1.81,0,4.06,4.06,0,0,1-1.07-1.09"></path>
      <path class="cls-8" d="M52.59,141.87a2.68,2.68,0,0,0,.09-2.73c-.86-1.21-2.1-1.39-2.41-1l-.35.68c-.21.44,1,.84,1,.87Z"></path>
      <path class="cls-9" d="M51.19,143.1s1.7-1,1.49-1.72a15.08,15.08,0,0,1-.35-1.51l-.4-.09s-1,1.08-1,1.39,0,.87,0,1Z"></path>
      <path class="cls-10" d="M51,143.13c.18,0,.64,0,.62-.51a6,6,0,0,0-.11-1l-1.4-1c-.2-.17-.23-.32-.21.38s-.15.74.12,1.3a1.79,1.79,0,0,0,1,.79"></path>
      <path class="cls-11" d="M51.46,141.67a8.8,8.8,0,0,0-1.06-.55c-.48-.19-.62-.21-.55-.67s-.12-1.51.18-1.89.26-.37.83-.2a2.17,2.17,0,0,1,1.22,1,1.18,1.18,0,0,1,.14,1.38,3,3,0,0,1-.76.89"></path>
      <path class="cls-8" d="M44.12,143.88a1.15,1.15,0,0,0,.38-1.12c-.2-.61-.69-.84-.86-.73l-.23.23.29.49Z"></path>
      <path class="cls-9" d="M43.38,144.21s.84-.2.84-.52,0-.67,0-.67l-.15-.09-.58.45-.12.43Z"></path>
      <path class="cls-10" d="M43.28,144.19l.32-.13.08-.41-.45-.59c-.07-.1-.06-.16-.14.13s-.16.29-.12.55a.76.76,0,0,0,.31.45"></path>
      <path class="cls-11" d="M43.68,143.65l-.37-.36-.15-.35.32-.76.37,0a.92.92,0,0,1,.37.58.51.51,0,0,1-.11.59Z"></path>
      <path class="cls-8" d="M41.52,148.55s1.64-2.63.14-4.72-3.66-2.39-4.19-1.77a8.62,8.62,0,0,0-.6,1.16c-.37.77,1.66,1.46,1.69,1.51Z"></path>
      <path class="cls-9" d="M39.12,150.71s2.94-1.8,2.57-3a26.06,26.06,0,0,1-.64-2.61l-.69-.15s-1.69,1.88-1.69,2.42.08,1.51.06,1.75Z"></path>
      <path class="cls-10" d="M38.69,150.75c.31,0,1.1,0,1.08-.87a11.59,11.59,0,0,0-.2-1.67s-2.08-1.41-2.43-1.72-.41-.56-.37.66-.25,1.29.22,2.25a3.11,3.11,0,0,0,1.7,1.35"></path>
      <path class="cls-11" d="M39.57,148.21a14.22,14.22,0,0,0-1.84-.93c-.84-.33-1.08-.37-1-1.15s-.22-2.62.29-3.28.45-.64,1.44-.35a3.69,3.69,0,0,1,2.12,1.78,2.07,2.07,0,0,1,.27,2.39,5.38,5.38,0,0,1-1.31,1.54"></path>
      <path class="cls-12" d="M67.45,91.64H55.69c-.62,1.82-1.27,6.68-1,13,.24,6.51,3.79,15.15,4.53,17.14A26.48,26.48,0,0,1,60.68,129c0,1,.24,4.91,1.14,4.28s1-4.28,1-4.28a20.28,20.28,0,0,1,.43-3.75c.42-1.91,1.88-7,3.54-14.38a55.92,55.92,0,0,0,.71-18.63C67.52,92.05,67.48,91.85,67.45,91.64Z"></path>
      <path class="cls-13" d="M60.66,91.64H56.41c-3.36,8.85,4,30.1,4,30.1C57.45,104.25,58.91,95.73,60.66,91.64Z"></path>
      <path class="cls-12" d="M62.92,127.05a59,59,0,0,0-.26,6.17c0,2.1,0,4.2.11,6.31.13,4.22.46,8.39.87,12.62a39.79,39.79,0,0,1,.17,6.47c-.16,2.17-.53,4.27-.87,6.36s-.71,4.17-1,6.25a32.77,32.77,0,0,0-.34,6.25h0a.32.32,0,0,1-.29.33.32.32,0,0,1-.33-.27,30.73,30.73,0,0,1-.1-6.43c.16-2.13.41-4.24.68-6.34s.53-4.19.63-6.25a39.41,39.41,0,0,0-.32-6.21c-.5-4.19-.93-8.45-1.16-12.7-.12-2.12-.22-4.25-.24-6.39a60.12,60.12,0,0,1,.24-6.51,1.11,1.11,0,0,1,2.2.24h0Z"></path>
      <path class="cls-14" d="M59.92,123.26s-3.87,4.16-3.68,9.16"></path>
      <path class="cls-14" d="M57.5,127a6.92,6.92,0,0,0-4.19,4.61"></path>
      <path class="cls-14" d="M63.53,123.58A8.39,8.39,0,0,1,66,128.73"></path>
      <path class="cls-14" d="M62.59,129.77s3.11,4.51,1.88,7.44"></path>
      <path class="cls-14" d="M60.87,129.34s-2.37,4.16-1.8,6.89"></path>
      <path class="cls-14" d="M61.07,139.26a8.65,8.65,0,0,0-3.87,8.87"></path>
      <path class="cls-14" d="M57.91,142.84s-3.4,1.23-4,2.56"></path>
      <path class="cls-14" d="M61.78,144.12s-2.34,2.31-3.39,8.45"></path>
      <path class="cls-14" d="M62.45,144.87a14.35,14.35,0,0,0,2.64.57c.38-.09,2.17-1.89,5.86.57"></path>
      <path class="cls-14" d="M65.47,145.35s2,.09,3.4,3.49"></path>
      <path class="cls-14" d="M63,151.25s-3,3.5-2.69,5.1"></path>
      <path class="cls-14" d="M61.78,152.8a7.48,7.48,0,0,0-4.22,5.82"></path>
      <path class="cls-14" d="M63.75,156.35a5.5,5.5,0,0,1,3.16,3.78"></path>
      <path class="cls-14" d="M65.68,157.77s2.45-1.14,4.15,2"></path>
      <path class="cls-14" d="M62.77,162.49s-3.4,1.7-3.4,3"></path>
      <path class="cls-14" d="M62.48,166.55a3.45,3.45,0,0,1,1.8,2.93"></path>
      <path class="cls-14" d="M55.12,102.51s-4.39,3.69-4.25,7.09a19.68,19.68,0,0,1-.71,6.09"></path>
      <path class="cls-14" d="M50.89,110.64s2.44,2,2.63,4"></path>
      <path class="cls-14" d="M52.2,105.79s-2.55,2.49-3.17,3.31"></path>
      <path class="cls-14" d="M67.17,97.87c.14.14,5,6.13,6.7,6.94"></path>
      <path class="cls-14" d="M70.33,101.55a27.82,27.82,0,0,1,1,3.68c0,.66-.52,2.22,0,3.17"></path>
      <path class="cls-14" d="M71.32,104.78a17,17,0,0,1,2.27,3.62,4.68,4.68,0,0,1,0,2"></path>
      <polygon class="cls-15" points="3.37 79.22 61.3 104.73 113.94 81.2 61.3 61.63 3.37 79.22"></polygon>
      <path class="cls-16" d="M67.45,70.81s5.78-5.56,5.26-10.27-1.61-6.28-.62-7.83-.44-5,.91-7,1.94-1.66,4.28-2.21,2.24-1,3.41-2.84,10-1.92,12.75,2.72,1-3,1-3-1.56-7.51-5.32-9.85S85,25.1,83.32,24.87,76.5,27.25,76,28.5s-8.39,3.85-9.6,7.38-7.73,13-.26,25.24c0,0,1.88,5.61,1,7.62S65.62,72.85,67.45,70.81Z"></path>
      <g id="_1" data-name="1">
        <path class="cls-12" d="M92.48,41.23a13,13,0,0,0-5.37-6A11.15,11.15,0,0,0,83.26,34a12.48,12.48,0,0,0-4,.27,19.55,19.55,0,0,0-7.36,3.5,11.57,11.57,0,0,0-4.34,6.58,17.71,17.71,0,0,0,.28,8.05c.3,1.34.7,2.66,1.11,4l.6,2c.1.35.19.71.26,1.07l.19,1a10.66,10.66,0,0,1,0,4.5,15.27,15.27,0,0,1-1.57,4.15,30.9,30.9,0,0,1-5.27,6.87,1,1,0,0,1-1.36-1.34h0a28.67,28.67,0,0,0,5.06-6.36,10.48,10.48,0,0,0,1.48-7.49l-.17-1c-.06-.31-.14-.64-.22-1l-.56-2c-.39-1.35-.78-2.73-1.07-4.13a19.2,19.2,0,0,1-.14-8.7,12.9,12.9,0,0,1,4.92-7.23A20.54,20.54,0,0,1,79,33.22a17.85,17.85,0,0,1,2.18-.3,18.31,18.31,0,0,1,2.22.08,12,12,0,0,1,4.19,1.42A12.42,12.42,0,0,1,93,41.1a.26.26,0,0,1-.17.34.28.28,0,0,1-.34-.14Z"></path>
      </g>
      <path class="cls-17" d="M68.75,57.92c2-5,4.48-10.91,5.47-12.45s3.24-5.37,4.6-7.36,3.56-6.88-.35-11.2c0,0-.67-.36,0-2.27a35.35,35.35,0,0,0,1.76-6.1c.44-2.38,8.19-5.45,9-1.7a9.79,9.79,0,0,0,.89-5c-.11-3.4-1.49-5.44-3.51-6.6A10.48,10.48,0,0,0,75.66,6.49c-4.25,3.16-5.91,4.34-6.91,5.51s-3.63,1.72-2.08,6.11.43,4.81.18,5.76,1,3.65.25,5.09-5.51,5.18-5.47,6.6a16,16,0,0,1,.1,3.08c-.16,1-2.15,3.78-1.62,5.56s1.32,2.94,1,4.72-2.38,2.41.63,5.06,4,4.88,4.71,5.52S67.61,60.79,68.75,57.92Z"></path>
      <path class="cls-16" d="M41.59,10.85s.87.17,3.08-3.11A25.48,25.48,0,0,0,48.1,1.39c.35-1.14,1.07-2,1.87-.81s.86,3.28,4.26,3.36,2.11-.85,4,1.09,2.41.89,3.88,2.54,1.7,3.07,2.75,3.51S59,16.46,62.15,21.75s3.21,8.87.62,13.77S60.89,46.83,60,48s-7-2-8.25-7.87S42.22,25,40.87,21.08,38.8,12.26,41.59,10.85Z"></path>
      <path class="cls-16" d="M44.3,49.44s-7.16-5.38-9.2-7.2-2.33-4.94-1.75-7.79-.71-4.61-4.44-6.1a28.44,28.44,0,0,0-14.33-1.82s-1.1,1-1.36-1.15,1.5-3.58-2.11-7.06c0,0-1.31.23-1.29-2.14s.57-2.94-2.13-4.65A2.24,2.24,0,0,1,5.25,9.14C5.27,6.59,1,3.79.45,3.34s-1-1.29,1.4-.42S7.11,4.83,9.37,4.86s5.66-.55,7.19.06,2.89,2,4.23,2.51,8.73,1.15,11.88,8.33c0,0,5.85,2.75,9.12,10.77S46.73,39.45,47,43.4,46.8,53.93,44.3,49.44Z"></path>
      <path class="cls-12" d="M7.84,6.25a17.73,17.73,0,0,1,4.28,1.18c.67.3,1.36.56,2,.89l1.95,1a46.14,46.14,0,0,1,7.11,5.15,41.54,41.54,0,0,1,3.21,3c1,1.07,2.08,2.06,3,3.22l2.81,3.38,2.57,3.55c.42.6.88,1.17,1.27,1.79l1.17,1.86L39.54,35c1.38,2.57,2.86,5.1,4.16,7.71s2.54,5.26,3.7,7.94l3.34,8.09,0,.07v.05c.46,1.68,1,3.38,1.66,5a45.4,45.4,0,0,0,2.14,4.83,24.32,24.32,0,0,0,2.76,4.37,25.14,25.14,0,0,0,3.46,3.46l.06,0A.87.87,0,0,1,61,77.85a.89.89,0,0,1-.85.29,8.48,8.48,0,0,1-4.72-3.49,27.41,27.41,0,0,1-3-4.83,48.55,48.55,0,0,1-2.16-5.11c-.63-1.74-1.18-3.47-1.65-5.29l0,.12L45.5,51.48c-1.1-2.67-2.36-5.26-3.53-7.9S39.34,38.46,38,35.89l-2.21-3.71L34.7,30.33c-.37-.62-.81-1.2-1.21-1.79L31,25,28.36,21.6c-.86-1.16-1.91-2.15-2.85-3.23a39.76,39.76,0,0,0-3.05-3,44.9,44.9,0,0,0-6.8-5.26L13.79,9c-.63-.34-1.29-.61-1.94-.93a17.6,17.6,0,0,0-4-1.27h0a.27.27,0,0,1-.23-.32A.26.26,0,0,1,7.84,6.25Z"></path>
      <path class="cls-12" d="M49.11,12.14a.71.71,0,0,1,.18.12l.08.08.09.13.16.22.27.45.52.91c.33.61.64,1.23,1,1.85.61,1.24,1.19,2.49,1.74,3.76,1.09,2.54,2.07,5.13,2.91,7.77a68.79,68.79,0,0,1,2.1,8c.54,2.74.82,5.49,1.18,8.21q1,8.19,1.89,16.41c.29,2.73.58,5.47.83,8.22.12,1.37.24,2.75.34,4.13l.13,2.09a14.73,14.73,0,0,1,0,2.37A1.22,1.22,0,0,1,60,76.62l0-.27c0-.33,0-1.11,0-1.74l-.07-2c-.06-1.36-.14-2.72-.23-4.09-.17-2.74-.38-5.47-.59-8.21q-.64-8.22-1.43-16.42c-.29-2.73-.49-5.47-1-8.14a68.54,68.54,0,0,0-1.86-8Q53.8,23.82,52.27,20c-.51-1.27-1.05-2.53-1.62-3.77-.29-.62-.58-1.24-.89-1.84l-.48-.9L49,13.06l-.13-.2-.06-.08v0a.15.15,0,0,0,.09,0,.33.33,0,0,1-.23-.42A.34.34,0,0,1,49.11,12.14Z"></path>
      <path class="cls-17" d="M56.45,63.5c.19-.57,1.91-5.45,2-6s1.81-2.41-.16-5.19-.83-2.38-.39-3.27,2.94-2.85.56-6.56S54.71,40.69,56,36a6,6,0,0,0,1.52-5.18s-.06-.85-2.3-1.77S54,23.79,53.48,22.53s-1.95-5.68-9.88-7.84-15.52-2.43-13.6.07,4.49,3.26,5.94,6.55.15,7.29.65,9.47.19,1.63,3.16,3.66,2.59-.83,3.59,3.84S43.7,43.1,45.53,45s-.81,3.64,0,5.95,5.13,5.66,6,7.4,2.59,5.94,3.65,5.91S56,64.74,56.45,63.5Z"></path>
      <path class="cls-12" d="M47.27,24.24a26.11,26.11,0,0,1,2.93,6.09A22.74,22.74,0,0,1,51.43,37,52.37,52.37,0,0,0,52,43.63c.29,2.2.66,4.39,1.07,6.57.83,4.36,1.82,8.7,3,12.95.63,2.12,1.33,4.22,2.14,6.25a17.58,17.58,0,0,0,3.16,5.45l0,0a.85.85,0,0,1-1.2,1.21,12.23,12.23,0,0,1-2.11-2.91,33.89,33.89,0,0,1-1.47-3.12,63.12,63.12,0,0,1-2.17-6.43,118.83,118.83,0,0,1-2.9-13.16A77,77,0,0,1,50.28,37,26.78,26.78,0,0,0,47,24.44v0a.19.19,0,0,1,.08-.25A.19.19,0,0,1,47.27,24.24Z"></path>
      <path class="cls-12" d="M85,13a9.27,9.27,0,0,0-4.23-.79,6.73,6.73,0,0,0-3.82,1.53c-2.15,1.83-3.32,4.65-4,7.48a41.42,41.42,0,0,0-.82,4.36c-.22,1.48-.42,3-.6,4.45-.38,3-.65,5.95-.85,8.94s-.39,6-.73,9-.77,6-1.29,9-1.16,5.94-1.92,8.88c-.38,1.46-.79,2.92-1.23,4.37s-.93,2.91-1.28,4.27v0a.85.85,0,0,1-1.65-.43c.41-1.55.89-2.92,1.31-4.37s.83-2.87,1.2-4.31c.76-2.89,1.36-5.81,1.92-8.75s1-5.9,1.37-8.86.59-5.94.82-8.95.55-6,1-9c.21-1.5.42-3,.66-4.48a39.2,39.2,0,0,1,.9-4.49,21.06,21.06,0,0,1,1.62-4.34,11,11,0,0,1,3-3.68,7.15,7.15,0,0,1,4.49-1.52,8.7,8.7,0,0,1,4.46,1.29.2.2,0,0,1,.07.28A.21.21,0,0,1,85,13Z"></path>
      <path class="cls-17" d="M72.14,69.82s8.86-13,7.7-17.06,3.09-.66,4.19-1.93-1-7.9,5.87-8.68,19.32,1.48,19.61,1.47,2.84.29.06,2-5.17,1.77-8.89,6.23-6.91,2.2-7.75,2.7S92,55.69,91.51,57.4a4.71,4.71,0,0,1-4,2.87c-1.32,0-2.35.17-3,2.07S75.33,68.87,72.14,69.82Z"></path>
      <path class="cls-12" d="M101.3,47.55a2.87,2.87,0,0,0-1.39,0,7.42,7.42,0,0,0-1.42.48,16.5,16.5,0,0,0-2.64,1.51,40.39,40.39,0,0,0-4.71,4c-3,2.87-5.53,6.09-8.34,9.23a69.46,69.46,0,0,1-9.26,8.54,49.84,49.84,0,0,1-5.26,3.54,30.61,30.61,0,0,1-5.87,2.72,1,1,0,1,1-.63-1.93h0l.08,0a28.38,28.38,0,0,0,5.48-2.37A47.45,47.45,0,0,0,72.55,70a68.62,68.62,0,0,0,9.3-8.09c2.81-3,5.54-6.21,8.64-9a39.14,39.14,0,0,1,5-3.9,16,16,0,0,1,2.82-1.46,6.87,6.87,0,0,1,1.55-.44,3.22,3.22,0,0,1,1.7.1.22.22,0,0,1,.12.29.21.21,0,0,1-.27.13Z"></path>
      <path class="cls-12" d="M65.07,78.06a5.92,5.92,0,0,0,0-2.19c0-.12-.23-.69-.66,0s-6.76.71-6.76.71c-1.25,0-.9,2.36-.83,3.49s-.53,1.91-1.15,3.61a.88.88,0,0,0-.05.15H67.38A15.87,15.87,0,0,0,65.07,78.06Z"></path>
      <path class="cls-13" d="M63.33,80.21c-3.79-.75-5.92.82-7,3.62h4.25C61.88,80.83,63.33,80.21,63.33,80.21Z"></path>
      <path class="cls-8" d="M58.48,91.28a1.27,1.27,0,0,0-1.2-.44c-.67.21-.93.73-.82.92l.25.25c.17.17.52-.3.53-.3Z"></path>
      <path class="cls-18" d="M58.82,92.08s-.21-.9-.55-.91a6.67,6.67,0,0,1-.72-.07l-.1.17s.34.59.48.64.39.11.45.13A2.64,2.64,0,0,0,58.82,92.08Z"></path>
      <path class="cls-10" d="M58.8,92.2c0-.08.08-.29-.14-.35a2.71,2.71,0,0,0-.44-.1s-.54.41-.65.48-.18.06.14.15.31.17.59.14A.88.88,0,0,0,58.8,92.2Z"></path>
      <path class="cls-11" d="M58.22,91.75a3.81,3.81,0,0,0-.4.39c-.15.19-.18.25-.37.15s-.69-.16-.82-.35-.12-.17,0-.4a1,1,0,0,1,.63-.39.57.57,0,0,1,.64.13A1.42,1.42,0,0,1,58.22,91.75Z"></path>
      <path class="cls-8" d="M52.07,81.55s-3.83-1.91-6.5.42-2.81,5.33-1.89,6a13.54,13.54,0,0,0,1.68.67c1.1.4,1.79-2.47,1.85-2.51S52.07,81.55,52.07,81.55Z"></path>
      <path class="cls-18" d="M55.34,84.57s-2.84-3.8-4.46-3.14-3.5,1.21-3.5,1.21l-.11,1s2.79,2.08,3.53,2,2.07-.31,2.4-.31A16.2,16.2,0,0,0,55.34,84.57Z"></path>
      <path class="cls-10" d="M55.45,85.15c0-.42-.19-1.51-1.34-1.36a16.68,16.68,0,0,0-2.25.48s-1.67,3-2,3.56-.71.64.95.42,1.8.18,3.06-.58A4.29,4.29,0,0,0,55.45,85.15Z"></path>
      <path class="cls-11" d="M51.86,84.27a20.32,20.32,0,0,0-1,2.64c-.34,1.21-.36,1.54-1.45,1.48s-3.56.65-4.54,0-.94-.53-.67-1.93.92-2.06,2.18-3.14a2.83,2.83,0,0,1,3.24-.68A7.36,7.36,0,0,1,51.86,84.27Z"></path>
      <path class="cls-8" d="M65.31,82.35s-3.21-1.89-5.67,0-2.76,4.45-2,5.07a10.46,10.46,0,0,0,1.41.68c.94.42,1.71-2,1.76-2.07S65.31,82.35,65.31,82.35Z"></path>
      <path class="cls-18" d="M68,85.17s-2.23-3.47-3.68-3-3.11.83-3.11.83l-.16.84s2.31,2,3,2,1.81-.14,2.1-.13A13.91,13.91,0,0,0,68,85.17Z"></path>
      <path class="cls-10" d="M68,85.68c0-.37-.08-1.32-1.08-1.26a14.23,14.23,0,0,0-2,.28s-1.64,2.54-2,3-.66.51.8.42,1.55.26,2.69-.32A3.77,3.77,0,0,0,68,85.68Z"></path>
      <path class="cls-11" d="M65,84.7a18.46,18.46,0,0,0-1.07,2.23c-.37,1-.4,1.31-1.35,1.2s-3.13.35-3.94-.25-.78-.52-.46-1.72a4.41,4.41,0,0,1,2.07-2.59,2.49,2.49,0,0,1,2.86-.4A6.44,6.44,0,0,1,65,84.7Z"></path>
      <path class="cls-8" d="M73.81,79s-3.16-2.44-6-.79S64.24,82.55,65,83.31a10.45,10.45,0,0,0,1.42.91c.94.58,2.08-1.93,2.15-2S73.81,79,73.81,79Z"></path>
      <path class="cls-18" d="M76.26,82.32s-1.92-4-3.52-3.68-3.43.47-3.43.47L69,80s2.19,2.4,2.88,2.48,2,.09,2.25.15A14.77,14.77,0,0,0,76.26,82.32Z"></path>
      <path class="cls-10" d="M76.26,82.87c0-.39.09-1.42-1-1.49a14.89,14.89,0,0,0-2.16,0S71,83.9,70.61,84.31s-.78.46.79.56,1.62.48,2.91,0A4,4,0,0,0,76.26,82.87Z"></path>
      <path class="cls-11" d="M73.12,81.42a18.13,18.13,0,0,0-1.43,2.23c-.54,1-.61,1.34-1.61,1.09s-3.37,0-4.16-.79-.76-.66-.26-1.89,1.21-1.72,2.56-2.49a2.68,2.68,0,0,1,3.09,0A6.85,6.85,0,0,1,73.12,81.42Z"></path>
      <path class="cls-8" d="M76.27,89.2A1.9,1.9,0,0,0,78,88.33c.48-1,.17-1.8-.16-1.88a3.37,3.37,0,0,0-.54,0c-.36,0-.22.89-.23.91S76.27,89.2,76.27,89.2Z"></path>
      <path class="cls-18" d="M75,88.74s1.23.72,1.6.35a11.1,11.1,0,0,1,.84-.74l-.08-.28a4,4,0,0,0-1.22-.15c-.2.1-.54.32-.63.36A5.09,5.09,0,0,0,75,88.74Z"></path>
      <path class="cls-10" d="M74.91,88.59c.06.11.23.4.53.22a4.71,4.71,0,0,0,.57-.39s.12-1,.16-1.23.13-.26-.31,0-.52.15-.78.51A1.34,1.34,0,0,0,74.91,88.59Z"></path>
      <path class="cls-11" d="M76,88.42a6.18,6.18,0,0,0,0-.86c0-.37-.08-.46.23-.58s.91-.59,1.26-.53.32,0,.41.46A1.56,1.56,0,0,1,77.66,88a.86.86,0,0,1-.83.57A2.28,2.28,0,0,1,76,88.42Z"></path>
      <path class="cls-8" d="M46.12,89.88a2.45,2.45,0,0,0,2.31-.95c.69-1.18.37-2.28,0-2.41a4.59,4.59,0,0,0-.69,0c-.45,0-.35,1.11-.37,1.14Z"></path>
      <path class="cls-18" d="M44.56,89.18s1.5,1,2,.59,1.13-.86,1.13-.86l-.08-.37a5.09,5.09,0,0,0-1.53-.3c-.26.12-.72.37-.84.41A7.09,7.09,0,0,0,44.56,89.18Z"></path>
      <path class="cls-10" d="M44.45,89c.07.15.26.53.66.33a6.4,6.4,0,0,0,.76-.45s.23-1.31.3-1.54.19-.32-.39,0-.68.16-1,.59A1.62,1.62,0,0,0,44.45,89Z"></path>
      <path class="cls-11" d="M45.87,88.86a6.73,6.73,0,0,0,.05-1.09c0-.48-.05-.6.35-.71s1.21-.67,1.65-.57.4.08.47.62a1.94,1.94,0,0,1-.4,1.41,1.07,1.07,0,0,1-1.09.64A2.8,2.8,0,0,1,45.87,88.86Z"></path>
      <path class="cls-8" d="M56.72,83.83a1.43,1.43,0,0,0,1.43.25c.7-.37.89-1,.72-1.2a2.72,2.72,0,0,0-.32-.23c-.22-.15-.52.44-.54.45S56.72,83.83,56.72,83.83Z"></path>
      <path class="cls-18" d="M56.17,83s.42,1,.81.92.82-.08.82-.08l.07-.21s-.5-.59-.66-.62L56.68,83A3.4,3.4,0,0,0,56.17,83Z"></path>
      <path class="cls-10" d="M56.18,82.87c0,.1,0,.34.22.37a5,5,0,0,0,.51,0s.52-.57.63-.66.19-.1-.18-.14-.38-.14-.69,0A1,1,0,0,0,56.18,82.87Z"></path>
      <path class="cls-11" d="M56.91,83.25a3.91,3.91,0,0,0,.37-.52c.13-.24.16-.31.39-.24s.8,0,1,.23.18.16.05.45a1.17,1.17,0,0,1-.64.57.64.64,0,0,1-.74,0A1.62,1.62,0,0,1,56.91,83.25Z"></path>
      <path class="cls-8" d="M69.61,89.27s3.6.88,5.4-1.6,1.35-5,.45-5.4A10.3,10.3,0,0,0,73.92,82c-1-.13-1,2.43-1.08,2.48S69.61,89.27,69.61,89.27Z"></path>
      <path class="cls-18" d="M66.28,87.35S69.4,90,70.64,89.14s2.72-1.69,2.72-1.69l-.09-.83s-2.76-1.22-3.37-1-1.68.65-2,.72A13.25,13.25,0,0,0,66.28,87.35Z"></path>
      <path class="cls-10" d="M66.07,86.89c.12.35.46,1.23,1.39.89a14.59,14.59,0,0,0,1.81-.84s.83-2.89,1-3.4.48-.67-.88-.17-1.55.2-2.46,1.08A3.73,3.73,0,0,0,66.07,86.89Z"></path>
      <path class="cls-11" d="M69.27,86.94a15.91,15.91,0,0,0,.37-2.43c.06-1.08,0-1.37,1-1.53s2.87-1.23,3.82-.89.89.27.93,1.5a4.4,4.4,0,0,1-1.23,3.06,2.47,2.47,0,0,1-2.6,1.2A6.42,6.42,0,0,1,69.27,86.94Z"></path>
      <path class="cls-8" d="M53,87.19s2.16,1.22,3.77,0,1.77-3,1.26-3.4a6.77,6.77,0,0,0-1-.44C56.49,83,56,84.68,56,84.7S53,87.19,53,87.19Z"></path>
      <path class="cls-18" d="M51.23,85.36s1.53,2.27,2.48,1.94,2.06-.6,2.06-.6l.1-.56s-1.56-1.28-2-1.26-1.2.12-1.39.11A9,9,0,0,0,51.23,85.36Z"></path>
      <path class="cls-10" d="M51.18,85c0,.24.07.88.73.82a9.17,9.17,0,0,0,1.32-.21s1.05-1.71,1.28-2,.44-.35-.53-.27-1-.15-1.78.25A2.5,2.5,0,0,0,51.18,85Z"></path>
      <path class="cls-11" d="M53.23,85.63a10.71,10.71,0,0,0,.68-1.5c.24-.68.25-.88.89-.81s2.07-.27,2.62.11.52.34.33,1.14a3,3,0,0,1-1.35,1.75,1.65,1.65,0,0,1-1.89.3A4.27,4.27,0,0,1,53.23,85.63Z"></path>
    </g>
  </g>
</svg>
