<?xml version="1.0" encoding="UTF-8"?>
<svg xmlns="http://www.w3.org/2000/svg" viewBox="0 0 133.62 251.88">
  <defs>
    <style>.cls-1{fill:#a29274;}.cls-2{fill:#e3e0c9;}.cls-3{fill:#fcedce;}.cls-4{fill:#bda885;}.cls-5{fill:#d0c5a6;}.cls-6{fill:#8f8267;}.cls-7{fill:#ab967a;opacity:0.25;}.cls-8{fill:#9b8d71;}.cls-9{fill:#7c705b;}.cls-10{fill:#e7e6e3;}.cls-11{fill:#817870;}.cls-12{fill:#d2d1ca;}.cls-13{fill:#81a135;}.cls-14{fill:#90b33a;}.cls-15{fill:#a1a0a0;}</style>
  </defs>
  <g id="Слой_2" data-name="Слой 2">
    <g id="Слой_1-2" data-name="Слой 1">
      <polygon class="cls-1" points="73.37 180.51 127.54 157.45 119.42 219.82 73.37 251.88 73.37 180.51"></polygon>
      <polygon class="cls-2" points="73.37 141.85 127.54 157.45 73.37 180.51 19.05 157.45 73.37 141.85"></polygon>
      <polygon class="cls-3" points="73.37 141.85 19.05 157.45 20 157.85 127.04 157.3 73.37 141.85"></polygon>
      <polygon class="cls-4" points="27.18 219.82 19.05 157.45 73.37 180.51 73.37 251.88 27.18 219.82"></polygon>
      <path class="cls-5" d="M53.19,158.21a34.88,34.88,0,0,1,2.57-2.74,24.71,24.71,0,0,1,3-2.31,30.31,30.31,0,0,1,6.8-3.3,35.39,35.39,0,0,1,7.38-1.55c1.25-.16,2.51-.13,3.76-.19s2.5.11,3.74.22c-1.24.14-2.48.19-3.71.32l-1.84.24c-.61.08-1.23.14-1.83.27-1.21.23-2.43.41-3.61.74s-2.36.65-3.54,1a38.49,38.49,0,0,0-6.69,3A37.35,37.35,0,0,0,53.19,158.21Z"></path>
      <polygon class="cls-6" points="73.37 180.51 127.54 157.45 119.42 219.82 73.37 251.88 73.37 180.51"></polygon>
      <polygon class="cls-7" points="27.18 219.82 19.05 157.45 73.37 180.51 73.37 251.88 27.18 219.82"></polygon>
      <polygon class="cls-8" points="73.37 251.88 27.18 219.82 73.59 202.28 119.42 219.82 73.37 251.88"></polygon>
      <path class="cls-9" d="M37,192.4a16.66,16.66,0,0,1-1.4-9.05,14.4,14.4,0,0,1,4-8.37,19.89,19.89,0,0,1,8-4.75,34.16,34.16,0,0,1,9-1.61c-.75.17-1.49.33-2.24.47s-1.47.37-2.21.55-1.45.42-2.18.63-1.42.5-2.12.76a21.78,21.78,0,0,0-7.47,4.72,14.7,14.7,0,0,0-4,7.73A19.87,19.87,0,0,0,37,192.4Z"></path>
      <path class="cls-9" d="M87.47,191.54c.15.23.45.31.69.43l.77.32c.52.2,1,.38,1.58.55,1.06.35,2.13.66,3.2,1,2.15.58,4.31,1.1,6.49,1.53,4.36.9,8.77,1.47,13.25,2a50.23,50.23,0,0,1-20-2.7c-1.06-.38-2.11-.8-3.14-1.28-.51-.25-1-.5-1.5-.78A3.89,3.89,0,0,1,87.47,191.54Z"></path>
      <path class="cls-9" d="M58.38,188.28a40,40,0,0,1-3.6,12,33.61,33.61,0,0,1-3.26,5.39A20.49,20.49,0,0,1,47,210a35.19,35.19,0,0,0,3.8-4.86,53.9,53.9,0,0,0,3-5.37c.9-1.84,1.69-3.74,2.46-5.65S57.71,190.26,58.38,188.28Z"></path>
      <path class="cls-9" d="M75.18,237.92c2.21-1.08,4.5-1.94,6.73-2.91s4.44-1.95,6.58-3.07a41,41,0,0,0,6.12-3.82,17.46,17.46,0,0,0,4.83-5.32,14,14,0,0,1-4.28,6A31.42,31.42,0,0,1,89,232.93a54.7,54.7,0,0,1-6.79,2.89c-1.16.41-2.33.77-3.51,1.12Z"></path>
      <path class="cls-9" d="M49.77,231.08a15.44,15.44,0,0,1-3.51-2.23,8.38,8.38,0,0,1-2.54-3.42,4.92,4.92,0,0,1-.31-2.22,5.57,5.57,0,0,1,.67-2.15A10.13,10.13,0,0,1,47,217.9a28.67,28.67,0,0,1,7.49-3.73,57.3,57.3,0,0,1,8-2.09c-2.59.94-5.18,1.87-7.71,2.9a34.14,34.14,0,0,0-7.14,3.81A9.48,9.48,0,0,0,45,221.57a4.4,4.4,0,0,0-.46,3.59,8.52,8.52,0,0,0,2.1,3.3A18.43,18.43,0,0,0,49.77,231.08Z"></path>
      <path class="cls-9" d="M99.44,190.28l4-5.56c1.32-1.85,2.62-3.72,3.85-5.63a59.38,59.38,0,0,0,3.4-5.88,18.85,18.85,0,0,0,2.13-6.42,14.56,14.56,0,0,1-1.34,6.77,37.1,37.1,0,0,1-3.26,6.13A57.44,57.44,0,0,1,99.44,190.28Z"></path>
      <path class="cls-10" d="M76.85,168.62a13.12,13.12,0,0,0-.72,6.16,48.35,48.35,0,0,0,1.24,6.44,35.41,35.41,0,0,1,1.1,6.73,22.91,22.91,0,0,1-.94,6.78c-.57,2.17-1.23,4.28-1.59,6.44a25.69,25.69,0,0,0-.32,6.55,17.75,17.75,0,0,0,5.46,11.67,16.39,16.39,0,0,1-6.27-11.59A26.08,26.08,0,0,1,75,201c.31-2.25.93-4.43,1.42-6.58A21.4,21.4,0,0,0,77.1,188a33.73,33.73,0,0,0-1.24-6.41A44.82,44.82,0,0,1,74.45,175a14.75,14.75,0,0,1,.73-7,.9.9,0,0,1,1.68.65Z"></path>
      <path class="cls-10" d="M76.5,168.07a14.12,14.12,0,0,0,3.69,5.08,27.44,27.44,0,0,0,5.49,3.36,57.39,57.39,0,0,1,5.79,3.08,10.9,10.9,0,0,1,2.45,2.19,5.41,5.41,0,0,1,1.22,3,5.36,5.36,0,0,0-1.32-2.92,10.68,10.68,0,0,0-2.49-2.05A57.84,57.84,0,0,0,85.45,177a27.15,27.15,0,0,1-5.77-3.23,14.88,14.88,0,0,1-4.14-5.26.53.53,0,1,1,.95-.45Z"></path>
      <path class="cls-10" d="M85.92,176.89a9.23,9.23,0,0,0,1.32,6.46,9.42,9.42,0,0,1-1.71-6.51Z"></path>
      <path class="cls-10" d="M81.58,174.49a5.84,5.84,0,0,1,2.4-1,6.73,6.73,0,0,1,2.53,0,8,8,0,0,1,2.29,1c.71.43,1.37.91,2,1.4-.7-.44-1.39-.88-2.12-1.25a7.94,7.94,0,0,0-2.27-.82,6.35,6.35,0,0,0-2.37.17A5.22,5.22,0,0,0,82,175Z"></path>
      <path class="cls-10" d="M77,183a2.17,2.17,0,0,1,1.81-.45,7.5,7.5,0,0,1,1.52.44,20.2,20.2,0,0,1,2.78,1.22,10.73,10.73,0,0,1,4.42,4,10.41,10.41,0,0,0-4.65-3.54,20.83,20.83,0,0,0-2.79-.95,7.36,7.36,0,0,0-1.37-.27,1.19,1.19,0,0,0-1,.29Z"></path>
      <path class="cls-10" d="M78.2,188.05a24.06,24.06,0,0,0,3.86,3.82,27.81,27.81,0,0,0,4.59,3c1.62.85,3.39,1.49,5,2.51a6.91,6.91,0,0,1,3.28,4.35,6.82,6.82,0,0,0-3.43-4.12c-1.58-.92-3.36-1.46-5.06-2.25a28.63,28.63,0,0,1-4.83-2.85,24.64,24.64,0,0,1-4.2-3.78Z"></path>
      <path class="cls-10" d="M87.43,195.36a12.84,12.84,0,0,1,1.42,3.38,8.53,8.53,0,0,1,.28,1.81,4,4,0,0,1-.29,1.79,4.15,4.15,0,0,0,.19-1.78,8.76,8.76,0,0,0-.38-1.76,12.62,12.62,0,0,0-1.58-3.21Z"></path>
      <path class="cls-10" d="M85.71,194.45a17.45,17.45,0,0,1,9.53,2.65,17.19,17.19,0,0,0-9.51-2.22Z"></path>
      <path class="cls-10" d="M76.79,196.4c1.06,1.07,1.93,2.2,2.93,3.16a20.63,20.63,0,0,0,3.58,2.25c1.26.65,2.6,1.17,3.87,1.86a8.42,8.42,0,0,1,3.23,2.8,8.14,8.14,0,0,0-3.31-2.64c-1.29-.61-2.65-1.07-4-1.66a20.32,20.32,0,0,1-3.84-2.1c-1.11-1-2-2.09-3.11-2.95Z"></path>
      <path class="cls-10" d="M75.42,204.69a32.47,32.47,0,0,0,5.9,4.05c1.05.57,2.18,1,3.23,1.67A5.57,5.57,0,0,1,87,213a5.37,5.37,0,0,0-2.6-2.38c-1.07-.54-2.22-.92-3.33-1.43a33,33,0,0,1-6.33-3.7Z"></path>
      <path class="cls-10" d="M82.8,209.74a6,6,0,0,0,.43,5.38,6.32,6.32,0,0,1-1-5.59Z"></path>
      <path class="cls-10" d="M79,207.44a11.89,11.89,0,0,1,3.2-.28,5.1,5.1,0,0,1,3,1.1,5,5,0,0,0-3-.82,11.3,11.3,0,0,0-3.05.54Z"></path>
      <path class="cls-10" d="M77.51,214.88a5.34,5.34,0,0,1,1.7.45,10.64,10.64,0,0,1,1.54.79,8.58,8.58,0,0,1,2.56,2.23,8.63,8.63,0,0,0-2.67-2,11,11,0,0,0-1.54-.67,4.72,4.72,0,0,0-1.59-.31Z"></path>
      <path class="cls-10" d="M76.45,212.89a7.53,7.53,0,0,1-2.23,1.44,5,5,0,0,0-2,1.53,5.06,5.06,0,0,1,1.94-1.73,7.28,7.28,0,0,0,2-1.53Z"></path>
      <path class="cls-10" d="M76.29,198.86a63.69,63.69,0,0,0-7.38,4.7,13.84,13.84,0,0,0-3,3.16,9.1,9.1,0,0,0-1.53,4.05,9.22,9.22,0,0,1,1.3-4.19,14.3,14.3,0,0,1,2.82-3.43A64.78,64.78,0,0,1,75.72,198Z"></path>
      <path class="cls-10" d="M71.34,201.55a8.07,8.07,0,0,1,.47,4.39,14.24,14.24,0,0,1-1.34,4.14,14.54,14.54,0,0,0,1.07-4.18,7.58,7.58,0,0,0-.71-4.11Z"></path>
      <path class="cls-10" d="M68,204.19a11.34,11.34,0,0,0-7.73,1.41A11.58,11.58,0,0,1,68,203.78Z"></path>
      <path class="cls-10" d="M76.83,185.05a4.31,4.31,0,0,0-2.33,1,17.35,17.35,0,0,0-2,2c-1.3,1.44-2.49,3-3.7,4.55A56.25,56.25,0,0,1,65,197.12a19.44,19.44,0,0,1-4.64,3.64,19.27,19.27,0,0,0,4.39-3.86,55.88,55.88,0,0,0,3.51-4.71c1.11-1.62,2.22-3.26,3.47-4.81a18,18,0,0,1,2.07-2.23,5.43,5.43,0,0,1,3-1.42Z"></path>
      <path class="cls-10" d="M67.53,194a16,16,0,0,1-2.84.93,7.06,7.06,0,0,1-3,.17,7,7,0,0,0,2.9-.37,16.06,16.06,0,0,0,2.71-1.11Z"></path>
      <path class="cls-10" d="M71.43,189a6.89,6.89,0,0,0,0,2.26,8.31,8.31,0,0,1-.11,2.49,10.88,10.88,0,0,1-1.88,4.5,13.34,13.34,0,0,0,1.31-4.58,10.08,10.08,0,0,0,0-2.33,5.13,5.13,0,0,1,.1-2.54Z"></path>
      <path class="cls-10" d="M76.14,168.49a23.52,23.52,0,0,0-5.5,4.52c-1.64,1.75-3.07,3.7-4.56,5.63a23.43,23.43,0,0,1-5.18,5.15,18.77,18.77,0,0,1-6.64,2.94,18.83,18.83,0,0,0,6.49-3.15,23.16,23.16,0,0,0,4.91-5.26c1.41-2,2.79-4,4.4-5.84a23.79,23.79,0,0,1,5.54-4.89.52.52,0,0,1,.73.17.53.53,0,0,1-.17.72Z"></path>
      <path class="cls-10" d="M60.79,183.75a9.31,9.31,0,0,1-1.32,7.76,9.18,9.18,0,0,0,1.12-7.7Z"></path>
      <path class="cls-10" d="M63.27,181.85a7.29,7.29,0,0,1-3.71.58l-1.86-.11c-.6,0-1.25-.12-1.72.32a1.07,1.07,0,0,1,.78-.51,3.83,3.83,0,0,1,1-.06l1.86.08a7.81,7.81,0,0,0,3.57-.56Z"></path>
      <path class="cls-10" d="M67.89,176.33a16.07,16.07,0,0,1-4.49,11.73,15.8,15.8,0,0,0,3.89-11.69Z"></path>
      <path class="cls-10" d="M71,172.28a11.56,11.56,0,0,0-9.48,3,11.81,11.81,0,0,1,9.55-3.59Z"></path>
      <polygon class="cls-3" points="20 157.85 73.37 180.51 127.54 157.45 127.04 157.3 20 157.85"></polygon>
      <ellipse class="cls-1" cx="75.09" cy="158.53" rx="12.51" ry="4.89"></ellipse>
      <ellipse class="cls-11" cx="75.41" cy="160.18" rx="10.31" ry="4.03"></ellipse>
      <path class="cls-12" d="M80.89,71.39l.26-1.86c2.17-.82,1.51-2.54,1.24-4.07-.35-2-.4-2,1.67-1.95a4.14,4.14,0,0,1,2.74.91c.74.69.94.23,1.37-.26.83-1,1.7-2.62,2.94-2.17,1.61.6,2.46,4.26,1.59,5.63-.65,1-.56,1.41.56,1.83a3.29,3.29,0,0,1,1.82,2,1.94,1.94,0,0,1,.17.6c0,.89,1.67,1.74,1.12,1.94-1.59.56-2.84,2.27-4.81,1.69-.15,0-.3,0-.46-.08.33-.79.46-1.51-.65-1.79-.53-.14-1.39-.34-1.14-.93s1-.1,1.59.07c.14,0,.24.21.38.27.72.32,1.08-.16,1.3-.69s-.19-1.51-.56-1.33c-1.75.89-1.88-.7-2.57-1.45a2.44,2.44,0,0,0-.35-.26,5.12,5.12,0,0,0,1-.25c.65-.32,1-.85.55-1.51s-1.32-.8-1.58-.3c-.72,1.43-2.26,1.7-3.23,2.67A2.24,2.24,0,0,0,85.71,73c.3.47.73.87,1.05,1.34s.59,1,1.25,1c.87.11.71-.79,1.21-1.31.08,1,.26,1.77,1.27,1.82l0,2.61a26.78,26.78,0,0,1-1.66,4c-.36.55-.69.85-1.05,0a9.6,9.6,0,0,0-2.3-2.88,6.47,6.47,0,0,1-.84-2c-.08-1.08-.54-1.31-1.52-1.48-1.36-.25-2.3-1.46-3.56-2.06-.49-.24,1.07-1.11,1.24-2A4.9,4.9,0,0,0,80.89,71.39Z"></path>
      <path class="cls-12" d="M53.19,101.71A2.12,2.12,0,0,0,51.65,103c-1,.18-.9,1.15-1.18,1.81-.23.51-.47,1-1,.48-1.07-1-2.85-.69-3.73-2a.63.63,0,0,0-.85-.16,6.88,6.88,0,0,1-4.69.24c-.15,0-.32,0-.46,0-.68-.22-1.66.54-2-.07s.47-1.51.86-2.21a7.14,7.14,0,0,1,3.92-3.32,1.61,1.61,0,0,0,1.43.16l.23.25c-.37.59-.3,1.31.34,1.38,1.42.14,2.9.77,4.31-.16a2,2,0,0,0,1-2.09,4.33,4.33,0,0,1,.25-2.83,1.07,1.07,0,0,0-.91-1.6c-.8-.13-1.07.4-1.11,1.13,0,.27.29,1-.26.77-.87-.31-1.23.48-1.94.72a9.64,9.64,0,0,0-.07-1.19.93.93,0,0,0-1.09-.85,1.08,1.08,0,0,0-1,1c-.11.76.44.91,1,1.13s1.16.65.8,1.21-1,.12-1.31-.3c-.64-.74-1.22-.59-1.8.07A2.22,2.22,0,0,1,41.07,94c.07-.91-.78-1.93-.35-2.48s1.57,0,2.44-.19a3.82,3.82,0,0,1,3.28.39c.65.44,1,.37,1.43-.38A4.87,4.87,0,0,1,53.52,89c.28.08.56.18.45.49-.37,1,.12,2.19-.46,3.19-.41.71-.23,1.06.57,1.35a7.39,7.39,0,0,1,3.22,3c.36.51.26,1-.43.9-1.33-.12-2.18.87-3.23,1.35S53.36,100.9,53.19,101.71Z"></path>
      <path class="cls-12" d="M49.47,38c.43-1,.16-2,.26-3,.08-.8.15-1.46,1.1-.57.37.33.79.69,1.38.44.52,1.06,1.56,1.14,2.54,1.32.57,1.14.75,2.58,2.76,2.06,1.13-.3,2.34.65,3.62.48.55-.07.51.41.32.75-.57,1.05-.06,1.6,1.25,2-1,.31-1.73.54-1.2,1.56.36.7-.07,1.39-.56,2s-.49.83.33.79a3.73,3.73,0,0,0,1.16,2.59c1,1,.92,1.33-.52,1.76a9.27,9.27,0,0,1-3,.31c-.33,0-.84-.13-.93.31-.28,1.26-1.5,1.93-1.86,3.11-.23.75-.71.76-1.31.59,0-.32-.11-.65-.43-.78a3.82,3.82,0,0,1-2.42-4.62c.09-.51-.14-.86-.67-.78-2.31.34-3.26-1.74-4.84-2.68a.46.46,0,0,1-.12-.78c1.23-1.11,1.88-3,3.91-3-.12,1.25.56,1.48,1.63,1.36.39,0,1.11-.12,1,.52s-.69.52-1.15.5a2.28,2.28,0,0,1-.45-.11c-.57-.12-1.06,0-1.2.63a1.14,1.14,0,0,0,.57,1.44.91.91,0,0,0,1.28-.51c.17-.3.62-.78.66-.5.1.88,1.45,1.27.82,2.35A1,1,0,0,0,54.09,49,1.09,1.09,0,0,0,55.5,48a3,3,0,0,1,.94-2,2.16,2.16,0,0,0,.38-3.16c-1-1.33-3-2.14-4.21-1.65l-.67.31c-.35-.32-.77-.18-1.16-.18Z"></path>
      <path class="cls-13" d="M42.46,96.5c.58-.66,1.16-.81,1.8-.07.36.42,1,.78,1.31.3s-.3-1-.8-1.21-1.11-.37-1-1.13a1.08,1.08,0,0,1,1-1,.93.93,0,0,1,1.09.85A9.64,9.64,0,0,1,46,95.44c.71-.24,1.07-1,1.94-.72.55.19.24-.5.26-.77,0-.73.31-1.26,1.11-1.13a1.07,1.07,0,0,1,.91,1.6,4.33,4.33,0,0,0-.25,2.83,2,2,0,0,1-1,2.09c-1.41.93-2.89.3-4.31.16-.64-.07-.71-.79-.34-1.38l.15-.32-.38.07a1.61,1.61,0,0,1-1.43-.16C42.55,97.3,42.5,96.9,42.46,96.5Z"></path>
      <path class="cls-12" d="M58.89,114c0,.77,0,1.59-.92,1.94-.09,0-.25.13-.24.17.62,2.31-2,3.39-2,5.46a.76.76,0,0,1,0,.16c-2.42-1.31-4.8-3.74-3.09-6.17A5.36,5.36,0,0,1,58,113.69C58.3,113.76,58.6,113.87,58.89,114Z"></path>
      <path class="cls-13" d="M90.49,75.88c-1,0-1.19-.81-1.27-1.82-.5.52-.34,1.42-1.21,1.31-.66-.07-.93-.56-1.25-1S86,73.48,85.71,73a2.24,2.24,0,0,1,.09-2.88c1-1,2.51-1.24,3.23-2.67.26-.5,1.19-.33,1.58.3s.1,1.19-.55,1.51a5.12,5.12,0,0,1-1,.25,2.44,2.44,0,0,1,.35.26c.69.75.82,2.34,2.57,1.45.37-.18.81.72.56,1.33s-.58,1-1.3.69c-.14-.06-.24-.23-.38-.27-.54-.17-1.28-.79-1.59-.07s.61.79,1.14.93c1.11.28,1,1,.65,1.79ZM88,71.51c.57-.21.31-.86.54-1.25s-.06-.52-.36-.47a1.1,1.1,0,0,0-1,1C87.11,71.23,87.55,71.33,88,71.51Z"></path>
      <path class="cls-12" d="M74.3,53.77c1.19-.44,2.25-1.21,3.59-1.34a16,16,0,0,0,2.49-.64A5.65,5.65,0,0,1,80,55.4c-.48,1.57-3.54,1.73-4.86.28A2.51,2.51,0,0,1,74.3,53.77Z"></path>
      <path class="cls-12" d="M83.65,97.44c.46-2.1,3.79-3.75,5.57-2.77a.5.5,0,0,1,.12.89c-1,.82-.59,1.32.21,2a1.52,1.52,0,0,1,0,2.44c-.62.5-.5.86-.15,1.43a3.86,3.86,0,0,1,.54,2.07c0,.58-.07,1-.8,1-1.16,0-1.51.67-1.37,1.74.19,1.53,0,2.5-2,2.41-1.65-.07-1.93.59-1.62,2.46.06.34.4.73,0,1s-.7-.11-1-.28c-1.92-1.13-2.53-3-2.8-5.06-.06-.41,0-.83,0-1.24A5.2,5.2,0,0,0,83,99.74C82.9,99,83.42,98.21,83.65,97.44Z"></path>
      <path class="cls-13" d="M19.4,141.07a39.92,39.92,0,0,0,6.34-1,30.1,30.1,0,0,0,13-6.51c2.43-2,4.71-4.19,7.82-5.12.32-.1.72-.43.92.07s-.23.53-.5.66c-3.25,1.51-5.56,4.25-8.34,6.37a28.59,28.59,0,0,1-8.91,4.68,28.15,28.15,0,0,1-9.26,1.37C20.1,141.57,19.69,141.73,19.4,141.07Z"></path>
      <path class="cls-13" d="M90.32,28.55c-.47-.07-.39-.39-.32-.7.55-2.38,0-4.71-.3-7.06-.71-5.19.53-9.65,4.59-13.25A23.31,23.31,0,0,1,99,4.42c.43-.22.95-.57,1.22-.09s-.44.68-.75.8c-3,1.26-5,3.61-6.73,6.2a8.53,8.53,0,0,0-1.65,5.36c.14,2.27-.2,4.55.29,6.81.3,1.39-.31,2.76-.33,4.15A1.08,1.08,0,0,1,90.32,28.55Z"></path>
      <path class="cls-13" d="M67.58,34.86a11.46,11.46,0,0,1,2.33-5c2.35-3.15,4.43-6.44,5.18-10.39A19.16,19.16,0,0,0,73.43,6.6c-.18-.34-.58-.85-.09-1.08s.56.4.75.75C76.3,10.5,76.54,15,76,19.62c-.49,4.19-2.52,7.55-5,10.76a33.65,33.65,0,0,0-2,3.12C68.67,34,68.48,34.64,67.58,34.86Z"></path>
      <path class="cls-13" d="M117.51,51.64a7.11,7.11,0,0,1-2.16,5.8,14.51,14.51,0,0,1-7,4.27,14.76,14.76,0,0,0-6.63,3.8c-.27.29-.57,1-1.06.55s.16-.82.39-1.18a9.66,9.66,0,0,1,5.55-3.9c2.79-.92,5.55-2,7.72-4,1.4-1.33,2.62-2.81,2.69-4.9C117,51.86,117.12,51.65,117.51,51.64Z"></path>
      <path class="cls-13" d="M6.91,90a23.54,23.54,0,0,1,1.87,1.43c3.22,3,7.23,4.4,11.33,5.64,2.26.68,4.57,1.22,6.53,2.62.3.22.84.47.52,1s-.68,0-1-.12c-2.77-1.54-5.88-2.06-8.89-2.91a22.21,22.21,0,0,1-8.57-5c-.62-.55-1.26-1.06-1.88-1.6a.63.63,0,0,1-.23-.7C6.65,90.19,6.81,90.12,6.91,90Z"></path>
      <path class="cls-13" d="M19.28,79.1c-1.57-.68-1.81-2-2.09-3.1-.53-2-.51-4.19-1.06-6.21a19.81,19.81,0,0,0-3.93-7.94c-.51-.57-1.62-1.27-.95-1.9s1.11.7,1.62,1.24a23.74,23.74,0,0,1,4.67,7.93,16.86,16.86,0,0,1,.72,4.39A21.41,21.41,0,0,0,19.28,79.1Z"></path>
      <path class="cls-13" d="M42.92,33.89a7.27,7.27,0,0,1,.48-5.37,25.52,25.52,0,0,0,1.68-12.95,5.19,5.19,0,0,0-.41-1.16c-.15-.38-.39-.91.06-1.09s.64.36.73.75a39.92,39.92,0,0,1,.87,3.9,21,21,0,0,1-1.65,11.26C44.07,30.63,43.59,32.09,42.92,33.89Z"></path>
      <path class="cls-13" d="M121.32,72.74c0,3-1.5,5.28-3,7.6-2.17,3.31-5.4,5.45-8.49,7.75-.66.49-1.26,1.06-1.92,1.56-.18.13-.46.36-.69.1s.07-.44.19-.65c1.13-2,3.11-3.16,4.86-4.46A23.2,23.2,0,0,0,121,73.21,1.94,1.94,0,0,1,121.32,72.74Z"></path>
      <path class="cls-13" d="M116.47,133.89c-1.54,1.55-3.57,1.42-5.41,1.72-3.89.63-7.58-.35-11.17-1.87A18.79,18.79,0,0,0,94.83,132c-.34,0-.85,0-.81-.51s.63-.51,1-.44a41.1,41.1,0,0,1,6,1.9c3.65,1.35,7.35,2.26,11.31,1.58C113.69,134.27,115.13,134.56,116.47,133.89Z"></path>
      <path class="cls-13" d="M115,40.36c-1,1.14-2.44,1.35-3.64,1.92a16.42,16.42,0,0,1-14.59-.16,5.69,5.69,0,0,0-2.08-.4c-.18,0-.45-.11-.5-.23-.13-.34.22-.44.43-.52,1.1-.41,2.14.09,3.15.35,2.68.7,5.28,1.73,8.13,1.34a44.13,44.13,0,0,0,8-2.18C114.19,40.37,114.49,40.11,115,40.36Z"></path>
      <path class="cls-13" d="M38.17,65.91a4,4,0,0,1-1.87-.81c-2.43-1.6-5.2-2.42-7.88-3.45-3.07-1.18-6.25-2.19-8.49-4.83-.23-.27-.83-.53-.36-1,.31-.29.67.06.93.32,3,3.15,7.16,4.09,11.06,5.45a33.22,33.22,0,0,1,5.52,2.79A1.9,1.9,0,0,1,38.17,65.91Z"></path>
      <path class="cls-13" d="M109.86,106.8a4.86,4.86,0,0,1,4,0A27.13,27.13,0,0,0,126,108.94c.36,0,1-.23,1,.37s-.53.49-.94.54a18.6,18.6,0,0,1-10.8-1.5,20.67,20.67,0,0,0-3.55-1Z"></path>
      <path class="cls-14" d="M58.86,50.45c-.08,1,.08,1.48,1.38,1.48,3.77,0,6.23,3,6.26,7.56,0,4.28-1.67,8-3.85,11.6-1.78,2.91-3.59,5.8-5.38,8.7-.27.43-.47,1-1.13.76s-.29-.78-.17-1.22a15.57,15.57,0,0,0-1.7-12.83C52,62.63,51.69,58.84,54.22,55a3.45,3.45,0,0,1,.54-.54c.6.17,1.08.16,1.31-.59.36-1.18,1.58-1.85,1.86-3.11C58,50.32,58.53,50.5,58.86,50.45Zm-1,25a4.9,4.9,0,0,0,1.5-2.11c1-3.59,1.7-7.23.91-10.93-.62-2.94-.46-6-1.78-8.84-.13-.29.06-.89-.51-.74s-.27.63-.23,1c.29,3.63,1.76,7,1.87,10.74A25.26,25.26,0,0,1,59,71.74C58.7,73,58.28,74.2,57.9,75.42Z"></path>
      <path class="cls-13" d="M50.19,41.79c.19-.18.39-.35.59-.52.39,0,.81-.14,1.16.18,0,.59.27,1,1,.9l.12.13s0-.06,0-.08l-.12,0-.26-1.22c1.18-.49,3.21.32,4.21,1.65A2.16,2.16,0,0,1,56.44,46a3,3,0,0,0-.94,2A1.09,1.09,0,0,1,54.09,49a1,1,0,0,1-.69-1.56c.63-1.08-.72-1.47-.82-2.35,0-.28-.49.2-.66.5a.91.91,0,0,1-1.28.51,1.14,1.14,0,0,1-.57-1.44c.14-.66.63-.75,1.2-.63a2.28,2.28,0,0,0,.45.11c.46,0,1.11,0,1.15-.5s-.66-.57-1-.52C50.75,43.27,50.07,43,50.19,41.79Zm4.53,3.69c.23.14-.65.85.19.75.66-.07.76-.88.94-1.46.1-.33-.09-.53-.37-.48C54.92,44.39,54.31,44.53,54.72,45.48Z"></path>
      <path class="cls-15" d="M52.89,42.35c-.68.08-.92-.31-1-.9l.67-.31c.08.41.17.82.26,1.22Z"></path>
      <path class="cls-12" d="M44,97.87l.38-.07-.15.32Z"></path>
      <path class="cls-14" d="M88,71.51c-.41-.18-.85-.28-.81-.71a1.1,1.1,0,0,1,1-1c.3-.05.52.19.36.47S88.53,71.3,88,71.51Z"></path>
      <path class="cls-13" d="M57.9,75.42c.38-1.22.8-2.44,1.13-3.68a25.26,25.26,0,0,0,.63-7.16c-.11-3.69-1.58-7.11-1.87-10.74,0-.41-.34-.89.23-1s.38.45.51.74c1.32,2.8,1.16,5.9,1.78,8.84.79,3.7.1,7.34-.91,10.93A4.9,4.9,0,0,1,57.9,75.42Z"></path>
      <path class="cls-14" d="M54.72,45.48c-.41-.95.2-1.09.76-1.19.28,0,.47.15.37.48-.18.58-.28,1.39-.94,1.46C54.07,46.33,55,45.62,54.72,45.48Z"></path>
      <path class="cls-15" d="M52.87,42.36l.12,0s0,.06,0,.08l-.12-.13Z"></path>
      <path class="cls-14" d="M74,161.05a5.79,5.79,0,0,1-.2-2.15c0-6.58.12-13.16-.48-19.72-.18-1.9-.59-2.32-2.44-2.33-7.11,0-14-1-20.52-4.11-.68-.33-1-.27-1.09.59-.95,7.72-6.54,11.89-13.32,13.5-6,1.43-11.6-.12-17.13-2.19-2.42-.9-4.8-1.91-7.2-2.87-.5-.21-.93-.49-.78-1.15s.61-.64,1.09-.62c6.66.31,11.45-2.81,15.09-8.14,1.16-1.7,2.4-3.36,3.66-5a10.37,10.37,0,0,1,5.4-3.74c.61-.18,1-.31.4-1-4.49-5.21-7-11.37-8.71-17.95-.24-.94-.49-1-1.19-.41-4.49,3.56-9.46,2.68-13.75-.35-3.21-2.27-5.22-5.56-7.26-8.79C3.79,91.82,2.13,89,.4,86.14c-.32-.51-.68-1-.07-1.49s.93-.07,1.36.25a21.15,21.15,0,0,0,12.56,4.25c2.69.08,5.4.14,7.82,1.6.56.35.79.12.65-.47-.27-1-.59-2.09-.88-3.14-.15-.53-.52-.56-1-.46-4,.93-7.31-.52-10.46-2.72-.36-.25-.74-.49-.6-1s.68-.42,1.06-.34c2.92.62,6-.76,8.86.91.61.35.69-.23.56-.66a3.29,3.29,0,0,0-1.36-2c-.45-.25-.92-.46-1.39-.67-4.18-1.8-6.14-5.14-6.75-9.5-.37-2.57-.2-5.16-.37-7.75a11.67,11.67,0,0,0-1.28-4.75c-.21-.41-.54-.9-.08-1.27s.73.17,1,.4c3.19,2.29,6.46,4.49,9.07,7.48,3.14,3.6,4.63,7.56,2.92,12.3-.09.27-.36.6.05.8s.45-.15.61-.35c1.24-1.64,3.18-2.68,4-4.68.14-.33.35-.76.77-.62s.33.59.31,1c-.17,3.83-1.09,7.36-3.83,10.23-1,1-1,4.14,0,5.15.27.28.45.16.62,0,1.79-2.24,4.63-2.09,7-3.06a.63.63,0,0,1,.72,0,.64.64,0,0,1,0,.86,17.66,17.66,0,0,1-1.66,2.43c-2,2.2-2.27,4.83-1.92,7.57a50.72,50.72,0,0,0,6.35,19.45,33.26,33.26,0,0,0,4.81,6.27A3.52,3.52,0,0,0,42,123a7.8,7.8,0,0,1,5.33,3.12,1,1,0,0,0,1.29.46c7.47-2.78,14.1-.82,20.29,3.64a4.41,4.41,0,0,0,1.86,1A13.46,13.46,0,0,0,68.36,127,20.91,20.91,0,0,0,63.22,122c-.52-.35-.85-.52-1.47-.09-2.11,1.45-4,1.32-6.1-.26a.76.76,0,0,0,0-.16c0-2.07,2.67-3.15,2-5.46,0,0,.15-.13.24-.17,1-.35.87-1.17.92-1.94,3,.54,4.4,2.16,4.36,5a1.35,1.35,0,0,0,.67,1.4,23.28,23.28,0,0,1,5.86,5.47c.2.27.37.75.81.55s.2-.64.13-1q-2.14-10.4-4.33-20.78c-.11-.52-.07-1.31-1-.52-3.71,3.28-10.23,2.65-13.77-1.15a2.12,2.12,0,0,1,1.54-1.29c3,3.14,7.22,3.94,10.23,1.93,1.48-1,1.57-1.45.56-3-2.42-3.73-5.39-7.08-7.65-10.93-.73-1.25-1.51-2.47-2.23-3.73C51.74,81.87,45.43,80.8,42,84.11a9.37,9.37,0,0,1-5.86,2.8c-.43,0-.86.12-1.07-.36a.8.8,0,0,1,.36-1.07c1.64-.94,1.87-2.64,2.35-4.21,1.19-4,4.46-5.83,8.26-4.66a3.19,3.19,0,0,1,2.45,4c-.08.43-.1.72.35.85.92.26,1.86.5,3.11.83-1.48-2.67-2.8-5-4.14-7.42A6.18,6.18,0,0,0,46,72.45a1.6,1.6,0,0,1-.55-2.08c.21-.43.35-1-.08-1.29s-1,0-1.39.32c-1,1-2.06,2-3,3.12a10.13,10.13,0,0,1-4.57,2.78c-.23.08-.5.27-.72,0s-.09-.47.08-.68a7,7,0,0,0,.9-2.29,4.92,4.92,0,0,1,3.12-3.42c.36-.13.88,0,1-.52.06-.25-.16-.37-.35-.43-.46-.15-.87-.53-1.41,0a7.79,7.79,0,0,1-6.1,1.74c-4.13-.35-7.76-1.87-10.26-5.35a70.13,70.13,0,0,1-6.19-9.84c-.17-.34-.62-.73-.19-1.1s.66.12.95.32c2.52,1.73,5.34,1.61,8.22,1.46,3.77-.2,7.44.2,10.65,2.52,2.73,2,4.39,4.48,4.06,8-.08.85,1.51,2,2.29,1.66.34-.14.26-.43.1-.63-2-2.57-.68-5,.36-7.41a2.47,2.47,0,0,0,.31-1.46,112.54,112.54,0,0,1-1.36-15c0-.8-.28-1.31-1.05-1.47-4.11-.88-6-4.11-7.84-7.39-.16-.29-.29-.57,0-.83a.65.65,0,0,1,.86,0c2.1,1.8,5.1,2.09,7,4.23.47.53.8.47.82-.27A4.13,4.13,0,0,0,41,34.08c-3.2-4-2.81-8.34-.9-12.72.84-1.94,1.81-3.83,2.71-5.74a10.25,10.25,0,0,0,1.1-5.1c0-.38,0-.75.47-.84s.53.24.67.52c1.9,4,4.13,7.91,4.9,12.35.54,3.07.4,6.09-1.37,8.84a7.47,7.47,0,0,1-3.42,3,1.89,1.89,0,0,0-1.18.93c-.14.33-.21.78.08,1s.59-.16.82-.39a7.58,7.58,0,0,1,4.72-2.41A7.16,7.16,0,0,0,52.76,32c.31-.21.67-.44,1-.14s.08.68-.12,1c-.46.67-.94,1.32-1.4,2-.59.25-1-.11-1.38-.44-.95-.89-1-.23-1.1.57-.1,1,.17,2.06-.26,3a12.78,12.78,0,0,1-3.84,2c-1.34.4-1.63,1.14-1.59,2.39A87.21,87.21,0,0,0,45.32,56.7c.94,4.62.76,9.5,3.37,13.82,1.07,1.77,1.57,4,2.54,5.93C54.82,83.53,59.55,89.88,64,96.39c.43.62.9,1.75,1.46,1.61.8-.2.28-1.32.4-2A169.07,169.07,0,0,1,70,77.36a32.76,32.76,0,0,1,3.63-8.52A2.8,2.8,0,0,0,73.94,66a148.41,148.41,0,0,1-6.23-20.45c-.4-1.72-1.47-2.35-3.16-1.74a9.18,9.18,0,0,0-3.28,2c-.82,0-.75-.3-.33-.79s.92-1.26.56-2c-.53-1,.18-1.25,1.2-1.56-1.31-.44-1.82-1-1.25-2,.19-.34.23-.82-.32-.75-1.28.17-2.49-.78-3.62-.48-2,.52-2.19-.92-2.76-2.06a6.65,6.65,0,0,1,7.12-.68,3.2,3.2,0,0,1,1.87,4.32c-.34.92.24,1,.75,1.12.8.17,1.55,1.27,2.19.75s-.09-1.55-.05-2.36a5.87,5.87,0,0,0-2.15-4.7c-4.65-4.42-4.07-9.84-2.86-15.36.09-.42.33-.68.73-.67a.67.67,0,0,1,.66.73c.06,2,1.58,3.18,2.6,4.64.29.41.76,1.09,1.16,0,1.57-4.43,3.66-8.67,4.71-13.29a35.65,35.65,0,0,0,1.11-9.53c0-.47-.12-1,.56-1.09a.93.93,0,0,1,1.18.71C76,6.22,78.36,11.48,79.81,17a20.93,20.93,0,0,1,.29,11.19c-1.39,4.91-4.67,7.64-9.58,8.57-2.19.42-2.26.4-1.88,2.53a144.72,144.72,0,0,0,6.5,24.41c.14.38.12,1,.69,1.06s.56-.55.8-.87a59.86,59.86,0,0,0,9.05-18.24c.16-.51.34-.95-.08-1.44-2.15-2.53-7.14-2.16-8.84.68a3.28,3.28,0,0,0-.45,1.14c-.15,1-.19,1.8,1.31,2,2.22.29,2.82,1.31,2.76,3.72a16,16,0,0,1-2.49.64c-1.34.13-2.4.9-3.59,1.34a3.45,3.45,0,0,1-.07-4.52,2.28,2.28,0,0,0,.51-1.94c-.45-3.55,3.13-6.73,7-6.27.31,0,.61.14.92.16.49,0,1.18.53,1.42,0s-.36-1.12-.83-1.51a3.5,3.5,0,0,0-2.51-.63,6.24,6.24,0,0,1-4-1.71c-.28-.21-.46-.45-.35-.78s.46-.4.77-.33a4.06,4.06,0,0,0,2.56-.44c4.27-1.88,6.58-.72,7.58,3.77a43.75,43.75,0,0,0,1.65-8c0-.54-.45-.77-.79-1.07C81.66,25,80,17.19,83.85,9.79,85.84,6,89.36,4,93.43,3a31.45,31.45,0,0,1,10.77-.58c.28,0,.71-.08.73.35,0,.2-.24.46-.43.59C102,5,101,7.48,101,10.37a26.54,26.54,0,0,1-4.23,13.92c-.16.25-.41.61-.33.81.17.41.62.19,1,.16,3.17-.34,5.29,1.23,7,3.7,1.17,1.7,1.71,3.78,3.17,5.3a.6.6,0,0,1,.09.84.89.89,0,0,1-1,.25,11.81,11.81,0,0,1-3.64-1.3c-3.75-2.21-7.48-1.39-11.23-.06-.3.11-.59.22-.67.57-.61,2.71-1.22,5.42-1.86,8.28A70.29,70.29,0,0,0,96,38.47a9.62,9.62,0,0,1,10.14-.84,19.46,19.46,0,0,0,12.07,1.8c.42-.07.85-.1,1,.42a.76.76,0,0,1-.42.92c-4.22,2.5-8,5.71-12.58,7.6a11.41,11.41,0,0,1-8.48.45,7.27,7.27,0,0,1-4.93-5.32c-.26-1-.65-1.16-1.44-.55a9.49,9.49,0,0,0-3.6,4.5C85.35,54.6,82.2,61.38,77.26,67.18c-.57.67-.24.83.24,1.12a11.84,11.84,0,0,0,3.65,1.23l-.26,1.86a7.42,7.42,0,0,1-4.35-1.67c-.59-.41-.85-.32-1.2.26a21,21,0,0,0-1.73,3.8c-1.29,3.68-1.82,7.54-2.69,11.31s-2.12,7.49-2,11.44c0,.29-.21.66.09.87s.58-.12.77-.32a13,13,0,0,1,3.94-2.7c.69-.33,1-.7.54-1.56a6.22,6.22,0,0,1-.11-5.56c1.8-4,4.61-6.83,9.25-7.3.72-.07,1.43-.23,2.14-.34a9.6,9.6,0,0,1,2.3,2.88c.36.84.69.54,1.05,0a26.78,26.78,0,0,0,1.66-4c2.48-.36,4.72-1.45,7.06-2.26a1.25,1.25,0,0,0,.84-1.33c.13-2.48.26-5,.42-7.44a2.24,2.24,0,0,0-.73-1.95,9.24,9.24,0,0,1-2.72-4.62,22.12,22.12,0,0,1-.6-10.26c1.21,3.48,4.31,5.16,5.33,8.27.11.31.35.39.6.19,2.73-2.1,6.1-2.42,9.25-3.36a12.38,12.38,0,0,0,8-7.09c.16-.34.11-.93.71-.85s.45.61.45,1c0,6.28-1.18,12.16-5.69,16.9-1.85,1.95-3.88,3.61-6.71,3.82-1.73-.16-3.52.14-5.13-.82-.72-.43-.88,0-.9.67,0,1.44-.11,2.89-.15,4.33,0,.28-.22.66.17.81s.58-.15.82-.33A13.29,13.29,0,0,0,104.87,71c.4-.6.88-1.2,1.77-.8l.39,1.09a.55.55,0,0,0-.23.62,17.36,17.36,0,0,1-5.51,7.91,4.87,4.87,0,0,0-1.82,3.23,121.77,121.77,0,0,1-2.38,12.81c-.08.33-.28.77.11,1a1.07,1.07,0,0,0,.87-.14c3-1.81,5.31-4.43,7.77-6.87a1.05,1.05,0,0,0,.17-.71c-.27-5.85,2.12-10,7.76-12a16.88,16.88,0,0,0,8.46-6.73c.27-.41.55-.82,1.1-.62s.38.58.31.94c-1,5-1.38,10.08-3.34,14.81a10.29,10.29,0,0,1-6.53,6.4,7.5,7.5,0,0,1-5.59-.29,1.57,1.57,0,0,0-2.14.45,43.39,43.39,0,0,1-6.34,5.7c-.73.5-.54.7.07,1.16a11,11,0,0,1,3.8,5,7.27,7.27,0,0,1-4.47,9.82,36.79,36.79,0,0,0-5.34,2.06c-.27.16-.54.31-.85.06s-.21-.62-.12-1c.44-1.81,1.63-3.22,2.61-4.72,1.89-2.9,1.54-6,1.11-9.16-.09-.62-.42-.52-.69-.14a10.19,10.19,0,0,0-.66,1.22,330.94,330.94,0,0,1-16.44,29c-.5.79-1.63,1.7-1.15,2.51s1.8.39,2.75.4a26.19,26.19,0,0,0,11.52-2.73A1.92,1.92,0,0,0,93,130a6.07,6.07,0,0,1,5-4.54c3.18-.4,4.43-2.59,5.8-4.76A29.51,29.51,0,0,0,108,109.39a46.8,46.8,0,0,0,.72-6.45,6.36,6.36,0,0,0-2.08-5.15,5.44,5.44,0,0,1-.9-1.07c-.2-.32-.64-.67-.32-1.09s.65,0,1,.06c.76.16,1.54.22,2.29.39,3.42.75,4.67,3.46,3,6.57-.24.46-.49.91-.73,1.36-.24.09-.5.27-.32.49s.52.08.74-.13c4.45-2.5,8.48-1.56,12.43,1.3a14,14,0,0,0,8.36,2.42c.49,0,1.18-.18,1.33.46s-.6.78-1,1c-4.1,1.68-7.94,4-12.36,4.89-3.73.74-7.12.22-9.71-2.89-.57-.68-.75-.48-.93.22-1.18,4.65-2.85,9.07-6,12.81-.25.31-.45.69,0,.9,3.28,1.49,5.66,4.35,9,5.81a11.32,11.32,0,0,0,8.61.32c.49-.17,1-.5,1.39.08s-.24.86-.62,1.19c-3.31,3-6.69,5.86-10.82,7.7-5.65,2.51-11.67,1.69-15.59-2.2A9.71,9.71,0,0,1,93,134c-.21-.76-.38-.86-1.13-.53a35,35,0,0,1-13.43,2.82c-1.52,0-2.15.67-2,2.19A155.76,155.76,0,0,1,77,156.11a18.66,18.66,0,0,1-.41,4.94A2,2,0,0,1,74,161.05Zm9.66-63.61c-.23.77-.75,1.59-.64,2.3a5.2,5.2,0,0,1-2.79,5.84,4.47,4.47,0,0,0-.42-.45C78.43,104,77,103,77,100.94c0-.34-.38-.49-.66-.6A19.28,19.28,0,0,0,71.54,99c-.43-.06-1.06,0-1.07.36,0,1.65-1.38,3-1.11,4.69,1.36,8.81,3.61,17.43,5.53,26.11.08.37-.14,1,.4,1s.61-.49.83-.83c4.51-6.94,8.83-14,12.71-21.32,2.75-5.18,6-10.14,7-16.12.52-3.19,1.12-6.37,1.63-9.81-1.87,1.25-3.46,2.36-5.1,3.41A82.32,82.32,0,0,1,78,94.18a14.77,14.77,0,0,0-4.55,2.25c-.36.31-1.1.48-.91,1.08s.83.19,1.26.33q1.32.42,2.67.78c.44.12,1,.45,1.34.06C79.48,96.83,81.66,97.59,83.65,97.44ZM54.58,127a13.89,13.89,0,0,0-4.3.83c-.49.16-1.29,0-1.34.81s.62.93,1.11,1.17a40.1,40.1,0,0,0,8.08,3.09,32.68,32.68,0,0,0,11.34,1.19c.29,0,.67.09.83-.25s-.16-.45-.34-.61C65.76,129.65,61.16,127.06,54.58,127ZM19.4,141.07c.29.66.7.5,1,.5a28.15,28.15,0,0,0,9.26-1.37,28.59,28.59,0,0,0,8.91-4.68c2.78-2.12,5.09-4.86,8.34-6.37.27-.13.65-.3.5-.66s-.6-.17-.92-.07c-3.11.93-5.39,3.15-7.82,5.12a30.1,30.1,0,0,1-12.95,6.51A39.92,39.92,0,0,1,19.4,141.07ZM90.32,28.55a1.08,1.08,0,0,0,.77-.9c0-1.39.63-2.76.33-4.15-.49-2.26-.15-4.54-.29-6.81a8.53,8.53,0,0,1,1.65-5.36c1.74-2.59,3.74-4.94,6.73-6.2.31-.12,1-.37.75-.8s-.79-.13-1.22.09a23.31,23.31,0,0,0-4.75,3.12c-4.06,3.6-5.3,8.06-4.59,13.25.32,2.35.85,4.68.3,7.06C89.93,28.16,89.85,28.48,90.32,28.55ZM67.58,34.86c.9-.22,1.09-.84,1.4-1.36a33.65,33.65,0,0,1,2-3.12c2.5-3.21,4.53-6.57,5-10.76.55-4.64.31-9.12-1.9-13.35-.19-.35-.25-1-.75-.75s-.09.74.09,1.08a19.16,19.16,0,0,1,1.66,12.84c-.75,3.95-2.83,7.24-5.18,10.39A11.46,11.46,0,0,0,67.58,34.86Zm49.93,16.78c-.39,0-.5.22-.51.41-.07,2.09-1.29,3.57-2.69,4.9-2.17,2.07-4.93,3.11-7.72,4a9.66,9.66,0,0,0-5.55,3.9c-.23.36-.85.77-.39,1.18s.79-.26,1.06-.55a14.76,14.76,0,0,1,6.63-3.8,14.51,14.51,0,0,0,7-4.27A7.11,7.11,0,0,0,117.51,51.64ZM6.91,90c-.1.1-.26.17-.3.28a.63.63,0,0,0,.23.7c.62.54,1.26,1,1.88,1.6a22.21,22.21,0,0,0,8.57,5c3,.85,6.12,1.37,8.89,2.91.3.17.73.49,1,.12s-.22-.73-.52-1c-2-1.4-4.27-1.94-6.53-2.62C16,95.85,12,94.45,8.78,91.45A23.54,23.54,0,0,0,6.91,90ZM19.28,79.1a21.41,21.41,0,0,1-1-5.59,16.86,16.86,0,0,0-.72-4.39,23.74,23.74,0,0,0-4.67-7.93c-.51-.54-1.09-1.74-1.62-1.24s.44,1.33.95,1.9a19.81,19.81,0,0,1,3.93,7.94c.55,2,.53,4.19,1.06,6.21C17.47,77.06,17.71,78.42,19.28,79.1ZM42.92,33.89c.67-1.8,1.15-3.26,1.76-4.66A21,21,0,0,0,46.33,18a39.92,39.92,0,0,0-.87-3.9c-.09-.39-.2-1-.73-.75s-.21.71-.06,1.09a5.19,5.19,0,0,1,.41,1.16,25.52,25.52,0,0,1-1.68,13A7.27,7.27,0,0,0,42.92,33.89Zm78.4,38.85a1.94,1.94,0,0,0-.34.47,23.2,23.2,0,0,1-8.74,11.43c-1.75,1.3-3.73,2.44-4.86,4.46-.12.21-.42.39-.19.65s.51,0,.69-.1c.66-.5,1.26-1.07,1.92-1.56,3.09-2.3,6.32-4.44,8.49-7.75C119.82,78,121.31,75.69,121.32,72.74Zm-4.85,61.15c-1.34.67-2.78.38-4.14.61-4,.68-7.66-.23-11.31-1.58a41.1,41.1,0,0,0-6-1.9c-.36-.07-.93-.15-1,.44s.47.47.81.51a18.79,18.79,0,0,1,5.06,1.77c3.59,1.52,7.28,2.5,11.17,1.87C112.9,135.31,114.93,135.44,116.47,133.89ZM115,40.36c-.48-.25-.78,0-1.11.12a44.13,44.13,0,0,1-8,2.18c-2.85.39-5.45-.64-8.13-1.34-1-.26-2-.76-3.15-.35-.21.08-.56.18-.43.52,0,.12.32.21.5.23a5.69,5.69,0,0,1,2.08.4,16.42,16.42,0,0,0,14.59.16C112.53,41.71,114,41.5,115,40.36ZM38.17,65.91a1.9,1.9,0,0,0-1.09-1.5,33.22,33.22,0,0,0-5.52-2.79c-3.9-1.36-8-2.3-11.06-5.45-.26-.26-.62-.61-.93-.32-.47.44.13.7.36,1,2.24,2.64,5.42,3.65,8.49,4.83,2.68,1,5.45,1.85,7.88,3.45A4,4,0,0,0,38.17,65.91Zm71.69,40.89,1.88.56a20.67,20.67,0,0,1,3.55,1,18.6,18.6,0,0,0,10.8,1.5c.41,0,1,0,.94-.54s-.64-.39-1-.37a27.13,27.13,0,0,1-12.19-2.11A4.86,4.86,0,0,0,109.86,106.8ZM21.75,78a4.25,4.25,0,0,0-1.18,1.27c-.33.54.08.87.36,1.21s.54.38.69,0c.23-.68.39-1.38.56-2.07C22.24,78.09,22.1,78,21.75,78ZM86.39,42.56c.64-.55.5-1.4.79-2,.11-.23.2-.79-.15-.69a2.29,2.29,0,0,0-1.44,1.39C85.45,41.61,85.89,42.13,86.39,42.56ZM70.8,126.7l-.19.11s.08.1.1.09a1.76,1.76,0,0,0,.2-.09ZM20.47,83.79s-.08-.06-.1-.05-.16.12,0,.19.08,0,.11,0S20.47,83.83,20.47,83.79ZM84.56,41.54l-.11-.11a.72.72,0,0,0-.09.2s.06.07.09.11Z"></path>
    </g>
  </g>
</svg>
