<?xml version="1.0" encoding="UTF-8"?>
<svg xmlns="http://www.w3.org/2000/svg" xmlns:xlink="http://www.w3.org/1999/xlink" viewBox="0 0 152.93 424.55">
  <defs>
    <style>.cls-1{fill:none;}.cls-2{fill:#8e6848;}.cls-3{clip-path:url(#clip-path);}.cls-4{fill:url(#Безымянный_градиент_2);}.cls-5{fill:#713e21;}.cls-6{fill:#3d271f;}.cls-7{fill:#69391e;}.cls-8{fill:#6b472f;}.cls-9{fill:#5c3624;}.cls-10{fill:#795135;}.cls-11{fill:#9a734f;}.cls-12{fill:#f9dec0;}.cls-13{fill:#85563a;}.cls-14{fill:#efdfc3;}.cls-15{fill:url(#Безымянный_градиент_53);}.cls-16{fill:url(#Безымянный_градиент_31);}.cls-17{fill:url(#Безымянный_градиент_53-2);}.cls-18{fill:url(#Безымянный_градиент_31-2);}.cls-19{fill:url(#Безымянный_градиент_53-3);}.cls-20{fill:url(#Безымянный_градиент_37);}.cls-21{fill:url(#Безымянный_градиент_53-4);}.cls-22{fill:url(#Безымянный_градиент_37-2);}.cls-23{fill:url(#Безымянный_градиент_53-5);}.cls-24{fill:url(#Безымянный_градиент_37-3);}.cls-25{fill:url(#Безымянный_градиент_53-6);}.cls-26{fill:url(#Безымянный_градиент_37-4);}.cls-27{fill:url(#Безымянный_градиент_53-7);}.cls-28{fill:url(#Безымянный_градиент_37-5);}.cls-29{opacity:0.75;}.cls-30{fill:#8e9d54;}.cls-31{fill:url(#Безымянный_градиент_50);}.cls-32{fill:url(#Безымянный_градиент_53-8);}.cls-33{fill:url(#Безымянный_градиент_31-3);}.cls-34{fill:url(#Безымянный_градиент_53-9);}.cls-35{fill:url(#Безымянный_градиент_31-4);}.cls-36{fill:url(#Безымянный_градиент_53-10);}.cls-37{fill:url(#Безымянный_градиент_37-6);}.cls-38{fill:url(#Безымянный_градиент_53-11);}.cls-39{fill:url(#Безымянный_градиент_37-7);}.cls-40{fill:url(#Безымянный_градиент_53-12);}.cls-41{fill:url(#Безымянный_градиент_37-8);}.cls-42{fill:url(#Безымянный_градиент_53-13);}.cls-43{fill:url(#Безымянный_градиент_37-9);}.cls-44{fill:url(#Безымянный_градиент_53-14);}.cls-45{fill:url(#Безымянный_градиент_37-10);}.cls-46{fill:url(#Безымянный_градиент_53-15);}.cls-47{fill:url(#Безымянный_градиент_33);}.cls-48{fill:url(#Безымянный_градиент_52);}.cls-49{fill:url(#Безымянный_градиент_33-2);}.cls-50{fill:url(#Безымянный_градиент_52-2);}.cls-51{fill:url(#Безымянный_градиент_33-3);}.cls-52{fill:url(#Безымянный_градиент_52-3);}.cls-53{fill:url(#Безымянный_градиент_32);}.cls-54{fill:url(#Безымянный_градиент_52-4);}.cls-55{fill:url(#Безымянный_градиент_31-5);}.cls-56{fill:url(#Безымянный_градиент_52-5);}.cls-57{fill:url(#Безымянный_градиент_31-6);}.cls-58{fill:url(#Безымянный_градиент_52-6);}.cls-59{fill:url(#Безымянный_градиент_31-7);}.cls-60{fill:url(#Безымянный_градиент_52-7);}.cls-61{fill:url(#Безымянный_градиент_31-8);}.cls-62{fill:#517731;}.cls-63{fill:#658933;}.cls-64{fill:url(#Безымянный_градиент_49);}.cls-65{fill:url(#Безымянный_градиент_49-2);}.cls-66{fill:#6b482f;}</style>
    <clipPath id="clip-path">
      <polygon class="cls-1" points="10.73 384.73 80.12 417.39 144.32 384.88 77.58 356.61 10.73 384.73"></polygon>
    </clipPath>
    <linearGradient id="Безымянный_градиент_2" x1="-1331.56" y1="-2756.81" x2="-1327.67" y2="-2756.81" gradientTransform="matrix(34.36, 0, 0, -34.36, 45741.53, -94327.1)" gradientUnits="userSpaceOnUse">
      <stop offset="0" stop-color="#9b714e"></stop>
      <stop offset="0.38" stop-color="#9b714e"></stop>
      <stop offset="0.89" stop-color="#764528"></stop>
      <stop offset="1" stop-color="#6e3c20"></stop>
    </linearGradient>
    <linearGradient id="Безымянный_градиент_53" x1="-2074.59" y1="-818.15" x2="-2071.72" y2="-827.3" gradientTransform="matrix(-0.51, -0.86, -0.86, 0.51, -1680.09, -1317.36)" gradientUnits="userSpaceOnUse">
      <stop offset="0" stop-color="#658933"></stop>
      <stop offset="0.33" stop-color="#89bd2d"></stop>
      <stop offset="0.7" stop-color="#f9f2d7"></stop>
    </linearGradient>
    <radialGradient id="Безымянный_градиент_31" cx="-2072.4" cy="-822.81" r="3.63" gradientTransform="matrix(0.46, -0.89, -0.49, -0.25, 637.59, -2005.14)" gradientUnits="userSpaceOnUse">
      <stop offset="0.19" stop-color="#f9f2d7"></stop>
      <stop offset="0.26" stop-color="#f8f0d3" stop-opacity="0.96"></stop>
      <stop offset="0.37" stop-color="#f5e9c6" stop-opacity="0.87"></stop>
      <stop offset="0.52" stop-color="#f0dfb3" stop-opacity="0.71"></stop>
      <stop offset="0.68" stop-color="#e9d097" stop-opacity="0.5"></stop>
      <stop offset="0.86" stop-color="#e1be74" stop-opacity="0.22"></stop>
      <stop offset="1" stop-color="#daaf58" stop-opacity="0"></stop>
    </radialGradient>
    <linearGradient id="Безымянный_градиент_53-2" x1="-1799.09" y1="-549.13" x2="-1795.45" y2="-560.96" gradientTransform="matrix(-0.61, -0.79, -0.79, 0.61, -1443.7, -1043.19)" xlink:href="#Безымянный_градиент_53"></linearGradient>
    <radialGradient id="Безымянный_градиент_31-2" cx="-1797.54" cy="-554.25" r="4.02" gradientTransform="matrix(0.42, -0.91, -0.41, -0.19, 610.19, -1688.91)" xlink:href="#Безымянный_градиент_31"></radialGradient>
    <linearGradient id="Безымянный_градиент_53-3" x1="-1403.68" y1="-296.51" x2="-1402.06" y2="-309.71" gradientTransform="matrix(-0.71, -0.7, -0.7, 0.71, -1122.83, -714.34)" xlink:href="#Безымянный_градиент_53"></linearGradient>
    <radialGradient id="Безымянный_градиент_37" cx="-1402.8" cy="-301.67" r="4.61" gradientTransform="matrix(0.45, -0.9, -0.48, -0.24, 567.94, -1270.82)" gradientUnits="userSpaceOnUse">
      <stop offset="0.19" stop-color="#f9f2d7"></stop>
      <stop offset="0.25" stop-color="#f8f0d3" stop-opacity="0.96"></stop>
      <stop offset="0.34" stop-color="#f5e9c6" stop-opacity="0.87"></stop>
      <stop offset="0.46" stop-color="#f0dfb3" stop-opacity="0.71"></stop>
      <stop offset="0.59" stop-color="#e9d097" stop-opacity="0.5"></stop>
      <stop offset="0.74" stop-color="#e1be74" stop-opacity="0.22"></stop>
      <stop offset="0.86" stop-color="#daaf58" stop-opacity="0"></stop>
    </radialGradient>
    <linearGradient id="Безымянный_градиент_53-4" x1="-712.35" y1="29.45" x2="-711.67" y2="19.38" gradientTransform="matrix(-0.85, -0.52, -0.52, 0.85, -507.88, -327.78)" xlink:href="#Безымянный_градиент_53"></linearGradient>
    <radialGradient id="Безымянный_градиент_37-2" cx="-711.86" cy="24.33" r="4.37" gradientTransform="matrix(0.49, -0.87, -0.5, -0.28, 446.91, -551.22)" xlink:href="#Безымянный_градиент_37"></radialGradient>
    <linearGradient id="Безымянный_градиент_53-5" x1="-297.1" y1="128.71" x2="-298.6" y2="113.99" gradientTransform="matrix(-0.92, -0.4, -0.4, 0.92, -135.87, -160.49)" xlink:href="#Безымянный_градиент_53"></linearGradient>
    <radialGradient id="Безымянный_градиент_37-3" cx="-297.91" cy="121.65" r="4.5" gradientTransform="matrix(0.49, -0.87, -0.44, -0.24, 286.19, -159.61)" xlink:href="#Безымянный_градиент_37"></radialGradient>
    <linearGradient id="Безымянный_градиент_53-6" x1="361.94" y1="178.2" x2="358.17" y2="166.66" gradientTransform="matrix(-0.98, -0.21, -0.21, 0.98, 475.21, -13.89)" xlink:href="#Безымянный_градиент_53"></linearGradient>
    <radialGradient id="Безымянный_градиент_37-4" cx="360.04" cy="172.09" r="4.22" gradientTransform="matrix(0.47, -0.88, -0.58, -0.31, 16.21, 450.21)" xlink:href="#Безымянный_градиент_37"></radialGradient>
    <linearGradient id="Безымянный_градиент_53-7" x1="457.4" y1="216.11" x2="450.12" y2="204.11" gradientTransform="matrix(-0.7, -0.14, -0.19, 0.97, 443.85, -53.12)" xlink:href="#Безымянный_градиент_53"></linearGradient>
    <radialGradient id="Безымянный_градиент_37-5" cx="454.31" cy="211.04" r="4.91" gradientTransform="matrix(0.46, -0.83, -0.39, -0.36, -38.36, 542.6)" xlink:href="#Безымянный_градиент_37"></radialGradient>
    <linearGradient id="Безымянный_градиент_50" x1="83.62" y1="168.18" x2="86.5" y2="168.18" gradientUnits="userSpaceOnUse">
      <stop offset="0.18" stop-color="#44682f"></stop>
      <stop offset="0.63" stop-color="#bee070"></stop>
      <stop offset="0.99" stop-color="#f9f2d7"></stop>
    </linearGradient>
    <linearGradient id="Безымянный_градиент_53-8" x1="-2555.58" y1="-1621.78" x2="-2552.71" y2="-1630.92" gradientTransform="translate(2784.83 -1317.36) rotate(-59.25)" xlink:href="#Безымянный_градиент_53"></linearGradient>
    <radialGradient id="Безымянный_градиент_31-3" cx="-2553.39" cy="-1626.44" r="3.63" gradientTransform="matrix(-0.46, -0.89, 0.49, -0.25, -298.65, -2632.45)" xlink:href="#Безымянный_градиент_31"></radialGradient>
    <linearGradient id="Безымянный_градиент_53-9" x1="-2369.36" y1="-1292.06" x2="-2365.72" y2="-1303.9" gradientTransform="translate(2548.44 -1043.19) rotate(-52.65)" xlink:href="#Безымянный_градиент_53"></linearGradient>
    <radialGradient id="Безымянный_градиент_31-4" cx="-2367.81" cy="-1297.19" r="4.02" gradientTransform="matrix(-0.42, -0.91, 0.41, -0.19, -373.42, -2345.77)" xlink:href="#Безымянный_градиент_31"></radialGradient>
    <linearGradient id="Безымянный_градиент_53-10" x1="-2071.81" y1="-952.84" x2="-2070.18" y2="-966.05" gradientTransform="translate(2227.58 -714.34) rotate(-44.64)" xlink:href="#Безымянный_градиент_53"></linearGradient>
    <radialGradient id="Безымянный_градиент_37-6" cx="-2070.92" cy="-958.01" r="4.61" gradientTransform="matrix(-0.45, -0.9, 0.48, -0.24, -384.41, -2022.07)" xlink:href="#Безымянный_градиент_37"></radialGradient>
    <linearGradient id="Безымянный_градиент_53-11" x1="-1513.51" y1="-455.65" x2="-1512.82" y2="-465.71" gradientTransform="matrix(0.85, -0.52, 0.52, 0.85, 1612.63, -327.78)" xlink:href="#Безымянный_градиент_53"></linearGradient>
    <radialGradient id="Безымянный_градиент_37-7" cx="-1513.02" cy="-460.77" r="4.37" gradientTransform="matrix(-0.49, -0.87, 0.5, -0.28, -425.29, -1384.55)" xlink:href="#Безымянный_градиент_37"></radialGradient>
    <linearGradient id="Безымянный_градиент_53-12" x1="-1155.31" y1="-246.3" x2="-1156.81" y2="-261.02" gradientTransform="matrix(0.92, -0.4, 0.4, 0.92, 1240.61, -160.49)" xlink:href="#Безымянный_градиент_53"></linearGradient>
    <radialGradient id="Безымянный_градиент_37-8" cx="-1156.12" cy="-253.37" r="4.5" gradientTransform="matrix(-0.49, -0.87, 0.44, -0.24, -371.31, -998.42)" xlink:href="#Безымянный_градиент_37"></radialGradient>
    <linearGradient id="Безымянный_градиент_53-13" x1="-554.71" y1="-13.92" x2="-558.48" y2="-25.46" gradientTransform="matrix(0.98, -0.21, 0.21, 0.98, 629.54, -13.89)" xlink:href="#Безымянный_градиент_53"></linearGradient>
    <radialGradient id="Безымянный_градиент_37-9" cx="-556.61" cy="-20.03" r="4.22" gradientTransform="translate(-171.1 -414.31) rotate(-118.26) scale(1 0.66)" xlink:href="#Безымянный_градиент_37"></radialGradient>
    <linearGradient id="Безымянный_градиент_53-14" x1="-838.69" y1="32.54" x2="-845.97" y2="20.54" gradientTransform="matrix(0.7, -0.14, 0.19, 0.97, 660.9, -53.12)" xlink:href="#Безымянный_градиент_53"></linearGradient>
    <radialGradient id="Безымянный_градиент_37-10" cx="-841.79" cy="27.47" r="4.91" gradientTransform="matrix(-0.46, -0.83, 0.39, -0.36, -313.21, -601.55)" xlink:href="#Безымянный_градиент_37"></radialGradient>
    <linearGradient id="Безымянный_градиент_53-15" x1="-2840.47" y1="-2367.94" x2="-2830.04" y2="-2370.7" gradientTransform="matrix(0.29, -0.96, 0.96, 0.29, 3169.48, -1993.33)" xlink:href="#Безымянный_градиент_53"></linearGradient>
    <radialGradient id="Безымянный_градиент_33" cx="-2833.81" cy="-2369.98" r="3.7" gradientTransform="matrix(-0.07, -1, 0.58, -0.04, 1245.18, -2885.53)" gradientUnits="userSpaceOnUse">
      <stop offset="0.19" stop-color="#f9f2d7"></stop>
      <stop offset="0.25" stop-color="#f8f0d3" stop-opacity="0.96"></stop>
      <stop offset="0.34" stop-color="#f5e9c6" stop-opacity="0.87"></stop>
      <stop offset="0.45" stop-color="#f0dfb3" stop-opacity="0.71"></stop>
      <stop offset="0.58" stop-color="#e9d097" stop-opacity="0.5"></stop>
      <stop offset="0.73" stop-color="#e1be74" stop-opacity="0.22"></stop>
      <stop offset="0.84" stop-color="#daaf58" stop-opacity="0"></stop>
    </radialGradient>
    <radialGradient id="Безымянный_градиент_52" cx="-2862.94" cy="-2851.63" r="7.27" gradientTransform="translate(3322.95 -2369.36) rotate(-81.66)" xlink:href="#Безымянный_градиент_53"></radialGradient>
    <radialGradient id="Безымянный_градиент_33-2" cx="-2859.82" cy="-2851.15" r="5.45" gradientTransform="matrix(0.28, -0.96, 0.36, 0.1, 1910.66, -2406.14)" xlink:href="#Безымянный_градиент_33"></radialGradient>
    <radialGradient id="Безымянный_градиент_52-2" cx="-2581.36" cy="-1754.37" r="5.91" gradientTransform="matrix(0.48, -0.88, 0.88, 0.48, 2865.81, -1367.4)" xlink:href="#Безымянный_градиент_53"></radialGradient>
    <radialGradient id="Безымянный_градиент_33-3" cx="-2578.07" cy="-1754.16" r="5.91" gradientTransform="matrix(0.58, -0.81, 0.29, 0.21, 2103.86, -1676.51)" xlink:href="#Безымянный_градиент_33"></radialGradient>
    <radialGradient id="Безымянный_градиент_52-3" cx="-2444.6" cy="-1503.22" fx="-2452.83545023237" r="8.23" gradientTransform="translate(2689.84 -1151.56) rotate(-56.55)" xlink:href="#Безымянный_градиент_53"></radialGradient>
    <radialGradient id="Безымянный_градиент_32" cx="-2443.62" cy="-1503.99" r="8.23" gradientTransform="matrix(0.55, -0.83, 0.3, 0.2, 1889.21, -1680.47)" gradientUnits="userSpaceOnUse">
      <stop offset="0.19" stop-color="#f9f2d7"></stop>
      <stop offset="0.23" stop-color="#f8f0d3" stop-opacity="0.96"></stop>
      <stop offset="0.28" stop-color="#f5e9c6" stop-opacity="0.87"></stop>
      <stop offset="0.36" stop-color="#f0dfb3" stop-opacity="0.71"></stop>
      <stop offset="0.44" stop-color="#e9d097" stop-opacity="0.5"></stop>
      <stop offset="0.54" stop-color="#e1be74" stop-opacity="0.22"></stop>
      <stop offset="0.61" stop-color="#daaf58" stop-opacity="0"></stop>
    </radialGradient>
    <radialGradient id="Безымянный_градиент_52-4" cx="-2196.95" cy="-1368.05" r="9.95" gradientTransform="matrix(0.65, -0.79, 0.84, 0.7, 2671.52, -705.25)" xlink:href="#Безымянный_градиент_53"></radialGradient>
    <radialGradient id="Безымянный_градиент_31-5" cx="-2193.42" cy="-1368.94" r="4.37" gradientTransform="matrix(0.55, -0.86, 0.5, 0.33, 1986.59, -1366.57)" xlink:href="#Безымянный_градиент_31"></radialGradient>
    <radialGradient id="Безымянный_градиент_52-5" cx="-2048.15" cy="-959.92" r="11.5" gradientTransform="translate(2217.25 -681.67) rotate(-44.72)" xlink:href="#Безымянный_градиент_53"></radialGradient>
    <radialGradient id="Безымянный_градиент_31-6" cx="-2044" cy="-961.51" r="4.21" gradientTransform="translate(1589.25 -1389.74) rotate(-57.07) scale(1 0.48)" xlink:href="#Безымянный_градиент_31"></radialGradient>
    <radialGradient id="Безымянный_градиент_52-6" cx="-1615.56" cy="-556.56" r="12.8" gradientTransform="matrix(0.83, -0.56, 0.56, 0.83, 1734.66, -361.59)" xlink:href="#Безымянный_градиент_53"></radialGradient>
    <radialGradient id="Безымянный_градиент_31-7" cx="-1611.26" cy="-558.84" r="2.99" gradientTransform="translate(1294.14 -1039.68) rotate(-54.99) scale(1 0.62)" xlink:href="#Безымянный_градиент_31"></radialGradient>
    <radialGradient id="Безымянный_градиент_52-7" cx="-1620.33" cy="-549.54" r="12.8" gradientTransform="matrix(0.83, -0.56, 0.56, 0.83, 1734.66, -361.59)" xlink:href="#Безымянный_градиент_53"></radialGradient>
    <radialGradient id="Безымянный_градиент_31-8" cx="-1615.7" cy="-552.17" r="2.99" gradientTransform="translate(1293.41 -1037.66) rotate(-54.99) scale(1 0.62)" xlink:href="#Безымянный_градиент_31"></radialGradient>
    <linearGradient id="Безымянный_градиент_49" x1="82.82" y1="205.77" x2="91.38" y2="205.63" gradientUnits="userSpaceOnUse">
      <stop offset="0.18" stop-color="#44682f"></stop>
      <stop offset="0.43" stop-color="#bee070"></stop>
      <stop offset="0.7" stop-color="#f9f2d7"></stop>
    </linearGradient>
    <linearGradient id="Безымянный_градиент_49-2" x1="80.3" y1="261.32" x2="97.5" y2="261.67" xlink:href="#Безымянный_градиент_49"></linearGradient>
  </defs>
  <g id="Слой_2" data-name="Слой 2">
    <g id="Слой_1-2" data-name="Слой 1">
      <path class="cls-2" d="M80.12,325.51s13.37,15.69,23.69,16.34,45.57-10.51,45.57-10.51l3.55-36.7L80.12,269Z"></path>
      <path class="cls-2" d="M0,292l7.26,47.88s25.81,3.87,30.32,2.59,25.16-9,31-9,11.57-7.95,11.57-7.95V269Z"></path>
      <g class="cls-3">
        <rect class="cls-4" x="43.59" y="318.67" width="67.87" height="136.66" transform="translate(-313.08 443.63) rotate(-86.92)"></rect>
      </g>
      <path class="cls-5" d="M10.73,384.72,7.26,339.91s32.9-.64,41.94-5.16,30.92-9.24,30.92-9.24l-2.54,31.1Z"></path>
      <path class="cls-6" d="M57.62,342.7a11.57,11.57,0,0,0-3.94-2.32l0,0s-5.25-1.57-8.12,2-2.37,7.35-1.07,8a14.14,14.14,0,0,0,2.27.48l.12-.06c1.52,0,3.71-1,4.88-1.1a2.72,2.72,0,0,0,.84-.22c.23-.06.49-.13.9-.27,2.06-.63,2.31-.17,3.73-1.41a5.54,5.54,0,0,0,1.51-3.54l-.29-.69h0l-.06-.05a1.35,1.35,0,0,0-.81-.7"></path>
      <path class="cls-6" d="M29.45,347.32a15,15,0,0,0-5.58,1.84v0s-6,3.74-5,9.5,5.07,8.52,6.77,7.78A19.33,19.33,0,0,0,28,364.62l0-.18c1.28-1.46,2.22-4.39,3.07-5.63a2.91,2.91,0,0,0,.49-1c.15-.28.29-.58.52-1.1,1.12-2.52,1.78-2.37,1.8-4.8s-2.14-4.45-2.14-4.45a5,5,0,0,0-.91-.31v0h-.1a1.73,1.73,0,0,0-1.36.19"></path>
      <path class="cls-7" d="M80.12,325.51l-2.54,31.1,66.74,28.28,5.06-53.55s-20.81-2.4-29.84-1.11-24.76,5.16-29.49,2.59a62.58,62.58,0,0,1-9.93-7.31"></path>
      <path class="cls-6" d="M54.7,357.46A4.55,4.55,0,0,0,53,357h0s-2.15,0-2.83,1.64-.07,3,.49,3.11l.9-.08,0,0a18.68,18.68,0,0,0,1.71-1l.28-.18.32-.2c.7-.47.84-.32,1.24-.95a2.12,2.12,0,0,0,.17-1.49l-.18-.23h0Z"></path>
      <path class="cls-6" d="M120.09,344.07a3.13,3.13,0,0,0-.15-1.24h0s-.53-1.4-1.77-1.43-2,.7-1.9,1.08l.28.57,0,0,1,.88.19.14.2.15c.48.34.42.47.93.57a1.5,1.5,0,0,0,1-.25l.1-.18h0v0Z"></path>
      <path class="cls-6" d="M138.73,366.55a15.24,15.24,0,0,0-2.64-5.3l0,0s-4.6-5.42-10.21-3.6-7.77,6.3-6.79,7.89a20.94,20.94,0,0,0,2.12,2.12l.19,0c1.65,1.06,4.71,1.57,6.07,2.24a3.25,3.25,0,0,0,1.07.36c.3.1.62.2,1.16.35,2.69.76,2.64,1.44,5.06,1.1s4.14-2.78,4.14-2.78a5.16,5.16,0,0,0,.18-1h0l0-.1a1.78,1.78,0,0,0-.39-1.33"></path>
      <path class="cls-6" d="M102.46,348.1a11.59,11.59,0,0,0-2.59,3.73l0,0s-1.95,5.09,1.34,8.18,7.1,2.9,7.81,1.66a16.07,16.07,0,0,0,.63-2.21l0-.13c.1-1.5-.67-3.74-.72-4.91a2.73,2.73,0,0,0-.16-.85c0-.23-.1-.49-.19-.91-.48-2.08,0-2.3-1.13-3.81a5.5,5.5,0,0,0-3.39-1.75l-.71.23v0l-.06.06a1.32,1.32,0,0,0-.75.75"></path>
      <path class="cls-8" d="M102.72,386.12a2.19,2.19,0,0,0,2.17-.58c.75-1,.6-2,.25-2.14l-.62-.12c-.4-.07-.44,1-.46,1Z"></path>
      <path class="cls-9" d="M101.41,385.32s1.21,1.09,1.72.76,1.11-.64,1.11-.64l0-.34-1.33-.44-.79.26Z"></path>
      <path class="cls-10" d="M101.33,385.13c0,.14.17.49.55.37a7.25,7.25,0,0,0,.73-.31l.45-1.35c.09-.2.2-.26-.35-.08s-.62.06-1,.41a1.47,1.47,0,0,0-.39,1"></path>
      <path class="cls-11" d="M102.61,385.18a7.11,7.11,0,0,0,.18-1c0-.43,0-.54.39-.59s1.17-.47,1.54-.32.35.12.35.61a1.74,1.74,0,0,1-.53,1.21,1,1,0,0,1-1.05.45,2.58,2.58,0,0,1-.88-.4"></path>
      <path class="cls-8" d="M87.88,377.61s3.32.18,4.51-2.32.35-4.66-.5-4.84a10.24,10.24,0,0,0-1.41,0c-.91.05-.51,2.32-.54,2.36Z"></path>
      <path class="cls-9" d="M84.62,376.47s3.2,1.83,4.14.85,2.13-1.94,2.13-1.94l-.22-.72s-2.63-.62-3.14-.34-1.39.85-1.61,1Z"></path>
      <path class="cls-10" d="M84.36,376.09c.15.29.6,1,1.37.56a13.64,13.64,0,0,0,1.46-1s.25-2.68.36-3.17.31-.68-.81,0-1.33.43-2,1.36a3.35,3.35,0,0,0-.38,2.3"></path>
      <path class="cls-11" d="M87.19,375.6a14.52,14.52,0,0,0-.07-2.2c-.13-1-.22-1.21.58-1.51s2.33-1.56,3.23-1.42.83.09,1.07,1.17a4,4,0,0,1-.58,2.91,2.21,2.21,0,0,1-2.1,1.49,5.73,5.73,0,0,1-2.13-.44"></path>
      <path class="cls-8" d="M74.05,388.4s2.59,2,4.91.6,2.84-3.59,2.25-4.2a8.7,8.7,0,0,0-1.15-.73c-.77-.46-1.69,1.59-1.74,1.61Z"></path>
      <path class="cls-9" d="M72,385.69s1.59,3.23,2.89,3a26.39,26.39,0,0,1,2.79-.41l.22-.71s-1.8-1.94-2.36-2-1.59-.07-1.83-.11Z"></path>
      <path class="cls-10" d="M72,385.24c0,.32-.07,1.16.81,1.21a13.59,13.59,0,0,0,1.75-.05l2-2.37c.35-.34.62-.38-.65-.45s-1.32-.38-2.37,0A3.29,3.29,0,0,0,72,385.24"></path>
      <path class="cls-11" d="M74.59,386.4a14,14,0,0,0,1.15-1.82c.43-.85.49-1.1,1.3-.9s2.74,0,3.39.61.62.53.23,1.54a3.91,3.91,0,0,1-2.07,2,2.14,2.14,0,0,1-2.51.06,5.56,5.56,0,0,1-1.49-1.52"></path>
      <path class="cls-8" d="M68.09,379.46s1.33-2.11.13-3.79-2.93-1.93-3.35-1.43l-.49.93c-.3.61,1.33,1.17,1.35,1.22Z"></path>
      <path class="cls-9" d="M66.15,381.18s2.36-1.43,2.07-2.4-.49-2.1-.49-2.1l-.55-.12s-1.37,1.5-1.37,1.94.06,1.2,0,1.39Z"></path>
      <path class="cls-10" d="M65.81,381.21c.25,0,.89,0,.86-.7a10.21,10.21,0,0,0-.14-1.33l-2-1.39c-.28-.24-.32-.45-.29.53s-.21,1,.16,1.8a2.49,2.49,0,0,0,1.36,1.09"></path>
      <path class="cls-11" d="M66.52,379.18a10.09,10.09,0,0,0-1.46-.75c-.68-.28-.87-.3-.77-.94s-.18-2.09.24-2.62.36-.52,1.16-.28A3,3,0,0,1,67.38,376a1.66,1.66,0,0,1,.2,1.92,4.19,4.19,0,0,1-1.06,1.23"></path>
      <path class="cls-8" d="M56.33,382.26a1.63,1.63,0,0,0,.53-1.56c-.28-.84-1-1.17-1.2-1l-.32.32.4.68Z"></path>
      <path class="cls-9" d="M55.3,382.72s1.16-.29,1.17-.73a9,9,0,0,1,.06-.93l-.21-.12-.81.62-.17.59Z"></path>
      <path class="cls-10" d="M55.16,382.69l.44-.18.12-.57-.63-.82c-.09-.14-.08-.23-.19.18s-.22.4-.16.76a1.08,1.08,0,0,0,.42.63"></path>
      <path class="cls-11" d="M55.71,381.94l-.51-.5L55,381l.44-1.05.51,0a1.3,1.3,0,0,1,.52.81.71.71,0,0,1-.16.82Z"></path>
      <path class="cls-8" d="M52.72,388.75s2.27-3.67.18-6.57-5.07-3.31-5.81-2.46a12.66,12.66,0,0,0-.83,1.63c-.51,1.06,2.31,2,2.34,2.09Z"></path>
      <path class="cls-9" d="M49.38,391.74s4.08-2.5,3.57-4.18-.89-3.63-.89-3.63l-1-.2s-2.35,2.61-2.35,3.36.11,2.1.08,2.43Z"></path>
      <path class="cls-10" d="M48.79,391.79c.43,0,1.53-.05,1.49-1.21a16.37,16.37,0,0,0-.27-2.31s-2.89-2-3.38-2.38-.57-.78-.51.91-.34,1.79.3,3.12a4.36,4.36,0,0,0,2.37,1.87"></path>
      <path class="cls-11" d="M50,388.27A20.66,20.66,0,0,0,47.46,387c-1.18-.46-1.51-.51-1.35-1.61s-.31-3.62.4-4.55.62-.89,2-.48,2,1.11,2.94,2.47a2.85,2.85,0,0,1,.38,3.31A7.18,7.18,0,0,1,50,388.27"></path>
      <path class="cls-12" d="M81.31,316.33a10.73,10.73,0,0,0-1.33,6c0,2.21.39,4.51.34,6.88a30.54,30.54,0,0,1-1.15,6.88c-.58,2.19-.86,4.47-1.64,6.69a42.12,42.12,0,0,1-3.2,6.11,30.43,30.43,0,0,0-2.54,6.3,28.74,28.74,0,0,0-.47,13.55,29.94,29.94,0,0,1,.21-13.61,31.07,31.07,0,0,1,2.39-6.45,38.86,38.86,0,0,0,2.91-6.13c.66-2.13.86-4.43,1.35-6.68a27.31,27.31,0,0,0,.81-6.65c-.09-2.21-.59-4.42-.9-6.76a15.08,15.08,0,0,1,.66-7.38l0,0a1.43,1.43,0,1,1,2.66,1A1.15,1.15,0,0,1,81.31,316.33Z"></path>
      <path class="cls-12" d="M80.74,322.29a28.37,28.37,0,0,1,7.82,17.29,16,16,0,0,0,.83,4.47,8.41,8.41,0,0,0,2.78,3.5c1.2,1,2.54,1.79,3.85,2.65l3.93,2.57-4.08-2.34c-1.35-.78-2.73-1.52-4-2.44a9.15,9.15,0,0,1-3.19-3.61,17,17,0,0,1-1.17-4.67,26.83,26.83,0,0,0-8.27-15.85,1.09,1.09,0,0,1-.07-1.55,1.11,1.11,0,0,1,1.56-.07Z"></path>
      <path class="cls-12" d="M79.81,315a21.74,21.74,0,0,1,.31,3.24c0,1,0,2.1,0,3.15a53.35,53.35,0,0,1-.44,6.3,17.57,17.57,0,0,1-.71,3.17,5.25,5.25,0,0,1-.37.81c-.16.29-.29.45-.44.69l-.87,1.3c-1.18,1.72-2.4,3.42-3.74,5a41.38,41.38,0,0,1-4.33,4.55,37.89,37.89,0,0,1-5,3.75,56.36,56.36,0,0,0-5.1,3.53,10.14,10.14,0,0,0-3.58,4.92A10.22,10.22,0,0,1,59,350.32a54.48,54.48,0,0,1,5-3.75,37.5,37.5,0,0,0,4.79-3.89,39.51,39.51,0,0,0,4.05-4.62c1.25-1.63,2.39-3.35,3.48-5.1l.81-1.32c.12-.21.29-.46.37-.64a4.16,4.16,0,0,0,.26-.6,15.78,15.78,0,0,0,.57-2.91,51.83,51.83,0,0,0,.29-6.12c0-1,0-2-.1-3.06a19.24,19.24,0,0,0-.35-2.94v0A.86.86,0,1,1,79.8,315Z"></path>
      <path class="cls-12" d="M79.65,315.25A70.23,70.23,0,0,0,83.71,327c1.64,3.84,3.46,7.61,5.36,11.33q1.44,2.79,3,5.55a31.25,31.25,0,0,1,1.41,2.84,13.48,13.48,0,0,1,.87,3.08c.66,4.21-.39,8.47.94,12.52a18.9,18.9,0,0,1-1-6.2,37.85,37.85,0,0,0-.43-6.23,16.93,16.93,0,0,0-2.43-5.65c-1.06-1.81-2.07-3.66-3.07-5.5-2-3.7-3.88-7.45-5.61-11.29a71.43,71.43,0,0,1-4.36-11.87.67.67,0,0,1,.49-.82.68.68,0,0,1,.82.49Z"></path>
      <path class="cls-12" d="M79.27,324.39a28.36,28.36,0,0,0-1.19,5.08,10.19,10.19,0,0,0,.42,5,9.49,9.49,0,0,0,1.18,2.22,12.53,12.53,0,0,0,.77,1,11.3,11.3,0,0,1,.83,1.13,6.49,6.49,0,0,1,1.06,2.72,11.18,11.18,0,0,1-.08,2.84c-.52,3.74-2.49,6.85-3.64,10.1a15.65,15.65,0,0,0-1,5.05,8.32,8.32,0,0,0,1.51,4.91,8.09,8.09,0,0,1-2.2-4.87,14.42,14.42,0,0,1,.58-5.43c.51-1.75,1.18-3.41,1.8-5.06a28.78,28.78,0,0,0,1.54-4.92,10.54,10.54,0,0,0,.19-2.48,5,5,0,0,0-.8-2.23,10.54,10.54,0,0,0-.72-1c-.29-.36-.57-.71-.84-1.1a10.5,10.5,0,0,1-1.9-8A34.1,34.1,0,0,1,77.93,324a.71.71,0,0,1,1.36.39v0Z"></path>
      <path class="cls-12" d="M79.76,314.84a10.69,10.69,0,0,1,.84,6.39,12.73,12.73,0,0,1-3.2,5.52,36.36,36.36,0,0,0-3.74,4.57,11,11,0,0,0-1.21,2.55A2.39,2.39,0,0,0,73,336a5.81,5.81,0,0,0,.95,1,8.53,8.53,0,0,1,1.26,1,1.82,1.82,0,0,1,.43,1,2.3,2.3,0,0,1-.15,1,3.58,3.58,0,0,1-1,1.42c-1.71,1.39-3.77,1.81-5.1,3.17S68,348.14,68.5,350s1.53,3.72,1.92,5.7c-.5-2-1.58-3.67-2.23-5.61a7.66,7.66,0,0,1-.44-3.05,4.87,4.87,0,0,1,1.16-2.92c1.46-1.63,3.59-2.19,4.93-3.46.64-.57,1-1.57.54-1.89a8.93,8.93,0,0,0-1.13-.81A6.85,6.85,0,0,1,72,336.85a4.77,4.77,0,0,1-.89-1.5,3.12,3.12,0,0,1-.09-1.92,12.58,12.58,0,0,1,1.33-2.91,38.69,38.69,0,0,1,3.83-4.81A11.24,11.24,0,0,0,79,320.89a9,9,0,0,0-.81-5.37h0a.86.86,0,1,1,1.58-.68Z"></path>
      <path class="cls-12" d="M80.21,315.06a49.92,49.92,0,0,1-3.54,10.72A63.54,63.54,0,0,1,71,335.45a107.43,107.43,0,0,0-6.17,9.23,23,23,0,0,0-2.09,5.11c-.43,1.79-.47,3.66-.72,5.5.18-1.84.14-3.71.5-5.55a22.87,22.87,0,0,1,1.92-5.26A107.94,107.94,0,0,1,70.25,335a61.52,61.52,0,0,0,5.23-9.71,49.06,49.06,0,0,0,3-10.52.86.86,0,0,1,1-.71.87.87,0,0,1,.71,1Z"></path>
      <path class="cls-12" d="M80.72,315.45a47.89,47.89,0,0,0,.56,7.14,11.75,11.75,0,0,0,1,3.2,11.18,11.18,0,0,0,.88,1.47,7.34,7.34,0,0,1,.95,1.9,7.21,7.21,0,0,1,.21,1.07l0,.53,0,.45a14.53,14.53,0,0,0,.18,1.7,5,5,0,0,0,1.33,2.72c.73.82,1.69,1.57,2.59,2.52a16.22,16.22,0,0,1,2.35,3.13,22,22,0,0,1,2.49,7.23,56.92,56.92,0,0,1,.7,7.41c.21,4.89.31,9.78.13,14.7-.84-4.85-1.4-9.71-1.86-14.58-.23-2.43-.43-4.84-.88-7.17a19.73,19.73,0,0,0-2.37-6.53A14.05,14.05,0,0,0,87,339.65c-.79-.81-1.77-1.57-2.67-2.58a7.69,7.69,0,0,1-1.2-1.76,7.88,7.88,0,0,1-.62-2c-.24-1.34-.14-2.66-.39-3.52a5.23,5.23,0,0,0-.68-1.36,13.46,13.46,0,0,1-1-1.69,14.27,14.27,0,0,1-1.1-3.78,42,42,0,0,1-.34-7.49.87.87,0,0,1,1.73,0Z"></path>
      <path class="cls-12" d="M80.29,319.19c0,4.18-.07,8.36-.12,12.51A42.64,42.64,0,0,0,81.39,344c1.06,4,2.46,7.95,3.35,12s1.23,8.39-.07,12.39c1.15-4,.68-8.31-.35-12.3s-2.55-7.89-3.76-11.9a44.29,44.29,0,0,1-1.69-12.47c-.09-4.18-.12-8.33-.31-12.47a.87.87,0,0,1,1.73-.08Z"></path>
      <path class="cls-12" d="M80.8,315.94a5,5,0,0,1-1.12,2.94,22.23,22.23,0,0,1-1.92,2,5.62,5.62,0,0,0-1.38,1.93,3,3,0,0,0-.21,1.11l0,1.33a23.81,23.81,0,0,0,.42,5.25,31.22,31.22,0,0,1,.59,5.41,30.25,30.25,0,0,1-1.95,10.64,52.89,52.89,0,0,1-4.81,9.64,52.25,52.25,0,0,0,4.41-9.77,27.31,27.31,0,0,0,.72-15.73,24.81,24.81,0,0,1-.64-5.44v-1.36a4.55,4.55,0,0,1,.23-1.53,7,7,0,0,1,1.59-2.5,20.56,20.56,0,0,0,1.71-1.95,3.46,3.46,0,0,0,.7-2,.87.87,0,0,1,.85-.87.88.88,0,0,1,.88.86v.05Z"></path>
      <path class="cls-12" d="M83.81,322.17a87.33,87.33,0,0,0,7.93,21c.85,1.69,1.78,3.31,2.65,5A14.24,14.24,0,0,1,96,353.7c.33,3.79-.41,7.62.78,11.27a17.93,17.93,0,0,1-1-5.58c-.08-1.9,0-3.79-.27-5.65a13.56,13.56,0,0,0-1.69-5.25c-.92-1.63-1.91-3.26-2.8-4.94a88.08,88.08,0,0,1-8.52-21.07h0a.67.67,0,1,1,1.31-.32Z"></path>
      <path class="cls-12" d="M80.31,316.46a14.47,14.47,0,0,1-1.62,6.93c-1,2.15-2.13,4.19-3.29,6.22s-2.4,4-3.39,6.06a25.86,25.86,0,0,0-1.86,6.62c-.91,4.67-3.32,8.79-5.45,12.91a46.3,46.3,0,0,0-2.85,6.35,17.6,17.6,0,0,0-1,6.86,17.58,17.58,0,0,1,.62-7A39.52,39.52,0,0,1,64,354.87c2-4.23,4.17-8.36,4.84-12.84.19-1.13.36-2.29.6-3.47a16.48,16.48,0,0,1,.45-1.81c.2-.6.43-1.17.68-1.73a67.42,67.42,0,0,1,3.33-6.26c1.18-2,2.27-4,3.29-6a25.31,25.31,0,0,0,1.27-3.08,10.7,10.7,0,0,0,.6-3.1v-.06a.61.61,0,0,1,1.21,0Z"></path>
      <path class="cls-12" d="M82.31,321.36a11.1,11.1,0,0,0,3.21,4.72A14.47,14.47,0,0,0,90.65,329c1,.32,2,.55,3,.93a10.5,10.5,0,0,1,2.72,1.61,21.17,21.17,0,0,1,4,4.76,20.91,20.91,0,0,0-4.16-4.49,9.72,9.72,0,0,0-2.69-1.4c-1-.32-2-.5-3-.76a15.44,15.44,0,0,1-5.59-2.81,12.29,12.29,0,0,1-3.82-5h0a.67.67,0,1,1,1.24-.49Z"></path>
      <path class="cls-12" d="M73.81,330.75c1.32,1.42,2.49,2.93,3.72,4.33s2.6,2.77,3.74,4.34a10.17,10.17,0,0,1,2.2,5.34,5.87,5.87,0,0,1-2.22,5.08,5.64,5.64,0,0,0,1.79-5,9.54,9.54,0,0,0-2.44-4.86,55.68,55.68,0,0,0-4-4c-1.37-1.34-2.64-2.74-4-4a.87.87,0,0,1,0-1.22.85.85,0,0,1,1.22-.05l0,0Z"></path>
      <path class="cls-12" d="M81.59,315.86a3,3,0,0,0,.15,1.65,9.72,9.72,0,0,0,1,2.16,7.42,7.42,0,0,0,1.41,1.77,2.4,2.4,0,0,0,.32.24l.14.07.39.16a7.18,7.18,0,0,1,1.46.86,7.39,7.39,0,0,1,2.11,2.57,11.85,11.85,0,0,1,1,2.92,49.65,49.65,0,0,1,.63,5.61,24.72,24.72,0,0,0,.33,2.64,27.76,27.76,0,0,1,.37,2.83c.14,1.88.12,3.73.17,5.56a32.59,32.59,0,0,0,.5,5.41,13.81,13.81,0,0,0,2,5,13.26,13.26,0,0,1-2.71-4.85,28.1,28.1,0,0,1-1-5.5c-.21-1.84-.36-3.67-.63-5.45a25.1,25.1,0,0,0-.52-2.61,25.62,25.62,0,0,1-.55-2.8,47.48,47.48,0,0,0-1-5.29A6.34,6.34,0,0,0,84.83,325a3.76,3.76,0,0,0-.94-.47l-.25-.09a3.79,3.79,0,0,1-.49-.21,4.94,4.94,0,0,1-.83-.52,9.87,9.87,0,0,1-2.14-2.43,13.29,13.29,0,0,1-1.39-2.8,8.08,8.08,0,0,1-.39-1.66,4.41,4.41,0,0,1,.2-2.1l.12-.36a1.64,1.64,0,1,1,3.09,1.08A1.59,1.59,0,0,1,81.59,315.86Z"></path>
      <path class="cls-12" d="M82.88,321.55a21.47,21.47,0,0,0-1.26,4.19,8.5,8.5,0,0,0,.25,4,12.61,12.61,0,0,0,.84,1.85,10.78,10.78,0,0,1,1.1,2.35,4.61,4.61,0,0,1,.16,1.64,4,4,0,0,1-.54,1.57,16.47,16.47,0,0,1-1.53,2,35.84,35.84,0,0,1-7.1,6.33,42.46,42.46,0,0,1-4,2.41A12.57,12.57,0,0,0,67,350.54a12.79,12.79,0,0,1,3.43-3.17,42.36,42.36,0,0,0,3.67-2.81,34.37,34.37,0,0,0,6.07-6.75A14.46,14.46,0,0,0,81.3,336a1.46,1.46,0,0,0,0-1.29,17.68,17.68,0,0,0-1-1.8,11.21,11.21,0,0,1-1-2.4,10.36,10.36,0,0,1-.14-5.24,19.32,19.32,0,0,1,1.75-4.6,1.1,1.1,0,0,1,1.46-.5,1.08,1.08,0,0,1,.53,1.37Z"></path>
      <path class="cls-12" d="M80.76,314.75a37.93,37.93,0,0,1,.52,9.23,17.67,17.67,0,0,1-1,4.58,13.05,13.05,0,0,1-2.36,4.05,57.57,57.57,0,0,1-6.78,6.13A25.3,25.3,0,0,0,68,341.93a9.83,9.83,0,0,0-2,4,9.76,9.76,0,0,1,1.86-4.12,24.67,24.67,0,0,1,3.08-3.38,59,59,0,0,0,6.39-6.35A13.76,13.76,0,0,0,80,323.89a36.73,36.73,0,0,0-.93-8.83.87.87,0,1,1,1.7-.36Z"></path>
      <polygon class="cls-13" points="0 292.03 80.12 325.51 152.93 294.63 80.12 268.95 0 292.03"></polygon>
      <path class="cls-14" d="M81.1,45.48A7.87,7.87,0,0,1,80,43.58a16.53,16.53,0,0,1-.75-2c-.19-.67-.39-1.34-.52-2a20.6,20.6,0,0,1-.35-2.06A46,46,0,0,1,78,29.21c.06-1.38.19-2.76.31-4.13s.31-2.74.54-4.1.44-2.72.71-4.06l.86-4-.74,4.06c-.23,1.35-.39,2.72-.59,4.08s-.27,2.73-.41,4.09-.17,2.74-.19,4.11a45.5,45.5,0,0,0,.55,8.17,19,19,0,0,0,.41,2c.14.66.35,1.3.55,1.95a15,15,0,0,0,.77,1.85,7.23,7.23,0,0,0,1,1.61Z"></path>
      <path class="cls-14" d="M84.45,47.23a7.49,7.49,0,0,0,1-1.61,16.09,16.09,0,0,0,.76-1.86,18.68,18.68,0,0,0,.56-1.94,19.12,19.12,0,0,0,.4-2,45.32,45.32,0,0,0,.55-8.16c0-1.37-.1-2.74-.18-4.11s-.24-2.73-.42-4.09-.36-2.73-.59-4.08l-.73-4.06.85,4c.28,1.35.48,2.71.72,4.07s.36,2.73.54,4.1.25,2.75.31,4.13a46,46,0,0,1-.31,8.29A20.64,20.64,0,0,1,87.56,42a20.78,20.78,0,0,1-.51,2,18.42,18.42,0,0,1-.75,2,8.8,8.8,0,0,1-1.13,1.9Z"></path>
      <path class="cls-14" d="M83.14,42.17a7.71,7.71,0,0,0,1-1.62,16.69,16.69,0,0,0,.76-1.85c.2-.64.41-1.28.55-2a19,19,0,0,0,.41-2,45.32,45.32,0,0,0,.55-8.16c0-1.37-.11-2.74-.18-4.11s-.24-2.74-.42-4.1-.36-2.72-.59-4.08l-.73-4.06.85,4c.27,1.35.47,2.71.71,4.07s.36,2.73.55,4.1.25,2.74.31,4.12a47.88,47.88,0,0,1-.31,8.29c-.1.69-.2,1.38-.36,2.06s-.33,1.36-.52,2A15.78,15.78,0,0,1,85,41a7.68,7.68,0,0,1-1.13,1.9Z"></path>
      <path class="cls-14" d="M89.12,79.94a7.88,7.88,0,0,0,.9-1.58,18.39,18.39,0,0,0,.72-1.78c.44-1.21.78-2.47,1.1-3.73a76,76,0,0,0,1.42-7.69c.34-2.59.61-5.19.79-7.8s.31-5.23.41-7.85c0,2.62,0,5.24-.16,7.86s-.29,5.24-.54,7.85-.65,5.22-1.19,7.8a39.43,39.43,0,0,1-1,3.84,19.34,19.34,0,0,1-.69,1.88,8.63,8.63,0,0,1-1,1.85Z"></path>
      <path class="cls-14" d="M89.37,87.94a7.88,7.88,0,0,0,.9-1.58A17.41,17.41,0,0,0,91,84.58c.44-1.21.78-2.47,1.1-3.73a76,76,0,0,0,1.42-7.69c.34-2.59.61-5.19.79-7.8s.31-5.23.41-7.85c0,2.62,0,5.24-.16,7.86s-.29,5.24-.54,7.85-.65,5.22-1.19,7.8a39.43,39.43,0,0,1-1,3.84,18.43,18.43,0,0,1-.69,1.88,8.63,8.63,0,0,1-1,1.85Z"></path>
      <path class="cls-14" d="M88.72,71.86a18.21,18.21,0,0,0,1.57-3.59c.41-1.28.78-2.57,1.07-3.89a71.28,71.28,0,0,0,1.29-8c.16-1.34.24-2.69.37-4l.2-4.06.09-4.07,0-4.07.14,4.07,0,4.07-.08,4.08c-.09,1.35-.12,2.72-.25,4.07a69.49,69.49,0,0,1-1.06,8.11,27.4,27.4,0,0,1-2.55,7.88Z"></path>
      <path class="cls-14" d="M89.14,57a7.25,7.25,0,0,0,1-1.61,16.69,16.69,0,0,0,.76-1.85c.2-.64.42-1.28.56-1.95s.29-1.32.4-2a45.39,45.39,0,0,0,.55-8.16c0-1.37-.11-2.74-.18-4.11s-.24-2.74-.42-4.1-.36-2.73-.59-4.08l-.73-4.06.85,4c.28,1.35.48,2.71.72,4.07s.35,2.73.54,4.09.25,2.75.31,4.13a46.91,46.91,0,0,1-.31,8.29,20.64,20.64,0,0,1-.36,2.06,21,21,0,0,1-.52,2,16.33,16.33,0,0,1-.74,2,8.26,8.26,0,0,1-1.14,1.9Z"></path>
      <path class="cls-14" d="M88.43,64.88a5.93,5.93,0,0,0,1-1.48,12.86,12.86,0,0,0,.79-1.77,28.22,28.22,0,0,0,1.12-3.77A59.3,59.3,0,0,0,92.48,50c.17-2.65.26-5.31.24-8s-.13-5.33-.26-8c.21,2.66.42,5.32.51,8s.09,5.34,0,8a61.72,61.72,0,0,1-.87,8,29.75,29.75,0,0,1-1,3.92,14.93,14.93,0,0,1-.79,1.9,9.27,9.27,0,0,1-.51.92,4.53,4.53,0,0,1-.71.89Z"></path>
      <path class="cls-14" d="M87.39,48.54a7.63,7.63,0,0,0,1-1.61,16.69,16.69,0,0,0,.76-1.85c.2-.65.41-1.29.56-1.95s.29-1.32.4-2A45.5,45.5,0,0,0,90.67,33c0-1.37-.11-2.74-.18-4.11s-.24-2.73-.42-4.09-.36-2.73-.59-4.08l-.73-4.06.85,4c.27,1.35.48,2.71.72,4.06s.35,2.74.54,4.1.25,2.75.31,4.13a46.94,46.94,0,0,1-.31,8.29,20.64,20.64,0,0,1-.36,2.06,21,21,0,0,1-.52,2,17,17,0,0,1-.74,2,8.26,8.26,0,0,1-1.14,1.9Z"></path>
      <path class="cls-14" d="M87.49,54.83A14.2,14.2,0,0,0,89,51.32,33.58,33.58,0,0,0,90,47.45a64.15,64.15,0,0,0,.91-8c.07-1.34.1-2.68.13-4s0-2.69,0-4-.07-2.68-.15-4l-.26-4,.38,4c.12,1.34.19,2.68.28,4s.1,2.69.16,4,0,2.69,0,4a64.43,64.43,0,0,1-.68,8.08,34.52,34.52,0,0,1-.84,4,14.46,14.46,0,0,1-1.61,3.88Z"></path>
      <path class="cls-14" d="M86.52,42.79a7.61,7.61,0,0,0,1-1.61,15,15,0,0,0,.76-1.85,19.6,19.6,0,0,0,.56-1.95,19.51,19.51,0,0,0,.41-2,46.43,46.43,0,0,0,.55-8.17c0-1.37-.11-2.74-.19-4.11s-.23-2.73-.41-4.09-.36-2.73-.59-4.08l-.74-4.06.86,4c.27,1.34.47,2.71.71,4.06s.36,2.73.54,4.1.25,2.75.31,4.13A46,46,0,0,1,90,35.5a20.64,20.64,0,0,1-.36,2.06,20.08,20.08,0,0,1-.51,2,18.42,18.42,0,0,1-.75,2,8.2,8.2,0,0,1-1.13,1.9Z"></path>
      <path class="cls-14" d="M80.47,52.48a15,15,0,0,1-2.19-3.95A29.05,29.05,0,0,1,77,44.28a40.62,40.62,0,0,1-.86-8.72c-.05-1.46.09-2.92.14-4.38s.28-2.9.44-4.34.43-2.88.69-4.31l.88-4.28-.76,4.3c-.21,1.43-.37,2.88-.56,4.32s-.24,2.89-.32,4.33-.11,2.9,0,4.35a40.46,40.46,0,0,0,1.08,8.57,26.28,26.28,0,0,0,1.33,4.08,13.4,13.4,0,0,0,2.1,3.59Z"></path>
      <path class="cls-14" d="M83.47,44.23a14.87,14.87,0,0,1-2.19-4A28.57,28.57,0,0,1,80,36a40.71,40.71,0,0,1-.86-8.73c-.05-1.46.09-2.91.14-4.37s.28-2.9.44-4.35.44-2.87.69-4.31L81.33,10l-.76,4.29c-.21,1.44-.37,2.89-.56,4.32s-.24,2.9-.32,4.34-.11,2.9,0,4.35a40.46,40.46,0,0,0,1.08,8.57A26.63,26.63,0,0,0,82.09,40a13.83,13.83,0,0,0,2.1,3.59Z"></path>
      <path class="cls-14" d="M81.09,59.84a17.3,17.3,0,0,1-2.33-4.1c-.34-.7-.56-1.45-.84-2.17s-.44-1.48-.65-2.22A42.17,42.17,0,0,1,76,42.22,62.49,62.49,0,0,1,76.39,33c.2-1.52.43-3,.66-4.54L78,24l-.78,4.51c-.19,1.51-.38,3-.54,4.54a64.75,64.75,0,0,0-.12,9.13,42.23,42.23,0,0,0,1.47,9c.23.72.46,1.44.7,2.16s.53,1.41.87,2.08a16.86,16.86,0,0,0,2.27,3.79Z"></path>
      <path class="cls-14" d="M80.72,66.36a20.57,20.57,0,0,1-2.64-4.12,32.69,32.69,0,0,1-1.84-4.46,42.52,42.52,0,0,1-1.85-9.4L74.23,46V43.6c0-1.6.15-3.18.22-4.77s.4-3.16.6-4.74L76,29.41l-.79,4.7c-.15,1.58-.37,3.15-.47,4.74s-.19,3.16-.1,4.75L74.66,46l.22,2.36A41.25,41.25,0,0,0,77,57.54a30,30,0,0,0,1.9,4.3,19.5,19.5,0,0,0,2.59,3.83Z"></path>
      <path class="cls-14" d="M81.6,75.11A20.34,20.34,0,0,1,79,71a32,32,0,0,1-1.84-4.46,41.6,41.6,0,0,1-1.85-9.41l-.17-2.38v-2.4c0-1.59.15-3.18.23-4.77s.4-3.16.59-4.74l.92-4.68-.8,4.7c-.15,1.58-.37,3.16-.46,4.74s-.2,3.17-.11,4.75l.07,2.37.23,2.37a41.48,41.48,0,0,0,2.06,9.21,32.31,32.31,0,0,0,1.9,4.29,20,20,0,0,0,2.59,3.83Z"></path>
      <path class="cls-14" d="M87.22,45.66a21,21,0,0,1-2.64-4.11,31.42,31.42,0,0,1-1.83-4.46,42,42,0,0,1-1.86-9.4l-.16-2.39V22.91c0-1.6.15-3.18.23-4.77s.39-3.16.59-4.74l.92-4.68-.8,4.7c-.15,1.58-.37,3.15-.47,4.74s-.19,3.16-.1,4.75l.07,2.37.22,2.36a41.81,41.81,0,0,0,2.07,9.21,30.53,30.53,0,0,0,1.9,4.3A19.8,19.8,0,0,0,87.94,45Z"></path>
      <path class="cls-14" d="M81.7,83A39.13,39.13,0,0,1,77,73.72a63.15,63.15,0,0,1-2.7-9.91c-.3-1.69-.6-3.37-.77-5.08s-.32-3.4-.44-5.11S73,50.21,73,48.5s.11-3.41.16-5.12c0,1.71,0,3.42,0,5.12s.09,3.41.25,5.11.28,3.39.56,5.07.55,3.36.88,5a64.33,64.33,0,0,0,2.91,9.75,38.77,38.77,0,0,0,4.76,8.87Z"></path>
      <path class="cls-14" d="M81.32,91a39.7,39.7,0,0,1-4.68-9.23,65.85,65.85,0,0,1-2.7-9.92c-.3-1.68-.59-3.37-.76-5.07s-.32-3.41-.44-5.11-.08-3.42-.13-5.12.1-3.42.16-5.12c0,1.71,0,3.41,0,5.12s.1,3.41.26,5.1.28,3.4.56,5.08.54,3.36.88,5a63.2,63.2,0,0,0,2.91,9.75,38.81,38.81,0,0,0,4.75,8.88Z"></path>
      <path class="cls-14" d="M83.62,36.55l-.37-18.28c-.17-6.09-.31-12.18-.67-18.27.52,6.07.83,12.17,1.16,18.25l.87,18.27Z"></path>
      <path class="cls-15" d="M88.15,40.09s1.68,7.16-4.72,8.94C83.43,49,80.8,45.09,88.15,40.09Z"></path>
      <path class="cls-16" d="M88.15,40.09s1.68,7.16-4.72,8.94C83.43,49,80.8,45.09,88.15,40.09Z"></path>
      <path class="cls-17" d="M89,46s.74,6.31-1.74,7.9-4.08,1.07-4.08,1.07-.25-4.18.87-5.18S89,46,89,46Z"></path>
      <path class="cls-18" d="M89,46.35s.74,6.3-1.74,7.89-4.08,1.08-4.08,1.08-.25-4.19.87-5.19S89,46.35,89,46.35Z"></path>
      <path class="cls-19" d="M89,53s2.26,9.48-5.92,9.4c0,0-.83-4.27,1.64-6A46.47,46.47,0,0,0,89,53Z"></path>
      <path class="cls-20" d="M89,53s2.26,9.48-5.92,9.4c0,0-.83-4.27,1.64-6A46.47,46.47,0,0,0,89,53Z"></path>
      <path class="cls-21" d="M89,60.43s1.72,10-5.45,9.88a6.92,6.92,0,0,1,2.06-7.52A19.94,19.94,0,0,0,89,60.43Z"></path>
      <path class="cls-22" d="M89,60.43s1.72,10-5.45,9.88a6.92,6.92,0,0,1,2.06-7.52A19.94,19.94,0,0,0,89,60.43Z"></path>
      <path class="cls-23" d="M89.1,68s2.06,9.61-5.92,10a8.09,8.09,0,0,1,1.46-7S88.64,68.72,89.1,68Z"></path>
      <path class="cls-24" d="M89.1,68s2.06,9.61-5.92,10a8.09,8.09,0,0,1,1.46-7S88.64,68.72,89.1,68Z"></path>
      <path class="cls-25" d="M88.7,76.28s3,10.54-5.43,9.48c0,0-.8-4.53.66-5.92A43.47,43.47,0,0,1,88.7,76.28Z"></path>
      <path class="cls-26" d="M88.7,76.28s3,10.54-5.43,9.48c0,0-.8-4.53.66-5.92A43.47,43.47,0,0,1,88.7,76.28Z"></path>
      <path class="cls-27" d="M82.34,94.65s7,2.19,6.63-10.35c0,0-4.62,3.13-5.38,4.13S82.35,93.32,82.34,94.65Z"></path>
      <path class="cls-28" d="M82.34,94.65s7,2.19,6.63-10.35c0,0-4.62,3.13-5.38,4.13S82.35,93.32,82.34,94.65Z"></path>
      <g class="cls-29">
        <path class="cls-30" d="M88.15,40.09s1.68,7.16-4.72,8.94C83.43,49,80.8,45.09,88.15,40.09Z"></path>
        <path class="cls-30" d="M88.15,40.09s1.68,7.16-4.72,8.94C83.43,49,80.8,45.09,88.15,40.09Z"></path>
        <path class="cls-30" d="M89,46s.74,6.31-1.74,7.9-4.08,1.07-4.08,1.07-.25-4.18.87-5.18S89,46,89,46Z"></path>
        <path class="cls-30" d="M89,46.35s.74,6.3-1.74,7.89-4.08,1.08-4.08,1.08-.25-4.19.87-5.19S89,46.35,89,46.35Z"></path>
        <path class="cls-30" d="M89,53s2.26,9.48-5.92,9.4c0,0-.83-4.27,1.64-6A46.47,46.47,0,0,0,89,53Z"></path>
        <path class="cls-30" d="M89,53s2.26,9.48-5.92,9.4c0,0-.83-4.27,1.64-6A46.47,46.47,0,0,0,89,53Z"></path>
        <path class="cls-30" d="M89,60.43s1.72,10-5.45,9.88a6.92,6.92,0,0,1,2.06-7.52A19.94,19.94,0,0,0,89,60.43Z"></path>
        <path class="cls-30" d="M89,60.43s1.72,10-5.45,9.88a6.92,6.92,0,0,1,2.06-7.52A19.94,19.94,0,0,0,89,60.43Z"></path>
        <path class="cls-30" d="M89.1,68s2.06,9.61-5.92,10a8.09,8.09,0,0,1,1.46-7S88.64,68.72,89.1,68Z"></path>
        <path class="cls-30" d="M89.1,68s2.06,9.61-5.92,10a8.09,8.09,0,0,1,1.46-7S88.64,68.72,89.1,68Z"></path>
        <path class="cls-30" d="M88.7,76.28s3,10.54-5.43,9.48c0,0-.8-4.53.66-5.92A43.47,43.47,0,0,1,88.7,76.28Z"></path>
        <path class="cls-30" d="M88.7,76.28s3,10.54-5.43,9.48c0,0-.8-4.53.66-5.92A43.47,43.47,0,0,1,88.7,76.28Z"></path>
        <path class="cls-30" d="M82.34,94.65s7,2.19,6.63-10.35c0,0-4.62,3.13-5.38,4.13S82.35,93.32,82.34,94.65Z"></path>
        <path class="cls-30" d="M82.34,94.65s7,2.19,6.63-10.35c0,0-4.62,3.13-5.38,4.13S82.35,93.32,82.34,94.65Z"></path>
      </g>
      <path class="cls-31" d="M84.39,292.55h0a.64.64,0,0,1-.63-.64l.51-247.46a.64.64,0,0,1,.64-.63h0a.63.63,0,0,1,.63.63L85,291.92A.63.63,0,0,1,84.39,292.55Z"></path>
      <path class="cls-32" d="M80,42.61s-1.68,7.16,4.72,9C84.75,51.56,87.38,47.61,80,42.61Z"></path>
      <path class="cls-33" d="M80,42.61s-1.68,7.16,4.72,9C84.75,51.56,87.38,47.61,80,42.61Z"></path>
      <path class="cls-34" d="M79.18,48.5s-.74,6.31,1.74,7.89S85,57.47,85,57.47s.25-4.18-.87-5.19S79.18,48.5,79.18,48.5Z"></path>
      <path class="cls-35" d="M79.18,48.87s-.74,6.31,1.74,7.9S85,57.84,85,57.84s.25-4.18-.87-5.18S79.18,48.87,79.18,48.87Z"></path>
      <path class="cls-36" d="M79.17,55.55S76.91,65,85.09,65c0,0,.83-4.28-1.64-6A45.49,45.49,0,0,1,79.17,55.55Z"></path>
      <path class="cls-37" d="M79.17,55.55S76.91,65,85.09,65c0,0,.83-4.28-1.64-6A45.49,45.49,0,0,1,79.17,55.55Z"></path>
      <path class="cls-38" d="M79.23,63s-1.72,10,5.45,9.87a6.92,6.92,0,0,0-2.06-7.52A19.73,19.73,0,0,1,79.23,63Z"></path>
      <path class="cls-39" d="M79.23,63s-1.72,10,5.45,9.87a6.92,6.92,0,0,0-2.06-7.52A19.73,19.73,0,0,1,79.23,63Z"></path>
      <path class="cls-40" d="M79.08,70.53S77,80.15,85,80.56a8.09,8.09,0,0,0-1.46-7S79.54,71.25,79.08,70.53Z"></path>
      <path class="cls-41" d="M79.08,70.53S77,80.15,85,80.56a8.09,8.09,0,0,0-1.46-7S79.54,71.25,79.08,70.53Z"></path>
      <path class="cls-42" d="M79.48,78.8s-3,10.55,5.43,9.48c0,0,.8-4.52-.66-5.92A43.47,43.47,0,0,0,79.48,78.8Z"></path>
      <path class="cls-43" d="M79.48,78.8s-3,10.55,5.43,9.48c0,0,.8-4.52-.66-5.92A43.47,43.47,0,0,0,79.48,78.8Z"></path>
      <path class="cls-44" d="M85.84,97.18s-7,2.19-6.63-10.35c0,0,4.62,3.13,5.38,4.12S85.83,95.85,85.84,97.18Z"></path>
      <path class="cls-45" d="M85.84,97.18s-7,2.19-6.63-10.35c0,0,4.62,3.13,5.38,4.12S85.83,95.85,85.84,97.18Z"></path>
      <path class="cls-46" d="M85.09,46.19s-5.53-4.29-.91-11.53c0,0,2.48,4.43,2.47,6.37S85.09,46.19,85.09,46.19Z"></path>
      <path class="cls-47" d="M85.09,46.19s-5.53-4.29-.91-11.53c0,0,2.48,4.43,2.47,6.37S85.09,46.19,85.09,46.19Z"></path>
      <path class="cls-48" d="M85.19,51.78s-2-3.61.22-5.66,2.69-1.78,2.69-1.78S90.73,49.93,85.19,51.78Z"></path>
      <path class="cls-49" d="M85.19,51.78s-2-3.61.22-5.66,2.69-1.78,2.69-1.78S90.73,49.93,85.19,51.78Z"></path>
      <path class="cls-50" d="M85.19,57.77s-2.36-5.05,2-6.2l2.45-1.12S91.11,56.57,85.19,57.77Z"></path>
      <path class="cls-51" d="M85.06,57.77s-2.35-5.05,2-6.2l2.46-1.12S91,56.57,85.06,57.77Z"></path>
      <path class="cls-52" d="M85,64.35s-2.43-4.45,2-6.73l2.93-1.3S90.7,64.16,85,64.35Z"></path>
      <path class="cls-53" d="M84.43,64.63S82,60.18,86.38,57.9l2.93-1.3S90.16,64.44,84.43,64.63Z"></path>
      <path class="cls-54" d="M85,72.23s-3.74-6.44,4.66-8.87C89.63,63.36,92,70.53,85,72.23Z"></path>
      <path class="cls-55" d="M85,72.21s-3.74-6.44,4.66-8.87C89.63,63.34,92,70.51,85,72.21Z"></path>
      <path class="cls-56" d="M84.91,80.65s-2.39-5.05,1.23-7.87,3.48-2.44,3.48-2.44S92.94,76.67,84.91,80.65Z"></path>
      <path class="cls-57" d="M84.91,80.65s-2.39-5.05,1.23-7.87,3.48-2.44,3.48-2.44S92.94,76.67,84.91,80.65Z"></path>
      <path class="cls-58" d="M84.7,89.05s-2.15-4.7,1.12-7.37,4.64-3.55,4.64-3.55S91.66,87.86,84.7,89.05Z"></path>
      <path class="cls-59" d="M84.62,89.53s-2.15-4.7,1.13-7.36,4.63-3.55,4.63-3.55S91.58,88.34,84.62,89.53Z"></path>
      <path class="cls-60" d="M84.7,97.54s-2.15-4.7,1.12-7.37,4.64-3.55,4.64-3.55S91.66,96.35,84.7,97.54Z"></path>
      <path class="cls-61" d="M84.7,97.54s-2.15-4.7,1.12-7.37,4.64-3.55,4.64-3.55S91.66,96.35,84.7,97.54Z"></path>
      <path class="cls-62" d="M72.92,143.22s-36.68,77.22-45.19,86.32c0,0,48.12-80.61,51-83.21S76,140.07,72.92,143.22Z"></path>
      <path class="cls-63" d="M85.28,182.69l-3.87-39.93s-1.26-2.89-2.77-2.7-5.72,3.16-5.72,3.16,2.36-2.15,3.59,4.55,6.9,34.68,6.9,34.68Z"></path>
      <path class="cls-64" d="M86.28,183.3a5.44,5.44,0,0,0-.48,1.46,7.27,7.27,0,0,0-.1,1.48c0,1.14,0,1.39,0,3s0,3.37,0,5.87.07,8.61.06,11.17,0,4,0,6,0,4.17,0,5.74c0,4.19,0,7.64,0,11.64a1,1,0,0,1-1.07,1.07,1.08,1.08,0,0,1-1.09-1.05v-.06h0c.16-4,.27-7.43.38-11.62,0-1.57.09-3.76.12-5.73s0-3.39.06-5.95,0-8.66-.08-11.15-.09-4.23-.12-5.85,0-1.89-.07-3a10.33,10.33,0,0,0-.14-1.47,5.66,5.66,0,0,0-.49-1.39c-.09-.21,0,0,0,0a1.73,1.73,0,0,1,.66-2.34,1.67,1.67,0,0,1,2.31.63A1.75,1.75,0,0,1,86.28,183.3Z"></path>
      <path class="cls-62" d="M107.24,135.91s33.08,66.28,35.9,69.31c0,0-40.78-61.8-42.2-66.24s2.32-3.52,2.32-3.52Z"></path>
      <path class="cls-63" d="M83.09,231.72s9.67-31.4,14.5-95.53a2.3,2.3,0,0,1,3-1.19c2.34.7,6.31,0,6.79,1.14S104.6,135,103.94,142s-16.2,85.48-18.28,89.7Z"></path>
      <path class="cls-65" d="M86.61,231.77A8.31,8.31,0,0,0,86,233.7a11.26,11.26,0,0,0-.18,2c0,1.37,0,2.13-.06,3.93S85.6,245,85.57,247c-.11,5.39-.2,10-.3,15.43,0,2.05-.09,5.25-.13,7.53s-.08,5.5-.11,7.53c-.08,5.43,0,10.16,0,15.4a1.37,1.37,0,0,1-1.39,1.41,1.44,1.44,0,0,1-1.44-1.39v-.12c.21-5.24.37-9.94.55-15.37.06-2,.16-5.24.23-7.52s.14-5.47.19-7.52c.13-5.45.2-10,.26-15.4,0-2,0-5.62,0-7.42s0-2.56,0-3.92a9.08,9.08,0,0,0-.15-2,7,7,0,0,0-.64-2s.15.39-.06-.14-.24-2.43,1-2.87a2.3,2.3,0,0,1,3,.92A2.23,2.23,0,0,1,86.61,231.77Z"></path>
      <path class="cls-66" d="M84,298.16a.92.92,0,0,0-.88-.32c-.49.15-.68.53-.6.67s.13.13.19.19.37-.22.39-.22Z"></path>
      <path class="cls-9" d="M84.25,298.75s-.16-.67-.41-.67-.53-.05-.53-.05l-.07.12s.25.44.35.47l.33.1A2.23,2.23,0,0,0,84.25,298.75Z"></path>
      <path class="cls-10" d="M84.23,298.83c0-.06.06-.21-.1-.25a2.09,2.09,0,0,0-.33-.07l-.47.35c-.08,0-.13,0,.1.11s.22.12.43.1A.67.67,0,0,0,84.23,298.83Z"></path>
      <path class="cls-11" d="M83.8,298.51s-.17.15-.29.28-.13.18-.28.11-.5-.12-.59-.26-.1-.12,0-.29a.74.74,0,0,1,.47-.29.42.42,0,0,1,.47.1A1.11,1.11,0,0,1,83.8,298.51Z"></path>
      <path class="cls-66" d="M71.5,293.62a1.34,1.34,0,0,0-1.36-.19c-.66.36-.81,1-.65,1.15a1.82,1.82,0,0,0,.31.21c.21.13.48-.43.5-.44S71.5,293.62,71.5,293.62Z"></path>
      <path class="cls-9" d="M72,294.39s-.42-.91-.78-.84-.78.09-.78.09l-.06.2s.48.55.64.57l.51,0A3.94,3.94,0,0,0,72,294.39Z"></path>
      <path class="cls-10" d="M72,294.51c0-.09,0-.32-.22-.34a4.41,4.41,0,0,0-.48,0s-.48.55-.58.64-.18.1.18.13.36.12.65,0A.88.88,0,0,0,72,294.51Z"></path>
      <path class="cls-11" d="M71.34,294.18a3.33,3.33,0,0,0-.33.5c-.13.23-.15.3-.37.24s-.76,0-.94-.19-.17-.15,0-.43a1,1,0,0,1,.58-.55.6.6,0,0,1,.7,0A1.42,1.42,0,0,1,71.34,294.18Z"></path>
      <path class="cls-66" d="M80.32,291.82s-2.81-1.41-4.77.31-2.07,3.91-1.39,4.39a9.18,9.18,0,0,0,1.23.49c.81.3,1.31-1.81,1.36-1.84S80.32,291.82,80.32,291.82Z"></path>
      <path class="cls-9" d="M82.72,294s-2.08-2.8-3.27-2.31-2.58.89-2.58.89l-.08.71s2.06,1.52,2.6,1.48,1.52-.23,1.76-.23A11.66,11.66,0,0,0,82.72,294Z"></path>
      <path class="cls-10" d="M82.8,294.46c0-.31-.14-1.11-1-1a11.43,11.43,0,0,0-1.65.36s-1.23,2.23-1.51,2.61-.52.47.7.31,1.32.13,2.25-.43A3.16,3.16,0,0,0,82.8,294.46Z"></path>
      <path class="cls-11" d="M80.17,293.82a13.5,13.5,0,0,0-.77,1.94c-.26.88-.27,1.13-1.07,1.08s-2.61.48-3.34,0-.68-.39-.48-1.41a3.75,3.75,0,0,1,1.59-2.31,2.08,2.08,0,0,1,2.38-.5A5.42,5.42,0,0,1,80.17,293.82Z"></path>
      <path class="cls-66" d="M91.14,292.72s-1.62-2.21-3.82-1.66-3.15,2.21-2.82,2.84a7.18,7.18,0,0,0,.76.87c.51.56,1.74-.88,1.79-.88Z"></path>
      <path class="cls-9" d="M92.12,295.39s-.51-3-1.62-3.09a23.07,23.07,0,0,1-2.35-.34l-.34.52s1,2,1.42,2.18,1.27.43,1.45.52A9.77,9.77,0,0,0,92.12,295.39Z"></path>
      <path class="cls-10" d="M92,295.75c.1-.25.33-.91-.36-1.16a11.05,11.05,0,0,0-1.43-.39s-1.84,1.24-2.2,1.43-.59.15.42.52,1,.62,1.91.55A2.71,2.71,0,0,0,92,295.75Z"></path>
      <path class="cls-11" d="M90.22,294.2a12.45,12.45,0,0,0-1.36,1.2c-.55.58-.66.77-1.26.41s-2.21-.67-2.59-1.31-.38-.57.19-1.29a3.27,3.27,0,0,1,2.15-1.15,1.82,1.82,0,0,1,2,.56A4.66,4.66,0,0,1,90.22,294.2Z"></path>
      <path class="cls-66" d="M83.61,293.86s-2.33-1.79-4.44-.58-2.59,3.22-2.06,3.77a7.52,7.52,0,0,0,1,.68c.69.42,1.53-1.43,1.58-1.45S83.61,293.86,83.61,293.86Z"></path>
      <path class="cls-9" d="M85.41,296.33s-1.41-2.94-2.59-2.71a25,25,0,0,1-2.52.35l-.2.64s1.61,1.77,2.11,1.82,1.44.07,1.66.11A11.74,11.74,0,0,0,85.41,296.33Z"></path>
      <path class="cls-10" d="M85.41,296.73c0-.29.07-1-.72-1.09a12.13,12.13,0,0,0-1.59,0s-1.53,1.83-1.85,2.13-.56.34.59.41,1.18.36,2.13,0A3,3,0,0,0,85.41,296.73Z"></path>
      <path class="cls-11" d="M83.1,295.66a13.89,13.89,0,0,0-1,1.64c-.39.77-.45,1-1.18.81s-2.48,0-3.06-.59-.56-.48-.19-1.39a3.49,3.49,0,0,1,1.88-1.82,2,2,0,0,1,2.27,0A5,5,0,0,1,83.1,295.66Z"></path>
      <path class="cls-66" d="M95.71,297.94A1.41,1.41,0,0,0,97,297.3c.35-.7.12-1.32-.12-1.38a2.88,2.88,0,0,0-.4,0c-.26,0-.15.65-.16.67Z"></path>
      <path class="cls-9" d="M94.79,297.6s.9.53,1.18.26.61-.54.61-.54l-.06-.21a2.76,2.76,0,0,0-.89-.11l-.46.27A2.72,2.72,0,0,0,94.79,297.6Z"></path>
      <path class="cls-10" d="M94.72,297.49c0,.08.17.29.39.16a2.87,2.87,0,0,0,.42-.29s.08-.76.11-.9.09-.19-.23,0-.38.12-.57.38A1,1,0,0,0,94.72,297.49Z"></path>
      <path class="cls-11" d="M95.53,297.36a4.47,4.47,0,0,0,0-.62c0-.28-.06-.35.17-.43s.67-.43.92-.39.24,0,.3.34a1.09,1.09,0,0,1-.18.82.63.63,0,0,1-.6.42A1.68,1.68,0,0,1,95.53,297.36Z"></path>
      <path class="cls-66" d="M64.72,299.55a1.4,1.4,0,0,0,1.29-.63c.34-.71.12-1.33-.13-1.38a2.51,2.51,0,0,0-.39,0c-.26,0-.16.66-.17.67Z"></path>
      <path class="cls-9" d="M63.79,299.22s.9.53,1.18.26a7.25,7.25,0,0,1,.61-.55l-.06-.2a2.76,2.76,0,0,0-.89-.11c-.15.07-.4.23-.46.26A3.53,3.53,0,0,0,63.79,299.22Z"></path>
      <path class="cls-10" d="M63.72,299.11c0,.08.17.29.39.16a4.15,4.15,0,0,0,.42-.29s.08-.76.11-.9.1-.19-.23,0-.38.11-.57.37A1,1,0,0,0,63.72,299.11Z"></path>
      <path class="cls-11" d="M64.53,299a4.61,4.61,0,0,0,0-.63c0-.27-.06-.34.17-.42s.67-.44.92-.39.24,0,.3.34a1.11,1.11,0,0,1-.18.82.6.6,0,0,1-.6.41A1.54,1.54,0,0,1,64.53,299Z"></path>
      <path class="cls-66" d="M73.57,298.44a1.81,1.81,0,0,0,1.7-.7c.5-.86.27-1.68,0-1.77a3.55,3.55,0,0,0-.5,0c-.34,0-.26.82-.27.83Z"></path>
      <path class="cls-9" d="M72.43,297.93s1.1.75,1.47.43.83-.64.83-.64l-.06-.26a3.52,3.52,0,0,0-1.13-.22c-.19.08-.52.26-.61.29A5.11,5.11,0,0,0,72.43,297.93Z"></path>
      <path class="cls-10" d="M72.34,297.78c0,.11.19.39.48.24a3.81,3.81,0,0,0,.56-.33s.17-1,.23-1.13.13-.24-.29,0-.5.12-.77.43A1.21,1.21,0,0,0,72.34,297.78Z"></path>
      <path class="cls-11" d="M73.38,297.69a5,5,0,0,0,0-.8c0-.35,0-.44.26-.52s.89-.5,1.21-.42.3.06.35.46a1.44,1.44,0,0,1-.3,1,.8.8,0,0,1-.8.47A2.09,2.09,0,0,1,73.38,297.69Z"></path>
      <path class="cls-66" d="M80,297.18a1.14,1.14,0,0,1,1-.16c.52.24.65.65.53.77a1.41,1.41,0,0,1-.24.16c-.16.09-.38-.29-.39-.29Z"></path>
      <path class="cls-9" d="M79.63,297.72s.3-.63.59-.59l.6.05.05.13s-.36.38-.48.4l-.39,0A3.25,3.25,0,0,1,79.63,297.72Z"></path>
      <path class="cls-10" d="M79.63,297.8a.18.18,0,0,1,.16-.24h.38s.38.37.46.43.14.06-.13.09-.28.08-.51,0A.71.71,0,0,1,79.63,297.8Z"></path>
      <path class="cls-11" d="M80.17,297.56a2.26,2.26,0,0,1,.27.33c.1.16.11.2.29.16s.59,0,.72-.15.13-.11,0-.29a.79.79,0,0,0-.47-.37.52.52,0,0,0-.54,0A1.09,1.09,0,0,0,80.17,297.56Z"></path>
      <path class="cls-66" d="M89.52,294.51s-2.19-1.61-4.11-.45-2.35,3-1.84,3.53a9,9,0,0,0,1,.61c.65.37,1.39-1.35,1.44-1.37Z"></path>
      <path class="cls-9" d="M91.23,296.76s-1.36-2.69-2.44-2.45-2.33.37-2.33.37l-.17.59s1.52,1.61,2,1.65,1.33,0,1.53.07A11.1,11.1,0,0,0,91.23,296.76Z"></path>
      <path class="cls-10" d="M91.24,297.13c0-.26,0-1-.69-1a11.14,11.14,0,0,0-1.46.05s-1.38,1.72-1.67,2-.52.32.54.37,1.11.31,2,0A2.76,2.76,0,0,0,91.24,297.13Z"></path>
      <path class="cls-11" d="M89.09,296.19a12.15,12.15,0,0,0-1,1.54c-.35.71-.39.92-1.07.76s-2.3,0-2.84-.48-.53-.43-.21-1.28A3.25,3.25,0,0,1,85.73,295a1.81,1.81,0,0,1,2.1-.07A4.76,4.76,0,0,1,89.09,296.19Z"></path>
      <path class="cls-66" d="M77.86,297a2.69,2.69,0,0,0-2.6.94c-.82,1.27-.52,2.51-.07,2.66a4.68,4.68,0,0,0,.77.08c.5,0,.43-1.22.46-1.25S77.86,297,77.86,297Z"></path>
      <path class="cls-9" d="M79.55,297.88s-1.61-1.21-2.19-.75a14.63,14.63,0,0,1-1.29.91l.07.41a5.67,5.67,0,0,0,1.68.4c.3-.11.81-.37.94-.41A7.28,7.28,0,0,0,79.55,297.88Z"></path>
      <path class="cls-10" d="M79.66,298.11c-.06-.17-.25-.6-.7-.4a8.29,8.29,0,0,0-.87.46s-.32,1.44-.41,1.7-.21.35.44.06.75-.14,1.18-.6A1.83,1.83,0,0,0,79.66,298.11Z"></path>
      <path class="cls-11" d="M78.09,298.17a9,9,0,0,0-.11,1.21c0,.53,0,.67-.42.77s-1.37.69-1.85.55-.44-.1-.5-.71a2.14,2.14,0,0,1,.52-1.53,1.2,1.2,0,0,1,1.24-.67A3.22,3.22,0,0,1,78.09,298.17Z"></path>
    </g>
  </g>
</svg>
