<?xml version="1.0" encoding="UTF-8"?>
<svg xmlns="http://www.w3.org/2000/svg" xmlns:xlink="http://www.w3.org/1999/xlink" viewBox="0 0 115.16 254.68">
  <defs>
    <style>.cls-1{fill:#8e6848;}.cls-2{fill:url(#Безымянный_градиент_7);}.cls-3{fill:#713e21;}.cls-4{fill:#3d271f;}.cls-5{fill:#69391e;}.cls-6{fill:#6b482f;}.cls-7{fill:#5c3624;}.cls-8{fill:#795135;}.cls-9{fill:#9a734f;}.cls-10{fill:#fff;}.cls-11{fill:#85563a;}.cls-12{fill:#779f5a;}.cls-13{fill:#789f5a;}.cls-14{fill:#8ead6f;}.cls-15{fill:#f2d95a;}</style>
    <linearGradient id="Безымянный_градиент_7" x1="53.83" y1="293.93" x2="59.12" y2="195.45" gradientUnits="userSpaceOnUse">
      <stop offset="0.38" stop-color="#9b714f"></stop>
      <stop offset="0.91" stop-color="#754427"></stop>
      <stop offset="1" stop-color="#6e3c20"></stop>
    </linearGradient>
  </defs>
  <g id="Слой_2" data-name="Слой 2">
    <g id="Слой_1-2" data-name="Слой 1">
      <path class="cls-1" d="M59.15,186.85S69,198.43,76.64,198.91s33.64-7.76,33.64-7.76l2.62-27.1-53.75-19Z"></path>
      <path class="cls-1" d="M0,162.13l5.36,35.35s19.05,2.86,22.38,1.91,18.58-6.67,22.86-6.67,8.55-5.87,8.55-5.87V145.1Z"></path>
      <polygon class="cls-2" points="7.92 230.56 59.15 254.68 106.54 230.68 57.27 209.81 7.92 230.56"></polygon>
      <path class="cls-3" d="M7.92,230.56,5.36,197.48s24.29-.47,31-3.81,22.83-6.82,22.83-6.82l-1.88,23Z"></path>
      <path class="cls-4" d="M42.54,199.54a8.64,8.64,0,0,0-2.91-1.71v0s-3.88-1.16-6,1.45-1.75,5.42-.79,5.87a10.15,10.15,0,0,0,1.67.35s.06,0,.1,0a29.48,29.48,0,0,0,3.59-.82,1.68,1.68,0,0,0,.62-.16l.67-.19c1.52-.47,1.7-.13,2.75-1.05a4.09,4.09,0,0,0,1.12-2.61,3.08,3.08,0,0,0-.21-.51h0l0,0A1,1,0,0,0,42.54,199.54Z"></path>
      <path class="cls-4" d="M21.74,203a11.18,11.18,0,0,0-4.12,1.36v0s-4.41,2.76-3.69,7,3.75,6.29,5,5.75a16.3,16.3,0,0,0,1.75-1.32s0-.1,0-.13c.94-1.08,1.63-3.24,2.26-4.16a2.2,2.2,0,0,0,.37-.74c.1-.2.21-.43.38-.81.83-1.86,1.32-1.75,1.33-3.54a5.23,5.23,0,0,0-1.58-3.29,4.63,4.63,0,0,0-.67-.23v0h-.08A1.27,1.27,0,0,0,21.74,203Z"></path>
      <path class="cls-5" d="M59.15,186.85l-1.88,23,49.27,20.87,3.74-39.53s-15.36-1.77-22-.82S70,194.15,66.48,192.24A45.59,45.59,0,0,1,59.15,186.85Z"></path>
      <path class="cls-4" d="M40.38,210.43a3.39,3.39,0,0,0-1.28-.31h0A2.37,2.37,0,0,0,37,211.32c-.5,1.22,0,2.23.36,2.3.11,0,.46,0,.67-.06l0,0a11.13,11.13,0,0,0,1.26-.7.86.86,0,0,0,.21-.13l.23-.15c.52-.35.63-.24.92-.7a1.64,1.64,0,0,0,.13-1.11l-.14-.16h0A.39.39,0,0,0,40.38,210.43Z"></path>
      <path class="cls-4" d="M88.65,200.55a2.21,2.21,0,0,0-.11-.91h0s-.39-1-1.3-1.06-1.47.52-1.41.8c0,.08.14.29.2.42h0a7.19,7.19,0,0,0,.77.65.53.53,0,0,0,.14.1l.15.12c.35.25.31.34.68.42a1.1,1.1,0,0,0,.75-.19l.08-.13h0A.24.24,0,0,0,88.65,200.55Z"></path>
      <path class="cls-4" d="M102.42,217.14a11.16,11.16,0,0,0-2-3.91h0s-3.39-4-7.53-2.66-5.74,4.65-5,5.82A15.32,15.32,0,0,0,89.51,218s.1,0,.14,0c1.22.78,3.47,1.16,4.48,1.65a2.38,2.38,0,0,0,.79.26c.22.08.46.15.86.26,2,.56,2,1.07,3.73.82a5.28,5.28,0,0,0,3.06-2.06,4,4,0,0,0,.13-.7h0l0-.08A1.29,1.29,0,0,0,102.42,217.14Z"></path>
      <path class="cls-4" d="M75.64,203.52a8.62,8.62,0,0,0-1.91,2.76l0,0s-1.44,3.76,1,6.05,5.24,2.13,5.76,1.22a11.63,11.63,0,0,0,.47-1.63s0-.07,0-.1a28.76,28.76,0,0,0-.53-3.62,1.63,1.63,0,0,0-.12-.63c0-.17-.07-.36-.14-.67-.35-1.54,0-1.7-.83-2.81a4,4,0,0,0-2.5-1.3,3.89,3.89,0,0,0-.53.17h0l0,0A1,1,0,0,0,75.64,203.52Z"></path>
      <path class="cls-6" d="M75.83,231.59a1.62,1.62,0,0,0,1.6-.42c.56-.72.45-1.47.18-1.59a2.88,2.88,0,0,0-.45-.08c-.29-.05-.33.7-.34.72S75.83,231.59,75.83,231.59Z"></path>
      <path class="cls-7" d="M74.86,231s.9.81,1.27.56.82-.47.82-.47l0-.25a3.38,3.38,0,0,0-1-.33l-.59.2A4.83,4.83,0,0,0,74.86,231Z"></path>
      <path class="cls-8" d="M74.81,230.86c0,.1.12.37.4.27a3.68,3.68,0,0,0,.54-.23s.27-.84.33-1,.15-.19-.25-.06-.46.05-.74.3A1.06,1.06,0,0,0,74.81,230.86Z"></path>
      <path class="cls-9" d="M75.75,230.9a5.5,5.5,0,0,0,.13-.71c0-.32,0-.4.29-.44s.86-.34,1.14-.23.26.09.26.45a1.3,1.3,0,0,1-.39.89.73.73,0,0,1-.78.33A1.81,1.81,0,0,1,75.75,230.9Z"></path>
      <path class="cls-6" d="M64.87,225.31s2.46.13,3.33-1.71.26-3.44-.37-3.57a6.32,6.32,0,0,0-1,0c-.68,0-.38,1.7-.41,1.74S64.87,225.31,64.87,225.31Z"></path>
      <path class="cls-7" d="M62.46,224.47s2.37,1.35,3.07.63,1.57-1.44,1.57-1.44l-.16-.53a7.56,7.56,0,0,0-2.32-.25c-.38.2-1,.63-1.19.71A9.09,9.09,0,0,0,62.46,224.47Z"></path>
      <path class="cls-8" d="M62.27,224.19c.12.21.45.75,1,.41a9.34,9.34,0,0,0,1.08-.77s.18-2,.26-2.34.23-.5-.6,0-1,.32-1.47,1A2.49,2.49,0,0,0,62.27,224.19Z"></path>
      <path class="cls-9" d="M64.37,223.83a10.74,10.74,0,0,0-.06-1.63c-.09-.71-.16-.89.43-1.11s1.73-1.16,2.39-1.05.61.06.79.86a3,3,0,0,1-.43,2.15,1.62,1.62,0,0,1-1.55,1.1A4.29,4.29,0,0,1,64.37,223.83Z"></path>
      <path class="cls-6" d="M54.66,233.28s1.92,1.45,3.63.44,2.1-2.65,1.66-3.1a7.16,7.16,0,0,0-.85-.54c-.57-.34-1.24,1.17-1.28,1.19S54.66,233.28,54.66,233.28Z"></path>
      <path class="cls-7" d="M53.18,231.27s1.17,2.39,2.13,2.19,2.06-.3,2.06-.3l.16-.52s-1.33-1.43-1.74-1.47-1.18,0-1.35-.08A9.7,9.7,0,0,0,53.18,231.27Z"></path>
      <path class="cls-8" d="M53.18,230.94c0,.24,0,.86.59.89a8.65,8.65,0,0,0,1.29,0s1.24-1.5,1.5-1.75.46-.28-.48-.33-1-.28-1.74,0A2.34,2.34,0,0,0,53.18,230.94Z"></path>
      <path class="cls-9" d="M55.06,231.8a10.34,10.34,0,0,0,.85-1.35c.32-.63.36-.81,1-.66s2,0,2.5.45.46.39.17,1.14a2.89,2.89,0,0,1-1.52,1.5,1.6,1.6,0,0,1-1.86,0A4.14,4.14,0,0,1,55.06,231.8Z"></path>
      <path class="cls-6" d="M50.26,226.68a2.75,2.75,0,0,0,.1-2.8c-.88-1.24-2.16-1.43-2.47-1.06a5.29,5.29,0,0,0-.36.69c-.22.45,1,.87,1,.9S50.26,226.68,50.26,226.68Z"></path>
      <path class="cls-7" d="M48.83,228s1.75-1.06,1.53-1.78-.36-1.55-.36-1.55l-.41-.08s-1,1.1-1,1.42,0,.9,0,1A7.6,7.6,0,0,0,48.83,228Z"></path>
      <path class="cls-8" d="M48.58,228c.18,0,.66,0,.64-.52a8,8,0,0,0-.11-1s-1.23-.84-1.43-1-.25-.34-.22.38-.16.76.12,1.33A1.86,1.86,0,0,0,48.58,228Z"></path>
      <path class="cls-9" d="M49.11,226.47a8.37,8.37,0,0,0-1.08-.56c-.5-.2-.65-.22-.57-.68s-.13-1.55.18-1.94.26-.38.85-.21a2.18,2.18,0,0,1,1.25,1.07,1.21,1.21,0,0,1,.15,1.41A3.14,3.14,0,0,1,49.11,226.47Z"></path>
      <path class="cls-6" d="M41.58,228.74a1.21,1.21,0,0,0,.4-1.15c-.21-.62-.71-.86-.89-.75a2.68,2.68,0,0,0-.24.24c-.15.16.3.48.3.5S41.58,228.74,41.58,228.74Z"></path>
      <path class="cls-7" d="M40.83,229.08s.85-.21.86-.54,0-.68,0-.68l-.16-.09s-.55.33-.6.46-.09.38-.12.43A3.4,3.4,0,0,0,40.83,229.08Z"></path>
      <path class="cls-8" d="M40.72,229.06c.07,0,.27.08.33-.13a2.65,2.65,0,0,0,.08-.42s-.4-.51-.46-.61-.06-.17-.15.13-.15.3-.12.57A.8.8,0,0,0,40.72,229.06Z"></path>
      <path class="cls-9" d="M41.13,228.51a3.34,3.34,0,0,0-.38-.37c-.18-.15-.24-.18-.15-.36s.15-.66.33-.78.15-.12.37,0a.94.94,0,0,1,.39.6.54.54,0,0,1-.12.6A1.52,1.52,0,0,1,41.13,228.51Z"></path>
      <path class="cls-6" d="M38.92,233.53s1.68-2.7.14-4.84-3.75-2.45-4.3-1.82a10,10,0,0,0-.61,1.2c-.38.79,1.7,1.49,1.73,1.54S38.92,233.53,38.92,233.53Z"></path>
      <path class="cls-7" d="M36.45,235.74s3-1.84,2.64-3.08a26.27,26.27,0,0,1-.65-2.68l-.71-.15S36,231.75,36,232.31s.09,1.55.07,1.79A12.52,12.52,0,0,0,36.45,235.74Z"></path>
      <path class="cls-8" d="M36,235.78c.31,0,1.13,0,1.1-.89a12.14,12.14,0,0,0-.2-1.71s-2.14-1.45-2.5-1.76-.42-.57-.38.67-.25,1.32.23,2.31A3.2,3.2,0,0,0,36,235.78Z"></path>
      <path class="cls-9" d="M36.92,233.18a14.72,14.72,0,0,0-1.89-1c-.86-.33-1.11-.37-1-1.18s-.23-2.67.3-3.36.45-.65,1.47-.36A3.74,3.74,0,0,1,38,229.15a2.11,2.11,0,0,1,.28,2.45A5.39,5.39,0,0,1,36.92,233.18Z"></path>
      <path class="cls-10" d="M56.56,178c.55,1.58.56,1.59,2.24,1.06a5,5,0,0,0,.82,1.2,18.65,18.65,0,0,1,4.56,6.11c1.83,3.49,1.28,3.33,5.23,3.71a12.19,12.19,0,0,1,7.4,3.36,14.46,14.46,0,0,1,.93,1.12c-1.37-.13-1.81-1-2.55-1.4s-1.55-.86-2.37-1.19a10.54,10.54,0,0,0-2.28-.62c-.86-.14-1.74-.15-3-.25a9.69,9.69,0,0,0,1,1.37,14.84,14.84,0,0,0,7.1,3.43,12.31,12.31,0,0,1,1.69.43c.11,0,.15.33.18.51s-.13.14-.21.16a3.13,3.13,0,0,1-.85.13,15.36,15.36,0,0,1-9.35-3.94c-.6-.52-1.13-1.1-1.71-1.64A2.41,2.41,0,0,0,63,191c1.44,2.15,3.95,3.09,5.13,5.21-.11.16-.14.25-.21.3a.36.36,0,0,1-.25,0l-5.21-3.28a8.94,8.94,0,0,0,1.23,4.27,2.61,2.61,0,0,0,1.17.81c.8.38,1.66.65,2.43,1.07a6.65,6.65,0,0,1,1.34,1.1c.07.07,0,.33-.06.48a.25.25,0,0,1-.24.07l-3.7-1.58c-.28,1.88.66,3.35.82,4.94a11.45,11.45,0,0,1,.06,4.67c-.92-.45-.68-1.1-.68-1.59a22.53,22.53,0,0,0-1.23-6.95,4.75,4.75,0,0,0-.59-1.34,1.42,1.42,0,0,0-.93-.57c-.59,0-.47.52-.47.86,0,3.75.15,7.5,0,11.24-.17,5.41-.52,10.82-.8,16.23a12.25,12.25,0,0,1-.33,1.54c-.68-2.18-.26-3.93-.3-5.67s0-3.74,0-5.61,0-3.45-.12-5.58c-1.68,3.35-3.16,6.28-4.64,9.22l0,0c.32-2.78,1.68-5.23,2.46-7.86a7.6,7.6,0,0,0,.46-2.59l-3.79,3.77a6.89,6.89,0,0,1,.55-1.61c.76-.9,1.56-1.78,2.39-2.63a6.6,6.6,0,0,0,2.06-5.6c-.21-1.94-.23-3.91-.34-6-1.23.45-.92,1.51-1.22,2.26s-.65,1.65-.93,2.49-.49,1.66-.75,2.55c-.93-.67-.49-1.45-.37-2.07.34-1.83.79-3.65,1.28-5.46.38-1.42.3-2.86.77-4.43-1.84.24-2.72,1-3,2.41-.17.75-.44,1.47-.82,2.71-.84-4.7,1.72-8.16,2.56-12.15-1.41,1.2-2.63,2.27-3.89,3.3a1.33,1.33,0,0,0-.42,1.29c.05,1,0,1-1,.39-.24-.14-.61-.38-.77-.3-1.62.91-3.22,1.87-4.8,2.84-.14.09-.13.39-.26.52s-.41.41-.6.39c-2.4-.31-4,1.38-5.78,2.43a7.76,7.76,0,0,0-3.32,4c-.18.46-.36.91-.56,1.35,0,.06-.19.11-.25.09s-.39-.17-.41-.29a3,3,0,0,1,0-1.15A10.21,10.21,0,0,1,39.25,196c1.32-.86,2.74-1.56,4.14-2.29a5.26,5.26,0,0,0,2.53-2.34,8.5,8.5,0,0,1,3.7-3.73,12.06,12.06,0,0,0,3.43-2.74,7.36,7.36,0,0,1,.63-.62c2.78-2.43,2.7-2,2.73-5.75A2.46,2.46,0,0,1,56.56,178Zm2.67,4.57c0,1,0,1.71,0,2.37.23,2,1.37,2.16,2.81,2.45.1,0,.45-.48.39-.58C61.67,185.36,61.08,183.76,59.23,182.55Z"></path>
      <polygon class="cls-11" points="0 162.13 59.15 186.85 112.9 164.05 59.15 145.1 0 162.13"></polygon>
      <path class="cls-12" d="M66.55,63.78l-.28,0L66,63.74c1.18-.64,2.24-1.37,1.76-3a8.77,8.77,0,0,1,5.85-4.15L75,56,76,56c.71.12,1.4.19,1.9-.5,1.48,0,3-.14,4.42-.14a.75.75,0,0,1,.72,1.2c-.39.67-.85,1.31-1.4,2.15,1.36.47,2.6.94,3.87,1.32s2.42,1.27,4,1c.86-.15-.43.85.35,1.11,1.18.4,1.78,1.49,2.5,2.4S93,66,92.21,66.59c-1.85,1.4-1.71,2.81-.8,4.79a32.82,32.82,0,0,1,3.06,15.81c0,.57-.17,1.13-.27,1.8-4.64-.52-8.83-2.19-13.16-3.7a4,4,0,0,0-.1,1c.42,2.48.39,2.6-2,2.31-2.83-.35-5.66-.78-8.46-1.32a9.51,9.51,0,0,1-4.27-2c-.5-.41-.85-1.34-1.62-1-.43.19-.57,1-.89,1.47a1,1,0,0,1-1.71.12c-4.11-4.35-5.49-12-.62-17.18A10.42,10.42,0,0,1,68.53,65,13.82,13.82,0,0,0,70,64.65l-2.87-.78A.54.54,0,0,0,66.55,63.78Z"></path>
      <path class="cls-12" d="M83.18,14l6.27.58c0-.71,0-1.57.14-2.41a4.43,4.43,0,0,1,4.07-4,9.2,9.2,0,0,1,3.23.06c2.66.71,5.27,1.6,7.86,2.5.56.19.52.65,0,1.05a.51.51,0,0,0,.11.93c.89.42,1.8.79,2.69,1.23,1,.52,2.09,1.08,3.12,1.65a9.06,9.06,0,0,1,4.43,6.33c.24,1.07.06,1.27-1.29,1.82a.81.81,0,0,0-.44.6c.07.68.32,1.34.39,2,.3,2.93-.41,5.45-3.13,7.28-.29-.7-.52-1.33-.81-1.93A3.13,3.13,0,0,0,106,29.67a31.51,31.51,0,0,0-3.17.71,9.62,9.62,0,0,1-5.24.06c-1-.31-1.81-.62-2.62.38-.18.21-1,.16-1.33,0a17.6,17.6,0,0,1-5-3.6l-2.49-2.61a11.69,11.69,0,0,1-1.27,1.67c-.2.19-.71.08-1.06,0-.16,0-.31-.24-.41-.4a14.65,14.65,0,0,1-2.45-6c-.26-1.81-.1-3.57,1.66-4.71A1.07,1.07,0,0,0,83.18,14Z"></path>
      <path class="cls-12" d="M59.05,24.61a10.27,10.27,0,0,1,3.13,2.66,4,4,0,0,1,.88,2.45c0,1.58-.64,2.5-2.22,2.56a64.74,64.74,0,0,1-7.37-.12c-1.66-.12-3.28-.63-4.94-.88-.89-.13-1.51-.41-1.56-1.4s-.66-1.2-1.32-1.39a8.07,8.07,0,0,0-2.32-.4c-2.36.05-4.72.09-7.06.35-1.32.14-1.68.11-1.66-1.53a12.28,12.28,0,0,1,1.23-5.12c.25-.54.63-1,.87-1.55.15-.34.35-.92.19-1.1-1.38-1.55,0-2.31.92-3.05a9.3,9.3,0,0,1,5.45-2,21.53,21.53,0,0,0,3.48-.54.94.94,0,0,0,.75-1.34c-.47-.94.07-1.24.77-1.47a3.72,3.72,0,0,1,1.15-.16,11.56,11.56,0,0,1,9,3.68c2.36,2.53,2.62,4.78,1,8.06C58.13,23.38,58.09,23.67,59.05,24.61Z"></path>
      <path class="cls-13" d="M59.07,161.77a48.23,48.23,0,0,1,2-13.4A24.44,24.44,0,0,1,62.8,144a4.27,4.27,0,0,0,.22-3.7q-.92-2.32-1.94-4.62a1.21,1.21,0,0,0-1.44-.75,43.78,43.78,0,0,1-9.43.53,12,12,0,0,0-1.47.06c-2.22.28-3,1.09-3.28,3.39-.05.35-.14.7-.28,1.39a9,9,0,0,1-.91-1.07c-1.87-3.47-3.74-6.94-5.57-10.43a10.21,10.21,0,0,1-1.28-4.8,7,7,0,0,1,6.06-7.22A8.77,8.77,0,0,1,51,119.34a4.71,4.71,0,0,1,1.29,2.92c.11.67,0,1.38.12,2.06a.65.65,0,0,0,.86.56c.84-.26,1.66-.59,2.49-.91,4.94-1.89,9.2.43,10.52,5.86a11.49,11.49,0,0,0-3.84,3.48,1.75,1.75,0,0,0-.3,2.13c.79,1.56,1.48,3.17,2.29,4.91A4.94,4.94,0,0,0,66,137.79a29,29,0,0,0-1.51-24c-1.69-3.22-3.61-6.33-5.52-9.43-2-3.27-4.2-6.43-6.21-9.71A49.62,49.62,0,0,1,48.14,85a28.22,28.22,0,0,1-1.61-6.88,3.15,3.15,0,0,0-1.67-2.59A19.76,19.76,0,0,0,38.61,73a26.1,26.1,0,0,0-5.28-.57c-2.83,0-5.48-.38-7.78-2.21a.81.81,0,0,0-1.37.49c-.22.85-.32,1.73-.49,2.59a.59.59,0,0,1-.93.34,24.52,24.52,0,0,1-2.63-2.77,16.51,16.51,0,0,1-3.29-9.93c0-1.38.11-2.76.12-4.14a5.14,5.14,0,0,0-.24-1.7c-1.46-4.18-.45-7.56,3.11-10.07A11.71,11.71,0,0,1,25,42.9a30,30,0,0,1,10,.49A1.23,1.23,0,0,1,36,44.62c.05.69.09,1.38.13,2.07,1.2,1.37,1.65,1.48,2.93.73.7-.36,1.39-.73,2.1-1.06a1.79,1.79,0,0,1,.85-.16c2.53.18,5.76,3.56,5.94,6.2,0,.82-.15,1.21-1.09,1.43a8,8,0,0,0-4.68,3.36c-.47.63-.81,1.34-1.22,2-.84.62-.59,1.52-.59,2.35v0l-1.81.07c-.69-.07-1.37-.15-2.05-.2-1.66-.1-3.32-.24-5-.27a1.57,1.57,0,0,0-1.69,1.6,11.51,11.51,0,0,0,.25,1.72c.17,1.29-.38,2.23-1.91,3.32.35-1,1-1.28,1.07-1.75s.25-1.1,0-1.35c-.54-.62-.79.17-1.06.46-.82.85-1.61,1.72-2.37,2.62s-.62,1.37.26,2A14.82,14.82,0,0,0,29,71.25c2,.79,4.06.56,6.11.6,3.59.09,7,.63,10,2.87.9.68,1,.59,1.43-.77l1.32-.12c.44-.62.92-1.21,1.31-1.85a12.13,12.13,0,0,1,3.24-4l.53-.65h0l1.15.49L54,67.9l-.46.5c-.67,1.08-1.31,2.19-2,3.25-2.26,3.47-3.33,7.16-1.71,11.16a55.8,55.8,0,0,0,3.77,8C57.32,97,61.3,103.14,65.2,109.27c.8-.21.51-.8.51-1.21a10.62,10.62,0,0,1,5-9.49,4.1,4.1,0,0,0,1.48-1.77,7.32,7.32,0,0,1,4.1-3.65c2.45-.91,4.72-.58,6.46,1.45a27.78,27.78,0,0,1,2.36,3.71c.45.76,1.13.84,1.58.13s.61-1.24,1-1.83c.91-1.54,1.7-1.87,3.44-1.45a17,17,0,0,1,6.25,3.23c.4.3.72.68,1.12,1,2.83,2,3.2,4.75,2.61,7.87a16.67,16.67,0,0,1-3.41,7.44c-1.38,1.71-2.52,3.52-2.22,6.19-1.16-.69-2-1.3-3-1.74-3-1.42-6-2.81-9.11-4.13a26.27,26.27,0,0,1-8.45-5.3,12.09,12.09,0,0,1-3.76-7.79c0-.39-.09-.78-.15-1.33a4.54,4.54,0,0,0-2.47,2.38,11.19,11.19,0,0,0-1.25,6.58,29.36,29.36,0,0,0,1.63,8.68,28.1,28.1,0,0,1-.35,21.06c-1.06,2.66-2.19,5.28-3.23,7.94-.86,2.2-1.73,4.4-2.44,6.66a23.08,23.08,0,0,0-1.22,7,11.73,11.73,0,0,1-.34,2C59.64,163.36,59.63,163.35,59.07,161.77Z"></path>
      <path class="cls-14" d="M59.05,24.61c-1-.94-.92-1.23.34-2.31.49.68,1,.29,1.55.06a14.43,14.43,0,0,1,7.17-1.31c1,.09,1.92.28,3.13.45a12.75,12.75,0,0,0-.45-1.39,20.44,20.44,0,0,1-1.74-9.49,12,12,0,0,1,4.13-8.84A6.93,6.93,0,0,1,77.75,0,3.47,3.47,0,0,1,81.3,2.92a2.2,2.2,0,0,1-1.65,2.45,2.18,2.18,0,0,1-2.59-.87,1.43,1.43,0,0,1,1-2.24,1.19,1.19,0,0,1,1,.46c.34.58-.29.46-.57.63s-.49.42-.45.56a.88.88,0,0,0,.57.53c1.25.23,2-.52,1.65-1.66A2.44,2.44,0,0,0,78.14,1a5.14,5.14,0,0,0-3.86,1.16,10,10,0,0,0-4,7,18.07,18.07,0,0,0,1.6,10.63,8.85,8.85,0,0,0,.56.9c.78,0,.6-.5.68-.8,1-3.41,3.33-5.24,6.68-5.89,1.11-.21,2.3-.74,3.41.08a1.07,1.07,0,0,1-.57,1.18c-.2-.19-.39-.51-.61-.54-3-.4-7,2.15-7.8,5.16a5.42,5.42,0,0,0,.41,4.27c.23.43.55.81.8,1.24A7.12,7.12,0,0,1,76,31.84a16.86,16.86,0,0,1-3.12,5c-1.68,1.93-3.41,3.82-5.11,5.74-.59.68-.59,1.06-.1,1.49.91.8,1.5,1,2,.27A3.74,3.74,0,0,1,72,42.76c2.1-.47,4.18-1.15,6.39-1-.13.55-.25,1.1-.38,1.66-2.35.64-4.69,1.39-7.08,1.89-1.48.3-2.27,1.46-3.5,2.11a57.44,57.44,0,0,1,4.31,4A50.59,50.59,0,0,1,75,56l-1.41.65a2.86,2.86,0,0,0-.12-1.12,21.81,21.81,0,0,0-2-2.93,13.63,13.63,0,0,0-4.42-3.84,1.56,1.56,0,0,0-1.64,0,30.89,30.89,0,0,1-4.61,2.6,12.44,12.44,0,0,0-5.61,4.56C54.49,56.93,53.76,58,53,59s-.93,1.68,0,2.58a5.63,5.63,0,0,1,1.39,2.89,13.43,13.43,0,0,0,.54,1.44c3.53-2.17,7.15-3.59,11.23-3.39.78,0,1-.46,1.12-1.07.07-.26.33-.47.5-.7.48,1.62-.58,2.35-1.76,3-.48.06-1,.13-1.44.17a17.49,17.49,0,0,0-9.89,3.86l-1.14-.51c0-.59,0-1.18,0-1.77a5,5,0,0,0-1.16-3.26c-.45-.61-1-.58-1.34.11A23.87,23.87,0,0,0,48.4,73.71l-1.33.1a11.42,11.42,0,0,1,.52-6c.07.63.14,1.26.24,2.1.3-1.22.3-1.22-.24-2.11-.25-1.88.82-3.39,1.4-5,.28-.79.9-1.49.84-2.36-2.2-.83-2.22-.84-3.52-.51a6.05,6.05,0,0,0-3.08,1.66,3.84,3.84,0,0,0-1.06,3.25c.25,2,2,2.91,3.84,2a2.65,2.65,0,0,1,.51-.29c.12,0,.39.09.4.16a.75.75,0,0,1-.14.53,3.07,3.07,0,0,1-3.55.63,2.91,2.91,0,0,1-2-2.69,24.14,24.14,0,0,1,.5-3.74c.18,0,.43,0,.54-.15a7.35,7.35,0,0,1,7.61-1.94,1,1,0,0,0,1.23-.52c1.67-2.2,3.35-4.39,5-6.59a6.34,6.34,0,0,0,1.42-4.11,8.19,8.19,0,0,0-6.6-7.38,10.71,10.71,0,0,0-7.14,1.26,17.93,17.93,0,0,0-4.6,4.12c-.54.64-.36.88.77,1.15-1.29.74-1.73.62-2.92-.77a1.19,1.19,0,0,0,1.25-.52,27.16,27.16,0,0,1,3-3.24A11.56,11.56,0,0,1,49,39.54a9.4,9.4,0,0,1,9.72,8.07l.23,1.2a3.18,3.18,0,0,0,.85-.43c1.47-1.44,2.91-2.92,4.47-4.49-.71-.72-1.37-1.29-1.91-2a5,5,0,0,1-.52-1.28h0l2.06,1.55c.82.6,1.39.63,2-.11,2.68-3,5.44-5.92,7.93-9.06,2.88-3.65,1.37-6.88-1.26-9a8.77,8.77,0,0,0-6.86-2A12.2,12.2,0,0,0,59.05,24.61ZM61.28,50c1.34-.74,2.69-1.45,4-2.23a17.78,17.78,0,0,0,2.12-1.56c.53-.42.41-1-.24-1.38-.43-.24-.89-.48-1.35-.09a14.44,14.44,0,0,0-1.28,1.2A15.5,15.5,0,0,0,61.28,50Z"></path>
      <path class="cls-14" d="M77.85,55.48c-.5.69-1.19.62-1.9.5Z"></path>
      <path class="cls-14" d="M61.24,39.51c.64.15.67.63.61,1.15h0c-.64-.17-.59-.69-.58-1.18Z"></path>
      <path class="cls-14" d="M60.64,38.33c.57.2.61.68.6,1.18l0,0-.6-1.18Z"></path>
      <path class="cls-14" d="M60.69,38.29c-.13-.12-.31-.21-.36-.35s.1-.25.17-.38a2.34,2.34,0,0,1,.09.24c0,.18,0,.35,0,.53Z"></path>
      <path class="cls-14" d="M54.13,68.34l.47-.49Z"></path>
      <path class="cls-14" d="M66.55,63.78a.54.54,0,0,1,.54.09Z"></path>
      <path class="cls-14" d="M41.74,59c0,.79,0,1.59,0,2.39l-.62,0C41.13,60.52,40.89,59.62,41.74,59Z"></path>
      <path class="cls-14" d="M41.12,61.37c-.69.7-.69.7-1.81.05Z"></path>
      <path class="cls-14" d="M53,67.9l.54-.64Z"></path>
      <path class="cls-13" d="M47.59,67.81c.54.89.54.89.24,2.11-.1-.84-.17-1.47-.24-2.1Z"></path>
      <path class="cls-15" d="M78.28,42.33a2.18,2.18,0,0,0,2.26-1c.9-1.35,3.95-3.85,3.55-1.3s-1.2,2.34-1.2,2.34,3.7.82.85,2.67A2.27,2.27,0,0,1,81.29,47s1.15-3.48-3.26-3.53C78,43.43,77.06,42.45,78.28,42.33Z"></path>
      <path class="cls-6" d="M55.56,172.26a1.64,1.64,0,0,0-1.57-.57c-.87.27-1.22,1-1.07,1.2a3.14,3.14,0,0,0,.32.33c.22.22.68-.39.7-.39Z"></path>
      <path class="cls-7" d="M56,173.31s-.27-1.18-.72-1.2-.95-.08-.95-.08l-.13.22s.45.78.63.84l.59.17A3.39,3.39,0,0,0,56,173.31Z"></path>
      <path class="cls-8" d="M56,173.46c0-.1.11-.37-.18-.46a4.68,4.68,0,0,0-.58-.12s-.71.54-.85.62-.23.08.18.2.41.23.78.18A1.07,1.07,0,0,0,56,173.46Z"></path>
      <path class="cls-9" d="M55.22,172.88a6.5,6.5,0,0,0-.52.51c-.2.25-.24.33-.49.2s-.91-.22-1.07-.47-.17-.22,0-.52a1.29,1.29,0,0,1,.84-.51.73.73,0,0,1,.83.18A1.85,1.85,0,0,1,55.22,172.88Z"></path>
      <path class="cls-6" d="M52,152.12a2.42,2.42,0,0,0-2.44-.35c-1.16.65-1.44,1.75-1.16,2.06a5.2,5.2,0,0,0,.57.37c.38.24.85-.77.88-.78S52,152.12,52,152.12Z"></path>
      <path class="cls-7" d="M53,153.49s-.76-1.63-1.4-1.51-1.39.18-1.39.18l-.12.34s.87,1,1.15,1,.79,0,.91.07A5.52,5.52,0,0,0,53,153.49Z"></path>
      <path class="cls-8" d="M53,153.71c0-.16,0-.57-.39-.61a6.24,6.24,0,0,0-.87,0s-.85,1-1,1.15-.31.18.32.23.65.2,1.17,0A1.59,1.59,0,0,0,53,153.71Z"></path>
      <path class="cls-9" d="M51.69,153.11a8.37,8.37,0,0,0-.59.89c-.22.42-.25.54-.65.43s-1.36,0-1.67-.34-.31-.27-.1-.76a1.9,1.9,0,0,1,1-1,1,1,0,0,1,1.24,0A2.68,2.68,0,0,1,51.69,153.11Z"></path>
      <path class="cls-6" d="M47.17,159.51s-5-2.5-8.53.55-3.67,7-2.47,7.83a15.09,15.09,0,0,0,2.2.88c1.44.54,2.34-3.23,2.43-3.29S47.17,159.51,47.17,159.51Z"></path>
      <path class="cls-7" d="M51.45,163.47s-3.72-5-5.84-4.11-4.6,1.58-4.6,1.58l-.14,1.26s3.66,2.73,4.63,2.64,2.71-.4,3.14-.4A22.88,22.88,0,0,0,51.45,163.47Z"></path>
      <path class="cls-8" d="M51.59,164.23c0-.56-.25-2-1.75-1.78a20.49,20.49,0,0,0-3,.63s-2.2,4-2.68,4.66-.94.84,1.24.56,2.36.22,4-.77A5.62,5.62,0,0,0,51.59,164.23Z"></path>
      <path class="cls-9" d="M46.89,163.08a25.24,25.24,0,0,0-1.37,3.46c-.46,1.58-.48,2-1.91,1.94s-4.66.85-6,0-1.23-.7-.87-2.53,1.2-2.69,2.85-4.11a3.73,3.73,0,0,1,4.25-.89A9.55,9.55,0,0,1,46.89,163.08Z"></path>
      <path class="cls-6" d="M64.51,160.56s-4.2-2.47-7.43,0-3.61,5.84-2.62,6.65a14.82,14.82,0,0,0,1.85.89c1.23.55,2.23-2.67,2.31-2.71S64.51,160.56,64.51,160.56Z"></path>
      <path class="cls-7" d="M68,164.26s-2.93-4.55-4.82-3.92-4.09,1.09-4.09,1.09l-.2,1.09s3,2.58,3.86,2.57,2.38-.18,2.75-.16A19.22,19.22,0,0,0,68,164.26Z"></path>
      <path class="cls-8" d="M68.07,164.92c0-.48-.1-1.73-1.41-1.65a18.79,18.79,0,0,0-2.61.37s-2.14,3.33-2.6,3.89-.87.67,1,.56,2,.33,3.52-.43A4.91,4.91,0,0,0,68.07,164.92Z"></path>
      <path class="cls-9" d="M64.05,163.64a22.71,22.71,0,0,0-1.4,2.92c-.48,1.35-.53,1.72-1.77,1.57s-4.1.46-5.16-.33-1-.68-.61-2.25,1.21-2.26,2.72-3.39a3.25,3.25,0,0,1,3.75-.52A8.35,8.35,0,0,1,64.05,163.64Z"></path>
      <path class="cls-6" d="M75.65,156.12s-4.15-3.2-7.91-1-4.63,5.73-3.68,6.73a15.83,15.83,0,0,0,1.85,1.2c1.23.75,2.74-2.54,2.82-2.58S75.65,156.12,75.65,156.12Z"></path>
      <path class="cls-7" d="M78.86,160.52s-2.51-5.24-4.61-4.82-4.5.62-4.5.62l-.36,1.13s2.87,3.16,3.77,3.25,2.56.13,3,.2A20.74,20.74,0,0,0,78.86,160.52Z"></path>
      <path class="cls-8" d="M78.86,161.24c0-.51.12-1.86-1.29-2a19.86,19.86,0,0,0-2.82.05s-2.73,3.25-3.3,3.79-1,.6,1,.73,2.12.63,3.81,0A5.23,5.23,0,0,0,78.86,161.24Z"></path>
      <path class="cls-9" d="M74.75,159.34a24.32,24.32,0,0,0-1.88,2.92c-.7,1.37-.8,1.76-2.1,1.43s-4.43-.06-5.46-1-1-.86-.34-2.47,1.59-2.25,3.35-3.26a3.5,3.5,0,0,1,4.06,0A9,9,0,0,1,74.75,159.34Z"></path>
      <path class="cls-6" d="M78.87,169.53a2.5,2.5,0,0,0,2.3-1.13c.62-1.26.22-2.37-.21-2.46a4.31,4.31,0,0,0-.71,0c-.47,0-.28,1.17-.3,1.19S78.87,169.53,78.87,169.53Z"></path>
      <path class="cls-7" d="M77.23,168.93s1.6.95,2.09.47a14.45,14.45,0,0,1,1.1-1l-.11-.37a5.27,5.27,0,0,0-1.59-.2c-.26.14-.71.43-.83.48A7.19,7.19,0,0,0,77.23,168.93Z"></path>
      <path class="cls-8" d="M77.1,168.74c.08.14.3.52.69.29a7.22,7.22,0,0,0,.75-.52s.15-1.36.2-1.6.17-.34-.41,0-.68.21-1,.67A1.73,1.73,0,0,0,77.1,168.74Z"></path>
      <path class="cls-9" d="M78.54,168.51a7.29,7.29,0,0,0,0-1.12c-.06-.49-.1-.61.3-.76s1.2-.77,1.65-.69.42.05.53.6a2,2,0,0,1-.31,1.47,1.13,1.13,0,0,1-1.08.74A2.83,2.83,0,0,1,78.54,168.51Z"></path>
      <path class="cls-6" d="M39.37,170.43s2.13.29,3-1.25.48-3-.06-3.15a7.27,7.27,0,0,0-.91-.05c-.59,0-.45,1.46-.48,1.49Z"></path>
      <path class="cls-7" d="M37.33,169.51s2,1.36,2.63.78,1.47-1.14,1.47-1.14l-.1-.48a6.55,6.55,0,0,0-2-.39c-.34.15-.93.48-1.09.53A9.6,9.6,0,0,0,37.33,169.51Z"></path>
      <path class="cls-8" d="M37.18,169.25c.09.2.34.69.86.44a8.87,8.87,0,0,0,1-.59s.31-1.72.41-2,.23-.42-.52,0-.89.21-1.37.77A2.2,2.2,0,0,0,37.18,169.25Z"></path>
      <path class="cls-9" d="M39,169.1a9.38,9.38,0,0,0,.08-1.43c0-.63-.08-.79.45-.94s1.59-.88,2.16-.74.53.1.63.81a2.58,2.58,0,0,1-.53,1.84,1.45,1.45,0,0,1-1.44.85A3.69,3.69,0,0,1,39,169.1Z"></path>
      <path class="cls-6" d="M53.26,162.5a1.86,1.86,0,0,0,1.87.32c.92-.48,1.17-1.32.95-1.56a4.12,4.12,0,0,0-.43-.31c-.29-.19-.68.58-.7.59Z"></path>
      <path class="cls-7" d="M52.54,161.42s.55,1.27,1.05,1.19a10.27,10.27,0,0,1,1.08-.1l.09-.27s-.65-.78-.86-.81-.61-.05-.7-.08A5,5,0,0,0,52.54,161.42Z"></path>
      <path class="cls-8" d="M52.55,161.24c0,.13,0,.45.29.48a4.3,4.3,0,0,0,.67,0s.68-.75.82-.87.25-.13-.24-.18-.5-.18-.91-.05A1.28,1.28,0,0,0,52.55,161.24Z"></path>
      <path class="cls-9" d="M53.51,161.74a7,7,0,0,0,.48-.68c.18-.32.2-.41.51-.32s1,.06,1.29.31.23.21.05.59a1.46,1.46,0,0,1-.83.74.83.83,0,0,1-1,0A2.08,2.08,0,0,1,53.51,161.74Z"></path>
      <path class="cls-6" d="M70.15,169.63s4.71,1.15,7.08-2.1,1.76-6.6.58-7.08a15.38,15.38,0,0,0-2-.32c-1.32-.17-1.35,3.18-1.42,3.24S70.15,169.63,70.15,169.63Z"></path>
      <path class="cls-7" d="M65.78,167.12s4.1,3.48,5.72,2.34,3.57-2.22,3.57-2.22l-.13-1.09s-3.61-1.59-4.41-1.33-2.21.86-2.57.94A20,20,0,0,0,65.78,167.12Z"></path>
      <path class="cls-8" d="M65.51,166.51c.15.45.6,1.62,1.82,1.16a17.87,17.87,0,0,0,2.37-1.1s1.08-3.78,1.36-4.45.63-.88-1.15-.22-2,.26-3.23,1.41A4.9,4.9,0,0,0,65.51,166.51Z"></path>
      <path class="cls-9" d="M69.7,166.57a22.45,22.45,0,0,0,.49-3.18c.08-1.42,0-1.79,1.24-2s3.76-1.61,5-1.17,1.17.35,1.22,2-.49,2.5-1.6,4a3.26,3.26,0,0,1-3.41,1.57A8.36,8.36,0,0,1,69.7,166.57Z"></path>
      <path class="cls-6" d="M48.42,166.91s2.83,1.59,4.94-.08,2.32-3.93,1.65-4.45a9.49,9.49,0,0,0-1.24-.57c-.82-.35-1.45,1.8-1.5,1.83S48.42,166.91,48.42,166.91Z"></path>
      <path class="cls-7" d="M46.06,164.5s2,3,3.26,2.54,2.7-.78,2.7-.78l.12-.73s-2-1.67-2.6-1.65S48,164,47.71,164A12.73,12.73,0,0,0,46.06,164.5Z"></path>
      <path class="cls-8" d="M46,164.06c0,.32.09,1.15,1,1.08a12.33,12.33,0,0,0,1.72-.28s1.39-2.24,1.69-2.62.56-.46-.71-.36-1.35-.2-2.33.33A3.28,3.28,0,0,0,46,164.06Z"></path>
      <path class="cls-9" d="M48.68,164.86a14.75,14.75,0,0,0,.9-2c.3-.9.33-1.15,1.15-1.07s2.72-.36,3.44.15.69.44.43,1.49a3.87,3.87,0,0,1-1.76,2.29,2.18,2.18,0,0,1-2.48.4A5.59,5.59,0,0,1,48.68,164.86Z"></path>
    </g>
  </g>
</svg>
