<?xml version="1.0" encoding="UTF-8"?>
<svg xmlns="http://www.w3.org/2000/svg" xmlns:xlink="http://www.w3.org/1999/xlink" viewBox="0 0 108.59 185.34">
  <defs>
    <style>.cls-1{fill:#8e6848;}.cls-2{fill:url(#Безымянный_градиент_7);}.cls-3{fill:#713e21;}.cls-4{fill:#3d271f;}.cls-5{fill:#69391e;}.cls-6{fill:#6b482f;}.cls-7{fill:#5c3624;}.cls-8{fill:#795135;}.cls-9{fill:#9a734f;}.cls-10{fill:#fff;}.cls-11{fill:#85563a;}.cls-12{fill:#79a05b;}.cls-13{fill:#779f5a;}.cls-14{fill:#b1c595;}.cls-15{fill:#b3c695;}</style>
    <linearGradient id="Безымянный_градиент_7" x1="51.77" y1="223.09" x2="56.86" y2="128.37" gradientUnits="userSpaceOnUse">
      <stop offset="0.38" stop-color="#9b714f"></stop>
      <stop offset="0.91" stop-color="#754427"></stop>
      <stop offset="1" stop-color="#6e3c20"></stop>
    </linearGradient>
  </defs>
  <g id="Слой_2" data-name="Слой 2">
    <g id="Слой_1-2" data-name="Слой 1">
      <path class="cls-1" d="M56.89,120.1s9.49,11.14,16.82,11.6,32.36-7.46,32.36-7.46l2.52-26.07L56.89,79.94Z"></path>
      <path class="cls-1" d="M0,96.33l5.16,34s18.32,2.75,21.53,1.84,17.86-6.42,22-6.42,8.22-5.64,8.22-5.64V79.94Z"></path>
      <polygon class="cls-2" points="7.62 162.14 56.89 185.34 102.47 162.26 55.08 142.18 7.62 162.14"></polygon>
      <path class="cls-3" d="M7.62,162.14,5.16,130.32s23.36-.45,29.77-3.66,22-6.56,22-6.56l-1.81,22.08Z"></path>
      <path class="cls-4" d="M40.91,132.3a8.36,8.36,0,0,0-2.79-1.64v0s-3.73-1.12-5.76,1.39-1.69,5.22-.77,5.65a11,11,0,0,0,1.61.34s.06,0,.09,0a28.79,28.79,0,0,0,3.46-.79,1.79,1.79,0,0,0,.6-.15l.64-.19c1.46-.45,1.64-.12,2.65-1a3.92,3.92,0,0,0,1.07-2.51,2.24,2.24,0,0,0-.2-.5h0l0,0A1,1,0,0,0,40.91,132.3Z"></path>
      <path class="cls-4" d="M20.91,135.58a10.82,10.82,0,0,0-4,1.31v0s-4.24,2.66-3.54,6.75,3.61,6,4.81,5.52a14.24,14.24,0,0,0,1.69-1.26s0-.09,0-.13c.9-1,1.57-3.12,2.17-4a2.24,2.24,0,0,0,.36-.71c.1-.2.2-.41.36-.78.8-1.79,1.27-1.69,1.28-3.41a5,5,0,0,0-1.52-3.16,3.47,3.47,0,0,0-.65-.22v0h-.08A1.22,1.22,0,0,0,20.91,135.58Z"></path>
      <path class="cls-5" d="M56.89,120.1l-1.81,22.08,47.39,20.08,3.6-38s-14.78-1.71-21.19-.79-17.58,3.67-20.94,1.83A44.44,44.44,0,0,1,56.89,120.1Z"></path>
      <path class="cls-4" d="M38.84,142.78a3.14,3.14,0,0,0-1.23-.3h0a2.27,2.27,0,0,0-2,1.17c-.48,1.16-.05,2.14.34,2.2a4.34,4.34,0,0,0,.65-.05l0,0a11.12,11.12,0,0,0,1.21-.68A.58.58,0,0,0,38,145l.22-.14c.5-.34.61-.23.89-.68a1.53,1.53,0,0,0,.12-1.06l-.13-.16h0A.42.42,0,0,0,38.84,142.78Z"></path>
      <path class="cls-4" d="M85.27,133.28a2.22,2.22,0,0,0-.11-.88h0s-.37-1-1.25-1-1.41.5-1.35.77a2,2,0,0,0,.19.4l0,0c.18.23.59.45.74.62l.14.1.14.11c.34.24.3.33.66.41a1.07,1.07,0,0,0,.72-.19.63.63,0,0,0,.07-.12h0v0A.23.23,0,0,0,85.27,133.28Z"></path>
      <path class="cls-4" d="M98.51,149.24a10.94,10.94,0,0,0-1.88-3.77h0s-3.27-3.85-7.25-2.56-5.52,4.48-4.82,5.61a15,15,0,0,0,1.5,1.5s.1,0,.14,0c1.17.75,3.34,1.12,4.31,1.59a2.08,2.08,0,0,0,.76.25l.83.25c1.9.54,1.87,1,3.58.78a5.08,5.08,0,0,0,2.94-2,3.16,3.16,0,0,0,.13-.68h0l0-.07A1.21,1.21,0,0,0,98.51,149.24Z"></path>
      <path class="cls-4" d="M72.75,136.14a8.31,8.31,0,0,0-1.83,2.64h0s-1.38,3.61.95,5.81,5,2.06,5.54,1.18a11.21,11.21,0,0,0,.45-1.57s0-.06,0-.1a28.87,28.87,0,0,0-.52-3.48,1.73,1.73,0,0,0-.11-.6c0-.17-.07-.35-.14-.65-.34-1.48,0-1.63-.79-2.7a4,4,0,0,0-2.41-1.25,3.36,3.36,0,0,0-.51.17v0l0,0A1,1,0,0,0,72.75,136.14Z"></path>
      <path class="cls-6" d="M72.93,163.13a1.58,1.58,0,0,0,1.55-.4c.53-.69.42-1.42.17-1.53a2.78,2.78,0,0,0-.43-.08c-.29-.05-.32.68-.33.69Z"></path>
      <path class="cls-7" d="M72,162.56s.87.78,1.23.55a8.29,8.29,0,0,1,.78-.46l0-.24a3.22,3.22,0,0,0-.94-.31c-.18.05-.49.17-.56.18A4.71,4.71,0,0,0,72,162.56Z"></path>
      <path class="cls-8" d="M72,162.43c0,.1.12.35.39.26a4.09,4.09,0,0,0,.52-.22s.26-.81.32-.95.14-.19-.25-.06-.44,0-.71.29A1.08,1.08,0,0,0,72,162.43Z"></path>
      <path class="cls-9" d="M72.86,162.47a4.37,4.37,0,0,0,.12-.69c0-.3,0-.38.28-.42s.83-.32,1.1-.22.25.08.25.43a1.26,1.26,0,0,1-.38.86.7.7,0,0,1-.75.32A1.8,1.8,0,0,1,72.86,162.47Z"></path>
      <path class="cls-6" d="M62.4,157.09s2.36.13,3.2-1.64.25-3.32-.36-3.44a5.83,5.83,0,0,0-1,0c-.65,0-.37,1.64-.39,1.68S62.4,157.09,62.4,157.09Z"></path>
      <path class="cls-7" d="M60.08,156.28s2.27,1.3,3,.61,1.51-1.38,1.51-1.38l-.16-.52a7.32,7.32,0,0,0-2.23-.24c-.36.2-1,.61-1.15.68A10.4,10.4,0,0,0,60.08,156.28Z"></path>
      <path class="cls-8" d="M59.9,156c.11.21.43.72,1,.4a9.34,9.34,0,0,0,1-.74s.18-1.91.25-2.26.23-.48-.57,0-1,.31-1.42,1A2.36,2.36,0,0,0,59.9,156Z"></path>
      <path class="cls-9" d="M61.91,155.67a10.79,10.79,0,0,0,0-1.57c-.09-.69-.16-.86.41-1.07s1.66-1.11,2.29-1,.59.06.76.83a2.8,2.8,0,0,1-.41,2.07A1.56,1.56,0,0,1,63.42,156,4,4,0,0,1,61.91,155.67Z"></path>
      <path class="cls-6" d="M52.58,164.75s1.84,1.4,3.49.43,2-2.55,1.59-3a6,6,0,0,0-.82-.52c-.54-.33-1.19,1.13-1.23,1.14Z"></path>
      <path class="cls-7" d="M51.15,162.83s1.12,2.3,2.05,2.1,2-.29,2-.29l.15-.5s-1.28-1.38-1.67-1.42-1.13,0-1.3-.07A9,9,0,0,0,51.15,162.83Z"></path>
      <path class="cls-8" d="M51.15,162.51c0,.23,0,.82.57.85a8,8,0,0,0,1.24,0s1.19-1.44,1.44-1.68.44-.27-.46-.32-.94-.27-1.68,0A2.32,2.32,0,0,0,51.15,162.51Z"></path>
      <path class="cls-9" d="M53,163.33a10.14,10.14,0,0,0,.82-1.29c.3-.61.34-.78.92-.64s1.95,0,2.41.44.44.37.16,1.09a2.76,2.76,0,0,1-1.47,1.44,1.53,1.53,0,0,1-1.78,0A4,4,0,0,1,53,163.33Z"></path>
      <path class="cls-6" d="M48.34,158.41a2.63,2.63,0,0,0,.1-2.69c-.85-1.2-2.08-1.38-2.38-1a5.1,5.1,0,0,0-.34.67c-.22.43.94.83,1,.86S48.34,158.41,48.34,158.41Z"></path>
      <path class="cls-7" d="M47,159.63s1.68-1,1.47-1.71a14.67,14.67,0,0,1-.35-1.49l-.39-.08s-1,1.06-1,1.37,0,.86,0,1A7,7,0,0,0,47,159.63Z"></path>
      <path class="cls-8" d="M46.73,159.65c.17,0,.63,0,.61-.5a6.46,6.46,0,0,0-.1-.94s-1.19-.82-1.38-1-.24-.32-.22.37-.14.73.12,1.28A1.79,1.79,0,0,0,46.73,159.65Z"></path>
      <path class="cls-9" d="M47.24,158.21a8.22,8.22,0,0,0-1.05-.54c-.48-.19-.61-.21-.55-.66s-.12-1.49.18-1.87.26-.36.82-.19a2.1,2.1,0,0,1,1.2,1,1.19,1.19,0,0,1,.15,1.36A3.07,3.07,0,0,1,47.24,158.21Z"></path>
      <path class="cls-6" d="M40,160.39a1.14,1.14,0,0,0,.38-1.1c-.19-.6-.68-.83-.85-.73a2.47,2.47,0,0,0-.23.23c-.14.16.29.47.29.48S40,160.39,40,160.39Z"></path>
      <path class="cls-7" d="M39.27,160.72s.82-.2.82-.52,0-.66,0-.66l-.15-.09s-.54.32-.58.45-.09.36-.12.41A3.26,3.26,0,0,0,39.27,160.72Z"></path>
      <path class="cls-8" d="M39.16,160.7c.08,0,.27.07.32-.13a2.42,2.42,0,0,0,.08-.4s-.39-.49-.45-.59,0-.16-.13.13-.16.28-.12.54A.81.81,0,0,0,39.16,160.7Z"></path>
      <path class="cls-9" d="M39.56,160.17a3.65,3.65,0,0,0-.36-.36c-.18-.14-.23-.17-.15-.34s.14-.63.31-.75.16-.12.37,0a.89.89,0,0,1,.36.58.5.5,0,0,1-.11.58A1.29,1.29,0,0,1,39.56,160.17Z"></path>
      <path class="cls-6" d="M37.43,165s1.62-2.6.13-4.66S34,158,33.44,158.59a8.53,8.53,0,0,0-.59,1.15c-.37.76,1.64,1.44,1.66,1.49S37.43,165,37.43,165Z"></path>
      <path class="cls-7" d="M35.06,167.12s2.9-1.77,2.53-3-.62-2.58-.62-2.58l-.68-.14s-1.67,1.85-1.67,2.38.08,1.49.06,1.72A11.53,11.53,0,0,0,35.06,167.12Z"></path>
      <path class="cls-8" d="M34.64,167.16c.31,0,1.09,0,1.06-.86a12.14,12.14,0,0,0-.19-1.64s-2.06-1.39-2.4-1.69-.41-.55-.36.65-.25,1.26.21,2.21A3.07,3.07,0,0,0,34.64,167.16Z"></path>
      <path class="cls-9" d="M35.51,164.66a15,15,0,0,0-1.81-.92c-.84-.33-1.07-.36-1-1.14s-.22-2.57.29-3.23.44-.63,1.41-.34a3.66,3.66,0,0,1,2.09,1.75,2,2,0,0,1,.27,2.36A5.23,5.23,0,0,1,35.51,164.66Z"></path>
      <path class="cls-10" d="M54.19,113.39l2.35.07a6.12,6.12,0,0,1,0,1.13,5,5,0,0,0,1.5,4.59c1.15,1.18,1.74,2.91,2.56,4.4a11,11,0,0,0,7.69,5.78c.37.08.76.12,1.11.23.16,0,.26.25.38.39-.17.14-.33.42-.5.42a9.18,9.18,0,0,1-6.05-2.12,8,8,0,0,0-5.17-1.87c-.5.57,0,1.06.19,1.54,1,3.46,2,6.89,3.06,10.34a8.5,8.5,0,0,1,.06,4.92c-.54-3.26-.94-6.54-2.4-9.55a23.43,23.43,0,0,0-1.79-3.41c-.75.08-.52.57-.56.88a34.53,34.53,0,0,1-2.41,9c-.06.15-.4.2-.61.29-.06-.17-.21-.37-.17-.51.36-1.47.74-2.94,1.13-4.4a21.39,21.39,0,0,0,.83-7c-.69,0-.82.52-1,.91a18.73,18.73,0,0,0-1.94,5.92.46.46,0,0,1-.34.25c-.17,0-.43-.21-.44-.32a13,13,0,0,1,.09-3.06,26.25,26.25,0,0,1,1.31-3.45c.54-1.42,1.1-2.82,1.56-4.27a2.5,2.5,0,0,0-.13-2.26,14.56,14.56,0,0,1-1.45,1.41,4.7,4.7,0,0,0-2.19,5.15c0,.13-.12.31-.22.52-1.37-.63-.58-2.07-1.09-3a70.54,70.54,0,0,0-8.38,4.11A8.22,8.22,0,0,0,38.46,134c-.06.12-.31.15-.48.22-.07-.17-.21-.35-.19-.51a5.2,5.2,0,0,1,1.56-3,15,15,0,0,1,4.19-2.89c2.16-1.19,4.28-2.45,6.45-3.61,3.16-1.7,4-4.54,4.19-7.85C54.22,115.42,53.66,114.4,54.19,113.39Zm2.51,6.49a6.33,6.33,0,0,0-.07,3.25A2.36,2.36,0,0,0,59,125.45a1.14,1.14,0,0,0,.77-.1c.12-.1.1-.52,0-.71-.66-1.24-1.34-2.47-2.06-3.68A7.86,7.86,0,0,0,56.7,119.88Z"></path>
      <polygon class="cls-11" points="0 96.33 56.89 120.1 108.59 98.17 56.89 79.94 0 96.33"></polygon>
      <path class="cls-12" d="M65.09,62.48c.28-.34.51-.82.87-1a8.4,8.4,0,0,1,5.49-1,29.23,29.23,0,0,1,5.42,1.65,5.93,5.93,0,0,1,2.77,2.76c.43.74.79,1.51,1.21,2.25a.75.75,0,0,0,1.36,0c.35-.55.61-1.16.94-1.73.87-1.46,1.6-1.78,3.31-1.34a17.55,17.55,0,0,1,9,6.11,4.27,4.27,0,0,1,.68,2.4,14.38,14.38,0,0,1-2.07,8.14A16.51,16.51,0,0,1,93,82.36c-1.42,1.86-3,3.63-2.55,6.55A56.87,56.87,0,0,0,79,83.05a23.22,23.22,0,0,1-8.72-5.7,10.86,10.86,0,0,1-3-8.58,7.62,7.62,0,0,1,3.79-6.3,8.64,8.64,0,0,0,.94-.64s0-.16,0-.25c-2.51-.54-3.59-.48-5.42.27-.51.21-1,.4-1.56.6Z"></path>
      <path class="cls-12" d="M53.13,41.94a5.74,5.74,0,0,1,1.07.8c.49.55.89,1.18,1.48,2,2.25-6.22,6.52-9.36,12.87-9.54a7.28,7.28,0,0,1,.39-2.14,4.55,4.55,0,0,1,1.5-1.67A15.18,15.18,0,0,1,80.18,29a.56.56,0,0,1,.45.84c-.25.58-.55,1.14-.89,1.84,1.05.36,2,.63,2.82,1a11.56,11.56,0,0,1,4.77,3c.88,1,.9,1.4.06,2.44-.29.37-.63.7-1,1.13.61,1.67,1.26,3.34,1.82,5a24.7,24.7,0,0,1,1.3,9c-.06,1.4-.32,1.91-1.85,1.54A50.2,50.2,0,0,1,80,52.34c-.69-.28-.94,0-.89.82,0,.18.09.37.11.55.07.61-.25.89-.81.87a29,29,0,0,1-8.39-1.3,23.47,23.47,0,0,1-3.37-1.82,1.39,1.39,0,0,0-.48.3c-1.1,1.33-1.39,1.37-2.27.18a11,11,0,0,1-2.25-5.46c-.41-4.14,1.47-7.11,4.87-9.26.45-.28.94-.49,1.83-1-4.69-.33-7.72,1.67-10,5a14.37,14.37,0,0,0-1.58,3.63,4.72,4.72,0,0,0,0,3.35,1.17,1.17,0,0,1,.1.26,29,29,0,0,0,3.69,9.46,33.56,33.56,0,0,1,2.13,5c.3.74.3.74,1.48.24a2.16,2.16,0,0,1,.27-.05l0,0a9.34,9.34,0,0,0-.69,5.46,15.34,15.34,0,0,1-.79,6.7c-.79,2.72-1.62,5.42-2.44,8.13a103.94,103.94,0,0,0-3.12,12.63c-.08.47-.25.91-.37,1.37l-2.35-.07c.53-3.17.88-6.38,2.13-9.39a3.39,3.39,0,0,0,.28-1.65,11.89,11.89,0,0,0-4.06-7.9,5.32,5.32,0,0,0-5.62-.77A5.43,5.43,0,0,0,43.88,82c-.27,1.85-.05,3.62,1.58,4.88a2.75,2.75,0,0,0,3.18.41,2.15,2.15,0,0,0,1.25-2.81c0-.13.1-.32.15-.49.19.17.5.3.55.5a3.15,3.15,0,0,1-3.81,3.86,5,5,0,0,1-3.72-4.51,6.73,6.73,0,0,1,7.87-7.35c.82.15,1.61.44,2.71.75a16,16,0,0,0-4-5.49c-1.71,1.75-3.34,3.44-5,5.11-.52.53-1,1.19-1.93.57-.16-.1-.68.18-.93.41A10.83,10.83,0,0,0,39,82.36c-.26.69-.49,1.39-.85,2.43A9.7,9.7,0,0,1,37.24,83c-.49-2.21-.93-4.44-1.35-6.67-.14-.75-.16-1.51-.3-2.25,0-.2-.38-.52-.48-.49-1,.33-1.21-.24-1-1A16.38,16.38,0,0,1,35,69.38a12.22,12.22,0,0,1,4-4.75c2.5-1.84,4.95-1,6,1.91.09.26.16.53.26.87.38,0,.75,0,1.12,0a2.65,2.65,0,0,1,2.87,1.83,6.21,6.21,0,0,0,1.2,1.88,31.76,31.76,0,0,1,7.22,12.11,3.18,3.18,0,0,0,.36.6,4.71,4.71,0,0,0,.64-.93c1-3,2-5.93,2.91-8.92a18.33,18.33,0,0,0-.28-11.46,23.21,23.21,0,0,0-1.93-4.42C57.55,55,55.52,52,53.57,49c-.43-.66-.89-.62-1.66-.43-3.76.9-5.84,3.28-6.65,7-.22,1-.39,1-1.36.92q-3.51-.45-7-.86a1.63,1.63,0,0,0-2,1.2,10.08,10.08,0,0,1-2.41,3.48c-1.85,1.95-3.58,3.95-3.74,6.83a.55.55,0,0,1-.87.34,23.77,23.77,0,0,1-2.68-2.91c-2.61-3.76-3.25-8-2.77-12.49a5,5,0,0,0-.25-2.74c-1.24-2.81-.55-5.4,1.36-7.66a10.88,10.88,0,0,1,7.75-3.72,27.38,27.38,0,0,1,7.92.52c1.51.32,1.51.31,1.82,2a8,8,0,0,0,.24.84,2.46,2.46,0,0,0,.78-.36,7.62,7.62,0,0,1,4.16-2.29.84.84,0,0,0,.43-1.47,21.61,21.61,0,0,0-1.94-1.62c1.26-1,1.26-1,.49-2.15-.43-1.49-.85-3-1.28-4.48,1.31-.62,1.31-.62,1.18-1.84a14,14,0,0,1,2-7.27,9.88,9.88,0,0,1,5.7-4.8c1.75-.57,3.52-.73,5.07.6a3,3,0,0,1,.94,3.31,1.77,1.77,0,0,1-1.67,1.29c-.79,0-1.54,0-1.7-1.05l0,.05c.37,0,.75.06,1.12.12A1.47,1.47,0,0,0,58,18.87a2,2,0,0,0-.15-2.13,3.44,3.44,0,0,0-3.79-1.32,9.41,9.41,0,0,0-6.18,4.64A16.56,16.56,0,0,0,46,31.6a41.83,41.83,0,0,0,1.84,5.65,3.22,3.22,0,0,0,1.93,1.94c.81.36,1.87.52,2.18,1.61h0c-.52-.18-1-.37-1.57-.52a.57.57,0,0,0-.49.13.53.53,0,0,0-.08.48q2.48,3.81,5,7.57c0,.06.31,0,.48-.05a4.69,4.69,0,0,0-.77-3.77c-.5-.89-1-1.8-1.43-2.7Zm-4.39-.35c0-.81-1.33-2.43-2.07-2.44a.86.86,0,0,0-.28,0,5.64,5.64,0,0,0-3.89,2.58.68.68,0,0,0,0,.54.55.55,0,0,0,.46.23,4.45,4.45,0,0,0,1.37-.27c1.3-.6,2.58-1.2,4-.41C48.39,41.87,48.6,41.68,48.74,41.59Z"></path>
      <path class="cls-13" d="M39.35,16.36a5.61,5.61,0,0,1,.78,3.81A2,2,0,0,1,38,22a7.87,7.87,0,0,1-2.52-.27c-2.42-.8-4.8-1.7-7.2-2.58a1.23,1.23,0,0,1-.9-1.3c.11-1.17-.57-1.7-1.51-2.1a13.43,13.43,0,0,0-4.94-1.17c-.94,0-1.88-.06-3-.11A11.78,11.78,0,0,1,20.41,7.9c.57-.76,1.25-1.42.79-2.52-.26-.63.21-1.08.66-1.44a7,7,0,0,1,5-1.6c.85.06,1.7.2,2.55.21,1.07,0,1.27-.2,1.62-1.46.24-.85.59-1.16,1.33-1.08,5,.55,8.07,4.88,7.8,8.61a6,6,0,0,1-1.89,4.29c-.31.32-.82.6-.89,1a1.8,1.8,0,0,0,.53,1.18A14.82,14.82,0,0,0,39.35,16.36Z"></path>
      <path class="cls-13" d="M60.39,5.32a9,9,0,0,1,.42-1.64,2.83,2.83,0,0,1,2.68-1.75A13.31,13.31,0,0,1,69.2,3.42c.15.07.35.31.32.42-.3,1.23.75,1.31,1.41,1.71s1.64,1,2.41,1.49a5.36,5.36,0,0,1,2.12,3.87c0,.28.05.74-.08.81-1.29.7-.64,1.82-.66,2.78a4.78,4.78,0,0,1-1.74,4c-.2-.15-.38-.21-.44-.33-1-2.06-1.41-2.31-3.47-1.79-1.48.36-2.91.86-4.43.22-.08,0-.21-.08-.27,0-1.82,1.13-2.78-.33-3.87-1.29-.71-.63-1.31-1.36-2-2a6.54,6.54,0,0,0-.71.54c-.33.33-.75.37-1,0a7.35,7.35,0,0,1-1.4-5.37A2.62,2.62,0,0,1,58.14,6C59,6.06,59.9,6.4,60.39,5.32Z"></path>
      <path class="cls-14" d="M60.39,5.32C59.9,6.4,59,6.06,58.14,6a1.63,1.63,0,0,0-1.28-1A10.22,10.22,0,0,0,47.41,8.3a14,14,0,0,0-2.74,4.57,21.72,21.72,0,0,0-1,9.73c.12,1.21.35,2.42.5,3.63a.92.92,0,0,0,.94.85c.13,1.22.13,1.22-1.18,1.84a15.17,15.17,0,0,1-1.13-4.3c-.43-2.5-.73-5-2.1-7.27a8.16,8.16,0,0,0-.82-1.11c-.06-.06-.33.07-.5.12a14.82,14.82,0,0,1-1.43-1.3,1.8,1.8,0,0,1-.53-1.18c.07-.37.58-.65.89-1,0,.18,0,.44.11.55,1.35,1.37,3,2.41,3.76,4.42l.51-.26c.08-.71.13-1.43.26-2.13a18.59,18.59,0,0,1,.58-2.19,13.64,13.64,0,0,1,5.36-7.45c3.21-2.1,6.59-2.73,10.19-1C59.48,5,59.94,5.16,60.39,5.32Z"></path>
      <path class="cls-15" d="M45.18,33.4c.77,1.15.77,1.15-.49,2.15a27.27,27.27,0,0,0-12.06-2.64A8.67,8.67,0,0,1,26.09,30a4.94,4.94,0,0,1-1.28-3.09,3.86,3.86,0,0,1,2.13-3.71,2.86,2.86,0,0,1,4.19.91,3,3,0,0,1-1,4,.53.53,0,0,1-.51-.06.48.48,0,0,1-.12-.46c.22-.3.56-.51.76-.82a1.64,1.64,0,0,0-.12-2.31,2.25,2.25,0,0,0-2.84-.29,3.39,3.39,0,0,0-.8,4.77,6.07,6.07,0,0,0,4.16,2.71,29.28,29.28,0,0,0,5.35.57,16.5,16.5,0,0,1,8.44,2C45.17,34.56,45,33.75,45.18,33.4Z"></path>
      <path class="cls-12" d="M55.41,19.16c-.79-.6-.8-1,0-1.67l0-.06c0,.59,0,1.19,0,1.78Z"></path>
      <path class="cls-12" d="M52,40.8a1,1,0,0,1,1.14,1.14h0A1,1,0,0,1,52,40.8Z"></path>
      <path class="cls-12" d="M56.55,17.44h-1.2l0,.06c.46-.68.69-.68,1.1,0Z"></path>
      <path class="cls-12" d="M56.5,17.49l.39.15-.24.22-.1-.42Z"></path>
      <path class="cls-12" d="M65.05,62.45q0,.6-.57.57l0,0q0-.61.57-.57Z"></path>
      <path class="cls-6" d="M53.44,106.07a1.6,1.6,0,0,0-1.51-.56c-.84.26-1.17.93-1,1.16a3,3,0,0,0,.31.32c.21.21.65-.38.67-.38S53.44,106.07,53.44,106.07Z"></path>
      <path class="cls-7" d="M53.87,107.08s-.26-1.14-.69-1.16-.91-.07-.91-.07l-.12.2s.42.75.59.81l.57.17A4.58,4.58,0,0,0,53.87,107.08Z"></path>
      <path class="cls-8" d="M53.84,107.22c0-.1.11-.36-.17-.44a4.41,4.41,0,0,0-.55-.12s-.69.52-.82.6-.23.07.17.19.39.22.75.18A1.08,1.08,0,0,0,53.84,107.22Z"></path>
      <path class="cls-9" d="M53.12,106.66a4.7,4.7,0,0,0-.5.49c-.2.24-.24.32-.48.19s-.87-.21-1-.45-.16-.21,0-.5a1.29,1.29,0,0,1,.81-.49.71.71,0,0,1,.8.17A1.94,1.94,0,0,1,53.12,106.66Z"></path>
      <path class="cls-6" d="M50,86.69a2.31,2.31,0,0,0-2.34-.33c-1.12.63-1.39,1.68-1.11,2a4.55,4.55,0,0,0,.54.36c.36.23.82-.74.85-.75Z"></path>
      <path class="cls-7" d="M50.93,88s-.72-1.56-1.34-1.45a13.37,13.37,0,0,1-1.34.17l-.11.33s.84,1,1.11,1,.75,0,.87.07A6.6,6.6,0,0,0,50.93,88Z"></path>
      <path class="cls-8" d="M50.93,88.22c0-.15,0-.55-.37-.58a6.74,6.74,0,0,0-.84,0s-.82,1-1,1.11-.3.18.31.22.62.2,1.12,0A1.52,1.52,0,0,0,50.93,88.22Z"></path>
      <path class="cls-9" d="M49.72,87.64a8.41,8.41,0,0,0-.57.86c-.21.4-.24.52-.62.42s-1.31,0-1.61-.33-.3-.26-.1-.74a1.85,1.85,0,0,1,1-.95,1,1,0,0,1,1.2,0A2.76,2.76,0,0,1,49.72,87.64Z"></path>
      <path class="cls-6" d="M45.37,93.8s-4.83-2.41-8.2.53-3.54,6.72-2.38,7.54a16.14,16.14,0,0,0,2.11.84c1.39.51,2.26-3.11,2.34-3.16S45.37,93.8,45.37,93.8Z"></path>
      <path class="cls-7" d="M49.49,97.61s-3.58-4.79-5.62-4-4.42,1.52-4.42,1.52l-.14,1.21s3.52,2.62,4.45,2.54,2.61-.38,3-.39A20.37,20.37,0,0,0,49.49,97.61Z"></path>
      <path class="cls-8" d="M49.63,98.34c-.05-.53-.25-1.9-1.69-1.71a19.91,19.91,0,0,0-2.84.6s-2.11,3.84-2.58,4.49-.9.81,1.19.53,2.27.22,3.86-.74A5.39,5.39,0,0,0,49.63,98.34Z"></path>
      <path class="cls-9" d="M45.1,97.23a23.82,23.82,0,0,0-1.32,3.33c-.44,1.52-.46,1.94-1.84,1.87s-4.48.82-5.72,0-1.18-.67-.83-2.43,1.15-2.59,2.73-4a3.59,3.59,0,0,1,4.09-.86A9.31,9.31,0,0,1,45.1,97.23Z"></path>
      <path class="cls-6" d="M62.05,94.82s-4-2.39-7.15,0-3.47,5.62-2.52,6.4a14.33,14.33,0,0,0,1.78.86c1.18.53,2.15-2.57,2.22-2.61S62.05,94.82,62.05,94.82Z"></path>
      <path class="cls-7" d="M65.4,98.37S62.58,94,60.76,94.6s-3.93,1.05-3.93,1.05l-.2,1s2.91,2.48,3.72,2.47S62.64,99,63,99A16.92,16.92,0,0,0,65.4,98.37Z"></path>
      <path class="cls-8" d="M65.47,99c0-.46-.09-1.67-1.36-1.59a19.16,19.16,0,0,0-2.5.35s-2.06,3.21-2.51,3.75-.83.64,1,.53,2,.33,3.4-.41A4.74,4.74,0,0,0,65.47,99Z"></path>
      <path class="cls-9" d="M61.61,97.77a21.16,21.16,0,0,0-1.35,2.82c-.47,1.29-.51,1.65-1.7,1.5s-3.94.44-5-.31-1-.66-.58-2.16,1.16-2.18,2.62-3.27a3.11,3.11,0,0,1,3.59-.5A8.08,8.08,0,0,1,61.61,97.77Z"></path>
      <path class="cls-6" d="M72.77,90.54s-4-3.08-7.62-1S60.7,95.06,61.61,96a15.68,15.68,0,0,0,1.79,1.16c1.18.72,2.63-2.45,2.71-2.48S72.77,90.54,72.77,90.54Z"></path>
      <path class="cls-7" d="M75.85,94.77s-2.41-5-4.43-4.64a43.71,43.71,0,0,1-4.33.6l-.35,1.09s2.76,3,3.63,3.13,2.46.12,2.84.19A19.45,19.45,0,0,0,75.85,94.77Z"></path>
      <path class="cls-8" d="M75.85,95.47c.05-.5.12-1.79-1.24-1.88a19.2,19.2,0,0,0-2.71,0s-2.63,3.14-3.18,3.66-1,.57,1,.7,2,.61,3.67,0A5.1,5.1,0,0,0,75.85,95.47Z"></path>
      <path class="cls-9" d="M71.9,93.63a22.4,22.4,0,0,0-1.81,2.82c-.68,1.31-.77,1.69-2,1.38s-4.26-.06-5.25-1-1-.82-.33-2.38,1.53-2.16,3.23-3.13a3.35,3.35,0,0,1,3.9,0A8.73,8.73,0,0,1,71.9,93.63Z"></path>
      <path class="cls-6" d="M75.86,103.44a2.41,2.41,0,0,0,2.21-1.09c.6-1.21.21-2.27-.2-2.37a5.5,5.5,0,0,0-.69,0c-.44,0-.26,1.13-.28,1.15S75.86,103.44,75.86,103.44Z"></path>
      <path class="cls-7" d="M74.28,102.86s1.55.92,2,.45a13.4,13.4,0,0,1,1.06-.93l-.11-.36a4.93,4.93,0,0,0-1.53-.19c-.25.13-.68.41-.79.46A6.77,6.77,0,0,0,74.28,102.86Z"></path>
      <path class="cls-8" d="M74.16,102.68c.07.14.28.5.66.28a6.12,6.12,0,0,0,.72-.5s.14-1.31.2-1.54.16-.33-.4,0-.65.2-1,.65A1.62,1.62,0,0,0,74.16,102.68Z"></path>
      <path class="cls-9" d="M75.54,102.46a6.77,6.77,0,0,0,0-1.08c0-.47-.1-.59.3-.73S77,99.91,77.4,100s.4,0,.51.58a1.94,1.94,0,0,1-.3,1.42,1.08,1.08,0,0,1-1,.71A2.73,2.73,0,0,1,75.54,102.46Z"></path>
      <path class="cls-6" d="M37.87,104.3s2.05.28,2.91-1.2.46-2.87-.06-3a5.38,5.38,0,0,0-.87,0c-.57,0-.44,1.4-.46,1.43S37.87,104.3,37.87,104.3Z"></path>
      <path class="cls-7" d="M35.9,103.42s1.89,1.3,2.53.75a17.13,17.13,0,0,1,1.42-1.09l-.1-.46a6.37,6.37,0,0,0-1.93-.38c-.33.14-.9.46-1,.51A7.67,7.67,0,0,0,35.9,103.42Z"></path>
      <path class="cls-8" d="M35.76,103.17c.09.19.33.67.83.42a6.85,6.85,0,0,0,.95-.57s.3-1.65.39-2,.23-.4-.5,0-.85.2-1.31.74A2.07,2.07,0,0,0,35.76,103.17Z"></path>
      <path class="cls-9" d="M37.54,103a10.07,10.07,0,0,0,.08-1.37c0-.61-.08-.76.43-.9s1.53-.85,2.08-.72.51.1.6.78a2.46,2.46,0,0,1-.51,1.78,1.38,1.38,0,0,1-1.38.81A3.51,3.51,0,0,1,37.54,103Z"></path>
      <path class="cls-6" d="M51.23,96.67A1.78,1.78,0,0,0,53,97c.88-.46,1.12-1.27.91-1.51-.06-.06-.28-.2-.41-.29-.28-.18-.66.56-.68.56Z"></path>
      <path class="cls-7" d="M50.54,95.64s.52,1.22,1,1.15a9.42,9.42,0,0,1,1-.1l.09-.26s-.62-.75-.83-.78-.58-.05-.67-.07A4.65,4.65,0,0,0,50.54,95.64Z"></path>
      <path class="cls-8" d="M50.54,95.47c0,.12,0,.43.28.46a6,6,0,0,0,.65,0s.65-.72.79-.84.24-.13-.23-.18-.48-.16-.88,0A1.24,1.24,0,0,0,50.54,95.47Z"></path>
      <path class="cls-9" d="M51.47,96a6,6,0,0,0,.45-.65c.18-.31.2-.4.5-.31s1,.05,1.24.29.22.21.05.57a1.39,1.39,0,0,1-.8.71.8.8,0,0,1-.93,0A2.15,2.15,0,0,1,51.47,96Z"></path>
      <path class="cls-6" d="M67.47,103.54s4.54,1.1,6.81-2,1.69-6.34.56-6.8a12.94,12.94,0,0,0-1.94-.31c-1.27-.16-1.31,3.06-1.36,3.12S67.47,103.54,67.47,103.54Z"></path>
      <path class="cls-7" d="M63.27,101.12s3.94,3.35,5.5,2.25,3.43-2.13,3.43-2.13l-.12-1s-3.47-1.53-4.24-1.28-2.12.82-2.47.9A19.53,19.53,0,0,0,63.27,101.12Z"></path>
      <path class="cls-8" d="M63,100.53c.14.44.57,1.56,1.75,1.12A17.56,17.56,0,0,0,67,100.6s1-3.64,1.31-4.29.61-.85-1.11-.21-1.95.25-3.1,1.36A4.67,4.67,0,0,0,63,100.53Z"></path>
      <path class="cls-9" d="M67,100.6a20.78,20.78,0,0,0,.47-3.07c.08-1.36,0-1.72,1.19-1.92s3.62-1.55,4.82-1.13,1.12.34,1.17,1.89-.47,2.41-1.55,3.86a3.09,3.09,0,0,1-3.28,1.51A8,8,0,0,1,67,100.6Z"></path>
      <path class="cls-6" d="M46.57,100.92s2.72,1.53,4.75-.07,2.24-3.78,1.59-4.29A9.3,9.3,0,0,0,51.72,96c-.79-.33-1.39,1.74-1.44,1.77S46.57,100.92,46.57,100.92Z"></path>
      <path class="cls-7" d="M44.3,98.6s1.93,2.87,3.13,2.45,2.6-.76,2.6-.76l.12-.7S48.18,98,47.64,98s-1.51.15-1.75.14A11.86,11.86,0,0,0,44.3,98.6Z"></path>
      <path class="cls-8" d="M44.24,98.18c0,.3.09,1.1.93,1a11,11,0,0,0,1.66-.27s1.32-2.15,1.61-2.52.55-.43-.67-.34-1.3-.19-2.25.32A3.18,3.18,0,0,0,44.24,98.18Z"></path>
      <path class="cls-9" d="M46.83,98.94a14.08,14.08,0,0,0,.85-1.88c.3-.87.32-1.11,1.12-1s2.61-.34,3.3.15.66.42.42,1.43a3.71,3.71,0,0,1-1.7,2.2,2.05,2.05,0,0,1-2.38.38A5.18,5.18,0,0,1,46.83,98.94Z"></path>
    </g>
  </g>
</svg>
