<?xml version="1.0" encoding="UTF-8"?>
<svg xmlns="http://www.w3.org/2000/svg" xmlns:xlink="http://www.w3.org/1999/xlink" viewBox="0 0 152.93 430.56">
  <defs>
    <style>.cls-1{fill:none;}.cls-2{fill:#8e6848;}.cls-3{clip-path:url(#clip-path);}.cls-4{fill:url(#Безымянный_градиент_2);}.cls-5{fill:#713e21;}.cls-6{fill:#3d271f;}.cls-7{fill:#69391e;}.cls-8{fill:#6b472f;}.cls-9{fill:#5c3624;}.cls-10{fill:#795135;}.cls-11{fill:#9a734f;}.cls-12{fill:#f9dec0;}.cls-13{fill:#85563a;}.cls-14{fill:#efdfc3;}.cls-15{fill:url(#Безымянный_градиент_9);}.cls-16{fill:url(#Безымянный_градиент_33);}.cls-17{fill:url(#Безымянный_градиент_18);}.cls-18{fill:url(#Безымянный_градиент_33-2);}.cls-19{fill:url(#Безымянный_градиент_9-2);}.cls-20{fill:url(#Безымянный_градиент_32);}.cls-21{fill:url(#Безымянный_градиент_9-3);}.cls-22{fill:url(#Безымянный_градиент_31);}.cls-23{fill:url(#Безымянный_градиент_9-4);}.cls-24{fill:url(#Безымянный_градиент_31-2);}.cls-25{fill:url(#Безымянный_градиент_16);}.cls-26{fill:url(#Безымянный_градиент_31-3);}.cls-27{fill:url(#Безымянный_градиент_16-2);}.cls-28{fill:url(#Безымянный_градиент_31-4);}.cls-29{opacity:0.47;}.cls-30{fill:#93793d;}.cls-31{fill:url(#Безымянный_градиент_39);}.cls-32{fill:url(#Безымянный_градиент_34);}.cls-33{fill:url(#Безымянный_градиент_31-5);}.cls-34{fill:url(#Безымянный_градиент_34-2);}.cls-35{fill:url(#Безымянный_градиент_31-6);}.cls-36{fill:url(#Безымянный_градиент_34-3);}.cls-37{fill:url(#Безымянный_градиент_37);}.cls-38{fill:url(#Безымянный_градиент_34-4);}.cls-39{fill:url(#Безымянный_градиент_37-2);}.cls-40{fill:url(#Безымянный_градиент_34-5);}.cls-41{fill:url(#Безымянный_градиент_37-3);}.cls-42{fill:url(#Безымянный_градиент_34-6);}.cls-43{fill:url(#Безымянный_градиент_37-4);}.cls-44{fill:url(#Безымянный_градиент_34-7);}.cls-45{fill:url(#Безымянный_градиент_37-5);}.cls-46{fill:url(#Безымянный_градиент_34-8);}.cls-47{fill:url(#Безымянный_градиент_33-3);}.cls-48{fill:url(#Безымянный_градиент_9-5);}.cls-49{fill:url(#Безымянный_градиент_33-4);}.cls-50{fill:url(#Безымянный_градиент_18-2);}.cls-51{fill:url(#Безымянный_градиент_33-5);}.cls-52{fill:url(#Безымянный_градиент_9-6);}.cls-53{fill:url(#Безымянный_градиент_32-2);}.cls-54{fill:url(#Безымянный_градиент_9-7);}.cls-55{fill:url(#Безымянный_градиент_31-7);}.cls-56{fill:url(#Безымянный_градиент_9-8);}.cls-57{fill:url(#Безымянный_градиент_31-8);}.cls-58{fill:url(#Безымянный_градиент_16-3);}.cls-59{fill:url(#Безымянный_градиент_31-9);}.cls-60{fill:url(#Безымянный_градиент_16-4);}.cls-61{fill:url(#Безымянный_градиент_31-10);}.cls-62{fill:#a88e2f;}.cls-63{fill:#cdaa39;}.cls-64{fill:url(#Безымянный_градиент_41);}.cls-65{fill:url(#Безымянный_градиент_40);}.cls-66{fill:#6b482f;}</style>
    <clipPath id="clip-path">
      <polygon class="cls-1" points="10.73 390.74 80.12 423.4 144.32 390.89 77.58 362.62 10.73 390.74"></polygon>
    </clipPath>
    <linearGradient id="Безымянный_градиент_2" x1="-1614.75" y1="-2759.04" x2="-1610.86" y2="-2759.04" gradientTransform="matrix(34.36, 0, 0, -34.36, 55470.98, -94397.85)" gradientUnits="userSpaceOnUse">
      <stop offset="0" stop-color="#9b714e"></stop>
      <stop offset="0.38" stop-color="#9b714e"></stop>
      <stop offset="0.89" stop-color="#764528"></stop>
      <stop offset="1" stop-color="#6e3c20"></stop>
    </linearGradient>
    <radialGradient id="Безымянный_градиент_9" cx="-3095.91" cy="-2567.6" r="7.43" gradientTransform="translate(3074.5 -2644.86) rotate(-81.66)" gradientUnits="userSpaceOnUse">
      <stop offset="0" stop-color="#a46024"></stop>
      <stop offset="0.45" stop-color="#d2a146"></stop>
      <stop offset="0.7" stop-color="#f9f2d7"></stop>
    </radialGradient>
    <radialGradient id="Безымянный_градиент_33" cx="-3092.72" cy="-2567.11" r="5.57" gradientTransform="matrix(0.28, -0.96, 0.36, 0.1, 1870.23, -2663.47)" gradientUnits="userSpaceOnUse">
      <stop offset="0.19" stop-color="#f9f2d7"></stop>
      <stop offset="0.25" stop-color="#f8f0d3" stop-opacity="0.96"></stop>
      <stop offset="0.34" stop-color="#f5e9c6" stop-opacity="0.87"></stop>
      <stop offset="0.45" stop-color="#f0dfb3" stop-opacity="0.71"></stop>
      <stop offset="0.58" stop-color="#e9d097" stop-opacity="0.5"></stop>
      <stop offset="0.73" stop-color="#e1be74" stop-opacity="0.22"></stop>
      <stop offset="0.84" stop-color="#daaf58" stop-opacity="0"></stop>
    </radialGradient>
    <radialGradient id="Безымянный_градиент_18" cx="-2720.81" cy="-1505.29" r="6.05" gradientTransform="matrix(0.48, -0.88, 0.88, 0.48, 2713.15, -1613.05)" gradientUnits="userSpaceOnUse">
      <stop offset="0" stop-color="#a46024"></stop>
      <stop offset="0.45" stop-color="#d2a146"></stop>
      <stop offset="0.88" stop-color="#f9f2d7"></stop>
    </radialGradient>
    <radialGradient id="Безымянный_градиент_33-2" cx="-2717.38" cy="-1504.97" r="6.05" gradientTransform="matrix(0.58, -0.81, 0.29, 0.21, 2111.11, -1845.74)" xlink:href="#Безымянный_градиент_33"></radialGradient>
    <radialGradient id="Безымянный_градиент_9-2" cx="-2564.54" cy="-1266.81" fx="-2572.955533737757" r="8.42" gradientTransform="translate(2557.53 -1385.52) rotate(-56.55)" xlink:href="#Безымянный_градиент_9"></radialGradient>
    <radialGradient id="Безымянный_градиент_32" cx="-2562.99" cy="-1267.3" r="8.42" gradientTransform="matrix(0.55, -0.83, 0.3, 0.2, 1882.91, -1831.2)" gradientUnits="userSpaceOnUse">
      <stop offset="0.19" stop-color="#f9f2d7"></stop>
      <stop offset="0.23" stop-color="#f8f0d3" stop-opacity="0.96"></stop>
      <stop offset="0.28" stop-color="#f5e9c6" stop-opacity="0.87"></stop>
      <stop offset="0.36" stop-color="#f0dfb3" stop-opacity="0.71"></stop>
      <stop offset="0.44" stop-color="#e9d097" stop-opacity="0.5"></stop>
      <stop offset="0.54" stop-color="#e1be74" stop-opacity="0.22"></stop>
      <stop offset="0.61" stop-color="#daaf58" stop-opacity="0"></stop>
    </radialGradient>
    <radialGradient id="Безымянный_градиент_9-3" cx="-2297.35" cy="-1168.67" r="10.17" gradientTransform="matrix(0.65, -0.79, 0.84, 0.7, 2567.72, -926.77)" xlink:href="#Безымянный_градиент_9"></radialGradient>
    <radialGradient id="Безымянный_градиент_31" cx="-2293.75" cy="-1169.57" r="4.47" gradientTransform="matrix(0.55, -0.86, 0.5, 0.33, 1940.88, -1522.71)" gradientUnits="userSpaceOnUse">
      <stop offset="0.19" stop-color="#f9f2d7"></stop>
      <stop offset="0.26" stop-color="#f8f0d3" stop-opacity="0.96"></stop>
      <stop offset="0.37" stop-color="#f5e9c6" stop-opacity="0.87"></stop>
      <stop offset="0.52" stop-color="#f0dfb3" stop-opacity="0.71"></stop>
      <stop offset="0.68" stop-color="#e9d097" stop-opacity="0.5"></stop>
      <stop offset="0.86" stop-color="#e1be74" stop-opacity="0.22"></stop>
      <stop offset="1" stop-color="#daaf58" stop-opacity="0"></stop>
    </radialGradient>
    <radialGradient id="Безымянный_градиент_9-4" cx="-2124.64" cy="-761.7" r="11.75" gradientTransform="translate(2130.93 -879.51) rotate(-44.72)" xlink:href="#Безымянный_градиент_9"></radialGradient>
    <radialGradient id="Безымянный_градиент_31-2" cx="-2120.39" cy="-763.34" r="4.3" gradientTransform="translate(1549.3 -1509.15) rotate(-57.07) scale(1 0.48)" xlink:href="#Безымянный_градиент_31"></radialGradient>
    <radialGradient id="Безымянный_градиент_16" cx="-1660.64" cy="-399.1" r="13.09" gradientTransform="matrix(0.83, -0.56, 0.56, 0.83, 1682.15, -520.1)" gradientUnits="userSpaceOnUse">
      <stop offset="0" stop-color="#a46024"></stop>
      <stop offset="0.33" stop-color="#d2a146"></stop>
      <stop offset="0.7" stop-color="#f9f2d7"></stop>
    </radialGradient>
    <radialGradient id="Безымянный_градиент_31-3" cx="-1655.9" cy="-401.8" r="3.06" gradientTransform="translate(1239.57 -1135.22) rotate(-54.99) scale(1 0.62)" xlink:href="#Безымянный_градиент_31"></radialGradient>
    <radialGradient id="Безымянный_градиент_16-2" cx="-1665.52" cy="-391.93" r="13.09" xlink:href="#Безымянный_градиент_16"></radialGradient>
    <radialGradient id="Безымянный_градиент_31-4" cx="-1660.79" cy="-394.62" r="3.06" gradientTransform="translate(1238.76 -1133.07) rotate(-54.99) scale(1 0.62)" xlink:href="#Безымянный_градиент_31"></radialGradient>
    <linearGradient id="Безымянный_градиент_39" x1="83.89" y1="168.01" x2="86.83" y2="168.01" gradientUnits="userSpaceOnUse">
      <stop offset="0.2" stop-color="#a46024"></stop>
      <stop offset="0.43" stop-color="#d2a146"></stop>
      <stop offset="0.7" stop-color="#f9f2d7"></stop>
    </linearGradient>
    <linearGradient id="Безымянный_градиент_34" x1="-2687.29" y1="-1373.52" x2="-2682.97" y2="-1388.37" gradientTransform="translate(2641.04 -1558.19) rotate(-59.25)" xlink:href="#Безымянный_градиент_9"></linearGradient>
    <radialGradient id="Безымянный_градиент_31-5" cx="-2684.08" cy="-1381.88" r="3.71" gradientTransform="matrix(-0.46, -0.89, 0.49, -0.25, -478.33, -2690.36)" xlink:href="#Безымянный_градиент_31"></radialGradient>
    <linearGradient id="Безымянный_градиент_34-2" x1="-2474.57" y1="-1064.03" x2="-2470.54" y2="-1076.81" gradientTransform="translate(2432.13 -1266.29) rotate(-52.65)" xlink:href="#Безымянный_градиент_9"></linearGradient>
    <radialGradient id="Безымянный_градиент_31-6" cx="-2471.89" cy="-1071.99" r="4.11" gradientTransform="matrix(-0.42, -0.91, 0.41, -0.19, -510.48, -2401.17)" xlink:href="#Безымянный_градиент_31"></radialGradient>
    <linearGradient id="Безымянный_градиент_34-3" x1="-2148.22" y1="-753.6" x2="-2144.15" y2="-767.48" gradientTransform="translate(2141.52 -911.92) rotate(-44.64)" xlink:href="#Безымянный_градиент_9"></linearGradient>
    <radialGradient id="Безымянный_градиент_37" cx="-2146.62" cy="-759.53" r="4.72" gradientTransform="matrix(-0.45, -0.9, 0.48, -0.24, -513.14, -2046)" gradientUnits="userSpaceOnUse">
      <stop offset="0.19" stop-color="#f9f2d7"></stop>
      <stop offset="0.25" stop-color="#f8f0d3" stop-opacity="0.96"></stop>
      <stop offset="0.34" stop-color="#f5e9c6" stop-opacity="0.87"></stop>
      <stop offset="0.46" stop-color="#f0dfb3" stop-opacity="0.71"></stop>
      <stop offset="0.59" stop-color="#e9d097" stop-opacity="0.5"></stop>
      <stop offset="0.74" stop-color="#e1be74" stop-opacity="0.22"></stop>
      <stop offset="0.86" stop-color="#daaf58" stop-opacity="0"></stop>
    </radialGradient>
    <linearGradient id="Безымянный_градиент_34-4" x1="-1551.71" y1="-306.88" x2="-1548.28" y2="-320.63" gradientTransform="matrix(0.85, -0.52, 0.52, 0.85, 1568.09, -474.46)" xlink:href="#Безымянный_градиент_9"></linearGradient>
    <radialGradient id="Безымянный_градиент_37-2" cx="-1550.1" cy="-315.15" r="4.47" gradientTransform="matrix(-0.49, -0.87, 0.5, -0.28, -517.15, -1378.99)" xlink:href="#Безымянный_градиент_37"></radialGradient>
    <linearGradient id="Безымянный_градиент_34-5" x1="-1174.86" y1="-131.68" x2="-1179.02" y2="-147.45" gradientTransform="matrix(0.92, -0.4, 0.4, 0.92, 1214.16, -274.26)" xlink:href="#Безымянный_градиент_9"></linearGradient>
    <radialGradient id="Безымянный_градиент_37-3" cx="-1177" cy="-141.39" r="4.6" gradientTransform="matrix(-0.49, -0.87, 0.44, -0.24, -431.06, -992.14)" xlink:href="#Безымянный_градиент_37"></radialGradient>
    <linearGradient id="Безымянный_градиент_34-6" x1="-559.2" y1="43.58" x2="-564.35" y2="27.49" gradientTransform="matrix(0.98, -0.21, 0.21, 0.98, 622.1, -72.69)" xlink:href="#Безымянный_градиент_9"></linearGradient>
    <radialGradient id="Безымянный_градиент_37-4" cx="-561.43" cy="36.33" r="4.31" gradientTransform="translate(-206.4 -403.71) rotate(-118.26) scale(1 0.66)" xlink:href="#Безымянный_градиент_37"></radialGradient>
    <linearGradient id="Безымянный_градиент_34-7" x1="-727.37" y1="89.26" x2="-733.78" y2="75.17" gradientTransform="matrix(0.7, -0.14, 0.19, 0.97, 573.23, -92.48)" xlink:href="#Безымянный_градиент_9"></linearGradient>
    <radialGradient id="Безымянный_градиент_37-5" cx="-731.37" cy="81.34" r="5.02" gradientTransform="matrix(-0.46, -0.83, 0.39, -0.36, -284.18, -492.7)" xlink:href="#Безымянный_градиент_37"></radialGradient>
    <linearGradient id="Безымянный_градиент_34-8" x1="-3033.87" y1="-2092.59" x2="-3023.2" y2="-2095.41" gradientTransform="matrix(0.29, -0.96, 0.96, 0.29, 2961.71, -2260.69)" xlink:href="#Безымянный_градиент_9"></linearGradient>
    <radialGradient id="Безымянный_градиент_33-3" cx="-3027.06" cy="-2094.68" r="3.79" gradientTransform="matrix(-0.07, -1, 0.58, -0.04, 1073.3, -3070.01)" xlink:href="#Безымянный_градиент_33"></radialGradient>
    <radialGradient id="Безымянный_градиент_9-5" cx="-3096.28" cy="-2566.11" r="7.43" xlink:href="#Безымянный_градиент_9"></radialGradient>
    <radialGradient id="Безымянный_градиент_33-4" cx="-3093.1" cy="-2565.62" r="5.57" gradientTransform="matrix(0.28, -0.96, 0.36, 0.1, 1871.21, -2663.4)" xlink:href="#Безымянный_градиент_33"></radialGradient>
    <radialGradient id="Безымянный_градиент_18-2" cx="-2720.64" cy="-1503.76" r="6.05" xlink:href="#Безымянный_градиент_18"></radialGradient>
    <radialGradient id="Безымянный_градиент_33-5" cx="-2717.21" cy="-1503.44" r="6.05" gradientTransform="matrix(0.58, -0.81, 0.29, 0.21, 2111.99, -1845.34)" xlink:href="#Безымянный_градиент_33"></radialGradient>
    <radialGradient id="Безымянный_градиент_9-6" cx="-2564.24" cy="-1265.3" fx="-2572.6602637571355" r="8.42" gradientTransform="translate(2557.53 -1385.52) rotate(-56.55)" xlink:href="#Безымянный_градиент_9"></radialGradient>
    <radialGradient id="Безымянный_градиент_32-2" cx="-2562.69" cy="-1265.79" r="8.42" gradientTransform="matrix(0.55, -0.83, 0.3, 0.2, 1883.71, -1830.66)" xlink:href="#Безымянный_градиент_32"></radialGradient>
    <radialGradient id="Безымянный_градиент_9-7" cx="-2296.9" cy="-1167.33" r="10.17" gradientTransform="matrix(0.65, -0.79, 0.84, 0.7, 2567.72, -926.77)" xlink:href="#Безымянный_градиент_9"></radialGradient>
    <radialGradient id="Безымянный_градиент_31-7" cx="-2293.31" cy="-1168.23" r="4.47" gradientTransform="matrix(0.55, -0.86, 0.5, 0.33, 1941.39, -1522.18)" xlink:href="#Безымянный_градиент_31"></radialGradient>
    <radialGradient id="Безымянный_градиент_9-8" cx="-2124.04" cy="-760.29" r="11.75" gradientTransform="translate(2130.93 -879.51) rotate(-44.72)" xlink:href="#Безымянный_градиент_9"></radialGradient>
    <radialGradient id="Безымянный_градиент_31-8" cx="-2119.79" cy="-761.92" r="4.3" gradientTransform="translate(1549.82 -1508.44) rotate(-57.07) scale(1 0.48)" xlink:href="#Безымянный_градиент_31"></radialGradient>
    <radialGradient id="Безымянный_градиент_16-3" cx="-1659.79" cy="-397.82" r="13.09" xlink:href="#Безымянный_градиент_16"></radialGradient>
    <radialGradient id="Безымянный_градиент_31-9" cx="-1655.06" cy="-400.51" r="3.06" gradientTransform="translate(1239.86 -1134.39) rotate(-54.99) scale(1 0.62)" xlink:href="#Безымянный_градиент_31"></radialGradient>
    <radialGradient id="Безымянный_градиент_16-4" cx="-1664.68" cy="-390.64" r="13.09" xlink:href="#Безымянный_градиент_16"></radialGradient>
    <radialGradient id="Безымянный_градиент_31-10" cx="-1659.94" cy="-393.34" r="3.06" gradientTransform="translate(1239.05 -1132.25) rotate(-54.99) scale(1 0.62)" xlink:href="#Безымянный_градиент_31"></radialGradient>
    <linearGradient id="Безымянный_градиент_41" x1="83.06" y1="206.43" x2="87.34" y2="206.36" gradientUnits="userSpaceOnUse">
      <stop offset="0.18" stop-color="#a46024"></stop>
      <stop offset="0.55" stop-color="#d2a146"></stop>
      <stop offset="0.86" stop-color="#f9f2d7"></stop>
    </linearGradient>
    <linearGradient id="Безымянный_градиент_40" x1="80.49" y1="263.5" x2="94.8" y2="262.77" gradientUnits="userSpaceOnUse">
      <stop offset="0.18" stop-color="#a46024"></stop>
      <stop offset="0.43" stop-color="#d2a146"></stop>
      <stop offset="0.7" stop-color="#f9f2d7"></stop>
    </linearGradient>
  </defs>
  <g id="Слой_2" data-name="Слой 2">
    <g id="Слой_1-2" data-name="Слой 1">
      <path class="cls-2" d="M80.12,331.52s13.37,15.69,23.69,16.34,45.57-10.51,45.57-10.51l3.55-36.71L80.12,275Z"></path>
      <path class="cls-2" d="M0,298l7.26,47.88s25.81,3.87,30.32,2.59,25.16-9,31-9,11.57-8,11.57-8V275Z"></path>
      <g class="cls-3">
        <rect class="cls-4" x="43.59" y="324.68" width="67.87" height="136.66" transform="translate(-319.08 449.32) rotate(-86.92)"></rect>
      </g>
      <path class="cls-5" d="M10.73,390.73,7.26,345.92s32.9-.64,41.94-5.16,30.92-9.24,30.92-9.24l-2.54,31.1Z"></path>
      <path class="cls-6" d="M57.62,348.71a11.57,11.57,0,0,0-3.94-2.32l0,0s-5.25-1.57-8.12,2-2.37,7.35-1.07,8a15.33,15.33,0,0,0,2.27.48l.12-.06c1.52,0,3.71-1,4.88-1.1a2.72,2.72,0,0,0,.84-.22c.23-.06.49-.13.9-.27,2.06-.63,2.31-.17,3.73-1.41a5.54,5.54,0,0,0,1.51-3.54l-.29-.69h0l-.06,0a1.35,1.35,0,0,0-.81-.7"></path>
      <path class="cls-6" d="M29.45,353.33a15,15,0,0,0-5.58,1.84v0s-6,3.74-5,9.5,5.07,8.52,6.77,7.78A19.33,19.33,0,0,0,28,370.63l0-.18c1.28-1.46,2.22-4.39,3.07-5.63a2.91,2.91,0,0,0,.49-1c.15-.28.29-.59.52-1.1,1.12-2.52,1.78-2.37,1.8-4.8s-2.14-4.45-2.14-4.45a5,5,0,0,0-.91-.31v0l-.1,0a1.73,1.73,0,0,0-1.36.19"></path>
      <path class="cls-7" d="M80.12,331.52l-2.54,31.09,66.74,28.29,5.06-53.55s-20.81-2.4-29.84-1.11-24.76,5.16-29.49,2.59a62.58,62.58,0,0,1-9.93-7.31"></path>
      <path class="cls-6" d="M54.7,363.47A4.38,4.38,0,0,0,53,363h0s-2.15,0-2.83,1.64-.07,3,.49,3.11l.9-.08,0,0a16.6,16.6,0,0,0,1.71-1l.28-.18.32-.2c.7-.47.84-.33,1.24-.95a2.12,2.12,0,0,0,.17-1.49l-.18-.23h0Z"></path>
      <path class="cls-6" d="M120.09,350.08a3.13,3.13,0,0,0-.15-1.24h0s-.53-1.4-1.77-1.43-2,.7-1.9,1.08l.28.57,0,0,1,.88.19.14.2.15c.48.34.42.47.93.57a1.5,1.5,0,0,0,1-.25l.1-.18h0v0Z"></path>
      <path class="cls-6" d="M138.73,372.56a15.24,15.24,0,0,0-2.64-5.3l0,0s-4.6-5.42-10.21-3.6-7.77,6.3-6.79,7.89a20.94,20.94,0,0,0,2.12,2.12l.19,0c1.65,1.06,4.71,1.57,6.07,2.24a3.51,3.51,0,0,0,1.07.36c.3.1.62.2,1.16.35,2.69.76,2.64,1.44,5.06,1.1s4.14-2.78,4.14-2.78a5.33,5.33,0,0,0,.18-1h0l0-.1a1.78,1.78,0,0,0-.39-1.33"></path>
      <path class="cls-6" d="M102.46,354.11a11.59,11.59,0,0,0-2.59,3.73l0,0s-1.95,5.09,1.34,8.19,7.1,2.9,7.81,1.66a16.07,16.07,0,0,0,.63-2.21l0-.13c.1-1.5-.67-3.75-.72-4.91a2.73,2.73,0,0,0-.16-.85c0-.23-.1-.49-.19-.91-.48-2.08,0-2.3-1.13-3.81a5.5,5.5,0,0,0-3.39-1.75l-.71.23v0l-.06.06a1.32,1.32,0,0,0-.75.75"></path>
      <path class="cls-8" d="M102.72,392.13a2.19,2.19,0,0,0,2.17-.58c.75-1,.6-2,.25-2.14l-.62-.12c-.4-.07-.44,1-.46,1Z"></path>
      <path class="cls-9" d="M101.41,391.33s1.21,1.09,1.72.76,1.11-.64,1.11-.64l0-.34-1.33-.44-.79.26Z"></path>
      <path class="cls-10" d="M101.33,391.14c0,.14.17.49.55.37a6.22,6.22,0,0,0,.73-.32l.45-1.34c.09-.2.2-.26-.35-.08s-.62.06-1,.41a1.46,1.46,0,0,0-.39,1"></path>
      <path class="cls-11" d="M102.61,391.19a7.11,7.11,0,0,0,.18-1c0-.43,0-.55.39-.6s1.17-.46,1.54-.31.35.12.35.61a1.74,1.74,0,0,1-.53,1.21,1,1,0,0,1-1.05.45,2.58,2.58,0,0,1-.88-.4"></path>
      <path class="cls-8" d="M87.88,383.62s3.32.18,4.51-2.32.35-4.66-.5-4.84a8.86,8.86,0,0,0-1.41,0c-.91.05-.51,2.32-.54,2.36Z"></path>
      <path class="cls-9" d="M84.62,382.48s3.2,1.83,4.14.85,2.13-1.94,2.13-1.94l-.22-.72s-2.63-.62-3.14-.35-1.39.86-1.61,1Z"></path>
      <path class="cls-10" d="M84.36,382.1c.15.29.6,1,1.37.55a12.8,12.8,0,0,0,1.46-1s.25-2.68.36-3.17.31-.68-.81,0-1.33.43-2,1.36a3.35,3.35,0,0,0-.38,2.3"></path>
      <path class="cls-11" d="M87.19,381.61a14.52,14.52,0,0,0-.07-2.2c-.13-1-.22-1.22.58-1.51s2.33-1.56,3.23-1.42.83.09,1.07,1.17a4,4,0,0,1-.58,2.91,2.2,2.2,0,0,1-2.1,1.48,5.59,5.59,0,0,1-2.13-.43"></path>
      <path class="cls-8" d="M74.05,394.41s2.59,2,4.91.6,2.84-3.59,2.25-4.2a8.7,8.7,0,0,0-1.15-.73c-.77-.46-1.69,1.59-1.74,1.61Z"></path>
      <path class="cls-9" d="M72,391.7s1.59,3.23,2.89,3a26.39,26.39,0,0,1,2.79-.41l.22-.71s-1.8-1.94-2.36-2-1.59-.06-1.83-.1Z"></path>
      <path class="cls-10" d="M72,391.25c0,.32-.07,1.16.81,1.21a13.59,13.59,0,0,0,1.75,0l2-2.37c.35-.34.62-.38-.65-.45s-1.32-.38-2.37,0A3.29,3.29,0,0,0,72,391.25"></path>
      <path class="cls-11" d="M74.59,392.41a13.63,13.63,0,0,0,1.15-1.83c.43-.84.49-1.09,1.3-.89s2.74,0,3.39.61.62.53.23,1.54a3.91,3.91,0,0,1-2.07,2,2.14,2.14,0,0,1-2.51.06,5.56,5.56,0,0,1-1.49-1.52"></path>
      <path class="cls-8" d="M68.09,385.47s1.33-2.11.13-3.79-2.93-1.93-3.35-1.44l-.49.94c-.3.61,1.33,1.17,1.35,1.22Z"></path>
      <path class="cls-9" d="M66.15,387.19s2.36-1.43,2.07-2.4-.49-2.1-.49-2.1l-.55-.12s-1.37,1.5-1.37,1.93.06,1.21,0,1.4Z"></path>
      <path class="cls-10" d="M65.81,387.22c.25,0,.89,0,.86-.7a10.21,10.21,0,0,0-.14-1.33l-2-1.39c-.28-.24-.32-.45-.29.52s-.21,1,.16,1.81a2.49,2.49,0,0,0,1.36,1.09"></path>
      <path class="cls-11" d="M66.52,385.19a10.09,10.09,0,0,0-1.46-.75c-.68-.28-.87-.3-.77-.94s-.18-2.09.24-2.62.36-.52,1.16-.28A3,3,0,0,1,67.38,382a1.66,1.66,0,0,1,.2,1.92,4.19,4.19,0,0,1-1.06,1.23"></path>
      <path class="cls-8" d="M56.33,388.27a1.63,1.63,0,0,0,.53-1.56c-.28-.84-1-1.17-1.2-1l-.32.32.4.68Z"></path>
      <path class="cls-9" d="M55.3,388.73s1.16-.29,1.17-.73a9,9,0,0,1,.06-.93l-.21-.12-.81.62-.17.59Z"></path>
      <path class="cls-10" d="M55.16,388.7l.44-.18.12-.57-.63-.82c-.09-.14-.08-.23-.19.18s-.22.4-.16.76a1.08,1.08,0,0,0,.42.63"></path>
      <path class="cls-11" d="M55.71,388l-.51-.5L55,387l.44-1,.51,0a1.3,1.3,0,0,1,.52.81.71.71,0,0,1-.16.82Z"></path>
      <path class="cls-8" d="M52.72,394.76s2.27-3.67.18-6.57-5.07-3.32-5.81-2.46a12.66,12.66,0,0,0-.83,1.63c-.51,1.06,2.31,2,2.34,2.09Z"></path>
      <path class="cls-9" d="M49.38,397.75s4.08-2.5,3.57-4.18-.89-3.63-.89-3.63l-1-.2s-2.35,2.61-2.35,3.36.11,2.1.08,2.43Z"></path>
      <path class="cls-10" d="M48.79,397.8c.43,0,1.53-.05,1.49-1.21a16.37,16.37,0,0,0-.27-2.31s-2.89-2-3.38-2.39-.57-.77-.51.92-.34,1.79.3,3.12a4.36,4.36,0,0,0,2.37,1.87"></path>
      <path class="cls-11" d="M50,394.28A19.23,19.23,0,0,0,47.46,393c-1.18-.46-1.51-.51-1.35-1.61s-.31-3.62.4-4.55.62-.89,2-.48,2,1.11,2.94,2.47a2.85,2.85,0,0,1,.38,3.31A7.18,7.18,0,0,1,50,394.28"></path>
      <path class="cls-12" d="M86.9,326.4a10.91,10.91,0,0,0-1.34,6.08c0,2.24.43,4.55.36,6.94a31.66,31.66,0,0,1-1.17,6.95c-.58,2.21-.87,4.51-1.66,6.75a42.9,42.9,0,0,1-3.22,6.17,30.48,30.48,0,0,0-2.57,6.36,28.86,28.86,0,0,0-.47,13.67A30.18,30.18,0,0,1,77,365.59a31.22,31.22,0,0,1,2.41-6.51,38.81,38.81,0,0,0,3-6.19c.66-2.15.86-4.47,1.35-6.74a26.84,26.84,0,0,0,.82-6.71c-.11-2.23-.58-4.47-.9-6.83a15.21,15.21,0,0,1,.67-7.44l0,0a1.43,1.43,0,1,1,2.66,1A1.34,1.34,0,0,1,86.9,326.4Z"></path>
      <path class="cls-12" d="M86.33,332.44a28.6,28.6,0,0,1,7.89,17.44,16.31,16.31,0,0,0,.85,4.52,8.46,8.46,0,0,0,2.8,3.53c1.21,1,2.57,1.8,3.88,2.67l4,2.6-4.11-2.36c-1.36-.8-2.76-1.55-4.07-2.48a9.17,9.17,0,0,1-3.22-3.64A16.88,16.88,0,0,1,93.14,350a26.78,26.78,0,0,0-2.82-8.76A26.5,26.5,0,0,0,84.8,334a1.1,1.1,0,1,1,1.49-1.62Z"></path>
      <path class="cls-12" d="M85.38,325.06a21,21,0,0,1,.33,3.27c0,1.06,0,2.12,0,3.18a52.31,52.31,0,0,1-.46,6.36,16.05,16.05,0,0,1-.71,3.19,5,5,0,0,1-.37.83c-.16.28-.3.45-.44.69l-.88,1.31c-1.19,1.74-2.42,3.45-3.77,5.08a42.22,42.22,0,0,1-4.37,4.6,38.82,38.82,0,0,1-5.07,3.78,57.28,57.28,0,0,0-5.14,3.56,10.16,10.16,0,0,0-3.62,5,10.41,10.41,0,0,1,3.45-5.16,59.08,59.08,0,0,1,5-3.79A36.59,36.59,0,0,0,74.22,353a40.33,40.33,0,0,0,4.1-4.66c1.26-1.65,2.4-3.38,3.51-5.15l.81-1.33c.13-.21.29-.47.38-.64a4.44,4.44,0,0,0,.26-.62,15.06,15.06,0,0,0,.58-2.93,55.12,55.12,0,0,0,.3-6.18c0-1,0-2.06-.11-3.09a19.64,19.64,0,0,0-.35-3v0a.87.87,0,0,1,.66-1,.86.86,0,0,1,1,.66Z"></path>
      <path class="cls-12" d="M85.23,325.32a71.62,71.62,0,0,0,4.09,11.85c1.66,3.87,3.5,7.67,5.42,11.43q1.45,2.82,3,5.6a29.5,29.5,0,0,1,1.43,2.87,13.12,13.12,0,0,1,.88,3.11c.66,4.25-.39,8.54,1,12.64a19,19,0,0,1-1-6.26,38.58,38.58,0,0,0-.43-6.29,17.07,17.07,0,0,0-2.45-5.71C96,352.73,95,350.87,94,349c-2-3.74-3.92-7.52-5.67-11.39a74.73,74.73,0,0,1-4.4-12,.68.68,0,0,1,1.31-.33Z"></path>
      <path class="cls-12" d="M84.85,334.55a28.94,28.94,0,0,0-1.21,5.13,10.28,10.28,0,0,0,.43,5A10.05,10.05,0,0,0,85.26,347c.24.36.51.7.78,1a12,12,0,0,1,.84,1.14A6.73,6.73,0,0,1,88,351.87a11.82,11.82,0,0,1-.08,2.86c-.53,3.78-2.51,6.92-3.68,10.2a15.7,15.7,0,0,0-1,5.1,8.45,8.45,0,0,0,1.53,5,8.1,8.1,0,0,1-2.21-4.92,14.48,14.48,0,0,1,.58-5.48c.51-1.77,1.2-3.44,1.82-5.11a28.83,28.83,0,0,0,1.56-5,10.65,10.65,0,0,0,.18-2.5,4.88,4.88,0,0,0-.81-2.25,10.29,10.29,0,0,0-.72-1.05c-.29-.35-.58-.71-.85-1.1a10.58,10.58,0,0,1-1.91-8.09,34.48,34.48,0,0,1,1.12-5.4.71.71,0,1,1,1.36.39h0Z"></path>
      <path class="cls-12" d="M85.34,324.91a10.74,10.74,0,0,1,.84,6.45A12.71,12.71,0,0,1,83,336.92a38.07,38.07,0,0,0-3.78,4.62A11.62,11.62,0,0,0,78,344.11a2.48,2.48,0,0,0,.6,2.19,5.87,5.87,0,0,0,1,1,9.42,9.42,0,0,1,1.27,1,1.78,1.78,0,0,1,.43,1,2.38,2.38,0,0,1-.15,1,3.5,3.5,0,0,1-1,1.42c-1.72,1.41-3.8,1.83-5.15,3.21s-1.45,3.6-.9,5.49,1.55,3.75,1.94,5.76c-.5-2-1.6-3.72-2.25-5.67a8,8,0,0,1-.45-3.08,5,5,0,0,1,1.18-2.95c1.47-1.63,3.62-2.2,5-3.49.65-.57,1-1.58.55-1.91a9.06,9.06,0,0,0-1.14-.82,6.61,6.61,0,0,1-1.24-1.13,4.92,4.92,0,0,1-.9-1.51,3.16,3.16,0,0,1-.09-1.93,12.67,12.67,0,0,1,1.35-2.94,37.54,37.54,0,0,1,3.86-4.85A11.25,11.25,0,0,0,84.57,331a9.08,9.08,0,0,0-.82-5.42h0a.86.86,0,1,1,1.58-.69Z"></path>
      <path class="cls-12" d="M85.8,325.13A51.25,51.25,0,0,1,82.22,336a63.88,63.88,0,0,1-5.74,9.76A112,112,0,0,0,70.25,355a23.51,23.51,0,0,0-2.1,5.15,54.18,54.18,0,0,0-.73,5.56,55.94,55.94,0,0,1,.51-5.61,23.2,23.2,0,0,1,1.93-5.3,110.13,110.13,0,0,1,5.9-9.6,63,63,0,0,0,5.27-9.8,49.42,49.42,0,0,0,3.07-10.62.86.86,0,1,1,1.7.29Z"></path>
      <path class="cls-12" d="M86.31,325.53a47.38,47.38,0,0,0,.56,7.2,12.41,12.41,0,0,0,1,3.24,12.61,12.61,0,0,0,.89,1.48,7.33,7.33,0,0,1,1,1.92,7.09,7.09,0,0,1,.21,1.08L90,341l0,.46a15.13,15.13,0,0,0,.18,1.72,5,5,0,0,0,1.34,2.74c.74.83,1.72,1.58,2.62,2.55a16.94,16.94,0,0,1,2.37,3.16,22.09,22.09,0,0,1,2.51,7.29,56.13,56.13,0,0,1,.71,7.48c.21,4.93.32,9.87.15,14.83-.85-4.89-1.42-9.8-1.88-14.72-.23-2.45-.43-4.88-.89-7.23a19.83,19.83,0,0,0-2.39-6.6,14.26,14.26,0,0,0-2.11-2.72c-.8-.82-1.78-1.58-2.69-2.6a7.64,7.64,0,0,1-1.21-1.78,7.75,7.75,0,0,1-.63-2c-.24-1.35-.14-2.68-.39-3.56a5.33,5.33,0,0,0-.69-1.37,11.9,11.9,0,0,1-1-1.7,14.33,14.33,0,0,1-1.12-3.82,42.76,42.76,0,0,1-.34-7.56.86.86,0,0,1,.89-.84.88.88,0,0,1,.84.84Z"></path>
      <path class="cls-12" d="M85.87,329.31c0,4.21-.07,8.43-.12,12.62A43.44,43.44,0,0,0,87,354.29c1.07,4,2.48,8,3.38,12.15s1.24,8.48-.07,12.51c1.17-4.08.69-8.38-.35-12.41s-2.57-8-3.79-12a44.1,44.1,0,0,1-1.7-12.59c-.09-4.22-.13-8.41-.31-12.59a.85.85,0,0,1,.82-.9.86.86,0,0,1,.9.82Z"></path>
      <path class="cls-12" d="M86.39,326a5.08,5.08,0,0,1-1.13,3,21.35,21.35,0,0,1-1.94,2,6,6,0,0,0-1.4,2,3.65,3.65,0,0,0-.21,1.12l0,1.35a24.17,24.17,0,0,0,.42,5.29,31.15,31.15,0,0,1,.6,5.47,30.64,30.64,0,0,1-2,10.74,53.21,53.21,0,0,1-4.85,9.73,52.36,52.36,0,0,0,4.45-9.87,29.84,29.84,0,0,0,1.53-10.58,31.18,31.18,0,0,0-.8-5.29,25.92,25.92,0,0,1-.65-5.5v-1.36a4.92,4.92,0,0,1,.22-1.55A7.16,7.16,0,0,1,82.24,330,22.39,22.39,0,0,0,84,328a3.47,3.47,0,0,0,.71-2,.86.86,0,1,1,1.72,0v0Z"></path>
      <path class="cls-12" d="M89.42,332.31a88,88,0,0,0,8,21.19c.85,1.7,1.8,3.34,2.67,5.06a14.38,14.38,0,0,1,1.59,5.57c.33,3.83-.42,7.7.79,11.38a18,18,0,0,1-1-5.63c-.08-1.92,0-3.83-.27-5.7a13.76,13.76,0,0,0-1.71-5.31c-.92-1.64-1.93-3.29-2.82-5a89.34,89.34,0,0,1-8.6-21.27h0a.68.68,0,0,1,.49-.82.69.69,0,0,1,.82.5Z"></path>
      <path class="cls-12" d="M85.9,326.55a14.71,14.71,0,0,1-1.63,7c-1,2.17-2.16,4.23-3.33,6.27s-2.42,4-3.42,6.13a26.26,26.26,0,0,0-1.88,6.67c-.91,4.72-3.35,8.88-5.49,13a46.65,46.65,0,0,0-2.88,6.42,17.73,17.73,0,0,0-1,6.92,17.88,17.88,0,0,1,.64-7,40.73,40.73,0,0,1,2.6-6.63c2-4.26,4.21-8.43,4.88-12.95.2-1.14.36-2.32.61-3.51a16.64,16.64,0,0,1,.45-1.82c.2-.61.44-1.18.69-1.75A69.84,69.84,0,0,1,79.48,339q1.78-3,3.32-6.1a24.14,24.14,0,0,0,1.28-3.1,10.59,10.59,0,0,0,.61-3.14v-.06a.61.61,0,0,1,1.21,0Z"></path>
      <path class="cls-12" d="M87.92,331.49a11.09,11.09,0,0,0,3.24,4.77,14.67,14.67,0,0,0,5.18,3c1,.32,2,.55,3,.94a10.12,10.12,0,0,1,2.75,1.62,21.33,21.33,0,0,1,4,4.8,21.35,21.35,0,0,0-4.2-4.54,10,10,0,0,0-2.71-1.41c-1-.32-2-.5-3-.77A15.46,15.46,0,0,1,90.52,337,12.28,12.28,0,0,1,86.67,332h0a.67.67,0,0,1,.38-.86.65.65,0,0,1,.86.38Z"></path>
      <path class="cls-12" d="M79.34,341c1.33,1.44,2.51,3,3.75,4.37s2.63,2.8,3.78,4.38a10.15,10.15,0,0,1,2.21,5.39,5.88,5.88,0,0,1-2.23,5.13,5.68,5.68,0,0,0,1.81-5.09,9.64,9.64,0,0,0-2.46-4.91c-1.21-1.43-2.64-2.66-4-4s-2.68-2.76-4-4a.86.86,0,0,1-.06-1.22.88.88,0,0,1,1.23-.05l0,.05Z"></path>
      <path class="cls-12" d="M87.18,325.93a3.12,3.12,0,0,0,.15,1.68,10.19,10.19,0,0,0,1,2.19,7.29,7.29,0,0,0,1.43,1.78,1.64,1.64,0,0,0,.32.24l.15.08.39.16a6.85,6.85,0,0,1,1.47.87,7.23,7.23,0,0,1,2.13,2.59,11.89,11.89,0,0,1,1,2.94,48.25,48.25,0,0,1,.63,5.66,25.28,25.28,0,0,0,.34,2.67,28.14,28.14,0,0,1,.37,2.85c.15,1.9.13,3.77.18,5.61a32.05,32.05,0,0,0,.51,5.46,13.82,13.82,0,0,0,2.06,5.07,13.26,13.26,0,0,1-2.72-4.9,28.64,28.64,0,0,1-1.07-5.55c-.2-1.86-.35-3.7-.63-5.5a25.47,25.47,0,0,0-.52-2.63,26.68,26.68,0,0,1-.56-2.83,49,49,0,0,0-1-5.35,6.42,6.42,0,0,0-2.37-3.87,4.26,4.26,0,0,0-1-.49l-.26-.09c-.1,0-.35-.13-.49-.2a4.39,4.39,0,0,1-.83-.53,10.42,10.42,0,0,1-2.16-2.44,13.56,13.56,0,0,1-1.4-2.83A8.33,8.33,0,0,1,84,326.9a4.44,4.44,0,0,1,.2-2.11l.12-.35a1.63,1.63,0,0,1,3.08,1.08A1.76,1.76,0,0,1,87.18,325.93Z"></path>
      <path class="cls-12" d="M88.48,331.68a21.15,21.15,0,0,0-1.26,4.23,8.4,8.4,0,0,0,.25,4,10.71,10.71,0,0,0,.85,1.87,11.21,11.21,0,0,1,1.1,2.37,4.42,4.42,0,0,1,.16,1.65,3.94,3.94,0,0,1-.54,1.58,16,16,0,0,1-1.54,2,36.47,36.47,0,0,1-7.16,6.39,42.12,42.12,0,0,1-4.07,2.44,12.64,12.64,0,0,0-3.77,2.7A13,13,0,0,1,76,357.75c1.29-.9,2.53-1.82,3.71-2.83a35.07,35.07,0,0,0,6.13-6.82,15.44,15.44,0,0,0,1.11-1.83,1.49,1.49,0,0,0,0-1.32,17.69,17.69,0,0,0-1-1.81,11.51,11.51,0,0,1-1-2.43,10.52,10.52,0,0,1-.14-5.28,19.48,19.48,0,0,1,1.76-4.64,1.1,1.1,0,0,1,1.47-.5,1.09,1.09,0,0,1,.53,1.37Z"></path>
      <path class="cls-12" d="M86.35,324.82a38.61,38.61,0,0,1,.52,9.31,18,18,0,0,1-1,4.63,13.25,13.25,0,0,1-2.38,4.08A59.38,59.38,0,0,1,76.67,349a25.78,25.78,0,0,0-3.22,3.22,9.9,9.9,0,0,0-2,4,9.88,9.88,0,0,1,1.88-4.16,25.72,25.72,0,0,1,3.1-3.41,59.2,59.2,0,0,0,6.46-6.4,14,14,0,0,0,2.74-8.26,36.9,36.9,0,0,0-.93-8.92.86.86,0,1,1,1.69-.36Z"></path>
      <polygon class="cls-13" points="0 298.04 80.12 331.52 152.93 300.64 80.12 274.96 0 298.04"></polygon>
      <path class="cls-14" d="M81.2,45.48a8.2,8.2,0,0,1-1.13-1.9,18.42,18.42,0,0,1-.75-2,20.08,20.08,0,0,1-.51-2,20.64,20.64,0,0,1-.36-2.06,46,46,0,0,1-.31-8.29c.06-1.38.19-2.76.31-4.13s.32-2.74.54-4.1.44-2.72.71-4.06l.86-4-.73,4.06c-.24,1.35-.4,2.72-.59,4.08s-.28,2.73-.42,4.09-.17,2.74-.19,4.11a46.43,46.43,0,0,0,.55,8.17c.11.67.24,1.34.41,2a19.6,19.6,0,0,0,.56,1.95,15,15,0,0,0,.76,1.85,7.25,7.25,0,0,0,1,1.61Z"></path>
      <path class="cls-14" d="M84.56,47.23a7.88,7.88,0,0,0,1-1.61,14.49,14.49,0,0,0,.76-1.86,18.68,18.68,0,0,0,.56-1.94,19.15,19.15,0,0,0,.41-2,46.26,46.26,0,0,0,.55-8.16c0-1.37-.11-2.74-.19-4.11s-.23-2.73-.41-4.09-.36-2.73-.59-4.08l-.74-4.06.86,4c.27,1.35.47,2.71.71,4.07s.36,2.73.54,4.1.25,2.75.31,4.13A46,46,0,0,1,88,39.94,20.64,20.64,0,0,1,87.66,42a20.78,20.78,0,0,1-.51,2,18.42,18.42,0,0,1-.75,2,8.41,8.41,0,0,1-1.13,1.9Z"></path>
      <path class="cls-14" d="M83.24,42.17a7.33,7.33,0,0,0,1-1.62A16.69,16.69,0,0,0,85,38.7a18.17,18.17,0,0,0,.56-2,18.94,18.94,0,0,0,.4-2,45.32,45.32,0,0,0,.55-8.16c0-1.37-.1-2.74-.18-4.11s-.24-2.74-.42-4.1-.36-2.72-.59-4.08l-.73-4.06.85,4c.28,1.35.48,2.71.72,4.07s.36,2.73.54,4.1S87,25.2,87,26.58a46,46,0,0,1-.31,8.29,20.64,20.64,0,0,1-.36,2.06,21,21,0,0,1-.51,2,17.51,17.51,0,0,1-.75,2A8.35,8.35,0,0,1,84,42.85Z"></path>
      <path class="cls-14" d="M89.23,79.94a8.39,8.39,0,0,0,.89-1.58,16.15,16.15,0,0,0,.72-1.78A36.38,36.38,0,0,0,92,72.85c.62-2.52,1-5.1,1.42-7.69s.6-5.19.79-7.8.3-5.23.4-7.85c0,2.62,0,5.24-.16,7.86s-.29,5.24-.54,7.85-.64,5.22-1.19,7.8a36.77,36.77,0,0,1-1,3.84A19.34,19.34,0,0,1,91,78.74a8.63,8.63,0,0,1-1,1.85Z"></path>
      <path class="cls-14" d="M89.48,87.94a8.39,8.39,0,0,0,.89-1.58,15.4,15.4,0,0,0,.72-1.78,36.38,36.38,0,0,0,1.11-3.73c.62-2.52,1-5.1,1.42-7.69s.6-5.19.79-7.8.3-5.23.4-7.85c0,2.62,0,5.24-.16,7.86s-.29,5.24-.54,7.85-.64,5.22-1.19,7.8a36.77,36.77,0,0,1-1,3.84,18.43,18.43,0,0,1-.69,1.88,8.63,8.63,0,0,1-1,1.85Z"></path>
      <path class="cls-14" d="M88.82,71.86a18.21,18.21,0,0,0,1.57-3.59,39.93,39.93,0,0,0,1.07-3.89,69.07,69.07,0,0,0,1.29-8c.17-1.34.24-2.69.37-4l.2-4.06.09-4.07V40.14l.13,4.07,0,4.07-.08,4.08c-.08,1.35-.12,2.72-.24,4.07a69.51,69.51,0,0,1-1.07,8.11,27.1,27.1,0,0,1-2.55,7.88Z"></path>
      <path class="cls-14" d="M89.24,57a7.25,7.25,0,0,0,1-1.61A15,15,0,0,0,91,53.58a18.17,18.17,0,0,0,.56-1.95c.17-.65.3-1.32.41-2a46.32,46.32,0,0,0,.55-8.16c0-1.37-.11-2.74-.19-4.11s-.23-2.74-.42-4.1-.35-2.73-.59-4.08l-.73-4.06.86,4c.27,1.35.47,2.71.71,4.07s.36,2.73.54,4.09.25,2.75.31,4.13a46,46,0,0,1-.31,8.29,20.64,20.64,0,0,1-.36,2.06,21,21,0,0,1-.51,2,18.26,18.26,0,0,1-.75,2A8.2,8.2,0,0,1,90,57.73Z"></path>
      <path class="cls-14" d="M88.53,64.88a5.93,5.93,0,0,0,1-1.48,14.23,14.23,0,0,0,.8-1.77,29.75,29.75,0,0,0,1.11-3.77A59.3,59.3,0,0,0,92.58,50c.18-2.65.27-5.31.24-8s-.13-5.33-.26-8c.21,2.66.42,5.32.51,8s.1,5.34,0,8a61.74,61.74,0,0,1-.88,8,28.27,28.27,0,0,1-1,3.92,13.61,13.61,0,0,1-.79,1.9,7.6,7.6,0,0,1-.51.92,4.85,4.85,0,0,1-.7.89Z"></path>
      <path class="cls-14" d="M87.49,48.54a7.25,7.25,0,0,0,1-1.61,15,15,0,0,0,.76-1.85,18.86,18.86,0,0,0,.56-1.95c.17-.65.3-1.32.41-2A46.43,46.43,0,0,0,90.78,33c0-1.37-.11-2.74-.19-4.1s-.23-2.74-.42-4.1-.35-2.73-.59-4.08l-.73-4.06.86,4c.27,1.35.47,2.71.71,4.06s.36,2.74.54,4.1.25,2.75.31,4.13A46,46,0,0,1,91,41.25a20.64,20.64,0,0,1-.36,2.06,21,21,0,0,1-.51,2,19.08,19.08,0,0,1-.75,2,8.57,8.57,0,0,1-1.13,1.9Z"></path>
      <path class="cls-14" d="M87.59,54.83a14.2,14.2,0,0,0,1.55-3.51,31.64,31.64,0,0,0,.94-3.87,62.31,62.31,0,0,0,.91-8c.07-1.34.11-2.68.14-4s0-2.69,0-4-.08-2.68-.16-4l-.25-4,.38,4c.12,1.34.18,2.68.27,4s.1,2.69.16,4,0,2.69,0,4a64.43,64.43,0,0,1-.68,8.08,32.54,32.54,0,0,1-.84,4,14.46,14.46,0,0,1-1.61,3.88Z"></path>
      <path class="cls-14" d="M86.62,42.79a7.63,7.63,0,0,0,1-1.61,16.69,16.69,0,0,0,.76-1.85c.2-.65.41-1.29.55-1.95a19.51,19.51,0,0,0,.41-2,45.5,45.5,0,0,0,.55-8.17c0-1.37-.11-2.74-.18-4.11s-.24-2.73-.42-4.09-.36-2.73-.59-4.08L88,10.88l.85,4c.27,1.34.47,2.71.71,4.06s.36,2.73.55,4.1.24,2.75.3,4.13a46,46,0,0,1-.31,8.29,20.6,20.6,0,0,1-.35,2.06c-.13.69-.33,1.36-.52,2a16.53,16.53,0,0,1-.75,2,7.87,7.87,0,0,1-1.13,1.9Z"></path>
      <path class="cls-14" d="M80.58,52.48a14.43,14.43,0,0,1-2.19-3.95,27.91,27.91,0,0,1-1.25-4.25,40.62,40.62,0,0,1-.86-8.72c0-1.46.09-2.92.14-4.38s.28-2.9.44-4.34.44-2.88.69-4.31l.88-4.28-.76,4.3c-.21,1.43-.37,2.88-.56,4.32s-.24,2.89-.32,4.33-.1,2.9,0,4.35a40.46,40.46,0,0,0,1.08,8.57,26.28,26.28,0,0,0,1.33,4.08,13.67,13.67,0,0,0,2.1,3.59Z"></path>
      <path class="cls-14" d="M83.58,44.23a14.33,14.33,0,0,1-2.19-4A27.46,27.46,0,0,1,80.14,36a40.71,40.71,0,0,1-.86-8.73c0-1.46.09-2.91.14-4.37s.28-2.9.44-4.35.44-2.87.69-4.31L81.43,10l-.76,4.29c-.21,1.44-.37,2.89-.56,4.32s-.24,2.9-.31,4.34-.11,2.9,0,4.35a40.46,40.46,0,0,0,1.08,8.57A27.77,27.77,0,0,0,82.19,40a14.12,14.12,0,0,0,2.1,3.59Z"></path>
      <path class="cls-14" d="M81.19,59.84a17.3,17.3,0,0,1-2.33-4.1c-.33-.7-.56-1.45-.83-2.17s-.45-1.48-.66-2.22a42.79,42.79,0,0,1-1.25-9.13A62.49,62.49,0,0,1,76.49,33c.2-1.52.43-3,.66-4.54L78.06,24l-.79,4.51c-.19,1.51-.37,3-.53,4.54a61.88,61.88,0,0,0-.12,9.13,41.61,41.61,0,0,0,1.47,9c.22.72.45,1.44.7,2.16s.52,1.41.86,2.08a16.67,16.67,0,0,0,2.28,3.79Z"></path>
      <path class="cls-14" d="M80.83,66.36a20.62,20.62,0,0,1-2.65-4.12,32.64,32.64,0,0,1-1.83-4.46,42,42,0,0,1-1.86-9.4L74.33,46V43.6c0-1.59.15-3.18.23-4.77s.4-3.16.59-4.74l.92-4.68-.8,4.7c-.15,1.58-.37,3.16-.47,4.74s-.19,3.16-.1,4.75L74.76,46,75,48.33a41.23,41.23,0,0,0,2.06,9.21,31.19,31.19,0,0,0,1.9,4.3,20,20,0,0,0,2.59,3.83Z"></path>
      <path class="cls-14" d="M81.7,75.11A20.34,20.34,0,0,1,79.06,71a32,32,0,0,1-1.84-4.46,42.72,42.72,0,0,1-1.85-9.41l-.17-2.38v-2.4c-.06-1.59.14-3.18.22-4.77s.4-3.16.59-4.74l.92-4.68-.79,4.7c-.16,1.58-.37,3.16-.47,4.74s-.2,3.17-.1,4.75l.07,2.37.22,2.37a41.5,41.5,0,0,0,2.07,9.21,29.91,29.91,0,0,0,1.9,4.29,19.07,19.07,0,0,0,2.59,3.83Z"></path>
      <path class="cls-14" d="M87.33,45.66a20.07,20.07,0,0,1-2.64-4.11,31.47,31.47,0,0,1-1.84-4.46A42,42,0,0,1,81,27.69l-.16-2.39V22.91c0-1.6.15-3.18.23-4.77s.4-3.16.59-4.74l.92-4.68-.8,4.7c-.15,1.58-.37,3.15-.47,4.74s-.19,3.16-.1,4.75l.07,2.37.23,2.36a41.23,41.23,0,0,0,2.06,9.21,31.73,31.73,0,0,0,1.9,4.3A20.26,20.26,0,0,0,88,45Z"></path>
      <path class="cls-14" d="M81.8,83a39.51,39.51,0,0,1-4.68-9.23,64.26,64.26,0,0,1-2.7-9.91c-.3-1.69-.59-3.37-.76-5.08s-.32-3.4-.44-5.11-.09-3.41-.14-5.12.11-3.41.16-5.12c0,1.71,0,3.42,0,5.12s.09,3.41.25,5.11.28,3.39.56,5.07.55,3.36.88,5a63.24,63.24,0,0,0,2.92,9.75,38.35,38.35,0,0,0,4.75,8.87Z"></path>
      <path class="cls-14" d="M81.42,91a39.67,39.67,0,0,1-4.67-9.23A64.72,64.72,0,0,1,74,71.87c-.29-1.68-.59-3.37-.76-5.07s-.32-3.41-.44-5.11-.08-3.42-.13-5.12.11-3.42.16-5.12c0,1.71-.05,3.41,0,5.12s.1,3.41.26,5.1.28,3.4.56,5.08.54,3.36.88,5a63.2,63.2,0,0,0,2.91,9.75,39.2,39.2,0,0,0,4.75,8.88Z"></path>
      <path class="cls-14" d="M83.72,36.55l-.37-18.28C83.19,12.18,83,6.09,82.68,0c.53,6.07.84,12.17,1.16,18.25l.87,18.27Z"></path>
      <path class="cls-15" d="M84,48s-2-3.7.23-5.79,2.74-1.82,2.74-1.82S89.62,46.14,84,48Z"></path>
      <path class="cls-16" d="M84,48s-2-3.7.23-5.79,2.74-1.82,2.74-1.82S89.62,46.14,84,48Z"></path>
      <path class="cls-17" d="M84,54.15S81.55,49,86,47.81l2.51-1.14S90,52.92,84,54.15Z"></path>
      <path class="cls-18" d="M84,54.15S81.55,49,86,47.81l2.51-1.14S90,52.92,84,54.15Z"></path>
      <path class="cls-19" d="M83.74,60.88s-2.49-4.55,2-6.89l3-1.32S89.59,60.68,83.74,60.88Z"></path>
      <path class="cls-20" d="M83.74,60.88s-2.49-4.55,2-6.89l3-1.32S89.59,60.68,83.74,60.88Z"></path>
      <path class="cls-21" d="M83.73,68.93s-3.82-6.58,4.76-9.07C88.49,59.86,90.86,67.19,83.73,68.93Z"></path>
      <path class="cls-22" d="M83.73,68.93s-3.82-6.58,4.76-9.07C88.49,59.86,90.86,67.19,83.73,68.93Z"></path>
      <path class="cls-23" d="M83.67,77.54s-2.44-5.16,1.26-8.05S88.49,67,88.49,67,91.88,73.47,83.67,77.54Z"></path>
      <path class="cls-24" d="M83.67,77.54s-2.44-5.16,1.26-8.05S88.49,67,88.49,67,91.88,73.47,83.67,77.54Z"></path>
      <path class="cls-25" d="M83.46,86.12s-2.2-4.8,1.15-7.52S89.34,75,89.34,75,90.57,84.91,83.46,86.12Z"></path>
      <path class="cls-26" d="M83.46,86.12s-2.2-4.8,1.15-7.52S89.34,75,89.34,75,90.57,84.91,83.46,86.12Z"></path>
      <path class="cls-27" d="M83.46,94.8s-2.2-4.8,1.15-7.52,4.73-3.63,4.73-3.63S90.57,93.59,83.46,94.8Z"></path>
      <path class="cls-28" d="M83.46,94.8s-2.2-4.8,1.15-7.52,4.73-3.63,4.73-3.63S90.57,93.59,83.46,94.8Z"></path>
      <g class="cls-29">
        <path class="cls-30" d="M84,48s-2-3.7.23-5.79,2.74-1.82,2.74-1.82S89.62,46.14,84,48Z"></path>
        <path class="cls-30" d="M84,48s-2-3.7.23-5.79,2.74-1.82,2.74-1.82S89.62,46.14,84,48Z"></path>
        <path class="cls-30" d="M84,54.15S81.55,49,86,47.81l2.51-1.14S90,52.92,84,54.15Z"></path>
        <path class="cls-30" d="M84,54.15S81.55,49,86,47.81l2.51-1.14S90,52.92,84,54.15Z"></path>
        <path class="cls-30" d="M83.74,60.88s-2.49-4.55,2-6.89l3-1.32S89.59,60.68,83.74,60.88Z"></path>
        <path class="cls-30" d="M83.74,60.88s-2.49-4.55,2-6.89l3-1.32S89.59,60.68,83.74,60.88Z"></path>
        <path class="cls-30" d="M83.73,68.93s-3.82-6.58,4.76-9.07C88.49,59.86,90.86,67.19,83.73,68.93Z"></path>
        <path class="cls-30" d="M83.73,68.93s-3.82-6.58,4.76-9.07C88.49,59.86,90.86,67.19,83.73,68.93Z"></path>
        <path class="cls-30" d="M83.67,77.54s-2.44-5.16,1.26-8.05S88.49,67,88.49,67,91.88,73.47,83.67,77.54Z"></path>
        <path class="cls-30" d="M83.67,77.54s-2.44-5.16,1.26-8.05S88.49,67,88.49,67,91.88,73.47,83.67,77.54Z"></path>
        <path class="cls-30" d="M83.46,86.12s-2.2-4.8,1.15-7.52S89.34,75,89.34,75,90.57,84.91,83.46,86.12Z"></path>
        <path class="cls-30" d="M83.46,86.12s-2.2-4.8,1.15-7.52S89.34,75,89.34,75,90.57,84.91,83.46,86.12Z"></path>
        <path class="cls-30" d="M83.46,94.8s-2.2-4.8,1.15-7.52,4.73-3.63,4.73-3.63S90.57,93.59,83.46,94.8Z"></path>
        <path class="cls-30" d="M83.46,94.8s-2.2-4.8,1.15-7.52,4.73-3.63,4.73-3.63S90.57,93.59,83.46,94.8Z"></path>
      </g>
      <path class="cls-31" d="M84.67,295.15h0a.65.65,0,0,1-.64-.65l.52-253a.65.65,0,0,1,.65-.65h0a.64.64,0,0,1,.64.65l-.52,253A.65.65,0,0,1,84.67,295.15Z"></path>
      <path class="cls-32" d="M79.56,39.07s-1.71,7.31,4.83,9.14C84.39,48.21,87.08,44.17,79.56,39.07Z"></path>
      <path class="cls-33" d="M79.56,39.07s-1.71,7.31,4.83,9.14C84.39,48.21,87.08,44.17,79.56,39.07Z"></path>
      <path class="cls-34" d="M78.7,45.08s-.76,6.45,1.78,8.07,4.17,1.1,4.17,1.1S84.9,50,83.76,49,78.7,45.08,78.7,45.08Z"></path>
      <path class="cls-35" d="M78.7,45.08s-.76,6.45,1.78,8.07,4.17,1.1,4.17,1.1S84.9,50,83.76,49,78.7,45.08,78.7,45.08Z"></path>
      <path class="cls-36" d="M78.69,52.29s-2.32,9.69,6,9.62c0,0,.85-4.37-1.67-6.14A46.65,46.65,0,0,1,78.69,52.29Z"></path>
      <path class="cls-37" d="M78.69,52.29s-2.32,9.69,6,9.62c0,0,.85-4.37-1.67-6.14A46.65,46.65,0,0,1,78.69,52.29Z"></path>
      <path class="cls-38" d="M78.75,59.87S77,70.05,84.32,70a7.1,7.1,0,0,0-2.1-7.69A20.79,20.79,0,0,1,78.75,59.87Z"></path>
      <path class="cls-39" d="M78.75,59.87S77,70.05,84.32,70a7.1,7.1,0,0,0-2.1-7.69A20.79,20.79,0,0,1,78.75,59.87Z"></path>
      <path class="cls-40" d="M78.6,67.6s-2.11,9.84,6,10.26a8.28,8.28,0,0,0-1.48-7.18S79.06,68.34,78.6,67.6Z"></path>
      <path class="cls-41" d="M78.6,67.6s-2.11,9.84,6,10.26a8.28,8.28,0,0,0-1.48-7.18S79.06,68.34,78.6,67.6Z"></path>
      <path class="cls-42" d="M79,76.06s-3,10.78,5.55,9.69c0,0,.82-4.62-.67-6A44.34,44.34,0,0,0,79,76.06Z"></path>
      <path class="cls-43" d="M79,76.06s-3,10.78,5.55,9.69c0,0,.82-4.62-.67-6A44.34,44.34,0,0,0,79,76.06Z"></path>
      <path class="cls-44" d="M85.5,94.85s-7.17,2.24-6.77-10.58c0,0,4.72,3.2,5.5,4.21S85.5,93.49,85.5,94.85Z"></path>
      <path class="cls-45" d="M85.5,94.85s-7.17,2.24-6.77-10.58c0,0,4.72,3.2,5.5,4.21S85.5,93.49,85.5,94.85Z"></path>
      <path class="cls-46" d="M85.39,43.3s-5.65-4.39-.93-11.79C84.46,31.51,87,36,87,38S85.39,43.3,85.39,43.3Z"></path>
      <path class="cls-47" d="M85.39,43.3s-5.65-4.39-.93-11.79C84.46,31.51,87,36,87,38S85.39,43.3,85.39,43.3Z"></path>
      <path class="cls-48" d="M85.38,48.62s-2-3.7.23-5.79S88.36,41,88.36,41,91.05,46.72,85.38,48.62Z"></path>
      <path class="cls-49" d="M85.38,48.62s-2-3.7.23-5.79S88.36,41,88.36,41,91.05,46.72,85.38,48.62Z"></path>
      <path class="cls-50" d="M85.38,54.74S83,49.57,87.46,48.4L90,47.26S91.43,53.51,85.38,54.74Z"></path>
      <path class="cls-51" d="M85.38,54.74S83,49.57,87.46,48.4L90,47.26S91.43,53.51,85.38,54.74Z"></path>
      <path class="cls-52" d="M85.16,61.46s-2.48-4.54,2-6.88l3-1.32S91,61.27,85.16,61.46Z"></path>
      <path class="cls-53" d="M85.16,61.46s-2.48-4.54,2-6.88l3-1.32S91,61.27,85.16,61.46Z"></path>
      <path class="cls-54" d="M85.15,69.52s-3.82-6.58,4.77-9.07C89.92,60.45,92.29,67.78,85.15,69.52Z"></path>
      <path class="cls-55" d="M85.15,69.52s-3.82-6.58,4.77-9.07C89.92,60.45,92.29,67.78,85.15,69.52Z"></path>
      <path class="cls-56" d="M85.1,78.13s-2.45-5.17,1.25-8,3.56-2.49,3.56-2.49S93.31,74.05,85.1,78.13Z"></path>
      <path class="cls-57" d="M85.1,78.13s-2.45-5.17,1.25-8,3.56-2.49,3.56-2.49S93.31,74.05,85.1,78.13Z"></path>
      <path class="cls-58" d="M84.88,86.71s-2.2-4.8,1.15-7.53,4.74-3.63,4.74-3.63S92,85.5,84.88,86.71Z"></path>
      <path class="cls-59" d="M84.88,86.71s-2.2-4.8,1.15-7.53,4.74-3.63,4.74-3.63S92,85.5,84.88,86.71Z"></path>
      <path class="cls-60" d="M84.88,95.39s-2.2-4.8,1.15-7.53,4.74-3.63,4.74-3.63S92,94.18,84.88,95.39Z"></path>
      <path class="cls-61" d="M84.88,95.39s-2.2-4.8,1.15-7.53,4.74-3.63,4.74-3.63S92,94.18,84.88,95.39Z"></path>
      <path class="cls-62" d="M72.94,142.49s-37.49,78.94-46.19,88.24c0,0,49.19-82.4,52.1-85.07S76.12,139.26,72.94,142.49Z"></path>
      <path class="cls-63" d="M85.58,182.84l-4-40.82s-1.29-3-2.84-2.76-5.85,3.23-5.85,3.23,2.42-2.19,3.68,4.65,7,35.45,7,35.45Z"></path>
      <path class="cls-64" d="M86.6,183.46a5.07,5.07,0,0,0-.48,1.5,6.79,6.79,0,0,0-.11,1.51c0,1.16,0,1.42,0,3.08s0,3.44.06,6,.06,8.81.05,11.42,0,4.07,0,6.09,0,4.26,0,5.87c0,4.28,0,7.8,0,11.89a1.06,1.06,0,0,1-1.09,1.1,1.12,1.12,0,0,1-1.12-1.08v-.06h0c.17-4.09.28-7.59.39-11.88,0-1.6.1-3.84.13-5.86s0-3.46.06-6.07,0-8.85-.08-11.4-.1-4.33-.13-6,0-1.94-.07-3.07a9.08,9.08,0,0,0-.15-1.5,5.49,5.49,0,0,0-.49-1.43c-.1-.21,0,0,0,0a1.75,1.75,0,0,1,.67-2.38,1.7,1.7,0,0,1,2.36.63A1.78,1.78,0,0,1,86.6,183.46Z"></path>
      <path class="cls-62" d="M108,135s33.82,67.77,36.7,70.86c0,0-41.69-63.18-43.14-67.71s2.37-3.6,2.37-3.6Z"></path>
      <path class="cls-63" d="M83.34,233s9.88-32.1,14.82-97.66a2.35,2.35,0,0,1,3.11-1.21c2.39.71,6.46,0,6.94,1.16s-2.88-1.18-3.56,6S88.1,228.63,86,233Z"></path>
      <path class="cls-65" d="M86.94,233a7.71,7.71,0,0,0-.67,2,10.59,10.59,0,0,0-.19,2c0,1.4,0,2.17-.06,4s-.11,5.52-.15,7.59c-.1,5.5-.2,10.18-.3,15.77,0,2.09-.1,5.37-.14,7.69s-.07,5.62-.1,7.71c-.08,5.55,0,10.38,0,15.74a1.4,1.4,0,0,1-1.43,1.44,1.46,1.46,0,0,1-1.46-1.42.25.25,0,0,1,0-.08v0c.21-5.36.38-10.17.56-15.72.07-2.07.17-5.36.24-7.68s.14-5.6.19-7.69c.13-5.58.21-10.26.26-15.75,0-2.07,0-5.74,0-7.58s0-2.62,0-4a10.18,10.18,0,0,0-.15-2,7.4,7.4,0,0,0-.66-2s.16.4-.06-.14-.24-2.49,1-2.94a2.37,2.37,0,0,1,3.09,1A2.25,2.25,0,0,1,86.94,233Z"></path>
      <path class="cls-66" d="M85.49,300.46a.93.93,0,0,0-.88-.32c-.49.15-.69.54-.6.67a1.48,1.48,0,0,0,.18.19c.12.12.38-.22.39-.22Z"></path>
      <path class="cls-9" d="M85.74,301.05s-.15-.67-.4-.67-.54-.05-.54-.05l-.07.12s.25.44.35.47l.33.1A2.35,2.35,0,0,0,85.74,301.05Z"></path>
      <path class="cls-10" d="M85.72,301.13c0-.05.06-.21-.1-.25a2.09,2.09,0,0,0-.32-.07l-.48.35c-.08,0-.13,0,.1.11s.23.13.44.1A.63.63,0,0,0,85.72,301.13Z"></path>
      <path class="cls-11" d="M85.3,300.81a2.85,2.85,0,0,0-.29.28c-.12.14-.14.19-.28.11s-.51-.12-.6-.26-.09-.12,0-.29a.71.71,0,0,1,.46-.29.42.42,0,0,1,.47.1A1.24,1.24,0,0,1,85.3,300.81Z"></path>
      <path class="cls-66" d="M73,295.92a1.33,1.33,0,0,0-1.36-.19c-.65.36-.81,1-.65,1.15a2.54,2.54,0,0,0,.32.21c.21.14.48-.43.49-.44S73,295.92,73,295.92Z"></path>
      <path class="cls-9" d="M73.54,296.69s-.42-.91-.79-.84a7.63,7.63,0,0,1-.77.1l-.07.19s.49.55.64.57l.51,0A4.15,4.15,0,0,0,73.54,296.69Z"></path>
      <path class="cls-10" d="M73.54,296.82c0-.09,0-.33-.22-.34a3.47,3.47,0,0,0-.49,0s-.48.55-.58.64-.17.11.18.13.37.12.66,0A.93.93,0,0,0,73.54,296.82Z"></path>
      <path class="cls-11" d="M72.83,296.48a3.33,3.33,0,0,0-.33.5c-.12.23-.14.3-.37.24s-.76,0-.93-.19-.18-.15-.06-.43a1.07,1.07,0,0,1,.59-.55.6.6,0,0,1,.7,0A1.47,1.47,0,0,1,72.83,296.48Z"></path>
      <path class="cls-66" d="M81.82,294.12s-2.82-1.4-4.78.31-2.06,3.91-1.39,4.39a10.42,10.42,0,0,0,1.23.49c.81.3,1.32-1.81,1.36-1.84S81.82,294.12,81.82,294.12Z"></path>
      <path class="cls-9" d="M84.22,296.34s-2.09-2.79-3.28-2.31-2.57.89-2.57.89l-.08.71s2,1.52,2.59,1.48,1.52-.23,1.76-.23A11.86,11.86,0,0,0,84.22,296.34Z"></path>
      <path class="cls-10" d="M84.3,296.76c0-.31-.14-1.11-1-1a11.76,11.76,0,0,0-1.66.36s-1.23,2.23-1.5,2.61-.53.47.69.31,1.32.13,2.25-.43A3.12,3.12,0,0,0,84.3,296.76Z"></path>
      <path class="cls-11" d="M81.66,296.12a13.5,13.5,0,0,0-.77,1.94c-.25.88-.26,1.13-1.07,1.09s-2.61.47-3.33,0-.69-.39-.49-1.41a3.73,3.73,0,0,1,1.6-2.31,2.1,2.1,0,0,1,2.38-.5A5.46,5.46,0,0,1,81.66,296.12Z"></path>
      <path class="cls-66" d="M92.64,295s-1.62-2.21-3.83-1.66-3.15,2.21-2.82,2.84a8.19,8.19,0,0,0,.76.87c.51.56,1.74-.88,1.79-.88Z"></path>
      <path class="cls-9" d="M93.61,297.69s-.5-3-1.62-3.09-2.34-.33-2.34-.33l-.35.51s1,2,1.42,2.18,1.27.43,1.45.52A9.77,9.77,0,0,0,93.61,297.69Z"></path>
      <path class="cls-10" d="M93.5,298.05a.77.77,0,0,0-.36-1.16,10.69,10.69,0,0,0-1.42-.39s-1.84,1.24-2.2,1.43-.6.15.41.52,1,.62,1.91.56A2.76,2.76,0,0,0,93.5,298.05Z"></path>
      <path class="cls-11" d="M91.72,296.5a12.11,12.11,0,0,0-1.37,1.2c-.55.58-.65.77-1.26.41s-2.21-.66-2.59-1.31-.37-.57.19-1.29a3.27,3.27,0,0,1,2.15-1.15,1.81,1.81,0,0,1,2,.56A4.76,4.76,0,0,1,91.72,296.5Z"></path>
      <path class="cls-66" d="M85.1,296.16s-2.32-1.79-4.43-.58-2.6,3.22-2.07,3.78a10.72,10.72,0,0,0,1,.67c.69.42,1.54-1.43,1.58-1.45S85.1,296.16,85.1,296.16Z"></path>
      <path class="cls-9" d="M86.9,298.63s-1.41-2.94-2.58-2.7-2.53.34-2.53.34l-.2.64s1.61,1.77,2.12,1.82,1.43.07,1.65.11A11.5,11.5,0,0,0,86.9,298.63Z"></path>
      <path class="cls-10" d="M86.9,299c0-.29.07-1-.72-1.09a11,11,0,0,0-1.58,0s-1.53,1.82-1.85,2.12-.57.34.58.41,1.19.36,2.14,0A2.92,2.92,0,0,0,86.9,299Z"></path>
      <path class="cls-11" d="M84.6,298a13.81,13.81,0,0,0-1.06,1.64c-.39.76-.44,1-1.17.8s-2.49,0-3.06-.59-.56-.48-.19-1.38A3.42,3.42,0,0,1,81,296.61a2,2,0,0,1,2.28,0A5.11,5.11,0,0,1,84.6,298Z"></path>
      <path class="cls-66" d="M97.21,300.24a1.42,1.42,0,0,0,1.29-.64c.34-.7.12-1.32-.12-1.38a2.83,2.83,0,0,0-.4,0c-.26,0-.16.65-.17.67Z"></path>
      <path class="cls-9" d="M96.28,299.9s.91.53,1.18.26.61-.54.61-.54l-.06-.21a3,3,0,0,0-.89-.11c-.14.08-.39.24-.46.27A3.59,3.59,0,0,0,96.28,299.9Z"></path>
      <path class="cls-10" d="M96.21,299.79c.05.08.17.29.39.17a4.15,4.15,0,0,0,.42-.29s.08-.77.11-.9.1-.19-.22,0-.39.12-.58.38A1,1,0,0,0,96.21,299.79Z"></path>
      <path class="cls-11" d="M97,299.67a4.62,4.62,0,0,0,0-.63c0-.28-.06-.35.17-.43s.67-.43.92-.39.24,0,.3.34a1.09,1.09,0,0,1-.17.82.65.65,0,0,1-.61.42A1.54,1.54,0,0,1,97,299.67Z"></path>
      <path class="cls-66" d="M66.21,301.86a1.42,1.42,0,0,0,1.29-.64c.35-.7.12-1.33-.12-1.38a2.64,2.64,0,0,0-.4,0c-.26,0-.16.66-.17.67Z"></path>
      <path class="cls-9" d="M65.29,301.52s.9.53,1.17.26.61-.55.61-.55l0-.2a2.79,2.79,0,0,0-.9-.11c-.14.07-.39.24-.46.26A4.51,4.51,0,0,0,65.29,301.52Z"></path>
      <path class="cls-10" d="M65.22,301.41c0,.08.16.29.38.16a4.15,4.15,0,0,0,.42-.29s.09-.76.12-.9.09-.19-.23,0-.38.11-.58.38A.93.93,0,0,0,65.22,301.41Z"></path>
      <path class="cls-11" d="M66,301.28a4.47,4.47,0,0,0,0-.62c0-.28-.06-.35.17-.43s.67-.43.93-.39.23,0,.3.34a1.16,1.16,0,0,1-.18.82.62.62,0,0,1-.61.41A1.6,1.6,0,0,1,66,301.28Z"></path>
      <path class="cls-66" d="M75.06,300.74a1.81,1.81,0,0,0,1.7-.7c.51-.86.27-1.68,0-1.77a3.79,3.79,0,0,0-.51,0c-.33,0-.26.82-.27.83Z"></path>
      <path class="cls-9" d="M73.92,300.23s1.1.76,1.47.43.83-.64.83-.64l-.06-.26a3.46,3.46,0,0,0-1.12-.22c-.19.08-.53.27-.61.3A4.41,4.41,0,0,0,73.92,300.23Z"></path>
      <path class="cls-10" d="M73.84,300.08c0,.11.19.39.48.24a4.57,4.57,0,0,0,.56-.33s.17-1,.22-1.13.13-.24-.29,0-.5.12-.76.43A1.21,1.21,0,0,0,73.84,300.08Z"></path>
      <path class="cls-11" d="M74.88,300a6.79,6.79,0,0,0,0-.8c0-.35,0-.44.25-.52s.89-.5,1.21-.42.3.06.35.46a1.43,1.43,0,0,1-.29,1,.8.8,0,0,1-.81.47A2,2,0,0,1,74.88,300Z"></path>
      <path class="cls-66" d="M81.53,299.48a1.16,1.16,0,0,1,1-.16c.51.24.65.65.53.78l-.25.15c-.16.09-.37-.29-.39-.29Z"></path>
      <path class="cls-9" d="M81.12,300s.31-.63.59-.59.6.05.6.05l.06.13s-.37.38-.49.4l-.39,0A3.25,3.25,0,0,1,81.12,300Z"></path>
      <path class="cls-10" d="M81.13,300.1c0-.06,0-.22.16-.23a2.62,2.62,0,0,1,.37,0s.39.37.47.43.13.06-.14.09-.28.08-.51,0A.62.62,0,0,1,81.13,300.1Z"></path>
      <path class="cls-11" d="M81.66,299.86a3.11,3.11,0,0,1,.27.33c.1.16.12.21.29.16s.59,0,.72-.15.13-.11,0-.29-.22-.26-.46-.37a.49.49,0,0,0-.54,0A1.05,1.05,0,0,0,81.66,299.86Z"></path>
      <path class="cls-66" d="M91,296.81s-2.18-1.61-4.11-.45-2.34,3-1.84,3.53a8.33,8.33,0,0,0,1,.61c.64.37,1.39-1.35,1.43-1.37Z"></path>
      <path class="cls-9" d="M92.73,299.06s-1.36-2.69-2.45-2.45S88,297,88,297l-.18.59s1.52,1.61,2,1.65,1.33,0,1.53.07A11,11,0,0,0,92.73,299.06Z"></path>
      <path class="cls-10" d="M92.73,299.44c0-.27,0-1-.69-1a11.14,11.14,0,0,0-1.46.05s-1.38,1.72-1.67,2-.52.32.55.36,1.1.31,2,0A2.67,2.67,0,0,0,92.73,299.44Z"></path>
      <path class="cls-11" d="M90.58,298.49a12.67,12.67,0,0,0-.94,1.54c-.35.72-.4.92-1.08.77s-2.29,0-2.84-.49-.53-.43-.2-1.28a3.23,3.23,0,0,1,1.7-1.72,1.8,1.8,0,0,1,2.1-.07A4.6,4.6,0,0,1,90.58,298.49Z"></path>
      <path class="cls-66" d="M79.35,299.34a2.72,2.72,0,0,0-2.6.94c-.81,1.27-.51,2.51-.06,2.67a6.2,6.2,0,0,0,.76.07c.5,0,.44-1.22.46-1.24S79.35,299.34,79.35,299.34Z"></path>
      <path class="cls-9" d="M81,300.18s-1.61-1.21-2.19-.75a15.29,15.29,0,0,1-1.28.91l.07.41a5.59,5.59,0,0,0,1.68.4c.29-.11.8-.37.94-.41A7,7,0,0,0,81,300.18Z"></path>
      <path class="cls-10" d="M81.16,300.41c-.07-.17-.26-.6-.71-.4a6.83,6.83,0,0,0-.86.47s-.32,1.43-.41,1.69-.22.35.43.06.76-.14,1.18-.6A1.86,1.86,0,0,0,81.16,300.41Z"></path>
      <path class="cls-11" d="M79.59,300.48a7.27,7.27,0,0,0-.11,1.2c0,.53,0,.67-.42.77s-1.38.69-1.85.55-.45-.1-.5-.71a2.13,2.13,0,0,1,.51-1.53,1.23,1.23,0,0,1,1.24-.67A3.24,3.24,0,0,1,79.59,300.48Z"></path>
    </g>
  </g>
</svg>
