<?xml version="1.0" encoding="UTF-8"?>
<svg xmlns="http://www.w3.org/2000/svg" xmlns:xlink="http://www.w3.org/1999/xlink" viewBox="0 0 110.12 222.01">
  <defs>
    <style>.cls-1,.cls-13,.cls-14{fill:none;}.cls-2{fill:#956d4b;}.cls-3{clip-path:url(#clip-path);}.cls-4{fill:url(#Безымянный_градиент_2);}.cls-5{fill:#754120;}.cls-6{fill:#44281c;}.cls-7{fill:#6c3c1d;}.cls-8{fill:#714d31;}.cls-9{fill:#613822;}.cls-10{fill:#7f5637;}.cls-11{fill:#a07850;}.cls-12{fill:#cfcecf;}.cls-13,.cls-14{stroke:#cfcecf;stroke-width:0.66px;}.cls-13{stroke-miterlimit:10;}.cls-14{stroke-linecap:round;stroke-linejoin:round;}.cls-15{fill:#e9c671;}.cls-16{fill:#8b5b3c;}.cls-17{fill:#84a63c;}.cls-18{fill:#708d34;}.cls-19{fill:#d7d7d7;}.cls-20{fill:#613922;}</style>
    <clipPath id="clip-path">
      <polygon class="cls-1" points="7.72 193.33 57.69 216.85 103.91 193.44 55.86 173.08 7.72 193.33"></polygon>
    </clipPath>
    <linearGradient id="Безымянный_градиент_2" x1="-3033.53" y1="482.06" x2="-3030.73" y2="482.06" gradientTransform="matrix(34.36, 0, 0, -34.36, 104216.77, 16756.92)" gradientUnits="userSpaceOnUse">
      <stop offset="0" stop-color="#a17551"></stop>
      <stop offset="0.38" stop-color="#a17551"></stop>
      <stop offset="0.89" stop-color="#7a4928"></stop>
      <stop offset="1" stop-color="#72401f"></stop>
    </linearGradient>
  </defs>
  <g id="Слой_2" data-name="Слой 2">
    <g id="Слой_1-2" data-name="Слой 1">
      <path class="cls-2" d="M57.69,150.69s9.62,11.3,17.06,11.77,32.81-7.57,32.81-7.57l2.56-26.43L57.69,110Z"></path>
      <path class="cls-2" d="M0,126.59l5.23,34.47s18.58,2.79,21.83,1.87,18.12-6.51,22.29-6.51,8.34-5.73,8.34-5.73V110Z"></path>
      <g class="cls-3">
        <rect class="cls-4" x="31.38" y="145.77" width="48.87" height="98.4" transform="translate(-141.86 240.24) rotate(-86.92)"></rect>
      </g>
      <path class="cls-5" d="M7.72,193.33,5.23,161.07s23.69-.47,30.19-3.72,22.27-6.66,22.27-6.66l-1.83,22.4Z"></path>
      <path class="cls-6" d="M41.49,163.07a8.56,8.56,0,0,0-2.84-1.67l0,0s-3.79-1.13-5.85,1.41-1.71,5.29-.77,5.74a12.57,12.57,0,0,0,1.63.34l.09,0a30.11,30.11,0,0,0,3.51-.8,1.56,1.56,0,0,0,.6-.16,6.26,6.26,0,0,0,.65-.19c1.49-.46,1.67-.12,2.69-1a4,4,0,0,0,1.09-2.55l-.21-.5h0l0,0a1,1,0,0,0-.58-.5"></path>
      <path class="cls-6" d="M21.2,166.4a10.77,10.77,0,0,0-4,1.32v0s-4.3,2.7-3.59,6.85,3.66,6.13,4.88,5.6a14.71,14.71,0,0,0,1.71-1.28l0-.14c.92-1.05,1.59-3.16,2.21-4.05a2,2,0,0,0,.35-.72c.11-.2.21-.42.38-.79.8-1.81,1.28-1.71,1.29-3.45a5.09,5.09,0,0,0-1.54-3.21,3.29,3.29,0,0,0-.66-.23v0h-.08a1.27,1.27,0,0,0-1,.14"></path>
      <path class="cls-7" d="M57.69,150.69l-1.83,22.39,48.06,20.37,3.64-38.56s-15-1.72-21.48-.8S68.24,157.81,64.84,156a44.41,44.41,0,0,1-7.15-5.26"></path>
      <path class="cls-6" d="M39.39,173.7a3.29,3.29,0,0,0-1.26-.31h0a2.31,2.31,0,0,0-2,1.18c-.49,1.19-.05,2.18.35,2.24l.65-.05,0,0a10.59,10.59,0,0,0,1.23-.69l.21-.13.22-.14c.51-.34.61-.24.9-.68a1.59,1.59,0,0,0,.12-1.08l-.13-.16h0Z"></path>
      <path class="cls-6" d="M86.47,164.06a2.27,2.27,0,0,0-.11-.89h0s-.38-1-1.27-1-1.43.5-1.38.78l.2.4,0,0,.75.63.13.1.15.11c.35.25.3.34.66.41a1.08,1.08,0,0,0,.74-.18l.07-.13h0Z"></path>
      <path class="cls-6" d="M99.89,180.24a10.91,10.91,0,0,0-1.9-3.81l0,0s-3.32-3.9-7.36-2.59-5.59,4.54-4.88,5.68A15.32,15.32,0,0,0,87.3,181h.14c1.19.77,3.39,1.14,4.37,1.62a2.18,2.18,0,0,0,.77.25c.22.08.45.15.84.26,1.93.54,1.9,1,3.64.79a5.15,5.15,0,0,0,3-2,4.06,4.06,0,0,0,.13-.69h0l0-.07a1.27,1.27,0,0,0-.28-1"></path>
      <path class="cls-6" d="M73.78,167a8.44,8.44,0,0,0-1.87,2.68h0s-1.4,3.66,1,5.89,5.11,2.09,5.62,1.19a12.49,12.49,0,0,0,.46-1.59l0-.09a27.58,27.58,0,0,0-.52-3.53,1.78,1.78,0,0,0-.12-.62l-.13-.65c-.35-1.5,0-1.66-.81-2.74a3.94,3.94,0,0,0-2.44-1.26l-.51.16h0l0,0a1,1,0,0,0-.54.54"></path>
      <path class="cls-8" d="M74,194.34a1.59,1.59,0,0,0,1.57-.42c.54-.7.43-1.43.17-1.55l-.44-.08c-.29,0-.32.69-.33.7Z"></path>
      <path class="cls-9" d="M73,193.76s.87.79,1.23.55.8-.47.8-.47l0-.24-1-.32-.56.19Z"></path>
      <path class="cls-10" d="M73,193.62c0,.1.12.36.4.27a4.1,4.1,0,0,0,.52-.23l.33-1c.06-.15.14-.19-.25-.06s-.45,0-.72.29a1.07,1.07,0,0,0-.28.69"></path>
      <path class="cls-11" d="M73.88,193.66A5.25,5.25,0,0,0,74,193c0-.31,0-.39.28-.43s.84-.33,1.11-.23.26.09.26.44a1.24,1.24,0,0,1-.39.87.68.68,0,0,1-.75.32,1.87,1.87,0,0,1-.64-.28"></path>
      <path class="cls-8" d="M63.28,188.21s2.39.13,3.24-1.67.26-3.36-.36-3.49a7.39,7.39,0,0,0-1,0c-.66,0-.37,1.67-.39,1.7Z"></path>
      <path class="cls-9" d="M60.93,187.39s2.3,1.32,3,.61,1.53-1.4,1.53-1.4l-.15-.52a7.25,7.25,0,0,0-2.27-.24c-.36.19-1,.61-1.16.69Z"></path>
      <path class="cls-10" d="M60.74,187.11c.11.21.43.74,1,.4a8.38,8.38,0,0,0,1.05-.75s.18-1.93.26-2.28.22-.49-.58,0-1,.31-1.44,1a2.38,2.38,0,0,0-.28,1.65"></path>
      <path class="cls-11" d="M62.78,186.76a10.92,10.92,0,0,0-.05-1.58c-.09-.7-.16-.88.42-1.09s1.68-1.13,2.32-1,.6.07.77.85a2.85,2.85,0,0,1-.41,2.09,1.59,1.59,0,0,1-1.52,1.07,4,4,0,0,1-1.53-.31"></path>
      <path class="cls-8" d="M53.32,196s1.86,1.41,3.54.43,2-2.58,1.62-3a6,6,0,0,0-.84-.53c-.55-.33-1.21,1.15-1.25,1.16Z"></path>
      <path class="cls-9" d="M51.86,194s1.15,2.33,2.08,2.14,2-.29,2-.29l.16-.51s-1.29-1.4-1.7-1.44-1.14,0-1.32-.07Z"></path>
      <path class="cls-10" d="M51.86,193.7c0,.23,0,.83.59.87a10.13,10.13,0,0,0,1.26,0l1.46-1.71c.25-.24.45-.27-.47-.32s-1-.27-1.7,0a2.39,2.39,0,0,0-1.14,1.19"></path>
      <path class="cls-11" d="M53.71,194.54a10.69,10.69,0,0,0,.83-1.32c.3-.61.35-.79.93-.64s2,0,2.44.44.45.38.17,1.1a2.78,2.78,0,0,1-1.49,1.47,1.54,1.54,0,0,1-1.81,0,4.06,4.06,0,0,1-1.07-1.09"></path>
      <path class="cls-8" d="M49,189.54a2.67,2.67,0,0,0,.1-2.73c-.86-1.21-2.11-1.39-2.41-1l-.35.67c-.22.44,1,.85,1,.88Z"></path>
      <path class="cls-9" d="M47.63,190.78s1.7-1,1.49-1.73a15.08,15.08,0,0,1-.35-1.51l-.4-.09s-1,1.08-1,1.39,0,.88,0,1Z"></path>
      <path class="cls-10" d="M47.39,190.8c.18,0,.63,0,.62-.5a7.72,7.72,0,0,0-.11-1l-1.4-1c-.2-.18-.23-.32-.21.38s-.15.74.12,1.29a1.79,1.79,0,0,0,1,.79"></path>
      <path class="cls-11" d="M47.9,189.34a7.93,7.93,0,0,0-1.06-.54c-.49-.2-.62-.22-.55-.68s-.13-1.51.17-1.89.26-.37.84-.2a2.16,2.16,0,0,1,1.21,1,1.19,1.19,0,0,1,.15,1.38,3,3,0,0,1-.76.89"></path>
      <path class="cls-8" d="M40.56,191.55a1.15,1.15,0,0,0,.38-1.11c-.2-.61-.69-.85-.86-.74l-.23.23.29.49Z"></path>
      <path class="cls-9" d="M39.82,191.89s.83-.21.84-.53,0-.67,0-.67l-.15-.09-.58.45-.12.43Z"></path>
      <path class="cls-10" d="M39.71,191.87l.33-.13.08-.41-.46-.6c-.06-.09,0-.16-.13.13s-.16.29-.12.55a.81.81,0,0,0,.3.46"></path>
      <path class="cls-11" d="M40.12,191.33l-.37-.36-.15-.35.32-.76.37,0a.92.92,0,0,1,.37.58.5.5,0,0,1-.12.59Z"></path>
      <path class="cls-8" d="M38,196.23s1.64-2.64.13-4.73-3.65-2.39-4.18-1.77a8.24,8.24,0,0,0-.6,1.17c-.37.77,1.66,1.45,1.69,1.5Z"></path>
      <path class="cls-9" d="M35.56,198.38s2.94-1.8,2.56-3-.63-2.61-.63-2.61l-.69-.15s-1.69,1.88-1.69,2.42.08,1.52.06,1.75Z"></path>
      <path class="cls-10" d="M35.13,198.42c.31,0,1.1,0,1.07-.87a12.45,12.45,0,0,0-.19-1.67s-2.09-1.41-2.44-1.71-.41-.56-.36.65-.25,1.29.21,2.25a3.15,3.15,0,0,0,1.71,1.35"></path>
      <path class="cls-11" d="M36,195.88a14.22,14.22,0,0,0-1.84-.93c-.85-.33-1.08-.37-1-1.15s-.23-2.61.29-3.28.45-.64,1.44-.35A3.69,3.69,0,0,1,37.05,192a2.07,2.07,0,0,1,.27,2.39A5.23,5.23,0,0,1,36,195.88"></path>
      <path class="cls-12" d="M52.28,146.55s.43-2.47,3.93-.66c0,0,.25.37,1.09,0s2.8-1.37,4.8-.81c0,0,1.07-1.94,3.27,0,0,0,2.26.25,2.3,2.06L68,148.2s0,2.61-3.37,1.91a1.74,1.74,0,0,1-2.12,1.36l-.74.54a2.19,2.19,0,0,1-3.34.47,3,3,0,0,0-1.85-.52c-1.11.07-1.38-.57-1.79-1a7.26,7.26,0,0,0-1.23-.91,2,2,0,0,1-.42-1.54C53.27,147.89,52,147.38,52.28,146.55Z"></path>
      <path class="cls-13" d="M42.16,148.64s1.59-1.66,4.91-.75a8.81,8.81,0,0,0,6.45-1.15"></path>
      <path class="cls-13" d="M38.12,157.52s2.64-5.43,11.45-5.27c5,.1,4.38-4,4.38-4"></path>
      <path class="cls-12" d="M53.36,151.15a5.36,5.36,0,0,1-3,.74,4.4,4.4,0,0,1-1.51-.33,5.59,5.59,0,0,1-1.34-.78.33.33,0,0,1,.39-.53h0l0,0a5.05,5.05,0,0,0,1.15.75,3.74,3.74,0,0,0,1.32.35,4.91,4.91,0,0,0,2.71-.54h0a.19.19,0,0,1,.26.08A.19.19,0,0,1,53.36,151.15Z"></path>
      <path class="cls-13" d="M58.21,151.09A7.71,7.71,0,0,0,54,157.52"></path>
      <path class="cls-13" d="M53.52,160.15c-.74,3.3-.91,3.95-.91,3.95"></path>
      <path class="cls-13" d="M57.08,166.16s-5-3.63-3.14-7.08"></path>
      <path class="cls-14" d="M59.77,152.09s-1.33,2.14-.62,3.45a7.92,7.92,0,0,0,2,2.8,7.67,7.67,0,0,1,2,3.79,6.48,6.48,0,0,0,1.39,2.72"></path>
      <path class="cls-13" d="M62.79,161s1,2,5.19,3.14"></path>
      <path class="cls-13" d="M59.57,156.35s1.41,1.42.93,2.73-1.62,5.35-.93,6.51"></path>
      <path class="cls-13" d="M61.74,150.52s.39,4.2,2.17,4.45"></path>
      <path class="cls-13" d="M63.91,150.52A5.13,5.13,0,0,0,68,152.87c2.9.21,4.38,7.28,4.38,7.28"></path>
      <path class="cls-13" d="M66.5,147.69a11.46,11.46,0,0,0,6.47.53c3.67-.74,5.24,1.15,5.24,1.15"></path>
      <path class="cls-13" d="M72,148.37s2.28,1.39,1.82,2.72"></path>
      <ellipse class="cls-15" cx="35.2" cy="158.49" rx="5.66" ry="3.28" transform="translate(-80.02 44.11) rotate(-32.69)"></ellipse>
      <path class="cls-15" d="M39.62,152.57a8.73,8.73,0,0,0-1.5.48c-1.26.52-4.2,1.33-4.74-1-.69-3,5.09-4.58,5.73-4.86,1.15-.49,6.31.4,3.46,3.86A5.68,5.68,0,0,1,39.62,152.57Z"></path>
      <path class="cls-15" d="M50.24,156.56s-3.55.52-4.1,2.35,0,2.83.79,3.44a2.83,2.83,0,0,0,3.94-.33c1.6-1.55,3.72-2.94,4.08-3.72.23-.5.56-3-1.86-3.12S51.65,156.22,50.24,156.56Z"></path>
      <path class="cls-15" d="M55.63,168.18a2.23,2.23,0,0,1-.69-1.48,2,2,0,0,1,1.49-2c2.33-1,5.65.29,6.6,1.2s2.91,2.64-.05,4.18C60.36,171.44,57,169.58,55.63,168.18Z"></path>
      <path class="cls-15" d="M62.29,155.25s-.19-4,3-2.5,3.34,6.26,2,6.67S63,160.22,62.29,155.25Z"></path>
      <path class="cls-15" d="M76.21,150.05s.39-2.46,2.42-3,5.91,1,6.34,1.49,3.5,3,4.43,5.74,0,6.84-5.42,3.57S76.5,153.61,76.21,150.05Z"></path>
      <path class="cls-15" d="M71.37,161.53a2.44,2.44,0,0,1,1.84-3.67c3.3-.77,3.43.42,3.43.42s5,2.09,5.79,5-2.83,5.84-6.88,3.08S71.37,161.53,71.37,161.53Z"></path>
      <path class="cls-15" d="M57,159.55a4,4,0,0,0-1,3c.09,1,.58,1.85,2.23,1.3,3-1,3.78-3,3.63-3.45s-.38-4.31-3.63-2A7,7,0,0,0,57,159.55Z"></path>
      <path class="cls-15" d="M53.18,166c.44-.67,1.83-3-1-2.88a1.19,1.19,0,0,0-1,1.7l0,0c.55,1,.65,2.25,1.75,1.46A1.3,1.3,0,0,0,53.18,166Z"></path>
      <path class="cls-15" d="M69.72,163.9s1.6,2.67-.84,2.26-1.51-3.32-.74-3.06S69.2,162.29,69.72,163.9Z"></path>
      <path class="cls-15" d="M75.31,149.42a2,2,0,0,0-2.73,2.3c.37,1.6,1.27,4,3.08,1.35C76.93,151.22,76.34,149.93,75.31,149.42Z"></path>
      <path class="cls-15" d="M46.05,151.09c-.37-.36-.47-2.49,1.48-1.9S47.88,152.88,46.05,151.09Z"></path>
      <path class="cls-15" d="M58.21,157.6s.78-3-2.12-1.64S56.64,161.05,58.21,157.6Z"></path>
      <polygon class="cls-16" points="0 126.59 57.69 150.69 110.12 128.46 57.69 109.97 0 126.59"></polygon>
      <path class="cls-17" d="M57.21,0s-3.75,6.43,1.18,10.82A4.56,4.56,0,0,0,60.1,5.41C58.82,1.93,57.1,2.25,57.21,0Z"></path>
      <path class="cls-18" d="M57.64,12.11s.86-3.64-4.61-3c0,0-1.39.86-4.18-1C48.85,8.15,51.53,16.72,57.64,12.11Z"></path>
      <path class="cls-17" d="M58.39,10.82s3.86-4,6.21-2.67,2.9,2,4.08,1.82S62.25,17.68,58.39,10.82Z"></path>
      <path class="cls-17" d="M58.13,15.75S52,13.29,55,24.11c0,0,2.28.86,2.73-3.75Z"></path>
      <path class="cls-17" d="M67.5,14.25s-4.69,5.58,1.3,9.11a4,4,0,0,0,.84-4.55C68.36,16.29,67.07,15.33,67.5,14.25Z"></path>
      <path class="cls-17" d="M71.57,18.81s-3.11-5.09.86-7.13,5.36,1.79,5.36,1.79a3,3,0,0,0-2.47,3.36C75.43,19.83,71.57,18.81,71.57,18.81Z"></path>
      <path class="cls-17" d="M71.79,19.84s4.28-2.05,7.28,3.52C79.07,23.36,73.13,25.19,71.79,19.84Z"></path>
      <path class="cls-17" d="M67.07,27.76s-.43-4.81,8.36-3.58C75.43,24.18,75.32,32.47,67.07,27.76Z"></path>
      <path class="cls-18" d="M48.85,35.9s-.47-5.68,5.29-5.57C54.14,30.33,55,34.62,48.85,35.9Z"></path>
      <path class="cls-17" d="M61.39,39.55A1.66,1.66,0,0,0,61,38.11c-.5-.62-1.59-1.26-3.93-1.46-5-.43-4.61-1.5-4.61-1.5S53.67,45.87,61.39,39.55Z"></path>
      <path class="cls-18" d="M67.9,38.69s2.81-4-.83-6.75C67.07,31.94,64.24,36.33,67.9,38.69Z"></path>
      <path class="cls-17" d="M64.07,40.42s4.71-2.91,5.46,4.27C69.53,44.69,64.82,45.79,64.07,40.42Z"></path>
      <path class="cls-17" d="M76.26,51.58s-3.54-4.17,1.28-8.14C77.54,43.44,81.29,49.44,76.26,51.58Z"></path>
      <path class="cls-17" d="M83.65,39.13S85,36,80.11,35.07s-4.17-2.35-4.17-2.35S75.51,43.18,83.65,39.13Z"></path>
      <path class="cls-17" d="M84.83,35.07s2.14-3.42-2-5.08a12.68,12.68,0,0,1-2-1.56C80.33,27.89,77.76,35,84.83,35.07Z"></path>
      <path class="cls-17" d="M85.72,48s-3.14-7.22,2-8.91a37.06,37.06,0,0,0,.33,4C88.26,44.08,89.94,47.19,85.72,48Z"></path>
      <path class="cls-18" d="M86.66,48.84a5.14,5.14,0,0,0,4.92,4.72A20.31,20.31,0,0,0,90,48.84C89.12,47.51,86.25,47.23,86.66,48.84Z"></path>
      <path class="cls-17" d="M81.78,74.62s-2.56-9.29-10.35-4C71.43,70.62,74.17,77.94,81.78,74.62Z"></path>
      <path class="cls-18" d="M58.27,10.73a1.83,1.83,0,0,1,.19,1.09,9.55,9.55,0,0,1-.16,1,9.64,9.64,0,0,0-.16,1.85,13,13,0,0,0,.67,3.69c.18.6.43,1.19.64,1.78s.5,1.17.77,1.74l.85,1.71L62,25.25a18,18,0,0,1,1.63,3.62,14,14,0,0,1,.65,4,20.1,20.1,0,0,1-1.58,7.78c-.94,2.45-2.1,4.76-3.12,7.09-.51,1.17-1,2.34-1.38,3.52a20.32,20.32,0,0,0-.88,3.58A20.71,20.71,0,0,0,58,62.11c.6,2.44,1.42,4.86,2.23,7.3s1.63,4.91,2.25,7.47a32,32,0,0,1,1,7.9c0,.67,0,1.35-.09,2l-.11,1-.16,1c-.2,1.31-.48,2.59-.77,3.86-.59,2.54-1.28,5-1.8,7.48a47.16,47.16,0,0,0-1,7.44A46.67,46.67,0,0,0,59.8,115l.25,1.87.29,1.9.59,3.81.59,3.81.3,1.91.14,1,.07.48,0,.24,0,.12v.1c-1.34.12,3-.23-3,.46a1.5,1.5,0,0,1,3-.49c-6,.71-1.64.32-3,.42v-.08l0-.11,0-.24-.07-.47-.13-1-.27-1.91L58.06,123l-.53-3.82-.26-1.91-.23-2a47,47,0,0,1,1-15.75c.59-2.56,1.32-5,1.93-7.5.3-1.23.59-2.46.8-3.69l.16-.92.12-.91c.06-.6.11-1.21.11-1.82a30,30,0,0,0-.86-7.38C59.78,74.92,59,72.49,58.24,70s-1.56-4.93-2.15-7.5a22.65,22.65,0,0,1-.54-8A29.59,29.59,0,0,1,58.06,47c1.08-2.36,2.27-4.64,3.21-7A19.75,19.75,0,0,0,63,32.84a13.56,13.56,0,0,0-.46-3.64,16.84,16.84,0,0,0-1.4-3.46L60.21,24l-.81-1.77c-.26-.6-.49-1.21-.73-1.82s-.44-1.23-.6-1.86a13.56,13.56,0,0,1-.58-3.91,10,10,0,0,1,.24-2,2.65,2.65,0,0,0,.08-1.7h0a.27.27,0,0,1,.11-.36.28.28,0,0,1,.36.11Z"></path>
      <path class="cls-18" d="M63.34,30.77a33.21,33.21,0,0,0,2.88-2.93,29.07,29.07,0,0,0,2.49-3.27,17.39,17.39,0,0,0,1.81-3.67,13.12,13.12,0,0,0,.53-2,12.73,12.73,0,0,0,.17-2.06,8.71,8.71,0,0,1-.14,4.21A15.3,15.3,0,0,1,69.38,25a24.06,24.06,0,0,1-2.47,3.45,25.92,25.92,0,0,1-3,3,.45.45,0,0,1-.62-.05.44.44,0,0,1,0-.62Z"></path>
      <path class="cls-18" d="M61,41.52c.89-.26,1.8-.58,2.68-.93a27.52,27.52,0,0,0,2.59-1.19,18.82,18.82,0,0,0,2.43-1.49,10.22,10.22,0,0,0,2.07-2,10.16,10.16,0,0,1-1.87,2.22A18.34,18.34,0,0,1,66.61,40a26.4,26.4,0,0,1-2.51,1.5c-.87.46-1.73.89-2.66,1.28A.64.64,0,1,1,61,41.55l.06,0Z"></path>
      <path class="cls-18" d="M42,40.74a17.9,17.9,0,0,1,1.93,2.83,20.71,20.71,0,0,1,1.43,3.1c.2.53.36,1.09.53,1.62s.32,1.05.51,1.56a18.85,18.85,0,0,0,1.4,2.94,20.14,20.14,0,0,0,4.16,5,23.62,23.62,0,0,0,5.42,3.48h0A1,1,0,0,1,56.6,63l-.06,0A31.07,31.07,0,0,1,53.62,61,23.27,23.27,0,0,1,51,58.83a22.94,22.94,0,0,1-4.15-5.49,21,21,0,0,1-1.36-3.16c-.18-.54-.33-1.09-.47-1.64s-.28-1.06-.45-1.58a18.4,18.4,0,0,0-3-5.76l0,0a.35.35,0,0,1,.06-.49A.36.36,0,0,1,42,40.74Z"></path>
      <path class="cls-18" d="M45.39,49.14a17.06,17.06,0,0,0,1.68-3.43A17.28,17.28,0,0,0,48,42a27.67,27.67,0,0,0,.11-3.87c0-.65-.08-1.29-.17-1.93a9.51,9.51,0,0,0-.42-1.84v0a.28.28,0,0,1,.17-.36.29.29,0,0,1,.36.16,9.87,9.87,0,0,1,.49,2c.1.66.16,1.32.2,2a26.46,26.46,0,0,1-.05,4,18.52,18.52,0,0,1-.88,3.9,18.06,18.06,0,0,1-1.72,3.64.4.4,0,1,1-.68-.43h0Z"></path>
      <path class="cls-18" d="M58.94,70.09a13.58,13.58,0,0,0,1.7-1.93,18.17,18.17,0,0,0,1.28-2.08c.46-.89.88-1.86,1.45-3a38,38,0,0,0,1.93-4,.11.11,0,0,0,0,0,.7.7,0,0,1,.75-.51.5.5,0,0,1,.42.68c-.47,1.34-1.39,3.12-2,4.31s-1,2.22-1.42,3.2a17.39,17.39,0,0,1-1.29,2.31A11.35,11.35,0,0,1,60,71.26a.79.79,0,0,1-1.11,0,.76.76,0,0,1,0-1.09s0,0,0,0Z"></path>
      <path class="cls-18" d="M61.66,81a34.31,34.31,0,0,0,5.51-4.78,19.33,19.33,0,0,0,2.22-2.83,13,13,0,0,0,.86-1.54l.35-.81.33-.88c1.78-4.71,3.71-9.34,5.64-14s4-9.19,5.92-13.82c1-2.32,1.9-4.64,2.68-7a7.25,7.25,0,0,0,.27-.87c.08-.28.16-.59.24-.9.16-.62.33-1.24.55-1.84s.45-1.2.72-1.79a11.28,11.28,0,0,1,1-1.7.41.41,0,0,1,.58-.09.4.4,0,0,1,.09.56v0a10.11,10.11,0,0,0-.86,1.56,17.74,17.74,0,0,0-.66,1.71c-.19.58-.35,1.18-.5,1.78-.06.29-.13.6-.22.92s-.16.62-.26.92c-.77,2.42-1.68,4.76-2.58,7.1-1.82,4.68-3.78,9.32-5.67,13.94s-3.7,9.31-5.38,14l-.31.88-.38.94a14,14,0,0,1-.94,1.75,21.23,21.23,0,0,1-2.35,3.12,36.6,36.6,0,0,1-5.74,5.16A1,1,0,1,1,61.62,81h0Z"></path>
      <path class="cls-18" d="M80.47,48.35a17.92,17.92,0,0,0,3.19,0,21.74,21.74,0,0,0,3.19-.56c1.05-.26,2.06-.65,3.12-1,.52-.18,1.06-.33,1.6-.46a7.17,7.17,0,0,1,.83-.15,1.71,1.71,0,0,1,.45,0,.54.54,0,0,1,.25.09.29.29,0,0,1,.1.35s0,0,0,0h0L93,46.49s0,0,0,0a.35.35,0,0,0-.13,0,1.56,1.56,0,0,0-.37,0,7.31,7.31,0,0,0-.78.18c-.52.16-1,.34-1.54.54-1,.4-2,.86-3.1,1.19a22.37,22.37,0,0,1-3.26.76,17.16,17.16,0,0,1-3.38.22.5.5,0,0,1-.49-.52.51.51,0,0,1,.52-.49h.06Z"></path>
      <path class="cls-18" d="M77.76,54.62a18.32,18.32,0,0,1-1.59-1.87c-.48-.65-.94-1.32-1.35-2a24,24,0,0,1-2-4.36A.28.28,0,0,1,73,46a.27.27,0,0,1,.34.15h0a21.37,21.37,0,0,0,1,2.1,19.89,19.89,0,0,0,1.23,2A21.41,21.41,0,0,0,77,52.11a17.7,17.7,0,0,0,1.59,1.64l0,0a.59.59,0,1,1-.78.88Z"></path>
      <path class="cls-18" d="M58.16,113.76a7.09,7.09,0,0,0,.73-.25q.38-.17.75-.36a10.83,10.83,0,0,0,1.42-.93,11.68,11.68,0,0,0,2.35-2.51A18.67,18.67,0,0,0,66,103.15,36.32,36.32,0,0,1,68.25,96a14.73,14.73,0,0,1,4.83-5.81l0,0a4.79,4.79,0,0,1,.77-.48c.25-.14.51-.26.77-.38.51-.22,1-.43,1.56-.6a31,31,0,0,1,3.2-.87c.54-.13,1.08-.21,1.62-.32l1.63-.25,1.63-.21L85.87,87a.32.32,0,0,1,.35.29.31.31,0,0,1-.28.34h0l-1.61.2L82.71,88l-1.59.29c-.53.12-1.06.22-1.59.36a24.83,24.83,0,0,0-3.08.92,12.63,12.63,0,0,0-1.47.61c-.24.11-.47.23-.7.36a4.46,4.46,0,0,0-.6.39l0,0a13.7,13.7,0,0,0-4.35,5.51,35.17,35.17,0,0,0-2,7,32.5,32.5,0,0,1-1,3.63,15.76,15.76,0,0,1-1.69,3.48,13.05,13.05,0,0,1-2.6,2.91,10.29,10.29,0,0,1-1.63,1.13,9.51,9.51,0,0,1-.9.46l-.47.19c-.17.06-.31.12-.53.18a.86.86,0,0,1-1-.62.85.85,0,0,1,.61-1h0Z"></path>
      <path class="cls-17" d="M46.78,53.62S40.46,52.44,41,60.69a5.54,5.54,0,0,0,3.53,4.82s-1-2.25.79-3.11S49.36,57.05,46.78,53.62Z"></path>
      <path class="cls-17" d="M73.51,63.65S79.44,57.9,84.44,65C84.44,65,75.72,69.58,73.51,63.65Z"></path>
      <path class="cls-17" d="M65.61,61.45s6.57,2.74,2.68,9.74C68.29,71.19,60.36,67.1,65.61,61.45Z"></path>
      <path class="cls-17" d="M62.18,91.66s1.79-8,5.5-8.57C67.68,83.09,68.72,94.41,62.18,91.66Z"></path>
      <path class="cls-17" d="M58.07,112.77s.43-3.39-3.93-3.32a2.13,2.13,0,0,1-2.82-1.75S50.71,117.49,58.07,112.77Z"></path>
      <path class="cls-17" d="M83.83,87.23s1.43-5.54,4.64-5.71,5.93-.36,6.15,6.53c0,0-3.4-3.46-6.57-1.1S83.83,87.23,83.83,87.23Z"></path>
      <path class="cls-17" d="M87.08,86.84s-3.43,6.43,4.18,10.64C91.26,97.48,94.51,88.7,87.08,86.84Z"></path>
      <path class="cls-17" d="M85.51,98.52a11.6,11.6,0,0,1-2.07-6.36c-.21-3.21-2.36-3.75-3.58-3.79a4.2,4.2,0,0,0-.82,0S74.79,99.52,85.51,98.52Z"></path>
      <path class="cls-17" d="M80.08,87.59s2.11-6.4-6.68-5.36c0,0-5.54,1.89-3.86,7a2.26,2.26,0,0,1,3.25-1.13A9,9,0,0,0,80.08,87.59Z"></path>
      <path class="cls-17" d="M72.43,91.23s6.18-.91,4.43,7.35c0,0-1.6-2.54-2.82-2.76S73.18,91.59,72.43,91.23Z"></path>
      <path class="cls-17" d="M68.18,96.45s-3.36,8.5,7.9,7.29A6.37,6.37,0,0,1,73,99.63,4.32,4.32,0,0,0,68.18,96.45Z"></path>
      <path class="cls-17" d="M65.29,108.92s4.39-1.68,4.36,4.32,1.11,5.5,1.11,5.5S62,118.63,65.29,108.92Z"></path>
      <path class="cls-17" d="M65.25,59.94c.18-.18-2-3.47-3-4.65s-1.74-4.5-1.74-4.5-1.55.32-1.15,6.11S62.23,62.89,65.25,59.94Z"></path>
      <path class="cls-17" d="M77,57.15s1.06-3.86,6.88-1.61c0,0-.13,1.06,2.79-.7C86.62,54.84,83.74,66.15,77,57.15Z"></path>
      <path class="cls-17" d="M66,58.65s4.17-1.5,2.73-5.68a6.67,6.67,0,0,1,.88-6.53s3.94,2.29,4.09,6.28c.13,3.51-.59,8.14-5.25,8.18a2.45,2.45,0,0,1-2.38-2C66.07,58.85,66.05,58.75,66,58.65Z"></path>
      <path class="cls-17" d="M87.72,47.51s6.76-9.43,9.65-.43a21.27,21.27,0,0,0-4.18,1C92.12,48.58,91.8,49.76,87.72,47.51Z"></path>
      <path class="cls-17" d="M85.38,36.39s7.7,4.27,9.2-4a40.9,40.9,0,0,1-5.57.32C87.26,32.57,85.29,34.81,85.38,36.39Z"></path>
      <path class="cls-17" d="M86.12,32.72s-3-7.93,7.61-6.22a23.32,23.32,0,0,0-2.58,4C90.83,31.54,89.44,32.4,86.12,32.72Z"></path>
      <path class="cls-17" d="M71,38.57S67.9,44.51,73.79,48C73.79,48,76.62,42.22,71,38.57Z"></path>
      <path class="cls-17" d="M58.07,28.87s6,5.4,4.65,7.87a11.73,11.73,0,0,1-3.54-1.18C58.11,34.81,55.88,31.71,58.07,28.87Z"></path>
      <path class="cls-17" d="M54.07,44.89s1.43,10.87-5.93,9.37c0,0-2.21-5.63,1.86-7.5S53,46.23,54.07,44.89Z"></path>
      <path id="_1" data-name="1" class="cls-17" d="M47.29,26.59S41.72,32,48.36,36.65a6.34,6.34,0,0,0,0-7.44C46.85,26.82,47.29,26.59,47.29,26.59Z"></path>
      <path class="cls-17" d="M48.72,41.26s-5.14.86-5.56-7a24.51,24.51,0,0,0,3.43,2.89A3.89,3.89,0,0,1,48.72,41.26Z"></path>
      <path class="cls-17" d="M45.19,46.08s-.53-3-5.57-1.6-3.75-.21-4.5-.37S38.65,55,45.19,46.08Z"></path>
      <path class="cls-17" d="M42.62,41.62s-1.87-5.81-8.21-2.21C34.41,39.41,39.78,46.33,42.62,41.62Z"></path>
      <path class="cls-17" d="M34.41,63.1s-3,10.13,7,9.38c0,0,2-6-2.16-7.47C36,63.86,34.41,63.1,34.41,63.1Z"></path>
      <path class="cls-17" d="M50.17,70.23s-9.72,1.07-6.36,8.71c0,0,4.34.93,5-2.85S49,70.8,50.17,70.23Z"></path>
      <path class="cls-17" d="M43.11,78.8s-6.3,4.36-10.8-2.43c0,0,4.13-.68,5.63-2.28S44.19,75.66,43.11,78.8Z"></path>
      <path class="cls-17" d="M47.54,87s-3-4.87,5.35-7.9a31,31,0,0,0-.41,5.72C52.74,86.09,49,89.16,47.54,87Z"></path>
      <path class="cls-17" d="M45.31,86.23s-2.56,3.94-3.42,5-5.21,1.94-6.86.06c0,0,2.42-.65,3.78-4.09S43.73,84.23,45.31,86.23Z"></path>
      <path class="cls-17" d="M51.89,92.09s-2.5-3.43,1.64-5.79,3.94-4.84,3.94-4.84S62.67,91.45,51.89,92.09Z"></path>
      <path class="cls-17" d="M50.86,92.16a4,4,0,0,0-4.22.79c-2.26,1.78-3.38.52-3.38.52S47.91,99.38,50.86,92.16Z"></path>
      <path class="cls-17" d="M54.7,96.09a8.13,8.13,0,0,0-5,4.9c-1.9,4.72-4.51,3.53-4.8,3.25a6.93,6.93,0,0,0,9.82-.93C58.12,99.63,54.7,96.09,54.7,96.09Z"></path>
      <path class="cls-18" d="M40.17,70.64a1.47,1.47,0,0,1,0-.6s.11-.06.13,0l.06.06a.51.51,0,0,1,.09.13,2.2,2.2,0,0,1,.15.26c.18.35.33.72.48,1.08.3.73.57,1.47.83,2.2.54,1.48,1,3,1.47,4.47a26.75,26.75,0,0,0,3.95,8.27,22.91,22.91,0,0,0,3.14,3.32c1.15,1,2.39,1.94,3.62,3a17.75,17.75,0,0,1,3.33,3.53,15.08,15.08,0,0,1,2,4.48.65.65,0,0,1-.44.8.64.64,0,0,1-.79-.44l0-.05A13.5,13.5,0,0,0,56.31,97a17.59,17.59,0,0,0-3.06-3.29c-1.17-1-2.43-2-3.6-3a22.24,22.24,0,0,1-3.22-3.56,27.15,27.15,0,0,1-3.84-8.69l-1.2-4.53q-.3-1.12-.63-2.25c-.11-.38-.22-.75-.35-1.11a2.18,2.18,0,0,0-.11-.27c0-.08-.12-.19-.09-.17A1.62,1.62,0,0,0,40.17,70.64Z"></path>
      <path class="cls-19" d="M77,45.05s.94-1.82-.65-2.72C76.35,42.33,75.21,44.16,77,45.05Z"></path>
      <path class="cls-19" d="M77,45.05a1.72,1.72,0,0,0-2.24,2,5,5,0,0,1,1.33-.73C76.59,46.17,76.79,45.64,77,45.05Z"></path>
      <path class="cls-19" d="M77,45.05s-.45,2,1,2.52c0,0,.45-1.41,0-1.86S77.26,45.09,77,45.05Z"></path>
      <path class="cls-19" d="M77,45.05s.84-2.13,2.12-1.68C79.12,43.37,79.32,45.92,77,45.05Z"></path>
      <path class="cls-19" d="M73.41,42s1.37-3.21,3.76-1.87a18.7,18.7,0,0,0-1.29,1.75C75.42,42.62,73.41,42,73.41,42Z"></path>
      <path class="cls-19" d="M73.41,42s1.51-3-2-3.11c0,0-.68,1.88,1,2.43C72.44,41.33,73.25,41.65,73.41,42Z"></path>
      <path class="cls-19" d="M73.41,42a2.22,2.22,0,0,0-3.36,1.61A2.77,2.77,0,0,0,73.41,42Z"></path>
      <path class="cls-19" d="M73.41,42a2.33,2.33,0,0,0,1.1,3.43S76.07,42.65,73.41,42Z"></path>
      <path class="cls-19" d="M70.79,35.93s.3-2,2-1.82A1.57,1.57,0,0,1,70.79,35.93Z"></path>
      <path class="cls-19" d="M70.79,35.93s1.89.35.8,2.16C71.59,38.09,69.64,37.26,70.79,35.93Z"></path>
      <path class="cls-19" d="M70.79,35.93s-.72,1.23-1.59,1.4-1,.75-1,.76S67.79,34.75,70.79,35.93Z"></path>
      <path class="cls-19" d="M70.79,35.93s-2.36-.56-.88-2.93C69.91,33,71.85,34.46,70.79,35.93Z"></path>
      <path class="cls-19" d="M67.21,59s.08-1.5,2.4-1.65C69.61,57.38,69.07,60.28,67.21,59Z"></path>
      <path class="cls-19" d="M67.21,59s.86-2.18-.82-2.83C66.39,56.2,64.78,58.2,67.21,59Z"></path>
      <path class="cls-19" d="M67.21,59s-2.5-.5-2.57,2c0,0,1.07-1.15,1.71-1S67.21,59,67.21,59Z"></path>
      <path class="cls-19" d="M67.21,59s-1,1.21.82,2.5C68,61.53,68.93,59.06,67.21,59Z"></path>
      <path class="cls-19" d="M63.71,55.7s1.11-2.68,3.5-1.64C67.21,54.06,65.14,57.45,63.71,55.7Z"></path>
      <path class="cls-19" d="M63.71,55.7s2,1.56.93,3.64C64.64,59.34,61.82,57.7,63.71,55.7Z"></path>
      <path class="cls-19" d="M63.71,55.7s.64-3.35-2.5-2.85C61.21,52.85,61.42,55.87,63.71,55.7Z"></path>
      <path class="cls-19" d="M63.71,55.7s-2.82-.46-3.39,1.91C60.32,57.61,62.6,58.42,63.71,55.7Z"></path>
      <path class="cls-19" d="M39.06,45.05a2.29,2.29,0,0,1,3.25-1.36S40.74,46.94,39.06,45.05Z"></path>
      <path class="cls-19" d="M39.06,45.05s.53-2.35-2.57-2.8A2.22,2.22,0,0,0,39.06,45.05Z"></path>
      <path class="cls-19" d="M39.06,45.05s-2.68-.29-3.57,2C35.49,47,38.31,47.33,39.06,45.05Z"></path>
      <path class="cls-19" d="M39.06,45.05a3.48,3.48,0,0,1,.64,4.46S37,47,39.06,45.05Z"></path>
      <path class="cls-19" d="M39.09,38.9A2.41,2.41,0,0,0,36.24,41S37.73,42.4,39.09,38.9Z"></path>
      <path class="cls-19" d="M39.09,38.9s-1.82-1.94-.18-3.15C38.91,35.75,40.91,37.37,39.09,38.9Z"></path>
      <path class="cls-19" d="M39.09,38.9s1.11-2.53,3-2C42.06,36.94,40.2,40.33,39.09,38.9Z"></path>
      <path class="cls-19" d="M39.09,38.9s-.6,2.93,1.59,3.11C40.68,42,42.31,39.4,39.09,38.9Z"></path>
      <path class="cls-19" d="M42.77,41.48s.82-2-.71-2.79C42.06,38.69,40.67,40.73,42.77,41.48Z"></path>
      <path class="cls-19" d="M42.77,41.48s-2.82-1.2-2.36,2C40.41,43.43,42.31,42.8,42.77,41.48Z"></path>
      <path class="cls-19" d="M42.77,41.48s-.82,1.39.93,2.57A1.57,1.57,0,0,0,42.77,41.48Z"></path>
      <path class="cls-19" d="M42.77,41.48s.68-1.75,2-1.4C44.81,40.08,44.48,42,42.77,41.48Z"></path>
      <path class="cls-19" d="M44.34,35.18s.11-2-2-1.47C42.31,33.71,42.13,35,44.34,35.18Z"></path>
      <path class="cls-19" d="M44.34,35.18s-2,0-1.76,1.47l1.21-.73C44.27,35.62,44,35,44.34,35.18Z"></path>
      <path class="cls-19" d="M44.34,35.18s-.39.85.33,1.22.64.5.75.72S46.17,35.53,44.34,35.18Z"></path>
      <path class="cls-19" d="M44.34,35.18a1.88,1.88,0,0,0,1.68-2S43.88,33.46,44.34,35.18Z"></path>
      <path class="cls-19" d="M48.24,32.12s-3.11,1.74-.5,4.53c0,0-.22-1.53.32-1.84S48.81,32.94,48.24,32.12Z"></path>
      <path class="cls-19" d="M48.24,32.12S46.35,33.44,46,29.79C46,29.79,48.67,30.12,48.24,32.12Z"></path>
      <path class="cls-19" d="M48.24,32.12s0-2.43,1.71-2.65C50,29.47,51.1,31.22,48.24,32.12Z"></path>
      <path class="cls-19" d="M48.24,32.12s2.75-1.22,3,2.5A2.64,2.64,0,0,1,48.24,32.12Z"></path>
      <path class="cls-19" d="M44.09,29.79s.25-3.14-3.21-2.28C40.88,27.51,41.11,30,44.09,29.79Z"></path>
      <path class="cls-19" d="M44.09,29.79s-3.17.19-2.85,2.56A3,3,0,0,0,44.09,29.79Z"></path>
      <path class="cls-19" d="M44.09,29.79S42.86,32.26,46,33.15C46,33.15,46.79,29.72,44.09,29.79Z"></path>
      <path class="cls-19" d="M44.09,29.79a1.56,1.56,0,0,0,2.22-1.21A4.32,4.32,0,0,1,47.15,27C47.35,26.69,44.26,26.58,44.09,29.79Z"></path>
      <path class="cls-19" d="M52.21,28.58s-.24-2,1.21-2.66C53.42,25.92,55,27.56,52.21,28.58Z"></path>
      <path class="cls-19" d="M52.21,28.58a3,3,0,0,0-2.62-2.37A2.18,2.18,0,0,0,52.21,28.58Z"></path>
      <path class="cls-19" d="M52.21,28.58a2,2,0,0,0-1.71,2.7A2.47,2.47,0,0,0,52.21,28.58Z"></path>
      <path class="cls-19" d="M52.21,28.58s0,2.58,2.44,2.49C54.65,31.07,54.28,28.06,52.21,28.58Z"></path>
      <path class="cls-19" d="M89,49.9s.32-2.41,3.33-1.93C92.31,48,90.86,51.35,89,49.9Z"></path>
      <path class="cls-19" d="M89,49.9a2.71,2.71,0,0,0-2.68-3.27A2.83,2.83,0,0,0,89,49.9Z"></path>
      <path class="cls-19" d="M89,49.9s-2.7-.91-3.69,1.61A3,3,0,0,0,89,49.9Z"></path>
      <path class="cls-19" d="M89,49.9s2.68,2,.41,3.83a18.67,18.67,0,0,1-1.16-1.91C88,51.18,89,49.9,89,49.9Z"></path>
      <path class="cls-19" d="M94,45.52s-3.25.1-1.35,3.75c0,0,.35-1.23.89-1.57A2.1,2.1,0,0,0,94,45.52Z"></path>
      <path class="cls-19" d="M94,45.52s.5,2.39,2.68,2.39c0,0-.18-.89-.46-1.79S95.12,45.19,94,45.52Z"></path>
      <path class="cls-19" d="M94,45.52s3.47.07,1.86-3.09C95.85,42.43,93.24,43.44,94,45.52Z"></path>
      <path class="cls-19" d="M94,45.52s.32-2.72-2.28-2.79C91.71,42.73,91.35,46.12,94,45.52Z"></path>
      <path class="cls-19" d="M89.24,43.41s1.75.64,2.8-2A2.59,2.59,0,0,0,89.24,43.41Z"></path>
      <path class="cls-19" d="M89.24,43.41s1.5-2.11-.46-3.11A2.19,2.19,0,0,0,89.24,43.41Z"></path>
      <path class="cls-19" d="M89.24,43.41s-3.28-.89-3.11,2.11C86.13,45.52,87.85,47.16,89.24,43.41Z"></path>
      <path class="cls-19" d="M89.24,43.41a2.51,2.51,0,0,0,1.06,3.22S92.14,43.94,89.24,43.41Z"></path>
      <path class="cls-19" d="M92.54,29.47c-.36-.07-.71,2,1.17,2.88C93.71,32.35,95.81,30.19,92.54,29.47Z"></path>
      <path class="cls-19" d="M92.54,29.47s1.34.57,2.65-1.3a1.58,1.58,0,0,1,.51-.92C96.13,26.94,93.07,27.08,92.54,29.47Z"></path>
      <path class="cls-19" d="M92.54,29.47s1.74-2.27-.28-3.26C92.26,26.21,90.77,27.58,92.54,29.47Z"></path>
      <path class="cls-19" d="M92.54,29.47s-2.74-1-2.9,1.81C89.64,31.28,91.63,32.22,92.54,29.47Z"></path>
      <path class="cls-19" d="M88.57,25.92s-1.79,1.62,1.88,2.47A2.48,2.48,0,0,0,88.57,25.92Z"></path>
      <path class="cls-19" d="M88.57,25.92s1.72,3.21,4-.7C92.54,25.22,90,24.69,88.57,25.92Z"></path>
      <path class="cls-19" d="M88.57,25.92s3.34-1.34,1.88-4.18C90.45,21.74,88,23.4,88.57,25.92Z"></path>
      <path class="cls-19" d="M88.57,25.92s.64-2.25-2.57-2.79C86,23.13,85.52,26.29,88.57,25.92Z"></path>
      <path class="cls-19" d="M85.09,28.6s2.72,0,1.46-3.23A2.84,2.84,0,0,0,85.09,28.6Z"></path>
      <path class="cls-19" d="M85.09,28.6a2.23,2.23,0,0,0-2.52-2.68S82.41,29.57,85.09,28.6Z"></path>
      <path class="cls-19" d="M85.09,28.6s-3.43.43-1.56,3.75C83.53,32.35,85.36,30.25,85.09,28.6Z"></path>
      <path class="cls-19" d="M85.09,28.6s.41,2.46,2.52,2.31C87.61,30.91,88,27.85,85.09,28.6Z"></path>
      <path class="cls-19" d="M76.41,21.15s-1.72,3.63,1.6,4c0,0-.53-1.44,0-2S77.8,20.93,76.41,21.15Z"></path>
      <path class="cls-19" d="M76.41,21.15a3.42,3.42,0,0,0,2.89-.38,2.67,2.67,0,0,1,1-.42C80.69,20.35,77.32,18.26,76.41,21.15Z"></path>
      <path class="cls-19" d="M76.41,21.15A2,2,0,0,0,76,18.42a5.6,5.6,0,0,1-1-.86C74.75,17.24,73.3,20.83,76.41,21.15Z"></path>
      <path class="cls-19" d="M76.41,21.15s-.83-1.45-4.44,0C72,21.15,74.53,24.69,76.41,21.15Z"></path>
      <path class="cls-19" d="M75.61,16.27a2.76,2.76,0,0,0,3.1,2.63S79.05,16.06,75.61,16.27Z"></path>
      <path class="cls-19" d="M75.61,16.27s2.14.43,3.37-2.73a3.16,3.16,0,0,1,.59-1.18C79.94,12,75.94,11.61,75.61,16.27Z"></path>
      <path class="cls-19" d="M75.61,16.27A2.59,2.59,0,0,0,73.11,13S72.62,16.22,75.61,16.27Z"></path>
      <path class="cls-19" d="M71.26,15.68s-.57,4,1,3.23c0,0,.61,0,.7,0a13.15,13.15,0,0,1-.23-1.78C72.87,16.59,72,16,71.26,15.68Z"></path>
      <path class="cls-19" d="M71.26,15.68s2.26,1.05,2.47-1.46A2.37,2.37,0,0,0,71.26,15.68Z"></path>
      <path class="cls-19" d="M71.26,15.68s1-2.34-1.87-3.52C69.39,12.16,68.46,15.09,71.26,15.68Z"></path>
      <path class="cls-19" d="M71.26,15.68s-2.41-.59-3.43,2.68C67.83,18.36,70.45,19.22,71.26,15.68Z"></path>
      <path class="cls-19" d="M62.19,11.19a2.68,2.68,0,0,0,1,2.52c1,.64,1,.53,1.12,1S65.41,11,62.19,11.19Z"></path>
      <path class="cls-19" d="M62.19,11.19A2.18,2.18,0,0,0,64.52,10c1-1.6.46-1.34,1-1.6S62,7.49,62.19,11.19Z"></path>
      <path class="cls-19" d="M62.19,11.19s1.23-2.9-2.73-2.63a1.41,1.41,0,0,0,1,2.09C62.19,11.19,62.25,10.7,62.19,11.19Z"></path>
      <path class="cls-19" d="M62.19,11.19s-3.32-.38-2.36,2.94C59.83,14.13,61.65,13.76,62.19,11.19Z"></path>
      <path class="cls-19" d="M57.05,9.15S59.51,9,60.48,7.44s.34-2.31.34-2.31a3.89,3.89,0,0,1-1.54,1C58.33,6.47,56.78,6.36,57.05,9.15Z"></path>
      <path class="cls-19" d="M57.05,9.15s-.75-3.48-2.2-2.95a1.16,1.16,0,0,1-1.7-.85S52,10.81,57.05,9.15Z"></path>
      <path class="cls-19" d="M57.05,9.15s-5.17,1-3.9,3.79C53.15,12.94,54.53,13.38,57.05,9.15Z"></path>
      <path class="cls-19" d="M57.05,9.15S53.1,13.94,58.6,13c0,0-1.55-.78-.59-1.73S57.05,9.15,57.05,9.15Z"></path>
      <path class="cls-8" d="M60.94,134.93a1.27,1.27,0,0,0-1.2-.44c-.66.21-.93.73-.81.92a1.79,1.79,0,0,0,.24.26c.17.16.52-.3.54-.31Z"></path>
      <path class="cls-20" d="M61.28,135.74s-.2-.91-.55-.92-.72-.06-.72-.06l-.1.16s.34.59.48.64.39.11.45.14S61.28,135.74,61.28,135.74Z"></path>
      <path class="cls-10" d="M61.26,135.85c0-.08.08-.29-.13-.35a3,3,0,0,0-.45-.1s-.54.42-.65.48-.17.06.14.15.31.18.6.14A.88.88,0,0,0,61.26,135.85Z"></path>
      <path class="cls-11" d="M60.68,135.4a4.3,4.3,0,0,0-.39.39c-.16.19-.19.25-.38.15s-.69-.16-.82-.35-.12-.17,0-.4a1,1,0,0,1,.64-.39.55.55,0,0,1,.63.14A1.32,1.32,0,0,1,60.68,135.4Z"></path>
      <path class="cls-8" d="M43.93,128.75a1.84,1.84,0,0,0-1.86-.26c-.89.5-1.1,1.33-.88,1.57a4.45,4.45,0,0,0,.43.29c.29.18.65-.59.67-.6Z"></path>
      <path class="cls-20" d="M44.67,129.8s-.57-1.24-1.07-1.15-1.06.13-1.06.13l-.09.27s.67.75.88.77.6,0,.69.06A4.6,4.6,0,0,0,44.67,129.8Z"></path>
      <path class="cls-10" d="M44.67,130c0-.12,0-.44-.3-.46a4.17,4.17,0,0,0-.66,0s-.65.75-.79.88-.24.14.24.17.5.16.9,0A1.24,1.24,0,0,0,44.67,130Z"></path>
      <path class="cls-11" d="M43.71,129.51a5.67,5.67,0,0,0-.45.68c-.17.32-.2.41-.5.33s-1,0-1.28-.26-.23-.21-.07-.58a1.47,1.47,0,0,1,.79-.76.84.84,0,0,1,1,0A2.07,2.07,0,0,1,43.71,129.51Z"></path>
      <path class="cls-8" d="M55.94,126.3s-3.83-1.91-6.5.42-2.81,5.33-1.89,6a14,14,0,0,0,1.67.67c1.11.4,1.79-2.47,1.86-2.52S55.94,126.3,55.94,126.3Z"></path>
      <path class="cls-20" d="M59.21,129.32s-2.84-3.81-4.46-3.14-3.51,1.21-3.51,1.21l-.1,1s2.79,2.08,3.53,2,2.07-.31,2.4-.31A17.8,17.8,0,0,0,59.21,129.32Z"></path>
      <path class="cls-10" d="M59.32,129.9c0-.43-.19-1.51-1.34-1.36a16.68,16.68,0,0,0-2.25.48s-1.68,3-2,3.56-.71.64,1,.42,1.8.18,3.06-.58A4.29,4.29,0,0,0,59.32,129.9Z"></path>
      <path class="cls-11" d="M55.73,129a19.67,19.67,0,0,0-1,2.64c-.34,1.21-.36,1.54-1.45,1.48s-3.56.65-4.54,0-.94-.53-.67-1.93.92-2.06,2.18-3.14a2.83,2.83,0,0,1,3.24-.68A7.19,7.19,0,0,1,55.73,129Z"></path>
      <path class="cls-8" d="M70.67,127.52s-2.2-3-5.2-2.26-4.29,3-3.84,3.87a12.35,12.35,0,0,0,1,1.19c.7.76,2.37-1.2,2.44-1.21S70.67,127.52,70.67,127.52Z"></path>
      <path class="cls-20" d="M72,131.16s-.68-4.08-2.2-4.2-3.2-.46-3.2-.46l-.46.7s1.33,2.72,1.93,3,1.72.59,2,.72A15.4,15.4,0,0,0,72,131.16Z"></path>
      <path class="cls-10" d="M71.86,131.65c.14-.34.45-1.25-.5-1.58a14.58,14.58,0,0,0-1.93-.53s-2.51,1.69-3,2-.81.2.56.7,1.33.85,2.6.76A3.77,3.77,0,0,0,71.86,131.65Z"></path>
      <path class="cls-11" d="M69.43,129.54a16,16,0,0,0-1.86,1.63c-.75.8-.9,1.05-1.72.57s-3-.91-3.52-1.79-.52-.78.25-1.76a4.46,4.46,0,0,1,2.93-1.56,2.49,2.49,0,0,1,2.78.76A6.36,6.36,0,0,1,69.43,129.54Z"></path>
      <path class="cls-8" d="M60.42,129.08s-3.17-2.45-6-.79-3.54,4.38-2.81,5.14a11.29,11.29,0,0,0,1.41.91c.94.58,2.09-1.94,2.16-2S60.42,129.08,60.42,129.08Z"></path>
      <path class="cls-20" d="M62.87,132.44s-1.92-4-3.52-3.68-3.44.47-3.44.47l-.27.86s2.19,2.41,2.88,2.49,1.95.09,2.25.15A16.38,16.38,0,0,0,62.87,132.44Z"></path>
      <path class="cls-10" d="M62.87,133c0-.4.09-1.42-1-1.49a15.65,15.65,0,0,0-2.15,0s-2.08,2.49-2.52,2.9-.77.45.79.56,1.62.48,2.91,0A4,4,0,0,0,62.87,133Z"></path>
      <path class="cls-11" d="M59.73,131.53a18.56,18.56,0,0,0-1.44,2.24c-.53,1-.61,1.34-1.6,1.09s-3.38-.05-4.17-.8-.76-.65-.26-1.89a4.82,4.82,0,0,1,2.56-2.48,2.66,2.66,0,0,1,3.1,0A6.87,6.87,0,0,1,59.73,131.53Z"></path>
      <path class="cls-8" d="M76.9,134.63a1.92,1.92,0,0,0,1.76-.87c.47-1,.16-1.8-.17-1.88a3.37,3.37,0,0,0-.54,0c-.35,0-.21.89-.23.91Z"></path>
      <path class="cls-20" d="M75.64,134.17s1.23.73,1.6.35.84-.74.84-.74L78,133.5a4,4,0,0,0-1.22-.15c-.19.11-.54.33-.63.36A5.09,5.09,0,0,0,75.64,134.17Z"></path>
      <path class="cls-10" d="M75.55,134c.06.11.22.4.52.22a4.38,4.38,0,0,0,.58-.39s.11-1,.15-1.23.13-.26-.31,0-.52.16-.78.51A1.31,1.31,0,0,0,75.55,134Z"></path>
      <path class="cls-11" d="M76.65,133.85a7.05,7.05,0,0,0,0-.86c0-.37-.08-.46.23-.57s.92-.6,1.26-.54.32,0,.41.46a1.6,1.6,0,0,1-.24,1.13.86.86,0,0,1-.82.56A2.22,2.22,0,0,1,76.65,133.85Z"></path>
      <path class="cls-8" d="M34.69,136.83a1.92,1.92,0,0,0,1.76-.87c.47-1,.16-1.8-.17-1.87a3.21,3.21,0,0,0-.54,0c-.35,0-.21.89-.23.91Z"></path>
      <path class="cls-20" d="M33.43,136.37s1.23.73,1.6.36a10.73,10.73,0,0,1,.84-.74l-.08-.29a4,4,0,0,0-1.22-.15c-.19.11-.54.33-.63.37A4.13,4.13,0,0,0,33.43,136.37Z"></path>
      <path class="cls-10" d="M33.34,136.22c.06.11.22.4.53.22a4.71,4.71,0,0,0,.57-.39s.11-1,.15-1.22.13-.26-.31,0-.52.16-.78.51A1.31,1.31,0,0,0,33.34,136.22Z"></path>
      <path class="cls-11" d="M34.44,136.05a6.89,6.89,0,0,0,0-.85c0-.38-.08-.47.23-.58s.92-.59,1.26-.53.32,0,.41.45a1.6,1.6,0,0,1-.24,1.13.86.86,0,0,1-.82.56A2.28,2.28,0,0,1,34.44,136.05Z"></path>
      <path class="cls-8" d="M46.75,135.31a2.46,2.46,0,0,0,2.31-.95c.69-1.18.37-2.28-.05-2.41a4.52,4.52,0,0,0-.69,0c-.45,0-.35,1.11-.36,1.14S46.75,135.31,46.75,135.31Z"></path>
      <path class="cls-20" d="M45.19,134.61s1.5,1,2,.6,1.13-.87,1.13-.87l-.08-.37a4.83,4.83,0,0,0-1.53-.29c-.26.11-.71.36-.83.4A6,6,0,0,0,45.19,134.61Z"></path>
      <path class="cls-10" d="M45.08,134.42c.06.14.25.52.65.33a6.28,6.28,0,0,0,.76-.46s.24-1.31.31-1.54.18-.32-.4,0-.67.16-1,.59A1.68,1.68,0,0,0,45.08,134.42Z"></path>
      <path class="cls-11" d="M46.49,134.29a7.46,7.46,0,0,0,.06-1.08c0-.48-.06-.61.35-.72s1.21-.67,1.64-.57.41.08.48.62a2,2,0,0,1-.4,1.41,1.11,1.11,0,0,1-1.1.65A2.94,2.94,0,0,1,46.49,134.29Z"></path>
      <path class="cls-8" d="M55.55,133.6a1.57,1.57,0,0,1,1.43-.22c.7.32.88.89.72,1.05a2.12,2.12,0,0,1-.33.21c-.22.13-.52-.39-.53-.39Z"></path>
      <path class="cls-20" d="M55,134.33s.41-.86.8-.81a7.22,7.22,0,0,0,.82.07l.07.18s-.49.53-.66.55l-.53.05C55.43,134.38,55,134.33,55,134.33Z"></path>
      <path class="cls-10" d="M55,134.44a.25.25,0,0,1,.22-.32,5.17,5.17,0,0,1,.52,0l.62.59c.11.08.19.08-.18.12s-.38.12-.69,0A1,1,0,0,1,55,134.44Z"></path>
      <path class="cls-11" d="M55.74,134.11a4,4,0,0,1,.36.46c.14.21.16.27.39.21s.81,0,1-.2.17-.15,0-.4-.31-.35-.64-.5a.7.7,0,0,0-.73,0A1.45,1.45,0,0,0,55.74,134.11Z"></path>
      <path class="cls-8" d="M68.47,130s-3-2.2-5.61-.62-3.18,4.12-2.5,4.81a10.74,10.74,0,0,0,1.33.82c.88.51,1.89-1.83,2-1.86S68.47,130,68.47,130Z"></path>
      <path class="cls-20" d="M70.8,133s-1.85-3.67-3.33-3.34-3.17.5-3.17.5l-.24.81s2.08,2.18,2.72,2.24,1.8,0,2.08.1A15.23,15.23,0,0,0,70.8,133Z"></path>
      <path class="cls-10" d="M70.81,133.54c0-.37.06-1.32-.94-1.36a13.36,13.36,0,0,0-2,.07S66,134.59,65.6,135s-.7.44.75.5,1.5.42,2.69,0A3.72,3.72,0,0,0,70.81,133.54Z"></path>
      <path class="cls-11" d="M67.88,132.25a17.37,17.37,0,0,0-1.29,2.1c-.47,1-.54,1.25-1.46,1s-3.13,0-3.87-.66-.72-.59-.28-1.74a4.42,4.42,0,0,1,2.32-2.35,2.48,2.48,0,0,1,2.87-.1A6.49,6.49,0,0,1,67.88,132.25Z"></path>
      <path class="cls-8" d="M52.59,133.41S50.15,133,49,134.69s-.69,3.41-.08,3.63a10.21,10.21,0,0,0,1,.1c.68.05.59-1.66.62-1.7S52.59,133.41,52.59,133.41Z"></path>
      <path class="cls-20" d="M54.89,134.56s-2.19-1.66-3-1-1.76,1.24-1.76,1.24l.1.55a7.38,7.38,0,0,0,2.29.55c.4-.15,1.1-.5,1.28-.56A9,9,0,0,0,54.89,134.56Z"></path>
      <path class="cls-10" d="M55.05,134.86c-.09-.23-.36-.81-1-.54a9.84,9.84,0,0,0-1.17.63s-.44,2-.56,2.31-.3.47.59.08,1-.19,1.61-.82A2.52,2.52,0,0,0,55.05,134.86Z"></path>
      <path class="cls-11" d="M52.91,135a11.39,11.39,0,0,0-.16,1.64c0,.72,0,.91-.57,1.06s-1.87.93-2.51.74-.61-.14-.68-1a2.91,2.91,0,0,1,.7-2.1,1.65,1.65,0,0,1,1.69-.9A4.28,4.28,0,0,1,52.91,135Z"></path>
    </g>
  </g>
</svg>
