<?xml version="1.0" encoding="UTF-8"?>
<svg xmlns="http://www.w3.org/2000/svg" xmlns:xlink="http://www.w3.org/1999/xlink" viewBox="0 0 110.57 287.67">
  <defs>
    <style>.cls-1,.cls-23,.cls-36{fill:none;}.cls-2{fill:#956d4b;}.cls-3{clip-path:url(#clip-path);}.cls-4{fill:url(#Безымянный_градиент_2);}.cls-5{fill:#754120;}.cls-6{fill:#44281c;}.cls-7{fill:#6c3c1d;}.cls-8{fill:#714d31;}.cls-9{fill:#613822;}.cls-10{fill:#7f5637;}.cls-11{fill:#a07850;}.cls-12{fill:#faf7cd;}.cls-13{fill:#e7bf96;}.cls-14{fill:#f5daa5;}.cls-15{fill:#d3b473;}.cls-16{fill:#8b5b3c;}.cls-17{fill:url(#Безымянный_градиент_5);}.cls-18{fill:url(#Безымянный_градиент_5-2);}.cls-19{fill:#6eaa41;}.cls-20{fill:url(#Безымянный_градиент_5-3);}.cls-21{fill:url(#Безымянный_градиент_5-4);}.cls-22{fill:#6aa942;}.cls-23,.cls-36{stroke:#6eaa41;stroke-linecap:round;stroke-linejoin:round;}.cls-23{stroke-width:0.54px;}.cls-24{fill:url(#Безымянный_градиент_8);}.cls-25{fill:url(#Безымянный_градиент_7);}.cls-26{fill:url(#Безымянный_градиент_9);}.cls-27{fill:url(#Безымянный_градиент_8-2);}.cls-28{fill:url(#Безымянный_градиент_7-2);}.cls-29{fill:url(#Безымянный_градиент_9-2);}.cls-30{fill:#559d42;}.cls-31{fill:#8cb63c;}.cls-32{fill:url(#Безымянный_градиент_5-5);}.cls-33{fill:url(#Безымянный_градиент_5-6);}.cls-34{fill:url(#Безымянный_градиент_5-7);}.cls-35{fill:url(#Безымянный_градиент_5-8);}.cls-36{stroke-width:0.72px;}.cls-37{fill:url(#Безымянный_градиент_5-9);}.cls-38{fill:url(#Безымянный_градиент_5-10);}.cls-39{fill:url(#Безымянный_градиент_5-11);}.cls-40{fill:url(#Безымянный_градиент_5-12);}.cls-41{fill:url(#Безымянный_градиент_5-13);}.cls-42{fill:url(#Безымянный_градиент_5-14);}.cls-43{fill:url(#Безымянный_градиент_5-15);}.cls-44{fill:url(#Безымянный_градиент_5-16);}.cls-45{fill:url(#Безымянный_градиент_8-3);}.cls-46{fill:url(#Безымянный_градиент_7-3);}.cls-47{fill:url(#Безымянный_градиент_9-3);}.cls-48{fill:url(#Безымянный_градиент_8-4);}.cls-49{fill:url(#Безымянный_градиент_7-4);}.cls-50{fill:url(#Безымянный_градиент_9-4);}.cls-51{fill:#613922;}</style>
    <clipPath id="clip-path">
      <polygon class="cls-1" points="7.92 258.99 57.88 282.51 104.11 259.11 56.05 238.75 7.92 258.99"></polygon>
    </clipPath>
    <linearGradient id="Безымянный_градиент_2" x1="-3486.7" y1="-324.18" x2="-3483.9" y2="-324.18" gradientTransform="matrix(34.36, 0, 0, -34.36, 119786.26, -10876.81)" gradientUnits="userSpaceOnUse">
      <stop offset="0" stop-color="#a17551"></stop>
      <stop offset="0.38" stop-color="#a17551"></stop>
      <stop offset="0.89" stop-color="#7a4928"></stop>
      <stop offset="1" stop-color="#72401f"></stop>
    </linearGradient>
    <linearGradient id="Безымянный_градиент_5" x1="-3418.77" y1="1307.05" x2="-3414.8" y2="1305.06" gradientTransform="matrix(-0.77, 0.64, 0.64, 0.77, -3393.88, 1239.93)" gradientUnits="userSpaceOnUse">
      <stop offset="0" stop-color="#c65394"></stop>
      <stop offset="1" stop-color="#52153d"></stop>
    </linearGradient>
    <linearGradient id="Безымянный_градиент_5-2" x1="-3422.01" y1="1305.32" x2="-3415.36" y2="1301.98" xlink:href="#Безымянный_градиент_5"></linearGradient>
    <linearGradient id="Безымянный_градиент_5-3" x1="-4041.63" y1="706.63" x2="-4038.2" y2="704.9" gradientTransform="matrix(-0.95, 0.31, 0.31, 0.95, -3996.38, 644.2)" xlink:href="#Безымянный_градиент_5"></linearGradient>
    <linearGradient id="Безымянный_градиент_5-4" x1="-4044.87" y1="705.28" x2="-4038.78" y2="702.22" gradientTransform="matrix(-0.95, 0.31, 0.31, 0.95, -3996.38, 644.2)" xlink:href="#Безымянный_градиент_5"></linearGradient>
    <linearGradient id="Безымянный_градиент_8" x1="-2132.71" y1="1661.15" x2="-2130.33" y2="1670.48" gradientTransform="translate(-839.61 -2486.18) rotate(-71.3)" gradientUnits="userSpaceOnUse">
      <stop offset="0.36" stop-color="#c65394"></stop>
      <stop offset="0.98" stop-color="#52153d"></stop>
    </linearGradient>
    <linearGradient id="Безымянный_градиент_7" x1="-2119.36" y1="1673.11" x2="-2133.22" y2="1670.13" gradientTransform="translate(-839.61 -2486.18) rotate(-71.3)" gradientUnits="userSpaceOnUse">
      <stop offset="0.47" stop-color="#c65394"></stop>
      <stop offset="0.91" stop-color="#52153d"></stop>
    </linearGradient>
    <linearGradient id="Безымянный_градиент_9" x1="-2135.73" y1="1674.13" x2="-2127.34" y2="1668.32" gradientTransform="translate(-839.61 -2486.18) rotate(-71.3)" gradientUnits="userSpaceOnUse">
      <stop offset="0" stop-color="#c65394"></stop>
      <stop offset="0.12" stop-color="#c15090"></stop>
      <stop offset="0.26" stop-color="#b34986"></stop>
      <stop offset="0.42" stop-color="#9c3d75"></stop>
      <stop offset="0.57" stop-color="#7c2b5c"></stop>
      <stop offset="0.73" stop-color="#53153e"></stop>
      <stop offset="0.74" stop-color="#52153d"></stop>
    </linearGradient>
    <linearGradient id="Безымянный_градиент_8-2" x1="-2109.49" y1="1652.33" x2="-2107.1" y2="1661.66" xlink:href="#Безымянный_градиент_8"></linearGradient>
    <linearGradient id="Безымянный_градиент_7-2" x1="-2096.13" y1="1664.3" x2="-2110" y2="1661.32" xlink:href="#Безымянный_градиент_7"></linearGradient>
    <linearGradient id="Безымянный_градиент_9-2" x1="-2112.51" y1="1665.31" x2="-2104.11" y2="1659.51" xlink:href="#Безымянный_градиент_9"></linearGradient>
    <linearGradient id="Безымянный_градиент_5-5" x1="162.73" y1="-758.34" x2="168.1" y2="-761.03" gradientTransform="translate(-386.78 753.86) rotate(21.73)" xlink:href="#Безымянный_градиент_5"></linearGradient>
    <linearGradient id="Безымянный_градиент_5-6" x1="158.36" y1="-760.67" x2="167.34" y2="-765.19" gradientTransform="translate(-386.78 753.86) rotate(21.73)" xlink:href="#Безымянный_градиент_5"></linearGradient>
    <linearGradient id="Безымянный_градиент_5-7" x1="51.72" y1="115.08" x2="56.36" y2="112.75" gradientTransform="matrix(1, 0, 0, 1, 0, 0)" xlink:href="#Безымянный_градиент_5"></linearGradient>
    <linearGradient id="Безымянный_градиент_5-8" x1="47.34" y1="113.26" x2="55.58" y2="109.12" gradientTransform="matrix(1, 0, 0, 1, 0, 0)" xlink:href="#Безымянный_градиент_5"></linearGradient>
    <linearGradient id="Безымянный_градиент_5-9" x1="-3395.6" y1="1339.88" x2="-3390.23" y2="1337.18" xlink:href="#Безымянный_градиент_5"></linearGradient>
    <linearGradient id="Безымянный_градиент_5-10" x1="-3399.98" y1="1337.54" x2="-3390.99" y2="1333.02" xlink:href="#Безымянный_градиент_5"></linearGradient>
    <linearGradient id="Безымянный_градиент_5-11" x1="-4030.53" y1="747.12" x2="-4025.89" y2="744.78" gradientTransform="matrix(-0.95, 0.31, 0.31, 0.95, -3996.38, 644.2)" xlink:href="#Безымянный_градиент_5"></linearGradient>
    <linearGradient id="Безымянный_градиент_5-12" x1="-4034.91" y1="745.3" x2="-4026.68" y2="741.15" gradientTransform="matrix(-0.95, 0.31, 0.31, 0.95, -3996.38, 644.2)" xlink:href="#Безымянный_градиент_5"></linearGradient>
    <linearGradient id="Безымянный_градиент_5-13" x1="-3407.91" y1="1320.94" x2="-3403.94" y2="1318.94" xlink:href="#Безымянный_градиент_5"></linearGradient>
    <linearGradient id="Безымянный_градиент_5-14" x1="-3411.14" y1="1319.21" x2="-3404.5" y2="1315.87" xlink:href="#Безымянный_градиент_5"></linearGradient>
    <linearGradient id="Безымянный_градиент_5-15" x1="-4036.68" y1="723.55" x2="-4033.24" y2="721.82" gradientTransform="matrix(-0.95, 0.31, 0.31, 0.95, -3996.38, 644.2)" xlink:href="#Безымянный_градиент_5"></linearGradient>
    <linearGradient id="Безымянный_градиент_5-16" x1="-4039.92" y1="722.2" x2="-4033.82" y2="719.14" gradientTransform="matrix(-0.95, 0.31, 0.31, 0.95, -3996.38, 644.2)" xlink:href="#Безымянный_градиент_5"></linearGradient>
    <linearGradient id="Безымянный_градиент_8-3" x1="56.81" y1="91.47" x2="59.19" y2="100.8" gradientTransform="matrix(1, 0, 0, 1, 0, 0)" xlink:href="#Безымянный_градиент_8"></linearGradient>
    <linearGradient id="Безымянный_градиент_7-3" x1="70.16" y1="103.43" x2="56.3" y2="100.45" gradientTransform="matrix(1, 0, 0, 1, 0, 0)" xlink:href="#Безымянный_градиент_7"></linearGradient>
    <linearGradient id="Безымянный_градиент_9-3" x1="53.79" y1="104.45" x2="62.18" y2="98.65" gradientTransform="matrix(1, 0, 0, 1, 0, 0)" xlink:href="#Безымянный_градиент_9"></linearGradient>
    <linearGradient id="Безымянный_градиент_8-4" x1="-4375.7" y1="-1320.38" x2="-4373.31" y2="-1311.05" gradientTransform="translate(-4258.61 -1405.11) rotate(-177.79)" xlink:href="#Безымянный_градиент_8"></linearGradient>
    <linearGradient id="Безымянный_градиент_7-4" x1="-4362.34" y1="-1308.42" x2="-4376.2" y2="-1311.4" gradientTransform="translate(-4258.61 -1405.11) rotate(-177.79)" xlink:href="#Безымянный_градиент_7"></linearGradient>
    <linearGradient id="Безымянный_градиент_9-4" x1="-4378.71" y1="-1307.4" x2="-4370.32" y2="-1313.2" gradientTransform="translate(-4258.61 -1405.11) rotate(-177.79)" xlink:href="#Безымянный_градиент_9"></linearGradient>
  </defs>
  <g id="Слой_2" data-name="Слой 2">
    <g id="Слой_1-2" data-name="Слой 1">
      <path class="cls-2" d="M57.88,216.36s9.63,11.3,17.06,11.76,32.81-7.56,32.81-7.56l2.56-26.43-52.43-18.5Z"></path>
      <path class="cls-2" d="M.19,192.25l5.23,34.48s18.58,2.78,21.83,1.86,18.12-6.51,22.3-6.51,8.33-5.73,8.33-5.73V175.63Z"></path>
      <g class="cls-3">
        <rect class="cls-4" x="31.58" y="211.43" width="48.87" height="98.4" transform="translate(-207.25 302.57) rotate(-86.92)"></rect>
      </g>
      <path class="cls-5" d="M7.92,259l-2.5-32.26s23.69-.47,30.2-3.72,22.26-6.66,22.26-6.66l-1.83,22.4Z"></path>
      <path class="cls-6" d="M41.68,228.73a8.52,8.52,0,0,0-2.83-1.67v0s-3.78-1.13-5.85,1.42-1.7,5.29-.77,5.73a11.08,11.08,0,0,0,1.63.34l.1,0a28,28,0,0,0,3.5-.8,1.86,1.86,0,0,0,.61-.15l.65-.2c1.48-.45,1.66-.12,2.69-1a4,4,0,0,0,1.08-2.55l-.21-.5h0l0,0a1,1,0,0,0-.59-.5"></path>
      <path class="cls-6" d="M21.4,232.06a10.78,10.78,0,0,0-4,1.33v0s-4.3,2.7-3.59,6.85,3.66,6.13,4.88,5.6a14.71,14.71,0,0,0,1.71-1.28l0-.13c.92-1.06,1.6-3.17,2.21-4.06a2.27,2.27,0,0,0,.36-.72c.1-.2.21-.42.37-.79.81-1.81,1.28-1.71,1.29-3.45a5.09,5.09,0,0,0-1.54-3.21,3.47,3.47,0,0,0-.65-.22v0h-.07a1.26,1.26,0,0,0-1,.14"></path>
      <path class="cls-7" d="M57.88,216.36l-1.83,22.39,48.06,20.36,3.64-38.55s-15-1.73-21.48-.81S68.44,223.47,65,221.62a45.07,45.07,0,0,1-7.15-5.26"></path>
      <path class="cls-6" d="M39.58,239.36a3.29,3.29,0,0,0-1.25-.31h0a2.31,2.31,0,0,0-2,1.19c-.49,1.18,0,2.17.35,2.23l.65-.05,0,0a9.3,9.3,0,0,0,1.23-.69l.21-.13.23-.14c.5-.34.61-.23.89-.68a1.52,1.52,0,0,0,.12-1.08l-.13-.16h0Z"></path>
      <path class="cls-6" d="M86.66,229.72a2.27,2.27,0,0,0-.11-.89h0s-.38-1-1.27-1-1.43.5-1.37.78l.2.41h0l.75.63.14.1.14.11c.35.25.31.34.67.42a1.1,1.1,0,0,0,.73-.19l.07-.13h0Z"></path>
      <path class="cls-6" d="M100.09,245.9a11,11,0,0,0-1.91-3.81h0s-3.31-3.91-7.35-2.6S85.26,244,86,245.16a14.54,14.54,0,0,0,1.53,1.53h.13c1.19.77,3.39,1.14,4.37,1.62a2.47,2.47,0,0,0,.77.26l.84.25c1.94.55,1.9,1,3.64.79a5.15,5.15,0,0,0,3-2,3.14,3.14,0,0,0,.13-.69h0v-.07a1.31,1.31,0,0,0-.28-1"></path>
      <path class="cls-6" d="M74,232.62a8.37,8.37,0,0,0-1.87,2.69v0s-1.4,3.66,1,5.9,5.11,2.08,5.62,1.19a11,11,0,0,0,.46-1.59l0-.1a27.58,27.58,0,0,0-.52-3.53,1.75,1.75,0,0,0-.11-.61c0-.17-.07-.36-.14-.66-.34-1.5,0-1.66-.81-2.74a3.92,3.92,0,0,0-2.44-1.26l-.51.17v0l0,0a1,1,0,0,0-.54.54"></path>
      <path class="cls-8" d="M74.15,260a1.59,1.59,0,0,0,1.57-.42c.54-.7.43-1.43.17-1.54l-.44-.09c-.29-.05-.32.69-.33.7Z"></path>
      <path class="cls-9" d="M73.21,259.42s.88.79,1.24.55a8.71,8.71,0,0,1,.8-.46l0-.25-1-.31-.57.19Z"></path>
      <path class="cls-10" d="M73.15,259.28c0,.1.12.36.4.27a3.87,3.87,0,0,0,.53-.23l.32-1c.07-.15.15-.19-.25-.06s-.45,0-.72.29a1.07,1.07,0,0,0-.28.69"></path>
      <path class="cls-11" d="M74.08,259.32a4.37,4.37,0,0,0,.12-.69c0-.31,0-.39.29-.43s.83-.33,1.1-.23.26.09.26.44a1.23,1.23,0,0,1-.38.87.71.71,0,0,1-.76.33,1.73,1.73,0,0,1-.63-.29"></path>
      <path class="cls-8" d="M63.47,253.87s2.39.13,3.24-1.67.26-3.36-.36-3.49a7.76,7.76,0,0,0-1,0c-.65,0-.37,1.66-.39,1.69Z"></path>
      <path class="cls-9" d="M61.12,253.05s2.3,1.32,3,.61,1.53-1.4,1.53-1.4l-.16-.52a7.22,7.22,0,0,0-2.26-.24c-.37.2-1,.62-1.16.69Z"></path>
      <path class="cls-10" d="M60.93,252.77c.11.21.44.74,1,.41a9.74,9.74,0,0,0,1-.75s.19-1.94.26-2.29.23-.49-.58,0-1,.31-1.44,1a2.38,2.38,0,0,0-.28,1.65"></path>
      <path class="cls-11" d="M63,252.43a11.05,11.05,0,0,0,0-1.59c-.09-.7-.15-.88.42-1.09s1.68-1.12,2.33-1,.6.06.77.84a2.89,2.89,0,0,1-.42,2.1,1.6,1.6,0,0,1-1.51,1.07,4.2,4.2,0,0,1-1.54-.31"></path>
      <path class="cls-8" d="M53.51,261.64s1.87,1.42,3.54.43,2.05-2.58,1.62-3a7.68,7.68,0,0,0-.83-.53c-.56-.33-1.22,1.15-1.25,1.16Z"></path>
      <path class="cls-9" d="M52.06,259.69s1.14,2.33,2.08,2.13,2-.29,2-.29l.15-.51s-1.29-1.4-1.69-1.44-1.15,0-1.32-.07Z"></path>
      <path class="cls-10" d="M52.06,259.36c0,.23-.05.84.58.87a8.3,8.3,0,0,0,1.26,0l1.46-1.71c.25-.24.45-.27-.47-.32s-1-.27-1.7,0a2.4,2.4,0,0,0-1.13,1.19"></path>
      <path class="cls-11" d="M53.9,260.2a11.08,11.08,0,0,0,.83-1.31c.31-.62.35-.79.93-.65s2,0,2.44.44.45.38.17,1.11a2.77,2.77,0,0,1-1.49,1.46,1.54,1.54,0,0,1-1.81,0,3.92,3.92,0,0,1-1.07-1.09"></path>
      <path class="cls-8" d="M49.22,255.2a2.67,2.67,0,0,0,.09-2.73c-.86-1.2-2.1-1.39-2.41-1l-.35.67c-.21.44,1,.85,1,.88Z"></path>
      <path class="cls-9" d="M47.82,256.44s1.7-1,1.49-1.73A15.08,15.08,0,0,1,49,253.2l-.4-.09s-1,1.08-1,1.4,0,.87,0,1Z"></path>
      <path class="cls-10" d="M47.58,256.46c.18,0,.64,0,.62-.5a6,6,0,0,0-.11-1l-1.4-1c-.2-.17-.23-.32-.21.38s-.15.74.12,1.3a1.8,1.8,0,0,0,1,.78"></path>
      <path class="cls-11" d="M48.09,255a7.93,7.93,0,0,0-1.06-.54c-.48-.2-.62-.22-.55-.67s-.12-1.51.18-1.89.26-.37.83-.2a2.12,2.12,0,0,1,1.22,1,1.18,1.18,0,0,1,.14,1.38,3,3,0,0,1-.76.89"></path>
      <path class="cls-8" d="M40.75,257.22a1.17,1.17,0,0,0,.39-1.12c-.21-.61-.7-.85-.87-.74l-.23.23.29.49Z"></path>
      <path class="cls-9" d="M40,257.55s.84-.21.84-.52a5.8,5.8,0,0,1,0-.68l-.16-.08-.58.44-.12.43Z"></path>
      <path class="cls-10" d="M39.91,257.53l.32-.13.08-.41-.45-.59c-.06-.1-.06-.17-.14.12s-.15.29-.12.56a.8.8,0,0,0,.31.45"></path>
      <path class="cls-11" d="M40.31,257l-.37-.36-.15-.35.32-.76.37,0a.91.91,0,0,1,.37.59.51.51,0,0,1-.11.59Z"></path>
      <path class="cls-8" d="M38.15,261.89s1.64-2.64.14-4.73-3.66-2.39-4.19-1.77a8.24,8.24,0,0,0-.6,1.17c-.37.77,1.66,1.46,1.69,1.51Z"></path>
      <path class="cls-9" d="M35.75,264s2.94-1.79,2.57-3a26.63,26.63,0,0,1-.64-2.62l-.69-.15s-1.69,1.88-1.69,2.42.08,1.52.06,1.75Z"></path>
      <path class="cls-10" d="M35.32,264.08c.31,0,1.1,0,1.08-.87a11.34,11.34,0,0,0-.2-1.66s-2.08-1.42-2.43-1.72-.41-.56-.37.66-.25,1.28.22,2.24a3.11,3.11,0,0,0,1.7,1.35"></path>
      <path class="cls-11" d="M36.2,261.55a14,14,0,0,0-1.83-.94c-.85-.33-1.09-.36-1-1.15s-.22-2.61.29-3.28.45-.64,1.44-.35a3.68,3.68,0,0,1,2.12,1.79,2.07,2.07,0,0,1,.28,2.38,5.3,5.3,0,0,1-1.32,1.55"></path>
      <path class="cls-12" d="M59,248.32a24.82,24.82,0,0,0-12.75,6.34,25.22,25.22,0,0,1,12.6-7.08Z"></path>
      <path class="cls-12" d="M59.15,248.26a20.79,20.79,0,0,0,5.23,3.86,21.19,21.19,0,0,1-5.73-3.3Z"></path>
      <path class="cls-12" d="M59.19,252.24a29.61,29.61,0,0,1-3.74,3.85,40.43,40.43,0,0,1-4.23,3.27,40.53,40.53,0,0,0,4.06-3.46,29.79,29.79,0,0,0,3.5-4Z"></path>
      <path class="cls-12" d="M58.93,244.77a21.18,21.18,0,0,0,8.53,4.9,21.63,21.63,0,0,1-9-4.33Z"></path>
      <path class="cls-12" d="M59,235.65a12.75,12.75,0,0,1,2.56,1.55,13,13,0,0,1,2.14,2.06,22.39,22.39,0,0,0,1.71,2.34,2,2,0,0,0,1.25.6c.45.05,1-.09,1.38.32-.36-.38-.91-.21-1.38-.22a2.14,2.14,0,0,1-1.38-.55,21.57,21.57,0,0,1-1.88-2.23,12.67,12.67,0,0,0-4.68-3.17Z"></path>
      <path class="cls-12" d="M59.2,232.27a43.32,43.32,0,0,1,6.68,2c1.09.37,2.19.73,3.3,1a13.6,13.6,0,0,0,3.41.46,13.38,13.38,0,0,1-3.45-.28c-1.14-.22-2.26-.52-3.37-.83a42.13,42.13,0,0,0-6.66-1.6Z"></path>
      <path class="cls-12" d="M58.72,220.83a29.37,29.37,0,0,0,3.33.63,8.09,8.09,0,0,1,3.13,1.45A7.71,7.71,0,0,0,62,221.83a30.12,30.12,0,0,1-3.46-.27Z"></path>
      <path class="cls-12" d="M59.12,219.09a79.85,79.85,0,0,1,9.41,1.64,27.58,27.58,0,0,1,8.72,3.83,27.46,27.46,0,0,0-8.84-3.28A77.62,77.62,0,0,0,59,220.22Z"></path>
      <path class="cls-12" d="M59.94,211.73c-.53,18.31-.69,36.69-.56,55q-1.47-27.47-2-55Z"></path>
      <path class="cls-13" d="M59.91,211.8c-.53,18.31-.66,36.62-.53,54.95-1-18.31,0-36.73-.28-55.08Z"></path>
      <path class="cls-12" d="M58.64,219.5a13,13,0,0,0-5.51-.23c-1.89.24-3.78.66-5.67,1.08L36.1,222.77l11.21-3c1.87-.5,3.75-1,5.69-1.36a14,14,0,0,1,6,0Z"></path>
      <path class="cls-12" d="M53.56,219.16a33.39,33.39,0,0,1-10.91,3.89,32.77,32.77,0,0,0,10.5-4.52Z"></path>
      <path class="cls-12" d="M52.45,219.31c-1.79-.33-3.61-.54-5.43-.7s-3.65-.27-5.49-.29c1.83-.11,3.67-.12,5.51-.09s3.68.12,5.52.34Z"></path>
      <path class="cls-12" d="M62,219.48a26,26,0,0,1,12.66.92,25.56,25.56,0,0,0-12.5-.18Z"></path>
      <path class="cls-12" d="M64.18,219.83a25.64,25.64,0,0,0,5.26,4.64,29.48,29.48,0,0,0,6.29,3.24,29.57,29.57,0,0,1-6.49-2.93,25.57,25.57,0,0,1-5.62-4.45Z"></path>
      <path class="cls-12" d="M58.71,222.58a15.74,15.74,0,0,0-4,1.78c-1.29.75-2.56,1.57-3.8,2.42-2.48,1.7-4.88,3.52-7.25,5.38,2.29-2,4.62-3.88,7-5.69,1.22-.9,2.45-1.78,3.73-2.59a16.34,16.34,0,0,1,4.15-2Z"></path>
      <path class="cls-12" d="M51.62,226.23c-2.66.17-5.21,1.13-7.82,1.71,2.59-.66,5.09-1.71,7.8-2Z"></path>
      <path class="cls-12" d="M54.15,224.65a10.4,10.4,0,0,0-4.48-.34,24.69,24.69,0,0,0-4.46,1.05A24.8,24.8,0,0,1,49.63,224a10.77,10.77,0,0,1,4.69.07Z"></path>
      <path class="cls-12" d="M52.68,225.49c-.22.91-.43,1.84-.69,2.75a10.8,10.8,0,0,1-1.05,2.62,11.38,11.38,0,0,0,.85-2.67c.19-.92.32-1.85.47-2.78Z"></path>
      <path class="cls-12" d="M58.66,230.84a73.18,73.18,0,0,0-10.64,3,66.9,66.9,0,0,0-10.08,4.61,66.88,66.88,0,0,1,10-5,74,74,0,0,1,10.61-3.4Z"></path>
      <path class="cls-12" d="M47.55,234a38.68,38.68,0,0,0-10.29,1.71,39.06,39.06,0,0,1,10.27-2Z"></path>
      <path class="cls-12" d="M50.32,233.05a67.49,67.49,0,0,0-7.3,6.64,68,68,0,0,1,7-7Z"></path>
      <path class="cls-12" d="M55.79,231.29a20.25,20.25,0,0,1-3.93,3.81A19.69,19.69,0,0,0,55.4,231Z"></path>
      <path class="cls-12" d="M59,233.31a15.3,15.3,0,0,0-9.07,5.42,15.7,15.7,0,0,1,8.91-6.16Z"></path>
      <path class="cls-12" d="M64.4,233.76A25.13,25.13,0,0,0,66.64,236a30.28,30.28,0,0,0,2.47,2.06,32.13,32.13,0,0,1-2.6-1.91A25.71,25.71,0,0,1,64.1,234Z"></path>
      <polygon class="cls-12" points="62.77 238.36 67.47 240.24 62.65 238.68 62.77 238.36"></polygon>
      <path class="cls-12" d="M58.48,240.08l-7.22,2.39a30.76,30.76,0,0,0-3.55,1.32,6.41,6.41,0,0,0-2.85,2.4,6.53,6.53,0,0,1,2.76-2.57,30.85,30.85,0,0,1,3.51-1.5l7.1-2.75Z"></path>
      <path class="cls-12" d="M54.27,241.36a22.67,22.67,0,0,1-5.57,4.95,22.68,22.68,0,0,0,5.36-5.12Z"></path>
      <path class="cls-12" d="M53.12,241.7c-1.8-.34-3.49-1.09-5.33-1,1.83-.17,3.61.49,5.38.72Z"></path>
      <path class="cls-12" d="M58.65,245.61a21.42,21.42,0,0,0-11.43,3.48,21.81,21.81,0,0,1,11.4-4.23Z"></path>
      <ellipse class="cls-14" cx="60.43" cy="224.07" rx="1.33" ry="1.38"></ellipse>
      <path class="cls-15" d="M59.12,224.07a1.56,1.56,0,0,0,.63,1,1.13,1.13,0,0,0,1.1.19,1.36,1.36,0,0,0,.79-.85.86.86,0,0,0-.59-1v0a.92.92,0,0,1,.69,1,1.48,1.48,0,0,1-.83,1,1.21,1.21,0,0,1-1.3-.17,1.42,1.42,0,0,1-.52-1.18Z"></path>
      <ellipse class="cls-14" cx="59.87" cy="232.28" rx="0.82" ry="0.85"></ellipse>
      <path class="cls-15" d="M59.06,232.28a1,1,0,0,0,.39.62.68.68,0,0,0,.68.11.84.84,0,0,0,.49-.52.53.53,0,0,0-.36-.59h0a.56.56,0,0,1,.43.61,1,1,0,0,1-.52.62.75.75,0,0,1-.8-.11.92.92,0,0,1-.32-.73Z"></path>
      <ellipse class="cls-14" cx="63.23" cy="238.2" rx="0.6" ry="0.62"></ellipse>
      <path class="cls-15" d="M62.64,238.2c.07.37.44.68.78.54a.64.64,0,0,0,.36-.38.39.39,0,0,0-.27-.43h0a.43.43,0,0,1,.31.45.67.67,0,0,1-.38.44.55.55,0,0,1-.58-.07.68.68,0,0,1-.24-.54Z"></path>
      <ellipse class="cls-14" cx="57.13" cy="222.25" rx="1.12" ry="1.17"></ellipse>
      <path class="cls-15" d="M58.26,222.25a1.26,1.26,0,0,1-.44,1,1,1,0,0,1-1.1.14,1.27,1.27,0,0,1-.71-.84.8.8,0,0,1,.58-.85v0a.73.73,0,0,0-.49.81,1.09,1.09,0,0,0,.67.72.93.93,0,0,0,.93-.16,1.34,1.34,0,0,0,.53-.85Z"></path>
      <ellipse class="cls-14" cx="55.23" cy="230.52" rx="1.12" ry="1.17"></ellipse>
      <path class="cls-15" d="M56.36,230.52a1.24,1.24,0,0,1-.44,1,1,1,0,0,1-1.1.14,1.27,1.27,0,0,1-.71-.84.82.82,0,0,1,.59-.85v0a.74.74,0,0,0-.49.81,1.12,1.12,0,0,0,.67.72,1,1,0,0,0,.93-.15,1.36,1.36,0,0,0,.53-.85Z"></path>
      <ellipse class="cls-14" cx="57.59" cy="239.26" rx="0.95" ry="0.99"></ellipse>
      <path class="cls-15" d="M58.55,239.26a1.1,1.1,0,0,1-.37.85.9.9,0,0,1-.93.12,1.07,1.07,0,0,1-.6-.71.66.66,0,0,1,.49-.72v0a.62.62,0,0,0-.42.68,1,1,0,0,0,.57.61.79.79,0,0,0,.78-.13,1.14,1.14,0,0,0,.45-.72Z"></path>
      <ellipse class="cls-14" cx="58.46" cy="247.39" rx="0.69" ry="0.72"></ellipse>
      <path class="cls-15" d="M59.16,247.39a.76.76,0,0,1-.27.62.67.67,0,0,1-.68.08.76.76,0,0,1-.43-.51.49.49,0,0,1,.36-.52h0a.44.44,0,0,0-.3.5.69.69,0,0,0,.41.44.73.73,0,0,0,.9-.62Z"></path>
      <polygon class="cls-16" points="0 192.56 57.93 218.07 110.57 194.54 57.93 174.97 0 192.56"></polygon>
      <path class="cls-17" d="M67.3,48.92s.89.89.88,1.27.18.77-.12,1-.46,1.12-1,1.25a2.42,2.42,0,0,1-2.67-1.36c-.61-1.4.08-1.74.88-2.13A3.78,3.78,0,0,1,67.3,48.92Z"></path>
      <path class="cls-18" d="M64.86,47.61s.82-.13,1.09-1.76a1.85,1.85,0,0,1,2.59-1.7c1.29.37,2.09,3.57.74,4.84s-1.75,1.6-2.47,1.73a5.91,5.91,0,0,1-2.87-.81C63.36,49.55,64.86,47.61,64.86,47.61Z"></path>
      <path class="cls-19" d="M64.57,46s.56-.38.65.34.42,1.51.07,2.09A4,4,0,0,1,64,49.84s.83.7.58,1.19-.11,1.54.45,1.54c0,0-1,0-1.23-1.36s-1.37-.8-1.66-.93-1.34-.93-.19-1.39.89,0,1.7-.53S65.18,47.1,65,46.6,64.57,46,64.57,46Z"></path>
      <path class="cls-20" d="M64.08,54.82s1.22,1.06.2,1.88-2.24.85-2.65-.51a6.81,6.81,0,0,1-.1-2.49C61.43,53.23,64.08,54.82,64.08,54.82Z"></path>
      <path class="cls-21" d="M63.15,52.6a11.31,11.31,0,0,0,3.37-1.22c.91-.72,1.66-.37,1.54.66s-1,1-1.13,1.75-.54,2.19-1.67,2-1.44-.64-1.92-.54-2-1.32-1.64-2.16S61.75,53.18,63.15,52.6Z"></path>
      <path class="cls-22" d="M60.06,52.33a.91.91,0,0,1,1.29-.28,1.66,1.66,0,0,0,1.75.39c.74-.18,1.63-.69,1.88-.65a1.89,1.89,0,0,1-.82.78c-.51.2-.89.32-.89.32s.6,0,.7.28a1.09,1.09,0,0,0,.46.51s-.62-.15-.68-.34-.6-.08-.92,0-.92-.24-1.14,0,.2.87.09,1.08-.65.94-.57,1.21a.47.47,0,0,1-.24-.76c.35-.57.32-.92.06-1.16S59.84,53.84,60.06,52.33Z"></path>
      <path class="cls-23" d="M59,52.84a2.51,2.51,0,0,1,1.7-.06"></path>
      <path class="cls-23" d="M62.23,49.5s-2.89-1.08-3.51,3.61"></path>
      <path class="cls-24" d="M58.73,69.27s-.56,1.8-2.11,1-2.24-1.46-2.06-3,1.52-3.86,2.61-3.67,1,0,1.75,1.61S58.73,69.27,58.73,69.27Z"></path>
      <path class="cls-25" d="M60,67.88s-.93.59-.73-.67-1.8-3-1.37-3.58a2.06,2.06,0,0,1,2.56-1.17,6.76,6.76,0,0,1,3.12,1.76,2.4,2.4,0,0,1,.82,2c0,.51.15,1.51-.4,1.58s-.63.94-1.79.59A19.81,19.81,0,0,0,60,67.88Z"></path>
      <path class="cls-26" d="M61.21,69.34a1.57,1.57,0,0,0-1.13.46,1.2,1.2,0,0,1-1.82-.44,3.44,3.44,0,0,1,.94-2.58c.69-.59,2.17.12,2.54.73S62.49,69.09,61.21,69.34Z"></path>
      <path class="cls-27" d="M57.83,44.45s-.57,1.8-2.11,1-2.25-1.47-2.07-3,1.53-3.86,2.61-3.67,1,0,1.76,1.61S57.83,44.45,57.83,44.45Z"></path>
      <path class="cls-28" d="M59.05,43.05s-.93.59-.72-.66-1.8-3-1.38-3.59a2.08,2.08,0,0,1,2.56-1.16,6.67,6.67,0,0,1,3.12,1.76,2.39,2.39,0,0,1,.83,2c0,.52.15,1.51-.41,1.59s-.62.94-1.79.59A20.74,20.74,0,0,0,59.05,43.05Z"></path>
      <path class="cls-29" d="M60.3,44.51a1.54,1.54,0,0,0-1.12.46c-.53.51-1.71.2-1.82-.44A3.34,3.34,0,0,1,58.3,42c.68-.59,2.17.11,2.54.72S61.58,44.26,60.3,44.51Z"></path>
      <path class="cls-30" d="M62.65,158.61s-3.54,2,3.53,7.58,10.11,4.29,10.11,4.29S76.79,155.58,62.65,158.61Z"></path>
      <path class="cls-31" d="M76.05,170.54l.24-.06s.5-14.9-13.64-11.87a1.62,1.62,0,0,0-.44.4A18,18,0,0,1,76.05,170.54Z"></path>
      <path class="cls-30" d="M53.65,161.64s.09-3.41-4.74-3.88-10.61,4.07-11.08,7.39,2.36,3.69,3.6,4.07S53.17,170.26,53.65,161.64Z"></path>
      <path class="cls-31" d="M50.9,160.69a17.63,17.63,0,0,1,2.64.22c-.27-1-1.23-2.82-4.63-3.15-4.83-.48-10.61,4.07-11.08,7.39a4,4,0,0,0,0,1.3A18.57,18.57,0,0,1,50.9,160.69Z"></path>
      <path class="cls-31" d="M44.15,97.87s.77,2.72,15.36,5.77a39.53,39.53,0,0,1-4.25-6.75c-1.42-3.16-7.08-1.31-8.28-.65S44.15,97.87,44.15,97.87Z"></path>
      <path class="cls-30" d="M41.76,101.9s-2.94-7.51,1.3-7.19,6.1.55,7.74.33,3.48-.33,4.46,1.85c0,0-2.61-3.27-6.42-.33S44.81,101.35,41.76,101.9Z"></path>
      <path class="cls-19" d="M47.64,95.09a3.09,3.09,0,0,0-3,1.25,11.66,11.66,0,0,0-1.39,3.13,18.89,18.89,0,0,1-1.59,3.14,21.19,21.19,0,0,1-2.1,2.86.43.43,0,1,1-.65-.57l0,0,0,0a20.51,20.51,0,0,0,2.18-2.61,19.31,19.31,0,0,0,1.73-3,11,11,0,0,1,1.62-3.09A3.19,3.19,0,0,1,47.64,95.09Z"></path>
      <path class="cls-31" d="M56.68,10.66s.76,2.72,15.35,5.77a40,40,0,0,1-4.25-6.75C66.37,6.52,60.7,8.37,59.51,9S56.68,10.66,56.68,10.66Z"></path>
      <path class="cls-30" d="M54.28,14.69S51.34,7.17,55.59,7.5s6.09.54,7.73.33,3.48-.33,4.46,1.85c0,0-2.61-3.27-6.42-.33S57.33,14.14,54.28,14.69Z"></path>
      <path class="cls-19" d="M60.16,7.88a3.12,3.12,0,0,0-3,1.22,11.28,11.28,0,0,0-1.43,3.13,19.45,19.45,0,0,1-1.62,3.1A21.25,21.25,0,0,1,52,18.14a.27.27,0,1,1-.4-.36h0a19.89,19.89,0,0,0,2.17-2.65,19.19,19.19,0,0,0,1.7-3A11.21,11.21,0,0,1,57,9,3.16,3.16,0,0,1,60.16,7.88Z"></path>
      <path class="cls-31" d="M79.32,64.55s.76,2.72,15.35,5.77a39.1,39.1,0,0,1-4.24-6.75c-1.42-3.15-7.08-1.3-8.28-.65S79.32,64.55,79.32,64.55Z"></path>
      <path class="cls-30" d="M76.93,68.58S74,61.07,78.23,61.4s6.1.54,7.73.32,3.49-.32,4.47,1.85c0,0-2.61-3.26-6.43-.32S80,68,76.93,68.58Z"></path>
      <path class="cls-19" d="M82.81,61.78a3.07,3.07,0,0,0-3,1.22,11.22,11.22,0,0,0-1.43,3.12,19.55,19.55,0,0,1-1.62,3.11A21.12,21.12,0,0,1,74.61,72a.27.27,0,0,1-.37,0,.26.26,0,0,1,0-.38h0A20,20,0,0,0,76.4,69a19.09,19.09,0,0,0,1.7-3,11.41,11.41,0,0,1,1.58-3.11A3.16,3.16,0,0,1,82.81,61.78Z"></path>
      <path class="cls-31" d="M70.15,39.2S70.4,42,57.85,50.05a39.28,39.28,0,0,0,1.57-7.82c.2-3.45,6.15-3.74,7.5-3.55S70.15,39.2,70.15,39.2Z"></path>
      <path class="cls-30" d="M73.82,42.11S73.9,34,70,35.86s-5.5,2.68-7.11,3-3.37.94-3.51,3.32c0,0,1.28-4,5.89-2.59S70.78,42.69,73.82,42.11Z"></path>
      <path class="cls-19" d="M65.9,37.84a3.17,3.17,0,0,1,3.33-.05,11.31,11.31,0,0,1,2.58,2.34,18.66,18.66,0,0,0,2.66,2.19,20.84,20.84,0,0,0,3,1.71h0a.27.27,0,0,1-.23.49h0a21.71,21.71,0,0,1-3-1.88,18.58,18.58,0,0,1-2.61-2.32,11.41,11.41,0,0,0-2.45-2.41A3.11,3.11,0,0,0,65.9,37.84Z"></path>
      <path class="cls-31" d="M62.65,128.61s3-8.86,11.2-6.33c0,0,3.21,1.59,4.46,3.2s4.14.27,5.35,3.6,4.31,6.39,3.76,7.21S64.55,133.46,62.65,128.61Z"></path>
      <path class="cls-30" d="M62.61,128.7s2.8-8.28,10.47-5.92a15.06,15.06,0,0,1,4.17,3c1.16,1.51,3.87.25,5,3.37s4,6,3.51,6.74S64.39,133.23,62.61,128.7Z"></path>
      <path class="cls-19" d="M65.16,130.35a10.57,10.57,0,0,0,2.23-.43,13,13,0,0,0,2.16-.87,11.69,11.69,0,0,0,3.67-2.94,11.83,11.83,0,0,1-3.5,3.22,12.56,12.56,0,0,1-4.5,1.68.33.33,0,0,1-.38-.27.34.34,0,0,1,.28-.38h0Z"></path>
      <path class="cls-19" d="M71.82,133.4A7.55,7.55,0,0,0,74,133a11.8,11.8,0,0,0,2.12-.94,14.92,14.92,0,0,0,1.94-1.3,20,20,0,0,0,1.75-1.57,20.24,20.24,0,0,1-1.67,1.67,15.54,15.54,0,0,1-1.89,1.42,12.43,12.43,0,0,1-2.12,1.08,8,8,0,0,1-2.36.56.26.26,0,1,1,0-.51h0Z"></path>
      <path class="cls-19" d="M58,126.8a7.28,7.28,0,0,1,4,1,9.53,9.53,0,0,1,1.59,1.22,18.81,18.81,0,0,0,1.52,1.14A28,28,0,0,0,72,133.5a64.72,64.72,0,0,0,15.15,2.88,65.67,65.67,0,0,1-15.3-2.4,29.25,29.25,0,0,1-7.15-3.16c-.56-.35-1.09-.74-1.61-1.14a9.08,9.08,0,0,0-1.51-1.09,6.52,6.52,0,0,0-3.45-.8H58a.52.52,0,0,1-.53-.47.5.5,0,0,1,.47-.53Z"></path>
      <path class="cls-31" d="M53.58,129.34s-.86-9.32-9.42-8.77c0,0-3.49.8-5.08,2.08s-4.1-.71-6,2.25-5.68,5.22-5.32,6.14S50.6,133.61,53.58,129.34Z"></path>
      <path class="cls-30" d="M53.6,129.43s-.8-8.71-8.81-8.19A15,15,0,0,0,40,123.18c-1.48,1.2-3.82-.66-5.65,2.11s-5.31,4.87-5,5.73S50.81,133.42,53.6,129.43Z"></path>
      <path class="cls-19" d="M50.4,131.39a11.67,11.67,0,0,1-2.15-1.26,12.78,12.78,0,0,1-1.83-1.62,11.93,11.93,0,0,1-2.54-4.06,11.79,11.79,0,0,0,2.77,3.82,12.34,12.34,0,0,0,4,2.5h0a.33.33,0,0,1,.19.42.34.34,0,0,1-.43.2Z"></path>
      <path class="cls-19" d="M43.44,132.35a7.76,7.76,0,0,1-2.17-1.09,12.17,12.17,0,0,1-1.81-1.54A14.68,14.68,0,0,1,38,127.89a18.84,18.84,0,0,1-1.23-2,21.31,21.31,0,0,0,1.33,1.93,15.21,15.21,0,0,0,1.59,1.72,11.91,11.91,0,0,0,1.84,1.4,7.46,7.46,0,0,0,2.07.92h0a.26.26,0,0,1,.19.31.26.26,0,0,1-.31.19Z"></path>
      <path class="cls-19" d="M58.2,129.6a6.54,6.54,0,0,0-3.54,0,9.8,9.8,0,0,0-1.72.71,17.88,17.88,0,0,1-1.83.73,28.5,28.5,0,0,1-7.68,1.41A64.52,64.52,0,0,1,28,131.19a64.75,64.75,0,0,0,15.41.73,28.15,28.15,0,0,0,7.46-1.61c.6-.22,1.17-.49,1.74-.76a9.57,9.57,0,0,1,1.83-.82,7.54,7.54,0,0,1,4.11-.08.5.5,0,0,1-.27,1h0Z"></path>
      <path class="cls-30" d="M62.5,25.41S56.4,12.67,48,26.06c0,0-1.53,2.73-2,3.27s3.7-1.09,6.42.33S63,31.29,62.5,25.41Z"></path>
      <path class="cls-31" d="M62.5,25.41c-3.27-4-14.71.28-16.44,3.92-.3.63,3.7-1.09,6.42.33S63,31.29,62.5,25.41Z"></path>
      <path class="cls-19" d="M46,29.55a19.44,19.44,0,0,1,4.16-3.62,14,14,0,0,1,5.1-2.07,10.81,10.81,0,0,1,1.38-.16H58a11.5,11.5,0,0,1,2.71.64,11.92,11.92,0,0,1,2.51,1.23c.79.48,1.47,1.12,2.22,1.68a.22.22,0,0,1,0,.31.21.21,0,0,1-.31,0h0l0,0c-.71-.56-1.37-1.2-2.13-1.69a12.49,12.49,0,0,0-2.41-1.24A10.81,10.81,0,0,0,58,24l-1.36,0a10.6,10.6,0,0,0-1.36.13,13.78,13.78,0,0,0-5.07,2A19,19,0,0,0,46,29.55Z"></path>
      <path class="cls-19" d="M60.42,24.52a7,7,0,0,1-.24,2,5.05,5.05,0,0,1-.89,1.78,5.71,5.71,0,0,0,.83-3.75h0a.15.15,0,0,1,.14-.16.15.15,0,0,1,.17.13Z"></path>
      <path class="cls-19" d="M56.36,24.14a6.42,6.42,0,0,1-1.09,2.11,4.32,4.32,0,0,1-1.86,1.39A5,5,0,0,0,56,24.07v0a.18.18,0,0,1,.21-.13.18.18,0,0,1,.13.21Z"></path>
      <path class="cls-19" d="M58.25,23.73A4.52,4.52,0,0,0,55.37,21a4.16,4.16,0,0,1,1.89.91,5.48,5.48,0,0,1,1.32,1.69.18.18,0,0,1-.08.24.18.18,0,0,1-.24-.08h0Z"></path>
      <path class="cls-19" d="M53.63,24.31a1.1,1.1,0,0,0-.47-.4,1.55,1.55,0,0,0-.65-.14,3.41,3.41,0,0,0-1.39.33,3.5,3.5,0,0,1,1.38-.52,1.57,1.57,0,0,1,1.45.53.19.19,0,0,1,0,.27.18.18,0,0,1-.26,0,0,0,0,0,1,0,0Z"></path>
      <path class="cls-30" d="M54,59.63s-14.1.82-4.88,13.65c0,0,1.94,2.44,2.28,3s.4-3.83,2.74-5.82S59.69,61.35,54,59.63Z"></path>
      <path class="cls-31" d="M54,59.63c-4.92,1.52-5.31,13.72-2.6,16.7.47.52.4-3.83,2.74-5.82S59.69,61.35,54,59.63Z"></path>
      <path class="cls-19" d="M51.62,76.47a19.68,19.68,0,0,1-1.77-5.21,14,14,0,0,1,0-5.51,11.48,11.48,0,0,1,.37-1.34l.55-1.29a11,11,0,0,1,1.62-2.27A11.82,11.82,0,0,1,54.48,59c.75-.55,1.6-1,2.4-1.43a.22.22,0,0,1,.3.08.21.21,0,0,1-.07.3h0l0,0a26.23,26.23,0,0,0-2.37,1.34,11.55,11.55,0,0,0-2.06,1.76A10.86,10.86,0,0,0,51,63.25l-.55,1.24a9.86,9.86,0,0,0-.39,1.31A13.83,13.83,0,0,0,50,71.24,19.33,19.33,0,0,0,51.62,76.47Z"></path>
      <path class="cls-19" d="M52.43,61.22a6.73,6.73,0,0,1,1.76,1,4.91,4.91,0,0,1,1.3,1.5,5.63,5.63,0,0,0-3.15-2.18h0a.15.15,0,0,1-.1-.19.15.15,0,0,1,.19-.1Z"></path>
      <path class="cls-19" d="M50.54,64.84a6.61,6.61,0,0,1,1.54,1.8,4.27,4.27,0,0,1,.58,2.25,5,5,0,0,0-2.32-3.76h0a.18.18,0,0,1,0-.25.18.18,0,0,1,.24,0Z"></path>
      <path class="cls-19" d="M50.88,62.93a4.52,4.52,0,0,0-3.62,1.63,4.14,4.14,0,0,1,1.56-1.4,5.16,5.16,0,0,1,2.06-.58.17.17,0,0,1,.19.16.18.18,0,0,1-.16.19h0Z"></path>
      <path class="cls-19" d="M49.66,67.43a1,1,0,0,0-.54.28,1.43,1.43,0,0,0-.38.55,3.34,3.34,0,0,0-.22,1.41,3.48,3.48,0,0,1,0-1.47,1.55,1.55,0,0,1,1-1.14.19.19,0,0,1,.24.12.2.2,0,0,1-.13.24h-.05Z"></path>
      <path class="cls-30" d="M40.32,91.64s-14.1.82-4.88,13.65c0,0,1.94,2.45,2.28,3s.4-3.83,2.74-5.82S46,93.37,40.32,91.64Z"></path>
      <path class="cls-31" d="M40.32,91.64c-4.92,1.52-5.31,13.72-2.6,16.7.47.52.4-3.83,2.74-5.82S46,93.37,40.32,91.64Z"></path>
      <path class="cls-19" d="M37.9,108.48a19.56,19.56,0,0,1-1.77-5.21,14.19,14.19,0,0,1,0-5.51,10.25,10.25,0,0,1,.38-1.34l.54-1.29a11.31,11.31,0,0,1,1.62-2.27A11.82,11.82,0,0,1,40.76,91c.75-.55,1.6-.94,2.4-1.42a.22.22,0,0,1,.23.37h0l0,0c-.78.45-1.63.81-2.37,1.34a11.55,11.55,0,0,0-2.06,1.76,10.86,10.86,0,0,0-1.62,2.17l-.55,1.24a9.86,9.86,0,0,0-.39,1.31,13.83,13.83,0,0,0-.12,5.44A19.33,19.33,0,0,0,37.9,108.48Z"></path>
      <path class="cls-19" d="M38.71,93.23a6.6,6.6,0,0,1,1.76,1,4.76,4.76,0,0,1,1.3,1.49,5.63,5.63,0,0,0-3.15-2.18h0a.15.15,0,0,1-.1-.19.15.15,0,0,1,.19-.1Z"></path>
      <path class="cls-19" d="M36.82,96.85a6.44,6.44,0,0,1,1.54,1.8,4.3,4.3,0,0,1,.58,2.25,5,5,0,0,0-2.32-3.76h0a.17.17,0,0,1,0-.24.18.18,0,0,1,.24,0Z"></path>
      <path class="cls-19" d="M37.16,94.94a4.52,4.52,0,0,0-3.62,1.63,4.14,4.14,0,0,1,1.56-1.4,5.2,5.2,0,0,1,2.06-.58.17.17,0,0,1,.19.16.18.18,0,0,1-.16.19h0Z"></path>
      <path class="cls-19" d="M35.94,99.44a1,1,0,0,0-.54.28,1.43,1.43,0,0,0-.38.55,3.34,3.34,0,0,0-.22,1.41,3.48,3.48,0,0,1,0-1.47,1.55,1.55,0,0,1,1-1.14.19.19,0,0,1,.24.12.2.2,0,0,1-.13.24h-.05Z"></path>
      <path class="cls-19" d="M57.38,110.87a35.15,35.15,0,0,0-4.14-9.08,51.72,51.72,0,0,0-6.21-8c-1.22-1.17-2.38-2.42-3.7-3.5-.65-.55-1.28-1.13-1.95-1.65l-2-1.54a25.48,25.48,0,0,0-2.1-1.47l-2.13-1.42c-1.46-.89-3-1.71-4.44-2.59,1.53.77,3.09,1.5,4.59,2.33l2.22,1.31,1.11.66,1.06.73,2.12,1.48c.7.5,1.35,1.06,2,1.59,1.39,1,2.61,2.26,3.9,3.41a53.44,53.44,0,0,1,6.66,8,36.94,36.94,0,0,1,4.7,9.4.87.87,0,0,1-1.65.52v0Z"></path>
      <path class="cls-19" d="M67.29,77a20.33,20.33,0,0,0-1.35-7.87,22.73,22.73,0,0,0-4.07-6.89A25.46,25.46,0,0,0,59,59.47c-.52-.41-1-.88-1.58-1.25l-1.68-1.09a13.16,13.16,0,0,0-1.76-1l-1.8-.92-3.73-1.51a14.31,14.31,0,0,1,3.92,1.11l1.83.9a13.5,13.5,0,0,1,1.79,1l1.73,1.1c.58.36,1.08.84,1.62,1.25a26.64,26.64,0,0,1,3,2.82,23.6,23.6,0,0,1,4.25,7,20.87,20.87,0,0,1,1.38,8.16.33.33,0,0,1-.65,0Z"></path>
      <path class="cls-19" d="M57.6,91.67a53.77,53.77,0,0,0-6-10.14,48,48,0,0,0-8.12-8.6,36.38,36.38,0,0,0-4.85-3.4A32.84,32.84,0,0,0,33.27,67,43.5,43.5,0,0,0,21.63,64.5a23.88,23.88,0,0,1,6,.23c1,.12,2,.39,3,.59s2,.53,2.9.89a34.44,34.44,0,0,1,5.55,2.48A37.15,37.15,0,0,1,44.17,72a49.18,49.18,0,0,1,8.6,8.58A53.8,53.8,0,0,1,59.18,91a.86.86,0,0,1-.41,1.15.87.87,0,0,1-1.15-.42h0Z"></path>
      <path class="cls-19" d="M57.74,101.44l12.78-33c1-2.74,2.18-5.51,3.15-8.24a78.87,78.87,0,0,0,2.21-8.52c.61-2.88,1.12-5.78,1.59-8.69l.67-4.37.3-2.19.14-1.09a2.86,2.86,0,0,1,.32-1.08,9,9,0,0,1-.13,2.21l-.26,2.2L77.91,43c-.43,2.92-.9,5.84-1.47,8.74a80.14,80.14,0,0,1-2.09,8.62c-1,2.83-2,5.55-3,8.33L59,101.92h0a.71.71,0,0,1-.9.41.69.69,0,0,1-.41-.89Z"></path>
      <path class="cls-30" d="M51.46,54.37a8.88,8.88,0,0,0,0,.89C49.72,65.51,34.38,59.2,34.38,59.2,46.74,44.52,50.85,52.85,51.46,54.37Z"></path>
      <path class="cls-31" d="M51.45,54.63c0,.22,0,.44,0,.66-1.69,10.29-17.06,4-17.06,4C43.51,52.57,50.61,54.38,51.45,54.63Z"></path>
      <path class="cls-19" d="M34.38,59.26A22.4,22.4,0,0,1,42.14,55,19.8,19.8,0,0,1,51,54.18a.32.32,0,0,1,.27.37.32.32,0,0,1-.36.26h0a19.27,19.27,0,0,0-8.7.46A22.28,22.28,0,0,0,34.38,59.26Z"></path>
      <path class="cls-19" d="M49.18,54.44a4.18,4.18,0,0,0-1,.77,8.38,8.38,0,0,0-.89,1,15.32,15.32,0,0,0-1.43,2.28,15.1,15.1,0,0,1,1.33-2.35A9.62,9.62,0,0,1,48,55.07a4.63,4.63,0,0,1,1.08-.87.14.14,0,0,1,.18,0,.13.13,0,0,1-.06.18h0Z"></path>
      <path class="cls-19" d="M43.64,54.89a14.3,14.3,0,0,0-1.86,1.62,7,7,0,0,0-1.4,2,7,7,0,0,1,1.3-2.12,14.18,14.18,0,0,1,1.79-1.76.14.14,0,0,1,.18.22Z"></path>
      <path class="cls-19" d="M45.62,54.25a1.27,1.27,0,0,0-.3-.7,2.06,2.06,0,0,0-.64-.53A4.46,4.46,0,0,0,43,52.56a4.5,4.5,0,0,1,1.73.32,1.84,1.84,0,0,1,1.18,1.36.15.15,0,0,1-.13.18.15.15,0,0,1-.18-.13h0Z"></path>
      <path class="cls-19" d="M40.63,55.54a.69.69,0,0,0-.22-.15l-.3-.11c-.21-.06-.42-.1-.64-.14.22,0,.44,0,.66,0l.33.07a.73.73,0,0,1,.33.18.1.1,0,1,1-.14.13h0Z"></path>
      <path class="cls-19" d="M66,80.53A14.48,14.48,0,0,1,70.73,74,18.31,18.31,0,0,1,78,70.57a30,30,0,0,1,8-.69c1.34.15,2.67.25,4,.46s2.61.57,3.9.91c-1.33-.12-2.65-.29-4-.47s-2.64-.18-4-.28a28.86,28.86,0,0,0-7.82.77,18.28,18.28,0,0,0-7,3.31,14.32,14.32,0,0,0-4.61,6.12l0,0a.31.31,0,0,1-.59-.21Z"></path>
      <path class="cls-19" d="M57.74,45.25a68.2,68.2,0,0,1,4-11.33,58.56,58.56,0,0,1,2.76-5.34c.52-.87,1-1.72,1.61-2.55A13.61,13.61,0,0,1,68,23.67c-.44.92-1.09,1.67-1.6,2.54s-1,1.69-1.53,2.56c-1,1.75-1.84,3.53-2.61,5.36s-1.49,3.69-2.12,5.58-1.22,3.79-1.69,5.71h0a.38.38,0,0,1-.45.28.38.38,0,0,1-.28-.45Z"></path>
      <path class="cls-19" d="M58.51,71.89A64,64,0,0,1,51,63.73a46.61,46.61,0,0,1-5.77-9.45c-.42-.83-.69-1.72-1-2.58s-.52-1.79-.78-2.67c-.44-1.77-.88-3.54-1.44-5.27A44.45,44.45,0,0,0,40,38.64,18,18,0,0,0,37.18,34a18.21,18.21,0,0,1,3,4.56,48.1,48.1,0,0,1,2.14,5.07C43,45.34,43.5,47.11,44,48.87c.28.86.53,1.73.86,2.57s.66,1.68,1.1,2.47a45.59,45.59,0,0,0,6,9,62,62,0,0,0,7.64,7.64l0,0a.86.86,0,0,1-1.1,1.33Z"></path>
      <path class="cls-30" d="M38.82,36.09S45,25.77,24,26.31C24,26.31,29.68,42.66,38.82,36.09Z"></path>
      <path class="cls-31" d="M38.77,36.13s-3-7.24-14.82-9.78C24,26.35,29.63,42.69,38.77,36.13Z"></path>
      <path class="cls-19" d="M24,26.35a22.31,22.31,0,0,1,8.52,3A19.78,19.78,0,0,1,39,35.77a.32.32,0,0,1-.11.44.31.31,0,0,1-.43-.1h0a19.19,19.19,0,0,0-6.15-6.43A22.22,22.22,0,0,0,24,26.35Z"></path>
      <path class="cls-19" d="M37.38,34.22A4.42,4.42,0,0,0,36.11,34a10,10,0,0,0-1.34,0,15,15,0,0,0-2.65.44,15.71,15.71,0,0,1,2.64-.57,10.24,10.24,0,0,1,1.36-.06,4.68,4.68,0,0,1,1.37.23.13.13,0,0,1,.07.17.12.12,0,0,1-.16.07h0Z"></path>
      <path class="cls-19" d="M33.36,30.37a14.28,14.28,0,0,0-2.45-.31,6.94,6.94,0,0,0-2.44.3,7.21,7.21,0,0,1,2.44-.44,15.14,15.14,0,0,1,2.51.18.14.14,0,0,1,.11.16.13.13,0,0,1-.16.11h0Z"></path>
      <path class="cls-19" d="M35.15,31.43a1.28,1.28,0,0,0,.33-.69,2.07,2.07,0,0,0,0-.82,4.55,4.55,0,0,0-.75-1.55,4.65,4.65,0,0,1,.9,1.5,1.85,1.85,0,0,1-.24,1.79.15.15,0,0,1-.22,0,.17.17,0,0,1,0-.22h0Z"></path>
      <path class="cls-19" d="M30.88,28.56a.73.73,0,0,0,0-.27c0-.1-.07-.2-.11-.3a5.45,5.45,0,0,0-.32-.57,5.25,5.25,0,0,1,.4.53,2.69,2.69,0,0,1,.16.29.78.78,0,0,1,.09.37.11.11,0,0,1-.1.09.1.1,0,0,1-.09-.1v0Z"></path>
      <path class="cls-30" d="M67.16,24.82S61,14.5,82,15C82,15,76.3,31.39,67.16,24.82Z"></path>
      <path class="cls-31" d="M67.21,24.86s3-7.23,14.83-9.78C82,15.08,76.35,31.43,67.21,24.86Z"></path>
      <path class="cls-19" d="M82,15.08a22.15,22.15,0,0,0-8.4,3.26,20.84,20.84,0,0,0-6.31,6.37.08.08,0,0,1-.11,0,.1.1,0,0,1,0-.12,18.14,18.14,0,0,1,6.37-6.42A22.29,22.29,0,0,1,82,15.08Z"></path>
      <path class="cls-19" d="M68.5,22.72a5,5,0,0,1,1.37-.23,8.73,8.73,0,0,1,1.35.07,14.76,14.76,0,0,1,2.64.56,15,15,0,0,0-2.65-.44,9.84,9.84,0,0,0-1.33,0,4.62,4.62,0,0,0-1.27.27h0a.13.13,0,0,1-.17-.07.13.13,0,0,1,.07-.16Z"></path>
      <path class="cls-19" d="M72.57,18.83a15,15,0,0,1,2.5-.18,7.27,7.27,0,0,1,2.45.44,7,7,0,0,0-2.45-.3,14.16,14.16,0,0,0-2.44.31h0a.14.14,0,0,1-.17-.1.16.16,0,0,1,.11-.17Z"></path>
      <path class="cls-19" d="M70.62,20.39a1.83,1.83,0,0,1-.23-1.78,4.28,4.28,0,0,1,.9-1.51,4.37,4.37,0,0,0-.75,1.55,1.9,1.9,0,0,0,0,.82,1.25,1.25,0,0,0,.34.69v0a.16.16,0,0,1,0,.22.17.17,0,0,1-.23,0Z"></path>
      <path class="cls-19" d="M74.93,17.34A.68.68,0,0,1,75,17a2.75,2.75,0,0,1,.17-.29,3.42,3.42,0,0,1,.4-.52,4.48,4.48,0,0,0-.32.56,1.88,1.88,0,0,0-.12.3.54.54,0,0,0,0,.27v0a.08.08,0,0,1-.06.11.09.09,0,0,1-.12-.06Z"></path>
      <path class="cls-30" d="M39.92,44.67s-1-12-17.76.6C22.16,45.27,36.26,55.31,39.92,44.67Z"></path>
      <path class="cls-31" d="M39.9,44.73s-6.66-4.15-17.76.6C22.14,45.33,36.24,55.37,39.9,44.73Z"></path>
      <path class="cls-19" d="M22.14,45.33a23.78,23.78,0,0,1,5.13-1.84,23,23,0,0,1,5.43-.6,18.21,18.21,0,0,1,5.42.85,19.3,19.3,0,0,1,5,2.41.33.33,0,0,1,.1.44.32.32,0,0,1-.44.1h0A18.45,18.45,0,0,0,38,44.2a17.56,17.56,0,0,0-5.28-1,22.74,22.74,0,0,0-5.39.44A23.59,23.59,0,0,0,22.14,45.33Z"></path>
      <path class="cls-19" d="M37.66,44a4.5,4.5,0,0,0-1.2.52,8,8,0,0,0-1.09.77,14.75,14.75,0,0,0-1.9,1.89,14.92,14.92,0,0,1,1.82-2,9.65,9.65,0,0,1,1.07-.84,4.81,4.81,0,0,1,1.25-.6.13.13,0,0,1,.07.25h0Z"></path>
      <path class="cls-19" d="M32.15,43.17A13.7,13.7,0,0,0,30,44.33,6.9,6.9,0,0,0,28.15,46a7.21,7.21,0,0,1,1.75-1.78A14,14,0,0,1,32,42.91a.13.13,0,0,1,.18.06.14.14,0,0,1-.06.19h0Z"></path>
      <path class="cls-19" d="M34.22,43a1.37,1.37,0,0,0-.12-.76,2,2,0,0,0-.51-.65,4.48,4.48,0,0,0-1.51-.84,4.48,4.48,0,0,1,1.61.72,1.83,1.83,0,0,1,.84,1.59.16.16,0,0,1-.17.14.15.15,0,0,1-.14-.16v0Z"></path>
      <path class="cls-19" d="M29.08,43.12a.84.84,0,0,0-.19-.2l-.26-.17a4.53,4.53,0,0,0-.59-.28,5,5,0,0,1,.63.19l.3.15a.71.71,0,0,1,.28.25.09.09,0,0,1-.16.1v0Z"></path>
      <path class="cls-30" d="M48.92,18.71S45.33,7.25,31.73,23.22C31.73,23.22,47.7,29.9,48.92,18.71Z"></path>
      <path class="cls-31" d="M48.91,18.77S41.5,16.2,31.73,23.28C31.73,23.28,47.7,30,48.91,18.77Z"></path>
      <path class="cls-19" d="M31.73,23.28a23,23,0,0,1,4.6-2.92,22.22,22.22,0,0,1,5.16-1.79A17.93,17.93,0,0,1,47,18.2a19.17,19.17,0,0,1,5.37,1.25.32.32,0,0,1,.19.41.32.32,0,0,1-.4.19h0a18.13,18.13,0,0,0-5.16-1.36,17.6,17.6,0,0,0-5.37.2,22.91,22.91,0,0,0-5.16,1.62A23.15,23.15,0,0,0,31.73,23.28Z"></path>
      <path class="cls-19" d="M46.56,18.54a4.18,4.18,0,0,0-1.05.76,9.25,9.25,0,0,0-.89,1,15.81,15.81,0,0,0-1.44,2.27,14.3,14.3,0,0,1,1.34-2.34,7.88,7.88,0,0,1,.86-1,4.26,4.26,0,0,1,1.09-.87.13.13,0,0,1,.17.05.13.13,0,0,1-.06.18h0Z"></path>
      <path class="cls-19" d="M41,19a13.51,13.51,0,0,0-1.86,1.61,6.88,6.88,0,0,0-1.41,2,6.91,6.91,0,0,1,1.31-2.11,13,13,0,0,1,1.8-1.75.13.13,0,0,1,.19,0,.14.14,0,0,1,0,.2h0Z"></path>
      <path class="cls-19" d="M43,18.33a1.36,1.36,0,0,0-.29-.71,2.15,2.15,0,0,0-.64-.52,4.49,4.49,0,0,0-1.66-.48,4.52,4.52,0,0,1,1.73.34,1.83,1.83,0,0,1,1.17,1.36.15.15,0,0,1-.13.18.15.15,0,0,1-.18-.13h0Z"></path>
      <path class="cls-19" d="M38,19.59a.59.59,0,0,0-.22-.15,2.09,2.09,0,0,0-.3-.11,6.42,6.42,0,0,0-.63-.15,4.62,4.62,0,0,1,.65.06l.33.07a.73.73,0,0,1,.33.18.1.1,0,0,1,0,.14.09.09,0,0,1-.13,0h0Z"></path>
      <path class="cls-30" d="M43.77,43S36.19,33.73,57,31.17C57,31.17,53.78,48.18,43.77,43Z"></path>
      <path class="cls-31" d="M43.83,43.07s1.93-7.6,13.22-11.87C57.05,31.2,53.84,48.21,43.83,43.07Z"></path>
      <path class="cls-19" d="M57.05,31.2a23.25,23.25,0,0,0-4.89,2.37A22.56,22.56,0,0,0,48,37a17.69,17.69,0,0,0-3.12,4.37,18.55,18.55,0,0,0-1.71,5.06v0a.32.32,0,0,1-.38.24.32.32,0,0,1-.25-.38h0a18.91,18.91,0,0,1,1.91-5.17,17.72,17.72,0,0,1,3.32-4.37,22.58,22.58,0,0,1,4.33-3.33A23.33,23.33,0,0,1,57.05,31.2Z"></path>
      <path class="cls-19" d="M44.78,40.77a4.43,4.43,0,0,1,1.32-.43,7.73,7.73,0,0,1,1.35-.14,14.31,14.31,0,0,1,2.7.17,15.13,15.13,0,0,0-2.69,0,9.78,9.78,0,0,0-1.32.2,4.46,4.46,0,0,0-1.22.46h0a.13.13,0,0,1-.17-.05.12.12,0,0,1,0-.17Z"></path>
      <path class="cls-19" d="M48.23,36.31a14.9,14.9,0,0,1,2.45-.54,7.18,7.18,0,0,1,2.49.07,6.78,6.78,0,0,0-2.46.07,13.77,13.77,0,0,0-2.38.67h0a.14.14,0,0,1-.18-.08.13.13,0,0,1,.08-.18Z"></path>
      <path class="cls-19" d="M46.54,38.15a1.83,1.83,0,0,1-.49-1.74,4.51,4.51,0,0,1,.66-1.62,4.41,4.41,0,0,0-.51,1.64,2.1,2.1,0,0,0,.09.83,1.25,1.25,0,0,0,.43.63h0a.16.16,0,0,1,0,.22.16.16,0,0,1-.22,0Z"></path>
      <path class="cls-19" d="M50.35,34.49a.67.67,0,0,1,0-.38,2,2,0,0,1,.12-.31,6.45,6.45,0,0,1,.31-.58c-.08.2-.16.41-.23.61s0,.21-.07.31a.74.74,0,0,0,0,.27v0a.1.1,0,0,1-.05.13.1.1,0,0,1-.13-.05Z"></path>
      <path class="cls-30" d="M78,36.5l.87.21c10.34,1,8.22-15.45,8.22-15.45C69.72,29.38,76.7,35.51,78,36.5Z"></path>
      <path class="cls-31" d="M78.26,36.56l.64.16c10.38,1,8.26-15.45,8.26-15.45C78.33,28.35,78.24,35.68,78.26,36.56Z"></path>
      <path class="cls-19" d="M87.16,21.27a22.22,22.22,0,0,0-5.89,6.55,19.33,19.33,0,0,0-2.7,8.28.31.31,0,0,1-.34.29.32.32,0,0,1-.29-.34h0A19.74,19.74,0,0,1,81,27.65,22.43,22.43,0,0,1,87.16,21.27Z"></path>
      <path class="cls-19" d="M78.46,34.16a4.31,4.31,0,0,1,1.12-.81,9.34,9.34,0,0,1,1.25-.56,14.93,14.93,0,0,1,2.61-.67,14.41,14.41,0,0,0-2.57.79,8.84,8.84,0,0,0-1.19.6,4.55,4.55,0,0,0-1,.81h0a.12.12,0,1,1-.19-.16Z"></path>
      <path class="cls-19" d="M80.37,28.86a13.8,13.8,0,0,1,2.16-1.28,7.1,7.1,0,0,1,2.38-.7,6.94,6.94,0,0,0-2.32.83,14.08,14.08,0,0,0-2,1.37h0a.14.14,0,0,1-.18-.22Z"></path>
      <path class="cls-19" d="M79.32,31.13a1.83,1.83,0,0,1-1-1.5,4.49,4.49,0,0,1,.12-1.75,4.51,4.51,0,0,0,0,1.72,2,2,0,0,0,.33.76,1.37,1.37,0,0,0,.61.47h0a.17.17,0,0,1,.11.2.16.16,0,0,1-.2.1Z"></path>
      <path class="cls-19" d="M81.81,26.47a.69.69,0,0,1-.09-.37c0-.11,0-.22,0-.33s.07-.44.12-.65c0,.22,0,.44,0,.65a3.16,3.16,0,0,0,0,.32.78.78,0,0,0,.09.25v0a.09.09,0,0,1,0,.13.1.1,0,0,1-.14,0Z"></path>
      <path class="cls-19" d="M56.43,193.25c.16-8.09.21-16.18.21-24.28l0-24.3c0-16.21.1-32.44.79-48.65l.3-6.08.38-6.08c.25-4,.65-8.12.85-12.11a151,151,0,0,0-1.09-24.12c-.45-4-1-8-1.5-12.05a65.93,65.93,0,0,0-2.66-11.75A90.26,90.26,0,0,0,43,2.16,91,91,0,0,1,54.44,23.57a65.49,65.49,0,0,1,3,11.85c.62,4,1.25,8,1.8,12a145.71,145.71,0,0,1,1.57,24.36c-.15,4.11-.47,8.11-.66,12.16L59.86,90l-.2,6.06c-.52,16.17-.45,32.36-.35,48.56L59.38,169c-.05,8.1-.15,16.22-.36,24.33a1.3,1.3,0,0,1-2.59-.06Z"></path>
      <path class="cls-30" d="M47,8.59s.53-14.12-13.12-6.16c0,0-2.61,1.7-3.25,2s3.78.76,5.53,3.28S44.73,14.05,47,8.59Z"></path>
      <path class="cls-31" d="M47,8.59c-1-5-13.15-6.59-16.37-4.18-.56.42,3.78.76,5.53,3.28S44.73,14.05,47,8.59Z"></path>
      <path class="cls-19" d="M30.46,4.58a16.9,16.9,0,0,1,8.92-1.12A11.93,11.93,0,0,1,43.65,5,11,11,0,0,1,47,8.15a.13.13,0,0,1,0,.17.12.12,0,0,1-.17,0h0a10.66,10.66,0,0,0-3.19-3.12,11.62,11.62,0,0,0-4.2-1.58A16.69,16.69,0,0,0,30.46,4.58Z"></path>
      <path class="cls-19" d="M45.59,6.69a7.18,7.18,0,0,1-1.15,1.72A4.85,4.85,0,0,1,42.8,9.65a6.11,6.11,0,0,0,2.61-3h0a.1.1,0,0,1,.13-.06.11.11,0,0,1,.06.14Z"></path>
      <path class="cls-19" d="M42.27,4.48a7.55,7.55,0,0,1-2,1.41,4.44,4.44,0,0,1-2.37.45,4.44,4.44,0,0,0,2.34-.52,7.31,7.31,0,0,0,1.91-1.45.08.08,0,0,1,.11,0,.07.07,0,0,1,0,.11Z"></path>
      <path class="cls-19" d="M44.06,5.35a4.77,4.77,0,0,0-1.34-4,4,4,0,0,1,1.22,1.81,6,6,0,0,1,.3,2.19.1.1,0,0,1-.1.09.08.08,0,0,1-.08-.1h0Z"></path>
      <path class="cls-19" d="M39.77,3.55a1.48,1.48,0,0,0-.83-1.1,3.27,3.27,0,0,0-1.42-.31A3.14,3.14,0,0,1,39,2.4a1.54,1.54,0,0,1,.92,1.14s0,.06,0,.07a.08.08,0,0,1-.07,0Z"></path>
      <path class="cls-30" d="M68.66,28s6-10.39,15.79,8.15C84.45,36.13,67.4,39.17,68.66,28Z"></path>
      <path class="cls-31" d="M68.65,28s7.8-.89,15.79,8.15C84.44,36.19,67.4,39.22,68.65,28Z"></path>
      <path class="cls-19" d="M84.47,36.2a23.5,23.5,0,0,0-4-3.76,22.2,22.2,0,0,0-4.7-2.76,17.67,17.67,0,0,0-5.23-1.43,18.44,18.44,0,0,0-5.4.17h0A.22.22,0,1,1,65.1,28h0a18.58,18.58,0,0,1,5.52-.06,17.94,17.94,0,0,1,5.28,1.55,23.19,23.19,0,0,1,4.68,2.88A24,24,0,0,1,84.47,36.2Z"></path>
      <path class="cls-19" d="M71.14,28.12A4.22,4.22,0,0,1,72,29.2a9.87,9.87,0,0,1,.62,1.21A15,15,0,0,1,73.42,33a14,14,0,0,0-.91-2.52,8.38,8.38,0,0,0-.66-1.17,4.2,4.2,0,0,0-.85-1h0a.14.14,0,0,1,0-.18.12.12,0,0,1,.18,0Z"></path>
      <path class="cls-19" d="M76.53,29.77a14.25,14.25,0,0,1,1.38,2.09,7.16,7.16,0,0,1,.82,2.35,7.23,7.23,0,0,0-.94-2.28,14.31,14.31,0,0,0-1.47-2h0a.14.14,0,1,1,.21-.19Z"></path>
      <path class="cls-19" d="M74.22,28.83a1.85,1.85,0,0,1,1.44-1.08,4.53,4.53,0,0,1,1.76.05,4.32,4.32,0,0,0-1.72.11,1.85,1.85,0,0,0-.74.37,1.32,1.32,0,0,0-.44.63v0a.17.17,0,0,1-.2.11.16.16,0,0,1-.11-.19Z"></path>
      <path class="cls-19" d="M79,31.1a.68.68,0,0,1,.36-.11h.34a4.84,4.84,0,0,1,.65.09h-.65a1.64,1.64,0,0,0-.32.05.59.59,0,0,0-.25.1h0a.1.1,0,0,1-.14,0,.09.09,0,0,1,0-.13Z"></path>
      <path class="cls-30" d="M78.61,74.42s11.73-2.56,4.62,17.16C83.23,91.58,69.51,81,78.61,74.42Z"></path>
      <path class="cls-31" d="M78.56,74.46s5.92,5.16,4.62,17.15C83.18,91.61,69.46,81.07,78.56,74.46Z"></path>
      <path class="cls-19" d="M83.19,91.65a23.28,23.28,0,0,0,.12-5.47,23,23,0,0,0-1.13-5.33A17.79,17.79,0,0,0,79.71,76,18.65,18.65,0,0,0,76,72.15l0,0a.22.22,0,0,1,0-.31.21.21,0,0,1,.31,0h0a18.72,18.72,0,0,1,3.76,4,17.75,17.75,0,0,1,2.41,5,23,23,0,0,1,1,5.39A23.93,23.93,0,0,1,83.19,91.65Z"></path>
      <path class="cls-19" d="M80.19,76.35A4.42,4.42,0,0,1,80,77.72,8.09,8.09,0,0,1,79.49,79a14.67,14.67,0,0,1-1.37,2.33,14.6,14.6,0,0,0,1.25-2.38,7.87,7.87,0,0,0,.42-1.27,4.09,4.09,0,0,0,.14-1.29h0a.13.13,0,1,1,.26,0Z"></path>
      <path class="cls-19" d="M82.6,81.44A13.32,13.32,0,0,1,82,83.87a7,7,0,0,1-1.19,2.19,6.84,6.84,0,0,0,1.06-2.23,13.44,13.44,0,0,0,.47-2.42h0a.13.13,0,0,1,.15-.13.14.14,0,0,1,.12.16Z"></path>
      <path class="cls-19" d="M81.73,79.1a1.85,1.85,0,0,1,1.77.34,4.7,4.7,0,0,1,1.15,1.33,4.71,4.71,0,0,0-1.24-1.2,2.19,2.19,0,0,0-.77-.29,1.28,1.28,0,0,0-.76.1h0a.15.15,0,0,1-.21-.07.16.16,0,0,1,.07-.21Z"></path>
      <path class="cls-19" d="M83.27,84.15a.71.71,0,0,1,.33.2,2.62,2.62,0,0,1,.22.25,4,4,0,0,1,.37.54,5,5,0,0,0-.44-.48l-.24-.2a.66.66,0,0,0-.24-.12h0c-.06,0-.1,0-.09-.1a.09.09,0,0,1,.09-.09Z"></path>
      <path class="cls-30" d="M23.33,64.63S17.51,54.12,7.4,72.49C7.4,72.49,24.39,75.83,23.33,64.63Z"></path>
      <path class="cls-31" d="M23.34,64.69s-7.78-1-15.93,7.86C7.41,72.55,24.4,75.89,23.34,64.69Z"></path>
      <path class="cls-19" d="M7.38,72.57a24.08,24.08,0,0,1,4-3.79A22.72,22.72,0,0,1,16.07,66a18,18,0,0,1,5.3-1.46,18.57,18.57,0,0,1,5.52.16.21.21,0,0,1,.19.25.23.23,0,0,1-.25.19h0a18.82,18.82,0,0,0-5.4-.26,18.16,18.16,0,0,0-5.26,1.33,22.85,22.85,0,0,0-4.74,2.68A23.55,23.55,0,0,0,7.38,72.57Z"></path>
      <path class="cls-19" d="M21,64.93a4,4,0,0,0-.87,1A8.28,8.28,0,0,0,19.44,67a14.93,14.93,0,0,0-1,2.51A14.78,14.78,0,0,1,19.33,67,8.18,8.18,0,0,1,20,65.78a4.44,4.44,0,0,1,.89-1.06.12.12,0,0,1,.18,0,.14.14,0,0,1,0,.18h0Z"></path>
      <path class="cls-19" d="M15.64,66.46a14.23,14.23,0,0,0-1.5,2,6.75,6.75,0,0,0-1,2.27A7,7,0,0,1,14,68.34a13,13,0,0,1,1.41-2.07.14.14,0,0,1,.22.18h0Z"></path>
      <path class="cls-19" d="M17.46,65.45a1.4,1.4,0,0,0-.43-.64,2,2,0,0,0-.73-.38,4.33,4.33,0,0,0-1.72-.14,4.53,4.53,0,0,1,1.76,0,1.84,1.84,0,0,1,1.42,1.11.16.16,0,1,1-.29.11v0Z"></path>
      <path class="cls-19" d="M12.82,67.68a.76.76,0,0,0-.25-.1l-.31,0a4.85,4.85,0,0,0-.66,0,5,5,0,0,1,.66-.08h.33a.7.7,0,0,1,.36.12.09.09,0,0,1,0,.13.09.09,0,0,1-.13,0h0Z"></path>
      <path class="cls-30" d="M34.88,84.12s-1.06-12-17.75.72C17.13,84.84,31.29,94.78,34.88,84.12Z"></path>
      <path class="cls-31" d="M34.86,84.17s-6.69-4.1-17.75.72C17.11,84.89,31.28,94.84,34.86,84.17Z"></path>
      <path class="cls-19" d="M17.07,84.89A24.25,24.25,0,0,1,22.23,83a23.26,23.26,0,0,1,5.45-.63,18.05,18.05,0,0,1,5.45.82,18.73,18.73,0,0,1,5,2.39.22.22,0,0,1,.07.3.22.22,0,0,1-.31.07h0A18.56,18.56,0,0,0,33,83.55a17.87,17.87,0,0,0-5.34-.92,23.5,23.5,0,0,0-5.42.52A23.83,23.83,0,0,0,17.07,84.89Z"></path>
      <path class="cls-19" d="M32.61,83.44a4.25,4.25,0,0,0-1.18.52,8.6,8.6,0,0,0-1.09.78,14.91,14.91,0,0,0-1.9,1.91,14.41,14.41,0,0,1,1.82-2,8.77,8.77,0,0,1,1.06-.85,4.4,4.4,0,0,1,1.25-.61.11.11,0,0,1,.15.09.13.13,0,0,1-.08.16h0Z"></path>
      <path class="cls-19" d="M27.1,82.66a14.57,14.57,0,0,0-2.16,1.18,7.07,7.07,0,0,0-1.82,1.67,7.14,7.14,0,0,1,1.73-1.78A14.13,14.13,0,0,1,27,82.41a.14.14,0,0,1,.19.06.15.15,0,0,1-.07.19h0Z"></path>
      <path class="cls-19" d="M29.17,82.48a1.3,1.3,0,0,0-.13-.76,2.26,2.26,0,0,0-.51-.65A4.91,4.91,0,0,0,27,80.25a4.9,4.9,0,0,1,1.61.7,1.85,1.85,0,0,1,.85,1.59.16.16,0,0,1-.17.15.16.16,0,0,1-.14-.17v0Z"></path>
      <path class="cls-19" d="M24,82.64a.67.67,0,0,0-.19-.19,1.81,1.81,0,0,0-.27-.18c-.18-.1-.38-.19-.58-.28a6.4,6.4,0,0,1,.62.2,1.73,1.73,0,0,1,.31.14.64.64,0,0,1,.28.25.09.09,0,0,1,0,.13.1.1,0,0,1-.13,0v0Z"></path>
      <path class="cls-30" d="M80.32,45.69s1.62-11.9,17.7,1.55C98,47.24,83.4,56.51,80.32,45.69Z"></path>
      <path class="cls-31" d="M80.34,45.75S87.21,42,98,47.3C98,47.3,83.41,56.57,80.34,45.75Z"></path>
      <path class="cls-19" d="M98.07,47.3a23.44,23.44,0,0,0-5.1-2,22.34,22.34,0,0,0-5.39-.77,17.73,17.73,0,0,0-5.38.66,18.7,18.7,0,0,0-4.94,2.2h0A.22.22,0,1,1,77,47h0a19,19,0,0,1,5.09-2.15,18.07,18.07,0,0,1,5.47-.57,23.08,23.08,0,0,1,5.42.89A23.65,23.65,0,0,1,98.07,47.3Z"></path>
      <path class="cls-19" d="M82.67,44.87a4.71,4.71,0,0,1,1.21.67,8.85,8.85,0,0,1,1,.9,14.29,14.29,0,0,1,1.72,2.08,14.85,14.85,0,0,0-1.81-2,9.23,9.23,0,0,0-1-.83,4.4,4.4,0,0,0-1.17-.58h0a.13.13,0,0,1-.09-.16.12.12,0,0,1,.15-.09Z"></path>
      <path class="cls-19" d="M88.28,44.35a14.86,14.86,0,0,1,2.07,1.42A7,7,0,0,1,92,47.64a7.1,7.1,0,0,0-1.74-1.76,13.7,13.7,0,0,0-2.1-1.28h0a.14.14,0,0,1,.12-.25Z"></path>
      <path class="cls-19" d="M85.78,44.37a1.88,1.88,0,0,1,.93-1.55,4.67,4.67,0,0,1,1.64-.62A4.65,4.65,0,0,0,86.8,43a2,2,0,0,0-.54.62,1.33,1.33,0,0,0-.17.75v0a.16.16,0,0,1-.14.18.16.16,0,0,1-.17-.13Z"></path>
      <path class="cls-19" d="M91.05,44.65a.76.76,0,0,1,.3-.23l.31-.13a4.61,4.61,0,0,1,.64-.16,4,4,0,0,0-.6.25l-.28.16a.66.66,0,0,0-.19.18v0a.09.09,0,0,1-.12,0,.09.09,0,0,1,0-.12Z"></path>
      <path class="cls-30" d="M33.12,63.21S41.23,54.35,20.6,50.6C20.6,50.6,22.83,67.77,33.12,63.21Z"></path>
      <path class="cls-31" d="M33.07,63.23s-1.5-7.7-12.53-12.6C20.54,50.63,22.78,67.79,33.07,63.23Z"></path>
      <path class="cls-19" d="M20.52,50.6a24.14,24.14,0,0,1,4.85,2.55,23,23,0,0,1,4.15,3.6,18.08,18.08,0,0,1,3.07,4.56A19.07,19.07,0,0,1,34.2,66.6a.22.22,0,1,1-.44.08h0v0a18.39,18.39,0,0,0-1.46-5.2,17.7,17.7,0,0,0-2.94-4.56,22.61,22.61,0,0,0-4-3.65A23.83,23.83,0,0,0,20.52,50.6Z"></path>
      <path class="cls-19" d="M32.09,61.08a4.26,4.26,0,0,0-1.19-.52,8,8,0,0,0-1.31-.28,15,15,0,0,0-2.68-.11,14.32,14.32,0,0,1,2.7,0,8.69,8.69,0,0,1,1.34.21,4.69,4.69,0,0,1,1.29.51.12.12,0,1,1-.13.21h0Z"></path>
      <path class="cls-19" d="M28.94,56.49a14.56,14.56,0,0,0-2.33-.8,7,7,0,0,0-2.46-.21,7.19,7.19,0,0,1,2.49.07,14.65,14.65,0,0,1,2.41.68.14.14,0,0,1,.08.18.15.15,0,0,1-.18.09Z"></path>
      <path class="cls-19" d="M30.48,57.89a1.34,1.34,0,0,0,.46-.6,2.08,2.08,0,0,0,.13-.82,4.28,4.28,0,0,0-.41-1.67,4.55,4.55,0,0,1,.57,1.66,1.85,1.85,0,0,1-.59,1.7.17.17,0,0,1-.22,0,.15.15,0,0,1,0-.22h0Z"></path>
      <path class="cls-19" d="M26.88,54.21a.72.72,0,0,0,0-.27c0-.11,0-.21,0-.32a5,5,0,0,0-.2-.62,5.55,5.55,0,0,1,.29.6c0,.1.07.21.1.32a.69.69,0,0,1,0,.38.09.09,0,0,1-.11.06.1.1,0,0,1-.07-.12h0Z"></path>
      <path class="cls-30" d="M85.63,68.14S97,72.08,92.24,51.66C92.24,51.66,77.36,60.51,85.63,68.14Z"></path>
      <path class="cls-31" d="M85.58,68.1s6.48-4.42,6.61-16.48C92.19,51.62,77.32,60.47,85.58,68.1Z"></path>
      <path class="cls-19" d="M92.2,51.58a23.36,23.36,0,0,1-.42,5.47,22.88,22.88,0,0,1-1.65,5.23,18,18,0,0,1-3,4.63,18.72,18.72,0,0,1-4.21,3.57.22.22,0,0,1-.31-.06.21.21,0,0,1,.06-.31h0a18.54,18.54,0,0,0,4.19-3.4,18.06,18.06,0,0,0,3-4.5A22.81,22.81,0,0,0,91.67,57,23.63,23.63,0,0,0,92.2,51.58Z"></path>
      <path class="cls-19" d="M87.17,66.36a4.35,4.35,0,0,0,0-1.3,8.46,8.46,0,0,0-.27-1.31,14.42,14.42,0,0,0-1-2.51A14.67,14.67,0,0,1,87,63.71,8.52,8.52,0,0,1,87.37,65a4.59,4.59,0,0,1,0,1.39.13.13,0,0,1-.15.1.12.12,0,0,1-.11-.14h0Z"></path>
      <path class="cls-19" d="M90.13,61.65A14.48,14.48,0,0,0,90,59.19a7.2,7.2,0,0,0-.79-2.34,6.82,6.82,0,0,1,.92,2.31,13,13,0,0,1,.33,2.49.13.13,0,0,1-.13.14.14.14,0,0,1-.15-.13Z"></path>
      <path class="cls-19" d="M89.45,63.61a1.31,1.31,0,0,0,.75.19,2.1,2.1,0,0,0,.8-.2,4.78,4.78,0,0,0,1.37-1,4.6,4.6,0,0,1-1.3,1.18,1.85,1.85,0,0,1-1.8.13.16.16,0,0,1-.06-.21.15.15,0,0,1,.21-.07h0Z"></path>
      <path class="cls-19" d="M91.42,58.85a.69.69,0,0,0,.25-.09l.27-.17c.17-.13.33-.28.49-.43a5.15,5.15,0,0,1-.43.5,1.88,1.88,0,0,1-.26.22.83.83,0,0,1-.34.16.11.11,0,0,1-.11-.09.1.1,0,0,1,.09-.1h0Z"></path>
      <path class="cls-30" d="M89.09,70.45s7.75-9.17,14.09,10.81C103.18,81.26,85.87,81.23,89.09,70.45Z"></path>
      <path class="cls-31" d="M89.07,70.5s7.83.51,14.09,10.82C103.16,81.32,85.85,81.29,89.07,70.5Z"></path>
      <path class="cls-19" d="M103.19,81.34A23.36,23.36,0,0,0,100,76.93a22.6,22.6,0,0,0-4.14-3.55,17.88,17.88,0,0,0-4.89-2.33,18.63,18.63,0,0,0-5.35-.79h0a.22.22,0,0,1-.21-.23.22.22,0,0,1,.23-.22h0a19,19,0,0,1,5.45.92A18.15,18.15,0,0,1,96,73.19,23,23,0,0,1,100,76.85,23.71,23.71,0,0,1,103.19,81.34Z"></path>
      <path class="cls-19" d="M91.51,71a4.39,4.39,0,0,1,.66,1.22,8.45,8.45,0,0,1,.39,1.3,15.1,15.1,0,0,1,.33,2.68,14.84,14.84,0,0,0-.46-2.65A8.14,8.14,0,0,0,92,72.31a4.13,4.13,0,0,0-.68-1.11h0a.14.14,0,0,1,0-.18.12.12,0,0,1,.18,0Z"></path>
      <path class="cls-19" d="M96.52,73.59a14.55,14.55,0,0,1,1,2.31,7.16,7.16,0,0,1,.39,2.46A6.9,6.9,0,0,0,97.37,76a14.18,14.18,0,0,0-1.09-2.21h0a.14.14,0,0,1,0-.19.15.15,0,0,1,.2,0Z"></path>
      <path class="cls-19" d="M94.41,72.26a1.83,1.83,0,0,1,1.61-.8,4.61,4.61,0,0,1,1.72.36,4.37,4.37,0,0,0-1.71-.2,2,2,0,0,0-.8.23,1.4,1.4,0,0,0-.54.54v0a.15.15,0,1,1-.28-.13Z"></path>
      <path class="cls-19" d="M98.7,75.34a.62.62,0,0,1,.37,0,1.61,1.61,0,0,1,.33.06,4.21,4.21,0,0,1,.63.2,4.76,4.76,0,0,0-.64-.11,1.74,1.74,0,0,0-.32,0,.54.54,0,0,0-.26,0h0a.09.09,0,1,1-.11-.15Z"></path>
      <path class="cls-30" d="M55.78,54.29s-11.63-3,3.6-17.4C59.38,36.89,66.89,52.49,55.78,54.29Z"></path>
      <path class="cls-31" d="M55.84,54.28s-3-7.27,3.6-17.4C59.44,36.88,67,52.48,55.84,54.28Z"></path>
      <path class="cls-19" d="M59.45,36.85a24.07,24.07,0,0,0-2.57,4.83A22.89,22.89,0,0,0,55.49,47a17.59,17.59,0,0,0,0,5.42,18.28,18.28,0,0,0,1.62,5.15v0a.23.23,0,0,1-.11.3.21.21,0,0,1-.29-.12h0a19.4,19.4,0,0,1-1.54-5.3,17.86,17.86,0,0,1,.08-5.51,23.1,23.1,0,0,1,1.51-5.28A24.34,24.34,0,0,1,59.45,36.85Z"></path>
      <path class="cls-19" d="M55.24,51.86a4.46,4.46,0,0,1,.81-1.13,7.91,7.91,0,0,1,1-.91,14.22,14.22,0,0,1,2.27-1.47,14.23,14.23,0,0,0-2.19,1.56,9.47,9.47,0,0,0-1,1,4.58,4.58,0,0,0-.71,1.08v0a.12.12,0,0,1-.17.07.14.14,0,0,1-.07-.17Z"></path>
      <path class="cls-19" d="M55.38,46.23A13.63,13.63,0,0,1,57,44.34a7.13,7.13,0,0,1,2-1.42,7.1,7.1,0,0,0-1.94,1.51,15,15,0,0,0-1.52,2h0a.14.14,0,1,1-.23-.15Z"></path>
      <path class="cls-19" d="M55.1,48.71a1.85,1.85,0,0,1-1.42-1.1,4.49,4.49,0,0,1-.43-1.71,4.57,4.57,0,0,0,.56,1.63,2.05,2.05,0,0,0,.56.61,1.31,1.31,0,0,0,.72.25h0a.17.17,0,0,1,.16.16.16.16,0,0,1-.16.16Z"></path>
      <path class="cls-19" d="M56,43.51a.79.79,0,0,1-.2-.33,3,3,0,0,1-.09-.32c0-.22-.07-.43-.09-.65q.08.32.18.63a2.55,2.55,0,0,0,.13.29.63.63,0,0,0,.16.21h0a.11.11,0,0,1,0,.13.1.1,0,0,1-.13,0Z"></path>
      <path class="cls-30" d="M43.53,87.28s-11.63-3,3.6-17.4C47.13,69.88,54.64,85.48,43.53,87.28Z"></path>
      <path class="cls-31" d="M43.59,87.27s-3-7.27,3.6-17.4C47.19,69.87,54.7,85.47,43.59,87.27Z"></path>
      <path class="cls-19" d="M47.2,69.84a24.07,24.07,0,0,0-2.57,4.83,22.89,22.89,0,0,0-1.39,5.27,18.23,18.23,0,0,0,0,5.42,18.78,18.78,0,0,0,1.62,5.16h0a.24.24,0,0,1-.12.3.22.22,0,0,1-.29-.12h0a19.4,19.4,0,0,1-1.54-5.3A18.18,18.18,0,0,1,43,79.9a23,23,0,0,1,1.51-5.27A24.13,24.13,0,0,1,47.2,69.84Z"></path>
      <path class="cls-19" d="M43,84.85a4.19,4.19,0,0,1,.8-1.13,8.74,8.74,0,0,1,1-.91,14.68,14.68,0,0,1,2.27-1.47,15,15,0,0,0-2.19,1.56,9.47,9.47,0,0,0-1,.95,4.44,4.44,0,0,0-.71,1.09h0a.12.12,0,0,1-.17.07.14.14,0,0,1-.07-.16Z"></path>
      <path class="cls-19" d="M43.13,79.22a14.24,14.24,0,0,1,1.65-1.89,7.13,7.13,0,0,1,2-1.42,7.14,7.14,0,0,0-1.94,1.52,14.28,14.28,0,0,0-1.52,1.94h0a.14.14,0,1,1-.23-.15Z"></path>
      <path class="cls-19" d="M42.85,81.7a1.83,1.83,0,0,1-1.42-1.1A4.49,4.49,0,0,1,41,78.89a4.51,4.51,0,0,0,.56,1.63,2.05,2.05,0,0,0,.56.61,1.31,1.31,0,0,0,.73.25h0a.16.16,0,0,1,.16.16.16.16,0,0,1-.16.16Z"></path>
      <path class="cls-19" d="M43.75,76.5a.83.83,0,0,1-.2-.32c0-.11-.06-.22-.09-.33a4.62,4.62,0,0,1-.08-.65,4.91,4.91,0,0,0,.17.63,2.55,2.55,0,0,0,.13.29.63.63,0,0,0,.16.21h0a.1.1,0,1,1-.09.17Z"></path>
      <path class="cls-32" d="M44.78,107.66s-.76,1.52-.59,2,.09,1.08.59,1.28,1.06,1.25,1.87,1.16a3.25,3.25,0,0,0,2.86-2.87c.2-2-.83-2.2-2-2.36A5.14,5.14,0,0,0,44.78,107.66Z"></path>
      <path class="cls-33" d="M47.37,105s-1.11.18-2.15-1.8-2.54-2.1-4-1.09-1.18,5.46,1.1,6.53,2.91,1.31,3.89,1.19a8,8,0,0,0,3.35-2.26C50.11,106.82,47.37,105,47.37,105Z"></path>
      <path class="cls-19" d="M47.08,102.8s-.89-.25-.7.71.09,2.12.8,2.71a5.25,5.25,0,0,0,2.27,1.22s-.76,1.26-.24,1.78.79,1.92.07,2.16c0,0,1.36-.4,1-2.26s1.43-1.61,1.75-1.9,1.33-1.76-.35-1.86-1.11.44-2.41,0-2.53-1-2.44-1.7S47.08,102.8,47.08,102.8Z"></path>
      <path class="cls-34" d="M51.4,113.88s-1.12,1.89.54,2.51,3.24.15,3.2-1.78-.85-2.58-.93-3.23S51.4,113.88,51.4,113.88Z"></path>
      <path class="cls-35" d="M51.67,110.65s-3.39.38-4.85-.16-2.28.23-1.7,1.5,1.74.89,2.2,1.78,1.62,2.58,3,1.81,1.58-1.43,2.24-1.5,2-2.55,1.19-3.47S53.71,110.8,51.67,110.65Z"></path>
      <path class="cls-22" d="M55.52,109a1.22,1.22,0,0,0-1.77.19c-.77,1-1,1.16-2.08,1.24s-2.39-.2-2.7,0a2.62,2.62,0,0,0,1.39.65c.73,0,1.27,0,1.27,0s-.77.23-.77.66a1.52,1.52,0,0,1-.38.84s.73-.46.73-.73.73-.35,1.19-.35,1.08-.69,1.47-.46.11,1.2.34,1.43,1.24.92,1.24,1.31a.64.64,0,0,0,0-1.08c-.7-.58-.81-1-.58-1.47S56.45,110.84,55.52,109Z"></path>
      <path class="cls-36" d="M57.15,109.18a3.34,3.34,0,0,0-2.2.65"></path>
      <path class="cls-36" d="M51.54,106.28s3.26-2.61,6,3.16"></path>
      <path class="cls-37" d="M70.49,88.45s1.2,1.2,1.19,1.71.25,1.06-.16,1.4-.62,1.52-1.42,1.69a3.25,3.25,0,0,1-3.61-1.83c-.83-1.9.11-2.36,1.18-2.88A5.11,5.11,0,0,1,70.49,88.45Z"></path>
      <path class="cls-38" d="M67.19,86.67s1.11-.17,1.48-2.37,1.76-2.79,3.5-2.29,2.83,4.81,1,6.54-2.35,2.15-3.33,2.34A7.89,7.89,0,0,1,66,89.79C65.17,89.31,67.19,86.67,67.19,86.67Z"></path>
      <path class="cls-19" d="M66.79,84.55s.77-.52.89.45.57,2,.09,2.82A5.16,5.16,0,0,1,66,89.69s1.11,1,.78,1.61-.15,2.08.6,2.08c0,0-1.41.05-1.65-1.83s-1.86-1.09-2.25-1.26-1.81-1.26-.25-1.88,1.2.08,2.3-.72,2.1-1.7,1.79-2.38S66.79,84.55,66.79,84.55Z"></path>
      <path class="cls-39" d="M66.14,96.42s1.65,1.45.27,2.55-3,1.16-3.59-.69,0-2.71-.13-3.36S66.14,96.42,66.14,96.42Z"></path>
      <path class="cls-40" d="M64.88,93.43s3.34-.69,4.56-1.66,2.23-.49,2.08.9S70.15,94.05,70,95s-.74,3-2.26,2.65-1.94-.87-2.59-.74S62.41,95.17,62.92,94,63,94.21,64.88,93.43Z"></path>
      <path class="cls-22" d="M60.7,93.06a1.22,1.22,0,0,1,1.74-.37,2.26,2.26,0,0,0,2.36.52c1-.25,2.21-.93,2.55-.87a2.61,2.61,0,0,1-1.11,1c-.68.26-1.19.43-1.19.43s.8,0,.93.38a1.5,1.5,0,0,0,.63.69s-.84-.21-.92-.47-.81-.1-1.24,0-1.25-.33-1.54,0,.26,1.17.12,1.46-.89,1.27-.77,1.63a.63.63,0,0,1-.33-1c.47-.77.44-1.24.09-1.57S60.4,95.1,60.7,93.06Z"></path>
      <path class="cls-36" d="M59.22,93.75a3.33,3.33,0,0,1,2.29-.08"></path>
      <path class="cls-36" d="M63.64,89.24s-3.91-1.46-4.75,4.88"></path>
      <path class="cls-41" d="M67.87,66.54s.89.89.88,1.27.18.78-.12,1-.46,1.12-1,1.25a2.42,2.42,0,0,1-2.67-1.36c-.61-1.4.08-1.74.87-2.13A3.82,3.82,0,0,1,67.87,66.54Z"></path>
      <path class="cls-42" d="M65.42,65.23s.83-.13,1.1-1.76a1.86,1.86,0,0,1,2.59-1.7c1.29.37,2.09,3.57.73,4.84s-1.74,1.6-2.46,1.73a5.81,5.81,0,0,1-2.87-.81C63.93,67.17,65.42,65.23,65.42,65.23Z"></path>
      <path class="cls-19" d="M65.13,63.65s.57-.38.66.34.42,1.51.07,2.09a4,4,0,0,1-1.32,1.38s.83.7.58,1.19-.11,1.54.44,1.54c0,0-1,0-1.22-1.36S63,68,62.67,67.9s-1.33-.93-.18-1.39.89.06,1.7-.53,1.56-1.26,1.32-1.76S65.13,63.65,65.13,63.65Z"></path>
      <path class="cls-43" d="M64.65,72.44s1.22,1.07.2,1.88-2.24.85-2.65-.51a6.81,6.81,0,0,1-.1-2.49C62,70.85,64.65,72.44,64.65,72.44Z"></path>
      <path class="cls-44" d="M63.72,70.22A11.31,11.31,0,0,0,67.09,69c.91-.72,1.65-.36,1.54.66s-1,1-1.13,1.75-.55,2.19-1.67,2-1.44-.64-1.92-.54-2-1.32-1.64-2.16S62.32,70.8,63.72,70.22Z"></path>
      <path class="cls-22" d="M60.63,70a.9.9,0,0,1,1.29-.27,1.66,1.66,0,0,0,1.74.38c.75-.18,1.64-.68,1.89-.65a1.89,1.89,0,0,1-.82.78c-.51.2-.89.32-.89.32s.6,0,.69.29a1.16,1.16,0,0,0,.47.5s-.62-.15-.68-.34-.6-.08-.92,0-.92-.24-1.14,0,.2.87.09,1.08-.66.94-.57,1.21a.47.47,0,0,1-.25-.76c.36-.57.33-.92.07-1.16S60.4,71.46,60.63,70Z"></path>
      <path class="cls-23" d="M59.53,70.46a2.48,2.48,0,0,1,1.69-.06"></path>
      <path class="cls-23" d="M62.8,67.12S59.91,66,59.29,70.74"></path>
      <path class="cls-45" d="M56.91,100.46s-1.88,0-1.63-1.67.67-2.6,2.22-2.93,4.14.21,4.31,1.29.33.93-1,2.18S56.91,100.46,56.91,100.46Z"></path>
      <path class="cls-46" d="M58.63,101.17s-.86-.69.39-.9,2.25-2.65,3-2.45,1.8.38,1.92,2.06a6.64,6.64,0,0,1-.67,3.51,2.36,2.36,0,0,1-1.63,1.43c-.5.12-1.38.63-1.63.12s-1.09-.29-1.13-1.5S58.63,101.17,58.63,101.17Z"></path>
      <path class="cls-47" d="M57.64,102.83a1.53,1.53,0,0,0-.79-.92,1.19,1.19,0,0,1-.17-1.87,3.41,3.41,0,0,1,2.74.07c.78.46.59,2.09.13,2.64S58.29,104,57.64,102.83Z"></path>
      <path class="cls-48" d="M63.15,74s1.89,0,1.57,1.73-.77,2.57-2.33,2.85-4.14-.37-4.26-1.47-.3-.93,1-2.14S63.15,74,63.15,74Z"></path>
      <path class="cls-49" d="M61.46,73.26s.84.72-.43.88-2.34,2.57-3,2.34S56.2,76,56.14,74.35A6.67,6.67,0,0,1,57,70.86a2.4,2.4,0,0,1,1.68-1.36c.51-.1,1.41-.57,1.64-.06s1.08.33,1.07,1.55A22.7,22.7,0,0,0,61.46,73.26Z"></path>
      <path class="cls-50" d="M62.51,71.64a1.6,1.6,0,0,0,.76,1,1.19,1.19,0,0,1,.1,1.87,3.4,3.4,0,0,1-2.74-.17c-.76-.49-.51-2.11,0-2.64S61.91,70.49,62.51,71.64Z"></path>
      <path class="cls-8" d="M63.25,197.77a1.64,1.64,0,0,0-1.58-.58c-.87.27-1.22,1-1.07,1.21a2.54,2.54,0,0,0,.33.33c.21.22.68-.39.7-.39Z"></path>
      <path class="cls-51" d="M63.71,198.83s-.27-1.2-.73-1.21-.95-.09-.95-.09l-.13.22s.45.78.63.85l.59.17A3.66,3.66,0,0,0,63.71,198.83Z"></path>
      <path class="cls-10" d="M63.67,199a.31.31,0,0,0-.17-.46,4.68,4.68,0,0,0-.58-.12s-.72.54-.86.63-.24.07.18.2.41.22.79.18A1.11,1.11,0,0,0,63.67,199Z"></path>
      <path class="cls-11" d="M62.92,198.39a5.91,5.91,0,0,0-.53.51c-.2.25-.24.33-.5.2s-.9-.22-1.07-.47-.17-.22,0-.52a1.33,1.33,0,0,1,.85-.52.73.73,0,0,1,.83.18A1.87,1.87,0,0,1,62.92,198.39Z"></path>
      <path class="cls-8" d="M40.82,189.62a2.44,2.44,0,0,0-2.45-.36c-1.18.66-1.46,1.76-1.17,2.08a4.38,4.38,0,0,0,.57.37c.38.24.86-.77.88-.78Z"></path>
      <path class="cls-51" d="M41.79,191s-.76-1.63-1.41-1.51-1.39.17-1.39.17l-.12.35s.88,1,1.15,1,.8.05.92.07A6.88,6.88,0,0,0,41.79,191Z"></path>
      <path class="cls-10" d="M41.79,191.22c0-.16,0-.58-.39-.61a5.56,5.56,0,0,0-.88,0s-.86,1-1,1.16-.32.18.31.23.66.21,1.19,0A1.64,1.64,0,0,0,41.79,191.22Z"></path>
      <path class="cls-11" d="M40.52,190.61a7.45,7.45,0,0,0-.59.9c-.22.42-.26.54-.66.43s-1.37,0-1.69-.34-.3-.27-.09-.77a1.9,1.9,0,0,1,1-1,1.07,1.07,0,0,1,1.26,0A2.68,2.68,0,0,1,40.52,190.61Z"></path>
      <path class="cls-8" d="M56.67,186.38s-5.06-2.53-8.59.55-3.7,7-2.49,7.89a16.54,16.54,0,0,0,2.21.88c1.46.54,2.36-3.26,2.45-3.31S56.67,186.38,56.67,186.38Z"></path>
      <path class="cls-51" d="M61,190.36s-3.75-5-5.89-4.14-4.63,1.59-4.63,1.59l-.14,1.28S54,191.83,55,191.74s2.73-.4,3.15-.4A22.78,22.78,0,0,0,61,190.36Z"></path>
      <path class="cls-10" d="M61.12,191.12c0-.55-.25-2-1.76-1.79a22.83,22.83,0,0,0-3,.63s-2.21,4-2.7,4.7-.94.85,1.25.56,2.38.23,4-.77A5.7,5.7,0,0,0,61.12,191.12Z"></path>
      <path class="cls-11" d="M56.38,190A26.72,26.72,0,0,0,55,193.45c-.46,1.59-.48,2-1.92,2s-4.69.86-6,0-1.24-.7-.88-2.55,1.21-2.71,2.87-4.14a3.77,3.77,0,0,1,4.28-.9A9.74,9.74,0,0,1,56.38,190Z"></path>
      <path class="cls-8" d="M76.1,188s-2.91-4-6.87-3-5.66,4-5.06,5.11a13.2,13.2,0,0,0,1.36,1.56c.91,1,3.12-1.58,3.21-1.59S76.1,188,76.1,188Z"></path>
      <path class="cls-51" d="M77.85,192.79s-.91-5.38-2.91-5.55-4.21-.6-4.21-.6l-.62.93s1.77,3.58,2.55,3.91,2.28.77,2.61.94A20.12,20.12,0,0,0,77.85,192.79Z"></path>
      <path class="cls-10" d="M77.66,193.44c.18-.45.59-1.65-.65-2.09a19.37,19.37,0,0,0-2.56-.7s-3.31,2.23-4,2.57-1.06.27.75.93,1.75,1.12,3.43,1A4.91,4.91,0,0,0,77.66,193.44Z"></path>
      <path class="cls-11" d="M74.45,190.65A22.15,22.15,0,0,0,72,192.8c-1,1-1.18,1.38-2.27.75s-4-1.2-4.65-2.35-.67-1,.34-2.32,2-1.62,3.86-2.07a3.27,3.27,0,0,1,3.67,1A8.54,8.54,0,0,1,74.45,190.65Z"></path>
      <path class="cls-8" d="M62.57,190s-4.18-3.22-8-1-4.67,5.78-3.71,6.78A14.26,14.26,0,0,0,52.76,197c1.24.76,2.75-2.56,2.84-2.6S62.57,190,62.57,190Z"></path>
      <path class="cls-51" d="M65.8,194.48s-2.53-5.28-4.65-4.86-4.53.62-4.53.62l-.36,1.14s2.89,3.18,3.8,3.28,2.57.12,3,.2A21.1,21.1,0,0,0,65.8,194.48Z"></path>
      <path class="cls-10" d="M65.79,195.2c.06-.52.13-1.87-1.29-2a21,21,0,0,0-2.84,0s-2.75,3.28-3.32,3.82-1,.6,1,.74,2.14.64,3.84,0A5.27,5.27,0,0,0,65.79,195.2Z"></path>
      <path class="cls-11" d="M61.66,193.28a24.36,24.36,0,0,0-1.9,2.95c-.7,1.37-.8,1.77-2.11,1.44s-4.46-.06-5.5-1-1-.87-.34-2.49,1.6-2.27,3.38-3.28a3.52,3.52,0,0,1,4.08,0A9.07,9.07,0,0,1,61.66,193.28Z"></path>
      <path class="cls-8" d="M84.31,197.37a2.55,2.55,0,0,0,2.32-1.15c.62-1.26.21-2.38-.22-2.48-.12,0-.49,0-.72,0-.46,0-.28,1.18-.29,1.21S84.31,197.37,84.31,197.37Z"></path>
      <path class="cls-51" d="M82.65,196.76s1.62,1,2.11.47,1.1-1,1.1-1l-.1-.37a5.36,5.36,0,0,0-1.61-.2c-.26.14-.71.43-.83.48A7.4,7.4,0,0,0,82.65,196.76Z"></path>
      <path class="cls-10" d="M82.52,196.56c.08.15.3.53.7.3a6.13,6.13,0,0,0,.75-.52s.15-1.37.21-1.62.16-.34-.41,0-.69.21-1,.68A1.69,1.69,0,0,0,82.52,196.56Z"></path>
      <path class="cls-11" d="M84,196.34a7.43,7.43,0,0,0,0-1.13c0-.49-.1-.62.31-.76s1.2-.78,1.66-.7.42.05.54.6a2.06,2.06,0,0,1-.32,1.48,1.13,1.13,0,0,1-1.08.74A3,3,0,0,1,84,196.34Z"></path>
      <path class="cls-8" d="M28.63,200.27A2.52,2.52,0,0,0,31,199.12c.62-1.26.21-2.37-.22-2.47a4.44,4.44,0,0,0-.72,0c-.46,0-.28,1.18-.29,1.2S28.63,200.27,28.63,200.27Z"></path>
      <path class="cls-51" d="M27,199.66s1.62,1,2.11.47a14.45,14.45,0,0,1,1.1-1l-.1-.38a5.14,5.14,0,0,0-1.61-.19c-.26.13-.71.42-.83.47A7.4,7.4,0,0,0,27,199.66Z"></path>
      <path class="cls-10" d="M26.84,199.47c.08.15.3.52.7.29a6.13,6.13,0,0,0,.75-.52s.15-1.37.21-1.62.16-.34-.41,0-.69.22-1,.69A1.69,1.69,0,0,0,26.84,199.47Z"></path>
      <path class="cls-11" d="M28.29,199.24a7.42,7.42,0,0,0,0-1.13c-.05-.49-.1-.61.31-.76s1.2-.78,1.66-.7.42,0,.54.6a2.08,2.08,0,0,1-.32,1.49,1.15,1.15,0,0,1-1.09.74A2.91,2.91,0,0,1,28.29,199.24Z"></path>
      <path class="cls-8" d="M44.53,198.26s2.15.3,3-1.25.49-3-.06-3.17a5.75,5.75,0,0,0-.91-.05c-.59,0-.46,1.47-.48,1.5S44.53,198.26,44.53,198.26Z"></path>
      <path class="cls-51" d="M42.48,197.34s2,1.37,2.64.79S46.61,197,46.61,197l-.1-.48a6.63,6.63,0,0,0-2-.39c-.34.15-.94.48-1.09.53A8.7,8.7,0,0,0,42.48,197.34Z"></path>
      <path class="cls-10" d="M42.33,197.08c.09.2.34.7.86.44a8.39,8.39,0,0,0,1-.6s.31-1.72.4-2,.24-.43-.52,0-.89.21-1.37.77A2.2,2.2,0,0,0,42.33,197.08Z"></path>
      <path class="cls-11" d="M44.2,196.92a10,10,0,0,0,.07-1.43c0-.64-.08-.8.46-1s1.6-.88,2.17-.74.54.1.63.81a2.58,2.58,0,0,1-.53,1.86,1.45,1.45,0,0,1-1.45.85A3.62,3.62,0,0,1,44.2,196.92Z"></path>
      <path class="cls-8" d="M56.14,196a2.07,2.07,0,0,1,1.89-.29c.92.42,1.17,1.17.95,1.39a3.32,3.32,0,0,1-.43.27c-.29.17-.69-.51-.71-.52Z"></path>
      <path class="cls-51" d="M55.42,197s.54-1.13,1-1.06,1.09.09,1.09.09l.09.23s-.65.7-.87.73-.61,0-.7.06A5.41,5.41,0,0,1,55.42,197Z"></path>
      <path class="cls-10" d="M55.42,197.12c0-.11-.05-.39.29-.42a6.63,6.63,0,0,1,.68,0s.69.67.83.77.25.12-.24.17-.5.15-.92,0A1.23,1.23,0,0,1,55.42,197.12Z"></path>
      <path class="cls-11" d="M56.39,196.68a5.14,5.14,0,0,1,.48.6c.18.29.21.37.52.29s1.06-.06,1.3-.27.23-.19.05-.53a1.46,1.46,0,0,0-.83-.66,1,1,0,0,0-1,0A1.93,1.93,0,0,0,56.39,196.68Z"></path>
      <path class="cls-8" d="M73.18,191.21s-3.92-2.9-7.39-.8-4.2,5.43-3.3,6.34a14.71,14.71,0,0,0,1.75,1.08c1.16.68,2.5-2.42,2.58-2.45S73.18,191.21,73.18,191.21Z"></path>
      <path class="cls-51" d="M76.26,195.25s-2.44-4.83-4.39-4.4-4.18.66-4.18.66l-.31,1.07s2.73,2.88,3.57,2.95,2.39.07,2.75.13A18.85,18.85,0,0,0,76.26,195.25Z"></path>
      <path class="cls-10" d="M76.27,195.92c0-.48.08-1.73-1.23-1.79a19.84,19.84,0,0,0-2.63.1s-2.48,3.09-3,3.6-.93.57,1,.66,2,.55,3.55-.06A4.91,4.91,0,0,0,76.27,195.92Z"></path>
      <path class="cls-11" d="M72.41,194.23a22.3,22.3,0,0,0-1.7,2.76c-.63,1.29-.71,1.66-1.93,1.38s-4.12,0-5.1-.87-1-.78-.37-2.3,1.44-2.13,3.06-3.1a3.25,3.25,0,0,1,3.78-.12A8.37,8.37,0,0,1,72.41,194.23Z"></path>
      <path class="cls-8" d="M52.24,195.75s-3.22-.58-4.68,1.7-.92,4.5-.11,4.78a9,9,0,0,0,1.37.13c.9.07.79-2.19.83-2.23S52.24,195.75,52.24,195.75Z"></path>
      <path class="cls-51" d="M55.28,197.27s-2.9-2.18-3.94-1.35S49,197.55,49,197.55l.12.73s2.5.93,3,.72,1.45-.66,1.69-.73A12.31,12.31,0,0,0,55.28,197.27Z"></path>
      <path class="cls-10" d="M55.48,197.67c-.12-.3-.46-1.07-1.27-.71a12,12,0,0,0-1.55.83s-.58,2.59-.74,3.05-.39.62.79.1,1.35-.25,2.11-1.08A3.28,3.28,0,0,0,55.48,197.67Z"></path>
      <path class="cls-11" d="M52.66,197.79a14.22,14.22,0,0,0-.2,2.16c0,1,.06,1.2-.76,1.4s-2.46,1.23-3.31,1-.8-.19-.9-1.27a3.86,3.86,0,0,1,.92-2.76,2.15,2.15,0,0,1,2.23-1.19A5.65,5.65,0,0,1,52.66,197.79Z"></path>
    </g>
  </g>
</svg>
