<?xml version="1.0" encoding="UTF-8"?>
<svg xmlns="http://www.w3.org/2000/svg" xmlns:xlink="http://www.w3.org/1999/xlink" viewBox="0 0 112.9 289.4">
  <defs>
    <style>.cls-1{fill:#8e6848;}.cls-2{fill:url(#Безымянный_градиент_7);}.cls-3{fill:#713e21;}.cls-4{fill:#3d271f;}.cls-5{fill:#69391e;}.cls-6{fill:#6b482f;}.cls-7{fill:#5c3624;}.cls-8{fill:#795135;}.cls-9{fill:#9a734f;}.cls-10{fill:#fff;}.cls-11{fill:#85563a;}.cls-12{fill:#769e59;}.cls-13{fill:#f2d95a;}.cls-14,.cls-16{fill:none;stroke-miterlimit:10;}.cls-14{stroke:#769e59;stroke-width:0.56px;}.cls-15{fill:#79a05b;}.cls-16{stroke:#79a05b;stroke-width:1.26px;}.cls-17{fill:#486f3a;}</style>
    <linearGradient id="Безымянный_градиент_7" x1="53.83" y1="328.65" x2="59.12" y2="230.17" gradientUnits="userSpaceOnUse">
      <stop offset="0.38" stop-color="#9b714f"></stop>
      <stop offset="0.91" stop-color="#754427"></stop>
      <stop offset="1" stop-color="#6e3c20"></stop>
    </linearGradient>
  </defs>
  <g id="Слой_2" data-name="Слой 2">
    <g id="Слой_1-2" data-name="Слой 1">
      <path class="cls-1" d="M59.15,221.57S69,233.16,76.64,233.63s33.64-7.75,33.64-7.75l2.62-27.1-53.75-19Z"></path>
      <path class="cls-1" d="M0,196.86,5.36,232.2s19.05,2.86,22.38,1.91,18.58-6.67,22.86-6.67,8.55-5.87,8.55-5.87V179.82Z"></path>
      <polygon class="cls-2" points="7.92 265.28 59.15 289.4 106.54 265.4 57.27 244.53 7.92 265.28"></polygon>
      <path class="cls-3" d="M7.92,265.28,5.36,232.2s24.29-.47,31-3.81,22.83-6.82,22.83-6.82l-1.88,23Z"></path>
      <path class="cls-4" d="M42.54,234.26a8.64,8.64,0,0,0-2.91-1.71v0s-3.88-1.16-6,1.45-1.75,5.42-.79,5.87a10.15,10.15,0,0,0,1.67.35s.06,0,.1,0a31.57,31.57,0,0,0,3.59-.81,1.87,1.87,0,0,0,.62-.17l.67-.19c1.52-.47,1.7-.13,2.75-1a4.13,4.13,0,0,0,1.12-2.62,3.08,3.08,0,0,0-.21-.51h0l0,0A1,1,0,0,0,42.54,234.26Z"></path>
      <path class="cls-4" d="M21.74,237.67A11.18,11.18,0,0,0,17.62,239v0s-4.41,2.76-3.69,7,3.75,6.29,5,5.75a15.06,15.06,0,0,0,1.75-1.32s0-.09,0-.13c.94-1.08,1.63-3.24,2.26-4.16a2.2,2.2,0,0,0,.37-.74c.1-.2.21-.43.38-.8.83-1.87,1.32-1.76,1.33-3.55a5.23,5.23,0,0,0-1.58-3.29,4.63,4.63,0,0,0-.67-.23v0h-.08A1.27,1.27,0,0,0,21.74,237.67Z"></path>
      <path class="cls-5" d="M59.15,221.57l-1.88,23,49.27,20.87,3.74-39.52s-15.36-1.78-22-.82S70,228.87,66.48,227A45.59,45.59,0,0,1,59.15,221.57Z"></path>
      <path class="cls-4" d="M40.38,245.15a3.39,3.39,0,0,0-1.28-.31h0A2.37,2.37,0,0,0,37,246c-.5,1.22,0,2.23.36,2.3a4.82,4.82,0,0,0,.67-.06l0,0a11.13,11.13,0,0,0,1.26-.7.86.86,0,0,0,.21-.13l.23-.15c.52-.35.63-.24.92-.7a1.61,1.61,0,0,0,.13-1.1,1,1,0,0,0-.14-.17h0A.39.39,0,0,0,40.38,245.15Z"></path>
      <path class="cls-4" d="M88.65,235.27a2.21,2.21,0,0,0-.11-.91h0s-.39-1-1.3-1.06-1.47.52-1.41.8c0,.08.14.29.2.42h0a6.19,6.19,0,0,0,.77.65.6.6,0,0,0,.14.11l.15.11c.35.25.31.35.68.42a1.1,1.1,0,0,0,.75-.19l.08-.13h0A.24.24,0,0,0,88.65,235.27Z"></path>
      <path class="cls-4" d="M102.42,251.86a11.25,11.25,0,0,0-2-3.91h0s-3.39-4-7.53-2.66-5.74,4.65-5,5.83a15.37,15.37,0,0,0,1.57,1.56s.1,0,.14,0c1.22.78,3.47,1.16,4.48,1.65a2.17,2.17,0,0,0,.79.26c.22.08.46.15.86.27,2,.56,2,1.06,3.73.81a5.29,5.29,0,0,0,3.06-2.05,4.35,4.35,0,0,0,.13-.71h0l0-.07A1.3,1.3,0,0,0,102.42,251.86Z"></path>
      <path class="cls-4" d="M75.64,238.25A8.47,8.47,0,0,0,73.73,241l0,0s-1.44,3.76,1,6.05,5.24,2.13,5.76,1.22a11.63,11.63,0,0,0,.47-1.63s0-.06,0-.1a28.76,28.76,0,0,0-.53-3.62,1.63,1.63,0,0,0-.12-.63c0-.17-.07-.36-.14-.67-.35-1.54,0-1.7-.83-2.81a4,4,0,0,0-2.5-1.29,2.26,2.26,0,0,0-.53.17v0l0,0A1,1,0,0,0,75.64,238.25Z"></path>
      <path class="cls-6" d="M75.83,266.32a1.61,1.61,0,0,0,1.6-.43c.56-.71.45-1.47.18-1.59a2.88,2.88,0,0,0-.45-.08c-.29-.05-.33.7-.34.72Z"></path>
      <path class="cls-7" d="M74.86,265.72s.9.81,1.27.57a9.15,9.15,0,0,1,.82-.48l0-.24s-.8-.39-1-.33-.51.17-.59.19A4.83,4.83,0,0,0,74.86,265.72Z"></path>
      <path class="cls-8" d="M74.81,265.58c0,.1.12.37.4.28a4.48,4.48,0,0,0,.54-.24s.27-.84.33-1,.15-.19-.25-.06-.46.05-.74.3A1.06,1.06,0,0,0,74.81,265.58Z"></path>
      <path class="cls-9" d="M75.75,265.62a5.5,5.5,0,0,0,.13-.71c0-.32,0-.4.29-.44s.86-.34,1.14-.23.26.09.26.45a1.3,1.3,0,0,1-.39.89.72.72,0,0,1-.78.33A1.81,1.81,0,0,1,75.75,265.62Z"></path>
      <path class="cls-6" d="M64.87,260s2.46.13,3.33-1.71.26-3.44-.37-3.57a6.32,6.32,0,0,0-1,0c-.68,0-.38,1.71-.41,1.74S64.87,260,64.87,260Z"></path>
      <path class="cls-7" d="M62.46,259.19s2.37,1.35,3.07.63,1.57-1.43,1.57-1.43l-.16-.54a7.56,7.56,0,0,0-2.32-.25c-.38.2-1,.63-1.19.71A10.3,10.3,0,0,0,62.46,259.19Z"></path>
      <path class="cls-8" d="M62.27,258.91c.12.21.45.75,1,.41a9.34,9.34,0,0,0,1.08-.77s.18-2,.26-2.34.23-.5-.6,0-1,.32-1.47,1A2.49,2.49,0,0,0,62.27,258.91Z"></path>
      <path class="cls-9" d="M64.37,258.55a10.74,10.74,0,0,0-.06-1.63c-.09-.71-.16-.89.43-1.11s1.73-1.16,2.39-1.05.61.06.79.86a3,3,0,0,1-.43,2.15,1.62,1.62,0,0,1-1.55,1.1A4.08,4.08,0,0,1,64.37,258.55Z"></path>
      <path class="cls-6" d="M54.66,268s1.92,1.45,3.63.44,2.1-2.65,1.66-3.1a8.73,8.73,0,0,0-.85-.54c-.57-.34-1.24,1.18-1.28,1.19S54.66,268,54.66,268Z"></path>
      <path class="cls-7" d="M53.18,266s1.17,2.39,2.13,2.19,2.06-.3,2.06-.3l.16-.53s-1.33-1.43-1.74-1.47-1.18-.05-1.35-.08A9.49,9.49,0,0,0,53.18,266Z"></path>
      <path class="cls-8" d="M53.18,265.67c0,.23,0,.85.59.88a8.65,8.65,0,0,0,1.29,0s1.24-1.5,1.5-1.75.46-.28-.48-.33-1-.28-1.74,0A2.38,2.38,0,0,0,53.18,265.67Z"></path>
      <path class="cls-9" d="M55.06,266.52a10.34,10.34,0,0,0,.85-1.35c.32-.62.36-.81,1-.66s2,0,2.5.46.46.39.17,1.13A2.89,2.89,0,0,1,58,267.6a1.59,1.59,0,0,1-1.86,0A4.14,4.14,0,0,1,55.06,266.52Z"></path>
      <path class="cls-6" d="M50.26,261.4a2.75,2.75,0,0,0,.1-2.8c-.88-1.24-2.16-1.42-2.47-1.06a5.29,5.29,0,0,0-.36.69c-.22.45,1,.87,1,.9S50.26,261.4,50.26,261.4Z"></path>
      <path class="cls-7" d="M48.83,262.67s1.75-1.05,1.53-1.77-.36-1.55-.36-1.55l-.41-.09s-1,1.1-1,1.42,0,.9,0,1A7.6,7.6,0,0,0,48.83,262.67Z"></path>
      <path class="cls-8" d="M48.58,262.69c.18,0,.66,0,.64-.51a8,8,0,0,0-.11-1s-1.23-.84-1.43-1-.25-.34-.22.38-.16.76.12,1.34A1.82,1.82,0,0,0,48.58,262.69Z"></path>
      <path class="cls-9" d="M49.11,261.19a8.37,8.37,0,0,0-1.08-.56c-.5-.2-.65-.22-.57-.68s-.13-1.55.18-1.94.26-.38.85-.2a2.12,2.12,0,0,1,1.25,1.06,1.21,1.21,0,0,1,.15,1.41A3.14,3.14,0,0,1,49.11,261.19Z"></path>
      <path class="cls-6" d="M41.58,263.46a1.2,1.2,0,0,0,.4-1.14c-.21-.63-.71-.87-.89-.76a2.68,2.68,0,0,0-.24.24c-.15.16.3.49.3.5S41.58,263.46,41.58,263.46Z"></path>
      <path class="cls-7" d="M40.83,263.8s.85-.21.86-.53,0-.69,0-.69l-.16-.09s-.55.33-.6.46-.09.38-.12.43A3.4,3.4,0,0,0,40.83,263.8Z"></path>
      <path class="cls-8" d="M40.72,263.78a.22.22,0,0,0,.33-.13,2.65,2.65,0,0,0,.08-.42s-.4-.51-.46-.61-.06-.17-.15.13-.15.3-.12.57A.8.8,0,0,0,40.72,263.78Z"></path>
      <path class="cls-9" d="M41.13,263.23a3.34,3.34,0,0,0-.38-.37c-.18-.15-.24-.17-.15-.36s.15-.65.33-.78.15-.12.37,0a1,1,0,0,1,.39.6.54.54,0,0,1-.12.6A1.52,1.52,0,0,1,41.13,263.23Z"></path>
      <path class="cls-6" d="M38.92,268.25s1.68-2.7.14-4.84-3.75-2.45-4.3-1.82a10,10,0,0,0-.61,1.2c-.38.79,1.7,1.49,1.73,1.54S38.92,268.25,38.92,268.25Z"></path>
      <path class="cls-7" d="M36.45,270.46s3-1.84,2.64-3.08a26.27,26.27,0,0,1-.65-2.68l-.71-.15S36,266.48,36,267s.09,1.55.07,1.79A12.52,12.52,0,0,0,36.45,270.46Z"></path>
      <path class="cls-8" d="M36,270.5c.31,0,1.13,0,1.1-.89a12.14,12.14,0,0,0-.2-1.71s-2.14-1.45-2.5-1.76-.42-.57-.38.68-.25,1.31.23,2.3A3.2,3.2,0,0,0,36,270.5Z"></path>
      <path class="cls-9" d="M36.92,267.9A15.31,15.31,0,0,0,35,267c-.86-.34-1.11-.38-1-1.19s-.23-2.67.3-3.36.45-.65,1.47-.35A3.73,3.73,0,0,1,38,263.87a2.11,2.11,0,0,1,.28,2.45A5.39,5.39,0,0,1,36.92,267.9Z"></path>
      <path class="cls-10" d="M88.64,254.72a17.15,17.15,0,0,0-1.32-4.21,13.5,13.5,0,0,0-2.57-3.61,21.17,21.17,0,0,0-3.52-2.69c-1.6-1-3.21-2-4.79-3a14.49,14.49,0,0,0-.63-1.78,21.64,21.64,0,0,0-2.47-4.07,8.72,8.72,0,0,1-1.13-1.91c-.32-.73-.68-1.44-1.06-2.13-.28-.53-.62-1-.92-1.53a.43.43,0,0,0,0-.05v0s0-.05-.07-.08c-.47-.8-.92-1.6-1.43-2.37-1.41-2.17-2.71-4.39-4-6.59.55.39,1.1.76,1.64,1.15,1.85,1.3,3.67,2.66,5.55,3.94s4.2,1.89,5.61,3.74c-1.36-1.91-3.76-2.49-5.49-3.92s-3.6-2.75-5.41-4.11c-.88-.68-1.82-1.32-2.63-2l-.1-.15c-1.07-1.72-2.05-3.49-3.17-5.18-.32-1.16-.55-2.37-.8-3.6v0a.4.4,0,0,0-.27-.28l-.14-1h0a.84.84,0,0,0-.94-.69.82.82,0,0,0-.67.67,1.15,1.15,0,0,0-.26-.19c0-.33,0-.67.07-1v-.05a.87.87,0,0,0-.82-.92.89.89,0,0,0-.93.83c-.1,2-.18,3.93-.22,5.9a42.76,42.76,0,0,1-2,4.27,10.21,10.21,0,0,1-.88,1.33,5.47,5.47,0,0,1-.51.57,6,6,0,0,0-.61.62,23.62,23.62,0,0,0-2,2.7c-1.23,1.86-2.35,3.74-3.71,5.5a42.8,42.8,0,0,0-2.64,4L40.25,235a34.66,34.66,0,0,0-5.4,5.29,54.31,54.31,0,0,0-4.57,6c-1.11,2.24-2.2,4.49-3.23,6.77l-2.92,6.91,3.06-6.84c1.07-2.26,2.2-4.49,3.36-6.7.35-.53.76-1,1.15-1.54a10.13,10.13,0,0,0-1,4.65c0,2.34-.12,4.67-.29,7,.22-2.33.39-4.67.43-7a10.76,10.76,0,0,1,1.7-5.82c.85-1.06,1.73-2.09,2.65-3.08a37.78,37.78,0,0,1,4.61-4.35c-.52,2.35-1.06,4.7-1.66,7-.34,1.31-.68,2.63-1.11,3.91a11.57,11.57,0,0,1-2,3.46,13.8,13.8,0,0,0-2,3.56,9.19,9.19,0,0,0-.27,4.07c.2,2.71.51,5.42.85,8.12-.29-2.71-.55-5.42-.71-8.13a9.07,9.07,0,0,1,.32-4,13.71,13.71,0,0,1,2.06-3.47,12,12,0,0,0,2.13-3.51c.46-1.29.82-2.6,1.18-3.92s.67-2.63,1-3.95a31.19,31.19,0,0,0,1.15,3.87c.31.84.68,1.65,1,2.46-.33,3.91-.26,7.79-.34,11.69,0,2-.06,4-.14,5.94,0,.82-.07,1.64-.13,2.46-.47,1.53-1,3-1.56,4.53a34.44,34.44,0,0,1-2.72,5.72,33.46,33.46,0,0,0,2.94-5.63q.61-1.41,1.17-2.85a13.5,13.5,0,0,1-.32,1.66.05.05,0,0,0,0,.05.05.05,0,0,0,0,0,17.07,17.07,0,0,0,.49-2.34c.3-.81.6-1.62.86-2.45a31.36,31.36,0,0,0,.83-3.1,17.56,17.56,0,0,0,.28-3.21q.12-3.15.56-6.29l0-.17c0,.21.1.41.13.62a32.29,32.29,0,0,1,.5,4.8,29.73,29.73,0,0,0-.53-6.09c.6-3.88,1.42-7.76,3.84-10.82.61-.85,1.28-1.65,1.93-2.51l.18-.23A13.65,13.65,0,0,1,51.22,239c-.4.65-.79,1.3-1.16,2-.8,1.44-1.53,2.87-2.24,4.36A17,17,0,0,0,46.25,250a9.1,9.1,0,0,0,.69,5c.65,1.51,1.39,3,2.12,4.41l.39.79a26.09,26.09,0,0,1-3,6.42,26.73,26.73,0,0,0,3.13-6.17A25.74,25.74,0,0,1,51,263.77a5.21,5.21,0,0,1,.28,2.29c-.05.8-.12,1.6-.19,2.41S51,270.1,51,270.92a8.51,8.51,0,0,1-.19,2.37,8.93,8.93,0,0,0-.1,4.89c.62,1.53,1.21,3,1.72,4.55a26.72,26.72,0,0,0,1.81,4.51,27.21,27.21,0,0,1-1.66-4.55c-.45-1.55-1-3.11-1.57-4.6a9,9,0,0,1,.24-4.71,8.87,8.87,0,0,0,.24-2.45c0-.8.1-1.6.19-2.41s.17-1.61.23-2.43a5.76,5.76,0,0,0-.26-2.5,29.3,29.3,0,0,0-1.73-4.1,15.4,15.4,0,0,0,.56-3.69,10.81,10.81,0,0,1,1-3.63,1,1,0,0,0,.08-.14c.2.45.4.91.59,1.37a24.18,24.18,0,0,1,1.24,3.17c.25,1.1.37,2.25.52,3.38.17,1.7.38,3.4.44,5.11-.07.6-.15,1.2-.28,1.8.12-.5.21-1,.29-1.52,0,.49,0,1,0,1.47,0-.59,0-1.17,0-1.76.29-2,.35-4.11.62-6.14.16-1.32.37-2.64.63-4a33.78,33.78,0,0,0,.75-4,11,11,0,0,0-.94-4.95l.22-.3A36.51,36.51,0,0,0,58,242.57c.11-.2.19-.4.28-.6.3.78.59,1.56.86,2.35l1,3.1a14.21,14.21,0,0,1,.81,3.12v.12c-1.92,4.63-3.92,9.36-4.42,14.45-.37,3.1.45,6.11.71,9.11s.64,6,.78,9.07c0-3-.18-6.07-.43-9.11s-.94-6-.51-9c.53-4.35,2.17-8.4,3.93-12.44,0,.36,0,.72,0,1.07a18.51,18.51,0,0,1-.45,3.21c-.47,2.12-1.17,4.19-1.72,6.3a16,16,0,0,0-.46,3.24l-.27,3.26.33-3.26a15.13,15.13,0,0,1,.51-3.21c.58-2.1,1.31-4.15,1.82-6.28a18.81,18.81,0,0,0,.52-3.25c0-.58,0-1.16,0-1.73.58-1.32,1.17-2.64,1.73-4,1.18-3,1-6.19.66-9.23a34.12,34.12,0,0,0-2.33-8.92,27.9,27.9,0,0,1-1.67-4.17c-.19-.63-.34-1.27-.47-1.91v-3.14l1.29,4.9c.71,2.57,1.41,5.15,2.27,7.7.42,1.32,1.05,2.5,1.45,3.73a35.1,35.1,0,0,1,1.08,3.8,40.82,40.82,0,0,1,1,7.86,29.07,29.07,0,0,1-1,7.84c-.6,2.59-1.29,5.17-1.94,7.75-.33,1.3-.64,2.6-.92,3.9a13.36,13.36,0,0,0-.38,4,.07.07,0,0,0,.05,0,0,0,0,0,0,0-.05,13.11,13.11,0,0,1,.47-3.93c.3-1.3.64-2.59,1-3.87.71-2.57,1.46-5.13,2.11-7.72a29.62,29.62,0,0,0,1.22-7.95,40.71,40.71,0,0,0-.83-8,38,38,0,0,0-1-3.91c-.41-1.31-1-2.51-1.37-3.75-.79-2.52-1.44-5.11-2.09-7.69l-.05-.22c.19.53.39,1,.6,1.57a26,26,0,0,0,4.6,7.64c.17.19.35.36.53.54a41.24,41.24,0,0,0,3.7,8.32l.11.16c-.12.62-.27,1.23-.4,1.85-.54,2.53-1.16,5-1.6,7.58s-.9,5.17-.21,7.68c-.61-2.53,0-5.13.45-7.63.36-1.73.8-3.45,1.25-5.16a5.66,5.66,0,0,1,2,2.59,7.41,7.41,0,0,1,.28,3.54,65.61,65.61,0,0,1-.9,7.27,38.93,38.93,0,0,1-2.08,7c-.43,1.15-.85,2.3-1.23,3.46a9.21,9.21,0,0,0-.67,3.58,9,9,0,0,1,.72-3.56c.4-1.16.84-2.3,1.28-3.44a38.78,38.78,0,0,0,2.19-7,68.53,68.53,0,0,0,1-7.28,7.77,7.77,0,0,0-.26-3.7,6,6,0,0,0-2.19-2.91c.17-.64.33-1.27.49-1.91l.33-1.34a17.56,17.56,0,0,0,1.93,2.46,14.45,14.45,0,0,0,3.24,2.48l.12.06a23.65,23.65,0,0,1-.94,4.17c-.89,3-1.9,5.92-2.9,8.87a40.26,40.26,0,0,0-1.31,4.51,12.87,12.87,0,0,0-.11,4.71,31.2,31.2,0,0,0,3.06,8.82,30.94,30.94,0,0,1-2.77-8.86c-.49-3.1.61-6.09,1.67-9s2.12-5.86,3.07-8.84a27,27,0,0,0,1-4,25.71,25.71,0,0,1,2.56,1.51,6.68,6.68,0,0,1,2.39,3c1,2.41,1,5.11,1,7.79l.19,8h0a.44.44,0,0,0,.45.43.44.44,0,0,0,.42-.46l-.3-8c-.09-2.64-.1-5.45-1.19-8a7.37,7.37,0,0,0-2.65-3.17,28.64,28.64,0,0,0-2.82-1.61.17.17,0,0,1,0-.07,15.31,15.31,0,0,0-.51-4.75c-.11-.56-.26-1.14-.4-1.71,1.38.84,2.77,1.64,4.14,2.46a21.44,21.44,0,0,1,3.49,2.53A13.25,13.25,0,0,1,87,250.7a16.45,16.45,0,0,1,1.39,4.09c.29,1.43.7,2.84,1,4.27.59,2.85,1.1,5.73,1.59,8.61-.43-2.89-.87-5.78-1.39-8.65C89.28,257.57,88.9,256.16,88.64,254.72ZM72.46,236a20.37,20.37,0,0,1,2.44,3.84c.07.15.1.3.16.44-.38-.27-.78-.53-1.16-.81-.7-.51-1.37-1.05-2-1.6,0-.14,0-.27,0-.41-.12-1.12-.32-2.22-.54-3.32A10.6,10.6,0,0,0,72.46,236Zm-2.92-5.1A42,42,0,0,1,71,237.13a38.54,38.54,0,0,1-3.51-3.49c-.21-.25-.4-.52-.6-.78-.52-1.58-1-3.17-1.5-4.75-1.31-3.39-2.86-6.68-4.46-9.94a2.1,2.1,0,0,1-.06-.24c-.07-.31-.12-.63-.18-1,.65,1,1.31,2.05,1.93,3.09,1.68,2.63,3.28,5.33,5,7.89C68.32,228.92,69,229.9,69.54,230.89Zm-11.8.15a29.27,29.27,0,0,1,.5,7.58c0,.44-.1.88-.18,1.31a13.28,13.28,0,0,1-.55-1.92c-.38-1.71-.64-3.47-.94-5.22l1-1.55.18-.28A.19.19,0,0,0,57.74,231Zm-1.47.18a27.4,27.4,0,0,1-.75-8.88c.11-.23.24-.46.35-.7.05.61.07,1.21.13,1.81a20,20,0,0,0,.81,3.9c.21.67.39,1.34.56,2C57.05,230,56.67,230.6,56.27,231.22Zm1.79-3.84L58,227a17.74,17.74,0,0,1-.66-3.69c-.12-1.56-.15-3.12-.16-4.69l.3-.76c.07,1.22.17,2.44.33,3.66q.18,1.29.45,2.55A25,25,0,0,1,58.06,227.38ZM46.19,228.9c1.43-1.69,2.67-3.57,4-5.35A25.51,25.51,0,0,1,52.2,221a7.28,7.28,0,0,1,.58-.54,5.35,5.35,0,0,0,.63-.63,9.18,9.18,0,0,0,.78-1l0,0-1.76,4.24c-.29.68-.58,1.35-.9,2l-1,1.59-.21.22c-1.05,1-2.49,1.71-3.56,3-.09.11-.16.23-.24.35-1,.79-2,1.55-3,2.31A42.58,42.58,0,0,1,46.19,228.9Zm-5.7,6.84.2-.15,1.89-1.27,0,.09.05-.09,2.8-1.91-.9,1.62-2.24,4.05a24.07,24.07,0,0,0-1.62,3.54c-.32-1-.61-2-.86-3C40,237.65,40.26,236.7,40.49,235.74Zm.16,5.95a24,24,0,0,1,1.86-3.46c.81-1.31,1.68-2.58,2.55-3.85l1.29-1.92c.22-.32.43-.64.63-1l.19-.3c.46-.33.91-.69,1.36-1-.8,1.4-1.59,2.81-2.34,4.25-1.68,3.4-3.5,6.77-4.29,10.6-.26-.61-.53-1.22-.76-1.83S40.81,242.17,40.65,241.69Zm1.82,16.49a17.94,17.94,0,0,1-.16,3.13,30,30,0,0,1-.7,3.06c0,.17-.11.34-.15.51,0-.49.07-1,.12-1.47.13-2,.2-4,.28-6,.15-3.45.21-6.91.51-10.32.08.2.18.39.26.6.24.6.43,1.21.62,1.83-.12.74-.24,1.49-.33,2.24C42.67,253.93,42.51,256.05,42.47,258.18Zm4.38-18.56a17.38,17.38,0,0,0-2.78,5.88c-.3,1.12-.53,2.25-.72,3.39-.13-.43-.24-.86-.39-1.28s-.34-.87-.52-1.3l.06-.7c.71-3.79,2.66-7.36,4.44-10.85q1.45-2.69,3-5.34a12.47,12.47,0,0,1,.24,5.1,7.67,7.67,0,0,1-1.43,2.54C48.13,237.9,47.46,238.74,46.85,239.62Zm3.52-2.86a6,6,0,0,0,1-2,14.84,14.84,0,0,0-.35-6.64h0a.05.05,0,0,1,0,0c.6-.52,1.2-1,1.77-1.61a15.12,15.12,0,0,0,2-2.66c0,.46,0,.92,0,1.38a23.24,23.24,0,0,0,.29,3.31c.24,1.14.55,2.1.74,3.19l.06.3c-.15.23-.31.47-.45.7-1.19,1.82-2.44,3.62-3.62,5.48A13,13,0,0,0,50.37,236.76ZM52,240a15.83,15.83,0,0,1,1.69,3.54c.35.82.73,1.63,1.09,2.45a38.73,38.73,0,0,0-3.11,4.94,22.61,22.61,0,0,1-1.26-4.09,11.76,11.76,0,0,1,1.35-6.41l0,0h0a.4.4,0,0,0,0-.19l.16-.26Zm-.89,12a11.29,11.29,0,0,0-1,3.79,15.22,15.22,0,0,1-.4,3.37l0-.08c-1.33-2.92-3.2-5.81-2.57-8.93a22.43,22.43,0,0,1,2.73-6.69,10.44,10.44,0,0,0-.1,3.44,24.74,24.74,0,0,0,1.6,4.6C51.27,251.66,51.18,251.82,51.1,252ZM56,251a32.4,32.4,0,0,1-.63,3.93c-.22,1.32-.39,2.65-.51,4-.2,1.93-.21,3.87-.4,5.79,0-1.58-.16-3.16-.28-4.74-.1-1.14-.19-2.28-.4-3.43a26.91,26.91,0,0,0-1.16-3.27l-.7-1.77a35.32,35.32,0,0,1,3.17-4.84A9.94,9.94,0,0,1,56,251Zm-.76-5.64c-.3-.71-.6-1.41-.87-2.1a15,15,0,0,0-1.92-4.09c1.18-1.87,2.41-3.71,3.66-5.57.27,1.52.54,3.05.9,4.57a15.89,15.89,0,0,0,.89,2.68,6.84,6.84,0,0,1-.52,1.39A35.36,35.36,0,0,1,55.2,245.33Zm5.24-15A33.05,33.05,0,0,1,62.71,239c.33,2.95.47,6-.53,8.77L61.26,250a19.73,19.73,0,0,0-.72-2.72l-1-3.13c-.31-1-.65-1.94-1-2.9a12.81,12.81,0,0,0,.55-2.57,29.9,29.9,0,0,0-.29-7.85c-.08-.48-.18-1-.28-1.44.07-.14.14-.27.2-.41a7.34,7.34,0,0,0,.39-1.7C59.52,228.37,60,229.39,60.44,230.34Zm2.87-4.11A55.45,55.45,0,0,1,61,218.52c1.51,3.18,3,6.38,4.17,9.67.4,1.33.79,2.67,1.2,4A28.17,28.17,0,0,1,63.31,226.23Zm4.49,9.18a39.22,39.22,0,0,0,3.39,3.05,20.67,20.67,0,0,1,.13,2.94,11.25,11.25,0,0,1-.12,1.29A40.53,40.53,0,0,1,67.8,235.41Zm8.47,8.78a15.51,15.51,0,0,1,.57,4.17,13.88,13.88,0,0,1-3-2.28,18.73,18.73,0,0,1-2.14-2.69,11.58,11.58,0,0,0,.29-2,18.76,18.76,0,0,0,0-2.37c.49.37,1,.73,1.47,1.07.69.49,1.4,1,2.12,1.4C75.82,242.39,76.06,243.27,76.27,244.19Z"></path>
      <polygon class="cls-11" points="0 196.85 59.15 221.57 112.9 198.78 59.15 179.82 0 196.85"></polygon>
      <path class="cls-12" d="M53.67,138.72c1.81-2.31,4.75-2,6.53.18.4.49,1.08-.21.69-.69-2.1-2.55-5.79-2.89-7.91-.18-.39.49.3,1.18.69.69Z"></path>
      <path class="cls-13" d="M58.89,121.14a1.89,1.89,0,0,0,.82-1.94s-.07-.25-.38,0a3.23,3.23,0,0,0-.18-.72c-.08-.14-.4.22-.62.94,0,0-.5-.88-1.19-.76a1.42,1.42,0,0,0,.34,1.22s-1,.07-1,.77C56.67,120.65,56.73,121.19,58.89,121.14Z"></path>
      <path class="cls-12" d="M69.65,94.11S62,93.65,59.31,99.43s-2.61,11.36,1.21,16.3c0,0,1.12,1.22,1.31,0s1.39-2.23,1.72-2,4,5.13,16.73,5.32c0,0,1.4.74.84-1.12s-2.07-3.36.13-2.24,11.89,3.82,12.73,3.91,1.58.19,1.4-2S94,102.59,91,98.4c0,0-1-.65.56-1.58s2.7-1.79,1.49-2.72S90,90.39,82.33,88c0,0-1.4,0-.37-1.21S85.5,83.3,81.77,84s-10.34.83-14.63,4.84a1.62,1.62,0,0,0-.37,2.42,12.55,12.55,0,0,0,3.82,2.61Z"></path>
      <path class="cls-12" d="M90.18,133.4s-1.25-9.23-10.06-8-9.44,8.6-9.23,10.28-.62,11.95,15.1,19.08S103.18,164,103.18,164s-1-1,0-3.14,5.88-9,6.5-10.49,5.67-13.63-5.24-18.87-11.11-1.89-11.11-1.89A4.06,4.06,0,0,1,90.18,133.4Z"></path>
      <path class="cls-12" d="M86,44.07s3.77,2,5.59,1.54,6.29-2.6,8.25-.74a5.91,5.91,0,0,1,2,4s5.59-5.17,2.37-10.76c0,0,1.26-1.54,2.38,0,0,0,1.73-8.25-11.16-11.88,0,0-1.77-.91.19-1.26s1.11-.42,1.11-.42S91,22.19,89.92,22s-6.57-1.82-8.52.56-1.47,5.73-1.54,6.08S75,26,71.47,29.46,73.5,41,73.5,41s1.61.21,2.1-2.09.69-.07.9.14,4.34,4.89,6.43,5.59,2.17,1.12,2.52,1S86,44.07,86,44.07Z"></path>
      <path class="cls-12" d="M69.1,21.26s.48-.68,0-1.17.76-1.6,2.86-1.46,8.88-.84,10.28.63c0,0,.42-5.25-1.89-8.53,0,0-1.75-2.73.63-2.45,0,0-2.38-3.7-6.15-4.33s-9.09-.7-5.45-2.73c0,0-3.22-3.35-10.14,1.05s-3.63,10.91-1.33,12.09c0,0-5.31,3-5.66,5s-.63,4.19,7.41,3.7S69.1,21.26,69.1,21.26Z"></path>
      <path class="cls-12" d="M46.08,58.05s-9.32-2.8-14.26-.47S24.18,63.45,26,70.16c0,0-2.7,12.68,5.87,19.11,0,0,.75.93,1-1.87s5.2-8,5.9-8.76a6.23,6.23,0,0,0,1.09-2.33s7.82-.65,10.15,1c0,0,.28.84.75-1.21s1.77-7.74,6.62-7.55-2.74-8.58-5.33-8.2C52.12,60.38,44.21,65.41,46.08,58.05Z"></path>
      <path class="cls-14" d="M65,39.47c-.36-3-.61-6.31,1.31-8.6a7.37,7.37,0,0,1,4.49-2.34,21.63,21.63,0,0,1,5.15-.06"></path>
      <path class="cls-12" d="M61.84,34.92c-3-4.48-7.44-8.86-5.2-14.68.11-.3-.36-.43-.48-.13-2.29,6,2.17,10.42,5.25,15,.18.26.6,0,.43-.24Z"></path>
      <path class="cls-15" d="M67.47,147.53a45.22,45.22,0,0,1-.75-9.92c.33-4.57,3.62-6.94,7.82-8.05a.49.49,0,0,0-.26-.94c-3.13.82-6.37,2.39-7.79,5.49-1.82,3.94-.6,9.57,0,13.68.1.62,1,.35,1-.26Z"></path>
      <path class="cls-15" d="M47.22,111.81c.5-6.9,3-13.3,9.82-16.15,5.69-2.39,11.91-1.74,17.89-1.09.62.07.62-.91,0-1-7.26-.78-15.38-1.54-21.66,3-5,3.56-6.61,9.42-7,15.23-.05.63.93.63,1,0Z"></path>
      <path class="cls-15" d="M55.45,81.93c8.87-1.77,16.41-6.5,23.86-11.41.52-.34,0-1.19-.49-.84C71.43,74.54,64,79.23,55.19,81c-.62.12-.36,1.06.26.94Z"></path>
      <path class="cls-16" d="M45,65.73a6.07,6.07,0,0,1,1.74-2.52C49.62,60.3,53,57.54,57.05,56.9a9.86,9.86,0,0,1,8.14,2.29,7.73,7.73,0,0,1,2.2,8"></path>
      <path class="cls-12" d="M76.62,66.7A8.59,8.59,0,0,1,74,73c-.23.22.12.57.34.35a9.1,9.1,0,0,0,2.77-6.63.25.25,0,0,0-.49,0Z"></path>
      <path class="cls-12" d="M65.32,158.14a6.31,6.31,0,0,0-4,2.65c-1.68,2.38-5.77,5-19,4.62,0,0-6.69-.56-6.41,6,0,0-9.3-15.78-10.38-18.48-.83-2.06-1.15-14.5,11.25-12.94a12.1,12.1,0,0,1,9.6,6.57,7.08,7.08,0,0,1,.71,2.48c.28,3.77,2.24.84,2.24.84S61.41,143.74,65.32,158.14Z"></path>
      <path class="cls-15" d="M58.56,160.43c.56,2.52,1.89,4.76,2.72,7.2a38.56,38.56,0,0,1,1.82,8.63c.06.62,1,.63,1,0a40,40,0,0,0-1.51-7.82c-.87-2.81-2.43-5.42-3.07-8.27-.14-.62-1.08-.36-.94.26Z"></path>
      <path class="cls-14" d="M63.08,36.77a2.81,2.81,0,0,0-4.59,3"></path>
      <path class="cls-15" d="M75,72.59a11.34,11.34,0,0,0,2.43.48,3.27,3.27,0,0,1,1.37.6,4.08,4.08,0,0,1,.91,1.12c.89,1.5,1.79,3,2.76,4.38a36,36,0,0,0,6.82,7.69,21.75,21.75,0,0,0,4.32,2.77A10.46,10.46,0,0,0,98.48,91a3.14,3.14,0,0,0,2.16-1.13,2,2,0,0,0,.1-2.34,1.42,1.42,0,0,0-1-.64,1.62,1.62,0,0,0-1.17.39,1.08,1.08,0,0,0-.39,1.14c.12.39.56.77,1,.58-.42.21-.88-.18-1-.57a1.13,1.13,0,0,1,.38-1.2,1.68,1.68,0,0,1,1.22-.43,1.47,1.47,0,0,1,1.12.66,2.18,2.18,0,0,1,0,2.52A3.29,3.29,0,0,1,98.5,91.2a6.38,6.38,0,0,1-2.61-.31A19,19,0,0,1,93.44,90,22.16,22.16,0,0,1,89,87.24a36.17,36.17,0,0,1-7.12-7.65c-1-1.41-2-2.88-2.88-4.35a3.58,3.58,0,0,0-.73-.87,2.46,2.46,0,0,0-1-.4,10.86,10.86,0,0,1-2.65-.49Z"></path>
      <path class="cls-17" d="M77.27,58.44s.7-3.71,1.67,0a13.2,13.2,0,0,1-.83,8.25c-.35.42-2.45,1-2.17-.7S77.27,58.44,77.27,58.44Z"></path>
      <path class="cls-17" d="M79.69,68.37c1.54-.63,7.9-2.17,7.9-1.33s.28,1-1.12,1.72-6.78,2.54-7.27,1.49A1.67,1.67,0,0,1,79.69,68.37Z"></path>
      <path class="cls-12" d="M34.24,110.68c-.51-3.38,4.11-3.87,6.33-3.6s4.62.79,5.55,3c.19.43.82.06.63-.37-2-4.54-14.17-5.12-13.22,1.21.07.46.78.26.71-.2Z"></path>
      <path class="cls-17" d="M33.08,105.22a4,4,0,0,0,2-1c.74-.72,1.08-1.68-1.86-1.93a21,21,0,0,0-8.63,1.22,4,4,0,0,0-1,.5c-.88.63-2.3,2,1.2,2.05A36.62,36.62,0,0,0,33.08,105.22Z"></path>
      <path class="cls-12" d="M40.44,111.63c-.91-1.21.5-2.16,1.5-2.47a2,2,0,0,1,1.89.23,5.74,5.74,0,0,1,2.53,3.43c0,.47.79.47.73,0-.2-1.74-2.19-4.32-4-4.54S38.32,110,39.8,112c.28.37.92,0,.64-.37Z"></path>
      <path class="cls-12" d="M60.24,128.94A113.49,113.49,0,0,1,62,140.54c.07.62,1,.63,1,0a115.78,115.78,0,0,0-1.78-11.86c-.13-.61-1.07-.35-.95.26Z"></path>
      <path class="cls-17" d="M58.22,121.46s0-1.59,1.49-.56,1.89,8.2,1.89,8.2-.28,2-1.69.65S58.22,121.46,58.22,121.46Z"></path>
      <path class="cls-13" d="M59.69,49s1.21.35,1.23,1.44c0,0,0,.23-.32.1a3.65,3.65,0,0,1,0,.67c0,.13-.41-.09-.79-.64,0,0-.19.89-.81,1a1.29,1.29,0,0,1,0-1.14s-.87.22-1.07-.37C57.93,50.05,57.83,49.57,59.69,49Z"></path>
      <path class="cls-17" d="M58.67,48.72s.53,1.5,1.59,0-.95-8.37-.95-8.37-.91-1.75-1.81,0S58.67,48.72,58.67,48.72Z"></path>
      <path class="cls-17" d="M47.17,141.31a8.92,8.92,0,0,1,1-1.4,15.34,15.34,0,0,1,3.3-2.65c1.53-.93,6.06-2.57,2,2.74s-7.48,5.41-7.89,4.94S46.5,142.45,47.17,141.31Z"></path>
      <path class="cls-12" d="M78.35,70a40.56,40.56,0,0,1,1-4.83,13.17,13.17,0,0,1,2.15-4.5c1-1.37,2.5-2.22,3.26-3.58a4.75,4.75,0,0,0,.33-4.46,3.63,3.63,0,0,0-3.78-2.11,3.35,3.35,0,0,0-2,1.2,2.61,2.61,0,0,0-.53,2.2,3,3,0,0,0,1.36,1.86,2.4,2.4,0,0,0,2.28.14,1.58,1.58,0,0,0,1-1.92,1.66,1.66,0,0,0-.8-.87,1.09,1.09,0,0,0-1.15.05,1.1,1.1,0,0,1,1.16-.07,1.7,1.7,0,0,1,.84.87,1.67,1.67,0,0,1-1,2,2.55,2.55,0,0,1-2.4-.1A3.14,3.14,0,0,1,78.62,54a2.82,2.82,0,0,1,.52-2.41,3.57,3.57,0,0,1,2.1-1.34,4,4,0,0,1,4.22,2.22,5.24,5.24,0,0,1-.25,4.91c-.85,1.53-2.33,2.41-3.22,3.7-1.89,2.58-2.36,5.88-2.81,9.07Z"></path>
      <path class="cls-12" d="M45.13,108.39a6.34,6.34,0,0,1-.3-4,10,10,0,0,1,1.64-3.48,28.76,28.76,0,0,1,2.42-2.73,7.39,7.39,0,0,0,1-1.32,15.8,15.8,0,0,0,.71-1.55A6,6,0,0,0,51,93.73a11,11,0,0,0,.09-1.7,5.7,5.7,0,0,0-.25-1.61A7.68,7.68,0,0,0,50.09,89a8.38,8.38,0,0,0-5.5-3.61,9.25,9.25,0,0,0-3.4,0,4.75,4.75,0,0,0-2.76,1.77,7.37,7.37,0,0,0-1.8,6.4,5,5,0,0,0,5.31,3.52,5.1,5.1,0,0,0,4.31-4.88A5.19,5.19,0,0,1,42,97.26a5.3,5.3,0,0,1-5.75-3.61,6.57,6.57,0,0,1,0-3.65,9.37,9.37,0,0,1,1.68-3.26,6.66,6.66,0,0,1,1.34-1.31A5.21,5.21,0,0,1,41,84.66a9.86,9.86,0,0,1,3.71-.15A9.36,9.36,0,0,1,51,88.36a8.64,8.64,0,0,1,.89,1.71,7,7,0,0,1,.36,1.9,11.56,11.56,0,0,1,0,1.87,7.24,7.24,0,0,1-.43,1.89c-.23.61-.43,1.11-.73,1.73a8.59,8.59,0,0,1-1.09,1.59,28.83,28.83,0,0,0-2.25,2.68c-1.24,1.82-1.9,4.16-1,6Z"></path>
      <path class="cls-12" d="M24.79,93.92a2.51,2.51,0,0,0,1.47-2.26A2.59,2.59,0,0,0,25,89.32a3.38,3.38,0,0,0-4.75,1.26,6.24,6.24,0,0,0-.43,2.73,5.81,5.81,0,0,0,.95,2.57c.93,1.68,2.88,2.16,4.73,2.4l11.39,1.5a15.72,15.72,0,0,1,5.73,1.5A10.51,10.51,0,0,1,45,103.15a5.78,5.78,0,0,1,1.58,2.77l-1.24.22A4.51,4.51,0,0,0,44.09,104,9.54,9.54,0,0,0,42,102.26a14.84,14.84,0,0,0-5.29-1.51L25.36,98.92a11.23,11.23,0,0,1-2.84-.78,4.92,4.92,0,0,1-1.27-.82,5.49,5.49,0,0,1-.93-1.18,6.17,6.17,0,0,1-.93-2.8,5.25,5.25,0,0,1,.1-1.48,7.33,7.33,0,0,1,.42-1.41,3.61,3.61,0,0,1,5.14-1.26,2.72,2.72,0,0,1,1.29,2.48A2.53,2.53,0,0,1,24.79,93.92Z"></path>
      <path class="cls-12" d="M35,103.82a13.07,13.07,0,0,1,9.82,3.52c.45.43,1.14-.26.69-.7A14.14,14.14,0,0,0,35,102.84c-.63,0-.64,1,0,1Z"></path>
      <path class="cls-13" d="M47.35,143.17a3.6,3.6,0,0,0-2.71.64,1.55,1.55,0,0,0,1,.36s-.53.65-.42,1c0,0,.27.15,1-.17,0,0-.21.68-.06.89a2.17,2.17,0,0,0,1.43-2.35S47.66,143,47.35,143.17Z"></path>
      <path class="cls-17" d="M39.27,118.46a7.5,7.5,0,0,1-.46-1.46,13.13,13.13,0,0,1-.18-3.72c.13-1.56,1.31-5.62,3,0s0,8.11-.57,8.15S39.72,119.53,39.27,118.46Z"></path>
      <path class="cls-13" d="M40.68,119.3a3.15,3.15,0,0,0-1,2.25,1.37,1.37,0,0,0,.79-.55s.19.72.49.82c0,0,.25-.11.39-.78,0,0,.37.5.6.5a1.93,1.93,0,0,0-.93-2.24S40.72,119,40.68,119.3Z"></path>
      <path class="cls-14" d="M56.11,35.86a3.64,3.64,0,0,1,6,.15"></path>
      <path class="cls-17" d="M51.37,37.72s1.85-2.28,3.24-2.78,5-2.13,1.62,2.27S50,41.68,49.7,41.29,51.37,37.72,51.37,37.72Z"></path>
      <path class="cls-13" d="M51,39.86a4.69,4.69,0,0,0-3.56.83,2.07,2.07,0,0,0,1.35.48s-.69.85-.55,1.31c0,0,.35.19,1.29-.22,0,0-.28.89-.08,1.17a2.87,2.87,0,0,0,1.88-3.1S51.45,39.64,51,39.86Z"></path>
      <path class="cls-17" d="M29.7,114.26a7.13,7.13,0,0,1,.6-1.81,13,13,0,0,1,1.71-2.8c1-1.1,4-3.68,2.28,1.59s-4.32,6.29-4.77,6S29.49,115.36,29.7,114.26Z"></path>
      <path class="cls-13" d="M30.4,115.41a3,3,0,0,0-1.93,1.25,1.29,1.29,0,0,0,.9,0s-.23.65-.05.89c0,0,.25,0,.72-.4,0,0,0,.59.2.71a1.79,1.79,0,0,0,.46-2.23S30.6,115.2,30.4,115.41Z"></path>
      <path class="cls-13" d="M87.12,67.56a.87.87,0,0,0,.91-.41c.37-.54,1.61-1.56,1.44-.52s-.48,1-.48,1,1.5.33.34,1.08a.92.92,0,0,1-1,.78S88.8,68,87,68C87,68,86.62,67.61,87.12,67.56Z"></path>
      <path class="cls-13" d="M77.83,56.79c.38,0,1.54,0,1.63-1.94a.64.64,0,0,0-.53,0,1,1,0,0,0,.24-.85s-.56,0-1.08.78c0,0-.41-1.15-1-1.21,0,0-.21,1,0,1.36,0,0-1.17-.15-1.42.41C75.72,55.34,76.85,56.72,77.83,56.79Z"></path>
      <path class="cls-12" d="M59,32.11a38.55,38.55,0,0,0-13.71-5.69,21.67,21.67,0,0,0-7.36-.19,9.71,9.71,0,0,0-6.27,3.34,6.44,6.44,0,0,0-1.4,3.27,5.5,5.5,0,0,0,.82,3.44,4.46,4.46,0,0,0,2.84,2,5.41,5.41,0,0,0,3.57-.2A4.26,4.26,0,0,0,39,37.17a3.11,3.11,0,0,0,.78-1.58,3.37,3.37,0,0,0-1.1-3.27,2.54,2.54,0,0,0-3.32.07,1.65,1.65,0,0,0-.26,1.7,1.39,1.39,0,0,0,1.35,1s0,0,0,0,0,0,0,0a1.49,1.49,0,0,1-1.46-1,1.76,1.76,0,0,1,.26-1.83,2.69,2.69,0,0,1,3.55-.15,3.63,3.63,0,0,1,1.25,3.49,3.36,3.36,0,0,1-.83,1.75,4.28,4.28,0,0,1-1.62,1,5.71,5.71,0,0,1-3.8.27,4.85,4.85,0,0,1-3.12-2.18,6,6,0,0,1-1-3.74,7,7,0,0,1,1.46-3.57,10.25,10.25,0,0,1,6.61-3.68,21.8,21.8,0,0,1,7.6.21A34.33,34.33,0,0,1,59,32.05a0,0,0,0,1,0,.05S59,32.12,59,32.11Z"></path>
      <path class="cls-12" d="M54.32,28.91a32.83,32.83,0,0,1,4.87,3.26,15.87,15.87,0,0,1,2.09,2.09q1,1.11,1.89,2.25a45.66,45.66,0,0,1,6.31,9.93,22.17,22.17,0,0,1,2,11.65,21.46,21.46,0,0,1-1.58,5.78A31.16,31.16,0,0,1,67,69.07c-4.48,6.59-10.84,11.48-15.15,17.8a26.77,26.77,0,0,0-4.39,10.34,32.38,32.38,0,0,0-.07,11.28,38.55,38.55,0,0,0,3.5,10.76A75.09,75.09,0,0,0,56.94,129c2.24,3.18,4.57,6.36,6.61,9.8a51.53,51.53,0,0,1,4.91,11,39.71,39.71,0,0,1,1.8,12.05,33.88,33.88,0,0,1-2.4,12c-.7,1.88-1.47,3.69-2.18,5.47s-1.34,3.57-1.91,5.39a78.07,78.07,0,0,0-2.59,11.1A2.1,2.1,0,0,1,57,195.2v0a82,82,0,0,1,3-11.63c.63-1.89,1.35-3.77,2.12-5.6s1.56-3.6,2.26-5.37a30.4,30.4,0,0,0,2.4-10.76,36.55,36.55,0,0,0-1.43-11.06A47.64,47.64,0,0,0,61,140.31c-1.87-3.32-4.09-6.5-6.28-9.75a77.15,77.15,0,0,1-6.08-10.22,41.16,41.16,0,0,1-3.48-11.51,34.2,34.2,0,0,1,.33-12,28.56,28.56,0,0,1,4.91-11c4.68-6.52,11.1-11.22,15.55-17.52A23.76,23.76,0,0,0,70.43,58a21.19,21.19,0,0,0-1.68-11.19,44.67,44.67,0,0,0-6-9.91q-.89-1.16-1.83-2.28A20.79,20.79,0,0,0,59,32.43,32.55,32.55,0,0,0,54.32,28.91Z"></path>
      <path class="cls-6" d="M55.56,207a1.63,1.63,0,0,0-1.57-.58c-.87.27-1.22,1-1.07,1.2a4.41,4.41,0,0,0,.32.34c.22.21.68-.4.7-.4S55.56,207,55.56,207Z"></path>
      <path class="cls-7" d="M56,208s-.27-1.19-.72-1.2-.95-.09-.95-.09l-.13.22s.45.78.63.84.51.14.59.18A4.86,4.86,0,0,0,56,208Z"></path>
      <path class="cls-8" d="M56,208.18c0-.1.11-.37-.18-.46a4.68,4.68,0,0,0-.58-.12s-.71.54-.85.63-.23.07.18.19.41.23.78.18A1.07,1.07,0,0,0,56,208.18Z"></path>
      <path class="cls-9" d="M55.22,207.6a6.5,6.5,0,0,0-.52.51c-.2.25-.24.33-.49.2s-.91-.22-1.07-.47-.17-.22,0-.52a1.29,1.29,0,0,1,.84-.51.73.73,0,0,1,.83.18A1.85,1.85,0,0,1,55.22,207.6Z"></path>
      <path class="cls-6" d="M52,186.84a2.42,2.42,0,0,0-2.44-.35c-1.16.65-1.44,1.75-1.16,2.06.08.08.39.26.57.38.38.23.85-.78.88-.79S52,186.84,52,186.84Z"></path>
      <path class="cls-7" d="M53,188.21s-.76-1.62-1.4-1.5-1.39.17-1.39.17l-.12.35s.87,1,1.15,1,.79,0,.91.07A5.52,5.52,0,0,0,53,188.21Z"></path>
      <path class="cls-8" d="M53,188.43c0-.16,0-.57-.39-.61a6.24,6.24,0,0,0-.87,0s-.85,1-1,1.15-.31.18.32.23.65.2,1.17,0A1.59,1.59,0,0,0,53,188.43Z"></path>
      <path class="cls-9" d="M51.69,187.83a8.37,8.37,0,0,0-.59.89c-.22.42-.25.54-.65.43s-1.36,0-1.67-.34-.31-.27-.1-.76a1.9,1.9,0,0,1,1-1,1.06,1.06,0,0,1,1.24,0A2.68,2.68,0,0,1,51.69,187.83Z"></path>
      <path class="cls-6" d="M47.17,194.23s-5-2.5-8.53.56-3.67,7-2.47,7.83a16.48,16.48,0,0,0,2.2.87c1.44.54,2.34-3.23,2.43-3.29S47.17,194.23,47.17,194.23Z"></path>
      <path class="cls-7" d="M51.45,198.19s-3.72-5-5.84-4.11-4.6,1.58-4.6,1.58l-.14,1.27s3.66,2.72,4.63,2.63,2.71-.4,3.14-.4A21.3,21.3,0,0,0,51.45,198.19Z"></path>
      <path class="cls-8" d="M51.59,199c0-.55-.25-2-1.75-1.78a20.49,20.49,0,0,0-3,.63s-2.2,4-2.68,4.67-.94.83,1.24.55,2.36.22,4-.77A5.62,5.62,0,0,0,51.59,199Z"></path>
      <path class="cls-9" d="M46.89,197.8a25.24,25.24,0,0,0-1.37,3.46c-.46,1.58-.48,2-1.91,1.94s-4.66.85-6,0-1.23-.69-.87-2.53,1.2-2.69,2.85-4.11a3.73,3.73,0,0,1,4.25-.89A9.55,9.55,0,0,1,46.89,197.8Z"></path>
      <path class="cls-6" d="M64.51,195.28s-4.2-2.47-7.43,0-3.61,5.84-2.62,6.65a14.82,14.82,0,0,0,1.85.89c1.23.55,2.23-2.67,2.31-2.71S64.51,195.28,64.51,195.28Z"></path>
      <path class="cls-7" d="M68,199s-2.93-4.55-4.82-3.92-4.09,1.09-4.09,1.09l-.2,1.09s3,2.59,3.86,2.57,2.38-.18,2.75-.16A19.22,19.22,0,0,0,68,199Z"></path>
      <path class="cls-8" d="M68.07,199.65c0-.49-.1-1.74-1.41-1.66a18.79,18.79,0,0,0-2.61.37s-2.14,3.33-2.6,3.89-.87.67,1,.56,2,.34,3.52-.43A4.87,4.87,0,0,0,68.07,199.65Z"></path>
      <path class="cls-9" d="M64.05,198.36a22.71,22.71,0,0,0-1.4,2.92c-.48,1.35-.53,1.72-1.77,1.57s-4.1.46-5.16-.33-1-.68-.61-2.24,1.21-2.27,2.72-3.4a3.25,3.25,0,0,1,3.75-.52A8.35,8.35,0,0,1,64.05,198.36Z"></path>
      <path class="cls-6" d="M75.65,190.84s-4.15-3.2-7.91-1-4.63,5.73-3.68,6.73a15.83,15.83,0,0,0,1.85,1.2c1.23.75,2.74-2.54,2.82-2.58S75.65,190.84,75.65,190.84Z"></path>
      <path class="cls-7" d="M78.86,195.24s-2.51-5.24-4.61-4.82-4.5.62-4.5.62l-.36,1.13s2.87,3.16,3.77,3.26,2.56.12,3,.19A19.2,19.2,0,0,0,78.86,195.24Z"></path>
      <path class="cls-8" d="M78.86,196c0-.51.12-1.86-1.29-2a19.86,19.86,0,0,0-2.82.05s-2.73,3.26-3.3,3.79-1,.6,1,.73,2.12.64,3.81,0A5.23,5.23,0,0,0,78.86,196Z"></path>
      <path class="cls-9" d="M74.75,194.06A24.32,24.32,0,0,0,72.87,197c-.7,1.37-.8,1.76-2.1,1.44s-4.43-.07-5.46-1-1-.86-.34-2.47,1.59-2.25,3.35-3.26a3.5,3.5,0,0,1,4.06,0A9,9,0,0,1,74.75,194.06Z"></path>
      <path class="cls-6" d="M78.87,204.25a2.5,2.5,0,0,0,2.3-1.13c.62-1.26.22-2.37-.21-2.46a4.31,4.31,0,0,0-.71,0c-.47,0-.28,1.17-.3,1.19Z"></path>
      <path class="cls-7" d="M77.23,203.65s1.6.95,2.09.47a14.45,14.45,0,0,1,1.1-1l-.11-.37a5.27,5.27,0,0,0-1.59-.2c-.26.14-.71.43-.83.48A7.19,7.19,0,0,0,77.23,203.65Z"></path>
      <path class="cls-8" d="M77.1,203.46c.08.14.3.52.69.29a7.22,7.22,0,0,0,.75-.52s.15-1.36.2-1.6.17-.34-.41,0-.68.21-1,.67A1.73,1.73,0,0,0,77.1,203.46Z"></path>
      <path class="cls-9" d="M78.54,203.23a7.29,7.29,0,0,0,0-1.12c-.06-.49-.1-.61.3-.76s1.2-.77,1.65-.69.42.05.53.6a2,2,0,0,1-.31,1.47,1.12,1.12,0,0,1-1.08.74A2.83,2.83,0,0,1,78.54,203.23Z"></path>
      <path class="cls-6" d="M39.37,205.15s2.13.29,3-1.25.48-3-.06-3.15a7.27,7.27,0,0,0-.91-.05c-.59,0-.45,1.47-.48,1.5S39.37,205.15,39.37,205.15Z"></path>
      <path class="cls-7" d="M37.33,204.23s2,1.36,2.63.78,1.47-1.14,1.47-1.14l-.1-.47a6.55,6.55,0,0,0-2-.39c-.34.14-.93.47-1.09.53A8.24,8.24,0,0,0,37.33,204.23Z"></path>
      <path class="cls-8" d="M37.18,204c.09.19.34.68.86.43a8.87,8.87,0,0,0,1-.59s.31-1.72.41-2,.23-.42-.52,0-.89.21-1.37.77A2.23,2.23,0,0,0,37.18,204Z"></path>
      <path class="cls-9" d="M39,203.82a9.38,9.38,0,0,0,.08-1.43c0-.63-.08-.79.45-.94s1.59-.88,2.16-.74.53.1.63.81a2.62,2.62,0,0,1-.53,1.85,1.45,1.45,0,0,1-1.44.84A3.69,3.69,0,0,1,39,203.82Z"></path>
      <path class="cls-6" d="M53.26,197.22a1.86,1.86,0,0,0,1.87.32c.92-.47,1.17-1.31.95-1.56a4.12,4.12,0,0,0-.43-.31c-.29-.19-.68.58-.7.59Z"></path>
      <path class="cls-7" d="M52.54,196.14s.55,1.27,1.05,1.19,1.08-.1,1.08-.1l.09-.26s-.65-.79-.86-.82-.61-.05-.7-.07A3.82,3.82,0,0,0,52.54,196.14Z"></path>
      <path class="cls-8" d="M52.55,196c0,.12,0,.44.29.47a4.3,4.3,0,0,0,.67,0s.68-.75.82-.87.25-.13-.24-.18-.5-.17-.91,0A1.28,1.28,0,0,0,52.55,196Z"></path>
      <path class="cls-9" d="M53.51,196.46a7,7,0,0,0,.48-.68c.18-.31.2-.41.51-.32s1,.06,1.29.31.23.21.05.59a1.46,1.46,0,0,1-.83.74.81.81,0,0,1-1,0A2.08,2.08,0,0,1,53.51,196.46Z"></path>
      <path class="cls-6" d="M70.15,204.35s4.71,1.15,7.08-2.1,1.76-6.6.58-7.08a15.38,15.38,0,0,0-2-.32c-1.32-.17-1.35,3.18-1.42,3.24S70.15,204.35,70.15,204.35Z"></path>
      <path class="cls-7" d="M65.78,201.84s4.1,3.48,5.72,2.34S75.07,202,75.07,202l-.13-1.1s-3.61-1.59-4.41-1.33-2.21.86-2.57.94A20,20,0,0,0,65.78,201.84Z"></path>
      <path class="cls-8" d="M65.51,201.23c.15.46.6,1.62,1.82,1.16a17.87,17.87,0,0,0,2.37-1.1s1.08-3.78,1.36-4.45.63-.88-1.15-.22-2,.26-3.23,1.42A4.86,4.86,0,0,0,65.51,201.23Z"></path>
      <path class="cls-9" d="M69.7,201.29a22.45,22.45,0,0,0,.49-3.18c.08-1.42,0-1.79,1.24-2s3.76-1.61,5-1.17,1.17.35,1.22,2-.49,2.5-1.6,4a3.24,3.24,0,0,1-3.41,1.57A8.36,8.36,0,0,1,69.7,201.29Z"></path>
      <path class="cls-6" d="M48.42,201.63s2.83,1.59,4.94-.08,2.32-3.92,1.65-4.45a9.49,9.49,0,0,0-1.24-.57c-.82-.35-1.45,1.8-1.5,1.83S48.42,201.63,48.42,201.63Z"></path>
      <path class="cls-7" d="M46.06,199.22s2,3,3.26,2.54S52,201,52,201l.12-.73s-2-1.67-2.6-1.65-1.58.15-1.83.14A12.73,12.73,0,0,0,46.06,199.22Z"></path>
      <path class="cls-8" d="M46,198.78c0,.32.09,1.15,1,1.08a12.33,12.33,0,0,0,1.72-.28s1.39-2.24,1.69-2.62.56-.46-.71-.36-1.35-.19-2.33.33A3.28,3.28,0,0,0,46,198.78Z"></path>
      <path class="cls-9" d="M48.68,199.58a14.75,14.75,0,0,0,.9-2c.3-.9.33-1.15,1.15-1.07s2.72-.36,3.44.15.69.44.43,1.49a3.84,3.84,0,0,1-1.76,2.29,2.15,2.15,0,0,1-2.48.4A5.59,5.59,0,0,1,48.68,199.58Z"></path>
    </g>
  </g>
</svg>
