<?xml version="1.0" encoding="UTF-8"?>
<svg xmlns="http://www.w3.org/2000/svg" xmlns:xlink="http://www.w3.org/1999/xlink" viewBox="0 0 110.76 244.96">
  <defs>
    <style>.cls-1{fill:#8e6848;}.cls-2{fill:url(#Безымянный_градиент_7);}.cls-3{fill:#713e21;}.cls-4{fill:#3d271f;}.cls-5{fill:#69391e;}.cls-6{fill:#6b482f;}.cls-7{fill:#5c3624;}.cls-8{fill:#795135;}.cls-9{fill:#9a734f;}.cls-10{fill:#fff;}.cls-11{fill:#85563a;}.cls-12{fill:#779f5a;}.cls-13{fill:#789f5a;}.cls-14{fill:#8ead6f;}.cls-15{fill:#f2d95a;}</style>
    <linearGradient id="Безымянный_градиент_7" x1="51.77" y1="282.71" x2="56.86" y2="187.99" gradientUnits="userSpaceOnUse">
      <stop offset="0.38" stop-color="#9b714f"></stop>
      <stop offset="0.91" stop-color="#754427"></stop>
      <stop offset="1" stop-color="#6e3c20"></stop>
    </linearGradient>
  </defs>
  <g id="Слой_2" data-name="Слой 2">
    <g id="Слой_1-2" data-name="Слой 1">
      <path class="cls-1" d="M56.89,179.72s9.49,11.14,16.82,11.6,32.36-7.46,32.36-7.46l2.52-26.07-51.7-18.23Z"></path>
      <path class="cls-1" d="M0,156l5.16,34s18.32,2.75,21.53,1.84,17.86-6.42,22-6.42,8.22-5.64,8.22-5.64V139.56Z"></path>
      <polygon class="cls-2" points="7.62 221.76 56.89 244.96 102.47 221.88 55.08 201.8 7.62 221.76"></polygon>
      <path class="cls-3" d="M7.62,221.76,5.16,189.94s23.36-.45,29.77-3.66,22-6.56,22-6.56L55.08,201.8Z"></path>
      <path class="cls-4" d="M40.91,191.92a8.56,8.56,0,0,0-2.79-1.65h0s-3.73-1.12-5.76,1.39-1.69,5.22-.77,5.65a11,11,0,0,0,1.61.34s.06,0,.09,0a28.79,28.79,0,0,0,3.46-.79,1.79,1.79,0,0,0,.6-.15l.64-.19c1.46-.45,1.64-.12,2.65-1A3.92,3.92,0,0,0,41.72,193a2.24,2.24,0,0,0-.2-.5h0l0,0A1,1,0,0,0,40.91,191.92Z"></path>
      <path class="cls-4" d="M20.91,195.2a10.82,10.82,0,0,0-4,1.31v0s-4.24,2.66-3.54,6.75,3.61,6,4.81,5.52a14.24,14.24,0,0,0,1.69-1.26s0-.09,0-.13c.9-1,1.57-3.12,2.17-4a2.24,2.24,0,0,0,.36-.71c.1-.2.2-.41.36-.78.8-1.79,1.27-1.69,1.28-3.41a5,5,0,0,0-1.52-3.16,3.47,3.47,0,0,0-.65-.22v0h-.08A1.22,1.22,0,0,0,20.91,195.2Z"></path>
      <path class="cls-5" d="M56.89,179.72,55.08,201.8l47.39,20.08,3.6-38s-14.78-1.71-21.19-.79-17.58,3.67-20.94,1.83A44.44,44.44,0,0,1,56.89,179.72Z"></path>
      <path class="cls-4" d="M38.84,202.4a3.14,3.14,0,0,0-1.23-.3h0a2.27,2.27,0,0,0-2,1.17c-.48,1.16-.05,2.14.34,2.2a4.34,4.34,0,0,0,.65-.05s0,0,0,0a11.12,11.12,0,0,0,1.21-.68.58.58,0,0,0,.2-.12l.22-.14c.5-.34.61-.23.89-.68a1.53,1.53,0,0,0,.12-1.06l-.13-.16h0A.42.42,0,0,0,38.84,202.4Z"></path>
      <path class="cls-4" d="M85.27,192.9a2.22,2.22,0,0,0-.11-.88h0s-.37-1-1.25-1-1.41.5-1.35.77a2,2,0,0,0,.19.4s0,0,0,0c.18.23.59.45.74.62l.14.1.14.11c.34.24.3.33.66.41a1.07,1.07,0,0,0,.72-.19.63.63,0,0,0,.07-.12h0v0A.23.23,0,0,0,85.27,192.9Z"></path>
      <path class="cls-4" d="M98.51,208.85a11,11,0,0,0-1.88-3.76h0s-3.27-3.85-7.25-2.56-5.52,4.48-4.82,5.61a15,15,0,0,0,1.5,1.5s.1,0,.14,0c1.17.75,3.34,1.12,4.31,1.59a2.08,2.08,0,0,0,.76.25l.83.25c1.9.54,1.87,1,3.58.78a5.08,5.08,0,0,0,2.94-2,3.16,3.16,0,0,0,.13-.68h0l0-.07A1.24,1.24,0,0,0,98.51,208.85Z"></path>
      <path class="cls-4" d="M72.75,195.76a8.31,8.31,0,0,0-1.83,2.64h0s-1.38,3.61.95,5.81,5,2.06,5.54,1.18a11.21,11.21,0,0,0,.45-1.57s0-.06,0-.1a28.87,28.87,0,0,0-.52-3.48,1.73,1.73,0,0,0-.11-.6c0-.17-.07-.35-.14-.65-.34-1.48,0-1.63-.79-2.7A4,4,0,0,0,73.84,195a3.36,3.36,0,0,0-.51.17v0l0,0A1,1,0,0,0,72.75,195.76Z"></path>
      <path class="cls-6" d="M72.93,222.75a1.58,1.58,0,0,0,1.55-.4c.53-.69.42-1.42.17-1.53a2.78,2.78,0,0,0-.43-.08c-.29-.05-.32.68-.33.69Z"></path>
      <path class="cls-7" d="M72,222.18s.87.78,1.23.55a8.29,8.29,0,0,1,.78-.46l0-.24a3.22,3.22,0,0,0-.94-.31c-.18.05-.49.17-.56.18A4.71,4.71,0,0,0,72,222.18Z"></path>
      <path class="cls-8" d="M72,222.05c0,.1.12.35.39.26a4.09,4.09,0,0,0,.52-.22s.26-.81.32-1,.14-.19-.25-.06-.44,0-.71.29A1.08,1.08,0,0,0,72,222.05Z"></path>
      <path class="cls-9" d="M72.86,222.09a4.37,4.37,0,0,0,.12-.69c0-.3,0-.38.28-.42s.83-.32,1.1-.22.25.08.25.43a1.26,1.26,0,0,1-.38.86.7.7,0,0,1-.75.32A1.8,1.8,0,0,1,72.86,222.09Z"></path>
      <path class="cls-6" d="M62.4,216.71s2.36.13,3.2-1.64.25-3.32-.36-3.44a5.83,5.83,0,0,0-1,0c-.65,0-.37,1.64-.39,1.68S62.4,216.71,62.4,216.71Z"></path>
      <path class="cls-7" d="M60.08,215.9s2.27,1.3,3,.61,1.51-1.38,1.51-1.38l-.16-.52a7.32,7.32,0,0,0-2.23-.24c-.36.2-1,.61-1.15.68A10.4,10.4,0,0,0,60.08,215.9Z"></path>
      <path class="cls-8" d="M59.9,215.63c.11.21.43.72,1,.4a9.34,9.34,0,0,0,1-.74s.18-1.91.25-2.26.23-.48-.57,0-1,.31-1.42,1A2.36,2.36,0,0,0,59.9,215.63Z"></path>
      <path class="cls-9" d="M61.91,215.29a10.79,10.79,0,0,0,0-1.57c-.09-.69-.16-.86.41-1.07s1.66-1.11,2.29-1,.59.06.76.83a2.8,2.8,0,0,1-.41,2.07,1.56,1.56,0,0,1-1.49,1.05A4,4,0,0,1,61.91,215.29Z"></path>
      <path class="cls-6" d="M52.58,224.37s1.84,1.4,3.49.43,2-2.55,1.59-3a6,6,0,0,0-.82-.52c-.54-.33-1.19,1.13-1.23,1.14S52.58,224.37,52.58,224.37Z"></path>
      <path class="cls-7" d="M51.15,222.45s1.12,2.3,2.05,2.1,2-.29,2-.29l.15-.5s-1.28-1.38-1.67-1.42-1.13,0-1.3-.07A9,9,0,0,0,51.15,222.45Z"></path>
      <path class="cls-8" d="M51.15,222.13c0,.23,0,.82.57.85A8,8,0,0,0,53,223s1.19-1.44,1.44-1.68.44-.27-.46-.32-.94-.27-1.68,0A2.29,2.29,0,0,0,51.15,222.13Z"></path>
      <path class="cls-9" d="M53,223a10.14,10.14,0,0,0,.82-1.29c.3-.61.34-.78.92-.64s1.95,0,2.41.44.44.37.16,1.09A2.76,2.76,0,0,1,55.8,224,1.53,1.53,0,0,1,54,224,4,4,0,0,1,53,223Z"></path>
      <path class="cls-6" d="M48.34,218a2.63,2.63,0,0,0,.1-2.69c-.85-1.2-2.08-1.38-2.38-1a5.1,5.1,0,0,0-.34.67c-.22.43.94.83,1,.86S48.34,218,48.34,218Z"></path>
      <path class="cls-7" d="M47,219.25s1.68-1,1.47-1.71a14.67,14.67,0,0,1-.35-1.49L47.7,216s-1,1.06-1,1.37,0,.86,0,1A7,7,0,0,0,47,219.25Z"></path>
      <path class="cls-8" d="M46.73,219.27c.17,0,.63,0,.61-.5a6.46,6.46,0,0,0-.1-.94s-1.19-.82-1.38-1-.24-.32-.22.37-.14.73.12,1.28A1.79,1.79,0,0,0,46.73,219.27Z"></path>
      <path class="cls-9" d="M47.24,217.83a8.22,8.22,0,0,0-1.05-.54c-.48-.19-.61-.21-.55-.66s-.12-1.49.18-1.87.26-.36.82-.19a2.1,2.1,0,0,1,1.2,1A1.19,1.19,0,0,1,48,217,3.07,3.07,0,0,1,47.24,217.83Z"></path>
      <path class="cls-6" d="M40,220a1.14,1.14,0,0,0,.38-1.1c-.19-.6-.68-.83-.85-.73a2.47,2.47,0,0,0-.23.23c-.14.16.29.47.29.48S40,220,40,220Z"></path>
      <path class="cls-7" d="M39.27,220.34s.82-.21.82-.52,0-.66,0-.66l-.15-.09s-.54.32-.58.45-.09.36-.12.41A3.26,3.26,0,0,0,39.27,220.34Z"></path>
      <path class="cls-8" d="M39.16,220.32c.08,0,.27.07.32-.13a2.42,2.42,0,0,0,.08-.4s-.39-.49-.45-.59,0-.16-.13.13-.16.28-.12.54A.81.81,0,0,0,39.16,220.32Z"></path>
      <path class="cls-9" d="M39.56,219.79a3.65,3.65,0,0,0-.36-.36c-.18-.14-.23-.17-.15-.34s.14-.63.31-.75.16-.12.37,0a.89.89,0,0,1,.36.58.5.5,0,0,1-.11.58A1.29,1.29,0,0,1,39.56,219.79Z"></path>
      <path class="cls-6" d="M37.43,224.62s1.62-2.6.13-4.66-3.6-2.36-4.12-1.75a8.53,8.53,0,0,0-.59,1.15c-.37.76,1.64,1.44,1.66,1.49S37.43,224.62,37.43,224.62Z"></path>
      <path class="cls-7" d="M35.06,226.74s2.9-1.77,2.53-3S37,221.2,37,221.2l-.68-.14s-1.67,1.85-1.67,2.38.08,1.49.06,1.72A11.53,11.53,0,0,0,35.06,226.74Z"></path>
      <path class="cls-8" d="M34.64,226.78c.31,0,1.09,0,1.06-.86a12.14,12.14,0,0,0-.19-1.64s-2.06-1.39-2.4-1.69-.41-.55-.36.65-.25,1.26.21,2.21A3.07,3.07,0,0,0,34.64,226.78Z"></path>
      <path class="cls-9" d="M35.51,224.28a15,15,0,0,0-1.81-.92c-.84-.33-1.07-.36-1-1.14s-.22-2.57.29-3.23.44-.63,1.41-.34a3.66,3.66,0,0,1,2.09,1.75,2,2,0,0,1,.27,2.36A5.23,5.23,0,0,1,35.51,224.28Z"></path>
      <path class="cls-10" d="M54.4,171.19c.53,1.52.54,1.53,2.16,1a5.05,5.05,0,0,0,.78,1.15,18,18,0,0,1,4.39,5.88c1.76,3.36,1.24,3.2,5,3.57A11.62,11.62,0,0,1,73.88,186a12.58,12.58,0,0,1,.9,1.07c-1.33-.12-1.75-1-2.46-1.34s-1.49-.83-2.28-1.15a10.27,10.27,0,0,0-2.19-.59c-.83-.14-1.68-.15-2.9-.24a9.12,9.12,0,0,0,1,1.32,14.31,14.31,0,0,0,6.82,3.29,11.47,11.47,0,0,1,1.63.42c.1,0,.14.31.18.49,0,0-.13.13-.21.15a3.34,3.34,0,0,1-.82.13,14.86,14.86,0,0,1-9-3.79c-.57-.5-1.08-1.06-1.63-1.58a2.33,2.33,0,0,0-2.32-.49c1.39,2.06,3.8,3,4.94,5-.1.15-.14.25-.2.29a.33.33,0,0,1-.24,0l-5-3.16A8.54,8.54,0,0,0,61.25,190a2.55,2.55,0,0,0,1.13.78c.76.37,1.59.63,2.33,1A6.23,6.23,0,0,1,66,192.86c.07.06,0,.31-.06.46s-.17.09-.23.07l-3.56-1.52c-.27,1.8.63,3.22.8,4.74a11,11,0,0,1,0,4.5c-.88-.43-.65-1.06-.65-1.53a21.69,21.69,0,0,0-1.19-6.68,4.57,4.57,0,0,0-.56-1.3,1.42,1.42,0,0,0-.9-.54c-.56,0-.45.5-.45.83,0,3.6.14,7.21,0,10.81-.16,5.2-.5,10.4-.78,15.61a10.59,10.59,0,0,1-.31,1.48c-.66-2.09-.24-3.79-.29-5.45s0-3.6,0-5.4,0-3.32-.12-5.37l-4.46,8.87,0,0c.31-2.67,1.62-5,2.36-7.57a7,7,0,0,0,.45-2.48l-3.64,3.63a6.56,6.56,0,0,1,.53-1.56c.73-.87,1.49-1.71,2.29-2.52a6.36,6.36,0,0,0,2-5.39c-.2-1.87-.22-3.76-.33-5.74-1.19.44-.89,1.46-1.18,2.18s-.62,1.59-.89,2.39-.47,1.6-.72,2.45c-.9-.63-.47-1.38-.36-2,.33-1.77.76-3.52,1.23-5.25.37-1.37.29-2.76.75-4.27-1.77.24-2.63.94-2.93,2.32-.16.72-.43,1.42-.79,2.61-.81-4.52,1.65-7.85,2.47-11.68-1.36,1.15-2.54,2.17-3.75,3.16a1.3,1.3,0,0,0-.4,1.25c.05.93,0,.92-1,.38-.24-.14-.59-.38-.74-.29-1.56.87-3.1,1.79-4.62,2.73-.14.08-.13.37-.25.5s-.4.39-.57.37c-2.31-.29-3.83,1.33-5.57,2.34A7.45,7.45,0,0,0,34.54,194c-.17.44-.35.87-.54,1.3a.28.28,0,0,1-.24.08c-.15-.07-.38-.17-.39-.28a3,3,0,0,1,0-1.11,9.81,9.81,0,0,1,4.37-5.41,42.62,42.62,0,0,1,4-2.2,5.16,5.16,0,0,0,2.44-2.25,8.16,8.16,0,0,1,3.55-3.59,11.48,11.48,0,0,0,3.3-2.64,6.77,6.77,0,0,1,.61-.59c2.67-2.34,2.6-1.94,2.63-5.53A2.15,2.15,0,0,1,54.4,171.19ZM57,175.58a22.48,22.48,0,0,0,0,2.28c.22,1.88,1.32,2.08,2.7,2.36.09,0,.43-.46.38-.56C59.32,178.29,58.75,176.75,57,175.58Z"></path>
      <polygon class="cls-11" points="0 155.95 56.89 179.72 108.59 157.79 56.89 139.56 0 155.95"></polygon>
      <path class="cls-12" d="M64,61.35l-.26,0-.26-.07c1.14-.62,2.15-1.32,1.69-2.88a8.44,8.44,0,0,1,5.63-4l1.36-.62.88,0c.68.12,1.35.19,1.83-.47,1.42-.06,2.84-.14,4.25-.15a.73.73,0,0,1,.69,1.16c-.38.65-.81,1.26-1.34,2.07,1.3.45,2.5.91,3.72,1.27s2.33,1.22,3.8,1c.82-.15-.42.81.33,1.06,1.13.38,1.72,1.43,2.41,2.31s.7,1.43,0,2c-1.78,1.35-1.64,2.7-.77,4.6a31.61,31.61,0,0,1,2.94,15.22c0,.54-.15,1.08-.25,1.72-4.47-.5-8.5-2.1-12.66-3.55a3.63,3.63,0,0,0-.1.95c.41,2.4.38,2.51-1.87,2.23-2.73-.34-5.45-.75-8.14-1.27a9.23,9.23,0,0,1-4.11-1.88c-.48-.39-.82-1.29-1.56-.95-.41.19-.55.94-.85,1.42a1,1,0,0,1-1.65.11c-4-4.18-5.28-11.51-.6-16.52a10,10,0,0,1,6.84-3.63,12.41,12.41,0,0,0,1.38-.32l-2.76-.75A.52.52,0,0,0,64,61.35Z"></path>
      <path class="cls-12" d="M80,13.48,86,14c0-.68,0-1.51.13-2.32a4.26,4.26,0,0,1,3.92-3.84,9,9,0,0,1,3.11,0c2.55.69,5.06,1.54,7.56,2.41.53.18.49.63,0,1a.5.5,0,0,0,.11.9c.85.4,1.73.75,2.58,1.17,1,.51,2,1,3,1.6a8.68,8.68,0,0,1,4.25,6.08c.24,1,.07,1.22-1.23,1.75a.78.78,0,0,0-.43.58c.07.65.31,1.29.38,1.94.28,2.82-.4,5.24-3,7-.28-.68-.51-1.28-.78-1.86a3,3,0,0,0-3.65-2c-1,.15-2,.43-3,.68a9.32,9.32,0,0,1-5,.06c-.94-.3-1.74-.6-2.52.36-.17.21-.91.16-1.27,0a16.84,16.84,0,0,1-4.82-3.46l-2.4-2.52a11.42,11.42,0,0,1-1.22,1.61c-.19.18-.68.08-1,0-.15,0-.3-.23-.4-.38a14.29,14.29,0,0,1-2.35-5.74c-.25-1.74-.09-3.43,1.6-4.53A1.06,1.06,0,0,0,80,13.48Z"></path>
      <path class="cls-12" d="M56.8,23.68a9.55,9.55,0,0,1,3,2.55,3.73,3.73,0,0,1,.85,2.36c0,1.51-.61,2.4-2.13,2.46a62.14,62.14,0,0,1-7.09-.12c-1.59-.11-3.16-.6-4.75-.84-.85-.13-1.45-.4-1.5-1.35s-.64-1.15-1.28-1.34A7.73,7.73,0,0,0,41.67,27c-2.26,0-4.54.08-6.79.33-1.26.14-1.61.11-1.59-1.46A11.88,11.88,0,0,1,34.47,21c.25-.51.61-1,.84-1.48.15-.33.33-.89.18-1.06-1.32-1.49,0-2.22.89-2.94a9,9,0,0,1,5.24-1.94A20.89,20.89,0,0,0,45,13a.91.91,0,0,0,.73-1.3c-.46-.9.07-1.19.73-1.41a3.79,3.79,0,0,1,1.12-.16,11.14,11.14,0,0,1,8.66,3.54c2.27,2.44,2.52,4.6.92,7.76C55.91,22.49,55.87,22.77,56.8,23.68Z"></path>
      <path class="cls-13" d="M56.82,155.6a45.81,45.81,0,0,1,1.89-12.9,25.88,25.88,0,0,1,1.69-4.21,4.11,4.11,0,0,0,.22-3.55c-.59-1.5-1.22-3-1.87-4.45a1.16,1.16,0,0,0-1.39-.72,41.64,41.64,0,0,1-9.06.51,11.16,11.16,0,0,0-1.42.06c-2.14.26-2.88,1-3.16,3.26,0,.34-.13.67-.27,1.34a8.2,8.2,0,0,1-.87-1c-1.8-3.33-3.6-6.67-5.35-10A9.8,9.8,0,0,1,36,119.26a6.75,6.75,0,0,1,5.83-7,8.42,8.42,0,0,1,7.26,2.48,4.54,4.54,0,0,1,1.25,2.8c.09.65,0,1.33.11,2a.62.62,0,0,0,.83.54c.81-.24,1.6-.57,2.39-.87,4.76-1.82,8.85.41,10.12,5.64a11,11,0,0,0-3.7,3.34,1.72,1.72,0,0,0-.29,2.05c.76,1.5,1.43,3,2.21,4.72a4.76,4.76,0,0,0,1.47-2.46A27.89,27.89,0,0,0,62,109.4c-1.62-3.1-3.48-6.09-5.31-9.07-1.94-3.14-4-6.19-6-9.34a47.09,47.09,0,0,1-4.44-9.21,26.91,26.91,0,0,1-1.55-6.62,3,3,0,0,0-1.6-2.49,19.07,19.07,0,0,0-6-2.48,24.68,24.68,0,0,0-5.07-.55c-2.73,0-5.28-.37-7.48-2.13a.78.78,0,0,0-1.32.47c-.21.82-.31,1.66-.47,2.49a.57.57,0,0,1-.9.33,24.52,24.52,0,0,1-2.53-2.67,15.91,15.91,0,0,1-3.16-9.55c0-1.32.11-2.65.11-4A4.75,4.75,0,0,0,16.09,53c-1.41-4-.44-7.27,3-9.69a11.26,11.26,0,0,1,5-2,29,29,0,0,1,9.61.47,1.19,1.19,0,0,1,1,1.19c.05.66.09,1.32.13,2,1.15,1.33,1.58,1.43,2.82.71.67-.34,1.33-.7,2-1a1.79,1.79,0,0,1,.82-.15c2.43.17,5.54,3.42,5.71,6,.05.79-.14,1.17-1,1.38A7.7,7.7,0,0,0,40.61,55a19.81,19.81,0,0,0-1.17,1.93c-.81.6-.57,1.46-.57,2.26v0l-1.74.06c-.65-.06-1.31-.14-2-.18-1.6-.1-3.2-.23-4.79-.27a1.52,1.52,0,0,0-1.63,1.54A10.71,10.71,0,0,0,29,62c.16,1.24-.36,2.15-1.84,3.19.34-1,.92-1.23,1-1.68s.24-1.06,0-1.3c-.52-.59-.75.17-1,.44Q26,63.91,24.9,65.2c-.62.75-.59,1.32.25,1.9a14.31,14.31,0,0,0,2.71,1.43c1.88.76,3.9.54,5.87.58,3.45.08,6.75.61,9.62,2.76.87.66.95.57,1.37-.74L46,71c.42-.59.88-1.16,1.25-1.78a11.92,11.92,0,0,1,3.12-3.86l.51-.62h0l1.1.47-.07.08-.45.48c-.64,1-1.25,2.1-1.92,3.13-2.18,3.33-3.21,6.88-1.65,10.73a53.1,53.1,0,0,0,3.63,7.7c3.62,6,7.45,11.85,11.2,17.75.77-.21.49-.77.49-1.16A10.2,10.2,0,0,1,68,94.81a4.07,4.07,0,0,0,1.42-1.71,7,7,0,0,1,3.94-3.5A5.17,5.17,0,0,1,79.57,91a25.72,25.72,0,0,1,2.27,3.57c.44.72,1.09.81,1.52.12s.59-1.19.92-1.76c.88-1.48,1.65-1.79,3.31-1.39a16.37,16.37,0,0,1,6,3.1c.38.29.69.66,1.08.93,2.72,1.9,3.07,4.57,2.5,7.56a16,16,0,0,1-3.27,7.16c-1.33,1.65-2.43,3.39-2.15,6-1.11-.67-1.94-1.26-2.84-1.68-2.9-1.36-5.82-2.7-8.76-4A25.45,25.45,0,0,1,72,105.5,11.67,11.67,0,0,1,68.42,98c0-.38-.08-.75-.14-1.28A4.38,4.38,0,0,0,65.9,99a10.83,10.83,0,0,0-1.2,6.33,28.75,28.75,0,0,0,1.57,8.35A27,27,0,0,1,65.93,134c-1,2.55-2.1,5.08-3.1,7.63-.83,2.12-1.67,4.24-2.35,6.4a22.35,22.35,0,0,0-1.17,6.7,11.92,11.92,0,0,1-.33,1.94C57.36,157.12,57.35,157.12,56.82,155.6Z"></path>
      <path class="cls-14" d="M56.8,23.68c-.93-.91-.89-1.19.32-2.23.47.65,1,.28,1.49.06a13.8,13.8,0,0,1,6.9-1.26c.93.09,1.85.26,3,.43a12.62,12.62,0,0,0-.43-1.34,19.67,19.67,0,0,1-1.68-9.13,11.52,11.52,0,0,1,4-8.49A6.66,6.66,0,0,1,74.79,0,3.35,3.35,0,0,1,78.2,2.8a2.11,2.11,0,0,1-1.59,2.36,2.08,2.08,0,0,1-2.49-.83,1.38,1.38,0,0,1,.95-2.16,1.14,1.14,0,0,1,.94.45c.32.55-.28.44-.55.6s-.47.41-.43.54a.83.83,0,0,0,.55.51c1.19.22,1.88-.5,1.58-1.6a2.37,2.37,0,0,0-2-1.74,5,5,0,0,0-3.71,1.12,9.61,9.61,0,0,0-3.88,6.7A17.46,17.46,0,0,0,69.1,19a9.2,9.2,0,0,0,.55.86c.74,0,.57-.48.65-.77a7.63,7.63,0,0,1,6.43-5.66c1.06-.21,2.21-.71,3.28.07a1.06,1.06,0,0,1-.55,1.14c-.2-.18-.38-.49-.59-.52-2.84-.38-6.71,2.06-7.5,5a5.2,5.2,0,0,0,.39,4.11c.23.41.53.78.77,1.19a6.89,6.89,0,0,1,.54,6.27,16.25,16.25,0,0,1-3,4.79c-1.62,1.85-3.28,3.67-4.91,5.52-.57.65-.57,1-.1,1.43.88.77,1.44.91,1.89.26a3.59,3.59,0,0,1,2.32-1.5,21.28,21.28,0,0,1,6.14-1c-.12.53-.24,1.07-.35,1.6-2.27.62-4.52,1.34-6.82,1.82-1.42.29-2.18,1.4-3.36,2,1.44,1.32,2.92,2.47,4.14,3.84a48.81,48.81,0,0,1,3.15,4.36l-1.36.62a2.66,2.66,0,0,0-.12-1.08,20.07,20.07,0,0,0-1.9-2.81,13.06,13.06,0,0,0-4.25-3.7,1.48,1.48,0,0,0-1.57,0,29.1,29.1,0,0,1-4.44,2.5,11.88,11.88,0,0,0-5.4,4.39c-.72,1-1.42,2-2.16,3s-.89,1.61,0,2.48A5.49,5.49,0,0,1,52.31,62a12.25,12.25,0,0,0,.51,1.39c3.4-2.1,6.88-3.46,10.81-3.27.75,0,.92-.44,1.07-1a2.68,2.68,0,0,1,.48-.67c.46,1.56-.55,2.26-1.69,2.88-.46,0-.92.12-1.39.16a16.82,16.82,0,0,0-9.51,3.71l-1.1-.48c0-.57,0-1.14,0-1.71a4.82,4.82,0,0,0-1.12-3.13c-.43-.59-.93-.57-1.29.1a23,23,0,0,0-2.56,10.93L45.28,71a10.89,10.89,0,0,1,.49-5.77c.07.61.14,1.21.23,2,.3-1.17.3-1.17-.23-2-.23-1.8.79-3.26,1.35-4.85.27-.76.86-1.43.81-2.27-2.12-.8-2.14-.8-3.39-.48a5.7,5.7,0,0,0-3,1.59,3.74,3.74,0,0,0-1,3.13c.24,2,1.88,2.8,3.7,1.88a2.61,2.61,0,0,1,.48-.28c.12,0,.38.09.38.16a.7.7,0,0,1-.12.51,3,3,0,0,1-3.42.61,2.82,2.82,0,0,1-1.94-2.59A23.7,23.7,0,0,1,40.13,59c.17,0,.41,0,.52-.13A7,7,0,0,1,48,57a1,1,0,0,0,1.18-.5c1.6-2.12,3.22-4.22,4.82-6.34a6.07,6.07,0,0,0,1.36-4A7.87,7.87,0,0,0,49,39.13a10.27,10.27,0,0,0-6.87,1.21,17.45,17.45,0,0,0-4.43,4c-.51.62-.35.85.75,1.11-1.24.71-1.67.59-2.81-.74a1.16,1.16,0,0,0,1.2-.5,25.12,25.12,0,0,1,2.88-3.12,11.12,11.12,0,0,1,7.45-3,9,9,0,0,1,9.34,7.76c.07.36.14.72.23,1.16a3.45,3.45,0,0,0,.82-.41c1.41-1.4,2.8-2.81,4.29-4.32-.68-.69-1.31-1.25-1.83-1.89a4.73,4.73,0,0,1-.5-1.24l0,0c.66.5,1.31,1,2,1.49s1.34.61,2-.1c2.58-2.88,5.24-5.7,7.63-8.72,2.77-3.51,1.32-6.62-1.22-8.68a8.43,8.43,0,0,0-6.59-1.9A11.62,11.62,0,0,0,56.8,23.68ZM59,48.07c1.28-.71,2.58-1.39,3.84-2.14a17.54,17.54,0,0,0,2-1.5c.51-.41.39-1-.23-1.33-.42-.23-.86-.46-1.3-.09a14.94,14.94,0,0,0-1.23,1.16A14.46,14.46,0,0,0,59,48.07Z"></path>
      <path class="cls-14" d="M74.88,53.37c-.48.66-1.15.59-1.83.47Z"></path>
      <path class="cls-14" d="M58.9,38c.62.15.64.61.59,1.11l0,0c-.62-.16-.57-.65-.56-1.13Z"></path>
      <path class="cls-14" d="M58.33,36.86c.54.2.58.66.57,1.14L59,38l-.58-1.13Z"></path>
      <path class="cls-14" d="M58.37,36.83c-.12-.11-.29-.2-.35-.34s.11-.24.17-.37a1.13,1.13,0,0,1,.08.24c0,.17,0,.34.06.5Z"></path>
      <path class="cls-14" d="M52.07,65.73c.15-.16.3-.31.44-.47C52.37,65.42,52.22,65.57,52.07,65.73Z"></path>
      <path class="cls-14" d="M64,61.35a.52.52,0,0,1,.52.08Z"></path>
      <path class="cls-14" d="M40.15,56.76c0,.76,0,1.53,0,2.29l-.6,0C39.56,58.21,39.33,57.34,40.15,56.76Z"></path>
      <path class="cls-14" d="M39.55,59c-.67.68-.67.68-1.74,0Z"></path>
      <path class="cls-14" d="M51,65.3l.51-.61Z"></path>
      <path class="cls-13" d="M45.77,65.22c.53.86.53.86.23,2-.09-.81-.16-1.41-.23-2Z"></path>
      <path class="cls-15" d="M75.3,40.71a2.07,2.07,0,0,0,2.16-1c.87-1.29,3.81-3.7,3.42-1.24s-1.16,2.25-1.16,2.25,3.57.78.82,2.56a2.19,2.19,0,0,1-2.36,1.86s1.11-3.35-3.12-3.4C75.06,41.77,74.12,40.83,75.3,40.71Z"></path>
      <path class="cls-6" d="M53.44,165.69a1.58,1.58,0,0,0-1.51-.56c-.84.26-1.17.93-1,1.16a3,3,0,0,0,.31.32c.21.21.65-.38.67-.38S53.44,165.69,53.44,165.69Z"></path>
      <path class="cls-7" d="M53.87,166.7s-.26-1.14-.69-1.16-.91-.07-.91-.07l-.12.2s.42.75.59.81l.57.17A4.58,4.58,0,0,0,53.87,166.7Z"></path>
      <path class="cls-8" d="M53.84,166.84c0-.1.11-.36-.17-.44a4.41,4.41,0,0,0-.55-.12s-.69.52-.82.6-.23.07.17.19.39.22.75.18A1.08,1.08,0,0,0,53.84,166.84Z"></path>
      <path class="cls-9" d="M53.12,166.28a4.7,4.7,0,0,0-.5.49c-.2.24-.24.32-.48.19s-.87-.21-1-.45-.16-.21,0-.5a1.29,1.29,0,0,1,.81-.49.71.71,0,0,1,.8.17A1.94,1.94,0,0,1,53.12,166.28Z"></path>
      <path class="cls-6" d="M50,146.31a2.31,2.31,0,0,0-2.34-.33c-1.12.63-1.39,1.68-1.11,2a4.55,4.55,0,0,0,.54.36c.36.23.82-.74.85-.75Z"></path>
      <path class="cls-7" d="M50.93,147.63s-.72-1.56-1.34-1.45a13.37,13.37,0,0,1-1.34.17l-.11.33s.84.95,1.11,1,.75.05.87.07A6.6,6.6,0,0,0,50.93,147.63Z"></path>
      <path class="cls-8" d="M50.93,147.84c0-.15,0-.55-.37-.58a6.74,6.74,0,0,0-.84,0s-.82,1-1,1.11-.3.18.31.22.62.2,1.12,0A1.52,1.52,0,0,0,50.93,147.84Z"></path>
      <path class="cls-9" d="M49.72,147.26a8.41,8.41,0,0,0-.57.86c-.21.4-.24.52-.62.42s-1.31,0-1.61-.33-.3-.26-.1-.74a1.85,1.85,0,0,1,1-.95,1,1,0,0,1,1.2,0A2.76,2.76,0,0,1,49.72,147.26Z"></path>
      <path class="cls-6" d="M45.37,153.42s-4.83-2.41-8.2.53-3.54,6.72-2.38,7.54a16.14,16.14,0,0,0,2.11.84c1.39.51,2.26-3.11,2.34-3.16S45.37,153.42,45.37,153.42Z"></path>
      <path class="cls-7" d="M49.49,157.23s-3.58-4.79-5.62-3.95-4.42,1.52-4.42,1.52L39.31,156s3.52,2.62,4.45,2.54,2.61-.38,3-.39A20.37,20.37,0,0,0,49.49,157.23Z"></path>
      <path class="cls-8" d="M49.63,158c-.05-.53-.25-1.9-1.69-1.71a19.91,19.91,0,0,0-2.84.6s-2.11,3.84-2.58,4.49-.9.8,1.19.53,2.27.22,3.86-.74A5.39,5.39,0,0,0,49.63,158Z"></path>
      <path class="cls-9" d="M45.1,156.85a23.82,23.82,0,0,0-1.32,3.33c-.44,1.52-.46,1.94-1.84,1.87s-4.48.82-5.72,0-1.18-.67-.83-2.43,1.15-2.59,2.73-4a3.59,3.59,0,0,1,4.09-.86A9.31,9.31,0,0,1,45.1,156.85Z"></path>
      <path class="cls-6" d="M62.05,154.44s-4-2.39-7.15,0-3.47,5.62-2.52,6.39a12,12,0,0,0,1.78.86c1.18.54,2.15-2.56,2.22-2.6S62.05,154.44,62.05,154.44Z"></path>
      <path class="cls-7" d="M65.4,158s-2.82-4.38-4.64-3.77-3.93,1.05-3.93,1.05l-.2,1s2.91,2.48,3.72,2.47,2.29-.18,2.64-.16A18.37,18.37,0,0,0,65.4,158Z"></path>
      <path class="cls-8" d="M65.47,158.63c0-.47-.09-1.67-1.36-1.59a19.16,19.16,0,0,0-2.5.35s-2.06,3.21-2.51,3.75-.83.64,1,.53,2,.33,3.4-.41A4.74,4.74,0,0,0,65.47,158.63Z"></path>
      <path class="cls-9" d="M61.61,157.39a21.16,21.16,0,0,0-1.35,2.82c-.47,1.29-.51,1.65-1.7,1.5s-3.94.44-5-.31-1-.66-.58-2.16,1.16-2.18,2.62-3.27a3.11,3.11,0,0,1,3.59-.5A8.08,8.08,0,0,1,61.61,157.39Z"></path>
      <path class="cls-6" d="M72.77,150.16s-4-3.08-7.62-1-4.45,5.51-3.54,6.47a15.68,15.68,0,0,0,1.79,1.16c1.18.72,2.63-2.45,2.71-2.48S72.77,150.16,72.77,150.16Z"></path>
      <path class="cls-7" d="M75.85,154.39s-2.41-5-4.43-4.64a43.71,43.71,0,0,1-4.33.6l-.35,1.09s2.76,3,3.63,3.13,2.46.12,2.84.19A19.45,19.45,0,0,0,75.85,154.39Z"></path>
      <path class="cls-8" d="M75.85,155.09c.05-.5.12-1.79-1.24-1.88a19.2,19.2,0,0,0-2.71,0s-2.63,3.14-3.18,3.65-1,.58,1,.71,2,.61,3.67,0A5.1,5.1,0,0,0,75.85,155.09Z"></path>
      <path class="cls-9" d="M71.9,153.25a22.4,22.4,0,0,0-1.81,2.82c-.68,1.31-.77,1.69-2,1.38s-4.26-.06-5.25-1-1-.82-.33-2.38,1.53-2.16,3.23-3.13a3.35,3.35,0,0,1,3.9-.05A8.73,8.73,0,0,1,71.9,153.25Z"></path>
      <path class="cls-6" d="M75.86,163.06A2.41,2.41,0,0,0,78.07,162c.6-1.21.21-2.27-.2-2.37a5.5,5.5,0,0,0-.69,0c-.44,0-.26,1.13-.28,1.15S75.86,163.06,75.86,163.06Z"></path>
      <path class="cls-7" d="M74.28,162.48s1.55.92,2,.45a13.4,13.4,0,0,1,1.06-.93l-.11-.36a4.93,4.93,0,0,0-1.53-.19c-.25.13-.68.41-.79.46A6.77,6.77,0,0,0,74.28,162.48Z"></path>
      <path class="cls-8" d="M74.16,162.3c.07.14.28.5.66.28a6.12,6.12,0,0,0,.72-.5s.14-1.31.2-1.54.16-.33-.4,0-.65.2-1,.65A1.62,1.62,0,0,0,74.16,162.3Z"></path>
      <path class="cls-9" d="M75.54,162.08a6.77,6.77,0,0,0,0-1.08c0-.47-.1-.59.3-.73s1.15-.74,1.58-.67.4.05.51.58a1.94,1.94,0,0,1-.3,1.42,1.08,1.08,0,0,1-1,.71A2.73,2.73,0,0,1,75.54,162.08Z"></path>
      <path class="cls-6" d="M37.87,163.92s2.05.28,2.91-1.2.46-2.87-.06-3a5.38,5.38,0,0,0-.87,0c-.57,0-.44,1.4-.46,1.43S37.87,163.92,37.87,163.92Z"></path>
      <path class="cls-7" d="M35.9,163s1.89,1.3,2.53.75a17.13,17.13,0,0,1,1.42-1.09l-.1-.46a6.37,6.37,0,0,0-1.93-.38c-.33.14-.9.46-1,.51A7.67,7.67,0,0,0,35.9,163Z"></path>
      <path class="cls-8" d="M35.76,162.79c.09.19.33.67.83.42a8.19,8.19,0,0,0,.95-.57s.3-1.65.39-1.95.23-.4-.5,0-.85.2-1.31.74A2.07,2.07,0,0,0,35.76,162.79Z"></path>
      <path class="cls-9" d="M37.54,162.64a10.07,10.07,0,0,0,.08-1.37c0-.61-.08-.76.43-.9s1.53-.85,2.08-.72.51.1.6.78a2.46,2.46,0,0,1-.51,1.78,1.38,1.38,0,0,1-1.38.81A3.51,3.51,0,0,1,37.54,162.64Z"></path>
      <path class="cls-6" d="M51.23,156.29a1.78,1.78,0,0,0,1.8.32c.88-.46,1.12-1.27.91-1.51-.06-.06-.28-.2-.41-.29-.28-.18-.66.56-.68.56Z"></path>
      <path class="cls-7" d="M50.54,155.26s.52,1.22,1,1.15a9.42,9.42,0,0,1,1-.1l.09-.26s-.62-.75-.83-.78-.58-.05-.67-.07A3.45,3.45,0,0,0,50.54,155.26Z"></path>
      <path class="cls-8" d="M50.54,155.09c0,.12,0,.43.28.46a6,6,0,0,0,.65,0s.65-.72.79-.84.24-.13-.23-.18-.48-.16-.88,0A1.24,1.24,0,0,0,50.54,155.09Z"></path>
      <path class="cls-9" d="M51.47,155.57a6,6,0,0,0,.45-.65c.18-.31.2-.4.5-.31s1,0,1.24.29.22.21.05.57a1.39,1.39,0,0,1-.8.71.79.79,0,0,1-.93,0A2,2,0,0,1,51.47,155.57Z"></path>
      <path class="cls-6" d="M67.47,163.16s4.54,1.1,6.81-2,1.69-6.34.56-6.8A12.94,12.94,0,0,0,72.9,154c-1.27-.16-1.31,3.06-1.36,3.12S67.47,163.16,67.47,163.16Z"></path>
      <path class="cls-7" d="M63.27,160.74s3.94,3.35,5.5,2.25,3.43-2.13,3.43-2.13l-.12-1.05s-3.47-1.53-4.24-1.28-2.12.82-2.47.9A19.53,19.53,0,0,0,63.27,160.74Z"></path>
      <path class="cls-8" d="M63,160.15c.14.44.57,1.56,1.75,1.12A16.89,16.89,0,0,0,67,160.21s1-3.63,1.31-4.28.61-.85-1.11-.21-1.95.25-3.1,1.36A4.67,4.67,0,0,0,63,160.15Z"></path>
      <path class="cls-9" d="M67,160.21a20.53,20.53,0,0,0,.47-3.06c.08-1.36,0-1.72,1.19-1.92s3.62-1.55,4.82-1.13,1.12.34,1.17,1.89-.47,2.4-1.55,3.86a3.09,3.09,0,0,1-3.28,1.51A7.9,7.9,0,0,1,67,160.21Z"></path>
      <path class="cls-6" d="M46.57,160.54s2.72,1.53,4.75-.08,2.24-3.77,1.59-4.28a9.3,9.3,0,0,0-1.19-.55c-.79-.33-1.39,1.74-1.44,1.77S46.57,160.54,46.57,160.54Z"></path>
      <path class="cls-7" d="M44.3,158.22s1.93,2.87,3.13,2.45,2.6-.76,2.6-.76l.12-.7s-2-1.61-2.51-1.59-1.51.15-1.75.14A11.86,11.86,0,0,0,44.3,158.22Z"></path>
      <path class="cls-8" d="M44.24,157.8c0,.3.09,1.1.93,1a11,11,0,0,0,1.66-.27s1.32-2.15,1.61-2.52.55-.43-.67-.34-1.3-.19-2.25.32A3.18,3.18,0,0,0,44.24,157.8Z"></path>
      <path class="cls-9" d="M46.83,158.56a14.08,14.08,0,0,0,.85-1.88c.3-.87.32-1.11,1.12-1s2.61-.34,3.3.15.66.42.42,1.43a3.71,3.71,0,0,1-1.7,2.2,2.05,2.05,0,0,1-2.38.38A5.18,5.18,0,0,1,46.83,158.56Z"></path>
    </g>
  </g>
</svg>
