<?xml version="1.0" encoding="UTF-8"?>
<svg xmlns="http://www.w3.org/2000/svg" viewBox="0 0 124.35 232.01">
  <defs>
    <style>.cls-1{fill:#a29274;}.cls-2{fill:#e3e0c9;}.cls-3{fill:#fcedce;}.cls-4{fill:#bda885;}.cls-5{fill:#d0c5a6;}.cls-6{fill:#8f8267;}.cls-7{fill:#ab967a;opacity:0.25;}.cls-8{fill:#9b8d71;}.cls-9{fill:#7c705b;}.cls-10{fill:#e7e6e3;}.cls-11{fill:#817870;}.cls-12{fill:#769b57;}.cls-13{fill:#79a05b;}.cls-14,.cls-15{fill:none;stroke:#79a05b;stroke-miterlimit:10;}.cls-14{stroke-width:0.51px;}.cls-15{stroke-width:0.39px;}.cls-16{fill:#eaca57;}</style>
  </defs>
  <g id="Слой_2" data-name="Слой 2">
    <g id="Слой_1-2" data-name="Слой 1">
      <polygon class="cls-1" points="65.6 154.6 124.35 129.59 115.54 197.24 65.6 232.01 65.6 154.6"></polygon>
      <polygon class="cls-2" points="65.6 112.68 124.35 129.59 65.6 154.6 6.69 129.59 65.6 112.68"></polygon>
      <polygon class="cls-3" points="65.6 112.68 6.69 129.59 7.72 130.03 123.8 129.43 65.6 112.68"></polygon>
      <polygon class="cls-4" points="15.5 197.24 6.69 129.59 65.6 154.6 65.6 232.01 15.5 197.24"></polygon>
      <path class="cls-5" d="M43.71,130.42a33.82,33.82,0,0,1,2.78-3,26.5,26.5,0,0,1,3.24-2.52,32,32,0,0,1,7.38-3.57c1.3-.43,2.62-.78,4-1.08a39.38,39.38,0,0,1,4-.61,38.85,38.85,0,0,1,8.14,0c-2.71.17-5.38.46-8,.89a49.54,49.54,0,0,0-7.75,1.9,38.81,38.81,0,0,0-13.78,7.92Z"></path>
      <polygon class="cls-6" points="65.6 154.6 124.35 129.59 115.54 197.24 65.6 232.01 65.6 154.6"></polygon>
      <polygon class="cls-7" points="15.5 197.24 6.69 129.59 65.6 154.6 65.6 232.01 15.5 197.24"></polygon>
      <polygon class="cls-8" points="65.6 232.01 15.5 197.24 65.83 178.21 115.54 197.24 65.6 232.01"></polygon>
      <path class="cls-9" d="M26.14,167.49a10.5,10.5,0,0,1-.89-2.32,20.47,20.47,0,0,1-.55-2.44,18.1,18.1,0,0,1-.08-5A15.78,15.78,0,0,1,26,152.8,16.16,16.16,0,0,1,29,148.61a21.74,21.74,0,0,1,8.64-5.16,37,37,0,0,1,9.81-1.74,56.16,56.16,0,0,0-9.49,2.62,23.41,23.41,0,0,0-8.1,5.12,15.75,15.75,0,0,0-4.29,8.38,20,20,0,0,0-.25,4.83A18.49,18.49,0,0,0,26.14,167.49Z"></path>
      <path class="cls-9" d="M80.89,166.56c.16.25.49.34.75.47s.55.24.83.35c.57.22,1.14.41,1.72.59,1.15.38,2.31.72,3.47,1,2.33.63,4.67,1.2,7,1.67,4.73,1,9.51,1.59,14.36,2.16a53.06,53.06,0,0,1-14.6-1,54.14,54.14,0,0,1-7.08-2c-1.16-.41-2.29-.88-3.41-1.39-.55-.27-1.1-.55-1.63-.85A4,4,0,0,1,80.89,166.56Z"></path>
      <path class="cls-9" d="M49.34,163a43.43,43.43,0,0,1-3.9,13,36.2,36.2,0,0,1-3.54,5.84A22.37,22.37,0,0,1,37,186.59a39,39,0,0,0,4.12-5.27,62.27,62.27,0,0,0,3.23-5.83c1-2,1.83-4.05,2.65-6.13S48.61,165.18,49.34,163Z"></path>
      <path class="cls-9" d="M67.56,216.87c2.39-1.17,4.88-2.1,7.29-3.15s4.82-2.13,7.15-3.34a45.72,45.72,0,0,0,6.63-4.14,18.77,18.77,0,0,0,5.24-5.76A15.27,15.27,0,0,1,89.23,207a34.3,34.3,0,0,1-6.67,4.48,58.88,58.88,0,0,1-7.37,3.14c-1.25.45-2.52.84-3.8,1.21Z"></path>
      <path class="cls-9" d="M40,209.45A16.32,16.32,0,0,1,36.19,207a9.15,9.15,0,0,1-2.75-3.71,5.3,5.3,0,0,1-.34-2.41,6.06,6.06,0,0,1,.73-2.32A11.08,11.08,0,0,1,37,195.15a31.13,31.13,0,0,1,8.12-4,63.25,63.25,0,0,1,8.7-2.27c-2.81,1-5.62,2-8.36,3.15a36.85,36.85,0,0,0-7.75,4.13,10.19,10.19,0,0,0-2.91,3,4.78,4.78,0,0,0-.5,3.89,9.23,9.23,0,0,0,2.28,3.58A19.56,19.56,0,0,0,40,209.45Z"></path>
      <path class="cls-9" d="M93.87,165.2l4.38-6c1.44-2,2.84-4,4.18-6.11a65.39,65.39,0,0,0,3.69-6.37,20.78,20.78,0,0,0,2.31-7,15.7,15.7,0,0,1-1.46,7.34,40.2,40.2,0,0,1-3.53,6.64A62.82,62.82,0,0,1,93.87,165.2Z"></path>
      <path class="cls-10" d="M69.38,141.71a14.12,14.12,0,0,0-.79,6.68,51.7,51.7,0,0,0,1.35,7,39,39,0,0,1,1.19,7.3,25,25,0,0,1-1,7.35c-.61,2.36-1.33,4.65-1.72,7a27.2,27.2,0,0,0-.35,7.09A19.19,19.19,0,0,0,74,196.77c-4-2.85-6.28-7.71-6.8-12.57a28.25,28.25,0,0,1,.16-7.35c.33-2.44,1-4.8,1.54-7.13a23.51,23.51,0,0,0,.78-7,36.52,36.52,0,0,0-1.34-7,47.75,47.75,0,0,1-1.53-7.21,15.94,15.94,0,0,1,.79-7.59,1,1,0,0,1,1.27-.55,1,1,0,0,1,.55,1.26Z"></path>
      <path class="cls-10" d="M69,141.11a15.16,15.16,0,0,0,4,5.51,29.07,29.07,0,0,0,6,3.64,62.06,62.06,0,0,1,6.28,3.35A11.82,11.82,0,0,1,87.89,156a6,6,0,0,1,1.32,3.25,5.82,5.82,0,0,0-1.44-3.16,11.39,11.39,0,0,0-2.7-2.23,61.19,61.19,0,0,0-6.37-3.06,29.1,29.1,0,0,1-6.26-3.51,16,16,0,0,1-4.49-5.7.57.57,0,0,1,1-.49Z"></path>
      <path class="cls-10" d="M79.21,150.68a10,10,0,0,0,1.43,7,10.27,10.27,0,0,1-1.86-7.07Z"></path>
      <path class="cls-10" d="M74.51,148.07a6.22,6.22,0,0,1,2.59-1,7.07,7.07,0,0,1,2.75,0,8.81,8.81,0,0,1,2.49,1.09c.76.46,1.48,1,2.2,1.52a26.69,26.69,0,0,0-2.3-1.36,8.63,8.63,0,0,0-2.46-.88,6.9,6.9,0,0,0-2.56.17,5.77,5.77,0,0,0-2.28,1.06Z"></path>
      <path class="cls-10" d="M69.52,157.28a2.34,2.34,0,0,1,2-.5,8.62,8.62,0,0,1,1.65.48,23.67,23.67,0,0,1,3,1.32,11.67,11.67,0,0,1,4.79,4.36,11.38,11.38,0,0,0-5-3.84,22.81,22.81,0,0,0-3-1,7.24,7.24,0,0,0-1.5-.3,1.26,1.26,0,0,0-1.06.32Z"></path>
      <path class="cls-10" d="M70.83,162.78A26.05,26.05,0,0,0,75,166.92a30.21,30.21,0,0,0,5,3.25c1.76.92,3.68,1.61,5.39,2.72A7.53,7.53,0,0,1,89,177.6a7.36,7.36,0,0,0-3.72-4.46c-1.72-1-3.64-1.59-5.49-2.44a31.75,31.75,0,0,1-5.24-3.09,26.79,26.79,0,0,1-4.55-4.1Z"></path>
      <path class="cls-10" d="M80.84,170.71a13.77,13.77,0,0,1,1.55,3.67,9.29,9.29,0,0,1,.3,2,4.43,4.43,0,0,1-.32,1.94,4.24,4.24,0,0,0,.21-1.93,8.91,8.91,0,0,0-.41-1.91A13.41,13.41,0,0,0,80.46,171Z"></path>
      <path class="cls-10" d="M79,169.72a19,19,0,0,1,10.33,2.87A18.66,18.66,0,0,0,79,170.19Z"></path>
      <path class="cls-10" d="M69.31,171.83c1.15,1.17,2.09,2.4,3.18,3.44a22,22,0,0,0,3.87,2.43c1.37.71,2.83,1.28,4.21,2a9.27,9.27,0,0,1,3.5,3,8.84,8.84,0,0,0-3.59-2.87c-1.4-.66-2.88-1.15-4.31-1.79A22.88,22.88,0,0,1,72,175.82c-1.2-1.06-2.23-2.27-3.38-3.21Z"></path>
      <path class="cls-10" d="M67.82,180.82a34.93,34.93,0,0,0,6.4,4.4c1.14.62,2.36,1.13,3.5,1.81a6,6,0,0,1,2.68,2.84,5.82,5.82,0,0,0-2.82-2.59c-1.16-.58-2.4-1-3.61-1.55a35.85,35.85,0,0,1-6.87-4Z"></path>
      <path class="cls-10" d="M75.82,186.31a6.55,6.55,0,0,0,.47,5.83,6.91,6.91,0,0,1-1.24-2.87,6.54,6.54,0,0,1,.19-3.19Z"></path>
      <path class="cls-10" d="M71.66,183.81a13,13,0,0,1,3.47-.3,5.52,5.52,0,0,1,3.21,1.19,5.37,5.37,0,0,0-3.22-.89,12.52,12.52,0,0,0-3.31.59Z"></path>
      <path class="cls-10" d="M70.08,191.88a6,6,0,0,1,1.86.48,14.48,14.48,0,0,1,1.66.86,13.37,13.37,0,0,1,1.51,1.08,6.46,6.46,0,0,1,1.26,1.35A6.63,6.63,0,0,0,75,194.39a14,14,0,0,0-1.56-1,13,13,0,0,0-1.67-.73,5.59,5.59,0,0,0-1.73-.34Z"></path>
      <path class="cls-10" d="M68.94,189.72a8.08,8.08,0,0,1-2.42,1.56,5.44,5.44,0,0,0-2.21,1.66,5.5,5.5,0,0,1,2.1-1.87,8,8,0,0,0,2.17-1.66Z"></path>
      <path class="cls-10" d="M68.76,174.51a70,70,0,0,0-8,5.09,15.11,15.11,0,0,0-3.2,3.43,9.93,9.93,0,0,0-1.66,4.39,10.1,10.1,0,0,1,1.41-4.54,15.91,15.91,0,0,1,3.06-3.73,71.22,71.22,0,0,1,7.78-5.61Z"></path>
      <path class="cls-10" d="M63.4,177.43a8.8,8.8,0,0,1,.51,4.75,16,16,0,0,1-1.45,4.5,16.06,16.06,0,0,0,1.15-4.53,8.3,8.3,0,0,0-.76-4.47Z"></path>
      <path class="cls-10" d="M59.75,180.29a12.33,12.33,0,0,0-8.38,1.52,12.53,12.53,0,0,1,8.45-2Z"></path>
      <path class="cls-10" d="M69.35,159.53a4.58,4.58,0,0,0-2.52,1.08,17.24,17.24,0,0,0-2.22,2.15c-1.41,1.56-2.7,3.25-4,4.93a60.3,60.3,0,0,1-4.11,4.93,21.15,21.15,0,0,1-5,3.95,21,21,0,0,0,4.77-4.19,63.21,63.21,0,0,0,3.8-5.11c1.21-1.76,2.41-3.53,3.77-5.22A20.21,20.21,0,0,1,66,159.63a6,6,0,0,1,3.2-1.54Z"></path>
      <path class="cls-10" d="M59.26,169.25a18.8,18.8,0,0,1-3.08,1,7.74,7.74,0,0,1-3.21.18,7.67,7.67,0,0,0,3.15-.4,17.63,17.63,0,0,0,2.94-1.21Z"></path>
      <path class="cls-10" d="M63.49,163.81a7.51,7.51,0,0,0,0,2.45,9.39,9.39,0,0,1-.12,2.7,11.7,11.7,0,0,1-2,4.88,14.18,14.18,0,0,0,1.43-5,11.25,11.25,0,0,0,0-2.53,5.54,5.54,0,0,1,.11-2.76Z"></path>
      <path class="cls-10" d="M68.6,141.57a25.58,25.58,0,0,0-6,4.9c-1.78,1.9-3.33,4-5,6.1a25.47,25.47,0,0,1-5.61,5.6,20.72,20.72,0,0,1-7.21,3.18,20.4,20.4,0,0,0,7-3.42,24.86,24.86,0,0,0,5.32-5.7c1.53-2.13,3-4.32,4.77-6.34a26.56,26.56,0,0,1,6-5.3.56.56,0,0,1,.78.18.57.57,0,0,1-.18.79Z"></path>
      <path class="cls-10" d="M52,158.11a10,10,0,0,1-1.43,8.42,10,10,0,0,0,1.22-8.35Z"></path>
      <path class="cls-10" d="M54.65,156.06a8,8,0,0,1-4,.63l-2-.12c-.66,0-1.37-.13-1.88.35a1.17,1.17,0,0,1,.86-.56,4.4,4.4,0,0,1,1-.06l2,.08a8.48,8.48,0,0,0,3.88-.6Z"></path>
      <path class="cls-10" d="M59.65,150.07a17.37,17.37,0,0,1-4.87,12.72A17,17,0,0,0,59,150.11Z"></path>
      <path class="cls-10" d="M63,145.68A12.5,12.5,0,0,0,52.75,149a12.8,12.8,0,0,1,10.35-3.9Z"></path>
      <polygon class="cls-3" points="7.72 130.03 65.6 154.6 124.35 129.59 123.8 129.43 7.72 130.03"></polygon>
      <ellipse class="cls-1" cx="67.46" cy="130.77" rx="13.57" ry="5.31"></ellipse>
      <ellipse class="cls-11" cx="67.81" cy="132.56" rx="11.18" ry="4.37"></ellipse>
      <path class="cls-12" d="M61,71.84a29.69,29.69,0,0,1-2.74-3c-.59-.71-6.87-4.09-8.13-5.63s-2.92-3.11-.95-5.44c0,0,0-3.27-1.24-4.3s-2-3-1.47-3.85.84-1.87,1.35-1.91.5-1.19.79-1.33,0-2.76,1-1.86,1.67,3.65,1.67,3.65,2.85-1.48,2.5,3.84c0,0-.22,1,1.45.84s4.77.59,3.07,5.9c0,0,1.94,6.78.67,6.46s3.17,4.23,2.59,5.44S61.64,72,61,71.84Z"></path>
      <path class="cls-12" d="M66.19,26.21c-.21-.6-4.12-8.46-7.28-9.38,0,0-1.67-.11-.67-1.52s-5.87-3.68-6-4S50.94,9.92,51.91,9s-5.85-3-5.85-3-.85-.77-.28-1.5-6.59-2.57-6.59-2.57S38.06.49,41.42,1.23s6.48,1.4,6.48,1.4S47.21-.5,49,.07c0,0,2.72,4.24,4.16,5,0,0,1.27-2.36,2.74-1.23l3,5.23a1.93,1.93,0,0,1,3.33.29,12.66,12.66,0,0,1,1.39,6.08,3.41,3.41,0,0,0,.64-1.85s.11-.61,1.63-.19c0,0-.58-8.66,2.79-5.22,0,0,2.94-6.23,4.24-5.57,0,0,1,.07-.11,1.73a41.31,41.31,0,0,0-5,20.07s.42.55-.38,1.91a4.58,4.58,0,0,0,0,1.48c.15.53.25-.26,1.58-.3a2.11,2.11,0,0,0-.09-1.72c-.44-1.15-.93-4.66,2.3-4.22,0,0,.33-4.87,1.14-5.08s1.13,5.06,1.13,5.06,4.06-1,.5,4.11c0,0-.48.1.14,1.08s-.84,3.55-3.92,5.36l-1.22.86s-1,3.24-1.47,4.23c-1.21-.46-2.62-3.43-4.35-3.29s-3.57,1.43-3.74.22a2.38,2.38,0,0,1,.9-2.56c.66-.3-2-.56-3.73-.77s-2.21-1.52-1.1-2.05-6.39-2-7.55-1.92-2.13-.88.82-.81,3,.77,3,.07.48-3.35,5,.38c0,0,1,1,1.07-.57s2.88-1.31,4.23.89,1.95,2.32,2.14,1.43-.45-1.7-.13-2,1.08.63,1.7,1.53,1,.49.68-.51Z"></path>
      <path class="cls-12" d="M67.42,48.61c-.42.88-4.94-3-6.07-2.82s-2.22-.15-2.23-1.26c0,0-5.7.47-6.37.17s-2-2.11.23-3.42c0,0-5.62-1.93-7.15-4.69s2.37.5,4,.61,1.85.26,2.36.23.22-2.31,2-1.8a5.38,5.38,0,0,0,1.46,1.19,37,37,0,0,1,3.81,1.74,3.05,3.05,0,0,0,1.45.55c.19,0-.34-3.5,2.41-1.45s3.95,3.49,4.05,4.88S68.45,46.47,67.42,48.61Z"></path>
      <path class="cls-12" d="M70.21,39.1c.44-.75.34-3.07,3.44-5.11s2.37-6.54,5.83-3.41c0,0,3.18-2.29,3.34-3.63s1.77-.53,1.28,1.05,1.29,2.79-2.81,7.15c0,0-.41.37.39,1s0,2-2.23,2.45-11,3.22-12.89,8.82Z"></path>
      <path class="cls-12" d="M60.87,89.52a10.34,10.34,0,0,0-9-3c-5.59.9-2.93,3-2.93,3s-8.05,3.34-3.24,12.78c0,0,1.22,1.35,1.61-.51s-.07-2.25.7-3.92S50,93.69,50.53,94s1.28,2.7,2.44.32S57.21,88.49,60.87,89.52Z"></path>
      <path class="cls-12" d="M59.18,88.43C59.22,91.86,61.83,81,65,83c0,0-.52-4.46-4.46-4a3.25,3.25,0,0,0-2.91,2.79C57.45,83.12,59.14,84.94,59.18,88.43Z"></path>
      <path class="cls-12" d="M59.71,117.38S44.35,110.19,45,128.69c0,0,1.22,2.31,3.17-4.89,0,0-.6-.34,1.71-.51S55.19,115.67,59.71,117.38Z"></path>
      <path class="cls-12" d="M71,122.34s5.38-5.82,7.65-1a12.52,12.52,0,0,0,3.64,3c2.07,1,8.32,4.45,1.38,4.37s-6.85-5.23-8-5.66S73.48,121.74,71,122.34Z"></path>
      <path class="cls-13" d="M66.56,18.39,67,26.57c.08,1.37.16,2.73.28,4.09l.06.5,0,.12v0h0c.07-.09-.3,0-.24,0v-.2c0-.33,0-.67,0-1V28.07l0-2.05V24.69c-.06-.17.8,0,.44,0v.2l0,.52.15,4.09L68,37.7c.38,10.91.67,21.85.49,32.79l-.31,16.38c-.16,5.48-.18,10.89,0,16.34.24,10.9.88,21.82.68,32.83l-3.08-.11c.49-10.83.14-21.75.18-32.7,0-5.46.18-11,.45-16.41l.67-16.37c.42-10.9.37-21.81.24-32.73l-.1-8.2-.07-4.09v-.69c-.36-.06.49.12.43,0V25l0,1v2.05l0,2.05c0,.34,0,.68,0,1a1.6,1.6,0,0,1,0,.31c0,.08-.35.11-.28,0l0-.06,0-.07v-.14l0-.51c-.09-1.37-.14-2.73-.19-4.1Z"></path>
      <path class="cls-12" d="M77.43,105.24a1,1,0,0,0,.4-.47c.65-1.87,2.81-9.93,4.89-11.7s2.6-3.88,3.47-.34c.12.5-.18.91-.41,1.37,0,0,.44-.26,2.13-1.38,3.63-2.39,9-6.33,8.17-3.25s-2,2.83.09,2.83,5.87-.86,8.2-.52,4.81,1.37-1.1,2.06c-4.83.56-2.79,1-1.89,1.07a1.28,1.28,0,0,1,.71.32c.62.53,1.39,1.63-2.84,1.51-5.57-.16-4-.08-3.77.44s1.8,3.85-2,3.16a13.49,13.49,0,0,0-6.43.18c-.34.08,5.41,2.31.91,2.91s-6.47,2.22-9,2.14C77.36,105.51,77.28,105.35,77.43,105.24Z"></path>
      <path class="cls-12" d="M74,109s15.94-3,5.62,12.42a33.73,33.73,0,0,1-.51-3.64c-.09-1.46-1.86,1.2-.63-3.77,0,0-2.54.13-1.26-3.9A7.15,7.15,0,0,0,74,109Z"></path>
      <path class="cls-12" d="M75.26,109s2.66-5.44,2.83-8.69a70.41,70.41,0,0,0-.68-10.19C77.23,89,75.26,92.22,75.26,96s1.46,4.16,0,3.73-2.31-1-3,1S75.26,109,75.26,109Z"></path>
      <path class="cls-13" d="M78.56,103.59c-4.72,5-9.69,10.45-11.07,17.43-.2,1,1.29,1.38,1.48.41,1.33-6.73,6.13-11.92,10.68-16.75.68-.72-.41-1.82-1.09-1.09Z"></path>
      <path class="cls-14" d="M55.59,117c6.33-.51,8,4.38,11,4.43"></path>
      <path class="cls-13" d="M59.13,89a19.47,19.47,0,0,1,4.31,6.36c.83,1.94,1.44,4,2.42,5.86.46.88,1.79.1,1.33-.78-1-1.93-1.62-4-2.5-6a20.28,20.28,0,0,0-4.47-6.51c-.72-.69-1.81.4-1.09,1.09Z"></path>
      <path class="cls-13" d="M67.88,124.53l5.34-2.68a.78.78,0,0,0,.28-1,.79.79,0,0,0-1.06-.28L67.1,123.2a.78.78,0,0,0-.28,1,.8.8,0,0,0,1.06.28Z"></path>
      <path class="cls-13" d="M92.61,40.67c-2.63,2.48-5.25,5-7.76,7.59a72.84,72.84,0,0,0-7,8.24,46.39,46.39,0,0,0-5.16,9.39,77.5,77.5,0,0,0-3.29,10.22l-1.75-.48a80.85,80.85,0,0,1,3.79-10.29A47.85,47.85,0,0,1,77.15,56a72.93,72.93,0,0,1,7.38-8C87.16,45.43,89.88,43,92.61,40.67Z"></path>
      <path class="cls-12" d="M85.47,47.32c-.45.39,8-10.69,9.65-12.81s4.43-3.53,5.59,0c0,0-1.09,1.22,2.82-.25s8.16-5.27,9-1.54c0,0,2.82-2.06,2.69.64s1.61,1.86,1.87,1.86,3.53,1,0,2.5c0,0-2.12.52-3.15-.06s-.64,1.22-.13,1.48,2.18,3.47-1.35,2.18a5.46,5.46,0,0,0-4.82-1.92c-3.27.25-4.65,0-3.25,1.27s3.58,4.25-.28,3.28S93.3,40.45,85.47,47.32Z"></path>
      <path class="cls-12" d="M92.55,52.82s4-2.25,9.25.9c0,0,3.6,2,.45,3,0,0,7.51,6.55,3.53,6.42,0,0,1.54,5.07.26,5.78,0,0-1.67-4.24-2.51-4.95A2.2,2.2,0,0,1,101,62.26c-.7-2.19-1-3.21-1.47-3.15s-.07,1-.39,1.38-.83,1.19-2.5-.93-3.41-4.11-4-5.14A1.21,1.21,0,0,1,92.55,52.82Z"></path>
      <path class="cls-12" d="M74.18,62.64s6.1-5.39,9.44-5.65,5.46-1.09,3.73,2.25c0,0-1.54.9,1.93,2a8.58,8.58,0,0,0,5.58.16c.5,0,4.31.35,2.57,2.6,0,0-1.22.39,1,1.16s5,2,5.84,6.36c0,0,1.93,1.67,1.16,2.18S98.2,69,97,68.94c0,0,1.16,4.43-2.89,3.92a3.62,3.62,0,0,1-2.25-2.44c-.7-2.06-4.17-3.67-4.17-3.67s-1-.45-.65.65-.73,2.37-1.23,2.69-1.72,1.48-2.55-.45S76.62,62.26,74.18,62.64Z"></path>
      <path class="cls-14" d="M79.21,54.23c4.36-1.12,8.72-2.59,14.15-.86"></path>
      <path class="cls-15" d="M87,44.64l-1.82,2A28.16,28.16,0,0,1,83,48.89a19.93,19.93,0,0,0-3.26,4.25"></path>
      <path class="cls-13" d="M79.37,42.87c-.09,1.25-.29,2.48-.43,3.72a12.21,12.21,0,0,0-.07,3.67c.06.32.55.19.49-.14a12.29,12.29,0,0,1,.11-3.63c.13-1.2.33-2.41.41-3.62,0-.33-.49-.33-.51,0Z"></path>
      <path class="cls-13" d="M84.73,36.82a42.37,42.37,0,0,0-2,6.17c0,.16.22.23.25.07a40.46,40.46,0,0,1,2-6.17c0-.16-.2-.22-.25-.07Z"></path>
      <path class="cls-13" d="M88.75,32.56A27.9,27.9,0,0,1,83,43.19l-.39-.33A27.66,27.66,0,0,0,88.75,32.56Z"></path>
      <path class="cls-13" d="M82.93,43.12c1.54-1.2,3.34-2,4.89-3.19a10.76,10.76,0,0,1,5.41-2.64c.17,0,.17-.27,0-.25A10.11,10.11,0,0,0,88,39.48c-1.63,1.31-3.57,2.17-5.22,3.45-.13.11,0,.29.18.19Z"></path>
      <path class="cls-13" d="M79.32,54a12.87,12.87,0,0,1,.73-6.21,19.08,19.08,0,0,1,3.66-5.37c.22-.25-.14-.61-.36-.36a20,20,0,0,0-3.74,5.45,13.16,13.16,0,0,0-.8,6.49c0,.33.54.33.51,0Z"></path>
      <path class="cls-16" d="M86.3,45.16l-.56,2,1.71-.81,1.84,1.75-.34-2,3.34-1.71L89,43.57s.06-2-.45-2.35c0,0-1.29,1.84-1.33,2a8.52,8.52,0,0,1-3-.34C84,42.67,85.27,44.86,86.3,45.16Z"></path>
      <path class="cls-16" d="M92.81,39.38c-.35,0-1.29,1.15-1.29,1.15a6.2,6.2,0,0,0-.21-1.84,7.27,7.27,0,0,0-2.14,0s1.71-.73,1.82-1-.71-1.58-.63-1.88c0,0,1.42.64,1.72.51a18.17,18.17,0,0,0,1.75-1.5s-.51,1.5,0,1.8,2.27.09,2.57.35c0,0-3,.64-2.14,1.67a3.3,3.3,0,0,1,.9,1.62A3.9,3.9,0,0,0,92.81,39.38Z"></path>
      <path class="cls-16" d="M89.68,33.42a6.15,6.15,0,0,1,2.23-.3,7.78,7.78,0,0,0-1.72-.72c-.47,0,0-1.24.09-1.42s.51-1.24.51-1.24a13,13,0,0,0-1.62.82c-.18.17-.56.21-.9-.6A2.11,2.11,0,0,0,87,28.89s1,2.14.22,2.61a2.2,2.2,0,0,1-1.72.13,3,3,0,0,0,1.07,1c.52.17.56.64.43,1.16s-.51,1-.34,1.37c0,0,.68-1,1.24-.86s1.16,1.2,1.59,1.37C89.47,35.65,88.89,33.62,89.68,33.42Z"></path>
      <path class="cls-16" d="M86,37.19c.16-.07,1.15-.47,1.2-1.07,0,0-1.2.22-1.46-.47a2.77,2.77,0,0,1,0-1.54s-.64,0-.77.86-.77-1.07-1.28-1c0,0,.47,1.37.21,1.71s-1.71-.17-1.71-.34.3.77,1,1a.81.81,0,0,1,.6.9c0,.09-.73,1-.47,1.33,0,0,.51-.94,1.16-.86s1.2.9,1.54.86C86,38.52,85.46,37.45,86,37.19Z"></path>
      <path class="cls-16" d="M81.29,42.12,82,38.31s-1,2.82-1.67,2.91-2.57-2.91-2.57-2.91,1.46,2.44,1.16,2.91-3.21.21-3.21.21-1.29.3.26.69,2.78.34,2.44.94S76.15,46,77.22,45.37,79.32,43,79.36,44s-.47,4.45.13,3.17.81-4.11,1.37-3.51S83.94,47.13,83,45.5,81.15,42.89,81.29,42.12Z"></path>
      <path class="cls-12" d="M33.2,59.71a12.14,12.14,0,0,1-6.61-2.57c-3.21-2.5-7.32-5.91-7.77-6.16S16,52.52,17.66,56.69c0,0,1.29,1.67-1.09,1S8.48,53.48,7,55.92s0,3,0,3A15.4,15.4,0,0,0,.77,62c-2.44,2.25,1.67,2.12,2,2.12s5.27-1.35,5.4-.45-1,3.6,2.12,3.21,4.68-3.65,5.39-3.59,1.67.25,1.22,1.66-.51,4,3,3.15,6.61-4.62,6.8-4-.38,1-1,1.35a27.91,27.91,0,0,0-4.56,6.23c-.64,1.67-5.78,4.37-5.52,11.56,0,0,.06,2.25,1.41,1.8,0,0-.9,5.53,2.63,7.26,0,0,.9,8,2.76,8.16,0,0-.51-9.32.78-12,0,0,.32-8.67.89-12.27s.6-11.85,9.12-15.74Z"></path>
      <path class="cls-12" d="M54.91,67.68s-5.71-1.8-10.66,3.72c0,0-1.14,1.54.59,2,0,0-5,4-5.08,6.42s-.07,1.67.51,2.19-.19,5.84,1.54,7.19,2-6.49,2-6.49,2,3.06,3.52-7c0,0,3.87,2.16,4.7-2.14s3.09-5,4.5-4.75S54.91,67.68,54.91,67.68Z"></path>
      <path class="cls-12" d="M46.24,63.25c.32,0-10.07.76-6.51,9.18,0,0,2.27,6.87-2.09,5.26a20.72,20.72,0,0,0-.77,5.08c.12,1.8-.2,3.4-1.8,2.7,0,0,.38,3.53-.64,3.53s-2.64-.39-4.12-6c0,0-3.78.71-2.44-3.6S30.64,63.64,46.24,63.25Z"></path>
      <path class="cls-13" d="M30.64,60.85A44.18,44.18,0,0,1,67.16,79.09c.43.6,1.44,0,1-.58A45.37,45.37,0,0,0,30.64,59.69a.58.58,0,0,0,0,1.16Z"></path>
      <path class="cls-15" d="M23.41,43.83c2.63,1,5.18,2.51,8,2.42"></path>
      <path class="cls-15" d="M34.72,46a33.55,33.55,0,0,1,3.14,5.69"></path>
      <path class="cls-15" d="M27.87,48.79a7.25,7.25,0,0,0,2.37.3,15.3,15.3,0,0,1,4.73.55"></path>
      <path class="cls-15" d="M35,53.79a7.69,7.69,0,0,0,3.49,2.46C40.12,57,42.3,57.93,44,58.5"></path>
      <path class="cls-15" d="M41,50.85a12,12,0,0,1,2.32,6"></path>
      <path class="cls-13" d="M29.41,41.62a20.5,20.5,0,0,0,1.77,4.74,10,10,0,0,0,3.66,3.5.26.26,0,0,0,.26-.44A9.43,9.43,0,0,1,31.56,46a20,20,0,0,1-1.65-4.49.26.26,0,0,0-.5.13Z"></path>
      <path class="cls-13" d="M34.64,49.7l3.78,2.63A17.76,17.76,0,0,1,41.83,55a12.16,12.16,0,0,1,2,3.73L45.5,63c.12.3.62.17.5-.14-.58-1.49-1.15-3-1.74-4.48a12.67,12.67,0,0,0-1.92-3.59,15.7,15.7,0,0,0-3.26-2.65l-4.18-2.9c-.28-.19-.53.25-.26.44Z"></path>
      <path class="cls-16" d="M34.15,52.64a14.83,14.83,0,0,1-1.8-1.26v1.79l-2.71,2,3.46.86.68,2,.84-2L37,55.82s-1.24-.89-1.25-1.25a25.83,25.83,0,0,1,.87-2.83Z"></path>
      <polygon class="cls-16" points="27.42 50.67 28.92 51.52 28.93 49.43 31.15 48.79 29.18 47.84 28.98 46.21 27.31 47.23 26.06 45.99 25.93 47.99 23.86 48.86 26.05 49.65 25.91 51.92 27.42 50.67"></polygon>
      <path class="cls-16" d="M23.43,44.61c-.4.15-1.56,1.71-2,1.74a5.84,5.84,0,0,0,.64-1.48c0-.4-.71-.51-.86-.57s-1-.61-1.09-.89A4.12,4.12,0,0,0,22,43.33s-.54-1.69-.07-2c0,0,.63.86.9.92,0,0,.75-1.16,1-1.19a7.3,7.3,0,0,0,0,1.61s0,.26.14.27a6.8,6.8,0,0,0,1.61-.69c.11-.14-1.59,1.74-1.49,1.93s1,1.16.87,1.6C25,45.73,23.69,44.52,23.43,44.61Z"></path>
      <path class="cls-16" d="M28.48,41.36l-2,.57L27.87,40s-1-1.91-1.51-1.68a3,3,0,0,1,2.11.06s.55-2.08,1-2.35c0,0,.19,2.24.73,2.5a1.68,1.68,0,0,0,1.37-.1,3.24,3.24,0,0,1,.79-.23c-.06,0-2,1.75-1.5,2.22a4.64,4.64,0,0,1,1.2,1.5,6.19,6.19,0,0,0-1.74-.46,3.35,3.35,0,0,0-1,2.34c.19.59-.37-.36-.43-.77A16.84,16.84,0,0,0,28.48,41.36Z"></path>
      <path class="cls-16" d="M33.77,46.39c.09,0-.45,1.32-.07,2.1a9.22,9.22,0,0,1,1.13-1.87c.22,0,1.76,1.07,2.07.93,0,0-1.24-1.17-1.3-1.56s1.23-1.74,1.43-1.85a3.4,3.4,0,0,0-1.77.51c-.33.38-.39-.57-.31-.66s.45-1,.45-1-1,.55-1.1.91-.3.24-.41,0a1.06,1.06,0,0,0-1.07-.34s1.14,1.31.57,1.77a2.57,2.57,0,0,1-1.71.28A2.35,2.35,0,0,0,33.77,46.39Z"></path>
      <path class="cls-16" d="M39.56,50s-2.17-2.89-1.89-3.68c0,0,2.26,2.33,2.8,2.35a22.05,22.05,0,0,1,1.15-3.1c.25-.21,0,3.17,0,3.17s3-1.2,3.21-.94-2.27,2.32-2.27,2.32-.3,0,.24.51,2,1.16,1.82,1.2S42.19,50.7,42,51.2a14.54,14.54,0,0,0,.26,3,6.47,6.47,0,0,1-1.71-3.11c-.11-1.48-1,1.95-1,1.95s-.24,1-.53.78S40,50.53,39.56,50Z"></path>
      <path class="cls-15" d="M74.66,70c.28,2.81.08,5.76,1.43,8.24"></path>
      <path class="cls-15" d="M77.83,81.07a33.88,33.88,0,0,1-3.67,5.36"></path>
      <path class="cls-15" d="M72.23,76.22a6.89,6.89,0,0,0,.8,2.25,15.81,15.81,0,0,1,1.63,4.47"></path>
      <path class="cls-15" d="M70.94,84.8A7.74,7.74,0,0,0,70.31,89c.1,1.82.22,4.19.5,6"></path>
      <path class="cls-15" d="M76.28,88.88A11.82,11.82,0,0,1,72,93.64"></path>
      <path class="cls-13" d="M79.31,74.39A20.89,20.89,0,0,0,75.92,78a10,10,0,0,0-1.52,4.91c0,.33.49.33.51,0a9.48,9.48,0,0,1,1.53-4.76,21,21,0,0,1,3.24-3.43c.24-.22-.12-.58-.37-.36Z"></path>
      <path class="cls-13" d="M74.46,82.62l-.65,4.56a18.1,18.1,0,0,1-.87,4.32A12.32,12.32,0,0,1,70.5,95q-1.53,1.71-3.08,3.4c-.22.25.14.61.36.37q1.59-1.74,3.16-3.49a13,13,0,0,0,2.38-3.36,15.47,15.47,0,0,0,.93-4.21l.7-4.92c0-.33-.44-.47-.49-.14Z"></path>
      <path class="cls-16" d="M71.6,83.56a15.37,15.37,0,0,1,.32-2.17l-1.6.79-3-1.51.78,3.48-1.51,1.52,2.18-.16,1.32,2s.24-1.51.55-1.68a25.35,25.35,0,0,1,2.93-.5Z"></path>
      <path class="cls-16" d="M74,70.37c-.31-.29-2.22-.62-2.44-1a5.58,5.58,0,0,0,1.6-.09c.37-.17.14-.86.13-1s.08-1.21.31-1.37c0,0,.42,1.33.91,1.64,0,0,1.27-1.24,1.81-1,0,0-.49,1-.42,1.21,0,0,1.37.16,1.51.37a7.05,7.05,0,0,0-1.45.71s-.22.14-.17.25a6.68,6.68,0,0,0,1.33,1.12,10,10,0,0,0-2.39-.46c-.13.17-.59,1.4-1,1.49C73.65,72.24,74.17,70.56,74,70.37Z"></path>
      <path class="cls-16" d="M79.14,73.42l-1.4-1.5,2.3.37s1.25-1.77.82-2.1a3,3,0,0,1,.9,1.91s2.11-.44,2.57-.14c0,0-1.92,1.18-1.92,1.78a1.69,1.69,0,0,0,.72,1.18,3.32,3.32,0,0,1,.55.59c-.06,0-2.47-1-2.65-.33a4.71,4.71,0,0,1-.81,1.74,6.23,6.23,0,0,0-.36-1.76,3.39,3.39,0,0,0-2.53.18c-.44.44.15-.49.49-.72A17.61,17.61,0,0,0,79.14,73.42Z"></path>
      <path class="cls-16" d="M77,80.41c.06.07-1.38.19-1.91.88a9.42,9.42,0,0,1,2.18.17c.13.18-.17,2.06.1,2.27a6.85,6.85,0,0,1,.8-1.86c.32-.23,2.12.31,2.31.44A3.54,3.54,0,0,0,79.24,81c-.49-.12.34-.6.45-.57s1.12,0,1.12,0-1-.66-1.31-.58-.35-.17-.18-.36a1.08,1.08,0,0,0-.18-1.11s-.66,1.6-1.33,1.3-1-1.4-1-1.4A2.36,2.36,0,0,0,77,80.41Z"></path>
      <path class="cls-16" d="M76.44,87.19s1.61-3.24,2.44-3.35c0,0-1.07,3.06-.84,3.56A22.25,22.25,0,0,1,81.32,87c.3.13-2.84,1.41-2.84,1.41s2.44,2.18,2.28,2.45-3.09-1-3.09-1-.17-.25-.35.44-.14,2.3-.26,2.17-.11-2.64-.63-2.57a15,15,0,0,0-2.6,1.61,6.45,6.45,0,0,1,2-2.93c1.27-.77-2.21-.05-2.21-.05s-1,.23-.93-.13S76.11,87.82,76.44,87.19Z"></path>
      <polygon class="cls-16" points="70.34 76.66 70.25 78.38 72.13 77.46 73.7 79.15 73.66 76.97 75.03 76.05 73.37 75.02 73.92 73.34 72.07 74.12 70.36 72.67 70.64 74.98 68.55 75.87 70.34 76.66"></polygon>
    </g>
  </g>
</svg>
