<?xml version="1.0" encoding="UTF-8"?>
<svg xmlns="http://www.w3.org/2000/svg" viewBox="0 0 76.8 174">
  <defs>
    <style>.cls-1,.cls-10,.cls-11,.cls-3,.cls-4,.cls-9{fill:none;}.cls-1,.cls-3,.cls-4{stroke:#cfcecf;}.cls-1,.cls-4{stroke-miterlimit:10;}.cls-1,.cls-3{stroke-width:0.88px;}.cls-2{fill:#cfcecf;}.cls-10,.cls-11,.cls-3,.cls-9{stroke-linecap:round;stroke-linejoin:round;}.cls-4{stroke-width:0.86px;}.cls-5{fill:#e9c671;}.cls-6{fill:#84a63c;}.cls-7{fill:#708d34;}.cls-8{fill:#a4c044;}.cls-10,.cls-11,.cls-9{stroke:#a4c044;}.cls-9{stroke-width:0.58px;}.cls-10{stroke-width:0.43px;}.cls-11{stroke-width:0.41px;}.cls-12{fill:#d9a458;}</style>
  </defs>
  <g id="Слой_2" data-name="Слой 2">
    <g id="Слой_1-2" data-name="Слой 1">
      <path class="cls-1" d="M10.6,150.9s2.14-2.23,6.6-1,8.66-1.55,8.66-1.55"></path>
      <path class="cls-1" d="M5.18,162.82s3.54-7.29,15.37-7.07c6.66.12,5.9-5.42,5.9-5.42"></path>
      <path class="cls-2" d="M25.65,154.27a7.18,7.18,0,0,1-1.91.78,6.39,6.39,0,0,1-2,.21,5.91,5.91,0,0,1-2-.44,7.78,7.78,0,0,1-1.81-1,.45.45,0,0,1,.53-.72v0l0,0a6.52,6.52,0,0,0,1.55,1,5.17,5.17,0,0,0,1.77.48,6.68,6.68,0,0,0,3.64-.73h0a.24.24,0,0,1,.34.11A.25.25,0,0,1,25.65,154.27Z"></path>
      <path class="cls-1" d="M32.16,154.18a10.39,10.39,0,0,0-5.69,8.64"></path>
      <path class="cls-1" d="M26.36,163c-1,4.42-1.22,5.3-1.22,5.3"></path>
      <path class="cls-1" d="M31.15,171.1s-6.75-4.87-4.22-9.51"></path>
      <path class="cls-3" d="M34.26,155.53s-1.78,2.87-.83,4.64a10.66,10.66,0,0,0,2.62,3.76A10.32,10.32,0,0,1,38.8,169a8.69,8.69,0,0,0,1.88,3.65"></path>
      <path class="cls-1" d="M38.32,167.45s1.3,2.67,7,4.22"></path>
      <path class="cls-1" d="M34,161.25s1.89,1.91,1.25,3.68-2.18,7.18-1.25,8.73"></path>
      <path class="cls-1" d="M36.91,153.43s.52,5.64,2.92,6"></path>
      <path class="cls-4" d="M40.2,153.64a6.67,6.67,0,0,0,5.29,3.1c3.78.27,5.7,9.62,5.7,9.62"></path>
      <path class="cls-1" d="M43.3,149.62a15.34,15.34,0,0,0,8.69.71c4.94-1,7,1.55,7,1.55"></path>
      <path class="cls-1" d="M50.68,150.54s3.06,1.86,2.44,3.64"></path>
      <path class="cls-5" d="M24.2,148.09s.58-3.31,5.28-.88c0,0,.33.49,1.47,0s3.75-1.83,6.44-1.09c0,0,1.43-2.61,4.39,0,0,0,3,.33,3.1,2.77l.41,1.43s0,3.51-4.53,2.57a2.34,2.34,0,0,1-2.85,1.83l-1,.72a2.93,2.93,0,0,1-4.48.63,4,4,0,0,0-2.49-.69c-1.49.08-1.85-.77-2.4-1.38a10.52,10.52,0,0,0-1.66-1.22,2.71,2.71,0,0,1-.56-2.07C25.53,149.89,23.87,149.2,24.2,148.09Z"></path>
      <ellipse class="cls-5" cx="3.95" cy="162.4" rx="4.4" ry="2.55" transform="translate(-87.08 27.85) rotate(-32.69)"></ellipse>
      <path class="cls-5" d="M9.16,152.72a8.64,8.64,0,0,0-1.25.39c-1,.44-3.47,1.11-3.91-.79-.57-2.45,4.2-3.78,4.74-4,.95-.41,5.21.32,2.85,3.18A4.56,4.56,0,0,1,9.16,152.72Z"></path>
      <path class="cls-5" d="M24.13,160.77s-2.81.41-3.25,1.87,0,2.24.63,2.72a2.23,2.23,0,0,0,3.12-.26c1.27-1.23,2.95-2.33,3.24-2.95.19-.4.45-2.38-1.47-2.48S25.25,160.5,24.13,160.77Z"></path>
      <path class="cls-5" d="M28.86,172a2,2,0,0,1-.6-1.28A1.76,1.76,0,0,1,29.55,169a6.4,6.4,0,0,1,5.69,1c.81.79,2.51,2.27,0,3.6C32.94,174.77,30.05,173.17,28.86,172Z"></path>
      <path class="cls-5" d="M38.1,161s-.16-3.48,2.67-2.2,2.94,5.51,1.79,5.87S38.71,165.37,38.1,161Z"></path>
      <path class="cls-5" d="M56.35,151.2a3.14,3.14,0,0,1,2-2.47c1.68-.43,4.9.86,5.26,1.24s2.91,2.46,3.67,4.76,0,5.67-4.49,3S56.59,154.15,56.35,151.2Z"></path>
      <path class="cls-5" d="M49.73,166.81a2.4,2.4,0,0,1,1.81-3.62c3.27-.77,3.4.41,3.4.41s4.9,2.07,5.72,4.93-2.79,5.77-6.8,3.05S49.73,166.81,49.73,166.81Z"></path>
      <path class="cls-5" d="M32.82,164.7a3.53,3.53,0,0,0-.9,2.67c.09.82.51,1.62,1.95,1.13,2.67-.9,3.31-2.65,3.18-3s-.33-3.78-3.18-1.74A6.26,6.26,0,0,0,32.82,164.7Z"></path>
      <path class="cls-5" d="M25.63,169.78c.43-.65,1.76-2.94-1-2.78a1.14,1.14,0,0,0-1,1.64l0,0c.53,1,.62,2.18,1.69,1.41A1.18,1.18,0,0,0,25.63,169.78Z"></path>
      <path class="cls-5" d="M45.8,171.16s1.16,1.93-.61,1.63-1.09-2.4-.53-2.21S45.43,170,45.8,171.16Z"></path>
      <path class="cls-5" d="M53.26,151.82a1.33,1.33,0,0,0-1.83,1.54c.25,1.07.85,2.67,2.07.91C54.36,153,54,152.16,53.26,151.82Z"></path>
      <path class="cls-5" d="M16.94,153.84c-.32-.31-.4-2.17,1.3-1.65S18.54,155.41,16.94,153.84Z"></path>
      <path class="cls-6" d="M63.56,54.12S60,45.92,65.84,44a43.73,43.73,0,0,0,.36,4.5C66.44,49.62,68.36,53.15,63.56,54.12Z"></path>
      <path class="cls-7" d="M64.63,55a5.83,5.83,0,0,0,5.59,5.36A22.94,22.94,0,0,0,68.4,55C67.42,53.52,64.16,53.2,64.63,55Z"></path>
      <path class="cls-6" d="M65.84,53.52s7.67-10.72,11-.49a24.39,24.39,0,0,0-4.75,1.09C70.83,54.73,70.46,56.08,65.84,53.52Z"></path>
      <path class="cls-8" d="M65.83,56.72c-.79,1.12-1.36,3,1.42,4.61a.06.06,0,0,0,.09,0c.54-2.43,2.49-3.51.5-5A1.32,1.32,0,0,0,65.83,56.72Z"></path>
      <path class="cls-8" d="M71.57,52.93c-2.09-.83-3.45,2.32-1.47,3.4a2.35,2.35,0,0,0,1,.28c2.09.14,2.38,0,2.73.5S73.63,53.75,71.57,52.93Z"></path>
      <path class="cls-8" d="M72.15,52a3,3,0,0,0,1.6-1,2.41,2.41,0,0,0,.52-1,5.21,5.21,0,0,1,1-2.12c.44-.32-3.33-.77-4.86.93A1.89,1.89,0,0,0,72.15,52Z"></path>
      <path class="cls-8" d="M68.7,49.52a4,4,0,0,0-3.52-4s0,3.77,0,4.3c0,.3.42.93,1.09,1.24C67.2,51.49,68.48,50.52,68.7,49.52Z"></path>
      <path class="cls-8" d="M73,23.93s2.29,5.15-1.36,6.25a1.89,1.89,0,0,1-2.35-2C69.32,26.16,71.22,26.25,73,23.93Z"></path>
      <path class="cls-8" d="M66.92,21.74s3.34,2.37,1.36,5.57a1.56,1.56,0,0,1-2.78-.26s0,0,0,0C64.72,24.89,67.07,23.51,66.92,21.74Z"></path>
      <path class="cls-8" d="M60.49,25s3.29-.15,4.64,2.58c.6,1.23.45,2.43-.59,2.95a2.15,2.15,0,0,1-2.69-1.25C61.29,28.15,62,27.1,60.49,25Z"></path>
      <path class="cls-8" d="M18.5,37.74s1-4.61-4.32-4.37C14.18,33.37,13.9,38.75,18.5,37.74Z"></path>
      <path class="cls-8" d="M23.19,29.15s-5.79,5-1.59,6.52c0,0,2.41.13,1.78-3.4A9.68,9.68,0,0,1,23.19,29.15Z"></path>
      <path class="cls-8" d="M15.6,29.05c-.17,0,.57,2.45.62,3.31a1.79,1.79,0,0,0,2.6,1.34C20.16,33,20.5,28.76,15.6,29.05Z"></path>
      <path class="cls-8" d="M47.07,37.48s4.91,1,4.25-4.43A3.86,3.86,0,0,1,49,34.2C47.86,34.21,45.65,35.38,47.07,37.48Z"></path>
      <path class="cls-8" d="M47.34,39.6a4.1,4.1,0,0,0,.36.33c.9.77,3.35,2.31,5.22-1.4,0,0-2.07-.57-3.19-.77S47.31,37.8,47.34,39.6Z"></path>
      <path class="cls-8" d="M45.93,39s-3.78-.4-.76-4.46c0,0,.78,1.69,1.18,2.39A1.56,1.56,0,0,1,45.93,39Z"></path>
      <path class="cls-9" d="M66.21,32.25a14.05,14.05,0,0,1,4-3"></path>
      <path class="cls-9" d="M67,27.36s.55,1-.74,4.89"></path>
      <path class="cls-9" d="M64.17,29.22s1.81,1.84,1.67,3.5"></path>
      <path class="cls-10" d="M32.21,12c-.39-3.45-4-6.43-4-6.43"></path>
      <path class="cls-10" d="M32.88,5.82s-1.11,7.3-.67,8.26"></path>
      <path class="cls-10" d="M46.56,23.43a35.37,35.37,0,0,1-.46-7.31"></path>
      <path class="cls-8" d="M51,15a13.2,13.2,0,0,0-2.29,2.54,9.41,9.41,0,0,0-1.45,3.09.13.13,0,0,1-.15.1.14.14,0,0,1-.1-.16,9.76,9.76,0,0,1,1.41-3.22,13.37,13.37,0,0,1,2.3-2.68A.22.22,0,1,1,51,15h0Z"></path>
      <path class="cls-10" d="M50.49,20.12a35.51,35.51,0,0,0-4.44,5.19"></path>
      <path class="cls-7" d="M31.64,13.29s1-4.15-5.24-3.41c0,0-1.58,1-4.75-1.1C21.65,8.78,24.7,18.52,31.64,13.29Z"></path>
      <path class="cls-6" d="M32.49,11.82s4.39-4.5,7.07-3,3.29,2.31,4.63,2.07S36.88,19.62,32.49,11.82Z"></path>
      <path class="cls-6" d="M32.21,17.43s-7-2.8-3.61,9.5c0,0,2.59,1,3.1-4.26Z"></path>
      <path class="cls-6" d="M42.85,15.72s-5.33,6.34,1.48,10.36c0,0,2.42-2.32,1-5.18S42.36,16.94,42.85,15.72Z"></path>
      <path class="cls-6" d="M47.72,22.08s4.87-2.34,8.28,4C56,26.08,49.25,28.15,47.72,22.08Z"></path>
      <path class="cls-6" d="M42.36,31.07s-.49-5.46,9.5-4.07C51.86,27,51.74,36.43,42.36,31.07Z"></path>
      <path class="cls-7" d="M21.65,40.33s-.53-6.46,6-6.34C27.66,34,28.6,38.87,21.65,40.33Z"></path>
      <path class="cls-6" d="M35.91,44.47a1.89,1.89,0,0,0-.42-1.63c-.56-.71-1.8-1.43-4.46-1.66-5.72-.49-5.23-1.71-5.23-1.71S27.14,51.65,35.91,44.47Z"></path>
      <path class="cls-7" d="M43.31,43.49s3.18-4.5-1-7.67C42.36,35.82,39.14,40.81,43.31,43.49Z"></path>
      <path class="cls-6" d="M39,45.46s5.36-3.31,6.21,4.85C45.16,50.31,39.8,51.56,39,45.46Z"></path>
      <path class="cls-6" d="M52.8,58.14s-4-4.73,1.46-9.25C54.26,48.89,58.53,55.71,52.8,58.14Z"></path>
      <path class="cls-6" d="M61.21,44s1.58-3.51-4-4.6-4.75-2.68-4.75-2.68S52,48.6,61.21,44Z"></path>
      <path class="cls-6" d="M63,39.39s2.44-3.89-2.31-5.79a14.58,14.58,0,0,1-2.32-1.77C57.83,31.23,54.91,39.26,63,39.39Z"></path>
      <path class="cls-6" d="M59.09,84.33s-2.92-10.55-11.77-4.55C47.32,79.78,50.43,88.11,59.09,84.33Z"></path>
      <path class="cls-7" d="M32.36,11.71A2.13,2.13,0,0,1,32.58,13c0,.39-.12.75-.18,1.11a10.69,10.69,0,0,0-.19,2.11A14.68,14.68,0,0,0,33,20.36c.2.69.48,1.36.72,2s.57,1.33.88,2l1,1.94,1.06,1.91a20.32,20.32,0,0,1,1.85,4.11,16,16,0,0,1,.75,4.51,23.08,23.08,0,0,1-1.8,8.84c-1.08,2.78-2.39,5.41-3.55,8.06-.58,1.32-1.12,2.65-1.57,4a23.13,23.13,0,0,0-1,4.06A23.54,23.54,0,0,0,32,70.11c.68,2.78,1.6,5.53,2.53,8.3S36.38,84,37.09,86.9a36.66,36.66,0,0,1,1.19,9c0,.77-.05,1.54-.11,2.31L38,99.33l-.18,1.11c-.23,1.48-.55,2.94-.88,4.39-.67,2.88-1.44,5.69-2,8.5a52.66,52.66,0,0,0-1.14,8.44,51.42,51.42,0,0,0,.3,8.5l.28,2.12.33,2.16.68,4.33.67,4.34.33,2.17.16,1.08.08.55,0,.27,0,.14v.12c-1.52.13,3.39-.26-3.37.52a1.7,1.7,0,1,1,3.36-.56c-6.76.81-1.86.36-3.37.48v-.22l0-.27-.08-.54L33,145.88l-.3-2.17-.6-4.35L31.52,135l-.3-2.18L31,130.61a53.15,53.15,0,0,1,1.18-17.9c.66-2.91,1.49-5.73,2.19-8.52.34-1.4.67-2.8.91-4.2l.18-1,.14-1c.06-.69.12-1.38.12-2.08a33.78,33.78,0,0,0-1-8.38c-.62-2.79-1.5-5.55-2.37-8.34s-1.78-5.6-2.44-8.52a25.26,25.26,0,0,1-.62-9.07A33.29,33.29,0,0,1,32.13,53c1.22-2.69,2.57-5.28,3.64-7.94a22.5,22.5,0,0,0,1.91-8.18,15.61,15.61,0,0,0-.52-4.14,19.5,19.5,0,0,0-1.59-3.93l-1-2-.93-2c-.29-.67-.55-1.37-.83-2.06s-.49-1.4-.68-2.12a15.33,15.33,0,0,1-.66-4.43,12,12,0,0,1,.27-2.25,3,3,0,0,0,.1-1.93h0a.29.29,0,0,1,.12-.4.31.31,0,0,1,.41.12Z"></path>
      <path class="cls-7" d="M38.13,34.5a42.85,42.85,0,0,0,3.27-3.33,32.87,32.87,0,0,0,2.82-3.73,19.19,19.19,0,0,0,2.06-4.16A15.55,15.55,0,0,0,46.89,21a15.21,15.21,0,0,0,.19-2.35,10,10,0,0,1-.16,4.79A17.74,17.74,0,0,1,45,27.91a27.26,27.26,0,0,1-2.81,3.93,29.76,29.76,0,0,1-3.41,3.42.51.51,0,0,1-.71-.06.5.5,0,0,1,0-.69Z"></path>
      <path class="cls-7" d="M35.49,46.72c1-.3,2-.67,3-1.07a28.9,28.9,0,0,0,2.94-1.35,20.1,20.1,0,0,0,2.77-1.69,11.93,11.93,0,0,0,2.35-2.25,11.88,11.88,0,0,1-2.12,2.53,20.7,20.7,0,0,1-2.63,2A30.69,30.69,0,0,1,39,46.63c-1,.53-2,1-3,1.45a.72.72,0,1,1-.56-1.33l.08,0Z"></path>
      <path class="cls-10" d="M13.73,46.13a18.35,18.35,0,0,0-2.64-3.93"></path>
      <path class="cls-10" d="M8.93,45.22a4.57,4.57,0,0,1,4.91,1.18"></path>
      <path id="_4" data-name="4" class="cls-7" d="M13.88,45.82A20.1,20.1,0,0,1,16.07,49a22.91,22.91,0,0,1,1.63,3.52c.22.61.41,1.24.6,1.85s.37,1.18.58,1.76a22.82,22.82,0,0,0,1.59,3.35,23.19,23.19,0,0,0,4.73,5.63,27.15,27.15,0,0,0,6.16,3.95l0,0a1.08,1.08,0,0,1-.93,1.95l-.06,0a33.05,33.05,0,0,1-3.32-2.14,26.81,26.81,0,0,1-3-2.52,25.82,25.82,0,0,1-4.71-6.23,22.7,22.7,0,0,1-1.54-3.59c-.21-.62-.39-1.24-.55-1.87s-.31-1.2-.51-1.8a20.73,20.73,0,0,0-3.45-6.54l0,0a.39.39,0,0,1,.06-.55A.4.4,0,0,1,13.88,45.82Z"></path>
      <path class="cls-9" d="M42.36,62.53a31.22,31.22,0,0,0-1.28,4.66"></path>
      <path class="cls-9" d="M40,60.82a10.57,10.57,0,0,1,.75,6.84"></path>
      <path class="cls-9" d="M39,63.61s1.72,3.52,1.92,3.78"></path>
      <path class="cls-10" d="M21.54,35s-.65,3-.91,3.75"></path>
      <path class="cls-10" d="M18.15,33.05s1.55,1.39,2.48,6.25"></path>
      <path class="cls-11" d="M17.62,36.81a24.53,24.53,0,0,0,3,2.49"></path>
      <path class="cls-7" d="M17.72,55.37a19.07,19.07,0,0,0,1.91-3.9,19.37,19.37,0,0,0,1-4.25,29.26,29.26,0,0,0,.13-4.4c0-.73-.09-1.47-.19-2.19a11.39,11.39,0,0,0-.48-2.09v0a.31.31,0,0,1,.19-.41.33.33,0,0,1,.41.18,10.4,10.4,0,0,1,.55,2.25c.12.75.19,1.5.24,2.26a31,31,0,0,1-.07,4.52,20.51,20.51,0,0,1-1,4.44,20.32,20.32,0,0,1-2,4.14.45.45,0,0,1-.63.13.44.44,0,0,1-.14-.62h0Z"></path>
      <g id="_2" data-name="2">
        <path class="cls-7" d="M33.13,79.18A15.53,15.53,0,0,0,35.05,77a17.86,17.86,0,0,0,1.45-2.35c.54-1,1-2.12,1.66-3.37a44.63,44.63,0,0,0,2.19-4.55s0,0,0,0c.13-.35.47-.68.84-.58s.63.36.48.77c-.53,1.52-1.58,3.55-2.22,4.9s-1.09,2.53-1.61,3.63A20.35,20.35,0,0,1,36.39,78a12.71,12.71,0,0,1-2,2.5.9.9,0,0,1-1.26,0,.88.88,0,0,1,0-1.25l0,0Z"></path>
      </g>
      <path class="cls-7" d="M36.22,91.59a39.35,39.35,0,0,0,6.26-5.43A22.19,22.19,0,0,0,45,82.94a15.89,15.89,0,0,0,1-1.75l.39-.91.37-1c2-5.35,4.22-10.61,6.42-15.88S57.73,53,59.89,47.69c1.07-2.63,2.15-5.28,3-7.94.11-.34.22-.67.3-1s.18-.66.27-1c.18-.71.38-1.4.63-2.09a21,21,0,0,1,.82-2,13.18,13.18,0,0,1,1.11-1.94.46.46,0,0,1,.65-.1.45.45,0,0,1,.11.64v0a10.85,10.85,0,0,0-1,1.78c-.28.63-.53,1.28-.75,1.94s-.4,1.34-.56,2c-.08.33-.16.68-.25,1A10.93,10.93,0,0,1,64,40.08c-.87,2.75-1.9,5.4-2.93,8.07C59,53.46,56.75,58.74,54.6,64s-4.2,10.59-6.11,15.93l-.36,1L47.71,82a19.07,19.07,0,0,1-1.07,2A25.25,25.25,0,0,1,44,87.51a41.43,41.43,0,0,1-6.53,5.87,1.1,1.1,0,0,1-1.52-.24,1.08,1.08,0,0,1,.24-1.51h0Z"></path>
      <path class="cls-7" d="M57.59,54.47a19.19,19.19,0,0,0,3.63,0,23.44,23.44,0,0,0,3.62-.63c1.2-.29,2.34-.73,3.55-1.13a18.77,18.77,0,0,1,1.81-.53,6.08,6.08,0,0,1,1-.16,1.74,1.74,0,0,1,.51,0,.62.62,0,0,1,.29.11.32.32,0,0,1,.11.39,0,0,0,0,1,0,0h0l-.22-.14,0,0a.46.46,0,0,0-.15,0,2.13,2.13,0,0,0-.43,0c-.29,0-.59.13-.88.21-.59.18-1.18.38-1.75.61-1.15.46-2.31,1-3.52,1.35a23.52,23.52,0,0,1-3.71.87,20.32,20.32,0,0,1-3.85.25.58.58,0,0,1-.55-.59.57.57,0,0,1,.6-.55h.06Z"></path>
      <path class="cls-7" d="M32.23,128.81a5.41,5.41,0,0,0,.83-.28c.29-.12.58-.26.86-.41a12.08,12.08,0,0,0,1.61-1.06,13.16,13.16,0,0,0,2.67-2.85,21.16,21.16,0,0,0,3-7.45,40.49,40.49,0,0,1,2.52-8.12A16.86,16.86,0,0,1,49.19,102l0,0a5.88,5.88,0,0,1,.87-.55c.29-.16.58-.29.87-.43.59-.25,1.18-.49,1.78-.68a33.82,33.82,0,0,1,3.64-1c.61-.14,1.23-.24,1.84-.36L60,98.76l1.86-.23,1.86-.19a.37.37,0,0,1,.08.73h0L62,99.3l-1.83.27-1.82.34c-.59.13-1.2.24-1.79.4a31.55,31.55,0,0,0-3.51,1c-.57.2-1.13.44-1.67.69-.27.14-.54.27-.79.42a5.18,5.18,0,0,0-.69.44l0,0a15.62,15.62,0,0,0-5,6.26,40.88,40.88,0,0,0-2.22,7.91,33.4,33.4,0,0,1-1.11,4.14,17.31,17.31,0,0,1-1.92,3.94,14.56,14.56,0,0,1-3,3.32,11.93,11.93,0,0,1-1.85,1.28,9.78,9.78,0,0,1-1,.52c-.17.08-.36.15-.54.22a6.26,6.26,0,0,1-.61.2,1,1,0,0,1-1.19-.7,1,1,0,0,1,.7-1.19h0Z"></path>
      <path class="cls-6" d="M19.31,60.46s-7.19-1.34-6.58,8a6.32,6.32,0,0,0,4,5.48s-1.14-2.56.89-3.53S22.23,64.36,19.31,60.46Z"></path>
      <path class="cls-6" d="M49.68,71.87s6.74-6.54,12.42,1.5C62.1,73.37,52.19,78.61,49.68,71.87Z"></path>
      <path class="cls-6" d="M40.7,69.36s7.47,3.12,3,11.07C43.75,80.43,34.73,75.79,40.7,69.36Z"></path>
      <path class="cls-6" d="M36.81,103.7s2-9.1,6.25-9.75C43.06,94,44.24,106.82,36.81,103.7Z"></path>
      <path class="cls-6" d="M32.14,127.69s.48-3.85-4.47-3.77a2.43,2.43,0,0,1-3.21-2S23.77,133.05,32.14,127.69Z"></path>
      <path class="cls-6" d="M61.41,98.66s1.62-6.29,5.28-6.49,6.74-.41,7,7.43c0,0-3.86-3.94-7.47-1.26S61.41,98.66,61.41,98.66Z"></path>
      <path class="cls-6" d="M65.1,98.22s-3.89,7.31,4.76,12.1C69.86,110.32,73.55,100.33,65.1,98.22Z"></path>
      <path class="cls-6" d="M63.32,111.49A13.14,13.14,0,0,1,61,104.27c-.23-3.66-2.68-4.27-4.06-4.32a4.72,4.72,0,0,0-.93,0S51.14,112.63,63.32,111.49Z"></path>
      <path class="cls-6" d="M57.15,99.07s2.39-7.27-7.6-6.09c0,0-6.29,2.15-4.38,7.92a2.57,2.57,0,0,1,3.69-1.28A10.22,10.22,0,0,0,57.15,99.07Z"></path>
      <path class="cls-6" d="M48.46,103.21s7-1,5,8.36c0,0-1.82-2.89-3.2-3.15S49.31,103.62,48.46,103.21Z"></path>
      <path class="cls-6" d="M43.63,109.14s-3.82,9.66,9,8.28a7.23,7.23,0,0,1-3.53-4.67C48.21,109.34,45.09,109.06,43.63,109.14Z"></path>
      <path class="cls-6" d="M40.34,123.31s5-1.91,4.95,4.91,1.26,6.25,1.26,6.25S36.6,134.35,40.34,123.31Z"></path>
      <path class="cls-6" d="M40.29,67.64c.2-.2-2.28-3.93-3.45-5.27s-2-5.12-2-5.12-1.76.37-1.31,6.94S36.86,71,40.29,67.64Z"></path>
      <path class="cls-6" d="M53.59,64.48s1.21-4.39,7.82-1.83c0,0-.14,1.2,3.17-.8C64.58,61.85,61.31,74.71,53.59,64.48Z"></path>
      <path class="cls-6" d="M41.17,66.18s4.73-1.7,3.11-6.45a7.57,7.57,0,0,1,1-7.43s4.48,2.6,4.65,7.14c.15,4-.67,9.25-6,9.29a2.79,2.79,0,0,1-2.7-2.22C41.23,66.4,41.2,66.29,41.17,66.18Z"></path>
      <path class="cls-6" d="M63.49,40.94S72.24,45.8,74,36.41a46.68,46.68,0,0,1-6.34.36C65.62,36.61,63.38,39.15,63.49,40.94Z"></path>
      <path class="cls-6" d="M32.13,32.33s6.87,6.15,5.28,9a13.3,13.3,0,0,1-4-1.34C32.18,39.09,29.65,35.56,32.13,32.33Z"></path>
      <path class="cls-6" d="M27.59,50.54s1.63,12.35-6.74,10.65c0,0-2.52-6.4,2.11-8.53S26.37,52.06,27.59,50.54Z"></path>
      <path class="cls-6" d="M21.51,46.42s-5.84,1-6.33-7.92a28,28,0,0,0,3.9,3.29C20.54,42.64,22,44.35,21.51,46.42Z"></path>
      <path class="cls-6" d="M17.5,51.9s-.61-3.41-6.34-1.83-4.26-.23-5.11-.42S10.07,62,17.5,51.9Z"></path>
      <path class="cls-6" d="M5.25,71.24S1.83,82.75,13.18,81.9c0,0,2.3-6.8-2.45-8.5C7.06,72.1,5.25,71.24,5.25,71.24Z"></path>
      <path class="cls-6" d="M23.16,79.34s-11,1.22-7.23,9.91c0,0,4.93,1,5.71-3.25S21.78,80,23.16,79.34Z"></path>
      <path class="cls-6" d="M15.13,89.08S8,94,2.85,86.32c0,0,4.7-.77,6.4-2.6S16.35,85.51,15.13,89.08Z"></path>
      <path class="cls-6" d="M20.17,98.34s-3.43-5.54,6.07-9c0,0-.75,5-.45,6.5S21.81,100.86,20.17,98.34Z"></path>
      <path class="cls-6" d="M17.63,97.53s-2.91,4.48-3.89,5.65-5.91,2.19-7.79.06c0,0,2.75-.74,4.29-4.65S15.84,95.25,17.63,97.53Z"></path>
      <path class="cls-6" d="M25.1,104.19s-2.84-3.9,1.87-6.58,4.48-5.51,4.48-5.51S37.37,103.46,25.1,104.19Z"></path>
      <path class="cls-6" d="M23.94,104.27a4.59,4.59,0,0,0-4.8.89c-2.56,2-3.83.6-3.83.6S20.59,112.47,23.94,104.27Z"></path>
      <path class="cls-6" d="M28.3,108.73a9.23,9.23,0,0,0-5.7,5.58c-2.16,5.35-5.13,4-5.45,3.68a7.85,7.85,0,0,0,11.15-1C32.19,112.75,28.3,108.73,28.3,108.73Z"></path>
      <path class="cls-7" d="M11.79,79.81a1.69,1.69,0,0,1,0-.68c0-.06.12-.07.14,0s0,0,.07.07l.11.15a2.69,2.69,0,0,1,.16.29c.2.41.38.82.55,1.23.34.83.64,1.67,1,2.5.6,1.68,1.12,3.38,1.67,5.08a30.19,30.19,0,0,0,4.48,9.4,25.46,25.46,0,0,0,3.57,3.77c1.31,1.16,2.72,2.21,4.11,3.36a19.23,19.23,0,0,1,3.78,4A16.65,16.65,0,0,1,33.58,114a.71.71,0,0,1-.49.9.73.73,0,0,1-.91-.49v-.06a15.56,15.56,0,0,0-2-4.62A20.24,20.24,0,0,0,26.65,106c-1.33-1.13-2.75-2.23-4.09-3.44a26,26,0,0,1-3.65-4,30.77,30.77,0,0,1-4.37-9.88l-1.37-5.14c-.22-.86-.46-1.72-.71-2.57-.12-.42-.25-.85-.4-1.26a1.66,1.66,0,0,0-.12-.31c0-.09-.14-.21-.11-.19A1.83,1.83,0,0,0,11.79,79.81Z"></path>
      <path class="cls-8" d="M54.39,47.31s.69,4-3.48,3.47c0,0-1.44-.33-1.18-1.36s.76-1.61,2.33-1.73A6.44,6.44,0,0,0,54.39,47.31Z"></path>
      <path class="cls-8" d="M47.26,46.84a1.87,1.87,0,0,0,.59,1.46A1.76,1.76,0,0,0,50,48c1.82-1.81-2-5.25-2.46-5.52C47.55,42.48,47.29,45.42,47.26,46.84Z"></path>
      <path class="cls-8" d="M43.35,48.41c.1,0,3.14-.9,4,.66s.27,3-1.39,2.2A6.42,6.42,0,0,1,43.35,48.41Z"></path>
      <path class="cls-8" d="M42.21,63.59a2.43,2.43,0,0,0,2.93-2.15,4.58,4.58,0,0,0-1-2.84s-.3.94-2.15,2a1.57,1.57,0,0,0-.71,2.33A1.07,1.07,0,0,0,42.21,63.59Z"></path>
      <path class="cls-8" d="M37.5,55.94s4.46.19,3.87,4.46c0,0-.68,2.1-2.12,1.37a1.78,1.78,0,0,1-.92-1.8A7.4,7.4,0,0,0,37.5,55.94Z"></path>
      <path class="cls-8" d="M38.05,64.3c-.85-.46-1.64-1.47-1-3.7,0,0,1.16.78,2.26,1.46a1.83,1.83,0,0,1,.53.5C40.54,63.64,39.2,64.92,38.05,64.3Z"></path>
      <path class="cls-8" d="M10.33,44.82s-2.06-2.74-5.57.48C4.76,45.3,11.15,48.75,10.33,44.82Z"></path>
      <path class="cls-8" d="M11.91,43.23c-.06.13-5.73,2.55-4.33-5.66,0,0,.06.93,2.56,1.71S12.59,41.9,11.91,43.23Z"></path>
      <path class="cls-8" d="M53.92,16.12s1.46,6.72-4,4.8c0,0-1.12-2.35,1.28-3.07S53.92,16.12,53.92,16.12Z"></path>
      <path class="cls-8" d="M50.13,15.36c.09.3,5.42,1.92,4.27-5.09a5.52,5.52,0,0,1-2,.91C50.65,11.71,49.22,12.48,50.13,15.36Z"></path>
      <path class="cls-8" d="M46,10.27s-4.61,5.37,0,6.91c0,0,3.36-1,1.68-3.93A25.31,25.31,0,0,1,46,10.27Z"></path>
      <path class="cls-8" d="M32.86,6.91c1.19.14,4.5-.38,2.15-6.91a25,25,0,0,1-3,2.3c-1,.69-2.3,2.26-.61,3.9A2.5,2.5,0,0,0,32.86,6.91Z"></path>
      <path class="cls-8" d="M28.44,6.43S32.56,1.54,23.83.19a9,9,0,0,1,1.15,4C24.93,6.09,27.09,7.39,28.44,6.43Z"></path>
      <path class="cls-10" d="M67,50.2s1.59,2.36-2.44,4.09"></path>
      <path class="cls-10" d="M70.65,54.29s-.71-1.77-7.08.24"></path>
      <path class="cls-10" d="M71.32,50.84S67.83,53.36,65.18,54"></path>
      <path class="cls-10" d="M66.64,56.55a2,2,0,0,0-2.13-2.26"></path>
      <path class="cls-8" d="M48.5,39.12a1.38,1.38,0,0,0-.77.21,3.17,3.17,0,0,0-.69.53A6.83,6.83,0,0,0,46,41.28a6.8,6.8,0,0,1,1-1.52,3.37,3.37,0,0,1,.68-.62,1.59,1.59,0,0,1,.93-.3.14.14,0,0,1,.14.14.14.14,0,0,1-.15.14h0Z"></path>
      <path class="cls-8" d="M46.43,40.41a10.8,10.8,0,0,1,.2-1.87,4.14,4.14,0,0,1,.3-.9,1.26,1.26,0,0,1,.66-.72.08.08,0,0,1,.09,0,.06.06,0,0,1,0,.09h0a1.28,1.28,0,0,0-.58.63,4.28,4.28,0,0,0-.31.87,10.55,10.55,0,0,0-.25,1.85s0,0,0,0S46.43,40.42,46.43,40.41Z"></path>
      <path class="cls-8" d="M45.92,38.64a5,5,0,0,1,.42.91,1.64,1.64,0,0,1,.08,1s0,0,0,0v0a1.56,1.56,0,0,0-.12-.95,6.67,6.67,0,0,0-.46-.88.07.07,0,0,1,0-.1.08.08,0,0,1,.1,0Z"></path>
      <path class="cls-10" d="M49.33,52.58a2.35,2.35,0,0,1,1-2.92"></path>
      <path class="cls-10" d="M49.7,53.52c-.9-.89-.84-5.84-.82-5.93"></path>
      <path class="cls-10" d="M46.85,50.42s2,.57,3.28,3.87"></path>
      <path class="cls-7" d="M54.51,61.6a19.73,19.73,0,0,1-1.8-2.13,25.28,25.28,0,0,1-1.54-2.28,24.37,24.37,0,0,1-1.29-2.42,23.05,23.05,0,0,1-1-2.53.31.31,0,0,1,.58-.23h0a26.24,26.24,0,0,0,1.15,2.39,25.77,25.77,0,0,0,3,4.34,18.69,18.69,0,0,0,1.8,1.86l0,0a.67.67,0,1,1-.88,1Z"></path>
      <ellipse class="cls-12" cx="29.22" cy="150.72" rx="1.2" ry="0.18"></ellipse>
      <ellipse class="cls-12" cx="35.24" cy="152.6" rx="0.51" ry="0.24" transform="translate(-38.71 14.54) rotate(-15.17)"></ellipse>
      <ellipse class="cls-12" cx="38.88" cy="149.79" rx="0.51" ry="0.17"></ellipse>
    </g>
  </g>
</svg>
