<?xml version="1.0" encoding="UTF-8"?>
<svg xmlns="http://www.w3.org/2000/svg" xmlns:xlink="http://www.w3.org/1999/xlink" viewBox="0 0 110.12 195.04">
  <defs>
    <style>.cls-1{fill:none;}.cls-2{fill:#8e6848;}.cls-3{clip-path:url(#clip-path);}.cls-4{fill:url(#Безымянный_градиент_2);}.cls-5{fill:#713e21;}.cls-6{fill:#3d271f;}.cls-7{fill:#69391e;}.cls-8{fill:#6b472f;}.cls-9{fill:#5c3624;}.cls-10{fill:#795135;}.cls-11{fill:#9a734f;}.cls-12{fill:#fff;}.cls-13{fill:#e5f199;}.cls-14{fill:#f0f5ad;}.cls-15{fill:#85563a;}.cls-16{fill:#879c3e;}.cls-17{fill:#98a945;}.cls-18{fill:#abc847;}.cls-19{fill:#cae36f;}.cls-20{fill:#6b482f;}</style>
    <clipPath id="clip-path">
      <polygon class="cls-1" points="7.72 166.37 57.69 189.88 103.91 166.48 55.86 146.12 7.72 166.37"></polygon>
    </clipPath>
    <linearGradient id="Безымянный_градиент_2" x1="-3168.27" y1="-28.85" x2="-3165.47" y2="-28.85" gradientTransform="matrix(34.36, 0, 0, -34.36, 108846.07, -823.06)" gradientUnits="userSpaceOnUse">
      <stop offset="0" stop-color="#9b714e"></stop>
      <stop offset="0.38" stop-color="#9b714e"></stop>
      <stop offset="0.89" stop-color="#764528"></stop>
      <stop offset="1" stop-color="#6e3c20"></stop>
    </linearGradient>
  </defs>
  <g id="Слой_2" data-name="Слой 2">
    <g id="Слой_1-2" data-name="Слой 1">
      <path class="cls-2" d="M57.69,123.73s9.62,11.3,17.06,11.76,32.81-7.56,32.81-7.56l2.56-26.43L57.69,83Z"></path>
      <path class="cls-2" d="M0,99.62,5.23,134.1s18.58,2.79,21.83,1.86,18.12-6.51,22.29-6.51,8.34-5.72,8.34-5.72V83Z"></path>
      <g class="cls-3">
        <rect class="cls-4" x="31.38" y="118.8" width="48.87" height="98.4" transform="translate(-114.94 214.72) rotate(-86.92)"></rect>
      </g>
      <path class="cls-5" d="M7.72,166.36,5.23,134.1s23.69-.47,30.19-3.72,22.27-6.65,22.27-6.65l-1.83,22.39Z"></path>
      <path class="cls-6" d="M41.49,136.1a8.56,8.56,0,0,0-2.84-1.67l0,0s-3.79-1.13-5.85,1.42-1.71,5.29-.77,5.73a11.08,11.08,0,0,0,1.63.34l.09,0a28.19,28.19,0,0,0,3.51-.8,1.79,1.79,0,0,0,.6-.15l.65-.19c1.49-.46,1.67-.13,2.69-1a4,4,0,0,0,1.09-2.55l-.21-.5h0l0,0a1,1,0,0,0-.58-.51"></path>
      <path class="cls-6" d="M21.2,139.43a10.79,10.79,0,0,0-4,1.33v0s-4.3,2.69-3.59,6.84,3.66,6.13,4.88,5.6a13.64,13.64,0,0,0,1.71-1.28l0-.13c.92-1.06,1.59-3.16,2.21-4.06a2,2,0,0,0,.35-.72c.11-.2.21-.42.38-.79.8-1.81,1.28-1.71,1.29-3.45a5.12,5.12,0,0,0-1.54-3.21,3.36,3.36,0,0,0-.66-.22v0h-.08a1.31,1.31,0,0,0-1,.14"></path>
      <path class="cls-7" d="M57.69,123.73l-1.83,22.39,48.06,20.36,3.64-38.55s-15-1.73-21.48-.8S68.24,130.84,64.84,129a45.07,45.07,0,0,1-7.15-5.26"></path>
      <path class="cls-6" d="M39.39,146.73a3.49,3.49,0,0,0-1.26-.31h0a2.31,2.31,0,0,0-2,1.19c-.49,1.18-.05,2.17.35,2.24l.65-.06,0,0a10.61,10.61,0,0,0,1.23-.68l.21-.13.22-.15c.51-.34.61-.23.9-.68a1.59,1.59,0,0,0,.12-1.08l-.13-.16h0Z"></path>
      <path class="cls-6" d="M86.47,137.09a2.3,2.3,0,0,0-.11-.89h0s-.38-1-1.27-1-1.43.5-1.38.78l.2.41h0l.75.63.13.11.15.11c.35.24.3.33.66.41a1.06,1.06,0,0,0,.74-.19l.07-.12h0v-.23Z"></path>
      <path class="cls-6" d="M99.89,153.28a11,11,0,0,0-1.9-3.82h0s-3.32-3.91-7.36-2.6-5.59,4.54-4.88,5.68a14.32,14.32,0,0,0,1.52,1.53l.14,0c1.19.76,3.39,1.13,4.37,1.61a2.47,2.47,0,0,0,.77.26l.84.25c1.93.55,1.9,1,3.64.79a5.15,5.15,0,0,0,3-2,3.7,3.7,0,0,0,.13-.69h0l0-.08a1.25,1.25,0,0,0-.28-.95"></path>
      <path class="cls-6" d="M73.78,140a8.37,8.37,0,0,0-1.87,2.69l0,0s-1.4,3.67,1,5.9,5.11,2.08,5.62,1.19a12.49,12.49,0,0,0,.46-1.59l0-.1a27.58,27.58,0,0,0-.52-3.53,1.72,1.72,0,0,0-.12-.61c0-.17-.07-.36-.13-.66-.35-1.5,0-1.65-.81-2.74a3.94,3.94,0,0,0-2.44-1.26l-.51.17v0l0,0a1,1,0,0,0-.54.54"></path>
      <path class="cls-8" d="M74,167.37a1.59,1.59,0,0,0,1.57-.42c.54-.69.43-1.43.17-1.54l-.44-.09c-.29,0-.32.69-.33.71Z"></path>
      <path class="cls-9" d="M73,166.79s.87.79,1.23.55.8-.46.8-.46l0-.24-1-.32-.56.19Z"></path>
      <path class="cls-10" d="M73,166.65c0,.1.12.36.4.27a5,5,0,0,0,.52-.22l.33-1c.06-.15.14-.19-.25-.06s-.45.05-.72.29a1.09,1.09,0,0,0-.28.69"></path>
      <path class="cls-11" d="M73.88,166.7A5.57,5.57,0,0,0,74,166c0-.31,0-.39.28-.43s.84-.33,1.11-.22.26.08.26.44a1.24,1.24,0,0,1-.39.86.69.69,0,0,1-.75.33,1.87,1.87,0,0,1-.64-.28"></path>
      <path class="cls-8" d="M63.28,161.24s2.39.13,3.24-1.67.26-3.36-.36-3.48a6.06,6.06,0,0,0-1,0c-.66,0-.37,1.66-.39,1.7Z"></path>
      <path class="cls-9" d="M60.93,160.42s2.3,1.32,3,.62,1.53-1.4,1.53-1.4l-.15-.52a7.22,7.22,0,0,0-2.27-.25c-.36.2-1,.62-1.16.69Z"></path>
      <path class="cls-10" d="M60.74,160.15c.11.2.43.73,1,.4a9.74,9.74,0,0,0,1.05-.75s.18-1.94.26-2.29.22-.48-.58,0-1,.31-1.44,1a2.41,2.41,0,0,0-.28,1.66"></path>
      <path class="cls-11" d="M62.78,159.8a11.05,11.05,0,0,0-.05-1.59c-.09-.7-.16-.87.42-1.09s1.68-1.12,2.32-1,.6.06.77.84a2.88,2.88,0,0,1-.41,2.1,1.61,1.61,0,0,1-1.52,1.07,4.19,4.19,0,0,1-1.53-.31"></path>
      <path class="cls-8" d="M53.32,169s1.86,1.42,3.54.43,2-2.58,1.62-3a7,7,0,0,0-.84-.53c-.55-.33-1.21,1.15-1.25,1.16Z"></path>
      <path class="cls-9" d="M51.86,167.06s1.15,2.33,2.08,2.13,2-.29,2-.29l.16-.51s-1.29-1.4-1.7-1.43-1.14-.05-1.32-.08Z"></path>
      <path class="cls-10" d="M51.86,166.74c0,.23,0,.83.59.86a8.3,8.3,0,0,0,1.26,0l1.46-1.7c.25-.25.45-.28-.47-.33s-1-.27-1.7,0a2.35,2.35,0,0,0-1.14,1.19"></path>
      <path class="cls-11" d="M53.71,167.57a11.08,11.08,0,0,0,.83-1.31c.3-.61.35-.79.93-.65s2,0,2.44.44.45.38.17,1.11a2.85,2.85,0,0,1-1.49,1.47,1.56,1.56,0,0,1-1.81,0,3.92,3.92,0,0,1-1.07-1.09"></path>
      <path class="cls-8" d="M49,162.57a2.65,2.65,0,0,0,.1-2.72c-.86-1.21-2.11-1.39-2.41-1l-.35.67c-.22.45,1,.85,1,.88Z"></path>
      <path class="cls-9" d="M47.63,163.81s1.7-1,1.49-1.73a15.08,15.08,0,0,1-.35-1.51l-.4-.09s-1,1.09-1,1.4,0,.87,0,1Z"></path>
      <path class="cls-10" d="M47.39,163.83c.18,0,.63,0,.62-.5a7.72,7.72,0,0,0-.11-1l-1.4-1c-.2-.17-.23-.32-.21.38s-.15.74.12,1.3a1.75,1.75,0,0,0,1,.78"></path>
      <path class="cls-11" d="M47.9,162.37a7.93,7.93,0,0,0-1.06-.54c-.49-.2-.62-.22-.55-.67s-.13-1.51.17-1.89.26-.37.84-.2a2.14,2.14,0,0,1,1.21,1,1.19,1.19,0,0,1,.15,1.38,3,3,0,0,1-.76.89"></path>
      <path class="cls-8" d="M40.56,164.59a1.17,1.17,0,0,0,.38-1.12c-.2-.61-.69-.85-.86-.74l-.23.24.29.48Z"></path>
      <path class="cls-9" d="M39.82,164.92s.83-.21.84-.52,0-.67,0-.67l-.15-.09-.58.45-.12.42Z"></path>
      <path class="cls-10" d="M39.71,164.9l.33-.13.08-.41-.46-.59c-.06-.1,0-.17-.13.13s-.16.29-.12.55a.81.81,0,0,0,.3.45"></path>
      <path class="cls-11" d="M40.12,164.36l-.37-.36-.15-.35.32-.76.37,0a1,1,0,0,1,.37.59.51.51,0,0,1-.12.59Z"></path>
      <path class="cls-8" d="M38,169.26s1.64-2.64.13-4.73-3.65-2.38-4.18-1.77a8.83,8.83,0,0,0-.6,1.17c-.37.77,1.66,1.46,1.69,1.51Z"></path>
      <path class="cls-9" d="M35.56,171.41s2.94-1.79,2.56-3-.63-2.62-.63-2.62l-.69-.14s-1.69,1.88-1.69,2.42.08,1.51.06,1.75Z"></path>
      <path class="cls-10" d="M35.13,171.45c.31,0,1.1,0,1.07-.87a12.17,12.17,0,0,0-.19-1.66s-2.09-1.41-2.44-1.72-.41-.56-.36.66-.25,1.29.21,2.24a3.1,3.1,0,0,0,1.71,1.35"></path>
      <path class="cls-11" d="M36,168.92a14.22,14.22,0,0,0-1.84-.93c-.85-.33-1.08-.37-1-1.16s-.23-2.61.29-3.28.45-.64,1.44-.34A3.62,3.62,0,0,1,37.05,165a2.05,2.05,0,0,1,.27,2.38A5.33,5.33,0,0,1,36,168.92"></path>
      <path class="cls-12" d="M58.53,123.4a2.69,2.69,0,0,1,.79,1.88,5.44,5.44,0,0,1-.24,1.85,12.86,12.86,0,0,1-1.51,3.25c-.33.51-.61,1-.9,1.48a8.14,8.14,0,0,0-.62,1.57,6.7,6.7,0,0,0-.07,3.33c.52,2.23,1.9,4.18,3.13,6.15a18.43,18.43,0,0,1,1.66,3.1,6,6,0,0,1,.43,1.72,2,2,0,0,1-.51,1.68.05.05,0,0,1-.08,0,.05.05,0,0,1,0-.08h0a1.88,1.88,0,0,0,.42-1.57,6.33,6.33,0,0,0-.46-1.65,18.33,18.33,0,0,0-1.71-3c-1.28-1.94-2.73-3.85-3.34-6.2a7.12,7.12,0,0,1,0-3.58,8.43,8.43,0,0,1,.62-1.7c.29-.53.59-1.06.88-1.54a12.41,12.41,0,0,0,1.36-3.11,4.66,4.66,0,0,0,.17-1.61,2,2,0,0,0-.5-1.28L58,124a.4.4,0,0,1,0-.57.41.41,0,0,1,.57,0Z"></path>
      <path class="cls-12" d="M58.94,125.87a2,2,0,0,1,.73.32,4.41,4.41,0,0,1,.58.47,6.35,6.35,0,0,1,.93,1.14,0,0,0,0,1,0,.07,0,0,0,0,1-.07,0,6.89,6.89,0,0,0-1-1,3.27,3.27,0,0,0-.58-.39,2,2,0,0,0-.6-.21h0a.19.19,0,0,1-.16-.21.19.19,0,0,1,.2-.17Z"></path>
      <path class="cls-12" d="M58.25,128.18a1.8,1.8,0,0,1,1,.51,1.43,1.43,0,0,1,.34,1,6.53,6.53,0,0,0,.09.9.82.82,0,0,0,.41.69.08.08,0,0,1,0,.09.07.07,0,0,1-.08,0,1,1,0,0,1-.61-.76,5.8,5.8,0,0,1-.2-.92,1,1,0,0,0-.32-.69,1.26,1.26,0,0,0-.69-.27h0a.29.29,0,0,1,0-.58Z"></path>
      <path class="cls-12" d="M57.67,129.76a4.16,4.16,0,0,0-1.61,0,2.87,2.87,0,0,0-1.44.75.11.11,0,0,1-.15,0,.11.11,0,0,1,0-.14,3.08,3.08,0,0,1,1.49-1,4.76,4.76,0,0,1,1.81-.19.29.29,0,0,1,.25.31.29.29,0,0,1-.3.25h0Z"></path>
      <path class="cls-12" d="M56.42,131.87a4.23,4.23,0,0,0-3.24.58.06.06,0,0,1-.08-.08,3.19,3.19,0,0,1,1.58-.83,6.36,6.36,0,0,1,1.8-.14.24.24,0,0,1,.23.25.25.25,0,0,1-.26.23h0Z"></path>
      <path class="cls-12" d="M56.1,132.11a1.19,1.19,0,0,1,1.16.44,2.33,2.33,0,0,1,.28,1.13c0,.19,0,.36.16.43a3.55,3.55,0,0,1,.47.32,6.72,6.72,0,0,1,.8.8.06.06,0,0,1-.09.07,7.12,7.12,0,0,0-.82-.73,5.35,5.35,0,0,0-.47-.29c-.23-.13-.25-.39-.29-.56a2.22,2.22,0,0,0-.29-1,.86.86,0,0,0-.84-.25h0a.19.19,0,0,1-.22-.15.18.18,0,0,1,.15-.22Z"></path>
      <path class="cls-12" d="M55.62,134.24a2.64,2.64,0,0,0-1.63.41,1.18,1.18,0,0,0-.45.66,2.18,2.18,0,0,1-.3.9c-.44.55-1.14.56-1.65.84a1,1,0,0,0-.48.7l-.26.88h0l.21-.89a1.06,1.06,0,0,1,.48-.78c.53-.32,1.21-.39,1.53-.87a1.77,1.77,0,0,0,.22-.84,1.51,1.51,0,0,1,.51-.84,3,3,0,0,1,1.83-.58.21.21,0,0,1,.21.2.2.2,0,0,1-.19.21h0Z"></path>
      <path class="cls-12" d="M51.84,136.85c0-.34-.42-.51-.77-.5a3.57,3.57,0,0,0-1.06.18,12.56,12.56,0,0,0-2,.86h0s0,0,0,0a12.81,12.81,0,0,1,2-.89,3.63,3.63,0,0,1,1.08-.21c.35,0,.84.15.88.6a.06.06,0,1,1-.11,0h0Z"></path>
      <path class="cls-12" d="M55.86,137a10.67,10.67,0,0,0-2.66,2.7,7.59,7.59,0,0,0-.87,1.7,6.34,6.34,0,0,0-.37,1.87.07.07,0,0,1-.06.07s-.06,0-.07-.07a7,7,0,0,1,.32-1.93,7.76,7.76,0,0,1,.84-1.77,11,11,0,0,1,2.65-2.88.19.19,0,1,1,.23.3h0Z"></path>
      <path class="cls-12" d="M57.21,140.29a2.64,2.64,0,0,0-1.58.49,1.16,1.16,0,0,0-.4.7,1.8,1.8,0,0,0,0,.83h0a.08.08,0,0,1,0,0,2.17,2.17,0,0,1-.53.71c-.12.11-.26.17-.29.27s.05.21.15.28h0a.07.07,0,0,1,0,.11s-.07,0-.11,0h0a.42.42,0,0,1-.2-.46c.07-.18.24-.24.33-.33a2.21,2.21,0,0,0,.51-.66v0a2.06,2.06,0,0,1-.05-.89,1.32,1.32,0,0,1,.45-.79,2.84,2.84,0,0,1,1.68-.55.09.09,0,0,1,.09.09.08.08,0,0,1-.08.09h0Z"></path>
      <path class="cls-12" d="M58.56,142.4a1.44,1.44,0,0,0-.83.46,2.34,2.34,0,0,0-.54.82,5.79,5.79,0,0,0-.42,2,.08.08,0,1,1-.15,0,5.89,5.89,0,0,1,.43-2,2.13,2.13,0,0,1,1.5-1.38.08.08,0,1,1,0,.16h0Z"></path>
      <path class="cls-12" d="M59.66,144a4.85,4.85,0,0,0-.94,1.21,1.58,1.58,0,0,0-.15,1.46s0,0,0,0,0,0,0,0a1.69,1.69,0,0,1,.1-1.53,5.3,5.3,0,0,1,.94-1.27.07.07,0,0,1,.1.1Z"></path>
      <path class="cls-12" d="M60.32,145.29a1.1,1.1,0,0,1,.83,0,2.5,2.5,0,0,1,.71.36A5.89,5.89,0,0,1,63,146.71s0,0,0,0,0,0,0,0a5.67,5.67,0,0,0-1.14-1,2.36,2.36,0,0,0-.69-.31,1,1,0,0,0-.71,0h0a.08.08,0,1,1-.08-.14Z"></path>
      <path class="cls-12" d="M61.11,147.3,63,148.48h0s0,0,0,0h0L61,147.43a.07.07,0,0,1,0-.11.08.08,0,0,1,.1,0Z"></path>
      <path class="cls-12" d="M56.36,138.45a4.18,4.18,0,0,1,2,.4A6.64,6.64,0,0,1,60,139.94a10.5,10.5,0,0,1,1.33,1.42,17.39,17.39,0,0,1,1,1.63.08.08,0,0,1,0,.11.09.09,0,0,1-.11,0,15.72,15.72,0,0,0-1.08-1.58,9.43,9.43,0,0,0-1.33-1.35,6,6,0,0,0-1.59-1,3.76,3.76,0,0,0-1.78-.33h0a.19.19,0,0,1-.21-.17.19.19,0,0,1,.17-.2Z"></path>
      <path class="cls-12" d="M57.05,138.53a6,6,0,0,1,.93-1.18,4.25,4.25,0,0,1,1.22-.89,2.7,2.7,0,0,1,1.48-.24,3,3,0,0,1,1.36.58,0,0,0,0,1,0,.06,0,0,0,0,1-.06,0h0a3,3,0,0,0-1.33-.49,2.48,2.48,0,0,0-1.36.29,5.19,5.19,0,0,0-1.93,2h0a.19.19,0,0,1-.26.07.18.18,0,0,1-.07-.25Z"></path>
      <path class="cls-12" d="M59,139.26s-.13,0-.14,0h0l0,0,.06,0,.13-.08.26-.15a2.27,2.27,0,0,1,.57-.2,1.65,1.65,0,0,1,1.15.2,0,0,0,0,1,0,0s0,0,0,0a1.56,1.56,0,0,0-1.1-.1,2.34,2.34,0,0,0-.51.23l-.23.16-.11.08-.06.05,0,0v0s-.15,0-.17,0a.12.12,0,1,1,.17-.17Z"></path>
      <path class="cls-12" d="M60.15,140.25a3.06,3.06,0,0,0-.33.87.7.7,0,0,0,.26.78s0,0,0,.06a0,0,0,0,1-.06,0,.79.79,0,0,1-.36-.88,3.08,3.08,0,0,1,.29-.95.1.1,0,0,1,.14,0,.1.1,0,0,1,0,.13Z"></path>
      <path class="cls-12" d="M61.11,141.28a2.83,2.83,0,0,1,2.25.63s0,0,0,.06,0,0,0,0a3.44,3.44,0,0,0-1-.5,2.25,2.25,0,0,0-1.12,0h0a.07.07,0,0,1-.1-.05.08.08,0,0,1,.06-.1Z"></path>
      <path class="cls-12" d="M55.57,135.59a8.8,8.8,0,0,1,1.15.13,4,4,0,0,1,.57.15.94.94,0,0,1,.49.37.08.08,0,0,1,0,.1.08.08,0,0,1-.1,0h0a1.46,1.46,0,0,0-1-.33,6.73,6.73,0,0,0-1.1,0,.2.2,0,0,1-.21-.18.2.2,0,0,1,.18-.2Z"></path>
      <path class="cls-12" d="M55,122.21a1.87,1.87,0,0,0-1.09,1.19,9.07,9.07,0,0,0-.17,1.92,1.43,1.43,0,0,1-.61,1.07,2.91,2.91,0,0,1-1.08.24.9.9,0,0,0-.68.32,1.13,1.13,0,0,0-.26.76c0,.3.07.6.09,1a1.23,1.23,0,0,1,0,.32.65.65,0,0,1-.2.32,2.12,2.12,0,0,0-.26.35c-.34.55-.64,1.15-.94,1.73a12.16,12.16,0,0,0-.78,1.82A3.55,3.55,0,0,1,48,135H48a0,0,0,0,1,0-.05,3.33,3.33,0,0,0,.83-1.74,11.62,11.62,0,0,1,.65-1.91,13.23,13.23,0,0,1,.88-1.82,2.36,2.36,0,0,1,.32-.45c.07-.07.07-.11.07-.27a8.77,8.77,0,0,1-.12-1,1.65,1.65,0,0,1,.34-1.1,1.5,1.5,0,0,1,1-.57,2.7,2.7,0,0,0,.86-.17.88.88,0,0,0,.29-.64,7.14,7.14,0,0,1,.19-2A1.75,1.75,0,0,1,55,121.84a.19.19,0,0,1,.06.36Z"></path>
      <path class="cls-12" d="M49.58,131.45a2,2,0,0,0-.92,0,2.91,2.91,0,0,0-.9.35,4.9,4.9,0,0,0-1.42,1.34.11.11,0,0,1-.13,0,.1.1,0,0,1,0-.13,5.17,5.17,0,0,1,1.46-1.41,2.53,2.53,0,0,1,2-.38.12.12,0,0,1,.09.15.13.13,0,0,1-.16.09h0Z"></path>
      <path class="cls-12" d="M47.52,131.89l-2.47.32a.05.05,0,0,1,0,0,.05.05,0,0,1,0,0l2.45-.37s.07,0,.08.06,0,.07-.06.08Z"></path>
      <path class="cls-12" d="M50.74,129.26a3.13,3.13,0,0,1,1.08,2.38,10.94,10.94,0,0,1-.06,1.29,5.87,5.87,0,0,0,0,1.24v0a.06.06,0,0,1,0,.06.06.06,0,0,1-.07,0,5.25,5.25,0,0,1,0-1.31,8.82,8.82,0,0,0,0-1.26,3,3,0,0,0-.31-1.18,2.58,2.58,0,0,0-.74-.92h0a.19.19,0,0,1,0-.27.19.19,0,0,1,.26,0Z"></path>
      <path class="cls-12" d="M51.05,127.7a14.1,14.1,0,0,1-.42,1.42,2.4,2.4,0,0,1-1.34.7,3,3,0,0,1-.73.05l-.71,0a7.65,7.65,0,0,0-1.38.19h0s0,0,0,0,0,0,0,0a7.13,7.13,0,0,1,1.42-.28c.47-.08,1,0,1.41-.14a2.19,2.19,0,0,0,1.13-.64c.11-.39.2-.9.3-1.33v0a.19.19,0,1,1,.36.09Z"></path>
      <path class="cls-12" d="M51,127.27a5.23,5.23,0,0,0-1.79.35A1.68,1.68,0,0,0,48,128.87a.08.08,0,0,1-.1.06.06.06,0,0,1-.06-.08,1.91,1.91,0,0,1,1.22-1.47,5.86,5.86,0,0,1,1.89-.49.19.19,0,0,1,.2.17.19.19,0,0,1-.17.21h0Z"></path>
      <path class="cls-12" d="M49.55,127.41c-.28,0-.55,0-.83-.08a3,3,0,0,1-.41-.09c-.14,0-.27-.16-.36-.19s-.48.18-.74.24-.5.17-.81.23c0,0,0,0,0,0a0,0,0,0,1,0-.06h0c.22,0,.52-.16.77-.23s.46-.26.8-.24a1.68,1.68,0,0,0,.76.26,7.38,7.38,0,0,0,.81.07.07.07,0,0,1,.06.07.06.06,0,0,1-.06.06Z"></path>
      <path class="cls-12" d="M53.38,125.92a5.44,5.44,0,0,0,.57,1,4.83,4.83,0,0,0,.38.4.78.78,0,0,1,.28.7,3,3,0,0,1-.4,1.18,8.42,8.42,0,0,1-.64,1,.08.08,0,0,1-.11,0,.08.08,0,0,1,0-.1h0A7.32,7.32,0,0,0,54,129a3,3,0,0,0,.27-1.08c0-.18,0-.26-.17-.34a2.78,2.78,0,0,1-.48-.42,5,5,0,0,1-.76-1,.31.31,0,0,1,.12-.42.3.3,0,0,1,.42.11v0Z"></path>
      <path class="cls-12" d="M53.75,126.9a2,2,0,0,1,.76.17,4,4,0,0,1,.65.33,7,7,0,0,1,1.13.88.06.06,0,1,1-.08.1,7.32,7.32,0,0,0-1.17-.76,5,5,0,0,0-.64-.26,1.76,1.76,0,0,0-.62-.09h0a.18.18,0,0,1-.2-.17.17.17,0,0,1,.17-.2Z"></path>
      <path class="cls-12" d="M53.65,123.39l1.53,1c.25.18.5.34.75.55s.25.63.37.85v0a.07.07,0,0,1,0,.09.07.07,0,0,1-.08,0c-.19-.31-.21-.62-.41-.8s-.5-.32-.76-.48l-1.59-.91a.18.18,0,0,1-.07-.25.18.18,0,0,1,.25-.08Z"></path>
      <path class="cls-12" d="M54.26,122.5a4.23,4.23,0,0,1-1.28-.07,5,5,0,0,0-1.22,0,.54.54,0,0,0-.22.1l-.31.17a6,6,0,0,1-.62.24c-.41.15-.87.25-1.23.37l0,0a.07.07,0,0,1-.09,0,.08.08,0,0,1,0-.09c.43-.22.82-.35,1.21-.54a3.77,3.77,0,0,0,.57-.28,2,2,0,0,0,.24-.16,1,1,0,0,1,.36-.19,4.93,4.93,0,0,1,1.36-.11,3.11,3.11,0,0,1,1.31.24.2.2,0,0,1-.06.37Z"></path>
      <path class="cls-12" d="M52.3,122.32a1.55,1.55,0,0,0-.93.64A11.23,11.23,0,0,1,51,124.2a2.14,2.14,0,0,1-.88,1,7.56,7.56,0,0,1-1.16.61.08.08,0,0,1-.11,0,.09.09,0,0,1,0-.1A7.17,7.17,0,0,0,50,125a1.86,1.86,0,0,0,.75-.94c.16-.4.16-.78.3-1.27a1.81,1.81,0,0,1,1.11-.87.19.19,0,0,1,.13.35h0Z"></path>
      <path class="cls-12" d="M60,122.19c1.22,1.2,2.4,2.39,3.72,3.52a5.35,5.35,0,0,1,1,2.45,7.21,7.21,0,0,1,.06,2.62,24.67,24.67,0,0,0-.36,2.5,3.82,3.82,0,0,0,.6,2.35,21.54,21.54,0,0,1,1.32,2.19,5.42,5.42,0,0,1,.54,2.53.1.1,0,0,1-.1.1.1.1,0,0,1-.1-.11,5.34,5.34,0,0,0-.57-2.41,22.42,22.42,0,0,0-1.35-2.14,4.17,4.17,0,0,1-.7-2.52,23.37,23.37,0,0,1,.31-2.55,6.57,6.57,0,0,0-.11-2.46,5,5,0,0,0-1-2.19c-1.3-1-2.55-2.27-3.79-3.43a.31.31,0,0,1,0-.44.31.31,0,0,1,.44,0Z"></path>
      <path class="cls-12" d="M66.58,138.69a8.73,8.73,0,0,0-.85.87,2.24,2.24,0,0,0-.55,1h0s0,.06-.07,0-.06,0-.06-.07a2.37,2.37,0,0,1,.56-1.13,7.33,7.33,0,0,1,.85-.91.09.09,0,0,1,.13,0,.09.09,0,0,1,0,.13Z"></path>
      <path class="cls-12" d="M65.2,136.18a3.11,3.11,0,0,0-1.11,2.45.06.06,0,0,1-.06.06s-.06,0-.07-.05a3,3,0,0,1,.23-1.45A3.71,3.71,0,0,1,65,136a.13.13,0,1,1,.18.19h0Z"></path>
      <path class="cls-12" d="M64.51,135.2a.78.78,0,0,1,1-.16,2.92,2.92,0,0,1,.78.48,10.24,10.24,0,0,1,1.27,1.28,0,0,0,0,1,0,.07.06.06,0,0,1-.08,0,9.76,9.76,0,0,0-1.29-1.2,2.53,2.53,0,0,0-.75-.42c-.25-.11-.56-.09-.65.08l0,0a.13.13,0,1,1-.22-.14Z"></path>
      <path class="cls-12" d="M64.58,128.5a4.31,4.31,0,0,0-1.27.95,4.7,4.7,0,0,0-.88,1.35,5.31,5.31,0,0,0-.39,1.58,7.5,7.5,0,0,0,0,1.64.05.05,0,0,1,0,.07A.08.08,0,0,1,62,134a7.83,7.83,0,0,1-.1-1.68,5.53,5.53,0,0,1,.35-1.65,4.81,4.81,0,0,1,2.22-2.55.19.19,0,0,1,.25.08.18.18,0,0,1-.07.25h0Z"></path>
      <path class="cls-12" d="M62,132.1a3.56,3.56,0,0,0-2.16,1.7.06.06,0,0,1-.09,0,.08.08,0,0,1,0-.09,3.72,3.72,0,0,1,2.23-1.86.11.11,0,0,1,.06.22h0Z"></path>
      <path class="cls-12" d="M61.4,121.25a21.75,21.75,0,0,0,2.17,1.53,4.57,4.57,0,0,0,2.44.77,3.65,3.65,0,0,1,2.55,1.06,3.79,3.79,0,0,1,.73,2.62.05.05,0,0,1-.06,0,.06.06,0,0,1-.06,0,3.78,3.78,0,0,0-.86-2.4A3.48,3.48,0,0,0,66,124a4.25,4.25,0,0,1-1.38-.23,6.72,6.72,0,0,1-1.24-.59,14,14,0,0,1-2.2-1.61.18.18,0,0,1,0-.26.19.19,0,0,1,.26,0Z"></path>
      <path class="cls-12" d="M66.1,124a.47.47,0,0,0-.42.6,3.64,3.64,0,0,0,.49.93q.3.48.57,1a5.25,5.25,0,0,1,.47,1,.12.12,0,0,1-.08.14.11.11,0,0,1-.13-.08v0a6.12,6.12,0,0,0-.47-.91c-.19-.32-.39-.62-.6-.93a3.67,3.67,0,0,1-.57-1,.8.8,0,0,1,.1-.68.93.93,0,0,1,.57-.38.19.19,0,0,1,.23.14.19.19,0,0,1-.13.23h0Z"></path>
      <path class="cls-12" d="M62.17,122a4.83,4.83,0,0,1,1.7-.42,4.28,4.28,0,0,1,1.7.24c.55.21,1,.5,1.54.68a2.61,2.61,0,0,0,1.6.16h0l0,0a0,0,0,0,1,0,0,2.75,2.75,0,0,1-1.68-.08c-.55-.16-1.06-.44-1.57-.61a4.34,4.34,0,0,0-3.15.3h0a.21.21,0,0,1-.26-.09.19.19,0,0,1,.09-.25Z"></path>
      <path class="cls-12" d="M63.66,126.28a.76.76,0,0,1,.68-.31,1.16,1.16,0,0,1,.61.25,4,4,0,0,1,.78.88,6.83,6.83,0,0,1,.57,1,1,1,0,0,0,.68.66c.68.18,1.46.22,2.17.44a7.28,7.28,0,0,1,2.06.91.08.08,0,0,1,0,.1.06.06,0,0,1-.09,0h0a7.41,7.41,0,0,0-2-.8c-.72-.2-1.43-.2-2.2-.37a1.23,1.23,0,0,1-.55-.29,1.88,1.88,0,0,1-.34-.49,6.21,6.21,0,0,0-.58-.92,3.24,3.24,0,0,0-.71-.76c-.27-.21-.57-.21-.69,0h0a.24.24,0,0,1-.31.07.22.22,0,0,1-.06-.31Z"></path>
      <path class="cls-12" d="M67.53,128.88a9.66,9.66,0,0,1,1.88,1.06,3.27,3.27,0,0,1,.72.82,5.19,5.19,0,0,0,.71.77.08.08,0,1,1-.1.13,6.21,6.21,0,0,1-.75-.79,2.91,2.91,0,0,0-.69-.78,9,9,0,0,0-1.86-1,.11.11,0,0,1-.06-.14.12.12,0,0,1,.14-.06Z"></path>
      <path class="cls-12" d="M64.7,130.37a4.06,4.06,0,0,0,1,1.25,2.63,2.63,0,0,1,.68.51c.19.21.3.52.44.7v0a.08.08,0,0,1,0,.1.08.08,0,0,1-.1,0c-.2-.25-.29-.49-.48-.68a2.24,2.24,0,0,0-.67-.45,4.35,4.35,0,0,1-1.14-1.28.15.15,0,1,1,.26-.16h0Z"></path>
      <path class="cls-12" d="M64.41,132.78a2.93,2.93,0,0,0,.87.47c.33.13.68.23,1,.36a9.19,9.19,0,0,1,2,1,7.13,7.13,0,0,0,.87.66,6.9,6.9,0,0,0,1,.38c.35.1.7.17,1.07.28a3.5,3.5,0,0,1,1,.59.06.06,0,1,1-.07.09,3.53,3.53,0,0,0-.94-.54c-.34-.09-.71-.15-1.07-.25a6.12,6.12,0,0,1-1.07-.36,9.66,9.66,0,0,1-.91-.64,8.85,8.85,0,0,0-2-.9c-.34-.11-.71-.2-1.06-.33A2.58,2.58,0,0,1,64.1,133a.18.18,0,1,1,.26-.26h0Z"></path>
      <path class="cls-12" d="M69.49,135.4a11.56,11.56,0,0,1,1,1.65,4,4,0,0,1,.52,1.87.07.07,0,0,1-.08.07.08.08,0,0,1-.07-.08h0a3.86,3.86,0,0,0-.52-1.79,11.8,11.8,0,0,0-1-1.61.09.09,0,0,1,0-.13.1.1,0,0,1,.14,0Z"></path>
      <path class="cls-13" d="M55.74,122.37s-.08,1.38.83,1.63,3,.69,3.64-1.36S55.74,122.37,55.74,122.37Z"></path>
      <path class="cls-14" d="M53.54,120c.41,1.79,1.86,3.65,5.84,2.89a3.33,3.33,0,0,0,3-2.89Z"></path>
      <path class="cls-13" d="M56.46,120a2.83,2.83,0,0,0,2.48,2.33s1.87.31,2.55-.56a4.13,4.13,0,0,0,.92-1.77Z"></path>
      <polygon class="cls-15" points="0 99.62 57.69 123.73 110.12 101.5 57.69 83 0 99.62"></polygon>
      <path class="cls-16" d="M57,19.37a56.35,56.35,0,0,1,9.9,16.26,53.89,53.89,0,0,1,3.9,18.76,38.14,38.14,0,0,1-4.07,19c-.37.74-.76,1.46-1.18,2.17l-1.17,2c-.75,1.33-1.45,2.69-2.09,4.06a24.65,24.65,0,0,0-2.51,8.24v.07a2.06,2.06,0,1,1-4.11-.28v-.08A28.12,28.12,0,0,1,58.91,80c.74-1.45,1.54-2.86,2.38-4.23l1.26-2c.4-.63.78-1.28,1.14-1.94A35.64,35.64,0,0,0,68.14,54.4a51.72,51.72,0,0,0-3-18.11A54.89,54.89,0,0,0,56.23,20.1l0,0a.54.54,0,0,1,.08-.76A.52.52,0,0,1,57,19.37Z"></path>
      <path class="cls-17" d="M77.77,25.53Q74,33.41,70.57,41.42c-2.28,5.35-4.45,10.75-6.34,16.22a80.41,80.41,0,0,0-2.37,8.3c-.59,2.82-1,5.68-1.43,8.55a143,143,0,0,0-1.19,17.27v0a1.12,1.12,0,1,1-2.24,0v0a142.5,142.5,0,0,1,1.56-17.54c.44-2.9,1-5.78,1.62-8.65a82.48,82.48,0,0,1,2.6-8.44c2-5.5,4.31-10.86,6.7-16.18S74.4,30.37,77,25.16a.42.42,0,0,1,.56-.19A.44.44,0,0,1,77.77,25.53Z"></path>
      <path class="cls-16" d="M55.57.48l-1.67,11c-.53,3.68-1,7.36-1.47,11s-1,7.34-1.28,11c-.1.91-.12,1.83-.19,2.74s-.09,1.82-.07,2.73A23.41,23.41,0,0,0,51,41.69l0,.65.13.59c.1.4.12.76.27,1.2,1.15,3.49,2.44,7,3.58,10.58.58,1.78,1.12,3.59,1.58,5.42.24.92.47,1.83.68,2.75s.43,1.85.59,2.78A96.61,96.61,0,0,1,59.4,76.9c.09,1.88.23,3.77.22,5.65s-.08,3.77-.13,5.65a1.31,1.31,0,0,1-1.34,1.28,1.33,1.33,0,0,1-1.28-1.27c-.12-3.68-.35-7.35-.71-11s-1-7.28-1.71-10.87-1.65-7.14-2.7-10.67S49.58,48.6,48.55,45a13.74,13.74,0,0,1-.3-1.55l-.13-.8,0-.74a26,26,0,0,1,0-2.92c0-1,.09-1.92.2-2.85s.17-1.89.34-2.81c.57-3.73,1.4-7.38,2.06-11,1.28-7.34,2.8-14.63,4.15-21.95a.39.39,0,0,1,.77.13Z"></path>
      <path class="cls-18" d="M37.71,14.33A14.88,14.88,0,0,1,40,18.89a27.26,27.26,0,0,1,1,4.87,36.33,36.33,0,0,1-.27,9.88C40.2,40,35.12,47.07,39.36,51A61.93,61.93,0,0,1,51.1,67c.79,1.46,1.51,3,2.21,4.46l1,2.3.87,2.34a56.24,56.24,0,0,1,2.56,9.65v.09a1.68,1.68,0,0,1-3.3.64,72.36,72.36,0,0,0-6.48-17.81,88.23,88.23,0,0,0-4.81-8.25,64.58,64.58,0,0,0-5.76-7.6,8,8,0,0,1-1.46-2.43,9.49,9.49,0,0,1-.52-2.71,12.44,12.44,0,0,1,1-5.18A57.51,57.51,0,0,0,39,33.34a34.74,34.74,0,0,0,.56-9.43c0-.79-.2-1.56-.31-2.34a22.16,22.16,0,0,0-.57-2.27,14.06,14.06,0,0,0-1.93-4.14l0-.07a.63.63,0,1,1,1-.76Z"></path>
      <path class="cls-18" d="M62.78,6a22.63,22.63,0,0,1,2.68,5.16,35.32,35.32,0,0,1,1.62,5.55,46.69,46.69,0,0,1,.75,11.5,71.67,71.67,0,0,1-5.29,22.36l-2,5.24c-.57,1.77-1.15,3.54-1.67,5.32a61.48,61.48,0,0,0-2,10.83,34.51,34.51,0,0,0,.9,10.77c.39,1.77,1,3.54,1.45,5.45a14.32,14.32,0,0,1,.45,6.35,1.68,1.68,0,1,1-3.3-.65h0A11.1,11.1,0,0,0,56,89c-.44-1.76-1-3.59-1.46-5.51a37.89,37.89,0,0,1-.84-11.77C54.47,63.88,57,56.5,60,49.5a70.72,70.72,0,0,0,5.85-21.44A45.32,45.32,0,0,0,65.6,17a33.72,33.72,0,0,0-1.27-5.41,22.33,22.33,0,0,0-2.26-5l0,0a.45.45,0,0,1,.74-.5Z"></path>
      <path class="cls-19" d="M63.17,72.68S57.62,83.78,57.44,86s2.31,6.92,2.31,6.92,1.55-8.73,2.74-11.16S63.17,72.68,63.17,72.68Z"></path>
      <path class="cls-14" d="M60.14,91.81C58.73,90.18,57,78.29,57,78.29c-.62,1.18-2.74,6.24-2.74,7a27.64,27.64,0,0,1-.36,12.24,5.34,5.34,0,0,0,0,2.26h8.81C63.19,97,61.09,92.91,60.14,91.81Z"></path>
      <path class="cls-13" d="M62.11,95.69c-1.49-3.74-2.93-4.62-3.18-7.11,0,0-3.1,7.36-2.1,11.26h6A7.18,7.18,0,0,0,62.11,95.69Z"></path>
      <path class="cls-20" d="M60.51,107.28a1.39,1.39,0,0,0-1.36-.5c-.75.23-1,.83-.92,1a2.4,2.4,0,0,0,.28.29c.19.18.58-.34.6-.34Z"></path>
      <path class="cls-9" d="M60.91,108.19s-.24-1-.63-1-.82-.07-.82-.07l-.11.18s.38.68.54.73.45.13.51.16S60.91,108.19,60.91,108.19Z"></path>
      <path class="cls-10" d="M60.88,108.32c0-.09.09-.33-.15-.4a5,5,0,0,0-.51-.11s-.61.47-.73.54-.21.07.15.18.35.19.68.15A1,1,0,0,0,60.88,108.32Z"></path>
      <path class="cls-11" d="M60.22,107.81a4.25,4.25,0,0,0-.45.45c-.18.21-.21.28-.43.17s-.78-.19-.92-.41-.15-.19,0-.45a1.09,1.09,0,0,1,.72-.44.62.62,0,0,1,.72.15A1.68,1.68,0,0,1,60.22,107.81Z"></path>
      <path class="cls-20" d="M41.19,100.26a2.06,2.06,0,0,0-2.1-.3c-1,.56-1.26,1.51-1,1.78a4.52,4.52,0,0,0,.49.33c.33.2.74-.67.76-.68Z"></path>
      <path class="cls-9" d="M42,101.45s-.65-1.41-1.21-1.31a10.76,10.76,0,0,1-1.2.15l-.1.3s.75.86,1,.89.69,0,.79.06A5.57,5.57,0,0,0,42,101.45Z"></path>
      <path class="cls-10" d="M42,101.64c0-.14,0-.5-.33-.53a4.74,4.74,0,0,0-.76,0s-.74.86-.89,1-.27.15.27.2.57.17,1,0A1.39,1.39,0,0,0,42,101.64Z"></path>
      <path class="cls-11" d="M40.94,101.12a6.29,6.29,0,0,0-.51.77c-.19.36-.22.47-.57.37s-1.18,0-1.45-.29-.26-.24-.08-.66a1.64,1.64,0,0,1,.91-.86.92.92,0,0,1,1.08,0A2.39,2.39,0,0,1,40.94,101.12Z"></path>
      <path class="cls-20" d="M54.84,97.47s-4.35-2.17-7.39.48-3.19,6-2.15,6.79a15.4,15.4,0,0,0,1.91.76c1.25.46,2-2.81,2.1-2.85S54.84,97.47,54.84,97.47Z"></path>
      <path class="cls-9" d="M58.55,100.9s-3.23-4.32-5.06-3.56-4,1.37-4,1.37l-.12,1.09s3.18,2.36,4,2.29,2.35-.35,2.72-.35A18.26,18.26,0,0,0,58.55,100.9Z"></path>
      <path class="cls-10" d="M58.68,101.56c0-.48-.22-1.72-1.52-1.55a18.42,18.42,0,0,0-2.56.55s-1.91,3.46-2.33,4-.81.72,1.08.48,2,.19,3.47-.67A4.91,4.91,0,0,0,58.68,101.56Z"></path>
      <path class="cls-11" d="M54.6,100.56a21.74,21.74,0,0,0-1.19,3c-.4,1.37-.41,1.75-1.66,1.68s-4,.74-5.15,0-1.07-.6-.76-2.19,1-2.33,2.47-3.57A3.24,3.24,0,0,1,52,98.74,8.42,8.42,0,0,1,54.6,100.56Z"></path>
      <path class="cls-20" d="M71.57,98.86s-2.5-3.41-5.91-2.57-4.88,3.42-4.36,4.4A12.65,12.65,0,0,0,62.47,102c.79.86,2.69-1.36,2.77-1.37S71.57,98.86,71.57,98.86Z"></path>
      <path class="cls-9" d="M73.08,103s-.78-4.63-2.5-4.77S67,97.69,67,97.69l-.54.8s1.53,3.09,2.2,3.37,2,.67,2.25.81A15.32,15.32,0,0,0,73.08,103Z"></path>
      <path class="cls-10" d="M72.91,103.55c.16-.39.52-1.41-.56-1.8a15.77,15.77,0,0,0-2.2-.6s-2.84,1.92-3.4,2.21-.92.24.64.8,1.5,1,3,.87A4.25,4.25,0,0,0,72.91,103.55Z"></path>
      <path class="cls-11" d="M70.15,101.15A19.51,19.51,0,0,0,68,103c-.85.9-1,1.18-2,.64s-3.42-1-4-2-.59-.89.29-2,1.73-1.39,3.32-1.77a2.81,2.81,0,0,1,3.16.86A7.19,7.19,0,0,1,70.15,101.15Z"></path>
      <path class="cls-20" d="M59.92,100.63s-3.6-2.78-6.86-.9-4,5-3.19,5.84a13.87,13.87,0,0,0,1.61,1c1.06.65,2.37-2.21,2.44-2.24S59.92,100.63,59.92,100.63Z"></path>
      <path class="cls-9" d="M62.7,104.44s-2.17-4.54-4-4.18-3.9.54-3.9.54l-.31,1s2.49,2.74,3.27,2.82,2.22.11,2.56.17A16.43,16.43,0,0,0,62.7,104.44Z"></path>
      <path class="cls-10" d="M62.7,105.07c0-.45.11-1.61-1.11-1.69a17.27,17.27,0,0,0-2.45,0s-2.37,2.82-2.86,3.29-.88.51.9.63,1.84.55,3.3,0A4.6,4.6,0,0,0,62.7,105.07Z"></path>
      <path class="cls-11" d="M59.14,103.42A21.34,21.34,0,0,0,57.51,106c-.61,1.19-.69,1.53-1.82,1.25s-3.84-.06-4.73-.91-.87-.75-.3-2.14,1.38-2,2.91-2.83a3,3,0,0,1,3.51,0A7.76,7.76,0,0,1,59.14,103.42Z"></path>
      <path class="cls-20" d="M78.64,106.93a2.19,2.19,0,0,0,2-1c.53-1.09.18-2-.19-2.14-.11,0-.42,0-.62,0-.4,0-.24,1-.25,1S78.64,106.93,78.64,106.93Z"></path>
      <path class="cls-9" d="M77.21,106.41s1.4.83,1.82.4,1-.84,1-.84l-.09-.32a4.7,4.7,0,0,0-1.38-.17c-.23.12-.61.37-.72.41A6.78,6.78,0,0,0,77.21,106.41Z"></path>
      <path class="cls-10" d="M77.1,106.24c.07.13.26.45.6.25a5.34,5.34,0,0,0,.65-.44s.13-1.18.18-1.39.14-.3-.36,0-.59.18-.88.58A1.48,1.48,0,0,0,77.1,106.24Z"></path>
      <path class="cls-11" d="M78.35,106.05a6.8,6.8,0,0,0,0-1c0-.43-.08-.54.27-.66s1-.67,1.43-.6.36,0,.46.52a1.74,1.74,0,0,1-.27,1.27,1,1,0,0,1-.94.64A2.44,2.44,0,0,1,78.35,106.05Z"></path>
      <path class="cls-20" d="M30.7,109.43a2.19,2.19,0,0,0,2-1c.53-1.09.18-2-.19-2.14-.1,0-.42,0-.62,0-.4,0-.24,1-.25,1S30.7,109.43,30.7,109.43Z"></path>
      <path class="cls-9" d="M29.27,108.91s1.4.83,1.82.4.95-.84.95-.84l-.09-.32a4.7,4.7,0,0,0-1.38-.17c-.23.12-.61.37-.72.41A6.78,6.78,0,0,0,29.27,108.91Z"></path>
      <path class="cls-10" d="M29.16,108.74c.07.13.26.45.6.25a5.34,5.34,0,0,0,.65-.44s.13-1.18.18-1.39.14-.3-.35,0-.59.18-.89.58A1.48,1.48,0,0,0,29.16,108.74Z"></path>
      <path class="cls-11" d="M30.41,108.55a7.87,7.87,0,0,0,0-1c0-.43-.09-.54.26-.66s1-.67,1.43-.6.36,0,.46.52a1.74,1.74,0,0,1-.27,1.27,1,1,0,0,1-.94.64A2.44,2.44,0,0,1,30.41,108.55Z"></path>
      <path class="cls-20" d="M44.39,107.71A2.8,2.8,0,0,0,47,106.63c.78-1.34.42-2.6-.05-2.73a5.5,5.5,0,0,0-.79-.05c-.51,0-.39,1.27-.41,1.3S44.39,107.71,44.39,107.71Z"></path>
      <path class="cls-9" d="M42.63,106.91s1.7,1.18,2.27.68,1.28-1,1.28-1l-.09-.41a5.62,5.62,0,0,0-1.74-.34c-.29.13-.81.41-.94.46A7,7,0,0,0,42.63,106.91Z"></path>
      <path class="cls-10" d="M42.5,106.69c.07.17.29.6.74.38a8,8,0,0,0,.86-.52s.27-1.49.35-1.75.21-.37-.45,0-.76.17-1.18.66A1.9,1.9,0,0,0,42.5,106.69Z"></path>
      <path class="cls-11" d="M44.1,106.55a8.93,8.93,0,0,0,.07-1.23c0-.55-.07-.69.39-.82s1.38-.76,1.87-.64.46.09.55.7a2.26,2.26,0,0,1-.46,1.6,1.27,1.27,0,0,1-1.25.74A3.34,3.34,0,0,1,44.1,106.55Z"></path>
      <path class="cls-20" d="M54.39,105.76a1.76,1.76,0,0,1,1.62-.24c.8.36,1,1,.82,1.19a3.13,3.13,0,0,1-.37.23c-.25.15-.59-.44-.61-.44Z"></path>
      <path class="cls-9" d="M53.76,106.59s.48-1,.91-.91.94.07.94.07l.08.21s-.56.59-.75.62-.52,0-.6.06S53.76,106.59,53.76,106.59Z"></path>
      <path class="cls-10" d="M53.77,106.72c0-.09,0-.34.25-.36a4.83,4.83,0,0,1,.58,0s.59.57.72.67.21.1-.21.14-.43.13-.79,0A1.05,1.05,0,0,1,53.77,106.72Z"></path>
      <path class="cls-11" d="M54.6,106.34a5.07,5.07,0,0,1,.42.52c.15.24.18.32.44.25s.92,0,1.12-.24.2-.16.05-.45a1.25,1.25,0,0,0-.72-.57.8.8,0,0,0-.84,0A1.75,1.75,0,0,0,54.6,106.34Z"></path>
      <path class="cls-20" d="M69.06,101.64s-3.38-2.5-6.36-.7-3.62,4.68-2.84,5.46a11.25,11.25,0,0,0,1.5.93c1,.58,2.15-2.08,2.22-2.11S69.06,101.64,69.06,101.64Z"></path>
      <path class="cls-9" d="M71.71,105.11s-2.1-4.16-3.78-3.79-3.6.57-3.6.57l-.27.92s2.36,2.48,3.08,2.55,2,0,2.37.1A15.19,15.19,0,0,0,71.71,105.11Z"></path>
      <path class="cls-10" d="M71.72,105.69c0-.41.07-1.49-1.06-1.54a16.41,16.41,0,0,0-2.27.08s-2.13,2.66-2.58,3.1-.8.5.85.57,1.71.47,3-.05A4.22,4.22,0,0,0,71.72,105.69Z"></path>
      <path class="cls-11" d="M68.39,104.23a19.31,19.31,0,0,0-1.46,2.38c-.54,1.11-.61,1.43-1.66,1.18s-3.55,0-4.39-.74-.82-.67-.32-2,1.24-1.83,2.64-2.67a2.82,2.82,0,0,1,3.25-.11A7.23,7.23,0,0,1,68.39,104.23Z"></path>
      <path class="cls-20" d="M51,105.54s-2.77-.5-4,1.46-.79,3.88-.09,4.12a6.86,6.86,0,0,0,1.18.11c.77.06.67-1.88.71-1.92S51,105.54,51,105.54Z"></path>
      <path class="cls-9" d="M53.64,106.85s-2.49-1.88-3.38-1.16a23.6,23.6,0,0,1-2,1.4l.11.63a8.47,8.47,0,0,0,2.6.62c.46-.17,1.25-.57,1.46-.63A10.87,10.87,0,0,0,53.64,106.85Z"></path>
      <path class="cls-10" d="M53.82,107.19c-.1-.26-.4-.91-1.09-.61a11.38,11.38,0,0,0-1.34.72s-.5,2.23-.63,2.62-.34.54.67.09,1.17-.22,1.82-.93A2.81,2.81,0,0,0,53.82,107.19Z"></path>
      <path class="cls-11" d="M51.39,107.3a12.12,12.12,0,0,0-.17,1.86c0,.82.05,1-.65,1.2s-2.12,1.06-2.86.85-.69-.17-.77-1.1a3.34,3.34,0,0,1,.79-2.38,1.87,1.87,0,0,1,1.92-1A4.72,4.72,0,0,1,51.39,107.3Z"></path>
    </g>
  </g>
</svg>
