<?xml version="1.0" encoding="UTF-8"?>
<svg xmlns="http://www.w3.org/2000/svg" xmlns:xlink="http://www.w3.org/1999/xlink" viewBox="0 0 194.42 247.02">
  <defs>
    <style>.cls-1,.cls-14{fill:none;}.cls-2{fill:#956d4b;}.cls-3{clip-path:url(#clip-path);}.cls-4{fill:url(#Безымянный_градиент_4);}.cls-5{fill:#754120;}.cls-6{fill:#44281c;}.cls-7{fill:#6c3c1d;}.cls-8{fill:#714d31;}.cls-9{fill:#613822;}.cls-10{fill:#7f5637;}.cls-11{fill:#a07850;}.cls-12{fill:#772f46;}.cls-13{fill:#97385c;}.cls-14{stroke:#772f46;stroke-linecap:round;stroke-linejoin:round;stroke-width:0.8px;}.cls-15{fill:#8b5b3c;}.cls-16{fill:#85a93c;}.cls-17{fill:#75923a;}.cls-18{fill:url(#Безымянный_градиент_3);}.cls-19{fill:#613922;}</style>
    <clipPath id="clip-path">
      <polygon class="cls-1" points="36.16 181.77 86.12 205.29 132.34 181.88 84.29 161.52 36.16 181.77"></polygon>
    </clipPath>
    <linearGradient id="Безымянный_градиент_4" x1="-4258.45" y1="-672.13" x2="-4255.65" y2="-672.13" gradientTransform="matrix(34.36, 0, 0, -34.36, 146329.14, -22908.31)" gradientUnits="userSpaceOnUse">
      <stop offset="0" stop-color="#a17551"></stop>
      <stop offset="0.38" stop-color="#a17551"></stop>
      <stop offset="0.89" stop-color="#7a4928"></stop>
      <stop offset="1" stop-color="#72401f"></stop>
    </linearGradient>
    <linearGradient id="Безымянный_градиент_3" x1="-40.71" y1="100.89" x2="13.62" y2="100.89" gradientTransform="translate(47.83 -31.47) rotate(-1.77)" gradientUnits="userSpaceOnUse">
      <stop offset="0" stop-color="#75923a"></stop>
      <stop offset="1" stop-color="#85a93c"></stop>
    </linearGradient>
  </defs>
  <g id="Слой_2" data-name="Слой 2">
    <g id="Слой_1-2" data-name="Слой 1">
      <path class="cls-2" d="M86.12,139.13s9.63,11.3,17.06,11.76S136,143.33,136,143.33l2.56-26.43L86.12,98.41Z"></path>
      <path class="cls-2" d="M28.43,115l5.23,34.47s18.58,2.79,21.83,1.86,18.12-6.51,22.3-6.51,8.33-5.72,8.33-5.72V98.41Z"></path>
      <g class="cls-3">
        <rect class="cls-4" x="59.82" y="134.2" width="48.87" height="98.4" transform="translate(-103.41 257.69) rotate(-86.92)"></rect>
      </g>
      <path class="cls-5" d="M36.16,181.77l-2.5-32.27s23.69-.46,30.19-3.72,22.27-6.65,22.27-6.65l-1.83,22.39Z"></path>
      <path class="cls-6" d="M69.92,151.5a8.44,8.44,0,0,0-2.84-1.66l0,0s-3.78-1.13-5.85,1.41-1.71,5.29-.77,5.73a12.35,12.35,0,0,0,1.63.35l.09-.05a27.86,27.86,0,0,0,3.51-.79,1.83,1.83,0,0,0,.61-.16l.65-.19c1.48-.46,1.66-.13,2.68-1a4,4,0,0,0,1.09-2.55l-.21-.5h0l0,0a1,1,0,0,0-.59-.51"></path>
      <path class="cls-6" d="M49.64,154.83a11,11,0,0,0-4,1.33v0S41.31,158.82,42,163s3.66,6.13,4.88,5.6a13.64,13.64,0,0,0,1.71-1.28l0-.13c.92-1,1.6-3.16,2.21-4a2.1,2.1,0,0,0,.35-.72c.11-.21.21-.42.38-.79.81-1.82,1.28-1.71,1.29-3.46a5.12,5.12,0,0,0-1.54-3.21,3.47,3.47,0,0,0-.65-.22v0h-.07a1.3,1.3,0,0,0-1,.14"></path>
      <path class="cls-7" d="M86.12,139.13l-1.83,22.39,48.06,20.36L136,143.33s-15-1.73-21.48-.8-17.83,3.72-21.24,1.86a45.07,45.07,0,0,1-7.15-5.26"></path>
      <path class="cls-6" d="M67.82,162.13a3.48,3.48,0,0,0-1.25-.31h0a2.29,2.29,0,0,0-2,1.18c-.49,1.18,0,2.18.35,2.24l.65-.06,0,0a12.3,12.3,0,0,0,1.23-.69l.21-.13.22-.14c.51-.34.61-.24.9-.69a1.52,1.52,0,0,0,.12-1.08l-.13-.16h0Z"></path>
      <path class="cls-6" d="M114.9,152.49a2.32,2.32,0,0,0-.11-.89h0s-.38-1-1.27-1-1.43.5-1.37.78l.19.41h0l.75.63.13.11.15.11c.35.24.31.34.67.41a1,1,0,0,0,.73-.19l.07-.12h0v-.23Z"></path>
      <path class="cls-6" d="M128.32,168.68a11,11,0,0,0-1.9-3.82h0s-3.32-3.91-7.35-2.59-5.6,4.53-4.89,5.68a13.68,13.68,0,0,0,1.53,1.52l.13,0c1.19.77,3.39,1.13,4.37,1.61a2.24,2.24,0,0,0,.77.26l.84.26c1.94.54,1.9,1,3.64.79a5.19,5.19,0,0,0,3-2,3,3,0,0,0,.13-.68h0l0-.07a1.23,1.23,0,0,0-.28-1"></path>
      <path class="cls-6" d="M102.21,155.39a8.48,8.48,0,0,0-1.87,2.69v0s-1.41,3.67,1,5.9,5.11,2.09,5.62,1.19a11,11,0,0,0,.46-1.59l0-.1a27.85,27.85,0,0,0-.52-3.53,1.8,1.8,0,0,0-.11-.61c0-.17-.07-.35-.14-.66-.35-1.5,0-1.65-.81-2.74a4,4,0,0,0-2.44-1.26l-.51.17h0l0,0a.91.91,0,0,0-.54.53"></path>
      <path class="cls-8" d="M102.39,182.77a1.58,1.58,0,0,0,1.57-.41c.54-.7.43-1.44.17-1.55l-.44-.09c-.29,0-.32.69-.33.71Z"></path>
      <path class="cls-9" d="M101.45,182.19s.87.79,1.24.55a8.71,8.71,0,0,1,.8-.46l0-.24-1-.32-.57.19Z"></path>
      <path class="cls-10" d="M101.39,182.06c0,.1.12.35.4.26a4.09,4.09,0,0,0,.52-.22l.33-1c.07-.14.14-.19-.25-.06s-.45.05-.72.29a1.11,1.11,0,0,0-.28.7"></path>
      <path class="cls-11" d="M102.31,182.1a4.1,4.1,0,0,0,.13-.7c0-.31,0-.39.29-.43s.83-.33,1.1-.22.26.08.26.44a1.31,1.31,0,0,1-.38.87.72.72,0,0,1-.76.32,1.87,1.87,0,0,1-.64-.28"></path>
      <path class="cls-8" d="M91.71,176.65s2.39.12,3.24-1.67.26-3.36-.36-3.49a6.06,6.06,0,0,0-1,0c-.65,0-.37,1.66-.39,1.7Z"></path>
      <path class="cls-9" d="M89.36,175.82s2.3,1.32,3,.62,1.54-1.4,1.54-1.4l-.16-.52a7.53,7.53,0,0,0-2.27-.25c-.36.2-1,.62-1.15.69Z"></path>
      <path class="cls-10" d="M89.17,175.55c.11.21.44.73,1,.4a8.38,8.38,0,0,0,1-.75s.18-1.94.26-2.29.22-.48-.58,0-1,.31-1.44,1a2.41,2.41,0,0,0-.28,1.66"></path>
      <path class="cls-11" d="M91.21,175.2a11.07,11.07,0,0,0,0-1.59c-.09-.7-.16-.87.42-1.08s1.68-1.13,2.32-1,.6.06.77.84a2.83,2.83,0,0,1-.41,2.1,1.61,1.61,0,0,1-1.51,1.07,4,4,0,0,1-1.54-.31"></path>
      <path class="cls-8" d="M81.75,184.41s1.87,1.42,3.54.43,2-2.58,1.62-3a7,7,0,0,0-.84-.53c-.55-.33-1.21,1.15-1.24,1.17Z"></path>
      <path class="cls-9" d="M80.3,182.46s1.14,2.33,2.08,2.14a20,20,0,0,1,2-.3l.16-.5s-1.29-1.4-1.7-1.44-1.14-.05-1.31-.08Z"></path>
      <path class="cls-10" d="M80.3,182.14c0,.23,0,.83.58.87a10.13,10.13,0,0,0,1.26,0l1.46-1.71c.25-.25.45-.27-.47-.33s-.95-.27-1.7,0a2.31,2.31,0,0,0-1.13,1.19"></path>
      <path class="cls-11" d="M82.14,183a11.08,11.08,0,0,0,.83-1.31c.31-.61.35-.79.93-.65s2,0,2.44.44.45.39.17,1.11A2.81,2.81,0,0,1,85,184a1.58,1.58,0,0,1-1.81,0,4,4,0,0,1-1.07-1.1"></path>
      <path class="cls-8" d="M77.46,178a2.68,2.68,0,0,0,.09-2.73c-.86-1.21-2.1-1.39-2.41-1l-.35.68c-.22.44,1,.84,1,.87Z"></path>
      <path class="cls-9" d="M76.06,179.21s1.7-1,1.49-1.72A15.08,15.08,0,0,1,77.2,176l-.4-.09s-1,1.08-1,1.39,0,.87,0,1Z"></path>
      <path class="cls-10" d="M75.82,179.23c.18,0,.64,0,.62-.5a6,6,0,0,0-.11-1l-1.4-1c-.2-.17-.23-.32-.21.38s-.15.74.12,1.3a1.75,1.75,0,0,0,1,.78"></path>
      <path class="cls-11" d="M76.33,177.77a7.93,7.93,0,0,0-1.06-.54c-.48-.19-.62-.21-.55-.67s-.12-1.51.18-1.89.26-.37.83-.2a2.12,2.12,0,0,1,1.21,1,1.17,1.17,0,0,1,.15,1.38,3,3,0,0,1-.76.88"></path>
      <path class="cls-8" d="M69,180a1.15,1.15,0,0,0,.38-1.12c-.2-.61-.69-.84-.86-.73l-.23.23.29.49Z"></path>
      <path class="cls-9" d="M68.25,180.32s.84-.2.84-.52,0-.67,0-.67L69,179l-.58.45-.12.42Z"></path>
      <path class="cls-10" d="M68.15,180.3l.32-.13.08-.41-.45-.59c-.07-.1-.06-.17-.14.13s-.16.29-.12.55a.76.76,0,0,0,.31.45"></path>
      <path class="cls-11" d="M68.55,179.76l-.37-.36-.15-.35.32-.76.37,0a1,1,0,0,1,.37.59.51.51,0,0,1-.11.59Z"></path>
      <path class="cls-8" d="M66.39,184.66s1.64-2.64.13-4.72-3.65-2.39-4.18-1.77a8.62,8.62,0,0,0-.6,1.16c-.37.77,1.66,1.46,1.69,1.51Z"></path>
      <path class="cls-9" d="M64,186.82s2.94-1.8,2.56-3-.63-2.62-.63-2.62l-.69-.14s-1.69,1.88-1.69,2.42.08,1.51.06,1.75Z"></path>
      <path class="cls-10" d="M63.56,186.85c.31,0,1.1,0,1.08-.87a13.5,13.5,0,0,0-.2-1.66s-2.08-1.41-2.43-1.72-.41-.56-.37.66-.25,1.29.22,2.25a3.07,3.07,0,0,0,1.7,1.34"></path>
      <path class="cls-11" d="M64.44,184.32a14.22,14.22,0,0,0-1.84-.93c-.84-.33-1.08-.37-1-1.16s-.22-2.61.29-3.27.45-.65,1.44-.35a3.69,3.69,0,0,1,2.12,1.78,2.05,2.05,0,0,1,.27,2.38,5.33,5.33,0,0,1-1.31,1.55"></path>
      <path class="cls-12" d="M77.73,127a70.74,70.74,0,0,0-1.13,17.18c.34,9.16,5.34,21.3,6.37,24.09a37.3,37.3,0,0,1,2.09,10.14c.06,1.47.34,6.92,1.61,6s1.47-6,1.47-6a29.38,29.38,0,0,1,.6-5.27c.59-2.69,2.65-9.86,5-20.21a78.43,78.43,0,0,0,1-25.94Z"></path>
      <path class="cls-13" d="M84.59,127h-5.9c-3.76,13,6,41.17,6,41.17C80.78,145.14,82.35,133.18,84.59,127Z"></path>
      <path class="cls-12" d="M88.21,175.67c-.16,1.3-.24,2.84-.29,4.27s-.07,2.94-.07,4.41c0,3,.05,5.9.16,8.86.18,5.93.64,11.8,1.21,17.74a57.24,57.24,0,0,1,.25,9.09c-.23,3.05-.75,6-1.23,8.93s-1,5.86-1.38,8.79a45.38,45.38,0,0,0-.47,8.78h0A.44.44,0,0,1,86,247a.43.43,0,0,1-.46-.37,42,42,0,0,1-.14-9c.22-3,.58-6,1-8.91s.74-5.9.88-8.79a54.51,54.51,0,0,0-.44-8.72c-.71-5.89-1.32-11.88-1.64-17.84-.17-3-.31-6-.33-9,0-1.5,0-3,0-4.51s.1-3,.29-4.63a1.56,1.56,0,1,1,3.09.36h0Z"></path>
      <path class="cls-14" d="M84,170.35s-5.44,5.84-5.17,12.88"></path>
      <path class="cls-14" d="M80.59,175.55s-4.81,1.71-5.88,6.48"></path>
      <path class="cls-14" d="M89.07,170.8A11.78,11.78,0,0,1,92.53,178"></path>
      <path class="cls-14" d="M87.74,179.5s4.38,6.34,2.66,10.45"></path>
      <path class="cls-14" d="M85.33,178.9s-3.32,5.83-2.53,9.68"></path>
      <path class="cls-14" d="M85.62,192.83a12.18,12.18,0,0,0-5.44,12.48"></path>
      <path class="cls-14" d="M81.17,197.87s-4.77,1.73-5.57,3.59"></path>
      <path class="cls-14" d="M86.62,199.66s-3.3,3.26-4.77,11.88"></path>
      <path class="cls-14" d="M87.55,200.72a20,20,0,0,0,3.71.8c.53-.13,3-2.65,8.23.8"></path>
      <path class="cls-14" d="M91.79,201.39s2.79.13,4.78,4.91"></path>
      <path class="cls-14" d="M88.28,209.69s-4.18,4.91-3.79,7.16"></path>
      <path class="cls-14" d="M86.62,211.86A10.52,10.52,0,0,0,80.68,220"></path>
      <path class="cls-14" d="M89.37,216.85a7.73,7.73,0,0,1,4.44,5.31"></path>
      <path class="cls-14" d="M92.09,218.84s3.45-1.59,5.84,2.79"></path>
      <path class="cls-14" d="M77.26,141.2s-6.17,5.18-6,10a27.87,27.87,0,0,1-1,8.56"></path>
      <path class="cls-14" d="M71.3,152.61s3.44,2.86,3.7,5.58"></path>
      <path class="cls-14" d="M73.15,145.81s-3.59,3.49-4.45,4.65"></path>
      <path class="cls-14" d="M94.18,134.67c.2.2,7,8.62,9.42,9.75"></path>
      <path class="cls-14" d="M98.63,139.85A39,39,0,0,1,100,145c0,.93-.73,3.12,0,4.45"></path>
      <path class="cls-14" d="M100,144.39s2.85,3.62,3.19,5.08a6.68,6.68,0,0,1,0,2.78"></path>
      <polygon class="cls-15" points="28.24 115.33 86.17 140.84 138.81 117.31 86.17 97.74 28.24 115.33"></polygon>
      <path class="cls-16" d="M142.15,79.18a53.23,53.23,0,0,1,50.26,2.43s6.69,3.58-4.34,1.33c0,0-6.47,0-7.56,0s-6.73,1.33-8.23,1.36-3.5,2.49-7.26,3.41-2.23,2-5.2,2.45-10.38,2.51-11.84.36a20.81,20.81,0,0,0-4.52-4.34c-1.12-1-1.14-1.58-1.18-3S141.08,79.71,142.15,79.18Z"></path>
      <path class="cls-17" d="M94.78,99.5s8.12-7.82,7.39-14.43-2.27-8.83-.88-11-.61-7,1.29-9.86,2.72-2.34,6-3.11,3.15-1.42,4.79-4,14-2.69,17.91,3.83,1.47-4.16,1.47-4.16-2.19-10.56-7.47-13.85-5.81-7.65-8.21-8-9.59,3.35-10.33,5.1S95,45.46,93.26,50.42,82.41,68.68,92.9,85.89c0,0,2.63,7.88,1.39,10.71S92.21,102.37,94.78,99.5Z"></path>
      <g id="_1" data-name="1">
        <path class="cls-12" d="M130,57.93a16.41,16.41,0,0,0-1.35-2.48c-.26-.4-.56-.78-.84-1.18s-.61-.74-.92-1.11a17.81,17.81,0,0,0-4.45-3.62,15.4,15.4,0,0,0-5.4-1.73,13.56,13.56,0,0,0-1.43-.06,9.62,9.62,0,0,0-1.42,0l-1.43.17a6.77,6.77,0,0,0-1.4.26A27.36,27.36,0,0,0,101,53.1a16.22,16.22,0,0,0-6.1,9.24,24.91,24.91,0,0,0,.39,11.31c.42,1.89,1,3.75,1.56,5.64.29.94.58,1.89.85,2.86.13.49.25,1,.36,1.51.06.25.1.53.14.79l.13.67a15.07,15.07,0,0,1,0,6.31,21,21,0,0,1-2.21,5.84,43.23,43.23,0,0,1-7.39,9.65A1.34,1.34,0,0,1,86.84,105h0l0,0a40.53,40.53,0,0,0,7.06-9,18.52,18.52,0,0,0,2-5.13,12.74,12.74,0,0,0,0-5.36l-.13-.8c0-.22-.06-.43-.11-.65-.08-.45-.19-.9-.3-1.36-.24-.93-.51-1.87-.79-2.82-.54-1.9-1.08-3.83-1.5-5.81A26.94,26.94,0,0,1,93,61.87a17.59,17.59,0,0,1,2.58-5.72A19.56,19.56,0,0,1,99.9,51.7a29,29,0,0,1,11.09-5,7.88,7.88,0,0,1,1.53-.25l1.54-.16a11.6,11.6,0,0,1,1.56,0c.52,0,1,0,1.56.09a16.81,16.81,0,0,1,5.89,2,18.17,18.17,0,0,1,4.66,4,16.44,16.44,0,0,1,3,5.36A.38.38,0,0,1,130,58Z"></path>
      </g>
      <path class="cls-16" d="M96.61,81.39c2.77-7,6.3-15.33,7.69-17.5s4.55-7.54,6.45-10.34,5-9.67-.49-15.74c0,0-.94-.5,0-3.18a50.54,50.54,0,0,0,2.47-8.58c.61-3.34,11.5-7.66,12.59-2.38,0,0,1.39-2.3,1.24-7.08S124.51,9,121.67,7.32s-9.38-2.63-15.35,1.8S98,15.22,96.6,16.86s-5.1,2.41-2.92,8.59.61,6.75.25,8.09,1.36,5.14.36,7.16S86.54,48,86.61,50a23.8,23.8,0,0,1,.13,4.34c-.22,1.38-3,5.31-2.28,7.81s1.85,4.13,1.4,6.63-3.35,3.39.88,7.11,5.66,6.86,6.62,7.76S95,85.42,96.61,81.39Z"></path>
      <path class="cls-18" d="M64.23,93.08a14.51,14.51,0,0,1-.18-6c.56-3.47,2.33-8.64-1.6-11.17s-4.55-3.24-4.29-5.71,4-7.76-1.3-11.78-7.17.09-11.78-5.27-4.52-6.64-11.16-8.69-15.48,5.86-17.13,8.37A11.09,11.09,0,0,0,15.64,63c1.51,3.81-2.64,4.86-2.9,4.94a3.42,3.42,0,0,0-1.62,5.49c2.5,3.78,5.12,11.38,6.31,11.33S19.48,82,19.8,79.52s1.3-5.22,2.14-6,3.26-2.1,3.33-3.89-.57-5.76,1-6.67,6.39-6.11,17.49,5.17c0,0,3.47,2.88,4.3,6s-1.46,4.09,1.61,6.79,8,6.92,8.32,7.37S65.12,98.7,64.23,93.08Z"></path>
      <path class="cls-17" d="M58.45,15.25s1.21.23,4.32-4.38S67.11,3.56,67.59,2,69.1-.88,70.21.81s1.21,4.61,6,4.73,3-1.2,5.6,1.53,3.38,1.25,5.45,3.57,2.39,4.31,3.87,4.93-8.27,7.56-3.79,15S91.84,43,88.2,49.92,85.56,65.8,84.32,67.43s-9.87-2.75-11.59-11.06-13.4-21.23-15.3-26.75S54.52,17.23,58.45,15.25Z"></path>
      <path class="cls-17" d="M62.25,69.48S52.19,61.92,49.32,59.35s-3.27-6.93-2.46-10.94-1-6.48-6.24-8.57a40,40,0,0,0-20.13-2.57s-1.55,1.37-1.91-1.6,2.1-5-3-9.93c0,0-1.85.32-1.82-3s.8-4.14-3-6.54a3.14,3.14,0,0,1-3.43-3.35c0-3.59-5.94-7.52-6.75-8.16s-1.39-1.81,2-.59S10,6.79,13.17,6.83s8-.78,10.1.08,4.07,2.8,5.95,3.54,12.26,1.61,16.69,11.7c0,0,8.22,3.86,12.82,15.13S65.66,55.43,66,61,65.76,75.78,62.25,69.48Z"></path>
      <path class="cls-12" d="M11,8.78a25.26,25.26,0,0,1,6,1.66c.95.42,1.92.79,2.84,1.25l2.73,1.45a64.31,64.31,0,0,1,10,7.24l2.31,2.05c.8.66,1.46,1.45,2.19,2.17l2.15,2.23c.35.37.72.73,1.06,1.12l1,1.18,4,4.74,3.61,5c.59.84,1.24,1.65,1.78,2.52L52.27,44l3.28,5.22,3,5.4L60,57.31c.49.9,1,1.8,1.41,2.74L64,65.61l1.32,2.78c.44.92.88,1.85,1.25,2.81l4.68,11.37,0,.09,0,.08c.65,2.35,1.45,4.76,2.33,7.07a64.77,64.77,0,0,0,3,6.81,36.72,36.72,0,0,0,3.87,6.15,36,36,0,0,0,4.88,4.84l.06,0a1.22,1.22,0,0,1-1,2.14,9,9,0,0,1-3.82-1.89,18.26,18.26,0,0,1-2.84-3,41.05,41.05,0,0,1-4.13-6.79,71.57,71.57,0,0,1-3-7.19c-.88-2.44-1.65-4.87-2.31-7.43l0,.16L63.94,72.34c-.35-1-.77-1.88-1.19-2.8l-1.26-2.76L59,61.24c-.4-.93-.88-1.83-1.35-2.72l-1.4-2.7-2.8-5.39-3.12-5.21-1.56-2.61c-.51-.87-1.13-1.67-1.69-2.51l-3.44-5-3.77-4.75-.94-1.19c-.33-.38-.68-.74-1-1.12l-2-2.23c-.7-.73-1.33-1.53-2.08-2.2l-2.2-2.07A62.08,62.08,0,0,0,22,14.15l-2.63-1.5c-.88-.48-1.81-.86-2.72-1.3A24.15,24.15,0,0,0,11,9.56h0a.4.4,0,0,1-.33-.45A.38.38,0,0,1,11,8.78Z"></path>
      <path class="cls-12" d="M69,17.06a1.06,1.06,0,0,1,.26.17l.1.11.14.18.21.32q.21.32.39.63c.25.42.49.85.72,1.28.47.86.91,1.72,1.34,2.59.86,1.74,1.67,3.51,2.44,5.29,1.53,3.57,2.91,7.2,4.1,10.91a99.23,99.23,0,0,1,3,11.3c.38,1.91.68,3.87.92,5.78l.74,5.76Q84.75,72.9,86,84.43c.4,3.85.8,7.69,1.15,11.55.17,1.94.35,3.87.48,5.81.08,1,.13,1.95.19,2.93,0,.49,0,1,0,1.52a12.35,12.35,0,0,1-.09,1.82,1.71,1.71,0,0,1-3.4-.38l0-.39c0-.47.07-1.56,0-2.46s0-1.89-.1-2.85q-.14-2.87-.32-5.75c-.24-3.85-.54-7.7-.83-11.54q-.91-11.55-2-23.07c-.4-3.84-.68-7.69-1.33-11.44A96.51,96.51,0,0,0,77.23,39c-1.08-3.68-2.35-7.31-3.78-10.88-.71-1.78-1.47-3.55-2.28-5.29-.4-.87-.81-1.74-1.25-2.59-.22-.43-.44-.85-.67-1.26l-.35-.61-.19-.29L68.63,18s0-.07,0,0a.17.17,0,0,0,.12.05.48.48,0,0,1-.33-.59A.49.49,0,0,1,69,17.06Z"></path>
      <path class="cls-16" d="M79.32,89.23c.27-.8,2.69-7.65,2.8-8.45s2.55-3.4-.23-7.3-1.17-3.35-.54-4.6,4.12-4,.78-9.22-5.26-2.49-3.47-9a8.32,8.32,0,0,0,2.13-7.27s-.07-1.19-3.23-2.49-1.66-7.42-2.41-9.19-2.73-8-13.88-11-21.82-3.41-19.12.1,6.32,4.58,8.35,9.2.22,10.25.91,13.31.27,2.29,4.44,5.14,3.65-1.17,5,5.39.51,6.79,3.08,9.5-1.13,5.11.06,8.36S71.26,79.58,72.53,82s3.64,8.36,5.14,8.31S78.73,91,79.32,89.23Z"></path>
      <path class="cls-12" d="M66.42,34.05a37.18,37.18,0,0,1,4.12,8.57A32,32,0,0,1,72.27,52a76.16,76.16,0,0,0,.82,9.27c.42,3.09.93,6.17,1.51,9.23,1.17,6.13,2.55,12.23,4.29,18.2.88,3,1.86,5.93,3,8.77a41.15,41.15,0,0,0,1.93,4.14,14.68,14.68,0,0,0,2.51,3.52l0,0a1.2,1.2,0,0,1-1.68,1.7,17,17,0,0,1-3-4.09,44.63,44.63,0,0,1-2.06-4.38,84.84,84.84,0,0,1-3-9,170.42,170.42,0,0,1-4.08-18.49c-.52-3.11-1-6.23-1.34-9.37a71.32,71.32,0,0,1-.53-9.49A33.54,33.54,0,0,0,69.42,43,40.09,40.09,0,0,0,66,34.34v0a.26.26,0,0,1,.44-.27Z"></path>
      <path class="cls-12" d="M119.39,18.2a12.87,12.87,0,0,0-5.93-1.11,9.54,9.54,0,0,0-5.38,2.14c-3,2.58-4.65,6.55-5.64,10.52a53.47,53.47,0,0,0-1.14,6.13c-.31,2.08-.58,4.17-.85,6.26q-.77,6.26-1.17,12.56c-.27,4.2-.55,8.45-1,12.68S97.13,75.8,96.4,80s-1.64,8.35-2.71,12.47c-.53,2.06-1.11,4.11-1.72,6.14s-1.31,4.09-1.8,6v.05a1.2,1.2,0,0,1-2.32-.59c.57-2.18,1.24-4.11,1.83-6.15s1.17-4,1.7-6.06c1.06-4,1.91-8.16,2.68-12.29S95.44,71.27,96,67.11s.8-8.35,1.13-12.57.79-8.46,1.37-12.66q.44-3.15.93-6.29a56,56,0,0,1,1.28-6.31,30,30,0,0,1,2.28-6.1A15.52,15.52,0,0,1,107.12,18a10,10,0,0,1,6.31-2.13,12.13,12.13,0,0,1,6.26,1.81.29.29,0,0,1-.27.52Z"></path>
      <path class="cls-16" d="M117.36,65.48s0-7,7.45-12.45S136.51,40.72,141,39.92a139.54,139.54,0,0,1,14.67-2.05c3.19-.1,6.59-1.8,14.4,6.06s10,8.72,14.49,9.24,15.15.2,5.89,5.66-19.3,2.86-20.39,1.83-4.18-1.86-6.06-7-1.78-5.92-5.24-6.08-5-1.57-7.36-1.9-3.71.12-4.45,2-.58,2.67-4.57,2.53-4.59-2.51-6.62.47-1.37,3.1-4.66,4.13S117.76,74,117.36,65.48Z"></path>
      <path class="cls-12" d="M178.75,53.51a46.31,46.31,0,0,0-13.08-7,39.82,39.82,0,0,0-7.2-1.76,35.16,35.16,0,0,0-7.39-.29,33.58,33.58,0,0,0-14,4.29,46.35,46.35,0,0,0-11.35,9.46,75.25,75.25,0,0,0-8.58,12.18c-2.58,4.3-4.48,8.85-6.73,13.46A97,97,0,0,1,102.7,97a42.45,42.45,0,0,1-5,5.92,20.75,20.75,0,0,1-3.13,2.49,11,11,0,0,1-3.9,1.61,1.19,1.19,0,0,1-.42-2.35h0a12.42,12.42,0,0,0,5.84-3.44,39.33,39.33,0,0,0,4.78-5.55,95.84,95.84,0,0,0,7.66-12.8c2.21-4.42,4.26-9.18,6.91-13.51A77.53,77.53,0,0,1,124.37,57a48.42,48.42,0,0,1,11.88-9.71A35.08,35.08,0,0,1,151,42.94a37.41,37.41,0,0,1,7.7.43,41,41,0,0,1,7.41,2,45.13,45.13,0,0,1,13.26,7.48.47.47,0,0,1-.58.73Z"></path>
      <path class="cls-16" d="M101.37,98.1s12.45-18.31,10.81-24,4.36-.93,5.9-2.7-1.41-11.11,8.25-12.21,27.15,2.08,27.55,2.07,4,.41.08,2.79-7.26,2.48-12.49,8.75-9.71,3.09-10.89,3.79-1.27,1.63-2,4-3.73,4-5.59,4-3.31.23-4.16,2.91S105.85,96.77,101.37,98.1Z"></path>
      <path class="cls-12" d="M142.34,66.82a4,4,0,0,0-1.94.05,7.25,7.25,0,0,0-1,.29,7.47,7.47,0,0,0-1,.38,22.82,22.82,0,0,0-3.71,2.13,57.57,57.57,0,0,0-6.62,5.57q-3.1,3.06-6,6.35c-1.89,2.19-3.8,4.43-5.76,6.63a97.43,97.43,0,0,1-13,12,70.14,70.14,0,0,1-7.39,5c-1.29.75-2.62,1.45-4,2.1A32.79,32.79,0,0,1,87.69,109a1.44,1.44,0,0,1-1.79-1,1.42,1.42,0,0,1,.95-1.78h0l.09,0a33,33,0,0,0,3.87-1.44c1.3-.58,2.58-1.21,3.83-1.9A64.43,64.43,0,0,0,102,98.32,95.74,95.74,0,0,0,115,87c2-2.11,3.93-4.26,5.92-6.44s4.07-4.24,6.22-6.25a54.91,54.91,0,0,1,6.95-5.48,23.34,23.34,0,0,1,4-2.06,9.6,9.6,0,0,1,1.07-.36,6.07,6.07,0,0,1,1.12-.26,4.42,4.42,0,0,1,2.37.15.31.31,0,0,1,.18.4.32.32,0,0,1-.38.19Z"></path>
      <path class="cls-12" d="M160.28,78.53a28,28,0,0,0-9.54.68,51.65,51.65,0,0,0-9.23,3,91,91,0,0,0-17,9.44l-2,1.37-2,1.48-2,1.48-1,.73c-.37.27-.72.49-1.06.72-2.75,1.82-5.59,3.5-8.5,5.07a74.08,74.08,0,0,1-9,4.14,31.2,31.2,0,0,1-9.92,2.18,1.19,1.19,0,1,1-.06-2.38h.06a29,29,0,0,0,9.18-1.86,72.85,72.85,0,0,0,8.86-3.86c2.87-1.48,5.7-3.08,8.44-4.81.34-.22.68-.43,1-.65l1-.72,2-1.44,2-1.45,2.07-1.35A92.09,92.09,0,0,1,141,81a52.77,52.77,0,0,1,9.48-2.83,28.85,28.85,0,0,1,9.95-.5.45.45,0,0,1,.37.51.43.43,0,0,1-.5.37Z"></path>
      <path class="cls-12" d="M17.08,83.56A2,2,0,0,1,17,83v-.44l0-.85c0-.57.08-1.14.13-1.7.11-1.13.25-2.26.43-3.38A47.49,47.49,0,0,1,19.13,70a29.18,29.18,0,0,1,2.69-6.34,13.53,13.53,0,0,1,4.89-5,9.35,9.35,0,0,1,3.45-1.13l.9-.09h.87a12.66,12.66,0,0,1,1.74,0,13.66,13.66,0,0,1,6.79,2,24,24,0,0,1,5.14,4.74c1.5,1.75,2.83,3.6,4.16,5.44,2.62,3.7,5.08,7.49,7.55,11.27S62.23,88.42,64.89,92a52.87,52.87,0,0,0,8.8,9.77,22.9,22.9,0,0,0,5.5,3.21c2,.84,4.13,1.58,6.19,2.6a1.2,1.2,0,0,1-.87,2.23,55.86,55.86,0,0,1-6.44-2.22A25.6,25.6,0,0,1,72,103.89a54.9,54.9,0,0,1-9.08-10.44c-2.64-3.71-5-7.56-7.44-11.38s-4.77-7.65-7.29-11.35c-1.27-1.84-2.55-3.68-4-5.38a21.84,21.84,0,0,0-4.67-4.5,12,12,0,0,0-6-1.91,12.62,12.62,0,0,0-1.63-.06h-.83l-.78.06a7.72,7.72,0,0,0-2.95.9,12.28,12.28,0,0,0-4.51,4.46,27.33,27.33,0,0,0-2.74,6,47.65,47.65,0,0,0-1.64,6.48c-.2,1.1-.37,2.21-.51,3.32-.06.56-.12,1.11-.17,1.67l-.06.83V83c0,.12,0,.32,0,.3a.36.36,0,0,1-.21.45A.35.35,0,0,1,17.08,83.56Z"></path>
      <path class="cls-12" d="M94.82,118.68a22.24,22.24,0,0,0-3.38-9,8.21,8.21,0,0,0,0-3.08c-.06-.17-.32-1-.93,0s-9.5,1-9.5,1c-1.76,0-1.27,3.32-1.17,4.91s-.74,2.69-1.62,5.08a10.72,10.72,0,0,0-.38,1.33h17Z"></path>
      <path class="cls-13" d="M89,112.71c-5.81-1.15-8.86,1.57-10.2,6.21H84.7C86.6,113.73,89,112.71,89,112.71Z"></path>
      <path class="cls-8" d="M69.85,121.65a1,1,0,0,0-1-.36c-.55.17-.76.6-.67.76l.2.21c.14.13.43-.25.44-.25Z"></path>
      <path class="cls-19" d="M70.14,122.32s-.17-.75-.46-.76-.59,0-.59,0l-.08.13s.27.49.39.53l.37.11A1.87,1.87,0,0,0,70.14,122.32Z"></path>
      <path class="cls-10" d="M70.12,122.41c0-.07.07-.24-.11-.29s-.37-.08-.37-.08l-.53.4c-.09,0-.15,0,.11.12s.25.14.49.11A.65.65,0,0,0,70.12,122.41Z"></path>
      <path class="cls-11" d="M69.64,122a3.06,3.06,0,0,0-.33.33c-.13.15-.15.2-.31.12s-.57-.14-.67-.3-.11-.14,0-.32a.83.83,0,0,1,.52-.33.48.48,0,0,1,.53.11A1.15,1.15,0,0,1,69.64,122Z"></path>
      <path class="cls-8" d="M65.72,114.51s-3.16-1.58-5.38.35-2.32,4.41-1.56,4.94a10.4,10.4,0,0,0,1.39.56c.91.33,1.48-2,1.53-2.08S65.72,114.51,65.72,114.51Z"></path>
      <path class="cls-19" d="M68.43,117s-2.35-3.15-3.69-2.59-2.9,1-2.9,1l-.09.8s2.31,1.72,2.92,1.67,1.71-.26,2-.26A13.36,13.36,0,0,0,68.43,117Z"></path>
      <path class="cls-10" d="M68.52,117.49c0-.35-.16-1.25-1.11-1.13a14.27,14.27,0,0,0-1.86.4s-1.39,2.52-1.7,2.95-.59.53.79.35,1.49.14,2.53-.49A3.57,3.57,0,0,0,68.52,117.49Z"></path>
      <path class="cls-11" d="M65.55,116.76a16.57,16.57,0,0,0-.87,2.19c-.29,1-.3,1.27-1.2,1.22s-2.95.54-3.76,0-.77-.44-.55-1.59A4.23,4.23,0,0,1,61,116a2.34,2.34,0,0,1,2.68-.56A6.06,6.06,0,0,1,65.55,116.76Z"></path>
      <path class="cls-8" d="M77.9,115.52s-1.82-2.48-4.3-1.87-3.55,2.49-3.17,3.21a8.67,8.67,0,0,0,.85,1c.57.62,2-1,2-1S77.9,115.52,77.9,115.52Z"></path>
      <path class="cls-19" d="M79,118.53s-.57-3.37-1.82-3.47-2.64-.38-2.64-.38l-.39.58s1.11,2.25,1.6,2.45,1.43.48,1.64.59A12.36,12.36,0,0,0,79,118.53Z"></path>
      <path class="cls-10" d="M78.88,118.94c.12-.28.38-1-.41-1.31a12.52,12.52,0,0,0-1.6-.44s-2.07,1.4-2.48,1.61-.67.17.47.58,1.09.71,2.15.63A3.06,3.06,0,0,0,78.88,118.94Z"></path>
      <path class="cls-11" d="M76.87,117.19a14.24,14.24,0,0,0-1.54,1.35c-.61.66-.73.87-1.42.47s-2.49-.75-2.91-1.48-.42-.64.21-1.45a3.66,3.66,0,0,1,2.42-1.29,2,2,0,0,1,2.3.63A5.13,5.13,0,0,1,76.87,117.19Z"></path>
      <path class="cls-8" d="M69.42,116.81s-2.62-2-5-.65-2.93,3.62-2.33,4.25a11.09,11.09,0,0,0,1.17.75c.78.48,1.73-1.6,1.78-1.62S69.42,116.81,69.42,116.81Z"></path>
      <path class="cls-19" d="M71.45,119.59s-1.59-3.31-2.91-3a27.7,27.7,0,0,1-2.84.39l-.23.72s1.81,2,2.38,2.06,1.61.07,1.86.12A12.17,12.17,0,0,0,71.45,119.59Z"></path>
      <path class="cls-10" d="M71.45,120c0-.32.08-1.17-.81-1.23a14.19,14.19,0,0,0-1.79,0s-1.72,2.06-2.08,2.4-.64.37.66.46,1.33.4,2.4,0A3.35,3.35,0,0,0,71.45,120Z"></path>
      <path class="cls-11" d="M68.85,118.84a15.67,15.67,0,0,0-1.18,1.85c-.45.86-.51,1.11-1.33.9s-2.79,0-3.44-.66-.63-.54-.22-1.56a3.91,3.91,0,0,1,2.12-2.05,2.2,2.2,0,0,1,2.56,0A5.77,5.77,0,0,1,68.85,118.84Z"></path>
      <path class="cls-8" d="M83.05,121.4a1.59,1.59,0,0,0,1.45-.72c.4-.79.14-1.49-.13-1.55a2.34,2.34,0,0,0-.45,0c-.29,0-.18.74-.19.75Z"></path>
      <path class="cls-19" d="M82,121s1,.6,1.33.29.69-.61.69-.61l-.07-.23a3.1,3.1,0,0,0-1-.12c-.17.08-.45.26-.52.3A3.61,3.61,0,0,0,82,121Z"></path>
      <path class="cls-10" d="M81.93,120.9c0,.09.19.33.44.18a3.71,3.71,0,0,0,.47-.32s.09-.86.13-1,.1-.21-.26,0-.43.13-.64.42A1.08,1.08,0,0,0,81.93,120.9Z"></path>
      <path class="cls-11" d="M82.84,120.76a5.86,5.86,0,0,0,0-.71c0-.31-.06-.39.19-.48s.76-.49,1-.44.27,0,.34.38a1.3,1.3,0,0,1-.2.93.72.72,0,0,1-.68.47A2,2,0,0,1,82.84,120.76Z"></path>
      <path class="cls-8" d="M58.12,122a2,2,0,0,0,1.91-.78c.57-1,.3-1.89,0-2a3.1,3.1,0,0,0-.57,0c-.37,0-.29.92-.3.94Z"></path>
      <path class="cls-19" d="M56.83,121.39s1.24.85,1.66.49a11.36,11.36,0,0,1,.93-.72l-.06-.3a4.31,4.31,0,0,0-1.27-.25l-.69.34A4.59,4.59,0,0,0,56.83,121.39Z"></path>
      <path class="cls-10" d="M56.74,121.23c0,.12.21.43.54.27a5.25,5.25,0,0,0,.63-.37s.19-1.09.25-1.28.15-.27-.33,0-.55.13-.86.48A1.38,1.38,0,0,0,56.74,121.23Z"></path>
      <path class="cls-11" d="M57.91,121.13a6.58,6.58,0,0,0,0-.91c0-.39,0-.49.29-.59s1-.55,1.36-.47.34.07.4.52a1.6,1.6,0,0,1-.34,1.16.88.88,0,0,1-.9.53A2.37,2.37,0,0,1,57.91,121.13Z"></path>
      <path class="cls-8" d="M65.39,120.55a1.3,1.3,0,0,1,1.19-.18c.58.27.73.73.59.87a1.42,1.42,0,0,1-.27.17c-.18.11-.42-.32-.44-.33Z"></path>
      <path class="cls-19" d="M64.94,121.15s.34-.71.66-.66.68.05.68.05l.06.15s-.41.44-.54.45l-.44,0A3.75,3.75,0,0,1,64.94,121.15Z"></path>
      <path class="cls-10" d="M65,121.25a.19.19,0,0,1,.18-.27,3.37,3.37,0,0,1,.42,0s.43.42.52.49.16.07-.15.1-.32.09-.57,0A.73.73,0,0,1,65,121.25Z"></path>
      <path class="cls-11" d="M65.55,121a2.78,2.78,0,0,1,.3.38c.12.18.13.23.33.18s.66,0,.81-.17.14-.12,0-.33a.91.91,0,0,0-.53-.41.57.57,0,0,0-.61,0A1.25,1.25,0,0,0,65.55,121Z"></path>
      <path class="cls-8" d="M76.08,117.55s-2.46-1.82-4.63-.51-2.64,3.4-2.07,4a7.57,7.57,0,0,0,1.09.68c.73.43,1.57-1.52,1.62-1.54S76.08,117.55,76.08,117.55Z"></path>
      <path class="cls-19" d="M78,120.08s-1.53-3-2.76-2.76a26.29,26.29,0,0,1-2.62.41l-.19.67s1.71,1.81,2.24,1.85,1.49,0,1.72.08A11.72,11.72,0,0,0,78,120.08Z"></path>
      <path class="cls-10" d="M78,120.5c0-.3,0-1.09-.77-1.12a11.14,11.14,0,0,0-1.65.06s-1.55,1.93-1.88,2.25-.58.36.62.42,1.24.34,2.22,0A3.08,3.08,0,0,0,78,120.5Z"></path>
      <path class="cls-11" d="M75.59,119.44a13.51,13.51,0,0,0-1.06,1.73c-.39.8-.45,1-1.21.86s-2.59,0-3.2-.54-.59-.49-.23-1.45a3.63,3.63,0,0,1,1.92-1.94,2,2,0,0,1,2.37-.08A5.35,5.35,0,0,1,75.59,119.44Z"></path>
      <path class="cls-8" d="M63,120.39s-2-.37-2.93,1.06-.58,2.83-.07,3a5.73,5.73,0,0,0,.86.08c.56,0,.49-1.37.51-1.4S63,120.39,63,120.39Z"></path>
      <path class="cls-19" d="M64.85,121.34S63,120,62.39,120.5s-1.45,1-1.45,1L61,122a6.23,6.23,0,0,0,1.9.45c.33-.13.91-.42,1.06-.46A9.47,9.47,0,0,0,64.85,121.34Z"></path>
      <path class="cls-10" d="M65,121.59c-.07-.19-.29-.67-.8-.44a8.23,8.23,0,0,0-1,.52s-.36,1.62-.46,1.91-.24.39.49.06.85-.16,1.33-.67A2.11,2.11,0,0,0,65,121.59Z"></path>
      <path class="cls-11" d="M63.21,121.67a8.66,8.66,0,0,0-.12,1.35c0,.6,0,.76-.48.88s-1.54.77-2.08.61-.5-.11-.56-.79a2.48,2.48,0,0,1,.58-1.74,1.36,1.36,0,0,1,1.4-.74A3.35,3.35,0,0,1,63.21,121.67Z"></path>
      <path class="cls-8" d="M91.26,126.32a1.23,1.23,0,0,0-1.19-.44c-.67.2-.93.73-.82.92a2.91,2.91,0,0,0,.25.25c.16.16.52-.3.53-.3Z"></path>
      <path class="cls-19" d="M91.61,127.12s-.21-.91-.55-.92-.72-.06-.72-.06l-.1.17s.34.59.47.64l.46.13A2.55,2.55,0,0,0,91.61,127.12Z"></path>
      <path class="cls-10" d="M91.58,127.23a.24.24,0,0,0-.13-.35,3.92,3.92,0,0,0-.44-.09s-.54.41-.65.48-.18,0,.14.15.3.17.59.13A.79.79,0,0,0,91.58,127.23Z"></path>
      <path class="cls-11" d="M91,126.79a3.81,3.81,0,0,0-.4.39c-.16.19-.18.25-.38.15s-.68-.17-.81-.36-.13-.17,0-.4a1,1,0,0,1,.64-.38.55.55,0,0,1,.64.13A1.65,1.65,0,0,1,91,126.79Z"></path>
      <path class="cls-8" d="M84.86,116.59s-3.83-1.92-6.5.42-2.81,5.33-1.89,6a12.45,12.45,0,0,0,1.67.67c1.11.41,1.79-2.47,1.86-2.51S84.86,116.59,84.86,116.59Z"></path>
      <path class="cls-19" d="M88.13,119.61s-2.84-3.81-4.46-3.14-3.51,1.21-3.51,1.21l-.11,1s2.8,2.08,3.54,2,2.07-.3,2.39-.3A17.42,17.42,0,0,0,88.13,119.61Z"></path>
      <path class="cls-10" d="M88.24,120.19c0-.43-.19-1.51-1.34-1.36a16.68,16.68,0,0,0-2.25.48s-1.68,3-2.05,3.56-.71.64,1,.42,1.8.17,3.06-.59A4.28,4.28,0,0,0,88.24,120.19Z"></path>
      <path class="cls-11" d="M84.65,119.31A19.67,19.67,0,0,0,83.6,122c-.34,1.2-.36,1.54-1.46,1.48s-3.55.65-4.53,0-.94-.53-.67-1.93.92-2,2.17-3.13a2.87,2.87,0,0,1,3.25-.69A7.32,7.32,0,0,1,84.65,119.31Z"></path>
      <path class="cls-8" d="M98.1,117.39s-3.21-1.89-5.67,0-2.76,4.46-2,5.08a12.09,12.09,0,0,0,1.42.68c.93.42,1.7-2,1.76-2.07S98.1,117.39,98.1,117.39Z"></path>
      <path class="cls-19" d="M100.75,120.21s-2.23-3.47-3.68-3-3.12.83-3.12.83l-.15.83s2.3,2,3,2,1.81-.14,2.09-.12A13.71,13.71,0,0,0,100.75,120.21Z"></path>
      <path class="cls-10" d="M100.81,120.72c0-.37-.07-1.32-1.08-1.26a14.24,14.24,0,0,0-2,.28s-1.64,2.54-2,3-.66.51.79.42,1.56.26,2.69-.33A3.73,3.73,0,0,0,100.81,120.72Z"></path>
      <path class="cls-11" d="M97.75,119.74A16.25,16.25,0,0,0,96.68,122c-.37,1-.41,1.31-1.35,1.19s-3.13.35-3.94-.25-.79-.52-.46-1.71A4.42,4.42,0,0,1,93,118.6a2.49,2.49,0,0,1,2.86-.39A6.28,6.28,0,0,1,97.75,119.74Z"></path>
      <path class="cls-8" d="M106.6,114s-3.17-2.45-6-.79-3.53,4.38-2.81,5.14a12.84,12.84,0,0,0,1.42.91c.93.58,2.08-1.94,2.15-2S106.6,114,106.6,114Z"></path>
      <path class="cls-19" d="M109.05,117.36s-1.92-4-3.52-3.68-3.43.47-3.43.47l-.28.86s2.19,2.41,2.88,2.49,2,.09,2.25.15A16.38,16.38,0,0,0,109.05,117.36Z"></path>
      <path class="cls-10" d="M109.05,117.91c0-.4.09-1.42-1-1.49a15.75,15.75,0,0,0-2.16,0s-2.08,2.49-2.52,2.9-.77.45.8.56,1.61.48,2.91,0A4,4,0,0,0,109.05,117.91Z"></path>
      <path class="cls-11" d="M105.91,116.45a17.76,17.76,0,0,0-1.43,2.24c-.54,1-.61,1.34-1.61,1.09s-3.37,0-4.16-.8-.76-.65-.26-1.89,1.21-1.71,2.56-2.48a2.65,2.65,0,0,1,3.09,0A6.87,6.87,0,0,1,105.91,116.45Z"></path>
      <path class="cls-8" d="M109.06,124.23a1.91,1.91,0,0,0,1.75-.86c.48-1,.17-1.81-.16-1.88a3.51,3.51,0,0,0-.55,0c-.35,0-.21.89-.22.91S109.06,124.23,109.06,124.23Z"></path>
      <path class="cls-19" d="M107.8,123.77s1.23.73,1.6.36.83-.74.83-.74l-.08-.28a4,4,0,0,0-1.21-.15c-.2.1-.54.32-.63.36A5.17,5.17,0,0,0,107.8,123.77Z"></path>
      <path class="cls-10" d="M107.7,123.63c.06.11.23.39.53.22a4.21,4.21,0,0,0,.57-.4s.11-1,.16-1.22.12-.26-.31,0-.52.16-.79.52A1.3,1.3,0,0,0,107.7,123.63Z"></path>
      <path class="cls-11" d="M108.8,123.45a6,6,0,0,0,0-.85c-.05-.37-.08-.47.23-.58s.91-.59,1.26-.53.32,0,.4.46a1.47,1.47,0,0,1-.24,1.12.87.87,0,0,1-.82.57A2.2,2.2,0,0,1,108.8,123.45Z"></path>
      <path class="cls-8" d="M78.91,124.92a2.44,2.44,0,0,0,2.31-1c.69-1.17.37-2.28,0-2.4a6.32,6.32,0,0,0-.7,0c-.45,0-.34,1.12-.36,1.14S78.91,124.92,78.91,124.92Z"></path>
      <path class="cls-19" d="M77.35,124.22s1.5,1,2,.59,1.12-.87,1.12-.87l-.07-.36a5.17,5.17,0,0,0-1.54-.3c-.26.11-.71.37-.83.41A6,6,0,0,0,77.35,124.22Z"></path>
      <path class="cls-10" d="M77.24,124c.07.15.26.53.65.33a5.56,5.56,0,0,0,.76-.45s.24-1.31.31-1.54.18-.32-.4,0-.67.16-1,.59A1.62,1.62,0,0,0,77.24,124Z"></path>
      <path class="cls-11" d="M78.65,123.9a7.66,7.66,0,0,0,.06-1.09c0-.48-.06-.6.35-.71s1.21-.68,1.64-.57.41.08.48.62a1.94,1.94,0,0,1-.4,1.41,1.11,1.11,0,0,1-1.1.64A2.8,2.8,0,0,1,78.65,123.9Z"></path>
      <path class="cls-8" d="M89.51,118.86a1.41,1.41,0,0,0,1.43.25c.7-.36.89-1,.72-1.19a2.25,2.25,0,0,0-.33-.23c-.21-.15-.51.44-.53.44Z"></path>
      <path class="cls-19" d="M89,118s.42,1,.8.91.83-.08.83-.08l.07-.2s-.5-.59-.66-.62-.46,0-.53-.06A4.87,4.87,0,0,0,89,118Z"></path>
      <path class="cls-10" d="M89,117.91c0,.09,0,.34.22.36a3.72,3.72,0,0,0,.51,0s.52-.57.63-.67.19-.1-.18-.14-.38-.13-.7,0A1,1,0,0,0,89,117.91Z"></path>
      <path class="cls-11" d="M89.7,118.29a4,4,0,0,0,.36-.52c.14-.24.16-.31.4-.24s.8,0,1,.23.18.16,0,.45a1.12,1.12,0,0,1-.63.57.65.65,0,0,1-.74,0A1.63,1.63,0,0,1,89.7,118.29Z"></path>
      <path class="cls-8" d="M102.4,124.31s3.6.87,5.4-1.61,1.34-5,.45-5.4a11.93,11.93,0,0,0-1.55-.24c-1-.13-1,2.43-1.08,2.47S102.4,124.31,102.4,124.31Z"></path>
      <path class="cls-19" d="M99.07,122.39s3.12,2.66,4.36,1.79,2.72-1.69,2.72-1.69l-.09-.84s-2.76-1.21-3.37-1-1.68.65-2,.72A13.8,13.8,0,0,0,99.07,122.39Z"></path>
      <path class="cls-10" d="M98.86,121.93c.11.34.45,1.23,1.39.88a13.74,13.74,0,0,0,1.81-.83s.82-2.89,1-3.4.48-.68-.88-.17-1.55.2-2.47,1.08A3.75,3.75,0,0,0,98.86,121.93Z"></path>
      <path class="cls-11" d="M102.06,122a17.42,17.42,0,0,0,.37-2.43c.06-1.09,0-1.37.95-1.53s2.87-1.23,3.82-.89.89.26.93,1.49a4.42,4.42,0,0,1-1.23,3.07,2.49,2.49,0,0,1-2.6,1.2A6.42,6.42,0,0,1,102.06,122Z"></path>
      <path class="cls-8" d="M85.82,122.23s2.16,1.21,3.77-.06,1.77-3,1.26-3.39a7.36,7.36,0,0,0-.95-.44c-.63-.27-1.1,1.38-1.14,1.4S85.82,122.23,85.82,122.23Z"></path>
      <path class="cls-19" d="M84,120.39s1.53,2.28,2.48,1.94a21.39,21.39,0,0,1,2.06-.59l.09-.56s-1.55-1.28-2-1.26-1.21.11-1.39.11A9.17,9.17,0,0,0,84,120.39Z"></path>
      <path class="cls-10" d="M84,120.06c0,.24.07.87.73.82a9.17,9.17,0,0,0,1.32-.21s1-1.71,1.28-2,.43-.35-.53-.27-1-.16-1.79.25A2.46,2.46,0,0,0,84,120.06Z"></path>
      <path class="cls-11" d="M86,120.67a12.15,12.15,0,0,0,.68-1.5c.23-.69.25-.88.88-.81s2.08-.28,2.62.11.53.34.33,1.13a2.91,2.91,0,0,1-1.34,1.76,1.65,1.65,0,0,1-1.89.3A4.27,4.27,0,0,1,86,120.67Z"></path>
    </g>
  </g>
</svg>
