<?xml version="1.0" encoding="UTF-8"?>
<svg xmlns="http://www.w3.org/2000/svg" viewBox="0 0 221.03 441.51">
  <defs>
    <style>.cls-1{fill:#a29274;}.cls-2{fill:#e3e0c9;}.cls-3{fill:#fcedce;}.cls-4{fill:#bda885;}.cls-5{fill:#d0c5a6;}.cls-6{fill:#8f8267;}.cls-7{fill:#ab967a;opacity:0.25;}.cls-8{fill:#9b8d71;}.cls-9{fill:#7c705b;}.cls-10{fill:#e7e6e3;}.cls-11{fill:#745831;}.cls-12{fill:#917448;}.cls-13{fill:#554020;}.cls-14{fill:#817870;}.cls-15{fill:#e6907c;}.cls-16{fill:#d45e3d;}.cls-17{fill:#ca4b2b;}.cls-18{fill:#f3c7d2;}.cls-19{fill:#8bb92c;}.cls-20{fill:#97bb36;}.cls-21{fill:#a5c32f;}.cls-22{fill:#7fb843;}.cls-23{fill:#c2d744;}.cls-24{fill:#e69175;}</style>
  </defs>
  <g id="Слой_2" data-name="Слой 2">
    <g id="Слой_1-2" data-name="Слой 1">
      <polygon class="cls-1" points="107.07 345.79 179.72 314.86 168.82 398.51 107.07 441.51 107.07 345.79"></polygon>
      <polygon class="cls-2" points="107.07 293.95 179.72 314.86 107.07 345.79 34.22 314.86 107.07 293.95"></polygon>
      <polygon class="cls-3" points="107.07 293.95 34.22 314.86 35.5 315.4 179.04 314.67 107.07 293.95"></polygon>
      <polygon class="cls-4" points="45.12 398.51 34.22 314.86 107.07 345.79 107.07 441.51 45.12 398.51"></polygon>
      <path class="cls-5" d="M80,315.89a38.44,38.44,0,0,1,3.44-3.68,33.36,33.36,0,0,1,4-3.11,39.5,39.5,0,0,1,9.13-4.42c1.61-.53,3.24-1,4.89-1.33a50.06,50.06,0,0,1,5-.76,48.32,48.32,0,0,1,10.06.05c-3.35.22-6.65.57-9.91,1.1A62.31,62.31,0,0,0,97,306.09a49.48,49.48,0,0,0-9,4A50.11,50.11,0,0,0,80,315.89Z"></path>
      <polygon class="cls-6" points="107.07 345.79 179.72 314.86 168.82 398.51 107.07 441.51 107.07 345.79"></polygon>
      <polygon class="cls-7" points="45.12 398.51 34.22 314.86 107.07 345.79 107.07 441.51 45.12 398.51"></polygon>
      <polygon class="cls-8" points="107.07 441.51 45.12 398.51 107.36 374.99 168.82 398.51 107.07 441.51"></polygon>
      <path class="cls-9" d="M58.28,361.73a13.33,13.33,0,0,1-1.11-2.87,23.7,23.7,0,0,1-.67-3,22.4,22.4,0,0,1-.11-6.23,19.89,19.89,0,0,1,1.75-6.05,20.32,20.32,0,0,1,3.63-5.18A27,27,0,0,1,72.46,332a45.42,45.42,0,0,1,12.12-2.16,69.08,69.08,0,0,0-11.72,3.25,28.79,28.79,0,0,0-10,6.32,19.51,19.51,0,0,0-5.3,10.37,24.36,24.36,0,0,0-.32,6A23,23,0,0,0,58.28,361.73Z"></path>
      <path class="cls-9" d="M126,360.58c.19.31.6.42.92.58s.69.3,1,.43c.69.27,1.4.51,2.12.73,1.41.47,2.85.89,4.29,1.29,2.88.78,5.78,1.48,8.7,2.06,5.85,1.21,11.77,2,17.76,2.67a65.57,65.57,0,0,1-18.05-1.21,64.53,64.53,0,0,1-8.76-2.42,45.22,45.22,0,0,1-4.21-1.71c-.69-.33-1.36-.68-2-1.05-.33-.19-.66-.38-1-.59l-.46-.35C126.2,360.89,126,360.78,126,360.58Z"></path>
      <path class="cls-9" d="M87,356.22a46.13,46.13,0,0,1-1.78,8.2,57.6,57.6,0,0,1-3,7.85,45.2,45.2,0,0,1-4.38,7.23,27.46,27.46,0,0,1-6,5.85,50,50,0,0,0,5.09-6.52,73.34,73.34,0,0,0,4-7.21c1.2-2.47,2.26-5,3.29-7.58S86.05,358.86,87,356.22Z"></path>
      <path class="cls-9" d="M109.49,422.79c3-1.45,6-2.6,9-3.9s6-2.62,8.83-4.12q2.16-1.11,4.23-2.39a43.15,43.15,0,0,0,4-2.72,23.42,23.42,0,0,0,6.46-7.15,18.79,18.79,0,0,1-5.72,8,41.93,41.93,0,0,1-8.27,5.54,71.27,71.27,0,0,1-9.1,3.88c-1.56.55-3.13,1-4.7,1.5S111.06,422.32,109.49,422.79Z"></path>
      <path class="cls-9" d="M75.42,413.61a20.28,20.28,0,0,1-4.71-3A11.31,11.31,0,0,1,67.3,406a6.63,6.63,0,0,1-.42-3,6.18,6.18,0,0,1,.32-1.49,6.8,6.8,0,0,1,.58-1.39,13.85,13.85,0,0,1,3.94-4.25,38.4,38.4,0,0,1,10.06-5,75.87,75.87,0,0,1,10.75-2.81c-3.48,1.26-7,2.5-10.34,3.89a46,46,0,0,0-9.58,5.11,12.52,12.52,0,0,0-3.6,3.73,5.61,5.61,0,0,0-.53,1.14,4.5,4.5,0,0,0-.3,1.2,5.94,5.94,0,0,0,.21,2.47A9.17,9.17,0,0,0,69.52,408a13.93,13.93,0,0,0,1.69,2.09A24.6,24.6,0,0,0,75.42,413.61Z"></path>
      <path class="cls-9" d="M142,358.89l5.42-7.45c1.77-2.49,3.53-5,5.17-7.56a81.47,81.47,0,0,0,4.57-7.88,39.41,39.41,0,0,0,1.8-4.17,18,18,0,0,0,1-4.44,19.59,19.59,0,0,1-1.78,9.09,52.08,52.08,0,0,1-4.38,8.21,78.84,78.84,0,0,1-5.51,7.46A69.52,69.52,0,0,1,142,358.89Z"></path>
      <path class="cls-10" d="M105.92,356.33c1.82,3.37,5.29,5.73,8.92,7.48s7.69,3.11,11.32,5.33A26.34,26.34,0,0,1,135,378c1.08,1.8,2,3.68,3.12,5.4a9.67,9.67,0,0,0,4.58,4,9.8,9.8,0,0,1-4.82-3.85c-1.24-1.69-2.22-3.54-3.36-5.25a25.63,25.63,0,0,0-8.94-8.23c-3.57-2-7.57-3.09-11.46-4.75s-7.79-4-10.18-7.9Z"></path>
      <path class="cls-10" d="M127.13,369.88a6.2,6.2,0,0,0,3.21-.44,6.51,6.51,0,0,1,3.63-.21c1.19.23,2.3.6,3.44.91a8.42,8.42,0,0,1,3.21,1.45,9.61,9.61,0,0,0-3.3-1.11c-1.15-.22-2.3-.51-3.44-.63a6.93,6.93,0,0,0-3.32.33,5.81,5.81,0,0,1-3.67.39Z"></path>
      <path class="cls-10" d="M131.57,373.68a10,10,0,0,0,3.42.46,12.43,12.43,0,0,1,3.67.26,9.33,9.33,0,0,1,5.47,4.61,9.93,9.93,0,0,0-5.64-4,12.18,12.18,0,0,0-3.49-.19,8.42,8.42,0,0,1-3.66-.56Z"></path>
      <path class="cls-10" d="M124.92,368.6a27.76,27.76,0,0,0,2.59,3.23,8.28,8.28,0,0,1,2,3.86c.21,1.47.06,2.84.34,4.22a14.7,14.7,0,0,0,1.25,4,15.32,15.32,0,0,1-1.55-3.95c-.37-1.37-.34-2.85-.63-4.16-.64-2.69-3.29-4.13-5-6.55Z"></path>
      <path class="cls-10" d="M116.43,364.72a38.53,38.53,0,0,1,.32,4.12,12.7,12.7,0,0,0,1.3,3.57,13.72,13.72,0,0,0,5.49,5.48,14.19,14.19,0,0,1-6.24-5,14,14,0,0,1-1.85-3.74c-.4-1.39-.39-2.82-.87-3.75Z"></path>
      <path class="cls-10" d="M110.41,361.83c-.07,2.38.17,4.91,1.71,6.92-1.93-1.67-2.78-4.33-3.19-6.82Z"></path>
      <path class="cls-10" d="M108.32,359.83a5.88,5.88,0,0,1-.45,3.48c-.38,1-.84,1.91-1.11,2.85-.44,1.92-.75,4.08.32,5.9-1.29-1.69-1.25-4-1-6,.13-1.08.43-2.09.62-3.07a4.46,4.46,0,0,0,0-2.58Z"></path>
      <path class="cls-10" d="M105.16,346.23a15.65,15.65,0,0,1-4.85,5.1c-.89.67-1.77,1.31-2.59,2s-1.64,1.52-2.56,2.17a47.68,47.68,0,0,1-5.8,3.34,8.69,8.69,0,0,0-2.59,1.93,3.71,3.71,0,0,0-.92,3,3.87,3.87,0,0,1,.7-3.19,9,9,0,0,1,2.52-2.25,45.47,45.47,0,0,0,5.38-3.74c.83-.71,1.48-1.48,2.3-2.33s1.66-1.55,2.47-2.28a13.65,13.65,0,0,0,3.87-4.73Z"></path>
      <path class="cls-10" d="M93.71,356.29c-.56,1.74-1,3.52-1.57,5.3l-.78,2.66c-.13.45-.26.89-.43,1.33s-.43.95-.94,1c.73-.57.65-1.62,1-2.47l.63-2.7c.42-1.8.81-3.6,1.29-5.4Z"></path>
      <path class="cls-10" d="M94.49,355.77a14.61,14.61,0,0,0-9.1,1.06,18.75,18.75,0,0,0-6.86,6.48,18.93,18.93,0,0,1,6.5-7.13,15.47,15.47,0,0,1,9.67-1.59Z"></path>
      <path class="cls-10" d="M72.41,357.19a30.67,30.67,0,0,1,6.75-1.58,20.59,20.59,0,0,1,7,.08l-.18.61a20.21,20.21,0,0,0-6.78-.37A30.22,30.22,0,0,0,72.41,357.19Z"></path>
      <path class="cls-10" d="M87.73,351a5.43,5.43,0,0,1,3.53-2.2L95.4,348a18.67,18.67,0,0,0,3.84-1.22c.63-.27,1.16-.56,1.83-.9a3.7,3.7,0,0,1,2.79-.42l-.76,2.14c-.32-.37-1.93.42-3.29.79a20.12,20.12,0,0,1-4.26.74l-4.18.15A5.13,5.13,0,0,0,87.73,351Z"></path>
      <path class="cls-10" d="M109.78,342.36a16.8,16.8,0,0,0,2.64,2.2,15,15,0,0,1,2.77,2.62,26.56,26.56,0,0,1,3.68,6.39,25.72,25.72,0,0,0-4.51-5.6,13.65,13.65,0,0,0-2.86-2,18.67,18.67,0,0,1-3.3-2Z"></path>
      <path class="cls-10" d="M110.27,343.37c3.33,1.37,7.26.86,11.13,1.16a17.59,17.59,0,0,1,5.7,1.4,6.63,6.63,0,0,1,3.84,4.21,6.86,6.86,0,0,0-4.09-3.62,20.13,20.13,0,0,0-5.51-.93c-3.71-.21-7.73.67-11.61-1Z"></path>
      <path class="cls-10" d="M110,346.34a20.36,20.36,0,0,0,3,5.11c1.27,1.51,2.77,3.05,4.14,4.62a51,51,0,0,1,4.09,4.8,16.45,16.45,0,0,1,2.42,5.79,16.13,16.13,0,0,0-2.88-5.45,49,49,0,0,0-4.43-4.33c-1.5-1.44-3-2.75-4.62-4.29a22.61,22.61,0,0,1-3.81-5.3Z"></path>
      <path class="cls-10" d="M117.71,356.77c2.39.59,5.12.33,7.68,1.25a13,13,0,0,1,3.33,2.14,10.25,10.25,0,0,1,2.41,3.07,11.64,11.64,0,0,0-5.93-4.68c-2.42-.71-5-.28-7.73-.76Z"></path>
      <path class="cls-10" d="M117,356.24c.57,2.76,0,5.43-.52,8,.28-2.62.62-5.38-.12-7.85Z"></path>
      <path class="cls-10" d="M112.18,350.84c.79,4.14.13,8.17-.28,12.16,0-4,.24-8.12-.88-11.86Z"></path>
      <path class="cls-11" d="M105.32,349.37c-.88-1.61-1.6-3.25-2.3-4.9a6.4,6.4,0,0,1-.91-2.5,5.23,5.23,0,0,1,.84-2.9l.32-.07a5.12,5.12,0,0,1,2,2.24,6.36,6.36,0,0,1,.27,2.65,48.49,48.49,0,0,1,.07,5.4Z"></path>
      <ellipse class="cls-12" cx="101.09" cy="362.44" rx="1.63" ry="2.59" transform="translate(-274.68 342.95) rotate(-71.45)"></ellipse>
      <path class="cls-11" d="M98.93,360.15c-1.52,3.25,3.31,6.09,4.84,2.83a89.21,89.21,0,0,0,7.41-26.64,45.78,45.78,0,0,1-5.11-2.8A85,85,0,0,1,98.93,360.15Z"></path>
      <path class="cls-13" d="M109,348.15a62.2,62.2,0,0,1-4.78,12.72l.12.07a49.14,49.14,0,0,0,5.53-12.54,85.94,85.94,0,0,0,2.51-11.56c-.43-.16-.86-.34-1.28-.52A84.7,84.7,0,0,1,109,348.15Z"></path>
      <path class="cls-12" d="M100,359.39s.76-.35,2.46.58c0,0,4.33-9.38,6.3-24.84-.51-.28-1-.58-1.52-.87C106.09,344.85,103.76,354.76,100,359.39Z"></path>
      <path class="cls-10" d="M106.32,373.69a17.09,17.09,0,0,0-.87,9,17.59,17.59,0,0,1-.13-9.39Z"></path>
      <path class="cls-10" d="M110.45,384.57a16.34,16.34,0,0,0,.07,5.13,16.88,16.88,0,0,1-.85-5.14Z"></path>
      <path class="cls-10" d="M103.28,363.74a33.27,33.27,0,0,0-3.46,12.76,113,113,0,0,0-.12,13.91,124.26,124.26,0,0,1-.07,14.18,36.87,36.87,0,0,1-3.5,13.68,36.27,36.27,0,0,0,2.37-13.72,124.1,124.1,0,0,0-1.07-14,115.15,115.15,0,0,1-1-14.25,37.22,37.22,0,0,1,2.76-14.54v0a2.28,2.28,0,0,1,4.18,1.81A.89.89,0,0,1,103.28,363.74Z"></path>
      <path class="cls-10" d="M99.05,385.68a13,13,0,0,0,2.62,2.74,9,9,0,0,1,2.73,3.45,22.36,22.36,0,0,1,1.25,8.25,21.8,21.8,0,0,0-2.31-7.75,7.74,7.74,0,0,0-2.73-2.59A14.67,14.67,0,0,1,97.17,387Z"></path>
      <path class="cls-10" d="M99.32,396.48c1.25,1.29,3.16,2.26,4.26,4a10.24,10.24,0,0,1,1.21,5.73,10,10,0,0,0-1.73-5.38c-1.13-1.49-3-2.17-4.58-3.48Z"></path>
      <path class="cls-10" d="M99.48,400a37.16,37.16,0,0,0-4.61,4.44c-1.36,1.65-2.87,3.28-3.07,5.51a5.65,5.65,0,0,1,.56-3.27,15.8,15.8,0,0,1,1.71-2.86,27.58,27.58,0,0,1,4.49-4.92Z"></path>
      <path class="cls-10" d="M98.81,391.67a24.17,24.17,0,0,0-7.73,5.83,25.4,25.4,0,0,1,6.52-7.76Z"></path>
      <path class="cls-10" d="M98.68,385.6a43.2,43.2,0,0,0-6.19,3.4,6.75,6.75,0,0,0-2.34,2.21,31.77,31.77,0,0,0-1.27,3.28c-1.81,4.64-4.91,8.46-8,12.17,2.76-3.94,5.51-8,6.86-12.55a31.15,31.15,0,0,1,1.07-3.57,8.38,8.38,0,0,1,2.61-3,45.83,45.83,0,0,1,6.22-4Z"></path>
      <path class="cls-10" d="M99,373.41a22.33,22.33,0,0,1-3.34,4.82A10.9,10.9,0,0,1,91,381.72a33.84,33.84,0,0,0-5,2.42,8.57,8.57,0,0,0-3.58,4.1,9,9,0,0,1,3.24-4.57,35,35,0,0,1,4.83-3,9.42,9.42,0,0,0,3.86-3.51,20.17,20.17,0,0,0,2.59-4.67Z"></path>
      <path class="cls-10" d="M98.49,377.63a5.65,5.65,0,0,1,2.77,1.47,18.18,18.18,0,0,1,2.21,2.08,10.76,10.76,0,0,1,2.9,5.15,12.08,12.08,0,0,0-3.87-4,17.46,17.46,0,0,0-2.39-1.39,13.66,13.66,0,0,1-2.37-1.13Z"></path>
      <path class="cls-10" d="M101.79,363.84a39.13,39.13,0,0,1,4,7.45,35.39,35.39,0,0,0,1.83,3.58,37.39,37.39,0,0,1,2.2,3.57,8.48,8.48,0,0,1,.43,4.28,3.13,3.13,0,0,0,.21,1.73,7.49,7.49,0,0,0,1.61,1.06,9.56,9.56,0,0,1,4.29,6.87,9.35,9.35,0,0,0-4.55-6.37,7.29,7.29,0,0,1-1.88-1.08,3.53,3.53,0,0,1-.54-2.22,7.49,7.49,0,0,0-.61-3.79,35.89,35.89,0,0,0-2.35-3.27,37,37,0,0,1-2.17-3.6,37.24,37.24,0,0,0-4.21-6.79Z"></path>
      <path class="cls-10" d="M103.5,367.52c.16.7,1.52.7,2.61,1.23a6.9,6.9,0,0,1,2.46,2.43,10.63,10.63,0,0,1,1.46,6.46,10.42,10.42,0,0,0-1.86-6.2,6.37,6.37,0,0,0-2.37-2.05,9.25,9.25,0,0,0-1.55-.38,2.11,2.11,0,0,1-1.64-1.16Z"></path>
      <path class="cls-10" d="M109.94,379.85c2.64,1.14,5.66,1.72,8.29,3.35a10.27,10.27,0,0,1,3,3.46,9.24,9.24,0,0,1,1.17,4.3,9.08,9.08,0,0,0-1.49-4.1,11,11,0,0,0-3-3.06c-2.5-1.44-5.47-1.92-8.31-3Z"></path>
      <path class="cls-10" d="M104.49,370a19.56,19.56,0,0,0-1.57,8.42c0,2.93.31,5.86.47,8.8-.34-2.92-.84-5.82-1-8.79a20.1,20.1,0,0,1,1.11-8.89Z"></path>
      <path class="cls-10" d="M100.4,365.89a26.27,26.27,0,0,1-7.4,3.25c-2.51.76-5,1.38-7.43,2.22A20.61,20.61,0,0,0,74.06,381a21,21,0,0,1,11.07-10.72c2.43-1,4.91-1.84,7.31-2.76A24.42,24.42,0,0,0,99,364.08Z"></path>
      <path class="cls-10" d="M83.69,371.74a22.13,22.13,0,0,1-1.75,6.77c-.88,2.12-1.5,4.24-2.34,6.41a28.34,28.34,0,0,1-3.38,6c-1.34,1.81-3.1,3.44-3.49,5.74.28-2.32,2-4.09,3.22-5.93a27.44,27.44,0,0,0,3-6c.7-2.1,1.26-4.38,2-6.49a21.5,21.5,0,0,0,1.38-6.44Z"></path>
      <path class="cls-10" d="M79.18,374.78c-.14,1.48-.27,3-.49,4.45a15,15,0,0,1-1.16,4.36c-.79,1.43-2.37,1.89-3.43,2.88A9.82,9.82,0,0,0,71.47,390a10,10,0,0,1,2.5-3.66c1.06-1.06,2.6-1.63,3.22-2.92a14.72,14.72,0,0,0,1-4.25c.17-1.47.25-2.94.34-4.43Z"></path>
      <path class="cls-10" d="M78.71,386.84a49.5,49.5,0,0,1-2.19,13.74,49.07,49.07,0,0,0,1.67-13.75Z"></path>
      <path class="cls-10" d="M91,369.47a23,23,0,0,0-6.85,11,23.55,23.55,0,0,1,6-11.91Z"></path>
      <path class="cls-10" d="M94.31,368.3l-1.26,6.56c-.45,2.17-.58,4.37-1.12,6.63a14.15,14.15,0,0,1-3,6.16c-1.42,1.68-3.38,3.16-3.46,5.5-.14-2.36,1.77-4.13,3-5.87a13.44,13.44,0,0,0,2.27-6c.3-2.11.27-4.4.55-6.64l.75-6.66Z"></path>
      <path class="cls-10" d="M80.65,373.46c-2.35,0-4.88.26-7.23-.63a26.82,26.82,0,0,0-7-1.47,29.25,29.25,0,0,0-14,2.48,27.86,27.86,0,0,1,21.18-1.62c2.19.91,4.63.59,7,.86Z"></path>
      <path class="cls-10" d="M74,373a15.44,15.44,0,0,0-5.61,2.71,19.79,19.79,0,0,0-4.55,4.4,19.88,19.88,0,0,1,4.37-4.65,15.75,15.75,0,0,1,5.67-3.06Z"></path>
      <path class="cls-10" d="M104.17,391.9c2.92,1.26,6,2.64,8.32,4.94a28.57,28.57,0,0,1,5.52,7.89,28.27,28.27,0,0,0-5.87-7.5c-2.38-2.11-5.37-3.26-8.36-4.36Z"></path>
      <path class="cls-10" d="M112.28,396.84a32.13,32.13,0,0,1-2.65,11,32,32,0,0,0,2.19-11Z"></path>
      <polygon class="cls-3" points="35.5 315.4 107.07 345.79 179.72 314.86 179.04 314.67 35.5 315.4"></polygon>
      <ellipse class="cls-1" cx="109.37" cy="316.32" rx="16.78" ry="6.56"></ellipse>
      <ellipse class="cls-14" cx="109.8" cy="318.53" rx="13.83" ry="5.41"></ellipse>
      <path class="cls-15" d="M100.94,14.74S86.18,29.5,104.28,38.59s11.78-4.83,11.78-4.83Z"></path>
      <path class="cls-16" d="M112.45,4.6s-6.72,1.12-9,3.93C99,14,92.08,29.19,108.13,37.47S112.45,4.6,112.45,4.6Z"></path>
      <path class="cls-15" d="M138.52,16.27S136.21,6,134.41,4.16s-7-6.93-22.57-2.21c0,0-.8.28-1.34,2s-2,7.23-1.72,10.72,1.62,10.18,5.77,11.65,24-3.65,24-6.87Z"></path>
      <path class="cls-17" d="M119.21,1.94s-6,0-1.52-1.42c4.35-1.37,12.45,1.8,13.58,3.56a5.7,5.7,0,0,1-.08,6.17c-.37.37-.12-1.5-2.33-3.75A14.63,14.63,0,0,0,119.21,1.94Z"></path>
      <path class="cls-15" d="M136.21,14.7c.2-.31,6.51-4.51,8.89-4.25,1.27.14,7,2.92,7.29,7.34s-2.09,17.89-10.33,15.69S136.21,14.7,136.21,14.7Z"></path>
      <path class="cls-16" d="M136.54,39.72s10.65-2.23,7.61-21.11c0,0-3-12.46-9.74-16.27,0,0-1.4-.94-1.8,0s2.14,1.2,2.55,3.08a8.24,8.24,0,0,1-.74,5.63c-1,2.14-8.22,7.78-8.08,10.86s-.38,18,1.9,20S136.54,39.72,136.54,39.72Z"></path>
      <path class="cls-18" d="M118.51.39s-7.34.74-5.86,1.56,4.25,0,10.55,2.87c3.53,1.61,6.47,4.36,7.41,6.37.6,1.27.62-.17.56-1.39a4,4,0,0,0-1-2.25c-3.58-4.44-6-4.73-9.33-5.61C116,.64,114.84.76,118.51.39Z"></path>
      <path class="cls-18" d="M101.69,23.46c1.76,3.72,5.47,5.78,7.6,6.68a3.18,3.18,0,0,0,2.46.07c1.16-.46,1.43-1.13-2.92-4.73C98.93,17.3,104,9.29,107.53,7c1.81-1.19,2.47-1.63,2.36-1.77a16.73,16.73,0,0,0-5.49,2.44C102.63,9,97.72,15.08,101.69,23.46Z"></path>
      <path class="cls-17" d="M108.13,37.47c.94,1,11,10.44,16.36,9.36,0,0,7.64,1.43,9-8s2.49-15.88-7-19.09-14.64-3.9-16.54-5.55a4.59,4.59,0,0,1-.66-5s-1.81-2.26-2,4C107.19,19.07,107,36.3,108.13,37.47Z"></path>
      <path class="cls-17" d="M142.84,11.67a12.22,12.22,0,0,1,5.9,1.51A5.94,5.94,0,0,1,151,15.4a6.87,6.87,0,0,1,.77,3.07,18.56,18.56,0,0,1-1,6.08A20,20,0,0,1,148.19,30a28.71,28.71,0,0,0,2-5.66,19.61,19.61,0,0,0,.76-5.87,5.36,5.36,0,0,0-2.56-4.81A14.46,14.46,0,0,0,142.84,11.67Z"></path>
      <path class="cls-19" d="M119.11,299.51l-4.37-.71c6.79-41.72,10.31-234.7,8.9-252.39l4.41-.35C129.46,63.83,125.93,257.6,119.11,299.51Z"></path>
      <path class="cls-20" d="M120.78,45.21c.42-.08-2.41-5.49,1.46-11.39s4-6.17,4.28-7.1S129.62,37,129,40.11c0,0,5.62-6.22,10.85-4.19S141,44,141,43.85s1.2-8.71-6.3-2.14c0,0-1.87,4.16-5.21,5.77,0,0-1.33,8.17-7.24,1.88,0,0-4,.41-9.25-3.87,0,0-4.42-1.47-2.94,3.35a4.23,4.23,0,0,1-4.29-4.15c-.41-4.28,1.87-6.56,3.61-6S116.63,46,120.78,45.21Z"></path>
      <path class="cls-11" d="M117.82,296.09a10.35,10.35,0,0,1-.83,5,10.19,10.19,0,0,1-3,4.13,10.18,10.18,0,0,1,.84-5A10.28,10.28,0,0,1,117.82,296.09Z"></path>
      <path class="cls-21" d="M136.22,194.53c4.74-9.9,1.07-17.09-7.66-22.72C126.44,181.2,128.43,188.68,136.22,194.53Z"></path>
      <path class="cls-22" d="M136.18,194.54c-1.05-3.9-1.78-7.88-2.89-11.73a47.53,47.53,0,0,0-4.76-11l.06,0a19.37,19.37,0,0,1,3.4,5.06,30.48,30.48,0,0,1,1.92,5.79c1,3.94,1.53,7.94,2.35,11.88Z"></path>
      <path class="cls-21" d="M145.37,189.33c4.85-10.22,1.27-15.66-7.54-21.75C135.94,176.4,137,184.75,145.37,189.33Z"></path>
      <path class="cls-22" d="M145.33,189.34a62.26,62.26,0,0,0-2.77-11.23,107.34,107.34,0,0,0-4.76-10.5l.06-.05a29.11,29.11,0,0,1,5.31,10.35,55.75,55.75,0,0,1,2.24,11.42Z"></path>
      <path class="cls-21" d="M148.41,186.56c2-10.51,6.56-16.37,17.28-18.32C166.47,179.86,161.34,189.22,148.41,186.56Z"></path>
      <path class="cls-22" d="M148.4,186.52a14.93,14.93,0,0,0,5.29-3.42,40.51,40.51,0,0,0,4.27-4.7c2.56-3.38,4.91-6.92,7.7-10.18l.07,0a60.94,60.94,0,0,1-7.28,10.55A42.29,42.29,0,0,1,154,183.4a15.26,15.26,0,0,1-5.54,3.2Z"></path>
      <path class="cls-21" d="M146.09,189.61c8.83-2.58,17.73.65,24,7C159.1,201.35,152.87,198.44,146.09,189.61Z"></path>
      <path class="cls-22" d="M146.11,189.58a78.59,78.59,0,0,0,11.76,4.24c4,1,8.12,1.82,12.21,2.78v.08a43.76,43.76,0,0,1-12.37-2.24,69.89,69.89,0,0,1-11.63-4.79Z"></path>
      <path class="cls-21" d="M136.72,195.53c10.3-1.79,14.37-.46,20.38,9C145.77,206.4,143.26,203.84,136.72,195.53Z"></path>
      <path class="cls-22" d="M136.74,195.5a32,32,0,0,0,4.93,2.56q2.55,1.13,5.15,2.13a102.69,102.69,0,0,1,10.29,4.32l0,.08a56.7,56.7,0,0,1-10.52-3.8c-1.7-.76-3.4-1.54-5.07-2.37a32.43,32.43,0,0,1-4.81-2.86Z"></path>
      <path class="cls-21" d="M149.06,185.7a73.94,73.94,0,0,1-6.46,5.11c-2.29,1.57-4.74,2.87-7.08,4.36a158.39,158.39,0,0,0-13.4,9.65c-.61.48.25,1.32.85.85a154.62,154.62,0,0,1,14-10c2.27-1.41,4.62-2.68,6.81-4.23a77.83,77.83,0,0,0,6.13-4.9c.59-.5-.26-1.35-.85-.85Z"></path>
      <path class="cls-21" d="M185.68,185.57c6.35-8.75,6.74-15.41,0-24C182.05,169.78,180.41,177.73,185.68,185.57Z"></path>
      <path class="cls-22" d="M185.64,185.57c.25-4,.83-8,1-12.07a56,56,0,0,0-.95-12l.07,0a22.36,22.36,0,0,1,1.52,5.91,30.43,30.43,0,0,1,0,6.11c-.32,4.06-1.07,8-1.56,12Z"></path>
      <path class="cls-21" d="M195.22,182.4c6.44-8.86,6.94-14.39.76-23.59C191.81,166.81,189.87,174.56,195.22,182.4Z"></path>
      <path class="cls-22" d="M195.18,182.39a97.44,97.44,0,0,0,1.25-11.78c0-3.94-.15-7.83-.49-11.79l.08,0a30.8,30.8,0,0,1,1,11.85,81.54,81.54,0,0,1-1.81,11.75Z"></path>
      <path class="cls-21" d="M198.51,180.59c6.52-9.75,12.93-8.91,22.51-3.74C214.79,184.76,207.07,185.59,198.51,180.59Z"></path>
      <path class="cls-22" d="M198.5,180.55c3.79-.45,7.56-1,11.3-1.66s7.43-1.48,11.21-2.08l0,.08a44.47,44.47,0,0,1-11.13,2.64c-3.78.53-7.58.88-11.39,1.1Z"></path>
      <path class="cls-21" d="M195.71,182.85c6.67.75,14,5.69,19.09,10C204,196.57,199.26,193.23,195.71,182.85Z"></path>
      <path class="cls-22" d="M195.74,182.82a35.34,35.34,0,0,0,8.66,6.68,57.18,57.18,0,0,0,10.41,3.33v.08a22.26,22.26,0,0,1-10.7-2.84,33.43,33.43,0,0,1-8.42-7.19Z"></path>
      <path class="cls-21" d="M185.92,186.63c9,.56,12,3.31,14.17,12C191.08,197.14,189.89,194.69,185.92,186.63Z"></path>
      <path class="cls-22" d="M186,186.6c2.3,2.08,4.68,4.06,7.09,6a63.36,63.36,0,0,1,7.08,6l-.05.07a42,42,0,0,1-7.44-5.6c-2.33-2.05-4.6-4.18-6.74-6.43Z"></path>
      <path class="cls-21" d="M199.24,180c-2.52,1.12-4.94,2.45-7.49,3.5a76.78,76.78,0,0,0-7.75,3.31c-4.94,2.72-9.19,6.49-13.39,10.21-.58.52.27,1.37.85.86,4.24-3.76,8.54-7.56,13.56-10.25,2.45-1.31,5.08-2.12,7.62-3.2s4.78-2.31,7.21-3.39c.7-.32.09-1.35-.61-1Z"></path>
      <path class="cls-21" d="M52.76,158.15C42,159.59,36,156.78,31.57,146.8,40.57,147.46,48.35,149.79,52.76,158.15Z"></path>
      <path class="cls-22" d="M52.74,158.19c-3.76-1.48-7.61-2.69-11.34-4.33A31.67,31.67,0,0,1,36,151a22.61,22.61,0,0,1-4.48-4.14l.05-.06a56.22,56.22,0,0,0,10.09,6.51c3.61,1.74,7.42,3.14,11.09,4.83Z"></path>
      <path class="cls-21" d="M45.44,165c-10.85,1.48-15.95-.7-21.13-10.5C33.34,154.66,41.08,156.62,45.44,165Z"></path>
      <path class="cls-22" d="M45.43,165.08a83.43,83.43,0,0,1-11.21-4,31,31,0,0,1-9.94-6.54l0-.06c3.33,2.17,6.67,4.2,10.16,6a96.79,96.79,0,0,0,11,4.47Z"></path>
      <path class="cls-21" d="M42.29,167.08c-11.67,1.13-14,7.17-13.95,18.06C38.26,183.4,42.64,177,42.29,167.08Z"></path>
      <path class="cls-22" d="M42.33,167.1c-2,3.25-4.11,6.43-6.37,9.51a44.48,44.48,0,0,1-7.59,8.56l-.06-.06c2.31-3.05,4.71-6,7.14-8.89s4.62-6,6.81-9.16Z"></path>
      <path class="cls-21" d="M45.61,165.69c-2.5,6.23-1.64,15.06-.22,21.56C53.75,179.52,53.07,173.73,45.61,165.69Z"></path>
      <path class="cls-22" d="M45.65,165.67A33.07,33.07,0,0,1,48,176.5a22.16,22.16,0,0,1-2.56,10.76l-.08,0a56.63,56.63,0,0,0,2-10.75,35.65,35.65,0,0,0-1.77-10.79Z"></path>
      <path class="cls-21" d="M53.58,158.86C49.8,167.06,50.8,171,57.45,177,60.39,168.38,58.79,166.17,53.58,158.86Z"></path>
      <path class="cls-22" d="M53.62,158.84c1,2.95,1.77,6,2.47,9a41.45,41.45,0,0,1,1.4,9.21h-.07a62.15,62.15,0,0,1-2-9.09c-.56-3-1.18-6.07-1.92-9.08Z"></path>
      <path class="cls-21" d="M42,168.47c2-1.52,4-2.9,6-4.42,2.35-1.83,4.44-3.93,6.94-5.58,4.72-3.12,10.06-5.09,15.34-7,.72-.27.41-1.43-.32-1.17-5.23,1.92-10.53,3.87-15.24,6.9a66,66,0,0,0-6.5,5.16c-2.19,1.81-4.57,3.36-6.82,5.09-.61.47,0,1.52.61,1Z"></path>
      <path class="cls-21" d="M102.6,131.71s-17.7-8.62-4.86-24.31C97.74,107.4,112.83,114.61,102.6,131.71Z"></path>
      <path class="cls-21" d="M104.21,134.12c-.72.06,2-19.09,21.68-19.32C125.89,114.8,119.28,132.9,104.21,134.12Z"></path>
      <path class="cls-21" d="M109.85,142.35s4.79-19.9,21.68-18.71C131.53,123.64,128.33,139.72,109.85,142.35Z"></path>
      <path class="cls-19" d="M32.59,101a319.3,319.3,0,0,1,67.54,122.58c4.09,14.16,7.38,28.66,6.48,43.5-.17,2.92,4.38,2.91,4.56,0,.79-13.19-1.64-26.22-5-38.91a315.61,315.61,0,0,0-11.35-34.33,324.42,324.42,0,0,0-34-64.1,328,328,0,0,0-25-31.95c-2-2.2-5.16,1-3.22,3.21Z"></path>
      <path class="cls-21" d="M88.55,150.82c-.2-.2,7.73-6.64,26.48,1.78C115,152.6,102.24,164.67,88.55,150.82Z"></path>
      <path class="cls-21" d="M109.85,142.35s-16.5-9.22-30.16-4.18C79.69,138.17,91,154.38,109.85,142.35Z"></path>
      <path class="cls-21" d="M104.21,134.12a24.59,24.59,0,0,0-2.16-1.61c-4.21-2.85-14.15-8.23-25.79-5.19C76.26,127.32,84.32,142.38,104.21,134.12Z"></path>
      <path class="cls-22" d="M97.8,107.4a91.63,91.63,0,0,0,1.26,12.73c.88,4.17,1.81,8.24,3,12.36l-.11,0a23.21,23.21,0,0,1-2.71-5.9,37.4,37.4,0,0,1-1.18-6.37,74.87,74.87,0,0,1-.43-12.87Z"></path>
      <path class="cls-22" d="M125.92,114.85a66.52,66.52,0,0,0-10.59,8c-1.63,1.5-3.09,3.15-4.62,4.74s-2.94,3.27-4.49,4.91l-.1-.06a27.33,27.33,0,0,1,3.69-5.65,35.91,35.91,0,0,1,4.88-4.67,58.4,58.4,0,0,1,11.17-7.41Z"></path>
      <path class="cls-22" d="M109.87,142.41a19.31,19.31,0,0,1-7.65,1.2,50.35,50.35,0,0,1-7.75-.75,51.77,51.77,0,0,1-7.59-1.72,53.53,53.53,0,0,1-7.21-2.91l0-.12c2.54.53,5,1.27,7.49,1.88s4.94,1.38,7.44,1.92a51.23,51.23,0,0,0,7.59,1.1,19.19,19.19,0,0,0,7.58-.71Z"></path>
      <path class="cls-22" d="M131.56,123.69c-3.89,2.8-7.7,5.74-11.37,8.81-1.82,1.55-3.54,3.21-5.31,4.79a39.28,39.28,0,0,0-5,5.09l-.11-.06a19.71,19.71,0,0,1,4.25-5.9,50.25,50.25,0,0,1,5.55-4.67,143.13,143.13,0,0,1,11.9-8.16Z"></path>
      <path class="cls-22" d="M115,152.66a63,63,0,0,1-13.38,1,29.47,29.47,0,0,1-13.13-2.79l0-.12c2.23.35,4.37.84,6.57,1.09s4.36.69,6.57.86a73.1,73.1,0,0,0,13.31-.17Z"></path>
      <path class="cls-22" d="M104.22,134.18a26.82,26.82,0,0,1-7.27-.13,66.5,66.5,0,0,1-7.15-1.43,56.09,56.09,0,0,1-7-2.1,53.59,53.59,0,0,1-6.58-3.14l.05-.11c2.37.6,4.63,1.4,6.93,2.11l6.83,2.31a65,65,0,0,0,7,1.76,26.16,26.16,0,0,0,7.16.61Z"></path>
      <path class="cls-21" d="M133.62,133.44s-19.37,1.63-18,18.61C115.65,152.05,129.67,151.63,133.62,133.44Z"></path>
      <path class="cls-22" d="M133,134a57.68,57.68,0,0,0-9.23,7.76,86.19,86.19,0,0,0-7.4,9.44l-.11,0a19.83,19.83,0,0,1,2.69-5.53,27.92,27.92,0,0,1,4.14-4.54,50.43,50.43,0,0,1,9.85-7.19Z"></path>
      <path class="cls-21" d="M101.67,131q4.62,8.31,9.69,16.37c3.08,4.88,6.29,9.74,10.63,13.61.58.52,1.43-.33.85-.85-4.4-3.93-7.62-8.89-10.74-13.85q-4.92-7.81-9.39-15.89c-.38-.68-1.42-.07-1,.61Z"></path>
      <path class="cls-21" d="M160.4,259.26c12.9-1.05,22.27-8,20.11-21.77C168.06,237.21,163,249,160.4,259.26Z"></path>
      <path class="cls-21" d="M159.16,259.21c.66.12,4.21-26.28-10.54-25.94C150.33,240.58,145.39,256.72,159.16,259.21Z"></path>
      <path class="cls-21" d="M145.54,266.13c5.81-11.07,5.39-21.92-6.27-28.61C135.61,247.74,138.7,258.07,145.54,266.13Z"></path>
      <path class="cls-21" d="M155.83,285.39c.16-.08-16.29-16.61-22.28-12.25C134.77,283,144.9,290.66,155.83,285.39Z"></path>
      <path class="cls-21" d="M145.54,266.13c10.61.77,22.49,3.17,28.74,12.63C160.14,283.77,150.32,281.13,145.54,266.13Z"></path>
      <path class="cls-21" d="M157,261a29.61,29.61,0,0,1,3.7-.63c10-1.18,16,2.82,23.31,10.53C172.53,276.43,163.3,271,157,261Z"></path>
      <path class="cls-22" d="M180.56,237.52a50,50,0,0,1-7.89,11.83,42.26,42.26,0,0,1-5.1,5,44.71,44.71,0,0,1-5.9,4l-.07-.09c1.67-1.7,3.47-3.23,5.18-4.84s3.54-3.08,5.19-4.74a55.22,55.22,0,0,0,8.48-11.23Z"></path>
      <path class="cls-22" d="M148.67,233.24a117.06,117.06,0,0,1,7.53,11.61,25.69,25.69,0,0,1,2.65,6.48,15.72,15.72,0,0,1,.1,7h-.12a27.48,27.48,0,0,0-1.15-6.68,47.11,47.11,0,0,0-2.34-6.35c-1.94-4.13-4.45-8-6.77-12Z"></path>
      <path class="cls-22" d="M145.59,266.1a12.25,12.25,0,0,0,5.64,5.47,38,38,0,0,0,7.43,3c5.18,1.41,10.47,2.38,15.64,4.15l0,.12c-2.71-.25-5.38-.66-8.05-1.16a56.81,56.81,0,0,1-7.85-2.19,38.37,38.37,0,0,1-7.44-3.38c-2.3-1.44-4.5-3.35-5.45-5.94Z"></path>
      <path class="cls-22" d="M139.32,237.49a63.87,63.87,0,0,1,5.88,13.75,31.12,31.12,0,0,1,1.36,7.42,21.23,21.23,0,0,1-1,7.48l-.11,0a44.17,44.17,0,0,0-.12-7.37,60,60,0,0,0-1.1-7.26,71,71,0,0,0-5-13.93Z"></path>
      <path class="cls-22" d="M135,273.86a31.72,31.72,0,0,0,9.79,6.79c1.82.79,3.73,1.38,5.59,2.14a53.6,53.6,0,0,1,5.51,2.54l0,.12a40.86,40.86,0,0,1-11.48-3.93,29.6,29.6,0,0,1-9.46-7.58Z"></path>
      <path class="cls-22" d="M157.07,260.92a22.36,22.36,0,0,0,6.24,3.52,70.09,70.09,0,0,0,6.81,2.34l7,1.84c2.3.7,4.63,1.33,6.91,2.18l0,.12a55.86,55.86,0,0,1-7.18-1.13,64.93,64.93,0,0,1-7-2.09,69,69,0,0,1-6.76-2.71,22.19,22.19,0,0,1-6.08-4Z"></path>
      <path class="cls-21" d="M130.43,245.83c10.14,7.83,10.29,16.84,2.27,26.57C126.81,264.15,127.31,255.12,130.43,245.83Z"></path>
      <path class="cls-22" d="M130.78,246.55a35.41,35.41,0,0,1,3.51,12.05,28.5,28.5,0,0,1,.17,6.33,26.59,26.59,0,0,1-1.36,6.17l-.12,0c.06-2.11.25-4.17.27-6.23s.19-4.11.08-6.17a38.63,38.63,0,0,0-2.66-12.09Z"></path>
      <path class="cls-21" d="M161.33,257.8a188.6,188.6,0,0,1-19.79,10.32c-7,3.11-14.21,6.2-21.66,8.2a.6.6,0,0,0,.32,1.16c7.31-2,14.31-5,21.23-8a183.45,183.45,0,0,0,20.51-10.63.6.6,0,0,0-.61-1Z"></path>
      <path class="cls-21" d="M48.34,226c-13.56-1.33-21.84-6.71-22.07-21.07C39.24,205.82,43.2,215.38,48.34,226Z"></path>
      <path class="cls-21" d="M48.85,224.24c-.64,0-4.54-27.09,9.46-23.65C56.4,208.59,62.16,223.56,48.85,224.24Z"></path>
      <path class="cls-21" d="M64,232.2c-6.6-11.23-7.61-19.72,3.58-28A32.84,32.84,0,0,1,64,232.2Z"></path>
      <path class="cls-21" d="M56.87,250.15c-.11-.13,14-16.05,18.86-10.33C74.86,248.22,64.39,258.69,56.87,250.15Z"></path>
      <path class="cls-21" d="M64,232.2c-10.52.74-21.26,4.32-27.41,13.34C52.74,247.42,59.47,249.19,64,232.2Z"></path>
      <path class="cls-21" d="M52.26,227.42c-2.42-.11-1.19-.39-4.3-.4-9.45,0-17.46,3.5-24.32,10.85C35.69,242.31,46.43,239,52.26,227.42Z"></path>
      <path class="cls-22" d="M26.32,204.88a75,75,0,0,0,9.48,10.94c1.77,1.64,3.66,3.12,5.5,4.66l5.61,4.61-.06.1a36.72,36.72,0,0,1-6.29-3.76,42.32,42.32,0,0,1-5.43-4.93A65.78,65.78,0,0,1,26.22,205Z"></path>
      <path class="cls-22" d="M58.12,200.09A104.53,104.53,0,0,0,52,212a35.32,35.32,0,0,0-2.21,13h-.12a17.17,17.17,0,0,1-.57-6.81,21.41,21.41,0,0,1,2-6.57A83.85,83.85,0,0,1,58,200Z"></path>
      <path class="cls-22" d="M64,232.23a17.21,17.21,0,0,1-5,6.12,28.36,28.36,0,0,1-7,3.81,44.4,44.4,0,0,1-7.61,2.29c-2.6.48-5.2.9-7.83,1.15l0-.12c2.49-.92,5.06-1.52,7.59-2.21s5.09-1.19,7.55-2c4.88-1.63,9.67-4.41,12.24-9.09Z"></path>
      <path class="cls-22" d="M67.62,204.23a55.33,55.33,0,0,0-4,13.74,60.55,60.55,0,0,0,.4,14.22l-.12,0a25.33,25.33,0,0,1-1.7-7.09,27.14,27.14,0,0,1,.46-7.31,50.58,50.58,0,0,1,4.82-13.64Z"></path>
      <path class="cls-22" d="M74.76,240.34a30.54,30.54,0,0,1-8.52,6.83,34.56,34.56,0,0,1-4.94,2.39,40.64,40.64,0,0,1-5.25,1.55l0-.11a42.92,42.92,0,0,1,4.83-2.55c1.63-.77,3.33-1.37,5-2.13a33.44,33.44,0,0,0,8.87-6.07Z"></path>
      <path class="cls-22" d="M52.14,227.47c-3.74,3.56-8.6,5.77-13.5,7.29a65,65,0,0,1-7.46,2c-2.52.45-5,.89-7.59,1.19l0-.11a63.74,63.74,0,0,1,7.36-2.26c2.48-.63,5-1.07,7.45-1.72,4.89-1.3,9.74-3.17,13.69-6.46Z"></path>
      <path class="cls-21" d="M76.28,212.51c-9.06,9.12-6.89,16.7.53,26.26C81.39,229.78,79.18,221.75,76.28,212.51Z"></path>
      <path class="cls-22" d="M76.08,213.28a34,34,0,0,0-1.23,12.06c.16,2,.55,4,.82,6s.62,4,.78,6.09l-.12,0a34.27,34.27,0,0,1-1.84-5.91,31.3,31.3,0,0,1-.6-6.19A31.68,31.68,0,0,1,76,213.24Z"></path>
      <path class="cls-21" d="M46.57,225.67c14.24,6.21,27.81,14,42.94,17.86a.6.6,0,0,0,.32-1.16c-15-3.87-28.51-11.58-42.65-17.74-.7-.31-1.32.73-.61,1Z"></path>
      <polygon class="cls-21" points="122.32 252.92 126.47 255.32 121.38 255.33 122.32 252.92"></polygon>
      <path class="cls-21" d="M121.09,255.53l1.13-2.91,5,2.9Zm1.33-2.32-.74,1.92h4Z"></path>
      <polygon class="cls-21" points="126.89 117.51 131.04 119.92 125.95 119.92 126.89 117.51"></polygon>
      <path class="cls-21" d="M125.66,120.13l1.12-2.91,5,2.9ZM127,117.8l-.75,1.92h4Z"></path>
      <polygon class="cls-21" points="128.39 85.17 132.54 87.57 127.45 87.58 128.39 85.17"></polygon>
      <path class="cls-21" d="M127.16,87.78l1.13-2.9,5,2.9Zm1.33-2.32-.74,1.92h4.05Z"></path>
      <polygon class="cls-21" points="123.95 96.66 119.8 99.08 124.89 99.07 123.95 96.66"></polygon>
      <path class="cls-21" d="M119.05,99.28l5-2.91,1.13,2.9ZM123.84,97l-3.3,1.93h4Z"></path>
      <polygon class="cls-21" points="121.95 176.24 117.8 178.65 122.9 178.65 121.95 176.24"></polygon>
      <path class="cls-21" d="M117.06,178.86l5-2.91,1.13,2.9Zm4.79-2.33-3.3,1.92h4Z"></path>
      <polygon class="cls-21" points="120.61 229.73 116.46 232.15 121.56 232.14 120.61 229.73"></polygon>
      <path class="cls-21" d="M115.72,232.35l5-2.91,1.13,2.9Zm4.79-2.33-3.3,1.93h4.05Z"></path>
      <path class="cls-23" d="M139.4,87.73l-1.12,1.82c-.17.29-.35.56-.17.9a.6.6,0,0,0,.93.12,2.66,2.66,0,0,0,.54-.82.91.91,0,0,0,.16-.66.62.62,0,0,0-1-.24,4.89,4.89,0,0,0-.55.72c-.5.66-1,1.35-1.46,2-1.37,1.93-2.77,3.83-4.3,5.64a40.77,40.77,0,0,1-5.68,5.62c-.6.47.25,1.31.84.84a46.43,46.43,0,0,0,7.62-8c1.1-1.43,2.15-2.9,3.19-4.37.3-.41.59-.83.9-1.24a1.3,1.3,0,0,0,.18-.23c.16-.35.35.34-.43,0l-.42-.42c-.05-.25.13-.46,0-.26a2.82,2.82,0,0,0-.18.29,2,2,0,0,0-.17.27c-.06.12-.16.16,0,0l.93.12h0l.06.45c-.08.26,0,.07,0,0a2.88,2.88,0,0,0,.22-.38c.33-.54.66-1.08,1-1.61s-.63-1.25-1-.6Z"></path>
      <path class="cls-21" d="M139.78,88.75s17.8-7.57,6-23.62C145.76,65.13,130.6,71.46,139.78,88.75Z"></path>
      <path class="cls-21" d="M138.07,91c.71.09-1-18.85-20.3-20.06C117.77,71,123.34,89.08,138.07,91Z"></path>
      <path class="cls-21" d="M138.07,91a23.86,23.86,0,0,1,2.2-1.47c4.28-2.59,14.31-7.37,25.57-3.8C165.84,85.77,157.18,100.15,138.07,91Z"></path>
      <path class="cls-22" d="M145.82,65.13a73.29,73.29,0,0,1-1.06,12.62,37.92,37.92,0,0,1-1.48,6.19,22.8,22.8,0,0,1-3,5.66l-.1-.06c1.42-4,2.54-7.92,3.61-12a89.41,89.41,0,0,0,1.88-12.43Z"></path>
      <path class="cls-22" d="M117.8,70.93a58.16,58.16,0,0,1,10.59,7.84,35.77,35.77,0,0,1,4.55,4.82,27.22,27.22,0,0,1,3.34,5.74l-.1.06c-1.44-1.69-2.69-3.45-4.16-5s-2.77-3.33-4.29-4.89a66.58,66.58,0,0,0-10-8.42Z"></path>
      <path class="cls-22" d="M138.09,91a25.65,25.65,0,0,0,7-.24,61,61,0,0,0,7-1.38l6.82-1.92c2.29-.58,4.56-1.26,6.91-1.73l0,.12a52.32,52.32,0,0,1-6.61,2.75,55.49,55.49,0,0,1-6.95,1.71,65.12,65.12,0,0,1-7.09,1,26,26,0,0,1-7.15-.24Z"></path>
      <path class="cls-18" d="M8.79,70.58s-3.5-6.23,1.88-9c0,0,2.36,3,8.71-2.87,0,0,1.86-.92,5.33.75s10.19,7.85,8.76,9.72-16.11-.61-17.7.82S8.79,70.58,8.79,70.58Z"></path>
      <path class="cls-24" d="M21.92,60.28s9.36,5.92,11.14,8.53,3.67,22.35-11.51,21.87S6.17,82.33,5.64,80.89a17.42,17.42,0,0,1,.81-13.76,10.29,10.29,0,0,0,6.25-.08C15.88,65.91,21.92,60.28,21.92,60.28Z"></path>
      <path class="cls-17" d="M41.87,75.61s-1.12-9.52-14.48-16c0,0,2.95,5.39,2.64,9.3S26.77,81.38,28,83.76s5.24,9.63,10.55,6.38S41.87,75.61,41.87,75.61Z"></path>
      <path class="cls-17" d="M26.78,85s-3.61-10-13.36-8.44-7.59,2.63-11.49.21c0,0-.5,18.44,8.72,24.12s21.43-1.51,21.43-1.51Z"></path>
      <path class="cls-21" d="M42,97.77a2.14,2.14,0,0,1-.25-3.29c2.65-2.59,6.27-7.62,4.58-13.7C44,72.2,38,67.66,44.09,57.9c0,0-5.94,1.91-6.07,12.38s3.3,10-.2,15.5c0,0-12.88-6-12.65-12.54,0,0-7.25,21.48,5.1,24.13A19,19,0,0,0,21,100c-4.27,2.7-12-6.46-21-1.59,0,0,5.65-2.22,10,4.75s13.76,2.53,19.86-.48c0,0-.42-1.32,1.88.81s4.48,6.67,7.76,5.63,6.89-4.68,5.54-7.87A8.71,8.71,0,0,0,42,97.77Z"></path>
      <path class="cls-19" d="M171.09,142.71a107.91,107.91,0,0,1-14.51,74.9c-12.26,19.68-31,34.68-39.16,56.89-1,2.75,3.38,3.94,4.39,1.21,8.62-23.33,29.46-38.91,41.36-60.32a113,113,0,0,0,12.31-73.89c-.49-2.88-4.88-1.66-4.39,1.21Z"></path>
      <path class="cls-19" d="M78,109.74A418.87,418.87,0,0,0,94.74,266.56a425.31,425.31,0,0,0,15.4,42.09c1.15,2.69,5.07.37,3.93-2.29a412.65,412.65,0,0,1-31.5-196.62c.24-2.92-4.31-2.91-4.56,0Z"></path>
      <path class="cls-11" d="M116.71,250.63c.48-3.56-5.13-3.52-5.6,0-3,22.48.68,46.06-1.93,68.49a44.29,44.29,0,0,0,5.12,2.79C117.33,298.6,113.54,274.32,116.71,250.63Z"></path>
      <path class="cls-11" d="M110.11,272.35a5,5,0,0,1-2.46-1.7,6.69,6.69,0,0,1-1-2.57,27.58,27.58,0,0,1-1.15-5.38l.27-.1q1.44,2.32,2.9,4.51a8.55,8.55,0,0,1,1.44,2.19,6.26,6.26,0,0,1,.25,2.9Z"></path>
      <path class="cls-13" d="M116.24,249.84v0l0,0Z"></path>
      <path class="cls-13" d="M116.6,306.79l-.09-3.43V303l.08-.2c.1-.21.24-.45.38-.69l.88-1.5a7.76,7.76,0,0,0,.71-1.71,2.92,2.92,0,0,0,.11-1,4,4,0,0,0-.17-1,.7.7,0,0,0-.76-.52.86.86,0,0,0-.5.28l-.3.31a4.1,4.1,0,0,1-.56.47c-.15.09-.32.17-.49.25a1.1,1.1,0,0,1,0,.18v.31h0c0,.16,0,.1,0,.14v-.14c0-.2-.33-.38-.34-.34s.07,0,.16-.06l.17-.09c-.52-3.66-.81-7.81-1.13-11.7s-.6-8.05-.54-12l2.27-24.07v-.05l0,0a2.75,2.75,0,0,0-2.08-1.31,2.69,2.69,0,0,0-2,1.35l.12.07a2.05,2.05,0,0,1,3.76,0v0l0,.09,0,0-2.75,24c-.13,4.08.15,8.1.36,12.13s.42,7.77,1,11.93l.06-.16,0,.44,0-.28a.94.94,0,0,0,0,.38.73.73,0,0,0,.66.59,1.64,1.64,0,0,0,.66-.12,7,7,0,0,0,.87-.43,4.87,4.87,0,0,0,.5-.4,2.52,2.52,0,0,0-.09-.71c0-.12,0,.25.5.25l.17-.06h0l0,0-.3.29c-.08.08-.18.14-.26.21a4.63,4.63,0,0,1-.73,2l-.88,1.44c-.15.25-.31.49-.46.79a2.41,2.41,0,0,0-.2.61v.51l0,3.41a116.09,116.09,0,0,1-.76,13.57c0,.51-.14,1-.2,1.54.42.18.84.36,1.27.52.1-.64.24-1.27.32-1.9A114.64,114.64,0,0,0,116.6,306.79Z"></path>
      <path class="cls-12" d="M111.7,288.75s-2.73-4.9,0-38.11c0,0-4.17,24-1.53,37.5,1.39,7.13,1.56,19.84.25,31.69.5.3,1,.59,1.53.88A121.84,121.84,0,0,0,111.7,288.75Z"></path>
      <path class="cls-24" d="M165.9,113.4c-.15-1-1.43-8,7.1-7.69,0,0,.85,1.41,5.55,0s7,3.64,6.55,5.23-7.24,11.24-13.08,10.91S165.9,113.4,165.9,113.4Z"></path>
      <path class="cls-17" d="M162.78,123.65s2.12-13,1.69-13.94,8.54,7,8.54,7,10.09-8.41,11-7.84,5.13,10.23,0,16.36-11.23,11.67-15.35,9S162.47,125.61,162.78,123.65Z"></path>
      <path class="cls-21" d="M179.16,138.42s6-1.29,6.67-5.56.13-9.67,1.7-11.52c0,0-3.13.72-4.2,2.14a11.46,11.46,0,0,0-4.2-9.1s-2.41,5.69-5.11,8.26-3.12,7-3.12,8.25-6.83-3.55-7.27-14.64a31,31,0,0,1-2.56,6.69c-1.7,3.13,2,13.65,7.13,13.79C168.2,136.73,174.05,148.81,179.16,138.42Z"></path>
      <path class="cls-18" d="M90.22,74c0-.76,1.55-9.24-5.13-5.82s-6.83,1.1-7.25,1.43-2.16,3.84,2.34,6.25S90.21,75.36,90.22,74Z"></path>
      <path class="cls-24" d="M94.64,81.06s1.41-8.54-4.28-11.52c0,0-7.28,4.71-10.19,1a3.4,3.4,0,0,0-4-.14c-2.27,1.43-6.67,12.67-4.81,17.29S88.11,94.15,90,91.45,94.64,81.06,94.64,81.06Z"></path>
      <path class="cls-17" d="M73.86,71.84S62.35,83.41,67.49,97l7.12,6.09s4.27,1.56,6.83-1.29,2.55-8.11,1.69-9.39A39,39,0,0,1,73.86,71.84Z"></path>
      <path class="cls-17" d="M95.08,97s6.82-8.13,0-18.64c0,0-17,.46-14.63,14.81s7,6.39,7.83,6.1S92.89,96,95.08,97Z"></path>
      <path class="cls-21" d="M83.43,105.68c.67-2.85,7.25-6.41,8.24-6.69s6-1.58,3.85,4.54c0,0,6-8.68-3.85-9a11.52,11.52,0,0,0-6.54,4.7s2.41-10.1,1.12-14.37c0,0-7.39,7.55-8.38,10.39a13.79,13.79,0,0,0-1,6c.15,1.28-3.84.15-6-2.55s-3.57-8.39-8.4-3.41.3,8.82,1.72,8.25c0,0-1.86-5.12,1.56-4.84s4.55,4.83,10.25,7c0,0-.23,2.56,2.87,3.27S82.87,108.1,83.43,105.68Z"></path>
      <polygon class="cls-21" points="173.94 184.89 178.09 187.3 173 187.3 173.94 184.89"></polygon>
      <path class="cls-21" d="M172.71,187.51l1.12-2.91,5,2.9Zm1.33-2.33-.75,1.92h4.05Z"></path>
      <polygon class="cls-21" points="160.29 217.64 163.8 220.91 158.83 219.78 160.29 217.64"></polygon>
      <path class="cls-21" d="M164.48,221.28l-6-1.37,1.75-2.58.17.16Zm-5.32-1.63,4,.9-2.79-2.6Z"></path>
      <polygon class="cls-21" points="172.63 167.07 167.83 166.86 172.12 169.61 172.63 167.07"></polygon>
      <path class="cls-21" d="M172.26,169.93l-5.16-3.3,5.77.25Zm-3.69-2.83,3.42,2.18.4-2Z"></path>
      <polygon class="cls-21" points="144.57 234.89 140.15 233.03 143.21 237.09 144.57 234.89"></polygon>
      <path class="cls-21" d="M143.23,237.45l-.17-.24-3.52-4.66,5.33,2.25Zm-2.47-3.95,2.44,3.23,1.08-1.75Z"></path>
      <polygon class="cls-21" points="93.15 257.95 89 260.37 94.09 260.36 93.15 257.95"></polygon>
      <path class="cls-21" d="M88.25,260.57l5-2.91,1.13,2.9Zm4.8-2.33-3.31,1.93H93.8Z"></path>
      <polygon class="cls-21" points="80.48 195.55 76.33 197.96 81.42 197.96 80.48 195.55"></polygon>
      <path class="cls-21" d="M75.59,198.17l5-2.91,1.14,2.9Zm4.79-2.33-3.31,1.92h4.06Z"></path>
      <polygon class="cls-21" points="97.05 209.8 92.9 212.21 97.99 212.21 97.05 209.8"></polygon>
      <path class="cls-21" d="M92.15,212.42l5-2.91,1.13,2.9Zm4.8-2.33L93.64,212h4Z"></path>
      <polygon class="cls-21" points="74.3 157.76 70.15 160.17 75.24 160.17 74.3 157.76"></polygon>
      <path class="cls-21" d="M69.4,160.37l5-2.91,1.13,2.91Zm4.8-2.32L70.89,160h4Z"></path>
      <polygon class="cls-21" points="63.86 135.87 68.59 135.06 64.69 138.32 63.86 135.87"></polygon>
      <path class="cls-21" d="M64.59,138.67l-1-3,5.7-1ZM64.12,136l.66,1.95,3.11-2.6Z"></path>
      <path class="cls-21" d="M101.54,182s2.4-14.88-15.7-17.67C85.84,164.29,87.47,180.9,101.54,182Z"></path>
      <path class="cls-22" d="M101.51,182c-2.32-3.22-4.76-6.36-7.3-9.39-1.31-1.49-2.62-3-4-4.39a21.39,21.39,0,0,0-4.41-3.87l0-.08a14.16,14.16,0,0,1,5,3.39,49.41,49.41,0,0,1,3.9,4.54c2.45,3.14,4.73,6.4,6.87,9.75Z"></path>
      <path class="cls-21" d="M108.9,174.49s2.53-14.47-15.16-16.73C93.74,157.76,95.9,175.19,108.9,174.49Z"></path>
      <path class="cls-22" d="M108.86,174.52a76.76,76.76,0,0,0-6.89-9,69.22,69.22,0,0,0-8.25-7.71l0-.06a24.7,24.7,0,0,1,8.7,7.35,67.5,67.5,0,0,1,6.47,9.39Z"></path>
      <path class="cls-21" d="M110.85,171s-4.71-16.33,9.22-21.18C120.07,149.82,129.34,169,110.85,171Z"></path>
      <path class="cls-22" d="M110.84,171a13.85,13.85,0,0,0,3.32-4.69,50.21,50.21,0,0,0,2.23-5.37c1.21-3.7,2.29-7.42,3.64-11.1l.08,0a46.1,46.1,0,0,1-3.11,11.3,51.58,51.58,0,0,1-2.48,5.33,14,14,0,0,1-3.65,4.58Z"></path>
      <path class="cls-21" d="M109.81,174.49s15-9.93,26.12-5.26C135.93,169.23,127,182.24,109.81,174.49Z"></path>
      <path class="cls-22" d="M109.81,174.45a64.38,64.38,0,0,0,13.28-1.53c2.17-.5,4.32-1.06,6.44-1.72s4.24-1.34,6.39-2l0,.07a38.56,38.56,0,0,1-6.18,2.7,46.07,46.07,0,0,1-6.56,1.58,58.52,58.52,0,0,1-13.4,1Z"></path>
      <path class="cls-21" d="M102.31,182.67s14-8.32,27.46-3C129.77,179.69,116.52,193.37,102.31,182.67Z"></path>
      <path class="cls-22" d="M102.32,182.63a24.83,24.83,0,0,0,6.89.21c2.3-.16,4.59-.46,6.87-.82,4.55-.81,9.07-1.73,13.68-2.37l0,.08c-2.21.74-4.46,1.31-6.73,1.83s-4.57.83-6.87,1.1-4.63.5-7,.58a24.89,24.89,0,0,1-6.94-.53Z"></path>
      <path class="cls-21" d="M111.17,170c-2.06,4.39-5.66,7.79-8.94,11.26l-8.88,9.38c-.53.57.32,1.42.85.86l9.12-9.64c3.28-3.46,6.83-6.88,8.89-11.25.33-.7-.71-1.31-1-.61Z"></path>
    </g>
  </g>
</svg>
