<?xml version="1.0" encoding="UTF-8"?>
<svg xmlns="http://www.w3.org/2000/svg" xmlns:xlink="http://www.w3.org/1999/xlink" viewBox="0 0 93.88 176.75">
  <defs>
    <style>.cls-1{fill:#8e6848;}.cls-2{fill:url(#Безымянный_градиент_7);}.cls-3{fill:#713e21;}.cls-4{fill:#3d271f;}.cls-5{fill:#69391e;}.cls-6{fill:#6b482f;}.cls-7{fill:#5c3624;}.cls-8{fill:#795135;}.cls-9{fill:#9a734f;}.cls-10{fill:#cacac9;}.cls-11{fill:#85563a;}.cls-12{fill:#769b57;}.cls-13{fill:#79a05b;}.cls-14,.cls-15{fill:none;stroke:#79a05b;stroke-miterlimit:10;}.cls-14{stroke-width:0.38px;}.cls-15{stroke-width:0.28px;}.cls-16{fill:#eaca57;}</style>
    <linearGradient id="Безымянный_градиент_7" x1="45.09" y1="209.16" x2="49.46" y2="127.83" gradientUnits="userSpaceOnUse">
      <stop offset="0.38" stop-color="#9b714f"></stop>
      <stop offset="0.91" stop-color="#754427"></stop>
      <stop offset="1" stop-color="#6e3c20"></stop>
    </linearGradient>
  </defs>
  <g id="Слой_2" data-name="Слой 2">
    <g id="Слой_1-2" data-name="Слой 1">
      <path class="cls-1" d="M49.49,120.73s8.15,9.57,14.44,10,27.78-6.4,27.78-6.4l2.17-22.38L49.49,86.25Z"></path>
      <path class="cls-1" d="M.64,100.32l4.43,29.19s15.73,2.36,18.48,1.58,15.34-5.51,18.88-5.51,7.06-4.85,7.06-4.85V86.25Z"></path>
      <polygon class="cls-2" points="7.18 156.83 49.49 176.75 88.63 156.93 47.94 139.69 7.18 156.83"></polygon>
      <path class="cls-3" d="M7.18,156.83,5.07,129.51s20.06-.39,25.56-3.14,18.86-5.64,18.86-5.64l-1.55,19Z"></path>
      <path class="cls-4" d="M35.77,131.21a7.18,7.18,0,0,0-2.4-1.41v0s-3.21-.95-5,1.2-1.45,4.48-.65,4.85a8.54,8.54,0,0,0,1.38.29s0,0,.08,0a22.49,22.49,0,0,0,3-.67,1.39,1.39,0,0,0,.52-.13l.55-.16c1.25-.39,1.41-.11,2.27-.86a3.37,3.37,0,0,0,.92-2.16,2.46,2.46,0,0,0-.17-.42h0l0,0A.81.81,0,0,0,35.77,131.21Z"></path>
      <path class="cls-4" d="M18.59,134a9.46,9.46,0,0,0-3.4,1.12v0s-3.64,2.28-3,5.79,3.09,5.19,4.13,4.74a13,13,0,0,0,1.45-1.08s0-.08,0-.11c.78-.89,1.35-2.68,1.87-3.44a1.7,1.7,0,0,0,.3-.61c.09-.17.18-.35.31-.66.69-1.54,1.09-1.45,1.1-2.93a4.28,4.28,0,0,0-1.3-2.71,3,3,0,0,0-.56-.2h-.06A1.07,1.07,0,0,0,18.59,134Z"></path>
      <path class="cls-5" d="M49.49,120.73l-1.55,19,40.69,17.24,3.08-32.64s-12.68-1.46-18.19-.68-15.1,3.15-18,1.58A38.63,38.63,0,0,1,49.49,120.73Z"></path>
      <path class="cls-4" d="M34,140.21a2.71,2.71,0,0,0-1.06-.26h0a1.94,1.94,0,0,0-1.72,1c-.42,1-.05,1.85.29,1.9a4.28,4.28,0,0,0,.55-.05s0,0,0,0a9.9,9.9,0,0,0,1-.58.7.7,0,0,0,.18-.11l.19-.12c.42-.29.51-.2.75-.58a1.28,1.28,0,0,0,.11-.91.69.69,0,0,0-.12-.14h0A.34.34,0,0,0,34,140.21Z"></path>
      <path class="cls-4" d="M73.86,132.05a1.94,1.94,0,0,0-.1-.75h0s-.32-.86-1.08-.88-1.21.43-1.16.66a2.7,2.7,0,0,0,.17.35h0a5.78,5.78,0,0,0,.64.53.39.39,0,0,0,.11.09l.13.09c.29.21.25.29.56.35a.91.91,0,0,0,.62-.15l.06-.11h0A.23.23,0,0,0,73.86,132.05Z"></path>
      <path class="cls-4" d="M85.22,145.75a9.42,9.42,0,0,0-1.61-3.23h0s-2.8-3.3-6.22-2.2-4.74,3.85-4.14,4.82a12.91,12.91,0,0,0,1.29,1.29s.08,0,.12,0c1,.65,2.87,1,3.7,1.37A1.78,1.78,0,0,0,79,148a7.12,7.12,0,0,0,.71.22c1.64.46,1.61.88,3.08.67a4.34,4.34,0,0,0,2.53-1.69,4.21,4.21,0,0,0,.11-.59h0v-.06A1.11,1.11,0,0,0,85.22,145.75Z"></path>
      <path class="cls-4" d="M63.11,134.5a7.27,7.27,0,0,0-1.58,2.28h0s-1.18,3.1.82,5,4.33,1.76,4.76,1a9.21,9.21,0,0,0,.39-1.35s0,0,0-.08a23.39,23.39,0,0,0-.45-3,1.63,1.63,0,0,0-.09-.52c0-.14-.06-.3-.12-.56-.29-1.27,0-1.4-.68-2.31A3.33,3.33,0,0,0,64,133.89a2.11,2.11,0,0,0-.43.14v0l0,0A.8.8,0,0,0,63.11,134.5Z"></path>
      <path class="cls-6" d="M63.26,157.69a1.35,1.35,0,0,0,1.33-.35c.46-.6.36-1.22.15-1.32l-.38-.07c-.24,0-.27.59-.28.6Z"></path>
      <path class="cls-7" d="M62.46,157.2s.75.67,1,.46.68-.39.68-.39l0-.2a2.8,2.8,0,0,0-.81-.28l-.48.17A3,3,0,0,0,62.46,157.2Z"></path>
      <path class="cls-8" d="M62.42,157.08a.26.26,0,0,0,.33.23,4.35,4.35,0,0,0,.45-.19s.22-.7.27-.82.13-.16-.21-.05-.38,0-.61.24A.89.89,0,0,0,62.42,157.08Z"></path>
      <path class="cls-9" d="M63.2,157.12a5.91,5.91,0,0,0,.11-.59c0-.27,0-.33.24-.37s.7-.28.93-.19.22.07.22.37a1.09,1.09,0,0,1-.32.74.59.59,0,0,1-.65.27A1.5,1.5,0,0,1,63.2,157.12Z"></path>
      <path class="cls-6" d="M54.22,152.5A3,3,0,0,0,57,151.09c.72-1.52.21-2.85-.31-3a5.4,5.4,0,0,0-.86,0c-.55,0-.31,1.41-.33,1.44S54.22,152.5,54.22,152.5Z"></path>
      <path class="cls-7" d="M52.23,151.8s2,1.12,2.53.52,1.29-1.18,1.29-1.18l-.13-.44a6.1,6.1,0,0,0-1.92-.21c-.31.17-.84.52-1,.58A8.76,8.76,0,0,0,52.23,151.8Z"></path>
      <path class="cls-8" d="M52.07,151.57a.58.58,0,0,0,.84.34,7.34,7.34,0,0,0,.89-.64s.15-1.63.21-1.93.2-.41-.49,0-.81.26-1.22.83A2,2,0,0,0,52.07,151.57Z"></path>
      <path class="cls-9" d="M53.8,151.27a9.22,9.22,0,0,0,0-1.34c-.07-.59-.13-.74.36-.92s1.42-.95,2-.87.5.06.65.72a2.43,2.43,0,0,1-.35,1.77,1.37,1.37,0,0,1-1.29.91A3.5,3.5,0,0,1,53.8,151.27Z"></path>
      <path class="cls-6" d="M45.78,159.08a3,3,0,0,0,3,.36c1.42-.83,1.73-2.18,1.37-2.56a5.86,5.86,0,0,0-.7-.44c-.47-.28-1,1-1.06,1S45.78,159.08,45.78,159.08Z"></path>
      <path class="cls-7" d="M44.56,157.42s1,2,1.76,1.81S48,159,48,159l.13-.43s-1.1-1.18-1.44-1.22-1,0-1.11-.06A7.13,7.13,0,0,0,44.56,157.42Z"></path>
      <path class="cls-8" d="M44.55,157.15c0,.2,0,.7.5.73a8.06,8.06,0,0,0,1.06,0s1-1.24,1.24-1.45.38-.23-.4-.27-.8-.23-1.44,0A2,2,0,0,0,44.55,157.15Z"></path>
      <path class="cls-9" d="M46.11,157.86a8.91,8.91,0,0,0,.71-1.12c.26-.51.29-.66.79-.54s1.67,0,2.06.37.38.32.14.94-.59.85-1.26,1.24a1.3,1.3,0,0,1-1.53,0A3.55,3.55,0,0,1,46.11,157.86Z"></path>
      <path class="cls-6" d="M42.15,153.63a2.26,2.26,0,0,0,.08-2.31c-.73-1-1.78-1.18-2-.88a4.73,4.73,0,0,0-.3.57c-.18.37.81.72.82.74Z"></path>
      <path class="cls-7" d="M41,154.67s1.44-.87,1.26-1.46a12.45,12.45,0,0,1-.3-1.28l-.34-.07s-.83.91-.83,1.17,0,.75,0,.86A6,6,0,0,0,41,154.67Z"></path>
      <path class="cls-8" d="M40.76,154.69c.15,0,.54,0,.53-.42a5.39,5.39,0,0,0-.09-.81s-1-.7-1.19-.85-.2-.28-.18.32-.12.63.1,1.1A1.5,1.5,0,0,0,40.76,154.69Z"></path>
      <path class="cls-9" d="M41.2,153.46a7,7,0,0,0-.9-.47c-.41-.16-.53-.18-.47-.56s-.1-1.28.15-1.6.22-.32.71-.17a1.77,1.77,0,0,1,1,.88,1,1,0,0,1,.12,1.16A2.63,2.63,0,0,1,41.2,153.46Z"></path>
      <path class="cls-6" d="M35,155.33a1,1,0,0,0,.33-1c-.17-.51-.59-.71-.74-.62a1.92,1.92,0,0,0-.19.2c-.13.13.24.4.24.41Z"></path>
      <path class="cls-7" d="M34.36,155.61s.7-.17.71-.44,0-.57,0-.57l-.13-.07s-.46.27-.49.38-.08.31-.1.35A2.37,2.37,0,0,0,34.36,155.61Z"></path>
      <path class="cls-8" d="M34.27,155.59c.06,0,.22.07.27-.1a2.62,2.62,0,0,0,.07-.35s-.34-.42-.39-.5,0-.14-.11.1-.13.25-.1.47A.62.62,0,0,0,34.27,155.59Z"></path>
      <path class="cls-9" d="M34.61,155.14a3.27,3.27,0,0,0-.32-.31c-.15-.12-.19-.14-.12-.29s.12-.55.27-.65.13-.1.31,0a.84.84,0,0,1,.32.5.46.46,0,0,1-.1.5A1.24,1.24,0,0,1,34.61,155.14Z"></path>
      <path class="cls-6" d="M32.78,159.29s1.39-2.24.11-4-3.09-2-3.54-1.49a7.76,7.76,0,0,0-.51,1c-.31.66,1.41,1.24,1.43,1.28S32.78,159.29,32.78,159.29Z"></path>
      <path class="cls-7" d="M30.75,161.11s2.48-1.52,2.17-2.55a22,22,0,0,1-.54-2.21l-.58-.12s-1.43,1.59-1.43,2,.06,1.29.05,1.49A9.89,9.89,0,0,0,30.75,161.11Z"></path>
      <path class="cls-8" d="M30.39,161.14c.26,0,.93,0,.9-.74a9.59,9.59,0,0,0-.16-1.4s-1.77-1.2-2.06-1.46-.35-.47-.31.56-.21,1.09.18,1.9A2.6,2.6,0,0,0,30.39,161.14Z"></path>
      <path class="cls-9" d="M31.13,159a12.05,12.05,0,0,0-1.56-.79c-.71-.28-.92-.31-.82-1s-.19-2.21.25-2.77.37-.55,1.21-.3a3.15,3.15,0,0,1,1.8,1.51,1.76,1.76,0,0,1,.23,2A4.55,4.55,0,0,1,31.13,159Z"></path>
      <path class="cls-10" d="M48.44,111c-1.84,2.13-5.06,4.44-3.75,7.68.16.39.8.22.64-.17-1.21-3,1.9-5.09,3.58-7,.28-.32-.19-.79-.47-.47Z"></path>
      <path class="cls-10" d="M49.5,112.81c-2,1.19-4.36,1.45-6.33,2.65s-2.59,3-3.16,5.07a.33.33,0,0,0,.63.17c.77-2.7,1.9-4.46,4.61-5.47a26,26,0,0,0,4.58-1.85.33.33,0,0,0-.33-.57Z"></path>
      <path class="cls-10" d="M48.94,114c-.89,2-1.8,4-2.67,6a7.4,7.4,0,0,0-.82,4.14c0,.42.69.24.63-.18-.28-2,.86-3.85,1.65-5.62l1.78-4c.18-.39-.4-.72-.57-.33Z"></path>
      <path class="cls-10" d="M48.6,115.38a6.05,6.05,0,0,1-1.93,3.82,21.88,21.88,0,0,0-2.49,2,8.24,8.24,0,0,0-1.91,4.55c-.05.42.61.42.66,0,.35-3,2-4.31,4.2-6a6.52,6.52,0,0,0,2.11-4.16c.09-.42-.55-.59-.64-.18Z"></path>
      <path class="cls-10" d="M46.75,119.21c-2.32,1.35-4.65,2.66-7,4a6.85,6.85,0,0,0-3.16,3.47l.65.09,0-.56c0-.43-.63-.42-.66,0l0,.56c0,.41.52.41.65.09.89-2.19,2.85-3.08,4.77-4.2l5-2.91a.33.33,0,0,0-.33-.58Z"></path>
      <path class="cls-10" d="M49.22,114.58a3.92,3.92,0,0,1-.75,3.48c-.43.54-1,.9-1.43,1.47a5.6,5.6,0,0,0-.59,3.8l.42-.32-.56-.12c-.41-.09-.59.55-.17.64l.55.12a.34.34,0,0,0,.42-.32,5.52,5.52,0,0,1,.35-3.27c.44-.72,1.24-1.13,1.73-1.81a4.62,4.62,0,0,0,.66-3.85c-.09-.42-.73-.24-.63.18Z"></path>
      <path class="cls-10" d="M49.48,118.56a15,15,0,0,1-.73,5.41,11.19,11.19,0,0,0-1.11,3.82.34.34,0,0,0,.67,0c0-1.74,1-3.14,1.45-4.78a17.48,17.48,0,0,0,.38-4.45.33.33,0,0,0-.66,0Z"></path>
      <path class="cls-10" d="M42.79,133.92c1.21-3.22,3.38-5,6-7a8.39,8.39,0,0,0,3.32-5.18c.08-.41-.56-.59-.64-.17-.64,3.35-3.08,4.63-5.49,6.65a13,13,0,0,0-3.83,5.56c-.15.4.49.57.64.17Z"></path>
      <path class="cls-10" d="M48.16,135.67c1.43-1.22,1.6-2.89,1.88-4.66a35.21,35.21,0,0,1,2.12-7.52c.15-.39-.49-.57-.64-.17a34.6,34.6,0,0,0-1.82,5.89c-.43,2-.3,4.54-2,6-.33.28.14.74.46.47Z"></path>
      <path class="cls-10" d="M46.82,133.57a34.06,34.06,0,0,1,3.42-4.16c.3-.31-.17-.78-.47-.47a37.26,37.26,0,0,0-3.53,4.29c-.24.35.33.69.58.34Z"></path>
      <path class="cls-10" d="M46.49,140.69c.69-1.95,2-3.22,2.9-5s.93-3.72,1.74-5.49c.18-.39-.39-.73-.57-.34-1,2.18-1.16,4.58-2.52,6.58a17.88,17.88,0,0,0-2.19,4.09c-.14.4.5.57.64.17Z"></path>
      <path class="cls-10" d="M49.17,111.88a3.93,3.93,0,0,0,4.49,3.7c.42-.07.24-.71-.17-.64a3.26,3.26,0,0,1-3.66-3.06c0-.42-.68-.42-.66,0Z"></path>
      <path class="cls-10" d="M49.85,114.61a2,2,0,0,0,1.27,1,14,14,0,0,0,1.69.38c1.16.22,2.31.55,3.47.86a35.06,35.06,0,0,1,3.43,1.1,15.81,15.81,0,0,1,3.17,1.69l0,.06a22.28,22.28,0,0,0-6.7-2.26c-1.17-.23-2.35-.39-3.51-.71a8.08,8.08,0,0,1-1.73-.64,3.1,3.1,0,0,1-.75-.6,1.47,1.47,0,0,1-.37-.87Z"></path>
      <path class="cls-10" d="M50.84,115.62a10.91,10.91,0,0,1,2.5,2.68c.7,1,1.33,2,2,3a9.59,9.59,0,0,0,2.44,2.48,4.9,4.9,0,0,0,3.32.91,5,5,0,0,1-3.44-.73A9.27,9.27,0,0,1,55,121.5c-.73-1-1.41-1.92-2.14-2.84a10.23,10.23,0,0,0-2.43-2.4Z"></path>
      <path class="cls-10" d="M50.93,119.24A15.8,15.8,0,0,0,52,123.56a19.53,19.53,0,0,1,1.1,5.77c0,.42.68.43.67,0a19.38,19.38,0,0,0-.67-4.54c-.53-1.87-1.4-3.57-1.5-5.55,0-.43-.68-.43-.66,0Z"></path>
      <path class="cls-10" d="M50.14,120.46c1.89,3,6.21,3.41,7.71,6.69.18.39.75,0,.57-.34-1.52-3.33-5.82-3.68-7.71-6.68-.23-.36-.8,0-.57.33Z"></path>
      <path class="cls-10" d="M51.19,125.9c.84,1.66,2.62,1.8,4.31,2.07,2.74.45,6.84.08,9,1.89.33.27.8-.2.47-.47A6.74,6.74,0,0,0,61.16,128c-2.21-.25-8.16,0-9.4-2.45-.19-.38-.76,0-.57.33Z"></path>
      <path class="cls-10" d="M57.35,128.31a16,16,0,0,1,3,6.09c.1.41.74.24.64-.18a16.83,16.83,0,0,0-3.16-6.38c-.27-.33-.73.14-.47.47Z"></path>
      <path class="cls-10" d="M50.59,126.17a21.16,21.16,0,0,1,3.15,5.47c.13.4.77.23.63-.18a21.42,21.42,0,0,0-3.21-5.63c-.24-.34-.82,0-.57.34Z"></path>
      <path class="cls-10" d="M50.74,125.91a142.08,142.08,0,0,1-.8,17.62c0,.43.62.42.67,0a146.06,146.06,0,0,0,.8-17.62.34.34,0,0,0-.67,0Z"></path>
      <path class="cls-10" d="M49,110.35l.08,4.44a.33.33,0,0,0,.66,0l-.08-4.44a.33.33,0,0,0-.66,0Z"></path>
      <path class="cls-10" d="M49.32,108.61c-1.7,2.71-.14,5.94-.86,8.89-.1.41.54.59.64.17.69-2.83-.82-6.16.8-8.73.22-.36-.35-.69-.58-.33Z"></path>
      <path class="cls-10" d="M49.74,115.43a12.2,12.2,0,0,1,.74,4.67.33.33,0,0,0,.66,0,12.66,12.66,0,0,0-.76-4.84c-.15-.4-.79-.23-.64.17Z"></path>
      <path class="cls-10" d="M49.32,116.16v4.28a.33.33,0,0,0,.66,0v-4.28a.33.33,0,0,0-.66,0Z"></path>
      <path class="cls-10" d="M50.38,117l-.17,3.15a5.62,5.62,0,0,1-.6,3.09c-.25.35.32.68.57.34a4.29,4.29,0,0,0,.64-2.45c.08-1.38.15-2.76.23-4.13,0-.43-.64-.43-.67,0Z"></path>
      <path class="cls-10" d="M50,120a15.07,15.07,0,0,1-1.63,5.07c-.2.38.37.72.57.34a15.38,15.38,0,0,0,1.7-5.23c0-.42-.59-.6-.64-.18Z"></path>
      <path class="cls-10" d="M49.63,116.94l.62,4.09c.07.42.7.24.64-.18l-.62-4.09c-.06-.42-.7-.24-.64.18Z"></path>
      <path class="cls-10" d="M49.63,115.31a29.34,29.34,0,0,0,.64,4.66.33.33,0,0,0,.64,0l.12-.64c.08-.42-.56-.59-.64-.18l-.12.64h.64a28.24,28.24,0,0,1-.62-4.48c0-.43-.69-.43-.66,0Z"></path>
      <path class="cls-10" d="M50.32,116.33a9.82,9.82,0,0,0,.8,2.92.33.33,0,0,0,.52.06,2,2,0,0,0,.52-1.79c0-.31-.46-.29-.6-.08l-.4.57.61.08-.67-2.28a.33.33,0,0,0-.63,0,5.24,5.24,0,0,0,0,2c0,.32.45.28.6.08a2.51,2.51,0,0,0,.55-1.74l-.65.08.24,1.31c.07.38.63.26.65-.09a4.41,4.41,0,0,0-1-3.15c-.27-.33-.73.14-.47.47a3.73,3.73,0,0,1,.85,2.68l.65-.09-.24-1.3c-.07-.37-.67-.29-.66.09a2,2,0,0,1-.45,1.41l.61.08a4.47,4.47,0,0,1,0-1.71h-.63l.66,2.29a.34.34,0,0,0,.61.08l.39-.58-.61-.08a1.2,1.2,0,0,1-.35,1.15l.52.07a8.83,8.83,0,0,1-.71-2.58c0-.41-.72-.42-.66,0Z"></path>
      <path class="cls-10" d="M50.65,121.65a18.47,18.47,0,0,1-.26,5.14l.65.08,0-.45c0-.42-.69-.42-.66,0l0,.45c0,.35.58.48.65.09a18.92,18.92,0,0,0,.3-5.31c0-.42-.7-.43-.67,0Z"></path>
      <path class="cls-10" d="M50.14,121a93.4,93.4,0,0,1-.23,10.71c0,.39.54.42.65.08l1.09-3.2c.14-.4-.5-.58-.64-.18l-1.09,3.21.65.09A91.18,91.18,0,0,0,50.8,121a.33.33,0,0,0-.66,0Z"></path>
      <path class="cls-10" d="M50.06,123a3.36,3.36,0,0,1-.24,1.75c-.17.39.4.73.57.34a4.05,4.05,0,0,0,.33-2.09c0-.41-.7-.42-.66,0Z"></path>
      <path class="cls-10" d="M51.2,122.32a19.69,19.69,0,0,0,.66,5.23.33.33,0,0,0,.64-.18,18.75,18.75,0,0,1-.63-5.05.34.34,0,0,0-.67,0Z"></path>
      <path class="cls-10" d="M51.09,126.52a9.63,9.63,0,0,0-.46,3.24.33.33,0,0,0,.65.09,14,14,0,0,0,.06-9.91c-.14-.4-.78-.23-.63.17a13.51,13.51,0,0,1-.07,9.56l.66.09a9.28,9.28,0,0,1,.42-3.06.33.33,0,0,0-.63-.18Z"></path>
      <path class="cls-10" d="M50.4,119.67,50.17,121a.33.33,0,0,0,.64.17,4.08,4.08,0,0,0,.2-1.59c0-.42-.69-.43-.66,0a3.81,3.81,0,0,1-.18,1.42l.64.17.23-1.32c.07-.42-.57-.6-.64-.18Z"></path>
      <path class="cls-10" d="M49.17,113.51a13.23,13.23,0,0,0,1.18,2.6.34.34,0,0,0,.62-.17,4.86,4.86,0,0,0-.26-2.14.33.33,0,0,0-.48-.2,3.45,3.45,0,0,0-2,3.26.34.34,0,0,0,.5.29,1.84,1.84,0,0,0,1-1.19.34.34,0,0,0-.49-.38,2.82,2.82,0,0,0-.94.88l.6.25a17,17,0,0,0,.21-3.63c0-.42-.68-.42-.66,0a16.71,16.71,0,0,1-.19,3.46.33.33,0,0,0,.61.25,2.17,2.17,0,0,1,.71-.64l-.49-.37a1.23,1.23,0,0,1-.67.79l.5.29a2.83,2.83,0,0,1,1.63-2.69l-.49-.2a4.56,4.56,0,0,1,.24,2l.62-.17a11.47,11.47,0,0,1-1.12-2.44c-.13-.4-.77-.23-.64.18Z"></path>
      <polygon class="cls-11" points="0.64 100.32 49.49 120.73 93.88 101.91 49.49 86.25 0.64 100.32"></polygon>
      <path class="cls-12" d="M44.92,53a22,22,0,0,1-2-2.24c-.43-.52-5.06-3-6-4.14s-2.15-2.3-.7-4c0,0,0-2.41-.91-3.17s-1.48-2.24-1.08-2.84.61-1.38,1-1.41.37-.87.58-1,0-2,.76-1.37a7.24,7.24,0,0,1,1.23,2.69s2.1-1.09,1.84,2.83c0,0-.16.77,1.07.62s3.52.44,2.27,4.35c0,0,1.43,5,.49,4.76s2.34,3.12,1.91,4S45.43,53.09,44.92,53Z"></path>
      <path class="cls-12" d="M48.79,19.32c-.16-.44-3-6.24-5.37-6.91,0,0-1.23-.09-.5-1.13S38.6,8.57,38.47,8.37s-.92-1.06-.21-1.77S34,4.36,34,4.36s-.62-.56-.21-1.1-4.85-1.9-4.85-1.9-.84-1,1.64-.45l4.77,1s-.51-2.31.84-1.89c0,0,2,3.13,3.07,3.67,0,0,.93-1.74,2-.9l2.25,3.85a1.43,1.43,0,0,1,2.46.21,9.35,9.35,0,0,1,1,4.48A2.46,2.46,0,0,0,47.42,10s.08-.45,1.2-.14c0,0-.42-6.38,2.06-3.84,0,0,2.16-4.6,3.13-4.11,0,0,.71.05-.09,1.28A30.46,30.46,0,0,0,50.06,18s.31.4-.28,1.4a3.34,3.34,0,0,0,0,1.1c.12.38.19-.2,1.17-.23A1.55,1.55,0,0,0,50.9,19c-.33-.84-.69-3.43,1.69-3.11,0,0,.25-3.59.84-3.74s.84,3.73.84,3.73,3-.72.37,3c0,0-.36.07.1.8s-.62,2.61-2.89,3.95l-.9.63s-.75,2.39-1.08,3.12c-.89-.34-1.93-2.53-3.2-2.43S44,26,43.9,25.12a1.76,1.76,0,0,1,.67-1.88c.49-.22-1.46-.42-2.75-.57s-1.63-1.12-.81-1.51-4.71-1.46-5.57-1.42-1.57-.64.61-.59,2.24.56,2.18.05.36-2.47,3.65.28c0,0,.74.72.79-.42s2.12-1,3.12.65,1.43,1.71,1.57,1.06-.33-1.26-.09-1.46.79.46,1.25,1.13.74.36.5-.38Z"></path>
      <path class="cls-12" d="M49.69,35.83c-.31.64-3.64-2.21-4.47-2.08s-1.64-.11-1.65-.93a30.13,30.13,0,0,1-4.69.12,1.38,1.38,0,0,1,.17-2.52S34.91,29,33.78,27s1.75.37,2.93.45,1.36.19,1.74.16.17-1.69,1.47-1.32a3.84,3.84,0,0,0,1.07.88,26,26,0,0,1,2.82,1.28,2.23,2.23,0,0,0,1.06.41c.14,0-.25-2.58,1.78-1.07s2.91,2.57,3,3.59S50.45,34.25,49.69,35.83Z"></path>
      <path class="cls-12" d="M51.75,28.82c.32-.55.25-2.26,2.53-3.77s1.75-4.82,4.3-2.51c0,0,2.34-1.69,2.46-2.68s1.31-.39.94.78,1,2.05-2.06,5.26c0,0-.31.28.28.76s0,1.45-1.64,1.81-8.09,2.38-9.5,6.5Z"></path>
      <path class="cls-12" d="M44.86,66a7.6,7.6,0,0,0-6.62-2.18c-4.12.66-2.16,2.18-2.16,2.18s-5.94,2.46-2.39,9.42c0,0,.9,1,1.19-.38s-.05-1.66.52-2.89,1.42-3.07,1.84-2.88.95,2,1.8.23S42.17,65.22,44.86,66Z"></path>
      <path class="cls-12" d="M43.62,65.17c0,2.53,2-5.49,4.29-4,0,0-.39-3.28-3.29-3a2.38,2.38,0,0,0-2.14,2.06C42.34,61.26,43.59,62.6,43.62,65.17Z"></path>
      <path class="cls-12" d="M44,86.52S32.69,81.21,33.2,94.85c0,0,.9,1.7,2.33-3.6,0,0-.44-.25,1.26-.38S40.68,85.25,44,86.52Z"></path>
      <path class="cls-12" d="M52.33,90.17s4-4.29,5.64-.76a9.14,9.14,0,0,0,2.68,2.21c1.52.76,6.13,3.28,1,3.22S56.62,91,55.8,90.67A4.63,4.63,0,0,0,52.33,90.17Z"></path>
      <path class="cls-13" d="M49.06,13.56l.33,6c.06,1,.12,2,.21,3l0,.37v.13h0c.06-.06-.22,0-.18,0V23l0-.75V20.69l0-1.51v-1c0-.12.59,0,.32,0v.15l0,.38.11,3,.21,6c.28,8,.49,16.1.36,24.16L50.28,64c-.11,4-.13,8,0,12,.18,8,.65,16.08.5,24.19l-2.27-.07c.36-8,.1-16,.13-24.1,0-4,.14-8.09.33-12.1l.5-12.06c.31-8,.28-16.08.18-24.13l-.08-6,0-3v-.5c-.27,0,.36.08.32,0h0v2.45l0,1.51,0,.76a.84.84,0,0,1,0,.23s-.25.08-.2,0l0-.05V23l0-.38c-.07-1-.11-2-.15-3Z"></path>
      <path class="cls-12" d="M57.07,77.57a.71.71,0,0,0,.29-.35c.48-1.38,2.07-7.32,3.61-8.63s1.91-2.85,2.56-.24c.09.36-.14.67-.3,1l1.56-1c2.68-1.77,6.66-4.67,6-2.4S69.37,68,70.88,68s4.33-.64,6-.38,3.55,1-.8,1.51c-3.56.41-2.06.7-1.4.79a1.07,1.07,0,0,1,.53.24c.45.39,1,1.2-2.1,1.11-4.1-.12-3-.06-2.78.32S71.7,74.46,68.86,74a10,10,0,0,0-4.73.12c-.26.07,4,1.71.66,2.15s-4.77,1.64-6.6,1.58C57,77.77,57,77.65,57.07,77.57Z"></path>
      <path class="cls-12" d="M54.55,80.32s11.75-2.21,4.14,9.15c0,0-.31-1.61-.38-2.69S57,87.67,57.85,84c0,0-1.87.09-.93-2.87A5.11,5.11,0,0,0,54.55,80.32Z"></path>
      <path class="cls-12" d="M55.47,80.32s2-4,2.09-6.41a51.77,51.77,0,0,0-.51-7.51c-.13-.82-1.58,1.57-1.58,4.32s1.08,3.06,0,2.75-1.7-.72-2.21.77S55.47,80.32,55.47,80.32Z"></path>
      <path class="cls-13" d="M57.9,76.35c-3.48,3.7-7.14,7.7-8.16,12.84-.14.72.95,1,1.09.31,1-5,4.52-8.79,7.87-12.35.51-.53-.3-1.33-.8-.8Z"></path>
      <path class="cls-14" d="M41,86.21c4.67-.38,5.93,3.23,8.1,3.26"></path>
      <path class="cls-13" d="M43.58,65.58a14.36,14.36,0,0,1,3.17,4.68c.62,1.43,1.07,2.93,1.79,4.32.34.65,1.32.07,1-.58-.75-1.42-1.2-3-1.85-4.43a15,15,0,0,0-3.3-4.8c-.52-.51-1.33.3-.8.81Z"></path>
      <path class="cls-13" d="M50,91.78l3.94-2a.57.57,0,0,0-.58-1l-3.93,2a.57.57,0,0,0-.21.78.58.58,0,0,0,.78.2Z"></path>
      <path class="cls-13" d="M68.26,30c-3.86,3.67-7.78,7.36-10.86,11.67a34.28,34.28,0,0,0-3.8,6.92,58.11,58.11,0,0,0-2.43,7.54l-1.29-.36a59.47,59.47,0,0,1,2.8-7.58,35.13,35.13,0,0,1,4.18-6.91C60.18,37,64.25,33.48,68.26,30Z"></path>
      <path class="cls-12" d="M63,34.88c-.32.28,5.89-7.88,7.12-9.44s3.26-2.61,4.12,0c0,0-.81.9,2.08-.19s6-3.88,6.63-1.14c0,0,2.08-1.51,2,.48S86.11,26,86.3,26s2.6.76,0,1.84a4.23,4.23,0,0,1-2.32,0c-.76-.43-.48.9-.1,1.09s1.61,2.55-1,1.61A4,4,0,0,0,79.34,29c-2.42.18-3.43,0-2.4.93s2.63,3.14-.21,2.43S68.77,29.81,63,34.88Z"></path>
      <path class="cls-12" d="M68.21,38.93s2.94-1.66,6.82.66c0,0,2.66,1.47.33,2.23,0,0,5.54,4.82,2.61,4.73,0,0,1.13,3.74.18,4.26,0,0-1.23-3.12-1.84-3.64a1.62,1.62,0,0,1-1.89-1.28c-.53-1.61-.76-2.37-1.09-2.32s0,.7-.29,1-.61.88-1.84-.68-2.51-3-3-3.79S68.21,38.93,68.21,38.93Z"></path>
      <path class="cls-12" d="M54.68,46.17s4.49-4,7-4.16,4-.81,2.75,1.65c0,0-1.14.67,1.42,1.47a6.42,6.42,0,0,0,4.12.12c.36,0,3.17.26,1.89,1.92,0,0-.9.28.76.85a5.72,5.72,0,0,1,4.31,4.68s1.42,1.23.85,1.61-5.35-3.45-6.25-3.5c0,0,.85,3.27-2.13,2.89a2.67,2.67,0,0,1-1.66-1.8c-.52-1.52-3.07-2.7-3.07-2.7s-.72-.33-.48.47a2.14,2.14,0,0,1-.91,2c-.37.24-1.26,1.09-1.88-.33S56.47,45.89,54.68,46.17Z"></path>
      <path class="cls-14" d="M58.38,40c3.21-.83,6.42-1.91,10.43-.63"></path>
      <path class="cls-15" d="M64.11,32.9l-1.34,1.5A20.39,20.39,0,0,1,61.18,36a15,15,0,0,0-2.4,3.14"></path>
      <path class="cls-13" d="M58.5,31.6c-.07.92-.22,1.83-.32,2.74a9.41,9.41,0,0,0,0,2.7c0,.24.41.14.36-.1a9.2,9.2,0,0,1,.08-2.67c.1-.89.24-1.78.3-2.67,0-.25-.36-.24-.37,0Z"></path>
      <path class="cls-13" d="M62.45,27.14A30.25,30.25,0,0,0,61,31.69c0,.12.16.17.19,0a30.21,30.21,0,0,1,1.48-4.55c0-.12-.14-.17-.18-.05Z"></path>
      <path class="cls-13" d="M65.42,24a20.76,20.76,0,0,1-4.22,7.84l-.29-.25A20.5,20.5,0,0,0,65.42,24Z"></path>
      <path class="cls-13" d="M61.12,31.78c1.14-.88,2.46-1.48,3.6-2.35a8,8,0,0,1,4-1.94c.12,0,.12-.21,0-.19a7.55,7.55,0,0,0-3.88,1.79c-1.21,1-2.63,1.61-3.85,2.55-.1.08,0,.21.13.14Z"></path>
      <path class="cls-13" d="M58.46,39.79A9.54,9.54,0,0,1,59,35.21a14.21,14.21,0,0,1,2.7-3.95c.16-.18-.11-.45-.27-.27a14.72,14.72,0,0,0-2.75,4,9.75,9.75,0,0,0-.6,4.78c0,.24.41.25.38,0Z"></path>
      <path class="cls-16" d="M63.6,33.28l-.41,1.49,1.27-.6,1.35,1.29L65.56,34,68,32.75l-2.41-.64s0-1.51-.33-1.73c0,0-1,1.36-1,1.48a6,6,0,0,1-2.18-.25C61.9,31.45,62.85,33.06,63.6,33.28Z"></path>
      <path class="cls-16" d="M68.4,29c-.25,0-1,.85-1,.85a4.63,4.63,0,0,0-.15-1.35c-.16-.16-1.58,0-1.58,0S67,28,67.06,27.76s-.52-1.17-.46-1.39c0,0,1,.47,1.27.38a12.79,12.79,0,0,0,1.29-1.1s-.38,1.1,0,1.32,1.67.06,1.89.25c0,0-2.21.48-1.58,1.23a2.46,2.46,0,0,1,.67,1.2A2.94,2.94,0,0,0,68.4,29Z"></path>
      <path class="cls-16" d="M66.1,24.64a4.57,4.57,0,0,1,1.64-.23,5.81,5.81,0,0,0-1.26-.53c-.35,0,0-.92.06-1s.38-.92.38-.92a10.23,10.23,0,0,0-1.2.6c-.13.13-.41.16-.66-.44a1.58,1.58,0,0,0-1-.79s.76,1.58.16,1.93a1.62,1.62,0,0,1-1.26.09,2.29,2.29,0,0,0,.78.73c.38.12.41.47.32.85s-.38.72-.25,1c0,0,.5-.76.91-.63s.85.88,1.17,1C65.94,26.28,65.52,24.78,66.1,24.64Z"></path>
      <path class="cls-16" d="M63.38,27.41c.12-.05.86-.34.89-.79,0,0-.89.16-1.08-.34a2.18,2.18,0,0,1,0-1.14s-.47,0-.56.63-.57-.79-1-.76c0,0,.35,1,.16,1.27s-1.26-.13-1.26-.26.22.57.72.73a.59.59,0,0,1,.44.66c0,.07-.53.73-.34,1,0,0,.37-.69.85-.63s.88.66,1.13.63C63.38,28.39,63,27.6,63.38,27.41Z"></path>
      <path class="cls-16" d="M59.91,31l.51-2.81s-.73,2.09-1.23,2.15-1.9-2.15-1.9-2.15,1.08,1.8.86,2.15-2.37.16-2.37.16-1,.22.19.5,2.05.25,1.8.7-1.64,2.17-.86,1.7,1.55-1.74,1.58-1-.34,3.28.1,2.34.6-3,1-2.59,2.27,2.55,1.61,1.35S59.81,31.61,59.91,31Z"></path>
      <path class="cls-12" d="M24.47,44a9,9,0,0,1-4.87-1.89c-2.37-1.85-5.4-4.36-5.73-4.55s-2.08,1.14-.85,4.21c0,0,.94,1.24-.81.71s-6-3.07-7-1.27,0,2.17,0,2.17A11.42,11.42,0,0,0,.57,45.67C-1.23,47.32,1.8,47.23,2,47.23s3.88-1,4-.33-.71,2.65,1.56,2.36,3.46-2.69,4-2.64,1.23.18.9,1.22-.38,2.94,2.18,2.32,4.87-3.4,5-3-.28.71-.71,1a20.9,20.9,0,0,0-3.36,4.59C15.1,54,11.31,56,11.5,61.29c0,0,.05,1.65,1,1.32,0,0-.66,4.07,1.94,5.35,0,0,.67,5.87,2,6,0,0-.38-6.86.57-8.85,0,0,.24-6.39.66-9s.44-8.73,6.72-11.6Z"></path>
      <path class="cls-12" d="M40.47,49.88a7.8,7.8,0,0,0-7.85,2.75s-.85,1.13.43,1.46c0,0-3.7,3-3.75,4.74s-.05,1.23.38,1.61-.14,4.3,1.14,5.3S32.28,61,32.28,61s1.45,2.25,2.6-5.2c0,0,2.85,1.6,3.46-1.57s2.28-3.65,3.32-3.51S40.47,49.88,40.47,49.88Z"></path>
      <path class="cls-12" d="M34.08,46.62c.24,0-7.42.56-4.8,6.76,0,0,1.68,5.07-1.54,3.88A15.55,15.55,0,0,0,27.17,61c.1,1.33-.14,2.51-1.32,2,0,0,.28,2.61-.48,2.61s-1.94-.29-3-4.45c0,0-2.79.52-1.8-2.66S22.58,46.91,34.08,46.62Z"></path>
      <path class="cls-13" d="M22.58,44.85A32.58,32.58,0,0,1,49.5,58.29c.32.45,1.06,0,.74-.43A33.51,33.51,0,0,0,22.58,44a.43.43,0,0,0,0,.86Z"></path>
      <path class="cls-15" d="M17.25,32.3c1.95.75,3.82,1.86,5.9,1.79"></path>
      <path class="cls-15" d="M25.59,33.87a24.54,24.54,0,0,1,2.31,4.2"></path>
      <path class="cls-15" d="M20.54,36a5.14,5.14,0,0,0,1.75.22,11.56,11.56,0,0,1,3.48.4"></path>
      <path class="cls-15" d="M25.77,39.65a5.67,5.67,0,0,0,2.57,1.81c1.23.53,2.83,1.24,4.11,1.66"></path>
      <path class="cls-15" d="M30.22,37.48a8.73,8.73,0,0,1,1.71,4.41"></path>
      <path class="cls-13" d="M21.68,30.68A15,15,0,0,0,23,34.17a7.35,7.35,0,0,0,2.7,2.58.19.19,0,0,0,.19-.33,7,7,0,0,1-2.61-2.53A14.94,14.94,0,0,1,22,30.58a.19.19,0,0,0-.36.1Z"></path>
      <path class="cls-13" d="M25.53,36.63l2.8,1.95a13.18,13.18,0,0,1,2.5,2,8.84,8.84,0,0,1,1.45,2.66c.43,1.08.84,2.17,1.26,3.25.09.22.45.12.36-.1-.43-1.14-.86-2.27-1.31-3.4a9.4,9.4,0,0,0-1.38-2.55,11.58,11.58,0,0,0-2.37-1.93L25.72,36.3c-.2-.13-.39.19-.19.33Z"></path>
      <path class="cls-16" d="M25.17,38.8a10.29,10.29,0,0,1-1.32-.93l0,1.32-2,1.5,2.55.64.5,1.49.62-1.49,1.79-.19s-.92-.66-.93-.92A18.47,18.47,0,0,1,27,38.13Z"></path>
      <polygon class="cls-16" points="20.21 37.35 21.31 37.97 21.32 36.43 22.96 35.96 21.51 35.26 21.36 34.06 20.13 34.81 19.2 33.9 19.11 35.37 17.59 36.01 19.2 36.59 19.1 38.27 20.21 37.35"></polygon>
      <path class="cls-16" d="M17.27,32.88c-.3.11-1.15,1.26-1.47,1.28a4.17,4.17,0,0,0,.47-1.09c0-.3-.52-.37-.63-.42s-.77-.45-.8-.66a3,3,0,0,0,1.38,0s-.4-1.25,0-1.52c0,0,.47.64.66.68,0,0,.56-.85.75-.87a5.4,5.4,0,0,0,0,1.19s0,.19.11.19a5.42,5.42,0,0,0,1.18-.5c.09-.11-1.17,1.27-1.1,1.42s.73.85.64,1.17C18.39,33.7,17.46,32.81,17.27,32.88Z"></path>
      <path class="cls-16" d="M21,30.48l-1.46.43,1-1.4s-.75-1.4-1.11-1.23a2.19,2.19,0,0,1,1.55,0s.41-1.54.76-1.74c0,0,.14,1.66.54,1.85a1.2,1.2,0,0,0,1-.08,2.37,2.37,0,0,1,.58-.17s-1.5,1.29-1.1,1.64a3.4,3.4,0,0,1,.88,1.11,4.64,4.64,0,0,0-1.28-.35,2.54,2.54,0,0,0-.72,1.73c.15.44-.27-.26-.31-.56A12.81,12.81,0,0,0,21,30.48Z"></path>
      <path class="cls-16" d="M24.89,34.19c.06,0-.33,1-.05,1.55a6.83,6.83,0,0,1,.83-1.38c.16,0,1.3.79,1.53.69,0,0-.92-.87-1-1.15s.9-1.29,1.05-1.37a2.44,2.44,0,0,0-1.3.38c-.24.28-.29-.42-.23-.49s.33-.75.33-.75-.74.4-.81.67-.22.18-.3,0a.79.79,0,0,0-.79-.25s.84,1,.42,1.31a1.92,1.92,0,0,1-1.26.2A1.73,1.73,0,0,0,24.89,34.19Z"></path>
      <path class="cls-16" d="M29.16,36.82s-1.6-2.14-1.4-2.72c0,0,1.67,1.72,2.07,1.73a16.77,16.77,0,0,1,.84-2.28c.19-.15,0,2.34,0,2.34S32.9,35,33,35.2s-1.68,1.7-1.68,1.7-.22,0,.18.38,1.46.85,1.34.89-1.77-.8-1.9-.44A11.15,11.15,0,0,0,31.16,40a4.7,4.7,0,0,1-1.25-2.3c-.09-1.09-.77,1.44-.77,1.44s-.18.74-.39.58S29.47,37.25,29.16,36.82Z"></path>
      <path class="cls-15" d="M55,51.59c.21,2.07.06,4.25,1.06,6.08"></path>
      <path class="cls-15" d="M57.36,59.75a24.19,24.19,0,0,1-2.7,4"></path>
      <path class="cls-15" d="M53.24,56.18a5.39,5.39,0,0,0,.58,1.66A11.65,11.65,0,0,1,55,61.13"></path>
      <path class="cls-15" d="M52.29,62.5a5.67,5.67,0,0,0-.47,3.11C51.9,67,52,68.7,52.19,70"></path>
      <path class="cls-15" d="M56.22,65.51A8.65,8.65,0,0,1,53.05,69"></path>
      <path class="cls-13" d="M58.46,54.83A14.76,14.76,0,0,0,56,57.51a7.4,7.4,0,0,0-1.12,3.62c0,.24.36.24.37,0a7,7,0,0,1,1.13-3.51,15,15,0,0,1,2.38-2.52c.19-.17-.08-.44-.26-.27Z"></path>
      <path class="cls-13" d="M54.88,60.89l-.48,3.36a12.52,12.52,0,0,1-.7,3.32A9.5,9.5,0,0,1,51.93,70c-.74.83-1.49,1.65-2.24,2.47-.16.18.11.45.27.27.79-.87,1.59-1.74,2.37-2.62A9.8,9.8,0,0,0,54,67.76a11.91,11.91,0,0,0,.71-3.19l.5-3.57c0-.24-.33-.35-.36-.11Z"></path>
      <path class="cls-16" d="M52.77,61.58A11.14,11.14,0,0,1,53,60l-1.18.58-2.24-1.11L50.17,62l-1.11,1.12L50.67,63l1,1.51s.17-1.11.4-1.24a17.81,17.81,0,0,1,2.16-.37Z"></path>
      <path class="cls-16" d="M54.51,51.87c-.23-.22-1.63-.46-1.8-.74a4.07,4.07,0,0,0,1.19-.07c.27-.12.1-.63.09-.75s.06-.89.23-1c0,0,.31,1,.67,1.21,0,0,.94-.92,1.33-.72,0,0-.36.7-.31.89,0,0,1,.11,1.12.27a5.47,5.47,0,0,0-1.07.52s-.16.11-.13.19a5.36,5.36,0,0,0,1,.83,6.91,6.91,0,0,0-1.76-.35c-.09.13-.44,1-.76,1.1C54.29,53.24,54.67,52,54.51,51.87Z"></path>
      <path class="cls-16" d="M58.33,54.12,57.3,53l1.7.27s.91-1.3.6-1.55a2.19,2.19,0,0,1,.66,1.41s1.55-.32,1.89-.1c0,0-1.41.86-1.41,1.31a1.25,1.25,0,0,0,.53.87,2.48,2.48,0,0,1,.41.44s-1.83-.76-2-.25a3.48,3.48,0,0,1-.59,1.28,4.78,4.78,0,0,0-.27-1.3,2.53,2.53,0,0,0-1.87.14c-.32.32.12-.36.37-.53S58.33,54.12,58.33,54.12Z"></path>
      <path class="cls-16" d="M56.77,59.27s-1,.14-1.41.64A6.62,6.62,0,0,1,57,60c.09.14-.13,1.52.07,1.68a5.14,5.14,0,0,1,.59-1.38c.23-.17,1.56.23,1.7.33a2.49,2.49,0,0,0-.93-1c-.35-.09.25-.44.34-.42s.82,0,.82,0-.7-.48-1-.43-.25-.12-.13-.26a.8.8,0,0,0-.13-.82s-.49,1.18-1,1-.75-1-.75-1A1.74,1.74,0,0,0,56.77,59.27Z"></path>
      <path class="cls-16" d="M56.34,64.26s1.19-2.39,1.8-2.47a9.69,9.69,0,0,0-.62,2.63,15.93,15.93,0,0,1,2.42-.27c.22.09-2.09,1-2.09,1s1.79,1.6,1.67,1.8-2.27-.73-2.27-.73-.13-.18-.26.32-.11,1.7-.19,1.61-.09-2-.47-1.9a11.32,11.32,0,0,0-1.92,1.18,4.72,4.72,0,0,1,1.49-2.15c.93-.57-1.63,0-1.63,0s-.74.17-.69-.09S56.09,64.73,56.34,64.26Z"></path>
      <polygon class="cls-16" points="51.84 56.5 51.78 57.77 53.16 57.09 54.32 58.34 54.29 56.73 55.3 56.05 54.08 55.29 54.48 54.05 53.12 54.63 51.86 53.56 52.07 55.26 50.52 55.92 51.84 56.5"></polygon>
      <path class="cls-6" d="M46.52,108.69a1.36,1.36,0,0,0-1.3-.48c-.71.22-1,.79-.88,1a3.4,3.4,0,0,0,.27.27c.18.18.56-.32.58-.33Z"></path>
      <path class="cls-7" d="M46.9,109.56s-.23-1-.6-1-.78-.06-.78-.06l-.11.17s.37.65.52.7l.49.14A3.26,3.26,0,0,0,46.9,109.56Z"></path>
      <path class="cls-8" d="M46.87,109.68c0-.09.09-.31-.15-.38a3.22,3.22,0,0,0-.47-.1s-.59.44-.71.51-.19.06.15.17.33.18.64.15A.94.94,0,0,0,46.87,109.68Z"></path>
      <path class="cls-9" d="M46.25,109.2a4.44,4.44,0,0,0-.43.42c-.17.2-.21.27-.41.16s-.75-.18-.89-.38-.13-.19,0-.43a1.12,1.12,0,0,1,.69-.43.61.61,0,0,1,.69.15A1.66,1.66,0,0,1,46.25,109.2Z"></path>
      <path class="cls-6" d="M43.57,92.05a2,2,0,0,0-2-.29c-1,.54-1.19,1.45-1,1.7a3,3,0,0,0,.46.31c.31.2.71-.63.73-.64Z"></path>
      <path class="cls-7" d="M44.37,93.18s-.62-1.34-1.15-1.24a11.51,11.51,0,0,1-1.15.14l-.09.29s.71.81.94.84.65,0,.75.06A5,5,0,0,0,44.37,93.18Z"></path>
      <path class="cls-8" d="M44.37,93.36c0-.13,0-.47-.32-.5a6,6,0,0,0-.72,0s-.7.82-.85.95-.26.15.26.19.54.17,1,0A1.36,1.36,0,0,0,44.37,93.36Z"></path>
      <path class="cls-9" d="M43.33,92.87a7.24,7.24,0,0,0-.49.73c-.18.35-.2.45-.53.36s-1.13,0-1.39-.28-.25-.22-.08-.63a1.6,1.6,0,0,1,.87-.82.9.9,0,0,1,1,0A2.34,2.34,0,0,1,43.33,92.87Z"></path>
      <path class="cls-6" d="M39.59,98.16s-4.14-2.07-7,.45-3,5.77-2,6.47a13,13,0,0,0,1.81.72c1.2.45,1.94-2.67,2-2.71S39.59,98.16,39.59,98.16Z"></path>
      <path class="cls-7" d="M43.13,101.43S40.06,97.31,38.3,98s-3.79,1.31-3.79,1.31l-.12,1s3,2.25,3.83,2.18,2.24-.33,2.59-.33A19,19,0,0,0,43.13,101.43Z"></path>
      <path class="cls-8" d="M43.25,102.05c0-.46-.21-1.63-1.45-1.47a17.52,17.52,0,0,0-2.44.52s-1.81,3.29-2.21,3.86-.78.69,1,.45,1.95.19,3.31-.63A4.66,4.66,0,0,0,43.25,102.05Z"></path>
      <path class="cls-9" d="M39.36,101.1A20.49,20.49,0,0,0,38.23,104c-.37,1.3-.39,1.66-1.58,1.6s-3.85.7-4.91,0-1-.58-.72-2.09,1-2.22,2.35-3.4a3.09,3.09,0,0,1,3.51-.73A8,8,0,0,1,39.36,101.1Z"></path>
      <path class="cls-6" d="M53.92,99s-3.48-2-6.14,0-3,4.82-2.17,5.49a12,12,0,0,0,1.54.73c1,.46,1.84-2.2,1.9-2.23S53.92,99,53.92,99Z"></path>
      <path class="cls-7" d="M56.79,102.08s-2.42-3.76-4-3.24-3.38.9-3.38.9l-.16.9s2.49,2.14,3.19,2.12,2-.15,2.27-.13A15.53,15.53,0,0,0,56.79,102.08Z"></path>
      <path class="cls-8" d="M56.86,102.63c0-.4-.09-1.43-1.17-1.37a15.68,15.68,0,0,0-2.15.31s-1.77,2.74-2.16,3.21-.71.55.87.46,1.67.28,2.91-.35A4.1,4.1,0,0,0,56.86,102.63Z"></path>
      <path class="cls-9" d="M53.54,101.57A19,19,0,0,0,52.38,104c-.4,1.11-.44,1.42-1.46,1.3s-3.39.37-4.27-.28-.84-.56-.5-1.85,1-1.87,2.25-2.81a2.68,2.68,0,0,1,3.09-.43A6.92,6.92,0,0,1,53.54,101.57Z"></path>
      <path class="cls-6" d="M63.12,95.36s-3.43-2.65-6.54-.86-3.82,4.74-3,5.56a12.46,12.46,0,0,0,1.53,1c1,.62,2.26-2.1,2.33-2.13S63.12,95.36,63.12,95.36Z"></path>
      <path class="cls-7" d="M65.77,99S63.69,94.66,62,95s-3.72.51-3.72.51l-.29.93s2.37,2.61,3.11,2.69,2.11.1,2.44.16A16.87,16.87,0,0,0,65.77,99Z"></path>
      <path class="cls-8" d="M65.77,99.59c0-.43.1-1.54-1.07-1.61a16.44,16.44,0,0,0-2.33,0s-2.25,2.69-2.72,3.14-.84.49.86.6,1.75.52,3.14,0A4.34,4.34,0,0,0,65.77,99.59Z"></path>
      <path class="cls-9" d="M62.37,98a20.29,20.29,0,0,0-1.55,2.42c-.58,1.13-.66,1.45-1.74,1.18s-3.65,0-4.5-.86-.83-.71-.28-2,1.31-1.86,2.76-2.69a2.89,2.89,0,0,1,3.35,0A7.48,7.48,0,0,1,62.37,98Z"></path>
      <path class="cls-6" d="M65.78,106.43a2.06,2.06,0,0,0,1.9-.94c.51-1,.17-1.95-.18-2a4,4,0,0,0-.59,0c-.38,0-.23,1-.24,1S65.78,106.43,65.78,106.43Z"></path>
      <path class="cls-7" d="M64.42,105.93s1.33.79,1.73.39.9-.8.9-.8l-.09-.3a4.25,4.25,0,0,0-1.31-.17c-.21.11-.58.35-.68.39A6.13,6.13,0,0,0,64.42,105.93Z"></path>
      <path class="cls-8" d="M64.31,105.77c.06.13.25.43.57.25a5.1,5.1,0,0,0,.62-.43s.12-1.12.17-1.33.14-.28-.34,0-.56.17-.84.55A1.37,1.37,0,0,0,64.31,105.77Z"></path>
      <path class="cls-9" d="M65.5,105.59a6.25,6.25,0,0,0,0-.93c0-.4-.08-.5.26-.62s1-.64,1.36-.58.34.05.44.5a1.67,1.67,0,0,1-.26,1.21.91.91,0,0,1-.89.61A2.33,2.33,0,0,1,65.5,105.59Z"></path>
      <path class="cls-6" d="M33.15,107.17a2.65,2.65,0,0,0,2.5-1c.75-1.27.4-2.47,0-2.6a5.28,5.28,0,0,0-.75,0c-.49,0-.38,1.21-.4,1.23S33.15,107.17,33.15,107.17Z"></path>
      <path class="cls-7" d="M31.47,106.42s1.62,1.11,2.17.64a13.7,13.7,0,0,1,1.22-.94l-.09-.4a5.47,5.47,0,0,0-1.66-.32c-.28.12-.77.4-.9.44A6.87,6.87,0,0,0,31.47,106.42Z"></path>
      <path class="cls-8" d="M31.35,106.2c.07.16.27.57.7.36a7.08,7.08,0,0,0,.83-.49s.25-1.42.33-1.67.19-.35-.43,0-.73.17-1.13.64A1.77,1.77,0,0,0,31.35,106.2Z"></path>
      <path class="cls-9" d="M32.88,106.07a9,9,0,0,0,.06-1.18c0-.52-.06-.65.37-.77s1.32-.73,1.78-.61.44.08.52.67a2.1,2.1,0,0,1-.44,1.52,1.18,1.18,0,0,1-1.18.7A2.94,2.94,0,0,1,32.88,106.07Z"></path>
      <path class="cls-6" d="M44.62,100.62a1.53,1.53,0,0,0,1.55.27c.76-.39,1-1.09.78-1.29a2.29,2.29,0,0,0-.35-.25c-.24-.16-.56.47-.58.48Z"></path>
      <path class="cls-7" d="M44,99.73s.45,1,.87,1a8.26,8.26,0,0,1,.89-.09l.08-.22s-.54-.64-.72-.67-.5,0-.57-.06A3.71,3.71,0,0,0,44,99.73Z"></path>
      <path class="cls-8" d="M44,99.59c0,.1,0,.36.23.39a4.5,4.5,0,0,0,.56,0s.56-.62.68-.72.2-.11-.2-.15-.41-.15-.75,0A1,1,0,0,0,44,99.59Z"></path>
      <path class="cls-9" d="M44.83,100a5.44,5.44,0,0,0,.39-.56c.15-.27.18-.34.43-.27s.87,0,1.06.25.19.18,0,.49-.33.43-.69.62a.7.7,0,0,1-.8,0A1.85,1.85,0,0,1,44.83,100Z"></path>
      <path class="cls-6" d="M58.57,106.51s3.9.95,5.85-1.73,1.45-5.45.48-5.85a11.84,11.84,0,0,0-1.67-.26c-1.09-.14-1.12,2.62-1.17,2.68S58.57,106.51,58.57,106.51Z"></path>
      <path class="cls-7" d="M55,104.44s3.39,2.88,4.72,1.93,3-1.83,3-1.83l-.1-.9s-3-1.31-3.64-1.1-1.83.71-2.12.78A15.21,15.21,0,0,0,55,104.44Z"></path>
      <path class="cls-8" d="M54.74,103.93c.12.38.49,1.34,1.51,1a16,16,0,0,0,2-.91s.9-3.12,1.13-3.68.52-.73-.95-.18-1.68.21-2.67,1.17A4,4,0,0,0,54.74,103.93Z"></path>
      <path class="cls-9" d="M58.2,104a19,19,0,0,0,.41-2.63c.06-1.17,0-1.48,1-1.65s3.11-1.34,4.13-1,1,.29,1,1.62a4.79,4.79,0,0,1-1.33,3.32A2.65,2.65,0,0,1,60.63,105,6.88,6.88,0,0,1,58.2,104Z"></path>
      <path class="cls-6" d="M40.63,104.26s2.33,1.32,4.08-.06,1.92-3.24,1.36-3.67a7.27,7.27,0,0,0-1-.47c-.68-.29-1.2,1.48-1.24,1.51S40.63,104.26,40.63,104.26Z"></path>
      <path class="cls-7" d="M38.68,102.28s1.66,2.46,2.69,2.09,2.23-.64,2.23-.64l.1-.6s-1.69-1.39-2.15-1.37-1.3.13-1.51.12A10.06,10.06,0,0,0,38.68,102.28Z"></path>
      <path class="cls-8" d="M38.63,101.91c0,.27.07,1,.79.89a10.94,10.94,0,0,0,1.43-.23s1.14-1.85,1.38-2.16.47-.38-.58-.3-1.11-.16-1.92.28A2.63,2.63,0,0,0,38.63,101.91Z"></path>
      <path class="cls-9" d="M40.85,102.57a12.36,12.36,0,0,0,.73-1.62c.25-.74.27-1,1-.88s2.24-.29,2.84.13.56.36.35,1.22a3.19,3.19,0,0,1-1.45,1.9,1.79,1.79,0,0,1-2.05.32A4.59,4.59,0,0,1,40.85,102.57Z"></path>
    </g>
  </g>
</svg>
