<?xml version="1.0" encoding="UTF-8"?>
<svg xmlns="http://www.w3.org/2000/svg" viewBox="0 0 131.2 264.78">
  <defs>
    <style>.cls-1{fill:#a29274;}.cls-2{fill:#e3e0c9;}.cls-3{fill:#fcedce;}.cls-4{fill:#bda885;}.cls-5{fill:#d0c5a6;}.cls-6{fill:#8f8267;}.cls-7{fill:#ab967a;opacity:0.25;}.cls-8{fill:#9b8d71;}.cls-9{fill:#7c705b;}.cls-10{fill:#e7e6e3;}.cls-11{fill:#817870;}.cls-12{fill:#90b33b;}.cls-13{fill:#b2d44e;}.cls-14{fill:#c3de60;}.cls-15{fill:#81a135;}.cls-16{fill:#a2a2a2;}</style>
  </defs>
  <g id="Слой_2" data-name="Слой 2">
    <g id="Слой_1-2" data-name="Слой 1">
      <polygon class="cls-1" points="74.81 193.41 128.97 170.35 120.85 232.72 74.81 264.78 74.81 193.41"></polygon>
      <polygon class="cls-2" points="74.81 154.76 128.97 170.35 74.81 193.41 20.48 170.35 74.81 154.76"></polygon>
      <polygon class="cls-3" points="74.81 154.76 20.48 170.35 21.43 170.75 128.47 170.21 74.81 154.76"></polygon>
      <polygon class="cls-4" points="28.61 232.72 20.48 170.35 74.81 193.41 74.81 264.78 28.61 232.72"></polygon>
      <path class="cls-5" d="M54.62,171.12a31.68,31.68,0,0,1,2.57-2.74,22.28,22.28,0,0,1,3-2.31A30.07,30.07,0,0,1,67,162.76a36,36,0,0,1,7.39-1.55c1.24-.16,2.5-.13,3.75-.19s2.5.11,3.74.22c-1.24.15-2.48.19-3.71.33l-1.84.24c-.61.07-1.23.13-1.83.26-1.21.24-2.43.41-3.61.75s-2.36.64-3.53,1a39,39,0,0,0-6.7,3A37.42,37.42,0,0,0,54.62,171.12Z"></path>
      <polygon class="cls-6" points="74.81 193.41 128.97 170.35 120.85 232.72 74.81 264.78 74.81 193.41"></polygon>
      <polygon class="cls-7" points="28.61 232.72 20.48 170.35 74.81 193.41 74.81 264.78 28.61 232.72"></polygon>
      <polygon class="cls-8" points="74.81 264.78 28.61 232.72 75.02 215.18 120.85 232.72 74.81 264.78"></polygon>
      <path class="cls-9" d="M38.42,205.3a16.72,16.72,0,0,1-1.4-9,14.42,14.42,0,0,1,4-8.38,20.07,20.07,0,0,1,8-4.75,34.16,34.16,0,0,1,9-1.61c-.75.17-1.49.33-2.24.47s-1.47.37-2.21.56-1.45.41-2.17.62-1.43.5-2.13.77a21.63,21.63,0,0,0-7.47,4.72,14.64,14.64,0,0,0-4,7.72,19.87,19.87,0,0,0,.56,8.92Z"></path>
      <path class="cls-9" d="M88.9,204.44c.15.23.45.31.69.43s.51.22.77.32c.52.2,1,.38,1.58.55,1.06.35,2.13.66,3.2,1,2.15.58,4.31,1.11,6.5,1.53,4.36.9,8.77,1.48,13.24,2a50.34,50.34,0,0,1-20-2.7,33.88,33.88,0,0,1-3.14-1.28c-.5-.25-1-.5-1.5-.78A3.89,3.89,0,0,1,88.9,204.44Z"></path>
      <path class="cls-9" d="M59.81,201.19a39.88,39.88,0,0,1-3.6,12A33.52,33.52,0,0,1,53,218.54a20.32,20.32,0,0,1-4.51,4.37,35.79,35.79,0,0,0,3.8-4.86,57.48,57.48,0,0,0,3-5.38c.89-1.84,1.68-3.74,2.45-5.65S59.14,203.16,59.81,201.19Z"></path>
      <path class="cls-9" d="M76.61,250.82c2.21-1.08,4.5-1.94,6.73-2.9s4.44-2,6.59-3.08A42.21,42.21,0,0,0,96,241a17.34,17.34,0,0,0,4.83-5.32,14,14,0,0,1-4.28,6,31.42,31.42,0,0,1-6.15,4.14,54.7,54.7,0,0,1-6.79,2.89c-1.16.41-2.33.78-3.5,1.12Z"></path>
      <path class="cls-9" d="M51.2,244a15.1,15.1,0,0,1-3.51-2.23,8.38,8.38,0,0,1-2.54-3.42,4.9,4.9,0,0,1-.31-2.22,5.47,5.47,0,0,1,.67-2.14,10.27,10.27,0,0,1,2.94-3.17,28.33,28.33,0,0,1,7.49-3.72,57.7,57.7,0,0,1,8-2.1c-2.59.94-5.18,1.87-7.71,2.9a34.61,34.61,0,0,0-7.14,3.81,9.39,9.39,0,0,0-2.69,2.79,4.33,4.33,0,0,0-.45,3.58,8.31,8.31,0,0,0,2.09,3.3A18.43,18.43,0,0,0,51.2,244Z"></path>
      <path class="cls-9" d="M100.87,203.18l4-5.55c1.32-1.86,2.62-3.73,3.85-5.64a57.47,57.47,0,0,0,3.4-5.88,19,19,0,0,0,2.14-6.42,14.61,14.61,0,0,1-1.35,6.78,37.4,37.4,0,0,1-3.26,6.12A57.44,57.44,0,0,1,100.87,203.18Z"></path>
      <path class="cls-10" d="M76.86,188.51a38.26,38.26,0,0,0-2.65,6.91,12.85,12.85,0,0,0-.13,7A31.31,31.31,0,0,0,77.42,209a25.68,25.68,0,0,1,1.74,3.48,13.26,13.26,0,0,1,.92,3.86A24,24,0,0,1,79.2,224c-.61,2.47-1.34,4.89-1.72,7.36A23.31,23.31,0,0,0,80,246,23,23,0,0,1,76.8,231.3c.31-2.54,1-5,1.47-7.47a22.65,22.65,0,0,0,.59-7.34,15.77,15.77,0,0,0-2.72-6.71,32.08,32.08,0,0,1-3.63-6.85,11.61,11.61,0,0,1-.55-4,18.29,18.29,0,0,1,.59-3.92,36.69,36.69,0,0,1,2.82-7.22.83.83,0,0,1,1.49.73Z"></path>
      <path class="cls-10" d="M77.49,188.78a6.3,6.3,0,0,0,2.45,2.63,13.22,13.22,0,0,0,3.62,1.5c2.6.7,5.5,1,8.1,2.35A14.21,14.21,0,0,1,99,209.47a13.7,13.7,0,0,0-7.78-13.33c-2.44-1.11-5.21-1.23-8-1.8a14.26,14.26,0,0,1-4.15-1.45,8.13,8.13,0,0,1-3.34-3.24h0a1,1,0,0,1,1.74-.93A.14.14,0,0,0,77.49,188.78Z"></path>
      <path class="cls-10" d="M73.62,196.42A15.2,15.2,0,0,0,78,202.06a16.78,16.78,0,0,0,6.57,3.08,35.3,35.3,0,0,1,7.15,2.25,11.08,11.08,0,0,1,3,2.25,6.77,6.77,0,0,1,1.7,3.29,6.49,6.49,0,0,0-1.82-3.18,10.58,10.58,0,0,0-3-2.09,34.45,34.45,0,0,0-7.15-1.93,17.52,17.52,0,0,1-7-2.95,16.19,16.19,0,0,1-4.94-5.85Z"></path>
      <path class="cls-10" d="M79.51,214.06a9.59,9.59,0,0,0,3.42,3.71c1.44,1,2.87,2.11,4.33,3.15a17.39,17.39,0,0,1,3.93,3.68,13.54,13.54,0,0,1,2.32,4.82A13.55,13.55,0,0,0,91,224.75a17.4,17.4,0,0,0-4-3.43c-1.5-1-3-2-4.47-2.95a10.37,10.37,0,0,1-3.89-3.94Z"></path>
      <path class="cls-10" d="M79.12,224.15a5.53,5.53,0,0,0,2,2.85c1,.82,2,1.53,3.08,2.34s2,1.63,3,2.54A10.66,10.66,0,0,1,89.54,235a10.72,10.72,0,0,0-2.51-2.9c-1-.82-2-1.57-3.08-2.32s-2.17-1.37-3.23-2.17a6.25,6.25,0,0,1-2.53-3.21Z"></path>
      <path class="cls-10" d="M77.29,231.82a27.21,27.21,0,0,1,7.23,7.4,26.81,26.81,0,0,0-7.74-6.59Z"></path>
      <path class="cls-10" d="M77.87,240.77a10.56,10.56,0,0,1,2.54,1,16.92,16.92,0,0,1,2.3,1.42,16.35,16.35,0,0,0-2.37-1.27,10.22,10.22,0,0,0-2.53-.81Z"></path>
      <path class="cls-10" d="M78.36,232.82a9.5,9.5,0,0,1,2.68-.43,8.15,8.15,0,0,1,2.65.35,8,8,0,0,0-2.63-.09,9.73,9.73,0,0,0-2.52.65Z"></path>
      <path class="cls-10" d="M81.26,235.21a8.52,8.52,0,0,1,0,2.71,12.73,12.73,0,0,1-.51,2.6,12.79,12.79,0,0,0,.28-2.61,8.61,8.61,0,0,0-.25-2.56Z"></path>
      <path class="cls-10" d="M89.25,222.52a15.77,15.77,0,0,1,.34,3.49,9.45,9.45,0,0,1-.76,3.4,9.68,9.68,0,0,0,.61-3.4,15.19,15.19,0,0,0-.5-3.42Z"></path>
      <path class="cls-10" d="M87,220.8a13.14,13.14,0,0,1,3.54-.18,6.34,6.34,0,0,1,3.3,1.15,6.28,6.28,0,0,0-3.31-.93,13.25,13.25,0,0,0-3.44.38Z"></path>
      <path class="cls-10" d="M77.54,210a9.57,9.57,0,0,1,6.15.35,8.91,8.91,0,0,1,2.63,1.58A5.86,5.86,0,0,1,88,214.37a5.77,5.77,0,0,0-1.87-2.28,8.5,8.5,0,0,0-2.63-1.3,8.69,8.69,0,0,0-5.68.1Z"></path>
      <path class="cls-10" d="M81.11,204.12A9.41,9.41,0,0,1,85.25,202a6.93,6.93,0,0,1,4.52.24,6.73,6.73,0,0,0-4.41.15,8.84,8.84,0,0,0-3.67,2.34Z"></path>
      <path class="cls-10" d="M85.43,205.62a3.85,3.85,0,0,0,0,3.12,9,9,0,0,0,1.84,2.75,9.07,9.07,0,0,1-2.05-2.66,4.25,4.25,0,0,1-.24-3.39Z"></path>
      <path class="cls-10" d="M96.67,200.22a17.83,17.83,0,0,0-1.94,4,28.1,28.1,0,0,0-1.18,4.34,29,29,0,0,1,.91-4.43,18.34,18.34,0,0,1,1.74-4.21Z"></path>
      <path class="cls-10" d="M97.55,201.57a12.42,12.42,0,0,1,5.91,4.23,12.22,12.22,0,0,0-6-3.87Z"></path>
      <path class="cls-10" d="M94.22,197.12a5.3,5.3,0,0,1,1.94-.07,9.11,9.11,0,0,1,1.87.45,9,9,0,0,1,1.72.81,4.74,4.74,0,0,1,1.41,1.26,4.61,4.61,0,0,0-1.49-1.11,9.38,9.38,0,0,0-1.74-.65,8.09,8.09,0,0,0-1.82-.27,4.35,4.35,0,0,0-1.71.21Z"></path>
      <path class="cls-10" d="M82.37,193A4,4,0,0,1,84,191a5.37,5.37,0,0,1,2.23-1,5.54,5.54,0,0,1,2.37.25,16.11,16.11,0,0,1,2.15.87,16.19,16.19,0,0,0-2.21-.62,5.48,5.48,0,0,0-2.21,0,4.76,4.76,0,0,0-1.87,1.05,3.22,3.22,0,0,0-1.11,1.65Z"></path>
      <path class="cls-10" d="M89.53,195.13a6.33,6.33,0,0,0,.72,6.87,6.82,6.82,0,0,1-1.6-7.26Z"></path>
      <path class="cls-10" d="M79.82,192.66a13.74,13.74,0,0,0,1.51,6.42,14.4,14.4,0,0,1-2.47-6.36Z"></path>
      <path class="cls-10" d="M76.2,188.75a7.94,7.94,0,0,1-3.67,4.42,25.17,25.17,0,0,1-5,2.12,14.91,14.91,0,0,0-4.44,2.22,12.09,12.09,0,0,0-3.19,3.7c-1.64,2.89-1.73,6.44-2.16,9.91a18.88,18.88,0,0,1-1.33,5.15,8.53,8.53,0,0,1-3.36,4A9.51,9.51,0,0,0,55.83,216a20.27,20.27,0,0,0,1-5c.15-1.72.21-3.47.44-5.23a15.8,15.8,0,0,1,1.49-5.22,13.08,13.08,0,0,1,3.46-4.26A16.48,16.48,0,0,1,67,193.73a26.33,26.33,0,0,0,4.62-2,6.29,6.29,0,0,0,2.87-3.42.9.9,0,1,1,1.73.46Z"></path>
      <path class="cls-10" d="M64.43,196a19.86,19.86,0,0,1-2.12,6.83,19.47,19.47,0,0,0,1.17-6.89Z"></path>
      <path class="cls-10" d="M72.08,192.85a9.56,9.56,0,0,1-1.41,4.39,26.52,26.52,0,0,1-2.7,3.59A27.41,27.41,0,0,0,70.25,197a8.92,8.92,0,0,0,.87-4.17Z"></path>
      <path class="cls-10" d="M59.47,201.16a20,20,0,0,1,1.73,10.31,19.48,19.48,0,0,0-2.58-9.87Z"></path>
      <path class="cls-10" d="M57.74,211.24a14.84,14.84,0,0,1,1.1,2.8,6.89,6.89,0,0,1-.08,3,6.83,6.83,0,0,0-.4-2.86,19.15,19.15,0,0,0-1.47-2.5Z"></path>
      <path class="cls-10" d="M56.64,213.73a4,4,0,0,0-2.46.62,4.3,4.3,0,0,0-1.85,2A4.55,4.55,0,0,1,53.9,214a4.73,4.73,0,0,1,2.79-1.19Z"></path>
      <path class="cls-10" d="M58.69,202.58a8.3,8.3,0,0,0-3.53,1.25,9.87,9.87,0,0,0-2.93,2.57,10,10,0,0,1,2.66-3,12.22,12.22,0,0,1,1.71-1.11,6.81,6.81,0,0,1,2-.7Z"></path>
      <path class="cls-10" d="M60.9,198.11A7.31,7.31,0,0,0,55,197a11.31,11.31,0,0,0-5.46,3.09,11.49,11.49,0,0,1,5.34-3.55,8.53,8.53,0,0,1,3.3-.33,7.82,7.82,0,0,1,3.2,1.06Z"></path>
      <path class="cls-10" d="M69.15,194.36a7.89,7.89,0,0,0-4.45-1.27,10,10,0,0,0-4.72,1,10.45,10.45,0,0,1,4.71-1.46,8.68,8.68,0,0,1,5,.95Z"></path>
      <path class="cls-10" d="M73.87,204a11.84,11.84,0,0,1-1.82,6.64,25.49,25.49,0,0,1-4.72,4.89,28.08,28.08,0,0,0-4.44,5,12.22,12.22,0,0,0-2.2,6.25,12.28,12.28,0,0,1,2-6.38A29.06,29.06,0,0,1,67,215.13a25.39,25.39,0,0,0,4.44-4.92A11,11,0,0,0,72.91,204Z"></path>
      <path class="cls-10" d="M66,216.62a5.52,5.52,0,0,1,.73,2.26,8,8,0,0,1-.13,2.35c-.29,1.54-.81,3-1.11,4.52.24-1.53.7-3,.93-4.55a8,8,0,0,0,0-2.29,5.22,5.22,0,0,0-.77-2.1Z"></path>
      <path class="cls-10" d="M72,210.34a18.78,18.78,0,0,1-1.58,8.9,18.58,18.58,0,0,0,1.07-8.85Z"></path>
      <path class="cls-10" d="M69.88,213a9.78,9.78,0,0,1-4.28.44,21.09,21.09,0,0,1-4.19-.79,20.56,20.56,0,0,0,4.2.54,9.4,9.4,0,0,0,4.07-.65Z"></path>
      <path class="cls-10" d="M72.43,208.28a2.48,2.48,0,0,0-1.74-1,6.31,6.31,0,0,0-2.29,0c-1.54.3-3,1.15-4.56,1.51,1.53-.52,2.83-1.49,4.43-2a7.06,7.06,0,0,1,2.51-.29,3.4,3.4,0,0,1,2.44,1.16Z"></path>
      <path class="cls-10" d="M79.34,213.21c-2,2.89-4.82,4.93-7.31,7.2a23.5,23.5,0,0,0-3.41,3.71,11.57,11.57,0,0,0-2.06,4.59A11.63,11.63,0,0,1,68.42,224a23.76,23.76,0,0,1,3.28-3.93c2.41-2.4,5.08-4.57,6.84-7.38Z"></path>
      <path class="cls-10" d="M79.52,222.15A39.43,39.43,0,0,1,75.39,226a14,14,0,0,1-1.13.86c-.39.27-.77.5-1.14.78A22.14,22.14,0,0,0,71,229.39a23.71,23.71,0,0,0-6.14,9.11,24.13,24.13,0,0,1,5.76-9.5,23.42,23.42,0,0,1,2.1-1.89c.36-.3.76-.57,1.12-.85s.71-.55,1.06-.85a41.93,41.93,0,0,0,3.9-3.87Z"></path>
      <path class="cls-10" d="M73,227.59a12.3,12.3,0,0,1-2.17,8.82,11.78,11.78,0,0,0,1.23-8.64Z"></path>
      <path class="cls-10" d="M70,230.21a12.58,12.58,0,0,0-5.73.55,12.11,12.11,0,0,0-5,3,12.21,12.21,0,0,1,4.9-3.29,12.89,12.89,0,0,1,5.91-.86Z"></path>
      <polygon class="cls-3" points="21.43 170.75 74.81 193.41 128.97 170.35 128.47 170.21 21.43 170.75"></polygon>
      <ellipse class="cls-1" cx="76.52" cy="171.44" rx="12.51" ry="4.89"></ellipse>
      <ellipse class="cls-11" cx="76.84" cy="173.09" rx="10.31" ry="4.03"></ellipse>
      <path class="cls-12" d="M74.8,174.79a13.53,13.53,0,0,1-.09-3.76c0-6.18-.06-12.35-.43-18.52-.09-1.56-.66-2.36-2.41-2.33-7.15.14-14.11-.86-20.63-4-1.18-.57-1.26,0-1.41.89a14.81,14.81,0,0,1-8.18,11.36,22.11,22.11,0,0,1-15.91,1.79,81,81,0,0,1-13.67-4.9c-.55-.24-1.21-.46-1.06-1.22s.83-.67,1.45-.66c6.05.08,10.69-2.54,14.21-7.38a61.55,61.55,0,0,1,5.19-6.87A14.57,14.57,0,0,1,37.43,136c-3.8-4-5.93-8.9-7.92-13.83-.64-1.61-.94-3.34-1.43-5-.14-.46-.23-1.23-1-.54-5.4,4.71-12.45,2.06-16.5-2.29-3.05-3.27-5.14-7.2-7.49-11-.92-1.47-1.79-3-2.67-4.47-.28-.46-.68-.93-.12-1.44s.89-.11,1.29.18A23.31,23.31,0,0,0,15.73,102a12.15,12.15,0,0,1,7.43,2.09c-.41-1.64-.7-2.82-1-4-.18-.73-.71-.71-1.27-.59-3.88.8-7.19-.53-10.26-2.75-.35-.26-.78-.45-.74-.92s.49-.49.84-.43c3.11.49,6.37-.61,9.39.87.14.09.31.29.39.26.31-.14.16-.36,0-.56-.18-1.76-1.49-2.51-2.88-3.1-5.26-2.26-6.76-6.77-7-11.92C10.46,77.25,11,73.48,9,70.09a.5.5,0,0,1,0-.65.47.47,0,0,1,.64-.12c5,3.69,10.47,6.85,12.83,13.09a11.33,11.33,0,0,1,.11,7c-.18.28-.56.6-.23.88s.55-.13.7-.42c1.48-1.37,3.22-2.51,4-4.49.13-.32.31-.74.76-.61s.41.68.37,1.07c-.36,3.74-1.1,7.34-3.86,10.18a4.49,4.49,0,0,0-.13,5.09c.39.44.6.09.85-.14,1.94-1.85,4.58-2,6.93-2.75,1-.32,1.09.28.67,1a19.48,19.48,0,0,1-1.86,2.63A7.71,7.71,0,0,0,29,107.71a49.68,49.68,0,0,0,4.95,18.23,28.9,28.9,0,0,0,3.7,6.14c1.59,1.9,2.89,4,5.81,4.34a6.28,6.28,0,0,1,4.33,2.67,1.29,1.29,0,0,0,1.66.57c8.58-2.74,15.88-.17,22.45,5.45.35.3.57.79,1.26.79.3-.77-.19-1.46-.34-2.16-1.63-7.74-3.44-15.44-4.86-23.22-.5-2.78-1.93-4.92-3.32-7.13-1.71-2.74-3.73-5.28-5.63-7.9-.19-.26-.29-.94-.88-.4v0c.08-.12.27-.31.23-.37q-1.95-3.33-3.94-6.63a.83.83,0,0,0-1.08-.35c-1.17.36-3.08,2.8-2.74,3.69.71,1.82,2.21,1.15,3.53,1-1.28.67-2.34,2.38-4.05.45a2.17,2.17,0,0,0-2.67,0c-1.2,1-2.22.69-3.36.12l-.66-.36c-.09-.39-.53-.85-.11-1.16.58-.43.55.33.82.56a2.18,2.18,0,0,0,3.07-.05,7,7,0,0,0,1.73-2.48A8.21,8.21,0,0,1,52,96.37c-3.09-2-7.51-2.19-9.6.48a8,8,0,0,1-5.63,2.8c-.55.06-1.11.22-1.36-.46s.22-.82.64-1.1c1.63-1.06,1.76-2.9,2.29-4.53a6.07,6.07,0,0,1,5.56-4.62c3.36-.32,5.06,1.15,5.14,4.52,0,.51.26.61.61.7.7.17,1.4.32,2.1.48.15,0,.38.14.45.08.23-.2.06-.4-.11-.56-1.42-2.57-2.85-5.13-4.26-7.7a2.46,2.46,0,0,0-.93-1.06,2,2,0,0,1-1-2.46c.14-.55.3-1.13-.27-1.45s-1.05.21-1.41.54c-1.46,1.33-2.59,3-4.14,4.23a14.44,14.44,0,0,1-4.25,1.91c1.19-3.14,1.57-6.38,5.7-7.09-1-.61-1.41-.94-2.23-.49a13,13,0,0,1-16.79-4.15,83.09,83.09,0,0,1-6-9.59c-.17-.33-.73-.64-.26-1.08s.7,0,1,.18c2.61,2,5.59,1.72,8.61,1.57,3.63-.18,7.2.21,10.32,2.37,2.83,2,4.66,4.5,4.4,8.1-.12,1.69,1.2,1.47,2.12,1.82.2.11.41.18.56,0,0,0-.15-.23-.24-.35A5.56,5.56,0,0,1,42.92,73a6.15,6.15,0,0,0,.57-4.65A98.11,98.11,0,0,1,42.34,56c-.06-1.38-.32-2.32-1.89-2.73-3.67-.94-5.27-4.1-7.05-7a.77.77,0,0,1,0-1c.39-.39.81-.11,1.13.14,2.26,1.75,5.27,2.24,7.46,4.72.25-1.51.53-2.69-.29-3.7-3.86-4.8-2.82-9.72-.43-14.67,1.48-3.06,3.44-5.94,3.18-9.57,0-.32,0-.62.4-.71s.62.23.77.56c2,4.23,4.37,8.26,5,13,.54,3.84-.12,7.28-2.83,10.18a2.31,2.31,0,0,0-.4.58c0,.08,0,.22.1.49,1.94-.53,3.94-.75,5.63-2,.35-.26.81-.77,1.26-.29s-.1.88-.34,1.25c-2.1,3.21-4.57,6-8.43,7.13-1,.29-1.21.95-1.16,1.91.44,8.39,1.18,16.77,3.31,24.91a53.53,53.53,0,0,0,5.41,12.35c1.2,2.14,2.54,4.2,3.82,6.29.22.35.4.87.87.8s.46-.73.55-1.16c1-5.31-.17-10.24-2.57-15a17.56,17.56,0,0,1-2.11-6.07A10.33,10.33,0,0,1,56.44,68,9,9,0,0,0,59,62.31a7.72,7.72,0,0,1,6.74-7.53,6.46,6.46,0,0,0-8.38-.36,8.63,8.63,0,0,1-6.21,1.86c-.43,0-.86-.05-1-.54a.64.64,0,0,1,.35-.9c2.17-.86,2.61-3,3.6-4.75a6.06,6.06,0,0,1,6.46-3.18c3.11.46,4.34,2.08,3.9,5.22-.06.44,0,.65.43.82.88.36,1.74.76,3,1.31-.74-2.58.08-5.15-2.19-7.17-4.84-4.33-4.76-9.87-3.32-15.62.11-.43.17-1,.81-1s.54.55.61,1c.36,2.14,2,3.45,3.26,5.2,3.47-8.55,7.68-16.65,7.34-26,0-.62-.07-1.25.68-1.47s1.11.35,1.31.93c2,5.57,4.15,11.1,6,16.73a21.31,21.31,0,0,1,.76,12.05C81.65,44.58,77.94,48,72,48.87c-2.89.44-2.92.44-2.42,3.26a161.48,161.48,0,0,0,5,19.86,4.31,4.31,0,0,0,.63,1c0,.27-.22.61-.12.83,1.14,2.49,1.08,5.24,1.67,7.84-3,4.69-3.58,10.11-4.73,15.35-.94,4.31-2.53,8.51-2.14,13.35a32.26,32.26,0,0,1,5.29-3.59c.42-.19.25-.57.07-.92-1.9-3.88-.1-6.94,2.27-9.82a10,10,0,0,1,6.89-3.48,60.29,60.29,0,0,0,12.89-3.11c1.65-.57,2.75-1.33,2.52-3.29a9.43,9.43,0,0,1,.14-2c.32-2.86.19-5.33-1.86-7.94-2.83-3.6-2.69-8.23-2.13-12.71,1.33,2.83,4.22,4.48,5.26,7.42.18.52.46.82,1.06.35,2.29-1.81,5.12-2.27,7.85-2.9a13.16,13.16,0,0,0,9.36-7.65c.14-.3.07-.82.59-.76s.5.59.5,1c-.11,6.89-1.38,13.31-6.87,18.23a9.64,9.64,0,0,1-10.93,1.88,2.69,2.69,0,0,0-.57-.08c-.16,1.75-.33,3.46-.48,5.17,0,.28-.13.62.2.79s.56-.07.8-.24a15.84,15.84,0,0,0,3.43-3.16c.39-.5.74-1.25,1.56-.83s.5,1.29.31,1.92a13.09,13.09,0,0,1-4.14,6.42,9.34,9.34,0,0,0-3.59,7,75.16,75.16,0,0,1-1.88,10.06c-.1.45-.36,1,0,1.36s.92-.08,1.31-.32c2.8-1.7,4.89-4.2,7.2-6.45.33-.33.21-.76.23-1.19.15-5,1.69-9.25,6.73-11.25,4.07-1.61,7.57-3.87,10-7.6.27-.42.56-.61,1-.42s.42.57.33.93c-1.2,5.18-1.37,10.63-3.67,15.52-2.21,4.72-6.69,8-12.46,5.51a1.12,1.12,0,0,0-1.4.32,75.85,75.85,0,0,1-6.8,6.13c-.85.61-.16.82.21,1.14a10.53,10.53,0,0,1,4.23,7.23,6.84,6.84,0,0,1-4,7.17c-2.12,1-4.31,1.77-6.47,2.66-.29.12-.56.25-.83,0s-.25-.75-.11-1.15a20.23,20.23,0,0,1,2.47-4.37c1.87-2.95,2.29-7.45.8-10.07-1.22,2.38-2.25,4.73-3.56,6.9-2.37,3.91-3.19,8.52-5.7,12.36-.63,1-.36,2.74-2.37,2.29-.12,0-.37.42-.52.67-2.07,3.37-4.12,6.75-6.21,10.1-.71,1.14-.53,1.48.86,1.59a27.92,27.92,0,0,0,12.75-2.43A1.74,1.74,0,0,0,93.77,143c0-3.83,3.71-7.89,7.58-7.6,3.35.25,4.23-1.84,5.24-4a38.83,38.83,0,0,0,3.53-14.54c.13-2.46-.3-4.64-2.23-6.36a6.11,6.11,0,0,1-1.08-1.43c-.2-.35-.08-.85.4-.67,1.53.54,3.25.23,4.68,1.14.3.19.73.37.84.65.82,2.24,2.1,1.67,3.7.85,2.39-1.22,5.17-.87,7.7-1.66a17.86,17.86,0,0,0,5.78-3.19c.35-.27.69-.55,1.1-.16s.15.62,0,1c-2.23,4.09-3.83,8.53-6.79,12.22a9.9,9.9,0,0,1-8,4.06,6.63,6.63,0,0,1-3.55-1.15c-.91-.57-1.21-.3-1.35.7a31.66,31.66,0,0,1-4.48,12.21c-.45.74-.17,1,.58,1.23,4.8,1.53,9.33,1.4,13.33-2.1.35-.3.68-.77,1.24-.43a.64.64,0,0,1,.2.94c-2.74,5.47-5.28,11.13-10.81,14.47S99.22,152.44,95,147c-.57-.73-1.05-.68-1.83-.33a36.44,36.44,0,0,1-13.62,2.95c-1.84.07-2.27.51-2.12,2.46a165.11,165.11,0,0,1,.48,19.77,6.26,6.26,0,0,1-.44,3A2.15,2.15,0,0,1,74.8,174.79Zm33.69-72.18c6.66-2.85,15-12.72,14.41-17.23-1.22,1.59-1.43,3.56-2.49,5.14-2.13,3.2-5,5.55-8,7.85-1.52,1.15-3.51,2-3.91,4.23l-.26.38.13.09ZM76.08,16.54c0-.61,0-1.27-.86-1.26-.2.38,0,.61.14.86a.81.81,0,0,0,.71.41,15.66,15.66,0,0,0,1,4.16,14.8,14.8,0,0,1,.78,6,26.62,26.62,0,0,1-2.93,9.52c-1.22,2.28-3.1,4.1-4.39,6.3-.7,1.2-2.09,2.33-1.33,4.36,1.46-2,2.55-4,4-5.72a22.09,22.09,0,0,0,5.32-17.65C78.21,21.12,77.91,18.51,76.08,16.54Zm12.59,92.54c-.4,0-.81-.06-1.09.34l-.7,0c-2.32.89-4.22-.61-6.29-1.12.62-.85,1.44,0,2.16-.24.49-.14.93-.29,1.09-.8s-.16-1-.47-1.48-.83-.31-1.27-.08a16.69,16.69,0,0,1-3.47,1.43,13,13,0,0,0-6.89,4.64,7,7,0,0,0-1.52,5c.67,4.5,1.63,9,2.59,13.41,1,4.78,2.17,9.54,3.34,14.63,2.66-3.79,4.91-7.45,7.1-11.14a.88.88,0,0,0,0-.86.79.79,0,0,0,.74-.4c1.06-2.13,2.71-3.9,3.61-6.13,1.56-3.11,3.6-6,4.71-9.33.82-.23.91-1.06,1.26-1.64,2.18-3.57,3.07-7.59,3.83-11.64.47-2.48.82-5,1.31-8a116.71,116.71,0,0,1-13.34,8.31c-.27.14-.65.3-.55.62a7,7,0,0,0,2.12,3.65c1,.73,1.71.2,2.4-.46.41.6-.06.86-.23,1.21ZM66.24,111.2l.37-.2a26.74,26.74,0,0,1,.24-2.84c.89-4.64,1.67-9.3,2.79-13.89a49.21,49.21,0,0,1,4.81-12.89,3,3,0,0,0,.36-2.81,168.8,168.8,0,0,1-6.1-20.07c-.56-2.45-2.08-3-4.34-1.86-3.26,1.72-4.26,4.64-4.47,8,0,.75.28,1,.93.92,3.32-.39,6,2.9,6.83,6.07a19.41,19.41,0,0,1-.19,9.78c-1.71,6.43-5.36,12-8.28,17.86a1.5,1.5,0,0,0,0,1.82c1.32,1.93,2.64,3.86,4,5.77C64.19,108.35,65.22,109.77,66.24,111.2Zm5.31,36.1a25.17,25.17,0,0,0-6.19-4.57c-4.69-2.45-9.58-3.24-14.72-1.53-.41.13-1,.08-1.06.76s.46.8.88,1c1,.48,1.92.95,2.92,1.36A36.5,36.5,0,0,0,71.55,147.3Zm-52.26,7.44c1.79.83,3.05,0,4.32.09,3.7.11,7-1.26,10.29-2.68,5.26-2.26,8.65-7.12,13.63-9.75.26-.14.5-.43.2-.73s-.55-.1-.83,0a18.61,18.61,0,0,0-5.6,3.46c-4.86,4.28-10.24,7.53-16.72,8.66Zm82.92-76.16a14.14,14.14,0,0,1,6.29-4A18.42,18.42,0,0,0,115.77,71a9.94,9.94,0,0,0,3.47-7c-.58-.09-.73.16-.77.37-.94,4.51-4.17,6.68-8.19,8.1a30.57,30.57,0,0,0-4.87,2.13C103.87,75.43,102.07,76.24,102.21,78.58Zm-91-6.45c.2,1.8,1.76,2.63,2.54,4a33.64,33.64,0,0,1,3.62,12.41,4.77,4.77,0,0,0,1.86,3.07,16.82,16.82,0,0,0-.41-2.26c-.61-3.73-.52-7.59-2.49-11A20.56,20.56,0,0,0,11.22,72.13ZM6.8,102.88c0,.43-.1.58,0,.65a3.68,3.68,0,0,0,.56.69c3.9,3.56,8.23,6.3,13.55,7.15,2.35.38,4.35,1.79,6.86,2.45a3.72,3.72,0,0,0-2.16-2.06c-2-.66-3.92-1.4-5.93-2a30.78,30.78,0,0,1-6.15-2.38C11.17,106.11,9.16,104.44,6.8,102.88ZM45.7,25l-.49.07c.2,1.51.52,3,.6,4.51a27.79,27.79,0,0,1-2.3,12.17,6.49,6.49,0,0,0-.51,3.5c0,.36.23.73.69.64s.35-.45.33-.72a4.55,4.55,0,0,1,.57-2.6c2.37-4.18,2.63-8.73,2.27-13.35A23,23,0,0,0,45.7,25ZM58.94,66.56c.14,4.52,2.11,8.75,2.31,13.23s.6,8.88-.83,13.24C64,86.86,61.62,71.64,58.94,66.56ZM95,144.5c2.53-.06,5-.22,7.55-.13a20,20,0,0,0,7.54-1.19c2.26-.82,4.66-1.76,6.07-4-1,.39-1.85,1-2.79,1.47a25.78,25.78,0,0,1-12.44,2.68A11.25,11.25,0,0,0,95,144.5ZM38.79,78.61c-1.15-2-3.22-2.83-5.17-3.77C30,73.1,26,72.4,22.62,70.19c-1-.63-1.64-1.69-2.9-1.9a9.51,9.51,0,0,0,4.07,3.65C28.57,74.6,34.28,75.23,38.79,78.61Zm72.79,41.05c5.14-2.58,11.42-3.29,14.57-9-2.89,3.32-6.89,4.76-10.75,6.45C114,117.71,112.29,118,111.58,119.66ZM47.35,46.15c-3,.69-3.2.9-2.58,2.75ZM21.63,93.79c.34-1.19.62-2.16,1-3.33C20.5,91.63,20.39,92,21.63,93.79Zm95.59,45.05c0-.1.14-.22.11-.3a.22.22,0,1,0-.4.16C117,138.78,117.12,138.8,117.22,138.84Z"></path>
      <path class="cls-12" d="M78.74,63c-.24-.37-.78-.63-.46-1.22,2,1.16,3.16.86,4-1.22.73-1.72,1.55-3.22,3.48-3.83.75-.24.49-.72,0-1-1.93-1.24-3.82-2.56-6.26-1-1.28.83-2.78.53-4.21.3-.3,0-.59-.15-.65-.51a.46.46,0,0,1,.36-.54c1.61-.4,2.27-1.85,3.26-2.95a4.2,4.2,0,0,1,5.81-.76c1.17.77,1.79,1.77,1.21,3.2s.85,1.54,1.52,1.88c.89.46.81-.6.94-1.07,2.21-7.89,3-16,3.63-24.12a2.2,2.2,0,0,0-1-1.94A16.46,16.46,0,0,1,87.14,7.11,13.24,13.24,0,0,1,94.38,1.5,26.91,26.91,0,0,1,107.13.27a10.14,10.14,0,0,1,1.35.37c-3.58,2-4.33,5.16-4.47,8.64a26.41,26.41,0,0,1-7.73,17.51c-.16.16-.29.35-.48.58.66.61,1.41.34,2.07.35,6.71.09,10.23,5.49,7.55,11.62-.64,1.47-1.22,3-1.82,4.48-.13.33-.14.74-.59.8s-.7-.37-.9-.72a21.46,21.46,0,0,1-1.74-5.46c-.81-3.19-3.27-4.9-5.71-6.64-.69-.5-.93-.09-.94.61a104.69,104.69,0,0,1-2.23,17.64c-.31,1.57-.7,3.12-1.1,4.89,2.81-1.29,4.94-3.21,7.35-4.69a9.15,9.15,0,0,1,8.92-.8c4.14,1.85,8.32,3,12.89,2.16.4-.08.91-.15,1.1.34s-.26.82-.68,1.09c-3.76,2.44-7.36,5.14-11.41,7.13-3.56,1.74-7.2,2.27-10.85.36a7.53,7.53,0,0,1-4.09-6c-3.37,1.55-4.94,4.29-5.68,7.66-.47.07-.93.16-1.4.2-1.86.15-3.37,1.79-5.39,1.26C80.45,63.1,79.47,63.44,78.74,63Zm14.5-36.19c1.82-3.07,1-6.32.71-9.45a13.45,13.45,0,0,1,.88-6.25c1.43-3.65,4.23-6,7.44-8,.43-.27,1.14-.36,1-1.29-.69.37-1.24.72-1.84,1-4.63,2-9.15,7-8.76,12.9a26.92,26.92,0,0,0,.36,5A16.09,16.09,0,0,1,93.24,26.78ZM95,54c2.7-.35,4.73,1.33,7.11,1.83a15.81,15.81,0,0,0,7.08-.17c3.57-.87,5.74-1.87,6.3-3l-1.24.25a2.23,2.23,0,0,0-.51.12c-4.16,1.77-8.36,2.7-12.79,1a22.33,22.33,0,0,0-3.62-1C96.47,52.82,95.52,52.7,95,54Zm-8,3.68a4.55,4.55,0,0,0-2.73,3,.94.94,0,0,0,.54,1.18c.64.29.81-.3,1-.71C86.1,60.05,86.45,59,86.93,57.65Z"></path>
      <path class="cls-13" d="M44,103c1.14.57,2.16.87,3.36-.12a2.17,2.17,0,0,1,2.67,0c1.71,1.93,2.77.22,4.05-.45,1.72.31,2.56,2,4,2.69v0a41.81,41.81,0,0,1,.63,7.59,37.37,37.37,0,0,1-2.2,12.11c-1.13,3-2.82,5.63-6.65,5.51a1.17,1.17,0,0,0-1.18.91c-.24.61-.41,1.31-1.27,1.28s-1-.73-1.27-1.31a3.37,3.37,0,0,0-.73-.73,13.06,13.06,0,0,0-.25-5.28,24.12,24.12,0,0,1-.42-2.83c-.36-3.08-.52-6.18-.83-9.26s-1.72-5.89.06-8.86C44.16,103.91,44,103.39,44,103Z"></path>
      <path class="cls-13" d="M81.15,63.7c2,.53,3.53-1.11,5.39-1.26.47,0,.93-.13,1.4-.2,3.77,1.28,5,4.16,5,7.84A36.66,36.66,0,0,1,91.6,80c-1.16,3.86-3.3,6.9-7.28,8.23-1,.33-1.69,1.1-2.63,1.49l-1,0c-.45-.28-.36-.7-.3-1.12a3.39,3.39,0,0,0,1.14-2.85,32.44,32.44,0,0,0-1.41-7.51C78.88,73.27,78.56,68.37,81.15,63.7Z"></path>
      <path class="cls-14" d="M44,103c0,.42.14.94,0,1.25-1.78,3-.36,5.89-.06,8.86s.47,6.18.83,9.26a24.12,24.12,0,0,0,.42,2.83,13.06,13.06,0,0,1,.25,5.28A5.36,5.36,0,0,1,42,126.32c-.82-4.1-2.32-8-2.9-12.19a17.06,17.06,0,0,1,.53-8.33,4.24,4.24,0,0,1,3.69-3.19Z"></path>
      <path class="cls-14" d="M81.15,63.7c-2.59,4.67-2.27,9.57-1.06,14.51a32.44,32.44,0,0,1,1.41,7.51,3.39,3.39,0,0,1-1.14,2.85L76.75,81.7c-.59-2.6-.53-5.35-1.67-7.84-.1-.22.07-.56.12-.83.22-1.8-.17-3.65.24-5.47A6.94,6.94,0,0,1,78.74,63C79.47,63.44,80.45,63.1,81.15,63.7Z"></path>
      <path class="cls-14" d="M80.66,89.69l1,0C81.32,90.21,81,90.29,80.66,89.69Z"></path>
      <path class="cls-13" d="M87.58,126.34c-.9,2.23-2.55,4-3.61,6.13a.79.79,0,0,1-.74.4c-2.21-.36-3.52-1.92-4.65-3.62-2.66-4-2.82-8.65-3-13.26-.11-3.74,1.06-6.58,5-7.67,2.07.51,4,2,6.29,1.12a20.2,20.2,0,0,1,.63,15.27C87.31,125.26,87,125.82,87.58,126.34Z"></path>
      <path class="cls-14" d="M89.09,109.08c3,1.88,3.55,4.72,3.2,7.93-1.11,3.35-3.15,6.22-4.71,9.33-.59-.52-.27-1.08-.07-1.63a20.2,20.2,0,0,0-.63-15.27l.7,0c.41,0,.83.1,1.09-.34Z"></path>
      <path class="cls-15" d="M19.29,154.74l5.29-.94c6.48-1.13,11.86-4.38,16.72-8.66a18.61,18.61,0,0,1,5.6-3.46c.28-.11.59-.26.83,0s.06.59-.2.73c-5,2.63-8.37,7.49-13.63,9.75-3.3,1.42-6.59,2.79-10.29,2.68C22.34,154.79,21.08,155.57,19.29,154.74Z"></path>
      <path class="cls-15" d="M76.08,16.54c1.83,2,2.13,4.58,2.43,7a22.09,22.09,0,0,1-5.32,17.65c-1.46,1.72-2.55,3.69-4,5.72-.76-2,.63-3.16,1.33-4.36,1.29-2.2,3.17-4,4.39-6.3a26.62,26.62,0,0,0,2.93-9.52,14.8,14.8,0,0,0-.78-6,15.66,15.66,0,0,1-1-4.16Z"></path>
      <path class="cls-15" d="M102.21,78.58c-.14-2.34,1.66-3.15,3.2-4a30.57,30.57,0,0,1,4.87-2.13c4-1.42,7.25-3.59,8.19-8.1,0-.21.19-.46.77-.37a9.94,9.94,0,0,1-3.47,7,18.42,18.42,0,0,1-7.27,3.61A14.14,14.14,0,0,0,102.21,78.58Z"></path>
      <path class="cls-15" d="M11.22,72.13a20.56,20.56,0,0,1,5.12,6.22c2,3.44,1.88,7.3,2.49,11a16.82,16.82,0,0,1,.41,2.26,4.77,4.77,0,0,1-1.86-3.07,33.64,33.64,0,0,0-3.62-12.41C13,74.76,11.42,73.93,11.22,72.13Z"></path>
      <path class="cls-15" d="M6.8,102.88c2.36,1.56,4.37,3.23,6.68,4.5a30.78,30.78,0,0,0,6.15,2.38c2,.6,4,1.34,5.93,2a3.72,3.72,0,0,1,2.16,2.06c-2.51-.66-4.51-2.07-6.86-2.45-5.32-.85-9.65-3.59-13.55-7.15a3.68,3.68,0,0,1-.56-.69C6.7,103.46,6.76,103.31,6.8,102.88Z"></path>
      <path class="cls-15" d="M45.7,25a23,23,0,0,1,1.16,4.22c.36,4.62.1,9.17-2.27,13.35a4.55,4.55,0,0,0-.57,2.6c0,.27,0,.65-.33.72s-.64-.28-.69-.64a6.49,6.49,0,0,1,.51-3.5,27.79,27.79,0,0,0,2.3-12.17c-.08-1.51-.4-3-.6-4.51Z"></path>
      <path class="cls-15" d="M58.94,66.56C61.62,71.64,64,86.86,60.42,93c1.43-4.36,1-8.83.83-13.24S59.08,71.08,58.94,66.56Z"></path>
      <path class="cls-15" d="M108.48,102.6c.4-2.23,2.39-3.08,3.91-4.23,3-2.3,5.89-4.65,8-7.85,1.06-1.58,1.27-3.55,2.49-5.14.58,4.51-7.75,14.38-14.41,17.23Z"></path>
      <path class="cls-15" d="M95,144.5a11.25,11.25,0,0,1,5.93-1.17,25.78,25.78,0,0,0,12.44-2.68c.94-.47,1.8-1.08,2.79-1.47-1.41,2.24-3.81,3.18-6.07,4a20,20,0,0,1-7.54,1.19C100.05,144.28,97.54,144.44,95,144.5Z"></path>
      <path class="cls-15" d="M38.79,78.61c-4.51-3.38-10.22-4-15-6.67a9.51,9.51,0,0,1-4.07-3.65c1.26.21,1.94,1.27,2.9,1.9C26,72.4,30,73.1,33.62,74.84,35.57,75.78,37.64,76.56,38.79,78.61Z"></path>
      <path class="cls-15" d="M111.58,119.66c.71-1.71,2.4-2,3.82-2.57,3.86-1.69,7.86-3.13,10.75-6.45C123,116.37,116.72,117.08,111.58,119.66Z"></path>
      <path class="cls-15" d="M76.07,16.55a.81.81,0,0,1-.71-.41c-.12-.25-.34-.48-.14-.86.89,0,.83.65.86,1.26Z"></path>
      <path class="cls-15" d="M117.22,138.84c-.1,0-.26-.06-.29-.14a.22.22,0,1,1,.4-.16C117.36,138.62,117.26,138.74,117.22,138.84Z"></path>
      <path class="cls-13" d="M88.67,109.08c-.26.44-.68.35-1.09.34C87.86,109,88.27,109.08,88.67,109.08Z"></path>
      <path class="cls-15" d="M108.49,102.61l-.14.46-.13-.09.26-.38Z"></path>
      <path class="cls-15" d="M93.24,26.78A16.09,16.09,0,0,0,93,20.67a26.92,26.92,0,0,1-.36-5c-.39-5.88,4.13-10.93,8.76-12.9.6-.26,1.15-.61,1.84-1,.19.93-.52,1-1,1.29-3.21,2-6,4.34-7.44,8A13.45,13.45,0,0,0,94,17.33C94.21,20.46,95.06,23.71,93.24,26.78Z"></path>
      <path class="cls-15" d="M95,54c.54-1.27,1.49-1.15,2.33-1a22.33,22.33,0,0,1,3.62,1c4.43,1.73,8.63.8,12.79-1a2.23,2.23,0,0,1,.51-.12l1.24-.25c-.56,1.09-2.73,2.09-6.3,3a15.81,15.81,0,0,1-7.08.17C99.71,55.3,97.68,53.62,95,54Z"></path>
      <polygon class="cls-16" points="85.29 192.11 85.18 192.13 85.19 192.04 85.29 192.11"></polygon>
    </g>
  </g>
</svg>
