<?xml version="1.0" encoding="UTF-8"?>
<svg xmlns="http://www.w3.org/2000/svg" xmlns:xlink="http://www.w3.org/1999/xlink" viewBox="0 0 110.12 221.85">
  <defs>
    <style>.cls-1,.cls-13,.cls-14{fill:none;}.cls-2{fill:#956d4b;}.cls-3{clip-path:url(#clip-path);}.cls-4{fill:url(#Безымянный_градиент_2);}.cls-5{fill:#754120;}.cls-6{fill:#44281c;}.cls-7{fill:#6c3c1d;}.cls-8{fill:#714d31;}.cls-9{fill:#613822;}.cls-10{fill:#7f5637;}.cls-11{fill:#a07850;}.cls-12{fill:#cfcecf;}.cls-13,.cls-14{stroke:#cfcecf;stroke-width:0.86px;}.cls-13{stroke-miterlimit:10;}.cls-14{stroke-linecap:round;stroke-linejoin:round;}.cls-15{fill:#e9c671;}.cls-16{fill:#d9a458;}.cls-17{fill:#8b5b3c;}.cls-18{fill:#84a63c;}.cls-19{fill:#708d34;}.cls-20{fill:#a38c48;}.cls-21{fill:#613922;}</style>
    <clipPath id="clip-path">
      <polygon class="cls-1" points="7.72 193.17 57.69 216.69 103.91 193.28 55.86 172.92 7.72 193.17"></polygon>
    </clipPath>
    <linearGradient id="Безымянный_градиент_2" x1="-3165.91" y1="478.05" x2="-3163.11" y2="478.05" gradientTransform="matrix(34.36, 0, 0, -34.36, 108765.07, 16618.89)" gradientUnits="userSpaceOnUse">
      <stop offset="0" stop-color="#a17551"></stop>
      <stop offset="0.38" stop-color="#a17551"></stop>
      <stop offset="0.89" stop-color="#7a4928"></stop>
      <stop offset="1" stop-color="#72401f"></stop>
    </linearGradient>
  </defs>
  <g id="Слой_2" data-name="Слой 2">
    <g id="Слой_1-2" data-name="Слой 1">
      <path class="cls-2" d="M57.69,150.53s9.62,11.3,17.06,11.77,32.81-7.57,32.81-7.57l2.56-26.43L57.69,109.81Z"></path>
      <path class="cls-2" d="M0,126.43,5.23,160.9s18.58,2.79,21.83,1.87,18.12-6.51,22.29-6.51,8.34-5.73,8.34-5.73V109.81Z"></path>
      <g class="cls-3">
        <rect class="cls-4" x="31.38" y="145.61" width="48.87" height="98.4" transform="translate(-141.7 240.09) rotate(-86.92)"></rect>
      </g>
      <path class="cls-5" d="M7.72,193.17,5.23,160.91s23.69-.47,30.19-3.72,22.27-6.66,22.27-6.66l-1.83,22.4Z"></path>
      <path class="cls-6" d="M41.49,162.91a8.56,8.56,0,0,0-2.84-1.67l0,0s-3.79-1.13-5.85,1.41-1.71,5.29-.77,5.74a11.08,11.08,0,0,0,1.63.34l.09,0a30.11,30.11,0,0,0,3.51-.8,1.56,1.56,0,0,0,.6-.16,6.26,6.26,0,0,0,.65-.19c1.49-.46,1.67-.12,2.69-1A4,4,0,0,0,42.31,164l-.21-.5h0l0,0a1,1,0,0,0-.58-.5"></path>
      <path class="cls-6" d="M21.2,166.24a10.77,10.77,0,0,0-4,1.32v0s-4.3,2.7-3.59,6.85,3.66,6.13,4.88,5.6a14.71,14.71,0,0,0,1.71-1.28l0-.14c.92-1.05,1.59-3.16,2.21-4.05a2,2,0,0,0,.35-.72c.11-.2.21-.42.38-.79.8-1.81,1.28-1.71,1.29-3.45a5.09,5.09,0,0,0-1.54-3.21,3.29,3.29,0,0,0-.66-.23v0h-.08a1.27,1.27,0,0,0-1,.14"></path>
      <path class="cls-7" d="M57.69,150.53l-1.83,22.39,48.06,20.37,3.64-38.56s-15-1.72-21.48-.8-17.84,3.72-21.24,1.87a44.84,44.84,0,0,1-7.15-5.27"></path>
      <path class="cls-6" d="M39.39,173.54a3.29,3.29,0,0,0-1.26-.31h0a2.31,2.31,0,0,0-2,1.18c-.49,1.19-.05,2.18.35,2.24l.65,0,0,0a10.59,10.59,0,0,0,1.23-.69l.21-.13.22-.14c.51-.34.61-.23.9-.68a1.59,1.59,0,0,0,.12-1.08l-.13-.16h0Z"></path>
      <path class="cls-6" d="M86.47,163.9a2.27,2.27,0,0,0-.11-.89h0s-.38-1-1.27-1-1.43.5-1.38.78l.2.41h0l.75.63.13.1L85,164c.35.25.3.34.66.41a1.08,1.08,0,0,0,.74-.18l.07-.13h0Z"></path>
      <path class="cls-6" d="M99.89,180.08a10.91,10.91,0,0,0-1.9-3.81h0s-3.32-3.91-7.36-2.6-5.59,4.54-4.88,5.68a15.32,15.32,0,0,0,1.52,1.53h.14c1.19.77,3.39,1.14,4.37,1.62a2.18,2.18,0,0,0,.77.25c.22.08.45.15.84.26,1.93.54,1.9,1,3.64.79a5.15,5.15,0,0,0,3-2,4.06,4.06,0,0,0,.13-.69h0l0-.07a1.27,1.27,0,0,0-.28-1"></path>
      <path class="cls-6" d="M73.78,166.8a8.37,8.37,0,0,0-1.87,2.69l0,0s-1.4,3.66,1,5.89,5.11,2.09,5.62,1.19a12,12,0,0,0,.46-1.59l0-.09a27.58,27.58,0,0,0-.52-3.53,1.67,1.67,0,0,0-.12-.61c0-.17-.07-.36-.13-.66-.35-1.5,0-1.66-.81-2.74a3.94,3.94,0,0,0-2.44-1.26l-.51.16h0l0,0a1,1,0,0,0-.54.54"></path>
      <path class="cls-8" d="M74,194.18a1.59,1.59,0,0,0,1.57-.42c.54-.7.43-1.43.17-1.55l-.44-.08c-.29,0-.32.69-.33.7Z"></path>
      <path class="cls-9" d="M73,193.6s.87.79,1.23.55.8-.47.8-.47l0-.24-1-.32-.56.19Z"></path>
      <path class="cls-10" d="M73,193.46c0,.1.12.36.4.27a4.1,4.1,0,0,0,.52-.23l.33-1c.06-.15.14-.19-.25-.06s-.45,0-.72.29a1.07,1.07,0,0,0-.28.69"></path>
      <path class="cls-11" d="M73.88,193.5a5.25,5.25,0,0,0,.13-.69c0-.31,0-.39.28-.43s.84-.33,1.11-.23.26.09.26.44a1.24,1.24,0,0,1-.39.87.68.68,0,0,1-.75.32,1.69,1.69,0,0,1-.64-.28"></path>
      <path class="cls-8" d="M63.28,188.05s2.39.13,3.24-1.67.26-3.36-.36-3.49a7.39,7.39,0,0,0-1,0c-.66,0-.37,1.67-.39,1.7Z"></path>
      <path class="cls-9" d="M60.93,187.23s2.3,1.32,3,.61,1.53-1.4,1.53-1.4l-.15-.52a7.25,7.25,0,0,0-2.27-.24c-.36.19-1,.61-1.16.69Z"></path>
      <path class="cls-10" d="M60.74,187c.11.21.43.74,1,.4a8.38,8.38,0,0,0,1.05-.75s.18-1.93.26-2.28.22-.49-.58,0-1,.31-1.44,1a2.38,2.38,0,0,0-.28,1.65"></path>
      <path class="cls-11" d="M62.78,186.6a10.92,10.92,0,0,0-.05-1.58c-.09-.7-.16-.88.42-1.09s1.68-1.13,2.32-1,.6.07.77.85a2.85,2.85,0,0,1-.41,2.09,1.59,1.59,0,0,1-1.52,1.07,4,4,0,0,1-1.53-.31"></path>
      <path class="cls-8" d="M53.32,195.82s1.86,1.41,3.54.43,2-2.58,1.62-3a6,6,0,0,0-.84-.53c-.55-.33-1.21,1.15-1.25,1.16Z"></path>
      <path class="cls-9" d="M51.86,193.87S53,196.19,53.94,196s2-.29,2-.29l.16-.51s-1.29-1.4-1.7-1.44-1.14,0-1.32-.07Z"></path>
      <path class="cls-10" d="M51.86,193.54c0,.23,0,.83.59.87a10.13,10.13,0,0,0,1.26,0l1.46-1.71c.25-.24.45-.27-.47-.32s-1-.27-1.7,0a2.39,2.39,0,0,0-1.14,1.19"></path>
      <path class="cls-11" d="M53.71,194.38a10.69,10.69,0,0,0,.83-1.32c.3-.61.35-.79.93-.64s2,0,2.44.44.45.38.17,1.11a2.8,2.8,0,0,1-1.49,1.46,1.54,1.54,0,0,1-1.81,0,4.06,4.06,0,0,1-1.07-1.09"></path>
      <path class="cls-8" d="M49,189.38a2.67,2.67,0,0,0,.1-2.73c-.86-1.2-2.11-1.39-2.41-1l-.35.67c-.22.44,1,.85,1,.88Z"></path>
      <path class="cls-9" d="M47.63,190.62s1.7-1,1.49-1.73a15.08,15.08,0,0,1-.35-1.51l-.4-.09s-1,1.08-1,1.4,0,.87,0,1Z"></path>
      <path class="cls-10" d="M47.39,190.64c.18,0,.63,0,.62-.5a7.72,7.72,0,0,0-.11-1l-1.4-1c-.2-.18-.23-.32-.21.38s-.15.74.12,1.3a1.8,1.8,0,0,0,1,.78"></path>
      <path class="cls-11" d="M47.9,189.18a7.93,7.93,0,0,0-1.06-.54c-.49-.2-.62-.22-.55-.68s-.13-1.51.17-1.89.26-.37.84-.19a2.1,2.1,0,0,1,1.21,1,1.19,1.19,0,0,1,.15,1.38,3,3,0,0,1-.76.89"></path>
      <path class="cls-8" d="M40.56,191.39a1.15,1.15,0,0,0,.38-1.11c-.2-.61-.69-.85-.86-.74l-.23.23.29.49Z"></path>
      <path class="cls-9" d="M39.82,191.73s.83-.21.84-.53,0-.67,0-.67l-.15-.08-.58.44-.12.43Z"></path>
      <path class="cls-10" d="M39.71,191.71l.33-.13.08-.41-.46-.6c-.06-.09,0-.16-.13.13s-.16.29-.12.55a.81.81,0,0,0,.3.46"></path>
      <path class="cls-11" d="M40.12,191.17l-.37-.36-.15-.35.32-.76.37,0a.92.92,0,0,1,.37.58.52.52,0,0,1-.12.6Z"></path>
      <path class="cls-8" d="M38,196.07s1.64-2.64.13-4.73-3.65-2.39-4.18-1.77a8.24,8.24,0,0,0-.6,1.17c-.37.77,1.66,1.45,1.69,1.5Z"></path>
      <path class="cls-9" d="M35.56,198.22s2.94-1.8,2.56-3-.63-2.61-.63-2.61l-.69-.15s-1.69,1.88-1.69,2.42.08,1.52.06,1.75Z"></path>
      <path class="cls-10" d="M35.13,198.26c.31,0,1.1,0,1.07-.87a12.17,12.17,0,0,0-.19-1.66s-2.09-1.42-2.44-1.72-.41-.56-.36.65-.25,1.29.21,2.25a3.15,3.15,0,0,0,1.71,1.35"></path>
      <path class="cls-11" d="M36,195.72a14.22,14.22,0,0,0-1.84-.93c-.85-.33-1.08-.36-1-1.15s-.23-2.61.29-3.28.45-.64,1.44-.35a3.69,3.69,0,0,1,2.12,1.78,2.07,2.07,0,0,1,.27,2.39A5.23,5.23,0,0,1,36,195.72"></path>
      <path class="cls-12" d="M47.14,147.51s.56-3.22,5.12-.86c0,0,.32.48,1.42,0s3.64-1.78,6.24-1.07c0,0,1.4-2.52,4.26,0,0,0,2.95.32,3,2.68l.4,1.39s0,3.4-4.39,2.49a2.26,2.26,0,0,1-2.76,1.77l-1,.7a2.84,2.84,0,0,1-4.34.61,3.89,3.89,0,0,0-2.42-.67c-1.44.08-1.79-.75-2.33-1.34a9.4,9.4,0,0,0-1.6-1.17,2.6,2.6,0,0,1-.54-2C48.43,149.25,46.82,148.58,47.14,147.51Z"></path>
      <path class="cls-13" d="M34,150.23s2.07-2.16,6.39-1,8.4-1.5,8.4-1.5"></path>
      <path class="cls-13" d="M28.7,161.79s3.44-7.08,14.91-6.86c6.45.12,5.71-5.25,5.71-5.25"></path>
      <path class="cls-12" d="M48.54,153.5a6.87,6.87,0,0,1-3.83,1,5.8,5.8,0,0,1-2-.43A7.29,7.29,0,0,1,41,153a.43.43,0,0,1,.51-.69h0l0,0a6.12,6.12,0,0,0,1.5,1,4.82,4.82,0,0,0,1.72.46,6.33,6.33,0,0,0,3.52-.7h0a.25.25,0,0,1,.34.1A.26.26,0,0,1,48.54,153.5Z"></path>
      <path class="cls-13" d="M54.86,153.41a10.06,10.06,0,0,0-5.52,8.38"></path>
      <path class="cls-13" d="M48.75,165.22c-1,4.28-1.18,5.14-1.18,5.14"></path>
      <path class="cls-13" d="M53.39,173s-6.54-4.72-4.08-9.22"></path>
      <path class="cls-14" d="M56.89,154.71s-1.72,2.79-.81,4.51a10.37,10.37,0,0,0,2.55,3.64,9.91,9.91,0,0,1,2.66,4.93,8.46,8.46,0,0,0,1.82,3.54"></path>
      <path class="cls-13" d="M60.83,166.27s1.26,2.59,6.75,4.09"></path>
      <path class="cls-13" d="M56.63,160.26s1.83,1.85,1.21,3.56-2.11,7-1.21,8.47"></path>
      <path class="cls-13" d="M59.46,152.68s.5,5.46,2.83,5.79"></path>
      <path class="cls-13" d="M62.29,152.68a6.65,6.65,0,0,0,5.29,3c3.78.27,5.71,9.49,5.71,9.49"></path>
      <path class="cls-13" d="M65.65,149a15,15,0,0,0,8.43.69c4.78-1,6.82,1.5,6.82,1.5"></path>
      <path class="cls-13" d="M72.8,149.88s3,1.8,2.38,3.53"></path>
      <ellipse class="cls-15" cx="22.53" cy="164.57" rx="10.18" ry="5.89" transform="matrix(0.84, -0.54, 0.54, 0.84, -85.31, 38.23)"></ellipse>
      <path class="cls-15" d="M30.66,155.35a12,12,0,0,0-2,.61c-1.64.68-5.47,1.74-6.17-1.25-.9-3.85,6.62-6,7.46-6.32,1.5-.64,8.22.51,4.51,5A7.38,7.38,0,0,1,30.66,155.35Z"></path>
      <path class="cls-15" d="M40.35,159.86S32.28,161,31,165.22s-.08,6.43,1.8,7.82,5.31,2.79,9-.75,8.47-6.68,9.29-8.47c.54-1.14,1.28-6.82-4.22-7.11S43.56,159.09,40.35,159.86Z"></path>
      <path class="cls-15" d="M51.89,177.87a4.31,4.31,0,0,1-1.29-2.79c-.05-1.21.43-2.77,2.79-3.75,4.36-1.83,10.59.53,12.35,2.25s5.46,4.93-.09,7.82C60.75,184,54.48,180.48,51.89,177.87Z"></path>
      <path class="cls-15" d="M60.18,160.26s-.34-7.15,5.47-4.53,6,11.31,3.68,12.06S61.43,169.24,60.18,160.26Z"></path>
      <path class="cls-15" d="M78.3,153.41s.67-4.28,4.21-5.18,10.29,1.8,11,2.59,6.11,5.18,7.71,10,0,11.9-9.43,6.22S78.81,159.61,78.3,153.41Z"></path>
      <path class="cls-15" d="M72.11,168.43s-2.44-4.82,3.07-6.11,5.72.7,5.72.7,8.25,3.48,9.65,8.31-4.72,9.73-11.47,5.13S72.11,168.43,72.11,168.43Z"></path>
      <path class="cls-15" d="M53.29,164.43a5.27,5.27,0,0,0-1.34,4c.13,1.24.76,2.42,2.91,1.69,4-1.34,4.92-4,4.73-4.48s-.5-5.62-4.73-2.59A9.32,9.32,0,0,0,53.29,164.43Z"></path>
      <path class="cls-15" d="M48.31,172.82c.58-.87,2.38-4-1.37-3.75a1.54,1.54,0,0,0-1.32,2.21l0,.05c.71,1.32.85,2.93,2.28,1.9A1.52,1.52,0,0,0,48.31,172.82Z"></path>
      <path class="cls-15" d="M69.84,170.09s2.09,3.49-1.09,2.95-2-4.32-1-4S69.17,168,69.84,170.09Z"></path>
      <path class="cls-15" d="M77.12,151.24a2.59,2.59,0,0,0-3.55,3c.48,2.09,1.65,5.17,4,1.76C79.24,153.59,78.46,151.9,77.12,151.24Z"></path>
      <path class="cls-15" d="M39,153.41c-.47-.47-.6-3.24,1.94-2.47S41.41,155.75,39,153.41Z"></path>
      <path class="cls-15" d="M54.86,161.89s1-4-2.76-2.14S52.82,166.39,54.86,161.89Z"></path>
      <circle class="cls-16" cx="18.35" cy="163.76" r="0.81"></circle>
      <circle class="cls-16" cx="34.36" cy="166.83" r="0.81"></circle>
      <circle class="cls-16" cx="37.97" cy="166.42" r="0.81"></circle>
      <circle class="cls-16" cx="60.83" cy="179.11" r="0.81"></circle>
      <circle class="cls-16" cx="80.77" cy="171.88" r="0.81"></circle>
      <circle class="cls-16" cx="85.62" cy="157.6" r="0.81"></circle>
      <circle class="cls-16" cx="83.41" cy="174.93" r="0.81"></circle>
      <circle class="cls-16" cx="89.24" cy="160.05" r="0.81"></circle>
      <circle class="cls-16" cx="66.7" cy="163.02" r="0.81"></circle>
      <circle class="cls-16" cx="63.11" cy="161.68" r="0.81"></circle>
      <circle class="cls-16" cx="27.89" cy="151.99" r="0.81"></circle>
      <circle class="cls-16" cx="39.02" cy="168.84" r="0.81"></circle>
      <circle class="cls-16" cx="17.08" cy="166.42" r="0.81"></circle>
      <circle class="cls-16" cx="36.82" cy="168.84" r="0.41"></circle>
      <circle class="cls-16" cx="60.18" cy="177.2" r="0.41"></circle>
      <circle class="cls-16" cx="57.97" cy="178.3" r="0.41"></circle>
      <circle class="cls-16" cx="80.77" cy="174.24" r="0.69"></circle>
      <circle class="cls-16" cx="86.43" cy="160.86" r="0.69"></circle>
      <circle class="cls-16" cx="64.21" cy="164.57" r="0.41"></circle>
      <circle class="cls-16" cx="77.89" cy="172.29" r="0.41"></circle>
      <circle class="cls-16" cx="89.24" cy="163.02" r="0.41"></circle>
      <circle class="cls-16" cx="75.91" cy="170.09" r="0.41"></circle>
      <circle class="cls-16" cx="26.03" cy="154.71" r="0.41"></circle>
      <circle class="cls-16" cx="25.62" cy="153.41" r="0.41"></circle>
      <circle class="cls-16" cx="35.6" cy="170.46" r="0.81"></circle>
      <circle class="cls-16" cx="54.86" cy="177.2" r="0.81"></circle>
      <circle class="cls-16" cx="20.16" cy="165.84" r="1"></circle>
      <polygon class="cls-17" points="0 126.43 57.69 150.53 110.12 128.3 57.69 109.81 0 126.43"></polygon>
      <path class="cls-18" d="M56.61,0s-3.75,6.43,1.18,10.82A4.56,4.56,0,0,0,59.5,5.41C58.22,1.93,56.5,2.25,56.61,0Z"></path>
      <path class="cls-19" d="M57,12.11s.85-3.64-4.61-3c0,0-1.39.86-4.18-1C48.25,8.15,50.93,16.72,57,12.11Z"></path>
      <path class="cls-18" d="M57.79,10.82s3.86-4,6.21-2.67,2.9,2,4.08,1.82S61.65,17.68,57.79,10.82Z"></path>
      <path class="cls-18" d="M57.53,15.75s-6.17-2.46-3.17,8.36c0,0,2.28.86,2.73-3.75Z"></path>
      <path class="cls-18" d="M66.9,14.25s-4.69,5.58,1.3,9.11A4,4,0,0,0,69,18.81C67.75,16.29,66.47,15.33,66.9,14.25Z"></path>
      <path class="cls-18" d="M71,18.81s-3.11-5.09.86-7.13,5.36,1.79,5.36,1.79a3,3,0,0,0-2.47,3.36C74.83,19.83,71,18.81,71,18.81Z"></path>
      <path class="cls-18" d="M71.18,19.84s4.29-2.05,7.29,3.52C78.47,23.36,72.53,25.19,71.18,19.84Z"></path>
      <path class="cls-18" d="M66.47,27.76S66,23,74.83,24.18C74.83,24.18,74.72,32.47,66.47,27.76Z"></path>
      <path class="cls-19" d="M48.25,35.9s-.47-5.68,5.28-5.57C53.53,30.33,54.36,34.62,48.25,35.9Z"></path>
      <path class="cls-18" d="M60.79,39.55a1.7,1.7,0,0,0-.36-1.44c-.5-.62-1.59-1.26-3.93-1.46-5-.43-4.61-1.5-4.61-1.5S53.07,45.87,60.79,39.55Z"></path>
      <path class="cls-19" d="M67.3,38.69s2.81-4-.84-6.75C66.46,31.94,63.64,36.33,67.3,38.69Z"></path>
      <path class="cls-18" d="M63.47,40.42s4.71-2.91,5.46,4.27C68.93,44.69,64.22,45.79,63.47,40.42Z"></path>
      <path class="cls-18" d="M75.66,51.58s-3.54-4.17,1.28-8.14C76.94,43.44,80.69,49.44,75.66,51.58Z"></path>
      <path class="cls-18" d="M83.05,39.13s1.39-3.09-3.54-4.06-4.18-2.35-4.18-2.35S74.9,43.18,83.05,39.13Z"></path>
      <path class="cls-18" d="M84.23,35.07s2.14-3.42-2-5.08a12.68,12.68,0,0,1-2-1.56C79.73,27.89,77.16,35,84.23,35.07Z"></path>
      <path class="cls-18" d="M85.12,48s-3.14-7.22,2-8.91a39.17,39.17,0,0,0,.32,4C87.66,44.08,89.34,47.19,85.12,48Z"></path>
      <path class="cls-19" d="M86.06,48.84A5.14,5.14,0,0,0,91,53.56a20.31,20.31,0,0,0-1.6-4.72C88.52,47.51,85.65,47.23,86.06,48.84Z"></path>
      <path class="cls-18" d="M81.18,74.62s-2.56-9.29-10.35-4C70.83,70.62,73.56,77.94,81.18,74.62Z"></path>
      <path class="cls-18" d="M60.72,75.49s-4.32-2.62-5.5-3.08S53,69.3,51.83,70.23s-.65,6.89,2.32,7.82S60.12,75.64,60.72,75.49Z"></path>
      <path class="cls-19" d="M57.66,10.73a1.84,1.84,0,0,1,.2,1.09,9.55,9.55,0,0,1-.16,1,9.64,9.64,0,0,0-.16,1.85,13,13,0,0,0,.67,3.69c.18.6.43,1.19.64,1.78s.5,1.17.77,1.74l.85,1.71.93,1.68A18,18,0,0,1,63,28.87a14,14,0,0,1,.65,4,20.1,20.1,0,0,1-1.58,7.78c-1,2.45-2.1,4.76-3.12,7.09-.51,1.17-1,2.34-1.38,3.52a19.48,19.48,0,0,0-.88,3.58,20.71,20.71,0,0,0,.63,7.31c.6,2.44,1.41,4.86,2.23,7.3s1.63,4.91,2.25,7.47a32.48,32.48,0,0,1,1,7.9c0,.67,0,1.35-.09,2l-.11,1-.16,1c-.2,1.31-.48,2.59-.77,3.86-.6,2.54-1.28,5-1.8,7.48a47.16,47.16,0,0,0-1,7.44A46.67,46.67,0,0,0,59.2,115l.25,1.87.29,1.9.59,3.81.59,3.81.3,1.91.14,1,.07.48,0,.24,0,.12v.1c-1.33.12,3-.23-3,.46a1.5,1.5,0,0,1,3-.49c-6,.71-1.64.32-3,.42v-.08l0-.11,0-.24-.07-.47-.14-1L58,126.86,57.46,123l-.53-3.82-.26-1.91-.23-2a50,50,0,0,1-.16-7.93,48.55,48.55,0,0,1,1.19-7.82c.58-2.56,1.32-5,1.93-7.5.3-1.23.59-2.46.8-3.69l.16-.92.12-.91c.06-.6.11-1.21.11-1.82a30,30,0,0,0-.86-7.38c-.55-2.45-1.32-4.88-2.09-7.33s-1.56-4.93-2.15-7.5a22.42,22.42,0,0,1-.54-8A29.59,29.59,0,0,1,57.46,47c1.08-2.36,2.26-4.64,3.21-7a20,20,0,0,0,1.68-7.21,13.56,13.56,0,0,0-.46-3.64,16.84,16.84,0,0,0-1.4-3.46L59.61,24l-.81-1.77c-.26-.6-.49-1.21-.73-1.82s-.44-1.23-.6-1.86a13.92,13.92,0,0,1-.59-3.91,11.78,11.78,0,0,1,.24-2,2.66,2.66,0,0,0,.09-1.7h0a.27.27,0,0,1,.11-.36.27.27,0,0,1,.35.11Z"></path>
      <path class="cls-19" d="M62.74,30.77a34.67,34.67,0,0,0,2.88-2.93,29.07,29.07,0,0,0,2.49-3.27,17.39,17.39,0,0,0,1.81-3.67,13.12,13.12,0,0,0,.53-2,12.73,12.73,0,0,0,.17-2.06,8.71,8.71,0,0,1-.14,4.21A15.3,15.3,0,0,1,68.78,25a24.06,24.06,0,0,1-2.47,3.45,26.73,26.73,0,0,1-3,3,.45.45,0,0,1-.62-.05.44.44,0,0,1,0-.62Z"></path>
      <path class="cls-19" d="M60.42,41.52c.89-.26,1.8-.58,2.67-.93a27.69,27.69,0,0,0,2.6-1.19,18.82,18.82,0,0,0,2.43-1.49,10.49,10.49,0,0,0,2.07-2,10.45,10.45,0,0,1-1.87,2.22A18.34,18.34,0,0,1,66,40a27.72,27.72,0,0,1-2.51,1.5c-.87.46-1.74.89-2.66,1.28a.64.64,0,1,1-.49-1.18l.06,0Z"></path>
      <path class="cls-19" d="M41.4,40.74a17.32,17.32,0,0,1,1.94,2.83,21.76,21.76,0,0,1,1.43,3.1c.2.53.36,1.09.52,1.62s.33,1.05.52,1.56a18.85,18.85,0,0,0,1.4,2.94,20.14,20.14,0,0,0,4.16,5,23.62,23.62,0,0,0,5.42,3.48h0A1,1,0,0,1,56,63l-.06,0A31.07,31.07,0,0,1,53,61a23.27,23.27,0,0,1-2.66-2.21,22.69,22.69,0,0,1-4.15-5.49,21,21,0,0,1-1.36-3.16c-.18-.54-.34-1.09-.47-1.64s-.28-1.06-.45-1.58a18.4,18.4,0,0,0-3-5.76l0,0a.35.35,0,0,1,.06-.49A.34.34,0,0,1,41.4,40.74Z"></path>
      <path class="cls-19" d="M44.79,49.14a17.06,17.06,0,0,0,1.68-3.43,17.89,17.89,0,0,0,.9-3.74,27.67,27.67,0,0,0,.11-3.87c0-.65-.08-1.29-.17-1.93a9.51,9.51,0,0,0-.42-1.84v0a.28.28,0,0,1,.16-.36.3.3,0,0,1,.37.16,9.87,9.87,0,0,1,.49,2c.1.66.16,1.32.2,2a25.21,25.21,0,0,1-.06,4,17.9,17.9,0,0,1-.87,3.9,17.57,17.57,0,0,1-1.73,3.64.4.4,0,0,1-.55.13.41.41,0,0,1-.12-.56h0Z"></path>
      <path class="cls-19" d="M58.34,70.09A12.92,12.92,0,0,0,60,68.16a15.73,15.73,0,0,0,1.28-2.08c.47-.89.89-1.86,1.46-3a38,38,0,0,0,1.93-4,.11.11,0,0,0,0,0,.7.7,0,0,1,.75-.51.5.5,0,0,1,.42.68c-.47,1.34-1.39,3.12-2,4.31s-1,2.22-1.42,3.2a18.6,18.6,0,0,1-1.29,2.31,11.35,11.35,0,0,1-1.79,2.2.79.79,0,0,1-1.11,0,.76.76,0,0,1,0-1.09l0,0Z"></path>
      <path class="cls-19" d="M61.06,81a34.31,34.31,0,0,0,5.51-4.78,19.33,19.33,0,0,0,2.22-2.83,13,13,0,0,0,.86-1.54l.34-.81.33-.88c1.79-4.71,3.71-9.34,5.65-14S80,47,81.89,42.38c.94-2.32,1.89-4.64,2.68-7,.11-.29.19-.58.27-.87s.16-.59.24-.9a16.9,16.9,0,0,1,.55-1.84c.21-.61.45-1.2.72-1.79a11.28,11.28,0,0,1,1-1.7.41.41,0,0,1,.67.47l0,0a11,11,0,0,0-.85,1.56,17.74,17.74,0,0,0-.66,1.71,18,18,0,0,0-.5,1.78c-.06.29-.13.6-.22.92s-.17.62-.27.92c-.76,2.42-1.67,4.76-2.58,7.1-1.81,4.68-3.77,9.32-5.67,13.94s-3.69,9.31-5.37,14l-.31.88-.38.94a15.43,15.43,0,0,1-.94,1.75,22,22,0,0,1-2.35,3.12,36.23,36.23,0,0,1-5.75,5.16A1,1,0,1,1,61,81h0Z"></path>
      <path class="cls-19" d="M79.87,48.35a17.93,17.93,0,0,0,3.19,0,21.74,21.74,0,0,0,3.19-.56c1-.26,2.06-.65,3.12-1A16.41,16.41,0,0,1,91,46.3a7.17,7.17,0,0,1,.83-.15,1.71,1.71,0,0,1,.45,0,.54.54,0,0,1,.25.09.29.29,0,0,1,.1.35,0,0,0,0,1,0,0h0l-.19-.12s0,0,0,0a.35.35,0,0,0-.13,0,1.67,1.67,0,0,0-.38,0,7.14,7.14,0,0,0-.77.18c-.52.16-1,.34-1.54.54-1,.4-2,.86-3.1,1.19a22.37,22.37,0,0,1-3.26.76,17.21,17.21,0,0,1-3.39.22.51.51,0,0,1,0-1h.06Z"></path>
      <path class="cls-19" d="M77.16,54.62a18.32,18.32,0,0,1-1.59-1.87c-.48-.65-.94-1.32-1.35-2a22.37,22.37,0,0,1-2-4.36.28.28,0,0,1,.17-.35.27.27,0,0,1,.34.15h0a21.37,21.37,0,0,0,1,2.1,19.89,19.89,0,0,0,1.23,2,21.41,21.41,0,0,0,1.42,1.84A17.7,17.7,0,0,0,78,53.75l0,0a.59.59,0,1,1-.78.88Z"></path>
      <path class="cls-19" d="M57.82,99.2c-.19-.78-.46-1.62-.74-2.41s-.6-1.61-.94-2.38A23,23,0,0,0,53.64,90a11.15,11.15,0,0,0-3.58-3.24A7.5,7.5,0,0,0,47.83,86a6.77,6.77,0,0,0-1.19-.13c-.4,0-.82,0-1.23,0a10,10,0,0,0-4.64,1.52A11.49,11.49,0,0,0,37.28,91a16.1,16.1,0,0,0-2,4.69,13.6,13.6,0,0,0-.4,2.53,8.77,8.77,0,0,0,0,1.26,2.83,2.83,0,0,0,.3,1.11l0,0a.35.35,0,0,1-.13.48.34.34,0,0,1-.47-.11,3.27,3.27,0,0,1-.49-1.4,9.38,9.38,0,0,1-.1-1.39,14.59,14.59,0,0,1,.28-2.72,16.44,16.44,0,0,1,1.91-5.12A12.85,12.85,0,0,1,40,86.23a11.32,11.32,0,0,1,2.51-1.31,12.06,12.06,0,0,1,2.76-.66c.47-.07.94-.07,1.41-.1a10.24,10.24,0,0,1,1.46.1,9.86,9.86,0,0,1,2.8.85,13.34,13.34,0,0,1,4.38,3.63,23.43,23.43,0,0,1,2.88,4.75c.38.83.73,1.68,1,2.54s.56,1.72.79,2.67a1.12,1.12,0,0,1-2.17.53Z"></path>
      <path class="cls-19" d="M57.56,113.76a7,7,0,0,0,.72-.25c.26-.11.51-.23.76-.36a10.83,10.83,0,0,0,1.42-.93,11.68,11.68,0,0,0,2.35-2.51,18.67,18.67,0,0,0,2.62-6.56A36.29,36.29,0,0,1,67.64,96a14.9,14.9,0,0,1,4.83-5.81l0,0a4.79,4.79,0,0,1,.77-.48c.25-.14.51-.26.77-.38.51-.22,1-.43,1.56-.6a30.31,30.31,0,0,1,3.2-.87c.54-.13,1.08-.21,1.62-.32L82,87.32l1.63-.21L85.27,87a.32.32,0,0,1,.35.29.31.31,0,0,1-.28.34h0l-1.61.2L82.11,88l-1.6.29c-.52.12-1.06.22-1.58.36a24.83,24.83,0,0,0-3.08.92,12,12,0,0,0-1.47.61,7.67,7.67,0,0,0-.7.36,4.46,4.46,0,0,0-.6.39l0,0a13.7,13.7,0,0,0-4.35,5.51,35.17,35.17,0,0,0-2,7,32.5,32.5,0,0,1-1,3.63,15.76,15.76,0,0,1-1.69,3.48,13.3,13.3,0,0,1-2.6,2.91,10.29,10.29,0,0,1-1.63,1.13,9.51,9.51,0,0,1-.9.46l-.47.19a5.66,5.66,0,0,1-.54.18.86.86,0,1,1-.43-1.67h.05Z"></path>
      <path class="cls-20" d="M46.18,53.62s-6.32-1.18-5.78,7.07a5.54,5.54,0,0,0,3.53,4.82s-1-2.25.79-3.11S48.75,57.05,46.18,53.62Z"></path>
      <path class="cls-20" d="M72.9,63.65S78.83,57.9,83.84,65C83.84,65,75.12,69.58,72.9,63.65Z"></path>
      <path class="cls-20" d="M65,61.45s6.57,2.74,2.68,9.74C67.69,71.19,59.76,67.1,65,61.45Z"></path>
      <path class="cls-20" d="M47.79,75.91S43,85.16,53.18,86.62c0,0,2.68-3.6-2-6.21C47.93,78.55,47.79,75.91,47.79,75.91Z"></path>
      <path class="cls-20" d="M61.58,91.66s1.79-8,5.5-8.57C67.08,83.09,68.12,94.41,61.58,91.66Z"></path>
      <path class="cls-20" d="M52.29,87.23s2.47,4.54-.78,10.86c0,0-3.4-2-3.26-4.82S48.79,87.48,52.29,87.23Z"></path>
      <path class="cls-20" d="M42.25,86S37.57,88.77,40,92.48a6.7,6.7,0,0,0,6,3.33s-1.25-2.72-.89-4S45.68,86.05,42.25,86Z"></path>
      <path class="cls-20" d="M44.47,85.23s2.25-2.64-2-4.21-5.43-2.61-5.78-3.25S32.57,87.84,44.47,85.23Z"></path>
      <path class="cls-20" d="M39.61,87.23s-2.61-3-6.47,0a5.34,5.34,0,0,0-1.71,6.83A22.93,22.93,0,0,1,37,90.66,3.78,3.78,0,0,0,39.61,87.23Z"></path>
      <path class="cls-20" d="M36.72,91.38s-.33,2,2.89,4.28a4.26,4.26,0,0,1,1.86,5.22s-6.25-1.47-6.72-3.47S33.21,93,36.72,91.38Z"></path>
      <path class="cls-20" d="M34.23,96.31s-7.87,3-1.87,9.71c0,0,2.43-3.89,2.39-5.86A18.63,18.63,0,0,0,34.23,96.31Z"></path>
      <path class="cls-20" d="M35.22,99.63s-3,15.18,8,12c0,0,3.07-5.82-4.2-8.86C39.05,102.77,37.06,102.55,35.22,99.63Z"></path>
      <path class="cls-20" d="M57.47,112.77s.43-3.39-3.93-3.32a2.13,2.13,0,0,1-2.82-1.75S50.11,117.49,57.47,112.77Z"></path>
      <path class="cls-20" d="M83.23,87.23s1.43-5.54,4.64-5.71,5.93-.36,6.15,6.53c0,0-3.4-3.46-6.58-1.1S83.23,87.23,83.23,87.23Z"></path>
      <path class="cls-20" d="M86.48,86.84s-3.43,6.43,4.18,10.64C90.66,97.48,93.91,88.7,86.48,86.84Z"></path>
      <path class="cls-20" d="M84.91,98.52a11.6,11.6,0,0,1-2.07-6.36c-.21-3.21-2.36-3.75-3.58-3.79a4.2,4.2,0,0,0-.82,0S74.19,99.52,84.91,98.52Z"></path>
      <path class="cls-20" d="M79.48,87.59s2.11-6.4-6.68-5.36c0,0-5.54,1.89-3.86,7a2.26,2.26,0,0,1,3.25-1.13A9,9,0,0,0,79.48,87.59Z"></path>
      <path class="cls-20" d="M71.83,91.23s6.18-.91,4.43,7.35c0,0-1.61-2.54-2.82-2.76S72.58,91.59,71.83,91.23Z"></path>
      <path class="cls-20" d="M67.58,96.45s-3.36,8.5,7.9,7.29a6.37,6.37,0,0,1-3.11-4.11A4.32,4.32,0,0,0,67.58,96.45Z"></path>
      <path class="cls-20" d="M64.69,108.92s4.39-1.68,4.36,4.32,1.1,5.5,1.1,5.5S61.4,118.63,64.69,108.92Z"></path>
      <path class="cls-18" d="M64.64,59.94c.18-.18-2-3.47-3-4.65s-1.74-4.5-1.74-4.5-1.55.32-1.15,6.11S61.63,62.89,64.64,59.94Z"></path>
      <path class="cls-18" d="M76.34,57.15s1.07-3.86,6.89-1.61c0,0-.13,1.06,2.79-.7C86,54.84,83.14,66.15,76.34,57.15Z"></path>
      <path class="cls-18" d="M65.42,58.65s4.16-1.5,2.73-5.68A6.67,6.67,0,0,1,69,46.44s3.94,2.29,4.09,6.28c.13,3.51-.59,8.14-5.25,8.18a2.45,2.45,0,0,1-2.38-2C65.47,58.85,65.45,58.75,65.42,58.65Z"></path>
      <path class="cls-18" d="M87.12,47.51s6.75-9.43,9.65-.43a21.27,21.27,0,0,0-4.18,1C91.52,48.58,91.2,49.76,87.12,47.51Z"></path>
      <path class="cls-18" d="M84.78,36.39s7.7,4.27,9.2-4a40.9,40.9,0,0,1-5.57.32C86.66,32.57,84.68,34.81,84.78,36.39Z"></path>
      <path class="cls-18" d="M85.51,32.72s-3-7.93,7.61-6.22a22.8,22.8,0,0,0-2.57,4C90.23,31.54,88.84,32.4,85.51,32.72Z"></path>
      <path class="cls-18" d="M70.4,38.57S67.3,44.51,73.19,48C73.19,48,76,42.22,70.4,38.57Z"></path>
      <path class="cls-18" d="M57.47,28.87s6,5.4,4.65,7.87a11.73,11.73,0,0,1-3.54-1.18C57.51,34.81,55.28,31.71,57.47,28.87Z"></path>
      <path class="cls-18" d="M53.47,44.89s1.43,10.87-5.93,9.37c0,0-2.21-5.63,1.86-7.5S52.4,46.23,53.47,44.89Z"></path>
      <path id="_1" data-name="1" class="cls-18" d="M46.69,26.59S41.12,32,47.76,36.65a6.34,6.34,0,0,0,0-7.44C46.25,26.82,46.69,26.59,46.69,26.59Z"></path>
      <path class="cls-18" d="M48.12,41.26s-5.14.86-5.57-7A25.15,25.15,0,0,0,46,37.19,3.88,3.88,0,0,1,48.12,41.26Z"></path>
      <path class="cls-18" d="M44.59,46.08s-.54-3-5.57-1.6-3.75-.21-4.5-.37S38.05,55,44.59,46.08Z"></path>
      <path class="cls-18" d="M42,41.62s-1.87-5.81-8.21-2.21C33.81,39.41,39.18,46.33,42,41.62Z"></path>
      <path class="cls-8" d="M60.94,134.77a1.27,1.27,0,0,0-1.2-.44c-.66.21-.93.74-.81.92a1.79,1.79,0,0,0,.24.26c.17.16.52-.3.54-.31Z"></path>
      <path class="cls-21" d="M61.28,135.58s-.2-.91-.55-.92-.72-.06-.72-.06l-.1.16s.34.6.48.64.39.11.45.14S61.28,135.58,61.28,135.58Z"></path>
      <path class="cls-10" d="M61.26,135.69c0-.08.08-.29-.13-.35a2.37,2.37,0,0,0-.45-.09s-.54.41-.65.47-.17.06.14.15.31.18.6.14A.88.88,0,0,0,61.26,135.69Z"></path>
      <path class="cls-11" d="M60.68,135.25a3.21,3.21,0,0,0-.39.39c-.16.18-.19.24-.38.14s-.69-.16-.82-.35-.12-.17,0-.4a1,1,0,0,1,.64-.39.55.55,0,0,1,.63.14A1.33,1.33,0,0,1,60.68,135.25Z"></path>
      <path class="cls-8" d="M43.93,128.6a1.84,1.84,0,0,0-1.86-.27c-.89.5-1.1,1.33-.88,1.57a4.45,4.45,0,0,0,.43.29c.29.18.65-.59.67-.6Z"></path>
      <path class="cls-21" d="M44.67,129.64s-.57-1.24-1.07-1.15-1.06.13-1.06.13l-.09.27s.67.75.88.77.6,0,.69.06A4.6,4.6,0,0,0,44.67,129.64Z"></path>
      <path class="cls-10" d="M44.67,129.81c0-.12,0-.44-.3-.46a4.17,4.17,0,0,0-.66,0s-.65.75-.79.88-.24.14.24.17.5.16.9,0A1.24,1.24,0,0,0,44.67,129.81Z"></path>
      <path class="cls-11" d="M43.71,129.35a5.67,5.67,0,0,0-.45.68c-.17.32-.2.41-.5.33s-1,0-1.28-.26-.23-.21-.07-.58a1.47,1.47,0,0,1,.79-.76.84.84,0,0,1,1,0A2.07,2.07,0,0,1,43.71,129.35Z"></path>
      <path class="cls-8" d="M55.94,126.14s-3.83-1.91-6.5.42-2.81,5.33-1.89,6a14,14,0,0,0,1.67.67c1.11.4,1.79-2.47,1.86-2.51S55.94,126.14,55.94,126.14Z"></path>
      <path class="cls-21" d="M59.21,129.16s-2.84-3.8-4.46-3.14-3.51,1.21-3.51,1.21l-.1,1s2.79,2.08,3.53,2,2.07-.31,2.4-.31A16.2,16.2,0,0,0,59.21,129.16Z"></path>
      <path class="cls-10" d="M59.32,129.74c0-.42-.19-1.51-1.34-1.36a16.68,16.68,0,0,0-2.25.48s-1.68,3-2,3.56-.71.64,1,.42,1.8.18,3.06-.58A4.29,4.29,0,0,0,59.32,129.74Z"></path>
      <path class="cls-11" d="M55.73,128.86a20.32,20.32,0,0,0-1,2.64c-.34,1.21-.36,1.54-1.45,1.48s-3.56.65-4.54,0-.94-.53-.67-1.93.92-2.06,2.18-3.14a2.83,2.83,0,0,1,3.24-.68A7.36,7.36,0,0,1,55.73,128.86Z"></path>
      <path class="cls-8" d="M70.67,127.36s-2.2-3-5.2-2.26-4.29,3-3.84,3.88a13.78,13.78,0,0,0,1,1.18c.7.76,2.37-1.2,2.44-1.21S70.67,127.36,70.67,127.36Z"></path>
      <path class="cls-21" d="M72,131s-.68-4.07-2.2-4.2-3.2-.46-3.2-.46l-.46.7s1.33,2.72,1.93,3,1.72.59,2,.72A15.4,15.4,0,0,0,72,131Z"></path>
      <path class="cls-10" d="M71.86,131.49c.14-.34.45-1.24-.5-1.58a14.58,14.58,0,0,0-1.93-.53s-2.51,1.69-3,2-.81.21.56.7,1.33.85,2.6.76A3.77,3.77,0,0,0,71.86,131.49Z"></path>
      <path class="cls-11" d="M69.43,129.38A17.14,17.14,0,0,0,67.57,131c-.75.8-.9,1.05-1.72.57s-3-.91-3.52-1.79-.52-.78.25-1.76a4.46,4.46,0,0,1,2.93-1.56,2.49,2.49,0,0,1,2.78.76A6.45,6.45,0,0,1,69.43,129.38Z"></path>
      <path class="cls-8" d="M60.42,128.92s-3.17-2.45-6-.79-3.54,4.38-2.81,5.14a11.29,11.29,0,0,0,1.41.91c.94.58,2.09-1.94,2.16-2S60.42,128.92,60.42,128.92Z"></path>
      <path class="cls-21" d="M62.87,132.28s-1.92-4-3.52-3.68-3.44.47-3.44.47l-.27.86s2.19,2.41,2.88,2.49,1.95.09,2.25.15A16.38,16.38,0,0,0,62.87,132.28Z"></path>
      <path class="cls-10" d="M62.87,132.83c0-.39.09-1.42-1-1.49a15.65,15.65,0,0,0-2.15,0s-2.08,2.49-2.52,2.9-.77.46.79.56,1.62.48,2.91,0A4,4,0,0,0,62.87,132.83Z"></path>
      <path class="cls-11" d="M59.73,131.37a18.56,18.56,0,0,0-1.44,2.24c-.53,1-.61,1.34-1.6,1.09s-3.38,0-4.17-.8-.76-.65-.26-1.88a4.8,4.8,0,0,1,2.56-2.49,2.66,2.66,0,0,1,3.1,0A6.87,6.87,0,0,1,59.73,131.37Z"></path>
      <path class="cls-8" d="M76.9,134.47a1.92,1.92,0,0,0,1.76-.87c.47-1,.16-1.8-.17-1.88a5.19,5.19,0,0,0-.54,0c-.35,0-.21.89-.23.91Z"></path>
      <path class="cls-21" d="M75.64,134s1.23.73,1.6.35.84-.74.84-.74l-.08-.28a4,4,0,0,0-1.22-.15c-.19.11-.54.33-.63.37A4.13,4.13,0,0,0,75.64,134Z"></path>
      <path class="cls-10" d="M75.55,133.86c.06.11.22.4.52.22a4.38,4.38,0,0,0,.58-.39s.11-1,.15-1.23.13-.26-.31,0-.52.16-.78.51A1.31,1.31,0,0,0,75.55,133.86Z"></path>
      <path class="cls-11" d="M76.65,133.69a6.89,6.89,0,0,0,0-.85c0-.38-.08-.47.23-.58s.92-.59,1.26-.53.32,0,.41.45a1.6,1.6,0,0,1-.24,1.13.86.86,0,0,1-.82.56A2.22,2.22,0,0,1,76.65,133.69Z"></path>
      <path class="cls-8" d="M34.69,136.67a1.92,1.92,0,0,0,1.76-.87c.47-1,.16-1.8-.17-1.87a4.8,4.8,0,0,0-.54,0c-.35,0-.21.9-.23.91Z"></path>
      <path class="cls-21" d="M33.43,136.21s1.23.73,1.6.36a10.73,10.73,0,0,1,.84-.74l-.08-.28a4,4,0,0,0-1.22-.16c-.19.11-.54.33-.63.37A5.17,5.17,0,0,0,33.43,136.21Z"></path>
      <path class="cls-10" d="M33.34,136.06c.06.12.22.4.53.23a5.56,5.56,0,0,0,.57-.4s.11-1,.15-1.22.13-.26-.31,0-.52.16-.78.51A1.31,1.31,0,0,0,33.34,136.06Z"></path>
      <path class="cls-11" d="M34.44,135.89a6.89,6.89,0,0,0,0-.85c0-.38-.08-.47.23-.58s.92-.59,1.26-.53.32,0,.41.46a1.58,1.58,0,0,1-.24,1.12.86.86,0,0,1-.82.56A2.28,2.28,0,0,1,34.44,135.89Z"></path>
      <path class="cls-8" d="M46.75,135.15a2.43,2.43,0,0,0,2.31-1c.69-1.18.37-2.28-.05-2.4a3.4,3.4,0,0,0-.69,0c-.45,0-.35,1.11-.36,1.14S46.75,135.15,46.75,135.15Z"></path>
      <path class="cls-21" d="M45.19,134.45s1.5,1,2,.6,1.13-.87,1.13-.87l-.08-.37a4.83,4.83,0,0,0-1.53-.29c-.26.11-.71.36-.83.4A6,6,0,0,0,45.19,134.45Z"></path>
      <path class="cls-10" d="M45.08,134.26a.47.47,0,0,0,.65.33,7,7,0,0,0,.76-.45s.24-1.32.31-1.55.18-.32-.4,0-.67.16-1,.59A1.68,1.68,0,0,0,45.08,134.26Z"></path>
      <path class="cls-11" d="M46.49,134.14a7.66,7.66,0,0,0,.06-1.09c0-.48-.06-.61.35-.72s1.21-.67,1.64-.57.41.08.48.62a2,2,0,0,1-.4,1.41,1.11,1.11,0,0,1-1.1.65A3,3,0,0,1,46.49,134.14Z"></path>
      <path class="cls-8" d="M55.55,133.44a1.57,1.57,0,0,1,1.43-.22c.7.32.88.89.72,1.06l-.33.2c-.22.13-.52-.39-.53-.39Z"></path>
      <path class="cls-21" d="M55,134.17s.41-.86.8-.81a7.22,7.22,0,0,0,.82.07l.07.18s-.49.53-.66.55l-.53.05C55.43,134.22,55,134.17,55,134.17Z"></path>
      <path class="cls-10" d="M55,134.28a.25.25,0,0,1,.22-.32,5.17,5.17,0,0,1,.52,0l.62.59c.11.08.19.08-.18.12s-.38.12-.69,0A1,1,0,0,1,55,134.28Z"></path>
      <path class="cls-11" d="M55.74,134a4,4,0,0,1,.36.46c.14.21.16.27.39.21s.81,0,1-.2.17-.15,0-.4-.31-.35-.64-.5a.7.7,0,0,0-.73,0A1.45,1.45,0,0,0,55.74,134Z"></path>
      <path class="cls-8" d="M68.47,129.81s-3-2.2-5.61-.62-3.18,4.12-2.5,4.81a10.74,10.74,0,0,0,1.33.82c.88.51,1.89-1.83,2-1.86S68.47,129.81,68.47,129.81Z"></path>
      <path class="cls-21" d="M70.8,132.87s-1.85-3.67-3.33-3.34-3.17.5-3.17.5l-.24.81s2.08,2.19,2.72,2.24,1.8,0,2.08.1A15.23,15.23,0,0,0,70.8,132.87Z"></path>
      <path class="cls-10" d="M70.81,133.38c0-.37.06-1.32-.94-1.36a15.12,15.12,0,0,0-2,.07s-1.88,2.34-2.28,2.73-.7.44.75.5,1.5.42,2.69,0A3.72,3.72,0,0,0,70.81,133.38Z"></path>
      <path class="cls-11" d="M67.88,132.09a17.37,17.37,0,0,0-1.29,2.1c-.47,1-.54,1.25-1.46,1s-3.13,0-3.87-.66-.72-.59-.28-1.74a4.42,4.42,0,0,1,2.32-2.35,2.48,2.48,0,0,1,2.87-.1A6.49,6.49,0,0,1,67.88,132.09Z"></path>
      <path class="cls-8" d="M52.59,133.25s-2.44-.45-3.55,1.28-.69,3.42-.08,3.63a10.21,10.21,0,0,0,1,.1c.68.05.59-1.66.62-1.7S52.59,133.25,52.59,133.25Z"></path>
      <path class="cls-21" d="M54.89,134.4s-2.19-1.66-3-1a19.85,19.85,0,0,1-1.76,1.24l.1.55a7.38,7.38,0,0,0,2.29.55c.4-.15,1.1-.5,1.28-.56A9,9,0,0,0,54.89,134.4Z"></path>
      <path class="cls-10" d="M55.05,134.7c-.09-.23-.36-.81-1-.54a9.84,9.84,0,0,0-1.17.63s-.44,2-.56,2.31-.3.47.59.08,1-.19,1.61-.82A2.52,2.52,0,0,0,55.05,134.7Z"></path>
      <path class="cls-11" d="M52.91,134.79a11.39,11.39,0,0,0-.16,1.64c0,.72,0,.91-.57,1.06s-1.87.93-2.51.74-.61-.14-.68-1a2.87,2.87,0,0,1,.7-2.09,1.65,1.65,0,0,1,1.69-.91A4.28,4.28,0,0,1,52.91,134.79Z"></path>
    </g>
  </g>
</svg>
