<?xml version="1.0" encoding="UTF-8"?>
<svg xmlns="http://www.w3.org/2000/svg" xmlns:xlink="http://www.w3.org/1999/xlink" viewBox="0 0 168.43 338.24">
  <defs>
    <style>.cls-1,.cls-15,.cls-20{fill:none;}.cls-2{fill:#8e6848;}.cls-3{clip-path:url(#clip-path);}.cls-4{fill:url(#Безымянный_градиент_2);}.cls-5{fill:#713e21;}.cls-6{fill:#3d271f;}.cls-7{fill:#69391e;}.cls-8{fill:#6b472f;}.cls-9{fill:#5c3624;}.cls-10{fill:#795135;}.cls-11{fill:#9a734f;}.cls-12{fill:#cacac9;}.cls-13{fill:#85563a;}.cls-14{fill:#769b57;}.cls-15,.cls-20{stroke:#79a05b;stroke-miterlimit:10;}.cls-15{stroke-width:0.65px;}.cls-16{fill:#486f3a;}.cls-17{fill:#79a05b;}.cls-18{fill:#9cca64;}.cls-19{fill:#b0dc72;}.cls-20{stroke-width:0.49px;}.cls-21{fill:#eaca57;}.cls-22{fill:#6b482f;}</style>
    <clipPath id="clip-path">
      <polygon class="cls-1" points="35.83 309.56 85.8 333.08 132.02 309.68 83.96 289.32 35.83 309.56"></polygon>
    </clipPath>
    <linearGradient id="Безымянный_градиент_2" x1="-2812.59" y1="-965.68" x2="-2809.79" y2="-965.68" gradientTransform="matrix(34.36, 0, 0, -34.36, 96654.39, -32865.88)" gradientUnits="userSpaceOnUse">
      <stop offset="0" stop-color="#9b714e"></stop>
      <stop offset="0.38" stop-color="#9b714e"></stop>
      <stop offset="0.89" stop-color="#764528"></stop>
      <stop offset="1" stop-color="#6e3c20"></stop>
    </linearGradient>
  </defs>
  <g id="Слой_2" data-name="Слой 2">
    <g id="Слой_1-2" data-name="Слой 1">
      <path class="cls-2" d="M85.8,266.93s9.62,11.3,17,11.76,32.82-7.56,32.82-7.56l2.55-26.43L85.8,226.2Z"></path>
      <path class="cls-2" d="M28.1,242.82l5.23,34.48s18.58,2.78,21.83,1.86,18.12-6.51,22.3-6.51,8.33-5.72,8.33-5.72V226.2Z"></path>
      <g class="cls-3">
        <rect class="cls-4" x="59.49" y="262" width="48.87" height="98.4" transform="translate(-231.33 378.29) rotate(-86.92)"></rect>
      </g>
      <path class="cls-5" d="M35.83,309.56l-2.5-32.26s23.69-.47,30.2-3.72,22.27-6.66,22.27-6.66L84,289.32Z"></path>
      <path class="cls-6" d="M69.6,279.3a8.66,8.66,0,0,0-2.84-1.67v0S63,276.48,60.92,279s-1.7,5.29-.76,5.73a10.64,10.64,0,0,0,1.62.34l.1,0a27.61,27.61,0,0,0,3.5-.8,1.86,1.86,0,0,0,.61-.15l.65-.2c1.48-.45,1.66-.12,2.69-1a4,4,0,0,0,1.08-2.55l-.2-.5h0l0,0a1,1,0,0,0-.58-.5"></path>
      <path class="cls-6" d="M49.31,282.63a10.78,10.78,0,0,0-4,1.33v0s-4.31,2.7-3.59,6.85,3.65,6.13,4.87,5.6a15.58,15.58,0,0,0,1.72-1.28l0-.13c.92-1.06,1.6-3.16,2.21-4.06a2.27,2.27,0,0,0,.36-.72c.1-.2.21-.42.37-.79.81-1.81,1.28-1.71,1.29-3.45A5.09,5.09,0,0,0,51,282.73a3.24,3.24,0,0,0-.65-.22v0h-.07a1.26,1.26,0,0,0-1,.14"></path>
      <path class="cls-7" d="M85.8,266.93,84,289.32,132,309.68l3.65-38.55s-15-1.73-21.49-.8S96.35,274,92.94,272.19a45.29,45.29,0,0,1-7.14-5.26"></path>
      <path class="cls-6" d="M67.49,289.93a3.29,3.29,0,0,0-1.25-.31h0a2.32,2.32,0,0,0-2,1.19c-.49,1.18,0,2.17.36,2.23l.65,0,0,0a10,10,0,0,0,1.23-.69l.2-.13.23-.14c.5-.34.61-.23.89-.68a1.52,1.52,0,0,0,.12-1.08l-.13-.16h0Z"></path>
      <path class="cls-6" d="M114.58,280.29a2.5,2.5,0,0,0-.11-.89h0s-.38-1-1.27-1-1.43.5-1.37.78l.2.41h0l.75.63.14.1.15.11c.34.25.3.34.66.42a1.1,1.1,0,0,0,.73-.19l.08-.13h0Z"></path>
      <path class="cls-6" d="M128,296.47a11,11,0,0,0-1.91-3.81h0s-3.31-3.91-7.35-2.6-5.59,4.54-4.89,5.68a13.64,13.64,0,0,0,1.53,1.53h.13c1.19.77,3.39,1.14,4.37,1.62a2.56,2.56,0,0,0,.77.26l.84.25c1.94.55,1.9,1,3.64.79a5.14,5.14,0,0,0,3-2,3.22,3.22,0,0,0,.12-.69h0v-.07a1.31,1.31,0,0,0-.28-1"></path>
      <path class="cls-6" d="M101.88,283.19a8.19,8.19,0,0,0-1.86,2.69l0,0s-1.4,3.66,1,5.9,5.1,2.08,5.61,1.19a11,11,0,0,0,.46-1.59l0-.1a27.58,27.58,0,0,0-.52-3.53,1.75,1.75,0,0,0-.11-.61c0-.17-.07-.36-.14-.66-.34-1.5,0-1.66-.81-2.74a3.92,3.92,0,0,0-2.44-1.26l-.51.17v0l0,0a1,1,0,0,0-.54.54"></path>
      <path class="cls-8" d="M102.06,310.57a1.59,1.59,0,0,0,1.57-.42c.54-.7.43-1.43.18-1.54l-.44-.09c-.3,0-.32.69-.34.71Z"></path>
      <path class="cls-9" d="M101.12,310s.88.79,1.24.55a8.71,8.71,0,0,1,.8-.46l0-.24-1-.32-.57.19Z"></path>
      <path class="cls-10" d="M101.07,309.85c0,.1.12.36.39.27a3.87,3.87,0,0,0,.53-.23l.32-1c.07-.15.15-.19-.25-.06s-.45,0-.71.29a1,1,0,0,0-.28.69"></path>
      <path class="cls-11" d="M102,309.89a5.25,5.25,0,0,0,.13-.69c0-.31,0-.39.28-.43s.84-.33,1.1-.23.26.09.26.44a1.23,1.23,0,0,1-.38.87.71.71,0,0,1-.76.33,1.73,1.73,0,0,1-.63-.29"></path>
      <path class="cls-8" d="M91.38,304.44s2.39.13,3.25-1.67.25-3.36-.36-3.49a7.85,7.85,0,0,0-1,0c-.65,0-.36,1.66-.39,1.69Z"></path>
      <path class="cls-9" d="M89,303.62s2.3,1.32,3,.61,1.53-1.4,1.53-1.4l-.16-.52a7.22,7.22,0,0,0-2.26-.24c-.37.2-1,.62-1.16.69Z"></path>
      <path class="cls-10" d="M88.84,303.35c.12.2.44.73,1,.4a11.1,11.1,0,0,0,1-.75s.18-1.94.25-2.29.23-.49-.58,0-1,.31-1.44,1a2.47,2.47,0,0,0-.28,1.66"></path>
      <path class="cls-11" d="M90.88,303a9.65,9.65,0,0,0,0-1.59c-.09-.7-.15-.88.42-1.09s1.68-1.12,2.33-1,.6.06.77.84a2.89,2.89,0,0,1-.42,2.1,1.6,1.6,0,0,1-1.51,1.07,4.2,4.2,0,0,1-1.54-.31"></path>
      <path class="cls-8" d="M81.42,312.21s1.87,1.42,3.54.43,2.05-2.58,1.62-3a6.8,6.8,0,0,0-.83-.53c-.55-.33-1.22,1.15-1.25,1.16Z"></path>
      <path class="cls-9" d="M80,310.26s1.14,2.33,2.08,2.13,2-.29,2-.29l.15-.51s-1.29-1.4-1.69-1.44-1.15,0-1.32-.07Z"></path>
      <path class="cls-10" d="M80,309.93c0,.23,0,.84.58.87a8.3,8.3,0,0,0,1.26,0l1.46-1.71c.25-.24.45-.27-.46-.32s-1-.27-1.71,0A2.4,2.4,0,0,0,80,309.93"></path>
      <path class="cls-11" d="M81.81,310.77a9.82,9.82,0,0,0,.83-1.31c.31-.62.35-.79.93-.65s2,0,2.44.44.46.38.17,1.11a2.77,2.77,0,0,1-1.49,1.46,1.54,1.54,0,0,1-1.81,0,3.92,3.92,0,0,1-1.07-1.09"></path>
      <path class="cls-8" d="M77.13,305.77a2.65,2.65,0,0,0,.09-2.73c-.86-1.2-2.1-1.39-2.41-1l-.35.67c-.21.44,1,.85,1,.88Z"></path>
      <path class="cls-9" d="M75.73,307s1.71-1,1.5-1.73-.36-1.51-.36-1.51l-.4-.09s-1,1.08-1,1.4,0,.87,0,1Z"></path>
      <path class="cls-10" d="M75.49,307c.18,0,.64,0,.62-.5a6.74,6.74,0,0,0-.1-1l-1.4-1c-.21-.17-.24-.32-.22.38s-.15.74.12,1.3a1.8,1.8,0,0,0,1,.78"></path>
      <path class="cls-11" d="M76,305.57a7.51,7.51,0,0,0-1-.54c-.49-.2-.63-.22-.56-.67s-.12-1.51.18-1.89.26-.37.83-.2a2.12,2.12,0,0,1,1.22,1,1.2,1.2,0,0,1,.15,1.38,3.12,3.12,0,0,1-.77.89"></path>
      <path class="cls-8" d="M68.66,307.79a1.17,1.17,0,0,0,.39-1.12c-.2-.61-.69-.85-.87-.74l-.23.23.29.49Z"></path>
      <path class="cls-9" d="M67.93,308.12s.83-.21.83-.52,0-.68,0-.68l-.15-.08-.59.44-.12.43Z"></path>
      <path class="cls-10" d="M67.82,308.1l.32-.13.08-.41-.45-.59c-.06-.1-.06-.17-.14.13s-.15.28-.11.55a.76.76,0,0,0,.3.45"></path>
      <path class="cls-11" d="M68.22,307.56l-.37-.36-.14-.35.31-.76.37,0a.91.91,0,0,1,.37.59.51.51,0,0,1-.11.59Z"></path>
      <path class="cls-8" d="M66.06,312.46s1.64-2.64.14-4.73S62.54,305.34,62,306a8.35,8.35,0,0,0-.59,1.17c-.37.77,1.66,1.46,1.68,1.51Z"></path>
      <path class="cls-9" d="M63.66,314.61s2.94-1.79,2.57-3-.64-2.62-.64-2.62l-.69-.14s-1.69,1.87-1.69,2.41.08,1.52.06,1.75Z"></path>
      <path class="cls-10" d="M63.24,314.65c.3,0,1.1,0,1.07-.87a12.17,12.17,0,0,0-.19-1.66S62,310.7,61.68,310.4s-.41-.56-.37.66-.24,1.28.22,2.24a3.12,3.12,0,0,0,1.71,1.35"></path>
      <path class="cls-11" d="M64.11,312.12a14,14,0,0,0-1.83-.94c-.85-.33-1.09-.36-1-1.15s-.23-2.61.28-3.28.45-.64,1.44-.35a3.68,3.68,0,0,1,2.12,1.79,2.07,2.07,0,0,1,.28,2.38,5.3,5.3,0,0,1-1.32,1.55"></path>
      <path class="cls-12" d="M82.67,261.09c-4.12,4.76-11.32,9.92-8.39,17.15.36.88,1.79.49,1.43-.39-2.69-6.65,4.25-11.37,8-15.71.62-.72-.42-1.77-1-1.05Z"></path>
      <path class="cls-12" d="M85,265.2c-4.42,2.65-9.73,3.24-14.12,5.91-4.22,2.57-5.79,6.76-7.08,11.32a.74.74,0,0,0,1.43.4c1.7-6.05,4.22-10,10.28-12.22,3.48-1.3,7-2.2,10.24-4.13A.74.74,0,0,0,85,265.2Z"></path>
      <path class="cls-12" d="M83.78,267.8c-2,4.45-4,8.89-6,13.37-1.33,3.07-2.3,5.87-1.84,9.24.13.94,1.56.54,1.43-.39-.63-4.53,1.91-8.61,3.68-12.56l4-8.92c.38-.86-.89-1.61-1.28-.74Z"></path>
      <path class="cls-12" d="M83,270.94c-.72,3.42-1.54,6.2-4.31,8.53-1.89,1.58-3.92,2.62-5.56,4.5a18.36,18.36,0,0,0-4.27,10.14c-.11.95,1.37.94,1.48,0,.78-6.6,4.52-9.61,9.37-13.47,3-2.4,4-5.64,4.71-9.3.2-.93-1.23-1.33-1.42-.4Z"></path>
      <path class="cls-12" d="M78.89,279.5c-5.18,3-10.4,5.94-15.53,9-3.31,2-5.6,4.16-7.06,7.76l1.45.2.09-1.25c.07-1-1.41-1-1.48,0l-.09,1.25c-.06.9,1.17.91,1.46.2,2-4.9,6.38-6.89,10.67-9.37l11.23-6.52a.74.74,0,0,0-.74-1.28Z"></path>
      <path class="cls-12" d="M68.78,285.07c-2.87.68-7.26-.81-9.17,2.31-2.06,3.38,2.24,7.83.1,11.08a.74.74,0,0,0,.12.89l.09.12a.71.71,0,0,0,.72.19l.17-.05a.75.75,0,0,0,.33-1.24l0,0c-.73-.61-1.78.43-1.05,1.05l.05,0,.33-1.24.45.13.12.89c1.27-1.92.48-5,0-7.09-.26-1.16-.53-3.32.19-4.35.6-.86,2.22-.95,3.17-1a25.16,25.16,0,0,0,4.83-.26c.92-.22.53-1.65-.4-1.43Z"></path>
      <path class="cls-12" d="M61.82,284.73a22,22,0,0,0-8.54-1.36c-1,0-1,1.52,0,1.48a20.72,20.72,0,0,1,8.14,1.31c.9.33,1.28-1.1.4-1.43Z"></path>
      <path class="cls-12" d="M58.54,289.2c-1.88,2.62-5.83,6.37-4.12,9.89.41.85,1.69.1,1.28-.75-.8-1.64.5-3.33,1.41-4.61s1.81-2.52,2.71-3.78c.56-.78-.73-1.52-1.28-.75Z"></path>
      <path class="cls-12" d="M84.4,269.14a8.76,8.76,0,0,1-1.67,7.79c-1,1.21-2.31,2-3.2,3.27-1.74,2.48-1.55,5.62-1.32,8.49l.94-.72-1.24-.26c-.93-.2-1.33,1.23-.4,1.43l1.25.26a.75.75,0,0,0,.93-.71c-.19-2.36-.48-5.17.79-7.29,1-1.62,2.76-2.53,3.86-4.06a10.4,10.4,0,0,0,1.48-8.6c-.21-.92-1.64-.53-1.42.4Z"></path>
      <path class="cls-12" d="M85,278c0,4.13-.13,8.17-1.62,12.08-1.1,2.88-2.42,5.39-2.47,8.54a.74.74,0,0,0,1.48,0c.06-3.89,2.3-7,3.25-10.67a40,40,0,0,0,.84-9.95A.74.74,0,0,0,85,278Z"></path>
      <path class="cls-12" d="M70,312.36c2.55-6.86,7.11-10.86,12.75-15.22,4.21-3.26,7-6.74,8.06-12.06.18-.93-1.25-1.33-1.43-.39-1.49,7.8-7.46,10.56-12.88,15.38A29.26,29.26,0,0,0,68.61,312c-.33.9,1.1,1.28,1.43.4Z"></path>
      <path class="cls-12" d="M66.9,307.83l.33-3.52c.16-1.67-.09-3.39,1.87-4a20.42,20.42,0,0,1,3.91-.3l4.34-.33c1-.08,1-1.56,0-1.48l-6.95.53c-1.07.08-2.6-.06-3.5.67a3,3,0,0,0-.89,2.13c-.29,2.07-.39,4.18-.59,6.26-.09.95,1.39.94,1.48,0Z"></path>
      <path class="cls-12" d="M64.06,306a13.24,13.24,0,0,0,3.26-4.27c.4-.85-.87-1.61-1.28-.75a12.18,12.18,0,0,1-3,4c-.72.62.33,1.66,1.05,1Z"></path>
      <path class="cls-12" d="M67.27,316.29c5.19.78,13,3.38,16.63-1.94,1.85-2.7,1.95-6.3,2.48-9.41A78.48,78.48,0,0,1,91,289.05c.36-.88-1.07-1.26-1.42-.39a89.93,89.93,0,0,0-5.06,19c-.7,4.18-2,7.62-6.81,8.44-3,.51-7-.77-10-1.23-.93-.14-1.33,1.29-.39,1.43Z"></path>
      <path class="cls-12" d="M79,311.56a79.08,79.08,0,0,1,7.65-9.3c.66-.68-.39-1.73-1-1a80.6,80.6,0,0,0-7.88,9.6c-.55.78.73,1.52,1.28.74Z"></path>
      <path class="cls-12" d="M70.76,322.92a4.69,4.69,0,0,1,3.33-6.07c.93-.21.53-1.64-.39-1.43a6.16,6.16,0,0,0-4.36,7.89c.31.9,1.74.51,1.42-.39Z"></path>
      <path class="cls-12" d="M78.31,327.47c1.54-4.35,4.54-7.19,6.49-11.18S86.86,308,88.68,304c.39-.86-.88-1.61-1.28-.75-2.24,4.88-2.6,10.24-5.62,14.7a39.51,39.51,0,0,0-4.9,9.12c-.32.9,1.11,1.29,1.43.39Z"></path>
      <path class="cls-12" d="M84.29,263.13a8.78,8.78,0,0,0,10,8.25c.94-.15.54-1.58-.39-1.43a7.28,7.28,0,0,1-8.17-6.82c0-.95-1.51-1-1.48,0Z"></path>
      <path class="cls-12" d="M85.09,269.6c1.78,3.92,6.7,4.21,10.45,5.06,6.61,1.48,13.09,3,19,6.52a.74.74,0,0,0,.75-1.28,47.33,47.33,0,0,0-12.65-5.12c-4.25-1.11-14.17-1.38-16.23-5.92-.39-.87-1.67-.12-1.28.74Z"></path>
      <path class="cls-12" d="M90.78,274c2.17,1.42,4.49,1.56,7,1.85,4.36.51,7.21,2.84,10.22,5.87.67.68,1.72-.37,1-1.05-2.08-2.1-4.26-4.3-7.06-5.41-3.41-1.35-7.28-.48-10.44-2.54-.8-.52-1.55.76-.75,1.28Z"></path>
      <path class="cls-12" d="M101,276.5a12.91,12.91,0,0,0,8.58,12.56c.89.32,1.28-1.11.39-1.43a11.42,11.42,0,0,1-7.49-11.13.74.74,0,0,0-1.48,0Z"></path>
      <path class="cls-12" d="M90.05,275.57c6,6.38,10.37,17.73,20.92,16.8.94-.09,1-1.57,0-1.48-10,.88-14.13-10.28-19.88-16.37-.65-.69-1.7.36-1,1.05Z"></path>
      <path class="cls-12" d="M89.52,278.77c6.66,4.14,13.46,9.69,21.27,11.35.93.19,1.33-1.23.39-1.43-7.58-1.61-14.44-7.17-20.91-11.2-.81-.51-1.55.77-.75,1.28Z"></path>
      <path class="cls-12" d="M88.22,279.55c.18,3.45,1.27,6.42,2.38,9.65a44.26,44.26,0,0,1,2.46,12.89c0,1,1.52,1,1.48,0A42.66,42.66,0,0,0,93.06,292c-1.19-4.19-3.13-8-3.36-12.42,0-.95-1.53-.95-1.48,0Z"></path>
      <path class="cls-12" d="M86.45,282.28c4.23,6.71,13.88,7.62,17.23,14.94.4.87,1.68.12,1.28-.75-3.41-7.44-13-8.23-17.23-14.93-.51-.81-1.79-.07-1.28.74Z"></path>
      <path class="cls-12" d="M88.81,294.44c1.8,3.86,6.4,4.12,10.15,4.72,5.93.94,14.93.1,19.65,4.12.72.61,1.77-.43,1-1-2.74-2.33-5.89-2.78-9.37-3.14-4.85-.5-17.72-.11-20.2-5.4-.4-.86-1.68-.11-1.27.75Z"></path>
      <path class="cls-12" d="M102.56,299.82a35.54,35.54,0,0,1,6.68,13.6.74.74,0,0,0,1.43-.39,37.25,37.25,0,0,0-7.06-14.25c-.59-.75-1.64.3-1,1Z"></path>
      <path class="cls-12" d="M87.47,295c3.78,5.24,7,10.38,8.08,16.86A167.94,167.94,0,0,1,97.36,333c0,1,1.52,1,1.48,0A170.73,170.73,0,0,0,97,311.49c-1.11-6.61-4.36-11.83-8.23-17.21-.55-.76-1.84,0-1.28.75Z"></path>
      <path class="cls-12" d="M87.81,294.46A313.56,313.56,0,0,1,86,333.82c-.1.95,1.38.94,1.48,0a313.56,313.56,0,0,0,1.79-39.36.74.74,0,0,0-1.48,0Z"></path>
      <path class="cls-12" d="M96.75,315.45a19.16,19.16,0,0,1,7,10.53.74.74,0,0,0,1.43-.4,20.76,20.76,0,0,0-7.66-11.41c-.76-.57-1.5.71-.75,1.28Z"></path>
      <path class="cls-12" d="M96.31,314.83a16.5,16.5,0,0,0,10.83,4.86c1,.06,1-1.42,0-1.48a14.89,14.89,0,0,1-9.78-4.42c-.68-.68-1.73.37-1,1Z"></path>
      <path class="cls-12" d="M83.93,259.69l.18,9.93a.74.74,0,0,0,1.48,0l-.18-9.93a.74.74,0,0,0-1.48,0Z"></path>
      <path class="cls-12" d="M84.64,255.81c-3.82,6.05-.32,13.27-1.94,19.86-.22.92,1.2,1.32,1.43.39,1.56-6.34-1.83-13.77,1.79-19.51.51-.81-.77-1.55-1.28-.74Z"></path>
      <path class="cls-12" d="M85.57,271.05a27.27,27.27,0,0,1,1.65,10.43c0,.95,1.45.95,1.48,0A28.3,28.3,0,0,0,87,270.66c-.32-.89-1.75-.5-1.42.39Z"></path>
      <path class="cls-12" d="M84.63,272.68v9.55a.74.74,0,0,0,1.48,0v-9.55a.74.74,0,0,0-1.48,0Z"></path>
      <path class="cls-12" d="M87,274.59l-.38,7.05c-.12,2.32.07,4.94-1.35,6.9-.56.78.73,1.52,1.28.75,1.2-1.66,1.32-3.49,1.43-5.48.18-3.07.34-6.14.5-9.22.06-.95-1.42-.95-1.48,0Z"></path>
      <path class="cls-12" d="M86.14,281.26a33.35,33.35,0,0,1-3.63,11.33c-.45.84.83,1.59,1.28.75a34.73,34.73,0,0,0,3.78-11.68c.12-.94-1.3-1.34-1.43-.4Z"></path>
      <path class="cls-12" d="M85.33,274.42l1.38,9.13c.14.94,1.57.54,1.43-.4L86.76,274c-.14-.94-1.57-.54-1.43.4Z"></path>
      <path class="cls-12" d="M85.31,270.77a65.34,65.34,0,0,0,1.44,10.41.75.75,0,0,0,1.43,0l.27-1.42c.18-.93-1.25-1.33-1.43-.39l-.27,1.41h1.43a63.62,63.62,0,0,1-1.39-10c-.05-.94-1.53-.95-1.48,0Z"></path>
      <path class="cls-12" d="M86.85,273.07a22.59,22.59,0,0,0,1.79,6.5.74.74,0,0,0,1.16.15,4.49,4.49,0,0,0,1.18-4c-.11-.69-1-.65-1.36-.18l-.88,1.29,1.36.17-1.48-5.1a.75.75,0,0,0-1.43,0,12.43,12.43,0,0,0-.09,4.59c.12.71,1,.62,1.35.18a5.67,5.67,0,0,0,1.22-3.9l-1.45.19.54,2.91c.16.86,1.41.6,1.45-.19a9.87,9.87,0,0,0-2.31-7c-.61-.74-1.65.31-1.05,1a8.39,8.39,0,0,1,1.88,6l1.46-.2-.55-2.91c-.15-.82-1.49-.63-1.45.2a4.51,4.51,0,0,1-1,3.15l1.35.18a9.77,9.77,0,0,1,.09-3.81H87.19l1.48,5.11a.75.75,0,0,0,1.35.17l.88-1.28-1.35-.18a2.68,2.68,0,0,1-.79,2.57l1.16.15a20.15,20.15,0,0,1-1.59-5.75c-.11-.94-1.59-.95-1.48,0Z"></path>
      <path class="cls-12" d="M87.61,284.94a41.64,41.64,0,0,1-.6,11.47l1.45.2-.06-1c-.06-1-1.54-1-1.48,0l.06,1c0,.78,1.29,1.06,1.46.19a42.9,42.9,0,0,0,.65-11.86c-.08-.95-1.56-.95-1.48,0Z"></path>
      <path class="cls-12" d="M86.46,283.39A207.52,207.52,0,0,1,86,307.31c-.07.87,1.2.95,1.45.2l2.43-7.16c.31-.9-1.12-1.29-1.43-.39L86,307.12l1.45.19a207.52,207.52,0,0,0,.51-23.92c0-.95-1.51-1-1.48,0Z"></path>
      <path class="cls-12" d="M86.28,288a7.7,7.7,0,0,1-.54,3.91c-.38.86.9,1.62,1.27.74a8.94,8.94,0,0,0,.75-4.65c-.1-.94-1.58-.95-1.48,0Z"></path>
      <path class="cls-12" d="M88.84,286.43a43.45,43.45,0,0,0,1.46,11.68.74.74,0,0,0,1.42-.39,42.2,42.2,0,0,1-1.4-11.29.74.74,0,0,0-1.48,0Z"></path>
      <path class="cls-12" d="M88.57,295.82a21.69,21.69,0,0,0-1,7.24.74.74,0,0,0,1.45.2,31.46,31.46,0,0,0,.14-22.15c-.32-.89-1.75-.5-1.43.4a30.22,30.22,0,0,1-.13,21.36l1.45.19a20.65,20.65,0,0,1,1-6.85c.28-.91-1.15-1.3-1.43-.39Z"></path>
      <path class="cls-12" d="M87,280.52l-.51,3a.74.74,0,0,0,1.43.39,9.53,9.53,0,0,0,.44-3.56c-.06-.95-1.55-.95-1.48,0a8.31,8.31,0,0,1-.39,3.17l1.43.39.51-3c.16-.93-1.27-1.33-1.43-.39Z"></path>
      <path class="cls-12" d="M84.3,266.76a28.88,28.88,0,0,0,2.64,5.8.74.74,0,0,0,1.37-.37,11.12,11.12,0,0,0-.57-4.79.76.76,0,0,0-1.09-.45,7.75,7.75,0,0,0-4.37,7.29.75.75,0,0,0,1.12.64,4.11,4.11,0,0,0,2.17-2.66.75.75,0,0,0-1.09-.83,6.49,6.49,0,0,0-2.12,1.95l1.36.57a38.6,38.6,0,0,0,.46-8.11c0-.94-1.53-.95-1.48,0a37,37,0,0,1-.41,7.72.74.74,0,0,0,1.35.57,4.6,4.6,0,0,1,1.59-1.42l-1.09-.84a2.75,2.75,0,0,1-1.49,1.77l1.11.64a6.29,6.29,0,0,1,3.64-6l-1.09-.44a10,10,0,0,1,.52,4.4l1.38-.38a27.11,27.11,0,0,1-2.49-5.45c-.29-.9-1.72-.51-1.42.4Z"></path>
      <polygon class="cls-13" points="27.91 243.13 85.84 268.64 138.48 245.11 85.84 225.54 27.91 243.13"></polygon>
      <path class="cls-14" d="M89.05,31.79c.33-.74,6-10.39,10.06-11.29,0,0,2.13,0,1-1.88s7.77-4.17,8-4.5,1.72-1.72.58-3,7.68-3.36,7.68-3.36,1.15-.9.49-1.88,8.59-2.7,8.59-2.7,1.55-1.63-2.78-1-8.34,1.23-8.34,1.23,1.14-3.93-1.23-3.35c0,0-3.82,5.15-5.71,6,0,0-1.4-3.11-3.36-1.8l-4.34,6.38s-2.12-2.87-4.25.08-2.29,7.6-2.29,7.6a4.36,4.36,0,0,1-.65-2.4s-.09-.79-2-.38c0,0,1.47-11-3.11-6.87,0,0-3.19-8.17-4.9-7.44,0,0-1.23,0,0,2.21S88.15,16.82,87,29.33c0,0-.58.66.32,2.46a5.74,5.74,0,0,1-.16,1.88c-.25.65-.3-.36-2-.52A2.69,2.69,0,0,1,85.45,31c.66-1.42,1.58-5.84-2.56-5.56,0,0,0-6.22-1-6.55S80,25.19,80,25.19s-5.07-1.58-1,5.18c0,0,.6.16-.27,1.36s.76,4.58,4.52,7.14l1.47,1.2a28.06,28.06,0,0,0,.89,3.49c1.58-.49,4.24-2.13,6.42-1.8s4.42,2.13,4.74.6-.11-2.89-.92-3.32,2.56-.55,4.79-.66,3-1.74,1.58-2.51,8.29-2,9.76-1.8,2.78-.92-1-1.09-3.92.71-3.76-.16-.33-4.31-6.32.06c0,0-1.37,1.14-1.31-.82s-3.55-1.91-5.45.76-2.68,2.78-2.84,1.64.71-2.13.33-2.51-1.42.71-2.29,1.8-1.31.54-.82-.71Z"></path>
      <path class="cls-14" d="M85.56,60.13c.46,1.16,6.54-3.38,8-3.05s2.84,0,3-1.42c0,0,7.19,1.09,8.06.77s2.73-2.51,0-4.36c0,0,7.31-2,9.49-5.35s-3,.44-5.1.44-2.37.16-3,.08-.09-2.94-2.38-2.45a7,7,0,0,1-2,1.39,43.47,43.47,0,0,0-5,1.88,3.77,3.77,0,0,1-1.88.57c-.24,0,.74-4.42-2.94-2s-5.32,4.08-5.56,5.84S84.44,57.33,85.56,60.13Z"></path>
      <path class="cls-14" d="M42.28,74.23A15.59,15.59,0,0,1,33.85,71c-4.08-3.18-9.32-7.52-9.89-7.85s-3.6,2-1.47,7.28c0,0,1.63,2.13-1.39,1.23S10.79,66.29,8.91,69.4s0,3.76,0,3.76A19.77,19.77,0,0,0,1,77.09c-3.11,2.86,2.13,2.7,2.54,2.7s6.7-1.72,6.86-.58-1.22,4.58,2.7,4.09,6-4.64,6.87-4.57,2.13.32,1.56,2.12-.66,5.07,3.76,4S33.69,79,33.94,79.7s-.5,1.23-1.23,1.72-5,5.81-5.81,7.93-7.36,5.56-7,14.72c0,0,.08,2.87,1.8,2.29,0,0-1.15,7,3.35,9.24,0,0,1.15,10.14,3.52,10.39,0,0-.66-11.86,1-15.29,0,0,.41-11,1.14-15.62S31.43,80,42.28,75Z"></path>
      <path class="cls-14" d="M82.84,47.81c-.49-1-.17-3.92-3.93-6.78s-2.45-8.51-7.11-4.83c0,0-3.85-3.19-3.93-4.91s-2.21-.81-1.72,1.23S64.27,36,69.1,41.84c0,0,.49.51-.57,1.28s-.17,2.48,2.61,3.3,12,3,14,10.31Z"></path>
      <path class="cls-14" d="M117.84,68.26a37.94,37.94,0,0,1,2-4.83c.49-1.06.9-10.14,2-12.43s2-5.07,5.72-4.09c0,0,3.77-1.78,4.26-3.79s2.37-4,3.59-3.81,2.62-.08,2.95.49,1.63-.08,2,.16,3.19-1.47,2.7.17-3.27,3.92-3.27,3.92,3.27,2.45-3,5c0,0-1.31.33-.16,2.13s2,5.8-5.07,6.78c0,0-6.71,6-7,4.34s-3.11,6-4.83,6S118,69.16,117.84,68.26Z"></path>
      <path class="cls-14" d="M126.67,65.6S144.28,46,143,57.54c0,0,13.51-7.27,11.14,1,0,0-.16,1.55,3.6.24s5.56-1.31,6,2c0,0,3.52,1.39,3,2.79,0,0,3.77,1.38,0,2,0,0-2,2-3.48,0,0,0-1.47,4-7.28-2.33,0,0-.41,4.33-4.82,2.33s-4.5-2.25-6.54-2c0,0-.25.49.65,1.63s1.06,4.43-9.16,1.6S126.67,65.6,126.67,65.6Z"></path>
      <path class="cls-14" d="M113.49,71.62c-.25-.05,25-2.22,35.42,11,0,0,.37,1.88-1.37,1.23s2.68,7.19,2.11,9.4-.41,2.86-2.46,2.29c0,0-4.09,10.06-2.86,15,0,0-6.05.5-6.71-12.34,0,0-6.78-.41-3.51-9.65,0,0,.49-2.37-1.31-1.15s-5.15-1.06-4.09-7C128.71,80.44,122.73,73.42,113.49,71.62Z"></path>
      <path class="cls-14" d="M101.64,84.37S129.12,65,125.52,96.8c0,0-.65,3.27-3.43,0s-5.56-5.74-6-5.73-.58.66-.66.9-1.22,3.44-4-.24S103.44,83.22,101.64,84.37Z"></path>
      <path class="cls-14" d="M108.76,91.64s12.26,8.1,6.46,10.55c0,0,5.15,7.69,2.12,9.73,0,0,2.38,4.58-.49,4.42,0,0-1.55,9.9-3.1,0,0,0-2.13-.57-.66-4.09,0,0-2.45.57-1.22-7.44,0,0-7.36,6.3-4.17-12.1C107.7,92.71,106.43,90,108.76,91.64Z"></path>
      <path class="cls-14" d="M111.05,129.67c-.57.5,9.73-14.07,11.86-16.77s5.64-4.49,7.11,0c0,0-1.39,1.56,3.6-.32s10.38-6.7,11.45-2c0,0,3.59-2.62,3.43.81s2,2.37,2.37,2.37,4.5,1.31,0,3.19c0,0-2.7.66-4-.08s-.81,1.56-.16,1.88,2.78,4.42-1.72,2.78a6.94,6.94,0,0,0-6.13-2.44c-4.17.32-5.92,0-4.14,1.61s4.55,5.41-.36,4.19S121,120.92,111.05,129.67Z"></path>
      <path class="cls-14" d="M119.63,136.21s5.07-2.86,11.78,1.14c0,0,4.59,2.54.58,3.85,0,0,9.56,8.34,4.49,8.18,0,0,2,6.46.33,7.36,0,0-2.13-5.4-3.19-6.3a2.81,2.81,0,0,1-3.27-2.21c-.9-2.78-1.31-4.09-1.88-4s-.09,1.22-.49,1.76-1.07,1.51-3.19-1.18-4.34-5.24-5.16-6.55A1.55,1.55,0,0,1,119.63,136.21Z"></path>
      <path class="cls-14" d="M96.25,148.72s7.77-6.87,12-7.19,7-1.39,4.74,2.86c0,0-2,1.14,2.45,2.53a11,11,0,0,0,7.12.21c.63,0,5.48.45,3.27,3.31,0,0-1.55.49,1.31,1.47s6.38,2.62,7.44,8.1c0,0,2.45,2.12,1.47,2.78s-9.24-6-10.79-6c0,0,1.47,5.64-3.68,5a4.58,4.58,0,0,1-2.87-3.1c-.89-2.62-5.31-4.66-5.31-4.66s-1.24-.58-.82.81-.94,3-1.57,3.44-2.19,1.88-3.25-.58S99.35,148.23,96.25,148.72Z"></path>
      <path class="cls-14" d="M69.92,84.37s-7.28-2.29-13.58,4.74c0,0-1.45,2,.75,2.53,0,0-6.39,5.16-6.47,8.18s-.08,2.13.65,2.78-.24,7.44,2,9.16,2.54-8.26,2.54-8.26,2.5,3.9,4.48-9c0,0,4.92,2.76,6-2.72s3.92-6.3,5.72-6S69.92,84.37,69.92,84.37Z"></path>
      <path class="cls-14" d="M58.88,78.73c.4,0-12.83,1-8.3,11.69,0,0,2.9,8.75-2.66,6.7a26.09,26.09,0,0,0-1,6.46c.16,2.29-.25,4.34-2.29,3.44,0,0,.49,4.49-.82,4.49s-3.35-.49-5.23-7.68c0,0-4.83.9-3.11-4.58S39,79.23,58.88,78.73Z"></path>
      <path class="cls-14" d="M67.72,116.11S16.26,103.75,28,156.74c0,0,1.31,1.79,2-2.29s1.14-13.91,3.76-15.54c0,0,1.22,3.27,3.47-.33C37.23,138.58,37.74,111.75,67.72,116.11Z"></path>
      <path class="cls-14" d="M64,118.38c.41-.06-28,2.54-16.6,32.55,0,0,4.66,2.29,6.54-12.92,0,0,7.52,3.11,6-4.66S62.88,118.55,64,118.38Z"></path>
      <path class="cls-14" d="M86.11,141.17s-11.45-16.71-15-8.64c0,0-18.25.44-7.11,20.5,0,0,1.55,2,3.51-5.89,0,0-.76-2.29,2.51-.44s4.72,3.28,6.5-1.3,6.37-1.75,7.67-2.08S86.78,142.1,86.11,141.17Z"></path>
      <path class="cls-14" d="M55.25,160.44s-4.91-13.57-7.9-9.51c0,0-1.37,2.1-5.07-2.59,0,0-.88-1.64-2.62,0,0,0-1.09-1.85-2.07-1.74,0,0-1.09-1.75-1.64-1.09s.66,2,.66,2-1.09-.11.65,2.07c0,0-1.85,3.27,6.22,4.91C43.48,154.45,35.52,159,55.25,160.44Z"></path>
      <path class="cls-14" d="M65.61,169.6s1.74-8.83-1.09-14.06c0,0-.76-1-1.31,0,0,0-1.58-4-2.4-4,0,0-1.42-5.72-1.85,0,0,0-1.8-.54-.82,4.14C58.14,155.64,52.42,155.21,65.61,169.6Z"></path>
      <path class="cls-14" d="M64.6,169.6s-8.91-4-20.28,3.57c0,0-1.1,1.88,1.21,2.05a16.92,16.92,0,0,0-1.86,11.53s.08,2.12,2.2-.49,2.87-5.4,3.44-5.32,1.55,2.37,2.53,1.15S57.33,169.52,64.6,169.6Z"></path>
      <path class="cls-14" d="M76.7,187.56a13.16,13.16,0,0,0-11.45-3.76c-7.11,1.15-3.73,3.76-3.73,3.76s-10.25,4.26-4.12,16.28c0,0,1.56,1.71,2.05-.66s-.09-2.86.9-5,2.45-5.31,3.19-5,1.63,3.43,3.1.41S72,186.25,76.7,187.56Z"></path>
      <path class="cls-14" d="M97.69,192a1.35,1.35,0,0,0,.5-.61c.83-2.38,3.58-12.64,6.23-14.9s3.31-4.93,4.42-.43c.16.63-.23,1.17-.52,1.75,0,0,.56-.34,2.71-1.76,4.62-3.05,11.49-8.06,10.4-4.14s-2.49,3.6.12,3.6,7.47-1.09,10.44-.66,6.13,1.75-1.4,2.62c-6.15.71-3.56,1.21-2.41,1.37a1.74,1.74,0,0,1,.91.4c.78.68,1.77,2.08-3.62,1.93-7.09-.21-5.13-.1-4.8.55s2.29,4.91-2.62,4a17.17,17.17,0,0,0-8.17.22c-.44.1,6.87,2.94,1.15,3.7s-8.24,2.84-11.4,2.73C97.59,192.32,97.5,192.11,97.69,192Z"></path>
      <path class="cls-14" d="M77.17,186.17c.31.66,3.38-9.48,7.41-7,0,0-.67-5.68-5.68-5.13a4.14,4.14,0,0,0-3.71,3.55C75,179.42,75.26,182.16,77.17,186.17Z"></path>
      <path class="cls-14" d="M94.72,197.08s17.5-4.2,4.36,15.42a44.86,44.86,0,0,1-.65-4.63c-.11-1.85-2.37,1.53-.81-4.8,0,0-3.23.17-1.59-5C96,198.11,96.41,197,94.72,197.08Z"></path>
      <path class="cls-14" d="M93.52,196.7s3.38-6.93,3.6-11.07a88.8,88.8,0,0,0-.87-13c-.22-1.41-2.73,2.72-2.73,7.47s1.85,5.29,0,4.75-2.94-1.25-3.81,1.33S93.52,196.7,93.52,196.7Z"></path>
      <path class="cls-14" d="M75.13,208.85s-19.55-9.16-18.68,14.39c0,0,1.56,2.95,4-6.21,0,0-.76-.44,2.19-.65S69.38,206.67,75.13,208.85Z"></path>
      <path class="cls-14" d="M89.6,229.35s6.85-7.41,9.75-1.31a15.83,15.83,0,0,0,4.62,3.82c2.64,1.31,10.59,5.67,1.76,5.56s-8.72-6.65-10.14-7.2S92.76,228.59,89.6,229.35Z"></path>
      <path class="cls-15" d="M85.38,62A7.74,7.74,0,0,0,88,64.32c1,.67,3.24,2.46,3.27,3.63"></path>
      <path class="cls-16" d="M90.85,66.46s2.34.05,2.13-2.18.7.38.43,1.09-.6,1.74-1.25,2c0,0-1.31,1.85-2.51,1.09,0,0-1.31,1.31-2.34.6,0,0,3-1.15,2.83-2.13S90.85,66.46,90.85,66.46Z"></path>
      <path class="cls-16" d="M75.2,96.93s1-1.6,2-1.18c0,0-1.31,1.53-1,2.5a7.71,7.71,0,0,1,.57,2.61A14.31,14.31,0,0,0,75.2,99C74.33,98.08,75.2,96.93,75.2,96.93Z"></path>
      <path class="cls-16" d="M78,152.84s1.19-3.27,3-2.7c0,0-1.71,2.42-1.38,4S78,152.84,78,152.84Z"></path>
      <path class="cls-17" d="M98,12.64C92.79,21,88.29,30,86.37,39.66a67.32,67.32,0,0,0-1.13,14.66c.11,4.92.53,9.83.89,14.76.8,9.85.92,19.75,1.1,29.62s.17,19.75.09,29.63c-.14,19.75-.64,39.49-1.14,59.23s1,39.34.53,59.23l-3.6-.12c.76-19.6-.6-39.38.3-59.2S85,148,85.42,128.3c.21-9.86.34-19.73.33-29.59s0-19.73-.63-29.57c-.27-4.92-.62-9.85-.64-14.81a68.57,68.57,0,0,1,1.4-14.78C88,29.82,92.65,20.92,98,12.64Z"></path>
      <path class="cls-17" d="M133.37,62.59c-17,4.18-32.3,14.5-41.43,29.58a63.05,63.05,0,0,0-6.12,13.55c-.29.91,1.13,1.3,1.42.39A62.61,62.61,0,0,1,119.86,69a71.28,71.28,0,0,1,13.9-5c.92-.22.53-1.64-.39-1.41Z"></path>
      <path class="cls-17" d="M119.71,120.74a138.31,138.31,0,0,0-34.87,56.57l-2.2-.73A139.53,139.53,0,0,1,119.71,120.74Z"></path>
      <path class="cls-17" d="M97.72,189.85c-6,6.38-12.34,13.3-14.1,22.18-.25,1.24,1.64,1.76,1.89.52,1.69-8.56,7.8-15.17,13.59-21.32.87-.92-.52-2.31-1.38-1.38Z"></path>
      <path class="cls-17" d="M72.63,209.49c1.71,0,3.2,1.26,4.56,2.32,1.59,1.22,3.27,2.42,5.35,2.48a1,1,0,0,0,0-2,4.76,4.76,0,0,1-2.31-.76,24.44,24.44,0,0,1-2.35-1.68c-1.55-1.2-3.22-2.34-5.25-2.36a1,1,0,0,0,0,2Z"></path>
      <path class="cls-17" d="M53.34,160.42a59.49,59.49,0,0,1,16.94,18.3c4.65,7.65,8.6,15.78,12.78,23.7.59,1.12,2.29.13,1.7-1-4.33-8.18-8.37-16.62-13.26-24.48a61.17,61.17,0,0,0-17.17-18.22c-1-.72-2,1-1,1.69Z"></path>
      <path class="cls-17" d="M85.63,232.14l6.8-3.41a1,1,0,0,0-1-1.7l-6.81,3.41a1,1,0,0,0-.35,1.34,1,1,0,0,0,1.35.36Z"></path>
      <path class="cls-17" d="M78.9,152.94a8,8,0,0,1,3.47,1.69,11.56,11.56,0,0,1,2.83,2.75c.36.52,1.21,0,.85-.5a13,13,0,0,0-3.19-3.09,8.68,8.68,0,0,0-4-1.83c-.26,0-.48.25-.49.49a.5.5,0,0,0,.49.49Z"></path>
      <path class="cls-15" d="M55.51,115.21c26.05,0,27.59,12.92,30.12,23.26"></path>
      <path class="cls-17" d="M75.41,110.11c-.6-2.39,1.31-4.86,3.57-5.48s4.78-.23,7,.11c.62.09.88-.86.26-.95a34.65,34.65,0,0,0-4.07-.42,10.17,10.17,0,0,0-4,.49c-2.52,1-4.4,3.8-3.72,6.51.15.61,1.1.35,1-.26Z"></path>
      <path class="cls-17" d="M76.08,98.72a26.71,26.71,0,0,1,5.11,2.53,25.43,25.43,0,0,1,4.61,3.36c.46.44,1.15-.25.7-.69a26.22,26.22,0,0,0-4.81-3.51,26.84,26.84,0,0,0-5.35-2.63c-.6-.21-.85.74-.26.94Z"></path>
      <path class="cls-17" d="M39,75.67A56.29,56.29,0,0,1,77.54,90a53.46,53.46,0,0,1,8,8.9c.55.77,1.83,0,1.27-.74A57.81,57.81,0,0,0,51.29,75.27,55.61,55.61,0,0,0,39,74.2a.74.74,0,0,0,0,1.47Z"></path>
      <path class="cls-17" d="M72.37,51.33a5,5,0,0,1,2.76,1,8.65,8.65,0,0,1,2.23,2.12.5.5,0,0,0,.67.18A.49.49,0,0,0,78.2,54a9.94,9.94,0,0,0-2.57-2.48,5.87,5.87,0,0,0-3.26-1.14.49.49,0,0,0,0,1Z"></path>
      <path class="cls-17" d="M76,59.68a4.42,4.42,0,0,1,.82-3.88A5.25,5.25,0,0,1,79.43,54a3.44,3.44,0,0,1,3.09.38,5.86,5.86,0,0,1,1.69,2.49,16,16,0,0,1,.88,3.39c.09.63,1,.36,1-.26-.35-2.25-1.05-5-3-6.43-2.17-1.63-5.33-.42-6.92,1.45A5.48,5.48,0,0,0,75,59.94c.15.61,1.09.35,1-.26Z"></path>
      <path class="cls-17" d="M66.34,61.69a14.06,14.06,0,0,1,9-3.71c.63,0,.64-1,0-1a15.17,15.17,0,0,0-9.66,4c-.47.43.23,1.12.69.7Z"></path>
      <path class="cls-17" d="M72.08,71.75A26.57,26.57,0,0,0,72.94,63a6.11,6.11,0,0,1,.21-3.34A2.61,2.61,0,0,1,75.31,58c.63,0,.64-1,0-1-2.09.08-3.4,2.14-3.47,4.08-.07,1.71.33,3.38.21,5.1a36.83,36.83,0,0,1-.91,5.31c-.14.62.81.88.94.26Z"></path>
      <path class="cls-17" d="M97.86,86.71c1.55-1.53,4.1-1.12,5.73.07,2,1.43,2.93,3.88,3.81,6,.23.58,1.18.33.95-.26-1-2.5-2.14-5.27-4.5-6.8-2-1.3-4.9-1.52-6.68.25a.49.49,0,0,0,.69.69Z"></path>
      <path class="cls-16" d="M94,86.25s-.22-5.18-2.23-5.78a3.94,3.94,0,0,1,3.16,2.89s1.2-1.8,1.09-2.89c0,0,2,.82.6,4a4.17,4.17,0,0,1,2.12,4.42A5.06,5.06,0,0,0,94,86.25Z"></path>
      <path class="cls-17" d="M99.35,84.05a13,13,0,0,0,4.3.36.49.49,0,0,0,.47-.47.48.48,0,0,0-.47-.47,12.24,12.24,0,0,1-4.05-.32.47.47,0,0,0-.25.9Z"></path>
      <path class="cls-15" d="M103.44,138.79c5.55-1.42,10.31-4.07,17.23-1.87"></path>
      <circle class="cls-18" cx="78.01" cy="66.81" r="7.35"></circle>
      <path class="cls-19" d="M84,62.63c2,4.9,1.45,6.18-.88,7.52s-5.6,0-7.3-2.9S74.31,59.79,77,59.48C78.93,59.25,82.74,59.48,84,62.63Z"></path>
      <circle class="cls-18" cx="94.54" cy="73.24" r="6.88"></circle>
      <circle class="cls-18" cx="68.42" cy="53.32" r="4.58"></circle>
      <circle class="cls-18" cx="62.58" cy="65.05" r="5.17"></circle>
      <circle class="cls-18" cx="70.19" cy="75.2" r="3.58"></circle>
      <circle class="cls-18" cx="89" cy="89.46" r="8.03"></circle>
      <path class="cls-19" d="M96.88,87.94c.14,3.51-3.37,5.68-7.37,5.68s-7.72-3.94-7.36-7.29c.29-2.61,3.24-4.76,7.24-4.76S96.77,85.31,96.88,87.94Z"></path>
      <ellipse class="cls-18" cx="69.12" cy="100.35" rx="7.35" ry="6.87"></ellipse>
      <circle class="cls-18" cx="93.23" cy="110.49" r="9.8"></circle>
      <circle class="cls-18" cx="72.75" cy="120.94" r="11.47"></circle>
      <path class="cls-19" d="M84.23,120.94c-.42,5.91-2.06,7.54-5.87,8.94-3.46,1.28-10.44-3.54-11.59-8.94a12,12,0,0,1,3.32-10.72C72.87,107.7,84.92,111.22,84.23,120.94Z"></path>
      <path class="cls-16" d="M75.26,108.59s-4.85-3.37-7,2c0,0,1.09-2.08,3.92-.6,0,0,4,3.7,6.49,4.47,0,0-2.07-2.78-1.42-3.87,0,0,5.34-1.21,6.27-2C83.49,108.59,78.37,107.88,75.26,108.59Z"></path>
      <circle class="cls-18" cx="93.48" cy="172.57" r="7.08"></circle>
      <path class="cls-18" d="M70.66,169.25c0,4.29,3.76,9.32,7.77,7.77s7.77-3.48,7.77-7.77a7.77,7.77,0,1,0-15.54,0Z"></path>
      <ellipse class="cls-18" cx="72.37" cy="157.65" rx="8.74" ry="7.25" transform="translate(-81.53 77.6) rotate(-37.86)"></ellipse>
      <circle class="cls-18" cx="97.16" cy="151.27" r="12.75"></circle>
      <path class="cls-16" d="M91.89,140.87c0-.16,1-5.26,2.67-5.27a5.31,5.31,0,0,0-5,4.29s-2.35-1.91-2.29-3.82a7.34,7.34,0,0,0-.39,5.72s-3,.93-3.48,6.55c0,0,4.47-3.76,5.56-3.93S91.89,140.87,91.89,140.87Z"></path>
      <path class="cls-16" d="M81,162a21.09,21.09,0,0,0,.32-3.07c-.08-.2,2.08,2.21,2.08,2.21a4,4,0,0,1,3.89-1.63s-1.75,1.22-2,2.08L88,162.83,86.29,164S80.81,163.23,81,162Z"></path>
      <path class="cls-19" d="M88,147.56a9.07,9.07,0,0,1,9.12-9c5.74,0,11.67,4.78,11.67,9s-2.25,9.38-8,9.38S88,151.82,88,147.56Z"></path>
      <path class="cls-16" d="M72.15,70.46a1.67,1.67,0,0,1-2.62-.54s.06,1.74,1.15,1.8a1.7,1.7,0,0,0,1.25.54,2.15,2.15,0,0,0,2.35,0S71.44,72.05,72.15,70.46Z"></path>
      <path class="cls-16" d="M65.86,60.44s2.4-.71,2.56,0c0,0-1.53-.11-1.58.44,0,0-.55.54,0,.87s1.85,1.63,2.56,1.63a2.74,2.74,0,0,1-2.94-.76s-2.35-.22-1.91-1.47a3.31,3.31,0,0,1-.38-3.38S65,61.42,65.86,60.44Z"></path>
      <path class="cls-16" d="M72.76,51.12s-.22,2.33,2,2.27-.43.68-1.12.36S72,53,71.8,52.36c0,0-1.76-1.43-.92-2.58,0,0-1.21-1.39-.43-2.38,0,0,.93,3.13,1.92,3S72.76,51.12,72.76,51.12Z"></path>
      <path class="cls-20" d="M126.73,45.82c-2.86,2.17-5.44,4.92-8.93,5.81"></path>
      <path class="cls-20" d="M113.66,52.45a41.48,41.48,0,0,0-1.81,8.07"></path>
      <path class="cls-20" d="M123,53.47a8.92,8.92,0,0,1-2.79,1.21A20.15,20.15,0,0,0,114.66,57"></path>
      <path class="cls-20" d="M116.16,62.11a9.85,9.85,0,0,1-3.4,4.24c-1.78,1.49-4.1,3.43-6,4.74"></path>
      <path class="cls-20" d="M107.72,60.66A15.06,15.06,0,0,0,107,68.8"></path>
      <path class="cls-17" d="M118,45.27a25.43,25.43,0,0,1-.43,6.16,12,12,0,0,1-3.09,5.37c-.28.31.18.78.47.46a12.77,12.77,0,0,0,3.2-5.46,25.1,25.1,0,0,0,.5-6.53.33.33,0,0,0-.65,0Z"></path>
      <path class="cls-17" d="M114.63,56.54l-3.89,4.79a22.23,22.23,0,0,0-3.17,4.49A15.54,15.54,0,0,0,106.43,71c-.19,2.07-.36,4.13-.54,6.19,0,.42.62.42.66,0q.24-2.92.5-5.85A15.07,15.07,0,0,1,108.23,66a23.34,23.34,0,0,1,3.13-4.34L115.09,57c.26-.33-.2-.79-.46-.46Z"></path>
      <path class="cls-21" d="M116.74,60.41a18.66,18.66,0,0,0,1.74-2.18l.66,2.18,4,1.53-3.92,2.29L119.14,67l-1.75-2.18-3,.54s1.2-1.53,1.09-2a31.7,31.7,0,0,0-2.07-3.16Z"></path>
      <polygon class="cls-21" points="124.26 55.62 122.73 57.18 121.97 54.63 119.03 54.63 121.1 52.78 120.77 50.71 123.17 51.36 124.26 49.4 125.13 51.8 127.97 52.13 125.57 53.87 126.55 56.6 124.26 55.62"></polygon>
      <path class="cls-21" d="M127,46.78c.54,0,2.5,1.53,3,1.42a7.51,7.51,0,0,1-1.31-1.58c-.16-.49.68-.87.85-1s1.06-1.11,1-1.47a5.23,5.23,0,0,1-2.32.57s0-2.26-.66-2.53c0,0-.46,1.28-.76,1.44,0,0-1.33-1.14-1.66-1.09a9.05,9.05,0,0,1,.6,2s0,.32-.08.38a9.11,9.11,0,0,1-2.21-.28c-.19-.13,2.56,1.56,2.51,1.83s-.79,1.77-.49,2.26C125.52,48.69,126.63,46.76,127,46.78Z"></path>
      <path class="cls-21" d="M119.65,44.6h2.62l-2.34-1.82s.57-2.7,1.25-2.59a3.82,3.82,0,0,0-2.56.82s-1.42-2.35-2.1-2.51c0,0,.57,2.81,0,3.32a2.16,2.16,0,0,1-1.72.36,3.83,3.83,0,0,0-1,0c.08,0,3.1,1.42,2.61,2.18a6,6,0,0,0-.92,2.26s1.55-1.2,2-1.18a4.35,4.35,0,0,1,2,2.52c0,.79.32-.58.24-1.09S119.65,44.6,119.65,44.6Z"></path>
      <path class="cls-21" d="M115,52.64c-.11,0,1,1.45.84,2.53,0,0-1.77-1.92-2-1.88s-1.77,1.94-2.2,1.88a8.78,8.78,0,0,0,1-2.37c-.06-.49-2.12-1.69-2.41-1.76a4.37,4.37,0,0,1,2.35,0c.53.35.27-.83.14-.92s-.92-1.08-.92-1.08,1.43.31,1.68.72.45.18.49-.15.82-.9,1.19-.79c0,0-.92,2-.07,2.37a3.34,3.34,0,0,0,2.19-.27A3,3,0,0,1,115,52.64Z"></path>
      <path class="cls-21" d="M109.16,59.05s1.62-4.31,1-5.18c0,0-1.93,3.65-2.58,3.87a28.92,28.92,0,0,0-2.51-3.38c-.38-.16,1.15,3.87,1.15,3.87s-4.15-.38-4.26,0,3.6,2,3.6,2,.38,0-.11.71-2,2.13-1.8,2.13,2.57-2.19,2.95-1.64a18.71,18.71,0,0,1,.76,3.82s1.36-2.57,1-4.42,2,2,2,2,.66,1.14.93.76S108.86,59.91,109.16,59.05Z"></path>
      <path class="cls-20" d="M29.8,54c3.36,1.29,6.6,3.2,10.2,3.08"></path>
      <path class="cls-20" d="M44.2,56.72a41.58,41.58,0,0,1,4,7.24"></path>
      <path class="cls-20" d="M35.49,60.32a8.93,8.93,0,0,0,3,.38,19.87,19.87,0,0,1,6,.7"></path>
      <path class="cls-20" d="M44.51,66.69A9.81,9.81,0,0,0,49,69.81c2.13.93,4.9,2.15,7.11,2.87"></path>
      <path class="cls-20" d="M52.21,62.94a15,15,0,0,1,2.95,7.62"></path>
      <path class="cls-17" d="M37.45,51.2a25.84,25.84,0,0,0,2.25,6,12.55,12.55,0,0,0,4.66,4.46.33.33,0,0,0,.33-.56,11.93,11.93,0,0,1-4.51-4.38A25.64,25.64,0,0,1,38.08,51a.33.33,0,0,0-.63.18Z"></path>
      <path class="cls-17" d="M44.1,61.48,49,64.86a23,23,0,0,1,4.29,3.38A15.28,15.28,0,0,1,55.82,73c.71,1.82,1.41,3.64,2.12,5.47.15.38.78.22.63-.18-.75-1.92-1.48-3.85-2.24-5.77a15.91,15.91,0,0,0-2.46-4.55,20.49,20.49,0,0,0-4.17-3.36l-5.27-3.66c-.35-.25-.68.32-.33.56Z"></path>
      <path class="cls-21" d="M43.48,65.22a18.72,18.72,0,0,1-2.29-1.6l0,2.28-3.44,2.59,4.41,1.1L43,72.18l1.07-2.58,3.08-.33s-1.58-1.13-1.59-1.58a31.62,31.62,0,0,1,1.1-3.62Z"></path>
      <polygon class="cls-21" points="34.91 62.72 36.82 63.8 36.84 61.14 39.66 60.32 37.16 59.12 36.89 57.03 34.77 58.33 33.18 56.75 33.01 59.3 30.38 60.41 33.17 61.41 32.99 64.3 34.91 62.72"></polygon>
      <path class="cls-21" d="M29.83,55c-.51.2-2,2.17-2.54,2.22a7.3,7.3,0,0,0,.82-1.89c0-.51-.9-.64-1.1-.73s-1.33-.77-1.38-1.13a5.25,5.25,0,0,0,2.39-.1s-.69-2.15-.08-2.61c0,0,.8,1.1,1.13,1.17,0,0,1-1.47,1.3-1.51a8.64,8.64,0,0,0,0,2s0,.33.18.34a8.63,8.63,0,0,0,2.05-.88c.14-.18-2,2.21-1.9,2.46s1.25,1.48,1.1,2C31.77,56.42,30.16,54.88,29.83,55Z"></path>
      <path class="cls-21" d="M36.26,50.86l-2.51.73,1.74-2.41s-1.31-2.43-1.93-2.13a3.83,3.83,0,0,1,2.69.07s.7-2.65,1.31-3c0,0,.24,2.86.93,3.19a2.17,2.17,0,0,0,1.75-.13,4.06,4.06,0,0,1,1-.29c-.07,0-2.58,2.23-1.9,2.82a6.13,6.13,0,0,1,1.52,1.91A8,8,0,0,0,38.64,51a4.39,4.39,0,0,0-1.24,3c.25.75-.47-.46-.54-1A20.65,20.65,0,0,0,36.26,50.86Z"></path>
      <path class="cls-21" d="M43,57.27c.11,0-.58,1.68-.1,2.66a11.74,11.74,0,0,1,1.44-2.37c.29,0,2.25,1.36,2.65,1.19,0,0-1.59-1.5-1.67-2s1.57-2.22,1.83-2.36a4.2,4.2,0,0,0-2.26.66c-.41.48-.49-.74-.4-.85s.58-1.3.58-1.3-1.28.7-1.4,1.16-.39.3-.52,0a1.34,1.34,0,0,0-1.36-.43s1.45,1.66.72,2.26a3.28,3.28,0,0,1-2.17.35A3,3,0,0,0,43,57.27Z"></path>
      <path class="cls-21" d="M50.37,61.8S47.61,58.12,48,57.11c0,0,2.87,3,3.56,3a28.7,28.7,0,0,1,1.47-4c.32-.26,0,4,0,4s3.87-1.52,4.08-1.19-2.89,2.94-2.89,2.94-.38.06.3.65,2.54,1.48,2.33,1.54-3.07-1.37-3.29-.74a18.82,18.82,0,0,0,.34,3.87s-2-2.08-2.18-4-1.32,2.48-1.32,2.48-.31,1.28-.68,1S50.9,62.54,50.37,61.8Z"></path>
      <path class="cls-20" d="M112.54,125.8l-2.31,2.58a34.89,34.89,0,0,1-2.74,2.83,25.56,25.56,0,0,0-4.15,5.41"></path>
      <path class="cls-17" d="M102.85,123.55c-.11,1.67-.11,3.34-.08,5a28.18,28.18,0,0,0,.35,4.94c.09.41.72.24.63-.18a28.62,28.62,0,0,1-.33-4.9c0-1.62,0-3.26.08-4.88,0-.42-.63-.42-.65,0Z"></path>
      <path class="cls-17" d="M109.67,115.84a52.12,52.12,0,0,0-2.12,7.86c0,.21.27.29.31.09a53.36,53.36,0,0,1,2.13-7.86c.07-.2-.25-.29-.32-.09Z"></path>
      <path class="cls-17" d="M114.8,110.42a33.52,33.52,0,0,1-6.61,13.34l-.5-.43A33.13,33.13,0,0,0,114.8,110.42Z"></path>
      <path class="cls-17" d="M107.4,124.6c2-1.57,4-3.06,6-4.63s4.34-3.24,7.1-3.53c.21,0,.21-.34,0-.32a13.25,13.25,0,0,0-6.86,3.23c-2.12,1.72-4.33,3.33-6.47,5-.17.13.07.36.23.23Z"></path>
      <path class="cls-17" d="M103.67,139.33a22.21,22.21,0,0,1,.58-8.55,19.65,19.65,0,0,1,4.31-7.52c.28-.32-.18-.78-.46-.46a20.54,20.54,0,0,0-4.42,7.58,22.9,22.9,0,0,0-.67,9c0,.42.7.42.66,0Z"></path>
      <path class="cls-21" d="M111.67,126.46,111,129l2.18-1,2.35,2.24-.44-2.51,4.25-2.18-4.17-1.09s.09-2.62-.57-3c0,0-1.63,2.35-1.69,2.56a10.65,10.65,0,0,1-3.76-.43C108.73,123.29,110.36,126.07,111.67,126.46Z"></path>
      <path class="cls-21" d="M120,119.1c-.44.05-1.64,1.47-1.64,1.47a7.86,7.86,0,0,0-.27-2.35c-.27-.27-2.73,0-2.73,0s2.19-.92,2.32-1.3-.9-2-.79-2.4c0,0,1.8.82,2.18.65a22.94,22.94,0,0,0,2.24-1.91s-.66,1.91,0,2.29,2.89.11,3.27.44c0,0-3.82.82-2.73,2.13a4.3,4.3,0,0,1,1.15,2.07A4.94,4.94,0,0,0,120,119.1Z"></path>
      <path class="cls-21" d="M116,111.52s2.23-.66,2.83-.38a10.08,10.08,0,0,0-2.18-.93c-.6,0,0-1.58.11-1.8s.66-1.58.66-1.58a18.17,18.17,0,0,0-2.08,1c-.21.21-.71.27-1.14-.77a2.71,2.71,0,0,0-1.64-1.36s1.31,2.73.28,3.33a2.76,2.76,0,0,1-2.18.16s.7,1,1.36,1.25.71.82.54,1.48-.65,1.25-.43,1.74c0,0,.87-1.31,1.58-1.09s1.47,1.53,2,1.74C115.71,114.35,115,111.77,116,111.52Z"></path>
      <path class="cls-21" d="M111.29,116.32c.2-.1,1.47-.6,1.53-1.37,0,0-1.53.28-1.86-.6a3.63,3.63,0,0,1,0-2s-.81,0-1,1.09-1-1.36-1.63-1.31c0,0,.6,1.75.27,2.18s-2.18-.21-2.18-.43.38,1,1.25,1.25a1,1,0,0,1,.77,1.15c0,.11-.93,1.25-.6,1.69,0,0,.65-1.2,1.47-1.09s1.52,1.14,2,1.09C111.29,118,110.6,116.64,111.29,116.32Z"></path>
      <path class="cls-21" d="M105.29,122.59l.88-4.86s-1.26,3.6-2.13,3.71-3.27-3.71-3.27-3.71,1.85,3.11,1.47,3.71-4.09.27-4.09.27-1.63.39.33.88,3.54.43,3.11,1.2-2.84,3.76-1.48,2.94,2.68-3,2.73-1.75-.6,5.67.16,4,1-5.23,1.75-4.47,3.92,4.41,2.78,2.34S105.12,123.57,105.29,122.59Z"></path>
      <path class="cls-22" d="M87.17,252.33a1.31,1.31,0,0,0-1.26-.46c-.7.21-1,.77-.86,1a3.15,3.15,0,0,0,.26.26c.17.17.54-.31.56-.32Z"></path>
      <path class="cls-9" d="M87.53,253.17s-.22-.95-.58-1a7.38,7.38,0,0,1-.76-.07l-.1.18s.35.62.5.67l.47.14A3,3,0,0,0,87.53,253.17Z"></path>
      <path class="cls-10" d="M87.5,253.29a.25.25,0,0,0-.14-.37,4.26,4.26,0,0,0-.46-.09s-.57.43-.68.5-.19.06.14.15.32.19.62.15A.91.91,0,0,0,87.5,253.29Z"></path>
      <path class="cls-11" d="M86.9,252.83a4.19,4.19,0,0,0-.42.41c-.17.19-.2.26-.4.15s-.72-.17-.85-.37-.14-.18,0-.42a1.07,1.07,0,0,1,.67-.41.6.6,0,0,1,.67.14A1.55,1.55,0,0,1,86.9,252.83Z"></path>
      <path class="cls-22" d="M69.3,245.84a1.94,1.94,0,0,0-2-.28c-.94.52-1.16,1.4-.93,1.65a2.89,2.89,0,0,0,.45.3c.3.19.68-.62.71-.63Z"></path>
      <path class="cls-9" d="M70.08,246.94s-.61-1.3-1.13-1.21a10.69,10.69,0,0,1-1.11.14l-.09.28s.7.79.92.81.63,0,.72.06A5.07,5.07,0,0,0,70.08,246.94Z"></path>
      <path class="cls-10" d="M70.07,247.11c0-.12,0-.45-.31-.48a4.69,4.69,0,0,0-.7,0s-.68.8-.82.93-.25.14.25.18.52.16.94,0A1.32,1.32,0,0,0,70.07,247.11Z"></path>
      <path class="cls-11" d="M69.06,246.63a6.24,6.24,0,0,0-.47.72c-.18.33-.2.43-.52.34s-1.09,0-1.35-.27-.24-.22-.07-.61a1.57,1.57,0,0,1,.84-.8.85.85,0,0,1,1,0A2.21,2.21,0,0,1,69.06,246.63Z"></path>
      <path class="cls-22" d="M81.92,243.26s-4-2-6.84.44-3,5.6-2,6.28a12.31,12.31,0,0,0,1.76.7c1.16.43,1.88-2.59,2-2.63S81.92,243.26,81.92,243.26Z"></path>
      <path class="cls-9" d="M85.35,246.43s-3-4-4.68-3.29S77,244.4,77,244.4l-.11,1s2.94,2.18,3.71,2.11,2.17-.32,2.52-.32A16.82,16.82,0,0,0,85.35,246.43Z"></path>
      <path class="cls-10" d="M85.47,247c0-.44-.21-1.59-1.41-1.43a17.58,17.58,0,0,0-2.37.51s-1.76,3.19-2.15,3.74-.75.67,1,.44,1.89.18,3.21-.61A4.51,4.51,0,0,0,85.47,247Z"></path>
      <path class="cls-11" d="M81.69,246.12a21.82,21.82,0,0,0-1.1,2.77c-.36,1.27-.38,1.62-1.53,1.56s-3.73.68-4.77,0-1-.55-.69-2,1-2.16,2.28-3.3a3,3,0,0,1,3.41-.72A7.74,7.74,0,0,1,81.69,246.12Z"></path>
      <path class="cls-22" d="M97.39,244.54s-2.31-3.15-5.46-2.37-4.51,3.16-4,4.07A10.34,10.34,0,0,0,89,247.48c.72.8,2.48-1.25,2.55-1.26S97.39,244.54,97.39,244.54Z"></path>
      <path class="cls-9" d="M98.79,248.37s-.72-4.28-2.32-4.42-3.35-.48-3.35-.48l-.5.74s1.41,2.85,2,3.11,1.81.62,2.07.75A15.94,15.94,0,0,0,98.79,248.37Z"></path>
      <path class="cls-10" d="M98.64,248.88c.14-.36.47-1.31-.52-1.66a14.66,14.66,0,0,0-2-.55s-2.63,1.77-3.15,2-.85.22.59.74,1.39.89,2.74.8A3.93,3.93,0,0,0,98.64,248.88Z"></path>
      <path class="cls-11" d="M96.08,246.67a17.07,17.07,0,0,0-2,1.71c-.79.83-.94,1.1-1.81.59s-3.16-.95-3.7-1.87-.54-.82.27-1.85A4.61,4.61,0,0,1,92,243.61a2.61,2.61,0,0,1,2.92.8A6.75,6.75,0,0,1,96.08,246.67Z"></path>
      <path class="cls-22" d="M86.62,246.18s-3.33-2.57-6.35-.83-3.71,4.6-3,5.4a11.85,11.85,0,0,0,1.49,1c1,.6,2.19-2,2.26-2.06S86.62,246.18,86.62,246.18Z"></path>
      <path class="cls-9" d="M89.19,249.71s-2-4.2-3.7-3.87-3.6.5-3.6.5l-.29.91s2.3,2.53,3,2.61,2,.1,2.36.15A16,16,0,0,0,89.19,249.71Z"></path>
      <path class="cls-10" d="M89.19,250.29c0-.42.1-1.49-1-1.57a16.29,16.29,0,0,0-2.26,0s-2.19,2.61-2.65,3-.81.48.83.59,1.7.51,3.06,0A4.2,4.2,0,0,0,89.19,250.29Z"></path>
      <path class="cls-11" d="M85.9,248.76a18.8,18.8,0,0,0-1.51,2.35c-.57,1.09-.64,1.41-1.69,1.14s-3.55,0-4.37-.83-.81-.69-.28-2,1.27-1.8,2.69-2.61a2.81,2.81,0,0,1,3.25,0A7.3,7.3,0,0,1,85.9,248.76Z"></path>
      <path class="cls-22" d="M103.93,252a2,2,0,0,0,1.85-.91c.49-1,.17-1.9-.18-2a3.76,3.76,0,0,0-.57,0c-.37,0-.22.93-.23,1S103.93,252,103.93,252Z"></path>
      <path class="cls-9" d="M102.61,251.53s1.29.76,1.68.37.88-.78.88-.78l-.09-.29a4,4,0,0,0-1.27-.16c-.21.11-.57.34-.66.38A4.72,4.72,0,0,0,102.61,251.53Z"></path>
      <path class="cls-10" d="M102.51,251.37c.06.12.24.42.55.24a5.5,5.5,0,0,0,.6-.42s.12-1.09.17-1.28.13-.28-.33,0-.54.16-.82.54A1.32,1.32,0,0,0,102.51,251.37Z"></path>
      <path class="cls-11" d="M103.66,251.19a6.76,6.76,0,0,0,0-.9c-.05-.39-.08-.49.24-.6s1-.62,1.32-.56.34,0,.43.48a1.63,1.63,0,0,1-.25,1.18.89.89,0,0,1-.86.59A2.25,2.25,0,0,1,103.66,251.19Z"></path>
      <path class="cls-22" d="M59.59,254.32a2,2,0,0,0,1.85-.91c.49-1,.17-1.89-.18-2a3.77,3.77,0,0,0-.57,0c-.37,0-.22.94-.23,1S59.59,254.32,59.59,254.32Z"></path>
      <path class="cls-9" d="M58.27,253.84s1.29.76,1.68.37.88-.77.88-.77l-.08-.3a4.39,4.39,0,0,0-1.28-.16c-.21.11-.57.34-.66.38A4.72,4.72,0,0,0,58.27,253.84Z"></path>
      <path class="cls-10" d="M58.17,253.68c.06.12.24.42.56.24a4.56,4.56,0,0,0,.59-.42s.12-1.09.17-1.28.13-.28-.33,0-.54.17-.82.54A1.39,1.39,0,0,0,58.17,253.68Z"></path>
      <path class="cls-11" d="M59.32,253.5a5.17,5.17,0,0,0,0-.89c-.05-.4-.08-.5.25-.61s.95-.62,1.32-.56.33,0,.42.48a1.59,1.59,0,0,1-.25,1.18.88.88,0,0,1-.86.59A2.25,2.25,0,0,1,59.32,253.5Z"></path>
      <path class="cls-22" d="M72.26,252.73a2.58,2.58,0,0,0,2.43-1c.72-1.24.38-2.4,0-2.53a6.78,6.78,0,0,0-.73,0c-.47,0-.36,1.18-.38,1.2S72.26,252.73,72.26,252.73Z"></path>
      <path class="cls-9" d="M70.62,252s1.58,1.09,2.11.63a13.34,13.34,0,0,1,1.18-.91l-.08-.39a5.27,5.27,0,0,0-1.61-.31c-.27.12-.75.38-.87.43A6,6,0,0,0,70.62,252Z"></path>
      <path class="cls-10" d="M70.5,251.79c.07.15.27.55.69.34a6.13,6.13,0,0,0,.8-.47s.25-1.38.32-1.62.19-.34-.42,0-.7.16-1.09.62A1.75,1.75,0,0,0,70.5,251.79Z"></path>
      <path class="cls-11" d="M72,251.66a8.4,8.4,0,0,0,.06-1.14c0-.51-.06-.64.36-.76s1.28-.7,1.73-.59.43.08.51.65a2.09,2.09,0,0,1-.43,1.48,1.16,1.16,0,0,1-1.15.68A3.13,3.13,0,0,1,72,251.66Z"></path>
      <path class="cls-22" d="M81.5,250.93a1.63,1.63,0,0,1,1.5-.23c.74.34.93.93.76,1.11a2.29,2.29,0,0,1-.34.21c-.23.14-.55-.41-.56-.41Z"></path>
      <path class="cls-9" d="M80.92,251.69s.44-.9.85-.84a8,8,0,0,0,.86.07l.08.19s-.53.55-.7.57-.48,0-.56.06S80.92,251.69,80.92,251.69Z"></path>
      <path class="cls-10" d="M80.93,251.82c0-.09,0-.32.23-.34a3.35,3.35,0,0,1,.54,0s.55.52.66.61.2.09-.19.13-.4.12-.73,0A.94.94,0,0,1,80.93,251.82Z"></path>
      <path class="cls-11" d="M81.7,251.47a3.39,3.39,0,0,1,.38.48c.15.22.17.29.41.22s.85,0,1-.21.18-.16,0-.42a1.17,1.17,0,0,0-.66-.53.76.76,0,0,0-.78,0A1.57,1.57,0,0,0,81.7,251.47Z"></path>
      <path class="cls-22" d="M95.07,247.11s-3.12-2.31-5.88-.64-3.35,4.33-2.63,5.05a10.94,10.94,0,0,0,1.39.86c.93.54,2-1.93,2.06-1.95S95.07,247.11,95.07,247.11Z"></path>
      <path class="cls-9" d="M97.52,250.33s-1.94-3.85-3.49-3.51-3.33.53-3.33.53l-.25.85s2.18,2.29,2.85,2.35,1.89.06,2.19.1A14.75,14.75,0,0,0,97.52,250.33Z"></path>
      <path class="cls-10" d="M97.53,250.86c0-.38.06-1.38-1-1.42a14.92,14.92,0,0,0-2.1.07s-2,2.46-2.39,2.87-.74.46.79.53,1.58.43,2.82,0A3.9,3.9,0,0,0,97.53,250.86Z"></path>
      <path class="cls-11" d="M94.45,249.51a18.49,18.49,0,0,0-1.35,2.2c-.5,1-.56,1.32-1.53,1.1s-3.29,0-4.07-.69-.75-.62-.29-1.83a4.59,4.59,0,0,1,2.44-2.47,2.6,2.6,0,0,1,3-.1A6.6,6.6,0,0,1,94.45,249.51Z"></path>
      <path class="cls-22" d="M78.39,250.73s-2.56-.47-3.72,1.35-.73,3.58-.09,3.8a6,6,0,0,0,1.09.11c.72.05.63-1.74.66-1.78S78.39,250.73,78.39,250.73Z"></path>
      <path class="cls-9" d="M80.81,251.93s-2.3-1.73-3.13-1.07-1.84,1.3-1.84,1.3l.1.58a7.94,7.94,0,0,0,2.4.58c.42-.17,1.16-.53,1.35-.59A11.22,11.22,0,0,0,80.81,251.93Z"></path>
      <path class="cls-10" d="M81,252.25c-.1-.24-.37-.85-1-.56a10,10,0,0,0-1.23.66s-.46,2.06-.59,2.43-.31.49.63.08,1.07-.2,1.68-.86A2.62,2.62,0,0,0,81,252.25Z"></path>
      <path class="cls-11" d="M78.73,252.35a11.06,11.06,0,0,0-.16,1.72c0,.76.05,1-.6,1.11s-2,1-2.64.79-.64-.16-.72-1a3.09,3.09,0,0,1,.74-2.2,1.73,1.73,0,0,1,1.77-.95A4.62,4.62,0,0,1,78.73,252.35Z"></path>
    </g>
  </g>
</svg>
