<?xml version="1.0" encoding="UTF-8"?>
<svg xmlns="http://www.w3.org/2000/svg" xmlns:xlink="http://www.w3.org/1999/xlink" viewBox="0 0 110.12 204.15">
  <defs>
    <style>.cls-1{fill:none;}.cls-2{fill:#8e6848;}.cls-3{clip-path:url(#clip-path);}.cls-4{fill:url(#Безымянный_градиент_2);}.cls-5{fill:#713e21;}.cls-6{fill:#3d271f;}.cls-7{fill:#69391e;}.cls-8{fill:#6b472f;}.cls-9{fill:#5c3624;}.cls-10{fill:#795135;}.cls-11{fill:#9a734f;}.cls-12{fill:#fff;}.cls-13{fill:#deee86;}.cls-14{fill:#f0f5ad;}.cls-15{fill:#e5f199;}.cls-16{fill:#85563a;}.cls-17{fill:#98a945;}.cls-18{fill:#abc847;}.cls-19{fill:#879c3e;}.cls-20{fill:#aea748;}.cls-21{fill:#6b482f;}</style>
    <clipPath id="clip-path">
      <polygon class="cls-1" points="7.72 175.47 57.69 198.99 103.91 175.59 55.86 155.22 7.72 175.47"></polygon>
    </clipPath>
    <linearGradient id="Безымянный_градиент_2" x1="-3304.96" y1="-23.72" x2="-3302.16" y2="-23.72" gradientTransform="matrix(34.36, 0, 0, -34.36, 113542.2, -637.75)" gradientUnits="userSpaceOnUse">
      <stop offset="0" stop-color="#9b714e"></stop>
      <stop offset="0.38" stop-color="#9b714e"></stop>
      <stop offset="0.89" stop-color="#764528"></stop>
      <stop offset="1" stop-color="#6e3c20"></stop>
    </linearGradient>
  </defs>
  <g id="Слой_2" data-name="Слой 2">
    <g id="Слой_1-2" data-name="Слой 1">
      <path class="cls-2" d="M57.69,132.84s9.62,11.3,17.06,11.76S107.56,137,107.56,137l2.56-26.43L57.69,92.11Z"></path>
      <path class="cls-2" d="M0,108.73,5.23,143.2s18.58,2.79,21.83,1.87,18.12-6.51,22.29-6.51,8.34-5.73,8.34-5.73V92.11Z"></path>
      <g class="cls-3">
        <rect class="cls-4" x="31.38" y="127.91" width="48.87" height="98.4" transform="translate(-124.03 223.34) rotate(-86.92)"></rect>
      </g>
      <path class="cls-5" d="M7.72,175.47,5.23,143.21s23.69-.47,30.19-3.72,22.27-6.66,22.27-6.66l-1.83,22.4Z"></path>
      <path class="cls-6" d="M41.49,145.21a8.56,8.56,0,0,0-2.84-1.67l0,0s-3.79-1.13-5.85,1.42-1.71,5.28-.77,5.73a11.08,11.08,0,0,0,1.63.34l.09,0a28.19,28.19,0,0,0,3.51-.8,1.56,1.56,0,0,0,.6-.16,6.26,6.26,0,0,0,.65-.19c1.49-.45,1.67-.12,2.69-1a4,4,0,0,0,1.09-2.55l-.21-.5h0l0,0a1,1,0,0,0-.58-.5"></path>
      <path class="cls-6" d="M21.2,148.54a11,11,0,0,0-4,1.32v0s-4.3,2.7-3.59,6.85,3.66,6.13,4.88,5.6A14.71,14.71,0,0,0,20.18,161l0-.13c.92-1.06,1.59-3.17,2.21-4.06a2,2,0,0,0,.35-.72c.11-.2.21-.42.38-.79.8-1.81,1.28-1.71,1.29-3.45a5.09,5.09,0,0,0-1.54-3.21,4.07,4.07,0,0,0-.66-.23v0h-.08a1.27,1.27,0,0,0-1,.14"></path>
      <path class="cls-7" d="M57.69,132.84l-1.83,22.39,48.06,20.36L107.56,137s-15-1.73-21.48-.81S68.24,140,64.84,138.1a45.07,45.07,0,0,1-7.15-5.26"></path>
      <path class="cls-6" d="M39.39,155.84a3.29,3.29,0,0,0-1.26-.31h0a2.31,2.31,0,0,0-2,1.19c-.49,1.18-.05,2.17.35,2.23l.65-.05,0,0a10.59,10.59,0,0,0,1.23-.69l.21-.13.22-.14c.51-.34.61-.23.9-.68a1.59,1.59,0,0,0,.12-1.08l-.13-.16h0Z"></path>
      <path class="cls-6" d="M86.47,146.2a2.27,2.27,0,0,0-.11-.89h0s-.38-1-1.27-1-1.43.5-1.38.78l.2.41h0l.75.63.13.1.15.11c.35.25.3.34.66.41a1.08,1.08,0,0,0,.74-.18l.07-.13h0Z"></path>
      <path class="cls-6" d="M99.89,162.38a10.91,10.91,0,0,0-1.9-3.81h0s-3.32-3.91-7.36-2.6-5.59,4.54-4.88,5.68a15.32,15.32,0,0,0,1.52,1.53h.14c1.19.77,3.39,1.14,4.37,1.62a2.18,2.18,0,0,0,.77.25c.22.08.45.15.84.26,1.93.55,1.9,1,3.64.79a5.15,5.15,0,0,0,3-2,3.87,3.87,0,0,0,.13-.69h0l0-.07a1.27,1.27,0,0,0-.28-1"></path>
      <path class="cls-6" d="M73.78,149.1a8.37,8.37,0,0,0-1.87,2.69l0,0s-1.4,3.66,1,5.9,5.11,2.08,5.62,1.19a13,13,0,0,0,.46-1.59l0-.1a27.58,27.58,0,0,0-.52-3.53,1.67,1.67,0,0,0-.12-.61c0-.17-.07-.36-.13-.66-.35-1.5,0-1.66-.81-2.74a3.94,3.94,0,0,0-2.44-1.26l-.51.17v0l0,0a1,1,0,0,0-.54.54"></path>
      <path class="cls-8" d="M74,176.48a1.59,1.59,0,0,0,1.57-.42c.54-.7.43-1.43.17-1.54l-.44-.09c-.29-.05-.32.69-.33.7Z"></path>
      <path class="cls-9" d="M73,175.9s.87.79,1.23.55.8-.46.8-.46l0-.25-1-.31-.56.19Z"></path>
      <path class="cls-10" d="M73,175.76c0,.1.12.36.4.27a4.1,4.1,0,0,0,.52-.23l.33-1c.06-.15.14-.19-.25-.06s-.45,0-.72.29a1.07,1.07,0,0,0-.28.69"></path>
      <path class="cls-11" d="M73.88,175.8a5.25,5.25,0,0,0,.13-.69c0-.31,0-.39.28-.43s.84-.33,1.11-.23.26.09.26.44a1.24,1.24,0,0,1-.39.87.71.71,0,0,1-.75.33,1.82,1.82,0,0,1-.64-.29"></path>
      <path class="cls-8" d="M63.28,170.35s2.39.13,3.24-1.67.26-3.36-.36-3.49a7.39,7.39,0,0,0-1,0c-.66,0-.37,1.67-.39,1.7Z"></path>
      <path class="cls-9" d="M60.93,169.53s2.3,1.32,3,.61,1.53-1.4,1.53-1.4l-.15-.52A7.25,7.25,0,0,0,63,168c-.36.2-1,.62-1.16.69Z"></path>
      <path class="cls-10" d="M60.74,169.25c.11.21.43.74,1,.4a8.38,8.38,0,0,0,1.05-.75S63,167,63,166.62s.22-.49-.58,0-1,.31-1.44,1a2.38,2.38,0,0,0-.28,1.65"></path>
      <path class="cls-11" d="M62.78,168.9a10.92,10.92,0,0,0-.05-1.58c-.09-.7-.16-.88.42-1.09s1.68-1.12,2.32-1,.6.06.77.84a2.88,2.88,0,0,1-.41,2.1,1.62,1.62,0,0,1-1.52,1.07,4.11,4.11,0,0,1-1.53-.32"></path>
      <path class="cls-8" d="M53.32,178.12s1.86,1.42,3.54.43,2-2.58,1.62-3a7,7,0,0,0-.84-.53c-.55-.33-1.21,1.15-1.25,1.16Z"></path>
      <path class="cls-9" d="M51.86,176.17s1.15,2.33,2.08,2.13,2-.29,2-.29l.16-.51s-1.29-1.4-1.7-1.44-1.14,0-1.32-.07Z"></path>
      <path class="cls-10" d="M51.86,175.84c0,.23,0,.84.59.87a8.3,8.3,0,0,0,1.26,0L55.17,175c.25-.24.45-.27-.47-.32s-1-.27-1.7,0a2.39,2.39,0,0,0-1.14,1.19"></path>
      <path class="cls-11" d="M53.71,176.68a10.69,10.69,0,0,0,.83-1.32c.3-.61.35-.79.93-.64s2,0,2.44.44.45.38.17,1.11a2.8,2.8,0,0,1-1.49,1.46,1.54,1.54,0,0,1-1.81,0,3.92,3.92,0,0,1-1.07-1.09"></path>
      <path class="cls-8" d="M49,171.68a2.67,2.67,0,0,0,.1-2.73c-.86-1.2-2.11-1.39-2.41-1l-.35.67c-.22.44,1,.85,1,.88Z"></path>
      <path class="cls-9" d="M47.63,172.92s1.7-1,1.49-1.73a15.08,15.08,0,0,1-.35-1.51l-.4-.09s-1,1.08-1,1.4,0,.87,0,1Z"></path>
      <path class="cls-10" d="M47.39,172.94c.18,0,.63,0,.62-.5a7.72,7.72,0,0,0-.11-1l-1.4-1c-.2-.17-.23-.32-.21.38s-.15.74.12,1.3a1.8,1.8,0,0,0,1,.78"></path>
      <path class="cls-11" d="M47.9,171.48a7.93,7.93,0,0,0-1.06-.54c-.49-.2-.62-.22-.55-.68s-.13-1.5.17-1.88.26-.37.84-.2a2.1,2.1,0,0,1,1.21,1,1.19,1.19,0,0,1,.15,1.38,3,3,0,0,1-.76.89"></path>
      <path class="cls-8" d="M40.56,173.69a1.15,1.15,0,0,0,.38-1.11c-.2-.61-.69-.85-.86-.74l-.23.23.29.49Z"></path>
      <path class="cls-9" d="M39.82,174s.83-.21.84-.53,0-.67,0-.67l-.15-.08-.58.44-.12.43Z"></path>
      <path class="cls-10" d="M39.71,174l.33-.13.08-.41-.46-.59c-.06-.1,0-.17-.13.12s-.16.29-.12.56a.81.81,0,0,0,.3.45"></path>
      <path class="cls-11" d="M40.12,173.47l-.37-.36-.15-.35.32-.76.37,0a1,1,0,0,1,.37.59.51.51,0,0,1-.12.59Z"></path>
      <path class="cls-8" d="M38,178.37s1.64-2.64.13-4.73-3.65-2.39-4.18-1.77a8.24,8.24,0,0,0-.6,1.17c-.37.77,1.66,1.46,1.69,1.51Z"></path>
      <path class="cls-9" d="M35.56,180.52s2.94-1.8,2.56-3-.63-2.62-.63-2.62l-.69-.15s-1.69,1.88-1.69,2.42.08,1.52.06,1.75Z"></path>
      <path class="cls-10" d="M35.13,180.56c.31,0,1.1,0,1.07-.87A12.17,12.17,0,0,0,36,178s-2.09-1.42-2.44-1.72-.41-.56-.36.66-.25,1.28.21,2.24a3.15,3.15,0,0,0,1.71,1.35"></path>
      <path class="cls-11" d="M36,178a13.69,13.69,0,0,0-1.84-.94c-.85-.33-1.08-.36-1-1.15s-.23-2.61.29-3.28.45-.64,1.44-.35a3.69,3.69,0,0,1,2.12,1.78,2.07,2.07,0,0,1,.27,2.39A5.33,5.33,0,0,1,36,178"></path>
      <path class="cls-12" d="M58,133.84a2.66,2.66,0,0,1,.79,1.88,5.38,5.38,0,0,1-.24,1.85A12.86,12.86,0,0,1,57,140.82c-.33.51-.61,1-.9,1.48a8.14,8.14,0,0,0-.62,1.57,6.82,6.82,0,0,0-.07,3.33c.52,2.24,1.9,4.18,3.13,6.15a17.43,17.43,0,0,1,1.66,3.1,6,6,0,0,1,.43,1.72,2,2,0,0,1-.51,1.68.05.05,0,0,1-.08,0,.06.06,0,0,1,0-.08h0a1.85,1.85,0,0,0,.42-1.57,6,6,0,0,0-.46-1.65,18,18,0,0,0-1.71-3c-1.28-1.93-2.73-3.85-3.34-6.2a7.23,7.23,0,0,1,0-3.58,8.43,8.43,0,0,1,.62-1.7c.29-.53.59-1.05.88-1.54a12.15,12.15,0,0,0,1.36-3.1,4.72,4.72,0,0,0,.18-1.61,2.07,2.07,0,0,0-.51-1.29l-.06,0a.4.4,0,0,1,0-.57.41.41,0,0,1,.57,0Z"></path>
      <path class="cls-12" d="M58.4,136.31a2,2,0,0,1,.73.32,3.84,3.84,0,0,1,.58.47,6.35,6.35,0,0,1,.93,1.14,0,0,0,0,1,0,.07,0,0,0,0,1-.07,0,6.89,6.89,0,0,0-1-1,3.22,3.22,0,0,0-.58-.38,1.76,1.76,0,0,0-.6-.22h0a.19.19,0,0,1-.17-.21.18.18,0,0,1,.2-.16Z"></path>
      <path class="cls-12" d="M57.71,138.63a1.67,1.67,0,0,1,1,.51,1.46,1.46,0,0,1,.35,1,5.5,5.5,0,0,0,.08.91.82.82,0,0,0,.41.68.08.08,0,0,1,0,.09.07.07,0,0,1-.08,0,1,1,0,0,1-.61-.75,7.72,7.72,0,0,1-.2-.93,1,1,0,0,0-.32-.69,1.26,1.26,0,0,0-.69-.27h0a.29.29,0,1,1,0-.58Z"></path>
      <path class="cls-12" d="M57.13,140.2a4.16,4.16,0,0,0-1.61,0,2.8,2.8,0,0,0-1.43.75.11.11,0,0,1-.15,0,.11.11,0,0,1,0-.14,3.15,3.15,0,0,1,1.49-1,4.57,4.57,0,0,1,1.81-.18.27.27,0,0,1,.25.3.28.28,0,0,1-.3.25h0Z"></path>
      <path class="cls-12" d="M55.88,142.31a4.23,4.23,0,0,0-3.24.58.05.05,0,0,1-.08,0,.06.06,0,0,1,0-.08,3.27,3.27,0,0,1,1.58-.83,6.36,6.36,0,0,1,1.8-.14.23.23,0,0,1,.23.25.24.24,0,0,1-.25.23h0Z"></path>
      <path class="cls-12" d="M55.56,142.55a1.21,1.21,0,0,1,1.16.44,2.34,2.34,0,0,1,.28,1.14c0,.18,0,.35.17.42a4.25,4.25,0,0,1,.46.32,6.72,6.72,0,0,1,.8.8.05.05,0,0,1,0,.08.06.06,0,0,1-.08,0,7.12,7.12,0,0,0-.82-.73,4.19,4.19,0,0,0-.47-.29.77.77,0,0,1-.29-.55,2.36,2.36,0,0,0-.28-1,.88.88,0,0,0-.85-.25h0a.18.18,0,0,1-.22-.15.18.18,0,0,1,.15-.21Z"></path>
      <path class="cls-12" d="M55.08,144.68a2.64,2.64,0,0,0-1.63.41,1.18,1.18,0,0,0-.45.66,2.18,2.18,0,0,1-.3.9c-.44.55-1.14.56-1.65.84a1,1,0,0,0-.48.7l-.26.88h0l.21-.89a1,1,0,0,1,.48-.77c.53-.32,1.21-.39,1.53-.88a1.77,1.77,0,0,0,.22-.84,1.51,1.51,0,0,1,.51-.84,3,3,0,0,1,1.83-.58.2.2,0,0,1,.21.2.19.19,0,0,1-.19.21h0Z"></path>
      <path class="cls-12" d="M51.3,147.29c0-.34-.42-.51-.77-.5a3.57,3.57,0,0,0-1.06.18,13.54,13.54,0,0,0-2,.86h0a0,0,0,0,1,0,0,13.24,13.24,0,0,1,2-.89,3.33,3.33,0,0,1,1.08-.2c.36,0,.84.14.88.59a0,0,0,0,1,0,.06s0,0-.06,0h0Z"></path>
      <path class="cls-12" d="M55.32,147.43a10.71,10.71,0,0,0-2.66,2.71,7.72,7.72,0,0,0-.87,1.69,6.34,6.34,0,0,0-.37,1.87.07.07,0,0,1-.06.07s-.06,0-.06-.07a6.71,6.71,0,0,1,.31-1.93,8.21,8.21,0,0,1,.84-1.77,10.88,10.88,0,0,1,2.66-2.88.18.18,0,0,1,.26,0,.19.19,0,0,1,0,.26h0Z"></path>
      <path class="cls-12" d="M56.67,150.73a2.67,2.67,0,0,0-1.58.49,1.21,1.21,0,0,0-.4.7,2,2,0,0,0,0,.83h0v0a2.52,2.52,0,0,1-.54.72c-.12.1-.25.16-.28.26s0,.21.14.28h0a.07.07,0,0,1,0,.11s-.07,0-.11,0h0a.42.42,0,0,1-.2-.46c.08-.18.24-.24.33-.33a2.21,2.21,0,0,0,.51-.66v0a2.27,2.27,0,0,1-.05-.9,1.32,1.32,0,0,1,.45-.79,2.76,2.76,0,0,1,1.68-.54.09.09,0,1,1,0,.17h0Z"></path>
      <path class="cls-12" d="M58,152.84a1.5,1.5,0,0,0-.83.46,2.59,2.59,0,0,0-.54.83,5.92,5.92,0,0,0-.42,2,.07.07,0,0,1-.08.07.07.07,0,0,1-.07-.08,6.08,6.08,0,0,1,.43-2,2.12,2.12,0,0,1,1.5-1.39.09.09,0,0,1,.09.07.08.08,0,0,1-.06.09h0Z"></path>
      <path class="cls-12" d="M59.13,154.48a4.67,4.67,0,0,0-1,1.21,1.55,1.55,0,0,0-.14,1.46s0,0,0,0h0a1.69,1.69,0,0,1,.11-1.53,4.88,4.88,0,0,1,.93-1.28.09.09,0,0,1,.1,0,.07.07,0,0,1,0,.1Z"></path>
      <path class="cls-12" d="M59.78,155.73a1.1,1.1,0,0,1,.83,0,2.7,2.7,0,0,1,.72.36,5.89,5.89,0,0,1,1.11,1.12v0h0a5.67,5.67,0,0,0-1.14-1,2.25,2.25,0,0,0-.69-.31,1,1,0,0,0-.7.05h0a.08.08,0,1,1-.08-.14Z"></path>
      <path class="cls-12" d="M60.57,157.74l1.87,1.18h0a0,0,0,0,1,0,0h0l-1.92-1.09a.09.09,0,0,1,0-.11.07.07,0,0,1,.11,0Z"></path>
      <path class="cls-12" d="M55.82,148.89a4.18,4.18,0,0,1,2,.4,7,7,0,0,1,1.64,1.09,10.56,10.56,0,0,1,1.32,1.43,17.24,17.24,0,0,1,1,1.62.08.08,0,1,1-.13.08,15.67,15.67,0,0,0-1.09-1.57,9,9,0,0,0-1.33-1.36,6.23,6.23,0,0,0-1.59-1,3.88,3.88,0,0,0-1.78-.33h0a.19.19,0,0,1-.21-.17.19.19,0,0,1,.17-.2Z"></path>
      <path class="cls-12" d="M56.51,149a6.72,6.72,0,0,1,.93-1.18,4.67,4.67,0,0,1,1.22-.89,2.7,2.7,0,0,1,1.48-.24,3.18,3.18,0,0,1,1.36.58,0,0,0,0,1,0,.06s0,0-.06,0h0a3.07,3.07,0,0,0-1.33-.49,2.48,2.48,0,0,0-1.36.29,5.16,5.16,0,0,0-1.92,2h0a.18.18,0,0,1-.25.07.19.19,0,0,1-.08-.25Z"></path>
      <path class="cls-12" d="M58.47,149.7s-.12,0-.13,0h0l0,0,.06,0,.12-.08.26-.15a2.25,2.25,0,0,1,.57-.19,1.59,1.59,0,0,1,1.15.19s0,0,0,0,0,0,0,0a1.5,1.5,0,0,0-1.1-.09,1.92,1.92,0,0,0-.51.22l-.23.16-.11.08,0,.05,0,0v0a.15.15,0,0,1-.17,0,.12.12,0,0,1,0-.17A.14.14,0,0,1,58.47,149.7Z"></path>
      <path class="cls-12" d="M59.62,150.69a3.09,3.09,0,0,0-.34.87.69.69,0,0,0,.27.78,0,0,0,0,1,0,.07s0,0-.05,0a.8.8,0,0,1-.37-.88,2.93,2.93,0,0,1,.3-.95.09.09,0,0,1,.13,0,.09.09,0,0,1,0,.13Z"></path>
      <path class="cls-12" d="M60.57,151.72a2.83,2.83,0,0,1,2.25.63,0,0,0,0,1,0,.06s0,0,0,0a3.47,3.47,0,0,0-1-.51,2.25,2.25,0,0,0-1.12,0h0a.09.09,0,0,1-.1-.06.08.08,0,0,1,.06-.1Z"></path>
      <path class="cls-12" d="M55,146a8.8,8.8,0,0,1,1.15.13,4,4,0,0,1,.57.15,1,1,0,0,1,.5.37.08.08,0,0,1,0,.1.07.07,0,0,1-.09,0h0a1.46,1.46,0,0,0-1-.33,8.24,8.24,0,0,0-1.11,0,.18.18,0,0,1-.2-.17A.19.19,0,0,1,55,146Z"></path>
      <path class="cls-12" d="M54.49,132.66a1.82,1.82,0,0,0-1.1,1.18,9.13,9.13,0,0,0-.17,1.92,1.43,1.43,0,0,1-.61,1.08,2.87,2.87,0,0,1-1.08.23.9.9,0,0,0-.68.32,1.13,1.13,0,0,0-.26.76c0,.3.07.61.09,1a1.23,1.23,0,0,1,0,.32.67.67,0,0,1-.19.33,1.52,1.52,0,0,0-.27.35c-.34.54-.63,1.14-.94,1.72a13.29,13.29,0,0,0-.78,1.82,3.51,3.51,0,0,1-1,1.73h0a0,0,0,0,1,0-.05,3.33,3.33,0,0,0,.83-1.74,14.32,14.32,0,0,1,.65-1.91,13.23,13.23,0,0,1,.88-1.82,2.36,2.36,0,0,1,.32-.45c.08-.07.07-.11.07-.27a8.77,8.77,0,0,1-.12-1,1.69,1.69,0,0,1,.34-1.1,1.45,1.45,0,0,1,1-.56,3,3,0,0,0,.86-.18.87.87,0,0,0,.29-.63,7.18,7.18,0,0,1,.19-2,1.75,1.75,0,0,1,1.68-1.36.18.18,0,0,1,.17.2.18.18,0,0,1-.11.16Z"></path>
      <path class="cls-12" d="M49,141.89a2,2,0,0,0-.92,0,2.85,2.85,0,0,0-.89.35,5.21,5.21,0,0,0-1.43,1.34.09.09,0,1,1-.14-.1A5.2,5.2,0,0,1,47.12,142a2.61,2.61,0,0,1,2-.38.12.12,0,0,1-.06.24h0Z"></path>
      <path class="cls-12" d="M47,142.33l-2.46.32s-.05,0-.06,0a.05.05,0,0,1,0-.05l2.45-.37s.07,0,.08.06,0,.07-.06.08Z"></path>
      <path class="cls-12" d="M50.21,139.7a3.19,3.19,0,0,1,1.07,2.38c0,.44,0,.87-.05,1.3a5.2,5.2,0,0,0-.06,1.23v0a.06.06,0,0,1,0,.06,0,0,0,0,1-.06,0,4.82,4.82,0,0,1,0-1.31,8.83,8.83,0,0,0,0-1.26,3.11,3.11,0,0,0-.3-1.18A2.71,2.71,0,0,0,50,140h0a.19.19,0,0,1,0-.27.19.19,0,0,1,.26,0Z"></path>
      <path class="cls-12" d="M50.51,138.14c-.14.48-.22.92-.42,1.43a2.33,2.33,0,0,1-1.33.69,3.11,3.11,0,0,1-.74.05l-.7,0a7.64,7.64,0,0,0-1.39.19h0s0,0,0,0,0,0,0,0a7.92,7.92,0,0,1,1.42-.28c.47-.08,1,0,1.41-.14a2.19,2.19,0,0,0,1.13-.64c.11-.38.2-.89.31-1.33v0a.19.19,0,0,1,.37.09Z"></path>
      <path class="cls-12" d="M50.45,137.71a5.47,5.47,0,0,0-1.79.35,1.72,1.72,0,0,0-1.17,1.25.08.08,0,0,1-.09.06.07.07,0,0,1-.07-.08,1.93,1.93,0,0,1,1.22-1.47,5.6,5.6,0,0,1,1.89-.48.18.18,0,0,1,.2.16.19.19,0,0,1-.17.21h0Z"></path>
      <path class="cls-12" d="M49,137.85c-.28,0-.55,0-.83-.08l-.41-.09c-.14,0-.26-.16-.36-.19s-.48.18-.74.24-.5.17-.81.23c0,0,0,0,0,0a0,0,0,0,1,0-.06h0c.22-.05.52-.16.77-.23s.46-.26.8-.24a1.68,1.68,0,0,0,.76.26c.27,0,.54.06.81.08a.06.06,0,0,1,.06.06.06.06,0,0,1-.06.06Z"></path>
      <path class="cls-12" d="M52.84,136.36a4.94,4.94,0,0,0,.58.95,2.83,2.83,0,0,0,.37.4.76.76,0,0,1,.28.7,3,3,0,0,1-.4,1.18,8.42,8.42,0,0,1-.64,1,.08.08,0,0,1-.11,0,.08.08,0,0,1,0-.1h0a6.83,6.83,0,0,0,.52-1.05,3,3,0,0,0,.27-1.08.36.36,0,0,0-.17-.34,3.21,3.21,0,0,1-.48-.42,5,5,0,0,1-.76-1,.31.31,0,0,1,.12-.42.3.3,0,0,1,.42.11l0,0Z"></path>
      <path class="cls-12" d="M53.21,137.34a2,2,0,0,1,.76.17,3.61,3.61,0,0,1,.65.33,7.06,7.06,0,0,1,1.14.88.07.07,0,0,1,0,.09.06.06,0,0,1-.09,0,7.32,7.32,0,0,0-1.17-.76,5.59,5.59,0,0,0-.63-.26,2.13,2.13,0,0,0-.63-.09h0a.18.18,0,0,1-.2-.17.18.18,0,0,1,.17-.2Z"></path>
      <path class="cls-12" d="M53.11,133.83l1.53,1c.25.18.5.34.75.55s.25.63.37.85v0a.05.05,0,0,1,0,.08.06.06,0,0,1-.08,0c-.19-.3-.21-.62-.41-.8s-.5-.32-.76-.48l-1.58-.91a.19.19,0,0,1-.08-.25.19.19,0,0,1,.26-.08Z"></path>
      <path class="cls-12" d="M53.72,132.94a4.48,4.48,0,0,1-1.27-.06,4.66,4.66,0,0,0-1.23,0,.54.54,0,0,0-.22.1,2.38,2.38,0,0,1-.31.17c-.21.1-.41.17-.62.25-.41.14-.87.24-1.23.37h0a.08.08,0,0,1-.09-.05.07.07,0,0,1,0-.09c.42-.21.81-.35,1.2-.53a5.07,5.07,0,0,0,.57-.29,2,2,0,0,0,.24-.16,1.13,1.13,0,0,1,.36-.19,5.35,5.35,0,0,1,1.36-.11,3.11,3.11,0,0,1,1.31.24.21.21,0,0,1,.08.27.18.18,0,0,1-.14.1Z"></path>
      <path class="cls-12" d="M51.76,132.76a1.5,1.5,0,0,0-.92.64,9.53,9.53,0,0,1-.35,1.24,2.14,2.14,0,0,1-.88,1,7.56,7.56,0,0,1-1.16.61.08.08,0,0,1-.11,0,.08.08,0,0,1,0-.1,7.57,7.57,0,0,0,1.1-.65,1.86,1.86,0,0,0,.75-.94,11.36,11.36,0,0,0,.3-1.27,1.9,1.9,0,0,1,1.11-.87.19.19,0,0,1,.13.35h0Z"></path>
      <path class="cls-12" d="M59.41,132.64c1.22,1.19,2.4,2.38,3.72,3.51a5.35,5.35,0,0,1,1,2.45,6.79,6.79,0,0,1,.06,2.62,24.67,24.67,0,0,0-.36,2.5,3.89,3.89,0,0,0,.6,2.35,23.59,23.59,0,0,1,1.33,2.19,5.54,5.54,0,0,1,.53,2.53.1.1,0,0,1-.2,0,5.34,5.34,0,0,0-.56-2.42,24.74,24.74,0,0,0-1.36-2.14,4.17,4.17,0,0,1-.7-2.52,23.37,23.37,0,0,1,.31-2.55,6.37,6.37,0,0,0-.11-2.46,5,5,0,0,0-1-2.19c-1.3-1-2.55-2.27-3.78-3.43a.3.3,0,0,1,0-.44.31.31,0,0,1,.44,0Z"></path>
      <path class="cls-12" d="M66,149.13a8.73,8.73,0,0,0-.85.87,2.24,2.24,0,0,0-.55,1h0a.06.06,0,0,1-.07,0s-.06,0-.06-.07a2.37,2.37,0,0,1,.56-1.13,7.33,7.33,0,0,1,.85-.91.1.1,0,0,1,.13.14Z"></path>
      <path class="cls-12" d="M64.66,146.62a3.11,3.11,0,0,0-1.11,2.45.07.07,0,1,1-.13,0,3,3,0,0,1,.23-1.44,3.65,3.65,0,0,1,.84-1.22.14.14,0,0,1,.19,0,.13.13,0,0,1,0,.19h0Z"></path>
      <path class="cls-12" d="M64,145.64a.76.76,0,0,1,1-.16,2.92,2.92,0,0,1,.78.48A11,11,0,0,1,67,147.24a.05.05,0,1,1-.08.07,10.51,10.51,0,0,0-1.3-1.2,2.61,2.61,0,0,0-.74-.42c-.25-.11-.57-.08-.66.08l0,0a.14.14,0,0,1-.18.05.13.13,0,0,1,0-.18Z"></path>
      <path class="cls-12" d="M64,138.94a4.45,4.45,0,0,0-1.27.95,5.07,5.07,0,0,0-.88,1.35,5.31,5.31,0,0,0-.39,1.58,7.59,7.59,0,0,0,0,1.65,0,0,0,0,1,0,.06s-.06,0-.07-.05a7.77,7.77,0,0,1-.1-1.67,5.85,5.85,0,0,1,.35-1.66,4.85,4.85,0,0,1,2.22-2.55.19.19,0,0,1,.18.33h0Z"></path>
      <path class="cls-12" d="M61.41,142.54a3.54,3.54,0,0,0-2.16,1.71.07.07,0,0,1-.11-.07,3.66,3.66,0,0,1,2.22-1.85.11.11,0,0,1,.14.07.11.11,0,0,1-.08.14h0Z"></path>
      <path class="cls-12" d="M60.86,131.69A21.75,21.75,0,0,0,63,133.22a4.57,4.57,0,0,0,2.44.77A3.65,3.65,0,0,1,68,135.05a3.79,3.79,0,0,1,.73,2.62.06.06,0,0,1-.06.06s0,0-.06-.06a3.78,3.78,0,0,0-.86-2.4,3.48,3.48,0,0,0-2.33-.87,4.41,4.41,0,0,1-1.37-.22,7.21,7.21,0,0,1-1.25-.6,14.43,14.43,0,0,1-2.2-1.61.18.18,0,1,1,.24-.28Z"></path>
      <path class="cls-12" d="M65.56,134.39a.47.47,0,0,0-.42.6,3.48,3.48,0,0,0,.49.93q.3.48.57,1a5.08,5.08,0,0,1,.47,1,.12.12,0,0,1-.08.13.11.11,0,0,1-.13-.07v0A5.74,5.74,0,0,0,66,137q-.28-.47-.6-.93a3.75,3.75,0,0,1-.57-1,.82.82,0,0,1,.1-.69.93.93,0,0,1,.57-.38.21.21,0,0,1,.24.14.19.19,0,0,1-.14.23h0Z"></path>
      <path class="cls-12" d="M61.64,132.44a4.78,4.78,0,0,1,1.69-.42,4.47,4.47,0,0,1,1.7.24c.55.21,1,.5,1.54.68a2.63,2.63,0,0,0,1.61.16h0s0,0,0,0a0,0,0,0,1,0,0,2.75,2.75,0,0,1-1.68-.08c-.55-.15-1.06-.44-1.57-.6a4.29,4.29,0,0,0-3.15.29h0a.18.18,0,0,1-.25-.09.19.19,0,0,1,.08-.25Z"></path>
      <path class="cls-12" d="M63.13,136.72a.74.74,0,0,1,.67-.31,1.07,1.07,0,0,1,.61.26,3.54,3.54,0,0,1,.78.87,6.41,6.41,0,0,1,.57,1,1,1,0,0,0,.68.66c.68.17,1.46.21,2.17.44a7,7,0,0,1,2.06.9.07.07,0,0,1,0,.1.07.07,0,0,1-.09,0l0,0a7.74,7.74,0,0,0-2-.8c-.71-.2-1.43-.19-2.2-.37a1.23,1.23,0,0,1-.55-.29,2.54,2.54,0,0,1-.34-.49,7.1,7.1,0,0,0-.57-.92,3.49,3.49,0,0,0-.72-.76c-.27-.21-.57-.21-.68,0h0a.22.22,0,0,1-.3.07.22.22,0,0,1-.07-.31Z"></path>
      <path class="cls-12" d="M67,139.33a9.47,9.47,0,0,1,1.89,1,3.22,3.22,0,0,1,.71.82,6.55,6.55,0,0,0,.71.77.08.08,0,0,1,0,.12.08.08,0,0,1-.12,0,6.21,6.21,0,0,1-.75-.79,3.25,3.25,0,0,0-.69-.78,9.22,9.22,0,0,0-1.85-1,.11.11,0,0,1-.07-.14.12.12,0,0,1,.14-.06Z"></path>
      <path class="cls-12" d="M64.16,140.81a4,4,0,0,0,1,1.25,2.63,2.63,0,0,1,.68.51c.19.22.3.52.44.7v0a.07.07,0,0,1,0,.1.09.09,0,0,1-.1,0,6.87,6.87,0,0,0-.48-.69,2.24,2.24,0,0,0-.67-.45A4.19,4.19,0,0,1,63.9,141a.15.15,0,0,1,0-.21.16.16,0,0,1,.21.05h0Z"></path>
      <path class="cls-12" d="M63.88,143.22a2.86,2.86,0,0,0,.86.47c.33.14.69.23,1,.36a8.8,8.8,0,0,1,2,1c.33.21.56.5.87.65a5.93,5.93,0,0,0,1,.38c.35.1.71.17,1.07.28a3.5,3.5,0,0,1,1,.59.06.06,0,0,1-.07.09,3.53,3.53,0,0,0-.94-.54c-.34-.09-.71-.15-1.07-.25a5.76,5.76,0,0,1-1.06-.36,7.43,7.43,0,0,1-.92-.64,8.85,8.85,0,0,0-2-.9c-.34-.11-.7-.2-1.06-.33a2.64,2.64,0,0,1-1.06-.59.18.18,0,0,1,0-.25.18.18,0,0,1,.26,0h0Z"></path>
      <path class="cls-12" d="M69,145.84a11.56,11.56,0,0,1,1,1.65,3.89,3.89,0,0,1,.52,1.87.07.07,0,0,1-.07.07.07.07,0,0,1-.08-.08h0a3.82,3.82,0,0,0-.52-1.78,11.49,11.49,0,0,0-1-1.61.1.1,0,0,1,.15-.13Z"></path>
      <path class="cls-13" d="M53.89,131.59s.14,2.2,1.92,2.67,4.23,0,4.43-1.78S53.89,131.59,53.89,131.59Z"></path>
      <path class="cls-14" d="M51.36,130.25c1,2,3.14,3.25,7.38,2.48a6.73,6.73,0,0,0,4.94-2.48Z"></path>
      <path class="cls-15" d="M58.56,130.25v.05c-.42,1.45-1.92,2.18-3.39,2.55a10.83,10.83,0,0,0,3.63-.12,6.73,6.73,0,0,0,4.94-2.48Z"></path>
      <polygon class="cls-16" points="0 108.73 57.69 132.83 110.12 110.6 57.69 92.11 0 108.73"></polygon>
      <path class="cls-17" d="M28.86,97.43c.4-3.85.93-7.65,1.56-11.46s1.39-7.59,2.35-11.34a49.53,49.53,0,0,1,4-11A15.71,15.71,0,0,1,38.54,61a7.51,7.51,0,0,1,2.69-2.09,5,5,0,0,1,1.86-.4,5.62,5.62,0,0,1,1.85.34,8.45,8.45,0,0,1,2.82,1.86l-.25-.19a3,3,0,0,1,.63.56c.14.15.23.28.35.43s.39.55.55.82c.33.55.6,1.09.88,1.64.51,1.1,1,2.2,1.39,3.3.85,2.22,1.54,4.45,2.19,6.7,1.3,4.49,2.37,9,3.36,13.55a1.69,1.69,0,0,1-3.29.74v-.07c-.52-2.24-1-4.48-1.58-6.7s-1.08-4.45-1.7-6.64-1.23-4.37-2-6.48c-.36-1-.78-2.08-1.21-3.07-.23-.47-.46-1-.71-1.38a6.08,6.08,0,0,0-.37-.59c-.06-.07-.13-.18-.17-.22l-.06-.07,0,0h0a.65.65,0,0,0,.15.11l-.34-.27a5.82,5.82,0,0,0-1.74-1.28,2,2,0,0,0-1.57-.06,7.87,7.87,0,0,0-3.2,3.33A47,47,0,0,0,35,75.23c-1.07,3.63-1.94,7.34-2.71,11.08s-1.51,7.49-2.08,11.26v0a.65.65,0,0,1-.74.55A.66.66,0,0,1,28.86,97.43Z"></path>
      <path class="cls-18" d="M24.35,23.84a44.29,44.29,0,0,0,4.94,7.39,50.31,50.31,0,0,0,6.12,6.43,47.33,47.33,0,0,0,7.08,5.22L44.4,44c.64.35,1.3.63,2,.95l1,.46.62.29c.22.12.42.23.61.35a9.67,9.67,0,0,1,2.09,1.79,8.67,8.67,0,0,1,1.48,2.37,13,13,0,0,1,.68,2.5l.88,4.46c.6,3,1.18,5.94,1.72,8.92L57.06,75l1.55,9v0a1.69,1.69,0,1,1-3.32.58h0l-3-17.9-1.51-9L50,53.22a9.71,9.71,0,0,0-.47-2,5.94,5.94,0,0,0-1-1.65,6.7,6.7,0,0,0-1.45-1.31A4.5,4.5,0,0,0,46.7,48l-.44-.23-1-.54c-.69-.37-1.4-.71-2.06-1.11l-2-1.22A48.37,48.37,0,0,1,34,39.14a51.55,51.55,0,0,1-6-7,42.69,42.69,0,0,1-4.59-8,.47.47,0,0,1,.85-.39Z"></path>
      <path class="cls-19" d="M36.05,5.79A11.93,11.93,0,0,0,35.47,11a15.3,15.3,0,0,0,1.39,5.11c1.46,3.25,4,6,6.5,8.61s5.32,5.07,8.14,7.47c1.41,1.23,2.83,2.37,4.24,3.77a6,6,0,0,1,1.1,1.42,2.74,2.74,0,0,1,.15.4,2.09,2.09,0,0,1,0,.63v.89L57.12,42c.26,7.41.59,14.84.93,22.26s.67,14.86,1.08,22.23a2.05,2.05,0,0,1-4.1.26V86.7c-.53-7.46-.81-14.87-1.06-22.3l-.18-5.58-.1-5.57-.16-11.17V38.41l0-.47a1.59,1.59,0,0,0,0,.63,1,1,0,0,0,.09.24c0,.08,0,0-.09-.12a4.23,4.23,0,0,0-.33-.41c-1.1-1.19-2.54-2.47-3.88-3.73-2.73-2.54-5.48-5.15-8-8a56.65,56.65,0,0,1-3.58-4.48A23.23,23.23,0,0,1,35,16.9a16.84,16.84,0,0,1-1.15-5.82A12.48,12.48,0,0,1,35,5.28a.61.61,0,0,1,1.12.48Z"></path>
      <path class="cls-20" d="M88.47,54.4a62.2,62.2,0,0,1-10.85,7c-1,.49-2,.94-3,1.36l-.79.3s-.07,0-.19.18A5.57,5.57,0,0,0,73,64.4c-.76,1.9-1.2,4-1.85,6.11a58.06,58.06,0,0,1-5.54,11.88C63.31,86,60.79,89.32,59,93l-.06.14A1.31,1.31,0,0,1,56.53,92,63.3,63.3,0,0,1,63.1,80.74a55,55,0,0,0,6.24-10.89c.73-1.9,1.19-4,2-6.1a8.06,8.06,0,0,1,.86-1.59,2.29,2.29,0,0,1,1-.78l.72-.27c1-.4,1.9-.84,2.84-1.32,3.77-1.92,7.45-4.11,11.07-6.34a.57.57,0,0,1,.65.93Z"></path>
      <path class="cls-18" d="M60.37.13c.65.66,1.28,1.33,1.9,2s1.25,1.35,1.86,2.06,1.19,1.43,1.73,2.2a11.91,11.91,0,0,1,.74,1.26,3.4,3.4,0,0,1,.26.78,4,4,0,0,1,0,.47l-.06.41a48.74,48.74,0,0,1-1.73,5.36l-2,5.17Q62.1,22.4,61,24.9a50.34,50.34,0,0,0-2,5,2.2,2.2,0,0,0-.15.57,2,2,0,0,0,0,.5l0,.58.07.64c.1.85.3,1.76.47,2.66.34,1.82.72,3.66.89,5.51a106.79,106.79,0,0,1,.51,11.15c0,3.71-.08,7.42-.23,11.11s-.39,7.39-.69,11.07-.77,7.34-1.16,11a1.88,1.88,0,0,1-3.75-.35v-.08c.29-3.64.65-7.29.87-10.94s.49-7.29.65-10.93a178.77,178.77,0,0,0-.26-21.73c-.12-1.8-.34-3.57-.51-5.39-.08-.91-.18-1.82-.24-2.84l0-.79c0-.29,0-.61,0-.91a6.35,6.35,0,0,1,.43-1.89c.75-1.88,1.54-3.49,2.34-5.18l2.47-4.94,2.44-4.93c.39-.82.79-1.64,1.17-2.46S65,9.67,65.21,9l.07-.2s0,0,0-.08,0-.1,0-.17l-.06-.23a8.47,8.47,0,0,0-.53-1.1A25.18,25.18,0,0,0,63.19,5C62.13,3.52,61,2.09,59.78.72l0,0a.42.42,0,0,1,0-.59A.43.43,0,0,1,60.37.13Z"></path>
      <path class="cls-19" d="M86.87,4.69s0,0,0,0l-.09.14-.19.3-.37.62L85.45,7l-1.56,2.5c-.52.84-1.07,1.65-1.65,2.47-.29.41-.58.82-.92,1.25s-.79.83-1.14,1.18c-1.41,1.36-2.79,2.7-4,4a10.67,10.67,0,0,0-.77,1l-.85,1.2a3.36,3.36,0,0,0-.47.89,5.38,5.38,0,0,0-.24,1.06,54,54,0,0,0-.22,5.54c0,1.93,0,3.87.05,5.81l.11,5.87v2.92c0,.85.11,1.87.12,2.93a18.64,18.64,0,0,1-1,6.47,24.16,24.16,0,0,1-2.85,5.68c-2.18,3.46-4.89,6.47-6.76,9.5a18,18,0,0,0-2,4.87c-.54,1.81-1,3.67-1.48,5.54s-.87,3.76-1.25,5.65c-.19.94-.37,1.89-.53,2.82s-.32,1.9-.39,2.72V89a1.87,1.87,0,0,1-3.73-.3c.08-1.13.24-2.09.4-3.09s.34-2,.52-2.93q.55-2.91,1.22-5.8C56.48,75,57,73,57.51,71.11a28.53,28.53,0,0,1,1-2.94A19.64,19.64,0,0,1,60,65.32a56.82,56.82,0,0,1,3.53-4.89c1.19-1.54,2.32-3.06,3.35-4.64a17.29,17.29,0,0,0,3.42-10.08c0-.92-.06-1.86-.07-2.92l0-1.5,0-1.44V34c0-2,0-3.92,0-5.89a39.69,39.69,0,0,1,.48-6,8.33,8.33,0,0,1,.47-1.64,6.76,6.76,0,0,1,.89-1.52l.9-1.16a13.87,13.87,0,0,1,1-1.2,56.22,56.22,0,0,1,4.45-4,11.9,11.9,0,0,0,1-.9c.3-.32.61-.69.92-1.06l1.81-2.27L84.1,6,85,4.89l.47-.58L85.72,4l.13-.15a2.61,2.61,0,0,1,.24-.23.45.45,0,0,1,.63,0,.43.43,0,0,1,.11.27Z"></path>
      <path class="cls-17" d="M93.67,35.5c-2.94,5.12-8,8.55-13.22,11a49.75,49.75,0,0,1-8.22,2.79l-4.14,1.07L66,50.83c-.36.08-.71.16-1.12.23l-.29,0s.11,0,.12,0h0l0,0a4.87,4.87,0,0,0-.77,1.32,13.55,13.55,0,0,0-.63,1.83,34.22,34.22,0,0,0-.83,4c-.11.68-.2,1.37-.29,2l-.28,2.14c-.19,1.42-.43,2.83-.66,4.24q-1.41,8.43-3.18,16.77a1.68,1.68,0,0,1-3.3-.66h0c1.06-5.56,2.16-11.12,3.18-16.68l.73-4.16L59,59.87c.12-.72.23-1.44.37-2.15a37,37,0,0,1,1-4.31,17.45,17.45,0,0,1,.82-2.17A7,7,0,0,1,62.75,49a3.12,3.12,0,0,1,.85-.55,2.75,2.75,0,0,1,.63-.17l.24,0,1-.16,2.07-.39,4.15-.85c1.4-.3,2.71-.62,4.07-1l2-.6c.66-.21,1.3-.46,2-.69a35.42,35.42,0,0,0,7.39-3.75,22.48,22.48,0,0,0,6-5.65l0,0a.32.32,0,0,1,.46-.08A.33.33,0,0,1,93.67,35.5Z"></path>
      <path class="cls-15" d="M59.32,87.3s.32-8.75.44-9.62c0,0-6.15,1.73-7,7,0,0,1.23,10.86.48,12.11S59.32,87.3,59.32,87.3Z"></path>
      <path class="cls-14" d="M63.75,110.92c1.75-3.55-.25-8.35-2.56-12.84s.5-9,.75-9.67,7.36-14.09,6.18-15.65c0,0-1.56,3.12-7.86,11.72s-9.48,15.47-9.85,18.4c-.23,1.75-1.22,6.29.28,9.25H63A6.71,6.71,0,0,0,63.75,110.92Z"></path>
      <path class="cls-15" d="M63.81,110.93c1.75-3.56-.25-8.36-2.55-12.85s.5-9,.75-9.67,7.35-14.09,6.17-15.65a52.3,52.3,0,0,1-3.93,6.69A31.32,31.32,0,0,1,61,86.85c-4.37,7.49-6.86,11.23-5.3,15.41s3,6.83,2.19,9.87h5.18A7.64,7.64,0,0,0,63.81,110.93Z"></path>
      <path class="cls-21" d="M59.47,115.31a1.41,1.41,0,0,0-1.36-.51c-.75.24-1,.84-.92,1a2.4,2.4,0,0,0,.28.29c.19.18.58-.34.6-.35Z"></path>
      <path class="cls-9" d="M59.86,116.22s-.23-1-.62-1-.82-.07-.82-.07l-.11.19s.38.68.54.73l.51.15A3.64,3.64,0,0,0,59.86,116.22Z"></path>
      <path class="cls-10" d="M59.83,116.34a.26.26,0,0,0-.14-.39,3.06,3.06,0,0,0-.51-.11s-.61.47-.73.54-.21.07.15.17.35.2.68.16A.93.93,0,0,0,59.83,116.34Z"></path>
      <path class="cls-11" d="M59.18,115.84a4.85,4.85,0,0,0-.45.44c-.18.22-.21.28-.43.17s-.78-.19-.92-.4-.15-.19,0-.45a1.2,1.2,0,0,1,.73-.45.64.64,0,0,1,.72.16A1.58,1.58,0,0,1,59.18,115.84Z"></path>
      <path class="cls-21" d="M40.15,108.29a2.08,2.08,0,0,0-2.1-.31c-1,.57-1.26,1.52-1,1.79a4.68,4.68,0,0,0,.49.32c.33.21.74-.66.76-.67Z"></path>
      <path class="cls-9" d="M41,109.47s-.65-1.4-1.21-1.3-1.2.15-1.2.15l-.1.3s.75.85,1,.88.68,0,.79.06A4.26,4.26,0,0,0,41,109.47Z"></path>
      <path class="cls-10" d="M41,109.66c0-.13,0-.49-.34-.52a5.4,5.4,0,0,0-.75,0s-.74.86-.89,1-.27.16.27.2.57.18,1,0A1.43,1.43,0,0,0,41,109.66Z"></path>
      <path class="cls-11" d="M39.9,109.14a5.93,5.93,0,0,0-.51.78c-.19.36-.22.46-.57.37s-1.18,0-1.45-.3-.26-.23-.08-.66a1.63,1.63,0,0,1,.91-.85.91.91,0,0,1,1.08,0A2.27,2.27,0,0,1,39.9,109.14Z"></path>
      <path class="cls-21" d="M53.8,105.5s-4.35-2.18-7.39.48-3.19,6-2.15,6.78a12.79,12.79,0,0,0,1.91.76c1.25.47,2-2.8,2.1-2.85S53.8,105.5,53.8,105.5Z"></path>
      <path class="cls-9" d="M57.51,108.93s-3.23-4.32-5.06-3.57-4,1.37-4,1.37l-.12,1.1s3.18,2.36,4,2.29,2.35-.35,2.72-.35A19.81,19.81,0,0,0,57.51,108.93Z"></path>
      <path class="cls-10" d="M57.64,109.58c0-.47-.22-1.71-1.52-1.54a18.42,18.42,0,0,0-2.56.55s-1.91,3.45-2.33,4-.81.73,1.08.48,2,.2,3.47-.66A5,5,0,0,0,57.64,109.58Z"></path>
      <path class="cls-11" d="M53.56,108.59a21.74,21.74,0,0,0-1.19,3c-.4,1.37-.41,1.74-1.66,1.68s-4,.74-5.15,0-1.07-.61-.76-2.19,1-2.34,2.47-3.57a3.24,3.24,0,0,1,3.68-.77A8.42,8.42,0,0,1,53.56,108.59Z"></path>
      <path class="cls-21" d="M70.53,106.89s-2.51-3.42-5.91-2.57-4.88,3.42-4.36,4.4a12.65,12.65,0,0,0,1.17,1.35c.79.85,2.69-1.37,2.77-1.37Z"></path>
      <path class="cls-9" d="M72,111s-.78-4.63-2.51-4.77-3.62-.53-3.62-.53l-.54.8s1.53,3.09,2.2,3.37,2,.66,2.25.81A16.85,16.85,0,0,0,72,111Z"></path>
      <path class="cls-10" d="M71.87,111.58c.16-.39.52-1.42-.56-1.8a15.77,15.77,0,0,0-2.2-.6s-2.84,1.92-3.4,2.21-.92.24.64.8,1.5,1,3,.86A4.26,4.26,0,0,0,71.87,111.58Z"></path>
      <path class="cls-11" d="M69.11,109.18A20.14,20.14,0,0,0,67,111c-.85.91-1,1.19-2,.64s-3.42-1-4-2-.59-.89.29-2,1.73-1.39,3.32-1.78a2.82,2.82,0,0,1,3.16.87A7.1,7.1,0,0,1,69.11,109.18Z"></path>
      <path class="cls-21" d="M58.88,108.65s-3.6-2.77-6.86-.89-4,5-3.19,5.83a11.65,11.65,0,0,0,1.61,1c1.06.66,2.37-2.2,2.44-2.23S58.88,108.65,58.88,108.65Z"></path>
      <path class="cls-9" d="M61.66,112.47s-2.17-4.54-4-4.18-3.9.53-3.9.53l-.31,1s2.49,2.73,3.27,2.82,2.22.11,2.56.17A18,18,0,0,0,61.66,112.47Z"></path>
      <path class="cls-10" d="M61.66,113.1c.05-.45.11-1.62-1.11-1.69a18.1,18.1,0,0,0-2.45,0s-2.37,2.83-2.86,3.29-.88.52.9.64,1.84.55,3.3,0A4.56,4.56,0,0,0,61.66,113.1Z"></path>
      <path class="cls-11" d="M58.1,111.44A20.52,20.52,0,0,0,56.47,114c-.61,1.18-.69,1.53-1.82,1.24s-3.84,0-4.73-.9-.87-.75-.3-2.15,1.38-2,2.91-2.82a3,3,0,0,1,3.51,0A7.9,7.9,0,0,1,58.1,111.44Z"></path>
      <path class="cls-21" d="M77.6,115a2.18,2.18,0,0,0,2-1c.53-1.08.18-2-.19-2.13a4.44,4.44,0,0,0-.62,0c-.4,0-.24,1-.25,1S77.6,115,77.6,115Z"></path>
      <path class="cls-9" d="M76.17,114.44s1.4.82,1.82.4,1-.84,1-.84l-.09-.32a4.39,4.39,0,0,0-1.38-.17c-.23.12-.61.37-.72.41A5.43,5.43,0,0,0,76.17,114.44Z"></path>
      <path class="cls-10" d="M76.06,114.27c.07.13.26.45.6.25a6.17,6.17,0,0,0,.65-.45s.13-1.18.18-1.39.14-.29-.36,0-.59.18-.88.59A1.47,1.47,0,0,0,76.06,114.27Z"></path>
      <path class="cls-11" d="M77.31,114.07a6.79,6.79,0,0,0,0-1c-.05-.42-.08-.53.27-.65s1-.68,1.43-.61.36,0,.46.52a1.75,1.75,0,0,1-.27,1.28,1,1,0,0,1-.94.64A2.58,2.58,0,0,1,77.31,114.07Z"></path>
      <path class="cls-21" d="M29.66,117.46a2.18,2.18,0,0,0,2-1c.53-1.08.18-2-.19-2.13a4.45,4.45,0,0,0-.62,0c-.4,0-.24,1-.25,1S29.66,117.46,29.66,117.46Z"></path>
      <path class="cls-9" d="M28.23,116.94s1.4.82,1.82.4.95-.84.95-.84l-.09-.32a4.39,4.39,0,0,0-1.38-.17c-.23.12-.61.37-.72.41A5.43,5.43,0,0,0,28.23,116.94Z"></path>
      <path class="cls-10" d="M28.12,116.77c.07.13.26.45.6.25a6.17,6.17,0,0,0,.65-.45s.13-1.18.18-1.39.14-.29-.35,0-.59.18-.89.59A1.47,1.47,0,0,0,28.12,116.77Z"></path>
      <path class="cls-11" d="M29.37,116.57a6.79,6.79,0,0,0,0-1c0-.42-.08-.53.27-.65s1-.68,1.43-.61.36,0,.46.52a1.75,1.75,0,0,1-.27,1.28,1,1,0,0,1-.94.64A2.58,2.58,0,0,1,29.37,116.57Z"></path>
      <path class="cls-21" d="M43.35,115.73A2.77,2.77,0,0,0,46,114.65c.78-1.33.42-2.59,0-2.73a5.72,5.72,0,0,0-.79,0c-.51,0-.39,1.27-.41,1.29S43.35,115.73,43.35,115.73Z"></path>
      <path class="cls-9" d="M41.58,114.94s1.71,1.17,2.28.67,1.28-1,1.28-1l-.09-.42a5.65,5.65,0,0,0-1.74-.33c-.29.13-.81.41-.94.46A6.15,6.15,0,0,0,41.58,114.94Z"></path>
      <path class="cls-10" d="M41.46,114.72c.07.17.29.59.74.37a7.12,7.12,0,0,0,.86-.51s.27-1.49.35-1.76.21-.36-.45,0-.76.18-1.18.67A1.9,1.9,0,0,0,41.46,114.72Z"></path>
      <path class="cls-11" d="M43.06,114.58a9,9,0,0,0,.07-1.24c0-.54-.07-.68.39-.81s1.38-.76,1.87-.64.46.09.55.7a2.26,2.26,0,0,1-.46,1.6,1.26,1.26,0,0,1-1.25.73A3.19,3.19,0,0,1,43.06,114.58Z"></path>
      <path class="cls-21" d="M53.35,113.79a1.78,1.78,0,0,1,1.62-.25c.8.37,1,1,.82,1.2a3.13,3.13,0,0,1-.37.23c-.25.15-.59-.44-.61-.45S53.35,113.79,53.35,113.79Z"></path>
      <path class="cls-9" d="M52.72,114.62s.48-1,.91-.92.94.08.94.08l.08.2s-.56.6-.75.63l-.6,0A4.39,4.39,0,0,1,52.72,114.62Z"></path>
      <path class="cls-10" d="M52.73,114.75a.27.27,0,0,1,.25-.37c.29,0,.58,0,.58,0s.59.57.72.66.21.11-.21.15-.43.13-.79,0A1.05,1.05,0,0,1,52.73,114.75Z"></path>
      <path class="cls-11" d="M53.56,114.37a4.07,4.07,0,0,1,.42.52c.15.24.18.31.44.24s.91,0,1.12-.23.2-.16.05-.45a1.25,1.25,0,0,0-.72-.57.8.8,0,0,0-.84,0A1.73,1.73,0,0,0,53.56,114.37Z"></path>
      <path class="cls-21" d="M68,109.66s-3.38-2.5-6.36-.69-3.62,4.68-2.84,5.46a13.81,13.81,0,0,0,1.5.93c1,.58,2.15-2.09,2.22-2.11S68,109.66,68,109.66Z"></path>
      <path class="cls-9" d="M70.67,113.14s-2.1-4.16-3.78-3.79-3.6.57-3.6.57l-.27.91s2.36,2.49,3.08,2.55,2.05.06,2.37.11A16.71,16.71,0,0,0,70.67,113.14Z"></path>
      <path class="cls-10" d="M70.68,113.72c0-.42.07-1.49-1.06-1.54a16.41,16.41,0,0,0-2.27.08s-2.13,2.66-2.58,3.1-.8.49.84.57,1.71.47,3.06-.05A4.22,4.22,0,0,0,70.68,113.72Z"></path>
      <path class="cls-11" d="M67.35,112.26a19.31,19.31,0,0,0-1.46,2.38c-.54,1.1-.61,1.42-1.66,1.18s-3.55,0-4.39-.75-.82-.67-.32-2,1.24-1.84,2.64-2.67a2.78,2.78,0,0,1,3.25-.11A7.09,7.09,0,0,1,67.35,112.26Z"></path>
      <path class="cls-21" d="M50,113.57s-2.77-.5-4,1.46-.79,3.88-.09,4.12a9.73,9.73,0,0,0,1.18.11c.77.06.67-1.88.71-1.92Z"></path>
      <path class="cls-9" d="M52.6,114.88s-2.49-1.88-3.39-1.16-2,1.4-2,1.4l.11.63a8.47,8.47,0,0,0,2.6.62c.46-.18,1.25-.57,1.46-.63A12.37,12.37,0,0,0,52.6,114.88Z"></path>
      <path class="cls-10" d="M52.78,115.22c-.1-.26-.4-.92-1.09-.61a9.91,9.91,0,0,0-1.34.72s-.5,2.22-.63,2.62-.34.53.67.09,1.17-.22,1.82-.93A2.81,2.81,0,0,0,52.78,115.22Z"></path>
      <path class="cls-11" d="M50.35,115.33a12.09,12.09,0,0,0-.17,1.85c0,.83,0,1-.65,1.21s-2.12,1.06-2.86.84-.69-.16-.77-1.09a3.34,3.34,0,0,1,.79-2.38,1.87,1.87,0,0,1,1.92-1A4.72,4.72,0,0,1,50.35,115.33Z"></path>
    </g>
  </g>
</svg>
