<?xml version="1.0" encoding="UTF-8"?>
<svg xmlns="http://www.w3.org/2000/svg" xmlns:xlink="http://www.w3.org/1999/xlink" viewBox="0 0 217.64 249.06">
  <defs>
    <style>.cls-1,.cls-14{fill:none;}.cls-2{fill:#956d4b;}.cls-3{clip-path:url(#clip-path);}.cls-4{fill:url(#Безымянный_градиент_4);}.cls-5{fill:#754120;}.cls-6{fill:#44281c;}.cls-7{fill:#6c3c1d;}.cls-8{fill:#714d31;}.cls-9{fill:#613822;}.cls-10{fill:#7f5637;}.cls-11{fill:#a07850;}.cls-12{fill:#772f46;}.cls-13{fill:#97385c;}.cls-14{stroke:#772f46;stroke-linecap:round;stroke-linejoin:round;stroke-width:0.8px;}.cls-15{fill:#8b5b3c;}.cls-16{fill:#85a93c;}.cls-17{fill:#75923a;}.cls-18{fill:url(#Безымянный_градиент_3);}.cls-19{fill:#613922;}</style>
    <clipPath id="clip-path">
      <polygon class="cls-1" points="57.49 183.39 107.45 206.91 153.68 183.5 105.62 163.14 57.49 183.39"></polygon>
    </clipPath>
    <linearGradient id="Безымянный_градиент_4" x1="-4474.26" y1="-678.44" x2="-4471.46" y2="-678.44" gradientTransform="matrix(34.36, 0, 0, -34.36, 153765.22, -23123.7)" gradientUnits="userSpaceOnUse">
      <stop offset="0" stop-color="#a17551"></stop>
      <stop offset="0.38" stop-color="#a17551"></stop>
      <stop offset="0.89" stop-color="#7a4928"></stop>
      <stop offset="1" stop-color="#72401f"></stop>
    </linearGradient>
    <linearGradient id="Безымянный_градиент_3" x1="33.4" y1="68.78" x2="87.72" y2="68.78" gradientUnits="userSpaceOnUse">
      <stop offset="0" stop-color="#75923a"></stop>
      <stop offset="1" stop-color="#85a93c"></stop>
    </linearGradient>
  </defs>
  <g id="Слой_2" data-name="Слой 2">
    <g id="Слой_1-2" data-name="Слой 1">
      <path class="cls-2" d="M107.45,140.75s9.63,11.3,17.06,11.77S157.32,145,157.32,145l2.56-26.43L107.45,100Z"></path>
      <path class="cls-2" d="M49.76,116.65,55,151.12s18.58,2.79,21.83,1.86,18.12-6.5,22.3-6.5,8.33-5.73,8.33-5.73V100Z"></path>
      <g class="cls-3">
        <rect class="cls-4" x="81.15" y="135.82" width="48.87" height="98.4" transform="translate(-84.85 280.52) rotate(-86.92)"></rect>
      </g>
      <path class="cls-5" d="M57.49,183.39,55,151.12s23.69-.46,30.2-3.71,22.26-6.66,22.26-6.66l-1.83,22.39Z"></path>
      <path class="cls-6" d="M91.25,153.13a8.35,8.35,0,0,0-2.83-1.67v0s-3.78-1.13-5.85,1.41-1.7,5.29-.77,5.73a10.92,10.92,0,0,0,1.63.35l.1-.05a28.09,28.09,0,0,0,3.5-.79,1.83,1.83,0,0,0,.61-.16c.17,0,.35-.09.65-.19,1.48-.46,1.66-.13,2.69-1a4,4,0,0,0,1.08-2.54l-.21-.5h0l0,0a1,1,0,0,0-.59-.5"></path>
      <path class="cls-6" d="M71,156.45a11,11,0,0,0-4,1.33v0s-4.3,2.7-3.59,6.84,3.66,6.13,4.88,5.61a13.86,13.86,0,0,0,1.71-1.29l0-.13c.92-1.05,1.6-3.16,2.21-4.05a2.27,2.27,0,0,0,.36-.72c.1-.2.21-.42.37-.79.81-1.82,1.28-1.71,1.29-3.46a5.08,5.08,0,0,0-1.54-3.2,3.4,3.4,0,0,0-.65-.23v0H72a1.3,1.3,0,0,0-1,.13"></path>
      <path class="cls-7" d="M107.45,140.75l-1.83,22.39,48.06,20.36L157.32,145s-15-1.73-21.48-.8S118,147.87,114.6,146a44.41,44.41,0,0,1-7.15-5.26"></path>
      <path class="cls-6" d="M89.15,163.75a3.28,3.28,0,0,0-1.25-.3h0a2.31,2.31,0,0,0-2,1.18c-.49,1.19,0,2.18.35,2.24l.65-.05,0,0a10.59,10.59,0,0,0,1.23-.69l.21-.13.23-.14c.5-.34.61-.24.89-.69a1.5,1.5,0,0,0,.12-1.07l-.13-.17h0Z"></path>
      <path class="cls-6" d="M136.23,154.12a2.27,2.27,0,0,0-.11-.89h0s-.38-1-1.27-1-1.43.5-1.37.77l.2.41,0,0,.75.63.14.1.14.11c.35.24.31.34.67.41a1.06,1.06,0,0,0,.73-.18l.07-.13h0v-.22Z"></path>
      <path class="cls-6" d="M149.66,170.3a11.24,11.24,0,0,0-1.91-3.82h0s-3.32-3.9-7.35-2.59-5.6,4.54-4.89,5.68a13.68,13.68,0,0,0,1.53,1.52l.13,0c1.19.77,3.39,1.13,4.37,1.62a2.18,2.18,0,0,0,.77.25c.22.07.45.15.84.26,1.94.54,1.9,1,3.64.79a5.19,5.19,0,0,0,3-2,3.27,3.27,0,0,0,.13-.69h0v-.07a1.31,1.31,0,0,0-.28-1"></path>
      <path class="cls-6" d="M123.54,157a8.59,8.59,0,0,0-1.87,2.69h0s-1.41,3.66,1,5.89,5.11,2.09,5.62,1.19a11,11,0,0,0,.46-1.59l0-.09a27.32,27.32,0,0,0-.52-3.53,1.81,1.81,0,0,0-.11-.62c0-.16-.07-.35-.14-.65-.34-1.5,0-1.66-.81-2.74a4,4,0,0,0-2.44-1.27l-.51.17h0l0,0a.94.94,0,0,0-.54.53"></path>
      <path class="cls-8" d="M123.72,184.39a1.58,1.58,0,0,0,1.57-.41c.54-.7.43-1.44.17-1.55l-.44-.08c-.29,0-.32.69-.33.7Z"></path>
      <path class="cls-9" d="M122.78,183.81s.88.79,1.24.55.8-.46.8-.46l0-.24-1-.32-.57.19Z"></path>
      <path class="cls-10" d="M122.72,183.68c0,.1.12.36.4.27s.53-.23.53-.23l.32-1c.07-.14.15-.19-.25-.05s-.45,0-.72.29a1.07,1.07,0,0,0-.28.69"></path>
      <path class="cls-11" d="M123.65,183.72a4.37,4.37,0,0,0,.12-.69c0-.31,0-.4.29-.43s.83-.34,1.1-.23.26.09.26.44a1.27,1.27,0,0,1-.38.87.7.7,0,0,1-.76.32,1.79,1.79,0,0,1-.63-.28"></path>
      <path class="cls-8" d="M113,178.27s2.39.12,3.24-1.67.26-3.36-.36-3.49a7.43,7.43,0,0,0-1,0c-.65,0-.37,1.67-.39,1.7Z"></path>
      <path class="cls-9" d="M110.69,177.44s2.3,1.32,3,.62,1.53-1.4,1.53-1.4l-.16-.52a7.5,7.5,0,0,0-2.26-.25c-.37.2-1,.62-1.16.7Z"></path>
      <path class="cls-10" d="M110.5,177.17c.11.21.44.73,1,.4a8.38,8.38,0,0,0,1.05-.75s.19-1.93.26-2.28.23-.49-.58,0-1,.31-1.44,1a2.41,2.41,0,0,0-.28,1.66"></path>
      <path class="cls-11" d="M112.54,176.82a11.07,11.07,0,0,0-.05-1.59c-.09-.69-.15-.87.42-1.08s1.68-1.13,2.33-1,.59.07.77.85a2.86,2.86,0,0,1-.42,2.09,1.58,1.58,0,0,1-1.51,1.07,4,4,0,0,1-1.54-.31"></path>
      <path class="cls-8" d="M103.08,186s1.87,1.41,3.54.43,2-2.58,1.62-3a6.4,6.4,0,0,0-.83-.53c-.56-.33-1.22,1.14-1.25,1.16Z"></path>
      <path class="cls-9" d="M101.63,184.08s1.14,2.33,2.08,2.14a18.88,18.88,0,0,1,2-.29l.15-.51s-1.29-1.4-1.69-1.44-1.15,0-1.32-.08Z"></path>
      <path class="cls-10" d="M101.63,183.76c0,.23,0,.83.58.87a10.13,10.13,0,0,0,1.26,0l1.46-1.71c.25-.24.45-.27-.47-.33s-.95-.27-1.7,0a2.36,2.36,0,0,0-1.13,1.19"></path>
      <path class="cls-11" d="M103.47,184.6a11.63,11.63,0,0,0,.83-1.32c.31-.61.35-.79.93-.65s2,0,2.44.45.45.38.17,1.1a2.81,2.81,0,0,1-1.49,1.47,1.54,1.54,0,0,1-1.81,0,4.06,4.06,0,0,1-1.07-1.09"></path>
      <path class="cls-8" d="M98.79,179.6a2.68,2.68,0,0,0,.09-2.73c-.86-1.21-2.1-1.39-2.41-1l-.35.67c-.21.44,1,.84,1,.87Z"></path>
      <path class="cls-9" d="M97.39,180.83s1.7-1,1.49-1.72a15.08,15.08,0,0,1-.35-1.51l-.4-.09s-1,1.08-1,1.39,0,.87,0,1Z"></path>
      <path class="cls-10" d="M97.15,180.86c.18,0,.64,0,.62-.5a5.83,5.83,0,0,0-.11-1l-1.4-1c-.2-.18-.23-.33-.21.37s-.15.75.12,1.3a1.79,1.79,0,0,0,1,.79"></path>
      <path class="cls-11" d="M97.66,179.4a8.8,8.8,0,0,0-1.06-.55c-.48-.19-.62-.21-.55-.67s-.12-1.51.18-1.89.26-.37.83-.2a2.17,2.17,0,0,1,1.22,1,1.18,1.18,0,0,1,.14,1.38,3,3,0,0,1-.76.89"></path>
      <path class="cls-8" d="M90.32,181.61a1.17,1.17,0,0,0,.39-1.12c-.21-.61-.7-.84-.87-.73l-.23.23.29.49Z"></path>
      <path class="cls-9" d="M89.58,181.94s.84-.2.84-.52a5.52,5.52,0,0,1,0-.67l-.16-.09-.58.45-.12.43Z"></path>
      <path class="cls-10" d="M89.48,181.92l.32-.13.08-.4-.45-.6c-.07-.1-.06-.16-.14.13s-.15.29-.12.55a.76.76,0,0,0,.31.45"></path>
      <path class="cls-11" d="M89.88,181.38l-.37-.36-.15-.35.32-.76.37,0a.89.89,0,0,1,.37.58.5.5,0,0,1-.11.59Z"></path>
      <path class="cls-8" d="M87.72,186.28s1.64-2.63.14-4.72-3.66-2.39-4.19-1.77a8.24,8.24,0,0,0-.6,1.17c-.37.76,1.66,1.45,1.69,1.5Z"></path>
      <path class="cls-9" d="M85.32,188.44s2.94-1.8,2.57-3a26.06,26.06,0,0,1-.64-2.61l-.69-.15s-1.69,1.88-1.69,2.42.08,1.51.06,1.75Z"></path>
      <path class="cls-10" d="M84.89,188.48c.31,0,1.1,0,1.08-.87a11.59,11.59,0,0,0-.2-1.67s-2.08-1.41-2.43-1.72-.41-.56-.37.66-.25,1.29.22,2.25a3.11,3.11,0,0,0,1.7,1.35"></path>
      <path class="cls-11" d="M85.77,185.94a14.53,14.53,0,0,0-1.83-.93c-.85-.33-1.09-.37-1-1.15s-.22-2.62.29-3.28.45-.64,1.44-.35A3.69,3.69,0,0,1,86.81,182a2.09,2.09,0,0,1,.28,2.39,5.2,5.2,0,0,1-1.32,1.54"></path>
      <path class="cls-12" d="M125.78,128.43H91.58C90,131.38,88.4,137.84,89,146.08c.69,9.16,10.85,21.3,12.94,24.09s4,7,4.26,10.14c.12,1.47.68,6.92,3.27,6s3-6,3-6a15,15,0,0,1,1.22-5.27c1.2-2.69,5.38-9.86,10.12-20.21a39.59,39.59,0,0,0,2-26.18A2.09,2.09,0,0,1,125.78,128.43Z"></path>
      <path class="cls-13" d="M105.64,128.43H93.58c-8.44,12.8,11.84,41.64,11.84,41.64C97.32,146.39,100.88,134.41,105.64,128.43Z"></path>
      <path class="cls-12" d="M112.74,178.28c0-.08,0,.14-.08.25l-.1.43c-.07.31-.13.63-.18,1-.12.66-.2,1.35-.28,2-.14,1.4-.22,2.84-.27,4.28-.09,2.9,0,5.83.15,8.78s.41,5.88.79,8.81.9,5.83,1.4,8.85a29,29,0,0,1,.31,9.55,60.75,60.75,0,0,1-2.51,8.92c-1,2.85-1.93,5.67-2.65,8.54a21.4,21.4,0,0,0-.68,8.61v0a.62.62,0,0,1-.51.72.61.61,0,0,1-.7-.46,22.66,22.66,0,0,1,0-9.28c.51-3,1.29-6,2-8.89a58.8,58.8,0,0,0,1.76-8.59,25.51,25.51,0,0,0-1-8.36c-.71-2.87-1.49-5.85-2.11-8.85s-1.13-6-1.53-9.08-.72-6.11-.87-9.23c-.07-1.57-.11-3.14-.06-4.74,0-.81.06-1.62.13-2.45,0-.41.08-.84.14-1.27l.1-.67c0-.26.07-.41.18-.85a3.38,3.38,0,0,1,6.48,1.95Z"></path>
      <path class="cls-14" d="M104.85,173.46s-5.44,5.84-5.17,12.87"></path>
      <path class="cls-14" d="M101.44,178.65s-4.81,1.71-5.88,6.48"></path>
      <path class="cls-14" d="M114,172.66a11.74,11.74,0,0,1,3.45,7.23"></path>
      <path class="cls-14" d="M111.36,183s4.38,6.34,2.65,10.46"></path>
      <path class="cls-14" d="M106.58,180.76s-3.32,5.83-2.52,9.68"></path>
      <path class="cls-14" d="M107.7,194.69a12.19,12.19,0,0,0-5.44,12.48"></path>
      <path class="cls-14" d="M103.25,199.73s-4.77,1.73-5.56,3.59"></path>
      <path class="cls-14" d="M108.7,201.52s-3.3,3.26-4.77,11.88"></path>
      <path class="cls-14" d="M111.36,203.32a19.26,19.26,0,0,0,3.71.79c.53-.13,3.06-2.65,8.23.8"></path>
      <path class="cls-14" d="M115.6,204s2.79.13,4.78,4.91"></path>
      <path class="cls-14" d="M110.36,211.54s-4.18,4.92-3.78,7.17"></path>
      <path class="cls-14" d="M108.7,213.72a10.52,10.52,0,0,0-5.94,8.18"></path>
      <path class="cls-14" d="M113,218.71a7.73,7.73,0,0,1,4.44,5.31"></path>
      <path class="cls-14" d="M115.74,220.7s3.45-1.59,5.84,2.79"></path>
      <path class="cls-14" d="M111.36,227.34s-4.78,2.39-4.78,4.24"></path>
      <path class="cls-14" d="M110.36,233a4.86,4.86,0,0,1,2.53,4.12"></path>
      <polygon class="cls-15" points="49.57 116.95 107.5 142.46 160.14 118.94 107.5 99.36 49.57 116.95"></polygon>
      <path class="cls-16" d="M165,81.4a53.22,53.22,0,0,1,50.16,4s6.57,3.78-4.38,1.19c0,0-6.47-.2-7.56-.2s-6.77,1.12-8.26,1.11-3.59,2.37-7.37,3.17-2.29,1.89-5.27,2.29-10.46,2.19-11.85,0a20.74,20.74,0,0,0-4.38-4.48c-1.09-1-1.09-1.61-1.09-3S163.87,81.9,165,81.4Z"></path>
      <path class="cls-17" d="M117,100.25s8.36-7.56,7.83-14.2-2-8.89-.53-11-.4-7,1.59-9.82S128.66,63,132,62.29s3.18-1.32,4.91-3.85,14.06-2.25,17.78,4.38,1.59-4.11,1.59-4.11-1.85-10.62-7-14.07-5.57-7.83-8-8.23-9.69,3.06-10.49,4.78-11.94,5.05-13.8,10-11.41,17.91-1.46,35.43c0,0,2.39,8,1.06,10.75S114.33,103,117,100.25Z"></path>
      <g id="_1" data-name="1">
        <path class="cls-12" d="M153.43,59.79a16.09,16.09,0,0,0-1.27-2.52c-.25-.41-.54-.81-.8-1.21s-.6-.76-.89-1.14a17.85,17.85,0,0,0-4.34-3.75,15.18,15.18,0,0,0-5.34-1.9c-.47-.08-.95-.07-1.43-.11a9.59,9.59,0,0,0-1.42,0l-1.43.13a6.77,6.77,0,0,0-1.41.21,27.25,27.25,0,0,0-10.48,4.6,16.21,16.21,0,0,0-6.39,9,25,25,0,0,0,0,11.32c.36,1.89.87,3.78,1.38,5.68.26,1,.52,1.9.76,2.89.12.49.23,1,.32,1.51,0,.26.08.54.12.8l.1.67a15,15,0,0,1-.14,6.32,21.18,21.18,0,0,1-2.39,5.76,43.06,43.06,0,0,1-7.69,9.41,1.34,1.34,0,1,1-1.86-1.93h0v0a40.59,40.59,0,0,0,7.34-8.74,18.76,18.76,0,0,0,2.18-5.06,12.88,12.88,0,0,0,.18-5.36l-.11-.81c0-.21,0-.42-.08-.65-.07-.45-.16-.91-.26-1.37-.22-.93-.46-1.88-.7-2.84-.48-1.91-1-3.86-1.32-5.85a27,27,0,0,1,.21-12.25,17.55,17.55,0,0,1,2.77-5.64,19.48,19.48,0,0,1,4.48-4.31,29.06,29.06,0,0,1,11.24-4.7,8.78,8.78,0,0,1,1.53-.2l1.55-.11a11.63,11.63,0,0,1,1.56.06c.52,0,1,0,1.55.15A16.86,16.86,0,0,1,146.84,50a18.43,18.43,0,0,1,4.54,4.17,16.51,16.51,0,0,1,2.81,5.45.38.38,0,0,1-.73.24Z"></path>
      </g>
      <path class="cls-16" d="M119.37,82.2c3-6.89,6.77-15.13,8.23-17.25s4.77-7.39,6.77-10.13,5.3-9.51,0-15.75c0,0-.93-.53.13-3.19a49.25,49.25,0,0,0,2.73-8.49c.72-3.32,11.73-7.3,12.66-2,0,0,1.47-2.26,1.46-7s-1.85-7.7-4.64-9.43-9.29-2.92-15.4,1.33-8.49,5.84-10,7.43-5.18,2.26-3.19,8.5.4,6.76,0,8.09,1.2,5.18.14,7.17-8,7-8,9,.27,3,0,4.34-3.18,5.22-2.52,7.74,1.73,4.18,1.2,6.67-3.45,3.28.66,7.13,5.44,7,6.37,8S117.64,86.18,119.37,82.2Z"></path>
      <path class="cls-18" d="M86.64,92.88a14.58,14.58,0,0,1,0-6c.68-3.45,2.6-8.56-1.25-11.21S81,72.31,81.28,69.86s4.25-7.63-.93-11.81-7.17-.14-11.61-5.64-4.31-6.77-10.88-9S42.2,48.76,40.47,51.21A11.11,11.11,0,0,0,39,61.3c1.39,3.85-2.79,4.78-3,4.84a3.42,3.42,0,0,0-1.79,5.44c2.39,3.85,4.76,11.53,6,11.52s2.13-2.69,2.53-5.15,1.46-5.17,2.32-6,3.32-2,3.45-3.78-.4-5.77,1.2-6.64S56.2,55.66,67,67.27c0,0,3.38,3,4.11,6.17s-1.59,4,1.39,6.84,7.77,7.16,8.1,7.63S87.36,98.52,86.64,92.88Z"></path>
      <path class="cls-17" d="M83.27,14.91s1.21.27,4.45-4.24S92.3,3.5,92.83,1.91,94.42-.88,95.48.85s1.06,4.64,5.84,4.91,3-1.11,5.55,1.7,3.34,1.35,5.33,3.74,2.26,4.38,3.72,5-8.5,7.3-4.25,14.87,4.12,12.6.27,19.37-3.14,15.79-4.42,17.39-9.78-3.05-11.24-11.42S83.54,34.82,81.81,29.25,79.29,16.77,83.27,14.91Z"></path>
      <path class="cls-17" d="M85.39,69.23s-9.82-7.87-12.6-10.52-3.06-7-2.13-11-.79-6.5-6-8.75a40,40,0,0,0-20-3.19s-1.59,1.32-1.86-1.66,2.26-5-2.65-10c0,0-1.86.27-1.73-3.05s.93-4.11-2.78-6.64a3.13,3.13,0,0,1-3.32-3.45c.13-3.58-5.71-7.69-6.5-8.36S24.48.71,27.8,2,35.1,5,38.28,5.09s8-.53,10.09.4,4,2.92,5.84,3.72,12.21,2,16.32,12.21c0,0,8.1,4.11,12.34,15.53s6.37,18.35,6.51,23.9S88.71,75.64,85.39,69.23Z"></path>
      <path class="cls-12" d="M36.07,7a24.64,24.64,0,0,1,6,1.85c.93.44,1.89.84,2.79,1.33l2.69,1.53a64.46,64.46,0,0,1,9.77,7.55l2.25,2.12c.77.69,1.41,1.5,2.12,2.24l2.07,2.29c.35.38.7.76,1,1.15l1,1.21,3.8,4.87L73,38.22c.56.86,1.18,1.69,1.7,2.58l1.56,2.65,3.12,5.32,2.8,5.48L83.52,57c.47.91.94,1.83,1.32,2.78l2.47,5.64,1.23,2.82c.41.94.82,1.88,1.16,2.85L94,82.6l0,.09v.08c.58,2.37,1.3,4.8,2.11,7.14A65.88,65.88,0,0,0,99,96.81a37.74,37.74,0,0,0,3.67,6.27,36.23,36.23,0,0,0,4.74,5l.06.06a1.22,1.22,0,0,1,.1,1.72,1.19,1.19,0,0,1-1.18.38,8.89,8.89,0,0,1-3.77-2,18.1,18.1,0,0,1-2.74-3.08,40.89,40.89,0,0,1-3.91-6.91,68.69,68.69,0,0,1-2.81-7.28,77.71,77.71,0,0,1-2.08-7.51l0,.17L87,72.14c-.32-1-.71-1.9-1.11-2.83l-1.17-2.8L82.38,60.9C82,60,81.56,59,81.12,58.13L79.8,55.4l-2.63-5.48-3-5.3L72.74,42c-.49-.88-1.08-1.71-1.61-2.56l-3.29-5.11-3.62-4.86-.91-1.21c-.31-.4-.65-.77-1-1.16l-2-2.29c-.67-.75-1.28-1.57-2-2.26L56.2,20.36a62.9,62.9,0,0,0-9.32-7.68L44.3,11.11c-.87-.51-1.79-.93-2.68-1.39a24.07,24.07,0,0,0-5.64-2h0A.39.39,0,0,1,36.07,7Z"></path>
      <path class="cls-12" d="M93.77,17.05a.87.87,0,0,1,.26.18l.1.11.13.18.2.33c.13.21.25.43.37.64.24.43.46.87.68,1.3q.66,1.3,1.26,2.64c.81,1.76,1.56,3.55,2.28,5.36q2.13,5.41,3.76,11a99.9,99.9,0,0,1,2.59,11.39c.32,1.92.56,3.88.74,5.8l.57,5.78q1.07,11.55,1.94,23.12c.28,3.86.56,7.72.79,11.59.12,1.93.23,3.87.31,5.81,0,1,.06,2,.09,2.94,0,.49,0,1,0,1.52a11.84,11.84,0,0,1-.15,1.81,1.71,1.71,0,0,1-3.39-.48l.06-.39c.06-.47.11-1.56.12-2.45s0-1.9,0-2.86c0-1.91-.09-3.84-.14-5.76-.13-3.85-.3-7.7-.48-11.56q-.55-11.56-1.3-23.12c-.28-3.85-.44-7.71-1-11.48a96.55,96.55,0,0,0-2.26-11.25c-1-3.72-2.12-7.39-3.44-11q-1-2.7-2.11-5.36c-.38-.88-.77-1.76-1.17-2.63-.21-.43-.42-.86-.64-1.28-.1-.21-.22-.42-.33-.62l-.17-.29c0-.05-.06-.07-.08-.11s-.05-.07,0,0a.18.18,0,0,0,.12.05.47.47,0,0,1-.3-.6A.48.48,0,0,1,93.77,17.05Z"></path>
      <path class="cls-16" d="M101.85,89.5c.29-.79,2.92-7.56,3.05-8.36s2.66-3.32,0-7.3-1.06-3.38-.4-4.61,4.25-3.88,1.07-9.19-5.18-2.66-3.19-9.16a8.33,8.33,0,0,0,2.36-7.2s0-1.19-3.16-2.59-1.42-7.46-2.12-9.25S97,23.77,85.92,20.39s-21.69-4.08-19.11-.5,6.18,4.78,8.07,9.46-.1,10.25.49,13.33S75.57,45,79.65,48s3.69-1.06,4.88,5.54.3,6.8,2.79,9.59-1.3,5.08-.2,8.36,7,8.16,8.16,10.65,3.39,8.46,4.88,8.46S101.2,91.23,101.85,89.5Z"></path>
      <path class="cls-12" d="M90.66,34a36.91,36.91,0,0,1,3.86,8.68A32.15,32.15,0,0,1,96,52.11a76.15,76.15,0,0,0,.53,9.29c.32,3.1.74,6.2,1.22,9.28,1,6.16,2.18,12.3,3.73,18.32.79,3,1.68,6,2.74,8.86a41.44,41.44,0,0,0,1.8,4.2,14.52,14.52,0,0,0,2.4,3.59l0,0a1.19,1.19,0,1,1-1.72,1.65,17,17,0,0,1-2.84-4.18,45.49,45.49,0,0,1-1.93-4.44,86,86,0,0,1-2.76-9.12A166.62,166.62,0,0,1,95.63,71c-.43-3.12-.79-6.25-1-9.4a70,70,0,0,1-.24-9.5,33.58,33.58,0,0,0-1-9.13,40.73,40.73,0,0,0-3.17-8.73h0a.25.25,0,0,1,.11-.35A.26.26,0,0,1,90.66,34Z"></path>
      <path class="cls-12" d="M144.1,19.74a13.1,13.1,0,0,0-5.9-1.29,9.51,9.51,0,0,0-5.44,2c-3.09,2.48-4.85,6.4-6,10.34a57.22,57.22,0,0,0-1.33,6.09q-.55,3.11-1,6.23c-.65,4.16-1.16,8.32-1.57,12.51s-.81,8.44-1.43,12.65-1.36,8.38-2.22,12.54-1.9,8.3-3.1,12.38q-.9,3.08-1.91,6.09c-.66,2-1.43,4-2,5.94l0,0a1.19,1.19,0,1,1-2.29-.66c.63-2.17,1.36-4.07,2-6.09s1.29-4,1.87-6c1.19-4,2.17-8.1,3.07-12.2s1.65-8.25,2.29-12.39,1.06-8.32,1.52-12.54,1-8.42,1.76-12.6c.36-2.09.73-4.18,1.13-6.26A55.63,55.63,0,0,1,125,30.25a29.42,29.42,0,0,1,2.47-6,15.46,15.46,0,0,1,4.32-5,10.39,10.39,0,0,1,3-1.52,10.59,10.59,0,0,1,3.35-.42,12.22,12.22,0,0,1,6.2,2,.3.3,0,0,1,.08.41.28.28,0,0,1-.37.1Z"></path>
      <path class="cls-16" d="M140.6,66.94s.27-7,7.83-12.21S160.51,42.78,165,42.12a141.89,141.89,0,0,1,14.73-1.59c3.19,0,6.64-1.59,14.2,6.5s9.69,9,14.2,9.69,15.13.66,5.71,5.84-19.37,2.26-20.44,1.19-4.11-2-5.84-7.16-1.59-6-5-6.24-4.91-1.73-7.3-2.12-3.71,0-4.51,1.85-.66,2.66-4.65,2.39-4.51-2.65-6.63.27-1.46,3-4.78,4S140.74,75.43,140.6,66.94Z"></path>
      <path class="cls-12" d="M202.33,56.88a46,46,0,0,0-12.85-7.39,40.58,40.58,0,0,0-7.15-2A35.76,35.76,0,0,0,175,47a33.57,33.57,0,0,0-14.13,3.86A46.36,46.36,0,0,0,149.2,60a74.44,74.44,0,0,0-9,11.9c-2.71,4.22-4.75,8.71-7.14,13.25A99,99,0,0,1,125,98a42.16,42.16,0,0,1-5.2,5.76,19.74,19.74,0,0,1-3.21,2.4,10.94,10.94,0,0,1-3.94,1.49,1.2,1.2,0,0,1-.35-2.37h0a12.4,12.4,0,0,0,5.94-3.25,40.54,40.54,0,0,0,5-5.4,97.14,97.14,0,0,0,8-12.56c2.35-4.35,4.53-9,7.32-13.29a75.8,75.8,0,0,1,9.31-12.12,47.84,47.84,0,0,1,12.17-9.34,34.86,34.86,0,0,1,14.86-3.9,37.16,37.16,0,0,1,7.67.67,41.52,41.52,0,0,1,7.36,2.18,44.88,44.88,0,0,1,13,7.89.45.45,0,0,1,.05.65.47.47,0,0,1-.65.06Z"></path>
      <path class="cls-16" d="M123.62,99.06s13-17.92,11.54-23.63,4.38-.79,6-2.52S140.07,61.76,149.76,61s27.07,2.92,27.47,2.92,4,.53,0,2.78S169.9,68.93,164.47,75s-9.8,2.79-11,3.45-1.33,1.6-2.13,4-3.85,3.84-5.7,3.84-3.32.14-4.25,2.79S128.13,97.86,123.62,99.06Z"></path>
      <path class="cls-12" d="M165.53,69.05a4.13,4.13,0,0,0-1.95,0,8.8,8.8,0,0,0-1,.26,9.12,9.12,0,0,0-1,.35,22.44,22.44,0,0,0-3.77,2A57.2,57.2,0,0,0,151,77c-2.12,2-4.18,4-6.15,6.16s-3.93,4.31-6,6.45a98.56,98.56,0,0,1-13.37,11.59A69.87,69.87,0,0,1,118,106c-1.31.71-2.66,1.37-4,2a32.54,32.54,0,0,1-4.34,1.59,1.43,1.43,0,1,1-.76-2.76h0l.09,0a30.14,30.14,0,0,0,3.92-1.32c1.31-.54,2.61-1.13,3.89-1.78a65,65,0,0,0,7.41-4.36,95.56,95.56,0,0,0,13.41-11c2-2,4.06-4.13,6.11-6.25S147.9,78,150.12,76a55.05,55.05,0,0,1,7.12-5.27,23.33,23.33,0,0,1,4-1.93,9,9,0,0,1,1.08-.33,6.93,6.93,0,0,1,1.12-.22,4.56,4.56,0,0,1,2.37.22.31.31,0,0,1,.16.41.3.3,0,0,1-.38.17Z"></path>
      <path class="cls-12" d="M183.09,81.31a28.24,28.24,0,0,0-9.55.39,51.8,51.8,0,0,0-9.32,2.66A90.41,90.41,0,0,0,147,93.27l-2.05,1.31-2,1.42-2,1.41-1,.71c-.37.26-.72.47-1.07.69q-4.22,2.59-8.66,4.79a71.92,71.92,0,0,1-9.17,3.86,31,31,0,0,1-10,1.88,1.2,1.2,0,1,1,0-2.39h.06a29,29,0,0,0,9.23-1.58,70.43,70.43,0,0,0,9-3.58q4.39-2.08,8.59-4.55c.35-.21.7-.41,1-.61l1-.69,2-1.39,2-1.38,2.1-1.29a92.19,92.19,0,0,1,17.71-8.72,54.17,54.17,0,0,1,9.57-2.53,28.88,28.88,0,0,1,9.95-.19.44.44,0,0,1,.36.52.44.44,0,0,1-.51.36Z"></path>
      <path class="cls-12" d="M39.81,81.91a2.21,2.21,0,0,1,0-.54l0-.44.06-.85c0-.57.12-1.13.19-1.7.14-1.12.31-2.25.53-3.36a47.49,47.49,0,0,1,1.7-6.61,28.32,28.32,0,0,1,2.89-6.25,13.48,13.48,0,0,1,5-4.9,9.26,9.26,0,0,1,3.48-1l.91-.06h.86a14.74,14.74,0,0,1,1.75.08,13.65,13.65,0,0,1,6.71,2.26,23.44,23.44,0,0,1,5,4.9c1.46,1.79,2.73,3.67,4,5.55,2.51,3.79,4.85,7.65,7.2,11.5s4.68,7.69,7.23,11.35a52.4,52.4,0,0,0,8.49,10,23,23,0,0,0,5.4,3.38c2,.9,4.08,1.71,6.1,2.79a1.2,1.2,0,0,1-.93,2.2,56.81,56.81,0,0,1-6.38-2.42,25.58,25.58,0,0,1-6-3.89,55.15,55.15,0,0,1-8.75-10.72c-2.52-3.79-4.81-7.71-7.08-11.6S73.69,73.82,71.3,70c-1.22-1.87-2.44-3.75-3.8-5.49A21.9,21.9,0,0,0,63,59.9a12,12,0,0,0-5.92-2.1,12.63,12.63,0,0,0-1.63-.11l-.83,0c-.27,0-.52,0-.78,0a7.74,7.74,0,0,0-3,.81,12.38,12.38,0,0,0-4.64,4.32,27.51,27.51,0,0,0-2.93,5.93,46.85,46.85,0,0,0-1.84,6.43c-.24,1.09-.44,2.19-.61,3.3-.08.55-.16,1.11-.22,1.66l-.09.83,0,.41c0,.12,0,.32,0,.3a.35.35,0,0,1-.66.22Z"></path>
      <path class="cls-16" d="M53.14,75.7s-2.78-2.48-3-4.29S48.23,65,46.91,63.89s-.95.51-4.78.79-5.31-.66-6.24-2.25-2.79-4.78-5.84-.8-6.63,1.73-8.23,3.85-.66,3.85-2.52,5.17S15.85,68.93,15.85,73,20,76.63,13.6,79.41s-7.7,3.85-8.37,8.76S-.6,93,.06,101.38s1.72,4.18,5.31,3,11.41-2.12,14.06-4.77,7.7-7.71,7.57-8.9c0,0,.8,2.53,4.78-2.12s6.9-4.38,11.41-4.38,4.78-7.88,9.16-7.26S53.14,75.7,53.14,75.7Z"></path>
      <path class="cls-12" d="M25,75.27a8.75,8.75,0,0,1,2.27-2l.63-.4.67-.33.67-.32.71-.25a17.81,17.81,0,0,1,2.89-.76l1.48-.14A8.16,8.16,0,0,1,35.78,71,33.33,33.33,0,0,1,47.33,73.4c7.36,2.85,13.91,7.32,20.3,11.72C70.85,87.33,74,89.64,77.12,92s6.2,4.72,9.33,6.92a45,45,0,0,0,9.87,5.45c.88.33,1.75.67,2.66.94s1.8.57,2.72.82a34.69,34.69,0,0,1,5.43,1.9l0,0a1.21,1.21,0,0,1,.53,1.64,1.23,1.23,0,0,1-1.1.67,21.84,21.84,0,0,1-5.84-1c-1-.26-1.9-.61-2.84-1s-1.87-.72-2.79-1.11a47.9,47.9,0,0,1-10.3-6.1c-3.16-2.37-6.14-4.85-9.18-7.26s-6.08-4.8-9.21-7.09c-6.23-4.59-12.51-9.16-19.59-12.17a32.34,32.34,0,0,0-11.07-2.66,7.59,7.59,0,0,0-1.43,0l-1.42.09a17.5,17.5,0,0,0-2.76.63,10.55,10.55,0,0,0-4.74,2.92l0,0a.28.28,0,0,1-.43-.35Z"></path>
      <path class="cls-12" d="M118.77,111.23a4.27,4.27,0,0,0,0-3.08c-.13-.17-.66-1-1.89,0s-19.31,1-19.31,1c-3.59,0-2.59,3.32-2.39,4.91s-1.49,2.69-3.28,5.08a7.17,7.17,0,0,0-.54.86h34.2C124,114.84,118.77,111.23,118.77,111.23Z"></path>
      <path class="cls-8" d="M91.94,122.64a1,1,0,0,0-1-.37c-.55.17-.76.61-.67.76a1.88,1.88,0,0,0,.2.21c.14.14.43-.25.44-.25Z"></path>
      <path class="cls-19" d="M92.23,123.3s-.17-.75-.45-.76-.6-.05-.6-.05l-.08.14s.28.49.39.53l.37.11A2.86,2.86,0,0,0,92.23,123.3Z"></path>
      <path class="cls-10" d="M92.21,123.39a.2.2,0,0,0-.11-.29,2.61,2.61,0,0,0-.37-.07s-.44.34-.53.39-.15,0,.11.12.25.15.49.12A.69.69,0,0,0,92.21,123.39Z"></path>
      <path class="cls-11" d="M91.73,123a2.85,2.85,0,0,0-.32.32c-.13.15-.16.2-.32.12s-.57-.14-.67-.29-.11-.14,0-.33a.78.78,0,0,1,.52-.32.46.46,0,0,1,.53.11A1.15,1.15,0,0,1,91.73,123Z"></path>
      <path class="cls-8" d="M87.81,115.49s-3.16-1.58-5.38.35-2.32,4.41-1.56,5a12.17,12.17,0,0,0,1.39.55c.91.34,1.48-2,1.53-2.08S87.81,115.49,87.81,115.49Z"></path>
      <path class="cls-19" d="M90.52,118s-2.35-3.14-3.69-2.59-2.9,1-2.9,1l-.09.79s2.31,1.72,2.92,1.67,1.71-.25,2-.26A13.36,13.36,0,0,0,90.52,118Z"></path>
      <path class="cls-10" d="M90.61,118.47c0-.35-.16-1.25-1.11-1.12a13.76,13.76,0,0,0-1.86.39s-1.39,2.52-1.69,3-.6.53.78.35,1.49.14,2.53-.49A3.54,3.54,0,0,0,90.61,118.47Z"></path>
      <path class="cls-11" d="M87.64,117.74a16.57,16.57,0,0,0-.87,2.19c-.28,1-.3,1.27-1.2,1.22s-2.94.54-3.76,0-.77-.43-.55-1.59a4.23,4.23,0,0,1,1.8-2.6,2.37,2.37,0,0,1,2.68-.56A6.06,6.06,0,0,1,87.64,117.74Z"></path>
      <path class="cls-8" d="M100,116.51s-1.83-2.49-4.31-1.87-3.55,2.49-3.17,3.2a7.88,7.88,0,0,0,.85,1c.57.63,2-1,2-1S100,116.51,100,116.51Z"></path>
      <path class="cls-19" d="M101.09,119.51s-.56-3.36-1.82-3.47-2.64-.38-2.64-.38l-.39.58s1.11,2.25,1.6,2.45,1.43.49,1.64.59A11,11,0,0,0,101.09,119.51Z"></path>
      <path class="cls-10" d="M101,119.92c.12-.28.38-1-.4-1.31a11.94,11.94,0,0,0-1.61-.43s-2.07,1.39-2.48,1.61-.67.17.47.58,1.09.7,2.15.63A3.11,3.11,0,0,0,101,119.92Z"></path>
      <path class="cls-11" d="M99,118.18a14.88,14.88,0,0,0-1.54,1.34c-.61.66-.73.87-1.42.47s-2.48-.75-2.91-1.47-.42-.65.21-1.46a3.66,3.66,0,0,1,2.42-1.29,2,2,0,0,1,2.3.63A5.23,5.23,0,0,1,99,118.18Z"></path>
      <path class="cls-8" d="M91.51,117.79s-2.61-2-5-.65-2.92,3.62-2.33,4.25a11,11,0,0,0,1.17.76c.78.47,1.73-1.61,1.79-1.63S91.51,117.79,91.51,117.79Z"></path>
      <path class="cls-19" d="M93.54,120.57s-1.59-3.31-2.91-3-2.84.39-2.84.39l-.23.71s1.81,2,2.38,2.06,1.62.08,1.86.12A12.17,12.17,0,0,0,93.54,120.57Z"></path>
      <path class="cls-10" d="M93.54,121c0-.33.08-1.18-.81-1.23a13.17,13.17,0,0,0-1.79,0s-1.72,2.06-2.08,2.4-.64.38.66.46,1.34.4,2.4,0A3.35,3.35,0,0,0,93.54,121Z"></path>
      <path class="cls-11" d="M90.94,119.82a15.67,15.67,0,0,0-1.18,1.85c-.45.86-.51,1.11-1.33.91s-2.79,0-3.44-.66-.63-.55-.22-1.57a3.94,3.94,0,0,1,2.12-2,2.2,2.2,0,0,1,2.56,0A5.65,5.65,0,0,1,90.94,119.82Z"></path>
      <path class="cls-8" d="M105.14,122.38a1.59,1.59,0,0,0,1.46-.71c.39-.79.13-1.5-.14-1.56a3.59,3.59,0,0,0-.45,0c-.29,0-.18.74-.19.75Z"></path>
      <path class="cls-19" d="M104.1,122s1,.6,1.33.3a9.17,9.17,0,0,1,.69-.61l-.07-.24a3.1,3.1,0,0,0-1-.12c-.17.08-.45.27-.52.3A3.61,3.61,0,0,0,104.1,122Z"></path>
      <path class="cls-10" d="M104,121.88c0,.09.19.33.44.19a4.51,4.51,0,0,0,.47-.33s.1-.86.13-1,.11-.22-.26,0-.43.13-.64.43A1.05,1.05,0,0,0,104,121.88Z"></path>
      <path class="cls-11" d="M104.93,121.74a4.22,4.22,0,0,0,0-.71c0-.31-.06-.38.19-.48s.76-.48,1-.44.27,0,.34.38a1.25,1.25,0,0,1-.2.93.71.71,0,0,1-.68.47A1.81,1.81,0,0,1,104.93,121.74Z"></path>
      <path class="cls-8" d="M80.21,123a2,2,0,0,0,1.91-.79c.57-1,.31-1.89,0-2a4.34,4.34,0,0,0-.57,0c-.37,0-.29.93-.3.94Z"></path>
      <path class="cls-19" d="M78.92,122.37s1.24.86,1.66.49.93-.72.93-.72l-.06-.3a4,4,0,0,0-1.27-.24c-.22.09-.59.3-.69.33A4.59,4.59,0,0,0,78.92,122.37Z"></path>
      <path class="cls-10" d="M78.83,122.21c0,.12.21.43.54.27a5.25,5.25,0,0,0,.63-.37s.19-1.09.25-1.28.15-.26-.33,0-.55.13-.86.49A1.35,1.35,0,0,0,78.83,122.21Z"></path>
      <path class="cls-11" d="M80,122.11a6.5,6.5,0,0,0,0-.9c0-.4,0-.5.29-.6s1-.55,1.36-.46.34.06.4.51a1.59,1.59,0,0,1-.34,1.16.89.89,0,0,1-.9.54A2.3,2.3,0,0,1,80,122.11Z"></path>
      <path class="cls-8" d="M87.49,121.53a1.3,1.3,0,0,1,1.18-.18c.58.27.73.74.59.87a1.42,1.42,0,0,1-.27.17c-.18.11-.42-.32-.44-.32Z"></path>
      <path class="cls-19" d="M87,122.14s.35-.71.66-.67.68.06.68.06l.06.14s-.41.44-.54.46l-.44,0A4.1,4.1,0,0,1,87,122.14Z"></path>
      <path class="cls-10" d="M87,122.23a.2.2,0,0,1,.18-.27,3.37,3.37,0,0,1,.42,0s.43.42.52.49.16.07-.15.1-.31.1-.57,0A.77.77,0,0,1,87,122.23Z"></path>
      <path class="cls-11" d="M87.64,122a2.78,2.78,0,0,1,.3.38c.12.18.13.23.33.18s.66,0,.81-.17.15-.12,0-.33a.91.91,0,0,0-.53-.41.6.6,0,0,0-.61,0A1.41,1.41,0,0,0,87.64,122Z"></path>
      <path class="cls-8" d="M98.17,118.53s-2.46-1.82-4.63-.51-2.64,3.41-2.07,4a9.88,9.88,0,0,0,1.09.68c.73.42,1.57-1.52,1.62-1.54S98.17,118.53,98.17,118.53Z"></path>
      <path class="cls-19" d="M100.1,121.06s-1.53-3-2.76-2.76a26.31,26.31,0,0,1-2.61.41l-.2.67s1.71,1.81,2.24,1.86,1.5,0,1.72.08A13.25,13.25,0,0,0,100.1,121.06Z"></path>
      <path class="cls-10" d="M100.1,121.48c0-.3.05-1.09-.77-1.12a11.24,11.24,0,0,0-1.65.06s-1.55,1.93-1.88,2.25-.58.36.62.42,1.24.34,2.22,0A3.08,3.08,0,0,0,100.1,121.48Z"></path>
      <path class="cls-11" d="M97.68,120.42a13.51,13.51,0,0,0-1.06,1.73c-.39.81-.45,1-1.21.86s-2.58,0-3.2-.54S91.62,122,92,121a3.63,3.63,0,0,1,1.92-1.94,2,2,0,0,1,2.37-.08A5.22,5.22,0,0,1,97.68,120.42Z"></path>
      <path class="cls-8" d="M85,121.37s-2-.36-2.93,1.07-.58,2.82-.07,3a5.54,5.54,0,0,0,.86.09c.56,0,.49-1.38.51-1.4S85,121.37,85,121.37Z"></path>
      <path class="cls-19" d="M86.94,122.32s-1.81-1.36-2.46-.84-1.45,1-1.45,1l.08.46a6.16,6.16,0,0,0,1.89.45c.33-.13.91-.42,1.06-.46A8.28,8.28,0,0,0,86.94,122.32Z"></path>
      <path class="cls-10" d="M87.07,122.57c-.07-.18-.29-.66-.79-.44a7.9,7.9,0,0,0-1,.52s-.36,1.62-.46,1.91-.24.39.49.07.85-.16,1.33-.68A2,2,0,0,0,87.07,122.57Z"></path>
      <path class="cls-11" d="M85.3,122.65a8.66,8.66,0,0,0-.12,1.35c0,.6,0,.76-.47.88s-1.55.77-2.09.62-.5-.12-.56-.8a2.44,2.44,0,0,1,.58-1.73,1.37,1.37,0,0,1,1.4-.75A3.55,3.55,0,0,1,85.3,122.65Z"></path>
      <path class="cls-8" d="M113.36,127.3a1.27,1.27,0,0,0-1.2-.44c-.67.21-.93.73-.82.92a2,2,0,0,0,.25.25c.17.17.52-.3.53-.3Z"></path>
      <path class="cls-19" d="M113.7,128.1s-.21-.9-.55-.91a6.67,6.67,0,0,1-.72-.07l-.1.17s.34.59.47.64.4.11.46.13A2.64,2.64,0,0,0,113.7,128.1Z"></path>
      <path class="cls-10" d="M113.67,128.22c0-.08.09-.29-.13-.35a2.71,2.71,0,0,0-.44-.1s-.54.41-.65.48-.18.06.14.15.31.17.59.14A.84.84,0,0,0,113.67,128.22Z"></path>
      <path class="cls-11" d="M113.1,127.77a3.81,3.81,0,0,0-.4.39c-.15.19-.18.25-.38.15s-.68-.16-.81-.35-.13-.17,0-.4a1,1,0,0,1,.64-.39.57.57,0,0,1,.64.13A1.42,1.42,0,0,1,113.1,127.77Z"></path>
      <path class="cls-8" d="M107,117.57s-3.83-1.91-6.5.42-2.81,5.33-1.89,6a13.54,13.54,0,0,0,1.68.67c1.1.4,1.79-2.47,1.85-2.51S107,117.57,107,117.57Z"></path>
      <path class="cls-19" d="M110.22,120.59s-2.84-3.8-4.46-3.14-3.51,1.21-3.51,1.21l-.1,1s2.79,2.08,3.53,2,2.07-.31,2.39-.31A15.9,15.9,0,0,0,110.22,120.59Z"></path>
      <path class="cls-10" d="M110.33,121.17c0-.42-.19-1.51-1.34-1.36a16.68,16.68,0,0,0-2.25.48s-1.68,3-2,3.56-.71.64,1,.42,1.8.18,3.06-.58A4.29,4.29,0,0,0,110.33,121.17Z"></path>
      <path class="cls-11" d="M106.74,120.29a20.32,20.32,0,0,0-1,2.64c-.34,1.21-.36,1.54-1.46,1.48s-3.55.65-4.53,0-.94-.53-.67-1.93.92-2.06,2.18-3.14a2.83,2.83,0,0,1,3.24-.68A7.36,7.36,0,0,1,106.74,120.29Z"></path>
      <path class="cls-8" d="M120.19,118.37s-3.21-1.89-5.67,0-2.76,4.45-2,5.07a9.9,9.9,0,0,0,1.41.68c.94.42,1.7-2,1.76-2.07S120.19,118.37,120.19,118.37Z"></path>
      <path class="cls-19" d="M122.84,121.19s-2.23-3.47-3.68-3S116,119,116,119l-.15.84s2.3,2,3,2,1.81-.14,2.1-.13A13.91,13.91,0,0,0,122.84,121.19Z"></path>
      <path class="cls-10" d="M122.9,121.7c0-.37-.07-1.32-1.07-1.26a14.23,14.23,0,0,0-2,.28s-1.64,2.54-2,3-.66.51.8.42,1.55.26,2.69-.32A3.78,3.78,0,0,0,122.9,121.7Z"></path>
      <path class="cls-11" d="M119.84,120.72a16.94,16.94,0,0,0-1.07,2.23c-.37,1-.41,1.31-1.35,1.2s-3.13.35-3.94-.25-.78-.52-.46-1.72a4.41,4.41,0,0,1,2.07-2.59,2.49,2.49,0,0,1,2.86-.4A6.44,6.44,0,0,1,119.84,120.72Z"></path>
      <path class="cls-8" d="M128.69,115s-3.16-2.44-6-.79-3.53,4.38-2.81,5.14a10.45,10.45,0,0,0,1.42.91c.94.58,2.08-1.93,2.15-2S128.69,115,128.69,115Z"></path>
      <path class="cls-19" d="M131.14,118.34s-1.92-4-3.52-3.68-3.43.47-3.43.47l-.28.87s2.19,2.4,2.88,2.48,2,.09,2.25.15A14.77,14.77,0,0,0,131.14,118.34Z"></path>
      <path class="cls-10" d="M131.14,118.89c0-.39.09-1.42-1-1.49a14.89,14.89,0,0,0-2.16,0s-2.08,2.48-2.51,2.89-.78.46.79.56,1.61.48,2.91,0A4,4,0,0,0,131.14,118.89Z"></path>
      <path class="cls-11" d="M128,117.44a18.13,18.13,0,0,0-1.43,2.23c-.54,1-.61,1.34-1.61,1.09s-3.37-.05-4.16-.79-.76-.66-.26-1.89,1.21-1.72,2.56-2.49a2.66,2.66,0,0,1,3.09,0A6.85,6.85,0,0,1,128,117.44Z"></path>
      <path class="cls-8" d="M131.15,125.22a1.9,1.9,0,0,0,1.75-.87c.48-1,.17-1.8-.16-1.88a3.37,3.37,0,0,0-.54,0c-.36,0-.22.89-.23.91S131.15,125.22,131.15,125.22Z"></path>
      <path class="cls-19" d="M129.89,124.76s1.23.72,1.6.35a11.1,11.1,0,0,1,.84-.74l-.09-.28a4,4,0,0,0-1.21-.15c-.2.1-.54.32-.63.36A5.09,5.09,0,0,0,129.89,124.76Z"></path>
      <path class="cls-10" d="M129.79,124.61c.06.11.23.4.53.22a4.71,4.71,0,0,0,.57-.39s.12-1,.16-1.23.12-.26-.31,0-.52.15-.78.51A1.28,1.28,0,0,0,129.79,124.61Z"></path>
      <path class="cls-11" d="M130.89,124.44a6.18,6.18,0,0,0,0-.86c0-.37-.08-.47.23-.58s.91-.59,1.26-.53.32,0,.4.46a1.47,1.47,0,0,1-.24,1.12.85.85,0,0,1-.82.57A2.28,2.28,0,0,1,130.89,124.44Z"></path>
      <path class="cls-8" d="M101,125.9a2.45,2.45,0,0,0,2.31-1c.69-1.18.37-2.28,0-2.41a4.59,4.59,0,0,0-.69,0c-.46,0-.35,1.11-.37,1.14S101,125.9,101,125.9Z"></path>
      <path class="cls-19" d="M99.44,125.2s1.5,1,2,.59a12.47,12.47,0,0,1,1.13-.86l-.08-.37a5.1,5.1,0,0,0-1.54-.3c-.26.12-.71.37-.83.41A7.09,7.09,0,0,0,99.44,125.2Z"></path>
      <path class="cls-10" d="M99.33,125c.07.15.26.53.66.33a6.4,6.4,0,0,0,.76-.45s.23-1.31.3-1.54.18-.32-.39,0-.68.16-1,.59A1.62,1.62,0,0,0,99.33,125Z"></path>
      <path class="cls-11" d="M100.75,124.88a8.31,8.31,0,0,0,0-1.09c0-.48-.06-.6.35-.71s1.21-.67,1.65-.57.4.08.47.62a1.94,1.94,0,0,1-.4,1.41,1.08,1.08,0,0,1-1.1.64A2.79,2.79,0,0,1,100.75,124.88Z"></path>
      <path class="cls-8" d="M111.6,119.85a1.43,1.43,0,0,0,1.43.25c.7-.37.89-1,.72-1.2a2.72,2.72,0,0,0-.32-.23c-.22-.15-.52.44-.54.45S111.6,119.85,111.6,119.85Z"></path>
      <path class="cls-19" d="M111.05,119s.42,1,.8.92.83-.08.83-.08l.07-.21s-.5-.59-.66-.62l-.53,0A3.4,3.4,0,0,0,111.05,119Z"></path>
      <path class="cls-10" d="M111.06,118.89c0,.1,0,.34.22.37a5,5,0,0,0,.51,0s.52-.57.63-.66.19-.1-.18-.14-.38-.14-.7,0A1,1,0,0,0,111.06,118.89Z"></path>
      <path class="cls-11" d="M111.79,119.27a3.91,3.91,0,0,0,.37-.52c.13-.24.15-.31.39-.24s.8,0,1,.23.18.16,0,.45a1.12,1.12,0,0,1-.63.57.64.64,0,0,1-.74,0A1.62,1.62,0,0,1,111.79,119.27Z"></path>
      <path class="cls-8" d="M124.49,125.29s3.6.88,5.4-1.6,1.35-5,.45-5.4a10.3,10.3,0,0,0-1.54-.25c-1-.13-1,2.43-1.08,2.48S124.49,125.29,124.49,125.29Z"></path>
      <path class="cls-19" d="M121.16,123.37s3.12,2.66,4.36,1.79,2.72-1.69,2.72-1.69l-.09-.83s-2.76-1.22-3.37-1-1.68.65-2,.72A13.8,13.8,0,0,0,121.16,123.37Z"></path>
      <path class="cls-10" d="M121,122.91c.11.35.46,1.23,1.39.89a14.59,14.59,0,0,0,1.81-.84s.83-2.89,1-3.4.48-.67-.88-.17-1.55.2-2.47,1.08A3.75,3.75,0,0,0,121,122.91Z"></path>
      <path class="cls-11" d="M124.15,123a17.42,17.42,0,0,0,.37-2.43c.06-1.08,0-1.37,1-1.53s2.87-1.23,3.82-.89.89.27.93,1.5a4.4,4.4,0,0,1-1.23,3.06,2.47,2.47,0,0,1-2.6,1.2A6.42,6.42,0,0,1,124.15,123Z"></path>
      <path class="cls-8" d="M107.91,123.21s2.16,1.22,3.77,0,1.77-3,1.26-3.4a6.77,6.77,0,0,0-1-.44c-.63-.26-1.1,1.38-1.14,1.4S107.91,123.21,107.91,123.21Z"></path>
      <path class="cls-19" d="M106.11,121.38s1.53,2.27,2.48,1.94,2.06-.6,2.06-.6l.09-.56s-1.55-1.28-2-1.26-1.2.12-1.39.11A9,9,0,0,0,106.11,121.38Z"></path>
      <path class="cls-10" d="M106.06,121c0,.24.07.88.73.82a9.17,9.17,0,0,0,1.32-.21s1-1.71,1.28-2,.44-.35-.53-.27-1-.15-1.79.25A2.51,2.51,0,0,0,106.06,121Z"></path>
      <path class="cls-11" d="M108.11,121.65a10.71,10.71,0,0,0,.68-1.5c.23-.68.25-.88.88-.81s2.08-.27,2.63.11.52.34.32,1.14a2.89,2.89,0,0,1-1.34,1.75,1.65,1.65,0,0,1-1.89.3A4.27,4.27,0,0,1,108.11,121.65Z"></path>
    </g>
  </g>
</svg>
