<?xml version="1.0" encoding="UTF-8"?>
<svg xmlns="http://www.w3.org/2000/svg" xmlns:xlink="http://www.w3.org/1999/xlink" viewBox="0 0 111.28 238.85">
  <defs>
    <style>.cls-1{fill:#8e6848;}.cls-2{fill:url(#Безымянный_градиент_7);}.cls-3{fill:#713e21;}.cls-4{fill:#3d271f;}.cls-5{fill:#69391e;}.cls-6{fill:#6b482f;}.cls-7{fill:#5c3624;}.cls-8{fill:#795135;}.cls-9{fill:#9a734f;}.cls-10{fill:#cacac9;}.cls-11{fill:#85563a;}.cls-12{fill:#769b57;}.cls-13,.cls-18{fill:none;stroke:#79a05b;stroke-miterlimit:10;}.cls-13{stroke-width:0.43px;}.cls-14{fill:#486f3a;}.cls-15{fill:#79a05b;}.cls-16{fill:#9cca64;}.cls-17{fill:#b0dc72;}.cls-18{stroke-width:0.32px;}.cls-19{fill:#eaca57;}</style>
    <linearGradient id="Безымянный_градиент_7" x1="51.41" y1="271.26" x2="55.79" y2="189.93" gradientUnits="userSpaceOnUse">
      <stop offset="0.38" stop-color="#9b714f"></stop>
      <stop offset="0.91" stop-color="#754427"></stop>
      <stop offset="1" stop-color="#6e3c20"></stop>
    </linearGradient>
  </defs>
  <g id="Слой_2" data-name="Слой 2">
    <g id="Слой_1-2" data-name="Слой 1">
      <path class="cls-1" d="M55.81,182.83s8.15,9.57,14.44,10S98,186.38,98,186.38L100.2,164,55.81,148.35Z"></path>
      <path class="cls-1" d="M7,162.42l4.43,29.19s15.73,2.36,18.48,1.57,15.34-5.5,18.88-5.5,7.06-4.85,7.06-4.85V148.35Z"></path>
      <polygon class="cls-2" points="13.5 218.93 55.81 238.85 94.95 219.03 54.26 201.79 13.5 218.93"></polygon>
      <path class="cls-3" d="M13.5,218.93l-2.11-27.32s20.06-.39,25.56-3.15,18.86-5.63,18.86-5.63l-1.55,19Z"></path>
      <path class="cls-4" d="M42.09,193.31a7.2,7.2,0,0,0-2.4-1.42h0s-3.2-1-5,1.2-1.45,4.47-.65,4.85a10.11,10.11,0,0,0,1.38.29s.05,0,.08,0a24.84,24.84,0,0,0,3-.67,1.37,1.37,0,0,0,.51-.14c.14,0,.3-.08.55-.16,1.25-.38,1.41-.1,2.27-.86a3.33,3.33,0,0,0,.92-2.15,1.89,1.89,0,0,0-.17-.43h0l0,0A.77.77,0,0,0,42.09,193.31Z"></path>
      <path class="cls-4" d="M24.91,196.12a9.29,9.29,0,0,0-3.4,1.13v0s-3.64,2.28-3,5.8,3.09,5.19,4.13,4.74a12.08,12.08,0,0,0,1.45-1.09s0-.08,0-.11c.78-.89,1.35-2.67,1.87-3.43a1.87,1.87,0,0,0,.3-.61c.09-.17.18-.36.32-.67.68-1.54,1.08-1.45,1.09-2.92a4.32,4.32,0,0,0-1.3-2.72,2.77,2.77,0,0,0-.56-.19v0h-.07A1.07,1.07,0,0,0,24.91,196.12Z"></path>
      <path class="cls-5" d="M55.81,182.83l-1.55,19L95,219,98,186.38s-12.69-1.46-18.2-.67-15.09,3.15-18,1.57A38.18,38.18,0,0,1,55.81,182.83Z"></path>
      <path class="cls-4" d="M40.31,202.31a2.86,2.86,0,0,0-1.06-.27h0a1.94,1.94,0,0,0-1.72,1c-.42,1-.05,1.84.29,1.89a3,3,0,0,0,.56,0l0,0a10.71,10.71,0,0,0,1-.59.5.5,0,0,0,.18-.11l.19-.12c.42-.28.51-.19.76-.57a1.34,1.34,0,0,0,.1-.92.92.92,0,0,0-.11-.14h0A.28.28,0,0,0,40.31,202.31Z"></path>
      <path class="cls-4" d="M80.18,194.14a2,2,0,0,0-.09-.75h0s-.32-.85-1.08-.87-1.21.42-1.16.66a2.67,2.67,0,0,0,.17.34l0,0a7.16,7.16,0,0,0,.64.53l.11.09.13.09c.29.21.25.29.56.35a.93.93,0,0,0,.62-.16.36.36,0,0,0,.06-.11h0v0A.27.27,0,0,0,80.18,194.14Z"></path>
      <path class="cls-4" d="M91.54,207.85a9.24,9.24,0,0,0-1.61-3.23h0s-2.8-3.31-6.22-2.2-4.74,3.84-4.14,4.81a11.93,11.93,0,0,0,1.29,1.29s.08,0,.12,0c1,.64,2.87,1,3.7,1.37a2,2,0,0,0,.65.21l.71.22c1.64.46,1.61.87,3.08.67a4.39,4.39,0,0,0,2.53-1.7,3,3,0,0,0,.11-.58h0v-.06A1.07,1.07,0,0,0,91.54,207.85Z"></path>
      <path class="cls-4" d="M69.43,196.6a7.22,7.22,0,0,0-1.58,2.27h0s-1.19,3.1.81,5,4.33,1.77,4.76,1a9,9,0,0,0,.39-1.34s0-.06,0-.09a25.73,25.73,0,0,0-.44-3,1.75,1.75,0,0,0-.1-.51c0-.15-.06-.3-.12-.56-.29-1.27,0-1.4-.68-2.32A3.37,3.37,0,0,0,70.36,196a2.11,2.11,0,0,0-.43.14h0l0,0A.83.83,0,0,0,69.43,196.6Z"></path>
      <path class="cls-6" d="M69.58,219.78a1.35,1.35,0,0,0,1.33-.35c.46-.59.36-1.21.15-1.31a2.45,2.45,0,0,0-.37-.07c-.25,0-.27.58-.29.59Z"></path>
      <path class="cls-7" d="M68.79,219.29s.74.67,1,.47a5.74,5.74,0,0,1,.67-.39l0-.21a2.83,2.83,0,0,0-.81-.27c-.15,0-.41.15-.48.16A2.79,2.79,0,0,0,68.79,219.29Z"></path>
      <path class="cls-8" d="M68.74,219.18c0,.08.1.3.33.22a2.76,2.76,0,0,0,.45-.19s.22-.69.28-.82.12-.16-.22,0-.38,0-.6.25A.93.93,0,0,0,68.74,219.18Z"></path>
      <path class="cls-9" d="M69.52,219.21a5.32,5.32,0,0,0,.11-.59c0-.26,0-.33.24-.36s.71-.28.93-.19.22.07.22.37a1.11,1.11,0,0,1-.32.74.61.61,0,0,1-.64.27A1.44,1.44,0,0,1,69.52,219.21Z"></path>
      <path class="cls-6" d="M60.54,214.59a3,3,0,0,0,2.75-1.41c.72-1.52.21-2.84-.31-3a6.44,6.44,0,0,0-.85,0c-.56,0-.32,1.41-.34,1.44Z"></path>
      <path class="cls-7" d="M58.55,213.9s2,1.11,2.53.52,1.3-1.19,1.3-1.19l-.14-.44a6.41,6.41,0,0,0-1.92-.21c-.31.17-.84.53-1,.59A7.5,7.5,0,0,0,58.55,213.9Z"></path>
      <path class="cls-8" d="M58.39,213.67c.1.17.37.62.84.33a7.93,7.93,0,0,0,.89-.63s.15-1.64.22-1.93.19-.42-.5,0-.81.27-1.21.83A2,2,0,0,0,58.39,213.67Z"></path>
      <path class="cls-9" d="M60.12,213.37a9.35,9.35,0,0,0,0-1.35c-.07-.59-.13-.73.36-.91s1.42-1,2-.87.5,0,.65.71a2.41,2.41,0,0,1-.35,1.78,1.35,1.35,0,0,1-1.28.9A3.38,3.38,0,0,1,60.12,213.37Z"></path>
      <path class="cls-6" d="M52.11,221.17s1.58,1.2,3,.37,1.74-2.19,1.37-2.56a7.3,7.3,0,0,0-.7-.45c-.47-.28-1,1-1.06,1S52.11,221.17,52.11,221.17Z"></path>
      <path class="cls-7" d="M50.88,219.52s1,2,1.76,1.81a16.21,16.21,0,0,1,1.7-.25l.13-.43s-1.1-1.19-1.44-1.22-1,0-1.11-.06A7.13,7.13,0,0,0,50.88,219.52Z"></path>
      <path class="cls-8" d="M50.88,219.25c0,.19,0,.7.49.73a7.36,7.36,0,0,0,1.07,0s1-1.24,1.23-1.44.38-.23-.39-.28-.81-.23-1.45,0A2,2,0,0,0,50.88,219.25Z"></path>
      <path class="cls-9" d="M52.44,220a8.91,8.91,0,0,0,.7-1.11c.26-.52.29-.67.79-.55s1.67,0,2.06.38.39.32.14.93a2.3,2.3,0,0,1-1.25,1.24,1.32,1.32,0,0,1-1.54,0A3.42,3.42,0,0,1,52.44,220Z"></path>
      <path class="cls-6" d="M48.47,215.72a2.26,2.26,0,0,0,.08-2.31c-.73-1-1.78-1.18-2-.87a4.49,4.49,0,0,0-.3.56c-.18.38.81.72.82.75Z"></path>
      <path class="cls-7" d="M47.29,216.77s1.44-.87,1.26-1.46-.3-1.28-.3-1.28l-.33-.08s-.84.92-.84,1.18,0,.74,0,.86A6.14,6.14,0,0,0,47.29,216.77Z"></path>
      <path class="cls-8" d="M47.08,216.79c.15,0,.54,0,.53-.43a5.39,5.39,0,0,0-.09-.81s-1-.7-1.19-.85-.2-.27-.18.32-.12.63.1,1.1A1.58,1.58,0,0,0,47.08,216.79Z"></path>
      <path class="cls-9" d="M47.52,215.55a6.24,6.24,0,0,0-.9-.46c-.41-.17-.53-.18-.47-.57s-.1-1.27.15-1.6.22-.31.71-.17a1.85,1.85,0,0,1,1,.88,1,1,0,0,1,.13,1.17A2.66,2.66,0,0,1,47.52,215.55Z"></path>
      <path class="cls-6" d="M41.3,217.43a1,1,0,0,0,.33-1c-.17-.52-.59-.72-.74-.62a1.68,1.68,0,0,0-.19.19c-.12.13.24.4.24.42S41.3,217.43,41.3,217.43Z"></path>
      <path class="cls-7" d="M40.68,217.71s.7-.18.71-.45a5,5,0,0,1,0-.56l-.13-.08s-.47.27-.5.38-.08.31-.1.36A2.37,2.37,0,0,0,40.68,217.71Z"></path>
      <path class="cls-8" d="M40.59,217.69a.19.19,0,0,0,.27-.11,2.34,2.34,0,0,0,.07-.35l-.39-.5c0-.08,0-.14-.11.11s-.13.24-.1.47A.66.66,0,0,0,40.59,217.69Z"></path>
      <path class="cls-9" d="M40.93,217.23a3.06,3.06,0,0,0-.31-.3c-.15-.12-.2-.15-.13-.3s.12-.54.27-.64.13-.1.31,0a.79.79,0,0,1,.32.49.43.43,0,0,1-.1.5A1,1,0,0,1,40.93,217.23Z"></path>
      <path class="cls-6" d="M39.1,221.38s1.39-2.23.12-4-3.1-2-3.55-1.5a8.13,8.13,0,0,0-.5,1c-.32.65,1.4,1.23,1.42,1.28S39.1,221.38,39.1,221.38Z"></path>
      <path class="cls-7" d="M37.07,223.21s2.48-1.52,2.17-2.55-.54-2.21-.54-2.21l-.58-.13s-1.43,1.59-1.43,2.05.06,1.28.05,1.48A9.71,9.71,0,0,0,37.07,223.21Z"></path>
      <path class="cls-8" d="M36.71,223.24c.26,0,.93,0,.9-.74a9.61,9.61,0,0,0-.16-1.41s-1.76-1.19-2.06-1.45-.35-.48-.31.55-.21,1.09.18,1.91A2.65,2.65,0,0,0,36.71,223.24Z"></path>
      <path class="cls-9" d="M37.45,221.09a12.05,12.05,0,0,0-1.56-.79c-.71-.28-.91-.31-.82-1s-.19-2.21.25-2.78.38-.54,1.21-.29a3.09,3.09,0,0,1,1.8,1.5,1.76,1.76,0,0,1,.23,2A4.44,4.44,0,0,1,37.45,221.09Z"></path>
      <path class="cls-10" d="M54.8,168.14c-2.1,2.43-5.77,5.07-4.28,8.77.18.44.91.25.73-.21-1.38-3.39,2.17-5.8,4.09-8,.32-.37-.22-.91-.54-.54Z"></path>
      <path class="cls-10" d="M56,170.24c-2.26,1.36-5,1.65-7.22,3s-3,3.45-3.61,5.79c-.14.46.59.66.73.2.86-3.09,2.15-5.1,5.25-6.25a29.65,29.65,0,0,0,5.23-2.11.38.38,0,0,0-.38-.65Z"></path>
      <path class="cls-10" d="M55.37,171.57c-1,2.27-2,4.54-3,6.83a8.54,8.54,0,0,0-.93,4.72c.06.48.79.28.72-.2-.32-2.31,1-4.39,1.88-6.42L56,172c.19-.44-.46-.83-.66-.38Z"></path>
      <path class="cls-10" d="M55,173.18a6.86,6.86,0,0,1-2.2,4.35,23.21,23.21,0,0,0-2.84,2.3A9.39,9.39,0,0,0,47.76,185c-.06.49.7.48.76,0,.4-3.37,2.3-4.91,4.78-6.88,1.55-1.23,2-2.88,2.41-4.75.1-.48-.63-.68-.73-.2Z"></path>
      <path class="cls-10" d="M52.87,177.55c-2.64,1.53-5.31,3-7.93,4.6a7.85,7.85,0,0,0-3.61,4l.75.1,0-.64c0-.49-.72-.49-.76,0l0,.64c0,.46.59.46.74.1,1-2.5,3.26-3.52,5.45-4.79l5.75-3.33a.38.38,0,0,0-.39-.65Z"></path>
      <path class="cls-10" d="M47.71,180.39c-1.47.35-3.71-.41-4.68,1.18s1.14,4,0,5.66a.38.38,0,0,0,.06.46l0,.06a.39.39,0,0,0,.37.1l.09,0a.38.38,0,0,0,.17-.63l0,0c-.37-.31-.91.22-.54.53l0,0,.17-.63.23.07.06.45c.65-1,.24-2.55,0-3.62a3.37,3.37,0,0,1,.09-2.22c.31-.44,1.14-.49,1.63-.51a12.61,12.61,0,0,0,2.46-.14c.48-.11.28-.84-.2-.73Z"></path>
      <path class="cls-10" d="M44.15,180.22a11.37,11.37,0,0,0-4.36-.7c-.48,0-.49.78,0,.76A10.72,10.72,0,0,1,44,181c.46.17.66-.56.2-.73Z"></path>
      <path class="cls-10" d="M42.48,182.5c-1,1.34-3,3.26-2.11,5.05.21.44.87.06.65-.38-.4-.83.26-1.7.72-2.35l1.39-1.94c.29-.39-.37-.77-.65-.38Z"></path>
      <path class="cls-10" d="M55.69,172.25a4.48,4.48,0,0,1-.85,4c-.5.62-1.18,1-1.64,1.68-.89,1.26-.79,2.87-.67,4.33l.48-.36-.64-.14c-.47-.1-.67.63-.2.73l.64.14a.39.39,0,0,0,.48-.37,6.29,6.29,0,0,1,.4-3.72c.49-.83,1.41-1.3,2-2.08a5.33,5.33,0,0,0,.76-4.39c-.11-.47-.84-.27-.73.2Z"></path>
      <path class="cls-10" d="M56,176.8a17.16,17.16,0,0,1-.83,6.17,12.7,12.7,0,0,0-1.27,4.37.38.38,0,0,0,.76,0c0-2,1.18-3.58,1.66-5.46a20.1,20.1,0,0,0,.43-5.08.38.38,0,0,0-.75,0Z"></path>
      <path class="cls-10" d="M48.35,194.33c1.39-3.68,3.86-5.67,6.85-8A9.45,9.45,0,0,0,59,180.4c.09-.48-.64-.68-.73-.2-.73,3.82-3.52,5.28-6.26,7.59a15,15,0,0,0-4.38,6.34c-.17.46.56.66.73.2Z"></path>
      <path class="cls-10" d="M46.75,192l.17-1.8c.08-.85-.05-1.73.95-2a11.16,11.16,0,0,1,2-.15l2.22-.17c.48,0,.49-.8,0-.76l-3.55.27c-.55.05-1.33,0-1.79.34a1.48,1.48,0,0,0-.45,1.09c-.16,1.06-.21,2.14-.31,3.2,0,.49.71.48.76,0Z"></path>
      <path class="cls-10" d="M45.3,191.08A6.8,6.8,0,0,0,47,188.9c.21-.44-.44-.82-.65-.39a6.17,6.17,0,0,1-1.55,2c-.37.32.17.86.54.54Z"></path>
      <path class="cls-10" d="M46.94,196.35c2.74.41,6.73,1.74,8.59-1.15.89-1.37.92-3.21,1.19-4.76a39.91,39.91,0,0,1,2.32-8c.18-.45-.55-.65-.73-.2a42.35,42.35,0,0,0-2.48,9c-.17,1-.22,2.74-.95,3.55-1.24,1.38-3.56,1.4-5.17,1.18-.86-.11-1.71-.25-2.57-.38-.48-.08-.68.65-.2.73Z"></path>
      <path class="cls-10" d="M53,193.93a39.64,39.64,0,0,1,3.91-4.75c.34-.35-.2-.89-.53-.54a40.31,40.31,0,0,0-4,4.91c-.28.4.37.78.65.38Z"></path>
      <path class="cls-10" d="M48.72,199.73a2.4,2.4,0,0,1,1.7-3.1c.48-.11.28-.84-.2-.73a3.15,3.15,0,0,0-2.23,4c.16.46.89.26.73-.2Z"></path>
      <path class="cls-10" d="M52.58,202.06c.79-2.22,2.32-3.67,3.31-5.72s1.06-4.25,2-6.27c.2-.44-.45-.82-.66-.38-1.14,2.49-1.32,5.23-2.87,7.51a19.92,19.92,0,0,0-2.5,4.66c-.16.46.57.66.73.2Z"></path>
      <path class="cls-10" d="M55.63,169.18a4.49,4.49,0,0,0,5.13,4.22c.48-.08.28-.81-.2-.73a3.72,3.72,0,0,1-4.17-3.49c0-.48-.77-.49-.76,0Z"></path>
      <path class="cls-10" d="M56.05,172.49c.83,1.84,3,2,4.74,2.45,3.58.81,7.09,1.56,10.28,3.46a.38.38,0,0,0,.38-.65,24.7,24.7,0,0,0-6.53-2.63c-2.11-.55-7.17-.68-8.22-3-.2-.44-.85-.06-.65.38Z"></path>
      <path class="cls-10" d="M59,174.75a7.63,7.63,0,0,0,3.57.94c2.23.27,3.69,1.45,5.22,3a.38.38,0,0,0,.54-.53,11.18,11.18,0,0,0-3.61-2.77c-1.74-.69-3.72-.24-5.34-1.3-.41-.26-.79.39-.38.66Z"></path>
      <path class="cls-10" d="M64.19,176a6.61,6.61,0,0,0,4.38,6.42c.46.17.66-.56.21-.73A5.83,5.83,0,0,1,65,176c0-.48-.74-.48-.76,0Z"></path>
      <path class="cls-10" d="M58.58,175.54c3.07,3.26,5.29,9.06,10.69,8.58.48,0,.48-.8,0-.76-5.1.46-7.23-5.25-10.16-8.36-.33-.35-.87.18-.53.54Z"></path>
      <path class="cls-10" d="M58.31,177.17c3.4,2.12,6.87,5,10.86,5.8.48.1.68-.63.21-.73-3.88-.82-7.39-3.66-10.69-5.72-.41-.26-.79.39-.38.65Z"></path>
      <path class="cls-10" d="M57.64,177.57a17.71,17.71,0,0,0,1.22,4.94,22.7,22.7,0,0,1,1.26,6.58c0,.49.77.49.75,0a22,22,0,0,0-.76-5.17c-.6-2.14-1.59-4.09-1.71-6.35,0-.48-.78-.48-.76,0Z"></path>
      <path class="cls-10" d="M56.74,179c2.16,3.43,7.09,3.89,8.8,7.63.21.44.86.06.66-.38-1.75-3.8-6.65-4.21-8.81-7.63-.26-.41-.91,0-.65.38Z"></path>
      <path class="cls-10" d="M57.94,185.18c1,1.89,3,2,4.92,2.37,3.13.5,7.81.09,10.31,2.14.37.31.91-.22.53-.53a7.67,7.67,0,0,0-4.38-1.56c-2.53-.29-9.32,0-10.73-2.8-.22-.43-.87-.05-.65.38Z"></path>
      <path class="cls-10" d="M65,187.93a18.15,18.15,0,0,1,3.41,6.95.38.38,0,0,0,.73-.2,18.79,18.79,0,0,0-3.61-7.28c-.3-.39-.83.15-.53.53Z"></path>
      <path class="cls-10" d="M57.26,185.48a20.79,20.79,0,0,1,4.13,8.84,81.35,81.35,0,0,1,.92,10.58c0,.48.78.48.76,0-.31-7.44-.74-13.66-5.16-19.8-.28-.39-.94,0-.65.38Z"></path>
      <path class="cls-10" d="M57.43,185.19a164.69,164.69,0,0,1-.91,20.11c-.05.49.7.48.76,0a166.72,166.72,0,0,0,.91-20.11.38.38,0,0,0-.76,0Z"></path>
      <path class="cls-10" d="M62,195.92a9.83,9.83,0,0,1,3.57,5.37.38.38,0,0,0,.73-.2,10.62,10.62,0,0,0-3.92-5.83c-.38-.29-.76.36-.38.66Z"></path>
      <path class="cls-10" d="M61.78,195.6a8.42,8.42,0,0,0,5.53,2.48c.49,0,.48-.72,0-.75a7.59,7.59,0,0,1-5-2.27.38.38,0,0,0-.53.54Z"></path>
      <path class="cls-10" d="M55.45,167.43l.09,5.07a.38.38,0,0,0,.76,0l-.09-5.07a.38.38,0,0,0-.76,0Z"></path>
      <path class="cls-10" d="M55.81,165.44c-2,3.09-.16,6.79-1,10.15-.11.47.62.67.73.2.8-3.24-.93-7,.92-10,.26-.41-.4-.79-.66-.38Z"></path>
      <path class="cls-10" d="M56.29,173.23a14,14,0,0,1,.84,5.33c0,.49.74.48.76,0A14.48,14.48,0,0,0,57,173c-.17-.45-.9-.26-.73.2Z"></path>
      <path class="cls-10" d="M55.81,174.06v4.88a.38.38,0,0,0,.75,0v-4.88a.38.38,0,0,0-.75,0Z"></path>
      <path class="cls-10" d="M57,175l-.19,3.6c-.07,1.19,0,2.52-.69,3.53-.29.39.37.77.65.38a5,5,0,0,0,.73-2.8c.09-1.57.17-3.14.26-4.71,0-.49-.73-.49-.76,0Z"></path>
      <path class="cls-10" d="M56.58,178.45a17.1,17.1,0,0,1-1.86,5.78c-.22.43.43.82.66.39a18,18,0,0,0,1.93-6c.06-.48-.66-.68-.73-.2Z"></path>
      <path class="cls-10" d="M56.17,175l.7,4.67c.07.48.8.27.73-.21l-.7-4.66c-.08-.48-.81-.28-.73.2Z"></path>
      <path class="cls-10" d="M56.16,173.09a32.77,32.77,0,0,0,.73,5.31.38.38,0,0,0,.73,0l.14-.72c.09-.48-.64-.68-.73-.2l-.14.72h.73a32.56,32.56,0,0,1-.71-5.11c0-.49-.78-.49-.75,0Z"></path>
      <path class="cls-10" d="M56.94,174.26a11.54,11.54,0,0,0,.92,3.32.37.37,0,0,0,.59.08,2.29,2.29,0,0,0,.6-2c0-.35-.53-.33-.69-.09l-.45.66.69.09-.76-2.61a.37.37,0,0,0-.72,0,6.14,6.14,0,0,0,0,2.34c.06.37.52.32.69.09a2.81,2.81,0,0,0,.62-2l-.74.1.28,1.49c.08.44.72.3.74-.1A5,5,0,0,0,57.48,172c-.31-.38-.84.16-.54.53a4.26,4.26,0,0,1,1,3.06l.75-.1L58.37,174c-.08-.42-.76-.32-.74.1a2.35,2.35,0,0,1-.52,1.61l.69.09a5.28,5.28,0,0,1,0-1.94h-.72l.75,2.61a.39.39,0,0,0,.69.09l.45-.66-.69-.09a1.39,1.39,0,0,1-.4,1.32l.59.07a10,10,0,0,1-.81-2.94c-.06-.48-.82-.48-.76,0Z"></path>
      <path class="cls-10" d="M57.33,180.33a21,21,0,0,1-.31,5.86l.75.1,0-.52c0-.48-.78-.48-.75,0l0,.52c0,.4.66.54.74.1a22,22,0,0,0,.34-6.06c0-.49-.8-.49-.76,0Z"></path>
      <path class="cls-10" d="M56.75,179.53a106.15,106.15,0,0,1-.27,12.23c0,.44.62.48.75.1l1.24-3.66c.15-.46-.58-.66-.73-.2l-1.24,3.66.74.1a106.14,106.14,0,0,0,.26-12.23c0-.48-.77-.48-.75,0Z"></path>
      <path class="cls-10" d="M56.65,181.88a3.81,3.81,0,0,1-.28,2c-.19.44.46.83.66.38a4.63,4.63,0,0,0,.38-2.38c0-.47-.81-.48-.76,0Z"></path>
      <path class="cls-10" d="M58,181.09a22.72,22.72,0,0,0,.74,6,.38.38,0,0,0,.73-.21,21.51,21.51,0,0,1-.72-5.76.38.38,0,0,0-.75,0Z"></path>
      <path class="cls-10" d="M57.82,185.89a10.79,10.79,0,0,0-.51,3.7.38.38,0,0,0,.74.1,16.1,16.1,0,0,0,.07-11.32c-.17-.45-.9-.26-.73.2a15.44,15.44,0,0,1-.07,10.92l.74.1a10.59,10.59,0,0,1,.49-3.5c.15-.47-.58-.67-.73-.2Z"></path>
      <path class="cls-10" d="M57,178.07l-.26,1.51a.38.38,0,0,0,.73.2,4.63,4.63,0,0,0,.22-1.81c0-.49-.79-.49-.75,0a4.2,4.2,0,0,1-.2,1.61l.73.2.26-1.51c.08-.48-.65-.68-.73-.2Z"></path>
      <path class="cls-10" d="M55.64,171A14.64,14.64,0,0,0,57,174a.38.38,0,0,0,.7-.19,5.84,5.84,0,0,0-.29-2.45.39.39,0,0,0-.56-.22,3.94,3.94,0,0,0-2.23,3.72.38.38,0,0,0,.57.33,2.1,2.1,0,0,0,1.11-1.36.39.39,0,0,0-.56-.43,3.33,3.33,0,0,0-1.08,1l.69.29a19.78,19.78,0,0,0,.24-4.14c0-.49-.78-.49-.76,0a18.58,18.58,0,0,1-.21,3.94.38.38,0,0,0,.69.29,2.42,2.42,0,0,1,.81-.72l-.55-.43a1.4,1.4,0,0,1-.76.9l.57.33a3.2,3.2,0,0,1,1.85-3.07l-.55-.23a5.22,5.22,0,0,1,.26,2.25l.71-.19a13.68,13.68,0,0,1-1.27-2.78c-.15-.47-.88-.27-.73.2Z"></path>
      <polygon class="cls-11" points="6.96 162.42 55.81 182.83 100.2 164 55.81 148.35 6.96 162.42"></polygon>
      <path class="cls-12" d="M58.84,21c.21-.49,3.94-6.86,6.64-7.46,0,0,1.41,0,.65-1.24s5.13-2.75,5.29-3,1.14-1.13.38-2,5.08-2.21,5.08-2.21.76-.6.33-1.25,5.67-1.78,5.67-1.78S83.9,1,81,1.44l-5.51.81S76.29-.34,74.72,0C74.72,0,72.2,3.44,71,4c0,0-.93-2-2.23-1.19L65.86,7a1.62,1.62,0,0,0-2.81,0,10.73,10.73,0,0,0-1.51,5,2.91,2.91,0,0,1-.44-1.59s-.05-.52-1.35-.25c0,0,1-7.24-2-4.54,0,0-2.11-5.4-3.24-4.92,0,0-.81,0,0,1.46a34.8,34.8,0,0,1,3,17.13s-.38.43.21,1.62a3.68,3.68,0,0,1-.11,1.24c-.16.44-.19-.23-1.31-.34a1.77,1.77,0,0,1,.18-1.44c.43-.94,1-3.85-1.69-3.67,0,0,0-4.11-.67-4.33s-1.24,4.18-1.24,4.18-3.35-1-.65,3.42c0,0,.39.11-.18.9s.5,3,3,4.72l1,.8a19.07,19.07,0,0,0,.58,2.3c1-.33,2.81-1.4,4.25-1.19S63.73,29,64,28a2,2,0,0,0-.61-2.2c-.54-.29,1.69-.36,3.17-.43s1.94-1.15,1-1.66S73,22.41,74,22.51s1.84-.61-.65-.72-2.59.47-2.48-.11-.22-2.84-4.18,0c0,0-.9.76-.87-.54s-2.34-1.26-3.6.5-1.76,1.84-1.87,1.09.47-1.41.21-1.66-.93.47-1.51,1.19-.86.36-.54-.47Z"></path>
      <path class="cls-12" d="M56.53,39.73c.3.76,4.32-2.23,5.26-2s1.87,0,1.94-.93c0,0,4.76.72,5.33.5a1.57,1.57,0,0,0,0-2.88s4.83-1.3,6.27-3.53-2,.29-3.37.29-1.56.11-2,.05-.06-1.94-1.57-1.62a4.73,4.73,0,0,1-1.29.92,30.52,30.52,0,0,0-3.3,1.24,2.47,2.47,0,0,1-1.25.38c-.16,0,.49-2.92-1.94-1.35s-3.51,2.7-3.68,3.86S55.79,37.88,56.53,39.73Z"></path>
      <path class="cls-12" d="M27.93,49a10.21,10.21,0,0,1-5.56-2.16c-2.7-2.11-6.16-5-6.54-5.19s-2.38,1.3-1,4.81c0,0,1.08,1.41-.92.81s-6.81-3.51-8-1.46,0,2.49,0,2.49A13,13,0,0,0,.65,50.93c-2.06,1.89,1.4,1.78,1.67,1.78s4.43-1.13,4.54-.37-.81,3,1.78,2.7,3.95-3.07,4.54-3,1.41.21,1,1.4-.43,3.35,2.48,2.64,5.57-3.89,5.73-3.4-.32.81-.81,1.14A23.46,23.46,0,0,0,17.77,59c-.54,1.4-4.86,3.67-4.64,9.72,0,0,0,1.89,1.19,1.51,0,0-.76,4.65,2.21,6.11,0,0,.76,6.7,2.33,6.86,0,0-.44-7.83.64-10.1,0,0,.27-7.3.76-10.32s.5-10,7.67-13.24Z"></path>
      <path class="cls-12" d="M54.73,31.59c-.32-.65-.11-2.59-2.59-4.48s-1.62-5.62-4.7-3.19c0,0-2.54-2.11-2.6-3.24s-1.46-.54-1.13.81-1.24,2.27,1.94,6.16c0,0,.33.33-.38.84s-.1,1.64,1.73,2.18,8,2,9.26,6.81Z"></path>
      <path class="cls-12" d="M77.85,45.1a25.6,25.6,0,0,1,1.3-3.19c.32-.7.59-6.7,1.3-8.21s1.29-3.35,3.78-2.7c0,0,2.48-1.18,2.81-2.51S88.6,25.86,89.42,26s1.72,0,1.94.33,1.08-.06,1.3.1,2.1-1,1.78.11a8.14,8.14,0,0,1-2.16,2.59s2.16,1.63-2,3.3c0,0-.86.22-.11,1.4s1.3,3.84-3.35,4.49c0,0-4.43,3.94-4.64,2.86s-2.06,4-3.19,4S78,45.69,77.85,45.1Z"></path>
      <path class="cls-12" d="M83.69,43.34S95.32,30.4,94.48,38c0,0,8.93-4.81,7.36.65,0,0-.11,1,2.38.16s3.67-.86,3.94,1.35c0,0,2.33.92,2,1.84,0,0,2.5.91,0,1.32,0,0-1.32,1.32-2.3,0,0,0-1,2.62-4.81-1.54,0,0-.27,2.86-3.18,1.54s-3-1.48-4.33-1.32c0,0-.16.32.44,1.08s.7,2.92-6.05,1S83.69,43.34,83.69,43.34Z"></path>
      <path class="cls-12" d="M75,47.32c-.16,0,16.54-1.47,23.4,7.29,0,0,.25,1.24-.9.81s1.77,4.75,1.39,6.21-.27,1.89-1.62,1.51c0,0-2.7,6.65-1.89,9.94,0,0-4,.33-4.43-8.16,0,0-4.49-.27-2.33-6.37,0,0,.33-1.57-.86-.76s-3.4-.7-2.7-4.64A19.47,19.47,0,0,0,75,47.32Z"></path>
      <path class="cls-12" d="M67.16,55.74S85.31,42.94,82.93,64c0,0-.43,2.16-2.27,0s-3.67-3.78-4-3.78-.37.43-.43.59-.81,2.27-2.64-.16S68.34,55,67.16,55.74Z"></path>
      <path class="cls-12" d="M71.86,60.55s8.1,5.35,4.26,7c0,0,3.41,5.08,1.41,6.43,0,0,1.57,3-.32,2.91,0,0-1,6.55-2.06,0,0,0-1.4-.38-.43-2.71,0,0-1.62.38-.81-4.91,0,0-4.86,4.16-2.76-8C71.15,61.25,70.32,59.43,71.86,60.55Z"></path>
      <path class="cls-12" d="M73.37,85.67C73,86,79.8,76.38,81.2,74.6s3.73-3,4.7,0c0,0-.91,1,2.38-.22s6.86-4.43,7.56-1.3c0,0,2.38-1.73,2.27.54s1.35,1.57,1.57,1.57,3,.86,0,2.11A4.77,4.77,0,0,1,97,77.24c-.86-.48-.54,1-.1,1.25s1.83,2.91-1.14,1.83a4.6,4.6,0,0,0-4.05-1.61c-2.76.21-3.91,0-2.74,1.06s3,3.58-.23,2.77S80,79.89,73.37,85.67Z"></path>
      <path class="cls-12" d="M79,90s3.35-1.89,7.78.76c0,0,3,1.67.38,2.54,0,0,6.32,5.51,3,5.4,0,0,1.3,4.27.22,4.86,0,0-1.41-3.56-2.11-4.16a1.85,1.85,0,0,1-2.16-1.45c-.59-1.84-.86-2.71-1.24-2.65s-.06.8-.33,1.16-.7,1-2.1-.78S79.58,92.21,79,91.34A1,1,0,0,1,79,90Z"></path>
      <path class="cls-12" d="M63.59,98.26s5.13-4.54,7.94-4.75,4.59-.92,3.14,1.89c0,0-1.3.75,1.62,1.67a7.3,7.3,0,0,0,4.7.14c.42,0,3.62.29,2.16,2.18,0,0-1,.33.86,1a6.54,6.54,0,0,1,4.92,5.35s1.62,1.4,1,1.83-6.1-3.94-7.13-4c0,0,1,3.73-2.43,3.3a3,3,0,0,1-1.89-2c-.6-1.73-3.51-3.08-3.51-3.08s-.82-.38-.55.54a2.45,2.45,0,0,1-1,2.27c-.41.27-1.44,1.24-2.14-.38S65.64,97.94,63.59,98.26Z"></path>
      <path class="cls-12" d="M46.19,55.74s-4.81-1.51-9,3.13c0,0-1,1.3.5,1.68,0,0-4.22,3.4-4.28,5.4s0,1.41.43,1.84-.16,4.91,1.3,6,1.68-5.46,1.68-5.46,1.65,2.58,3-5.92c0,0,3.25,1.82,3.95-1.8s2.6-4.16,3.78-4S46.19,55.74,46.19,55.74Z"></path>
      <path class="cls-12" d="M38.9,52c.27,0-8.48.64-5.48,7.72,0,0,1.91,5.78-1.76,4.43A17.27,17.27,0,0,0,31,68.44c.11,1.51-.16,2.86-1.51,2.27,0,0,.32,3-.54,3s-2.22-.33-3.46-5.08c0,0-3.19.59-2.05-3S25.77,52.35,38.9,52Z"></path>
      <path class="cls-12" d="M44.74,76.71s-34-8.17-26.22,26.84c0,0,.87,1.19,1.3-1.51s.76-9.18,2.48-10.26c0,0,.81,2.16,2.3-.22C24.6,91.56,24.93,73.83,44.74,76.71Z"></path>
      <path class="cls-12" d="M42.25,78.22c.27,0-18.48,1.67-11,21.5,0,0,3.08,1.51,4.32-8.54,0,0,5,2.06,4-3.08S41.55,78.32,42.25,78.22Z"></path>
      <path class="cls-12" d="M56.89,93.27s-7.56-11-9.94-5.71c0,0-12.06.29-4.7,13.55,0,0,1,1.29,2.32-3.89,0,0-.5-1.52,1.66-.29s3.12,2.16,4.3-.87,4.2-1.15,5.06-1.37S57.33,93.89,56.89,93.27Z"></path>
      <path class="cls-12" d="M36.5,106s-3.24-9-5.22-6.28c0,0-.9,1.39-3.35-1.71,0,0-.57-1.08-1.73,0,0,0-.72-1.23-1.37-1.15,0,0-.72-1.16-1.08-.73s.44,1.3.44,1.3-.72-.07.43,1.37c0,0-1.23,2.16,4.1,3.24C28.72,102,23.47,105.07,36.5,106Z"></path>
      <path class="cls-12" d="M43.35,112.06s1.15-5.84-.72-9.3c0,0-.51-.65-.87,0,0,0-1-2.63-1.58-2.66,0,0-.94-3.79-1.23,0,0,0-1.19-.36-.54,2.73C38.41,102.83,34.63,102.55,43.35,112.06Z"></path>
      <path class="cls-12" d="M42.68,112.06s-5.89-2.67-13.4,2.35c0,0-.72,1.25.8,1.35a11.23,11.23,0,0,0-1.23,7.62s0,1.41,1.46-.32,1.89-3.57,2.27-3.51,1,1.56,1.67.75S37.88,112,42.68,112.06Z"></path>
      <path class="cls-12" d="M50.68,123.92a8.7,8.7,0,0,0-7.57-2.48c-4.7.75-2.46,2.48-2.46,2.48s-6.78,2.81-2.72,10.75c0,0,1,1.14,1.35-.43s-.06-1.89.59-3.29,1.62-3.52,2.11-3.3,1.08,2.27,2.05.27S47.6,123.05,50.68,123.92Z"></path>
      <path class="cls-12" d="M64.54,126.84a.93.93,0,0,0,.34-.4c.54-1.58,2.36-8.35,4.11-9.85s2.19-3.26,2.92-.28c.1.42-.15.77-.34,1.16l1.78-1.16c3.06-2,7.6-5.34,6.88-2.74s-1.65,2.37.08,2.37,4.93-.72,6.89-.43,4,1.16-.92,1.73c-4.06.47-2.35.8-1.59.9a1.22,1.22,0,0,1,.6.27c.51.45,1.17,1.38-2.39,1.27-4.69-.13-3.39-.06-3.17.37s1.51,3.24-1.73,2.67a11.41,11.41,0,0,0-5.41.14c-.28.07,4.55,2,.76,2.45s-5.44,1.87-7.53,1.8C64.48,127.06,64.42,126.93,64.54,126.84Z"></path>
      <path class="cls-12" d="M51,123c.21.44,2.24-6.26,4.9-4.61,0,0-.44-3.75-3.75-3.38a2.73,2.73,0,0,0-2.45,2.35A10.36,10.36,0,0,0,51,123Z"></path>
      <path class="cls-12" d="M62.58,130.21s11.56-2.78,2.88,10.19a28.94,28.94,0,0,1-.43-3.06c-.07-1.22-1.56,1-.53-3.17,0,0-2.13.11-1-3.28C63.45,130.89,63.7,130.14,62.58,130.21Z"></path>
      <path class="cls-12" d="M61.79,130s2.23-4.58,2.38-7.32a60.07,60.07,0,0,0-.58-8.57c-.14-.93-1.8,1.8-1.8,4.93s1.22,3.5,0,3.14-1.95-.82-2.52.89S61.79,130,61.79,130Z"></path>
      <path class="cls-12" d="M49.64,138s-12.92-6.05-12.34,9.51c0,0,1,1.94,2.66-4.11,0,0-.5-.29,1.44-.43S45.84,136.55,49.64,138Z"></path>
      <path class="cls-12" d="M59.2,151.53s4.52-4.9,6.44-.86a10.49,10.49,0,0,0,3,2.52c1.74.86,7,3.74,1.17,3.67s-5.77-4.39-6.7-4.75A5.26,5.26,0,0,0,59.2,151.53Z"></path>
      <path class="cls-13" d="M56.41,41a5.1,5.1,0,0,0,1.73,1.52c.63.44,2.14,1.62,2.16,2.39"></path>
      <path class="cls-14" d="M60,43.91s1.55,0,1.41-1.44.47.25.29.72-.4,1.15-.83,1.29c0,0-.87,1.23-1.66.72,0,0-.86.87-1.55.4,0,0,2-.76,1.88-1.4S60,43.91,60,43.91Z"></path>
      <path class="cls-14" d="M49.69,64S50.34,63,51,63.26c0,0-.86,1-.67,1.65a5.12,5.12,0,0,1,.38,1.73,10,10,0,0,0-1-1.26C49.11,64.8,49.69,64,49.69,64Z"></path>
      <path class="cls-14" d="M51.54,101s.79-2.16,2-1.78c0,0-1.13,1.6-.92,2.63S51.54,101,51.54,101Z"></path>
      <path class="cls-15" d="M64.72,8.35c-3.41,5.53-6.39,11.46-7.65,17.85s-.63,13-.16,19.44.6,13,.72,19.57.11,13.05.07,19.58c-.1,13-.43,26.09-.76,39.13s.66,26,.35,39.13L54.91,163c.5-12.94-.4-26,.2-39.11s1-26.06,1.33-39.09q.21-9.78.22-19.55c0-6.52,0-13-.42-19.54s-.93-13.11.5-19.55S61.21,13.82,64.72,8.35Z"></path>
      <path class="cls-15" d="M88.12,41.35C73.51,45,61.33,55.37,56.7,69.85c-.19.6.75.85.94.26C62.17,55.94,74.1,45.83,88.38,42.29a.49.49,0,0,0-.26-.94Z"></path>
      <path class="cls-15" d="M79.09,79.77a91.42,91.42,0,0,0-23,37.38l-1.45-.48A92.12,92.12,0,0,1,79.09,79.77Z"></path>
      <path class="cls-15" d="M64.56,125.43c-4,4.22-8.15,8.79-9.31,14.66-.17.81,1.08,1.16,1.25.34,1.12-5.65,5.15-10,9-14.08.57-.61-.35-1.53-.92-.92Z"></path>
      <path class="cls-15" d="M48,138.41a5.45,5.45,0,0,1,3,1.53,6.22,6.22,0,0,0,3.54,1.64.65.65,0,0,0,0-1.3,3.15,3.15,0,0,1-1.54-.5,16.79,16.79,0,0,1-1.54-1.12A5.9,5.9,0,0,0,48,137.11a.65.65,0,0,0,0,1.3Z"></path>
      <path class="cls-15" d="M35.24,106a39.51,39.51,0,0,1,11.18,12.06c3.08,5.06,5.69,10.45,8.46,15.69.39.74,1.51.08,1.12-.66-2.91-5.51-5.62-11.2-9-16.48A40.48,40.48,0,0,0,35.9,104.87c-.69-.47-1.34.65-.66,1.12Z"></path>
      <path class="cls-15" d="M56.57,153.37l4.5-2.25a.65.65,0,1,0-.66-1.12l-4.49,2.25a.66.66,0,0,0-.23.89.65.65,0,0,0,.88.23Z"></path>
      <path class="cls-15" d="M52.13,101.05a5.28,5.28,0,0,1,2.29,1.12A7.66,7.66,0,0,1,56.29,104c.24.34.8,0,.56-.33a8.66,8.66,0,0,0-2.1-2,5.78,5.78,0,0,0-2.62-1.21.33.33,0,0,0,0,.65Z"></path>
      <path class="cls-13" d="M36.68,76.12c17.2,0,18.22,8.53,19.89,15.37"></path>
      <path class="cls-15" d="M49.82,72.75a3.22,3.22,0,0,1,2.36-3.62,11.39,11.39,0,0,1,4.65.07c.41.06.59-.56.17-.63a21.92,21.92,0,0,0-2.68-.27,6.89,6.89,0,0,0-2.67.32,3.84,3.84,0,0,0-2.45,4.3c.1.41.72.23.62-.17Z"></path>
      <path class="cls-15" d="M50.27,65.23a17.06,17.06,0,0,1,3.37,1.67,16.19,16.19,0,0,1,3,2.22c.3.29.76-.17.46-.46A17.27,17.27,0,0,0,54,66.34a18.09,18.09,0,0,0-3.53-1.74c-.4-.13-.57.49-.17.63Z"></path>
      <path class="cls-15" d="M25.77,50A37.24,37.24,0,0,1,56.5,65.34c.36.51,1.2,0,.84-.49A38.24,38.24,0,0,0,25.77,49c-.62,0-.62,1,0,1Z"></path>
      <path class="cls-15" d="M47.81,33.91a3.33,3.33,0,0,1,1.83.67A5.76,5.76,0,0,1,51.11,36a.32.32,0,0,0,.56-.32A6.62,6.62,0,0,0,50,34a3.92,3.92,0,0,0-2.16-.76c-.41,0-.42.66,0,.65Z"></path>
      <path class="cls-15" d="M50.18,39.43a2.93,2.93,0,0,1,.54-2.57,3.52,3.52,0,0,1,1.76-1.19,2.27,2.27,0,0,1,2,.26,3.92,3.92,0,0,1,1.12,1.65,10.53,10.53,0,0,1,.58,2.24c.06.41.69.23.62-.18-.23-1.49-.69-3.29-2-4.25-1.43-1.07-3.52-.28-4.57,1a3.61,3.61,0,0,0-.75,3.25c.09.41.72.23.62-.17Z"></path>
      <path class="cls-15" d="M43.83,40.76a9.31,9.31,0,0,1,5.93-2.45c.42,0,.42-.67,0-.65a10,10,0,0,0-6.39,2.64c-.31.28.15.74.46.46Z"></path>
      <path class="cls-15" d="M47.63,47.41a17.91,17.91,0,0,0,.56-5.78,4.1,4.1,0,0,1,.14-2.2,1.7,1.7,0,0,1,1.43-1.12c.42,0,.42-.67,0-.65a2.66,2.66,0,0,0-2.3,2.7c0,1.12.22,2.23.14,3.36a23.2,23.2,0,0,1-.6,3.51c-.09.41.53.58.63.18Z"></path>
      <path class="cls-15" d="M64.66,57.29a3,3,0,0,1,3.78,0,8.77,8.77,0,0,1,2.52,4c.15.39.78.22.62-.17-.66-1.65-1.41-3.48-3-4.49a3.57,3.57,0,0,0-4.41.16.33.33,0,0,0,.46.46Z"></path>
      <path class="cls-14" d="M62.11,57s-.14-3.42-1.47-3.82a2.62,2.62,0,0,1,2.09,1.91,4.12,4.12,0,0,0,.72-1.91s1.33.55.39,2.67a2.75,2.75,0,0,1,1.41,2.92A3.36,3.36,0,0,0,62.11,57Z"></path>
      <path class="cls-15" d="M65.64,55.53a8.49,8.49,0,0,0,2.84.24.32.32,0,0,0,.31-.31.31.31,0,0,0-.31-.31,7.82,7.82,0,0,1-2.68-.22.31.31,0,0,0-.16.6Z"></path>
      <path class="cls-13" d="M68.34,91.7C72,90.76,75.15,89,79.73,90.46"></path>
      <circle class="cls-16" cx="51.54" cy="44.14" r="4.86"></circle>
      <path class="cls-17" d="M55.52,41.38c1.33,3.24,1,4.08-.58,5s-3.7,0-4.83-1.92-1-4.93.76-5.13C52.15,39.15,54.66,39.3,55.52,41.38Z"></path>
      <circle class="cls-16" cx="62.46" cy="48.39" r="4.54"></circle>
      <circle class="cls-16" cx="45.2" cy="35.23" r="3.03"></circle>
      <circle class="cls-16" cx="41.35" cy="42.98" r="3.41"></circle>
      <circle class="cls-16" cx="46.37" cy="49.68" r="2.36"></circle>
      <circle class="cls-16" cx="58.8" cy="59.11" r="5.3"></circle>
      <path class="cls-17" d="M64,58.1c.09,2.32-2.23,3.76-4.87,3.76S54,59.25,54.28,57c.18-1.73,2.14-3.15,4.78-3.15S63.94,56.36,64,58.1Z"></path>
      <ellipse class="cls-16" cx="45.67" cy="66.3" rx="4.86" ry="4.54"></ellipse>
      <circle class="cls-16" cx="61.6" cy="73" r="6.48"></circle>
      <circle class="cls-16" cx="48.07" cy="79.91" r="7.58"></circle>
      <path class="cls-17" d="M55.65,79.91c-.28,3.9-1.36,5-3.87,5.9-2.29.85-6.91-2.34-7.66-5.9a7.91,7.91,0,0,1,2.19-7.09C48.14,71.16,56.1,73.48,55.65,79.91Z"></path>
      <path class="cls-14" d="M49.72,71.75s-3.2-2.23-4.64,1.33c0,0,.72-1.37,2.59-.39,0,0,2.63,2.45,4.29,3,0,0-1.37-1.83-.94-2.56,0,0,3.53-.8,4.14-1.33A19.4,19.4,0,0,0,49.72,71.75Z"></path>
      <circle class="cls-16" cx="61.76" cy="114.02" r="4.68"></circle>
      <path class="cls-16" d="M46.68,111.82c0,2.84,2.49,6.16,5.14,5.14s5.14-2.3,5.14-5.14a5.14,5.14,0,0,0-10.28,0Z"></path>
      <ellipse class="cls-16" cx="47.81" cy="104.16" rx="5.77" ry="4.79" transform="translate(-53.86 51.27) rotate(-37.86)"></ellipse>
      <circle class="cls-16" cx="64.19" cy="99.95" r="8.42"></circle>
      <path class="cls-14" d="M60.71,93.07c0-.1.65-3.47,1.76-3.48a3.5,3.5,0,0,0-3.27,2.83s-1.55-1.26-1.52-2.52a4.87,4.87,0,0,0-.25,3.78s-2,.62-2.3,4.33c0,0,2.95-2.49,3.67-2.6S60.71,93.07,60.71,93.07Z"></path>
      <path class="cls-14" d="M53.54,107a15.39,15.39,0,0,0,.22-2c-.06-.13,1.37,1.46,1.37,1.46a2.66,2.66,0,0,1,2.57-1.08s-1.16.81-1.3,1.38l1.73.81-1.12.78S53.39,107.85,53.54,107Z"></path>
      <path class="cls-17" d="M58.17,97.49a6,6,0,0,1,6-6c3.79,0,7.72,3.16,7.72,6s-1.49,6.2-5.29,6.2S58.17,100.31,58.17,97.49Z"></path>
      <path class="cls-14" d="M47.67,46.56a1.11,1.11,0,0,1-1.73-.36s0,1.15.76,1.18a1.13,1.13,0,0,0,.83.36,1.4,1.4,0,0,0,1.54,0S47.2,47.6,47.67,46.56Z"></path>
      <path class="cls-14" d="M43.51,39.93s1.59-.47,1.69,0c0,0-1-.07-1,.29,0,0-.36.36,0,.58s1.22,1.08,1.69,1.08a1.8,1.8,0,0,1-1.94-.51s-1.55-.14-1.26-1a2.19,2.19,0,0,1-.26-2.23S42.94,40.58,43.51,39.93Z"></path>
      <path class="cls-14" d="M48.07,33.77s-.14,1.55,1.34,1.5-.28.45-.74.24-1.12-.48-1.23-.92c0,0-1.17-.94-.61-1.7,0,0-.8-.92-.28-1.57,0,0,.61,2.06,1.27,2S48.07,33.77,48.07,33.77Z"></path>
      <path class="cls-18" d="M83.73,30.27c-1.89,1.43-3.6,3.25-5.9,3.84"></path>
      <path class="cls-18" d="M75.1,34.65A27.37,27.37,0,0,0,73.9,40"></path>
      <path class="cls-18" d="M81.29,35.33a5.93,5.93,0,0,1-1.84.79,13.27,13.27,0,0,0-3.69,1.56"></path>
      <path class="cls-18" d="M76.74,41a6.51,6.51,0,0,1-2.24,2.81c-1.17,1-2.71,2.27-4,3.13"></path>
      <path class="cls-18" d="M71.17,40.08a10,10,0,0,0-.47,5.38"></path>
      <path class="cls-15" d="M77.93,29.91A16.81,16.81,0,0,1,77.64,34a8,8,0,0,1-2,3.55c-.19.2.11.51.3.3A8.41,8.41,0,0,0,78,34.23a16.49,16.49,0,0,0,.33-4.32.22.22,0,0,0-.43,0Z"></path>
      <path class="cls-15" d="M75.73,37.35l-2.62,3.24a13.45,13.45,0,0,0-2.1,3,10.48,10.48,0,0,0-.69,3.22c-.13,1.38-.24,2.75-.36,4.13,0,.28.41.27.43,0l.33-3.8a10.61,10.61,0,0,1,.75-3.53,15.15,15.15,0,0,1,2.1-2.94l2.47-3c.17-.22-.13-.52-.31-.31Z"></path>
      <path class="cls-19" d="M77.13,39.92a12.37,12.37,0,0,0,1.15-1.45l.43,1.45,2.67,1-2.59,1.52-.08,1.8L77.56,42.8l-2,.36s.8-1,.72-1.3a20.7,20.7,0,0,0-1.36-2.09Z"></path>
      <polygon class="cls-19" points="82.1 36.75 81.09 37.78 80.59 36.1 78.64 36.1 80.01 34.87 79.79 33.5 81.38 33.94 82.1 32.64 82.67 34.22 84.55 34.44 82.96 35.59 83.61 37.39 82.1 36.75"></polygon>
      <path class="cls-19" d="M83.9,30.91c.36,0,1.66,1,2,.94a4.79,4.79,0,0,1-.87-1.05c-.11-.32.45-.57.56-.66s.7-.74.67-1a3.41,3.41,0,0,1-1.53.38s0-1.49-.44-1.67c0,0-.3.84-.5.95,0,0-.88-.75-1.1-.72a6,6,0,0,1,.4,1.3s0,.21-.06.25a5.83,5.83,0,0,1-1.46-.18c-.12-.09,1.7,1,1.66,1.21s-.52,1.17-.32,1.49C82.93,32.17,83.67,30.89,83.9,30.91Z"></path>
      <path class="cls-19" d="M79.06,29.47h1.72l-1.54-1.21s.37-1.78.82-1.71a2.55,2.55,0,0,0-1.69.54s-.94-1.55-1.39-1.65c0,0,.38,1.85,0,2.19a1.4,1.4,0,0,1-1.13.24,2.49,2.49,0,0,0-.68,0s2,.93,1.72,1.44a4,4,0,0,0-.61,1.49s1-.79,1.3-.78a2.85,2.85,0,0,1,1.33,1.67c0,.52.22-.38.16-.73S79.06,29.47,79.06,29.47Z"></path>
      <path class="cls-19" d="M76,34.78c-.07,0,.68,1,.56,1.67,0,0-1.17-1.27-1.36-1.24S74,36.49,73.71,36.45a5.79,5.79,0,0,0,.69-1.56c0-.33-1.41-1.12-1.6-1.17a2.85,2.85,0,0,1,1.56,0c.35.23.17-.55.09-.6s-.61-.72-.61-.72,1,.2,1.11.47.3.13.32-.09a.9.9,0,0,1,.79-.53s-.61,1.33,0,1.57a2.18,2.18,0,0,0,1.44-.18A2,2,0,0,1,76,34.78Z"></path>
      <path class="cls-19" d="M72.12,39s1.07-2.84.66-3.42c0,0-1.27,2.42-1.7,2.56a19.05,19.05,0,0,0-1.66-2.23c-.25-.11.76,2.55.76,2.55s-2.74-.25-2.81,0,2.37,1.34,2.37,1.34.26,0-.07.47-1.33,1.4-1.19,1.4,1.7-1.44,2-1.08a12.42,12.42,0,0,1,.5,2.52,5.47,5.47,0,0,0,.65-2.92c-.25-1.22,1.3,1.34,1.3,1.34s.43.75.61.5S71.92,39.58,72.12,39Z"></path>
      <path class="cls-18" d="M19.69,35.68c2.22.85,4.36,2.12,6.74,2"></path>
      <path class="cls-18" d="M29.2,37.47a27.64,27.64,0,0,1,2.65,4.79"></path>
      <path class="cls-18" d="M23.45,39.85a5.76,5.76,0,0,0,2,.25,13.28,13.28,0,0,1,4,.47"></path>
      <path class="cls-18" d="M29.41,44.06a6.5,6.5,0,0,0,2.93,2.07c1.41.61,3.24,1.42,4.7,1.89"></path>
      <path class="cls-18" d="M34.49,41.59a9.93,9.93,0,0,1,2,5"></path>
      <path class="cls-15" d="M24.74,33.83a17.21,17.21,0,0,0,1.49,4,8.43,8.43,0,0,0,3.08,2.94c.24.15.45-.23.22-.37a7.88,7.88,0,0,1-3-2.89,17,17,0,0,1-1.39-3.78c-.07-.27-.49-.15-.42.12Z"></path>
      <path class="cls-15" d="M29.14,40.62l3.19,2.22a15.2,15.2,0,0,1,2.86,2.24,10.34,10.34,0,0,1,1.66,3c.48,1.23.95,2.47,1.43,3.7.1.26.52.15.42-.11-.5-1.29-1-2.59-1.51-3.88a10.64,10.64,0,0,0-1.57-2.91,13,13,0,0,0-2.7-2.2l-3.57-2.47c-.22-.16-.44.21-.21.37Z"></path>
      <path class="cls-19" d="M28.73,43.09A11.47,11.47,0,0,1,27.22,42l0,1.51-2.27,1.71,2.91.73.57,1.71L29.12,46l2-.22s-1-.74-1-1a21.28,21.28,0,0,1,.73-2.39Z"></path>
      <polygon class="cls-19" points="23.07 41.44 24.32 42.15 24.34 40.39 26.21 39.85 24.55 39.06 24.37 37.68 22.97 38.54 21.92 37.5 21.81 39.18 20.07 39.91 21.91 40.58 21.8 42.48 23.07 41.44"></polygon>
      <path class="cls-19" d="M19.71,36.34c-.34.13-1.31,1.43-1.68,1.46a4.69,4.69,0,0,0,.54-1.24c0-.34-.59-.43-.72-.48s-.88-.52-.91-.75a3.46,3.46,0,0,0,1.57-.07s-.45-1.42-.05-1.73c0,0,.53.73.75.78,0,0,.64-1,.85-1a6.31,6.31,0,0,0,0,1.36s0,.21.13.22a6.25,6.25,0,0,0,1.35-.58c.09-.12-1.34,1.46-1.26,1.62s.83,1,.73,1.35C21,37.28,19.93,36.26,19.71,36.34Z"></path>
      <path class="cls-19" d="M24,33.6l-1.66.49,1.15-1.59s-.87-1.61-1.28-1.42a2.54,2.54,0,0,1,1.78.05s.46-1.75.87-2c0,0,.15,1.89.61,2.11a1.46,1.46,0,0,0,1.16-.09,2.24,2.24,0,0,1,.65-.19S25.53,32.45,26,32.84a4,4,0,0,1,1,1.27,5,5,0,0,0-1.46-.39,2.85,2.85,0,0,0-.82,2c.17.5-.31-.3-.35-.65S24,33.6,24,33.6Z"></path>
      <path class="cls-19" d="M28.41,37.84c.07,0-.38,1.11-.06,1.76,0,0,.76-1.55.95-1.57s1.48.9,1.74.78c0,0-1-1-1.1-1.31s1-1.47,1.21-1.56a2.91,2.91,0,0,0-1.49.43c-.28.32-.33-.48-.26-.55s.38-.86.38-.86-.85.46-.93.76-.25.2-.34,0a.88.88,0,0,0-.9-.28s1,1.1.48,1.49a2.21,2.21,0,0,1-1.44.24A2,2,0,0,0,28.41,37.84Z"></path>
      <path class="cls-19" d="M33.28,40.83s-1.82-2.43-1.59-3.1c0,0,1.9,2,2.35,2a19.21,19.21,0,0,1,1-2.61c.21-.17,0,2.67,0,2.67s2.55-1,2.69-.79-1.91,2-1.91,2-.25,0,.2.43,1.68,1,1.54,1-2-.91-2.17-.49a12.4,12.4,0,0,0,.22,2.56,5.43,5.43,0,0,1-1.44-2.62c-.1-1.25-.87,1.64-.87,1.64s-.2.85-.45.66S33.63,41.32,33.28,40.83Z"></path>
      <path class="cls-18" d="M74.36,83.12l-1.53,1.7A24.61,24.61,0,0,1,71,86.69a17.07,17.07,0,0,0-2.74,3.57"></path>
      <path class="cls-15" d="M68,81.63c-.07,1.1-.07,2.21,0,3.31a18.86,18.86,0,0,0,.23,3.27c.06.27.47.16.42-.12a18.38,18.38,0,0,1-.22-3.24c0-1.07,0-2.15,0-3.22,0-.28-.41-.28-.43,0Z"></path>
      <path class="cls-15" d="M72.46,76.54a34.27,34.27,0,0,0-1.4,5.19c0,.13.18.19.21.06a34.71,34.71,0,0,1,1.4-5.2c0-.13-.16-.18-.21,0Z"></path>
      <path class="cls-15" d="M75.85,73a22.12,22.12,0,0,1-4.37,8.81l-.33-.28A22,22,0,0,0,75.85,73Z"></path>
      <path class="cls-15" d="M71,82.32c1.31-1,2.66-2,4-3.06a9.23,9.23,0,0,1,4.7-2.33c.13,0,.13-.23,0-.21a8.79,8.79,0,0,0-4.54,2.14c-1.4,1.13-2.86,2.19-4.27,3.31-.11.08,0,.24.15.15Z"></path>
      <path class="cls-15" d="M68.49,92.06a14.79,14.79,0,0,1,.39-5.66,13,13,0,0,1,2.85-5c.18-.21-.12-.52-.31-.31a13.68,13.68,0,0,0-2.92,5,15.16,15.16,0,0,0-.44,5.92c0,.27.46.27.43,0Z"></path>
      <path class="cls-19" d="M73.78,83.55l-.47,1.69,1.44-.68L76.3,86,76,84.38l2.81-1.44-2.75-.72s.05-1.73-.38-2c0,0-1.08,1.54-1.12,1.69a7.12,7.12,0,0,1-2.48-.29C71.84,81.46,72.92,83.3,73.78,83.55Z"></path>
      <path class="cls-19" d="M79.26,78.69c-.29,0-1.08,1-1.08,1A5.12,5.12,0,0,0,78,78.11a6.07,6.07,0,0,0-1.81,0s1.45-.61,1.54-.86-.6-1.34-.53-1.59c0,0,1.19.54,1.44.43a13.51,13.51,0,0,0,1.48-1.26s-.43,1.26,0,1.52,1.91.07,2.16.28c0,0-2.52.54-1.8,1.41a2.85,2.85,0,0,1,.76,1.37A3.3,3.3,0,0,0,79.26,78.69Z"></path>
      <path class="cls-19" d="M76.63,73.68a5.06,5.06,0,0,1,1.87-.25,6.16,6.16,0,0,0-1.44-.61c-.4,0,0-1,.07-1.19s.43-1,.43-1a11.69,11.69,0,0,0-1.37.69c-.14.14-.46.18-.75-.51a1.8,1.8,0,0,0-1.08-.9s.86,1.8.18,2.2a1.81,1.81,0,0,1-1.44.11A2.61,2.61,0,0,0,74,73c.43.14.47.54.36,1s-.43.83-.29,1.15c0,0,.58-.86,1-.72s1,1,1.34,1.15C76.45,75.55,76,73.85,76.63,73.68Z"></path>
      <path class="cls-19" d="M73.53,76.85c.13-.06,1-.4,1-.9,0,0-1,.18-1.23-.4a2.4,2.4,0,0,1,0-1.29s-.54,0-.65.72-.64-.9-1.08-.87c0,0,.4,1.16.18,1.44s-1.44-.14-1.44-.28.26.64.83.82a.68.68,0,0,1,.51.76c0,.07-.62.83-.4,1.12,0,0,.43-.8,1-.72s1,.75,1.3.72C73.53,78,73.07,77.07,73.53,76.85Z"></path>
      <path class="cls-19" d="M69.57,81l.57-3.2s-.82,2.37-1.4,2.45-2.16-2.45-2.16-2.45,1.22,2,1,2.45-2.7.18-2.7.18-1.08.25.21.57,2.35.29,2.06.79-1.87,2.49-1,2,1.76-2,1.8-1.15-.4,3.74.1,2.66.69-3.46,1.16-2.95S71.8,85.21,71,83.84,69.45,81.65,69.57,81Z"></path>
      <path class="cls-6" d="M52.84,170.78a1.32,1.32,0,0,0-1.29-.47c-.72.22-1,.79-.88,1a3,3,0,0,0,.26.28c.18.17.56-.33.58-.33Z"></path>
      <path class="cls-7" d="M53.22,171.65s-.23-1-.6-1a7.74,7.74,0,0,1-.78-.07l-.11.18s.37.64.52.69.42.12.49.15A3.08,3.08,0,0,0,53.22,171.65Z"></path>
      <path class="cls-8" d="M53.19,171.77c0-.08.09-.31-.14-.38a3.5,3.5,0,0,0-.48-.1s-.59.45-.7.52-.2.06.14.16.34.19.65.15A.9.9,0,0,0,53.19,171.77Z"></path>
      <path class="cls-9" d="M52.57,171.29a3.89,3.89,0,0,0-.43.43c-.17.2-.2.26-.41.16s-.75-.18-.88-.39-.14-.18,0-.43a1.09,1.09,0,0,1,.69-.42.61.61,0,0,1,.69.15A1.55,1.55,0,0,1,52.57,171.29Z"></path>
      <path class="cls-6" d="M49.89,154.15a2,2,0,0,0-2-.29c-1,.54-1.2,1.44-1,1.7a3.46,3.46,0,0,0,.47.31c.31.19.7-.64.72-.65Z"></path>
      <path class="cls-7" d="M50.69,155.28s-.62-1.34-1.15-1.24-1.15.14-1.15.14l-.09.29s.72.81,1,.83.64,0,.74.06A5.25,5.25,0,0,0,50.69,155.28Z"></path>
      <path class="cls-8" d="M50.69,155.46c0-.13,0-.47-.32-.5a5,5,0,0,0-.72,0s-.7.82-.85,1-.26.14.26.18.54.17,1,0A1.3,1.3,0,0,0,50.69,155.46Z"></path>
      <path class="cls-9" d="M49.65,155a5.85,5.85,0,0,0-.48.74c-.19.34-.21.44-.54.36s-1.13,0-1.39-.29-.25-.22-.07-.63a1.6,1.6,0,0,1,.86-.81.88.88,0,0,1,1,0A2.21,2.21,0,0,1,49.65,155Z"></path>
      <path class="cls-6" d="M45.92,160.25s-4.15-2.07-7,.46-3,5.76-2.05,6.46a12.59,12.59,0,0,0,1.82.73c1.19.44,1.93-2.67,2-2.72S45.92,160.25,45.92,160.25Z"></path>
      <path class="cls-7" d="M49.45,163.52s-3.07-4.11-4.82-3.39-3.8,1.3-3.8,1.3l-.12,1s3,2.24,3.83,2.17,2.24-.33,2.59-.33A17.44,17.44,0,0,0,49.45,163.52Z"></path>
      <path class="cls-8" d="M49.57,164.15c0-.46-.21-1.64-1.45-1.47a17.93,17.93,0,0,0-2.44.52s-1.81,3.29-2.21,3.85-.78.69,1,.46,1.94.18,3.3-.64A4.62,4.62,0,0,0,49.57,164.15Z"></path>
      <path class="cls-9" d="M45.68,163.2a20.49,20.49,0,0,0-1.13,2.86c-.37,1.3-.39,1.66-1.58,1.6s-3.84.7-4.91,0-1-.57-.72-2.08,1-2.23,2.36-3.4a3.08,3.08,0,0,1,3.5-.74A8,8,0,0,1,45.68,163.2Z"></path>
      <path class="cls-6" d="M60.24,161.12s-3.47-2.05-6.14,0-3,4.82-2.16,5.49a10,10,0,0,0,1.53.74c1,.46,1.84-2.2,1.9-2.24S60.24,161.12,60.24,161.12Z"></path>
      <path class="cls-7" d="M63.11,164.17s-2.42-3.76-4-3.24-3.38.91-3.38.91l-.16.9s2.49,2.13,3.19,2.12,2-.15,2.27-.13A17,17,0,0,0,63.11,164.17Z"></path>
      <path class="cls-8" d="M63.18,164.72c0-.4-.09-1.43-1.17-1.36a15.08,15.08,0,0,0-2.15.3s-1.77,2.75-2.15,3.22-.72.55.86.45,1.68.28,2.91-.35A4.07,4.07,0,0,0,63.18,164.72Z"></path>
      <path class="cls-9" d="M59.86,163.66a19.47,19.47,0,0,0-1.16,2.42c-.4,1.11-.44,1.42-1.46,1.29s-3.38.38-4.27-.27-.84-.56-.49-1.86a4.74,4.74,0,0,1,2.24-2.8,2.68,2.68,0,0,1,3.09-.43A7,7,0,0,1,59.86,163.66Z"></path>
      <path class="cls-6" d="M69.44,157.45s-3.43-2.64-6.53-.85-3.83,4.73-3,5.56a15.38,15.38,0,0,0,1.53,1c1,.62,2.26-2.1,2.33-2.13S69.44,157.45,69.44,157.45Z"></path>
      <path class="cls-7" d="M72.09,161.09s-2.07-4.33-3.81-4a36.85,36.85,0,0,1-3.71.51l-.3.94s2.37,2.61,3.11,2.69,2.11.1,2.44.16A16.87,16.87,0,0,0,72.09,161.09Z"></path>
      <path class="cls-8" d="M72.09,161.68c0-.42.1-1.53-1.06-1.61a17.28,17.28,0,0,0-2.33,0s-2.26,2.69-2.73,3.13-.84.49.86.6,1.75.53,3.15,0A4.4,4.4,0,0,0,72.09,161.68Z"></path>
      <path class="cls-9" d="M68.7,160.11a20.17,20.17,0,0,0-1.56,2.41c-.58,1.13-.66,1.46-1.73,1.19s-3.66-.05-4.51-.87-.83-.71-.28-2,1.31-1.86,2.77-2.69a2.89,2.89,0,0,1,3.35,0A7.5,7.5,0,0,1,68.7,160.11Z"></path>
      <path class="cls-6" d="M72.1,168.53a2.08,2.08,0,0,0,1.9-.94c.51-1,.18-2-.18-2a4,4,0,0,0-.59,0c-.38,0-.23,1-.24,1S72.1,168.53,72.1,168.53Z"></path>
      <path class="cls-7" d="M70.74,168s1.33.79,1.73.38.9-.8.9-.8l-.09-.3a4.24,4.24,0,0,0-1.31-.16c-.21.11-.58.35-.68.39A4.89,4.89,0,0,0,70.74,168Z"></path>
      <path class="cls-8" d="M70.63,167.87c.07.12.25.43.57.24a5.1,5.1,0,0,0,.62-.43s.12-1.12.17-1.32.14-.28-.34,0-.56.17-.84.56A1.44,1.44,0,0,0,70.63,167.87Z"></path>
      <path class="cls-9" d="M71.82,167.68a7.06,7.06,0,0,0,0-.92c0-.4-.09-.51.25-.63s1-.64,1.36-.57.35,0,.44.5a1.67,1.67,0,0,1-.26,1.21.93.93,0,0,1-.89.61A2.48,2.48,0,0,1,71.82,167.68Z"></path>
      <path class="cls-6" d="M39.47,169.27a2.67,2.67,0,0,0,2.51-1c.74-1.28.39-2.47,0-2.6a5,5,0,0,0-.75,0c-.49,0-.38,1.21-.4,1.24Z"></path>
      <path class="cls-7" d="M37.79,168.51s1.62,1.12,2.17.64,1.22-.94,1.22-.94l-.09-.39a5.18,5.18,0,0,0-1.66-.32c-.28.12-.77.39-.9.44A7,7,0,0,0,37.79,168.51Z"></path>
      <path class="cls-8" d="M37.67,168.3c.07.16.27.57.7.36a9.13,9.13,0,0,0,.83-.49s.25-1.42.33-1.68.2-.34-.43,0-.73.18-1.12.64A1.77,1.77,0,0,0,37.67,168.3Z"></path>
      <path class="cls-9" d="M39.2,168.17a9,9,0,0,0,.06-1.18c0-.52-.06-.65.38-.78s1.31-.72,1.78-.61.44.09.51.67a2.08,2.08,0,0,1-.43,1.52,1.17,1.17,0,0,1-1.19.7A3,3,0,0,1,39.2,168.17Z"></path>
      <path class="cls-6" d="M51,162.72a1.54,1.54,0,0,0,1.54.27c.76-.4,1-1.09.78-1.3a3.73,3.73,0,0,0-.35-.25c-.24-.16-.56.48-.58.49S51,162.72,51,162.72Z"></path>
      <path class="cls-7" d="M50.35,161.83s.45,1,.87,1,.89-.08.89-.08l.08-.22s-.54-.65-.72-.67-.5-.05-.57-.07A5.42,5.42,0,0,0,50.35,161.83Z"></path>
      <path class="cls-8" d="M50.36,161.68c0,.1,0,.37.24.4a3.48,3.48,0,0,0,.55,0s.56-.61.68-.72.21-.1-.2-.15-.41-.14-.75,0A1,1,0,0,0,50.36,161.68Z"></path>
      <path class="cls-9" d="M51.15,162.09a4,4,0,0,0,.4-.56c.14-.26.17-.34.42-.26s.87,0,1.06.25.19.18,0,.49a1.2,1.2,0,0,1-.69.61.68.68,0,0,1-.79,0A1.76,1.76,0,0,1,51.15,162.09Z"></path>
      <path class="cls-6" d="M64.9,168.61s3.89.95,5.84-1.74,1.45-5.44.48-5.84a11.61,11.61,0,0,0-1.67-.26c-1.09-.15-1.12,2.62-1.17,2.67S64.9,168.61,64.9,168.61Z"></path>
      <path class="cls-7" d="M61.29,166.53s3.38,2.88,4.72,1.94A33.16,33.16,0,0,1,69,166.64l-.11-.91s-3-1.31-3.64-1.1-1.82.71-2.12.78A15,15,0,0,0,61.29,166.53Z"></path>
      <path class="cls-8" d="M61.07,166c.12.38.49,1.34,1.5,1a15,15,0,0,0,2-.91s.89-3.12,1.12-3.67.52-.73-1-.19-1.68.22-2.67,1.17A4,4,0,0,0,61.07,166Z"></path>
      <path class="cls-9" d="M64.53,166.08a17.82,17.82,0,0,0,.4-2.62c.06-1.18,0-1.48,1-1.66s3.11-1.33,4.14-1,1,.28,1,1.62a4.76,4.76,0,0,1-1.33,3.31,2.67,2.67,0,0,1-2.81,1.3A6.93,6.93,0,0,1,64.53,166.08Z"></path>
      <path class="cls-6" d="M47,166.36s2.33,1.31,4.08-.06,1.92-3.25,1.36-3.68a7.27,7.27,0,0,0-1-.47c-.68-.29-1.2,1.49-1.24,1.51S47,166.36,47,166.36Z"></path>
      <path class="cls-7" d="M45,164.37s1.66,2.47,2.69,2.1a22,22,0,0,1,2.23-.64l.1-.61s-1.69-1.38-2.15-1.36-1.3.12-1.51.12A10.21,10.21,0,0,0,45,164.37Z"></path>
      <path class="cls-8" d="M45,164c0,.26.07,1,.79.89a10.94,10.94,0,0,0,1.43-.23s1.14-1.85,1.39-2.17.46-.37-.58-.29-1.12-.16-1.93.27A2.72,2.72,0,0,0,45,164Z"></path>
      <path class="cls-9" d="M47.17,164.67a12.36,12.36,0,0,0,.73-1.62c.26-.75.28-1,1-.88s2.24-.3,2.84.12.57.36.35,1.23a3.17,3.17,0,0,1-1.45,1.89,1.79,1.79,0,0,1-2.05.33A4.59,4.59,0,0,1,47.17,164.67Z"></path>
    </g>
  </g>
</svg>
