<?xml version="1.0" encoding="UTF-8"?>
<svg xmlns="http://www.w3.org/2000/svg" viewBox="0 0 150.98 318.26">
  <defs>
    <style>.cls-1{fill:#a29274;}.cls-2{fill:#e3e0c9;}.cls-3{fill:#fcedce;}.cls-4{fill:#bda885;}.cls-5{fill:#d0c5a6;}.cls-6{fill:#8f8267;}.cls-7{fill:#ab967a;opacity:0.25;}.cls-8{fill:#9b8d71;}.cls-9{fill:#7c705b;}.cls-10{fill:#e7e6e3;}.cls-11{fill:#817870;}.cls-12{fill:#769b57;}.cls-13,.cls-18{fill:none;stroke:#79a05b;stroke-miterlimit:10;}.cls-13{stroke-width:0.59px;}.cls-14{fill:#486f3a;}.cls-15{fill:#79a05b;}.cls-16{fill:#9cca64;}.cls-17{fill:#b0dc72;}.cls-18{stroke-width:0.44px;}.cls-19{fill:#eaca57;}</style>
  </defs>
  <g id="Слой_2" data-name="Слой 2">
    <g id="Слой_1-2" data-name="Слой 1">
      <polygon class="cls-1" points="75.06 240.85 133.81 215.84 124.99 283.49 75.06 318.26 75.06 240.85"></polygon>
      <polygon class="cls-2" points="75.06 198.93 133.81 215.84 75.06 240.85 16.14 215.84 75.06 198.93"></polygon>
      <polygon class="cls-3" points="75.06 198.93 16.14 215.84 17.18 216.28 133.26 215.69 75.06 198.93"></polygon>
      <polygon class="cls-4" points="24.96 283.49 16.14 215.84 75.06 240.85 75.06 318.26 24.96 283.49"></polygon>
      <path class="cls-5" d="M53.17,216.67a35.3,35.3,0,0,1,2.78-3,26.42,26.42,0,0,1,3.24-2.51,31.41,31.41,0,0,1,7.37-3.58,39.26,39.26,0,0,1,4-1.07,37,37,0,0,1,4-.62,38.75,38.75,0,0,1,8.13,0c-2.7.18-5.37.46-8,.89a50.09,50.09,0,0,0-7.75,1.9A40.58,40.58,0,0,0,59.68,212,41.13,41.13,0,0,0,53.17,216.67Z"></path>
      <polygon class="cls-6" points="75.06 240.85 133.81 215.84 124.99 283.49 75.06 318.26 75.06 240.85"></polygon>
      <polygon class="cls-7" points="24.96 283.49 16.14 215.84 75.06 240.85 75.06 318.26 24.96 283.49"></polygon>
      <polygon class="cls-8" points="75.06 318.26 24.96 283.49 75.29 264.47 124.99 283.49 75.06 318.26"></polygon>
      <path class="cls-9" d="M35.6,253.75a11.35,11.35,0,0,1-.9-2.33,20,20,0,0,1-.54-2.44,17.72,17.72,0,0,1-.08-5,15.66,15.66,0,0,1,1.41-4.89,16.12,16.12,0,0,1,2.93-4.19,21.84,21.84,0,0,1,8.65-5.16,37,37,0,0,1,9.8-1.74,55.15,55.15,0,0,0-9.48,2.63,23.15,23.15,0,0,0-8.1,5.11A15.75,15.75,0,0,0,35,244.08a20,20,0,0,0-.26,4.84A18.65,18.65,0,0,0,35.6,253.75Z"></path>
      <path class="cls-9" d="M90.35,252.82c.15.25.49.33.74.47s.56.24.84.34c.57.22,1.14.41,1.72.6,1.14.38,2.3.71,3.47,1,2.33.63,4.67,1.2,7,1.66,4.73,1,9.51,1.6,14.36,2.16a53.06,53.06,0,0,1-14.6-1,53.71,53.71,0,0,1-7.08-1.95c-1.16-.41-2.3-.87-3.41-1.39-.55-.27-1.1-.55-1.63-.85A4.08,4.08,0,0,1,90.35,252.82Z"></path>
      <path class="cls-9" d="M58.79,249.29a43.14,43.14,0,0,1-3.9,13,36.87,36.87,0,0,1-3.53,5.84,22.42,22.42,0,0,1-4.89,4.74,39.9,39.9,0,0,0,4.12-5.28,61,61,0,0,0,3.22-5.82c1-2,1.83-4.06,2.66-6.14S58.07,251.43,58.79,249.29Z"></path>
      <path class="cls-9" d="M77,303.12c2.4-1.17,4.88-2.1,7.3-3.15s4.82-2.12,7.15-3.33a46.6,46.6,0,0,0,6.63-4.14,19.05,19.05,0,0,0,5.24-5.77,15.3,15.3,0,0,1-4.64,6.49A34.37,34.37,0,0,1,92,297.7a57.3,57.3,0,0,1-7.36,3.14c-1.25.45-2.53.84-3.8,1.21Z"></path>
      <path class="cls-9" d="M49.46,295.7a16.55,16.55,0,0,1-3.81-2.41,9.3,9.3,0,0,1-2.76-3.72,5.39,5.39,0,0,1-.33-2.4,6,6,0,0,1,.72-2.33,11,11,0,0,1,3.19-3.43,30.72,30.72,0,0,1,8.13-4,61.14,61.14,0,0,1,8.7-2.27c-2.82,1-5.62,2-8.36,3.14a37.8,37.8,0,0,0-7.75,4.13,10.19,10.19,0,0,0-2.91,3,4.72,4.72,0,0,0-.5,3.89,9.2,9.2,0,0,0,2.27,3.58A19.86,19.86,0,0,0,49.46,295.7Z"></path>
      <path class="cls-9" d="M103.33,251.45l4.38-6c1.43-2,2.84-4.05,4.17-6.12a61.26,61.26,0,0,0,3.69-6.37,20.79,20.79,0,0,0,2.32-7,15.7,15.7,0,0,1-1.46,7.34,39.85,39.85,0,0,1-3.54,6.64A62,62,0,0,1,103.33,251.45Z"></path>
      <path class="cls-10" d="M77.28,235.54a42.21,42.21,0,0,0-2.86,7.5,13.92,13.92,0,0,0-.15,7.62,33.79,33.79,0,0,0,3.63,7.13,28.19,28.19,0,0,1,1.88,3.77,14.41,14.41,0,0,1,1,4.19,26,26,0,0,1-1,8.33c-.65,2.68-1.45,5.29-1.87,8a25.35,25.35,0,0,0,2.69,15.82A25,25,0,0,1,77.22,282c.33-2.76,1-5.43,1.6-8.1a24.85,24.85,0,0,0,.64-8,17.26,17.26,0,0,0-2.95-7.27,34.54,34.54,0,0,1-3.94-7.43,12.62,12.62,0,0,1-.6-4.35,19.92,19.92,0,0,1,.64-4.25,39.91,39.91,0,0,1,3.06-7.83.9.9,0,0,1,1.61.79Z"></path>
      <path class="cls-10" d="M78,235.83a6.83,6.83,0,0,0,2.65,2.85,14,14,0,0,0,3.93,1.63c2.82.76,6,1.07,8.79,2.55a15.34,15.34,0,0,1,6.4,6.56,14.67,14.67,0,0,1,1.57,8.85,14.87,14.87,0,0,0-8.44-14.45c-2.65-1.21-5.65-1.34-8.69-2a15.47,15.47,0,0,1-4.5-1.57,8.85,8.85,0,0,1-3.62-3.51h0a1.06,1.06,0,1,1,1.88-1Z"></path>
      <path class="cls-10" d="M73.78,244.12a16.21,16.21,0,0,0,4.76,6.11,18.11,18.11,0,0,0,7.12,3.34c2.58.7,5.31,1.18,7.75,2.45a11.65,11.65,0,0,1,3.26,2.44A7.15,7.15,0,0,1,98.52,262a7.16,7.16,0,0,0-2-3.46,11.68,11.68,0,0,0-3.29-2.26c-2.42-1.13-5.11-1.5-7.76-2.1A18.92,18.92,0,0,1,77.94,251a17.5,17.5,0,0,1-5.36-6.34Z"></path>
      <path class="cls-10" d="M80.16,263.25c.65,1.64,2.19,2.89,3.71,4s3.11,2.29,4.7,3.41a19.21,19.21,0,0,1,4.26,4,14.74,14.74,0,0,1,2.52,5.23,14.66,14.66,0,0,0-2.73-5.07,18.73,18.73,0,0,0-4.36-3.71c-1.62-1.05-3.24-2.13-4.85-3.21a11.15,11.15,0,0,1-4.21-4.27Z"></path>
      <path class="cls-10" d="M79.74,274.19a5.94,5.94,0,0,0,2.22,3.1c1.05.88,2.23,1.65,3.34,2.53s2.18,1.77,3.2,2.75A11.83,11.83,0,0,1,91,285.92a11.78,11.78,0,0,0-2.73-3.15c-1.06-.89-2.21-1.7-3.33-2.52s-2.36-1.48-3.51-2.34a6.75,6.75,0,0,1-2.74-3.49Z"></path>
      <path class="cls-10" d="M77.75,282.51a29.54,29.54,0,0,1,7.85,8,29,29,0,0,0-8.4-7.15Z"></path>
      <path class="cls-10" d="M78.38,292.22a11,11,0,0,1,2.76,1.07,18.86,18.86,0,0,1,2.5,1.54,20,20,0,0,0-2.58-1.38,11.48,11.48,0,0,0-2.74-.87Z"></path>
      <path class="cls-10" d="M78.91,283.59a10.84,10.84,0,0,1,2.91-.46,8.92,8.92,0,0,1,2.87.38,8.53,8.53,0,0,0-2.85-.09,10.15,10.15,0,0,0-2.73.7Z"></path>
      <path class="cls-10" d="M82.06,286.19a6.42,6.42,0,0,1,.14,1.49c0,.49,0,1-.09,1.45a14.23,14.23,0,0,1-.56,2.82,13.56,13.56,0,0,0,.3-2.84,8.94,8.94,0,0,0-.27-2.76Z"></path>
      <path class="cls-10" d="M90.72,272.43a16.55,16.55,0,0,1,.37,3.78,10.21,10.21,0,0,1-.82,3.69,10.41,10.41,0,0,0,.66-3.69,17.22,17.22,0,0,0-.54-3.71Z"></path>
      <path class="cls-10" d="M88.24,270.56a14.14,14.14,0,0,1,3.84-.19,6.73,6.73,0,0,1,3.57,1.24,6.57,6.57,0,0,0-3.58-1,13.73,13.73,0,0,0-3.73.41Z"></path>
      <path class="cls-10" d="M78,258.83a10.28,10.28,0,0,1,6.67.38,9.8,9.8,0,0,1,2.85,1.7,6.49,6.49,0,0,1,1.87,2.68,6.41,6.41,0,0,0-2-2.48,9.37,9.37,0,0,0-2.85-1.41,9.51,9.51,0,0,0-6.15.11Z"></path>
      <path class="cls-10" d="M81.9,252.47a10.16,10.16,0,0,1,4.48-2.35,7.64,7.64,0,0,1,4.91.25,7.35,7.35,0,0,0-4.79.17,9.44,9.44,0,0,0-4,2.53Z"></path>
      <path class="cls-10" d="M86.58,254.1a4.15,4.15,0,0,0,0,3.38,9.71,9.71,0,0,0,2,3,9.79,9.79,0,0,1-2.22-2.89,4.57,4.57,0,0,1-.26-3.68Z"></path>
      <path class="cls-10" d="M98.77,248.24a18.93,18.93,0,0,0-2.1,4.34,29.14,29.14,0,0,0-1.28,4.7,30.53,30.53,0,0,1,1-4.8,19.66,19.66,0,0,1,1.88-4.57Z"></path>
      <path class="cls-10" d="M99.73,249.7a13.52,13.52,0,0,1,6.4,4.59,13.22,13.22,0,0,0-6.5-4.2Z"></path>
      <path class="cls-10" d="M96.12,244.88a5.72,5.72,0,0,1,2.1-.08,10.28,10.28,0,0,1,3.89,1.37,5.15,5.15,0,0,1,1.53,1.37,4.92,4.92,0,0,0-1.62-1.21,9.14,9.14,0,0,0-1.89-.7,9.5,9.5,0,0,0-2-.3,4.91,4.91,0,0,0-1.86.23Z"></path>
      <path class="cls-10" d="M83.26,240.41A4.38,4.38,0,0,1,85,238.24a5.88,5.88,0,0,1,2.41-1.06,6.27,6.27,0,0,1,2.57.28,17.58,17.58,0,0,1,2.34.94,15.83,15.83,0,0,0-2.4-.66,5.88,5.88,0,0,0-2.4,0,5.32,5.32,0,0,0-2,1.14,3.52,3.52,0,0,0-1.2,1.79Z"></path>
      <path class="cls-10" d="M91,242.72a6.92,6.92,0,0,0,.78,7.45,7.39,7.39,0,0,1-1.72-7.88Z"></path>
      <path class="cls-10" d="M80.49,240a15,15,0,0,0,1.65,7,15.52,15.52,0,0,1-2.69-6.9Z"></path>
      <path class="cls-10" d="M76.58,235.8a8.69,8.69,0,0,1-4,4.8,26.75,26.75,0,0,1-5.38,2.29,16.33,16.33,0,0,0-4.81,2.41,13.08,13.08,0,0,0-3.46,4c-1.78,3.14-1.88,7-2.35,10.75a20.19,20.19,0,0,1-1.44,5.59A9.35,9.35,0,0,1,51.51,270a10.33,10.33,0,0,0,3-4.63,21.81,21.81,0,0,0,1-5.45c.16-1.86.23-3.76.48-5.67a16.72,16.72,0,0,1,1.62-5.66A14,14,0,0,1,61.37,244a18,18,0,0,1,5.21-2.79,28,28,0,0,0,5-2.21,6.77,6.77,0,0,0,3.11-3.71,1,1,0,1,1,1.88.5Z"></path>
      <path class="cls-10" d="M63.81,243.66a21.3,21.3,0,0,1-2.31,7.41,20.67,20.67,0,0,0,1.27-7.47Z"></path>
      <path class="cls-10" d="M72.1,240.24A10.22,10.22,0,0,1,70.57,245a27.59,27.59,0,0,1-2.93,3.9,28.1,28.1,0,0,0,2.47-4.14,9.47,9.47,0,0,0,1-4.52Z"></path>
      <path class="cls-10" d="M58.43,249.26a21.66,21.66,0,0,1,1.87,11.18,21.15,21.15,0,0,0-2.79-10.7Z"></path>
      <path class="cls-10" d="M56.54,260.19a15.16,15.16,0,0,1,1.2,3,7.41,7.41,0,0,1-.09,3.25,7.08,7.08,0,0,0-.43-3.09,20.65,20.65,0,0,0-1.59-2.72Z"></path>
      <path class="cls-10" d="M55.36,262.89a4.32,4.32,0,0,0-2.67.68,4.63,4.63,0,0,0-2,2.16,5,5,0,0,1,1.71-2.59,5.08,5.08,0,0,1,3-1.29Z"></path>
      <path class="cls-10" d="M57.58,250.8a9,9,0,0,0-3.82,1.36,10.45,10.45,0,0,0-3.18,2.78,10.76,10.76,0,0,1,2.88-3.21,12.84,12.84,0,0,1,1.86-1.2,7.19,7.19,0,0,1,2.16-.76Z"></path>
      <path class="cls-10" d="M60,246a7.83,7.83,0,0,0-3-1.26,8.75,8.75,0,0,0-3.34.09,12.17,12.17,0,0,0-5.92,3.36,12.42,12.42,0,0,1,5.79-3.86,9.18,9.18,0,0,1,3.58-.36,8.84,8.84,0,0,1,3.47,1.15Z"></path>
      <path class="cls-10" d="M68.93,241.88a8.69,8.69,0,0,0-4.83-1.37A11,11,0,0,0,59,241.57,11.3,11.3,0,0,1,64.09,240a11.48,11.48,0,0,1,2.74.1,7.41,7.41,0,0,1,2.67.93Z"></path>
      <path class="cls-10" d="M74,252.28a12.8,12.8,0,0,1-2,7.2c-1.36,2.16-3.35,3.68-5.12,5.31a30.22,30.22,0,0,0-4.81,5.42A13.18,13.18,0,0,0,59.75,277a13.26,13.26,0,0,1,2.17-6.91,30.52,30.52,0,0,1,4.67-5.66c1.74-1.71,3.63-3.28,4.81-5.33a11.88,11.88,0,0,0,1.6-6.75Z"></path>
      <path class="cls-10" d="M65.46,266a6.09,6.09,0,0,1,.79,2.45A8.72,8.72,0,0,1,66.1,271c-.31,1.66-.87,3.25-1.2,4.9.26-1.66.76-3.28,1-4.94a9,9,0,0,0,0-2.48,5.82,5.82,0,0,0-.84-2.28Z"></path>
      <path class="cls-10" d="M72,259.22a20.42,20.42,0,0,1-1.72,9.65,20.06,20.06,0,0,0,1.16-9.6Z"></path>
      <path class="cls-10" d="M69.72,262.1a10.56,10.56,0,0,1-4.65.48,23.32,23.32,0,0,1-4.54-.86,23.44,23.44,0,0,0,4.55.59,10.24,10.24,0,0,0,4.42-.71Z"></path>
      <path class="cls-10" d="M72.48,257a2.72,2.72,0,0,0-1.89-1.07,6.9,6.9,0,0,0-2.48.05c-1.67.33-3.24,1.25-5,1.64,1.66-.56,3.08-1.62,4.81-2.16a7.78,7.78,0,0,1,2.72-.31,3.59,3.59,0,0,1,2.64,1.26Z"></path>
      <path class="cls-10" d="M80,262.33c-2.19,3.14-5.22,5.35-7.92,7.8a26.14,26.14,0,0,0-3.7,4,12.7,12.7,0,0,0-2.24,5,12.77,12.77,0,0,1,2-5.12,26,26,0,0,1,3.56-4.26c2.61-2.6,5.51-5,7.42-8Z"></path>
      <path class="cls-10" d="M80.18,272a45.1,45.1,0,0,1-4.48,4.18c-.4.32-.8.64-1.24.94s-.83.54-1.23.84a26.07,26.07,0,0,0-2.31,1.89,25.7,25.7,0,0,0-6.66,9.87,26.14,26.14,0,0,1,6.25-10.3,24.57,24.57,0,0,1,2.28-2c.39-.33.82-.62,1.21-.93s.77-.6,1.15-.92a45.25,45.25,0,0,0,4.23-4.19Z"></path>
      <path class="cls-10" d="M73.14,277.93a13.37,13.37,0,0,1-2.36,9.56,12.86,12.86,0,0,0,1.34-9.37Z"></path>
      <path class="cls-10" d="M69.84,280.76a13.75,13.75,0,0,0-6.22.6,13.27,13.27,0,0,0-5.43,3.26,13.35,13.35,0,0,1,5.32-3.57,14.12,14.12,0,0,1,6.42-.94Z"></path>
      <polygon class="cls-3" points="17.18 216.28 75.06 240.85 133.81 215.84 133.26 215.69 17.18 216.28"></polygon>
      <ellipse class="cls-1" cx="76.92" cy="217.02" rx="13.57" ry="5.31"></ellipse>
      <ellipse class="cls-11" cx="77.26" cy="218.81" rx="11.18" ry="4.37"></ellipse>
      <path class="cls-12" d="M79.83,28.49c.29-.66,5.35-9.31,9-10.11,0,0,1.91,0,.88-1.69s7-3.74,7.19-4,1.54-1.54.51-2.71,6.89-3,6.89-3,1-.8.44-1.68,7.7-2.42,7.7-2.42S113.84,1.37,110,2l-7.47,1.1s1-3.52-1.1-3c0,0-3.42,4.62-5.12,5.35,0,0-1.26-2.78-3-1.61L89.36,9.51s-1.91-2.57-3.82.07-2.05,6.82-2.05,6.82a3.92,3.92,0,0,1-.58-2.15s-.08-.71-1.84-.34c0,0,1.32-9.83-2.78-6.16,0,0-2.86-7.33-4.4-6.67,0,0-1.1,0,0,2A47.06,47.06,0,0,1,78,26.29s-.51.59.3,2.2a5.37,5.37,0,0,1-.15,1.69c-.22.59-.27-.32-1.78-.47a2.4,2.4,0,0,1,.24-1.95c.59-1.27,1.42-5.23-2.3-5,0,0,0-5.58-.9-5.87s-1.69,5.67-1.69,5.67-4.54-1.42-.87,4.64c0,0,.53.15-.25,1.22s.68,4.11,4.06,6.41L76,35.92a24.42,24.42,0,0,0,.79,3.13c1.42-.44,3.8-1.91,5.75-1.61s4,1.9,4.26.53-.1-2.59-.83-3,2.29-.49,4.3-.58,2.64-1.57,1.41-2.25,7.43-1.76,8.75-1.61,2.49-.84-.88-1-3.52.63-3.37-.15-.29-3.86-5.67,0c0,0-1.22,1-1.17-.73s-3.18-1.71-4.89.68S82,31.91,81.88,30.89s.63-1.91.29-2.25-1.27.63-2,1.61-1.17.49-.73-.63Z"></path>
      <path class="cls-12" d="M76.7,53.9c.41,1,5.86-3,7.13-2.73s2.55,0,2.64-1.27c0,0,6.45,1,7.24.68s2.44-2.25,0-3.91c0,0,6.54-1.76,8.5-4.79s-2.74.39-4.57.39-2.13.15-2.71.08-.08-2.64-2.13-2.2a6.11,6.11,0,0,1-1.75,1.24,41.57,41.57,0,0,0-4.48,1.69,3.4,3.4,0,0,1-1.69.51c-.21,0,.66-4-2.63-1.83s-4.77,3.66-5,5.24S75.7,51.39,76.7,53.9Z"></path>
      <path class="cls-12" d="M37.9,66.54a14,14,0,0,1-7.55-2.93c-3.67-2.86-8.36-6.75-8.87-7s-3.23,1.76-1.32,6.52c0,0,1.46,1.91-1.25,1.1S9.68,59.43,8,62.21s0,3.37,0,3.37A17.7,17.7,0,0,0,.88,69.1c-2.79,2.57,1.91,2.42,2.27,2.42S9.16,70,9.31,71s-1.1,4.1,2.42,3.66,5.35-4.16,6.16-4.09,1.9.28,1.39,1.89-.59,4.55,3.37,3.6,7.55-5.28,7.77-4.62S30,72.55,29.32,73a31.69,31.69,0,0,0-5.2,7.11c-.74,1.9-6.6,5-6.31,13.19,0,0,.08,2.57,1.61,2.06,0,0-1,6.3,3,8.28,0,0,1,9.09,3.15,9.31,0,0-.58-10.63.88-13.71,0,0,.37-9.9,1-14s.68-13.52,10.41-18Z"></path>
      <path class="cls-12" d="M74.26,42.86c-.44-.88-.15-3.52-3.52-6.08s-2.2-7.63-6.38-4.33c0,0-3.45-2.86-3.52-4.4s-2-.73-1.54,1.1-1.68,3.08,2.64,8.36c0,0,.44.45-.51,1.14s-.15,2.23,2.34,3,10.8,2.72,12.56,9.24Z"></path>
      <path class="cls-12" d="M105.63,61.19a34.91,34.91,0,0,1,1.76-4.33c.44-1,.81-9.09,1.76-11.14s1.76-4.55,5.13-3.67c0,0,3.37-1.6,3.81-3.4s2.13-3.56,3.23-3.41,2.34-.08,2.64.44,1.46-.08,1.75.14,2.86-1.32,2.42.15-2.93,3.52-2.93,3.52,2.93,2.2-2.71,4.47c0,0-1.17.29-.15,1.91s1.76,5.2-4.54,6.08c0,0-6,5.35-6.31,3.89s-2.78,5.35-4.32,5.35S105.78,62,105.63,61.19Z"></path>
      <path class="cls-12" d="M113.55,58.8s15.78-17.55,14.63-7.22c0,0,12.12-6.52,10,.88,0,0-.15,1.4,3.22.22s5-1.17,5.35,1.84c0,0,3.16,1.24,2.72,2.49,0,0,3.38,1.24,0,1.79,0,0-1.8,1.79-3.12,0,0,0-1.32,3.56-6.53-2.09,0,0-.36,3.88-4.32,2.09s-4-2-5.87-1.79c0,0-.22.44.59,1.46s1,4-8.21,1.44S113.55,58.8,113.55,58.8Z"></path>
      <path class="cls-12" d="M101.74,64.2c-.23,0,22.44-2,31.75,9.89,0,0,.33,1.68-1.23,1.1s2.4,6.45,1.88,8.43-.36,2.56-2.19,2c0,0-3.67,9-2.57,13.49,0,0-5.42.44-6-11.07,0,0-6.08-.37-3.15-8.65,0,0,.44-2.13-1.18-1s-4.61-1-3.66-6.3A26.39,26.39,0,0,0,101.74,64.2Z"></path>
      <path class="cls-12" d="M91.12,75.63s24.63-17.38,21.4,11.14c0,0-.59,2.93-3.08,0s-5-5.14-5.42-5.13-.52.58-.59.8-1.1,3.08-3.59-.22S92.73,74.6,91.12,75.63Z"></path>
      <path class="cls-12" d="M97.49,82.15s11,7.26,5.79,9.46c0,0,4.62,6.89,1.91,8.72,0,0,2.13,4.11-.44,4,0,0-1.39,8.88-2.79,0,0,0-1.9-.51-.58-3.67,0,0-2.2.52-1.1-6.67,0,0-6.6,5.65-3.74-10.85C96.54,83.1,95.4,80.64,97.49,82.15Z"></path>
      <path class="cls-12" d="M99.55,116.24c-.51.44,8.72-12.61,10.62-15s5.06-4,6.38,0c0,0-1.24,1.39,3.23-.29s9.31-6,10.26-1.76c0,0,3.23-2.35,3.08.73S135,102,135.24,102s4,1.17,0,2.86c0,0-2.41.58-3.59-.08s-.73,1.39-.14,1.69,2.49,4-1.54,2.49a6.25,6.25,0,0,0-5.5-2.19c-3.74.28-5.31,0-3.72,1.45s4.09,4.85-.31,3.75S108.49,108.39,99.55,116.24Z"></path>
      <path class="cls-12" d="M107.24,122.1s4.55-2.56,10.56,1c0,0,4.11,2.27.51,3.44,0,0,8.58,7.48,4,7.33,0,0,1.76,5.79.3,6.6,0,0-1.91-4.84-2.86-5.64a2.51,2.51,0,0,1-2.93-2c-.81-2.5-1.18-3.67-1.69-3.59s-.07,1.09-.44,1.57-1,1.36-2.86-1.06-3.88-4.69-4.62-5.87S107.24,122.1,107.24,122.1Z"></path>
      <path class="cls-12" d="M86.28,133.32s7-6.16,10.77-6.45,6.23-1.25,4.25,2.56c0,0-1.75,1,2.2,2.27a9.84,9.84,0,0,0,6.38.19c.57,0,4.91.4,2.93,3,0,0-1.39.44,1.18,1.32s5.71,2.34,6.67,7.25c0,0,2.2,1.91,1.32,2.5s-8.29-5.36-9.68-5.43c0,0,1.32,5.06-3.3,4.47a4.09,4.09,0,0,1-2.56-2.78c-.81-2.35-4.77-4.18-4.77-4.18s-1.11-.51-.74.73-.84,2.71-1.4,3.08-2,1.69-2.92-.51S89.06,132.88,86.28,133.32Z"></path>
      <path class="cls-12" d="M62.67,75.63s-6.52-2.06-12.16,4.25c0,0-1.31,1.76.66,2.27,0,0-5.72,4.62-5.8,7.33S45.3,91.39,46,92s-.22,6.67,1.76,8.21S50,92.78,50,92.78s2.24,3.49,4-8c0,0,4.41,2.47,5.37-2.44s3.51-5.65,5.13-5.43S62.67,75.63,62.67,75.63Z"></path>
      <path class="cls-12" d="M52.78,70.58c.36,0-11.5.87-7.44,10.47,0,0,2.6,7.84-2.38,6a23.5,23.5,0,0,0-.88,5.79c.14,2.06-.22,3.89-2.06,3.08,0,0,.44,4-.73,4s-3-.44-4.69-6.89c0,0-4.33.81-2.79-4.1S35,71,52.78,70.58Z"></path>
      <path class="cls-12" d="M60.71,104.08S14.57,93,25.13,140.5c0,0,1.17,1.61,1.76-2.05s1-12.46,3.37-13.93c0,0,1.1,2.93,3.12-.29C33.38,124.23,33.83,100.17,60.71,104.08Z"></path>
      <path class="cls-12" d="M57.32,106.12c.37-.06-25.07,2.27-14.88,29.18,0,0,4.18,2,5.87-11.59,0,0,6.74,2.79,5.42-4.17S56.37,106.27,57.32,106.12Z"></path>
      <path class="cls-12" d="M77.19,126.54s-10.26-15-13.49-7.74c0,0-16.36.39-6.37,18.38,0,0,1.39,1.76,3.14-5.28,0,0-.68-2.05,2.25-.39s4.23,2.93,5.83-1.17,5.71-1.57,6.88-1.86S77.79,127.39,77.19,126.54Z"></path>
      <path class="cls-12" d="M49.53,143.82s-4.4-12.16-7.09-8.52c0,0-1.22,1.88-4.54-2.33,0,0-.78-1.46-2.35,0,0,0-1-1.66-1.86-1.56,0,0-1-1.56-1.46-1s.59,1.76.59,1.76-1-.09.58,1.86c0,0-1.66,2.93,5.57,4.4C39,138.45,31.84,142.55,49.53,143.82Z"></path>
      <path class="cls-12" d="M58.81,152s1.57-7.91-1-12.6c0,0-.69-.88-1.18,0,0,0-1.41-3.57-2.15-3.62,0,0-1.27-5.13-1.66,0,0,0-1.61-.49-.73,3.71C52.12,139.52,47,139.13,58.81,152Z"></path>
      <path class="cls-12" d="M57.91,152s-8-3.61-18.18,3.2c0,0-1,1.69,1.08,1.84a15.19,15.19,0,0,0-1.67,10.33s.08,1.91,2-.44,2.57-4.83,3.08-4.76,1.39,2.12,2.27,1S51.39,152,57.91,152Z"></path>
      <path class="cls-12" d="M68.76,168.13a11.81,11.81,0,0,0-10.26-3.37c-6.38,1-3.35,3.37-3.35,3.37S46,172,51.46,182.72c0,0,1.39,1.54,1.83-.58s-.08-2.57.81-4.47,2.2-4.77,2.86-4.48,1.46,3.08,2.78.37S64.58,167,68.76,168.13Z"></path>
      <path class="cls-12" d="M87.57,172.09a1.15,1.15,0,0,0,.45-.55c.75-2.13,3.21-11.32,5.59-13.35s3-4.42,4-.38c.14.56-.21,1-.47,1.56,0,0,.5-.3,2.43-1.57,4.15-2.74,10.3-7.23,9.33-3.71s-2.24,3.22.1,3.22,6.69-1,9.35-.58,5.5,1.56-1.24,2.34c-5.52.64-3.2,1.08-2.17,1.22a1.66,1.66,0,0,1,.82.37c.7.61,1.58,1.86-3.25,1.72-6.35-.18-4.59-.08-4.3.5s2,4.4-2.34,3.62a15.67,15.67,0,0,0-7.34.19c-.39.1,6.17,2.64,1,3.33s-7.39,2.54-10.22,2.44C87.49,172.4,87.4,172.21,87.57,172.09Z"></path>
      <path class="cls-12" d="M69.17,166.89c.28.59,3-8.5,6.65-6.26,0,0-.6-5.08-5.09-4.59a3.7,3.7,0,0,0-3.32,3.19C67.2,160.83,67.46,163.29,69.17,166.89Z"></path>
      <path class="cls-12" d="M84.91,176.66s15.69-3.76,3.91,13.83a39.7,39.7,0,0,1-.59-4.15c-.1-1.66-2.12,1.37-.72-4.3,0,0-2.89.15-1.43-4.45C86.08,177.59,86.42,176.57,84.91,176.66Z"></path>
      <path class="cls-12" d="M83.83,176.33s3-6.21,3.23-9.93a80.12,80.12,0,0,0-.78-11.63c-.2-1.27-2.45,2.44-2.45,6.69s1.67,4.75,0,4.26-2.63-1.12-3.42,1.2S83.83,176.33,83.83,176.33Z"></path>
      <path class="cls-12" d="M67.34,187.22S49.82,179,50.6,200.12c0,0,1.4,2.64,3.62-5.57,0,0-.68-.39,2-.59S62.19,185.26,67.34,187.22Z"></path>
      <path class="cls-12" d="M80.32,205.59s6.14-6.64,8.74-1.17a14.09,14.09,0,0,0,4.14,3.42c2.36,1.17,9.5,5.08,1.58,5s-7.82-6-9.09-6.45S83.15,204.91,80.32,205.59Z"></path>
      <path class="cls-13" d="M76.54,55.6a6.87,6.87,0,0,0,2.34,2.06c.86.6,2.9,2.2,2.93,3.25"></path>
      <path class="cls-14" d="M81.44,59.57s2.1,0,1.91-2,.63.34.39,1-.54,1.56-1.13,1.76c0,0-1.17,1.66-2.25,1,0,0-1.17,1.18-2.1.54,0,0,2.74-1,2.54-1.91S81.44,59.57,81.44,59.57Z"></path>
      <path class="cls-14" d="M67.41,86.89s.88-1.43,1.81-1.06c0,0-1.17,1.37-.9,2.24a7,7,0,0,1,.51,2.34,13,13,0,0,0-1.42-1.71C66.63,87.92,67.41,86.89,67.41,86.89Z"></path>
      <path class="cls-14" d="M69.93,137s1.06-2.94,2.71-2.42c0,0-1.54,2.17-1.24,3.56S69.93,137,69.93,137Z"></path>
      <path class="cls-15" d="M87.81,11.33c-4.63,7.51-8.67,15.54-10.38,24.22s-.86,17.57-.22,26.37.82,17.71,1,26.55.14,17.71.08,26.57c-.13,17.7-.58,35.4-1,53.09s.91,35.27.48,53.09l-3.22-.1c.67-17.57-.55-35.3.26-53.07s1.42-35.36,1.8-53c.19-8.84.31-17.68.3-26.52s0-17.69-.57-26.51c-.24-4.41-.55-8.84-.57-13.28A61.32,61.32,0,0,1,77,35.46C78.86,26.73,83.05,18.75,87.81,11.33Z"></path>
      <path class="cls-15" d="M119.56,56.1c-15.21,3.76-28.93,13-37.12,26.47a57,57,0,0,0-5.51,12.2c-.26.81,1,1.16,1.27.35a56.18,56.18,0,0,1,29.33-33.34,64,64,0,0,1,12.38-4.4.66.66,0,0,0-.35-1.28Z"></path>
      <path class="cls-15" d="M107.31,108.24a124,124,0,0,0-31.26,50.7l-2-.65A125.07,125.07,0,0,1,107.31,108.24Z"></path>
      <path class="cls-15" d="M87.59,170.18C82.21,175.9,76.53,182.1,75,190.07c-.22,1.11,1.47,1.58,1.69.47,1.52-7.68,7-13.6,12.19-19.11.77-.83-.47-2.08-1.25-1.25Z"></path>
      <path class="cls-15" d="M47.82,143.81A53.41,53.41,0,0,1,63,160.22c4.17,6.86,7.7,14.14,11.45,21.23.53,1,2.05.12,1.52-.89-3.89-7.35-7.52-14.94-11.92-22a55,55,0,0,0-15.35-16.27c-.94-.65-1.82.88-.89,1.52Z"></path>
      <path class="cls-15" d="M70.73,137.1a7.19,7.19,0,0,1,3.11,1.52,10.41,10.41,0,0,1,2.54,2.46c.31.46,1.08,0,.76-.45a11.58,11.58,0,0,0-2.86-2.77,7.81,7.81,0,0,0-3.55-1.64.44.44,0,0,0-.44.44.46.46,0,0,0,.44.44Z"></path>
      <path class="cls-13" d="M49.76,103.28c23.35,0,24.73,11.58,27,20.84"></path>
      <path class="cls-15" d="M67.6,98.7c-.54-2.13,1.17-4.35,3.2-4.91a15.61,15.61,0,0,1,6.31.1c.55.08.79-.77.23-.85a31.85,31.85,0,0,0-3.64-.38,9.23,9.23,0,0,0-3.62.44,5.22,5.22,0,0,0-3.33,5.84c.13.55,1,.31.85-.24Z"></path>
      <path class="cls-15" d="M68.2,88.5a23.25,23.25,0,0,1,4.58,2.27,22.57,22.57,0,0,1,4.13,3c.41.4,1-.22.63-.62A24.13,24.13,0,0,0,73.23,90a24.78,24.78,0,0,0-4.79-2.36c-.54-.18-.77.67-.24.85Z"></path>
      <path class="cls-15" d="M35,67.83A50.43,50.43,0,0,1,76.66,88.66c.48.68,1.63,0,1.14-.67A51.94,51.94,0,0,0,46,67.48a50.6,50.6,0,0,0-11.05-1,.66.66,0,0,0,0,1.32Z"></path>
      <path class="cls-15" d="M64.87,46a4.5,4.5,0,0,1,2.48.91,7.5,7.5,0,0,1,2,1.9A.47.47,0,0,0,70,49a.44.44,0,0,0,.15-.6,8.72,8.72,0,0,0-2.31-2.22,5.25,5.25,0,0,0-2.92-1,.44.44,0,0,0,0,.88Z"></path>
      <path class="cls-15" d="M68.08,53.49A4,4,0,0,1,68.82,50,4.74,4.74,0,0,1,71.2,48.4a3.11,3.11,0,0,1,2.78.35A5.28,5.28,0,0,1,75.49,51a14,14,0,0,1,.79,3c.08.56.93.32.84-.23-.31-2-.94-4.47-2.66-5.77-1.94-1.46-4.77-.38-6.2,1.3a4.89,4.89,0,0,0-1,4.41c.12.55,1,.32.84-.24Z"></path>
      <path class="cls-15" d="M59.47,55.3a12.68,12.68,0,0,1,8-3.33c.57,0,.57-.9,0-.88a13.61,13.61,0,0,0-8.66,3.58c-.42.39.2,1,.62.63Z"></path>
      <path class="cls-15" d="M64.62,64.32a24.07,24.07,0,0,0,.76-7.83,5.55,5.55,0,0,1,.2-3A2.34,2.34,0,0,1,67.51,52c.57,0,.57-.9,0-.88-1.87.07-3.05,1.93-3.11,3.66-.06,1.53.29,3,.18,4.57a32,32,0,0,1-.81,4.76c-.12.56.72.79.85.24Z"></path>
      <path class="cls-15" d="M87.72,77.73c1.39-1.37,3.68-1,5.14.06,1.76,1.28,2.63,3.48,3.41,5.43.21.51,1.07.29.85-.24-.9-2.24-1.91-4.73-4-6.1-1.79-1.16-4.39-1.36-6,.23a.44.44,0,0,0,.62.62Z"></path>
      <path class="cls-14" d="M84.27,77.31s-.19-4.64-2-5.18a3.54,3.54,0,0,1,2.83,2.59,5.57,5.57,0,0,0,1-2.59s1.81.74.54,3.62a3.73,3.73,0,0,1,1.91,4A4.59,4.59,0,0,0,84.27,77.31Z"></path>
      <path class="cls-15" d="M89.06,75.34a11.34,11.34,0,0,0,3.85.32.43.43,0,0,0,.42-.42.42.42,0,0,0-.42-.42,10.58,10.58,0,0,1-3.63-.29c-.52-.13-.75.68-.22.81Z"></path>
      <path class="cls-13" d="M92.72,124.42c5-1.28,9.24-3.66,15.45-1.68"></path>
      <circle class="cls-16" cx="69.93" cy="59.89" r="6.59"></circle>
      <path class="cls-17" d="M75.33,56.14c1.81,4.39,1.3,5.54-.79,6.75s-5,0-6.55-2.6-1.37-6.7,1-7C70.76,53.11,74.17,53.32,75.33,56.14Z"></path>
      <circle class="cls-16" cx="84.74" cy="65.65" r="6.17"></circle>
      <circle class="cls-16" cx="61.33" cy="47.79" r="4.11"></circle>
      <circle class="cls-16" cx="56.1" cy="58.31" r="4.63"></circle>
      <circle class="cls-16" cx="62.92" cy="67.41" r="3.21"></circle>
      <circle class="cls-16" cx="79.78" cy="80.19" r="7.19"></circle>
      <path class="cls-17" d="M86.84,78.83c.13,3.15-3,5.09-6.6,5.09s-6.93-3.53-6.6-6.53c.26-2.35,2.91-4.27,6.49-4.27S86.75,76.47,86.84,78.83Z"></path>
      <ellipse class="cls-16" cx="61.96" cy="89.96" rx="6.59" ry="6.16"></ellipse>
      <circle class="cls-16" cx="83.57" cy="99.05" r="8.79"></circle>
      <circle class="cls-16" cx="65.22" cy="108.42" r="10.28"></circle>
      <path class="cls-17" d="M75.5,108.42c-.37,5.29-1.84,6.75-5.25,8-3.11,1.14-9.37-3.18-10.39-8a10.75,10.75,0,0,1,3-9.62C65.32,96.54,76.12,99.7,75.5,108.42Z"></path>
      <path class="cls-14" d="M67.46,97.34s-4.35-3-6.3,1.82c0,0,1-1.86,3.52-.54,0,0,3.57,3.32,5.81,4,0,0-1.85-2.49-1.27-3.47,0,0,4.79-1.09,5.62-1.82C74.84,97.34,70.25,96.7,67.46,97.34Z"></path>
      <circle class="cls-16" cx="83.79" cy="154.7" r="6.34"></circle>
      <path class="cls-16" d="M63.34,151.72c0,3.85,3.38,8.35,7,7s7-3.12,7-7a7,7,0,0,0-13.94,0Z"></path>
      <ellipse class="cls-16" cx="64.87" cy="141.32" rx="7.83" ry="6.5" transform="translate(-73.08 69.57) rotate(-37.86)"></ellipse>
      <circle class="cls-16" cx="87.09" cy="135.61" r="11.43"></circle>
      <path class="cls-14" d="M82.37,126.28c0-.15.88-4.71,2.39-4.73a4.77,4.77,0,0,0-4.44,3.85s-2.11-1.71-2.06-3.42a6.55,6.55,0,0,0-.34,5.12s-2.69.84-3.13,5.87c0,0,4-3.37,5-3.51S82.37,126.28,82.37,126.28Z"></path>
      <path class="cls-14" d="M72.64,145.23a21,21,0,0,0,.3-2.75c-.08-.18,1.85,2,1.85,2a3.64,3.64,0,0,1,3.5-1.47s-1.58,1.1-1.76,1.87L78.87,146,77.35,147S72.44,146.33,72.64,145.23Z"></path>
      <path class="cls-17" d="M78.92,132.28a8.14,8.14,0,0,1,8.17-8.11c5.15,0,10.47,4.29,10.47,8.11s-2,8.4-7.17,8.4S78.92,136.1,78.92,132.28Z"></path>
      <path class="cls-14" d="M64.68,63.17a1.5,1.5,0,0,1-2.35-.49s.05,1.56,1,1.61a1.54,1.54,0,0,0,1.12.49,1.91,1.91,0,0,0,2.1,0S64,64.58,64.68,63.17Z"></path>
      <path class="cls-14" d="M59,54.18s2.15-.64,2.29,0c0,0-1.37-.1-1.41.39,0,0-.49.49,0,.78s1.66,1.47,2.29,1.47a2.46,2.46,0,0,1-2.64-.69s-2.1-.19-1.71-1.32a3,3,0,0,1-.34-3S58.25,55.06,59,54.18Z"></path>
      <path class="cls-14" d="M65.22,45.82s-.19,2.1,1.82,2-.39.61-1,.32-1.53-.65-1.68-1.24c0,0-1.58-1.29-.82-2.31,0,0-1.09-1.25-.39-2.14,0,0,.83,2.81,1.73,2.67S65.22,45.82,65.22,45.82Z"></path>
      <path class="cls-18" d="M113.61,41.07c-2.57,2-4.89,4.41-8,5.21"></path>
      <path class="cls-18" d="M101.89,47a38.2,38.2,0,0,0-1.63,7.23"></path>
      <path class="cls-18" d="M110.29,47.93a7.87,7.87,0,0,1-2.5,1.08,17.6,17.6,0,0,0-5,2.12"></path>
      <path class="cls-18" d="M104.13,55.67a8.88,8.88,0,0,1-3,3.81c-1.59,1.33-3.68,3.07-5.39,4.25"></path>
      <path class="cls-18" d="M96.56,54.38a13.56,13.56,0,0,0-.64,7.3"></path>
      <path class="cls-15" d="M105.73,40.58a22.68,22.68,0,0,1-.39,5.52,10.77,10.77,0,0,1-2.76,4.82c-.26.28.16.69.41.41a11.26,11.26,0,0,0,2.87-4.89,22.61,22.61,0,0,0,.46-5.86.3.3,0,0,0-.59,0Z"></path>
      <path class="cls-15" d="M102.75,50.68l-3.56,4.4A19.51,19.51,0,0,0,96.42,59a14.34,14.34,0,0,0-1,4.62c-.17,1.84-.32,3.68-.48,5.52,0,.38.56.38.59,0,.15-1.69.29-3.38.44-5.07a14.05,14.05,0,0,1,1.07-5,21.23,21.23,0,0,1,2.82-3.91l3.33-4.11c.23-.29-.18-.7-.42-.41Z"></path>
      <path class="cls-19" d="M104.65,54.16a17.34,17.34,0,0,0,1.56-2l.59,2,3.61,1.36-3.52,2.06L106.8,60l-1.57-2-2.73.48s1.07-1.36,1-1.75A26.63,26.63,0,0,0,101.62,54Z"></path>
      <polygon class="cls-19" points="111.39 49.86 110.02 51.26 109.34 48.98 106.7 48.98 108.56 47.31 108.26 45.46 110.41 46.04 111.39 44.28 112.17 46.44 114.71 46.73 112.56 48.29 113.44 50.73 111.39 49.86"></polygon>
      <path class="cls-19" d="M113.83,41.94c.49,0,2.25,1.37,2.74,1.27a6.4,6.4,0,0,1-1.17-1.42c-.15-.44.61-.78.75-.9s1-1,.91-1.32a4.68,4.68,0,0,1-2.08.51s0-2-.58-2.27c0,0-.42,1.15-.69,1.29,0,0-1.2-1-1.49-1a8,8,0,0,1,.54,1.76s0,.29-.07.34a7.68,7.68,0,0,1-2-.25c-.17-.12,2.29,1.4,2.24,1.64s-.7,1.59-.44,2C112.51,43.65,113.52,41.91,113.83,41.94Z"></path>
      <path class="cls-19" d="M107.26,40h2.35l-2.1-1.63s.51-2.42,1.12-2.32a3.4,3.4,0,0,0-2.3.73s-1.27-2.1-1.88-2.25c0,0,.51,2.52,0,3a1.89,1.89,0,0,1-1.54.32,3.51,3.51,0,0,0-.93,0c.08,0,2.79,1.27,2.35,1.95a5.39,5.39,0,0,0-.83,2,7,7,0,0,1,1.76-1.06A3.92,3.92,0,0,1,107.07,43c0,.71.29-.51.22-1A18.24,18.24,0,0,1,107.26,40Z"></path>
      <path class="cls-19" d="M103.06,47.19c-.09,0,.92,1.3.76,2.27,0,0-1.59-1.72-1.84-1.69s-1.59,1.74-2,1.69a8,8,0,0,0,.94-2.13c-.06-.44-1.91-1.52-2.16-1.57a3.78,3.78,0,0,1,2.1,0c.48.31.24-.75.13-.83s-.82-1-.82-1,1.28.28,1.5.64.4.17.44-.13a1.23,1.23,0,0,1,1.06-.71s-.82,1.8,0,2.13a3,3,0,0,0,2-.24A2.69,2.69,0,0,1,103.06,47.19Z"></path>
      <path class="cls-19" d="M97.85,52.93s1.46-3.86.9-4.64c0,0-1.73,3.28-2.31,3.47a25.8,25.8,0,0,0-2.25-3c-.34-.14,1,3.47,1,3.47s-3.71-.34-3.81,0S94.63,54,94.63,54s.34,0-.1.63-1.81,1.91-1.61,1.91,2.29-1.95,2.64-1.47a16.92,16.92,0,0,1,.68,3.43s1.22-2.3.88-4,1.76,1.81,1.76,1.81.59,1,.83.68S97.58,53.71,97.85,52.93Z"></path>
      <path class="cls-18" d="M26.71,48.41c3,1.15,5.92,2.87,9.14,2.76"></path>
      <path class="cls-18" d="M39.62,50.84a37.4,37.4,0,0,1,3.59,6.49"></path>
      <path class="cls-18" d="M31.81,54.07a7.92,7.92,0,0,0,2.71.34,18,18,0,0,1,5.39.63"></path>
      <path class="cls-18" d="M39.9,59.78a8.75,8.75,0,0,0,4,2.8c1.91.84,4.39,1.93,6.37,2.57"></path>
      <path class="cls-18" d="M46.8,56.42a13.52,13.52,0,0,1,2.65,6.83"></path>
      <path class="cls-15" d="M33.57,45.89a23,23,0,0,0,2,5.4,11.35,11.35,0,0,0,4.17,4,.29.29,0,0,0,.3-.5,10.86,10.86,0,0,1-4-3.92,22.87,22.87,0,0,1-1.88-5.13.3.3,0,0,0-.57.15Z"></path>
      <path class="cls-15" d="M39.53,55.11,44,58.2a19.46,19.46,0,0,1,3.83,3A14,14,0,0,1,50,65.38c.64,1.64,1.27,3.29,1.91,4.93.13.35.7.2.56-.15-.66-1.71-1.31-3.42-2-5.13a14.84,14.84,0,0,0-2.16-4,17.44,17.44,0,0,0-3.79-3.09l-4.74-3.29c-.31-.22-.61.29-.3.5Z"></path>
      <path class="cls-19" d="M39,58.47a16.92,16.92,0,0,1-2-1.44l0,2-3.09,2.32,4,1,.78,2.32,1-2.31,2.77-.3s-1.42-1-1.43-1.42a28,28,0,0,1,1-3.24Z"></path>
      <polygon class="cls-19" points="31.3 56.22 33 57.19 33.02 54.81 35.55 54.07 33.31 52.99 33.07 51.13 31.17 52.29 29.74 50.88 29.59 53.16 27.23 54.15 29.73 55.05 29.57 57.64 31.3 56.22"></polygon>
      <path class="cls-19" d="M26.74,49.31c-.46.17-1.78,1.94-2.27,2a6.54,6.54,0,0,0,.73-1.69c0-.46-.81-.58-1-.65s-1.2-.7-1.24-1a4.56,4.56,0,0,0,2.14-.09S24.5,45.91,25,45.5c0,0,.72,1,1,1,0,0,.87-1.32,1.16-1.35a8,8,0,0,0,0,1.83s0,.3.16.31a8,8,0,0,0,1.83-.78c.13-.17-1.81,2-1.7,2.2s1.13,1.32,1,1.82C28.48,50.58,27,49.19,26.74,49.31Z"></path>
      <path class="cls-19" d="M32.5,45.59l-2.25.66,1.56-2.16s-1.17-2.18-1.73-1.92a3.42,3.42,0,0,1,2.41.07s.64-2.38,1.18-2.69c0,0,.21,2.56.83,2.86a1.89,1.89,0,0,0,1.57-.12A4,4,0,0,1,37,42c-.06,0-2.32,2-1.7,2.53a5.41,5.41,0,0,1,1.36,1.72,6.81,6.81,0,0,0-2-.53,3.92,3.92,0,0,0-1.1,2.67c.22.68-.42-.41-.48-.87A19.38,19.38,0,0,0,32.5,45.59Z"></path>
      <path class="cls-19" d="M38.54,51.33c.1,0-.51,1.51-.08,2.4a10.77,10.77,0,0,1,1.29-2.14c.25,0,2,1.23,2.37,1.07,0,0-1.42-1.34-1.49-1.78s1.4-2,1.63-2.12a3.9,3.9,0,0,0-2,.59c-.37.43-.44-.65-.35-.75s.52-1.17.52-1.17-1.16.63-1.27,1-.34.27-.46,0a1.22,1.22,0,0,0-1.22-.39s1.3,1.49.65,2a2.94,2.94,0,0,1-2,.31A2.67,2.67,0,0,0,38.54,51.33Z"></path>
      <path class="cls-19" d="M45.15,55.4S42.68,52.1,43,51.19c0,0,2.58,2.66,3.2,2.69a24.65,24.65,0,0,1,1.31-3.54c.29-.24,0,3.62,0,3.62s3.47-1.37,3.66-1.07-2.59,2.64-2.59,2.64-.34,0,.27.58,2.27,1.33,2.08,1.38-2.75-1.23-2.94-.67a16.94,16.94,0,0,0,.3,3.48s-1.82-1.87-1.95-3.56S45.13,59,45.13,59s-.28,1.15-.61.89S45.63,56.06,45.15,55.4Z"></path>
      <path class="cls-18" d="M100.89,112.77l-2.08,2.31a31.08,31.08,0,0,1-2.46,2.54,22.46,22.46,0,0,0-3.71,4.85"></path>
      <path class="cls-15" d="M92.19,110.75c-.09,1.5-.09,3-.06,4.5a24.33,24.33,0,0,0,.31,4.43c.08.37.64.21.57-.16a23.89,23.89,0,0,1-.3-4.39c0-1.46,0-2.92.07-4.38,0-.38-.56-.38-.59,0Z"></path>
      <path class="cls-15" d="M98.31,103.84a47.63,47.63,0,0,0-1.9,7c0,.18.25.26.28.07a46.67,46.67,0,0,1,1.91-7c.06-.18-.22-.25-.29-.08Z"></path>
      <path class="cls-15" d="M102.91,99a30,30,0,0,1-5.93,12l-.44-.38A29.7,29.7,0,0,0,102.91,99Z"></path>
      <path class="cls-15" d="M96.28,111.69c1.77-1.4,3.6-2.74,5.37-4.15s3.89-2.9,6.37-3.16c.19,0,.19-.31,0-.29a11.88,11.88,0,0,0-6.15,2.9c-1.9,1.54-3.88,3-5.8,4.49-.15.12.06.33.21.21Z"></path>
      <path class="cls-15" d="M92.93,124.9a20,20,0,0,1,.52-7.67,17.78,17.78,0,0,1,3.87-6.74c.25-.28-.17-.7-.42-.41a18.38,18.38,0,0,0-4,6.79,20.53,20.53,0,0,0-.6,8c0,.37.63.38.59,0Z"></path>
      <path class="cls-19" d="M100.1,113.36l-.63,2.29,2-.92,2.11,2-.4-2.25,3.82-2-3.74-1s.07-2.35-.51-2.69c0,0-1.47,2.1-1.52,2.3a9.76,9.76,0,0,1-3.37-.39C97.47,110.52,98.93,113,100.1,113.36Z"></path>
      <path class="cls-19" d="M107.53,106.76c-.39,0-1.46,1.32-1.46,1.32a6.76,6.76,0,0,0-.25-2.1c-.24-.25-2.44,0-2.44,0s2-.83,2.08-1.17-.81-1.81-.71-2.15c0,0,1.61.73,2,.58a20.24,20.24,0,0,0,2-1.71s-.59,1.71,0,2,2.59.1,2.93.4c0,0-3.42.73-2.45,1.9a3.83,3.83,0,0,1,1,1.86A4.45,4.45,0,0,0,107.53,106.76Z"></path>
      <path class="cls-19" d="M104,100a6.77,6.77,0,0,1,2.54-.34,8.44,8.44,0,0,0-2-.83c-.54,0,0-1.42.1-1.62s.59-1.41.59-1.41a16.55,16.55,0,0,0-1.86.92c-.2.2-.64.25-1-.68a2.39,2.39,0,0,0-1.46-1.22s1.17,2.44.24,3a2.47,2.47,0,0,1-1.95.15A3.44,3.44,0,0,0,100.4,99c.58.19.63.73.49,1.32s-.59,1.12-.39,1.56c0,0,.78-1.17,1.41-1s1.32,1.36,1.81,1.56C103.72,102.51,103.07,100.19,104,100Z"></path>
      <path class="cls-19" d="M99.76,104.27c.18-.09,1.32-.54,1.37-1.22,0,0-1.37.24-1.66-.54a3.23,3.23,0,0,1,0-1.76s-.73,0-.88,1-.88-1.22-1.47-1.18c0,0,.54,1.57.25,2s-2-.2-2-.39.35.88,1.13,1.12a.92.92,0,0,1,.68,1c0,.1-.83,1.12-.54,1.51,0,0,.59-1.07,1.32-1s1.37,1,1.76,1C99.76,105.78,99.15,104.56,99.76,104.27Z"></path>
      <path class="cls-19" d="M94.39,109.89l.78-4.35s-1.12,3.22-1.91,3.32-2.93-3.32-2.93-3.32,1.66,2.78,1.32,3.32-3.66.25-3.66.25-1.47.34.29.78,3.18.39,2.78,1.07-2.54,3.38-1.32,2.64,2.4-2.69,2.45-1.56-.54,5.08.14,3.61.93-4.69,1.57-4,3.52,4,2.49,2.1S94.23,110.77,94.39,109.89Z"></path>
      <path class="cls-15" d="M64.42,186.32a8.7,8.7,0,0,1,3.83,1.21,6.91,6.91,0,0,1,2.42,3.22,10.27,10.27,0,0,0,2.36,3,29.57,29.57,0,0,0,3,2.48.52.52,0,1,1-.61.85h0a29.34,29.34,0,0,1-2.94-2.74A11.3,11.3,0,0,1,70.11,191,6.56,6.56,0,0,0,68,187.92a8.24,8.24,0,0,0-3.6-1.28.17.17,0,0,1-.14-.19A.16.16,0,0,1,64.42,186.32Z"></path>
      <path class="cls-15" d="M82.53,204.9a6.78,6.78,0,0,0-3.72,2.81,14.35,14.35,0,0,0-1.57,4.58L76.15,212a15,15,0,0,1,1.94-4.79,7.48,7.48,0,0,1,4.28-2.93Z"></path>
    </g>
  </g>
</svg>
