<?xml version="1.0" encoding="UTF-8"?>
<svg xmlns="http://www.w3.org/2000/svg" xmlns:xlink="http://www.w3.org/1999/xlink" viewBox="0 0 111.89 338.13">
  <defs>
    <style>.cls-1{fill:none;}.cls-2{isolation:isolate;}.cls-3{fill:#956d4b;}.cls-4{clip-path:url(#clip-path);}.cls-5{fill:url(#Безымянный_градиент_2);}.cls-6{fill:#754120;}.cls-7{fill:#44281c;}.cls-8{fill:#6c3c1d;}.cls-9{fill:#714d31;}.cls-10{fill:#613822;}.cls-11{fill:#7f5637;}.cls-12{fill:#a07850;}.cls-13{fill:#faf7cd;}.cls-14{fill:#e7bf96;}.cls-15{fill:#f5daa5;}.cls-16{fill:#d3b473;}.cls-17{fill:#8b5b3c;}.cls-18{fill:#c1a755;}.cls-19{fill:#d0b477;}.cls-20{fill:#b09663;}.cls-21,.cls-22{fill:#f2d6aa;}.cls-22{mix-blend-mode:color-burn;}.cls-23{fill:#613922;}</style>
    <clipPath id="clip-path">
      <polygon class="cls-1" points="9.24 309.46 59.21 332.98 105.43 309.57 57.37 289.21 9.24 309.46"></polygon>
    </clipPath>
    <linearGradient id="Безымянный_градиент_2" x1="-3758.1" y1="-281.65" x2="-3755.3" y2="-281.65" gradientTransform="matrix(34.36, 0, 0, -34.36, 129112.18, -9365.28)" gradientUnits="userSpaceOnUse">
      <stop offset="0" stop-color="#a17551"></stop>
      <stop offset="0.38" stop-color="#a17551"></stop>
      <stop offset="0.89" stop-color="#7a4928"></stop>
      <stop offset="1" stop-color="#72401f"></stop>
    </linearGradient>
  </defs>
  <g class="cls-2">
    <g id="Слой_2" data-name="Слой 2">
      <g id="Слой_1-2" data-name="Слой 1">
        <path class="cls-3" d="M59.21,266.82s9.62,11.3,17.05,11.77S109.08,271,109.08,271l2.55-26.43L59.21,226.1Z"></path>
        <path class="cls-3" d="M1.52,242.72l5.23,34.47s18.57,2.79,21.83,1.86,18.11-6.5,22.29-6.5,8.33-5.73,8.33-5.73V226.1Z"></path>
        <g class="cls-4">
          <rect class="cls-5" x="32.9" y="261.89" width="48.87" height="98.4" transform="translate(-256.39 351.64) rotate(-86.92)"></rect>
        </g>
        <path class="cls-6" d="M9.24,309.46l-2.5-32.27s23.69-.46,30.2-3.71,22.27-6.66,22.27-6.66l-1.84,22.39Z"></path>
        <path class="cls-7" d="M43,279.2a8.49,8.49,0,0,0-2.84-1.67v0s-3.78-1.13-5.84,1.41-1.71,5.29-.77,5.73a10.38,10.38,0,0,0,1.63.35l.09-.05a28.27,28.27,0,0,0,3.51-.79,1.83,1.83,0,0,0,.6-.16c.17,0,.35-.09.65-.19,1.48-.46,1.66-.13,2.69-1a4,4,0,0,0,1.08-2.54l-.2-.5h0l0,0a1,1,0,0,0-.58-.5"></path>
        <path class="cls-7" d="M22.72,282.52a11,11,0,0,0-4,1.33v0s-4.3,2.7-3.59,6.84,3.65,6.13,4.87,5.61A14.64,14.64,0,0,0,21.7,295l0-.13c.92-1.05,1.6-3.16,2.21-4.05a2.27,2.27,0,0,0,.36-.72c.1-.2.21-.42.37-.79.81-1.82,1.29-1.71,1.29-3.46a5.07,5.07,0,0,0-1.54-3.21,4,4,0,0,0-.65-.22v0H23.7a1.3,1.3,0,0,0-1,.13"></path>
        <path class="cls-8" d="M59.21,266.82l-1.83,22.39,48.05,20.36L109.08,271s-15-1.73-21.49-.8-17.83,3.72-21.24,1.86a44.62,44.62,0,0,1-7.14-5.26"></path>
        <path class="cls-7" d="M40.9,289.82a3.28,3.28,0,0,0-1.25-.3h0a2.31,2.31,0,0,0-2,1.18c-.49,1.19,0,2.18.36,2.24l.65-.05,0,0a13.53,13.53,0,0,0,1.23-.69l.2-.13.23-.14c.5-.34.61-.24.89-.69a1.5,1.5,0,0,0,.12-1.07l-.13-.17h0Z"></path>
        <path class="cls-7" d="M88,280.19a2.48,2.48,0,0,0-.11-.89h0s-.38-1-1.27-1-1.43.5-1.37.77l.2.41,0,0,.75.63.14.1.15.11c.34.24.3.34.66.41a1.06,1.06,0,0,0,.73-.18l.08-.13h0v0Z"></path>
        <path class="cls-7" d="M101.41,296.37a10.89,10.89,0,0,0-1.91-3.82h0s-3.31-3.9-7.35-2.59-5.59,4.54-4.89,5.68a13.68,13.68,0,0,0,1.53,1.52l.13,0c1.19.77,3.39,1.13,4.37,1.62a2.24,2.24,0,0,0,.77.25l.84.26c1.94.54,1.9,1,3.64.79a5.19,5.19,0,0,0,3-2,4.06,4.06,0,0,0,.13-.69h0v-.07a1.31,1.31,0,0,0-.28-1"></path>
        <path class="cls-7" d="M75.29,283.08a8.41,8.41,0,0,0-1.86,2.69h0s-1.4,3.66,1,5.89,5.11,2.09,5.62,1.19a12.7,12.7,0,0,0,.45-1.59l0-.09a27.32,27.32,0,0,0-.52-3.53,1.81,1.81,0,0,0-.11-.62c0-.17-.07-.35-.14-.66-.34-1.49,0-1.65-.81-2.73a4,4,0,0,0-2.44-1.27l-.51.17h0l0,0a1,1,0,0,0-.54.53"></path>
        <path class="cls-9" d="M75.47,310.46a1.58,1.58,0,0,0,1.57-.41c.54-.7.43-1.44.18-1.55l-.44-.09c-.29,0-.32.7-.34.71Z"></path>
        <path class="cls-10" d="M74.53,309.88s.88.79,1.24.55.8-.46.8-.46l0-.24-1-.32-.57.19Z"></path>
        <path class="cls-11" d="M74.48,309.75c0,.1.12.36.39.27s.53-.23.53-.23l.32-1c.07-.14.15-.19-.25-.05s-.45,0-.71.29a1,1,0,0,0-.28.69"></path>
        <path class="cls-12" d="M75.4,309.79a5.18,5.18,0,0,0,.13-.7c0-.3,0-.39.28-.42s.84-.34,1.11-.23.25.09.25.44a1.24,1.24,0,0,1-.38.87.72.72,0,0,1-.76.32,1.79,1.79,0,0,1-.63-.28"></path>
        <path class="cls-9" d="M64.79,304.34s2.39.12,3.25-1.67.25-3.36-.36-3.49a7.39,7.39,0,0,0-1,0c-.66,0-.37,1.67-.4,1.7Z"></path>
        <path class="cls-10" d="M62.44,303.51s2.31,1.32,3,.62,1.53-1.4,1.53-1.4l-.16-.52a7.5,7.5,0,0,0-2.26-.25c-.37.2-1,.62-1.16.69Z"></path>
        <path class="cls-11" d="M62.25,303.24c.12.21.44.73,1,.4a9.36,9.36,0,0,0,1-.75s.18-1.93.25-2.28.23-.49-.58,0-1,.31-1.44,1a2.48,2.48,0,0,0-.28,1.66"></path>
        <path class="cls-12" d="M64.29,302.89a9.65,9.65,0,0,0-.05-1.59c-.09-.69-.15-.87.42-1.08s1.68-1.13,2.33-1,.6.07.77.84a2.89,2.89,0,0,1-.42,2.1,1.58,1.58,0,0,1-1.51,1.07,4,4,0,0,1-1.54-.31"></path>
        <path class="cls-9" d="M54.83,312.1s1.87,1.42,3.54.44,2.05-2.59,1.62-3a6.91,6.91,0,0,0-.83-.52c-.55-.33-1.22,1.14-1.25,1.16Z"></path>
        <path class="cls-10" d="M53.38,310.15s1.14,2.33,2.08,2.14,2-.3,2-.3l.15-.5s-1.29-1.4-1.69-1.44-1.14-.05-1.32-.08Z"></path>
        <path class="cls-11" d="M53.38,309.83c0,.23-.05.83.58.87a10.13,10.13,0,0,0,1.26,0L56.68,309c.26-.24.45-.27-.46-.33s-.95-.27-1.71,0a2.36,2.36,0,0,0-1.13,1.19"></path>
        <path class="cls-12" d="M55.22,310.67a10.26,10.26,0,0,0,.83-1.32c.31-.61.35-.79.93-.65s2,0,2.45.45.45.38.16,1.1a2.81,2.81,0,0,1-1.49,1.47,1.56,1.56,0,0,1-1.81,0,4.24,4.24,0,0,1-1.07-1.09"></path>
        <path class="cls-9" d="M50.54,305.67a2.66,2.66,0,0,0,.09-2.73c-.86-1.21-2.1-1.39-2.41-1l-.35.67c-.21.44,1,.84,1,.87Z"></path>
        <path class="cls-10" d="M49.14,306.9s1.71-1,1.5-1.72-.36-1.51-.36-1.51l-.4-.09s-1,1.08-1,1.39,0,.87,0,1Z"></path>
        <path class="cls-11" d="M48.9,306.93c.18,0,.64,0,.62-.5a6.76,6.76,0,0,0-.1-1l-1.4-1c-.21-.18-.24-.33-.22.37s-.14.75.12,1.3a1.79,1.79,0,0,0,1,.79"></path>
        <path class="cls-12" d="M49.42,305.47a8.8,8.8,0,0,0-1.06-.55c-.49-.19-.63-.21-.56-.67s-.12-1.51.18-1.89.26-.37.83-.2a2.17,2.17,0,0,1,1.22,1,1.2,1.2,0,0,1,.15,1.38,3.15,3.15,0,0,1-.76.89"></path>
        <path class="cls-9" d="M42.07,307.68a1.17,1.17,0,0,0,.39-1.12c-.2-.61-.69-.84-.87-.73l-.23.23.29.49Z"></path>
        <path class="cls-10" d="M41.34,308s.83-.2.83-.52,0-.67,0-.67l-.15-.09-.59.45-.12.43Z"></path>
        <path class="cls-11" d="M41.23,308l.32-.13.08-.4-.45-.6c-.06-.1-.06-.16-.14.13s-.15.29-.11.55a.72.72,0,0,0,.3.45"></path>
        <path class="cls-12" d="M41.63,307.45l-.37-.36-.14-.35.32-.76.36,0a.89.89,0,0,1,.37.58.5.5,0,0,1-.11.59Z"></path>
        <path class="cls-9" d="M39.47,312.35s1.64-2.63.14-4.72-3.66-2.39-4.19-1.77a9.6,9.6,0,0,0-.59,1.17c-.37.76,1.66,1.45,1.68,1.5Z"></path>
        <path class="cls-10" d="M37.07,314.51s2.94-1.8,2.57-3-.64-2.61-.64-2.61l-.69-.15s-1.68,1.88-1.69,2.42.08,1.51.06,1.75Z"></path>
        <path class="cls-11" d="M36.65,314.55c.3,0,1.1,0,1.07-.87a12.45,12.45,0,0,0-.19-1.67s-2.09-1.41-2.44-1.72-.41-.56-.37.66-.24,1.29.22,2.25a3.12,3.12,0,0,0,1.71,1.35"></path>
        <path class="cls-12" d="M37.52,312a14.53,14.53,0,0,0-1.83-.93c-.85-.33-1.09-.37-1-1.15s-.23-2.62.28-3.28.45-.64,1.44-.35a3.69,3.69,0,0,1,2.12,1.78,2.09,2.09,0,0,1,.28,2.39A5.35,5.35,0,0,1,37.52,312"></path>
        <path class="cls-13" d="M59.4,307.11a29.33,29.33,0,0,0-15.07,7.49,29.88,29.88,0,0,1,14.9-8.36Z"></path>
        <path class="cls-13" d="M59.6,307a24.44,24.44,0,0,0,6.17,4.56A24.94,24.94,0,0,1,59,307.7Z"></path>
        <path class="cls-13" d="M59.64,311.75a35.87,35.87,0,0,1-4.42,4.55,49.2,49.2,0,0,1-5,3.85,47.88,47.88,0,0,0,4.8-4.08,34.59,34.59,0,0,0,4.13-4.69Z"></path>
        <path class="cls-13" d="M59.33,302.92a25.18,25.18,0,0,0,10.08,5.79,25.55,25.55,0,0,1-10.67-5.12Z"></path>
        <path class="cls-13" d="M59.45,292.14a15,15,0,0,1,3,1.83A15.72,15.72,0,0,1,65,296.41a28.26,28.26,0,0,0,2,2.77,2.42,2.42,0,0,0,1.47.7c.54.05,1.23-.1,1.64.38-.44-.45-1.08-.25-1.64-.26a2.54,2.54,0,0,1-1.63-.65,25.67,25.67,0,0,1-2.22-2.64,14.53,14.53,0,0,0-2.57-2.19,13.5,13.5,0,0,0-3-1.55Z"></path>
        <path class="cls-13" d="M59.65,288.14a26.61,26.61,0,0,1,4,1c1.31.42,2.59.89,3.88,1.33s2.58.86,3.9,1.19a15.6,15.6,0,0,0,4,.54,15.53,15.53,0,0,1-4.08-.33c-1.35-.26-2.67-.61-4-1A49.83,49.83,0,0,0,59.54,289Z"></path>
        <path class="cls-13" d="M59.08,274.63a37.72,37.72,0,0,0,3.94.75,9.19,9.19,0,0,1,3.69,1.71A8.85,8.85,0,0,0,63,275.82a36.69,36.69,0,0,1-4.09-.33Z"></path>
        <path class="cls-13" d="M59.55,272.57a96.33,96.33,0,0,1,11.13,1.94A33.11,33.11,0,0,1,81,279a32.65,32.65,0,0,0-10.45-3.87,93.41,93.41,0,0,0-11.12-1.26Z"></path>
        <path class="cls-13" d="M60.55,263.93q-.93,32.46-.68,65-1.75-32.46-2.32-65Z"></path>
        <path class="cls-14" d="M60.55,263.93q-.93,32.46-.68,65c-1.17-21.64.05-43.4-.33-65.08Z"></path>
        <path class="cls-13" d="M59,273.05a15.41,15.41,0,0,0-6.51-.26c-2.24.28-4.46.78-6.7,1.27l-13.42,2.87,13.25-3.59c2.2-.59,4.42-1.21,6.71-1.6a16.35,16.35,0,0,1,7.1,0Z"></path>
        <path class="cls-13" d="M53,272.66a39.47,39.47,0,0,1-12.9,4.6,39.3,39.3,0,0,0,12.42-5.35Z"></path>
        <path class="cls-13" d="M51.67,272.84c-2.1-.4-4.26-.64-6.41-.84s-4.32-.32-6.48-.34c2.16-.12,4.33-.14,6.5-.1s4.35.14,6.53.4Z"></path>
        <path class="cls-13" d="M63,273a30.81,30.81,0,0,1,15,1.09,30.32,30.32,0,0,0-14.78-.22Z"></path>
        <path class="cls-13" d="M65.54,273.45a29.86,29.86,0,0,0,6.22,5.47,34.35,34.35,0,0,0,7.42,3.84,35.17,35.17,0,0,1-7.66-3.46A30.58,30.58,0,0,1,64.87,274Z"></path>
        <path class="cls-13" d="M59.08,276.7a18.68,18.68,0,0,0-4.75,2.1c-1.54.88-3,1.85-4.49,2.85-2.93,2-5.78,4.17-8.58,6.36,2.71-2.31,5.46-4.58,8.32-6.72,1.43-1.06,2.89-2.1,4.4-3.06a18.74,18.74,0,0,1,4.9-2.39Z"></path>
        <path class="cls-13" d="M50.7,281c-3.15.2-6.16,1.34-9.25,2,3.06-.78,6-2,9.22-2.33Z"></path>
        <path class="cls-13" d="M53.69,279.15a12.3,12.3,0,0,0-5.3-.41A29.23,29.23,0,0,0,43.12,280a30,30,0,0,1,5.22-1.59,13,13,0,0,1,5.55.09Z"></path>
        <path class="cls-13" d="M51.94,280.13c-.25,1.08-.49,2.18-.8,3.25a13.07,13.07,0,0,1-1.25,3.1,12.92,12.92,0,0,0,1-3.16c.23-1.08.39-2.18.56-3.28Z"></path>
        <path class="cls-13" d="M59,286.45A87.81,87.81,0,0,0,46.44,290a78.9,78.9,0,0,0-11.9,5.45,78.86,78.86,0,0,1,11.74-5.86,88.16,88.16,0,0,1,12.55-4Z"></path>
        <path class="cls-13" d="M45.89,290.19a45.66,45.66,0,0,0-12.16,2,45.56,45.56,0,0,1,12.13-2.4Z"></path>
        <path class="cls-13" d="M49.16,289.07a80,80,0,0,0-8.62,7.84,80.62,80.62,0,0,1,8.31-8.22Z"></path>
        <path class="cls-13" d="M55.62,287A23.59,23.59,0,0,1,51,291.49a23.73,23.73,0,0,0,4.18-4.83Z"></path>
        <path class="cls-13" d="M59.43,289.37a18.14,18.14,0,0,0-10.72,6.41,18.51,18.51,0,0,1,10.53-7.27Z"></path>
        <path class="cls-13" d="M65.79,289.91a29.14,29.14,0,0,0,2.66,2.67A37.44,37.44,0,0,0,71.36,295a37.14,37.14,0,0,1-3.07-2.25,29.69,29.69,0,0,1-2.85-2.55Z"></path>
        <polygon class="cls-13" points="63.87 295.34 69.42 297.57 63.73 295.72 63.87 295.34"></polygon>
        <path class="cls-13" d="M58.8,297.37l-8.53,2.83a36.45,36.45,0,0,0-4.2,1.56,7.49,7.49,0,0,0-3.36,2.84,7.66,7.66,0,0,1,3.26-3,37.82,37.82,0,0,1,4.15-1.78l8.38-3.24Z"></path>
        <path class="cls-13" d="M53.83,298.88a26.82,26.82,0,0,1-6.59,5.85,27,27,0,0,0,6.34-6Z"></path>
        <path class="cls-13" d="M52.47,299.29c-1.07-.2-2.1-.52-3.13-.78a11,11,0,0,0-3.17-.43,11.2,11.2,0,0,1,3.21.24c1,.21,2.1.47,3.15.6Z"></path>
        <path class="cls-13" d="M59,303.91A25.45,25.45,0,0,0,45.5,308,25.79,25.79,0,0,1,59,303Z"></path>
        <ellipse class="cls-15" cx="61.11" cy="278.46" rx="1.57" ry="1.63"></ellipse>
        <path class="cls-16" d="M59.55,278.46a2,2,0,0,0,.76,1.18,1.29,1.29,0,0,0,1.29.22,1.63,1.63,0,0,0,.94-1,1,1,0,0,0-.7-1.14v0a1.11,1.11,0,0,1,.82,1.18,1.78,1.78,0,0,1-1,1.18,1.54,1.54,0,0,1-.8.13,1.83,1.83,0,0,1-.74-.33,1.69,1.69,0,0,1-.61-1.4Z"></path>
        <ellipse class="cls-15" cx="60.45" cy="288.16" rx="0.97" ry="1"></ellipse>
        <path class="cls-16" d="M59.49,288.16a1.11,1.11,0,0,0,.46.73.83.83,0,0,0,.8.14,1,1,0,0,0,.58-.62.64.64,0,0,0-.43-.7v0a.69.69,0,0,1,.5.73,1.14,1.14,0,0,1-.61.73.89.89,0,0,1-.95-.13,1.08,1.08,0,0,1-.38-.86Z"></path>
        <ellipse class="cls-15" cx="64.42" cy="295.16" rx="0.7" ry="0.73"></ellipse>
        <path class="cls-16" d="M63.72,295.16a.68.68,0,0,0,1.34.18.47.47,0,0,0-.31-.51h0a.5.5,0,0,1,.37.53.79.79,0,0,1-.45.53.69.69,0,0,1-.69-.09.78.78,0,0,1-.27-.63Z"></path>
        <ellipse class="cls-15" cx="57.21" cy="276.31" rx="1.33" ry="1.38"></ellipse>
        <path class="cls-16" d="M58.54,276.31a1.42,1.42,0,0,1-.52,1.18,1.23,1.23,0,0,1-1.3.18,1.53,1.53,0,0,1-.84-1,.94.94,0,0,1,.69-1v0a.87.87,0,0,0-.58,1,1.36,1.36,0,0,0,.79.85,1.12,1.12,0,0,0,1.1-.18,1.65,1.65,0,0,0,.63-1Z"></path>
        <ellipse class="cls-15" cx="54.96" cy="286.08" rx="1.33" ry="1.38"></ellipse>
        <path class="cls-16" d="M56.3,286.08a1.46,1.46,0,0,1-.52,1.18,1.21,1.21,0,0,1-1.3.17,1.49,1.49,0,0,1-.84-1,1,1,0,0,1,.69-1v0a.87.87,0,0,0-.59,1,1.35,1.35,0,0,0,.8.85,1.08,1.08,0,0,0,1.09-.18,1.6,1.6,0,0,0,.64-1Z"></path>
        <ellipse class="cls-15" cx="57.75" cy="296.4" rx="1.12" ry="1.16"></ellipse>
        <path class="cls-16" d="M58.88,296.4a1.23,1.23,0,0,1-.44,1,1,1,0,0,1-1.1.15,1.26,1.26,0,0,1-.7-.84.79.79,0,0,1,.58-.85v0a.73.73,0,0,0-.5.81,1.17,1.17,0,0,0,.67.72.93.93,0,0,0,.93-.16,1.34,1.34,0,0,0,.53-.85Z"></path>
        <ellipse class="cls-15" cx="58.78" cy="306.01" rx="0.81" ry="0.85"></ellipse>
        <path class="cls-16" d="M59.6,306a.86.86,0,0,1-.32.73.72.72,0,0,1-.79.1.91.91,0,0,1-.52-.61.58.58,0,0,1,.43-.61h0a.54.54,0,0,0-.36.59.84.84,0,0,0,.49.52.68.68,0,0,0,.67-.11,1,1,0,0,0,.39-.62Z"></path>
        <polygon class="cls-17" points="1.32 243.02 59.25 268.53 111.89 245 59.25 225.43 1.32 243.02"></polygon>
        <path class="cls-18" d="M43.31,113.54s.88,3.16,17.81,6.7a46.3,46.3,0,0,1-4.93-7.83c-1.64-3.67-8.21-1.52-9.6-.76S43.31,113.54,43.31,113.54Z"></path>
        <path class="cls-19" d="M40.53,118.22s-3.41-8.72,1.52-8.34,7.07.63,9,.38,4-.38,5.17,2.15c0,0-3-3.79-7.45-.38S44.07,117.58,40.53,118.22Z"></path>
        <path class="cls-20" d="M47.35,110.32a3.55,3.55,0,0,0-3.47,1.45,13,13,0,0,0-1.61,3.63A22.64,22.64,0,0,1,40.42,119,24.19,24.19,0,0,1,38,122.36a.5.5,0,0,1-.75-.67l0,0h0a23.9,23.9,0,0,0,2.53-3,21.83,21.83,0,0,0,2-3.43,13,13,0,0,1,1.88-3.59A3.7,3.7,0,0,1,47.35,110.32Z"></path>
        <path class="cls-18" d="M57.84,12.36s.88,3.16,17.81,6.7a45.63,45.63,0,0,1-4.93-7.83c-1.64-3.67-8.21-1.52-9.6-.76S57.84,12.36,57.84,12.36Z"></path>
        <path class="cls-19" d="M55.06,17S51.65,8.32,56.57,8.7s7.08.63,9,.38,4-.38,5.18,2.15c0,0-3-3.79-7.45-.38S58.59,16.41,55.06,17Z"></path>
        <path class="cls-20" d="M61.88,9.14a3.59,3.59,0,0,0-3.51,1.42,13,13,0,0,0-1.66,3.62,22.5,22.5,0,0,1-1.88,3.61A24.7,24.7,0,0,1,52.38,21a.31.31,0,1,1-.47-.41h0a24.09,24.09,0,0,0,2.51-3.08,22.5,22.5,0,0,0,2-3.47,13.3,13.3,0,0,1,1.83-3.6A3.67,3.67,0,0,1,61.88,9.14Z"></path>
        <path class="cls-18" d="M78.6,118.51s.88,3.16,17.81,6.7a45.63,45.63,0,0,1-4.93-7.83c-1.64-3.67-8.21-1.52-9.6-.76S78.6,118.51,78.6,118.51Z"></path>
        <path class="cls-19" d="M75.82,123.19s-3.41-8.72,1.51-8.34,7.08.63,9,.38,4-.38,5.18,2.15c0,0-3-3.79-7.45-.38S79.35,122.55,75.82,123.19Z"></path>
        <path class="cls-20" d="M82.64,115.29a3.59,3.59,0,0,0-3.51,1.42,13,13,0,0,0-1.66,3.62,22,22,0,0,1-1.88,3.6,23.41,23.41,0,0,1-2.46,3.26.31.31,0,0,1-.44,0,.32.32,0,0,1,0-.44h0a24.09,24.09,0,0,0,2.51-3.08,22.5,22.5,0,0,0,2-3.47,12.88,12.88,0,0,1,1.83-3.6A3.67,3.67,0,0,1,82.64,115.29Z"></path>
        <path class="cls-18" d="M73.47,45.47s.29,3.27-14.27,12.6A45.67,45.67,0,0,0,61,49c.23-4,7.14-4.33,8.7-4.12S73.47,45.47,73.47,45.47Z"></path>
        <path class="cls-19" d="M77.73,48.85s.09-9.36-4.38-7.25S67,44.71,65.1,45.14,61.19,46.23,61,49c0,0,1.49-4.62,6.83-3S74.2,49.52,77.73,48.85Z"></path>
        <path class="cls-20" d="M68.54,43.9a3.67,3.67,0,0,1,3.87-.06,13.32,13.32,0,0,1,3,2.72,22,22,0,0,0,3.09,2.53,22.75,22.75,0,0,0,3.44,2h0a.31.31,0,0,1-.26.57h0a24.44,24.44,0,0,1-3.45-2.17,22.31,22.31,0,0,1-3-2.7A12.94,12.94,0,0,0,72.33,44,3.6,3.6,0,0,0,68.54,43.9Z"></path>
        <path class="cls-19" d="M84.78,176.39s13.61-3,5.36,19.9C90.14,196.29,74.22,184.05,84.78,176.39Z"></path>
        <path class="cls-18" d="M84.73,176.43s6.86,6,5.36,19.9C90.09,196.33,74.16,184.09,84.73,176.43Z"></path>
        <path class="cls-20" d="M90.1,196.37a28.1,28.1,0,0,0,.13-6.35,26.08,26.08,0,0,0-1.31-6.18,20.58,20.58,0,0,0-2.86-5.6,21.43,21.43,0,0,0-4.37-4.5h0a.27.27,0,0,1,0-.37.25.25,0,0,1,.36,0h0A22.11,22.11,0,0,1,86.38,178a21.2,21.2,0,0,1,2.79,5.74A26.66,26.66,0,0,1,90.36,190,28.2,28.2,0,0,1,90.1,196.37Z"></path>
        <path class="cls-20" d="M86.61,178.62a4.9,4.9,0,0,1-.25,1.59,9.79,9.79,0,0,1-.56,1.48,17.87,17.87,0,0,1-1.59,2.7,17.35,17.35,0,0,0,1.46-2.76,11,11,0,0,0,.48-1.47,4.91,4.91,0,0,0,.17-1.5v0a.15.15,0,1,1,.29,0Z"></path>
        <path class="cls-20" d="M89.41,184.53a17.15,17.15,0,0,1-.72,2.82,8.16,8.16,0,0,1-1.37,2.53,8.26,8.26,0,0,0,1.22-2.58,17,17,0,0,0,.55-2.81h0a.17.17,0,0,1,.18-.14.16.16,0,0,1,.14.18Z"></path>
        <path class="cls-20" d="M88.4,181.81a1.85,1.85,0,0,1,1.11-.06,2.55,2.55,0,0,1,.95.46,5.44,5.44,0,0,1,1.33,1.54,5.28,5.28,0,0,0-1.44-1.39,2.25,2.25,0,0,0-.89-.34,1.5,1.5,0,0,0-.88.11h0a.19.19,0,0,1-.25-.07.19.19,0,0,1,.08-.25Z"></path>
        <path class="cls-20" d="M90.19,187.67a.82.82,0,0,1,.38.23,3.58,3.58,0,0,1,.26.29,5.39,5.39,0,0,1,.43.63,5.47,5.47,0,0,0-.51-.56,2.17,2.17,0,0,0-.29-.24.76.76,0,0,0-.28-.13h0a.11.11,0,1,1,0-.21Z"></path>
        <path class="cls-19" d="M64.59,29.48s-7.07-14.78-16.8.76c0,0-1.76,3.15-2.27,3.79s4.3-1.27,7.45.38S65.23,36.3,64.59,29.48Z"></path>
        <path class="cls-18" d="M64.59,29.48c-3.78-4.61-17.06.33-19.07,4.55-.35.73,4.3-1.27,7.45.38S65.23,36.3,64.59,29.48Z"></path>
        <path class="cls-20" d="M45.46,34.28a21.91,21.91,0,0,1,4.81-4.2,16,16,0,0,1,5.93-2.42,12.4,12.4,0,0,1,3.22-.15,13.63,13.63,0,0,1,3.16.7,17.22,17.22,0,0,1,5.47,3.42.25.25,0,0,1,0,.36.26.26,0,0,1-.36,0h0a17,17,0,0,0-5.26-3.43,13.4,13.4,0,0,0-3.06-.74,11.87,11.87,0,0,0-3.15.08,15.82,15.82,0,0,0-5.9,2.27A22.06,22.06,0,0,0,45.46,34.28Z"></path>
        <path class="cls-20" d="M62.18,28.45a7.5,7.5,0,0,1-.28,2.32,5.79,5.79,0,0,1-1,2.06,6.62,6.62,0,0,0,1-4.34v0a.18.18,0,0,1,.16-.19.17.17,0,0,1,.19.16Z"></path>
        <path class="cls-20" d="M57.47,28a7.45,7.45,0,0,1-1.26,2.44,4.92,4.92,0,0,1-2.16,1.62,4.86,4.86,0,0,0,2-1.74,7,7,0,0,0,1-2.41h0a.22.22,0,0,1,.25-.16.2.2,0,0,1,.15.24Z"></path>
        <path class="cls-20" d="M59.67,27.53a5.86,5.86,0,0,0-1.29-2,4.68,4.68,0,0,0-2.06-1.21,4.77,4.77,0,0,1,2.19,1.06,6,6,0,0,1,1.54,2,.21.21,0,1,1-.37.18h0Z"></path>
        <path class="cls-20" d="M54.3,28.2a1.31,1.31,0,0,0-.54-.46,1.76,1.76,0,0,0-.76-.16,4,4,0,0,0-1.61.38,3.93,3.93,0,0,1,1.6-.6,2.08,2.08,0,0,1,.89.08,1.66,1.66,0,0,1,.8.53.23.23,0,0,1,0,.31.22.22,0,0,1-.31,0l0,0Z"></path>
        <path class="cls-19" d="M85.8,126.94s10.23-12.8-8-14.8c0,0-3.61-.22-4.4-.4s3,3.31,2.9,6.87S79.93,130.47,85.8,126.94Z"></path>
        <path class="cls-18" d="M85.8,126.94c2.5-5.42-7.71-15.22-12.39-15.2-.81,0,3,3.31,2.9,6.87S79.93,130.47,85.8,126.94Z"></path>
        <path class="cls-20" d="M73.16,111.79A22.29,22.29,0,0,1,79,114.3a16,16,0,0,1,4.75,4.28,13.22,13.22,0,0,1,1.54,2.84,14.29,14.29,0,0,1,.74,3.15,17.63,17.63,0,0,1-.7,6.42.26.26,0,0,1-.32.17.26.26,0,0,1-.18-.32h0a16.9,16.9,0,0,0,.8-6.23,13,13,0,0,0-.66-3.08,12.37,12.37,0,0,0-1.44-2.8A15.88,15.88,0,0,0,79,114.4,22.5,22.5,0,0,0,73.16,111.79Z"></path>
        <path class="cls-20" d="M85.68,124.32a7.76,7.76,0,0,1-2.22.75,5.75,5.75,0,0,1-2.3,0,6.63,6.63,0,0,0,4.33-1h0a.18.18,0,1,1,.19.3Z"></path>
        <path class="cls-20" d="M84,119.88a7.52,7.52,0,0,1-2.76-.07,5,5,0,0,1-2.39-1.25,4.91,4.91,0,0,0,2.43,1,7.18,7.18,0,0,0,2.62-.13h0a.2.2,0,1,1,.09.39Z"></path>
        <path class="cls-20" d="M85.41,121.66a5.89,5.89,0,0,0,1.2-2,4.68,4.68,0,0,0,.2-2.38,4.8,4.8,0,0,1,0,2.44,6.12,6.12,0,0,1-1.1,2.23.2.2,0,1,1-.32-.25h0Z"></path>
        <path class="cls-20" d="M82.47,117.12a1.27,1.27,0,0,0,.19-.69,1.71,1.71,0,0,0-.19-.76,3.77,3.77,0,0,0-1-1.28,3.92,3.92,0,0,1,1.23,1.17,2.1,2.1,0,0,1,.32.84,1.6,1.6,0,0,1-.14.95.22.22,0,0,1-.29.1.21.21,0,0,1-.1-.29s0,0,0,0Z"></path>
        <path class="cls-19" d="M26.23,137.39s-16.36,1-5.66,15.84c0,0,2.26,2.83,2.65,3.54s.46-4.46,3.17-6.76S32.78,139.39,26.23,137.39Z"></path>
        <path class="cls-18" d="M26.23,137.39c-5.7,1.76-6.15,15.92-3,19.38.54.6.46-4.46,3.17-6.76S32.78,139.39,26.23,137.39Z"></path>
        <path class="cls-20" d="M23.43,156.92a22.15,22.15,0,0,1-2.07-6,16,16,0,0,1,0-6.4,12.46,12.46,0,0,1,1.08-3,14.18,14.18,0,0,1,1.84-2.66A17.47,17.47,0,0,1,29.53,135a.26.26,0,0,1,.34.12.26.26,0,0,1-.12.35h0A16.82,16.82,0,0,0,24.58,139a13.6,13.6,0,0,0-1.85,2.55,12.09,12.09,0,0,0-1.11,2.95,15.64,15.64,0,0,0-.13,6.32A22,22,0,0,0,23.43,156.92Z"></path>
        <path class="cls-20" d="M24.37,139.24a7.37,7.37,0,0,1,2,1.14,5.59,5.59,0,0,1,1.52,1.73,6.54,6.54,0,0,0-3.66-2.53h0a.17.17,0,0,1-.12-.22.18.18,0,0,1,.22-.12Z"></path>
        <path class="cls-20" d="M22.17,143.43a7.63,7.63,0,0,1,1.79,2.1,4.88,4.88,0,0,1,.67,2.6,4.77,4.77,0,0,0-.85-2.5,7.08,7.08,0,0,0-1.84-1.86h0a.19.19,0,0,1-.05-.28.2.2,0,0,1,.28-.06Z"></path>
        <path class="cls-20" d="M22.57,141.21a6,6,0,0,0-2.31.46,4.63,4.63,0,0,0-1.9,1.44,4.79,4.79,0,0,1,1.81-1.62,6,6,0,0,1,2.4-.68.2.2,0,1,1,0,.4h0Z"></path>
        <path class="cls-20" d="M21.16,146.43a1.27,1.27,0,0,0-.64.33,1.92,1.92,0,0,0-.44.64,3.75,3.75,0,0,0-.25,1.64,3.81,3.81,0,0,1,.05-1.71,1.91,1.91,0,0,1,.41-.8,1.61,1.61,0,0,1,.79-.53.22.22,0,0,1,.12.43h0Z"></path>
        <path class="cls-20" d="M57.75,176.08a47.08,47.08,0,0,1,1.76-8.87c.45-1.42.86-2.85,1.42-4.23l.79-2.08c.29-.68.61-1.35.91-2a73.83,73.83,0,0,1,9.28-15l2.89-3.34c.49-.54.94-1.12,1.47-1.63l1.58-1.54c1.06-1,2.06-2.08,3.17-3l3.37-2.81c.57-.47,1.12-1,1.7-1.39l1.79-1.27,3.58-2.53c1.19-.84,2.49-1.51,3.74-2.26s2.55-1.43,3.84-2.1c-2.35,1.76-4.82,3.27-7.19,4.94l-3.45,2.64-1.72,1.32c-.55.46-1.08,1-1.62,1.44l-3.22,2.91c-1,1-2,2.08-3,3.11l-1.48,1.57c-.51.52-.92,1.11-1.38,1.66l-2.7,3.37a71.94,71.94,0,0,0-8.43,14.94c-.26.66-.55,1.31-.8,2l-.7,2c-.5,1.34-.83,2.72-1.22,4.09a44.81,44.81,0,0,0-1.38,8.26v.1a1.5,1.5,0,1,1-3-.16Z"></path>
        <path class="cls-20" d="M62.86,159.5a38.27,38.27,0,0,1,4.07-4.35,37.49,37.49,0,0,1,4.64-3.68,25.25,25.25,0,0,1,10.93-4.36,19.51,19.51,0,0,1,5.91.18,20.73,20.73,0,0,1,5.53,2,31.33,31.33,0,0,1,8.89,7.42,31,31,0,0,0-9.12-7A19.66,19.66,0,0,0,88.28,148a18.32,18.32,0,0,0-5.63.07,24.06,24.06,0,0,0-10.22,4.6,38.06,38.06,0,0,0-8,8l0,0a1,1,0,0,1-1.61-1.19Z"></path>
        <path class="cls-20" d="M57.81,155.23a19.84,19.84,0,0,0-2.76-5.72,27.11,27.11,0,0,0-4.29-4.92,34.65,34.65,0,0,0-11.35-6.65l-1.57-.58-.78-.29-.81-.21L33,136a28,28,0,0,0-3.29-.61l-3.32-.52c-2.23-.13-4.47-.35-6.71-.46s-4.49,0-6.74,0c2.24-.15,4.49-.26,6.75-.37s4.51.11,6.77.19l3.36.41a31.67,31.67,0,0,1,3.36.51l3.33.74.83.19.81.26,1.62.54a36.13,36.13,0,0,1,12,6.52,29.18,29.18,0,0,1,4.72,5.08,21.68,21.68,0,0,1,3.25,6.29,1,1,0,1,1-1.91.59v0Z"></path>
        <path class="cls-20" d="M42.7,139.17a52.46,52.46,0,0,0-2-8.13,55.55,55.55,0,0,0-3.2-7.74,42.76,42.76,0,0,0-4.44-7.11l-1.29-1.66L30.36,113l-.69-.79-.76-.73-1.49-1.5a31.75,31.75,0,0,1,6.11,5.87A44.06,44.06,0,0,1,38.16,123a52.92,52.92,0,0,1,3.31,7.84,49.54,49.54,0,0,1,2,8.29.37.37,0,0,1-.31.42.38.38,0,0,1-.43-.31Z"></path>
        <path class="cls-20" d="M58.9,106.35a61.56,61.56,0,0,0-7-11.76,55.28,55.28,0,0,0-9.41-10,43.12,43.12,0,0,0-5.63-4,39.22,39.22,0,0,0-6.19-3c-4.29-1.74-8.88-2.33-13.51-2.84a27.82,27.82,0,0,1,7,.26c1.17.14,2.3.46,3.45.69s2.27.61,3.37,1a39.07,39.07,0,0,1,6.44,2.88,45,45,0,0,1,5.89,3.88,57,57,0,0,1,10,10,61.68,61.68,0,0,1,7.45,12,1,1,0,0,1-1.82.84h0Z"></path>
        <path class="cls-20" d="M59.07,117.68,73.9,79.37c1.22-3.19,2.53-6.4,3.66-9.56a94.37,94.37,0,0,0,2.56-9.89c.7-3.34,1.3-6.7,1.85-10.08.27-1.68.52-3.37.77-5.07l.35-2.54L83.25,41a3.11,3.11,0,0,1,.38-1.25,11.58,11.58,0,0,1-.15,2.57l-.32,2.55c-.21,1.7-.44,3.4-.69,5.09-.49,3.39-1,6.77-1.7,10.14a93.94,93.94,0,0,1-2.43,10c-1.11,3.28-2.35,6.44-3.52,9.66L60.58,118.24h0a.8.8,0,0,1-1,.48.82.82,0,0,1-.48-1Z"></path>
        <path class="cls-20" d="M68.62,93.42a16.94,16.94,0,0,1,5.52-7.57,21.24,21.24,0,0,1,8.47-4,34.61,34.61,0,0,1,9.3-.8c1.54.17,3.09.29,4.63.53s3,.66,4.52,1.06c-1.55-.14-3.07-.34-4.59-.55s-3.07-.21-4.59-.32a33.6,33.6,0,0,0-9.07.89,21.28,21.28,0,0,0-8.14,3.84,16.69,16.69,0,0,0-5.35,7.1v0a.37.37,0,0,1-.69-.25Z"></path>
        <path class="cls-20" d="M59.08,52.5a77.62,77.62,0,0,1,4.69-13.15A66.11,66.11,0,0,1,67,33.15c.59-1,1.2-2,1.86-2.95A16.33,16.33,0,0,1,71,27.46c-.51,1.07-1.26,1.94-1.84,2.94s-1.21,2-1.78,3a66.27,66.27,0,0,0-3,6.23Q63,42.78,61.87,46.07c-.73,2.18-1.41,4.4-1.95,6.62v0a.44.44,0,0,1-.52.32.43.43,0,0,1-.32-.53Z"></path>
        <path class="cls-19" d="M70,28.8s-7.11-12,17.21-11.35C87.21,17.45,80.61,36.42,70,28.8Z"></path>
        <path class="cls-18" d="M70.06,28.84s3.52-8.39,17.2-11.35C87.26,17.49,80.66,36.46,70.06,28.84Z"></path>
        <path class="cls-20" d="M87.26,17.49a26.51,26.51,0,0,0-9.74,3.79,24.23,24.23,0,0,0-7.32,7.39.09.09,0,0,1-.16-.1,17.73,17.73,0,0,1,3.22-4.19,23.41,23.41,0,0,1,4.16-3.27A25.46,25.46,0,0,1,87.26,17.49Z"></path>
        <path class="cls-20" d="M71.55,26.36a5.24,5.24,0,0,1,1.59-.26,10.26,10.26,0,0,1,1.57.07,17.64,17.64,0,0,1,3.07.65,17.84,17.84,0,0,0-3.08-.51,10,10,0,0,0-1.55,0,5.06,5.06,0,0,0-1.47.31h0a.15.15,0,0,1-.19-.08.14.14,0,0,1,.08-.19Z"></path>
        <path class="cls-20" d="M76.28,21.84a16.57,16.57,0,0,1,2.9-.2,8.34,8.34,0,0,1,2.84.51,8.3,8.3,0,0,0-2.84-.35,16.84,16.84,0,0,0-2.84.36h0a.16.16,0,0,1-.2-.12.16.16,0,0,1,.13-.19Z"></path>
        <path class="cls-20" d="M74,23.66a1.83,1.83,0,0,1-.41-1,2.65,2.65,0,0,1,.14-1.05,5.2,5.2,0,0,1,1-1.74,5,5,0,0,0-.87,1.79,2.4,2.4,0,0,0,0,1,1.48,1.48,0,0,0,.39.8v0a.2.2,0,0,1,0,.26.19.19,0,0,1-.26,0Z"></path>
        <path class="cls-20" d="M73.5,63.74a.78.78,0,0,1,.1-.43,2.27,2.27,0,0,1,.19-.34,6.8,6.8,0,0,1,.46-.6c-.13.21-.26.43-.37.65a2.48,2.48,0,0,0-.13.35.62.62,0,0,0,0,.31v0a.11.11,0,0,1-.07.14.12.12,0,0,1-.14-.08Z"></path>
        <path class="cls-19" d="M48.84,21.71S44.67,8.41,28.9,26.93C28.9,26.93,47.43,34.68,48.84,21.71Z"></path>
        <path class="cls-18" d="M48.83,21.78s-8.6-3-19.93,5.22C28.9,27,47.42,34.75,48.83,21.78Z"></path>
        <path class="cls-20" d="M28.9,27a27.36,27.36,0,0,1,5.33-3.39,26.71,26.71,0,0,1,6-2.07,20.81,20.81,0,0,1,6.35-.42,21.92,21.92,0,0,1,6.22,1.45A.36.36,0,0,1,53,23a.37.37,0,0,1-.47.22h0a21.44,21.44,0,0,0-6-1.58,20.62,20.62,0,0,0-6.22.23,26.3,26.3,0,0,0-6,1.88A27.12,27.12,0,0,0,28.9,27Z"></path>
        <path class="cls-20" d="M46.11,21.5a5.44,5.44,0,0,0-1.22.89,9.47,9.47,0,0,0-1,1.15,17.18,17.18,0,0,0-1.67,2.63,17.73,17.73,0,0,1,1.55-2.71,11.92,11.92,0,0,1,1-1.23,5.67,5.67,0,0,1,1.26-1,.15.15,0,0,1,.14.26h0Z"></path>
        <path class="cls-20" d="M39.67,22a16.08,16.08,0,0,0-2.16,1.88,8,8,0,0,0-1.64,2.34,7.8,7.8,0,0,1,1.52-2.45,16,16,0,0,1,2.08-2,.17.17,0,0,1,.23,0,.16.16,0,0,1,0,.23Z"></path>
        <path class="cls-20" d="M42,21.27a1.51,1.51,0,0,0-.34-.82,2.2,2.2,0,0,0-.74-.61A5.26,5.26,0,0,0,39,19.28a5.52,5.52,0,0,1,2,.39,2.56,2.56,0,0,1,.87.6,1.79,1.79,0,0,1,.49,1,.17.17,0,0,1-.15.2.18.18,0,0,1-.21-.15v0Z"></path>
        <path class="cls-20" d="M36.18,22.73a.83.83,0,0,0-.26-.18l-.35-.13a5.93,5.93,0,0,0-.73-.16,5,5,0,0,1,.76.06,2.87,2.87,0,0,1,.38.08.8.8,0,0,1,.38.22.11.11,0,0,1,0,.15.12.12,0,0,1-.16,0v0Z"></path>
        <path class="cls-19" d="M77.07,86l1,.25c12,1.16,9.54-17.92,9.54-17.92C67.46,77.71,75.55,84.82,77.07,86Z"></path>
        <path class="cls-18" d="M77.37,86c.25.06.5.11.74.18,12,1.2,9.58-17.92,9.58-17.92C77.45,76.51,77.34,85,77.37,86Z"></path>
        <path class="cls-20" d="M87.69,68.3a25.67,25.67,0,0,0-6.83,7.59,22.26,22.26,0,0,0-3.13,9.61.36.36,0,0,1-.4.34.37.37,0,0,1-.34-.39v0a23.11,23.11,0,0,1,3.55-9.73A25.86,25.86,0,0,1,87.69,68.3Z"></path>
        <path class="cls-20" d="M77.6,83.26a5.1,5.1,0,0,1,1.3-1,8.78,8.78,0,0,1,1.44-.64,17,17,0,0,1,3-.78,16.84,16.84,0,0,0-3,.91,10,10,0,0,0-1.39.7,5,5,0,0,0-1.18.94h0a.16.16,0,0,1-.21,0,.14.14,0,0,1,0-.21Z"></path>
        <path class="cls-20" d="M79.81,77.1a16.6,16.6,0,0,1,2.5-1.48,8.25,8.25,0,0,1,2.77-.81,8,8,0,0,0-2.69,1A15.91,15.91,0,0,0,80,77.36h0a.15.15,0,0,1-.22,0,.16.16,0,0,1,0-.23Z"></path>
        <path class="cls-20" d="M78.6,79.73a1.77,1.77,0,0,1-.83-.74,2.54,2.54,0,0,1-.34-1,5.12,5.12,0,0,1,.15-2,5.12,5.12,0,0,0,0,2,2.26,2.26,0,0,0,.39.88,1.44,1.44,0,0,0,.7.54h0a.18.18,0,0,1-.11.35Z"></path>
        <path class="cls-20" d="M81.49,74.33a.8.8,0,0,1-.11-.42c0-.14,0-.26,0-.39a5.86,5.86,0,0,1,.14-.75,6.27,6.27,0,0,0,0,.75,2.22,2.22,0,0,0,0,.37,1,1,0,0,0,.1.3h0a.11.11,0,0,1,0,.16.1.1,0,0,1-.15,0Z"></path>
        <path class="cls-20" d="M57.47,245V214.26l.13-30.77.47-61.57c.17-5.17.52-10.29.81-15.4s.57-10.23.75-15.35a304.4,304.4,0,0,0-.32-30.66,156.74,156.74,0,0,0-4.73-30.23C52,20.43,48,10.8,41.92,2.51,48.25,10.62,52.52,20.19,55.47,30a156.29,156.29,0,0,1,5.44,30.36,281,281,0,0,1,.86,30.84c-.09,5.14-.28,10.28-.5,15.41s-.48,10.25-.58,15.34l0,61.51-.07,30.78L60.47,245a1.5,1.5,0,0,1-3,0Z"></path>
        <path class="cls-19" d="M46.59,10S47.2-6.41,31.37,2.82c0,0-3,2-3.78,2.3S32,6,34,8.92,44,16.3,46.59,10Z"></path>
        <path class="cls-18" d="M46.59,10c-1.21-5.84-15.25-7.64-19-4.84C27,5.6,32,6,34,8.92S44,16.3,46.59,10Z"></path>
        <path class="cls-20" d="M27.42,5.31A19.59,19.59,0,0,1,37.77,4a13.71,13.71,0,0,1,4.95,1.79,12.55,12.55,0,0,1,3.83,3.64.15.15,0,0,1,0,.21.14.14,0,0,1-.2,0h0A12.28,12.28,0,0,0,42.61,6a13.71,13.71,0,0,0-4.87-1.84A19.49,19.49,0,0,0,27.42,5.31Z"></path>
        <path class="cls-20" d="M45,7.76a8.54,8.54,0,0,1-1.34,2,5.54,5.54,0,0,1-1.9,1.43,7,7,0,0,0,3-3.52h0a.11.11,0,0,1,.15-.06.12.12,0,0,1,.06.16Z"></path>
        <path class="cls-20" d="M41.12,5.19a8.46,8.46,0,0,1-2.31,1.64,5.19,5.19,0,0,1-2.76.52,5.15,5.15,0,0,0,2.72-.6A8.67,8.67,0,0,0,41,5.07h0a.09.09,0,0,1,.13,0,.09.09,0,0,1,0,.13Z"></path>
        <path class="cls-20" d="M43.2,6.21A6.78,6.78,0,0,0,43,3.72a4.64,4.64,0,0,0-1.31-2.13,4.66,4.66,0,0,1,1.41,2.1,7,7,0,0,1,.35,2.54.1.1,0,0,1-.11.1.1.1,0,0,1-.1-.11h0Z"></path>
        <path class="cls-20" d="M38.23,4.11a1.69,1.69,0,0,0-1-1.26,3.8,3.8,0,0,0-1.66-.37,3.78,3.78,0,0,1,1.69.3A1.83,1.83,0,0,1,38.37,4.1a.09.09,0,0,1-.06.09.08.08,0,0,1-.08-.06h0Z"></path>
        <path class="cls-19" d="M71.74,32.46s7-12.06,18.32,9.46C90.06,41.92,70.28,45.44,71.74,32.46Z"></path>
        <path class="cls-18" d="M71.73,32.53s9-1,18.32,9.45C90.05,42,70.28,45.51,71.73,32.53Z"></path>
        <path class="cls-20" d="M90.08,42a27.53,27.53,0,0,0-4.59-4.37A26.67,26.67,0,0,0,80,34.43,20.82,20.82,0,0,0,74,32.77a21.61,21.61,0,0,0-6.27.2h0a.26.26,0,0,1-.29-.22.25.25,0,0,1,.22-.29h0A21.87,21.87,0,0,1,74,32.39a21,21,0,0,1,6.12,1.8,26.78,26.78,0,0,1,5.43,3.34A27.64,27.64,0,0,1,90.08,42Z"></path>
        <path class="cls-20" d="M74.62,32.62a4.83,4.83,0,0,1,1,1.26,9.69,9.69,0,0,1,.71,1.4,17.64,17.64,0,0,1,.93,3,18.25,18.25,0,0,0-1.06-2.93A9.37,9.37,0,0,0,75.45,34a5,5,0,0,0-1-1.14h0a.15.15,0,0,1,0-.21.15.15,0,0,1,.21,0Z"></path>
        <path class="cls-20" d="M75.36,78.15A16.27,16.27,0,0,1,77,80.59a8.24,8.24,0,0,1,1,2.72,8.15,8.15,0,0,0-1.09-2.64,16.87,16.87,0,0,0-1.7-2.3h0a.16.16,0,1,1,.25-.21Z"></path>
        <path class="cls-20" d="M72.68,77.07a1.81,1.81,0,0,1,.69-.86,2.76,2.76,0,0,1,1-.39,5.38,5.38,0,0,1,2,.05,5.31,5.31,0,0,0-2,.13,2.32,2.32,0,0,0-.86.43,1.51,1.51,0,0,0-.51.73v0a.18.18,0,0,1-.35-.09Z"></path>
        <path class="cls-20" d="M78.21,79.7a.84.84,0,0,1,.42-.13H79a6.46,6.46,0,0,1,.75.11,6.26,6.26,0,0,0-.75,0l-.37,0a.9.9,0,0,0-.29.12l0,0a.11.11,0,0,1-.15,0,.12.12,0,0,1,0-.16Z"></path>
        <path class="cls-19" d="M77.77,130s13.61-3,5.36,19.91C83.13,149.87,67.21,137.63,77.77,130Z"></path>
        <path class="cls-18" d="M77.72,130s6.86,6,5.36,19.9C83.08,149.91,67.15,137.67,77.72,130Z"></path>
        <path class="cls-20" d="M83.09,149.94a28,28,0,0,0,.13-6.34,26.08,26.08,0,0,0-1.31-6.18,20.44,20.44,0,0,0-2.86-5.6,21.43,21.43,0,0,0-4.37-4.5h0a.27.27,0,0,1,0-.37.25.25,0,0,1,.36,0h0a21.81,21.81,0,0,1,4.36,4.69,20.8,20.8,0,0,1,2.8,5.74,26.66,26.66,0,0,1,1.19,6.25A28.09,28.09,0,0,1,83.09,149.94Z"></path>
        <path class="cls-20" d="M79.6,132.2a4.9,4.9,0,0,1-.25,1.59,9.28,9.28,0,0,1-.56,1.47A16.93,16.93,0,0,1,77.2,138a17.25,17.25,0,0,0,1.46-2.75,11.1,11.1,0,0,0,.48-1.48,5.13,5.13,0,0,0,.17-1.49v0a.14.14,0,0,1,.13-.16.15.15,0,0,1,.16.13Z"></path>
        <path class="cls-20" d="M82.4,138.11a17.15,17.15,0,0,1-.72,2.82,8.28,8.28,0,0,1-1.37,2.53,8.26,8.26,0,0,0,1.22-2.58,17,17,0,0,0,.55-2.81h0a.16.16,0,0,1,.32,0Z"></path>
        <path class="cls-20" d="M81.39,135.39a1.85,1.85,0,0,1,1.11-.06,2.55,2.55,0,0,1,1,.46,5.31,5.31,0,0,1,1.33,1.54,5.28,5.28,0,0,0-1.44-1.39,2.44,2.44,0,0,0-.89-.35,1.58,1.58,0,0,0-.88.12h0a.19.19,0,0,1-.25-.08.18.18,0,0,1,.08-.24Z"></path>
        <path class="cls-20" d="M83.18,141.25a.74.74,0,0,1,.37.23,3.5,3.5,0,0,1,.27.28c.16.21.3.42.43.63a6.64,6.64,0,0,0-.51-.55,2.17,2.17,0,0,0-.29-.24,1,1,0,0,0-.28-.14h0a.11.11,0,1,1,0-.21Z"></path>
        <path class="cls-19" d="M31.56,120.28s-10.17-9.53-14.79,14.35C16.77,134.63,36.71,132.27,31.56,120.28Z"></path>
        <path class="cls-18" d="M31.58,120.34S22.63,122,16.8,134.7C16.8,134.7,36.74,132.33,31.58,120.34Z"></path>
        <path class="cls-20" d="M16.77,134.72a28,28,0,0,1,3-5.59A27,27,0,0,1,24,124.37a21,21,0,0,1,5.33-3.51,22.35,22.35,0,0,1,6.16-1.79.27.27,0,0,1,.3.21.26.26,0,0,1-.21.3h0a21.59,21.59,0,0,0-6.06,1.63,20.63,20.63,0,0,0-5.32,3.34,26.65,26.65,0,0,0-4.29,4.65A27.55,27.55,0,0,0,16.77,134.72Z"></path>
        <path class="cls-20" d="M29.08,121.44a5.12,5.12,0,0,0-.63,1.38,9.68,9.68,0,0,0-.33,1.51,17,17,0,0,0-.17,3.11,17.22,17.22,0,0,1,0-3.13,10.26,10.26,0,0,1,.27-1.55,5.35,5.35,0,0,1,.6-1.5.17.17,0,0,1,.21,0,.14.14,0,0,1,0,.2h0Z"></path>
        <path class="cls-20" d="M23.71,125a16,16,0,0,0-1,2.69,8.07,8.07,0,0,0-.27,2.85,8,8,0,0,1,.11-2.88,16.85,16.85,0,0,1,.82-2.79.16.16,0,1,1,.31.11h0Z"></path>
        <path class="cls-20" d="M25.36,123.27a1.57,1.57,0,0,0-.7-.55,2.32,2.32,0,0,0-.95-.16,5.1,5.1,0,0,0-1.94.46,5.24,5.24,0,0,1,1.93-.64,2.49,2.49,0,0,1,1.05.09,1.76,1.76,0,0,1,.92.62.18.18,0,0,1-.29.22v0Z"></path>
        <path class="cls-20" d="M21,127.4a.69.69,0,0,0-.31,0,2.25,2.25,0,0,0-.36.06,6.09,6.09,0,0,0-.73.21c.23-.11.46-.23.7-.32l.37-.11a.81.81,0,0,1,.44,0,.09.09,0,0,1,.07.13.12.12,0,0,1-.13.08h0Z"></path>
        <path class="cls-19" d="M79,195.14s13.66,2.76-3.11,20.37C75.92,215.51,66.27,197.9,79,195.14Z"></path>
        <path class="cls-18" d="M79,195.15s3.87,8.24-3.11,20.38C75.85,215.53,66.2,197.91,79,195.15Z"></path>
        <path class="cls-20" d="M75.84,215.56a27,27,0,0,0,2.68-5.74,26.34,26.34,0,0,0,1.29-6.19,20.67,20.67,0,0,0-.36-6.28,21.72,21.72,0,0,0-2.19-5.88v0a.26.26,0,1,1,.47-.23h0a22.08,22.08,0,0,1,2.11,6.05,21,21,0,0,1,.24,6.38,26.42,26.42,0,0,1-1.43,6.21A27.42,27.42,0,0,1,75.84,215.56Z"></path>
        <path class="cls-20" d="M79.8,197.92a5,5,0,0,1-.87,1.36,10.67,10.67,0,0,1-1.11,1.12,17.06,17.06,0,0,1-2.54,1.83,17,17,0,0,0,2.44-1.94,9.39,9.39,0,0,0,1-1.15,5.25,5.25,0,0,0,.76-1.3v0a.14.14,0,0,1,.19-.09.13.13,0,0,1,.09.18Z"></path>
        <path class="cls-20" d="M80,204.45a16,16,0,0,1-1.79,2.29,8.14,8.14,0,0,1-2.28,1.77,8.23,8.23,0,0,0,2.16-1.87,17,17,0,0,0,1.63-2.35h0a.15.15,0,0,1,.22-.06.16.16,0,0,1,.06.22Z"></path>
        <path class="cls-20" d="M80.16,201.56a1.88,1.88,0,0,1,1,.39,2.59,2.59,0,0,1,.68.8,5.26,5.26,0,0,1,.6,1.95,5.19,5.19,0,0,0-.75-1.85,2.45,2.45,0,0,0-.68-.68,1.54,1.54,0,0,0-.86-.24h0a.19.19,0,0,1-.19-.17.19.19,0,0,1,.17-.2Z"></path>
        <path class="cls-20" d="M79.43,207.64a.84.84,0,0,1,.25.36c0,.12.09.25.13.37s.1.5.14.75a6,6,0,0,0-.25-.71,2.53,2.53,0,0,0-.16-.33.89.89,0,0,0-.2-.24h0a.12.12,0,0,1,0-.15.12.12,0,0,1,.15-.05Z"></path>
        <path class="cls-19" d="M90.6,194.46s12.26-6.61,10.63,17.66C101.23,212.12,82.55,204.74,90.6,194.46Z"></path>
        <path class="cls-18" d="M90.56,194.51s8.24,3.87,10.63,17.66C101.19,212.17,82.51,204.79,90.56,194.51Z"></path>
        <path class="cls-20" d="M101.21,212.2a27.72,27.72,0,0,0-1.62-6.13,26.25,26.25,0,0,0-3-5.59,20.6,20.6,0,0,0-4.3-4.59,21.11,21.11,0,0,0-5.43-3.12h0a.25.25,0,0,1-.14-.34.27.27,0,0,1,.34-.14h0a21.73,21.73,0,0,1,5.49,3.3,20.94,20.94,0,0,1,4.26,4.75A26,26,0,0,1,99.71,206,27.93,27.93,0,0,1,101.21,212.2Z"></path>
        <path class="cls-20" d="M93,196.11a5.14,5.14,0,0,1,.2,1.59,10.18,10.18,0,0,1-.13,1.57,17.64,17.64,0,0,1-.79,3,16.81,16.81,0,0,0,.64-3.06,9.92,9.92,0,0,0,.06-1.54,4.85,4.85,0,0,0-.25-1.49v0a.15.15,0,1,1,.28-.1Z"></path>
        <path class="cls-20" d="M97.29,201a16.65,16.65,0,0,1,.08,2.91,8,8,0,0,1-.62,2.82,8,8,0,0,0,.46-2.82,16.87,16.87,0,0,0-.24-2.85h0a.16.16,0,0,1,.13-.19.18.18,0,0,1,.19.13Z"></path>
        <path class="cls-20" d="M95.57,198.68a1.86,1.86,0,0,1,1.05-.37,2.55,2.55,0,0,1,1,.19,5.31,5.31,0,0,1,1.71,1.11,5.18,5.18,0,0,0-1.76-.94,2.42,2.42,0,0,0-1-.09,1.63,1.63,0,0,0-.81.36h0a.18.18,0,1,1-.25-.26Z"></path>
        <path class="cls-20" d="M98.9,203.82a.88.88,0,0,1,.43.11l.33.21a5.47,5.47,0,0,1,.59.49,6.31,6.31,0,0,0-.65-.4,3.49,3.49,0,0,0-.34-.15A1,1,0,0,0,99,204h0a.1.1,0,0,1-.13-.08.11.11,0,0,1,.08-.13Z"></path>
        <path class="cls-19" d="M19.16,75S12.4,62.79.68,84.1C.68,84.1,20.38,88,19.16,75Z"></path>
        <path class="cls-18" d="M19.16,75.05s-9-1.2-18.48,9.12C.68,84.17,20.39,88,19.16,75.05Z"></path>
        <path class="cls-20" d="M.65,84.19a27.71,27.71,0,0,1,4.59-4.4,27.24,27.24,0,0,1,5.49-3.24,21.13,21.13,0,0,1,6.15-1.69,22.22,22.22,0,0,1,6.41.18.26.26,0,0,1-.08.52h0a21.28,21.28,0,0,0-6.27-.3,20.82,20.82,0,0,0-6.09,1.54A26.72,26.72,0,0,0,5.32,79.9,27.13,27.13,0,0,0,.65,84.19Z"></path>
        <path class="cls-20" d="M16.44,75.33a5.18,5.18,0,0,0-1,1.11,10.42,10.42,0,0,0-.78,1.34,17.63,17.63,0,0,0-1.11,2.91,16.76,16.76,0,0,1,1-3,10.21,10.21,0,0,1,.73-1.39,5.23,5.23,0,0,1,1-1.24.15.15,0,1,1,.19.23h0Z"></path>
        <path class="cls-20" d="M10.23,77.1a16.06,16.06,0,0,0-1.74,2.27A8.16,8.16,0,0,0,7.35,82a8,8,0,0,1,1-2.7A16.25,16.25,0,0,1,10,76.88a.16.16,0,0,1,.23,0,.18.18,0,0,1,0,.23h0Z"></path>
        <path class="cls-20" d="M12.34,75.93a1.49,1.49,0,0,0-.5-.74,2.31,2.31,0,0,0-.85-.45,5.31,5.31,0,0,0-2-.16,5.19,5.19,0,0,1,2,0,2.56,2.56,0,0,1,1,.4,1.86,1.86,0,0,1,.68.87.18.18,0,0,1-.11.24.18.18,0,0,1-.23-.12h0Z"></path>
        <path class="cls-19" d="M30.23,112.64s3.06-13.59-19.87-5.46C10.36,107.18,22.51,123.17,30.23,112.64Z"></path>
        <path class="cls-18" d="M30.19,112.7s-5.94-6.89-19.87-5.47C10.32,107.23,22.47,123.22,30.19,112.7Z"></path>
        <path class="cls-20" d="M10.28,107.22a28.19,28.19,0,0,1,6.36-.23,26.72,26.72,0,0,1,6.25,1.23A21.32,21.32,0,0,1,28.61,111a21.86,21.86,0,0,1,4.66,4.4.26.26,0,1,1-.39.33h0l0,0a21.63,21.63,0,0,0-4.47-4.39,20.78,20.78,0,0,0-5.59-2.9,26.53,26.53,0,0,0-6.18-1.34A28,28,0,0,0,10.28,107.22Z"></path>
        <path class="cls-20" d="M28,111.1a4.89,4.89,0,0,0-1.5.16,9.66,9.66,0,0,0-1.47.47,17.74,17.74,0,0,0-2.77,1.44,16.62,16.62,0,0,1,2.71-1.57,11,11,0,0,1,1.48-.56,4.9,4.9,0,0,1,1.59-.23.15.15,0,1,1,0,.29h0Z"></path>
        <path class="cls-20" d="M22.15,108.29a17,17,0,0,0-2.81.54A8.07,8.07,0,0,0,16.75,110a8.09,8.09,0,0,1,2.54-1.36,16.06,16.06,0,0,1,2.83-.71.16.16,0,0,1,.18.14.15.15,0,0,1-.13.18h0Z"></path>
        <path class="cls-20" d="M24.51,108.82a1.58,1.58,0,0,0,.12-.88,2.36,2.36,0,0,0-.34-.9,5.25,5.25,0,0,0-1.38-1.44,5.28,5.28,0,0,1,1.53,1.34,2.71,2.71,0,0,1,.46,1,1.9,1.9,0,0,1-.07,1.1.18.18,0,0,1-.24.1.17.17,0,0,1-.1-.23v0Z"></path>
        <path class="cls-20" d="M18.76,107.18a.83.83,0,0,0-.13-.28,2.09,2.09,0,0,0-.24-.28,5.38,5.38,0,0,0-.55-.52,6.5,6.5,0,0,1,.63.44,2.27,2.27,0,0,1,.28.26.82.82,0,0,1,.23.38.11.11,0,0,1-.08.13.11.11,0,0,1-.13-.08v0Z"></path>
        <path class="cls-19" d="M17.56,134.27S9.69,122.78,0,145.1C0,145.1,20,147.1,17.56,134.27Z"></path>
        <path class="cls-18" d="M17.57,134.34S8.48,134,0,145.16C0,145.16,20,147.17,17.57,134.34Z"></path>
        <path class="cls-20" d="M0,145.19a27.09,27.09,0,0,1,4.16-4.78,26.48,26.48,0,0,1,5.16-3.71,20.85,20.85,0,0,1,6-2.24,22,22,0,0,1,6.38-.41.25.25,0,0,1,.24.27.26.26,0,0,1-.27.25h0a21.83,21.83,0,0,0-6.25.28,20.46,20.46,0,0,0-5.92,2.08,27.09,27.09,0,0,0-5.19,3.58A27.43,27.43,0,0,0,0,145.19Z"></path>
        <path class="cls-20" d="M14.89,134.88a5,5,0,0,0-.91,1.2,10,10,0,0,0-.65,1.41,17.35,17.35,0,0,0-.84,3,17.74,17.74,0,0,1,.7-3.05,9.74,9.74,0,0,1,.6-1.46,5,5,0,0,1,.91-1.33.14.14,0,0,1,.21,0,.17.17,0,0,1,0,.21h0Z"></path>
        <path class="cls-20" d="M8.8,137.17a15.79,15.79,0,0,0-1.49,2.46,8.23,8.23,0,0,0-.84,2.74,8.18,8.18,0,0,1,.77-2.77,16.82,16.82,0,0,1,1.44-2.51.07.07,0,0,1,.1,0,.07.07,0,0,1,0,.1Z"></path>
        <path class="cls-20" d="M10.86,135.86a1.59,1.59,0,0,0-.56-.69,2.32,2.32,0,0,0-.89-.36,5.18,5.18,0,0,0-2,0,5.16,5.16,0,0,1,2-.21,2.59,2.59,0,0,1,1,.31,1.83,1.83,0,0,1,.77.81.18.18,0,0,1-.09.24.18.18,0,0,1-.24-.09v0Z"></path>
        <path class="cls-20" d="M5.75,139a.82.82,0,0,0-.3-.09,2.23,2.23,0,0,0-.37,0,6.3,6.3,0,0,0-.75,0,6.08,6.08,0,0,1,.74-.16l.39,0a.81.81,0,0,1,.43.09.11.11,0,0,1,0,.15.11.11,0,0,1-.15,0h0Z"></path>
        <path class="cls-19" d="M79.75,96.63s1.88-13.8,20.54,1.8C100.29,98.43,83.33,109.19,79.75,96.63Z"></path>
        <path class="cls-18" d="M79.77,96.7s8-4.39,20.53,1.8C100.3,98.5,83.34,109.25,79.77,96.7Z"></path>
        <path class="cls-20" d="M100.34,98.5a27,27,0,0,0-5.91-2.3,26.5,26.5,0,0,0-6.26-.9,20.87,20.87,0,0,0-6.24.77,21.46,21.46,0,0,0-5.72,2.56h0a.27.27,0,0,1-.36-.09.26.26,0,0,1,.1-.36h0a22,22,0,0,1,5.9-2.49A21.26,21.26,0,0,1,88.18,95a26.75,26.75,0,0,1,6.29,1A27.42,27.42,0,0,1,100.34,98.5Z"></path>
        <path class="cls-20" d="M82.48,95.68a5.21,5.21,0,0,1,1.41.78,9,9,0,0,1,1.19,1,17.57,17.57,0,0,1,2,2.41A17.58,17.58,0,0,0,85,97.6a10.3,10.3,0,0,0-1.22-1A5,5,0,0,0,82.41,96h0a.16.16,0,0,1-.11-.19.16.16,0,0,1,.18-.1Z"></path>
        <path class="cls-20" d="M89,95.08a17.23,17.23,0,0,1,2.4,1.64,8.4,8.4,0,0,1,1.91,2.17,8,8,0,0,0-2-2,17,17,0,0,0-2.45-1.48h0a.17.17,0,0,1,.14-.3Z"></path>
        <path class="cls-20" d="M86.09,95.09A1.89,1.89,0,0,1,86.41,94a2.64,2.64,0,0,1,.76-.73,5.3,5.3,0,0,1,1.9-.72,5.23,5.23,0,0,0-1.79.87,2.39,2.39,0,0,0-.63.72,1.58,1.58,0,0,0-.2.87v0a.19.19,0,0,1-.16.21.2.2,0,0,1-.21-.16Z"></path>
        <path class="cls-20" d="M92.21,95.43a.78.78,0,0,1,.34-.28,2.67,2.67,0,0,1,.36-.14,5,5,0,0,1,.74-.19,4.7,4.7,0,0,0-.7.29,2,2,0,0,0-.32.18.75.75,0,0,0-.22.22v0a.11.11,0,0,1-.14.06.1.1,0,0,1-.06-.14Z"></path>
        <path class="cls-19" d="M30.51,73.33S39.92,63.05,16,58.71C16,58.71,18.58,78.62,30.51,73.33Z"></path>
        <path class="cls-18" d="M30.45,73.36s-1.74-8.94-14.53-14.63C15.92,58.73,18.51,78.65,30.45,73.36Z"></path>
        <path class="cls-20" d="M15.89,58.71a27.26,27.26,0,0,1,5.63,3,26.54,26.54,0,0,1,4.81,4.17,20.86,20.86,0,0,1,3.57,5.29,21.85,21.85,0,0,1,1.86,6.13.26.26,0,1,1-.51.1h0v0a21.44,21.44,0,0,0-1.71-6A20.34,20.34,0,0,0,26.14,66a27,27,0,0,0-4.69-4.24A28.13,28.13,0,0,0,15.89,58.71Z"></path>
        <path class="cls-20" d="M29.31,70.86a5.15,5.15,0,0,0-1.37-.61,10,10,0,0,0-1.52-.31,16.24,16.24,0,0,0-3.12-.13,17.33,17.33,0,0,1,3.14,0A9.1,9.1,0,0,1,28,70a4.79,4.79,0,0,1,1.5.59.15.15,0,0,1-.15.25h0Z"></path>
        <path class="cls-20" d="M25.66,65.54A16.05,16.05,0,0,0,23,64.61a8.27,8.27,0,0,0-2.85-.25,8.26,8.26,0,0,1,2.89.09,16.46,16.46,0,0,1,2.8.79.15.15,0,0,1,.09.21.16.16,0,0,1-.21.09h0Z"></path>
        <path class="cls-20" d="M27.44,67.16a1.43,1.43,0,0,0,.54-.7,2.32,2.32,0,0,0,.16-.95,5.32,5.32,0,0,0-.48-1.94,5.46,5.46,0,0,1,.66,1.93,2.51,2.51,0,0,1-.08,1,1.78,1.78,0,0,1-.61.92.18.18,0,0,1-.25,0,.17.17,0,0,1,0-.25h0Z"></path>
        <path class="cls-20" d="M23.27,62.89a.73.73,0,0,0,0-.31,2.38,2.38,0,0,0-.06-.37c-.06-.24-.14-.48-.22-.72a7.32,7.32,0,0,1,.33.69c0,.12.08.24.11.37a.81.81,0,0,1,0,.44.1.1,0,0,1-.13.07.1.1,0,0,1-.08-.13v0Z"></path>
        <path class="cls-19" d="M83.37,187.81s-5-13,18.87-8.29C102.24,179.52,92.54,197.1,83.37,187.81Z"></path>
        <path class="cls-18" d="M83.42,187.86s4.88-7.68,18.87-8.29C102.29,179.57,92.59,197.15,83.42,187.86Z"></path>
        <path class="cls-20" d="M102.32,179.55a28.4,28.4,0,0,0-6.29.82,26.6,26.6,0,0,0-5.92,2.23,20.59,20.59,0,0,0-5.1,3.68,21.71,21.71,0,0,0-3.79,5v0a.26.26,0,0,1-.35.09.24.24,0,0,1-.09-.35h0a21.71,21.71,0,0,1,4-5A20.92,20.92,0,0,1,90,182.37a26.29,26.29,0,0,1,6-2.12A27.52,27.52,0,0,1,102.32,179.55Z"></path>
        <path class="cls-20" d="M85.31,185.67a5.11,5.11,0,0,1,1.61,0,9.19,9.19,0,0,1,1.54.33,17.83,17.83,0,0,1,2.91,1.16,17.45,17.45,0,0,0-3-1,10,10,0,0,0-1.53-.25,4.68,4.68,0,0,0-1.5.06h0a.15.15,0,1,1-.07-.29Z"></path>
        <path class="cls-20" d="M90.72,182a16.48,16.48,0,0,1,2.9.29,8.09,8.09,0,0,1,2.71,1,8,8,0,0,0-2.74-.82,15.22,15.22,0,0,0-2.86-.12h0a.17.17,0,0,1-.17-.16.16.16,0,0,1,.15-.17Z"></path>
        <path class="cls-20" d="M88.19,183.42a1.86,1.86,0,0,1-.23-1.09,2.6,2.6,0,0,1,.31-1,5.34,5.34,0,0,1,1.32-1.55,5.14,5.14,0,0,0-1.15,1.63,2.38,2.38,0,0,0-.21.94,1.49,1.49,0,0,0,.25.85v0a.17.17,0,0,1,0,.25.18.18,0,0,1-.25,0Z"></path>
        <path class="cls-20" d="M93.71,180.77a.86.86,0,0,1,.17-.41l.25-.3a5.38,5.38,0,0,1,.55-.52,5.29,5.29,0,0,0-.47.59,2.07,2.07,0,0,0-.19.32.67.67,0,0,0-.09.29v0a.11.11,0,0,1-.1.12.12.12,0,0,1-.12-.1Z"></path>
        <path class="cls-19" d="M85.91,122.68s13.16,4.56,7.67-19.13C93.58,103.55,76.32,113.82,85.91,122.68Z"></path>
        <path class="cls-18" d="M85.86,122.63s7.51-5.13,7.67-19.13C93.53,103.5,76.27,113.77,85.86,122.63Z"></path>
        <path class="cls-20" d="M93.54,103.47a27.42,27.42,0,0,1-.49,6.33,26.06,26.06,0,0,1-1.92,6.08,21.13,21.13,0,0,1-3.45,5.37,22.1,22.1,0,0,1-4.89,4.14.26.26,0,0,1-.36-.08.25.25,0,0,1,.07-.35h0a21.58,21.58,0,0,0,4.87-4,21,21,0,0,0,3.51-5.22,26.78,26.78,0,0,0,2-6A27.29,27.29,0,0,0,93.54,103.47Z"></path>
        <path class="cls-20" d="M87.7,120.6a5,5,0,0,0,0-1.5,10,10,0,0,0-.31-1.52,17.09,17.09,0,0,0-1.11-2.91,17.07,17.07,0,0,1,1.25,2.87,9.52,9.52,0,0,1,.39,1.53,5.32,5.32,0,0,1,.06,1.6.16.16,0,0,1-.17.13.16.16,0,0,1-.13-.17h0Z"></path>
        <path class="cls-20" d="M91.14,115.14a16,16,0,0,0-.22-2.85,8,8,0,0,0-.91-2.72,8.07,8.07,0,0,1,1.07,2.69,16.22,16.22,0,0,1,.38,2.88.16.16,0,0,1-.15.17.17.17,0,0,1-.17-.16h0Z"></path>
        <path class="cls-20" d="M90.35,117.42a1.53,1.53,0,0,0,.86.22,2.42,2.42,0,0,0,.94-.24,5.13,5.13,0,0,0,1.58-1.21,5.35,5.35,0,0,1-1.5,1.38,2.64,2.64,0,0,1-1,.34,1.85,1.85,0,0,1-1.09-.19.18.18,0,1,1,.18-.32h0Z"></path>
        <path class="cls-20" d="M92.63,111.9a.82.82,0,0,0,.29-.11,1.49,1.49,0,0,0,.31-.2,6.68,6.68,0,0,0,.57-.49,5.37,5.37,0,0,1-.5.57l-.29.26a.83.83,0,0,1-.4.18.1.1,0,0,1-.12-.09.11.11,0,0,1,.09-.13h0Z"></path>
        <path class="cls-19" d="M89.92,125.35s9-10.64,16.36,12.54C106.28,137.89,86.19,137.86,89.92,125.35Z"></path>
        <path class="cls-18" d="M89.9,125.42S99,126,106.26,138C106.26,138,86.17,137.93,89.9,125.42Z"></path>
        <path class="cls-20" d="M106.29,138a28.11,28.11,0,0,0-3.75-5.11,26.54,26.54,0,0,0-4.8-4.12,20.73,20.73,0,0,0-5.68-2.7,21.75,21.75,0,0,0-6.2-.92h0a.25.25,0,0,1-.24-.27.26.26,0,0,1,.26-.25h0a21.81,21.81,0,0,1,6.32,1.07,20.8,20.8,0,0,1,5.71,2.86,27,27,0,0,1,4.75,4.24A28.45,28.45,0,0,1,106.29,138Z"></path>
        <path class="cls-20" d="M92.73,126a4.87,4.87,0,0,1,.77,1.41,10.06,10.06,0,0,1,.45,1.51,17.17,17.17,0,0,1,.38,3.11,17.58,17.58,0,0,0-.52-3.07,10.64,10.64,0,0,0-.51-1.47,5.22,5.22,0,0,0-.78-1.29h0a.14.14,0,0,1,0-.21.15.15,0,0,1,.21,0Z"></path>
        <path class="cls-20" d="M98.55,129a17,17,0,0,1,1.14,2.68,8.14,8.14,0,0,1,.45,2.85,8.18,8.18,0,0,0-.61-2.8,16,16,0,0,0-1.26-2.56h0a.15.15,0,0,1,0-.22.16.16,0,0,1,.22.05Z"></path>
        <path class="cls-20" d="M96.1,127.46a1.79,1.79,0,0,1,.83-.72,2.51,2.51,0,0,1,1-.21,5.21,5.21,0,0,1,2,.41,5.18,5.18,0,0,0-2-.23,2.34,2.34,0,0,0-.92.27,1.53,1.53,0,0,0-.63.63v0a.19.19,0,0,1-.24.09.18.18,0,0,1-.09-.25Z"></path>
        <path class="cls-20" d="M101.07,131a.77.77,0,0,1,.44,0,2.32,2.32,0,0,1,.38.07,6.18,6.18,0,0,1,.73.23c-.25-.05-.5-.1-.74-.13a2.32,2.32,0,0,0-.37,0,.77.77,0,0,0-.31.06h0a.1.1,0,0,1-.15,0,.12.12,0,0,1,0-.16Z"></path>
        <path class="cls-19" d="M89,168.32s-.13-13.93,20.58-1.18C109.6,167.14,94.36,180.23,89,168.32Z"></path>
        <path class="cls-18" d="M89.05,168.38s7.26-5.49,20.57-1.17C109.62,167.21,94.39,180.29,89.05,168.38Z"></path>
        <path class="cls-20" d="M109.66,167.21a27.33,27.33,0,0,0-6.18-1.43,26.2,26.2,0,0,0-6.32,0,20.88,20.88,0,0,0-6.07,1.66,21.82,21.82,0,0,0-5.29,3.35l0,0a.25.25,0,0,1-.36,0,.26.26,0,0,1,0-.37h0a22.1,22.1,0,0,1,5.48-3.32,21.1,21.1,0,0,1,6.19-1.56,26.62,26.62,0,0,1,6.37.12A27.7,27.7,0,0,1,109.66,167.21Z"></path>
        <path class="cls-20" d="M91.58,167a5.35,5.35,0,0,1,1.51.56,9.64,9.64,0,0,1,1.32.86,16.54,16.54,0,0,1,2.32,2.1,17.54,17.54,0,0,0-2.4-2,10.62,10.62,0,0,0-1.34-.78,5.21,5.21,0,0,0-1.43-.47h0a.16.16,0,0,1-.13-.17.14.14,0,0,1,.16-.12Z"></path>
        <path class="cls-20" d="M97.94,165.45a16.66,16.66,0,0,1,2.61,1.29,8.21,8.21,0,0,1,2.2,1.86,8,8,0,0,0-2.28-1.72,16.46,16.46,0,0,0-2.64-1.12h0a.17.17,0,0,1-.11-.2.16.16,0,0,1,.21-.11Z"></path>
        <path class="cls-20" d="M95.07,165.88a1.82,1.82,0,0,1,.17-1.09,2.5,2.5,0,0,1,.64-.83,5.3,5.3,0,0,1,1.78-1A5.08,5.08,0,0,0,96,164.09a2.13,2.13,0,0,0-.52.81,1.5,1.5,0,0,0-.07.88v0a.19.19,0,0,1-.13.23.17.17,0,0,1-.22-.13Z"></path>
        <path class="cls-20" d="M101.17,165.34a.82.82,0,0,1,.3-.33l.34-.19a6.14,6.14,0,0,1,.7-.3c-.22.12-.44.25-.65.39l-.29.23a.86.86,0,0,0-.19.25v0a.11.11,0,0,1-.13.08.11.11,0,0,1-.08-.13Z"></path>
        <path class="cls-19" d="M64.39,187.1a36.62,36.62,0,0,1,4.09-1.66c2.82-1.15,6.12-4.93,5.15-9.55a15.16,15.16,0,0,1-.25-3.89c.11-1.79,0-6.53-.16-8.83a19.65,19.65,0,0,1,.34-5.7,11,11,0,0,0-1.83-7.42c-1.41-1.91-1.16-4.17-1.66-5.48s-.31-.53-.85-1.29c-.15.14-.1,0-.25,0,.3.89.63.73.4,2.1a6.52,6.52,0,0,1-2.15,4.27c-1.69,1.61-3.33,5.62-2.77,8.31s.14,3.81-.52,6.1-1.17,4.39-.17,6.58,2,2.17,1,4.83a18,18,0,0,0-.7,9.36A2.76,2.76,0,0,1,64.39,187.1Z"></path>
        <path class="cls-21" d="M65.38,156.15c.06,2.48,1.4,5.18,4.11,4.76s3.43-3.48,3.4-5.75-.85-4.79-3.55-4.71S65.32,153.68,65.38,156.15Z"></path>
        <path class="cls-22" d="M65.43,157.62c.1,2.46,1.54,5.13,4.22,4.64s3.37-3.49,3.28-5.78-1-4.73-3.65-4.61S65.33,155.16,65.43,157.62Z"></path>
        <path class="cls-21" d="M64.43,167.5c.17,2.58,2.31,5.66,5.07,5.46s3.37-3.77,3.18-6.09-1.43-4.76-4.17-4.72S64.25,164.93,64.43,167.5Z"></path>
        <path class="cls-22" d="M64.64,168.62c.26,2.33,2.33,4.88,4.78,4.71s3.15-3.19,2.91-5.32-1.64-4.09-4-4A4,4,0,0,0,64.64,168.62Z"></path>
        <path class="cls-21" d="M65.2,176.84c-.92,2.13-1.3,5.46,1,6.73s4.86-.38,6-2.56.73-5.5-1.62-6.68S66.11,174.71,65.2,176.84Z"></path>
        <path class="cls-22" d="M65.34,178c-.94,2-1.42,5.29.79,6.5s4.68-.45,5.75-2.53.89-5.29-1.39-6.45S66.27,176,65.34,178Z"></path>
        <path class="cls-19" d="M75.32,169.49c-1.55-2.4-.8-5.49-.76-6.65s1-2.24-1-5.38-1.09-6.46-.39-8.2a6.36,6.36,0,0,0,.14-4.22,8.38,8.38,0,0,0-.11-1.22c0-.1-.05-.19-.07-.29l.33.25c.8.66.32,2.51,3.88,4.3a8.57,8.57,0,0,1,4.77,6.37c.38,1.75-.08,1.69,1.33,5.51a27.22,27.22,0,0,1,1.46,9.57,31.34,31.34,0,0,0,.29,4.18c1,6.87-2.87,9.76-4.75,10.6a23.13,23.13,0,0,0-3.35,1.88,3,3,0,0,0-.76-2.1,13.25,13.25,0,0,1-.12-9.75C77.18,171.88,76.88,171.89,75.32,169.49Z"></path>
        <path class="cls-21" d="M73.74,155.56c1.1,2.61,3.45,4.07,5.55,3.19s2.44-3.81,1.35-6.43-3.22-3.92-5.32-3S72.65,152.94,73.74,155.56Z"></path>
        <path class="cls-22" d="M74.27,156.8c1.1,2.61,3.45,4.06,5.55,3.18s2.44-3.81,1.35-6.42-3.22-3.93-5.32-3.05S73.17,154.18,74.27,156.8Z"></path>
        <path class="cls-21" d="M75.57,166.09c.67,3.07,3.33,5.48,5.47,5s3.39-4.16,2.72-7.23-3-4.37-5.15-3.9S74.89,163,75.57,166.09Z"></path>
        <path class="cls-22" d="M75.93,167.17c.59,2.68,3,4.76,5,4.33s3.2-3.69,2.61-6.38a4,4,0,0,0-4.74-3.35C76.83,162.2,75.34,164.48,75.93,167.17Z"></path>
        <path class="cls-21" d="M76.55,175.81c-1.08,2.89-.28,6.11,1.64,6.83s4.63-.52,5.71-3.41.12-6.33-1.8-7S77.63,172.92,76.55,175.81Z"></path>
        <path class="cls-22" d="M76.72,177c-1,2.78-.29,5.88,1.53,6.56s4.4-.53,5.44-3.31.14-6.09-1.68-6.77S77.76,174.19,76.72,177Z"></path>
        <path class="cls-19" d="M89.08,185.72a39.72,39.72,0,0,1,3.2-3c2.27-2.13,3.84-7.18,2-11.48a17.8,17.8,0,0,1-1-4.21A38.27,38.27,0,0,0,90,157.69a24.72,24.72,0,0,1-2.37-6.29,10,10,0,0,0-5.14-6.13c-2.36-1-3.22-2.69-4.1-3.84a2.92,2.92,0,0,0-1.18-1.09.76.76,0,0,1-.29.36c.64.64.83.5,1.18,1.78a5.93,5.93,0,0,1,.11,4.39A10.31,10.31,0,0,0,79.3,155a14.23,14.23,0,0,1,2.39,6.85c.37,2.61.59,5,2.17,7.11s2.15,2,1.76,5a15.08,15.08,0,0,0,2.31,9.72A2.87,2.87,0,0,1,89.08,185.72Z"></path>
        <path class="cls-21" d="M79.32,152.84c1,2.17,3.58,5.09,6.08,3.61s1.54-5,.53-7.18-3.06-3.87-5.44-2.66S78.3,150.67,79.32,152.84Z"></path>
        <path class="cls-22" d="M80,154.24c1,2.22,3.68,5.24,6.2,3.66s1.39-5.17.37-7.33-3-4-5.49-2.78S79,152,80,154.24Z"></path>
        <path class="cls-21" d="M83.51,165.45c1,2.32,3.49,5.23,6.2,4s2.36-5.3,1.37-7.62-3.21-4.7-6-3.69S82.54,163.13,83.51,165.45Z"></path>
        <path class="cls-22" d="M84.08,166.52c.87,2.13,3.22,4.47,5.63,3.4s2.32-4.59,1.44-6.72-3-3.86-5.39-2.91S83.22,164.38,84.08,166.52Z"></path>
        <path class="cls-21" d="M86.34,175.29c-.34,2.35.39,6,3.11,6.46s4.38-2.21,4.71-4.58-.46-6-3.17-6.54S86.68,172.94,86.34,175.29Z"></path>
        <path class="cls-22" d="M86.76,176.43c-.31,2.23.36,5.79,2.95,6.2s4.16-2.17,4.46-4.43-.42-5.79-3-6.28S87.07,174.21,86.76,176.43Z"></path>
        <path class="cls-20" d="M78.6,142.2c-.3.07-.29,0-.37-.13l-.2-.24c-.14-.16-.28-.32-.43-.47a12.62,12.62,0,0,0-.93-.86,10.26,10.26,0,0,0-2.13-1.33,9,9,0,0,0-4.84-.74A12.93,12.93,0,0,0,65,140.11q-1.07.69-2.1,1.41L61,143.16l0,0a.6.6,0,1,1-.77-.91h0l2-1.68c.73-.51,1.49-1,2.24-1.46a13.89,13.89,0,0,1,5.11-1.65,9.53,9.53,0,0,1,5.25,1.05A11.12,11.12,0,0,1,77,140.07c.32.31.64.61.93,1,.15.16.29.34.43.51l.2.27C78.65,141.89,78.78,142,78.6,142.2Z"></path>
        <path class="cls-20" d="M73.8,145.11c-.3,0-.26-.11-.3-.19l-.1-.25-.21-.49c-.15-.33-.31-.65-.49-1a9.55,9.55,0,0,0-1.22-1.74A5.39,5.39,0,0,0,68,139.54a6.59,6.59,0,0,0-3.86,1,17.37,17.37,0,0,0-3.34,2.62h0a.6.6,0,0,1-.84,0,.59.59,0,0,1,0-.84h0a18.34,18.34,0,0,1,3.62-2.72,7.49,7.49,0,0,1,4.51-1A6,6,0,0,1,72,141,10.59,10.59,0,0,1,73.21,143c.16.33.31.68.45,1l.19.53.08.27C74,144.87,74.05,144.94,73.8,145.11Z"></path>
        <path class="cls-20" d="M69.79,144.44c-.29.06-.25,0-.28-.07l-.08-.15-.17-.31c-.13-.19-.24-.4-.38-.58a7.46,7.46,0,0,0-.86-1.07,4.72,4.72,0,0,0-2.19-1.37,3.25,3.25,0,0,0-2.41.37,8.13,8.13,0,0,0-1.1.7l-1,.91,0,0a.59.59,0,0,1-.8-.88h0l1.14-1a9.84,9.84,0,0,1,1.33-.78,4.31,4.31,0,0,1,3.14-.27,5.2,5.2,0,0,1,2.46,1.81,7.74,7.74,0,0,1,.82,1.23c.13.21.23.43.34.65l.15.33.07.18C69.94,144.24,70,144.28,69.79,144.44Z"></path>
        <path class="cls-19" d="M57.23,94.79a29.61,29.61,0,0,0-3.16-1.28,6.76,6.76,0,0,1-4-7.36,11.93,11.93,0,0,0,.19-3c-.08-1.38,0-5,.13-6.82a15.26,15.26,0,0,0-.27-4.4,8.54,8.54,0,0,1,1.42-5.72c1.08-1.47.89-3.22,1.28-4.22s.24-.42.65-1c.12.11.08,0,.19,0-.23.69-.48.57-.31,1.62A5,5,0,0,0,55,65.93a8.33,8.33,0,0,1,2.14,6.42,7.8,7.8,0,0,0,.41,4.7c.51,1.78.9,3.39.12,5.08S56.19,83.8,57,85.85a13.9,13.9,0,0,1,.54,7.22A2.09,2.09,0,0,0,57.23,94.79Z"></path>
        <path class="cls-21" d="M56.46,70.92c0,1.91-1.08,4-3.16,3.67s-2.65-2.68-2.63-4.44.65-3.69,2.74-3.63S56.51,69,56.46,70.92Z"></path>
        <path class="cls-22" d="M56.42,72.05c-.07,1.9-1.19,4-3.25,3.58s-2.6-2.69-2.53-4.46.73-3.65,2.82-3.55S56.5,70.15,56.42,72.05Z"></path>
        <path class="cls-21" d="M57.2,79.68c-.13,2-1.79,4.36-3.91,4.21S50.68,81,50.83,79.18s1.1-3.66,3.22-3.63S57.33,77.69,57.2,79.68Z"></path>
        <path class="cls-22" d="M57,80.54c-.19,1.79-1.79,3.76-3.69,3.63s-2.42-2.46-2.24-4.1A3.16,3.16,0,0,1,54.22,77,3.07,3.07,0,0,1,57,80.54Z"></path>
        <path class="cls-21" d="M56.61,86.88c.7,1.64,1,4.21-.79,5.19s-3.75-.3-4.6-2-.56-4.23,1.25-5.15S55.9,85.23,56.61,86.88Z"></path>
        <path class="cls-22" d="M56.5,87.74c.72,1.52,1.09,4.08-.62,5s-3.6-.35-4.43-2-.69-4.08,1.07-5S55.78,86.22,56.5,87.74Z"></path>
        <path class="cls-19" d="M48.79,81.21c1.2-1.85.63-4.24.59-5.13s-.77-1.73.79-4.15a6.81,6.81,0,0,0,.3-6.33,4.88,4.88,0,0,1-.11-3.25,6.11,6.11,0,0,1,.09-1,2.25,2.25,0,0,1,0-.22l-.25.2c-.62.5-.25,1.93-3,3.31a6.59,6.59,0,0,0-3.67,4.91,15.28,15.28,0,0,1-1,4.26,21.05,21.05,0,0,0-1.13,7.38,23.23,23.23,0,0,1-.22,3.22c-.75,5.3,2.21,7.53,3.66,8.19a17.51,17.51,0,0,1,2.59,1.45A2.35,2.35,0,0,1,48,92.47a10.25,10.25,0,0,0,.1-7.52C47.36,83.06,47.59,83.06,48.79,81.21Z"></path>
        <path class="cls-21" d="M50,70.46c-.84,2-2.66,3.14-4.28,2.46s-1.88-2.94-1-5,2.49-3,4.11-2.35S50.86,68.44,50,70.46Z"></path>
        <path class="cls-22" d="M49.61,71.42c-.85,2-2.66,3.13-4.28,2.46s-1.89-2.94-1-5,2.48-3,4.1-2.35S50.45,69.4,49.61,71.42Z"></path>
        <path class="cls-21" d="M48.61,78.58C48.09,81,46,82.81,44.38,82.45s-2.61-3.21-2.1-5.58,2.32-3.37,4-3S49.12,76.21,48.61,78.58Z"></path>
        <path class="cls-22" d="M48.32,79.42c-.45,2.07-2.33,3.67-3.88,3.34s-2.46-2.85-2-4.92a3.05,3.05,0,0,1,3.66-2.59A3.35,3.35,0,0,1,48.32,79.42Z"></path>
        <path class="cls-21" d="M47.85,86.08c.83,2.23.21,4.72-1.27,5.28S43,91,42.18,88.73s-.1-4.89,1.38-5.45S47,83.86,47.85,86.08Z"></path>
        <path class="cls-22" d="M47.71,87c.8,2.15.23,4.53-1.17,5.06s-3.4-.41-4.2-2.55-.11-4.7,1.29-5.22S46.91,84.83,47.71,87Z"></path>
        <path class="cls-19" d="M38.18,93.73a31,31,0,0,0-2.47-2.31,8.43,8.43,0,0,1-1.51-8.86A13.91,13.91,0,0,0,35,79.31a29.61,29.61,0,0,1,2.47-7.2,19.31,19.31,0,0,0,1.83-4.85,7.68,7.68,0,0,1,4-4.74,7.25,7.25,0,0,0,3.16-3,2.27,2.27,0,0,1,.91-.84.59.59,0,0,0,.22.28c-.49.49-.63.39-.91,1.37a4.55,4.55,0,0,0-.08,3.39,8,8,0,0,1-.83,6.3,11,11,0,0,0-1.85,5.29c-.29,2-.45,3.85-1.67,5.48s-1.66,1.53-1.36,3.86a11.64,11.64,0,0,1-1.79,7.5A2.22,2.22,0,0,0,38.18,93.73Z"></path>
        <path class="cls-21" d="M45.71,68.36C44.92,70,43,72.29,41,71.15s-1.19-3.9-.41-5.54,2.36-3,4.2-2.06S46.5,66.69,45.71,68.36Z"></path>
        <path class="cls-22" d="M45.18,69.45c-.8,1.71-2.84,4-4.78,2.82s-1.08-4-.29-5.66,2.33-3.1,4.23-2.14S46,67.73,45.18,69.45Z"></path>
        <path class="cls-21" d="M42.48,78.09c-.75,1.79-2.7,4-4.78,3.12s-1.83-4.09-1.07-5.88,2.48-3.63,4.64-2.85S43.23,76.3,42.48,78.09Z"></path>
        <path class="cls-22" d="M42,78.92c-.67,1.64-2.49,3.45-4.34,2.62S35.9,78,36.58,76.36s2.31-3,4.16-2.25S42.7,77.27,42,78.92Z"></path>
        <path class="cls-21" d="M40.3,85.68c.26,1.81-.3,4.64-2.41,5S34.52,89,34.26,87.13s.36-4.64,2.45-5S40,83.87,40.3,85.68Z"></path>
        <path class="cls-22" d="M40,86.57c.24,1.72-.28,4.46-2.28,4.77s-3.2-1.67-3.44-3.41.33-4.47,2.33-4.85S39.73,84.85,40,86.57Z"></path>
        <path class="cls-20" d="M46.26,60.15c-.14-.19,0-.23,0-.3l.15-.21c.11-.13.21-.27.33-.39a8.38,8.38,0,0,1,.73-.73,8,8,0,0,1,1.69-1.17,7.39,7.39,0,0,1,4-.8,10.76,10.76,0,0,1,3.94,1.25c.58.36,1.16.74,1.73,1.13l1.58,1.29a.46.46,0,0,1,.07.65.47.47,0,0,1-.65.06h0l0,0-1.5-1.27c-.52-.37-1.07-.73-1.61-1.08a10,10,0,0,0-3.6-1.32,6.81,6.81,0,0,0-3.74.58,8.05,8.05,0,0,0-1.64,1,9.07,9.07,0,0,0-.72.67l-.33.36-.15.19C46.49,60.12,46.49,60.21,46.26,60.15Z"></path>
        <path class="cls-20" d="M50,62.4c-.19-.13-.12-.19-.1-.26l.06-.2.15-.41c.11-.26.21-.53.35-.79a8.47,8.47,0,0,1,.92-1.48,4.64,4.64,0,0,1,3-1.86,6.15,6.15,0,0,1,3.48.76c.49.32,1,.63,1.47,1l1.32,1.12A.46.46,0,0,1,60,61h0l0,0-1.24-1.08c-.43-.34-.89-.62-1.33-.93a5.39,5.39,0,0,0-3-.8,4.11,4.11,0,0,0-2.67,1.5A6.71,6.71,0,0,0,50.82,61a6.31,6.31,0,0,0-.38.73l-.17.38-.07.2C50.17,62.32,50.2,62.4,50,62.4Z"></path>
        <path class="cls-20" d="M53.06,61.89c-.18-.13-.11-.16-.1-.2l0-.13.12-.26c.08-.17.16-.34.26-.51a6.5,6.5,0,0,1,.64-.94,4,4,0,0,1,1.9-1.4,3.29,3.29,0,0,1,2.41.21,6.65,6.65,0,0,1,1,.61l.88.76a.45.45,0,0,1,0,.64.44.44,0,0,1-.64,0h0l0,0-.77-.7a6,6,0,0,0-.85-.54,2.55,2.55,0,0,0-1.86-.29,3.64,3.64,0,0,0-1.69,1.06,6.65,6.65,0,0,0-.67.82l-.29.46-.13.23-.06.12S53.29,61.93,53.06,61.89Z"></path>
        <path class="cls-19" d="M65.15,134.54a32.94,32.94,0,0,1,3.26-1.32,7,7,0,0,0,4.1-7.6,12,12,0,0,1-.2-3.09c.09-1.43,0-5.21-.13-7a15.52,15.52,0,0,1,.28-4.54,8.76,8.76,0,0,0-1.47-5.9c-1.11-1.53-.91-3.33-1.31-4.37s-.25-.42-.68-1c-.12.11-.08,0-.2,0,.24.72.5.59.32,1.67a5.16,5.16,0,0,1-1.71,3.41,8.6,8.6,0,0,0-2.21,6.62,8,8,0,0,1-.42,4.86c-.53,1.83-.93,3.49-.13,5.23s1.58,1.73.79,3.85a14.44,14.44,0,0,0-.56,7.45A2.16,2.16,0,0,1,65.15,134.54Z"></path>
        <path class="cls-21" d="M65.94,109.9c0,2,1.12,4.12,3.27,3.79s2.74-2.77,2.71-4.58-.67-3.81-2.83-3.75S65.9,107.93,65.94,109.9Z"></path>
        <path class="cls-22" d="M66,111.07c.08,2,1.23,4.09,3.36,3.7S72,112,72,110.16s-.76-3.76-2.92-3.67S65.91,109.11,66,111.07Z"></path>
        <path class="cls-21" d="M65.18,118.94c.14,2,1.85,4.5,4,4.35s2.69-3,2.53-4.86-1.13-3.78-3.32-3.75S65,116.9,65.18,118.94Z"></path>
        <path class="cls-22" d="M65.35,119.83c.21,1.85,1.86,3.88,3.81,3.75s2.51-2.54,2.32-4.23-1.31-3.26-3.22-3.2A3.18,3.18,0,0,0,65.35,119.83Z"></path>
        <path class="cls-21" d="M65.8,126.37c-.73,1.7-1,4.35.81,5.37s3.87-.31,4.75-2.05.58-4.37-1.29-5.32S66.52,124.68,65.8,126.37Z"></path>
        <path class="cls-22" d="M65.91,127.27c-.74,1.57-1.13,4.21.63,5.18s3.73-.37,4.58-2,.71-4.21-1.11-5.14S66.65,125.7,65.91,127.27Z"></path>
        <path class="cls-19" d="M73.86,120.52c-1.24-1.91-.64-4.37-.6-5.29s.79-1.78-.82-4.28a7,7,0,0,1-.31-6.53,5.08,5.08,0,0,0,.11-3.36,5.41,5.41,0,0,0-.09-1,1.89,1.89,0,0,0-.05-.23l.26.2c.64.53.25,2,3.09,3.42a6.86,6.86,0,0,1,3.8,5.08,15.28,15.28,0,0,0,1.06,4.39,21.85,21.85,0,0,1,1.16,7.61,24.21,24.21,0,0,0,.23,3.33c.77,5.47-2.28,7.78-3.78,8.45a18,18,0,0,0-2.67,1.49,2.4,2.4,0,0,0-.61-1.67,10.58,10.58,0,0,1-.09-7.76C75.34,122.43,75.1,122.44,73.86,120.52Z"></path>
        <path class="cls-21" d="M72.6,109.43c.87,2.08,2.74,3.24,4.42,2.54s1.94-3,1.07-5.12-2.56-3.12-4.23-2.42S71.73,107.35,72.6,109.43Z"></path>
        <path class="cls-22" d="M73,110.42c.87,2.08,2.75,3.23,4.42,2.53s2-3,1.07-5.11-2.56-3.13-4.23-2.43S72.15,108.33,73,110.42Z"></path>
        <path class="cls-21" d="M74.05,117.81c.54,2.45,2.66,4.37,4.36,4s2.7-3.32,2.17-5.76-2.4-3.48-4.1-3.11S73.52,115.37,74.05,117.81Z"></path>
        <path class="cls-22" d="M74.34,118.67c.47,2.14,2.42,3.8,4,3.45s2.55-2.93,2.08-5.07a3.17,3.17,0,0,0-3.78-2.68A3.47,3.47,0,0,0,74.34,118.67Z"></path>
        <path class="cls-21" d="M74.83,125.56c-.86,2.3-.21,4.86,1.31,5.44s3.69-.42,4.55-2.72.09-5-1.43-5.61S75.69,123.26,74.83,125.56Z"></path>
        <path class="cls-22" d="M75,126.48c-.82,2.21-.23,4.68,1.22,5.22s3.5-.42,4.33-2.63.11-4.85-1.33-5.39S75.8,124.27,75,126.48Z"></path>
        <path class="cls-19" d="M84.81,133.45a32.91,32.91,0,0,1,2.55-2.39,8.68,8.68,0,0,0,1.56-9.14,14.59,14.59,0,0,1-.81-3.35,30.34,30.34,0,0,0-2.56-7.44,20,20,0,0,1-1.88-5,7.94,7.94,0,0,0-4.1-4.88,7.61,7.61,0,0,1-3.26-3.06,2.27,2.27,0,0,0-.94-.86.65.65,0,0,1-.23.28c.51.51.66.4.94,1.42a4.73,4.73,0,0,1,.09,3.5A8.22,8.22,0,0,0,77,109a11.23,11.23,0,0,1,1.91,5.45c.3,2.08.47,4,1.72,5.67s1.72,1.57,1.41,4a12,12,0,0,0,1.84,7.74A2.29,2.29,0,0,1,84.81,133.45Z"></path>
        <path class="cls-21" d="M77,107.26c.82,1.73,2.86,4.06,4.84,2.88s1.23-4,.43-5.72-2.44-3.08-4.34-2.12S76.23,105.54,77,107.26Z"></path>
        <path class="cls-22" d="M77.59,108.38c.82,1.77,2.93,4.17,4.93,2.91s1.11-4.11.3-5.83-2.4-3.21-4.37-2.21S76.77,106.62,77.59,108.38Z"></path>
        <path class="cls-21" d="M80.38,117.3c.77,1.85,2.78,4.17,4.93,3.22s1.89-4.22,1.1-6.06-2.56-3.75-4.78-2.95S79.6,115.46,80.38,117.3Z"></path>
        <path class="cls-22" d="M80.83,118.16c.69,1.69,2.57,3.56,4.48,2.71s1.85-3.66,1.15-5.35-2.38-3.08-4.29-2.32S80.14,116.46,80.83,118.16Z"></path>
        <path class="cls-21" d="M82.63,125.14c-.27,1.87.31,4.79,2.48,5.14s3.48-1.75,3.75-3.64-.37-4.8-2.53-5.21S82.9,123.27,82.63,125.14Z"></path>
        <path class="cls-22" d="M83,126.05c-.24,1.78.29,4.61,2.36,4.93s3.31-1.72,3.55-3.52-.34-4.61-2.41-5S83.21,124.28,83,126.05Z"></path>
        <path class="cls-20" d="M76.47,98.79c-.24.06-.24,0-.29-.1s-.11-.13-.16-.19-.22-.26-.34-.38-.49-.46-.75-.68a7.66,7.66,0,0,0-1.69-1.07,7.06,7.06,0,0,0-3.86-.6,10.46,10.46,0,0,0-3.71,1.36c-.56.36-1.12.74-1.67,1.12l-1.55,1.31,0,0a.47.47,0,1,1-.61-.72h0l1.63-1.34c.59-.4,1.18-.78,1.79-1.15a10.93,10.93,0,0,1,4.06-1.3,7.68,7.68,0,0,1,4.17.83,8.15,8.15,0,0,1,1.75,1.21,8.85,8.85,0,0,1,.75.75c.12.12.22.27.34.4l.16.21C76.51,98.55,76.61,98.59,76.47,98.79Z"></path>
        <path class="cls-20" d="M72.65,101.11c-.24,0-.21-.08-.24-.15l-.08-.2-.17-.39c-.13-.26-.24-.52-.39-.76a7.44,7.44,0,0,0-1-1.38A4.31,4.31,0,0,0,68,96.68a5.63,5.63,0,0,0-3.08.83c-.46.31-.93.61-1.38.95l-1.27,1.13,0,0a.48.48,0,0,1-.67,0,.47.47,0,0,1,0-.67h0L63,97.74c.48-.36,1-.67,1.51-1a6.29,6.29,0,0,1,3.6-.79,4.77,4.77,0,0,1,3.09,1.92,8.12,8.12,0,0,1,1,1.53,8.33,8.33,0,0,1,.36.81l.15.42.07.22C72.77,100.92,72.85,101,72.65,101.11Z"></path>
        <path class="cls-20" d="M69.45,100.58c-.23,0-.19,0-.22-.06l-.06-.12-.14-.24c-.1-.16-.19-.32-.3-.47a5.69,5.69,0,0,0-.69-.85,3.69,3.69,0,0,0-1.74-1.09,2.61,2.61,0,0,0-1.92.29,7.63,7.63,0,0,0-.88.56l-.79.73,0,0a.48.48,0,0,1-.67,0,.47.47,0,0,1,0-.67h0l.9-.78A7.59,7.59,0,0,1,64,97.25,3.38,3.38,0,0,1,66.5,97a4.18,4.18,0,0,1,2,1.43,6.94,6.94,0,0,1,.65,1,4.3,4.3,0,0,1,.27.52l.12.27.06.13S69.65,100.45,69.45,100.58Z"></path>
        <path class="cls-19" d="M37.43,195.68a39.49,39.49,0,0,0-3.6-2.12c-2.55-1.52-5-5.88-4.19-10.26a16.81,16.81,0,0,0,.07-4.12,36.87,36.87,0,0,1,1.06-9.34,24,24,0,0,0,.9-6.33,9.49,9.49,0,0,1,3.51-6.76c2-1.41,2.43-3.16,3-4.41a2.63,2.63,0,0,1,.87-1.25.71.71,0,0,0,.34.27,2.54,2.54,0,0,0-.73,1.9,5.62,5.62,0,0,0,.81,4.1,9.87,9.87,0,0,1,.69,7.81,13.45,13.45,0,0,0-.81,6.86c.19,2.5.48,4.75-.54,7s-1.59,2.29-.61,5a14.35,14.35,0,0,1-.14,9.5A2.7,2.7,0,0,0,37.43,195.68Z"></path>
        <path class="cls-21" d="M39.69,163.13c-.5,2.23-2.28,5.46-4.9,4.61s-2.47-4.38-2-6.56,2-4.23,4.51-3.6S40.19,160.9,39.69,163.13Z"></path>
        <path class="cls-22" d="M39.34,164.57c-.5,2.27-2.34,5.63-5,4.68s-2.36-4.51-1.86-6.73,2-4.36,4.52-3.71S39.84,162.3,39.34,164.57Z"></path>
        <path class="cls-21" d="M38.41,175.7c-.43,2.36-2.17,5.59-4.92,5s-3.3-4.43-2.86-6.78,2-5,4.81-4.68S38.83,173.35,38.41,175.7Z"></path>
        <path class="cls-22" d="M38.09,176.81c-.36,2.16-2.06,4.82-4.51,4.33s-3.11-3.79-2.73-5.94,2-4.21,4.4-3.82S38.46,174.65,38.09,176.81Z"></path>
        <path class="cls-21" d="M37.81,185.42c.8,2.12.89,5.67-1.55,6.65s-4.52-1.15-5.32-3.28-.82-5.69,1.59-6.73S37,183.31,37.81,185.42Z"></path>
        <path class="cls-22" d="M37.66,186.58c.75,2,.86,5.44-1.47,6.36s-4.3-1.16-5-3.19-.8-5.46,1.51-6.46S36.91,184.57,37.66,186.58Z"></path>
        <path class="cls-20" d="M38.16,153.1c-.22-.2-.11-.28-.08-.38s.08-.19.13-.28.18-.39.29-.57a11.94,11.94,0,0,1,.67-1.07,10.16,10.16,0,0,1,1.72-1.87,9,9,0,0,1,4.66-2.05,13.2,13.2,0,0,1,5.08.47c.8.28,1.6.57,2.38.89l2.26,1.14a.55.55,0,0,1,.25.75.56.56,0,0,1-.76.25h0l0,0-2.14-1.12c-.74-.31-1.49-.6-2.24-.87a12.2,12.2,0,0,0-4.67-.6,8.45,8.45,0,0,0-4.34,1.69,9.65,9.65,0,0,0-1.71,1.67,10.86,10.86,0,0,0-.68,1,5.64,5.64,0,0,0-.31.53,2.1,2.1,0,0,0-.13.26C38.42,153,38.45,153.1,38.16,153.1Z"></path>
        <path class="cls-19" d="M46.84,177.77c.95-2.56-.38-5.27-.67-6.34s-1.38-1.87-.15-5.2a8.39,8.39,0,0,0-1.34-7.7,6.07,6.07,0,0,1-1-3.89,7.51,7.51,0,0,1-.15-1.16,2.61,2.61,0,0,1,0-.28c-.07.09-.16.18-.25.3-.61.77.22,2.39-2.72,4.79a8.16,8.16,0,0,0-3.11,6.9,18.41,18.41,0,0,1-.09,5.4,26,26,0,0,0,.61,9.18,29.31,29.31,0,0,1,.6,3.94c.53,6.59,4.68,8.48,6.6,8.88a21,21,0,0,1,3.5,1,2.89,2.89,0,0,1,.28-2.12A12.61,12.61,0,0,0,47,182.45C45.61,180.37,45.89,180.32,46.84,177.77Z"></path>
        <path class="cls-21" d="M45.43,164.5c-.47,2.65-2.36,4.49-4.49,4.11s-3.06-3-2.58-5.69,2.18-4.31,4.31-3.93S45.91,161.84,45.43,164.5Z"></path>
        <path class="cls-22" d="M45.2,165.76c-.48,2.65-2.36,4.49-4.5,4.1s-3.05-3-2.58-5.68,2.18-4.31,4.31-3.93S45.67,163.1,45.2,165.76Z"></path>
        <path class="cls-21" d="M45.91,174.65c0,3-2,5.78-4,5.79s-4-3.16-4-6.15,1.89-4.68,4-4.69S45.9,171.66,45.91,174.65Z"></path>
        <path class="cls-22" d="M45.8,175.73c0,2.62-1.83,5.06-3.78,5.06s-3.73-2.76-3.74-5.38A3.76,3.76,0,0,1,42,171.32,4.14,4.14,0,0,1,45.8,175.73Z"></path>
        <path class="cls-21" d="M47,183.89c1.6,2.46,1.52,5.62-.11,6.68s-4.41.48-6-2-1.42-5.86.22-6.93S45.41,181.43,47,183.89Z"></path>
        <path class="cls-22" d="M47.09,185c1.54,2.37,1.48,5.4-.06,6.4s-4.2.43-5.73-1.94-1.4-5.63.15-6.63S45.55,182.63,47.09,185Z"></path>
        <path class="cls-20" d="M43.22,154.81c-.27-.11-.19-.2-.19-.28l0-.27.07-.53c.06-.35.12-.7.2-1a10.4,10.4,0,0,1,.71-2,5.81,5.81,0,0,1,3.12-3.06,7.26,7.26,0,0,1,4.4,0,18.05,18.05,0,0,1,3.92,1.78.56.56,0,0,1,.2.77.57.57,0,0,1-.77.21h0a16.57,16.57,0,0,0-3.63-1.74,6.23,6.23,0,0,0-3.81-.17A5.17,5.17,0,0,0,44.62,151a9.56,9.56,0,0,0-.77,1.87c-.1.32-.19.65-.26,1l-.09.5,0,.25C43.44,154.66,43.5,154.74,43.22,154.81Z"></path>
        <path class="cls-19" d="M46.1,123.93a32.48,32.48,0,0,0-2.83-1.67A8.19,8.19,0,0,1,40,114.18a13,13,0,0,0,.06-3.25,28.89,28.89,0,0,1,.83-7.36,19,19,0,0,0,.72-5,7.49,7.49,0,0,1,2.76-5.33,7,7,0,0,0,2.37-3.48,2.15,2.15,0,0,1,.69-1,.54.54,0,0,0,.27.21,2,2,0,0,0-.58,1.5,4.46,4.46,0,0,0,.64,3.23,7.7,7.7,0,0,1,.54,6.15,10.65,10.65,0,0,0-.63,5.41c.15,2,.38,3.75-.43,5.56s-1.25,1.79-.48,3.94a11.27,11.27,0,0,1-.11,7.49A2.19,2.19,0,0,0,46.1,123.93Z"></path>
        <path class="cls-21" d="M47.88,98.28c-.39,1.75-1.79,4.3-3.85,3.63s-2-3.45-1.57-5.17S44.08,93.41,46,93.9,48.28,96.52,47.88,98.28Z"></path>
        <path class="cls-22" d="M47.61,99.41c-.39,1.8-1.84,4.44-3.94,3.69s-1.86-3.56-1.46-5.3,1.55-3.44,3.56-2.93S48,97.62,47.61,99.41Z"></path>
        <path class="cls-21" d="M46.87,108.19c-.33,1.85-1.7,4.4-3.87,4s-2.6-3.49-2.25-5.35,1.58-4,3.79-3.68S47.21,106.33,46.87,108.19Z"></path>
        <path class="cls-22" d="M46.63,109.06c-.29,1.7-1.63,3.8-3.56,3.41s-2.45-3-2.15-4.68,1.56-3.32,3.46-3S46.92,107.36,46.63,109.06Z"></path>
        <path class="cls-21" d="M46.41,115.85c.63,1.66.69,4.47-1.23,5.23s-3.56-.9-4.19-2.58-.64-4.48,1.25-5.3S45.78,114.19,46.41,115.85Z"></path>
        <path class="cls-22" d="M46.29,116.76c.59,1.58.67,4.29-1.16,5s-3.39-.91-4-2.51-.63-4.31,1.19-5.09S45.7,115.18,46.29,116.76Z"></path>
        <path class="cls-20" d="M46.68,90.37c-.17-.15-.09-.22-.06-.29s.07-.16.1-.23.15-.3.23-.44a9.29,9.29,0,0,1,.53-.85,8.18,8.18,0,0,1,1.36-1.46,7.28,7.28,0,0,1,3.67-1.62,10.59,10.59,0,0,1,4,.36c.63.22,1.26.45,1.88.7l1.77.9a.44.44,0,0,1,.2.59.45.45,0,0,1-.6.2h0l0,0L58,87.33c-.58-.25-1.17-.48-1.76-.7a9.89,9.89,0,0,0-3.69-.49,6.78,6.78,0,0,0-3.43,1.34,8,8,0,0,0-1.34,1.33q-.29.38-.54.78c-.08.14-.16.28-.23.42a2.12,2.12,0,0,0-.11.21C46.89,90.29,46.91,90.37,46.68,90.37Z"></path>
        <path class="cls-19" d="M53.53,109.81c.74-2-.31-4.15-.53-5s-1.1-1.48-.13-4.1a6.61,6.61,0,0,0-1-6.07A4.76,4.76,0,0,1,51,91.59a7,7,0,0,1-.12-.92v-.22l-.19.24c-.48.61.17,1.88-2.15,3.77a6.45,6.45,0,0,0-2.45,5.44,14.52,14.52,0,0,1-.07,4.26,20.34,20.34,0,0,0,.48,7.24,22.63,22.63,0,0,1,.47,3.1c.42,5.19,3.69,6.68,5.21,7a18.14,18.14,0,0,1,2.76.83,2.26,2.26,0,0,1,.21-1.66,9.88,9.88,0,0,0-1.5-7.15C52.56,111.87,52.78,111.82,53.53,109.81Z"></path>
        <path class="cls-21" d="M52.41,99.36c-.37,2.09-1.86,3.54-3.54,3.23s-2.41-2.39-2-4.48,1.72-3.4,3.4-3.09S52.79,97.26,52.41,99.36Z"></path>
        <path class="cls-22" d="M52.23,100.35c-.38,2.09-1.86,3.54-3.54,3.24s-2.41-2.4-2-4.49,1.72-3.39,3.4-3.09S52.6,98.26,52.23,100.35Z"></path>
        <path class="cls-21" d="M52.79,107.36c0,2.36-1.55,4.56-3.19,4.56s-3.16-2.49-3.17-4.85,1.49-3.68,3.14-3.69S52.78,105,52.79,107.36Z"></path>
        <path class="cls-22" d="M52.7,108.21c0,2.06-1.44,4-3,4S46.78,110,46.78,108a3,3,0,0,1,2.92-3.23A3.27,3.27,0,0,1,52.7,108.21Z"></path>
        <path class="cls-21" d="M53.66,114.64c1.26,1.94,1.19,4.43-.09,5.27s-3.48.37-4.74-1.57-1.12-4.62.17-5.46S52.4,112.7,53.66,114.64Z"></path>
        <path class="cls-22" d="M53.72,115.52c1.21,1.86,1.17,4.25,0,5s-3.3.34-4.52-1.53-1.1-4.43.12-5.23S52.5,113.65,53.72,115.52Z"></path>
        <path class="cls-20" d="M50.67,91.72c-.21-.08-.15-.15-.15-.22l0-.21.05-.42a8,8,0,0,1,.17-.82,7.77,7.77,0,0,1,.55-1.6,4.52,4.52,0,0,1,2.46-2.4,6,6,0,0,1,3.47,0c.53.2,1.07.38,1.59.61l1.49.79a.45.45,0,0,1-.41.79h0l0,0-1.4-.77c-.48-.22-1-.4-1.46-.6a5.22,5.22,0,0,0-3-.12,4,4,0,0,0-2.22,2,6.8,6.8,0,0,0-.61,1.47c-.09.25-.14.52-.21.78l-.07.39,0,.2C50.84,91.6,50.89,91.67,50.67,91.72Z"></path>
        <path class="cls-19" d="M26.74,148A32,32,0,0,0,25.43,145a8,8,0,0,1,1.93-8.3,13.16,13.16,0,0,0,1.88-2.55,28.14,28.14,0,0,1,4.81-5.4,18.18,18.18,0,0,0,3.38-3.57,7.32,7.32,0,0,1,5.21-2.68,7,7,0,0,0,3.85-1.43,2.1,2.1,0,0,1,1.11-.4.53.53,0,0,0,.09.32c-.61.25-.7.11-1.3.87a4.35,4.35,0,0,0-1.32,2.93A7.56,7.56,0,0,1,42,130a10.43,10.43,0,0,0-3.56,4c-1,1.65-1.81,3.2-3.47,4.18s-2,.73-2.6,2.87a11.07,11.07,0,0,1-4.32,5.91A2.1,2.1,0,0,0,26.74,148Z"></path>
        <path class="cls-21" d="M42.64,128.52c-1.31,1.17-3.86,2.42-5.13.71s.4-3.84,1.68-5,3.16-1.75,4.43-.26S43.94,127.34,42.64,128.52Z"></path>
        <path class="cls-22" d="M41.78,129.27c-1.33,1.2-4,2.49-5.22.71s.53-3.88,1.83-5,3.17-1.86,4.49-.32S43.1,128.06,41.78,129.27Z"></path>
        <path class="cls-21" d="M36.24,135.84c-1.31,1.29-3.84,2.54-5.32,1s-.1-4.25,1.22-5.53,3.5-2.26,5.1-.79S37.55,134.55,36.24,135.84Z"></path>
        <path class="cls-22" d="M35.55,136.4c-1.19,1.19-3.44,2.11-4.76.71s-.26-3.77.93-5,3.12-1.76,4.46-.44S36.74,135.21,35.55,136.4Z"></path>
        <path class="cls-21" d="M31.55,141.68c-.44,1.68-2,3.95-3.94,3.48s-2.32-2.73-1.88-4.43,2-3.93,4-3.51S32,140,31.55,141.68Z"></path>
        <path class="cls-22" d="M30.94,142.34c-.42,1.59-1.88,3.8-3.75,3.34S25,143,25.43,141.43s1.93-3.79,3.82-3.39S31.36,140.74,30.94,142.34Z"></path>
        <path class="cls-20" d="M46.14,121.54c0-.22,0-.22.12-.27l.21-.12a3.48,3.48,0,0,1,.43-.22,9,9,0,0,1,.9-.38,8.22,8.22,0,0,1,1.91-.4,7,7,0,0,1,3.83.79,10.29,10.29,0,0,1,3,2.54c.37.53.74,1.07,1.09,1.62l.91,1.71a.42.42,0,0,1-.18.59.43.43,0,0,1-.58-.18h0l0,0-.85-1.66c-.33-.52-.67-1-1-1.55a9.66,9.66,0,0,0-2.67-2.47,6.48,6.48,0,0,0-3.48-.86,7.14,7.14,0,0,0-1.82.3,7,7,0,0,0-.87.32,3.89,3.89,0,0,0-.42.19l-.2.11C46.35,121.59,46.32,121.67,46.14,121.54Z"></path>
        <path class="cls-19" d="M40.62,140.89c1.73-1.18,2.1-3.48,2.4-4.28s0-1.79,2.21-3.33a6.41,6.41,0,0,0,2.58-5.43A4.68,4.68,0,0,1,48.92,125a6,6,0,0,1,.42-.79l.13-.17-.29.07c-.73.22-.93,1.6-3.84,1.8a6.25,6.25,0,0,0-5,2.95,14.08,14.08,0,0,1-2.46,3.35,19.89,19.89,0,0,0-3.7,6,21.23,21.23,0,0,1-1.38,2.74c-2.6,4.37-.83,7.41.2,8.51a16.31,16.31,0,0,1,1.73,2.22,2.22,2.22,0,0,1,1.11-1.21,9.65,9.65,0,0,0,2.84-6.54C38.69,142,38.89,142.07,40.62,140.89Z"></path>
        <path class="cls-21" d="M45.64,131.93c-1.49,1.46-3.48,1.77-4.65.58s-.57-3.26.91-4.72,3.28-1.73,4.45-.54S47.12,130.48,45.64,131.93Z"></path>
        <path class="cls-22" d="M44.93,132.62c-1.48,1.45-3.48,1.77-4.65.58s-.57-3.27.91-4.72,3.28-1.74,4.45-.55S46.41,131.16,44.93,132.62Z"></path>
        <path class="cls-21" d="M41.42,138.52c-1.32,1.89-3.8,2.76-5.12,1.83s-1.1-3.76.22-5.65,3.27-2.09,4.58-1.17S42.75,136.64,41.42,138.52Z"></path>
        <path class="cls-22" d="M40.87,139.15c-1.16,1.64-3.4,2.36-4.62,1.5s-1.12-3.4,0-5.05a2.9,2.9,0,0,1,4.15-.92A3.19,3.19,0,0,1,40.87,139.15Z"></path>
        <path class="cls-21" d="M38,144.81c-.09,2.25-1.54,4.2-3,4.14s-3-1.66-2.89-3.92,1.72-4.31,3.22-4.25S38.09,142.55,38,144.81Z"></path>
        <path class="cls-22" d="M37.56,145.54c-.09,2.17-1.47,4.05-2.89,4s-2.82-1.6-2.73-3.77,1.62-4.15,3-4.09S37.64,143.37,37.56,145.54Z"></path>
        <path class="cls-20" d="M48.56,124.87c-.13-.19,0-.21,0-.27l.13-.15.28-.3c.2-.19.39-.39.6-.57a7.54,7.54,0,0,1,1.34-1,4.39,4.39,0,0,1,3.31-.53,5.84,5.84,0,0,1,2.77,2c.31.46.64.91.92,1.39l.75,1.47a.43.43,0,0,1-.19.58.44.44,0,0,1-.59-.19h0l0,0-.68-1.4c-.25-.45-.55-.87-.83-1.3a5.11,5.11,0,0,0-2.31-1.8,3.92,3.92,0,0,0-2.89.33,7.85,7.85,0,0,0-1.32.82c-.21.16-.4.34-.6.51l-.28.27-.14.14C48.76,124.87,48.76,125,48.56,124.87Z"></path>
        <path class="cls-19" d="M43.41,161.61a27.65,27.65,0,0,0-2.72-1.7,8,8,0,0,1-3-8,13.21,13.21,0,0,0,.14-3.17,28,28,0,0,1,1-7.16,18.73,18.73,0,0,0,.82-4.85,7.25,7.25,0,0,1,2.84-5.12,7,7,0,0,0,2.4-3.33,2.13,2.13,0,0,1,.7-1,.49.49,0,0,0,.25.21c-.36.56-.52.48-.6,1.45a4.33,4.33,0,0,0,.54,3.17,7.54,7.54,0,0,1,.37,6,10.46,10.46,0,0,0-.76,5.26c.1,1.93.27,3.67-.56,5.41s-1.27,1.72-.57,3.83A11,11,0,0,1,44,160,2.12,2.12,0,0,0,43.41,161.61Z"></path>
        <path class="cls-21" d="M45.82,136.62c-.43,1.71-1.86,4.16-3.86,3.45s-1.81-3.42-1.39-5.09,1.67-3.2,3.55-2.67S46.25,134.92,45.82,136.62Z"></path>
        <path class="cls-22" d="M45.53,137.73c-.43,1.73-1.92,4.28-3.94,3.49S39.86,137.7,40.3,136s1.6-3.32,3.55-2.77S46,136,45.53,137.73Z"></path>
        <path class="cls-21" d="M44.58,146.27c-.38,1.8-1.78,4.25-3.89,3.77s-2.44-3.48-2-5.28,1.65-3.83,3.79-3.5S45,144.46,44.58,146.27Z"></path>
        <path class="cls-22" d="M44.32,147.12c-.33,1.65-1.69,3.66-3.57,3.23s-2.31-3-2-4.63,1.61-3.19,3.46-2.85S44.64,145.46,44.32,147.12Z"></path>
        <path class="cls-21" d="M43.92,153.73c.57,1.64.56,4.38-1.33,5.08s-3.45-1-4-2.63-.5-4.39,1.37-5.15S43.35,152.09,43.92,153.73Z"></path>
        <path class="cls-22" d="M43.78,154.61c.53,1.56.55,4.21-1.26,4.87s-3.29-1-3.82-2.56S38.2,152.7,40,152,43.24,153.06,43.78,154.61Z"></path>
        <path class="cls-20" d="M44.85,128.88c-.16-.16-.07-.22-.05-.29s.07-.15.11-.22.15-.29.24-.43a8.62,8.62,0,0,1,.54-.8,7.21,7.21,0,0,1,1.36-1.4,7.09,7.09,0,0,1,3.62-1.48,10.3,10.3,0,0,1,3.9.46c.6.23,1.21.47,1.81.73l1.71.92a.44.44,0,0,1,.18.59.43.43,0,0,1-.59.17h0l0,0L56,126.2c-.56-.25-1.13-.49-1.7-.72a9.39,9.39,0,0,0-3.59-.57,6.43,6.43,0,0,0-3.38,1.22A7.26,7.26,0,0,0,46,127.39c-.19.24-.38.48-.55.74s-.16.27-.24.4-.07.14-.11.2S45.08,128.89,44.85,128.88Z"></path>
        <path class="cls-19" d="M52.83,148.52c.63-2-.51-4-.77-4.84a4.19,4.19,0,0,1-.34-4,6.42,6.42,0,0,0-1.35-5.86,4.69,4.69,0,0,1-.93-2.94,6.63,6.63,0,0,1-.16-.89c0-.07,0-.14,0-.21l-.18.24c-.43.62.27,1.83-1.89,3.79a6.27,6.27,0,0,0-2.1,5.43,14.25,14.25,0,0,1,.15,4.15,20,20,0,0,0,.85,7,22.62,22.62,0,0,1,.63,3c.67,5,3.94,6.32,5.43,6.54a17.12,17.12,0,0,1,2.74.67A2.26,2.26,0,0,1,55,159a9.66,9.66,0,0,0-1.84-6.89C52,150.57,52.21,150.52,52.83,148.52Z"></path>
        <path class="cls-21" d="M51.2,138.39c-.26,2.06-1.63,3.55-3.28,3.34s-2.47-2.2-2.22-4.26,1.5-3.4,3.15-3.2S51.46,136.33,51.2,138.39Z"></path>
        <path class="cls-22" d="M51.07,139.36c-.25,2.06-1.63,3.55-3.28,3.35s-2.47-2.21-2.22-4.27,1.5-3.4,3.15-3.19S51.33,137.3,51.07,139.36Z"></path>
        <path class="cls-21" d="M52,146.17c.13,2.3-1.27,4.52-2.87,4.61s-3.21-2.26-3.34-4.56,1.26-3.67,2.86-3.76S51.86,143.87,52,146.17Z"></path>
        <path class="cls-22" d="M52,147c.11,2-1.2,4-2.69,4.05s-3-2-3.1-4a2.89,2.89,0,0,1,2.68-3.3A3.18,3.18,0,0,1,52,147Z"></path>
        <path class="cls-21" d="M53.22,153.22c1.33,1.82,1.4,4.25.19,5.14s-3.37.54-4.7-1.28-1.33-4.44-.12-5.33S51.89,151.39,53.22,153.22Z"></path>
        <path class="cls-22" d="M53.32,154.07c1.28,1.75,1.37,4.08.22,4.92s-3.2.5-4.48-1.26-1.31-4.26-.16-5.1S52,152.31,53.32,154.07Z"></path>
        <path class="cls-20" d="M49.1,131c-.21-.07-.15-.15-.16-.21v-.21l0-.41a7.54,7.54,0,0,1,.12-.81,7.33,7.33,0,0,1,.46-1.58,4.4,4.4,0,0,1,2.26-2.48,5.92,5.92,0,0,1,3.38-.19c.53.17,1.07.32,1.59.52l1.49.69a.43.43,0,0,1,.22.57.44.44,0,0,1-.58.22h0l-.05,0-1.4-.67c-.48-.2-1-.34-1.46-.51a5.21,5.21,0,0,0-2.93,0A4,4,0,0,0,50,128a7.24,7.24,0,0,0-.52,1.46c-.07.25-.11.51-.16.77l-.05.39,0,.19C49.26,130.91,49.31,131,49.1,131Z"></path>
        <path class="cls-19" d="M91.79,88.79a27.29,27.29,0,0,1,1.31-2.93,8,8,0,0,0-1.93-8.3A13.33,13.33,0,0,1,89.29,75a27.88,27.88,0,0,0-4.82-5.39A18.48,18.48,0,0,1,81.09,66a7.29,7.29,0,0,0-5.2-2.69A6.85,6.85,0,0,1,72,61.92a2.14,2.14,0,0,0-1.1-.4.51.51,0,0,1-.09.32c.61.26.7.11,1.3.87a4.36,4.36,0,0,1,1.31,2.94,7.61,7.61,0,0,0,3,5.21,10.25,10.25,0,0,1,3.56,3.94c1,1.66,1.81,3.2,3.48,4.19s2,.72,2.6,2.87a11.05,11.05,0,0,0,4.32,5.9A2.1,2.1,0,0,1,91.79,88.79Z"></path>
        <path class="cls-21" d="M75.89,69.36c1.3,1.18,3.86,2.42,5.12.72s-.39-3.85-1.67-5-3.17-1.74-4.43-.26S74.58,68.19,75.89,69.36Z"></path>
        <path class="cls-22" d="M76.75,70.11c1.32,1.21,4,2.5,5.22.72s-.53-3.89-1.83-5-3.18-1.87-4.49-.32S75.42,68.91,76.75,70.11Z"></path>
        <path class="cls-21" d="M82.28,76.68c1.32,1.29,3.85,2.55,5.33,1s.1-4.25-1.22-5.53-3.51-2.27-5.1-.8S81,75.39,82.28,76.68Z"></path>
        <path class="cls-22" d="M83,77.24c1.18,1.2,3.44,2.11,4.76.71S88,74.19,86.81,73s-3.12-1.77-4.47-.45S81.79,76.05,83,77.24Z"></path>
        <path class="cls-21" d="M87,82.52c.44,1.69,2,4,3.93,3.48s2.33-2.73,1.88-4.42-2-3.93-4-3.52S86.55,80.84,87,82.52Z"></path>
        <path class="cls-22" d="M87.59,83.18c.42,1.59,1.88,3.8,3.75,3.34s2.19-2.64,1.76-4.25-1.93-3.78-3.83-3.38S87.17,81.59,87.59,83.18Z"></path>
        <path class="cls-20" d="M72.39,62.38c-.18.14-.21.06-.29,0l-.2-.1-.42-.2a9.25,9.25,0,0,0-.88-.32,7.45,7.45,0,0,0-1.81-.3,6.43,6.43,0,0,0-3.49.87,9.47,9.47,0,0,0-2.66,2.47c-.34.51-.69,1-1,1.54L60.78,68l0,0a.43.43,0,0,1-.58.19.44.44,0,0,1-.19-.59h0l.91-1.72c.35-.55.72-1.09,1.1-1.62a10.16,10.16,0,0,1,3-2.54A7.1,7.1,0,0,1,68.82,61a7.83,7.83,0,0,1,1.91.4c.3.11.61.23.9.37s.29.15.43.22l.21.13C72.33,62.16,72.44,62.16,72.39,62.38Z"></path>
        <path class="cls-19" d="M77.91,81.73c-1.73-1.18-2.1-3.48-2.4-4.27a4.23,4.23,0,0,0-2.22-3.34,6.45,6.45,0,0,1-2.58-5.43,4.65,4.65,0,0,0-1.1-2.88,6.09,6.09,0,0,0-.42-.8l-.13-.17.29.08c.73.21.93,1.6,3.84,1.79a6.29,6.29,0,0,1,5,3A14.08,14.08,0,0,0,80.67,73a20.12,20.12,0,0,1,3.7,6,22,22,0,0,0,1.38,2.74c2.59,4.36.83,7.4-.2,8.5a16.31,16.31,0,0,0-1.73,2.22,2.26,2.26,0,0,0-1.11-1.21,9.7,9.7,0,0,1-2.85-6.54C79.84,82.82,79.64,82.91,77.91,81.73Z"></path>
        <path class="cls-21" d="M72.89,72.78c1.48,1.45,3.48,1.77,4.65.58s.57-3.27-.91-4.72-3.29-1.74-4.45-.55S71.41,71.32,72.89,72.78Z"></path>
        <path class="cls-22" d="M73.6,73.46c1.48,1.46,3.48,1.77,4.65.58s.57-3.26-.91-4.72-3.29-1.73-4.46-.54S72.12,72,73.6,73.46Z"></path>
        <path class="cls-21" d="M77.11,79.37c1.32,1.88,3.8,2.75,5.11,1.83s1.11-3.77-.21-5.65-3.27-2.1-4.58-1.17S75.78,77.48,77.11,79.37Z"></path>
        <path class="cls-22" d="M77.66,80c1.16,1.65,3.4,2.36,4.62,1.5s1.11-3.4,0-5a2.89,2.89,0,0,0-4.15-.92A3.17,3.17,0,0,0,77.66,80Z"></path>
        <path class="cls-21" d="M80.52,85.65c.09,2.26,1.55,4.2,3,4.14s3-1.66,2.89-3.91-1.72-4.31-3.22-4.25S80.43,83.39,80.52,85.65Z"></path>
        <path class="cls-22" d="M81,86.38c.09,2.17,1.47,4.05,2.89,4s2.82-1.6,2.73-3.77-1.63-4.15-3-4.1S80.88,84.21,81,86.38Z"></path>
        <path class="cls-20" d="M70,65.71c-.2.08-.2,0-.25,0l-.14-.14-.28-.28c-.2-.17-.39-.35-.6-.5a7.3,7.3,0,0,0-1.32-.83,3.91,3.91,0,0,0-2.89-.32,5.12,5.12,0,0,0-2.32,1.79c-.27.43-.57.85-.82,1.3l-.68,1.41,0,0a.45.45,0,0,1-.58.2.43.43,0,0,1-.2-.58h0l.74-1.47c.29-.48.62-.93.93-1.39a5.81,5.81,0,0,1,2.76-2,4.42,4.42,0,0,1,3.31.53,7.66,7.66,0,0,1,1.35,1c.21.17.4.37.6.56l.27.3.14.16S70.09,65.52,70,65.71Z"></path>
        <path class="cls-19" d="M75.11,102.45a31.62,31.62,0,0,1,2.73-1.7,8,8,0,0,0,3-8,13.12,13.12,0,0,1-.14-3.16,27.91,27.91,0,0,0-1-7.16,18.45,18.45,0,0,1-.82-4.85A7.33,7.33,0,0,0,76,72.47a6.94,6.94,0,0,1-2.41-3.33,2.07,2.07,0,0,0-.69-.94.57.57,0,0,1-.26.21c.37.55.53.48.6,1.45A4.38,4.38,0,0,1,72.75,73a7.54,7.54,0,0,0-.37,6,10.42,10.42,0,0,1,.76,5.25c-.1,1.93-.27,3.67.56,5.41s1.27,1.73.57,3.84a11.1,11.1,0,0,0,.3,7.31A2,2,0,0,1,75.11,102.45Z"></path>
        <path class="cls-21" d="M72.7,77.47c.44,1.7,1.86,4.15,3.87,3.44S78.38,77.5,78,75.83s-1.66-3.21-3.54-2.68S72.27,75.76,72.7,77.47Z"></path>
        <path class="cls-22" d="M73,78.57c.43,1.74,1.92,4.28,3.94,3.49s1.72-3.51,1.29-5.21-1.6-3.31-3.55-2.76S72.57,76.83,73,78.57Z"></path>
        <path class="cls-21" d="M74,87.11c.37,1.8,1.78,4.25,3.89,3.77s2.44-3.48,2-5.28-1.65-3.83-3.8-3.49S73.58,85.31,74,87.11Z"></path>
        <path class="cls-22" d="M74.21,88c.33,1.65,1.69,3.66,3.57,3.23s2.31-3,2-4.62-1.61-3.2-3.46-2.85S73.89,86.31,74.21,88Z"></path>
        <path class="cls-21" d="M74.61,94.58C74,96.22,74,99,75.94,99.65s3.45-1,4-2.63.51-4.39-1.36-5.14S75.18,92.94,74.61,94.58Z"></path>
        <path class="cls-22" d="M74.75,95.46c-.54,1.56-.55,4.2,1.26,4.86s3.28-1,3.82-2.56.5-4.21-1.3-4.93S75.28,93.9,74.75,95.46Z"></path>
        <path class="cls-20" d="M73.67,69.72c-.22,0-.2-.07-.25-.14a1.28,1.28,0,0,0-.11-.2,3.26,3.26,0,0,0-.24-.4,6.55,6.55,0,0,0-.55-.75A7.26,7.26,0,0,0,71.18,67a6.49,6.49,0,0,0-3.38-1.22,9.57,9.57,0,0,0-3.58.58c-.57.23-1.14.46-1.7.72l-1.63.9,0,0a.43.43,0,1,1-.43-.75h0l1.71-.92c.6-.26,1.2-.5,1.81-.73a10.08,10.08,0,0,1,3.9-.45,7,7,0,0,1,3.62,1.47A8.18,8.18,0,0,1,72.84,68a8.77,8.77,0,0,1,.54.81c.09.13.16.28.24.42l.1.22C73.75,69.51,73.84,69.57,73.67,69.72Z"></path>
        <path class="cls-19" d="M65.69,89.36c-.62-2,.52-4,.78-4.84a4.24,4.24,0,0,0,.34-4,6.42,6.42,0,0,1,1.34-5.85,4.59,4.59,0,0,0,.93-3,5.19,5.19,0,0,0,.17-.89v-.21a2.5,2.5,0,0,1,.18.24c.44.62-.26,1.83,1.9,3.8a6.26,6.26,0,0,1,2.1,5.43,13.85,13.85,0,0,0-.15,4.15,20,20,0,0,1-.86,7,22.34,22.34,0,0,0-.62,3c-.67,5-3.94,6.31-5.44,6.54a16.23,16.23,0,0,0-2.73.66,2.23,2.23,0,0,0-.12-1.63A9.64,9.64,0,0,1,65.35,93C66.53,91.42,66.32,91.36,65.69,89.36Z"></path>
        <path class="cls-21" d="M67.33,79.23c.25,2.06,1.62,3.55,3.28,3.34s2.47-2.2,2.22-4.26-1.5-3.4-3.15-3.19S67.07,77.17,67.33,79.23Z"></path>
        <path class="cls-22" d="M67.46,80.21c.25,2.06,1.62,3.55,3.28,3.34s2.47-2.2,2.21-4.26-1.49-3.4-3.14-3.2S67.2,78.15,67.46,80.21Z"></path>
        <path class="cls-21" d="M66.54,87c-.14,2.3,1.27,4.53,2.87,4.62s3.21-2.27,3.34-4.56-1.26-3.68-2.86-3.77S66.67,84.71,66.54,87Z"></path>
        <path class="cls-22" d="M66.58,87.85c-.12,2,1.2,4,2.69,4s3-2,3.1-4a2.9,2.9,0,0,0-2.68-3.3A3.2,3.2,0,0,0,66.58,87.85Z"></path>
        <path class="cls-21" d="M65.31,94.06c-1.33,1.82-1.4,4.26-.19,5.14s3.37.55,4.7-1.28,1.33-4.44.12-5.32S66.64,92.24,65.31,94.06Z"></path>
        <path class="cls-22" d="M65.21,94.91C63.92,96.67,63.84,99,65,99.83s3.2.5,4.48-1.25,1.3-4.26.16-5.1S66.49,93.16,65.21,94.91Z"></path>
        <path class="cls-20" d="M69.43,71.88c-.21-.06-.16-.13-.18-.19v-.2l-.06-.39a7.54,7.54,0,0,0-.16-.77,6.65,6.65,0,0,0-.51-1.46,3.88,3.88,0,0,0-2.07-2.05,5,5,0,0,0-2.92,0c-.49.16-1,.31-1.46.5L60.65,68l0,0a.45.45,0,0,1-.58-.2.44.44,0,0,1,.21-.58h0l1.5-.69c.52-.19,1.06-.34,1.58-.51a5.87,5.87,0,0,1,3.39.19A4.38,4.38,0,0,1,69,68.66a7.58,7.58,0,0,1,.46,1.59c.06.26.08.54.12.81l0,.41v.2C69.58,71.74,69.64,71.81,69.43,71.88Z"></path>
        <path class="cls-9" d="M62,248.57a1.66,1.66,0,0,0-1.58-.58c-.88.27-1.22,1-1.08,1.22l.33.33c.22.21.68-.4.7-.4S62,248.57,62,248.57Z"></path>
        <path class="cls-23" d="M62.49,249.63s-.28-1.2-.73-1.21-1-.08-1-.08l-.12.22s.44.78.62.84l.6.18A5,5,0,0,0,62.49,249.63Z"></path>
        <path class="cls-11" d="M62.45,249.78c0-.11.11-.38-.17-.46a4.11,4.11,0,0,0-.59-.13s-.71.55-.85.63-.24.08.18.2.4.23.78.18A1.12,1.12,0,0,0,62.45,249.78Z"></path>
        <path class="cls-12" d="M61.69,249.19a5.68,5.68,0,0,0-.52.52c-.21.25-.25.32-.5.2s-.91-.22-1.08-.47-.16-.23,0-.53a1.29,1.29,0,0,1,.84-.51.73.73,0,0,1,.84.18A1.85,1.85,0,0,1,61.69,249.19Z"></path>
        <path class="cls-9" d="M39.59,240.42a2.41,2.41,0,0,0-2.45-.35c-1.17.66-1.46,1.76-1.17,2.07a5.07,5.07,0,0,0,.57.38c.38.24.86-.78.89-.79S39.59,240.42,39.59,240.42Z"></path>
        <path class="cls-23" d="M40.57,241.8s-.76-1.64-1.41-1.52a12.65,12.65,0,0,1-1.4.18l-.11.35s.87,1,1.15,1,.79,0,.91.07A5.67,5.67,0,0,0,40.57,241.8Z"></path>
        <path class="cls-11" d="M40.56,242c0-.16,0-.57-.39-.61a7.26,7.26,0,0,0-.87,0s-.86,1-1,1.17-.31.18.32.23.65.2,1.18,0A1.63,1.63,0,0,0,40.56,242Z"></path>
        <path class="cls-12" d="M39.3,241.41a8.36,8.36,0,0,0-.6.9c-.22.42-.25.55-.65.44s-1.37,0-1.69-.35-.31-.27-.1-.76a2,2,0,0,1,1.06-1,1.07,1.07,0,0,1,1.25,0A2.75,2.75,0,0,1,39.3,241.41Z"></path>
        <path class="cls-9" d="M55.44,237.18s-5-2.52-8.58.56-3.71,7-2.5,7.88a16,16,0,0,0,2.22.88c1.45.54,2.36-3.25,2.44-3.31S55.44,237.18,55.44,237.18Z"></path>
        <path class="cls-23" d="M59.75,241.17s-3.75-5-5.88-4.14-4.63,1.59-4.63,1.59l-.14,1.27s3.69,2.74,4.66,2.66,2.73-.41,3.16-.41A21.2,21.2,0,0,0,59.75,241.17Z"></path>
        <path class="cls-11" d="M59.9,241.93c0-.56-.26-2-1.77-1.8a21.61,21.61,0,0,0-3,.64s-2.21,4-2.7,4.7-1,.84,1.25.56,2.37.22,4-.78A5.65,5.65,0,0,0,59.9,241.93Z"></path>
        <path class="cls-12" d="M55.16,240.77a24.66,24.66,0,0,0-1.38,3.49c-.46,1.59-.48,2-1.93,2s-4.69.85-6,0-1.24-.7-.88-2.54,1.21-2.71,2.87-4.15a3.76,3.76,0,0,1,4.28-.89A9.74,9.74,0,0,1,55.16,240.77Z"></path>
        <path class="cls-9" d="M74.87,238.79s-2.91-4-6.86-3-5.66,4-5.07,5.11a15.33,15.33,0,0,0,1.36,1.57c.92,1,3.13-1.59,3.22-1.59S74.87,238.79,74.87,238.79Z"></path>
        <path class="cls-23" d="M76.63,243.59s-.91-5.37-2.91-5.54-4.22-.61-4.22-.61l-.62.93s1.77,3.59,2.56,3.91,2.27.77,2.61.94A18.48,18.48,0,0,0,76.63,243.59Z"></path>
        <path class="cls-11" d="M76.43,244.24c.19-.45.6-1.64-.65-2.09a18.15,18.15,0,0,0-2.55-.69s-3.31,2.23-4,2.57-1.07.27.75.92,1.74,1.12,3.43,1A5,5,0,0,0,76.43,244.24Z"></path>
        <path class="cls-12" d="M73.23,241.46a22.83,22.83,0,0,0-2.46,2.15c-1,1-1.17,1.38-2.26.75s-4-1.21-4.65-2.36-.68-1,.33-2.32,2-1.61,3.87-2.06a3.27,3.27,0,0,1,3.67,1A8.55,8.55,0,0,1,73.23,241.46Z"></path>
        <path class="cls-9" d="M61.34,240.85s-4.17-3.23-8-1-4.67,5.77-3.72,6.77a15.77,15.77,0,0,0,1.87,1.21c1.24.76,2.76-2.56,2.84-2.59S61.34,240.85,61.34,240.85Z"></path>
        <path class="cls-23" d="M64.58,245.28s-2.53-5.28-4.65-4.86-4.53.63-4.53.63L55,242.19s2.89,3.18,3.79,3.27,2.58.13,3,.2A19.48,19.48,0,0,0,64.58,245.28Z"></path>
        <path class="cls-11" d="M64.57,246c.06-.52.13-1.88-1.29-2a20.32,20.32,0,0,0-2.85.05s-2.74,3.28-3.32,3.82-1,.6,1,.73,2.13.64,3.84,0A5.31,5.31,0,0,0,64.57,246Z"></path>
        <path class="cls-12" d="M60.43,244.09A23.93,23.93,0,0,0,58.54,247c-.71,1.38-.8,1.78-2.12,1.45s-4.45-.07-5.49-1.06-1-.86-.34-2.49,1.59-2.26,3.37-3.28a3.53,3.53,0,0,1,4.09-.05A9.09,9.09,0,0,1,60.43,244.09Z"></path>
        <path class="cls-9" d="M83.08,248.17A2.52,2.52,0,0,0,85.4,247c.63-1.27.22-2.38-.22-2.48a4.32,4.32,0,0,0-.71,0c-.47,0-.28,1.18-.3,1.2Z"></path>
        <path class="cls-23" d="M81.43,247.56s1.62,1,2.11.47a14.45,14.45,0,0,1,1.1-1l-.11-.37a5,5,0,0,0-1.6-.2c-.26.13-.71.42-.83.47A7.54,7.54,0,0,0,81.43,247.56Z"></path>
        <path class="cls-11" d="M81.3,247.37c.08.15.3.52.7.29a7.22,7.22,0,0,0,.75-.52s.15-1.37.2-1.61.17-.35-.41,0-.68.21-1,.68A1.73,1.73,0,0,0,81.3,247.37Z"></path>
        <path class="cls-12" d="M82.75,247.14a7.42,7.42,0,0,0,0-1.13c-.06-.49-.1-.61.31-.76s1.2-.78,1.66-.7.42,0,.53.61a2,2,0,0,1-.31,1.48,1.15,1.15,0,0,1-1.09.74A2.91,2.91,0,0,1,82.75,247.14Z"></path>
        <path class="cls-9" d="M27.4,251.07a2.52,2.52,0,0,0,2.32-1.14c.63-1.26.22-2.38-.22-2.48a5.83,5.83,0,0,0-.71,0c-.47,0-.28,1.18-.3,1.21S27.4,251.07,27.4,251.07Z"></path>
        <path class="cls-23" d="M25.75,250.47s1.62,1,2.11.47,1.1-1,1.1-1l-.11-.37a5.34,5.34,0,0,0-1.6-.2c-.26.14-.71.43-.83.48A6.24,6.24,0,0,0,25.75,250.47Z"></path>
        <path class="cls-11" d="M25.62,250.27c.08.15.3.52.7.3a7.22,7.22,0,0,0,.75-.52s.15-1.37.2-1.62.17-.34-.41,0-.68.21-1,.68A1.73,1.73,0,0,0,25.62,250.27Z"></path>
        <path class="cls-12" d="M27.07,250.05a7.43,7.43,0,0,0,0-1.13c-.06-.5-.1-.62.31-.77s1.2-.77,1.66-.7.42.06.53.61a2,2,0,0,1-.32,1.48,1.12,1.12,0,0,1-1.08.74A3,3,0,0,1,27.07,250.05Z"></path>
        <path class="cls-9" d="M43.31,249.07s2.15.3,3-1.26.48-3-.06-3.17a7.27,7.27,0,0,0-.91,0c-.6,0-.46,1.48-.49,1.51S43.31,249.07,43.31,249.07Z"></path>
        <path class="cls-23" d="M41.25,248.15s2,1.36,2.65.78,1.49-1.14,1.49-1.14l-.11-.48a6.59,6.59,0,0,0-2-.4c-.34.15-.94.48-1.1.54A8.41,8.41,0,0,0,41.25,248.15Z"></path>
        <path class="cls-11" d="M41.11,247.89c.08.2.33.69.86.44a8.76,8.76,0,0,0,1-.6s.31-1.73.41-2,.24-.42-.53-.05-.89.21-1.37.78A2.16,2.16,0,0,0,41.11,247.89Z"></path>
        <path class="cls-12" d="M43,247.73a9.44,9.44,0,0,0,.08-1.44c0-.63-.08-.79.46-.94s1.59-.89,2.17-.75.53.1.63.82a2.62,2.62,0,0,1-.54,1.86,1.44,1.44,0,0,1-1.44.85A3.7,3.7,0,0,1,43,247.73Z"></path>
        <path class="cls-9" d="M54.92,246.81a2.06,2.06,0,0,1,1.88-.29c.93.43,1.17,1.18,1,1.39a3.32,3.32,0,0,1-.43.27c-.29.17-.68-.51-.7-.51Z"></path>
        <path class="cls-23" d="M54.19,247.77s.55-1.13,1.06-1.06,1.08.09,1.08.09l.1.24s-.65.69-.87.72-.61.05-.7.07A5.17,5.17,0,0,1,54.19,247.77Z"></path>
        <path class="cls-11" d="M54.2,247.93a.32.32,0,0,1,.29-.43,5.32,5.32,0,0,1,.68,0s.68.66.82.77.25.12-.24.16-.5.15-.91,0A1.19,1.19,0,0,1,54.2,247.93Z"></path>
        <path class="cls-12" d="M55.17,247.49a6.62,6.62,0,0,1,.48.6c.18.28.21.36.51.28s1.06-.05,1.3-.27.23-.19.06-.52a1.44,1.44,0,0,0-.84-.66.93.93,0,0,0-1,0A2,2,0,0,0,55.17,247.49Z"></path>
        <path class="cls-9" d="M72,242s-3.93-2.9-7.39-.81-4.21,5.43-3.3,6.34A12.85,12.85,0,0,0,63,248.63c1.16.68,2.5-2.42,2.58-2.45S72,242,72,242Z"></path>
        <path class="cls-23" d="M75,246.06s-2.45-4.84-4.4-4.41-4.17.67-4.17.67l-.32,1.06s2.74,2.89,3.58,3,2.38.06,2.75.13A19.12,19.12,0,0,0,75,246.06Z"></path>
        <path class="cls-11" d="M75.05,246.73c0-.48.08-1.73-1.24-1.79a19,19,0,0,0-2.63.09s-2.48,3.09-3,3.6-.93.58,1,.66,2,.55,3.56,0A5,5,0,0,0,75.05,246.73Z"></path>
        <path class="cls-12" d="M71.18,245a22,22,0,0,0-1.69,2.77c-.63,1.28-.71,1.65-1.93,1.37s-4.13,0-5.11-.86-.94-.79-.36-2.3,1.43-2.13,3.06-3.1a3.27,3.27,0,0,1,3.78-.13A8.42,8.42,0,0,1,71.18,245Z"></path>
        <path class="cls-9" d="M51,246.56s-3.21-.59-4.67,1.69-.92,4.51-.11,4.78a8.66,8.66,0,0,0,1.37.14c.89.06.78-2.19.82-2.24S51,246.56,51,246.56Z"></path>
        <path class="cls-23" d="M54.05,248.07s-2.89-2.18-3.93-1.34-2.32,1.63-2.32,1.63l.13.73s2.49.92,3,.72,1.45-.67,1.69-.74A13,13,0,0,0,54.05,248.07Z"></path>
        <path class="cls-11" d="M54.26,248.47c-.12-.3-.47-1.06-1.27-.71a12.83,12.83,0,0,0-1.55.84s-.58,2.58-.74,3-.39.62.78.11,1.36-.26,2.12-1.08A3.31,3.31,0,0,0,54.26,248.47Z"></path>
        <path class="cls-12" d="M51.44,248.6a15.08,15.08,0,0,0-.21,2.16c0,1,.07,1.2-.75,1.39s-2.47,1.23-3.32,1-.8-.19-.9-1.28a3.92,3.92,0,0,1,.93-2.76,2.18,2.18,0,0,1,2.23-1.19A5.59,5.59,0,0,1,51.44,248.6Z"></path>
      </g>
    </g>
  </g>
</svg>
