<?xml version="1.0" encoding="UTF-8"?>
<svg xmlns="http://www.w3.org/2000/svg" viewBox="0 0 124.59 254.53">
  <defs>
    <style>.cls-1{fill:#a29274;}.cls-2{fill:#e3e0c9;}.cls-3{fill:#fcedce;}.cls-4{fill:#bda885;}.cls-5{fill:#d0c5a6;}.cls-6{fill:#8f8267;}.cls-7{fill:#ab967a;opacity:0.25;}.cls-8{fill:#9b8d71;}.cls-9{fill:#7c705b;}.cls-10{fill:#e7e6e3;}.cls-11{fill:#817870;}.cls-12{fill:#90b339;}.cls-13{fill:#bf301f;}.cls-14{fill:#d25650;}.cls-15{fill:#81a135;}.cls-16{fill:#a63021;}</style>
  </defs>
  <g id="Слой_2" data-name="Слой 2">
    <g id="Слой_1-2" data-name="Слой 1">
      <polygon class="cls-1" points="69.56 183.15 123.73 160.09 115.6 222.46 69.56 254.53 69.56 183.15"></polygon>
      <polygon class="cls-2" points="69.56 144.5 123.73 160.09 69.56 183.15 15.24 160.09 69.56 144.5"></polygon>
      <polygon class="cls-3" points="69.56 144.5 15.24 160.09 16.19 160.5 123.22 159.95 69.56 144.5"></polygon>
      <polygon class="cls-4" points="23.36 222.46 15.24 160.09 69.56 183.15 69.56 254.53 23.36 222.46"></polygon>
      <path class="cls-5" d="M49.38,160.86a31.46,31.46,0,0,1,2.56-2.74,23.83,23.83,0,0,1,3-2.31,30.36,30.36,0,0,1,6.8-3.31A35.23,35.23,0,0,1,69.11,151c1.25-.17,2.51-.14,3.76-.19s2.5.11,3.74.21c-1.25.15-2.49.19-3.72.33l-1.84.24c-.61.08-1.22.13-1.83.27-1.21.23-2.42.4-3.6.74s-2.37.64-3.54,1a38.55,38.55,0,0,0-6.7,3A37.34,37.34,0,0,0,49.38,160.86Z"></path>
      <polygon class="cls-6" points="69.56 183.15 123.73 160.09 115.6 222.46 69.56 254.53 69.56 183.15"></polygon>
      <polygon class="cls-7" points="23.36 222.46 15.24 160.09 69.56 183.15 69.56 254.53 23.36 222.46"></polygon>
      <polygon class="cls-8" points="69.56 254.53 23.36 222.46 69.78 204.92 115.6 222.46 69.56 254.53"></polygon>
      <path class="cls-9" d="M33.18,195a16.61,16.61,0,0,1-1.4-9,14.38,14.38,0,0,1,4-8.38,20,20,0,0,1,8-4.74,34,34,0,0,1,9-1.62c-.74.17-1.49.33-2.23.48s-1.48.37-2.21.55-1.46.42-2.18.62-1.42.5-2.12.77a21.59,21.59,0,0,0-7.47,4.72,14.6,14.6,0,0,0-4,7.72,17.13,17.13,0,0,0-.23,4.47A16.92,16.92,0,0,0,33.18,195Z"></path>
      <path class="cls-9" d="M83.66,194.18c.14.23.45.31.69.44l.77.32c.52.2,1,.37,1.58.54,1.06.35,2.13.66,3.2,1,2.15.58,4.31,1.11,6.49,1.54,4.36.9,8.77,1.47,13.24,2a48.72,48.72,0,0,1-13.46-.91,47.84,47.84,0,0,1-6.53-1.8A31.77,31.77,0,0,1,86.5,196c-.51-.24-1-.5-1.51-.78A3.54,3.54,0,0,1,83.66,194.18Z"></path>
      <path class="cls-9" d="M54.56,190.93a39.86,39.86,0,0,1-3.59,12,34.81,34.81,0,0,1-3.26,5.39,20.94,20.94,0,0,1-4.51,4.36,37.45,37.45,0,0,0,3.8-4.86,58.52,58.52,0,0,0,3-5.37c.9-1.85,1.69-3.74,2.45-5.66S53.9,192.9,54.56,190.93Z"></path>
      <path class="cls-9" d="M71.36,240.57c2.21-1.08,4.5-1.94,6.73-2.91s4.45-2,6.59-3.07a42.6,42.6,0,0,0,6.11-3.82,17.37,17.37,0,0,0,4.84-5.32,14.08,14.08,0,0,1-4.28,6,31.79,31.79,0,0,1-6.16,4.14,53.23,53.23,0,0,1-6.79,2.89c-1.15.42-2.33.78-3.5,1.12Z"></path>
      <path class="cls-9" d="M46,233.72a15.12,15.12,0,0,1-3.52-2.22,8.5,8.5,0,0,1-2.54-3.43,5,5,0,0,1-.31-2.21,5.63,5.63,0,0,1,.67-2.15,10.39,10.39,0,0,1,2.94-3.17,28.24,28.24,0,0,1,7.5-3.72,56,56,0,0,1,8-2.09c-2.6.94-5.18,1.86-7.71,2.9a33.85,33.85,0,0,0-7.14,3.8,9.39,9.39,0,0,0-2.69,2.79,4.37,4.37,0,0,0-.46,3.58,8.45,8.45,0,0,0,2.1,3.3A17.68,17.68,0,0,0,46,233.72Z"></path>
      <path class="cls-9" d="M95.63,192.92l4-5.55c1.33-1.86,2.63-3.73,3.85-5.64a56.5,56.5,0,0,0,3.41-5.88,19.16,19.16,0,0,0,2.13-6.41,14.56,14.56,0,0,1-1.34,6.77,38.13,38.13,0,0,1-3.26,6.12A57.84,57.84,0,0,1,95.63,192.92Z"></path>
      <path class="cls-10" d="M73.16,173.66c0,2.92-.92,5.6-1.54,8.17a18.28,18.28,0,0,0-.64,3.81,10.85,10.85,0,0,0,.5,3.7,34.6,34.6,0,0,0,3.46,7.09,24.35,24.35,0,0,1,3.23,7.73,18.66,18.66,0,0,1-.76,8.36c-.77,2.66-1.88,5.15-2.7,7.69a19,19,0,0,0,1.47,15.5,19,19,0,0,1-3-7.57,19.31,19.31,0,0,1,.53-8.21c.7-2.67,1.73-5.19,2.37-7.76a17.17,17.17,0,0,0,.47-7.71,24.23,24.23,0,0,0-3.17-7.14,33.93,33.93,0,0,1-3.73-7.45,12.74,12.74,0,0,1-.55-4.31,20.26,20.26,0,0,1,.7-4.19c.73-2.66,1.62-5.18,1.71-7.72h0a.81.81,0,0,1,1.62,0Z"></path>
      <path class="cls-10" d="M73.3,172.87a19.69,19.69,0,0,0,3.72,4.6,12,12,0,0,0,5.33,2.17A55.28,55.28,0,0,1,88.66,181a12.17,12.17,0,0,1,3.06,1.48,10.47,10.47,0,0,1,2.42,2.37,16.8,16.8,0,0,1,2.68,6c.52,2.1.77,4.22,1.08,6.3a28.36,28.36,0,0,0,1.45,6.13,12.21,12.21,0,0,0,3.51,5.16,12.27,12.27,0,0,1-3.82-5,29.4,29.4,0,0,1-1.8-6.14c-.42-2.08-.78-4.16-1.39-6.15a15.46,15.46,0,0,0-2.76-5.42,9.41,9.41,0,0,0-2.2-1.94,11.17,11.17,0,0,0-2.71-1.13,56.7,56.7,0,0,0-6.18-1,21.65,21.65,0,0,1-3.26-.71,11.45,11.45,0,0,1-3.16-1.59,21.69,21.69,0,0,1-4.5-5,1.32,1.32,0,0,1,2.17-1.51l0,.06Z"></path>
      <path class="cls-10" d="M73,173.6a7.25,7.25,0,0,1-1.39,3.67,13.41,13.41,0,0,1-2.5,2.76,8.89,8.89,0,0,1-1.59,1.08c-.54.28-1.08.54-1.63.78-1.09.48-2.2.9-3.3,1.29a45.35,45.35,0,0,0-6.35,2.59,13,13,0,0,0-4.9,4.28,14.29,14.29,0,0,0-1.81,6.34c-.22,2.28-.28,4.61-.44,7a29.89,29.89,0,0,1-1.17,7,14,14,0,0,1-3.59,6,17.88,17.88,0,0,0,2.73-6.29,36.79,36.79,0,0,0,.87-6.81c.1-2.31.1-4.64.27-7a15.54,15.54,0,0,1,1.85-7,14.16,14.16,0,0,1,5.42-4.9A45.17,45.17,0,0,1,62,181.58c1.08-.4,2.16-.8,3.2-1.25.52-.23,1-.47,1.52-.73a7.2,7.2,0,0,0,1.3-.87,11.85,11.85,0,0,0,2.17-2.41,5.54,5.54,0,0,0,1.11-2.75v0a.85.85,0,0,1,1.69.05Z"></path>
      <path class="cls-10" d="M48.9,203.63a30,30,0,0,1,2.68,4.28,8.42,8.42,0,0,1,.73,5,8.16,8.16,0,0,0-1.2-4.71,29.85,29.85,0,0,0-3-3.9Z"></path>
      <path class="cls-10" d="M49.7,192.45a15.5,15.5,0,0,1,3.43,6.17,15.69,15.69,0,0,1,.52,7,15.62,15.62,0,0,0-.8-6.88,15.14,15.14,0,0,0-3.57-5.84Z"></path>
      <path class="cls-10" d="M57.2,184.74a8.74,8.74,0,0,1-.08,3.35,22.17,22.17,0,0,1-.87,3.12,19.9,19.9,0,0,1-3.19,5.53,19.65,19.65,0,0,0,2.67-5.7,20.34,20.34,0,0,0,.61-3.07,7.92,7.92,0,0,0-.13-3Z"></path>
      <path class="cls-10" d="M67.26,180.77a23.33,23.33,0,0,1-3,6.68,21.48,21.48,0,0,1-4.77,5.41,21.15,21.15,0,0,0,4.33-5.67,22.26,22.26,0,0,0,2.39-6.63Z"></path>
      <path class="cls-10" d="M71.74,191A10.59,10.59,0,0,1,69,197.76a32.63,32.63,0,0,1-5.31,4.69,23.36,23.36,0,0,0-5,4.76,9,9,0,0,0-1.87,6.52,9.13,9.13,0,0,1,1.6-6.7,23.78,23.78,0,0,1,4.86-5.1,31.75,31.75,0,0,0,5-4.8,9.46,9.46,0,0,0,2.23-6.06Z"></path>
      <path class="cls-10" d="M76.39,200.12a13.4,13.4,0,0,1-1.66,4.25A16.73,16.73,0,0,1,72,207.91c-1,1.05-2.17,2-3.12,3.12a8.29,8.29,0,0,0-2,3.87,8.35,8.35,0,0,1,1.78-4c.9-1.19,2-2.23,2.94-3.32A16.66,16.66,0,0,0,74.06,204a12.61,12.61,0,0,0,1.32-4Z"></path>
      <path class="cls-10" d="M77.73,210.07a8.8,8.8,0,0,1-1.79,2.3,23.12,23.12,0,0,1-2.14,1.84,31.29,31.29,0,0,1-4.72,2.95,21.13,21.13,0,0,0-4.55,3A7.5,7.5,0,0,0,62,224.89,7.67,7.67,0,0,1,64.33,220a21.43,21.43,0,0,1,4.47-3.3,32.05,32.05,0,0,0,4.5-3.1,21.66,21.66,0,0,0,2-1.84,8.21,8.21,0,0,0,1.52-2.08Z"></path>
      <path class="cls-10" d="M65.24,219.39a5,5,0,0,0-3-.77,8,8,0,0,0-3.06.79,8.12,8.12,0,0,1,3-.92,5.2,5.2,0,0,1,3.13.67Z"></path>
      <path class="cls-10" d="M69.61,216.66a8.73,8.73,0,0,0-.24,1.94c0,.66,0,1.33-.1,2a7.24,7.24,0,0,1-1.59,3.68A7.17,7.17,0,0,0,69,220.58c0-.65,0-1.32,0-2a9,9,0,0,1,.18-2.05Z"></path>
      <path class="cls-10" d="M73.88,221.76a14.55,14.55,0,0,1,4.28,3.13,17.32,17.32,0,0,1,3,4.23,17.26,17.26,0,0,0-3.35-3.92,14,14,0,0,0-4.3-2.64Z"></path>
      <path class="cls-10" d="M77.71,224.73a26,26,0,0,0-.35,3.17,14.11,14.11,0,0,0,.15,3.18,14.76,14.76,0,0,1-.28-3.18,26.34,26.34,0,0,1,.23-3.2Z"></path>
      <path class="cls-10" d="M76.85,213.72a18.56,18.56,0,0,0,2,2.64,29.2,29.2,0,0,0,2.33,2.39c.81.77,1.71,1.44,2.53,2.21a6.8,6.8,0,0,1,1.92,2.74,6.06,6.06,0,0,0-2-2.62c-.86-.7-1.79-1.33-2.68-2a55.31,55.31,0,0,1-5.18-4.46Z"></path>
      <path class="cls-10" d="M86.3,212.17a10.27,10.27,0,0,0,.6,8A10.57,10.57,0,0,1,85.77,212Z"></path>
      <path class="cls-10" d="M77.62,203.82a29.37,29.37,0,0,0,3.41,4,30.32,30.32,0,0,0,4.07,3.35c1.43,1,3,1.84,4.42,3a7.13,7.13,0,0,1,2.83,4.42,7.39,7.39,0,0,0-3-4.19c-1.41-1-3-1.79-4.52-2.78a30.79,30.79,0,0,1-4.2-3.34,24.32,24.32,0,0,1-3.51-4.06Z"></path>
      <path class="cls-10" d="M82.77,209.58a25.88,25.88,0,0,1,2.92.07c1,.07,1.93.17,2.89.31a12.77,12.77,0,0,1,2.85.64,3.23,3.23,0,0,1,1.88,2.12,3.16,3.16,0,0,0-1.93-2,15,15,0,0,0-2.83-.49,55.64,55.64,0,0,0-5.77-.21Z"></path>
      <path class="cls-10" d="M75.07,197.79a7.19,7.19,0,0,1,3.34.31,9.1,9.1,0,0,1,2.88,1.5,17.9,17.9,0,0,1,2.31,2.21,9.46,9.46,0,0,1,1.78,2.6,9.38,9.38,0,0,0-2-2.42A16.1,16.1,0,0,0,81,200a8.54,8.54,0,0,0-2.78-1.19,6.08,6.08,0,0,0-2.9-.06Z"></path>
      <path class="cls-10" d="M67.91,198.55a18.65,18.65,0,0,1-.76,5,11.61,11.61,0,0,1-2.37,4.45,11.45,11.45,0,0,0,2-4.54,18.25,18.25,0,0,0,.41-4.94Z"></path>
      <path class="cls-10" d="M60.63,204.87a12.38,12.38,0,0,1-.71,8.86,12.1,12.1,0,0,0,.22-8.7Z"></path>
      <path class="cls-10" d="M66.2,200.19c-1.8.13-3.59.2-5.39.27-.9,0-1.81,0-2.69.08a5.1,5.1,0,0,0-2.5.86,5.08,5.08,0,0,1,2.48-1c.91-.13,1.8-.12,2.69-.21,1.79-.15,3.59-.29,5.36-.5Z"></path>
      <path class="cls-10" d="M69.64,195.29a13.83,13.83,0,0,0-10.54-.4A14.32,14.32,0,0,1,70,194.46Z"></path>
      <path class="cls-10" d="M49,195.51a12.53,12.53,0,0,0-4.8,2.73,12,12,0,0,0-3.31,4.53A12.17,12.17,0,0,1,44,198a12.87,12.87,0,0,1,4.84-3.14Z"></path>
      <path class="cls-10" d="M48.15,208a9.69,9.69,0,0,0-3.92,2,8.7,8.7,0,0,0-2.77,3.5,6.42,6.42,0,0,1,1.06-2,11.74,11.74,0,0,1,1.55-1.68,10,10,0,0,1,4-2.3Z"></path>
      <path class="cls-10" d="M53.67,186.89a16.56,16.56,0,0,0-8.58.19,17.57,17.57,0,0,0-7.65,4.25,17.69,17.69,0,0,1,7.5-4.73,17.27,17.27,0,0,1,9-.71Z"></path>
      <path class="cls-10" d="M65.12,181.82a38.49,38.49,0,0,1-5.38-.79,10,10,0,0,0-5.24.25,10.29,10.29,0,0,1,5.3-.76,38.23,38.23,0,0,0,5.29.28Z"></path>
      <path class="cls-10" d="M70.7,185.25a8.57,8.57,0,0,0,2.3,2.68,20.69,20.69,0,0,0,3.12,2,25.17,25.17,0,0,0,7,2.65c2.43.6,5,.85,7.33,2a8.49,8.49,0,0,1,2.86,2.5,22.53,22.53,0,0,1,1.91,3.29,21.43,21.43,0,0,0-2-3.24,7.91,7.91,0,0,0-2.88-2.38c-2.29-1.09-4.86-1.23-7.35-1.74a27.44,27.44,0,0,1-7.28-2.41c-2.26-1.15-4.64-2.39-6.27-4.72Z"></path>
      <path class="cls-10" d="M76.72,190.56a7,7,0,0,1,2.6-1.41,10.34,10.34,0,0,1,2.86-.49,12.16,12.16,0,0,1,5.49,1.54A12,12,0,0,0,82.2,189a9.76,9.76,0,0,0-2.72.61,6.64,6.64,0,0,0-2.32,1.4Z"></path>
      <path class="cls-10" d="M80.08,191.77a9.23,9.23,0,0,1,3,3.4c.74,1.32,1.23,2.74,2,4-.91-1.2-1.5-2.59-2.32-3.83a8.81,8.81,0,0,0-3.09-3Z"></path>
      <path class="cls-10" d="M76.79,178.65A17.81,17.81,0,0,0,76.3,184a9.36,9.36,0,0,0,1.87,5.06,9.58,9.58,0,0,1-2.38-5,18.64,18.64,0,0,1,0-5.63Z"></path>
      <path class="cls-10" d="M89.05,182.1a20.25,20.25,0,0,0-.53,5.72,15.18,15.18,0,0,0,1.26,5.66A15.27,15.27,0,0,1,88,187.86a21,21,0,0,1,0-6Z"></path>
      <path class="cls-10" d="M97.3,194.16a17.08,17.08,0,0,0-3.63,4.06,22.06,22.06,0,0,0-1.43,2.38,5.52,5.52,0,0,0-.64,2.68,5.69,5.69,0,0,1,.39-2.79,21.31,21.31,0,0,1,1.22-2.55,17.85,17.85,0,0,1,3.45-4.58Z"></path>
      <path class="cls-10" d="M97.59,196.25a8.65,8.65,0,0,1,7.51,6.86,8.13,8.13,0,0,0-7.56-5.83Z"></path>
      <path class="cls-10" d="M95.05,186.93a6,6,0,0,1,4.31,1.82,10,10,0,0,1,2.3,3.9A9.64,9.64,0,0,0,99,189.14,5.27,5.27,0,0,0,95.13,188Z"></path>
      <path class="cls-10" d="M77.36,178.48a13.93,13.93,0,0,1,7.46-1.59,12.86,12.86,0,0,1,7.05,2.49,12.69,12.69,0,0,0-7.06-2,13.14,13.14,0,0,0-6.93,2Z"></path>
      <polygon class="cls-3" points="16.19 160.5 69.56 183.15 123.73 160.09 123.22 159.95 16.19 160.5"></polygon>
      <ellipse class="cls-1" cx="71.27" cy="161.18" rx="12.51" ry="4.89"></ellipse>
      <ellipse class="cls-11" cx="71.59" cy="162.83" rx="10.31" ry="4.03"></ellipse>
      <path class="cls-12" d="M94.2,128.8a8.66,8.66,0,0,1,2.5-.24c2,.37,2.8-.67,3.63-2.18a34,34,0,0,0,4.18-17,5.24,5.24,0,0,0-1.61-4,9.28,9.28,0,0,1-1.37-1.7c-.3-.45-.28-1,.46-.79,2.2.62,4.87.35,6,3.08.27.65.67.41,1.07.14a12.46,12.46,0,0,1,6-1.68,14.54,14.54,0,0,0,7.84-3.24c.43-.34.85-1.19,1.53-.57.5.46,0,1-.25,1.52-1.82,3.37-3.29,6.92-5.46,10.09-2.61,3.79-6.43,5.44-10.12,4.49-.92-.23-1.8-1.46-2.58-.81-.57.49-.39,1.8-.64,2.72a35.58,35.58,0,0,1-3.69,9.22c-.51.84-.66,1.2.53,1.57,4.56,1.41,8.78,1.17,12.51-2.12.34-.3.69-.68,1.18-.39s.3.7.11,1.06c-2.24,4.29-4.21,8.8-8,12s-8,4.69-13,3.07A10.64,10.64,0,0,1,89.73,139c-2,.32-3.81,1.33-5.72,2A66.93,66.93,0,0,1,75,142.05c-1.31,0-1.54,1-1.45,2.14a161.79,161.79,0,0,1,.38,19.94c0,.61-.14,1.22-.22,1.83a2.1,2.1,0,0,1-2.57,0,16.59,16.59,0,0,1-.15-4.22c.29-5.7-.21-11.38-.46-17.06-.06-1.37-.61-2-2.07-2a45.87,45.87,0,0,1-17.88-3c-.74-.3-1.29-.39-1.45.63-1.13,7.46-7.47,11.36-13.78,12.5-5.75,1-11-.72-16.3-2.66-2-.74-4-1.6-5.93-2.45-.44-.19-1-.44-.82-1.1s.64-.6,1.11-.58c7.46.29,12.1-3.93,15.8-9.78,1.47-2.32,3.09-4.61,5.78-5.76.83,1.87,1.57,3.83,3.76,4.59A4.72,4.72,0,0,1,41,137.82c-.37,1-1.37,1.3-2.07,1.93a29.86,29.86,0,0,1-14.08,6.71c-1.39.29-2.94-.09-4.6.86A25.64,25.64,0,0,0,37.9,142.4c1.7-1.21,3.58-2.34,4.7-4.24a3.53,3.53,0,0,0,1-1.69,1.68,1.68,0,0,1,1.67-1.36,3.68,3.68,0,0,0,2.76-.27l.85-.11c0,1.31.67,1.92,1.89,2.39,5.36,2.1,10.83,3.34,16.62,2.76.48,0,1.14.07,1.31-.49s-.51-.66-.83-.92c-5.51-4.46-11.6-6.28-18.57-4,.73-1,2-1.48,2.6-2.6a1.75,1.75,0,0,0,.48.11,21.51,21.51,0,0,1,15.94,4.72c.21.16.44.36.81.06A5.93,5.93,0,0,0,69,136c-1.34-5.41-2.51-10.86-3.43-16.36-.87-5.19-2.38-10.07-5.75-14.26a87.66,87.66,0,0,1-8.18-12.19c-.64-1.13-1.5-.83-2.3-.4a6.58,6.58,0,0,0-1.55,1.3c-1,1-2.35,2.11-1.69,3.74S48.56,99,50,99c.5,0,1.21-.62,1.53.34l-1.46.14a2.59,2.59,0,0,0-1.93.67c-.59.7-1.12.38-1.7.11v0L46,100a3,3,0,0,0-3.85-.58c-1.61.89-3,1.32-4.5.14l-.05.1c.11-.36-.15-.3-.35-.32l-.42-.16c-.29-.64-.83-1.28,0-2.1A2.53,2.53,0,0,0,39.73,99a4,4,0,0,0,3.08-2.11c.67-1.05,1.25-2.15,1.94-3.17a6.46,6.46,0,0,1,3.89-2.8c1.28-.31,1.31-.86.73-1.85-1.41-2.44-2.59-5-4.22-7.31-.9-1.25-2-2.12-1.54-3.91.19-.78-.6-.51-1.06-.26-1.42.78-2.26,2.18-3.36,3.29a10.81,10.81,0,0,1-5.12,2.79c1.14-2.85,1.36-6.08,5.27-6.64-.76-.81-1.25-1.15-2-.59-3.29,2.49-6.76,1.79-10.28.56-3.88-1.34-5.83-4.64-7.91-7.78-1.24-1.88-2.3-3.87-3.45-5.8-.19-.33-.58-.68-.15-1s.72.12,1,.33a8.82,8.82,0,0,0,6,1.43c3.74-.28,7.46-.29,10.87,1.62s5.47,4.41,5.17,8.53c-.12,1.58,1.45,1.11,2.24,1.62.1-.2.2-.34.17-.38a5.81,5.81,0,0,1-.09-6.64c1.25-2.19.18-4.54,0-6.79-.26-3.14-.66-6.28-.71-9.44,0-1.08-.31-1.63-1.39-1.9-3.77-1-5.46-4.1-7.27-7.1a.49.49,0,0,1,.14-.73.78.78,0,0,1,.95.08c2.21,1.81,5.38,2.09,7.3,4.88.28-1.41.61-2.53-.15-3.46-4-4.94-2.89-10-.28-15,1.39-2.66,2.82-5.29,2.75-8.42,0-.27,0-.61.39-.62a.67.67,0,0,1,.55.27c2.12,4.64,4.93,9,5,14.39a10,10,0,0,1-2.78,7.72c-.26.25-.65.49-.55,1.13,1.92-.47,3.91-.61,5.56-1.9.31-.24.65-.81,1.14-.31.34.36,0,.78-.16,1.09-2,2.91-4.08,5.73-7.71,6.73-1,.28-1.41.71-1.39,1.75a101.83,101.83,0,0,0,3.42,25.41,39.51,39.51,0,0,0,4.35,9.52,80.3,80.3,0,0,0,5.06,8c.8-4.43.92-8.44-.6-12.36-.67-1.73-1.49-3.4-2.28-5.09C50,71.88,50.66,67.56,54.4,63.6a4.68,4.68,0,0,0,1.37-3A12.67,12.67,0,0,1,56.46,57a7.59,7.59,0,0,1,6-5,6.36,6.36,0,0,0-8.22-.19,8,8,0,0,1-5.51,1.67c-.5,0-1.07.09-1.28-.56s.33-.87.79-1.08c1.71-.8,2.15-2.53,2.91-4a6,6,0,0,1,8.93-2.25,2.79,2.79,0,0,1,1.37,3.19c-.35,1.1-.09,1.51.9,1.84a14.88,14.88,0,0,1,2.08,1.07c-.82-2.65-.17-5.28-2.51-7.4-3.85-3.5-4.22-8.14-3-13,.2-.81-.11-2.22.92-2.32s.54,1.34,1,2a19.6,19.6,0,0,0,2.84,3.61c2.7-6.57,5.8-12.83,6.7-19.85A26.65,26.65,0,0,0,70.63,10c0-.6-.1-1.2.59-1.39s1,.3,1.21.88c2.27,6.77,5.56,13.2,6.75,20.32.78,4.65,0,9-3.17,12.67C73.85,45,71,46,67.84,46.43c-2.39.36-2.4.34-1.87,2.71C66.84,53,67.45,57,68.7,60.79a22.62,22.62,0,0,0-.77,4.32,69.5,69.5,0,0,1-2.58-9.26c-.58-2.64-2.27-3.34-4.62-1.93-2.83,1.69-3.7,4.36-3.83,7.44,0,.72.3.84.9.86,3.28.12,5.15,2.09,6.08,5,1.67,5.17.63,10.14-1.56,14.92a125.18,125.18,0,0,1-6.5,12.55.62.62,0,0,0,0,.76c2.21,3.19,4.42,6.39,6.65,9.57a.73.73,0,0,0,.51.35c.37,0,.33-.37.35-.64A90.85,90.85,0,0,1,65.75,91.1c.91-4,1.8-8,3.94-11.62a11.82,11.82,0,0,1,.83,3.36c-1.7,7.32-3.91,14.54-4.27,22.17a15.57,15.57,0,0,1,4.69-3.32c.7-.32.86-.68.44-1.43a6.13,6.13,0,0,1,0-5.68,13.1,13.1,0,0,1,3.17-4.31l.45.64c0,.7-.21,1.48.65,1.85s1.46-.16,2-.74c.19-.2.35-.43.52-.64a.65.65,0,0,0,.57-.48h.09c1.83-.55,3.72-1,5.18-2.35a10.59,10.59,0,0,0,2.37-1.9,32.09,32.09,0,0,0,7-2.18,1.74,1.74,0,0,0,1.25-1.74c.12-2.3.29-4.59.47-6.88a2,2,0,0,0-.65-1.66,13.48,13.48,0,0,1-2.65-3.86,42.31,42.31,0,0,0-.12-8.93c1.47,2,3.56,3.62,4.43,6.09.25.71.71.41,1,.14,2.13-1.66,4.74-2,7.24-2.63a12.38,12.38,0,0,0,9-7.23c.16-.35.18-.87.72-.74s.39.62.39,1c0,6.31-1.28,12.19-6.08,16.79a10.56,10.56,0,0,1-5.84,3.13c-1.63-.29-3.39.14-4.9-.88-.47-.32-.79,0-.79.47,0,1.69-.48,3.38-.21,5.22a10.29,10.29,0,0,0,4.08-3.39c.44-.61.82-1.27,1.74-.84.68,1.37-.16,2.53-.67,3.65a17.54,17.54,0,0,1-4.86,6,2.74,2.74,0,0,0-1.19,1.76c-.53,4.42-1.5,8.76-2.31,13.14-.07.36-.4.81,0,1.08s.74-.09,1.08-.29c2.75-1.63,4.76-4.1,7.05-6.25.4-.37.22-.82.23-1.26.14-5,1.62-8.74,6.63-10.68a25.17,25.17,0,0,0,7.88-5c-.06,2.23-1.24,4-2.41,5.78-2.09,3.12-5.15,5.27-8,7.58-1.32,1-2.64,2.12-3.09,3.88,3.47-2.82,7.45-5,10.26-8.58A25.08,25.08,0,0,0,117,81.7c.22-.66,0-.94-.59-1.14.19-.86.89-1.4,1.31-2.12a.63.63,0,0,1,.85-.33.67.67,0,0,1,.36.85c-1.22,5.46-1.33,11.22-4.27,16.23-1.94,3.32-6.48,6.13-11,3.79-.75-.39-1.1,0-1.57.43A49.7,49.7,0,0,1,96,105c-.71.51-.75.78,0,1.28a9.81,9.81,0,0,1,3.44,4.3,6.78,6.78,0,0,1-2.44,8.9c-.51.36-1,.67-1.57,1-1.88.51-3.81.89-5.41,2.13-1.29,0-1-.8-.72-1.49s.75-1.62,1.13-2.42c3-3.24,3.19-7,2.08-11.47-1,2.27-2.26,3.9-2.84,5.88l-9.47,16.69-.6,1.06-3.15,5.08c-.64,1-1.27,2-1.93,2.94-.36.52-.26.9.35.91,1.82,0,3.67.52,5.45-.24a6.43,6.43,0,0,0,3.29-.6A7.21,7.21,0,0,0,87,137.68c1.43-.14,2.25-.76,2-2.37a3.85,3.85,0,0,1,.59-2.24A10,10,0,0,1,94.2,128.8Zm-15-23.7c.83-.4,1.65.07,2.48,0,1.72-.1,2.47-1.24,1.62-2.73a12.6,12.6,0,0,0-1.85-2.4,1.65,1.65,0,0,0-2.25-.28,26.6,26.6,0,0,1-4.78,2.08,12.53,12.53,0,0,0-6,4,7.09,7.09,0,0,0-1.68,5.67c.65,4.51,1.56,9,2.62,13.42.89,3.72,1.66,7.46,2.5,11.19.09.41,0,1,.58,1.08.41,0,.58-.48.77-.81.61-1,1.19-2,1.78-3.05a80.84,80.84,0,0,0,5.48-8.69c2.92-5,5.85-10,8.29-15.26.59-.74,1.42-1.62,1.11-2.45-.17-.47-1.48-.22-2.25.13a4.81,4.81,0,0,1-4.85-.65c-1.09-.66-2.4-.46-3.55-.91v-.35Zm3-6.95a9.28,9.28,0,0,1,3.81,5,4.37,4.37,0,0,0,1.59,2.13c1.5,1.12,3,.69,3.49-1.11.58-2.16,1.1-4.35,1.5-6.56a41,41,0,0,0,1-6.7A113.85,113.85,0,0,1,82.22,98.15ZM71.59,14.24A2.8,2.8,0,0,0,72,16.33a18.06,18.06,0,0,1,.28,15.61,31.57,31.57,0,0,1-4.74,7.52c-1.07,1.34-2.18,2.81-1.94,4.8C67.5,42,69.27,39.51,71,37.07c4-5.78,4.26-12.24,2.66-18.87A12.62,12.62,0,0,0,71.59,14.24Zm41.16,46.38c-.68,3.88-3.24,5.85-6.06,7.27-2.06,1-4.24,1.72-6.33,2.65a4.89,4.89,0,0,0-3.27,4.38c2.55-3.26,6.09-4.06,9.4-5.38a10.6,10.6,0,0,0,5.33-4.46C112.59,63.75,113.49,62.31,112.75,60.62ZM55.9,63.3c1.29,8.53,4.5,17,1,25.69C60.88,84,58.92,69.23,55.9,63.3ZM42.82,23.21c-.59,1.25.33,1.82.44,2.58a22.55,22.55,0,0,1-1.6,12.64c-.81,1.87-1,3.64-.2,4.92.66-3.53,2.92-6.45,3.16-10S44.71,26.55,42.82,23.21Zm68,108.49c-4.26,2.61-8.65,4.44-13.77,4.28-1.46,0-3,.18-4.51.29a2.84,2.84,0,0,0-2.33,1.12c3-.9,5.93-.18,8.89-.37a21.11,21.11,0,0,0,8.87-2.76C109,133.68,110.38,133.12,110.82,131.7Zm-74.09-57A1.93,1.93,0,0,0,35.65,73a19.58,19.58,0,0,0-5.25-2.63c-4-1.49-8.29-2.48-11.4-5.77,0,0-.18.08-.3.13a2.45,2.45,0,0,0,1.13,1.78,19.37,19.37,0,0,0,4.48,2.63C28.41,70.88,32.8,72,36.73,74.71Zm81.52,31.88a25.25,25.25,0,0,1-7.83,4.16,39.94,39.94,0,0,0-3.79,1.8c-.31.15-.68.39-.49.76s.58.2.88,0c1.79-1.23,3.92-1.65,5.87-2.5C115,109.89,117.15,108.89,118.25,106.59ZM42.37,46.5c.75-.93,1.6-1.36,1.89-2.45C42.81,44.14,41.88,44.5,42.37,46.5Z"></path>
      <path class="cls-12" d="M73.05,56.05c-.39-.32-.91-.49-1.1-1-.1-.28-.12-.59.15-.76s.44.07.66.28c1.4,1.35,2.58,1.32,3.87-.08A8.06,8.06,0,0,0,78,52c1-2.5,2.68-4.31,5.5-4.65.81-.1,1-.51,1.13-1.18C86,40.28,86.22,34.3,86.8,28.35c.08-.85-.5-1.18-1-1.64-5.42-5.22-6.83-11.62-4-18.32a12.38,12.38,0,0,1,6-6.2C91.56.2,98.93-.68,102.8.6c-3.55,2.14-3.93,5.53-4.15,9.14C98.28,15.83,95.6,21,91.46,25.36c-.18.19-.47.34-.31.85a15.67,15.67,0,0,1,5.81,1,6.89,6.89,0,0,1,3.8,8.13c-.57,2.32-2,4.28-2.56,6.6-.22.88-.8.44-1.17-.12a8.83,8.83,0,0,1-1.19-3.5c-.67-4-3.13-6.59-6.73-8.58A121.88,121.88,0,0,1,86,51.9a23.73,23.73,0,0,0,4.2-2.43c3.64-3,7.55-4.41,12.16-2.16a21.32,21.32,0,0,0,7.76,2.09c0,.16,0,.32,0,.48a4.8,4.8,0,0,0-2.1.56,20.71,20.71,0,0,1-7.37,1.49c-2.66.12-5.09-.77-7.57-1.46-1-.29-2-.45-2.75.54a9.94,9.94,0,0,1,3.63.7,13.33,13.33,0,0,0,10.93.81c1.83-.63,3.88-1,5.23-2.64.32,0,.58-.11.64-.48l2.65-.39c.44,0,1-.25,1.22.27s-.32.89-.71,1.14c-2.92,1.9-5.85,3.8-8.81,5.63s-6.3,3-9.94,2.24a7.22,7.22,0,0,1-6-5.69c-.2-.85-.45-.92-1.07-.44a10.94,10.94,0,0,0-3.09,3.05l-.66,0a13,13,0,0,0-3.44.68c-1.4,1.3-3,1.25-4.69.7C75.19,56,74,56.43,73.05,56.05ZM98,2.09A13.81,13.81,0,0,0,88.92,9.8a13.37,13.37,0,0,0-1,6.85c.26,2.84,1.12,5.66.27,8.93,1.66-1.79,1.72-4.65,1.31-6.58-1.11-5.16,0-9.64,3.92-13.36A30.65,30.65,0,0,1,98,2.09Zm-14.2,48.2c.18-.95.17-1.41-.66-1.2-1.07.27-3.19,3.13-3,4.19a1.67,1.67,0,0,0,1.38,1.51c1,.23,1.13-.49,1.33-1.13C83.19,52.43,83.53,51.18,83.79,50.29Z"></path>
      <path class="cls-12" d="M34.21,127.37a39,39,0,0,1-7-13.92c-.29-1-.28-2.33-.93-2.81-.83-.62-1.48.79-2.28,1.21-4,2.1-9.34,1.16-13.09-2.41a21.78,21.78,0,0,1-3.39-4C5.1,101.62,2.74,97.72.33,93.85,0,93.38-.2,92.92.25,92.47s.93-.1,1.33.21a19.92,19.92,0,0,0,12.62,4,16.36,16.36,0,0,1,7.54,1.79A13.59,13.59,0,0,0,21,95c-.12-.65-.55-.77-1.13-.65-3.7.77-6.89-.39-9.82-2.56-.35-.26-.91-.4-.75-1s.76-.43,1.16-.35c2.74.55,5.65-.66,8.32.8.66.36.79-.17.58-.68-.35-.81-.64-1.66-1.63-2-5.71-2.11-7.56-6.67-7.65-12.28-.05-3.32.16-6.67-1.54-9.73-.13-.24-.23-.57.06-.75a.68.68,0,0,1,.62,0c4.41,3.29,9.27,6.14,11.7,11.43a9.51,9.51,0,0,1,.37,7.56.81.81,0,0,0,.2,1c1.39-1.48,3.2-2.53,4.1-4.49.18-.38.35-1,.91-.79s.34.75.29,1.18c-.43,3.57-1.12,7-3.87,9.67-1.8,1.73,0,3.3.15,5.57,1.9-3,4.86-2.61,7.22-3.67.26-.12.56-.22.78,0a.66.66,0,0,1,0,.79,12.64,12.64,0,0,1-1.33,2,9.15,9.15,0,0,0-2.17,7.69,59.33,59.33,0,0,0,3.52,13.51,17.7,17.7,0,0,0,1,1.94A43.5,43.5,0,0,1,34.21,127.37Zm-8-19.48a7.49,7.49,0,0,0-4.41-2.74c-5.09-1.47-10.1-3-14.17-6.67-.07-.06-.28,0-.64.1a20.51,20.51,0,0,0,6.65,5.15c2.25,1.22,4.77,1.61,7.18,2.3C22.63,106.55,24.29,107.46,26.19,107.89ZM10.74,68.58c-.3.45-.05.65.13.85a21.16,21.16,0,0,1,5.06,11.12c.3,1.8.16,3.72,1.2,5.36.2.32.31.86.79.7s.17-.64.09-1a9,9,0,0,1-.42-2,19.55,19.55,0,0,0-3.43-11.38C13.19,70.92,12.33,69.4,10.74,68.58ZM21.21,86.11c-1.84,1.08-1.89,1.39-.6,2.74C20.8,88,21,87.21,21.21,86.11Zm0,0,.12-.12a1.2,1.2,0,0,0-.23-.11S21,85.91,21,86Z"></path>
      <path class="cls-13" d="M84.27,55.25l.66,0a8.55,8.55,0,0,1,6.43,5.29c.06.33,0,.72.38.92l0,0a42.31,42.31,0,0,1,.12,8.93c-.55,5.86-1.51,11.59-5.46,16.32A10.59,10.59,0,0,1,84,88.55c-1.68,0-1.59-1.16-1.29-2.25.61-2.23,1.63-4.37,1.26-6.78-.11,0-.26,0-.31.06a1.56,1.56,0,0,0-.35.55,26,26,0,0,1-4.34,10c-.15.2-.1.54-.15.82h-.09a.53.53,0,0,0-.57.48c-.17.21-.33.44-.52.64-.53.58-1.12,1.1-2,.74S75,91.61,75,90.91a3.33,3.33,0,0,0,1.5-2.13c.74-2.29.09-4.48-.52-6.63C74.49,77,73.2,71.84,73.64,66.3a23.77,23.77,0,0,1,2.5-9.67c1.68.55,3.29.6,4.69-.7a6,6,0,0,1,4.53,3.62C86.05,57.53,85.2,56.38,84.27,55.25Z"></path>
      <path class="cls-14" d="M34.21,127.37a43.5,43.5,0,0,0-2.15-8.19,40.22,40.22,0,0,1-1.17-11.67A13.78,13.78,0,0,1,32.38,102a5,5,0,0,1,4.42-2.86l.43.16.35.32.05-.1a6.17,6.17,0,0,1-.3,1.8c-1.36,2.81-.88,5.7-.51,8.59.34,2.66.8,5.32,1,8,.39,4.52.86,9,1.62,13.5.21,1.24.51,2.61-.76,3.58-2.19-.76-2.93-2.72-3.76-4.59C34.7,129.4,34.45,128.39,34.21,127.37Z"></path>
      <path class="cls-14" d="M76.14,56.63a23.77,23.77,0,0,0-2.5,9.67C73.2,71.84,74.49,77,76,82.15c.61,2.15,1.26,4.34.52,6.63A3.33,3.33,0,0,1,75,90.91l-.45-.64a46.36,46.36,0,0,0-4-7.43,11.82,11.82,0,0,0-.83-3.36,78.08,78.08,0,0,1-1.76-14.37,22.62,22.62,0,0,1,.77-4.32,10,10,0,0,1,4.35-4.74C74,56.43,75.19,56,76.14,56.63Z"></path>
      <path class="cls-14" d="M94.2,128.8a10,10,0,0,0-4.56,4.27,3.85,3.85,0,0,0-.59,2.24c.24,1.61-.58,2.23-2,2.37-.26-2.88.76-5.53,1.48-8.23.61-2.26,1.58-4.45,1.49-6.86,1.6-1.24,3.53-1.62,5.41-2.13A55.9,55.9,0,0,1,94.2,128.8Z"></path>
      <path class="cls-13" d="M84,141c1.91-.64,3.7-1.65,5.72-2a6.08,6.08,0,0,0-1,3,1.17,1.17,0,0,1-.87,1.26,1.34,1.34,0,0,1-1.49-.5A6.63,6.63,0,0,0,84,141Z"></path>
      <path class="cls-12" d="M91.74,61.42c-.39-.2-.32-.59-.38-.92A1.07,1.07,0,0,1,91.74,61.42Z"></path>
      <path class="cls-15" d="M110.66,49.4c-.06.37-.32.46-.64.48h0c0-.16,0-.32,0-.48Z"></path>
      <path class="cls-13" d="M38.71,135c1.27-1,1-2.34.76-3.58-.76-4.47-1.23-9-1.62-13.5-.23-2.67-.69-5.33-1-8-.37-2.89-.85-5.78.51-8.59a6.17,6.17,0,0,0,.3-1.8c1.55,1.18,2.89.75,4.5-.14A3,3,0,0,1,46,100l.44.29v0a2.68,2.68,0,0,0,0,.84,25.54,25.54,0,0,1,1,7.28,2.79,2.79,0,0,0,.34,1.11c.13.3.34.61.75.53s.52-.39.56-.74c.13-1.33.23-2.67.37-4,.21-1.93.44-3.87.66-5.8l1.46-.14c3.57,1.3,4.78,4.14,5,7.65a46.61,46.61,0,0,1-.06,8.27c-.61,5.78-1.37,11.53-4.58,16.6-.61,1.12-1.87,1.6-2.6,2.6l-.42.28-.85.11c0-.5.43-.76.64-1.14,1-1.81,2-3.62,1.71-5.82,0-.4-.08-.85-.53-.95s-.57.42-.72.75c-1,2.26-1.45,4.82-3.54,6.5-.21.18-.22.61-.32.93a1.68,1.68,0,0,0-1.67,1.36,3.53,3.53,0,0,1-1,1.69,2.29,2.29,0,0,1-1.61-.34A4.72,4.72,0,0,0,38.71,135Z"></path>
      <path class="cls-13" d="M82.78,106.33a4.81,4.81,0,0,0,4.85.65l1.14,2.32c-2.44,5.26-5.37,10.26-8.29,15.26A80.84,80.84,0,0,1,75,133.25a6.62,6.62,0,0,1-.61-1A40.69,40.69,0,0,1,72,112.47c.45-3.89,3.26-6.29,7.08-6.91-.57,1.42-1.35,2.79-1.06,4.88C79.27,108.19,80.45,106.55,82.78,106.33Z"></path>
      <path class="cls-13" d="M90,122.59c.09,2.41-.88,4.6-1.49,6.86-.72,2.7-1.74,5.35-1.48,8.23a7.21,7.21,0,0,1-3.44,1.25,36.57,36.57,0,0,1-3.41-9.15l9.47-16.69c.53.89.31,1.87.4,2.81s-.32,1.93.36,2.78c-.38.8-.81,1.59-1.13,2.42S88.72,122.61,90,122.59Z"></path>
      <path class="cls-15" d="M71.59,14.24a12.62,12.62,0,0,1,2,4C75.24,24.83,75,31.29,71,37.07c-1.71,2.44-3.48,4.88-5.42,7.19-.24-2,.87-3.46,1.94-4.8a31.57,31.57,0,0,0,4.74-7.52A18.06,18.06,0,0,0,72,16.33,2.8,2.8,0,0,1,71.59,14.24Z"></path>
      <path class="cls-15" d="M41,137.82a2.29,2.29,0,0,0,1.61.34c-1.12,1.9-3,3-4.7,4.24a25.64,25.64,0,0,1-17.66,4.92c1.66-.95,3.21-.57,4.6-.86a29.86,29.86,0,0,0,14.08-6.71C39.62,139.12,40.62,138.81,41,137.82Z"></path>
      <path class="cls-15" d="M112.75,60.62c.74,1.69-.16,3.13-.93,4.46a10.6,10.6,0,0,1-5.33,4.46c-3.31,1.32-6.85,2.12-9.4,5.38a4.89,4.89,0,0,1,3.27-4.38c2.09-.93,4.27-1.62,6.33-2.65C109.51,66.47,112.07,64.5,112.75,60.62Z"></path>
      <path class="cls-14" d="M90.42,118.68c-.68-.85-.26-1.85-.36-2.78s.13-1.92-.4-2.81c.58-2,1.84-3.61,2.84-5.88C93.61,111.68,93.44,115.44,90.42,118.68Z"></path>
      <path class="cls-16" d="M50.06,99.47c-.22,1.93-.45,3.87-.66,5.8-.14,1.33-.24,2.67-.37,4,0,.35-.18.67-.56.74s-.62-.23-.75-.53a2.79,2.79,0,0,1-.34-1.11,25.54,25.54,0,0,0-1-7.28,2.68,2.68,0,0,1,0-.84c.58.27,1.11.59,1.7-.11A2.59,2.59,0,0,1,50.06,99.47Z"></path>
      <path class="cls-15" d="M55.9,63.3c3,5.93,5,20.66,1,25.69C60.4,80.28,57.19,71.83,55.9,63.3Z"></path>
      <path class="cls-15" d="M42.82,23.21c1.89,3.34,2,6.75,1.8,10.16s-2.5,6.45-3.16,10c-.79-1.28-.61-3.05.2-4.92a22.55,22.55,0,0,0,1.6-12.64C43.15,25,42.23,24.46,42.82,23.21Z"></path>
      <path class="cls-15" d="M116.39,80.56c.54.2.81.48.59,1.14a25.08,25.08,0,0,1-3.9,7.55c-2.81,3.55-6.79,5.76-10.26,8.58.45-1.76,1.77-2.83,3.09-3.88,2.89-2.31,6-4.46,8-7.58,1.17-1.74,2.35-3.55,2.41-5.78Z"></path>
      <path class="cls-15" d="M110.82,131.7c-.44,1.42-1.79,2-2.85,2.56A21.11,21.11,0,0,1,99.1,137c-3,.19-5.94-.53-8.89.37a2.84,2.84,0,0,1,2.33-1.12c1.51-.11,3-.33,4.51-.29C102.17,136.14,106.56,134.31,110.82,131.7Z"></path>
      <path class="cls-13" d="M76.44,135.92l3.15-5.08a33.19,33.19,0,0,0,1.48,6.07,1.72,1.72,0,0,1-.9,2.36C78.59,138.53,77.63,137.09,76.44,135.92Z"></path>
      <path class="cls-15" d="M36.73,74.71C32.8,72,28.41,70.88,24.31,69.13a19.37,19.37,0,0,1-4.48-2.63,2.45,2.45,0,0,1-1.13-1.78c.12,0,.28-.16.3-.13,3.11,3.29,7.38,4.28,11.4,5.77A19.58,19.58,0,0,1,35.65,73,1.93,1.93,0,0,1,36.73,74.71Z"></path>
      <path class="cls-16" d="M78.82,90.9c.05-.28,0-.62.15-.82a26,26,0,0,0,4.34-10,1.56,1.56,0,0,1,.35-.55c0-.06.2,0,.31-.06.37,2.41-.65,4.55-1.26,6.78-.3,1.09-.39,2.22,1.29,2.25C82.54,89.91,80.65,90.35,78.82,90.9Z"></path>
      <path class="cls-16" d="M45.29,135.11c.1-.32.11-.75.32-.93,2.09-1.68,2.53-4.24,3.54-6.5.15-.33.19-.86.72-.75s.48.55.53.95c.29,2.2-.71,4-1.71,5.82-.21.38-.64.64-.64,1.14A3.68,3.68,0,0,1,45.29,135.11Z"></path>
      <path class="cls-16" d="M80.31,139.53a.47.47,0,0,1-.14-.26,1.72,1.72,0,0,0,.9-2.36,33.19,33.19,0,0,1-1.48-6.07l.6-1.06a36.57,36.57,0,0,0,3.41,9.15A6.43,6.43,0,0,1,80.31,139.53Z"></path>
      <path class="cls-15" d="M118.25,106.59c-1.1,2.3-3.23,3.3-5.36,4.22-2,.85-4.08,1.27-5.87,2.5-.3.2-.69.36-.88,0s.18-.61.49-.76a39.94,39.94,0,0,1,3.79-1.8A25.25,25.25,0,0,0,118.25,106.59Z"></path>
      <path class="cls-16" d="M79.1,105.56a.13.13,0,0,1,.13-.14c1.15.45,2.46.25,3.55.91-2.33.22-3.51,1.86-4.74,4.11C77.75,108.35,78.53,107,79.1,105.56Z"></path>
      <path class="cls-14" d="M88.77,109.3,87.63,107c.77-.35,2.08-.6,2.25-.13C90.19,107.68,89.36,108.56,88.77,109.3Z"></path>
      <path class="cls-16" d="M78.16,91.38a.53.53,0,0,1,.57-.48A.65.65,0,0,1,78.16,91.38Z"></path>
      <path class="cls-16" d="M46.43,100.28,46,100Z"></path>
      <path class="cls-13" d="M37.58,99.65l-.35-.32C37.43,99.35,37.69,99.29,37.58,99.65Z"></path>
      <path class="cls-15" d="M98,2.09a30.65,30.65,0,0,0-4.56,3.55c-3.89,3.72-5,8.2-3.92,13.36.41,1.93.35,4.79-1.31,6.58.85-3.27,0-6.09-.27-8.93a13.37,13.37,0,0,1,1-6.85A13.81,13.81,0,0,1,98,2.09Z"></path>
      <path class="cls-15" d="M110,49.88c-1.35,1.65-3.4,2-5.23,2.64a13.33,13.33,0,0,1-10.93-.81,9.94,9.94,0,0,0-3.63-.7C91,50,92,50.18,93,50.47c2.48.69,4.91,1.58,7.57,1.46a20.71,20.71,0,0,0,7.37-1.49,4.8,4.8,0,0,1,2.1-.56Z"></path>
      <path class="cls-16" d="M84.27,55.25c.93,1.13,1.78,2.28,1.09,4.3a6,6,0,0,0-4.53-3.62A13,13,0,0,1,84.27,55.25Z"></path>
      <path class="cls-15" d="M26.19,107.89c-1.9-.43-3.56-1.34-5.39-1.86-2.41-.69-4.93-1.08-7.18-2.3A20.51,20.51,0,0,1,7,98.58c.36-.06.57-.16.64-.1,4.07,3.63,9.08,5.2,14.17,6.67A7.49,7.49,0,0,1,26.19,107.89Z"></path>
      <path class="cls-15" d="M10.74,68.58c1.59.82,2.45,2.34,3.42,3.7a19.55,19.55,0,0,1,3.43,11.38,9,9,0,0,0,.42,2c.08.35.47.81-.09,1s-.59-.38-.79-.7c-1-1.64-.9-3.56-1.2-5.36a21.16,21.16,0,0,0-5.06-11.12C10.69,69.23,10.44,69,10.74,68.58Z"></path>
      <path class="cls-12" d="M79.22,105.07c-.21,0-.42,0-.5-.23,0,0,.14-.13.22-.13.26,0,.35.14.24.39Z"></path>
    </g>
  </g>
</svg>
