<?xml version="1.0" encoding="UTF-8"?>
<svg xmlns="http://www.w3.org/2000/svg" xmlns:xlink="http://www.w3.org/1999/xlink" viewBox="0 0 112.9 291.04">
  <defs>
    <style>.cls-1{fill:#8e6848;}.cls-2{fill:url(#Безымянный_градиент_7);}.cls-3{fill:#713e21;}.cls-4{fill:#3d271f;}.cls-5{fill:#69391e;}.cls-6{fill:#6b482f;}.cls-7{fill:#5c3624;}.cls-8{fill:#795135;}.cls-9{fill:#9a734f;}.cls-10{fill:#fff;}.cls-11{fill:#85563a;}.cls-12{fill:#769e59;}.cls-13,.cls-15{fill:none;}.cls-13{stroke:#769e59;stroke-width:0.56px;}.cls-13,.cls-15,.cls-20{stroke-miterlimit:10;}.cls-14{fill:#79a05b;}.cls-15,.cls-20{stroke:#79a05b;}.cls-15{stroke-width:1.27px;}.cls-16,.cls-20{fill:#486f3a;}.cls-17{fill:#f2d95a;}.cls-18{fill:#699f46;opacity:0.48;}.cls-19{fill:#e79e50;}.cls-20{stroke-width:0.16px;}.cls-21{fill:#b8e8b6;opacity:0.46;}</style>
    <linearGradient id="Безымянный_градиент_7" x1="53.83" y1="330.29" x2="59.12" y2="231.81" gradientUnits="userSpaceOnUse">
      <stop offset="0.38" stop-color="#9b714f"></stop>
      <stop offset="0.91" stop-color="#754427"></stop>
      <stop offset="1" stop-color="#6e3c20"></stop>
    </linearGradient>
  </defs>
  <g id="Слой_2" data-name="Слой 2">
    <g id="Слой_1-2" data-name="Слой 1">
      <path class="cls-1" d="M59.15,223.21S69,234.79,76.64,235.27s33.64-7.76,33.64-7.76l2.62-27.1L59.15,181.46Z"></path>
      <path class="cls-1" d="M0,198.49l5.36,35.35s19.05,2.86,22.38,1.91,18.58-6.67,22.86-6.67,8.55-5.87,8.55-5.87V181.46Z"></path>
      <polygon class="cls-2" points="7.92 266.92 59.15 291.04 106.54 267.04 57.27 246.16 7.92 266.92"></polygon>
      <path class="cls-3" d="M7.92,266.92,5.36,233.84s24.29-.48,31-3.81,22.83-6.82,22.83-6.82l-1.88,23Z"></path>
      <path class="cls-4" d="M42.54,235.9a8.64,8.64,0,0,0-2.91-1.71v0s-3.88-1.16-6,1.45-1.75,5.42-.79,5.87a10.15,10.15,0,0,0,1.67.35s.06,0,.1,0a29.48,29.48,0,0,0,3.59-.82,1.68,1.68,0,0,0,.62-.16l.67-.19c1.52-.47,1.7-.13,2.75-1A4.09,4.09,0,0,0,43.38,237a3.08,3.08,0,0,0-.21-.51h0l0,0A1,1,0,0,0,42.54,235.9Z"></path>
      <path class="cls-4" d="M21.74,239.31a11.18,11.18,0,0,0-4.12,1.36v0s-4.41,2.76-3.69,7,3.75,6.29,5,5.75a16.3,16.3,0,0,0,1.75-1.32s0-.1,0-.13c.94-1.08,1.63-3.24,2.26-4.16a2.2,2.2,0,0,0,.37-.74c.1-.2.21-.43.38-.81.83-1.86,1.32-1.75,1.33-3.54a5.23,5.23,0,0,0-1.58-3.29,4.63,4.63,0,0,0-.67-.23v0h-.08A1.27,1.27,0,0,0,21.74,239.31Z"></path>
      <path class="cls-5" d="M59.15,223.21l-1.88,23L106.54,267l3.74-39.53s-15.36-1.77-22-.82S70,230.51,66.48,228.6A45.59,45.59,0,0,1,59.15,223.21Z"></path>
      <path class="cls-4" d="M40.38,246.79a3.39,3.39,0,0,0-1.28-.31h0A2.34,2.34,0,0,0,37,247.68c-.5,1.22,0,2.23.36,2.3.11,0,.46,0,.67-.06l0,0a11.13,11.13,0,0,0,1.26-.7.86.86,0,0,0,.21-.13l.23-.15c.52-.35.63-.24.92-.7a1.64,1.64,0,0,0,.13-1.11l-.14-.17h0A.39.39,0,0,0,40.38,246.79Z"></path>
      <path class="cls-4" d="M88.65,236.91a2.21,2.21,0,0,0-.11-.91h0s-.39-1-1.3-1.06-1.47.52-1.41.8c0,.08.14.29.2.42h0a7.19,7.19,0,0,0,.77.65.53.53,0,0,0,.14.1l.15.12c.35.25.31.34.68.42a1.1,1.1,0,0,0,.75-.19l.08-.13h0v0A.22.22,0,0,0,88.65,236.91Z"></path>
      <path class="cls-4" d="M102.42,253.5a11.16,11.16,0,0,0-2-3.91h0s-3.39-4-7.53-2.66-5.74,4.65-5,5.82a15.32,15.32,0,0,0,1.57,1.57s.1,0,.14,0c1.22.79,3.47,1.17,4.48,1.66a2.38,2.38,0,0,0,.79.26c.22.08.46.15.86.26,2,.56,2,1.07,3.73.82a5.28,5.28,0,0,0,3.06-2.06,4,4,0,0,0,.13-.7h0l0-.08A1.29,1.29,0,0,0,102.42,253.5Z"></path>
      <path class="cls-4" d="M75.64,239.88a8.62,8.62,0,0,0-1.91,2.76l0,0s-1.44,3.76,1,6,5.24,2.14,5.76,1.23a11.63,11.63,0,0,0,.47-1.63s0-.07,0-.1a28.76,28.76,0,0,0-.53-3.62,1.63,1.63,0,0,0-.12-.63c0-.17-.07-.36-.14-.67-.35-1.54,0-1.7-.83-2.81a4,4,0,0,0-2.5-1.3,3.89,3.89,0,0,0-.53.17h0l0,0A1,1,0,0,0,75.64,239.88Z"></path>
      <path class="cls-6" d="M75.83,268a1.62,1.62,0,0,0,1.6-.42c.56-.72.45-1.47.18-1.59a2.88,2.88,0,0,0-.45-.08c-.29-.05-.33.7-.34.71Z"></path>
      <path class="cls-7" d="M74.86,267.36s.9.81,1.27.56.82-.47.82-.47l0-.25a3.38,3.38,0,0,0-1-.33l-.59.2A4.83,4.83,0,0,0,74.86,267.36Z"></path>
      <path class="cls-8" d="M74.81,267.22c0,.1.12.37.4.27a3.68,3.68,0,0,0,.54-.23s.27-.84.33-1,.15-.19-.25-.06-.46.05-.74.3A1.06,1.06,0,0,0,74.81,267.22Z"></path>
      <path class="cls-9" d="M75.75,267.26a5.5,5.5,0,0,0,.13-.71c0-.32,0-.4.29-.44s.86-.34,1.14-.23.26.09.26.45a1.3,1.3,0,0,1-.39.89.73.73,0,0,1-.78.33A1.81,1.81,0,0,1,75.75,267.26Z"></path>
      <path class="cls-6" d="M64.87,261.67s2.46.13,3.33-1.71.26-3.44-.37-3.58a8,8,0,0,0-1,0c-.68,0-.38,1.7-.41,1.74S64.87,261.67,64.87,261.67Z"></path>
      <path class="cls-7" d="M62.46,260.83s2.37,1.35,3.07.63S67.1,260,67.1,260l-.16-.53a7.56,7.56,0,0,0-2.32-.25c-.38.2-1,.63-1.19.71A9.09,9.09,0,0,0,62.46,260.83Z"></path>
      <path class="cls-8" d="M62.27,260.55c.12.21.45.75,1,.41a9.34,9.34,0,0,0,1.08-.77s.18-2,.26-2.34.23-.5-.6,0-1,.32-1.47,1A2.49,2.49,0,0,0,62.27,260.55Z"></path>
      <path class="cls-9" d="M64.37,260.19a10.74,10.74,0,0,0-.06-1.63c-.09-.71-.16-.89.43-1.11s1.73-1.16,2.39-1.05.61.06.79.86a3,3,0,0,1-.43,2.15,1.62,1.62,0,0,1-1.55,1.1A4.29,4.29,0,0,1,64.37,260.19Z"></path>
      <path class="cls-6" d="M54.66,269.64s1.92,1.45,3.63.44,2.1-2.65,1.66-3.1a7.16,7.16,0,0,0-.85-.54c-.57-.34-1.24,1.17-1.28,1.19S54.66,269.64,54.66,269.64Z"></path>
      <path class="cls-7" d="M53.18,267.63s1.17,2.39,2.13,2.19,2.06-.3,2.06-.3l.16-.52s-1.33-1.43-1.74-1.47-1.18,0-1.35-.08A9.7,9.7,0,0,0,53.18,267.63Z"></path>
      <path class="cls-8" d="M53.18,267.3c0,.24,0,.86.59.89a8.65,8.65,0,0,0,1.29,0s1.24-1.5,1.5-1.75.46-.28-.48-.33-1-.28-1.74,0A2.34,2.34,0,0,0,53.18,267.3Z"></path>
      <path class="cls-9" d="M55.06,268.16a10.34,10.34,0,0,0,.85-1.35c.32-.63.36-.81,1-.66s2,0,2.5.45.46.39.17,1.14a2.89,2.89,0,0,1-1.52,1.5,1.6,1.6,0,0,1-1.86,0A4.14,4.14,0,0,1,55.06,268.16Z"></path>
      <path class="cls-6" d="M50.26,263a2.75,2.75,0,0,0,.1-2.8c-.88-1.24-2.16-1.43-2.47-1.06a5.29,5.29,0,0,0-.36.69c-.22.45,1,.87,1,.9S50.26,263,50.26,263Z"></path>
      <path class="cls-7" d="M48.83,264.31s1.75-1.06,1.53-1.78S50,261,50,261l-.41-.08s-1,1.1-1,1.42,0,.9,0,1A7.6,7.6,0,0,0,48.83,264.31Z"></path>
      <path class="cls-8" d="M48.58,264.33c.18,0,.66,0,.64-.52a8,8,0,0,0-.11-1s-1.23-.84-1.43-1-.25-.34-.22.38-.16.76.12,1.33A1.86,1.86,0,0,0,48.58,264.33Z"></path>
      <path class="cls-9" d="M49.11,262.83a8.37,8.37,0,0,0-1.08-.56c-.5-.2-.65-.22-.57-.68s-.13-1.55.18-1.94.26-.38.85-.21a2.18,2.18,0,0,1,1.25,1.07,1.21,1.21,0,0,1,.15,1.41A3.14,3.14,0,0,1,49.11,262.83Z"></path>
      <path class="cls-6" d="M41.58,265.1A1.21,1.21,0,0,0,42,264c-.21-.62-.71-.86-.89-.75a2.68,2.68,0,0,0-.24.24c-.15.16.3.48.3.5S41.58,265.1,41.58,265.1Z"></path>
      <path class="cls-7" d="M40.83,265.44s.85-.21.86-.54,0-.68,0-.68l-.16-.09s-.55.33-.6.46-.09.38-.12.43A3.4,3.4,0,0,0,40.83,265.44Z"></path>
      <path class="cls-8" d="M40.72,265.42c.07,0,.27.08.33-.13a2.65,2.65,0,0,0,.08-.42s-.4-.51-.46-.61-.06-.17-.15.13-.15.3-.12.57A.8.8,0,0,0,40.72,265.42Z"></path>
      <path class="cls-9" d="M41.13,264.87a3.34,3.34,0,0,0-.38-.37c-.18-.15-.24-.18-.15-.36s.15-.66.33-.78.15-.12.37,0a.94.94,0,0,1,.39.6.54.54,0,0,1-.12.6A1.52,1.52,0,0,1,41.13,264.87Z"></path>
      <path class="cls-6" d="M38.92,269.89s1.68-2.7.14-4.84-3.75-2.45-4.3-1.82a10,10,0,0,0-.61,1.2c-.38.79,1.7,1.49,1.73,1.54S38.92,269.89,38.92,269.89Z"></path>
      <path class="cls-7" d="M36.45,272.1s3-1.84,2.64-3.08a26.27,26.27,0,0,1-.65-2.68l-.71-.15S36,268.11,36,268.67s.09,1.55.07,1.79A12.52,12.52,0,0,0,36.45,272.1Z"></path>
      <path class="cls-8" d="M36,272.14c.31,0,1.13,0,1.1-.89a12.14,12.14,0,0,0-.2-1.71s-2.14-1.45-2.5-1.76-.42-.57-.38.67-.25,1.32.23,2.31A3.2,3.2,0,0,0,36,272.14Z"></path>
      <path class="cls-9" d="M36.92,269.54a14.72,14.72,0,0,0-1.89-1c-.86-.34-1.11-.37-1-1.18s-.23-2.67.3-3.36.45-.65,1.47-.36A3.74,3.74,0,0,1,38,265.51a2.11,2.11,0,0,1,.28,2.45A5.39,5.39,0,0,1,36.92,269.54Z"></path>
      <path class="cls-10" d="M89.3,257.26c-.74-6.83-6.87-10.35-12.2-13.52-3.13-7.23-7.88-13.67-11.76-20.53,4,3.28,8.85,5.58,12.79,8.83-6.86-5.6-16.36-9.62-17.87-19.29.19-1.14-1.12-2.62-1.76-1.05a1,1,0,0,0-.26-.18c.61-1.35-1.09-3-1.67-1.15.13,4.63-.68,9.4-4.25,12.68-8.59,14-23,22.65-27.54,39.4,2.23-4.67,4.51-10.94,7.57-15.07-1.65,3.65-.7,7.77-1.26,11.65-.47-8.33,2.27-15.5,9.39-20.26C39.07,251,30.6,256,34.23,268.93c-3.34-12.06,4-16.16,6-27,3.4,11.57,3.5,25.87-2.69,36.67a44.77,44.77,0,0,0,4.11-8.47c0,.53-.36,1.32-.25,1.68a68.37,68.37,0,0,0,3-17.56,28.87,28.87,0,0,1,.64,5.42c-1-7.14.24-14.33,5.41-19.65a11.94,11.94,0,0,1,1.39,1.45c-4.63,6.53-7,14.27-1.77,21.21a26.49,26.49,0,0,1-3,6.43A27.31,27.31,0,0,0,50.23,263c4.18,8.93-2,16.92,4.64,26.81-6.24-9.64.33-18.73-4.33-27.76.73-2.47.34-5.16,1.69-7.46a26.6,26.6,0,0,1,2.52,14.84c.12-.51.2-1,.28-1.53,0,.49,0,1,0,1.48-.5-7,3.55-14.09,1.1-20.77A23.8,23.8,0,0,0,59,244.5c6.45,14.05-5.64,14.68-.23,41.33-.38-10.48-2.63-21,3-30.57,0,5.79-3.07,11.2-2.88,17.07.84-13.48,9.78-26.55,3.23-39.86a17,17,0,0,1-2.16-9.22c8,24.09,8.4,27,2.85,51.5,4.62-17.84,6.74-29.26-.54-47.09,2.63,6.41,6.82,11.8,9.54,18.22-.93,5.62-3.35,11.38-2.2,17.12-.85-4.3.75-8.63,1.69-12.79,6.49,7.73-1.89,18.92-2.64,27.45.88-8.63,9.74-20.14,2.76-27.91.28-1.08.55-2.15.82-3.24a14.55,14.55,0,0,0,5.28,5c-2.06,10.39-9.1,20.9-2.19,31.07-6.48-10.27.66-20.36,3-30.64,8.8,2.93,4.61,14.53,6.63,20.71.94.49-.06-8.31.13-8.49.24-5.17-1.16-11-6.67-12.81a20,20,0,0,0-.9-6.53c11,4,12.73,15.09,14.16,25.38C90.94,265.87,90.24,261.53,89.3,257.26ZM73.11,238.52a17.61,17.61,0,0,1,2.61,4.29,37.81,37.81,0,0,1-3.2-2.42,31.09,31.09,0,0,0-.57-3.73A10.82,10.82,0,0,0,73.11,238.52Zm-2.92-5.09a40.47,40.47,0,0,1,1.49,6.24c-6-4.91-6.92-13.48-10.31-20.15C64.27,224.19,67.23,228.82,70.19,233.43Zm-11.8.15a25.76,25.76,0,0,1,.32,8.88,46.17,46.17,0,0,1-1.49-7.14c.14-.22,1-1.63,1.15-1.83A.29.29,0,0,1,58.39,233.58Zm-1.46.18c-.67-3.09-1.39-6.58-.4-9.58A29.15,29.15,0,0,0,58,231.9C57.7,232.51,57.32,233.14,56.93,233.76Zm1.79-3.84c-.73-3-1.34-6.46-.62-9.51C58.14,223.56,59.28,226.79,58.72,229.92Zm-11.88,1.51c2.62-3.43,5.09-7,8-10.1-1.69,6-5.59,10.36-10.69,13.8A43.43,43.43,0,0,1,46.84,231.43Zm-5.7,6.84c.68-.49,1.4-.94,2.09-1.41l0,.08a.79.79,0,0,0,0-.09c.94-.62,1.87-1.26,2.8-1.9-1.45,2.76-3.71,6.27-4.75,9.2A7.38,7.38,0,0,1,41.14,238.27Zm.17,6c2.15-4,4.52-8.5,7.87-11.58-2.6,4.78-5.39,9.45-6.63,14.85A28.13,28.13,0,0,1,41.31,244.23Zm1.81,16.49a19.27,19.27,0,0,1-1,6.7c.51-5.9.42-11.87.91-17.75C44.77,253.09,42.79,257,43.12,260.72Zm4.38-18.56a20.57,20.57,0,0,0-3.5,9.26C41.5,244.67,47.87,238,50.6,232,51.94,236,50.1,239.16,47.5,242.16ZM51,239.3c1.83-2.48,1.23-5.94.59-8.66a15.14,15.14,0,0,0,3.74-4.28,27.87,27.87,0,0,0,1.08,8.18c-1.31,2.08-2.74,4.08-4.07,6.18A11.22,11.22,0,0,0,51,239.3Zm1.63,3.19c1.2,1.78,1.79,4,2.77,6a39.45,39.45,0,0,0-3.11,4.94,11.83,11.83,0,0,1,.12-10.73l.16-.26Zm-.89,12c-1.17,2.23-.83,4.8-1.38,7.16C47,256.46,47,251.07,50.51,246c-.67,2.75.39,5.58,1.5,8C51.93,254.19,51.83,254.35,51.76,254.52Zm4.86-1a109.86,109.86,0,0,0-1.55,13.69c-.06-4.54-.48-9.08-2.54-13.2a35.82,35.82,0,0,1,3.18-4.85A10.16,10.16,0,0,1,56.62,253.51Zm-.77-5.64c-.94-2.1-1.43-4.27-2.79-6.19,1.19-1.87,2.42-3.72,3.66-5.58a34,34,0,0,0,1.79,7.25C58.1,245.09,56.87,246.39,55.85,247.87Zm5.25-15c2.38,6.14,3.84,13.58.81,19.69a76.82,76.82,0,0,0-2.69-8.75c1.14-3.85.71-8,0-11.85a6.05,6.05,0,0,0,.59-2.11C60.18,230.9,60.67,231.93,61.1,232.87ZM64,228.76a53.36,53.36,0,0,1-2.27-7.71,78.43,78.43,0,0,1,5.37,13.69A28,28,0,0,1,64,228.76ZM68.46,238A40.62,40.62,0,0,0,71.84,241a15.69,15.69,0,0,1,0,4.22A40.08,40.08,0,0,1,68.46,238Zm8.46,8.77a15.55,15.55,0,0,1,.58,4.18,14.32,14.32,0,0,1-5.19-5,15.68,15.68,0,0,0,.3-4.33c1.15.89,2.35,1.71,3.58,2.48A27.08,27.08,0,0,1,76.92,246.72Z"></path>
      <polygon class="cls-11" points="0 198.49 59.15 223.21 112.9 200.41 59.15 181.46 0 198.49"></polygon>
      <path class="cls-12" d="M70.4,95s-7.71-.47-10.44,5.36-2.63,11.48,1.23,16.46c0,0,1.13,1.22,1.31,0s1.41-2.26,1.74-2.07,4.1,5.17,16.89,5.36c0,0,1.41.75.84-1.13s-2.08-3.38.14-2.25,12,3.85,12.84,4,1.6.18,1.41-2S95,103.54,91.94,99.31c0,0-1-.66.57-1.6S95.23,95.9,94,95s-3.1-3.75-10.81-6.2c0,0-1.42,0-.38-1.22s3.57-3.48-.19-2.82-10.44.85-14.77,4.89a1.63,1.63,0,0,0-.37,2.44,12.71,12.71,0,0,0,3.85,2.64Z"></path>
      <path class="cls-12" d="M91.12,134.63s-1.27-9.31-10.15-8-9.53,8.67-9.31,10.37S71,149,86.89,156.21s17.35,9.31,17.35,9.31-1.06-1.06,0-3.17,5.93-9.1,6.56-10.58,5.72-13.76-5.29-19.05-11.21-1.9-11.21-1.9A4.09,4.09,0,0,1,91.12,134.63Z"></path>
      <path class="cls-12" d="M86.91,44.47s3.81,2,5.64,1.56,6.35-2.62,8.33-.75a6,6,0,0,1,2,4s5.65-5.22,2.4-10.86c0,0,1.27-1.55,2.4,0,0,0,1.75-8.33-11.26-12,0,0-1.79-.92.18-1.27s1.13-.43,1.13-.43S92,22.4,90.86,22.18s-6.63-1.83-8.61.57-1.48,5.78-1.55,6.14-4.93-2.61-8.46.84,2,11.64,2,11.64,1.63.21,2.12-2.12.71-.07.92.15,4.37,4.93,6.49,5.64S86,46.17,86.35,46.1,86.91,44.47,86.91,44.47Z"></path>
      <path class="cls-12" d="M69.84,21.45s.49-.68,0-1.17.78-1.62,2.89-1.48,9-.85,10.37.63c0,0,.42-5.29-1.9-8.6,0,0-1.77-2.75.63-2.47,0,0-2.4-3.74-6.21-4.37s-9.17-.71-5.5-2.76c0,0-3.24-3.38-10.23,1.06s-3.66,11-1.34,12.21c0,0-5.36,3-5.71,5s-.63,4.24,7.48,3.74S69.84,21.45,69.84,21.45Z"></path>
      <path class="cls-12" d="M29.21,23.31c.28-.14,5.15-1.13,7.62-2.4s8.14-6,8.79-6.27,4.82-1.84,3.55,1.69-7.54,6-8.25,9.59c-.14.71.35,14.89-6.14,10.8,0,0-2.11-1.06-2.4-5.58A14.55,14.55,0,0,0,29.21,23.31Z"></path>
      <path class="cls-12" d="M46.61,58.58s-9.41-2.82-14.39-.47S24.51,64,26.39,70.81c0,0-2.73,12.79,5.92,19.28,0,0,.76.94,1-1.88s5.25-8.09,6-8.84A6.16,6.16,0,0,0,40.4,77s7.9-.66,10.25,1c0,0,.29.85.76-1.22s1.78-7.81,6.67-7.62-2.76-8.65-5.38-8.28C52.7,60.93,44.73,66,46.61,58.58Z"></path>
      <path class="cls-12" d="M66,159.59a6.42,6.42,0,0,0-4.09,2.68c-1.69,2.4-5.82,5.08-19.2,4.66,0,0-6.76-.56-6.48,6.07,0,0-10.22-16.13-10.47-18.65s-1.41-18,17-11.69c0,0,4.53,4,4.81,7.76s2.26.85,2.26.85S62.08,145.06,66,159.59Z"></path>
      <path class="cls-13" d="M65.66,39.84c-.35-3-.6-6.37,1.33-8.69a7.5,7.5,0,0,1,4.53-2.36,22.05,22.05,0,0,1,5.2-.06"></path>
      <path class="cls-12" d="M59.88,32.25c-2.3-3.58-4.29-7.56-2.61-11.83.11-.29-.36-.42-.48-.13-1.72,4.38.3,8.52,2.66,12.21.17.27.6,0,.43-.25Z"></path>
      <path class="cls-14" d="M68.19,148.89a46,46,0,0,1-.75-10c.33-4.61,3.66-7,7.89-8.13a.49.49,0,0,0-.26-.95c-3.16.83-6.42,2.42-7.86,5.54-1.84,4-.6,9.66,0,13.81.1.62,1.05.36,1-.26Z"></path>
      <path class="cls-14" d="M47.76,112.84c.51-7,3.06-13.43,9.91-16.3,5.74-2.42,12-1.75,18-1.1.63.07.63-.92,0-1-7.32-.79-15.51-1.55-21.85,3-5,3.6-6.67,9.5-7.1,15.37-.05.64.94.64,1,0Z"></path>
      <path class="cls-14" d="M56.07,82.69C65,80.9,72.63,76.12,80.15,71.17c.53-.35,0-1.2-.5-.85-7.46,4.91-15,9.64-23.85,11.41-.62.13-.36,1.08.27,1Z"></path>
      <path class="cls-15" d="M45.51,66.33a6.15,6.15,0,0,1,1.76-2.54c2.91-2.94,6.32-5.72,10.41-6.36a10,10,0,0,1,8.22,2.3,7.83,7.83,0,0,1,2.21,8.05"></path>
      <path class="cls-12" d="M77.43,67.32a8.66,8.66,0,0,1-2.64,6.33.25.25,0,0,0,.35.35,9.17,9.17,0,0,0,2.79-6.68.25.25,0,0,0-.5,0Z"></path>
      <path class="cls-14" d="M59.2,161.9c.57,2.56,1.91,4.81,2.75,7.28a38.64,38.64,0,0,1,1.84,8.7c.06.63,1.05.64,1,0A40,40,0,0,0,63.25,170c-.87-2.83-2.45-5.46-3.09-8.35-.14-.62-1.09-.36-1,.26Z"></path>
      <path class="cls-13" d="M63.76,37.11a2.83,2.83,0,0,0-4.62,3"></path>
      <path class="cls-14" d="M75.78,73.26a12.16,12.16,0,0,0,2.45.49,3.22,3.22,0,0,1,1.39.6,4.36,4.36,0,0,1,.92,1.13c.89,1.51,1.8,3,2.78,4.42a36.37,36.37,0,0,0,6.88,7.76,22.18,22.18,0,0,0,4.36,2.8,10.63,10.63,0,0,0,4.93,1.34,3.13,3.13,0,0,0,2.19-1.14,2.08,2.08,0,0,0,.1-2.37,1.45,1.45,0,0,0-1-.64,1.71,1.71,0,0,0-1.19.39,1.11,1.11,0,0,0-.39,1.15c.12.39.56.79,1,.59-.43.21-.89-.18-1-.58A1.13,1.13,0,0,1,99.51,88a1.72,1.72,0,0,1,1.23-.43,1.51,1.51,0,0,1,1.14.66,2.23,2.23,0,0,1,0,2.55A3.35,3.35,0,0,1,99.52,92a6.53,6.53,0,0,1-2.64-.31,20.06,20.06,0,0,1-2.48-.94,22.63,22.63,0,0,1-4.51-2.74,37.06,37.06,0,0,1-7.18-7.72c-1-1.43-2-2.91-2.91-4.39a3.11,3.11,0,0,0-.73-.88,2.38,2.38,0,0,0-1-.4,11.64,11.64,0,0,1-2.68-.5Z"></path>
      <path class="cls-16" d="M61.45,40.07s-1.62-5.43-6.63-.7c0,0-4.16,5.92-.56,17.42s6.2,8,7.61,5.15-1.41-5.22-.84-13S61.73,42.05,61.45,40.07Z"></path>
      <path class="cls-16" d="M78.09,59s.7-3.74,1.69,0a13.13,13.13,0,0,1-.85,8.32c-.35.42-2.47,1.06-2.18-.7S78.09,59,78.09,59Z"></path>
      <path class="cls-16" d="M80.53,69c1.55-.64,8-2.19,8-1.34s.29,1-1.13,1.73S80.53,72,80,70.9A1.68,1.68,0,0,1,80.53,69Z"></path>
      <path class="cls-12" d="M34.78,111.67c-.5-3.3,4.11-3.74,6.26-3.48s4.58.77,5.51,2.92c.25.58,1.1.08.85-.5-2-4.7-14.56-5.22-13.57,1.32.1.63,1.05.36,1-.26Z"></path>
      <path class="cls-16" d="M34.35,106s4.23-2.4-.7-2.82a21.17,21.17,0,0,0-9.17,1.41s-3.95,2.26.7,2.4A38.25,38.25,0,0,0,34.35,106Z"></path>
      <path class="cls-16" d="M30.27,112.83s5.65-7.19,6.35,2-3,17.63-4.51,17.07-5.36,2.4-4.8-8.19C27.31,123.69,28.3,116.64,30.27,112.83Z"></path>
      <path class="cls-12" d="M41,112.6c-1.31-1.75,2.07-2.87,3.25-2.09a5.59,5.59,0,0,1,2.5,3.35c.07.63,1.06.64,1,0-.21-1.82-2.26-4.48-4.19-4.7s-5,1.86-3.4,3.93c.38.51,1.23,0,.85-.49Z"></path>
      <path class="cls-16" d="M38.74,112s2.35-2.45,4.23,0,3,16.93,3,16.93.56,4.61-.66,6.86S41.48,141,38,134.9,37.5,112.8,38.74,112Z"></path>
      <path class="cls-12" d="M54,139.69c1.83-2.33,4.79-2,6.58.18.41.49,1.1-.21.7-.7-2.11-2.57-5.83-2.91-8-.18-.39.49.3,1.2.7.7Z"></path>
      <path class="cls-12" d="M60.9,130.13a115.47,115.47,0,0,1,1.77,11.7c.07.63,1,.64,1,0a120.63,120.63,0,0,0-1.8-12c-.13-.62-1.08-.36-1,.26Z"></path>
      <path class="cls-16" d="M58.86,122.58s0-1.6,1.51-.57,1.9,8.28,1.9,8.28-.28,2-1.7.66S58.86,122.58,58.86,122.58Z"></path>
      <path class="cls-16" d="M48.14,141.91s2.26-2.77,4-3.39,6.12-2.59,2,2.77-7.55,5.46-8,5S48.14,141.91,48.14,141.91Z"></path>
      <path class="cls-12" d="M79.18,70.63a39.32,39.32,0,0,1,1-4.87,13,13,0,0,1,2.17-4.54c1-1.39,2.52-2.24,3.29-3.61a4.8,4.8,0,0,0,.34-4.5A3.67,3.67,0,0,0,82.16,51a3.33,3.33,0,0,0-2,1.21,2.61,2.61,0,0,0-.54,2.22A3,3,0,0,0,81,56.29a2.46,2.46,0,0,0,2.3.14,1.6,1.6,0,0,0,1-1.94,1.66,1.66,0,0,0-.81-.88,1.1,1.1,0,0,0-1.16,0,1.1,1.1,0,0,1,1.17-.07,1.56,1.56,0,0,1-.16,2.93,2.54,2.54,0,0,1-2.42-.1,3.16,3.16,0,0,1-1.5-2A2.86,2.86,0,0,1,80,52a3.57,3.57,0,0,1,2.11-1.36,4,4,0,0,1,4.26,2.25,5.27,5.27,0,0,1-.25,4.95c-.85,1.54-2.35,2.44-3.24,3.73-1.92,2.6-2.39,5.94-2.84,9.16Z"></path>
      <path class="cls-12" d="M45.65,109.39a6.46,6.46,0,0,1-.3-4.06A10.4,10.4,0,0,1,47,101.82a30.86,30.86,0,0,1,2.44-2.76,6.8,6.8,0,0,0,1-1.33,16,16,0,0,0,.71-1.56,6.17,6.17,0,0,0,.42-1.58,11.15,11.15,0,0,0,.09-1.72,5.7,5.7,0,0,0-.25-1.61,7.34,7.34,0,0,0-.73-1.49,8.48,8.48,0,0,0-5.55-3.64,9,9,0,0,0-3.43,0,4.79,4.79,0,0,0-2.79,1.78,7.45,7.45,0,0,0-1.82,6.46A5,5,0,0,0,42.43,98,5.16,5.16,0,0,0,46.79,93a5.25,5.25,0,0,1-4.33,5.13,5.33,5.33,0,0,1-5.79-3.64,6.61,6.61,0,0,1,0-3.69,9.39,9.39,0,0,1,1.7-3.29,6.27,6.27,0,0,1,1.35-1.32,5.24,5.24,0,0,1,1.76-.78,9.81,9.81,0,0,1,3.74-.15,9.4,9.4,0,0,1,6.29,3.89,8.25,8.25,0,0,1,.9,1.72,7.17,7.17,0,0,1,.37,1.92,14.82,14.82,0,0,1-.05,1.89,7.59,7.59,0,0,1-.44,1.91c-.23.61-.43,1.11-.73,1.74a8.86,8.86,0,0,1-1.1,1.6,29.39,29.39,0,0,0-2.27,2.71c-1.25,1.83-1.92,4.19-1,6Z"></path>
      <path class="cls-12" d="M25.12,94.78a2.51,2.51,0,0,0,1.49-2.27,2.62,2.62,0,0,0-1.31-2.36,3.4,3.4,0,0,0-4.8,1.27,6.33,6.33,0,0,0-.43,2.75,6,6,0,0,0,1,2.6,4.21,4.21,0,0,0,2,1.76,10.79,10.79,0,0,0,2.73.66l11.5,1.51a16,16,0,0,1,5.78,1.51,11,11,0,0,1,2.41,1.89,5.89,5.89,0,0,1,1.59,2.79l-1.25.22a4.63,4.63,0,0,0-1.23-2.18,9.45,9.45,0,0,0-2.1-1.73,14.91,14.91,0,0,0-5.34-1.52L25.7,99.83a11.26,11.26,0,0,1-2.86-.78,4.69,4.69,0,0,1-1.28-.83A5.53,5.53,0,0,1,20.62,97a6.31,6.31,0,0,1-.95-2.83,5.3,5.3,0,0,1,.11-1.49,6.1,6.1,0,0,1,.43-1.42A3.62,3.62,0,0,1,25.39,90a2.75,2.75,0,0,1,1.3,2.5A2.55,2.55,0,0,1,25.12,94.78Z"></path>
      <path class="cls-12" d="M35.44,104.78a13.24,13.24,0,0,1,9.91,3.54c.46.45,1.16-.25.7-.69a14.19,14.19,0,0,0-10.61-3.84c-.64,0-.64,1,0,1Z"></path>
      <path class="cls-17" d="M60.12,122.48a2.61,2.61,0,0,0,1.13-2.67s-.1-.34-.52,0a5.44,5.44,0,0,0-.25-1c-.11-.18-.56.31-.85,1.3,0,0-.7-1.21-1.65-1.06a2,2,0,0,0,.48,1.69s-1.38.09-1.4,1.06C57.06,121.81,57.15,122.55,60.12,122.48Z"></path>
      <path class="cls-17" d="M23.48,106.58a3.29,3.29,0,0,1-3.35,1.73,1.29,1.29,0,0,1,.66-1.06s-1.06,0-1.37-.46a1.84,1.84,0,0,1,1.48-.85,1.51,1.51,0,0,1-1-1.21s1-.67,3.54,1.23A.61.61,0,0,1,23.48,106.58Z"></path>
      <path class="cls-17" d="M47.78,144.51a5.33,5.33,0,0,0-3.91.88,2.34,2.34,0,0,0,1.49.51s-.77.9-.62,1.38c0,0,.4.21,1.42-.23,0,0-.3.94-.08,1.24A3,3,0,0,0,48.15,145S48.24,144.28,47.78,144.51Z"></path>
      <path class="cls-18" d="M59,38.66S55.92,38.2,55,40.5s-3,11.82,1.39,20.22c0,0-1.92-9.72-1.39-11.45s1,.09,1,.41.27-9,1.75-9.53S59.86,38.7,59,38.66Z"></path>
      <path class="cls-18" d="M42.72,112.4s-3.09-.46-4.06,1.84-3,11.82,1.39,20.22c0,0-1.92-9.72-1.39-11.45s1,.09,1,.4.27-9,1.75-9.52S43.56,112.44,42.72,112.4Z"></path>
      <path class="cls-18" d="M34.62,111.76s-3.09-.47-4.06,1.83-3.59,6-.61,14.84a33.42,33.42,0,0,1,.61-6.07c.54-1.72,1.87-4.43,1.9-4.11s-.65-4.5.83-5S35.46,111.79,34.62,111.76Z"></path>
      <path class="cls-17" d="M88,68.19a.89.89,0,0,0,.91-.41c.36-.55,1.6-1.56,1.44-.53s-.49,1-.49,1,1.5.33.34,1.08a.92.92,0,0,1-1,.78s.47-1.41-1.31-1.43C87.93,68.63,87.53,68.24,88,68.19Z"></path>
      <path class="cls-17" d="M79.11,57.87c.22,0,.9,0,1-1.13a.38.38,0,0,0-.31,0,.59.59,0,0,0,.14-.49s-.32,0-.63.45c0,0-.23-.67-.55-.7,0,0-.12.61,0,.79,0,0-.68-.09-.82.24C77.89,57,78.54,57.83,79.11,57.87Z"></path>
      <path class="cls-19" d="M59,67.62c-.35-.63-1-4.3.43-5S63.3,66.7,63.3,66.7l-2.38-1.19s-.22,2,.83,2.68-1.76.07-2.11-1.77S59,67.62,59,67.62Z"></path>
      <path class="cls-19" d="M42,143.46c.1.15-1.81-2.92-.21-5.69a1.51,1.51,0,0,1,2.19.63c.89,1.48,2.33,2.89,2.28,3.86a22.61,22.61,0,0,0-2.47-1.34,14,14,0,0,0,.66,3.24c.33.32-2-2.37-2-2.37S41.75,143,42,143.46Z"></path>
      <path class="cls-19" d="M30.16,130.28s.82-1.38,1.36.1a2.43,2.43,0,0,0,.21,1.31c.31.43,2.26,2.92,1.72,3.39s-2-.89-2.12-.94-.07,3.5.52,4.14-1.29.1-1.86-2.36c0,0-.21-.53-.82.17s-2.24-1.69-1.3-3.36A5.06,5.06,0,0,1,30.16,130.28Z"></path>
      <ellipse class="cls-20" cx="58.78" cy="47.77" rx="0.23" ry="0.46"></ellipse>
      <ellipse class="cls-20" cx="55.93" cy="46.42" rx="0.23" ry="0.46"></ellipse>
      <ellipse class="cls-20" cx="58.08" cy="42.9" rx="0.23" ry="0.46"></ellipse>
      <ellipse class="cls-20" cx="60.34" cy="46.42" rx="0.23" ry="0.46"></ellipse>
      <ellipse class="cls-20" cx="60.11" cy="42.44" rx="0.23" ry="0.46"></ellipse>
      <ellipse class="cls-20" cx="57.53" cy="50.64" rx="0.23" ry="0.46"></ellipse>
      <ellipse class="cls-20" cx="55.19" cy="49.27" rx="0.23" ry="0.46"></ellipse>
      <ellipse class="cls-20" cx="54.13" cy="43.83" rx="0.23" ry="0.46"></ellipse>
      <ellipse class="cls-20" cx="55.93" cy="40.96" rx="0.23" ry="0.46"></ellipse>
      <ellipse class="cls-20" cx="57.68" cy="56.97" rx="0.23" ry="0.46"></ellipse>
      <ellipse class="cls-20" cx="57" cy="59.12" rx="0.23" ry="0.46"></ellipse>
      <ellipse class="cls-20" cx="55.42" cy="53" rx="0.23" ry="0.46"></ellipse>
      <ellipse class="cls-20" cx="59.01" cy="53.46" rx="0.23" ry="0.46"></ellipse>
      <ellipse class="cls-20" cx="55.65" cy="55.58" rx="0.23" ry="0.46"></ellipse>
      <ellipse class="cls-20" cx="60.57" cy="56.5" rx="0.23" ry="0.46"></ellipse>
      <ellipse class="cls-20" cx="59.68" cy="60.05" rx="0.23" ry="0.46"></ellipse>
      <path class="cls-21" d="M54.36,46.42s-.4-2-.74,0,.05,4.35,0,6.12S54.57,47.09,54.36,46.42Z"></path>
      <path class="cls-21" d="M38.76,116.55s-.4-2-.74,0a33.44,33.44,0,0,0-.54,5.11C37.43,123.43,39,117.22,38.76,116.55Z"></path>
      <ellipse class="cls-20" cx="44.1" cy="121.11" rx="0.23" ry="0.46"></ellipse>
      <ellipse class="cls-20" cx="41.7" cy="120.05" rx="0.23" ry="0.46"></ellipse>
      <ellipse class="cls-20" cx="38.8" cy="122.95" rx="0.23" ry="0.46"></ellipse>
      <ellipse class="cls-20" cx="33.15" cy="124.41" rx="0.46" ry="0.23" transform="translate(-95.42 131.1) rotate(-78.06)"></ellipse>
      <ellipse class="cls-20" cx="34.47" cy="120.69" rx="0.46" ry="0.23" transform="translate(-90.75 129.44) rotate(-78.06)"></ellipse>
      <ellipse class="cls-20" cx="35.44" cy="123.95" rx="0.46" ry="0.23" transform="translate(-93.17 132.98) rotate(-78.06)"></ellipse>
      <ellipse class="cls-20" cx="33.02" cy="128.31" rx="0.46" ry="0.23" transform="matrix(0.17, -0.99, 0.99, 0.17, -99.02, 139.19)"></ellipse>
      <ellipse class="cls-20" cx="29.72" cy="126.47" rx="0.23" ry="0.46"></ellipse>
      <ellipse class="cls-20" cx="27.59" cy="124.24" rx="0.23" ry="0.46" transform="matrix(1, -0.05, 0.05, 1, -5.98, 1.48)"></ellipse>
      <ellipse class="cls-20" cx="29.48" cy="121.66" rx="0.23" ry="0.46"></ellipse>
      <ellipse class="cls-20" cx="35.32" cy="116.68" rx="0.46" ry="0.23" transform="translate(-86.14 127.09) rotate(-78.06)"></ellipse>
      <ellipse class="cls-20" cx="31.98" cy="120.51" rx="0.46" ry="0.23" transform="translate(-90.95 141.29) rotate(-84.73)"></ellipse>
      <ellipse class="cls-20" cx="35.44" cy="112.84" rx="0.46" ry="0.23" transform="translate(-82.3 124.17) rotate(-78.06)"></ellipse>
      <ellipse class="cls-20" cx="30.56" cy="117.14" rx="0.46" ry="0.23" transform="translate(-90.05 127.48) rotate(-80.28)"></ellipse>
      <ellipse class="cls-20" cx="32.46" cy="113.53" rx="0.46" ry="0.23" transform="translate(-85.33 121.79) rotate(-78.06)"></ellipse>
      <ellipse class="cls-20" cx="36.65" cy="126.47" rx="0.23" ry="0.46"></ellipse>
      <ellipse class="cls-20" cx="38.57" cy="114.51" rx="0.23" ry="0.46"></ellipse>
      <ellipse class="cls-20" cx="40.6" cy="116.68" rx="0.23" ry="0.46"></ellipse>
      <ellipse class="cls-20" cx="42.98" cy="126.47" rx="0.23" ry="0.46"></ellipse>
      <ellipse class="cls-20" cx="45.34" cy="128.77" rx="0.23" ry="0.46"></ellipse>
      <ellipse class="cls-20" cx="39.03" cy="129.69" rx="0.23" ry="0.46"></ellipse>
      <ellipse class="cls-20" cx="38.57" cy="134.53" rx="0.23" ry="0.46"></ellipse>
      <ellipse class="cls-20" cx="41" cy="135.45" rx="0.23" ry="0.46"></ellipse>
      <ellipse class="cls-20" cx="42.75" cy="132.23" rx="0.23" ry="0.46"></ellipse>
      <path class="cls-12" d="M41,26.31c4.22-.08,8.59-.17,12.61,1.43a15.69,15.69,0,0,1,5.3,3.55A62,62,0,0,1,63.19,36a47.73,47.73,0,0,1,7,10.72,22.23,22.23,0,0,1,1.94,12.67,22.69,22.69,0,0,1-2,6.19,36.16,36.16,0,0,1-3.41,5.51,114.77,114.77,0,0,1-8.51,9.57,47.55,47.55,0,0,0-7.57,9.91,27.69,27.69,0,0,0-3.14,11.79,35.43,35.43,0,0,0,1.65,12.17,44.3,44.3,0,0,0,5.39,11.12c2.27,3.51,4.83,6.89,7.23,10.46a58.89,58.89,0,0,1,6.21,11.46,43.32,43.32,0,0,1,3,12.85,35.74,35.74,0,0,1-.18,6.7,32.75,32.75,0,0,1-1.53,6.54c-.7,2.1-1.53,4.09-2.33,6.05s-1.51,3.87-2.16,5.85a78,78,0,0,0-2.89,12.05,2.12,2.12,0,0,1-4.18-.65V197A82,82,0,0,1,61,184.32c.72-2,1.53-4.09,2.38-6s1.69-3.87,2.38-5.78a29.93,29.93,0,0,0,1.77-11.83A40.31,40.31,0,0,0,65,148.75a56,56,0,0,0-5.68-11c-2.27-3.53-4.77-7-7-10.65a46.84,46.84,0,0,1-5.43-11.85,38.14,38.14,0,0,1-1.49-13A30,30,0,0,1,49,89.72,49.66,49.66,0,0,1,57,79.61a113.59,113.59,0,0,0,8.61-9.28,26.09,26.09,0,0,0,5.43-11.08,21.27,21.27,0,0,0-1.62-12.18,47,47,0,0,0-6.66-10.7,61.28,61.28,0,0,0-4.15-4.8A15.52,15.52,0,0,0,53.51,28C49.59,26.33,45.22,26.32,41,26.31Z"></path>
      <path class="cls-6" d="M55.56,208.62a1.64,1.64,0,0,0-1.57-.57c-.87.27-1.22,1-1.07,1.2a3.14,3.14,0,0,0,.32.33c.22.22.68-.39.7-.39Z"></path>
      <path class="cls-7" d="M56,209.67s-.27-1.18-.72-1.2-.95-.08-.95-.08l-.13.22s.45.78.63.84l.59.17A3.39,3.39,0,0,0,56,209.67Z"></path>
      <path class="cls-8" d="M56,209.82c0-.1.11-.37-.18-.46a4.68,4.68,0,0,0-.58-.12s-.71.54-.85.62-.23.08.18.2.41.23.78.18A1.07,1.07,0,0,0,56,209.82Z"></path>
      <path class="cls-9" d="M55.22,209.24a6.5,6.5,0,0,0-.52.51c-.2.25-.24.33-.49.2s-.91-.22-1.07-.47-.17-.22,0-.52a1.29,1.29,0,0,1,.84-.51.73.73,0,0,1,.83.18A1.85,1.85,0,0,1,55.22,209.24Z"></path>
      <path class="cls-6" d="M52,188.48a2.42,2.42,0,0,0-2.44-.35c-1.16.65-1.44,1.75-1.16,2.06a5.2,5.2,0,0,0,.57.37c.38.24.85-.77.88-.78S52,188.48,52,188.48Z"></path>
      <path class="cls-7" d="M53,189.85s-.76-1.63-1.4-1.51-1.39.18-1.39.18l-.12.34s.87,1,1.15,1,.79.05.91.07A5.52,5.52,0,0,0,53,189.85Z"></path>
      <path class="cls-8" d="M53,190.07c0-.16,0-.57-.39-.61a6.24,6.24,0,0,0-.87,0s-.85,1-1,1.15-.31.18.32.23.65.2,1.17,0A1.59,1.59,0,0,0,53,190.07Z"></path>
      <path class="cls-9" d="M51.69,189.47a8.37,8.37,0,0,0-.59.89c-.22.42-.25.54-.65.43s-1.36,0-1.67-.34-.31-.27-.1-.76a1.9,1.9,0,0,1,1-1,1,1,0,0,1,1.24,0A2.68,2.68,0,0,1,51.69,189.47Z"></path>
      <path class="cls-6" d="M47.17,195.87s-5-2.5-8.53.55-3.67,7-2.47,7.83a15.09,15.09,0,0,0,2.2.88c1.44.54,2.34-3.23,2.43-3.29S47.17,195.87,47.17,195.87Z"></path>
      <path class="cls-7" d="M51.45,199.83s-3.72-5-5.84-4.11S41,197.3,41,197.3l-.14,1.26s3.66,2.72,4.63,2.64,2.71-.4,3.14-.4A22.88,22.88,0,0,0,51.45,199.83Z"></path>
      <path class="cls-8" d="M51.59,200.59c0-.56-.25-2-1.75-1.78a20.49,20.49,0,0,0-3,.63s-2.2,4-2.68,4.66-.94.84,1.24.56,2.36.22,4-.77A5.62,5.62,0,0,0,51.59,200.59Z"></path>
      <path class="cls-9" d="M46.89,199.44a25.24,25.24,0,0,0-1.37,3.46c-.46,1.58-.48,2-1.91,1.94s-4.66.85-6,0-1.23-.7-.87-2.53,1.2-2.69,2.85-4.11a3.73,3.73,0,0,1,4.25-.89A9.55,9.55,0,0,1,46.89,199.44Z"></path>
      <path class="cls-6" d="M64.51,196.92s-4.2-2.47-7.43,0-3.61,5.84-2.62,6.65a14.82,14.82,0,0,0,1.85.89c1.23.55,2.23-2.67,2.31-2.71S64.51,196.92,64.51,196.92Z"></path>
      <path class="cls-7" d="M68,200.62s-2.93-4.55-4.82-3.92-4.09,1.09-4.09,1.09l-.2,1.09s3,2.58,3.86,2.57,2.38-.18,2.75-.16A19.22,19.22,0,0,0,68,200.62Z"></path>
      <path class="cls-8" d="M68.07,201.28c0-.48-.1-1.73-1.41-1.65a18.79,18.79,0,0,0-2.61.37s-2.14,3.33-2.6,3.89-.87.67,1,.56,2,.33,3.52-.43A4.91,4.91,0,0,0,68.07,201.28Z"></path>
      <path class="cls-9" d="M64.05,200a22.71,22.71,0,0,0-1.4,2.92c-.48,1.35-.53,1.72-1.77,1.57s-4.1.46-5.16-.33-1-.68-.61-2.25,1.21-2.26,2.72-3.39a3.25,3.25,0,0,1,3.75-.52A8.35,8.35,0,0,1,64.05,200Z"></path>
      <path class="cls-6" d="M75.65,192.48s-4.15-3.2-7.91-1-4.63,5.73-3.68,6.73a15.83,15.83,0,0,0,1.85,1.2c1.23.75,2.74-2.54,2.82-2.58S75.65,192.48,75.65,192.48Z"></path>
      <path class="cls-7" d="M78.86,196.88s-2.51-5.24-4.61-4.82-4.5.62-4.5.62l-.36,1.13s2.87,3.16,3.77,3.25,2.56.13,3,.2A20.74,20.74,0,0,0,78.86,196.88Z"></path>
      <path class="cls-8" d="M78.86,197.6c0-.51.12-1.86-1.29-1.95a19.86,19.86,0,0,0-2.82,0S72,199,71.45,199.49s-1,.6,1,.73,2.12.63,3.81,0A5.23,5.23,0,0,0,78.86,197.6Z"></path>
      <path class="cls-9" d="M74.75,195.7a24.32,24.32,0,0,0-1.88,2.92c-.7,1.37-.8,1.76-2.1,1.43s-4.43-.06-5.46-1-1-.86-.34-2.47,1.59-2.25,3.35-3.26a3.5,3.5,0,0,1,4.06-.05A9,9,0,0,1,74.75,195.7Z"></path>
      <path class="cls-6" d="M78.87,205.89a2.5,2.5,0,0,0,2.3-1.13c.62-1.26.22-2.37-.21-2.46a4.31,4.31,0,0,0-.71,0c-.47,0-.28,1.17-.3,1.19S78.87,205.89,78.87,205.89Z"></path>
      <path class="cls-7" d="M77.23,205.29s1.6,1,2.09.47a14.45,14.45,0,0,1,1.1-1l-.11-.37a5.27,5.27,0,0,0-1.59-.2c-.26.14-.71.42-.83.48A7.19,7.19,0,0,0,77.23,205.29Z"></path>
      <path class="cls-8" d="M77.1,205.1c.08.14.3.51.69.29a7.22,7.22,0,0,0,.75-.52s.15-1.36.2-1.6.17-.34-.41,0-.68.21-1,.67A1.73,1.73,0,0,0,77.1,205.1Z"></path>
      <path class="cls-9" d="M78.54,204.87a7.29,7.29,0,0,0,0-1.12c-.06-.49-.1-.61.3-.76s1.2-.77,1.65-.69.42,0,.53.6a2,2,0,0,1-.31,1.47,1.13,1.13,0,0,1-1.08.74A2.83,2.83,0,0,1,78.54,204.87Z"></path>
      <path class="cls-6" d="M39.37,206.78s2.13.3,3-1.24.48-3-.06-3.15a7.27,7.27,0,0,0-.91,0c-.59,0-.45,1.46-.48,1.49Z"></path>
      <path class="cls-7" d="M37.33,205.87s2,1.36,2.63.78,1.47-1.14,1.47-1.14l-.1-.48a6.55,6.55,0,0,0-2-.39c-.34.15-.93.48-1.09.53A9.6,9.6,0,0,0,37.33,205.87Z"></path>
      <path class="cls-8" d="M37.18,205.61c.09.2.34.69.86.44a8.87,8.87,0,0,0,1-.59s.31-1.72.41-2,.23-.42-.52-.05-.89.21-1.37.77A2.2,2.2,0,0,0,37.18,205.61Z"></path>
      <path class="cls-9" d="M39,205.46a9.38,9.38,0,0,0,.08-1.43c0-.63-.08-.79.45-.94s1.59-.88,2.16-.74.53.1.63.81a2.58,2.58,0,0,1-.53,1.84,1.45,1.45,0,0,1-1.44.85A3.69,3.69,0,0,1,39,205.46Z"></path>
      <path class="cls-6" d="M53.26,198.86a1.86,1.86,0,0,0,1.87.32c.92-.48,1.17-1.32.95-1.56a4.12,4.12,0,0,0-.43-.31c-.29-.19-.68.58-.7.59Z"></path>
      <path class="cls-7" d="M52.54,197.78s.55,1.27,1.05,1.19a10.27,10.27,0,0,1,1.08-.1l.09-.27s-.65-.78-.86-.81-.61,0-.7-.08A5,5,0,0,0,52.54,197.78Z"></path>
      <path class="cls-8" d="M52.55,197.6c0,.13,0,.45.29.48a4.3,4.3,0,0,0,.67,0s.68-.75.82-.87.25-.13-.24-.18-.5-.18-.91-.05A1.28,1.28,0,0,0,52.55,197.6Z"></path>
      <path class="cls-9" d="M53.51,198.1a7,7,0,0,0,.48-.68c.18-.32.2-.41.51-.32s1,.06,1.29.31.23.21.05.59a1.46,1.46,0,0,1-.83.74.83.83,0,0,1-1,0A2.08,2.08,0,0,1,53.51,198.1Z"></path>
      <path class="cls-6" d="M70.15,206s4.71,1.15,7.08-2.1,1.76-6.6.58-7.08a15.38,15.38,0,0,0-2-.32c-1.32-.17-1.35,3.18-1.42,3.24S70.15,206,70.15,206Z"></path>
      <path class="cls-7" d="M65.78,203.48s4.1,3.48,5.72,2.34,3.57-2.22,3.57-2.22l-.13-1.09s-3.61-1.59-4.41-1.33-2.21.86-2.57.94A20,20,0,0,0,65.78,203.48Z"></path>
      <path class="cls-8" d="M65.51,202.87c.15.45.6,1.62,1.82,1.16a17.87,17.87,0,0,0,2.37-1.1s1.08-3.78,1.36-4.45.63-.88-1.15-.22-2,.26-3.23,1.41A4.9,4.9,0,0,0,65.51,202.87Z"></path>
      <path class="cls-9" d="M69.7,202.93a22.45,22.45,0,0,0,.49-3.18c.08-1.42,0-1.79,1.24-2s3.76-1.61,5-1.17,1.17.35,1.22,2-.49,2.5-1.6,4a3.22,3.22,0,0,1-3.41,1.57A8.22,8.22,0,0,1,69.7,202.93Z"></path>
      <path class="cls-6" d="M48.42,203.27s2.83,1.59,4.94-.08,2.32-3.93,1.65-4.45a9.49,9.49,0,0,0-1.24-.57c-.82-.35-1.45,1.8-1.5,1.83S48.42,203.27,48.42,203.27Z"></path>
      <path class="cls-7" d="M46.06,200.86s2,3,3.26,2.54,2.7-.78,2.7-.78l.12-.73s-2-1.67-2.6-1.65-1.58.15-1.83.14A12.73,12.73,0,0,0,46.06,200.86Z"></path>
      <path class="cls-8" d="M46,200.42c0,.32.09,1.15,1,1.08a12.33,12.33,0,0,0,1.72-.28s1.39-2.24,1.69-2.62.56-.46-.71-.36-1.35-.2-2.33.33A3.28,3.28,0,0,0,46,200.42Z"></path>
      <path class="cls-9" d="M48.68,201.22a14.75,14.75,0,0,0,.9-2c.3-.9.33-1.15,1.15-1.07s2.72-.36,3.44.15.69.44.43,1.49a3.87,3.87,0,0,1-1.76,2.29,2.18,2.18,0,0,1-2.48.4A5.59,5.59,0,0,1,48.68,201.22Z"></path>
    </g>
  </g>
</svg>
