<?xml version="1.0" encoding="UTF-8"?>
<svg xmlns="http://www.w3.org/2000/svg" xmlns:xlink="http://www.w3.org/1999/xlink" viewBox="0 0 108.59 278.35">
  <defs>
    <style>.cls-1{fill:#8e6848;}.cls-2{fill:url(#Безымянный_градиент_7);}.cls-3{fill:#713e21;}.cls-4{fill:#3d271f;}.cls-5{fill:#69391e;}.cls-6{fill:#6b482f;}.cls-7{fill:#5c3624;}.cls-8{fill:#795135;}.cls-9{fill:#9a734f;}.cls-10{fill:#fff;}.cls-11{fill:#85563a;}.cls-12{fill:#769e59;}.cls-13{fill:#f2d95a;}.cls-14,.cls-16{fill:none;stroke-miterlimit:10;}.cls-14{stroke:#769e59;stroke-width:0.54px;}.cls-15{fill:#79a05b;}.cls-16{stroke:#79a05b;stroke-width:1.21px;}.cls-17{fill:#486f3a;}</style>
    <linearGradient id="Безымянный_градиент_7" x1="51.77" y1="316.1" x2="56.86" y2="221.38" gradientUnits="userSpaceOnUse">
      <stop offset="0.38" stop-color="#9b714f"></stop>
      <stop offset="0.91" stop-color="#754427"></stop>
      <stop offset="1" stop-color="#6e3c20"></stop>
    </linearGradient>
  </defs>
  <g id="Слой_2" data-name="Слой 2">
    <g id="Слой_1-2" data-name="Слой 1">
      <path class="cls-1" d="M56.89,213.11s9.49,11.15,16.82,11.6,32.36-7.46,32.36-7.46l2.52-26.06L56.89,173Z"></path>
      <path class="cls-1" d="M0,189.34l5.16,34s18.32,2.75,21.53,1.83,17.86-6.41,22-6.41,8.22-5.65,8.22-5.65V173Z"></path>
      <polygon class="cls-2" points="7.62 255.16 56.89 278.35 102.47 255.27 55.08 235.19 7.62 255.16"></polygon>
      <path class="cls-3" d="M7.62,255.16,5.16,223.34s23.36-.46,29.77-3.66,22-6.57,22-6.57l-1.81,22.08Z"></path>
      <path class="cls-4" d="M40.91,225.32a8.39,8.39,0,0,0-2.79-1.65v0s-3.73-1.11-5.76,1.4-1.69,5.21-.77,5.65a12.53,12.53,0,0,0,1.61.34s.06,0,.09,0a27.07,27.07,0,0,0,3.46-.78,1.56,1.56,0,0,0,.6-.16l.64-.18c1.46-.46,1.64-.13,2.65-1a3.9,3.9,0,0,0,1.07-2.51,2.19,2.19,0,0,0-.2-.49h0l0,0A1,1,0,0,0,40.91,225.32Z"></path>
      <path class="cls-4" d="M20.91,228.6a10.8,10.8,0,0,0-4,1.3v0s-4.24,2.65-3.54,6.74,3.61,6,4.81,5.53a13.43,13.43,0,0,0,1.69-1.27s0-.09,0-.12c.9-1,1.57-3.12,2.17-4a2.24,2.24,0,0,0,.36-.71c.1-.2.2-.42.36-.78.8-1.79,1.27-1.69,1.28-3.41a5,5,0,0,0-1.52-3.16,3.47,3.47,0,0,0-.65-.22v0h-.08A1.22,1.22,0,0,0,20.91,228.6Z"></path>
      <path class="cls-5" d="M56.89,213.11l-1.81,22.08,47.39,20.08,3.6-38s-14.78-1.7-21.19-.78-17.58,3.66-20.94,1.83A44.21,44.21,0,0,1,56.89,213.11Z"></path>
      <path class="cls-4" d="M38.84,235.8a3.33,3.33,0,0,0-1.23-.31h0a2.27,2.27,0,0,0-2,1.17c-.48,1.17-.05,2.15.34,2.21a4.34,4.34,0,0,0,.65-.05s0,0,0,0a11.12,11.12,0,0,0,1.21-.68A.46.46,0,0,0,38,238l.22-.14c.5-.33.61-.23.89-.67a1.53,1.53,0,0,0,.12-1.06,1.55,1.55,0,0,0-.13-.17h0A.38.38,0,0,0,38.84,235.8Z"></path>
      <path class="cls-4" d="M85.27,226.29a2.25,2.25,0,0,0-.11-.88h0s-.37-1-1.25-1-1.41.49-1.35.77a2.26,2.26,0,0,0,.19.4s0,0,0,0a9,9,0,0,0,.74.62.54.54,0,0,0,.14.11l.14.1c.34.24.3.34.66.41a1,1,0,0,0,.72-.18.76.76,0,0,0,.07-.13h0A.26.26,0,0,0,85.27,226.29Z"></path>
      <path class="cls-4" d="M98.51,242.25a10.81,10.81,0,0,0-1.88-3.76h0s-3.27-3.85-7.25-2.56-5.52,4.48-4.82,5.6a14.91,14.91,0,0,0,1.5,1.51s.1,0,.14,0c1.17.76,3.34,1.12,4.31,1.6a2.29,2.29,0,0,0,.76.25l.83.25c1.9.54,1.87,1,3.58.78a5.08,5.08,0,0,0,2.94-2,3.16,3.16,0,0,0,.13-.68h0l0-.07A1.24,1.24,0,0,0,98.51,242.25Z"></path>
      <path class="cls-4" d="M72.75,229.15a8.36,8.36,0,0,0-1.83,2.65h0s-1.38,3.61.95,5.81,5,2.05,5.54,1.17a10.63,10.63,0,0,0,.45-1.56s0-.06,0-.1a28.57,28.57,0,0,0-.52-3.48,1.69,1.69,0,0,0-.11-.6c0-.17-.07-.35-.14-.65-.34-1.48,0-1.64-.79-2.7a3.89,3.89,0,0,0-2.41-1.25,2,2,0,0,0-.51.17v0l0,0A1,1,0,0,0,72.75,229.15Z"></path>
      <path class="cls-6" d="M72.93,256.15a1.57,1.57,0,0,0,1.55-.41c.53-.69.42-1.41.17-1.53-.07,0-.29-.05-.43-.08s-.32.68-.33.69Z"></path>
      <path class="cls-7" d="M72,255.58s.87.78,1.23.54.78-.45.78-.45l0-.24a3.2,3.2,0,0,0-.94-.32c-.18,0-.49.17-.56.19A4.71,4.71,0,0,0,72,255.58Z"></path>
      <path class="cls-8" d="M72,255.44c0,.1.12.36.39.27a4.09,4.09,0,0,0,.52-.22s.26-.81.32-1,.14-.18-.25-.05-.44,0-.71.28A1.08,1.08,0,0,0,72,255.44Z"></path>
      <path class="cls-9" d="M72.86,255.49a4.37,4.37,0,0,0,.12-.69c0-.31,0-.39.28-.42s.83-.33,1.1-.22.25.08.25.43a1.26,1.26,0,0,1-.38.86.69.69,0,0,1-.75.31A1.86,1.86,0,0,1,72.86,255.49Z"></path>
      <path class="cls-6" d="M62.4,250.11s2.36.12,3.2-1.65.25-3.31-.36-3.44a9.11,9.11,0,0,0-1,0c-.65,0-.37,1.65-.39,1.68S62.4,250.11,62.4,250.11Z"></path>
      <path class="cls-7" d="M60.08,249.3s2.27,1.3,3,.6,1.51-1.38,1.51-1.38l-.16-.51a7,7,0,0,0-2.23-.24c-.36.19-1,.61-1.15.68A9.07,9.07,0,0,0,60.08,249.3Z"></path>
      <path class="cls-8" d="M59.9,249c.11.2.43.72,1,.39a8.06,8.06,0,0,0,1-.74s.18-1.91.25-2.25.23-.48-.57,0-1,.31-1.42,1A2.39,2.39,0,0,0,59.9,249Z"></path>
      <path class="cls-9" d="M61.91,248.68a10.65,10.65,0,0,0,0-1.56c-.09-.69-.16-.86.41-1.07s1.66-1.11,2.29-1,.59.06.76.83a2.78,2.78,0,0,1-.41,2.06A1.55,1.55,0,0,1,63.42,249,4.1,4.1,0,0,1,61.91,248.68Z"></path>
      <path class="cls-6" d="M52.58,257.77s1.84,1.39,3.49.42,2-2.54,1.59-3a5.89,5.89,0,0,0-.82-.53c-.54-.32-1.19,1.13-1.23,1.15S52.58,257.77,52.58,257.77Z"></path>
      <path class="cls-7" d="M51.15,255.84s1.12,2.3,2.05,2.11,2-.29,2-.29l.15-.5s-1.28-1.38-1.67-1.42-1.13,0-1.3-.07A7.8,7.8,0,0,0,51.15,255.84Z"></path>
      <path class="cls-8" d="M51.15,255.53c0,.22,0,.82.57.85a9.81,9.81,0,0,0,1.24,0s1.19-1.45,1.44-1.68.44-.27-.46-.32-.94-.27-1.68,0A2.33,2.33,0,0,0,51.15,255.53Z"></path>
      <path class="cls-9" d="M53,256.35a9.8,9.8,0,0,0,.82-1.3c.3-.6.34-.78.92-.64s1.95,0,2.41.44.44.38.16,1.09a2.74,2.74,0,0,1-1.47,1.45,1.53,1.53,0,0,1-1.78,0A4,4,0,0,1,53,256.35Z"></path>
      <path class="cls-6" d="M48.34,251.42a2.62,2.62,0,0,0,.1-2.69c-.85-1.19-2.08-1.37-2.38-1a5.58,5.58,0,0,0-.34.66c-.22.44.94.84,1,.87S48.34,251.42,48.34,251.42Z"></path>
      <path class="cls-7" d="M47,252.64s1.68-1,1.47-1.7a14.67,14.67,0,0,1-.35-1.49l-.39-.09s-1,1.07-1,1.37,0,.87,0,1A7.19,7.19,0,0,0,47,252.64Z"></path>
      <path class="cls-8" d="M46.73,252.66c.17,0,.63,0,.61-.49a6.49,6.49,0,0,0-.1-.95s-1.19-.81-1.38-1-.24-.32-.22.37-.14.73.12,1.28A1.75,1.75,0,0,0,46.73,252.66Z"></path>
      <path class="cls-9" d="M47.24,251.22a10,10,0,0,0-1.05-.54c-.48-.19-.61-.21-.55-.65s-.12-1.49.18-1.87.26-.36.82-.19a2.1,2.1,0,0,1,1.2,1,1.19,1.19,0,0,1,.15,1.36A3,3,0,0,1,47.24,251.22Z"></path>
      <path class="cls-6" d="M40,253.41a1.15,1.15,0,0,0,.38-1.11c-.19-.6-.68-.83-.85-.72a1.64,1.64,0,0,0-.23.23c-.14.15.29.46.29.48S40,253.41,40,253.41Z"></path>
      <path class="cls-7" d="M39.27,253.74s.82-.21.82-.52,0-.66,0-.66l-.15-.09s-.54.32-.58.44-.09.37-.12.42A3.18,3.18,0,0,0,39.27,253.74Z"></path>
      <path class="cls-8" d="M39.16,253.71c.08,0,.27.08.32-.12a2.44,2.44,0,0,0,.08-.41s-.39-.49-.45-.58,0-.17-.13.12-.16.29-.12.55A.77.77,0,0,0,39.16,253.71Z"></path>
      <path class="cls-9" d="M39.56,253.18a4.14,4.14,0,0,0-.36-.35c-.18-.14-.23-.17-.15-.35s.14-.63.31-.75.16-.11.37,0a.89.89,0,0,1,.36.57.51.51,0,0,1-.11.59A1.39,1.39,0,0,1,39.56,253.18Z"></path>
      <path class="cls-6" d="M37.43,258s1.62-2.6.13-4.66S34,251,33.44,251.61a8.53,8.53,0,0,0-.59,1.15c-.37.76,1.64,1.44,1.66,1.49Z"></path>
      <path class="cls-7" d="M35.06,260.14s2.9-1.77,2.53-3-.62-2.58-.62-2.58l-.68-.14s-1.67,1.86-1.67,2.39.08,1.49.06,1.72A11.91,11.91,0,0,0,35.06,260.14Z"></path>
      <path class="cls-8" d="M34.64,260.18c.31,0,1.09,0,1.06-.86a11.89,11.89,0,0,0-.19-1.64s-2.06-1.4-2.4-1.69-.41-.56-.36.64-.25,1.27.21,2.22A3.07,3.07,0,0,0,34.64,260.18Z"></path>
      <path class="cls-9" d="M35.51,257.68a13.54,13.54,0,0,0-1.81-.92c-.84-.33-1.07-.36-1-1.14s-.22-2.57.29-3.23.44-.63,1.41-.35a3.64,3.64,0,0,1,2.09,1.76,2,2,0,0,1,.27,2.35A5.18,5.18,0,0,1,35.51,257.68Z"></path>
      <path class="cls-10" d="M85.26,245A16.57,16.57,0,0,0,84,241a12.69,12.69,0,0,0-2.47-3.47,21,21,0,0,0-3.39-2.59c-1.54-1-3.09-1.91-4.6-2.9-.18-.57-.37-1.15-.61-1.71a21.23,21.23,0,0,0-2.38-3.92,8.59,8.59,0,0,1-1.09-1.83c-.31-.71-.65-1.38-1-2.05-.28-.51-.6-1-.89-1.47a.43.43,0,0,0,0,0v0s0-.05-.07-.08c-.45-.76-.88-1.54-1.37-2.27-1.36-2.09-2.61-4.22-3.88-6.34.53.37,1.06.73,1.58,1.11,1.78,1.25,3.53,2.55,5.33,3.78s4,1.82,5.4,3.6c-1.31-1.83-3.61-2.39-5.27-3.77S65.78,214.33,64,213c-.85-.66-1.75-1.27-2.53-2l-.09-.15c-1-1.65-2-3.36-3.06-5-.31-1.12-.52-2.28-.77-3.47h0a.41.41,0,0,0-.26-.27l-.14-1h0a.79.79,0,0,0-.9-.66.77.77,0,0,0-.65.64.72.72,0,0,0-.25-.18c0-.33,0-.65.07-1v0a.84.84,0,1,0-1.68-.09c-.1,1.89-.17,3.78-.22,5.67a37.64,37.64,0,0,1-1.94,4.11,11.3,11.3,0,0,1-.84,1.28,5.08,5.08,0,0,1-.5.54,8.35,8.35,0,0,0-.59.6,25.34,25.34,0,0,0-1.93,2.6c-1.18,1.79-2.25,3.6-3.56,5.29a39.66,39.66,0,0,0-2.54,3.87c-1,.72-2,1.43-2.94,2.15a32.48,32.48,0,0,0-5.2,5.08,55,55,0,0,0-4.4,5.75C28.05,239,27,241.16,26,243.36L23.21,250l2.95-6.58c1-2.17,2.11-4.31,3.22-6.44.34-.51.74-1,1.11-1.48a9.61,9.61,0,0,0-.93,4.47c0,2.24-.12,4.49-.28,6.74.21-2.24.38-4.49.41-6.74a10.31,10.31,0,0,1,1.64-5.6q1.22-1.53,2.55-3a37.17,37.17,0,0,1,4.43-4.18c-.5,2.26-1,4.53-1.59,6.77-.33,1.27-.66,2.53-1.07,3.76a11.15,11.15,0,0,1-2,3.33,13.64,13.64,0,0,0-1.95,3.42,8.82,8.82,0,0,0-.26,3.92c.2,2.61.49,5.21.82,7.81-.28-2.6-.53-5.21-.69-7.82a8.71,8.71,0,0,1,.32-3.84,13.06,13.06,0,0,1,2-3.33A11.44,11.44,0,0,0,36,237.86c.43-1.24.78-2.5,1.13-3.77s.64-2.53,1-3.8A28.38,28.38,0,0,0,39.16,234c.3.81.65,1.59,1,2.37-.32,3.77-.26,7.5-.33,11.24,0,1.91-.06,3.81-.14,5.72,0,.78-.06,1.58-.12,2.36-.45,1.47-.95,2.92-1.51,4.36a31.82,31.82,0,0,1-2.61,5.5,32.37,32.37,0,0,0,2.83-5.41c.39-.91.77-1.82,1.13-2.74a14.4,14.4,0,0,1-.31,1.59s0,0,0,.05a.05.05,0,0,0,0,0,14.25,14.25,0,0,0,.46-2.25c.3-.78.58-1.56.83-2.35a27.85,27.85,0,0,0,.8-3,16.34,16.34,0,0,0,.27-3.09c.08-2,.27-4,.54-6l0-.17c0,.2.09.4.13.6a30.92,30.92,0,0,1,.48,4.62,29,29,0,0,0-.51-5.87c.57-3.72,1.36-7.46,3.69-10.4.58-.81,1.23-1.59,1.86-2.41l.16-.22a11.75,11.75,0,0,1,1.34,1.39c-.38.62-.76,1.25-1.11,1.88-.77,1.39-1.47,2.77-2.16,4.2a16.33,16.33,0,0,0-1.5,4.55,8.8,8.8,0,0,0,.66,4.78c.62,1.45,1.33,2.85,2,4.24.12.25.25.5.37.76a25.19,25.19,0,0,1-2.88,6.18,25.5,25.5,0,0,0,3-5.94,24.46,24.46,0,0,1,1.41,3.21,5,5,0,0,1,.26,2.2c0,.77-.11,1.55-.18,2.33s-.14,1.56-.15,2.35a7.88,7.88,0,0,1-.18,2.28,8.72,8.72,0,0,0-.1,4.7c.6,1.48,1.17,2.89,1.66,4.38a25.87,25.87,0,0,0,1.74,4.34,26.08,26.08,0,0,1-1.6-4.38c-.43-1.49-1-3-1.51-4.42a8.75,8.75,0,0,1,.23-4.53,8.6,8.6,0,0,0,.23-2.36c0-.77.1-1.54.19-2.31s.17-1.56.22-2.34a5.5,5.5,0,0,0-.25-2.41A29.42,29.42,0,0,0,48,249.58a14.66,14.66,0,0,0,.54-3.54,10.35,10.35,0,0,1,1-3.5l.07-.13c.19.44.39.87.57,1.32a25.37,25.37,0,0,1,1.2,3.05c.23,1.06.35,2.16.49,3.25.17,1.63.37,3.27.43,4.91-.07.58-.15,1.16-.27,1.74.12-.49.19-1,.27-1.47,0,.47,0,.94,0,1.42,0-.57,0-1.13,0-1.69.29-2,.34-4,.6-5.91.15-1.28.35-2.54.6-3.8a35.64,35.64,0,0,0,.73-3.81,10.66,10.66,0,0,0-.91-4.77c.07-.09.14-.19.22-.28.74-1,1.54-1.92,2.22-3.06a6,6,0,0,0,.26-.58c.29.75.58,1.5.84,2.26l1,3a13.54,13.54,0,0,1,.78,3v.12c-1.85,4.45-3.76,9-4.25,13.89-.35,3,.43,5.88.69,8.76s.61,5.81.75,8.73c0-2.92-.18-5.85-.42-8.76s-.9-5.81-.49-8.68a42.93,42.93,0,0,1,3.78-12c0,.34,0,.68,0,1a17,17,0,0,1-.44,3.09c-.45,2-1.11,4-1.65,6.06a15.64,15.64,0,0,0-.44,3.12L56,259.5l.31-3.13a15.32,15.32,0,0,1,.5-3.09c.56-2,1.26-4,1.75-6a18.39,18.39,0,0,0,.5-3.13c0-.56,0-1.11,0-1.66.56-1.27,1.12-2.54,1.67-3.82,1.13-2.88,1-6,.63-8.88a33.27,33.27,0,0,0-2.24-8.59,26.76,26.76,0,0,1-1.61-4c-.18-.61-.32-1.23-.45-1.85v-3L58.22,217c.68,2.48,1.36,5,2.18,7.41.4,1.26,1,2.4,1.4,3.58a32.52,32.52,0,0,1,1,3.66,38.43,38.43,0,0,1,1,7.56,28.11,28.11,0,0,1-1,7.54c-.57,2.49-1.24,5-1.86,7.46-.31,1.24-.61,2.49-.88,3.75a12.63,12.63,0,0,0-.37,3.83.09.09,0,0,0,0,0,0,0,0,0,0,0-.05,12.79,12.79,0,0,1,.45-3.78c.29-1.25.62-2.49,1-3.72.67-2.48,1.39-4.94,2-7.43a28.91,28.91,0,0,0,1.17-7.64,39.77,39.77,0,0,0-.8-7.7,35.38,35.38,0,0,0-1-3.77c-.39-1.26-1-2.41-1.32-3.61-.75-2.42-1.38-4.91-2-7.39l0-.21c.19.5.38,1,.58,1.51a25.09,25.09,0,0,0,4.42,7.35l.51.52a40,40,0,0,0,3.56,8l.1.15c-.11.6-.25,1.19-.37,1.78-.52,2.43-1.12,4.85-1.55,7.29s-.87,5-.19,7.39c-.6-2.43,0-4.94.43-7.34.34-1.67.77-3.31,1.19-5a5.42,5.42,0,0,1,1.88,2.49,7.12,7.12,0,0,1,.27,3.41,60.94,60.94,0,0,1-.87,7,37.2,37.2,0,0,1-2,6.74c-.42,1.1-.82,2.21-1.19,3.33a8.68,8.68,0,0,0-.64,3.44,8.69,8.69,0,0,1,.69-3.43c.38-1.11.8-2.21,1.23-3.3a37.9,37.9,0,0,0,2.11-6.74,66.17,66.17,0,0,0,1-7,7.43,7.43,0,0,0-.24-3.56,5.8,5.8,0,0,0-2.1-2.81c.15-.61.31-1.22.47-1.83.1-.43.21-.86.31-1.29A17.64,17.64,0,0,0,70.64,237a14.42,14.42,0,0,0,3.11,2.38l.12.06a22.92,22.92,0,0,1-.9,4c-.86,2.86-1.83,5.69-2.8,8.53a39.34,39.34,0,0,0-1.26,4.34,12.55,12.55,0,0,0-.1,4.53,30,30,0,0,0,3,8.48,29.63,29.63,0,0,1-2.67-8.52c-.47-3,.58-5.86,1.6-8.65s2-5.63,3-8.5a25.29,25.29,0,0,0,1-3.81,23.79,23.79,0,0,1,2.46,1.46,6.36,6.36,0,0,1,2.3,2.83c.95,2.32.95,4.92,1,7.49l.18,7.73h0a.43.43,0,0,0,.44.41.42.42,0,0,0,.4-.44l-.28-7.73c-.09-2.55-.11-5.25-1.16-7.73a7.06,7.06,0,0,0-2.54-3,29.6,29.6,0,0,0-2.72-1.55s0,0,0-.06a14.85,14.85,0,0,0-.48-4.58c-.11-.53-.25-1.08-.39-1.63,1.32.8,2.66,1.57,4,2.36a20.41,20.41,0,0,1,3.36,2.43,12.63,12.63,0,0,1,2.46,3.3A16.29,16.29,0,0,1,85,245.06c.28,1.38.67,2.73.94,4.11.56,2.75,1.06,5.51,1.53,8.28-.41-2.78-.83-5.55-1.33-8.32C85.87,247.74,85.51,246.38,85.26,245ZM69.69,227a19.7,19.7,0,0,1,2.35,3.7c.06.14.1.28.16.42-.37-.26-.75-.51-1.12-.78-.67-.49-1.32-1-2-1.54,0-.13,0-.26,0-.39-.12-1.08-.31-2.14-.52-3.2A10,10,0,0,0,69.69,227Zm-2.8-4.9a41.22,41.22,0,0,1,1.43,6A35.63,35.63,0,0,1,65,224.72c-.21-.24-.39-.5-.59-.75-.49-1.52-1-3-1.44-4.56-1.26-3.27-2.75-6.44-4.29-9.57l-.06-.23c-.06-.3-.11-.61-.17-.91.63,1,1.26,2,1.86,3,1.61,2.53,3.16,5.13,4.82,7.59C65.72,220.18,66.31,221.13,66.89,222.08Zm-11.36.15a27.85,27.85,0,0,1,.49,7.28q-.06.63-.18,1.26a13.91,13.91,0,0,1-.53-1.84c-.36-1.65-.61-3.34-.9-5l.94-1.48.17-.28S55.53,222.2,55.53,222.23Zm-1.4.17a26.24,26.24,0,0,1-.73-8.55l.34-.66c0,.57.06,1.15.12,1.73a19.48,19.48,0,0,0,.78,3.76c.21.63.38,1.28.54,1.93C54.87,221.2,54.51,221.8,54.13,222.4Zm1.72-3.7c0-.12-.06-.24-.09-.36a17,17,0,0,1-.64-3.55c-.11-1.49-.14-3-.15-4.51.1-.24.19-.48.28-.72.07,1.17.17,2.35.33,3.52.11.82.26,1.64.43,2.45A24.91,24.91,0,0,1,55.85,218.7Zm-11.42,1.46c1.37-1.62,2.56-3.43,3.8-5.14a23.67,23.67,0,0,1,2-2.44,5.37,5.37,0,0,1,.56-.51,7,7,0,0,0,.61-.61,10.26,10.26,0,0,0,.75-1l0,.05-1.7,4.09c-.28.65-.56,1.3-.86,1.93s-.62,1-.93,1.53c-.07.07-.13.14-.21.21A28.14,28.14,0,0,0,45,221.17a4,4,0,0,0-.24.33c-.95.76-1.93,1.5-2.92,2.22A40.9,40.9,0,0,1,44.43,220.16Zm-5.49,6.58c.07,0,.13-.1.19-.14L41,225.38a.3.3,0,0,0,0,.08l0-.08c.9-.61,1.8-1.22,2.69-1.84l-.86,1.56L40.64,229a23.83,23.83,0,0,0-1.56,3.41c-.31-1-.59-1.93-.83-2.9C38.48,228.58,38.73,227.66,38.94,226.74Zm.16,5.73a22.83,22.83,0,0,1,1.79-3.34c.78-1.25,1.61-2.47,2.45-3.69l1.25-1.85c.2-.31.4-.62.6-1,.06-.11.12-.2.18-.29.44-.32.87-.67,1.31-1-.77,1.36-1.53,2.71-2.25,4.09-1.62,3.27-3.37,6.52-4.13,10.2-.25-.59-.5-1.18-.73-1.76S39.25,232.93,39.1,232.47Zm1.75,15.86a18.5,18.5,0,0,1-.15,3,30,30,0,0,1-.68,2.95c0,.17-.1.33-.15.49l.12-1.42c.13-1.9.2-3.81.27-5.72.15-3.31.2-6.65.49-9.92.08.19.18.38.25.57a16.53,16.53,0,0,1,.59,1.76c-.11.72-.22,1.44-.31,2.16C41,244.23,40.89,246.28,40.85,248.33Zm4.21-17.85a16.68,16.68,0,0,0-2.67,5.65c-.29,1.08-.51,2.16-.7,3.26-.12-.41-.22-.83-.37-1.23s-.33-.84-.5-1.25l.06-.68c.68-3.63,2.55-7.07,4.27-10.43.93-1.72,1.9-3.43,2.89-5.13a12,12,0,0,1,.22,4.9A7.37,7.37,0,0,1,46.89,228C46.29,228.82,45.65,229.63,45.06,230.48Zm3.38-2.76a5.76,5.76,0,0,0,.93-1.89,14.12,14.12,0,0,0-.34-6.38v0s0,0,0,0c.58-.51,1.16-1,1.71-1.55a14.16,14.16,0,0,0,1.89-2.57c0,.45,0,.89,0,1.34a22.9,22.9,0,0,0,.28,3.18c.23,1.1.53,2,.71,3.07l.06.28-.43.68c-1.15,1.75-2.35,3.48-3.48,5.27A13,13,0,0,0,48.44,227.72ZM50,230.79a15.53,15.53,0,0,1,1.62,3.41c.34.79.71,1.57,1,2.35a38.37,38.37,0,0,0-3,4.75,22.16,22.16,0,0,1-1.2-3.93,11.35,11.35,0,0,1,1.29-6.17l0,0h0a.54.54,0,0,0,0-.18c.05-.09.11-.17.16-.25Zm-.86,11.58a10.93,10.93,0,0,0-.94,3.65,15.19,15.19,0,0,1-.38,3.24l0-.07c-1.28-2.81-3.08-5.59-2.47-8.6A21.24,21.24,0,0,1,48,234.16a10.14,10.14,0,0,0-.1,3.3,23.89,23.89,0,0,0,1.54,4.43C49.32,242.05,49.23,242.21,49.15,242.37Zm4.68-1a34.33,34.33,0,0,1-.61,3.77c-.22,1.27-.38,2.55-.49,3.83-.2,1.86-.2,3.72-.39,5.57,0-1.52-.15-3-.26-4.56-.1-1.1-.19-2.2-.4-3.3a23.47,23.47,0,0,0-1.11-3.15c-.22-.56-.45-1.13-.67-1.7A33.84,33.84,0,0,1,53,237.21,9.65,9.65,0,0,1,53.83,241.4ZM53.09,236c-.28-.69-.57-1.36-.83-2A14.44,14.44,0,0,0,50.41,230c1.14-1.79,2.32-3.57,3.52-5.36.26,1.47.52,2.94.87,4.4a15.18,15.18,0,0,0,.85,2.57,6.69,6.69,0,0,1-.49,1.34A34.43,34.43,0,0,1,53.09,236Zm5-14.42a32.61,32.61,0,0,1,2.18,8.32,18.72,18.72,0,0,1-.51,8.44c-.29.72-.59,1.45-.89,2.17a20.42,20.42,0,0,0-.69-2.61l-.92-3c-.31-.94-.63-1.87-1-2.79a13.27,13.27,0,0,0,.53-2.47,29,29,0,0,0-.29-7.56c-.07-.46-.17-.92-.26-1.38.06-.13.13-.25.19-.39a6.85,6.85,0,0,0,.37-1.63C57.25,219.65,57.73,220.64,58.14,221.55Zm2.76-4a52.55,52.55,0,0,1-2.19-7.41c1.45,3,2.84,6.14,4,9.3.38,1.28.75,2.57,1.15,3.86A26.79,26.79,0,0,1,60.9,217.59Zm4.31,8.84a37.66,37.66,0,0,0,3.26,2.93,19.09,19.09,0,0,1,.13,2.83,10.61,10.61,0,0,1-.12,1.24A39.12,39.12,0,0,1,65.21,226.43Zm8.15,8.44a14.68,14.68,0,0,1,.55,4A13.11,13.11,0,0,1,71,236.69a17.23,17.23,0,0,1-2.06-2.59,12.84,12.84,0,0,0,.28-1.89,21.68,21.68,0,0,0,0-2.28c.46.36.93.71,1.41,1,.66.47,1.35.91,2,1.35C72.93,233.14,73.16,234,73.36,234.87Z"></path>
      <polygon class="cls-11" points="0 189.34 56.89 213.11 108.59 191.19 56.89 172.96 0 189.34"></polygon>
      <path class="cls-12" d="M51.62,133.42c1.75-2.21,4.57-1.9,6.28.18.38.47,1-.2.66-.66-2-2.46-5.56-2.78-7.61-.18-.37.47.3,1.14.67.66Z"></path>
      <path class="cls-13" d="M56.64,116.52a1.83,1.83,0,0,0,.79-1.87s-.06-.24-.36,0a3.6,3.6,0,0,0-.17-.7c-.08-.12-.4.22-.6.92,0,0-.49-.85-1.15-.74a1.39,1.39,0,0,0,.33,1.18s-1,.06-1,.74C54.5,116.05,54.57,116.57,56.64,116.52Z"></path>
      <path class="cls-12" d="M67,90.52s-7.35-.45-10,5.11-2.51,10.94,1.16,15.69c0,0,1.08,1.16,1.26,0s1.34-2.15,1.65-2,3.9,4.93,16.09,5.11c0,0,1.35.72.81-1.07s-2-3.23.13-2.15S89.58,114.9,90.39,115s1.52.18,1.35-1.88-1.35-14.43-4.22-18.47c0,0-1-.62.54-1.52s2.6-1.72,1.43-2.61-2.95-3.57-10.3-5.9c0,0-1.35,0-.36-1.17s3.4-3.32-.18-2.69-10,.81-14.07,4.66a1.56,1.56,0,0,0-.36,2.33,12,12,0,0,0,3.67,2.51Z"></path>
      <path class="cls-12" d="M86.74,128.31s-1.21-8.88-9.68-7.67-9.07,8.27-8.87,9.89S67.58,142,82.71,148.88s16.54,8.87,16.54,8.87-1-1,0-3,5.64-8.68,6.25-10.09,5.44-13.11-5-18.15-10.69-1.81-10.69-1.81A3.9,3.9,0,0,1,86.74,128.31Z"></path>
      <path class="cls-12" d="M82.73,42.39s3.63,1.88,5.38,1.48,6-2.5,7.93-.72A5.73,5.73,0,0,1,97.92,47s5.38-5,2.29-10.35c0,0,1.21-1.48,2.28,0,0,0,1.67-7.94-10.73-11.43,0,0-1.7-.88.18-1.21S93,23.56,93,23.56s-5.44-2.22-6.52-2.42-6.32-1.75-8.2.54-1.41,5.51-1.48,5.85-4.7-2.49-8.07.81,2,11.09,2,11.09,1.55.2,2-2,.67-.07.87.14,4.17,4.7,6.19,5.37,2.08,1.08,2.42,1S82.73,42.39,82.73,42.39Z"></path>
      <path class="cls-12" d="M66.46,20.44s.47-.64,0-1.11.74-1.55,2.75-1.41,8.54-.81,9.89.6c0,0,.4-5-1.82-8.2,0,0-1.68-2.62.61-2.35C77.89,8,75.6,4.4,72,3.8s-8.74-.67-5.24-2.62c0,0-3.1-3.23-9.75,1s-3.5,10.49-1.28,11.64c0,0-5.11,2.89-5.44,4.77s-.61,4,7.12,3.56S66.46,20.44,66.46,20.44Z"></path>
      <path class="cls-12" d="M44.32,55.83s-9-2.69-13.72-.45S23.25,61,25.05,67.48c0,0-2.6,12.2,5.64,18.38,0,0,.72.9,1-1.79s5-7.71,5.68-8.43a6,6,0,0,0,1-2.24s7.53-.63,9.77,1c0,0,.27.8.72-1.17s1.7-7.44,6.36-7.26-2.63-8.25-5.12-7.89C50.13,58.07,42.53,62.91,44.32,55.83Z"></path>
      <path class="cls-14" d="M62.48,38c-.34-2.86-.58-6.08,1.27-8.28a7.07,7.07,0,0,1,4.31-2.25,21.08,21.08,0,0,1,5-.06"></path>
      <path class="cls-12" d="M59.48,33.58c-2.88-4.3-7.15-8.52-5-14.12.11-.28-.34-.4-.45-.12-2.2,5.74,2.08,10,5,14.48.17.25.58,0,.41-.24Z"></path>
      <path class="cls-15" d="M64.89,141.9a44.23,44.23,0,0,1-.72-9.54c.32-4.4,3.49-6.68,7.52-7.75a.47.47,0,0,0-.25-.9c-3,.79-6.12,2.3-7.49,5.28-1.75,3.79-.57,9.21,0,13.16.09.59,1,.34.91-.25Z"></path>
      <path class="cls-15" d="M45.41,107.55c.51-6.66,2.92-12.8,9.45-15.55,5.46-2.29,11.46-1.66,17.21-1,.6.06.59-.88,0-.94-7-.75-14.78-1.48-20.83,2.87-4.78,3.44-6.34,9.06-6.77,14.66,0,.6.9.6.94,0Z"></path>
      <path class="cls-15" d="M53.33,78.8c8.53-1.7,15.78-6.25,23-11,.51-.33,0-1.15-.47-.81C68.7,71.7,61.55,76.21,53.08,77.9c-.59.12-.34,1,.25.9Z"></path>
      <path class="cls-16" d="M43.27,63.22A5.86,5.86,0,0,1,45,60.8c2.77-2.8,6-5.46,9.92-6.07a9.51,9.51,0,0,1,7.83,2.2,7.42,7.42,0,0,1,2.11,7.67"></path>
      <path class="cls-12" d="M73.69,64.16a8.24,8.24,0,0,1-2.52,6c-.21.21.12.54.34.33a8.77,8.77,0,0,0,2.66-6.37.24.24,0,0,0-.48,0Z"></path>
      <path class="cls-12" d="M62.83,152.1a6.08,6.08,0,0,0-3.9,2.56c-1.61,2.28-5.55,4.84-18.3,4.43,0,0-6.44-.53-6.17,5.78,0,0-8.94-15.17-10-17.76-.8-2-1.11-14,10.82-12.45A11.61,11.61,0,0,1,44.53,141a6.52,6.52,0,0,1,.68,2.38c.27,3.63,2.16.81,2.16.81S59.06,138.25,62.83,152.1Z"></path>
      <path class="cls-15" d="M56.32,154.3c.54,2.43,1.82,4.59,2.62,6.94a36.65,36.65,0,0,1,1.75,8.29c.06.6,1,.6.94,0A37.85,37.85,0,0,0,60.18,162c-.83-2.7-2.34-5.21-3-8-.13-.59-1-.34-.91.25Z"></path>
      <path class="cls-14" d="M60.67,35.37a2.7,2.7,0,0,0-4.41,2.9"></path>
      <path class="cls-15" d="M72.12,69.82a11.08,11.08,0,0,0,2.34.47,3.08,3.08,0,0,1,1.32.57,3.94,3.94,0,0,1,.87,1.08c.85,1.44,1.72,2.84,2.66,4.21a34.22,34.22,0,0,0,6.55,7.39A21.35,21.35,0,0,0,90,86.21a9.87,9.87,0,0,0,4.7,1.28,3,3,0,0,0,2.08-1.08,2,2,0,0,0,.1-2.26,1.34,1.34,0,0,0-1-.61,1.5,1.5,0,0,0-1.12.37A1,1,0,0,0,94.41,85c.11.38.53.75.94.57-.41.19-.85-.17-1-.56a1.08,1.08,0,0,1,.36-1.15,1.6,1.6,0,0,1,1.17-.41,1.42,1.42,0,0,1,1.08.63,2.12,2.12,0,0,1,0,2.43,3.22,3.22,0,0,1-2.21,1.21,10.17,10.17,0,0,1-4.87-1.19,21.5,21.5,0,0,1-4.3-2.62,35.09,35.09,0,0,1-6.84-7.35c-1-1.36-1.9-2.78-2.78-4.19a2.21,2.21,0,0,0-1.67-1.22,11,11,0,0,1-2.55-.47Z"></path>
      <path class="cls-17" d="M74.32,56.21s.67-3.56,1.61,0a12.57,12.57,0,0,1-.81,7.93c-.33.4-2.35,1-2.08-.67S74.32,56.21,74.32,56.21Z"></path>
      <path class="cls-17" d="M76.65,65.76c1.48-.61,7.6-2.09,7.6-1.28s.26,1-1.08,1.65-6.52,2.45-7,1.44A1.61,1.61,0,0,1,76.65,65.76Z"></path>
      <path class="cls-12" d="M32.93,106.46c-.49-3.26,4-3.73,6.09-3.47s4.44.76,5.34,2.85c.18.41.79,0,.61-.36-1.88-4.36-13.64-4.92-12.72,1.16.07.45.75.26.68-.18Z"></path>
      <path class="cls-17" d="M31.82,101.21a3.84,3.84,0,0,0,1.93-1c.71-.7,1-1.62-1.79-1.86a20.17,20.17,0,0,0-8.3,1.17,3.89,3.89,0,0,0-.92.49c-.85.6-2.22,1.87,1.16,2A36,36,0,0,0,31.82,101.21Z"></path>
      <path class="cls-12" d="M38.89,107.37c-.87-1.17.49-2.08,1.45-2.37a1.86,1.86,0,0,1,1.81.22,5.44,5.44,0,0,1,2.44,3.3c0,.44.76.45.71,0-.19-1.68-2.12-4.16-3.89-4.37s-4.55,1.68-3.13,3.57c.27.36.89,0,.61-.35Z"></path>
      <path class="cls-12" d="M57.94,124a107.92,107.92,0,0,1,1.69,11.15c.06.6,1,.61.94,0a112.78,112.78,0,0,0-1.72-11.4c-.12-.59-1-.34-.91.25Z"></path>
      <path class="cls-17" d="M56,116.82s0-1.52,1.43-.53,1.82,7.88,1.82,7.88-.27,1.89-1.63.63S56,116.82,56,116.82Z"></path>
      <path class="cls-13" d="M57.41,47.14s1.16.34,1.19,1.38c0,0,0,.22-.31.1a2.8,2.8,0,0,1,0,.64c0,.13-.39-.08-.76-.61,0,0-.18.86-.78,1a1.26,1.26,0,0,1,0-1.1s-.84.21-1-.36C55.71,48.14,55.62,47.67,57.41,47.14Z"></path>
      <path class="cls-17" d="M56.43,46.86s.51,1.44,1.53,0-.91-8-.91-8-.88-1.68-1.74-.05S56.43,46.86,56.43,46.86Z"></path>
      <path class="cls-17" d="M45.37,135.92a8.73,8.73,0,0,1,1-1.35A14.63,14.63,0,0,1,49.54,132c1.47-.89,5.83-2.47,1.89,2.64s-7.19,5.2-7.59,4.75S44.72,137,45.37,135.92Z"></path>
      <path class="cls-12" d="M75.36,67.32a39.52,39.52,0,0,1,1-4.65,12.59,12.59,0,0,1,2.07-4.32c1-1.33,2.4-2.14,3.14-3.45a4.59,4.59,0,0,0,.32-4.28,3.5,3.5,0,0,0-3.64-2,3.18,3.18,0,0,0-1.88,1.15,2.5,2.5,0,0,0-.51,2.11,2.81,2.81,0,0,0,1.31,1.79,2.3,2.3,0,0,0,2.19.14,1.52,1.52,0,0,0,1-1.85,1.6,1.6,0,0,0-.76-.84,1.06,1.06,0,0,0-1.11,0,1.08,1.08,0,0,1,1.12-.07,1.64,1.64,0,0,1,.8.84,1.59,1.59,0,0,1-1,2A2.46,2.46,0,0,1,77,53.78a3,3,0,0,1-1.42-1.88,2.73,2.73,0,0,1,.5-2.32,3.48,3.48,0,0,1,2-1.29,3.86,3.86,0,0,1,4.06,2.14A5.06,5.06,0,0,1,82,55.15c-.82,1.47-2.25,2.32-3.1,3.56-1.82,2.48-2.27,5.66-2.7,8.72Z"></path>
      <path class="cls-12" d="M43.4,104.25a6.12,6.12,0,0,1-.28-3.86A9.65,9.65,0,0,1,44.69,97,29.37,29.37,0,0,1,47,94.41,6.82,6.82,0,0,0,48,93.15c.23-.43.48-1,.68-1.49a6,6,0,0,0,.4-1.51,13.08,13.08,0,0,0,.09-1.64A5.64,5.64,0,0,0,48.87,87a6.89,6.89,0,0,0-.69-1.42,8.07,8.07,0,0,0-5.29-3.47,9,9,0,0,0-3.27,0A4.59,4.59,0,0,0,37,83.81,7.14,7.14,0,0,0,35.23,90a4.78,4.78,0,0,0,5.11,3.38,4.9,4.9,0,0,0,4.15-4.69,5,5,0,0,1-4.12,4.89,5.08,5.08,0,0,1-5.53-3.47,6.29,6.29,0,0,1,0-3.52,8.88,8.88,0,0,1,1.61-3.13,6.71,6.71,0,0,1,1.29-1.26,5,5,0,0,1,1.68-.74A9.28,9.28,0,0,1,43,81.29,9,9,0,0,1,49,85a8.24,8.24,0,0,1,.86,1.64,6.88,6.88,0,0,1,.35,1.83,13.34,13.34,0,0,1,0,1.8,6.44,6.44,0,0,1-.42,1.82,17.86,17.86,0,0,1-.7,1.66A8,8,0,0,1,48,95.27a26.86,26.86,0,0,0-2.16,2.58c-1.19,1.75-1.82,4-1,5.73Z"></path>
      <path class="cls-12" d="M23.84,90.33a2.41,2.41,0,0,0,1.42-2.17A2.52,2.52,0,0,0,24,85.91a3.25,3.25,0,0,0-4.57,1.22A5.76,5.76,0,0,0,19,89.75a5.61,5.61,0,0,0,.91,2.48c.89,1.61,2.77,2.07,4.55,2.3l11,1.44A15.32,15.32,0,0,1,41,97.41a10.58,10.58,0,0,1,2.3,1.8,5.67,5.67,0,0,1,1.52,2.66l-1.19.22A4.52,4.52,0,0,0,42.4,100a9,9,0,0,0-2-1.64,14.26,14.26,0,0,0-5.09-1.46L24.39,95.15a11.21,11.21,0,0,1-2.73-.75,4.81,4.81,0,0,1-1.22-.79,5,5,0,0,1-.89-1.14,6,6,0,0,1-.9-2.69,6.28,6.28,0,0,1,.5-2.78,3.48,3.48,0,0,1,5-1.22,2.64,2.64,0,0,1,1.24,2.39A2.45,2.45,0,0,1,23.84,90.33Z"></path>
      <path class="cls-12" d="M33.67,99.86a12.61,12.61,0,0,1,9.45,3.38c.43.42,1.1-.24.66-.67a13.55,13.55,0,0,0-10.11-3.65c-.6,0-.61,1,0,.94Z"></path>
      <path class="cls-13" d="M45.54,137.71a3.4,3.4,0,0,0-2.6.61,1.53,1.53,0,0,0,1,.35s-.51.62-.41,1c0,0,.26.14.94-.16,0,0-.2.65-.05.86a2.1,2.1,0,0,0,1.38-2.27S45.85,137.55,45.54,137.71Z"></path>
      <path class="cls-17" d="M37.77,113.94a7.19,7.19,0,0,1-.44-1.41,12.49,12.49,0,0,1-.17-3.57c.12-1.5,1.25-5.41,2.84,0s0,7.79-.54,7.84S38.21,115,37.77,113.94Z"></path>
      <path class="cls-13" d="M39.12,114.74a3,3,0,0,0-.91,2.17,1.36,1.36,0,0,0,.76-.52s.18.68.47.78c0,0,.24-.11.38-.75,0,0,.36.48.58.48a1.85,1.85,0,0,0-.9-2.15S39.17,114.44,39.12,114.74Z"></path>
      <path class="cls-14" d="M54,34.49a3.49,3.49,0,0,1,5.74.15"></path>
      <path class="cls-17" d="M49.41,36.28s1.78-2.19,3.11-2.68,4.83-2,1.56,2.19-5.95,4.3-6.27,3.93S49.41,36.28,49.41,36.28Z"></path>
      <path class="cls-13" d="M49.09,38.33a4.49,4.49,0,0,0-3.42.81,2,2,0,0,0,1.3.45s-.67.83-.54,1.26c0,0,.35.2,1.25-.21,0,0-.27.86-.08,1.13a2.75,2.75,0,0,0,1.81-3S49.49,38.12,49.09,38.33Z"></path>
      <path class="cls-17" d="M28.57,109.9a6.6,6.6,0,0,1,.58-1.74,13,13,0,0,1,1.63-2.7c.95-1,3.86-3.54,2.2,1.54s-4.16,6-4.59,5.81S28.37,111,28.57,109.9Z"></path>
      <path class="cls-13" d="M29.24,111a2.86,2.86,0,0,0-1.86,1.2,1.23,1.23,0,0,0,.87,0s-.22.63-.05.87c0,0,.24,0,.69-.39,0,0,0,.57.19.68a1.73,1.73,0,0,0,.45-2.15S29.44,110.8,29.24,111Z"></path>
      <path class="cls-13" d="M83.79,65a.83.83,0,0,0,.88-.39c.35-.53,1.55-1.5,1.39-.51s-.47.92-.47.92,1.45.31.33,1a.88.88,0,0,1-1,.75s.45-1.36-1.27-1.38C83.7,65.41,83.32,65,83.79,65Z"></path>
      <path class="cls-13" d="M74.86,54.62c.36,0,1.48,0,1.57-1.86a.59.59,0,0,0-.51,0,1,1,0,0,0,.23-.82s-.54,0-1,.75c0,0-.39-1.11-.91-1.16,0,0-.2,1,0,1.31,0,0-1.13-.15-1.37.39C72.83,53.23,73.91,54.55,74.86,54.62Z"></path>
      <path class="cls-12" d="M56.74,30.88a37.07,37.07,0,0,0-13.19-5.47,20.74,20.74,0,0,0-7.07-.18,9.32,9.32,0,0,0-6,3.21,6.17,6.17,0,0,0-1.34,3.15,5.2,5.2,0,0,0,.79,3.3,4.27,4.27,0,0,0,2.73,2,5.13,5.13,0,0,0,3.43-.2,3.93,3.93,0,0,0,1.46-.91,3,3,0,0,0,.75-1.52,3.22,3.22,0,0,0-1.06-3.14,2.42,2.42,0,0,0-3.19.07,1.57,1.57,0,0,0-.25,1.63,1.36,1.36,0,0,0,1.3,1s0,0,0,0,0,0,0,0a1.45,1.45,0,0,1-1.41-1,1.73,1.73,0,0,1,.25-1.76,2.6,2.6,0,0,1,3.42-.15,3.5,3.5,0,0,1,1.2,3.36A3.27,3.27,0,0,1,37.74,36a4.35,4.35,0,0,1-1.57,1,5.58,5.58,0,0,1-3.65.26,4.75,4.75,0,0,1-3-2.11,5.74,5.74,0,0,1-.9-3.59A6.6,6.6,0,0,1,30,28.11a9.83,9.83,0,0,1,6.36-3.54,20.64,20.64,0,0,1,7.31.2,33.09,33.09,0,0,1,13.1,6.06,0,0,0,0,1,0,.05A0,0,0,0,1,56.74,30.88Z"></path>
      <path class="cls-12" d="M52.24,27.81a31.13,31.13,0,0,1,4.69,3.13,30.88,30.88,0,0,1,3.83,4.18,43.39,43.39,0,0,1,6.06,9.55,21.21,21.21,0,0,1,1.91,11.2,24,24,0,0,1-4.32,10.57c-4.32,6.34-10.43,11-14.58,17.11a26,26,0,0,0-4.22,10,30.9,30.9,0,0,0-.07,10.85,37,37,0,0,0,3.37,10.35,72.84,72.84,0,0,0,5.85,9.39c2.16,3,4.4,6.11,6.36,9.43a49.27,49.27,0,0,1,4.73,10.58,38.29,38.29,0,0,1,1.73,11.59,32.62,32.62,0,0,1-2.31,11.56c-.67,1.81-1.41,3.55-2.09,5.27s-1.29,3.43-1.84,5.18a75.12,75.12,0,0,0-2.5,10.67,2,2,0,1,1-4-.62v0a76.81,76.81,0,0,1,2.86-11.19c.61-1.82,1.3-3.63,2-5.39s1.5-3.47,2.17-5.16a29.07,29.07,0,0,0,2.31-10.36A35,35,0,0,0,62.88,145a46.93,46.93,0,0,0-4.23-10c-1.81-3.19-3.94-6.24-6-9.37a73.08,73.08,0,0,1-5.84-9.84,39,39,0,0,1-3.35-11.06,33,33,0,0,1,.31-11.56,27.77,27.77,0,0,1,4.72-10.54c4.51-6.27,10.68-10.79,15-16.84a22.9,22.9,0,0,0,4.34-10A20.44,20.44,0,0,0,66.13,45a43.46,43.46,0,0,0-5.78-9.53c-.57-.74-1.16-1.47-1.76-2.19a20.41,20.41,0,0,0-1.88-2.06A29.63,29.63,0,0,0,52.24,27.81Z"></path>
      <path class="cls-6" d="M53.44,199.09a1.58,1.58,0,0,0-1.51-.56c-.84.26-1.17.92-1,1.16a3,3,0,0,0,.31.32c.21.2.65-.38.67-.38Z"></path>
      <path class="cls-7" d="M53.87,200.1s-.26-1.15-.69-1.16a8.8,8.8,0,0,1-.91-.08l-.12.21s.42.75.59.81l.57.17A4.58,4.58,0,0,0,53.87,200.1Z"></path>
      <path class="cls-8" d="M53.84,200.24c0-.1.11-.36-.17-.44a4.41,4.41,0,0,0-.55-.12s-.69.52-.82.6-.23.07.17.19.39.22.75.17A1,1,0,0,0,53.84,200.24Z"></path>
      <path class="cls-9" d="M53.12,199.68a3.81,3.81,0,0,0-.5.49c-.2.24-.24.31-.48.19s-.87-.21-1-.45-.16-.21,0-.5a1.29,1.29,0,0,1,.81-.49.7.7,0,0,1,.8.17A1.83,1.83,0,0,1,53.12,199.68Z"></path>
      <path class="cls-6" d="M50,179.71a2.32,2.32,0,0,0-2.34-.34c-1.12.63-1.39,1.68-1.11,2a4.55,4.55,0,0,0,.54.36c.36.23.82-.74.85-.75Z"></path>
      <path class="cls-7" d="M50.93,181s-.72-1.56-1.34-1.44-1.34.17-1.34.17l-.11.33s.84.94,1.11,1,.75,0,.87.07A6.38,6.38,0,0,0,50.93,181Z"></path>
      <path class="cls-8" d="M50.93,181.24c0-.15,0-.55-.37-.58a5.06,5.06,0,0,0-.84,0s-.82,1-1,1.11-.3.17.31.22.62.19,1.12,0A1.56,1.56,0,0,0,50.93,181.24Z"></path>
      <path class="cls-9" d="M49.72,180.66a8.41,8.41,0,0,0-.57.86c-.21.4-.24.52-.62.41s-1.31,0-1.61-.33-.3-.25-.1-.73a1.82,1.82,0,0,1,1-1,1,1,0,0,1,1.2,0A2.76,2.76,0,0,1,49.72,180.66Z"></path>
      <path class="cls-6" d="M45.37,186.82s-4.83-2.41-8.2.53-3.54,6.72-2.38,7.53a14.71,14.71,0,0,0,2.11.85c1.39.51,2.26-3.12,2.34-3.17S45.37,186.82,45.37,186.82Z"></path>
      <path class="cls-7" d="M49.49,190.63s-3.58-4.8-5.62-4-4.42,1.52-4.42,1.52l-.14,1.22S42.83,192,43.76,192s2.61-.39,3-.39A21.93,21.93,0,0,0,49.49,190.63Z"></path>
      <path class="cls-8" d="M49.63,191.36c-.05-.54-.25-1.91-1.69-1.72a20.77,20.77,0,0,0-2.84.61s-2.11,3.83-2.58,4.49-.9.8,1.19.53,2.27.22,3.86-.74A5.42,5.42,0,0,0,49.63,191.36Z"></path>
      <path class="cls-9" d="M45.1,190.25a23.82,23.82,0,0,0-1.32,3.33c-.44,1.52-.46,1.94-1.84,1.86s-4.48.82-5.72,0-1.18-.67-.83-2.44,1.15-2.59,2.73-3.95a3.59,3.59,0,0,1,4.09-.86A9.31,9.31,0,0,1,45.1,190.25Z"></path>
      <path class="cls-6" d="M62.05,187.83s-4-2.38-7.15,0-3.47,5.61-2.52,6.39a13,13,0,0,0,1.78.86c1.18.53,2.15-2.56,2.22-2.6S62.05,187.83,62.05,187.83Z"></path>
      <path class="cls-7" d="M65.4,191.38s-2.82-4.37-4.64-3.77-3.93,1.06-3.93,1.06l-.2,1s2.91,2.49,3.72,2.47S62.64,192,63,192A18.2,18.2,0,0,0,65.4,191.38Z"></path>
      <path class="cls-8" d="M65.47,192c0-.47-.09-1.67-1.36-1.59a17.37,17.37,0,0,0-2.5.35s-2.06,3.2-2.51,3.74-.83.65,1,.54,2,.32,3.4-.41A4.74,4.74,0,0,0,65.47,192Z"></path>
      <path class="cls-9" d="M61.61,190.79a21.44,21.44,0,0,0-1.35,2.81c-.47,1.29-.51,1.66-1.7,1.51s-3.94.44-5-.32-1-.65-.58-2.16,1.16-2.18,2.62-3.27a3.11,3.11,0,0,1,3.59-.5A8,8,0,0,1,61.61,190.79Z"></path>
      <path class="cls-6" d="M72.77,183.56s-4-3.08-7.62-1-4.45,5.52-3.54,6.48a14.52,14.52,0,0,0,1.79,1.15c1.18.72,2.63-2.44,2.71-2.48S72.77,183.56,72.77,183.56Z"></path>
      <path class="cls-7" d="M75.85,187.79s-2.41-5-4.43-4.64-4.33.6-4.33.6l-.35,1.09s2.76,3,3.63,3.13,2.46.12,2.84.19A19.45,19.45,0,0,0,75.85,187.79Z"></path>
      <path class="cls-8" d="M75.85,188.48c.05-.49.12-1.78-1.24-1.87a19.2,19.2,0,0,0-2.71,0s-2.63,3.13-3.18,3.65-1,.57,1,.7,2,.61,3.67,0A5.06,5.06,0,0,0,75.85,188.48Z"></path>
      <path class="cls-9" d="M71.9,186.65a22.4,22.4,0,0,0-1.81,2.82c-.68,1.31-.77,1.69-2,1.37s-4.26-.06-5.25-1-1-.83-.33-2.38,1.53-2.17,3.23-3.13a3.35,3.35,0,0,1,3.9-.05A8.73,8.73,0,0,1,71.9,186.65Z"></path>
      <path class="cls-6" d="M75.86,196.46a2.4,2.4,0,0,0,2.21-1.1c.6-1.2.21-2.27-.2-2.36a4.08,4.08,0,0,0-.69,0c-.44,0-.26,1.12-.28,1.15S75.86,196.46,75.86,196.46Z"></path>
      <path class="cls-7" d="M74.28,195.88s1.55.91,2,.45,1.06-.94,1.06-.94l-.11-.35a4.93,4.93,0,0,0-1.53-.19c-.25.13-.68.41-.79.46A6.77,6.77,0,0,0,74.28,195.88Z"></path>
      <path class="cls-8" d="M74.16,195.69c.07.14.28.5.66.28a6.8,6.8,0,0,0,.72-.49s.14-1.31.2-1.55.16-.33-.4,0-.65.2-1,.65A1.62,1.62,0,0,0,74.16,195.69Z"></path>
      <path class="cls-9" d="M75.54,195.48a6.78,6.78,0,0,0,0-1.08c0-.47-.1-.59.3-.73s1.15-.74,1.58-.67.4.05.51.58a1.91,1.91,0,0,1-.3,1.41,1.07,1.07,0,0,1-1,.71A2.8,2.8,0,0,1,75.54,195.48Z"></path>
      <path class="cls-6" d="M37.87,197.32s2.05.28,2.91-1.2.46-2.88-.06-3a6.58,6.58,0,0,0-.87-.05c-.57,0-.44,1.41-.46,1.44S37.87,197.32,37.87,197.32Z"></path>
      <path class="cls-7" d="M35.9,196.44s1.89,1.3,2.53.75,1.42-1.1,1.42-1.1l-.1-.46a6.11,6.11,0,0,0-1.93-.37c-.33.14-.9.46-1,.51A7.67,7.67,0,0,0,35.9,196.44Z"></path>
      <path class="cls-8" d="M35.76,196.19c.09.19.33.66.83.42a8.19,8.19,0,0,0,.95-.57s.3-1.65.39-1.95.23-.4-.5-.05-.85.2-1.31.74A2.1,2.1,0,0,0,35.76,196.19Z"></path>
      <path class="cls-9" d="M37.54,196a10.22,10.22,0,0,0,.08-1.37c0-.61-.08-.76.43-.91s1.53-.84,2.08-.71.51.1.6.78a2.45,2.45,0,0,1-.51,1.77,1.39,1.39,0,0,1-1.38.82A3.51,3.51,0,0,1,37.54,196Z"></path>
      <path class="cls-6" d="M51.23,189.69A1.79,1.79,0,0,0,53,190c.88-.46,1.12-1.26.91-1.5a3.46,3.46,0,0,0-.41-.29c-.28-.19-.66.55-.68.56Z"></path>
      <path class="cls-7" d="M50.54,188.65s.52,1.23,1,1.15,1-.1,1-.1l.09-.25s-.62-.75-.83-.78-.58-.06-.67-.08A4.65,4.65,0,0,0,50.54,188.65Z"></path>
      <path class="cls-8" d="M50.54,188.49c0,.11,0,.42.28.46a4.86,4.86,0,0,0,.65,0s.65-.72.79-.83S52.5,188,52,188s-.48-.17-.88,0A1.2,1.2,0,0,0,50.54,188.49Z"></path>
      <path class="cls-9" d="M51.47,189a5.06,5.06,0,0,0,.45-.65c.18-.3.2-.39.5-.31s1,.06,1.24.3.22.2.05.57a1.39,1.39,0,0,1-.8.71.8.8,0,0,1-.93,0A2.15,2.15,0,0,1,51.47,189Z"></path>
      <path class="cls-6" d="M67.47,196.55s4.54,1.11,6.81-2,1.69-6.34.56-6.81a13.12,13.12,0,0,0-1.94-.3c-1.27-.17-1.31,3.05-1.36,3.11S67.47,196.55,67.47,196.55Z"></path>
      <path class="cls-7" d="M63.27,194.14s3.94,3.35,5.5,2.25,3.43-2.13,3.43-2.13l-.12-1s-3.47-1.53-4.24-1.29-2.12.83-2.47.91A18.06,18.06,0,0,0,63.27,194.14Z"></path>
      <path class="cls-8" d="M63,193.55c.14.44.57,1.55,1.75,1.12A18.42,18.42,0,0,0,67,193.61s1-3.64,1.31-4.28.61-.85-1.11-.22-1.95.26-3.1,1.37A4.67,4.67,0,0,0,63,193.55Z"></path>
      <path class="cls-9" d="M67,193.61a20.53,20.53,0,0,0,.47-3.06c.08-1.36,0-1.72,1.19-1.92s3.62-1.56,4.82-1.13,1.12.34,1.17,1.89-.47,2.4-1.55,3.86a3.12,3.12,0,0,1-3.28,1.51A8.1,8.1,0,0,1,67,193.61Z"></path>
      <path class="cls-6" d="M46.57,193.93s2.72,1.53,4.75-.07,2.24-3.78,1.59-4.28a9.3,9.3,0,0,0-1.19-.55c-.79-.34-1.39,1.73-1.44,1.76S46.57,193.93,46.57,193.93Z"></path>
      <path class="cls-7" d="M44.3,191.62s1.93,2.87,3.13,2.44,2.6-.75,2.6-.75l.12-.7s-2-1.61-2.51-1.59-1.51.15-1.75.14A11.86,11.86,0,0,0,44.3,191.62Z"></path>
      <path class="cls-8" d="M44.24,191.19c0,.31.09,1.11.93,1a12.7,12.7,0,0,0,1.66-.27s1.32-2.15,1.61-2.52.55-.44-.67-.34-1.3-.19-2.25.32A3.17,3.17,0,0,0,44.24,191.19Z"></path>
      <path class="cls-9" d="M46.83,192a14.08,14.08,0,0,0,.85-1.88c.3-.87.32-1.11,1.12-1s2.61-.34,3.3.15.66.42.42,1.42a3.73,3.73,0,0,1-1.7,2.21,2.07,2.07,0,0,1-2.38.38A5.34,5.34,0,0,1,46.83,192Z"></path>
    </g>
  </g>
</svg>
