<?xml version="1.0" encoding="UTF-8"?>
<svg xmlns="http://www.w3.org/2000/svg" viewBox="0 0 145.5 194.89">
  <defs>
    <style>.cls-1{fill:#a29274;}.cls-2{fill:#e3e0c9;}.cls-3{fill:#fcedce;}.cls-4{fill:#bda885;}.cls-5{fill:#d0c5a6;}.cls-6{fill:#8f8267;}.cls-7{fill:#ab967a;opacity:0.25;}.cls-8{fill:#9b8d71;}.cls-9{fill:#7c705b;}.cls-10{fill:#e7e6e3;}.cls-11{fill:#745831;}.cls-12{fill:#917448;}.cls-13{fill:#554020;}.cls-14{fill:#817870;}.cls-15{fill:#a5c32f;}</style>
  </defs>
  <g id="Слой_2" data-name="Слой 2">
    <g id="Слой_1-2" data-name="Слой 1">
      <polygon class="cls-1" points="72.85 99.17 145.5 68.24 134.6 151.89 72.85 194.89 72.85 99.17"></polygon>
      <polygon class="cls-2" points="72.85 47.33 145.5 68.24 72.85 99.17 0 68.24 72.85 47.33"></polygon>
      <polygon class="cls-3" points="72.85 47.33 0 68.24 1.28 68.78 144.82 68.05 72.85 47.33"></polygon>
      <polygon class="cls-4" points="10.9 151.89 0 68.24 72.85 99.17 72.85 194.89 10.9 151.89"></polygon>
      <path class="cls-5" d="M45.79,69.27a38.44,38.44,0,0,1,3.44-3.68,32.58,32.58,0,0,1,4-3.11,39.1,39.1,0,0,1,9.13-4.42c1.61-.53,3.24-1,4.89-1.33a50.06,50.06,0,0,1,5-.76A47.64,47.64,0,0,1,82.31,56c-3.35.22-6.65.57-9.91,1.1a62.31,62.31,0,0,0-9.58,2.35,49.48,49.48,0,0,0-9,4A50.11,50.11,0,0,0,45.79,69.27Z"></path>
      <polygon class="cls-6" points="72.85 99.17 145.5 68.24 134.6 151.89 72.85 194.89 72.85 99.17"></polygon>
      <polygon class="cls-7" points="10.9 151.89 0 68.24 72.85 99.17 72.85 194.89 10.9 151.89"></polygon>
      <polygon class="cls-8" points="72.85 194.89 10.9 151.89 73.14 128.37 134.6 151.89 72.85 194.89"></polygon>
      <path class="cls-9" d="M24.06,115.11A13.53,13.53,0,0,1,23,112.24a23.7,23.7,0,0,1-.67-3,22.4,22.4,0,0,1-.11-6.23,19.89,19.89,0,0,1,1.75-6,20.32,20.32,0,0,1,3.63-5.18,26.9,26.9,0,0,1,10.69-6.37,45.42,45.42,0,0,1,12.12-2.16,69.08,69.08,0,0,0-11.72,3.25,28.79,28.79,0,0,0-10,6.32,19.52,19.52,0,0,0-5.3,10.36,24.47,24.47,0,0,0-.32,6A23,23,0,0,0,24.06,115.11Z"></path>
      <path class="cls-9" d="M91.76,114c.19.31.6.41.92.58s.69.3,1,.43c.7.27,1.41.51,2.13.73,1.41.47,2.85.89,4.29,1.29,2.88.78,5.78,1.48,8.7,2.06,5.85,1.21,11.77,2,17.76,2.67a67.23,67.23,0,0,1-26.81-3.63,45.22,45.22,0,0,1-4.21-1.71c-.69-.33-1.36-.68-2-1.06a11.07,11.07,0,0,1-1-.59c-.15-.1-.31-.22-.46-.34S91.78,114.16,91.76,114Z"></path>
      <path class="cls-9" d="M52.74,109.6A46.13,46.13,0,0,1,51,117.8a57.6,57.6,0,0,1-3,7.85,44.67,44.67,0,0,1-4.38,7.22,27.29,27.29,0,0,1-6,5.86,50,50,0,0,0,5.09-6.52,73.34,73.34,0,0,0,4-7.21c1.2-2.47,2.26-5,3.29-7.58S51.83,112.24,52.74,109.6Z"></path>
      <path class="cls-9" d="M75.27,176.17c3-1.45,6-2.6,9-3.9s6-2.62,8.83-4.12q2.16-1.11,4.23-2.39a43.15,43.15,0,0,0,4-2.72,23.42,23.42,0,0,0,6.46-7.15,18.79,18.79,0,0,1-5.72,8,41.93,41.93,0,0,1-8.27,5.54,72.72,72.72,0,0,1-9.1,3.88c-1.56.55-3.13,1-4.71,1.5S76.84,175.7,75.27,176.17Z"></path>
      <path class="cls-9" d="M41.2,167a20.28,20.28,0,0,1-4.71-3,11.22,11.22,0,0,1-3.41-4.59,6.63,6.63,0,0,1-.42-3A6.18,6.18,0,0,1,33,155a6.8,6.8,0,0,1,.58-1.39,13.73,13.73,0,0,1,3.94-4.25,38.4,38.4,0,0,1,10.06-5,75.87,75.87,0,0,1,10.75-2.81c-3.48,1.26-7,2.5-10.34,3.89a46,46,0,0,0-9.58,5.11,12.52,12.52,0,0,0-3.6,3.73,5.53,5.53,0,0,0-.53,1.13,4.69,4.69,0,0,0-.3,1.2,6,6,0,0,0,.21,2.48,9.17,9.17,0,0,0,1.13,2.34A13.93,13.93,0,0,0,37,163.48,25.06,25.06,0,0,0,41.2,167Z"></path>
      <path class="cls-9" d="M107.81,112.27l5.42-7.45c1.77-2.49,3.53-5,5.17-7.56A81.47,81.47,0,0,0,123,89.38a37.38,37.38,0,0,0,1.79-4.17,17.53,17.53,0,0,0,1-4.44A19.59,19.59,0,0,1,124,89.86a52.08,52.08,0,0,1-4.38,8.21,82,82,0,0,1-5.51,7.46A69.52,69.52,0,0,1,107.81,112.27Z"></path>
      <path class="cls-10" d="M70.58,96a15.54,15.54,0,0,1-4.85,5.1c-.89.67-1.76,1.31-2.58,2a33.11,33.11,0,0,1-2.56,2.17,46.59,46.59,0,0,1-5.81,3.35,8.78,8.78,0,0,0-2.58,1.92,3.78,3.78,0,0,0-.93,3,3.91,3.91,0,0,1,.7-3.19,9,9,0,0,1,2.52-2.24,46.5,46.5,0,0,0,5.39-3.75,31.57,31.57,0,0,0,2.3-2.32c.8-.81,1.65-1.55,2.47-2.28A13.7,13.7,0,0,0,68.52,95Z"></path>
      <path class="cls-10" d="M59.14,106c-.56,1.75-1.06,3.53-1.57,5.3L56.79,114c-.14.44-.26.89-.43,1.32s-.43,1-.94,1c.72-.57.65-1.62.95-2.48l.64-2.69c.41-1.8.81-3.6,1.29-5.41Z"></path>
      <path class="cls-10" d="M59.91,105.5a14.52,14.52,0,0,0-9.09,1.06A18.52,18.52,0,0,0,44,113a18.77,18.77,0,0,1,6.5-7.13,15.52,15.52,0,0,1,9.66-1.6Z"></path>
      <path class="cls-10" d="M37.84,106.92a30.41,30.41,0,0,1,6.75-1.58,20.53,20.53,0,0,1,7,.08l-.17.61a20.27,20.27,0,0,0-6.79-.38A30.72,30.72,0,0,0,37.84,106.92Z"></path>
      <path class="cls-10" d="M53.16,100.67a5.43,5.43,0,0,1,3.53-2.19l4.13-.72a18.67,18.67,0,0,0,3.84-1.22c.64-.27,1.17-.56,1.84-.91a3.75,3.75,0,0,1,2.79-.42l-.76,2.15c-.33-.37-1.93.41-3.29.79a21.45,21.45,0,0,1-4.27.74L56.8,99A5.16,5.16,0,0,0,53.16,100.67Z"></path>
      <path class="cls-10" d="M71,107.67c1.82,3.37,5.29,5.72,8.92,7.48s7.69,3.1,11.33,5.32a26.52,26.52,0,0,1,8.84,8.91c1.08,1.8,2,3.67,3.12,5.39a9.71,9.71,0,0,0,4.58,4,9.73,9.73,0,0,1-4.81-3.85c-1.24-1.68-2.23-3.53-3.37-5.25a25.6,25.6,0,0,0-8.94-8.22c-3.57-2-7.57-3.1-11.45-4.76s-7.8-4-10.19-7.9Z"></path>
      <path class="cls-10" d="M92.21,121.21a6.2,6.2,0,0,0,3.21-.44,6.51,6.51,0,0,1,3.63-.2c1.19.22,2.3.6,3.44.9a8.35,8.35,0,0,1,3.21,1.45,9.78,9.78,0,0,0-3.29-1.11c-1.16-.22-2.31-.5-3.45-.63a7.06,7.06,0,0,0-3.32.33,5.87,5.87,0,0,1-3.67.4Z"></path>
      <path class="cls-10" d="M96.65,125a10,10,0,0,0,3.43.47,12.79,12.79,0,0,1,3.67.25,9.39,9.39,0,0,1,5.47,4.61,10,10,0,0,0-5.65-4,12.18,12.18,0,0,0-3.49-.18,8.59,8.59,0,0,1-3.66-.56Z"></path>
      <path class="cls-10" d="M90,119.94a28.77,28.77,0,0,0,2.59,3.22,8.23,8.23,0,0,1,2,3.87c.21,1.46.06,2.84.34,4.22a15.36,15.36,0,0,0,1.25,4,15.37,15.37,0,0,1-1.54-3.94c-.38-1.38-.35-2.86-.64-4.17-.64-2.69-3.29-4.13-5-6.55Z"></path>
      <path class="cls-10" d="M81.51,116.06a35.92,35.92,0,0,1,.32,4.12,12.75,12.75,0,0,0,1.3,3.56,13.6,13.6,0,0,0,5.49,5.48,14.2,14.2,0,0,1-8.09-8.75c-.4-1.4-.39-2.83-.87-3.76Z"></path>
      <path class="cls-10" d="M75.49,113.16c-.07,2.38.17,4.91,1.72,6.92-1.93-1.66-2.79-4.32-3.2-6.82Z"></path>
      <path class="cls-10" d="M73.41,111.16a5.94,5.94,0,0,1-.46,3.48c-.38,1-.84,1.91-1.11,2.85-.43,1.92-.74,4.09.32,5.91-1.29-1.7-1.25-4-1-6.05.13-1.08.44-2.08.62-3.06a4.33,4.33,0,0,0,0-2.59Z"></path>
      <path class="cls-10" d="M74.41,97.42a17.38,17.38,0,0,0,2.65,2.2,15.58,15.58,0,0,1,2.76,2.62,27.34,27.34,0,0,1,3.69,6.39A26.57,26.57,0,0,0,79,103a13.61,13.61,0,0,0-2.86-2,18.32,18.32,0,0,1-3.3-2Z"></path>
      <path class="cls-10" d="M74.9,98.44c3.34,1.36,7.26.86,11.14,1.15A17.61,17.61,0,0,1,91.73,101a6.6,6.6,0,0,1,3.85,4.2,6.86,6.86,0,0,0-4.09-3.62,20.19,20.19,0,0,0-5.52-.92c-3.7-.22-7.72.66-11.61-1Z"></path>
      <path class="cls-10" d="M73.11,99.69a20.06,20.06,0,0,0,3,5.11c1.27,1.51,2.76,3,4.14,4.62a52.52,52.52,0,0,1,4.09,4.8A16.64,16.64,0,0,1,86.78,120a16.31,16.31,0,0,0-2.88-5.45,49,49,0,0,0-4.43-4.33c-1.51-1.44-3-2.75-4.62-4.29a22.33,22.33,0,0,1-3.81-5.3Z"></path>
      <path class="cls-10" d="M80.79,110.12c2.39.59,5.12.34,7.68,1.25a13,13,0,0,1,3.33,2.14,10.54,10.54,0,0,1,2.41,3.07,11.68,11.68,0,0,0-5.93-4.68c-2.42-.71-5-.28-7.73-.75Z"></path>
      <path class="cls-10" d="M80,109.59c.57,2.77,0,5.43-.52,8,.28-2.62.62-5.38-.12-7.85Z"></path>
      <path class="cls-10" d="M75.26,104.19c.79,4.14.13,8.17-.28,12.16,0-4,.24-8.12-.89-11.86Z"></path>
      <path class="cls-11" d="M69.41,102.2a51.61,51.61,0,0,1-2.29-4.9,6.15,6.15,0,0,1-.91-2.5,5.15,5.15,0,0,1,.84-2.9l.32-.07a5.16,5.16,0,0,1,2,2.24,6.36,6.36,0,0,1,.27,2.65,51.1,51.1,0,0,1,.07,5.4Z"></path>
      <ellipse class="cls-12" cx="65.15" cy="115.26" rx="1.63" ry="2.59" transform="translate(-64.88 140.2) rotate(-71.38)"></ellipse>
      <path class="cls-11" d="M70.3,85.45A86.35,86.35,0,0,1,63,113c-1.52,3.24,3.3,6.09,4.84,2.82a90.66,90.66,0,0,0,7.79-29.46A40.32,40.32,0,0,1,70.3,85.45Z"></path>
      <path class="cls-13" d="M75.56,86.33c0,.43-.06.86-.11,1.29A87.77,87.77,0,0,1,73.13,101a62.55,62.55,0,0,1-4.8,12.71l.12.07A49.24,49.24,0,0,0,74,101.23a85.54,85.54,0,0,0,2.84-13.45c0-.44.07-.88.11-1.31Z"></path>
      <path class="cls-12" d="M71.52,85.7C70.4,96.81,68,107.39,64.09,112.21c0,0,.76-.35,2.46.59,0,0,4.7-10.17,6.56-26.79C72.57,85.93,72.05,85.81,71.52,85.7Z"></path>
      <path class="cls-10" d="M69.82,126.81a17.08,17.08,0,0,0-.86,9,17.59,17.59,0,0,1-.13-9.39Z"></path>
      <path class="cls-10" d="M74,137.69a17,17,0,0,0,.07,5.13,17.18,17.18,0,0,1-.84-5.14Z"></path>
      <path class="cls-10" d="M66.79,116.86a33.46,33.46,0,0,0-3.47,12.76,113,113,0,0,0-.11,13.91,124.26,124.26,0,0,1-.07,14.18,36.89,36.89,0,0,1-3.51,13.68A36.48,36.48,0,0,0,62,157.67a124.1,124.1,0,0,0-1.07-14,115.15,115.15,0,0,1-1-14.25,37.22,37.22,0,0,1,2.76-14.54v0a2.28,2.28,0,0,1,4.18,1.81C66.84,116.75,66.82,116.81,66.79,116.86Z"></path>
      <path class="cls-10" d="M62.56,138.8a12.54,12.54,0,0,0,2.62,2.74A9,9,0,0,1,67.91,145a22.35,22.35,0,0,1,1.24,8.25,21.6,21.6,0,0,0-2.31-7.75,7.58,7.58,0,0,0-2.73-2.59,14.63,14.63,0,0,1-3.43-2.81Z"></path>
      <path class="cls-10" d="M62.83,149.6c1.25,1.29,3.16,2.26,4.25,4.05a10.26,10.26,0,0,1,1.22,5.73A10,10,0,0,0,66.57,154c-1.13-1.49-3-2.17-4.58-3.48Z"></path>
      <path class="cls-10" d="M63,153.12a35.81,35.81,0,0,0-4.61,4.44c-1.36,1.65-2.87,3.28-3.07,5.51a5.65,5.65,0,0,1,.56-3.27,15.8,15.8,0,0,1,1.71-2.86A27.58,27.58,0,0,1,62.07,152Z"></path>
      <path class="cls-10" d="M62.32,144.79a24.17,24.17,0,0,0-7.73,5.83,25.37,25.37,0,0,1,6.51-7.76Z"></path>
      <path class="cls-10" d="M62.18,138.72a44.3,44.3,0,0,0-6.19,3.4,6.93,6.93,0,0,0-2.34,2.21,31.83,31.83,0,0,0-1.26,3.28c-1.81,4.64-4.91,8.46-8,12.17,2.75-3.94,5.51-8,6.86-12.55a31,31,0,0,1,1.06-3.57,8.4,8.4,0,0,1,2.62-3,45.83,45.83,0,0,1,6.22-4Z"></path>
      <path class="cls-10" d="M62.52,126.53a22.29,22.29,0,0,1-3.33,4.82,11,11,0,0,1-4.71,3.49,33.47,33.47,0,0,0-5,2.42,8.61,8.61,0,0,0-3.57,4.1,8.94,8.94,0,0,1,3.24-4.57,35.51,35.51,0,0,1,4.82-3,9.39,9.39,0,0,0,3.87-3.51,20.17,20.17,0,0,0,2.59-4.67Z"></path>
      <path class="cls-10" d="M62,130.75a5.61,5.61,0,0,1,2.77,1.47A19,19,0,0,1,67,134.3a10.66,10.66,0,0,1,2.89,5.15,12,12,0,0,0-3.87-4A16.88,16.88,0,0,0,63.61,134a13.66,13.66,0,0,1-2.37-1.13Z"></path>
      <path class="cls-10" d="M65.3,117a39.08,39.08,0,0,1,4,7.45A35.46,35.46,0,0,0,71.09,128a35.46,35.46,0,0,1,2.19,3.57,8.37,8.37,0,0,1,.43,4.28,3.22,3.22,0,0,0,.22,1.73,7.25,7.25,0,0,0,1.61,1.06,9.62,9.62,0,0,1,4.29,6.87,9.38,9.38,0,0,0-4.55-6.37,7.13,7.13,0,0,1-1.88-1.08,3.53,3.53,0,0,1-.54-2.22,7.49,7.49,0,0,0-.61-3.79,36.1,36.1,0,0,0-2.36-3.27,35,35,0,0,1-2.16-3.6,38.38,38.38,0,0,0-4.21-6.79Z"></path>
      <path class="cls-10" d="M67,120.64c.16.7,1.52.7,2.61,1.23a6.8,6.8,0,0,1,2.45,2.43,10.63,10.63,0,0,1,1.47,6.46,10.42,10.42,0,0,0-1.86-6.2,6.37,6.37,0,0,0-2.37-2,9.5,9.5,0,0,0-1.55-.38A2.1,2.1,0,0,1,66.12,121Z"></path>
      <path class="cls-10" d="M73.45,133c2.64,1.14,5.65,1.72,8.29,3.35a10.5,10.5,0,0,1,3,3.46,9.24,9.24,0,0,1,1.17,4.3,9.09,9.09,0,0,0-1.5-4.1,10.81,10.81,0,0,0-3-3.06c-2.5-1.44-5.47-1.92-8.31-3Z"></path>
      <path class="cls-10" d="M68,123.14a19.41,19.41,0,0,0-1.57,8.42c0,2.93.31,5.86.46,8.8-.34-2.92-.84-5.82-1-8.79A20.39,20.39,0,0,1,67,122.68Z"></path>
      <path class="cls-10" d="M63.91,119a26.27,26.27,0,0,1-7.4,3.25c-2.51.76-5,1.38-7.43,2.22a20.58,20.58,0,0,0-11.51,9.62,21,21,0,0,1,11.07-10.72c2.43-1,4.91-1.84,7.31-2.76a24.42,24.42,0,0,0,6.58-3.42Z"></path>
      <path class="cls-10" d="M47.2,124.86a22.42,22.42,0,0,1-1.75,6.77c-.88,2.12-1.5,4.24-2.34,6.41a28.34,28.34,0,0,1-3.38,6c-1.34,1.81-3.1,3.44-3.49,5.74.28-2.32,2-4.09,3.22-5.93a27,27,0,0,0,3-6c.7-2.1,1.27-4.38,2-6.49a21.48,21.48,0,0,0,1.37-6.44Z"></path>
      <path class="cls-10" d="M42.69,127.9c-.14,1.48-.27,3-.49,4.45A15,15,0,0,1,41,136.71c-.8,1.43-2.38,1.89-3.43,2.88A9.7,9.7,0,0,0,35,143.11a9.85,9.85,0,0,1,2.5-3.66c1.06-1.06,2.6-1.63,3.22-2.92a14.72,14.72,0,0,0,1-4.25c.17-1.47.24-2.94.34-4.43Z"></path>
      <path class="cls-10" d="M42.21,140A49.49,49.49,0,0,1,40,153.7,49.07,49.07,0,0,0,41.7,140Z"></path>
      <path class="cls-10" d="M54.5,122.59a23,23,0,0,0-6.85,11,23.47,23.47,0,0,1,6-11.91Z"></path>
      <path class="cls-10" d="M57.82,121.42,56.55,128c-.44,2.17-.57,4.37-1.11,6.63a14.17,14.17,0,0,1-3,6.16c-1.42,1.68-3.37,3.16-3.45,5.5-.14-2.36,1.76-4.13,3-5.87a13.34,13.34,0,0,0,2.28-6c.3-2.11.26-4.4.55-6.64l.75-6.66Z"></path>
      <path class="cls-10" d="M44.16,126.58c-2.35,0-4.88.26-7.23-.63a26.82,26.82,0,0,0-7-1.47A29.22,29.22,0,0,0,16,127a27.83,27.83,0,0,1,21.17-1.62c2.2.91,4.63.59,7,.86Z"></path>
      <path class="cls-10" d="M37.51,126.09a15.32,15.32,0,0,0-5.6,2.71,19.4,19.4,0,0,0-4.55,4.4,20,20,0,0,1,4.36-4.65,15.92,15.92,0,0,1,5.67-3.06Z"></path>
      <path class="cls-10" d="M67.67,145c2.93,1.26,6,2.64,8.33,4.94a28.33,28.33,0,0,1,5.51,7.89,28.24,28.24,0,0,0-5.86-7.5c-2.39-2.11-5.37-3.26-8.37-4.36Z"></path>
      <path class="cls-10" d="M75.78,150a32.11,32.11,0,0,1-2.64,11,31.75,31.75,0,0,0,2.18-11Z"></path>
      <polygon class="cls-3" points="1.28 68.78 72.85 99.17 145.5 68.24 144.82 68.05 1.28 68.78"></polygon>
      <ellipse class="cls-1" cx="75.15" cy="69.7" rx="16.78" ry="6.56"></ellipse>
      <ellipse class="cls-14" cx="75.58" cy="71.91" rx="13.83" ry="5.41"></ellipse>
      <path class="cls-15" d="M78.58,56.91l-2.22-.51c3.31-14.31,5.38-30.72,6.51-51.63l2.27.12C84,25.94,81.92,42.47,78.58,56.91Z"></path>
      <path class="cls-11" d="M79.71,51.3a11.16,11.16,0,0,1-3.83,9.16,10.18,10.18,0,0,1,.84-5A10.28,10.28,0,0,1,79.71,51.3Z"></path>
      <path class="cls-15" d="M74.15,31.55l-2.27-.17C72.66,20.45,70.24,9.69,67.77.59L70,0C72.49,9.27,75,20.28,74.15,31.55Z"></path>
      <path class="cls-15" d="M82.5,38.15l-2.14-.77c3.09-8.57,8-15.44,12.5-21l1.78,1.42C90.31,23.22,85.48,29.89,82.5,38.15Z"></path>
      <path class="cls-15" d="M74.46,63.65C68.55,49.78,64.38,39.38,61.71,31.84l2.15-.75c2.65,7.49,6.8,17.85,12.69,31.67Z"></path>
      <path class="cls-11" d="M78.56,6.58c.47-3.53-4.92-5-5.4-1.49-3,22.32.5,45.91-2,68.3a40.32,40.32,0,0,0,5.33.89C78.86,52.09,75.51,29.11,78.56,6.58Z"></path>
      <path class="cls-11" d="M72,27.55a5,5,0,0,1-2.46-1.71,6.69,6.69,0,0,1-1-2.57,27.5,27.5,0,0,1-1.14-5.39l.27-.09c1,1.55,1.92,3.05,2.89,4.52A8.09,8.09,0,0,1,72,24.49a6.31,6.31,0,0,1,.25,2.91Z"></path>
      <path class="cls-13" d="M78.18,5.05v0l0,0Z"></path>
      <path class="cls-13" d="M77.43,53s.33.14.34.34l0-.31c0-.06,0-.12,0-.18L77.6,53C77.5,53,77.37,53,77.43,53Z"></path>
      <path class="cls-13" d="M76.78,53a.64.64,0,0,0-.06.16l0,.28Z"></path>
      <path class="cls-13" d="M79.92,52.69l0,0-.16.06c-.52,0-.52-.36-.5-.24a2.16,2.16,0,0,1,.08.71l.27-.21Z"></path>
      <path class="cls-13" d="M78.47,62l-.08-3.43v-.34l.08-.2c.1-.21.24-.45.38-.69l.88-1.5a7.9,7.9,0,0,0,.72-1.7,3.46,3.46,0,0,0,.11-1,4,4,0,0,0-.17-1,.71.71,0,0,0-.77-.53c-.45.13-.37.22-.49.28l-.3.31a3.56,3.56,0,0,1-.57.47,5.39,5.39,0,0,1-.48.25c0,.06,0,.12,0,.18l0,.31h0a.41.41,0,0,1,0,.13v-.14c0-.2-.32-.38-.34-.34s.07,0,.17-.06l.17-.09c-.52-3.66-.81-7.81-1.12-11.7s-.59-8.05-.52-12L78.42,5.07V5l0,0a2.75,2.75,0,0,0-2.07-1.31,2.69,2.69,0,0,0-2,1.34l.12.08a2.53,2.53,0,0,1,1.92-1.23A2.5,2.5,0,0,1,78.18,5.1v0l0,.08,0,0-2.78,24c-.14,4.08.13,8.1.34,12.13s.41,7.77,1,11.93a.64.64,0,0,1,.06-.16l0,.44,0-.28a.68.68,0,0,0,0,.38.73.73,0,0,0,.65.59A1.61,1.61,0,0,0,78,54a4.69,4.69,0,0,0,.87-.43,3.19,3.19,0,0,0,.5-.39,2.16,2.16,0,0,0-.08-.71c0-.12,0,.24.5.24l.16-.06h0l0,0-.29.29-.27.21a4.48,4.48,0,0,1-.73,2l-.88,1.44c-.15.25-.31.5-.46.8a2.19,2.19,0,0,0-.2.6v.51l0,3.41a116.91,116.91,0,0,1-.67,12.28l1.39.14A114.55,114.55,0,0,0,78.47,62Z"></path>
      <path class="cls-12" d="M73.6,44s-2.73-4.9,0-38.12c0,0-4.21,24-1.59,37.5,1.33,6.86,1.53,18.87.38,30.31.53.11,1,.23,1.59.31A121.63,121.63,0,0,0,73.6,44Z"></path>
    </g>
  </g>
</svg>
